<svg xmlns="http://www.w3.org/2000/svg" id="Ear-stitches-right" version="1.1" viewBox="0 0 2048 2048"><path id="fill-ear-rt" fill="#fff" d="M1715.7 184.2c3.2-.7 6.5-.5 7.2 3.3 2.3 39.5-3.6 77.2-9 116-.7 4.7-.2 11.1-1.1 15.9-5 26.9-24.5 58.9-29.7 86.3-5.7 30.4-4.7 64.8-10.9 95.1-7.8 38.3-25.1 77.8-33.7 116.4l-71.9 122.1c-45.8 31.3-94.9 58.3-141.8 88.2l-35 81-84.6 77.3c-5.6 2.9-16.3-.8-22.4-2.4-27.7-7.2-48.3-18.1-70.9-35.1-16.5-12.5-27.2-20.9-37.6-39.4-6-10.5-10.9-22.9-14.5-34.5 26.8-59.3 58.7-116.4 86.8-175.2 4.9-58.7 6.7-117.8 11.4-176.5 36.5-47.5 77-92.5 114.8-139.2 47.2-35.9 96.4-69 144.9-103.1 66.1-31.9 127.9-72.1 197.8-96.2Z" class="fill" data-original-prefix="fill"/><path id="outline-shading-ear-rt" fill="#000" d="M1307 640c-2 .7-10.3 2.6-11.1 3.6-3 4.1 1.3 17.2-.5 18.5L1265 668l3-12c-.6-.6-5.7 2.2-6.5 3-4.2 4-11.7 27.7-13.5 29-.6 0-1.3-.6-1.5-1-.4-.8-1.4-13.2-1.5-15.5-.2-4.8-.7-24.1 1.2-27 .7-1.1 2.6-1.3 2.9-2.3 1.9-7 2-15.6 3.2-22.5 1.6-9.4 13.2-6.8 14.6-11.5 1.1-3.6-.9-13.2.6-15.4l21.9-5.8c5.3 2.7 1.3 8.1 1.7 12.4.1 1.4-.4 1.8 1.4 1.4 1.7-.4 13.1-3.4 13.6-3.9 1.4-1.6-3.9-10.5-1-12.5l29.5-8.5c1.8 0-2.5 12.6-1.5 14 1.9-1.2 11.2-2.1 11.9-3.1.9-1.3-3.8-11 2.7-14.8 2.2-1.3 22.3-5.8 23.3-5 .2.2.8 6.1 4.1 3.9 1.5-1 5.5-18.1 4-21 5.9-1.6 4.3 4.3 6.5 7 3 3.5 45.1 6.1 52.5 7.5 10.2 14.6 18 30.7 26 46.5.7.5 11.1-11.5 11.8-12.7 3.9-7.2 7.9-26.5 9.7-35.3 7.9-36.5 10.3-74.2 9.5-111.5 0-5.1-1.8-10.3-1.1-16 .8-6.8 8.7-15.8 8-21.9-.4-3.3-3.8-7.9-4-11.6-6.1.3-12.7 10.5-18.3 8.8-2.8-.8-4.9-11.5-6.2-14.8-.9-2.2-5.5-9.6-5.5-10.5 0-2.7 12.8-9.3 12.8-12 0-.6-6.3-8.8-6.8-9.1-3.8-2.3-12 15.4-17.4 14.6-.6 0-5.1-7.4-7.6-9.6-1.8-1.6-9.2-6-9.5-6.5-4-6.4 13.4-13.8 16.5-18.5-2.8-3.5-13.2-11.1-11.9-15.8 1-3.5 26.5-16.8 30.9-20.3 4.5-1.3 9.4 7.4 14.5 7.2 3.8-.2 10.8-11.4 15.7-10.5 2.4.5 14.6 15.6 14.8 17.4.4 4.2-11.5 11.5-12 14.1-.1.8 4.8 7.2 5.5 7.3 3.4-2.6 7-5.3 10.6-7.9.9-.6 1.1-2.1 1.7-2.5 6.8-4.2 15.7 18.9 20.4 17.4 1.2-.4 14.1-16.8 16.6-19.5 21.8-23.1 62.8-49 90.7-65.3 9.8-5.7 19.9-11.8 31.3-13.2 1.3 1.2-8.7 15.3-9.9 17.6-2.6 5.3-3.8 11.1-6.7 16.3-6.7 11.8-20.8 24.7-29.2 36.8-1.9 2.7-14.2 21.5-14.1 22.8 0 1 3.3 1.6 3.8 3.1 1.3 3.9-7.2 7.2 6.1 8.3-.2-4.4-1-7.1 4.4-6.9 3.4.1 18.8 2.4 21.7 3.4 3.3 1.1 4.9 3.4 3 6.5 14.6 3.2 23.9-12.5 35.7-16.8 1.2-.4 2.8-.8 2.3 1.3-4 6.7-7 14-9.7 21.3-2.1 5.5-7.4 26.5-9.8 29.2-1.9 2.2-9.2 4.2-12.2 4.8s-15.7.7-16.2 1.2c-.3.3 1 7-3.5 7-.9 0-1.7-1-2-1h-20c-3 0 0-7.6-.5-8-3.9.8-7.9-1-11.5-1-3.1 0-.9 5.3-1.5 7-4.9-.8-15.9-2.4-19.7 1.2-2.4 2.3-11.6 32.2-13 37.5-5.1 20.1-6.6 40.9-5.3 61.7.8 12.7 6.8 29.3 3.2 41.2-1.5 5-8.7 16.4-9 20-.3 2.8 4.6 2.9 4.9 5.8.3 3.5-4.6 7.5-4.1 11.5 7.5 2.8 4.3-1.9 8-5.5 1.7-1.7 4.1-1.7 6-3 10.2-7 33.2-60.6 41.5-74.5.7-1.1 1-2.8 2.5-3-5 26.1-14.2 51.1-23 76 2.3.4 12.5-1.2 13 1.5.4 2.1-4.9 7.9-5 10.5 3.2 2.8 26.6-7.1 30.3-6.7 1 0 2.7.9 3.1 1.8.2.3 2.5 7.2 2.5 7.6.3 3-4.9 6.8-6.2 9.7-3.3 7.1-1.7 16.4-2.2 23.8-5.8 1.6-11.4 3.5-17.3 4.7-2.8.5-19.2 1.2-19.2 3.8v24.5c-7-.7-30.7-5.7-36-2.5-1 .6-9.7 16.6-11.6 19.4-6.1 9.4-16.3 27.1-23.4 34.6-7.5 7.8-44.4 31.5-54.7 35.3-19.7 7.3-44.6 10.6-65.8 18.2-5.8 2-34.1 13-36.6 16.4s.3 7.5-.2 10c-.3 1.6-4.5 4.4-4.8 7.2-.8 8.5 7.3 1.2 10 2.9 1.2.7 5.8 7.8 7.5 9.6 2.6 2.6 4.6 5 8.8 4.8 11.3-.7 35.2-9.2 46.1-13.9 49.4-21.5 87.8-56.8 129.2-89.8 2.5-2 5.5-4.5 8.4-5.5-13.2 16.7-26.3 33.5-42 48-34.2 31.8-77.5 48.8-115.7 74.8-10.7 21.5-17.6 46-29.8 66.7-18.8 31.8-53.1 60.5-84.5 79.5-3.8 19.7-10.4 16.5-26.4 12.4-31.3-7.9-73-30.1-95.5-53.5-1-1-8.1-11.2-8.1-11.9 2.6-4.2 2.1-9.3 4.2-13.8 42.2-49.7 81.5-98.7 112.3-156.7 9.9-18.7 17.4-38.6 27-57 6.9-13.3 20.8-28.8 20.6-43.5 0-2.1-1-4-1-6 0-3 1.9-7 1-10.5l-10 1 4 19c-5.3-1.5-28.2 9.2-30.9 6.8-.1-.1-1.1-3.2-1.1-3.3v-14.5Zm33 225c-1.6-1.2-5.3 5.1-8.5 5-2.8 0-2.4-4.5-5.4-4-9.6 17.4-21 33.7-33.1 49.5-2.8 3.6-8.2 8.2-10.4 11.6-1.9 2.9-12.9 38.4-11.5 40 2.7-.8 5.8-3.6 8-5.5 23.5-19.5 44.2-43.8 65.5-65.5 2.4-5.2-7-12.2-7.5-17.6-.6-5.9 6.5-7.1 3-13.4Z" class="outline" data-original-prefix="shading" opacity=".2"/><path id="outline-ear-rt" fill="#000" d="M1203 940c-.6 2-3 0-4-.5-7-3.3-16.8-8.4-22-14-11.1-12.2-18.6-30.8-29.5-43.5-1.1-2.6-.7-7.5-.5-10.5.9-20.2 13.6-36 21.8-54.2 5.9-12.8 10.2-27.3 16.3-39.7 4.8-9.8 13.9-18.2 19.9-28.1 11.7-19.3 21.4-51.9 25.7-74.3 1.4-7.1 1.9-22.4 4.2-27.8 1.5-3.5 9.8-6.1 10.9-10.1 1.5-5.1-5.6-11.7-7.1-16.6-1.8-6 2.6-25.5 3.2-33.2 1.9-23.7 1.4-48 4.6-71.4 14.2-19.8 28-39.9 42.6-59.4 37.5-50.2 83.1-93.7 131.8-133.2 4.5-3.6 17.7-15 22.7-15.2 3.5.7 18 4.5 20.3 3.3 4.7-2.4 5.9-16 7.9-20.1 2.2-4.7 51.2-32.9 59.4-37.6 54.4-30.8 126.9-64.9 186.9-82.1 2.7-.8 10.1-3.3 12.1-1.8 4.6 3.5 6.3 42.4 6.3 49.8 0 27-1.9 67.1-5.8 93.7-2.1 14.1-9.1 17.7-15.4 29.6-4.2 7.8-6.4 18.2-10.3 24.7-2.1 3.5-11.9 11.8-12.2 14.8-.5 4.5 4.4 7.1 5.6 9.5 1 2.2-4.4 22.1-5.2 26.8-4.1 23.3-4.6 41.4-3.3 64.7.9 16.8-2.9 40-6.3 56.7-1.8 8.8-6.6 31.2-10.8 38.2-2.1 3.4-10.1 8.5-13.4 11.6-2.1 2-8.3 7.7-9 10-2.9 9.3 5.7 16.5 4.4 23.3-.7 3.8-8.1 17.3-10.3 21.8-39.1 77.8-86.1 131.6-162.8 174.1-7.5 4.2-31.5 13.7-35.7 18.3-10.6 11.7-19.9 37.5-29.3 51.2l-26.8 14.7c-1.6 2.2-1.1 14.8-2 19-1.1 5.4-23.2 29.8-28.4 35.6-5.5 6.1-26.7 30-32 33-2.3 1.4-20.6 4.8-23.6 4.5-10.9-1-38.2-12.2-49-17.1-3.9-1.8-12.1-5.3-13-9.5 28.7 11.6 48.3 11.1 74.5-5 14.1-8.7 41.8-29.8 51-43 2-2.8 5.7-22.6 5.5-26.5 0-1.6-4.4-15.1-5.1-15.5-2.3-1.6-11.9 9.1-15 10l-6.9-16.3 13.7-11.2-6.4-12.6c-3.2-.5-11.4 8.8-13.9 11l-8.3-16.3c.5-2.7 10.9-8.4 12.4-10.6 1.5-2.4-6.6-13-8.1-16-2.2-.5-10.1 10.5-12.1 11-1.4.3-9.3-12.1-9.5-13.5-.4-4.1 10.7-8.6 11.1-13 .2-2.5-5.1-7.8-6.6-10.4-1.5 0-14.8 22.1-16.7 25.3-16.8 28.8-49.8 85.2-52.8 117.2-1 11 1.2 18.5 5 28.5-1.7 1.6-17.8-11.5-20-13.5-1.9-1.8-6.2-5.7-7.4-7.6-4.2-6.6 2.1-23.2.5-31.4 12.3-19.4 26.8-37.6 38.1-57.9 25-45.1 42.4-95 72.4-137.6 7.1-10.1 17-17.9 24.2-28.8 14.6-22 18.4-46.8 23.2-72.3l-16.9 2-.2 22.8-17.9 4.1v-24l-20.9 4 2 25-18 3c.1-6.8 0-13.8-1-20.5-.2-1.4.6-1.7-1.5-1.5s-20.4 7-21.1 8c-2.5 3.7 1.8 20.3.4 21.9-4.6.2-10.1 4-14.4 4.2-1.6 0-2.5-2.9-2.5-3.6v-15.5c-2.7 1.4-11.1 3.6-12.7 5.3-4.4 4.5-7.6 19-8.3 25.2-1.7 15.4-.6 29.8-6.2 44.8-8.4 22.2-22.3 50.5-32.9 72.1-6.5 13.3-16.1 27.1-22.1 40-2.9 6.3-14.6 36.8-15.6 42.4-3.9 23.1 12.7 50.9 27.8 67.3Zm516-752c-41.8 13.5-81.4 32.9-120 53.5-14.9 8-31.7 17.2-46.3 25.7-22.3 13-43.6 27.9-65.7 41.3-1.2 2.3-6.4 16.8-2.4 17.5 4.4-1.7 14.9-13.7 18.8-13.1.8.1 8.4 12 8.5 12.8.4 2.5-13.5 11.8-15.9 13.9l10.1 17.4c1.5.4 1.7-.4 2.5-1 2.3-1.6 13.1-12.8 14.1-12.9 1.4-.3 9.9 10.4 10.2 11.6 1.2 4.5-16.5 14.7-16.9 18.8-.5 4.6 12.7 27.1 12 34.5 2.3.5 1.6-.3 2.2-1.3 9.4-14.6 16.3-30.5 26.9-45 24-32.8 59-58.7 86.3-88.7 7.7-5.7 17.2-8.3 24.8-14.2 6.5-5 16.3-16.3 24.3-18.6 1.3-.4 3-.6 2.3 1.3-.8 2.2-6.1 8.3-7.8 11.2-4.2 7.1-10 20.9-14.7 26.3s-21.2 14.1-28.4 19.6c-21.3 16.2-41.4 36.5-56.1 58.9.3 1.4 12.6 4 14.3 3.6 1.9-.4 2.4-8.7 2.7-9 1.2-1.2 15.2 1.8 18 2l-3 11c3.3-.7 17.9 3.2 19.1 1.4l1.9-10.4 18 1-2 12c5.6-1.5 16.2 2.6 20.6 0 .8-.5 8.7-8.5 9.4-9.5 3.4-4.9 6.2-15.6 9.3-21.7 6.9-13.9 11.1-17 14.4-33.6 2.5-12.5 4.6-27.1 6.2-39.9 3.1-25.3 4.5-50.9 2.1-76.4Zm-431 407v15c3-.8 21.8-6.9 22.5-8 1.6-2.4-.5-12.8.6-14 .6-.7 14.6-3.5 16.9-4.1v12c.8.8 20.1-3.6 21.3-4.2 3.8-2 .3-11.3 1.8-13.7.7-1.1 14.4-3 16.9-4.1v15c6.6-1.2 13.3-1.1 20-1 1.6-14.2-7.1-26.5-10-40 .6-.6 11.1 5 12.7 5.8 7.7 4.1 40.8 22.5 44.2 27.8 3.4 5.4 9.4 26.3 11.4 33.6 3 10.6 4.7 26 8.5 35.5 4.3 10.4 12.5 9.2 20.5 4.1 22.7-14.5 44.9-81.9 46.7-108.3 2.6-36.2-3.5-85.1-11.5-120.5-1.5-6.6-8.6-31.7-12-36-1.3-1.6-.9-.7-2 0-2.7 1.8-8.5 9.6-11.9 9.1-.8-.1-7.5-11.5-9.5-12.7-.4-2.3 12.6-12 15-13.9 0-1-9.5-16.7-10.5-17.5-1.5-1.2-.8-.6-2 0-4.1 2.1-14.6 13.7-17.2 13.9-2.5-1.5-13.6-10.1-13.2-12.2s18.4-14 20.9-17.1c-10-15-20.4-5.9-31.3 1.7-43.7 30.5-78.2 65.2-111.7 106.3-19.5 23.9-38.5 48.9-55.8 74.2-6.2 26.4-10.2 56.5-11.2 83.8-.1 3.5.2 15.4 4.6 16.4.5.1 9-3.7 9.2-4.1 1.4-2.3-1.1-15.2.6-18.9l15.6-3.9Zm304-15h18c-1.2 5.5-2.8 11.1-3.8 16.7-.3 1.7-.4 1.3 1.3 1.3 4.4-.2 22.4-4.7 26.3-6.8 13.5-7.4 18.1-31 22-45 4.9-17.2 11.2-39.1 12.3-56.7 1.1-17.9-.2-35.9 2-54 1.5-13.1 5.1-26 7.8-38.9-.2-1-4.4-5.1-5.5-5.4-2.4-.7-19.8-.6-20.8.8-1.1 1.5-1.5 9.2-2.6 9.9-2.3 1.5-12.6-1.1-15.9-.9-1-2.8 2.6-9.8 0-11.6-2-1.4-15.1-.7-18.5-2.5l-2.6 12c-2.7-.3-16.6-.7-17-2.6l2.1-12.3c-5-.2-17.4-5.5-21.5-5.1-2 .2-6.7 9.4-8 12-19.7 38.2-34.2 101.9-13.7 141.7 1 2 3.7 3.3 3.1 5.6-5 6.9-26 36.3-24.9 43.2.5 3 10.2 6.7 13 8.5l2.9-14.6 17.1 1.6-2.6 19c7.7 3.3 16.1 2.2 24.1 4 1.5 0 1.7-.5 2.3-1.7 1.1-2.5 2.3-17.5 3.2-18.3Zm-33.9 40.1c-1.8 3.6-1.8 21.9-4 23.5-1.6 1.2-14.3-.8-16.4-1.8-1.2-.6-1.6-.7-1.7-2.2 0-5.1 5.1-20.2 3.8-23.9-1.8-1.1-17.1-10.4-17.9-9.7-1.9 9.1-5.4 17.8-7.7 26.8-1.9 7.6-8.3 46.4-10.8 49.2-1.2 1.4-3.2 1.4-4.2 2.3-18.3 18-38.8 32.6-61.6 44.9-2.9 1.6-11.6 6.5-14.2 6.8-3.6.5.3-3.7 1-5 15.5-29.8 22-63 4.6-93.7-6.2-10.9-18.5-27-28.2-9.8-12.5 22.2-15.1 55.6-17.5 80.5-18.4 17.5-34.1 37.6-48.5 58.5l10 17.5c1.6 1.1 11.7-10.3 14.5-11 1.6 3.6 9.8 11.2 8.1 15-1.6 3.5-11.4 8.1-11.5 11.5 0 1.3 7 13.4 7.9 14.1 1.5 1 1.5.2 2.6-.5 1.8-1.3 10.7-10.3 11.9-10 1.7 2.4 9.2 12.6 8.1 15-1.7 3.5-12.3 9.9-12.6 12.6-.2 1.5 5.5 13 6.2 13.3 4.2 2.4 13.7-13.7 17.8-8.2 1.5 2 7.2 12.1 5.9 14.2-2.5 1.8-14.2 9.8-14.7 11.9-.6 2.6 5 13.2 6.4 16.3 3.9.9 9.7-14 10.9-17 2.1-4.9 9.4-22 10.1-26 1.1-6.9-2.7-5.6 5.1-11.8 23.8-19 58.3-32.7 84.2-49.8 40.2-26.5 77-72.9 102.5-113.5 3.5-5.5 18.6-29.8 18.5-34.3 0-.7-.7-3.2-1.1-3.4-2.3-1.5-19.6 2.3-23.8.9l-2.1 22.9c-1 1.2-16.4 1.7-17.9.7-2.6-1.8 3.4-19.4 2.1-23.6l-25.9-2.9Z" class="outline" data-original-prefix="outline"/></svg>