<svg xmlns="http://www.w3.org/2000/svg" id="head-tall-hawk" version="1.1" viewBox="0 0 2048 2048"><path id="fill-head" fill="#fff" d="m1090.2 196 40.7 41.8c3.3 1.3 3.6-4.9 4.9-7.8 2.8-6.4 6-12.7 9-19l33 34c4 5 8.8 15.8 10.9 22.1s2.3 11.6 3.8 16.2 1.8 2.8 2.8 3.2c10.6 4.5 15.7-14.1 19.2-20.8s.9-2.2 1.8-1.2l18.8 29.2 2.2 40.3c7 0 14.1.3 21-1l3 22.4-88.7 342.4-.3 5.2c6.1.9 10.9-4.4 16.9-3.9 2.7 6.6 4.4 11.6 1.4 18.7L1087.8 1053c-2.4 3.4-12.1-5.4-16-2s-7.4 12-9 15c-2.6 4.7-7.9 18.4-10.4 21.3s-3.2 1-5.1 3.2c-9.4 10.9-15.4 31.4-21.9 44.1s-.4 3.2-2.1 1.4-3.8-11.3-4.8-13.7c-3.6-7.9-11.9-25.8-17.2-31.8-1.9-2.2-4.4-2.3-5.5-3.5-1.7-2-6-13.4-8-17-1.9-3.5-9.1-17.3-11-19-3.1-2.7-10.9 2.6-14.9 2.9l-1.4-1.6c-31.1-106.2-65.3-211.4-96.4-317.6-1.7-5.9-7.5-21.5-7.7-26.4s1.9-7.6 2.8-8.8c1.4-1.9 13.6 3.6 16.7 4.3s1.6.3 1.2-1.2l-87.8-338.2c-4-10.3 0-20.9 1-31.4 6.9 1.2 13.9 1 21 1l2.2-40.3c.4-2.2 16.7-27.2 18.8-29.2s.8 0 1.2.8c3.4 6.6 10.1 27 20.3 20.8s4.6-14.9 6-19c7.6-22 25.3-36.6 41-53s1.6-4.8 3.5-2.4l12.4 27.4 40-43c2.5-1 .5 4 3.5 5.5s5.9.8 8 0c7-2.8 23.9-25 29.7-26.2 17.5-1.7 35.1-1.7 52.6 0 5.8 1.3 22.8 23.4 29.7 26.2 4.9 2 10.9.7 10-5.5Z" class="fill" data-original-prefix="fill"/><path id="outline-shading-head" fill="#000" d="M986 962c1.9-.2 1.9-4 2-5.5.8-13.2-1.9-26.3-1-39.5l11.5 37c3.9 13.4 2.3 27.6 3.5 41.5 2.9 33.5 13.5 69.9 21 103 .4 1.6-.7 1.7 2 1.5 5.2-32.5 16.3-63.7 20-96.5 1.7-15.2 1.2-30.7 3.3-45.7L1061 916c-.2 12.5-.8 25-.9 37.5 0 3.2-2.8 8.2.9 10.5 1.9-8.6 6-16.6 8.6-25 25.1-83.3 35.1-171.4 48.6-257.4.3-1.6.4-6 1.8-6.7 4.3 16.5 4.5 33.6 6 50.5.6 7.1 3.1 15.9 3.1 23 0 19.9-7.5 47.6-9.1 69-.7 10.2-1.1 20.4 0 30.5 14.7-17.8 26-38.6 37-59l2 8.5c5.5 25.6-14.3 46.3-20.2 68.7-3.2 12-3.5 24-6.2 35.8-2.8 11.9-8.7 23.8-10.5 36l-4-1-30.2 110.3c-2.9 5-12.3-5-16.3-1.3l-19.4 36.3c-13.9 9.1-17.3 30.5-25.3 43.9-1.8 2.9-2.9 4-5.2.7-4.5-10-8.4-20.7-13.8-30.2-3.3-6-6.6-12-12.7-15.3l-18.6-35.4c-4.4-3.8-13.5 7-16.7.7-11.2-36.2-19.8-73.2-29.8-109.7h-3.8c-2.4-12.4-7.7-24-10.6-36-2.6-10.8-2.9-22.5-5.8-33.2-7-25.8-24.7-41.9-20.6-72.2.2-1.5.5-6 1.9-6.6 10.9 20.4 22.1 41.3 37 59 .2-13.2 0-26.3-1-39.5-1.5-18.7-8-42.2-8.1-60 0-7.7 2.4-15.5 3.1-23 1-10.9 1.4-41.2 5.5-49.5.2-.5 1.3-1.3 1.5-1 .8 8.4 1.8 17 3.2 25.3 13 79.9 22.7 161.5 46.1 238.9 2.3 7.5 6.7 14.7 7.8 22.7zm3 1c.7-1.4-.6-2.7-1-2-.7 1.4.6 2.7 1 2" class="outline" data-original-prefix="shading" opacity=".2"/><path id="outline-head6" fill="#000" d="M858 461c2.2-.8 9.2-8.7 11-7l8 44c4.6-17 14.5-35.3 25.2-49.3.7-.9 4.6-7.1 5.8-5.7 1.2 18.4 5.3 37 12.5 54 1.5-4.7 2.6-9.6 5-14 .7-1.4 4.7-8.3 6.5-7 13.5 31.3 41.5 61.5 75.6 69.9 20.3 5 35.4 1.1 53.4-8.4 25.4-13.4 43.4-35.6 55-61.5 1.9-1.4 5.3 5.1 6.2 6.3l5.8 14.2c6.4-17.1 11-35.2 12-53.5 1.2-1.4 5.1 4.8 5.8 5.7 7.9 10.4 14.5 23 20.4 34.6l5.8 14.7 7-44c1.8-1.7 8.8 6.2 11 7l27.6-77.9c3-5.9 8.8 4.9 9.3 7.7.6 3.5-7.9 31.3-9.6 37-6.4 22.3-14.4 44.1-21.3 66.2-2.5 2.3-5.2-8.8-7-9-2.9 19.2-7.8 38.9-20.5 54-2.1-11.3-3.8-22.7-7.2-33.8-2.3-7.4-6-17.9-9.2-24.8-.4-.9-.4-3-2.1-1.4s-6.8 24.6-8.8 29.7c-3.9 9.8-10.6 17.6-16.2 26.3l-2-.5c-.3-8.2-2-17.4-5-25-.4-1-2.2-7.2-4-5.5-15.2 29.4-41.9 52.6-74.2 61.3-16.9 4.5-26 2.6-42-3.5-28-10.5-50-31.5-63.8-57.8-1.8-1.7-3.6 4.5-4 5.5-3 7.6-4.7 16.8-5 25l-2 .5c-5.6-8.7-12.3-16.5-16.2-26.3-2-5.1-7.1-28-8.8-29.7s-1.7.5-2.1 1.4c-3.2 7-6.9 17.4-9.2 24.8-3.4 11-5.2 22.4-7.2 33.8-12.7-15.1-17.6-34.8-20.5-54-1.8.2-4.5 11.3-7 9-7.8-24.9-16.8-49.6-23.7-74.8-1.4-5.1-7.5-24.2-7.2-27.7.2-2.7 5.9-13.8 9-9.1l28 78.5h-.1Z" class="outline" data-original-prefix="outline"/><path id="outline-head5" fill="#000" d="m996 1009-7.5-15c-34.7-88.2-52.2-182.1-61.5-276.5-.6-6.5-2.4-18.1-2.1-24 .3-5.2 4.1-12.8 4.1-18.5z" class="outline" data-original-prefix="outline"/><path id="outline-head4" fill="#000" d="M1053 1009c-1.7.2-1.1-3.5-1-4.5.2-2.9.8-6.8 1.3-9.7 5.1-29.5 14.2-60.8 20.4-90.6 12.8-61.8 24-124 34.8-186.2l10.5-43c0 5.7 3.8 13.3 4.1 18.5 1.2 21.6-7 62.7-10.2 85.8-5 36.2-10.1 72.5-19.1 107.9-10.6 41.2-24.7 82.5-40.7 121.8z" class="outline" data-original-prefix="outline"/><path id="outline-head3" fill="#000" d="M951 577c5.7 33 10.3 66.3 16.3 99.2 5.7 31.2 16.1 61.5 13.7 93.8-1.7.3-2.1-.4-2.8-1.7-1.3-2.6-3-9.7-4-13-5.5-18.9-8.6-38.5-13.4-57.6-8.8-35.5-21.6-69.4-16.9-107.1.5-4 1.5-14.2 7-13.5h.1Z" class="outline" data-original-prefix="outline"/><path id="outline-head2" fill="#000" d="M1067 770c-2.4-32.3 8-62.7 13.7-93.8 6-32.8 10.5-65.8 16.3-98.6 4.7-2.7 6.3 7.7 6.7 11.2 5.1 40.4-7.3 71.2-16.6 108.8-4.8 19.1-7.9 38.8-13.4 57.6-1 3.3-2.7 10.4-3.9 13-.7 1.4-1.1 2.1-2.8 1.7Z" class="outline" data-original-prefix="outline"/><path id="outline-head1" fill="#000" d="m1085 192 5-19.4 2-.6 34.5 44c4.8-8.8 9.1-18.6 10.4-28.6.4-3.3-.3-6.8 0-9.9.4-3.3 3.9.3 5.4 1.6 18.4 17.2 36.7 45.6 46.1 68.9 3.8 9.6 6.2 19.6 10 29 10.4-12.1 14.9-28.5 19.5-43.5.4-1.4-.6-1.8 2-1.5 14.9 25.7 28.2 52.4 28 83 5.9-4.3 10-10.4 14.4-16.1l8.6-14.9c1.3 12.8 3.6 25.5 3 38.5-1 23.1-5.7 50.8-9.2 73.8-14.8 97.8-44.2 190.9-75.8 284.1 1.5 1.9 1.2 1.2 2.7.7 10.5-3.7 23.4-16.9 31.8-24.2 0 6.9-2.9 15.1-5 22-12.4 41.3-30.2 82.6-44.5 123.5-26.2 75.1-46.6 151.6-70.7 227.3-2.7 8.5-7.5 26.6-11.5 33.5-1.8 3.2-8.4-.9-11.8-1.8-1.3-.3-7.7-1.8-8-1.5.3 11.8-2.9 23.4-5 35l-15-8c-4.6 9.7-10.7 18.5-15.2 28.3-4 8.8-6.2 17.8-9.6 26.4-.4 1-2.5 6.9-4.2 5.3-6.4-21.3-16-40.9-27-60l-15 8c-2.1-11.6-5.3-23.2-5-35-.3-.3-6.7 1.2-8 1.5-3.4.9-10 5-11.8 1.8-4-6.9-8.8-25-11.5-33.5-24.1-75.7-44.5-152.2-70.7-227.3-14.3-40.9-32.1-82.2-44.5-123.5-2.1-6.9-4.9-15.1-5-22 8.5 7.3 21.3 20.5 31.8 24.2 1.5.5 1.2 1.2 2.7-.7-31.6-93.2-61-186.4-75.8-284.1-5.1-33.4-11.9-72.4-7-105.7.2-1.6.4-6 1.8-6.6 4.5 11.9 12.2 22.9 22 31-.2-30.6 13.1-57.3 28-83 2.6-.3 1.6 0 2 1.5 3.5 11.7 9.5 32.5 17.6 41.4.5.6 1.5 2.5 2.4 1.6 7.6-27.7 19.3-53.3 37-76 5-6.4 12.7-16 18.6-21.4 8.3-7.8 4.7 1.9 5.5 8.3 1.3 10 5.6 19.8 10.4 28.6l34.5-44 2 .6c.7 6.2 3.2 12 5 17.9.2.8-.4 2.2 1.5 1.4 1.7-.6 10.4-8.6 12.5-10.5 5.2-4.7 13.1-15.5 19.6-16.4 12-1.8 29.7-1.8 42-1.1 3.6.2 12.4.8 15.3 1.7 4.2 1.3 20.2 19 25.7 23.3.9.7 4.8 3.8 5.5 3h-.1Zm0 31c-.3-.4-2.1-7.4-3.1-9.4-4.1-8.1-16.5-24.6-24.5-28.5-4-1.9-24.6-4.1-29.8-4.2-6.8-.2-31.6 1.6-36.9 4.2-8 3.9-20.4 20.4-24.5 28.5-1 2-2.8 9-3.1 9.4-1.4 1.5-1.7-.4-2.2-1.3-1.4-2.5-4.7-17.4-8.2-16.7-3.1.7-34.5 43.5-41.1 47.9l-14-35c-19.9 25.7-32.3 59.4-39.5 91-6-8.1-14.8-13.7-21.5-21-3.5-3.8-6.3-8.4-9.3-12.7-.6-.9.2-1.9-2.2-1.3-7.8 30.7-2.5 63.9 1 95l-29-27c8 48.8 18.5 97.1 30.5 145 18.3 73.2 38.5 151.1 61 223 2 6.4 6 12.9 6 19l-28.5-18.5c19.4 48 34.8 97.8 49.5 147.5 9.2 31.1 18.2 62.4 26.2 93.8 7.7 30 13.5 60.6 22.3 90.2 3.3 0 16.5-9.3 18-8 2.3 10.8 6.6 21 11 31 2.4 1.7 10.3-8.1 14-7l16 65c2 1.9 3.4-4.9 3.7-5.8 4.2-13.3 8.3-29.7 11.6-43.4 1.2-5.2 2.1-10.5 2.7-15.8 3.6-1.1 11.6 8.6 13.9 7 4.4-10 8.7-20.2 11.1-31 1.5-1.3 14.7 7.9 18 8 8.8-29.7 14.6-60.2 22.3-90.2s17-62.7 26.2-93.8c14.7-49.7 30.1-99.5 49.5-147.5l-28.5 18.5c0-6 4-12.6 6-19 22.5-71.9 42.7-149.8 61-223 11.6-46.3 23.8-96.3 30.5-143.5 0-.6.3-1.6-.5-1.5-1.7 2.2-27.3 28.5-28.5 27 3.5-31.1 8.8-64.3 1-95-2.4-.6-1.6.4-2.2 1.3-3 4.3-5.7 8.9-9.3 12.7-6.7 7.3-15.5 12.9-21.5 21-7.2-31.6-19.6-65.3-39.5-91l-14 35c-6.6-4.4-37.9-47.3-41.1-47.9-3.5-.8-6.8 14.2-8.2 16.7-.5.9-.8 2.7-2.2 1.3Z" class="outline" data-original-prefix="outline"/></svg>