<svg xmlns="http://www.w3.org/2000/svg" id="Ear-left-folded" version="1.1" viewBox="0 0 2048 2048"><path id="fill-ear-lft" fill="#fff" d="M594.7 816.3c-2-1.6-9.6-2.2-11.2-.3-1.2 1.5-7.1 22-8.7 26.3-5 13.4-11.3 26.2-16.5 39.5-4.5 11.3-6.1 33.4-24.5 26-7-2.8-24.8-26.8-30-34-16-22.3-30.6-47.2-45.8-70.2-39-59.2-74.4-111.4-98.8-179.2-9.6-26.8-15.4-43.5 1.9-68.6 23.3-33.7 61.6-64.8 95.5-87.5 28.2-18.9 84.4-32 118.3-39.7 24.1-5.5 52.8-14.8 76.3-6.3 34.6 12.6 112.7 57.7 134.2 86.9 11.9 16.2 14.4 48.2 16.6 68.4 4.4 40.2 2.4 79.8 10.5 119.5 5.7 28.4 15.5 63.5 25.3 90.7 9.5 26.8 26.4 56.8 33.6 83.4 2.7 9.8 2.8 21.2 5.4 31.2-20.8 30.1-50.2 57.8-83.8 73.1-4.5 2-23.1 9.9-26.7 10.3-8.6 1-32.2-11.5-40.2-16.4-30.9-19-65.2-41.9-82.2-74.8-5.7-10.9-9.1-24.8-15-35-4.8-8.3-17.4-24.5-23.9-32.1-1.8-2.2-8.6-9.9-10.3-11.2" class="fill" data-original-prefix="fill"/><path id="outline-shading-ear-lft" fill="#000" d="M354 607c25 10.2 48.3 24.2 72.6 35.9 13.7 6.6 30.3 16 45.8 13.1 5.7-1 44-29.1 51.4-34.6 19.1-14.1 38.4-29 55.6-45.4 2.4-2.2 16.9-16.4 17.3-17.8.2-.7-.8-13.9-1-14.6-.7-2.1-5.4-2.5-4.8-5.7l112.4-.9c3 1.7 3.4 7.8 3.7 11.3 2.7 38-6.9 75.6 4.2 112.8 21 70.3 74.6 151.5 121.2 207.8 7.2 8.7 29.7 30.3 31.3 39.7 1.2 7.2-.9 6.5-3.2 11.4-7.5 16.4-34.7 36.9-50.7 46.3-9 5.3-27.2 14.4-36.9 17.2-1.4.4-2.6.7-4 0-24.5-12.8-50.2-23.4-74.5-36.6-30.1-44.6-58.6-90.2-95.4-129.6-2.7-2.4-13.6-3.8-15.6-1.4l-48.6 89.4c-2.6 4.2-8.5-3.4-10.8-5.9-25-26.8-47.5-67.8-68-99-14.6-22.2-30.2-43.3-43.8-66.2-23.6-39.9-44.2-83.1-58.2-127.3Zm423 360c-4.3-10.8-5.6-28.6-11.1-38.3-4.3-7.6-16.3-19.5-22.2-27.8-12-16.6-23.4-35.5-33.8-53.2-13.5-23.1-33.6-71.9-57.8-82.2-8.1-3.4-11.8-1.6-19.5-2.5-6.2-.7-12.2-2.2-18.4-2.9l-17.1 35.8c6.1 2.2 12 5.3 18.2 7.4 10.5 3.6 38.2 7.9 44.8 14.2 7.1 6.7 12.3 40.6 19.5 52.5 6.6 11 30 33.7 39.9 44.1 14.9 15.5 36.1 38.7 53 51 1.3 1 2.7 2.2 4.5 2Z" class="outline" data-original-prefix="shading" opacity=".2"/><path id="outline-ear-lft" fill="#000" d="M844 941c3.5-3.7 9.5-11.8 12.4-16.1 4.8-7.2 16.4-28.2 15.6-36.3-16.8-39-30.3-79.4-48.1-118-7.2-15.6-22.5-39.6-25.4-55.6-1-5.8 0-11.7-.5-17.5-3.3-45.1-7.7-135.4-25.5-174.5-3.3-7.2-25.2-24.6-32.6-30.4-33-26-70.9-45.4-110.4-59.7-68.6 7.7-172.2 32-218.5 86.6-11.6 13.7-35.4 43.8-42.8 59.2-2.8 5.7-1.1 5.2-1.1 9.9-.6 34.1 31 102.7 47.4 134.5 23.4 45.3 67.4 118.5 102.5 154.5 3 3.1 13.8 12.9 17.6 13.5 1.7.3 4.6-6.1 5.3-7.7 14.2-30 26.4-60.7 41-91 5.7-11.9 11.2-28.3 17.9-39.1 10.4-16.5 24.8-29.7 35.4-48.6 8.3-15 26.4-54.2 27.8-70.3.8-9.2-9.5-29.1-14.5-37.3-14.7-24.4-35.8-45.3-60.4-59.6-2.6-2.3 3.1-7.7 5.1-8.9 6.8-4.5 36.1-12.8 44.5-13.5 17.3-1.5 48.8 8.1 63.5 17.5 5 3.2 7.9 6.1 7 12.5-15-2.5-40.6-15.3-47.5 6-7.2 22.3 16.6 48.8 27.5 66.5l-7.8 55.7c4.9 9.7 11.4 18.4 18.3 26.7 10.7 12.9 16.5 19.9 25.3 34.7 27.2 45.4 45 96.6 73.8 140.2 5.2 7.8 23.4 29.6 24.3 36.7 1.1 8.3.3 18.2 1.9 26.7-1.8 3.8-26.4 25.2-28.8 22.7 1-5.6 4.4-10.8 5-16.5 2.2-21.2-16.5-60.3-26.5-79.5-23.8-45.9-52.8-93.3-86-133-5.4-6.5-16.8-16-20.5-22.5-1.2-2-1.5-4.3-2-6.5l-62 104c4.1 1.2 8.2 4.3 11.7 6.8 2.7 1.9 14.1 10 15.3 11.7 3 4.1 6.3 16.5 8.8 22.2 7.7 17.2 25.2 54.7 36.7 68.3 7.1 8.4 25.7 22.7 35 30 24.3 19.3 37.5 32 71 29 9.3-.8 17.4-5.9 26.5-6-10.1 6.5-41.4 22.8-52.5 23s-39.2-12.2-49.4-18.6c-13.5-8.5-21.1-19.2-32.6-29.4-11.3-10-27.4-17.4-33.7-31.3-7-15.8-10.7-29.5-19.7-45.3-6.6-11.7-14.4-24.6-24.7-33.3l-4.9 5.1c-15.5 20.1-21.9 45.4-27.1 69.9-3 14.1-5.4 28.6-5.5 43-2.8 3.2-28.5-20.2-31.5-23-80.1-74.1-140.5-192.9-177.2-294.8-2.9-8.2-11.2-27.8-12.1-35-1.2-10.5 17.8-49.1 23.6-59.9 8.7-16.2 21.8-38.5 33.7-52.3 17.9-20.8 63.6-38.8 89.5-49.5 41.3-17 119.9-46.1 163.2-35.2 14 3.5 51.2 30.2 65.3 39.7 21.7 14.6 45.1 30.3 65.4 46.6 5.8 4.7 23.5 19 26.2 24.8 4.2 9.2 1.4 36.4 1.9 48.1 2.4 62 10.9 128.3 38.9 184.1 5.6 11.2 13.7 22 19.1 32.9 6.1 12.4 10.3 26.9 16.3 39.7 9.2 20.1 20.9 33.1 21.8 56.2 0 2.2.4 4.4-.5 6.5-13.3 16.2-22 40.8-39.8 52.2-4.6 3-11.3 6.6-16.7 7.8Z" class="outline" data-original-prefix="outline"/></svg>