<svg xmlns="http://www.w3.org/2000/svg" id="left-ear-notched" version="1.1" viewBox="0 0 2048 2048"><path id="fill-ear-lft" fill="#fff" d="M515.3 757.7 497.9 703c-4.5-.8-15.7 5.8-19 3.5-2.3-1.5-6.1-25.3-7-29.5-1.9-1.6-22.5 9.7-28.3 7.8-.7-.2-1.2-.8-1.6-1.4l-62.4-152.6c-3.7-41.1-13-85.4-14.7-126.3-.1-3.3-1-8 2-9.9l32.9-20.5-37.7-10.3-29.8-44.7c-3.5-42.9-4.2-85.6-6.5-128.6-.5-2.7 8-8.8 9.8-9.3 2.4-.6 8.1 2.5 10.9 3.6 46.2 19.1 91.1 42.1 137 62l183.2 124.8L792.3 514c2.9 3 4 6.5 4.5 10.5 7.1 58.5 6 120 13.2 178.8l79.7 168.3c.4 1.9 0 3.4-.8 5.1-7 17.9-22 38.7-30.7 56.3-20.9 16.1-39.2 32.7-64.7 41.3-10.7 3.6-33.2 11-43.5 12.5-2.4.3-4.7.6-7-.5-28.5-27.2-57.8-53.6-85.7-81.3l-37.6-83.4L515 757.8Z" class="fill" data-original-prefix="fill"/><path id="outline-shading-ear-lft" fill="#000" d="M608.2 565.2c.8-.8 2.2-1 3.3-1.2 13.1-2 32.8-1.5 44.9-5.2 2.8-.8 11-9.6 14.1-5 .5.7 2.2 15.3 2.4 17.6 1.2 14.7.7 27.7 3.3 42.7 8.2 46.2 31.4 83.3 65.2 114.8 1.4 1.3 7.1 4.8 7.3 5.2 1 1.7 0 13.9.2 17.3.9 12.3 6 21.7 8 33.5 2.7-3.1 5.7-6 8.5-9 1.7-1.7 1.3-5 5-2l27.4 50.6c7.7 26.9 34.8 63.7 56.7 81.3 2.2 1.7 13.4 7.9 13.5 8.7.5 2.4-7.6 14.7-9.7 17.2-10.6 13.4-47.4 38.2-63.5 44.5-8.8 3.4-36.8 11.1-45.9 12.2-1 .1-2 .5-3 0l-65-53.1-77-110-70-38-39.1-83.4c-2.9-1.8-10.8 4.3-13.4.9s-5.7-31.3-7.6-32.9c-11.2 0-22.1 3.7-33.2 5-7-11.4-11.4-14.7 3-20.8 11.4-4.8 24.1-5.7 36.3-6.7-32.8-44.7-49.3-99.3-63-152.5 1.4.2 1.9 1.8 2.5 3 12.6 23.2 36.1 80.6 58.2 92.8 1.6.9 3.3 2.3 5.3 2.2.8-.9-4.8-20.8-5.7-23.8-2.5-7.6-11-23.7-11.3-29.8-.5-10 4.4-26 5.1-36.9 2.7-44.5-13.8-99.2-36.9-137.2-.6-1-3.6-6.7-5.2-5.3-6.7 22.4-24.9 43.5-45.8 54.2-1.2 7.7-2.5 15.5-3.2 23.3-.7 6.9-.2 15.5-1 22-.2 1.4-.6 3-2 1.5L361 399.6l39.9-25.2-57.1-17.9-9.9-74.6 9.1 22.4c2.6 5.6 8.6 18.3 12.9 22.1 11.2 10 48.5 26 63.4 25.6 1.4 0 3.1.6 2.5-1.5-14.6-20.1-30-39.8-48.8-56.2L360.3 252c24.5 9.1 46.6 22.6 68.4 36.6 20 12.8 39.3 25.1 55.6 42.4 27.9 29.6 53.2 65.5 69 103-1.6 41.9-.6 84 7.9 125.1 2 9.5 6.3 30.8 10.3 38.7 1.1 2.1 7.7 10 9.7 11.3.9.6 1.4 1.7 2.6.5l24.2-44.3ZM777 967c-3.9-10.9-5.5-27.1-10.2-37.3-2.9-6.1-17-20.7-22.2-27.8-24.6-34-42.1-71-63.4-106.6-16.1-26.8-19.1-20.9-44.5-33.5-28-13.8-72-45.1-92.1-68.9-11.2-13.2-19.7-30.7-30.5-43.5-1-1.2-9.9-10.7-11-9.5-.7 20.8 11.1 38.7 20 56.5-1.5-.3-11.7-12-9.8-5.2 2.3 8.2 6.9 17.8 9.8 26.2 5.3 15.4 10.6 30.9 15.5 46.5 21.2 12.2 44.3 25.6 66.8 35.2 16.5 7 33.5 9.8 50.4 15.1 5.5 13.5 10.9 27.2 17 40.5 9.5 20.5 22.4 32.9 37.7 49.3 17.5 18.9 38.7 41.3 58.5 57.5 1 .8 7.3 6.2 8 5.5M495 668c-2.2-1.5-4.1 5.2-4.7 6.8-.9 2.3-5.2 15.2-4.2 16.2 1.7.5 2-.7 3-1.5 1.8-1.3 12.8-10.3 12.9-11.2.4-2.6-6.7-7.3-6.9-10.3Z" class="outline" data-original-prefix="shading" opacity=".2"/><path id="outline-ear-lft2" fill="#000" d="M673 548c1 1.1-8.8 24.7-9.5 28.9-3.2 18.8 9 75.6 17.4 93.7 8.3 17.9 19.9 26.5 31 41 10 13 27.1 42.8 34 58 3.2 6.9 7.3 23.6 10.7 28.3.6.9 2.3 2.8 3.5 2 .7-.5 6.9-12.2 9-13.5 1.1-.7 2.2-.8 3.4-.4 4.1 1.4 13.8 33 15.4 38.7 4 14.6 5.1 30.8 8.8 44.2 2.3 8.4 20.4 26.7 25.3 35.7 2.6 4.6 4 23.4 4.2 29.8.3 6.8-5.8 11.2-10.6 15.5-3 2.6-13 10.7-16.2 11.8-1.5.5-2.7.7-2.3-1.3.7-3.6 4.3-8.8 4.9-13.1 2.6-18.9-8.5-44.7-15.7-62.1-1.5-3.5-5.2-8.8-6-12-1.8-8.1-2-19-3.4-27.6-.5-3.3-4-24.7-4.8-25.7-1.6-1.8-3.9 4.7-4.2 5.3-2.6 5.9-2.8 11.8-4.7 17.3-.5 1.4.3 1.7-2.1 1.4-17.1-29.1-27.5-61.7-47.2-89.3-7.7-10.8-17.1-22.2-26.8-31.2-3.1-2.9-18.5-13.8-19.5-15.5-2.6-4.3-1.1-16.8-1.7-22.3-1.2-13-10.2-51.3-17.9-61.1-10.4-13.3-23.7 7.8-28.2 16.8-11.9 24.1-10 50.1-.3 74.7 2.7 6.9 6.5 13.3 9.5 20-2.9 0-5.5-1.3-8-2.5-12.4-5.8-27.9-15.9-39.3-23.7-9.7-6.7-30.6-22.1-35.5-32.5-4.7-9.8-7.2-35.2-10.5-47.5-8.6-32.7-20.4-64.8-41.6-91.5-.3-1.7 5.1-9.4 6.3-12.3 14.5-33.8 3.2-89.8-11.3-122.7-19.9-45-50.2-81.4-89.9-110.1-6-4.3-15.7-8.5-20.4-13.6-5.6-6.2-10.5-19.5-14.9-27.1 15.1 6 29.9 13 44 21 46.7 45.1 89 81.7 117.2 141.9 2.5 5.3 12.2 26.2 12.6 30.4.7 7.6-5.5 27.2-6.7 35.9-7.5 53.4-.2 102.7 25.7 150.1 5.5 10 23 36.2 36.2 23.9 4.9-4.5 9.1-31.2 11.5-39.5 2-7.1 8.6-30 12-35 3.1-4.5 28.4-18.6 34.8-22.2 2.3-1.3 20.8-11.7 21.7-10.8Z" class="outline" data-original-prefix="outline"/><path id="outline-ear-lft1" fill="#000" d="M847 941c10.6-11.2 23.3-30.3 27.1-45.4 4-15.9-.3-15.2-4.9-28.4-9.8-28.2-18.3-52.5-31.4-79.6-19.7-40.8-34.2-57.3-38.8-105.2-2.7-28-4.3-56-7-84-2.3-23.6-2.3-66.6-15.2-85.8-14.9-22.2-37.6-49.1-54.8-70.1-38.7-47-78.5-83-129.5-116.6-44.3-29.2-93.1-59.2-139.9-84.1-38.8-20.7-78.7-40.3-120.7-53.8-1.5 19.2-1.7 39.3 0 58.5s5.3 44.4 9.3 63.7c1.7 7.9 11.2 35.7 17.3 39.7 8.2 5.5 35.6 11.4 46 13 7.9 1.2 12.6-2 7.5 9.8-6.1 14.1-22.8 28.1-36.2 35 1.3 9.3 4 18.5 5.1 27.9 2.4 21.6.3 44.6 3.3 65.7 6.5 46 32.5 120.1 58.3 158.7 1.4 2 3.8 6.9 5.9 7.1 2.8.3 18.9-4.4 24-5 6.1-.7 12.5-1.5 18.5 0-1.5 5.2-4.3 10-4.9 15.6-.3 2.9-.6 12.9.8 14.8 2 2.8 14.2-4.7 17 .2l24.6 68.4c28.6 23.4 63.9 36.6 93.9 58.1 19.4 47.2 45.7 91.8 83 127 32 30.2 60.3 41 103.5 23 0 2-1.1 2.8-2.7 3.8-9.1 6.2-48.7 21.7-59.3 22.8-3 .3-21.2-3.2-23.6-4.5-14.8-13.8-28.4-30-43.4-43.6-10.8-9.8-31.4-21.3-37.2-33.8-2.9-6.2-4.6-14-7.3-20.7-6.5-15.5-24.7-50.7-38.1-59.9-6.9-4.7-17.7-8.4-25.4-12.6-18.9-10.5-36.6-23.3-54.4-35.6-3.2-9.7-16-72.5-23.2-74.8-3.8-1.2-13.7 5-16.2 2.8-.6-.5-4.1-12.1-4.6-13.9-1.3-4.8-1.7-10-2.5-15-6.3-.6-12.9 3.1-18.3 6.1-3 1.7-12.5 9.6-13.3 9.8-1.6.3-2.5-1.6-3.2-2.6-7.7-10.6-16.4-27.4-22.7-39.3-24.2-45.5-47-101.1-56-152-2.4-13.5 2-13.7 4.3-24.8 3.2-15.5-1.3-47.1-4.1-63.5-.8-4.5-4.5-15.7-3.5-19.1 1.1-3.7 31-16.7 33.8-23.7-13.2-.2-28.6-3.9-40.3-10.2-28.2-15.2-26.4-45.7-28.7-73.3-2.6-32-7.2-72.4-3-104 .3-2.4 3.7-16.9 4.6-17.6 3-2.2 20.7 2.5 25.4 3.6 67.6 16.1 153.5 57.1 213.7 92.3 35.8 21 74.6 43.9 103.3 73.6 52.5 54.4 98.3 114.6 141.4 176.6 2.3 4.6 2.2 21.8 2.6 28.4 3.3 61.9 8 156.6 41.6 209.4 3.9 6.2 8.9 11.1 12.3 17.7 16.1 31.9 26.7 69.7 43.1 101.9l-.5 8.4c-13.6 15.6-21.6 39.6-39.2 50.8-5 3.2-11.6 7-17.3 8.2Z" class="outline" data-original-prefix="outline"/></svg>