<?xml version="1.0" encoding="UTF-8"?>
<svg xmlns="http://www.w3.org/2000/svg" id="eyes-half-robo-lefty" version="1.1" viewBox="0 0 2048 2048"><g id="fill-eyes"><path id="fill-eyes10" fill="#fff" d="M1340.2 1161.2c-1.8 3.2 2.5 12.1 1.8 16.2-.3 2.1-5.6 8-6.6 11.5-1.6 6.1-1.6 14.6 6.5 13-2.9 14.9-6.1 30.8-15.2 43.3-4.1 5.7-24.3 27.4-29.8 30.2-9.5 4.9-28.4 5.8-39.5 8.5-3.7.9-16.8 4.8-19.1 6.9-2.7 2.3-2 11.3 1.3 12 1.6.3 5.2-.9 5.3 1-8.5 2.7-18.7 4.8-27.6 5.9s-19.3 1.8-27.9 2.1c-8.3.3-33.7 0-40-4-10.6-6.8-26.7-27.9-39.9-29.1-6.9-.6-10.6.4-10.6 8.1-.6.7-10.6-4.7-11.9-5.6-11.9-7.5-40.3-29-48.5-39.5-5.2-6.6-3.8-13.2-15.1-12-7.3.8-7.4 9.4-12 14-1.5 1.5-18.9 12.9-20.1 13-1.9.2-3.7-1.2-5.4-.5-6.2 2.4-15.1 17.1-22.1 20-4.6 1.9-15 .6-17.5 2.5-8.4 12.7-14.5 27.7-22.6 40.4-5.8 9.2-8.7 11.7-19.6 14.4-15.5 3.9-33.9 4.3-49.7 8.1-53.2-18.6-106.5-37-159.2-57.1-1.9-1.6-2.8-26.6-3.2-31.3-3.3-31.2-7.2-62.5-10.2-93.8-.3-.9-.9-1.8-1.8-2.2-4.9-2.4-25.1 2.5-26 1.5.2-3.8-1.2-8.2-2.8-11.7-2.5-5.4-15.3-21.4-15.2-25.7 0-2.9 5.5-14.4 7.1-18 18.2-40.9 44.7-76.3 69-113.4 5.5-.4 9.2 3 15.3 1.8 4.1-.8 23.2-25.9 28-31 60.3-64.2 149.7-115.4 238-125 9.5-1 28.3-3.2 37-2.1 6.9.9 4.3 7.7 8.1 8.9l41.8 3.2c96.6 6.4 182.3 72.3 241.5 144.5 2.8 3.4 4.3 9.3 8.7 10.3 5.9 1.3 8.4-1.5 13.8 4.2 19.9 20.7 39.1 64.4 47 92 2.1 7.3 7.6 26.9 7.5 33.5-.1 8.9-14.8 5.9-22 7.9-13.5 3.8-24.8 15.9-36.8 22.7Z" class="fill" data-original-prefix="fill"/><path id="fill-eyes9" fill="#fff" d="m828 1222 66.3 32.1c4.8 3.5-5.7 11.7-9.1 13.7-32.1 19-64.9-12.6-57.3-45.8Z" class="fill" data-original-prefix="fill"/><path id="fill-eyes8" fill="#fff" d="M996.7 1072.7c-7.1 8.9-18 18.1-25.7 27.8-7 8.8-21.5 24.3-12.5 35.4 6.6 8.1 24.3 16.3 30.4 25.6 4.5 6.7-.7 8.7-2.8 14.3-4.9 13-9 38.6-11.1 52.9-.7 4.8-.5 16.1-1.8 19.1-.5 1.2-18.7 15.1-19.9 15.3-6 .9-37.9-16.9-45.1-20.9-33.2-18.2-65-39.3-97-59.4-2.4-2.9-4.8-25-5.3-30.2-1.2-12.4-3.9-40.7-.5-51.5.4-1.3 5.1-11.5 5.7-11.8 1.2-.8 7.1-.2 8.9.3 34.7 19.4 69.8 38.2 104.6 57.4 8.6 4.7 25.8 16.8 33.6 19.4 6.5 2.1 12.2-.5 18.7-.2.7-2.3-.6-1.7-1.3-2.3-6.7-5.9-13.4-8.7-20.6-13.3-40-25.6-80.3-50.6-122.4-72.6-1.1-.4-2.3-1.9-1.7-2.8.9-1.2 24-8.8 28.3-11.2s6.5-5.1 8.5-9.4c17-55.2 33.2-111.9 54.3-165.7 1.9-4.8 10.1-26.3 12.3-28.7 3.1-3.3 25.6-7.8 31.2-8.8 9.4-1.6 51.2-7.1 57.2-2.8 1.1.7 1 1.9 1.1 3 .2 8.6-3.3 22.7-4.1 32-3.3 38.2-4.3 76.8-6 115-.3 6.8.8 14.5 0 21-.4 3.8-15.5 51-17.3 53.2Zm-83-72c14.9-14.9-1.8-40-16.7-24.2-13.9 14.6 2.2 38.7 16.7 24.2m-87 112.5c-9.3 1.7-16.1 13.2-15.8 22.2 1 30.2 42 29.5 39-2.9-1.1-11.5-11.4-21.4-23.2-19.3" class="fill" data-original-prefix="fill"/><path id="fill-eyes7" fill="#fff" d="M719.3 1016.7c-1.3-1.1-2.3-5.5-4.4-2.2-1 1.6-1.9 7.9-2 10-.3 9.1 2.9 14 10.4 18.7 14.4 9.1 35.8 16.8 51.7 25.3 2.3 1.2 15.6 8.2 15.9 9.2-1.9 30.7-1 61.8 2.1 92.3l-49.3-29.2c-8.3-3.6-16.5-9.5-25.5-11.5-18.7-4.3-38.7 5.2-56.2 10.7-.3-7.3-7-15-5.5-22 1.7-7.9 11.7-26.9 15.7-35.4 12.3-25.9 26.6-50.8 39.8-76.2l5.3-.3c32.3 10.2 64.4 22.1 97.7 28.8l-10.1-7.4c-19.2-11.1-39-21-58.9-30.6 2.6-8 8-15.6 13.5-22 28.9-33.5 71.7-67.3 110.5-88.5 15.7-8.6 32.7-17.3 50-22-29.9 57.7-44.6 121.4-62.5 183.5-4.7 10.6-31.8 18.9-42.8 19.8-26.5-14.9-55.5-27.3-81.8-42.3-4.4-2.5-9.8-5.6-13.6-8.9Zm124.4-20.5c-16.7 3.5-29.8 42.7.5 37.5 8.5-1.4 15.5-11.5 17.7-19.3 3.6-12.9-5.5-20.9-18.2-18.2m-76.9 78c-23.6 1.9-25.1 46.6 4.5 41.6 21.8-3.8 18.6-43.4-4.5-41.6" class="fill" data-original-prefix="fill"/><path id="fill-eyes6" fill="#fff" d="M800 1304c-8.7 1.2-16.8 6-25.2 6.8-20.5-8.8-45.8-14.6-65.5-24.6-3.5-1.8-9.5-5.7-10.3-9.7-6.5-34.8-8.8-73.6-10-109 0-2.2-1-4.2-1-6.4 2.7 1.1 8.9-2.4 9.8.7 1 3.3-.2 10.7.2 14.8 2 24.8 8.2 51.2 13.5 75.5l42.8 27.2 45.7 24.8Z" class="fill" data-original-prefix="fill"/><path id="fill-eyes5" fill="#fff" d="m796 1318 21.4-6.9 31.3 11.7c6.8 1.4 17.5-3.8 24-6.6 20.2-8.8 40.2-20.7 58.3-33.2 1 1.2-8.7 14.2-10.2 16.3-6.7 9.4-14.7 22.2-25.5 26.5-13 5.1-28.9 6.8-42.5 10l-56.7-17.8Z" class="fill" data-original-prefix="fill"/><path id="fill-eyes4" fill="#fff" d="M827.7 1121.2c14.4-3.3 20.3 16.6 10.2 24.2-15 11.4-25.7-20.7-10.2-24.2" class="fill" data-original-prefix="fill"/><path id="fill-eyes3" fill="#fff" d="M903.7 979.2c9.3-2.7 14.3 12.6 2.3 16.4-10.5 3.4-9.1-14.4-2.3-16.4" class="fill" data-original-prefix="fill"/><path id="fill-eyes2" fill="#fff" d="M765.7 1083.2c17.2-3.9 13.5 24.8-.2 24.9-13.5 0-10.5-22.4.2-24.9" class="fill" data-original-prefix="fill"/><path id="fill-eyes1" fill="#fff" d="M837.2 1025.8c-5.2-5.2 1.9-18 8.5-19.5 18.3-4.2.2 28.3-8.5 19.5" class="fill" data-original-prefix="fill"/></g><g id="shading-eyes" class="st2"><path id="outline-shading-eyes4" fill="#000" d="M1032.8 847.2c1 1.6-2.5 28.8-2.8 33.3-.8 13.9-1.5 28.1-2.1 42-1.9 48.1 2.5 106.7-17.5 151.5-4.6 10.3-15.2 13.9-18.9 21.1-1 1.9-8.8 30.8-8.6 32.4 6.3 10.9 30.1 24.7 30.1 38 0 7.2-3.9 19.1-2.9 25.7 1.2 7.7 14.5 17.6 14.8 26.8 1.8.4 2-.5 2.8-1.7 1.6-2 1.3-5.2 3.2-6.3 1.1 2.2 1.9 10.6 3 11.5s12.8 3.9 15.4 4.6c19 5 35.7 9.7 54.3 2 80.1-33.2 142.3-100.3 220.1-137.9l32.3.3c1.7 1 10.7 21.9 13.2 25.8 2.7 4.1 2.7 3 5.7 5.3 3.7 2.8-5.2 4.4-7.9 5.9-8.1 4.2-26.1 12.6-32.3 17.7-2.4 1.9-.9 4.2-2.2 5-26.2 9.2-58.4 13.2-83 25.8-28.6 14.6-61.3 41.2-85.8 62.2-1.7 1.4-2.3 3.7-4.6 5.4-9.7 7.5-49.7 20.5-54 26-.8 1-.5 3-1.7 3.5-3.1 1.4-7.1.6-10.3 0 3.1 7.5-1 9.4-7.9 8.5-11.1-10-24.3-17.7-35.5-27.5-7.8-6.8-14.2-15.6-22.1-21.9-2.6 1.4-6.5-.7-8.5.4-1.9 1-7.5 9.4-9.6 11.4-14.2 14-31.4 24.6-46.4 37.6-2 1.2-4-.1-6-.5l2-2c-3.2-.5-8.5.8-11.3-.2-1.4-.5-12.2-12.6-15.3-14.7-13.4-8.9-36.6-16.5-52-25-25.1-14-49.7-31.6-74.4-46.6-21.2-12.8-55.6-36.6-79.5-39.5-1.8-.2-18.8.7-19.8 1.1-1.3.4-1.4 1.2-1.6 2.4-.8 4.3-.3 16.1 0 21 1.4 23.2 7.2 47.7 10.2 70.8 1.8 4.5 25.6 17.9 31.1 20.9 16.5 9.1 28.4 13.3 45.9 19.1 11.7 3.9 24.4 11.9 36.1 16.9 10 4.3 20.2 7.6 30.2 11.8 16.9-6.2 34.2-14.2 50.1-22.8 8-4.3 17.2-11.6 24.8-15.2 1.2-.6 2.1-1.3 3.6-.9-1.1 4.8-2.9 13.6-6.6 16.8-6.2 5.3-26.3 13.5-34.7 17.3-9.1 4.1-31.9 15.2-40.4 16.6-3.3.5-4.7 0-7.8-.7-13.2-3.5-28-13.4-41.2-17.9-6.7 1-15.1 6.6-21.8 6.7-4.8 0-9.7-4.3-14.5-4.8-1.3-1.7 11.6-7 12.7-7.8 3.7-2.4-.7-2.2-3.1-3.4-17.8-8.6-36.5-19.1-53.2-29.9-6.8-4.4-19.8-11.2-22.2-18.8-6.1-19-5.8-44.3-7.3-64.2-16 3.2-11.8.8-13-10.5-.3-3.2-1.9-17.2-2.9-18.8-2.3-3.7-13.3-.4-13.9-.8-.8-.5-9.2-13-11.2-15.4-6.2-7.3-13.1-14-19-21.5 20.2-6 40-13.6 60.2-19.3 9.3-2.6 20.4-6.8 30-5.5 3.6.5 16.9 5.8 18.1 5.6 3.1-.6 2.9-7.6 7.1-6.9.9.2 3.4 9 12.8 6.8 6-1.4 7.5-8.4 6.7-13.8l3 1c.2-7.1 6.7-1.9 8.8 2.8 4.4 9.9.8 22.3-8.7 27.7l35.6 24.4c5.7-1.4-3.3-7.8 3-10.9 9.4 6.7 18.5 17.8 24.9 1 1-2.7-.5-7.7 4-8.1s6 10.1 6.1 13.7c.1 9.6-5.2 18.4-13.6 22.8 15.8 12.1 32.6 23 49.7 33.3 15.2 9.2 62.2 37.6 77.8 37.2 2.8 0 21.3-3.2 22.6-4.5 3.6-15.8 4.5-31.9 6.1-47.9.5-4.9 3.5-11.7 1.7-16.9-.6-1.8-5.4-3.2-7.3-4.7-14.2-10.7-24.7-25.3-37.5-36.5-12.3-10.8-30.2-21.7-44.1-30.9-33.6-22.3-76.2-51.3-113.7-65.3-18-6.8-41.6-11.4-58-22-1-.6-2.6-1.1-2.3-2.6 39-53.1 91.3-94.8 150.6-123.4 7.2-3.5 23.6-11.7 30.5-13.5 3.8-1 10.3-1.8 11.6 3 1.2 4.2-8.4 19.7-10.6 25-4.8 11.8-8.7 26.1-12.5 38.5-13.2 42.5-23 85.9-34.7 128.8l86.4 47.9c3.8-3.5 7.6-7.2 11.2-10.9 6-6.3 19.1-19.9 23.3-26.7 2.8-4.5 14.9-35 15.9-40.1 3.9-20 2.6-48.5 4.2-69.8 3.1-39.6 7-79.3 13-118.5 1-1 13.4 4.5 13.8 5.2ZM903 883c-3-3.1-33.5 26.8-36.5 30-13.2 14.3-27.8 33.4-37.9 50.1-3.9 6.4-16.7 29.1-16.5 35.3.3 10 5.2 20 11.4 27.7 1.7-4 1.6-10.7 7.8-8.8 3.1 1 2.8 5.6 9.8 3.4s5.2-14.7 12.5-14.6c2.2 0 4.5 7.2 4.6 9.5 0 4.3-2.7 13.5-4.7 17.5l-8.4 11.1c7.6 3.6 10.9-7.8 13-13.4 10.6-28.3 16.7-60.9 25.7-90.3 5.9-19.2 12.7-38.2 19.3-57.2Z" class="outline" data-original-prefix="shading" opacity=".2"/><path id="outline-shading-eyes3" fill="#000" d="M1321.7 1014.8c-3.2 3.3-24.9 8.2-31 10.5-58.4 21.7-107.8 43.1-157.2 81.8-26.5 20.8-39 37.7-57.8 65.2-5.9 8.6-8.7 19.6-19.8 23.7l3.9-30.6c11.1-14.1 19.5-39.6 30.5-52.5 6.8-7.9 40.9-26.1 51.9-32.1 18-10 47.2-21.5 62.6-32.4 7.7-5.4 25.6-28.8 28.4-37.6 4.7-15.1-1.1-24.6-8.1-37.5-16.5-30.1-47.7-69.7-76.3-88.7-14.2-9.5-30.9-15.1-42.9-27.6 32.3 6.5 63 20.9 91.3 37.2 40.6 23.4 80.3 55.9 109.1 92.9 3.2 4 16.5 20.7 16.6 24.3 0 .9-.6 2.7-1.2 3.3Z" class="outline" data-original-prefix="shading" opacity=".2"/><path id="outline-shading-eyes2" fill="#000" d="M893 985c4.5-1.1 2.6 3.5 6.2 5.3 7.3 3.5 11.1-5.2 8.8-11.2 6.8-1.6 9.4 7.7 8.7 13.2-1.2 9.4-11.3 20.6-21.1 14.6-8.6-5.3-2.9-14.2-2.6-21.9" class="outline" data-original-prefix="shading" opacity=".2"/><path id="outline-shading-eyes1" fill="#000" d="M1105 856c.7.3-.6 1.7-2 1-.7-.3.6-1.7 2-1" class="outline" data-original-prefix="shading" opacity=".2"/></g><g id="outline-eyes"><path id="outline-eyes8" fill="#000" d="M996 1254c-.3 1-.3 1.5-.9 2.5-1.9 3-22.7 21.6-26.3 23.7-4.6 2.8-12.5 5.7-17.6 3.8-8.3 13.2-14.7 29.4-23.3 42.2-7.2 10.7-13.3 12.1-25.6 14.4-12.7 2.4-34.5 6.9-46.7 7.3-13.1.5-51.2-16.9-66-22.1-33.5-11.8-67.6-22.2-100-37l-13.5-126c-9 .6-17.9 2.7-26.9 1.9-1.8-15.3-13.3-26.2-20.1-39.4-1-5.6 3.6-14.7 5.8-20.1 18.3-44.7 48.5-83.3 74.6-123.4 3.6-2.7 10.7 3.6 14.2 3.9 2.4.2 23.9-26.8 27.8-30.8 68.5-71.8 162.6-122.5 263-127 3.8-.2 21.5-.6 23.5.5 3.1 1.7 3.7 8.1 4.1 8.4.7.7 17.6.8 20.4 1.1 44.3 4 88.7 10.4 127.8 32.2 52.8 29.4 98.2 69.2 136.7 115.3 1.4 1.7 5.6 8.7 6 9 2.5 1.6 4.6-2.2 8-1.2 6.9 2.2 22 24.7 26.4 31.7 16.2 25.5 34.7 71.5 37.5 101.5.4 4.2.7 12.7-3.9 14.9-4.2 2-14.8 1-21 3-7.1 2.3-16 9.5-22.6 11.4-2.5.8-1.2-3.4-1.5-5-.7-4.8-3.5-13.8-1.5-18 .8-1.7 11.6-6.7 14.2-7.8 2.8-1.3 9.1-2.1 9.3-5.6-1.1-6-.9-11.1-2.9-17.1-2.7-8.4-9.1-21.6-13.2-29.8-2.7-5.4-24-44.7-26.5-45.5-1.7-.5-10.6-1.2-12.9-1.2-8.5 0-24.3 1.8-33 3.1-3.3.5-19.8 5.8-20.5 5s.2-2.5 1-3.4c1.5-1.7 7.4-5.7 9.6-7.4 8.7-6.3 18.9-11.6 28.3-16.7 2.1-2.2-1.8-10-3.2-12.9-12.3-27-67.2-72.8-92.9-89.1-39.3-24.7-117-56.6-163.4-52.6-9 .8-8.6 1.7-10.2 9.8-10.5 52.7-5.8 110-8.4 163.6-2.2 8.1-4.8 16.2-6.6 24.4-2 9.2-2.3 21.4-4.5 29.5-.8 2.7-33.2 34.3-38.8 41.2-2.7 3.5-9 8.9-5.4 12.3 7 6.6 18.9 12.6 26.4 19.6 5.5 5.1 6.4 7.2 6 15-1.3 22.1-7.6 46.6-10 69-.6 5.8.8 11.8-1 17.5Zm.7-181.3c1.7-2.2 16.9-49.5 17.3-53.2.7-6.5-.3-14.3 0-21 1.7-38.1 2.7-76.8 6-115 .8-9.3 4.3-23.5 4.1-32 0-1.1 0-2.3-1-3-6.1-4.3-47.8 1.2-57.2 2.8-5.6 1-28.1 5.4-31.2 8.8-2.2 2.4-10.4 23.9-12.3 28.7-21.1 53.7-37.4 110.5-54.3 165.6-2.1 4.4-4.3 7-8.5 9.4s-27.4 10-28.3 11.2c-.7.9.6 2.5 1.7 2.8 42.2 21.9 82.5 46.9 122.4 72.6 7.2 4.7 14 7.4 20.6 13.3.7.6 1.9 0 1.3 2.3-6.5-.3-12.2 2.4-18.7.2-7.8-2.6-25-14.7-33.6-19.4-34.9-19.1-69.9-37.9-104.6-57.4-1.8-.5-7.7-1.1-8.9-.3-.6.3-5.2 10.5-5.7 11.8-3.4 10.8-.7 39.1.5 51.5.5 5.2 2.8 27.3 5.3 30.2 32.1 20.2 63.8 41.2 97 59.4 7.2 4 39.1 21.7 45.1 20.9 1.2-.2 19.4-14.1 19.9-15.3 1.3-3.1 1.1-14.3 1.8-19.1 2.1-14.3 6.2-39.9 11.1-52.9 2.1-5.6 7.2-7.6 2.8-14.3-6.2-9.3-23.8-17.4-30.4-25.6-9-11.1 5.5-26.6 12.5-35.4 7.7-9.7 18.6-18.9 25.7-27.8Zm-277.4-56c3.8 3.2 9.2 6.4 13.6 8.9 26.3 15 55.3 27.3 81.8 42.3 11-.9 38-9.2 42.8-19.8 17.9-62.1 32.6-125.8 62.5-183.5-17.3 4.6-34.3 13.4-50 22-38.8 21.2-81.6 55-110.5 88.5-5.5 6.4-10.8 14-13.5 22 19.9 9.6 39.8 19.5 58.9 30.6l10.1 7.4c-33.3-6.7-65.4-18.5-97.7-28.8l-5.3.3c-13.2 25.4-27.6 50.3-39.8 76.2-4 8.4-14 27.4-15.7 35.4-1.5 7 5.3 14.7 5.5 22 17.5-5.6 37.5-15 56.2-10.7 8.9 2.1 17.1 7.9 25.5 11.5l49.3 29.2c-3.1-30.5-4-61.7-2.1-92.3-.3-1-13.6-8-15.9-9.2-15.9-8.5-37.3-16.1-51.7-25.3-7.5-4.7-10.6-9.6-10.4-18.7 0-2.1 1-8.5 2-10 2.1-3.3 3.1 1.1 4.4 2.2ZM800 1304l-45.7-24.8-42.8-27.2c-5.3-24.3-11.5-50.7-13.5-75.5-.3-4.2.8-11.5-.2-14.8-.9-3-7.2.4-9.8-.7 0 2.2 1 4.2 1 6.4 1.2 35.4 3.5 74.2 10 109 .8 4 6.8 7.9 10.3 9.7 19.6 10.1 45 15.8 65.5 24.6 8.4-.8 16.6-5.6 25.2-6.8Zm28-82c-7.7 33.2 25.2 64.8 57.3 45.8 3.4-2 13.9-10.2 9.1-13.7l-66.3-32.1Zm-32 96 56.7 17.8c13.6-3.2 29.5-4.9 42.5-10 10.8-4.3 18.9-17.1 25.5-26.5 1.5-2.1 11.2-15.1 10.2-16.3-18.1 12.5-38.1 24.4-58.3 33.2-6.4 2.8-17.1 8-24 6.6l-31.3-11.7-21.4 6.9Z" class="outline" data-original-prefix="outline"/><path id="outline-eyes7" fill="#000" d="M1076 1274c5.7-.5 4.6-14.6 3.5-18-1.9-6.5-14.5-14.8-19.7-19.3-1-.8-2.5 0-1.9-2.6 19.9 5.8 42.2 16.9 63.4 14.9 44.1-4.3 65.6-34.1 99.3-57.7 29.2-20.4 60.3-33.7 94.6-43.4 9.1-2.6 18.3-5.3 27.8-5.7.1 5.4 1 10.7 2 16 .6 3.4 4.9 19.3 4.8 20.3-.3 1.8-11.4 16.7-9.8 18.7 1.5 1.8 2.2-1.4 2.6-1.9.6-.8 9.8-15.9 10.4-10.6 0 2.3.2 4.6 0 6.9-1.2 8.6-7.7 28.3-10.7 37.3-3.5 10.5-6.5 16.8-13.8 25.2-2.9 3.4-23.5 25.2-25.6 26.4-10.2 6.1-34.9 7.3-47.9 11.1-5.1 1.5-9.7 4.5-15 5.5-.2 1.9 3.2 1 4.2.8 4.8-1 9.2-3.8 14.3-4.7 2.9-.5 23.4-1.9 24.4-1.1 1.6 1.3-.4 1.8-1.3 2.2-8.7 4.7-22.8 11.2-32.1 14.9-19.8 8-77.1 10.8-97.9 6.6-8.7-1.8-19-14.3-26.9-20.1-4.3-3.2-13.7-10.2-18.4-11.6-4-1.1 1.1 9 .5 10-.8.7-14.1-1.6-15.9-2.6s-12.9-12-14.1-13.9c-1-1.6-.7-3.1-.9-3.5Z" class="outline" data-original-prefix="outline"/><path id="outline-eyes6" fill="#000" d="M999 1253c9.1-14.2 22.5-28.8 19-47 6.2 2.2 8.8 2.2 15 0-2.1 7.1.6 14.6 3.2 21.3 4.2 10.6 11.3 17.3 15.8 27.7-3.3 0-4 4.3-7 4-.3-5.3-7.6-7.7-11.1-11.5-2.9-3.1-3.7-6-5.7-9.3-1-1.6-4-2.1-5.2-1.1-.4.3-3.3 7.1-5.2 9.3-3.9 4.6-10.9 7-12 12.5-1.2 1.1-6.2-4.5-7-6Z" class="outline" data-original-prefix="outline"/><path id="outline-eyes5" fill="#000" d="M1203 1060c1.4 1.4-6.9 7.5-8.1 8.4-27 20.7-64.8 41.2-87.9 66.1-11.7 12.6-20.2 32.4-33.8 46.2-1 1-1 2.8-3.2 2.3-.6-.7 2.6-9.6 3.2-11.2 4.5-12.4 18.8-50.9 28.2-57.8 19.4-10.7 39.9-20 59.2-30.8 14-7.9 26.5-19 42.3-23.2Z" class="outline" data-original-prefix="outline"/><path id="outline-eyes4" fill="#000" d="M826.7 1113.2c11.8-2.1 22.2 7.8 23.2 19.3 3 32.4-38 33.1-39 2.9-.3-9.1 6.4-20.5 15.8-22.2m1 8c-15.5 3.5-4.8 35.6 10.2 24.2 10.1-7.6 4.2-27.5-10.2-24.2" class="outline" data-original-prefix="outline"/><path id="outline-eyes3" fill="#000" d="M913.7 1000.7c-14.5 14.5-30.6-9.6-16.7-24.2 15-15.8 31.6 9.3 16.7 24.2m-10-21.5c-6.8 2-8.2 19.7 2.3 16.4 12-3.8 7-19.1-2.3-16.4" class="outline" data-original-prefix="outline"/><path id="outline-eyes2" fill="#000" d="M766.8 1074.2c23.1-1.8 26.3 37.8 4.5 41.6-29.5 5.1-28.1-39.7-4.5-41.6m-1.1 9c-10.8 2.4-13.8 24.9-.2 24.9 13.7 0 17.4-28.8.2-24.9" class="outline" data-original-prefix="outline"/><path id="outline-eyes1" fill="#000" d="M843.7 996.2c12.7-2.7 21.8 5.3 18.2 18.2-2.2 7.8-9.2 17.9-17.7 19.3-30.4 5.2-17.2-34.1-.5-37.5m-6.5 29.6c8.7 8.7 26.8-23.7 8.5-19.5-6.6 1.5-13.7 14.3-8.5 19.5" class="outline" data-original-prefix="outline"/></g></svg>