<?xml version="1.0" encoding="UTF-8"?>
<svg id="head-rockerdo" xmlns="http://www.w3.org/2000/svg" viewBox="0 0 2048 2048">
  <!-- Generator: Adobe Illustrator 29.1.0, SVG Export Plug-In . SVG Version: 2.1.0 Build 142)  -->
  <defs>
    
  </defs>
  <path id="fill-head" class="fill" d="M1533.2,1668.8c-.2-8.7-.3-17.6-.7-26.4-1.5-30.4-3.1-56.9-5-81.1-3-39-8.1-55.6-23-89-.3-.7-1-2.1-2-4-1.1-2.1-3-5.8-4.4-8.8l66.9,30.3-5.9-7.8c-22.2-29.2-44.7-61.2-59.8-97.3-15.5-36.9-30.1-78.6-41.8-112-1.9-5.4-3.9-11-6.1-17-8-22.1-17-47.1-21.4-68.1,4,2.6,10.9,8,15,11.2,1.4,1.1,2.6,2.1,3.5,2.8,4,3.1,7.9,6.3,11.8,9.5,5.2,4.3,10.5,8.7,16.1,12.8l29.7,19.4-2.6-7.1c-15.7-42.4-42.9-83.2-85.4-128,1.9.8,3.8,1.6,5.6,2.3,6.2,2.5,12,4.8,16.8,9l.6.5,37.4,4.9-4.4-5c-33.7-38-62.6-76.4-86.2-114.2-1.8-2.9-4.8-8.5-8.4-14.9-9.9-18.1-17.2-31.1-20.8-34-5.4-4.4-13.6-8.9-21.4-13.1-4.7-2.5-9.1-4.9-12.7-7.2-41.8-26.2-87.9-60.5-140.8-104.7-1.7-1.4-4.1-3.8-6.7-6.3-5.2-5.1-10.6-10.4-14-12-8.2-3.6-29.3-5.8-41.9-7.2-1.6-.2-3.1-.3-4.3-.5-65.5-7.3-140.8-6.6-201.4,2-1.5.2-3.2.4-5.2.7-8.3,1.1-18.6,2.4-24.3,4.6-3.8,1.5-9.3,6.9-14.7,12.1-2.4,2.4-4.7,4.6-6.3,6-65,53.9-121.3,94.4-177.2,127.3l-.6.4-.3.6c-30.1,56.3-68,110.3-112.6,160.5l-4.5,5,37.4-4.9.5-.4c6.5-5.1,14.4-8.5,22.4-11.5-4.1,4.7-8.3,9.4-12.4,13.9-11.6,12.9-23.6,26.3-33.8,40.9-14.7,21-28.2,45.8-40,73.7l-2.7,6.3,6.1-3.2c14.9-7.6,28-18.4,40.6-28.9,9.2-7.6,18.8-15.5,28.8-22,.2,0,.4-.3.7-.5-7,28.2-16.9,56.3-26.4,83.6l-.3.7c-11.7,33.5-26.3,75.1-41.8,112-15.1,36.1-37.7,68.1-59.9,97.3l-6,7.8,66.9-30.3c-1.4,3-3.3,6.7-4.4,8.8-1,1.9-1.7,3.2-2,4-14.9,33.4-20,50.1-23,89-1.9,24.2-3.5,50.7-5,81.1-.4,8.8-.6,17.8-.7,26.5-.2,11.5-.4,23.4-1.3,35l-1,14.2,29.7-66.1v-.3c1-5.8,1.8-11.7,2.7-17.4,5.9-39.2,11.9-79.8,31.8-113.9,0-.2.3-.6.5-.9l.3-.6-29.7,118.8,35.8-65.9c3.7-4.2,7.4-8.9,11.2-13.9,6.7-8.7,13.7-17.7,21.2-24-.6,6.7-1.3,13.5-2,20.1-4.2,40.6-8.5,82.7,6.5,121.7l9.2,20.5,1.6-7.4c1.8-8,2.6-16.2,3.4-24.1,1-9.3,1.9-19,4.5-28.2l18.6-41.9c.8,0,1.2,0,1.3,0,1.1,1.2-.8,7.7-1.5,9.8-.2.8-.4,1.4-.6,2.1-1.8,6.4-4.1,12.8-6.3,19-3.6,10.1-7.4,20.6-9.2,31.9-2.4,15.4-4.3,48.5-2.1,62.6.3,2.1,2.3,6.3,4.8,11.5.6,1.2,1.1,2.3,1.5,3.1,10,22.1,21.8,44.2,33.1,65.7,6.6,12.5,13.5,25.4,19.8,38.1l.6,1.2,1.3.2c1.5.2,2.5-.5,2.9-.9,1.3-1.3,1.1-3.1,1-4.3v-.7c.6-17.4.6-34.9.5-51.9,0-27.1,0-55,2.5-82.9,2.2-24.1,6.6-46.7,12.7-66.2,3.8,34.9,8.7,71.3,18.4,105.6,8.2,28.9,22.8,47,40.9,67.6,17.3,19.6,38.6,41.6,65.2,56l4.9,2.6-1.2-5.4c-2.7-11.8-4.5-21.3-5.8-30-11.6-80.9-2.6-114.4,3.8-127.2s3.7-6.3,6-9.5c.6-.9,1.3-1.8,1.9-2.7.7,4,1.3,8,1.8,12,1.2,8.1,2.3,16.4,4.7,24.4,7.4,24.6,27.6,46.2,48.4,65.9l4.3,4.1v-9.8c-.4-26.5-.6-53.9,8.4-79.2l.4-1.1-.6-1c-.7-1.1-2-1.9-11.5-6.9-7.1-3.8-17.9-9.5-20.4-12-3.6-3.6-6.2-10.7-8.7-17.5-2.3-6.3-4.7-12.8-8.1-17.3-4.8-6.2-11.7-7.9-18.5-9.6-8.8-2.1-17.2-4.1-22.4-15.8-.6-1.4-1.1-3.2-1.5-4.8-.9-3.4-1.7-6.2-4.3-6.3-2.7,0-4,2.9-5.3,6.3-4.8,12.7-3.8,28.6-2.7,41.8-3.9-2.7-14.3-11-16.5-13-14.2-12.7-27.3-29.2-36.8-46.6l-5.6-20-1.7,11.6c-4.3,29.4-4.2,59.6-4,88.8v12.5c-.5-4.3-1.2-10.4-2-18.8v-.9c-3.1-31.6-5.5-65.3,1.4-98.8.3-1.3,1-3.4,1.7-5.5,1.1-3.1,1.7-5.1,1.8-6.4.2-2.4-1.1-4.9-2.2-7.3-.8-1.7-1.7-3.4-1.8-4.5l-.6-6.6-3.9,5.3c-5,6.9-7.7,17.1-9.9,26.9-3.1,13.3-5,28.3-6,46.2-1-9.4-1.7-18.9-.6-27.8v-.4c-.4-12.3,2-24.6,4.2-36.6,1.4-7.1,2.8-14.5,3.6-21.8v-1c-1.6-5.7-9.9-5.6-17.3-5.6s-7.1,0-8.7-.5c-2.1-1.3-11.3-12.2-12.2-14.1-1.5-3.7-1.1-17.1-.8-26.8.2-6.1.4-11.3.2-14.6,0-.2-1.9-23-3.6-25-.8-.9-2-1.3-3.3-.9-2.3.7-6,4.9-6.2,6.7-.6,4.7.5,9.3,1.5,13.7.4,1.5.7,3,1,4.4l-7.3-2.7-25.8-14.2,1.3,9.5c3.4,24.7,7.2,52.8,17.7,75.5,1.1,2.4,2.5,4.7,3.7,6.8l2.1,3.6c-12.5-2.6-23.3-11.5-34-21.2-17.3-15.6-62.2-63.3-67-81.1-8.1-29.9,22.2-101.9,32.1-125.5l4.5-9.7c-2.8,11.3-6.8,22.3-10.7,33.1-2.8,7.8-5.8,15.9-8.2,24l-.5,1.6c-5.7,18.9-12.2,40.3-10.3,60.6,1.4,15.2,11.7,27.7,20.8,38.7,1.4,1.7,2.9,3.5,4.2,5.2l5,6.3-.6-8c-.3-3.9-1.3-7.8-2.3-11.7-1.2-4.8-2.4-9.2-2.2-13.5.2-4.8,1.7-10.6,3.2-16.3.3-1.1.6-2.1.8-3.2v18.3c0,4.3,3.8,16.4,7.5,27.8l.4,1.2c6.5,19.9,13.5,33.6,30.3,44.6l6.6,4.3-2.9-7.3c-3.2-8.2-5.7-17.1-7.6-27.3-2.3-12.9-5.4-33.6-6.2-49.4,0-.7,0-1.3-.2-2.1-.2-2.9-.6-7.7.8-9,.3-.3.9-.4,1.7-.4l35.5,30.3-.9-6.5c-1-7.7-2.6-15.5-4.2-22.9-1.3-6.2-2.6-12.6-3.5-18.9-.4-2.8-.9-5.6-1.3-8.3-4.3-26.3-8.3-51.1,2.5-75.4,10-22.5,25.8-47.2,40-68.5,1.2-1.8,4.1-5.7,7.4-10.1,9.8-13.1,14.3-19.3,14.9-21.6,1.3-4.4.9-11.3.5-18.6-.3-5-.6-10.1-.2-13.6.7-6.7,19.1-33.5,26-43.6,1-1.4,1.8-2.6,2.4-3.5,7.2-10.7,15-21.3,22.5-31.5-5.1,14-13.2,29.3-21.1,44.3-6.6,12.4-12.8,24.2-17.4,35.2-8.8,21.1,2.3,80.7,11.1,102.6,2.1,5.3,6.6,15.1,12.2,21.4l4.6,5.2-.2-7c-.7-20.8.4-38.8,3.4-56.5,2-11.9,2.5-17.9,3.4-29l.2-2.7c2.6-33.4,9.2-47.6,26.2-71.5-1.9,4.7-4.1,10-5.7,13.7-2.3,5.5-4.2,9.8-4.7,11.6-2.1,6.5-3.8,13.2-5.4,19.7l-1.8,7.2-2.8,24.1,5.8-9.2c9.1-14.2,21-28.5,36.4-43.5v8.6c0,7.8,10.8,28.9,15.1,34.7.7,2.2,2.3,2.9,4.9,2.3l1.8-.4v-1.8c.6-10.7,4.9-21.6,8.9-32.2l1.2-3.3c17.2-45.2,37.1-80.5,60.8-108,4-4.6,9-8.9,13.9-13,2.3-1.9,4.7-3.9,7-6-7.5,35.6-10.1,69.9-7.8,102.1v1.1l6.2,4.6.7-3.9c5.3-27.9,16.8-58.8,33.2-89.3,9.9-18.4,19.6-33.1,34.3-44.6.6,1,1.2,2.3,1.8,3.4,2.4,4.9,4.9,9.9,8.8,10.4,1.2.2,3,0,4.7-2,.9-1,2.2-3.3,4.2-7.1.8-1.5,1.8-3.4,2.6-4.8,15.4,12.3,25.8,28.3,36.3,48.6,15.1,28.9,25.9,58.5,31.2,85.3l.3,1.8,1.8.2c.9,0,1.9-.2,2.6-.7,1.5-1.2,1.9-3.3,2.1-5.1,3-27.6-1.2-61.2-3.1-74.4-.6-4-1.7-8.6-2.7-13-1.1-4.6-2.2-9.3-2.7-13.3,2.8,2.7,5.8,5.2,8.8,7.7,4.6,3.8,9.3,7.8,13,12,23.2,26.6,43.6,63,60.8,108l1.2,3.3c4.1,10.6,8.3,21.6,8.8,32.2v1.8l1.9.4c2.6.6,4.3,0,4.9-2.2,4.3-5.8,15.1-26.9,15.1-34.7v-8.8c13.3,12.7,24.7,27,36,41.8l4.5,5.8v-7.3c0-10.3-3.3-21.3-6.2-31v-.4c-3.2-10.2-7.3-20.2-11.2-29.8-.2-.4-.4-.9-.6-1.3,17.3,24.4,23.6,40.5,25.5,74.3,0,2.1-.2,4.6-.4,7-.3,2.5-.6,4.9-.4,6.8.2,2.8,1.5,6.7,2.8,10.8,1.1,3.5,2.3,7.2,2.7,9.9,2.4,14.2,2.3,29,2.3,43.3v13.7l4.5-5.8c9.1-11.6,15.8-28.1,20.2-48.8,3.4-16.6,8.7-47.4,5.2-67.5-1-5.8-8.2-21-16.2-37.3-1.7-3.4-3.1-6.3-4-8.3-2.5-5.3-5.4-10.9-8.2-16.2-4.2-8.1-8.6-16.3-11.9-24.6,1.4,2,2.9,3.9,4.3,5.8,3.6,4.9,7.3,10,10.9,15.1,1.8,2.6,4,5.7,6.4,9.1,9.6,13.5,22.7,31.9,27.3,42.6,2.4,5.6,1.9,13.1,1.4,20.4-.4,6.3-.9,12.3.5,17.2.7,2.3,5.1,8.5,14.9,21.6,3.3,4.4,6.2,8.3,7.4,10.1,14.1,21.2,29.9,46,39.9,68.5,10.8,24.2,6.8,49.1,2.5,75.4-.4,2.8-.9,5.5-1.3,8.3-1,6.3-2.3,12.7-3.6,18.9-1.5,7.5-3.1,15.2-4.2,22.9l-.9,6.5,35.5-30.3c.8,0,1.4,0,1.7.4,1.4,1.3,1,6.1.8,9,0,.7,0,1.4-.2,2.1-.9,15.8-3.9,36.5-6.2,49.4-1.8,10.2-4.3,19.1-7.6,27.3l-2.9,7.4,6.6-4.3c16.2-10.7,23.2-23.8,29.2-41.5,0-.3,8.9-26.4,8.9-32.1v-17.1c.4,1.8.9,3.6,1.4,5.4,1.3,4.9,2.6,9.9,2.6,13.8s-1.3,9-2.6,13.8c-.9,3.5-1.9,7.1-2.3,10.3l-1.1,8.2,7.4-8.5c7.1-8.1,15.9-18.1,19.9-27.4,11.3-26.2-3.3-65.8-15-97.7-3.9-10.6-7.6-20.6-9.9-29-.5-1.9-1.8-7.5-2.9-12.6,4.7,9.7,9.5,22.6,13.5,33.3,1,2.7,2,5.3,2.9,7.7,8.6,22.4,28.6,74.9,21.9,99.9-4.8,17.8-49.7,65.5-67,81.1-10.8,9.7-21.5,18.6-34.1,21.2l2.1-3.6c1.3-2.2,2.6-4.4,3.7-6.8,10.5-22.7,14.3-50.8,17.7-75.5l1.3-9.5-25.8,14.2-7.4,2.7c0-.6.3-1.1.4-1.6,1.6-6.3,3.7-15,.8-19.8-1-1.7-2.6-2.8-4.5-3.2l-2.6-.6-.4,2.7c-.3,2.1-.7,4.1-1.1,6.3-.8,4.4-1.7,8.9-1.9,13.3-.3,4.1,0,10.5.3,17.2.4,10.3.9,23-.6,27.6-.9,2.1-10.2,13.5-12.4,14.8-2.4,1-5.8.8-9.4.6-5.9-.3-12.6-.6-17.1,4.4l-.7.8v1.1c.6,8.3,2.4,16.6,4,24.6,1.7,7.9,3.4,16.2,3.9,24.2.8,12.8.3,25.8-.8,38.4-1.3-21.8-3.7-45-11.4-65.5,0,0,0-.3-.2-.6-1.5-4.6-2.7-7.2-4.9-7.7-1.1-.2-2.2,0-3.1,1-1.2,1.3-3.8,12-3.7,13.2,0,4.5,1.6,10.4,3.1,16.7,1.2,5.1,2.5,10.3,3,14.5,2.5,23.5.5,51.1-2,77.5-.5,5.4-1.3,10.9-2,16.3v-47.1l-3.6-53.8-14.8,25.7c-7.5,10.4-16.6,22.3-27.8,32.3-2.2,2-13.3,10.8-17.5,13.9,1.2-13.9,1.7-28.3-2.4-40.9-1.9-5.9-3.6-7-5-7.4-1.2-.3-2.3,0-3.2,1-.6.6-.8,1.1-1.9,5.1-.7,2.2-1.6,5.5-2.1,6.4-5.1,10.1-12.1,12-21.1,14.3-3.4.9-7,1.9-10.7,3.3-9,3.6-12.9,14.1-16.3,23.4-1.2,3.1-2.2,6-3.4,8.4-5.2,10.8-11,14-20.6,19.2-1.4.8-2.9,1.6-4.5,2.5-3.1,1.7-7.7,4.1-12.2,5.7l-2.5.8.9,2.4c9.2,24.3,9,50.9,8.9,76.7v12.2l4.2-4c20.8-19.7,41-41.3,48.4-65.9,2.4-8,3.6-16.3,4.7-24.4.6-3.9,1.1-8,1.8-12,.6.9,1.3,1.8,1.9,2.7,2.2,3.2,4.4,6.2,6,9.5,6.4,12.8,15.3,46.3,3.8,127.2-1.2,8.6-3.1,18.2-5.8,30l-1.2,5.4,4.9-2.6c26.6-14.4,47.8-36.4,65.2-56,18.2-20.6,32.8-38.7,40.9-67.6,9.7-34.3,14.6-70.7,18.4-105.6,13.8,44,14.7,91.4,15.6,137.4v6.7c.3,8.5.2,17.2,0,25.7,0,10.3-.3,21,0,31.4v.7c0,1.2-.3,3.1,1,4.3.4.4,1.4,1.1,2.9.9l1.3-.2.6-1.2c6.4-12.7,13.2-25.6,19.8-38.1,11.3-21.4,23.1-43.5,33.1-65.6.3-.8.9-1.9,1.5-3.1,2.5-5.2,4.5-9.3,4.8-11.5,2.4-15.1-.2-48.1-2.1-61.5-1.6-11.9-5.5-22.5-9.2-32.7-2-5.5-4-11.1-5.7-16.9-.2-.6-.4-1.2-.6-1.9-2.2-7.2-2.9-11.3-1.9-12.4,0,0,.5-.2,1.1,0l18,40.6c2.8,9.4,3.8,19.4,4.8,29,.8,8.1,1.7,16.5,3.6,24.7l1.8,7.8,12.4-31.4c7.2-20.8,6.9-42.3,6.7-63.1v-8.3l-5.6-59.9c16.7,13.7,35.1,41.6,46,61.9,1.2,2.2,2.3,4.6,3.5,7.1,2.4,5.2,5,10.6,8.6,15l7,8.4-26.5-107.2c.3.5.6,1.1.9,1.7.2.4.4.7.5,1,20.3,35.7,26.2,78.4,31.8,119.8.4,2.7.7,5.4,1.1,8.1v.3l30.6,68.3-1.1-14.3c-.9-11.6-1.1-23.5-1.3-35l.7-.5Z" fill="#FFFFFF"/>
  <path id="fill-head-2" class="fill" d="M950.9,1720.1c2,20.4-1.1,42.1,4.6,61.9.7,2.4,3,10,5,11s1.5-1.6,1.5-2.5c0-3.9-1.7-8.9-2-13-1.5-17.8-.3-36,2.5-53.5,14.4,4.4,29.1,8.9,43.9,12.2s19.4,3.6,33.8.6c15.3-3.2,30.4-8.8,45.8-11.7,1.6,16.7,2.9,33.7,2,50.6-.2,4.5-1.9,9.5-2.1,13.9,0,1.4-.8,4,1.5,3.5,12.5-21.9,7-48.8,9.6-72.9,4.3.5,25.8-12.1,26.9-11.1-2.2,14.1,2.4,29,3.1,43.4.8,16.5,0,34.2-2.6,50.5-16.6,14.3-34.5,26.8-52,40,1.7-16.4,2.9-33.4-2.7-49.3-12.9-13.8-25.3-28-38.3-41.7-1.2-1.3-6.5-7.2-7.9-6.9l-45.4,48.7c-5.7,15.8-4.4,32.8-2.7,49.3-14.4-11.7-31.1-21.8-45-34-3.2-2.8-7.5-5.7-8.3-9.7-2.3-12.6-2-36.6-1.3-49.8.7-13.9,5.2-27.6,3-41.5l26.8,12.1h.3Z" fill="#FFFFFF"/>
  <path id="shading-head" class="shading" d="M943,1120c16.7-27.8,28-68,50.6-94.9,14.2-20.7,12.3,6.2,26.3,10.5,1.7,1.2,1,3.4,4.6,3.5,2.7,0,1.3-2.5,2.8-3.8s5.8-2.6,8.3-5.2c2.7-2.8,7.1-13.4,10.7-12.9s14.5,17.9,17.1,22c15.9,24.3,28.9,52.9,39.3,79.6,5,6,.9-25.2,1.1-29.1-3.7-21.1-16.3-51.7-19.4-73.6,52.9,53.1,97.1,120.2,113.5,194,3.9-5.4,13.1-18.7,15-25l11,6c-1.2-15.9-7.8-30.6-10.3-46.2-2-9.3-11.5-24.2-10.2-31.8,32.8,39.4,59.3,84.1,66,136l12.5,27c7.3-23,15.6-50.8,13.3-74.8-16.4-57-56.8-109.5-92.3-156.2,40,23.5,70.1,61.3,95.6,99.9,24.1,23.5,35.2,51.5,43.7,84.3,26,64,68.5,130.8,48.8,201.8,4.4-1.2,11.6-17,13.1-17.9,9.3-.9,10.1,37.2,12.9,43.9,13.6-58.8-11.6-117.2-31.5-170.9-.2-.9-1.1-2.7,0-3,11.6,19.9,22.7,40.6,32.4,61.6,11.7,25.3,18,50.6,19.2,78.8-.3,11.8-1.9,21.5.9,32.9,6.9,5.6,10.4-34.2,11.9-39,5.6-40.7,1.5-46.3-18.1-80.7-6.1-27.6-19.1-53.8-30.3-79.7,44.9,44.9,54.4,110.7,96.5,158,1.8-.5-.4-5.6-.8-6.8-21.8-97.9-93.3-176.9-133.2-265.8,10.8,8.8,16.6,27,26.5,37.5,7.7,9,20.3,19.3,29.2,27.8,1.3,1.5,1.1,2.7,1.2-.2-36.8-55.7-72.1-112.2-113-165,45.2,27.4,70.7,78.8,112,112,16.5,15.2,90.8,81.8,42.4,20.6-15.4-23.1-38.3-45.8-54.2-67.8-.7-4.2-32-73.9-21.6-59.4,6.3,7,14.6,20.7,21,26,17.1,18.3,63.2,24.7,67.5,51l-45-5.5c12.1,10,98.4,120.8,66,120-21.2-14.6-41.4-30.5-61.6-46.4,1.2,30.3,23.8,74.3,33.8,106.2,16.6,53.8,43.8,106.6,67.7,156.3,20.4,11.4,8.1,13.8,30.1,21.9,1.6,1.2,15.7,19.7,16,21-21.3,4.5-50.6-15.8-69.7-27.3-2.9-1.9-9.2-8.9-9.8-4.2-14-14.1-23.3-31.6-33.7-48.3-2.2-3.6-1.1-7.1-6.8-3l-3.1,31.7c-1.7,7.1-5.2,7.1,1.5,12.7,34.9,46.4,46.3,121.8,57.5,175.3.8.9.7.9,2.1.6,9.7-13.4,12.4-28.2,10.1-44.4,17.6-55.5,13.7,36.1,13,49-3.6,20,.7,72.7-5,89-16.2-5.9-63.8-143.8-82-133,.7,46-20.4,105.8-44.3,146.8-21.2,36.7-46.3,94.1-73.7,116.2-3.5-204.6-21.4-32.1-139.1,14.9-3.8,1.1-19.2,12.1-19.8,7.2,16.9-40,5.5-86.7,18.9-127.1-.2-2.4.4-18-3.3-12.2-20.6,46.9-87.9,93.6-135.2,113.8,11.6-42-11.2-75.2-11.7-75.8-7.8-1.3-20.9-26.7-23.4-29.1-1.2-.2-6.8,5.6-7.9,6.9-1.7,2-8.4,21-16.3,22.2-.5.7-23.8,38.3-11.7,75.8-42-15.7-97.7-60.4-125.5-93.5-4-6.5-4.4-16.7-12-21.5-4.3,11.9,2.6,22.2,3.9,32.6,2.8,22,2.4,46.2,5.2,68.8,1.8,14,3.6,27.5,8.9,40.6-144.8-48.7-152.4-234.5-159.5-21-57-74.3-114.6-169.3-116.6-264.4-20.4-11.2-64.2,123.9-84.9,136.4,3.1,2.7-15.3-221.8,10.1-141.5-1.9,12.6-1.1,27.8,7.1,38.8,3.7,5.9,4.5,6.7,7.1-.5,7.5-58.2,22.4-123.5,56.5-172.5.5-3.1-6.5-6.7-4.6-12.6,6.7-7.6.7-20.7,1.8-30l-5-1.6c-6.3,11.6-13,24.2-20.7,34.9-12.3,14.7-26.4,32.8-45.7,36.3-15.6,6.1-33.9,15.1-51.7,15.3,7.4-5.3,12.1-18.1,18.9-23.1,9.2-3.6,14.7-6.2,19.4-15.1,2.6-2.4,8.6-4.2,10.7-6.8,23.6-49.8,51.3-102.3,67.7-156.3,55-162.6,48.8-98.6-35.8-59.2,7.1-43.4,45-88.3,74-120.5l-45,5.5c-1.4-14.1,15.8-19.4,26.3-25.2,11.7-7.1,30.6-17.3,40.7-25.3,8-5.8,15.7-23.7,25-29-9.5,19-17.2,42.8-25.1,61.9-23.9,29.6-50.9,61.3-72.8,93.2-.4,2.5,1.7,1.6,3,1,54.6-35.5,104.4-92.7,145.4-143.6.2,1.2,33.4-24.4,20.9-10.1-39.8,49.3-72.9,105.9-108.4,157.1,21.7-10.2,39.2-38.9,53.5-61,2.8-2.4,1.5.7,1,2-12.4,34.3-32.3,67.4-55.7,95.3-36,52.7-57.1,112.3-77.8,172.2,45.9-43.4,51-113.1,97.5-156.5-11.9,26-23.8,53.4-31,81-3.8,10.4-16.5,25.4-18.2,35.8-2.6,22.8,1.1,63.4,10.3,83.3,5,.7,3-10.6,4.1-13.7-4-60.2,21.9-108.2,49.4-160.3-10.2,46-39.1,95.2-33,147.5,2.1,3-.8,31.7,4,23,2.3-8.8,1.6-39.5,11.9-40.4,1.8,1.1,8.4,16.7,13.1,17.9-20.1-71.3,23-137.6,48.8-201.7,8.9-24.5,10-44.5,27.2-65.8,34.4-44.3,65.9-90.3,114-121-48.5,67.2-123,145.7-81,233.5,20.6-46.3,25.4-99.4,60.2-139.3,40.4-59.6,1.6,17.3.3,38.3-2.1,17.5-8.1,18.3,8.5,10,1.9,6.3,11.1,19.6,15,25,16.4-73.8,60.4-141.6,114-194-7.4,35.6-22.9,66.3-21,104v-.4ZM745,1272.5c-.5-4.9.4-10.5,0-15.5l4,4-3-36c-1.7-2-5.6,7-7,7-1.4-6.9.6-16-3-22-3.2,10.3,3.2,13.3-1,21.5,3.3,7.2-7.9,16-11.7,22.3-17.2,28-48.4,67.3-52.3,98.1,2.7-6.8,61.6-122.8,58.5-91.9-22,47.1-68.8,94.6-52.6,149.5,1,11,1.5,32.1,7.1,40.9,4.7,2.3,9.5-2,12.3-1.4,7.8,4.2,4.8,44.2,9.7,55.5-.7,26,9.5,25.9,30.8,28.5,1.3,5.6,7.3,8.1,10,13.4,4.6,7.9,7,18.3,11.7,26.3,1.3-1.7,5.7,19.3,5.7,19.3,7.4,9.4,5.5,3.9,6.3,16.7,4.3,10.7,24.9,37.1,37.5,38.5,2.3.5,5.3,8,7.6,5.5,3.9-8.5-9.1-14.2,2.5-17.7,3.7-12.7-7.2-21.4,7.4-31.3,14.8,27.1,20,31.2,47.1,43.9,11,10.9,15.1,27.9,24.1,39.9,24.3,11.9,47,28,72.8,36.3,60.8,24.2,114.6,0,168.9-27.4,24.8-1.8,22.4-32.1,34-45.4,8.8-10.1,16.9-6.4,27.6-11.9,17.5-3.3,17.1-57,31-23.9,0,7.8-6.2,13.2-3,20.4.5.5,6.5-1.2,7,3.6-2,10.4-9.1,0-5.5,19.5,7.1-11.8,16.9-13,27-22,4.4-4.1,19.9-21.6,21.7-26.3,1-5.4-3.6-17.2,5.8-14.7,1.3-1.2,4-21.4,8-18,2.4-17,8.4-32.6,20-44.5,4.6-3.5,18.9,1,25.9-8.2,6.7-9.3-1-21.4,11.2-21.8,3.9-2.8-4.8-40-1-50,3-7.8,13.1-.6,16.6-3.4,26.3-93.5-6.8-114.2-46.5-190.7-2.2-30.2,58.1,92.7,59.9,92.1-11.9-40.6-43.1-80.6-65.5-114.6-.2-.6-1.6-10.9-1.6-11.5,3-3,1.9-21.9-.8-10.9-.6,5.6-.5,11.8-1.1,17.4-1.4,0-5.3-9-7-7,.6,13.3-3.1,26.3-4,39.5.2,6.3,1.3-6,5-4.5-.3,30.3-15.4,62.2-36,84,1.7-50.9-3.7-104.8-40.5-143.1-1.7-2.1-1.9-6.8-7.5-3.5-6.9,15.1-13,36.9-28,47.5-1.8-26.4-7.4-52.8-18-77l-2,2c-12.2-33.5-33.2-66.7-61.5-89-7.2,11,1.7,27.1.5,40.4,0,15.2,2.4,37-1.2,51.4-.6.4-6.4.3-6.8,0-11.6-46.4-31-98.9-66.6-132.9-5.7,14.9-17.6,15-23,0-35.8,34.7-54.8,85.3-66.6,132.9-4.2,0-7.4,1.6-8-3.4-1.5-12.6-.6-36.8,0-50.1-.9-12.9,7.3-28.2.5-38.4-28.6,22.1-49.3,55.4-61.5,89l-2-2c-24.7,43.1-5.4,110.2-36.2,53.7-4.6-6.6-6.1-28.9-15.7-24.5-13.5,20.6-26.8,33.8-33.7,58.8-9,28.6-7.7,58.3-8.5,88-1.7.4-2-.5-3-1.5-12.7-13-31-52-33-70l.2.6ZM750,1264c.7-1.4-.6-2.7-1-2-.7,1.4.6,2.7,1,2M1456,1390c.7-1.4-.6-2.7-1-2-.7,1.4.6,2.7,1,2M586,1408c4.3-4.6,5.5-11.8,6-18,.5.9-12.2,20.7-6,18M1464,1408l-8-17c.7,2.3,2.4,16.3,3,16.9.5.4,3.8-.2,4.9,0h0ZM1449,1471c-7.9,1.7-.9,6.8,2,10l-2-10ZM597,1481c2.8-2.9,7.3-6,2.5-9l-2.5,9ZM613,1489c-2.9,5.9-13.9,47.4-20.5,43-2.5.3,8.1-32.8,2-25-13,7.1-26.3,65.4-31,78,13.1-18.2,30.8-36.5,47.8-50.2,2.4-5.3,4.4-19,6.2-25.8,3-10.9,6.2-10.6-4.5-20M1435,1489c-13.2,7.2-7.5,12.3-3.5,24,1.3,4.7,3.9,20.8,5.4,23.3,12,7.1,37.8,35.6,47.1,47.7l-19.2-63.3-13.8-15.7c-.3,7.3,8.5,25.1,2,27.5-4.7-3.7-15.6-36.1-18-43.5M633,1673c2.5-40,21.1-75.6,37.1-111.5-1.7-6.8-5.1-13.1-7.4-19.7-.4-6.3-1.6-6.4-7.7-8.3-5-3.1-8.4-8.5-12.5-12.4-17.3,44.6-27.2,105.4-9.5,152h0ZM1416,1673c16.7-47.2,6.5-105.9-10.5-152-25.4,27.7-15.6-1.6-27.6,40.5,17.2,34.8,33.2,76.4,38.1,111.5M709,1542c-8.5,3.4-15.8,31.4-20,36.6-3,1.9-9.5-8-10-7.6-22.3,50.5-48.1,126.5-8,174-10.9-40,9.9-76.7,24-113l-5,84c6.6-19.2,14-49.6,26-66-11.9,32.2,5.4,59.1,20.9,87.6,2.3,9.5,8.1,15.7,16.7,20.3-12.7-43.5-11.8-88.7-5.7-133.2-1.6-1.1-11.3-14.4-12.8-12.7l-6.1,43.5c-1.8,13,9.7,54.5,3.1,60.5-5.5-25.2-8-52.7-13-77l-3,10c-2.7-33.7,5.2-75.7-7-107h-.1ZM1332,1650l-4-12c-3.8,26.6-5.2,55.8-14,81,1.1-37.2,7.3-69.3-1-107-1.5-1.8-11.6,11.7-12.8,12.7,5.3,44.3,7.4,90.2-6.2,133.3l12-8.7c8.3-18.9,19-36.2,26-55.7,8.3-14.3,2.8-28.1,0-43.5,11,14.2,19.8,49,26,66,.9-27.3-8.7-58.1-4-84,17.3,50.9,33,71,21.5,127,37.3-56.3,21-129.7-6.5-187-1.6-1.2-7.2,8.4-10,6.5-1.6-1.1-11.9-28.9-17.1-34.9-.6-.7-1.6-2.6-2.8-1.7-11.2,31.2-6.2,74.6-7,108h0ZM780,1755c4.7,3.8,1.1-13.3,1-14.5-1.3-16.3-.3-33.6,1-50,6.7-21.6-2.1-30.5-16.5-45.5-12.4,30.6,2.9,80.3,14.5,110M1267.9,1754.9c10.6-14.7,40-159.6-4.9-86.3,3.8,27.9,6.4,58.8,2,86.4,0,0,2.5,0,2.9,0M825,1650.5v32.5c-3.7-.3-18.4-13.7-20-12-4.6,36.2-.3,72.4,5.3,108.2.2,1.1.2,4,1.7,3.8,2.7-44.3,17.9-87.3,38-126.5-7.5-.3-18.7-10.6-25-6M1223,1683c0-1.2.6-34.2-1.1-34-3.3.5-24.8,6.8-24.9,8.4,22.3,37.6,35.3,81.9,39,125.5,1.5,0,1.5-3.6,1.7-4.8,6.2-35.1,9.2-71.7,5.3-107.2-1.5-1.5-16.8,11.2-20,12h0ZM900.9,1711.1c-16.8-9.8-25.8-14.5-29.9-34.1-5.4,17.3-2.4,37.8-2.5,56.1,8.2,10.4,18.5,18.9,28.1,27.9.5-16.7,1.7-33.4,4.4-49.9h0ZM1151,1761c5.5-6.2,26.8-21.8,28.8-28.7,2.2-14.9-.4-39.6-1.8-55.3-5.4,9.8-5.1,18.4-16.1,24.4-4.8,3.8-10,6.9-14.9,10.3,2.6,16.3,4.4,32.7,4.1,49.3h0ZM953,1801c-7.8-21.3-12.5-43.3-13.5-66-10.7,15.3-3.9,37.7-3.3,55.3.7,2.1,16.1,11.4,16.8,10.7M1108,1735c-.3,23.1-5.7,45.5-13.5,67,2.9-2.9,16.4-8.5,17.3-11.7,0-17.4,8.1-40.8-3.8-55.3M965,1794c2-15.5,7.9-28.3,16-41.4l-27-12.6c-1.2,13.7,7.7,32.2,7.2,46.2l3.8,7.8ZM1094,1740c-45.6,19.5-17.9,8.6-10.5,54,4.6-17.3,8.8-35.6,10.5-54M1374.5,1760v1c.7-.3.7-.7,0-1" fill="#AAAAAA" style="opacity: 0.5"/>
  <path id="outline-head" d="M1525,1141c-18.9,3.6-37-1.1-55.5-3-1.5-.2-2.8-.6-2.5,1.5.3,1.9,21.2,26,24.4,30.6,12.4,17.4,21.9,38.6,30.8,58.2,11.3,25.2,21.5,50.9,29.8,77.2l-23.5-22.5c-22.7-16.8-44.1-35.2-66-53-.8-.2-.6.9-.5,1.5,2.3,15.4,16.1,48.8,22,65,21.6,59.3,52,128.2,88.2,179.8,8.5,12.1,17.2,22.2,29.8,30.2-25.9.4-50.9-6.2-74-17.5l15.5,28c9.1,25.7,4.9,53.8,4.5,80.4-.6,36.2-1.9,72-3,108-.5,16.2-.2,32.4-1,48.5l-85-153c4,29.9-6,59.6-16.3,87.2-10.8,29.1-25,59-39.6,86.4-19.2,36.2-41.3,69.8-68.7,100.3-2.3.4-1.4-1-1.5-2.5-1.5-20.9-.2-42.6-2-64-1.2-14.5-4-28.9-5-43.5l-20,25.5c-21.4,20.8-42.5,48.8-65.5,67.5-11.1,9-39.1,21.4-53.1,27.9-3.4,1.6-14.1,7-16.8,7.2-1.6,0-1.8.2-1.4-1.4,1.7-7.7,8-18,10.2-26.8,1.2-4.7,1.8-9.6,2.6-14.4,4.2-27.6,5.6-56.5,7.1-84.4-21.3,25.1-48.9,46.5-75.7,65.8-18,13-36.5,26.6-58.8,31.2-1.7-18.3,6.8-42.1.8-59.8-4.2-12.5-23.9-27.1-30.8-39.2l-23.5,26.5c-19,19.6-5.7,48.7-7.5,72.5-22.3-4.6-40.8-18.2-58.8-31.2-26.7-19.3-54.3-40.7-75.7-65.8,1.5,27.9,3,56.8,7.1,84.4.7,4.8,1.4,9.7,2.6,14.4,2.2,8.8,8.5,19.2,10.2,26.8.3,1.6,0,1.5-1.4,1.4-2.8-.2-13.4-5.6-16.8-7.2-14-6.5-42-18.9-53.1-27.9-23-18.7-44.1-46.7-65.5-67.5l-20-25.5c-1,14.6-3.8,29-5,43.5-1.8,21.4-.5,43.2-2,64,0,1.5.8,2.9-1.5,2.5-27.4-30.5-49.4-64.2-68.7-100.3-14.6-27.5-28.7-57.2-39.6-86.4-10.3-27.7-20.3-57.3-16.3-87.2l-85,153c-.8-16.2-.5-32.4-1-48.5-1.1-36-2.4-71.8-3-108-.4-26.6-4.6-54.8,4.5-80.4l15.5-28c-23,11.3-48.1,17.9-74,17.5,12.6-8,21.3-18.1,29.8-30.2,36.2-51.6,66.6-120.5,88.2-179.8,5.9-16.2,19.7-49.7,22-65,0-.6.3-1.7-.5-1.5-12.5,9.3-23.9,20.2-36,30-13.4,10.8-28.1,20.4-40.5,32.5-3.6,3.5-6.6,10.1-12,11.5-2.6-2.9,24.3-65.7,27.8-73.7,11.1-24.8,21.3-46.5,37.8-68.2,2.9-3.8,17.7-20.3,18.4-22.6s-1.4-1.5-2.5-1.5c-9.3.4-20.3,3.5-30,4-8.4.4-17.3.3-25.5-1.5,22.2-20.4,42.8-41.8,61.4-65.6,18.5-23.7,35.8-49.7,52-75,9.9-15.4,19-34,29.6-48.4,9.9-13.6,20.6-13.7,34.3-20.7,43.8-22.2,99-71.5,135.7-105.3,14.8-13.6,21.5-27.3,42.8-31.2,78-14.5,212.4-14.5,290.4,0,21.4,4,28.8,18.4,43.8,32.2,36.1,33.2,90.3,81.5,133.3,103.7,19.9,10.3,25.3,6.3,39.1,26.9,35.1,52.2,62.2,104.1,106.1,150.9,10.7,11.4,22.9,21.4,33.5,33M619,1412v39.5c0,4.8,5.9,22.6,7.7,28.3,6,18.5,12.4,32.3,29.3,43.2-3.6-9-6-18.2-7.7-27.8-2.7-14.8-5.5-34.8-6.3-49.7-.3-5.7-2.1-15.4,5.9-14l31,26.5c-1.9-14-5.5-27.8-7.7-41.8-4.5-29.1-11-57.5,1.3-85.1,10.3-23,26.2-47.8,40.2-68.8,3.6-5.4,21-27.5,22-31,2-7-.7-23.3.2-31.8.9-8.2,22.8-39.4,28.8-48.2,9.4-13.8,19.4-27.3,29.2-40.8,1.9-1.4.7,1.8.5,2.5-7.5,27.5-30,61.2-41.4,88.6-8.5,20.4,2.6,79.6,11.1,100.7,2.8,6.8,6.9,15.2,11.8,20.7-.7-19.5.2-37.8,3.5-57,2.2-12.7,2.5-18.7,3.5-31.4,2.9-37.4,10.8-51.3,32.4-80.6.4-.5,1.1-3.7,2.6-1.9,1.3,1.6-12.6,32.2-14.3,37.2-2.9,8.8-4.9,17.8-7.2,26.8l-1.5,13c11.3-17.8,25.8-33.6,41-48v14.5c0,6.8,10.2,27.4,14.7,33.2.7.8,0,1.8,2.3,1.3.6-12.2,5.9-24.9,10.3-36.2,14.7-38.7,34.1-77.3,61.2-108.8,7.8-9,18.9-16.2,27-25-8.2,35.8-12.1,72.7-9.5,109.5l2,1.5c5.9-30.9,18.6-62.3,33.5-90,9.8-18.1,20.2-34.5,37-47,3.2,2.8,7.7,19.5,12.8,13.8,1.6-1.8,7.2-13.8,8.2-13.8,17.8,13.4,28.9,31.5,39,51,13.9,26.7,25.6,56.4,31.5,86,1.5.2,1.8-2.6,1.9-3.6,2.4-22.3.2-51.4-3.1-73.8-1.3-9.1-5.2-21-5.7-29.3,0-1.5-.8-2.8,1.4-2.4,7.6,8.1,17.8,14.7,25,23,27.1,31.1,46.7,70.4,61.2,108.8,4.3,11.4,9.6,24.1,10.3,36.2,2.3.6,1.6-.4,2.3-1.3,4.5-5.8,14.7-26.4,14.7-33.2v-14.5c15.2,13.7,28,29.8,40.5,46,0-10.1-3.3-21-6.2-30.8-4.6-15.5-11.6-30.1-17.3-45.2,2.2-.3,3.6,3.1,4.8,4.7,21.7,29.3,29.1,45.6,31.2,82.8.3,4.6-1.1,10.3-.8,13.8.4,4.8,4.4,14.3,5.5,20.5,2.8,16.6,2.3,33.4,2.3,50.2,10.4-13.3,16.2-31.3,19.7-47.8,3.9-18.9,8.4-47.7,5.2-66.6-1.3-7.7-15.7-35.8-20-45-7.3-15.6-17.7-31.9-22.8-48.2,0-.2-2.3-6.2,0-4.9,7.2,10.4,15,20.4,22.2,30.8,9.2,13.2,28.1,38.5,34,52,4.8,11-.9,28,2,38,1,3.5,18.4,25.6,22,31,14,21,29.9,45.9,40.2,68.8,12.3,27.6,5.9,56,1.3,85.1-2.2,14-5.8,27.8-7.7,41.8l31-26.5c8-1.4,6.2,8.3,5.9,14-.8,14.9-3.6,34.9-6.3,49.7-1.7,9.6-4.1,18.8-7.7,27.8,15.6-10.2,22.4-23,28.3-40.2,1.9-5.6,8.7-26.8,8.7-31.3v-39.5l3.5,13c.4,8.7,5.4,20.4,5.5,28.5,0,7.5-4,17-5,24.5,7-8,17.2-19.1,21.5-29,14.5-33.7-15.8-91.5-25-125-.8-2.7-5.3-22.1-4.5-23,1.3-1.4,2.6,1.8,3,2.5,6.9,12.2,14.5,33.7,19.7,47.3,9.5,24.9,28.8,76.2,22,101.5-5.2,19.1-51.6,67.8-67.7,82.3-11.3,10.2-24.1,21.2-40,22.5,2.1-5.2,5.5-9.6,7.8-14.6,11-23.8,14.6-53.6,18.1-79.3l-21.6,11.8-11.3,4.1c-1.5-1.5,8.3-23.8-1-26-1,6.3-2.7,13.1-3.1,19.5-.7,10.7,2.2,37.5-.5,45.5-.8,2.3-11.4,15.3-13.7,16.3-7.3,3-19.5-2.5-25.6,4.4,1.2,16.4,6.8,32.5,7.9,48.8,1.2,17.4-.3,35.2-2,52.5h-3c-1.4-25.9-2.8-54-12-78.5-.4-1-2.3-8.3-4-6.5-.4.4-3.1,10.1-3.1,11.5.2,7.9,5,21.6,6,31.1,2.6,24.4.3,53.4-2,78-1,10.9-2.9,21.7-4,32.5h-3v-63.6l-3-45.4-10.8,18.7c-8.5,11.7-17.4,23.1-28.2,32.8-2.2,2-18.5,15-19.7,15.3-.8.2-1.5.2-2.3.2,1.3-14.1,2.5-29.9-1.9-43.5-.2-.7-2.3-7.2-4-5.4-.4.4-2.6,8.8-3.6,10.9-7.6,15.2-19.7,13.6-33.1,18.9-10.7,4.3-13.7,20.7-18.4,30.6-6.4,13.2-13.8,15.8-26.2,22.8-3.9,2.2-8.4,4.4-12.7,5.8,10.1,26.7,9.1,55.8,9,84,18.6-17.7,40.1-39.6,47.7-64.8,4.1-13.7,4.6-28.3,7.8-42.2,3.4,6,8.2,11.5,11.3,17.7,15.2,30.5,8.9,94.8,4,128.7-1.4,10.1-3.5,20.2-5.8,30.2,25.1-13.6,45.8-34.3,64.5-55.5s32.5-38.6,40.4-66.6c10.7-37.8,15.4-77.4,19.6-116.4,18.2,49.4,18.4,103.4,19.5,155.5.4,18.9-.6,38.2,0,57,0,1.2-.8,3.7,1,3.5,17.3-34.3,37-68.6,52.9-103.6,1.4-3.1,5.7-11.3,6.1-13.9,2.2-14.2,0-45.9-2.1-60.8-2.5-17.9-9.9-32.5-14.8-49.2-1.6-5.3-7.2-20,2.8-17.3l18.6,41.9c5.3,17.6,4.4,36.2,8.5,54l9.5-24c7.9-22.9,6.6-46.6,6.5-70.5l-6-64.5c1.7-.4,2,.7,3,1.5,17.9,13.9,37.4,43.9,48.2,63.8,3.8,7.1,6.7,15.5,11.8,21.7l-26-105c2.3-2.3,7.1,7.4,8.2,9.3,21.9,38.5,27.2,85.6,33.3,128.7l24.6,54.9c-1.5-20.4-1-41-2-61.5-1.3-26.9-2.9-54.2-5-81-2.9-37.8-7.6-54.1-22.8-88.2-1.2-2.7-9.3-17.1-8.2-18.3l63,28.5c-23.2-30.6-45.2-62.2-60.2-97.8-15-35.8-29-75.4-41.8-112.2-9.2-26.3-22.2-59.4-27.8-86.3-.3-1.3-1-4.1,1.2-3.2,4.1,1.6,17,12.2,21.4,15.6,9.4,7.2,18.2,15.3,27.8,22.2l23.3,15.2c-19-51.2-53.2-94.7-91-133.5l1.5-1.5c9.8,6,21.8,7.9,30.5,15.5l30,4c-31.7-35.8-61.1-73.9-86.4-114.6-5.6-9-23.5-44.1-28.7-48.3-8.3-6.8-24-14-33.8-20.2-48.3-30.3-97.2-68.3-141.1-104.9-5-4.2-15.4-15.8-20.1-17.9-8.8-3.9-34.8-6.3-45.5-7.5-62.8-7-138.2-6.9-200.7,2-7.7,1.1-22.2,2.5-28.8,5.2-5,2-15.2,13.5-20.3,17.7-56.1,46.6-114.6,90.5-177.5,127.5-31,58-69.3,111.9-113,161l30-3.9c9.2-7.2,20.9-11.2,31.9-15.1-17.3,20.7-36.7,39.7-52.2,61.8s-29,47.9-39.8,73.2c25.5-13.1,45.3-35.4,69.2-50.7,1-.7,5-3.6,5.7-2.8-7.2,30.3-17.7,60.1-28,89.5-12.9,36.8-26.8,76.4-41.8,112.2-14.9,35.6-37,67.2-60.2,97.8l63-28.5c1.2,1.2-7,15.7-8.2,18.3-15.2,34.1-19.9,50.4-22.8,88.2-2.1,26.8-3.7,54.1-5,81-1,20.5-.5,41.1-2,61.5l23.7-52.8c7-44.6,11.7-92.5,34.8-132.2,1-1.7,5.1-10.3,7.5-8l-27,108,26.6-48.9c10.8-12.1,21.6-29.7,34.4-39.6,1-.8,1.3-1.9,3-1.5-4,48.1-13.9,99.1,4,145.5l6,13.5c3.8-17.3,3.2-35.3,8-52.6l19.2-43.3c9.5-2.4,4.8,9.5,3.4,14.8-4.7,17-12.6,32.6-15.4,50.6-2.2,14.6-4.3,47.8-2.1,61.8.4,2.6,4.7,10.8,6.1,13.9,15.9,35,35.6,69.3,52.9,103.6,1.7.2.9-2.3,1-3.5,1.6-45-1.2-89.4,3-135,2.4-25.8,7.5-53.3,16.5-77.5,4.1,39,8.9,78.6,19.6,116.4,7.9,28,21.5,45.2,40.4,66.6s39.4,41.9,64.5,55.5c-2.3-10-4.4-20.1-5.8-30.2-4.8-33.9-11.2-98.1,4-128.7,3.1-6.2,7.9-11.7,11.3-17.7,3.2,13.9,3.7,28.5,7.8,42.2,7.6,25.2,29.1,47.1,47.7,64.8-.3-28.3-1-57.1,8.6-84-1-1.6-26.9-13.7-31.6-18.4-7.5-7.5-10.2-26.2-17-35-10.1-13.1-31.2-3.7-41.2-25.8-2.5-5.6-2.6-15.5-6.6-4.9-5.1,13.3-3.4,30.3-2.2,44.3-.8,0-1.5,0-2.3-.2-1.7-.4-16.3-12.2-18.7-14.3-14.8-13.2-28-30.2-37.5-47.5l-2.5-9c-5.5,37.3-3.7,75.3-4,113-.8,0-2.8.2-3,0-1.2-1.1-3.6-27.6-4-31.5-3.2-33.3-5.3-66.5,1.5-99.5.7-3.2,3.4-9.5,3.5-11.6.2-3.2-3.7-8-4-11.4-5,6.8-7.6,17.6-9.5,26-4.5,19.4-6,40.1-6.5,60h-3c-1.2-13.9-3.8-28.7-2-42.5-.6-19.9,5.6-39.1,7.9-58.8-1.7-6.2-19.2-2.3-24.6-4.5-2.2-.9-12.6-13.2-13.5-15.5-2.6-6.5-.3-32.9-.8-42.2-.2-2.9-2.2-22.6-3-23.5-.9-1.1-5,3.7-5.1,4.5-1,7.2,2.7,14.5,3.1,21.5l-11.3-4.1-21.6-11.8c3.6,25.8,7.2,55.6,18.1,79.3,2.3,5.1,5.8,9.5,7.8,14.6-15.9-1.3-28.7-12.3-40-22.5-16.1-14.6-62.5-63.2-67.7-82.3-8.1-29.9,19.9-97.8,32.2-127.2l12.5-27c-2.5,26.8-14.6,50.8-22.3,76.2-5.8,19.3-12.6,40.9-10.7,61.2,1.5,16.7,14.5,30,24.5,42.5-.6-8.2-4.8-17.1-4.5-25.4.3-9.7,5.7-22.5,6.5-32.6l2.5-8v-.2ZM740,1271.5c-.6-5.6.4-11.9,0-17.5-1.2,0-1.6,1.4-2.2,2.3-10.2,16.1-19.4,35.5-28.6,52.4-11.4,20.9-28.4,43.3-29.2,67.8-.3,8.8.4,21.2,1.1,30,1,13.3,3.5,26.5,6,39.5,21.7-7.3,17.3,9.6,19,23.5,1.7,14.2,3,30,5.1,43.9,2.4,16.2,15.5,11.9,26.9,17.1,18.4,8.4,26.2,47.9,33.3,65.7,7.6,19.4,17.8,32.8,34.3,45.7,2.2.3,1.2-.3,1.5-1.4,1.9-6.1,1.7-15.1,3.3-21.7,1.6-6.5,8.9-23,17-20.6,3.9,1.2,15.4,25.8,21.7,31.3,8.8,7.8,20.9,7.4,28.5,15.5,8.2,8.7,12.5,22.1,19.7,31.3,13.8,17.8,73.5,41.2,96.1,47.9,6.9,2.1,24,7.5,30.3,7.5s23.3-5.2,30.5-7.3c27.7-8.1,64.4-23.4,87.7-40.3,14.7-10.7,16.6-25.5,27.8-38.2,8.1-9.2,20.2-8.3,29.5-16.5,6.5-5.7,17.3-30,21.7-31.3,6.2-1.9,12.2,8.1,14.5,13.1,1.8,3.9,2.8,9.2,3.5,13.5.8,4.5.5,12.2,1.4,15.6.7,2.5,2.3,1,3.8,0,8.5-5.5,20.2-19,25.2-27.8,11.7-20.6,19.7-71.8,40.2-81.8,13.3-6.5,25,0,27.7-19.3,2-14.4,3.2-29.5,5-44,1.7-13.9-2.1-28.4,19-21.5,2.5-13,5-26.2,6-39.5.7-8.9,1.3-21.2,1.1-30-.8-24.5-17.8-46.9-29.2-67.8-9.2-16.9-18.5-36.3-28.6-52.4-.6-.9-.9-2.2-2.2-2.3v17.5c0,25.1-24.7,63.4-41.7,80.8-1.7,1.7,0,4.7-4.3,3.7,1.3-46.3.8-87.3-21.8-128.7-2.9-5.2-12.4-21.4-16.7-24.3-.9-.6-1.1-1.6-2,0-2,3.4-4,13.6-6.3,18.7-5.2,11.6-14,23.2-24.3,30.7-.9.6-4.2,3.4-4.9,2.6,3-60.6-40.6-109.8-69.5-159,.7,13.1,3.8,26.4,4.5,39.5,1.3,23.5-7.8,51.3-21,70.5-6.6-41.1-20.2-79.2-39.8-115.7-1.5-2.8-22.4-39.7-24.2-38.3-1.9,6.2-8.7,18.7-16.6,13.1-2.3-1.7-6.6-12.6-8.9-12.1-3.5.9-32.3,55.9-35.7,63.3-13.1,28.9-21.7,58.3-26.8,89.7-1.9,1.5-11-19.8-11.8-21.7-3.7-9.4-8.2-23-9.1-32.9-1.7-17.6,3.1-35.9,3.9-53.4-1.3.3-2.1,1.7-2.8,2.7-11.7,16.2-24.8,38.5-35,56-17.5,30.1-34,62.2-31.2,98.3-.8.9-10-6.5-11-7.5-13.1-12-20.3-28.6-25-45.5-16.9,18.3-30,44.8-35.3,69.2-3.6,16.6-5.6,38.4-5.7,55.3,0,10.1,2,20.3,1,30.6-2,.5-1.9-.8-2.8-1.7-19.6-19.3-40.4-56.2-43.2-83.8h-.4ZM931.5,1096v1c.7-.3.7-.7,0-1M582.5,1137v1c.7-.3.7-.7,0-1M1465.5,1137v1c.7-.3.7-.7,0-1M1493,1619c.7-1.4-.6-2.7-1-2-.7,1.4.6,2.7,1,2M950.9,1720.1l-26.8-12.1c2.1,13.8-2.3,27.6-3,41.5-.7,13.2-1,37.2,1.3,49.8.7,4,5.1,6.9,8.3,9.7,13.9,12.2,30.6,22.3,45,34-1.7-16.4-2.9-33.4,2.7-49.3l45.4-48.7c1.3-.2,6.6,5.6,7.9,6.9,12.9,13.7,25.4,27.9,38.3,41.7,5.7,15.8,4.4,32.8,2.7,49.3,17.5-13.2,35.4-25.7,52-40,2.6-16.3,3.3-34,2.6-50.5-.7-14.4-5.2-29.3-3.1-43.4-1.1-1-22.6,11.6-26.9,11.1-2.7,24.2,2.8,51-9.6,72.9-2.3.5-1.6-2.1-1.5-3.5.2-4.4,1.8-9.5,2.1-13.9.9-16.8-.4-33.9-2-50.6-15.4,2.9-30.4,8.5-45.8,11.7-14.4,3-19.6,2.5-33.8-.6s-29.4-7.8-43.9-12.2c-2.8,17.5-4,35.7-2.5,53.5.3,4.1,2,9,2,13s.4,3.5-1.5,2.5-4.3-8.6-5-11c-5.7-19.8-2.7-41.5-4.6-61.9h-.3Z" class="outline" fill="#000000"/>
</svg>