<?xml version="1.0" encoding="UTF-8"?>
<svg xmlns="http://www.w3.org/2000/svg" id="head-shorthawk" version="1.1" viewBox="0 0 2048 2048"><path id="fill-head" fill="#fff" d="m1072.2 581.1 29.6 24.9c2.4.8 2.6-2.9 3.5-4.7 2-3.8 4.4-7.6 6.5-11.3l24 20.2c2.9 3 6.4 9.4 8 13.1s1.6 6.9 2.8 9.7 1.3 1.7 2 1.9c7.7 2.7 11.4-8.4 14-12.4s.7-1.3 1.3-.7l13.7 17.4 1.6 24c5.1 0 10.2.2 15.3-.6l2.1 13.3-64.5 203.8-.2 3.1c4.4.5 7.9-2.6 12.3-2.3 2 3.9 3.2 6.9 1 11.1l-74.8 199.5c-1.7 2-8.8-3.2-11.6-1.2s-5.4 7.1-6.6 8.9c-1.9 2.8-5.7 11-7.6 12.7s-2.3.6-3.7 1.9c-6.9 6.5-11.2 18.7-15.9 26.2s-.3 1.9-1.5.8-2.7-6.7-3.5-8.1c-2.6-4.7-8.6-15.3-12.5-19s-3.2-1.3-4-2.1c-1.2-1.2-4.4-8-5.8-10.1s-6.6-10.3-8-11.3c-2.3-1.6-7.9 1.5-10.8 1.7l-1-.9c-22.6-63.2-47.5-125.8-70.2-189s-5.5-12.8-5.6-15.7 1.4-4.5 2.1-5.2c1-1.1 9.9 2.2 12.2 2.5s1.1.2.9-.7l-63.9-201.3c-2.9-6.1 0-12.4.7-18.7 5 .7 10.1.6 15.3.6l1.6-24c.3-1.3 12.1-16.2 13.7-17.4s.6 0 .9.5c2.4 3.9 7.4 16 14.8 12.4s3.3-8.8 4.3-11.3c5.5-13.1 18.4-21.8 29.8-31.6s1.2-2.9 2.6-1.4l9 16.3 29.1-25.6c1.8-.6.4 2.4 2.5 3.3s4.3.5 5.8 0c5.1-1.7 17.4-14.9 21.6-15.6 12.7-1 25.5-1 38.3 0 4.3.8 16.6 13.9 21.6 15.6s8 .4 7.3-3.2z" class="fill" data-original-prefix="fill"/><path id="outline-shading-head" fill="#000" d="M996.4 1037c1.4 0 1.4-2.4 1.5-3.3.6-7.9-1.4-15.7-.7-23.5l8.4 22c2.8 8 1.7 16.4 2.5 24.7 2.1 19.9 9.8 41.6 15.3 61.3.3 1-.5 1 1.5.9 3.8-19.3 11.9-37.9 14.6-57.4 1.2-9 .9-18.3 2.4-27.2l9.2-24.9c0 7.4-.6 14.9-.7 22.3 0 1.9-2 4.9.7 6.2 1.4-5.1 4.4-9.9 6.3-14.9 18.3-49.6 25.5-102 35.4-153.2.2-1 .3-3.6 1.3-4 3.1 9.8 3.3 20 4.4 30.1.4 4.2 2.3 9.5 2.3 13.7 0 11.8-5.5 28.3-6.6 41.1-.5 6.1-.8 12.1 0 18.2 10.7-10.6 18.9-23 26.9-35.1l1.5 5.1c4 15.2-10.4 27.6-14.7 40.9-2.3 7.1-2.5 14.3-4.5 21.3-2 7.1-6.3 14.2-7.6 21.4l-2.9-.6-22 65.6c-2.1 3-8.9-3-11.9-.8l-14.1 21.6c-10.1 5.4-12.6 18.2-18.4 26.1-1.3 1.7-2.1 2.4-3.8.4-3.3-6-6.1-12.3-10-18-2.4-3.6-4.8-7.1-9.2-9.1l-13.5-21.1c-3.2-2.3-9.8 4.2-12.1.4-8.1-21.5-14.4-43.6-21.7-65.3h-2.8c-1.7-7.4-5.6-14.3-7.7-21.4-1.9-6.4-2.1-13.4-4.2-19.8-5.1-15.4-18-24.9-15-43 0-.9.4-3.6 1.4-3.9 7.9 12.1 16.1 24.6 26.9 35.1 0-7.9 0-15.7-.7-23.5-1.1-11.1-5.8-25.1-5.9-35.7 0-4.6 1.7-9.2 2.3-13.7.7-6.5 1-24.5 4-29.5 0-.3.9-.8 1.1-.6.6 5 1.3 10.1 2.3 15.1 9.5 47.6 16.5 96.1 33.5 142.2 1.7 4.5 4.9 8.7 5.7 13.5h-.2zm2.2.6c.5-.8-.4-1.6-.7-1.2-.5.8.4 1.6.7 1.2" class="outline" data-original-prefix="shading" opacity=".2"/><path id="outline-head6" fill="#000" d="M903.3 738.8c1.6-.5 6.7-5.2 8-4.2l5.8 26.2c3.3-10.1 10.5-21 18.3-29.3.5-.5 3.3-4.2 4.2-3.4.9 11 3.9 22 9.1 32.1 1.1-2.8 1.9-5.7 3.6-8.3.5-.8 3.4-4.9 4.7-4.2 9.8 18.6 30.2 36.6 55 41.6 14.8 3 25.8.7 38.9-5 18.5-8 31.6-21.2 40-36.6 1.4-.8 3.9 3 4.5 3.7l4.2 8.5c4.7-10.2 8-20.9 8.7-31.8.9-.8 3.7 2.9 4.2 3.4 5.7 6.2 10.5 13.7 14.8 20.6l4.2 8.7 5.1-26.2c1.3-1 6.4 3.7 8 4.2l20.1-46.4c2.2-3.5 6.4 2.9 6.8 4.6.4 2.1-5.7 18.6-7 22-4.7 13.3-10.5 26.2-15.5 39.4-1.8 1.4-3.8-5.2-5.1-5.4-2.1 11.4-5.7 23.2-14.9 32.1-1.5-6.7-2.8-13.5-5.2-20.1-1.7-4.4-4.4-10.7-6.7-14.8-.3-.5-.3-1.8-1.5-.8s-4.9 14.6-6.4 17.7c-2.8 5.8-7.7 10.5-11.8 15.7l-1.5-.3c-.2-4.9-1.5-10.4-3.6-14.9-.3-.6-1.6-4.3-2.9-3.3-11.1 17.5-30.5 31.3-54 36.5-12.3 2.7-18.9 1.5-30.6-2.1-20.4-6.2-36.4-18.7-46.4-34.4-1.3-1-2.6 2.7-2.9 3.3-2.2 4.5-3.4 10-3.6 14.9l-1.5.3c-4.1-5.2-8.9-9.8-11.8-15.7-1.5-3-5.2-16.7-6.4-17.7s-1.2.3-1.5.8c-2.3 4.2-5 10.4-6.7 14.8-2.5 6.5-3.8 13.3-5.2 20.1-9.2-9-12.8-20.7-14.9-32.1-1.3 0-3.3 6.7-5.1 5.4-5.7-14.8-12.2-29.5-17.2-44.5s-5.5-14.4-5.2-16.5c0-1.6 4.3-8.2 6.5-5.4l20.4 46.7Z" class="outline" data-original-prefix="outline"/><path id="outline-head5" fill="#000" d="m1003.7 1064.9-5.5-8.9c-25.2-52.5-38-108.4-44.7-164.6-.4-3.9-1.7-10.8-1.5-14.3.2-3.1 3-7.6 3-11z" class="outline" data-original-prefix="outline"/><path id="outline-head4" fill="#000" d="M1045.2 1064.9c-1.2 0-.8-2.1-.7-2.7 0-1.7.6-4 .9-5.8 3.7-17.6 10.3-36.2 14.8-53.9 9.3-36.8 17.5-73.8 25.3-110.8l7.6-25.6c0 3.4 2.8 7.9 3 11 .9 12.9-5.1 37.3-7.4 51.1-3.6 21.5-7.3 43.1-13.9 64.2-7.7 24.5-18 49.1-29.6 72.5" class="outline" data-original-prefix="outline"/><path id="outline-head3" fill="#000" d="M971 807.8c4.1 19.6 7.5 39.5 11.9 59 4.1 18.6 11.7 36.6 10 55.8-1.2.2-1.5-.2-2-1-.9-1.5-2.2-5.8-2.9-7.7-4-11.2-6.3-22.9-9.7-34.3-6.4-21.1-15.7-41.3-12.3-63.7.4-2.4 1.1-8.5 5.1-8Z" class="outline" data-original-prefix="outline"/><path id="outline-head2" fill="#000" d="M1055.4 922.7c-1.7-19.2 5.8-37.3 10-55.8 4.4-19.5 7.6-39.2 11.9-58.7 3.4-1.6 4.6 4.6 4.9 6.7 3.7 24-5.3 42.4-12.1 64.8-3.5 11.4-5.7 23.1-9.7 34.3-.7 2-2 6.2-2.8 7.7-.5.8-.8 1.2-2 1z" class="outline" data-original-prefix="outline"/><path id="outline-head1" fill="#000" d="m1068.5 578.7 3.6-11.5 1.5-.4 25.1 26.2c3.5-5.2 6.6-11.1 7.6-17 .3-2-.2-4 0-5.9.3-2 2.8.2 3.9 1 13.4 10.2 26.7 27.1 33.5 41 2.8 5.7 4.5 11.7 7.3 17.3 7.6-7.2 10.8-17 14.2-25.9.3-.8-.4-1.1 1.5-.9 10.8 15.3 20.5 31.2 20.4 49.4 4.3-2.6 7.3-6.2 10.5-9.6l6.3-8.9c.9 7.6 2.6 15.2 2.2 22.9-.7 13.7-4.1 30.2-6.7 43.9-10.8 58.2-32.2 113.6-55.1 169.1 1.1 1.1.9.7 2 .4 7.6-2.2 17-10.1 23.1-14.4 0 4.1-2.1 9-3.6 13.1-9 24.6-22 49.2-32.4 73.5-19.1 44.7-33.9 90.2-51.4 135.3-2 5.1-5.5 15.8-8.4 19.9-1.3 1.9-6.1-.5-8.6-1.1-.9-.2-5.6-1.1-5.8-.9.2 7-2.1 13.9-3.6 20.8l-10.9-4.8c-3.3 5.8-7.8 11-11.1 16.8-2.9 5.2-4.5 10.6-7 15.7-.3.6-1.8 4.1-3.1 3.2-4.7-12.7-11.6-24.3-19.6-35.7L993 1116c-1.5-6.9-3.9-13.8-3.6-20.8-.2-.2-4.9.7-5.8.9-2.5.5-7.3 3-8.6 1.1-2.9-4.1-6.4-14.9-8.4-19.9-17.5-45.1-32.4-90.6-51.4-135.3-10.4-24.3-23.4-48.9-32.4-73.5-1.5-4.1-3.6-9-3.6-13.1 6.2 4.3 15.5 12.2 23.1 14.4 1.1.3.9.7 2-.4-23-55.5-44.4-110.9-55.1-169.1-3.7-19.9-8.7-43.1-5.1-62.9 0-1 .3-3.6 1.3-3.9 3.3 7.1 8.9 13.6 16 18.4 0-18.2 9.5-34.1 20.4-49.4 1.9-.2 1.2 0 1.5.9 2.5 7 6.9 19.3 12.8 24.6.4.4 1.1 1.5 1.7 1 5.5-16.5 14-31.7 26.9-45.2 3.6-3.8 9.2-9.5 13.5-12.7 6-4.6 3.4 1.1 4 4.9.9 6 4.1 11.8 7.6 17l25.1-26.2 1.5.4c.5 3.7 2.3 7.1 3.6 10.7 0 .5-.3 1.3 1.1.8 1.2-.4 7.6-5.1 9.1-6.2 3.8-2.8 9.5-9.2 14.3-9.8 8.7-1.1 21.6-1.1 30.6-.7 2.6 0 9 .5 11.1 1 3.1.8 14.7 11.3 18.7 13.9.7.4 3.5 2.3 4 1.8zm0 18.4c-.2-.2-1.5-4.4-2.3-5.6-3-4.8-12-14.6-17.8-17-2.9-1.1-17.9-2.4-21.7-2.5-4.9 0-23 1-26.8 2.5-5.8 2.3-14.8 12.1-17.8 17-.7 1.2-2 5.4-2.3 5.6-1 .9-1.2-.2-1.6-.8-1-1.5-3.4-10.4-6-9.9-2.3.4-25.1 25.9-29.9 28.5l-10.2-20.8c-14.5 15.3-23.5 35.4-28.7 54.2-4.4-4.8-10.8-8.2-15.6-12.5-2.5-2.3-4.6-5-6.8-7.6-.4-.5 0-1.1-1.6-.8-5.7 18.3-1.8 38 .7 56.5L859 667.8c5.8 29 13.5 57.8 22.2 86.3 13.3 43.6 28 89.9 44.4 132.7 1.5 3.8 4.4 7.7 4.4 11.3l-20.7-11c14.1 28.6 25.3 58.2 36 87.8 6.7 18.5 13.2 37.1 19.1 55.8 5.6 17.9 9.8 36.1 16.2 53.7 2.4 0 12-5.5 13.1-4.8 1.7 6.4 4.8 12.5 8 18.4 1.7 1 7.5-4.8 10.2-4.2l11.6 38.7c1.5 1.1 2.5-2.9 2.7-3.5 3.1-7.9 6-17.7 8.4-25.8.9-3.1 1.5-6.2 2-9.4 2.6-.7 8.4 5.1 10.1 4.2 3.2-6 6.3-12 8.1-18.4 1.1-.8 10.7 4.7 13.1 4.8 6.4-17.7 10.6-35.8 16.2-53.7s12.4-37.3 19.1-55.8c10.7-29.6 21.9-59.2 36-87.8l-20.7 11c0-3.6 2.9-7.5 4.4-11.3 16.4-42.8 31.1-89.2 44.4-132.7 8.4-27.6 17.3-57.3 22.2-85.4 0-.4.2-1-.4-.9-1.2 1.3-19.9 17-20.7 16.1 2.5-18.5 6.4-38.3.7-56.5-1.7-.4-1.2.2-1.6.8-2.2 2.6-4.1 5.3-6.8 7.6-4.9 4.3-11.3 7.7-15.6 12.5-5.2-18.8-14.3-38.9-28.7-54.2l-10.2 20.8c-4.8-2.6-27.6-28.2-29.9-28.5-2.5-.5-4.9 8.5-6 9.9-.4.5-.6 1.6-1.6.8z" class="outline" data-original-prefix="outline"/></svg>