<?xml version="1.0" encoding="UTF-8"?>
<svg xmlns="http://www.w3.org/2000/svg" id="eyes" viewBox="0 0 2048 2048"><defs/><g id="fill-eyes" class="fill" fill="#FFFFFF"><path id="fill-eyes1" d="m1054 1254-3-1c-9.1-14.2-22.5-28.8-19-47-6.2 2.2-8.8 2.2-15 0 2.1 7.1-.6 14.6-3.2 21.3-4.2 10.6-11.3 17.3-15.8 27.7-1 2.4-21.3 14.4-24 19-5.7-.5-4.6-14.6-3.5-18 1.9-6.5 14.5-14.8 19.7-19.3 1-.8 2.5 0 1.9-2.6-19.9 5.8-42.2 16.9-63.4 14.9-44-4.3-65.6-34.1-99.3-57.7-29.2-20.4-60.3-33.7-94.5-43.4-9.1-2.6-18.3-5.3-27.8-5.7 0 5.4-1 10.7-2 16l-11-7c.7-4.8 3.5-13.8 1.5-18-.8-1.7-11.6-6.7-14.2-7.8-2.8-1.3-9.1-2.1-9.3-5.6 1.1-6 .9-11.1 2.9-17.1 2.7-8.4 9.1-21.6 13.2-29.8 2.6-5.3 24-44.7 26.5-45.5 1.2-.4 10-1.2 11.8-1.2 8.8 0 25.1 1.7 34 3.1 3.3.5 19.8 5.8 20.5 5s-.2-2.5-1-3.4c-1.5-1.7-7.4-5.7-9.6-7.4-8.7-6.3-18.9-11.6-28.3-16.7-2.1-2.2 1.8-10 3.2-12.9 12.3-27 67.2-72.8 92.9-89.1 39.3-24.7 117-56.6 163.5-52.6 9 .8 8.5 1.7 10.2 9.8 10.6 53 3.3 103.7 7.3 155.7 1 12.7 6.9 28.2 9.5 41.5 1.2 6.3 1.2 14.7 2.7 20.3.8 2.7 33.2 34.3 38.8 41.2 2.7 3.5 9 8.9 5.4 12.3-7 6.6-18.9 12.6-26.4 19.6-5.5 5.1-6.4 7.2-6 15 1.3 22.1 7.6 46.6 10 69 .6 5.8-.8 11.8 1 17.5h-.2Zm-74-71c.6-.7-2.6-9.6-3.2-11.2-4.5-12.4-18.8-50.9-28.2-57.8-19.4-10.7-39.9-20-59.2-30.8-14-7.9-26.5-19-42.3-23.2-1.4 1.4 6.9 7.5 8.1 8.4 27 20.7 64.8 41.2 87.9 66.1 11.7 12.6 20.2 32.4 33.8 46.2 1 1 1 2.8 3.2 2.3Zm13.5 50v1c.7-.3.7-.7 0-1" class="fill" fill="#FFFFFF"/><path id="fill-eyes2" d="M1219 1075c.7.9-.6 2.5-1.7 2.8-42.2 21.9-82.5 46.9-122.4 72.6-7.2 4.7-14 7.4-20.6 13.3-.7.6-1.9 0-1.3 2.3 6.3-.4 12.5 2.6 18.7.2 42.8-22.6 85.2-50 128.2-71.8 5.4-2.8 12.1-7.1 18.3-5.5.7.2 5.7 10.6 6.2 12 3.4 10.8.7 39.2-.5 51.5-.5 5.2-2.8 27.3-5.3 30.2-35.1 21.9-70.1 45.5-106.7 64.8-6.2 3.2-31.2 16.8-36.3 15.3-1.1-.3-18.2-13.5-18.8-14.5-1.3-2.2-1.5-15.3-2.1-19.6-2.1-14.3-6.2-39.9-11.1-52.9-2.1-5.6-7.2-7.6-2.8-14.3 6.1-9.2 23.8-17.4 30.4-25.6 9-11.1-5.5-26.6-12.5-35.4-6.1-7.7-13-15.1-19.5-22.5-1.7-1.9-5.8-4.6-6.6-5.7-7-10.5-9.2-38.8-16.7-51-2-45.9-2.3-92-6.2-137.8-.9-10-3.6-21.4-4-31-.2-5.5 4.8-5.1 9.5-5.5 7.5-.6 18.4.3 26 1 8.6.8 49.3 7.1 54 12 2.2 2.4 10.4 23.9 12.3 28.7 21.1 53.7 37.4 110.5 54.3 165.6 2.1 4.4 4.3 7 8.6 9.4s27.4 10 28.3 11.2zm-82.7-74.3c14.5 14.5 30.6-9.6 16.7-24.2-15-15.8-31.6 9.3-16.7 24.2m80.4 112.5c-19.9 3.2-22.9 35.3-5.3 42.8 22.2 9.5 37.6-23.8 19.6-38.6-4.6-3.8-8.2-5.2-14.3-4.2" class="fill" fill="#FFFFFF"/><path id="fill-eyes3" d="M1304 997c-19.9 9.6-39.8 19.5-58.9 30.6l-10.1 7.4c33.3-6.7 65.4-18.5 97.7-28.8l5.3.3c13.2 25.4 27.6 50.3 39.8 76.2 4 8.4 14 27.4 15.7 35.4 1.5 7-5.3 14.7-5.5 22-15.1-5.3-30.3-11-46.5-12.1-31.4 4.4-56.7 28.5-84.5 42.1 3.1-30.5 4-61.7 2.1-92.3.3-1 13.6-8 15.9-9.2 12-6.4 49.8-21.7 56.9-29.1 5.5-5.7 6.8-17.4 3.6-24.4-2-4.4-3.5.5-5.2 2-3.5 2.9-8.6 5.9-12.6 8.2-26.4 15.2-55.8 27.5-82.4 42.7-11-.9-38.1-9.2-42.8-19.8-17.9-62.1-32.6-125.8-62.5-183.5 17.6 4.7 34.7 13.6 50.7 22.3 38.6 21.1 80.5 54.4 109.3 87.7 5.7 6.5 11.3 14.2 14 22.5zm-107.3-.8c-18.3 3.8-6.9 35.8 10.8 37.8s19.9-11.1 13.3-24.3c-4.6-9.4-13.2-15.7-24.1-13.4Zm84.1 78c-22 1.8-22.5 38.8-1.2 41.7 30.4 4.2 25.9-43.7 1.2-41.7" class="fill" fill="#FFFFFF"/><path id="fill-eyes4" d="M1362 1161c0 2.2-1 4.2-1 6.4-1.2 35.4-3.5 74.2-10 109-.8 4-6.8 7.9-10.3 9.7-19.6 10.1-45 15.8-65.4 24.6-8.4-.8-16.6-5.6-25.2-6.8l45.7-24.8 42.8-27.2c5.3-24.3 11.5-50.7 13.5-75.5.3-4.2-.8-11.5.2-14.8.9-3 7.2.4 9.8-.7Z" class="fill" fill="#FFFFFF"/><path id="fill-eyes5" d="M1222 1222c7.7 33.2-25.2 64.8-57.3 45.8-3.4-2-13.9-10.2-9.1-13.7l66.3-32.1Z" class="fill" fill="#FFFFFF"/><path id="fill-eyes6" d="M1254 1317c.3 1.4-1 1.1-2 1.5-17.2 7.2-37.3 10.2-54.7 17.3-13.6-3.2-29.5-4.9-42.5-10-10.8-4.3-18.9-17.1-25.5-26.5-1.5-2.1-11.2-15.1-10.2-16.3 18.1 12.5 38.1 24.4 58.3 33.2 6.4 2.8 17.1 8 24 6.6 7.6-1.8 24.6-11.4 31.3-11.7 5.5-.2 15 6.6 21.4 6h-.1Z" class="fill" fill="#FFFFFF"/><path id="fill-eyes7" d="M1215.7 1121.2c15.9-3.7 18.7 19.1 7.2 25.2-15.7 8.3-22.2-21.8-7.2-25.2" class="fill" fill="#FFFFFF"/><path id="fill-eyes8" d="M1142.7 979.2c10.6-2.2 13 20.8.6 16-8.1-3.1-8.9-14.3-.6-16" class="fill" fill="#FFFFFF"/><path id="fill-eyes9" d="M1278.7 1083.2c16.1-3.6 21.2 26.1 4.8 24.8-11-.8-15.1-22.5-4.8-24.8" class="fill" fill="#FFFFFF"/><path id="fill-eyes10" d="M1209.7 1009.3c5 5 8.1 19.1-2.1 17.7-5.7-.8-14.5-16-10.1-20 3-2.7 9.6-.2 12.2 2.4Z" class="fill" fill="#FFFFFF"/></g><g id="shading-eyes" class="shading" fill="#AAAAAA" style="opacity: 0.5"><path id="shading-eyes1" d="M1031 842c6 39.3 9.9 78.9 13 118.5 1.7 21.2.3 49.7 4.2 69.8 1 5.1 13.1 35.5 15.9 40.1 4.2 6.8 17.3 20.4 23.3 26.7 3.4 3.6 7.1 6.9 10.5 10.6l87-47.6c-11.8-42.8-21.5-86.3-34.7-128.8-3.8-12.4-7.7-26.7-12.5-38.5-2.2-5.3-11.8-20.8-10.6-25 1.4-4.8 7.8-4 11.6-3 6.9 1.8 23.3 10 30.5 13.5 59.3 28.6 111.6 70.3 150.6 123.4.4 1.6-1.3 2-2.3 2.6-16.3 10.7-39.9 15.3-57.9 22-37.4 14-80.1 43.1-113.7 65.3-13.9 9.2-31.8 20.1-44.1 30.9-12.8 11.2-23.3 25.8-37.5 36.5-1.9 1.5-6.7 2.9-7.3 4.7-1.8 5.3 1.2 12.1 1.7 16.9 1.6 16 2.5 32.2 6.1 47.9 1.3 1.3 19.8 4.4 22.6 4.5 15.6.3 62.5-28 77.8-37.2 17.1-10.3 33.8-21.2 49.7-33.3-8.3-4.4-13.7-13.2-13.6-22.8 0-3.6 1.4-14.1 6.1-13.7s3 5.4 4 8.1c6.4 16.8 15.5 5.7 24.9-1 6.3 3-2.7 9.4 3 10.9l35.6-24.4c-9.6-5.5-13.2-17.8-8.7-27.7 2.1-4.7 8.6-9.8 8.8-2.8l3-1c-.8 5.4.7 12.4 6.7 13.8 9.4 2.1 11.9-6.7 12.8-6.8 4.2-.7 4 6.3 7.1 6.9 1.2.2 14.5-5.1 18.1-5.6 9.6-1.3 20.7 2.9 30 5.5 20.3 5.7 40.1 13.2 60.2 19.3-5.9 7.6-12.8 14.2-19 21.5-2 2.4-10.3 14.9-11.2 15.4-.6.3-11.6-3-13.9.8-1 1.7-2.6 15.6-2.9 18.8-1.2 11.3 3 13.7-13 10.5-1.5 19.9-1.2 45.2-7.3 64.2-2.4 7.6-15.3 14.4-22.2 18.8-16.6 10.7-35.3 21.2-53.2 29.9-2.4 1.2-6.8 1-3.1 3.4 1.1.7 14 6.1 12.7 7.8-4.8.6-9.7 4.9-14.5 4.8-6.6 0-15.1-5.6-21.8-6.7-13.2 4.5-28 14.3-41.2 17.9-3.1.8-4.5 1.3-7.8.7-8.5-1.4-31.4-12.5-40.4-16.6-8.3-3.8-28.5-12.1-34.7-17.3-3.8-3.2-5.6-12.1-6.6-16.8 1.5-.4 2.3.3 3.6.9 7.6 3.6 16.8 10.9 24.8 15.2 15.9 8.6 33.2 16.6 50.1 22.8 10-4.2 20.3-7.5 30.2-11.8 11.7-5 24.3-13.1 36.1-16.9 17.5-5.8 29.4-10 45.9-19.1 5.5-3 29.2-16.5 31.1-20.9 3-23.1 8.9-47.6 10.2-70.8.3-4.9.8-16.7 0-21-.2-1.2-.3-1.9-1.6-2.4-1-.3-18-1.3-19.8-1.1-23.9 2.9-58.3 26.7-79.5 39.5-24.8 15-49.3 32.6-74.4 46.6-15.4 8.5-38.6 16.1-52 25-3.2 2.1-13.9 14.2-15.3 14.7-2.8 1-8.1-.4-11.3.2l2 2c-2 .4-4 1.7-6 .5-15-13-32.2-23.6-46.4-37.6-2.1-2-7.7-10.5-9.6-11.4-.4-.2-7.8-.5-8.5-.4-1.7.2-18.5 18.8-22.1 21.9-11.2 9.8-24.4 17.5-35.5 27.5-7 .9-11-.9-8-8.5-3.2.6-7.2 1.4-10.3 0-1.2-.5-.8-2.5-1.7-3.5-4.4-5.5-44.3-18.6-54-26-2.2-1.7-2.9-4-4.6-5.4-24.5-21-57.2-47.6-85.8-62.2-24.6-12.5-56.8-16.6-83-25.8-1.3-.7 0-3-2.2-5-6.2-5.1-24.3-13.4-32.3-17.7-2.8-1.4-11.6-3-8-5.9 3-2.3 3-1.2 5.7-5.3 2.5-3.9 11.5-24.8 13.2-25.8l32.3-.3c21.9 12.7 45.2 24.8 66.2 38.8 26.5 17.5 50.2 38.9 77.6 56.4 16.9 10.8 76.4 47.6 93.4 47.7 8.9 0 27.9-4.5 37.1-6.9 2.6-.7 14.2-3.6 15.4-4.6s1.9-9.3 3-11.5c1.8 1.1 1.6 4.3 3.2 6.3.9 1.1 1 2.1 2.8 1.7.3-9.2 13.6-19.1 14.8-26.8 1.1-6.6-2.9-18.5-2.9-25.7 0-13.3 23.8-27.1 30.1-38 .2-1.7-7.6-30.6-8.6-32.4-3.9-7.5-14.3-10.7-19.2-21.8-21.6-49.7-15.4-119.9-18.2-173.8l-3.9-52.3c4.7-1.4 8.6-5.5 13.8-5.2zm195 184c6.9-6.9 12.3-19.7 11.9-29.4-.2-3.6-10.3-22.9-12.8-27.2-10.6-18.7-27.1-40.5-41.7-56.3-3.2-3.4-33.5-33-36.5-30 6.5 19 13.3 38 19.3 57.2 7.4 24.2 12.7 49 20 73 1.8 5.9 8.9 30.3 14.4 31.6 1.1.3 4.9-.4 4.3-2.3 0-.3-4-2.8-5.4-4.6-3.8-4.8-8.2-17.5-7.7-23.4 0-1.2 2.8-8.2 3.7-8.5 7.2-2 6.8 12.4 13.3 14.5 7 2.2 6.6-2.4 9.8-3.4 5.8-1.8 6.7 4.4 7.3 8.8Z" class="shading" fill="#AAAAAA" style="opacity: 0.5"/><path id="shading-eyes2" d="M944 857c-12 12.5-28.8 18.1-42.9 27.6-28.5 19.1-59.8 58.6-76.3 88.7-7 12.8-12.9 22.3-8.1 37.5 2.8 8.8 20.7 32.2 28.4 37.6 15.4 10.9 44.6 22.4 62.6 32.4 10.9 6.1 45.1 24.2 51.9 32.1 11 12.9 19.5 38.4 30.5 52.5l3.9 30.6c-11.1-4.1-13.9-15.1-19.8-23.7-18.8-27.6-31.2-44.4-57.8-65.2-49.4-38.7-98.8-60.1-157.2-81.8-6.1-2.3-27.8-7.2-31-10.5-3.7-3.8 2.8-11.1 5.3-14.7 30-42.5 74.2-80 119.1-105.9 28.3-16.3 59-30.7 91.3-37.2Z" class="shading" fill="#AAAAAA" style="opacity: 0.5"/><path id="shading-eyes3" d="M1142 979c-2.3 6.1 1.4 14.8 8.8 11.2 3.7-1.8 1.7-6.3 6.2-5.3 0 7.2 5.6 15.4-1.5 21-10.3 8.2-22.1-5.1-22.6-15.6-.2-4.7 3.2-13.4 9-11.5v.2Z" class="shading" fill="#AAAAAA" style="opacity: 0.5"/><path id="shading-eyes4" d="M947 856c.7.3-.6 1.7-2 1-.7-.3.6-1.7 2-1" class="shading" fill="#AAAAAA" style="opacity: 0.5"/></g><g id="outline"><path id="outline-eyes" d="M694 1151c-.2 1.5 1.1 5.7-1.5 5-6.5-1.9-15.5-9.2-22.6-11.4-6.1-2-16.8-1-21-3-4.5-2.2-4.2-10.7-3.9-14.9 2.7-30 21.3-76 37.5-101.5 4.4-7 19.4-29.5 26.4-31.7 3.4-1.1 5.6 2.8 8 1.2.5-.3 4.6-7.4 6-9 38.5-46.1 83.9-85.9 136.7-115.3 39.2-21.8 83.5-28.2 127.8-32.2 2.8-.3 19.7-.3 20.5-1.1s.9-6.7 4-8.4c2-1.1 19.7-.7 23.5-.5 100.4 4.5 194.6 55.2 263 127 9.5 10 17.4 22.3 27.8 30.8 3.6-1 11.1-6.3 14.2-3.9 26.1 40.1 56.3 78.7 74.6 123.4 2.2 5.4 6.8 14.5 5.8 20.1-6.7 13.2-18.3 24.2-20.1 39.4-9 .8-17.9-1.3-26.9-1.9l-13.5 126c-32.4 14.9-66.4 25.2-100 37-14.8 5.2-52.9 22.5-66 22.1-12.2-.4-33.9-5-46.7-7.3-12.3-2.3-18.4-3.7-25.6-14.4-8.6-12.8-15.1-29-23.3-42.2-5.1 1.8-13-1-17.6-3.8-3.6-2.2-24.4-20.7-26.3-23.7-.7-1-.6-1.6-.9-2.5-1.8-5.7-.4-11.7-1-17.5-2.4-22.4-8.7-46.9-10-69-.4-7.8.5-9.9 6-15 7.5-7 19.3-13 26.4-19.6 3.6-3.4-2.7-8.9-5.4-12.3-5.5-7-38-38.5-38.8-41.2-1.5-5.6-1.5-14-2.7-20.3-2.6-13.2-8.5-28.7-9.5-41.5-4-52 3.2-102.7-7.3-155.7-1.6-8.1-1.2-9.1-10.2-9.8-46.5-4-124.2 27.9-163.5 52.6-25.8 16.2-80.6 62.1-92.9 89.1-1.3 2.9-5.3 10.6-3.2 12.9 9.5 5.1 19.6 10.4 28.3 16.7 2.2 1.6 8.2 5.7 9.6 7.4.8.9 1.8 2.7 1 3.4s-17.2-4.5-20.5-5c-8.9-1.4-25.2-3.1-34-3.1s-10.6.8-11.8 1.2c-2.5.8-23.9 40.1-26.5 45.5-4 8.2-10.4 21.4-13.2 29.8-1.9 6-1.8 11.1-2.9 17.1.2 3.5 6.5 4.2 9.3 5.6 2.5 1.2 13.3 6.2 14.2 7.8 2 4.2-.8 13.2-1.5 18zm525-76c-.9-1.2-24-8.8-28.3-11.2s-6.4-5.1-8.6-9.4c-17-55.2-33.2-111.9-54.3-165.7-1.9-4.8-10.1-26.3-12.3-28.7-4.6-4.9-45.4-11.2-54-12-7.6-.7-18.6-1.7-26-1-4.7.4-9.7 0-9.5 5.5.4 9.7 3.2 21.1 4 31 4 45.7 4.3 91.9 6.2 137.8 7.6 12.2 9.7 40.6 16.7 51 .7 1.1 4.9 3.8 6.6 5.7 6.5 7.4 13.4 14.8 19.5 22.5 6.9 8.8 21.5 24.3 12.5 35.4-6.6 8.1-24.3 16.3-30.4 25.6-4.5 6.7.6 8.6 2.8 14.3 4.9 13 8.9 38.6 11.1 52.9.6 4.3.8 17.4 2.1 19.6.6 1 17.7 14.2 18.8 14.5 5.1 1.5 30.1-12.1 36.3-15.3 36.6-19.3 71.6-42.9 106.7-64.8 2.4-2.9 4.8-25 5.3-30.2 1.2-12.3 3.9-40.7.5-51.5-.5-1.5-5.5-11.9-6.2-12-6.3-1.5-12.9 2.8-18.3 5.5-43 21.8-85.4 49.2-128.2 71.8-6.2 2.3-12.5-.7-18.7-.2-.7-2.3.6-1.7 1.3-2.3 6.7-5.9 13.4-8.7 20.6-13.3 40-25.6 80.3-50.6 122.4-72.6 1.1-.4 2.3-1.9 1.7-2.8h-.3Zm85-78c-2.7-8.3-8.3-16-14-22.5-28.9-33.2-70.8-66.5-109.3-87.7-15.9-8.7-33.1-17.6-50.7-22.3 29.9 57.7 44.6 121.4 62.5 183.5 4.7 10.6 31.8 18.9 42.8 19.8 26.6-15.1 56-27.5 82.4-42.7 4-2.3 9.1-5.2 12.6-8.2 1.8-1.5 3.2-6.4 5.2-2 3.2 7 1.9 18.7-3.6 24.4-7.1 7.3-44.9 22.7-56.9 29.1-2.3 1.2-15.6 8.2-15.9 9.2 1.9 30.7 1 61.8-2.1 92.3 27.8-13.6 53.1-37.7 84.5-42.1 16.2 1 31.4 6.8 46.5 12.1.3-7.3 7-15 5.5-22-1.7-7.9-11.7-26.9-15.7-35.4-12.3-25.9-26.6-50.8-39.8-76.2l-5.3-.3c-32.3 10.2-64.4 22.1-97.7 28.8l10.1-7.4c19.2-11.1 39-21 58.9-30.6zm58 164c-2.7 1.1-8.9-2.4-9.8.7-1 3.3.2 10.7-.2 14.8-2 24.8-8.2 51.2-13.5 75.5l-42.8 27.2-45.7 24.8c8.7 1.2 16.8 6 25.2 6.8 20.5-8.8 45.8-14.6 65.4-24.6 3.5-1.8 9.5-5.7 10.3-9.7 6.5-34.8 8.8-73.6 10-109 0-2.2 1-4.2 1-6.4Zm-140 61-66.3 32.1c-4.8 3.5 5.7 11.7 9.1 13.7 32.1 19 64.9-12.6 57.3-45.8Zm32 95c-6.4.6-15.9-6.2-21.4-6-6.7.3-23.7 9.9-31.3 11.7-6.8 1.4-17.5-3.8-24-6.6-20.2-8.8-40.2-20.7-58.3-33.2-1 1.2 8.7 14.2 10.2 16.3 6.7 9.4 14.7 22.2 25.5 26.5 13 5.1 28.9 6.8 42.5 10 17.4-7.1 37.5-10.1 54.7-17.3.9-.4 2.3 0 2-1.5h.1Z" class="outline" fill="#000000"/><path id="outline-eyes1" d="M705 1158c1-5.3 1.9-10.6 2-16 9.4.4 18.7 3.2 27.8 5.7 34.2 9.8 65.4 23.1 94.5 43.4 33.8 23.6 55.2 53.4 99.3 57.7 21.2 2 43.4-9.1 63.4-14.9.7 2.6-.9 1.8-1.9 2.6-5.2 4.6-17.8 12.9-19.7 19.3-1 3.5-2.2 17.5 3.5 18-.2.4 0 2-.9 3.5-1.2 1.9-12.3 12.9-14.1 13.9s-15.2 3.3-15.9 2.6c-.6-.9 4.6-11.1.5-10-4.8 1.3-14.1 8.4-18.4 11.6-7.9 5.9-18.1 18.3-26.9 20.1-20.8 4.2-78.1 1.4-97.9-6.6-9.2-3.7-23.3-10.2-32-14.9-.8-.5-2.9-.9-1.3-2.2 1-.8 21.5.6 24.4 1.1 5.2.8 9.5 3.6 14.3 4.7 1 .2 4.4 1.1 4.2-.8-5.2-1.1-9.9-4.1-15-5.5-13-3.8-37.7-5-48-11.1-2.1-1.3-22.7-23-25.6-26.4-7.2-8.4-10.3-14.7-13.8-25.2s-9.4-28.8-10.7-37.3c-.3-2.3 0-4.6 0-6.9.7-5.3 9.8 9.8 10.4 10.6.4.5 1.1 3.7 2.6 1.9 1.7-2-9.5-16.9-9.8-18.7-.2-1 4.1-17 4.8-20.3h.2Z" class="outline" fill="#000000"/><path id="outline-eyes2" d="M998 1255c4.5-10.4 11.6-17.2 15.8-27.7 2.7-6.7 5.3-14.1 3.2-21.3 6.2 2.2 8.8 2.2 15 0-3.5 18.2 9.9 32.8 19 47-.8 1.5-5.8 7.1-7 6-1.1-5.5-8.1-8-12-12.5-1.9-2.2-4.8-9-5.2-9.3-1.2-1-4.2-.5-5.2 1.1-2 3.3-2.8 6.2-5.7 9.3-3.5 3.7-10.7 6.2-11 11.5-3 .3-3.7-3.9-7-4Z" class="outline" fill="#000000"/><path id="outline-eyes3" d="M980 1183c-2.2.5-2.2-1.3-3.2-2.3-13.6-13.8-22.1-33.7-33.8-46.2-23.2-24.9-61-45.4-87.9-66.1-1.2-.9-9.5-7-8.1-8.4 15.8 4.1 28.3 15.3 42.3 23.2 19.3 10.8 39.8 20.1 59.2 30.8 9.5 6.9 23.8 45.3 28.2 57.8.6 1.7 3.9 10.5 3.2 11.2Z" class="outline" fill="#000000"/><path id="outline-eyes4" d="M1216.7 1113.2c6.1-1 9.7.5 14.3 4.2 18 14.8 2.6 48.1-19.6 38.6-17.6-7.6-14.6-39.6 5.3-42.8m-1 8c-14.9 3.4-8.4 33.6 7.2 25.2 11.5-6.2 8.7-28.9-7.2-25.2" class="outline" fill="#000000"/><path id="outline-eyes5" d="M1136.3 1000.7c-14.9-14.9 1.8-40 16.7-24.2 13.9 14.6-2.2 38.7-16.7 24.2m6.4-21.5c-8.4 1.8-7.5 12.9.6 16 12.4 4.8 10.1-18.3-.6-16" class="outline" fill="#000000"/><path id="outline-eyes6" d="M1280.8 1074.2c24.7-2 29.2 45.9-1.2 41.7-21.3-2.9-20.8-39.9 1.2-41.7m-2.1 9c-10.3 2.3-6.2 24 4.8 24.8 16.4 1.2 11.3-28.5-4.8-24.8" class="outline" fill="#000000"/><path id="outline-eyes7" d="M1196.7 996.2c10.9-2.2 19.5 4 24.1 13.4 6.5 13.2 3.8 26.2-13.3 24.3s-29.1-34-10.8-37.8Zm13 13.1c-2.6-2.6-9.2-5.1-12.2-2.4-4.4 4 4.4 19.2 10.1 20 10.2 1.4 7.1-12.7 2.1-17.7Z" class="outline" fill="#000000"/></g></svg>