<?xml version="1.0" encoding="UTF-8"?>
<svg xmlns="http://www.w3.org/2000/svg" id="head-beanie" version="1.1" viewBox="0 0 2048 2048"><path id="fill-head" fill="#ffffff" d="M1437.8 997.2c1.5 10.8 6.9 23.4 7.3 34.2.8 24.7-7.3 53.7-7 79 4.1 17.6 17.2 38.4 20.4 55.5 1.8 9.5-2.1 8.7-9.3 11.8-36.2 15.4-75.3 27.4-112 42l-247.8 31.2c-46.9.5-94.5 3.1-141.1-1.8-79.7-8.4-159-20.8-238.6-29.4L593 1175.4c-2.4-.8-4.1-2.8-4.8-5.2l21.8-60.9c-1-23-5.6-46.1-6.9-68.9-.9-15.1 4-28.8 7.2-43.2l35.2-12.3 140.9-201.6 237.4-102.1L1261.6 784l140.5 200.5 35.8 12.7z" class="fill" data-original-prefix="fill"/><path id="shading-head2" fill="#aaaaaa" d="M1445 1131c1.4 0 1.6 1.5 2 2.4 5 11 7.3 23.4 12.8 34.3.4 2.3-.4 4.9-1.8 6.7l-118 45-251.5 31.5c-127.5 8.3-252.8-17.6-379-31.1l-117.6-44.4c-2.7-.9-4-3.3-4-6l13-37.5c2.2-2.1 8.8 12.9 10 14.2 4.1 4.8 17.7 7.8 23 5.3 2.8-1.4 9.9-20.3 10.7-24.3 1.7-7.9 4.8-65.4 9.8-66.3 2-.3 6.8 2.8 7.2 4.7-1.2 9.6-3.1 19.3-3.8 28.9-1.4 20-1.9 59.6 7.8 77.2 4.1 7.4 25.4 16.1 33.6 15.3 4.3-.4 11.1-7 13.4-10.7 3.9-6.3 12.4-35 14-43 3.1-16.3.8-43 6.3-57.7 1.4-3.8 8.3-9 11-12.5-.7 5.9-2.2 11.7-2.9 17.6-3 26.8-2.7 57.8-1.2 84.9.3 4.8 1.1 14.2 2.5 18.4 3.1 8.8 16.9 15.6 25.2 18.8 31.8 12.2 67.1 10.4 73.2-29.4 4.2-27.3 4.2-57.3 7.1-84.9 0-.8.8-4.7 1.5-4.5l12.3 8.6c-.4 4.7-1.7 10.3-1.9 14.9-1 27.3-.9 73.8 5.3 99.8 2 8.5 6.2 11.3 14.3 13.7 8.7 2.6 38.3 6.9 46.8 5.9 11.9-1.3 15.8-6.3 20.1-16.9 4.5-11.4 7.5-37.7 8.5-50.5.4-4.7-1.5-28.5 2.6-29.5 1.2-.3 8.5 4.9 10.5 5.7 0 18.3 4.2 36 6.8 54 2.2 14.9-1 29.1 16.1 36.9 10.9 5 50.9 5.2 62.3 1.3 20.9-7.2 17.3-21.9 19.8-39.2s6.8-35 6.8-53c2.1-.9 8.9-6 10.5-5.6 4.2.9 2.2 25.6 2.6 30.4 1.1 13.9 4.1 40.9 10 53 4.2 8.7 7.9 12 17.8 13.2 8.9 1.1 46.4-4.1 54.1-8.4 3.6-2 5.1-3.4 6.6-7.4 2.8-7.5 5.1-29.8 5.6-38.4.6-11.4.9-23.6 1-35 .2-15 .2-30-1.9-44.9.6-2.4 10.2-6.4 12.4-8.7.9 1.4 1.3 3.8 1.5 5.5 2.5 27.3 2.8 58.1 7.1 84.9 6.3 39.2 42.9 40.3 73.9 28.1 12-4.7 24.2-11.2 25.9-25.1 2.7-22 2.2-51.8 1.1-73.9-.7-13.3-1-26.4-4-39.5l9 8.5c6.5 9.2 5.7 47.2 8.2 60.8 1.7 9.2 11.3 41.9 17.2 47.8 1.9 1.9 8.5 6 11 6 9.3 0 29.3-8 33.3-16.8 10.1-21.8 8.2-60.9 6.2-84.8-.4-5.2-3.1-14.7-2.9-19.1 0-2.6 4.4-5.1 6.4-6.4 11.6 25 4.3 54.3 15 80 3.9 9.3 4.2 12.7 15 12.1 14.6-.8 16.6-9.7 22.5-21h.3Z" class="outline shading" data-original-prefix="shading" opacity=".2" style="opacity: 0.5"/><path id="shading-head1" fill="#aaaaaa" d="M725 872c-4.2 11.7-10.6 23.8-16.8 34.7-11.1 19.3-26.7 35.9-30 58.7 13.6 16.9 36.4 22.8 56.6 28.3 44.4 12.1 85.4 14.8 130.7 19.3 31.2 3.1 60.2 7.8 92 7 14.2-.4 29.8-3 43.9-3.1 47.7-.3 95.4 5.3 143 1 49.8-4.5 105.1-9.1 153.5-20.5 16.5-3.9 61.4-15.2 70-30 2.1-3.5-.7-12.9-2.3-16.8-6.1-14.7-19.9-32.4-27.9-47.1-5.7-10.4-11.2-21.6-15.3-32.7 21.9 30.7 44.6 61 65.7 92.3 2.3 3.4 10.2 13.9 11.2 16.8 1.1 3.2-.8 15.4-3.1 16.8-44.6 13.7-90.6 23.3-137 29-34.2 4.2-68.6 5.7-102.9 9.1-23.4 2.4-64.2 11.7-85.9 8.9-23.6-3-40.1-6.2-65.1-4.9-13 .7-25.8 5.4-38 5-28-.9-57.9-7.2-86-10-75.5-7.5-150.5-11.2-223.5-34.5-10.8-3.5-8-7.3-10.8-17.2 19.7-29 39.6-58 60-86.6 5.7-8 11.4-16.2 17.8-23.7z" class="outline shading" data-original-prefix="shading" opacity=".2" style="opacity: 0.5"/><path id="outline-head" fill="#000000" d="M1419 977c.3.3 5.4-.9 8-.6 8.8 1.1 22.6 9.4 26.8 17.2 9.9 18.3-.8 66.7-1.8 88.9-1.4 28.6 11.8 44.2 14.7 70.3 4.2 36.4-21.6 42.9-50.2 53.2-5.9 2.1-13.7 3.2-18.8 5.2-2.3.9-7.4 5.6-10.7 7.3-12.6 6.5-41.4 13.3-55.5 13.5-7.8 0-16-3.1-23.9-2-4.7.7-11.8 4.4-17.2 5.8-20.1 5.4-49.4 12.5-69.9 13.1-5.7.2-12-1.3-16.9-1-9.1.7-21.7 7.2-31.6 9.5-20.7 4.7-48.5 6.7-69.5 4.4-7.1-.7-17.7-4.7-23.1-4.9-3.9-.2-16.5 4.5-22.9 5-10.4.8-21.1-1.1-31-1.1s-22.6 1.9-34.1 1.1c-6.4-.5-19-5.2-22.9-5-5.4.2-16 4.2-23.1 4.9-21.2 2.2-48.7.2-69.5-4.5-10.1-2.3-23.2-9-32.7-9.4-4.7-.2-10.4 1.1-15.9 1-20.5-.7-49.7-7.8-69.9-13.1-5.3-1.4-12.5-5.2-17.2-5.8-8.2-1.2-16.6 2.1-24.9 1.9-15.4-.4-42.9-7.1-56.5-14.5-3-1.6-6.7-5.5-8.7-6.3-5.9-2.3-15-3.8-21.8-6.2-32.7-12-53.5-18.7-46-59 4.2-22.9 14.6-36.9 13.5-61.5-1-23.3-11.2-67.8-3.2-88.2 4.5-11.5 23.9-22.8 36.2-19.3 3.2-19.5 15.7-35.6 29-49.5 8.2-8.6 19.3-16.5 26.4-25.6 12.4-15.7 22.3-42.7 34.2-60.8 34.8-53.2 95-94.9 154.2-116.8 15.7-5.8 31.4-9 47-14 28.4-9 54.3-34.1 84.2-40.8 44.7-10 71.2 15.1 107.3 33.7 18 9.2 40 12.6 59.4 19.6 66.6 23.8 128.4 67.8 165 129 9.4 15.7 17.9 38.5 29.2 51.8 16.3 19.3 37.1 31 48.2 55.8 1.4 3.2 5.1 17 5.8 17.7zm-397.2-285.7c-42.5.9-56.7 31.7-92 43-76 24.3-154.6 67.7-196.9 138.1-4.3 7.2-7.6 15.4-12.4 22.6-12.9 19.2-31.5 36.4-44.4 55.6-3.2 4.8-17 28.9-17 33s4.8 3 8.5 3.6c18.8 3.1 37.2 9.2 55.4 14.6 5.2 1.5 12.2 5.3 17 6 8.8 1.4 19.5-1 28.8-.8 21.8.4 45.2 5.8 66.5 10.5 10.8 2.4 12 3.6 23.5 3.5 28.2-.2 58 1 85.8 5.3 3.7.6 10.1 3.5 13.1 3.4 6.8 0 20-6 29.2-6.7 22.8-1.7 53.1-1.8 75.9 0 8 .7 23.7 6.9 29 6.6 2.7-.2 8.6-2.8 12.5-3.4 27.8-4.5 57.6-5.6 85.7-5.4 12.7 0 16.2-2 28.3-4.7 20.1-4.3 42.1-9.1 62.6-9.4 8.6 0 17.7 1.9 25.9.9 14-1.6 38.8-12.8 54.4-16.6 9.2-2.3 18.4-3.9 27.8-5.2 1.4-1.9-.6-5.8-1.4-7.7-12.1-31.4-39.1-54.1-58-81-8.2-11.6-13.4-24.9-21.4-36.6-35.5-52.3-111.6-102-171.3-121.7-23.3-7.7-27.2-5.8-48.1-20.9-21.1-15.2-39.1-27.4-66.7-26.8h-.3zm-401.1 312.9c-6.3 1.3-8.2 6.6-8.7 12.3-2.9 28.7 7.5 63.2 5 92-1 12-7.7 25-8.9 37.1-.7 7.1 0 22.3 4.9 27.9 2.5 2.9 19.8 12.7 23.5 12.4 5.9-.4 11-13.4 11.5-18.5 4.5-44.7 3-90 4-135-1.3-6.8-2.3-20.4-8-25-4.2-3.3-18.1-4.4-23.2-3.3Zm793.1.1c-14.7 2-16.1 13.6-17.6 26.4-2 16.7.6 32.4.9 48.8.5 30.3-.5 58.7 3.1 88.9.6 5.1 5.7 17.2 11.4 17.6 3.3.2 21.2-9.8 23.5-12.4 2.7-3.1 4.7-12.8 5-17 1.3-17.1-7.7-32-9.1-48-1.7-19.7 2.9-41.3 4-61.1.5-8.2 1.8-23.3.9-30.9-1.7-13.5-10.3-14-22.1-12.3m-741.1 11.9c-4.3 1.3-6.4 17.2-7.2 21.8-7.2 38.6-13.1 103.3-6.2 141.3 1.3 7.5 8.2 17.7 15.1 20.9s29 7.2 36.2 5.8c2.5-.5 7.8-6.3 8.3-8.7 2.5-11.1 1.9-27.6 3.3-39.7 2.6-21.6 7.8-43.9 9.9-65.1 1.2-11.8-.3-20.5-1-32-.6-10.2 2.1-18.7-4.2-27.8-7.2-10.5-16.8-7.2-27.1-8.9-7.2-1.2-20.4-9.6-27-7.6Zm697.1 0c-6.7 1-15 6.5-21.5 7.5-10.6 1.7-20.4-1.4-27.7 9.3-6.1 8.9-3 17.7-3.6 27.4-.7 12.4-2.3 20-1 33 3.6 34.2 12.5 68.9 13.2 103.8 5.1 12 15.4 9 26 7.4 18.3-2.8 29.7-7.7 33.7-27.3 6.6-31.9 1-83.7-2.9-116.9-1.1-9.6-4-32.4-7.5-40.5-1.7-4-4.7-4.4-8.8-3.8h.1Zm-619.5 20.1c-5.9 6-4 16.1-5.6 23.9-6.6 32.2-7 58.6-8.8 91.2-.6 11.5-3.5 20.7-1.5 32.6.5 2.9 2.1 5.8 2.5 8.5.6 4.7-1.8 12.1 2.8 14.2 22.2 10.1 62.6 17.3 86.8 15.3 4.1-.3 9.2-.8 11-5 2.3-5.4 6.4-20.6 7.3-26.7 2-12.4.5-24.2 1-35.9 1.7-33 9.7-70.4-1.7-102.2-.3-1-5.2-10-5.7-10.3-2.2-1.7-10.2-3.2-13.3-3.7-17.7-2.9-43.5-4.6-61.7-5.3-4.8-.2-9.6-.3-13.2 3.4zm532.5-3c-16.9.6-52.2 2.2-67.4 6.6-7.2 2.1-9.5 5.9-11.9 13.1-10 30.5-4.2 55.8-2.5 86.5.9 17.3-.9 36.4 2.4 53.6 1.1 5.5 4.8 19.2 6.8 24.2 1.3 3.3 7.1 4.4 10.3 4.7 22 2.2 50.2-3.1 71.2-9.7 3.7-1.2 14.6-4.4 17.2-5.8 3.6-2 1.6-10.7 2.1-14.9 1-8.3 3.4-12.1 3-22.1-1.4-35.2-3.7-75.2-10.7-109.3-1.4-6.6-.4-15.3-3.4-20.6-4.5-7.7-9.5-6.6-17.1-6.3m-286 10c-4.1.4-14.5 2.1-17.8 4.2-.5.3-7.8 8.4-8.1 8.9-5.6 9.8-6.4 38.6-6 50.1 1.1 32.7 2.8 65.4 5 98 .8 10.9-3.1 22.4 6.5 30.5 5.7 4.8 11.7 3.2 18 4 21.7 2.7 45.2 3.1 66.9 0 20.3-3 15.2-21.2 16.6-36.4 3-32.2 3.8-64.7 5-97 .5-12.9-.6-35.8-5.3-47.8-.2-.6-8.2-9.8-8.8-10.2-10.3-6.9-31.9-3.5-43.4-3.5s-18.5-1.7-28.8-.8zm-38 15.9c-18.6-11.4-40.8-14-62.4-13.2-6.5.2-17.8.8-23.9 2.1-7.8 1.6-10 10.7-10.5 17.4-1.3 15 .7 31.8 0 47-1 21.5-5 43.4-5.1 64.9 0 10.7 2.8 21.9 3 32.1 0 5.9-4.1 14.9 2.6 19.4 13.6 2.5 27.3 5.5 41 7 11.7 1.3 37.1 3.5 47.6-.2 1.8-.6 3.2-1 4-3l3.6-173.6h.1Zm130.4 0 3.3 173.8c1 1.6 2.6 2.2 4.3 2.7 11.2 3.7 35.4 1.5 47.6.2 13.7-1.5 27.4-4.5 41-7 6.6-3.6 2.5-14.5 2.5-20.4 0-8.4 3.1-19.2 3.2-28 .2-21.5-4.1-43.5-5.1-65-.7-15.7 1.1-32.5 0-48-.4-6.3-2.3-17.5-9.8-19.2-5.4-1.3-16.9-2-22.8-2.2-22.1-1-45.4 1.3-64.4 13.2h.2Z" class="outline" data-original-prefix="outline"/></svg>