<?xml version="1.0" encoding="UTF-8"?>
<svg xmlns="http://www.w3.org/2000/svg" id="background" version="1.1" viewBox="0 0 2048 2048" class="background">
  <defs>
    <radialGradient id="glow-gradient" cx="50%" cy="50%" r="70%" fx="50%" fy="50%">
      <stop offset="0%" style="stop-color:#FFFFFF;stop-opacity:0.4"/>
      <stop offset="60%" style="stop-color:#FFFFFF;stop-opacity:0.1"/>
      <stop offset="100%" style="stop-color:#FFFFFF;stop-opacity:0"/>
    </radialGradient>
  </defs>
  
  <!-- Base color layer -->
  <rect id="color-bg" width="2048" height="2048" fill="#080808"/>
  
  <!-- Radial gradient glow -->
  <rect id="gradient-glow" width="2048" height="2048" fill="url(#glow-gradient)"/>
  
  <!-- Camo pattern overlay -->
  <g id="pattern-overlay" fill-opacity="0.4">
    <path class="pattern" d="M0,0h315.78c14.04,61.62,79.15,36.25,114.65,0h711.12c24.42,18.03-1.83,59.1-5.26,61.72-69.36,53.05-127.91-47.51-172.28,73.55,0,11.2,1.33,19.8-12.18,24.5-89.21,31.04-44.04-110.8-109.17-75.76-58.46,31.45-37.33-24.16-123.23-17.52-81.31,6.28-104.86,17.09-142.85,73.16-19.74,29.14-46.51,15.46-51.56,7.04-24.8-41.33-107.01-56.36-156.42-57.59-74.37-1.85-103.54-7.1-103.54,44.3,0,47.71-25.02,89.75-14.61,111.53,74.97,156.81-53.4,132.59-88.72,74.85-50.14-81.97-59.46-16.2-74.24-146.12-4.89-43-1.08-91.39-36.95-110.75C27.37,50.38,14.87,100.27,0,118.06V0h0ZM1447.86,0h77.04c7.83,22.3,29.46,44.12,57.06,56.82,17.99,8.28,24.95,70.64,44.13,114.84,15.26,35.16,38.26,58.83,80.7,34.63,36.13-20.6,129.32-7.57,20.11,58.52-71.29,43.14,32.78,67.67-34.93,167.51-40.27,59.38-48.88,167.05,54.97,167.05,92.67,0,108.86,23.39,103.95,122.15-3.48,70.14-98.95,22.43-131.3-27.71-33.98-52.67-58.16-74.24-93.5-80.83-24.29-4.53-53.85-1.98-95.48,2.42-2.81.3-14.02,5.92-18.65,11.07-21.83,24.29-123.29-116.5-27.69-116.5,120.78,0,111.53-138.05,3.34-81.98-65.3,33.84-98.88-92.24-55.39-102.95,58.89-14.51,10-23.61,72.02-64.1,33.91-22.14,80.38,40.32,121.86,35.03,20.06-2.56,32.12-17.79,24.27-58.33-2.73-14.09-11.5-25.16-24.27-33.56-50.07-32.92-161.65-24.67-211.76,4.68-27.54,16.13-78.89,31.1-106.17,17.96-7.18-3.46-4.26-17.71-10.53-22.24-110.06-79.37,174.81-25.81,107.17-106.96-9.44-11.33-22.06-.04-31.51-5.77-20.07-12.17-25.62-28.44,14.04-56.59,21.81-15.48,28.16,8.13,43.22.66,14.62-7.24,20.42-20.89,17.31-35.84h0ZM1676.04,0h111.67c43.68,18.01,135.93,43.73,172.86,9.47,3.43-3.18,5.75-6.34,7.18-9.47h80.25v118.06c-2.38,2.85-4.82,4.88-7.38,5.69-35.6,11.34-70.41-26.03-111.09-40.73-171.54-61.98-117.92,36.21-152.45,34.59-109.83-5.13-136.03-82.45-101.04-117.62h0ZM2048,350.98v226.6c-118.19-44.56-181.33,39.66-181.33-119.82,0-33.98,27.19-9.59,82.19-48.07,40.81-28.55,73.15-47.36,99.13-58.71h0ZM2048,953.88v276.59c-45.76-4.32-74.49-9.1-104.83-43.52-8.28-9.4-36.04,11.61-43.17-5.8-21.72-52.99,106.35-73.51-22.77-176.73-.18-.15-36.31-37.1-38.38-39.79-61.44-17.31-158.84-37.51-146.97-140.89,6.29-54.78,87.66,25.18,114.29,12.39,61.05-29.34,169.92-14.86,203.64,61.62,11.42,25.91,24.24,43.6,38.19,56.13h0ZM2048,1858.79v189.21h-80.25c24.25-53.05-219.74-99.51-127.55-152.81,56.17-32.47,176-37.64,203.35-36.62,1.04.04,2.56.12,4.46.22h0ZM1787.71,2048h-111.67c18.62-18.71,54.55-25.5,104.45-3.1,2.22,1,4.64,2.04,7.22,3.1h0ZM1524.91,2048h-77.04c-6.16-29.65-47.39-64.4-124.61-64.4-86.69,0-67.25-127.34-35.56-127.34,118.3,0,68.94-12,126.41-148.7,4.69-11.16,28.54-14.4,34.54-27.41,18.72-40.61,86.21,124.03,177.45-60.96,4.91-9.96,9.89-20.94,14.94-33.01,37.05-88.65,154.61-123.64,221.07-117.41,42.31,3.97,66.45,31.49,27.73,50.39-18.38,8.97-22.58,34.7-34.24,58.29-10.89,22.01-38.77,31.47-92.59,48.05-93.52,28.81-2.82,103.96-43.96,158-14.2,18.65,3.36,64.63-72.52,64.63-8.07,0-14.81.5-20.44,1.45-62.53,10.61,12.1,77.58-83.03,143.3-21.07,14.56-25.21,35.03-18.16,55.11h0ZM1141.56,2048H430.44c2.09-2.13,4.07-4.3,5.94-6.49,167.84-197.01,187.63-19.47,238.6-17.65,227.85,8.11,128.87-99.66,198.52-119.74,38.84-11.2-18.69-108.98,37.57-110.94,193.06-6.72,13.36,129.73,13.99,152.38,2.79,101.1,101.91,94.07,181.82,94.07,16.76,0,27.76,3.26,34.69,8.38h0ZM315.78,2048H0v-189.21c13.84.76,47.38,3.04,54.19,3.14,240.96,3.45,18.1-45.4,120.47-80.74,12.85-4.43,3.11-16.75,8.52-21.53,27.7-24.5,6-44.41,26.29-87.14,9.28-19.54,121.14-15.24,143.9-9.32,144.06,37.52-87.23,116.27-40.43,166.45,57.41,61.54,4.84,142.84,2.85,156.63-3.82,26.48-3.43,46.68,0,61.71h0Z" fill="#FFFFFF"/>
    <path class="pattern" d="M180.3,0h424.55c-42.85,32.09,4.07,90.58-22.61,138.05-38.84,69.11,90.22,103.82,135.13-12.24,32.57-84.16,179.04-68.48,142.71,8.77-18.09,38.46-81.05-3.44-77.51,95.92,4.77,134.03-233.95-3.94-226.91,285.39,3.55,145.78,174.9-76.08,211.67,114.28,14.2,73.53,149.16-49.29,191.98,109.17,30.03,111.14-141.73-20.59-222.59,18.18-124.71,59.8-72.89-102.04-225.51-102.04-178.54,0-141.15,49.02-225.65,63.4-108.24,18.42-238.91-137.24-92.75-130.54,61.78,2.83-29.93-142.36,82.38-114.01,144.78,36.54,28.43-52.84,142.09-117.57,144.8-82.47-51.07-167.83-229.34-81.21-98.98,48.1-126.05,6.85-187.92-17.78V97.05c52.86,21.12,100.12,46.18,109.43,36.97,91.34-90.36,27.67-28.75,123.37-43.94,20.74-3.29,18.82-3.24-9.89-29.36-5.15-4.69-2.55-34.39-10.65-38.82-15.49-8.47-25.77-15.66-31.95-21.9h0ZM1229.89,0h114.21c-31.49,27.52-76.68,22.81-114.21,0h0ZM2048,97.05v160.7c-39.49-15.72-93.14-24.67-188.72.7-21.02,5.58-112.27,10.99-70.28-52.16,46.2-69.49,45.29,64.19,97.48-94.64,20.15-61.33,95.24-41.07,161.52-14.59h0ZM2048,1063.49v119.34c-15.78,11.47-26.46,26.85-22.38,51.44,25.02,150.99-58.83,86.58-68.4,124.24-21.67,85.36,82.39,110.72,90.78,118.86v166.68c-29.06,6.73-56.74,7.37-81.67-11.04-20.87-15.42-42.94-25.81-64.14-30.04-13.94-2.78-27.49-2.88-40.08,0-34.18,7.83-61.22,37.73-69.31,96.22-12.09,87.46-103.76,105.94-1.18,166.82,89.14,52.9,25.92,148.51-69.58,81.51-145.82-102.3-92.64,35.3-145.77-4.95-133.97-101.5,59.9-119.84,46.69-167.98-30.44-110.87,6.51-133.99,104.86-146.3,53.67-6.72,79.42-15.5,91.46-25.31,26.07-21.24-12.05-47.34,29.96-67.96,77.82-38.2,11.69-66.95-6.68-58.21-111.48,53.02-100.06,52.77-100.06-57.36,0-39.94,73.93-26.9,83.43-23.22,109.99,42.54,72.43-12.12,72.43-89.41,0-46.76,83.23-104.12-6.68-104.12-64.97,0-78.57-56.31-26.2-85.34,31.2-17.3,49.05,7.36,55,8.79,39.6,9.48,89.37,2.38,109.1-37.81,5.57-11.35,11.8-19.55,18.42-24.83h0ZM2048,1782.62v87.9c-1.32.2-2.46.3-3.09.09-22.81-7.64-176.63-47.54-96.36-104.25,63.28-44.71,40.7,28.33,99.45,16.26h0ZM1344.1,2048h-114.21c-10.33-6.28-20.07-13.92-28.79-22.65-85.97-86.01-328.43,110.43-328.43-120.95,0-75.24-218.27-96.47-236.23-68.52-97.25,151.34,25.54,3.44-196.08,80.76-50.08,17.47-37.7,150.86,101.87,126.07,43.31-7.69,19.24-60.89,89.34-64.77,12.49-.69,10.17-37.13,19.48-43.44,24.99-62.83,135.68,62.59-9.95,98.07-16.27,3.96-27.94,9.2-36.25,15.43H180.3c-45.22-45.67,130.8-40.71,129.8-114-1.14-83.99-69.69-62.85-145.68-52.83-56.06,7.39-115.9-1.15-157.13-11.56-1.32-.33-4.66.51-7.3.92v-87.9c13.08-2.69,30.16-9.57,53.14-22.93,95.27-55.38,208.01,125.28,286.4,41.11,61.64-66.19,127.17-66.96,191.98-25.4,80.39,51.56,264.74-169.99,258.57-72.72-1.3,20.53-25.71,76.74,48.29,76.74,176.83,0,98.55-110.27,251.26,13.89,47.77,38.84-145.9,118.62,192.18,158.22,14.51,1.7,67.06,2.09,108.09,8.12,32.91,4.84,59.49,7.75,44.92,59.57-11.7,41.63-52.45-12.36-84.19,22.38-2.1,2.3-4.28,4.42-6.53,6.38h0ZM0,1644.05v-166.68c.27.26.45.51.51.74,52.77,191.52,95.3,26.63,154.68,25.08,104.41-2.72-3.01,60.38,40.15,92.35,3.54,2.63,6.69,5.1,9.47,7.43,49.48,41.45-16.64,37.57-23.46,32.51-58.5-43.35-122.72-5.01-181.35,8.57h0ZM0,1182.83v-119.34c15.93-12.72,34.09-8.51,50.68,9.38,71.09,76.64-8.25,79.12-50.68,109.96h0Z" fill="#FFFFFF"/>
    <path class="pattern" d="M1195.36,212.2c4.64,70.92,80.74,39.07,92.44,94.25,19.66,92.73-93.1,8.62-141.77,57.83-38.45,38.87-50.74,4.45-65.53-7.43-9.21-7.4-24.25,10.54-32.37,9.67-81.46-8.68-3.61,58.66-54.38,86.7-55.92,30.89,88.98,113,171.52-8.75,33.33-49.16,25.69-27.26,25.06,10.83-.1,5.93,6.16,28.12,2.59,33.72-21.79,34.19,54.39,66.17,90.49,71.68,28.51,4.35,48.11-.02,59.18-30.93,27.01-75.45,95.04-11.14,97.62-72.03,6.56-154.3,132.21-90.25,141.04-5.73,3.1,29.65,22.65,47.62,44.84,56.81,24.35,10.08,51.88,9.58,64.34,2.33,78.38-45.64,64.4-5.9,85.66-4.76,43.35,2.33,30.47-33.37,21.01-62.78-9.8-30.47-102.08-2.54-114.15-48.19-9.54-36.09-34.07-32.71-56.86-31.67-3.5.16-6.97.27-10.33.16-49.15-1.49-52.04-9.63-48.92-55.08,4.49-65.18-50.03-10.38-50.34-10.3-34.24,9.72-48.3-76.72-14.4-91.42,105.86-45.92,52.02-76.59,75.32-85.46,49.18-18.72,17.35-77.14-11.9-31.39-53.27,73.86-19.81,93.47-113.84,93.47-56.02,0-57.17-21.39-94.7,17.26-57.91,59.64-55.08-60.89-73.55-62.08-39.85-2.58-43.7,3.44-60.71,39.98-11.94,25.65-28.28,19.46-27.38,33.29h0ZM1593.54,559.2c-13.96-11.76-82.8,19.77-82.8,91.89,0,77.03-62.77,5.93-22.34,145.61,15.89,54.9-110.74,3.17-153.85,53.72-7.59,8.9-3.78,5.19-18.65,14.48-37.05,25.99-53.78,56.32-2.23,69.13,60.04,14.91,102.9,54.94,95.19,131.6-4.51,44.84-98.75,44.47-122.81,21.21-64.44-62.3-271.4-15.73-125.53,63.01,62.34,33.65-2.09,104.46-71.53,63.63-92.86-54.6-182.63-91.98-292.87-71.76-67.38,12.36,31.7,108.92-127.4,80.35-32.61-5.86-94.25-66.7-43.7-125.25,83.09-96.23-16.86-110.2-132.48-83.52-48.18,11.12-93.64-18.81-119.75-36.23-242.74-161.91-293.21-47.56-183.7,3.17,62.65,29.02-43.88,109.92,80.23,131.44,240.31,41.67,192.81,340.15,56.78,218.3-157.18-140.8-153.88,157.41-25.74,80.66,48.22-28.89,143.17,40.89,149.6,34.29,37.91-38.91,47.66-.02,47.66-111.55,0-39.46-12.11-99.86,55.18-77.87,61.54,20.11,6.82,121.34,218,121.22,53.99-.03,144.4,22.33,150.57,92.58,4.13,47.05,57.17,101.38,63.11-47.22,1.57-39.25,120.11-3.99-40.15-142.2-51.53-44.44,292.08-72.91,328.15,97.07,20.74,97.73,119.85-55.51,116.48,149.48-1.11,67.57,150.99,46.27,150.99,23.92,0-100.88-54.43-27.15-42.03-181.22,5.7-70.8,9.91-148.2-5.44-191.84-23.27-66.15-59.11-86.82,53.38-143.11,29.99-15.01,56.97-19.72,80.22-21.04,65.84-3.73,101.85,19.76,92.06-86.17-3.96-42.87-53.03-41.12-92.06-59.45-29.37-13.8-53.06-38.98-47.59-103.11.08-.9,88.78-143.09,15.03-205.21h0Z" fill="#FFFFFF"/>
  </g>
</svg> 