<svg id="background" xmlns="http://www.w3.org/2000/svg" viewBox="0 0 2048 2048" class="background">
  <defs>
    <!-- Main radial gradient with multiple color stops -->
    <radialGradient id="glow-gradient" cx="50%" cy="50%" r="70%" fx="50%" fy="50%">
      <stop offset="0%" style="stop-color:#FF99CC;stop-opacity:0.7"/>
      <stop offset="60%" style="stop-color:#FF69B4;stop-opacity:0.5"/>
      <stop offset="100%" style="stop-color:#FF69B4;stop-opacity:0"/>
    </radialGradient>
    
    <!-- Pop art dot pattern with larger, more spaced dots -->
    <pattern id="dots-pattern" x="0" y="0" width="100" height="100" patternUnits="userSpaceOnUse">
      <circle cx="25" cy="25" r="15" fill="#FFFFFF" fill-opacity="0.15"/>
      <circle cx="75" cy="25" r="15" fill="#FFFFFF" fill-opacity="0.15"/>
      <circle cx="25" cy="75" r="15" fill="#FFFFFF" fill-opacity="0.15"/>
      <circle cx="75" cy="75" r="15" fill="#FFFFFF" fill-opacity="0.15"/>
    </pattern>
    
    <!-- Pop art pattern with dynamic content -->
    <pattern id="popart-pattern" x="0" y="0" width="200" height="200" patternUnits="userSpaceOnUse">
      <!-- Large halftone dots -->
      <circle cx="50" cy="50" r="30" fill="#FFFFFF" fill-opacity="0.2"/>
      <circle cx="150" cy="50" r="25" fill="#FFFFFF" fill-opacity="0.15"/>
      <circle cx="50" cy="150" r="25" fill="#FFFFFF" fill-opacity="0.15"/>
      <circle cx="150" cy="150" r="30" fill="#FFFFFF" fill-opacity="0.2"/>
      <!-- Ben-day dot clusters -->
      <circle cx="100" cy="25" r="8" fill="#FFFFFF" fill-opacity="0.25"/>
      <circle cx="85" cy="25" r="8" fill="#FFFFFF" fill-opacity="0.25"/>
      <circle cx="115" cy="25" r="8" fill="#FFFFFF" fill-opacity="0.25"/>
      <!-- Comic style lines -->
      <line x1="0" y1="100" x2="200" y2="100" stroke="#FFFFFF" stroke-width="4" stroke-opacity="0.1"/>
      <line x1="100" y1="0" x2="100" y2="200" stroke="#FFFFFF" stroke-width="4" stroke-opacity="0.1"/>
      <!-- Diagonal action lines -->
      <line x1="0" y1="0" x2="50" y2="50" stroke="#FFFFFF" stroke-width="3" stroke-opacity="0.08"/>
      <line x1="150" y1="150" x2="200" y2="200" stroke="#FFFFFF" stroke-width="3" stroke-opacity="0.08"/>
      <!-- Small detail dots -->
      <circle cx="25" cy="175" r="5" fill="#FFFFFF" fill-opacity="0.3"/>
      <circle cx="175" cy="25" r="5" fill="#FFFFFF" fill-opacity="0.3"/>
    </pattern>
  </defs>
  
  <!-- Base color layer -->
  <rect id="color-bg" width="2048" height="2048" fill="#FF69B4"/>
  
  <!-- Radial gradient glow -->
  <rect id="gradient-glow" width="2048" height="2048" fill="url(#glow-gradient)"/>
  
  <!-- Pattern overlay with blend mode -->
  <rect id="pattern-overlay" width="2048" height="2048" fill="url(#dots-pattern)"/>
</svg>