<?xml version="1.0" encoding="UTF-8"?>
<svg xmlns="http://www.w3.org/2000/svg" id="mouth-bandana" version="1.1" viewBox="0 0 2048 2048"><path id="fill-mouth" fill="#fff" d="M1416 1417c.2 1.4-.2 2.7-.4 4-3.4 15.2-13.8 40.9-19.5 56.5-2.8 7.7-7.8 24.3-14.1 28.9-4.8 3.5-11.3 5.3-16.4 9.6-11 9.3-23.4 41-29.7 55.3-1.7 3.7-6.9 19.1-8.3 20.7-.7.8-.8.7-1.8.7-7.4.3-25.8-6.2-31.8-1.4-4.7 3.7-7.2 14.7-9.8 20.2-9.1 19.9-18.9 42.4-29.7 61.3-7.7 13.5-11.3 12.8-22.4 21.6-29.5 23.2-58.4 50.4-86.1 75.9-41.4 38.2-81.3 78-121.6 117.4-11.3-9.3-21.2-20.7-31.8-30.9-52.9-51.4-109.8-108.8-167-154.9-12.8-10.3-23.5-14.1-32-29-10.8-18.9-20.5-41.4-29.7-61.3-2.5-5.6-5.1-16.5-9.8-20.2-6-4.8-24.4 1.6-31.8 1.4-.9 0-1.1 0-1.8-.7-1.5-1.6-6.7-17-8.3-20.7-6.3-14.3-18.7-46-29.7-55.3-5.1-4.3-11.7-6.1-16.4-9.6-6.2-4.6-11.3-21.2-14.1-28.9-7.1-19.5-12.9-39.5-20-59l.5-1.5c8.2 1.2 16.7 2.4 25 3 36.7 2.7 73.4 3.8 109.7-2.3 7.6-1.3 24-3.8 30.4-6.6 11.7-5.2 27.1-32.1 42.8-41.2 21.7-12.6 48-22.2 70.3-34.7 26.7-14.9 52.4-33.8 79.1-48.9 22.5-4.7 45.9-4.7 68.5 0 26.7 15.2 52.3 34 79.1 48.9 22.3 12.4 48.7 22 70.3 34.7 15.7 9.2 31.1 36 42.8 41.2 6.4 2.9 22.8 5.3 30.4 6.6 44.6 7.6 90.4 4.4 135.2-.7Z" class="fill" data-original-prefix="fill"/><path id="outline-shading-mouth3" fill="#000" d="M1387.1 1420.1c8.7-.5 18.8-3.1 27.3-3.2 2.4 0 1.7 1.4 1.3 3.3-2.8 14.3-14.3 42.3-19.8 57.3-2.8 7.7-7.8 24.3-14.1 28.9-4.8 3.5-11.3 5.3-16.4 9.6-2.6 2.2-7.6 9.9-8.2 10.1-2.4.5-27.8-14.6-33-16.9-27.8-12.6-44.8-5.6-72.1 3.6-67.3 22.5-132.8 50.7-199.2 75.8-19.4 1.2-43.9 4.1-62.6-1.5-50.5-15.3-101.2-44.7-153-58-26.6-9.6-71.8-32.6-99.5-25.5-16.7 4.3-29.8 16.6-44.1 21.9-1.1.4-2.1.9-3.3.6-.6 0-5.5-7.8-8.2-10.1-5.1-4.3-11.7-6.1-16.4-9.6-6.2-4.6-11.3-21.2-14.1-28.9-7.1-19.5-12.9-39.5-20-59-.4-2.1 1-1.7 2.5-1.5 4.4.4 24 2.1 26 4 5.3 9.7 38.6 78.1 44.2 79.9 2.9.9 25.1-8.8 30.5-10.2 13.1-3.3 42.5 1.5 57.1 3.4 28.3 3.7 46.8 7.3 73 18.1 48.1 19.8 95.2 42.9 146.7 52.3 18.2 3.3 49.9-5.4 68.5-10.5 43.5-11.9 88.1-42.8 132.3-52.7 24.3-5.4 68.3-12.8 92.6-12.2 8.4.2 33.8 13.1 37.9 11.8 5-1.6 37.1-67.5 42.9-77.2.6-1.1.5-2.4.9-3.5h.3Z" class="outline" data-original-prefix="shading" opacity=".2"/><path id="outline-shading-mouth2" fill="#000" d="M960.8 1425.3c17.2-1.1 35.4-.2 52.8-.3 37.9-.2 73-1 110.7 5.3 45.8 7.7 95.1 21.4 140 34 1.8.5 11.8 3 11.8 4.2-1 1.5-2.6 1.4-4.1 1.8-47.4 13.6-118.1-22.6-168.3-25.4-35-2-73-.3-108 0-20.4.2-42.9-1.5-62.9 1.1-45.6 6-112.9 36.7-156.5 24.2-1.5-.4-3.1-.3-4.1-1.8 0-1.2 10-3.7 11.8-4.2 53.4-15 122.2-35.5 177-39h-.2Z" class="outline" data-original-prefix="shading" opacity=".2"/><path id="outline-shading-mouth1" fill="#000" d="M1227.4 1689.4c-.3.2-1 3.8-1.2.3 9.4-22 13.5-45.6 16.8-69.2.3-2.2.2-1.3-1-1-2.6.7-6.2 1.4-8.5 2.5-4.8 2.3-18.2 19.9-22.9 25.1-29.8 32.3-60.9 60.8-96.8 86.2l-3.7.3c11.4-16.1 30.5-32.6 25-54.5-9.4 2.8-17.3 8.7-25.3 14.2-31.2 21.6-58 49.7-86 74.7-27.4-25.4-54.6-53.4-85.3-74.7-7.9-5.5-16-11.3-25.3-14.2-5.6 22 13.5 38.4 25 54.5-3.1 1.6-6.8-1.9-9.3-3.7-17.2-11.8-42.2-32.9-57.7-47.3-19.7-18.3-36.9-41-55.7-60.3l-9.8-3.2c.8 24.6 8.3 48.7 16 72-3.5-3.4-7.9-6.2-11.5-9.5-6.1-5.4-20.1-18.5-24.4-24.6-7.1-10-16.8-33.6-22.3-45.7-3.1-6.8-4.6-14.2-9.3-20.2 9.5-2.2 19.9-9.2 29.5-10 14-1.2 46 16.5 59.5 23.5 62.5 32.3 121.8 70.8 180.5 109.5 54.4-35.1 108.8-70.4 165.8-101.1 13.2-7.1 26.7-14.4 40.3-20.7 11.3-5.2 24-12.6 36.6-10.9 4.1.6 21.5 6.9 25.1 8.9.9.5 2 .8 1.6 2.1-3.7 5.9-5.4 12.6-8.2 18.9-5.2 11.8-15.4 36.1-22.3 45.7-4.3 6-17.5 18.2-23.4 23.6-3.5 3.2-7.8 6.1-11.6 8.9h-.2Z" class="outline" data-original-prefix="shading" opacity=".2"/><path id="outline-mouth5" fill="#000" d="M1389.4 1512.4c-5.6 5-11.3 6.2-16.8 10.7-9.6 7.8-21.2 36.9-26.7 49.3-4.3 9.7-8.2 19.6-12 29.5-1.4.5-2.9.2-4.3.2-7.8-.5-18.9-4.2-26.1-4-6.1 0-10 15.8-12.3 20.7-8.3 18.5-17.2 39.5-27 57-10.7 19-18.7 20.5-34.7 33.3-69.6 56-132 124-197.6 184.4-4.2 3.9-5.8 10.9-12.5 4.5-67.2-64.3-133.5-135.4-206.6-193.4-14.9-11.8-19-11-29.1-28.9-9.8-17.5-18.7-38.5-27-57-2.3-5.1-6.2-20.6-12.3-20.7-7.1-.2-18.3 3.6-26.1 4-1.4 0-2.9.3-4.3-.2-3.8-9.9-7.7-19.8-12-29.5-5.6-12.7-17.2-41.9-27.3-49.7-8.1-6.3-16.5-6.4-22.1-16.9-13.1-24.5-18.1-59.8-30.6-85.4-1.1-7.7.2-11 8.2-11.3 17-.6 39.9 4.4 58 5.1 23.3.9 46.8.3 69.7-3.4 8.6-1.4 26.3-4.1 33.6-7.4 10.4-4.6 25.8-30.5 39.7-39.3 20.2-12.9 48.4-22.7 70.2-34.8 29.5-16.3 56.6-37.6 86.9-52.1 17.2-3.3 63.7-4.5 78.7 3.1 26.3 13.3 52.7 34.4 79 49 21.3 11.8 61.7 26.2 78.2 40.8 8.3 7.3 23.1 29.2 30.9 33.1 10.2 4.9 47.7 10.2 60 11 33.9 2.1 65.2-3.9 98.1-5 9.3-.3 13.9.3 12.3 11.3-10 24.1-16.5 49.7-26 74-3.1 7.8-4 12.4-10.4 18.1h.3Zm-2.4-74.4c-17.5-.2-35 1.6-52.6 1-22.5-.7-67.4-4.6-88-12-15.1-5.5-34-33.6-49.2-43.8-22.2-15.1-52.1-28.3-76-42-22.3-12.8-44.1-26.5-66.1-39.9-20.2-1.9-43-2.5-63.1.3-21.7 13.3-43.3 26.8-65.5 39.6-23.9 13.7-53.8 27-76 42-13.7 9.3-25 25.5-37.7 36.3-11.8 10-24.8 10.9-39.7 13.3-36.9 6-73.5 7.2-110.9 5.2l-1.5 1.5 21.6 60.4c4.6 4.2 10.9 5.5 15.8 9.2 8.5 6.4 16.8 27.2 21.5 37.5 5.1 10.9 9.7 22.1 14.2 33.3 21.5-3.1 45.5-13.6 67.4-10.9 5.9.7 21.3 11 27.4 14.6 49.5 29.2 99.3 60.8 146.8 93.2 12.5 8.5 24.6 18.8 37.4 26.6 2.7 1.6 8.9 5.8 11.4 5.7 2.2 0 12.5-7.1 15.2-8.9 59.9-39 117.6-80.2 179.4-116.6 6.1-3.6 21.5-13.9 27.4-14.6 21.9-2.7 46 7.9 67.4 10.9 4.5-11.2 9.2-22.4 14.2-33.3 4.8-10.2 13.1-31.1 21.5-37.5 3.5-2.6 14.3-6.7 15.8-9.2 1.6-2.8 3.3-11.3 4.8-15.2 2-5.4 18.5-45 16.8-46.8h.3Zm-110 155c-8.8-.9-17.5-4.1-26.4-2.9-6.5.9-19.3 8.1-25.6 11.4-69 36.1-135.2 77.9-197.6 124.4-2.2 1.5-4.6 1.5-6.8 0-62.4-46.5-128.6-88.3-197.6-124.4-6.3-3.3-19.1-10.5-25.6-11.4-8.8-1.2-17.9 1.6-26.4 3.4 17.3 26.8 28.9 56.9 46.5 83.5 68.9 48.7 128.4 107.7 186.6 168.4l20.5 23.5c5.6-8.3 12.6-16.2 19.5-23.5 57.7-61.5 118-119.1 186.6-168.4 11.9-17.2 20.2-36.6 29.9-55.1l16.5-29Z" class="outline" data-original-prefix="outline"/><path id="outline-mouth4" fill="#000" d="M1216 1501c-5 15.8-22.6 23.3-36.6 29.8-40.8 19.1-98.2 39.1-142.3 47.7-23.9 4.6-68.5-10.7-92.5-18.5-28.4-9.3-67.8-22.8-93.2-37.8-5.7-3.3-18.1-13-19.3-19.7-.3-1.6 0-1.7 1.5-1.5 8.4 1.1 19.7 1.4 27.4 3.6 6.7 1.9 15.6 7.6 22.5 10.5 24.7 10.3 49.9 20.1 75.2 28.8 27.3 9.5 56 22.4 85.3 15.2 33.6-8.3 75.7-25.6 108.2-38.8 10.6-4.3 25.3-12.9 35.2-15.8 8.9-2.6 19.7-1.7 28.8-3.7z" class="outline" data-original-prefix="outline"/><path id="outline-mouth3" fill="#000" d="M1244 1474c-7.2-1-14.4 1.8-21.4.9-10.3-1.3-24.4-6.4-35.4-8.6-106.4-21.2-198.4-23.4-305.4-4-17.9 3.2-39.7 10.4-56.4 12.6-7 .9-14.3-1.9-21.4-.9 1.7-3.3 5.7-4.4 9-5.5 23.4-8 58-14.9 82.8-20.2 93.1-20 173.4-18.6 266.2 2.2 22.1 5 51.2 10.8 72.2 17.8 3.5 1.2 7.9 2.2 9.8 5.7" class="outline" data-original-prefix="outline"/><path id="outline-mouth2" fill="#000" d="M978 1773c-2 2-12.7-7.2-14.5-9-33.9-33.8-65.2-78.9-96.7-115.3l-2.8-5.7c1.1-1.1 27.5 9.2 29.4 11.1 23.5 34.2 49.9 66.4 73.4 100.6 1.4 2 12.1 17.4 11.2 18.3" class="outline" data-original-prefix="outline"/><path id="outline-mouth1" fill="#000" d="m1184 1643-2.8 5.7c-31.6 36.4-62.8 81.5-96.7 115.3-3.6 3.6-9.3 8.6-14.5 9-.9-.9 9.8-16.3 11.2-18.3 23.5-34.2 49.9-66.4 73.4-100.6 1.9-1.8 28.3-12.2 29.4-11.1" class="outline" data-original-prefix="outline"/></svg>