<?xml version="1.0" encoding="UTF-8"?>
<svg xmlns="http://www.w3.org/2000/svg" id="stache" version="1.1" viewBox="0 0 2048 2048"><path id="fill-stache1" fill="#fff" d="M1000 1584c-9.2-2.2-19.9-5.1-27.5-11-5.2-4-15.3-20.4-21.9-9.9-4.8 7.6-7.7 18.9-12.6 26.9l-3.6-6.9c-4.9-5.4-10.8-15.1-19-14.1s1.2 22.1 1.5 27.1c-4.5-1.2-22.4-4.4-24.3.2-1.7 14.9-2.5 29.1-.3 44 4.4 29.9 16.4 57.1 24.2 85.8 3 11.2 7.1 23.6 3.5 35-9.1-8.5-17.4-8.2-15.9 6.4 1 9.1 4.8 18.5 2.9 28.6-1.1 1.3-10-8.7-11.7-9.8-7.1-4.8-15.8-6.4-23.3-9.7-14-6.2-29.1-16.3-37.8-29.2-7.2-10.6-10.1-28.3-25.2-10.3-4.1-10-13.1-17.7-18.2-27.3-11.5-21.8-7.8-34.9-9.8-57.2-.8-9-5.8-6.9-13-5.4-2.5-20.9-11.3-40.4-15.5-61-13.9-67.3 29.9-135.7 67.5-187.5 2.4-3.3 5.6-6.6 8.5-9.5 1.6 7.8 3.2 16.8 10.5 21.4 11.4 7.1 24-8.6 33.5-13.4-1.7 6.2.2 27.7 7.2 29.8s13.5-4 20-6.6c16.2-6.3 32.2-10.8 49.5-6 10.1 2.8 8.2 18.2 15.2 24.8 8.2 7.6 29.3 8.4 39.2 4.2 6.4-2.8 13.6-13 19.8-13.3 7.2-.3 14.7 11.2 22.3 13.8 9.9 3.5 31.6 2.8 38.7-5.8 4.1-4.9 6.2-18.7 8.8-21.7 1.2-1.4 16.4-4.1 19.3-4.2 10.3-.6 26.7 4.6 36.5 8.5 8 3.2 18 13.2 23.8.8 3.2-6.8 3.5-17 2.2-24.3 10.4 4.7 22 21.1 34.5 13 7.2-4.7 8.1-13.4 10-21 2.2 3.2 6.4 6.6 8.5 9.5 35.2 48.8 75.9 112.6 69.8 175.9-2.3 24-16 48.3-17.9 72.6-2.2-.6-9.9-2.2-11.1-.4-3.5 4.9-1.3 23.6-2 30.8-2.2 23.4-14.4 40.1-27.8 58.2-2.6 1.8-3.8-4.4-6.7-5.3-2-.6-6.4-.6-8.3.3-2.2 1-10.4 17.5-13.6 21.4-5 6.2-12.8 12.3-19.5 16.5-17 10.8-36.7 12.1-49.9 28.6.4-5.7-.6-11.9 0-17.5.8-8.2 10-26.7-6.5-23.5-3 .6-3.9 3.9-6.5 5-3.8-10.3-.4-21 2.3-31.2 7.4-28.4 19.2-55.4 24.4-84.6 3-16.8 2.4-31.5 1.1-48.5-1.7-5.2-20.3-1.9-24.8-.7-.1-5.8 10.3-25.3 1.5-27-4.8-.9-6.5 1.5-9.9 4l-13 15c-2.8-1.3-9.6-20.9-12.1-24.9-6.4-10.3-15.9 4.9-20.9 8.9-8.1 6.4-18.6 9.6-28.5 12v-16.5c0-4.9-3.8-17.1-6.2-21.8-1.2-2.4-12-18.8-13.2-19.8-2.4-1.8-7.3-1.5-9.6.5-2 1.7-10.6 14.9-12.1 17.9-2.9 5.5-6.8 17.2-6.8 23.2v16.5Z" class="fill" data-original-prefix="fill"/><g id="shading"><path id="outline-shading-stache3" fill="#000" d="M1092 1523c12.1 8.1 26.6 21.5 27 37 1.2 1.7 11.5-11.8 12.4-13.1 2.3-3.5 9-18.1 11.3-18.8 5.2-1.6 3.6 3.1 4.8 5.8.7 1.4 4.7 5 6.3 7.7 4.6 7.9 6.8 18.2 6.2 27.3 9.9-8.8 12.6-23.4 18.5-35 3.7-4.5 8 8.8 8.4 11.6 2.8 19.9-7.8 32.3-17.9 46.9-3.1 4.5-5.6 13.7-11.5 15.5-1.9.6-1.3-.3-1.5-1.5-.4-2.9.7-7.4-.1-9.9-1.7-5.1-20.4-1.6-24.9-.6-1-1 7.5-23.5 3.1-26.6-5.2-3.6-14.4 5.8-17.6 9.6-1.5 1.8-5.6 9.3-7 9-2.3-.5-10.1-21.9-12.7-25.3-6.7-9.1-15.4 5.4-20.4 9.3-8 6.3-19.4 10.8-29.5 12 2.9-15-.9-30.8-8.6-43.9-1.5-2.5-9.1-13.8-10.9-14.1-1.7-.3-7.1-.3-8.5.5-1.1.7-12.1 17.5-13.2 19.8-5 10.8-7.1 26-4.8 37.7-9.5-1.2-20.9-5.1-28.5-11-5.3-4.1-14.5-19.7-21.3-10.3l-13.2 27.3c-2.1-1.3-2.1-4.7-3.5-6.9-2-3.1-11-12.9-14.2-13.8-17.2-5.1-1.4 24.8-3.3 26.8-5.6-.7-18.4-4-23.3-1-2.3 1.4-1.6 10.4-1.7 13-7.9-.6-9.4-9.9-12.6-14.9-1.9-3-5.9-6.2-8.2-9.8-7-10.5-12.6-27.9-9.8-40.4.4-1.7 4.1-10.3 6-9.9 4.5 1 12.1 32.3 19.5 35 .6-11.2 3.4-19.8 9.2-29.3 1.1-1.8 3.7-3.3 4.3-4.7 1.2-2.5 1.4-10.8 7-3.9 3.7 4.5 6.7 13.9 11.1 19.9 1 1.3 9 11.7 10.4 10.1.4-15.6 14.8-29.1 27-37l.5 13 22.5 24c3.7-19.7 17.5-34.1 33.1-45.4 2.5-1.8 9.5-7.6 12.2-7.4 4.3.4 26.5 19.4 30.2 23.8 7.4 8.7 11.2 18.3 15 29 4-7.7 17.9-17.2 21.4-23.7 1.5-2.7.7-12.8 1.1-13.3Z" class="outline" data-original-prefix="shading" opacity=".2"/><path id="outline-shading-stache2" fill="#000" d="M1279.9 1646.9c-1.9 1.2-9.8-1.2-11.4 1.1-.4.6-1.4 11.5-1.5 13.5-.8 14.1 0 23.1-4.9 37.1s-15.5 24.9-23 38c-2.8 1.9-5.1-6.1-6.7-6.5-10.8-2.9-11.4 5.8-15.5 12.3-10.2 16.2-23.9 26.9-41.4 34.6-7.3 3.1-15.1 4.4-22.1 8.9-4.6 3-7.3 8.4-12.3 10.2.4-5.7-.5-11.9 0-17.5.9-8.9 9.7-24.6-6.6-22.6-2.1.3-8.7 10.7-7.5-.5.3-2.8 2.5-4.8 3-8.1.6-3.8-.3-8.1 0-11.9 1.8-16.4 11.6-45.3 17.5-61.5 1.1-2.9 3.6-4.8 4.2-6.8 1.3-3.8.9-10.1 2.2-14.2 1.4-.2 1.3 1.7 1.7 2.7 7.9 21.4-4.2 50.1-3.8 72.3 9.5-1.3 13.7-4 18.4-12.1.5-.9 2.8-9 4.6-6.9.4.5 1.9 10.9 2 12.5.6 7.4 0 15.2-1 22.5 20.8-7.3 38.2-23 36-47 2.1-2.2 16.8 9.4 18.5 12 22.6-22.3 22.7-57.6 25.6-87.3.3-2.7 1.7-5.8 1.8-8.3.3-7.6-5.1-16.8-5.9-24.3l6.9 2.6 13.1 11.9c9.9-31.2 9.8-64.6 4.7-96.7-2.5-15.8-7.8-31.1-9.7-46.8l11.8 21.6c14.4 29.5 23 66.8 17.8 99.5-2.7 16.9-9.5 32.9-13.6 49.4-.7 2.7-2.5 15.8-3.2 16.3Z" class="outline" data-original-prefix="shading" opacity=".2"/><path id="outline-shading-stache1" fill="#000" d="M781 1461c-8 33.9-15.3 68.3-13 103.5.9 13.3 5.2 26.3 7 39.5l14.1-12.4 6.9-2.6c-1.2 7.6-6.3 16.8-6 24.4.2 5 2.5 12.5 3 18.1 2.2 21.2 2.7 43.7 13.2 62.8 1.4 2.6 8.2 13 10.5 13.6 2.7.7 13.7-12.3 19.3-10.9-3 24.1 15.3 39.7 36 47-1.5-5.2-1.6-32.3 1-35 1.7-1.8 1.7.7 2.1 1.4 5.3 10.3 7.2 16.5 20.9 17.6-.9-22-8.2-43.1-5.9-65.4.3-3.3 2.9-6.7 1.9-10.6 1.8-2.7 3.9 14.4 4.2 15.3 6.3 18 15.2 36.5 19.5 55.5 2 8.7 1 17.3 2.3 25.7.7 4.2 5 7.1 1.9 12.6-.8.6-5-4.9-6.4-5.1-16.2-2-7.4 13.7-6.6 22.6.5 5.6-.4 11.8 0 17.5-1.1 1.3-10-8.7-11.7-9.8-8.3-5.7-21.6-8.4-31.4-13.6-11.2-6.1-22.6-14.6-29.8-25.2-5.1-7.6-6.9-20.5-18.5-17.3-1.3.4-4.5 7.8-6.2 7-8-12.7-18.1-23.5-23.3-37.8-3.8-10.5-5.5-21.6-6-32.8-.2-3.4 2.5-18.9-1.8-20.4-3.6-1.2-10.3 2.1-11.2-.8-2.1-20.1-10.7-38.6-14.7-58.3-8.5-41.7 4.8-87.9 26-124 .8-1.3-.2-2.5 2.5-2Z" class="outline" data-original-prefix="shading" opacity=".2"/></g><path id="outline-stache" fill="#000" d="M775 1652c-.6-.6-10.3 6.3-13 5 .4-20.9-9.2-40.5-13.9-60.6-13.1-55.8 4.6-103.2 32.1-150.7 14.1-24.4 30.6-47.5 51.3-66.7 2.4-.4 1.2 1.1 1.4 2.5.8 5.9 1 12 3.5 17.5 10 21.5 28.6-9.7 42.5-11-2 6.2-4 31.9 3.7 33.9 1 .3 14.2-6.5 17.1-7.6 11-4.2 25-8 36.7-7.2 3.4.2 17.7 2.5 20.1 3.9 6.8 4 5.7 20.7 14.4 25.6 7.4 4.2 18.9 5.6 27 2.9 11.6-3.8 14.4-15.8 28.6-14.5 7.9.7 14.2 11.4 21.7 14.3 7.4 2.9 25.9 1.6 31.4-4.5s5.5-21.8 13.9-24.6c19.2-6.5 43.9-1.2 61.8 7.1 6.4 2.9 9.9 9.5 13.7-.6 3.6-9.7 1.7-20-1.1-29.6 2-2 26.7 17.8 30.3 19.2 16.9 6.6 15.4-27.3 17.2-27.2 23.9 20.7 43 49.2 58 77 20.2 37.3 33.4 74 30.5 117.6-1.9 28.2-17.6 55.1-19.1 83.5-4.4-.7-8.3-2.8-12-5v28.5c0 5.2-4.7 20.9-6.8 26.2-6.3 15.4-19.7 25.8-25.2 41.3-3.7.8-11.9-13.9-14-12-5.7 19.5-25 36.1-43 44.6-8.2 3.8-18.8 5.8-26.4 10.6-2.3 1.5-19.7 19.8-20.6 18.9-3.1-16.1-2.9-32.1 1-48-5.6 2.8-8 7.4-11.7 11.7-.4.5-.8 2.8-2.3 1.3s-4.2-23.5-4.1-26.5c.7-20.3 13.8-49.2 19.6-69.5 4.5-15.7 11.5-40.7 12.5-56.5.5-8-1.6-15.5-1-23.5-9.6-1.2-17.3 1.6-26 5 0-2.4 0-4.8.2-7.2 1.1-7.6 4.7-15.2 5.2-22.8-5 3.9-10.8 8.6-13.7 14.3-.8 1.5-3.9 13.7-6.8 11.7l-18.5-36c-11 17.1-30.6 23-49.5 27 1.6-15.6 1.7-29.4-5.8-43.7-1.1-2-10.6-17.3-11.7-17.3-1.5 0-8.1 9.7-9.3 11.7-10.3 16.4-11.8 30.2-9.2 49.3-12.7-3.2-27.6-6.1-38-14.5-1.8-1.4-11.6-12.8-13-11.5-.7 4.9-15.3 35-18.5 35-5.1-10.3-8.7-19.6-19-26 .5 8 4.1 15.8 5.2 23.8.3 2.1.4 4.2.2 6.2-8.5-3.8-16.8-5-26-6 .3 8.3-1.5 16.2-1 24.5.9 15.3 7.3 38.3 11.5 53.5 5.9 21 20.3 52.6 20.5 73.6 0 2.6-3.2 24.5-4 25.4-1.5 1.7-1.9-.8-2.3-1.3-3.7-4.2-6.9-8.8-11.7-11.7 3.9 16 3.8 31.8 1 48l-20.8-18.6c-23.1-9.8-46.5-17.8-61.5-39.4-1.9-2.8-7-14.4-7.6-14.9-3.5-2.4-9.6 11.4-13.9 10.9-4.8-14.1-17.7-24.2-23.9-37.6-2.5-5.4-8.1-23.5-8.1-28.9v-29.5Zm59 59v17.5c0 1.6 5.8 11.9 7.2 13.8 10.8 14.7 32.5 21.4 47.7 31.3 4.4 2.9 8.3 6.4 12.6 9.4l-9.5-44c4.4-.8 21.4 13.6 23 12-2.9-29.2-20.1-54.3-29.7-81.8-6-17.1-13-41.9-14.2-59.8-.6-8.4 1.1-18.8-.2-26.8-1.1-6.3-8.6-12.4-9.7-20.3-.5-3.6 2-25 3.9-26.4 1-.8 2.3.6 2.8 1.7 2.5 5.9 3 16.4 5.8 23.2 4.4 11.1 17.2 23.3 29.5 23.5-9.3-12.7-10.3-31.8-5.5-46.5.6-1.8 6.2-13.7 7-14 1.9-.9 2.1 3.5 2.3 4.7 1.1 6.1.2 16.6 2.1 20.9 1.2 2.8 9.2 9.5 12.1 11.9 5.6 4.7 13.5 8.5 17 14.5 1.3.2.9-.3 1.2-1.2 3.5-8.9 2.8-17.4 5-26 2-7.5 7.5-14.3 9.7-21.8 2.6-.3 1.6 0 2 1.5 3.9 12.9 6.7 24.2 17 34l16 11.5c0-18.2 7-35.9 19.5-49l16-17c10.9 14.2 24.2 24.2 30.3 41.8 2.8 8.1 4.6 16.8 3.7 25.2 17.9-10.9 30.7-26.6 33.5-48 4.4 4.7 9.8 14.8 11.5 21 2.2 8.1 1.6 15.9 4.5 24.5.4 1.1.6 3.6 2 3.5 3.2-6.2 11.5-9.8 17-14.5 3.4-2.9 12.9-11.1 13.1-15 .4-6.6-.5-12.5 1.2-19.8.4-1.8.4-3.3 2.7-2.7 10.4 19.1 13.1 41.6 1.5 61 23.8-4.8 32.7-26.9 34.5-49 .8.1 2.7-.2 3 0 1.4 1.1 4.3 22.2 3.9 25.4-1.1 8.8-8.6 14.5-9.7 19.3-1.5 6.8.2 19.1-.2 26.8-1.2 20.3-9 46.8-16 66-9.5 26.2-26.3 50.4-28 78.5 7.3-5.3 15-9.8 23-14l-9.5 45c16.5-16.7 46.6-22 60.3-40.7 1.8-2.5 7.2-12.2 7.2-14.8v-16.5c9.2 3.3 14.7 11.5 22.5 16.8 26.7-26.7 30.2-67 25.5-102.8 1.2-1.4 11.2 8.7 13 7 3.3-16.1 9-31.9 10.1-48.5 3.1-48.8-9.7-93.1-37.2-132.9-3.8-5.4-24.3-33-28.3-34.7-1.7-.7-1.3.7-1.7 1.2-3.8 5.5-3.3 12-3.7 18.3 0 1.3.7 3.1-1.5 2.5-2.6-.7-11.7-13.5-14.5-16.5-1.7-1.9-10.7-11.4-12.5-11.5-1.2 4.3-.1 9-.6 13.4-.6 5.1-3.1 11.8-2.9 17.1.1 4.6 3.9 8 4 12.5l-15.9-10.6c-18.7-17.1-46.7-27.1-71.8-20.2-3.6 11.5-11.8 33.5-25.7 34.8-16.5 1.6-34.3-7.9-48.2-15.8-14.4 7.4-34.8 19-51.6 15.6-10.9-2.2-20.8-24.5-23-34.6-24.9-6.8-53.5 2.9-71.9 20.2l-15.9 10.6 3.9-11.6-3.9-30.4c-1.7-.4-2 .7-3 1.5-5.5 4.2-21 24.8-24.5 25.5-2.8.6-.3-4.2-.4-6.5-.2-3-2.3-18.2-6.9-15.3-21.6 25.5-41.6 51.7-52.9 83.6-15.1 42.5-15 89.4-1.2 132.2l13-7c-3.1 21.8-2.6 44.7 3.5 66 4.3 15 12 24.9 21 37.1 8.7-4.4 13.4-14.2 23.4-17.1Z" class="outline" data-original-prefix="outline"/></svg>