<?xml version="1.0" encoding="UTF-8"?>
<svg xmlns="http://www.w3.org/2000/svg" id="stogie" version="1.1" viewBox="0 0 2048 2048"><path id="fill-mouthbit-main" fill="#fff" d="M1380.7 1584.3c6.4 17.5 27.5 11.4 39.8 21.7 2.6 2.2 3.8 6.5 7.4 7.6 7.3 2.2 16.1-2.2 23.3-.3 3.3.8 5.8 5.4 9.3 6.7 10 3.7 17.2-4.4 22.2 7.8 11.5 28.1-14.7 83.3-38.4 100.1-2.3 1.6-8.2 6-10.7 5.9-4 0-3.9-8.3-9.3-9.5-2.5-.6-8-.5-10.7 0-5.3.7-10.5 6.8-15 1.9-2.1-2.3-3-8.8-6.2-9.8-1.7-.5-10.9-.5-12.6 0-2.3.7-2.3 3.4-2.8 3.7-2.4 1.4-29-11.6-38.3-9.8-2.5.5-3.7 2.9-7.1 3s-10.8-2.5-14.5-3.6c-37.1-10.8-76.4-26.1-111.4-42.6-8.9-4.2-8.6-6.4-13.7-14.3-17.2-5.8-34.2-12.1-51-19-1.7-.7-3.8-.5-5.7-1.3-2.2-.9-15.3-7.8-16.3-8.7-1.4-1.4-6-14-7-17-3.8-10.5-6.5-21.4-9.9-32 0-5.6 14.9-17 19.4-20.4 4.7-3.6 18.9-14.1 23.9-14.1 20.3 2.9 50.8 18.9 70.8 14.8 3.3-.7 7.5-4.5 10.7-5.3 8.2-2.2 45.6 4.8 56.2 6.8 33.6 6.3 65.2 17.2 97.5 28v-.2Z" class="fill" data-original-prefix="fill"/><path id="fill-mouthbit-label1" fill="#fff" d="m1373 1589-17.3 3.2c-35 17.2-52.7 54.8-41.2 92.8 2.2 7.2 6.6 12.9 7.5 20-30.3-10.7-62.6-20.2-91.7-33.8-15.9-7.4-27.6-12.4-33.6-30.4-9.2-27.7 3-62.2 26.8-78.8 7.4-5.2 21.2-2.8 29.9-1.8 40.5 4.5 81.1 16.3 119.6 28.9Zm-114.2-14.7c-22.6 2.6-45.1 28.1-42.8 51.2 2.4 23.4 37.9 43.7 56.5 26.5 7.2-6.7 20.9-36.6 21.5-46.4 1.3-20.4-15.7-33.6-35.2-31.3" class="fill" data-original-prefix="fill"/><path id="fill-mouthbit-label2" fill="#fff" d="M1258.8 1584.3c14.8-2 27.3 6.2 25.2 22.2-1.1 8-13.6 36.5-20 41-11.9 8.4-32.8-2.5-37.7-15.1-7.7-19.9 12.9-45.4 32.6-48Z" class="fill" data-original-prefix="fill"/><path id="fill-mouthbit-ember" fill="#fff" d="M1462.1 1632.9c1.6 1.1 7.6-6.6 12.4 0 1.3 1.8 3.2 9.2 3.4 11.6 1.7 16-14.6 63.2-30.3 69.4-2.1.8-6.8 2.1-9 2-4.2-.2-11.8-6.5-14.9-5.9-2.2.4-6.3 6.1-11.9 5.6-6.6-.6-5.5-8.4-9.8-10.3-3.1-1.3-9.9-.9-13.8-2.2-17.7-5.8-13.9-40.5-9.7-54.3 2.6-8.5 13.4-28.2 23-29 3.2-.3 5.5 1.1 8 1.1s6.7-2.3 8.8-1.8c1.8.4 4.2 4.6 6.3 5.7 5.7 3 8.2-1 13.3-2.4 9.3-2.5 15.1-1.7 21.4 5.6 1.1 1.3 2.4 4.7 2.7 4.9Zm-43.1-2.9c-15.4-5.5-26.8 18.2-28 30.5-.5 5.5 2.3 31 5.1 34.9 1.4 2 3.8 2.2 5.9 1.1 4.2-2.1 1-13.1.9-17-.2-6.4-.7-16.4.7-22.4 2.2-9.2 11.7-18.3 15.3-27.2Zm14 78v-27.5c0-8.9 8.2-26.1 13.6-33.4 1.5-2 9.4-9.9 9.4-10.6 0-7.4-15.8 4-18.1 6-12.8 11.4-17.8 31.3-14.7 47.8 1.2 6.4 4.1 14.2 9.8 17.8Z" class="fill" data-original-prefix="fill"/><path id="outline-shading-mouthbit" fill="#000" d="M1174 1617c-1.1-15.2 4.2-30 11.5-43 4-7.2 8.8-18.2 18.5-14-5.4 12.1-11.5 23.9-14.5 37-1.2 5.1-4 18.6-3.1 23 .2.8 6.6 13.2 7.2 13.9 5.8 6.6 32.4 17.7 41.5 21.5 26.7 11.3 54.5 20.6 82.4 28.6 1.1 0 6-3.7 6.4-4.7 1-2.9-1.1-17.5-.8-22.8.8-13.3 13.5-49.9 26.9-54.1 12-3.7-.3 9.9-1.8 12.2-11.1 16.8-16 35.4-12.9 55.6.4 2.7 2.5 13 4 14.5 1.7 1.8 27.2 11 28.8 9.8 2.9-2.2 1.7-18.6 2.1-23 1.1-12.1 5.9-26.5 12.1-36.9 2.6-4.4 7.1-13.1 12.8-11.7 1.8 1.8-7.8 14.2-9.2 17.3-3.5 7.9-5.9 19.6-6.8 28.2-.3 3.6-1.3 11.2 0 13.9 2.3 4.3 10.8 10.3 15.6 11.4 2.3.6 5.2-.3 7.3.7 1.2.6 3.2 4.5 4.9 6.1 8.2 7.1 16.2 1 25-1.5 1.5 5.1 0 8.4 4 12.5 5.6 5.8 12.2 4.5 19 7-7.4 7.9-14.8 15.6-26.3 9.3-1.3-.7-1.6-2.4-2.4-2.8-2.6-1.6-23.9-2.3-30.6-5.2-1.9-.8-1.5-3.3-4.2-3.8-1.6-.3-10.5-.3-11.9.2-1.6.5-1.7 2.8-2.7 3.4-2.9 2-29.1-11.4-38.5-9.5-2.4.5-2.8 2.8-6 3.1-7 .6-60.6-18.3-71-22.1-21-7.6-41-17.7-61.4-26.6-5.7-4.1-5.7-12.1-7-13-.5-.3-2.6.6-4.1.2-16.1-4.3-39.6-13.4-54.9-20.2-2.6-1.2-12.4-5.7-14-7-2.4-1.9-6.7-14.2-8.1-17.9-2.4-6.6-9.3-25.4-9.8-31.3-.2-2.6 1.9-5.1 3.4-7.2 4.2-5.6 29.7-25.5 36.1-26.9 11-2.3 27.1 6.2 37.8 8.7 2.2 11.4-19.1 3.5-26.1 4-8.4.6-24.9 14.3-28 22.1-2.6 6.4-2.8 13.5 2.6 18.4 3.7 3.4 44.2 24.5 45.9 22.6h.2Z" class="outline" data-original-prefix="shading" opacity=".2"/><path id="outline-mouthbit5" fill="#000" d="M1258.8 1574.3c19.6-2.3 36.6 10.9 35.2 31.3-.6 9.9-14.3 39.8-21.5 46.4-18.5 17.2-54.1-3.1-56.5-26.5-2.4-23.1 20.2-48.6 42.8-51.2m0 10c-19.6 2.7-40.3 28.1-32.6 48 4.9 12.7 25.8 23.6 37.7 15.1 6.4-4.5 18.9-33 20-41 2.1-15.9-10.4-24.2-25.2-22.2Z" class="outline" data-original-prefix="outline"/><path id="outline-mouthbit4" fill="#000" d="M1419 1630c-3.6 8.9-13.1 18-15.3 27.2-1.4 6-.9 15.9-.7 22.4 0 3.9 3.3 14.9-.9 17-2.2 1.1-4.5.9-5.9-1.1-2.8-3.9-5.6-29.4-5.1-34.9 1.2-12.3 12.6-36 28-30.5Z" class="outline" data-original-prefix="outline"/><path id="outline-mouthbit3" fill="#000" d="M1433 1708c-5.7-3.6-8.6-11.4-9.8-17.8-3.1-16.4 2-36.3 14.7-47.8 2.2-2 18.1-13.4 18.1-6s-8 8.6-9.4 10.6c-5.4 7.3-13.6 24.5-13.6 33.4v27.5Z" class="outline" data-original-prefix="outline"/><path id="outline-mouthbit2" fill="#000" d="M1387.9 1722c-2.6-1.7-4.3 3.2-6 4.4-4.1 3.1-11.1 0-15.8-1.2-5.5-1.5-18.9-7.8-22.9-8-2.5 0-4.5 3-7 3.5-5.1 1.2-14.8-2.1-20.1-3.5-41.4-11.5-81.7-28.9-120.9-46.1-5.2-2-5.6-7.9-7.8-11.2-1.7-2.4-36.6-13.8-42.7-16.3s-27.4-10.6-30.8-14.2c-3.7-3.9-11-27.5-13-34-1.9-6.2-7.5-20.8-5.2-26.3.9-2.2 7.6-9.2 9.7-11.3 10.4-10 24.3-19.1 37.2-25.7l66 16.7c4.3 0 10.3-6.1 14.9-6.9 5-.9 15.4.4 20.9.9 48.7 4.4 95.4 19.4 141.5 34.5 3.1 2.2 5.2 9.3 8.1 10.9 8.1 4.6 24 3.3 32.4 11.6 1.8 1.7 3.5 6.2 5.2 6.8 3.6 1.2 15.1-2.1 19.7-1.8 7 .4 10.9 8.4 16.6 9.6 8.1 1.7 13.7-7.1 19.9 5 15.9 30.8-10 93.7-36.4 113.4-4.5 3.3-13.4 9.1-19 8.9-7.2-.2-10.5-11.2-13.1-11.7-4.4-.9-13.3 9-22.7 4.6-5.7-2.7-8.1-12.3-8.8-12.7h.1ZM1195 1563c-18.1-2.2-36.1-7.2-53.9-9.5-4.4 4.2-24.4 16.5-25.9 21.2-1.9 6.3 2.1 30.1 5.9 35.7s48.4 18.8 56.9 23.6c-2.6-20.3 1.3-41.6 10.8-59.7 1-2 7.5-10 6.2-11.3m178 26c-38.5-12.5-79.2-24.4-119.6-28.9-8.7-1-22.5-3.3-29.9 1.8-23.8 16.6-36 51.1-26.8 78.8 6 18 17.7 22.9 33.6 30.4 29.1 13.6 61.3 23.2 91.7 33.8-.9-7.1-5.3-12.8-7.5-20-11.4-38 6.2-75.6 41.2-92.8l17.3-3.2Zm-6 119c-11.8-26.2-2.6-72.3 19.5-91 3.9-3.3 14.3-6.6 6.5-10.5-46.1-23.3-74.8 42.7-62.5 79.5 3.4 10.3 26.3 19.8 36.5 22m95.1-75.1c-.2-.2-1.6-3.6-2.7-4.9-6.3-7.3-12.2-8.1-21.4-5.6-5.1 1.4-7.7 5.4-13.3 2.4-2.2-1.1-4.5-5.3-6.3-5.7-2.2-.5-6 1.8-8.8 1.8s-4.8-1.3-8-1.1c-9.6.8-20.4 20.5-23 29-4.2 13.9-8 48.6 9.7 54.3 3.9 1.3 10.7.8 13.8 2.2 4.3 1.9 3.2 9.7 9.8 10.3 5.6.5 9.7-5.1 11.9-5.6 3.1-.6 10.6 5.7 14.9 5.9 2.2 0 6.9-1.2 9-2 15.8-6.2 32-53.4 30.3-69.4-.3-2.4-2.1-9.7-3.4-11.6-4.8-6.7-10.8 1.1-12.4 0Z" class="outline" data-original-prefix="outline"/><g id="outline-mouthbit1"><path id="outline-mouthbit" fill="#000" d="M1237.5 1606.4c-.1 0-.3-.2-.4-.3s-.2-.3-.3-.5-.1-.3-.1-.5v-.5s.2 0 .3-.1c.1 0 .3 0 .4-.1s.3 0 .5 0h1.7v-.1s-.1 0-.2-.1-.2 0-.3-.1c-.1 0-.3 0-.4-.1s-.3-.1-.5-.2c-.2 0-.3-.1-.5-.2s-.1 0-.2-.1v-.5c0-.2 0-.4.1-.5s.1-.3.2-.5c0-.1.1-.3.2-.4.1 0 .2-.1.3 0 .2 0 .4 0 .6.2.2 0 .5.2.7.3s.5.2.7.3.5.2.6.3.5.3.8.4.6.3.9.5.6.3.9.5.5.3.7.5c0 .1 0 .3-.1.4s-.1.3-.2.5c0 .2-.2.3-.3.5s-.2.3-.3.3h-.3c-.1 0-.2-.1-.3-.2 0 0-.2-.1-.3-.2 0 0-.2-.1-.3-.2-.1 0-.2-.1-.4-.2s-.1 0-.2 0h-.1v.2c0 .2 0 .2.1.3s.1.3.2.4c0 .1.1.3.2.4 0 .1.1.3.2.4s.1.3.2.5.1.3.1.5v.3l-.3.3c-.1 0-.3.2-.5.2s-.3 0-.5.1h-.5c0-.1-.1-.2-.2-.4 0-.1-.1-.3-.2-.5 0-.2-.1-.3-.2-.5 0-.2-.1-.3-.1-.5s0-.2-.1-.3v-.2h-.3c-.2 0-.4.1-.6.2-.2 0-.3.1-.5.2-.2 0-.3.1-.5.2s-.3 0-.5.1-.3 0-.5 0Z" class="outline" data-original-prefix="outline"/><path id="outline-mouthbit1" fill="#000" d="M1240.8 1608.9c.1-.3.2-.4.4-.5.1 0 .3 0 .5.1.2 0 .4.2.5.3 0 0 .1.2 0 .4 0 .2 0 .4-.1.6 0 .2-.1.4-.3.7s-.2.5-.3.7l-.3.6c-.1.2-.1.3-.2.4-.1.3-.3.7-.5 1s-.5.6-.7.8-.6.4-.9.5c-.3 0-.7 0-1-.1s-.5-.3-.6-.6-.1-.6 0-.9v-.4l-.2.1-.3.3c-.2.3-.5.5-.8.6s-.6 0-.9 0-.2 0-.3-.1-.2-.1-.3-.2l-.3-.3c-.1-.1-.1-.3-.2-.5v-.8c0-.3 0-.6.1-.9 0-.3.2-.7.3-1s.3-.7.4-1 .1-.3.3-.5c0-.2.2-.3.3-.5l.4-.4c.1-.1.3-.2.4-.2h.5c.1 0 .3 0 .5.2.2 0 .4.2.6.3s.5.3.9.4.3.2.5.3l.6.3c.2.1.4.2.5.3.1 0 .3.1.3.1Zm-4.5 1v.9c0 .1 0 .1.2.2q.3.15.6 0c.2 0 .3-.3.5-.6s.1-.3 0-.5c0-.1-.2-.2-.4-.3s-.2 0-.3-.1-.2 0-.2 0-.1 0-.2.1c0 0 0 .1-.1.3Zm2.2 1v.6c0 .1 0 .2.1.3s.2.2.3.2h.5c.2 0 .3-.3.4-.5s0-.2.1-.3v-.2s0-.1-.1-.2-.2-.1-.3-.2c-.3-.1-.5-.1-.6-.1s-.2.2-.3.4Z" class="outline" data-name="outline-mouthbit" data-original-prefix="outline"/></g><g id="cigar-label"><path id="outline-mouthbit2" fill="#000" d="M1277.4 1617c-.2.5-.5 1-.7 1.5-1.5 1.2-2.9 2.4-4.4 3.6-.5.4-1.1.9-1.1 1.7v6.4c-.2.5-.5 1-.7 1.5-.6.7-1.3 1.3-1.9 2-1 1-2 2-3.5 1.8h-1.8c-1.1 0-2.3.2-2.8 1.4-1.1 2.2-2.2 4.4-3.2 6.6-.4.7-.9 1.2-1.7 1.3-2.2.2-4.4.5-6.5.7l-4-1.9s-.1-.2-.2-.3c-2-1.7-3.2-3.7-3.4-6.4-.2-2.2 1-3.8 2-5.6.6-1 1.1-2 1.4-3.1.1-.4-.1-1.2-.4-1.5-.5-.4-1 0-1.5.3-.9.8-1.3 1.8-1.7 2.8-.3.6-.7.9-1.3.7s-.8-.7-.8-1.2c0-.4 0-.8.2-1.2.5-2 .9-4 1.5-6 .7-2.4 1.6-5.2 2.3-7.6 0-.1 0 .1 0 0l3.5-7.6.9-1.5c1.2-1.8 2.3-3.6 3.5-5.4 1.3-1.9 2.8-3.7 4.2-5.6.5-.7 1.2-.8 1.6-.4.6.4.6.8.2 1.7-.5 1-.9 2-.9 3.1 0 .6.2 1.2.8 1.2.5 0 1.2-.3 1.3-.6.7-1.4 1.4-2.9 1.9-4.4.8-3 2.9-4.7 5.8-5.3 1.3-.2 2.7 0 4.1-.1 1.3.6 2.7 1.2 4 1.9 1.2 1.8 2.4 3.6 3.7 5.5.4.6.5 1.3.2 2-.8 1.8-1.6 3.7-2.4 5.5-.2.5-.4.9-.6 1.3-.3.8-.4 1.5.1 2.2l1.8 2.4c.6.7 1.1 1.5.9 2.5-.2 1.4-.2 2.7-.3 4.1Zm-30.2-5.2c-.6 1.9-1.4 3.8-1.8 5.8-.7 3.2 0 6 2.8 8 1.9 1.3 3 1 3.8-.8.6-1.2 1-2.5 1.6-3.7.3-.5.7-1 1.1-1.4 2-1.7 3.3-3.9 3.3-6.6 0-2.2 1.2-3.9 2.1-5.7.7-1.3.9-2.6-.8-3.4-2.5-1.2-5.8-.4-7.9 1.7-1.8 1.8-2.9 4-4.2 6.1m25.7-10.9c1.1-2.3.8-4.1-.2-6-.6-1.1-1.4-2.1-2.8-2.5-3.2-.8-6.3.9-7.6 3.7-.9 2-.8 4.1.4 6 .6 1 1.3 1.9 2.4 2.3 3 1.1 6.5-.7 7.7-3.5Zm-17.4 37.7c.1-.5.3-1 .4-1.5.7-3.1-1.4-7.8-5.8-7.1-2.5.4-4.4 1.7-5.3 3.9-1 2.3-.6 4.7 1 6.7.5.7 1.2 1.4 2 1.6 3 .9 6.4-.7 7.7-3.6m17.6-23.1c.8-1.5.9-3.2.4-4.8s-1.4-3.1-3.2-3.6c-2.7-.7-5.6.6-7 3-1.4 2.5-1.2 5 .4 7.3.6.8 1.3 1.6 2.4 1.8 2.9.5 6-1.2 7-3.8Zm-6.4 13.8c1-1.9.9-3.9 0-5.8-.6-1.3-1.6-2.4-3.2-2.6h-1.9c-2.1.4-3.8 1.4-4.8 3.3-1.1 2.1-1.1 4.3 0 6.4.6 1.1 1.4 2.1 2.5 2.4 3 .8 6.2-.8 7.3-3.7Z" class="outline" data-name="outline-mouthbit" data-original-prefix="outline"/><path id="outline-mouthbit3" fill="#000" d="M1245.4 1597.4c-1.1.6-2.3 1-3.4 1.6-.1 0-.4.2-.2.3l7.1-1.2-2.2-1.4c1.2-.6 2.6-.9 3.7-1.4 0 0 .5-.2.2-.3l-8 .7 2.7 1.8Z" class="outline" data-name="outline-mouthbit" data-original-prefix="outline"/><path id="outline-mouthbit4" fill="#000" d="M1235 1619.9c-.4-1.3-1-2.5-1.3-3.7 0-.1-.2-.4 0-.4l3.9 5.8-2.1-.2c.4 1.3 1.2 2.5 1.6 3.8 0 .1.2.5 0 .5l-4.7-6z" class="outline" data-name="outline-mouthbit" data-original-prefix="outline"/></g></svg>