<?xml version="1.0" encoding="UTF-8"?>
<svg id="eyes" xmlns="http://www.w3.org/2000/svg" version="1.1" viewBox="0 0 2048 2048">
  <!-- Semantic Classes:
    - fill: Areas that can be colored by the user (default: white)
    - shading: Areas that provide depth/shading (default: gray, 50% opacity)
    - outline: Lines that define the shape (default: black)
  -->
  
  
  <path id="fill-eyes-main" d="M1421.5,1220.6c-.3.6-8.8,2-10.4,2.1-4.8.4-15.8-1.8-18,3-2.8,30-4.2,58.5-16.7,86.3-10.3,23-35.2,57.7-58.2,68.8-30,14.6-98,10-129.5-.9-21.7-7.5-62.4-49.9-79.2-67.8-14.7-15.6-36.7-38.2-49-55-2.3-3.1-2.7-8.1-3-8.5-1-1-6.2,1.2-7.9.5-.6-.3-9.2-8-10-9-4.5-5.8-2.4-10.3-12.6-9.6-6.6.5-5.5,5.8-9.5,10.5-.9,1-8.4,7.8-8.9,8-4,1.5-8.1-3.5-15.1,4-18.2,19.5-35.3,41.4-53.9,61.1-19.6,20.7-56.2,59.4-82.8,67.2-31.3,9.1-92.1,13.6-121.9.5-28.7-12.7-59.2-59.7-67.8-89.2-6.3-21.6-6.6-45.2-9.7-67.3-2-3.1-15.1-2.3-19.2-2.8-1.7-.2-7.5-1.2-8.4-2.1-2.5-2.5-2.8-27.2-4.3-32.3-.2-1.4.3-1.4,1.3-1.8,5.7-2.5,20.8-1.6,25.3-5.7,6-11.4,9.3-26.8,19.4-35.6,2.6-2.2,6.7-2.1,4.6-5.5-2.7-4.3-20,0-21.5-7.5-1.3-6.8,5.7-32,8-39.9,7.8-26.3,27.3-70.8,46.9-90.1,6.5-6.4,7.6-3.2,14.5-4.5,3.3-.6,5.3-6.7,7.5-9.5,40.7-50.5,92.3-93.3,151.6-120.4,80.5-36.8,209.6-37,290-.3,59.2,27,110.4,69.5,151.3,119.7,2.3,2.8,5.7,9.9,8.6,10.5,7.2,1.4,8.7-2.3,15.5,4.5,24.3,24,47.4,83.1,53.5,116.5.6,3.2,2,10.7,1.4,13.5-1.6,8.2-20.9,1.9-22.8,8.2-1.9,6.2,5.4,12.9,8.3,18.3,2.4,4.4,8.1,20.4,9.9,22.1,4.7,4.2,23.9,4.2,25.1,5.9,1.8,11.6-1.8,22.9-2.4,34.1" class="fill" fill="#ffffff"/>
  <path id="fill-eyes-rims" d="M1415.7,1206.8c-.2-3-.4-6.1-.6-9.1-.3-5.7-4.5-10.5-10.5-10.5h-6.3c-1.2,0-2.4.2-3.4.5-.9-.3-1.9-.6-2.9-.8-2.3-.3-4.7-.3-7.1,0,2-23.3-16.1-42.7-36.1-51.8-11-5-22.6-8-34.3-11.1-12.5-3.2-24.9-6.7-37.4-9.7-8.8-2.2-17.6-3.5-26.5-4.3,2.5-6.2-.6-14.9-9.3-14.9-85.4,0-170.8.3-256.2.4h-68.7c-1-.3-2.2-.5-3.5-.5h-104.7c-9.6,0-12.4,10.7-8.3,16.8-10.3,1.4-20.6,3.2-30.8,5.2-24.8,4.8-50.1,10.3-72.3,22.8-11.9,6.7-23.7,15.6-30.8,27.5-2.9,4.9-4.7,10.2-5.6,15.7-1.1-.2-2.3-.4-3.6-.3-3.6.2-6.7,2.1-8.5,4.8-1.5-.2-2.9,0-4.3.2-2.5-1.2-5.4-1.6-7.8-1-6,1.7-8.2,7.3-7.3,12.9.7,4.2,1.3,8.4,1.9,12.7.7,4.6,5.9,7.6,10.1,7.7h3.6c3.3,1.9,5.7,5,7.4,8.5,1.3,2.7,3.9,4.3,6.7,4.9,4.4,36.9,9.5,75.8,31.7,106.7,21.4,29.8,54.4,44.8,90.2,48.7,18.6,2,37.9,1.2,56-3.7,16.9-4.5,32.8-12.5,47.3-22.2,14.8-9.9,28.4-21.5,41.3-33.7s25.6-24.8,36.6-38.7c12.9-16.2,23.6-34,29.3-54,5-17.3,6.2-35.5,4.1-53.3,14.6-1.9,29.3-3.3,44-2.5,4,.2,8,.6,12,1.3.3,0,1.7.3,3.2.7l-1.4,29.7c-.2,3.2.9,5.6,2.6,7.2,2.2,11.9,4.2,24.9,10,35.4,3.2,5.7,7.2,11.1,10.9,16.5,2.2,3.3,4.4,7,6.9,10.4,0,1.6.5,3.2,1.5,4.6,10.8,14.4,24.5,25.8,37.8,37.7,13.4,12,26.5,24.7,41.2,35.2,27,19.4,60.3,29.7,93.5,29.9,2.9,0,5.2-.9,6.9-2.5,15.4-1.6,31-3.4,45.7-8.6,16.6-5.8,29.9-15.5,40.5-29.5,21.2-28,34.4-62.2,39-96.9,1.3-10,2-20,1.8-30.1,0-2.2,0-4.4-.2-6.6.2.2.5.3.8.5,5.8,3.5,13.2,3.4,18.9,0,2.8-1.8,5.2-5.4,5-9v.2h0ZM951.2,1270c-9.4,13.1-20.7,24.8-32.2,36.1-11.2,11-22.7,21.8-35.2,31.3-12.2,9.3-25.6,17.9-39.9,23.4-15.8,6.1-32,8.6-48.8,8.2-29.5-.6-60.2-9.5-80.7-31.8-26-28.3-30.8-69.3-35.2-105.8-.2-1.9-.8-3.7-1.7-5.3.2-1.5.2-3,0-4.5-.5-3.1-1.1-6.2-1.6-9.3,6-9.2,2.6-20,6.1-29.9,3.1-8.9,11.3-15.5,18.9-20.5,19.3-12.7,42.2-18.1,64.5-22.8,48.7-10.1,100.1-15.6,149.1-4,20.8,4.9,43.5,13.1,54.7,32.6,1,1.8,2.4,3.1,3.8,3.9-.5,1.9-.6,3.9-.2,5.6,6.7,33.2-2.3,65.8-21.6,92.8M1062,1160.3c-.3,1-.5,1.9-.5,2.8-4.3-1.2-9.1-1.7-13.3-2.2-19.8-2.5-39.7-.2-59.4,2.5.2-1.9-.2-3.9-1.4-6-11.7-20.4-32.8-32.1-54.6-38.9l-6-1.8c66.8,0,133.6-.2,200.3-.3-1.7.4-3.3.8-5,1.3-12.5,3.6-24.6,9.6-35.9,16-10.9,6.1-20.3,14.3-24.2,26.6M1370,1227.4c0,9.5-.8,19.1-2.4,28.5-3.2,18.9-9.2,37.2-18,54.2-8.1,15.6-17.6,32.9-33,42.2-16.3,9.9-36.1,12-54.7,13.9-2.3.2-4.4,1-6.2,2.2-29.3-.5-57.7-9.9-81.5-27-1.4-1-2.8-2-4.1-3.1-1.1-3.4-3.9-6.2-8.2-6.7-8.4-7.2-16.4-14.9-24.6-22.2-10.4-9.3-21.8-18.2-30.9-28.9,0-2.9-.8-5.7-3-7.5-4.3-3.5-7-8.9-10.1-13.5-3.3-4.9-6.9-9.8-9.9-14.9-2.6-4.6-3.4-10-4.6-15.1-1.5-6.5-2.9-13.1-4.2-19.6-.2-.7-.4-1.4-.7-2.1.7-10,1.8-20.3,1.3-30.2,0-1.8-.4-3.4-.9-4.8,3.4-.6,6.5-2.9,7.9-7.1,2.3-7.2,9.6-11.4,15.8-14.8,8.9-4.9,18.1-9.6,27.8-12.6,21.1-6.6,44.6-6.7,66.4-7.6,11.4-.5,22.7-.7,34.1-.8,11.3,0,22.7,0,33.9,2,11.3,2.1,22.4,5.4,33.6,8.3,10.4,2.7,21,5.3,31.3,8.3,17.9,5.3,40.8,16.5,38.6,38.8-.4,4.1,2.5,7.7,6.1,9.4l-.6,1.5c-1.5,4.5,0,9.9.3,14.6.5,5,.6,9.8.5,14.6" class="fill" fill="#ffffff"/>
  <path id="fill-eyes-lens1" d="M1179.4,1134.1c40.9-2.7,97.1,4.9,136.2,17.2,22.2,7,37.6,14.4,44.9,38.1,14.9,48.3-2.6,130.7-47,159.8-31.6,20.8-93.5,20.9-124.8-1-21.1-14.8-46.4-35.3-63.6-54.4-29.9-33.2-63.5-74-40-121,15.1-30.3,63.8-36.7,94.3-38.7" class="fill" fill="#ffffff"/>
  <path id="fill-eyes-lens2" d="M834.5,1134.1c35.7-1.8,110.2,1.6,129,37.4,25.1,47.6-10.3,90.4-40.8,123.8-16.7,18.3-57.6,53.5-80,62-40.4,15.3-96.8,9.2-126-25-28.6-33.3-50.7-133.3-14.9-165.9,21.7-19.9,102.6-30.8,132.7-32.3" class="fill" fill="#ffffff"/>
  <g id="eyes-shaded">
    <path id="shading-eyes16" d="M1263,1369l77.9-202.4-35.9-17.6-86.3,216.8c-7.7-3.2-18.2-4.6-25.4-8.6-1.1-.6-2.3-.9-2.1-2.5l83.8-214.1,3.1-1.1c-.8-.4-.7-1.8-1.3-2.2-2.8-2.2-33.1-5.4-39.2-6.2-13.5-1.9-25.5-2.1-39-6-1.4-.4-3.1,0-3.4-2,34.4-1.4,68.6,1.9,102.2,9.3,60.3,13.2,86.9,33.8,81.8,100.2-4.3,56.4-23.6,106.8-78.8,129.2-12.1,4.8-24.6,6.4-37.4,7.2" class="shading" fill="#aaaaaa" style="opacity: 0.5"/>
    <path id="shading-eyes15" d="M1068,1185c4.4,6.7-1.2,7.5-2,11.5-2.6,13.5,4.2,36.9,3.5,51.4,26.1,33.1,54.5,68.2,87.6,94.4,9.4,7.5,24.7,19.5,35,25,22,11.8,82.3,10.8,107.3,6.4,5.1-.9,19.6-6.7,22.7-3.4,3.6,3.9-1.3,5.4-4,7-23.1,13.8-56.4,9.4-82.5,7.5-12.8-.9-39-2.2-50.2-5.8-8-2.6-29.2-21.2-36.3-27.7-26.1-23.9-48.5-51.5-74-76-13.8-13.2-29.1-24.5-42.5-38.5-1.1-1.2-2-3.4-2.9-4.1-.8-.6-7.7-1-9-.9-2,.2-17,17.3-20.5,20.5-7.2,6.4-16.1,11.4-23,17.9-33.4,31.5-60.8,69.3-97.5,97.5-19.5,15-31,13.9-55,16-22.9,2-62,6.4-83-1-2.1-.7-15.4-7.1-16-8-2.2-3.6,1.6-6.1,4.9-6,3.6,0,7.3,2.8,10.6,3.5,28.8,6.1,75.6,6.2,104.3-.8,9.4-2.3,18.7-9.8,26.7-15.3,26.6-18.6,50-41.2,71.6-65.4,5.6-6.2,34.7-40.5,35.4-45.6,2.3-15,1.5-32.7,3.1-48,.5-3.2-3.9-4.3-4.1-7-.2-2.5,2.2-3.2,2.1-5.4-4.5.8-11-4.6-6.6-8.1,3.7-2.9,4.7,2.1,7.3,2.9,5.5,1.7,7-1.6,10.8-2.8,29.1-9.3,36-9.4,65.1,0,3.7,1.2,5.2,4.5,10.8,2.8,2.2-.7,3.1-4.4,6-3.7,5.7,1.9,0,10.6-5.7,9.2M1038,1185c-9.5-1.8-18.7-3-28,.5,5.4,1.1,7.7,5.6,9.3,10.7,1.5,4.7-1.1,8.7,6.2,7.9,2.9-.3,2.4-5.8,3.4-8.6.6-1.7,2.2-5.7,3.2-6.8,2-2.5,4.8-1.4,5.9-3.7M1053,1197c-.2,0,0,1.8-1,2.4-7.9,5.8-11.5,9.7-21.5,9.6-5.1,0-8.6-.2-13.9,0-11.1.4-14.8-6.6-23.5-12.1l-3,30c2,2,17.7-4.1,21.5-4.1,5.8,0,8.3,4.7,16.8,2.9,1.8-.4,3.2-1.9,4.7-2.3,7.2-2,17.2,4.9,25,3.5l-3-29.5c0-.8-2-.5-2.1-.4" class="shading" fill="#aaaaaa" style="opacity: 0.5"/>
    <path id="shading-eyes14" d="M1119,1095c10.8-7.5,22.7-13.9,34.3-20.2,23.5-12.8,49.4-20.6,66.1-41.9,11.6-14.8,20.3-27.2,12.4-46.3-12.8-31.1-52.4-80.9-79.9-100-14.9-10.4-32.6-16.6-45.9-29.1,9.3.7,20.3,4.3,29.5,7.5,66.1,22.7,136.7,74.8,177.9,131.1,2.8,3.8,12.4,14.4,8.3,18.7-3.2,3.3-25.6,8.5-31.7,10.8-38.2,14.4-82.4,31.5-116.9,53.1-3.8,2.4-21.2,16.4-22.6,16.4h-31.5Z" class="shading" fill="#aaaaaa" style="opacity: 0.5"/>
    <path id="shading-eyes13" d="M897.5,1095c-1.5-.4-19.2-14.3-23.2-16.8-34.2-21.3-79.2-38.9-117-53-5.4-2-30-7.6-31.8-11.2-1.9-3.9,2.8-9.6,5.1-12.9,27.2-39.7,72-78.2,113.1-102.9,30.2-18.2,63.6-34.2,98.3-41.2-12,12.1-28.8,18.2-42.9,27.6-25.1,16.6-49.7,46.7-66.1,71.9-4.3,6.6-20.6,33.7-20.8,40-.5,14.1,11,30.6,19.9,41,15.3,17.9,40.9,24.1,60.6,36.4l36.3,21.1c-8.1-1.5-24.5,2-31.5,0" class="shading" fill="#aaaaaa" style="opacity: 0.5"/>
    <path id="shading-eyes12" d="M875.3,1338.3c-4.1,3.7-6.6,10.1-9.4,13.1-1.1,1.2-9.2,6.5-7.7,1.3l79.9-204.7c2.3-1.9,13.8,7.4,16,9.4,16.1,14.9,20.1,37.7,17.9,58.9-3.8,35.8-44.3,79.1-70.9,102.1-8,7-18.5,13.3-25.8,19.9" class="shading" fill="#aaaaaa" style="opacity: 0.5"/>
    <path id="shading-eyes11" d="M778.5,1369c-.7-.2-1.6-1.6-1.5-2.5l91.7-234.6c9.8,2.2,20.1,2.1,29.9,4.1,1.2.2,1.8-.8,1.5,1.5l-91.6,231.5c-5.9,0-26.2,1.2-30,0" class="shading" fill="#aaaaaa" style="opacity: 0.5"/>
    <path id="shading-eyes10" d="M1173,1133l-63.5,147c-.8,0-9.2-10.7-10.5-12.5-6.1-8.5-13.4-18.9-17-29-7.5-20.7-9.4-43.8,0-64.2,15.6-34.6,58.3-36.5,91.1-41.3h0Z" class="shading" fill="#aaaaaa" style="opacity: 0.5"/>
    <path id="shading-eyes9" d="M1254.8,1109.8c-.2.4-7.5,3.9-8.3,4.2-7,2.4-26.3.2-35,0-34.8-1-70.2-1.7-105-2-20.2-.2-40.1,1-60,1-70.4,0-140.6-1.1-211.1,1-8.6.3-27,2.4-34,0-.8-.3-8-3.8-8.3-4.2-.7-1.2-.4-6.1.8-7.4,3.3-3.4,9.3.3,13.5.6,27.4,1.9,59.2,1.5,87,2,89.1,1.7,177.1.6,266-1.1,25.9-.5,54.5.8,80.1-.9,3.7-.3,11.5-4.2,14,0,.7,1.3,1,5.9.3,6.9h0Z" class="shading" fill="#aaaaaa" style="opacity: 0.5"/>
    <path id="shading-eyes8" d="M768,1115c.3,1.4-1.1,1.1-2.2,1.3-18.2,4.5-36.7,6.8-55,12-5.2,1.5-14.4,6.4-18.8,5.3-3.5-.9-8.9-4.9-12.3-6.7-1.4-.7-7.4-2.5-7.7-2.8-1.4-1.9,3.7-3.1,4.9-4.6,4.7-5.7,8.4-20.1,13.3-26.7,1.1-1.5,1.3-2.2,3.4-2.6,4-.8,27.7-.5,31.5.4l42.9,24.4h0Z" class="shading" fill="#aaaaaa" style="opacity: 0.5"/>
    <path id="shading-eyes7" d="M1376,1124c-.3.4-6.9,2.3-8.4,3.1-3.3,1.7-8.2,5.5-11.6,6.4-4.4,1.2-13.6-3.8-18.8-5.3-18.3-5.2-36.4-7.3-54.4-11.6-1-.2-3-.3-2.8-1.7l42.7-24.8c5.9.5,30.6-1.8,33.8.8,4.6,3.8,9.2,22.8,14.6,28.4,1.3,1.4,6.2,2.9,4.9,4.7" class="shading" fill="#aaaaaa" style="opacity: 0.5"/>
    <path id="shading-eyes6" d="M1075,1141c1.6-3.5,12.5-25.6,14-26.5,1.9-1.1,14.6-1.1,16.1.9,6.7,8.5-8.9,12.6-13.8,15.4l-16.3,10.2h0Z" class="shading" fill="#aaaaaa" style="opacity: 0.5"/>
    <path id="shading-eyes5" d="M945,856c.7.3-.6,1.7-2,1-.7-.4.6-1.7,2-1" class="shading" fill="#aaaaaa" style="opacity: 0.5"/>
    <path id="shading-eyes4" d="M1105,856c.7.3-.6,1.7-2,1-.7-.4.6-1.7,2-1" class="shading" fill="#aaaaaa" style="opacity: 0.5"/>
    <path id="shading-eyes3" d="M958.8,1114.2c1.4.8,13,24.2,14.7,27.8-3.8-2.6-7.3-5.4-11.2-7.8-3.7-2.2-18.8-9-19.8-11.2-1-2.3-1.1-7.2,1.5-8.5,1.5-.7,13.7-.9,14.8-.3" class="shading" fill="#aaaaaa" style="opacity: 0.5"/>
    <path id="shading-eyes2" d="M853,1123c0,1.5-2.5,1.6-3.6,1.9-23.2,6.6-47.2,5.9-70.6,10.4-7.2,1.4-8.4.3-8.5,8.4-21.2,48.4-48.3,94.5-69.1,143-2.7,6.2-7.1,16.1-6.1,22.8.6,4.2,9.6,17.5,12.5,21.5,3.7,5,9.7,9.4,11.9,15.1-24.6-17.6-39-48.9-45-77.9-13.8-66.2-11-111.9,60.3-131.8,38.3-10.7,78.5-14.6,118.2-13.4" class="shading" fill="#aaaaaa" style="opacity: 0.5"/>
    <path id="shading-eyes1" d="M721.5,1346c.7.3.7.7,0,1v-1Z" class="shading" fill="#aaaaaa" style="opacity: 0.5"/>
  </g>
  <g id="outline-eyes" class="outline">
    <path id="outline-eyes2" d="M993,1256c-1,4-2,4.8-4.5,8-14.2,18.2-34.4,39.6-50.5,56.5-17,17.9-47.1,49.2-67.7,61.3-24,14.1-91.5,17.2-118.5,11.9-29.6-5.8-47.2-25.6-64-49-25.1-35-31.7-73.2-32.8-115.7h-17.5c-.5,0-7.7-1.5-8.3-1.7-4.5-2-5.8-20.7-6.2-25.8-.3-3.7-1.6-15.3.5-17.5,3.5-3.7,22.8-2.9,26.3-6.2,1.1-1.1,2.7-8.4,3.7-10.8,3.6-8,7.8-15.8,13.5-22.5-14.5-3.8-23.3,2.8-22-17,1.8-29,22-77.6,37.6-102.4,4.3-6.9,20.8-32.7,28.8-32.1,2.1.2,3.9,2.7,5.6,1.6.5-.3,4.7-7.4,6-9,42.4-52.1,97.9-98.4,160.3-124.7,80.6-34,211.7-32.3,291,4.3,44.4,20.5,92.8,56.2,126.2,91.8,6.8,7.2,23.5,25.4,27.9,33.1,1.2,2,1.8,3.5,1.6,6,3.5-.3,5.5-3.6,9.3-2.8,1.8.3,7.3,4.8,8.8,6.3,11.7,11.9,33.9,51.3,39.6,67.4,4.9,13.6,16.7,54.3,16.1,67.4-.6,12.3-13.3,7.2-21.8,9.8-1.2,1.5,3.7,6.8,4.8,8.7,3,5.3,6.6,11.9,9.1,17.1.9,1.9,1.5,7,2.3,8,3,3.5,25,2.6,26.6,6.9.4,1.1,0,3,0,3.3l-3,34c-.5,1.2-.2,2.5-1.3,3.7-4.4,5.2-23.1,1.8-25.6,3.4-.4.3-.7,5.3-.8,6.5-.7,9.2-1,10.5-2.1,20-.2,1.5-1,7.5-2.2,14.4-7.3,46.4-41.9,113.1-92.2,123.3-27.5,5.6-95,2.9-119.5-11.1-25.2-14.4-61.4-54-81.8-76.2-11.4-12.4-29.7-31-38.9-44.1-3.2-4.5-2.7-6-3.6-10.9-3.9-20.4-3-38.7-5-58.5-.2-1.4-.8-5.7-1.5-6.5-3-3.8-26.8-4.4-32-4-3.8.3-14.8,2.1-16.1,5.9-.7,11.2-.5,22.4-1.5,33.6-.7,9.7-2.3,24.8-4.8,34.3h.1ZM797.5,1091h90.5c-10.2-9.4-23.2-15.1-33.9-23.6-1.1-.9-8.4-6.1-7.1-7.4,21.5,6.1,37.4,23.6,58.6,30.9h236c22.1-5.8,38.1-24.5,59.9-31,1,2.5-4.7,5.9-6.6,7.4-10.8,8.4-23.7,14.3-33.9,23.6h91.5c.5,0,5.1,5.2,5.7,6.3,1.5,2.9,1.8,10.4,2.4,10.8,2.4,1.4,18.4,2.4,22.7,3.1,19.7,3.2,40.8,7.2,59.8,13.2,3.1.9,12.4,5.7,14.3,5.7s14.7-7.8,18.5-8.6c1-14.6-5.9-28.1-11.9-41-3.3-7.2-7.2-15-11-22-2.4-4.5-16.1-28.6-18.6-30.4-2.9-2.1-20.6-1.2-25.1-.9-14.3.9-28.6,3.6-42.5,7-1.9-1.7,12-11.3,13.3-12.2,8.4-5.8,17.8-10.6,26.8-15.4-4.4-19.8-20.1-36-34.6-49.4-58.1-53.7-155.6-100.6-235-104-90.4-3.8-194.3,42.3-260.5,102.5-14.8,13.4-31,29.9-35.9,49.9,9,5.9,18.8,10.3,27.6,16.4,1.3.9,15.2,10.6,13.3,12.2-13.9-3.4-28.2-6.1-42.5-7-4.5-.3-22.2-1.2-25.1.9-2.5,1.8-16.2,25.9-18.6,30.4-3.8,7-7.7,14.8-11,22-5.9,12.8-13,26.6-11.9,41,3.1.7,16.9,8.6,18.4,8.5,1.6,0,11.5-5.1,14.9-6.1,26.3-8,53.9-11.8,81.1-15.7,1.2-.6.2-15.3,10.4-17.1M819,1100h-16.5c-4.4,0-4.4,9-2,9h15.5c.5,0,2.3-7.9,3-9M1223,1109c.5-4.6-1.9-7.1-6-8.5h-387c-3.9,1.8-4.8,4.8-6,8.5h399ZM1245.5,1100c-4.7-.9-11.5.6-16.5,0,.5,1.5,2.6,9,3.5,9h15c2.2,0,2.5-8.2-2-9M793.8,1117.3c-27.5,2.3-85.6,15.5-108.1,30.9-17.2,11.7-21.7,48.9-21.7,68.4-.2,51.9,12.7,106.6,51.5,143.5,34.7,33,102.4,26.3,144,10,25.7-10.1,68.2-56.5,88-78,7.7-8.4,28.7-30.1,33.4-38.6,3.5-6.4,6.5-45.2,7.1-54.9s-7.1-7.4-7.9-4.8c-.3.8,1.1,10.8.9,13.8-2.8,50.6-57.6,103.7-95.5,133.5-41.3,32.5-108.5,45.8-155.4,17.4-48.2-29.2-73.2-143.5-44.2-191.1,8.5-14,33.7-22.3,49-27.1,54.7-17.2,174-27.9,220.2,11.2,2.6,2.2,12.7,14.2,13.6,14.4.6,0,9.7-4.7,11.3-5.5-10.2-22.7-43.3-32.7-66-37.9-32.6-7.6-86.5-8-120.2-5.2M1066.9,1192.1c-.8-.5-5-.3-5.9.3-1.3.9-1,3.6-1,5.1,0,12,2.4,30.7,4.2,42.8.4,2.7.7,6.3,1.3,8.7,1.9,7.2,28.3,35.6,35,43,21.6,23.5,62.8,69.1,91.8,79.2,34.2,12,96.1,19.8,127.5-1,26.7-17.7,46.4-53.3,55.5-83.5,9.2-30.4,14.1-104.1-4.8-130.7-7.2-10.1-36.4-21.9-48.7-25.3-54.7-15.5-139.3-21-194.2-6.7-16.9,4.4-45.7,14.5-56,29-7.8,10.9.2,7.8,7.8,12.9,21.9-30.3,61.3-36.4,96.1-39.9,48.3-4.9,131.7,3.4,173.8,29.2,28.1,17.2,27.4,67.3,23.6,96.2-5.3,39.8-28.8,99.1-69.3,113.7-82.7,29.8-142.3-17-194.5-74.5-21.3-23.4-39.8-49.1-42-82-.3-2.9.9-15.8-.2-16.5M1095,1119h-141c3.5,8.3,13.6,11.1,20.5,17,7.4,6.2,13.3,14.2,19.1,21.9l58.9.2,2.9-1.1c5.2-8.5,12.3-16.7,20.2-22.8,4.7-3.6,13.8-7.5,17.3-10.7,1.2-1.1,2.3-2.8,2.1-4.5M833.8,1134.3c-30.1,1.5-110.9,12.4-132.7,32.3-35.8,32.6-13.7,132.6,14.9,165.9,29.2,34.1,85.6,40.3,126,25,22.4-8.5,63.4-43.7,80-62,30.5-33.4,65.9-76.2,40.8-123.8-18.9-35.8-93.4-39.2-129-37.4M1178.8,1134.3c-30.6,2.1-79.2,8.5-94.3,38.7-23.5,47,10.1,87.9,40,121,17.2,19.1,42.5,39.6,63.6,54.4,31.3,21.9,93.2,21.8,124.8,1,44.4-29.2,61.9-111.5,47-159.8-7.3-23.7-22.7-31.1-44.9-38.1-39.1-12.3-95.3-19.9-136.2-17.2M1072.7,1172.2c-1.2-1.1-8.5-2.6-10.5-2.9-19.1-3.4-64.9-4.5-83,1.4-3.8,1.2-5.3,1.4-5.3,5.8,0,9.1,6.6,8.9,14.2,7.1,4.5-1.1,8.5-6.5,14.1-7.9,10.5-2.6,39.3-2.8,48.5,2.1,7.3,3.9,9.2,8.3,19.8,6.2,3.5-.7,4.5-9.7,2.2-11.8M636,1196.5c-.7,2.2,0,13.5,0,17s14.9.4,18,1.5c-1-2.1,1.7-22.1.5-22-3.2,1.8-17.4,0-18.5,3.5M1412,1213.5c.8-2.7,0-13.2,0-17s-16-1.9-18.5-3.5c-1.2,0,1.5,19.9.5,22,3.9-1.3,16.8,2.8,18-1.5" class="outline" fill="#000000"/>
    <path id="outline-eyes1" d="M998,1252c11.2-12.1,21.2-29.1,19.5-46,5.4,3.1,9.1,2.3,14.5,0-2.8,10.5,3,24,8.8,32.7,1.6,2.5,10.1,11.5,10.2,12.3.6,3.3-5.9,8.9-7,8-.9-5.7-7.9-7.8-12-12.5-1.3-1.5-3.3-4.1-4.3-5.8-1.4-2.5.7-4.5-4.3-3.8-2.1.3-5,8-7.5,10.6-3.5,3.8-10.8,6.1-11,11.5-1,1-7.1-4.8-6.9-7" class="outline" fill="#000000"/>
  </g>
</svg>