<?xml version="1.0" encoding="UTF-8"?>
<svg xmlns="http://www.w3.org/2000/svg" id="navigators" viewBox="0 0 2048 2048"><defs/><path id="fill-eyes-skull" d="M1306.9 1006.8c-13.7 7.2-27.9 15.8-40 25.6-1.1.8-2.5 0-1.9 2.6 8.3-1.5 16.1-4.8 24.5-6 8.7-1.3 24.5-3.1 33-3 1.5 0 11.8.9 12.3 1.2 1.6.9 16.3 27.2 18.4 31.1 4 7.3 8.2 15.7 11.7 23.3 5.7 12.5 12.7 26.1 11 40.2l-22.1 10.1c-1.5.7-1 3.8-2.3 4.1-2.7.6-23.7-3.6-28.9-4.1-42.8-4.2-88.2-4.2-130.9-4.1-26.6 0-52.9 1.3-79.5 1 20-19.2 44-35.8 67.1-51.4 3.6-2.4 8.7-4.4 11.8-7.2.9-.7 3.3-2.2 1.6-3.4-31 12.5-59.9 29.4-89.8 44.2-6.6 4.5-8.7 12.7-13.4 18.8-35.1.4-70.6 2.2-105.8 1-7.7-.2-15.8-1.8-23.8-1.2-2.3-.7-8-12.4-10.7-15.3-5-5.3-39.4-22.2-48.3-26.7-6.6-3.3-38.7-19.5-43.2-19.8-.6 0-1.7-.3-1.5.5 27.3 19 56.1 37.2 80 60.5-26.2.3-52.3-.9-78.5-1-35.6 0-73.3-.2-108.9 2.1-17.6 1.1-35.1 3.8-52.5 6 0-1.1.4-2.9-.2-3.8-1-1.7-20.3-8.5-22.7-10.8-1.8-13.2 4.5-25.3 9.7-37 8.9-19.9 20.2-38.5 31.4-57.1 4 .5 8.8-1.2 12.3-1.2 8.5 0 24.3 1.7 33 3 8.1 1.2 15.5 4.5 23.5 6-4.9-5.7-11.8-10.2-18.1-14.4s-15.7-8.2-20.8-12.2c-1.3-1-2.9-2.1-3-3.9 0-1.5 4.1-10.8 5.1-12.9 16-32.3 84.7-79.8 116.5-98.5 93.2-54.7 233.8-53.4 326.2 2.4 32.8 19.8 104.9 69 116.8 105.2.4 1.3 1.7 5.2 1.2 6.1z" class="fill" fill="#ffffff"/><g id="fill-eyes" class="fill" fill="#FFFFFF"><path id="fill-eyes8" d="M795.8 1140.3c28.3-.6 57.5 2 85.6 5.8 25.3 3.5 69.5 10.7 89.6 26.4 21.9 17.2 39.3 55.5 26.2 82.1-8.5 17.3-25.9 40.5-37.3 56.7-15.4 21.8-38.8 56.7-61.8 69.2-93.1 50.5-204 10.9-245.9-85.2-9.4-21.7-8.6-30.5-6.1-53.8 2.3-21.5 7.7-50.4 15.5-70.5 4.3-11 8.3-14.3 19.2-18.8 27-11.1 84.5-11.3 115.1-11.9Zm-12 10c-21.1.7-46.5 1.4-67.3 3.7-72.2 8.1-73 112.8-44.3 161.3 30.4 51.4 104.8 87.8 163.8 75.2 63.1-13.5 90.4-48.9 125.8-98.2 20.8-28.9 43.3-56.4 21-92.6-17.3-28.1-49.2-39.4-80.4-43.6-38.3-5.1-79.9-7.1-118.6-5.8" class="fill" fill="#ffffff"/><path id="fill-eyes7" d="M1225.8 1140.3c33.5-1.6 79.3.8 112.7 4.7 13.6 1.6 38.9 7.4 45.7 20.3 11.3 21.3 19.6 78.7 19.9 103.2 0 11.4-11.7 35.1-17.6 45.5-45.4 80.7-143.3 110.1-227.2 71.2-21.8-10.1-29.6-19.5-44.3-37.7-19.3-23.8-51-66-64.2-92.8s4.1-64.4 25.7-81.7c27.9-22.4 112.8-31 149.3-32.7m-9 10c-10.3.4-21 .9-31.3 1.7-43.4 3.4-96.5 7.3-121 49-21.1 35.9 1.3 62.9 21.7 91.3 35.5 49.4 63.2 85.2 126.6 98.4 59.2 12.3 134-24.8 163.7-76.7 27.8-48.5 26.8-151.9-45-160-35.3-4-79.1-5-114.7-3.7" class="fill" fill="#ffffff"/><path id="fill-eyes6" d="m1139 1141-33.2 8.3-21.2 6.8c-38.8-3.2-84.1 4.1-122 0-5.6-.6-14.2-5.1-20.3-6.7-11-3-22.1-5.5-33.2-7.8l230-.5h-.1Z" class="fill" fill="#ffffff"/><path id="fill-eyes5" d="M637.9 1218.1c.7 1-2 23.1-3 23.7-4.5-.6-16.9.2-19.5-2.8s-2-22.4 1.6-24.6c2.3-1.4 17.2 3.1 20.9 3.7" class="fill" fill="#ffffff"/><path id="fill-eyes4" d="M1413.1 1241.9c-1.2-.8-3-20.5-3-23.7.6-.9 19.8-4.3 20.9-3.7 2.9 1.8 3.9 20.2 2.5 23.5-2 4.6-15.5 3.2-20.3 3.9Z" class="fill" fill="#ffffff"/><path id="fill-eyes3" d="m1042 1205-3.6 13.1c-10.1-3.1-19.1-2.3-29.3-.2-.5-3.6-3-7.9-3.1-11.4 0-2.3 0-1.2 1.5-1.5 11.2-2.3 23.2-.8 34.5 0" class="fill" fill="#ffffff"/><path id="fill-eyes2" d="M730.8 1163.3c30.7-2.5 65.6 3.5 96.7 1.7 46 3.6 120.3-1 147.3 45.7 17.8 30.8-18.3 78.3-38.3 101.3-39 44.9-89.2 83.1-152.5 67.5-74.3-18.3-123.1-70.5-118-150.1 2.5-39.8 25.2-62.9 64.8-66.2Z" class="fill" fill="#ffffff"/><path id="fill-eyes1" d="M1298.8 1163.3c46.4-.5 79.7 13.8 83.2 65.2 4 57.5-21.2 106.9-72.3 133.7-82.6 43.2-141.7 15-198.2-50.2-21.2-24.4-57.9-72.4-36.3-104.3 28.6-42.2 94.3-39.8 139.3-41.7 27.9-1.2 56.3-2.4 84.3-2.7" class="fill" fill="#ffffff"/></g><path id="outline-eyes15" d="M1371.5 1187c15.8 20.8 15.5 53.3 12.4 78.3-3.5 28.1-20.7 62.2-42.4 80.6-29.5 25.1-78.3 42.7-117 40.1-4.8-.3-30.8-5.2-33-8-1.1-1.5-.2-1.6.5-2.6 2.9-4.1 8-9.4 11.5-13.5 52.6-61.5 109.8-118.9 168-175Z" class="outline" fill="#000000"/><path id="outline-eyes14" d="M983 1229c.3.3 4.8-.2 6 0-.9 16.8-8 28.2-16.8 41.7-38.5 59.1-94.4 120.9-171.8 115.3-2.8-.2-19-2.7-19.5-4.6 55.7-67.3 117-129.7 180-190 3-1.4 7 3.8 9 6 5.4 5.9 11.3 15.4 12.7 23.3.3 1.9 0 8 .2 8.3z" class="outline" fill="#000000"/><path id="shading-eyes13" d="M948.5 1139c-.8-.2-9-11.1-11.5-13.5-50.3-47.6-115.6-76.4-179.7-100.3-5.5-2-29-7.5-31.3-10.6-2.9-4 2.2-9.9 4.6-13.5 27.2-39.6 72-78.2 113.1-102.9 30.2-18.1 63.6-34.2 98.3-41.2-12 12.1-28.8 18.2-42.9 27.6-25.7 17-51.7 48.9-68.1 74.9-3.8 6.1-18.6 31.3-18.8 37-.7 18.9 17.8 39 30.3 51.5 39.3 21 81 39.4 116.3 66.7L972 1139c-6.1-1.1-18.3 1.5-23.5 0" class="shading" fill="#aaaaaa" style="opacity: 0.5"/><path id="shading-eyes12" d="m1076 1139 13.2-24.3c35.2-27.4 77.1-45.7 116.3-66.7 7.5-5.6 25.1-28.4 27.8-37.2 4.8-15.3-1-24.5-8.1-37.5-16.5-30.1-47.7-69.7-76.3-88.7-14.2-9.5-31-15.2-42.9-27.6 31.9 6.4 62.5 20.8 90.7 36.8 45.1 25.7 89.8 63.8 119.7 106.3 2.5 3.5 9 10.9 5.3 14.7-3.2 3.3-24.9 8.2-31 10.5-61.1 22.6-111 44.7-162.2 85.8-10.5 8.4-21.5 16.6-29 28H1076Z" class="shading" fill="#aaaaaa" style="opacity: 0.5"/><path id="outline-eyes11" d="M834 1163c-8.3-1.4-9-.6-15 4.5-35 29.6-73.6 71.6-106 105-8.7 9-23.2 28.2-32.5 34.5-.8.6-1 1.4-2.5 1-2.5-7.6-7.4-14.1-9.7-21.8-6.7-21.9-8.3-63.1-.2-84.6 13.7-36 45.5-43.2 80.9-41.6l-10-3 9.5-2c21.9 1.2 50.7-5.5 71.9-2 3.9.7 11 6.7 13.5 9.9Z" class="outline" fill="#000000"/><path id="outline-eyes10" d="m1309 1156-17.5 5c-20.2-.4-40.3.8-60.5 1.5-46.6 43.1-90.8 88.6-134.7 134.4-2.1.6-2.6-.7-3.7-2-6.2-6.7-24.5-34.5-28-42.9-3-7.2-4.7-15.2-5.5-23 9 1.1 5.1-1.7 6.2-8.3 9.6-53.8 105.4-58.7 147.1-57.9 14.6-14.7 31.6-8.7 50.2-9.8l46.4 3.1Z" class="outline" fill="#000000"/><path id="outline-eyes9" d="M943 1178c1 1.3-6.1 7.7-7.5 9-13.4 12.8-27.7 25-41 37.9-48.2 46.9-93.4 96.9-136.5 148.6-2.6 1.6-23.9-7.9-25.5-10.5-.8-1.2-.5-1.7.5-2.6 35.6-35.7 70.3-72.3 106.5-107.5 25.7-25 55.1-55.1 82.5-77.5 1.3-1 3.8-3.3 5.3-3.3 3.9 0 11.5 4.9 15.7 5.8Z" class="outline" fill="#000000"/><path id="outline-eyes8" d="M1341.6 1164.2c1.9-.2 11.9 4.6 13.7 5.9 1.1.8 2.4 1.3 1.2 2.9-66.7 59.6-128.7 124.4-186 193.1-.6.5-1.2.9-2 .9-1.3 0-18.5-11-19.6-12.4-1.2-1.5-1.4-2.6 0-4.1 51.6-52.4 103-105.1 157-155 4.3-4 33.3-31 35.7-31.2Z" class="outline" fill="#000000"/><path id="shading-eyes7" d="M801 1138c-30.9-.6-61.5 2.8-92.4 3.9l-35.3-17.7c-4.1-1.8 2.4-3.2 3.6-4.8l15.1-28.9c12.1 0 26.8-3 37.7 2.3 18.4 9 42.8 24.4 60.2 35.8 1.3.9 12.9 7.8 11.1 9.4" class="shading" fill="#aaaaaa" style="opacity: 0.5"/><path id="shading-eyes6" d="M1376 1124c-.3.4-6.9 2.3-8.4 3.1-5.9 3.1-23.2 14-28.2 14.8-10.7 1.7-33.8-2.4-45.9-3-7.3-.4-14.8-.7-22-1-8.2-.3-16.4.3-24.5 0-1.8-1.7 9.8-8.6 11.1-9.4 16.7-10.8 35.9-22.1 53.2-31.8 3.3-1.9 9.9-6.2 13.2-6.8 3.2-.5 30.1-.4 31.4.4 5.4 6.6 10 24.3 15.5 29.5 1 1 5.9 2.1 4.4 4z" class="shading" fill="#aaaaaa" style="opacity: 0.5"/><path id="shading-eyes5" d="M1085 1159c-2.1 6.6-7.9 8-12.5 12-2.6 2.3-5.8 5.4-8 8-5.4 6.1-10.8 18.1-15.6 22.4-4.3 4-3.8.8-6.5.6-5.1-.4-10.4 0-15.5-1.1-.7-.6 3.8-11.5 5.4-13.1 3.6-3.3 12.5-2.7 17.6-7.4 4.1-3.7 11.5-20.5 13.9-22.1 2.8-1.8 16.5 1.9 21 .5z" class="shading" fill="#aaaaaa" style="opacity: 0.5"/><path id="shading-eyes4" d="M1020 1201c-4.4 1.1-8.9.7-13.4 1.1-3.4.3-3.2 3.3-7.5-.6-4.7-4.3-10.2-16.4-15.6-22.4-2.3-2.6-5.4-5.6-8-8-4.3-3.9-10.9-5.7-12.5-12 4.5 1.4 18.2-2.3 21-.5 2.6 1.6 9.8 19.1 14.9 23.1 4.4 3.3 13.5 3.5 16.1 5.9 1.5 1.4 6.4 12 4.9 13.5Z" class="shading" fill="#aaaaaa" style="opacity: 0.5"/><path id="shading-eyes3" d="M1045 1248c-1.7.4-2-.7-3-1.5-5.3-4-9.4-10.7-14.5-14.5-2.7 1.4-6.1-.6-8.5.5-1.5.7-14.2 17.6-16 15.5-.6-3.2 1-6.3 1-9.4s-1.4-12.4-.6-13.6c.6-.8 7.9-2.9 9.1-2.8 2.1 0 7.1 3.7 11 3.8 4.7 0 9.2-3.8 11.9-3.8s8.2 2.1 8.5 2.4c2.2 1.6 0 7.1 0 10 0 4.8 1 8.9 1 13.5Z" class="shading" fill="#aaaaaa" style="opacity: 0.5"/><path id="shading-eyes2" d="M945 856c.7.3-.6 1.7-2 1-.7-.3.6-1.7 2-1" class="shading" fill="#aaaaaa" style="opacity: 0.5"/><path id="shading-eyes1" d="M1105 856c.7.3-.6 1.7-2 1-.7-.3.6-1.7 2-1" class="shading" fill="#aaaaaa" style="opacity: 0.5"/><g id="outline-eyes" class="outline" fill="#000000"><path id="outline-eyes1" d="M783.8 1150.3c38.7-1.3 80.2.7 118.6 5.8 31.2 4.2 63.2 15.5 80.4 43.6 22.3 36.3-.2 63.7-21 92.6-35.4 49.2-62.7 84.7-125.8 98.2-59.1 12.6-133.4-23.8-163.8-75.2-28.7-48.5-27.8-153.2 44.3-161.3 20.8-2.3 46.1-3 67.3-3.7m-53 13c-39.6 3.2-62.3 26.4-64.8 66.2-5.1 79.5 43.7 131.7 118 150.1 63.3 15.6 113.5-22.6 152.5-67.5 20-23 56.1-70.5 38.3-101.3-27-46.8-101.2-42.2-147.3-45.7-31.1 1.8-66-4.2-96.7-1.7Z" class="outline" fill="#000000"/><path id="outline-eyes2" d="M1216.8 1150.3c35.6-1.3 79.4-.2 114.7 3.7 71.8 8.1 72.9 111.5 45 160-29.7 51.8-104.5 88.9-163.7 76.7-63.4-13.2-91.2-49-126.6-98.4-20.4-28.4-42.8-55.5-21.7-91.3 24.6-41.7 77.6-45.6 121-49 10.3-.8 20.9-1.3 31.3-1.7m82 13c-28 .3-56.4 1.5-84.3 2.7-45 1.9-110.7-.5-139.3 41.7-21.6 31.9 15.2 79.9 36.3 104.3 56.5 65.1 115.6 93.3 198.2 50.2 51.2-26.7 76.3-76.2 72.3-133.7-3.5-51.4-36.8-65.7-83.2-65.2" class="outline" fill="#000000"/><path id="outline-eyes3" d="M1330.1 993.9c1.1.8 5.5-3.3 11.9.6 17.4 10.7 40.7 59.5 47.8 79.2 4.6 12.8 16.5 49.5 14 61.5-1.8 8.7-9.9 7.3-16.8 8.2 18.8 13.2 15.7 40.6 22 60.5 6.6-1.3 15-5.8 21.6-5.9 1.7 0 8.3 2.1 9.1 3.2 1.1 1.4 5.5 20.4 6 23.5 1.2 8.1 3.7 24-6 27.4-3.5 1.2-23.8 3.9-24.7 4.8 2.4 15.6-3.5 33.5-9.6 47.9-33 77.8-114.3 114.1-195.9 108-24.3-1.8-73.4-21.1-90-39-30-32.3-64.7-86.5-85.7-125.3-2-3.8-5.9-6.9-6.9-11.6-5.6-2-5.9 3.6-8.6 7.6-27.5 40.9-52.2 84.6-84.3 122.7-18.6 22.1-43.4 32-70.8 40.2-46.9 14.1-119.7.8-159.5-27.9-29.6-21.3-56.5-55.8-66.9-91.1-3.2-10.7-6-20.5-3.8-31.7-16.2-5-32.7 1.1-32-21.6 0-4.6 5.2-31.5 7.3-34.2.8-1 7.4-3.2 9.1-3.2 6.6 0 15 4.6 21.6 5.9 6.3-19.9 3.2-47.4 22-60.5-21.1.6-16.5-13.9-13.7-28.7 6.8-35.9 27.2-85 51.3-112.7 2.4-2.7 10.4-10.5 13.7-9.9 1.4.2 4.3 2.8 5.7 1.8.4-.3 3.5-6.5 5.1-8.4 78.4-96 169.4-147.3 295.5-148.6 130.6-1.4 230.4 50.6 309.9 153.1.9 1.1 1.4 3.8 1.6 3.9zm-23.2 12.9c.5-.9-.7-4.8-1.2-6.1-11.9-36.2-84-85.4-116.8-105.2-92.4-55.8-233-57.1-326.2-2.4-31.9 18.7-100.5 66.1-116.5 98.5-1 2.1-5.2 11.4-5.1 12.9 0 1.8 1.8 2.9 3 3.9 5.2 3.9 14.7 8.1 20.8 12.2s13.2 8.7 18.1 14.4c-8-1.4-15.4-4.8-23.5-6-8.7-1.3-24.5-3.1-33-3-3.5 0-8.3 1.7-12.3 1.2-11.2 18.6-22.5 37.2-31.4 57.1-5.2 11.7-11.5 23.8-9.7 37 2.4 2.3 21.7 9.2 22.7 10.8.6.9 0 2.7.2 3.8 17.4-2.2 35-4.9 52.5-6 35.7-2.3 73.3-2.2 108.9-2.1 26.2 0 52.3 1.3 78.5 1-23.9-23.3-52.7-41.5-80-60.5 0-.8.9-.6 1.5-.5 4.5.3 36.6 16.6 43.2 19.8 8.9 4.5 43.4 21.3 48.3 26.7 2.7 2.9 8.3 14.6 10.7 15.3 8-.5 16.1 1 23.8 1.2 35.2 1.1 70.7-.6 105.8-1 4.7-6.1 6.7-14.3 13.4-18.8 29.9-14.8 58.8-31.6 89.8-44.2 1.7 1.2-.7 2.7-1.6 3.4-3.2 2.7-8.2 4.7-11.8 7.2-23.1 15.6-47.1 32.2-67.1 51.4 26.6.3 52.9-.9 79.5-1 42.7-.2 88.1 0 130.9 4.1 5.1.5 26.1 4.7 28.9 4.1 1.3-.3.8-3.5 2.3-4.1l22.1-10.1c1.7-14.1-5.3-27.7-11-40.2-3.4-7.6-7.7-16-11.7-23.3-2.1-3.9-16.8-30.2-18.4-31.1-.5-.3-10.8-1.2-12.3-1.2-8.5 0-24.3 1.7-33 3-8.4 1.2-16.2 4.5-24.5 6-.6-2.6.8-1.8 1.9-2.6 12.1-9.8 26.3-18.3 40-25.6zm-511.1 133.5c-30.6.6-88.1.8-115.1 11.9-10.9 4.5-14.9 7.8-19.2 18.8-7.9 20.1-13.2 48.9-15.5 70.5-2.5 23.3-3.3 32.2 6.1 53.8 41.8 96 152.8 135.7 245.9 85.2 23-12.5 46.4-47.5 61.8-69.2 11.5-16.2 28.8-39.4 37.3-56.7 13.1-26.6-4.3-64.9-26.2-82.1-20.1-15.8-64.3-23-89.6-26.4-28.1-3.8-57.2-6.4-85.6-5.8zm430 0c-36.4 1.7-121.3 10.3-149.3 32.7-21.6 17.3-38.7 55.3-25.7 81.7s44.9 69 64.2 92.8c14.7 18.2 22.5 27.6 44.3 37.7 83.9 38.9 181.8 9.5 227.2-71.2 5.9-10.4 17.7-34.1 17.6-45.5-.2-24.5-8.6-81.9-19.9-103.2-6.8-12.9-32.1-18.7-45.7-20.3-33.4-3.9-79.2-6.3-112.7-4.7m-86.8.7-230 .5c11.1 2.2 22.3 4.8 33.2 7.8 6.1 1.7 14.7 6.1 20.3 6.7 38 4.2 83.3-3.2 122 0l21.2-6.8 33.2-8.3h.1Zm-74 26h-82c4.9 2.9 14.9 21 18 22.5 1.3.7 7.5 1.4 9.5 1.5 5.9.4 33.5.6 37.1-2 4.4-3.1 11.4-18.2 17.4-22.1Zm-23 38c-11.3-.8-23.3-2.3-34.5 0-1.4.3-1.6-.8-1.5 1.5.2 3.5 2.6 7.8 3.1 11.4 10.2-2.2 19.2-2.9 29.3.2zm-404.1 13.1c-3.7-.6-18.6-5.1-20.9-3.7-3.6 2.2-4.2 21.6-1.6 24.6s14.9 2.2 19.5 2.8c1-.6 3.7-22.7 3-23.7m775.2 23.8c4.8-.7 18.3.7 20.3-3.9 1.4-3.3.4-21.8-2.5-23.5-1.1-.6-20.3 2.8-20.9 3.7 0 3.2 1.8 22.9 3 23.7Z" class="outline" fill="#000000"/></g></svg>