<?xml version="1.0" encoding="UTF-8"?>
<svg xmlns="http://www.w3.org/2000/svg" id="ear-right-stitches" version="1.1" viewBox="0 0 2048 2048"><path id="fill-ear-rt" fill="#ffffff" d="M1715.7 184.2c3.2-.7 6.5-.5 7.2 3.3 2.3 39.5-3.6 77.2-9 116-.7 4.7-.2 11.1-1.1 15.9-5 26.9-24.5 58.9-29.7 86.3-5.7 30.4-4.7 64.8-10.9 95.1-7.8 38.3-25.1 77.8-33.7 116.4l-71.9 122.1c-45.8 31.3-94.9 58.3-141.8 88.2l-35 81-84.6 77.3c-5.6 2.9-16.3-.8-22.4-2.4-27.7-7.2-48.3-18.1-70.9-35.1-16.5-12.5-27.2-20.9-37.6-39.4-6-10.5-10.9-22.9-14.5-34.5 26.8-59.3 58.7-116.4 86.8-175.2 4.9-58.7 6.7-117.8 11.4-176.5 36.5-47.5 77-92.5 114.8-139.2 47.2-35.9 96.4-69 144.9-103.1 66.1-31.9 127.9-72.1 197.8-96.2Z" class="fill" data-original-prefix="fill"/><path id="shading-ear-rt" fill="#aaaaaa" d="M1680 253c.3 2-.2 3.9-.7 5.8-8.7 33.2-28 45.7-45.3 72.7-19.4 30.1-38.8 69.6-49 104-2 6.9-9.8 35.5-7.5 40.5 2.1 4.5 7.8 5.5 4.6 13.6-1 2.4-4.9 4.5-3.6 6.5.6 1 7.7 5.3 8.9 4.9 1.4-.4 5.2-8.5 9-7.8.7.1 4.7 3.7 6.3 4.6 1.9 1 8.5 3.8 9.3 4.7 4.5 5.1-6.4 13-3.6 17.5.6 1 12 9.8 13.2 9.9 2 .2 6.1-6.5 9.2-4.7.4.2 3.6 5.9 5.6 7.9 2.9 2.8 10.2 6.5 12 9 4.3 6.3-4.2 10-3.3 13.2.6 2.3 7.8 6.8 9.2 10 3.6 8.6-7.3 23.2-9.3 31.7-3.3 2.3-12.5-11.7-13.6-12-4.4-1.2-4.3 4.3-7.2 6.6-7.3 5.9-17.5-8.4-21.1-6.2-1.5.9-12.1 27.6-14.1 31.9-9.1 19-19.2 37.7-30.4 55.6-5.7 9.1-17 28.1-23.9 35.1-6.1 6.2-22.6 16.5-30.6 21.4-27.1 16.9-48.1 18.1-77.4 27.6-11.9 3.8-40.5 13.1-48.4 21.5-2.4 2.5-5.1 6.9-7.1 10-1.6 2.4-10.7 17.9-10.8 19.2 0 1.1 3 4.7 3.9 5.7 1.4 1.5 9.4 7.2 9.7 7.8 1 1.8-1.5 4.6-.4 6.8.5 1 3.8 3.2 5 3 1.4-.3 2-3.7 3.6-4.4 1.9-.9 5.3 0 5.9-.6.9-.7 2.4-11.2 5.1-12.3 28.4-5.8 53.7-14.9 79-29 37.5-20.9 69.2-49.9 102.5-76.5 2.5-2 5.5-4.5 8.4-5.5-22 29.2-47 56.2-78.1 75.9-14.3 9-29.7 16.2-44.2 24.8-6.6 3.9-30.4 17.4-34.2 21.8-1.5 1.7-16.3 37.7-17.1 41.1-.5 2.3 1.5 2.8 1.6 4.5 0 1.2-9.7 20.6-10.5 21.5-2.1 2.2-4.8 1.4-6.9 3.1-3.9 3.1-10.1 15.3-14 20-7.4 8.9-25.4 25.8-34.5 33.5-10.2 8.6-22.7 15.9-34 23-3.5 20.4-12.3 16.1-28 12-37.5-9.7-64.7-28.6-93.9-53.1l-8.1-11.9c3-7.3 3-12.6 7.6-19.4 9.5-14.2 27-30.5 38.4-44.6 2.4-3 17.7-21.7 17.9-23.1.3-1.9-7.2-5.6-3.3-14.3 1-2.3 4.4-4.3 2.9-7.1-2.8-5.4-7.8 3-12.9 2.7-5.8-.3-12.4-9.3-13.4-14.4-.9-4.3 1-9.7.3-12.3-.9-3.7-7.9-10-8.4-15.7-.4-5 15.1-25 15.8-32.2 2.3-.5 1.6.3 2.2 1.3 1.3 2.1 7.3 14.7 9.3 14.7 2.9-2.6 5.6-9 10-9.1s17.5 10.7 18.3 14.8c1.6 7.9-13.7 13-2.3 18.2 1.5-.1 3.5-8.7 7.2-9.8 5-1.4 8.7 5.3 14.3 2.3 9.5-16.8 18.2-33.9 26.8-51.2 13.7-27.4 25.6-51.9 41.7-78.3 11-17.9 25.9-32.9 29.3-54.7 1.5-9.4 1.1-18.9 1.1-28.4l54 6.5c10.4 14.5 17.6 31.1 26.5 46.5 1.4-.6 10.7-11.6 11.6-13.4 5.1-10.3 14.6-53.4 15-65.1.2-4.9-3.5-5.2-7-7.4-6.9 19.2-20.4 2.3-30.6-4-1.7-4.1 6.7-11 5.4-12.9-4.3-1.4-11.9-10-15.9-8.7-5.6 1.7-6.9 10.7-8.1 11.5-2.9 2-18.9-13.2-23-14.6-1.4-5.8 8.7-12.1 8.1-15.7-2.2-.7-7.6-6.3-8.7-6.5-3.1-.5-8.1 10.6-11.9 11-2.5.2-16.4-9.8-20.4-10.6-2.4-2.1 3.8-7.9 5.2-10.8 1.7-3.7 2.7-6.7-.2-10.1-.3-.4-7.5-5.8-8-6-4-1.9-4.6 4-7 7-8.5 10.6-9.7 3.2-17.1-2.9-1.8-1.5-7.7-4.4-8.5-5.6-3-4.7 9.1-12 9.4-15.7.3-3.5-17-9.2-8.7-22.7 3.1-5.1 7.3-4.3 7.8-4.7.6-.6-1-6.8 4.8-9.7 7.7-3.8 16.8 8.4 19.7 7.7 4.9-6.5 8.5-16.6 18.4-15.8 1.2 4.4 13.9 14.4 14.2 17.4.6 6.1-14.5 12.8-11.9 16.4.5.6 10.2 7.3 11.2 7 2.7-.7 7-11.6 11.2-12 2.9-.3 13.6 11.7 17.3 13.7 2.4 6.9-8.8 14.5-6.4 18.3.6 1 7.2 5.8 8.5 5 2.6-6.1 4.3-16.4 12.8-13.2 1.5.6 17.4 10.3 17.8 11.2 1.5 2.9-10.3 13.6-10.6 18 3.5.5 17.9 11.8 20 10 1.1-10.6 4.8-15.5 16-12 1.3-1.4-1.8-26-.8-31.3s9.6-20.9 12.6-26.4c17.6-31.6 51.4-76.3 80.4-97.5 18.6-13.5 41.2-28.1 60.8-40.2 6.9-4.3 19.7-12.6 26.5-15.5 1.8-.8 3.3-1.4 5.4-1.1Zm-115 343c11.1-2.5 18.4-14.1 24.4-23.1 1.7-2.6 8.7-13 9.2-14.9.7-2.5-7.9-8.8-10.6-7.6-1.5.7-4.1 4.6-6.1 6s-7.1 2.9-8 4.2c-1 1.4-9.4 24.1-9.7 26.1-.5 3.5.7 5.9.8 9.2Zm-294 371c.7.7 7-4.7 8-5.5 9.3-7.7 17-17 26.5-24.5l49-52c1.4-3-5.2-7.8-3.3-15.2.4-1.4 5.5-6.1 2.2-6.7-1.9-.4-7.2 7.9-12 7.9-3.7 0-9.3-8-15.3-4.7-10 17.1-21.2 33.5-33.2 49.3-10.3 13.5-11.2 12-16.5 29.5-2.2 7.2-4 14.6-5.5 22Z" class="outline shading" data-original-prefix="shading" opacity="0.5" style="opacity: 0.5"/><path id="outline-ear-rt" fill="#000000" d="M1202 940c-.7 2.2-2.8-.3-3.7-.8-7.5-4.1-15.4-7.3-21.3-13.7-11-12.2-18.8-30.7-29.5-43.5-1.6-4.6 0-20.2 2-25 2.1-5.1 8.5-12.8 11.7-18.3 15.6-27.4 29.9-56 41-85.5 2.9-1 12.6 1.5 13.7-1.8 1.5-4.5-2.4-14.2-1.8-19.8.6-5.7 5.4-14.9 7.2-20.8 19.1-62.7 19.6-130.1 25.3-194.7 25.9-36.9 52.3-73.4 80.4-108.6 6.1-4.5 13.9-5.4 20.9-7.6.9-5.5-1.2-12.2 1.3-17.2 19.4-19.9 38.5-46.9 59.9-64.1 43.3-34.7 113.5-72.5 164.2-95.8 36-16.5 113.1-50.1 150.5-53.6 2-.2 4.9-.6 6.6.7 1.3.9 4.2 14.2 4.5 16.7 5 34.4 0 106.7-6.2 141.6-2.7 15.4-3.5 13.8-11.5 25.5-20.9 30.2-30.9 86.3-28.2 122.9.9 12.8 7.2 15 4.6 29.5-1.9 10.4-16.9 71.2-22.6 75.4-1.6 1.2-11.6 3.5-12 5.2 1.8 11.3 6 12.6 1.6 24.3-17.4 46.2-55.1 107.3-90 142-35.9 35.8-70.5 53.9-113.6 78.5-12.7 7.2-18.8 16.5-25.8 29.2-2.1 3.8-8 18.8-9.7 20.3-2.4 2.1-11.1 1-13 5-2.3 4.8 3.8 10.5 3.3 15.3-.2 2.6-7.5 18.1-9.4 20.7-5.5 7.6-25 19.5-33.4 27.5-14.1 13.5-27.2 28.2-41.4 41.6-7.1 2.4-14.6 3.4-22.1 3-15.9-.8-45.9-12-59.4-20.7-1.4-.9-4.4-2.4-4.1-4.4 10.7 4 34.4 9.2 45.5 8 14.3-1.5 58-38.5 70.5-49.5 6.3-5.5 22.8-19.3 26.8-25.2 1.7-2.4 7.2-13.8 7.7-16.3.7-3.6-8.2-12.5-11.6-11.6-4.2 1.2-7.9 14.7-11.5 14.7-.8 0-11.9-8.5-12.6-9.5-3.3-4.3 9.1-15.5 8.8-19.1 0-.9-10.3-11.7-12.6-10.4-1.9 1.1-7 15.2-12.5 14.7-2.1-.2-11.6-9.5-11.5-11.1.3-3.2 10.8-14.9 10.8-16.2l-12.3-9.5c-2 .4-7.6 11.3-9.3 13.7-.4.5 0 1.9-1.7 1.2-.8-.3-12.2-11.8-12.4-12.7-1-3.7 7.4-10.2 6.8-12.7l-6.4-4.4c-.8 0-1.8 1.7-2.3 2.5-8.7 12.8-19.3 34.1-26.7 48.3-9.7 18.5-20 39.9-24.6 60.4-3.7 16.5-2.6 19.7 1.9 35.3.4 1.3.6 3-1.3 2.3-2.3-.9-15-11.2-17.5-13.5-4.4-4.1-9.2-7.6-9.1-14 .1-6.2 1.2-18.8 2.1-24.9.6-4.2 26.4-37.8 31.1-45.9 3-5.3 20.7-40.8 19.7-44-.4-1.5-8.8-6.8-10.8-5.5-1.6 1-5.4 16.3-8.7 16.8-1.9.3-9.9-8.4-12.4-9.6-.4-4.7 9.3-14.6 7.6-18.3-.7-1.6-12.1-10-13.5-9-1.2.8-3 15.2-9 12.5-1.6-.7-8.6-9.6-8.9-11.2-.6-3.7 6.8-11.7 5.8-13.2l-7.9-5.1c-7.1 12.3-13.3 25.1-19.8 37.7-2.6 5-6.7 10-9.1 15-2.8 6.2-15.3 38.7-16 44-3 22 12.8 50.5 26.9 66.4Zm517-752c-41.7 13.6-81.4 32.9-120 53.5-44.4 23.7-89.6 51.7-131.9 79.1-37.3 24.2-73.8 51.1-104 83.8 2.3 1.6 7.9 8.1 10.2 7.5 2.6-.7 10.3-13.4 13.2-15.9 2.9-2.6 2.2 0 3.5 1.5s9.1 10.1 8.9 10.9l-12.9 15.1c6.4 5.6 12.9 11.5 20.5 15.5 2.5 0 8.2-11.3 11.1-13 .8-.2 12.1 9.7 12.3 10.6.4 2.4-8.4 10-8.8 12-.4 2.2 15.3 12.7 17.4 12.4l8.2-12c2 1.6 12.9 7.8 13.2 9.6.5 2.6-7.4 11.7-6.4 13.4 3.4 2 25.1 16.9 26.5 15.9l7.6-13 15.4 8.1c1.4 2-9.2 12.3-7.5 14.9 1.6 2.4 22.4 11.8 26.1 15 1.5-.9 1.4-2 1.6-3.5.5-4.4-.6-14.2-1.1-19-1.1-11.1-8.7-37.9-7.9-45.9.7-7.6 15.4-37.1 19.8-45.3 27.6-51.9 68.3-85.1 109.2-125.8 6.8-5.4 15.2-7.9 22.3-12.7 3.7-2.5 26.5-23.7 29.7-20.8l-22.5 39c-10.9 8.2-22.7 15-33.4 23.6-53 42.2-92.5 108.3-94.9 177.2l12.8 8.2c1-2.3 6.2-13.5 8.4-13 1.8.4 8.4 9.7 11.6 10.6.8 3.6-5.8 10.1-6.7 13.3-.5 1.7 12.6 11.5 15.1 13.1l8.2-10.9c3 2.8 13.4 8.5 12 13-2.7 8.2-10.2 6.5-.6 15.5 1.8 1.8 14.7 13 15.7 13.3.6.2 1.9.4 2.3.1.5-.3 3.7-9 5.6-10 .9-.2 10.8 9.2 11.5 10.5 3.2 5.4-4.6 9.4-3.9 12.9.3 1.7 10.8 10.8 12.8 12.6 6.3-25.4 17.4-53.3 19.1-79.5.5-8.5-.5-17.5 0-26.1 1.9-35.4 10.1-81.8 23.3-114.7 6.8-17 15.7-25.4 19.5-44.5 7.4-37.6 11.2-78 8.3-116.2Zm-354.1 264c-2.1 1.5-11.5-8.1-13.9-9.6-.2-3.3 9.6-11.3 8.5-13.4-3.7-1.9-9.1-9.8-13.1-7-6.9 8.8-14.4 17-21.4 25.6-15.7 19.2-37 44.4-50.5 64.5-10.9 16.3-10.6 37.7-12.6 56.4-2.3 21.3-5.1 42.7-7 64-2.3 25.7-.7 63-9.5 86.5-2.1 5.5-15.5 30.3-15.3 33.3.1 1.4 6 11.1 7.3 11.7 1.6-1.9 5.1-10.7 6.5-11.5 3.5-2.2 9.3 8.7 12.9 10.2-.6 4.2-8.8 11.5-6.4 15.4 1.4 2.2 10 7.2 12 10 2.3-1.3 5.9-12.5 6.6-12.9 1.4-1 13.6 8.5 13.8 9.6.5 2.3-7.5 10.1-5.4 13.4.7 1.1 10.4 5.7 11.5 4.9 14.9-28.1 30.2-56.2 47.7-82.8 12.2-18.5 28.6-36 36.4-56.6 6.7-17.6 17.7-69.2 14.8-86.8-.7-3.8-10.8-27.6-9.8-28.7 13.4 6.2 26.8 13.4 39.3 21.2 3.9 2.5 14.9 8.7 17.2 11.8 3 4 10.2 28.6 12 35 5 17.7 6.7 61.6 34.5 34.5 18.2-17.7 39.5-77.9 41-103 .2-3.1.6-11.1-1.1-13l-35.5-21.5c-2.6 1.8-4.7 11.1-7.2 11.9-2.7.9-15.4-6.2-15.2-8.2.2-2.3 7.6-12.8 6.9-13.7l-25.7-14.9c-2-.3-7.7 11.4-8.4 13.9-1.9 1.4-12.9-7.6-15.9-8l7.5-15.9-18-12c-2 .5-6.7 12.3-8.5 13.5-1.1.7-1 .5-2 0-1.1-.6-11.8-8.4-12-9.1l9-15.4-22.5-16c-2.1 3.4-4.9 6.4-7.4 9.7-.7 1-1 3.2-1.2 3.3Zm207.9 76.2c-.4-.7-12.7-9-13.5-9-1.7-.2-6.9 7.2-7.2 8.6-.8 3.8 4.2 7 4.7 9s-6.8 10.6-8.5 13.2c-28.1 43.5-30.1 78.6-42.7 126.3-2 7.6-3.2 4.8-6.4 8.1-12.1 12.1-23.3 21.3-37.8 30.7-4.2 2.7-37.6 22.8-39.5 21 3.2-7.4 7.6-14.4 10.5-22 10.2-27.5 10.4-59.8-8.1-83.9-10.7-14-18.2-14.4-25.6 2.2-9.5 21.3-13.4 47.3-14.6 70.4-18.3 22-37.9 43.1-54.4 66.6-3.9 5.6-16 22.3-17.4 27.7-.7 2.6 7.1 7.9 8.1 7.8 2.1-.2 7-12.2 10.5-10.4.7.4 10.7 9.5 10.9 10.3 1 4-7.7 8.8-5.4 12.3.4.6 10.4 8.1 11.1 8.1 3.1-.4 5.6-9.4 8.8-8.9.7.1 11 7.6 11.7 8.4 3.3 3.8-5.6 9-5.1 12.9 2.8 1.2 10.5 9.8 13.1 8.2 1.4-.9 4.7-8 6.6-9.6.8 0 13.7 7.8 14.4 8.6 3 3.3-6.8 10.3-5.9 13.8.4 1.5 10.3 8.7 11.9 7.6 2.3-7.8 9.4-15 12.4-22.1 2.9-6.6 3-14.4 6.1-21 27.2-18.9 59-32.5 86.3-50.7 50.5-33.6 111.1-115.8 131-173 1.1-3.1 3.9-8.7 3.1-11.5-.3-1-13.4-14.5-14.5-14.7-2.8-.5-7.2 10.6-10 11.9-1.6-1.1-12.1-9.8-12.3-10.6-1.1-3.5 8.8-11.6 6.5-15.3l-22.1-18c-1.7-.4-8.5 10.8-9.5 13-5.4-2-10.1-7.4-16-9-1.4-1.8 11.1-12.9 8.8-16.8Z" class="outline" data-original-prefix="outline"/></svg>