<svg xmlns="http://www.w3.org/2000/svg" xmlns:xlink="http://www.w3.org/1999/xlink" xml:space="preserve" id="Layer_1" x="0" y="0" version="1.1" viewBox="0 0 2048 2048"><style>path{transition:fill .3s ease}.shading{fill:#000!important}.fill{fill:#fff!important}.shading{opacity:.5}</style><path id="fill-head2" fill="#fff" d="M1601.3 1591.3c-2.9.9-2.7 8.3-2 10.9 1.5 5.9 13.1 17.3 13.7 26.3.5 7.1-5.4 26.1-6 35.9-.4 7.4-.4 17.6.1 25 .7 10.8 7.1 27.1 3.5 36.5-1.3 3.3-14.2 25.4-16.1 25.9-.9.2-1.6.2-2.4-.4-12.2-19.4-32.8-39.1-35-63.1-.9-10.5.8-21.9-1.5-32.5-7.8-4.7-11.9-16-22-14-4.7.9-3.7 6.5-3.5 10.5.9 20.3 7 42.3 8 63 2.6 53.8-31.8 76.5-43.4 123.7-2.6 10.5-3 28.8-10.6 36.4s-14.5 5.3-23.6 2.5c-3.2-1-17.9-6.5-19.8-8-6.4-5.2 2.7-28.2 4-35.9 4-22.7.5-33.5-1.6-54.8-1.4-14.3 8.7-27.7 9.9-42.9.5-6.8.6-23.6-1.2-29.8-1.2-3.9-11.8-4.4-12.8.8-1.7 9.1-.1 19.5-2.5 28.5-2.1 7.8-12.7 20.5-18.5 26.5-2.7 2.8-8.6 5.9-10.5 8.5-3.8 5.2-4.6 12.2-10.5 18.5-18.2 19.5-36.3 15.5-40.9 48.1-3.2 23.1-2.2 51.2-20.7 69.3-.8.8-9 7.3-9.5 7.6-5.3 2.7-12.6-18.4-14.8-22.2-4.1-7.2-10.5-14.7-14-22-7.3-15.4-.9-33.7-.2-49.8.2-3.5.8-7.6-3.5-8.4-12.7-2.4-18.3 12.5-20.2 22.7-3.9 20.7-.3 40.2 7 59.5 3.5 9.3 14.7 27.3 11 36.5-1.5 3.8-17.3 16.5-21 17.1-2.1.3-18.1-8.6-20.2-10.4-4-3.4-9-11.6-13.1-15.9-6.9-7.3-16-13.3-22.5-20.5-3.2-3.5-10.1-16.4-13-17-1.6-.3-5.4-.3-7 0-.9.2-14.2 8.5-15.4 9.6-9.3 7.9-13.6 33.5-21.3 45.7-5.2 8.2-45.3 38.3-54.4 39.6-2.1.3-4.4.4-6.4-.5-.9-.4-12.8-12.6-13.3-13.7-1.2-2.9-1-8.1-.8-11.3 1.3-19.2 18.2-34 20-53 .4-4.7-.8-10.6.1-14.9.5-2.5 3.9-6 5.2-8.8 5.3-12.1 1.6-24.3 1.6-37-7.6-7.1-13.6-1.6-18 5.6-6.3 10.2-8.6 22.2-7.8 34.2.2 2.8 1.8 5.7 1.9 8.1.1 4.1-13 29.4-15.7 36.2-4 10.2-9.9 36-16.8 42.2-2.9 2.6-11 3.6-14.9 3-13-2-9.4-17.8-11.8-26.2-1-3.4-8.2-3.5-10.8-2.2-3.4 1.7-10.3 18.2-16.8 14.3-2.2-1.3-9-20.6-11-24.5-1.8-3.5-5-8.6-7.3-11.7-3.5-4.6-13.4-15.8-17.7-19.2-2.4-1.9-10.4-2.3-12.7-.5-1.9 1.5-1.5 5.3-1.5 7.6.4 15 10.2 36.7 11.8 52.2 1.3 12.2-16.3 6.5-23.5 4.5-4.2-1.2-23.4-8.3-25.9-10.6-2.2-1.9-6.9-12.6-9.3-16.2-7.5-11.3-15-16.3-23.4-25.6-6.1-6.6-16.6-28.8-25-29.9-13.5-1.8-7.7 8.8-9.7 11.9-.4.7-11.9 4.6-14.5 6-8.7 4.7-21.2 15-27.2 22.8-9.1 12-9.3 26.6-27.9 29.1-4.3.6-13.5-6.2-15.7-9.9-1.9-3.3-3.4-13.5-3.2-17.3.3-5.5 11.5-30.6 13.9-38.9 5.9-19.9 13.9-46.9 1.2-65.7-3.8-5.6-8.2-7.3-14.9-6-4.8.9-3.8 7.5-3.5 11.5.5 6.2 3.3 14.3 3.8 20.3.6 7.2-11.3 35.1-14.1 44.5-2.3 7.7-.8 17-10.5 18.6-5.3.9-12.2-8.6-15.2-12.4-8.5-10.6-19-31-21.8-44.2-1.4-6.6-1-27.6-3.8-31.2-2-2.6-11.6-4.6-15.5-6.5-13.8-6.5-12.9-12-21.4-20.6-3.6-3.6-10.1-6.3-14.5-9.6-16.9-12.7-26.9-32.3-30-53.1-.7-5.1 0-21.7-4.6-22.4-8-1.3-10.3 2.6-12.7 9.4-4.4 12.4-1.5 31.8 3.4 43.9 1.2 3 7.3 12.5 7.5 13.4.5 3.1-1.7 11.1-1.8 14.8-.3 10.1-.6 22.1 0 32.1s5.9 28.9 4.8 36.7c-1.5 10.5-24.3 25.9-33.8 29.2-4.9 1.7-6.9 2.2-10.4-2.5-5.1-6.9-7.5-39.8-11.3-51.7-8-25.5-29.5-46.4-36.7-69.3-6-18.8 0-64.7 1.5-86.4.7-10 8.5-29.8-9.6-23.6-11.6 15.4-32.2 33.4-36.2 52.8-2.1 10.4-.6 15.3-6.5 25.5-21.1 36.5-33.1-3.7-43.4-20.2-8.5-13.6-19.1-16.1-13.2-34.3 7.5-22.9 26.6-47.4 38.3-68.7 5-23.2-20.5-7.4-29.9-1.8-5.4 3.2-20.1 14.9-25.2 14.9-2.8 0-17.1-11.1-19.5-13.5-10.5-10.9-6.8-20.2-3-33.1 5-16.8 11.6-32.7 27.7-41.3 7.1-3.8 16.5-3.3 13.2-14.4-1.1-3.6-14-3.9-18.2-8.8-5.9-6.7-1.7-18.9-10.9-24.1-2.2-1.3-13.9-5-14.5-5.9-.8-1.2-.1-3.5.4-4.8 1.1-3.1 11-17.8 13.5-20.5 12.9-14.4 28.4-.4 43.5-2.5 3.4-.5 6-3.1 6.5-6.5 1.4-10.2-4.3-7.2-9.6-11.5-4.9-4-13.3-24-10.8-29.8 1.5-3.6 17.8-8.8 21.9-11.2 21-12.3 11.5-45.5 39.5-61.5 5.8-3.3 14.6-5.5 19.4-8.6 1.5-1 2.2-1.5 2.6-3.4 2.2-11.4-12.7-44.5-16.2-57.7s-3.7-17.5 3.5-30.1c3.1-5.5 12.8-15.1 14.3-18.7 5-11.8-9-12.3-14-20-22.1-45-46.4-90.7-62.7-138.3-4.7-13.8-12.7-37.1-12.8-51.3-.2-27.6 33-68.8 50.1-90 26.7-33.1 58.5-76.3 96.6-95.4 158.9-79.4 322.9-133.3 499-161 42.1-6.6 102.3-17.1 143.3-7.7 87.4 20 191.8 121.3 251.5 186.5 51.4 56.2 108.7 126.5 139.3 196.7 7.6 17.4 14.9 31.6 7.3 50-12.2 29.8-47.1 83.2-68.7 107.3-3 3.3-19.4 17.7-20 19-.8 1.9-.8 5.5-.6 7.5.6 4.5 13.8 15.1 17.6 19.4 11.1 12.8 21.4 32.5 22.4 49.7.5 9-3.7 11.6 2.7 20.3 11.8 15.9 38.5 20.5 50.8 36.2 6.4 8.1 31 58.1 32.3 67.7.4 3.2.6 7.3 0 10.5-1.3 7-10.2 10-6.2 18.7 1.2 2.6 10.5 10.3 13.5 11.5 8.2 3.3 40.4 3.8 42.8 12.2.7 2.6-5.5 20.1-7.1 23.6-2.8 6.2-7.2 11.3-12.3 15.7-3.5 3-17.3 10.8-18.6 12.4-1.6 2.3-1.6 8.6.5 10.6 2.5 2.5 10.7 5.6 14.5 8.5 13.1 10.1 29.3 40.6 30.1 57 .4 9.4-7.5 23.4-14 30-11.7 11.9-15.4-1-23-9.1-3.9-4.1-7.9-8.3-12.7-11.3-6.8-4.3-25-12.2-32.8-9.7m-542.9-577.7c-7.4-7.5-13.4-32-19.8-35.7-10-1.1-28.8-12.4-37.8-9.7-2.6.8-5 5.8-7.2 7.8-3.8 3.4-10.3 7.5-14.8 10.2-42.1 24.8-83.9 34.2-117.2 73.8-11.9 14.2-10.8 30.2-23.5 44.5-4.7 5.3-20.8 17.4-22.8 22.2-2.3 5.8-4.4 25.5-5.2 32.8-.9 7.7-1.9 12.2-3 19.1-3.5 22.4-1.8 28.7-15.2 48.8-14.2 21.1-32.9 42-48.2 62.8-7.3 9.9-28.1 35.6-31.8 45.2-3.1 8-4.3 28.1-6.1 37.9-2.7 15.2-7.3 28.6-6.7 44.3.8 21.1 5.1 63.1 11.2 82.8.4 1.2 9.3 11.1 10.8 12.2 3.8 2.6 8.5 3.2 12.6 5.4 24.5 13.2 25.9 46.9 34.1 70.9 6.1 18 12.5 30.5 25.2 44.8 4.3 4.8 13.6 16 20.6 10.6 4-3.1 4.8-30 11.3-37.5 2.1-2.4 6.2 2.8 7.6 4.4 5.5 6 9.4 13.8 16 19 7.6 6 20.8 10 27.5 16.5 5.5 5.3 8.1 15.9 13.5 22.6 25.5 31.7 83.6 61 124 64 12.3.9 16.5-2.3 27.2-4.7 20.3-4.5 36.7-9.4 55.9-18.1 4.7-2.1 20.9-9.4 22.6-13.4 1.8-4.5.4-12 .9-17.1 2.1-20.7 17.2-34 21.7-52.3 3-12.2-.2-33 2.4-41.6.3-1.1 4.4-5.3 5.6-7.4 24.6-42.2 13.4-52.9 10.2-96.8-1.9-25.3 1.6-48.4 8.3-72.7 5.8-21.1 17.3-40.8 14.7-63.3-1.2-10.6-11.5-19.5-15.2-28.8-2.3-5.9-2.8-13.3-5.1-19.9-4.5-12.9-22.3-39.5-22.7-50.3-.2-5.9 6.7-25.2 8.9-31.9 4.7-14.2 15.4-33.6 13.9-47.9-.5-4.4-2.9-9.5-3-14.1-.1-8 3.8-17.3 1.9-25.8-27.1-29.4-48.1-68.5-78.3-94.7-7.1-6.7-19-12.8-25-18.9m252.8 497.1c-1.8-1.8-5.9-13.6-6.8-16.7-7.5-28.2 11.6-58.6 8.5-89.5-2.2-22.3-22.9-41.7-17.5-65.5 3.5-15.7 12.4-29.4 15.4-46.6 6.4-36.2 7.5-78.1-4.8-112.9-7.8-22-21.2-42.8-33.5-62.5-12.3-6.6-12.9 1.3-13.6 11.5-1.2 17.9-.2 33.3 7.5 49.6 2.6 5.5 8.6 12.4 9.5 18.5 1 6.7-.3 15.9 0 23 .5 13 3.1 30.3 2.1 43-.8 9.9-4.1 16.8-3.1 28 .6 6.8 4.8 14.7 4.8 21 0 9.7-7.8 23.8-8.8 34-3 29.8 6.4 54.8-5.8 84.2-8.1 19.5-32.9 55.1-34.2 73.8-.5 7.3-.4 17.7.1 25 .6 10.8 5.7 24-.6 33.4-7.4 11.2-14.3 17.1-20.3 30.7-3.5 7.9-14.2 33.6 4.2 28.2 3-.9 4.4-7.9 6.7-9.3 11.5-7.2 15 30.8 17.9 34.1 2.4 2.7 8.3 1.8 11.1 0 15.6-10.3 27.3-39.2 33.7-56.3 4.7-12.6 11.8-42.9 20.2-51.5 8.9-9.1 26.1-10.6 36.3-16 5.6-3 5.8-11.8 4.7-17.2-.9-4.8-7.3-4-11-3.1-5.2 1.2-18.2 13.5-22.7 9.1" class="fill" data-original-prefix="fill"/><path id="fill-head1" fill="#fff" d="M1125.8 667.3c37.4-2.4 90.5 6.6 124.9 21.5 89.7 39 196.9 160.6 252.1 240.9 20.3 29.4 62.7 95.7 66.1 129.9 1.3 13.1-2.9 18.3-8.7 29.1-21.6 40-48.4 79.8-77.2 114.9-1.9 1.8-10.7-5.4-10.9-6.2-.8-2.7 10.8-22.3 11.7-28.1 2.9-18.4-8.6-63.2-13.8-82.7-1.9-7.2-4.3-16.1-7.2-22.8-11.1-26.4-31.3-28.3-50.8-45.2-27.8-24.2-45.1-61.2-83-69-43.9-9.1-91.8-18.8-135.8-26.2-8.1-1.4-24.4-1.7-30.5-3.5-1.7-.5-22-18.5-27.2-21.8-10.4-6.7-31-14.6-38.5-22.5-5.1-5.3-6.7-13.4-15.7-15.3-7.4-1.5-21.6 2.1-29 4.5-10 3.3-12.8 9.1-22.8 3.3-9.2-5.3-15-12.1-26-16-16.2-5.9-31-1.2-45.2-6.8-8.2-3.2-15.2-8.7-24.3-10.7-17.8-4-30.4 2.5-47.5 3.6-44.4 2.8-108.8-11.3-148.5 4.5-22.1 8.8-47.2 23.7-70.2 29.8-13 3.5-28.7 3.1-42 6-12.5 2.7-14.8 7.1-20 18-13.2 28-19.9 61.6-33 89-11 23-39.7 59.1-39.8 84 0 9 3.3 19.9 3.9 29.1.9 15.4-5.2 32.5-1 46 1 3.1 3.1 4.2 3.2 7.9 0 2.6-5.1 16.8-6.6 19.5-7.1 13.2-29.3 10.4-38.5.5-11.3-12.3-26.6-45.7-34.2-61.8-13.4-28.4-38.3-83.4-34.7-114.1 2.4-20.4 40.9-70.5 54.9-88.1 10.7-13.5 22.7-28.1 34-41 22.3-25.5 47.6-36.7 77.6-51.4 113.8-55.7 247.1-95.7 371.2-121.8 50.9-10.7 111.5-23.7 163-27" class="fill" data-original-prefix="fill"/><g id="shading-head" class="st1"><path id="outline-shading-head2" fill="#000" d="M1236 1659c2.4-.9 6.4-11.4 7.2-11.8 1.1-.7 3.7.4 6.4-1.1 6-3.3 17.1-19.1 20.6-25.4 10.8-19.3 16.7-42.7 23.9-63.6 1.1-.5 4.5.3 4.9-.1s-.3-8.9.2-11.3c1.5-7.5 14.1-16.3 21.4-16.8 1.9-.1 1.2 2 2 2.1 4.5.6 7.1-4.1 10.1-5.9 9.1-5.4 9.8-1.4 12.8-13.2.3-1.1 1.3-1.9 1.5-2.5s-1.8-.3-2-1.1c-.5-2 .8-4.7-1.4-6.4-8.4-6.7-24.2 12.5-31.3 9.4-2.3-1-7.8-16-8.2-18.9-.7-5.3 1.5-9.8.9-14.9-.3-2.7-2-4.4-2-6.8.2-13.7 9-33.6 10-49.1 1.9-29.3-10.9-39.8-17.5-64.6-5.2-19.8 9.2-38.4 13.6-57.3 9.8-41.3 9.3-93.3-8-132.3-3.6-8-11.7-19.7-13.7-27.3-1.1-4.2 1.2-7.2 0-10-.3-.7-8.8-12.2-9.5-12.6-1.3-.7-2.9.7-4.3.4-1.2-.3-2-2.2-3.4-2.7-2-.6-6.5.6-7.4-.8-3.3-4.7 1.5-31-.3-39.5-.9-4.1-7-12.4-9.7-16.3-3.7-5.2-14.6-15.5-13.8-21.1.2-1.5 2.5-4.8 2-5.6-.4-.6-11.8-3.8-14.4-5.1-10.9-5.6-23.5-27.4-30.8-38.2-5.7-8.4-24.2-33.8-26.3-41.7-2.3-8.4 6.4-13.3 12.5-7.5 10.9 10.2 23 28.5 33.5 40.5 7.8 8.9 15.5 17.9 24.2 25.8 26.3 8.9 53.5 15.4 79.9 24.1 7.4 2.4 14.7 4.2 21 9 23.1 18 45.2 48.4 68.5 67.5 7.4 11.7 10 26.9 15.8 39.2.8 1.7 1.9 4.5 3.9 5.1 8.4 2.6 24.9-13.8 34.3-12.8l-6-34.3c-19.6-15.9 17.7-14.5 27.2-16 35.4-5.6 70.7-21.9 102.5-37.6 3.6-1.5 6.6 11.8 6.2 13.2-.6 1.8-3.9 1.7-4 4.2s4.9 3.7 3.9 9.8c-.3 1.8-4.1 10.2-5.3 11.8-1.1 1.5-3.2 1.8-3.4 2.2-.2.3.8 2.5.2 4.5-1.3 4.3-18 33.1-21.3 36.8-2 2.3-4.9 2.8-6.1 4.2-1.8 2.2-1.8 6.7-3.1 9.6-4.7 10.4-24.7 36.2-32.8 45.2-3.1 3.4-18.8 16.9-19.5 18.5-.9 2.1-.3 6.7-.5 7-.3.3-7.1.1-8.4-.1-5.2-.7-18.2-6.3-22.9-9.1-2.2-1.3-3.2-4-5.7-3.8-3.1 16.4-22.8 3-27.3 4.1s-13 29.4-13.3 34.5c-.3 5.9 3.7 26.7 6.4 32.1 4.2 8.2 21.8 22.9 29.9 28.1 17.7 11.4 40.8 15.6 53.3 33.7 5.3 7.6 13.6 37.1 17.6 40.4 4.9 3.9 19.8 11.1 26 14 4.3 2 16.9 8.1 20.9 8.2 11.8.3 18.6-22.7 30.7-19.9.6.1 6.5 3.2 6.8 3.5 2.5 2.8 7.3 14.1 8.7 18.1 2.9 8.2 5.8 16.6 1.5 24.9-2.3 4.4-7.1 5.2-5.2 12.3l-100.8-43.8c-6.1 6.8-3.1 15-.7 22.9 4.6 14.8 26 41.5 37.5 52.5 9.4 9.1 19.8 9.4 31 14 12.6 5.1 16.2 9.7 31.5 10.5 17 .9 32.1-4.8 43.5-17.5 3-3.4 8.3-13.1 11.9-14.1 1.3-.3 1.6-.8 2.6.6 1.6 2.5-.7 6.9-1.5 9.6-2 6.6-5.6 17.1-9.6 22.4-7.1 9.6-34.8 27.3-46.7 24.8-7.1-1.4-14.6-10.9-21.3-13.7-9.6-3.9-21.9-2.8-29.4-12.1-1 5.2-6.5 7.5-8.5 12s-2.9 15.3-.7 19.7c6.4 12.7 31.4 29.7 44.5 35.5 14.7 6.5 26.9 5.8 41.3 13.7 6.3 3.5 36.2 24.3 36.1 30.5 0 3-11.1 17.8-13.8 19.2-3.8 2-2.7-.9-4.1-2.8-12.7-17.2-36.9-22.9-55.2-31.8-6.8-3.3-5.9-3.8-13.9-6.1-9.2-2.7-8.1-11.7-13.8-17.2-10.3-9.9-30.3-11-35.7-26.3-4.7-13.3-.3-28.4-2.2-42.8-2.1-15.7-8-20.8-15.2-33.8-3-5.4-5.4-12.6-8.4-17.6-2.8-4.6-7.8-8.1-10.2-12.8-2-3.9-2.2-7.9-4.2-11.8-3.6-7.4-17.8-25.3-23.6-32.4-.9-1.1-2-2.6-3.4-3.1-1.6 16.5-8.1 34.1-9.1 50.4-1.2 19.2.7 48.4 2.1 68 .4 5.4 3.8 40 6.7 41.5 11.2 2.9 22.9 4.7 34.1 7.7 13.1 3.4 23.3 4.2 26.9 19.1 2.3 9.7 1.7 26.9 5 35 2.7 6.6 19.7 23.1 25.1 30.9 3 4.3 6.1 9.1 7.9 14.1 6.3 16.8 6.2 44.6 13 59 4.9 10.2 14.2-2.9 22.2-.7 3.5 10.8-2.7 20.2-8.2 29.2-3.9 6.5-5.2 12.8-13.5 7.4-11.4-16.1-22.7-29.3-29-48.5-4-12.2-2.6-16.6-3.3-28.7-.2-2.9-.9-12.3-1.7-14.3-1.2-2.7-3.9-3-5.3-4.7-6.5-8-15.3-16.3-20.8-25.2-6.8-11-12.4-35.9-21.9-43.1-14.5-11-32.3-10.9-46.4-18.6-8.2-4.5-8.4-13.6-8.9-22.1-1.2-18.6-1.5-40.4-1.1-59 .2-10.5 1.8-9.5-1.5-20.4-2.6-8.5 3.4-24.1 3.6-33.5.2-11-.8-40-3.1-50-.9-4.1-5.6-12.2-7.8-16.2-1.8-3.4-10.7-18.6-12.7-20.3-1-.8-8.3-1.2-10-1-4.6.5-10.1 16.1-11.6 20.4-2.3 6.7-11 36.6-9.5 41.6 1.2 3.8 6.8 11.4 8.7 16.3 8.1 20.6 1.9 39.6-3.5 59.9-2.8 10.7-14.9 41.9-14.6 50.1.4 13.1 9.6 51.9 15.1 64 6.5 14.4 27.7 21 39.8 31.2 11.3 9.6 8.7 14.6 13.1 26.9 6.9 19.5 19.3 44.8 23.7 64.3 4.4 19.2-6.3 22.3-7.5 36.9-.6 7.7 2.9 22 2.9 30.8 0 3.8-.8 10.9-1.2 14.9-1.2 11.1-7.9 28.9-2.8 39 3 5.9 16 13 17.7 20.3 2.3 10-7.7 22.8-18.2 22.2-3.9-.2-30-9.3-31.7-11.6-.8-1.1-1.8-5.1-1.8-6.7 0-7.7 5.2-20.8 6.6-29.4 2.2-13 2.8-25.5 1.3-38.7-1.1-9.7-4.8-16.4-2.3-26.3 3.1-11.8 9.4-21.3 9.4-34.7 0-3.7-5.2-27.1-6.8-30.2-1.1-2.2-3.9-1.2-6-6-4-9.1-6.6-28.1-15.6-33.4-4.8-2.8-9.1-2.9-14.2-6.8-21.2-16.3-38.7-47.3-53.7-69.3-4.7-6.9-15.9-18.4-16.8-26.2-.8-6.8 1.1-13.7.5-20.5-5.4 6.8-12.7 13.3-17.3 20.7-1.6 2.5-7.2 13.4-7.1 15.7.2 7.2 11 22.7 14.5 29.6 11.5 22.9 1.3 38.9 22.1 59.9 3 3.1 5.5 1.4 7.9 8.1 4.2 11.6 1.4 48.5-5 58.9-3.7 6-7.1 10.6-10.9 17.1-8.9 15.3-28.6 45.4-28.6 62.5 0 4.7 1.8 12.5 2.8 17.3.7 3.4 6.2 24.8 7.6 25.9.4.3 9.6 3.3 10.2 3.2 3-.3 15.5-11 18.6-8-.3 9.2-1.1 18.6-4.2 27.3-1.6 4.3-13.2 25.8-15.7 28.3-.8.8-9.1 7.3-9.7 7.4-5.2.9-11.9-18.4-14.2-22.6-4.9-8.6-14.5-19.8-16.9-29.1-3.2-12.8 2.9-31.7 2.8-44.7 0-2.1.1-4.9-2.1-6.1-1.2-.6-8 .2-9.4.6-6.4 1.7-11.5 17.5-12.4 23.6-3.3 20.8.6 41 7.9 60.4-.9 1-11.8-8.2-13-9.5-10.4-10.8-9.4-26.3-12.2-39.8-.9-4.1-3.9-8.7-4.5-13.5-2-14.9 9.2-22.1 14.6-34.9 2.8-6.6 3.7-14.7 7.3-20.7 5.2-8.8 19.9-21 27.4-29.6 12.8-14.9 23.2-25.8 24.5-46.5 1-16-6.2-17.4-11.9-30.2-6.9-15.4-11.3-29.7-23.1-42.9l-4.2 10.9c-11.1 19.4-28.1 34.7-41.7 52.3 1.1 17.9 2.9 34-5.7 50.3-3.6 6.8-12.7 17.1-13.5 24.6-.6 6.2 1.5 15.4.9 22.9-1 13.7-8.5 30.6-8 44 .2 7 12.4 31.7 16.8 38.3 7.1 10.6 8.5 11.9 14 24 6.1 13.3 20.1 13.8 32.4 16.6 2 .4 3.7 2.2 5.4 2.5 1.1.1 3-1 3.3-.7.4.3 1.9 8.4 2 9.5.5 7.4-4.3 11.2-9.5 15.4-3.6 2.9-10.9 8.6-15.2 7.3-2.1-.7-15.5-8.3-17.2-9.8-4-3.4-9-11.6-13.1-15.9-6.9-7.3-16-13.3-22.5-20.5-3.2-3.5-10-16.4-13-17-2.1-.4-9-.1-10.8.9-1.1.6-.3 2.2-1.3 3.1-2.8 2.4-8.6 3.6-12.2 7.6-10 10.9-11.2 35.6-22.6 48.4-5.6 6.2-43.2 33.3-50.2 34.7-1.8.3-4 .6-5.7.2-2.6-.5-14.4-12.8-15.3-15.7-5.4-17.5 12.8-37.3 17.5-53 2.7-9.2.9-16.9 2.3-24.7.1-.6 3.6-7.3 4-7.5 4.7-3.3 5 14.6 4.9 16.4-.5 4.9-3.6 10.1-2.4 14.6 3.3 12.9 12.7 12.4 21 4 6.7-6.8 9.1-24.6 13-34 7.6-17.9 26-34.3 42.3-44.2 1.9-15.8 5.2-31.5 7.2-47.3 2.3-18 .8-30.4 7.8-48.2 2.7-6.8 12.4-21.7 13.1-26.9 1.1-8.1-5.7-14.9-9-21.4l-4.5 24c-5.9 21.3-27.4 39.7-38.3 58.7-6.7 11.6-10.4 24.5-17.8 36.2-5 7.9-23.7 29.5-31.4 33.6-5.4 2.8-1.1-5.5-5.6-6.3-.9-.2-10.1 1-11 1.7-.7.5-3.9 5.2-4.6 6.4-6.2 9.9-8.5 22.1-7.8 33.7l-2-7.5c-.9-18-2.7-35.9-2.1-54 .2-5.1 2.4-13.4 2.1-18-.2-4-6.5-9.7-6.1-14.5-1.7.6-2.8 2.3-3.8 3.7-7.1 9-26.1 37.7-28.1 47.9-1.3 6.8-4.1 30.9-3.8 37.1.1 1.5 1.5 2.4 1.7 3.8 1.4 13.3-6.7 26.9-.1 40.1 3.9 7.9 7.3 8.2 16 7.1 6.4-9 12.1-20.9 19.2-29.3 1.3-1.6 5.8-6.4 8-4.5.9.8-9.4 19.5-10.5 22-5.1 12-13.1 45-20.5 52.5-3.1 3.1-11 4.1-15.4 3.4-15-2.3-8.6-26.8-14.2-28.8-9.2-3.1-13.3 6.4-17.5 12.8-11.1-2.1-12.8-14-17-22.3-1.8-3.5-4.4-6.4-6.1-9.9-1-1.9-.4-4.2-1.7-6.3-2.7-4.3-15.3-7.8-16.1-15.4l-1.5 2c-4.2-4.6-15-5.6-15.6 2.5-1 13.5 9.9 37.7 11 52.2.5 6.4-4.2 10.6-10.4 10.4s-34.9-9.6-38.6-13.5c-2.4-2.5-6-11.5-8.6-15.4-7.6-11.7-15.2-16.7-23.8-26.2-6-6.6-16.6-28.8-25-29.9-10.1-1.4-8.6 4.1-8.7 12-15.2 3.7-32.3 15.4-41.7 27.8s-10.5 29.1-29.8 30.3c-3.6.2-13-6.9-14.8-10-3.1-5.4-4-17.1-2-22.9 9-26.7 31.3-71.6 14.3-98.4-3.8-5.9-8.3-7.9-15.3-6.7-4.2.8-3.7 7.2-3.5 10.5.8 12.6 4.6 18.6 1.2 32.3-1.9 7.7-11.8 39.2-15 44.9-8.1 14.4-16.1 2.5-22.6-5.8-8.3-10.7-18.5-30.5-21.3-43.7-1.4-6.6-1.2-28.1-4.2-31.8-1.4-1.7-11.9-4.4-15.1-5.9-14.2-6.7-13.1-12.8-22-21-6.6-6.2-16.9-9.5-23.5-17.5-18.1-21.6-18.2-42.5-23.6-68.4-1.1-5.2-2.6-10.3-2.9-15.7l-2.2 15.3c-15.5 8.9-9.4 28-9.8 42.2-.2 7.3-2.6 13.9-2.1 22 1 14.7 9.8 27.2 11.8 39.2 1.3 8 1.2 17 2.2 24.8.5 4.4 3.4 17.8 2.9 20.7-.5 2.6-6.4 8.2-8.3 10.8-2 2.7-3.4 7-5.7 9.3-2.5 2.7-21.3 13.9-24.4 13.6-.6 0-.5-1.6-.8-1.7-.5-.3-1.7.7-2.8.2-6.5-2.9-8.9-31.8-10.5-39.5-7.5-35.8-24.3-48.1-37.4-77.6-7.1-16.2-5.6-35.4-4.1-52.8 2.2-25.9 8.7-52.4 11-78.5l-9.2 13.8-8.4 1.2c-9.9 13.1-25.2 27-32.3 41.7-7.7 16-1.9 29-16.2 44.8-18.9 20.7-29.7-15.6-37.2-27.8-1.8-2.9-8.9-10.9-9.4-12.7-.7-2.4 1.8-3.8 1.5-6.3-.5-3.5-9.6-15.2 0-15.6 3.6 3.7 13.8 21.9 17.1 23.3 5.8 2.4 10.1-1.4 13.4-5.6 8.5-10.8 1.2-19.8 7.1-28.9 15.5-20.5 40.4-38.8 53.9-60.1 11.8-18.7 9.5-34.9 14.9-55.1 3.8-14.4 16.8-32.9 25.5-45.5 6.2-9 27.6-34.3 29-43 .8-4.7-3.9-16.4-3.9-22.7.1-14.2 9.8-28.7 11.9-42.2 2.6-16 .3-24-1.7-39.1-2.4-17.5 1.4-29.4 7.8-45.3l-23.5 18c-13.7 15.5-19.5 35.9-31.4 52.6-.7 2.2 2.8.7 3 4.9.3 8-2.6 22.1-3.1 31-.6 11.3 2.3 21.6-3.2 31.8-1.7 3.1-10.3 13.9-10.7 15.4-.3 1.1 2.8 13.5 2.8 16.8.1 11-11.5 62.7-18.5 69.6-1.1 1-2.6-.3-4 .8-18.5 14.5-30.3 27.2-53.1 38-7.4 3.5-16 5.6-23 9-8 3.9-23.7 18.7-30.1 20-2.4.5-3.7.3-6-.6-2.1-.8-14.4-10.7-16.3-12.7-3.5-3.7-7-9.9-7-15 0-3.1 5.9-26.7 7.1-27.5 5-3.5 8.4 13.2 9.5 16 1.9 4.7 6.2 13.3 11.8 13 10.6-.7 18.8-11.8 27.3-17.8 19.6-13.7 38.8-14.9 59-25 15.3-7.7 23.7-17.8 14.8-35.2-2.7-5.2-13.5-8.2-18.9-7.9-3.3.2-6.2 3-8.5 3.5-4.4.9-8.6 1.6-13.2 2.7-22.2 5.3-45.4-2.1-63.1-16.4-5.1-4.1-4.4-8.3-8.7-11.3-2.5-1.7-15.2-5.7-15.8-6.7-1.9-3 7.7-17.8 10.5-18.7 7.3-2.2 22.8 8.4 28.8 12.8 4.7 3.4 5.3 7 12.1 8.9 15.8 4.4 39.2-2.2 53.8-9.1 20.2-9.6 31.5-24.9 45.4-41.6.6-12 3.2-23.8 6.2-35.3l-11.7 7.8c-5.9 3.5-18.3 8.4-25 9-1.8.2-3.2-1.9-4.7-1.6-.8.2-7.2 5.7-9.1 6.9-17.4 10.3-36.9 12-56.5 8.5-1.2-.7-6.7-15.8-6-16.5 18.5 4 37 5.4 53.9-4.6 6.2-3.7 11.2-9 17.4-12.6 10.1-5.8 20.6-8.1 30.1-15.8 18.4-14.9 20.6-41.9 37.6-55.4 4.9-3.9 16.2-8.6 19.4-12.6 3.7-4.6 5.3-16.8 8.7-23.3 4.8-9 13-13.4 18.3-20.7 3.9-5.5 6-13.6 9.4-19.6 17.3-30.7 50.7-37.5 59.9-77.1 7.4-32 12.5-100.5 38.4-121.6 10-8.1 21.9-14.2 31.9-23.1 14.2-12.5 29.8-36 43.7-45.3 14.3-9.5 29.6-14.8 43.3-26.7 3.4-2.9 14.8-16.2 17.5-16.5 4.5-.7 6.8 2.9 6 7.1-2.1 11.3-24.6 27.8-34.1 34-8.2 5.3-19.8 10.2-27 16-7.5 6.1-15.9 18.5-23 26-9.6 10.1-19.5 18.8-30.6 27.4-16.1 12.4-22.4 11.4-30.7 32.3-14.7 37.2-10 73.8-18.5 112.4-8.2 37-37.8 61.6-58.5 91.5-1.5 2.2-8.2 11.9-8.7 13.3-1 3.1.1 6.1-.7 8.3-.5 1.4-2.8 1.4-3.9 4.1-6.8 17.2-8.5 46.3-10 65-.8 10.5.5 21.7 2.3 32.8 1.1 6.7 4.9 14.1 5.7 19.3.9 5.8-.1 12.3 1.5 18.5 2.3 9 29.1 33.5 35.7 47.3 8.3 17.1 1 30.3 14.4 47.6 1 1.3 4.3 5.7 6 3.1l13.5-51.6c-4.8-13.6-11.4-26.9-13.8-41.2-3.9-23.5 10-42.4 13.5-65 2-12.8 1.1-26 2.3-38.7 3.5-35.6 64.5-116.1 85.4-150.6 9.7-15.9 24.3-37.9 28.1-55.9 1.7-8 .6-17 3-24 4.6-13.5 18.2-23.2 22-41 1.4-6.4 1-16.5 3.2-21.8 1.1-2.6 6.4-6.2 8.8-8.2 17.5-14.4 37.3-27.7 55.3-41.7 10.3-8 33.9-30.2 44.1-33.9 19.8-7 35.3-9.3 54.6-20.4 3.4-1.9 17.8-10.8 18.3-13.7 2-9.9-10.9-24.8-9.8-31.8 1.5-9.8 9.2-1.6 11.5-.9 1.3.4 12 2.9 13 3 13.6 1.2 13-20 20.2-22.3 2.5-.8 4.4-1.2 5.9 1.2s8.5 17.7 9 20c1 4.8-.2 10.8.2 15.8.9 10 8.7 44.5 14.1 51.9 4 5.4 30 21.1 37.8 27.2 33.5 26.8 71 69.5 85.9 110.1 6.4 17.6 5 22.6 1.9 40.4-4.3 24.9-10.9 49.3-15.4 74.2 5.5 20 13.1 39.3 21.8 58 5.8 12.3 17.1 26.2 15.8 40.1-.6 6.9-5.5 19.1-8 26-8.2 23.2-19 45.7-27 69-4.5 13-7.4 26.5-11.7 39.3-.5 1.4-5.2 15.8-7.2 14.2-.1-1.5-1-3-1.1-4.5-.6-18 4.8-41 9.6-58.5 5.5-20.1 16.6-40.7 14.6-61.6-1-10.4-12.8-21.9-16-32-2.5-7.9-5-26.7-5.1-35-.1-5.6 1.9-11.1 1-16.9-.8-4.9-6.6-14.4-8.2-20.8-7.1-27.1 10.4-48.5 8.2-74.2-.4-4.8-2.8-10.3-2.9-15.1-.2-8.2 4-17 1.4-25.3-1-3.2-3.7-4.3-4.9-7.1-1.9-4.7-1.3-11.2-3.3-16.7-5.1-14.4-49.9-63.2-62.7-77.3-9.2-10.1-18.8-19.9-28.5-29.5l-1 4.5c-8.9.8-9.5-11.2-13-15.5-6.4-8.1-16.9-9.4-25.8-12.2-6.7-2.1-13.3-6.7-20.7-5.3-2.9.5-6.2 6.5-9 8.9-17.9 15.8-58.8 30.8-81.4 43.6-17.8 10.1-46.9 31.5-62.1 45.9s-13.2 31.4-21.8 47.2c-2.3 4.2-10.8 9.7-12 13-4.9 14.1-2.5 34.8-8.1 48.9-26.4 67.1-91.1 114.1-107.9 186.1-4.7 20.2-10.8 50.4-9.4 70.7.9 13.2 7.3 29.3 9.8 43.2 1.5 8.4 1.8 25.7 4.5 32.4.8 2 11.9 12.7 14.3 14.7 7.6 6.3 22.2 12.1 27.5 17.5 2.9 2.9 5.2 12 7.4 14.6 1.3 1.4 3.8.5 5 2 .6.7 2.6 8.4 2.5 9.6-.1 2.4-2.1 3.4-1.9 5.7.9 8.6 5.7 12.5 9.2 18.9 8.9 16.2 9.9 25.8 23.6 41.4 4.7 5.4 13 16.1 20.5 11.6 3.2-8.8 6.7-30.8 12.4-37.4 2-2.3 8.6 4.6 9 6.1.7 2.6-3.1 3.5-.9 4.8 7.7.7 10.2 8.5 16.1 12.9 8.1 6 20.3 9.2 27.5 16.6 4.8 4.9 7.1 13.9 11.2 19.8 3.5 4.9 8.8 6.3 6.3 13.1 4.1 2.9 8.8 6.7 12.4 10.1 1.8 1.7 3.3 5.1 4.9 6.1 2.7 1.7 5.8.5 8.6 1.4.7.2 11.8 7 12.3 7.5 1.5 1.6.3 4.9 2.4 6.1 4.9 2.7 21.3 5.6 28 7.7 19.3 6.1 40.2 16.2 60.8 14.3 5.8-.6 12.2-4.4 17.2-4.8 3.7-.3 7.1 2.6 11.5 1.6 2.6-.6 3.8-3.1 5.4-3.6 2.3-.7 5.1.2 7.6-.4 15.9-3.9 22.6-10.4 35.7-17.3 19-9.9 12.6 8.6 8.2 19.2-1.8 4.4-10.1 17-10.1 19.8.1 3.7 4.7 9 8.5 9.5 10.5 1.3 20.7-16.4 25.8-24.1 4.5-6.8 8.2-14.7 12.8-21.2 10.6-15.1 26.4-26.5 33.3-44.7 6.9-18.1 4.8-40.9 11-59 4.6-13.3 16.7-27.9 23-41 1.2-2.6 5-10.6 5.3-12.8 1.1-10-8.5-30.7-8.8-42.8-.7-26.5 33.8-67.6 41.9-94.1l19.1-44.3c-.2 10.3 2.4 20.8.6 31-1.4 7.7-9.7 23.8-13.4 31.6-2.6 5.6-14.2 25.5-14.7 29.3-.2 1.4 1.7 2.2 1.4 4.3-.3 2.5-5.6 10.6-6.9 14.2-4.2 11.6-7.3 27.8-7 40.1.2 9.6 4.8 26.6 1.8 34.7-10.7 14-25.9 33.4-28.7 51.3-.4 2.6.3 5.5-.1 7.9-1.5 8.8-3.7 17.5-4 26.5l8.1-22.9c2.2-.5 4.7.4 6.9-.6 3.4-1.6 4.4-13.6 11.4-8.4 1.5 1.1 1.2 2.7 1.9 3.6 3 3.7 7.7 12.9 7.7 17.8zm101-183c9.2-14.6 18.5-29.5 30.5-42 2.2-2.3 7.6-5.1 9-8 .4-.8 4.2-15.7 4.2-16.6.4-4.3-1.9-11.4-1.8-15.9.5-18.4 7.4-45.6 11.6-64.5 2.3-10.6 8.2-26.1 9.4-35.6 3.6-27.6-.9-60.3 3.2-89.8.5-3.8 5-17.7 4.7-18.9-.4-1.9-4.9-9.4-6.1-13-5.9-16.9-6.3-29.6-17.3-44.7-12.6-17.3-33.7-42-51.7-53.3-13.3-8.3-35.2-17.2-50-24-9-4.1-18.2-7.8-27.2-11.8 3.5 5.3 8.1 10 11.7 15.3 10.2 14.6 11.9 22.4 11.3 40.7 12.7 16.3 25.6 32.5 37.9 49.1 3.1 4.3 11.4 13.9 12.8 18.2 2.6 8 .6 21.8 1.8 30.2 1.3 8.5 9.3 20.2 10.7 30.3 2.2 16.2-7.9 51.7-13.2 68.2-6.6 20.6-11.7 25.6-8.4 49.4 3.1 21.8 10.7 23.9 18.4 40.6 6.9 14.9 2.1 29.1 1.4 44.5-.5 12.2 1.8 20.2-1.5 32.5-.9 3.4-5.2 12.7-5.3 14.7.1 1.3 2.3 5.7 3.9 4.4m-747 39c-2.6-2-23.4 19.5-26 22.5-4.7 5.3-9.9 11.5-13.3 17.7-9.9 55.1-15.3 110.9-23.7 166.3 5 41.2 30.7 76.8 46.1 114.5 1.7 1.6 3.6-3.8 3.7-4.6.5-7-.9-23.2-1.7-30.9-1.2-12.1-4.7-17.8-7.5-28.5-5.4-20.8 3-33.8 4.5-53.5.8-11-.6-22.9 0-34 1.3-26.8 4.5-32.8-2.7-60.2-5.7-21.6 4.9-35.3 10.2-55.2 2-7.6 2.8-15.6 4.8-23.2 1.7-6.7 6.6-17 7.5-22.5.4-3.3-1.5-5.5-1.9-8.4m119 93c-13.2 1.4-28.2 4.3-41.5 3-18.6-1.8-29.3-30.4-41.5-42-3.4 13.3-11.7 28.5-13.6 41.9-1.8 12.9 3.6 46.4 7.8 59.3 4.5 13.6 17.5 30.2 19.5 44.5 1.6 11.5-1 23.7.8 35.2 8.6 9.8 21.6 18.3 29.5 28.5 1.4 1.8 1.7 4.9 2.6 5.6 2.1 1.6 16.2 4.4 20.6 6.2 21.1 8.5 14.6 24.8 21.6 42.4 1.6 3.9 9.5 19.6 12.1 21.9 1.3 1.2 2.6 1.9 4.4 1.5.7-.2 4.9-10.2 5.3-11.9 4.1-15.2-7.5-29.2-9.5-44-.6-4.5.1-8.7-.7-13.3-1.7-9.5-15.8-45.8-20.4-55.6s-19.3-24.8-20.2-33.8c-.5-5.5.9-10.7 2.1-15.9 2.3-9.1 23.7-70.7 21.1-73.5m76.7 42.3c-1.4-1.7-17.9-11.7-21-13.4-2.8-1.6-12.3-7.1-14.7-6.4-5.1 1.4-20 20.6-23.4 25.7-2.1 3.2-8.3 12.8-9.1 15.9-1.6 6.3 1.6 28.3 4.8 34.3 2.8 5.3 13.4 9.6 18.2 13.8 10.1 8.7 8.8 24.8 14.8 36.2 2.8 5.3 5.8 5.1 9.2 8.8 5.7 6.1 22.8 52.4 23.5 61.5 1.1 15.3-2.9 28.8-2.9 41.9 0 2 2.3 15.7 3 17 1.9 3.1 7.9 1.9 10.8.1 4.7-3 22.8-24.1 23.9-29.2s-2.6-19.5-1.8-27.8c.5-5.2 4.3-11.7 4.1-16-.1-2.9-2.8-7.2-3.6-10.5-5.4-21.1 13.5-35 13.6-52.5 0-1.6-1.2-10.5-1.6-11.5-1.1-2.5-14.8-14.5-18-18-5.4-5.9-17.3-19-18.4-26.6-.5-3.2.7-8.2-.2-10.8-.4-1.1-3.8-2.9-5.3-6.7-2.2-5.4-4-23.5-5.9-25.8m81.5 197.5c2.5 2.6 15.2 6.2 19.4 9.1 8.6 5.7 6.8 11.9 10.1 19.9 2.8 6.9 11.9 26.8 15.7 32.3 1.4 2.1 11.1 8.6 13.5 9.5 5.9 2.3 4.1-10.1 4-14-.4-9.7-2-30.9-4.2-39.8-1.8-7.2-11.9-13.4-12.8-23.2-.6-6.6 2.2-23.3 3.1-30.9.9-6.8 3.9-15.6 4-22.1.2-20.8-9.4-44.5-19.9-62.2-11-18.4-39.3-37.4-54.7-54.3-3.4-3.7-8.2-11.9-11.4-14.6-1.2-1-1.5-1.5-3.3-1.3-6.6 1-4 4.8-5.5 9.6-1.8 5.7-13.8 18.7-13.2 24.7.5 5.1 21.7 26.7 26.5 31.6 1.7 1.7 3.9 2.6 5.6 4.4 10.2 11 3.7 36.4 5.1 50.9 1.2 12.5 6.6 30.5 10 43 1 4.2 6.4 25.6 8 27.4m128.9 60.1c.7.5 9.2-2.8 10.4-3.9 2.4-2.2 2.9-5.4 2.4-8.4-.8-5.6-17.2-18-21.5-23.6-6-7.8-8.5-32.4-12.2-43.8s-9.7-22.1-11.8-34.2c-2.7-15.2 3-22.1 5.3-35.8.5-2.7 1.7-13.7 1.1-15.6s-2.8-2.1-4.4-2.6c-5.3-1.8-20-5.4-25.2-5.9-3.4-.3-9.4 2.2-9.2 6.2 3.1 12.6 10.2 25.4 13.3 37.8 2 8.3 2.3 17.7 1.7 26.3-.4 6.7-4.7 22.5-3.8 27.8.7 4 6.8 14.1 9.4 17.7 5.2 7.2 13.9 13.3 18.2 19.8s5 16.8 9.7 23.3c3.2 4.4 9.8 7.2 14 11 1.4 1.1 2.4 3.8 2.6 3.9m54.8-159.8c-.6-1-4.7-1.1-6.1-.9-5.1.7-19.1 4.8-24.5 6.5-1.6.5-9.8 3.6-10.6 4.2-.5.4-2.4 9.5-3.4 11.8-5.3 12.2-10.7 13.5-11.2 29.8-.4 11.6 7.2 63.6 13 72.1 2.4 3.5 7.6 6.9 10.4 10.6s4.2 8.2 7.1 11.9c7.5-18.4 2.8-38.3 4.5-57.5.7-7.4 4.4-15.9 5-23 .7-9.8-5-13.9.1-25.9 2.7-6.5 19.2-33.9 15.7-39.6" class="shading" data-original-prefix="shading" opacity=".2"/><path id="outline-shading-head1" fill="#000" d="M992 900c-2.3 3-33.3 4.8-39.2 6.3-15.6 3.9-34.7 16-50.8 21.2-23.3 7.5-56 8.3-80.5 7.6-5.5-.2-15.2-3.9-19.4.5-1.2 1.2-1.2 3.2-2.5 4.5-6.3 6.5-56.2 19-67.5 21.5-10.7 2.3-33.5 3.8-41.5 9.5-6.3 4.5-20.2 26.4-22.1 34-.3 1.1 1.8 7.7 1.6 11.5-1.8 37.1-18.5 93.7-43.5 121.5-11.3 12.6-30.5 27.3-39.9 40.1-1.4 1.8-2.1 5.8-3.8 8.2-13 19.4-46.7 58.6-53.1 77.9-3.6 11-3.5 32.2-9.3 40.7-3 4.5-18.8 19.4-24.3 15.9-1.9-1.2-7.7-23.2-9.1-27.3-2-5.7-8.5-15.9-6.3-21.2 3.7-8.7 12.7-2 17.5-2.5 9.9-1 16.3-19.4 21.3-26.7 5.3-7.7 13-14.7 18.8-22.2s22.4-30.2 24.8-38.2c3.4-11.1-15.2-22.6-12.2-34.7h-3c2.6 16.1-9.1 27.6-20 37.5-10.8 9.8-23.7 19.2-35 28.5.2-5.5 1-11.7-6-12-.5-1.9 1.5-2.4 2-4-3.1 0-6.4-.8-9-2.6-6.9-4.6-17.9-34.7-22.2-43.8-9.1-19.1-19.9-37.7-26.9-57.6 11.3 3.1 21 11.7 32.9 13.6 30.4 4.8 53.3-25.4 69.5-46.6 2.9-2.3 5.7 3.9 9.8 5.3 2.6.9 4.7.4 7 1 3.2.9 6.3 6.3 9.3 8.7 8.8 7.3 18.6 7.8 26.8 13.2 6.9 4.6 11.9 16.6 23 13.8 2.4-.6 20.8-37.8 25.2-42 7.8-26.2 25.6-90.3 50.5-103.5 12.5-6.7 35.4-7.8 50-11 10.3-2.3 20.7-5.1 30.8-8.2 14.3-4.5 26.5-8.2 37.9-18.1 36 1.1 73.3 2.9 107.8-9.2 27.6-9.7 38.5-21.8 70.9-15.9 1.4.1 11.8 2 9.7 4.8" class="shading" data-original-prefix="shading" opacity=".2"/></g><path id="outline-head-rastaman" fill="#000" d="M1536 1647c1.8 28.3 9.9 58.1 8 86.5-2.8 41.9-33.6 68.8-43.3 107.7-5 20.1-3.1 49.3-32.9 45.6-5.7-.7-26.4-7.8-31-10.9-10.1-6.8-.9-30.1 1-39.6 5.1-25.2 1.7-32.3-.6-55.8-2-21.4 15.8-42 9.8-64.8l-1.9-7.6c-1.7 10.8-.1 21.8-3.1 32.4-2.6 9.3-10.4 17.1-16.9 24.1-3.2 3.4-10 8.1-12 11-7 10-6.1 14.7-17.5 24.5-17.8 15.1-29.4 13.9-33.3 40.7-3.8 26.2-2.5 56.2-26.2 74.8-18.9 14.8-21.5-3.1-28.8-16.1-4.8-8.5-12.6-18.2-16.3-26.7-6.8-15.1-.3-39.3.2-55.7-19.4 17.4-14 48.5-6 70.5 4.2 11.6 15.1 29.9 14 41.9-.8 8.1-20.4 24.2-27.9 25.2-4.6.6-22.3-8.9-26-12.1-3.3-2.9-7.5-10.2-11.1-13.9-12.4-13.2-27.8-22.4-35.5-39.5-3.4 4.9-9.8 5.6-14 9-8.6 6.8-13.8 32.9-20.7 44.3-6.3 10.3-21.3 20.4-31.5 27.5-11.3 7.9-21.7 17.5-36.8 15.1-3.8-.6-16.3-13.6-17.8-17.2-1.3-3.1-1.1-14.4-.7-18.2 1.8-19.5 20.4-37.2 20.9-56.1.1-3.7-1.7-7.1-.7-11.7.6-2.7 4.7-7.5 6-11 3.8-10.8-.1-17.3.3-27.7-8.7 5.9-14.4 23.4-13.5 33.5.3 3.4 1.8 6.4 2 10 .5 9.4-11.8 29.9-15.8 40.3-4.4 11.2-9.9 36.2-17.2 43.8-5.8 5.9-22.9 6.6-29.9 1.9s-7.4-18.5-8.1-26.4c-7.2 6.9-8.6 14.4-19.8 15.8-6.6.8-6.7-1.7-9.8-6.7-6.1-10.2-8.2-21-15.7-31.3-2.4-3.3-16.3-19.2-19.3-19.7-2.2-.4-1.6.8-1.3 2.3 2.6 13.2 13.2 47.2 11.7 58.1-1.3 9.4-12.6 8.1-20.3 7.5s-35-9.4-40.3-14.2c-3.2-2.8-11.5-19.9-15.9-25.6-6.1-7.9-13.6-12.5-19.4-19.6-3-3.8-16-26.4-19.5-26.5-4-.1 1.5 9 .4 10.8-.6 1-18.2 7.5-21.9 9.6-7.2 4.2-17.4 13-22.4 19.6-6.2 8.2-9.2 21.6-18.6 26.4-4.4 2.2-15.5 6.4-20 5.1-3.4-1-15.8-11.6-17.2-14.8-2.6-6.2-.9-14.8-2.6-21.3 7.7-26 30.3-68 18-94.2-2.1-4.4-4.5-9.1-10.2-8.3 2.8 11.8 6.3 24.9 3.3 36.8-4.3 17.1-14.5 34-15.8 52.2-6.5 4-13.2 10.3-20.4 5.4-14.5-9.9-30.5-38.5-34.8-55.2-2.7-10.5-1.5-22.5-3.8-33.2-9.7-4.2-20.9-7.7-28.6-15.4-3.4-3.4-5.2-8.9-7.5-11.5-2.7-3-13.9-8.6-18.5-12.5-13.8-11.9-23-28.6-26.5-46.5-1.7-8.5-3-18.6-1.5-27-10.5 11.9-7.8 29.5-2.7 43.2 1.8 4.8 8.3 14.6 8.7 17.3 1.1 7.3-2.9 25.7-2.9 34.8 0 4.1.6 10.8.9 15.1 2.2 26.4 14.5 39.1-10.7 58.3-11.5 8.8-35.8 24.8-42.6 3-6-19.4-4.5-37.7-13.5-58.5-8.1-18.6-24.1-36.3-30.9-54.1-8.5-22.3-1.8-76.3.8-101.8.2-2.1 2.4-11.1 2-11.5-1.5-1.6-1.9.8-2.3 1.3-10.5 11.8-30.6 34.9-34.2 49.7-1.6 6.5-1.2 13-3.4 19.6-3 8.9-13.5 23.7-23.5 24.5-20.1 1.6-25.7-21.9-33.7-35.4-5.9-9.9-16.8-18.3-16.9-30.2 0-15.2 17.9-44.4 25.9-58.2 5.1-8.9 10.7-17.7 16.2-26.3-1.2-.9-17.1 7.4-19.7 8.8-10.1 5.7-22 17.6-33.9 16.2-6.4-.8-24.4-16.8-27.2-22.8-5.9-12.6 1.1-32.1 6-44.5 7.6-19.2 17.4-31.1 37.8-37.2-11-2.2-19.3-4.7-22.5-16.5-1-3.4-1-10.2-3-13-4.3-5.8-25.1-3.3-19.7-19.8 1-3.2 11.6-18.6 14.2-21.7 7.5-9 13.8-10.4 25.4-9.4 8.5.7 18.5 6.7 25.6 1.8l-8-4.5c-8-6.2-17.1-28.7-13.2-38.3 2.8-6.8 19.1-10.6 25.2-14.8 12-8.4 12.9-28.4 19.6-41.4 8.1-15.7 21.8-21.6 37.5-27.5 2-1.6.1-7.1-.5-9.5-4.6-17.3-19-45.5-17.5-62.6.8-9 7.5-19.1 12.6-26.4 1.6-2.2 9.8-10.1 8.4-12.1-.1-.2-3.1-.7-4.2-1.3-4.1-2.2-7.1-5.3-10.2-8.8-23.5-50-52.1-100.9-67.8-154.2-17-57.8-.1-77.8 33.9-121.7 15.5-20 33.3-41 49.9-60.1 19.3-22.2 33.2-36.7 60.2-49.8 155.1-75.6 308-128.3 479.2-156.8 46.4-7.8 114.7-19.8 160.4-12 76.2 12.9 176.7 101.2 229.8 156.2 61.4 63.6 120.5 132.6 161.5 211.5 11.7 22.5 26.9 51.5 16.3 76.4-14.3 33.7-53.3 94.3-79.8 119.2-1.8 1.6-10.3 7.4-10 8.9 21.2 17.3 40.4 43.5 41.1 72.1.1 6.4-3.4 7.3 1.5 14.4 10.4 15.1 37.2 20.5 49.9 35.1 6.3 7.2 28.2 51.4 31.5 61.5 4.1 12.3 5.7 27.1-4 37.2-.4 2.4 9 9.2 11.6 10.2 11.8 4.6 48.8 1.6 46.1 21.4-.6 4.3-8.5 25-11 29.1-6.4 10.6-18.8 17.5-28.8 24.2 17.2 8.6 28 20.6 36.2 37.8 11.6 24.6 15.4 46.9-5.2 68.2-17.5 18-25.7-3-35.9-13s-23.6-13.3-36-18c4.9 8.8 16.3 22.9 16.6 33.2.2 8.3-6 25.9-6.7 36.8-1.2 19.9 3.5 32.3 4.9 50.2.9 11.9-3 17.3-8.7 27s-12.3 24.4-23.7 11.3c-10.5-12.1-30.4-41.4-33.2-56.8-1.9-10.6.6-28.2-2.5-36.5-1-1.9-12.4-10.9-14.2-13.9m-410.2-979.7c-51.5 3.3-112.1 16.3-163 27-124.1 26.1-257.3 66.2-371.2 121.8-30 14.7-55.3 25.9-77.6 51.4-11.3 12.9-23.3 27.5-34 41-14 17.6-52.5 67.7-54.9 88.1-3.6 30.7 21.3 85.6 34.7 114.1 7.6 16.1 22.9 49.5 34.2 61.8 9.1 9.9 31.3 12.8 38.5-.5 1.5-2.7 6.6-16.9 6.6-19.5 0-3.7-2.2-4.8-3.2-7.9-4.2-13.5 2-30.6 1-46-.5-9.2-3.9-20.2-3.9-29.1.1-25 28.8-61 39.8-84 13.1-27.5 19.7-61 33-89 5.2-10.9 7.5-15.3 20-18 13.3-2.8 29-2.5 42-6 23-6.2 48.1-21 70.2-29.8 39.7-15.8 104.1-1.6 148.5-4.5 17.1-1.1 29.7-7.6 47.5-3.6 9 2 16.1 7.5 24.3 10.7 14.2 5.6 29 .9 45.2 6.8 11 4 16.8 10.7 26 16 10 5.8 12.8 0 22.8-3.3 7.4-2.4 21.6-6 29-4.5 9 1.8 10.7 10 15.7 15.3 7.5 7.9 28.2 15.8 38.5 22.5 5.2 3.3 25.5 21.3 27.2 21.8 6.1 1.8 22.3 2.2 30.5 3.5 44.1 7.4 92 17.1 135.8 26.2 37.9 7.9 55.2 44.9 83 69 19.4 16.9 39.7 18.8 50.8 45.2 2.8 6.8 5.2 15.7 7.2 22.8 5.2 19.4 16.7 64.3 13.8 82.7-.9 5.8-12.5 25.4-11.7 28.1.2.8 9 8 10.9 6.2 28.8-35.1 55.6-74.9 77.2-114.9 5.8-10.8 10-16 8.7-29.1-3.3-34.3-45.8-100.5-66.1-129.9-55.2-80.2-162.5-201.9-252.1-240.9-34.4-14.9-87.5-23.9-124.9-21.5m-90.9 230.9c-11.9-9.5-23.6-19.7-37.9-25.7s-53.8-15.7-69.4-16.6c-12.5-.7-19.2 3.8-30.5 6.6-46.2 11.1-97.9-1.7-145.4 5.6-16 2.5-20.3 9.4-33.3 15.7-22.5 11-54.2 10.6-78.9 13.1-1.5.2-3.5.5-4.8 1.2-.8.4-11 11.4-12.1 12.9-17.7 23.2-31.2 88.4-43.8 119.2-6.2 15.1-17.3 27.4-19.6 43.4-1.7 11.3.9 22-.1 32.9-.5 5.9-4.6 12.1-1.8 17.7 3 6 16.3 11.8 22.3 15.7s11.8 9.1 18.2 12.9c9.3-7.7 18.5-16.9 26.3-26.4 14.5-17.6 24.4-44.9 31-66.9 5.5-18 4.3-26.4 6.1-43.9 1.5-14.8 10.9-24.7 18.7-36.3 1.9-2.8 2.8-6.6 4.8-9.2 6.8-9.3 19-6.7 28.7-8.3 18.2-3.1 34.7-8 51.5-15.5 13.5-6 33.4-20.1 47.7-19 8.1.6 17.1 4.2 25.1 4.8 16.4 1.4 40.6-.7 56.5-5.4 9.4-2.8 24.4-14.7 34.3-19.7 23.8-12 57.2-22.3 80.2-3.8 5.6 4.5 10.2 11.8 15 16 .9.8 1.1 1.3 2.5 1 2.2-7.7 8.3-13.8 8.7-22m214.2 173.7c-8.3-18.4-23.3-32.6-34.9-48.6-19.8-27.5-36.2-62.5-61.7-85.3-18.4-16.5-39.5-31.6-58.9-47-4.7-3.8-12.5-13-18.1-13.9-9.9-1.6-14.4 4.7-23.4 5.9 4.1 10.3 1.8 18.7-2.1 28.3-1.8 4.3-12.8 22.6-12.9 24.2-.1 1 6.6 14.7 7.5 18.4 1.1 4.6 1 15.3 2.4 17.6 1.1 1.7 7.7 5.9 10.1 8.9 2.1 2.7 3.5 6.8 5.6 9.4 5.2 6.7 8.9 6 15.4 9.5 14.7 8 50.8 55.1 62.4 70.6 12.1 16.1 31.3 40.7 30.6 61.4-.3 9.3-1.5 18.5-1.1 28 .2 3.6 2.1 7.8 2 10.9-.2 4-4.9 12-5.8 17.2-.8 4.3-.5 10.2-1.2 14.8-1.7 10.4-7.3 33-5.8 42.1 1 6.2 13.2 23.7 16.8 31.2 8.4 17.8 8.4 26 11.4 44.6 1.4 8.8 9.2 20.1 9.8 29.3.6 10-12.2 32.9-15.7 44.2-14.9 48.6-3.5 99.3-13.6 148.4-4.1 19.7-13.1 35.8-15.7 56.3-1.3 10.7-.1 23.3-3.3 33.7-2.4 7.9-11 17.2-14.5 25.5-5.7 13.8-5.7 25.6-6.2 39.8-.6 19.2-10.6 25.7-17.8 40.3-2.3 4.6-3.5 11.2-6.1 15.9-2.9 5.3-9.5 9.7-8 16.6.3 1.2 1.2 3.3 2.4 3.7 1.4.4 25.3-9.4 27.7-11.1 12.5-8.6 15.1-34 24.2-46.8 5.8-8.2 18.7-14.5 25.9-23.1 20.7-24.2 13-50 20-78 6.3-25.4 24.8-46.3 26.6-73.4 1-15.6-1.1-31.3-.8-46.8 21.6-37.8 40.9-71.1 42.8-116.2.5-12.4-2.8-25.6-2-37 .6-9.1 5.5-20.9 5.1-30-.4-8-9.5-19.8-10.1-31.9-.6-11.5 5.3-21.5 6-31.2.7-10.1-.7-34.3-2.1-44.8-1.6-12.4-10.2-27.3-13.2-39.8-3.5-14.5-2-45 .3-60.3 1.8-11.7 8.9-20 1.9-32.5zm-222.2-110c6.3-4-12.2-25.9-15.8-29.4-26.1-24.8-48-23.1-79.4-9.3-6.7 3-20.2 12-25.6 13.4-6.2 1.6-15.1 1.6-22.1 2.9-30.5 6.1-39.4 18.5-62.7 35.3-20.9 15.2-36.3 20.4-52.7 42.3-4.6 6.1-7.9 13.5-12.1 18.9-7.1 9.2-25.9 20.5-35.5 29.5-14.3 13.3-20.1 22.6-25.2 41.8-8.9 33.2 7.9 86-13.2 112.8-25.8 32.6-65.1 57.9-76.8 99.2-6.6 23.3-.1 30.7 1.2 52.3 1.3 20.3-9.8 39.6-9.9 59.1 0 5.6 4.6 27.8 6.7 33.1 8.6 21.1 35.6 38.9 35.2 63.8-.1 4.2-4.7 13.4-3.6 15.5 1.3 2.5 30.1 16.5 35.7 20.4 5 3.4 15.6 14.9 19.6 15.5 3.5.4 9.2-2.2 9.2-6.2 0-12.3-9.7-24.5-13.8-35.3-6.4-16.9 2.5-21.8 6.2-36.6 4.9-20.1-9.8-33.9-13-52.6-3-17.2-3.4-36.5 1-53.4 2.3-8.8 7-16.7 9.2-25.8 4-16 3.2-37.8 11.5-51.5 9-14.9 22.1-30.8 32-45.9 17.4-26.5 31.8-51.4 46.8-79.2 6.4-11.9 16-22.1 17.9-36.1 1.2-9-.3-22.6 4.4-30.6 2.5-4.2 14.1-12.6 18.4-17.6 9.6-11.4 7.9-17.2 12.6-29.4 16.2-41.6 86.2-80.6 124.2-101.8 11.4-6.3 24.1-8.3 33.4-13.6 3.8-2.2 7.7-7.7 12.3-8.8 3-.7 11.7 2.7 15 4.1 3.1 1.1 4.6 4.7 8.9 3.2M1458 1188c-2.2-7.6 3.7-15.1 4.1-21.5.2-4.1-1.7-11.2-2.5-15.5-4.1-20.2-13.6-68.8-23.3-84.7-7.1-11.6-13.9-11.3-24.5-17.5-7.3-4.4-15.5-9.5-22.2-14.8-23.5-18.9-37.6-52.2-68.3-60.7L1180 941.5c19.3 24.6 35 51.8 51.9 78.1 29.6 11.6 61.9 21.8 89.7 37.3 12.8 7.1 35.2 18.8 46.3 26.7 8.8 6.3 40.8 40 43.6 49.4 2 6.9.6 16.2 3 22 1.9 4.5 17.9 22.9 22.4 25.6 2.2 1.2 20.3 8.2 21.1 7.4M838 945c-2-1.9-15.5 2.8-18.6 2.9-4.2.1-8.6-1.3-13.8-.8-18.6 1.8-41 17-59.4 23.6-15.8 5.7-50.7 8.9-60.6 19.4-8.2 8.7-4.8 22.5-7.1 33.9-1.4 6.8-4.8 13.1-6.5 19.5-8.6 32.9-11.1 57.7-31.7 86.3-12.5 17.4-27.5 29.5-40.9 45.1-11.7 13.5-18.5 30.5-28.7 45.3-14.6 21.4-31 32.8-38.3 58.7-2.9 10.4-4.5 25.5-8 35-4.5 12.4-36.2 24.6-47.2 32.8-6.5 4.8-11 11.3-14.4 18.6-3 6.3-9 30.6-12.9 33.1s-21.2 4-27.1 5.8c-4.4 1.3-6 1.7-4.2 6.7 5.8 15.7 31.1 13.4 43.5 7.6 5.4-2.6 11.5-8.4 16.7-10.3 5.8-2.1 11-.5 17.2-2.8 4.1-1.6 22-12.2 24.6-15.3 2.9-3.3 11.8-21.8 13.5-26.5 5.2-14.4-1.7-26 14.3-35.7 5.5-3.3 18.5-7.8 22.2-11.8 2.8-3.1 3.1-11.6 6.3-16.7 12.6-20.1 44.9-35.8 62.1-51.9 6.5-6.1 11.3-16.2 17.1-21.9 1.6-1.5.8 2.8 2 1.5.3-.4 4.6-7.3 5.2-8.3 16.4-29.3 5.2-56.9 10.1-86.9 2.1-13.2 15.4-61.1 22.3-70.7 9-12.6 30.2-20.2 42.5-30.6 25.1-21.2 32.5-47.6 64.6-63.4 9.8-4.8 28.5-9.5 34.4-18.6.7-1.3 1.1-2.1.8-3.6m-29 695c2.9-9.2 4.5-40.9 17.5-41 9.5-.1 17.8 18.6 24.6 24.4 7.2 6.3 19.4 9.8 27.4 16.6 8.5 7.2 8.6 13 13.8 21.2 20.1 31.8 79.4 58.3 115.4 64.6 13.8 2.4 14.2-.2 26-2.4 23.3-4.4 43.3-11 64.9-21.1 2.9-1.4 14.4-6.4 15.1-8.9 1-3.4-.2-9.7.2-13.8 2.6-25.2 16.2-34.4 21.8-55.2 3.5-13.2-.2-30.9 2.5-41.5.6-2.3 10.3-16 12.5-20.5 16.4-33.7 5.1-47.1 3.3-80.7-1.4-26.5 1.2-49.4 8.1-74.9 3.8-14 15.8-40.7 15.9-53.1.1-13-12.6-22.9-16.2-33.7-2.1-6.2-2.6-13.1-5-20-5-13.8-20.4-35.6-21.7-48.3-2.4-23.3 16-56.8 22.7-79.2-6-14.2-2.4-27.2-1.7-41.8-27.2-29.8-48.9-71.4-80.5-96.5-7.2-5.7-19.2-11.5-24.5-18.5-4.1-5.5-13.3-30.7-16.7-32.3l-30.6-9.1c-5.4 7.5-12.2 12.3-20 17.1-40.7 24.9-79.7 32.6-114.2 69.8-12.9 14-11.8 29.2-21.1 41.9-5.3 7.3-23.9 20.7-26.6 26.4-2.2 4.6-5 24.3-5.7 30.3-1 9.1-1.3 12.9-3.1 21.9-1 4.9-.5 11.6-1.3 16.7-4.8 29.9-54.1 83.2-73.5 110.5-4.8 6.8-19.8 25.9-21.5 32.5-2.5 9.3-3.2 22.9-5 33-3.9 21.7-7.6 33.4-5.7 56.3 1.5 17.7 4.7 50.7 10.2 66.8.3.9 6.8 8.4 7.8 9.2 5.2 3.9 13.1 4.7 19.4 9.6 19.5 15.1 20.6 37.9 27.3 59.7 7.9 25.8 17.4 45.6 38.2 64m437.5-598c3.5 10.3 13.9 20.6 17.9 30.1 2.5 6 1.5 14.2 3.3 18.7.9 2.2 5.7 6.8 7.5 9.5 41.1 62.9 56.4 107.6 43.6 184.1-2.9 17.4-10.1 28.7-14.6 44.4-8.2 28.9 13.7 45.4 21.4 71 10.7 35.1-24.3 62.6-13.8 96.8 3.6 11.6 5.3 10.4 16.3 6.2 4.8-1.8 10.2-4.4 12.9-9.1 4.3-7.3 7.7-21.1 11.3-29.7 7.3-17.6 17.2-36.3 21-55 4.8-23.6 3.2-47.9 5.6-71.4 3-29.1 12.4-59.1 14.9-88.1 1.5-17.8-.5-36.1-1-53.9-.4-13.4 2.4-36.9-5-48s-32.8-39.9-42.5-48.5c-7.3-6.5-21-11.1-29.8-16.2-22.9-13.6-44.6-29.7-69-40.9m93.5 465c-13.2 3.8-27.7 22.3-37.2 2.7-14.7-30.4-1.2-54.8 3.7-84.7 4.2-25.5-8.3-37.4-15.2-59.8-9.6-31.1 8.1-45.8 13.4-74 10.1-53 5.2-103.3-24.6-148.9L1266 1120c-1.6 16.6-2.7 32.2 3.5 48 3.1 7.9 11.6 18.7 12.5 26.5 1.2 9.6-.5 22-.1 32.1.6 13.1 3.3 26.9 2.1 40-.4 4.5-2.5 8.6-2.9 13.1-1.3 13.1 5.6 22.2 4.9 33.9s-9.5 27.6-10 38.1c-.9 19.9 3.8 41.6.8 61.7-5.3 35.5-41.9 69.5-40.9 104.1.4 13.8 6.7 32.4 2.1 45.1-1.8 5-8 9.7-11.5 14.5-7.7 10.8-13.9 25-16.6 37.9 4.8-5.1 6.5-12.2 15-10.6 15.7 3 14.9 25.8 19.4 37.6 17.2-15.6 25.6-35.2 33.5-56.5 9.1-24.5 9.6-49.5 35.6-61.4 4.3-2 22.8-7.3 24.1-8.4 1.4-.9 1.8-6.8 2.5-8.7m-757-340c-4.4-.9-8.8-1.8-13-3.5-8-3.2-11.2-10.1-17.6 1.5-3.1 5.7-3.4 13-7.5 18.6-4.6 6.3-10 6.3-16.3 9.7-12.2 6.6-40.1 36.1-42.5 49.5-1.6 9.2 2.1 11.3 3.9 18.6 4.1 16.8 5.5 34.4 11.9 50.7 17-6.4 13.4-30.9 17.5-46 5.6-20.4 23.8-33.3 35.7-50.3 7.9-11.2 15.5-23.9 20.2-36.8zm830 27c-1.6 19.2.5 38.2 0 57.5-.1 4.5-1.9 9-1 13.9.3 1.4 11.5 25.4 12.4 26.6 3.2 4 19.9 15.7 25 19 11.3 7.2 43.8 21.1 48.6 32.4 2.2 5.3 2.7 12.6 5.2 17.8 1.3 2.7 11.5 16.6 13.8 18.2 8.6 6.1 37.5 16.4 49 21 8.1 3.3 17 5.7 24.9 9.1 2.7 1.1 13.7 7.9 15 7.1 6.6-4.1-3.9-16.9-5.8-21.3-2.6-6.2-2.7-12.8-5.1-18.9-2.9-7.5-14.8-25.9-20.7-31.3-8.2-7.5-21.7-12.1-31.2-18.8-22.1-15.7-18.6-33.8-30.9-55.1-8.4-14.6-37.8-45.2-52.1-53.9-11.9-7.3-27.8-11.3-40.7-19.3-2.1-1.6-3.2-4.6-6.4-4m-3 102c-2.6-.3-1.6 0-2 1.5-11 36.8-14 71.3-19 109.1 8.1 13.5 14.3 28.5 13.8 44.7-.2 7.9-4 15.9-5.4 23.6-3.3 16.7-5.1 36-12.4 51.6-5.3 11.4-10.1 10.4-8.8 26.1.7 8.9 4.9 14.1 7.3 21.7 5.2 16.8 3 16.5 16.2 29.8 13.6 13.8 36.6 29.3 47 45 3.4 5.2 14 28.2 15.1 33.9.9 4.3 0 8.3.5 12.5 2.4 18.2 14.2 36.9 6.7 56.9-1.6 4.3-5.1 7.5-5.7 12.3-1.3 10.5 4.4 26.1 3.9 37.9-.3 7.9-3.8 19.3-5.7 27.3-1.7 7.1-8.8 23.9-5.4 29.8 1.5 2.4 15.1 7.8 17.5 7.2.9-.2 6.1-8.2 6.4-9.5 1.1-4.9.6-12.8 1.5-18.5 7.1-44.4 48.9-65.5 46.8-117.3-.9-20.9-2.6-58.4-8.3-77.7-2.3-7.6-6.4-14.6-8.7-22.3-2.8-9.1-2.4-16.2-8.6-24.4-6.2-8.4-22.4-8.3-32.7-11.3-19.2-5.7-26.5-12.4-27.8-33.2-2.9-44.7 2.9-86 4-130.1.8-34.1-5.3-37.3-16.4-66.5-7.7-19.7-12-40.7-19.8-60.1m-870.4 222.6c9.5-14.8 21.4-29.2 32.8-42.7 3.9-4.6 8.5-8.9 12.5-13.4-3.5-9.6-4.4-19.9-4-30.1 1-23.4 11.9-44.4 11-66-.3-8-3.3-16.1-3-24.1.5-11.7 5.4-25.7 7-37.5-8.1 4.6-8.2 15.3-13.9 21.6-7.1 7.9-22.3 10.8-27.6 21.4s-14.5 48.4-14.4 60.4c0 4 1.7 10 1.9 14.1.5 12.4-5.8 19-9.7 30.2-9.1 25.9-6.7 83.3-23.2 99.8-7.6 7.5-27.9 17.8-32.9 25.1-2.8 4.1-6.1 13.8-9 19.1-12.9 23.5-27.8 47.5-39.7 71.3-3.3 6.6-9 16.8-7 24.1.6 2.1 12 24.6 13.7 27.3 1 1.7 13.6 13.3 14.6 13.5 4.9 1.3 8.1-10.8 8.2-14.5.3-14.2-3.9-20.6 4.3-34.7 7.3-12.6 29.7-36.8 40.3-48.7 8-9 22.9-17.1 24.5-30.5 3.4-27.9-1.9-61.4 13.6-85.7m918.2-188.4c-.5-.6-3.5-1.8-4.5-2l-15.3-2.7c10.5 27.5 26.4 53.6 25 84-.9 19.4-9.1 44.4-9.1 61 0 19.9 2.8 47.9 5.1 68 .5 4.6 1.7 16.8 3.7 20.2 2.8 4.7 25.3 6.3 31.5 7.6 11.9 2.5 18.8 5 24.7 16.3 6.8 13.1 2.7 22.3 12.6 34.4 7.4 9.1 16.3 16.2 24.5 26.5 2.5 3.1 9.1 8.2 10.4 11.6 2.3 5.8 2.3 21.5 3.8 29.2 3.6 17.8 11.8 35.5 24.2 48.8 18.4-14.6 3-35.8 1.5-54.5-.9-10.9 2.3-22.4 1.8-31.7-1.1-19.6-12.3-62.7-26.2-76.8-5.1-5.2-12.2-7.3-17.6-11.4-26.2-20.1-23.4-33.5-27-63-2.1-17.1-8.3-32.9-12.5-49.5-8-31.9-29.5-34.6-41.4-58.6-5.6-11.2-3.3-17.7-5.4-28.6-.7-3.6-4.3-10.2-5.8-14.2-.9-3.2-3-13.3-4-14.6M1665 1468c-10.8-.1-30.7 4.4-40.3-.2-4.4-2.1-16.1-22.3-21.2-27.8-12.5-13.5-25.1-13.2-40.2-19.8-4.9-2.2-9.3-6.4-14.1-8.9-14.3-7.4-35.1-11.3-47.2-21.8-4.1-3.5-6.4-7.7-10-11.5.2 3.3 1.6 6.7 2.8 9.7 6.6 16.1 22.1 47 32.7 60.3 4.2 5.3 22.9 26.4 27.6 29.4 5.7 3.7 15.3 3.1 22.3 6.7 13.3 6.8 20.6 23.2 37.6 26.4 11.4 2.2 37.6-12.5 44.5-21.6 3.8-5 4.9-14.7 5.5-20.9m-1137-67c-2.6-2.7-27.1 15.8-31 17.5-21.4 9.4-35.8 8.3-54.5 27.5-5.3 5.4-8.8 14.9-15.4 18.6-15 8.3-37.8-12.1-47 11 2 2 4.9 2.1 7.3 3.7 8.2 5.3 2.5 14.2 5.9 17.6 1 1 19.6 7.2 22.5 7.9 4.9 1.3 24.9 6.2 28.6 6 2.3-.2 4.4-2.1 6.4-2.4 4.5-.7 8.6-.5 13.3-1.7 15.4-4 14.2-10.5 22.6-21.4 10-13.2 16.7-14.6 28.7-23.2 5.2-3.7 3.7-9.5 5.4-15.6 1.8-6.5 7.4-15.3 8.2-20.8 1-7.3-2.4-17.1-1-24.7m849.9 58.1c-.6-.4-9.6 1-10 1.5-4.2 10-8.3 20.1-12.7 30.1-1 2.3-3.4 4.3-3.9 7.1-3 14.7 4.4 16.5-8.3 30.7-8.8 9.9-11 5.4-22.5 6.5-6.7.7-16.4 7.5-17.4 14.6-2.3 16.4 8.4 39.8 14.4 55.4 1.5 3.8 5.6 9.4 6.3 12.7 2.9 14.4-.7 23.1 7.1 38.9 11.3 23.3 30.5 24 22.7 54.3-8.2 31.8-32.3 52.6-42.5 81.5-11.2 31.7 3.1 63.3 8.5 94.6 4 7.5 6.7 6.8 12 1 12.4-13.6 11.2-47.3 15.8-65.2 6.6-25.7 23.3-22.7 38.7-38.3 7-7.1 11.1-17.4 17.3-24.2 7.8-8.5 18.5-10.6 19.7-23.8 1.7-19.3-3.8-31.1 6.1-50.9 1.8-3.7 10.7-14 10.9-15.2 1.1-6.9-6.9-18.5-11.5-23.5-17.9-19.6-49.9-36.8-60.7-61.3-2.6-6-3.2-12.9-5.7-18.3-3.7-8.2-8.3-6.6-9.2-18.8-1.9-26.7 17.3-24.6 22.4-43.7 2.2-8.3 6.5-29.3 5.4-37.1-.3-1.3-2.4-8.2-2.9-8.6M514 1476c-2.8-2.8-9.8 11.1-11 12.5-9.5 11.6-33.2 37.5-48 40.1-5 .9-9.7-.1-14.5.5-15.5 1.9-44.9 23.3-53.4 36.6-5 7.8-13.6 23.5-12.1 32.8.9 5.2 10 12.7 15.5 12.7 6.8-.1 25.6-18.2 33.5-22.6 9.7-5.4 19.8-7.3 30.6-9.4 12.5-12.5 34.1-21.8 46-34 4.7-4.8 6.1-12.4 7.2-18.8 2.7-16.6 2.1-34.1 6.2-50.4m69 4c-.1.1 1.1 1.7.6 3-11.7 13.9-24.7 28.5-34 44.1-16.7 28.1-11.2 56.2-12.5 87.5-.8 18.7-7.4 28.9-9.9 46.1-3 20.2-7.3 74.8-1.8 92.6 7.2 23.5 27.1 43.8 36.9 66.1 6.6 15.1 8.4 31.7 10 48 1.3 4 15-1.2 17.9-2.8 5.7-3.1 5.5-5.7 4.7-11.8-2-14.8-11.1-32.3-11.7-48.3-.5-12.3 6.6-32.2 2.5-42.5s-7-10.9-6.5-23.6c.5-14 5.3-18.1 9.3-29.7s8.9-30.2 6-41.6c-3.5-13.8-11.8-28.2-13.2-42.8-3.8-41.7 34.2-87.6 18.4-125.4-2.5-5.8-8.3-9.8-9.7-13.3-.8-1.9-.4-6.2-2.2-6.5-.5.1-4.6.7-4.8.9m1009.2 97.8c.7.4 12.1.9 15 1.5 11.6 2.3 34.6 13.7 43.8 21.2 6 4.8 9.6 14.1 18 4 11-13.2-2.5-38.1-12-49-5.1-5.8-31.3-24-38.4-27.6-6.4-3.2-15.8-4.9-22.6-8.4-8.8-4.5-14.9-12.9-23.7-18.3-9.5-5.9-19.7-7.5-28.3-14.2 3.9 12.4-.8 35.3 5.6 45.9 5.9 10 26.2 22.6 34.9 33.1 1.7 2 7.1 11.4 7.7 11.8m-980.8-83.2c-.3-.3-1-3.7-1.2-.3 3.4 9.6 8.1 19.6 6.7 30.1-.7 5.2-4.3 10.8-5.8 16.2-7.1 25.4-12.9 54.8-15.1 80.9 5.4 17 9.4 35.4 14.7 52.3 3.3 10.5 12.3 27.7 14 36.9.9 4.7-.2 10 .2 14.8 4 41.2 20.5 35.4 41.4 62.6 1.6 2.1 2.1 5.2 4.1 6.9 3 2.7 11.5 3.7 16.5 6.6 23.4 13.8 17.6 56.9 26.3 79.7 2.9 7.5 8.9 13.7 16.8 15.7 1.9-22.4 15.7-42.3 12.8-65.2-2.8-22.3-16.8-40.6-23-61-2.3-7.4-1.8-14.7-3.7-21.3-4.8-17.4-26.1-39.3-25.1-57.9.3-6 13.7-33.1 16.8-41.3 13-34 20.3-65.1 31-99 2-6.2 6.8-8.2-1.8-13.7-6.8-4.4-13.6-2.5-20.5-2.5-6.5.1-8.4-5.4-12.5-9.1 0 7 3.9 13.9 5.7 20.8 2.4 9.4 6.9 32.3 4.6 41-2.6 10.2-12.7 7.2-20.7 6-18.7-2.7-16.3-7.8-28.1-18.9-10.2-9.6-21.7-12.2-32.8-19.2-15.5-9.7-7-13.2-5.8-26.4s-5.4-26.4-15.5-34.7M752 1558c-.5-.4-2.5-.2-2.2 1.3-10.3 31.8-25.5 63-35 95-7.7 25.9-14 48.6 10.3 67.2 6.6 5.1 15.2 6.6 19.3 14.7 4.5 9 2.7 19.5 6.1 28.9s14.7 18.4 20 28c7.5 13.6 16.6 43 17.5 58.5s-5.4 31.9-10.3 46.7c-2.1 6.4-10.5 24.4-10.7 29.4-.1 3.5 8.8 11.2 12.3 10.4 1.2-.3 12.8-17.4 15.2-20.1 17.6-20.2 41.9-28.2 40.5-59.5-.3-7.1-3.2-16.1-3.1-22.9 0-3.4 1.8-8.4 2-12.1 1-16.2-6.8-26-6-41 .6-11.4 7.5-25.9 7.1-35.9-.3-6.5-11.2-19.5-16.1-24-3.3-3.1-8.6-5.8-11.5-8.5-1.9-1.7-12.1-14.8-13-17-3.8-9.4 1.2-20.9 2.4-30.6.4-3.1 1.5-13.2.9-15.7-.6-2.6-14.1-16-17.2-19.8-4.9-6-14.8-18.7-17.5-25.5-3.5-8.6-4.4-22.6-6.8-32.2-.4-2.3-3.7-14.8-4.2-15.3m543 13c-2.6-.3-1.6 0-2 1.5-2.7 9.1-3.1 20.1-5.8 29.2-4.5 14.9-27.6 41-39.7 51.3l-18.5 13c.7-17 3-35.9-6.5-51-2.7 8-4.3 16.2-11 22-3.9 3.4-6.6.6-3.3 9.3 1.7 4.3 6.3 13.9 8.6 18.4 5.3 10.3 14.9 18.5 19 29 8.3 21-4 29.3-13 45.7-9.7 17.6-3.9 28.8-6.9 47.1-1 5.9-5.3 14.4-6.7 21.3-5.3 26-6.9 47.7 7.3 71.2 11 18.2 29 26.9 39.2 43.8 1.3 2.1 4 9.8 4.4 10.1 2.9 2.6 21.9.2 22.5-5.4 1.1-9.8-14.8-36.8-18.5-48.1-5.7-17.6-5.8-42.1 2.9-58.6 3.7-7 11.5-14.1 14.6-20.4 2.9-6 3.7-15.7 7.8-21.2 6.5-8.7 22.2-19.1 30.5-28.5 14.9-16.9 23.3-35.7 18.7-58.8-3.3-16.7-15-22.8-20.8-37.2-8.2-20.6-1.9-41.6-13.8-62.2-4-7.4-9.7-11.6-9-21.5m-468 44c-1.4-1.5-1.7.4-2.2 1.3-7.8 14.3-4.7 34.2-4.8 49.7-3.5.2-13-10.9-15-9-6.2 26.9-.9 40.2 19.5 57 6.2 5.1 30.1 19.5 31.3 25.8.6 3-1.4 16.5-2 20.6-1.1 8.2-5.5 21.4-5.8 28.2-.2 4.4 5.5 18.3 5.9 25.9.5 9.8-2.6 18.9-2 29 .3 6.4 3.5 21.3 8.5 25.5 3.6 3 15.4 4.9 21.2 8.8 10.9 7.2 9.4 15.2 13 26 5.4 15.9 25.4 57 45.5 55 2.7-.3 14.9-3.3 14.7-6.1-5.5-14.2-11.6-29.6-14.6-44.5-2.8-14-2.8-28.7-7.8-42.2-4.1-11.1-14.7-18.4-21.5-27.5-6.7-9-1.5-10.7 1.3-19.7 5.3-17 10.2-36.1 6.2-53.8-.8-3.4-3-7.2-3.4-10.6-.7-5.6 1.3-10.2.8-15.8-1.2-11.8-8.8-26.3-9.1-38.9-.8-2.1-17.1-9.8-20.3-13.7-7.1-8.8-9-29.2-17.5-36.5-7.8-6.8-26.5-6.6-33.7-13.8-4.4-4.6-7.3-19.8-8.2-20.7m385.3 70.7c-5.4-6.3-6.2-17.1-7.8-24.7-.3-1.5-.8-5.5-2.5-5.9-.2 5.6-.1 12.9-1.2 18.3-4.8 23.7-38.4 37.4-48.3 60.7-4.8 11.4-4.4 22.5-13 33-2.3 2.8-7 5.7-8.5 7.7-6.7 8.8-18.9 39.9-20 50.8-1.2 12.9 3.3 21.6 5.5 33.5 2.5 13.7-.3 13.8-3.2 25.8-5.6 22.4-9.2 45.2-21.9 65.2-1.6 6 16.1 9.4 20 9 14.9-1.4 32-31 37.5-43.6 5.1-11.8 6.2-29.4 16.2-36.8 3.5-2.6 11.5-4.8 13.4-6.6 1.7-1.7 8.9-15.2 10-18 7.1-18.4 13.8-58.2 17.3-78.7 1.1-6.2.5-13.9 1.7-20.3 3.7-19.6 21.6-32.9 14.9-56.8-2.3-7.9-6.1-8-10.1-12.6M983 1730c-21.3-5.6-42.7-12.3-61.7-23.8-1.7-.4-2.4-.8-2.3 1.3.3 6.5 3.8 18.8 5.5 25.5 4.1 16 13.5 36.1 15.2 51.8 2.1 18.8-1 36.8 6.5 55.5 2.7 6.8 8.4 12.5 11 19.1 4.8 12.3 5 24.4 14.3 35.7 4.2 5.1 10.5 7.8 14.4 12.6 3.1 3.9 5.7 10.6 7.7 15.3 1.5 3.6 5.8 18.6 7 20 2.5 3 9.1-.3 11.5-2.5 9.8-8.5 9.3-41.5 2.4-51.5-3.2-4.6-9.4-7.2-13-11-7.5-8.1-8.2-21.4-11.4-31.6-4.5-14-12.8-25.8-15.6-40.4-4.6-24.3.4-52.9 8.5-76m126-14-33 11c.5 3.4 1.8 7.2 2 10.5.8 11.7-5.4 37.5-10.8 48.2-8.8 17.5-28.7 26.9-28.2 48.9.3 13 4.6 35.2 3 46.8-1.4 10.1-7.7 21.9-9.5 31.6-1.1 6.1 2 18 3.6 24.5s3.3 22.1 12 15.2c2.1-1.6 8.7-12.9 10.1-15.9 6.7-14.2 14.2-35.7 15.8-51.2 1.1-10.7-.5-14.1 4-25 8-19.3 29.9-43.2 31.1-64 .5-9.5-3.4-5.4-9.5-6.5-8.8-1.6-20.6-13-20.6-22.4 0-12.7 13.8-19.3 19.8-28.2 1.7-2.5 11.2-22.5 10.2-23.5m-35 12-49.5 11.8c-10.5-.8-20.2-4.8-30.5-6.8-1 6.8-5.8 13.7-7.3 20.2-2.8 11.8-3.1 33.1-.2 44.8 1.8 7.1 6 12.8 8.5 19.4 5.8 15.4 12.2 48.8 22.5 59.6 1.5 1.5 6.3 6.5 8.5 4.9.6-.4 3.7-12.3 3.8-13.7.7-12.3-.8-26.9.2-39.7 1.4-17.4 15.3-25.7 24.8-39.2 7-9.9 12.4-20 14.9-32.1z" data-original-prefix="outline"/></svg>