<?xml version="1.0" encoding="UTF-8"?>
<?xml-stylesheet type="text/css" href="../styles/semantic.css" ?>
<svg xmlns="http://www.w3.org/2000/svg" viewBox="0 0 2048 2048">
  <g class="trait-group" data-category="background" id="background-KBDS">
      <defs><radialGradient id="radial-gradient" cx="1024" cy="-181" r="1024" fx="1024" fy="-181" gradientTransform="translate(0 1204)" gradientUnits="userSpaceOnUse"><stop offset="0" stop-color="#505151"/><stop offset="1" stop-color="#202733"/></radialGradient></defs><path id="gradient-jean" fill="url(#radial-gradient)" d="M2048 3.6v2038.8c0 3.8-.8 4.6-4.6 4.6H4.6c-3.8 0-4.6-.8-4.6-4.6C.1 1361.3 0 680.2 0-1h2043.4c3.8 0 4.6.8 4.6 4.6" class="gradient" style="fill: url(#radial-gradient)"/>
    </g><g class="trait-group" data-category="jaw" id="jaw-OG">
      <!-- Generator: Adobe Illustrator 29.1.0, SVG Export Plug-In . SVG Version: 2.1.0 Build 142)  -->
  <defs>
    
  </defs>
  <path id="fill-jaw" class="fill" d="M1396.7,1438.7c-6.7,4.3-46.8-1.7-48.7.3l-12.2,69.8-57.2,29.3-1.4,1.6c-1.5,11.9,1.5,24.2.9,35.9-.3,4.9-1.3,15-2.3,19.7-.6,2.8-13.7,32.2-15,33.5s-16.1,8.9-16.7,8.3l-9.5-50-51,52c-7.7,5.7-20.7,9.3-27.5,15.5-14,12.7-25.2,37.4-42.1,47.9-5.4,3.3-61.3,25.7-66.7,26.3-13.8,1.7-33-3.3-47.7.2-17.7-10.3-50.1-16.2-66.1-26.9-14.3-9.6-28.3-35.6-41.4-47.6-6.7-6.1-19.9-9.6-27.5-15.4l-51-52-9.6,48.4c-.6.9-.9,1.7-2.2,1.5-.8,0-13.8-7.6-14.4-8.2-1.4-1.4-15.9-33.3-16.2-35.3l-.5-54.4-58.2-30.3-12.3-69.7c-8.1-1.2-45.1,3.9-49.5-1l-37.1-85-.5-3.4,31.5-70.6c5.3-1.6,29.1,0,31.3-6.7.8-2.3-.6-19.5-1.3-22.4-2.2-8.4-16.2-24-19.8-33.2-.7-1.7-1.2-3.1-.6-5,4.7-11.3,10.3-22.3,14.1-34,7.3-22.4,7.2-42.6,16.9-65.1,47.5-110.2,188.9-176,299.9-200.1,44.7-9.7,79.8-1.5,122.7,11.2,98,28.9,222.6,97.5,259,199,6.8,19,7,38.1,13.5,57.5,3.8,11.2,10.1,22.1,13.7,33.4,0,1.4-8.3,16.4-9.8,19.1-2.4,4.3-9.7,13.4-10.7,17.3-1.8,6.8-.6,15.6-2.3,22.5,9.9,7.9,21.3,4.2,32.4,6.5,9.6,23.9,23.5,46,31.4,70.6-9.8,26.3-22.2,51.8-33.2,77.7-1.3,3-1.7,9.3-5.1,11.4h0Z" fill="#ffffff"/>
  <path id="shading-jaw" class="shading" d="M1380.8,1185.8c-.2.4-2.1.7-2.8,1.7-8.6,10.8-16.2,26-21,39-4.2,11.4-5.1,22.7-13,32-18.8,22.4-51.8,45.5-78.3,57.7-5.4,2.5-12.5,3.7-16.7,7.8h20.5c2.7,0,5.1,1.2,7.9,1.1,18.1-.2,64.4-19.8,77.5-32.6,5.7-5.5,14.1-15.7,15-23.5,1.8,0,.7,2.4,1.5,4,3.1,5.9,15.5,5.2,21.5,6,.2,1.6-1.5.7-2.3,2.2-4.6,8.3-4.4,21.6-10.6,28.3-7.5,8.1-37.1,13.5-48.8,17.2-14.5,4.6-29.8,8.8-42,18.1l-52.8-14.8c-19.3-2.3-9.9,15.4-5.3,25.3,5.2,11.3,20.7,40,30.4,46.6,11.9,8.2,22.7-10.2,30-17,6.3-6,16.2-11.8,24.6-14.4,17.7-5.6,32.3,4.7,50.5,5.4,17.4.8,34.6-7.7,48.8-17.2,3.6-2.4,14.6-13.9,17.2-13.8,1.7,0,3.3,6.1,1.8,7.8-10.1,24.3-21.6,48-31.8,72.2-3.7,8.8-.8,14-13,15-9.3.7-15.8-1-24.2-1.8-4.8-.4-11.8,2.5-17.3-.2l-12.9,70.6-59,30.5c.4,11,2.6,23.6,2,34.5-.3,5.7-1.3,15.4-2.1,20.9-.5,3.1-13.4,31.4-15.4,33.6-3,3.2-11.6,6.2-15.5,9-.8-4.9-2.7-10.6-3-15.5-.6-11.2,2-11.3-2.7-23.2-.4-1.1-1.9-1-2.2-2-.8-2.2-.8-6.7-1.1-9.2l-2.3.2-50.2,51.8c-7.7,5.2-19.5,8.7-26.5,14.5-14.2,11.7-24.4,36.1-41.5,47.5-6.7,4.5-54.2,25.7-61.2,26.8-9.9,1.5-51.8,1.6-61.5,0-6.9-1.2-49.7-20.5-57.3-24.7-15.8-8.9-30.2-37.8-44.4-49.6-6.9-5.7-19-9.3-26.5-14.5l-51-52c-1,8.1-7.3,16-8.1,24-.6,6.2.6,14.6-.3,21.6-.2,1.7-3,1.8-2.1,4.4-.6.7-14.6-8.1-15.5-9-1.7-1.8-15-30.8-15.4-33.6-.7-4.4-.9-13-1.1-17.9-.5-12.2.6-24.4.5-36.6l-58.5-31.4-13-69.5-48.8-.2-38-86.6.9-6.2c8.2.4,11.8,8.2,18.6,12.7,25.3,16.9,38.4,19.8,68.5,13.9,17.1-3.4,19.1-7.5,37.2.4,15.9,7,19,16.2,30.6,25.4,9.6,7.6,13.6,7.9,22-1s31.8-49.1,32.1-60c.2-8.7-6.4-8.1-13.3-7.2-8.6,1.1-48.4,15.1-51,14.6-1.7-.4-12.3-7.9-16.5-9.6-20.3-8.4-48.8-11.8-67.2-20.8-14.9-7.3-11.3-20.9-17.7-33.2-.9-1.6-2.5-.6-2.3-2.2,6.3-.9,17,0,21-5.5,1-1.4.3-3.7,2-3.5,3,11.7,15.2,23.9,25.1,30.4,21.2,13.8,50.4,23.7,75.4,23.5h20.5l-34.7-16.8c-19.1-10.8-48.2-33.1-61.8-50.2-6.2-7.8-7.1-18.3-10.5-27.5-6-16.6-14.4-32-25-46,1.3-9,6.5-19.6,7.8-28.2,1.9-12.9,1.8-19.5,6.5-32.5,36.4-101.1,159.2-169,256.8-198.2,49.9-15,102.4-18.2,153.2-5.2,103.5,26.4,242.6,100.3,277.2,208.8,3.4,10.5,3,17.3,4.8,27.2.8,4.7,8.9,28.4,7.6,30.6l-.5-.2ZM1195.9,1382.1c-32.3-16.1-63.1-35.3-95.9-50.7-17.5-18.7-37.4-36.6-54.6-55.4-4.8-5.3-11.2-16-16-20-3-2.6-7.4-3-10.6-.6-4.5,3.4-12.7,16.4-17.4,21.6-16.7,18.6-36.8,35.6-53.6,54.4-32.9,15.3-64,34.2-96,51.2-.6,2.8,12.4,35,14.6,40.3,2.9,7.1,12.1,31.7,16,36.1,7.1,8,36.5,26.3,47,33,19.8,12.7,36.1,22.9,59.3,28.7,27.3,6.8,39.7,7.1,67,.6s43-16.6,65.7-31.3c10.4-6.8,35.9-22.5,43.4-30.6,4-4.4,12.7-27.4,15.6-34.4,2.1-5.1,16.8-41,15.5-42.9M728.3,1496.7c1.6,2,8.2,6.3,10.7,7.8,14.7,8.8,31.8,13.8,46.9,23.1,16.8,10.2,40.2,33.1,59.6,33.5,2.3,0,8.7-1.2,9.4-3.7s-13.6-27.6-16.4-30.3c-7.3-7.1-27.5-17.2-37.2-23.8-15.2-10.3-50.3-39.1-67.9-39.2-10.5,0-8.7,28.1-5.1,32.7h0ZM1319.7,1466.3c-5.9-5.9-24.1,4.1-30.4,7.6-16.2,8.9-31,21.4-46.2,31.8-12.7,8.7-30.1,15.7-38.6,28.4-2.2,3.4-10.8,17.7-11.4,20.7-1.1,5.3,6.2,6.5,10.3,6.3,16-.9,23.4-9.7,35.2-17.8,9.2-6.3,19.3-13.6,29-19,11.7-6.6,47.1-19.2,52.7-29.3,2.4-4.3,2.8-25.2-.7-28.6h0ZM1126,1664c-12-2.7-20.7,6.6-31.6,7.9-5.7.7-12.2-1.2-16.6-.7-7.1.8-22.9,12.1-31.2,14.9-14.8,4.9-30.2,4.7-45.1,0-8.8-2.8-23.9-14.1-31.2-14.9-4.4-.5-10.9,1.4-16.6.7-11-1.3-19.9-11-31.6-7.4,0,6.9,23.8,23.5,30,27,12.5,7.1,59.8,26.8,72.5,26.6s59.9-19.8,72.2-26.9c10.3-6,24.6-16.2,29.3-27.2h-.1Z" fill="#aaaaaa" style="opacity: 0.5" opacity="0.5"/>
  <path id="outline-jaw" d="M676,1140c5.3-3,18.5-3.6,19.1,4.5-2,7,0,18.6-3.2,24.9s-17.1,12.9-20.3,20.7c-1.1,2.6-6.2,25.4-6.5,28.5,0,1.3-.2,2.3.2,3.6,1.8,6.8,14.7,21.7,18.7,29.4,5,9.8,6.5,20.8,10.3,30.7,5.7,14.4,14.5,13.4,26.1,19.9,7.6,4.3,16,10.2,22.7,15.8-3.8,0-7.5.2-11.2-.2-8.4-1.1-30.6-5.8-38-8.9-9.8-4.2-8.9-17-13.8-20.2-2.7-1.8-8.7-1.2-12-2-6-1.4-9.7-6.6-16.7-1.3-6,11.6-13.4,22.6-19.2,34.3-7.3,15-16,27.5-6.5,43.3,5.5,9.2,23.4,26.5,26,35,2.4,7.9-2.3,28.2,2.4,33.6,7.5,8.5,28.6,4.4,35.5-3.6,2-2.4,2.5-6.3,4-9,6.3-10.9,19-25.2,30.7-30.3,12.2-5.3,16.1,11.4,18.4,20.3,3.6,14.2,1.3,26.5,12,38,6.7,7.3,18.2,14.5,27.2,18.8,4.7,2.2,21.2,9.9,25.3,10.7,12.8,2.4,25.4-6.5,32.6-16.5,2-2.8,2.8-6.3,4.7-9.3,9-14.8,16.3-6.2,25.8,1.8,11,9.2,20.9,19.8,32,29,45.8,38.3,90.7,54.1,151.4,45.3,58.2-8.4,83.7-40.7,125.7-75.3,2.2-1.8,8.8-7.7,10.8-8.2,12.1-3.2,14.2,10.5,19.7,17.8,5.7,7.4,15.3,15.6,25,16,7,.3,27.7-8.7,34.9-12.2,10.9-5.3,28.8-17.6,32.4-29.6,2.2-7.6,2.6-17.3,4.6-25.4,2.3-9,6.1-26.7,18.6-21.2,9.4,4.1,22,16.8,27.5,25.5,5.6,8.9,3.9,13.8,14.9,19.1,7.3,3.5,20.9,5,27.1-1.3,5.8-5.8.5-25.5,3-34,2.6-8.8,20.8-26.2,26.4-35.6,8.1-13.8,2.8-20.8-3-33.7-6.7-15-15.5-28.9-23.1-43.4-6.9-5.2-11.2-.2-17.5,1.5-3,.8-8.4,0-11.2,1.8s-5.1,12.8-8.6,16.4c-2.4,2.4-6.7,4-9.9,5.1-7.8,2.7-25.9,6.9-34.1,7.9-3.4.4-7,0-10.4,0,6.2-5.6,14.7-11.2,22.1-15.4,10.5-5.9,20.2-6.1,25.7-18.3,4.2-9.5,5.8-20.9,10.4-30.6,4.3-9,17.4-23.9,19.4-31.6.4-1.7.5-2.5.2-4.2-.6-4.5-5.3-24.5-6.9-28.2-3.4-7.8-19.2-16-20.8-22.2-.9-3.4-2.7-24.1-1.6-26.4,2.2-4.5,13.6-3.5,17.5-1,.8,2.8,2.9,13.6,4.2,14.8,4,3.5,21.3,4.8,24.5,11,2.5,4.8,0,15.5.2,21.8,0,2.9.8,7.8,1.3,10.7,1.5,8.6,9.7,23.3,7,30.5-2.3,5.9-12.8,22-16.8,28.2-3.3,5.1-7.9,9.5-10.4,15.1.7.7,9.7-4.6,10.9-5.6,5.4-4.1,7.6-12.1,14.6-5.5,4.7,4.4,13.6,18.5,17.5,24.5,10.1,15.9,19.6,34.4,25.7,52.3,1.6,4.7,5.8,14.8,3.7,19.2-.7,1.6-9.2,9.8-11.3,12.7-16.3,21.9-31.2,47.4-32.7,75.3-.8,1.3-2.2,1.8-3.5,2.5-5.7,2.8-27.3,11.7-32.6,12.4-3,.4-6.5.3-9.5-.3-4.5-.9-7-4.1-10.9-5.6-1.1,9.1-2.6,18.4-3,27.5-.4,7.8,1.5,32.2-.6,37.4-.4,1.1-11.8,14.9-12.7,15.3-3.8,1.8-11.7.3-16.3.7-13.5,1.3-21.2,15.2-25.2,26.8-4.6,13.3-5.2,27.9-9.2,40.8-5.8,19.3-37.7,50-54.2,61.8-.9.6-4.2,3.4-4.9,2.6,1-15.3,2.8-31.2-2.6-46-.3-.9-1.8-5.7-3.4-4-.6.6-3.5,12.5-6.2,16.3-8.3,11.9-29.2,7.9-37.8,19.2-9.5,12.3-7.6,28.7-22.1,38.9-32,22.4-79.6,38.4-117.7,46.3-12.4,2.6-16.8,2.3-29-.4-35-7.6-67.9-18.6-99.2-35.8-5.1-2.8-20.9-11.4-23.8-15.2-6.2-8-8.6-25.8-15.6-34.4-9.6-11.7-30.7-5.5-39.2-21.8-1.5-2.8-3.8-12.7-4.3-13.2-1.8-1.8-3.8,4.8-4,5.4-4.5,13.8-3.1,29.3-2,43.5-1.7,1.8-16.8-10.7-19-12.5-15.1-12.7-36.9-37.3-41.5-56.5s-7.6-59.5-33-62c-4.4-.4-13.1,1-16.5-.5-.9-.4-12.1-14.4-12.5-15.5-2.6-7.5-.2-27.3-.6-36.4s-2.3-19.1-3-28.5c-.4-.5-9.5,5.3-11.7,5.8-13.3,2.8-32.2-10.6-45.1-13.9-.7-27.4-14.8-51.6-30.3-73.2-2.2-3.1-4.5-6.2-6.8-9.2-4.1-5.2-7.9-4.8-6.9-12.9,1.3-10.6,13.1-35.4,18.4-45.6,3.6-6.8,26.1-44.2,31.2-45.8,7.3-2.2,13.1,11.5,21.3,11.8l-25.5-40.9c-4-9.3,4.3-21.7,6.2-31.8s.2-19.2,1.3-28.7,18.5-11,25.8-14.7c2.6-2.8,1-6.8,1.5-9,.4-1.9,1.3-3.7,1.8-5.8h-.5ZM799,1627.5v-20c0-3.1,8.8-25.7,11-27,4.3-2.7,20.4,9.8,24,13,12,10.5,20.7,26.3,32,36,8.5,7.4,21.1,12,29.5,19.5,10.9,9.6,20.1,26.5,30.5,37.5,11,11.7,29.8,18.4,44.7,24.3,25.1,9.9,38.9,14.1,66.8,12.3,16.1-1,62.3-19.4,76.4-28.6,13.7-8.9,25-32.9,37.6-44.4,9.3-8.6,24.5-14.2,33.6-22.4,10.1-9.2,18.3-23.6,29.4-33.6,3.6-3.3,19.9-16.8,24.4-13.8.8.6,6.9,16.7,7.6,18.9.5,1.7,2.5,8.4,2.5,9.5v17c0,.6-1.6,2-1,3.5,10.4-10.7,20.8-25.9,23.6-40.9,2.4-12.9,1.4-27.4.4-40.5-.3-4-2.6-6.9-.8-10.8,3.7-8.5,20.8-15.9,29.2-19.9s24.7-7.7,29.1-15.9c4.6-8.5,2.6-32.2,3.7-43.3,1-10.3,7.7-19.4,6.9-29.1-.6-6.6-5.4-16.3-10-21-1.5-1.5-8.2-6.7-10-5.5-1.8,1.3-7.1,27.7-7.1,31.5,0,7.3,4.4,13.6-2.4,19.5-17.3,15-41.2,23.8-61.1,34.9-5.5,3.1-23.5,16.8-28.6,16-2.7-.4-5.4-3.6-9.2-3.9-11.7-.8-14.9,8.5-22,15-16.4,14.9-41.2,22.8-63,25-69.3,7-135.6,7.1-205,0-22-2.2-45.8-9.7-62.5-24.5-7.2-6.4-10.9-16.4-22.5-15.6-3.7.2-7.5,4-9.8,3.8-5.4-.5-21.2-12.7-27-15.9-13.4-7.4-27.8-13.2-41-21-4.6-2.7-22.9-14-23.7-18.3-1-5.2,1.1-10.4,1.1-15s-5.6-31.3-7.6-31.5c-7.7-.9-16.7,15.1-18.5,21.5-4.1,14,4.6,20.6,5.9,34.2,1.4,13.7-4.1,40.6,8.8,49.2s39.9,13.7,50.8,26.2c5.6,6.4,1.4,8.6.7,15.6-3.2,29.7,1.3,54.7,20.9,77.8.5.6,3.9,4,2,1l-.3-.3Z" class="outline" fill="#000000"/>
    </g><g class="trait-group" data-category="mouth" id="mouth-jaws">
      <path id="fill-mouth-main" fill="#ffffff" d="M1102 1287c.4.6-2.2 4.3 0 5.5 50.4 27.6 100.7 55.4 145.8 91.1-5.2 15.8-10.4 31.6-16.7 47.1-5.9 14.4-8.3 22.4-12.7 37.3-13 44.8-25.3 89.9-38.3 134.7-3.4 15.6 7.3 31.3 8.8 45.8.5 5.4-1.6 24.6-3.1 29.9-2.4 8.9-12.3 10.5-19.9 15.1-23.1 14.2-44 33.8-68.7 45.3-38.6 17.9-94.7 18.9-134.6 4.9-30.8-10.8-53.7-33.5-80.8-50.2-5.6-3.4-16.3-6.9-18.8-12.2-2.2-4.7-4.6-27.2-4.1-32.9 1.2-14.4 12.1-30.2 8.8-45.8-13.8-47.4-26.5-95.2-40.5-142.5-3.7-12.4-5.6-17.8-10.5-29.5-6.4-15.4-11.4-31.2-16.7-47.1 45.2-35.6 95.4-63.7 145.8-91.1 2.2-1.2-.5-4.8 0-5.5.2-.2 3.4-1.1 4.7-1.9 25.5-15.1 52.3-31 83.7-27.1 24.4 3.1 42.7 15.5 62.9 27.1 1.2.7 4.5 1.7 4.7 1.9h.2Z" class="fill" data-original-prefix="fill"/><path id="fill-mouth-teeth13" fill="#ffffff" d="m1042 1510-1.9 71.5c-.9 11.5-1.7 23.4-2.1 34.9-.2 7.7 1.3 20.2 0 27-.5 2.5-12.9 11.6-14.3 11.4-1.2-.2-13.2-8.9-13.7-11.4-.2-44.5-3.3-88.9-4-133.5l17.6 16.9 18.3-16.9Z" class="fill" data-original-prefix="fill"/><path id="fill-mouth-teeth12" fill="#ffffff" d="m1000 1637-20-15.5c-1.8-.5-2.8-4.4-3-4.5-.8-.5-3 3.8-5 3-.4-20.5-.2-41.1-1-61.5s-2.9-41.1-2.5-61.4l11-14c3 4.2 18.8 16.6 19.2 20.6.4 3.5-.9 11.2-.8 15.9.8 20.4 1.8 41.5 2.1 61.9.2 18.5-.2 37 0 55.5" class="fill" data-original-prefix="fill"/><path id="fill-mouth-teeth11" fill="#ffffff" d="M1076 1620c-2 .8-4.2-3.5-5-3-.2.2-1.2 4.1-3 4.5l-20 15.5c.2-18.5-.3-37 0-55.5.2-20.4 1.3-41.5 2.1-61.9.2-4.7-1.2-12.4-.8-15.9.4-4 16.2-16.4 19.2-20.6 2.1 3.9 9.5 10.8 11 14 1.8 3.8-1.3 28.2-1.5 34.4-.3 9-.7 18.1-1 27-.7 20.5-.6 41.1-1 61.5" class="fill" data-original-prefix="fill"/><path id="fill-mouth-teeth10" fill="#ffffff" d="M1114 1651c-3.8-.4-4.7-3.2-5-6.4-1.4-14.4 1.7-35 2.1-50 .6-21.9 0-43.7 2-65.5 3.3.2 4.2 1.9 7.1-.4 6.2-5.1 13.2-22.1 19.9-28.8s2.8-2 3-1.8l-9.1 120.4-20 32.6Z" class="fill" data-original-prefix="fill"/><path id="fill-mouth-teeth9" fill="#ffffff" d="M907.7 1499.3c7 6.2 13.8 23.9 20.3 29.2 2.9 2.4 3.8.6 7.1.4 1.5 10.5.6 21 1 31.5.7 20.9 1.5 42 2 63 .2 5.8 4.1 25-2.5 27.4-1.7.6-6.8-10-8.5-11.4l-12.9-21.1c-3.3-40.1-5.6-80.4-9-120.4 0 0 2.2 1 2.7 1.3h-.2Z" class="fill" data-original-prefix="fill"/><path id="fill-mouth-teeth8" fill="#ffffff" d="M903 1601c-7.1-6.3-5.5-23.9-18-13l-17-142c10.4 12.2 19 26.1 28 39.5 1.9 38.5 3.8 77.1 7 115.5" class="fill" data-original-prefix="fill"/><path id="fill-mouth-teeth7" fill="#ffffff" d="M1163 1588c-12.5-10.9-10.9 6.7-18 13l4-51.5 3.1-63.9c8.9-13.4 17.5-27.3 27.9-39.5l-17 142Z" class="fill" data-original-prefix="fill"/><path id="fill-mouth-teeth6" fill="#ffffff" d="M963 1507c-.7 40.2 2 80.1 2 120.3-1.9 1.4-17.9 15-19 13.7.9-38.3-2.3-76.2-2-114.5l15.4-18.6z" class="fill" data-original-prefix="fill"/><path id="fill-mouth-teeth5" fill="#ffffff" d="M1102 1641c-1.1 1.3-17.1-12.3-19-13.7.4-22.3.5-44.6 1-66.8 0-2.4 1-4.6 1.1-6.9.3-15.5-.3-31.1 0-46.5l3.6.9 15.4 18.6c.3 38.2-2.9 76.2-2 114.5Z" class="fill" data-original-prefix="fill"/><path id="fill-mouth-teeth4" fill="#ffffff" d="M875 1581c-1.5.2-1.3-1.7-1.7-2.8-3-8.8-6.1-18.6-8.6-27.4-10.7-37.7-11.6-78.6-17.8-117.3 0-3.9 3-6.9 5.6-9.5 3.4 3.5 5.8 6.6 6.4 11.6 1.2 10.1 1 21.5 2.1 31.9 3.8 35.2 11.2 72.2 14 107 .2 2.2 0 4.3 0 6.5" class="fill" data-original-prefix="fill"/><path id="fill-mouth-teeth3" fill="#ffffff" d="M1172 1580c6.3-40.6 11.8-81.6 16-122.5 1.2-11.5-1.6-25.4 7.5-33.5 2.6 2.6 5.7 5.5 5.6 9.5-7.6 47.5-8 99-26.1 144-.6 1.6-.8 2.9-3 2.5" class="fill" data-original-prefix="fill"/><path id="fill-mouth-teeth2" fill="#ffffff" d="m843 1439 4 53-5.7-15.8c-1-7.8-7.5-23.8-4.4-30.8.5-1.1 2.9-4.1 3.8-5.2.6-.7 0-1.9 2.3-1.3Z" class="fill" data-original-prefix="fill"/><path id="fill-mouth-teeth1" fill="#ffffff" d="M1207 1439c.3.3 4.7 7.3 4.8 7.7 1.3 4.9-3.4 23.5-5 29.5l-5.7 15.8 4-52.5c0-.9 1.9-.6 2-.5z" class="fill" data-original-prefix="fill"/><path id="shading-mouth4" fill="#aaaaaa" d="m900 1319-56.5 57-14 16c-1.9 4.1 3.2 15.8 2.5 21 4.2-1.8 14.7-13.4 18.4-13.1 4 .3 8.8 14.9 10.3 18.8 2.5 6.3 4.5 12.8 6.8 19.2 18.7 24.5 38.6 48.2 57.4 72.6 3.8 5 3.2 9.2 10.1 7 3.2-1 13.7-10.2 17-13 10.5-9 19.8-20 30.5-28.6l41.1 41 41.9-41c13.1 10.8 24.4 24.6 38 35 3.2 2.5 10.4 9 14.5 6.5l61.8-79.2c3.6-6.3 11.7-36.7 16.9-38.2 4.6-1.3 17.3 14.1 19.3 11.9-.8-5.2 4.4-15.8 2.5-20-20.7-25.2-46.1-46.1-68-70-.7-.7-2.7-2-2-3 34.5 16.7 65.1 39.8 96 62 2.5 5.1-7.2 33.5-9.8 40.2-2.7 7.3-6.2 13.8-9.2 20.8-3.2 7.3-3.5 21.2-14.5 14l-8.5 50-2.5 1c-.2-19.8 1.9-39.7 4-59.4-2-4.9-6.9-13.6-8.8-3.8-4 21.5-4.5 48.2-7.4 70.6-3.6 28-8.2 56-12 84-2 14.9-3.3 16.2 1.9 31.4 1.3 3.8 7.2 14.6 7.4 16.7s-6.3 26.7-7.6 29.5c-2.4 5.5-34.3 27-41.2 30.8-23.5 12.8-65.3 23.2-92 27-44.3 6.3-112.7-12.8-149.7-38-4.2-2.9-22.5-15.7-24.1-18.9-1.2-2.3-7.8-28.2-7.7-30.4 0-2.1 7-16.2 8.3-20.7 4-13.7 2.7-13.4.9-26.4-7.5-52.8-15.1-105.5-20.4-158.6-2.2-5.2-7.7 4.9-7.9 7.8 2.1 19.4 4 39 4.1 58.5h-3l-8-51c-11.6 7.2-11.3-6.6-14.5-14-5.7-13.3-11.5-25.2-15.5-39.5-1.5-5.2-6.1-18.6-2.5-22.6 31.2-21.3 60.9-45.2 95.5-60.9zm-34.5 137v1c.7-.3.7-.7 0-1m315.5 1c-3.8 9.4-17.3 19.9-21.1 28.4-3.4 7.8-1.6 20.7-3.9 29.1l-3 60c.6 3 10.1 7.9 13.4 8.4zm-286.2 118.8c-1.8-29.7-2.2-59.6-6.1-89.1-7.3-9.7-14.3-20.1-22.7-28.8l14 125c6 0 10-4.5 14.8-7.2ZM995 1627c-.8-15.5-.4-31.1-1-46.5-.7-20.6-1.2-43.5-3-63.9-.3-3.6-.4-13.4-4.5-13.5-2.5 0-20 10.7-20.5 13.5 2.4 20.6 1.2 41.4 1.9 62 .2 6.2.6 13.8 1.1 19.9s3 12.8 2 19.5l5.4-5c1.5 2.2 17 15.7 18.6 14m82-10c-.8-6.9 1.6-13.7 2.1-20.4 1.1-17.4.3-35.7.9-53.1.3-8.7 2-18.1 2-26.9s-1-2.1-2-3c-2.2-1.8-17.3-10.9-19.3-10.4-2.9.7-3.4 7.6-3.7 10.4-3.3 35.8-2.8 74-4 110 0 1.4 0 2.9-1 4 5.2.7 17.8-14.1 19.5-14.5 2.3-.5 2.5 4.7 5.4 4Zm-146 17c-1.9-32.1-.2-64.4-2-96.5l-26-32.5c2.8 32.1 2.9 64.2 5 96.4 6.9 11.3 14.5 22.3 23 32.5Zm187 0 22-32.5c1.9-32.2 2-64.3 5-96.4l-26 32.5c-2 25.3-.4 50.7-1 76-.2 5.9-1.4 11.5-1 18 0 1.1-.7 2.8 1 2.5Zm-175 2c.8.8 16.4-9.7 17.5-11 .7-.8 1.5-1.4 1.4-2.6-.7-33.9-2.5-67.6-4-101.5-3.4 2.4-16.3 10.2-17 13.5-.2 33.9 0 67.8 2 101.5Zm101-115c-4.9 2.7-10.4 10.7-15.7 11.8-11.9 2.5-16.1-5.4-24.3-11.8 1.3 37.5 2.3 74.9 2 112.5.8 4 14.2 9.4 17.7 12.4 3.7-2.5 17.6-8.6 18.3-12.4-.2-37.6.2-75.1 2-112.5m61 115c1.6-33.8 2.3-67.6 2-101.5-.7-3.7-13.7-10.5-17-13.5-1.8 33.8-3.7 67.5-4 101.5.2 2.9 18.2 14.4 19 13.5m-167.3 18.7c-1 .9-2.6 1.5-4 1.2-3.8-1-23-30.3-27.3-35.8L895 1607c-.4 4.4-1.3 8.8-2.5 13-1.6 5.4-8.4 19.9-8.6 23.5 0 2.9 4.5 19.8 5.8 23.3.7 1.9 1 3.9 2.9 5.1 29 14.8 52.4 35.8 84.2 44.8 31.1 8.9 64.2 8.8 95.2-.2 31.6-9.2 55.5-30.5 84.3-45.4.8-.4.9-1.2 1.2-2 1.2-3 6.7-24.2 6.5-26.5-.3-3.3-5.8-13.4-7.3-17.8-1.8-5.8-3.1-11.8-4.2-17.8-2.2 3.1-5.1 5.6-7.5 8.5-8.8 10.8-17.2 26.4-26.1 35.9-1.6 1.8-3.2 3.6-5.6 4.3l-43.7-28.7c-4.3 3.6-8.6 8.8-13.3 11.7-8.2 5.1-15 6.1-23.4 13.6-2.3 2.1-3 5.8-6.5 6.5-8.1 1.6-7.3-2.8-11.5-6.4-7.2-6.1-10.9-7.5-18.9-11.1-6.3-2.8-12.3-10-17.6-14.4-12.8 7.9-26.2 15.6-38.3 24.5-1.3.9-1.6 2.5-2.3 3.1v.2Z" class="outline shading" data-original-prefix="shading" opacity="0.5" style="opacity: 0.5"/><path id="shading-mouth3" fill="#aaaaaa" d="M1118 1345c-1.5 1.5-1.8-.6-2.3-1.3-1.8-2.3-6.1-7.1-7.1-8.8-1.8-3.2-.9-7.3-2.6-9.4-2-2.4-11.1-9.6-14.1-11.9-17.8-13.8-38.6-25.3-56-40-3.6-5.4 6-7.7 4.1-13.6.4-.4 8.3 1.9 9 2.5 1.9 1.6 0 5.2 2 7l68.4 49.6c2.9 2.8-.3 24.8-1.4 25.9" class="outline shading" data-original-prefix="shading" opacity="0.5" style="opacity: 0.5"/><path id="shading-mouth2" fill="#aaaaaa" d="M1008 1260c-2.1 5.5 7.8 8.5 4.1 13.6l-61.1 43.9c-10.3 7.3-11.1 16.5-18.7 26.2-.5.7-.7 2.7-2.3 1.3-1.1-1-5.1-24.3-1-26.5l68-49c2-1.9 0-5.2 2-7 1-.9 8.7-2.9 9-2.5" class="outline shading" data-original-prefix="shading" opacity="0.5" style="opacity: 0.5"/><path id="shading-mouth1" fill="#aaaaaa" d="M1011 1355c1.1 4.6-4.9 8.9-3.6 13 1.1 3.3 13.8 10.8 16.2 14.9 1.2.2 16.5-14.1 17-15.9 1-3.6-5.2-7.6-3.6-12 6.9-2.5 17.3 6.5 15.8 13.3-.8 3.8-7.8 10.3-10.8 13.2-6 5.9-6.9 4.1-10.8 12.2-1.9 3.9-5.9 3.9-9.8 3.3-5.8-.8-4.3-4.3-6.4-7.6-4.4-6.7-23.9-15.6-19.3-26.2 2.2-4.9 9.7-10.1 15.2-8.2Z" class="outline shading" data-original-prefix="shading" opacity="0.5" style="opacity: 0.5"/><path id="outline-mouth" fill="#000000" d="M1006 1260c.4-2.1 4.7-6.2 6.5-7 2.2-1 1.8 3.9 2.5 5l-.5 19c-9.8 6.8-19.7 13.6-29 21-10.5 8.4-26.4 21.1-35.5 30.4-3.6 3.7-.7 4.6 2.7 7.3 14.2 11.7 34.2 18.3 52.3 20.2 1.2 1.2-6.6 10.7-4.8 13.8l23.5 23.1c1.5.3 18.4-18.6 21.4-21.5.8-.8 2.6-1.3 2.8-1.6 1.8-3.1-6-12.7-4.8-13.8 18.1-1.9 38.1-8.5 52.3-20.2 3.3-2.8 6.3-3.7 2.7-7.3-9.1-9.4-25-22-35.6-30.4-9.3-7.4-19.2-14.2-29-21-1.1-1.8-.6-15.7-.5-19 0-1.1-.9-6 1.5-5 2.1.9 6.1 6.1 7.5 7-1.8 1-1 3.4-.5 5 3.8 10.3 55.3 44.8 67.4 54.6 1.8 1.5 8 6 8.6 7.4 2.3 5.4-.6 18.1-.5 24.5 0 4.3 3.4 17.4 1.1 20-1 1.1-12.4 6.6-15.3 8.7-15.1 10.7-26.8 28.3-34.7 44.8-1.5.4-1.7-.4-2.5-1-5.2-3.6-23.3-26.5-26.1-26.9-5.3 3.9-11.8 6.3-12.4 13.4-1.2 13 1 27.8 0 41.1l3.1 42.5 34.4-35.1 2.9-.9c13.6 15 26.1 31.3 40.1 46 1.3 1.4 9.3 10.1 10.5 9 3.5-11.2 11.6-21.6 18.2-31.3 19-27.8 40.6-53.8 59.3-81.7.8-.7.7-1.5 1.5-.4 7.1 9.4 13.4 20.9 20.5 30.4l17.6-43.4-157.1-108.6 2-3c36.8 19.5 75.4 39.4 110.9 61.6 21.2 13.3 40.5 29.5 61.9 42.6.6 1.1.2 2.9 0 4.2-.7 7.6-9.9 31.6-13.2 39.9s-7.1 16.1-11 24l-44.5 161.6c.4 12.4 9.3 27.7 9.8 39.7.3 6.8-1.7 25-3.2 31.9-.4 2.2-1.7 6.3-3 8-1.2 1.6-15.8 8.4-19.4 10.6-24.6 15-45.2 35.2-72.5 46.5-40.8 16.9-104 16.8-144.7-.3-27-11.3-47.4-31.4-71.8-46.2-3.6-2.2-18.2-9.1-19.4-10.6-1.3-1.7-2.6-5.8-3-8-1.4-6.9-3.5-25.1-3.2-31.9.6-12.2 9-27.1 9.8-39.7-13.1-46.2-25.7-92.7-39.3-138.8-2.2-7.3-3.2-16.5-5.7-23.3s-7.5-14.1-10.5-21.5c-5.5-13.7-9.1-28.1-14.2-41.9-.3-1.7 0-3.3 1.4-4.4 24.1-15.7 46.6-33.8 71.2-48.8 32.3-19.7 66.7-38.2 100.3-55.2l3 3-157.1 108.6 17.6 43.4c7.1-9.6 13.4-21 20.5-30.4.8-1.1.7-.3 1.5.4 18.8 27.9 40.3 53.9 59.3 81.7 6.6 9.7 14.7 20.2 18.2 31.3 1.2 1.1 9.2-7.6 10.5-9 14-14.6 26.5-30.9 40.1-46l2.9.9 34.4 35.1 3-42.5c-1-13.2 1.2-28.1 0-41.1-.7-7.1-7.1-9.5-12.4-13.4-2.8.5-21 23.4-26.1 26.9-.8.6-1 1.4-2.5 1-7.8-16.5-19.6-34.1-34.7-44.8-3-2.1-14.3-7.5-15.3-8.7-2.3-2.6 1-15.7 1.1-20 0-6.4-2.8-19.1-.5-24.5.6-1.5 6.8-5.9 8.6-7.4 11-9 62.9-44.3 66.1-52.9 1.1-2.8.4-4.5.8-6.7zm-131 321c0-2.1.2-4.3 0-6.5-2.8-34.8-10.2-71.8-14-107-1.1-10.4-.9-21.8-2.1-31.9-.6-5-3-8.1-6.4-11.6-2.6 2.6-5.7 5.5-5.6 9.5 6.2 38.7 7.2 79.6 17.8 117.3 2.5 8.9 5.6 18.7 8.6 27.4.4 1.1.2 3 1.7 2.8m297-1c2.2.4 2.4-1 3-2.5 18.1-45 18.6-96.5 26.1-144 0-3.9-3-6.9-5.6-9.5-9.1 8.1-6.3 22-7.5 33.5-4.2 40.9-9.7 81.9-16 122.5m-329-141c-2.3-.6-1.7.6-2.3 1.3-.9 1.1-3.3 4.1-3.8 5.2-3.1 7 3.3 23 4.4 30.8l5.7 15.8-4-53Zm364 0s-2.1-.4-2 .5l-4 52.5 5.7-15.8c1.6-5.9 6.4-24.5 5-29.5 0-.4-4.4-7.4-4.8-7.7zm-304 162c-3.2-38.4-5.1-76.9-7-115.5-8.9-13.4-17.5-27.3-28-39.5l17 142c12.5-10.9 10.9 6.7 18 13m260-13 17-142c-10.4 12.2-19 26.1-27.9 39.5l-3.1 63.9-4 51.5c7.1-6.3 5.5-23.9 18-13Zm-163 49c-.2-18.5.3-37 0-55.5-.2-20.4-1.3-41.5-2.1-61.9-.2-4.7 1.2-12.4.8-15.9-.5-4-16.2-16.4-19.2-20.6l-11 14c-.3 20.3 1.8 41.1 2.5 61.4s.6 41.1 1 61.5c2 .8 4.2-3.5 5-3 .2.2 1.2 4.1 3 4.5zm76-17c.4-20.5.2-41.1 1-61.5.3-8.9.7-18 1-27 .2-6.2 3.3-30.6 1.5-34.4-1.5-3.2-8.9-10.1-11-14-3 4.2-18.8 16.6-19.2 20.6-.4 3.5.9 11.2.8 15.9-.8 20.4-1.8 41.5-2.1 61.9-.2 18.5.2 37 0 55.5l20-15.5c1.8-.5 2.8-4.4 3-4.5.8-.5 3 3.8 5 3m-168.3-120.7c-.4-.4-2.6-1.5-2.7-1.3 3.4 40.1 5.8 80.3 9 120.4l12.9 21.1c1.7 1.4 6.8 12.1 8.5 11.4 6.6-2.4 2.7-21.7 2.5-27.4-.5-21-1.3-42.1-2-63-.4-10.5.5-21.1-1-31.5-3.3.2-4.2 1.9-7.1-.4-6.5-5.3-13.2-23-20.3-29.2h.2ZM1114 1651l20-32.6 9.1-120.4c-.2-.3-2.5 1.3-3 1.8-6.8 6.7-13.7 23.7-19.9 28.8-2.9 2.4-3.8.6-7.1.4-1.9 21.8-1.3 43.7-2 65.5-.4 15-3.5 35.6-2.1 50 .3 3.2 1.2 6 5 6.4Zm-151-144-3.6.9-15.4 18.6c-.3 38.2 2.9 76.2 2 114.5 1.1 1.3 17.1-12.3 19-13.7 0-40.2-2.7-80.1-2-120.3m139 134c-.9-38.3 2.3-76.2 2-114.5l-15.4-18.6-3.6-.9c-.3 15.5.4 31 0 46.5 0 2.4-1 4.6-1.1 6.9-.5 22.3-.6 44.6-1 66.8 1.9 1.4 17.9 15 19 13.7Zm-60-131-18.3 16.9-17.6-16.9c.7 44.6 3.8 88.9 4 133.5.4 2.5 12.5 11.2 13.7 11.4 1.4.2 13.8-8.9 14.3-11.4 1.3-6.8-.3-19.3 0-27 .4-11.5 1.2-23.4 2.1-34.9l1.9-71.5h-.1Zm-112.9 165.9-39.6-64.9c-2.7 4.3-15.7 16.7-16.5 20.5-.5 2.3 0 6.3 0 8.8.5 6.2 3.4 24.2 5.1 29.9 2.2 7.3 14 10.2 20.1 13.9 44.8 27.9 79.7 46.3 135.2 43.8 47.1-2.2 77.9-20 116.2-43.8 6.1-3.8 17.8-6.6 20.1-13.9 1.7-5.7 4.6-23.7 5.1-29.9.2-2.5.6-6.5 0-8.8-.7-3.8-13.8-16.2-16.5-20.5l-40.1 65.1-48.9-32.8-45.1 37.7-45.8-37.7c-6.8 2.2-46.8 34.1-49.4 32.6Z" data-original-prefix="outline" class="outline"/>
    </g><g class="trait-group" data-category="eyes" id="eyes-OG-bandaid">
      <!-- Generator: Adobe Illustrator 29.1.0, SVG Export Plug-In . SVG Version: 2.1.0 Build 142)  -->
  <defs>
    
  </defs>
  <path id="fill-skull" class="fill" d="M696,1136c-.3-2.4,0-2.8-2-4.5-3.8-3.1-19.7-8.2-21.1-10-.9-1.1,0-9.9.2-12,1.5-9.1,10.6-28,15-37,7.5-15.3,16.9-29.8,25.4-44.6,2.9-2.6,22.1-1.3,27-1,6,.4,15,1.2,20.9,2.1,3.1.5,18.9,5.6,19.6,4.9s-.2-2.5-1-3.4c-1.5-1.7-7.4-5.7-9.6-7.4-8.9-6.4-18.8-11.3-28.3-16.7-2.1-2.2,1.8-10,3.2-12.9,18.8-41,87.4-78.6,126.5-98.5,24-12.2,48.7-26,74.6-32.4,60.6-14.9,133.1-14.5,190.1,12.4,45.2,21.3,98.3,47.1,135.2,80.8,14.7,13.4,32,30.7,35.3,50.9-12.1,6.7-28,14-37.9,23.6-1.1,1.1-2.3,1.7-2,3.5,7.2-1.2,14.2-3.9,21.5-5,9-1.4,25.1-3.1,34-3.1s10.1.7,11.8,1.1c2.6.6,24.2,41,26.9,46.3,5.6,11.3,17.1,35.2,14.8,47.2-.6,3.1-5.1,3.1-7.7,4.3-3.1,1.4-11.1,4.9-13.3,6.7-1.7,1.4-1.8,3.3-2,3.5-3.4,2.5-8.7,4.1-12,7l-19.9,2.9c-6.4-28.3-15.3-59.3-32.3-83.2-3.2-4.5-11.1-14.8-15.3-17.7-9.4-6.6-26.9-7.8-35.5-13.5-6.2-4.1-19.1-22.3-26-29-19.1-18.4-34.9-29.3-62.4-18.3-13.1,5.2-37.8,24.8-39.6,39.5-.7,6.1,3.7,18.8,5.7,25.2,5.1,16.5,12.8,32.3,18.3,48.6-.7,3.3-34.2,15.6-39.1,23.2-4.4,6.8-9.2,18.8-12.5,26.5-5.1,12-9.6,24.6-13.5,37,3.8-2.9,7-6.8,10-10.5,9.2-11.4,16.7-25.8,25.5-36.5,6.3-7.6,25.6-22.8,34.1-28.9s10.2-5,16.9,3c15.1,18.1,36.9,56.7,46.4,78.6,1.3,3,4.9,10,4,12.7-13.4,9.6-26,22.4-39.6,31.5-14.1,9.4-30,14.5-46.9,16.1-21.3,2-41.9-10.2-62.4-13.9,11.3,10.2,27.4,18.1,20.9,36.4-.5,1.5-.8,3.1-2.9,2.6-2.9-4.8-22.3-15.4-24-19-3.5-7.5-4.8-8.6-9.2-15.3-6.5-9.9-11.7-21.7-10.3-33.7-6,2.7-8.5,1.9-14.5,0,2.4,9.8-3.1,22.9-8.2,31.3-3.3,5.6-9.6,10.4-10.8,16.7l-25,19c-.2-.3-2.3.8-2.9-3.6-2.5-19.3,7.7-22,20-32.8,1-.8,2.5,0,1.9-2.6-19.9,5.8-42.2,16.9-63.4,14.9-44-4.3-65.6-34.1-99.3-57.7-32.9-23-68.4-36.7-107.1-46.9-4.7-1.2-11.5-1.2-15.2-2.3-2.8-.8-7.3-5.8-11-6h0ZM980,1183c1.8-2-16.4-44.5-18.8-49.7-3.2-6.7-6.3-13.3-11.2-18.8-19.9-10.8-40.9-20.3-60.6-31.4-14-7.9-26.5-19-42.3-23.2-1.4,1.4,6.9,7.5,8.1,8.4,26.9,20.6,64.8,41.2,87.9,66.1,11.7,12.6,20.2,32.4,33.8,46.2,1,1,1,2.8,3.2,2.3h-.1ZM993.5,1233v1c.7-.3.7-.7,0-1" fill="#ffffff"/>
  <path id="fill-bandaid2" class="fill" d="M1227.3,1043.7c4.2,4.2,19,3.9,25.9,5.6,10.1,2.5,15,5.5,21.8,13.2,13.3,15.2,24.8,38.7,29.7,58.3,1.5,6.1,4.9,20,4.3,25.7-.7,7.3-7.5,10.7-13,14-15.9,9.4-48.1,24.5-65.5,30.5-3.6,1.3-10.7,4.9-13.4,1.4-14.5-27-27.9-54.6-44.9-80.1-2.5-3.7-12.1-14.8-12.3-17.8,0-1.3.5-3.2,1.4-4.2l52.2-34.3,1.5-4c-2.1-2.1-31.4,12.5-35.7,14.8-8.1,4.4-21.1,14.6-28.6,17.4-5.7,2.1-7.7-4.4-10.5-8.9-6.3-10.2-16.9-34-16.2-45.8s17.8-26.6,27.4-31.7c29.9-16,43.9,5.7,61.6,26.7,4.5,5.3,10,14.8,14.4,19.1h-.1ZM1173.7,1008.2c-4,1.2-3.8,8.2.8,8.9,7.9,1.1,7.1-11.2-.8-8.9M1139.2,1027.2c-3.9,3.9,1.1,12.3,7.3,7.8s-2.8-12.4-7.3-7.8M1171.7,1031.2c-3.9,1.2-3.9,8,.8,8.8,9.5,1.6,6.8-11.1-.8-8.8M1202.8,1044.8c3.8-3.8-2.4-11.5-7.3-7.8-6.2,4.6,2.4,12.7,7.3,7.8M1163.2,1063.8c3.1,3.1,9.2,1.4,8.8-4.2-.6-9.8-14.9-1.8-8.8,4.2M1224.3,1174.7c6.8,5.5,33.6-5,41.4-8.5,8.6-3.9,29.9-14.7,31.9-24.1,3.1-14.6-13-47.2-21.3-59.8-4.1-6.2-13.8-21-21.6-20.2-13.5,1.4-59,26.9-67.1,37.9-3.3,4.4-3.2,6-1,11.1,4.5,10.4,14.6,26,20.7,36.2,3.1,5.1,13.8,24.8,17.1,27.4h0Z" fill="#ffffff"/>
  <path id="fill-bandaid1" class="fill" d="M1252.8,1072.2c1.2,0,2.2-.4,3.5,0,3.3.9,18.5,24.7,20.9,29.2,4.2,7.8,13.2,27.6,11.8,36.1-1.5,9.1-26.3,20.4-34.4,23.6-4.2,1.7-21.7,7.9-24.8,6.8-1.9-.6-14.8-22.6-16.8-26.2-2.7-4.7-18.1-33.2-17.7-35.9.2-1.3,1.4-2.8,2.3-3.8,7.2-8.1,44.8-28.6,55.3-29.7h-.1Z" fill="#ffffff"/>
  <path id="shading-eyes" class="shading" d="M929,867l-29.9,17.6c-30.3,20-71.8,72.2-84.9,106.1-7.7,19.8,15.6,44.8,28.9,57.8,38.7,19.6,77.6,39.1,113.5,63.5,14.3,19.1,24.9,49.3,40,66.9,6.5,7.6,13.5,4.7,18,8,1.1.8,4.3,7.4,5,9,1.1,3-.8,7.2,4.1,7.8,4.3.5,3.4-4.4,4.9-7.7.8-1.9,3.6-8.2,4.9-9.1,2.2-1.6,10.3-2.3,13.8-4.2,10.7-5.8,33.6-58,43.2-69.8,15-11.9,32.4-20.3,48.5-30.5-7.7-10.2-13.6-22.5-17.2-34.7-.9-2.9-3.4-11.1-3.5-13.5,0-3.7,9.2-13.4,11.2-17.3,3.1,20.7,8.2,42.3,22,58.8l54-27.8c15.3-16.7,36.6-36,26.7-60.7-12.6-31.4-53-81.9-80.9-101.1l-32.3-19.2h22.5c4.4,0,41.6,19.2,48.2,22.8,47,25.9,92,62.9,123.7,106.3,2.8,3.8,12.4,14.4,8.3,18.7-3.2,3.3-25.6,8.5-31.7,10.8-36.2,13.6-77.5,29.7-110.7,49.3-2.6,1.5-18.5,11.3-19.1,12.4-3.5,6.1,7.2,13.2,10.8,17.3,10.8,12.8,19.2,28.1,27.2,42.8,1.4,2.5,7.2,16,7.9,16.6.8.6,5.6-.6,5.8-.9.4-.6-.2-2.2-.4-3-1.6-6.5-10.4-24.4-13.7-31.3-.9-1.9-8.6-14-7.8-14.6l8.8.2c7.3,13.8,15.4,28,26.8,38.8,29.8-25.1,64.3-43.3,97.9-62.9l32.4.5c4,2.4,10.3,24.6,15.6,29.4,1,1,5.9,2.1,4.4,4-.3.4-7.4,2.6-9,3.5-8.2,4.3-25.9,12.5-32.3,17.7-2.7,2.2-.5,5-3.2,6.8l-238.1,134.9c-14.5-10.8-30.2-21-43.8-32.8-7.8-6.8-14.2-15.6-22.1-21.9-2.7,1.3-6.1-.6-8.4.4-1.5.7-16,17.3-19.6,20.5-8.4,7.5-27.4,23-36.6,28.4-2.1,1.2-4.3,3.2-6.9,2.2l-240-133.1c-1.4-1.6-.5-3.7-2.6-5.4-6.6-5.3-25.2-13.8-33.7-18.3-1.4-.7-7.4-2.5-7.7-2.8-1.4-1.9,3.7-3.1,4.9-4.6,3.6-4.4,11.6-27.2,15.1-28.9h33c21.4,12.9,44.7,24.7,65.5,38.5,18.6,12.3,35.7,27.9,54.2,40.8,28.2,19.8,67.5,44.8,99,58,17.4,7.3,25.6,4.6,43.5.8,6.2-1.3,19.7-6.3,24.5-6.4,2.5,0,7.8,3.9,12.8,3.8,4.6,0,9.2-3.9,11-4,2.1,0,11.4,3.5,14.7,4.3,10,2.3,27.5,6.9,37.3,6.7,11.2-.2,38.4-15.9,49.2-21.9,20.6-11.3,40.6-23.9,59.9-37.2l-49.9-76.9c-9.6,7.8-19.8,14.8-29.1,22.9-16.3,14.2-29.5,34.3-41.8,52.2-4.9,7.2-6.3,13.4-13.3,19.7-2.1,1.9-22,16.2-23.4,16.6-1.9.6-28.2.6-30.1,0-1.3-.4-19.7-13.4-21.9-15.1-8.5-7-9.6-13.4-15.3-21.7-18.6-27.2-30.8-43.5-56.9-64.1-49.5-39-98.9-60.6-157.6-82.4-5.5-2-29-7.4-31.3-10.6-1.7-2.4-1-4.6.2-7,4.8-9.4,21.7-29.2,29.3-37.7,33.5-37,80.1-70.5,125.2-91.8,3.3-1.6,24.3-11.1,25.9-11.1h22.5Z" fill="#aaaaaa" style="opacity: 0.5" opacity="0.5"/>
  <path id="outline-eyes12" d="M1075,1274c2.1.5,2.3-1.1,2.9-2.6,6.6-18.3-9.6-26.2-20.9-36.4,20.4,3.6,41.1,15.9,62.4,13.9,16.9-1.6,32.9-6.7,46.9-16.1,13.6-9.1,26.2-21.9,39.6-31.5.9-2.7-2.7-9.7-4-12.7-9.5-21.9-31.3-60.5-46.4-78.6-6.7-8-8.7-9-16.9-3s-27.8,21.3-34.1,28.9c-8.8,10.7-16.3,25.1-25.5,36.5-3,3.7-6.1,7.6-10,10.5,3.9-12.4,8.4-25,13.5-37,3.3-7.7,8.1-19.8,12.5-26.5,4.9-7.6,38.4-19.9,39.1-23.2-5.5-16.2-13.2-32-18.3-48.6-2-6.4-6.4-19.1-5.7-25.2,1.8-14.7,26.5-34.2,39.6-39.5,27.5-11,43.2,0,62.4,18.3,6.9,6.7,19.9,24.9,26,29,8.6,5.7,26,7,35.5,13.5,4.2,2.9,12.1,13.2,15.3,17.7,16.9,23.9,25.9,54.9,32.3,83.2l19.9-2.9c2.8,5.2,2.2,12.1,3.3,18.2.8,4.3,4.4,14.4,4.5,17.5,0,1.8-10.3,15.7-8.8,17.3,2.2,2.4,7.6-14.3,12-10.5,0,2,.2,4,0,6-.9,8.1-7.9,29.6-10.7,38.3-3.2,9.6-6.2,16.4-12.8,24.2-3,3.5-24.9,26.6-27.1,27.9-11.1,6.1-35,7-48.8,11.2-4.6,1.4-8.8,4-13.6,4.9-.2,1.8,2.2.9,3.2.7,4.8-.8,8.7-3.8,13.5-4.5,3.7-.6,9.9-1.1,13.8-1.2,3.2-.2,8-.4,11,0,5.7.7-3.1,3.3-4.2,3.8-9.5,4.7-20.6,11.1-30.3,14.7-19.3,7-76.2,9.8-96.2,5.3-7.3-1.7-22.2-17.8-29.8-23.2-2.9-2-11.6-7.8-14.4-8.6-4.2-1.2,1.3,9.2.5,10-14.9,1.2-22.3-6.1-30.5-17.1-.7-1-.3-2.6-.5-2.9l-.2.3ZM1227.3,1043.7c-4.4-4.3-9.9-13.8-14.4-19.1-17.8-21-31.7-42.7-61.6-26.7-9.6,5.1-26.8,20.2-27.4,31.7s9.9,35.6,16.2,45.8c2.8,4.5,4.8,11.1,10.5,8.9,7.6-2.8,20.5-13,28.6-17.4,4.2-2.3,33.6-16.9,35.7-14.8l-1.5,4-52.2,34.3c-.8,1-1.4,2.9-1.4,4.2.2,2.9,9.8,14.1,12.3,17.8,17,25.5,30.4,53.1,44.9,80.1,2.7,3.5,9.8,0,13.4-1.4,17.4-6,49.6-21.1,65.5-30.5,5.6-3.3,12.3-6.7,13-14,.6-5.7-2.8-19.7-4.3-25.7-5-19.6-16.4-43.1-29.7-58.3-6.8-7.7-11.7-10.7-21.8-13.2-6.9-1.7-21.6-1.5-25.9-5.6h.1Z" class="outline" fill="#000000"/>
  <path id="outline-eyes11" d="M696,1136c.4,3.7-.6,12.1-1.9,15.6-.4,1.2.6,1.6-1.5,1.4-7.9-1.7-16.8-6.9-24.1-8.9-12.6-3.4-24.6,3.3-23.5-15.6,1.7-29.3,21.8-78.4,37.6-103.4,4.3-6.9,19.5-29.6,26.4-31.7,3.1-.9,7.2,1.5,8.9.5.4-.3,3.7-6.5,5.2-8.3,54.7-66.9,129.4-124,216-141,63.4-12.5,145.8-10.7,207.5,9.5,61.9,20.2,144.3,82.1,181.3,135.7,1.3,1.9,2,5.1,2.2,5.3.4.4,7.2-2.1,9.3-1.8,1.3.2,8.1,5.5,9.2,6.8,24.3,25.9,52.8,92.5,55.3,127.7.4,5.4.4,11-4.6,14.2-15.5.2-29.3,6.3-43.8,11.2-1.1,0-3.2-16.1-2.5-18,.2,0,.3-2.1,2-3.5,2.2-1.8,10.2-5.3,13.3-6.7,2.6-1.2,7.1-1.2,7.7-4.3,2.3-12-9.3-35.8-14.8-47.2-2.6-5.4-24.3-45.8-26.9-46.3-1.8-.4-9.7-1.1-11.8-1.1-8.9,0-25,1.7-34,3.1-7.3,1.1-14.3,3.8-21.5,5-.4-1.8.9-2.5,2-3.5,9.9-9.6,25.8-16.9,37.9-23.6-3.3-20.2-20.7-37.5-35.3-50.9-36.9-33.7-90-59.5-135.2-80.8-57-26.9-129.6-27.3-190.1-12.4-25.9,6.4-50.6,20.2-74.6,32.4-39.1,19.9-107.7,57.5-126.5,98.5-1.3,2.9-5.3,10.6-3.2,12.9,9.5,5.4,19.4,10.3,28.3,16.7,2.3,1.6,8.2,5.6,9.6,7.4.8.9,1.8,2.7,1,3.4s-16.5-4.4-19.6-4.9c-5.9-.9-14.8-1.7-20.9-2.1-4.9-.3-24.1-1.6-27,1-8.5,14.8-17.8,29.3-25.4,44.6-4.4,9-13.5,27.8-15,37-.3,2.1-1.1,10.9-.2,12,1.4,1.7,17.2,6.9,21.1,10,2.1,1.7,1.8,2.1,2,4.5v-.4h.1Z" class="outline" fill="#000000"/>
  <path id="outline-eyes10" d="M707,1142c3.7,1.1,10.5,1.1,15.2,2.3,38.7,10.2,74.2,23.9,107.1,46.9,33.7,23.6,55.2,53.4,99.3,57.7,21.2,2.1,43.4-9.1,63.4-14.9.7,2.6-.9,1.8-1.9,2.6-12.3,10.8-22.5,13.5-20,32.8.6,4.4,2.7,3.3,2.9,3.6.4.5.9,3.1.5,4-.5,1.1-13.2,13.7-14.6,14.5-1.8,1-15.2,3.3-15.9,2.6-.2-2.8,1.7-4.6,2-7.5.2-1.5.6-2.8-1.4-2.4-4.5.9-14.5,8.5-18.5,11.5-5.8,4.3-16,15.7-20.7,18.3-10.6,5.9-66.5,3-80.8,1-20-2.8-35.2-11.2-52.9-20.1-.8-.4-7.6-2.1-2.2-2.8,2.3-.3,5.6,0,8,0,4.6.2,11.4.6,15.8,1.2,4.8.7,9.5,3.7,14.5,4.5,1.1.2,3.5,1.1,3.2-.7-20-9.2-42.5-9.1-62.9-16.6-9.1-11.9-23-21.4-31.3-33.7-5.7-8.5-17.6-45.9-18.8-56.2-.2-2,0-4,0-6,.7-5.3,9.8,9.8,10.4,10.6.4.5,1.1,3.7,2.6,1.9,1.7-2-9.5-16.9-9.8-18.7-.2-1,3.9-15,4.4-18.2,1.1-6.1,1.3-12.2,2.3-18.2h.1Z" class="outline" fill="#000000"/>
  <path id="outline-eyes9" d="M998,1254c1.2-6.3,7.5-11.1,10.8-16.7,5.1-8.5,10.6-21.5,8.2-31.3,6,1.8,8.5,2.6,14.5,0-1.4,12,3.8,23.9,10.3,33.7,4.4,6.7,5.8,7.8,9.2,15.3-3.3,0-4,4.3-7,4-.9-5.7-7.9-7.8-12-12.5-1.2-1.4-2.9-3.6-3.9-5.1-.9-1.3-.8-4.1-1.7-4.4-5.5-1.6-6,5.6-9.4,9.5-3.8,4.4-11.3,6.9-12,12.5-1.4,1.3-5.2-4.4-7-5" class="outline" fill="#000000"/>
  <path id="outline-eyes8" d="M980,1183c-2.2.5-2.2-1.3-3.2-2.3-13.6-13.8-22.1-33.7-33.8-46.2-23.1-24.8-61-45.4-87.9-66.1-1.2-.9-9.5-7-8.1-8.4,15.8,4.1,28.3,15.3,42.3,23.2,19.7,11.1,40.7,20.6,60.6,31.4,4.9,5.5,8.1,12.1,11.2,18.8,2.5,5.2,20.6,47.7,18.8,49.7h.1Z" class="outline" fill="#000000"/>
  <path id="outline-eyes7" d="M993.5,1233c.7.3.7.7,0,1v-1Z" class="outline" fill="#000000"/>
  <path id="outline-eyes6" d="M1224.3,1174.7c-3.3-2.6-14-22.3-17.1-27.4-6.1-10.3-16.2-25.9-20.7-36.2-2.2-5-2.3-6.6,1-11.1,8.2-11,53.7-36.6,67.1-37.9,7.8-.8,17.5,14,21.6,20.2,8.3,12.6,24.4,45.2,21.3,59.8-2,9.4-23.2,20.2-31.9,24.1-7.8,3.5-34.6,14-41.4,8.5h0ZM1252.8,1072.2c-10.6,1.2-48.1,21.7-55.3,29.7-.9,1-2.1,2.5-2.3,3.8-.4,2.8,15,31.2,17.7,35.9,2.1,3.6,15,25.5,16.8,26.2,3.2,1.1,20.6-5.2,24.8-6.8,8.2-3.2,32.9-14.5,34.4-23.6,1.4-8.5-7.6-28.3-11.8-36.1-2.4-4.5-17.6-28.2-20.9-29.2-1.3-.4-2.2,0-3.5,0h.1Z" class="outline" fill="#000000"/>
  <path id="outline-eyes5" d="M1139.2,1027.2c4.5-4.5,13.7,3.2,7.3,7.8s-11.2-3.9-7.3-7.8" class="outline" fill="#000000"/>
  <path id="outline-eyes4" d="M1202.8,1044.8c-4.9,4.9-13.5-3.2-7.3-7.8,4.9-3.6,11.2,4.1,7.3,7.8" class="outline" fill="#000000"/>
  <path id="outline-eyes3" d="M1163.2,1063.8c-6.1-6.1,8.3-14.1,8.8-4.2.3,5.7-5.8,7.3-8.8,4.2" class="outline" fill="#000000"/>
  <path id="outline-eyes2" d="M1171.7,1031.2c7.6-2.3,10.4,10.4.8,8.8-4.7-.8-4.8-7.7-.8-8.8" class="outline" fill="#000000"/>
  <path id="outline-eyes1" d="M1173.7,1008.2c7.9-2.3,8.8,10,.8,8.9-4.6-.7-4.9-7.7-.8-8.9" class="outline" fill="#000000"/>
    </g><g class="trait-group" data-category="right ear" id="right ear-ringer">
      <defs/><path id="fill-ear-right" fill="#ffffff" d="M1679.5 565c3.1.9 34.6 44.3 40.3 49.6l-18 48.1-77.7 9.2 14.5-26c5.3-3.9 21.9-4.9 25.6-9.4 1-1.2 7.7-19.7 7-20.5l-27.9-6.9-78.4 136.6c-47 29.7-93.4 60.4-141.4 88.6-7.7 21.6-11.8 46.3-20 67.5-2.3 6-4.2 7.9-8.8 12.2-14.9 13.7-33.9 28.4-50 41-14.6 11.4-29.9 22.1-44.9 33-14.5-5-29.7-8.6-44.1-13.9-21.8-8.1-59.9-34-73.3-52.7-6.9-9.5-19.8-33.3-22.7-44.3-.6-2.2-.7-4.2-.4-6.5 26.7-58 56.9-114.5 83.5-172.5l15.2-178.8 127.2-166.8 321.3-172.7c1.7-1 2.9-.8 4.7-.3 1.3.4 16.4 8.4 17 9.1.6.6 1.1 1 .9 1.9l-15.2 124.8c-12.1 41.8-20.6 84.8-30.6 127.2.4 1.2 1.3 1.4 2.4 1.6 7.2 1.3 40.6 3.2 44 6l20.1 33.9c.7 2.2-1 16.8-1.8 19.4-.5 1.8-2.8 2.7-4.3 3.7-9.6 6.8-24.9 16.3-35.2 21.8-1.8.9-3.4 2.4-5.6 2-1.5-.2-19.7-6.9-20.3-7.8l7.6-36-13.4 1.9-18.6 76.1c5.7 1 16.6-1.4 21.5 0h-.2Z" class="fill" data-original-prefix="fill"/><path id="fill-earing-rt2" fill="#ffffff" d="M1632 663c2.4-2.2 11.2-19.2 12.2-19.8 1.1-.6 4.4 0 6.2-.3 6.6-1.2 18.3-4.3 23.1-8.9 5.7-5.5 11-17.9 4.4-24.4-5.7-5.6-29.3-7-38.1-8.9-6-1.3-21-4.1-23.7-9.3-5.1-10 5.8-20.4 15.4-20.4s39.2 3.4 51.3 7.7c8.6 3.1 25.8 23 27.2 31.8 1.7 11-9.6 35.6-19.2 41.6-14.7 9.2-41.8 11.2-58.7 10.8v.1Z" class="fill" data-original-prefix="fill"/><path id="fill-earing-rt1" fill="#ffffff" d="M1689 523c1.1-2.7 1.7-10.3 3.5-12 3.5-3.4 31.6-5.5 18.6-19.5-9.8-10.5-31.3-5.4-44.1-3-4.5.9-19.7 5.8-22.2 5.4-6.7-1.1-11.5-9.6-10.5-16.1 1.4-10 18.9-17 27.6-19.5 23-6.5 38.7-3.7 60.2 5.2 12.2 5.1 20.9 7.2 22.1 21.9 1.4 17.4-1 21.7-16.7 28.4-5.1 2.2-35.2 11.9-38.3 9.1h-.2Z" class="fill" data-original-prefix="fill"/><path id="shading-ear-rt" fill="#aaaaaa" d="M1680 253c.3 2-.2 3.9-.7 5.8-8.9 34.3-34.7 54.4-52.5 84.5-29.1 49.3-53.6 104.6-49.8 163.2.9 14.2 7.4 30 2.5 43.5-2.1 5.7-5.9 11.8-8.2 17.8-3.3 8.3-8.1 18.6-6.2 27.3 1.1 0 2.2 0 3.3-.2 11.8-2.8 35-45.1 41.2-56.8 3.6-6.8 17.1-31.1 18.2-36.8 1.6-7.5.4-20.4 1.2-28.8s1.7-12.1 9.4-15.6c7-3.2 34.9-11.7 42.3-12.7 5.3-.7 31.7.6 36.2 2.3l37.6 25.5c2 3.3-.3 15.3-.5 19.5s.2 19.5-2 22c-.9 1-21.6 11-24.7 12.3-3.2 1.4-9 4.4-12.1 4.9-9.4 1.6-20.7.8-30.3 2.7-1.6 1-7.1 26-5.8 27.4 4.9 1.1 9.8 3.7 13.9 6.6l28 46-19 47.9-1.6 1.4-68.7 12.3-65.2 66.8-139 93c-9.9 21.5-17 44.3-27.5 65.5l-94.6 85.4c-2.1 1.4-4.4 1.3-6.8 1-12.9-1.2-50.1-14.6-61.9-21.1-9.8-5.4-40.8-28-48.1-35.9-.9-1-7.6-10.7-7.6-11.4 0-1.2 1.5-2.2 1.7-3.3 2.3-11.1 3.3-13 10.3-21.7 19.1-23.8 39.7-44.9 57.8-70.2 41.9-58.5 65.7-121.7 102.8-182.2 10.9-17.8 25.9-33.1 29.3-54.7 1.5-9.4 1.1-18.9 1.1-28.4l54 6.5c10.2 14.6 18 30.7 26 46.5.8.6 11.2-11.8 12-13.4 2-4 3.6-11.5 4.9-16.1 13.4-47.4 15.6-97.8 13.1-146.9 15.8-37.5 40.7-73 68.4-102.6 22.1-23.5 61.1-47.8 89.2-64.8 5.8-3.5 17.3-10.7 22.9-13.1 1.8-.8 3.3-1.4 5.4-1.1v.2Zm-3.2 202.3c-10.3.9-27.7 5.8-35.7 12.3-6.7 5.4-2 12.4 5.4 12.5 18.8-2.7 58.3-11.5 75.3-3.2 2.6 1.3 5.3 5.6 7 6.1 5.9 1.5 5.1-11.8 2.7-14.8-1.6-2-29.3-12.3-33.2-12.8-6-.9-15.3-.5-21.5 0zM1670 502c-13.7.1-27.5 2.6-41 1l-19 64c1.8 1.7 41.1-11.8 46.8-13.2zm24 127c6.7.2 11.7-.3 14.8-6.7 3.9-8.2 2.1-11.4-2-18.6-1.6-2.8-13.7-20.5-15.3-21.7-2.4-1.9-14.5-5-18.2-5.8-9.1-2.1-36.5-6.6-44.7-4.9-13.8 2.8-3.2 15.6 4.3 19.3 23.9 11.9 71.3-6.8 61 38.5Zm-423 338c.7.7 6.6-4.2 7.5-5 18.6-15.8 38.6-36.6 55.6-54.5 13.9-14.7 30.5-30.8 39.2-48.8 6.9-14.4 12.7-29.5 18.8-44.2 14.4-5.4 29.8-7.3 44.2-12.8 53.6-20.2 101.4-63 144.7-99.3l60.5-88.5v-3l-42.4-17.9c-14.3 34.9-32.3 69.5-54.3 100.2-11.7 16.4-21 23.3-37.9 34.1-31.7 20.2-61 22-95.4 34.6-22.9 8.3-30.6 9.9-43.7 31.3-22.8 37.6-40.8 76.8-67.4 112.6-4.9 6.6-15.6 17-18.8 23.2-1.6 3.1-11.9 36.4-10.6 37.9zm388.7-352.8c-2 .6-11.3 14.7-12.2 17.8 8-3.7 19.8-1.8 22.1-12 1-4.7-6.5-6.8-9.8-5.8Z" class="outline shading" data-original-prefix="shading" opacity="0.5" style="opacity: 0.5"/><path id="outline-ear-rt1" fill="#000000" d="M1203 940c-1 2.3-3 .2-4.1-.4-11-5.7-17.6-8.7-25.3-18.7-9.8-12.8-17.3-28-27.4-40.6-.6-2.1 1.2-22 2-24.6.5-1.7 5.6-8.4 6.9-11 4.6-9 9.5-18.2 13.7-27.3 6-13.1 11.8-33.9 18.9-45 2.6-4 7.1-7.8 10-12 45.7-65.6 39.9-168 48.8-244.2 38.8-56.5 80.2-110.9 126.9-161.1 10.8-11.6 24.2-27.3 36.2-36.8 57.3-45.1 144.2-89 212.1-115.9 27.1-10.7 74.2-30.4 102-33 2-.2 4.9-.6 6.6.7 1.3.9 4.2 14.2 4.5 16.7 4.6 32 .2 83.8-2.9 116.9-.8 8.8-3.4 33.2-6.8 40.2-4.1 8.6-15.4 18.2-20 29-2.4 5.7-15.3 53.3-13.2 55.3 6.9-.5 13.4 2.2 19.7 4.8 10.6 4.4 26 13 36 19 8.9 5.4 15.7 8.8 18.1 19.9 10.8 49.3-27.4 63.5-67.4 70.1-2.4.4-13.7.8-14.3 1.2-.4.4-2.5 10.5-2.1 10.9 22.2-.6 34.2 18.8 43.2 36.3 10.9 21.4 5.9 31.6-2.7 52.6-10.4 25.3-16.7 34-44.3 39.7-18.8 3.9-38.8 4.9-58 5.5-8.2 14.6-17.6 28.4-28.2 41.3-29.3 35.5-70.2 67.2-110.3 89.7-18.8 10.5-28.8 10.7-42.1 29.9-15.2 21.8-20.8 40.5-31.1 63.9-5.5 12.6-19.7 19.4-29.9 28-9.4 7.9-16.4 16.7-25 25-4.4 4.2-22.9 23.2-26.2 24.8-20.3 10.7-52.9-3.5-72.4-12.4-4.1-1.9-11.9-5-13-9.5 24.3 10 45 11.5 68.3-1.2 45.3-24.6 93.3-80 105.3-130.7 1.9-8-1.7-7.6 6.1-13.9 24.6-19.7 60-33.5 86.6-51.4 43.1-28.9 89.9-90.1 114.2-135.8 1.5-2.8 9.9-18.5 8.5-20-13.2-.7-21-5.7-28-16.5-6.6-10.1-8.3-14.9-1.8-25.8 11.6-19.4 31.5-19.5 51.9-20.1 2.2-5.3 13.6-45.7 11.9-47.5-17.3 5.2-27.6 7.5-40-7.5-8-9.6-9.4-17-3.4-28.5 7.5-14.3 20.7-21.3 34.4-28.6 3.9-2.1 13.1-4.2 14.6-8.4 6.3-31.1 11.3-66.9 25.6-95.4 7-13.9 11.3-16.6 14.6-33.4 7.4-37.6 11.2-78 8.3-116.2-41.9 13.6-81.8 33.1-120.7 53.8-44.4 23.7-89.5 51.7-131.8 79.1-54.6 35.4-96.1 71.2-137.4 121.6-17 20.7-39.9 47.8-54.5 69.5-13.5 20.2-13.2 62.9-15.6 87.4-1.1 11-3 22-4 33-2.3 25.8-.7 63.8-9.8 87.2-8.6 22-21.8 49.2-32.3 70.7-6.5 13.3-16.1 27.1-22.1 40-6.3 13.7-9 29.6-15.7 43.3-3.2 23.3 12.8 49.9 27.9 66.4m486-417c3.2 2.8 33.2-6.9 38.3-9.1 15.7-6.7 18.1-11 16.7-28.4-1.2-14.7-9.9-16.9-22.1-21.9-21.4-8.9-37.2-11.8-60.2-5.2-8.7 2.5-26.1 9.5-27.6 19.5-.9 6.5 3.8 15 10.5 16.1 2.5.4 17.8-4.5 22.2-5.4 12.8-2.4 34.3-7.6 44.1 3 13 14.1-15 16.1-18.6 19.5-1.8 1.7-2.4 9.3-3.5 12h.2Zm-57 140c16.8.4 44-1.6 58.7-10.8 9.6-6 21-30.6 19.2-41.6-1.4-8.8-18.5-28.8-27.2-31.8-12.2-4.4-38.3-7.8-51.3-7.7-9.6 0-20.4 10.4-15.4 20.4 2.7 5.2 17.7 8 23.7 9.3 8.8 1.9 32.4 3.3 38.1 8.9 6.6 6.5 1.2 19-4.4 24.4-4.8 4.6-16.5 7.7-23.1 8.9-1.8.3-5.2-.4-6.2.3-1 .6-9.7 17.6-12.2 19.8v-.1Zm21-35c6.6 1.5 21.8-7.1 8.2-8.7-7.2-.8-7.1 2.3-8.2 8.7" class="outline" data-original-prefix="outline"/><path id="outline-ear-rt2" fill="#000000" d="m1695 240-22.5 39c-48.9 30.3-87.3 71.3-110.7 124.3-14.5 32.8-25.8 88.9-11.3 122.7 1.2 2.9 6.7 10.6 6.3 12.3-21.1 26.6-32.9 59-41.6 91.5-2.4 8.9-8.5 47.6-11.4 51.6-2.7 3.7-14.2 13.2-18.4 16.6-14.8 12-38.3 27.6-55.4 35.6-2.5 1.2-5.2 2.5-8 2.5 2.8-6.9 6.8-13.1 9.5-20 11-27.9 12.1-62.7-8-87-11.8-14.3-18.7-10.9-25.3 4.8-9.5 22.7-13.4 49.6-13.9 74-42.8 42.2-76.4 95.5-104.5 148.6-12.4 23.3-33.8 63.7-30.8 90.2.6 5.4 4.2 10.1 5 15.5-2.4 2.5-27-19-28.8-22.7l2.3-31.3c45.3-56.5 66.2-125.3 105.1-185.9 11.6-18 28.4-31.6 37.6-51.4 8.3-18 20.6-75 17.4-93.7-.7-4.3-10.6-27.8-9.6-28.9 7.5 2.8 14.7 6.9 21.7 10.8 6.4 3.6 31.7 17.7 34.8 22.2 3.4 5 10 27.9 12 35 2.3 8.3 6.6 35 11.4 39.5 13.2 12.3 30.8-13.9 36.2-23.9 25.8-47.2 33.3-96.7 25.7-150.1-1.2-8.7-7.4-28.3-6.7-35.9s16.9-39.6 21.3-47.8c22.4-41.7 46.9-64 80.1-96 8.8-8.5 21.4-24 30.5-30.5 5.6-4 14.3-6.6 20.3-10.7 3.6-2.5 26.3-23.9 29.7-20.8 0-.1 0 0 0 0Z" class="outline" data-original-prefix="outline"/>
    </g><g class="trait-group" data-category="left ear" id="left ear-cracked">
      <path id="fill-ear-lft" fill="#ffffff" d="m752 993 3-3-53.9-36.7 23-48.7c-.3-1.7-25.8-15.7-28.6-19.7-5.5-7.9 5.5-19.8 7-28-20.2-21.9-39.9-44.5-62.5-64-3.2 11.8-7.8 25.1-13.8 35.7-.5.9.4 1.7-1.5 1.1-14.2-7.6-29.1-14-43.3-21.7-19.6-10.6-58.5-31.1-72.8-46.2-27.5-28.9-52.5-61.9-79.7-91.3L379.4 549c-6.2-63.5-19.6-125.9-35.4-187.6-6.4-25-20.4-60.6-22-85-1.5-24.5-1.3-48.4-1.9-72.1-.1-3.8-2.9-15.6 0-18 1.6-1.3 13.8-5.5 16-5.1 34.7 16.9 71.1 30.5 105.7 47.4 50.9 24.8 99.7 57 150.3 82.7 38.7 39.9 85 75.9 123.1 115.9 24.1 25.3 45.6 55.7 69.5 81.5 10.7 66.2 14.2 133.5 20.7 200.3l82.8 169.2-33.4 54.7c-8.6 11.6-42.3 33.3-55.9 41.1-8.3 4.8-25.9 11.6-34.7 14.9-3.6 1.3-8.1 3.5-12 3.9Z" class="fill" data-original-prefix="fill"/><path id="shading-ear-lft" fill="#aaaaaa" d="M546.1 369.9c-4.9-11.5 3.5-11.7 10.8-16.4 3.7-2.4 19.4-12.5 21.1-14.9 2.1-2.9 4.7-12.6 4-16-1.2-6.3-14.1-5.9-18.4-6.6-24.9-4.1-55.8-9.7-79.6-17.4-11.6-3.8-23.1-10.4-34.8-14.4-2.1-.7-11 8.7-11.2 9.4-.3 1.5.9 1.6 1.6 2.3 7.9 7.4 22.6 14.2 31.9 22.1 7.1 6.1 14.7 14.9 21 22 7.3 8.2 19.8 27.4 27 33 11.8 9.3 31.4 14.5 45 26 1.5 1.3 6.5 6 4.5 8-3.9 3.9-32.2-15.7-37.5-18-4.3 0 2.5 5 2 7-5-1.8-15.8-12.4-20.2-12.8-2.2-.2-9.2 4.6-7.3 6.8 1.5-.1 2.7-1 4.2-.8 7 .7 37.8 28.3 44.3 34.8 2 1.9 12 12.3 12.3 13.8.5 2-.9 3.8-.8 5.7.8 13 2.9 26.1 3.9 39.1 1 12.4.1 41.2 4.8 51.2 1.3 2.9 4 3.1 5.3 4.7 3.1 4-7 13.2-11.7 13.5-9 .6-24.8-4.2-34.9-5-2.3-.2-4.7 0-7 0-2 3.2 1.5 4 4 5 7.7 3.2 33.1 7.9 41.1 7 7.4-.9 7.3-7.3 12.5-11l19 48c0-9.5 2.2-20.1 1-29.5-.5-3.9-7.2-16.5-5.6-18.5.8-1.1 23-5.9 26.4-6.6 6.9-1.4 32.4-6.6 37.5-5.1 2.3.7 15.5 17.2 16.7 20.2 6.3 15.2 10.3 40.2 15.7 57.3 28 89.6 70.8 173.1 130.3 245.7 7.6 9.3 36.2 38.8 38.5 47.5 3.1 11.7-7.4 26.7-15.5 33.6-19.8 16.7-48.3 36.1-72.9 44.4-3.8 1.3-13.1 1.9-16.8.3L710 954.4l13.5-37.3c16.8 15.6 32.2 34.6 50.5 48.5 1 .8 1.3 2 3 1.5-3.2-13.1-2.5-27-4-40.5-15-22.6-34.3-41.7-51.5-62.6-1.8-3.5 4.3-7.8 3-10.9-5.3-6.7-10.5-13.7-15.3-20.7-6.2-9-21.1-27.5-24.7-36.3-6.1-14.9-7.5-36.4-12.8-52.2-1-3-1.5-5.8-4.2-7.8-.8 4.7 1.7 9.8 2.4 14.6 2.1 15.5 4.5 26.3 7.6 41.4 2 9.5 3.4 19.1 5.4 28.6 0 1.9-9.3 8-11 7-8.1-9.3-15.9-20.5-24.3-29.2-1.4-1.5-7.2-4.8-7.6-6-1-3.2 12.7-21.6 11.9-27.3-1.9.2-5.4-1.8-6.9-.9-1 .6-8 19.9-8.8 22.7-1.8 6-6.9 35.3-9.7 37.3-2 1.5-4.2 1.2-6.3.2-35-21.2-70.6-41.5-104.3-64.7l-22-24c.3-1.2 2.2-.3 3 0 8.3 3.3 24.2 15.6 33 21 20.7 12.4 44.2 26.2 66.2 35.8 8.8 3.8 17.8 8 27.7 6.8-1.7-5.2 15.4-34.7 14-36-35.5-1.8-70.1-17.8-99.5-37-17.3-11.3-24.8-17.3-36.7-34.3-32.7-46.7-58.4-103.5-75-158-3.1-10.1-8.3-25.3-9.7-35.3 0-.6-.3-1.6.5-1.5 14.4 26.7 27.1 57.2 45.3 81.7 4.8 6.5 11.5 16.2 20.2 16.3-.3-2.8 1.1-5.2.6-8-2.1-13.2-15.6-31.9-17.4-43.7-1-6.8 2.8-14.2 1.6-21.1-5.7-1.1-24.3-1.8-19.7-11.4 4-8.4 16-12.8 6.2-22.6l-42.9-30.1-38.5 25c.9-5-3.4-14.8-1.5-19 .5-1.2 14.6-15 16.6-16.4 4.5-3.4 9.3-5.5 14.9-6.1l-44-37c-2.6-6.9-7.6-26.6 5.5-16.5 14 10.9 28.1 22.9 41.5 34.5s25.6 24.6 39.5 35.5c.8.2.5-.8.5-1.5 0-4.5-4.5-25.4-6.2-29.8-4.6-12.1-20.6-26.7-24.3-37.7-5.5-16.1-8.1-31-15-48-10-24.6-22.3-54.6-33.7-78.3-1.4-3-8.3-11.2-7.6-14.1s3.7-4 6.6-3c3.9 1.4 11.2 6.4 15.2 8.8 12.3 7.4 23.9 16.2 35.8 24.2 9.7-3.9 24.1-12.3 34.8-10.7 8.2 1.2 30.2 14.2 39.9 18.1 12.1 4.8 27.2 8.9 40.2 9.8 4.7.3 14.4-1.2 17.5-.5 2.9.6 40.7 26.5 44.9 30.1 1.2 1 4.1 3 3.9 4.7-.2 2.7-9 14.5-11.3 16.7-3 2.7-31.4 21.3-34.5 22.5-1.9.7-3.8.9-5.8.4ZM659 772c-2.3-.4-1.6.1-2.2 1.3-1.2 2.3-5 11-4.8 13.1.5 4.9 9.7 13.7 13 17.6z" class="outline shading" data-original-prefix="shading" opacity="0.5" style="opacity: 0.5"/><path id="outline-ear-left" fill="#000000" d="M844 941c15.5-16.5 32.2-43.8 28.9-67.4-6.7-13.7-9.4-29.6-15.7-43.3-6-12.9-15.5-26.5-22-40-9.5-19.5-34.1-68-37-87-7.6-49.1-6.7-103.9-13.1-153.9-1.5-11.5-5.2-27.9-11.6-37.4-13.5-20.2-34.8-45.2-50.5-64.5-33.9-41.7-67.6-75.2-111.7-106.3-1.6-1.1-13.6-9.8-14.3-9.2-1.2 19.7-19.5 21.3-31.5 31-11.5 9.4-7.4 12.4-1.7 23.6 9 17.6 20.3 34.2 32 50.1-5.7 47.5 6 95 22.2 139.2l52-28c1 1.1-9.1 24.9-9.8 28.7-2.9 17 7 62.6 12.5 80 5.5 17.5 13.9 29.8 25.8 44.2 45.9 55.8 63.5 122.1 103.3 180.7 3.7 5.5 18.5 23.3 19.2 27.8.4 2.9-.3 6 0 8.9.6 4.9 3.1 17.6 1.5 21.5-1.4 3.2-26.3 24.1-28.5 22 .6-4.8 4.2-9.9 4.9-14.6 4.6-33.1-34.5-99.7-51.7-129.1-18.9-32.3-44.1-69.1-69.2-96.8-2.6-2.9-13.1-11.6-14.1-13.2-2.1-3.6-.5-15.8-.9-20.8-1-13.7-9.9-51.7-17.6-62.4-10.8-15-26.2 8.7-29.3 19.2 21.2 32.6 47.1 67.2 53.7 106.4.8 5 .5 11.5 1.4 16.6 3 17.9 10 35.5 12.3 53.7l32 33c1.3 4.3-5.9 12.4-7.8 17.3-.6 1.5-2.3 6.4-1.7 7.5.5.9 14.3 10.5 16.9 12.7 2.7 2.3 13.6 11.5 13.8 14.2-8.8 14.5-14.1 30.7-19.7 46.6.6 2.3 16.1 12.2 19.2 13.9 19.4 10.5 30.2 13.7 52.3 8 6-1.5 11-4.9 17.4-5.1-8.4 8.7-23.5 14.3-35.7 18.8-16.9 6.2-30.8 10.7-48.3 2.8-6-2.7-10.1-9.7-15.6-12.4-2.4-1.2-4.6-.9-6.9-2.1-3.8-2-11.7-9.6-11.2-14.3 8.2-19.5 16.7-38.8 22.7-59.1-3.2-5.2-30.5-14.7-31.5-16.7-1.6-3.2 6.1-19 7.6-23.5.8-2.6 3.5-8.5 2.8-10.8-13.6-17.7-29-33.7-43.8-50.2-4.2 1.1-1.1 7.9-1 11 .4 14.2-.4 28.4 0 42.5-32.3-9.8-63.2-27-91.9-44.6-48.4-29.7-87.6-62.3-118.5-110.5-35.1-54.7-66.7-124.9-79.1-188.9-3.4-17.2-.6-13 2.4-27.6 5.1-24.9-5-87.6-15.4-111.4-6.4-14.6-18.5-21.4-22.2-37.8-2-8.9-3.4-20.6-4.3-29.7-3.1-32.8-8.7-94.9-1.3-125.3 1.7-7.2 1-10.7 9.5-9.9 30.4 2.9 86 26.2 115.8 38.3 62.2 25.3 145.8 69.1 198.4 110.6 15.7 12.4 35.3 35.4 49.2 50.8 39.5 43.8 77.3 92.8 110.1 141.9 3 4.4 4.7 3.6 5.4 10.6 2.1 21.1 1.2 43.6 3 65 4.4 51.5 12.5 128.1 42.2 170.8 3.6 5.2 8.8 10.1 12 15 7.4 11.4 13.7 33.5 20 47 8.3 17.9 19.8 31.8 20.8 52.2.2 3.2.5 7.5-.5 10.5-10.9 13-19.9 33.6-31.5 45.5-4.5 4.6-15 9.8-21 13-1 .5-3.5 2.4-4 .5ZM553 303c-19.8-11.4-38.6-24.7-58.3-36.2-25-14.6-52.7-29.4-78.6-42.4-28.2-14.1-56.9-26.9-87-36.4-2.4 25.4-1 51.1 2.1 76.3 1.6 12.7 3.6 27.3 6.1 39.9 4 19.6 14 30.2 20.7 48.3 3.8 10.2 11.3 46.2 15.9 51.1 8.2 8.5 19.3 16.7 28 25 9 8.5 42.3 43.8 50.5 46.5 2.5.8.8-1 .8-1.8-1.2-10.8-2.9-30.3-7.8-39.3-5.9-10.9-29.6-26.5-31.3-34.7-2.1-10.2 1.5-27.8 1.8-38.7.3-8.7-1-17.6 1-26.1-2.8-7.2.9-20-1.7-26.2-.5-1.3-13.7-11.4-16-13-7.8-5.6-16.5-9.8-23.9-16.1l-22.5-39c13 3.4 21.1 15.6 32.1 22.4 6 3.7 13.1 5.8 18.8 10.2 3.1 2.4 15.1 15.9 16.7 16.2 7.7 1.5 17-15.5 28.8-13.8 3 .4 14.5 8.1 18.9 10.1 21.2 9.7 53.9 17.5 77.1 18.9 1.6.1 6.8.8 7.5-1Zm5 97c-7.9-14.4-11.9-29-20.2-43.3s-25.9-42.9-41.6-48.4c-14.8-5.2-33.1-5.9-48-12-6.3-1.9-10.5 2.8-16.3 3.8 21 20.8 42.8 40.2 60.4 64.1 1.6 2.2 8 13.4 8.7 13.8.5.4 7-2.8 9.4-3 13.7-1 34.4 20.4 47.5 25Zm-8.7-43.3c2.8 2.7 7.1 3 10.7 1.9 1.2-.4 18.3-13.4 20-15 3.2-3.1 9.9-15.4 7.1-19.1-.3-.5-8.7-5.7-9.8-6.3-7.5-3.6-23.7-2.5-32.8-3.2-5.4-.4-11.1-1.4-16.5-2-.8.8 8.6 18 9.8 20.6 3 6.3 6.6 18.4 11.5 23Zm-.6 327.6c-1-1-3-1-4.2-2.3-2.4-2.7-9.6-43.6-11.6-51.4-8.5-32.9-20.2-65.6-41.8-92.3v-1.6c14.5-20 14.5-48.4 11.8-72.1C496.6 410.5 468 358.3 429 321l-.8 63.3c1.7 9.4 18 18.9 24.3 25.7 12.4 13.4 18.8 59.9 19.5 78.5.2 4.2.3 31.1-1 32.5-4.4-.1-22.9-10.9-24.9-4.4-.3 1.1 2.5 10.8 3.1 12.7 2.8 7.5 9.4 15.7 9.3 23.7-3.8-8-26.2-33.4-26.4-40.5-.3-13 24.3-5 25.9-15.1 1.4-8.8-6.8-9.4-12.7-13.2-7.3-4.7-13.8-11.8-21-17-3.1-2.2-13.1-9.4-16.1-10-8.6-1.7-20.1 11.1-28 14-2 25.6 5.3 50.6 12.1 75 19.8 71.4 48.5 126.6 98.2 181.8 32.5 36.1 59.6 49.1 100.2 72.8 11.8 6.9 22.8 15.6 35.3 21.2.5-11.8 3-22.4 7-33.5 4.2-11.8 18.5-34.5 20-44 .5-3.1.2-6.1-.7-9.2-2.5-8.5-18.4-31.3-23.7-41.3-6.3-11.7-12-23.9-17.5-36l-2 7.5c-1.2 18.7.6 32.5 7.3 49.8 2.8 7.2 6.5 13.8 9.7 20.8-1.1 1-13.5-5.7-15.7-6.8-22.8-12.2-43.5-26.7-61.6-44.9Zm-22.6-146.4c12.6 3.8 28.2 5.4 41.4 4.2 8.9-.8 16-12.1 19.5-19.5-4.7-22.5-3.6-47.3-9.8-69.3-2.8-9.8-6.8-20.8-10.8-30.2-15.3-9.9-30.8-24.7-46.5-33.5-3.9-2.2-7.2-4.4-11.9-3.6-.2 1.4 0 2.6.6 3.9 2.3 6.3 9 15.7 12.3 22.7 2.8 6 13.3 28.2 13.9 33.1.8 6-5.5 28.1-6.7 35.9-1.7 12.3-3.2 28.6-3.2 40.9s1.7 10.2 1.2 15.4M404 445c.5-3.9-3.8-5.8-6-8.5L375 419c2.4 12.5 3.6 25.2 4 38 8.3-3.9 15.5-10.8 25-12m122 102c.7 6 1.4 11.9 2.7 17.8 5.1 22.8 24.3 79.3 45 91 10.2 5.8 17 3.1 20.6-8 1.7-5.4 7.7-29.6 7.7-34.3 0-6.1-3.8-19.1-4.8-26.2-2.5-16.4-5.2-32.8-7.2-49.3-4.5 4.7-9.6 11.8-16.5 12.9-7.6 1.2-45.7-5.7-47.4-3.9Zm147 263c-3.9-6.4-8.6-51.9-11-53.5-1-.7-1.9-.5-3-.5-.2 7.4-9.1 21.8-7.8 28.2.7 3.8 5.8 10.5 8.3 13.8 1.7 2.2 11.1 13.8 13.5 12" class="outline" data-original-prefix="outline"/>
    </g><g class="trait-group" data-category="head" id="head-rocker-hat">
      <path id="fill-head" fill="#ffffff" d="M1479 1181c-1.4 1.6 9 18 10.5 21 3.6 7 12.4 22.2 14 29 .7 3 .5 6 .5 9-2.7 0-5.4.5-8-.5-4.8-1.9-21.6-15.1-26.9-19.1-7.9-5.9-23.4-21.4-31.2-24.8-1.3-.6-2.5-.7-3.9-.5 8.3 32.3 19.6 64.1 31 95.5 21.7 60.1 41 115.2 78.2 167.8 5.9 8.3 16.7 17 15.8 27.7-8.5.9-16.7-3.7-24.4-7.1-9.6-4.3-19.7-11.1-28.9-15.1-1.2-.5-2.3-1.1-3.7-.8 8.1 21.2 19.5 39.8 22.9 62.6 3 20.1 2.8 40.7 4.1 60.9 2.7 39.8 5.6 79.6 6 119.5l-7.1-.6c-10.9-25.4-21.8-50.9-34-75.7-11.6-23.7-23.7-48.3-39.9-69.1l-21-23.5 5 54.4c1.7 44.5-1.8 66.9-18.6 107.5-16.6 40-38.3 82.9-58.9 121.1-1.4 2.5-9.6 17.9-10.5 18.5-1.8 1.1-4.9.3-7 .5-.6-17.2 1.2-34.3 1.1-51.6-.3-45.6-3.2-92.7-12.5-137.5l-3.5-11c-3 27.8-7.2 55.7-13.5 83-6.6 28.7-12 43.5-30.1 66.9-13.3 17.2-36.3 42.3-52.9 56.1-3.1 2.6-21.7 15.8-24.4 16.6-2.3.7-4.7.5-7.1.5-1.8-1.8 5.1-37.9 5.9-43.7 4-30.8 8.8-86.1-4.7-114-1.6-3.4-4.5-7.2-6.7-10.3-3.6 20.9-5.7 37.6-17.1 55.9-23.8 38.1-64.8 67.2-99.8 94.2l-7.6.9c-.2-16.6 3-33-3.6-48.9l-42.9-46.1-42.3 46.7c-6 15.8-3.1 31.8-3.2 48.3h-3.5c-4.4-.2-17-10.3-21.4-13.6-28.8-21.5-78-63.5-90.8-97.2-4.8-12.7-5.9-27-8.2-40.3-2.6 2.3-5.3 6.6-6.8 9.7-13.9 27.9-9 83.7-5 114.7.7 5.7 7.7 41.9 5.9 43.7-3.2.3-5.4 0-8.3-1.2-20.7-8.8-61.6-53.3-76-71.9-18.1-23.3-23.5-38.2-30.1-66.9-6.3-27.3-10.5-55.2-13.5-83l-3.5 11c-9.3 44.7-12.2 91.8-12.5 137.5 0 17.2 1.6 34.3 1 51.6-2.5-.2-5.5.8-7.5-1-19.2-36.6-39.1-73.1-56.3-110.7-12.5-27.3-29.4-62.8-31.2-92.8-1.9-32.1 1.9-65.7 5-97.5l-21 23.5c-16.2 20.8-28.3 45.4-39.9 69.1-12.2 24.8-23.2 50.3-34 75.7l-7.1.6 2-67.5c4.5-37 2.6-76.2 8.1-112.9 3.4-22.8 14.8-41.4 22.9-62.6-1.4-.3-2.5.2-3.7.8-9.3 4-19.3 10.8-28.9 15.1-7.7 3.4-15.8 8-24.4 7.1 0-2.1-.3-4.2.2-6.3 1-4.2 27.3-37.9 32.2-45.8 28.4-45.5 48.6-106.4 66.6-157.4 9.5-26.8 19.1-53.9 26-81.5-2.2-.4-3.4.4-5.2 1.3-9.1 4.9-20.6 17-29.4 23.6-4.8 3.6-25.9 19.2-30 20-1.7.3-3.7 0-5.5 0-.9-5.8.8-9.6 2.8-14.7 3.4-8.5 9.3-19 13.7-27.3 1.3-2.5 9.9-15.4 8.5-17-46-14.2-91.3-31.7-134.4-53.2-37.6-18.7-78.1-46.9-112-72-19.6-14.6-40.6-31.4-47-56-2.5-9.7.1-7.9 2.1-15.5s.4-12.5 7.7-19.3c26-24.1 118-17.8 153-17 57.1 1.4 112.8 4.5 170 1 7.6-.5 18.8-.7 26-2 2.5-.5 3.7-2.3 4.5-4.5 2.4-6.9 4.5-40.2 6.2-42.2 6.3-.6 11.4-4.5 16.8-6.7 4.7-1.8 13.5-1.7 15.7-7.3 18.1-80 40.5-159.4 69.9-236l40.3-28.9c6.6.8 12.9 2.9 19.5 3.6 24 2.5 52.3 2.1 77 3 115.7 4.6 228.4 3.6 344.1-3 4.3-.2 8.6.3 12.9 0s15-3.9 17.2-3.8c2.4 0 36.3 24.3 39.5 27.4 5.3 5.3 14.2 33 17.2 41.8 22.3 63.7 39.5 130.3 55 196 2.6 5.8 11.5 5.6 16.5 7.5 4.8 1.9 10.6 5.4 15.7 7.3 4.2 12.7 2.4 29.1 6.6 41.4.6 1.8 1.2 3 2.9 4 23.7 2.9 47.6 2.8 71.5 3.5 69.6 1.9 139.3-6.2 209-3 20.9 1 70.6 5.5 77 30 .7 2.6 0 5 .7 7.3 1.1 4.6 3.4 6.2 2.8 12.2-3.5 33.5-53.4 62.1-78.3 79.7-19.6 13.8-38.6 28.7-59.7 40.3-48.9 26.6-103.2 47.4-156.2 64.2Zm-733 45-3 .7c-18.6 25.8-37.7 51.7-53.1 79.7-6.8 12.4-18.1 33-20.6 46.4-3 16.2 3.2 50 6 67.5 2.1 13 6.3 25.7 6.7 38.8 7.3.6 4-.3 5.2-4.3 1.2-3.7 6.9-4.7 10.2-3.8 1.4.4 3.5 23.2 3.7 26.5.5 10.3-2.2 32 1.9 40.1.9 1.8 8.7 12 10.1 12.9 4.2 2.8 12.3 1.1 17.4 1.6 10.9 1.1 18.6 10.9 22.7 20.3 5.9 13.7 6.9 27.6 10.3 41.7 4.2 17.6 17.4 30 28 44l24 20.9c2.3-12.7.5-25.4 4-38 1.4-5 2.3-9.1 8.9-6.8 1.3.4 5.5 13.1 7.8 16.2 6.7 9.1 19.9 9.7 29.5 13.5 15.9 6.3 14.1 30.9 26.3 41.7 10.3 9.1 43.9 25.3 57.5 30.5 14.8 5.7 59.6 19.6 74.1 20 9.2.2 35.5-7.4 45.7-10.3 23.7-6.8 68.1-23.8 86.7-39.3 10.8-9 12.4-32.7 22.2-39.8 7.9-5.8 24.2-6.6 31.4-12.6 5.6-4.6 8.7-19.3 9.6-19.9.6-.4 7-.4 7.7 0 1.6 1 4.9 17.4 5.2 20.3.6 7-1.1 15.3 1 22 .3 1.1-.7 1.8 1.5 1.4 14.9-11.8 28.5-25 39.3-40.7 14.7-21.3 11-34.1 18.5-56.5 3.3-9.8 11.1-25.3 21.9-28.1 5.7-1.5 17.4.3 21.8-2.2.8-.4 10.2-12.7 10.5-13.5.8-2.4 1.4-13 1.6-16.4.7-14.5-1.2-32.7 2.2-46.8.9-3.8 4.4-3.6 8-2.5 5.4 1.6-.9 10.2 7.7 7.8.4-13.1 4.6-25.8 6.7-38.8 2.8-17.1 8.9-50.7 6.2-66.6-2.7-15.6-16.6-40.1-24.7-54.3-14.6-25.7-32.5-49.4-49.7-73.3-4.1-1.3-2.2 5.4-2.5 8.5-2.7 28.2-7 60.9-21.5 85.5-3.1 5.2-3.4 6.9-10.5 6-.2-28-.2-59.8-13.1-85.4-1.2-2.4-2.2-4.8-5.4-4.7-43.7 8-87.7 14.9-132 19.1-65.3 6.2-125.7 6.2-191 0-44.6-4.2-88.9-11.3-133-19-2.7.4-3.7 3.1-4.7 5.3-12.5 26.3-13.3 56-12.8 84.7-6.4.6-6.8.2-9.8-4.7-12.7-20.4-16.9-45.4-20.1-68.9-1.2-8.7-2.2-17.6-2.2-26.4" class="fill" data-original-prefix="fill"/><path id="fill-head1" fill="#ffffff" d="M1479 1181c-1.4 1.6 9 18 10.5 21 3.6 7 12.4 22.2 14 29 .7 3 .5 6 .5 9-2.7 0-5.4.5-8-.5-4.8-1.9-21.6-15.1-26.9-19.1-7.9-5.9-23.4-21.4-31.2-24.8-1.3-.6-2.5-.7-3.9-.5 8.3 32.3 19.6 64.1 31 95.5 21.7 60.1 41 115.2 78.2 167.8 5.9 8.3 16.7 17 15.8 27.7-8.5.9-16.7-3.7-24.4-7.1-9.6-4.3-19.7-11.1-28.9-15.1-1.2-.5-2.3-1.1-3.7-.8 8.1 21.2 19.5 39.8 22.9 62.6 3 20.1 2.8 40.7 4.1 60.9 2.7 39.8 5.6 79.6 6 119.5l-7.1-.6c-10.9-25.4-21.8-50.9-34-75.7-11.6-23.7-23.7-48.3-39.9-69.1l-21-23.5 5 54.4c1.7 44.5-1.8 66.9-18.6 107.5-16.6 40-38.3 82.9-58.9 121.1-1.4 2.5-9.6 17.9-10.5 18.5-1.8 1.1-4.9.3-7 .5-.6-17.2 1.2-34.3 1.1-51.6-.3-45.6-3.2-92.7-12.5-137.5l-3.5-11c-3 27.8-7.2 55.7-13.5 83-6.6 28.7-12 43.5-30.1 66.9-13.3 17.2-36.3 42.3-52.9 56.1-3.1 2.6-21.7 15.8-24.4 16.6-2.3.7-4.7.5-7.1.5-1.8-1.8 5.1-37.9 5.9-43.7 4-30.8 8.8-86.1-4.7-114-1.6-3.4-4.5-7.2-6.7-10.3-3.6 20.9-5.7 37.6-17.1 55.9-23.8 38.1-64.8 67.2-99.8 94.2l-7.6.9c-.2-16.6 3-33-3.6-48.9l-42.9-46.1-42.3 46.7c-6 15.8-3.1 31.8-3.2 48.3h-3.5c-4.4-.2-17-10.3-21.4-13.6-28.8-21.5-78-63.5-90.8-97.2-4.8-12.7-5.9-27-8.2-40.3-2.6 2.3-5.3 6.6-6.8 9.7-13.9 27.9-9 83.7-5 114.7.7 5.7 7.7 41.9 5.9 43.7-3.2.3-5.4 0-8.3-1.2-20.7-8.8-61.6-53.3-76-71.9-18.1-23.3-23.5-38.2-30.1-66.9-6.3-27.3-10.5-55.2-13.5-83l-3.5 11c-9.3 44.7-12.2 91.8-12.5 137.5 0 17.2 1.6 34.3 1 51.6-2.5-.2-5.5.8-7.5-1-19.2-36.6-39.1-73.1-56.3-110.7-12.5-27.3-29.4-62.8-31.2-92.8-1.9-32.1 1.9-65.7 5-97.5l-21 23.5c-16.2 20.8-28.3 45.4-39.9 69.1-12.2 24.8-23.2 50.3-34 75.7l-7.1.6 2-67.5c4.5-37 2.6-76.2 8.1-112.9 3.4-22.8 14.8-41.4 22.9-62.6-1.4-.3-2.5.2-3.7.8-9.3 4-19.3 10.8-28.9 15.1-7.7 3.4-15.8 8-24.4 7.1 0-2.1-.3-4.2.2-6.3 1-4.2 27.3-37.9 32.2-45.8 28.4-45.5 48.6-106.4 66.6-157.4 9.5-26.8 19.1-53.9 26-81.5-2.2-.4-3.4.4-5.2 1.3-9.1 4.9-20.6 17-29.4 23.6-4.8 3.6-25.9 19.2-30 20-1.7.3-3.7 0-5.5 0-.9-5.8.8-9.6 2.8-14.7 3.4-8.5 9.3-19 13.7-27.3 1.3-2.5 9.9-15.4 8.5-17-14.1-4.3-28.1-9-42.1-14 0 0 278.3 95.7 511.9 83.4 209.5-11 348.6-47.2 438.2-76.1l1.7 6.4zm-733 45-3 .7c-18.6 25.8-37.7 51.7-53.1 79.7-6.8 12.4-18.1 33-20.6 46.4-3 16.2 3.2 50 6 67.5 2.1 13 6.3 25.7 6.7 38.8 7.3.6 4-.3 5.2-4.3 1.2-3.7 6.9-4.7 10.2-3.8 1.4.4 3.5 23.2 3.7 26.5.5 10.3-2.2 32 1.9 40.1.9 1.8 8.7 12 10.1 12.9 4.2 2.8 12.3 1.1 17.4 1.6 10.9 1.1 18.6 10.9 22.7 20.3 5.9 13.7 6.9 27.6 10.3 41.7 4.2 17.6 17.4 30 28 44l24 20.9c2.3-12.7.5-25.4 4-38 1.4-5 2.3-9.1 8.9-6.8 1.3.4 5.5 13.1 7.8 16.2 6.7 9.1 19.9 9.7 29.5 13.5 15.9 6.3 14.1 30.9 26.3 41.7 10.3 9.1 43.9 25.3 57.5 30.5 14.8 5.7 59.6 19.6 74.1 20 9.2.2 35.5-7.4 45.7-10.3 23.7-6.8 68.1-23.8 86.7-39.3 10.8-9 12.4-32.7 22.2-39.8 7.9-5.8 24.2-6.6 31.4-12.6 5.6-4.6 8.7-19.3 9.6-19.9.6-.4 7-.4 7.7 0 1.6 1 4.9 17.4 5.2 20.3.6 7-1.1 15.3 1 22 .3 1.1-.7 1.8 1.5 1.4 14.9-11.8 28.5-25 39.3-40.7 14.7-21.3 11-34.1 18.5-56.5 3.3-9.8 11.1-25.3 21.9-28.1 5.7-1.5 17.4.3 21.8-2.2.8-.4 10.2-12.7 10.5-13.5.8-2.4 1.4-13 1.6-16.4.7-14.5-1.2-32.7 2.2-46.8.9-3.8 4.4-3.6 8-2.5 5.4 1.6-.9 10.2 7.7 7.8.4-13.1 4.6-25.8 6.7-38.8 2.8-17.1 8.9-50.7 6.2-66.6-2.7-15.6-16.6-40.1-24.7-54.3-14.6-25.7-32.5-49.4-49.7-73.3-4.1-1.3-2.2 5.4-2.5 8.5-2.7 28.2-7 60.9-21.5 85.5-3.1 5.2-3.4 6.9-10.5 6-.2-28-.2-59.8-13.1-85.4-1.2-2.4-2.2-4.8-5.4-4.7-43.7 8-87.7 14.9-132 19.1-65.3 6.2-125.7 6.2-191 0-44.6-4.2-88.9-11.3-133-19-2.7.4-3.7 3.1-4.7 5.3-12.5 26.3-13.3 56-12.8 84.7-6.4.6-6.8.2-9.8-4.7-12.7-20.4-16.9-45.4-20.1-68.9-1.2-8.7-2.2-17.6-2.2-26.4" class="fill" data-original-prefix="fill"/><path id="fill-head2" fill="#ffffff" d="M669.8 911.2c.4.3.8 2 1.7 2.8 195.8 157.6 494.8 165.6 694 9 2.7-2.2 12.2-11.6 14.1-11.9 2.6-.5 10-.8 11.3 1.7 1 2 3 15.8 3.2 18.8.5 7.3 1 23.1 0 30-.8 5.6-16.6 19.2-21.6 23.4-174 150.2-512.5 150.2-690 6-5.2-4.2-26.4-22.2-28-27-1.4-4.1-1.7-14.8-1.6-19.5 0-7.2 1.6-23.7 3.7-30.3.4-1.2.6-2.6 2-3 1.1-.5 10.3-.5 11.1 0Z" class="fill" data-original-prefix="fill"/><g id="shading-head" class="shading" fill="#aaaaaa" style="opacity: 0.5" opacity="0.5"><path id="shading-head2" fill="#aaaaaa" d="M637 1445.5c1.1-8.1 8.5-17.7 11-25.5 4 0 4.1 4.9 5.8 7.7 4.8 7.8 9.9 12.1 18.2 16.3-5.9-22.3-18.5-43.1-12.2-66.8 7.6-28.7 40.8-82.9 57.1-109.9 1.7-2.8 4.9-9.1 7.1-10.9 3.4-2.8 8.8-3.8 6.3 2.3-15 32.1-41.3 65.1-52.7 98.3-2.7 7.8-.5 13.2-1.6 20.4-.5 3.1-2.6 6.1-2.9 10.1-.8 8.9 2.8 14.3 3.9 22.1 1.5 10.3 1.2 29.7 5.3 38.7 3.6 7.9 14.6-4.1 17.5 4.5 2 5.8 1.7 18.7 2.4 25.6 1.1 11.2 2.1 22.7 4 33 1.6 8.5 1.4 14.3 10.5 18.5 11.2 5.2 18.5.9 27.8 13.2 18.3 24.2 16.6 60.8 40.1 86.9 9.4 10.5 18.4 14.6 28.5 22.5.9.7 1.5 2.4 2.5.5 3.2-5.8-2.6-9.3-2.6-12.5 0-4.9 4.7-3.8 5.1-5.2.5-1.5 1.2-8.1 1-9.8-.3-3.6-2.7-5.3-2-9.9.3-2.1 6.3-11.9 8.4-11.5 6.6 7.9 10.3 20.2 17.6 27.5 9.3 9.4 24.5 10.9 34 22 8.7 10.2 12.7 29.8 22.7 36.3 17.1 11.2 40.1 18.7 57.3 30.7 6.2 1.7 12.3 3.8 18.6 5.4 10.4 2.8 38.7 11 47.9 11.2 8.6.2 39.6-8.6 49.7-11.4 17.1-4.6 38.6-11 54.5-18.5 4.8-2.3 19.6-9.9 23.3-12.7 4.9-3.7 12.4-23 15.3-29.7.9-2.1.7-4.4 1.6-6.4 7.4-16.6 33.6-12 43.4-29.6 2.1-3.9 8.5-24 11.3-24.7 2-.5 8.2 9.5 8.5 11.6.7 5.3-3.3 9.3-3.8 13.1 0 .7.6 7 .8 7.2.5.5 6.5-1.2 7 3.6.5 5.6-5.2 5.2-5.9 7.1-1.2 3.3.2 8.9.4 12.4 2.4-2.7 7.1-9.4 9.9-11.1 2.7-1.6 4.9-1.1 8.5-3.5 14-9.7 31.8-33.1 38.1-48.9 6.4-16 9.5-48.2 23-58 10.2-7.3 27.8-3.6 31.7-18.3.8-3.1.8-11.6 1.7-13.3 1.6-2.7 6.8-.5 7.5-4.5 2.6-13.2-7.2-34.2-2-48 3.2-8.4 14.4.8 17.4-4.6 4-7 4.4-30.4 5.7-39.3 1-7 4.4-13.6 3.9-21.1-.3-3.9-2.5-7.6-2.9-11.1-.9-7.3 1-12.7-1.6-20.4-11.4-33.2-37.7-66.2-52.7-98.3-2.5-5.9 2.7-5.2 6.2-2.2 1.5 1.3 3.2 4.7 4.5 6.5 11 16.3 23.1 39.6 32.8 57.2 8 14.7 27.3 48.9 28.8 64.2 1.9 19.4-9.1 41.8-15 60 5.7-2.2 12.9-7.6 16.4-12.6 1.3-1.8 5.9-13.9 8.6-11.9 1.2.8 11 24.2 11 26.5v23.5c14.9-10.9 38.1-38.8 39.9-57.6.6-6-2.1-11.6-.4-17.4 3.2 2.3 6.2 10.2 8.9 12.1 2.5 1.8 7.1-.3 6.6 4.4-.3 3.1-3.8 3-4.1 4.2-2.1 9-1.5 22.2-3.1 31.7-2.7 16.3-23.5 39.8-34.4 52.6-5.2 6.1-27.4 32-32.8 34.2-1.9.8-4.9.4-5.6.9-1.1.7-5.6 20.3-7.9 24.6-1.7 3.2-16.1 19.8-18.6 19.3-6.7-10.7-9.9-25.2-17.7-35.3-.6-.8-1.6-2.6-2.8-1.7-1.4 1-6.3 28.9-7.8 33.8-6.5 21.8-18.9 35.7-33.8 52.2-13.8 15.4-28.9 29.8-43 45-2.3.4-1.4-1-1.5-2.5-.2-3.4.6-7.2-.5-10.5-8.5 9.2-18.2 17.4-29.5 23l-1-34c-12.9 3.3-25.6 7.8-37.7 13.3l-13.8 30.7c-44.8 26.2-96.8 40.5-146 57-40.7-13.1-84.2-25.8-123.1-43.8-4.7-2.2-20.6-9.5-23.4-12.6-4-4.5-8.3-21-12.4-27.6-1.2-1.9-1.7-3-3.6-4.4-3.3-2.5-29-11.5-33.7-12.4-.7 0-1.5-.4-2.2-.2.3 1.2-1 2.9-1 3.5v30.5c-11-5.3-19.9-13.7-29.5-21-1.1 2.5-.3 5.8-.5 8.5 0 1.5.8 2.9-1.5 2.5-10.4-10.6-20.9-21.1-31-32-16-17.2-34.8-35.6-43.2-57.8-5-13.3-7-27.4-10.3-41.2-1.7-1.6-7.4 8.9-8.2 10.3-4.8 8.6-7.4 18.2-12.4 26.7-3.3.7-17.7-17.5-19.6-21.3s-7-21.8-8-22.5c-.7-.5-3-.2-4.5-1-6.8-3.5-27.5-27-33.8-34.2-7.1-8.1-14.3-16.6-20.9-25.1-3.1-4.1-16.5-21.2-17.4-24.6-1.5-5.6 2.1-5.6 2.8-8.8.5-2.8.2-8.9 0-12 0-2.5-.6-12.2-1-13.8s-5.4-1.7-3.9-6c.3-1 14-12.4 15.9-14.7.9 5.5-1.2 11.1-.9 16.3 1 16.9 22.3 42.1 33.9 54.2 1.6 1.6 3.6 4.4 6 4.5.5-7.7-1.3-17.1-.3-24.5z" class="outline shading" data-original-prefix="shading" opacity="0.5" style="opacity: 0.5"/><path id="shading-head3" fill="#aaaaaa" d="M614 1535c.5 10.4 2.5 20.9 4.3 31.2 1.1 6.2 3.9 13.8 4.6 19.4 1.6 12.3.3 28.2 1.1 40.9 1.7 26.6 4.8 40.2 15.8 64.2 13.7 29.6 32.5 56.5 49.2 84.3 1.5 0 1.4-3.5 1.7-4.8 3.3-17.3 5.2-34.7 8.8-52.2 2.4-11.6 5.5-30 9.4-40.6.4-1 .6-3 2.1-1.4.4.4 2.3 9.5 3 11.5 7.6 22 18.3 41.3 28.3 62.2 23.2 18.4 47.5 35.6 73.4 50.1l2.3.2c3.4-28.8 8.9-57.8 19-85 6.7 2 11.3 7.2 18.6 7.9 1.5.2 3.7-1.2 4.2-.8 1.1.7 9.8 12.9 12.1 15.4 9.7 10.5 22.5 22.3 33.5 31.4 18.8 15.6 39.6 28.5 61.2 39.9 1.6.2 1.9-1.1 2.5-2.2 4.2-7.6 5.9-18.8 10.3-26.7l38-18-12.1 15.9c-7 2.1-4.2 3.1-6.6 7.4s-8.3 8.1-10.2 12.8c-6.5 16.2-.6 40.8.3 57.8-7.8-2.3-15.4-5-22.5-9-15.9-9-35.8-24.2-50.4-35.6-14.2-11.1-44.2-34.5-53.1-48.9-4-6.5-4.4-17-12-21.5-4.3 11.9 2.6 22.2 3.9 32.6 2.8 22 2.4 46.2 5.2 68.8 1.8 14 3.6 27.5 8.9 40.6-.9.8-17.4-7.4-19.9-8.6-10.3-5.3-29.1-13.9-37.6-20.4-11.6-8.8-25.7-24.2-36-35-17.3-18.1-33.9-37.1-48.9-57.1-9.5-3.9-9.3 2.5-10.4 9.7-4.5 29.6-4.1 60.6-6.6 90.4-31-36.4-55-78.2-75.9-121.1-17.9-36.8-41.5-90.5-40.7-131.4 0-3.8 2.5-8.3 0-11.9-1.8-2.6-7.6-2.4-9.4.5-22.8 36.4-40 75.9-60.4 113.6-3 5.6-8.4 16.1-12.3 20.7-.9 1-1 2.1-2.8 1.7l-3.5-157c1.3-2.7 5.9-2.6 8.1-1.1 1.5 1.1 5.3 14.2 5.5 16.6.4 4.6-1.5 10.5-1.1 16 .5 7.6 4.2 16.3 8.2 22.8.8 1.2 3.1 5.8 4.8 4.7 13.1-21.8 27-43.7 43-63.5 7.5-9.3 27.9-32.3 38-37 1.2-.4 1.9-.6 3.1-.4" class="outline shading" data-original-prefix="shading" opacity="0.5" style="opacity: 0.5"/><path id="shading-head4" fill="#aaaaaa" d="M677 912c-3.2 6.4-5.8 13-7.5 20-1.3 5.5-5 23.3-2.5 27.6 42.6 45.2 97.7 78.8 151.4 109.6 3.8 2.2 18.4 8.8 20.2 10.8 6.1 6.5-4.5 6.9-8.5 3.1 0 2.8.8 5.4-2.5 6-21 3.9-70.7-17.8-91.2-26.8-42.4-18.7-83.9-40.2-121.1-67.9-86.6-15.8-174.3-25-261.2-38.8l-9-2.5 30.5-2c57.7-2.3 115.4.9 173.1 0 14.1-.2 32.2-2.9 46-2.1 7.4.4 42.7 13.5 44.4 12 2.2-15.7 5.6-55.5 19.1-65.4 5.2-3.8 16.8-3.4 19.5-9.5 12.4-55.8 28.7-110.6 47.5-164.5 6.9-19.8 15.6-49.3 24.8-67.2 4.8-9.2 18.1-16.9 26.2-23.3.4 4.7-.6 9.2-1.7 13.8-6.4 26-20.2 56-28.5 82.5-14.8 46.8-33.9 107.8-37.6 156.4-.2 2.2-.5 4.2.4 6.3s14.2 13.7 17 16c30.4 25 73.7 46.2 109.8 62.2 59.9 26.6 123.9 41.5 185.8 62.2 2.3 2.7.2 4.7-2.7 5.3-97.8-5.5-193-33.1-276.3-84.3-12.8-7.9-36.2-26.8-48.3-31.7-6.1-2.4-12.8-.3-17.1-7.9Z" class="outline shading" data-original-prefix="shading" opacity="0.5" style="opacity: 0.5"/><path id="shading-head5" fill="#aaaaaa" d="M1409.1 961c1.9 1.3 37.1-11.6 44.4-12 13.8-.8 31.8 1.9 46 2.1 63.7.9 127.5-3 191 1l12.5 2c-89.6 14.6-180.1 24-269.5 40.1-45.6 32.2-97.1 59.5-149.3 79.7-14.4 5.6-34.8 13.3-50 15-5.8.6-18.7 2.8-16.2-5.7-4.7 3.1-13.4 5.2-8.5-3.1 60.6-34.3 123.5-69.2 171.6-120.4 2.2-3.8-1.2-20.6-2.4-25.7-1.8-8.1-4.3-14.4-7.7-21.8-4.5 7.4-10.6 5.6-16.7 7.8-10.1 3.7-34.4 22.9-45.4 29.6-84.7 52.2-179.5 80.8-279.3 86.3-2.9-.6-5-2.6-2.7-5.3 61.8-20.8 125.9-35.7 185.8-62.2 34.6-15.3 75.5-35.5 105.2-58.8 3.8-3 20.2-16.3 21.6-19.4s-1.9-19.5-2.6-24.3c-7.4-49.5-22.2-99.8-37.6-147.4-7.2-22.2-16.9-44.5-23.6-66.5-2.1-6.7-4.3-13.6-3.7-20.8 6.9 5.9 21.2 14.2 25.5 22 8.2 15 16.4 43.3 22.5 60.5 20 56.5 37.3 114 50.5 172.5 2.8 6.3 14.8 5.6 20 10 5.6 4.7 11.2 21.8 13 29 2.9 11.6 3.5 23.8 5.6 35.8" class="outline shading" data-original-prefix="shading" opacity="0.5" style="opacity: 0.5"/><path id="shading-head6" fill="#aaaaaa" d="M1582 1500c-16.8-.8-32-7.1-46.7-14.8-17.8-9.3-36.1-21.2-48.3-37.2 11.8 4.1 23.8 7.7 35.5 12 10.1 3.7 40.6 13.8 46.5 20.5 3 3.4 9.7 12.2 12.1 15.9.7 1.3 1.2 2 .9 3.6" class="outline shading" data-original-prefix="shading" opacity="0.5" style="opacity: 0.5"/><path id="shading-head7" fill="#aaaaaa" d="m560 1448-14.3 18.7c-1.7 1.7-21.4 17.2-22.7 17.8-2.6 1.2-5.6 0-8.3.7-7.7 1.8-17 7.9-25.5 10.5s-17.4 3.9-26.2 4.8c6.3-5 9.9-13.1 15-19 6.9-7.9 35.5-17.2 46.7-21.3s23.8-7.5 35.3-12.2" class="outline shading" data-original-prefix="shading" opacity="0.5" style="opacity: 0.5"/><path id="shading-head8" fill="#aaaaaa" d="M1518 1636c1.5 1.2 4.5-4.7 5.4-6.1 4.7-7.5 7.6-15.4 7.7-24.4 0-4.5-1.6-8.5-1.1-13.1.2-1.9 2.7-12.2 3.3-13.7 2-4.6 8.1-5.6 10.5-1.1-.2 20.9-.2 41.9-.8 62.8-.7 23.4-.7 47.7-2 71-.2 3-1.4 15.8-2.6 17.4-.9 1.2-1.2 1.3-2.5.6-1.1-.6-8.9-14.4-10.1-16.9-11.5-21.7-21.6-44.1-33.3-65.7-7.6-14.1-17.6-34.8-26.7-47.3-2.4-3.4-5.6-5.2-9.8-3.2s-1 10.5-.9 14c1.3 60.2-55.3 160.1-87.2 211.8-8.7 14.1-18.9 26.8-29.3 39.7-2.3-30.1-2-60.5-6.6-90.4-1.1-7.2-.9-13.6-10.4-9.7-15 20-31.6 39-48.9 57.1-10.3 10.8-24.4 26.1-36 35-8.5 6.5-27.3 15.1-37.6 20.4-2.5 1.3-19 9.4-19.9 8.6 5.3-13.1 7.1-26.7 8.9-40.6 2.9-22.8 2.3-47.8 5.2-69.8.7-5.5 4.4-11.9 4.9-18.1.4-4.8-.8-8.8-1-13.5-2.3-.6-1.7.5-2.3 1.3-5.4 6.9-5.9 14.2-9.7 20.2-9.1 14.6-38.7 37.7-53.1 48.9-14.6 11.4-34.5 26.6-50.4 35.6-7.1 4-14.7 6.7-22.5 9 .9-17 6.7-41.6.3-57.8-1.9-4.8-7.9-8.6-10.2-12.8s.4-5.4-6.6-7.4l-12.1-15.9 38.3 18.2c3.5 7.7 5.5 16.9 9.1 24.4.6 1.3 1.6 4.5 3.5 4.2 21.8-11.8 43.1-24.9 62.1-40.9 9.5-8.1 21-18.4 29.6-27.4 2.7-2.8 13.6-17.2 15-18.1.9-.5 3.7.6 6 .2 6.3-1.1 11-5.9 17-7.6 9.8 25.7 14.2 53.1 18.3 80.2.2 1.4.2 5.4 2.2 4.8 12.7-7 25.2-14.6 37.2-22.8 7.5-5.1 32.3-21.9 37-27.5 2.3-2.8 4.2-10.7 6.1-14.4 3.7-7 7.9-13.3 11.3-20.7 5.2-11.3 9.8-23.6 12.8-35.7 1.3-.3 1.1 1 1.5 2 4 11.3 5.7 23.5 9 35l13.5 66c4.8-9.3 13.1-17.3 18.2-26.3 10.1-17.9 20.8-43.7 29-63 9.3-21.9 15.6-35.6 16.8-60.2 1.1-22.9.7-38.3 4.7-61.3 2.1-12 4.1-24.1 5.3-36.2 1.2-1.4 18.3 12.8 20 14.5 25.4 24.1 45.1 57.3 63.9 86.7" class="outline shading" data-original-prefix="shading" opacity="0.5" style="opacity: 0.5"/><g><path d="M745 1257v.1-.2Z" class="fill" fill="#ffffff"/><path d="M1756.5 964.7c-8.2-4.6-6.2 5.1-8.2 11.2-17.3 52-123.5 116.4-171.4 141.5-88.9 46.6-187.8 65.6-285.8 84.2-109.9 20.8-220.5 41.8-332.7 31.3-72.5-6.7-146.2-20.4-217.7-34.3-122.9-23.9-220.4-46.5-327.3-114.7-42.3-26.9-102-67-116-117-.3-1.1-1.2-4.2-2.8-3.8-8.1 1.9-18 16.4-16.5 24.1.3 1.4 1.9 4.8 2.6 6.4 27.1 60.8 131.8 125.4 191.5 151.5 38.1 16.6 89.8 36.8 88.5 43.2-1.5 7.2-3.9 13.8-7.3 20.3-1.7 3.2-1.9 6.3-1 9.1-5.4 6.3-9 13.4-8.4 22.3 1.8 0 3.8.3 5.5 0 3-.5 21.1-13.3 24.9-16.1 5.6-4.1 11-8.5 16.3-13 5.5 2.2 11.1 4.2 16.7 6.1l-23.3 73c1.5-.2 1.8-1.9 2.5-3 6.8-11.4 19.7-37.2 23.5-49.5 1.8-5.8 3.1-11.9 4.3-18.2 19.3 6.2 39 11 58.8 15.2 34.1 7.1 68.5 13.1 102.7 19.6-6 11.7-10.9 23.8-11.9 36.9-1.4 1.7-6.3-7.7-6.8-8.7-4.2-8.1-6-18.2-12.1-25.2v15.2c0 13.9 19.5 53 28.6 64.4.9 1.1 6.2 8.5 7.4 7.1.8-26.8-.4-54 6.3-80.2 2.4-9.7 6.4-18.5 9.7-27.8 121.8 24.6 245.9 29.6 369.3 13.9 28.1-3.6 55.9-9.1 84-12.9 10 18.3 13.7 39.1 15.7 59.6l1.5 47.5c19.6-22.3 35.1-54 35.5-84-2-.4-2.4.9-3.2 2.3-3.7 6.2-5.2 16.7-8.6 23.4l-6.2 10.3c-1.1-14.1-5.7-27.1-11.8-39.5 52.5-9.7 104.4-22.4 155.4-38.1 1.6-.3 3.3-.6 4.9-.9 1.8 8.9 3.4 17.4 4 19.5 3.7 12.3 17.1 38.6 23.9 50.1.6 1.1 1 2.8 2.5 3l-23.7-74.1q7.2-1.8 14.1-4.5c.8-.3 1.5-.6 2.3-.9 5.5 4.5 11 9.1 16.7 13.3 4.1 3.1 18.9 14.3 22.3 15.7 2.6 1 5.3.5 8 .5.9-17.8-14.4-28.2-26.7-39.3 2.8-1.3 5.7-2.4 8.7-3.4 6.2-1.9 10.1-8.3 8.4-14.8-.9-3.2-3.2-5.9-6.2-7.5 27.6-8.3 55.6-16.5 81.8-27.6 61.6-25.9 160-86.1 192.6-145.4 1.8-3.2 7.6-13.5 7.6-16.5.3-6.3-7.9-17.6-13.4-20.7Z" class="fill" fill="#ffffff"/></g></g><path id="outline-head" fill="#000000" d="M769 677s.3 1.7 1 2.5c17.5 18.9 34.3 38.4 55.1 53.9 21.8 16.2 36 13.4 61.4 16.6 44.2 5.5 87.2 10.4 132 11 47.6.7 95.6-5.1 143-11 37.1-4.7 43.8-1.1 73.5-26.5 16.3-13.9 30.9-30 44.5-46.5 2.1-.4 1.4.8 1.8 2.2 2.1 6.9 2.2 14.3 3.7 21.3-11.7 14.4-25.8 27.8-40 40-15.1 13-18.4 15.3-38.2 19.8-106.9 24.5-246.6 23.5-354 2.4-8.3-1.6-24.4-4-31.5-7.5-4.3-2.1-13.2-10.2-17.3-13.7-14.2-12.1-28-25.6-40.5-39.5-.9-2 1.9-19.1 2.8-22.2.3-1 .8-4.4 2.7-2.8" class="outline" data-original-prefix="outline"/><path id="outline-head1" fill="#000000" d="M1780.4 984c-10-35.3-43.3-36.3-75-39-79.7-6.9-162.9 1.6-243-3l-45.4-3c-1.5-9-2.6-18.3-4.3-27.2-1.2-6.2-2-16.8-7.8-20.2-1.7-1-8.9-4.3-10.9-5.1-5.2-1.9-10.8-2.4-15.8-4.7-12.4-56.8-29.1-112.5-48.4-167.2-7-20.2-15.6-48.7-24.8-67.2-1.7-3.5-3-4.7-5.7-7.3-4-3.9-30.8-25.5-34.4-26.6-8.3-2.5-14.4 1.3-21.7 2.4-89.5 13.5-181.5 12.9-271.8 11.1-56.3-1.1-112-2.6-167.8-11.2-8-1.2-13.8-5.4-22.8-1.3-4.4 2-35.7 27.6-37.7 31.3-29.3 77-56.3 155.3-73.4 236.1-5 2.3-10.6 2.8-15.8 4.7-1.6.6-2.8 2-4.3 2.7-8.1 3.7-9.9 2-12.6 12.4-3 11.7-3.7 25.4-6.1 37.4-21.5 1.9-43 2.3-64.5 3-78.2 2.3-166.7-5.2-242.9 5.1-20.7 2.8-41.5 5.2-51.5 25.5-16.7 34 9 57.4 32.8 78.9 45.2 40.7 109.1 79.1 165.1 102.9 25.3 10.7 51.9 18.2 78 26.5.3.5-.9 3.1-2.4 6-7.6 12.4-11.9 23.3-18.9 39.4-6.7 14.7-13.1 29.6-18.8 44.7-6.8 16.9-12.7 33-11.4 34.5 1.9.4 2.4-1.1 3.5-2 6.6-5.4 12.5-13.2 19-19 17-14.9 39-32.1 57-46 2.3-1.8 8.2-7.4 8.4-3.5-5.8 18.8-11.9 37.6-18.5 56.1-.5 1.3-1 2.6-1.4 3.8-6.3 17.6-13.2 35.2-20.6 52.8-12.9 30.4-27.3 60.1-43.7 88.8-7.5 12.9-16 27.5-24.4 39.6s-17 22.5-29.8 30.2h2.1c-.8.6-1.7 1.1-2.6 1.7 25.7.4 50.6-6.2 73.6-17.3-4.7 9-11.2 17.2-14.9 26.8-.2.6-.4 1.1-.6 1.7l-.3.5c-8.2 26.1-4.2 54.3-3.8 81.2.6 36.5 1.8 72.7 3 109 .5 15.2.3 30.4 1 45.5l85-153c-4.1 30.1 5.9 59.5 16.3 87.2 24.8 66.5 61.2 132.7 107.7 186.3l2 .5v-1.8c1.2 0 .6-1.3.7-2.6 1.5-21.2 0-43.3 2-65 .9-10.9 2.8-21.6 4-32.5l1.3-8.2c10.4 16.5 24.1 31.6 37.5 46 12.4 13.2 39.4 42.9 53.5 51.5 13.4 8.2 34.1 17.6 48.7 24.3 3.2 1.5 12.1 6 14.8 6.2 1.6 0 1.8.2 1.4-1.4v-.5h.2c1.5 0-5-14.1-5.5-15.5-8.7-24.4-11.1-57.8-13-84-.6-8.3-.9-16.8-1-25.1 15.6 19.1 35.1 34.7 54.5 49.7 23.9 18.5 49.6 39.4 79.4 46.6v-1.9h.4c.7-17-3.9-34-2.6-51.2 1.3-7.5 4.3-14.5 10.6-20.5l22.5-25.5c7.5 10.8 17.8 20.1 25.5 30.5 13.2 17.9 5 41.5 4 61.9 0 2-1 6.7 1.5 6.6 4.3-.2 15.5-5.2 19.9-7.2 19.7-8.9 41.3-26.1 58.5-39.5 19.6-15.2 39.4-31 55.1-50.4-1.6 27.8-3 56.8-7.1 84.4-.2 1.4-.4 2.9-.7 4.3-1.3 6.5-2.9 12.7-4.8 18.4-2.7 6.5-6.1 13.2-7.3 18.5-.4 1.6 0 1.5 1.4 1.4 2.7-.2 11.7-4.7 14.8-6.2 14.3-6.5 43.9-19.8 55.1-28.9 25.3-20.6 48.5-51.1 71.5-74.5l14-18.5c1 14.6 3.8 29 5 43.5 1.8 21.3.5 43.2 2 64 0 1.5-.8 2.9 1.5 2.5 27-30.1 49-63.3 68-99 14.9-27.8 29.2-58.2 40.2-87.8 5.9-15.8 11.7-32.2 14.8-49 2.4-12.1 3.5-24.3 2.3-36.7l84.1 151.4v-2.5l.4.8c.8-17.1.5-34.3 1-51.5 1.1-36 2.4-71.9 3-108 .4-24.6 4.6-53.1-4.2-76.7-3.6-9.3-9.9-17.4-14.5-26.2 22.5 10.7 47 17.1 72.2 16.7-.9-.5-1.7-1.1-2.6-1.7h3.1c-12.8-7.7-21.3-18.1-29.8-30.2-8.6-12.1-17-26.6-24.4-39.6-36.6-63.8-63.3-132.7-84.7-203.1 1.3 0 2.2.9 3.3 1.6 21 13.6 40.8 36.8 62.6 50.4l22.5 21.5-.6-1.8c.2.2.4.4.6.7-12.2-43.7-32.5-84.6-52.5-125 29.9-8.7 60.2-18.1 88.7-30.8 51.5-22.9 105.9-56.6 148.8-93.2 19.4-16.5 51.9-44.8 44-72.9l.4.6ZM738 721.3c5-15.2 13.6-45.2 21-58 1.6-2.8 32.6-25.3 35.8-26.2 50 .5 99.8 3.5 149.8 4.8 102.5 2.8 204.6-1 307-5 2.7.4 33.8 21.7 36.1 24.4 2.9 3.5 10.2 25.3 12.3 31.1 10.2 28 19.1 57.9 27.5 86.5 11.6 39.4 22 79.1 30.4 119.3-44.7 35.3-96.3 62.3-149.6 82.4-71.2 26.9-150.4 42.3-226.7 34.2-104.2-11.1-208.8-53.1-291.4-116.7 12.9-59.6 28.8-118.8 47.8-176.8m-85.1 223.1c0-7.2 1.6-23.7 3.7-30.3.4-1.2.6-2.5 2-3 1.2-.4 10.4-.4 11.2 0 .4.3.8 2 1.5 2.7 195.8 157.7 494.8 165.6 694 9 2.8-2.1 12.3-11.6 14.1-11.9 2.6-.5 10-.7 11.3 1.7 1 1.9 3 15.8 3.2 18.8.6 7.3 1 23.1 0 30-.8 5.6-16.6 19.1-21.6 23.4-174 150.2-512.4 150.2-689.9 6-5.2-4.2-26.4-22.2-28-27-1.4-4.1-1.7-14.8-1.6-19.5Zm824.4 243.8c2.1 4.8 4.2 9.7 5.3 11.7 3.7 6.8 16.7 30.7 17.8 37l-25.7-17.1-27.7-22.3zm-47.4 14.3c7.4 28.2 20.2 60.7 29.5 86.6 17.3 48.4 35.7 103.9 62.6 147.4 9.8 15.9 21.4 30.5 32.3 45.6l-60.1-27.2.9 2.4-1.7-.8 23.5 54c4 22.7 6.7 46.2 8.7 69.8.2 3.3.3 6.7.6 10 .7 10.4 1.5 20.9 2.2 31.3.9 16.2 1.5 32.4 2.1 48.3.4 10.6 0 21.3.7 31.9l-24.6-54.5c-5.8-42.8-11.9-86.4-32.6-124.9-.5-.9-8-14.7-8.5-9.5 8 34.1 19.5 67.6 25.6 102.3-15.9-31.8-33.2-62.7-60.9-86.4v1.7c-.4-.3-.9-.4-1.6-.2l6 64.5c.4 15 .6 29.8-1 44.4-1.7 11.8-4.6 23.9-9.2 37.2l-5.8 13.9c-3.9-18.2-3.3-37-8.5-55l-18.6-41.9c-10-2.8-4.3 11.9-2.8 17.3 4.9 16.7 12.3 31.3 14.8 49.2 2 14.9 4.3 46.6 2.1 60.8-.4 2.6-4.7 10.8-6.1 13.9-1 2.1-2 4.3-3 6.4-15.7 32.3-33.2 64-49.2 95.7-1.8.2-1-2.3-1-3.5-1-27.5 1.1-55.4 0-83.1-1.5-37.1-4.1-91.1-17.8-125.3-.6-1.5.6-2.7-2.2-2.2v.2c0-.2 0-.4-.2-.6-4.2 39.2-8.9 79.2-19.8 117.2-1.4 4.8-3 9.5-4.9 13.9-10.3 23.7-26.8 42.4-45.1 61.7-16.1 17-33.3 32.6-53.5 44.5 3.7-22 7.8-44.2 9.5-66.5 1.8-24.3 3.1-62.1-5-85-3.2-9.1-9.2-17.9-15-25.5 0 .7-.2 1.4-.3 2.1 0-.2-.2-.3-.4-.5-1.8 11.9-2.9 24.1-5.7 35.8-1.7 7.1-4.2 13.7-7.3 19.9-9.3 17.3-25.2 35.2-41.5 50.8-1-27.8 1.1-56.6-9.5-83 9-5.8 26.3-12.1 33.5-19.6 7.2-7.4 10.3-28.5 17.1-35.9 7.6-8.2 27.3-6.3 36.4-17.6 1-1.2 1.9-3.1 2.8-5.3.4-.7.8-1.4 1.2-2.2 1-2.1 1.9-6.8 3.2-9.2 1.7-1.2 3.6 4.9 3.9 5.6 4.4 13.6 3.3 29.5 2 43.5 1.5.4 2.3-.3 3.6-.9 3.4-1.6 16-12.4 19.4-15.6 10.7-9.7 29.1-31.2 34.9-44.1.2-.5.3-1.1.5-1.7.6-1.5 1.1-3 1.6-4.7h.5c1.9.5 2.3 34.6 2.5 38.5 0 2.4 1 4.6 1.1 6.9.7 21.1-.6 42.4 0 63.5h3c.5-7.5 2.2-15 3-22.5 3-26.9 5.9-61.3 3-88-1-9.5-5.6-21.8-6-30 0-.9.6-4 1.4-6.9.7-2 1.4-3.9 2.2-5.9 1.6 0 3.2 5.9 3.5 6.7 9.2 24.5 10.8 52.6 12 78.5h3c1.7-17.3 3.2-35.1 2-52.5-1.1-16.3-6.8-32.5-7.9-48.8 6.2-7 18.3-1.5 25.6-4.4 3.1-1.3 8.9-8.8 12.1-14.8 1.5-2.6 2.7-5.3 2.9-7.6 1.8-19-2.5-39.7 2.5-58.8 9 2.5-.7 24.4.8 25.9l11.4-4.1 21.6-11.9c-2.4 24-7.3 48-14.5 71l-6.6 13.2c-1.5 2.7-3 5.3-4.3 8.1h.2l-.8 1.6c24.4-3.5 45.2-26.7 61.5-44 10.4-11 30.9-32.5 41.3-50.8 1.3-2.3 2.4-4.5 3.4-6.6 0-.3.2-.6.3-.8 0-.2.2-.5.3-.7.7-1.6 1.2-3.2 1.6-4.8 2.7-9.8 1.9-19.9-1.1-34-.9-4-1.6-6.2-2.8-8-5-20.3-13-41.5-18.7-56.5-5.3-13.9-13-35.5-20.3-47.8-.8-1.3.2-2.5-2.5-2 3 24.6 14 46.8 21.3 70.2 6.7 21.8 17.1 53.1 9.1 75.5-3.7 7.9-9.5 15.3-14.2 21.5l-2.7 3.6c-1.9 2.2-3.7 4.2-5.4 6.1 1-7.5 5.1-17 5-24.5 0-9.3-5.8-22.7-6.5-32.5l-2.5-8v38.5c0 4.5-6.8 25.6-8.7 31.3-3 8.7-6.2 16.3-10.6 23-5.4 5.6-11.1 10.8-16.9 15.6 4.8-11.5 6.9-23.5 8.8-35.7 2.1-12.9 4.7-29.9 5.2-42.8.3-5.8 1.9-15.1-6.5-12.6l-30.5 26.1c4.3-26.6 10.3-53.7 13-80.5 3.4-34.3-9.4-53.9-25.8-82.2-12.8-22-27.8-42.5-42.2-63.3l115.8-29.4zm-455.2 639.7c-9.5-7.6-19.9-14.3-29.5-21.9-7-5.5-15.2-12.2-23.6-19.8-2.3-12.7-1.9-36.4-1.2-49.5.7-13.9 5.2-27.6 3.1-41.5l26.9 12.1c2 20.4-1.1 42.1 4.6 61.9.7 2.4 3 10 5 11 1.9.9 1.5-1.6 1.5-2.5 0-3.9-1.7-8.9-2-13-1.5-17.8-.3-36 2.5-53.5 14.4 4.4 29.1 8.9 43.9 12.1 14.2 3.1 19.4 3.6 33.8.6 15.3-3.2 30.4-8.8 45.8-11.7 1.6 16.7 2.9 33.7 2 50.5-.2 4.5-1.9 9.5-2.1 13.9 0 1.4-.8 4 1.5 3.5 12.5-21.9 7-48.7 9.6-72.9 4.4.6 25.8-12.1 26.9-11.1-2.1 14.1 2.4 29 3.1 43.4.7 15.9 0 33-2.3 48.8-7.5 6.6-14.7 12.5-21.1 17.5-9.9 7.8-20.6 14.7-30.4 22.6 1.8-16.2 2.7-33-2.3-48.7-12.6-13.7-24.9-27.8-37.7-41.3-1.4-1.4-7.6-8.1-8.9-7.9L978 1794c-.2.6-.3 1.1-.5 1.7-5.1 14.9-4.3 30.8-2.8 46.3zm321.9-592.1c-1.2 9.6-2.9 18.9-4.5 26.6-3.2 15.2-8.4 31.9-17.4 44.8q-.75.9-1.5 1.5c.5-24.5-.2-49.6-8.4-72.8.2-2.6.7-5.6.8-8.4 9.3-3 22.8-3.7 32.6-5.8-.4 4.7-.9 9.4-1.4 14.1zm-48.2-5c.7 1.4 1.4 2.7 2 4.1 2.6 7.2 5.2 14.5 6.9 22 4.9 22.2 4.8 45 4.6 67.3v6.8c-.2 4.4-.4 8.8-.6 13.3 2 .5 1.9-.8 2.8-1.7 3.3-3.2 6.9-7.5 10.7-12.5 8.4-9.8 15.6-21.5 21.1-34 6.7-13.3 11.3-26.6 11.3-36.4v-2.1c.8-5.2 1.3-10.4 1.4-15.5.3.4.5 1 .8 1.4 14.5 23.1 31.6 54.4 44.2 78.8 8.9 17.2 13.7 28.5 13.7 48.4s-1 5.2-1.1 7.9c-.6 18-1.5 35.2-5.5 52.7-8.2-2.9-12.8-1.5-15.4 2.2-1 .9-1.9 2-2.6 3.5-.2 2.1-.3 4.2-.5 6.2 0 .8-.2 1.7-.3 2.6-1.5 15-3.9 29.8-5.6 44.7-.5 3.9 0 8.4-.7 12.6-4.3 11.8-14.3 7.2-26.2 13.1-6.4 3.1-11.5 10.2-15.7 18.6-8.5 16-13.7 38.3-18.6 50.5-.2.5-.4.9-.6 1.3-7.6 17.2-17.7 31-34.3 41.7v-.4c0-9.2-.8-21.3-4.3-29.8-.9-2.1-7.7-12.7-9.2-13.8-1.7-1.2-3.9-1.3-5.9-.7-.7.2-1.6 1.1-2.6 2.4-.7.7-1.7 2.2-3 4.3-5.1 8-11.7 20.7-16.1 24.6-7.6 6.7-16.2 6.9-23.7 11.3-5.3 3.1-9.7 9.8-13.7 17-4.6 7.8-7.9 15.5-14.2 22.3-17.6 16.5-72.5 38.1-92.7 44.1-7.1 2.1-23.8 7.5-30.4 7.6-7.7 0-31.1-7.5-39.6-10.2-20.6-6.7-74.9-29.1-87.6-45.4-7.3-9.3-14.6-29.7-24.5-35.5-7.5-4.4-16.1-4.6-23.7-11.3-6.1-5.4-18-30.2-21.7-31.3-4.8-1.5-9.6 4.2-12.9 10.3-1.3 2.1-2.3 4.2-2.9 5.8-3.7 9.2-2.5 19.4-5 27.7-1.9-.7-7.6-5.7-8.5-6.5-13.3-11.9-19.9-21.9-26.7-39.3s-14.9-55.9-31.9-65.1c-11.4-6.2-25.7-.9-28.2-17.8-2.1-13.9-3.4-29.6-5.1-43.9s3-30.2-19-23.5c-2.4-12.7-5-25.6-6-38.5 0-1.6-.2-3.3-.3-5 0-3.1-.2-6.1-.3-9.2 0-.8 0-1.6-.3-2.4-.2-5.8-.3-11.6 0-16.4 0-2.2.4-4.4.7-6.5 1.5-7.9 4.2-14.9 8-22.8 3.8-7.5 8.4-14.8 12.5-22.5 9.8-18.4 20-36.5 29.9-54.8 2-3.4 4.1-6.7 6-9.8.6-.9.9-2.2 2.2-2.3v18.5c0 23.4 26.6 66.5 43.2 82.8.9.9.8 2.2 2.8 1.7v-2.6h.7c-.5-24.4-1.4-50.4 2.6-75 1.9-10.7 4.7-21.4 8.8-31.7.9-1.7 2-3 3-3.2 23.4 3.3 46.6 7.8 70.1 10.9 125.4 16.5 253.8 12.6 377.8-11.7h-.1Zm-469.7 19.3c-3.9 19.7-5.1 38.1-4.4 58.1-2.9-2.5-5.1-7-6.8-10.4-3.1-6.2-5.6-12.7-7.7-19.4-2.9-15.6-5.1-40.5-6.4-55.8l27.6 5.8c-.4 7.9-.4 11.7-2.4 21.9v-.2Zm-86.9 30.9c-5.8 10.1-11.2 19.1-15.5 28-5.5 10.7-9.6 20.7-10.8 27.9-3 18 2.1 47.2 5 65.8 2.1 13.4 5.5 26.8 7.5 40.2l-29.5-25.2c-4-1.2-5.7.3-6.4 2.7-1.7 2.6-.9 7.6-.7 11.3.5 12.9 3.1 29.9 5.2 42.8 1.8 11.2 3.7 22.2 7.6 32.7-6.5-5.5-12.8-11.6-18.8-18-3.8-6.6-6.6-14-9.3-22.3-1.8-5.7-7.7-23.5-7.7-28.3v-39.5l-2.5 8c-.8 10-6.1 23-6.5 32.6-.3 7.4 3.5 16.3 4.4 23.9-2.1-2.7-4.1-5.4-6.1-8-5.7-7.6-17.6-22.8-17.6-32.4v-20.8c1.8-14 6.2-28 10.1-41 7.6-25.4 19.8-49.5 22.3-76.2l-12.5 27c-12.9 30.6-36.6 88.2-33.6 120.5 1.8 19.5 33.7 52.8 47.5 67.5 16.3 17.3 37.1 40.5 61.5 44l-.7-1.4h1.3c-2.7-6-6.6-11.3-9.2-17.3-9.7-22.4-13.1-50.4-16.5-74.6l20.7 11.4 11.4 4.1c0-.7 0-1.3-.2-2l.9.3c-.4-6.8-3.9-14-3.2-21 1.2-1.6 3.7-4.2 4.4-3.3.8.9 2.8 20.6 3 23.5.5 9.2-1.8 35.9.8 42.2.8 2 11.5 14.7 13.5 15.5 7.4 3 17.8-2.1 24.8 3.4-1.4 13.3-5.3 26.9-6.9 40-2.7 20.8-1.8 41.6.9 62.4h3c.5-19.9 2-40.6 6.5-60 1.9-8.4 4.5-19.2 9.5-26 .6 3.7 4.2 7.6 4 11.4-.2 2.2-2.8 8.3-3.5 11.5-6.6 33.2-4.7 65.9-1.5 99.5.4 4 2.8 30.4 4 31.5.2.2 2.2 0 3 0 .7-37.6-2.2-75.9 4.5-113 2.6 14.8 14.6 30.3 24.5 41.5 6.5 7.3 23.6 23.8 31.6 28.4 1.4.8 2.7 1.4 4.4 1.1 0-.8-.2-1.6-.3-2.5.3-14.6-2.1-29.6 3.2-43.6 0-.2.2-.5.3-.8.7-1.6 1.7-3.1 2.7-2.1s2.8 9.9 4.1 12.4c8.9 17.3 29.3 11.7 38.5 21 7.4 7.4 10.3 28.4 17.8 36.7 4.5 4.9 32 17.6 32.3 19.4-10.3 26-8.3 54.3-9.2 81.7-19.1-18.4-37.5-39.8-44.6-58.5-5.8-15.5-6.1-32.4-9.7-48.3-5.9 8.5-11.2 16.8-14.7 26.2-2.8 7.4-4.6 15.4-5.5 23.9-4.9 44.8 3.8 83.1 9.6 126.4v.5h-.5c-19.7-12.9-36.3-27.4-52.5-44.5-22.1-23.3-41.7-45.8-50.7-77.3-10.6-36.9-15.8-77-19.3-115.2h-1.2v-.2.2c-1.1 0-.4 1.1-.9 2.3-4 10-7 21.7-9.4 34.1-2.9 13.6-4.9 27.5-6.1 40.9-1.7 18-2.2 35.9-2.4 53.7-.4 11-.3 22.1 0 33.1 0 16 0 32.1-.5 48.2v1.9h-.4c-17.9-34.3-36.4-68.5-52.9-103.6-2.3-4.8-4.7-9.9-7.1-15.1-1.6-15.3.3-45.2 2.4-59.1 2.8-18.2 10.7-33.5 15.4-50.6 1.5-5.4 6.2-17.3-3.4-14.9l-19.2 43.3c-4.7 17.3-4.4 35.2-7.8 52.7-4-10-7.6-19.9-10.2-29.4-10.7-38.8-3.4-79.7-.9-119.4.3-3.5.7-6.9.9-10.3h-.4v-1.4c-15.3 13.1-27.4 28.3-37.9 44.8-2.7 4-5 7.8-6.9 11l-2.2 4.2c-4.7 8.2-9 16.7-13.3 25.2l-3.3 6.3 26.5-108c-3.4-.3-5.5 5.3-7 8-23 40-27.8 87.5-34.8 132.2l-23 51.2c1.2-11.8.6-23.7 1-35.5.9-26 3.3-52 5-78 1.3-20.5 1-41.5 4.1-61.9 2-13.4 6.8-25.9 12.3-38.2 3.2-7.1 6.5-14.1 9.7-21.2 2.1-4.7 4.1-9.4 6-14.2l-62.4 28.2c11.1-15.5 23-30.5 33.1-46.7 4.5-7.3 8.7-14.9 12.8-22.7q6.9-12.6 12.6-26.1c1.8-4.4 3.7-8.8 5.5-13.3 11.8-28.4 21.9-58 31.7-85.3 9.3-25.9 22.1-58.6 29.6-86.8l117 29.8c-14.4 20.8-29.5 41.3-42.2 63.3v-.2Zm-117.9-75.9L546 1238l13.1-27.1c4.7-8.8 9.3-16.8 12.6-22.4l29.3 8.5zm11 13.2v-1c.2 0 .3.2.4.3 0 .2 0 .3-.2.5 0 0-.2 0-.3.2Zm1095.4-166.7c-23.3 16.1-42.9 31.4-68.3 44.7-105.4 55.2-226.5 85.3-342.8 107.2-61.1 11.5-123.8 21.8-185.7 27.3-91 8.1-182.1-5.5-271.7-21.3-127.8-22.5-262.4-53.3-377.8-114.2-25.5-13.5-45.8-29.4-69.2-45.8-21.5-15.1-44.1-27-61.8-47.3-13.2-15.2-20.7-30.9.4-43.7 39.4-23.9 153.9-11.4 202.1-9.8 39.7 1.4 79.5 2.4 119.5 2 .4.5-.2 11.3.2 13.4 1.6 9.3 29.9 30.5 38.4 36.6 131.8 94.9 302.9 118.8 461.7 99 83.4-10.3 162.3-38.6 233.6-82.4 17.2-10.6 46.6-29.8 59.1-45 5.8-7.1 4.8-12.7 5-21.5l96.6-1c57.2-1 119.8-9.8 176.9-4 17.4 1.8 62.1 8.9 61.6 32.5-.5 25.5-58.4 59.8-77.8 73.3" class="outline" data-original-prefix="outline"/>
    </g>
</svg>