<?xml version="1.0" encoding="UTF-8"?>
<?xml-stylesheet type="text/css" href="styles/collection.css"?>
<svg xmlns="http://www.w3.org/2000/svg" viewBox="0 0 2048 2048"><g id="01_background" data-trait="blue"><path id="color-blue" fill="#2f5496" d="M2048 0v2048H0V0z"/></g><g id="02_Jaw" data-trait="doom-raider-mask"><path id="fill-jaw-main" class="fill"  fill="#fff" d="m637.2 1237.2 8.7-.3c13.5-36.6 25-74.9 39.3-111.1 40.9-102.9 149.2-171.1 251.8-201.2 96.8-28.5 178.1-7.9 265 37 60.9 31.4 126.9 87.1 155.2 150.8 8.4 18.9 7.3 37.3 13.6 53.4 7.2 18.6 28.3 46.1 38.7 65.3 15.6 28.9 30.5 61.7 44.3 91.7 1.6 3.4 9.1 18.6 8.9 20.7-26.3 40.9-55.4 79.9-82.8 120.1-25.7 22.3-52.4 43.6-77.4 66.6-10 22.3-16.2 46.5-26.5 68.5-40.4 24.2-79.2 55.9-120 79-37.8 21.3-82.4 35.7-121 56l-20.5.4-115.6-51.4c-45.5-28.4-92.8-54.2-138-83l-27.6-71.4-61.4-52.6-83.8-134.3c-.6-1.5 0-2.8.2-4.3 1.6-6.1 8.7-18.8 11.7-25.3 11.6-25.2 25.5-49.3 37-74.5h.2Z" class="fill" data-original-prefix="fill"/><path id="fill-jaw5" class="fill"  fill="#fff" d="M1353 1472c.3 1.4.2 1.3-.6 2.1-2.5 2.4-7.8 5.4-10.8 7.9-10.1 8.4-42.1 34.1-47.4 43.6-10.7 19.7-16.2 47.3-25.4 68.1l-39.1 20.4-58.7 38.8c20.2-48.3 28.3-100.5 36-152 1.4-1.4 10.5 6 16 3.5 25.4-22.1 55.1-38.7 85.8-52.3 15.6 3.6 29.6 13.3 44.2 19.9" class="fill" data-original-prefix="fill"/><path id="fill-jaw4" class="fill"  fill="#fff" d="M1337 1303c17.3-4.2 26.8-13.8 38-26.5 10.3-11.7 19.5-24.5 29.5-36.5 15.8 21.7 28.9 48.5 38.3 73.7 2.3 6.1 7.3 19.2 8.1 25 .2 1.9 0 2.2-.7 3.8-2.5 5.3-11.1 14.5-14.9 20.1-9.7 14-20.1 28.6-29 43-9 14.6-18.7 37.6-28.8 50.2-3 3.8-10.2 4.3-11.3.4-.6-2.2 13.9-36.1 15.9-41.8 1.7-4.7 8.4-21.2 7.8-24.8-.8-4.6-9.6-20.7-12.3-25.8-9-16.6-20.8-33.7-32.1-48.9-1.3-1.7-9.7-10.6-8.4-12.1v.2Z" class="fill" data-original-prefix="fill"/><path id="fill-jaw3" class="fill"  fill="#fff" d="M711 1303c.7.8-1.9 4-2.6 4.9-11.5 16.1-23.2 30.5-33.2 47.8-3.8 6.6-16 27.9-17 34.1-.6 3.6 7.9 25.6 9.8 30.8 4.4 12 10 23.8 13.9 35.8-6.4 5.8-9.5 2.2-13.3-3.4-10.5-15.6-19.1-34.6-29.2-50.8-8.2-13.2-17.8-26.6-26.6-39.4-3.9-5.6-12.4-14.8-14.9-20.1-.8-1.6-1-1.9-.7-3.8.8-6.2 5.7-18.7 8.1-25 9.6-25.7 22.5-50.4 36.8-73.8l2.4 1.1c9 11.5 17.9 23.4 27.6 34.4 11.3 12.9 21.3 23.6 39 27.5Z" class="fill" data-original-prefix="fill"/><path id="fill-jaw2" class="fill"  fill="#fff" d="M841 1501c7.2 51.6 16.2 103.4 35.5 152-31.8-20.5-62-43.8-97-59l-26-69c-16-16.8-34-32.2-52-47-2.1-1.7-8-4.2-5.8-6.1 2-1.8 13.4-7.5 16.7-9.1 4.1-2.1 22.8-10.9 25.9-10.6 31.6 12.9 62 30.9 87.8 53.3 3 2 13.5-6.1 15-4.5z" class="fill" data-original-prefix="fill"/><path id="fill-jaw1" class="fill"  fill="#fff" d="M846 1457c-9.4 1.7-24.2 21.3-32.4 21.1-3.7 0-14.6-4.8-18.5-6.6-11.7-5.2-24.9-13.3-36-20.1-5.3-3.2-20.9-15.6-25.7-16.4-3-.5-12.8 1.8-16 2.9-4.2 1.4-26.5 13.6-28.4 12-2.2-17.5-17.1-36.8-12.1-54.5 4.5-16.1 33.4-52.4 45.5-65.5 2.4-2.6 13.9-14.7 16.1-15 1.6-.3 3 .2 4.5.5 12.5 2.5 27.7 8.8 40.7 12.3 27.9 7.4 55.9 13.4 84.6 16.9 22.7-11.5 45.5-22.8 69-32.8 48.7-20.8 80.7-34.3 134.2-15.8 36.9 12.8 73.1 31.7 108.1 48.7 44-5.4 86.9-16.7 128.9-30.3 4.5.4 28.7 29.4 32.9 34.7 9.2 11.7 19.5 25.6 26.1 38.9 4.6 9.2 6 13.9 3.4 24.5l-13.4 38.5c-8.4-3.8-18.3-10.2-27-13-2.9-1-13.4-3.3-16-2.9-4.8.8-25.2 16.2-31.3 19.8-10.7 6.4-24.5 14.6-36 19-3.2 1.2-10.8 4.4-13.8 4.3-6.3-.2-20.6-16.3-28.1-19.9-1-.5-2.2-1.8-3.3-.7-8.5 54.2-15.6 108.7-31.7 161.3-2.8 9.2-8.5 29.8-12.8 37.2-2.3 3.9-32.3 32.9-36.5 35.5-11.1 6.6-43 19.6-55.9 24.1-8.3 2.9-32.6 9.3-40.6 9.4-7.2 0-32.2-6.3-39.9-8.9-12.8-4.2-53.9-21.4-63-29-5.2-4.3-28.6-27.1-31.3-31.7-3.1-5.3-7.2-19.9-9.4-26.6-18.3-55.7-26-113.9-34.8-171.8Z" class="fill" data-original-prefix="fill"/><path id="outline-shading-jaw1" class="outline"  fill="#000" d="M1278 1304c.5 1.8 5.6-.4 6.8-.8 16.4-4.8 50.7-16.4 63.7-26.3 12.3-9.2 23.4-45.9 32.7-60.3 2.3-3.5 4.1-6.2 8.8-6.7 0 1.4 0 2.8-.2 4.3-1.8 8.2-7.7 21.7-11 30s-14.4 36.4-19.8 41.2c-3.5 3.1-22.8 10-19.5 16.5 1.1 2.2 11.8 12.2 14.5 15.6 10.3 12.7 18.4 26.9 27.7 40.4 25.3-5.7 50.8-12.9 73.8-24.9l1.1 4-73.1 127.9c-18.1 13.1-38.3 23.5-55.9 37.1l-50 98c-26.9 17.7-58.7 32.4-84.5 51.5-17.4 12.9-36.6 35-54.2 45.8-20.2 12.5-48.9 21.8-70.4 32.6l-92.5-.5c-20.4-12.1-46.2-19.8-66.3-31.7-19-11.3-39.6-35.5-59-49.1-25-17.6-54.1-32.4-80.5-48l-49.8-98.7c-17.4-13.3-37.2-23.2-54.4-36.6l-76-128 2.4-4.4c23.1 11.8 48.5 19.2 73.8 24.8 10.5-16.1 20.6-32.3 33.2-46.9 2.8-3.2 9-6.9 8.3-11.2-1.4-8.8-16.4-9.6-22-18.1-7.5-11.3-17.8-38.9-22.5-52.4-1-2.8-6.5-17.8-5.2-19.2 6.4.5 9.4 8.2 12.2 13.3 5.9 11.2 10.3 23.4 16.3 34.7 2.4 4.6 7.8 14.9 11.3 18 4.7 4 18.1 9.8 24.3 12.4 14.5 6.2 29.8 11.2 45 15.5-16.4-12.2-34.8-21.6-50-35.5-18.3-16.7-19.6-34.6-30.5-55.5-5.2-10.1-12.3-19.1-18.3-28.7-1.8-6.8 5.4-21.6 6.5-29 2.8-19.1 3.8-27.8 12.1-45.9 42.8-94 156.1-156.3 251.2-184.8 55.5-16.7 109-17.9 165-2 99 28.1 225.1 96.5 262.8 198.2 5.1 13.9 5.1 20.8 7.5 34.5 1.2 7.1 7.8 22.1 6.7 28.2-.6 3.4-14.5 22.1-17.5 27.5-11.3 21-13 40.9-31.5 57.5-15.3 13.8-35 25.6-53 35.5v.2Zm-200 23c-5.5-11.1-10.5-24.8-17.6-34.9-4.2-6.1-10.2-10.5-14.9-16.1-3.4-4-15.2-20.5-18.4-21.6-1.9-.6-4.4-.8-6.3-.2-2.4.7-15.7 18.7-18.7 22.3s-7.4 6.8-10.5 10.5c-9.4 11.2-15.1 26.9-21.5 40h108Zm-309.5-23v1c.7-.3.7-.7 0-1m68.5 40c-31.5-5.4-62.3-14.5-92.5-25-4.9-1.7-27.1-11.3-30-11s-12 13.5-14.3 16.7c-3.2 4.4-25.2 35.5-25.2 37.8s9.4 13.2 10.2 17.3c32.5 5.7 63.8 16 95.1 26 4.2-.8 6.5-2.9 9.2-5.8 9.8-10.1 18.8-24.6 28.5-35.5 4.9-5.5 14.2-12.6 18-18 .6-.8 1.4-1 1-2.5m525.8 35.8c.4-4.4 10.8-15.1 10.1-18.1-5.5-6.9-33.4-52.2-38.6-53.6-1.1-.3-2.2 0-3.3.3-38.7 15.6-78.8 28.3-119.9 35.6-.4 1.5.4 1.7 1 2.5 4.5 6.6 16.4 16.4 22.5 23.5 7.8 9 15.1 20.7 23 29 3 3.2 5.7 6 10.3 6.8 31.2-10.1 62.6-20.3 95.1-26zM720 1472c-.4 1.7.5 2 1.5 3 9 8.8 25.2 15.4 33.5 25.5s18.5 37.1 27.1 44.9c3 2.7 10.5 6 14.5 8.6 13.2 8.8 26.3 18.2 39.5 26.6l3.8-5.9-28.3-64.7c-11-6.6-68.3-43.6-76.8-42.8-1.4 0-14.3 4.2-14.8 4.8m608 0c-5.2-.6-13.1-5.9-18-4.6-24.8 13.7-50.3 26.3-73.5 42.6l-27.8 63.3c-1.3 2.2 2.5 8.4 5 7 9.7-7.4 19.7-14.5 29.8-21.3 5.5-3.7 18.6-10 22.5-13.5 8.1-7.4 18.5-33.8 26.1-43.9 7.6-10.3 25.5-17.8 34.5-26.5 1-.9 1.9-1.3 1.5-3Zm-194 173c-2.1-.2-3.8 0-5.7.8-24.5 9.4-50.2 38.1-77.1 42.9-17.9 3.2-50.3 3.7-67.2-3.2-20-8.2-44-31.6-64.3-39.7-1.5-.6-6.2-2.2-5.7.7 1.2 7.7 10.9 21 16 27 6.2 7.3 8.1 8.8 16.3 13.7 30.2 18.1 49.5 27.8 86.2 25.9 21.1-1.1 31-5.5 49.1-14.9 19.5-10.1 34-17.7 45.7-37.3 1.2-2 7.5-15 6.6-15.9z" class="shading" data-original-prefix="shading" opacity=".2"/><path id="outline-jaw1" class="outline"  fill="#000" d="M685 1126c.2 0 1 1.5 2.2 2.2 4.7 2.7 8.7.5 9.7 8.4.6 5.1-2.7 26.3-4.4 31.4-2.8 8.6-17 13.5-21 21-1.2 2.3-7.8 31.1-7.5 33.3.4 3.4 9.5 19 11.8 23.3 4.4 8.2 15.3 29.4 20.7 35.3 9.5 10.3 60.5 26.3 75.9 31.1 29.2 9 59.3 17.4 90 18 29.3-10.7 57.9-23.1 87.2-33.8 16.6-6 42.9-17.7 59.8-17.3 21.9.5 35-1 56.2 5.8 39.5 12.7 77.8 29.4 116.4 44.6 46.7-.8 99.9-16.6 143.1-34.6 5.7-2.4 21.2-9 25.2-12.8 4.6-4.5 15-24.5 18.7-31.3 2.7-4.9 14.7-25.5 14.9-29.2 0-1.7-6.8-30.9-7.6-32.4-3.6-6.8-19-13.6-21.2-20.8-1.7-5.6-5-27.5-4.2-32.7 1-6.5 5.7-5.1 9.7-7.3 1.2-.7 2.1-2.1 2.2-2.2 2.3-1.2 6.9-4.1 9.1-2.6 2.4 1.7.2 26 1.4 30.6 6.9 5 22.7 5.9 26 14 1.1 9.9.5 20.6 1.6 30.4.3 2.9 1 10.8 2.2 12.8 1 1.8 3.1 2.2 4.3 3.7 26.6 31.1 46.5 67.2 61.9 105.1 2.3 5.6 7.6 17.3 8.3 22.7.2 1.4.3 2.7-.6 3.9-24.7 33.2-47.1 68.3-68 104-2.9 4.9-18.6 36-20.4 37.1-3.5 2-13.7-4.6-17.5-3.1-10.9 9.5-22.5 18.2-33.3 27.8-4.6 4-16.5 13.5-19.4 17.6-5 7.1-14.8 34.1-18.3 43.7-4.2 11.1-7.7 22.4-11.3 33.7-32.1 13.9-63.4 31.2-92.5 50.5-20.4 13.5-36.7 25.2-52.5 43.5-9.8 11.4-37.1 18.8-51.9 25.1-22.8 9.6-45.2 20.4-68.5 28.3l-111.2-45.6c-6.9-2.5-9.5-12.1-13.6-15.9-1-.9-2.9-1.1-4.2-2.3-38-35.4-88.6-61.7-135.5-83.5-7.9-26.5-18.8-52-29.6-77.4-17.4-15.7-35.2-31-53.5-45.5-3.5-1.2-13.5 6.1-17.5 2.5-26.4-48.4-54.7-96.1-87.7-140.3-.8-1.3-.8-2.5-.6-3.9.7-5.4 6.1-17.1 8.3-22.7 14-34.4 31.7-67.2 54.5-96.5 8.8-11.4 12.5-9.5 14-26 .9-9.8 0-20.6 1.5-30.5 4.2-7.9 25.3-7.7 26.5-16.5.5-3.9-1.1-7.1-1-10.1 0-5.3 2-11.7 1-17.5 3.8-.6 6.8 1.5 10 3h.2Zm26 177c-17.7-4-27.7-14.6-39-27.5-9.7-11-18.5-22.9-27.6-34.4l-2.4-1.1c-14.2 23.4-27.2 48-36.8 73.8-2.4 6.3-7.3 18.9-8.1 25-.2 1.9 0 2.2.7 3.8 2.5 5.3 11 14.5 14.9 20.1 8.8 12.8 18.4 26.2 26.6 39.4 10.1 16.2 18.6 35.2 29.2 50.8 3.8 5.6 6.9 9.3 13.3 3.4-3.9-12-9.5-23.8-13.9-35.8-1.9-5.2-10.4-27.1-9.8-30.8 1-6.2 13.2-27.5 17-34.1 10-17.3 21.8-31.7 33.2-47.8.7-.9 3.3-4.1 2.6-4.9Zm626 0c-1.3 1.4 7.1 10.4 8.4 12.1 11.3 15.2 23.1 32.3 32.1 48.9 2.8 5.1 11.5 21.2 12.3 25.8.6 3.5-6.1 20.1-7.8 24.8-2 5.7-16.5 39.7-15.9 41.8 1.1 3.9 8.3 3.4 11.3-.4 10.1-12.7 19.7-35.6 28.8-50.2 8.9-14.4 19.3-29 29-43 3.9-5.6 12.4-14.8 14.9-20.1.8-1.6 1-1.9.7-3.8-.8-5.8-5.8-19-8.1-25-9.4-25.2-22.5-52-38.3-73.7-10 12-19.2 24.7-29.5 36.5-11.2 12.7-20.7 22.3-38 26.5v-.2Zm-491 154c8.7 57.8 16.5 116.1 34.8 171.8 2.2 6.6 6.3 21.3 9.4 26.6 2.7 4.6 26.2 27.4 31.3 31.7 9.1 7.6 50.2 24.8 63 29 7.7 2.6 32.8 9 39.9 8.9 8-.2 32.3-6.6 40.6-9.4 12.9-4.5 44.9-17.4 55.9-24.1 4.2-2.5 34.2-31.6 36.5-35.5 4.4-7.4 10-28 12.8-37.2 16.2-52.6 23.2-107.1 31.7-161.3 1.1-1.1 2.3.2 3.3.7 7.5 3.5 21.8 19.7 28.1 19.9 3 0 10.6-3.1 13.8-4.3 11.5-4.4 25.3-12.6 36-19 6.1-3.6 26.4-19.1 31.3-19.8 2.6-.4 13 2 16 2.9 8.6 2.8 18.6 9.2 27 13l13.4-38.5c2.5-10.5 1.2-15.2-3.4-24.5-6.6-13.3-16.9-27.2-26.1-38.9-4.2-5.3-28.4-34.3-32.9-34.7-42 13.6-84.9 24.9-128.9 30.3-35-17-71.2-35.9-108.1-48.7-53.5-18.5-85.5-4.9-134.2 15.8-23.5 10-46.2 21.3-69 32.8-28.7-3.5-56.7-9.6-84.6-16.9-13-3.4-28.2-9.8-40.7-12.3-1.5-.3-2.9-.7-4.5-.5-2.1.3-13.7 12.4-16.1 15-12.1 13-41 49.3-45.5 65.5-5 17.8 9.9 37 12.1 54.5 1.9 1.6 24.2-10.6 28.4-12 3.2-1.1 13-3.4 16-2.9 4.8.8 20.3 13.2 25.7 16.4 11 6.7 24.3 14.8 36 20.1 3.9 1.8 14.8 6.5 18.5 6.6 8.2.2 23-19.4 32.4-21.1Zm-5 44c-1.5-1.6-11.9 6.6-15 4.5-25.7-22.4-56.2-40.4-87.8-53.3-3.1-.3-21.8 8.5-25.9 10.6-3.3 1.6-14.7 7.3-16.7 9.1-2.1 1.9 3.8 4.4 5.8 6.1 18 14.8 36 30.2 52 47l26 69c35 15.1 65.2 38.4 97 59-19.3-48.5-28.3-100.3-35.5-152zm512-29c-14.7-6.6-28.6-16.2-44.2-19.9-30.7 13.7-60.4 30.3-85.8 52.3-5.5 2.5-14.6-4.9-16-3.5-7.7 51.5-15.8 103.7-36 152l58.7-38.8 39.1-20.4c9.2-20.8 14.7-48.4 25.4-68.1 5.2-9.6 37.2-35.2 47.4-43.6 3.1-2.6 8.3-5.6 10.8-7.9.8-.8.9-.7.6-2.1" class="outline" data-original-prefix="outline"/></g><g id="03_Mouth" data-trait="scrappy"><path id="fill-muzzle" class="fill"  fill="#fff" d="M1038 1292s-.4 1.7.7 2c10.3 2.8 18 4.3 25.8 13 1.9 2.2 4.9 8.8 6.5 9.5 2.6 1.2 6.6 0 9.5.5 11.4 1.5 21.2 3.7 31.2 9.8 2.1 1.3 9.2 7.8 10.2 7.1.3-.3 0-1.7 0-1.9 2.4-1.8 32.7.6 38 1 5.2 4.2 13.2 5.5 19.2 8.3 13.7 6.4 22.5 16.1 29.9 29.1 8.4 14.6 7.7 17.8 3.1 33.4-2.5 8.5-4.8 21.8-16.3 20.2 1.5-15.5-14.8-32.4-26.5-41-3.2-2.4-11.3-7.2-6 0 10.8 14.7 20.2 14.8 21.5 37.5.6 10.3-8.4 32.9-15.4 40.5-.6.7-7.1 6.3-7.6 6.5-3 1.6-6.9-6.1-7.8-8.2-3.6-7.8-4.7-15.5-9.7-23.3-1.1-1.7-10.8-13.7-12.4-12.1 5.6 13 9 46.2-2.5 56-4.4 3.7-9.4 1.9-13.3 3.7-2.8 1.3-3 5.7-4.8 6.1s-7-3.1-9.4-3.5c-8.9-1.3-13.2 17-18.7 17.5-2.5.2-10.7-11.9-18.4-9.4-7 2.2-15.4 21.2-24.4 23.6-6.3-6-3.4-14-5.8-21.2-1.2-3.5-4.2-6.7-5.8-10.2-5.4-12.7-2.8-19.9-.2-32.2.6-3 0-5.9.9-9.1.2-.7 6.3-12.3 6.9-13.1 3.7-5.4 19.2-12.4 22.7-3.8.9 2.2 0 8.7 2.2 7.7 5.1-4.9 10.2-9.9 15.5-14.5 11.5-10 14.1-9.7 21.2-24.8 1.5-3.3 6.5-14.5 6.6-17.3 0-3.4-9.2-14.7-11.8-17.8-1.4-1.7-9.5-11.5-10.2-11.8-6.4-3.2-28-2.3-34.7.8-7.9 3.6-12.5 12-19 17-1 .8-1.3 1.9-3 1.5l.8-12.7c3.6-4.3 21.7-23.3 21.1-27.5-.4-2.6-11.3-13.4-12.9-11.7 4.4 12.8.7 8.7-7.3 12.2-1.2.5-2.9 2.7-3.2 2.7s-2-2.2-3.2-2.7c-3.4-1.5-9.7-.4-9.3-5.6 0-1.1 4.1-7.6.5-6.6-2.8.8-12 9.9-11.3 13.2 0 .6 4 7 4.8 8 1.5 2 5 5.9 7 8.3 3.2 3.9 9.7 7.6 9.9 13.1 0 1.6-.8 3.1-.8 4.8s2.6 8.1-2.5 3.6c-6.2-5.3-10.2-13.6-18.5-17.5-6.5-3-30.3-4.3-35.7-.2-.8.6-8.8 10.5-10.2 12.2-2.4 3-10.9 13.7-10.8 16.8.2 5.4 11.7 29 15.7 33.2 3 3.2 9.3 6.8 13 9.9 5 4.3 9.7 9.1 14.5 13.5l4.2-11.1c4.9-3.1 17.7 2.6 20.8 7.1 1 1.5 5.1 9.9 6 11.9 2.8 6.4 5.1 25.4 4.4 32.4-1.1 10-7.9 15-9.4 22.6-1.3 6.4 1.1 14.9-5.8 18.9-8.1-2.6-17.3-21.5-23.6-23.5-8.2-2.6-15.9 9.6-18.4 9.4-5.3-.4-8.7-14-13.9-16.1-6.9-2.8-11.5 2.7-14.1 2.1-1.8-.4-2-4.8-4.8-6.1-4.5-2-9.6.3-14.3-4.7-10.9-11.5-6.5-42.2-1.5-56.1-9.1 6.7-14.1 14.8-18.5 25-1.6 3.6-2 7.5-3.7 11.3-1 2.1-4.9 9.8-7.8 8.2-.4-.2-6.9-5.9-7.5-6.5-3.9-4.3-13.8-24.4-15-30-2.8-12.9 1.4-26.5 9.5-36.5 4.1-5.1 11.3-9 13-15.5-2.4-2.4-22.3 17.4-24.4 20.1-5.4 6.8-11 15.9-9.6 24.9-8.3.5-10.7-3.3-13.3-10.2-2.7-7.1-7.8-22.8-6.2-29.8 3.7-16.2 21.4-35.8 36.3-42.7 6.2-2.9 13.9-4.1 19.2-8.3 12.5-.8 24.5-2.3 37-1 0 0 .7 2.1.5 3 9.5-8.2 20.6-14.8 33.1-16.9 4.7-.8 14.8-.4 18.1-1.8 1.6-.7 5.2-7.7 7.2-9.9 8-8.4 15.2-9.7 25.4-12.5 1.1-.3.6-1.9.7-2 1.1-.7 25.9-.7 27 0v.2Z" class="fill" data-original-prefix="fill"/><path id="fill-teeth14" class="fill"  fill="#fff" d="M1039.1 1601.9c-.8-.5-7.2-15.4-7.9-17.6-4.2-13.6-7-37.9-1.5-51.1 5.8-13.9 10.8-1 20-5 1.9-.8 7.6-6.8 9.2-8.8 2.6-3 3.6-9.1 8-8 12.8 3.1 21.1 24.2 22 36.1 2.3 30.4-23.4 40.7-45.2 53.7-1.2.5-3.6 1.3-4.6.6Z" class="fill" data-original-prefix="fill"/><path id="fill-teeth13" class="fill"  fill="#fff" d="M1015.7 1527.3c10.2 8.9 6 44.1 2.3 56.2-1.9 6.4-6 12-8.1 18.3h-2.3c-12.1-7.1-26.3-12.4-36.1-22.9-9.1-9.8-12.3-17.9-11.5-31.5.8-11.8 9-32.3 21.2-35.9 4.8-1.4 5.7 4.5 8.2 7.4 1.8 2.1 8.3 8.8 10.5 9.5 6 1.9 12.5-4.1 15.8-1.3z" class="fill" data-original-prefix="fill"/><path id="fill-teeth12" class="fill"  fill="#fff" d="M904 1461c0 2.2-1.1 3.8-.8 6.2s7.4 22.5 8.8 24c3.7 4.1 11.1 2.3 15.9 2.9 4.9 13.5-4.3 23.9-8.6 35.6-2 5.3-8.4 33.1-12.8 34.3-3.3.8-11.7-18-12.8-21.2-6.8-20.9-8.8-51.8 1.8-71.7.6-1.2 7.1-11.6 8.4-10.1Z" class="fill" data-original-prefix="fill"/><path id="fill-teeth11" class="fill"  fill="#fff" d="M1144 1564c-1 .7-1.8-.4-2.4-1.1-5.8-5.8-8.7-24.8-11.8-33.2-4.3-11.7-13.8-21.9-8.6-35.6 18.6 2.9 18.2-8.8 23.1-22.4l2.2-9.8c10.2 11.1 15.2 27.6 14.6 42.5-.5 13.7-3.2 35.3-9.5 47.5-.8 1.5-6.9 11.6-7.5 12Z" class="fill" data-original-prefix="fill"/><path id="fill-teeth10" class="fill"  fill="#fff" d="M949 1569c5.5 22.1 11.4 45.4 9 68.5-.5 5-1.3 9.2-7 6.9-3.4-1.3-17.5-13.4-19.5-16.5-7.4-11.8.3-39.7 8-50.8 1.2-1.7 7-10.1 9.4-8.1Z" class="fill" data-original-prefix="fill"/><path id="fill-teeth9" class="fill"  fill="#fff" d="M1100 1569c3.4-2.9 13.3 14.1 14.5 17 4.8 11.7 9.3 33.5 1 44-2.1 2.7-18.5 16.5-20.9 15.9-1.9-.4-3.4-6.5-3.6-8.4-1-8.7 0-26 1-35 1.1-10.9 6.5-22.5 8-33.5" class="fill" data-original-prefix="fill"/><path id="fill-teeth8" class="fill"  fill="#fff" d="M1167 1547c.9-6.7-1-15-.6-21.3.3-6.3 3.7-14.6 3.6-21.2 0-5.7-4.8-19.5-4-24 .5-2.9 3.5-2.8 5.5-4.5 6.2-5.3 10.4-15.8 16.9-4.9 14.2 23.5-1 56.5-18.4 74.4-.9 1-1.3 1.9-3 1.5" class="fill" data-original-prefix="fill"/><path id="fill-teeth7" class="fill"  fill="#fff" d="M881.7 1478.3c3.3 2.9-2.8 21-2.8 26.2s2.6 12.6 3.1 18c.7 8 0 16.5-.5 24.5-1.8 0-11.7-13.3-13.3-15.7-11.2-16.8-20.3-43.7-7-61.7 6.2-8.4 9.7.9 14 4.7 2 1.9 5.7 3 6.6 3.9Z" class="fill" data-original-prefix="fill"/><path id="fill-teeth6" class="fill"  fill="#fff" d="M1018 1613v16.5c0 .9-10.8 13.2-11.9 14.1-6.3 4.8-8-2.6-10.6-5.5-5.5-6-17.9-.4-24.4-5.6-.9-.7-4.1-8.3-4.1-8.9v-24.5c12.3 3 28.7 18.5 41.4 16.9 3.5-.4 6.1-3 9.6-2.9Z" class="fill" data-original-prefix="fill"/><path id="fill-teeth5" class="fill"  fill="#fff" d="M1102.5 1494c3.3-.8 5.3 8.5 6.3 10.7 5 10.5 15.3 30.3 11.4 42.1-2.2 6.7-15.6 23.4-20.4 11-4-10.4-4.1-44.7-1.1-55.5.4-1.6 2.4-7.9 3.8-8.2Z" class="fill" data-original-prefix="fill"/><path id="fill-teeth4" class="fill"  fill="#fff" d="M917 1563c-1.6 13.5 2.8 27.4 2 40.5-.5 8.8-4.2 18.6-5.5 27.5-5.8-5.6-10.5-15.7-11.4-23.6-.6-5.2.7-25.8 2.4-30.3.6-1.6 10.5-16.2 12.4-14.1Z" class="fill" data-original-prefix="fill"/><path id="fill-teeth3" class="fill"  fill="#fff" d="M1135 1631c-.4-8.9-4.4-17.8-5.1-26.5-1-13.6 3.6-27.7 2-41.5 2.2-2.4 11.9 13 12.5 15 2 6.8 2.7 27.3 1.2 34.3-1.3 6.3-5.5 14.8-10.8 18.7z" class="fill" data-original-prefix="fill"/><path id="fill-teeth2" class="fill"  fill="#fff" d="M1154.1 1604.9c-3.4-2-5.1-22.3-3.9-26.2.8-2.6 8.9-5.2 10.2-8.8l5.1-10.9c3.8 3.4 5.1 7.2 4.3 12.2-.7 4.5-5.2 22.3-6.9 26.2-.9 2.2-6.1 9-8.8 7.5" class="fill" data-original-prefix="fill"/><path id="fill-teeth1" class="fill"  fill="#fff" d="M885 1559c.4.4.7 7.1 3 10.5 2.7 3.9 10.5 6.9 11 10-.8 4.7-.7 23-4 25.4-2.5 1.8-7.7-4.5-8.7-6.7-1.6-3.6-6.3-22.5-7-27-.6-3.9 2.5-15.6 5.8-12.3Z" class="fill" data-original-prefix="fill"/><path id="outline-shading-mouth2" class="outline"  fill="#000" d="M918 1443.5c.8 5.3 5.6 13.8 10.1 16.9 11.5 8.3 16.2-.3 22.4-9.4 2.5 5.4 3.4 11.5 6 17 1.4 2.8 5.7 12 7.5 5.5l4-11.5c1.6 7.5 6.3 15.4 11.5 21 4.3 4.7 18.8 15.4 24.6 9.6 2-2.1 8.3-17.9 10.8-22.2 1.2-2.2 7.8-13.8 9.7-13.3 1 .2 8.5 13.2 9.7 15.3 2.4 4.5 7.3 17.7 9.8 20.2 3.8 3.8 10.5.4 14.4-1.8 10.5-5.9 18.5-17.2 21.7-28.8l4.2 12.3c.3 1.2 1.9 2.4 2.8 1.7.6-.4 5.8-11.3 6.5-13 .8-2 2.8-12 4-12 6.8 10.7 12.9 18.4 24.5 7.5 8.6-8 9.3-23.8 7-34.5 3.5-3.1 21.1 16.1 26.6 16.9 9.1 1.4 17.6-11.8 19-19.9 3.5-20.5-12.9-39.2-30.9-46.2l-12.7-4.8c15.4 0 28.2 2.9 41.1 11.4 4.8 3.1 12.2 10.9 17.6 11.4 6.2.6 10.1-4.1 10-10-.4-19.3-25.8-38.1-39.7-48.8 15.4 2.4 34.6 11.8 45 23.5 7.8 8.8 19.1 25.1 19.1 37s-6.4 28.5-9.2 32.8c-3.3 5.3-11.7 5.4-13.4 10.6-.9 8.1-2.1 16.4-2.5 24.5-1.5 29 1.4 45.2-10.8 73.2-3.6 8.2-12.7 20.4-14.9 27.1-4.2 12.8-.7 26.4-9.1 38.9-3.2 4.8-8.4 6.7-11.2 10.8-1.7 2.5-2.4 6.1-4.2 8.8-4.5 6.7-14.6 23-21.6 8.9-1.6-3.3-1.3-12.9-6.7-6.2-1.4 1.7-1.9 4.4-3.5 6.5-3.7 4.7-17.7 19.6-23.5 19.5-2.2 0-4.5-4.1-6.6-5.4-7.9-5-21.1-6.3-29.2-1.4-7.3 4.4-9.5 13.6-18.1 6.8s-6.4-10.8-20.1-9c-5.6.7-11.4 12.6-16.9 12.1-2.8-.2-11.4-11.1-18.5-12.6-6.3-1.3-17.5.7-23 4.2-2.6 1.7-4.1 5.6-7.5 5.4-5.7-.3-19.8-15.8-23.6-20.5-1.2-1.5-4.4-10.6-7.1-6.9-2.5 3.4-.6 9.9-7.2 12.7-7 3-14.9-11.2-18.1-16.4-1.2-1.8-1.2-4.3-2.6-6.4-2-3-6.8-5.4-9.5-8.5-10.4-11.9-6.7-27.7-10.7-41.3-.8-2.6-5.6-8.5-7.3-11.7-18.4-35.7-16.4-45.6-18.4-84.6-.4-7.7-.6-20.7-2.2-27.8-1.5-6.2-11.1-6.1-14.2-11.8-3.4-6.1-9.3-29.6-8.6-36.4 1.2-10.3 16.2-31.2 24-38 10.5-9.2 26.2-16.5 40-18.5l-21.5 17c-7.2 6.4-26.8 32-14.8 39.9 9 5.9 16.7-4.5 23.7-9.1 12.7-8.4 25.3-11.8 40.7-11.8l-17.3 7.2c-18 9.4-33.1 32.7-22.1 52.8 1.7 3.1 8.6 10.4 12 11.1 9.1 1.7 20.7-15.4 29.5-18 .6 6.4-.9 14.3 0 20.5zm-37.1 40.6c-12.3-.5-17.1-20.2-22.8 1.5-3.4 13 1.2 26.4 9.4 36.5 1.5 1.8 12.7 13.1 13.9 12.9.8 0 2.5-2.3 2.8-3.2 2.9-7.1-3.2-12.2-4.2-19.2-1.5-9.8 0-18.7.9-28.4Zm301.8-8.9c-3.2.8-6.3 6-8.8 7.3-2.1 1.1-7.2 1-7.8 3.2-.5 1.7 3 10.8 2.9 14.8 0 3-1.5 13.9-2.2 16.8-.9 3.6-3.9 5.7-3.9 10.2s1.4 7.1 3.7 7.4c1.9.3 15-14.4 16.8-17 5.7-8.5 9-18.8 7.3-29.2-.5-3-4.4-14.5-8-13.6Zm-284.8 10c-4-2.3-6.5 9.9-6.8 12.5-1.2 10.5 3 38 8.7 47.1 1.9 3 5.4 6.9 9.2 7.3 3.7-15.6 12.6-29.2 21-42.5-2.3-.4-1.7-2.9-2.7-3.5-1.5-.9-7-1.9-9.7-3.1-4.7-2.2-12-7.7-15.6-11.4-1.2-1.2-3.8-6.2-4.2-6.3ZM1139 1552c8.3-2 11.9-12.2 13.9-19.6 3.1-12.1 6.1-33.4 1.1-44.8-3-6.9-5.8 1.7-8.3 4.1-3.9 3.8-11 9.3-16 11.6-2.5 1.1-7.8 1.8-9.1 2.7-.7.5-.5 1.8-1 2.7-.3.4-1.7.4-1.6.9 0 1 7.9 12.3 9.2 14.8 4.8 8.8 9.1 18 11.8 27.7Zm-197.7 5.7c8.1 8.1 9.5 0 10.5-7.3.8-5.6 2.7-20.6 1.7-25.4-3.6-17.2-21.3-15.9-21.6 3.6 0 6.8 4.6 24.3 9.4 29.2Zm161.5-44.5c-5 1.3-8.5 9.3-8.8 14.2-.2 4 2.4 28.5 3.8 31.3 2.5 5 7.5 0 9.8-2.7 6.8-8.3 11.6-30.7 4.5-39.5-2.7-3.3-4.8-4.4-9.2-3.3zM1023 1544c-.7-.7-.8-7-5.1-9.4-8.9-5-21.8-.8-32-4-10.4-3.3-9.4-13.1-16.1 1.8-2.9 6.4-9.1 24.4-6.3 30.7 1.1 2.4 17.8 15.6 21.2 17.8s18.2 11.7 21.1 10c3.1-5.6 9.3-9.5 12.6-14.9 1.8-2.8 4.1-11.5 4.6-11.9 1.6-1.7 1.7.5 2.1 1.4 1.6 3.6 2.1 6.8 4.5 10.5 3.3 5.2 9.2 9.3 12.4 14.6 3.1 1.9 15.5-5.9 18.9-8.1 4.5-2.9 22.9-17 23.9-21.1 2.2-9.7-6.6-28.3-10.9-37.2-4.9 1-7.8 5.2-12.7 6.7-9.2 2.8-28.2-1.6-33.7 6.3-.9 1.2-2.6 8.9-4.5 7zm-136 18c-.7-.6-3.5 0-4.5.9-6 6.2 2.4 31.6 14.6 27.6 4-1.3 3.8-9.4 2.8-12.9-1.1-3.9-7.2-4.1-9.8-7.2-2.1-2.5-2.7-8.2-3-8.5Zm274.1 0c-.3.3-.9 6-3 8.5-2.6 3.1-8.7 3.3-9.8 7.2-1 3.4-1.2 11.6 2.8 12.9 13.4 4.4 20.2-24.5 14.1-28.1-.9-.5-3.5-.9-4-.4Zm-216.4 7.2c-1.5.4-5.1 4.6-6 6.1-3.4 5.6-5.6 32.3-4.8 39.3 1.3 10.9 15.2 18 19.5 3.5 1.7-5.6 2.6-21.4 2.5-27.6 0-1.1-5.8-19.7-6.5-20.5-1.2-1.4-3.2-1.3-4.8-.8Zm153.3-.1c.2 6.6-5.4 14.7-6 20.6-.5 4.5 1 25.3 2.4 29.4 4.2 12.1 16.9 7.3 19.1-2.9 1.1-5.2 0-16.8-.6-22.6-1-9.7-1.7-25.5-14.9-24.5m-180 1.9c-20.5 3.8-17 28.7-9 43 4 2.9 10.4-17 10.7-19.8.9-7.5-2.9-15.5-1.8-23.2Zm218 43c2.5 1.8 7.2-9.1 7.7-10.8 3.9-12.8 1.6-30.1-13.7-32.2.5 7.4-2.8 16.2-1.9 23.4.3 2.7 6.4 18.5 7.9 19.6m-148.2 10.2c1.4.8 4.8 8.6 9.5 11 11.1 5.8 20.2-6.4 20.7-16.7.8-13.7-7.2-7.7-16.5-8.6-8.4-.8-15-4.8-21.8-9.2-5.5-3.5-13.6-14.6-14.7-1.4-.5 5.1 1.4 7.5 1.8 11.2s-2 5.9.5 10.7c4.8 9.3 18 1.3 20.7 2.8zm93.1-31.1c-2.1-1.5-19.7 12.7-23.9 14.4-2.3 1-7.9 2.3-10.5 2.5-10.5.9-18.8-5.4-16.4 11.4 1 7.3 7.9 15.8 16 15.1 9.4-.8 11.9-11.6 14.6-12.4 4-1.3 12.3 5.7 18.9-1.1 4.3-4.4 1.3-8.4 1.5-12.5 0-2.3 1.9-4.8 2-8.1 0-1.9-.8-8.5-2.2-9.4Z" class="shading" data-original-prefix="shading" opacity=".2"/><path id="outline-shading-mouth1" class="outline"  fill="#000" d="M1041 1343c6.1.5 12.7-1 17.5-5 1.5-1.3.9-3.7 2.8-2.9 10.1 7.9 37.9 17.4 43.8 28.2 3.6 6.5 4.6 17.5-1.8 22.6-5.6 4.5-20.8 10.8-28 15-4.9 2.8-9.7 6.6-14.7 9.3-7.4 4.1-25.5 14.5-32.6 16.4-2.9.8-5.2.8-8.1 0-14.5-3.8-42.2-22.5-56.3-30.7-6.2-3.6-21.2-9.1-23.2-15.8-5.5-18.4 15.7-28.3 28.7-35.4 2.3-1.2 15.5-8.6 16.5-8.7 2.9-.3 4.2 2.9 6.7 4.2 4.2 2.3 10 3.2 14.7 2.8-.3-5.1-3.3-11.3-1.8-16.3.5-1.6 12.5-13.9 14.5-14.4 3.9-1 8.2-.3 11.6 1.9 1 .7 10.8 11.1 11.2 11.8 2.1 5-1.2 11.8-1.5 17" class="shading" data-original-prefix="shading" opacity=".2"/><path id="outline-mouth3" class="outline"  fill="#000" d="M889 1333c-5.3 4.2-13 5.4-19.2 8.3-14.9 6.9-32.6 26.5-36.3 42.7-1.6 7 3.5 22.7 6.2 29.8 2.6 6.9 5 10.8 13.3 10.2-1.4-9 4.2-18.1 9.6-24.9 2.1-2.6 22-22.5 24.4-20.1-1.7 6.5-8.8 10.4-13 15.5-8.1 10-12.3 23.6-9.5 36.5 1.2 5.6 11.1 25.8 15 30 .6.7 7.1 6.3 7.5 6.5 3 1.5 6.9-6.1 7.8-8.2 1.7-3.8 2.1-7.7 3.7-11.3 4.4-10.2 9.4-18.4 18.5-25-5.1 13.9-9.5 44.6 1.5 56.1 4.8 5 9.9 2.7 14.3 4.7 2.8 1.3 3 5.7 4.8 6.1 2.6.6 7.2-4.9 14.1-2.1 5.2 2.1 8.6 15.6 13.9 16.1 2.5.2 10.2-12 18.4-9.4 6.3 2 15.5 20.8 23.6 23.5 6.9-4 4.5-12.6 5.8-18.9 1.5-7.6 8.3-12.6 9.4-22.6.8-7-1.6-26-4.4-32.4-.9-2.1-5-10.5-6-11.9-3.1-4.5-15.9-10.2-20.8-7.1l-4.2 11.1c-4.8-4.4-9.5-9.2-14.5-13.5-3.7-3.2-10-6.8-13-9.9-4-4.2-15.5-27.8-15.7-33.2 0-3.1 8.4-13.8 10.8-16.8 1.4-1.8 9.5-11.6 10.2-12.2 5.4-4.1 29.2-2.8 35.7.2 8.4 3.8 12.4 12.1 18.5 17.5 5.2 4.5 2.5-1.7 2.5-3.6s.9-3.2.8-4.8c-.2-5.4-6.7-9.2-9.9-13.1-2-2.4-5.5-6.3-7-8.3-.8-1-4.7-7.3-4.8-8-.7-3.3 8.6-12.4 11.3-13.2 3.6-1-.5 5.5-.5 6.6-.4 5.2 5.9 4.1 9.3 5.6 1.2.5 3 2.7 3.2 2.7s2-2.2 3.2-2.7c8-3.5 11.7.6 7.3-12.2 1.6-1.7 12.5 9.1 12.9 11.7.6 4.2-17.5 23.2-21.1 27.5l-.8 12.7c1.7.4 2-.7 3-1.5 6.5-5 11.1-13.4 19-17 6.8-3.1 28.3-4.1 34.7-.8.7.3 8.8 10.1 10.2 11.8 2.6 3.1 11.9 14.4 11.8 17.8 0 2.8-5 14.1-6.6 17.3-7.1 15.2-9.7 14.8-21.2 24.8-5.3 4.6-10.4 9.6-15.5 14.5-2.2.9-1.4-5.6-2.2-7.7-3.4-8.6-19-1.6-22.7 3.8-.6.8-6.7 12.4-6.9 13.1-1 3.2-.3 6.1-.9 9.1-2.6 12.3-5.2 19.6.2 32.2 1.5 3.5 4.6 6.8 5.8 10.2 2.5 7.2-.5 15.2 5.8 21.2 9-2.3 17.4-21.3 24.4-23.6 7.7-2.4 15.9 9.6 18.4 9.4 5.6-.5 9.8-18.8 18.7-17.5 2.3.3 7.6 3.9 9.4 3.5s2-4.8 4.8-6.1c3.9-1.8 8.9 0 13.3-3.7 11.5-9.9 8.1-43 2.5-56 1.6-1.7 11.3 10.4 12.4 12.1 5.1 7.8 6.1 15.5 9.7 23.3 1 2.1 4.8 9.8 7.8 8.2.4-.2 6.9-5.8 7.6-6.5 7-7.6 16-30.2 15.4-40.5-1.3-22.7-10.7-22.7-21.5-37.5-5.3-7.2 2.8-2.4 6 0 11.8 8.6 28 25.5 26.5 41 11.4 1.6 13.7-11.7 16.3-20.2 4.6-15.6 5.3-18.8-3.1-33.4-7.4-13-16.3-22.7-29.9-29.1-6-2.8-14.1-4.1-19.2-8.3 9.3.7 19.7 2.8 29.2 5.3 7.4 1.9 14.4 3.9 20.7 8.3 3.2 9.3 27.6 34.6 28 42 .2 3.7-8.2 22.5-10 27.9-2.5 7.2-2.6 16-10 21-1.9 1.3-8.4 2-9 3.2-4.1 7.9-1.4 38-1.9 48.8-1.1 21.6-7.6 43.1-20.5 60.5-.9 1.2-2.6 1.5-3.6 2.7-4.3 5.6-2.8 18.6-4.3 26.5-1.2 6-5 13.1-5.6 18.4-.4 3.5 1.3 7.7.8 9.7s-10.7 8.6-13.2 9.9c-2.2 1.2-5.7 1.5-6.5 2-.6.4-5.4 10.9-7.2 13.3-2.1 2.7-11.1 11.3-14 12.1-4.1 1.2-7.9-10.3-9.9-13s-2.3 2.3-3.6 4.3c-4.3 6.7-25.1 26.6-32.4 28.6-1.7.5-3.3.7-5 .5-.4-5.9 3.2-9.9-1.5-15.1-8.2-9-20.9-.3-24.3 8.8-1.8 4.9-1.6 20-8.6 18.1-4.6-1.3-20-25.6-23.2-30.8-5.7 8.9-12.2 19.9-19.5 27.4-11.2 11.7-9.9-11-13.8-18.2-3.8-7.1-14-12-21.1-6.7-6.7 5-2.9 9.6-3.1 16.4-3.5 3.5-24.3-13.8-27.5-17-1.3-1.3-10.5-12.2-11-13-.7-1.4-.2-6.3-2.6-3.3-2.1 2.7-6.2 14.3-10.2 13.3s-12-10.2-13.7-12.4c-2.1-2.7-6.6-12.8-7.2-13.2-.8-.5-3.8-.6-5.8-1.7-2.3-1.2-11.9-7.4-13-9-2.1-3.2.4-6.9 0-11-.7-6.8-5.9-15.3-6.8-24.2-.5-5 .6-10.7-.6-15.4-1-4-8-10-10.7-14.3-15.3-24.4-17.6-52.1-17.9-80.2 0-5.4 3-18.2 0-22.8-.8-1.2-7.8-1.9-10.4-3.8-7.2-5.3-6.2-13-8.6-20.4-1.9-6-10.7-24.3-9.8-28.7.5-2.7 4.3-7.5 6-10.1 7-10.8 15.7-20.6 22.5-31.5 5.9-4.3 13.2-6 20.1-7.9 9.7-2.6 19.8-4.7 29.2-5.3h.2Zm15 128c-1.4-1.5-7.8 8.9-8.4 10.1-10.6 19.9-8.6 50.8-1.8 71.7 1.1 3.3 9.4 22.1 12.8 21.2 4.4-1.1 10.8-28.9 12.8-34.3 4.3-11.7 13.6-22.1 8.6-35.6-4.8-.6-12.2 1.2-15.9-2.9-1.4-1.5-8.5-21.7-8.8-24s.8-4 .8-6.2Zm240 103c.6-.4 6.8-10.5 7.5-12 6.3-12.1 9-33.7 9.5-47.5.6-14.9-4.3-31.4-14.6-42.5l-2.2 9.8c-4.9 13.6-4.6 25.2-23.1 22.4-5.2 13.7 4.3 23.9 8.6 35.6 3.1 8.4 6 27.5 11.8 33.2.7.7 1.4 1.8 2.4 1.1Zm-262.3-85.7c-1-.9-4.6-2-6.6-3.9-4.2-3.9-7.8-13.1-14-4.7-13.3 17.9-4.1 44.9 7 61.7 1.6 2.4 11.5 15.7 13.3 15.7.5-8 1.2-16.5.5-24.5-.4-5.4-3.1-12.3-3.1-18s6-23.3 2.8-26.2ZM1167 1547c1.7.4 2-.5 3-1.5 17.4-17.9 32.6-50.9 18.4-74.4-6.5-10.8-10.8-.4-16.9 4.9-2 1.7-5 1.6-5.5 4.5-.8 4.5 4 18.3 4 24s-3.3 14.8-3.6 21.2c-.3 6.3 1.6 14.6.6 21.3m-64.5-53c-1.4.3-3.3 6.6-3.8 8.2-3 10.7-2.9 45.1 1.1 55.5 4.8 12.4 18.2-4.3 20.4-11 3.9-11.7-6.4-31.5-11.4-42.1-1-2.2-3-11.4-6.3-10.7Zm-86.8 33.3c-3.2-2.8-9.7 3.2-15.8 1.3-2.1-.7-8.7-7.5-10.5-9.5-2.6-2.9-3.4-8.8-8.2-7.4-12.2 3.5-20.5 24.1-21.2 35.9-.9 13.6 2.4 21.7 11.5 31.5 9.8 10.4 24 15.7 36.1 23h2.3c2.1-6.4 6.2-12 8.1-18.4 3.7-12.2 7.9-47.3-2.3-56.2zm23.4 74.6c1.1.7 3.4 0 4.6-.6 21.8-13.1 47.5-23.3 45.2-53.7-.9-11.9-9.2-33-22-36.1-4.4-1.1-5.5 5-8 8-1.7 1.9-7.3 7.9-9.2 8.8-9.2 4-14.3-9-20 5-5.4 13.2-2.6 37.5 1.5 51.1.7 2.2 7.1 17.1 7.9 17.6ZM885 1559c-3.2-3.3-6.4 8.4-5.8 12.3.7 4.5 5.4 23.4 7 27 1 2.2 6.2 8.5 8.7 6.7 3.4-2.4 3.2-20.7 4-25.4-.5-3.1-8.3-6.1-11-10-2.3-3.5-2.6-10.1-3-10.5Zm269.1 45.9c2.7 1.5 7.8-5.3 8.8-7.5 1.7-3.8 6.1-21.6 6.9-26.2.8-5-.5-8.8-4.3-12.2l-5.1 10.9c-1.4 3.6-9.4 6.1-10.2 8.8-1.2 3.9.5 24.2 3.9 26.2M917 1563c-1.9-2.2-11.8 12.5-12.4 14.1-1.7 4.6-3 25.2-2.4 30.3.9 7.9 5.6 18 11.4 23.6 1.4-8.8 5-18.6 5.5-27.5.8-13.1-3.7-27.1-2-40.5Zm218 68c5.3-3.9 9.4-12.4 10.8-18.7 1.5-7 .8-27.4-1.2-34.3-.6-1.9-10.4-17.4-12.5-15 1.5 13.8-3.1 28-2 41.5.7 8.7 4.6 17.6 5.1 26.5zm-186-62c-2.4-2-8.2 6.4-9.4 8.1-7.7 11.1-15.4 39-8 50.8 2 3.2 16 15.2 19.5 16.5 5.6 2.2 6.5-1.9 7-6.9 2.4-23.1-3.5-46.4-9-68.5Zm151 0c-1.5 11-6.9 22.6-8 33.5-.9 9-2 26.3-1 35 .2 1.9 1.7 8 3.6 8.4 2.4.6 18.8-13.3 20.9-15.9 8.3-10.5 3.8-32.3-1-44-1.2-2.9-11-19.9-14.5-17m-82 44c-3.5 0-6.1 2.5-9.6 2.9-12.7 1.6-29.1-13.9-41.4-16.9v24.5c0 .6 3.2 8.2 4.1 8.9 6.5 5.2 18.9-.4 24.4 5.6 2.6 2.9 4.3 10.3 10.6 5.5 1.1-.8 11.9-13.1 11.9-14.1v-16.5Z" class="outline" data-original-prefix="outline"/><path id="outline-mouth2" class="outline"  fill="#000" d="M1122 1332c-.2 0 .2 1.6 0 1.9-1 .8-8.1-5.8-10.2-7.1-10-6.1-19.8-8.3-31.2-9.8-2.9-.4-6.9.7-9.5-.5-1.5-.8-4.5-7.4-6.5-9.5-7.8-8.7-15.6-10.2-25.8-13-1.1-.3-.6-1.9-.7-2 3.1-3.8 16.2-9.3 20.8-9.8 7.9-.9 5.5 4.4 6.5 9.1 2.3 10.7 9.3 19.6 21.3 18.8 5.1-.3 5.6-4 7.9-4.1 1.4 0 6.6 2.9 8.2 3.8 9.4 5.2 15 12.5 19.3 22.2z" class="outline" data-original-prefix="outline"/><path id="outline-mouth1" class="outline"  fill="#000" d="M1011 1292s.4 1.7-.7 2c-10.2 2.8-17.4 4.1-25.4 12.5-2 2.1-5.6 9.2-7.2 9.9-3.4 1.4-13.5 1-18.1 1.8-12.5 2.1-23.6 8.7-33.1 16.9.2-.9-.5-2.8-.5-3 .8-2.7 8.7-13.3 11-15.6 2.5-2.4 14.7-10.5 17.6-10.4 2.7 0 3 5.1 11.9 3.9 10-1.3 16.2-10.1 17.5-19.6.4-2.6-2.4-6.7 2.8-8.2 3.5-1 21.7 5.6 24.3 9.8Z" class="outline" data-original-prefix="outline"/></g><g id="04_Eyes" data-trait="OG-bandaid"><defs>
    
  </defs>
  <path id="fill-skull" class="fill"  class="st1" d="M696,1136c-.3-2.4,0-2.8-2-4.5-3.8-3.1-19.7-8.2-21.1-10-.9-1.1,0-9.9.2-12,1.5-9.1,10.6-28,15-37,7.5-15.3,16.9-29.8,25.4-44.6,2.9-2.6,22.1-1.3,27-1,6,.4,15,1.2,20.9,2.1,3.1.5,18.9,5.6,19.6,4.9s-.2-2.5-1-3.4c-1.5-1.7-7.4-5.7-9.6-7.4-8.9-6.4-18.8-11.3-28.3-16.7-2.1-2.2,1.8-10,3.2-12.9,18.8-41,87.4-78.6,126.5-98.5,24-12.2,48.7-26,74.6-32.4,60.6-14.9,133.1-14.5,190.1,12.4,45.2,21.3,98.3,47.1,135.2,80.8,14.7,13.4,32,30.7,35.3,50.9-12.1,6.7-28,14-37.9,23.6-1.1,1.1-2.3,1.7-2,3.5,7.2-1.2,14.2-3.9,21.5-5,9-1.4,25.1-3.1,34-3.1s10.1.7,11.8,1.1c2.6.6,24.2,41,26.9,46.3,5.6,11.3,17.1,35.2,14.8,47.2-.6,3.1-5.1,3.1-7.7,4.3-3.1,1.4-11.1,4.9-13.3,6.7-1.7,1.4-1.8,3.3-2,3.5-3.4,2.5-8.7,4.1-12,7l-19.9,2.9c-6.4-28.3-15.3-59.3-32.3-83.2-3.2-4.5-11.1-14.8-15.3-17.7-9.4-6.6-26.9-7.8-35.5-13.5-6.2-4.1-19.1-22.3-26-29-19.1-18.4-34.9-29.3-62.4-18.3-13.1,5.2-37.8,24.8-39.6,39.5-.7,6.1,3.7,18.8,5.7,25.2,5.1,16.5,12.8,32.3,18.3,48.6-.7,3.3-34.2,15.6-39.1,23.2-4.4,6.8-9.2,18.8-12.5,26.5-5.1,12-9.6,24.6-13.5,37,3.8-2.9,7-6.8,10-10.5,9.2-11.4,16.7-25.8,25.5-36.5,6.3-7.6,25.6-22.8,34.1-28.9s10.2-5,16.9,3c15.1,18.1,36.9,56.7,46.4,78.6,1.3,3,4.9,10,4,12.7-13.4,9.6-26,22.4-39.6,31.5-14.1,9.4-30,14.5-46.9,16.1-21.3,2-41.9-10.2-62.4-13.9,11.3,10.2,27.4,18.1,20.9,36.4-.5,1.5-.8,3.1-2.9,2.6-2.9-4.8-22.3-15.4-24-19-3.5-7.5-4.8-8.6-9.2-15.3-6.5-9.9-11.7-21.7-10.3-33.7-6,2.7-8.5,1.9-14.5,0,2.4,9.8-3.1,22.9-8.2,31.3-3.3,5.6-9.6,10.4-10.8,16.7l-25,19c-.2-.3-2.3.8-2.9-3.6-2.5-19.3,7.7-22,20-32.8,1-.8,2.5,0,1.9-2.6-19.9,5.8-42.2,16.9-63.4,14.9-44-4.3-65.6-34.1-99.3-57.7-32.9-23-68.4-36.7-107.1-46.9-4.7-1.2-11.5-1.2-15.2-2.3-2.8-.8-7.3-5.8-11-6h0ZM980,1183c1.8-2-16.4-44.5-18.8-49.7-3.2-6.7-6.3-13.3-11.2-18.8-19.9-10.8-40.9-20.3-60.6-31.4-14-7.9-26.5-19-42.3-23.2-1.4,1.4,6.9,7.5,8.1,8.4,26.9,20.6,64.8,41.2,87.9,66.1,11.7,12.6,20.2,32.4,33.8,46.2,1,1,1,2.8,3.2,2.3h-.1ZM993.5,1233v1c.7-.3.7-.7,0-1"/>
  <path id="fill-bandaid2" class="fill"  class="st1" d="M1227.3,1043.7c4.2,4.2,19,3.9,25.9,5.6,10.1,2.5,15,5.5,21.8,13.2,13.3,15.2,24.8,38.7,29.7,58.3,1.5,6.1,4.9,20,4.3,25.7-.7,7.3-7.5,10.7-13,14-15.9,9.4-48.1,24.5-65.5,30.5-3.6,1.3-10.7,4.9-13.4,1.4-14.5-27-27.9-54.6-44.9-80.1-2.5-3.7-12.1-14.8-12.3-17.8,0-1.3.5-3.2,1.4-4.2l52.2-34.3,1.5-4c-2.1-2.1-31.4,12.5-35.7,14.8-8.1,4.4-21.1,14.6-28.6,17.4-5.7,2.1-7.7-4.4-10.5-8.9-6.3-10.2-16.9-34-16.2-45.8s17.8-26.6,27.4-31.7c29.9-16,43.9,5.7,61.6,26.7,4.5,5.3,10,14.8,14.4,19.1h-.1ZM1173.7,1008.2c-4,1.2-3.8,8.2.8,8.9,7.9,1.1,7.1-11.2-.8-8.9M1139.2,1027.2c-3.9,3.9,1.1,12.3,7.3,7.8s-2.8-12.4-7.3-7.8M1171.7,1031.2c-3.9,1.2-3.9,8,.8,8.8,9.5,1.6,6.8-11.1-.8-8.8M1202.8,1044.8c3.8-3.8-2.4-11.5-7.3-7.8-6.2,4.6,2.4,12.7,7.3,7.8M1163.2,1063.8c3.1,3.1,9.2,1.4,8.8-4.2-.6-9.8-14.9-1.8-8.8,4.2M1224.3,1174.7c6.8,5.5,33.6-5,41.4-8.5,8.6-3.9,29.9-14.7,31.9-24.1,3.1-14.6-13-47.2-21.3-59.8-4.1-6.2-13.8-21-21.6-20.2-13.5,1.4-59,26.9-67.1,37.9-3.3,4.4-3.2,6-1,11.1,4.5,10.4,14.6,26,20.7,36.2,3.1,5.1,13.8,24.8,17.1,27.4h0Z"/>
  <path id="fill-bandaid1" class="fill"  class="st1" d="M1252.8,1072.2c1.2,0,2.2-.4,3.5,0,3.3.9,18.5,24.7,20.9,29.2,4.2,7.8,13.2,27.6,11.8,36.1-1.5,9.1-26.3,20.4-34.4,23.6-4.2,1.7-21.7,7.9-24.8,6.8-1.9-.6-14.8-22.6-16.8-26.2-2.7-4.7-18.1-33.2-17.7-35.9.2-1.3,1.4-2.8,2.3-3.8,7.2-8.1,44.8-28.6,55.3-29.7h-.1Z"/>
  <path id="shading-eyes" class="shading"  class="st0" d="M929,867l-29.9,17.6c-30.3,20-71.8,72.2-84.9,106.1-7.7,19.8,15.6,44.8,28.9,57.8,38.7,19.6,77.6,39.1,113.5,63.5,14.3,19.1,24.9,49.3,40,66.9,6.5,7.6,13.5,4.7,18,8,1.1.8,4.3,7.4,5,9,1.1,3-.8,7.2,4.1,7.8,4.3.5,3.4-4.4,4.9-7.7.8-1.9,3.6-8.2,4.9-9.1,2.2-1.6,10.3-2.3,13.8-4.2,10.7-5.8,33.6-58,43.2-69.8,15-11.9,32.4-20.3,48.5-30.5-7.7-10.2-13.6-22.5-17.2-34.7-.9-2.9-3.4-11.1-3.5-13.5,0-3.7,9.2-13.4,11.2-17.3,3.1,20.7,8.2,42.3,22,58.8l54-27.8c15.3-16.7,36.6-36,26.7-60.7-12.6-31.4-53-81.9-80.9-101.1l-32.3-19.2h22.5c4.4,0,41.6,19.2,48.2,22.8,47,25.9,92,62.9,123.7,106.3,2.8,3.8,12.4,14.4,8.3,18.7-3.2,3.3-25.6,8.5-31.7,10.8-36.2,13.6-77.5,29.7-110.7,49.3-2.6,1.5-18.5,11.3-19.1,12.4-3.5,6.1,7.2,13.2,10.8,17.3,10.8,12.8,19.2,28.1,27.2,42.8,1.4,2.5,7.2,16,7.9,16.6.8.6,5.6-.6,5.8-.9.4-.6-.2-2.2-.4-3-1.6-6.5-10.4-24.4-13.7-31.3-.9-1.9-8.6-14-7.8-14.6l8.8.2c7.3,13.8,15.4,28,26.8,38.8,29.8-25.1,64.3-43.3,97.9-62.9l32.4.5c4,2.4,10.3,24.6,15.6,29.4,1,1,5.9,2.1,4.4,4-.3.4-7.4,2.6-9,3.5-8.2,4.3-25.9,12.5-32.3,17.7-2.7,2.2-.5,5-3.2,6.8l-238.1,134.9c-14.5-10.8-30.2-21-43.8-32.8-7.8-6.8-14.2-15.6-22.1-21.9-2.7,1.3-6.1-.6-8.4.4-1.5.7-16,17.3-19.6,20.5-8.4,7.5-27.4,23-36.6,28.4-2.1,1.2-4.3,3.2-6.9,2.2l-240-133.1c-1.4-1.6-.5-3.7-2.6-5.4-6.6-5.3-25.2-13.8-33.7-18.3-1.4-.7-7.4-2.5-7.7-2.8-1.4-1.9,3.7-3.1,4.9-4.6,3.6-4.4,11.6-27.2,15.1-28.9h33c21.4,12.9,44.7,24.7,65.5,38.5,18.6,12.3,35.7,27.9,54.2,40.8,28.2,19.8,67.5,44.8,99,58,17.4,7.3,25.6,4.6,43.5.8,6.2-1.3,19.7-6.3,24.5-6.4,2.5,0,7.8,3.9,12.8,3.8,4.6,0,9.2-3.9,11-4,2.1,0,11.4,3.5,14.7,4.3,10,2.3,27.5,6.9,37.3,6.7,11.2-.2,38.4-15.9,49.2-21.9,20.6-11.3,40.6-23.9,59.9-37.2l-49.9-76.9c-9.6,7.8-19.8,14.8-29.1,22.9-16.3,14.2-29.5,34.3-41.8,52.2-4.9,7.2-6.3,13.4-13.3,19.7-2.1,1.9-22,16.2-23.4,16.6-1.9.6-28.2.6-30.1,0-1.3-.4-19.7-13.4-21.9-15.1-8.5-7-9.6-13.4-15.3-21.7-18.6-27.2-30.8-43.5-56.9-64.1-49.5-39-98.9-60.6-157.6-82.4-5.5-2-29-7.4-31.3-10.6-1.7-2.4-1-4.6.2-7,4.8-9.4,21.7-29.2,29.3-37.7,33.5-37,80.1-70.5,125.2-91.8,3.3-1.6,24.3-11.1,25.9-11.1h22.5Z"/>
  <path id="outline-eyes12" class="outline"  d="M1075,1274c2.1.5,2.3-1.1,2.9-2.6,6.6-18.3-9.6-26.2-20.9-36.4,20.4,3.6,41.1,15.9,62.4,13.9,16.9-1.6,32.9-6.7,46.9-16.1,13.6-9.1,26.2-21.9,39.6-31.5.9-2.7-2.7-9.7-4-12.7-9.5-21.9-31.3-60.5-46.4-78.6-6.7-8-8.7-9-16.9-3s-27.8,21.3-34.1,28.9c-8.8,10.7-16.3,25.1-25.5,36.5-3,3.7-6.1,7.6-10,10.5,3.9-12.4,8.4-25,13.5-37,3.3-7.7,8.1-19.8,12.5-26.5,4.9-7.6,38.4-19.9,39.1-23.2-5.5-16.2-13.2-32-18.3-48.6-2-6.4-6.4-19.1-5.7-25.2,1.8-14.7,26.5-34.2,39.6-39.5,27.5-11,43.2,0,62.4,18.3,6.9,6.7,19.9,24.9,26,29,8.6,5.7,26,7,35.5,13.5,4.2,2.9,12.1,13.2,15.3,17.7,16.9,23.9,25.9,54.9,32.3,83.2l19.9-2.9c2.8,5.2,2.2,12.1,3.3,18.2.8,4.3,4.4,14.4,4.5,17.5,0,1.8-10.3,15.7-8.8,17.3,2.2,2.4,7.6-14.3,12-10.5,0,2,.2,4,0,6-.9,8.1-7.9,29.6-10.7,38.3-3.2,9.6-6.2,16.4-12.8,24.2-3,3.5-24.9,26.6-27.1,27.9-11.1,6.1-35,7-48.8,11.2-4.6,1.4-8.8,4-13.6,4.9-.2,1.8,2.2.9,3.2.7,4.8-.8,8.7-3.8,13.5-4.5,3.7-.6,9.9-1.1,13.8-1.2,3.2-.2,8-.4,11,0,5.7.7-3.1,3.3-4.2,3.8-9.5,4.7-20.6,11.1-30.3,14.7-19.3,7-76.2,9.8-96.2,5.3-7.3-1.7-22.2-17.8-29.8-23.2-2.9-2-11.6-7.8-14.4-8.6-4.2-1.2,1.3,9.2.5,10-14.9,1.2-22.3-6.1-30.5-17.1-.7-1-.3-2.6-.5-2.9l-.2.3ZM1227.3,1043.7c-4.4-4.3-9.9-13.8-14.4-19.1-17.8-21-31.7-42.7-61.6-26.7-9.6,5.1-26.8,20.2-27.4,31.7s9.9,35.6,16.2,45.8c2.8,4.5,4.8,11.1,10.5,8.9,7.6-2.8,20.5-13,28.6-17.4,4.2-2.3,33.6-16.9,35.7-14.8l-1.5,4-52.2,34.3c-.8,1-1.4,2.9-1.4,4.2.2,2.9,9.8,14.1,12.3,17.8,17,25.5,30.4,53.1,44.9,80.1,2.7,3.5,9.8,0,13.4-1.4,17.4-6,49.6-21.1,65.5-30.5,5.6-3.3,12.3-6.7,13-14,.6-5.7-2.8-19.7-4.3-25.7-5-19.6-16.4-43.1-29.7-58.3-6.8-7.7-11.7-10.7-21.8-13.2-6.9-1.7-21.6-1.5-25.9-5.6h.1Z"/>
  <path id="outline-eyes11" class="outline"  d="M696,1136c.4,3.7-.6,12.1-1.9,15.6-.4,1.2.6,1.6-1.5,1.4-7.9-1.7-16.8-6.9-24.1-8.9-12.6-3.4-24.6,3.3-23.5-15.6,1.7-29.3,21.8-78.4,37.6-103.4,4.3-6.9,19.5-29.6,26.4-31.7,3.1-.9,7.2,1.5,8.9.5.4-.3,3.7-6.5,5.2-8.3,54.7-66.9,129.4-124,216-141,63.4-12.5,145.8-10.7,207.5,9.5,61.9,20.2,144.3,82.1,181.3,135.7,1.3,1.9,2,5.1,2.2,5.3.4.4,7.2-2.1,9.3-1.8,1.3.2,8.1,5.5,9.2,6.8,24.3,25.9,52.8,92.5,55.3,127.7.4,5.4.4,11-4.6,14.2-15.5.2-29.3,6.3-43.8,11.2-1.1,0-3.2-16.1-2.5-18,.2,0,.3-2.1,2-3.5,2.2-1.8,10.2-5.3,13.3-6.7,2.6-1.2,7.1-1.2,7.7-4.3,2.3-12-9.3-35.8-14.8-47.2-2.6-5.4-24.3-45.8-26.9-46.3-1.8-.4-9.7-1.1-11.8-1.1-8.9,0-25,1.7-34,3.1-7.3,1.1-14.3,3.8-21.5,5-.4-1.8.9-2.5,2-3.5,9.9-9.6,25.8-16.9,37.9-23.6-3.3-20.2-20.7-37.5-35.3-50.9-36.9-33.7-90-59.5-135.2-80.8-57-26.9-129.6-27.3-190.1-12.4-25.9,6.4-50.6,20.2-74.6,32.4-39.1,19.9-107.7,57.5-126.5,98.5-1.3,2.9-5.3,10.6-3.2,12.9,9.5,5.4,19.4,10.3,28.3,16.7,2.3,1.6,8.2,5.6,9.6,7.4.8.9,1.8,2.7,1,3.4s-16.5-4.4-19.6-4.9c-5.9-.9-14.8-1.7-20.9-2.1-4.9-.3-24.1-1.6-27,1-8.5,14.8-17.8,29.3-25.4,44.6-4.4,9-13.5,27.8-15,37-.3,2.1-1.1,10.9-.2,12,1.4,1.7,17.2,6.9,21.1,10,2.1,1.7,1.8,2.1,2,4.5v-.4h.1Z"/>
  <path id="outline-eyes10" class="outline"  d="M707,1142c3.7,1.1,10.5,1.1,15.2,2.3,38.7,10.2,74.2,23.9,107.1,46.9,33.7,23.6,55.2,53.4,99.3,57.7,21.2,2.1,43.4-9.1,63.4-14.9.7,2.6-.9,1.8-1.9,2.6-12.3,10.8-22.5,13.5-20,32.8.6,4.4,2.7,3.3,2.9,3.6.4.5.9,3.1.5,4-.5,1.1-13.2,13.7-14.6,14.5-1.8,1-15.2,3.3-15.9,2.6-.2-2.8,1.7-4.6,2-7.5.2-1.5.6-2.8-1.4-2.4-4.5.9-14.5,8.5-18.5,11.5-5.8,4.3-16,15.7-20.7,18.3-10.6,5.9-66.5,3-80.8,1-20-2.8-35.2-11.2-52.9-20.1-.8-.4-7.6-2.1-2.2-2.8,2.3-.3,5.6,0,8,0,4.6.2,11.4.6,15.8,1.2,4.8.7,9.5,3.7,14.5,4.5,1.1.2,3.5,1.1,3.2-.7-20-9.2-42.5-9.1-62.9-16.6-9.1-11.9-23-21.4-31.3-33.7-5.7-8.5-17.6-45.9-18.8-56.2-.2-2,0-4,0-6,.7-5.3,9.8,9.8,10.4,10.6.4.5,1.1,3.7,2.6,1.9,1.7-2-9.5-16.9-9.8-18.7-.2-1,3.9-15,4.4-18.2,1.1-6.1,1.3-12.2,2.3-18.2h.1Z"/>
  <path id="outline-eyes9" class="outline"  d="M998,1254c1.2-6.3,7.5-11.1,10.8-16.7,5.1-8.5,10.6-21.5,8.2-31.3,6,1.8,8.5,2.6,14.5,0-1.4,12,3.8,23.9,10.3,33.7,4.4,6.7,5.8,7.8,9.2,15.3-3.3,0-4,4.3-7,4-.9-5.7-7.9-7.8-12-12.5-1.2-1.4-2.9-3.6-3.9-5.1-.9-1.3-.8-4.1-1.7-4.4-5.5-1.6-6,5.6-9.4,9.5-3.8,4.4-11.3,6.9-12,12.5-1.4,1.3-5.2-4.4-7-5"/>
  <path id="outline-eyes8" class="outline"  d="M980,1183c-2.2.5-2.2-1.3-3.2-2.3-13.6-13.8-22.1-33.7-33.8-46.2-23.1-24.8-61-45.4-87.9-66.1-1.2-.9-9.5-7-8.1-8.4,15.8,4.1,28.3,15.3,42.3,23.2,19.7,11.1,40.7,20.6,60.6,31.4,4.9,5.5,8.1,12.1,11.2,18.8,2.5,5.2,20.6,47.7,18.8,49.7h.1Z"/>
  <path id="outline-eyes7" class="outline"  d="M993.5,1233c.7.3.7.7,0,1v-1Z"/>
  <path id="outline-eyes6" class="outline"  d="M1224.3,1174.7c-3.3-2.6-14-22.3-17.1-27.4-6.1-10.3-16.2-25.9-20.7-36.2-2.2-5-2.3-6.6,1-11.1,8.2-11,53.7-36.6,67.1-37.9,7.8-.8,17.5,14,21.6,20.2,8.3,12.6,24.4,45.2,21.3,59.8-2,9.4-23.2,20.2-31.9,24.1-7.8,3.5-34.6,14-41.4,8.5h0ZM1252.8,1072.2c-10.6,1.2-48.1,21.7-55.3,29.7-.9,1-2.1,2.5-2.3,3.8-.4,2.8,15,31.2,17.7,35.9,2.1,3.6,15,25.5,16.8,26.2,3.2,1.1,20.6-5.2,24.8-6.8,8.2-3.2,32.9-14.5,34.4-23.6,1.4-8.5-7.6-28.3-11.8-36.1-2.4-4.5-17.6-28.2-20.9-29.2-1.3-.4-2.2,0-3.5,0h.1Z"/>
  <path id="outline-eyes5" class="outline"  d="M1139.2,1027.2c4.5-4.5,13.7,3.2,7.3,7.8s-11.2-3.9-7.3-7.8"/>
  <path id="outline-eyes4" class="outline"  d="M1202.8,1044.8c-4.9,4.9-13.5-3.2-7.3-7.8,4.9-3.6,11.2,4.1,7.3,7.8"/>
  <path id="outline-eyes3" class="outline"  d="M1163.2,1063.8c-6.1-6.1,8.3-14.1,8.8-4.2.3,5.7-5.8,7.3-8.8,4.2"/>
  <path id="outline-eyes2" class="outline"  d="M1171.7,1031.2c7.6-2.3,10.4,10.4.8,8.8-4.7-.8-4.8-7.7-.8-8.8"/>
  <path id="outline-eyes1" class="outline"  d="M1173.7,1008.2c7.9-2.3,8.8,10,.8,8.9-4.6-.7-4.9-7.7-.8-8.9"/></g><g id="05_Right Ear" data-trait="KBDS tattoo"><path id="fill-ear-rt" class="fill"  fill="#fff" d="M1715.7 184.2c3.2-.7 6.5-.5 7.2 3.3 2.3 39.5-3.6 77.2-9 116-.7 4.7-.2 11.1-1.1 15.9-5 26.9-24.5 58.9-29.7 86.3-5.7 30.4-4.7 64.8-10.9 95.1-7.8 38.3-25.1 77.8-33.7 116.4l-71.9 122.1c-45.8 31.3-94.9 58.3-141.8 88.2l-35 81-84.6 77.3c-5.6 2.9-16.3-.8-22.4-2.4-27.7-7.2-48.3-18.1-70.9-35.1-16.5-12.5-27.2-20.9-37.6-39.4-6-10.5-10.9-22.9-14.5-34.5 26.8-59.3 58.7-116.4 86.8-175.2 4.9-58.7 6.7-117.8 11.4-176.5 36.5-47.5 77-92.5 114.8-139.2 47.2-35.9 96.4-69 144.9-103.1 66.1-31.9 127.9-72.1 197.8-96.2Z" class="fill" data-original-prefix="fill"/><path id="outline-shading-ear-rt" class="outline"  fill="#000" d="M1670.9 280.1c2.8 3.9-18.7 26.3-21.9 30.5-38.8 50.2-75.5 128.6-72.1 193 .8 14.1 7.3 33 2.8 45.7-3.7 10.4-14 27.3-15.4 37.7-.4 2.9.9 5.2.6 8 10-1.2 15.8-10.8 21.2-18.3 17.3-24.1 30.1-53.1 43.5-79.5 1.1-2.2 1.5-2.2 1.2.2-.8 9.2-6.8 26.8-9.7 36.3-15.4 50.2-37.8 100.7-66.2 144.8-15.3 23.7-22.2 32.4-46.1 47.9-25.3 16.4-36 17.1-63.9 25.1-14.1 4.1-56 16.5-65.5 25.5-11.9 11.1-30.7 52.3-40.3 68.7-13.5 23-27.7 45.9-43.8 67.2-3.6 4.8-10.5 10.9-13.3 15.7-5.6 10-6.8 27-11.1 37.9 7.3-4.2 14.2-10.7 20.5-16.5 12.8-11.9 26.4-25.8 38.5-38.5 12.3-12.9 33.6-33.7 41.2-48.8 7.8-15.6 13.6-33 21.3-48.7 14.9-4.8 30.4-7.3 45.1-12.9 49.9-18.9 92.7-57.3 134-90 1.4-.3 1.9 0 1.5 1.5-.9 3.2-10.1 20.8-12.2 23.8-4.2 6-36.3 28.6-44.5 34.5-29 20.7-59.7 39.2-87.9 61.1-15.7 27-28.8 55.8-43.5 83.5l-80 71c-6.2 2.7-28.5-4.8-35.8-7.2-32.1-10.8-54.1-27.3-79.9-48.6-8.9-15.6-7.9-22.5 2.7-36.2 24.9-31.8 50.6-57.8 73.4-92.6 33.1-50.5 54.8-106.4 86.2-157.8 11.1-18.2 27.9-36.1 31.3-57.7 1.4-9.1 1-19.2 1.1-28.4l54 6.5c10.6 14.3 17.8 31 26.5 46.5.8-.4 10.6-11.5 11.3-12.7 4.2-7.8 8.8-30.6 10.8-40.2 5-24.6 7-49.5 8.5-74.5 1.9-20.4-5.1-39.9 3.1-58.9 17.4-40.4 50.1-78.2 81-109l66.7-44.4c3.2-.7 24.4 7.8 25.2 8.9Z" class="shading" data-original-prefix="shading" opacity=".2"/><path id="outline-ear-rt2" class="outline"  fill="#000" d="m1695 240-22 38.5-26.1 18.2c-.8 3.6 6.6 23.8 8.6 28.3 1.6 3.6 9 14.4 9.3 15.8.5 2.3-2.4 5.9-3.8 7.7-2 2.6-31.5 31.6-33 29.5-2.1-6.5 4.9-10.6 6.4-15 1.1-3.1-.9-32-1.6-37.4-.1-1-.6-4.4-2.4-3.6s-12.5 12.2-14.5 14.5c-2.7 3.2-19.7 25.9-19.7 28l24.3 37.6c4.3.9 8.3-6.7 11.4-9.6 4.5-4.2 25.3-22.8 29.6-23.4 3-.5 6.4.2 9.4 0 .9.8-4.4 6.8-4.8 8.7-1.8 8.2-2.5 22.9-3.2 31.8-2.2 27.4-1.5 53.7-1 80.9.1 6.7 1 20.1-2.6 25.5-12.9 9.5-26.3 18.3-39.4 27.6-2.1 1.5-5 6.6-7.6 3.4-2.2-2.8-5.1-21-5.5-25.5-.2-2.3-1.1-11-.6-12.5.7-2.4 4.7-6.5 6.1-9 .9 1.7 2.3 8.5 4.9 8 .8-.2 12.4-10.6 12.6-11.5l1-83.5c-1.7-.4-2 .5-3 1.5-5.3 5.5-14.9 19.2-20.1 22.9-.9.7-10.5 4-10.9 3.6 0-4.8-3.8-10-6.6-13.9-1.8-2.5-24.8-30.3-26.4-29.1-8.2 17.3-13.6 35.5-17 54.4 5.5 4.7 46.2 18.4 47.8 21.3 2.8 4.9.8 11.9 1.1 16.8 2.2 30.3 7.3 60 13.4 89.7 1 4.8 7.8 30.4 6.5 32.6-.7 1.3-13.1 7.8-15.7 9.8-8.8 6.6-14.2 15.2-18.9 25-6.4 13.5-5.6 24.2-18.8 33.2-2.7 1.8-24.4 14.1-25.9 14.2-1.7.1-14.9-5.3-15.4-6-.6-1 0-2.5 1-3.5 2.5-2.6 16-7.1 16.1-10l-18.1-62.5c-1.9 8.1-4.6 15.9-6.5 24-3.1 12.9-4.5 28.7-8.2 40.8-1.7 5.5-8 7.6-11.3 12.7 5.4 4.5 17 9.4 21.4 14.4 3.1 3.5-4.4 5.2-6.3 6.6-30 22.8-47.7 53.1-72.6 79.5-3.3 3.5-12.5 8.7-13.6 10.4-1.7 2.7 0 5.7-1.8 8.2-.8 1.1-17 9.8-19.7 11.3-3.2 1.7-24.5 12.2-25.9 12.1-1.3 0-1.7-.6-2.4-1.5 2.9-4.7 2.3-11.4 1.9-16.8-1.9-22.1-9.7-52-14.9-74.1-.4-1.5.7-1.8-2-1.5l-39 100.5 39.7-29.4c.8-.2 13.8 5.3 14.3 5.9 1.9 2.1-3.2 2.3-4.1 3.6s-1.2 5.3-1.6 7.1c-3.7 18.6-4.5 39.3-5.3 58.2 8.7-6.8 17.8-12.7 27.5-18 .8 1.7.9 5.7.3 7.3-.4 1.3-11.9 10-13.9 12.1-4.5 4.7-8.8 12.6-13.4 16.5-2.8 2.3-17.5 11-20.8 12.2-7.5 2.8-6.9-8.9-6.8-13.8.3-10.5 1.1-21.5 2-32 .9-9.8 3.1-19.7 3.5-29.5l-23.5 18.5-1 2 16.6 62.5c-13.1 9.4-27 17.3-42.6 22-.7-5.5 7-4.9 6.9-10.3 0-5.4-5.8-22.1-7.7-28.4-4.1-13.9-8.8-27.7-13.8-41.2-9.1 16-17.5 33.8-22.4 51.6-2.8 10-5.6 21.2-3.8 31.7.6 3.8 4.1 8.9 4.8 12.2.3 1.5 0 1.8-1.5 1.5-3.8-.7-25.2-18.5-26.7-22.3-.8-1.8-.9-3.3-.8-5.2.1-5.6 1.3-20.7 2.3-25.8.8-3.8 25.3-35.9 29.8-43.2 29.6-48.1 48-108.9 82.2-153.8 11.1-14.6 22.6-22.7 31-41 8.4-18.1 20.8-75.1 17.6-94-.7-3.8-10.8-27.6-9.8-28.7 13.4 6.2 26.8 13.4 39.3 21.2 3.9 2.5 14.9 8.7 17.2 11.8 3 4 10.2 28.6 12 35 2.4 8.5 6.3 34.7 11.4 39.5 12.7 12 29.6-12.1 35.2-21.9 27.1-47.2 34.2-98.5 26.7-152-1.3-9.2-7-27.1-6.7-35.2.2-6 16.5-39.2 20.3-46.5 22.2-41.8 45.9-63.9 79.1-95.9 9.7-9.4 21.4-23.7 31.6-31.4 6.4-4.9 14.6-7.2 21.2-11.8 3.7-2.5 26.5-23.7 29.7-20.8Zm-93 184c1.3 1 7.3-6 5.5-7.9-3.3-5-29.7-37.9-33-37.1-1.8 2.2-4.6 4.9-3.1 8 10.8 11.4 23.2 23.2 30.5 37Zm44.8 62.8c1.1-2 0-37.3.2-43.3l5-55.5c-3.2 3.8-11.4 10.8-12.1 15.4-2.2 16.5.4 41.4 0 59.1 0 2.4-1 4.5-1.1 6.9-.2 7.5.2 15 0 22.5 1.2-1.1 7.4-4.6 7.8-5.2ZM1544 478v24.5c0 3.7 3.5 16 5 20 1.3 3.7 6.8 12.2 7 14.1.8 5.4-7.7 8.8-5.9 14.8 6.5 26.2 9.3 53.3 18.9 78.6.6.5 5.1-6.5 6-7.5 2.6-2.9 10-8.1 10.1-11-8.1-39.8-12.3-80.3-12.1-120.9-8.7-6.1-18.6-10.9-29-12.7Zm-7 93c-2.3-.4-1.6.1-2.2 1.3-2.2 3.9-7 16-6.7 20.1 7.7 21.5 10.8 48.2 19 69.1.4 1 .4 2.4 1.9 2.5.6-4.7 8.2-12.2 7.8-16.2-10.5-24.4-15.3-50.7-19.8-76.8m-138 123 3-1.5c7.8-13.2 23-26.8 30.5-39.5 1.9-3.3 1.9-4 .8-7.7-2.6-8.4-16.5-31.1-27.6-24.2-6.7 4.2-11.6 26-14.3 33.5l7.7 39.4Zm23 42c2.5-5.8 6-11.2 8.5-17 5.2-12.3 10-26.5 8-40-11.9 16-22.9 32.6-33.2 49.6 3 18.6 6.8 37.2 11.7 55.4 23.6-19.1 43.3-42.3 62.8-65.3-1.4-2.2-5.7-10.8-8.2-10.5-5.3 3.7-47.2 30.1-49.7 27.9Zm-21.2 78.9-21.3-102.8c-2.5 3.4-10.4 8.3-10.6 12.4 4.4 27.5 14.2 55.5 17 83.1.2 2.4-1.2 15.2 2 14 3.6-1.3 8.5-5.9 12.9-6.7m-79.3-28.9v1c.7-.3.7-.7 0-1m-.5 2c-2.1-.5-2.3 1.1-3.2 2.3-2.4 3.1-5 7.4-7.2 10.8-1.8 2.8-12.3 19.2-10.6 20.9l5.9 1zm-14 142c2.4.4 4.4-.5 3.8-3.2l-24.3-82.8c-2.4 2.1-3 5.2-2.3 8.2 8.1 25.7 18.2 51.2 22.8 77.8" class="outline" data-original-prefix="outline"/><path id="outline-ear-rt1" class="outline"  fill="#000" d="M1204 941c-4.4-.4-9.8-3.6-13.7-5.8-20.9-12-28.2-35-42.8-53.2-1.1-2.6-.7-7.5-.5-10.5.9-20.4 13.5-35.9 21.8-54.2 6-13.1 11.8-33.9 18.9-45 2.6-4 7.1-7.8 10-12 45.7-65.6 39.8-168 48.8-244.2 35.7-51.4 72.9-101.7 114.9-148.1 13.5-14.9 32.5-37.2 47.6-49.4 43.2-34.6 113.6-72.6 164.2-95.8 39.4-18.1 93.7-41 135.7-50.3 4.3-1 18.4-4.8 21.4-2.6 1.3.9 4.2 14.2 4.5 16.7 4.6 32.3.3 83.6-2.9 116.9-.9 9.4-3.1 31.6-6.5 39.5s-15.6 18.9-20 29c-9.8 22.5-20.5 85.6-16.1 109 2.2 11.6 6.5 11.2 4.1 25-11.5 64.2-42.8 133.8-77.1 188.9-32.9 52.8-80.7 93.9-134.8 124.2-18.8 10.5-28.8 10.7-42.1 29.9-15.2 21.8-20.8 40.5-31.1 63.9-5.5 12.6-19.7 19.4-29.9 28-7.3 6.2-13 13.2-19.5 19.5-6 5.7-26.7 27.8-31.5 30.5-2.3 1.4-20.6 4.8-23.6 4.5-10.9-1-38.2-12.2-49-17.1-3.9-1.8-12.1-5.3-13-9.5 25.5 10.4 46.2 11.5 70.3-2.2 26.5-15 64-49.9 79.7-75.5 5.8-9.5 22.9-46.4 24.6-56.2 1.1-6.9-2.7-5.6 5.1-11.8 33.2-26.6 76.4-40 110.3-69.7 69.6-60.8 114.1-151.8 132.5-241.5 3.7-18 2.5-30 3.4-47.5 1.9-35.7 9.5-78.4 22-112 6.8-18.1 16.8-28.7 20.7-48.3 2.5-12.5 4.6-27.1 6.2-39.9 3.1-25.3 4.5-50.9 2.1-76.4-42 13.5-81.8 33.1-120.7 53.8-46.8 25-95.6 54.9-139.9 84.1-51.1 33.7-90.6 69.4-129.4 116.5-21 25.5-42.6 53.1-60.3 80.7-13.9 63.2-10.7 129.3-22.2 192.8-13.1 26.3-23.4 54.1-36.6 80.4-5.6 11.1-14.2 23.2-19.1 33.9-2.8 6.3-15 38-15.7 43.3-3.2 23.6 13.3 50.9 28.9 67.4Z" class="outline" data-original-prefix="outline"/></g><g id="06_Left Ear" data-trait="stitches"><path id="fill-ear-lft" class="fill"  fill="#fff" d="M326.7 182.1q1.65-.45 3.3.3l180.7 78.4c55.2 39.7 111.9 77.8 165.3 119.7l109 135.9c10.5 65.4 16 132 25.2 197.8 24.6 50.1 52.6 98.7 77.3 148.7 1.5 3.1 5.4 9.5 5.5 12.5.2 4.7-8.5 15.9-11.2 20.8-15.1 27.1-18.8 33.2-43.9 52.1-22.9 17.2-44.3 28.5-72.5 35.5-8 2-18.1 5.7-25.3.5l-82.9-79.1c-9.9-22-17.5-45.3-28.1-66.9l-154-109c-23.7-34.4-41.7-73.1-64.9-108.1-9.8-43.7-27.6-90.2-34.9-134.1-5.9-35.7-6.9-73.6-12.5-109.5-9.3-20.9-22.7-40-30.5-61.5-1-40.6-6.8-81.2-8.3-121.7-.1-3.4-1.1-11.4 2.8-12.4Z" class="fill" data-original-prefix="fill"/><path id="outline-shading-ear-lft" class="outline"  fill="#000" d="M555 465c11.2-3.5 14.9 1.4 16 12 2.1 1.8 16.5-9.5 20-10l-10.9-17.4c.3-1 1.1-1.5 1.9-2.1 1.4-1.1 16.7-10.1 17.7-10.4 7.1-1.5 9.3 8.8 11.3 13.8 1.7 1.1 8.9-4.9 9-6.4.1-3.9-9.1-10.3-6.9-16.9 3.4-1.8 14.2-13.5 16.4-13.7 5.2-.5 9.4 12.1 13 12.1.6 0 10.1-6.6 10.4-7.1 2.5-3.6-12.6-10.2-12-16.4.3-2.7 13.2-13.6 14.7-17.6 9.8.2 13 9.4 17.9 16 2.9.7 12-11.5 19.7-7.7 5.8 2.9 4.3 9.1 4.8 9.7.2.2 2.8 0 4.5 1 2.5 1.4 5.3 6.7 5.5 9.6.7 9.6-11.2 13.9-10.9 16.8.3 3.6 12.4 11 9.4 15.7-.7 1.2-6.7 4.1-8.5 5.6-7.4 6.1-8.6 13.6-17.1 2.9-2.4-3-3-8.9-7-7-.5.2-7.6 5.7-8 6-2.9 3.5-1.9 6.5-.2 10.1 1.3 2.9 7.5 8.7 5.2 10.8-4 .8-18 10.8-20.4 10.6-3.8-.3-8.8-11.5-11.9-11-1.2.2-6.5 5.8-8.7 6.5-.6 3.6 9.5 10 8.1 15.7-4.1 1.4-20.1 16.7-23 14.6-.8-.5-3-9.5-7.1-11.4-4.6-2.1-12.3 7.2-16.9 8.6-1.3 1.9 7.2 8.7 5.5 12.9-10.2 6.3-23.7 23.3-30.5 4-3.5 2.2-7.2 2.5-7 7.4.4 11.8 9.9 54.8 15 65.1.9 1.8 10.2 12.8 11.6 13.4 8.9-15.4 16-32 26.5-46.5l54-6.5c0 9.4-.3 19 1.1 28.4 3.4 21.8 18.3 36.8 29.3 54.7 16.2 26.3 28.1 50.9 41.7 78.3 8.6 17.2 17.3 34.4 26.8 51.2 5.6 3 9.3-3.8 14.3-2.3 3.7 1.1 5.7 9.7 7.2 9.8 11.3-5.3-4-10.3-2.3-18.2.8-4.2 14-14.8 18.3-14.8s7.1 6.5 10 9.1c1.7 0 7.1-10.9 8.3-12.7.5-.8.7-2.8 2.2-1.3.7.6 6.2 13.5 7.5 16 2.1 3.9 8.9 12.6 8.5 16.4-.4 4.7-6.8 10.2-7.6 13.6-.6 2.6 1.2 8 .3 12.3-1.1 5.1-7.6 14.1-13.4 14.4-5.1.2-10.1-8.1-12.9-2.7-1.4 2.8 1.9 4.8 2.9 7.1 3.8 8.6-3.7 12.3-3.3 14.3.2 1.4 15.6 20.2 18 23.1 11.4 14.1 28.9 30.4 38.4 44.6 4.5 6.8 4.6 12.1 7.6 19.4l-8 11.9c-29.4 24.7-56.9 43.6-94.7 53.3-15.7 4-23.6 7.7-27.2-12.2-11.3-7.1-23.8-14.3-34-23-9.1-7.7-27.1-24.6-34.5-33.5-3.9-4.7-10.2-16.9-14-20-3.5-2.8-12.8-2.7-9.5-11.5-1-.7-3 1.2-3.9.5-.5-.3-4.4-9.3-4.6-10-.8-3 .8-4.7.4-7.2l-17.1-43.5c-30.8-21.7-67.7-36-97.2-59.3-22.1-17.6-40.3-39.2-57.5-61.5 2.9 1.1 6 3.6 8.5 5.5 33.3 26.6 65 55.6 102.5 76.5 25.3 14.1 50.5 23.2 79 29 2.7 1.1 4.3 11.6 5.1 12.3.7.5 4-.3 5.9.6 1.5.7 2.2 4.1 3.6 4.4 1.1.3 4.4-1.9 5-3 1.1-2.2-1.4-5-.4-6.8.3-.5 8.3-6.3 9.7-7.8 1-1 4-4.6 4-5.7 0-1.2-8.9-16.3-10.4-18.6-11.6-18-24.4-21.2-43.9-28.1-20.8-7.4-48.7-11.2-67.2-18.8-10.8-4.5-44.7-26.1-52.8-34.2-6.9-7-18.2-26-23.9-35.1-11.2-17.8-21.4-36.5-30.4-55.6-2.1-4.3-12.6-31-14.1-31.9-3.6-2.3-13.8 12-21.1 6.2-2.9-2.3-2.9-7.8-7.2-6.6-2.3.6-11.1 17.2-15.8 11.3-1.2-1.5-9.4-20.6-9.7-22.8-1.6-9.4 12.8-15.7 11.7-19.8-.4-1.6-4.3-4.3-4.6-7.3-.5-5.7 9.5-9.7 13.3-13.3 2-2 5.2-7.7 5.6-7.9 3.1-1.8 7.2 4.9 9.2 4.7 1.3-.1 12.6-8.9 13.2-9.9 2.8-4.5-8.1-12.4-3.6-17.5.8-.9 7.4-3.6 9.3-4.7 1.7-.9 5.6-4.5 6.4-4.6 3.8-.8 7.5 7.4 9 7.8 1.2.4 8.3-3.9 8.9-4.9 1.3-2-2.6-4-3.6-6.5-3.3-8.1 2.4-9 4.5-13.6 2.3-5-5.4-33.6-7.5-40.5-10.2-34.4-29.6-73.9-49-104-17.3-27-36.6-39.4-45.3-72.7-.5-1.9-.9-3.8-.7-5.8 2.1-.3 3.6.3 5.4 1.1 6.9 2.9 19.6 11.2 26.5 15.5 19.8 12.2 42.8 26.9 61.4 40.6 31 22.8 73.3 79 88.5 114.5 1.3 3 3.8 7.8 4.2 10.8.6 4.6-2.3 28.2-1 29.5Zm-79.2 95.2c-1-1-5.7-2.4-7.7-3.8s-5.5-6.5-7.5-6.5c-1.5 0-9.5 6-9.4 7.3 9.4 13.5 17 33.6 33.9 38.7.1-3.3 1.3-5.8.8-9.2-.3-2.1-9.1-25.5-10-26.5Zm248 306c-6-3.3-11.6 4.7-15.3 4.7-4.8 0-10-8.3-12-7.9-3.2.6 1.9 5.3 2.2 6.7 2 7.5-4.7 12.2-3.3 15.2 24.2 26.5 48.8 52.5 75.5 76.5l8 5.5c-1.5-7.4-3.3-14.8-5.5-22-5.3-17.5-6.1-16-16.5-29.5-12-15.7-23.2-32.1-33.2-49.3Z" class="shading" data-original-prefix="shading" opacity=".2"/><path id="outline-ear-lft" class="outline"  fill="#000" d="M806 969c.3 2-2.7 3.5-4.1 4.4-13.5 8.6-43.4 19.9-59.4 20.7-7.5.4-15-.6-22.1-3-14.3-13.3-27.4-28.1-41.4-41.6-8.4-8-27.9-20-33.5-27.5-1.8-2.5-9.1-18-9.4-20.7-.5-4.7 5.6-10.5 3.3-15.3-1.9-4-10.7-2.9-13-5-1.7-1.5-7.6-16.5-9.7-20.3-7-12.7-13.1-22-25.8-29.2-43-24.6-77.7-42.6-113.5-78.5-34.8-34.8-72.6-95.9-90-142-4.4-11.8-.3-13 1.5-24.3-.4-1.7-10.4-4-12-5.2-5.6-4.2-20.7-65.1-22.6-75.4-2.6-14.5 3.6-16.6 4.6-29.5 2.6-36.6-7.3-92.6-28.2-122.9-8.1-11.7-8.8-10-11.5-25.5-6.1-34.9-11.1-107.2-6.2-141.6.4-2.5 3.3-15.8 4.5-16.7 1.7-1.2 4.6-.9 6.6-.7 37.4 3.5 114.5 37.1 150.5 53.6 50.8 23.2 121 61 164.2 95.8 21.4 17.2 40.6 44.2 60 64.1 2.5 5 .4 11.8 1.3 17.2 7 2.2 14.7 3.2 20.9 7.6 28.1 35.2 54.5 71.7 80.4 108.6 3.2 38.5 4.8 77.6 9.7 116.3 3.5 27.5 7.5 51.9 15.6 78.4 1.8 5.9 6.7 15.1 7.2 20.8s-3.3 15.2-1.8 19.8c1.1 3.3 10.8.8 13.7 1.8 11.1 29.6 25.4 58.1 41 85.5 3.1 5.5 9.6 13.2 11.7 18.3 1.9 4.7 3.5 20.4 2 25-12 13.8-21.3 38.6-35.9 49.1-5.5 3.9-12.2 6.2-17.5 10h-1v-2c2.9-4.8 7.7-9.1 10.8-13.7 9.7-14.4 18.5-34 16.1-51.8-.7-5.3-13.2-37.8-16-44-2.3-5-6.5-10-9-15-6.6-12.6-12.8-25.4-19.8-37.7l-7.9 5.1c-1.1 1.5 6.4 9.4 5.8 13.2-.3 1.7-7.3 10.5-8.9 11.2-6 2.7-7.8-11.7-9-12.5-1.4-1-12.8 7.4-13.5 9-1.7 3.7 8 13.6 7.6 18.3-2.6 1.2-10.6 9.9-12.5 9.6-3.3-.5-7.2-15.8-8.7-16.8-2-1.2-10.3 4.1-10.8 5.5-1 3.2 16.7 38.7 19.7 44 4.7 8.1 30.5 41.7 31.1 45.9.9 6.1 2 18.7 2.1 24.9s-4.7 9.9-9.1 14c-2.5 2.3-15.2 12.6-17.5 13.5-1.9.7-1.7-1-1.3-2.3 4.5-15.6 5.7-18.9 1.9-35.3-4.6-20.5-14.9-41.8-24.6-60.4-7.4-14.2-18-35.5-26.7-48.3-.5-.8-1.5-2.4-2.3-2.5l-6.4 4.4c-.6 2.5 7.8 9 6.8 12.7-.2.9-11.6 12.3-12.4 12.7-1.7.7-1.3-.7-1.7-1.2-1.7-2.4-7.4-13.3-9.3-13.7l-12.3 9.5c0 1.3 10.5 13 10.8 16.2.1 1.6-9.4 10.9-11.5 11.1-5.5.5-10.5-13.5-12.5-14.7-2.2-1.3-12.5 9.4-12.6 10.4-.3 3.6 12.2 14.7 8.8 19.1-.7 1-11.8 9.5-12.6 9.5-3.5 0-7.2-13.5-11.5-14.7-3.4-1-12.3 8-11.6 11.6.5 2.5 6.1 13.9 7.7 16.3 4 5.9 20.6 19.7 26.8 25.2 12.5 11 56.2 47.9 70.5 49.5 12.6 1.4 33.2-4.1 45.5-8ZM659 395c1.4-.3 1.6.2 2.5 1 2.9 2.5 10.6 15.3 13.2 15.9 1.8.5 10.5-7 10.2-8.3-24.3-25.1-52-47.5-80.6-67.5-47.7-33.2-104-67.4-155.3-94.7-38.6-20.6-78.3-39.9-120-53.5-3 38.2.9 78.6 8.3 116.2 3.8 19.1 12.7 27.5 19.5 44.5 13.1 33 21.4 79.3 23.3 114.7.5 8.6-.6 17.5 0 26.1 1.6 26.2 12.7 54.1 19 79.5 2.1-1.9 12.5-11 12.8-12.6.7-3.5-7.1-7.5-3.9-12.9.8-1.3 10.6-10.7 11.5-10.5 1.9 1 5.1 9.6 5.6 10 .4.3 1.7 0 2.3-.1 1-.3 13.8-11.6 15.7-13.3 9.6-9 2.1-7.2-.6-15.5-1.4-4.4 8.9-10.2 12-13l8.2 10.9c2.5-1.5 15.5-11.3 15.1-13.1-.9-3.1-7.4-9.7-6.7-13.3 3.2-.9 9.8-10.2 11.6-10.6 2.3-.5 7.5 10.7 8.5 13l12.8-8.2c-2.4-68.9-41.9-135-94.9-177.2-10.7-8.5-22.5-15.3-33.4-23.6l-22.5-39c3.2-2.9 26 18.3 29.7 20.8 7.1 4.8 15.5 7.3 22.3 12.7 40.8 40.7 81.6 73.9 109.2 125.8 4.4 8.2 19.1 37.7 19.8 45.3s-6.9 34.8-8 45.9c-.5 4.9-1.6 14.6-1 19 .2 1.5 0 2.5 1.6 3.4 3.7-3.2 24.5-12.5 26-15 1.7-2.6-8.9-12.9-7.5-14.9l15.4-8.1 7.6 13c1.4 1 23-13.9 26.5-15.9 1-1.6-6.9-10.8-6.4-13.4.3-1.8 11.2-8 13.2-9.6l8.2 12c2 .3 17.8-10.2 17.4-12.4-.4-2-9.2-9.6-8.8-12 .2-.9 11.5-10.8 12.3-10.6 2.8 1.7 8.6 13 11.1 13 7.6-4.1 14-10 20.5-15.5l-12.9-15.1c-.3-1.7 9.9-10.1 10-13.4Zm151 369c1.1.8 7.8-10.4 7.8-12.3-6.1-15.8-17-31.4-19.7-48.3-3.6-23.2-3-47.6-5.1-70.9-1.9-21.3-4.7-42.7-7-64-2-18.8-1.7-40.1-12.6-56.4-13.5-20.1-34.8-45.3-50.5-64.5-7-8.6-14.5-16.9-21.4-25.6-4.1-2.8-9.4 5.1-13.1 7-1 2.1 8.7 10.2 8.5 13.4-2.4 1.4-11.8 11-13.9 9.6-.1-.1-.5-2.3-1.2-3.3-2.4-3.2-5.2-6.2-7.4-9.7l-22.5 16 9 15.4c-2.4 1.2-11.1 9.2-12.6 9.5-2.4.6-7.3-12.3-10-13.9-2.8 1.8-18.5 10.8-18 13 .6 2.4 8.7 13.2 7.5 14.9-3 .4-14 9.4-15.9 8-.7-2.5-6.4-14.2-8.4-13.9l-25.7 14.9c-.7.9 6.7 11.4 6.9 13.7.2 2-12.5 9.1-15.2 8.2-2.5-.8-4.6-10-7.2-11.9l-36 22c-1 1.7-.7 10.9-.5 13.5 1.7 25.2 25.4 94.1 47.7 107.3 7.9 4.7 15.7 4.1 19.5-5.1s5.4-24.4 8.3-34.7c1.8-6.4 9-30.9 12-35 2.3-3.1 13.2-9.4 17.2-11.8 12.5-7.8 25.9-15 39.3-21.2 1 1.1-9.1 24.9-9.8 28.7-3 17.6 8 69.1 14.8 86.8 6.8 17.9 15.5 25 25.5 39.5 21.7 31.6 40.5 66.1 58.7 99.9 1.1.8 10.8-3.8 11.5-4.9 2.1-3.3-5.9-11.1-5.4-13.4.2-1.1 12.4-10.6 13.8-9.6.6.4 4.3 11.7 6.5 12.9 2-2.8 10.6-7.8 12-10 2.5-3.9-5.8-11.2-6.4-15.4 11.1-10.2 11.5-16.9 18.9 1.4Zm-261.3-79.7c-1-1-3-1-4.2-2.3-2.4-2.7-9.6-43.6-11.6-51.4-7.5-29.1-17-55.5-33.3-80.7-1.7-2.6-9-11.1-8.5-13.2.5-1.7 5-4.9 4.9-8.2 0-1.1-5-8.6-6-9.1-1.5-.8-14.9 8.4-15.1 9.2-.9 4.4 10.4 14.6 9.1 16.3-3.2-.1-14.8 9.8-16 9-1-2.1-7.7-13.3-9.5-13-2.6 3.6-21.8 16.3-22.5 18.6-1.2 4 8.7 11.8 6.5 15.3-.4.7-11.2 10.1-11.9 10-2.9-1.4-7.2-12.4-10-11.9-1.1.2-14.6 13.7-14.7 16.4 10.5 33 27.8 63.2 47.7 91.4 17.3 24.6 39 51.5 61.4 71.6 32.7 29.4 75.5 45.7 111.6 70.4 4.5 7.2 4.1 14.9 7.4 22.6 3 6.8 8.6 13.3 11.1 20.4 1.6 1.1 11.5-6.1 11.9-7.6.9-3.5-8.9-10.4-5.9-13.8.7-.8 13.6-8.7 14.4-8.6 1.8 1.7 5.1 8.7 6.6 9.6 2.5 1.6 10.2-6.9 13.1-8.2.6-3.9-8.4-9.1-5.1-12.9.7-.7 11-8.3 11.7-8.4 3.2-.5 5.7 8.5 8.8 8.9.7 0 10.7-7.5 11.1-8.1 2.2-3.5-6.4-8.3-5.4-12.3.2-.7 10.1-9.9 10.9-10.3 3.5-1.8 8.3 10.2 10.5 10.4 1.1 0 8.7-5.3 8.1-7.8-1.4-5.5-14.2-23.2-18.2-28.9-16.3-23-35.6-43.7-53.6-65.4-1.2-23.1-5.1-49.1-14.6-70.4-7.4-16.6-14.9-16.2-25.6-2.2-18.5 24.1-18.3 56.3-8.1 83.9 2.8 7.6 7.3 14.6 10.5 22-1.1 1-13.5-5.7-15.7-6.8-22.8-12.2-43.5-26.7-61.6-44.9Z" class="outline" data-original-prefix="outline"/></g><g id="07_Head" data-trait="bandages"><path id="fill-head" class="fill"  fill="#fff" d="M1238.8 890.2c1.7 3.5 3 7.6 2 11.5-15.9 11.2-31.5 22.9-47.5 34-13.7 9.5-33.1 24.5-47.4 31.6-11.7 5.7-28.4 9.8-41.1 13.9-33.8 10.9-68 20.5-101.8 31.2-5.8 1.9-6.2 12.7.5 13.5 9.7 1.3 20.5-.7 30.1-1 78.2-2.7 146.8-5.9 223.7-21.3 23.8-4.8 52.8-10.2 75.3-18.7 8.6-3.2 18.7-10.8 27.7-9.8 2.6.3 8 1.4 8.9 4.1 3.7 15.7 5.2 32.2 9.2 47.8 4.8 18.5 21.1 35.8 31.6 51.5.3.8-.1 1.5-.3 2.3-.3 1.4-9.7 20.1-10.7 21.4-4 5.1-29.9 6.8-37.4 7.6-84.3 8.9-170.5 9.2-255 6-62.9-2.4-125-9.7-186.3-23.7-30.5-7-61.2-17.8-91.9-23.1-29-5-56 9.3-83.3 17.3-25.6 7.5-56.9 16-83.5 17.5-2.7.2-12.7.9-13.4-1.6 1.5-12.3 3.5-24.5 3-36.9-.4-8.7-3.5-18.2-4-26.1-.6-10.1 14.5-7.6 21-9.8 4.9-1.7 33.1-38.5 37.8-45.2 6.5-9.3 12.7-19.8 18.4-29.6 3-5.3 5.7-13.5 9-18 3-4.2 8.8-4.7 13.5-5.5 56.5-9.9 115.8-11.2 172.7-20.3C956 905 987 898.6 1020 881.5c15.8-8.2 32.9-17.7 48.3-26.7 18.6-10.9 36.7-22.9 53.2-36.7 20.4 16.5 39.2 36.3 62.8 48.1 17.5 8.7 36.9 15.3 54.5 24" class="fill" data-original-prefix="fill"/><path id="outline-shading-head2" class="outline"  fill="#000" d="M649.5 1104c-.7-.2-1.6-1.6-1.5-2.5 1.5-3.5 1.3-19.8 3.3-21.3.6-.4 2.1.2 2.7-.9.7-1.3 4.1-13.4 4-14.9-.2-5.2-7.3-8.3-8.8-13.2-1-3.2-3.1-14.7-1-17 6.9-7.4 17.8 4.5 22.2 9.7 8.6 10.1 11.4 18.9 7.5 32 32.5-5.9 64.5-13.8 96.4-22.1 82.5-21.3 164.9-44.6 246.3-69.7 33.3-10.2 70.3-20.5 102.8-32.2 38.8-14.1 69.4-44.5 104.2-65.8 9.3 1.2 14.9 5.6 13.1 15.6l-75.5 53c-41.9 24.5-95.9 27.9-139.3 45.7-4.3 1.8-7.7 4.8-12 6.5l2 2c-3-.1-15.4 5.2-16.5 7-1.3 2.2-.5 10 2 10h28.5l-19 8.5c-32.8 7.4-65.5 16.3-97 28 2 3.9 6.4 6 10.4 7.5 55.4 21.7 127 27.1 186.1 28.9 60.4 1.9 119.7 3.8 179.8-4.1 38.7-5.1 77-12.8 115.2-21 1.6.1 4.6 4.6 4.4 6.4-.2 1.2-9.5 19.9-10.7 21.5-2.5 3.4-6.2 3.9-10.2 4.8-34.5 7.8-86.3 8-122.5 9.5-74.3 3.1-152 3.5-226-4-27.5-2.8-49.8-8.7-76.3-13.7-18-3.4-36.4-4.8-54.4-8.6-34.8-7.3-73-23-108.3-20.9-26.5 1.6-64.9 16-92.7 22.5-13.2 3.1-26.7 5.6-40.1 7.9-1.9.1-3.5 4.8-4.2 4.8-3.2.1-12.7.8-14.9.1" class="shading" data-original-prefix="shading" opacity=".2"/><path id="outline-shading-head1" class="outline"  fill="#000" d="M969 901c-11.5 8.6-24.3 15.7-37 22.5-64.3 34.5-137.6 63.8-207.2 85.8-7.9 2.5-16.7 5.4-24.8 7.2-6.6 1.5-13.3 3.5-20 1.5-.5-1.7.7-2 1.5-3 1.9-2.5 12.8-16.1 14.2-16.8 3-1.3 8.5-1.8 12-3 75-24.3 154.2-40.7 220.2-85.8z" class="shading" data-original-prefix="shading" opacity=".2"/><path id="outline-head" class="outline"  fill="#000" d="M1004 1019c-.2 1.7 2.3.9 3.5 1 4.8.2 10.2.2 15 0 41.6-1.3 86.5-3.2 128-6 48.6-3.3 119.8-17.2 166.5-31.5 11.4-3.5 22-9.6 32.2-12.8 9.1-2.8 17.1-1.1 25.2 3.3 5.3 18 5.2 42.5 12.5 59.5 6.6 15.3 22.3 31.4 31 45.9-.9 2.7-2 5.3-3.1 7.9-2.2 5.1-8 16.7-11 21-3.4 4.7-11.9 5.6-17.5 6.5-43 7-95 7.8-138.9 9.1-102.4 3-207 1.2-307.7-19.3-38.4-7.8-78.8-22.3-116.5-28.5-20.6-3.4-37.4 6.3-56.5 12-29.6 8.9-59.6 17.8-90.4 21.6-6.9.8-28.8 4.1-33.4-.3-3.2-3.1 2.2-31.4 2.1-38.1-.1-10.8-4.9-23.6-5-33.1-.1-13.8 17.1-12.1 26.6-14.7 16.5-20.6 32.9-40.3 46.5-63 4.9-8.2 10-21 15-28s12.9-5.6 20.2-6.8c71.3-11.6 144.2-12.8 214.6-29.4 41-9.6 87-36.4 122.5-59.5 12.6-8.2 24.2-17.9 36.8-25.8 19.3 14 36.8 33.5 57.4 45.6 19.2 11.3 43.4 18 63.3 28.7 3.9 2.4 6.2 17.2 4.6 20.5-28.9 20.6-57.8 43.4-88 62-21.8 13.4-48.3 19.5-72.8 27.2-27.3 8.9-55.1 17.3-82.7 25m216-126-53.7-20.8c-16.6-10.8-30.6-25-46.4-36.8-57.3 36-116.5 68.3-177.6 97.5-62.8 30-127.8 58.5-193.6 81.4-30.1 10.5-61.2 20.9-92.8 25.7 5 17.9 11.3 34.2 6 53 41-5.6 81.2-16.8 121.2-27.3 72.2-18.9 144.2-39.7 215.5-61.5 37.8-11.5 86-23.5 121.5-38.5 26.6-11.3 71.7-48.5 95.2-67.8 1-.6 5.9-3.7 4.7-4.9m-291 28c-31.9 6.2-64.2 9.5-96.3 14.2-29.6 4.3-59 10.4-89 12-13.6 23.4-28 46.2-45.7 66.8 51.5-15.1 100.6-37 150-57.5 18-7.5 36.8-13 54.3-21.7zm-81 144c47.9 10.7 95 24 143.7 30.9 115.2 16.3 239.4 14.2 354.7 0 11.8-1.5 29.9-3 40.9-6.1 3.1-.9 9.1-5.2 9.6-8.4.4-2.5-26.4-32.7-29.6-40.1-3.3-7.5-8.7-46.7-10.7-48.3-3.3-2.7-9.8 2.6-13.3 3.9-20.1 7.3-44.1 12.4-65.1 16.9-109.3 23.5-224.8 29.4-336.2 23.8l-92.5 25.4z" class="outline" data-original-prefix="outline"/></g><g id="08_Mouthpiece" data-trait="biker-beard"><path id="fill-head-main" class="fill"  fill="#fff" d="M1321.1 1646.9c-1.9-1.3 1.4-12.7-10.7-8s-5.8 16-6.7 22.3c-1.6 11.1-1.8 20.2-2.8 31.2-1.4 16.2-8.9 17.5-17 28s-3.1 21.9-4 33.1-6.8 21.8-11.4 31.6-2.1 8.1-4.1 9.9c-5.5 5.1-12.7-11.2-15.5-12.5-9.9-4.5-9 9-10.5 14.5-3.7 13.5-13.2 20-24.6 27.4-2.1 1.4-8.4 5.2-10.4 5.6s-1.6-6.7-1.5-8.6c.4-7.5 1.3-15.3 1.9-22.8-.7-3.2-6.2-3.3-8.9-2.2l-14.7 29.3c-1.8 9.5-2.7 19.3-4.5 28.5s-3.9 9.9-7.8 13.2c-9.7 8.1-26.5 14.5-38.9 15.1 6.7-13.8 9.3-27.6 8-43s-2.9-22.3-11-18c-6.4 3.3-2 28.8-10.3 38.2s-16.2 10-21.4 22.1c-5 11.6-1.6 28.2.7 40.2-8.7-.6-20-5.2-26.5-11s-11.1-17.9-15.4-27.6c-3.3-2.7-7.3-2.1-9.3 1.9-6.5 12.9-7.6 27.7-4.3 41.8s6.7 9.6-3 10.9c-6 .8-20.1-4.2-24.9-7.9s-9.2-15.9-11.2-20.8-1.7-11-5-12-7.8.9-8.4 5.3c-1.2 8.9-.2 24.5 0 34.1s2.4 6.2-1.5 6.5-30.7-14.5-34-17.1c-10.5-8.1-8.4-19.9-14.1-30.9-6.9-13.3-18.3-11.2-22.9-30.1s.5-8.1-2.4-9.6c-11.4-5.6-20.9 23.2-21.9 31.1s-1.4 11.1-2.2 16.8.6 15 0 15.6c-15.2-2.3-24-15-30.9-27.6s-3.9-6.9-4.9-9.1c-3.8-8.2-6-17.1-9.7-25.3-2.8-1.7-6-1.6-8 1.1-3.1 4.3-3.9 16.4-5.6 21.9-2.4 2.1-10.6-10.8-11.8-12.7-4.6-7.4-10.8-20.4-12.1-28.9s1.2-19.5 0-27.9-8.5-17.1-10.7-24.3 1.5-20.9-10.3-14.8l-16 33.5c-1.4.3-1.6-.2-2.5-1s-5.9-6.7-6.9-8.1c-15.1-21.1-7.5-47.7-10-72-5.5-10-20.9-14.7-22.5-26.5s-1.3-18.8-2.1-27.9-1.2-9.5-2.2-11.8c-1.8-4.1-13.4-9.4-17.4-13.1s-6.8-7.7-7.4-12.1c-2-17.6-.6-25.2-10.3-41.7s-10-11.6-10.7-17.4 6.7-20.2 8.5-26.4c5-16.9 9.1-37.2 4.4-54.4-2.2-7.9-7.8-15.2-9.9-22.1s.7-28 1-33.1c.9-13.3 9.8-51.4 21.1-58.9s36.2-15.2 44.4-14.6 6.6 4.6 11.5 5.6c11 2.4 29.6-9.8 40.1-14 17.1-6.8 31.2-7.8 48.2-11.8 10.9-2.6 21.7-8.8 33.6-11.4s29.8-1.2 42.3-3.7 34.1-14 47.4-18.6c4.9-1.7 14.9-5.6 19.5-4.5 8.7 2.1 22 12.2 29.5 12.6s25.4-10.8 37.1-12c9-.9 29.4 8.3 38.4 12.4 6.3 2.8 14.6 9.3 20.8 10.2 16.3 2.5 33.5-2 50.6 2.4 8.6 2.2 19.7 9.6 28.2 9.9s10.8-1.8 15.9-2.1c37.1-1.8 68.8 9.1 98.5 30.6 2 1.4 4.6 5.2 6.1 5.9 2.9 1.3 7.9.2 11.4.6 13.6 1.7 29.6 16.2 34.1 28.9 6.5 18.3-.9 37.3 8.7 54.3 1 1.9 5.4 6 5.6 7.3.5 2.3-2.8 5.7-3.6 8.1-7.6 24.7-6.2 49.7.2 74.3 1.7 6.4 6.5 15.5 7.3 21.7s-11.3 21.7-13.9 29.7c-1.2 3.8-2.1 10-2.8 14.2-1.2 7.2 1.2 13.2-6.8 18.2s-15.1 7.8-20.7 10.3-9.8 5-11.6 3.8z" class="fill" data-original-prefix="fill"/><path id="fill-head-tooth2" class="fill"  fill="#fff" d="M1016.7 1562.4c-6.6-7.1-18.2-5.6-24.7 1.1-4.4 4.6-8.1 16-9 22.1-.5 3.7.7 6.9 3.5 9.4 5 4.6 27.6 10.9 33 6 2.8-2.6 3.5-16.8 2.9-20.8-.3-1.9-4.6-16.6-5.8-17.8Z" class="fill" data-original-prefix="fill"/><path id="fill-head-tooth1" class="fill"  fill="#fff" d="M1046.6 1560.4c-7.5-4.7-18.3-2.9-20.4 6.3-1.8 7.8-2 33.3 8.5 35.1 1.4.2 6-.5 7.5-.9.3 0 5.1-1.8 6-2.2 6.9-2.7 11.2-5.1 9.7-13.2-.2-1.3-.6-3.2-.8-4.2-1.4-5.8-5.2-17.5-10.5-20.9" class="fill" data-original-prefix="fill"/><path id="outline-shading-head" class="outline"  fill="#000" d="M1013.6 1363.4c1.5 1.2 6.4 6.8 7.8 6.5 10.7-10.4 21.7-19.7 38-17.8 11.9 1.3 51.9 22.4 59.6 31.7 6.8 8.2 12.8 23.2 1.9 30.7-11.4 2.9-23.6 5.6-34.7 9.3-14.2 4.7-25.8 9-36.2 19.8-6.9 7.2-19.1 21.1-21.5 30.5-3.5 13.6 1.3 34.7 10.7 45.4 2.6 3 6.6 4.1 8.6 5.9 7.5 7.1 19.7 33.8 24.9 43.6 4.6 3.6 8.4 13 14.9 13.1 4.2 0 8.2-5.5 10-9.1 5.7-11.5 11.3-44.7 9.1-57-1-5.5-5.1-10-6.4-13.8s-7.8-21.7-7.9-24 1.4-2.8 1.6-3.9c.3-1.8-2-4.4 1.3-5.3-.7 5.7 3 5.7 5 8.5 18.4 24.8 23.8 47.2 30.2 76.8 1 4.5 3.1 10.4 3.7 13.4 1.1 5.1-1.6 7.4 5.1 10.7 8.5 4.1 16.5-4 21.7-10 7.9-9 18.2-22.7 19.2-34.9 1.8-21.7-19.8-51.4-6.9-71.7 3.9-6.1 10.9 2.4 13.2 6.5 9.5 17.6 20.5 37.8 22.7 58.3 1.1 10.2-1.4 22.8.3 32.7.8 4.4 4.5 9.6 5.7 14.3 1.7 6.6 1.8 13.8 4.6 20.4l8.4-11.8c8.2-17.1 1.7-27.3 2.1-43.7.5-22.9 8.4-38.4 11.8-59.2 1.8-11.5 1.6-23.9 3.4-35.6.8-5.4 3.4-10.6 3.9-16.1 1.1-11.9-3.3-25.5-10.4-35.1-2.2-3-7.3-4.3-6.6-9.4 11.7-2.6 20.8-1.9 32.2 1.1 12.1 3.1 26.4 6.6 38.8 10.4 4.2 1.3 8.2 5.5 12 3-1.2-5.8-6.2-10.2-5-16.4 7.3-2 17 1.4 23.9 4.5 9.1 4.1 11.2 9 15.5 17.5 6.5 12.6 17.5 56.8 16.5 70.5-.7 8.4-3.1 14.6-3 24s1.1 22.4 2 32c1.1 11.3 8.8 44.8 6 53.1-1 2.9-3.9 6-5.2 8.8-4.3 9.5-15 34.2-22.8 40.2-7.3 5.6-30.4 7-39.9 10.6l-9.7 57.8c-1.4 8.3-15 18.2-17.1 24.9-1.7 5.3 0 16.3-.4 22.6-.6 10.6-4 23.8-8.6 33.4-2.2 4.6-4.5 7.8-10.2 5.3-5.4-2.4-6-14.1-14.5-7.3-3.5 2.8-8.1 20-12.3 25-1 1.2-10.5 8.6-11.8 9.2-14.2 6.2-11.8-17.2-17.1-22.1-1.2-1.1-8.3-2.4-9.6-1.6l-26.7 72.3c-1.3 2-17.6 10.8-19.9 11.1-1.5.2-4-.5-5.2-1.4-5.3-4 1.7-25.8 1-32.9-.6-6.2-6.2-12.2-7.1-18.4-.7-.6-12 1.4-12.7 2.1-2.1 2-.5 12.1-1.8 15.7-2.9 8.6-22.1 26.6-27 37-3.2 6.9-5.6 31.1-12.2 32.9-1.9.5-3.1-.2-4.7-1-5.7-3-19.3-19.7-25.7-25.4-1.1-1-.2-3.3-2.9-2.5l-15.5 43c-7.4 11.3-12.1 3.1-16.7-4.3-7.2-11.8-13.7-24.7-14.8-38.7-2.2.9-6.5 1.1-8.3 2-2.1 1.1-6.5 44.8-9.1 49.9-7.3 11.6-19.3-4.2-24.6-9.9-9.9-10.7-16.1-24.6-24.8-36.6-2.7-3.7-18.2-27.6-19.8-28.2-1.2-.4-10.5-.4-11.2 0-2.1 1.3-16.2 37.2-19.3 42.2-3.7 5.9-9.3 6.7-13.3.6l-17.7-41.8c-1.2-1-25.9.4-30.4 0-2-.2-3.6-.5-5-2.1l-22.5-111-23.5 44.9c-7.5 6.5-11.4 2.6-13.2-5.7-3-13.9-5.1-58.5-10.8-67.2-2.2-3.3-5.7-5.7-8.2-9.8-6.9-10.9-11.3-26-12.1-38.9-.2-2.5 1.6-4.7.7-7.7s-9.8-10.7-12.2-13.8c-12.7-16.3-14.6-34.7-20.3-53.7-3-9.8-9.9-21.3-9.2-31.6 1.2-15.2 11-39.5 10.7-53.2-.2-11.5-13.1-33.9-13.7-46.9 4.9-20.2 6.3-42.7 11.4-62.7.9-3.4 1.1-5.6 4-8 5.2-4.3 21.6-12.1 28.5-15.5 7.5-3.7 21.8-13.8 24 1.1 1.2 8-5.3 13.4-3.9 21.4 1.1 1.1 25-10.2 29-7.5 3.3 2.2-.5 2.5-1.1 3.2-3.4 4.8-8.4 8.8-12 14.8s-6.9 12.8-5.8 19.8c1 6.3 9.7 15.5 12.2 21.8 8.6 22-10.3 49.9.4 68.6 4.7 8.4 15.7 14.1 22.7 20.3 8.9 8 15.2 17.6 22.5 27 7.7-14.6 4.3-25.3-2.5-39-6.7-13.5-16.6-28.1-21.7-42.3-5.7-16.1 3.1-29 2.2-44.2-.4-7.3-5.2-14.4-5.1-22 .2-14.9 13.3-28.3 24.8-36.3 4.3-3.1 9-6.3 14.3-7.2-2.2 10.5-8.1 20.5-7 31.6.6 6.7 5.5 11.2 6.1 17.9 1.2 11.9-5.7 21.9-5 34 .4 7.7 4.5 13.4 7 20.5l12-19.5c2.5-2 14.5-16.2 17-14.5 2.8 9.4-.5 19.1-1 28.5-1.5 32.9-2.5 52.9 19.6 79.4 3.9 4.7 12.2 11.2 18.8 8.9 2.7-.9 4.3-19.7 5.4-23.6 2.9-10.8 18.6-36.7 26.8-44.2 3.5-3.2 15.9-10.4 16.4-1.6.3 6.3-5.8 22.3-6.8 30.2-1 7.2-2.4 23.8-1.9 30.6 0 1.6 1.3 5.4 2.1 7 2.3 5.4 12.6 16.5 18.8 15.3 14.6-2.8 23.2-27.1 30.4-38.2 13.4-20.9 29-25.5 21.1-56.4-4-15.8-10.6-18.7-19.5-29.5-5.1-6.2-9.6-14.3-16-20.1-9.7-8.7-42.3-11.4-56.3-15.8-10.6-3.3-14.1-17.9-6.8-26.3 7.7-8.8 40.8-26.8 52.4-31.6 24.4-10.2 33.8-10 54.3 6.6zM806 1714.5c.8 2.9 0 14 0 18 0 13 10 27.4 11.9 40.1.8 5.2.3 11.1 1.3 16.7 1.8 9.1 7.6 17.3 7.8 26.7 1.9-1.4 3.8-5.8 4.5-8 3.9-11.5 1.7-14.1.4-24.5-.7-5.7 1.9-4.2 2-5 .5-2.3-1.7-1-2-2.1-2.4-8.8 6.3-20.5 11-27.1.9-1.3 1.1-3.3 2-4.5 1.6-2 8.5-9.3 10.9-7.6.6.4 3.8 11.4 4.3 13.2 3.3 12 9 36.4 7.7 48.1-.4 3.2-3.8 11.5-3.7 12.9.7 7.1 3.9 16.4 3.8 24.1l7.5 23.6 14.5-22.2c9.8-6.7 10.4-20.6 15.3-31 3.2-6.9 8.6-12.3 11.2-19.8 2.2-6.4 3.7-14.2 3.5-21 8-1.9 5 5.5 6 10.5 1.2 5.7 5.3 13.6 6 19 1.9 15.6-3 40.6.2 54.8 1 4.2 9.5 14.6 12.4 18.6 3.3 4.5 7.1 8.3 10.3 13.7 4.2 7 7.3 15.4 11.5 22.5 3.6 0 11-28.2 11.4-32.6 1.8-17.5-11-34.4-4.4-52.4 7.5-16.3 9.1-33.1 8.5-51 5.3-.9 3.2 1.2 5 3.5 5.3 6.9 16.3 23 17.8 31.2 1.4 7.6.4 17.9 1.4 25.6 1.7 14.6 7.4 29.3 10.4 43.6 1.5 7.3 1.6 14.8 3.5 22 1.3-.6 2.3-4.3 2.7-5.8 1.9-6.2 2.7-13.4 4.6-19.4 3-9.9 8.7-17.6 12.2-26.8 7.8-20.4 4.1-40.9 6.5-61.5 1.5-13.4 10.1 8.8 10.9 10.2 6.1 11.3 21.2 31 21.2 43.8v35.5l7.1-10.2c5.7-6.3 15.5-15.4 17.5-23.7 4.6-18.9 2.6-30.1 1.4-48.5-.9-15 3-28.7 2.1-43.2-.2-3.4 3.7-4.5 5.8-3.2.6.4 4.6 10.6 5.8 12.7 10.1 18.3 22.6 37.2 30.6 56.4 3.2 7.8 5 16 8.3 23.7 1.9-14.1 11.3-24.6 16.7-37.3 4.9-11.8 8.9-24.2 6.7-37.1l-4.9-24.6c1.8 0 3.5-.2 5.3.2 4 .9 22.4 15.2 26.3 18.7 7.8 7.3 16.5 19.2 17.5 30l1-3.5c-1.2-12.5 2.8-25-1-37.1-1.7-5.4-3.7-11.1-5.5-16.5-1.1-3.1-8.1-10.1-4.6-12.5 3-2.1 6.5 2.1 9.1 3.1 10.9 4.1 19.5 7.4 26.2 17.8l11.8 24.7c4.6-12.2-4.2-21.3-4.1-32.5 0-9.3 3.2-19.8 4.1-29 .9-9.5.8-19.9 1-29.5 6.7-1.5 7.4 5.3 10.9 8.7l2.1 9.3c5.8-20.5-3.1-41.3 14.5-57 12.6-11.2 23.7-14.4 38.2-20.8 7.4-3.2 19.3-19.1 22.5-26.5 8.7-20.3-1.1-26.5-3.9-44.5-1.3-8.4-1.8-21.3-1.3-29.7.7-9.9 5.7-24.8 5-33.9-.9-10.3-9.8-24.5-11.5-35.6-1.1-7-.3-34.2-6.4-37.6-1-.6-1.9-.6-3-.5-1.8 13.2 6.2 21.2 5 34.5-1.4 14.5-9.6 16.9-16.9 27.1-5.9 8.2 0 11.6 1 19.9 1.3 10.7-3.8 22.8-2 35 1.1 7.3 9.4 18.5 10.7 25.3 2.1 11.1-2.2 27.2-7.4 37.1-5.5 10.5-12.6 14.6-20.4 22.9-7.9 8.4-32.2 26.6-43.8 29-4.6.9-9.4 0-14.3.7-11.4 2-31.7 14.9-32.5 27.5-2.4 2.9-8.8 24.5-10 25-.4.2-2.5.4-2.5-.5 1.5-9-2.2-15.5-4.1-23.7l-3.9-5.8c-.8 3.3-2.2 7.9-3.6 10.9-4.1 8.5-10.4 16.8-13.7 26.3-3.9 2.2-14.7 22.4-16.4 22.8-8.1 1.7-7.4-2.1-11.8-4.9s-10.4-4.9-14.2-8.3c-3.6-3.2-10.3-13.8-13-15.8-3.7-2.6-11.2-3.6-15.4-5.3-6.3-2.6-12.1-6.9-16.8-11.5-1.2-1.2-4.9-6.8-5.3-7-1.7-1-5.9.5-8.5-.5-2.2-.9-8.2-9.6-10.2-11.3-.8-.7-9-5.4-9.6-5.4-2.4 0-1.2 8.4-1.5 10.5-.7 5.8-1.3 17-2.4 21.6s-6.4 8.4-8.4 11.8c-3.9 6.7-6 14.9-8.9 21.9-1.4 3.4-6.7 8.5-8.1 12.1-3.3 7.9-3.2 17.5-5.1 25.8-.3 1.4.9 2.8-1.5 2.4-4-.6-6.2-9.8-8.5-13.2-1.6-2.3-4.9-3.2-5.7-4.1-7.5-8.4-16.7-20.6-20.6-31.8-2.1-6-3.3-20.9-10.3-22.8-1.8-.5-11.6 7.3-13.7 9.1-3.2 2.7-6.6 7.4-8.7 9.3-.4.3-7.2 3.9-7.9 4.1-11.6 3.3-14.3-6.9-19.6-13.5-2.9-3.6-6.3-6.3-9-9.4-1.1-1.3-1.3-3.9-2.7-5.3-2.3-2.2-9-3.2-11.7-6.3l-5.8 16.7c0 6.7-2.1 13.3-4.3 19.7-.5 1.4-2.5 7.5-2.8 8-2.6 3.9-7.5-8-7.8-10.2-3.2-17.7 1.7-31.2-8.5-48.5-4.9-8.3-10.6-1.3-14.2-1.7-.3 0-.9-4-2.5-2.1-.4.4.7 2.7-.5 3.1-1.7.5-9.5-.8-11.7-1.4-8.5-2.3-18.8-9.8-25.4-15.1-1.9-1.5-5-5.6-7.3-6.2-3.2-.9-14.7 1.3-20.3.3-12-2-18.8-15.8-25.8-24.2-4.8-5.8-16.8-16.9-17.9-24.1-1.8-11.3 1.5-24.8-1.2-36.8-1.6-7.2-6.3-12.9-6.9-21.1-2-24.2 15.2-39.5 1.2-64.2-4.7-8.2-13.3-14.8-14.2-24.8-1.5-16.8 9.6-33.2 15-48.5-1-1-22.6 11.2-24.4 14.1-6.3 9.6-7.2 29.8-8.6 41.4-.2 2-1.7 3.5-2 6-2.7 25.3 20.5 50.3 14.9 73.9-2.8 11.8-8.8 24.1-10.7 35.3-1 5.9-1.4 10.7 0 16.5.8 3.3 9.8 19.1 12 21.5 3.8 4.1 16.3 7.6 21.7 12.8 9.7 9.2 13.5 24.3 14.8 37.2.3 3.2 1.5 19.9 0 21.4-.5.5-4.5-.6-5.8.2-2.3 1.4-2.8 14.5-2.1 17.1.2.7 1.7.6 1.9 1.4.3 1.4-.2 3.2.3 4.6 4.4 11.8 19.7 15.3 22.3 26.7 2.3 10.3-1.5 23.6 1.5 34l7-15.5c4.6-5.1 19.4-25.6 27-22 .4.2 1.9 1.7 2 2h-.4Zm495.6-292.1c-5.6-3.3-15.3-3.6-20.9-.3-.9.5-8.9 11.1-9.2 12-1.8 4.4-5.2 21.3-5.6 26.4-.9 11.3 2.9 22.3 1.9 32.9-1.3 13.1-11.6 26-12.9 39.1-1.6 16.7 3.1 30.8 10.6 45.4 2.1 4 3.3 6.2 7.8 3.9 7.2-3.7 15-14.2 18.5-21.5 1.1-2.2 3.9-8.9 4-11.1s0-4-.8-6c-5-13.4-13.2-26.3-11.1-41.8.6-4.1 3.1-7.8 3-13.1 0-12-4.5-26.5-3.1-38 .9-7.7 9.7-8.4 14.7-11.9 4.5-3.2 9.5-12.3 3-16.2v.2Zm-310.1 166.1c2.7 3 8.5 5.8 12.4 7.1 1 .3 9 2.3 9.5 2.3 11.4.4 8.8-25.9 1.6-28.4-2.9-1-10.2-1.8-13.1-1-6.2 1.8-15.4 14.3-10.4 20m56.1.1c2.7-4.1 3.4-6.2 1.1-10.8-3.4-6.8-13.6-14.1-19.1-5.8-2.3 3.4-1.7 16.4 0 20 3.1 6.8 14.8 1.6 18.1-3.4Z" class="shading" data-original-prefix="shading" opacity=".2"/><path id="outline-head1" class="outline"  fill="#000" d="M947.6 1927.8c-9.8-7.3-7.2-17.6-11.5-27.5-5.1-12-22.7-18-24.1-29.9-.5-4.2 2-16.4-5.1-11-.6.5-6.4 7.5-6.9 8.3-5.7 9.8-8.1 26.4-9 37.8-.2 3.1.6 15.2-.2 16.3-.3.5-3.4 1.2-4.3 1.2-4.3 0-15.6-7.2-19.2-10.4-9.4-8.4-20.4-31.7-24.8-43.8-1-2.6-2.3-15.3-5.3-9.1-1.6 3.2-3.2 10.3-4 14-.9 4 .4 16.4-7.5 10.2-10.1-7.9-22.7-32.8-23.8-45.5-.8-8.8.9-20.4-1.3-28.7-1.1-4.3-10.8-22-10.8-23.3v-16.5c-1.8-.4-2 .5-2.8 1.7-5.3 8.4-8.9 21.7-14 30.9-1.3 2.4-2.7 5.9-5.8 6.3-5 .7-5.1-3.6-7.5-6.2-14-15.6-16-33.4-14.9-54.3.2-3.7 2.2-8.4 2-12 0-.8-2-11.2-2.2-11.9-1.3-3.9-18.1-14-20.5-20.4-2.1-5.6-.7-9.3-1.3-14.7-1.1-9.7-2.8-19.4-3.8-29.1-5.5-6.4-23.8-14.7-25.1-24-1-7.2.2-15.8-1.5-23.4-3-13.3-13.9-25.8-20.6-37.4-.8-6.7 6.5-20.5 8.6-27.5 7.7-25.7 10.1-42.4-.3-67.7-1.6-3.8-5.8-8.6-6.3-12.8s1.7-8.8 2-13c2.1-25.8 1-38.6 11.7-63.3 7.7-17.8 13-17.6 30.1-23.9 1.9-.7 4.5-1.7 6-2.2 8.1-2.7 15.8-6.5 24.7-5 5 .8 6.5 6.5 14.4 5.3 10-1.5 25.5-11.3 36-15.1 15.6-5.7 28.8-7 44.3-10.7 19.5-4.7 33.3-13.3 55.4-14.6 5.6-.3 12.8 1.3 17.6.7 9.7-1.3 35.3-14.4 46.7-18.4 5.2-1.8 16.9-6.2 21.8-6.3 9.6-.3 24.7 11.1 34 14 8-3.1 16.4-7.8 24.5-10.3 2.3-.7 12.8-3.6 14.4-3.5 4.6.3 20.4 6.4 25.6 8.5 7.6 3 26.3 14.3 31.8 15.2 12.6 2.2 31.7 0 45.6 1.4 9.4.9 23.1 11 31.3 11.6 3.1.2 10.8-2.4 14.9-2.7 34.8-2.6 74.1 8.7 101.7 30 2.9 2.2 6.4 8.6 6.9 8.9 1.3.9 4.6-2.9 7.3-2.9s20.1 5.4 21.3 8.6c2 5.3.9 1.9 4.8 5.4 5.4 4.8 13.6 14.7 15.2 21.8 3.2 13.4 0 28.5 2.5 41.5 1.3 6.9 8.2 11.9 9.8 18.2-2.1 8.9-6.2 17.2-7.8 26.2-4.6 26.6 4.1 54.9 12.9 79.7 0 4-5.2 11.5-7.6 14.6-1.3 4.5-4.7 8.4-6.4 12.6-4.1 10.5-1.5 21.4-6.6 31.4-2.2 4.3-21.7 13.4-27.2 15.8-3 1.3-8 4-11 4.1-5.7.2-3.9-8.9-5.4-9.9-.4-.3-6.6.9-7.1 1.6-1.5 2.1-.6 7.1-1 9.8-1.5 9-3.8 18.3-4.8 27.2-.9 7.3.4 18.7-2.2 25.6-1.7 4.6-5.9 7.7-8.9 11.2-1.5 1.8-10.3 11.7-10.5 12.5-1.1 4 .9 16 .6 21.6-.8 15.4-6.3 30-13.7 43.3-7.1 12.9-8.5 4.6-17.2-.6-3.2-2.9-4.5-4.9-4.2-9.7 0-1-2.1-.8-2.5-.6-1.7.7-4.5 20-6.8 24.2-3.2 6.1-16.2 15.8-22.3 19.7-1.7 1.1-13.2 8-14 8-2.6 0-3.2-3.4-3.5-5.5-.6-4.9 2.2-32.4 1-33.5h-3c1 8.8-6.2 15.7-9.8 22.7-7.2 14-4.8 29.7-9.9 43.1-1.8 4.7-4.6 6.5-8.6 9.4-12.1 8.9-27.6 14.8-42.7 14.8.6-10.2 6.2-19 7-29.5.8-10.3 1-26.6-6-34.5-1.7 3.8-.5 7.7-1.1 11.4-.7 4.5-1.3 9.3-2.1 13.9-2.3 14.3-3.9 12.8-13.6 21.6-.6.6-2.2.5-2.9 1.3-12.2 11.6-13.3 24.9-11.3 41.2 1.1 9 9.1 15.4-7.4 13.4-20.4-2.5-34.3-22.2-37.7-41.4-.2-1.3-.4-3.3-1.9-1.5l-5.9 12.8c-3.3 8.9-2.5 24.4 0 33.5l6 20.2c-32 1.4-45.4-22.8-54.3-46.7-.4-1-.5-3.6-2.2-2.7-1.8 1.2-1.4 2.7-1.6 4.4l2.8 47.9-46.1-23.6zm95.2-482.6c-2.3 1.6-11.3 2.7-14.5 6.1-1.4 1.5-6.1 11-6.3 13.2-1.3 9.9-.7 39 1.5 48.6 1 4.3 7.4 19.6 12 20 3.8.3 6.7-3.1 11.2 2.3 5.5 6.8 12.7 24.8 17.9 33.6 1.8 3.1 6.7 8.4 8.7 12.3 3.7 7.3 2.7 14.9 3.9 22 1 5.7 6.6 12.8 8.3 19.7 2.1 8.6 2.3 18.8 7.1 26.9 1.2 2.1 11.8 15.5 14.4 13.1-.8-5.3-7.9-13.3-7.9-18.3 0-11.4 5-26.6 5.9-38.2.6-7.9-1-17.3 0-24.9.7-5.4 5.1-13.2 5.9-18.1 2.5-16.1-1.7-35-6.5-50.4-3.5-11.2-12.7-28.3-14.4-38.6-.4-2.4 0-5 0-7.4l1.5 1c4.4 12.4 12.3 23.3 17.6 35.2s14.1 45.7 13.9 59.3c-.2 10.8-5.5 19.4-6.8 29.3-1.2 9.5-3.9 23.9-4.3 32.8-.7 15.4 9.4 41.1 21.5 50.5 1.9 1.5 5.5 2.9 7.5 4.4 2.3 1.7 4.7 5 7 6.9.6.5 1.4 1.1 2 .6 1.7-1.6 6.8-19.2 9.1-23.2 3.7-6.4 6.1-5.9 7.8-15.4 3-17 5.8-23.6 14.3-38.7 2.2-3.9 11.5-16.3 11.9-19.1.3-2.3.2-6.7 0-9-.9-7-6.4-17.9-6.6-24.2 0-4.9 2.3-11.5 2.7-16.8 1.1-15.8-2.5-33.9-9.1-47.7-4.4-9.1-5.4-9.9-5.9-21.3 0-1.6-.4-14.5 2.9-8.9 1.9 3.2 2.7 7.5 4.2 10.8 6.3 13.6 15.4 26 17.8 41.2 2.3 13.8-.4 28.1 1.2 41.8.9 8.1 5.5 15.5 5.9 24.1.6 11.8-6.6 29.2-3.8 38.8 1.1 3.7 10 11.1 13.8 9.3 1.9-1 3.3-9.6 4.5-12.6 7.8-18.8 19.4-32.8 15.4-55.4-1-6-5.8-13.3-6.7-20.3-3.1-24.6 15.5-34.3 15.7-52.8 0-11.7-3.1-22.5-.9-34.9 1.2-6.5 10-16.7 10.8-23.2 1.4-11.2-3.3-23.5-3.9-34.4 6.4.2 12.8-.4 19.2.3 13.3 1.4 30.8 7.1 43 11 1.6.5 4.6 4.2 3.7-.7-1.2-6.7-5.2-10.2-7.8-15.4-2.3-4.6-6.9-16.9-10.6-19.2-2-1.2-6.5-2.4-9.3-3.7-19.5-8.7-39.5-17.8-61.7-19.3-6.8-.4-13.7.3-20.5 0-.5 4.7 4.3 6.8 7 9.7 1.7 1.9 2.6 2.5 3.6 3.6 1.6 1.6 10.1 10.5 10.3 11.2.4 1.5 0 1.6-1.5 1.5-1.1 0-16.6-6.5-18.2-7.3-3.1-1.7-8.8-7.6-12.2-9.5-6.1-3.6-15.8-6.9-22.3-9.4-11.2-4.2-20.7-7.2-32.8-7.7-2.3 2.1 15.4 14.8 17.6 17.4 2.1 2.4 6 7.6 6.7 10.8.2 1 1.7 2.4-.8 1.8-3.8-.9-5.8-5.5-8.3-6.9-8.6-4.9-22.1-7.9-31.5-12.2-14.8-6.7-27.8-16.7-43.4-23.6-8.1-3.6-19.8-10.7-28.5-9s-23.5 10.4-28.8 17.2c-.9 1.2-2.7 6.5-3.6 6.6-3.3.3-3.1-2.9-4.4-4.5-3.4-4.2-7.9-7.5-12.4-10.1-6.7-4-19.3-10.5-26.9-9.2-14.8 2.7-50.3 22.3-63.5 31.4-11.1 7.6-19.2 17.1-28.3 26.8-.2.3-2.6 5.4-3 2-.3-2.2 1.7-6 2.8-8.2 3.4-6.7 10.2-16.1 14.7-22.3 1.4-2 6.1-2.9 4-7-6.2 1.8-12.8.3-18.8 1.2-24.2 4-54.8 20.1-67 41-.9 1.5-5.7 10.7-6 11.9-3.5 15.3 5.1 20.7 5.4 33.3 0 6.6-4.2 14.6-5 21.1-1.8 15.7 4 27.1 11.5 39.8.7 1.2 6.6 13.4 9.4 10.6 0-2.4-.2-4.8.2-7.3 3.4-17.1 10.8-31 20.5-44.5 1.8-2.4 3.8-5.6 6.2-7.2 0 1.8.2 3.6-.2 5.3-2.4 10.2-8.9 22.7-11.5 33.5-6.7 27.8-3.2 71.7 4 99.5 4.4 17.3 6.8 19.5 19.5 30.7 9.5 8.4 23.5 16.4 30.9 26.4 2.3 3.1 1.4 11.5 5.1 16.5 5.6-14.3 15.2-30.7 11.1-52.2-2.2-11.4-7-22.3-7.9-35.1-2.5-36.6 11-50.6 25.5-80.5 2.4-5 4-11.3 6.3-15.7.5-1 2.2-3.4 3.2-2.3.8.9-3.2 10.6-3.8 12.7-6.8 27.6-23.5 68.1-16.9 95.5 1.2 5.1 4.6 11.2 5.7 16.3 3.1 14.7 7.4 39.2 9 54.1.8 7.9 0 11.8 1.9 20.1.5 1.9 0 5.6 1.8 9.1.3.6 8.8-10.3 10-11.8 3.6-4.4 8.8-12.3 10.2-17.8 4-15.8 3-34.4 6.3-49.7 1.8-8.5 6.2-22.6 9-31.1 2.1-6.3 13.1-31.6 19.5-32.3 2.5-.3 10.1 2.7 11.2-.9.7-2.2 1.9-11.9 2.1-14.9 1.7-18.7 3.3-46.7-7.3-62.6-3.8-5.7-9.8-5.2-14.9-7.9s-9.1-6.8-12.6-8.6c-2-1-6-2.9-8-3.2-5-.5-15 7.3-17.1 5.7-.4-.3-.4-2.4-1.1-3.2-5.4-6.4-8.4-12.4-17-15.2-2.9-.9-13.1-1.9-14.8-3.8-.5-.5-.5-2.2-1.3-3.2-4.2-5.4-10.4-10.9-5-18.1 6.5-8.7 25.5-21.6 35.3-26.6 5.9-3 23.8-11.3 29.5-12.6 13.9-3.2 27.1 9.7 35.2 19.5 2.1 2.5 4.4 8.8 7.5 8.2 4.8-6.9 11.5-16.8 18.6-21.5 4.4-2.8 13.1-7.5 18.1-6.3s22.6 9.9 28.1 12.9c7.3 3.9 19.6 11.5 25.3 17.2.9.9 8.5 10 8.8 10.7 3.3 7.2-5.2 20.6-12.4 22.5-6.1 1.6-9.2.4-15.8 4.1-2.2 1.3-4.7 5.1-5.6 5.9-1.5 1.4-8.8 9-9.5 9.3-6.9 2.8-7.5-2.7-13.4-4.2-8.8-2.3-11.3 1.4-16.6 6.3l-3.5 3.2h.6ZM798 1723v27.5c0 2.6 5.5 9.7 6.7 13.3 2.7 7.8 2.2 17.4 4.6 25.4 4.8 16 8.5 14.7 8.7 34.2 0 10.5-1.9 22.8 4.6 31.5l7.4-14.6c5.7-13.1 13.2-35.8 12.1-49.9-.4-5.4-3.5-14.7-2.8-19.8.2-1.8 8.4-15.5 9.8-16.2.8-.4 2.6-.8 3-.5.3.2 1.8 5.8 2 6.6 1.3 8.6 4.5 23.9 4.1 32-.6 11.4-6.5 24.6-7.8 36.2s8.5 41.7 13.4 53.1c2.7 6.3 4.9 8.5 9 13.5 1 1.3.4 3.5 3.3 4.2 1.1.2 2-.6 2-1v-19c0-2 6.7-17 8.2-19.8 5-9 14.9-16.9 19-25s4-18.5 7.6-26.4c.6-1.3 8.6-14.1 10.2-12.3 1 18.1-2.7 37.6-1 55.5.2 2.6 2.2 10.5 3.1 12.7 2.7 6 18.6 16 21.6 21.6 4.2 7.7 4 16.7 6.4 24.6 2.1 7.1 1.6 7.5 7.3 10.7.9.5 5 3 5.8 3.4 3.2 1.7 8 5.2 12 7.8l-2.2-24.9c0-10.8 9-24.9 10-37 .7-9.1-1.6-18-2-26.9-.7-16.7.8-33.5 5-49.6 3.2-.7 1.5 2.1 2.5 3.9 7.8 13.5 4.4 16.2 5.4 30.6.7 10 4.8 16.3 7 25.1 5.2 21.4.9 47.1 15.1 65.2 1 1.2 6 9.6 7.9 3.6 1.5-4.7 0-17.9 1.4-24.6 1.1-5 5.4-14.1 7.5-19.5 2.7-6.9 7.9-16.6 10.5-23.5 4.4-11.8 7.5-21.4 6.8-34.2 0-2.5-3.1-12.1-.9-13.5.6-.4 2.3-.3 3 .6 2.3 2.9 5.5 11.4 7.6 15.2 1.4 2.6 5.8 7.9 6.2 9.9 1 5.1-4.2 17.4-4.8 23.8-1 11.7-.6 28.2 5.5 38.4 1.7 2.8 7 9.3 10.4 9.1v-14.5c0-15.9 13.2-25.1 23-34.1 10.6-9.8 6.7-13.5 8.1-25.8 1.4-12.5 6.4-19.1 4.8-34-.5-4.8-3.7-11.7-3.8-16.2 0-2.8 1.5-14.7 5.8-12.3 1 .6 4.1 11.8 5.2 14.2 8 16.9 23.9 40 24 59.1 0 8.9-3.5 18.4-4.1 27 0 1.6-.2 1.7 1.5 1.5 4.3-4 18.8-11.5 20-16.9 1-4.3.8-9.5 1.8-14.2 4.3-20.1 14.9-33.2 19.4-52.6 3-13.1 2.2-22.1.3-35.2 5.1 0 6.4 4.4 10 7.5 4.3 3.8 13.7 10.1 15.5 15.5 1.6 4.6 2.2 20.6 2.5 26.5.3 4.5-.2 9 0 13.5l6.4-6.1c8-11.3 6.4-16.7 8.9-29.1 3.2-15.9 6.8-22 2.6-39.2-.7-2.9-6.9-14 3.3-8.6 8.9 4.8 11.6 25.3 15.3 33.9 2.2 5.2 6.8 9.8 9 15 4.4-2.9 3.3-8.4 4.6-12.2.3-.8 1.7-.6 1.9-1.5 4.4-15.4 1.8-16.8 0-30.8-.5-4.1.2-8.6 0-12.7 2.9-2 4-5.3 6.4-7.8 3-3 13.4-9.8 14.7-13.3 4.4-12.3 2.3-30.3 5.7-43.2-4.1-.9.4-11 1.8-14.2.6-1.3 2.1-1.2 2.6-2.5.6-1.4.3-3.7.9-4.6.2-.3 5.2-2.7 6.7-3.8 3.3-2.6 17.1-16.8 21.2-10.7 2.1 3.2-2.8 11 2.4 11.4 3.9.3 16.3-9.3 20.3-11.3 1.4-12.7 3.2-23 9-34.5 4.4-8.6 9.5-9.4 6.1-20.8-4.4-14.7-10.7-37.7-11-53.1-.2-13.2 7.4-32.8 6.9-44-.3-7.4-8.7-19.1-9.8-28.1-1.3-11.6 3.1-25.2-1-36-3.9-10.1-11.3-13.7-20.3-18.5-.5-.3-.7-1.4-1.1-1.6-1.4-.7-5.2-1.7-6.7-.8 9.8 14.4 15 39.4 4.4 54.4-3.3 4.6-18.6 17.7-19.4 21.6-.6 3-.3 11.6 0 14.9s2.6 7.3 2.7 10.1c.3 8.4-4.4 17.3-2.8 28 1.4 9.3 12.8 24.4 13 33.1 0 3.7-3.1 15.7-4.4 19.7-.9 2.9-4.2 12.2-5.8 14.2-3.3 4.1-8.2 1.7-10.6 3.9-1.3 1.2-4 9.7-6 12.5-4.7 6.8-11.1 7.9-17.6 11.3-9.7 5-25.5 15-35.3 17.7-1.9.5-3.3 1-3.3-1.3 0-4.3 3.4-6.1 4-10 .7-4.3.6-11.6-1.4-15.4-5.3 6.9-17.9 39.7-25.2 41.8-5.6 1.7-7.8-3.1-12.4-5.2-12.6-5.7-13.8-1.1-9.9-19.1l-2-.5c-2.7 7.9-8.7 15.3-11.3 23.2-2.5 7.6-.8 13.9-3.8 21.2-1.7 4.1-6.5 8-8.3 11.7-4.4 8.9-6.4 17.4-13.6 25.4-3.2 3.6-3.1-.5-6.1-2.9-9-7.2-18.7-9.5-26.9-19.1-1.9-2.2-1.8-6.7-6.4-6.5-3.3.2-4.9 2.5-9.8 1.8-25.4-3.6-23.7-38.2-34.9-54.1-8.5-12.1-21.4-3.6-32.3-3.6s-16.2.4-26 1c-8 .5-14.3-2.5-21.9 2.1-5.5 3.3-10.1 13.7-11.2 19.8-2.5 14.3-1.5 16-11 29.9-1.7 2.4-4.1 4.6-6.1 6.5-6.4 6-17.8 17.6-19.8 17.8s-4.8-4.2-7.7-13.2c-4-12.5-2.2-19.7-5-31.4-3.1-13.1-4.8-1.2-6.7 3.1-.9 2-3.1 6.6-4.5 8-1.2 1.1-5.3 5.2-7.9 10-1-.2-9.2-10.2-9.8-11.1-1.5-2.1-3.1-7.9-5-10.8-4.2-6.6-13.1-10.7-19.2-15.8-9-7.6-27.9-23.6-31.8-34.5-6.9-19.3-6.7-46.5-12.5-66.4-3.1-10.4-9.6-10.4-12.9-17.1-4.3-8.9-16.4-35.3-16.5-43.6-.3-13.6 3.6-30.5 2-43.9-1-8.2-8.4-13.7-5.8-24.8 1.3-5.8 12.7-22.8 16.8-27.9 4.5-5.6 11.7-9.8 16-15.8l-31.6 9.8c-8.5 3.9-19.4 6-28 11.6-4 2.6-18.3 18.3-19.9 22.7-.8 2.3.7 3.9.4 6.2-.4 2.5-3.9 7.7-4.7 11.4-3.5 14.3 1.9 14 7.8 24.2 1.8 3.1 8.6 15.2 9 17.7 2.6 16.5-5.2 36-4 53 .7 9.4 6.9 20.5 7.1 28 .3 14.7-5.7 25.4-.7 41.6 2.9 9.3 13.8 19.8 14.7 28.3.7 6.7-6-2.7-7.4-4.1-4.8-4.6-11.3-10.7-15.6-16.1-13.2-16.7-3.6-26-6.1-43.6-1.3-9.1-7.1-18.9-7-29.1 0-7.1 3.1-16.3 4-23 1.7-12.6 4.9-25.7-.5-37.3-3.6-7.7-13.9-19.2-16.6-26.4-3.1-8.2 2.4-16.8 2.5-25l13.3-26.8-.6-4c-6.2 1.8-12.7 2.8-18.8 4.7-6.2 1.9-14.1 4.8-19 8.3-.9.6-2.2.5-3 1.3-.4.4-5.8 9.8-6 10.4-4.2 11.3-4 27.7-5.3 39.7-.5 4.2-2.6 9.3-2.9 14.1-.8 13.6 3.8 19.4 7.7 31.3.8 2.3 2 5.3 2.4 6.6 6.3 21.2-1.2 47.1-7.5 67.8-.8 2.5-2.9 4.7-3.6 7.5-3 11 10.9 24.6 14.6 35.2 3.2 9 2.7 28.5 7.7 33.8 1.3 1.4 7.9 6.6 9.6 5.3 1.9-1.5 2.6-19.9 3.1-23.4.5-3.3 5.8-.9 7.3.5 2.6 2.3 7.6 11.1 9.9 14.4.8 1.2 2.7 1.6 3.2 2.8l4.7 18.8c-1.2 1.2-7.5-3.7-9.2-4.3l-7.8-6.7c-.4 8.5 3.3 17.1 4 25.5.8 9.5-1.9 20.8 2.6 29.4 2.5 4.8 11.2 9.6 15.4 13.6 5.2 4.8 5.8 7.7 6 15 .2 4.8-1.1 8.7-1.1 13 0 6.1 1.5 46.9 4.1 48.5 3.4 2.1 5-6.6 6.2-9.2 1.5-3.1 3.5-5.9 4.9-9.1 5.7-13.1 8.1-29.1 16.5-39.6 1.6-2 5-4.7 7.3-6.1zm505.4-279.6c11.8-10.6 12.9-24.8-4.2-30.1-7.1-2.2-23.7-5.1-30.5-3.1-7 2-3.6 12.8-3.6 17.3 0 12.2-8.8 24.3-10.1 36-.8 7.6 1.4 11.7 2 18 1.6 15.7-7.3 25.4-11.5 39.5-5.7 19.2 2.3 32.9 5.4 51.6.4 2.3-.2 4.7 0 6.9 1.3 9.2 3.9 18.1 3 27.5l23.5-12c11-12.8 23.7-22.5 25.4-40.6 1.8-19.6-12.4-33.7-10.8-51.8.5-5.3 3.9-14.7 3.9-19.1s-1.8-13.9-2.3-16.8c-.6-3.5-5-10-4.8-12.2.3-3.6 9.5-6.6 12.4-8.7 1-.7 1.3-1.8 2-2.4Zm-286.7 119c-6.6-7.1-18.2-5.6-24.7 1.1-4.4 4.6-8.1 16-9 22.1-.5 3.7.7 6.9 3.5 9.4 5 4.6 27.6 10.9 33 6 2.8-2.6 3.5-16.8 2.9-20.8-.3-1.9-4.6-16.6-5.8-17.8Zm29.9-2c-7.5-4.7-18.3-2.9-20.4 6.3-1.8 7.8-2 33.3 8.5 35.1 1.4.2 6-.5 7.5-.9.3 0 5.1-1.8 6-2.2 6.9-2.7 11.2-5.1 9.7-13.2-.2-1.3-.6-3.2-.8-4.2-1.4-5.8-5.2-17.5-10.5-20.9m-130.9 96.3c-1.2 1.1-6.2 10-8.8 14.8-3.3-4.4-8.3-15.1-8.9-16" class="outline" data-original-prefix="outline"/><path id="outline-head2" class="outline"  fill="#000" d="M794.8 1553.3c2.1 1.6 3.2 8.4 4.3 10.7 3.2 7.3 5.9 13.1 10.9 18.2 12.8 13.4 13.8 15 18.3 33 1.5 4.1 2.7 9.5 6.6 12 2.8 1.2 4.6 3.3 6.8 5.5 2.1 1.8 4.8 2.9 6.7 4.8 1.8 1.5 5.1 26.1 4.3 23.7-3.1-9.2-8.8-16.9-10.7-17.3-3.4-.9-5.9-2.4-9.4-4-3.5-1.8-6.8-3.3-9.6-5.6-9.5-8.6-6.3-21.4-18.7-29.4-2.5-1.7-5.3-2.2-6 1.3-1.1 4.9.7 9.3 2.5 13.9 1.2 3.1 10 21 7.7 19.2-9.2-7-24.2-30-22.1-39.1.8-3.4 2.6-6.4 3.9-9.6.5-1.1.9-2.2 1.1-3.3 2.5-8.8 4.4-19.7-.5-28.1-2.2-3.8 1.4-24.1 3.1-23.5l.9 17.6Z" class="outline" data-original-prefix="outline"/><path id="outline-head3" class="outline"  fill="#000" d="M1032 1652c.4.5 2.7 11.2 2.9 12.6 2.2 21.7-12.5 32.1-21.3 49.5-1.2 2.4-4.2 12.4-4.7 12.8-.4.3-2.5 0-3.2 0-2.2-.8-13.7-12.6-15.2-14.8-5.1-7.6-13.2-32.6-14.3-41.7-.3-2.4-1-7.2 3.1-6.1 2.9.8 6.5 10.1 7.8 13 4.3 9.6 5.7 18.3 12.2 29 10.2 16.6 6.9 6.1 11.2-4 3.9-9.2 15.9-18.3 17.3-27.7 1.1-7.1-1.4-13.8 2-21 .4-.8.6-3.3 2.1-1.4Z" class="outline" data-original-prefix="outline"/></g></svg>