<?xml version="1.0" encoding="UTF-8"?>
<svg xmlns="http://www.w3.org/2000/svg" viewBox="0 0 2048 2048">
  <style>
      .outline { fill: #000000; }
      .fill { fill: #FFFFFF; }
      .shading { fill: #aaaaaa; opacity: 0.5; }
    </style>
  <g class="trait-group" data-category="background" id="background-yellow">
      <path class="color" id="color-yellow" d="M2048,0v2048H0V0h2048Z" style="fill: #ddb305" fill="#ddb305"/>
    </g><g class="trait-group" data-category="jaw" id="jaw-robo">
      <path id="fill-jaw-robo1" fill="#ffffff" d="M1369.9 1062.1c.4.5 1 11.1 1.4 13.1 11.6 61.7 25.9 123 37.2 184.8 16.2 20.3 35.3 38.1 51.5 58.4l-70.1 149.9-2.3 1.6-31.6-1.9-7.8 59.7-101.2 128.8c-1.6 1.1-2.6-.6-3.6-1.6-11.2-11.1-20.8-28.6-32-40-1.3-1.3-2.6-3.5-4.8-2.9-3.4.9-32.4 51.8-38.3 57.8-25.8 9.8-49.6 24-74.7 35.3-8.9 4-63.2 23-65.1 25.9-.6 1-.4 2.8-.6 2.9-.2.2-3.1-.9-4.4-.9s-3.2 1.3-3.6.9c-.3-.3.7-2.4-2.3-4.2-13.4-8.1-38.6-14-54.4-20.6-28.2-11.8-54.4-28.3-83.3-38.7-6.3-5.8-35.3-57.4-38.7-58.4-2.2-.7-4.5 2.4-5.9 3.9-11.6 12.1-21.3 28.8-33.1 41l-1.9-.9-100.9-128.1c-3.2-19.9-5.4-39.9-7.5-60l-31.6 1.9-2.5-1.4-69.8-149.3c-.3-1.9 4.6-7.3 6.3-9.3 14.5-16.8 30.7-32.1 44.6-49.4 10.6-62 27.2-123.3 37.7-185.3.5-3.2-.7-11.9 2-13.3 104.8-21.7 209.7-42.7 314.5-64.3 7.3-1.5 24.9-7.3 30.5-7.5 4.2 0 24.8 6.2 31.1 7.5 105 21.6 210.1 42.9 315.1 64.4v.2z" class="fill" data-original-prefix="fill"/><path id="shading-jaw-main" fill="#aaaaaa" d="m1369.9 1062.1 28.1 145.4c-4.8-.6-19.2-17.4-22.3-16.4-3.4 1-21.1 37.8-20.7 42.4 12.3 15.8 24.8 31.6 35.4 48.6 3.7 5.9 15.5 24.5 15.6 30.5 0 4.7-10.7 25-13.5 30.5-4.5 8.7-9.8 16.9-14.5 25.5 17.3-8 33.9-18.4 49.3-29.7 4.1-3 10.3-7 13.7-10.3 2.3-2.2 12.4-16.5 13.5-16.5l5.5 6.4-65.1 139.9-6.5 11.5-32.3-1.9-7.8 59.7-101.2 128.8c-1.6 1.1-2.6-.6-3.6-1.6-11.1-11.1-20.8-29.2-31.9-40-.8-.8-1.6-2.1-2.9-1.9-7.3 1.3-32.3 48.3-39.7 55.4-30.9 14.9-60.7 32.4-91.6 47.4-12.8 6.2-33.2 17.2-46.8 18.2-23.7 1.7-37.4-7.3-57.9-17.2-31.4-15.1-61.6-32.8-93-48-8.2-6.6-32.8-54.4-40.3-55.8-2.8-.5-31.3 38.2-35.8 43-1 1.2-2 1.2-3.1 0l-100.9-128.1-7.5-60-31.6 1.9-2.5-1.4-69.8-149.3c-.3-3.1 3.7-7.8 6.8-5.8 1.9 1.2 8.8 11.9 11.5 14.6 2.9 2.9 7.8 6.2 11.2 8.8 4.5 3.4 49.2 33.3 51.3 31.2-7.3-15.4-17.3-29.8-23.8-45.6-1.2-2.9-3.2-6.7-3.2-9.9 0-5.3 10.4-22 13.7-27.4 11-18.2 24.3-34.9 37.4-51.6-4.2-15.2-12-29-20.1-42.3-.9-.5-2 0-2.9.4-6.3 3.4-12.9 13.3-20 16.5l28.1-145.9 45.8-9.7c48.2-55 116.4-93.5 184.8-118.2 72.2-26 130.6-31.5 205-8.5 77.7 24 155.9 65.5 210.3 126.7zM854 1330c-21-6.7-43.3-4.3-64.4-11.1-14-4.5-30.8-14.7-42.9-23.1-18.1-12.6-35.7-28.4-49.2-45.8-10.7 14.6-22.1 30.4-30.7 46.3-4.3 8-11.3 21.1-7.7 30.1l27.1 48.4c6.1 1.6 17.5-4.7 22.8-2.3 1.5.7 2.4 3.5 4.5 3.5s4.4-5.1 7-5.1 3.4 4.4 7 4.1 5.2-6.6 7.2-7c.5 0 8.2 2.7 8.6 2.9 4.7 2.4.3 18-3.2 21.4.3 1.5 14.2 9.3 16.4 9.6 2.9.5.2-2.4 1-4.9s6.5-6.3 8.8-5.9c5.4.9 6.3 10.2 14.7.3 1.9-2.2 0-4.1 4.5-4.6 8.5-1 5 8.4 7 14.1 12.4-17.2 20.2-37.4 32.1-54.9l29.4-16.1Zm507.8 44.8c8.8-17.7 20.1-34.4 28.2-52.3-.4-8.9-2.9-14.5-6.9-22.2-8.9-17.4-21.4-34.4-32.7-50.3-21.1 25.5-52 52.2-82.8 65.2-24.8 10.4-48.4 7.8-73.7 14.8l29.7 16.3c11.6 17.6 19.4 37.7 31.8 54.7.9-1.8 1-13.5 1.5-14s7.3-.2 7.8.2c1 .6 1.6 7.8 6.9 8.7 6.3 1.1 7.7-7.8 15.4-2.8 2.7 1.8 3.1 6 2.8 8.9 1.2 1.4 17.7-8.3 18-9.6.2-1-3.9-5.8-4.6-8.4-2.2-9.5-1.5-13.7 8.4-14.8 5.3-.6 2.8 2.2 5.5 4.5 4.6 4 7.8-2.7 10-2.6 2.7.2 5 4.9 7.2 4.9s3-2.8 4.5-3.5c5.2-2.4 16.6 3.8 22.8 2.3zM1078 1327c-5.5-11.1-10.5-24.8-17.6-34.9-4.2-6.1-10.2-10.5-14.9-16.1-3.4-4-15.2-20.5-18.4-21.6-1.9-.6-4.4-.8-6.3-.2-2.4.7-15.7 18.7-18.7 22.3s-7.4 6.8-10.5 10.5c-9.4 11.2-15.1 26.9-21.5 40h108Zm-353.8 172.8c24.8 5.4 50.2 7.7 75 13.6 17.3 4.1 20.3 3.6 29.6 19.4 5.3 8.9 9.2 18.7 14.2 27.8l17 14-29.2-80.8c-2.4-5.8-8-8-13.1-10.9-22.2-12.9-51.7-27.2-75.7-36.3-2.6-1-8.1-3.8-10.4-3.5-1 0-15.6 9.5-16.3 10.3-6.3 7.6 6.8 37.2 8.9 46.5Zm599.6 0c2.5-10.6 8.2-22.1 9.8-32.7.8-5.7 1.7-10.9-3-15.1-1.1-1-13.2-8.9-14-9-2.5-.3-19.4 7.2-23.2 8.8-20.7 8.8-45.7 20.5-65 32-5.6 3.4-8.8 4.9-11.8 11.2l-28.5 80 16.4-14.1c7.1-10.9 14.9-35.4 25.9-42.1 6.1-3.8 19.9-5.9 27.5-7.5 21.8-4.6 44.2-6.7 66-11.5zM908.5 1649v1c.7-.3.7-.7 0-1m229.5 1c-31 8.8-60.6 26.8-91 36.5-19.3 6.2-28.3 5.9-47.5-.4-28.3-9.3-56.5-25.5-85-35.1-1.2-.4-3.6-1.8-4.5-.5.8 2.1 2.7 4.2 4 6 4.9 6.3 18 23.3 23.5 27.5 7.2 5.5 27.9 14.6 37.1 18.9 5 2.3 20.9 10.5 24.9 11.1 9 1.4 36.3 1 46 0 7-.6 57.7-24.6 64.4-29.6 5.3-3.9 18.2-20.8 23-27 .8-1 5.8-6.8 5-7.5Z" class="outline shading" data-original-prefix="shading" opacity="0.5" style="opacity: 0.5"/><path id="outline-jaw" fill="#000000" d="M670 1105c2 .2 9.2 3.6 9.8 5.7 1 3.3-1.3 18.1-2 22.7-6 41.8-19.7 84.1-28.6 125.4-12.3 18.3-29.3 33.5-43.8 50.2-1.2 1.3-6.5 7.5-6.5 8.5l56 135.5c1.5.4 1.7-.4 2.5-1 7.1-4.9 23.9-23.3 30.5-30.5 1.5-1.6 9.9-11.2 10-12-17.6-32.9-42.5-63.1-49.8-100.8 17.2-28.9 35.3-57.4 56.9-83.2 6.2-7.4 21.8-27.5 32-26.1 4.7.6 8.6 4.8 6.4 9.5-23 21-44.9 44.7-62.7 70.3-3.2 4.6-15.2 22.2-15.6 26.5-.5 5.1 11.8 29.8 15 35.6 7 12.8 29.4 46.8 40.5 54.5 2.8 1.9 7 3.2 10 5 77.7 46.7 153.2 90.1 243.1 109.9 13.1 2.9 37.4 9.1 49.8 9.2 11.3 0 33.7-5.7 45.6-8.2 92.6-19.7 168.3-62.9 248.1-110.9 3.1-1.8 7.2-3.1 10-5 11.1-7.7 33.4-41.8 40.5-54.5 3.2-5.8 15.5-30.5 15-35.6-.4-3.9-10.7-19.3-13.6-23.5-18.3-27-40.8-51.3-64.7-73.3-2.5-9.2 6.9-10.8 13.8-7.8 10.7 4.6 40.4 44.2 48.5 55.5 11.9 16.7 22.3 34.6 33 52.1-7.3 37.7-32.2 67.9-49.8 100.8 0 .8 8.5 10.4 10 12 6.6 7.2 23.4 25.6 30.5 30.5.8.6 1 1.4 2.5 1l55.8-135.3c-15.4-20.6-35.6-37.7-50.1-58.9-8.6-41-22.6-83.1-28.6-124.4-.7-4.8-3.1-20-1.9-23.7.6-2.1 8-5.5 9.8-5.7 4.6-.4 10.8 5.1 11.9 9.6 8.1 44.1 13.6 92.9 27.6 135.4 9.1 27.6 33.8 39.8 52 60 4.9 5.4 6.6 7.2 4.8 14.8-2.1 8.6-9.2 23.2-12.8 32.2-16.7 41-35.5 81.7-54.5 121.5-2.5 2.1-18.6 9-21.4 8.6-4.6-.7-13.3-13.3-18.5-15-3.1 22.3-7.1 44.7-11.8 66.7-29.2 38.3-55.4 79-82.3 118.7-10.2 4.1-22.2 12.3-32.2 15.8-1.5.5-3 1.3-4.6.7l-24.6-43.9c-1.1.5-16.2 15.9-17.3 17.7-6.5 10.1-3.8 21-14.2 29.8-22.9 19.1-72.2 40.2-100.7 51.3-18.6 7.3-34.3 14.2-54.7 14.3-24 .2-49.5-11.4-71.5-20.6-23.2-9.8-67.3-29.4-85.5-45.5-10.3-9.1-7.3-19.2-13.7-29.3-1.1-1.7-16.2-17.1-17.3-17.7L812 1674c-1.6.6-3.1 0-4.6-.7-10.1-3.5-22-11.7-32.2-15.8-26.9-39.8-53.1-80.4-82.3-118.7-4.7-22-8.6-44.4-11.8-66.7-5.2 1.7-14 14.4-18.5 15-2.8.4-18.9-6.5-21.4-8.6-19-39.8-37.8-80.5-54.5-121.5-3.6-8.9-10.8-23.6-12.8-32.2-1.8-7.6 0-9.4 4.8-14.8 13.4-14.9 37.6-30.5 47.2-47.8 7.3-13.1 12.4-41.8 15.8-57.2 4.5-20.4 8.5-41.2 12.2-61.8 1.5-8.5 1.8-19.4 3.7-27.3 1.2-5 7.2-11.3 12.6-10.9zm664.9 411.9 14.2-77.4c-.2-3.8-5.4-5.5-8.1-8-2.9-2.7-5.4-5.9-8.6-8.3-82.7 31.3-155.3 82.7-242.3 103.3-57 13.5-94.2 11-150.2-4.8-69.9-19.7-131-59.2-197.1-87.9-6-2.6-20.1-9.4-25.7-10.4-2.8-.5-7.7 6-10 8.1-2.1 2-7.6 4.5-8.1 7l14.2 78.3c17.8 1.1 35.6 3.8 53.4 5.1 9.3.7 42.4-.4 47.8 3.9 8.5 20 14.6 41 23.2 61 2.8 6.5 6.2 15.2 9.9 21.1 5.4 8.7 15 14.9 20 23.1 5.6 9.2 8.1 23.6 15.5 31.5 5.1 5.5 21.6 15 28.8 19.2 31 18.4 83.7 44.6 119.8 42.2 30.1-1.9 87.2-31 113.4-47.6 5.2-3.3 16.2-9.8 20.1-13.9 7.2-7.5 10.4-24.2 16.1-32.9 2.7-4.1 8-7.8 11.3-11.7 8.3-9.7 11.9-17.5 16.9-29.1 9-20.6 15.3-42.4 24.2-63 14.6-5 32.2-2.8 47.8-4 17.8-1.3 35.6-4.1 53.4-5.1v.3ZM801 1649c5.8-16.3 16.4-30.6 24.8-45.6-4.3-11.7-7.5-23.9-12-35.6-2.2-5.8-7.4-19.7-10.9-24.1-10.8-13.6-69.6-12.5-86.9-16.6-.5 1.7.7 2 1.5 3 13.4 17.3 27.7 33.6 40.3 51.7 15.2 21.9 28.4 45.1 43.2 67.3Zm531-122c-17.3 4.1-76.1 3-86.9 16.6-3.5 4.4-8.6 18.3-10.9 24.1-4.5 11.7-7.7 23.9-12 35.6 8.4 15.1 18.9 29.3 24.8 45.6 14.7-22.2 27.9-45.4 43.2-67.3 12.6-18.1 26.9-34.3 40.3-51.7.8-1 1.9-1.3 1.5-3Z" class="outline" data-original-prefix="outline"/><path id="outline-jaw1" fill="#000000" d="M785.7 1376.3c8.1 7.2 8.5 18.5 4.1 27.9-5.2 10.9-19.3 10.7-26.7 2.3-15.1-17.3 3.6-47 22.7-30.2Zm-12 4.9c-10.7 1.7-7.7 23.9 4.7 21.8 10.2-1.7 4.4-23.3-4.7-21.8" class="outline" data-name="outline-jaw" data-original-prefix="outline"/><path id="outline-jaw2" fill="#000000" d="M1262.3 1376.3c22.7-20.1 40.5 23.7 16.9 34.4-21.7 9.8-31.5-21.5-16.9-34.4m10.4 4.9c-10.5 1.7-12.6 25.9 1.3 21.4 10.1-3.2 8.1-22.9-1.3-21.4" class="outline" data-name="outline-jaw" data-original-prefix="outline"/><path id="outline-jaw3" fill="#000000" d="M723.7 1356.2c15.6-2.8 28.9 19.5 15.8 29.8-10 7.8-24 0-26.8-11.2-1.8-7.1 3.5-17.2 11-18.6m9.1 22.6c6.5-6.5-8.3-22.1-11.4-7.8-1.5 7.3 7.1 12.1 11.4 7.8" class="outline" data-name="outline-jaw" data-original-prefix="outline"/><path id="outline-jaw4" fill="#000000" d="M1317.7 1356.2c14.2-2.9 23 13.6 14.3 25.3-12 16-34.6 4.8-27.5-13.5 1.7-4.3 8.7-10.8 13.2-11.8m-2.5 22.6c4.3 4.3 12.9-.5 11.4-7.8-3-14.3-17.9 1.3-11.4 7.8" class="outline" data-name="outline-jaw" data-original-prefix="outline"/>
    </g><g class="trait-group" data-category="mouth" id="mouth-scrappy">
      <path id="fill-muzzle" fill="#ffffff" d="M1038 1292s-.4 1.7.7 2c10.3 2.8 18 4.3 25.8 13 1.9 2.2 4.9 8.8 6.5 9.5 2.6 1.2 6.6 0 9.5.5 11.4 1.5 21.2 3.7 31.2 9.8 2.1 1.3 9.2 7.8 10.2 7.1.3-.3 0-1.7 0-1.9 2.4-1.8 32.7.6 38 1 5.2 4.2 13.2 5.5 19.2 8.3 13.7 6.4 22.5 16.1 29.9 29.1 8.4 14.6 7.7 17.8 3.1 33.4-2.5 8.5-4.8 21.8-16.3 20.2 1.5-15.5-14.8-32.4-26.5-41-3.2-2.4-11.3-7.2-6 0 10.8 14.7 20.2 14.8 21.5 37.5.6 10.3-8.4 32.9-15.4 40.5-.6.7-7.1 6.3-7.6 6.5-3 1.6-6.9-6.1-7.8-8.2-3.6-7.8-4.7-15.5-9.7-23.3-1.1-1.7-10.8-13.7-12.4-12.1 5.6 13 9 46.2-2.5 56-4.4 3.7-9.4 1.9-13.3 3.7-2.8 1.3-3 5.7-4.8 6.1s-7-3.1-9.4-3.5c-8.9-1.3-13.2 17-18.7 17.5-2.5.2-10.7-11.9-18.4-9.4-7 2.2-15.4 21.2-24.4 23.6-6.3-6-3.4-14-5.8-21.2-1.2-3.5-4.2-6.7-5.8-10.2-5.4-12.7-2.8-19.9-.2-32.2.6-3 0-5.9.9-9.1.2-.7 6.3-12.3 6.9-13.1 3.7-5.4 19.2-12.4 22.7-3.8.9 2.2 0 8.7 2.2 7.7 5.1-4.9 10.2-9.9 15.5-14.5 11.5-10 14.1-9.7 21.2-24.8 1.5-3.3 6.5-14.5 6.6-17.3 0-3.4-9.2-14.7-11.8-17.8-1.4-1.7-9.5-11.5-10.2-11.8-6.4-3.2-28-2.3-34.7.8-7.9 3.6-12.5 12-19 17-1 .8-1.3 1.9-3 1.5l.8-12.7c3.6-4.3 21.7-23.3 21.1-27.5-.4-2.6-11.3-13.4-12.9-11.7 4.4 12.8.7 8.7-7.3 12.2-1.2.5-2.9 2.7-3.2 2.7s-2-2.2-3.2-2.7c-3.4-1.5-9.7-.4-9.3-5.6 0-1.1 4.1-7.6.5-6.6-2.8.8-12 9.9-11.3 13.2 0 .6 4 7 4.8 8 1.5 2 5 5.9 7 8.3 3.2 3.9 9.7 7.6 9.9 13.1 0 1.6-.8 3.1-.8 4.8s2.6 8.1-2.5 3.6c-6.2-5.3-10.2-13.6-18.5-17.5-6.5-3-30.3-4.3-35.7-.2-.8.6-8.8 10.5-10.2 12.2-2.4 3-10.9 13.7-10.8 16.8.2 5.4 11.7 29 15.7 33.2 3 3.2 9.3 6.8 13 9.9 5 4.3 9.7 9.1 14.5 13.5l4.2-11.1c4.9-3.1 17.7 2.6 20.8 7.1 1 1.5 5.1 9.9 6 11.9 2.8 6.4 5.1 25.4 4.4 32.4-1.1 10-7.9 15-9.4 22.6-1.3 6.4 1.1 14.9-5.8 18.9-8.1-2.6-17.3-21.5-23.6-23.5-8.2-2.6-15.9 9.6-18.4 9.4-5.3-.4-8.7-14-13.9-16.1-6.9-2.8-11.5 2.7-14.1 2.1-1.8-.4-2-4.8-4.8-6.1-4.5-2-9.6.3-14.3-4.7-10.9-11.5-6.5-42.2-1.5-56.1-9.1 6.7-14.1 14.8-18.5 25-1.6 3.6-2 7.5-3.7 11.3-1 2.1-4.9 9.8-7.8 8.2-.4-.2-6.9-5.9-7.5-6.5-3.9-4.3-13.8-24.4-15-30-2.8-12.9 1.4-26.5 9.5-36.5 4.1-5.1 11.3-9 13-15.5-2.4-2.4-22.3 17.4-24.4 20.1-5.4 6.8-11 15.9-9.6 24.9-8.3.5-10.7-3.3-13.3-10.2-2.7-7.1-7.8-22.8-6.2-29.8 3.7-16.2 21.4-35.8 36.3-42.7 6.2-2.9 13.9-4.1 19.2-8.3 12.5-.8 24.5-2.3 37-1 0 0 .7 2.1.5 3 9.5-8.2 20.6-14.8 33.1-16.9 4.7-.8 14.8-.4 18.1-1.8 1.6-.7 5.2-7.7 7.2-9.9 8-8.4 15.2-9.7 25.4-12.5 1.1-.3.6-1.9.7-2 1.1-.7 25.9-.7 27 0v.2Z" class="fill" data-original-prefix="fill"/><path id="fill-teeth14" fill="#ffffff" d="M1039.1 1601.9c-.8-.5-7.2-15.4-7.9-17.6-4.2-13.6-7-37.9-1.5-51.1 5.8-13.9 10.8-1 20-5 1.9-.8 7.6-6.8 9.2-8.8 2.6-3 3.6-9.1 8-8 12.8 3.1 21.1 24.2 22 36.1 2.3 30.4-23.4 40.7-45.2 53.7-1.2.5-3.6 1.3-4.6.6Z" class="fill" data-original-prefix="fill"/><path id="fill-teeth13" fill="#ffffff" d="M1015.7 1527.3c10.2 8.9 6 44.1 2.3 56.2-1.9 6.4-6 12-8.1 18.3h-2.3c-12.1-7.1-26.3-12.4-36.1-22.9-9.1-9.8-12.3-17.9-11.5-31.5.8-11.8 9-32.3 21.2-35.9 4.8-1.4 5.7 4.5 8.2 7.4 1.8 2.1 8.3 8.8 10.5 9.5 6 1.9 12.5-4.1 15.8-1.3z" class="fill" data-original-prefix="fill"/><path id="fill-teeth12" fill="#ffffff" d="M904 1461c0 2.2-1.1 3.8-.8 6.2s7.4 22.5 8.8 24c3.7 4.1 11.1 2.3 15.9 2.9 4.9 13.5-4.3 23.9-8.6 35.6-2 5.3-8.4 33.1-12.8 34.3-3.3.8-11.7-18-12.8-21.2-6.8-20.9-8.8-51.8 1.8-71.7.6-1.2 7.1-11.6 8.4-10.1Z" class="fill" data-original-prefix="fill"/><path id="fill-teeth11" fill="#ffffff" d="M1144 1564c-1 .7-1.8-.4-2.4-1.1-5.8-5.8-8.7-24.8-11.8-33.2-4.3-11.7-13.8-21.9-8.6-35.6 18.6 2.9 18.2-8.8 23.1-22.4l2.2-9.8c10.2 11.1 15.2 27.6 14.6 42.5-.5 13.7-3.2 35.3-9.5 47.5-.8 1.5-6.9 11.6-7.5 12Z" class="fill" data-original-prefix="fill"/><path id="fill-teeth10" fill="#ffffff" d="M949 1569c5.5 22.1 11.4 45.4 9 68.5-.5 5-1.3 9.2-7 6.9-3.4-1.3-17.5-13.4-19.5-16.5-7.4-11.8.3-39.7 8-50.8 1.2-1.7 7-10.1 9.4-8.1Z" class="fill" data-original-prefix="fill"/><path id="fill-teeth9" fill="#ffffff" d="M1100 1569c3.4-2.9 13.3 14.1 14.5 17 4.8 11.7 9.3 33.5 1 44-2.1 2.7-18.5 16.5-20.9 15.9-1.9-.4-3.4-6.5-3.6-8.4-1-8.7 0-26 1-35 1.1-10.9 6.5-22.5 8-33.5" class="fill" data-original-prefix="fill"/><path id="fill-teeth8" fill="#ffffff" d="M1167 1547c.9-6.7-1-15-.6-21.3.3-6.3 3.7-14.6 3.6-21.2 0-5.7-4.8-19.5-4-24 .5-2.9 3.5-2.8 5.5-4.5 6.2-5.3 10.4-15.8 16.9-4.9 14.2 23.5-1 56.5-18.4 74.4-.9 1-1.3 1.9-3 1.5" class="fill" data-original-prefix="fill"/><path id="fill-teeth7" fill="#ffffff" d="M881.7 1478.3c3.3 2.9-2.8 21-2.8 26.2s2.6 12.6 3.1 18c.7 8 0 16.5-.5 24.5-1.8 0-11.7-13.3-13.3-15.7-11.2-16.8-20.3-43.7-7-61.7 6.2-8.4 9.7.9 14 4.7 2 1.9 5.7 3 6.6 3.9Z" class="fill" data-original-prefix="fill"/><path id="fill-teeth6" fill="#ffffff" d="M1018 1613v16.5c0 .9-10.8 13.2-11.9 14.1-6.3 4.8-8-2.6-10.6-5.5-5.5-6-17.9-.4-24.4-5.6-.9-.7-4.1-8.3-4.1-8.9v-24.5c12.3 3 28.7 18.5 41.4 16.9 3.5-.4 6.1-3 9.6-2.9Z" class="fill" data-original-prefix="fill"/><path id="fill-teeth5" fill="#ffffff" d="M1102.5 1494c3.3-.8 5.3 8.5 6.3 10.7 5 10.5 15.3 30.3 11.4 42.1-2.2 6.7-15.6 23.4-20.4 11-4-10.4-4.1-44.7-1.1-55.5.4-1.6 2.4-7.9 3.8-8.2Z" class="fill" data-original-prefix="fill"/><path id="fill-teeth4" fill="#ffffff" d="M917 1563c-1.6 13.5 2.8 27.4 2 40.5-.5 8.8-4.2 18.6-5.5 27.5-5.8-5.6-10.5-15.7-11.4-23.6-.6-5.2.7-25.8 2.4-30.3.6-1.6 10.5-16.2 12.4-14.1Z" class="fill" data-original-prefix="fill"/><path id="fill-teeth3" fill="#ffffff" d="M1135 1631c-.4-8.9-4.4-17.8-5.1-26.5-1-13.6 3.6-27.7 2-41.5 2.2-2.4 11.9 13 12.5 15 2 6.8 2.7 27.3 1.2 34.3-1.3 6.3-5.5 14.8-10.8 18.7z" class="fill" data-original-prefix="fill"/><path id="fill-teeth2" fill="#ffffff" d="M1154.1 1604.9c-3.4-2-5.1-22.3-3.9-26.2.8-2.6 8.9-5.2 10.2-8.8l5.1-10.9c3.8 3.4 5.1 7.2 4.3 12.2-.7 4.5-5.2 22.3-6.9 26.2-.9 2.2-6.1 9-8.8 7.5" class="fill" data-original-prefix="fill"/><path id="fill-teeth1" fill="#ffffff" d="M885 1559c.4.4.7 7.1 3 10.5 2.7 3.9 10.5 6.9 11 10-.8 4.7-.7 23-4 25.4-2.5 1.8-7.7-4.5-8.7-6.7-1.6-3.6-6.3-22.5-7-27-.6-3.9 2.5-15.6 5.8-12.3Z" class="fill" data-original-prefix="fill"/><path id="shading-mouth2" fill="#aaaaaa" d="M918 1443.5c.8 5.3 5.6 13.8 10.1 16.9 11.5 8.3 16.2-.3 22.4-9.4 2.5 5.4 3.4 11.5 6 17 1.4 2.8 5.7 12 7.5 5.5l4-11.5c1.6 7.5 6.3 15.4 11.5 21 4.3 4.7 18.8 15.4 24.6 9.6 2-2.1 8.3-17.9 10.8-22.2 1.2-2.2 7.8-13.8 9.7-13.3 1 .2 8.5 13.2 9.7 15.3 2.4 4.5 7.3 17.7 9.8 20.2 3.8 3.8 10.5.4 14.4-1.8 10.5-5.9 18.5-17.2 21.7-28.8l4.2 12.3c.3 1.2 1.9 2.4 2.8 1.7.6-.4 5.8-11.3 6.5-13 .8-2 2.8-12 4-12 6.8 10.7 12.9 18.4 24.5 7.5 8.6-8 9.3-23.8 7-34.5 3.5-3.1 21.1 16.1 26.6 16.9 9.1 1.4 17.6-11.8 19-19.9 3.5-20.5-12.9-39.2-30.9-46.2l-12.7-4.8c15.4 0 28.2 2.9 41.1 11.4 4.8 3.1 12.2 10.9 17.6 11.4 6.2.6 10.1-4.1 10-10-.4-19.3-25.8-38.1-39.7-48.8 15.4 2.4 34.6 11.8 45 23.5 7.8 8.8 19.1 25.1 19.1 37s-6.4 28.5-9.2 32.8c-3.3 5.3-11.7 5.4-13.4 10.6-.9 8.1-2.1 16.4-2.5 24.5-1.5 29 1.4 45.2-10.8 73.2-3.6 8.2-12.7 20.4-14.9 27.1-4.2 12.8-.7 26.4-9.1 38.9-3.2 4.8-8.4 6.7-11.2 10.8-1.7 2.5-2.4 6.1-4.2 8.8-4.5 6.7-14.6 23-21.6 8.9-1.6-3.3-1.3-12.9-6.7-6.2-1.4 1.7-1.9 4.4-3.5 6.5-3.7 4.7-17.7 19.6-23.5 19.5-2.2 0-4.5-4.1-6.6-5.4-7.9-5-21.1-6.3-29.2-1.4-7.3 4.4-9.5 13.6-18.1 6.8s-6.4-10.8-20.1-9c-5.6.7-11.4 12.6-16.9 12.1-2.8-.2-11.4-11.1-18.5-12.6-6.3-1.3-17.5.7-23 4.2-2.6 1.7-4.1 5.6-7.5 5.4-5.7-.3-19.8-15.8-23.6-20.5-1.2-1.5-4.4-10.6-7.1-6.9-2.5 3.4-.6 9.9-7.2 12.7-7 3-14.9-11.2-18.1-16.4-1.2-1.8-1.2-4.3-2.6-6.4-2-3-6.8-5.4-9.5-8.5-10.4-11.9-6.7-27.7-10.7-41.3-.8-2.6-5.6-8.5-7.3-11.7-18.4-35.7-16.4-45.6-18.4-84.6-.4-7.7-.6-20.7-2.2-27.8-1.5-6.2-11.1-6.1-14.2-11.8-3.4-6.1-9.3-29.6-8.6-36.4 1.2-10.3 16.2-31.2 24-38 10.5-9.2 26.2-16.5 40-18.5l-21.5 17c-7.2 6.4-26.8 32-14.8 39.9 9 5.9 16.7-4.5 23.7-9.1 12.7-8.4 25.3-11.8 40.7-11.8l-17.3 7.2c-18 9.4-33.1 32.7-22.1 52.8 1.7 3.1 8.6 10.4 12 11.1 9.1 1.7 20.7-15.4 29.5-18 .6 6.4-.9 14.3 0 20.5zm-37.1 40.6c-12.3-.5-17.1-20.2-22.8 1.5-3.4 13 1.2 26.4 9.4 36.5 1.5 1.8 12.7 13.1 13.9 12.9.8 0 2.5-2.3 2.8-3.2 2.9-7.1-3.2-12.2-4.2-19.2-1.5-9.8 0-18.7.9-28.4Zm301.8-8.9c-3.2.8-6.3 6-8.8 7.3-2.1 1.1-7.2 1-7.8 3.2-.5 1.7 3 10.8 2.9 14.8 0 3-1.5 13.9-2.2 16.8-.9 3.6-3.9 5.7-3.9 10.2s1.4 7.1 3.7 7.4c1.9.3 15-14.4 16.8-17 5.7-8.5 9-18.8 7.3-29.2-.5-3-4.4-14.5-8-13.6Zm-284.8 10c-4-2.3-6.5 9.9-6.8 12.5-1.2 10.5 3 38 8.7 47.1 1.9 3 5.4 6.9 9.2 7.3 3.7-15.6 12.6-29.2 21-42.5-2.3-.4-1.7-2.9-2.7-3.5-1.5-.9-7-1.9-9.7-3.1-4.7-2.2-12-7.7-15.6-11.4-1.2-1.2-3.8-6.2-4.2-6.3ZM1139 1552c8.3-2 11.9-12.2 13.9-19.6 3.1-12.1 6.1-33.4 1.1-44.8-3-6.9-5.8 1.7-8.3 4.1-3.9 3.8-11 9.3-16 11.6-2.5 1.1-7.8 1.8-9.1 2.7-.7.5-.5 1.8-1 2.7-.3.4-1.7.4-1.6.9 0 1 7.9 12.3 9.2 14.8 4.8 8.8 9.1 18 11.8 27.7Zm-197.7 5.7c8.1 8.1 9.5 0 10.5-7.3.8-5.6 2.7-20.6 1.7-25.4-3.6-17.2-21.3-15.9-21.6 3.6 0 6.8 4.6 24.3 9.4 29.2Zm161.5-44.5c-5 1.3-8.5 9.3-8.8 14.2-.2 4 2.4 28.5 3.8 31.3 2.5 5 7.5 0 9.8-2.7 6.8-8.3 11.6-30.7 4.5-39.5-2.7-3.3-4.8-4.4-9.2-3.3zM1023 1544c-.7-.7-.8-7-5.1-9.4-8.9-5-21.8-.8-32-4-10.4-3.3-9.4-13.1-16.1 1.8-2.9 6.4-9.1 24.4-6.3 30.7 1.1 2.4 17.8 15.6 21.2 17.8s18.2 11.7 21.1 10c3.1-5.6 9.3-9.5 12.6-14.9 1.8-2.8 4.1-11.5 4.6-11.9 1.6-1.7 1.7.5 2.1 1.4 1.6 3.6 2.1 6.8 4.5 10.5 3.3 5.2 9.2 9.3 12.4 14.6 3.1 1.9 15.5-5.9 18.9-8.1 4.5-2.9 22.9-17 23.9-21.1 2.2-9.7-6.6-28.3-10.9-37.2-4.9 1-7.8 5.2-12.7 6.7-9.2 2.8-28.2-1.6-33.7 6.3-.9 1.2-2.6 8.9-4.5 7zm-136 18c-.7-.6-3.5 0-4.5.9-6 6.2 2.4 31.6 14.6 27.6 4-1.3 3.8-9.4 2.8-12.9-1.1-3.9-7.2-4.1-9.8-7.2-2.1-2.5-2.7-8.2-3-8.5Zm274.1 0c-.3.3-.9 6-3 8.5-2.6 3.1-8.7 3.3-9.8 7.2-1 3.4-1.2 11.6 2.8 12.9 13.4 4.4 20.2-24.5 14.1-28.1-.9-.5-3.5-.9-4-.4Zm-216.4 7.2c-1.5.4-5.1 4.6-6 6.1-3.4 5.6-5.6 32.3-4.8 39.3 1.3 10.9 15.2 18 19.5 3.5 1.7-5.6 2.6-21.4 2.5-27.6 0-1.1-5.8-19.7-6.5-20.5-1.2-1.4-3.2-1.3-4.8-.8Zm153.3-.1c.2 6.6-5.4 14.7-6 20.6-.5 4.5 1 25.3 2.4 29.4 4.2 12.1 16.9 7.3 19.1-2.9 1.1-5.2 0-16.8-.6-22.6-1-9.7-1.7-25.5-14.9-24.5m-180 1.9c-20.5 3.8-17 28.7-9 43 4 2.9 10.4-17 10.7-19.8.9-7.5-2.9-15.5-1.8-23.2Zm218 43c2.5 1.8 7.2-9.1 7.7-10.8 3.9-12.8 1.6-30.1-13.7-32.2.5 7.4-2.8 16.2-1.9 23.4.3 2.7 6.4 18.5 7.9 19.6m-148.2 10.2c1.4.8 4.8 8.6 9.5 11 11.1 5.8 20.2-6.4 20.7-16.7.8-13.7-7.2-7.7-16.5-8.6-8.4-.8-15-4.8-21.8-9.2-5.5-3.5-13.6-14.6-14.7-1.4-.5 5.1 1.4 7.5 1.8 11.2s-2 5.9.5 10.7c4.8 9.3 18 1.3 20.7 2.8zm93.1-31.1c-2.1-1.5-19.7 12.7-23.9 14.4-2.3 1-7.9 2.3-10.5 2.5-10.5.9-18.8-5.4-16.4 11.4 1 7.3 7.9 15.8 16 15.1 9.4-.8 11.9-11.6 14.6-12.4 4-1.3 12.3 5.7 18.9-1.1 4.3-4.4 1.3-8.4 1.5-12.5 0-2.3 1.9-4.8 2-8.1 0-1.9-.8-8.5-2.2-9.4Z" class="outline shading" data-original-prefix="shading" opacity="0.5" style="opacity: 0.5"/><path id="shading-mouth1" fill="#aaaaaa" d="M1041 1343c6.1.5 12.7-1 17.5-5 1.5-1.3.9-3.7 2.8-2.9 10.1 7.9 37.9 17.4 43.8 28.2 3.6 6.5 4.6 17.5-1.8 22.6-5.6 4.5-20.8 10.8-28 15-4.9 2.8-9.7 6.6-14.7 9.3-7.4 4.1-25.5 14.5-32.6 16.4-2.9.8-5.2.8-8.1 0-14.5-3.8-42.2-22.5-56.3-30.7-6.2-3.6-21.2-9.1-23.2-15.8-5.5-18.4 15.7-28.3 28.7-35.4 2.3-1.2 15.5-8.6 16.5-8.7 2.9-.3 4.2 2.9 6.7 4.2 4.2 2.3 10 3.2 14.7 2.8-.3-5.1-3.3-11.3-1.8-16.3.5-1.6 12.5-13.9 14.5-14.4 3.9-1 8.2-.3 11.6 1.9 1 .7 10.8 11.1 11.2 11.8 2.1 5-1.2 11.8-1.5 17" class="outline shading" data-original-prefix="shading" opacity="0.5" style="opacity: 0.5"/><path id="outline-mouth3" fill="#000000" d="M889 1333c-5.3 4.2-13 5.4-19.2 8.3-14.9 6.9-32.6 26.5-36.3 42.7-1.6 7 3.5 22.7 6.2 29.8 2.6 6.9 5 10.8 13.3 10.2-1.4-9 4.2-18.1 9.6-24.9 2.1-2.6 22-22.5 24.4-20.1-1.7 6.5-8.8 10.4-13 15.5-8.1 10-12.3 23.6-9.5 36.5 1.2 5.6 11.1 25.8 15 30 .6.7 7.1 6.3 7.5 6.5 3 1.5 6.9-6.1 7.8-8.2 1.7-3.8 2.1-7.7 3.7-11.3 4.4-10.2 9.4-18.4 18.5-25-5.1 13.9-9.5 44.6 1.5 56.1 4.8 5 9.9 2.7 14.3 4.7 2.8 1.3 3 5.7 4.8 6.1 2.6.6 7.2-4.9 14.1-2.1 5.2 2.1 8.6 15.6 13.9 16.1 2.5.2 10.2-12 18.4-9.4 6.3 2 15.5 20.8 23.6 23.5 6.9-4 4.5-12.6 5.8-18.9 1.5-7.6 8.3-12.6 9.4-22.6.8-7-1.6-26-4.4-32.4-.9-2.1-5-10.5-6-11.9-3.1-4.5-15.9-10.2-20.8-7.1l-4.2 11.1c-4.8-4.4-9.5-9.2-14.5-13.5-3.7-3.2-10-6.8-13-9.9-4-4.2-15.5-27.8-15.7-33.2 0-3.1 8.4-13.8 10.8-16.8 1.4-1.8 9.5-11.6 10.2-12.2 5.4-4.1 29.2-2.8 35.7.2 8.4 3.8 12.4 12.1 18.5 17.5 5.2 4.5 2.5-1.7 2.5-3.6s.9-3.2.8-4.8c-.2-5.4-6.7-9.2-9.9-13.1-2-2.4-5.5-6.3-7-8.3-.8-1-4.7-7.3-4.8-8-.7-3.3 8.6-12.4 11.3-13.2 3.6-1-.5 5.5-.5 6.6-.4 5.2 5.9 4.1 9.3 5.6 1.2.5 3 2.7 3.2 2.7s2-2.2 3.2-2.7c8-3.5 11.7.6 7.3-12.2 1.6-1.7 12.5 9.1 12.9 11.7.6 4.2-17.5 23.2-21.1 27.5l-.8 12.7c1.7.4 2-.7 3-1.5 6.5-5 11.1-13.4 19-17 6.8-3.1 28.3-4.1 34.7-.8.7.3 8.8 10.1 10.2 11.8 2.6 3.1 11.9 14.4 11.8 17.8 0 2.8-5 14.1-6.6 17.3-7.1 15.2-9.7 14.8-21.2 24.8-5.3 4.6-10.4 9.6-15.5 14.5-2.2.9-1.4-5.6-2.2-7.7-3.4-8.6-19-1.6-22.7 3.8-.6.8-6.7 12.4-6.9 13.1-1 3.2-.3 6.1-.9 9.1-2.6 12.3-5.2 19.6.2 32.2 1.5 3.5 4.6 6.8 5.8 10.2 2.5 7.2-.5 15.2 5.8 21.2 9-2.3 17.4-21.3 24.4-23.6 7.7-2.4 15.9 9.6 18.4 9.4 5.6-.5 9.8-18.8 18.7-17.5 2.3.3 7.6 3.9 9.4 3.5s2-4.8 4.8-6.1c3.9-1.8 8.9 0 13.3-3.7 11.5-9.9 8.1-43 2.5-56 1.6-1.7 11.3 10.4 12.4 12.1 5.1 7.8 6.1 15.5 9.7 23.3 1 2.1 4.8 9.8 7.8 8.2.4-.2 6.9-5.8 7.6-6.5 7-7.6 16-30.2 15.4-40.5-1.3-22.7-10.7-22.7-21.5-37.5-5.3-7.2 2.8-2.4 6 0 11.8 8.6 28 25.5 26.5 41 11.4 1.6 13.7-11.7 16.3-20.2 4.6-15.6 5.3-18.8-3.1-33.4-7.4-13-16.3-22.7-29.9-29.1-6-2.8-14.1-4.1-19.2-8.3 9.3.7 19.7 2.8 29.2 5.3 7.4 1.9 14.4 3.9 20.7 8.3 3.2 9.3 27.6 34.6 28 42 .2 3.7-8.2 22.5-10 27.9-2.5 7.2-2.6 16-10 21-1.9 1.3-8.4 2-9 3.2-4.1 7.9-1.4 38-1.9 48.8-1.1 21.6-7.6 43.1-20.5 60.5-.9 1.2-2.6 1.5-3.6 2.7-4.3 5.6-2.8 18.6-4.3 26.5-1.2 6-5 13.1-5.6 18.4-.4 3.5 1.3 7.7.8 9.7s-10.7 8.6-13.2 9.9c-2.2 1.2-5.7 1.5-6.5 2-.6.4-5.4 10.9-7.2 13.3-2.1 2.7-11.1 11.3-14 12.1-4.1 1.2-7.9-10.3-9.9-13s-2.3 2.3-3.6 4.3c-4.3 6.7-25.1 26.6-32.4 28.6-1.7.5-3.3.7-5 .5-.4-5.9 3.2-9.9-1.5-15.1-8.2-9-20.9-.3-24.3 8.8-1.8 4.9-1.6 20-8.6 18.1-4.6-1.3-20-25.6-23.2-30.8-5.7 8.9-12.2 19.9-19.5 27.4-11.2 11.7-9.9-11-13.8-18.2-3.8-7.1-14-12-21.1-6.7-6.7 5-2.9 9.6-3.1 16.4-3.5 3.5-24.3-13.8-27.5-17-1.3-1.3-10.5-12.2-11-13-.7-1.4-.2-6.3-2.6-3.3-2.1 2.7-6.2 14.3-10.2 13.3s-12-10.2-13.7-12.4c-2.1-2.7-6.6-12.8-7.2-13.2-.8-.5-3.8-.6-5.8-1.7-2.3-1.2-11.9-7.4-13-9-2.1-3.2.4-6.9 0-11-.7-6.8-5.9-15.3-6.8-24.2-.5-5 .6-10.7-.6-15.4-1-4-8-10-10.7-14.3-15.3-24.4-17.6-52.1-17.9-80.2 0-5.4 3-18.2 0-22.8-.8-1.2-7.8-1.9-10.4-3.8-7.2-5.3-6.2-13-8.6-20.4-1.9-6-10.7-24.3-9.8-28.7.5-2.7 4.3-7.5 6-10.1 7-10.8 15.7-20.6 22.5-31.5 5.9-4.3 13.2-6 20.1-7.9 9.7-2.6 19.8-4.7 29.2-5.3h.2Zm15 128c-1.4-1.5-7.8 8.9-8.4 10.1-10.6 19.9-8.6 50.8-1.8 71.7 1.1 3.3 9.4 22.1 12.8 21.2 4.4-1.1 10.8-28.9 12.8-34.3 4.3-11.7 13.6-22.1 8.6-35.6-4.8-.6-12.2 1.2-15.9-2.9-1.4-1.5-8.5-21.7-8.8-24s.8-4 .8-6.2Zm240 103c.6-.4 6.8-10.5 7.5-12 6.3-12.1 9-33.7 9.5-47.5.6-14.9-4.3-31.4-14.6-42.5l-2.2 9.8c-4.9 13.6-4.6 25.2-23.1 22.4-5.2 13.7 4.3 23.9 8.6 35.6 3.1 8.4 6 27.5 11.8 33.2.7.7 1.4 1.8 2.4 1.1Zm-262.3-85.7c-1-.9-4.6-2-6.6-3.9-4.2-3.9-7.8-13.1-14-4.7-13.3 17.9-4.1 44.9 7 61.7 1.6 2.4 11.5 15.7 13.3 15.7.5-8 1.2-16.5.5-24.5-.4-5.4-3.1-12.3-3.1-18s6-23.3 2.8-26.2ZM1167 1547c1.7.4 2-.5 3-1.5 17.4-17.9 32.6-50.9 18.4-74.4-6.5-10.8-10.8-.4-16.9 4.9-2 1.7-5 1.6-5.5 4.5-.8 4.5 4 18.3 4 24s-3.3 14.8-3.6 21.2c-.3 6.3 1.6 14.6.6 21.3m-64.5-53c-1.4.3-3.3 6.6-3.8 8.2-3 10.7-2.9 45.1 1.1 55.5 4.8 12.4 18.2-4.3 20.4-11 3.9-11.7-6.4-31.5-11.4-42.1-1-2.2-3-11.4-6.3-10.7Zm-86.8 33.3c-3.2-2.8-9.7 3.2-15.8 1.3-2.1-.7-8.7-7.5-10.5-9.5-2.6-2.9-3.4-8.8-8.2-7.4-12.2 3.5-20.5 24.1-21.2 35.9-.9 13.6 2.4 21.7 11.5 31.5 9.8 10.4 24 15.7 36.1 23h2.3c2.1-6.4 6.2-12 8.1-18.4 3.7-12.2 7.9-47.3-2.3-56.2zm23.4 74.6c1.1.7 3.4 0 4.6-.6 21.8-13.1 47.5-23.3 45.2-53.7-.9-11.9-9.2-33-22-36.1-4.4-1.1-5.5 5-8 8-1.7 1.9-7.3 7.9-9.2 8.8-9.2 4-14.3-9-20 5-5.4 13.2-2.6 37.5 1.5 51.1.7 2.2 7.1 17.1 7.9 17.6ZM885 1559c-3.2-3.3-6.4 8.4-5.8 12.3.7 4.5 5.4 23.4 7 27 1 2.2 6.2 8.5 8.7 6.7 3.4-2.4 3.2-20.7 4-25.4-.5-3.1-8.3-6.1-11-10-2.3-3.5-2.6-10.1-3-10.5Zm269.1 45.9c2.7 1.5 7.8-5.3 8.8-7.5 1.7-3.8 6.1-21.6 6.9-26.2.8-5-.5-8.8-4.3-12.2l-5.1 10.9c-1.4 3.6-9.4 6.1-10.2 8.8-1.2 3.9.5 24.2 3.9 26.2M917 1563c-1.9-2.2-11.8 12.5-12.4 14.1-1.7 4.6-3 25.2-2.4 30.3.9 7.9 5.6 18 11.4 23.6 1.4-8.8 5-18.6 5.5-27.5.8-13.1-3.7-27.1-2-40.5Zm218 68c5.3-3.9 9.4-12.4 10.8-18.7 1.5-7 .8-27.4-1.2-34.3-.6-1.9-10.4-17.4-12.5-15 1.5 13.8-3.1 28-2 41.5.7 8.7 4.6 17.6 5.1 26.5zm-186-62c-2.4-2-8.2 6.4-9.4 8.1-7.7 11.1-15.4 39-8 50.8 2 3.2 16 15.2 19.5 16.5 5.6 2.2 6.5-1.9 7-6.9 2.4-23.1-3.5-46.4-9-68.5Zm151 0c-1.5 11-6.9 22.6-8 33.5-.9 9-2 26.3-1 35 .2 1.9 1.7 8 3.6 8.4 2.4.6 18.8-13.3 20.9-15.9 8.3-10.5 3.8-32.3-1-44-1.2-2.9-11-19.9-14.5-17m-82 44c-3.5 0-6.1 2.5-9.6 2.9-12.7 1.6-29.1-13.9-41.4-16.9v24.5c0 .6 3.2 8.2 4.1 8.9 6.5 5.2 18.9-.4 24.4 5.6 2.6 2.9 4.3 10.3 10.6 5.5 1.1-.8 11.9-13.1 11.9-14.1v-16.5Z" class="outline" data-original-prefix="outline"/><path id="outline-mouth2" fill="#000000" d="M1122 1332c-.2 0 .2 1.6 0 1.9-1 .8-8.1-5.8-10.2-7.1-10-6.1-19.8-8.3-31.2-9.8-2.9-.4-6.9.7-9.5-.5-1.5-.8-4.5-7.4-6.5-9.5-7.8-8.7-15.6-10.2-25.8-13-1.1-.3-.6-1.9-.7-2 3.1-3.8 16.2-9.3 20.8-9.8 7.9-.9 5.5 4.4 6.5 9.1 2.3 10.7 9.3 19.6 21.3 18.8 5.1-.3 5.6-4 7.9-4.1 1.4 0 6.6 2.9 8.2 3.8 9.4 5.2 15 12.5 19.3 22.2z" class="outline" data-original-prefix="outline"/><path id="outline-mouth1" fill="#000000" d="M1011 1292s.4 1.7-.7 2c-10.2 2.8-17.4 4.1-25.4 12.5-2 2.1-5.6 9.2-7.2 9.9-3.4 1.4-13.5 1-18.1 1.8-12.5 2.1-23.6 8.7-33.1 16.9.2-.9-.5-2.8-.5-3 .8-2.7 8.7-13.3 11-15.6 2.5-2.4 14.7-10.5 17.6-10.4 2.7 0 3 5.1 11.9 3.9 10-1.3 16.2-10.1 17.5-19.6.4-2.6-2.4-6.7 2.8-8.2 3.5-1 21.7 5.6 24.3 9.8Z" class="outline" data-original-prefix="outline"/>
    </g><g class="trait-group" data-category="eyes" id="eyes-beaker">
      <g id="eyes-goggles"><path id="fill-eyes-skull" fill="#ffffff" d="M1337.7 1024.3c1.5.9 16.3 27.2 18.4 31.1 9.7 17.9 18.4 36.1 23.1 55.8.9 3.7 4.9 7.3-.6 11.5s-13.7 5.7-17.7 7.8c-9.3 4.9-18.6 9.9-27.5 15.5-1.2 42.7-11 81.2-47.2 106.8-43.1 30.5-110 44.9-161.5 32.9-13.7-3.2-24.1-9.2-39.1-3.9-11.8-10.4-26-18.9-37.7-29.3-7.2-6.4-13-14.8-20.5-20.5-2.7 1.3-6.1-.6-8.4.4s-13.7 15-17 18c-12.4 11.4-27.2 20.1-39.7 31.3-3.4.3-6.4-1.6-9.8-1.8-14-1.1-26.2 5.6-40.1 7.8-49.6 8.1-115.4-7.3-155.2-38.4-33-25.8-41.6-63-42.6-103.4-9.7-5.8-19.6-11.2-29.5-16.5s-18-6.5-18.9-12.2 2.6-4.6 3.6-7 .9-6.7 2.1-9.9c7.7-20.9 25.7-58.2 39.1-75.6s2.4-.4 3.1-1.3c18-23.8 37.3-50.3 58.9-70.8 140.3-133.5 334.8-143 483.5-16.5 25.5 21.7 43.5 44 64.5 69.5s10.4 15.7 12.5 17.5 3.2.6 4.2 1.3Z" class="fill" data-original-prefix="fill"/><path id="outline-eyes6" fill="#000000" d="M696 1136c.7 5.7-1.4 11.4-2 17-1.4 1.2-21.5-7.8-24.8-8.7-13.8-4-26.1 4.1-24.1-17.7 2.4-26.3 17.9-67.1 30.7-90.3 4.9-8.8 24.5-40.3 33.1-42.9 3.1-.9 7.2 1.5 8.9.5.4-.3 3.7-6.5 5.2-8.3 78.3-95.7 168.6-146.9 294.5-148.6 132.9-1.8 222.6 47.8 306.4 147.6 1.4 1.7 5.8 9 6.2 9.3 2.4 1.4 7-1.2 9.8-.4 7.6 2.1 25.6 30.2 30.2 37.9 13.9 23.7 31.8 69 33.8 96.2 1.6 20.6-11.3 13.1-24.2 16.8-2.5.7-4.5 2.5-6.8 3.2-5.8 1.8-11.9 2.9-17.5 5.5l-3.5-17c.2-.3-.2-1.8.2-2.3 3.6-4.4 22.6-10.5 23.3-11.7 4.5-6.8-6.4-31.1-9.7-38.4-3.9-8.8-9.1-18.8-13.7-27.3-2-3.7-15.9-28.3-17.4-29.1-.5-.3-10.8-1.3-12.3-1.3-8.7 0-25.2 1.8-34 3.1-7.3 1.1-14.2 4-21.5 5-.4-1.8.9-2.5 2-3.5 10.3-10 25.8-16.8 38.1-24.1-2.6-12.8-10.1-23.8-18.6-33.4-37.8-43-100.8-73.6-152.2-97.8-64.6-30.5-162.4-29.5-226.7 1-47.5 22.5-138.9 67.2-163.2 114.8-1.5 3-6.7 13.2-4.5 15.5 9 5.4 19.5 10 28 16.1 2 1.4 13.1 9.4 11.1 11.4-7.1-1.7-14.2-3.9-21.5-5-8.8-1.3-24.5-3.1-33-3.1s-7.8 2-11.8 1.1c-9.3 14.8-18.8 29.9-26.6 45.6-4.4 8.9-14.4 29.9-15.1 38.9-.2 2.4-.6 9.7 1 11 1 .8 4.9 1.5 6.7 2.3 5.2 2.4 14.7 5.6 15.3 11.2h.2Z" class="outline" data-original-prefix="outline"/><path id="outline-eyes5" fill="#000000" d="M981 1184c-1.9.4-2.4-1-3.4-2.1-13.3-14.7-23-34.8-35.1-47.9-22.5-24.4-60.9-45.3-87.4-65.6-1.2-.9-9.5-7-8.1-8.4 16.5 4.3 29.6 16 44.3 24.2 19.2 10.7 39.3 20 58.6 30.4 5.3 6 8.9 13.4 12.2 20.8 7.2 15.8 12.7 32.5 18.8 48.7Z" class="outline" data-original-prefix="outline"/><path id="outline-eyes4" fill="#000000" d="M1202 1060c.4 1.8-.9 2.5-2 3.5-7.4 7.2-18.8 12.6-27.3 18.7-19.4 13.7-51 35.4-66.7 52.3-10.2 10.9-18.1 30.5-29.4 41.6l-8.5 8c6.1-16.2 11.6-32.9 18.8-48.7 2.4-5.2 7.3-16.6 11.2-19.8 22.4-12.8 46.4-23.4 68.7-36.3 11.5-6.6 21.7-16.7 35.3-19.2Z" class="outline" data-original-prefix="outline"/><path id="fill-eye-lens2" fill="#ffffff" d="M825.8 1080.2c12 .1 33 9.8 43.5 16 68.6 40.5 84.8 127.1 44.1 193.7-76.9 126.1-228.1 32.8-206.1-98.1 9.2-54.6 60.3-112.1 118.5-111.6" class="fill" data-original-prefix="fill"/><path id="fill-eye-lens1" fill="#ffffff" d="M1219.8 1080.2c40-2 88.2 33.9 106.4 68.1 21.9 41.4 22.5 93.8 1 135.3-36.3 70.1-124.4 91.4-178.1 26.8-49.9-60-50.7-147.2 10-200 13-11.3 43.7-29.4 60.8-30.3Z" class="fill" data-original-prefix="fill"/><path id="fill-eyes-rims" fill="#ffffff" d="M1443.4 1122.6c-15.3-2.5-30.1 1.3-45.4.6-11.1-.5-19.7-6.1-27.2-13.8-8.1-8.3-14.7-17.8-22.2-26.6-8.7-10.1-19.1-18.7-30.8-25.2-25.3-14.1-54.4-19-83-19.1-15.4 0-30.8 1.2-46.1 2.8-15.4 1.6-31 3-45.9 7.4-29.3 8.6-51.5 29.5-72.1 51.1-1.6.6-2.8 1.5-3.8 2.7-32.6.2-65.3-.3-97.9-1.5-.4-.8-.8-1.7-1.3-2.5-4.5-7-11.8-13-17.9-18.6-13-12-27.2-22.9-42.1-32.5-1.7-1.1-3.3-1.6-4.9-1.7-.7-.1-1.4-.2-2.1-.2q-50.7-.9-101.4-.3c-2.6 0-4.7.9-6.3 2.2-20.3 1.5-40.2 6.9-58.7 15.6-4.5 1.8-9 3.9-13.4 6.2-28 14.7-46 39-61.2 65.7-1.4-3.5-4.5-6.4-9.3-6.7-8.5-.5-17.1-.5-25.7.1-7.7.6-16.7 1-20.9 8.6-4 7.2 0 16.6.8 24.3.7 7.6.8 15.3.8 22.9.2 15.2-.3 32.1 4.7 46.6 4.6 13.3 19.9 13.5 33 11.2 3.2 24.9 8 49.3 20.1 71.7 21.5 39.6 60.8 69.1 104.3 80.2 22.9 5.8 46.5 6.2 69.7 1.5 13.9-2.8 27.4-7.3 40.7-12.3 13.6-5.1 27.5-10.1 40.5-16.6 24.8-12.4 43.4-32.7 55.3-57.5 10.6-22 16.5-45.7 20.7-69.7 18.7-2.9 37.9-3.1 56.7-.4 4 31 10 62.5 30.3 87.3 11.6 14.1 27.6 23.6 43.4 32.3 16.2 8.8 32.1 18.5 48.6 26.7 16.9 8.3 34.2 14.2 53 16.2 17 1.8 34.5.2 51.1-4 33.3-8.4 63.5-27.7 85.7-53.9 23.8-28.1 39.2-62.5 46-98.6 8.7-.6 17.3-1.3 26-1.9 5.9-.4 10.2-4.5 10.5-10.5 1.8-33.2 3.5-66.5 5.2-99.7.2-4.2-3.4-9.4-7.7-10.1Zm-541.8 195.8c-18.4 19.1-42.6 31.7-68.8 36.1-14.2 2.3-28.8 1.8-43-1.3-.8-1.4-2.1-2.6-3.8-3.5-31.8-16.3-58.5-40.6-77.7-70.4-.6-1.4-1.2-2.9-1.8-4.3-4.6-16.8-8.3-33.9-11.1-51.1v-3.4c.2-7 .6-13.9 1.1-20.8.4-5.7.8-11.5 1.2-17.2 11.8-42.8 44.9-79.7 87.9-93 5.8-1.8 7.9-6.4 7.4-10.9 36.8-4.6 75.8 5.9 104.7 29.2 14.9 12.1 27.1 27.2 35.9 44.2 0 .6-.1 1.2 0 1.8 0 .6.1 1.1.2 1.7 6.3 55.2 9.2 119.9-32.2 163Zm449.7-119.5c-.6 18.5-1.8 37.6-5.7 56-.6.9-1 1.8-1.4 2.8-7.6 22.3-19 43-33.4 61.5-11.4 9.9-24.6 18.2-37.8 25.1-14.8 4.9-30.8 7-46.4 6.5-16.3-.5-32.2-3.8-47.8-8.6-.8-1.5-2.1-2.7-3.7-3.4-6.9-3.3-11.9-8.6-17-14.1-4.9-5.3-9.7-10.7-14.4-16.3-9.2-11-17.8-22.7-24.5-35.4-6.6-12.5-11-26.1-12.4-40.2-1.4-14-1.4-28.2-4.4-41.9 1-5.1 2.2-10.1 3.7-15 5.2-17.8 13.2-36 24.1-51.8 13.3-13.7 27.4-26.8 43.2-37.1l21.3-11.1c.7 0 1.5-.2 2.3-.4 32.7-9.2 67.4-1.7 94.9 17.8 27.9 19.7 43.2 49.7 54.9 80.9l1.8 4.8c1.1 5.8 2.1 11.7 3 17.6-.2.8-.3 1.6-.4 2.4Zm21.6-13.6c-.4-1.4-.9-2.9-1.4-4.3.6 1.4 1.2 2.8 1.8 4.1-.2 0-.3.2-.5.2Z" class="fill" data-original-prefix="fill"/><g id="eyes-shading"><path id="shading-eyes-9" fill="#aaaaaa" d="M828 1341c30.3-58.6 59.5-117.8 86.6-178 1.4-2.2-5.1-12.5-6.1-13-1.6-.8-1.4.8-1.8 1.2-3.3 4.6-6.5 10.5-9.5 15.4-33.5 54.8-63.1 112.1-93.2 168.8-2.2 2.3-11.1-1.5-14.3-2.8-2.4-1-11.8-4.9-11.8-7.2l111.9-197.3c1-4-6.4-8.8-9.5-11.1-16.1-12-46.8-25.6-66.9-26.2-5.7-.2-6.7 3.5-9.5 7.5-11.7 17.3-22.5 38.9-32.5 57.5-18 33.7-35.5 67.9-50.5 103-1.7 1.2-4.2-10.7-4.5-12-6.3-28.1-5-57.3 3.3-84.8 3.1-10.4 8.7-19.5 13.3-29.2-1.1-1.2-9 7.3-10 8.5-25.8 29.8-29.6 76.5-18 113 19.8 62.7 60.6 106.8 131.4 97.3 35.1-4.7 61.4-30.6 80-59 3.7-5.6 19.1-35.9 22.3-36.8 9.1-2.6 3 15.1 1.8 18.8-14.2 44.2-63 92.9-110.9 96.1-146.7 9.8-214.5-185-101-273 34.5-26.8 62.1-29.6 105-26 26.1 2.2 68.2 30.1 85 50 11.3 13.4 24.8 43.2 26.4 60.6 2.1 22.3-6 49-12.6 70.2-9.5 30.6-31.5 65-61.3 78.7-4.2 1.9-25.1 9.5-28.5 9.5h-14.5Z" class="outline shading" data-original-prefix="shading" opacity="0.5" style="opacity: 0.5"/><path id="shading-eyes-8" fill="#aaaaaa" d="M1341 1197c-1.8.3-1.1 5.2-1 6.5.6 11.1 1.4 19.5 0 30.8-2.5 19.2-21.3 61.8-35.4 74.6-17.5 15.9-43.2 27.4-66.5 31 12.9-34.5 27.5-68.4 40.7-102.8 11.3-29.3 22-58.8 32.8-88.2 1.1-2.2-6.8-12.6-7.6-12l-91.1 201.4c-3.7 5.2-20.8-2.8-25.9-4.4l100-214.5c0-2.7-14.6-12.5-17.7-14.3-18.9-11.2-43.3-16.8-64.9-11.3l-79.4 169.1c-5.7-10.8-9.1-22.4-12.5-34-14.3-48.2 27.2-121 71.5-142.5 16.4-8 29.6-9.2 47.6-9.5 9.8-.2 18.8-1.7 28.1-1.9 18.6-.3 36.5 6.9 51.7 17.1 123.7 83 58.4 289-92.9 278.9-47.9-3.2-96.3-51.2-110.7-95.3-1.2-3.7-8-26.1 2.8-18.8 3.1 2 15.4 27.3 19 33 27.3 43.3 61.9 69.2 115.8 61.9 50.8-6.9 77.9-43.2 94.4-88.6 5.9-16.3 5.7-25.4 4.2-42.7-.7-7.8-2.7-15.6-3-23.5" class="outline shading" data-original-prefix="shading" opacity="0.5" style="opacity: 0.5"/><path id="shading-eyes-5" fill="#aaaaaa" d="M1054.8 1224.8c3.2-20.6 5.1-40.3 11.2-60.3 1.8-5.7 9-27.1 12-30.8 2.4-3 8.5-2 7.7 2.3-.6 3.2-6.6 11.7-8.4 16.7-4.3 12.2-6.8 28.8-8.2 41.8-1.2 11.4-.4 25.1-2.1 35.9-1.8 11.2-15.3 6.7-22.4 6.5-13.3-.3-26.8-.2-40.1 0-7.5.1-19.2 4.6-23.2-4.7-2.3-28.3-1.8-60.2-13.5-86.5-1.2-2.8-4.6-6.5-5.3-8.8-1.1-3.4 1.7-5.7 4.9-4.9 4.1 1.1 12.1 24.3 13.7 29.3 6.5 20.4 9.3 41.3 11.4 62.6 20 5.7 41.9 4.7 62.3.7Z" class="outline shading" data-original-prefix="shading" opacity="0.5" style="opacity: 0.5"/><path id="shading-eyes-4" fill="#aaaaaa" d="M1441 1235c-10.6 2-20.9 11.1-31.9 6.9 2.3-38.8-3.8-78.8-22.2-113.3 10.7-6.8 10.5-5 16.2 4.8 15 25.6 19.6 58.4 20.8 87.7.6.7 14.2-5.2 17-4v18Z" class="outline shading" data-original-prefix="shading" opacity="0.5" style="opacity: 0.5"/><path id="shading-eyes-3" fill="#aaaaaa" d="M607 1217c2.8-1.2 16.4 4.7 17 4 .8-29.6 6.1-63.3 21.5-89 3.8-6.4 5.4-10.6 12.9-4.9 4.2 3.2-3.1 12.5-4.8 16.9-10.1 24.9-16.3 57.6-15.5 84.5.1 3.9 2.4 8.6.5 12.5-3.4 6.9-26.1-5-31.5-6.5-1.6-1.4 1.1-14.1 0-17.5Z" class="outline shading" data-original-prefix="shading" opacity="0.5" style="opacity: 0.5"/><path id="shading-eyes-2" fill="#aaaaaa" d="M1107 1341c-1.4.2-2.5-.2-3.7-.8-2.4-1.1-19.6-12.4-21.8-14.2-10.3-8.9-29.2-64.3-27.4-77.5 1-7 15.4-5 16.4-3.6 1.2 1.8 1.9 14.4 2.8 18.2 3.5 15.5 15.4 41.6 23.2 55.8 1.8 3.4 9.8 13.9 10.3 15.7.6 2 .1 4.2.2 6.3Z" class="outline shading" data-original-prefix="shading" opacity="0.5" style="opacity: 0.5"/><path id="shading-eyes-1" fill="#aaaaaa" d="M941 1341c0-2.4-.3-4.6.5-6.9 1.2-3.6 10.3-15.7 13-21 6.7-13.2 16.9-35.9 20-50 .8-3.8 1.7-16.3 3-18 1.5-2 16.1-3.6 16.6 5.5.7 12.7-17.4 65.6-26.6 74.5-2.2 2.2-19.8 13.6-22.9 15.1-1.2.6-2 1.3-3.6.9Z" class="outline shading" data-original-prefix="shading" opacity="0.5" style="opacity: 0.5"/></g><path id="outline-eyes3" fill="#000000" d="M1389 1103c26.4 8.4 53.8 8.7 81 13.1-14.7 46.7-12.2 96.5-11.4 144.9-14.6 6.7-31.3-1.8-46.6-.6-7.1 30.3-16.5 61.3-35.9 86-75.1 95.1-181.4 76.1-270.7 13.8-32.9-22.9-39.4-35.2-52.5-72.5-4.8-13.6-9.9-27.4-11.8-41.7-11.4-1.1-22.5-1.1-33.9 0-1.9 14.7-7.3 29.3-12.3 43.2-12.9 36.2-19.5 48.2-51.4 70.6-89 62.5-195.6 82-270.8-12.8-19.7-24.9-29.3-56-36.4-86.6-14.2-.9-29.1 5.5-43.3 2.3-5.5-1.2-2.7-3.7-2.7-7.2 0-35.7 1.4-73.6-4.3-108.8-1.7-10.5-5-20.5-7.7-30.7 27.2-4.7 55.5-4.5 82-13.1 17.8-5.8 14.4-7.8 25.5-20 20.9-23.1 42.8-35.2 71.5-46.4 26.5-10.4 34.6-8.6 62.5-7.5 21.7.8 43.5 1.5 65 4 19 2.2 39.5 3.8 54.5 16.5 15.6 13.1 28.3 31 42 46 28.6 2.2 57.4 2.2 86 0 15.5-15.7 34.3-45.4 54.8-54.2 23.2-10 86.7-12.5 113.7-13.3 16.3-.5 29.3-1 44.8 4.3 31.5 10.8 59.8 25.9 82.3 50.7 12 13.2 7.3 13.9 26.5 20Zm-593.2-54.7c-108 7.2-173.1 129.2-138.8 227.2 25.9 74 84.1 126 166.5 120.5 56.3-3.8 119-56.1 137.5-108.5 39.4-111.4-40.5-247.6-165.2-239.2m437 0c-115.5 7.8-182.9 134.3-145.8 239.2 18.7 52.7 81.8 105.1 138.5 108.5 82 4.9 139.7-46.7 165.6-120.5 36.8-105.2-40.8-235.1-158.2-227.2ZM882 1053c33.2 12.8 54.5 43.2 74.5 71 2.3-3.1 11.6-9.7 11.3-13.3-.6-6.8-26.5-34.7-32.8-40.2-16.1-14.2-27.1-16.8-48.5-18.5-1.1 0-4.7-.8-4.5 1m284-1c-13.5 1.8-29.8 1.6-41.3 9.2-8.5 5.6-45.3 41.4-44.5 50.2.3 3.3 9.1 9.7 11.3 12.6 16.1-22.9 32.9-45.6 56.2-61.8zm-194 77h104c-2.4-6.9-8-12.7-11.7-19-27.1-.7-54-1.1-81.1.2-.7 2.7-12.5 17.6-11.2 18.8m-323 3-45 6c1.3 6.3 3.5 12.5 4.7 18.8 3.1 16.1 4.6 33.3 5.3 49.7.3 5.9-1.3 21.8.1 25.9.8 2.2 15.5 6.3 18.4 6.6s.5-4.3.4-6.4c-1.2-35.1 1.4-68.2 16-100.5Zm795 6-45-6c14.8 33.6 18.8 70.6 15 107 3.5-.7 18.8-3.7 19.8-6.7 1.4-4.1-.2-20 .1-25.9.8-16.4 2.3-33.6 5.3-49.7 1.2-6.3 3.4-12.5 4.7-18.8Zm-457 95h74c0-10.9-.1-20.2 1.5-31 3.3-22.6 11.9-44.1 17.5-66-5.9 2.7-12.6 0-18.4 0-29.5-.3-59.5 1.8-89.1 1.1-1.7 0-2.9-.3-4.4-1.1 5.6 21.9 14.2 43.3 17.5 66 1.6 10.8 1.5 20.2 1.5 31Zm2 13c-2.1.2-7.4-.8-8.6.9-.7 1-3.1 19.4-3.9 23.1-5.3 23.4-15.1 44.9-29.5 64 2 .5 2.7-.7 4-1.4 3.4-2 11.8-7.9 14.4-10.6 4.8-4.7 12.8-27.6 15-35 4-13.3 6.4-27.3 8.5-41Zm111 88c1.1-1.2-9.2-14.6-10.5-17-8.2-14.2-14.3-31.1-18-47-.8-3.7-3.3-22.1-3.9-23.1-1.2-1.8-6.4-.7-8.6-.9 2.2 13.7 4.5 27.7 8.5 41 2.2 7.4 10.2 30.3 15 35z" class="outline" data-original-prefix="outline"/><path id="outline-eyes2" fill="#000000" d="M791.8 1064.3c75.4-6.2 152.2 54.7 157.2 131.2 4.3 66.6-6.2 126.6-67.7 162.3-85.2 49.4-185-7.6-209.8-96.8-24.3-87.4 23.4-188.8 120.3-196.7m34 15.9c-58.3-.5-109.4 57-118.5 111.6-22 130.9 129.2 224.2 206.1 98.1 40.7-66.7 24.5-153.3-44.1-193.7-10.5-6.2-31.5-15.8-43.5-16M763 1084c-16.4 3.7-31.9 14.1-44 25.5-72.4 68-52 193.5 33.3 240.7 61.6 34.1 135.2 13.3 170.5-46.9 4.6-7.8 10.1-18.4 11.2-27.3-2.8-.6-1.6.8-2.3 2.1-31.8 59.3-83.5 103.3-154.4 72-101.6-44.9-112.9-205.9-16.3-263.7 1.3-.8 2.5.2 2-2.5Z" class="outline" data-original-prefix="outline"/><path id="outline-eyes1" fill="#000000" d="M1229.8 1064.3c74.4-6.3 136.7 43.9 149.9 116.5 20.8 114.3-79.9 232.9-197 185-73.2-29.9-88.4-97.7-83.7-170.3 4.2-64.8 66.5-125.8 130.8-131.2m-10 15.9c-17.1.9-47.8 19-60.8 30.3-60.6 52.8-59.9 139.9-10 200 53.7 64.6 141.8 43.3 178.1-26.8 21.5-41.5 20.9-94-1-135.3-18.1-34.2-66.3-70.1-106.4-68.1ZM1113 1276c28.1 84.7 123.3 118.2 197.3 64.8 76.8-55.4 86.6-178.6 10.2-238.8-10.1-8-23.8-16.1-36.5-18 5.6 4.3 11.9 7.6 17.5 12 75.4 59.2 66.8 190.6-11.6 243.4-69.8 47.1-143.4 7.8-173.9-62.7z" class="outline" data-original-prefix="outline"/></g>
    </g><g class="trait-group" data-category="right ear" id="right ear-KBDS tattoo">
      <path id="fill-ear-rt" fill="#ffffff" d="M1715.7 184.2c3.2-.7 6.5-.5 7.2 3.3 2.3 39.5-3.6 77.2-9 116-.7 4.7-.2 11.1-1.1 15.9-5 26.9-24.5 58.9-29.7 86.3-5.7 30.4-4.7 64.8-10.9 95.1-7.8 38.3-25.1 77.8-33.7 116.4l-71.9 122.1c-45.8 31.3-94.9 58.3-141.8 88.2l-35 81-84.6 77.3c-5.6 2.9-16.3-.8-22.4-2.4-27.7-7.2-48.3-18.1-70.9-35.1-16.5-12.5-27.2-20.9-37.6-39.4-6-10.5-10.9-22.9-14.5-34.5 26.8-59.3 58.7-116.4 86.8-175.2 4.9-58.7 6.7-117.8 11.4-176.5 36.5-47.5 77-92.5 114.8-139.2 47.2-35.9 96.4-69 144.9-103.1 66.1-31.9 127.9-72.1 197.8-96.2Z" class="fill" data-original-prefix="fill"/><path id="shading-ear-rt" fill="#aaaaaa" d="M1670.9 280.1c2.8 3.9-18.7 26.3-21.9 30.5-38.8 50.2-75.5 128.6-72.1 193 .8 14.1 7.3 33 2.8 45.7-3.7 10.4-14 27.3-15.4 37.7-.4 2.9.9 5.2.6 8 10-1.2 15.8-10.8 21.2-18.3 17.3-24.1 30.1-53.1 43.5-79.5 1.1-2.2 1.5-2.2 1.2.2-.8 9.2-6.8 26.8-9.7 36.3-15.4 50.2-37.8 100.7-66.2 144.8-15.3 23.7-22.2 32.4-46.1 47.9-25.3 16.4-36 17.1-63.9 25.1-14.1 4.1-56 16.5-65.5 25.5-11.9 11.1-30.7 52.3-40.3 68.7-13.5 23-27.7 45.9-43.8 67.2-3.6 4.8-10.5 10.9-13.3 15.7-5.6 10-6.8 27-11.1 37.9 7.3-4.2 14.2-10.7 20.5-16.5 12.8-11.9 26.4-25.8 38.5-38.5 12.3-12.9 33.6-33.7 41.2-48.8 7.8-15.6 13.6-33 21.3-48.7 14.9-4.8 30.4-7.3 45.1-12.9 49.9-18.9 92.7-57.3 134-90 1.4-.3 1.9 0 1.5 1.5-.9 3.2-10.1 20.8-12.2 23.8-4.2 6-36.3 28.6-44.5 34.5-29 20.7-59.7 39.2-87.9 61.1-15.7 27-28.8 55.8-43.5 83.5l-80 71c-6.2 2.7-28.5-4.8-35.8-7.2-32.1-10.8-54.1-27.3-79.9-48.6-8.9-15.6-7.9-22.5 2.7-36.2 24.9-31.8 50.6-57.8 73.4-92.6 33.1-50.5 54.8-106.4 86.2-157.8 11.1-18.2 27.9-36.1 31.3-57.7 1.4-9.1 1-19.2 1.1-28.4l54 6.5c10.6 14.3 17.8 31 26.5 46.5.8-.4 10.6-11.5 11.3-12.7 4.2-7.8 8.8-30.6 10.8-40.2 5-24.6 7-49.5 8.5-74.5 1.9-20.4-5.1-39.9 3.1-58.9 17.4-40.4 50.1-78.2 81-109l66.7-44.4c3.2-.7 24.4 7.8 25.2 8.9Z" class="outline shading" data-original-prefix="shading" opacity="0.5" style="opacity: 0.5"/><path id="outline-ear-rt2" fill="#000000" d="m1695 240-22 38.5-26.1 18.2c-.8 3.6 6.6 23.8 8.6 28.3 1.6 3.6 9 14.4 9.3 15.8.5 2.3-2.4 5.9-3.8 7.7-2 2.6-31.5 31.6-33 29.5-2.1-6.5 4.9-10.6 6.4-15 1.1-3.1-.9-32-1.6-37.4-.1-1-.6-4.4-2.4-3.6s-12.5 12.2-14.5 14.5c-2.7 3.2-19.7 25.9-19.7 28l24.3 37.6c4.3.9 8.3-6.7 11.4-9.6 4.5-4.2 25.3-22.8 29.6-23.4 3-.5 6.4.2 9.4 0 .9.8-4.4 6.8-4.8 8.7-1.8 8.2-2.5 22.9-3.2 31.8-2.2 27.4-1.5 53.7-1 80.9.1 6.7 1 20.1-2.6 25.5-12.9 9.5-26.3 18.3-39.4 27.6-2.1 1.5-5 6.6-7.6 3.4-2.2-2.8-5.1-21-5.5-25.5-.2-2.3-1.1-11-.6-12.5.7-2.4 4.7-6.5 6.1-9 .9 1.7 2.3 8.5 4.9 8 .8-.2 12.4-10.6 12.6-11.5l1-83.5c-1.7-.4-2 .5-3 1.5-5.3 5.5-14.9 19.2-20.1 22.9-.9.7-10.5 4-10.9 3.6 0-4.8-3.8-10-6.6-13.9-1.8-2.5-24.8-30.3-26.4-29.1-8.2 17.3-13.6 35.5-17 54.4 5.5 4.7 46.2 18.4 47.8 21.3 2.8 4.9.8 11.9 1.1 16.8 2.2 30.3 7.3 60 13.4 89.7 1 4.8 7.8 30.4 6.5 32.6-.7 1.3-13.1 7.8-15.7 9.8-8.8 6.6-14.2 15.2-18.9 25-6.4 13.5-5.6 24.2-18.8 33.2-2.7 1.8-24.4 14.1-25.9 14.2-1.7.1-14.9-5.3-15.4-6-.6-1 0-2.5 1-3.5 2.5-2.6 16-7.1 16.1-10l-18.1-62.5c-1.9 8.1-4.6 15.9-6.5 24-3.1 12.9-4.5 28.7-8.2 40.8-1.7 5.5-8 7.6-11.3 12.7 5.4 4.5 17 9.4 21.4 14.4 3.1 3.5-4.4 5.2-6.3 6.6-30 22.8-47.7 53.1-72.6 79.5-3.3 3.5-12.5 8.7-13.6 10.4-1.7 2.7 0 5.7-1.8 8.2-.8 1.1-17 9.8-19.7 11.3-3.2 1.7-24.5 12.2-25.9 12.1-1.3 0-1.7-.6-2.4-1.5 2.9-4.7 2.3-11.4 1.9-16.8-1.9-22.1-9.7-52-14.9-74.1-.4-1.5.7-1.8-2-1.5l-39 100.5 39.7-29.4c.8-.2 13.8 5.3 14.3 5.9 1.9 2.1-3.2 2.3-4.1 3.6s-1.2 5.3-1.6 7.1c-3.7 18.6-4.5 39.3-5.3 58.2 8.7-6.8 17.8-12.7 27.5-18 .8 1.7.9 5.7.3 7.3-.4 1.3-11.9 10-13.9 12.1-4.5 4.7-8.8 12.6-13.4 16.5-2.8 2.3-17.5 11-20.8 12.2-7.5 2.8-6.9-8.9-6.8-13.8.3-10.5 1.1-21.5 2-32 .9-9.8 3.1-19.7 3.5-29.5l-23.5 18.5-1 2 16.6 62.5c-13.1 9.4-27 17.3-42.6 22-.7-5.5 7-4.9 6.9-10.3 0-5.4-5.8-22.1-7.7-28.4-4.1-13.9-8.8-27.7-13.8-41.2-9.1 16-17.5 33.8-22.4 51.6-2.8 10-5.6 21.2-3.8 31.7.6 3.8 4.1 8.9 4.8 12.2.3 1.5 0 1.8-1.5 1.5-3.8-.7-25.2-18.5-26.7-22.3-.8-1.8-.9-3.3-.8-5.2.1-5.6 1.3-20.7 2.3-25.8.8-3.8 25.3-35.9 29.8-43.2 29.6-48.1 48-108.9 82.2-153.8 11.1-14.6 22.6-22.7 31-41 8.4-18.1 20.8-75.1 17.6-94-.7-3.8-10.8-27.6-9.8-28.7 13.4 6.2 26.8 13.4 39.3 21.2 3.9 2.5 14.9 8.7 17.2 11.8 3 4 10.2 28.6 12 35 2.4 8.5 6.3 34.7 11.4 39.5 12.7 12 29.6-12.1 35.2-21.9 27.1-47.2 34.2-98.5 26.7-152-1.3-9.2-7-27.1-6.7-35.2.2-6 16.5-39.2 20.3-46.5 22.2-41.8 45.9-63.9 79.1-95.9 9.7-9.4 21.4-23.7 31.6-31.4 6.4-4.9 14.6-7.2 21.2-11.8 3.7-2.5 26.5-23.7 29.7-20.8Zm-93 184c1.3 1 7.3-6 5.5-7.9-3.3-5-29.7-37.9-33-37.1-1.8 2.2-4.6 4.9-3.1 8 10.8 11.4 23.2 23.2 30.5 37Zm44.8 62.8c1.1-2 0-37.3.2-43.3l5-55.5c-3.2 3.8-11.4 10.8-12.1 15.4-2.2 16.5.4 41.4 0 59.1 0 2.4-1 4.5-1.1 6.9-.2 7.5.2 15 0 22.5 1.2-1.1 7.4-4.6 7.8-5.2ZM1544 478v24.5c0 3.7 3.5 16 5 20 1.3 3.7 6.8 12.2 7 14.1.8 5.4-7.7 8.8-5.9 14.8 6.5 26.2 9.3 53.3 18.9 78.6.6.5 5.1-6.5 6-7.5 2.6-2.9 10-8.1 10.1-11-8.1-39.8-12.3-80.3-12.1-120.9-8.7-6.1-18.6-10.9-29-12.7Zm-7 93c-2.3-.4-1.6.1-2.2 1.3-2.2 3.9-7 16-6.7 20.1 7.7 21.5 10.8 48.2 19 69.1.4 1 .4 2.4 1.9 2.5.6-4.7 8.2-12.2 7.8-16.2-10.5-24.4-15.3-50.7-19.8-76.8m-138 123 3-1.5c7.8-13.2 23-26.8 30.5-39.5 1.9-3.3 1.9-4 .8-7.7-2.6-8.4-16.5-31.1-27.6-24.2-6.7 4.2-11.6 26-14.3 33.5l7.7 39.4Zm23 42c2.5-5.8 6-11.2 8.5-17 5.2-12.3 10-26.5 8-40-11.9 16-22.9 32.6-33.2 49.6 3 18.6 6.8 37.2 11.7 55.4 23.6-19.1 43.3-42.3 62.8-65.3-1.4-2.2-5.7-10.8-8.2-10.5-5.3 3.7-47.2 30.1-49.7 27.9Zm-21.2 78.9-21.3-102.8c-2.5 3.4-10.4 8.3-10.6 12.4 4.4 27.5 14.2 55.5 17 83.1.2 2.4-1.2 15.2 2 14 3.6-1.3 8.5-5.9 12.9-6.7m-79.3-28.9v1c.7-.3.7-.7 0-1m-.5 2c-2.1-.5-2.3 1.1-3.2 2.3-2.4 3.1-5 7.4-7.2 10.8-1.8 2.8-12.3 19.2-10.6 20.9l5.9 1zm-14 142c2.4.4 4.4-.5 3.8-3.2l-24.3-82.8c-2.4 2.1-3 5.2-2.3 8.2 8.1 25.7 18.2 51.2 22.8 77.8" class="outline" data-original-prefix="outline"/><path id="outline-ear-rt1" fill="#000000" d="M1204 941c-4.4-.4-9.8-3.6-13.7-5.8-20.9-12-28.2-35-42.8-53.2-1.1-2.6-.7-7.5-.5-10.5.9-20.4 13.5-35.9 21.8-54.2 6-13.1 11.8-33.9 18.9-45 2.6-4 7.1-7.8 10-12 45.7-65.6 39.8-168 48.8-244.2 35.7-51.4 72.9-101.7 114.9-148.1 13.5-14.9 32.5-37.2 47.6-49.4 43.2-34.6 113.6-72.6 164.2-95.8 39.4-18.1 93.7-41 135.7-50.3 4.3-1 18.4-4.8 21.4-2.6 1.3.9 4.2 14.2 4.5 16.7 4.6 32.3.3 83.6-2.9 116.9-.9 9.4-3.1 31.6-6.5 39.5s-15.6 18.9-20 29c-9.8 22.5-20.5 85.6-16.1 109 2.2 11.6 6.5 11.2 4.1 25-11.5 64.2-42.8 133.8-77.1 188.9-32.9 52.8-80.7 93.9-134.8 124.2-18.8 10.5-28.8 10.7-42.1 29.9-15.2 21.8-20.8 40.5-31.1 63.9-5.5 12.6-19.7 19.4-29.9 28-7.3 6.2-13 13.2-19.5 19.5-6 5.7-26.7 27.8-31.5 30.5-2.3 1.4-20.6 4.8-23.6 4.5-10.9-1-38.2-12.2-49-17.1-3.9-1.8-12.1-5.3-13-9.5 25.5 10.4 46.2 11.5 70.3-2.2 26.5-15 64-49.9 79.7-75.5 5.8-9.5 22.9-46.4 24.6-56.2 1.1-6.9-2.7-5.6 5.1-11.8 33.2-26.6 76.4-40 110.3-69.7 69.6-60.8 114.1-151.8 132.5-241.5 3.7-18 2.5-30 3.4-47.5 1.9-35.7 9.5-78.4 22-112 6.8-18.1 16.8-28.7 20.7-48.3 2.5-12.5 4.6-27.1 6.2-39.9 3.1-25.3 4.5-50.9 2.1-76.4-42 13.5-81.8 33.1-120.7 53.8-46.8 25-95.6 54.9-139.9 84.1-51.1 33.7-90.6 69.4-129.4 116.5-21 25.5-42.6 53.1-60.3 80.7-13.9 63.2-10.7 129.3-22.2 192.8-13.1 26.3-23.4 54.1-36.6 80.4-5.6 11.1-14.2 23.2-19.1 33.9-2.8 6.3-15 38-15.7 43.3-3.2 23.6 13.3 50.9 28.9 67.4Z" class="outline" data-original-prefix="outline"/>
    </g><g class="trait-group" data-category="left ear" id="left ear-hi-tek">
      <path id="fill-ear-lft" fill="#ffffff" d="M326.7 182.1q1.65-.45 3.3.3l180.7 78.4c55.2 39.7 111.9 77.7 165.3 119.7l109.1 135.9c10.5 65.4 16.1 132 25.2 197.8 24.6 50.1 52.6 98.7 77.3 148.7 1.5 3.1 5.4 9.5 5.5 12.5.2 4.7-8.5 15.9-11.2 20.8-15.1 27.1-18.8 33.2-43.9 52.1-22.9 17.2-44.3 28.5-72.5 35.5-8 2-18.1 5.7-25.4.5l-82.9-79.1c-9.9-22-17.5-45.3-28.1-66.9l-154-109c-23.7-34.4-41.7-73.1-64.9-108.1-9.8-43.7-27.6-90.2-34.9-134.1-5.9-35.7-6.9-73.6-12.5-109.5-9.3-20.9-22.7-40-30.5-61.5-1-40.6-6.8-81.2-8.3-121.7s-1.1-11.4 2.8-12.4Z" class="fill" data-original-prefix="fill"/><path id="shading-ear-lft" fill="#aaaaaa" d="M664 558v21.5c0 22.8 19.2 43.4 30.4 61.6 38.9 63.4 63.1 129 108.2 189.8 16.2 21.8 35 41.1 51.9 62.1 4.8 5.9 9.3 10.3 9.5 18.5s-1.9 12.6-1.1 19l-.9 2.1-60.1 40.9c-13.7 0-28.1 9.9-40.7 12.4-1.5.3-2.8.5-4.2-.3l-76.6-51.4-69.8-109.7c-33.8-23.4-81.3-39.6-107.2-72.3s-6.4-12.2-10.5-17.5c.3-1.1 2.2-.4 3 0 7.1 2.9 21.5 16.6 29.2 21.8 23.5 15.5 51.4 30.4 77.4 41.6 17.3 7.5 35 10.9 52.9 16.1 7 15.4 12.9 31.5 20.2 46.8 8 16.6 27 35.1 40.2 48.8 19 20 39 39.1 59.5 57.5 1.5.2 1.8 0 1.4-1.4-1.9-7.7-7.7-31.2-11.1-36.9-4.7-7.9-16.1-19.2-22.2-27.8-25.1-34.9-42.3-72.5-64.4-108.6-7.4-12-9.8-16-22.8-22.2-38.1-18-78.4-19.1-114.3-41.7-26.9-17-34.3-26.3-51.1-52.9-25.7-40.5-46.4-86-61.2-131.8-4.2-12.9-10.9-32.4-12.7-45.3s-.3-1.6.5-1.5c14 25.4 25.6 52.8 42.1 76.9s12.8 19.9 23.4 21.1c-.5-2.4 1.1-5.1.8-7.3-1.4-11-12.7-28.8-16.3-39.7-3.8-11.7 2.7-30.6 3.5-43.5 3.6-59-24.7-121.5-55.6-170.4-12.4-19.7-28.5-37.1-37.4-59.1h16.5c8.6 0 8.7 2.4 14.2 5.8 15.3 9.7 32.5 17.5 48 27 30.2 18.6 67.2 68.2 84.5 99.5 2.9 5.2 12 22.4 12.8 27.2s-.9 10.1-1 14.9c-.8 41.5 1.8 83.9 11.9 124.2 3.2 12.9 5.4 24.4 15.1 33.9 1.4 1.4 2.9 3.8 4.5 1.5l24.5-44.5 55-6.5v-.2Z" class="outline shading" data-original-prefix="shading" opacity="0.5" style="opacity: 0.5"/><path id="fill-led-lft7" fill="#ffffff" d="M669.7 841.5c9.8-2 9.4 10.6 2.5 11.7s-9.5-10.3-2.5-11.7" class="fill" data-original-prefix="fill"/><path id="fill-led-lft6" fill="#ffffff" d="M484.7 520.6c3.7 3.7 0 13.3-6.7 10.2-8.1-3.7.6-16.4 6.7-10.2" class="fill" data-original-prefix="fill"/><path id="fill-led-lft5" fill="#ffffff" d="M409.7 431.6c3.7 3.7 0 13.3-6.7 10.2-8.1-3.6.6-16.4 6.7-10.2" class="fill" data-original-prefix="fill"/><path id="fill-led-lft4" fill="#ffffff" d="M562.7 709.6c3.7 3.7 0 13.3-6.7 10.2-8.1-3.7.6-16.4 6.7-10.2" class="fill" data-original-prefix="fill"/><path id="fill-led-lft3" fill="#ffffff" d="M518.7 714.6c3.7 3.7 0 13.3-6.7 10.2-8.1-3.7.6-16.4 6.7-10.2" class="fill" data-original-prefix="fill"/><path id="fill-led-lft2" fill="#ffffff" d="M391.7 292.6c3.7 3.7 0 13.3-6.7 10.2-8.1-3.6.6-16.4 6.7-10.2" class="fill" data-original-prefix="fill"/><path id="fill-led-lft1" fill="#ffffff" d="M761.7 919.6c3.7 3.7 0 13.3-6.7 10.2-8.1-3.7.6-16.4 6.7-10.2" class="fill" data-original-prefix="fill"/><path id="outline-ear-lft" fill="#000000" d="M573 706.7c3.7 8.5 0 12.5-.8 20.5l20.6 31.4c2.5 4.2.9 9.1-1.1 13.1L568 787.5c8.4 5.5 17.7 9.5 26.3 14.7 5.7 3.4 35.9 21.9 37.7 25.3 1.7 3 .6 6.3 1.4 9.6 11.9 50.4 60.6 107 105.9 131.1 24.3 12.9 35.4 10.2 60.4 2.1 2.2-.7 5.3-.6 7.2-1.3 0 2-1.5 3.4-3 4.5-7.6 5.3-52.8 22.6-61.2 22.3-2.6 0-19.5-3.7-21.3-4.7-17-15.3-32.7-34.3-50-49-11.7-10-25.8-16.1-32-31-10.4-25.3-24.2-65.6-48.8-80.2-7.9-4.7-17.2-8.1-25.3-12.7-100.5-56.5-161.2-147.7-195.6-256.4-3.9-12.3-16.2-53.5-15.7-64.1.3-5.5 5.1-11.9 5.8-18.2 3-25.7-5.9-83.4-16.4-107.4-4.5-10.2-16.6-20.8-20-29-3.6-8.8-5.5-29.4-6.5-39.5-3.1-32.9-8.7-93.7-1.3-124.3 1.3-5.6 1.1-10.4 7.8-10.2 11.2.4 35 8 46.3 11.8 89.3 29.6 189.9 78.4 265.5 134.5 17.7 13.1 38 37 53.2 53.8 39.6 43.9 77.2 92.8 110.1 141.9 3 4.4 4.7 3.6 5.4 10.6 2.1 21.1 1.2 43.6 3 65 4.4 51.5 12.5 128.1 42.2 170.8 3.6 5.2 8.8 10.1 12 15 7.4 11.4 13.7 33.5 20 47 8.4 18 19.9 31.7 20.8 52.2.2 3.2.5 7.5-.5 10.5-14.5 18.3-21.9 41.3-42.8 53.2-3.3 1.9-9 5.7-12.7 4.8 14.9-17.2 31.2-42.5 27.9-66.4-6.7-13.7-9.4-29.6-15.7-43.3s-16.2-27.8-23-42c-15.9-32.7-35.5-69.7-38.1-105.9-.7-27.5-4.4-54.7-7-82-2.4-24.8-1.9-68-15.6-88.4-11.2-16.8-29-37.7-42-54-40.5-50.6-77-87.4-130.7-124.3-65.4-45-147.9-94.6-220.4-126.6-5.4-2.4-49.5-20.1-51.4-18.1-2.4 24.7-.9 49.7 2.1 74.4 1.8 14.4 5.2 46.1 11 58 6.3 13 13.2 22.2 18.1 36.9 1.3 3.9 6.6 26.5 7.7 27.3 1.2.9 1.8 0 2.8-.3 8-3.1 23.8-19.6 32.3-16.8 5.3 1.8 33.4 51.9 39.9 59.1l13-8-67.1-103.3c-17.5 2.5-29.9-17.9-17.2-31.1 1.8-1.9 6-2.9 5.4-4.6l-24-39.1c-.2-1.5 0-1.7 1.5-1.5 7 1 21.2 16 27.6 20.5 7 4.9 15.7 7.3 22.4 12.6 10.5 8.1 24.9 24.1 35 34 38.8 37.8 64.8 66.6 86.6 117.4 1.8 4.2 8.3 18.1 8.6 21.4.7 7.3-5.5 27.3-6.7 35.9-7.5 53.7-.2 104.7 26.7 152 5.5 9.8 22.6 33.8 35.2 21.9 5.1-4.9 9.1-31 11.5-39.5 2-7 8.6-30.1 12-35 2.2-3.2 13.2-9.4 17.2-11.8 12.6-7.8 25.9-15.1 39.3-21.2 1 1.1-9.1 24.9-9.8 28.7-3 17.8 8.2 69.7 15 87.5 5.4 14.1 13.7 25.2 23.2 36.8 45.9 55.8 63.5 122 103.3 180.7 4.2 6.2 18.6 23.1 19.2 28.8.3 2.6-.3 5.4 0 8 .6 4.9 3.1 17.6 1.5 21.5-1.4 3.2-26.3 24.1-28.5 22 3.8-9.9 6.1-17.6 5-28.5-3.2-32.9-38.5-93.3-56.2-122.8-1.9-3.2-13.6-22.1-15.5-22.6l-38.2 25.2 61.1 93.5c19.4-2.8 31.1 20.4 14.8 32.7-11.6 8.8-28.3-.2-28.7-14.2 0-4.8 2.8-8 3.2-12.3l-21.7-33.9c-9.8.7-22 19-31.3 8.8-3.5-3.8-11-19.9-13.6-21.4-1.5-.9-7.3-.7-11-2-19.8-7.5-12.8-38.1 10.4-34.4 8.2 1.3 14.7 10.2 14.5 18.3 0 3.7-3.9 9.2-3.7 10.9s10.5 17.7 12.3 17.7 14.2-8.5 14.3-9.5L675 812.4c-1.5-8.8 16.7-11.8 15.2-17.1l-80.6-123v18.5c0 4.7 5.3 19.7 7.2 24.8 2.8 7.2 6.7 13.8 9.8 20.7l-54-29.3zM389.8 293.2c-6.2-6.2-14.8 6.6-6.7 10.2 6.8 3.1 10.5-6.5 6.7-10.2m49.3 77.7c.8.6 2.7-.3 3.6-.7 1.6-.6 16.6-9 17.3-9.7.6-.7 1-1 1.1-2 .3-3.5-15.2-21.8-18.6-25.5-5.5-6.1-30.6-31.1-36.6-33.4-1-.4-1.8-.8-3-.5 1.4 4.4-3.9 8.4-2.5 11.9 12.6 18.5 24.3 37.7 37 56.1.8 1.1 1.5 3.7 1.6 3.9h.1Zm30.7-.7c-3-1.7-18.8 10-22.9 11.3 3.2 8.5 24.2 32.6 24.1 40 0 6.4-16.1 11.9-19.9 17l26.2 40.6c1.4 4.1.8 5.8-2.5 8.4-12.9 10.2-30.5 17.8-43.5 28.6-.8 1 0 1.8.3 2.7.8 2 12.7 20 13.9 20.2 3-2.3 12.7-6.9 14.5-9.3 2-2.8-.1-8.1 3.5-13.5 8.3-12.5 27-10.2 31.9 3.9l1.5 10c11.2-24.6 9.3-53.2 4.7-79.2-3.3-18.2-8.7-35.7-16.5-52.5-1.6-3.5-14-27.3-15.4-28.1ZM412 605l42.9-27.6c-11.2-20.1-25-38.9-37.3-58.4-1-2.2-.8-4.8 0-7 1.9-6 45.6-28.5 45.6-32.4s-9.5-16.4-10.5-16.5c-7.5 3.4-21.1 18-29.3 14.2-4.2-2-12-19.8-15.2-21.8-1.8-1.1-5-.2-7.3-.7-23.6-5.5-17.4-37.6 4.8-35.8 9.1.8 16.3 9.3 16.1 18.4 0 3.9-3.6 9.4-3.4 11 0 .9 9 14.8 9.8 15.2 1.5.8 6-2.6 7.5-3.6 2.1-1.3 9.4-5.6 9.5-7.5l-46.4-70.4-25.7 16.4-1 2c2.1 11.6 5.7 23.3 7 35 3.6 31.8.8 57.1 8.5 89.5 6.5 27.1 15.6 53.6 24.5 80zm-4.2-172.8c-6.2-6.2-14.8 6.6-6.7 10.2 6.8 3.1 10.5-6.5 6.7-10.2m75 89c-6.2-6.2-14.8 6.6-6.7 10.2 6.8 3.1 10.5-6.5 6.7-10.2m7.9 17.9c-1.2.3-2.4 2.4-4 3.1-2.1.9-6 1.9-8.2 1.9-4.5 0-9.9-4.1-11.8-3.9-.9 0-14.5 8.4-14.6 9.3l69.3 104.4c.9 0 14.7-9.1 15.2-9.9 1.9-3-12.8-47.3-15.3-53.8-5.5-14.5-12.2-28.2-21-41-1.7-2.4-6.7-10.9-9.5-10.2h-.1Zm-16.8 68.7c1-1.8-3.3-7.8-4.5-9.8-1.1-1.8-6.1-10.1-7.8-10l-42.7 27.4c-.7.5-1 1.2-1 2-.3 2.9 11.5 24 13.9 28.2 21.6 38.2 58.6 86.8 92.7 114.3 4.8 3.8 26.5 20.2 31 20.1s20.1-13.6 25.6-15.7c.2-1.6-2.7-5.7-3.7-7.3-1.8-3-14.4-23.2-15.6-23.9s-5.7 0-8.1-.4c-20.3-3.7-19.5-32.4-.2-35.7 1.5-.2 8.5.9 7.4-1.6s-7.1-6.1-9-8c-3.8-3.6-7.5-6.1-8.7-11.3-.6-2.6-2.5-18.5-3.3-19.2-10 3-20 19-28.8 5.3l-29.7-45.3c-5.6 4.3-14.4 7.9-19.5 12.5-.8.7-2.1 1.1-1.7 2.5l45.7 70.9c19.7-7 33.9 19.7 16.8 31.5-15.8 11-34.6-6.1-26.2-23.1-12.9-25.3-33.4-48.7-47.2-73.4-2.7-4.8-5.9-9.2-1.1-13.9l25.4-16.1zm161.8 12.4c-9.4 2.1-21.3 24.9-22.5 34l88.5 134.7c1.6.5 16.8-8.7 18.3-10.4 1-1.1 1-1 .6-2.5-.5-1.9-7.1-10.8-8.8-13.3-13.6-19.6-29.2-38.1-46.3-54.7-1.1-23.3-4.5-46.6-12.5-68.5-2.9-7.9-6.5-21.7-17.3-19.3m-74.9 90c-6.2-6.2-14.8 6.6-6.7 10.2 6.8 3.1 10.5-6.5 6.7-10.2m-44 5c-6.2-6.2-14.8 6.6-6.7 10.2 6.8 3.1 10.5-6.5 6.7-10.2m151 127c-7 1.4-4.1 12.7 2.5 11.7s7.3-13.6-2.5-11.7m92 78c-6.2-6.2-14.8 6.6-6.7 10.2 6.8 3.1 10.5-6.5 6.7-10.2" class="outline" data-original-prefix="outline"/>
    </g><g class="trait-group" data-category="head" id="head-lemmy">
      <defs/><path id="fill-head" fill="#ffffff" d="M533.3 735.3c8-7.2 18.8-10.3 28.9-13.6 5.8-1.9 43.3-12.2 45.8-9.7-4.2 28-16.1 55.2-12.5 84 16.8 12.6 35.9 22.1 53.5 33.5 2.7.9 18.7 1.1 21.2.4 1.3-.4 2.1-1.3 2.4-2.6 3.1-9.9 6-37.5 12.2-44.8 4.5-5.2 23-11.8 30-14 3.8-1.2 12.8-1.6 14.3-4.7 1.4-2.9 2.1-10.8 2.6-14.4 6.2-43.6 8.5-87.9 14.4-131.6 2.2-8.1 23.4-39.3 29.8-46.2 10.1-11 35.2-14.8 49.2-19.3 26.2 17.7 53.8 33.1 82.4 46.7 21.4 10.2 53.4 26.7 76 30 31.3 4.6 77.6 4.3 107-7.7 34.3-14 73.7-32.6 105.2-51.8 5.3-3.2 23.7-17.4 28.1-17 6.3.5 24.8 7 31.5 9.6 14.9 5.7 16.3 9.2 25.3 21.7 7 9.7 19 26.5 21.1 37.9 5 27.8 5.9 60.2 9.2 88.8 2 17.4 4.2 34.9 6.8 52.2 2 5 13.7 5.5 18.9 7.1s23.1 8.8 26.2 12.8c6.2 7.8 7.6 33.1 11.7 43.3.5 1.3.9 3 2.3 3.7s14.8.8 17.6.5c13.1-1.3 41.6-26.1 55.4-31.6 2.1-1.5 2.8-3.5 3.1-5.9 3-25.6-10-53-13.6-77.5-.9-6 13.8-1.3 17.6-.5 11.2 2.2 24.1 5.5 34.8 9.2 6.5 2.3 18.2 6.2 22.2 11.8 5.1 7.1 14.1 36.8 17.3 46.7 13.8 43.2 29.9 108.4 31.7 153.3.5 12.5-7.8 26.1-13.8 37.2-41.1 76.2-97 148.9-158.5 209.5-76.3 34.6-152.2 70.3-230.5 100.5-12 4.7-31.2 13.7-43 16-16.5 3.3-39.7 2.8-56.8 3.2-35.9.9-74.1 1.9-110-1-23.2-1.9-34.7-7.2-55.8-15.2-71.7-27.4-141.5-59.5-211.1-91.9-7.4-3.5-19.8-7.2-26-11-5.1-3.1-18.2-17.7-23.2-22.8-60.2-63.6-111.4-139.2-150.6-217.5 6.8-71.1 23.6-140.9 49.4-207.2h.3Z" class="fill" data-original-prefix="fill"/><path id="fill-hatband" fill="#ffffff" d="M711 788c-2.3 16.6-6.5 33-8.8 49.7-1.1 7.9-4.5 19.9.3 26.4 7.8 10.5 28.7 29.4 39 39 27.6 25.8 75.9 66.7 110.3 80.7 102.9 42.1 228.7 42.2 332.8 4.2 26-9.5 44.5-22.1 66.4-38.6 34.6-26 66.1-55.8 96-87l1.1-2.9c-1.1-24.1-7.7-47.6-10.9-71.4.7-.7 16.2 2.2 18 3.5 2 1.5 4.8 13 5.8 16.2 8.6 30.7 9.9 63.1 13.4 94.6 1 9.1 4.8 17.8 2.9 28-18.7 31.9-38.1 63.5-59.1 93.9-12.9 18.7-22.3 36-42.1 47.9-61.5 36.8-164.8 69.7-236.2 75.8-68.9 5.9-181.5-32.5-243.7-63.3-9.5-4.7-30.2-14.5-37.5-21-6-5.3-19.1-26.2-24.5-34-22.6-32.5-43.5-66.3-63.6-100.4-.5-9.5 2.7-18.7 3.7-27.9 2.9-25.8 4.3-52 9.4-77.6 1-5.1 6.8-30.1 9.7-32.3 1.8-1.3 17.3-4.2 18-3.5z" class="fill" data-original-prefix="fill"/><path id="shading-head3" fill="#aaaaaa" d="m1274 575 18 25.5c15 22 13 53.7 16 80 2.1 18.7 4.6 37.4 7 56 .9 6.9.5 21.7 3.5 27.5 1.2 2.3 11.2 3.5 14.5 4.5 12.2 3.8 28.6 7.8 33.3 20.7 2.3 6.4 8.4 38 10.2 39.8 1.6 1.6 18.7 1.4 21.6.5l51.9-31.1c2.1-1.5 2.8-3.5 3.1-5.9 3-25.7-10.4-55.1-13-80.5 2.9.2 6.1-1.1 7.8 1.7 2.7 4.3 7 25.2 8.5 31.5 18.9 82.1 22.4 197.8-22.9 271.7-24.1 39.4-56.5 84.1-96.5 107.5-.7.4-7.4 4.6-5.9 1.1 26.8-31.2 58.7-61.3 62-105 .4-4.9.3-33.7-3.5-35.5-18.6 26.2-34.8 54.2-54.1 79.9-13.8 18.3-19.1 22.7-39.4 33.6-32.9 17.8-75 33.8-110.5 46.5-65.3 23.3-135.9 42.6-205.7 31.7-68.5-10.7-167.5-45.5-228.5-78.5-25.9-14.1-30.4-21.4-47.1-44.9-15.9-22.2-30.5-45.3-45.2-68.3-2.7-.3-1.6 0-2 1.5-4.2 17.2-2.4 38.7 2.3 55.7 9.4 34 37.7 58.4 58.7 85.3-10.8-5.1-21.5-11.7-30.9-19.1-22.8-18-47.8-54-64.3-78.7C573 955.2 571.3 856 586.6 770c1.3-7 11.4-55.5 14.5-57.5 1.6-1.1 5-.2 7-.5-2.9 25.4-16 54.8-13 80.5.6 4.9 2.5 5.4 6.1 7.9 8.1 5.7 40.5 26 48.4 28.6 5.4 1.8 16-1.2 22.4-.2 2.6-8.9 3.8-18.3 6.2-27.3 1.2-4.3 4.1-15.6 6.4-18.6 4.9-6.4 22.7-12 30.5-14.5 3.3-1 13.2-2.2 14.5-4.5 2.9-5.5 2.7-21.6 3.5-28.5 4.8-38.8 9-77.7 13.4-116.6 6-15.9 17-30.7 27.5-44-2.2 17.5-5.1 35-7 52.5-2.7 25.6-3.7 51.4-6 77-3.8 41.1-12 82.5-7 124 2 16.7 22.2 37.8 33.5 50.5 31.6 35.5 71.4 71.6 117.8 85.2 8.7 2.6 18.4 3.7 26.7 6.3 11.5 3.5 22.6 9.9 34.8 13.2 18.2 4.9 37.7 5.1 56 10.1 23.4-4.7 47-6 69.7-13.8 7.8-2.7 16-7.2 23.5-9.5 12.9-4 26.2-5.8 39.5-10.5 40.5-14.5 83.2-55.5 111-88 11.1-12.9 25.2-27.3 27.4-44.6 5-40.8-3.2-81.6-6.9-121.9-2-22.3-2.8-44.7-5-67-2.1-21.2-5.4-42.3-8-63.5zm74 278c-4.4 2-6.8 6.6-10.5 10-32.3 30.7-74.5 61.1-111.2 86.8-10 7-30.7 23.1-40.6 27.4-16.2 6.9-55.6 12.2-74.5 15.5-25 4.3-61.2 11.8-85.7 12.3-23.5.5-64.2-8.1-88.7-12.3-18.6-3.2-58.7-8.6-74.5-15.5-8.3-3.6-25.2-16.6-33.6-22.4-44.6-30.7-89.1-64.4-128.2-101.8-6.5 12.4-9.9 27.6-11.5 41.5-.6 5.5-1.6 13.7-1 19 1 8.8 17 54.1 21.2 63.8 10.8 24.5 58.6 85.5 80.5 100.5 7 4.8 16.2 9.2 24 13 54.7 27.4 112 52.5 172.4 64.7 37.4 7.5 59.9 4.4 96.2-4.8 54.4-13.8 108.4-37.1 158.2-62.8 4.6-2.4 10.7-5.4 14.9-8.1 23.1-14.4 72.7-78.2 83.5-103.5 4.9-11.6 20.1-53 21.2-63.8.7-6.5-1.2-18.9-2.3-25.7-1.9-11.6-5.1-23-9.7-33.8Z" class="outline shading" data-original-prefix="shading" opacity="0.5" style="opacity: 0.5"/><path id="shading-head2" fill="#aaaaaa" d="M556 724c-5.1 32.7-15.3 64.8-19.9 97.6s-5 68.3-7.1 101.8c37.6 78.9 88.1 154.2 148.9 217.1 12.3 12.7 19 17.8 34.3 26.7 57.8 33.2 126.1 61.4 189.9 81.1 68.9 21.3 119.7 31 191.8 14.2 64.3-15 133-41 192.3-69.7 27.5-13.3 60.5-28.6 81.7-50.3 53.2-54.7 102.6-123.7 137.5-191.5 5.4-10.5 13.9-23.9 13.5-35.6-.9-29-3.3-64.1-7.2-92.8-4.5-33.2-15-65.6-19.9-98.6 8.2 2 18.7 5.6 23.4 13.1 5.1 8.1 13.2 35.8 16.6 46.4 16.4 51.5 26.5 105.1 32 158.9-42.8 88.5-102.1 171-172.3 239.8-76.5 34.2-152.2 70.3-230.5 100.5-22.3 8.6-38.4 16.2-62.8 18.2-38.1 3.1-79.8 2.2-118 1-23.8-.8-43.1-.2-65.8-8.2-88.2-31.3-173.4-74.8-259.3-111.7-59.8-60.3-115-131.5-155.7-206.3-3.5-6.4-16-29.6-15.9-35.2.3-15.8 4.6-37.8 7.2-53.8 6.8-40.8 17.1-82.2 30.8-121.2 2.1-6 8.5-26.7 11.6-30.4 4.7-5.8 15.2-9.5 22.4-11.1z" class="outline shading" data-original-prefix="shading" opacity="0.5" style="opacity: 0.5"/><path id="shading-head1" fill="#aaaaaa" d="m832 679 5.5 5c29.5 34.1 58.2 74.6 96.2 99.8 18.3 12.2 44.9 19.8 66.3 24.7 22.5 5.1 28.9 4.5 51.2-.8 20.1-4.8 46-12.4 63.1-23.9 40.2-27 69.6-70.4 101.7-105.8v1.5c-1.2 9.1-12.1 44.3-16.1 52.9-5.7 12-25.1 40.5-34.9 49.1-26.7 23.7-107.4 64.3-142.6 63.5-35-.8-113-40-139.5-63.5-9.9-8.8-30.6-38.8-35.9-51.1-6.6-15.5-9.5-35.3-15.1-51.4z" class="outline shading" data-original-prefix="shading" opacity="0.5" style="opacity: 0.5"/><path id="outline-head3" fill="#000000" d="M1330.1 754.9c12.2.6 37.7 8.4 44.9 18.6 6.8 9.8 7.7 30.9 11.5 42.5.4 1.2 0 2.5 1.9 1.9l52.5-32.6c-1.5-22.7-11.3-45.9-14.7-67.9-1.6-10.4-2.3-17.3 10.3-18.4 16.1-1.4 71.1 11.5 84 21 7.9 5.8 12.2 22 15.5 31.5 17.6 50.2 30.5 104.2 36.8 157.1 1.3 11 4.8 33.4 2.6 43.4-1.8 8.6-15.7 32.4-20.7 41.3-41.3 73.2-93.9 140.5-152.8 200.2-76.1 34.4-151.8 70-229.7 100.3-20.4 7.9-37.7 16.3-59.8 18.2-55.4 4.9-121.7 4.9-177 0-21.1-1.9-35.5-8.8-54.8-16.2-79.3-30.5-156.1-66.8-233.5-101.5-59.4-58.6-111.6-126.4-153.1-198.9-4.9-8.6-20.3-35-22-43-2-9.8 1.6-33.6 2.9-44.7 6.4-52.9 19.7-109.1 37.9-159.2 3.5-9.6 6.6-23 15.1-28.9 13.4-9.3 68.3-22.4 84.3-20.5 11.4 1.3 10.9 7.7 9.5 17.3-2.1 14.1-7.6 30.1-10.6 44.4-.9 4.5-5 21.5-4.1 24.5l53.8 32.7c3.3-11.5 5.6-38.4 13.6-46.9 8-8.4 31.7-15.7 43.3-16.2 2.7-17.4 4.9-35 7-52.5 3.4-28.9 4.1-62.8 9.2-90.8 1.9-10.4 27.4-50.1 36-56 7.7-5.3 48.2-17.7 57.4-17.7s4.4.7 6.5 1.6c10 4 26.1 17.1 36.7 23.3 7.6 4.4 15.5 8.7 23.3 12.7 34.1 17.6 80.4 41.5 118.5 43.5 52 2.7 92.6-18.7 137.6-41.5 20.4-10.4 37.7-22.8 57.1-33.9 5.4-3.1 8.5-6 15.3-5.5 9.9.7 51.1 13 57.7 19.4s30.3 41 32.7 49.3c6.2 49.3 9.6 99 17.4 148.1M825.8 563.3c-11.7 1.3-28.8 10.7-38.5 17.5-7.8 5.5-16.4 11.5-19 21-4.5 16.2-6.8 38.8-9.1 55.9-7.7 55-16 117.6-18.1 172.9-.2 4.3-.7 20.8.5 23.5.3.7 4 4.8 5 6 20.9 26 51.2 59 76.5 80.5 20.2 17.2 35.2 22.1 60.2 29.8 91.6 27.8 193.2 27.4 284.5-1 32.4-10.1 44.6-16.7 69.2-39.8 24.9-23.2 46.6-50.3 69.5-75.5.9-30.8-2.4-61.8-5.5-92.5-3.4-34-7.4-69.1-12.1-102.9-2.4-17.5-4.7-40.1-9.1-56.9-4.1-15.8-42.7-37.2-58.4-38.6-8.8-.8-13.6 2.8-21.1 6.7-30 15.6-58.2 33.3-89 48-14.7 7-50.4 25-64.8 26.2-12.1 1-32.9 1-45.1 0-14.4-1.1-48.3-18.3-62.8-25.2-35.2-16.7-68.6-36.7-102.9-55.1-3.2-1.3-6.6-.9-10-.5ZM592 729c-6.1-.8-10.8.5-16.5 2-6.1 1.5-35.4 11.7-37.9 16.1-16.6 54.6-26.8 112.1-28.6 169.4-.2 7.8-1.1 25 .3 31.8s19.2 35 24 43c28.6 47.7 65.7 101.8 103.3 142.7 30.1 32.7 61.7 47.8 101.2 66.8 62.2 29.9 142.8 61.7 210.3 75.7 32.3 6.7 92.3 5.2 126.6 3.5 28.4-1.4 65.6-14.1 93.2-22.8 65.4-20.6 136.6-49.6 195.9-84.1 31.4-18.2 51.4-42.3 73.7-70.3 32.2-40.3 63.5-86.2 88.8-131.2 2.7-4.9 11.7-19.2 12.6-23.4 1.9-9.5-.4-25.7-.8-35.7-2.4-56-10.2-112-27.7-165.3-1.6-3.1-15.7-8.8-19.7-10.3-4.9-1.9-31.4-10.9-34.5-8 4.3 23.5 9.6 46.9 12.9 70.6 5.6 40.8 10.9 87 9.1 127.9-1.1 26.3-1.1 30.3-13.8 53.2-17.1 30.6-38.4 60.2-61.7 86.3-6.7 7.6-23.6 27.1-31 32-.9.6-2.8 1.8-3.5.5 28.5-34.8 53.8-72.9 69.7-115.3 12.8-34.2 18.5-62.7 15.3-99.8-2.7-19.8-1.6-41.4-5.1-60.9-.3-1.5-.8-2.6-2.5-2.5l-56.1 35c-1.3 2.1 2.9 21.5 3.4 25.7 1.8 14 4.5 32 3.1 45.8-1.5 14.8-27.5 55.1-36.6 69.4-14.4 22.8-36 58.2-53.4 77.5-6.7 7.4-26.3 17-35.9 22.1-51.2 27-104.9 45.4-160.8 60.2-18.2 4.8-42.3 12.3-60.7 13.3-52.2 3-90.5-7.2-139.5-21.5-46.2-13.5-91.2-30.6-133.7-53.3-8.4-4.5-23.7-11.8-30.3-17.7-14-12.2-40.2-55.2-51.4-72.6s-42.9-65.4-42.7-83.4c0-10.1 2-23.6 3.2-33.9.5-4.6 5.5-30 4.4-31.6l-58.5-35c-2.8 26.8-4.6 53.5-5 80.5-.2 15-1.4 28.6 2.5 43.5 14.8 57.5 44.4 109.4 82.5 154.5l-1.5 1.5c-36.2-34.8-69-74.4-93.7-118.3-12.5-22.3-14.9-30.9-15.9-57.1-1.4-38.9 4.8-88 10.2-126.9 3.2-23.3 8.4-46.5 12.9-69.6Zm119 59c-.7-.7-16.2 2.2-18 3.5-3 2.2-8.7 27.2-9.7 32.3-5.1 25.5-6.5 51.7-9.4 77.6-1 9.2-4.2 18.3-3.7 27.9 20 34.2 40.9 68 63.6 100.4 5.4 7.8 18.6 28.7 24.5 34 7.3 6.5 28 16.3 37.5 21 62.2 30.8 174.8 69.2 243.7 63.3 71.3-6.1 174.7-39.1 236.2-75.8 19.8-11.8 29.2-29.2 42.1-47.9 21-30.4 40.5-62 59.1-93.9 1.9-10.3-1.9-18.9-2.9-28-3.5-31.5-4.8-64-13.4-94.6-.9-3.3-3.7-14.7-5.8-16.2s-17.3-4.2-18-3.5c3.3 23.8 9.8 47.4 10.9 71.4l-1.1 2.9c-29.9 31.2-61.3 61.1-96 87-21.9 16.5-40.4 29.1-66.4 38.6-104.1 38-229.9 37.8-332.8-4.2s-82.7-55-110.3-80.7c-10.3-9.6-31.2-28.5-39-39-4.8-6.4-1.4-18.4-.3-26.4 2.3-16.6 6.5-33 8.8-49.7z" class="outline" data-original-prefix="outline"/><path id="outline-head2" fill="#000000" d="M1253 634c.3 1.7-.2 3.1-.8 4.7-2.3 6.8-8.3 17.4-11.7 24.3-15.7 31.7-32.7 66.4-50 97-11.3 20-25.7 26.5-44.6 38.4-24.6 15.5-78.7 48.8-106.4 50.6-27.9 1.8-43.2-.5-68.2-11.9-26.8-12.1-55.6-29.6-80.2-45.8-12.8-8.4-23.4-13.3-31.3-26.7-19.8-33.8-42.4-78.6-58.7-114.3-1.4-3.1-6-12.2-6.2-14.8 0-1.6-.2-1.7 1.5-1.5l29.9 27.1c21 32.7 39 75.5 64.2 104.8 13.3 15.5 55.8 41 74.7 51.3 28.5 15.4 41.8 19.3 75.2 16.9 22.7-1.7 74.5-35.7 94.2-49.8 24.4-17.5 33.1-32.3 48.7-57.3 12.4-19.9 24.2-46.8 37.2-64.8 4.3-5.9 19.2-18.3 25.4-23.6.9-.8 6.3-5.2 7-4.5v-.1Z" class="outline" data-original-prefix="outline"/><path id="outline-head1" fill="#000000" d="M1284 1157c-.6 1.5-3.5 2.7-5 3.5-46.9 25.8-110.6 54-161.5 70.5-41.8 13.6-125.9 12-169.9 4.9-14-2.3-31.3-10-44.9-15.1-47.2-17.9-92.8-39.5-137.8-62.2 1.5-1.3 4.2-.2 5.8.2 17.5 4.4 38.1 14.2 55.7 20.3 36.3 12.6 73 24.4 109.5 36.5 46.4 5.1 93 6 139.5 3.4 48.7-2.8 96.9-23 143-39 21.8-7.6 43.2-16.8 65.5-23z" class="outline" data-original-prefix="outline"/>
    </g>
</svg>