<?xml version="1.0" encoding="UTF-8"?>
<?xml-stylesheet type="text/css" href="../styles/semantic.css" ?>
<svg xmlns="http://www.w3.org/2000/svg" viewBox="0 0 2048 2048">
  <g class="trait-group" data-category="background" id="background-dots">
      <defs>
    <pattern id="dots-pattern" x="0" y="0" width="60" height="60" patternUnits="userSpaceOnUse">
      <circle cx="30" cy="30" r="15" fill="#444444"/>
      <circle cx="0" cy="0" r="15" fill="#444444"/>
      <circle cx="60" cy="0" r="15" fill="#444444"/>
      <circle cx="0" cy="60" r="15" fill="#444444"/>
      <circle cx="60" cy="60" r="15" fill="#444444"/>
    </pattern>
  </defs>
  <rect id="color-dots-bg" class="color" width="2048" height="2048" fill="#666666"/>
  <rect id="color-dots-pattern" class="color" width="2048" height="2048" fill="url(#dots-pattern)"/>
    </g><g class="trait-group" data-category="jaw" id="jaw-robo">
      <path id="fill-jaw-robo1" fill="#ffffff" d="M1369.9 1062.1c.4.5 1 11.1 1.4 13.1 11.6 61.7 25.9 123 37.2 184.8 16.2 20.3 35.3 38.1 51.5 58.4l-70.1 149.9-2.3 1.6-31.6-1.9-7.8 59.7-101.2 128.8c-1.6 1.1-2.6-.6-3.6-1.6-11.2-11.1-20.8-28.6-32-40-1.3-1.3-2.6-3.5-4.8-2.9-3.4.9-32.4 51.8-38.3 57.8-25.8 9.8-49.6 24-74.7 35.3-8.9 4-63.2 23-65.1 25.9-.6 1-.4 2.8-.6 2.9-.2.2-3.1-.9-4.4-.9s-3.2 1.3-3.6.9c-.3-.3.7-2.4-2.3-4.2-13.4-8.1-38.6-14-54.4-20.6-28.2-11.8-54.4-28.3-83.3-38.7-6.3-5.8-35.3-57.4-38.7-58.4-2.2-.7-4.5 2.4-5.9 3.9-11.6 12.1-21.3 28.8-33.1 41l-1.9-.9-100.9-128.1c-3.2-19.9-5.4-39.9-7.5-60l-31.6 1.9-2.5-1.4-69.8-149.3c-.3-1.9 4.6-7.3 6.3-9.3 14.5-16.8 30.7-32.1 44.6-49.4 10.6-62 27.2-123.3 37.7-185.3.5-3.2-.7-11.9 2-13.3 104.8-21.7 209.7-42.7 314.5-64.3 7.3-1.5 24.9-7.3 30.5-7.5 4.2 0 24.8 6.2 31.1 7.5 105 21.6 210.1 42.9 315.1 64.4v.2z" class="fill" data-original-prefix="fill"/><path id="shading-jaw-main" fill="#aaaaaa" d="m1369.9 1062.1 28.1 145.4c-4.8-.6-19.2-17.4-22.3-16.4-3.4 1-21.1 37.8-20.7 42.4 12.3 15.8 24.8 31.6 35.4 48.6 3.7 5.9 15.5 24.5 15.6 30.5 0 4.7-10.7 25-13.5 30.5-4.5 8.7-9.8 16.9-14.5 25.5 17.3-8 33.9-18.4 49.3-29.7 4.1-3 10.3-7 13.7-10.3 2.3-2.2 12.4-16.5 13.5-16.5l5.5 6.4-65.1 139.9-6.5 11.5-32.3-1.9-7.8 59.7-101.2 128.8c-1.6 1.1-2.6-.6-3.6-1.6-11.1-11.1-20.8-29.2-31.9-40-.8-.8-1.6-2.1-2.9-1.9-7.3 1.3-32.3 48.3-39.7 55.4-30.9 14.9-60.7 32.4-91.6 47.4-12.8 6.2-33.2 17.2-46.8 18.2-23.7 1.7-37.4-7.3-57.9-17.2-31.4-15.1-61.6-32.8-93-48-8.2-6.6-32.8-54.4-40.3-55.8-2.8-.5-31.3 38.2-35.8 43-1 1.2-2 1.2-3.1 0l-100.9-128.1-7.5-60-31.6 1.9-2.5-1.4-69.8-149.3c-.3-3.1 3.7-7.8 6.8-5.8 1.9 1.2 8.8 11.9 11.5 14.6 2.9 2.9 7.8 6.2 11.2 8.8 4.5 3.4 49.2 33.3 51.3 31.2-7.3-15.4-17.3-29.8-23.8-45.6-1.2-2.9-3.2-6.7-3.2-9.9 0-5.3 10.4-22 13.7-27.4 11-18.2 24.3-34.9 37.4-51.6-4.2-15.2-12-29-20.1-42.3-.9-.5-2 0-2.9.4-6.3 3.4-12.9 13.3-20 16.5l28.1-145.9 45.8-9.7c48.2-55 116.4-93.5 184.8-118.2 72.2-26 130.6-31.5 205-8.5 77.7 24 155.9 65.5 210.3 126.7zM854 1330c-21-6.7-43.3-4.3-64.4-11.1-14-4.5-30.8-14.7-42.9-23.1-18.1-12.6-35.7-28.4-49.2-45.8-10.7 14.6-22.1 30.4-30.7 46.3-4.3 8-11.3 21.1-7.7 30.1l27.1 48.4c6.1 1.6 17.5-4.7 22.8-2.3 1.5.7 2.4 3.5 4.5 3.5s4.4-5.1 7-5.1 3.4 4.4 7 4.1 5.2-6.6 7.2-7c.5 0 8.2 2.7 8.6 2.9 4.7 2.4.3 18-3.2 21.4.3 1.5 14.2 9.3 16.4 9.6 2.9.5.2-2.4 1-4.9s6.5-6.3 8.8-5.9c5.4.9 6.3 10.2 14.7.3 1.9-2.2 0-4.1 4.5-4.6 8.5-1 5 8.4 7 14.1 12.4-17.2 20.2-37.4 32.1-54.9l29.4-16.1Zm507.8 44.8c8.8-17.7 20.1-34.4 28.2-52.3-.4-8.9-2.9-14.5-6.9-22.2-8.9-17.4-21.4-34.4-32.7-50.3-21.1 25.5-52 52.2-82.8 65.2-24.8 10.4-48.4 7.8-73.7 14.8l29.7 16.3c11.6 17.6 19.4 37.7 31.8 54.7.9-1.8 1-13.5 1.5-14s7.3-.2 7.8.2c1 .6 1.6 7.8 6.9 8.7 6.3 1.1 7.7-7.8 15.4-2.8 2.7 1.8 3.1 6 2.8 8.9 1.2 1.4 17.7-8.3 18-9.6.2-1-3.9-5.8-4.6-8.4-2.2-9.5-1.5-13.7 8.4-14.8 5.3-.6 2.8 2.2 5.5 4.5 4.6 4 7.8-2.7 10-2.6 2.7.2 5 4.9 7.2 4.9s3-2.8 4.5-3.5c5.2-2.4 16.6 3.8 22.8 2.3zM1078 1327c-5.5-11.1-10.5-24.8-17.6-34.9-4.2-6.1-10.2-10.5-14.9-16.1-3.4-4-15.2-20.5-18.4-21.6-1.9-.6-4.4-.8-6.3-.2-2.4.7-15.7 18.7-18.7 22.3s-7.4 6.8-10.5 10.5c-9.4 11.2-15.1 26.9-21.5 40h108Zm-353.8 172.8c24.8 5.4 50.2 7.7 75 13.6 17.3 4.1 20.3 3.6 29.6 19.4 5.3 8.9 9.2 18.7 14.2 27.8l17 14-29.2-80.8c-2.4-5.8-8-8-13.1-10.9-22.2-12.9-51.7-27.2-75.7-36.3-2.6-1-8.1-3.8-10.4-3.5-1 0-15.6 9.5-16.3 10.3-6.3 7.6 6.8 37.2 8.9 46.5Zm599.6 0c2.5-10.6 8.2-22.1 9.8-32.7.8-5.7 1.7-10.9-3-15.1-1.1-1-13.2-8.9-14-9-2.5-.3-19.4 7.2-23.2 8.8-20.7 8.8-45.7 20.5-65 32-5.6 3.4-8.8 4.9-11.8 11.2l-28.5 80 16.4-14.1c7.1-10.9 14.9-35.4 25.9-42.1 6.1-3.8 19.9-5.9 27.5-7.5 21.8-4.6 44.2-6.7 66-11.5zM908.5 1649v1c.7-.3.7-.7 0-1m229.5 1c-31 8.8-60.6 26.8-91 36.5-19.3 6.2-28.3 5.9-47.5-.4-28.3-9.3-56.5-25.5-85-35.1-1.2-.4-3.6-1.8-4.5-.5.8 2.1 2.7 4.2 4 6 4.9 6.3 18 23.3 23.5 27.5 7.2 5.5 27.9 14.6 37.1 18.9 5 2.3 20.9 10.5 24.9 11.1 9 1.4 36.3 1 46 0 7-.6 57.7-24.6 64.4-29.6 5.3-3.9 18.2-20.8 23-27 .8-1 5.8-6.8 5-7.5Z" class="outline shading" data-original-prefix="shading" opacity="0.5" style="opacity: 0.5"/><path id="outline-jaw" fill="#000000" d="M670 1105c2 .2 9.2 3.6 9.8 5.7 1 3.3-1.3 18.1-2 22.7-6 41.8-19.7 84.1-28.6 125.4-12.3 18.3-29.3 33.5-43.8 50.2-1.2 1.3-6.5 7.5-6.5 8.5l56 135.5c1.5.4 1.7-.4 2.5-1 7.1-4.9 23.9-23.3 30.5-30.5 1.5-1.6 9.9-11.2 10-12-17.6-32.9-42.5-63.1-49.8-100.8 17.2-28.9 35.3-57.4 56.9-83.2 6.2-7.4 21.8-27.5 32-26.1 4.7.6 8.6 4.8 6.4 9.5-23 21-44.9 44.7-62.7 70.3-3.2 4.6-15.2 22.2-15.6 26.5-.5 5.1 11.8 29.8 15 35.6 7 12.8 29.4 46.8 40.5 54.5 2.8 1.9 7 3.2 10 5 77.7 46.7 153.2 90.1 243.1 109.9 13.1 2.9 37.4 9.1 49.8 9.2 11.3 0 33.7-5.7 45.6-8.2 92.6-19.7 168.3-62.9 248.1-110.9 3.1-1.8 7.2-3.1 10-5 11.1-7.7 33.4-41.8 40.5-54.5 3.2-5.8 15.5-30.5 15-35.6-.4-3.9-10.7-19.3-13.6-23.5-18.3-27-40.8-51.3-64.7-73.3-2.5-9.2 6.9-10.8 13.8-7.8 10.7 4.6 40.4 44.2 48.5 55.5 11.9 16.7 22.3 34.6 33 52.1-7.3 37.7-32.2 67.9-49.8 100.8 0 .8 8.5 10.4 10 12 6.6 7.2 23.4 25.6 30.5 30.5.8.6 1 1.4 2.5 1l55.8-135.3c-15.4-20.6-35.6-37.7-50.1-58.9-8.6-41-22.6-83.1-28.6-124.4-.7-4.8-3.1-20-1.9-23.7.6-2.1 8-5.5 9.8-5.7 4.6-.4 10.8 5.1 11.9 9.6 8.1 44.1 13.6 92.9 27.6 135.4 9.1 27.6 33.8 39.8 52 60 4.9 5.4 6.6 7.2 4.8 14.8-2.1 8.6-9.2 23.2-12.8 32.2-16.7 41-35.5 81.7-54.5 121.5-2.5 2.1-18.6 9-21.4 8.6-4.6-.7-13.3-13.3-18.5-15-3.1 22.3-7.1 44.7-11.8 66.7-29.2 38.3-55.4 79-82.3 118.7-10.2 4.1-22.2 12.3-32.2 15.8-1.5.5-3 1.3-4.6.7l-24.6-43.9c-1.1.5-16.2 15.9-17.3 17.7-6.5 10.1-3.8 21-14.2 29.8-22.9 19.1-72.2 40.2-100.7 51.3-18.6 7.3-34.3 14.2-54.7 14.3-24 .2-49.5-11.4-71.5-20.6-23.2-9.8-67.3-29.4-85.5-45.5-10.3-9.1-7.3-19.2-13.7-29.3-1.1-1.7-16.2-17.1-17.3-17.7L812 1674c-1.6.6-3.1 0-4.6-.7-10.1-3.5-22-11.7-32.2-15.8-26.9-39.8-53.1-80.4-82.3-118.7-4.7-22-8.6-44.4-11.8-66.7-5.2 1.7-14 14.4-18.5 15-2.8.4-18.9-6.5-21.4-8.6-19-39.8-37.8-80.5-54.5-121.5-3.6-8.9-10.8-23.6-12.8-32.2-1.8-7.6 0-9.4 4.8-14.8 13.4-14.9 37.6-30.5 47.2-47.8 7.3-13.1 12.4-41.8 15.8-57.2 4.5-20.4 8.5-41.2 12.2-61.8 1.5-8.5 1.8-19.4 3.7-27.3 1.2-5 7.2-11.3 12.6-10.9zm664.9 411.9 14.2-77.4c-.2-3.8-5.4-5.5-8.1-8-2.9-2.7-5.4-5.9-8.6-8.3-82.7 31.3-155.3 82.7-242.3 103.3-57 13.5-94.2 11-150.2-4.8-69.9-19.7-131-59.2-197.1-87.9-6-2.6-20.1-9.4-25.7-10.4-2.8-.5-7.7 6-10 8.1-2.1 2-7.6 4.5-8.1 7l14.2 78.3c17.8 1.1 35.6 3.8 53.4 5.1 9.3.7 42.4-.4 47.8 3.9 8.5 20 14.6 41 23.2 61 2.8 6.5 6.2 15.2 9.9 21.1 5.4 8.7 15 14.9 20 23.1 5.6 9.2 8.1 23.6 15.5 31.5 5.1 5.5 21.6 15 28.8 19.2 31 18.4 83.7 44.6 119.8 42.2 30.1-1.9 87.2-31 113.4-47.6 5.2-3.3 16.2-9.8 20.1-13.9 7.2-7.5 10.4-24.2 16.1-32.9 2.7-4.1 8-7.8 11.3-11.7 8.3-9.7 11.9-17.5 16.9-29.1 9-20.6 15.3-42.4 24.2-63 14.6-5 32.2-2.8 47.8-4 17.8-1.3 35.6-4.1 53.4-5.1v.3ZM801 1649c5.8-16.3 16.4-30.6 24.8-45.6-4.3-11.7-7.5-23.9-12-35.6-2.2-5.8-7.4-19.7-10.9-24.1-10.8-13.6-69.6-12.5-86.9-16.6-.5 1.7.7 2 1.5 3 13.4 17.3 27.7 33.6 40.3 51.7 15.2 21.9 28.4 45.1 43.2 67.3Zm531-122c-17.3 4.1-76.1 3-86.9 16.6-3.5 4.4-8.6 18.3-10.9 24.1-4.5 11.7-7.7 23.9-12 35.6 8.4 15.1 18.9 29.3 24.8 45.6 14.7-22.2 27.9-45.4 43.2-67.3 12.6-18.1 26.9-34.3 40.3-51.7.8-1 1.9-1.3 1.5-3Z" class="outline" data-original-prefix="outline"/><path id="outline-jaw1" fill="#000000" d="M785.7 1376.3c8.1 7.2 8.5 18.5 4.1 27.9-5.2 10.9-19.3 10.7-26.7 2.3-15.1-17.3 3.6-47 22.7-30.2Zm-12 4.9c-10.7 1.7-7.7 23.9 4.7 21.8 10.2-1.7 4.4-23.3-4.7-21.8" class="outline" data-name="outline-jaw" data-original-prefix="outline"/><path id="outline-jaw2" fill="#000000" d="M1262.3 1376.3c22.7-20.1 40.5 23.7 16.9 34.4-21.7 9.8-31.5-21.5-16.9-34.4m10.4 4.9c-10.5 1.7-12.6 25.9 1.3 21.4 10.1-3.2 8.1-22.9-1.3-21.4" class="outline" data-name="outline-jaw" data-original-prefix="outline"/><path id="outline-jaw3" fill="#000000" d="M723.7 1356.2c15.6-2.8 28.9 19.5 15.8 29.8-10 7.8-24 0-26.8-11.2-1.8-7.1 3.5-17.2 11-18.6m9.1 22.6c6.5-6.5-8.3-22.1-11.4-7.8-1.5 7.3 7.1 12.1 11.4 7.8" class="outline" data-name="outline-jaw" data-original-prefix="outline"/><path id="outline-jaw4" fill="#000000" d="M1317.7 1356.2c14.2-2.9 23 13.6 14.3 25.3-12 16-34.6 4.8-27.5-13.5 1.7-4.3 8.7-10.8 13.2-11.8m-2.5 22.6c4.3 4.3 12.9-.5 11.4-7.8-3-14.3-17.9 1.3-11.4 7.8" class="outline" data-name="outline-jaw" data-original-prefix="outline"/>
    </g><g class="trait-group" data-category="mouth" id="mouth-cracked scrappy">
      <path id="fill-muzzle-1" fill="#ffffff" d="M1038 1292s-.4 1.7.7 2c10.3 2.8 18 4.3 25.8 13 1.9 2.2 4.9 8.8 6.5 9.5 2.6 1.2 6.6 0 9.5.5 11.4 1.5 21.2 3.7 31.2 9.8 2.1 1.3 9.2 7.8 10.2 7.1.3-.3 0-1.7 0-1.9 2.4-1.8 32.7.6 38 1 5.2 4.2 13.2 5.5 19.2 8.3 13.7 6.4 22.5 16.1 29.9 29.1 8.4 14.6 7.7 17.8 3.1 33.4-2.5 8.5-4.8 21.8-16.3 20.2 1.5-15.5-14.8-32.4-26.5-41-3.2-2.4-11.3-7.2-6 0 10.7 14.6 20.5 15 21.5 37.5.5 10.4-8.3 32.8-15.4 40.5-.6.7-7.1 6.3-7.6 6.5-3 1.6-6.8-6.1-7.8-8.2-3.7-7.7-4.8-15.6-9.7-23.3-1.1-1.7-10.8-13.7-12.4-12.1 5.6 13 9 46.2-2.5 56-4.4 3.7-9.4 1.9-13.3 3.7-2.8 1.3-3.1 5.8-4.8 6.2-.9.2-7.2-3.2-9.4-3.5-9.3-1.3-13.1 17-18.7 17.4-2.5.2-10.7-11.9-18.4-9.4-6.8 2.2-15.3 20.6-23.6 23.5-7.3-4.5-4.2-14-6.6-21.1-1.2-3.5-4.2-6.7-5.8-10.2-5.4-12.7-2.8-19.9-.2-32.2.7-3.3-.2-6.3 1.2-9.8.4-1 6-11.5 6.6-12.4 3.7-5.4 19.2-12.4 22.7-3.8.9 2.2 0 8.7 2.2 7.7 5.1-4.9 10.2-9.9 15.5-14.5 10.2-8.9 12.8-8.2 19.5-21.5 1.9-3.8 8.1-17.3 8.2-20.7.2-6.3-17.9-22.6-21-29-3.6-2.9-22.1-2.8-27.2-2.3-14.1 1.5-18 12.2-27.5 19.5-1 .8-1.3 1.9-3 1.5l.8-12.7c7.6-8.2 14.9-16.6 21.1-26 .7-3.3-8.6-12.4-11.3-13.2-3.6-1 .5 5.5.5 6.6.4 5.2-5.9 4.1-9.3 5.6-1.2.5-3 2.7-3.2 2.7s-2-2.2-3.2-2.7c-8-3.5-11.7.6-7.3-12.2-1.6-1.7-12.5 9.1-12.9 11.7-.2 1.6 3.6 7.8 4.8 9.5 1.5 2 5 5.9 7 8.3 3.2 3.9 9.7 7.7 9.9 13.1 0 1.6-.8 3.1-.8 4.8s2.6 8.1-2.5 3.6c-6.2-5.3-10.1-13.6-18.5-17.5-6.8-3.1-28.3-4.1-34.7-.8-.8.4-9.9 11.1-11.2 12.8-2.4 3-10.9 13.7-10.8 16.8.2 5.1 11.2 27.9 14.7 32.2 2.8 3.4 10.2 7.7 14 11 5 4.3 9.7 9.1 14.5 13.5 2.2.9 1.5-5.2 2-7 2.4-9.9 19.2-2.4 23 3.1.7.9 6.6 13.1 6.9 14.1 2.9 11 5.6 26.6 1.9 37.5-1.7 4.9-6.8 10.4-7.8 15.2-1.4 6.6 1 13.6-5 19-5.3 1.2-18.8-21.7-24.4-23.5-8.2-2.6-15.9 9.6-18.4 9.4-5.3-.4-8.7-14-13.9-16.1-6.9-2.8-11.5 2.7-14.1 2.1-1.8-.4-2-4.8-4.8-6.1-4.5-2-9.6.3-14.3-4.7-10.9-11.5-6.5-42.2-1.5-56.1-9.1 6.7-14.1 14.8-18.5 25-1.6 3.6-2 7.5-3.7 11.3-1 2.1-4.9 9.8-7.8 8.2-.4-.2-6.9-5.8-7.5-6.5-4-4.2-13.8-24.3-15-30-2.8-12.9 1.4-26.5 9.5-36.5 4.1-5.1 11.3-9 13-15.5-2.4-2.4-22.3 17.4-24.4 20.1-5.4 6.8-11 15.9-9.6 24.9-4.7.2-8.1-.7-10.8-4.7-1.8-2.7-8.8-24.3-9.2-27.8-1.1-10.9 10.9-28.8 18-37 10.5-12.2 24.5-14.2 38-21.5 12.5-.8 24.5-2.3 37-1 0 0 .7 2.1.5 3 9.5-8.2 20.6-14.8 33.1-16.9 4.7-.8 14.8-.4 18.1-1.8 1.6-.7 5.2-7.7 7.2-9.9 8-8.4 15.2-9.7 25.4-12.5 1.1-.3.6-1.9.7-2 1.1-.7 25.9-.7 27 0Z" class="fill" data-original-prefix="fill"/><path id="fill-teeth16" fill="#ffffff" d="M995.3 1525.7c11 9.5 17.2-6.6 23.2 6.3 6.5 14.1 3.7 38.4-1 52.9-.7 2.1-7.1 16.9-8 17.1-1.2.3-3-.4-4.2-.9-12-5.1-31.7-18.1-39.1-28.9-10.6-15.5-6.4-42.9 6.8-55.8 1.3-1.3 9.1-5.6 10.4-5.3 1.5.3 9.4 12.3 12 14.5h-.1Z" class="fill" data-original-prefix="fill"/><path id="fill-teeth15" fill="#ffffff" d="M1039.1 1601.9c-.8-.5-7.5-16.1-8.1-18.4-4.1-13.8-6.5-36.9-1.3-50.3 4.6-12 8.1-4.3 15.8-4.2 9.5.2 17.3-18.2 20.8-17.9 1.2 0 8.5 4.2 9.7 5.3 6.3 6.2 12.2 22.3 13 31 2.4 28-20.3 39.6-41.3 50.7-2 1.1-5.7 5.5-8.6 3.7Z" class="fill" data-original-prefix="fill"/><path id="fill-teeth14" fill="#ffffff" d="M904 1461c0 2.2-1.1 3.8-.8 6.2.2 1.8 7.1 22 8 23.1 3.9 5.1 11.2 3.2 16.7 3.8 4.9 13.5-4.2 23.8-8.6 35.6-2 5.3-8.7 33.1-12.8 34.2-1.8.5-6.8-9.1-8.3-10.7-10.3-23.9-15.3-58.4-2.6-82.2.6-1.2 7.1-11.6 8.4-10.1Z" class="fill" data-original-prefix="fill"/><path id="fill-teeth13" fill="#ffffff" d="M1144 1564c-2.1 1.4-6.1-7.1-6.8-8.7-3.2-7.9-4.4-17.4-7.5-25.5-4.3-11.6-13.6-22-8.6-35.6 4.8-.6 12.3 1.2 15.9-2.9 1.3-1.5 8.1-20.6 8.6-23.2.3-1.8-1.4-7 .9-6 6 2.7 13.7 26 14.4 32.6 1.4 13.9-2.9 45-9.3 57.4-.8 1.5-7 11.6-7.6 11.9" class="fill" data-original-prefix="fill"/><path id="fill-teeth12" fill="#ffffff" d="M1093.1 1644.9c-2.9-1.8-2.4-28.5-2.1-33.4.7-10.5 5.2-31.2 8.9-41.1 1.1-2.8 2.4-1.4 4.2 0 12.2 9.6 21.1 44.8 12.8 57.9-1.9 3-15.6 14.9-18.9 16.1-1.3.5-3.8 1.1-4.8.4Z" class="fill" data-original-prefix="fill"/><path id="fill-teeth11" fill="#ffffff" d="M949 1569c5.5 22 11.1 44.4 9 67.5-.5 5.2-.9 10.3-7 8-3.4-1.3-17.5-13.4-19.5-16.5-5.8-9.2-1.4-31.3 2.7-41.2 1.2-2.9 11.3-21 14.8-17.7Z" class="fill" data-original-prefix="fill"/><path id="fill-teeth10" fill="#ffffff" d="M881.7 1478.3c3.1 2.8-2.7 21-2.8 26.2 0 5.9 2.6 12.4 3.1 18 .2 2.1.7 24.5-.5 24.5-1.5.2-2.1-1.1-2.9-2.1-15.6-18.9-34.8-51.8-17.4-75.3 6.5-8.8 10.5 2.1 14.9 5.8 1.8 1.5 4.9 2.1 5.7 2.8Z" class="fill" data-original-prefix="fill"/><path id="fill-teeth9" fill="#ffffff" d="M1185.7 1467.3c1.9 1.6 7.8 13.7 8.2 16.2 3.2 20.7-9.8 47.3-23.9 61.9-.9 1-1.3 1.9-3 1.5.5-8-.7-16.6 0-24.5.4-5.4 3.1-12.3 3.1-18s-6.1-23.4-2.8-26.2c.6-.6 2.5-.6 3.8-1.7 3.4-3 10-13.1 14.7-9.3Z" class="fill" data-original-prefix="fill"/><path id="fill-teeth8" fill="#ffffff" d="M1018 1613v16.5c0 .9-10.8 13.2-11.9 14.1-6.3 4.8-8-2.6-10.6-5.5-5.5-6-17.9-.4-24.4-5.6-1.2-.9-4.1-8.8-4.1-9.9v-22.5c12.9 1.7 28.3 17.5 41.4 15.9 3.5-.4 6.1-3 9.6-2.9Z" class="fill" data-original-prefix="fill"/><path id="fill-teeth7" fill="#ffffff" d="M1031 1613c6.3 1.3 9.1 4 16.1 2.6 10.6-2.2 24.3-14.8 33.4-15.6 2-.2 1.4 0 1.2 1.3-.8 6.5 2.4 27.5-4.4 31.6-7 4.2-18.8-.3-23.4 4.6-2.1 2.2-3.6 8-8.4 7.6-1 0-14.6-13.5-14.6-14.6V1613z" class="fill" data-original-prefix="fill"/><path id="fill-teeth6" fill="#ffffff" d="M1102.5 1494c3.3-.8 4.5 6.9 5.3 8.7 5.6 12.1 13 24.8 13.3 38.8.2 9-16 29.8-21.3 16.2-4-10.4-4.1-44.8-1.1-55.5.4-1.6 2.4-7.9 3.8-8.2" class="fill" data-original-prefix="fill"/><path id="fill-teeth5" fill="#ffffff" d="M937.3 1559.7c-1.9-1.6-7.8-10.5-8.5-13-3.6-12.1 6-31.3 11.4-42 1.6-3.1 3.3-14.7 8-7.4 5.5 8.5 4.3 41.5 2.7 52.1-1.2 7.7-3.6 18.7-13.6 10.3" class="fill" data-original-prefix="fill"/><path id="fill-teeth4" fill="#ffffff" d="M917 1563c-1.8 13.4 2.9 27.5 2 40.5-.6 9-4.4 18.4-5.5 27.5-6.2-6-10.5-16.1-11.4-24.6-.5-5.2.7-24.7 2.4-29.3.6-1.6 10.5-16.2 12.4-14.1Z" class="fill" data-original-prefix="fill"/><path id="fill-teeth3" fill="#ffffff" d="M1135 1631c-.4-8.9-4.4-17.8-5.1-26.5-1-13.8 3.7-27.6 2-41.5 2.2-2.4 11.9 13 12.5 15 2 6.6 2.6 27.4 1.2 34.3-1.3 6.3-5.5 14.9-10.8 18.7z" class="fill" data-original-prefix="fill"/><path id="fill-teeth2" fill="#ffffff" d="M1154.1 1604.9c-3.4-2-5.1-22.3-3.9-26.2.8-2.6 8.9-5.2 10.2-8.8l5.1-10.9c3.8 3.4 5.1 7.2 4.3 12.2-.7 4.2-5.4 22.7-6.9 26.2-.9 2.2-6.1 9-8.8 7.5" class="fill" data-original-prefix="fill"/><path id="fill-teeth1" fill="#ffffff" d="M885 1559c-.3 3.7 1.7 9.4 4 12.2s9.5 5.2 10 8.3c-2 8.4 1.6 19.2-5.7 25.4-3.6-1.1-6-4-7.4-7.4s-6.5-23.6-6.9-27.1c-.5-4.2 1.2-10.6 5.9-11.4z" class="fill" data-original-prefix="fill"/><path id="shading-mouth2" fill="#aaaaaa" d="M918 1443.5c.8 5.3 5.6 13.8 10.1 16.9 11.5 8.3 16.2-.3 22.4-9.4 2.5 5.4 3.4 11.5 6 17 1.4 2.8 5.7 12 7.5 5.5l4-11.5c1.6 7.5 6.3 15.4 11.5 21 4.3 4.7 18.8 15.4 24.6 9.6 2-2.1 8.3-17.9 10.8-22.2 1.2-2.2 7.8-13.8 9.7-13.3 1 .2 8.5 13.2 9.7 15.3 2.4 4.5 7.3 17.7 9.8 20.2 3.8 3.8 10.5.4 14.4-1.8 10.5-5.9 18.5-17.2 21.7-28.8l4.2 12.3c.3 1.2 1.9 2.4 2.8 1.7.6-.4 5.8-11.3 6.5-13 .8-2 2.8-12 4-12 6.8 10.7 12.9 18.4 24.5 7.5 8.6-8 9.3-23.8 7-34.5 3.5-3.1 21.1 16.1 26.6 16.9 9.1 1.4 17.6-11.8 19-19.9 3.5-20.5-12.9-39.2-30.9-46.2l-12.7-4.8c15.4 0 28.2 2.9 41.1 11.4 4.8 3.1 12.2 10.9 17.6 11.4 6.2.6 10.1-4.1 10-10-.4-19.3-25.8-38.1-39.7-48.8 15.4 2.4 34.6 11.8 45 23.5 7.8 8.8 19.1 25.1 19.1 37s-6.4 28.5-9.2 32.8c-3.3 5.3-11.7 5.4-13.4 10.6-.9 8.1-2.1 16.4-2.5 24.5-1.5 29 1.4 45.2-10.8 73.2-3.6 8.2-12.7 20.4-14.9 27.1-4.2 12.8-.7 26.4-9.1 38.9-3.2 4.8-8.4 6.7-11.2 10.8-1.7 2.5-2.4 6.1-4.2 8.8-4.5 6.7-14.6 23-21.6 8.9-1.6-3.3-1.3-12.9-6.7-6.2-1.4 1.7-1.9 4.4-3.5 6.5-3.7 4.7-17.7 19.6-23.5 19.5-2.2 0-4.5-4.1-6.6-5.4-7.9-5-21.1-6.3-29.2-1.4-7.3 4.4-9.5 13.6-18.1 6.8s-6.4-10.8-20.1-9c-5.6.7-11.4 12.6-16.9 12.1-2.8-.2-11.4-11.1-18.5-12.6-6.3-1.3-17.5.7-23 4.2-2.6 1.7-4.1 5.6-7.5 5.4-5.7-.3-19.8-15.8-23.6-20.5-1.2-1.5-4.4-10.6-7.1-6.9-2.5 3.4-.6 9.9-7.2 12.7-7 3-14.9-11.2-18.1-16.4-1.2-1.8-1.2-4.3-2.6-6.4-2-3-6.8-5.4-9.5-8.5-10.4-11.9-6.7-27.7-10.7-41.3-.8-2.6-5.6-8.5-7.3-11.7-18.4-35.7-16.4-45.6-18.4-84.6-.4-7.7-.6-20.7-2.2-27.8-1.5-6.2-11.1-6.1-14.2-11.8-3.4-6.1-9.3-29.6-8.6-36.4 1.2-10.3 16.2-31.2 24-38 10.5-9.2 26.2-16.5 40-18.5l-21.5 17c-7.2 6.4-26.8 32-14.8 39.9 9 5.9 16.7-4.5 23.7-9.1 12.7-8.4 25.3-11.8 40.7-11.8l-17.3 7.2c-18 9.4-33.1 32.7-22.1 52.8 1.7 3.1 8.6 10.4 12 11.1 9.1 1.7 20.7-15.4 29.5-18 .6 6.4-.9 14.3 0 20.5zm-37.1 40.6c-12.3-.5-17.1-20.2-22.8 1.5-3.4 13 1.2 26.4 9.4 36.5 1.5 1.8 12.7 13.1 13.9 12.9.8 0 2.5-2.3 2.8-3.2 2.9-7.1-3.2-12.2-4.2-19.2-1.5-9.8 0-18.7.9-28.4Zm301.8-8.9c-3.2.8-6.3 6-8.8 7.3-2.1 1.1-7.2 1-7.8 3.2-.5 1.7 3 10.8 2.9 14.8 0 3-1.5 13.9-2.2 16.8-.9 3.6-3.9 5.7-3.9 10.2s1.4 7.1 3.7 7.4c1.9.3 15-14.4 16.8-17 5.7-8.5 9-18.8 7.3-29.2-.5-3-4.4-14.5-8-13.6Zm-284.8 10c-4-2.3-6.5 9.9-6.8 12.5-1.2 10.5 3 38 8.7 47.1 1.9 3 5.4 6.9 9.2 7.3 3.7-15.6 12.6-29.2 21-42.5-2.3-.4-1.7-2.9-2.7-3.5-1.5-.9-7-1.9-9.7-3.1-4.7-2.2-12-7.7-15.6-11.4-1.2-1.2-3.8-6.2-4.2-6.3ZM1139 1552c8.3-2 11.9-12.2 13.9-19.6 3.1-12.1 6.1-33.4 1.1-44.8-3-6.9-5.8 1.7-8.3 4.1-3.9 3.8-11 9.3-16 11.6-2.5 1.1-7.8 1.8-9.1 2.7-.7.5-.5 1.8-1 2.7-.3.4-1.7.4-1.6.9 0 1 7.9 12.3 9.2 14.8 4.8 8.8 9.1 18 11.8 27.7Zm-197.7 5.7c8.1 8.1 9.5 0 10.5-7.3.8-5.6 2.7-20.6 1.7-25.4-3.6-17.2-21.3-15.9-21.6 3.6 0 6.8 4.6 24.3 9.4 29.2Zm161.5-44.5c-5 1.3-8.5 9.3-8.8 14.2-.2 4 2.4 28.5 3.8 31.3 2.5 5 7.5 0 9.8-2.7 6.8-8.3 11.6-30.7 4.5-39.5-2.7-3.3-4.8-4.4-9.2-3.3zM1023 1544c-.7-.7-.8-7-5.1-9.4-8.9-5-21.8-.8-32-4-10.4-3.3-9.4-13.1-16.1 1.8-2.9 6.4-9.1 24.4-6.3 30.7 1.1 2.4 17.8 15.6 21.2 17.8s18.2 11.7 21.1 10c3.1-5.6 9.3-9.5 12.6-14.9 1.8-2.8 4.1-11.5 4.6-11.9 1.6-1.7 1.7.5 2.1 1.4 1.6 3.6 2.1 6.8 4.5 10.5 3.3 5.2 9.2 9.3 12.4 14.6 3.1 1.9 15.5-5.9 18.9-8.1 4.5-2.9 22.9-17 23.9-21.1 2.2-9.7-6.6-28.3-10.9-37.2-4.9 1-7.8 5.2-12.7 6.7-9.2 2.8-28.2-1.6-33.7 6.3-.9 1.2-2.6 8.9-4.5 7zm-136 18c-.7-.6-3.5 0-4.5.9-6 6.2 2.4 31.6 14.6 27.6 4-1.3 3.8-9.4 2.8-12.9-1.1-3.9-7.2-4.1-9.8-7.2-2.1-2.5-2.7-8.2-3-8.5Zm274.1 0c-.3.3-.9 6-3 8.5-2.6 3.1-8.7 3.3-9.8 7.2-1 3.4-1.2 11.6 2.8 12.9 13.4 4.4 20.2-24.5 14.1-28.1-.9-.5-3.5-.9-4-.4Zm-216.4 7.2c-1.5.4-5.1 4.6-6 6.1-3.4 5.6-5.6 32.3-4.8 39.3 1.3 10.9 15.2 18 19.5 3.5 1.7-5.6 2.6-21.4 2.5-27.6 0-1.1-5.8-19.7-6.5-20.5-1.2-1.4-3.2-1.3-4.8-.8Zm153.3-.1c.2 6.6-5.4 14.7-6 20.6-.5 4.5 1 25.3 2.4 29.4 4.2 12.1 16.9 7.3 19.1-2.9 1.1-5.2 0-16.8-.6-22.6-1-9.7-1.7-25.5-14.9-24.5m-180 1.9c-20.5 3.8-17 28.7-9 43 4 2.9 10.4-17 10.7-19.8.9-7.5-2.9-15.5-1.8-23.2Zm218 43c2.5 1.8 7.2-9.1 7.7-10.8 3.9-12.8 1.6-30.1-13.7-32.2.5 7.4-2.8 16.2-1.9 23.4.3 2.7 6.4 18.5 7.9 19.6m-148.2 10.2c1.4.8 4.8 8.6 9.5 11 11.1 5.8 20.2-6.4 20.7-16.7.8-13.7-7.2-7.7-16.5-8.6-8.4-.8-15-4.8-21.8-9.2-5.5-3.5-13.6-14.6-14.7-1.4-.5 5.1 1.4 7.5 1.8 11.2s-2 5.9.5 10.7c4.8 9.3 18 1.3 20.7 2.8zm93.1-31.1c-2.1-1.5-19.7 12.7-23.9 14.4-2.3 1-7.9 2.3-10.5 2.5-10.5.9-18.8-5.4-16.4 11.4 1 7.3 7.9 15.8 16 15.1 9.4-.8 11.9-11.6 14.6-12.4 4-1.3 12.3 5.7 18.9-1.1 4.3-4.4 1.3-8.4 1.5-12.5 0-2.3 1.9-4.8 2-8.1 0-1.9-.8-8.5-2.2-9.4Z" class="outline shading" data-original-prefix="shading" opacity="0.5" style="opacity: 0.5"/><path id="shading-mouth1" fill="#aaaaaa" d="M1041 1343c6.1.5 12.7-1 17.5-5 1.5-1.3.9-3.7 2.8-2.9 10.1 7.9 37.9 17.4 43.8 28.2 3.6 6.5 4.6 17.5-1.8 22.6-5.6 4.5-20.8 10.8-28 15-4.9 2.8-9.7 6.6-14.7 9.3-7.4 4.1-25.5 14.5-32.6 16.4-2.9.8-5.2.8-8.1 0-14.5-3.8-42.2-22.5-56.3-30.7-6.2-3.6-21.2-9.1-23.2-15.8-5.5-18.4 15.7-28.3 28.7-35.4 2.3-1.2 15.5-8.6 16.5-8.7 2.9-.3 4.2 2.9 6.7 4.2 4.2 2.3 10 3.2 14.7 2.8-.3-5.1-3.3-11.3-1.8-16.3.5-1.6 12.5-13.9 14.5-14.4 3.9-1 8.2-.3 11.6 1.9 1 .7 10.8 11.1 11.2 11.8 2.1 5-1.2 11.8-1.5 17" class="outline shading" data-original-prefix="shading" opacity="0.5" style="opacity: 0.5"/><path id="outline-mouth3" fill="#000000" d="M889 1333c-13.5 7.3-27.4 9.4-38 21.5-7.1 8.2-19.1 26.1-18 37 .3 3.5 7.3 25.1 9.2 27.8 2.7 4 6.1 4.9 10.8 4.7-1.4-9 4.2-18.1 9.6-24.9 2.1-2.6 22-22.5 24.4-20.1-1.7 6.5-8.8 10.4-13 15.5-8.1 10-12.3 23.6-9.5 36.5 1.2 5.7 11 25.8 15 30 .7.7 7.1 6.3 7.5 6.5 3 1.5 6.9-6.1 7.8-8.2 1.7-3.8 2.1-7.7 3.7-11.3 4.4-10.2 9.4-18.4 18.5-25-5.1 13.9-9.5 44.6 1.5 56.1 4.8 5 9.9 2.7 14.3 4.7 2.8 1.3 3 5.7 4.8 6.1 2.6.6 7.2-4.9 14.1-2.1 5.2 2.1 8.6 15.6 13.9 16.1 2.5.2 10.2-12 18.4-9.4 5.6 1.8 19.1 24.8 24.4 23.5 6.1-5.4 3.7-12.4 5-19 1-4.8 6.1-10.3 7.8-15.2 3.7-10.9 1-26.5-1.9-37.5-.3-1.1-6.2-13.2-6.9-14.1-3.8-5.5-20.6-13-23-3.1-.4 1.8.2 7.9-2 7-4.8-4.4-9.5-9.2-14.5-13.5-3.8-3.3-11.2-7.6-14-11-3.5-4.3-14.5-27.1-14.7-32.2 0-3.1 8.4-13.8 10.8-16.8 1.4-1.7 10.5-12.5 11.2-12.8 6.4-3.2 28-2.3 34.7.8 8.4 3.8 12.4 12.1 18.5 17.5 5.2 4.5 2.5-1.7 2.5-3.6s.9-3.2.8-4.8c-.2-5.4-6.7-9.2-9.9-13.1-2-2.4-5.5-6.3-7-8.3-1.2-1.7-5.1-7.9-4.8-9.5.4-2.6 11.3-13.4 12.9-11.7-4.4 12.8-.7 8.7 7.3 12.2 1.2.5 3 2.7 3.2 2.7s2-2.2 3.2-2.7c3.4-1.5 9.7-.4 9.3-5.6 0-1.1-4.1-7.6-.5-6.6 2.8.8 12.1 10 11.3 13.2-6.2 9.4-13.5 17.8-21.1 26l-.8 12.7c1.7.4 2-.7 3-1.5 9.5-7.3 13.4-18 27.5-19.5 5.1-.6 23.6-.6 27.2 2.3 3.2 6.4 21.2 22.7 21 29 0 3.4-6.3 16.9-8.2 20.7-6.8 13.3-9.3 12.6-19.5 21.5-5.3 4.6-10.4 9.6-15.5 14.5-2.2.9-1.4-5.6-2.2-7.7-3.4-8.6-19-1.6-22.7 3.8-.6.9-6.2 11.4-6.6 12.4-1.3 3.6-.5 6.5-1.2 9.8-2.6 12.3-5.2 19.6.2 32.2 1.5 3.5 4.6 6.8 5.8 10.2 2.4 7.1-.8 16.6 6.6 21.1 8.3-2.8 16.9-21.3 23.6-23.5 7.7-2.4 15.9 9.6 18.4 9.4 5.6-.5 9.4-18.8 18.7-17.4 2.2.3 8.4 3.7 9.4 3.5 1.7-.4 2-4.9 4.8-6.2 3.9-1.8 8.9 0 13.3-3.7 11.5-9.9 8.1-43 2.5-56 1.6-1.6 11.3 10.4 12.4 12.1 4.9 7.6 6.1 15.6 9.7 23.3 1 2.1 4.8 9.8 7.8 8.2.4-.2 6.9-5.8 7.6-6.5 7.1-7.7 15.9-30.1 15.4-40.5-1-22.4-10.8-22.9-21.5-37.5-5.3-7.2 2.8-2.4 6 0 11.8 8.6 28 25.5 26.5 41 11.4 1.6 13.7-11.7 16.3-20.2 4.6-15.6 5.3-18.8-3.1-33.4-7.4-13-16.3-22.7-29.9-29.1-6-2.8-14.1-4.1-19.2-8.3 9.3.7 19.7 2.8 29.2 5.3 7.4 1.9 14.4 3.9 20.7 8.3 3.2 9.3 27.6 34.6 28 42 .2 3.9-8.4 23-10.2 28.7-2.4 7.4-1.3 15.8-9 20-2.1 1.1-8.8 2.4-9.5 3-3.6 3.6-1.9 26-2.2 32.3-1.2 29.7-2.2 52.7-20.5 77.5-.9 1.2-2.6 1.5-3.6 2.7-4.3 5.6-2.8 18.6-4.3 26.5-1.1 6-5 13.1-5.6 18.4-.4 3.6 1.4 7.3.2 10.1-1 2.4-9.9 8-12.6 9.5-2.2 1.2-5.7 1.5-6.5 2-.6.4-5.4 10.9-7.2 13.3-2.1 2.7-11.1 11.3-14 12.1-4.1 1.2-7.9-10.3-9.9-13s-2.3 2.3-3.6 4.3c-4.3 6.7-25.1 26.6-32.4 28.6-1.7.5-3.3.7-5 .5-.2-6.5 3.6-11.9-3-16.5-7.6-5.2-17.7 0-21.5 7.4-4.2 8.3-1.8 29.9-14.4 16.5-7.1-7.5-13-17.8-18.5-26.4-2.8 5-19.9 30.6-24 31-5.8.6-5.9-11.5-7.2-15.8-2.5-8.5-10.5-17.7-20-14.4-12.1 4.1-4.7 16.7-6.3 18.2-6 1.1-9.7-4.5-15-5-1.3 6.3-5.2 11.9-5.1 18.5.2 11.2 13.9 23.7 10.9 33.8-.8 2.7-3.4 3.2-5.5 1.4-3.7-3.3-7.9-17.8-10.4-23.1-3.8-8-11.3-14.9-9.4-23.7 1-4.7 7.9-13.9 7.6-17.4-.5-5.3-12.8-12.5-12-18.6-1.2-.2-1.3-.3-2.1.6-2.1 2.7-6.2 14.3-10.2 13.3s-12-10.2-13.7-12.4c-2.1-2.7-6.6-12.8-7.2-13.2-.7-.5-4.2-.8-6.5-2-2.5-1.3-12.6-7.8-13.2-9.9s1.2-6.2.8-9.7c-.6-5.1-4.5-11.5-5.6-17.4-1.7-8.4.3-19.9-3.9-26.1-5.9-8.8-10.5-12.8-15.3-23.7-13.6-31.3-7.5-52.3-10.1-83.9-.8-9.9-3.8-5.3-10.8-9.3-8.2-4.6-6.8-13.1-9.3-20.7-1.9-5.9-9.7-21.8-10-26.1-.2-3.3 1.1-4.7 2.5-7.3 6.8-12.4 18.9-24.3 26.1-36.9 5.9-4.3 13.2-6 20.1-7.9 9.7-2.6 19.8-4.7 29.2-5.3Zm15 128c-1.4-1.5-7.8 8.9-8.4 10.1-10.6 19.9-8.6 50.8-1.8 71.7 1.1 3.3 9.4 22.1 12.8 21.2 4.4-1.1 10.8-28.9 12.8-34.3 4.3-11.7 13.6-22.1 8.6-35.6-4.8-.6-12.2 1.2-15.9-2.9-1.4-1.5-8.5-21.7-8.8-24s.8-4 .8-6.2Zm240 103c.6-.4 6.8-10.5 7.5-12 6.2-12 8.8-32.9 9.5-46.5.8-15.3-4.1-32.2-14.6-43.5l-2.2 9.8c-4.9 13.6-4.6 25.2-23.1 22.4-5.2 13.7 4.3 23.9 8.6 35.6 3.1 8.4 6 27.5 11.8 33.2.7.7 1.4 1.8 2.4 1.1Zm-262.3-85.7c-1-.9-4.6-2-6.6-3.9-4.2-3.9-7.8-13.1-14-4.7-13.3 17.9-4.1 44.9 7 61.7 1.6 2.4 11.5 15.7 13.3 15.7.5-8 1.2-16.5.5-24.5-.4-5.4-3.1-12.3-3.1-18s6-23.3 2.8-26.2ZM1167 1547c1.7.4 2-.5 3-1.5 17.5-18 32.6-50.9 18.4-74.4-6.5-10.8-10.8-.4-16.9 4.9-2 1.7-5 1.6-5.5 4.5-.8 4.5 4 18.3 4 24s-3.3 14.8-3.6 21.2 1.6 14.6.6 21.3m-219.1-51.9c-4.7-3.3-6.5 7.1-7.7 9.6-5.3 11-11.8 23-12.2 35.8-.2 7.6 10.5 26.2 19.1 21 3-1.8 4.7-18 5-22 .4-6.4.2-41.4-4.1-44.4Zm67.8 32.2c-3.2-2.8-9.7 3.2-15.8 1.3-2.1-.7-8.7-7.5-10.5-9.5-2.6-2.9-3.4-8.8-8.2-7.4-12.2 3.5-20.5 24.1-21.2 35.9-.9 13.6 2.4 21.7 11.5 31.5 9.8 10.4 24 15.7 36.1 23h2.3c2.1-6.4 6.2-12 8.1-18.4 3.7-12.2 7.9-47.3-2.3-56.2zm23.4 74.6c1.1.7 3.4 0 4.6-.7 5.6-2.4 20.1-11.1 25.2-14.8 13.4-9.8 21.4-21.7 20.1-38.9-.9-11.9-9.2-33-22-36.1-4.4-1.1-5.5 5-8 8-1.7 1.9-7.3 7.9-9.2 8.8-9.2 4-14.3-9-20 5-5.4 13.2-2.6 37.5 1.5 51.1.7 2.2 7.1 17.1 7.9 17.6ZM885 1559c-3.2-3.3-6.4 8.4-5.8 12.3.7 4.5 5.4 23.4 7 27 1 2.2 6.2 8.5 8.7 6.7 3.4-2.4 3.2-20.7 4-25.4-.5-3.1-8.3-6.1-11-10-2.3-3.5-2.6-10.1-3-10.5Zm32 4c-1.9-2.2-11.8 12.5-12.4 14.1-1.7 4.6-3 25.2-2.4 30.3.9 7.9 5.6 18 11.4 23.6 1.4-8.8 5-18.6 5.5-27.5.8-13.1-3.7-27.1-2-40.5Zm218 68c7.1-5.4 12.1-18.8 11.8-27.5 0-2.6-1.7-5.2-1.8-8-.3-5.4.8-12.5-.5-17.5-.6-2.3-10.4-17.3-12.5-15 1.5 13.8-3.1 28-2 41.5.7 8.7 4.6 17.6 5.1 26.5Zm-35-62c-2.8 14.2-8.1 27.9-9 42.5-.3 5.3-1.4 33.3 3.6 34.4 2.4.6 18.8-13.3 20.9-15.9 8.3-10.5 3.8-32.3-1-44-1.2-2.9-11-19.9-14.5-17m-82 44c-3.5 0-6.1 2.5-9.6 2.9-12.7 1.6-29.1-13.9-41.4-16.9v24.5c0 .6 3.2 8.2 4.1 8.9 6.5 5.2 18.9-.4 24.4 5.6 2.6 2.9 4.3 10.3 10.6 5.5 1.1-.8 11.9-13.1 11.9-14.1v-16.5Zm64-13c-13.2 1.2-27.8 17.6-41.4 15.9-3.5-.4-6.1-3-9.6-2.9v17.5c0 1.1 13 14.6 15.4 14.5 4.9-.3 5.1-4.7 7.1-7 5.5-6 18.3-.4 24.4-5.6 1-.9 4-9.7 4-11v-21.5Z" class="outline" data-original-prefix="outline"/><path id="outline-mouth2" fill="#000000" d="M1122 1332c-.2 0 .2 1.6 0 1.9-1 .8-8.1-5.8-10.2-7.1-10-6.1-19.8-8.3-31.2-9.8-2.9-.4-6.9.7-9.5-.5-1.5-.8-4.5-7.4-6.5-9.5-7.8-8.7-15.6-10.2-25.8-13-1.1-.3-.6-1.9-.7-2 3.1-3.8 16.2-9.3 20.8-9.8 7.9-.9 5.5 4.4 6.5 9.1 2.3 10.7 9.3 19.6 21.3 18.8 5.1-.3 5.6-4 7.9-4.1 1.4 0 6.6 2.9 8.2 3.8 9.4 5.2 15 12.5 19.3 22.2z" class="outline" data-original-prefix="outline"/><path id="outline-mouth1" fill="#000000" d="M1011 1292s.4 1.7-.7 2c-10.2 2.8-17.4 4.1-25.4 12.5-2 2.1-5.6 9.2-7.2 9.9-3.4 1.4-13.5 1-18.1 1.8-12.5 2.1-23.6 8.7-33.1 16.9.2-.9-.5-2.8-.5-3 .7-2.3 8.9-13.5 11-15.5 2.4-2.4 14.7-10.5 17.6-10.4s3 5.1 11.9 3.9c10-1.3 16.2-10.1 17.5-19.6.4-2.6-2.4-6.7 2.8-8.2 3.5-1 21.7 5.6 24.3 9.8Z" class="outline" data-original-prefix="outline"/>
    </g><g class="trait-group" data-category="eyes" id="eyes-aviators">
      <!-- Semantic Classes:
    - fill: Areas that can be colored by the user (default: white)
    - shading: Areas that provide depth/shading (default: gray, 50% opacity)
    - outline: Lines that define the shape (default: black)
  -->
  
  
  <path id="fill-eyes-main" d="M1421.5,1220.6c-.3.6-8.8,2-10.4,2.1-4.8.4-15.8-1.8-18,3-2.8,30-4.2,58.5-16.7,86.3-10.3,23-35.2,57.7-58.2,68.8-30,14.6-98,10-129.5-.9-21.7-7.5-62.4-49.9-79.2-67.8-14.7-15.6-36.7-38.2-49-55-2.3-3.1-2.7-8.1-3-8.5-1-1-6.2,1.2-7.9.5-.6-.3-9.2-8-10-9-4.5-5.8-2.4-10.3-12.6-9.6-6.6.5-5.5,5.8-9.5,10.5-.9,1-8.4,7.8-8.9,8-4,1.5-8.1-3.5-15.1,4-18.2,19.5-35.3,41.4-53.9,61.1-19.6,20.7-56.2,59.4-82.8,67.2-31.3,9.1-92.1,13.6-121.9.5-28.7-12.7-59.2-59.7-67.8-89.2-6.3-21.6-6.6-45.2-9.7-67.3-2-3.1-15.1-2.3-19.2-2.8-1.7-.2-7.5-1.2-8.4-2.1-2.5-2.5-2.8-27.2-4.3-32.3-.2-1.4.3-1.4,1.3-1.8,5.7-2.5,20.8-1.6,25.3-5.7,6-11.4,9.3-26.8,19.4-35.6,2.6-2.2,6.7-2.1,4.6-5.5-2.7-4.3-20,0-21.5-7.5-1.3-6.8,5.7-32,8-39.9,7.8-26.3,27.3-70.8,46.9-90.1,6.5-6.4,7.6-3.2,14.5-4.5,3.3-.6,5.3-6.7,7.5-9.5,40.7-50.5,92.3-93.3,151.6-120.4,80.5-36.8,209.6-37,290-.3,59.2,27,110.4,69.5,151.3,119.7,2.3,2.8,5.7,9.9,8.6,10.5,7.2,1.4,8.7-2.3,15.5,4.5,24.3,24,47.4,83.1,53.5,116.5.6,3.2,2,10.7,1.4,13.5-1.6,8.2-20.9,1.9-22.8,8.2-1.9,6.2,5.4,12.9,8.3,18.3,2.4,4.4,8.1,20.4,9.9,22.1,4.7,4.2,23.9,4.2,25.1,5.9,1.8,11.6-1.8,22.9-2.4,34.1" class="fill" fill="#ffffff"/>
  <path id="fill-eyes-rims" d="M1415.7,1206.8c-.2-3-.4-6.1-.6-9.1-.3-5.7-4.5-10.5-10.5-10.5h-6.3c-1.2,0-2.4.2-3.4.5-.9-.3-1.9-.6-2.9-.8-2.3-.3-4.7-.3-7.1,0,2-23.3-16.1-42.7-36.1-51.8-11-5-22.6-8-34.3-11.1-12.5-3.2-24.9-6.7-37.4-9.7-8.8-2.2-17.6-3.5-26.5-4.3,2.5-6.2-.6-14.9-9.3-14.9-85.4,0-170.8.3-256.2.4h-68.7c-1-.3-2.2-.5-3.5-.5h-104.7c-9.6,0-12.4,10.7-8.3,16.8-10.3,1.4-20.6,3.2-30.8,5.2-24.8,4.8-50.1,10.3-72.3,22.8-11.9,6.7-23.7,15.6-30.8,27.5-2.9,4.9-4.7,10.2-5.6,15.7-1.1-.2-2.3-.4-3.6-.3-3.6.2-6.7,2.1-8.5,4.8-1.5-.2-2.9,0-4.3.2-2.5-1.2-5.4-1.6-7.8-1-6,1.7-8.2,7.3-7.3,12.9.7,4.2,1.3,8.4,1.9,12.7.7,4.6,5.9,7.6,10.1,7.7h3.6c3.3,1.9,5.7,5,7.4,8.5,1.3,2.7,3.9,4.3,6.7,4.9,4.4,36.9,9.5,75.8,31.7,106.7,21.4,29.8,54.4,44.8,90.2,48.7,18.6,2,37.9,1.2,56-3.7,16.9-4.5,32.8-12.5,47.3-22.2,14.8-9.9,28.4-21.5,41.3-33.7s25.6-24.8,36.6-38.7c12.9-16.2,23.6-34,29.3-54,5-17.3,6.2-35.5,4.1-53.3,14.6-1.9,29.3-3.3,44-2.5,4,.2,8,.6,12,1.3.3,0,1.7.3,3.2.7l-1.4,29.7c-.2,3.2.9,5.6,2.6,7.2,2.2,11.9,4.2,24.9,10,35.4,3.2,5.7,7.2,11.1,10.9,16.5,2.2,3.3,4.4,7,6.9,10.4,0,1.6.5,3.2,1.5,4.6,10.8,14.4,24.5,25.8,37.8,37.7,13.4,12,26.5,24.7,41.2,35.2,27,19.4,60.3,29.7,93.5,29.9,2.9,0,5.2-.9,6.9-2.5,15.4-1.6,31-3.4,45.7-8.6,16.6-5.8,29.9-15.5,40.5-29.5,21.2-28,34.4-62.2,39-96.9,1.3-10,2-20,1.8-30.1,0-2.2,0-4.4-.2-6.6.2.2.5.3.8.5,5.8,3.5,13.2,3.4,18.9,0,2.8-1.8,5.2-5.4,5-9v.2h0ZM951.2,1270c-9.4,13.1-20.7,24.8-32.2,36.1-11.2,11-22.7,21.8-35.2,31.3-12.2,9.3-25.6,17.9-39.9,23.4-15.8,6.1-32,8.6-48.8,8.2-29.5-.6-60.2-9.5-80.7-31.8-26-28.3-30.8-69.3-35.2-105.8-.2-1.9-.8-3.7-1.7-5.3.2-1.5.2-3,0-4.5-.5-3.1-1.1-6.2-1.6-9.3,6-9.2,2.6-20,6.1-29.9,3.1-8.9,11.3-15.5,18.9-20.5,19.3-12.7,42.2-18.1,64.5-22.8,48.7-10.1,100.1-15.6,149.1-4,20.8,4.9,43.5,13.1,54.7,32.6,1,1.8,2.4,3.1,3.8,3.9-.5,1.9-.6,3.9-.2,5.6,6.7,33.2-2.3,65.8-21.6,92.8M1062,1160.3c-.3,1-.5,1.9-.5,2.8-4.3-1.2-9.1-1.7-13.3-2.2-19.8-2.5-39.7-.2-59.4,2.5.2-1.9-.2-3.9-1.4-6-11.7-20.4-32.8-32.1-54.6-38.9l-6-1.8c66.8,0,133.6-.2,200.3-.3-1.7.4-3.3.8-5,1.3-12.5,3.6-24.6,9.6-35.9,16-10.9,6.1-20.3,14.3-24.2,26.6M1370,1227.4c0,9.5-.8,19.1-2.4,28.5-3.2,18.9-9.2,37.2-18,54.2-8.1,15.6-17.6,32.9-33,42.2-16.3,9.9-36.1,12-54.7,13.9-2.3.2-4.4,1-6.2,2.2-29.3-.5-57.7-9.9-81.5-27-1.4-1-2.8-2-4.1-3.1-1.1-3.4-3.9-6.2-8.2-6.7-8.4-7.2-16.4-14.9-24.6-22.2-10.4-9.3-21.8-18.2-30.9-28.9,0-2.9-.8-5.7-3-7.5-4.3-3.5-7-8.9-10.1-13.5-3.3-4.9-6.9-9.8-9.9-14.9-2.6-4.6-3.4-10-4.6-15.1-1.5-6.5-2.9-13.1-4.2-19.6-.2-.7-.4-1.4-.7-2.1.7-10,1.8-20.3,1.3-30.2,0-1.8-.4-3.4-.9-4.8,3.4-.6,6.5-2.9,7.9-7.1,2.3-7.2,9.6-11.4,15.8-14.8,8.9-4.9,18.1-9.6,27.8-12.6,21.1-6.6,44.6-6.7,66.4-7.6,11.4-.5,22.7-.7,34.1-.8,11.3,0,22.7,0,33.9,2,11.3,2.1,22.4,5.4,33.6,8.3,10.4,2.7,21,5.3,31.3,8.3,17.9,5.3,40.8,16.5,38.6,38.8-.4,4.1,2.5,7.7,6.1,9.4l-.6,1.5c-1.5,4.5,0,9.9.3,14.6.5,5,.6,9.8.5,14.6" class="fill" fill="#ffffff"/>
  <path id="fill-eyes-lens1" d="M1179.4,1134.1c40.9-2.7,97.1,4.9,136.2,17.2,22.2,7,37.6,14.4,44.9,38.1,14.9,48.3-2.6,130.7-47,159.8-31.6,20.8-93.5,20.9-124.8-1-21.1-14.8-46.4-35.3-63.6-54.4-29.9-33.2-63.5-74-40-121,15.1-30.3,63.8-36.7,94.3-38.7" class="fill" fill="#ffffff"/>
  <path id="fill-eyes-lens2" d="M834.5,1134.1c35.7-1.8,110.2,1.6,129,37.4,25.1,47.6-10.3,90.4-40.8,123.8-16.7,18.3-57.6,53.5-80,62-40.4,15.3-96.8,9.2-126-25-28.6-33.3-50.7-133.3-14.9-165.9,21.7-19.9,102.6-30.8,132.7-32.3" class="fill" fill="#ffffff"/>
  <g id="eyes-shaded">
    <path id="shading-eyes16" d="M1263,1369l77.9-202.4-35.9-17.6-86.3,216.8c-7.7-3.2-18.2-4.6-25.4-8.6-1.1-.6-2.3-.9-2.1-2.5l83.8-214.1,3.1-1.1c-.8-.4-.7-1.8-1.3-2.2-2.8-2.2-33.1-5.4-39.2-6.2-13.5-1.9-25.5-2.1-39-6-1.4-.4-3.1,0-3.4-2,34.4-1.4,68.6,1.9,102.2,9.3,60.3,13.2,86.9,33.8,81.8,100.2-4.3,56.4-23.6,106.8-78.8,129.2-12.1,4.8-24.6,6.4-37.4,7.2" class="shading" fill="#aaaaaa" style="opacity: 0.5" opacity="0.5"/>
    <path id="shading-eyes15" d="M1068,1185c4.4,6.7-1.2,7.5-2,11.5-2.6,13.5,4.2,36.9,3.5,51.4,26.1,33.1,54.5,68.2,87.6,94.4,9.4,7.5,24.7,19.5,35,25,22,11.8,82.3,10.8,107.3,6.4,5.1-.9,19.6-6.7,22.7-3.4,3.6,3.9-1.3,5.4-4,7-23.1,13.8-56.4,9.4-82.5,7.5-12.8-.9-39-2.2-50.2-5.8-8-2.6-29.2-21.2-36.3-27.7-26.1-23.9-48.5-51.5-74-76-13.8-13.2-29.1-24.5-42.5-38.5-1.1-1.2-2-3.4-2.9-4.1-.8-.6-7.7-1-9-.9-2,.2-17,17.3-20.5,20.5-7.2,6.4-16.1,11.4-23,17.9-33.4,31.5-60.8,69.3-97.5,97.5-19.5,15-31,13.9-55,16-22.9,2-62,6.4-83-1-2.1-.7-15.4-7.1-16-8-2.2-3.6,1.6-6.1,4.9-6,3.6,0,7.3,2.8,10.6,3.5,28.8,6.1,75.6,6.2,104.3-.8,9.4-2.3,18.7-9.8,26.7-15.3,26.6-18.6,50-41.2,71.6-65.4,5.6-6.2,34.7-40.5,35.4-45.6,2.3-15,1.5-32.7,3.1-48,.5-3.2-3.9-4.3-4.1-7-.2-2.5,2.2-3.2,2.1-5.4-4.5.8-11-4.6-6.6-8.1,3.7-2.9,4.7,2.1,7.3,2.9,5.5,1.7,7-1.6,10.8-2.8,29.1-9.3,36-9.4,65.1,0,3.7,1.2,5.2,4.5,10.8,2.8,2.2-.7,3.1-4.4,6-3.7,5.7,1.9,0,10.6-5.7,9.2M1038,1185c-9.5-1.8-18.7-3-28,.5,5.4,1.1,7.7,5.6,9.3,10.7,1.5,4.7-1.1,8.7,6.2,7.9,2.9-.3,2.4-5.8,3.4-8.6.6-1.7,2.2-5.7,3.2-6.8,2-2.5,4.8-1.4,5.9-3.7M1053,1197c-.2,0,0,1.8-1,2.4-7.9,5.8-11.5,9.7-21.5,9.6-5.1,0-8.6-.2-13.9,0-11.1.4-14.8-6.6-23.5-12.1l-3,30c2,2,17.7-4.1,21.5-4.1,5.8,0,8.3,4.7,16.8,2.9,1.8-.4,3.2-1.9,4.7-2.3,7.2-2,17.2,4.9,25,3.5l-3-29.5c0-.8-2-.5-2.1-.4" class="shading" fill="#aaaaaa" style="opacity: 0.5" opacity="0.5"/>
    <path id="shading-eyes14" d="M1119,1095c10.8-7.5,22.7-13.9,34.3-20.2,23.5-12.8,49.4-20.6,66.1-41.9,11.6-14.8,20.3-27.2,12.4-46.3-12.8-31.1-52.4-80.9-79.9-100-14.9-10.4-32.6-16.6-45.9-29.1,9.3.7,20.3,4.3,29.5,7.5,66.1,22.7,136.7,74.8,177.9,131.1,2.8,3.8,12.4,14.4,8.3,18.7-3.2,3.3-25.6,8.5-31.7,10.8-38.2,14.4-82.4,31.5-116.9,53.1-3.8,2.4-21.2,16.4-22.6,16.4h-31.5Z" class="shading" fill="#aaaaaa" style="opacity: 0.5" opacity="0.5"/>
    <path id="shading-eyes13" d="M897.5,1095c-1.5-.4-19.2-14.3-23.2-16.8-34.2-21.3-79.2-38.9-117-53-5.4-2-30-7.6-31.8-11.2-1.9-3.9,2.8-9.6,5.1-12.9,27.2-39.7,72-78.2,113.1-102.9,30.2-18.2,63.6-34.2,98.3-41.2-12,12.1-28.8,18.2-42.9,27.6-25.1,16.6-49.7,46.7-66.1,71.9-4.3,6.6-20.6,33.7-20.8,40-.5,14.1,11,30.6,19.9,41,15.3,17.9,40.9,24.1,60.6,36.4l36.3,21.1c-8.1-1.5-24.5,2-31.5,0" class="shading" fill="#aaaaaa" style="opacity: 0.5" opacity="0.5"/>
    <path id="shading-eyes12" d="M875.3,1338.3c-4.1,3.7-6.6,10.1-9.4,13.1-1.1,1.2-9.2,6.5-7.7,1.3l79.9-204.7c2.3-1.9,13.8,7.4,16,9.4,16.1,14.9,20.1,37.7,17.9,58.9-3.8,35.8-44.3,79.1-70.9,102.1-8,7-18.5,13.3-25.8,19.9" class="shading" fill="#aaaaaa" style="opacity: 0.5" opacity="0.5"/>
    <path id="shading-eyes11" d="M778.5,1369c-.7-.2-1.6-1.6-1.5-2.5l91.7-234.6c9.8,2.2,20.1,2.1,29.9,4.1,1.2.2,1.8-.8,1.5,1.5l-91.6,231.5c-5.9,0-26.2,1.2-30,0" class="shading" fill="#aaaaaa" style="opacity: 0.5" opacity="0.5"/>
    <path id="shading-eyes10" d="M1173,1133l-63.5,147c-.8,0-9.2-10.7-10.5-12.5-6.1-8.5-13.4-18.9-17-29-7.5-20.7-9.4-43.8,0-64.2,15.6-34.6,58.3-36.5,91.1-41.3h0Z" class="shading" fill="#aaaaaa" style="opacity: 0.5" opacity="0.5"/>
    <path id="shading-eyes9" d="M1254.8,1109.8c-.2.4-7.5,3.9-8.3,4.2-7,2.4-26.3.2-35,0-34.8-1-70.2-1.7-105-2-20.2-.2-40.1,1-60,1-70.4,0-140.6-1.1-211.1,1-8.6.3-27,2.4-34,0-.8-.3-8-3.8-8.3-4.2-.7-1.2-.4-6.1.8-7.4,3.3-3.4,9.3.3,13.5.6,27.4,1.9,59.2,1.5,87,2,89.1,1.7,177.1.6,266-1.1,25.9-.5,54.5.8,80.1-.9,3.7-.3,11.5-4.2,14,0,.7,1.3,1,5.9.3,6.9h0Z" class="shading" fill="#aaaaaa" style="opacity: 0.5" opacity="0.5"/>
    <path id="shading-eyes8" d="M768,1115c.3,1.4-1.1,1.1-2.2,1.3-18.2,4.5-36.7,6.8-55,12-5.2,1.5-14.4,6.4-18.8,5.3-3.5-.9-8.9-4.9-12.3-6.7-1.4-.7-7.4-2.5-7.7-2.8-1.4-1.9,3.7-3.1,4.9-4.6,4.7-5.7,8.4-20.1,13.3-26.7,1.1-1.5,1.3-2.2,3.4-2.6,4-.8,27.7-.5,31.5.4l42.9,24.4h0Z" class="shading" fill="#aaaaaa" style="opacity: 0.5" opacity="0.5"/>
    <path id="shading-eyes7" d="M1376,1124c-.3.4-6.9,2.3-8.4,3.1-3.3,1.7-8.2,5.5-11.6,6.4-4.4,1.2-13.6-3.8-18.8-5.3-18.3-5.2-36.4-7.3-54.4-11.6-1-.2-3-.3-2.8-1.7l42.7-24.8c5.9.5,30.6-1.8,33.8.8,4.6,3.8,9.2,22.8,14.6,28.4,1.3,1.4,6.2,2.9,4.9,4.7" class="shading" fill="#aaaaaa" style="opacity: 0.5" opacity="0.5"/>
    <path id="shading-eyes6" d="M1075,1141c1.6-3.5,12.5-25.6,14-26.5,1.9-1.1,14.6-1.1,16.1.9,6.7,8.5-8.9,12.6-13.8,15.4l-16.3,10.2h0Z" class="shading" fill="#aaaaaa" style="opacity: 0.5" opacity="0.5"/>
    <path id="shading-eyes5" d="M945,856c.7.3-.6,1.7-2,1-.7-.4.6-1.7,2-1" class="shading" fill="#aaaaaa" style="opacity: 0.5" opacity="0.5"/>
    <path id="shading-eyes4" d="M1105,856c.7.3-.6,1.7-2,1-.7-.4.6-1.7,2-1" class="shading" fill="#aaaaaa" style="opacity: 0.5" opacity="0.5"/>
    <path id="shading-eyes3" d="M958.8,1114.2c1.4.8,13,24.2,14.7,27.8-3.8-2.6-7.3-5.4-11.2-7.8-3.7-2.2-18.8-9-19.8-11.2-1-2.3-1.1-7.2,1.5-8.5,1.5-.7,13.7-.9,14.8-.3" class="shading" fill="#aaaaaa" style="opacity: 0.5" opacity="0.5"/>
    <path id="shading-eyes2" d="M853,1123c0,1.5-2.5,1.6-3.6,1.9-23.2,6.6-47.2,5.9-70.6,10.4-7.2,1.4-8.4.3-8.5,8.4-21.2,48.4-48.3,94.5-69.1,143-2.7,6.2-7.1,16.1-6.1,22.8.6,4.2,9.6,17.5,12.5,21.5,3.7,5,9.7,9.4,11.9,15.1-24.6-17.6-39-48.9-45-77.9-13.8-66.2-11-111.9,60.3-131.8,38.3-10.7,78.5-14.6,118.2-13.4" class="shading" fill="#aaaaaa" style="opacity: 0.5" opacity="0.5"/>
    <path id="shading-eyes1" d="M721.5,1346c.7.3.7.7,0,1v-1Z" class="shading" fill="#aaaaaa" style="opacity: 0.5" opacity="0.5"/>
  </g>
  <g id="outline-eyes" class="outline" fill="#000000">
    <path id="outline-eyes2" d="M993,1256c-1,4-2,4.8-4.5,8-14.2,18.2-34.4,39.6-50.5,56.5-17,17.9-47.1,49.2-67.7,61.3-24,14.1-91.5,17.2-118.5,11.9-29.6-5.8-47.2-25.6-64-49-25.1-35-31.7-73.2-32.8-115.7h-17.5c-.5,0-7.7-1.5-8.3-1.7-4.5-2-5.8-20.7-6.2-25.8-.3-3.7-1.6-15.3.5-17.5,3.5-3.7,22.8-2.9,26.3-6.2,1.1-1.1,2.7-8.4,3.7-10.8,3.6-8,7.8-15.8,13.5-22.5-14.5-3.8-23.3,2.8-22-17,1.8-29,22-77.6,37.6-102.4,4.3-6.9,20.8-32.7,28.8-32.1,2.1.2,3.9,2.7,5.6,1.6.5-.3,4.7-7.4,6-9,42.4-52.1,97.9-98.4,160.3-124.7,80.6-34,211.7-32.3,291,4.3,44.4,20.5,92.8,56.2,126.2,91.8,6.8,7.2,23.5,25.4,27.9,33.1,1.2,2,1.8,3.5,1.6,6,3.5-.3,5.5-3.6,9.3-2.8,1.8.3,7.3,4.8,8.8,6.3,11.7,11.9,33.9,51.3,39.6,67.4,4.9,13.6,16.7,54.3,16.1,67.4-.6,12.3-13.3,7.2-21.8,9.8-1.2,1.5,3.7,6.8,4.8,8.7,3,5.3,6.6,11.9,9.1,17.1.9,1.9,1.5,7,2.3,8,3,3.5,25,2.6,26.6,6.9.4,1.1,0,3,0,3.3l-3,34c-.5,1.2-.2,2.5-1.3,3.7-4.4,5.2-23.1,1.8-25.6,3.4-.4.3-.7,5.3-.8,6.5-.7,9.2-1,10.5-2.1,20-.2,1.5-1,7.5-2.2,14.4-7.3,46.4-41.9,113.1-92.2,123.3-27.5,5.6-95,2.9-119.5-11.1-25.2-14.4-61.4-54-81.8-76.2-11.4-12.4-29.7-31-38.9-44.1-3.2-4.5-2.7-6-3.6-10.9-3.9-20.4-3-38.7-5-58.5-.2-1.4-.8-5.7-1.5-6.5-3-3.8-26.8-4.4-32-4-3.8.3-14.8,2.1-16.1,5.9-.7,11.2-.5,22.4-1.5,33.6-.7,9.7-2.3,24.8-4.8,34.3h.1ZM797.5,1091h90.5c-10.2-9.4-23.2-15.1-33.9-23.6-1.1-.9-8.4-6.1-7.1-7.4,21.5,6.1,37.4,23.6,58.6,30.9h236c22.1-5.8,38.1-24.5,59.9-31,1,2.5-4.7,5.9-6.6,7.4-10.8,8.4-23.7,14.3-33.9,23.6h91.5c.5,0,5.1,5.2,5.7,6.3,1.5,2.9,1.8,10.4,2.4,10.8,2.4,1.4,18.4,2.4,22.7,3.1,19.7,3.2,40.8,7.2,59.8,13.2,3.1.9,12.4,5.7,14.3,5.7s14.7-7.8,18.5-8.6c1-14.6-5.9-28.1-11.9-41-3.3-7.2-7.2-15-11-22-2.4-4.5-16.1-28.6-18.6-30.4-2.9-2.1-20.6-1.2-25.1-.9-14.3.9-28.6,3.6-42.5,7-1.9-1.7,12-11.3,13.3-12.2,8.4-5.8,17.8-10.6,26.8-15.4-4.4-19.8-20.1-36-34.6-49.4-58.1-53.7-155.6-100.6-235-104-90.4-3.8-194.3,42.3-260.5,102.5-14.8,13.4-31,29.9-35.9,49.9,9,5.9,18.8,10.3,27.6,16.4,1.3.9,15.2,10.6,13.3,12.2-13.9-3.4-28.2-6.1-42.5-7-4.5-.3-22.2-1.2-25.1.9-2.5,1.8-16.2,25.9-18.6,30.4-3.8,7-7.7,14.8-11,22-5.9,12.8-13,26.6-11.9,41,3.1.7,16.9,8.6,18.4,8.5,1.6,0,11.5-5.1,14.9-6.1,26.3-8,53.9-11.8,81.1-15.7,1.2-.6.2-15.3,10.4-17.1M819,1100h-16.5c-4.4,0-4.4,9-2,9h15.5c.5,0,2.3-7.9,3-9M1223,1109c.5-4.6-1.9-7.1-6-8.5h-387c-3.9,1.8-4.8,4.8-6,8.5h399ZM1245.5,1100c-4.7-.9-11.5.6-16.5,0,.5,1.5,2.6,9,3.5,9h15c2.2,0,2.5-8.2-2-9M793.8,1117.3c-27.5,2.3-85.6,15.5-108.1,30.9-17.2,11.7-21.7,48.9-21.7,68.4-.2,51.9,12.7,106.6,51.5,143.5,34.7,33,102.4,26.3,144,10,25.7-10.1,68.2-56.5,88-78,7.7-8.4,28.7-30.1,33.4-38.6,3.5-6.4,6.5-45.2,7.1-54.9s-7.1-7.4-7.9-4.8c-.3.8,1.1,10.8.9,13.8-2.8,50.6-57.6,103.7-95.5,133.5-41.3,32.5-108.5,45.8-155.4,17.4-48.2-29.2-73.2-143.5-44.2-191.1,8.5-14,33.7-22.3,49-27.1,54.7-17.2,174-27.9,220.2,11.2,2.6,2.2,12.7,14.2,13.6,14.4.6,0,9.7-4.7,11.3-5.5-10.2-22.7-43.3-32.7-66-37.9-32.6-7.6-86.5-8-120.2-5.2M1066.9,1192.1c-.8-.5-5-.3-5.9.3-1.3.9-1,3.6-1,5.1,0,12,2.4,30.7,4.2,42.8.4,2.7.7,6.3,1.3,8.7,1.9,7.2,28.3,35.6,35,43,21.6,23.5,62.8,69.1,91.8,79.2,34.2,12,96.1,19.8,127.5-1,26.7-17.7,46.4-53.3,55.5-83.5,9.2-30.4,14.1-104.1-4.8-130.7-7.2-10.1-36.4-21.9-48.7-25.3-54.7-15.5-139.3-21-194.2-6.7-16.9,4.4-45.7,14.5-56,29-7.8,10.9.2,7.8,7.8,12.9,21.9-30.3,61.3-36.4,96.1-39.9,48.3-4.9,131.7,3.4,173.8,29.2,28.1,17.2,27.4,67.3,23.6,96.2-5.3,39.8-28.8,99.1-69.3,113.7-82.7,29.8-142.3-17-194.5-74.5-21.3-23.4-39.8-49.1-42-82-.3-2.9.9-15.8-.2-16.5M1095,1119h-141c3.5,8.3,13.6,11.1,20.5,17,7.4,6.2,13.3,14.2,19.1,21.9l58.9.2,2.9-1.1c5.2-8.5,12.3-16.7,20.2-22.8,4.7-3.6,13.8-7.5,17.3-10.7,1.2-1.1,2.3-2.8,2.1-4.5M833.8,1134.3c-30.1,1.5-110.9,12.4-132.7,32.3-35.8,32.6-13.7,132.6,14.9,165.9,29.2,34.1,85.6,40.3,126,25,22.4-8.5,63.4-43.7,80-62,30.5-33.4,65.9-76.2,40.8-123.8-18.9-35.8-93.4-39.2-129-37.4M1178.8,1134.3c-30.6,2.1-79.2,8.5-94.3,38.7-23.5,47,10.1,87.9,40,121,17.2,19.1,42.5,39.6,63.6,54.4,31.3,21.9,93.2,21.8,124.8,1,44.4-29.2,61.9-111.5,47-159.8-7.3-23.7-22.7-31.1-44.9-38.1-39.1-12.3-95.3-19.9-136.2-17.2M1072.7,1172.2c-1.2-1.1-8.5-2.6-10.5-2.9-19.1-3.4-64.9-4.5-83,1.4-3.8,1.2-5.3,1.4-5.3,5.8,0,9.1,6.6,8.9,14.2,7.1,4.5-1.1,8.5-6.5,14.1-7.9,10.5-2.6,39.3-2.8,48.5,2.1,7.3,3.9,9.2,8.3,19.8,6.2,3.5-.7,4.5-9.7,2.2-11.8M636,1196.5c-.7,2.2,0,13.5,0,17s14.9.4,18,1.5c-1-2.1,1.7-22.1.5-22-3.2,1.8-17.4,0-18.5,3.5M1412,1213.5c.8-2.7,0-13.2,0-17s-16-1.9-18.5-3.5c-1.2,0,1.5,19.9.5,22,3.9-1.3,16.8,2.8,18-1.5" class="outline" fill="#000000"/>
    <path id="outline-eyes1" d="M998,1252c11.2-12.1,21.2-29.1,19.5-46,5.4,3.1,9.1,2.3,14.5,0-2.8,10.5,3,24,8.8,32.7,1.6,2.5,10.1,11.5,10.2,12.3.6,3.3-5.9,8.9-7,8-.9-5.7-7.9-7.8-12-12.5-1.3-1.5-3.3-4.1-4.3-5.8-1.4-2.5.7-4.5-4.3-3.8-2.1.3-5,8-7.5,10.6-3.5,3.8-10.8,6.1-11,11.5-1,1-7.1-4.8-6.9-7" class="outline" fill="#000000"/>
  </g>
    </g><g class="trait-group" data-category="right ear" id="right ear-cracked">
      <path id="fill-ear-rt" fill="#ffffff" d="M1722.4 186.9c.8.8 1.1 2.1 1.1 3.2l-8.1 121.8c-8.6 28.8-25.9 53-29.7 83.3s-3.9 64.1-9.3 93.7c-7.4 41.1-28.4 85.6-36.9 127.1l-66.8 103.2c-30.7 24.5-60.3 54-91.5 77.5-13.1 9.9-38.1 22.1-53.4 29.5-4.5 2.2-11.8 7-16.6 3.5s-8.7-32.4-11.9-39.1c-15.4 14.6-30.8 29.2-45 45-2.4 2.6-12.9 13.8-13.3 15.8-.5 7.8 4.3 26.8 1.3 33.2-2.3 5.1-22 16.9-22.5 21.5l15.9 43.8-51.9 35.7c-2.6 3-1.2-1.7-2.6 2.2-17.5-3.9-23.5-9.2-38.8-18.4-19.3-11.6-43.7-28-59.2-43.8-1.9-2-4.8-3.1-6.5-5.5-7-9.5-10.9-33.7-16.9-45 16.2-57.7 47.1-109 71.8-163.1 9.4-65.7 14-132.5 25.2-197.8l96.3-119.7 130.6-105.4L1705.6 178l16.7 8.8h.1Z" class="fill" data-original-prefix="fill"/><path id="shading-ear-rt" fill="#aaaaaa" d="M1670 478.5c0 .2-1.5 2-2 1-4.6-2.8-23.5-18.9-27.3-18.4-2.3.3-10.5 6.3-13.1 8-11.6 7.9-21.9 17.5-33.1 25.9-1.7 3.7-1.7 7.1-.4 10.8 6.7 1.4 18.8-4.7 17.7 6.4l-23.3 40.7c-2.5.4-1.5-1.8-1.2-3.2.8-4.7 8.2-23.6 7.7-26.2-.2-.8-1.2-1.4-2.2-1.4-3.3.2-8.7 4-12.6 3.9-.8.9 1.8 12 1.7 14.4-.2 7.7-7.3 19-10.3 26.5-3.3 8.5-8.4 19.1-6.5 28 1.4.2 2.7 0 4-.5 12-4.1 33.5-43.7 40.1-55.9 4.8-8.9 14.3-32.5 19.3-38.7.4-.5 1.2-1.4 1.5-1-12.8 55.3-34.4 111.3-63.2 160.3-7.3 12.4-22.6 38.5-31.8 48.2-6 6.3-23.1 17-31.1 21.9-27.2 17-57.6 30.4-89.9 33.6l14.9 35.4c2.5 3.2 21.7-5.9 25.5-7.5 28.7-12.7 69.6-35.6 94.6-54.4 5.6-4.2 8.5-11 6.6 2.6-10.7 7.5-19.9 16.9-30 25-10.6 8.5-24.1 19.3-35.1 26.9-19.5 13.4-44.2 22.7-64.3 35.7-2.6.7-6.3 1.4-8-1.1l-9.1-33.9-67.5 68.5c-1.5 3.5 7.6 16 5 21l-27.4 24.7c5 16.7 14.5 32 18.9 48.8l-1.1 2-44.3 28.7c-1.3.7-2.7 1.6-4.3 1.8-4.9.6-23-6.1-28.3-8.5-21.2-9.4-42.2-23.3-60.1-38-3.1-2.5-20-18.6-20-21s2.2-2.6 2.8-4.2c1.1-3.1 1.1-7.1 2.5-10.5 4.2-10.5 32.7-39 41.8-50.2 58.9-72.9 101.1-158.1 128.3-247.7 4.3-14 8.8-40.2 14.2-51.8 3-6.3 11.4-12.3 14.7-18.8 22.1.5 44.5 6.1 65.8 11.8.9 1.2-5.4 14.4-5.9 17.5-1.3 9.1.4 20.2.9 29.4l19-47c4.9 3.9 5 10.1 12.5 11 8.4 1 31.8-3.8 40.3-6.7 2.5-.8 6.8-1.9 4.7-5.3-17.2-2.1-36.8 9.9-52.5 1.3-.2-.9-.2-11 0-11.7.3-1.1 2.7-.2 3.9-2.2 4.3-7.1 4.3-42.4 5.2-52.9.8-9.6 2.2-19.4 3-29 .8-10.5-2.6-12.2 5-21 8.7-10.2 35.9-34.5 47.3-40.6 3.1-1.7 7.8-.6 6.7-4.8-3.6-.6-5.7.5-8.7 1.8-16.1 7.3-32.9 26.4-48 34-1.6.8-3.6 1.9-5.4.7-.6-.4-4.6-12.8-4.8-14.3-.5-3.8 5.9-11.6 8-15.5 2.2-4.1 11.5-21.6 10.7-25s-25.6-16.5-30.4-21.7c-1.9-2-10.4-14.8-11.1-17-.7-2.4-.4-4 1.1-6l40.4-26.6c22.6.2 42.9-1.7 64-10 10.6-4.2 30.2-16.4 39.8-18.2 11-2.1 25.7 6.5 35.6 10.5 15.2-9.6 31.4-23.8 47.6-31.3 3.1-1.4 4-2.6 6.5.6 3.2 4 0 3.9-1.2 6.7-3.4 7.9-5.5 16.3-8.8 24.2-12.1 29.2-28.7 57.7-38 88-2.3 7.4-3.4 17.4-6 24-4.6 11.8-18.9 25-23.5 36.5-1.6 4.1-6.1 25-6 29 0 .7-.3 1.6.5 1.5 22.9-20 44.9-41.2 69.1-60 3.1-2.4 6.8-5.6 10.5-7v18.5c0 2.6-32.8 27.9-37 32 10.4.7 16.9 7.4 23.1 14.9.5.6 1.9.5 1.9.6 0 5.1 1 17.5 0 21.5ZM1606 296c-2.4-.2-4.7 0-7.1.4-16.5 2.9-37.6 9.5-53.7 14.3-5 1.5-10.2 2.2-15.2 3.8-11.7 23.6-23.4 47.3-34 71.5l20.3-12.2c27.3-9.4 38.9-37.6 60.2-55.9 8.3-7.1 18.8-12.8 27.6-19.4 1.1-.8 2.5 0 1.9-2.6Zm-86 17-46 3.5c-1.7 1.4-8.4 4.7-8.8 6.2s2.6 12.1 3.7 14c2.2 4 14 11.6 18.5 14.5 2.2 1.4 9.4 6.9 11.6 5.6l21.1-43.9Zm-138.5 421v1c.7-.3.7-.7 0-1m-.5 2c-1.4-1.8-4.5 5-4.7 5.8-5.5 16.6-6.8 40.6-14.1 55.9-7.6 15.9-25.4 34.3-35 50-.6 1-1.9 3.1-1.7 4.3 13.1-10.1 27.2-19.4 38.9-31 2.6-18.2 9.1-35.8 12.3-53.7 1.8-10.3 1.9-21 4.3-31.2Zm2 67c3.7-2.6 12.4-12.4 13-16.6.5-3.8-4.9-11.6-6.5-15.4zm-48.1 77.9c.5-.8-7-16.5-9.4-15.9-9.2 11.1-19.3 21.5-28.5 32.5-5.4 6.5-22 25-22.9 32.1-.5 3.6.2 7.3 0 10.9-.8 8.8-1.8 17.7-3 26.5l39.5-35c1-6.2-8.3-23.1-6-27.9L1335 881Z" class="outline shading" data-original-prefix="shading" opacity="0.5" style="opacity: 0.5"/><path id="outline-ear-rt" fill="#000000" d="M1204 941c-.6 2-3.1 0-4-.5-6-3.3-16.4-8.4-21-13-11.6-11.9-20.6-32.5-31.5-45.5-1-2.9-.7-7.3-.5-10.5 1-20.3 12.5-34.3 20.8-52.2 6.3-13.5 12.6-35.7 19.9-47 3.2-4.9 8.4-9.8 12-15 29.7-42.8 37.8-119.3 42.2-170.8 1.8-21.4.9-43.9 3-65 .7-7 2.4-6.2 5.4-10.6 32.8-49.1 70.5-98.1 110.1-141.9 13.9-15.4 33.5-38.4 49.2-50.8 52.6-41.5 136.1-85.3 198.3-110.6 29.7-12.1 85.4-35.4 115.8-38.3 8.5-.8 7.8 2.7 9.5 9.9 3.6 14.9 2.9 30.5 2.7 45.3-.4 32-1.4 78.8-8.3 109.7-3.7 16.4-15.8 23.2-22.2 37.8-10.4 23.8-20.5 86.5-15.4 111.4 3 14.6 5.8 10.4 2.4 27.6-12.4 64-44 134.2-79.1 188.9-30.9 48.2-70.1 80.8-118.5 110.5-28.7 17.6-59.7 34.8-91.9 44.6.3-14.2-.5-28.4 0-42.5 0-3 3.2-9.9-1-11-14.8 16.6-30.3 32.5-43.8 50.2-.6 2.2 2 8.2 2.8 10.8 1.5 4.5 9.2 20.3 7.6 23.5-1 2-28.2 11.4-31.4 16.7 6 20.3 14.5 39.6 22.7 59.1.5 4.8-7.5 12.2-11.2 14.3-2.2 1.2-4.5.9-6.9 2.1-5.5 2.6-9.7 9.7-15.6 12.4-22.6 10.3-50.5-2.5-71.7-12.3-4-1.9-11.3-4.7-12.3-9.2 2.4 1.1 5.6.7 8 1.5 26.9 9.2 36.4 9.3 61.7-4.3 3.1-1.7 18.6-11.5 19.2-13.9-5.6-15.9-10.9-32.1-19.7-46.6.2-2.7 11.1-11.8 13.8-14.2 2.5-2.2 16.3-11.8 16.9-12.7.6-1.1-1.1-6-1.7-7.5-1.8-4.9-9.1-13.1-7.8-17.3l32-33c2.3-18.2 9.3-35.8 12.3-53.7.9-5.2.5-11.6 1.4-16.6 6.7-39.1 32.5-73.7 53.7-106.4-3.1-10.5-18.5-34.2-29.3-19.2-7.7 10.7-16.6 48.7-17.6 62.4-.4 5 1.2 17.3-.9 20.8-.9 1.6-11.5 10.3-14.1 13.2-25 27.8-50.2 64.5-69.2 96.8-17.2 29.4-56.3 96-51.7 129.1.7 4.7 4.3 9.8 4.9 14.6-2.1 2.1-27.1-18.8-28.5-22-1.7-3.9.9-16.6 1.5-21.5.3-2.9-.4-6 0-8.9.7-4.5 15.4-22.3 19.2-27.8 39.8-58.6 57.4-124.9 103.3-180.7 11.8-14.4 20-26.2 25.8-44.2 5.6-17.5 15.4-63 12.5-80-.7-3.9-10.8-27.6-9.8-28.7l52 28c16.2-44.2 27.9-91.8 22.2-139.2 9.1-12.4 18-25 25.6-38.5 2.5-4.5 12.1-21.1 12.3-24.8s-4.6-8.1-7.6-10.5c-12.1-9.7-30.2-11.4-31.5-31-.7-.6-12.7 8.1-14.3 9.2-44 31.1-77.8 64.6-111.7 106.3-15.7 19.3-36.9 44.4-50.5 64.5-6.4 9.5-10.1 25.9-11.6 37.4-6.4 50-5.5 104.8-13.1 153.9-2.9 18.9-27.5 67.5-37 87-6.6 13.4-16.1 27.1-22.1 40-6.3 13.7-9 29.6-15.7 43.3-3.2 23.1 13.4 51.4 28.9 67.4v-.3Zm515-753c-30.2 9.5-58.8 22.3-87 36.4-25.9 13-53.6 27.8-78.6 42.4-19.8 11.5-38.5 24.8-58.3 36.2.7 1.8 5.9 1.1 7.5 1 23.2-1.4 56-9.1 77.1-18.9 4.3-2 15.9-9.7 18.9-10.1 11.8-1.7 21.1 15.3 28.8 13.8 1.7-.3 13.6-13.8 16.7-16.2 5.7-4.3 12.8-6.4 18.8-10.2 11-6.8 19-19 32.1-22.4l-22.5 39c-13.1 10-28 17.6-39.9 29.2-3 30.4 1.3 60.6 1.1 91-8 15.5-28.8 23.4-34.1 40.9-1.1 3.5-5.8 33.5-4.7 34.8 3.9-1.3 7.9-4.8 11-7.5 13.4-11.6 26.8-26.6 40-39 8.7-8.2 19.9-16.4 28.1-25 4.6-4.9 12.1-40.9 15.9-51.1 6.8-18.1 16.8-28.7 20.7-48.3 2.5-12.5 4.6-27.1 6.2-39.9 3.1-25.3 4.5-50.9 2.1-76.4v.3Zm-103 112c-5.5-.8-9.5-5.3-15.4-3.9-15.4 6.5-35.4 7-50.6 12.4s-41.3 48-47.9 63.1c-4 9.2-6.3 19.6-12.1 28.4 13.1-4.6 33.8-26 47.5-25 2.4.2 8.9 3.3 9.4 3 .7-.5 7.1-11.6 8.7-13.8 17.6-23.9 39.4-43.3 60.4-64.1Zm-96 13-46.6 3.9c-1.8.5-12.4 7-13 8.1-1.7 3.4 4.2 15.1 7 18 2.4 2.5 15.6 12.7 18.6 14.4 14.4 8.2 19.7-14.4 24.1-23.8 1.2-2.6 10.7-19.8 9.8-20.6Zm57 208c-2.3-22.7-1-46.6 3.5-69 1.9-9.6 5.7-27.6 10.3-35.7 6.1-10.7 27-21.4 29-32l-.8-63.3c-37 35.4-65 84.7-72.7 135.8-3.9 26-5.3 57.6 10.6 79.9v1.6c-21.4 26.5-33.1 58.8-41.6 91.5-2.1 7.9-9.6 50.2-12.3 52.7-19.4 17.7-41.7 34.1-65.3 46.7-2.2 1.2-14.6 7.8-15.7 6.8 3.2-7 7-13.5 9.7-20.8 6.7-17.3 8.5-31.1 7.3-49.8l-2-7.5c-5.5 12.1-11.2 24.3-17.5 36-5 9.3-22.1 34.4-24.1 42-2.9 11.3 9 27.8 13.7 38.3 6.8 15.3 12.3 30.7 12.8 47.7l83.9-48.6c76.6-56 124.6-136.5 149.8-227.2 6.8-24.3 13.8-49 12.3-74.5-7.5-3.4-20-16.1-28.3-14.5-3 .6-13 7.8-16.1 10-7.2 5.2-13.7 12.3-21 17-6 3.9-14.2 4.4-12.7 13.2 1.6 10 26.2 2 25.9 15.1-.2 7.4-23.2 33-26.9 41.5-1.9.2-.6-1.9-.3-2.8 2.2-6.7 14.8-29.3 13.2-34.6-2-6.5-20.6 4.2-24.9 4.4h.2Zm-37-135c-6.7-.9-12.1 3.8-17.3 7.2-8.9 5.7-34.4 22.6-40.6 29.4-3 3.2-12.7 33.4-13.8 39.2-3.7 19-2.9 40.5-7.4 59.7 0 4.8 11.4 18.6 16.1 20 4.2 1.2 19.5.8 24.5.5 2.6-.2 19.6-2.9 20.4-4.1 1.3-18.4.6-37.9-2-56.2-1.1-7.9-7.4-29.9-6.7-35.9.7-4.9 11.1-27.1 13.9-33.1 3.3-7 10-16.4 12.3-22.7.5-1.4.8-2.5.6-3.9Zm133 33-23 17.5c-2.2 2.8-6.4 4.6-6 8.5 9.5 1.2 16.7 8.1 25 12 .4-12.8 1.6-25.4 4-38m-151 128c-1.8-1.8-39.9 5.1-47.4 3.9-7-1.1-12.1-8.2-16.6-12.9-2 16.5-4.7 32.9-7.2 49.3-1.1 7.1-4.9 20.1-4.8 26.2 0 4.7 5.9 28.9 7.7 34.3 3.6 11.1 10.4 13.8 20.6 8 20.7-11.7 39.9-68.2 45-91 1.3-5.9 2-11.8 2.7-17.8m-133 209c-1.1 0-2-.2-3 .5-1.8 1.2-4.5 24.4-5.3 28.7-1.5 8.3-3.3 16.7-5.7 24.8 2.4 1.8 11.8-9.8 13.5-12 2.5-3.2 7.6-10 8.3-13.8 1.2-6.4-7.6-20.8-7.8-28.2" class="outline" data-original-prefix="outline"/>
    </g><g class="trait-group" data-category="left ear" id="left ear-KBDS tattoo">
      <path id="fill-ear-lft" fill="#ffffff" d="M326.7 182.1q1.65-.45 3.3.3l180.7 78.4c55.2 39.7 111.9 77.8 165.3 119.7l109 135.9c10.5 65.4 16 132 25.2 197.8 24.6 50.1 52.6 98.7 77.3 148.7 1.5 3.1 5.4 9.5 5.5 12.5.2 4.7-8.5 15.9-11.2 20.8-15.1 27.1-18.8 33.2-43.9 52.1-22.9 17.2-44.3 28.5-72.5 35.5-8 2-18.1 5.7-25.3.5l-82.9-79.1c-9.9-22-17.5-45.3-28.1-66.9l-154-109c-23.7-34.4-41.7-73.1-64.9-108.1-9.8-43.7-27.6-90.2-34.9-134.1-5.9-35.7-6.9-73.6-12.5-109.5-9.3-20.9-22.7-40-30.5-61.5-1-40.6-6.8-81.2-8.3-121.7-.1-3.4-1.1-11.4 2.8-12.4Z" class="fill" data-original-prefix="fill"/><path id="shading-ear-lft" fill="#aaaaaa" d="M664 558v21.5c0 22.8 19.2 43.4 30.4 61.6 38.9 63.4 63.1 129 108.2 189.8 16.2 21.8 35 41.1 51.9 62.1 4.8 5.9 9.3 10.3 9.5 18.5.2 6.2-2 12.6-1.1 19l-.9 2.1-60.1 40.9c-13.7.2-28.1 9.9-40.7 12.4-1.5.3-2.8.5-4.2-.3l-76.6-51.4-69.8-109.7c-33.8-23.4-81.3-39.6-107.2-72.3-4.2-5.3-6.4-12.2-10.5-17.5.3-1.1 2.2-.4 3 0 7.1 2.9 21.5 16.6 29.2 21.8 23.5 15.5 51.4 30.4 77.3 41.7 17.3 7.5 35 10.9 52.9 16.1 7 15.4 12.9 31.5 20.2 46.8 8 16.6 27 35.1 40.2 48.8 19 20 39 39.1 59.5 57.5 1.5.2 1.8 0 1.4-1.4-1.9-7.7-7.7-31.2-11.1-36.9-4.7-7.9-16.1-19.2-22.2-27.8-25.1-34.9-42.3-72.5-64.4-108.6-7.4-12-9.8-16-22.8-22.2-38.1-18-78.4-19.1-114.3-41.7-26.9-17-34.3-26.3-51.1-52.9-25.7-40.5-46.4-86-61.2-131.8-4.2-12.9-10.9-32.4-12.7-45.3 0-.6-.3-1.6.5-1.5 14 25.4 25.6 52.8 42.1 76.9 5.6 8.2 12.9 19.9 23.4 21.1-.5-2.4 1.1-5.1.8-7.3-1.4-11-12.7-28.8-16.3-39.8-3.8-11.7 2.7-30.6 3.5-43.5 3.6-59-24.7-121.5-55.6-170.4-12.4-19.7-28.5-37.1-37.4-59.1h16.5c8.6 0 8.7 2.4 14.2 5.8 15.3 9.7 32.5 17.5 48 27 30.2 18.6 67.2 68.2 84.5 99.5 2.9 5.2 12 22.4 12.8 27.2.9 5.4-.9 10.1-1 14.9-.8 41.5 1.8 83.9 11.9 124.2 3.2 12.9 5.4 24.4 15.1 33.9 1.4 1.4 2.9 3.8 4.5 1.5l24.5-44.5 55-6.5Z" class="outline shading" data-original-prefix="shading" opacity="0.5" style="opacity: 0.5"/><path id="outline-ear-lft1" fill="#000000" d="M846 941c15.6-16.5 32.2-43.8 28.9-67.4-.7-5.3-12.9-37-15.7-43.3-4.9-10.8-13.5-22.9-19.1-33.9-13.3-26.2-23.6-54-36.6-80.4-11.5-63.5-8.3-129.6-22.2-192.8-17.8-27.6-39.3-55.2-60.3-80.7-38.8-47.2-78.4-82.8-129.5-116.5-44.3-29.2-93.1-59.2-139.9-84.1-38.9-20.7-78.7-40.3-120.7-53.8-2.4 25.4-1 51.1 2.1 76.4 1.6 12.7 3.6 27.3 6.1 39.9 4 19.6 14 30.2 20.7 48.3 12.6 33.6 20.1 76.2 22 112 1 17.6-.2 29.6 3.5 47.6C403.7 602 448.2 693 517.8 753.8c34 29.7 77.1 43.1 110.3 69.7 7.8 6.3 4 4.9 5.1 11.8 1.6 9.9 18.8 46.7 24.6 56.2 15.7 25.7 53.2 60.5 79.7 75.5 24 13.7 44.9 12.6 70.3 2.2-1 4.2-9.1 7.7-13 9.5-10.8 5-38.1 16.1-49 17.1-3 .3-21.2-3.2-23.6-4.5-4.8-2.8-25.5-24.8-31.5-30.5-6.5-6.3-12.2-13.3-19.5-19.5-10.3-8.7-24.4-15.4-30-28-10.2-23.4-16-42.1-31.1-63.9-13.3-19.2-23.3-19.4-42.1-29.9-54.1-30.4-101.8-71.4-134.8-124.2-34.3-55.1-65.6-124.7-77.1-188.9-2.5-13.8 1.9-13.4 4.1-25 4.4-23.5-6.2-86.5-16-109-4.4-10.1-16.6-21.1-20-29s-5.6-30.1-6.5-39.5c-3.2-33.3-7.5-84.6-2.9-116.9.4-2.5 3.3-15.8 4.5-16.7 3-2.2 17.1 1.6 21.4 2.6 42 9.3 96.2 32.3 135.7 50.3 50.6 23.2 121.1 61.1 164.2 95.8 15.1 12.1 34.1 34.5 47.6 49.4 42 46.4 79.2 96.7 114.9 148.1 8.9 76.3 3.1 178.6 48.8 244.2 2.9 4.1 7.4 7.9 10 12 7.1 11.1 12.9 32 19 45 8.4 18.2 20.9 33.8 21.8 54.2.1 3 .5 7.8-.5 10.5-17.1 21.9-26.4 52.1-56.5 59Z" class="outline" data-original-prefix="outline"/><path id="outline-ear-lft2" fill="#000000" d="M672 548c1 1.1-9.1 24.9-9.8 28.7-3.4 19.9 9.7 77.8 18.9 96.6 8.1 16.7 18.9 24.3 29.3 37.7 6 7.7 12.2 19.9 17.4 28.6 28.7 47.7 46.4 98.9 78 145 4 5.8 13.4 15.9 15.8 21.2 1.5 3.3 3.4 23.6 3.5 28.6.2 6.5-4.7 9.9-9.1 14-2.2 2-18.3 15.2-20 13.5.6-4.8 4.2-9.9 4.9-14.6 3.5-25.1-14.9-60.6-26.4-82.4-4.9 13.5-9.7 27.4-13.8 41.2-1.8 6.3-7.7 23-7.7 28.4s7.6 4.8 7 10.3c-15.2-4.4-28.5-12.5-41.5-21-2.2-2.1 0-8 .8-11.2 4.1-17.3 11.7-34.5 14.7-52.3-.2-2.6-21.2-17.3-24.5-20.5 1 13.8 3.6 27.7 4.5 41.5.3 4.3-.2 8.7 0 13 .2 4.5 4.1 23.3-5 21-2.3-.6-20.4-11.5-22.5-13.5-4.2-3.9-8.2-11.2-12.4-15.6-2.5-2.5-13.6-10.6-14.1-12.9-.3-1.6-.3-5 .5-6.5 9.7 5.3 18.8 11.2 27.5 18-.7-19-1.6-39.6-5.3-58.2-.4-1.9-.8-5.8-1.6-7.1-1-1.6-5.1-1-4.1-3.2s12.4-6.1 15.3-5.3l38.7 28.3-39-100.5c-2.6-.3-1.6 0-2 1.5-4.1 17.4-8.7 36.8-11.7 54.3-2.2 12.7-4 25.3-3.3 38.2-8.7-4.1-17.9-7.7-26.3-12.1-2.7-1.4-18.9-10.1-19.7-11.3-1.8-2.5-.1-5.4-1.8-8.2-1.1-1.7-10.3-6.9-13.6-10.4-24.8-26.3-42.5-56.6-72.5-79.5-1.9-1.4-9.4-3.2-6.3-6.6 4.4-5 15.9-9.9 21.4-14.4-2.3-1.5-3.7-4.5-5.3-6.2-.9-1-3-.9-4.2-2.3-2.5-2.8-8.3-37.9-10-45-1.9-8.1-4.5-16-6.5-24l-18.1 62.5c0 2.9 13.6 7.3 16.1 10 .9.9 1.6 2.5 1 3.5-.5.7-13.8 6.2-15.4 6-1.5 0-23.1-12.3-25.9-14.2-13.3-8.9-12.4-19.7-18.8-33.2-4.7-9.9-10.1-18.5-19-25-2.6-2-15-8.5-15.7-9.8-1.3-2.2 5.5-27.8 6.5-32.6 6.1-29.7 11.1-59.4 13.4-89.7.4-4.9-1.7-12 1.1-16.8 1.6-2.8 42.3-16.6 47.8-21.3-3.5-18.9-8.8-37.1-17-54.4-1.6-1.2-24.6 26.6-26.4 29.1-2.8 3.9-6.6 9.1-6.6 13.9-14.4-3-21.6-16.8-31-26.5-1-1-1.3-1.9-3-1.5l1 83.5c.2.8 11.7 11.3 12.6 11.5 2.6.6 4-6.3 4.9-8 6.9 7.4 6.4 11.1 5.5 20.5-.5 4.8-3.1 23.4-5.5 26.5-2.5 3.2-5.5-1.9-7.6-3.4-13-9.3-26.4-18.2-39.4-27.6-3.6-5.5-2.7-18.8-2.6-25.5.5-27.5 1.3-54.3-1-82-.7-8.5-1.5-23-3.2-30.8-.4-2-5.7-7.9-4.8-8.7 3.8 1.1 9.7.3 13 1.5s22.1 18.3 26 22c3.1 2.9 7 10.5 11.4 9.6l24.3-37.6c0-2.1-17-24.8-19.7-28-2-2.3-12.7-13.8-14.5-14.5-2-.9-2.4 3.5-2.5 4.5-.7 7.8-2.9 28.6-2 35.1.4 3.2 9.1 15.4 8 16.4-1.7.3-2.6-.8-3.9-1.6-9.2-5.6-23.4-19.3-30.1-27.9-1.5-1.9-4.3-5.4-3.9-7.7.3-1.4 7.7-12.2 9.3-15.8 2-4.5 9.4-24.6 8.6-28.3l-26-18.2-22-38.5c3.2-2.9 26 18.3 29.7 20.8 6.7 4.5 14.8 6.9 21.2 11.8 10.2 7.8 21.9 22.1 31.6 31.4 33.1 32 56.9 54.1 79 95.9 3.8 7.1 20.1 40.7 20.3 46.5.3 8.1-5.4 26-6.7 35.2-7.5 53.5-.4 104.9 26.7 152 5.6 9.8 22.5 33.9 35.2 21.9 5.1-4.9 9.1-31 11.5-39.5 1.8-6.4 9-30.9 12-35 2.3-3.1 13.2-9.4 17.2-11.8 12.5-7.8 25.9-15 39.3-21.2ZM448 424c7.3-13.8 19.7-25.6 30.5-37 1.6-3.1-1.2-5.8-3-8-3.3-.8-29.7 32.1-33 37.1-1.8 2 4.2 8.9 5.5 7.9m-37 68c-.5-29.8-1.4-59.6-1-89.5-3-5.5-7.6-10-12-14.5 4.1 32.6 5.7 65.4 5 98.3zm95-14c-10.4 1.8-20.4 6.6-29 12.7 0 29.3-2 58.6-6.1 87.7-1.6 11.1-4 22.1-5.9 33.2.1 2.8 7.5 8 10.1 11 .9 1 5.4 8 6 7.5 9.7-25.4 12.4-52.4 19-78.6 1.7-6-6.7-9.4-6-14.8.2-1.8 5.7-10.4 7-14.1 1.5-4 5-16.3 5-20v-24.5Zm9 93c-.5-.5-2.5-.2-2.1 1.4-4.8 25.6-9.3 51.4-19.7 75.4-.4 4.1 7.2 11.5 7.8 16.2 1.5-.1 1.5-1.5 1.9-2.5 8.1-20.9 11.3-47.5 19-69.1.4-2.8-6-20.4-7-21.4Zm136 123 7.7-39.4c-5.2-18.4-13.7-53.2-34.5-22.9-3.8 5.5-10.2 15.2-6.6 21.3 7.5 12.8 22.6 26.3 30.5 39.5l3 1.5Zm-18 90c4.9-18.2 8.8-36.7 11.7-55.4-10.5-17-21-34.2-33.7-49.6-1 13.6 3.3 27.5 8.5 40 2.5 5.8 6 11.2 8.5 17-17.8-6.2-33.6-18-49.7-27.9-2.3-.2-7.5 8.7-8.2 11.2 20.2 22.3 39.2 45.8 62.8 64.6Zm16.2 30.9c4.4.8 9.3 5.4 12.9 6.7 3.2 1.2 1.8-11.6 2-14 2.8-27.6 12.7-55.6 17-83.1-.1-4.1-8-9-10.5-12.4l-21.3 102.8ZM751 822c1.1-1.5-16.4-28.7-18.8-31.7-1-1.2-1.1-2.7-3.2-2.3l15 36zm-8 108c4.6-26.5 14.7-52.1 22.8-77.8.7-3 .1-6.2-2.3-8.2l-24.3 82.8c-.6 2.8 1.4 3.6 3.8 3.2" class="outline" data-original-prefix="outline"/>
    </g><g class="trait-group" data-category="head" id="head-rocker-hat">
      <path id="fill-head" fill="#ffffff" d="M1479 1181c-1.4 1.6 9 18 10.5 21 3.6 7 12.4 22.2 14 29 .7 3 .5 6 .5 9-2.7 0-5.4.5-8-.5-4.8-1.9-21.6-15.1-26.9-19.1-7.9-5.9-23.4-21.4-31.2-24.8-1.3-.6-2.5-.7-3.9-.5 8.3 32.3 19.6 64.1 31 95.5 21.7 60.1 41 115.2 78.2 167.8 5.9 8.3 16.7 17 15.8 27.7-8.5.9-16.7-3.7-24.4-7.1-9.6-4.3-19.7-11.1-28.9-15.1-1.2-.5-2.3-1.1-3.7-.8 8.1 21.2 19.5 39.8 22.9 62.6 3 20.1 2.8 40.7 4.1 60.9 2.7 39.8 5.6 79.6 6 119.5l-7.1-.6c-10.9-25.4-21.8-50.9-34-75.7-11.6-23.7-23.7-48.3-39.9-69.1l-21-23.5 5 54.4c1.7 44.5-1.8 66.9-18.6 107.5-16.6 40-38.3 82.9-58.9 121.1-1.4 2.5-9.6 17.9-10.5 18.5-1.8 1.1-4.9.3-7 .5-.6-17.2 1.2-34.3 1.1-51.6-.3-45.6-3.2-92.7-12.5-137.5l-3.5-11c-3 27.8-7.2 55.7-13.5 83-6.6 28.7-12 43.5-30.1 66.9-13.3 17.2-36.3 42.3-52.9 56.1-3.1 2.6-21.7 15.8-24.4 16.6-2.3.7-4.7.5-7.1.5-1.8-1.8 5.1-37.9 5.9-43.7 4-30.8 8.8-86.1-4.7-114-1.6-3.4-4.5-7.2-6.7-10.3-3.6 20.9-5.7 37.6-17.1 55.9-23.8 38.1-64.8 67.2-99.8 94.2l-7.6.9c-.2-16.6 3-33-3.6-48.9l-42.9-46.1-42.3 46.7c-6 15.8-3.1 31.8-3.2 48.3h-3.5c-4.4-.2-17-10.3-21.4-13.6-28.8-21.5-78-63.5-90.8-97.2-4.8-12.7-5.9-27-8.2-40.3-2.6 2.3-5.3 6.6-6.8 9.7-13.9 27.9-9 83.7-5 114.7.7 5.7 7.7 41.9 5.9 43.7-3.2.3-5.4 0-8.3-1.2-20.7-8.8-61.6-53.3-76-71.9-18.1-23.3-23.5-38.2-30.1-66.9-6.3-27.3-10.5-55.2-13.5-83l-3.5 11c-9.3 44.7-12.2 91.8-12.5 137.5 0 17.2 1.6 34.3 1 51.6-2.5-.2-5.5.8-7.5-1-19.2-36.6-39.1-73.1-56.3-110.7-12.5-27.3-29.4-62.8-31.2-92.8-1.9-32.1 1.9-65.7 5-97.5l-21 23.5c-16.2 20.8-28.3 45.4-39.9 69.1-12.2 24.8-23.2 50.3-34 75.7l-7.1.6 2-67.5c4.5-37 2.6-76.2 8.1-112.9 3.4-22.8 14.8-41.4 22.9-62.6-1.4-.3-2.5.2-3.7.8-9.3 4-19.3 10.8-28.9 15.1-7.7 3.4-15.8 8-24.4 7.1 0-2.1-.3-4.2.2-6.3 1-4.2 27.3-37.9 32.2-45.8 28.4-45.5 48.6-106.4 66.6-157.4 9.5-26.8 19.1-53.9 26-81.5-2.2-.4-3.4.4-5.2 1.3-9.1 4.9-20.6 17-29.4 23.6-4.8 3.6-25.9 19.2-30 20-1.7.3-3.7 0-5.5 0-.9-5.8.8-9.6 2.8-14.7 3.4-8.5 9.3-19 13.7-27.3 1.3-2.5 9.9-15.4 8.5-17-46-14.2-91.3-31.7-134.4-53.2-37.6-18.7-78.1-46.9-112-72-19.6-14.6-40.6-31.4-47-56-2.5-9.7.1-7.9 2.1-15.5s.4-12.5 7.7-19.3c26-24.1 118-17.8 153-17 57.1 1.4 112.8 4.5 170 1 7.6-.5 18.8-.7 26-2 2.5-.5 3.7-2.3 4.5-4.5 2.4-6.9 4.5-40.2 6.2-42.2 6.3-.6 11.4-4.5 16.8-6.7 4.7-1.8 13.5-1.7 15.7-7.3 18.1-80 40.5-159.4 69.9-236l40.3-28.9c6.6.8 12.9 2.9 19.5 3.6 24 2.5 52.3 2.1 77 3 115.7 4.6 228.4 3.6 344.1-3 4.3-.2 8.6.3 12.9 0s15-3.9 17.2-3.8c2.4 0 36.3 24.3 39.5 27.4 5.3 5.3 14.2 33 17.2 41.8 22.3 63.7 39.5 130.3 55 196 2.6 5.8 11.5 5.6 16.5 7.5 4.8 1.9 10.6 5.4 15.7 7.3 4.2 12.7 2.4 29.1 6.6 41.4.6 1.8 1.2 3 2.9 4 23.7 2.9 47.6 2.8 71.5 3.5 69.6 1.9 139.3-6.2 209-3 20.9 1 70.6 5.5 77 30 .7 2.6 0 5 .7 7.3 1.1 4.6 3.4 6.2 2.8 12.2-3.5 33.5-53.4 62.1-78.3 79.7-19.6 13.8-38.6 28.7-59.7 40.3-48.9 26.6-103.2 47.4-156.2 64.2Zm-733 45-3 .7c-18.6 25.8-37.7 51.7-53.1 79.7-6.8 12.4-18.1 33-20.6 46.4-3 16.2 3.2 50 6 67.5 2.1 13 6.3 25.7 6.7 38.8 7.3.6 4-.3 5.2-4.3 1.2-3.7 6.9-4.7 10.2-3.8 1.4.4 3.5 23.2 3.7 26.5.5 10.3-2.2 32 1.9 40.1.9 1.8 8.7 12 10.1 12.9 4.2 2.8 12.3 1.1 17.4 1.6 10.9 1.1 18.6 10.9 22.7 20.3 5.9 13.7 6.9 27.6 10.3 41.7 4.2 17.6 17.4 30 28 44l24 20.9c2.3-12.7.5-25.4 4-38 1.4-5 2.3-9.1 8.9-6.8 1.3.4 5.5 13.1 7.8 16.2 6.7 9.1 19.9 9.7 29.5 13.5 15.9 6.3 14.1 30.9 26.3 41.7 10.3 9.1 43.9 25.3 57.5 30.5 14.8 5.7 59.6 19.6 74.1 20 9.2.2 35.5-7.4 45.7-10.3 23.7-6.8 68.1-23.8 86.7-39.3 10.8-9 12.4-32.7 22.2-39.8 7.9-5.8 24.2-6.6 31.4-12.6 5.6-4.6 8.7-19.3 9.6-19.9.6-.4 7-.4 7.7 0 1.6 1 4.9 17.4 5.2 20.3.6 7-1.1 15.3 1 22 .3 1.1-.7 1.8 1.5 1.4 14.9-11.8 28.5-25 39.3-40.7 14.7-21.3 11-34.1 18.5-56.5 3.3-9.8 11.1-25.3 21.9-28.1 5.7-1.5 17.4.3 21.8-2.2.8-.4 10.2-12.7 10.5-13.5.8-2.4 1.4-13 1.6-16.4.7-14.5-1.2-32.7 2.2-46.8.9-3.8 4.4-3.6 8-2.5 5.4 1.6-.9 10.2 7.7 7.8.4-13.1 4.6-25.8 6.7-38.8 2.8-17.1 8.9-50.7 6.2-66.6-2.7-15.6-16.6-40.1-24.7-54.3-14.6-25.7-32.5-49.4-49.7-73.3-4.1-1.3-2.2 5.4-2.5 8.5-2.7 28.2-7 60.9-21.5 85.5-3.1 5.2-3.4 6.9-10.5 6-.2-28-.2-59.8-13.1-85.4-1.2-2.4-2.2-4.8-5.4-4.7-43.7 8-87.7 14.9-132 19.1-65.3 6.2-125.7 6.2-191 0-44.6-4.2-88.9-11.3-133-19-2.7.4-3.7 3.1-4.7 5.3-12.5 26.3-13.3 56-12.8 84.7-6.4.6-6.8.2-9.8-4.7-12.7-20.4-16.9-45.4-20.1-68.9-1.2-8.7-2.2-17.6-2.2-26.4" class="fill" data-original-prefix="fill"/><path id="fill-head1" fill="#ffffff" d="M1479 1181c-1.4 1.6 9 18 10.5 21 3.6 7 12.4 22.2 14 29 .7 3 .5 6 .5 9-2.7 0-5.4.5-8-.5-4.8-1.9-21.6-15.1-26.9-19.1-7.9-5.9-23.4-21.4-31.2-24.8-1.3-.6-2.5-.7-3.9-.5 8.3 32.3 19.6 64.1 31 95.5 21.7 60.1 41 115.2 78.2 167.8 5.9 8.3 16.7 17 15.8 27.7-8.5.9-16.7-3.7-24.4-7.1-9.6-4.3-19.7-11.1-28.9-15.1-1.2-.5-2.3-1.1-3.7-.8 8.1 21.2 19.5 39.8 22.9 62.6 3 20.1 2.8 40.7 4.1 60.9 2.7 39.8 5.6 79.6 6 119.5l-7.1-.6c-10.9-25.4-21.8-50.9-34-75.7-11.6-23.7-23.7-48.3-39.9-69.1l-21-23.5 5 54.4c1.7 44.5-1.8 66.9-18.6 107.5-16.6 40-38.3 82.9-58.9 121.1-1.4 2.5-9.6 17.9-10.5 18.5-1.8 1.1-4.9.3-7 .5-.6-17.2 1.2-34.3 1.1-51.6-.3-45.6-3.2-92.7-12.5-137.5l-3.5-11c-3 27.8-7.2 55.7-13.5 83-6.6 28.7-12 43.5-30.1 66.9-13.3 17.2-36.3 42.3-52.9 56.1-3.1 2.6-21.7 15.8-24.4 16.6-2.3.7-4.7.5-7.1.5-1.8-1.8 5.1-37.9 5.9-43.7 4-30.8 8.8-86.1-4.7-114-1.6-3.4-4.5-7.2-6.7-10.3-3.6 20.9-5.7 37.6-17.1 55.9-23.8 38.1-64.8 67.2-99.8 94.2l-7.6.9c-.2-16.6 3-33-3.6-48.9l-42.9-46.1-42.3 46.7c-6 15.8-3.1 31.8-3.2 48.3h-3.5c-4.4-.2-17-10.3-21.4-13.6-28.8-21.5-78-63.5-90.8-97.2-4.8-12.7-5.9-27-8.2-40.3-2.6 2.3-5.3 6.6-6.8 9.7-13.9 27.9-9 83.7-5 114.7.7 5.7 7.7 41.9 5.9 43.7-3.2.3-5.4 0-8.3-1.2-20.7-8.8-61.6-53.3-76-71.9-18.1-23.3-23.5-38.2-30.1-66.9-6.3-27.3-10.5-55.2-13.5-83l-3.5 11c-9.3 44.7-12.2 91.8-12.5 137.5 0 17.2 1.6 34.3 1 51.6-2.5-.2-5.5.8-7.5-1-19.2-36.6-39.1-73.1-56.3-110.7-12.5-27.3-29.4-62.8-31.2-92.8-1.9-32.1 1.9-65.7 5-97.5l-21 23.5c-16.2 20.8-28.3 45.4-39.9 69.1-12.2 24.8-23.2 50.3-34 75.7l-7.1.6 2-67.5c4.5-37 2.6-76.2 8.1-112.9 3.4-22.8 14.8-41.4 22.9-62.6-1.4-.3-2.5.2-3.7.8-9.3 4-19.3 10.8-28.9 15.1-7.7 3.4-15.8 8-24.4 7.1 0-2.1-.3-4.2.2-6.3 1-4.2 27.3-37.9 32.2-45.8 28.4-45.5 48.6-106.4 66.6-157.4 9.5-26.8 19.1-53.9 26-81.5-2.2-.4-3.4.4-5.2 1.3-9.1 4.9-20.6 17-29.4 23.6-4.8 3.6-25.9 19.2-30 20-1.7.3-3.7 0-5.5 0-.9-5.8.8-9.6 2.8-14.7 3.4-8.5 9.3-19 13.7-27.3 1.3-2.5 9.9-15.4 8.5-17-14.1-4.3-28.1-9-42.1-14 0 0 278.3 95.7 511.9 83.4 209.5-11 348.6-47.2 438.2-76.1l1.7 6.4zm-733 45-3 .7c-18.6 25.8-37.7 51.7-53.1 79.7-6.8 12.4-18.1 33-20.6 46.4-3 16.2 3.2 50 6 67.5 2.1 13 6.3 25.7 6.7 38.8 7.3.6 4-.3 5.2-4.3 1.2-3.7 6.9-4.7 10.2-3.8 1.4.4 3.5 23.2 3.7 26.5.5 10.3-2.2 32 1.9 40.1.9 1.8 8.7 12 10.1 12.9 4.2 2.8 12.3 1.1 17.4 1.6 10.9 1.1 18.6 10.9 22.7 20.3 5.9 13.7 6.9 27.6 10.3 41.7 4.2 17.6 17.4 30 28 44l24 20.9c2.3-12.7.5-25.4 4-38 1.4-5 2.3-9.1 8.9-6.8 1.3.4 5.5 13.1 7.8 16.2 6.7 9.1 19.9 9.7 29.5 13.5 15.9 6.3 14.1 30.9 26.3 41.7 10.3 9.1 43.9 25.3 57.5 30.5 14.8 5.7 59.6 19.6 74.1 20 9.2.2 35.5-7.4 45.7-10.3 23.7-6.8 68.1-23.8 86.7-39.3 10.8-9 12.4-32.7 22.2-39.8 7.9-5.8 24.2-6.6 31.4-12.6 5.6-4.6 8.7-19.3 9.6-19.9.6-.4 7-.4 7.7 0 1.6 1 4.9 17.4 5.2 20.3.6 7-1.1 15.3 1 22 .3 1.1-.7 1.8 1.5 1.4 14.9-11.8 28.5-25 39.3-40.7 14.7-21.3 11-34.1 18.5-56.5 3.3-9.8 11.1-25.3 21.9-28.1 5.7-1.5 17.4.3 21.8-2.2.8-.4 10.2-12.7 10.5-13.5.8-2.4 1.4-13 1.6-16.4.7-14.5-1.2-32.7 2.2-46.8.9-3.8 4.4-3.6 8-2.5 5.4 1.6-.9 10.2 7.7 7.8.4-13.1 4.6-25.8 6.7-38.8 2.8-17.1 8.9-50.7 6.2-66.6-2.7-15.6-16.6-40.1-24.7-54.3-14.6-25.7-32.5-49.4-49.7-73.3-4.1-1.3-2.2 5.4-2.5 8.5-2.7 28.2-7 60.9-21.5 85.5-3.1 5.2-3.4 6.9-10.5 6-.2-28-.2-59.8-13.1-85.4-1.2-2.4-2.2-4.8-5.4-4.7-43.7 8-87.7 14.9-132 19.1-65.3 6.2-125.7 6.2-191 0-44.6-4.2-88.9-11.3-133-19-2.7.4-3.7 3.1-4.7 5.3-12.5 26.3-13.3 56-12.8 84.7-6.4.6-6.8.2-9.8-4.7-12.7-20.4-16.9-45.4-20.1-68.9-1.2-8.7-2.2-17.6-2.2-26.4" class="fill" data-original-prefix="fill"/><path id="fill-head2" fill="#ffffff" d="M669.8 911.2c.4.3.8 2 1.7 2.8 195.8 157.6 494.8 165.6 694 9 2.7-2.2 12.2-11.6 14.1-11.9 2.6-.5 10-.8 11.3 1.7 1 2 3 15.8 3.2 18.8.5 7.3 1 23.1 0 30-.8 5.6-16.6 19.2-21.6 23.4-174 150.2-512.5 150.2-690 6-5.2-4.2-26.4-22.2-28-27-1.4-4.1-1.7-14.8-1.6-19.5 0-7.2 1.6-23.7 3.7-30.3.4-1.2.6-2.6 2-3 1.1-.5 10.3-.5 11.1 0Z" class="fill" data-original-prefix="fill"/><g id="shading-head" class="shading" fill="#aaaaaa" style="opacity: 0.5" opacity="0.5"><path id="shading-head2" fill="#aaaaaa" d="M637 1445.5c1.1-8.1 8.5-17.7 11-25.5 4 0 4.1 4.9 5.8 7.7 4.8 7.8 9.9 12.1 18.2 16.3-5.9-22.3-18.5-43.1-12.2-66.8 7.6-28.7 40.8-82.9 57.1-109.9 1.7-2.8 4.9-9.1 7.1-10.9 3.4-2.8 8.8-3.8 6.3 2.3-15 32.1-41.3 65.1-52.7 98.3-2.7 7.8-.5 13.2-1.6 20.4-.5 3.1-2.6 6.1-2.9 10.1-.8 8.9 2.8 14.3 3.9 22.1 1.5 10.3 1.2 29.7 5.3 38.7 3.6 7.9 14.6-4.1 17.5 4.5 2 5.8 1.7 18.7 2.4 25.6 1.1 11.2 2.1 22.7 4 33 1.6 8.5 1.4 14.3 10.5 18.5 11.2 5.2 18.5.9 27.8 13.2 18.3 24.2 16.6 60.8 40.1 86.9 9.4 10.5 18.4 14.6 28.5 22.5.9.7 1.5 2.4 2.5.5 3.2-5.8-2.6-9.3-2.6-12.5 0-4.9 4.7-3.8 5.1-5.2.5-1.5 1.2-8.1 1-9.8-.3-3.6-2.7-5.3-2-9.9.3-2.1 6.3-11.9 8.4-11.5 6.6 7.9 10.3 20.2 17.6 27.5 9.3 9.4 24.5 10.9 34 22 8.7 10.2 12.7 29.8 22.7 36.3 17.1 11.2 40.1 18.7 57.3 30.7 6.2 1.7 12.3 3.8 18.6 5.4 10.4 2.8 38.7 11 47.9 11.2 8.6.2 39.6-8.6 49.7-11.4 17.1-4.6 38.6-11 54.5-18.5 4.8-2.3 19.6-9.9 23.3-12.7 4.9-3.7 12.4-23 15.3-29.7.9-2.1.7-4.4 1.6-6.4 7.4-16.6 33.6-12 43.4-29.6 2.1-3.9 8.5-24 11.3-24.7 2-.5 8.2 9.5 8.5 11.6.7 5.3-3.3 9.3-3.8 13.1 0 .7.6 7 .8 7.2.5.5 6.5-1.2 7 3.6.5 5.6-5.2 5.2-5.9 7.1-1.2 3.3.2 8.9.4 12.4 2.4-2.7 7.1-9.4 9.9-11.1 2.7-1.6 4.9-1.1 8.5-3.5 14-9.7 31.8-33.1 38.1-48.9 6.4-16 9.5-48.2 23-58 10.2-7.3 27.8-3.6 31.7-18.3.8-3.1.8-11.6 1.7-13.3 1.6-2.7 6.8-.5 7.5-4.5 2.6-13.2-7.2-34.2-2-48 3.2-8.4 14.4.8 17.4-4.6 4-7 4.4-30.4 5.7-39.3 1-7 4.4-13.6 3.9-21.1-.3-3.9-2.5-7.6-2.9-11.1-.9-7.3 1-12.7-1.6-20.4-11.4-33.2-37.7-66.2-52.7-98.3-2.5-5.9 2.7-5.2 6.2-2.2 1.5 1.3 3.2 4.7 4.5 6.5 11 16.3 23.1 39.6 32.8 57.2 8 14.7 27.3 48.9 28.8 64.2 1.9 19.4-9.1 41.8-15 60 5.7-2.2 12.9-7.6 16.4-12.6 1.3-1.8 5.9-13.9 8.6-11.9 1.2.8 11 24.2 11 26.5v23.5c14.9-10.9 38.1-38.8 39.9-57.6.6-6-2.1-11.6-.4-17.4 3.2 2.3 6.2 10.2 8.9 12.1 2.5 1.8 7.1-.3 6.6 4.4-.3 3.1-3.8 3-4.1 4.2-2.1 9-1.5 22.2-3.1 31.7-2.7 16.3-23.5 39.8-34.4 52.6-5.2 6.1-27.4 32-32.8 34.2-1.9.8-4.9.4-5.6.9-1.1.7-5.6 20.3-7.9 24.6-1.7 3.2-16.1 19.8-18.6 19.3-6.7-10.7-9.9-25.2-17.7-35.3-.6-.8-1.6-2.6-2.8-1.7-1.4 1-6.3 28.9-7.8 33.8-6.5 21.8-18.9 35.7-33.8 52.2-13.8 15.4-28.9 29.8-43 45-2.3.4-1.4-1-1.5-2.5-.2-3.4.6-7.2-.5-10.5-8.5 9.2-18.2 17.4-29.5 23l-1-34c-12.9 3.3-25.6 7.8-37.7 13.3l-13.8 30.7c-44.8 26.2-96.8 40.5-146 57-40.7-13.1-84.2-25.8-123.1-43.8-4.7-2.2-20.6-9.5-23.4-12.6-4-4.5-8.3-21-12.4-27.6-1.2-1.9-1.7-3-3.6-4.4-3.3-2.5-29-11.5-33.7-12.4-.7 0-1.5-.4-2.2-.2.3 1.2-1 2.9-1 3.5v30.5c-11-5.3-19.9-13.7-29.5-21-1.1 2.5-.3 5.8-.5 8.5 0 1.5.8 2.9-1.5 2.5-10.4-10.6-20.9-21.1-31-32-16-17.2-34.8-35.6-43.2-57.8-5-13.3-7-27.4-10.3-41.2-1.7-1.6-7.4 8.9-8.2 10.3-4.8 8.6-7.4 18.2-12.4 26.7-3.3.7-17.7-17.5-19.6-21.3s-7-21.8-8-22.5c-.7-.5-3-.2-4.5-1-6.8-3.5-27.5-27-33.8-34.2-7.1-8.1-14.3-16.6-20.9-25.1-3.1-4.1-16.5-21.2-17.4-24.6-1.5-5.6 2.1-5.6 2.8-8.8.5-2.8.2-8.9 0-12 0-2.5-.6-12.2-1-13.8s-5.4-1.7-3.9-6c.3-1 14-12.4 15.9-14.7.9 5.5-1.2 11.1-.9 16.3 1 16.9 22.3 42.1 33.9 54.2 1.6 1.6 3.6 4.4 6 4.5.5-7.7-1.3-17.1-.3-24.5z" class="outline shading" data-original-prefix="shading" opacity="0.5" style="opacity: 0.5"/><path id="shading-head3" fill="#aaaaaa" d="M614 1535c.5 10.4 2.5 20.9 4.3 31.2 1.1 6.2 3.9 13.8 4.6 19.4 1.6 12.3.3 28.2 1.1 40.9 1.7 26.6 4.8 40.2 15.8 64.2 13.7 29.6 32.5 56.5 49.2 84.3 1.5 0 1.4-3.5 1.7-4.8 3.3-17.3 5.2-34.7 8.8-52.2 2.4-11.6 5.5-30 9.4-40.6.4-1 .6-3 2.1-1.4.4.4 2.3 9.5 3 11.5 7.6 22 18.3 41.3 28.3 62.2 23.2 18.4 47.5 35.6 73.4 50.1l2.3.2c3.4-28.8 8.9-57.8 19-85 6.7 2 11.3 7.2 18.6 7.9 1.5.2 3.7-1.2 4.2-.8 1.1.7 9.8 12.9 12.1 15.4 9.7 10.5 22.5 22.3 33.5 31.4 18.8 15.6 39.6 28.5 61.2 39.9 1.6.2 1.9-1.1 2.5-2.2 4.2-7.6 5.9-18.8 10.3-26.7l38-18-12.1 15.9c-7 2.1-4.2 3.1-6.6 7.4s-8.3 8.1-10.2 12.8c-6.5 16.2-.6 40.8.3 57.8-7.8-2.3-15.4-5-22.5-9-15.9-9-35.8-24.2-50.4-35.6-14.2-11.1-44.2-34.5-53.1-48.9-4-6.5-4.4-17-12-21.5-4.3 11.9 2.6 22.2 3.9 32.6 2.8 22 2.4 46.2 5.2 68.8 1.8 14 3.6 27.5 8.9 40.6-.9.8-17.4-7.4-19.9-8.6-10.3-5.3-29.1-13.9-37.6-20.4-11.6-8.8-25.7-24.2-36-35-17.3-18.1-33.9-37.1-48.9-57.1-9.5-3.9-9.3 2.5-10.4 9.7-4.5 29.6-4.1 60.6-6.6 90.4-31-36.4-55-78.2-75.9-121.1-17.9-36.8-41.5-90.5-40.7-131.4 0-3.8 2.5-8.3 0-11.9-1.8-2.6-7.6-2.4-9.4.5-22.8 36.4-40 75.9-60.4 113.6-3 5.6-8.4 16.1-12.3 20.7-.9 1-1 2.1-2.8 1.7l-3.5-157c1.3-2.7 5.9-2.6 8.1-1.1 1.5 1.1 5.3 14.2 5.5 16.6.4 4.6-1.5 10.5-1.1 16 .5 7.6 4.2 16.3 8.2 22.8.8 1.2 3.1 5.8 4.8 4.7 13.1-21.8 27-43.7 43-63.5 7.5-9.3 27.9-32.3 38-37 1.2-.4 1.9-.6 3.1-.4" class="outline shading" data-original-prefix="shading" opacity="0.5" style="opacity: 0.5"/><path id="shading-head4" fill="#aaaaaa" d="M677 912c-3.2 6.4-5.8 13-7.5 20-1.3 5.5-5 23.3-2.5 27.6 42.6 45.2 97.7 78.8 151.4 109.6 3.8 2.2 18.4 8.8 20.2 10.8 6.1 6.5-4.5 6.9-8.5 3.1 0 2.8.8 5.4-2.5 6-21 3.9-70.7-17.8-91.2-26.8-42.4-18.7-83.9-40.2-121.1-67.9-86.6-15.8-174.3-25-261.2-38.8l-9-2.5 30.5-2c57.7-2.3 115.4.9 173.1 0 14.1-.2 32.2-2.9 46-2.1 7.4.4 42.7 13.5 44.4 12 2.2-15.7 5.6-55.5 19.1-65.4 5.2-3.8 16.8-3.4 19.5-9.5 12.4-55.8 28.7-110.6 47.5-164.5 6.9-19.8 15.6-49.3 24.8-67.2 4.8-9.2 18.1-16.9 26.2-23.3.4 4.7-.6 9.2-1.7 13.8-6.4 26-20.2 56-28.5 82.5-14.8 46.8-33.9 107.8-37.6 156.4-.2 2.2-.5 4.2.4 6.3s14.2 13.7 17 16c30.4 25 73.7 46.2 109.8 62.2 59.9 26.6 123.9 41.5 185.8 62.2 2.3 2.7.2 4.7-2.7 5.3-97.8-5.5-193-33.1-276.3-84.3-12.8-7.9-36.2-26.8-48.3-31.7-6.1-2.4-12.8-.3-17.1-7.9Z" class="outline shading" data-original-prefix="shading" opacity="0.5" style="opacity: 0.5"/><path id="shading-head5" fill="#aaaaaa" d="M1409.1 961c1.9 1.3 37.1-11.6 44.4-12 13.8-.8 31.8 1.9 46 2.1 63.7.9 127.5-3 191 1l12.5 2c-89.6 14.6-180.1 24-269.5 40.1-45.6 32.2-97.1 59.5-149.3 79.7-14.4 5.6-34.8 13.3-50 15-5.8.6-18.7 2.8-16.2-5.7-4.7 3.1-13.4 5.2-8.5-3.1 60.6-34.3 123.5-69.2 171.6-120.4 2.2-3.8-1.2-20.6-2.4-25.7-1.8-8.1-4.3-14.4-7.7-21.8-4.5 7.4-10.6 5.6-16.7 7.8-10.1 3.7-34.4 22.9-45.4 29.6-84.7 52.2-179.5 80.8-279.3 86.3-2.9-.6-5-2.6-2.7-5.3 61.8-20.8 125.9-35.7 185.8-62.2 34.6-15.3 75.5-35.5 105.2-58.8 3.8-3 20.2-16.3 21.6-19.4s-1.9-19.5-2.6-24.3c-7.4-49.5-22.2-99.8-37.6-147.4-7.2-22.2-16.9-44.5-23.6-66.5-2.1-6.7-4.3-13.6-3.7-20.8 6.9 5.9 21.2 14.2 25.5 22 8.2 15 16.4 43.3 22.5 60.5 20 56.5 37.3 114 50.5 172.5 2.8 6.3 14.8 5.6 20 10 5.6 4.7 11.2 21.8 13 29 2.9 11.6 3.5 23.8 5.6 35.8" class="outline shading" data-original-prefix="shading" opacity="0.5" style="opacity: 0.5"/><path id="shading-head6" fill="#aaaaaa" d="M1582 1500c-16.8-.8-32-7.1-46.7-14.8-17.8-9.3-36.1-21.2-48.3-37.2 11.8 4.1 23.8 7.7 35.5 12 10.1 3.7 40.6 13.8 46.5 20.5 3 3.4 9.7 12.2 12.1 15.9.7 1.3 1.2 2 .9 3.6" class="outline shading" data-original-prefix="shading" opacity="0.5" style="opacity: 0.5"/><path id="shading-head7" fill="#aaaaaa" d="m560 1448-14.3 18.7c-1.7 1.7-21.4 17.2-22.7 17.8-2.6 1.2-5.6 0-8.3.7-7.7 1.8-17 7.9-25.5 10.5s-17.4 3.9-26.2 4.8c6.3-5 9.9-13.1 15-19 6.9-7.9 35.5-17.2 46.7-21.3s23.8-7.5 35.3-12.2" class="outline shading" data-original-prefix="shading" opacity="0.5" style="opacity: 0.5"/><path id="shading-head8" fill="#aaaaaa" d="M1518 1636c1.5 1.2 4.5-4.7 5.4-6.1 4.7-7.5 7.6-15.4 7.7-24.4 0-4.5-1.6-8.5-1.1-13.1.2-1.9 2.7-12.2 3.3-13.7 2-4.6 8.1-5.6 10.5-1.1-.2 20.9-.2 41.9-.8 62.8-.7 23.4-.7 47.7-2 71-.2 3-1.4 15.8-2.6 17.4-.9 1.2-1.2 1.3-2.5.6-1.1-.6-8.9-14.4-10.1-16.9-11.5-21.7-21.6-44.1-33.3-65.7-7.6-14.1-17.6-34.8-26.7-47.3-2.4-3.4-5.6-5.2-9.8-3.2s-1 10.5-.9 14c1.3 60.2-55.3 160.1-87.2 211.8-8.7 14.1-18.9 26.8-29.3 39.7-2.3-30.1-2-60.5-6.6-90.4-1.1-7.2-.9-13.6-10.4-9.7-15 20-31.6 39-48.9 57.1-10.3 10.8-24.4 26.1-36 35-8.5 6.5-27.3 15.1-37.6 20.4-2.5 1.3-19 9.4-19.9 8.6 5.3-13.1 7.1-26.7 8.9-40.6 2.9-22.8 2.3-47.8 5.2-69.8.7-5.5 4.4-11.9 4.9-18.1.4-4.8-.8-8.8-1-13.5-2.3-.6-1.7.5-2.3 1.3-5.4 6.9-5.9 14.2-9.7 20.2-9.1 14.6-38.7 37.7-53.1 48.9-14.6 11.4-34.5 26.6-50.4 35.6-7.1 4-14.7 6.7-22.5 9 .9-17 6.7-41.6.3-57.8-1.9-4.8-7.9-8.6-10.2-12.8s.4-5.4-6.6-7.4l-12.1-15.9 38.3 18.2c3.5 7.7 5.5 16.9 9.1 24.4.6 1.3 1.6 4.5 3.5 4.2 21.8-11.8 43.1-24.9 62.1-40.9 9.5-8.1 21-18.4 29.6-27.4 2.7-2.8 13.6-17.2 15-18.1.9-.5 3.7.6 6 .2 6.3-1.1 11-5.9 17-7.6 9.8 25.7 14.2 53.1 18.3 80.2.2 1.4.2 5.4 2.2 4.8 12.7-7 25.2-14.6 37.2-22.8 7.5-5.1 32.3-21.9 37-27.5 2.3-2.8 4.2-10.7 6.1-14.4 3.7-7 7.9-13.3 11.3-20.7 5.2-11.3 9.8-23.6 12.8-35.7 1.3-.3 1.1 1 1.5 2 4 11.3 5.7 23.5 9 35l13.5 66c4.8-9.3 13.1-17.3 18.2-26.3 10.1-17.9 20.8-43.7 29-63 9.3-21.9 15.6-35.6 16.8-60.2 1.1-22.9.7-38.3 4.7-61.3 2.1-12 4.1-24.1 5.3-36.2 1.2-1.4 18.3 12.8 20 14.5 25.4 24.1 45.1 57.3 63.9 86.7" class="outline shading" data-original-prefix="shading" opacity="0.5" style="opacity: 0.5"/><g><path d="M745 1257v.1-.2Z" class="fill" fill="#ffffff"/><path d="M1756.5 964.7c-8.2-4.6-6.2 5.1-8.2 11.2-17.3 52-123.5 116.4-171.4 141.5-88.9 46.6-187.8 65.6-285.8 84.2-109.9 20.8-220.5 41.8-332.7 31.3-72.5-6.7-146.2-20.4-217.7-34.3-122.9-23.9-220.4-46.5-327.3-114.7-42.3-26.9-102-67-116-117-.3-1.1-1.2-4.2-2.8-3.8-8.1 1.9-18 16.4-16.5 24.1.3 1.4 1.9 4.8 2.6 6.4 27.1 60.8 131.8 125.4 191.5 151.5 38.1 16.6 89.8 36.8 88.5 43.2-1.5 7.2-3.9 13.8-7.3 20.3-1.7 3.2-1.9 6.3-1 9.1-5.4 6.3-9 13.4-8.4 22.3 1.8 0 3.8.3 5.5 0 3-.5 21.1-13.3 24.9-16.1 5.6-4.1 11-8.5 16.3-13 5.5 2.2 11.1 4.2 16.7 6.1l-23.3 73c1.5-.2 1.8-1.9 2.5-3 6.8-11.4 19.7-37.2 23.5-49.5 1.8-5.8 3.1-11.9 4.3-18.2 19.3 6.2 39 11 58.8 15.2 34.1 7.1 68.5 13.1 102.7 19.6-6 11.7-10.9 23.8-11.9 36.9-1.4 1.7-6.3-7.7-6.8-8.7-4.2-8.1-6-18.2-12.1-25.2v15.2c0 13.9 19.5 53 28.6 64.4.9 1.1 6.2 8.5 7.4 7.1.8-26.8-.4-54 6.3-80.2 2.4-9.7 6.4-18.5 9.7-27.8 121.8 24.6 245.9 29.6 369.3 13.9 28.1-3.6 55.9-9.1 84-12.9 10 18.3 13.7 39.1 15.7 59.6l1.5 47.5c19.6-22.3 35.1-54 35.5-84-2-.4-2.4.9-3.2 2.3-3.7 6.2-5.2 16.7-8.6 23.4l-6.2 10.3c-1.1-14.1-5.7-27.1-11.8-39.5 52.5-9.7 104.4-22.4 155.4-38.1 1.6-.3 3.3-.6 4.9-.9 1.8 8.9 3.4 17.4 4 19.5 3.7 12.3 17.1 38.6 23.9 50.1.6 1.1 1 2.8 2.5 3l-23.7-74.1q7.2-1.8 14.1-4.5c.8-.3 1.5-.6 2.3-.9 5.5 4.5 11 9.1 16.7 13.3 4.1 3.1 18.9 14.3 22.3 15.7 2.6 1 5.3.5 8 .5.9-17.8-14.4-28.2-26.7-39.3 2.8-1.3 5.7-2.4 8.7-3.4 6.2-1.9 10.1-8.3 8.4-14.8-.9-3.2-3.2-5.9-6.2-7.5 27.6-8.3 55.6-16.5 81.8-27.6 61.6-25.9 160-86.1 192.6-145.4 1.8-3.2 7.6-13.5 7.6-16.5.3-6.3-7.9-17.6-13.4-20.7Z" class="fill" fill="#ffffff"/></g></g><path id="outline-head" fill="#000000" d="M769 677s.3 1.7 1 2.5c17.5 18.9 34.3 38.4 55.1 53.9 21.8 16.2 36 13.4 61.4 16.6 44.2 5.5 87.2 10.4 132 11 47.6.7 95.6-5.1 143-11 37.1-4.7 43.8-1.1 73.5-26.5 16.3-13.9 30.9-30 44.5-46.5 2.1-.4 1.4.8 1.8 2.2 2.1 6.9 2.2 14.3 3.7 21.3-11.7 14.4-25.8 27.8-40 40-15.1 13-18.4 15.3-38.2 19.8-106.9 24.5-246.6 23.5-354 2.4-8.3-1.6-24.4-4-31.5-7.5-4.3-2.1-13.2-10.2-17.3-13.7-14.2-12.1-28-25.6-40.5-39.5-.9-2 1.9-19.1 2.8-22.2.3-1 .8-4.4 2.7-2.8" class="outline" data-original-prefix="outline"/><path id="outline-head1" fill="#000000" d="M1780.4 984c-10-35.3-43.3-36.3-75-39-79.7-6.9-162.9 1.6-243-3l-45.4-3c-1.5-9-2.6-18.3-4.3-27.2-1.2-6.2-2-16.8-7.8-20.2-1.7-1-8.9-4.3-10.9-5.1-5.2-1.9-10.8-2.4-15.8-4.7-12.4-56.8-29.1-112.5-48.4-167.2-7-20.2-15.6-48.7-24.8-67.2-1.7-3.5-3-4.7-5.7-7.3-4-3.9-30.8-25.5-34.4-26.6-8.3-2.5-14.4 1.3-21.7 2.4-89.5 13.5-181.5 12.9-271.8 11.1-56.3-1.1-112-2.6-167.8-11.2-8-1.2-13.8-5.4-22.8-1.3-4.4 2-35.7 27.6-37.7 31.3-29.3 77-56.3 155.3-73.4 236.1-5 2.3-10.6 2.8-15.8 4.7-1.6.6-2.8 2-4.3 2.7-8.1 3.7-9.9 2-12.6 12.4-3 11.7-3.7 25.4-6.1 37.4-21.5 1.9-43 2.3-64.5 3-78.2 2.3-166.7-5.2-242.9 5.1-20.7 2.8-41.5 5.2-51.5 25.5-16.7 34 9 57.4 32.8 78.9 45.2 40.7 109.1 79.1 165.1 102.9 25.3 10.7 51.9 18.2 78 26.5.3.5-.9 3.1-2.4 6-7.6 12.4-11.9 23.3-18.9 39.4-6.7 14.7-13.1 29.6-18.8 44.7-6.8 16.9-12.7 33-11.4 34.5 1.9.4 2.4-1.1 3.5-2 6.6-5.4 12.5-13.2 19-19 17-14.9 39-32.1 57-46 2.3-1.8 8.2-7.4 8.4-3.5-5.8 18.8-11.9 37.6-18.5 56.1-.5 1.3-1 2.6-1.4 3.8-6.3 17.6-13.2 35.2-20.6 52.8-12.9 30.4-27.3 60.1-43.7 88.8-7.5 12.9-16 27.5-24.4 39.6s-17 22.5-29.8 30.2h2.1c-.8.6-1.7 1.1-2.6 1.7 25.7.4 50.6-6.2 73.6-17.3-4.7 9-11.2 17.2-14.9 26.8-.2.6-.4 1.1-.6 1.7l-.3.5c-8.2 26.1-4.2 54.3-3.8 81.2.6 36.5 1.8 72.7 3 109 .5 15.2.3 30.4 1 45.5l85-153c-4.1 30.1 5.9 59.5 16.3 87.2 24.8 66.5 61.2 132.7 107.7 186.3l2 .5v-1.8c1.2 0 .6-1.3.7-2.6 1.5-21.2 0-43.3 2-65 .9-10.9 2.8-21.6 4-32.5l1.3-8.2c10.4 16.5 24.1 31.6 37.5 46 12.4 13.2 39.4 42.9 53.5 51.5 13.4 8.2 34.1 17.6 48.7 24.3 3.2 1.5 12.1 6 14.8 6.2 1.6 0 1.8.2 1.4-1.4v-.5h.2c1.5 0-5-14.1-5.5-15.5-8.7-24.4-11.1-57.8-13-84-.6-8.3-.9-16.8-1-25.1 15.6 19.1 35.1 34.7 54.5 49.7 23.9 18.5 49.6 39.4 79.4 46.6v-1.9h.4c.7-17-3.9-34-2.6-51.2 1.3-7.5 4.3-14.5 10.6-20.5l22.5-25.5c7.5 10.8 17.8 20.1 25.5 30.5 13.2 17.9 5 41.5 4 61.9 0 2-1 6.7 1.5 6.6 4.3-.2 15.5-5.2 19.9-7.2 19.7-8.9 41.3-26.1 58.5-39.5 19.6-15.2 39.4-31 55.1-50.4-1.6 27.8-3 56.8-7.1 84.4-.2 1.4-.4 2.9-.7 4.3-1.3 6.5-2.9 12.7-4.8 18.4-2.7 6.5-6.1 13.2-7.3 18.5-.4 1.6 0 1.5 1.4 1.4 2.7-.2 11.7-4.7 14.8-6.2 14.3-6.5 43.9-19.8 55.1-28.9 25.3-20.6 48.5-51.1 71.5-74.5l14-18.5c1 14.6 3.8 29 5 43.5 1.8 21.3.5 43.2 2 64 0 1.5-.8 2.9 1.5 2.5 27-30.1 49-63.3 68-99 14.9-27.8 29.2-58.2 40.2-87.8 5.9-15.8 11.7-32.2 14.8-49 2.4-12.1 3.5-24.3 2.3-36.7l84.1 151.4v-2.5l.4.8c.8-17.1.5-34.3 1-51.5 1.1-36 2.4-71.9 3-108 .4-24.6 4.6-53.1-4.2-76.7-3.6-9.3-9.9-17.4-14.5-26.2 22.5 10.7 47 17.1 72.2 16.7-.9-.5-1.7-1.1-2.6-1.7h3.1c-12.8-7.7-21.3-18.1-29.8-30.2-8.6-12.1-17-26.6-24.4-39.6-36.6-63.8-63.3-132.7-84.7-203.1 1.3 0 2.2.9 3.3 1.6 21 13.6 40.8 36.8 62.6 50.4l22.5 21.5-.6-1.8c.2.2.4.4.6.7-12.2-43.7-32.5-84.6-52.5-125 29.9-8.7 60.2-18.1 88.7-30.8 51.5-22.9 105.9-56.6 148.8-93.2 19.4-16.5 51.9-44.8 44-72.9l.4.6ZM738 721.3c5-15.2 13.6-45.2 21-58 1.6-2.8 32.6-25.3 35.8-26.2 50 .5 99.8 3.5 149.8 4.8 102.5 2.8 204.6-1 307-5 2.7.4 33.8 21.7 36.1 24.4 2.9 3.5 10.2 25.3 12.3 31.1 10.2 28 19.1 57.9 27.5 86.5 11.6 39.4 22 79.1 30.4 119.3-44.7 35.3-96.3 62.3-149.6 82.4-71.2 26.9-150.4 42.3-226.7 34.2-104.2-11.1-208.8-53.1-291.4-116.7 12.9-59.6 28.8-118.8 47.8-176.8m-85.1 223.1c0-7.2 1.6-23.7 3.7-30.3.4-1.2.6-2.5 2-3 1.2-.4 10.4-.4 11.2 0 .4.3.8 2 1.5 2.7 195.8 157.7 494.8 165.6 694 9 2.8-2.1 12.3-11.6 14.1-11.9 2.6-.5 10-.7 11.3 1.7 1 1.9 3 15.8 3.2 18.8.6 7.3 1 23.1 0 30-.8 5.6-16.6 19.1-21.6 23.4-174 150.2-512.4 150.2-689.9 6-5.2-4.2-26.4-22.2-28-27-1.4-4.1-1.7-14.8-1.6-19.5Zm824.4 243.8c2.1 4.8 4.2 9.7 5.3 11.7 3.7 6.8 16.7 30.7 17.8 37l-25.7-17.1-27.7-22.3zm-47.4 14.3c7.4 28.2 20.2 60.7 29.5 86.6 17.3 48.4 35.7 103.9 62.6 147.4 9.8 15.9 21.4 30.5 32.3 45.6l-60.1-27.2.9 2.4-1.7-.8 23.5 54c4 22.7 6.7 46.2 8.7 69.8.2 3.3.3 6.7.6 10 .7 10.4 1.5 20.9 2.2 31.3.9 16.2 1.5 32.4 2.1 48.3.4 10.6 0 21.3.7 31.9l-24.6-54.5c-5.8-42.8-11.9-86.4-32.6-124.9-.5-.9-8-14.7-8.5-9.5 8 34.1 19.5 67.6 25.6 102.3-15.9-31.8-33.2-62.7-60.9-86.4v1.7c-.4-.3-.9-.4-1.6-.2l6 64.5c.4 15 .6 29.8-1 44.4-1.7 11.8-4.6 23.9-9.2 37.2l-5.8 13.9c-3.9-18.2-3.3-37-8.5-55l-18.6-41.9c-10-2.8-4.3 11.9-2.8 17.3 4.9 16.7 12.3 31.3 14.8 49.2 2 14.9 4.3 46.6 2.1 60.8-.4 2.6-4.7 10.8-6.1 13.9-1 2.1-2 4.3-3 6.4-15.7 32.3-33.2 64-49.2 95.7-1.8.2-1-2.3-1-3.5-1-27.5 1.1-55.4 0-83.1-1.5-37.1-4.1-91.1-17.8-125.3-.6-1.5.6-2.7-2.2-2.2v.2c0-.2 0-.4-.2-.6-4.2 39.2-8.9 79.2-19.8 117.2-1.4 4.8-3 9.5-4.9 13.9-10.3 23.7-26.8 42.4-45.1 61.7-16.1 17-33.3 32.6-53.5 44.5 3.7-22 7.8-44.2 9.5-66.5 1.8-24.3 3.1-62.1-5-85-3.2-9.1-9.2-17.9-15-25.5 0 .7-.2 1.4-.3 2.1 0-.2-.2-.3-.4-.5-1.8 11.9-2.9 24.1-5.7 35.8-1.7 7.1-4.2 13.7-7.3 19.9-9.3 17.3-25.2 35.2-41.5 50.8-1-27.8 1.1-56.6-9.5-83 9-5.8 26.3-12.1 33.5-19.6 7.2-7.4 10.3-28.5 17.1-35.9 7.6-8.2 27.3-6.3 36.4-17.6 1-1.2 1.9-3.1 2.8-5.3.4-.7.8-1.4 1.2-2.2 1-2.1 1.9-6.8 3.2-9.2 1.7-1.2 3.6 4.9 3.9 5.6 4.4 13.6 3.3 29.5 2 43.5 1.5.4 2.3-.3 3.6-.9 3.4-1.6 16-12.4 19.4-15.6 10.7-9.7 29.1-31.2 34.9-44.1.2-.5.3-1.1.5-1.7.6-1.5 1.1-3 1.6-4.7h.5c1.9.5 2.3 34.6 2.5 38.5 0 2.4 1 4.6 1.1 6.9.7 21.1-.6 42.4 0 63.5h3c.5-7.5 2.2-15 3-22.5 3-26.9 5.9-61.3 3-88-1-9.5-5.6-21.8-6-30 0-.9.6-4 1.4-6.9.7-2 1.4-3.9 2.2-5.9 1.6 0 3.2 5.9 3.5 6.7 9.2 24.5 10.8 52.6 12 78.5h3c1.7-17.3 3.2-35.1 2-52.5-1.1-16.3-6.8-32.5-7.9-48.8 6.2-7 18.3-1.5 25.6-4.4 3.1-1.3 8.9-8.8 12.1-14.8 1.5-2.6 2.7-5.3 2.9-7.6 1.8-19-2.5-39.7 2.5-58.8 9 2.5-.7 24.4.8 25.9l11.4-4.1 21.6-11.9c-2.4 24-7.3 48-14.5 71l-6.6 13.2c-1.5 2.7-3 5.3-4.3 8.1h.2l-.8 1.6c24.4-3.5 45.2-26.7 61.5-44 10.4-11 30.9-32.5 41.3-50.8 1.3-2.3 2.4-4.5 3.4-6.6 0-.3.2-.6.3-.8 0-.2.2-.5.3-.7.7-1.6 1.2-3.2 1.6-4.8 2.7-9.8 1.9-19.9-1.1-34-.9-4-1.6-6.2-2.8-8-5-20.3-13-41.5-18.7-56.5-5.3-13.9-13-35.5-20.3-47.8-.8-1.3.2-2.5-2.5-2 3 24.6 14 46.8 21.3 70.2 6.7 21.8 17.1 53.1 9.1 75.5-3.7 7.9-9.5 15.3-14.2 21.5l-2.7 3.6c-1.9 2.2-3.7 4.2-5.4 6.1 1-7.5 5.1-17 5-24.5 0-9.3-5.8-22.7-6.5-32.5l-2.5-8v38.5c0 4.5-6.8 25.6-8.7 31.3-3 8.7-6.2 16.3-10.6 23-5.4 5.6-11.1 10.8-16.9 15.6 4.8-11.5 6.9-23.5 8.8-35.7 2.1-12.9 4.7-29.9 5.2-42.8.3-5.8 1.9-15.1-6.5-12.6l-30.5 26.1c4.3-26.6 10.3-53.7 13-80.5 3.4-34.3-9.4-53.9-25.8-82.2-12.8-22-27.8-42.5-42.2-63.3l115.8-29.4zm-455.2 639.7c-9.5-7.6-19.9-14.3-29.5-21.9-7-5.5-15.2-12.2-23.6-19.8-2.3-12.7-1.9-36.4-1.2-49.5.7-13.9 5.2-27.6 3.1-41.5l26.9 12.1c2 20.4-1.1 42.1 4.6 61.9.7 2.4 3 10 5 11 1.9.9 1.5-1.6 1.5-2.5 0-3.9-1.7-8.9-2-13-1.5-17.8-.3-36 2.5-53.5 14.4 4.4 29.1 8.9 43.9 12.1 14.2 3.1 19.4 3.6 33.8.6 15.3-3.2 30.4-8.8 45.8-11.7 1.6 16.7 2.9 33.7 2 50.5-.2 4.5-1.9 9.5-2.1 13.9 0 1.4-.8 4 1.5 3.5 12.5-21.9 7-48.7 9.6-72.9 4.4.6 25.8-12.1 26.9-11.1-2.1 14.1 2.4 29 3.1 43.4.7 15.9 0 33-2.3 48.8-7.5 6.6-14.7 12.5-21.1 17.5-9.9 7.8-20.6 14.7-30.4 22.6 1.8-16.2 2.7-33-2.3-48.7-12.6-13.7-24.9-27.8-37.7-41.3-1.4-1.4-7.6-8.1-8.9-7.9L978 1794c-.2.6-.3 1.1-.5 1.7-5.1 14.9-4.3 30.8-2.8 46.3zm321.9-592.1c-1.2 9.6-2.9 18.9-4.5 26.6-3.2 15.2-8.4 31.9-17.4 44.8q-.75.9-1.5 1.5c.5-24.5-.2-49.6-8.4-72.8.2-2.6.7-5.6.8-8.4 9.3-3 22.8-3.7 32.6-5.8-.4 4.7-.9 9.4-1.4 14.1zm-48.2-5c.7 1.4 1.4 2.7 2 4.1 2.6 7.2 5.2 14.5 6.9 22 4.9 22.2 4.8 45 4.6 67.3v6.8c-.2 4.4-.4 8.8-.6 13.3 2 .5 1.9-.8 2.8-1.7 3.3-3.2 6.9-7.5 10.7-12.5 8.4-9.8 15.6-21.5 21.1-34 6.7-13.3 11.3-26.6 11.3-36.4v-2.1c.8-5.2 1.3-10.4 1.4-15.5.3.4.5 1 .8 1.4 14.5 23.1 31.6 54.4 44.2 78.8 8.9 17.2 13.7 28.5 13.7 48.4s-1 5.2-1.1 7.9c-.6 18-1.5 35.2-5.5 52.7-8.2-2.9-12.8-1.5-15.4 2.2-1 .9-1.9 2-2.6 3.5-.2 2.1-.3 4.2-.5 6.2 0 .8-.2 1.7-.3 2.6-1.5 15-3.9 29.8-5.6 44.7-.5 3.9 0 8.4-.7 12.6-4.3 11.8-14.3 7.2-26.2 13.1-6.4 3.1-11.5 10.2-15.7 18.6-8.5 16-13.7 38.3-18.6 50.5-.2.5-.4.9-.6 1.3-7.6 17.2-17.7 31-34.3 41.7v-.4c0-9.2-.8-21.3-4.3-29.8-.9-2.1-7.7-12.7-9.2-13.8-1.7-1.2-3.9-1.3-5.9-.7-.7.2-1.6 1.1-2.6 2.4-.7.7-1.7 2.2-3 4.3-5.1 8-11.7 20.7-16.1 24.6-7.6 6.7-16.2 6.9-23.7 11.3-5.3 3.1-9.7 9.8-13.7 17-4.6 7.8-7.9 15.5-14.2 22.3-17.6 16.5-72.5 38.1-92.7 44.1-7.1 2.1-23.8 7.5-30.4 7.6-7.7 0-31.1-7.5-39.6-10.2-20.6-6.7-74.9-29.1-87.6-45.4-7.3-9.3-14.6-29.7-24.5-35.5-7.5-4.4-16.1-4.6-23.7-11.3-6.1-5.4-18-30.2-21.7-31.3-4.8-1.5-9.6 4.2-12.9 10.3-1.3 2.1-2.3 4.2-2.9 5.8-3.7 9.2-2.5 19.4-5 27.7-1.9-.7-7.6-5.7-8.5-6.5-13.3-11.9-19.9-21.9-26.7-39.3s-14.9-55.9-31.9-65.1c-11.4-6.2-25.7-.9-28.2-17.8-2.1-13.9-3.4-29.6-5.1-43.9s3-30.2-19-23.5c-2.4-12.7-5-25.6-6-38.5 0-1.6-.2-3.3-.3-5 0-3.1-.2-6.1-.3-9.2 0-.8 0-1.6-.3-2.4-.2-5.8-.3-11.6 0-16.4 0-2.2.4-4.4.7-6.5 1.5-7.9 4.2-14.9 8-22.8 3.8-7.5 8.4-14.8 12.5-22.5 9.8-18.4 20-36.5 29.9-54.8 2-3.4 4.1-6.7 6-9.8.6-.9.9-2.2 2.2-2.3v18.5c0 23.4 26.6 66.5 43.2 82.8.9.9.8 2.2 2.8 1.7v-2.6h.7c-.5-24.4-1.4-50.4 2.6-75 1.9-10.7 4.7-21.4 8.8-31.7.9-1.7 2-3 3-3.2 23.4 3.3 46.6 7.8 70.1 10.9 125.4 16.5 253.8 12.6 377.8-11.7h-.1Zm-469.7 19.3c-3.9 19.7-5.1 38.1-4.4 58.1-2.9-2.5-5.1-7-6.8-10.4-3.1-6.2-5.6-12.7-7.7-19.4-2.9-15.6-5.1-40.5-6.4-55.8l27.6 5.8c-.4 7.9-.4 11.7-2.4 21.9v-.2Zm-86.9 30.9c-5.8 10.1-11.2 19.1-15.5 28-5.5 10.7-9.6 20.7-10.8 27.9-3 18 2.1 47.2 5 65.8 2.1 13.4 5.5 26.8 7.5 40.2l-29.5-25.2c-4-1.2-5.7.3-6.4 2.7-1.7 2.6-.9 7.6-.7 11.3.5 12.9 3.1 29.9 5.2 42.8 1.8 11.2 3.7 22.2 7.6 32.7-6.5-5.5-12.8-11.6-18.8-18-3.8-6.6-6.6-14-9.3-22.3-1.8-5.7-7.7-23.5-7.7-28.3v-39.5l-2.5 8c-.8 10-6.1 23-6.5 32.6-.3 7.4 3.5 16.3 4.4 23.9-2.1-2.7-4.1-5.4-6.1-8-5.7-7.6-17.6-22.8-17.6-32.4v-20.8c1.8-14 6.2-28 10.1-41 7.6-25.4 19.8-49.5 22.3-76.2l-12.5 27c-12.9 30.6-36.6 88.2-33.6 120.5 1.8 19.5 33.7 52.8 47.5 67.5 16.3 17.3 37.1 40.5 61.5 44l-.7-1.4h1.3c-2.7-6-6.6-11.3-9.2-17.3-9.7-22.4-13.1-50.4-16.5-74.6l20.7 11.4 11.4 4.1c0-.7 0-1.3-.2-2l.9.3c-.4-6.8-3.9-14-3.2-21 1.2-1.6 3.7-4.2 4.4-3.3.8.9 2.8 20.6 3 23.5.5 9.2-1.8 35.9.8 42.2.8 2 11.5 14.7 13.5 15.5 7.4 3 17.8-2.1 24.8 3.4-1.4 13.3-5.3 26.9-6.9 40-2.7 20.8-1.8 41.6.9 62.4h3c.5-19.9 2-40.6 6.5-60 1.9-8.4 4.5-19.2 9.5-26 .6 3.7 4.2 7.6 4 11.4-.2 2.2-2.8 8.3-3.5 11.5-6.6 33.2-4.7 65.9-1.5 99.5.4 4 2.8 30.4 4 31.5.2.2 2.2 0 3 0 .7-37.6-2.2-75.9 4.5-113 2.6 14.8 14.6 30.3 24.5 41.5 6.5 7.3 23.6 23.8 31.6 28.4 1.4.8 2.7 1.4 4.4 1.1 0-.8-.2-1.6-.3-2.5.3-14.6-2.1-29.6 3.2-43.6 0-.2.2-.5.3-.8.7-1.6 1.7-3.1 2.7-2.1s2.8 9.9 4.1 12.4c8.9 17.3 29.3 11.7 38.5 21 7.4 7.4 10.3 28.4 17.8 36.7 4.5 4.9 32 17.6 32.3 19.4-10.3 26-8.3 54.3-9.2 81.7-19.1-18.4-37.5-39.8-44.6-58.5-5.8-15.5-6.1-32.4-9.7-48.3-5.9 8.5-11.2 16.8-14.7 26.2-2.8 7.4-4.6 15.4-5.5 23.9-4.9 44.8 3.8 83.1 9.6 126.4v.5h-.5c-19.7-12.9-36.3-27.4-52.5-44.5-22.1-23.3-41.7-45.8-50.7-77.3-10.6-36.9-15.8-77-19.3-115.2h-1.2v-.2.2c-1.1 0-.4 1.1-.9 2.3-4 10-7 21.7-9.4 34.1-2.9 13.6-4.9 27.5-6.1 40.9-1.7 18-2.2 35.9-2.4 53.7-.4 11-.3 22.1 0 33.1 0 16 0 32.1-.5 48.2v1.9h-.4c-17.9-34.3-36.4-68.5-52.9-103.6-2.3-4.8-4.7-9.9-7.1-15.1-1.6-15.3.3-45.2 2.4-59.1 2.8-18.2 10.7-33.5 15.4-50.6 1.5-5.4 6.2-17.3-3.4-14.9l-19.2 43.3c-4.7 17.3-4.4 35.2-7.8 52.7-4-10-7.6-19.9-10.2-29.4-10.7-38.8-3.4-79.7-.9-119.4.3-3.5.7-6.9.9-10.3h-.4v-1.4c-15.3 13.1-27.4 28.3-37.9 44.8-2.7 4-5 7.8-6.9 11l-2.2 4.2c-4.7 8.2-9 16.7-13.3 25.2l-3.3 6.3 26.5-108c-3.4-.3-5.5 5.3-7 8-23 40-27.8 87.5-34.8 132.2l-23 51.2c1.2-11.8.6-23.7 1-35.5.9-26 3.3-52 5-78 1.3-20.5 1-41.5 4.1-61.9 2-13.4 6.8-25.9 12.3-38.2 3.2-7.1 6.5-14.1 9.7-21.2 2.1-4.7 4.1-9.4 6-14.2l-62.4 28.2c11.1-15.5 23-30.5 33.1-46.7 4.5-7.3 8.7-14.9 12.8-22.7q6.9-12.6 12.6-26.1c1.8-4.4 3.7-8.8 5.5-13.3 11.8-28.4 21.9-58 31.7-85.3 9.3-25.9 22.1-58.6 29.6-86.8l117 29.8c-14.4 20.8-29.5 41.3-42.2 63.3v-.2Zm-117.9-75.9L546 1238l13.1-27.1c4.7-8.8 9.3-16.8 12.6-22.4l29.3 8.5zm11 13.2v-1c.2 0 .3.2.4.3 0 .2 0 .3-.2.5 0 0-.2 0-.3.2Zm1095.4-166.7c-23.3 16.1-42.9 31.4-68.3 44.7-105.4 55.2-226.5 85.3-342.8 107.2-61.1 11.5-123.8 21.8-185.7 27.3-91 8.1-182.1-5.5-271.7-21.3-127.8-22.5-262.4-53.3-377.8-114.2-25.5-13.5-45.8-29.4-69.2-45.8-21.5-15.1-44.1-27-61.8-47.3-13.2-15.2-20.7-30.9.4-43.7 39.4-23.9 153.9-11.4 202.1-9.8 39.7 1.4 79.5 2.4 119.5 2 .4.5-.2 11.3.2 13.4 1.6 9.3 29.9 30.5 38.4 36.6 131.8 94.9 302.9 118.8 461.7 99 83.4-10.3 162.3-38.6 233.6-82.4 17.2-10.6 46.6-29.8 59.1-45 5.8-7.1 4.8-12.7 5-21.5l96.6-1c57.2-1 119.8-9.8 176.9-4 17.4 1.8 62.1 8.9 61.6 32.5-.5 25.5-58.4 59.8-77.8 73.3" class="outline" data-original-prefix="outline"/>
    </g>
</svg>