<?xml version="1.0" encoding="UTF-8"?>
<svg xmlns="http://www.w3.org/2000/svg" viewBox="0 0 2048 2048">
  <style>
      .outline { fill: #000000; }
      .fill { fill: #FFFFFF; }
      .shading { fill: #aaaaaa; opacity: 0.5; }
    </style>
  <g class="trait-group" data-category="background" id="background-gray">
      <path id="color-gray" d="M2048,4.6v2038.8c0,3.8-.8,4.6-4.6,4.6H4.6c-3.8,0-4.6-.8-4.6-4.6C.1,1362.3,0,681.2,0,0h2043.4c3.8,0,4.6.8,4.6,4.6Z" style="fill: #3a3b3f" class="color" fill="#3a3b3f"/>
    </g><g class="trait-group" data-category="jaw" id="jaw-OG-cracked">
      <!-- Generator: Adobe Illustrator 29.1.0, SVG Export Plug-In . SVG Version: 2.1.0 Build 142)  -->
  <defs>
    
  </defs>
  <path id="fill-jaw" class="fill" d="M1396.7,1438.7c-6.7,4.3-46.8-1.7-48.7.3l-12.2,69.8-57.2,29.3-1.4,1.6c-1.5,11.9,1.5,24.2.9,35.9-.3,4.9-1.3,15-2.3,19.7-.6,2.8-13.7,32.2-15,33.5s-16.1,8.9-16.7,8.3l-9.5-50-51,52c-7.7,5.7-20.7,9.3-27.5,15.5-14,12.7-25.2,37.4-42.1,47.9-5.4,3.3-61.3,25.7-66.7,26.3-13.8,1.7-33-3.3-47.7.2-17.7-10.3-50.1-16.2-66.1-26.9-14.3-9.6-28.3-35.6-41.4-47.6-6.7-6.1-19.9-9.6-27.5-15.4l-51-52-9.6,48.4c-.6.9-.9,1.7-2.2,1.5-.8,0-13.8-7.6-14.4-8.2-1.4-1.4-15.9-33.3-16.2-35.3l-.5-54.4-58.2-30.3-12.3-69.7c-8.1-1.2-45.1,3.9-49.5-1l-37.1-85-.5-3.4,31.5-70.6c5.3-1.6,29.1,0,31.3-6.7.8-2.3-.6-19.5-1.3-22.4-2.2-8.4-16.2-24-19.8-33.2-.7-1.7-1.2-3.1-.6-5,4.7-11.3,10.3-22.3,14.1-34,7.3-22.4,7.2-42.6,16.9-65.1,47.5-110.2,188.9-176,299.9-200.1,44.7-9.7,79.8-1.5,122.7,11.2,98,28.9,222.6,97.5,259,199,6.8,19,7,38.1,13.5,57.5,3.8,11.2,10.1,22.1,13.7,33.4,0,1.4-8.3,16.4-9.8,19.1-2.4,4.3-9.7,13.4-10.7,17.3-1.8,6.8-.6,15.6-2.3,22.5,9.9,7.9,21.3,4.2,32.4,6.5,9.6,23.9,23.5,46,31.4,70.6-9.8,26.3-22.2,51.8-33.2,77.7-1.3,3-1.7,9.3-5.1,11.4h0Z" fill="#ffffff"/>
  <path id="shading-jaw" class="shading" d="M1380.8,1185.8c-.2.4-2.1.7-2.8,1.7-8.6,10.8-16.2,26-21,39-4.2,11.4-5.1,22.7-13,32-18.8,22.4-51.8,45.5-78.3,57.7-5.4,2.5-12.5,3.7-16.7,7.8h20.5c2.7,0,5.1,1.2,7.9,1.1,18.1-.2,64.4-19.8,77.5-32.6,5.7-5.5,14.1-15.7,15-23.5,1.8,0,.7,2.4,1.5,4,3.1,5.9,15.5,5.2,21.5,6,.2,1.6-1.5.7-2.3,2.2-4.6,8.3-4.4,21.6-10.6,28.3-7.5,8.1-37.1,13.5-48.8,17.2-14.5,4.6-29.8,8.8-42,18.1l-52.8-14.8c-19.3-2.3-9.9,15.4-5.3,25.3,5.2,11.3,20.7,40,30.4,46.6,11.9,8.2,22.7-10.2,30-17,6.3-6,16.2-11.8,24.6-14.4,17.7-5.6,32.3,4.7,50.5,5.4,17.4.8,34.6-7.7,48.8-17.2,3.6-2.4,14.6-13.9,17.2-13.8,1.7,0,3.3,6.1,1.8,7.8-10.1,24.3-21.6,48-31.8,72.2-3.7,8.8-.8,14-13,15-9.3.7-15.8-1-24.2-1.8-4.8-.4-11.8,2.5-17.3-.2l-12.9,70.6-59,30.5c.4,11,2.6,23.6,2,34.5-.3,5.7-1.3,15.4-2.1,20.9-.5,3.1-13.4,31.4-15.4,33.6-3,3.2-11.6,6.2-15.5,9-.8-4.9-2.7-10.6-3-15.5-.6-11.2,2-11.3-2.7-23.2-.4-1.1-1.9-1-2.2-2-.8-2.2-.8-6.7-1.1-9.2l-2.3.2-50.2,51.8c-7.7,5.2-19.5,8.7-26.5,14.5-14.2,11.7-24.4,36.1-41.5,47.5-6.7,4.5-54.2,25.7-61.2,26.8-9.9,1.5-51.8,1.6-61.5,0-6.9-1.2-49.7-20.5-57.3-24.7-15.8-8.9-30.2-37.8-44.4-49.6-6.9-5.7-19-9.3-26.5-14.5l-51-52c-1,8.1-7.3,16-8.1,24-.6,6.2.6,14.6-.3,21.6-.2,1.7-3,1.8-2.1,4.4-.6.7-14.6-8.1-15.5-9-1.7-1.8-15-30.8-15.4-33.6-.7-4.4-.9-13-1.1-17.9-.5-12.2.6-24.4.5-36.6l-58.5-31.4-13-69.5-48.8-.2-38-86.6.9-6.2c8.2.4,11.8,8.2,18.6,12.7,25.3,16.9,38.4,19.8,68.5,13.9,17.1-3.4,19.1-7.5,37.2.4,15.9,7,19,16.2,30.6,25.4,9.6,7.6,13.6,7.9,22-1s31.8-49.1,32.1-60c.2-8.7-6.4-8.1-13.3-7.2-8.6,1.1-48.4,15.1-51,14.6-1.7-.4-12.3-7.9-16.5-9.6-20.3-8.4-48.8-11.8-67.2-20.8-14.9-7.3-11.3-20.9-17.7-33.2-.9-1.6-2.5-.6-2.3-2.2,6.3-.9,17,0,21-5.5,1-1.4.3-3.7,2-3.5,3,11.7,15.2,23.9,25.1,30.4,21.2,13.8,50.4,23.7,75.4,23.5h20.5l-34.7-16.8c-19.1-10.8-48.2-33.1-61.8-50.2-6.2-7.8-7.1-18.3-10.5-27.5-6-16.6-14.4-32-25-46,1.3-9,6.5-19.6,7.8-28.2,1.9-12.9,1.8-19.5,6.5-32.5,36.4-101.1,159.2-169,256.8-198.2,49.9-15,102.4-18.2,153.2-5.2,103.5,26.4,242.6,100.3,277.2,208.8,3.4,10.5,3,17.3,4.8,27.2.8,4.7,8.9,28.4,7.6,30.6l-.5-.2ZM1195.9,1382.1c-32.3-16.1-63.1-35.3-95.9-50.7-17.5-18.7-37.4-36.6-54.6-55.4-4.8-5.3-11.2-16-16-20-3-2.6-7.4-3-10.6-.6-4.5,3.4-12.7,16.4-17.4,21.6-16.7,18.6-36.8,35.6-53.6,54.4-32.9,15.3-64,34.2-96,51.2-.6,2.8,12.4,35,14.6,40.3,2.9,7.1,12.1,31.7,16,36.1,7.1,8,36.5,26.3,47,33,19.8,12.7,36.1,22.9,59.3,28.7,27.3,6.8,39.7,7.1,67,.6s43-16.6,65.7-31.3c10.4-6.8,35.9-22.5,43.4-30.6,4-4.4,12.7-27.4,15.6-34.4,2.1-5.1,16.8-41,15.5-42.9M728.3,1496.7c1.6,2,8.2,6.3,10.7,7.8,14.7,8.8,31.8,13.8,46.9,23.1,16.8,10.2,40.2,33.1,59.6,33.5,2.3,0,8.7-1.2,9.4-3.7s-13.6-27.6-16.4-30.3c-7.3-7.1-27.5-17.2-37.2-23.8-15.2-10.3-50.3-39.1-67.9-39.2-10.5,0-8.7,28.1-5.1,32.7h0ZM1319.7,1466.3c-5.9-5.9-24.1,4.1-30.4,7.6-16.2,8.9-31,21.4-46.2,31.8-12.7,8.7-30.1,15.7-38.6,28.4-2.2,3.4-10.8,17.7-11.4,20.7-1.1,5.3,6.2,6.5,10.3,6.3,16-.9,23.4-9.7,35.2-17.8,9.2-6.3,19.3-13.6,29-19,11.7-6.6,47.1-19.2,52.7-29.3,2.4-4.3,2.8-25.2-.7-28.6h0ZM1126,1664c-12-2.7-20.7,6.6-31.6,7.9-5.7.7-12.2-1.2-16.6-.7-7.1.8-22.9,12.1-31.2,14.9-14.8,4.9-30.2,4.7-45.1,0-8.8-2.8-23.9-14.1-31.2-14.9-4.4-.5-10.9,1.4-16.6.7-11-1.3-19.9-11-31.6-7.4,0,6.9,23.8,23.5,30,27,12.5,7.1,59.8,26.8,72.5,26.6s59.9-19.8,72.2-26.9c10.3-6,24.6-16.2,29.3-27.2h-.1Z" fill="#aaaaaa" style="opacity: 0.5" opacity="0.5"/>
  <path id="outline-jaw" d="M676,1140c5.2-3.1,18.7-3.2,19.1,4.5,0,2.3-.8,11.2-1.1,14-.3,3-.9,8.4-2.1,10.9-2.5,4.9-17.3,13.6-20.1,19.9-1.2,2.6-6.4,25.9-6.7,29.3-.2,1.7,0,2.8.4,4.4,2.1,6.9,13.8,19.7,17.7,27.3,5.7,11,7.2,24.3,12,35s13.5,10.7,22.5,15.6,17.7,11.1,25.3,17.2c-3.1,0-6.3.2-9.4,0-7.7-.8-35.8-6.7-41.8-10-6.1-3.3-8.8-18.4-12.8-20.4-2.5-1.2-7,0-10.3-.7-6.7-1.2-9.9-7.8-17.5-1.5-6.7,12.4-14.3,24.3-20.4,37.1-7.4,15.4-14.8,25.1-4.8,41.2,5.2,8.4,23.4,27,25.6,34.4,2.5,8.4-2.4,27.4,2.4,33.6,5.4,6.9,20.6,5.2,27.7,1.7,11.1-5.5,9.2-10.1,14.9-19.1,5.3-8.3,20.9-24.3,30.4-26.7,7.7-1.9,12.3,10.3,14,16,4.9,15.9,2,31.2,13.9,44.1,1.1,1.2,9,8.5,10,7.5-.8-5.6,4.8-8.4,6.5-13,3-7.9-3.1-20.6-5-29-2.8-12.3-5.1-24.7-8-37-1-4.1-6.2-19.9-5.4-22.3,1.2-3.8,23.7-9.1,24.9-10.7.4-.5-2.9-8.7,0-12.6,1.3-1.8,8.8-6.8,11.1-8.9,3.9-3.5,23.1-22.9,25.7-23.4,4.4-.8,5.2,2.4,8,3.6,5.1,2.1,10.8,2.5,15.7,4.3,1.1.4,2.4.5,2.5,1.9-11.2,6.3-23.6,13-34.3,20.2-2.7,1.8-16.6,11.8-17.6,13.4-1.6,2.6-2.2,9.7-2.2,12.9l3,44.5c-9.8-13.1-8.1-31.3-10-47-2.5,1.9-15.3,3.5-15.9,5.6,4.5,18.6,8.6,38.8,15.1,56.7,7.3,20.1,19.2,40.4,27.7,60.3,11.1,7.8,27.2-5.8,33-15,5.6-8.7,8.1-23.6,22.5-13.5,11,7.7,22.9,21.4,33.5,30.5,48.3,41.3,92.1,59.6,157.4,50.3,40-5.7,69.7-25.7,99.7-51.3,6.2-5.3,32.4-31.5,37.5-32.5,11.9-2.2,14.8,13.8,21.4,21.5,7.4,8.7,17.4,14.2,29.1,12,4.4-.8,21.2-8.4,26.3-10.7,9.2-4.2,20.3-11.4,27.2-18.8,10.4-11.3,8.4-24,12-38,1.7-6.6,6.3-23.8,15.5-21.6,10.7,2.6,27.2,21,32.6,30.4,1.7,3,2.2,6.8,3.9,9.1,6.3,8.5,28.5,13.3,36,5.1,5.6-6.1.4-25.5,2.9-34.1s20.4-25.8,26-35c9.4-15.8.8-28.3-6.5-43.3-5.8-11.8-13.2-22.7-19.2-34.3-7.1-5.6-12.2.4-18.5,1.5-2.9.5-6.9-.4-9.3.7-3,1.4-6.8,14.4-9.5,17.5-1.4,1.6-7.6,4.3-9.9,5.1-8,2.8-25.7,6.6-34.3,7.7-3.4.4-6.8.2-10.2.2,6.6-5.5,15.7-12,23.3-16.2,11.5-6.3,19.8-5.1,25.5-19.5,3.9-9.8,5.3-20.7,10.3-30.7,3.9-7.7,16.9-22.6,18.7-29.4.4-1.7.2-2.8,0-4.5-.6-4.4-5.6-25.6-7.2-28.8-3.7-7.3-19-15.9-20.5-21.5-.8-3.2-2.6-24.3-1.6-26.4,2.1-4.5,12.7-3.4,16.5-1,.5,1.9,4.4,14,5,14.5,6.2,5.3,26.1,4.1,26.1,17s-1.7,15.9.2,26.7c1.7,9.8,9.7,22.5,6.4,31-2.3,6-12,20.9-15.9,27.1-3.6,5.6-8.1,10.6-11.8,16.2,8.8.3,18.9-17.9,26.1-12.1,3.4,2.8,13.7,18.6,16.7,23.3,5.1,7.9,10.9,17.6,15.1,25.9,3.9,7.8,17.4,38.8,16.1,45.8-.2,1.2-13,15.6-15.2,18.8-10,14.2-21.3,32.5-25.7,49.3-1.9,7.2-2.7,14.7-4,22-1,1.4-27.6,11.9-31.1,12.9-10,2.9-17.2,1.5-24.9-5.4-.9,8.8-2.6,17.7-3,26.5s1.7,33.1-.8,39.2c-.6,1.5-11.3,15-12.5,15.5-6.3,3-15.7-1.7-24.7,3.3-22.6,12.7-18.8,48.5-26.9,68.1-6,14.6-40.4,52.5-54.6,59.4-1.2.6-2,1.3-3.6.9,1.2-14.7,3-35.1-3.9-48.6-.4-.8-.4-3.2-2.1-1.4-.7.7-3.6,13.8-6.6,17.9-8.6,11.7-30.9,6.8-39.2,20.8-5.2,8.9-7.6,22.3-13.4,30.6s-48.5,28.9-59.6,33.4c-15.1,6.1-64.1,21.2-78.8,21.2s-63.4-15.1-78.8-21.2c-11.1-4.4-55.3-26-60.6-34.4-6.9-11.1-8.5-31.6-21.5-37.6-14.4-6.6-26.5-2.6-33.9-20.1-1.1-2.5-2.5-10.3-2.8-10.7-1.3-1.6-1.8.4-2.2,1.3-1,1.8-4.8,14.6-4.8,16.2v30c0,.3,1.4,1.4,1,2.5-1.7.2-3-.3-4.4-1.1-15.2-8.7-49.8-45.6-54.8-62.2-6.2-20.6-5.2-52.1-25.9-65.1-8.2-5.2-18.3-.3-24.7-3.3-.9-.4-12.2-14.2-12.7-15.3-2.1-5.2-.2-29.6-.5-37.4-.4-9.1-2-18.5-3-27.5-4,1.6-7.6,4.7-11.9,5.6-2.8.6-5.6.7-8.5.3l-35.7-14.3c-1.5-7.3-2.1-14.8-4-22-4.3-16.8-16.4-36.3-26.5-50.5-2.2-3-13.9-15.8-14.2-16.8-1.1-3.6.8-8.3,1.8-11.8,5-18.6,17.3-42.1,27.6-58.4,2.5-4,17.5-26.2,20.1-26.9,6.2-1.8,15.2,12.1,22.3,12.8.7-.7-9.3-13.3-10.4-15.1-4-6.2-14.5-22.3-16.8-28.2-2.7-7.1,5.4-22.1,6.9-30.5,1.9-10,.2-18.4,1.3-27.7,1.2-11,17.6-11.6,25.8-15.7,2.1-4.7,2-9.6,3.2-14.8h.4v-.2ZM799,1627.5v-20c0-3.5,9.1-26.6,11.7-27.4,6.9-2.2,27.9,17.6,32.8,22.9,7.6,8.1,14.7,20,23,27,10.5,8.8,23.6,12.8,33.5,23.6,22.2,24.2,21.6,36,55.1,50.9,29.5,13.1,59.4,23.9,92.4,17.4,12.7-2.5,58.9-21.3,68.9-29.1,12.4-9.6,23.1-31.8,35.2-42.8,9.6-8.8,25.5-14.6,34.6-23.4,6-5.9,12.7-15.8,18.4-22.6,2.8-3.3,8.4-7.2,10.3-10.7,4.4-8.2,10.5-40.4,10.3-49.8-.3-12.5-3.5-25.3-4.2-37.8-17.1-12.8-20.5-.4-31.4,9.3-16.5,14.9-41.1,22.8-63,25-69.4,7-135.6,7-205,0-22-2.2-46.4-9.9-63-25-7-6.3-10.5-15.9-22-15.1-3.7.3-6,3.1-8.5,3.7-4.9,1-22.9-12.7-28.3-15.8-18.4-10.2-46.1-20.5-61.1-34.9-6.9-6.6-2.4-11.8-2.5-19.5s-3.8-23.4-6.8-30.2c-.5-1.1.2-1.5-1.7-1.3-9.4,1.3-19,20.2-19.3,28.8-.2,6.3,6.7,18.5,7.6,26.9,1.5,13.9-4.4,40.4,8.8,49.2,12.8,8.6,39.9,13.7,50.8,26.2,5.7,6.6,1.5,7.9.7,14.6-3.6,29.6,1.4,55.9,20.9,78.9.5.6,3.9,4,2,1h-.2ZM1248,1630c19.4-21.2,26.1-39.8,25-68.5-.3-7.8-4-21.4,0-27.8,4-6.1,20.2-13.6,27.2-16.8,15.2-7.1,31-7,32.7-27.3,1.3-14.8-1.6-26.3,2.5-41.5,3.4-12.7,7.8-13.2,2.5-27.5-2.8-7.7-9.2-17.6-18-18.4-5.5,13.3-7.4,26.1-7,40.5,0,3,2.2,4.9,0,8.1-1.5,2.2-16.5,12.2-19.8,14.2-9.2,5.7-59,28.5-60.9,35.1-2.7,9.4,7.3,31.3,8.6,41.6l-10,40.5c2.4-1.4,5-2.6,7.9-1.9,6.7,16.4,13.1,31.6,9.1,49.9v-.2h.2ZM780,1448c-2-1.4-5.5,2.6-5.8,4.7-.9,5,7.2,15.1,12.8,15.2-.9-2.6-6.1-19.4-7-20h0Z" class="outline" fill="#000000"/>
    </g><g class="trait-group" data-category="mouth" id="mouth-scrappy">
      <path id="fill-muzzle" fill="#ffffff" d="M1038 1292s-.4 1.7.7 2c10.3 2.8 18 4.3 25.8 13 1.9 2.2 4.9 8.8 6.5 9.5 2.6 1.2 6.6 0 9.5.5 11.4 1.5 21.2 3.7 31.2 9.8 2.1 1.3 9.2 7.8 10.2 7.1.3-.3 0-1.7 0-1.9 2.4-1.8 32.7.6 38 1 5.2 4.2 13.2 5.5 19.2 8.3 13.7 6.4 22.5 16.1 29.9 29.1 8.4 14.6 7.7 17.8 3.1 33.4-2.5 8.5-4.8 21.8-16.3 20.2 1.5-15.5-14.8-32.4-26.5-41-3.2-2.4-11.3-7.2-6 0 10.8 14.7 20.2 14.8 21.5 37.5.6 10.3-8.4 32.9-15.4 40.5-.6.7-7.1 6.3-7.6 6.5-3 1.6-6.9-6.1-7.8-8.2-3.6-7.8-4.7-15.5-9.7-23.3-1.1-1.7-10.8-13.7-12.4-12.1 5.6 13 9 46.2-2.5 56-4.4 3.7-9.4 1.9-13.3 3.7-2.8 1.3-3 5.7-4.8 6.1s-7-3.1-9.4-3.5c-8.9-1.3-13.2 17-18.7 17.5-2.5.2-10.7-11.9-18.4-9.4-7 2.2-15.4 21.2-24.4 23.6-6.3-6-3.4-14-5.8-21.2-1.2-3.5-4.2-6.7-5.8-10.2-5.4-12.7-2.8-19.9-.2-32.2.6-3 0-5.9.9-9.1.2-.7 6.3-12.3 6.9-13.1 3.7-5.4 19.2-12.4 22.7-3.8.9 2.2 0 8.7 2.2 7.7 5.1-4.9 10.2-9.9 15.5-14.5 11.5-10 14.1-9.7 21.2-24.8 1.5-3.3 6.5-14.5 6.6-17.3 0-3.4-9.2-14.7-11.8-17.8-1.4-1.7-9.5-11.5-10.2-11.8-6.4-3.2-28-2.3-34.7.8-7.9 3.6-12.5 12-19 17-1 .8-1.3 1.9-3 1.5l.8-12.7c3.6-4.3 21.7-23.3 21.1-27.5-.4-2.6-11.3-13.4-12.9-11.7 4.4 12.8.7 8.7-7.3 12.2-1.2.5-2.9 2.7-3.2 2.7s-2-2.2-3.2-2.7c-3.4-1.5-9.7-.4-9.3-5.6 0-1.1 4.1-7.6.5-6.6-2.8.8-12 9.9-11.3 13.2 0 .6 4 7 4.8 8 1.5 2 5 5.9 7 8.3 3.2 3.9 9.7 7.6 9.9 13.1 0 1.6-.8 3.1-.8 4.8s2.6 8.1-2.5 3.6c-6.2-5.3-10.2-13.6-18.5-17.5-6.5-3-30.3-4.3-35.7-.2-.8.6-8.8 10.5-10.2 12.2-2.4 3-10.9 13.7-10.8 16.8.2 5.4 11.7 29 15.7 33.2 3 3.2 9.3 6.8 13 9.9 5 4.3 9.7 9.1 14.5 13.5l4.2-11.1c4.9-3.1 17.7 2.6 20.8 7.1 1 1.5 5.1 9.9 6 11.9 2.8 6.4 5.1 25.4 4.4 32.4-1.1 10-7.9 15-9.4 22.6-1.3 6.4 1.1 14.9-5.8 18.9-8.1-2.6-17.3-21.5-23.6-23.5-8.2-2.6-15.9 9.6-18.4 9.4-5.3-.4-8.7-14-13.9-16.1-6.9-2.8-11.5 2.7-14.1 2.1-1.8-.4-2-4.8-4.8-6.1-4.5-2-9.6.3-14.3-4.7-10.9-11.5-6.5-42.2-1.5-56.1-9.1 6.7-14.1 14.8-18.5 25-1.6 3.6-2 7.5-3.7 11.3-1 2.1-4.9 9.8-7.8 8.2-.4-.2-6.9-5.9-7.5-6.5-3.9-4.3-13.8-24.4-15-30-2.8-12.9 1.4-26.5 9.5-36.5 4.1-5.1 11.3-9 13-15.5-2.4-2.4-22.3 17.4-24.4 20.1-5.4 6.8-11 15.9-9.6 24.9-8.3.5-10.7-3.3-13.3-10.2-2.7-7.1-7.8-22.8-6.2-29.8 3.7-16.2 21.4-35.8 36.3-42.7 6.2-2.9 13.9-4.1 19.2-8.3 12.5-.8 24.5-2.3 37-1 0 0 .7 2.1.5 3 9.5-8.2 20.6-14.8 33.1-16.9 4.7-.8 14.8-.4 18.1-1.8 1.6-.7 5.2-7.7 7.2-9.9 8-8.4 15.2-9.7 25.4-12.5 1.1-.3.6-1.9.7-2 1.1-.7 25.9-.7 27 0v.2Z" class="fill" data-original-prefix="fill"/><path id="fill-teeth14" fill="#ffffff" d="M1039.1 1601.9c-.8-.5-7.2-15.4-7.9-17.6-4.2-13.6-7-37.9-1.5-51.1 5.8-13.9 10.8-1 20-5 1.9-.8 7.6-6.8 9.2-8.8 2.6-3 3.6-9.1 8-8 12.8 3.1 21.1 24.2 22 36.1 2.3 30.4-23.4 40.7-45.2 53.7-1.2.5-3.6 1.3-4.6.6Z" class="fill" data-original-prefix="fill"/><path id="fill-teeth13" fill="#ffffff" d="M1015.7 1527.3c10.2 8.9 6 44.1 2.3 56.2-1.9 6.4-6 12-8.1 18.3h-2.3c-12.1-7.1-26.3-12.4-36.1-22.9-9.1-9.8-12.3-17.9-11.5-31.5.8-11.8 9-32.3 21.2-35.9 4.8-1.4 5.7 4.5 8.2 7.4 1.8 2.1 8.3 8.8 10.5 9.5 6 1.9 12.5-4.1 15.8-1.3z" class="fill" data-original-prefix="fill"/><path id="fill-teeth12" fill="#ffffff" d="M904 1461c0 2.2-1.1 3.8-.8 6.2s7.4 22.5 8.8 24c3.7 4.1 11.1 2.3 15.9 2.9 4.9 13.5-4.3 23.9-8.6 35.6-2 5.3-8.4 33.1-12.8 34.3-3.3.8-11.7-18-12.8-21.2-6.8-20.9-8.8-51.8 1.8-71.7.6-1.2 7.1-11.6 8.4-10.1Z" class="fill" data-original-prefix="fill"/><path id="fill-teeth11" fill="#ffffff" d="M1144 1564c-1 .7-1.8-.4-2.4-1.1-5.8-5.8-8.7-24.8-11.8-33.2-4.3-11.7-13.8-21.9-8.6-35.6 18.6 2.9 18.2-8.8 23.1-22.4l2.2-9.8c10.2 11.1 15.2 27.6 14.6 42.5-.5 13.7-3.2 35.3-9.5 47.5-.8 1.5-6.9 11.6-7.5 12Z" class="fill" data-original-prefix="fill"/><path id="fill-teeth10" fill="#ffffff" d="M949 1569c5.5 22.1 11.4 45.4 9 68.5-.5 5-1.3 9.2-7 6.9-3.4-1.3-17.5-13.4-19.5-16.5-7.4-11.8.3-39.7 8-50.8 1.2-1.7 7-10.1 9.4-8.1Z" class="fill" data-original-prefix="fill"/><path id="fill-teeth9" fill="#ffffff" d="M1100 1569c3.4-2.9 13.3 14.1 14.5 17 4.8 11.7 9.3 33.5 1 44-2.1 2.7-18.5 16.5-20.9 15.9-1.9-.4-3.4-6.5-3.6-8.4-1-8.7 0-26 1-35 1.1-10.9 6.5-22.5 8-33.5" class="fill" data-original-prefix="fill"/><path id="fill-teeth8" fill="#ffffff" d="M1167 1547c.9-6.7-1-15-.6-21.3.3-6.3 3.7-14.6 3.6-21.2 0-5.7-4.8-19.5-4-24 .5-2.9 3.5-2.8 5.5-4.5 6.2-5.3 10.4-15.8 16.9-4.9 14.2 23.5-1 56.5-18.4 74.4-.9 1-1.3 1.9-3 1.5" class="fill" data-original-prefix="fill"/><path id="fill-teeth7" fill="#ffffff" d="M881.7 1478.3c3.3 2.9-2.8 21-2.8 26.2s2.6 12.6 3.1 18c.7 8 0 16.5-.5 24.5-1.8 0-11.7-13.3-13.3-15.7-11.2-16.8-20.3-43.7-7-61.7 6.2-8.4 9.7.9 14 4.7 2 1.9 5.7 3 6.6 3.9Z" class="fill" data-original-prefix="fill"/><path id="fill-teeth6" fill="#ffffff" d="M1018 1613v16.5c0 .9-10.8 13.2-11.9 14.1-6.3 4.8-8-2.6-10.6-5.5-5.5-6-17.9-.4-24.4-5.6-.9-.7-4.1-8.3-4.1-8.9v-24.5c12.3 3 28.7 18.5 41.4 16.9 3.5-.4 6.1-3 9.6-2.9Z" class="fill" data-original-prefix="fill"/><path id="fill-teeth5" fill="#ffffff" d="M1102.5 1494c3.3-.8 5.3 8.5 6.3 10.7 5 10.5 15.3 30.3 11.4 42.1-2.2 6.7-15.6 23.4-20.4 11-4-10.4-4.1-44.7-1.1-55.5.4-1.6 2.4-7.9 3.8-8.2Z" class="fill" data-original-prefix="fill"/><path id="fill-teeth4" fill="#ffffff" d="M917 1563c-1.6 13.5 2.8 27.4 2 40.5-.5 8.8-4.2 18.6-5.5 27.5-5.8-5.6-10.5-15.7-11.4-23.6-.6-5.2.7-25.8 2.4-30.3.6-1.6 10.5-16.2 12.4-14.1Z" class="fill" data-original-prefix="fill"/><path id="fill-teeth3" fill="#ffffff" d="M1135 1631c-.4-8.9-4.4-17.8-5.1-26.5-1-13.6 3.6-27.7 2-41.5 2.2-2.4 11.9 13 12.5 15 2 6.8 2.7 27.3 1.2 34.3-1.3 6.3-5.5 14.8-10.8 18.7z" class="fill" data-original-prefix="fill"/><path id="fill-teeth2" fill="#ffffff" d="M1154.1 1604.9c-3.4-2-5.1-22.3-3.9-26.2.8-2.6 8.9-5.2 10.2-8.8l5.1-10.9c3.8 3.4 5.1 7.2 4.3 12.2-.7 4.5-5.2 22.3-6.9 26.2-.9 2.2-6.1 9-8.8 7.5" class="fill" data-original-prefix="fill"/><path id="fill-teeth1" fill="#ffffff" d="M885 1559c.4.4.7 7.1 3 10.5 2.7 3.9 10.5 6.9 11 10-.8 4.7-.7 23-4 25.4-2.5 1.8-7.7-4.5-8.7-6.7-1.6-3.6-6.3-22.5-7-27-.6-3.9 2.5-15.6 5.8-12.3Z" class="fill" data-original-prefix="fill"/><path id="shading-mouth2" fill="#aaaaaa" d="M918 1443.5c.8 5.3 5.6 13.8 10.1 16.9 11.5 8.3 16.2-.3 22.4-9.4 2.5 5.4 3.4 11.5 6 17 1.4 2.8 5.7 12 7.5 5.5l4-11.5c1.6 7.5 6.3 15.4 11.5 21 4.3 4.7 18.8 15.4 24.6 9.6 2-2.1 8.3-17.9 10.8-22.2 1.2-2.2 7.8-13.8 9.7-13.3 1 .2 8.5 13.2 9.7 15.3 2.4 4.5 7.3 17.7 9.8 20.2 3.8 3.8 10.5.4 14.4-1.8 10.5-5.9 18.5-17.2 21.7-28.8l4.2 12.3c.3 1.2 1.9 2.4 2.8 1.7.6-.4 5.8-11.3 6.5-13 .8-2 2.8-12 4-12 6.8 10.7 12.9 18.4 24.5 7.5 8.6-8 9.3-23.8 7-34.5 3.5-3.1 21.1 16.1 26.6 16.9 9.1 1.4 17.6-11.8 19-19.9 3.5-20.5-12.9-39.2-30.9-46.2l-12.7-4.8c15.4 0 28.2 2.9 41.1 11.4 4.8 3.1 12.2 10.9 17.6 11.4 6.2.6 10.1-4.1 10-10-.4-19.3-25.8-38.1-39.7-48.8 15.4 2.4 34.6 11.8 45 23.5 7.8 8.8 19.1 25.1 19.1 37s-6.4 28.5-9.2 32.8c-3.3 5.3-11.7 5.4-13.4 10.6-.9 8.1-2.1 16.4-2.5 24.5-1.5 29 1.4 45.2-10.8 73.2-3.6 8.2-12.7 20.4-14.9 27.1-4.2 12.8-.7 26.4-9.1 38.9-3.2 4.8-8.4 6.7-11.2 10.8-1.7 2.5-2.4 6.1-4.2 8.8-4.5 6.7-14.6 23-21.6 8.9-1.6-3.3-1.3-12.9-6.7-6.2-1.4 1.7-1.9 4.4-3.5 6.5-3.7 4.7-17.7 19.6-23.5 19.5-2.2 0-4.5-4.1-6.6-5.4-7.9-5-21.1-6.3-29.2-1.4-7.3 4.4-9.5 13.6-18.1 6.8s-6.4-10.8-20.1-9c-5.6.7-11.4 12.6-16.9 12.1-2.8-.2-11.4-11.1-18.5-12.6-6.3-1.3-17.5.7-23 4.2-2.6 1.7-4.1 5.6-7.5 5.4-5.7-.3-19.8-15.8-23.6-20.5-1.2-1.5-4.4-10.6-7.1-6.9-2.5 3.4-.6 9.9-7.2 12.7-7 3-14.9-11.2-18.1-16.4-1.2-1.8-1.2-4.3-2.6-6.4-2-3-6.8-5.4-9.5-8.5-10.4-11.9-6.7-27.7-10.7-41.3-.8-2.6-5.6-8.5-7.3-11.7-18.4-35.7-16.4-45.6-18.4-84.6-.4-7.7-.6-20.7-2.2-27.8-1.5-6.2-11.1-6.1-14.2-11.8-3.4-6.1-9.3-29.6-8.6-36.4 1.2-10.3 16.2-31.2 24-38 10.5-9.2 26.2-16.5 40-18.5l-21.5 17c-7.2 6.4-26.8 32-14.8 39.9 9 5.9 16.7-4.5 23.7-9.1 12.7-8.4 25.3-11.8 40.7-11.8l-17.3 7.2c-18 9.4-33.1 32.7-22.1 52.8 1.7 3.1 8.6 10.4 12 11.1 9.1 1.7 20.7-15.4 29.5-18 .6 6.4-.9 14.3 0 20.5zm-37.1 40.6c-12.3-.5-17.1-20.2-22.8 1.5-3.4 13 1.2 26.4 9.4 36.5 1.5 1.8 12.7 13.1 13.9 12.9.8 0 2.5-2.3 2.8-3.2 2.9-7.1-3.2-12.2-4.2-19.2-1.5-9.8 0-18.7.9-28.4Zm301.8-8.9c-3.2.8-6.3 6-8.8 7.3-2.1 1.1-7.2 1-7.8 3.2-.5 1.7 3 10.8 2.9 14.8 0 3-1.5 13.9-2.2 16.8-.9 3.6-3.9 5.7-3.9 10.2s1.4 7.1 3.7 7.4c1.9.3 15-14.4 16.8-17 5.7-8.5 9-18.8 7.3-29.2-.5-3-4.4-14.5-8-13.6Zm-284.8 10c-4-2.3-6.5 9.9-6.8 12.5-1.2 10.5 3 38 8.7 47.1 1.9 3 5.4 6.9 9.2 7.3 3.7-15.6 12.6-29.2 21-42.5-2.3-.4-1.7-2.9-2.7-3.5-1.5-.9-7-1.9-9.7-3.1-4.7-2.2-12-7.7-15.6-11.4-1.2-1.2-3.8-6.2-4.2-6.3ZM1139 1552c8.3-2 11.9-12.2 13.9-19.6 3.1-12.1 6.1-33.4 1.1-44.8-3-6.9-5.8 1.7-8.3 4.1-3.9 3.8-11 9.3-16 11.6-2.5 1.1-7.8 1.8-9.1 2.7-.7.5-.5 1.8-1 2.7-.3.4-1.7.4-1.6.9 0 1 7.9 12.3 9.2 14.8 4.8 8.8 9.1 18 11.8 27.7Zm-197.7 5.7c8.1 8.1 9.5 0 10.5-7.3.8-5.6 2.7-20.6 1.7-25.4-3.6-17.2-21.3-15.9-21.6 3.6 0 6.8 4.6 24.3 9.4 29.2Zm161.5-44.5c-5 1.3-8.5 9.3-8.8 14.2-.2 4 2.4 28.5 3.8 31.3 2.5 5 7.5 0 9.8-2.7 6.8-8.3 11.6-30.7 4.5-39.5-2.7-3.3-4.8-4.4-9.2-3.3zM1023 1544c-.7-.7-.8-7-5.1-9.4-8.9-5-21.8-.8-32-4-10.4-3.3-9.4-13.1-16.1 1.8-2.9 6.4-9.1 24.4-6.3 30.7 1.1 2.4 17.8 15.6 21.2 17.8s18.2 11.7 21.1 10c3.1-5.6 9.3-9.5 12.6-14.9 1.8-2.8 4.1-11.5 4.6-11.9 1.6-1.7 1.7.5 2.1 1.4 1.6 3.6 2.1 6.8 4.5 10.5 3.3 5.2 9.2 9.3 12.4 14.6 3.1 1.9 15.5-5.9 18.9-8.1 4.5-2.9 22.9-17 23.9-21.1 2.2-9.7-6.6-28.3-10.9-37.2-4.9 1-7.8 5.2-12.7 6.7-9.2 2.8-28.2-1.6-33.7 6.3-.9 1.2-2.6 8.9-4.5 7zm-136 18c-.7-.6-3.5 0-4.5.9-6 6.2 2.4 31.6 14.6 27.6 4-1.3 3.8-9.4 2.8-12.9-1.1-3.9-7.2-4.1-9.8-7.2-2.1-2.5-2.7-8.2-3-8.5Zm274.1 0c-.3.3-.9 6-3 8.5-2.6 3.1-8.7 3.3-9.8 7.2-1 3.4-1.2 11.6 2.8 12.9 13.4 4.4 20.2-24.5 14.1-28.1-.9-.5-3.5-.9-4-.4Zm-216.4 7.2c-1.5.4-5.1 4.6-6 6.1-3.4 5.6-5.6 32.3-4.8 39.3 1.3 10.9 15.2 18 19.5 3.5 1.7-5.6 2.6-21.4 2.5-27.6 0-1.1-5.8-19.7-6.5-20.5-1.2-1.4-3.2-1.3-4.8-.8Zm153.3-.1c.2 6.6-5.4 14.7-6 20.6-.5 4.5 1 25.3 2.4 29.4 4.2 12.1 16.9 7.3 19.1-2.9 1.1-5.2 0-16.8-.6-22.6-1-9.7-1.7-25.5-14.9-24.5m-180 1.9c-20.5 3.8-17 28.7-9 43 4 2.9 10.4-17 10.7-19.8.9-7.5-2.9-15.5-1.8-23.2Zm218 43c2.5 1.8 7.2-9.1 7.7-10.8 3.9-12.8 1.6-30.1-13.7-32.2.5 7.4-2.8 16.2-1.9 23.4.3 2.7 6.4 18.5 7.9 19.6m-148.2 10.2c1.4.8 4.8 8.6 9.5 11 11.1 5.8 20.2-6.4 20.7-16.7.8-13.7-7.2-7.7-16.5-8.6-8.4-.8-15-4.8-21.8-9.2-5.5-3.5-13.6-14.6-14.7-1.4-.5 5.1 1.4 7.5 1.8 11.2s-2 5.9.5 10.7c4.8 9.3 18 1.3 20.7 2.8zm93.1-31.1c-2.1-1.5-19.7 12.7-23.9 14.4-2.3 1-7.9 2.3-10.5 2.5-10.5.9-18.8-5.4-16.4 11.4 1 7.3 7.9 15.8 16 15.1 9.4-.8 11.9-11.6 14.6-12.4 4-1.3 12.3 5.7 18.9-1.1 4.3-4.4 1.3-8.4 1.5-12.5 0-2.3 1.9-4.8 2-8.1 0-1.9-.8-8.5-2.2-9.4Z" class="outline shading" data-original-prefix="shading" opacity="0.5" style="opacity: 0.5"/><path id="shading-mouth1" fill="#aaaaaa" d="M1041 1343c6.1.5 12.7-1 17.5-5 1.5-1.3.9-3.7 2.8-2.9 10.1 7.9 37.9 17.4 43.8 28.2 3.6 6.5 4.6 17.5-1.8 22.6-5.6 4.5-20.8 10.8-28 15-4.9 2.8-9.7 6.6-14.7 9.3-7.4 4.1-25.5 14.5-32.6 16.4-2.9.8-5.2.8-8.1 0-14.5-3.8-42.2-22.5-56.3-30.7-6.2-3.6-21.2-9.1-23.2-15.8-5.5-18.4 15.7-28.3 28.7-35.4 2.3-1.2 15.5-8.6 16.5-8.7 2.9-.3 4.2 2.9 6.7 4.2 4.2 2.3 10 3.2 14.7 2.8-.3-5.1-3.3-11.3-1.8-16.3.5-1.6 12.5-13.9 14.5-14.4 3.9-1 8.2-.3 11.6 1.9 1 .7 10.8 11.1 11.2 11.8 2.1 5-1.2 11.8-1.5 17" class="outline shading" data-original-prefix="shading" opacity="0.5" style="opacity: 0.5"/><path id="outline-mouth3" fill="#000000" d="M889 1333c-5.3 4.2-13 5.4-19.2 8.3-14.9 6.9-32.6 26.5-36.3 42.7-1.6 7 3.5 22.7 6.2 29.8 2.6 6.9 5 10.8 13.3 10.2-1.4-9 4.2-18.1 9.6-24.9 2.1-2.6 22-22.5 24.4-20.1-1.7 6.5-8.8 10.4-13 15.5-8.1 10-12.3 23.6-9.5 36.5 1.2 5.6 11.1 25.8 15 30 .6.7 7.1 6.3 7.5 6.5 3 1.5 6.9-6.1 7.8-8.2 1.7-3.8 2.1-7.7 3.7-11.3 4.4-10.2 9.4-18.4 18.5-25-5.1 13.9-9.5 44.6 1.5 56.1 4.8 5 9.9 2.7 14.3 4.7 2.8 1.3 3 5.7 4.8 6.1 2.6.6 7.2-4.9 14.1-2.1 5.2 2.1 8.6 15.6 13.9 16.1 2.5.2 10.2-12 18.4-9.4 6.3 2 15.5 20.8 23.6 23.5 6.9-4 4.5-12.6 5.8-18.9 1.5-7.6 8.3-12.6 9.4-22.6.8-7-1.6-26-4.4-32.4-.9-2.1-5-10.5-6-11.9-3.1-4.5-15.9-10.2-20.8-7.1l-4.2 11.1c-4.8-4.4-9.5-9.2-14.5-13.5-3.7-3.2-10-6.8-13-9.9-4-4.2-15.5-27.8-15.7-33.2 0-3.1 8.4-13.8 10.8-16.8 1.4-1.8 9.5-11.6 10.2-12.2 5.4-4.1 29.2-2.8 35.7.2 8.4 3.8 12.4 12.1 18.5 17.5 5.2 4.5 2.5-1.7 2.5-3.6s.9-3.2.8-4.8c-.2-5.4-6.7-9.2-9.9-13.1-2-2.4-5.5-6.3-7-8.3-.8-1-4.7-7.3-4.8-8-.7-3.3 8.6-12.4 11.3-13.2 3.6-1-.5 5.5-.5 6.6-.4 5.2 5.9 4.1 9.3 5.6 1.2.5 3 2.7 3.2 2.7s2-2.2 3.2-2.7c8-3.5 11.7.6 7.3-12.2 1.6-1.7 12.5 9.1 12.9 11.7.6 4.2-17.5 23.2-21.1 27.5l-.8 12.7c1.7.4 2-.7 3-1.5 6.5-5 11.1-13.4 19-17 6.8-3.1 28.3-4.1 34.7-.8.7.3 8.8 10.1 10.2 11.8 2.6 3.1 11.9 14.4 11.8 17.8 0 2.8-5 14.1-6.6 17.3-7.1 15.2-9.7 14.8-21.2 24.8-5.3 4.6-10.4 9.6-15.5 14.5-2.2.9-1.4-5.6-2.2-7.7-3.4-8.6-19-1.6-22.7 3.8-.6.8-6.7 12.4-6.9 13.1-1 3.2-.3 6.1-.9 9.1-2.6 12.3-5.2 19.6.2 32.2 1.5 3.5 4.6 6.8 5.8 10.2 2.5 7.2-.5 15.2 5.8 21.2 9-2.3 17.4-21.3 24.4-23.6 7.7-2.4 15.9 9.6 18.4 9.4 5.6-.5 9.8-18.8 18.7-17.5 2.3.3 7.6 3.9 9.4 3.5s2-4.8 4.8-6.1c3.9-1.8 8.9 0 13.3-3.7 11.5-9.9 8.1-43 2.5-56 1.6-1.7 11.3 10.4 12.4 12.1 5.1 7.8 6.1 15.5 9.7 23.3 1 2.1 4.8 9.8 7.8 8.2.4-.2 6.9-5.8 7.6-6.5 7-7.6 16-30.2 15.4-40.5-1.3-22.7-10.7-22.7-21.5-37.5-5.3-7.2 2.8-2.4 6 0 11.8 8.6 28 25.5 26.5 41 11.4 1.6 13.7-11.7 16.3-20.2 4.6-15.6 5.3-18.8-3.1-33.4-7.4-13-16.3-22.7-29.9-29.1-6-2.8-14.1-4.1-19.2-8.3 9.3.7 19.7 2.8 29.2 5.3 7.4 1.9 14.4 3.9 20.7 8.3 3.2 9.3 27.6 34.6 28 42 .2 3.7-8.2 22.5-10 27.9-2.5 7.2-2.6 16-10 21-1.9 1.3-8.4 2-9 3.2-4.1 7.9-1.4 38-1.9 48.8-1.1 21.6-7.6 43.1-20.5 60.5-.9 1.2-2.6 1.5-3.6 2.7-4.3 5.6-2.8 18.6-4.3 26.5-1.2 6-5 13.1-5.6 18.4-.4 3.5 1.3 7.7.8 9.7s-10.7 8.6-13.2 9.9c-2.2 1.2-5.7 1.5-6.5 2-.6.4-5.4 10.9-7.2 13.3-2.1 2.7-11.1 11.3-14 12.1-4.1 1.2-7.9-10.3-9.9-13s-2.3 2.3-3.6 4.3c-4.3 6.7-25.1 26.6-32.4 28.6-1.7.5-3.3.7-5 .5-.4-5.9 3.2-9.9-1.5-15.1-8.2-9-20.9-.3-24.3 8.8-1.8 4.9-1.6 20-8.6 18.1-4.6-1.3-20-25.6-23.2-30.8-5.7 8.9-12.2 19.9-19.5 27.4-11.2 11.7-9.9-11-13.8-18.2-3.8-7.1-14-12-21.1-6.7-6.7 5-2.9 9.6-3.1 16.4-3.5 3.5-24.3-13.8-27.5-17-1.3-1.3-10.5-12.2-11-13-.7-1.4-.2-6.3-2.6-3.3-2.1 2.7-6.2 14.3-10.2 13.3s-12-10.2-13.7-12.4c-2.1-2.7-6.6-12.8-7.2-13.2-.8-.5-3.8-.6-5.8-1.7-2.3-1.2-11.9-7.4-13-9-2.1-3.2.4-6.9 0-11-.7-6.8-5.9-15.3-6.8-24.2-.5-5 .6-10.7-.6-15.4-1-4-8-10-10.7-14.3-15.3-24.4-17.6-52.1-17.9-80.2 0-5.4 3-18.2 0-22.8-.8-1.2-7.8-1.9-10.4-3.8-7.2-5.3-6.2-13-8.6-20.4-1.9-6-10.7-24.3-9.8-28.7.5-2.7 4.3-7.5 6-10.1 7-10.8 15.7-20.6 22.5-31.5 5.9-4.3 13.2-6 20.1-7.9 9.7-2.6 19.8-4.7 29.2-5.3h.2Zm15 128c-1.4-1.5-7.8 8.9-8.4 10.1-10.6 19.9-8.6 50.8-1.8 71.7 1.1 3.3 9.4 22.1 12.8 21.2 4.4-1.1 10.8-28.9 12.8-34.3 4.3-11.7 13.6-22.1 8.6-35.6-4.8-.6-12.2 1.2-15.9-2.9-1.4-1.5-8.5-21.7-8.8-24s.8-4 .8-6.2Zm240 103c.6-.4 6.8-10.5 7.5-12 6.3-12.1 9-33.7 9.5-47.5.6-14.9-4.3-31.4-14.6-42.5l-2.2 9.8c-4.9 13.6-4.6 25.2-23.1 22.4-5.2 13.7 4.3 23.9 8.6 35.6 3.1 8.4 6 27.5 11.8 33.2.7.7 1.4 1.8 2.4 1.1Zm-262.3-85.7c-1-.9-4.6-2-6.6-3.9-4.2-3.9-7.8-13.1-14-4.7-13.3 17.9-4.1 44.9 7 61.7 1.6 2.4 11.5 15.7 13.3 15.7.5-8 1.2-16.5.5-24.5-.4-5.4-3.1-12.3-3.1-18s6-23.3 2.8-26.2ZM1167 1547c1.7.4 2-.5 3-1.5 17.4-17.9 32.6-50.9 18.4-74.4-6.5-10.8-10.8-.4-16.9 4.9-2 1.7-5 1.6-5.5 4.5-.8 4.5 4 18.3 4 24s-3.3 14.8-3.6 21.2c-.3 6.3 1.6 14.6.6 21.3m-64.5-53c-1.4.3-3.3 6.6-3.8 8.2-3 10.7-2.9 45.1 1.1 55.5 4.8 12.4 18.2-4.3 20.4-11 3.9-11.7-6.4-31.5-11.4-42.1-1-2.2-3-11.4-6.3-10.7Zm-86.8 33.3c-3.2-2.8-9.7 3.2-15.8 1.3-2.1-.7-8.7-7.5-10.5-9.5-2.6-2.9-3.4-8.8-8.2-7.4-12.2 3.5-20.5 24.1-21.2 35.9-.9 13.6 2.4 21.7 11.5 31.5 9.8 10.4 24 15.7 36.1 23h2.3c2.1-6.4 6.2-12 8.1-18.4 3.7-12.2 7.9-47.3-2.3-56.2zm23.4 74.6c1.1.7 3.4 0 4.6-.6 21.8-13.1 47.5-23.3 45.2-53.7-.9-11.9-9.2-33-22-36.1-4.4-1.1-5.5 5-8 8-1.7 1.9-7.3 7.9-9.2 8.8-9.2 4-14.3-9-20 5-5.4 13.2-2.6 37.5 1.5 51.1.7 2.2 7.1 17.1 7.9 17.6ZM885 1559c-3.2-3.3-6.4 8.4-5.8 12.3.7 4.5 5.4 23.4 7 27 1 2.2 6.2 8.5 8.7 6.7 3.4-2.4 3.2-20.7 4-25.4-.5-3.1-8.3-6.1-11-10-2.3-3.5-2.6-10.1-3-10.5Zm269.1 45.9c2.7 1.5 7.8-5.3 8.8-7.5 1.7-3.8 6.1-21.6 6.9-26.2.8-5-.5-8.8-4.3-12.2l-5.1 10.9c-1.4 3.6-9.4 6.1-10.2 8.8-1.2 3.9.5 24.2 3.9 26.2M917 1563c-1.9-2.2-11.8 12.5-12.4 14.1-1.7 4.6-3 25.2-2.4 30.3.9 7.9 5.6 18 11.4 23.6 1.4-8.8 5-18.6 5.5-27.5.8-13.1-3.7-27.1-2-40.5Zm218 68c5.3-3.9 9.4-12.4 10.8-18.7 1.5-7 .8-27.4-1.2-34.3-.6-1.9-10.4-17.4-12.5-15 1.5 13.8-3.1 28-2 41.5.7 8.7 4.6 17.6 5.1 26.5zm-186-62c-2.4-2-8.2 6.4-9.4 8.1-7.7 11.1-15.4 39-8 50.8 2 3.2 16 15.2 19.5 16.5 5.6 2.2 6.5-1.9 7-6.9 2.4-23.1-3.5-46.4-9-68.5Zm151 0c-1.5 11-6.9 22.6-8 33.5-.9 9-2 26.3-1 35 .2 1.9 1.7 8 3.6 8.4 2.4.6 18.8-13.3 20.9-15.9 8.3-10.5 3.8-32.3-1-44-1.2-2.9-11-19.9-14.5-17m-82 44c-3.5 0-6.1 2.5-9.6 2.9-12.7 1.6-29.1-13.9-41.4-16.9v24.5c0 .6 3.2 8.2 4.1 8.9 6.5 5.2 18.9-.4 24.4 5.6 2.6 2.9 4.3 10.3 10.6 5.5 1.1-.8 11.9-13.1 11.9-14.1v-16.5Z" class="outline" data-original-prefix="outline"/><path id="outline-mouth2" fill="#000000" d="M1122 1332c-.2 0 .2 1.6 0 1.9-1 .8-8.1-5.8-10.2-7.1-10-6.1-19.8-8.3-31.2-9.8-2.9-.4-6.9.7-9.5-.5-1.5-.8-4.5-7.4-6.5-9.5-7.8-8.7-15.6-10.2-25.8-13-1.1-.3-.6-1.9-.7-2 3.1-3.8 16.2-9.3 20.8-9.8 7.9-.9 5.5 4.4 6.5 9.1 2.3 10.7 9.3 19.6 21.3 18.8 5.1-.3 5.6-4 7.9-4.1 1.4 0 6.6 2.9 8.2 3.8 9.4 5.2 15 12.5 19.3 22.2z" class="outline" data-original-prefix="outline"/><path id="outline-mouth1" fill="#000000" d="M1011 1292s.4 1.7-.7 2c-10.2 2.8-17.4 4.1-25.4 12.5-2 2.1-5.6 9.2-7.2 9.9-3.4 1.4-13.5 1-18.1 1.8-12.5 2.1-23.6 8.7-33.1 16.9.2-.9-.5-2.8-.5-3 .8-2.7 8.7-13.3 11-15.6 2.5-2.4 14.7-10.5 17.6-10.4 2.7 0 3 5.1 11.9 3.9 10-1.3 16.2-10.1 17.5-19.6.4-2.6-2.4-6.7 2.8-8.2 3.5-1 21.7 5.6 24.3 9.8Z" class="outline" data-original-prefix="outline"/>
    </g><g class="trait-group" data-category="eyes" id="eyes-wayfairer black-KBDS">
      <path id="fill-head4" fill="#ffffff" d="M1241.1 1390.9c-16.6.9-35.8.2-54.8-1.2-25.5-1.9-51.3-3-76.2-9.7-9.7-2.6-17.8-8-26-13.2-9.1-5.8-17.7-12.3-26.7-18.3-2.9-1.9-3.7-4.7-4.2-7.5-3.6-22.9-9-45.4-13.3-68.1-1-5-3.4-7.6-9-8.2-5-.5-9.9-.4-14.8.2-3.9.5-6.3 2.3-7.1 6.4-3.9 19.3-7.9 38.5-11.8 57.8-.8 4.1-1.2 8.2-2.1 12.2-.6 2.9-1.6 5.5-4.4 7.4-12.5 8.5-24.7 17.4-37.8 24.9-10.3 5.9-21.5 8.6-32.9 10.2-17.6 2.5-35.3 3.9-53 5.3-32.9 2.5-65.9 2.6-98.8 1.4-23.5-.8-46.8-5-69.9-9.2-7.5-1.3-14.9-2.9-22.4-4.2-2.1-.4-3.4-1-3.6-3.3-2-22.2-9-43.3-14.5-64.7-8.8-34.2-18.5-68.2-26-102.8-.2-1-.5-1.9-.5-2.9-.5-7.8-3.3-13.3-12.2-13.4-4 0-6.1-2.6-7.7-5.9-6.1-12.5-14-24-18.4-37.4-1.5-4.6.2-6.1 3.5-7.6 5.5-2.4 11.4-3.3 17.3-4.1 10.3-1.4 20.7-2.8 31-4.2 3.4-.4 4.9-2.2 5.7-5.7 5.8-27.8 14-54.7 27-80.1 7.5-14.5 16.7-27.9 26.7-40.7 2.8-3.6 6.4-6.2 11.6-5.4 3.9.6 6-1.3 8.3-4.6 5.8-8.2 12.3-16 18.8-23.7 6.9-8.2 14.3-15.7 22-23.1 24.1-23 50.4-43.2 79-60.3 19.3-11.5 39.5-21.2 60.4-28.9 13.9-5.1 28.8-7.4 43.3-10.4 34.1-7.1 68.7-6.6 103.2-5.8 22.5.5 44.8 3.8 66.7 9.2 4.7 1.1 9.4 1.9 14 3.2 21.8 6.1 42 15.8 61.8 26.5 18.3 9.9 35.5 21.5 52 34 18.6 14.1 36.2 29.3 51.9 46.4 10.1 10.9 20 22.1 28.2 34.6 2.1 3.1 5.4 2.8 8.1 2.6 6-.4 9.4 2.9 12.8 7.1 26.3 32.7 41.7 70.4 50.7 111 .2.8.5 1.6.7 2.4 2.6 13.9 1 10.2 15.1 12.7 12 2.2 24.3 2.8 36.1 6.2 1.4.4 2.8 1 4.1 1.7 2.6 1.4 3.6 2.9 2.4 6.4-4.8 14.6-13.2 27.5-20.3 40.9-1.9 3.6-6.3 3.5-9.7 3.8-4.7.5-6.6 3-7.4 7.2-5.4 28.8-13.4 56.9-20.7 85.2-6.7 25.9-14.5 51.5-19.7 77.8-.7 3.7-1.4 7.5-1.5 11.3 0 3.4-1.6 4.6-4.6 5.2-16.9 3.2-33.8 6.2-50.9 8.5-12.8 1.7-25.6 3.9-38.4 4.8-12.8.8-25.7 0-41.1 0Z" class="fill" data-original-prefix="fill"/><path id="fill-head3" fill="#ffffff" d="M1238.1 1131.8c32.8-1.3 65.4-1.9 98.1.3 21 1.4 41.8 4.8 62.5 8.7 3.8.8 3.1 2.8 3 5.8-3.9 67.8-19 133-36.5 197.7-4.3 15.7-4.5 15.3-19.3 16.7-31.5 3-62.7 7.2-94.3 9.1-39.6 2.4-79.2 2.3-118.4-5.6-11.5-2.3-22.8-5.3-34.1-8.3-21.8-5.7-30.9-23.4-36.7-45.4-9.5-36.5-12.2-74.3-18.2-111.5-2-12-3.7-24-6.1-35.9-.8-4.2 0-5.2 3.4-6.3 21.5-7.8 43.8-11.8 66.1-14.8 43.2-5.9 86.9-8.1 130.4-10.5Z" class="fill" data-original-prefix="fill"/><path id="fill-head2" fill="#ffffff" d="M808.4 1139.3c51.2 2.9 102.4 4.9 153.2 14 15.2 2.6 30.2 6 44.9 11.3 3.1 1.1 3.8 2.3 3.1 5.9-6.9 37.1-11 74.8-16.8 112-2.8 17.3-6.7 34.7-13 51.2-6.8 17.6-20 25.9-36.5 30.3-43.4 11.6-87.4 15-131.9 13.1-35.9-1.5-71.5-5.8-107.2-9.6-5.2-.5-10.4-1.1-15.5-1.4-3.2 0-4.5-1.8-5.4-5-13.1-43.7-23.1-88.4-31.1-133.5-4.4-24.6-7.6-49.4-8.8-74.5-.2-3.9 1-4.4 3.9-5 27.5-5.5 55.2-9 83.2-9.7 25.8-.5 51.8-.6 77.8 1Z" class="fill" data-original-prefix="fill"/><path id="shading-head8" fill="#aaaaaa" d="M972.8 1140.1c-8.9-1.1-16.9-2.2-24.9-3.3-.7 0-1.5-.8-2-1.4-12.3-15.3-28.6-25.7-43.8-37.6-34.7-27.1-73.9-45.7-115.2-60.3-18.4-6.5-36-15.1-55-20.4-8.1-2.3-8.6-5-3.5-12.1C777 936.5 842 890.1 920.9 862.4c6.8-2.4 13.9-4 21.4-4.9-5.6 4-10.7 9.1-16.9 11.9-35.8 16.3-61.5 43.8-84 74.8-9.8 13.5-18.1 27.8-25.6 42.7-5.2 10.3-3.3 19.8 1.5 28.9 4.4 8.4 10.3 15.9 16.4 23.2 4.9 5.8 10.7 10.2 17.6 13.6 31.8 15.6 63 32.4 93.3 50.9 8.8 5.4 16 11.6 20.1 21.3 1.8 5.2 5 9.8 8.1 15.3" class="outline shading" data-original-prefix="shading" opacity="0.5" style="opacity: 0.5"/><path id="shading-head" fill="#aaaaaa" d="M1075.1 1140.2c5.2-9.4 9.7-17.9 14.6-26.2 1.8-3.1 5.2-4.6 8.2-6.4 30.8-19.8 63.1-37.2 96-53.2 10.1-4.9 18.4-11.3 24.7-20.3 6.2-8.9 14.1-17 16-28.4 1.1-6.2.9-11.9-2.1-17.9-18.6-37.7-43.4-70.5-75.7-97.5-8.8-7.4-19-12.9-29.3-18-7.8-3.9-14.2-9.7-22.1-14.6 3.2-1.4 5.4.2 7.5.7 38.3 9.8 72.8 27.9 105.8 49.2 25 16.2 47.4 35.5 68.1 56.7 12.8 13.2 23.8 27.9 34.3 42.9 3.1 4.4 2.5 7.2-2.8 9.1-7.8 2.9-16 4.5-23.6 7.7-42.5 17.6-86.8 31.2-125.4 57.1-20.5 13.7-39.9 28.8-58.7 44.8-1.3 1.1-2.8 2.1-3.6 3.5-3.8 7.1-10.2 8.6-17.5 8.8-4.5 0-8.9 1.2-14.4 2" class="outline shading" data-original-prefix="shading" opacity="0.5" style="opacity: 0.5"/><path id="shading-head2" fill="#aaaaaa" d="M793.5 1132.4c-9.1.5-18.2 1-27.3 1.4-20.6.9-41.2 2.2-61.8 4.1-2.6.2-4.8-.2-7.1-1.5-8.4-4.5-16.9-8.8-25.6-13.2 8.9-5.1 11.1-14.6 14.6-22.8 3.5-8.1 8.1-10.3 16.7-10.7 14.6-.7 27.1 2.5 39.3 10.6 15.1 10 31 18.7 46.6 28.1 1.7 1 3.3 2.1 4.9 3.2 0 .2-.2.5-.3.8" class="outline shading" data-original-prefix="shading" opacity="0.5" style="opacity: 0.5"/><path id="shading-head1" fill="#aaaaaa" d="M1377.4 1122.9c-10.7 4.4-19.2 9.4-27.9 14-1.7.9-3.4 1.1-5.2 1-28.7-2.5-57.4-4.1-86.2-5.2-1.3 0-2.6-.3-3.9-.5.4-1.8 1.8-2.1 2.9-2.8 21-12.5 42.1-25 63.1-37.5 2.7-1.6 5.4-2.3 8.5-2.2 7.7.2 15.3.4 23 .2 3.6 0 5.4 1.2 6.8 4.4 2.6 5.8 5.5 11.4 8.3 17 2.2 4.5 3.6 9.7 10.6 11.6" class="outline shading" data-original-prefix="shading" opacity="0.5" style="opacity: 0.5"/><polygon id="fill-head11" points="1420.4 1166 1413.7 1159.3 1420.4 1152.6 1437.1 1159.3 1420.4 1166" fill="#ffffff"/><polygon id="fill-head10" points="633.7 1152.6 640.4 1159.3 633.7 1166 617 1159.3 633.7 1152.6" fill="#ffffff"/><g id="glasses"><path id="outline-eyes1" fill="#000000" d="M1459.9 1138.3c-5.4-5.3-12.3-6.3-19.1-7.3-11.2-1.7-22.4-2.9-33.6-4.4-2-.3-3.7-.9-4.1-3.5-1.2-8.9-3.8-17.5-6.1-26.2-9.4-35.2-25.1-67.4-47.9-95.8-3.5-4.4-8-10.6-15.8-6.1-1.2.7-2.4 0-3.3-1.3-9.8-14.8-21.6-27.9-33.8-40.6-19.4-20-40.6-38-63.6-53.7-33.1-22.6-67.6-42.4-107.4-51.1-23.7-5.3-47.5-9.5-71.9-10.5-9.7-.4-19.3.2-28.9-.2-15.2-.7-30.2 0-45.3 1.3-24.3 1.9-48.1 6.9-71.5 13.2-21.7 5.9-41.8 16.2-61.3 27.5-39.7 23-75.2 51.4-105.8 85.7-7.9 8.8-15.9 17.6-22.2 27.6-1.3 2.1-2.7 2.4-4.5 1.3-3-1.9-5.2-.5-7.6 1.3-9.3 7.2-15.1 17.3-21.3 26.8-20 30.6-31.6 64.4-38.6 100-.6 2.6-1.6 3.7-4.1 4-8.8 1.2-17.5 2.6-26.2 3.7-7.2 1-14.6 1.1-21.4 4-6.1 2.6-10 6.9-7.8 12.2 5.7 13.7 12.5 26.8 19.3 40 2.7 5.3 6.2 8.6 12.1 8.8 5.3.2 6.8 3 7.8 7.9 7.5 37.4 18.1 74 27.7 110.8 5.2 20 11.6 39.7 13.9 60.2.6 5.9 2.9 7.6 8.3 8.4 13.9 2.1 27.7 5 41.7 7.1 20.9 3.2 41.7 6.1 62.9 6.3 20.4.2 40.9 0 61.4-.8 24.9-1.2 49.7-2.9 74.5-5.8 14.6-1.7 28.5-4.7 41.2-12.2 11.9-7 23.1-15.1 34.5-22.9 4.2-2.8 6.5-6.2 7.4-11.1 4-21.4 8.3-42.7 12.5-64.1 1.1-5.7 4.4-9.1 10-10.2 7.4-1.5 12.4 1.7 13.8 9 4.2 21.6 9.1 42.9 12.7 64.6.6 3.6 1.1 7.4 4.9 9.9 10.1 6.7 19.9 13.9 30.1 20.5 6.9 4.6 14.1 8.8 22.1 11.4 16.1 5.3 33 6.1 49.6 7.7 30.8 2.9 61.8 4 104.4 4.3 14.6.4 40.5-1.9 66.3-5.9 16.6-2.6 33.1-5.4 49.6-8.4 3-.6 4.5-1.8 4.7-5.2.3-5.4 1.3-10.9 2.5-16.2 6-27.1 13.8-53.7 20.8-80.6 6.6-25.3 13.7-50.4 18.5-76.1 1-5.5 3-8.4 8.8-8.8 3.8-.3 7.3-1.4 9.5-5.4 7.6-14.2 15.3-28.4 21.1-43.5 1.1-2.9 1-5.2-1.5-7.6m-380 197.3c-2.1-2-3.6-4.2-4.8-6.8-10.6-23.2-13.9-48-17.9-72.8-2.8-17.5-6.5-34.9-9.5-52.4-1.6-9.6-2.6-19.4-3.7-29.1-.5-5 2-8.1 6.7-9.8 10.8-3.9 22.1-5.8 33.4-7.8 51.5-9.2 89.7-13.4 157.7-14.6 20.3 0 47.4.8 74.5 3.2 21 2 41.7 5.3 62.2 10.1 4.9 1.1 9 3.7 13.7 5.2 1.6.6 1.8 4.8 1.8 7.6-.2 14.6-1.7 29.2-4.4 43.5-7.9 43-17.3 85.6-31.7 127-.8 2.3-2.1 4.5-2.7 6.9-1.6 6.5-6 9.6-12.1 11.1-12 3-24.3 3.9-36.5 4.8-27.8 2-56 2.9-83.4 2.9s-54.9-.4-82.1-3.8c-22.6-2.8-43.9-9.1-61.2-25.2M867 1364.1c-37.1 1.6-74.2.8-111.2-1.2-16.7-.9-33.5-1.9-50-5.5-7.4-1.6-11.3-5.8-13.8-12.6-12.8-35.1-21.2-71.3-28.9-107.7-3.8-18.1-7.1-36.1-8.3-54.6-.4-6.5-1.4-12.8 0-19.2.5-2.1 1.4-1.8 2.8-2.6 14.3-7.5 30.1-9 45.5-11.4 36.4-5.8 73.1-7.2 109.9-6.8 38.6.2 76.9 3.2 114.9 8.6 21.4 3 42.7 6.7 63.7 11.9 2 .5 3.9 1.1 5.7 1.9 5.6 2.3 7.4 5.8 6.6 11.8-2.5 19-5.2 38-8.9 56.8-4.8 24.9-8.2 50-14.2 74.6-2.1 8.4-6.5 16-9.5 24.1-.3.9-1.1 1.6-1.8 2.3-11.2 10-23.6 17.6-38.3 21.6-17.8 4.8-35.9 6.9-54.2 7.2-3.4 0-6.7.8-10 .8M682.2 1085c8.4-19.3 18.8-37.5 30-55.3 1.4-2.2 2.8-3.6 5.5-3.6 20.5-.2 40.9.8 60.7 6.9 1 .4 2.2 1 2.7 0 .7-1.5-.8-2.4-1.8-3.2-10.6-8.7-22.3-15.9-34.6-21.8-4.2-2-4.1-4.2-2.8-7.7 3.5-9.1 8.3-17.4 14.8-24.7 21.7-24.6 48-43.4 75.5-61 27.7-17.8 57.6-30.8 87.9-43.4 38.5-16 78.5-19.8 119.4-18.3 26.1 1 52.3 3.8 76.9 13.4 39.8 15.6 78.6 33.3 114 57.9 21.8 15.1 42.4 31.2 60.1 50.9 7.2 8 12.6 17 15.9 27.3.9 2.7.6 4.1-2.3 5.6-11.7 5.9-23.1 12.5-33.3 21-1.3 1.1-4 2-2.9 4 1 1.8 2.8-.4 4.3-.8 6.7-1.7 13.3-3.3 20.1-3.8 12.2-.9 24.4-3.2 36.8-2.4 3.6.3 5.9 1.3 8 4.6 13.9 22.1 25.8 45.1 35.9 69.1 2.6 6.2 3.2 12.6 3.2 19.1s-3.2 4.2-6 4c-7.9-.6-15.9-1.5-23.8-2.3-41.5-4.4-83.1-5.5-124.8-5.1-30.4.3-60.7 1.5-90.9 4-2.1.2-4.3.3-7.7.5 24.8-22.2 52.1-39.3 78-58.3-3.8-.7-6.8.9-9.8 2.4-12.4 6.4-23.2 15.6-35.9 21.6-18.3 8.6-35.2 19.5-53.7 27.7-2.3 1-4 2.8-5.1 4.7-2.4 4-5.9 4.9-10 5.3-19.5 2.1-39 4.1-58.4 7-7.5 1.2-14.9-1.1-22.3-1.9-14-1.4-28.1-3.2-42.1-4.8-4.3-.5-8.4-.8-11-5.3-1.8-3-5-4.5-8.2-6.2-25.2-13.5-51.4-25.2-75.2-41.3-6.4-4.3-12.9-8.4-21.1-9.3 25.8 19.2 53 36.2 77.7 58.4-4.3-.3-7.4-.5-10.4-.7-56.9-4.4-113.8-5.2-170.8-2.3-21 1.1-41.9 2.9-62.7 5.6-1.3.2-2.7.2-4 .2-4 .3-5.3-1.3-5.5-5.5-.6-12 5.2-21.9 9.7-32.2" class="outline" data-original-prefix="outline"/><path id="outline-head9" fill="#000000" d="M813.3 1148.3c-29.1 60.2-73.3 144.5-103.7 204.1-4 5.7-14.7-6.7-15.4-16.3-11.7-29.9-38.3-142.4-33.5-167.1-.2-4.3 6.5-8 11.1-8.5 30.8-13.7 142.9-14.7 141.6-12.2Z" class="outline" data-original-prefix="outline"/><path id="outline-head6" fill="#000000" d="M968.2 1164.5c-27.3 41.2-100.1 180-107.3 194.6-1.5 2.9-5.1 1.9-7.3 2-11 .6-55.2-1.6-66.2-1.9-4.7 0-2.1-3.1-1.1-4.8 6.2-11.2 26.7-46.9 33-58 26.7-46.8 43.2-78.1 69-125.4 4.2-7.8 7.6-16.6 14.2-15.7 12 1 67.4 6.3 65.7 9.1Z" class="outline" data-original-prefix="outline"/><path id="outline-head61" fill="#000000" d="M966.4 1332.6c-6.6 9.1-25.2 14.4-30.4 17.1-3.4 1.6-29.4 9-40.4 8.7-4.7 0-1.9-5.4-.9-7.1 6.2-11.2 12.6-22.3 18.9-33.4 26.7-46.8 38.6-66.6 64.4-113.9 4.2-7.8 14.1-30.3 23-28.9-2.4 12.8-15.9 113.2-34.6 157.5" class="outline" data-original-prefix="outline"/><path id="outline-head5" fill="#000000" d="M1260.4 1349.9c10.7-23.1 21.3-46 31.9-68.9 17.3-37.8 43.2-88.7 58.8-127.2 4.4 0 25.4 4 28.5 5.6 5.1 1.4 9.9 4.3 10.8 7.3-.7 12.3-1 30.7-15.1 91.4-5.2 24.2-14.3 57.2-21.7 80.9-4 12.7-7.9 16.4-21.3 17-13.2 1-66.1 5.2-77.1 4.7l5.3-10.8z" class="outline" data-original-prefix="outline"/><path id="outline-head4" fill="#000000" d="M1184.6 1148.3c1.9-.3 3.7-.4 5 1.3 1.6 2-.5 3.1-1.1 4.3-28.2 51.7-68.5 134.9-96 186.9-.8 1.6-10.7-7.6-13.3-9.9-17.1-32.8-31.9-156.8-28.9-161.9 15.9-10.7 128.2-19.9 134.3-20.8Z" class="outline" data-original-prefix="outline"/><path id="outline-head3" fill="#000000" d="M1142.1 1356.6c23.9-52.7 72.5-142.5 102.4-208.3 10.3 0 86.2 0 85.2 1.9-34.5 60.8-72.1 143.9-103.9 206.1-1.1 2.1-4.5 4.3-6.9 4.3l-35.6-.4c-19.7 0-41.2-3.7-41.2-3.7Z" class="outline" data-original-prefix="outline"/><path id="fill-glasses-logo9" fill="#ffffff" d="m710.5 1169.2-.3-1.8-.5-1c0-.2-.3-.3-.6-.5s-.5-.3-.7-.3h-1.5c-.5 0-.7 0-.9.2 0 0-.2 0-.4.3-.2.2-.3.2-.3.2-.4 0-.7-.2-.9-.2s-.2 0-.5.2c.4.8.7 1.6.8 2.3s0 1.1 0 1.5v.7s0 .2.3.4c.3.6.4 1.1.5 1.7s0 .7 0 .8v1.8h.8c.3-.2.4-.3.5-.3h1.8c1.5-.2 2.4-.9 2.6-1.9v-.7l-.3-2.1v-.7l-.2-.3c0-.2-.2-.3-.2-.3h.2zm-1.3 3.8c0 .5-.4.8-.9.9s-1.1-.2-1.2-1.1v-.7c0-.7-.2-1.1-.2-1.2v-.9s0-.5-.2-1.1 0-1.1 0-1.2c0-.4.4-.6.9-.7s.9 0 1.1.5c0 .2.2.6.3 1.2s0 .7 0 .8v.6l.2.3s.2.5.3 1.2 0 1.1 0 1.3h-.3Z" class="fill" data-original-prefix="fill"/><path id="fill-glasses-logo8" fill="#ffffff" d="M717 1168.9c-.3 0-.6-.2-.9-.4s-.6-.4-.7-.6h-.4c-.4 0-.7 0-1-.2s-.5-.5-.5-.8c0-.8.2-1.2 1.1-1.4s.9 0 1.2.2.5.3.6.5v-.8c0-.3.2-.5.3-.6-.3 0-.7 0-1.2-.2h-1.3c-.8 0-1.3.5-1.8 1.1-.4.6-.6 1.3-.4 2s.2.7.4 1c0 .2.4.4.7.7.3 0 .6.3.8.4q.6.3.6.6h.3c.4 0 .8 0 1.1.2s.5.5.6.9c0 .8-.2 1.3-1.2 1.5s-1.9 0-2.8-.9v.4c0 .2.2.4.3.5l-.3.3c0 .2-.2.3-.2.4v.2h1.5c.6 0 1 .2 1.1 0h.6c.9-.2 1.6-.6 2-1.1.5-.6.7-1.3.5-2.2s-.6-1.4-1.4-1.8h.4Z" class="fill" data-original-prefix="fill"/><path id="fill-glasses-logo7" fill="#ffffff" d="M678.9 1177.7c-.2-.4-.5-1-.8-1.8-1.1-.5-1.3-.8-1.3-.9v-.5c.2-.6.5-1.1 1-1.5v-1.4c0-.4.2-.8.3-1h-.4l-.3.2-.2.2h-.9s-.3 0-.4.2q.3.3.3.6c0 .3 0 .8-.4 1.7q-.45 1.5-.6 1.8c-.2 0-.4-.3-.6-1.6s0-.8 0-1.5v-.9h-.4c-.2 0-.3 0-.4.2 0 .2-.2.2-.2.3-.4-.2-.7-.3-.9-.2s-.2 0-.5.2v.3c.4.5.7 1.2.8 2.1s0 1 0 1.5v.6s0 .3.3.7c.2.5.4.9.4 1.3v2.5c.3 0 .5.2.6 0l.4-.2c.2-.2.3-.2.3-.2h.9c.3 0 .5 0 .5-.3-.4-.4-.7-1.2-.9-2.2s0-1 0-1.5v-.5l1.1 1.4c.7.9 1.1 1.6 1.2 2s0 .2 0 .5v.3h.5l.3-.3.2-.2h1.3c-.5-.4-.9-1-1.3-1.7v-.2z" class="fill" data-original-prefix="fill"/><path id="fill-glasses-logo6" fill="#ffffff" d="M687.2 1175.4c0-.3-.2-.6-.3-.8 0-.3-.4-.4-.7-.6h-.7c.2 0 .3 0 .5-.2.3 0 .4-.3.6-.6v-2c-.2-.8-.6-1.3-1.3-1.5-.6-.2-1.3-.3-2.1 0s-.7 0-.9.2l-.5.3c-.2 0-.3.2-.4.2-.4 0-.7-.2-.9-.2h-.4v.3s0 .2.3.9c.2.5.3.9.4 1.2s0 .9 0 1.3v.8s0 .2.2.3c.3.5.4 1 .5 1.7s0 .8 0 1.4v1.2h.8l.2-.2.2-.2h1.9c1.4-.2 2.3-.8 2.6-1.6v-1.7l-.2-.3.3.3v-.2Zm-3.7-4.5c.7 0 1.1 0 1.2.7s0 .3 0 .5v.5c0 .6-.2.9-.9 1s-1.2-.3-1.3-1.3 0-1.5.8-1.6v.2zm1.9 5.4v.3c0 .3 0 .6-.2.8s-.4.3-.7.4c-.8 0-1.3-.4-1.5-1.5s0-1.6.9-1.8 1.1 0 1.2.8 0 0 0 .3v.4l.2.3Z" class="fill" data-original-prefix="fill"/><path id="fill-glasses-logo3" fill="#ffffff" d="M703.1 1162.2v-1c0-.4 0-.8.2-1.1v-1.8c-.2 0-.5.3-.7.4-.5.3-1 .7-1.5 1.1s-1 .8-1.4 1.3c-.5.5-.9 1-1.3 1.6-.2.4-.4.8-.7 1.2v3.5c0 .4-.2.9-.4 1.3v.5c0 .3 0 .4.2.5 0 .2.3.3.4.5h-.3l-.4-.4h-.2c-.3 0-.7-.2-1.1 0-.4 0-.8 0-1.1.2-.4 0-.8.3-1.1.5l-.2.2v.3c0 .2-.2.4-.4.5l.3-.6v-.6s0-.2-.2-.3v-.2l-.3-.3c-.3-.4-.5-.7-.8-1.1 0-.2 0-.3-.2-.5 0-.2 0-.5-.2-.7 0-.3 0-.5-.2-.7v-.5s0-.3-.2-.4c-.2-.2-.5-.4-.7-.7-.6-.6-1.2-1-2-1.4l-2.1-.9c-.3 0-.6-.2-.9-.3-.4 0-.8-.3-1.3-.3h-.2v.7c0 .3.2.6.3.9 0 0 0 .2.2.3.2.2.3.4.4.6.2.5.4.9.5 1.5v.4c0 .2.2.4.3.6.2.4.4.8.7 1.2s.7.7 1 1.1c.4.3.8.6 1.3.8.3 0 .6.2.9.4h.2v.2c.2.4.5.7.9 1 .2.2.5.3.7.4h.3c.2 0 .4 0 .5-.2-.2 0-.4.2-.6.4 0 0-.2 0-.2.2.2 0 .5.2.7.3h-.9c0 .3-.2.6-.3.8v.5h.3v.4s0 .2-.2.3v.5l.2.2s.2.3.3.4v.2s0 .2.2.2.3 0 .5.2h-1.2c0 .3-.2.5-.3.8v.4l.4.4v.3s0 .2.2.2h.2s.2 0 .2-.2.2-.4.4-.6v1.5h.2c.2 0 .4 0 .6.2v.8c0 .2.2.4.5.6v-.8h.2c.2 0 .4.2.5.4 0 0 .2.2.4.3.2 0 .3 0 .4.2l.3.3h1.9c.2 0 .4-.2.5-.3l.3-.3s.2-.2.2-.4.2-.4.4-.5l.2-.2c0-.2.2-.4.3-.5l.3-.3v.2c0 .2.2.3.2.5 0-.2.2-.4.2-.7v-.7c0-.2.3-.3.4-.4 0 0 .2-.2.2-.3v-.7s0-.3-.2-.3c.2 0 .4.2.5.4l.2.2h.4v-.4c0-.3.2-.4.2-.6v-.4c-.2-.2-.3-.4-.5-.7h-.4s0 .2-.2.2h-.6s.2-.2.3-.2.2-.2.2-.3v-.8c0-.3-.2-.4-.3-.5v-.5s.2 0 .2-.2v-.3c-.2-.3-.4-.6-.7-.9-.3 0-.5 0-.7.2l.5-.5c-.2 0-.5 0-.7-.2h-.2.7s.2 0 .3-.2l.3-.3c0-.2.2-.3.4-.5l.3-.6c0-.2 0-.5.2-.8.2-.2.4-.4.7-.5.3-.3.6-.5.9-.9.4-.5.7-1.1.9-1.7 0-.4.2-.9.3-1.3v-1.3l-.6-.5h.3Z" class="fill" data-original-prefix="fill"/><polygon id="fill-glasses-logo5" points="696.7 1180.2 696.7 1180.2 696.7 1180.2 696.7 1180.2" fill="#ffffff"/><polygon id="fill-glasses-logo4" points="695.7 1180.2 695.7 1180.2 695.7 1180.2 695.7 1180.2" fill="#ffffff"/><polygon id="fill-glasses-logo2" points="698 1177.8 698 1177.8 698 1177.8 698 1177.8" fill="#ffffff"/><path id="fill-glasses-logo1" fill="#ffffff" d="M694.6 1166.1" class="fill" data-original-prefix="fill"/></g><path id="fill-eyes-logo-kbds5" fill="#ffffff" d="M1842 1875.7h6.2c6.4 3.1 12.7 6.3 19.2 9.3 2.3 1.1 4.7 2.2 7.4 1 7.2-3.4 14.5-6.9 21.7-10.3h6.2c3.3 1.1 6.7 2.2 9.9 3.4 4.9 1.8 9.9 3.6 11.9 9.3.8 2.2 1.7 4.2 2.9 6.2 2.1 3.7 4.2 7.4 9.3 7.5 9.3 0 18.6.4 27.9.6 3.1 0 5.5 1.3 7.1 4 4.3 7.1 8.6 14.2 12.9 21.2v16.8c-.2.4-.5.7-.6 1.1-2.6 9.4-7.8 16.9-16.3 21.9-7.2 4.3-14.8 2.5-22.4 2-4.3-.3-8.6-.6-12.9 0-1.6.2-3.8 2.2-4.3 3.8-.8 2.3 1.4 3.6 3.5 4.6 4 1.8 8.1 1.6 12.2 1.6s4.2.9 4.6 3.4c.3 2.3-1 3.8-3 4.6-1.4.6-2.9 1.1-4.4 1.4-7.6 1.6-15.2 3.3-22.9 4.5-9.5 1.4-20.4 2.9-29.9 4.1-.5 0 .5-.3 0 0h-31.4c-2.1-.2-4.3-.4-6.4-.6-8-1.1-16.1-2-24-3.4-8.6-1.6-17.2-3.6-25.7-5.6-3.1-.7-4.6-2.8-4.1-4.9.5-2.5 1.9-3.4 5.5-3.4s8.1 0 11.9-1.8c2-.9 3.8-2.6 2.9-4.7-.6-1.6-2.8-3.5-4.3-3.6-6-.2-12.2-.4-18.2.6-11.7 1.9-20.8-2.4-27.2-11.6-2.9-4.2-4.6-9.2-6.9-13.8v-16.8c4.3-7.1 8.6-14.1 12.9-21.2q2.25-3.75 6.6-3.9c7.5-.3 15.1-.4 22.6-.6h5.6c3.2 0 5.8-1.2 7.4-4 1.8-3.3 3.6-6.6 5.3-9.9 1.6-3.2 3.4-6 7.1-7.2 4.9-1.6 9.7-3.5 14.5-5.3zm30.3 111.9c7.6-1 15.3-1.4 22.7-3 12-2.7 20.6-9.6 23.1-22.3 1.6-8.5-1.4-11.8-8.9-11.8s-10.2.5-15.3.4c-2.2 0-4.6-.7-6.6-1.6-9.2-4.2-18.7-4.9-27.8-.7-7.6 3.5-15.2 2.2-22.9 1.9-5.6-.2-10.3.9-10.4 8.2 0 10.5 7.8 20.6 18.5 24.4 8.9 3.2 18.2 3.7 27.6 4.5m-78.6-71c-9.6 0-15.4 3.9-20.3 10.1-3 3.7-5 8.2-4 13.5 2.3 12.1 13 20.3 24.6 20.2 8.3 0 15.3-3.9 20-11 2.4-3.6 4.4-7.6 4-12-1.2-12.1-12.7-21.2-24.4-20.8zm157.1-.2c-1.9.3-3.8.4-5.7.8-11.9 2.5-24.4 16.9-15.3 31 5.2 8.1 12.7 12.4 21.9 12.1 9.5-.3 17-5.3 21.3-14 1.4-2.9 2.8-6.5 2.4-9.4-1.8-11.9-12.7-20.7-24.6-20.5m-107.2-23.3c-6.5-.4-12.3 1.8-17 6.2s-8.5 9.6-7.1 16.6c2 10.2 10.8 18.3 21.4 19.3 10.9 1 19-3.9 24.4-13 2-3.3 3.3-7 2.3-11.1-2.7-10.8-13.7-18.8-24-18m57.4 0c-8.3-.4-14.7 3.2-19.7 9.4-3.5 4.3-5.8 9.3-3.9 15.1.7 2.2 1.7 4.5 3 6.4 4.5 6.6 10.7 10.8 19 11.3q13.8.75 21.9-10.5c2.7-3.7 4.9-8 4.1-12.4-2.1-11.5-12.6-19.8-24.4-19.3" class="fill" data-original-prefix="fill"/><path id="fill-eyes-logo-kbds4" fill="#ffffff" d="M1804.6 1953.4c-.3 0-.7.2-1.2.2s-1.2-.2-1.8-.5c-.7-.3-1.1-.5-1.1-.5s-.4.2-.9.5-.8.5-.9.5h-1.3c-.4 0-.5-.3-.3-1 .2-.9.3-1.4.3-1.7 0-1.4-.9-3.8-2.7-7l-2.8-5.1s-.3 0-.5.3c0 .4-.4.9-.6 1.6-.4 1.5-.6 3.1-.6 4.7 0 3.4.6 6 1.7 7.7-.2.4-.8.6-1.7.6s-1.1-.2-1.7-.5-.9-.5-1-.5-.5.2-1.2.6-1.1.6-1.3.6c-.4 0-1-.2-1.7-.7 1.1-2.4 1.7-5 1.7-7.9s-.2-2.6-.7-4.3-.7-2.5-.7-2.4c0 0 0-.4.4-.9.2-.5.4-.8.4-.9.5-1.8.7-3.4.7-4.9q0-4.35-1.5-7.2v-.6q1.05-.3 1.5-.3 1.05 0 2.7 1.2c.2 0 .6-.3 1.1-.8.5-.3 1-.4 1.4-.4h1.2v.4c0 .3 0 .8-.4 1.4-.2.6-.4 1-.4 1.2q-.6 3.3-.6 4.8c0 3.6.4 5.5 1.3 5.9.2 0 .4 0 .5-.4.4-.7 1.3-2.6 2.8-5.5 1.4-2.8 2.2-4.6 2.2-5.3s-.2-1.2-.7-2.1c.4-.4.7-.6 1.1-.6.7 0 1.3.2 1.9.6s.9.6 1 .6.4-.2.8-.6.7-.6.9-.6h1c-.4.7-1 1.7-1.6 3 0 .2-.3 1.7-.8 4.6-1.7 1.1-3 2.6-4 4.4s-.7 1.4-.7 1.7c0 .6 1.2 1.8 3.7 3.6.7 2.7 1.2 4.8 1.8 6.3.9 2.5 2 4.6 3.2 6.2Z" class="fill" data-original-prefix="fill"/><path id="fill-eyes-logo-kbds3" fill="#ffffff" d="M1853.1 1919.7s0 .3-.2.5c0 .2-.2.4-.3.5v2.3c0 .7-.2 1.3-.6 2-1.4 2.5-4.3 3.8-8.9 3.8s-2.9 0-3.9-.3c0 0-.5-.2-1.1-.5s-1-.4-1.1-.4-.4 0-.8.4-.7.5-.8.5h-1c-.7 0-1.2 0-1.5-.2 0-.3 0-.9.3-1.8.4-1.1.6-1.7.6-1.9.3-1.9.4-3.5.4-4.6q0-3.3-.9-5.7c0-.4-.2-.7-.4-1 0 0 0-.5.4-1.2s.4-1.1.5-1.3c.3-1.3.4-2.7.4-4.2s-.2-2.5-.6-4.2-.6-2.6-.6-2.8v-.9h1.2c.7 0 1.6.3 2.8 1 0 0 .6-.2 1.4-.5s1.4-.5 1.5-.6c.6 0 1.5-.2 3-.2 2.6 0 4.7.5 6.4 1.4 2.1 1.2 3.1 2.9 3.1 5.3s0 .5.3.9q.3.6.3.9c0 .3 0 .4-.3.8-.2.4-.3.7-.4.9 0 1.2-.3 2.1-.6 2.6-.5.7-1.1 1.2-2 1.5-.7 0-1.3.3-2 .4v.3c1.3.4 2.1.7 2.3.8 1 .5 1.6 1.2 1.9 2 0 .6.2 1.5.4 2.6.3.7.5 1 .5.9zm-6.1-12.3-.2-.2c0-.6.2-1.2.2-1.7 0-2.1-1.2-3.1-3.5-3.1s-3.7 1.7-3.7 5 1.2 5 3.7 5 3.5-1 3.5-3.1 0-1.1-.2-1.7zm.3 14.4c0-.2 0-.6-.3-1.1-.2-.6-.3-.9-.3-1.1s0-.5.3-1c.2-.5.3-.8.3-1 0-2.2-1.2-3.3-3.5-3.3s-4.1 1.8-4.1 5.4 1.4 5.7 4.1 5.7 1.9-.3 2.6-.9c.6-.6 1-1.5 1-2.5v-.2Z" class="fill" data-original-prefix="fill"/><path id="fill-eyes-logo-kbds2" fill="#ffffff" d="M1912.5 1913.1s0 .4-.4 1-.4.9-.4 1v6.7c0 .4-.2 1.2-.6 2.1-1.1 3.1-4.1 4.6-9 4.6s-3.2-.3-5-.8l-.9-.4s-.4.3-1.7.9h-1c-.7 0-1.2 0-1.5-.3v-.6s0-.3.3-.7c.2-.3.3-.6.3-.6l.8-3.4v-2.7c0-1.5-.3-3.7-.9-5.7q-.6-.6-.6-1.2c0-.6 0-.5.4-1s.5-.9.5-1c.4-1 .6-2.6.6-4.7s-.5-4.8-1.5-7.7c.7-.3 1.2-.4 1.5-.4.7 0 1.7.3 2.9 1 0 0 .5-.2 1.3-.5s1.2-.5 1.5-.6c.6 0 1.6-.2 3-.2s3.1.2 4.6.7c.6.2 1.3.6 2.1 1.3s1.4 1.3 1.6 1.8c.8 2 1.2 3.1 1.2 3.2v5.9s0 .5.4 1 .4.9.4 1v.3Zm-6 5.3c0-2.2 0-3.5-.2-4-.3-1-.5-1.4-.5-1.2 0 0 0-.5.3-.9.2-.5.3-.8.4-1v-2.7c0-1.5 0-3.2-.4-3.9-.5-1.5-1.7-2.2-3.5-2.2s-3.1.6-3.5 1.9c0 .4-.2 1.8-.2 3.9v3.6s0 .4.3.7c.2.3.3.6.3.7s0 .4-.3.7c-.2.3-.3.6-.3.8v6.2c0 2.9 1.2 4.3 3.6 4.3s3-.9 3.6-2.6c.3-.8.4-2.2.4-4.3" class="fill" data-original-prefix="fill"/><path id="fill-eyes-logo-kbds1" fill="#ffffff" d="M1961 1945.2c0 2.9-.9 5-2.7 6.5-1.7 1.4-3.9 2.1-6.8 2.1h-1.9c-.5 0-1.7-.3-3.4-1-1.8-.7-2.9-1-3.4-1s-1 0-1.3.2c0 0-.2-.2-.2-.4s.2-.6.7-1l1.2-.9c-.2-.4-.5-1.1-.8-2l.2-1.2c2.4 2.8 5.3 4.2 8.6 4.2s4.9-1.4 4.9-4.2-.5-2.5-1.5-3.4-2.2-1.4-3.6-1.4-.8 0-1.1.2c0-.7-.8-1.4-1.8-2.3-.8-.6-1.6-1.1-2.5-1.7-1-1-1.7-1.8-2-2.5-.4-.8-.7-1.9-.7-3.1q0-3.6 2.4-6c2.4-2.4 3.6-2.4 6-2.4s2.4.3 4 .9q2.7 1.05 3.9 1.2c-.4.4-.8 1.1-1.3 1.9 0 .8-.2 1.7-.4 2.5-.4-.4-1-1-1.7-1.8-1.1-.9-2.4-1.4-3.9-1.4-2.9 0-4.3 1.3-4.3 4s.4 2.2 1.3 3c.8.8 1.9 1.2 3.1 1.2s.9 0 1.4-.2c.2.8.9 1.5 1.9 2.3.9.5 1.8 1 2.6 1.6 2.2 1.5 3.3 3.6 3.3 6.2h-.2Z" class="fill" data-original-prefix="fill"/>
    </g><g class="trait-group" data-category="right ear" id="right ear-OG">
      <path id="fill-ear-rt1" fill="#ffffff" d="M1715.7 184.2c3.2-.7 6.5-.5 7.2 3.3 2.3 39.5-3.6 77.2-9 116-.7 4.7-.2 11.1-1.1 15.9-5 26.9-24.5 58.9-29.7 86.3-5.7 30.4-4.7 64.8-10.9 95.1-7.8 38.3-25.1 77.8-33.7 116.4l-71.9 122.1c-45.8 31.3-94.9 58.3-141.8 88.2l-35 81-84.6 77.3c-5.6 2.9-16.3-.8-22.4-2.4-27.7-7.2-48.3-18.1-70.9-35.1-16.5-12.5-27.2-20.9-37.6-39.4-6-10.5-10.9-22.9-14.5-34.5 26.8-59.3 58.7-116.4 86.8-175.2 4.9-58.7 6.7-117.8 11.4-176.5 36.5-47.5 77-92.5 114.8-139.2 47.2-35.9 96.4-69 144.9-103.1 66.1-31.9 127.9-72.1 197.8-96.2z" class="fill" data-original-prefix="fill"/><path id="shading-ear-rt1" fill="#aaaaaa" d="M1670.9 280.1c2.8 3.9-18.7 26.3-21.9 30.5-38.8 50.2-75.5 128.6-72.1 193 .8 14.1 7.3 33 2.8 45.7-3.7 10.4-14 27.3-15.4 37.7-.4 2.9.9 5.2.6 8 10-1.2 15.8-10.8 21.2-18.3 17.3-24.1 30.1-53.1 43.5-79.5 1.1-2.2 1.5-2.2 1.2.2-.8 9.2-6.8 26.8-9.7 36.3-15.4 50.2-37.8 100.7-66.2 144.8-15.3 23.7-22.2 32.4-46.1 47.9-25.3 16.4-36 17.1-63.9 25.1-14.1 4.1-56 16.5-65.5 25.5-11.9 11.1-30.7 52.3-40.3 68.7-13.5 23-27.7 45.9-43.8 67.2-3.6 4.8-10.5 10.9-13.3 15.7-5.6 10-6.8 27-11.1 37.9 7.3-4.2 14.2-10.7 20.5-16.5 12.8-11.9 26.4-25.8 38.5-38.5s33.6-33.7 41.2-48.8c7.8-15.6 13.6-33 21.3-48.7 14.9-4.8 30.4-7.3 45.1-12.9 49.9-18.9 92.7-57.3 134-90 1.4-.3 1.9 0 1.5 1.5-.9 3.2-10.1 20.8-12.2 23.8-4.2 6-36.3 28.6-44.5 34.5-29 20.7-59.7 39.2-87.9 61.1-15.7 27-28.8 55.8-43.5 83.5l-80 71c-6.2 2.7-28.5-4.8-35.8-7.2-32.1-10.8-54.1-27.3-79.9-48.6-8.9-15.6-7.9-22.5 2.7-36.2 24.9-31.8 50.6-57.8 73.4-92.6 33.1-50.5 54.8-106.4 86.2-157.8 11.1-18.2 27.9-36.1 31.3-57.7 1.4-9.1 1-19.2 1.1-28.4l54 6.5c10.6 14.3 17.8 31 26.5 46.5.8-.4 10.6-11.5 11.3-12.7 4.2-7.8 8.8-30.6 10.8-40.2 5-24.6 7-49.5 8.5-74.5 1.9-20.4-5.1-39.9 3.1-58.9 17.4-40.4 50.1-78.2 81-109l66.7-44.4c3.2-.7 24.4 7.8 25.2 8.9Z" class="outline shading" data-original-prefix="shading" opacity="0.5" style="opacity: 0.5"/><path id="outline-ear-rt2" fill="#000000" d="M1204 941c-.6 2-3.1 0-4-.5-7.8-4.3-18.2-9.3-23.9-16-10.4-12.2-18.1-29.9-28.5-42.5-1-3-.7-7.3-.5-10.5.9-20.4 12.5-34.1 20.8-52.2 6.3-13.5 12.6-35.7 19.9-47 2.7-4.1 7.2-7.8 10-12 31.9-46.3 39.4-118.5 44.2-173.8 1.8-21.4.9-43.9 3-65 .7-7 2.4-6.2 5.4-10.6 39.7-59.4 85.7-117.4 135.1-168.9 20.3-21.2 36.1-32.5 60.6-48.4 72-46.8 150.7-85.5 232.4-112.6 12.3-4.1 26.8-8.2 39.5-10.5 12.2-2.1 12.3-3.8 15.3 8.7 7.3 30.4 1.8 91.6-1.3 124.3-.9 9.8-3 31.1-6.5 39.5-3.3 7.9-15.6 18.9-20 29-10.5 24-19.4 81.7-16.4 107.4.7 6.2 5.5 13.1 5.9 18.2.7 9.9-12.8 55.2-16.7 67.2-35.3 109.6-95.4 197.5-196.6 254.4-11.5 6.5-25.5 10.6-34.7 20.3-19.6 20.7-27.1 49.3-38.8 74.2-6.1 12.9-28.9 26-40.2 36.8-2.7 2.6-4.6 5.8-7 8-6.6 6.3-28 29.3-33.5 32.5-2.3 1.4-20.6 4.8-23.6 4.5-9.8-.9-50.7-16.5-58.9-22.1-1.6-1.1-2.9-2.4-3-4.5 7.7 2.8 23.6 7.2 31.6 7.9 22.6 2 43.2-12 60.7-25.1 35.1-26.1 71-71.5 81.2-114.8 1.9-8-1.7-7.6 6.1-13.9 33.8-27 77.5-40.2 111.3-70.7 68.7-61.7 111.2-146.9 130.5-236.5 6-27.8 3.2-52.9 6.5-80.5 3.3-27.4 13.9-73.5 26.1-97.9 5.5-11 10.8-15.4 13.6-28.4 3-14.4 5.4-31.2 7.2-45.8 3-24.6 4.6-49.6 2.1-74.4-1.9-1.9-45.3 15.5-50.7 17.8-67.7 29.8-139.1 73.4-201.2 113.8-57.2 37.1-99 74-142.1 126.9-15.7 19.3-36.9 44.4-50.5 64.5-13.7 20.4-13.2 63.6-15.6 88.4-3.2 33-4.2 70.9-9.1 102.9-2.9 18.7-26.7 65.7-36 85-6.8 14.1-16.8 28.5-23.1 42-6.3 13.7-9 29.6-15.7 43.3-3.2 23.3 13.4 51.1 28.9 67.4z" class="outline" data-original-prefix="outline"/><path id="outline-ear-rt1" fill="#000000" d="m1695 240-22.5 39c-48.8 30.2-87.3 71.4-110.7 124.3-14.5 32.8-25.8 88.9-11.3 122.7 1.2 2.9 6.7 10.6 6.3 12.3-21.1 26.6-32.9 59-41.6 91.5-2.4 8.9-8.5 47.6-11.4 51.6-2.7 3.7-14.2 13.2-18.4 16.6-14.8 12-38.3 27.6-55.4 35.6-2.5 1.2-5.2 2.5-8 2.5 2.8-6.9 6.8-13.1 9.5-20 11-27.9 12.1-62.7-8-87-19.2-23.2-26.3 5.7-31 22-5.4 18.8-8 37.1-8.2 56.8-42.8 42.2-76.4 95.5-104.5 148.6-12.4 23.3-33.8 63.7-30.8 90.2.6 5.4 4.2 10.1 5 15.5-2.3 2.3-27.8-19.3-28.8-22.7-.6-2-.3-4.7-.2-6.8.2-5.2 1.3-20.2 2.5-24.5s15.1-20.8 18.8-26.2c34-50.1 53.3-108 86.4-159.6 11.5-18 28.4-31.6 37.6-51.4 8.3-18 20.8-76 17.2-94.5-.8-4-10.4-27.1-9.3-28.1 7.5 2.8 14.7 6.9 21.7 10.8 6 3.4 32.8 18.5 35.4 22.6 3.1 5 9.5 27.5 11.5 34.5 2.3 8.3 6.6 35 11.4 39.5 13.2 12.3 30.8-13.9 36.2-23.9 25.8-47.2 33.3-96.7 25.7-150.1-1.2-8.7-7.4-28.3-6.7-35.9s16.9-39.6 21.3-47.8c22.4-41.7 46.9-64 80.1-96 8.8-8.5 21.4-24 30.5-30.5 5.6-4 14.3-6.6 20.3-10.7 3.7-2.5 26.2-24 29.7-20.8h-.3Z" class="outline" data-original-prefix="outline"/>
    </g><g class="trait-group" data-category="left ear" id="left ear-slasher">
      <path id="fill-ear-lft" fill="#ffffff" d="M326.7 182.1q1.65-.45 3.3.3l180.7 78.4c55.2 39.7 111.9 77.8 165.3 119.7l109 135.9c10.5 65.4 16 132 25.2 197.8 24.6 50.1 52.6 98.7 77.3 148.7 1.5 3.1 5.4 9.5 5.5 12.5.2 4.7-8.5 15.9-11.2 20.8-15.1 27.1-18.8 33.2-43.9 52.1-22.9 17.2-44.3 28.5-72.5 35.5-8 2-18.1 5.7-25.3.5l-82.9-79.1c-9.9-22-17.5-45.3-28.1-66.9l-154-109c-23.7-34.4-41.7-73.1-64.9-108.1-9.8-43.7-27.6-90.2-34.9-134.1-5.9-35.7-6.9-73.6-12.5-109.5-9.3-20.9-22.7-40-30.5-61.5-1-40.6-6.8-81.2-8.3-121.7-.1-3.4-1.1-11.4 2.8-12.4Z" class="fill" data-original-prefix="fill"/><path id="shading-ear-lft" fill="#aaaaaa" d="M740 656.5c-.2.6-2.2 2.5-3.3 2.3-8.8-3.8-18.2-6.7-27.7-7.9l2.9-18.9c-2.2.6-8.4-3.2-9 .4-.5 3.2.2 7.5 0 11-.1 2.3-1.1 4.4-1.1 7 0 7.5 18.1 33.6 22.6 42.5 8.8 17.2 15.8 35.7 24.9 53.1 31 58.9 70.5 108.5 113.3 158.7 2.1 4.5 1.6 9.6 4.2 13.8l-8.1 11.9c-29.4 24.7-56.9 43.6-94.7 53.3-12.1 3.1-23.3 8.5-26.8-7.7-.3-1.5.8-3.6.6-4-.2-.3-4.4-1.7-5.9-2.7-29-18.5-62-46.6-79.6-76.4-12.3-20.8-19.5-45.2-30-67-31.6-23.3-70.3-37.8-100.9-62.1-22.3-17.7-40.8-39.6-57.5-62.5l49.1 39.9c36.5 27.8 75.8 55.8 121.1 66.9 4.2 1 15.1 4.3 18.4 2.8 1.8-.8 4.9-4.8 6.4-6.6 1.1-1.3 4.8-7.2 5.2-7.4 1.5-.8 8.7 3.8 9.7.2 1.4-4.7-3.1-6.9-3.7-10.1-.8-3.9 2.4-5.9-1.1-9.8-4.5-5-29-13.8-36.5-16.5-28.4-10-58-13-83.8-28.2-26.3-15.4-36.9-25-53.7-50.3-2.6-4-16.5-28.1-18-29-1.6-1-14.6-.7-17.5-.5-3.5.3-15 3.5-16.9 2.9-3.8-1.2-.6-14-.6-17.4s-.9-8.1-1.2-8.4c-.7-.7-15.5-1.9-18.1-2.4-6.4-1.2-12.4-3.4-18.8-4.7 2-8.2 1.4-19.1-3.2-26.3-1.3-2.1-4.6-4-4.9-6.2-.4-3.5 2.4-2.8 2.9-3.6.4-.6-2.4-4.4 1.8-5.6 5.9-1.8 23.5 7.3 31.3 5.8.5-2.6-5.3-9.2-5-10.5.5-2.7 10.7-1.1 13-1.5-8.8-26.7-18.8-53.2-24-81l22.8 44.7c4 7.5 17.9 33.6 23.1 37.9 2 1.7 4.7 1.7 5.8 2.7 2.7 2.5 0 7.7 8.2 5.8 1.1-1-5.2-9.4-4.9-11.4.4-1.8 3.6-2.4 4.4-3.6 1.9-3.1-5.6-15.1-7-19-5.6-15.1 1.7-35 2.5-51.4 1.2-23.5-2.8-46-9.8-68.3-1-3.1-7.9-23.5-8.9-24.3-5.5-4.3-15.6 0-18.7-1-3.5-1.1.3-7-3.2-7s-6.9 1.8-10.5 1c4.2 11.6-11 7.8-18.5 8-2.2 0-6.3 2.6-7.4-.6-.5-1.4.1-5.1-.1-5.4-.6-.6-13.3-.7-16.2-1.2-6.1-1.2-11.8-2.6-14.5-8.5-4.6-9.9-7.1-24.7-11.5-35.5-1.4-3.3-4.1-8.8-5.8-12.1-.5-1-1.8-.4-2-1.2 3.5-.2 7.9 3.2 10.9 5.1 5.8 3.6 14.4 11.7 20.6 12.4 1.2.1 7.2.3 7.5 0s-.3-3.1.1-4.4c1.2-3.8 21.1-3.4 25.4-5.7 4.4-.3 3.5 3.7 3.5 7 1.2-.2 7.7-.7 8-1 .8-.8-1.5-5.5-.9-7.4.7-2.1 4.4 0 2.1-5.3-10.9-25.6-39.7-48.8-53.6-73.4-3.5-6.2-2.7-12.6-5.6-18.9.9-.8 15.4 4.7 17.7 5.8 13.7 6.7 30 18.3 43.2 26.8 22.4 14.3 43.8 27.4 62.1 46.9 2.5 2.7 15.3 19.2 16.5 19.5 3.3.8 12.8-18 18-18 3.3 0 12.2 12.6 15.3 10.9.3-.2 3.6-5.5 3.7-5.8 1.6-4.8-9.7-10.6-11.7-14.5 0-1 10.6-15.5 11.6-16.5 7.3-6.6 13.8 7.7 19.1 8.8 2.9.6 10.8-7.6 14.7-7.6l30.2 18.8c6.2 6.6-11.4 13.4-10.6 18.5.3 2.1 19.7 10.9 16.6 16.6-1.7 3.1-16.4 11-18.1 17-5.2-.6-12.1-14-15.9-14-2.1 0-7.9 7.5-7.4 9.4.7 2.6 13 9.1 12.8 11-5.7 4.7-7.3 20.9-10.4 24.7-3.9 4.7-14.4-7-19-7.9-1 0-5.4 11-5.4 12.4 0 3.4 8.1 15.2 8.9 20.1.9 5.7-.9 10.8-1 15.9-.8 37.5 1.5 75.1 9.3 111.7 3.4 15.8 6.3 33.6 17.7 45.3 1.1 1.2 2.2 2.8 4 2.5 7.4-15.6 15.5-31 25-45.5l52.3-6.5c1.9-.6 1.7-9.4 6.2-8 2.8.8.3 6.5.7 9.2.2 1.4 4 10.8 4.8 11.3 2.7 1.8 3.5-2.9 4.2-3.4 1.1-.7 21.1 3.8 23.1 5 5.1 2.9 1.2 13.5 3.3 14.9.5.3 11 3.3 11.4 2.9-.2-1.5-3.2-14-1.5-14 7.8 2.5 15.6 5.3 23.4 7.6 2.5.7 7.1-.4 7.1 2.9 0 1.7-3.9 8.1-1.9 10.4.5.5 13.2 3.8 13.9 3.1-1.7-19.9 3.8-11.3 16-8.5 2.3.5 7.6 0 8.6 1.4 1.6 3.5-.8 14.7.6 16.9 1.1 1.8 10.9 1.9 13.1 7.4l4.8 25c.3 1.1 2.2 1.2 2.9 2.3 3.6 5.6.2 35.3-.9 43.4-6.1-5.8-9.5-24.4-15-29.5-1.3-1.2-5-2.7-6.9-3.1l3 12.5-31-6c2.7-12.5 4.3-20.4-11-22-.8 4.4 1.1 12.7 0 16.5Zm-18.1 210.6c-2.5-1.5-4.3 2.9-6.4 2.9-2.3 0-6.2-7.7-9.1-2-1.1 2.2 2.7 4.5 3.3 6.7 2.3 8.6-7.1 12.5-7.3 20.2 21.9 21.6 42.8 47 66.5 66.5.9.8 6.3 5.2 7 4.5 0-3.8-1.4-7.5-2.3-11.2-1.5-5.9-5.2-21.7-7.9-26.1-4-6.8-15.2-17.8-20.7-25.3-5.1-6.9-9.9-14.2-14.6-21.4-1.4-2.2-8-14.4-8.7-14.8Z" class="outline shading" data-original-prefix="shading" opacity="0.5" style="opacity: 0.5"/><path id="outline-ear-lft" fill="#000000" d="M805 969c-1 4.2-9.1 7.7-13 9.5-10.8 5-38.1 16.1-49 17.1-3 .3-21.2-3.2-23.6-4.5-5.2-3-26.4-26.9-32-33-5.2-5.8-27.3-30.2-28.4-35.6-.9-4.3-.4-16.8-2-19l-26.8-14.7c-9.4-13.7-18.7-39.5-29.3-51.2-4.2-4.6-28.2-14.2-35.7-18.3-76.8-42.5-123.8-96.3-162.9-174.1-2.2-4.4-9.6-18-10.3-21.8-1.3-6.8 7.3-14 4.4-23.3-.7-2.3-6.9-8-9-10-3.3-3.1-11.3-8.2-13.4-11.6-4.3-7-9-29.3-10.8-38.2-3.4-16.7-7.2-39.9-6.3-56.7 1.2-23.3.8-41.3-3.3-64.7-.8-4.6-6.2-24.5-5.2-26.8 1.1-2.4 6-5 5.5-9.5-.3-3.1-10.1-11.3-12.2-14.8-3.9-6.6-6.1-16.9-10.3-24.7-6.3-11.9-13.3-15.5-15.4-29.6-3.9-26.6-5.8-66.7-5.8-93.7 0-7.3 1.6-46.2 6.3-49.8 2-1.5 9.4 1.1 12.1 1.8 70 20 155.2 61.5 217.1 99.9 4.9 3.1 28.8 17.4 30.3 20.7 1.6 3.5 3.2 16.1 6.7 18.2 5.9 3.6 22.2-6.7 29 1.1 37.1 34.2 81 66.8 114.6 104.4 27 30.2 49.1 67.9 73.9 100.1 3.2 23.4 2.7 47.6 4.6 71.4.7 9 4.2 21.8 4 30 0 5.2-8.5 14.2-6.8 19.7 1.2 4.2 6.7 6.1 8.8 8.3 2.6 2.8 4.3 24 5.4 29.6 4.3 22.4 13.9 55 25.7 74.3 6 9.9 15 18.3 19.9 28.1 6.1 12.4 10.4 26.9 16.3 39.7 8.3 18.1 20.9 33.9 21.8 54.2.1 3 .5 7.8-.5 10.5-10.9 12.7-18.4 31.3-29.5 43.5-5.6 6.2-15 10.5-22 14.5h-2s-.9-.4-1-1c13.7-19.8 31.3-39.5 26.8-66.3-1-5.6-12.7-36.1-15.6-42.4-5.6-12.2-14.8-25.3-21-38-11-22.2-25.3-51.4-33.9-74.1-5.7-14.9-4.5-29.3-6.2-44.8-.7-6.3-3.8-20.8-8.3-25.2-1.7-1.7-10-3.9-12.7-5.3v15.5c0 .7-.8 3.6-2.5 3.6-4.4-.1-9.8-3.9-14.4-4.2-1.4-1.6 2.9-18.3.4-21.9-.6-.9-19-7.7-21.1-8-2-.3-1.3 0-1.5 1.5-.9 6.8-1.1 13.7-1 20.5l-18-3 2-25-21-4v24l-17.9-4.1-.2-22.8-16.9-2c4.7 25.4 8.6 50.4 23.2 72.3 7.3 11 17.5 19.1 24.6 29.4 37.1 53.6 56.5 116.8 93.4 170.6 3.5 5.1 16.1 19.8 16.8 24.2-1.5 8.2 4.7 24.8.5 31.4-1.2 1.9-5.5 5.8-7.4 7.6-2.2 2-18.3 15.1-20 13.5 1.4-6.6 5.4-12.5 5.6-19.3 1.1-32.7-36.3-97-53.5-126.3-1.9-3.2-15.2-25.4-16.7-25.3-1.4 2.6-6.8 7.9-6.6 10.4.4 4.4 11.5 8.8 11.1 13-.1 1.5-8 13.9-9.5 13.5-2-.5-9.8-11.5-12-11-1.5 3-9.6 13.7-8.1 16s11.9 7.9 12.4 10.6l-8.3 16.3c-2.5-2.3-10.7-11.6-13.9-11l-6.2 12c-.3 2 11.9 8.8 13.5 11.7l-6.9 16.3c-3.1-.9-12.7-11.6-15-10-.6.4-4.8 13.4-4.8 14.5 0 2.3 3.7 22.8 4.5 25.4 1.4 4.5 24.3 25.5 29.4 29.6 12.2 9.7 31.8 22.9 46.6 27.4 14.4 4.3 36.2-2.2 50.3-6.8ZM543.2 313.1c3.3-2 15.4 11.6 19.3 12.9 3.9-.8-1.1-15.9-2.9-18-36.7-23-73.3-46.1-111.5-66.5-38.6-20.6-78.2-40-120-53.5-2.6 32.2.3 64.5 5.1 96.4 1.8 11.4 3.5 27.6 8.3 37.7 2.5 5.2 6.5 10.4 9.2 15.8 3 6 5.2 14.5 8.2 19.8.7 1.2 11.2 11.6 12.1 12 3.5 1.6 14.2-1.9 19-.5l-2-12 18-1 1.9 10.4c1.2 1.8 15.8-2.2 19.1-1.4l-3-11c2.8-.2 16.7-3.2 18-2 .3.3.8 8.6 2.7 9s14.7-1.8 14.3-4.5c-.2-1.6-16.9-21.8-19.4-24.6-18.9-20.9-41.7-37.5-65-53l-22.5-39c13 3.4 21.1 15.6 32.1 22.4 6.3 3.9 13.5 6 19.4 10.6 43.8 41.5 80.5 75.3 110.7 128.3 1.1 1.9 3.6 9.9 4.9 5.3 0-6.8 12.4-28.8 11.9-33.1s-18.1-14.3-16.9-18.8c.3-1.3 8.8-11.9 10.2-11.6 1 .2 11.8 11.3 14.1 12.9.8.6 1 1.4 2.5 1l10.1-17.4-16-13.2c1.3-1.8 7.4-12.8 8-13.2ZM679 589v-15c2.5 1.1 16.2 3.1 16.9 4.1 1.5 2.4-2 11.7 1.8 13.7 1.2.6 20.5 5 21.3 4.2v-12c2.3.6 16.3 3.4 16.9 4.1 1 1.2-1 11.6.6 14 .7 1 19.5 7.1 22.5 8v-15l15.9 4.1c1.1 3.5-1 16.6.3 18.7.3.4 8.8 4.2 9.2 4.1 4.3-1 4.7-12.9 4.6-16.4-.5-12.2-2.7-24.8-4-37-1.9-18.2-1.7-39.9-12.2-55.8-13.3-20.2-35.2-45.9-50.8-65.1-25.1-30.9-50.5-58.4-81.5-83.5-6.3-5.1-39.9-31.4-44.9-32.1-9.5-1.3-11.1.7-16.5 7.5 2.5 3.1 20.6 15.1 20.9 17.1s-10.7 10.7-13.2 12.2c-2.6-.2-13.1-11.9-17.2-13.9-1.2-.6-.6-1.2-2 0-1 .8-10.6 16.5-10.5 17.5 2.4 1.9 15.4 11.6 15 13.9-2 1.3-8.7 12.6-9.5 12.7-3.4.5-9.3-7.3-11.9-9.1-1.1-.7-.7-1.6-2 0-3.5 4.3-10.5 29.4-12 36-8.3 36.7-15.9 94.1-10.2 131.2 3.7 24.3 24.5 84.2 45.4 97.6 8 5.1 16.2 6.2 20.5-4.1 3.9-9.4 5.6-24.9 8.5-35.5 2-7.3 8-28.2 11.4-33.6s36.5-23.7 44.2-27.8c1.6-.8 12.1-6.4 12.7-5.8-2.9 13.5-11.6 25.8-10 40 6.7-.1 13.4-.2 20 1Zm-242-9h18c1.8 4.8 1.4 14.3 3.2 18.3.6 1.3.8 1.6 2.3 1.7 8-1.8 16.5-.6 24.1-4l-2.6-19 17.1-1.6L502 590c2.9-1.8 12.6-5.5 13-8.5s-5.1-12.9-6.9-16.1c-5-9.4-11.9-18.4-18.1-27 1.8-4.6 4.9-8.7 6.9-13.8 14.5-37 1.3-96.9-16.5-131.6-1-1.9-6.5-12.5-7-13-.7-.6-1-.9-2-1-4-.5-16.4 4.8-21.5 5.1l2 12.3c-.4 1.9-14.4 2.3-17 2.6l-2.6-12c-3.5 1.7-16.5 1.1-18.5 2.5-2.5 1.7 1 8.7 0 11.6-3.3-.2-13.6 2.4-15.9.9-1.1-.7-1.5-8.4-2.6-9.9-1-1.4-17.5-1.5-19.8-.8-1.6.5-5.5 4.7-5.7 6.4 2.5 15.4 6.6 30.4 8 46 3 32.6 1.1 54.6 9.3 87.7 4.3 17.3 11 50.8 26.8 60.2 3.3 2 21.5 6.4 25.5 6.5 1.6 0 1.6.4 1.3-1.3-1-5.6-2.6-11.2-3.8-16.7Zm88 26c-2.8 1.5-17.4 8.3-17.9 9.7l3.5 25.4c-1.1 1.5-15.9 3.8-17.7 2.5-2.5-1.8-2-23.2-4.6-23.7l-25.4 3.1c-1.2 4.2 4.2 20.8 2.6 23.1-1.5 2-15.3.9-18.5-.2l-2.1-22.9c-6 1.7-17.4-2.2-22.3-1-1.1.3-1.7 3.5-1.7 4.6 0 5.6 13.8 27.3 17.6 33.4 24.3 38.7 60.1 84.3 97.7 110.3 12.7 8.8 92.4 51 94.5 58.5.7 2.5.1 5.8.9 9.1 1.6 6.8 9 25.1 12.5 31.5 2.1 3.9 3.4 7.9 8.8 7.7-.6-4.4 5.7-11.7 4.9-15.3-.5-2.1-12.1-10-14.7-11.9-1.2-2.1 4.5-12.2 5.9-14.2 4-5.5 13.6 10.7 17.8 8.2.6-.4 6.3-11.8 6.2-13.3-.3-2.7-10.9-9.1-12.6-12.6-1.2-2.3 6.4-12.6 8.1-15 1.2-.3 10.1 8.8 11.9 10 1 .7 1.1 1.5 2.6.5 1-.6 8-12.7 8-14.1 0-3.4-9.9-8-11.5-11.5-1.7-3.8 6.4-11.4 8-15 2.7.7 12.9 12.2 14.5 11 .2-4.6 10.8-14.6 9.9-18.3-14.9-20.2-30-40.5-48.3-57.7-2.2-25.1-4.9-55.6-16.5-78.5-5.7-11.2-11.6-13.3-21-3.7-27.5 28.3-20.1 73.5-3.5 105.2.7 1.3 4.6 5.5 1 5-2.6-.4-11.2-5.3-14.2-6.8-22.8-12.2-43.3-26.9-61.6-44.9-1-1-3-1-4.2-2.3-2.5-2.8-8.9-41.6-10.8-49.2-2.3-9-5.8-17.7-7.7-26.8Z" class="outline" data-original-prefix="outline"/>
    </g><g class="trait-group" data-category="head" id="head-slicked">
      <path id="fill-head" fill="#ffffff" d="M1184.8 747.2c1.7 1.6 7.1 11.9 9.4 15.1 15.6 21.3 37.6 44.5 59.5 59.5 2.8 1.9 17.6 9.9 18.1 10.9.8 1.6 2.1 11.4 2.2 13.8 1 17.8-4.1 34-12.8 49.2-.5 2.1-11.1 14.5-10.2 15.3 1 .9 3.1-.8 4-1.5 8.7-6.4 17.5-19.2 25.9-26.5 5.6 12.5 16.9 32.8 17.1 46.5.2 11.8-11.5 36.8-23.6 40.5-3.4 1 .8-5.5 1.3-6.7 1.5-4.3 4.3-11.3 4.3-15.8 0-5.3-2.9 1.3-3.2 1.8-3.7 5.3-6.8 10.1-12.5 13.5-17.3 5.9-62.4 43.2-77.7 43.1-7.3 0-16.7-4.3-24.6-2.9 5.1-5.7 11.2-12.7 9.5-21-13 11.3-26.8 21.6-41.6 30.4-10.1 6.1-24.4 16.9-36.3 8.5-4.9-3.5 2.7-5.8 5-8.2 5.1-5.4 17.4-29.3 20.5-37 3.6-8.8 6.2-19.1 6.3-28.7-5.2 4.1-6.4 10.8-9.7 16.3-11.5 18.9-35.2 43.6-54.5 54.5-51.1 29-102.9-11.5-129.1-54.5-3.3-5.5-4.5-12.2-9.7-16.3 0 9.5 2.8 19.8 6.3 28.7 3.1 7.6 15.4 31.6 20.5 37 2.4 2.5 9.9 4.8 5 8.2-13 9.2-33.2-6.2-44.3-13.5-11.8-7.7-23-16.2-33.6-25.4-1.6 8.3 4.4 15.2 9.5 21-7.9-1.4-17.3 2.9-24.6 2.9-15.3 0-60.4-37.1-77.7-43.1-1.9-1.8-4.4-3-6.2-4.8-2.2-2.2-7.3-11.8-8-12.1-.4-.1-2.5-.3-2.5.5l8 23.5c-12.1-2.4-20.7-20.2-23.5-31-4.7-18.2 8.2-39.9 15.5-56 8.4 7.3 17.2 20.1 25.9 26.5.9.7 3 2.4 4 1.5.9-.8-9.7-13.2-10.2-15.3-11.4-19.3-16.3-41.6-10.3-63.7 30.5-15.7 57.2-42.2 77.3-69.7 1.8-2.5 8.9-14.7 9.9-15.4 9.9-7.1 43 2.9 55.1 4.8 27.3 4.3 43.7-9.7 68-18.5 20.1-7.3 45.1-9.5 65.8-3.3 17.9 5.4 43 21.4 60.1 22.9 15.2 1.4 62.5-14.7 72.1-5.6ZM959 765c-.8-.8-5.9 2.8-6.9 3.6-6.7 5.1-36.1 44-37.6 51.4-2.6 12.6-.8 28.8-.4 41.5.4 11.9-.9 22.9 3 34.5l5.5-37c4.6-24.6 12.2-48.6 22.7-71.3l13.8-22.6Zm172 131c3.9-11.6 2.6-22.7 3-34.5.4-12.7 2.2-28.9-.4-41.5-1.5-7.3-30.9-46.3-37.6-51.4-1-.8-6.1-4.4-6.9-3.6l13.8 22.6c10.4 22.7 18.1 46.7 22.7 71.3l5.5 37Zm-224-97c-.8-.8-15.6 9.7-16.9 11.6-2.5 15.7-19.9 44.4-19.2 58.9.2 3.6 7.9 20.7 9.9 25.2 4.9 11 16.8 36.7 23.7 45.3 1.2 1.5 2.8 2.3 4.5 3-5.4-21.5-21.9-48.5-22.1-70.5-.1-23.9 12.5-51.2 20.1-73.5m232 144c1.7-.7 3.3-1.6 4.5-3 6.9-8.6 18.8-34.3 23.7-45.3 2-4.5 9.7-21.6 9.9-25.2.7-14.5-16.6-42.5-18.8-58.2-4.4-5.2-10.9-8.8-16.7-12.3l13.2 38.8c3.9 15.4 8.2 31.3 4.8 47.3l-20.5 58ZM831 816c-1.8-2-6.7 8.3-7.2 9.3-3.8 8.1-8.5 19.9-11.6 28.4-1.1 3-4.3 11.2-4.3 13.8 0 2.3 5.8 13.8 7.2 16.8s11.2 23 12.4 23.6c1.9.9 1.5-1.3 1.4-2.4-.7-9.1-5.9-20.4-6.8-30.2-1.8-19.6 5.2-40.3 8.9-59.4Zm388 92c2.1.4 2.3-1 3.2-2.3 7.1-10.5 12.2-26.6 17.8-38.2-4.6-13.7-9.8-29.1-15.9-42.2-1.4-3-3.4-8-6.7-9.3l8.5 46.5c1.4 15.7-4.8 30.3-7 45.5Z" class="fill" data-original-prefix="fill"/><path id="fill-head3" fill="#ffffff" d="M689 956c.1 0 .2 1.7 1 2.5 3.8 4 7.9 7.4 11 12 4.5 6.4 15.1 12 19.1 17.9.7 1 1.2 1.5.8 2.9-.8 3.2-14.6 6.3-18.4 9.7-7.2 6.3-27.7 38.1-32.3 47.7l-13.1 32.3c-2.2-18-6.1-36.4-7-54.5-1.5-29.2 10.6-35.5 27-56 3.1-3.9 6.9-10.6 10-13.8.7-.7 1.4-1.2 2.1-.6Z" class="fill" data-original-prefix="fill"/><path id="fill-head2" fill="#ffffff" d="M1361 956c7.8 14.4 21.4 25.8 30.2 39.3 7.2 11 7.4 18.2 6.8 31.2-.9 17.2-5.1 34.3-6 51.5-2.6.4-1.6-.2-2.1-1.4-4.9-11-8.1-22.3-14.1-32.9-4.3-7.5-25.9-39.3-31.4-43.6-4.2-3.2-20.5-5.6-16.4-11.7 6.9-6.8 14.4-12.9 21.1-19.9 3.2-3.3 6.3-8.2 9.5-11.5.8-.8.9-1.4 2.4-1.1Z" class="fill" data-original-prefix="fill"/><path id="shading-head" fill="#aaaaaa" d="M749 958.5c-.9-4.2-14.1-19.9-16.8-28.2s3.4-18.6 7.2-26.3c4.7-9.4 20.7-31.4 21.5-39.5.7-7.3 0-14 1.3-21.7 1.2-7.1 2-15.7 10.7-16.3-13 21.5-2.7 45.5 9.6 64.4 5.5 8.5 17.7 24.8 25.9 30.1 1.2.8 2 1.2 3.5 1-5.7-18.1-13.5-34.6-9.5-54 2.9-14.1 10.1-27.2 21.5-36-.2 3.8-5 7.6-5.8 10.7-1.9 7.7 1.9 19.8 2.7 27.8 1.1 11.2-2.1 25.3 8 33.5-.2-24.2 7.7-47.1 19.8-67.7l12.2-19.3c-16.5-3.4-33.5-5.2-50-8.5-3.5-.7-8.5-1.3-11.6-2.4-1.1-.4-1.7.5-1.4-1.6 10.3-10.4 20.9-20.5 30.5-31.5 10.4-12 30.3-45.4 46-45.8 13.3-.3 29.8 4.8 43 5.8 20.9 1.5 46.8-16.6 67.2-22.8 8.3-2.5 64.5-2.5 74.7-1.1 15.6 2.2 41.8 19.5 58.3 23.7 18 2 38-6 55.8-5.6 15.7.4 35.6 33.8 46 45.8 11.2 12.9 24 24.3 35.5 37-30.7 7.1-61.6 14-93 17 1.1 2.6-1.1 4.4-1.1 7.5 0 .7 2.8 11 3.1 11.5 0 0 1.5-1 2.4 0 .6.6 7.8 13.3 8.4 14.7 7.8 18.2-.1 61.2-6.6 80.2-1.6 4.6-4.8 8.5-5.3 13.2 1.5 1.5 23.5-3 26.5-5 4.1-2.7 18.9-23.5 22.3-28.7 12.1-18.8 19.6-40.9 18.7-63.4l-8.1-24.9c1.5 3.5 4.3 5.4 6.3 8.7 5.9 9.7 12.5 26.8 14.1 37.9 2.3 16.5-1.2 31.6-5.9 47.4 5.7-3.5 23.6-30 28.5-30 5.3 0 15.4 21.3 16.8 26.2 3.6 12.7-.9 24.3-7.1 35.5-1 1.7-4.8 5.6-4.8 6.8 0 .8 2.1 5.6 2.3 8.2 0 1.4-1.2 5.7-.6 6.3 2.4 2.4 3.6-2.8 4.1-3.4 8.1-8.6 13.7-5.5 19.8-18.3 7.7-16.4 10.4-38.5 10.2-56.4 1.4-1.9 11.2 21.6 10.9 25.4-.6 8.5-18 30.3-18 32.1V974s1.1-.2 1.6.4.3 1.6.4 1.6h15.5c1.4 0 20.4-13.1 23-15 8.7-6.7 16.1-15.2 25-21.8 1.3.9 2.8 1.8 3.9 2.9 8.9 8.8 43.7 58.8 47.3 69.7 4.3 12.9-1.6 27.3-5.5 40-5.7 18.7-12.9 37-19.8 55.2-5.6-14.1-10.2-28.5-16.6-42.3-8.4-18.2-25.9-53.8-44.6-61.4-2.4-1-11.3-2.9-12-3.5-3.1-2.2-6.5-20.5-12.7-21.8-11.4-2.2-16.3 2.4-25.7 5.3-5.5 1.7-13.9 4.2-19.4 4.6-7.8.5-18.2-2.6-25.4-.4s-29.9 19.7-39 25c-3 1.7-9.5 6.3-12.5 6.6-4.5.5-15.7-5.2-22-5.9-22.2-2.3-32.9 10.6-52 18.7-2.3 1-8.1 3.8-10 3.8-4.7.2-12.2-6-15.9-6.7-2.3-.4-9.6-.4-12 0-5.8.8-12.9 10-19 11-5.9 1-53 .8-57.2-.7-5.2-1.8-11.4-9.5-16.7-10.3-2.4-.3-9.7-.3-12 0-4.1.8-11.3 7.3-16.6 6.5-5.8-.8-23.7-10.8-30-14.1-13.3-6.8-14.2-10.2-31.4-8.4-6.5.7-18.2 6.6-22.9 5.7-2.8-.5-8.8-4.7-11.7-6.4-9.1-5.2-31.4-22.7-39-25s-17.7 1-25.4.4c-15.2-1.1-28.2-11.4-43.2-9.9-9.9 1-9.5 16.7-14.9 21.1-3.4 2.8-14.4 4.4-19.9 8.1-14.4 9.8-37.6 58.3-44.4 75.6-2.8 7.1-4.6 14.9-7.3 21.7-.4 1-.4 2.4-1.9 2.6-.5-5.7-4-11-6-16.5-4.6-12.3-9.4-26.2-13.2-38.8s-9.8-27.1-5.5-40c3.7-10.9 38.5-60.9 47.3-69.7 1.2-1.1 2.6-2 3.9-2.9 1.4 0 17.7 16 20.6 18.2s25.8 18.6 27.4 18.6h15.5s-.2-1.1.4-1.6 1.6-.3 1.6-.4c0-4.1.7-12.1 0-15.5ZM904 932c-3.5-22.2-6.3-42-.7-64.2 3.2-12.5 10.2-25.3 13.1-37 .6-2.4 1.3-7.3-1.8-7.8-5.9-1-12.9-.4-18.9-2.1-18.3 37.1-16.7 77.7 8.4 111.1Zm219.9-100.9c-21.8.4-43.6 2-65.4 1.9-38.8-.2-77.4-5.6-116-7-3.1-.1-6.5-.3-9.6.4-.8.6-1.8 7.5-1.9 9.1-1.7 20.1 2.8 45 7.3 64.7 3.7 16 10.3 31.1 19.2 44.8l.5-7.5c-2.7-32.3.2-69.9 18.5-97.5-2.2 52.9 15.6 107.2 52 146 .3-22.2-4.8-43.3 4.6-64.3 12.5-27.9 44.1-35.9 64.4-10.7 7.2 9 8.9 19 11 30 15.2-17.7 21-42.8 23.4-65.6.3-3.4 1.3-9.7 1.1-12.7-.2-2.6-7.7-30.6-9.1-31.5ZM1165 887c-.7-4 .9-7.7 1.1-11.5.9-17.1-4-30.8-9.5-46.5-1.7-2-14.6.7-18 1-3.1.3-6.3-.2-9.5 0-.4 1.9 1.6 3 1.7 4.6.2 2.1-1.2 4.3-.5 7.7 1.2 6.1 9.9 18.7 12.5 26.5 6.7 19.7 4.6 30.1 3.2 49.8-.2 3.8-1.3 11.6 3.5 7.5.5-.4 6.5-10 6.9-11.1 1.2-3 3.6-13 4.4-16.6 1-4.6.4-10.4 2.2-15.3l2 4Zm-352.5 36v1c.7-.3.7-.7 0-1" class="outline shading" data-original-prefix="shading" opacity="0.5" style="opacity: 0.5"/><path id="outline-head7" fill="#000000" d="M907 799c-7.6 22.3-20.2 49.6-20.1 73.5.1 22 16.7 49 22.1 70.5-1.7-.7-3.3-1.6-4.5-3-6.9-8.6-18.8-34.3-23.7-45.3-2-4.5-9.7-21.6-9.9-25.2-.7-14.4 16.7-43.2 19.2-58.9 1.2-2 16.1-12.5 16.9-11.6" class="outline" data-original-prefix="outline"/><path id="outline-head6" fill="#000000" d="m1139 943 20.5-58c3.4-15.9-.9-31.9-4.8-47.3l-13.2-38.8c5.8 3.5 12.3 7.1 16.7 12.3 2.2 15.7 19.5 43.8 18.8 58.2-.2 3.6-7.9 20.7-9.9 25.2-4.9 11-16.8 36.7-23.7 45.3-1.2 1.5-2.8 2.3-4.5 3Z" class="outline" data-original-prefix="outline"/><path id="outline-head5" fill="#000000" d="m959 765-13.8 22.6c-10.4 22.7-18.1 46.7-22.7 71.3l-5.5 37c-3.9-11.6-2.6-22.7-3-34.5-.4-12.7-2.2-28.9.4-41.5 1.5-7.3 31-46.3 37.6-51.4 1-.8 6.1-4.4 6.9-3.6Z" class="outline" data-original-prefix="outline"/><path id="outline-head4" fill="#000000" d="m1131 896-5.5-37c-4.6-24.6-12.2-48.6-22.7-71.3l-13.8-22.6c.8-.8 5.9 2.8 6.9 3.6 6.7 5.1 36.1 44 37.6 51.4 2.6 12.6.8 28.8.4 41.5-.4 11.9.9 22.9-3 34.5Z" class="outline" data-original-prefix="outline"/><path id="outline-head3" fill="#000000" d="M831 816c-3.7 19.1-10.7 39.7-8.9 59.4.9 9.8 6.1 21.1 6.8 30.2 0 1.1.5 3.3-1.4 2.4-1.2-.6-11-20.6-12.4-23.6s-7.2-14.6-7.2-16.8c0-2.6 3.2-10.8 4.3-13.8 3.1-8.5 7.8-20.3 11.6-28.4.5-1 5.4-11.3 7.2-9.3Z" class="outline" data-original-prefix="outline"/><path id="outline-head2" fill="#000000" d="M1219 908c2.3-15.2 8.4-29.8 7-45.5l-8.5-46.5c3.2 1.4 5.2 6.3 6.7 9.3 6.1 13 11.3 28.5 15.9 42.2-5.7 11.6-10.8 27.7-17.8 38.2-.9 1.3-1.1 2.7-3.2 2.3Z" class="outline" data-original-prefix="outline"/><path id="outline-head1" fill="#000000" d="M1308 967c20-7.7 33.4-24.5 49.5-37 2.2-1.7 6-5.3 8.8-4.9s15.6 15.7 18.1 18.9c9.9 12.4 31.4 41.7 37.8 55.2 14.7 31.2-11.1 77.2-20.7 107.6-.7 2.3 0 5.4-.9 7.1-1.3 2.1-15.8 8-18 5-1-1.3-4.5-15.8-5.7-19.3-8.6-24-21.3-50.2-35.7-71.3-5.4-7.8-8-12.1-17-16-2.9-1.2-13.5-3.8-14.7-4.8-2.6-2.1-7.7-19.7-10.9-20.7-12.6 5.3-26 9.3-39.8 10-4.1.2-15.7-1.4-17.8-.9-6.2 1.5-34.3 22.8-43.5 27.6-7.2 3.8-10.9 6.1-19.5 4.9s-17.8-7.6-26.3-6.8c-5.1.5-22.3 12.1-28.8 15.2-10.8 5.1-20.4 10.4-32.5 7.1-3.3-.9-13-6.3-14.7-6.3-2 0-13.2 10.1-18 10.9-5.3.9-10.1-.9-14.9-1-12-.2-24.1-.2-36.1 0-5.9.1-12.2 2.6-18.2.3-3.3-1.2-14.3-10.2-15.8-10.2-2.8 0-14.7 7.4-21.3 7.8-7.1.4-19.9-5.7-26.5-8.9-6.1-2.9-22.5-14.1-27.2-14.8-8.8-1.4-18.5 5.5-27.2 6.7-10.8 1.4-16.5-3.3-25.2-8.3-7.2-4.2-32.9-23.1-37.8-24.2-2.1-.5-13.7 1.1-17.8.9-13.6-.6-28.5-4.4-40.4-11-4.1 6.2-6.4 19.1-13 22.5-3.6 1.8-8.8 2.6-12.7 4.3-10.2 4.6-12.8 10.4-18.7 19.3-17.9 27-30.4 57.2-40.2 88-2.5.8-15.5-4.2-16.2-5.2-.6-.9 0-3.9-.6-5.9-9.7-27.9-33.2-74.3-24.2-103.2 4-12.9 35.2-56.3 45.2-67.8 2.4-2.8 11.1-12.9 14-12.9s24.7 20.4 29.6 24.3c2.5 2 26.7 18.9 27.9 17.6-2-7-7.7-12.8-11.2-19.3-10.3-19.3-8.6-28.6.7-47.7 4.1-8.5 20.8-32.1 22.3-37.7 1.4-5.3.5-16.6 1.2-22.8.7-5.5 1.9-11 3.8-16.2 27.3-18.8 50-41.4 71.2-66.8 9.4-11.3 21-32.6 35.2-36.8 16.3-4.8 43 3.4 60.2 4.3 17.5-6 36.2-17.3 53.6-22.5 10.7-3.2 75.1-3 88.4-1.4 16.3 2 42.4 19.2 59.2 23.9 17.2-.9 43.9-9.1 60.2-4.3 14.2 4.2 25.8 25.5 35.2 36.8 21.2 25.4 43.9 48 71.2 66.8 1.9 5.2 3.1 10.8 3.8 16.2.7 6.1-.2 17.4 1.2 22.8 1.5 5.6 18.2 29.3 22.3 37.7 9.3 19.1 10.9 28.4.7 47.7-1.4 2.7-12.4 18-11.2 19.3Zm-123.2-219.8c-9.6-9.1-56.9 7-72.1 5.6-17.1-1.5-42.2-17.5-60.1-22.9-20.7-6.2-45.7-4-65.8 3.3-24.3 8.8-40.7 22.8-68 18.5-12-1.9-45.2-11.9-55.1-4.8-1 .7-8 12.9-9.9 15.4-20.2 27.5-46.8 54-77.3 69.7-5.9 22.1-1.1 44.3 10.3 63.7.5 2.1 11.1 14.5 10.2 15.3-1 .9-3.1-.8-4-1.5-8.7-6.4-17.5-19.2-25.9-26.5-7.3 16.2-20.3 37.9-15.5 56 2.8 10.8 11.4 28.6 23.5 31l-8-23.5c0-.8 2-.7 2.5-.5.7.2 5.8 9.8 8 12.1 1.8 1.8 4.3 3 6.2 4.8 17.3 5.9 62.4 43.2 77.7 43.1 7.3 0 16.7-4.3 24.6-2.9-5.1-5.7-11.2-12.7-9.5-21 10.6 9.2 21.8 17.7 33.6 25.4 11.2 7.2 31.3 22.7 44.3 13.5 4.9-3.5-2.7-5.8-5-8.2-5.1-5.4-17.5-29.3-20.5-37-3.6-8.8-6.2-19.1-6.3-28.7 5.2 4.1 6.4 10.8 9.7 16.3 26.2 43 78 83.5 129.1 54.5 19.2-10.9 43-35.6 54.5-54.5 3.3-5.5 4.5-12.2 9.7-16.3 0 9.5-2.8 19.8-6.3 28.7-3.1 7.6-15.4 31.6-20.5 37-2.4 2.5-9.9 4.8-5 8.2 11.9 8.4 26.2-2.4 36.3-8.5 14.8-8.8 28.6-19.1 41.6-30.4 1.6 8.3-4.4 15.2-9.5 21 7.9-1.4 17.3 2.9 24.6 2.9 15.3 0 60.4-37.1 77.7-43.1 5.7-3.4 8.8-8.2 12.5-13.5.3-.4 3.2-7.1 3.2-1.8 0 4.4-2.7 11.4-4.3 15.8-.4 1.2-4.7 7.8-1.3 6.7 12.1-3.6 23.8-28.7 23.6-40.5-.2-13.7-11.5-34-17.1-46.5-8.4 7.3-17.2 20.1-25.9 26.5-.9.7-3 2.4-4 1.5-.9-.8 9.7-13.2 10.2-15.3 8.8-15.2 13.8-31.4 12.8-49.2-.1-2.4-1.3-12.2-2.2-13.8-.5-.9-15.3-9-18.1-10.9-21.9-15-43.9-38.2-59.5-59.5-2.3-3.2-7.7-13.5-9.4-15.1ZM689 956c-.7-.6-1.4 0-2.1.6-3.1 3.2-6.8 9.9-10 13.8-16.3 20.6-28.5 26.9-27 56 .9 18.1 4.9 36.5 7 54.5l13.1-32.3c4.6-9.5 25.1-41.3 32.3-47.7 3.8-3.3 17.6-6.4 18.4-9.7.4-1.4-.2-1.8-.8-2.9-4-6-14.6-11.5-19.1-17.9-3.1-4.6-7.2-8.1-11-12-.7-.8-.9-2.4-1-2.5Zm672 0c-1.5-.4-1.6.2-2.4 1.1-3.2 3.2-6.4 8.1-9.5 11.5-6.7 7-14.2 13.1-21.1 19.9-4.1 6.1 12.3 8.5 16.4 11.7 5.5 4.3 27.2 36 31.4 43.6 6.1 10.6 9.2 21.9 14.1 32.9.5 1.2-.5 1.8 2.1 1.4.9-17.2 5.1-34.3 6-51.5.7-13 .5-20.2-6.8-31.2-8.8-13.4-22.5-24.9-30.2-39.3Z" class="outline" data-original-prefix="outline"/>
    </g>
</svg>