<?xml version="1.0" encoding="UTF-8"?>
<?xml-stylesheet type="text/css" href="../styles/semantic.css" ?>
<svg xmlns="http://www.w3.org/2000/svg" viewBox="0 0 2048 2048">
  <g class="trait-group" data-category="background" id="background-ocean-depths">
      <defs>
    <radialGradient id="ocean-depths-gradient" cx="50%" cy="50%" r="70%" fx="50%" fy="50%">
      <stop offset="0%" style="stop-color:#E0FFFF"/>
      <stop offset="100%" style="stop-color:#00008B"/>
    </radialGradient>
  </defs>
  <path id="color-ocean-depths" class="color" d="M2048,0v2048H0V0h2048Z" fill="url(#ocean-depths-gradient)" style="fill: url(#ocean-depths-gradient)"/>
    </g><g class="trait-group" data-category="jaw" id="jaw-robo">
      <path id="fill-jaw-robo1" fill="#ffffff" d="M1369.9 1062.1c.4.5 1 11.1 1.4 13.1 11.6 61.7 25.9 123 37.2 184.8 16.2 20.3 35.3 38.1 51.5 58.4l-70.1 149.9-2.3 1.6-31.6-1.9-7.8 59.7-101.2 128.8c-1.6 1.1-2.6-.6-3.6-1.6-11.2-11.1-20.8-28.6-32-40-1.3-1.3-2.6-3.5-4.8-2.9-3.4.9-32.4 51.8-38.3 57.8-25.8 9.8-49.6 24-74.7 35.3-8.9 4-63.2 23-65.1 25.9-.6 1-.4 2.8-.6 2.9-.2.2-3.1-.9-4.4-.9s-3.2 1.3-3.6.9c-.3-.3.7-2.4-2.3-4.2-13.4-8.1-38.6-14-54.4-20.6-28.2-11.8-54.4-28.3-83.3-38.7-6.3-5.8-35.3-57.4-38.7-58.4-2.2-.7-4.5 2.4-5.9 3.9-11.6 12.1-21.3 28.8-33.1 41l-1.9-.9-100.9-128.1c-3.2-19.9-5.4-39.9-7.5-60l-31.6 1.9-2.5-1.4-69.8-149.3c-.3-1.9 4.6-7.3 6.3-9.3 14.5-16.8 30.7-32.1 44.6-49.4 10.6-62 27.2-123.3 37.7-185.3.5-3.2-.7-11.9 2-13.3 104.8-21.7 209.7-42.7 314.5-64.3 7.3-1.5 24.9-7.3 30.5-7.5 4.2 0 24.8 6.2 31.1 7.5 105 21.6 210.1 42.9 315.1 64.4v.2z" class="fill" data-original-prefix="fill"/><path id="shading-jaw-main" fill="#aaaaaa" d="m1369.9 1062.1 28.1 145.4c-4.8-.6-19.2-17.4-22.3-16.4-3.4 1-21.1 37.8-20.7 42.4 12.3 15.8 24.8 31.6 35.4 48.6 3.7 5.9 15.5 24.5 15.6 30.5 0 4.7-10.7 25-13.5 30.5-4.5 8.7-9.8 16.9-14.5 25.5 17.3-8 33.9-18.4 49.3-29.7 4.1-3 10.3-7 13.7-10.3 2.3-2.2 12.4-16.5 13.5-16.5l5.5 6.4-65.1 139.9-6.5 11.5-32.3-1.9-7.8 59.7-101.2 128.8c-1.6 1.1-2.6-.6-3.6-1.6-11.1-11.1-20.8-29.2-31.9-40-.8-.8-1.6-2.1-2.9-1.9-7.3 1.3-32.3 48.3-39.7 55.4-30.9 14.9-60.7 32.4-91.6 47.4-12.8 6.2-33.2 17.2-46.8 18.2-23.7 1.7-37.4-7.3-57.9-17.2-31.4-15.1-61.6-32.8-93-48-8.2-6.6-32.8-54.4-40.3-55.8-2.8-.5-31.3 38.2-35.8 43-1 1.2-2 1.2-3.1 0l-100.9-128.1-7.5-60-31.6 1.9-2.5-1.4-69.8-149.3c-.3-3.1 3.7-7.8 6.8-5.8 1.9 1.2 8.8 11.9 11.5 14.6 2.9 2.9 7.8 6.2 11.2 8.8 4.5 3.4 49.2 33.3 51.3 31.2-7.3-15.4-17.3-29.8-23.8-45.6-1.2-2.9-3.2-6.7-3.2-9.9 0-5.3 10.4-22 13.7-27.4 11-18.2 24.3-34.9 37.4-51.6-4.2-15.2-12-29-20.1-42.3-.9-.5-2 0-2.9.4-6.3 3.4-12.9 13.3-20 16.5l28.1-145.9 45.8-9.7c48.2-55 116.4-93.5 184.8-118.2 72.2-26 130.6-31.5 205-8.5 77.7 24 155.9 65.5 210.3 126.7zM854 1330c-21-6.7-43.3-4.3-64.4-11.1-14-4.5-30.8-14.7-42.9-23.1-18.1-12.6-35.7-28.4-49.2-45.8-10.7 14.6-22.1 30.4-30.7 46.3-4.3 8-11.3 21.1-7.7 30.1l27.1 48.4c6.1 1.6 17.5-4.7 22.8-2.3 1.5.7 2.4 3.5 4.5 3.5s4.4-5.1 7-5.1 3.4 4.4 7 4.1 5.2-6.6 7.2-7c.5 0 8.2 2.7 8.6 2.9 4.7 2.4.3 18-3.2 21.4.3 1.5 14.2 9.3 16.4 9.6 2.9.5.2-2.4 1-4.9s6.5-6.3 8.8-5.9c5.4.9 6.3 10.2 14.7.3 1.9-2.2 0-4.1 4.5-4.6 8.5-1 5 8.4 7 14.1 12.4-17.2 20.2-37.4 32.1-54.9l29.4-16.1Zm507.8 44.8c8.8-17.7 20.1-34.4 28.2-52.3-.4-8.9-2.9-14.5-6.9-22.2-8.9-17.4-21.4-34.4-32.7-50.3-21.1 25.5-52 52.2-82.8 65.2-24.8 10.4-48.4 7.8-73.7 14.8l29.7 16.3c11.6 17.6 19.4 37.7 31.8 54.7.9-1.8 1-13.5 1.5-14s7.3-.2 7.8.2c1 .6 1.6 7.8 6.9 8.7 6.3 1.1 7.7-7.8 15.4-2.8 2.7 1.8 3.1 6 2.8 8.9 1.2 1.4 17.7-8.3 18-9.6.2-1-3.9-5.8-4.6-8.4-2.2-9.5-1.5-13.7 8.4-14.8 5.3-.6 2.8 2.2 5.5 4.5 4.6 4 7.8-2.7 10-2.6 2.7.2 5 4.9 7.2 4.9s3-2.8 4.5-3.5c5.2-2.4 16.6 3.8 22.8 2.3zM1078 1327c-5.5-11.1-10.5-24.8-17.6-34.9-4.2-6.1-10.2-10.5-14.9-16.1-3.4-4-15.2-20.5-18.4-21.6-1.9-.6-4.4-.8-6.3-.2-2.4.7-15.7 18.7-18.7 22.3s-7.4 6.8-10.5 10.5c-9.4 11.2-15.1 26.9-21.5 40h108Zm-353.8 172.8c24.8 5.4 50.2 7.7 75 13.6 17.3 4.1 20.3 3.6 29.6 19.4 5.3 8.9 9.2 18.7 14.2 27.8l17 14-29.2-80.8c-2.4-5.8-8-8-13.1-10.9-22.2-12.9-51.7-27.2-75.7-36.3-2.6-1-8.1-3.8-10.4-3.5-1 0-15.6 9.5-16.3 10.3-6.3 7.6 6.8 37.2 8.9 46.5Zm599.6 0c2.5-10.6 8.2-22.1 9.8-32.7.8-5.7 1.7-10.9-3-15.1-1.1-1-13.2-8.9-14-9-2.5-.3-19.4 7.2-23.2 8.8-20.7 8.8-45.7 20.5-65 32-5.6 3.4-8.8 4.9-11.8 11.2l-28.5 80 16.4-14.1c7.1-10.9 14.9-35.4 25.9-42.1 6.1-3.8 19.9-5.9 27.5-7.5 21.8-4.6 44.2-6.7 66-11.5zM908.5 1649v1c.7-.3.7-.7 0-1m229.5 1c-31 8.8-60.6 26.8-91 36.5-19.3 6.2-28.3 5.9-47.5-.4-28.3-9.3-56.5-25.5-85-35.1-1.2-.4-3.6-1.8-4.5-.5.8 2.1 2.7 4.2 4 6 4.9 6.3 18 23.3 23.5 27.5 7.2 5.5 27.9 14.6 37.1 18.9 5 2.3 20.9 10.5 24.9 11.1 9 1.4 36.3 1 46 0 7-.6 57.7-24.6 64.4-29.6 5.3-3.9 18.2-20.8 23-27 .8-1 5.8-6.8 5-7.5Z" class="outline shading" data-original-prefix="shading" opacity="0.5" style="opacity: 0.5"/><path id="outline-jaw" fill="#000000" d="M670 1105c2 .2 9.2 3.6 9.8 5.7 1 3.3-1.3 18.1-2 22.7-6 41.8-19.7 84.1-28.6 125.4-12.3 18.3-29.3 33.5-43.8 50.2-1.2 1.3-6.5 7.5-6.5 8.5l56 135.5c1.5.4 1.7-.4 2.5-1 7.1-4.9 23.9-23.3 30.5-30.5 1.5-1.6 9.9-11.2 10-12-17.6-32.9-42.5-63.1-49.8-100.8 17.2-28.9 35.3-57.4 56.9-83.2 6.2-7.4 21.8-27.5 32-26.1 4.7.6 8.6 4.8 6.4 9.5-23 21-44.9 44.7-62.7 70.3-3.2 4.6-15.2 22.2-15.6 26.5-.5 5.1 11.8 29.8 15 35.6 7 12.8 29.4 46.8 40.5 54.5 2.8 1.9 7 3.2 10 5 77.7 46.7 153.2 90.1 243.1 109.9 13.1 2.9 37.4 9.1 49.8 9.2 11.3 0 33.7-5.7 45.6-8.2 92.6-19.7 168.3-62.9 248.1-110.9 3.1-1.8 7.2-3.1 10-5 11.1-7.7 33.4-41.8 40.5-54.5 3.2-5.8 15.5-30.5 15-35.6-.4-3.9-10.7-19.3-13.6-23.5-18.3-27-40.8-51.3-64.7-73.3-2.5-9.2 6.9-10.8 13.8-7.8 10.7 4.6 40.4 44.2 48.5 55.5 11.9 16.7 22.3 34.6 33 52.1-7.3 37.7-32.2 67.9-49.8 100.8 0 .8 8.5 10.4 10 12 6.6 7.2 23.4 25.6 30.5 30.5.8.6 1 1.4 2.5 1l55.8-135.3c-15.4-20.6-35.6-37.7-50.1-58.9-8.6-41-22.6-83.1-28.6-124.4-.7-4.8-3.1-20-1.9-23.7.6-2.1 8-5.5 9.8-5.7 4.6-.4 10.8 5.1 11.9 9.6 8.1 44.1 13.6 92.9 27.6 135.4 9.1 27.6 33.8 39.8 52 60 4.9 5.4 6.6 7.2 4.8 14.8-2.1 8.6-9.2 23.2-12.8 32.2-16.7 41-35.5 81.7-54.5 121.5-2.5 2.1-18.6 9-21.4 8.6-4.6-.7-13.3-13.3-18.5-15-3.1 22.3-7.1 44.7-11.8 66.7-29.2 38.3-55.4 79-82.3 118.7-10.2 4.1-22.2 12.3-32.2 15.8-1.5.5-3 1.3-4.6.7l-24.6-43.9c-1.1.5-16.2 15.9-17.3 17.7-6.5 10.1-3.8 21-14.2 29.8-22.9 19.1-72.2 40.2-100.7 51.3-18.6 7.3-34.3 14.2-54.7 14.3-24 .2-49.5-11.4-71.5-20.6-23.2-9.8-67.3-29.4-85.5-45.5-10.3-9.1-7.3-19.2-13.7-29.3-1.1-1.7-16.2-17.1-17.3-17.7L812 1674c-1.6.6-3.1 0-4.6-.7-10.1-3.5-22-11.7-32.2-15.8-26.9-39.8-53.1-80.4-82.3-118.7-4.7-22-8.6-44.4-11.8-66.7-5.2 1.7-14 14.4-18.5 15-2.8.4-18.9-6.5-21.4-8.6-19-39.8-37.8-80.5-54.5-121.5-3.6-8.9-10.8-23.6-12.8-32.2-1.8-7.6 0-9.4 4.8-14.8 13.4-14.9 37.6-30.5 47.2-47.8 7.3-13.1 12.4-41.8 15.8-57.2 4.5-20.4 8.5-41.2 12.2-61.8 1.5-8.5 1.8-19.4 3.7-27.3 1.2-5 7.2-11.3 12.6-10.9zm664.9 411.9 14.2-77.4c-.2-3.8-5.4-5.5-8.1-8-2.9-2.7-5.4-5.9-8.6-8.3-82.7 31.3-155.3 82.7-242.3 103.3-57 13.5-94.2 11-150.2-4.8-69.9-19.7-131-59.2-197.1-87.9-6-2.6-20.1-9.4-25.7-10.4-2.8-.5-7.7 6-10 8.1-2.1 2-7.6 4.5-8.1 7l14.2 78.3c17.8 1.1 35.6 3.8 53.4 5.1 9.3.7 42.4-.4 47.8 3.9 8.5 20 14.6 41 23.2 61 2.8 6.5 6.2 15.2 9.9 21.1 5.4 8.7 15 14.9 20 23.1 5.6 9.2 8.1 23.6 15.5 31.5 5.1 5.5 21.6 15 28.8 19.2 31 18.4 83.7 44.6 119.8 42.2 30.1-1.9 87.2-31 113.4-47.6 5.2-3.3 16.2-9.8 20.1-13.9 7.2-7.5 10.4-24.2 16.1-32.9 2.7-4.1 8-7.8 11.3-11.7 8.3-9.7 11.9-17.5 16.9-29.1 9-20.6 15.3-42.4 24.2-63 14.6-5 32.2-2.8 47.8-4 17.8-1.3 35.6-4.1 53.4-5.1v.3ZM801 1649c5.8-16.3 16.4-30.6 24.8-45.6-4.3-11.7-7.5-23.9-12-35.6-2.2-5.8-7.4-19.7-10.9-24.1-10.8-13.6-69.6-12.5-86.9-16.6-.5 1.7.7 2 1.5 3 13.4 17.3 27.7 33.6 40.3 51.7 15.2 21.9 28.4 45.1 43.2 67.3Zm531-122c-17.3 4.1-76.1 3-86.9 16.6-3.5 4.4-8.6 18.3-10.9 24.1-4.5 11.7-7.7 23.9-12 35.6 8.4 15.1 18.9 29.3 24.8 45.6 14.7-22.2 27.9-45.4 43.2-67.3 12.6-18.1 26.9-34.3 40.3-51.7.8-1 1.9-1.3 1.5-3Z" class="outline" data-original-prefix="outline"/><path id="outline-jaw1" fill="#000000" d="M785.7 1376.3c8.1 7.2 8.5 18.5 4.1 27.9-5.2 10.9-19.3 10.7-26.7 2.3-15.1-17.3 3.6-47 22.7-30.2Zm-12 4.9c-10.7 1.7-7.7 23.9 4.7 21.8 10.2-1.7 4.4-23.3-4.7-21.8" class="outline" data-name="outline-jaw" data-original-prefix="outline"/><path id="outline-jaw2" fill="#000000" d="M1262.3 1376.3c22.7-20.1 40.5 23.7 16.9 34.4-21.7 9.8-31.5-21.5-16.9-34.4m10.4 4.9c-10.5 1.7-12.6 25.9 1.3 21.4 10.1-3.2 8.1-22.9-1.3-21.4" class="outline" data-name="outline-jaw" data-original-prefix="outline"/><path id="outline-jaw3" fill="#000000" d="M723.7 1356.2c15.6-2.8 28.9 19.5 15.8 29.8-10 7.8-24 0-26.8-11.2-1.8-7.1 3.5-17.2 11-18.6m9.1 22.6c6.5-6.5-8.3-22.1-11.4-7.8-1.5 7.3 7.1 12.1 11.4 7.8" class="outline" data-name="outline-jaw" data-original-prefix="outline"/><path id="outline-jaw4" fill="#000000" d="M1317.7 1356.2c14.2-2.9 23 13.6 14.3 25.3-12 16-34.6 4.8-27.5-13.5 1.7-4.3 8.7-10.8 13.2-11.8m-2.5 22.6c4.3 4.3 12.9-.5 11.4-7.8-3-14.3-17.9 1.3-11.4 7.8" class="outline" data-name="outline-jaw" data-original-prefix="outline"/>
    </g><g class="trait-group" data-category="mouth" id="mouth-OG">
      <path id="fill-muzzle" fill="#ffffff" d="M1125 1622c-3.4-2.3-6.5 6.6-8 8.5-3.7 4.7-17.7 19.6-23.5 19.5-2 0-5.3-4.8-7.8-6.2-7.4-4.3-19.1-5.3-26.8-1.4-4.2 2.2-10.1 9.4-13.4 9.7-7.7.5-10.7-10.3-17-11.2-2.3-.3-9.7-.3-11.5.6-3.2 1.4-8.9 10.8-13.7 11.3-3.1.3-10.3-8.4-13.4-10.2-6.5-3.8-16.5-3-23.5-.6-4.3 1.5-10.5 8-12.8 7.8-5.8-.5-18.9-14.5-22.7-19.3-1.6-2-2.1-4.7-3.5-6.4-5.4-6.8-5.6 3.9-7.6 7.3-9.4 15.7-21-13.3-24.8-18.9-2.4-3.5-7.2-5.7-10-9-9.7-11.6-6.4-27.5-10.3-40.7-1.7-5.8-11.6-19.5-14.9-27.1-10-22.6-12.3-43.5-10.8-68.2-2.4-7.1.4-27.9-4.5-32.5-2.1-2-6.1-2.7-8.5-4.5-5.9-4.5-12.8-32.2-11.9-39.8 1.1-9.4 12.1-25.4 18.4-32.6 12.3-14.3 37.4-24.6 56-26 4.8-.4 28.1 1.1 29.5.5s5.1-5.4 7.1-6.9c8.7-6.5 17-9.5 27.7-11.3 3.7-.6 7.6.4 11-1 3.1-1.3 11.4-13.2 17.3-16.7 10.5-6.1 38.9-5.7 51.5-4.6 5.7.5 13.4 3.6 18 7 3.7 2.8 11.2 13.2 13.8 14.2 3.3 1.4 7.3.4 11 1 8.9 1.5 16.5 3.9 24.1 8.9 2.7 1.8 9.7 8.9 10.7 9.3 1.3.6 23.9-.9 28.5-.6 16.1 1.1 33.8 7.8 46.8 17.2 12.1 8.8 30.2 32.8 28.7 48.3-.4 4.3-7 26.5-9.2 29.8-3.6 5.6-10.6 4.5-13.7 10.3l-3.2 43.8c2 20.7-2.7 38.4-11.1 56.9-3.2 7-11.5 17.9-13.4 23.6-4.4 13-.9 27.8-9.6 40.4-2.9 4.2-8.2 6.2-10.8 10.2-1.6 2.3-2.2 5.7-3.8 8.2-2.8 4.2-10.6 16.7-16.2 14.9-7.1-2.2-6.8-12.8-8-13.6h-.2Z" class="fill" data-original-prefix="fill"/><path id="fill-teeth16" fill="#ffffff" d="M995.3 1525.7c11 9.5 17.2-6.6 23.2 6.3 6.5 14.1 3.7 38.4-1 52.9-.7 2.1-7.1 16.9-8 17.1-1.2.3-3-.4-4.2-.9-12-5.1-31.7-18.1-39.1-28.9-10.6-15.5-6.4-42.9 6.8-55.8 1.3-1.3 9.1-5.6 10.4-5.3 1.5.3 9.4 12.3 12 14.5h-.1Z" class="fill" data-original-prefix="fill"/><path id="fill-teeth15" fill="#ffffff" d="M1039.1 1601.9c-.8-.5-7.5-16.1-8.1-18.4-4.1-13.8-6.5-36.9-1.3-50.3 4.6-12 8.1-4.3 15.8-4.2 9.5.2 17.3-18.2 20.8-17.9 1.2 0 8.5 4.2 9.7 5.3 6.3 6.2 12.2 22.3 13 31 2.4 28-20.3 39.6-41.3 50.7-2 1.1-5.7 5.5-8.6 3.7Z" class="fill" data-original-prefix="fill"/><path id="fill-teeth14" fill="#ffffff" d="M904 1461c0 2.2-1.1 3.8-.8 6.2.2 1.8 7.1 22 8 23.1 3.9 5.1 11.2 3.2 16.7 3.8 4.9 13.5-4.2 23.8-8.6 35.6-2 5.3-8.7 33.1-12.8 34.2-1.8.5-6.8-9.1-8.3-10.7-10.3-23.9-15.3-58.4-2.6-82.2.6-1.2 7.1-11.6 8.4-10.1Z" class="fill" data-original-prefix="fill"/><path id="fill-teeth13" fill="#ffffff" d="M1144 1564c-2.1 1.4-6.1-7.1-6.8-8.7-3.2-7.9-4.4-17.4-7.5-25.5-4.3-11.6-13.6-22-8.6-35.6 4.8-.6 12.3 1.2 15.9-2.9 1.3-1.5 8.1-20.6 8.6-23.2.3-1.8-1.4-7 .9-6 6 2.7 13.7 26 14.4 32.6 1.4 13.9-2.9 45-9.3 57.4-.8 1.5-7 11.6-7.6 11.9" class="fill" data-original-prefix="fill"/><path id="fill-teeth12" fill="#ffffff" d="M1093.1 1644.9c-2.9-1.8-2.4-28.5-2.1-33.4.7-10.5 5.2-31.2 8.9-41.1 1.1-2.8 2.4-1.4 4.2 0 12.2 9.6 21.1 44.8 12.8 57.9-1.9 3-15.6 14.9-18.9 16.1-1.3.5-3.8 1.1-4.8.4Z" class="fill" data-original-prefix="fill"/><path id="fill-teeth11" fill="#ffffff" d="M949 1569c5.5 22 11.1 44.4 9 67.5-.5 5.2-.9 10.3-7 8-3.4-1.3-17.5-13.4-19.5-16.5-5.8-9.2-1.4-31.3 2.7-41.2 1.2-2.9 11.3-21 14.8-17.7Z" class="fill" data-original-prefix="fill"/><path id="fill-teeth10" fill="#ffffff" d="M881.7 1478.3c3.1 2.8-2.7 21-2.8 26.2 0 5.9 2.6 12.4 3.1 18 .2 2.1.7 24.5-.5 24.5-1.5.2-2.1-1.1-2.9-2.1-15.6-18.9-34.8-51.8-17.4-75.3 6.5-8.8 10.5 2.1 14.9 5.8 1.8 1.5 4.9 2.1 5.7 2.8Z" class="fill" data-original-prefix="fill"/><path id="fill-teeth9" fill="#ffffff" d="M1185.7 1467.3c1.9 1.6 7.8 13.7 8.2 16.2 3.2 20.7-9.8 47.3-23.9 61.9-.9 1-1.3 1.9-3 1.5.5-8-.7-16.6 0-24.5.4-5.4 3.1-12.3 3.1-18s-6.1-23.4-2.8-26.2c.6-.6 2.5-.6 3.8-1.7 3.4-3 10-13.1 14.7-9.3Z" class="fill" data-original-prefix="fill"/><path id="fill-teeth8" fill="#ffffff" d="M1018 1613v16.5c0 .9-10.8 13.2-11.9 14.1-6.3 4.8-8-2.6-10.6-5.5-5.5-6-17.9-.4-24.4-5.6-1.2-.9-4.1-8.8-4.1-9.9v-22.5c12.9 1.7 28.3 17.5 41.4 15.9 3.5-.4 6.1-3 9.6-2.9Z" class="fill" data-original-prefix="fill"/><path id="fill-teeth7" fill="#ffffff" d="M1031 1613c6.3 1.3 9.1 4 16.1 2.6 10.6-2.2 24.3-14.8 33.4-15.6 2-.2 1.4 0 1.2 1.3-.8 6.5 2.4 27.5-4.4 31.6-7 4.2-18.8-.3-23.4 4.6-2.1 2.2-3.6 8-8.4 7.6-1 0-14.6-13.5-14.6-14.6V1613z" class="fill" data-original-prefix="fill"/><path id="fill-teeth6" fill="#ffffff" d="M1102.5 1494c3.3-.8 4.5 6.9 5.3 8.7 5.6 12.1 13 24.8 13.3 38.8.2 9-16 29.8-21.3 16.2-4-10.4-4.1-44.8-1.1-55.5.4-1.6 2.4-7.9 3.8-8.2" class="fill" data-original-prefix="fill"/><path id="fill-teeth5" fill="#ffffff" d="M937.3 1559.7c-1.9-1.6-7.8-10.5-8.5-13-3.6-12.1 6-31.3 11.4-42 1.6-3.1 3.3-14.7 8-7.4 5.5 8.5 4.3 41.5 2.7 52.1-1.2 7.7-3.6 18.7-13.6 10.3" class="fill" data-original-prefix="fill"/><path id="fill-teeth4" fill="#ffffff" d="M917 1563c-1.8 13.4 2.9 27.5 2 40.5-.6 9-4.4 18.4-5.5 27.5-6.2-6-10.5-16.1-11.4-24.6-.5-5.2.7-24.7 2.4-29.3.6-1.6 10.5-16.2 12.4-14.1Z" class="fill" data-original-prefix="fill"/><path id="fill-teeth3" fill="#ffffff" d="M1135 1631c-.4-8.9-4.4-17.8-5.1-26.5-1-13.8 3.7-27.6 2-41.5 2.2-2.4 11.9 13 12.5 15 2 6.6 2.6 27.4 1.2 34.3-1.3 6.3-5.5 14.9-10.8 18.7z" class="fill" data-original-prefix="fill"/><path id="fill-teeth2" fill="#ffffff" d="M1154.1 1604.9c-3.4-2-5.1-22.3-3.9-26.2.8-2.6 8.9-5.2 10.2-8.8l5.1-10.9c3.8 3.4 5.1 7.2 4.3 12.2-.7 4.2-5.4 22.7-6.9 26.2-.9 2.2-6.1 9-8.8 7.5" class="fill" data-original-prefix="fill"/><path id="fill-teeth1" fill="#ffffff" d="M885 1559c-.3 3.7 1.7 9.4 4 12.2s9.5 5.2 10 8.3c-2 8.4 1.6 19.2-5.7 25.4-3.6-1.1-6-4-7.4-7.4s-6.5-23.6-6.9-27.1c-.5-4.2 1.2-10.6 5.9-11.4z" class="fill" data-original-prefix="fill"/><path id="shading-mouth2" fill="#aaaaaa" d="M918 1443.5c.8 5.3 5.6 13.8 10.1 16.9 11.5 8.3 16.2-.3 22.4-9.4 2.5 5.4 3.4 11.5 6 17 1.4 2.8 5.7 12 7.5 5.5l4-11.5c1.6 7.5 6.3 15.4 11.5 21 4.3 4.7 18.8 15.4 24.6 9.6 2-2.1 8.3-17.9 10.8-22.2 1.2-2.2 7.8-13.8 9.7-13.3 1 .2 8.5 13.2 9.7 15.3 2.4 4.5 7.3 17.7 9.8 20.2 3.8 3.8 10.5.4 14.4-1.8 10.5-5.9 18.5-17.2 21.7-28.8l4.2 12.3c.3 1.2 1.9 2.4 2.8 1.7.6-.4 5.8-11.3 6.5-13 .8-2 2.8-12 4-12 6.8 10.7 12.9 18.4 24.5 7.5 8.6-8 9.3-23.8 7-34.5 3.5-3.1 21.1 16.1 26.6 16.9 9.1 1.4 17.6-11.8 19-19.9 3.5-20.5-12.9-39.2-30.9-46.2l-12.7-4.8c15.4 0 28.2 2.9 41.1 11.4 4.8 3.1 12.2 10.9 17.6 11.4 6.2.6 10.1-4.1 10-10-.4-19.3-25.8-38.1-39.7-48.8 15.4 2.4 34.6 11.8 45 23.5 7.8 8.8 19.1 25.1 19.1 37s-6.4 28.5-9.2 32.8c-3.3 5.3-11.7 5.4-13.4 10.6-.9 8.1-2.1 16.4-2.5 24.5-1.5 29 1.4 45.2-10.8 73.2-3.6 8.2-12.7 20.4-14.9 27.1-4.2 12.8-.7 26.4-9.1 38.9-3.2 4.8-8.4 6.7-11.2 10.8-1.7 2.5-2.4 6.1-4.2 8.8-4.5 6.7-14.6 23-21.6 8.9-1.6-3.3-1.3-12.9-6.7-6.2-1.4 1.7-1.9 4.4-3.5 6.5-3.7 4.7-17.7 19.6-23.5 19.5-2.2 0-4.5-4.1-6.6-5.4-7.9-5-21.1-6.3-29.2-1.4-7.3 4.4-9.5 13.6-18.1 6.8-8.6-6.7-6.4-10.8-20.1-9-5.6.7-11.4 12.6-16.9 12.1-2.8-.2-11.4-11.1-18.5-12.6-6.3-1.3-17.5.7-23 4.2-2.6 1.7-4.1 5.6-7.5 5.4-5.7-.3-19.8-15.8-23.6-20.5-1.2-1.5-4.4-10.6-7.1-6.9-2.5 3.4-.6 9.9-7.2 12.7-7 3-14.9-11.2-18.1-16.4-1.2-1.8-1.2-4.3-2.6-6.4-2-3-6.8-5.4-9.5-8.5-10.4-11.9-6.7-27.7-10.7-41.3-.8-2.6-5.6-8.5-7.3-11.7-18.4-35.7-16.4-45.6-18.4-84.6-.4-7.7-.6-20.7-2.2-27.8-1.5-6.2-11.1-6.1-14.2-11.8-3.4-6.1-9.3-29.6-8.6-36.4 1.2-10.3 16.2-31.2 24-38 10.5-9.2 26.2-16.5 40-18.5l-21.5 17c-7.2 6.4-26.8 32-14.8 39.9 9 5.9 16.7-4.5 23.7-9.1 12.7-8.4 25.3-11.8 40.7-11.8l-17.3 7.2c-18 9.4-33.1 32.7-22.1 52.8 1.7 3.1 8.6 10.4 12 11.1 9.1 1.7 20.7-15.4 29.5-18 .6 6.4-.9 14.3 0 20.5zm-37.1 40.6c-12.3-.5-17.1-20.2-22.8 1.5-3.4 13 1.2 26.4 9.4 36.5 1.5 1.8 12.7 13.1 13.9 12.9.8 0 2.5-2.3 2.8-3.2 2.9-7.1-3.2-12.2-4.2-19.2-1.5-9.8 0-18.7.9-28.4Zm301.8-8.9c-3.2.8-6.3 6-8.8 7.3-2.1 1.1-7.2 1-7.8 3.2-.5 1.7 3 10.8 2.9 14.8 0 3-1.5 13.9-2.2 16.8-.9 3.6-3.9 5.7-3.9 10.2s1.4 7.1 3.7 7.4c1.9.3 15-14.4 16.8-17 5.7-8.5 9-18.8 7.3-29.2-.5-3-4.4-14.5-8-13.6Zm-284.8 10c-4-2.3-6.5 9.9-6.8 12.5-1.2 10.5 3 38 8.7 47.1 1.9 3 5.4 6.9 9.2 7.3 3.7-15.6 12.6-29.2 21-42.5-2.3-.4-1.7-2.9-2.7-3.5-1.5-.9-7-1.9-9.7-3.1-4.7-2.2-12-7.7-15.6-11.4-1.2-1.2-3.8-6.2-4.2-6.3ZM1139 1552c8.3-2 11.9-12.2 13.9-19.6 3.1-12.1 6.1-33.4 1.1-44.8-3-6.9-5.8 1.7-8.3 4.1-3.9 3.8-11 9.3-16 11.6-2.5 1.1-7.8 1.8-9.1 2.7-.7.5-.5 1.8-1 2.7-.3.4-1.7.4-1.6.9 0 1 7.9 12.3 9.2 14.8 4.8 8.8 9.1 18 11.8 27.7Zm-197.7 5.7c8.1 8.1 9.5 0 10.5-7.3.8-5.6 2.7-20.6 1.7-25.4-3.6-17.2-21.3-15.9-21.6 3.6 0 6.8 4.6 24.3 9.4 29.2Zm161.5-44.5c-5 1.3-8.5 9.3-8.8 14.2-.2 4 2.4 28.5 3.8 31.3 2.5 5 7.5 0 9.8-2.7 6.8-8.3 11.6-30.7 4.5-39.5-2.7-3.3-4.8-4.4-9.2-3.3zM1023 1544c-.7-.7-.8-7-5.1-9.4-8.9-5-21.8-.8-32-4-10.4-3.3-9.4-13.1-16.1 1.8-2.9 6.4-9.1 24.4-6.3 30.7 1.1 2.4 17.8 15.6 21.2 17.8s18.2 11.7 21.1 10c3.1-5.6 9.3-9.5 12.6-14.9 1.8-2.8 4.1-11.5 4.6-11.9 1.6-1.7 1.7.5 2.1 1.4 1.6 3.6 2.1 6.8 4.5 10.5 3.3 5.2 9.2 9.3 12.4 14.6 3.1 1.9 15.5-5.9 18.9-8.1 4.5-2.9 22.9-17 23.9-21.1 2.2-9.7-6.6-28.3-10.9-37.2-4.9 1-7.8 5.2-12.7 6.7-9.2 2.8-28.2-1.6-33.7 6.3-.9 1.2-2.6 8.9-4.5 7zm-136 18c-.7-.6-3.5 0-4.5.9-6 6.2 2.4 31.6 14.6 27.6 4-1.3 3.8-9.4 2.8-12.9-1.1-3.9-7.2-4.1-9.8-7.2-2.1-2.5-2.7-8.2-3-8.5Zm274.1 0c-.3.3-.9 6-3 8.5-2.6 3.1-8.7 3.3-9.8 7.2-1 3.4-1.2 11.6 2.8 12.9 13.4 4.4 20.2-24.5 14.1-28.1-.9-.5-3.5-.9-4-.4Zm-216.4 7.2c-1.5.4-5.1 4.6-6 6.1-3.4 5.6-5.6 32.3-4.8 39.3 1.3 10.9 15.2 18 19.5 3.5 1.7-5.6 2.6-21.4 2.5-27.6 0-1.1-5.8-19.7-6.5-20.5-1.2-1.4-3.2-1.3-4.8-.8Zm153.3-.1c.2 6.6-5.4 14.7-6 20.6-.5 4.5 1 25.3 2.4 29.4 4.2 12.1 16.9 7.3 19.1-2.9 1.1-5.2 0-16.8-.6-22.6-1-9.7-1.7-25.5-14.9-24.5m-180 1.9c-20.5 3.8-17 28.7-9 43 4 2.9 10.4-17 10.7-19.8.9-7.5-2.9-15.5-1.8-23.2Zm218 43c2.5 1.8 7.2-9.1 7.7-10.8 3.9-12.8 1.6-30.1-13.7-32.2.5 7.4-2.8 16.2-1.9 23.4.3 2.7 6.4 18.5 7.9 19.6m-148.2 10.2c1.4.8 4.8 8.6 9.5 11 11.1 5.8 20.2-6.4 20.7-16.7.8-13.7-7.2-7.7-16.5-8.6-8.4-.8-15-4.8-21.8-9.2-5.5-3.5-13.6-14.6-14.7-1.4-.5 5.1 1.4 7.5 1.8 11.2s-2 5.9.5 10.7c4.8 9.3 18 1.3 20.7 2.8zm93.1-31.1c-2.1-1.5-19.7 12.7-23.9 14.4-2.3 1-7.9 2.3-10.5 2.5-10.5.9-18.8-5.4-16.4 11.4 1 7.3 7.9 15.8 16 15.1 9.4-.8 11.9-11.6 14.6-12.4 4-1.3 12.3 5.7 18.9-1.1 4.3-4.4 1.3-8.4 1.5-12.5 0-2.3 1.9-4.8 2-8.1 0-1.9-.8-8.5-2.2-9.4Z" class="outline shading" data-original-prefix="shading" opacity="0.5" style="opacity: 0.5"/><path id="shading-mouth1" fill="#aaaaaa" d="M1041 1343c6.1.5 12.7-1 17.5-5 1.5-1.3.9-3.7 2.8-2.9 10.1 7.9 37.9 17.4 43.8 28.2 3.6 6.5 4.6 17.5-1.8 22.6-5.6 4.5-20.8 10.8-28 15-4.9 2.8-9.7 6.6-14.7 9.3-7.4 4.1-25.5 14.5-32.6 16.4-2.9.8-5.2.8-8.1 0-14.5-3.8-42.2-22.5-56.3-30.7-6.2-3.6-21.2-9.1-23.2-15.8-5.5-18.4 15.7-28.3 28.7-35.4 2.3-1.2 15.5-8.6 16.5-8.7 2.9-.3 4.2 2.9 6.7 4.2 4.2 2.3 10 3.2 14.7 2.8-.3-5.1-3.3-11.3-1.8-16.3.5-1.6 12.5-13.9 14.5-14.4 3.9-1 8.2-.3 11.6 1.9 1 .7 10.8 11.1 11.2 11.8 2.1 5-1.2 11.8-1.5 17" class="outline shading" data-original-prefix="shading" opacity="0.5" style="opacity: 0.5"/><path id="outline-mouth3" fill="#000000" d="M888 1333c-.7 1.9-2.2 2-3.8 2.7-12.3 5.2-24 8.3-33.2 18.8-6.6 7.6-18.9 26-18 36 .3 4 7.1 25.8 9.2 28.8 2.7 4 6.1 4.9 10.8 4.7-1.4-9 4.2-18.1 9.6-24.9 2.2-2.8 21.9-22.6 24.4-20.1-1.7 6.5-8.8 10.4-13 15.5-8.1 10-12.3 23.6-9.5 36.5 1.2 5.4 11.2 26 15 30 .6.7 7.1 6.3 7.5 6.5 2.4 1.2 5.6-3.8 6.5-5.5 2.5-4.3 3.1-9.7 5-14 4.4-10.2 9.3-18.3 18.5-25-5 13.9-9.5 44.6 1.5 56.1 4.6 4.8 11 2.5 15 5.1 2.1 1.3 2.5 5.4 4.2 5.8s7-3.1 9.4-3.5c9-1.4 12.6 16.9 18.7 17.4 2.5.2 10.2-12 18.4-9.4 5.5 1.8 19.2 24.8 24.4 23.6 5.8-5.9 3.6-12.3 5-19 1.5-7.6 8.3-12.6 9.4-22.6.8-7.2-1.7-26.6-4.7-33.1-1.1-2.3-5.5-10.7-6.8-12.2-3.4-4-15-9.2-19.8-6.1l-4.2 11.1c-4.8-4.4-9.5-9.2-14.5-13.5-3.7-3.2-10-6.8-13-9.9-4-4.2-15.6-27.9-15.7-33.2 0-6.8 17.5-22.4 21-29 5.4-4.1 29.2-2.8 35.7.2 8.4 3.8 12.4 12.1 18.5 17.5 5.2 4.5 2.5-1.7 2.5-3.6s.9-3.2.8-4.8c-.2-5.4-6.7-9.2-9.9-13.1-2-2.4-5.6-6.2-7-8.2-.9-1.3-4.9-7.8-5-8.8-.2-2.6 9.1-11.7 11.5-12.4 3.6-1-.5 5.5-.5 6.6-.4 5.2 5.9 4.1 9.3 5.6 1.2.5 3 2.7 3.2 2.7s2.4-2.7 3.8-3.2c7.8-3.2 11 1.2 6.8-11.7 1.6-1.7 12.5 9.1 12.9 11.7.6 4.5-17.6 23.1-21.1 27.5l-.8 12.7c1.7.4 2-.7 3-1.5 8.7-6.7 12.6-16.8 24.9-19.1 5.5-1 25.6-1.3 29.8 1.8 3.4 6.7 20.4 21.8 21 28.4.4 4.3-10.8 27.3-13.9 31.7s-9.8 7.6-13.8 11.2c-5.3 4.6-10.3 9.8-15.5 14.5-2.2.9-1.4-5.6-2.2-7.7-3.4-8.6-19-1.6-22.7 3.8-.7 1-7.1 13.9-7.3 14.7-2.7 12.8-5.5 27.3-.2 39.8 1.5 3.5 4.6 6.8 5.8 10.2 2.5 7.2-.5 15.2 5.8 21.2 9.4-2.8 19.1-24.9 27.9-24 5.2.5 13.2 10 14.9 9.8 5.8-.5 9.3-18.7 18.7-17.4 2.4.3 7.6 3.9 9.3 3.4s2-4.8 4.8-6.1c3.8-1.8 9.4-.4 13.3-3.7 11.5-9.7 8.1-43.1 2.5-56 1.6-1.7 11.3 10.4 12.4 12.1 5.1 7.8 6.1 15.5 9.7 23.3 1 2.1 4.8 9.8 7.8 8.2.4-.2 6.9-5.9 7.5-6.5 6.8-7.5 16-30.4 15.4-40.5-1.3-22.7-10.7-22.7-21.5-37.5-5.3-7.2 2.8-2.4 6 0 11.8 8.6 28 25.5 26.5 41 11.6 1.1 13.6-11.4 16.3-20.2 4.6-15.6 5.3-18.8-3.1-33.4-8.2-14.3-16.4-22.7-31.5-29.5-5.8-2.6-13.2-3.6-17.7-7.8 15.9 1.8 34.5 6.4 49 13.5 8.3 15 22.1 26.8 28.1 42.9l-15.2 44.9c-.9 3.7-13 4.8-13.8 5.8-.6.8-2.2 17.2-2.2 19.4-.2 31.7 2.4 50.4-13.1 79.9-2.6 5-12 16.3-12.6 19.4-.9 4.6 0 10.4-.5 15.5-.9 8.4-5.8 16.4-6.7 23.4-.4 3.5 1.3 7.7.8 9.7s-10.7 8.6-13.2 9.9c-2.2 1.2-5.7 1.5-6.5 2-.6.4-5.2 10.6-7.2 13.2-2.2 2.8-13.6 14.5-16.9 12.4-.6-.4-5.9-11.8-7.1-13.3-2.2-2.9-2.2 2.1-3.2 3.8-4.6 7.3-24.8 27-32.8 29.2-1.7.5-3.3.7-5 .5 1.1-8.2 2.6-16.6-8-18.6-9.7-1.8-16.2 7.5-18.5 15.6-1.2 4.3-1.2 16.7-7.8 14.9-4.3-1.2-20.3-25.6-23.2-30.8-5.5 8.6-11.5 19.1-18.5 26.5-1.8 1.9-6.9 7.7-9.3 3.3-2.8-5.3-2.5-14.6-5.5-20.5-3.8-7.2-14-11.7-21.2-6.8-6.6 4.6-2.9 10-3 16.5-3.4 3.4-23.5-12.8-26.5-15.9-1.5-1.5-11.4-13-11.9-14.1-.7-1.4-.2-6.3-2.6-3.3-2.1 2.6-6 14.4-10.2 13.3-2-.6-12-10.2-13.7-12.4-2.1-2.7-6.6-12.8-7.2-13.2-.8-.5-3.8-.6-5.8-1.7-2.5-1.4-11.8-7.1-13-9-2.3-3.8.4-6.7 0-10.8-1-7.2-5.8-15.5-6.7-24.4-.5-5 .6-10.7-.6-15.4-1-3.9-7.9-9.8-10.7-14.3-10.4-16.9-15.8-37.5-16.8-57.2-.8-15.6 1.6-31.1 0-46.5-18.8 0-17.3-14.5-21.7-27.8-2-5.8-9-19.6-8.1-24.5.6-3.1 5-9.2 7-12.1 2.9-4.3 18.7-27.3 20.9-29.1 1.7-1.4 8.5-4.5 10.7-5.3 9.6-3.2 28.2-7.1 38.2-8.3v-.7Zm16 128c-1.4-1.5-7.8 8.9-8.4 10.1-12.7 23.9-7.6 58.3 2.6 82.2 1.5 1.6 6.5 11.2 8.3 10.7 4.1-1.1 10.8-29 12.8-34.2 4.4-11.8 13.5-22.1 8.6-35.6-5.5-.6-12.8 1.4-16.7-3.8-.9-1.1-7.8-21.4-8-23.1-.2-2.4.8-4 .8-6.2Zm240 103c.6-.4 6.8-10.5 7.6-11.9 6.4-12.5 10.7-43.5 9.3-57.4-.7-6.6-8.4-30-14.4-32.6-2.3-1-.6 4.2-.9 6-.5 2.7-7.2 21.8-8.6 23.2-3.6 4.1-11.1 2.3-15.9 2.9-5 13.6 4.3 24 8.6 35.6 3 8.1 4.3 17.7 7.5 25.5.7 1.6 4.7 10.2 6.8 8.7m-262.3-85.7c-.8-.7-3.9-1.3-5.7-2.8-4.4-3.7-8.4-14.6-14.9-5.8-17.4 23.5 1.8 56.3 17.4 75.3.8.9 1.5 2.3 2.9 2.1 1.2 0 .7-22.5.5-24.5-.5-5.6-3.2-12.1-3.1-18 0-5.2 5.9-23.5 2.8-26.2Zm304-11c-4.6-3.9-11.2 6.2-14.7 9.3-1.3 1.1-3.1 1.1-3.8 1.7-3.3 2.9 2.8 21 2.8 26.2s-2.6 12.6-3.1 18c-.7 7.9.4 16.5 0 24.5 1.7.4 2-.5 3-1.5 14.2-14.6 27.2-41.2 23.9-61.9-.4-2.6-6.3-14.7-8.2-16.2Zm-83.2 26.7c-1.4.3-3.3 6.6-3.8 8.2-3 10.7-2.9 45.1 1.1 55.5 5.3 13.6 21.4-7.2 21.3-16.2-.2-14-7.6-26.7-13.3-38.8-.8-1.8-2-9.4-5.3-8.7m-165.2 65.7c10 8.3 12.4-2.6 13.6-10.3 1.6-10.6 2.8-43.6-2.7-52.1-4.7-7.3-6.5 4.3-8 7.4-5.3 10.7-15 29.9-11.4 42 .7 2.4 6.6 11.4 8.5 13m58-34c-2.6-2.2-10.5-14.2-12-14.5-1.3-.2-9.1 4.1-10.4 5.3-13.2 13-17.5 40.3-6.8 55.8 7.4 10.8 27.1 23.8 39.1 28.9 1.2.5 3 1.2 4.2.9.9-.2 7.4-15 8-17.1 4.7-14.6 7.5-38.8 1-52.9-5.9-13-12.1 3.2-23.2-6.3h.1Zm43.8 76.2c2.9 1.8 6.6-2.7 8.6-3.7 21.1-11.1 43.7-22.7 41.3-50.7-.7-8.7-6.7-24.8-13-31-1.2-1.1-8.4-5.2-9.7-5.3-3.5-.3-11.2 18.1-20.8 17.9-7.8-.2-11.2-7.8-15.8 4.2-5.2 13.4-2.8 36.6 1.3 50.3.7 2.3 7.3 17.8 8.1 18.4ZM885 1559c-5.2 1.1-6.5 7.6-5.8 12.2s5.4 23.4 7 27c1 2.2 6.2 8.5 8.7 6.7 3.4-2.4 3.2-20.7 4.1-25.4-.6-3-7.8-5.5-10-8.3s-4.3-8.6-4-12.2m269.1 45.9c2.7 1.5 7.8-5.3 8.8-7.5 1.5-3.4 6.2-22 6.9-26.2.8-5-.5-8.8-4.3-12.2l-5.1 10.9c-1.4 3.6-9.4 6.1-10.2 8.8-1.2 3.9.5 24.2 3.9 26.2M917 1563c-1.9-2.2-11.8 12.5-12.4 14.1-1.8 4.6-2.9 24.1-2.4 29.3.8 8.6 5.2 18.6 11.4 24.6 1.1-9 4.9-18.4 5.5-27.5.9-13-3.8-27.1-2-40.5Zm218 68c5.2-3.8 9.5-12.5 10.8-18.7 1.4-6.9.7-27.7-1.2-34.3-.6-1.9-10.4-17.4-12.5-15 1.7 13.9-3.1 27.7-2 41.5.7 8.7 4.6 17.6 5.1 26.5zm-186-62c-3.4-3.2-13.6 14.8-14.8 17.7-4 9.9-8.4 31.9-2.7 41.2 2 3.2 16 15.2 19.5 16.5 6 2.4 6.5-2.8 7-8 2.1-23.1-3.5-45.4-9-67.5Zm144.1 75.9c1.1.7 3.6 0 4.8-.4 3.2-1.2 16.9-13.1 18.9-16.1 8.3-13.1-.6-48.3-12.8-57.9-1.8-1.4-3.1-2.8-4.2 0-3.7 9.9-8.2 30.6-8.9 41.1-.3 4.8-.8 31.5 2.1 33.4ZM1018 1613c-3.5 0-6.1 2.5-9.6 2.9-13.1 1.6-28.5-14.2-41.4-15.9v22.5c0 1.1 2.9 9 4.1 9.9 6.5 5.2 18.9-.4 24.4 5.6 2.6 2.9 4.3 10.3 10.6 5.5 1.1-.8 11.9-13.1 11.9-14.1v-16.5Zm64-13c-13.3 1.4-27.9 17.6-41.4 15.9-3.5-.4-6.1-3-9.6-2.9v17.5c4.1 2.4 11.4 14.9 15.4 14.5 5.4-.5 6.1-8.2 10.5-9.6 5.4-1.7 16.2 1.1 21-3 1-.8 4-9.7 4-11v-21.5Z" class="outline" data-original-prefix="outline"/><path id="outline-mouth2" fill="#000000" d="M1011 1292c-6.2 1-21.6 9.8-26 14.5-2.9 3.1-3.9 7.2-7.2 9.8-18.9.8-35.9 5.2-50.3 17.8-.9-.2-.3-1.9-.5-2 1.1-8.8 19.3-26.2 27.4-25 3.5.5 2.6 4.8 10 4 10.8-1.2 17.8-10.7 19.4-20.7.4-2.5-1.9-5.2 1.2-6.7 4.7-2.2 21.7 4.7 26 8.5z" class="outline" data-original-prefix="outline"/><path id="outline-mouth1" fill="#000000" d="m1122 1332-.5 3c-10.9-11.7-25.5-16-41-18-2.9-.4-6.9.7-9.5-.5-1.5-.7-4.5-7.4-6.5-9.5-3.4-3.8-14.1-10.6-19-12s-4.7-.4-8.6-2.9c4.2-4.1 21-10.8 26-8.5 3.1 1.5.8 4.2 1.2 6.7 1.9 11.3 12.7 24.5 25 19.5 4-1.6 2.6-4.3 9.2-1.6 10.8 4.4 18.3 14 23.6 23.9h.1Z" class="outline" data-original-prefix="outline"/>
    </g><g class="trait-group" data-category="eyes" id="eyes-navigators">
      <defs/><path id="fill-eyes-skull" d="M1306.9 1006.8c-13.7 7.2-27.9 15.8-40 25.6-1.1.8-2.5 0-1.9 2.6 8.3-1.5 16.1-4.8 24.5-6 8.7-1.3 24.5-3.1 33-3 1.5 0 11.8.9 12.3 1.2 1.6.9 16.3 27.2 18.4 31.1 4 7.3 8.2 15.7 11.7 23.3 5.7 12.5 12.7 26.1 11 40.2l-22.1 10.1c-1.5.7-1 3.8-2.3 4.1-2.7.6-23.7-3.6-28.9-4.1-42.8-4.2-88.2-4.2-130.9-4.1-26.6 0-52.9 1.3-79.5 1 20-19.2 44-35.8 67.1-51.4 3.6-2.4 8.7-4.4 11.8-7.2.9-.7 3.3-2.2 1.6-3.4-31 12.5-59.9 29.4-89.8 44.2-6.6 4.5-8.7 12.7-13.4 18.8-35.1.4-70.6 2.2-105.8 1-7.7-.2-15.8-1.8-23.8-1.2-2.3-.7-8-12.4-10.7-15.3-5-5.3-39.4-22.2-48.3-26.7-6.6-3.3-38.7-19.5-43.2-19.8-.6 0-1.7-.3-1.5.5 27.3 19 56.1 37.2 80 60.5-26.2.3-52.3-.9-78.5-1-35.6 0-73.3-.2-108.9 2.1-17.6 1.1-35.1 3.8-52.5 6 0-1.1.4-2.9-.2-3.8-1-1.7-20.3-8.5-22.7-10.8-1.8-13.2 4.5-25.3 9.7-37 8.9-19.9 20.2-38.5 31.4-57.1 4 .5 8.8-1.2 12.3-1.2 8.5 0 24.3 1.7 33 3 8.1 1.2 15.5 4.5 23.5 6-4.9-5.7-11.8-10.2-18.1-14.4s-15.7-8.2-20.8-12.2c-1.3-1-2.9-2.1-3-3.9 0-1.5 4.1-10.8 5.1-12.9 16-32.3 84.7-79.8 116.5-98.5 93.2-54.7 233.8-53.4 326.2 2.4 32.8 19.8 104.9 69 116.8 105.2.4 1.3 1.7 5.2 1.2 6.1z" class="fill" fill="#ffffff"/><g id="fill-eyes" class="fill" fill="#ffffff"><path id="fill-eyes8" d="M795.8 1140.3c28.3-.6 57.5 2 85.6 5.8 25.3 3.5 69.5 10.7 89.6 26.4 21.9 17.2 39.3 55.5 26.2 82.1-8.5 17.3-25.9 40.5-37.3 56.7-15.4 21.8-38.8 56.7-61.8 69.2-93.1 50.5-204 10.9-245.9-85.2-9.4-21.7-8.6-30.5-6.1-53.8 2.3-21.5 7.7-50.4 15.5-70.5 4.3-11 8.3-14.3 19.2-18.8 27-11.1 84.5-11.3 115.1-11.9Zm-12 10c-21.1.7-46.5 1.4-67.3 3.7-72.2 8.1-73 112.8-44.3 161.3 30.4 51.4 104.8 87.8 163.8 75.2 63.1-13.5 90.4-48.9 125.8-98.2 20.8-28.9 43.3-56.4 21-92.6-17.3-28.1-49.2-39.4-80.4-43.6-38.3-5.1-79.9-7.1-118.6-5.8" class="fill" fill="#ffffff"/><path id="fill-eyes7" d="M1225.8 1140.3c33.5-1.6 79.3.8 112.7 4.7 13.6 1.6 38.9 7.4 45.7 20.3 11.3 21.3 19.6 78.7 19.9 103.2 0 11.4-11.7 35.1-17.6 45.5-45.4 80.7-143.3 110.1-227.2 71.2-21.8-10.1-29.6-19.5-44.3-37.7-19.3-23.8-51-66-64.2-92.8s4.1-64.4 25.7-81.7c27.9-22.4 112.8-31 149.3-32.7m-9 10c-10.3.4-21 .9-31.3 1.7-43.4 3.4-96.5 7.3-121 49-21.1 35.9 1.3 62.9 21.7 91.3 35.5 49.4 63.2 85.2 126.6 98.4 59.2 12.3 134-24.8 163.7-76.7 27.8-48.5 26.8-151.9-45-160-35.3-4-79.1-5-114.7-3.7" class="fill" fill="#ffffff"/><path id="fill-eyes6" d="m1139 1141-33.2 8.3-21.2 6.8c-38.8-3.2-84.1 4.1-122 0-5.6-.6-14.2-5.1-20.3-6.7-11-3-22.1-5.5-33.2-7.8l230-.5h-.1Z" class="fill" fill="#ffffff"/><path id="fill-eyes5" d="M637.9 1218.1c.7 1-2 23.1-3 23.7-4.5-.6-16.9.2-19.5-2.8s-2-22.4 1.6-24.6c2.3-1.4 17.2 3.1 20.9 3.7" class="fill" fill="#ffffff"/><path id="fill-eyes4" d="M1413.1 1241.9c-1.2-.8-3-20.5-3-23.7.6-.9 19.8-4.3 20.9-3.7 2.9 1.8 3.9 20.2 2.5 23.5-2 4.6-15.5 3.2-20.3 3.9Z" class="fill" fill="#ffffff"/><path id="fill-eyes3" d="m1042 1205-3.6 13.1c-10.1-3.1-19.1-2.3-29.3-.2-.5-3.6-3-7.9-3.1-11.4 0-2.3 0-1.2 1.5-1.5 11.2-2.3 23.2-.8 34.5 0" class="fill" fill="#ffffff"/><path id="fill-eyes2" d="M730.8 1163.3c30.7-2.5 65.6 3.5 96.7 1.7 46 3.6 120.3-1 147.3 45.7 17.8 30.8-18.3 78.3-38.3 101.3-39 44.9-89.2 83.1-152.5 67.5-74.3-18.3-123.1-70.5-118-150.1 2.5-39.8 25.2-62.9 64.8-66.2Z" class="fill" fill="#ffffff"/><path id="fill-eyes1" d="M1298.8 1163.3c46.4-.5 79.7 13.8 83.2 65.2 4 57.5-21.2 106.9-72.3 133.7-82.6 43.2-141.7 15-198.2-50.2-21.2-24.4-57.9-72.4-36.3-104.3 28.6-42.2 94.3-39.8 139.3-41.7 27.9-1.2 56.3-2.4 84.3-2.7" class="fill" fill="#ffffff"/></g><path id="outline-eyes15" d="M1371.5 1187c15.8 20.8 15.5 53.3 12.4 78.3-3.5 28.1-20.7 62.2-42.4 80.6-29.5 25.1-78.3 42.7-117 40.1-4.8-.3-30.8-5.2-33-8-1.1-1.5-.2-1.6.5-2.6 2.9-4.1 8-9.4 11.5-13.5 52.6-61.5 109.8-118.9 168-175Z" class="outline" fill="#000000"/><path id="outline-eyes14" d="M983 1229c.3.3 4.8-.2 6 0-.9 16.8-8 28.2-16.8 41.7-38.5 59.1-94.4 120.9-171.8 115.3-2.8-.2-19-2.7-19.5-4.6 55.7-67.3 117-129.7 180-190 3-1.4 7 3.8 9 6 5.4 5.9 11.3 15.4 12.7 23.3.3 1.9 0 8 .2 8.3z" class="outline" fill="#000000"/><path id="shading-eyes13" d="M948.5 1139c-.8-.2-9-11.1-11.5-13.5-50.3-47.6-115.6-76.4-179.7-100.3-5.5-2-29-7.5-31.3-10.6-2.9-4 2.2-9.9 4.6-13.5 27.2-39.6 72-78.2 113.1-102.9 30.2-18.1 63.6-34.2 98.3-41.2-12 12.1-28.8 18.2-42.9 27.6-25.7 17-51.7 48.9-68.1 74.9-3.8 6.1-18.6 31.3-18.8 37-.7 18.9 17.8 39 30.3 51.5 39.3 21 81 39.4 116.3 66.7L972 1139c-6.1-1.1-18.3 1.5-23.5 0" class="shading" fill="#aaaaaa" style="opacity: 0.5" opacity="0.5"/><path id="shading-eyes12" d="m1076 1139 13.2-24.3c35.2-27.4 77.1-45.7 116.3-66.7 7.5-5.6 25.1-28.4 27.8-37.2 4.8-15.3-1-24.5-8.1-37.5-16.5-30.1-47.7-69.7-76.3-88.7-14.2-9.5-31-15.2-42.9-27.6 31.9 6.4 62.5 20.8 90.7 36.8 45.1 25.7 89.8 63.8 119.7 106.3 2.5 3.5 9 10.9 5.3 14.7-3.2 3.3-24.9 8.2-31 10.5-61.1 22.6-111 44.7-162.2 85.8-10.5 8.4-21.5 16.6-29 28H1076Z" class="shading" fill="#aaaaaa" style="opacity: 0.5" opacity="0.5"/><path id="outline-eyes11" d="M834 1163c-8.3-1.4-9-.6-15 4.5-35 29.6-73.6 71.6-106 105-8.7 9-23.2 28.2-32.5 34.5-.8.6-1 1.4-2.5 1-2.5-7.6-7.4-14.1-9.7-21.8-6.7-21.9-8.3-63.1-.2-84.6 13.7-36 45.5-43.2 80.9-41.6l-10-3 9.5-2c21.9 1.2 50.7-5.5 71.9-2 3.9.7 11 6.7 13.5 9.9Z" class="outline" fill="#000000"/><path id="outline-eyes10" d="m1309 1156-17.5 5c-20.2-.4-40.3.8-60.5 1.5-46.6 43.1-90.8 88.6-134.7 134.4-2.1.6-2.6-.7-3.7-2-6.2-6.7-24.5-34.5-28-42.9-3-7.2-4.7-15.2-5.5-23 9 1.1 5.1-1.7 6.2-8.3 9.6-53.8 105.4-58.7 147.1-57.9 14.6-14.7 31.6-8.7 50.2-9.8l46.4 3.1Z" class="outline" fill="#000000"/><path id="outline-eyes9" d="M943 1178c1 1.3-6.1 7.7-7.5 9-13.4 12.8-27.7 25-41 37.9-48.2 46.9-93.4 96.9-136.5 148.6-2.6 1.6-23.9-7.9-25.5-10.5-.8-1.2-.5-1.7.5-2.6 35.6-35.7 70.3-72.3 106.5-107.5 25.7-25 55.1-55.1 82.5-77.5 1.3-1 3.8-3.3 5.3-3.3 3.9 0 11.5 4.9 15.7 5.8Z" class="outline" fill="#000000"/><path id="outline-eyes8" d="M1341.6 1164.2c1.9-.2 11.9 4.6 13.7 5.9 1.1.8 2.4 1.3 1.2 2.9-66.7 59.6-128.7 124.4-186 193.1-.6.5-1.2.9-2 .9-1.3 0-18.5-11-19.6-12.4-1.2-1.5-1.4-2.6 0-4.1 51.6-52.4 103-105.1 157-155 4.3-4 33.3-31 35.7-31.2Z" class="outline" fill="#000000"/><path id="shading-eyes7" d="M801 1138c-30.9-.6-61.5 2.8-92.4 3.9l-35.3-17.7c-4.1-1.8 2.4-3.2 3.6-4.8l15.1-28.9c12.1 0 26.8-3 37.7 2.3 18.4 9 42.8 24.4 60.2 35.8 1.3.9 12.9 7.8 11.1 9.4" class="shading" fill="#aaaaaa" style="opacity: 0.5" opacity="0.5"/><path id="shading-eyes6" d="M1376 1124c-.3.4-6.9 2.3-8.4 3.1-5.9 3.1-23.2 14-28.2 14.8-10.7 1.7-33.8-2.4-45.9-3-7.3-.4-14.8-.7-22-1-8.2-.3-16.4.3-24.5 0-1.8-1.7 9.8-8.6 11.1-9.4 16.7-10.8 35.9-22.1 53.2-31.8 3.3-1.9 9.9-6.2 13.2-6.8 3.2-.5 30.1-.4 31.4.4 5.4 6.6 10 24.3 15.5 29.5 1 1 5.9 2.1 4.4 4z" class="shading" fill="#aaaaaa" style="opacity: 0.5" opacity="0.5"/><path id="shading-eyes5" d="M1085 1159c-2.1 6.6-7.9 8-12.5 12-2.6 2.3-5.8 5.4-8 8-5.4 6.1-10.8 18.1-15.6 22.4-4.3 4-3.8.8-6.5.6-5.1-.4-10.4 0-15.5-1.1-.7-.6 3.8-11.5 5.4-13.1 3.6-3.3 12.5-2.7 17.6-7.4 4.1-3.7 11.5-20.5 13.9-22.1 2.8-1.8 16.5 1.9 21 .5z" class="shading" fill="#aaaaaa" style="opacity: 0.5" opacity="0.5"/><path id="shading-eyes4" d="M1020 1201c-4.4 1.1-8.9.7-13.4 1.1-3.4.3-3.2 3.3-7.5-.6-4.7-4.3-10.2-16.4-15.6-22.4-2.3-2.6-5.4-5.6-8-8-4.3-3.9-10.9-5.7-12.5-12 4.5 1.4 18.2-2.3 21-.5 2.6 1.6 9.8 19.1 14.9 23.1 4.4 3.3 13.5 3.5 16.1 5.9 1.5 1.4 6.4 12 4.9 13.5Z" class="shading" fill="#aaaaaa" style="opacity: 0.5" opacity="0.5"/><path id="shading-eyes3" d="M1045 1248c-1.7.4-2-.7-3-1.5-5.3-4-9.4-10.7-14.5-14.5-2.7 1.4-6.1-.6-8.5.5-1.5.7-14.2 17.6-16 15.5-.6-3.2 1-6.3 1-9.4s-1.4-12.4-.6-13.6c.6-.8 7.9-2.9 9.1-2.8 2.1 0 7.1 3.7 11 3.8 4.7 0 9.2-3.8 11.9-3.8s8.2 2.1 8.5 2.4c2.2 1.6 0 7.1 0 10 0 4.8 1 8.9 1 13.5Z" class="shading" fill="#aaaaaa" style="opacity: 0.5" opacity="0.5"/><path id="shading-eyes2" d="M945 856c.7.3-.6 1.7-2 1-.7-.3.6-1.7 2-1" class="shading" fill="#aaaaaa" style="opacity: 0.5" opacity="0.5"/><path id="shading-eyes1" d="M1105 856c.7.3-.6 1.7-2 1-.7-.3.6-1.7 2-1" class="shading" fill="#aaaaaa" style="opacity: 0.5" opacity="0.5"/><g id="outline-eyes" class="outline" fill="#000000"><path id="outline-eyes1" d="M783.8 1150.3c38.7-1.3 80.2.7 118.6 5.8 31.2 4.2 63.2 15.5 80.4 43.6 22.3 36.3-.2 63.7-21 92.6-35.4 49.2-62.7 84.7-125.8 98.2-59.1 12.6-133.4-23.8-163.8-75.2-28.7-48.5-27.8-153.2 44.3-161.3 20.8-2.3 46.1-3 67.3-3.7m-53 13c-39.6 3.2-62.3 26.4-64.8 66.2-5.1 79.5 43.7 131.7 118 150.1 63.3 15.6 113.5-22.6 152.5-67.5 20-23 56.1-70.5 38.3-101.3-27-46.8-101.2-42.2-147.3-45.7-31.1 1.8-66-4.2-96.7-1.7Z" class="outline" fill="#000000"/><path id="outline-eyes2" d="M1216.8 1150.3c35.6-1.3 79.4-.2 114.7 3.7 71.8 8.1 72.9 111.5 45 160-29.7 51.8-104.5 88.9-163.7 76.7-63.4-13.2-91.2-49-126.6-98.4-20.4-28.4-42.8-55.5-21.7-91.3 24.6-41.7 77.6-45.6 121-49 10.3-.8 20.9-1.3 31.3-1.7m82 13c-28 .3-56.4 1.5-84.3 2.7-45 1.9-110.7-.5-139.3 41.7-21.6 31.9 15.2 79.9 36.3 104.3 56.5 65.1 115.6 93.3 198.2 50.2 51.2-26.7 76.3-76.2 72.3-133.7-3.5-51.4-36.8-65.7-83.2-65.2" class="outline" fill="#000000"/><path id="outline-eyes3" d="M1330.1 993.9c1.1.8 5.5-3.3 11.9.6 17.4 10.7 40.7 59.5 47.8 79.2 4.6 12.8 16.5 49.5 14 61.5-1.8 8.7-9.9 7.3-16.8 8.2 18.8 13.2 15.7 40.6 22 60.5 6.6-1.3 15-5.8 21.6-5.9 1.7 0 8.3 2.1 9.1 3.2 1.1 1.4 5.5 20.4 6 23.5 1.2 8.1 3.7 24-6 27.4-3.5 1.2-23.8 3.9-24.7 4.8 2.4 15.6-3.5 33.5-9.6 47.9-33 77.8-114.3 114.1-195.9 108-24.3-1.8-73.4-21.1-90-39-30-32.3-64.7-86.5-85.7-125.3-2-3.8-5.9-6.9-6.9-11.6-5.6-2-5.9 3.6-8.6 7.6-27.5 40.9-52.2 84.6-84.3 122.7-18.6 22.1-43.4 32-70.8 40.2-46.9 14.1-119.7.8-159.5-27.9-29.6-21.3-56.5-55.8-66.9-91.1-3.2-10.7-6-20.5-3.8-31.7-16.2-5-32.7 1.1-32-21.6 0-4.6 5.2-31.5 7.3-34.2.8-1 7.4-3.2 9.1-3.2 6.6 0 15 4.6 21.6 5.9 6.3-19.9 3.2-47.4 22-60.5-21.1.6-16.5-13.9-13.7-28.7 6.8-35.9 27.2-85 51.3-112.7 2.4-2.7 10.4-10.5 13.7-9.9 1.4.2 4.3 2.8 5.7 1.8.4-.3 3.5-6.5 5.1-8.4 78.4-96 169.4-147.3 295.5-148.6 130.6-1.4 230.4 50.6 309.9 153.1.9 1.1 1.4 3.8 1.6 3.9zm-23.2 12.9c.5-.9-.7-4.8-1.2-6.1-11.9-36.2-84-85.4-116.8-105.2-92.4-55.8-233-57.1-326.2-2.4-31.9 18.7-100.5 66.1-116.5 98.5-1 2.1-5.2 11.4-5.1 12.9 0 1.8 1.8 2.9 3 3.9 5.2 3.9 14.7 8.1 20.8 12.2s13.2 8.7 18.1 14.4c-8-1.4-15.4-4.8-23.5-6-8.7-1.3-24.5-3.1-33-3-3.5 0-8.3 1.7-12.3 1.2-11.2 18.6-22.5 37.2-31.4 57.1-5.2 11.7-11.5 23.8-9.7 37 2.4 2.3 21.7 9.2 22.7 10.8.6.9 0 2.7.2 3.8 17.4-2.2 35-4.9 52.5-6 35.7-2.3 73.3-2.2 108.9-2.1 26.2 0 52.3 1.3 78.5 1-23.9-23.3-52.7-41.5-80-60.5 0-.8.9-.6 1.5-.5 4.5.3 36.6 16.6 43.2 19.8 8.9 4.5 43.4 21.3 48.3 26.7 2.7 2.9 8.3 14.6 10.7 15.3 8-.5 16.1 1 23.8 1.2 35.2 1.1 70.7-.6 105.8-1 4.7-6.1 6.7-14.3 13.4-18.8 29.9-14.8 58.8-31.6 89.8-44.2 1.7 1.2-.7 2.7-1.6 3.4-3.2 2.7-8.2 4.7-11.8 7.2-23.1 15.6-47.1 32.2-67.1 51.4 26.6.3 52.9-.9 79.5-1 42.7-.2 88.1 0 130.9 4.1 5.1.5 26.1 4.7 28.9 4.1 1.3-.3.8-3.5 2.3-4.1l22.1-10.1c1.7-14.1-5.3-27.7-11-40.2-3.4-7.6-7.7-16-11.7-23.3-2.1-3.9-16.8-30.2-18.4-31.1-.5-.3-10.8-1.2-12.3-1.2-8.5 0-24.3 1.7-33 3-8.4 1.2-16.2 4.5-24.5 6-.6-2.6.8-1.8 1.9-2.6 12.1-9.8 26.3-18.3 40-25.6zm-511.1 133.5c-30.6.6-88.1.8-115.1 11.9-10.9 4.5-14.9 7.8-19.2 18.8-7.9 20.1-13.2 48.9-15.5 70.5-2.5 23.3-3.3 32.2 6.1 53.8 41.8 96 152.8 135.7 245.9 85.2 23-12.5 46.4-47.5 61.8-69.2 11.5-16.2 28.8-39.4 37.3-56.7 13.1-26.6-4.3-64.9-26.2-82.1-20.1-15.8-64.3-23-89.6-26.4-28.1-3.8-57.2-6.4-85.6-5.8zm430 0c-36.4 1.7-121.3 10.3-149.3 32.7-21.6 17.3-38.7 55.3-25.7 81.7s44.9 69 64.2 92.8c14.7 18.2 22.5 27.6 44.3 37.7 83.9 38.9 181.8 9.5 227.2-71.2 5.9-10.4 17.7-34.1 17.6-45.5-.2-24.5-8.6-81.9-19.9-103.2-6.8-12.9-32.1-18.7-45.7-20.3-33.4-3.9-79.2-6.3-112.7-4.7m-86.8.7-230 .5c11.1 2.2 22.3 4.8 33.2 7.8 6.1 1.7 14.7 6.1 20.3 6.7 38 4.2 83.3-3.2 122 0l21.2-6.8 33.2-8.3h.1Zm-74 26h-82c4.9 2.9 14.9 21 18 22.5 1.3.7 7.5 1.4 9.5 1.5 5.9.4 33.5.6 37.1-2 4.4-3.1 11.4-18.2 17.4-22.1Zm-23 38c-11.3-.8-23.3-2.3-34.5 0-1.4.3-1.6-.8-1.5 1.5.2 3.5 2.6 7.8 3.1 11.4 10.2-2.2 19.2-2.9 29.3.2zm-404.1 13.1c-3.7-.6-18.6-5.1-20.9-3.7-3.6 2.2-4.2 21.6-1.6 24.6s14.9 2.2 19.5 2.8c1-.6 3.7-22.7 3-23.7m775.2 23.8c4.8-.7 18.3.7 20.3-3.9 1.4-3.3.4-21.8-2.5-23.5-1.1-.6-20.3 2.8-20.9 3.7 0 3.2 1.8 22.9 3 23.7Z" class="outline" fill="#000000"/></g>
    </g><g class="trait-group" data-category="right ear" id="right ear-lop-eared">
      <path id="fill-ear-rt" fill="#ffffff" d="M1463.9 815.1c-1.1-.7-8-.2-9.6.6-.7.3-10 9.7-11.1 10.9-6.2 7.2-20.7 26.1-25 34-4.6 8.5-7.7 20-12 29-17.8 36.8-49.6 57.6-83.3 78.7-7.6 4.8-29.5 17.5-37.9 16.2-7-1.1-34.8-11.7-42-15.1-21.9-10.4-41.9-30.6-57.5-48.5-3.2-3.6-15.1-14.9-15.5-18.6-.3-3.2 3.6-17.9 4.7-22.2 8.4-34.6 26.4-65.8 37.6-99.4 7.8-23.5 15.9-52.5 21.2-76.8 12.6-56.9 6.2-116.2 18.8-173.2 6.5-29.5 44.6-53.4 68.8-69.2 18.9-12.3 68.6-41.2 89.5-43.5 15.6-1.7 55.8 8.9 72.8 13 32.2 7.7 82.2 19.7 108.9 38.1 28.8 19.8 56.1 41.5 79.2 67.8 28.8 32.7 32.2 44.2 17.2 86.3-24.8 69.4-61.7 123.7-101.8 184.2-17.7 26.7-44.5 75.8-67.1 95.9-5.7 5-12.1 7.7-19.2 3.5-6.7-4-7.2-14.3-9.9-21.1-5.9-15.2-13.1-29.9-18.8-45.2-1.4-3.7-7-24.7-8.1-25.4Z" class="fill" data-original-prefix="fill"/><path id="shading-ear-rt" fill="#aaaaaa" d="M1693 608c1 1-4.3 15.7-5.2 18.2-24.8 67.4-59.8 119.2-98.8 178.2-21.9 33.2-41.9 67.9-68 98.1-1 .6-21.9-3.9-22.8-4.8-6.2-16-12.7-32-18.2-48.3-2.8-8.2-5.2-22.3-8.8-29.2-6.7-12.9-25.5-1.8-31.6 6.8L1375 927.4c-15.2 15.6-73.2 61.5-94 58.1-27.4-10.3-54.4-22.9-76-43.1-7.2-6.8-11-13.5-16.6-21.4-1.2-1.8-4.3-3.7-4.9-5.1-2-4.3 2-12.6 4.7-16.3 58.6-63.6 106.8-135.2 139.3-215.7 2.7-6.6 6.2-14.1 8.2-20.8 12.4-39.6 1.6-77.7 5.3-117.7.1-1.6 1-7.4 1.9-8.1 36-.7 71.8-5 107.1 5.1 4.8 4.7-.7 11.5 1.5 16.5.9 1.9 19.3 19.7 22.5 22.5 22.5 20.7 50.8 41.6 76.3 58.7 18.7 12.6 25.8 21.5 49.7 12.2 27.4-10.6 54.6-28.2 81.7-40.3 1.6-.7 10.7-4.9 11.3-4.1Zm-243.1 187.9c.7-1.2-.2-3.3-.7-4.6-1.1-3.3-15.2-30.7-16.9-31.2-14.9 4.2-27.9.2-41.7 8.1-20.9 12-39.7 56.6-52.5 78.5-13.9 23.7-28.5 47-45.2 68.8-10.3 13.5-11.2 12-16.5 29.5-2.2 7.2-4 14.6-5.5 22 .7.7 7-4.7 8-5.5 19.1-15.9 39.4-37.3 56.5-55.5 15.3-16.3 30.8-30.3 38.5-51.5 3.8-10.5 6.9-31.8 15-38 7.4-5.8 26.8-8.1 36.8-11.2 3.2-1 23.3-8.1 24.1-9.4Z" class="outline shading" data-original-prefix="shading" opacity="0.5" style="opacity: 0.5"/><path id="outline-ear-rt" fill="#000000" d="M1204 941c-.3 1.7-3.1-.2-3.9-.6-7.2-3.8-17.7-9-23.1-14.9-11.1-12.2-18.6-30.8-29.5-43.5-1.1-2.6-.7-7.5-.5-10.5.9-20.2 13.6-36 21.8-54.2 9.5-20.7 16.6-37.4 27.3-57.7 35.2-66.4 43.6-127.5 46.8-202.2.5-10.7-2-36.2 1.5-44.5 1.4-3.3 13-13.4 16.5-16.5 21.7-19 49.4-37.3 73.5-53.5 14-9.4 50.3-35.6 64.1-39.9 42.4-13.3 127.4 18.5 168.4 35.5 32.1 13.3 72.4 28.4 93.2 56.8 15.6 21.2 47 74.4 50.6 99.5 1 7.4-8.7 31.3-11.8 39.8-35.5 98.7-94.4 215.4-170.5 288.5-7.1 6.9-19.8 19.2-27.6 24.4-1.1.8-9.4 5.2-9.9 4.6-1.7-24.9-6.5-50.8-13.7-74.8-1.4-4.7-3.2-9.4-5.1-13.9-1.9-4.4-15.5-30-19.5-29.2-6.2 1.1-28.3 40-31.8 47.2-5 10.4-7.9 21.5-12.3 31.7-5.6 12.7-20.1 19.7-30.5 28.5-11.3 9.6-20.6 22.3-32.7 30.3-10.6 7-40.6 20.7-52.8 20.2-11.7-.4-41.3-16.4-51.5-23 8.6.3 16.8 5 25.6 5.9 37.8 3.8 59.7-18.4 86.4-41.4 21.6-18.5 29.3-31.5 42.5-56.5 8.9-16.8 16.4-34.2 23-52l26.6-18.7-60.6-103.4c-1.9 2-1.5 4.5-3 7-3.9 6.4-17.6 18.5-23.4 25.6-34.1 41.1-71.2 101.1-93.2 149.8-10 22.1-22.8 52.5-10.8 75.7-1.4.3-2.4-.2-3.7-.8-4.5-1.9-23.8-17.8-25.1-21.9-1.9-6.1 3.5-21.4 1.9-28.7 12.2-19.5 26.9-37.6 38.1-57.9 24.5-44.3 42-94.9 71.4-136.6 6-8.5 14.6-15.7 20.8-24.2 4.8-6.4 10.9-14.3 10.6-22.4-.7-14.4-5.8-30.2-6.9-44.1-.2-2.2-.4-4.6 0-6.8.7-4 11.7-17.3 14.8-22.2 8.2-13.4 22.4-40.6 6.2-52.8-12.2-9.3-28.9 1.5-42 2.5-1-12.5 18.7-18.5 28.5-22 25.7-9.4 40-10.3 66.3-2.2 5.3 1.6 28 8.1 26.1 15.6-.4 1.7-9.4 6.6-11.8 8.3-20.8 15.2-37.8 32.8-50.6 55.4-3.8 6.6-13.3 26.5-13.1 33.4.2 5.3 6.5 22.2 8.6 28.2 8.4 23.3 20.3 47.1 34.8 67.2 5.7 7.9 14.6 16.1 19.4 23.6 6.2 9.6 11.6 26.1 16.9 37 15.2 31.3 30.8 62.3 43 95 1.7 1.2 2.3 6.8 4.3 6.6 9-.9 29.9-27.5 35.9-35.1 49.7-62.8 110.8-167 129.1-244.9 2.2-9.3 5.9-23.2 2-32-5.7-13.1-34.2-49.7-44.6-61.4-47.2-53.1-148.3-76.6-216.4-84.6-41 14.3-80 35-114 62.1-6.3 5-26.1 21-29 27-14.1 28.2-19.5 95.6-22.5 128.5-2.4 27.1-.3 58.6-10.8 83.2-7.8 18.2-18.3 36.1-26.3 54.7-14.2 32.7-25.5 66.6-39.8 99.2-2 14 18.3 43.4 27.9 53.4Z" class="outline" data-original-prefix="outline"/>
    </g><g class="trait-group" data-category="left ear" id="left ear-KBDS tattoo">
      <path id="fill-ear-lft" fill="#ffffff" d="M326.7 182.1q1.65-.45 3.3.3l180.7 78.4c55.2 39.7 111.9 77.8 165.3 119.7l109 135.9c10.5 65.4 16 132 25.2 197.8 24.6 50.1 52.6 98.7 77.3 148.7 1.5 3.1 5.4 9.5 5.5 12.5.2 4.7-8.5 15.9-11.2 20.8-15.1 27.1-18.8 33.2-43.9 52.1-22.9 17.2-44.3 28.5-72.5 35.5-8 2-18.1 5.7-25.3.5l-82.9-79.1c-9.9-22-17.5-45.3-28.1-66.9l-154-109c-23.7-34.4-41.7-73.1-64.9-108.1-9.8-43.7-27.6-90.2-34.9-134.1-5.9-35.7-6.9-73.6-12.5-109.5-9.3-20.9-22.7-40-30.5-61.5-1-40.6-6.8-81.2-8.3-121.7-.1-3.4-1.1-11.4 2.8-12.4Z" class="fill" data-original-prefix="fill"/><path id="shading-ear-lft" fill="#aaaaaa" d="M664 558v21.5c0 22.8 19.2 43.4 30.4 61.6 38.9 63.4 63.1 129 108.2 189.8 16.2 21.8 35 41.1 51.9 62.1 4.8 5.9 9.3 10.3 9.5 18.5.2 6.2-2 12.6-1.1 19l-.9 2.1-60.1 40.9c-13.7.2-28.1 9.9-40.7 12.4-1.5.3-2.8.5-4.2-.3l-76.6-51.4-69.8-109.7c-33.8-23.4-81.3-39.6-107.2-72.3-4.2-5.3-6.4-12.2-10.5-17.5.3-1.1 2.2-.4 3 0 7.1 2.9 21.5 16.6 29.2 21.8 23.5 15.5 51.4 30.4 77.3 41.7 17.3 7.5 35 10.9 52.9 16.1 7 15.4 12.9 31.5 20.2 46.8 8 16.6 27 35.1 40.2 48.8 19 20 39 39.1 59.5 57.5 1.5.2 1.8 0 1.4-1.4-1.9-7.7-7.7-31.2-11.1-36.9-4.7-7.9-16.1-19.2-22.2-27.8-25.1-34.9-42.3-72.5-64.4-108.6-7.4-12-9.8-16-22.8-22.2-38.1-18-78.4-19.1-114.3-41.7-26.9-17-34.3-26.3-51.1-52.9-25.7-40.5-46.4-86-61.2-131.8-4.2-12.9-10.9-32.4-12.7-45.3 0-.6-.3-1.6.5-1.5 14 25.4 25.6 52.8 42.1 76.9 5.6 8.2 12.9 19.9 23.4 21.1-.5-2.4 1.1-5.1.8-7.3-1.4-11-12.7-28.8-16.3-39.8-3.8-11.7 2.7-30.6 3.5-43.5 3.6-59-24.7-121.5-55.6-170.4-12.4-19.7-28.5-37.1-37.4-59.1h16.5c8.6 0 8.7 2.4 14.2 5.8 15.3 9.7 32.5 17.5 48 27 30.2 18.6 67.2 68.2 84.5 99.5 2.9 5.2 12 22.4 12.8 27.2.9 5.4-.9 10.1-1 14.9-.8 41.5 1.8 83.9 11.9 124.2 3.2 12.9 5.4 24.4 15.1 33.9 1.4 1.4 2.9 3.8 4.5 1.5l24.5-44.5 55-6.5Z" class="outline shading" data-original-prefix="shading" opacity="0.5" style="opacity: 0.5"/><path id="outline-ear-lft1" fill="#000000" d="M846 941c15.6-16.5 32.2-43.8 28.9-67.4-.7-5.3-12.9-37-15.7-43.3-4.9-10.8-13.5-22.9-19.1-33.9-13.3-26.2-23.6-54-36.6-80.4-11.5-63.5-8.3-129.6-22.2-192.8-17.8-27.6-39.3-55.2-60.3-80.7-38.8-47.2-78.4-82.8-129.5-116.5-44.3-29.2-93.1-59.2-139.9-84.1-38.9-20.7-78.7-40.3-120.7-53.8-2.4 25.4-1 51.1 2.1 76.4 1.6 12.7 3.6 27.3 6.1 39.9 4 19.6 14 30.2 20.7 48.3 12.6 33.6 20.1 76.2 22 112 1 17.6-.2 29.6 3.5 47.6C403.7 602 448.2 693 517.8 753.8c34 29.7 77.1 43.1 110.3 69.7 7.8 6.3 4 4.9 5.1 11.8 1.6 9.9 18.8 46.7 24.6 56.2 15.7 25.7 53.2 60.5 79.7 75.5 24 13.7 44.9 12.6 70.3 2.2-1 4.2-9.1 7.7-13 9.5-10.8 5-38.1 16.1-49 17.1-3 .3-21.2-3.2-23.6-4.5-4.8-2.8-25.5-24.8-31.5-30.5-6.5-6.3-12.2-13.3-19.5-19.5-10.3-8.7-24.4-15.4-30-28-10.2-23.4-16-42.1-31.1-63.9-13.3-19.2-23.3-19.4-42.1-29.9-54.1-30.4-101.8-71.4-134.8-124.2-34.3-55.1-65.6-124.7-77.1-188.9-2.5-13.8 1.9-13.4 4.1-25 4.4-23.5-6.2-86.5-16-109-4.4-10.1-16.6-21.1-20-29s-5.6-30.1-6.5-39.5c-3.2-33.3-7.5-84.6-2.9-116.9.4-2.5 3.3-15.8 4.5-16.7 3-2.2 17.1 1.6 21.4 2.6 42 9.3 96.2 32.3 135.7 50.3 50.6 23.2 121.1 61.1 164.2 95.8 15.1 12.1 34.1 34.5 47.6 49.4 42 46.4 79.2 96.7 114.9 148.1 8.9 76.3 3.1 178.6 48.8 244.2 2.9 4.1 7.4 7.9 10 12 7.1 11.1 12.9 32 19 45 8.4 18.2 20.9 33.8 21.8 54.2.1 3 .5 7.8-.5 10.5-17.1 21.9-26.4 52.1-56.5 59Z" class="outline" data-original-prefix="outline"/><path id="outline-ear-lft2" fill="#000000" d="M672 548c1 1.1-9.1 24.9-9.8 28.7-3.4 19.9 9.7 77.8 18.9 96.6 8.1 16.7 18.9 24.3 29.3 37.7 6 7.7 12.2 19.9 17.4 28.6 28.7 47.7 46.4 98.9 78 145 4 5.8 13.4 15.9 15.8 21.2 1.5 3.3 3.4 23.6 3.5 28.6.2 6.5-4.7 9.9-9.1 14-2.2 2-18.3 15.2-20 13.5.6-4.8 4.2-9.9 4.9-14.6 3.5-25.1-14.9-60.6-26.4-82.4-4.9 13.5-9.7 27.4-13.8 41.2-1.8 6.3-7.7 23-7.7 28.4s7.6 4.8 7 10.3c-15.2-4.4-28.5-12.5-41.5-21-2.2-2.1 0-8 .8-11.2 4.1-17.3 11.7-34.5 14.7-52.3-.2-2.6-21.2-17.3-24.5-20.5 1 13.8 3.6 27.7 4.5 41.5.3 4.3-.2 8.7 0 13 .2 4.5 4.1 23.3-5 21-2.3-.6-20.4-11.5-22.5-13.5-4.2-3.9-8.2-11.2-12.4-15.6-2.5-2.5-13.6-10.6-14.1-12.9-.3-1.6-.3-5 .5-6.5 9.7 5.3 18.8 11.2 27.5 18-.7-19-1.6-39.6-5.3-58.2-.4-1.9-.8-5.8-1.6-7.1-1-1.6-5.1-1-4.1-3.2s12.4-6.1 15.3-5.3l38.7 28.3-39-100.5c-2.6-.3-1.6 0-2 1.5-4.1 17.4-8.7 36.8-11.7 54.3-2.2 12.7-4 25.3-3.3 38.2-8.7-4.1-17.9-7.7-26.3-12.1-2.7-1.4-18.9-10.1-19.7-11.3-1.8-2.5-.1-5.4-1.8-8.2-1.1-1.7-10.3-6.9-13.6-10.4-24.8-26.3-42.5-56.6-72.5-79.5-1.9-1.4-9.4-3.2-6.3-6.6 4.4-5 15.9-9.9 21.4-14.4-2.3-1.5-3.7-4.5-5.3-6.2-.9-1-3-.9-4.2-2.3-2.5-2.8-8.3-37.9-10-45-1.9-8.1-4.5-16-6.5-24l-18.1 62.5c0 2.9 13.6 7.3 16.1 10 .9.9 1.6 2.5 1 3.5-.5.7-13.8 6.2-15.4 6-1.5 0-23.1-12.3-25.9-14.2-13.3-8.9-12.4-19.7-18.8-33.2-4.7-9.9-10.1-18.5-19-25-2.6-2-15-8.5-15.7-9.8-1.3-2.2 5.5-27.8 6.5-32.6 6.1-29.7 11.1-59.4 13.4-89.7.4-4.9-1.7-12 1.1-16.8 1.6-2.8 42.3-16.6 47.8-21.3-3.5-18.9-8.8-37.1-17-54.4-1.6-1.2-24.6 26.6-26.4 29.1-2.8 3.9-6.6 9.1-6.6 13.9-14.4-3-21.6-16.8-31-26.5-1-1-1.3-1.9-3-1.5l1 83.5c.2.8 11.7 11.3 12.6 11.5 2.6.6 4-6.3 4.9-8 6.9 7.4 6.4 11.1 5.5 20.5-.5 4.8-3.1 23.4-5.5 26.5-2.5 3.2-5.5-1.9-7.6-3.4-13-9.3-26.4-18.2-39.4-27.6-3.6-5.5-2.7-18.8-2.6-25.5.5-27.5 1.3-54.3-1-82-.7-8.5-1.5-23-3.2-30.8-.4-2-5.7-7.9-4.8-8.7 3.8 1.1 9.7.3 13 1.5s22.1 18.3 26 22c3.1 2.9 7 10.5 11.4 9.6l24.3-37.6c0-2.1-17-24.8-19.7-28-2-2.3-12.7-13.8-14.5-14.5-2-.9-2.4 3.5-2.5 4.5-.7 7.8-2.9 28.6-2 35.1.4 3.2 9.1 15.4 8 16.4-1.7.3-2.6-.8-3.9-1.6-9.2-5.6-23.4-19.3-30.1-27.9-1.5-1.9-4.3-5.4-3.9-7.7.3-1.4 7.7-12.2 9.3-15.8 2-4.5 9.4-24.6 8.6-28.3l-26-18.2-22-38.5c3.2-2.9 26 18.3 29.7 20.8 6.7 4.5 14.8 6.9 21.2 11.8 10.2 7.8 21.9 22.1 31.6 31.4 33.1 32 56.9 54.1 79 95.9 3.8 7.1 20.1 40.7 20.3 46.5.3 8.1-5.4 26-6.7 35.2-7.5 53.5-.4 104.9 26.7 152 5.6 9.8 22.5 33.9 35.2 21.9 5.1-4.9 9.1-31 11.5-39.5 1.8-6.4 9-30.9 12-35 2.3-3.1 13.2-9.4 17.2-11.8 12.5-7.8 25.9-15 39.3-21.2ZM448 424c7.3-13.8 19.7-25.6 30.5-37 1.6-3.1-1.2-5.8-3-8-3.3-.8-29.7 32.1-33 37.1-1.8 2 4.2 8.9 5.5 7.9m-37 68c-.5-29.8-1.4-59.6-1-89.5-3-5.5-7.6-10-12-14.5 4.1 32.6 5.7 65.4 5 98.3zm95-14c-10.4 1.8-20.4 6.6-29 12.7 0 29.3-2 58.6-6.1 87.7-1.6 11.1-4 22.1-5.9 33.2.1 2.8 7.5 8 10.1 11 .9 1 5.4 8 6 7.5 9.7-25.4 12.4-52.4 19-78.6 1.7-6-6.7-9.4-6-14.8.2-1.8 5.7-10.4 7-14.1 1.5-4 5-16.3 5-20v-24.5Zm9 93c-.5-.5-2.5-.2-2.1 1.4-4.8 25.6-9.3 51.4-19.7 75.4-.4 4.1 7.2 11.5 7.8 16.2 1.5-.1 1.5-1.5 1.9-2.5 8.1-20.9 11.3-47.5 19-69.1.4-2.8-6-20.4-7-21.4Zm136 123 7.7-39.4c-5.2-18.4-13.7-53.2-34.5-22.9-3.8 5.5-10.2 15.2-6.6 21.3 7.5 12.8 22.6 26.3 30.5 39.5l3 1.5Zm-18 90c4.9-18.2 8.8-36.7 11.7-55.4-10.5-17-21-34.2-33.7-49.6-1 13.6 3.3 27.5 8.5 40 2.5 5.8 6 11.2 8.5 17-17.8-6.2-33.6-18-49.7-27.9-2.3-.2-7.5 8.7-8.2 11.2 20.2 22.3 39.2 45.8 62.8 64.6Zm16.2 30.9c4.4.8 9.3 5.4 12.9 6.7 3.2 1.2 1.8-11.6 2-14 2.8-27.6 12.7-55.6 17-83.1-.1-4.1-8-9-10.5-12.4l-21.3 102.8ZM751 822c1.1-1.5-16.4-28.7-18.8-31.7-1-1.2-1.1-2.7-3.2-2.3l15 36zm-8 108c4.6-26.5 14.7-52.1 22.8-77.8.7-3 .1-6.2-2.3-8.2l-24.3 82.8c-.6 2.8 1.4 3.6 3.8 3.2" class="outline" data-original-prefix="outline"/>
    </g><g class="trait-group" data-category="head" id="head-tophat-knucks">
      <!-- Generator: Adobe Illustrator 29.1.0, SVG Export Plug-In . SVG Version: 2.1.0 Build 142)  -->
  <defs>
    
  </defs>
  <path id="fill-head4" d="M1387.7,802.3c2.1,2.4,5.7,6.7,7.2,9.3,8.1,13.9,5.6,50.1,8.2,67.8.3,1.9,1.7,4.8,3.6,5.4,35.2,3.5,70.5-3.2,105.6-6,6.2-2.3.7-14.8,1.7-19.1,1.2-5.1,29.5,1.6,34.1,2.8,4.3,1.2,29.1,10.1,30.5,12.5,0,14.2,4.9,29.8,5.5,43.5.4,9.4-5.8,22.5-9.5,31.5-29.7,72.3-88.5,139.6-152.9,183-87.3,58.8-187.2,102.9-291.3,120.7-9.7,1.7-33.3,2.7-40.4,5.3-1.1.4-1.1,2-2.4,2.8-5.4,2.7-34.5,1-42.9,1.2-15.9.3-71.9,3.1-83.7-1.2-14.4-5.3-27.7-5.4-43-8-94.5-16.2-186.7-54.4-267.7-105.3-74.2-46.7-137.4-109.5-173.3-190.7-4.4-10-13.2-28.9-12.8-39.2.6-13.8,5.5-29.3,5.5-43.5,9.6-6.7,55.5-22.2,63.9-16.1,1.7,2.8-.3,6.4-.5,9.6-.4,10.6,0,9.8,9.7,11.4,22.4,3.6,65.8,7.6,87.9,6.2,4.9-.3,13.2-.2,14.2-5.8-.2-8,1.5-15.9,2.2-23.8,1.5-17-1.4-35.2,9.6-49.4,2.5-3.3,10.2-9.5,11-12,1.8-5.7-.4-15.3.4-21.5-23.5-119.8-32.3-242.5-52.3-362.7-.8-4.7-5.8-23.2-4.2-25.8,2.4-4,37.9-19.8,44.5-22.5,118.5-48.5,274.9-68.1,402.5-64.5,104.6,2.9,236.5,24.8,333.4,64.5,6.6,2.7,42.1,18.5,44.5,22.5,1.6,2.6-3.4,21.2-4.2,25.8-20,120.2-28.8,242.9-52.3,362.7.7,6.2-1.1,14.9.2,20.8,1,4.1,5.3,5.4,7.5,7.8" fill="#ffffff"/>
  <ellipse id="fill-head5" cx="1023.3" cy="1013.6" rx="129.1" ry="127" fill="#ffffff"/>
  <path id="fill-head41" d="M1013.8,916.3c-66.7,6.5-103.2,81.5-71.3,139.7,31.3,57,109.6,65.8,152,16,55.1-64.6,4.9-164-80.7-155.7" fill="#ffffff"/>
  <path id="fill-head2" d="M668,808c2.9,19.8,15.1,32.6,29.5,45,32.8,28.2,80.4,47.6,121,62,30.8,11,62.4,20.7,94.5,27,.6.7-7.2,14.1-8.2,16.3-22.1,49.2-14.3,108.1,21.2,148.7-65.8-11.9-130.9-35.9-187.9-70.6-19.5-11.8-40.9-26.2-59.4-39.6-11-8-21.5-13.7-22.7-28.3-2.1-25.5.3-55.4,1-81,.6-20.7-.7-49.1,3.1-68.9.8-4.5,2.4-10.3,7.9-10.6" fill="#ffffff"/>
  <path id="fill-head1" d="M1122,1107c10.7-12.4,19.2-26.2,24.8-41.7,12.7-35.7,12-72.2-3.6-106.9-1-2.2-8.8-15.6-8.2-16.3,32.1-6.3,63.7-16,94.5-27,44.4-15.8,99.2-38.3,132.5-72.5,9.5-9.7,15.6-21,18-34.5,8.3,1.1,8.3,13.8,9,20.5,1.9,18.9,1.4,39,2,58,.7,26,3.1,56.2,1,81.9-1.2,14.7-11.7,20.4-22.7,28.3-18.5,13.4-39.9,27.8-59.4,39.6-57,34.7-122.1,58.6-187.9,70.6" fill="#ffffff"/>
  <path id="shading-head4" d="M1410.1,884.9c1.3.9,5.6-1,7.4,1.1,1.1,1.3,5.4,17.6,6.2,20.8,5.6,21.5,8.5,43.7,11.4,65.7-14,26.5-44.5,44.9-69.8,60.3-37.4,22.8-73,42.2-115.2,54.8-12.1,3.6-21.7,7.3-33.5,11.5-28.1,9.8-57.8,12.6-87.1,16.9-1.7.2-7.1-.2-7.4,0-.5.5,1.2,7.6-1.7,10.1-3.2,2.7-15.3,9-19.6,11.1-47.2,23.2-103.8,23.4-151.3,1-3.9-1.9-19.2-9.8-21.6-12.1-3-3-1.2-9.5-1.7-10.1-.3-.3-6.6.2-8.4,0-13.7-2.1-27.1-4.1-41-6-30.5-4.2-44.8-13.7-71.6-21.4-4.3-1.2-9.5-1.3-14.2-2.8-39.3-11.8-78.8-34.9-113.7-56.3-23.5-14.4-50.4-31.5-64.1-56-.3-10.9,12.6-84.5,17.9-88,1.9-1.2,5.8.2,6.9-.6.6-.4,2.2-9.1,3.2-11.3,1.2-2.5,4.3-4.9,4.7-6.3,2.2-7.5,1.2-25.6,2.2-34.8,1.2-11,1.7-16.5,8.6-25.4s10.5-7.3,11.4-20.6c1.2-16.8-4.3-35.6-6.9-52.2-15.2-99.9-30.6-199.8-42.2-300.3,2.6,1,4.4,11.3,5.1,11.9.6.5,2.9-.1,4.1.3,3,.9,4.6,7.6,5.4,10.6,6.8,25.1,7.9,56,12.8,82.2,4.3,23,10.6,45.8,15.2,68.8,14.9,74.5,27.1,149.9,46.9,223.1,14,27.5,60,46.2,87.9,56.1,40.5,14.4,84.4,24.5,126.8,30.8,54.1-45.6,122.5-51.4,183-13.7,4,2.5,17.6,13.8,20.1,13.9,55.7-10.6,116.5-22.9,167.2-48.9,32.6-16.7,45.3-28.7,53.8-65.2,14.4-61.1,24.5-125.4,36.8-187.2,4.9-24.6,11.7-49.1,16.4-73.6,5.2-27.1,6.5-56.7,12.8-83.2.8-3.2,2.5-12.1,5.5-13.5,1.6-.8,4.3-.1,4.9-.6s2.6-11.8,5.1-12.9c-5.4,42.8-10.2,85.7-16.1,128.3-10.4,75.4-24.6,150.6-32.8,226.1,1,12.4,4.8,11.2,11.4,19.6,13.2,17,7,39.9,10.6,59.4.4,2.4,3,3.5,4.2,5.8s3.5,12.4,4,12.8M926.3,929.3c-1.4,1.7-2.2,3.8-3.8,5.7-1.5,1.7-5.6,4.3-6,5-1.7,2.9,1.5,10-6.9,9.9-10.4,0-40.2-9-51.8-12.2-68.1-18.9-134.3-50.5-184.8-100.7-.2,20.2-1.6,40.3-1,60.5.8,28.2,4.9,56.3,7.6,84.4,1.5,1.9,2.3,4.2,3.9,6.1,7.1,7.7,28.4,20.9,38,27,55.6,35.2,116.6,56.8,180.5,72-6.8-17.4-9.9-36.8-9-55.5.5-10.1,1.1-24.1,2.2-33.8.6-5.3,3.5-11.1,3.9-16.6l2,1c1.3-7.8,3.5-17.4,7.1-24.4,1.9-3.6,4-8.1,8.9-7.6-14.9,31.8-18.4,69.2-4.5,102,35.7,84.2,141.1,105,202,34,33.4-38.9,38-89.9,16.5-136,4.1-.3,7.1,4.6,8.7,7.8,3.8,7.2,6,17.2,7.3,25.2l2-2c0,5.7,3.3,11.1,3.9,16.6,2.4,20.3,3.3,51.8-1.2,71.6-1.4,6.1-4,11.8-5.7,17.8,69.9-16.8,138.3-41.5,197.3-83.2,6.9-4.9,24.4-16.2,25.6-24.4,4-26.3,6.4-59.3,7.1-85.9.4-18.6-1.1-37-1.1-55.5-1.7-.5-2,.7-3,1.5-7.1,5.5-14.3,13.5-21.5,19.5-47.1,38.6-106.5,64.1-165.1,80-12.6,3.4-33.9,10-46.2,10.9-2.7.2-4.3-.2-6.2-2.3-3.2-3.6-.6-6.1-1.4-7.5s-3-1.9-4.1-3c-13.5-13.4-15.2-22.5-34.2-32.8-42.4-23-97.8-23.1-140,.6-13.4,7.4-17.6,13.2-27,24.3" fill="#aaaaaa" opacity="0.5"/>
  <path id="shading-head3" d="M550,880c-1,5.4,0,8.8,1,14-5.6-.4-12.5,5.3-16.5,9-11.3,10.2-10.6,15.9-7,30,6.6,25.7,26.5,59.3,42.1,80.9,34.6,47.7,80.2,82.7,125.7,119.3,3.9,3.5,1.4,5.1-2.7,2.7-65.3-37.5-126.3-85.9-169.5-148.5-12.3-17.8-36.2-57.5-28.4-79,3.5-9.6,28.3-29.4,37.8-30.3,4.9-.5,12.1,3.2,17.5,1.9" fill="#aaaaaa" opacity="0.5"/>
  <path id="shading-head2" d="M1351,1137c-.5-.5.2-3.5,1.5-4,64.8-50.5,138.4-110.8,165.3-191.7,2.9-8.7,7.2-21.1,3.1-29.6-3.2-6.7-16.3-17.6-23.8-17.7-.9-2.5,1.7-5,1.8-6.7.2-2-2.9-4.2-1.4-6.4l18.8-2.8c11,5,34.1,18.8,37.1,31,6.6,27.5-21.9,69.4-37.9,90.7-42.4,56.1-98.8,101.8-160.2,135.8-1.1.6-3.5,2.2-4.3,1.4" fill="#aaaaaa" opacity="0.5"/>
  <path id="shading-head1" d="M1123.6,1031.6c-3.2,8.9-13.7,35.7-21.7,40.8-1.6,1-3,1.8-4.9,1.6-.6-.6,7.2-12.8,8.2-14.3,22.7-37.5,12.8-75.5-15.7-106.7-21.3-23.3-45.6-30.5-77-28-56.8,4.5-99.2,74.6-75.3,127.3,2.9,6.4,9.4,12.2,12.2,18.8s-5.6-.4-7.4-2.6c-8.1-9.7-23.4-47.5-24-60-2.3-45.8,27.9-84.5,69.5-100.5,75.6-29.1,165.4,43.2,136.1,123.6" fill="#aaaaaa" opacity="0.5"/>
  <g id="outline-head-hat" fill="#000000">
    <path id="outline-head-hat10" d="M1510,873l-2.9-18.9c17.9-5,38.1,0,55.2,6.2,4.4,1.6,18.2,6.9,21,9.7s1.3,7,1.7,10.5c1.5,12.2,5.7,29.7,6,41.1.2,8.5-12,35.8-16.2,44.8-86.3,187.6-341.7,298.9-539.4,302.6-144.2,2.7-285.2-46.2-404.4-124.5-78.7-51.7-146.1-129.9-174.1-221l7-52.8c22.2-12.6,51.4-22.8,77-16.6l-2.9,18.9c19.4,2.2,39,3.4,58.5,5,14,1.2,27.5,5.1,41.5.5l1-2c-.2-7.4,1.3-14.7,2-22,1.2-13.5-.2-37.1,7-48,2.3-3.5,14.5-14.2,14.8-15.2,1.4-4.9-1.2-17.9-2-23.6-9.7-68.8-22.2-137.4-31.7-206.3-7.2-52.4-11.2-106.8-21.5-158.5-.9-4.6-4.2-13.9-4.4-17.5-.3-5,12.6-11.5,16.7-13.9,25.3-14.3,58.3-25.2,86.3-33.7,196-59.8,419.8-60.2,617-5.5,33.5,9.3,75.3,22.5,105.5,39.5,4,2.2,16.3,8.6,16.1,13.5-.2,3.6-3.6,12.8-4.4,17.5-10,52-14.2,106-21.4,158.5-9.5,68.9-22,137.5-31.7,206.3-.9,6.1-3.2,17.3-2.1,22.8.4,1.9,12.3,12.1,15,16,7.2,10.9,5.9,34.5,7,48,.6,7.3,2.2,14.6,2,22l1,2c14.1,4.6,27.5.6,41.5-.5,19.3-1.5,38.9-2.7,58.3-4.9M1123.1,927.9c65.1-16.4,132.6-33.1,191.9-65.4,22.1-12,49-26.2,51.9-54.1,3-28.5,3.8-57.2,7.2-85.8,13.3-110.2,34.3-219.4,47.4-329.6-7.6-4.7-15.8-7.9-24.1-11-217.1-81.8-486.8-81.8-707.3-13.2-21.4,6.7-44.1,13.6-63.8,24.3,13.1,110.2,34.1,219.5,47.4,329.6,2.2,18.5,4.5,37.3,6.1,55.9,2.8,32.3-3.2,46.7,26.3,67.7,35.2,25,82.9,43,124,56,31,9.9,62.7,17.5,94.2,25.8,49.5-61.3,149.7-61.7,198.8-.2M668,808c-5.5.3-7.1,6.1-7.9,10.6-3.8,19.8-2.5,48.2-3.1,68.9-.7,25.6-3.1,55.5-1,81,1.2,14.7,11.7,20.4,22.7,28.3,18.5,13.4,39.9,27.8,59.4,39.6,57,34.7,122.2,58.6,187.9,70.6-35.5-40.6-43.2-99.5-21.2-148.7,1-2.2,8.8-15.6,8.2-16.3-32.1-6.3-63.7-16-94.5-27-40.6-14.5-88.2-33.8-121-62-14.4-12.4-26.6-25.2-29.5-45M1122,1107c65.8-11.9,130.9-35.9,187.9-70.6,19.5-11.8,40.9-26.2,59.4-39.6,11-8,21.5-13.7,22.7-28.3,2.1-25.8-.3-56-1-81.9-.5-19,0-39.2-2-58-.7-6.7-.7-19.5-9-20.5-2.4,13.5-8.5,24.8-18,34.5-33.3,34.2-88.1,56.7-132.5,72.5-30.8,11-62.4,20.7-94.5,27-.6.7,7.2,14.1,8.2,16.3,15.6,34.7,16.2,71.2,3.6,106.9-5.5,15.5-14.1,29.3-24.8,41.7M520,869c-12.8,2-32.8,2.5-38.9,15.6-18.5,40.2,3.2,79.2,24.5,112.3,49.7,77.5,161.8,152.4,244.1,191.9,49.3,23.7,114,49.7,168,58,95.2,14.7,189.9,12.7,281.9-17.8,107.5-35.7,219.9-99.6,300-180,24.3-24.4,56.7-66,68.7-98.3,6.1-16.5,7.7-58.2-4.8-71.6-6-6.5-26.6-9.1-35.4-10.1l1,20.3c-.7,2.9-28.5,8.3-33,9.2-28,5.6-56.6,9.1-85,11.5-1.7,14.8-.4,29.7-.9,44.5,0,2.4-.9,4.5-1.1,6.9-.3,5.1,1.2,12.5-1.1,16.9-26.9,26.3-54.8,51.1-87,71-57.2,35.5-122.3,57.4-188.6,68.4-7.7,1.3-17.7,1.3-24.8,3.2-6.1,1.7-13.6,8.2-19.5,11.5-41.8,22.6-86.2,22.6-128,0-6-3.2-13.4-9.8-19.5-11.5-14.9-4.1-37.1-4.9-53.6-8.4-93.3-19.4-180.2-65.2-246.3-133.7-2.9-4.6-1.2-12.1-1.5-17.5,0-2.4-1-4.6-1.1-6.9-.5-14.8.8-29.8-1-44.5-16.1-1.3-32.4-2.8-48.4-5.1-8.2-1.2-68.6-11.1-69.7-15.5l1-20.3ZM1013.8,889.3c-72.3,5.5-128.3,76.8-109.1,148.5s79.6,112,151.5,92.9c43.9-11.6,69.1-41.7,83.8-83.2,29.4-83.1-40.3-164.7-126.2-158.2" fill="#000000"/>
    <path id="outline-head-hat9" d="M1405,400c-14.5,8.1-28.1,14.6-44,19.5-82.2,25.3-174.6,37.2-260.5,41.5-134.7,6.7-283.2-1.8-412.7-41.3-16.2-5-30.1-11.5-44.8-19.7,1.2-2.9,5.8-2.1,8.4-1.9,16.3,1.6,39.6,9.8,56.6,13.4,217,46.6,415,46.6,632,0,17.2-3.7,39.1-11.3,55.7-13.2,2.9-.4,7.9-1.4,9.3,1.7" fill="#000000"/>
    <path id="outline-head-hat8" d="M1094,1230c-.8-2.6,4.2-2.9,6-3.5,28.6-8.6,56.6-13.4,85.5-23.5,72.3-25.2,144.2-54.4,206.4-99.6,50.6-36.8,105.8-87,137.9-141.1,4.4-7.3,13.9-23.1,16.7-30.3,3.6-9.4-.3-19.3-3.7-28.2-1.6-4.2-6.9-10.7-4.8-14.3,3.8-6.5,8.3-.6,11.5,3.6,7.9,10.4,14.7,30.2,11,42.9-10.3,35.6-49.8,76.1-75.4,102.6-84,86.7-177.5,133.4-290.5,172.5-32.4,11.1-66.4,17.4-100.6,18.9" fill="#000000"/>
    <path id="outline-head-hat7" d="M953,1228l-1.5,2c-9.3-1.8-19.5-1-28.9-2.2-21.3-2.6-48.8-9.8-69.1-16.9-113-39.1-206.5-85.8-290.5-172.5-25.7-26.5-65.1-67-75.4-102.6-3.7-12.6,3.1-32.5,11-42.9,3.2-4.2,7.7-10.2,11.5-3.6,2.1,3.6-3.2,10.1-4.8,14.3-3.4,9-7.3,18.8-3.7,28.2,2.8,7.2,12.3,23,16.7,30.3,32.2,54.2,87.7,104.7,138.5,141.5,61.8,44.9,133.2,73.8,205.1,98.9,30,10.8,60.2,17.9,91.1,25.5" fill="#000000"/>
    <path id="outline-head-hat6" d="M1009.8,910.3c76.2-7.1,135.9,57.7,111.7,132.7-26.6,82.4-144.8,92.1-187.3,17.3-34.6-60.9,5.3-143.5,75.6-150M1013.8,916.3c-66.7,6.5-103.2,81.5-71.3,139.7,31.3,57,109.6,65.8,152,16,55.1-64.6,4.9-164-80.7-155.7" fill="#000000"/>
    <path id="shading-head-knucks" d="M1110.5,997.9c-1.3-5.9-18.6-28.9-23.9-30.5-3.7-1.1-8,2.1-11.7,5-2.4,1.8-4.9,3.8-6.3,3.8s-3.9-2.3-6.4-4.1c-5.5-4-12.4-8.9-16.5-8.6-3.3.3-7.2,3.9-11.5,7.7-3.8,3.4-8.1,7.2-10.5,7-2.1,0-6-3.6-9.4-6.8-4.4-3.9-8.5-7.7-11.7-7.9-4.1-.4-11,4.6-16.5,8.5-2.5,1.8-5.7,4.1-6.5,4.2-1.5,0-4.1-1.9-6.7-3.9-3.6-2.7-7.3-5.5-10.4-5.1-5.2.7-21.2,22.1-23.1,26.4-3,6.7-3.4,19,.8,26.6,2.2,3.9,5.4,6.3,9.3,6.9,4.8.7,12.5-.3,20.6-1.4,10.5-1.4,22.3-3,26.3-.2,1.7,1.2,2.5,2.6,2.3,3.9-.3,2.5-3.5,4.9-6.4,6-2.3,1-7.9,1.8-12.9,2.6-6.9,1.1-9.7,1.6-10.6,2.4-1.7,1.6-3.8,11.3-3.8,13.3.3,6.9,7.7,8.4,13.1,9.6.6,0,1.2.2,1.7.4,14.3,3.1,31.7,3.8,44.3,3.8s11.7-.2,14.5-.3c5.8-.3,36.4-2.9,41.7-7.7,1.9-1.7,2.3-4.8,2.3-7.1,0-4.7-1.5-10.1-3.5-11.9-.9-.9-3.9-1.5-11.3-2.6-4.7-.7-10-1.5-12.3-2.4-2.7-1.1-5.9-3.4-6.3-5.8-.2-1.3.4-2.5,1.8-3.8,4-3.5,14.5-1.9,24.6-.4,10.6,1.6,21.5,3.3,27.4-.3,7.8-4.5,8.9-20.4,7.3-27.3h.2ZM1083.4,1006.8c-2.9-1.2-5-5.2-4.6-8.9.4-3.1,2.5-5.2,6.1-5.7h.8c2.2,0,3.9,1.6,4.9,3.2,1.3,2.1,1.9,5.6-.4,8.6-2.2,2.8-4.5,3.8-6.8,2.9h0ZM1051,1003.8c-3.3,1-6.1.5-8.1-1.4-2.1-2-3-5.4-2.3-8.4.3-1.4,1.4-4,4.4-4.8,1.1-.3,2.1-.5,3-.5,4,0,6.4,2.8,7.2,5.7,1.1,3.7,0,8.2-4.2,9.5h0ZM992.6,994c.3-1.4,1.4-4,4.4-4.8,1.1-.3,2.1-.5,3-.5,4,0,6.4,2.8,7.2,5.7,1.1,3.7,0,8.2-4.2,9.5-3.3,1-6.1.5-8.1-1.4-2.1-2-3-5.4-2.3-8.4h0ZM963.1,1006.8c-4.1.4-6.1-3-6.7-5.9-.6-3.6.7-7.8,4.5-8.8,2.9-.8,4.9.9,5.9,1.9,2.1,2.4,2.9,6.3,1.8,9.1-.9,2.2-2.8,3.5-5.5,3.7" fill="#aaaaaa" opacity="0.5"/>
    <path id="fill-head" d="M1088.5,975c-5.8-4.9-14.1,8.7-19.8,7.8s-20-15.3-23.1-14.7c-4.7,3.2-16.8,15.1-22.1,14.8s-19.8-14.9-21.8-14.8c-6.2,2.3-16.5,13.8-22.4,14.7-5.2.8-12.7-10.7-18.6-8.7-1.4.5-17.6,21.7-18.2,23.8-1.7,5.7,1.2,18.7,7.5,20.6,15.8,4.8,34.7-11.5,49.4-.4,14.7,11.2-6.1,24.6-17.9,25.7-1.7.2-3.8-1.5-5.4-.5-.9.6-4.3,7.4-3.6,8.6,3.6,5.6,37.9,5.8,45.1,6,15,.2,33.8.8,48.5-2.4,3.9-.9,10.7-1.6,9.2-6.2-2.7-8.4-3.8-5-8.6-5.4-9.6-.9-24.8-8.8-22.6-20.4.7-3.3,9.4-9,12.5-9.5,15.2-2.5,45.2,17.7,49.2-7.8,2-12.6-11.2-21.3-17.3-31.2M952.6,1004.9c-8.6-14,10.2-26.7,20.1-15.6,11.7,13.2-11.5,29.6-20.1,15.6M998,1007.6c-14.3-2.6-13.1-23.7-1.3-26.4,21.4-5,20.8,30,1.3,26.4M1037,1001.5c-8.6-13.3,9.2-27.6,19.7-17.2,13.5,13.6-8.8,34.1-19.7,17.2M1095.4,1004.9c-8.6,14-31.8-2.4-20.1-15.6,9.9-11.1,28.8,1.8,20.1,15.6" fill="#ffffff"/>
    <path id="outline-head-hat5" d="M1079.7,1056.7c-4.8,4.3-33.7,7-41.1,7.4-17.7.8-41.3.3-58.6-3.5-5.3-1.2-13.7-2.2-14-9,0-2.1,2.2-11.3,3.5-12.5,1.5-1.4,18.5-2.8,23.2-4.8,5.2-2.1,10.3-7.3,4.3-11.7-7.4-5.3-36.2,3.1-47.4,1.4-12.6-1.9-13.4-22.8-9.3-32.1,2.2-4.9,17.9-25.2,22.3-25.8,5-.7,13,9.2,17,9,2.7,0,16.7-13.3,22.8-12.7,5.7.5,16.2,14.4,21.2,14.7,5.6.4,16.1-14.2,22.1-14.7,6.1-.5,20.1,12.6,22.8,12.7,4.3,0,12.2-10.5,17.8-8.8,4.9,1.5,22,24.2,23.2,29.8,1.7,7.3.2,22.1-6.8,26.2-11.4,6.8-43.5-6.8-52.2.8-5.2,4.5,0,9.3,4.8,11.2s21.8,3.3,23.2,4.8c2.9,2.7,4.9,14.3,1.2,17.6M1001.7,968.1c-6.2,2.3-16.5,13.8-22.4,14.7-5.2.8-12.7-10.7-18.6-8.7-1.4.5-17.6,21.7-18.2,23.8-1.7,5.7,1.2,18.7,7.5,20.6,15.8,4.8,34.7-11.5,49.4-.4,14.7,11.2-6.1,24.6-17.9,25.7-1.7.2-3.8-1.5-5.4-.5-.9.6-4.3,7.4-3.6,8.6,3.6,5.6,37.9,5.8,45.1,6,15,.2,33.8.8,48.5-2.4,3.9-.9,10.7-1.6,9.2-6.2-2.7-8.4-3.8-5-8.6-5.4-9.6-.9-24.8-8.8-22.6-20.4.7-3.3,9.4-9,12.5-9.5,15.2-2.5,45.2,17.7,49.2-7.8,2-12.6-11.2-21.3-17.3-31.2-5.8-4.9-14.1,8.7-19.8,7.8s-20-15.3-23.1-14.7c-4.7,3.2-16.8,15.1-22.1,14.8s-19.8-14.9-21.8-14.8" fill="#000000"/>
    <path id="outline-head-hat3" d="M996.7,981.2c21.4-5,20.8,30,1.3,26.4-14.3-2.6-13.1-23.7-1.3-26.4M996.7,986.2c-9.2,2.7-6.2,20.4,6.6,16.6,9.4-2.8,5.9-20.3-6.6-16.6" fill="#000000"/>
    <path id="outline-head-hat2" d="M972.7,989.3c11.7,13.2-11.5,29.6-20.1,15.6s10.2-26.7,20.1-15.6M960.7,989.1c-8.4,2.3-6.6,17.5,2.5,16.7,11.8-1,7-19.2-2.5-16.7" fill="#000000"/>
    <path id="outline-head-hat4" d="M1056.7,984.3c13.5,13.6-8.8,34.1-19.7,17.2-8.6-13.3,9.2-27.6,19.7-17.2M1044.7,986.2c-9.2,2.7-6.2,20.4,6.6,16.6,9.4-2.8,5.9-20.3-6.6-16.6" fill="#000000"/>
    <path id="outline-head-hat1" d="M1075.3,989.3c9.9-11.1,28.8,1.8,20.1,15.6-8.6,14-31.8-2.4-20.1-15.6M1084.8,989.2c-14.5,2.3-3.4,25.7,6.2,13.3,4.5-5.7-.4-14.3-6.2-13.3" fill="#000000"/>
    <g id="shading-head" fill="#aaaaaa" opacity="0.5">
      <path id="shading-head31" data-name="shading-head3" d="M996.7,979.2c-6.2,1.4-9.5,7.9-9.1,14.2.4-5.6,3.6-10.9,9.1-12.2,10.3-2.4,15.5,4.5,16,11.9.5-8.1-4.7-16.5-16-13.9" fill="#aaaaaa" opacity="0.5"/>
      <path id="shading-head41" data-name="shading-head4" d="M972.7,987.3c-8.4-9.4-23.2-1.7-22.2,9.4.8-10,14.4-16.3,22.2-7.4,2,2.3,3,4.6,3.2,6.9.3-2.9-.6-6-3.2-8.9" fill="#aaaaaa" opacity="0.5"/>
      <path id="shading-head5" d="M1056.7,982.3c-8.9-8.8-22.9,0-21.9,11,.8-10,13.6-17.2,21.9-9,2.7,2.7,3.9,5.7,4.2,8.6.3-3.5-.9-7.3-4.2-10.6" fill="#aaaaaa" opacity="0.5"/>
      <path id="shading-head6" d="M1097.6,996.8c1-11-13.9-18.9-22.3-9.5-2.6,2.9-3.5,6-3.2,8.9.2-2.3,1.2-4.6,3.2-6.9,7.9-8.8,21.4-2.5,22.3,7.5" fill="#aaaaaa" opacity="0.5"/>
      <path id="shading-head7" d="M998,1007.6c-6.8-1.2-10.1-6.6-10.4-12.2-.4,6.3,2.8,12.8,10.4,14.2,10.1,1.9,15.1-6.6,14.7-14.5-.4,7.3-5.4,14.2-14.7,12.5" fill="#aaaaaa" opacity="0.5"/>
      <path id="shading-head8" d="M952.6,1004.9c-1.3-2.1-2-4.2-2.1-6.2-.2,2.5.4,5.3,2.1,8.2,7.1,11.6,24.3,2.3,23.3-8.7-1,10.1-16.6,17.6-23.3,6.7" fill="#aaaaaa" opacity="0.5"/>
      <path id="shading-head9" d="M1037,1001.5c-1.4-2.1-2-4.2-2.2-6.2-.2,2.6.4,5.5,2.2,8.2,8.7,13.5,24.8,3.1,23.9-8.6-.9,10.8-15.6,19.4-23.9,6.6" fill="#aaaaaa" opacity="0.5"/>
      <path id="shading-head10" d="M1095.4,1004.9c-6.7,10.9-22.2,3.4-23.3-6.7-1,11,16.1,20.3,23.3,8.7,1.8-2.8,2.4-5.6,2.2-8.1-.2,2-.9,4-2.2,6.1" fill="#aaaaaa" opacity="0.5"/>
    </g>
  </g>
  <g id="shading-head11" fill="#aaaaaa" opacity="0.5">
    <path id="shading-head12" d="M960.7,976.1c5.9-2,13.4,9.5,18.6,8.7,5.9-.9,16.2-12.4,22.4-14.7,2,0,16.5,14.5,21.8,14.8,5.3.3,17.4-11.6,22.1-14.8,3.1-.6,17.4,13.8,23.1,14.7s14-12.7,19.8-7.8c5.5,8.9,16.8,16.9,17.5,27.6.7-11.7-11.6-20.1-17.5-29.6-5.8-4.9-14.1,8.7-19.8,7.8s-20-15.3-23.1-14.7c-4.7,3.2-16.8,15.1-22.1,14.8s-19.8-14.9-21.8-14.8c-6.2,2.3-16.5,13.8-22.4,14.7-5.2.8-12.7-10.7-18.6-8.7-1.4.5-17.6,21.7-18.2,23.8-.4,1.3-.5,3-.5,4.9,0-1.1.2-2.1.5-2.9.6-2.1,16.8-23.3,18.2-23.8" fill="#aaaaaa" opacity="0.5"/>
    <path id="shading-head13" d="M1055.3,1036.3c4.8,1.9,21.8,3.3,23.2,4.8,1.6,1.5,3,5.8,3.2,9.9.2-4.6-1.3-10.1-3.2-11.9-1.4-1.5-18.4-2.9-23.2-4.8-3-1.2-6.2-3.5-6.8-6.2-.9,3.5,3.1,6.7,6.8,8.2" fill="#aaaaaa" opacity="0.5"/>
    <path id="shading-head14" d="M992.7,1036.3c3.9-1.6,7.8-4.9,6.9-8.3-.6,2.7-3.7,5.1-6.9,6.3-4.7,2-21.7,3.4-23.2,4.8-1.3,1.2-3.5,10.4-3.5,12.5s0,.6,0,.9c.5-3.2,2.3-10.3,3.4-11.4,1.5-1.4,18.5-2.8,23.2-4.8" fill="#aaaaaa" opacity="0.5"/>
    <path id="shading-head15" d="M976.1,1045.3c1.6-1,3.7.7,5.4.5,9.3-.9,24.1-9.3,22.9-18.3-1,8.2-14.3,15.5-22.9,16.3-1.7.2-3.8-1.5-5.4-.5-.9.6-4.3,7.4-3.6,8.6l.2.2c.7-2.4,2.8-6.3,3.4-6.8" fill="#aaaaaa" opacity="0.5"/>
    <path id="shading-head16" d="M999.4,1016.1c-14.7-11.1-33.6,5.2-49.4.4-4.8-1.5-7.7-9.5-8-15.7-.3,6.4,2.6,16.1,8,17.7,15.8,4.8,34.7-11.5,49.4-.4,3.2,2.4,4.7,4.9,5,7.4.4-3.1-1-6.3-5-9.4" fill="#aaaaaa" opacity="0.5"/>
    <path id="shading-head17" d="M1056.6,1014c15.2-2.5,45.2,17.7,49.2-7.8.2-1.2.2-2.4.2-3.6,0,.5,0,1.1-.2,1.6-4,25.5-34,5.3-49.2,7.8-3.1.5-11.8,6.2-12.5,9.5-.2,1.1-.3,2.2-.2,3.3,0-.4,0-.8.2-1.3.7-3.3,9.4-9,12.5-9.5" fill="#aaaaaa" opacity="0.5"/>
    <path id="shading-head18" d="M1066.1,1053.5c-14.7,3.2-33.5,2.6-48.5,2.4-7.1-.2-40.7-.4-44.9-5.8-.2.8-.3,1.5-.2,1.8,3.6,5.6,37.9,5.8,45.1,6,15,.2,33.8.8,48.5-2.4,3.8-.9,10.5-1.6,9.2-6-1,2.7-6.1,3.3-9.2,4" fill="#aaaaaa" opacity="0.5"/>
    <path id="shading-head19" d="M1066.7,1045.9c4.8.4,5.9-3,8.6,5.4v.2c.2-.6.2-1.3,0-2.2-2.7-8.4-3.8-5-8.6-5.4-8.7-.8-21.9-7.3-22.8-17.1-.9,10.9,13.5,18.3,22.8,19.1" fill="#aaaaaa" opacity="0.5"/>
  </g>
    </g>
</svg>