<?xml version="1.0" encoding="UTF-8"?>
<svg xmlns="http://www.w3.org/2000/svg" viewBox="0 0 2048 2048">
  <style>
      .outline { fill: #000000; }
      .fill { fill: #FFFFFF; }
      .shading { fill: #aaaaaa; opacity: 0.5; }
    </style>
  <g class="trait-group" data-category="background" id="background-brown">
      <path id="color-brown" fill="#564624" d="M2048 4.5q-.15 1019.4 0 2038.8c0 3.8-.8 4.6-4.6 4.6q-1019.4-.15-2038.8 0c-3.8 0-4.6-.8-4.6-4.6C.2 1362.3.1 681.2.1 0h2043.3c3.8 0 4.6.8 4.6 4.6z" data-original-style="transition:fill .3s ease" style="fill: #564624" class="color"/>
    </g><g class="trait-group" data-category="jaw" id="jaw-OG-cracked">
      <!-- Generator: Adobe Illustrator 29.1.0, SVG Export Plug-In . SVG Version: 2.1.0 Build 142)  -->
  <defs>
    
  </defs>
  <path id="fill-jaw" class="fill" d="M1396.7,1438.7c-6.7,4.3-46.8-1.7-48.7.3l-12.2,69.8-57.2,29.3-1.4,1.6c-1.5,11.9,1.5,24.2.9,35.9-.3,4.9-1.3,15-2.3,19.7-.6,2.8-13.7,32.2-15,33.5s-16.1,8.9-16.7,8.3l-9.5-50-51,52c-7.7,5.7-20.7,9.3-27.5,15.5-14,12.7-25.2,37.4-42.1,47.9-5.4,3.3-61.3,25.7-66.7,26.3-13.8,1.7-33-3.3-47.7.2-17.7-10.3-50.1-16.2-66.1-26.9-14.3-9.6-28.3-35.6-41.4-47.6-6.7-6.1-19.9-9.6-27.5-15.4l-51-52-9.6,48.4c-.6.9-.9,1.7-2.2,1.5-.8,0-13.8-7.6-14.4-8.2-1.4-1.4-15.9-33.3-16.2-35.3l-.5-54.4-58.2-30.3-12.3-69.7c-8.1-1.2-45.1,3.9-49.5-1l-37.1-85-.5-3.4,31.5-70.6c5.3-1.6,29.1,0,31.3-6.7.8-2.3-.6-19.5-1.3-22.4-2.2-8.4-16.2-24-19.8-33.2-.7-1.7-1.2-3.1-.6-5,4.7-11.3,10.3-22.3,14.1-34,7.3-22.4,7.2-42.6,16.9-65.1,47.5-110.2,188.9-176,299.9-200.1,44.7-9.7,79.8-1.5,122.7,11.2,98,28.9,222.6,97.5,259,199,6.8,19,7,38.1,13.5,57.5,3.8,11.2,10.1,22.1,13.7,33.4,0,1.4-8.3,16.4-9.8,19.1-2.4,4.3-9.7,13.4-10.7,17.3-1.8,6.8-.6,15.6-2.3,22.5,9.9,7.9,21.3,4.2,32.4,6.5,9.6,23.9,23.5,46,31.4,70.6-9.8,26.3-22.2,51.8-33.2,77.7-1.3,3-1.7,9.3-5.1,11.4h0Z" fill="#ffffff"/>
  <path id="shading-jaw" class="shading" d="M1380.8,1185.8c-.2.4-2.1.7-2.8,1.7-8.6,10.8-16.2,26-21,39-4.2,11.4-5.1,22.7-13,32-18.8,22.4-51.8,45.5-78.3,57.7-5.4,2.5-12.5,3.7-16.7,7.8h20.5c2.7,0,5.1,1.2,7.9,1.1,18.1-.2,64.4-19.8,77.5-32.6,5.7-5.5,14.1-15.7,15-23.5,1.8,0,.7,2.4,1.5,4,3.1,5.9,15.5,5.2,21.5,6,.2,1.6-1.5.7-2.3,2.2-4.6,8.3-4.4,21.6-10.6,28.3-7.5,8.1-37.1,13.5-48.8,17.2-14.5,4.6-29.8,8.8-42,18.1l-52.8-14.8c-19.3-2.3-9.9,15.4-5.3,25.3,5.2,11.3,20.7,40,30.4,46.6,11.9,8.2,22.7-10.2,30-17,6.3-6,16.2-11.8,24.6-14.4,17.7-5.6,32.3,4.7,50.5,5.4,17.4.8,34.6-7.7,48.8-17.2,3.6-2.4,14.6-13.9,17.2-13.8,1.7,0,3.3,6.1,1.8,7.8-10.1,24.3-21.6,48-31.8,72.2-3.7,8.8-.8,14-13,15-9.3.7-15.8-1-24.2-1.8-4.8-.4-11.8,2.5-17.3-.2l-12.9,70.6-59,30.5c.4,11,2.6,23.6,2,34.5-.3,5.7-1.3,15.4-2.1,20.9-.5,3.1-13.4,31.4-15.4,33.6-3,3.2-11.6,6.2-15.5,9-.8-4.9-2.7-10.6-3-15.5-.6-11.2,2-11.3-2.7-23.2-.4-1.1-1.9-1-2.2-2-.8-2.2-.8-6.7-1.1-9.2l-2.3.2-50.2,51.8c-7.7,5.2-19.5,8.7-26.5,14.5-14.2,11.7-24.4,36.1-41.5,47.5-6.7,4.5-54.2,25.7-61.2,26.8-9.9,1.5-51.8,1.6-61.5,0-6.9-1.2-49.7-20.5-57.3-24.7-15.8-8.9-30.2-37.8-44.4-49.6-6.9-5.7-19-9.3-26.5-14.5l-51-52c-1,8.1-7.3,16-8.1,24-.6,6.2.6,14.6-.3,21.6-.2,1.7-3,1.8-2.1,4.4-.6.7-14.6-8.1-15.5-9-1.7-1.8-15-30.8-15.4-33.6-.7-4.4-.9-13-1.1-17.9-.5-12.2.6-24.4.5-36.6l-58.5-31.4-13-69.5-48.8-.2-38-86.6.9-6.2c8.2.4,11.8,8.2,18.6,12.7,25.3,16.9,38.4,19.8,68.5,13.9,17.1-3.4,19.1-7.5,37.2.4,15.9,7,19,16.2,30.6,25.4,9.6,7.6,13.6,7.9,22-1s31.8-49.1,32.1-60c.2-8.7-6.4-8.1-13.3-7.2-8.6,1.1-48.4,15.1-51,14.6-1.7-.4-12.3-7.9-16.5-9.6-20.3-8.4-48.8-11.8-67.2-20.8-14.9-7.3-11.3-20.9-17.7-33.2-.9-1.6-2.5-.6-2.3-2.2,6.3-.9,17,0,21-5.5,1-1.4.3-3.7,2-3.5,3,11.7,15.2,23.9,25.1,30.4,21.2,13.8,50.4,23.7,75.4,23.5h20.5l-34.7-16.8c-19.1-10.8-48.2-33.1-61.8-50.2-6.2-7.8-7.1-18.3-10.5-27.5-6-16.6-14.4-32-25-46,1.3-9,6.5-19.6,7.8-28.2,1.9-12.9,1.8-19.5,6.5-32.5,36.4-101.1,159.2-169,256.8-198.2,49.9-15,102.4-18.2,153.2-5.2,103.5,26.4,242.6,100.3,277.2,208.8,3.4,10.5,3,17.3,4.8,27.2.8,4.7,8.9,28.4,7.6,30.6l-.5-.2ZM1195.9,1382.1c-32.3-16.1-63.1-35.3-95.9-50.7-17.5-18.7-37.4-36.6-54.6-55.4-4.8-5.3-11.2-16-16-20-3-2.6-7.4-3-10.6-.6-4.5,3.4-12.7,16.4-17.4,21.6-16.7,18.6-36.8,35.6-53.6,54.4-32.9,15.3-64,34.2-96,51.2-.6,2.8,12.4,35,14.6,40.3,2.9,7.1,12.1,31.7,16,36.1,7.1,8,36.5,26.3,47,33,19.8,12.7,36.1,22.9,59.3,28.7,27.3,6.8,39.7,7.1,67,.6s43-16.6,65.7-31.3c10.4-6.8,35.9-22.5,43.4-30.6,4-4.4,12.7-27.4,15.6-34.4,2.1-5.1,16.8-41,15.5-42.9M728.3,1496.7c1.6,2,8.2,6.3,10.7,7.8,14.7,8.8,31.8,13.8,46.9,23.1,16.8,10.2,40.2,33.1,59.6,33.5,2.3,0,8.7-1.2,9.4-3.7s-13.6-27.6-16.4-30.3c-7.3-7.1-27.5-17.2-37.2-23.8-15.2-10.3-50.3-39.1-67.9-39.2-10.5,0-8.7,28.1-5.1,32.7h0ZM1319.7,1466.3c-5.9-5.9-24.1,4.1-30.4,7.6-16.2,8.9-31,21.4-46.2,31.8-12.7,8.7-30.1,15.7-38.6,28.4-2.2,3.4-10.8,17.7-11.4,20.7-1.1,5.3,6.2,6.5,10.3,6.3,16-.9,23.4-9.7,35.2-17.8,9.2-6.3,19.3-13.6,29-19,11.7-6.6,47.1-19.2,52.7-29.3,2.4-4.3,2.8-25.2-.7-28.6h0ZM1126,1664c-12-2.7-20.7,6.6-31.6,7.9-5.7.7-12.2-1.2-16.6-.7-7.1.8-22.9,12.1-31.2,14.9-14.8,4.9-30.2,4.7-45.1,0-8.8-2.8-23.9-14.1-31.2-14.9-4.4-.5-10.9,1.4-16.6.7-11-1.3-19.9-11-31.6-7.4,0,6.9,23.8,23.5,30,27,12.5,7.1,59.8,26.8,72.5,26.6s59.9-19.8,72.2-26.9c10.3-6,24.6-16.2,29.3-27.2h-.1Z" fill="#aaaaaa" style="opacity: 0.5" opacity="0.5"/>
  <path id="outline-jaw" d="M676,1140c5.2-3.1,18.7-3.2,19.1,4.5,0,2.3-.8,11.2-1.1,14-.3,3-.9,8.4-2.1,10.9-2.5,4.9-17.3,13.6-20.1,19.9-1.2,2.6-6.4,25.9-6.7,29.3-.2,1.7,0,2.8.4,4.4,2.1,6.9,13.8,19.7,17.7,27.3,5.7,11,7.2,24.3,12,35s13.5,10.7,22.5,15.6,17.7,11.1,25.3,17.2c-3.1,0-6.3.2-9.4,0-7.7-.8-35.8-6.7-41.8-10-6.1-3.3-8.8-18.4-12.8-20.4-2.5-1.2-7,0-10.3-.7-6.7-1.2-9.9-7.8-17.5-1.5-6.7,12.4-14.3,24.3-20.4,37.1-7.4,15.4-14.8,25.1-4.8,41.2,5.2,8.4,23.4,27,25.6,34.4,2.5,8.4-2.4,27.4,2.4,33.6,5.4,6.9,20.6,5.2,27.7,1.7,11.1-5.5,9.2-10.1,14.9-19.1,5.3-8.3,20.9-24.3,30.4-26.7,7.7-1.9,12.3,10.3,14,16,4.9,15.9,2,31.2,13.9,44.1,1.1,1.2,9,8.5,10,7.5-.8-5.6,4.8-8.4,6.5-13,3-7.9-3.1-20.6-5-29-2.8-12.3-5.1-24.7-8-37-1-4.1-6.2-19.9-5.4-22.3,1.2-3.8,23.7-9.1,24.9-10.7.4-.5-2.9-8.7,0-12.6,1.3-1.8,8.8-6.8,11.1-8.9,3.9-3.5,23.1-22.9,25.7-23.4,4.4-.8,5.2,2.4,8,3.6,5.1,2.1,10.8,2.5,15.7,4.3,1.1.4,2.4.5,2.5,1.9-11.2,6.3-23.6,13-34.3,20.2-2.7,1.8-16.6,11.8-17.6,13.4-1.6,2.6-2.2,9.7-2.2,12.9l3,44.5c-9.8-13.1-8.1-31.3-10-47-2.5,1.9-15.3,3.5-15.9,5.6,4.5,18.6,8.6,38.8,15.1,56.7,7.3,20.1,19.2,40.4,27.7,60.3,11.1,7.8,27.2-5.8,33-15,5.6-8.7,8.1-23.6,22.5-13.5,11,7.7,22.9,21.4,33.5,30.5,48.3,41.3,92.1,59.6,157.4,50.3,40-5.7,69.7-25.7,99.7-51.3,6.2-5.3,32.4-31.5,37.5-32.5,11.9-2.2,14.8,13.8,21.4,21.5,7.4,8.7,17.4,14.2,29.1,12,4.4-.8,21.2-8.4,26.3-10.7,9.2-4.2,20.3-11.4,27.2-18.8,10.4-11.3,8.4-24,12-38,1.7-6.6,6.3-23.8,15.5-21.6,10.7,2.6,27.2,21,32.6,30.4,1.7,3,2.2,6.8,3.9,9.1,6.3,8.5,28.5,13.3,36,5.1,5.6-6.1.4-25.5,2.9-34.1s20.4-25.8,26-35c9.4-15.8.8-28.3-6.5-43.3-5.8-11.8-13.2-22.7-19.2-34.3-7.1-5.6-12.2.4-18.5,1.5-2.9.5-6.9-.4-9.3.7-3,1.4-6.8,14.4-9.5,17.5-1.4,1.6-7.6,4.3-9.9,5.1-8,2.8-25.7,6.6-34.3,7.7-3.4.4-6.8.2-10.2.2,6.6-5.5,15.7-12,23.3-16.2,11.5-6.3,19.8-5.1,25.5-19.5,3.9-9.8,5.3-20.7,10.3-30.7,3.9-7.7,16.9-22.6,18.7-29.4.4-1.7.2-2.8,0-4.5-.6-4.4-5.6-25.6-7.2-28.8-3.7-7.3-19-15.9-20.5-21.5-.8-3.2-2.6-24.3-1.6-26.4,2.1-4.5,12.7-3.4,16.5-1,.5,1.9,4.4,14,5,14.5,6.2,5.3,26.1,4.1,26.1,17s-1.7,15.9.2,26.7c1.7,9.8,9.7,22.5,6.4,31-2.3,6-12,20.9-15.9,27.1-3.6,5.6-8.1,10.6-11.8,16.2,8.8.3,18.9-17.9,26.1-12.1,3.4,2.8,13.7,18.6,16.7,23.3,5.1,7.9,10.9,17.6,15.1,25.9,3.9,7.8,17.4,38.8,16.1,45.8-.2,1.2-13,15.6-15.2,18.8-10,14.2-21.3,32.5-25.7,49.3-1.9,7.2-2.7,14.7-4,22-1,1.4-27.6,11.9-31.1,12.9-10,2.9-17.2,1.5-24.9-5.4-.9,8.8-2.6,17.7-3,26.5s1.7,33.1-.8,39.2c-.6,1.5-11.3,15-12.5,15.5-6.3,3-15.7-1.7-24.7,3.3-22.6,12.7-18.8,48.5-26.9,68.1-6,14.6-40.4,52.5-54.6,59.4-1.2.6-2,1.3-3.6.9,1.2-14.7,3-35.1-3.9-48.6-.4-.8-.4-3.2-2.1-1.4-.7.7-3.6,13.8-6.6,17.9-8.6,11.7-30.9,6.8-39.2,20.8-5.2,8.9-7.6,22.3-13.4,30.6s-48.5,28.9-59.6,33.4c-15.1,6.1-64.1,21.2-78.8,21.2s-63.4-15.1-78.8-21.2c-11.1-4.4-55.3-26-60.6-34.4-6.9-11.1-8.5-31.6-21.5-37.6-14.4-6.6-26.5-2.6-33.9-20.1-1.1-2.5-2.5-10.3-2.8-10.7-1.3-1.6-1.8.4-2.2,1.3-1,1.8-4.8,14.6-4.8,16.2v30c0,.3,1.4,1.4,1,2.5-1.7.2-3-.3-4.4-1.1-15.2-8.7-49.8-45.6-54.8-62.2-6.2-20.6-5.2-52.1-25.9-65.1-8.2-5.2-18.3-.3-24.7-3.3-.9-.4-12.2-14.2-12.7-15.3-2.1-5.2-.2-29.6-.5-37.4-.4-9.1-2-18.5-3-27.5-4,1.6-7.6,4.7-11.9,5.6-2.8.6-5.6.7-8.5.3l-35.7-14.3c-1.5-7.3-2.1-14.8-4-22-4.3-16.8-16.4-36.3-26.5-50.5-2.2-3-13.9-15.8-14.2-16.8-1.1-3.6.8-8.3,1.8-11.8,5-18.6,17.3-42.1,27.6-58.4,2.5-4,17.5-26.2,20.1-26.9,6.2-1.8,15.2,12.1,22.3,12.8.7-.7-9.3-13.3-10.4-15.1-4-6.2-14.5-22.3-16.8-28.2-2.7-7.1,5.4-22.1,6.9-30.5,1.9-10,.2-18.4,1.3-27.7,1.2-11,17.6-11.6,25.8-15.7,2.1-4.7,2-9.6,3.2-14.8h.4v-.2ZM799,1627.5v-20c0-3.5,9.1-26.6,11.7-27.4,6.9-2.2,27.9,17.6,32.8,22.9,7.6,8.1,14.7,20,23,27,10.5,8.8,23.6,12.8,33.5,23.6,22.2,24.2,21.6,36,55.1,50.9,29.5,13.1,59.4,23.9,92.4,17.4,12.7-2.5,58.9-21.3,68.9-29.1,12.4-9.6,23.1-31.8,35.2-42.8,9.6-8.8,25.5-14.6,34.6-23.4,6-5.9,12.7-15.8,18.4-22.6,2.8-3.3,8.4-7.2,10.3-10.7,4.4-8.2,10.5-40.4,10.3-49.8-.3-12.5-3.5-25.3-4.2-37.8-17.1-12.8-20.5-.4-31.4,9.3-16.5,14.9-41.1,22.8-63,25-69.4,7-135.6,7-205,0-22-2.2-46.4-9.9-63-25-7-6.3-10.5-15.9-22-15.1-3.7.3-6,3.1-8.5,3.7-4.9,1-22.9-12.7-28.3-15.8-18.4-10.2-46.1-20.5-61.1-34.9-6.9-6.6-2.4-11.8-2.5-19.5s-3.8-23.4-6.8-30.2c-.5-1.1.2-1.5-1.7-1.3-9.4,1.3-19,20.2-19.3,28.8-.2,6.3,6.7,18.5,7.6,26.9,1.5,13.9-4.4,40.4,8.8,49.2,12.8,8.6,39.9,13.7,50.8,26.2,5.7,6.6,1.5,7.9.7,14.6-3.6,29.6,1.4,55.9,20.9,78.9.5.6,3.9,4,2,1h-.2ZM1248,1630c19.4-21.2,26.1-39.8,25-68.5-.3-7.8-4-21.4,0-27.8,4-6.1,20.2-13.6,27.2-16.8,15.2-7.1,31-7,32.7-27.3,1.3-14.8-1.6-26.3,2.5-41.5,3.4-12.7,7.8-13.2,2.5-27.5-2.8-7.7-9.2-17.6-18-18.4-5.5,13.3-7.4,26.1-7,40.5,0,3,2.2,4.9,0,8.1-1.5,2.2-16.5,12.2-19.8,14.2-9.2,5.7-59,28.5-60.9,35.1-2.7,9.4,7.3,31.3,8.6,41.6l-10,40.5c2.4-1.4,5-2.6,7.9-1.9,6.7,16.4,13.1,31.6,9.1,49.9v-.2h.2ZM780,1448c-2-1.4-5.5,2.6-5.8,4.7-.9,5,7.2,15.1,12.8,15.2-.9-2.6-6.1-19.4-7-20h0Z" class="outline" fill="#000000"/>
    </g><g class="trait-group" data-category="mouth" id="mouth-cracked scrappy">
      <path id="fill-muzzle-1" fill="#ffffff" d="M1038 1292s-.4 1.7.7 2c10.3 2.8 18 4.3 25.8 13 1.9 2.2 4.9 8.8 6.5 9.5 2.6 1.2 6.6 0 9.5.5 11.4 1.5 21.2 3.7 31.2 9.8 2.1 1.3 9.2 7.8 10.2 7.1.3-.3 0-1.7 0-1.9 2.4-1.8 32.7.6 38 1 5.2 4.2 13.2 5.5 19.2 8.3 13.7 6.4 22.5 16.1 29.9 29.1 8.4 14.6 7.7 17.8 3.1 33.4-2.5 8.5-4.8 21.8-16.3 20.2 1.5-15.5-14.8-32.4-26.5-41-3.2-2.4-11.3-7.2-6 0 10.7 14.6 20.5 15 21.5 37.5.5 10.4-8.3 32.8-15.4 40.5-.6.7-7.1 6.3-7.6 6.5-3 1.6-6.8-6.1-7.8-8.2-3.7-7.7-4.8-15.6-9.7-23.3-1.1-1.7-10.8-13.7-12.4-12.1 5.6 13 9 46.2-2.5 56-4.4 3.7-9.4 1.9-13.3 3.7-2.8 1.3-3.1 5.8-4.8 6.2-.9.2-7.2-3.2-9.4-3.5-9.3-1.3-13.1 17-18.7 17.4-2.5.2-10.7-11.9-18.4-9.4-6.8 2.2-15.3 20.6-23.6 23.5-7.3-4.5-4.2-14-6.6-21.1-1.2-3.5-4.2-6.7-5.8-10.2-5.4-12.7-2.8-19.9-.2-32.2.7-3.3-.2-6.3 1.2-9.8.4-1 6-11.5 6.6-12.4 3.7-5.4 19.2-12.4 22.7-3.8.9 2.2 0 8.7 2.2 7.7 5.1-4.9 10.2-9.9 15.5-14.5 10.2-8.9 12.8-8.2 19.5-21.5 1.9-3.8 8.1-17.3 8.2-20.7.2-6.3-17.9-22.6-21-29-3.6-2.9-22.1-2.8-27.2-2.3-14.1 1.5-18 12.2-27.5 19.5-1 .8-1.3 1.9-3 1.5l.8-12.7c7.6-8.2 14.9-16.6 21.1-26 .7-3.3-8.6-12.4-11.3-13.2-3.6-1 .5 5.5.5 6.6.4 5.2-5.9 4.1-9.3 5.6-1.2.5-3 2.7-3.2 2.7s-2-2.2-3.2-2.7c-8-3.5-11.7.6-7.3-12.2-1.6-1.7-12.5 9.1-12.9 11.7-.2 1.6 3.6 7.8 4.8 9.5 1.5 2 5 5.9 7 8.3 3.2 3.9 9.7 7.7 9.9 13.1 0 1.6-.8 3.1-.8 4.8s2.6 8.1-2.5 3.6c-6.2-5.3-10.1-13.6-18.5-17.5-6.8-3.1-28.3-4.1-34.7-.8-.8.4-9.9 11.1-11.2 12.8-2.4 3-10.9 13.7-10.8 16.8.2 5.1 11.2 27.9 14.7 32.2 2.8 3.4 10.2 7.7 14 11 5 4.3 9.7 9.1 14.5 13.5 2.2.9 1.5-5.2 2-7 2.4-9.9 19.2-2.4 23 3.1.7.9 6.6 13.1 6.9 14.1 2.9 11 5.6 26.6 1.9 37.5-1.7 4.9-6.8 10.4-7.8 15.2-1.4 6.6 1 13.6-5 19-5.3 1.2-18.8-21.7-24.4-23.5-8.2-2.6-15.9 9.6-18.4 9.4-5.3-.4-8.7-14-13.9-16.1-6.9-2.8-11.5 2.7-14.1 2.1-1.8-.4-2-4.8-4.8-6.1-4.5-2-9.6.3-14.3-4.7-10.9-11.5-6.5-42.2-1.5-56.1-9.1 6.7-14.1 14.8-18.5 25-1.6 3.6-2 7.5-3.7 11.3-1 2.1-4.9 9.8-7.8 8.2-.4-.2-6.9-5.8-7.5-6.5-4-4.2-13.8-24.3-15-30-2.8-12.9 1.4-26.5 9.5-36.5 4.1-5.1 11.3-9 13-15.5-2.4-2.4-22.3 17.4-24.4 20.1-5.4 6.8-11 15.9-9.6 24.9-4.7.2-8.1-.7-10.8-4.7-1.8-2.7-8.8-24.3-9.2-27.8-1.1-10.9 10.9-28.8 18-37 10.5-12.2 24.5-14.2 38-21.5 12.5-.8 24.5-2.3 37-1 0 0 .7 2.1.5 3 9.5-8.2 20.6-14.8 33.1-16.9 4.7-.8 14.8-.4 18.1-1.8 1.6-.7 5.2-7.7 7.2-9.9 8-8.4 15.2-9.7 25.4-12.5 1.1-.3.6-1.9.7-2 1.1-.7 25.9-.7 27 0Z" class="fill" data-original-prefix="fill"/><path id="fill-teeth16" fill="#ffffff" d="M995.3 1525.7c11 9.5 17.2-6.6 23.2 6.3 6.5 14.1 3.7 38.4-1 52.9-.7 2.1-7.1 16.9-8 17.1-1.2.3-3-.4-4.2-.9-12-5.1-31.7-18.1-39.1-28.9-10.6-15.5-6.4-42.9 6.8-55.8 1.3-1.3 9.1-5.6 10.4-5.3 1.5.3 9.4 12.3 12 14.5h-.1Z" class="fill" data-original-prefix="fill"/><path id="fill-teeth15" fill="#ffffff" d="M1039.1 1601.9c-.8-.5-7.5-16.1-8.1-18.4-4.1-13.8-6.5-36.9-1.3-50.3 4.6-12 8.1-4.3 15.8-4.2 9.5.2 17.3-18.2 20.8-17.9 1.2 0 8.5 4.2 9.7 5.3 6.3 6.2 12.2 22.3 13 31 2.4 28-20.3 39.6-41.3 50.7-2 1.1-5.7 5.5-8.6 3.7Z" class="fill" data-original-prefix="fill"/><path id="fill-teeth14" fill="#ffffff" d="M904 1461c0 2.2-1.1 3.8-.8 6.2.2 1.8 7.1 22 8 23.1 3.9 5.1 11.2 3.2 16.7 3.8 4.9 13.5-4.2 23.8-8.6 35.6-2 5.3-8.7 33.1-12.8 34.2-1.8.5-6.8-9.1-8.3-10.7-10.3-23.9-15.3-58.4-2.6-82.2.6-1.2 7.1-11.6 8.4-10.1Z" class="fill" data-original-prefix="fill"/><path id="fill-teeth13" fill="#ffffff" d="M1144 1564c-2.1 1.4-6.1-7.1-6.8-8.7-3.2-7.9-4.4-17.4-7.5-25.5-4.3-11.6-13.6-22-8.6-35.6 4.8-.6 12.3 1.2 15.9-2.9 1.3-1.5 8.1-20.6 8.6-23.2.3-1.8-1.4-7 .9-6 6 2.7 13.7 26 14.4 32.6 1.4 13.9-2.9 45-9.3 57.4-.8 1.5-7 11.6-7.6 11.9" class="fill" data-original-prefix="fill"/><path id="fill-teeth12" fill="#ffffff" d="M1093.1 1644.9c-2.9-1.8-2.4-28.5-2.1-33.4.7-10.5 5.2-31.2 8.9-41.1 1.1-2.8 2.4-1.4 4.2 0 12.2 9.6 21.1 44.8 12.8 57.9-1.9 3-15.6 14.9-18.9 16.1-1.3.5-3.8 1.1-4.8.4Z" class="fill" data-original-prefix="fill"/><path id="fill-teeth11" fill="#ffffff" d="M949 1569c5.5 22 11.1 44.4 9 67.5-.5 5.2-.9 10.3-7 8-3.4-1.3-17.5-13.4-19.5-16.5-5.8-9.2-1.4-31.3 2.7-41.2 1.2-2.9 11.3-21 14.8-17.7Z" class="fill" data-original-prefix="fill"/><path id="fill-teeth10" fill="#ffffff" d="M881.7 1478.3c3.1 2.8-2.7 21-2.8 26.2 0 5.9 2.6 12.4 3.1 18 .2 2.1.7 24.5-.5 24.5-1.5.2-2.1-1.1-2.9-2.1-15.6-18.9-34.8-51.8-17.4-75.3 6.5-8.8 10.5 2.1 14.9 5.8 1.8 1.5 4.9 2.1 5.7 2.8Z" class="fill" data-original-prefix="fill"/><path id="fill-teeth9" fill="#ffffff" d="M1185.7 1467.3c1.9 1.6 7.8 13.7 8.2 16.2 3.2 20.7-9.8 47.3-23.9 61.9-.9 1-1.3 1.9-3 1.5.5-8-.7-16.6 0-24.5.4-5.4 3.1-12.3 3.1-18s-6.1-23.4-2.8-26.2c.6-.6 2.5-.6 3.8-1.7 3.4-3 10-13.1 14.7-9.3Z" class="fill" data-original-prefix="fill"/><path id="fill-teeth8" fill="#ffffff" d="M1018 1613v16.5c0 .9-10.8 13.2-11.9 14.1-6.3 4.8-8-2.6-10.6-5.5-5.5-6-17.9-.4-24.4-5.6-1.2-.9-4.1-8.8-4.1-9.9v-22.5c12.9 1.7 28.3 17.5 41.4 15.9 3.5-.4 6.1-3 9.6-2.9Z" class="fill" data-original-prefix="fill"/><path id="fill-teeth7" fill="#ffffff" d="M1031 1613c6.3 1.3 9.1 4 16.1 2.6 10.6-2.2 24.3-14.8 33.4-15.6 2-.2 1.4 0 1.2 1.3-.8 6.5 2.4 27.5-4.4 31.6-7 4.2-18.8-.3-23.4 4.6-2.1 2.2-3.6 8-8.4 7.6-1 0-14.6-13.5-14.6-14.6V1613z" class="fill" data-original-prefix="fill"/><path id="fill-teeth6" fill="#ffffff" d="M1102.5 1494c3.3-.8 4.5 6.9 5.3 8.7 5.6 12.1 13 24.8 13.3 38.8.2 9-16 29.8-21.3 16.2-4-10.4-4.1-44.8-1.1-55.5.4-1.6 2.4-7.9 3.8-8.2" class="fill" data-original-prefix="fill"/><path id="fill-teeth5" fill="#ffffff" d="M937.3 1559.7c-1.9-1.6-7.8-10.5-8.5-13-3.6-12.1 6-31.3 11.4-42 1.6-3.1 3.3-14.7 8-7.4 5.5 8.5 4.3 41.5 2.7 52.1-1.2 7.7-3.6 18.7-13.6 10.3" class="fill" data-original-prefix="fill"/><path id="fill-teeth4" fill="#ffffff" d="M917 1563c-1.8 13.4 2.9 27.5 2 40.5-.6 9-4.4 18.4-5.5 27.5-6.2-6-10.5-16.1-11.4-24.6-.5-5.2.7-24.7 2.4-29.3.6-1.6 10.5-16.2 12.4-14.1Z" class="fill" data-original-prefix="fill"/><path id="fill-teeth3" fill="#ffffff" d="M1135 1631c-.4-8.9-4.4-17.8-5.1-26.5-1-13.8 3.7-27.6 2-41.5 2.2-2.4 11.9 13 12.5 15 2 6.6 2.6 27.4 1.2 34.3-1.3 6.3-5.5 14.9-10.8 18.7z" class="fill" data-original-prefix="fill"/><path id="fill-teeth2" fill="#ffffff" d="M1154.1 1604.9c-3.4-2-5.1-22.3-3.9-26.2.8-2.6 8.9-5.2 10.2-8.8l5.1-10.9c3.8 3.4 5.1 7.2 4.3 12.2-.7 4.2-5.4 22.7-6.9 26.2-.9 2.2-6.1 9-8.8 7.5" class="fill" data-original-prefix="fill"/><path id="fill-teeth1" fill="#ffffff" d="M885 1559c-.3 3.7 1.7 9.4 4 12.2s9.5 5.2 10 8.3c-2 8.4 1.6 19.2-5.7 25.4-3.6-1.1-6-4-7.4-7.4s-6.5-23.6-6.9-27.1c-.5-4.2 1.2-10.6 5.9-11.4z" class="fill" data-original-prefix="fill"/><path id="shading-mouth2" fill="#aaaaaa" d="M918 1443.5c.8 5.3 5.6 13.8 10.1 16.9 11.5 8.3 16.2-.3 22.4-9.4 2.5 5.4 3.4 11.5 6 17 1.4 2.8 5.7 12 7.5 5.5l4-11.5c1.6 7.5 6.3 15.4 11.5 21 4.3 4.7 18.8 15.4 24.6 9.6 2-2.1 8.3-17.9 10.8-22.2 1.2-2.2 7.8-13.8 9.7-13.3 1 .2 8.5 13.2 9.7 15.3 2.4 4.5 7.3 17.7 9.8 20.2 3.8 3.8 10.5.4 14.4-1.8 10.5-5.9 18.5-17.2 21.7-28.8l4.2 12.3c.3 1.2 1.9 2.4 2.8 1.7.6-.4 5.8-11.3 6.5-13 .8-2 2.8-12 4-12 6.8 10.7 12.9 18.4 24.5 7.5 8.6-8 9.3-23.8 7-34.5 3.5-3.1 21.1 16.1 26.6 16.9 9.1 1.4 17.6-11.8 19-19.9 3.5-20.5-12.9-39.2-30.9-46.2l-12.7-4.8c15.4 0 28.2 2.9 41.1 11.4 4.8 3.1 12.2 10.9 17.6 11.4 6.2.6 10.1-4.1 10-10-.4-19.3-25.8-38.1-39.7-48.8 15.4 2.4 34.6 11.8 45 23.5 7.8 8.8 19.1 25.1 19.1 37s-6.4 28.5-9.2 32.8c-3.3 5.3-11.7 5.4-13.4 10.6-.9 8.1-2.1 16.4-2.5 24.5-1.5 29 1.4 45.2-10.8 73.2-3.6 8.2-12.7 20.4-14.9 27.1-4.2 12.8-.7 26.4-9.1 38.9-3.2 4.8-8.4 6.7-11.2 10.8-1.7 2.5-2.4 6.1-4.2 8.8-4.5 6.7-14.6 23-21.6 8.9-1.6-3.3-1.3-12.9-6.7-6.2-1.4 1.7-1.9 4.4-3.5 6.5-3.7 4.7-17.7 19.6-23.5 19.5-2.2 0-4.5-4.1-6.6-5.4-7.9-5-21.1-6.3-29.2-1.4-7.3 4.4-9.5 13.6-18.1 6.8s-6.4-10.8-20.1-9c-5.6.7-11.4 12.6-16.9 12.1-2.8-.2-11.4-11.1-18.5-12.6-6.3-1.3-17.5.7-23 4.2-2.6 1.7-4.1 5.6-7.5 5.4-5.7-.3-19.8-15.8-23.6-20.5-1.2-1.5-4.4-10.6-7.1-6.9-2.5 3.4-.6 9.9-7.2 12.7-7 3-14.9-11.2-18.1-16.4-1.2-1.8-1.2-4.3-2.6-6.4-2-3-6.8-5.4-9.5-8.5-10.4-11.9-6.7-27.7-10.7-41.3-.8-2.6-5.6-8.5-7.3-11.7-18.4-35.7-16.4-45.6-18.4-84.6-.4-7.7-.6-20.7-2.2-27.8-1.5-6.2-11.1-6.1-14.2-11.8-3.4-6.1-9.3-29.6-8.6-36.4 1.2-10.3 16.2-31.2 24-38 10.5-9.2 26.2-16.5 40-18.5l-21.5 17c-7.2 6.4-26.8 32-14.8 39.9 9 5.9 16.7-4.5 23.7-9.1 12.7-8.4 25.3-11.8 40.7-11.8l-17.3 7.2c-18 9.4-33.1 32.7-22.1 52.8 1.7 3.1 8.6 10.4 12 11.1 9.1 1.7 20.7-15.4 29.5-18 .6 6.4-.9 14.3 0 20.5zm-37.1 40.6c-12.3-.5-17.1-20.2-22.8 1.5-3.4 13 1.2 26.4 9.4 36.5 1.5 1.8 12.7 13.1 13.9 12.9.8 0 2.5-2.3 2.8-3.2 2.9-7.1-3.2-12.2-4.2-19.2-1.5-9.8 0-18.7.9-28.4Zm301.8-8.9c-3.2.8-6.3 6-8.8 7.3-2.1 1.1-7.2 1-7.8 3.2-.5 1.7 3 10.8 2.9 14.8 0 3-1.5 13.9-2.2 16.8-.9 3.6-3.9 5.7-3.9 10.2s1.4 7.1 3.7 7.4c1.9.3 15-14.4 16.8-17 5.7-8.5 9-18.8 7.3-29.2-.5-3-4.4-14.5-8-13.6Zm-284.8 10c-4-2.3-6.5 9.9-6.8 12.5-1.2 10.5 3 38 8.7 47.1 1.9 3 5.4 6.9 9.2 7.3 3.7-15.6 12.6-29.2 21-42.5-2.3-.4-1.7-2.9-2.7-3.5-1.5-.9-7-1.9-9.7-3.1-4.7-2.2-12-7.7-15.6-11.4-1.2-1.2-3.8-6.2-4.2-6.3ZM1139 1552c8.3-2 11.9-12.2 13.9-19.6 3.1-12.1 6.1-33.4 1.1-44.8-3-6.9-5.8 1.7-8.3 4.1-3.9 3.8-11 9.3-16 11.6-2.5 1.1-7.8 1.8-9.1 2.7-.7.5-.5 1.8-1 2.7-.3.4-1.7.4-1.6.9 0 1 7.9 12.3 9.2 14.8 4.8 8.8 9.1 18 11.8 27.7Zm-197.7 5.7c8.1 8.1 9.5 0 10.5-7.3.8-5.6 2.7-20.6 1.7-25.4-3.6-17.2-21.3-15.9-21.6 3.6 0 6.8 4.6 24.3 9.4 29.2Zm161.5-44.5c-5 1.3-8.5 9.3-8.8 14.2-.2 4 2.4 28.5 3.8 31.3 2.5 5 7.5 0 9.8-2.7 6.8-8.3 11.6-30.7 4.5-39.5-2.7-3.3-4.8-4.4-9.2-3.3zM1023 1544c-.7-.7-.8-7-5.1-9.4-8.9-5-21.8-.8-32-4-10.4-3.3-9.4-13.1-16.1 1.8-2.9 6.4-9.1 24.4-6.3 30.7 1.1 2.4 17.8 15.6 21.2 17.8s18.2 11.7 21.1 10c3.1-5.6 9.3-9.5 12.6-14.9 1.8-2.8 4.1-11.5 4.6-11.9 1.6-1.7 1.7.5 2.1 1.4 1.6 3.6 2.1 6.8 4.5 10.5 3.3 5.2 9.2 9.3 12.4 14.6 3.1 1.9 15.5-5.9 18.9-8.1 4.5-2.9 22.9-17 23.9-21.1 2.2-9.7-6.6-28.3-10.9-37.2-4.9 1-7.8 5.2-12.7 6.7-9.2 2.8-28.2-1.6-33.7 6.3-.9 1.2-2.6 8.9-4.5 7zm-136 18c-.7-.6-3.5 0-4.5.9-6 6.2 2.4 31.6 14.6 27.6 4-1.3 3.8-9.4 2.8-12.9-1.1-3.9-7.2-4.1-9.8-7.2-2.1-2.5-2.7-8.2-3-8.5Zm274.1 0c-.3.3-.9 6-3 8.5-2.6 3.1-8.7 3.3-9.8 7.2-1 3.4-1.2 11.6 2.8 12.9 13.4 4.4 20.2-24.5 14.1-28.1-.9-.5-3.5-.9-4-.4Zm-216.4 7.2c-1.5.4-5.1 4.6-6 6.1-3.4 5.6-5.6 32.3-4.8 39.3 1.3 10.9 15.2 18 19.5 3.5 1.7-5.6 2.6-21.4 2.5-27.6 0-1.1-5.8-19.7-6.5-20.5-1.2-1.4-3.2-1.3-4.8-.8Zm153.3-.1c.2 6.6-5.4 14.7-6 20.6-.5 4.5 1 25.3 2.4 29.4 4.2 12.1 16.9 7.3 19.1-2.9 1.1-5.2 0-16.8-.6-22.6-1-9.7-1.7-25.5-14.9-24.5m-180 1.9c-20.5 3.8-17 28.7-9 43 4 2.9 10.4-17 10.7-19.8.9-7.5-2.9-15.5-1.8-23.2Zm218 43c2.5 1.8 7.2-9.1 7.7-10.8 3.9-12.8 1.6-30.1-13.7-32.2.5 7.4-2.8 16.2-1.9 23.4.3 2.7 6.4 18.5 7.9 19.6m-148.2 10.2c1.4.8 4.8 8.6 9.5 11 11.1 5.8 20.2-6.4 20.7-16.7.8-13.7-7.2-7.7-16.5-8.6-8.4-.8-15-4.8-21.8-9.2-5.5-3.5-13.6-14.6-14.7-1.4-.5 5.1 1.4 7.5 1.8 11.2s-2 5.9.5 10.7c4.8 9.3 18 1.3 20.7 2.8zm93.1-31.1c-2.1-1.5-19.7 12.7-23.9 14.4-2.3 1-7.9 2.3-10.5 2.5-10.5.9-18.8-5.4-16.4 11.4 1 7.3 7.9 15.8 16 15.1 9.4-.8 11.9-11.6 14.6-12.4 4-1.3 12.3 5.7 18.9-1.1 4.3-4.4 1.3-8.4 1.5-12.5 0-2.3 1.9-4.8 2-8.1 0-1.9-.8-8.5-2.2-9.4Z" class="outline shading" data-original-prefix="shading" opacity="0.5" style="opacity: 0.5"/><path id="shading-mouth1" fill="#aaaaaa" d="M1041 1343c6.1.5 12.7-1 17.5-5 1.5-1.3.9-3.7 2.8-2.9 10.1 7.9 37.9 17.4 43.8 28.2 3.6 6.5 4.6 17.5-1.8 22.6-5.6 4.5-20.8 10.8-28 15-4.9 2.8-9.7 6.6-14.7 9.3-7.4 4.1-25.5 14.5-32.6 16.4-2.9.8-5.2.8-8.1 0-14.5-3.8-42.2-22.5-56.3-30.7-6.2-3.6-21.2-9.1-23.2-15.8-5.5-18.4 15.7-28.3 28.7-35.4 2.3-1.2 15.5-8.6 16.5-8.7 2.9-.3 4.2 2.9 6.7 4.2 4.2 2.3 10 3.2 14.7 2.8-.3-5.1-3.3-11.3-1.8-16.3.5-1.6 12.5-13.9 14.5-14.4 3.9-1 8.2-.3 11.6 1.9 1 .7 10.8 11.1 11.2 11.8 2.1 5-1.2 11.8-1.5 17" class="outline shading" data-original-prefix="shading" opacity="0.5" style="opacity: 0.5"/><path id="outline-mouth3" fill="#000000" d="M889 1333c-13.5 7.3-27.4 9.4-38 21.5-7.1 8.2-19.1 26.1-18 37 .3 3.5 7.3 25.1 9.2 27.8 2.7 4 6.1 4.9 10.8 4.7-1.4-9 4.2-18.1 9.6-24.9 2.1-2.6 22-22.5 24.4-20.1-1.7 6.5-8.8 10.4-13 15.5-8.1 10-12.3 23.6-9.5 36.5 1.2 5.7 11 25.8 15 30 .7.7 7.1 6.3 7.5 6.5 3 1.5 6.9-6.1 7.8-8.2 1.7-3.8 2.1-7.7 3.7-11.3 4.4-10.2 9.4-18.4 18.5-25-5.1 13.9-9.5 44.6 1.5 56.1 4.8 5 9.9 2.7 14.3 4.7 2.8 1.3 3 5.7 4.8 6.1 2.6.6 7.2-4.9 14.1-2.1 5.2 2.1 8.6 15.6 13.9 16.1 2.5.2 10.2-12 18.4-9.4 5.6 1.8 19.1 24.8 24.4 23.5 6.1-5.4 3.7-12.4 5-19 1-4.8 6.1-10.3 7.8-15.2 3.7-10.9 1-26.5-1.9-37.5-.3-1.1-6.2-13.2-6.9-14.1-3.8-5.5-20.6-13-23-3.1-.4 1.8.2 7.9-2 7-4.8-4.4-9.5-9.2-14.5-13.5-3.8-3.3-11.2-7.6-14-11-3.5-4.3-14.5-27.1-14.7-32.2 0-3.1 8.4-13.8 10.8-16.8 1.4-1.7 10.5-12.5 11.2-12.8 6.4-3.2 28-2.3 34.7.8 8.4 3.8 12.4 12.1 18.5 17.5 5.2 4.5 2.5-1.7 2.5-3.6s.9-3.2.8-4.8c-.2-5.4-6.7-9.2-9.9-13.1-2-2.4-5.5-6.3-7-8.3-1.2-1.7-5.1-7.9-4.8-9.5.4-2.6 11.3-13.4 12.9-11.7-4.4 12.8-.7 8.7 7.3 12.2 1.2.5 3 2.7 3.2 2.7s2-2.2 3.2-2.7c3.4-1.5 9.7-.4 9.3-5.6 0-1.1-4.1-7.6-.5-6.6 2.8.8 12.1 10 11.3 13.2-6.2 9.4-13.5 17.8-21.1 26l-.8 12.7c1.7.4 2-.7 3-1.5 9.5-7.3 13.4-18 27.5-19.5 5.1-.6 23.6-.6 27.2 2.3 3.2 6.4 21.2 22.7 21 29 0 3.4-6.3 16.9-8.2 20.7-6.8 13.3-9.3 12.6-19.5 21.5-5.3 4.6-10.4 9.6-15.5 14.5-2.2.9-1.4-5.6-2.2-7.7-3.4-8.6-19-1.6-22.7 3.8-.6.9-6.2 11.4-6.6 12.4-1.3 3.6-.5 6.5-1.2 9.8-2.6 12.3-5.2 19.6.2 32.2 1.5 3.5 4.6 6.8 5.8 10.2 2.4 7.1-.8 16.6 6.6 21.1 8.3-2.8 16.9-21.3 23.6-23.5 7.7-2.4 15.9 9.6 18.4 9.4 5.6-.5 9.4-18.8 18.7-17.4 2.2.3 8.4 3.7 9.4 3.5 1.7-.4 2-4.9 4.8-6.2 3.9-1.8 8.9 0 13.3-3.7 11.5-9.9 8.1-43 2.5-56 1.6-1.6 11.3 10.4 12.4 12.1 4.9 7.6 6.1 15.6 9.7 23.3 1 2.1 4.8 9.8 7.8 8.2.4-.2 6.9-5.8 7.6-6.5 7.1-7.7 15.9-30.1 15.4-40.5-1-22.4-10.8-22.9-21.5-37.5-5.3-7.2 2.8-2.4 6 0 11.8 8.6 28 25.5 26.5 41 11.4 1.6 13.7-11.7 16.3-20.2 4.6-15.6 5.3-18.8-3.1-33.4-7.4-13-16.3-22.7-29.9-29.1-6-2.8-14.1-4.1-19.2-8.3 9.3.7 19.7 2.8 29.2 5.3 7.4 1.9 14.4 3.9 20.7 8.3 3.2 9.3 27.6 34.6 28 42 .2 3.9-8.4 23-10.2 28.7-2.4 7.4-1.3 15.8-9 20-2.1 1.1-8.8 2.4-9.5 3-3.6 3.6-1.9 26-2.2 32.3-1.2 29.7-2.2 52.7-20.5 77.5-.9 1.2-2.6 1.5-3.6 2.7-4.3 5.6-2.8 18.6-4.3 26.5-1.1 6-5 13.1-5.6 18.4-.4 3.6 1.4 7.3.2 10.1-1 2.4-9.9 8-12.6 9.5-2.2 1.2-5.7 1.5-6.5 2-.6.4-5.4 10.9-7.2 13.3-2.1 2.7-11.1 11.3-14 12.1-4.1 1.2-7.9-10.3-9.9-13s-2.3 2.3-3.6 4.3c-4.3 6.7-25.1 26.6-32.4 28.6-1.7.5-3.3.7-5 .5-.2-6.5 3.6-11.9-3-16.5-7.6-5.2-17.7 0-21.5 7.4-4.2 8.3-1.8 29.9-14.4 16.5-7.1-7.5-13-17.8-18.5-26.4-2.8 5-19.9 30.6-24 31-5.8.6-5.9-11.5-7.2-15.8-2.5-8.5-10.5-17.7-20-14.4-12.1 4.1-4.7 16.7-6.3 18.2-6 1.1-9.7-4.5-15-5-1.3 6.3-5.2 11.9-5.1 18.5.2 11.2 13.9 23.7 10.9 33.8-.8 2.7-3.4 3.2-5.5 1.4-3.7-3.3-7.9-17.8-10.4-23.1-3.8-8-11.3-14.9-9.4-23.7 1-4.7 7.9-13.9 7.6-17.4-.5-5.3-12.8-12.5-12-18.6-1.2-.2-1.3-.3-2.1.6-2.1 2.7-6.2 14.3-10.2 13.3s-12-10.2-13.7-12.4c-2.1-2.7-6.6-12.8-7.2-13.2-.7-.5-4.2-.8-6.5-2-2.5-1.3-12.6-7.8-13.2-9.9s1.2-6.2.8-9.7c-.6-5.1-4.5-11.5-5.6-17.4-1.7-8.4.3-19.9-3.9-26.1-5.9-8.8-10.5-12.8-15.3-23.7-13.6-31.3-7.5-52.3-10.1-83.9-.8-9.9-3.8-5.3-10.8-9.3-8.2-4.6-6.8-13.1-9.3-20.7-1.9-5.9-9.7-21.8-10-26.1-.2-3.3 1.1-4.7 2.5-7.3 6.8-12.4 18.9-24.3 26.1-36.9 5.9-4.3 13.2-6 20.1-7.9 9.7-2.6 19.8-4.7 29.2-5.3Zm15 128c-1.4-1.5-7.8 8.9-8.4 10.1-10.6 19.9-8.6 50.8-1.8 71.7 1.1 3.3 9.4 22.1 12.8 21.2 4.4-1.1 10.8-28.9 12.8-34.3 4.3-11.7 13.6-22.1 8.6-35.6-4.8-.6-12.2 1.2-15.9-2.9-1.4-1.5-8.5-21.7-8.8-24s.8-4 .8-6.2Zm240 103c.6-.4 6.8-10.5 7.5-12 6.2-12 8.8-32.9 9.5-46.5.8-15.3-4.1-32.2-14.6-43.5l-2.2 9.8c-4.9 13.6-4.6 25.2-23.1 22.4-5.2 13.7 4.3 23.9 8.6 35.6 3.1 8.4 6 27.5 11.8 33.2.7.7 1.4 1.8 2.4 1.1Zm-262.3-85.7c-1-.9-4.6-2-6.6-3.9-4.2-3.9-7.8-13.1-14-4.7-13.3 17.9-4.1 44.9 7 61.7 1.6 2.4 11.5 15.7 13.3 15.7.5-8 1.2-16.5.5-24.5-.4-5.4-3.1-12.3-3.1-18s6-23.3 2.8-26.2ZM1167 1547c1.7.4 2-.5 3-1.5 17.5-18 32.6-50.9 18.4-74.4-6.5-10.8-10.8-.4-16.9 4.9-2 1.7-5 1.6-5.5 4.5-.8 4.5 4 18.3 4 24s-3.3 14.8-3.6 21.2 1.6 14.6.6 21.3m-219.1-51.9c-4.7-3.3-6.5 7.1-7.7 9.6-5.3 11-11.8 23-12.2 35.8-.2 7.6 10.5 26.2 19.1 21 3-1.8 4.7-18 5-22 .4-6.4.2-41.4-4.1-44.4Zm67.8 32.2c-3.2-2.8-9.7 3.2-15.8 1.3-2.1-.7-8.7-7.5-10.5-9.5-2.6-2.9-3.4-8.8-8.2-7.4-12.2 3.5-20.5 24.1-21.2 35.9-.9 13.6 2.4 21.7 11.5 31.5 9.8 10.4 24 15.7 36.1 23h2.3c2.1-6.4 6.2-12 8.1-18.4 3.7-12.2 7.9-47.3-2.3-56.2zm23.4 74.6c1.1.7 3.4 0 4.6-.7 5.6-2.4 20.1-11.1 25.2-14.8 13.4-9.8 21.4-21.7 20.1-38.9-.9-11.9-9.2-33-22-36.1-4.4-1.1-5.5 5-8 8-1.7 1.9-7.3 7.9-9.2 8.8-9.2 4-14.3-9-20 5-5.4 13.2-2.6 37.5 1.5 51.1.7 2.2 7.1 17.1 7.9 17.6ZM885 1559c-3.2-3.3-6.4 8.4-5.8 12.3.7 4.5 5.4 23.4 7 27 1 2.2 6.2 8.5 8.7 6.7 3.4-2.4 3.2-20.7 4-25.4-.5-3.1-8.3-6.1-11-10-2.3-3.5-2.6-10.1-3-10.5Zm32 4c-1.9-2.2-11.8 12.5-12.4 14.1-1.7 4.6-3 25.2-2.4 30.3.9 7.9 5.6 18 11.4 23.6 1.4-8.8 5-18.6 5.5-27.5.8-13.1-3.7-27.1-2-40.5Zm218 68c7.1-5.4 12.1-18.8 11.8-27.5 0-2.6-1.7-5.2-1.8-8-.3-5.4.8-12.5-.5-17.5-.6-2.3-10.4-17.3-12.5-15 1.5 13.8-3.1 28-2 41.5.7 8.7 4.6 17.6 5.1 26.5Zm-35-62c-2.8 14.2-8.1 27.9-9 42.5-.3 5.3-1.4 33.3 3.6 34.4 2.4.6 18.8-13.3 20.9-15.9 8.3-10.5 3.8-32.3-1-44-1.2-2.9-11-19.9-14.5-17m-82 44c-3.5 0-6.1 2.5-9.6 2.9-12.7 1.6-29.1-13.9-41.4-16.9v24.5c0 .6 3.2 8.2 4.1 8.9 6.5 5.2 18.9-.4 24.4 5.6 2.6 2.9 4.3 10.3 10.6 5.5 1.1-.8 11.9-13.1 11.9-14.1v-16.5Zm64-13c-13.2 1.2-27.8 17.6-41.4 15.9-3.5-.4-6.1-3-9.6-2.9v17.5c0 1.1 13 14.6 15.4 14.5 4.9-.3 5.1-4.7 7.1-7 5.5-6 18.3-.4 24.4-5.6 1-.9 4-9.7 4-11v-21.5Z" class="outline" data-original-prefix="outline"/><path id="outline-mouth2" fill="#000000" d="M1122 1332c-.2 0 .2 1.6 0 1.9-1 .8-8.1-5.8-10.2-7.1-10-6.1-19.8-8.3-31.2-9.8-2.9-.4-6.9.7-9.5-.5-1.5-.8-4.5-7.4-6.5-9.5-7.8-8.7-15.6-10.2-25.8-13-1.1-.3-.6-1.9-.7-2 3.1-3.8 16.2-9.3 20.8-9.8 7.9-.9 5.5 4.4 6.5 9.1 2.3 10.7 9.3 19.6 21.3 18.8 5.1-.3 5.6-4 7.9-4.1 1.4 0 6.6 2.9 8.2 3.8 9.4 5.2 15 12.5 19.3 22.2z" class="outline" data-original-prefix="outline"/><path id="outline-mouth1" fill="#000000" d="M1011 1292s.4 1.7-.7 2c-10.2 2.8-17.4 4.1-25.4 12.5-2 2.1-5.6 9.2-7.2 9.9-3.4 1.4-13.5 1-18.1 1.8-12.5 2.1-23.6 8.7-33.1 16.9.2-.9-.5-2.8-.5-3 .7-2.3 8.9-13.5 11-15.5 2.4-2.4 14.7-10.5 17.6-10.4s3 5.1 11.9 3.9c10-1.3 16.2-10.1 17.5-19.6.4-2.6-2.4-6.7 2.8-8.2 3.5-1 21.7 5.6 24.3 9.8Z" class="outline" data-original-prefix="outline"/>
    </g><g class="trait-group" data-category="eyes" id="eyes-navigators">
      <defs/><path id="fill-eyes-skull" d="M1306.9 1006.8c-13.7 7.2-27.9 15.8-40 25.6-1.1.8-2.5 0-1.9 2.6 8.3-1.5 16.1-4.8 24.5-6 8.7-1.3 24.5-3.1 33-3 1.5 0 11.8.9 12.3 1.2 1.6.9 16.3 27.2 18.4 31.1 4 7.3 8.2 15.7 11.7 23.3 5.7 12.5 12.7 26.1 11 40.2l-22.1 10.1c-1.5.7-1 3.8-2.3 4.1-2.7.6-23.7-3.6-28.9-4.1-42.8-4.2-88.2-4.2-130.9-4.1-26.6 0-52.9 1.3-79.5 1 20-19.2 44-35.8 67.1-51.4 3.6-2.4 8.7-4.4 11.8-7.2.9-.7 3.3-2.2 1.6-3.4-31 12.5-59.9 29.4-89.8 44.2-6.6 4.5-8.7 12.7-13.4 18.8-35.1.4-70.6 2.2-105.8 1-7.7-.2-15.8-1.8-23.8-1.2-2.3-.7-8-12.4-10.7-15.3-5-5.3-39.4-22.2-48.3-26.7-6.6-3.3-38.7-19.5-43.2-19.8-.6 0-1.7-.3-1.5.5 27.3 19 56.1 37.2 80 60.5-26.2.3-52.3-.9-78.5-1-35.6 0-73.3-.2-108.9 2.1-17.6 1.1-35.1 3.8-52.5 6 0-1.1.4-2.9-.2-3.8-1-1.7-20.3-8.5-22.7-10.8-1.8-13.2 4.5-25.3 9.7-37 8.9-19.9 20.2-38.5 31.4-57.1 4 .5 8.8-1.2 12.3-1.2 8.5 0 24.3 1.7 33 3 8.1 1.2 15.5 4.5 23.5 6-4.9-5.7-11.8-10.2-18.1-14.4s-15.7-8.2-20.8-12.2c-1.3-1-2.9-2.1-3-3.9 0-1.5 4.1-10.8 5.1-12.9 16-32.3 84.7-79.8 116.5-98.5 93.2-54.7 233.8-53.4 326.2 2.4 32.8 19.8 104.9 69 116.8 105.2.4 1.3 1.7 5.2 1.2 6.1z" class="fill" fill="#ffffff"/><g id="fill-eyes" class="fill" fill="#ffffff"><path id="fill-eyes8" d="M795.8 1140.3c28.3-.6 57.5 2 85.6 5.8 25.3 3.5 69.5 10.7 89.6 26.4 21.9 17.2 39.3 55.5 26.2 82.1-8.5 17.3-25.9 40.5-37.3 56.7-15.4 21.8-38.8 56.7-61.8 69.2-93.1 50.5-204 10.9-245.9-85.2-9.4-21.7-8.6-30.5-6.1-53.8 2.3-21.5 7.7-50.4 15.5-70.5 4.3-11 8.3-14.3 19.2-18.8 27-11.1 84.5-11.3 115.1-11.9Zm-12 10c-21.1.7-46.5 1.4-67.3 3.7-72.2 8.1-73 112.8-44.3 161.3 30.4 51.4 104.8 87.8 163.8 75.2 63.1-13.5 90.4-48.9 125.8-98.2 20.8-28.9 43.3-56.4 21-92.6-17.3-28.1-49.2-39.4-80.4-43.6-38.3-5.1-79.9-7.1-118.6-5.8" class="fill" fill="#ffffff"/><path id="fill-eyes7" d="M1225.8 1140.3c33.5-1.6 79.3.8 112.7 4.7 13.6 1.6 38.9 7.4 45.7 20.3 11.3 21.3 19.6 78.7 19.9 103.2 0 11.4-11.7 35.1-17.6 45.5-45.4 80.7-143.3 110.1-227.2 71.2-21.8-10.1-29.6-19.5-44.3-37.7-19.3-23.8-51-66-64.2-92.8s4.1-64.4 25.7-81.7c27.9-22.4 112.8-31 149.3-32.7m-9 10c-10.3.4-21 .9-31.3 1.7-43.4 3.4-96.5 7.3-121 49-21.1 35.9 1.3 62.9 21.7 91.3 35.5 49.4 63.2 85.2 126.6 98.4 59.2 12.3 134-24.8 163.7-76.7 27.8-48.5 26.8-151.9-45-160-35.3-4-79.1-5-114.7-3.7" class="fill" fill="#ffffff"/><path id="fill-eyes6" d="m1139 1141-33.2 8.3-21.2 6.8c-38.8-3.2-84.1 4.1-122 0-5.6-.6-14.2-5.1-20.3-6.7-11-3-22.1-5.5-33.2-7.8l230-.5h-.1Z" class="fill" fill="#ffffff"/><path id="fill-eyes5" d="M637.9 1218.1c.7 1-2 23.1-3 23.7-4.5-.6-16.9.2-19.5-2.8s-2-22.4 1.6-24.6c2.3-1.4 17.2 3.1 20.9 3.7" class="fill" fill="#ffffff"/><path id="fill-eyes4" d="M1413.1 1241.9c-1.2-.8-3-20.5-3-23.7.6-.9 19.8-4.3 20.9-3.7 2.9 1.8 3.9 20.2 2.5 23.5-2 4.6-15.5 3.2-20.3 3.9Z" class="fill" fill="#ffffff"/><path id="fill-eyes3" d="m1042 1205-3.6 13.1c-10.1-3.1-19.1-2.3-29.3-.2-.5-3.6-3-7.9-3.1-11.4 0-2.3 0-1.2 1.5-1.5 11.2-2.3 23.2-.8 34.5 0" class="fill" fill="#ffffff"/><path id="fill-eyes2" d="M730.8 1163.3c30.7-2.5 65.6 3.5 96.7 1.7 46 3.6 120.3-1 147.3 45.7 17.8 30.8-18.3 78.3-38.3 101.3-39 44.9-89.2 83.1-152.5 67.5-74.3-18.3-123.1-70.5-118-150.1 2.5-39.8 25.2-62.9 64.8-66.2Z" class="fill" fill="#ffffff"/><path id="fill-eyes1" d="M1298.8 1163.3c46.4-.5 79.7 13.8 83.2 65.2 4 57.5-21.2 106.9-72.3 133.7-82.6 43.2-141.7 15-198.2-50.2-21.2-24.4-57.9-72.4-36.3-104.3 28.6-42.2 94.3-39.8 139.3-41.7 27.9-1.2 56.3-2.4 84.3-2.7" class="fill" fill="#ffffff"/></g><path id="outline-eyes15" d="M1371.5 1187c15.8 20.8 15.5 53.3 12.4 78.3-3.5 28.1-20.7 62.2-42.4 80.6-29.5 25.1-78.3 42.7-117 40.1-4.8-.3-30.8-5.2-33-8-1.1-1.5-.2-1.6.5-2.6 2.9-4.1 8-9.4 11.5-13.5 52.6-61.5 109.8-118.9 168-175Z" class="outline" fill="#000000"/><path id="outline-eyes14" d="M983 1229c.3.3 4.8-.2 6 0-.9 16.8-8 28.2-16.8 41.7-38.5 59.1-94.4 120.9-171.8 115.3-2.8-.2-19-2.7-19.5-4.6 55.7-67.3 117-129.7 180-190 3-1.4 7 3.8 9 6 5.4 5.9 11.3 15.4 12.7 23.3.3 1.9 0 8 .2 8.3z" class="outline" fill="#000000"/><path id="shading-eyes13" d="M948.5 1139c-.8-.2-9-11.1-11.5-13.5-50.3-47.6-115.6-76.4-179.7-100.3-5.5-2-29-7.5-31.3-10.6-2.9-4 2.2-9.9 4.6-13.5 27.2-39.6 72-78.2 113.1-102.9 30.2-18.1 63.6-34.2 98.3-41.2-12 12.1-28.8 18.2-42.9 27.6-25.7 17-51.7 48.9-68.1 74.9-3.8 6.1-18.6 31.3-18.8 37-.7 18.9 17.8 39 30.3 51.5 39.3 21 81 39.4 116.3 66.7L972 1139c-6.1-1.1-18.3 1.5-23.5 0" class="shading" fill="#aaaaaa" style="opacity: 0.5" opacity="0.5"/><path id="shading-eyes12" d="m1076 1139 13.2-24.3c35.2-27.4 77.1-45.7 116.3-66.7 7.5-5.6 25.1-28.4 27.8-37.2 4.8-15.3-1-24.5-8.1-37.5-16.5-30.1-47.7-69.7-76.3-88.7-14.2-9.5-31-15.2-42.9-27.6 31.9 6.4 62.5 20.8 90.7 36.8 45.1 25.7 89.8 63.8 119.7 106.3 2.5 3.5 9 10.9 5.3 14.7-3.2 3.3-24.9 8.2-31 10.5-61.1 22.6-111 44.7-162.2 85.8-10.5 8.4-21.5 16.6-29 28H1076Z" class="shading" fill="#aaaaaa" style="opacity: 0.5" opacity="0.5"/><path id="outline-eyes11" d="M834 1163c-8.3-1.4-9-.6-15 4.5-35 29.6-73.6 71.6-106 105-8.7 9-23.2 28.2-32.5 34.5-.8.6-1 1.4-2.5 1-2.5-7.6-7.4-14.1-9.7-21.8-6.7-21.9-8.3-63.1-.2-84.6 13.7-36 45.5-43.2 80.9-41.6l-10-3 9.5-2c21.9 1.2 50.7-5.5 71.9-2 3.9.7 11 6.7 13.5 9.9Z" class="outline" fill="#000000"/><path id="outline-eyes10" d="m1309 1156-17.5 5c-20.2-.4-40.3.8-60.5 1.5-46.6 43.1-90.8 88.6-134.7 134.4-2.1.6-2.6-.7-3.7-2-6.2-6.7-24.5-34.5-28-42.9-3-7.2-4.7-15.2-5.5-23 9 1.1 5.1-1.7 6.2-8.3 9.6-53.8 105.4-58.7 147.1-57.9 14.6-14.7 31.6-8.7 50.2-9.8l46.4 3.1Z" class="outline" fill="#000000"/><path id="outline-eyes9" d="M943 1178c1 1.3-6.1 7.7-7.5 9-13.4 12.8-27.7 25-41 37.9-48.2 46.9-93.4 96.9-136.5 148.6-2.6 1.6-23.9-7.9-25.5-10.5-.8-1.2-.5-1.7.5-2.6 35.6-35.7 70.3-72.3 106.5-107.5 25.7-25 55.1-55.1 82.5-77.5 1.3-1 3.8-3.3 5.3-3.3 3.9 0 11.5 4.9 15.7 5.8Z" class="outline" fill="#000000"/><path id="outline-eyes8" d="M1341.6 1164.2c1.9-.2 11.9 4.6 13.7 5.9 1.1.8 2.4 1.3 1.2 2.9-66.7 59.6-128.7 124.4-186 193.1-.6.5-1.2.9-2 .9-1.3 0-18.5-11-19.6-12.4-1.2-1.5-1.4-2.6 0-4.1 51.6-52.4 103-105.1 157-155 4.3-4 33.3-31 35.7-31.2Z" class="outline" fill="#000000"/><path id="shading-eyes7" d="M801 1138c-30.9-.6-61.5 2.8-92.4 3.9l-35.3-17.7c-4.1-1.8 2.4-3.2 3.6-4.8l15.1-28.9c12.1 0 26.8-3 37.7 2.3 18.4 9 42.8 24.4 60.2 35.8 1.3.9 12.9 7.8 11.1 9.4" class="shading" fill="#aaaaaa" style="opacity: 0.5" opacity="0.5"/><path id="shading-eyes6" d="M1376 1124c-.3.4-6.9 2.3-8.4 3.1-5.9 3.1-23.2 14-28.2 14.8-10.7 1.7-33.8-2.4-45.9-3-7.3-.4-14.8-.7-22-1-8.2-.3-16.4.3-24.5 0-1.8-1.7 9.8-8.6 11.1-9.4 16.7-10.8 35.9-22.1 53.2-31.8 3.3-1.9 9.9-6.2 13.2-6.8 3.2-.5 30.1-.4 31.4.4 5.4 6.6 10 24.3 15.5 29.5 1 1 5.9 2.1 4.4 4z" class="shading" fill="#aaaaaa" style="opacity: 0.5" opacity="0.5"/><path id="shading-eyes5" d="M1085 1159c-2.1 6.6-7.9 8-12.5 12-2.6 2.3-5.8 5.4-8 8-5.4 6.1-10.8 18.1-15.6 22.4-4.3 4-3.8.8-6.5.6-5.1-.4-10.4 0-15.5-1.1-.7-.6 3.8-11.5 5.4-13.1 3.6-3.3 12.5-2.7 17.6-7.4 4.1-3.7 11.5-20.5 13.9-22.1 2.8-1.8 16.5 1.9 21 .5z" class="shading" fill="#aaaaaa" style="opacity: 0.5" opacity="0.5"/><path id="shading-eyes4" d="M1020 1201c-4.4 1.1-8.9.7-13.4 1.1-3.4.3-3.2 3.3-7.5-.6-4.7-4.3-10.2-16.4-15.6-22.4-2.3-2.6-5.4-5.6-8-8-4.3-3.9-10.9-5.7-12.5-12 4.5 1.4 18.2-2.3 21-.5 2.6 1.6 9.8 19.1 14.9 23.1 4.4 3.3 13.5 3.5 16.1 5.9 1.5 1.4 6.4 12 4.9 13.5Z" class="shading" fill="#aaaaaa" style="opacity: 0.5" opacity="0.5"/><path id="shading-eyes3" d="M1045 1248c-1.7.4-2-.7-3-1.5-5.3-4-9.4-10.7-14.5-14.5-2.7 1.4-6.1-.6-8.5.5-1.5.7-14.2 17.6-16 15.5-.6-3.2 1-6.3 1-9.4s-1.4-12.4-.6-13.6c.6-.8 7.9-2.9 9.1-2.8 2.1 0 7.1 3.7 11 3.8 4.7 0 9.2-3.8 11.9-3.8s8.2 2.1 8.5 2.4c2.2 1.6 0 7.1 0 10 0 4.8 1 8.9 1 13.5Z" class="shading" fill="#aaaaaa" style="opacity: 0.5" opacity="0.5"/><path id="shading-eyes2" d="M945 856c.7.3-.6 1.7-2 1-.7-.3.6-1.7 2-1" class="shading" fill="#aaaaaa" style="opacity: 0.5" opacity="0.5"/><path id="shading-eyes1" d="M1105 856c.7.3-.6 1.7-2 1-.7-.3.6-1.7 2-1" class="shading" fill="#aaaaaa" style="opacity: 0.5" opacity="0.5"/><g id="outline-eyes" class="outline" fill="#000000"><path id="outline-eyes1" d="M783.8 1150.3c38.7-1.3 80.2.7 118.6 5.8 31.2 4.2 63.2 15.5 80.4 43.6 22.3 36.3-.2 63.7-21 92.6-35.4 49.2-62.7 84.7-125.8 98.2-59.1 12.6-133.4-23.8-163.8-75.2-28.7-48.5-27.8-153.2 44.3-161.3 20.8-2.3 46.1-3 67.3-3.7m-53 13c-39.6 3.2-62.3 26.4-64.8 66.2-5.1 79.5 43.7 131.7 118 150.1 63.3 15.6 113.5-22.6 152.5-67.5 20-23 56.1-70.5 38.3-101.3-27-46.8-101.2-42.2-147.3-45.7-31.1 1.8-66-4.2-96.7-1.7Z" class="outline" fill="#000000"/><path id="outline-eyes2" d="M1216.8 1150.3c35.6-1.3 79.4-.2 114.7 3.7 71.8 8.1 72.9 111.5 45 160-29.7 51.8-104.5 88.9-163.7 76.7-63.4-13.2-91.2-49-126.6-98.4-20.4-28.4-42.8-55.5-21.7-91.3 24.6-41.7 77.6-45.6 121-49 10.3-.8 20.9-1.3 31.3-1.7m82 13c-28 .3-56.4 1.5-84.3 2.7-45 1.9-110.7-.5-139.3 41.7-21.6 31.9 15.2 79.9 36.3 104.3 56.5 65.1 115.6 93.3 198.2 50.2 51.2-26.7 76.3-76.2 72.3-133.7-3.5-51.4-36.8-65.7-83.2-65.2" class="outline" fill="#000000"/><path id="outline-eyes3" d="M1330.1 993.9c1.1.8 5.5-3.3 11.9.6 17.4 10.7 40.7 59.5 47.8 79.2 4.6 12.8 16.5 49.5 14 61.5-1.8 8.7-9.9 7.3-16.8 8.2 18.8 13.2 15.7 40.6 22 60.5 6.6-1.3 15-5.8 21.6-5.9 1.7 0 8.3 2.1 9.1 3.2 1.1 1.4 5.5 20.4 6 23.5 1.2 8.1 3.7 24-6 27.4-3.5 1.2-23.8 3.9-24.7 4.8 2.4 15.6-3.5 33.5-9.6 47.9-33 77.8-114.3 114.1-195.9 108-24.3-1.8-73.4-21.1-90-39-30-32.3-64.7-86.5-85.7-125.3-2-3.8-5.9-6.9-6.9-11.6-5.6-2-5.9 3.6-8.6 7.6-27.5 40.9-52.2 84.6-84.3 122.7-18.6 22.1-43.4 32-70.8 40.2-46.9 14.1-119.7.8-159.5-27.9-29.6-21.3-56.5-55.8-66.9-91.1-3.2-10.7-6-20.5-3.8-31.7-16.2-5-32.7 1.1-32-21.6 0-4.6 5.2-31.5 7.3-34.2.8-1 7.4-3.2 9.1-3.2 6.6 0 15 4.6 21.6 5.9 6.3-19.9 3.2-47.4 22-60.5-21.1.6-16.5-13.9-13.7-28.7 6.8-35.9 27.2-85 51.3-112.7 2.4-2.7 10.4-10.5 13.7-9.9 1.4.2 4.3 2.8 5.7 1.8.4-.3 3.5-6.5 5.1-8.4 78.4-96 169.4-147.3 295.5-148.6 130.6-1.4 230.4 50.6 309.9 153.1.9 1.1 1.4 3.8 1.6 3.9zm-23.2 12.9c.5-.9-.7-4.8-1.2-6.1-11.9-36.2-84-85.4-116.8-105.2-92.4-55.8-233-57.1-326.2-2.4-31.9 18.7-100.5 66.1-116.5 98.5-1 2.1-5.2 11.4-5.1 12.9 0 1.8 1.8 2.9 3 3.9 5.2 3.9 14.7 8.1 20.8 12.2s13.2 8.7 18.1 14.4c-8-1.4-15.4-4.8-23.5-6-8.7-1.3-24.5-3.1-33-3-3.5 0-8.3 1.7-12.3 1.2-11.2 18.6-22.5 37.2-31.4 57.1-5.2 11.7-11.5 23.8-9.7 37 2.4 2.3 21.7 9.2 22.7 10.8.6.9 0 2.7.2 3.8 17.4-2.2 35-4.9 52.5-6 35.7-2.3 73.3-2.2 108.9-2.1 26.2 0 52.3 1.3 78.5 1-23.9-23.3-52.7-41.5-80-60.5 0-.8.9-.6 1.5-.5 4.5.3 36.6 16.6 43.2 19.8 8.9 4.5 43.4 21.3 48.3 26.7 2.7 2.9 8.3 14.6 10.7 15.3 8-.5 16.1 1 23.8 1.2 35.2 1.1 70.7-.6 105.8-1 4.7-6.1 6.7-14.3 13.4-18.8 29.9-14.8 58.8-31.6 89.8-44.2 1.7 1.2-.7 2.7-1.6 3.4-3.2 2.7-8.2 4.7-11.8 7.2-23.1 15.6-47.1 32.2-67.1 51.4 26.6.3 52.9-.9 79.5-1 42.7-.2 88.1 0 130.9 4.1 5.1.5 26.1 4.7 28.9 4.1 1.3-.3.8-3.5 2.3-4.1l22.1-10.1c1.7-14.1-5.3-27.7-11-40.2-3.4-7.6-7.7-16-11.7-23.3-2.1-3.9-16.8-30.2-18.4-31.1-.5-.3-10.8-1.2-12.3-1.2-8.5 0-24.3 1.7-33 3-8.4 1.2-16.2 4.5-24.5 6-.6-2.6.8-1.8 1.9-2.6 12.1-9.8 26.3-18.3 40-25.6zm-511.1 133.5c-30.6.6-88.1.8-115.1 11.9-10.9 4.5-14.9 7.8-19.2 18.8-7.9 20.1-13.2 48.9-15.5 70.5-2.5 23.3-3.3 32.2 6.1 53.8 41.8 96 152.8 135.7 245.9 85.2 23-12.5 46.4-47.5 61.8-69.2 11.5-16.2 28.8-39.4 37.3-56.7 13.1-26.6-4.3-64.9-26.2-82.1-20.1-15.8-64.3-23-89.6-26.4-28.1-3.8-57.2-6.4-85.6-5.8zm430 0c-36.4 1.7-121.3 10.3-149.3 32.7-21.6 17.3-38.7 55.3-25.7 81.7s44.9 69 64.2 92.8c14.7 18.2 22.5 27.6 44.3 37.7 83.9 38.9 181.8 9.5 227.2-71.2 5.9-10.4 17.7-34.1 17.6-45.5-.2-24.5-8.6-81.9-19.9-103.2-6.8-12.9-32.1-18.7-45.7-20.3-33.4-3.9-79.2-6.3-112.7-4.7m-86.8.7-230 .5c11.1 2.2 22.3 4.8 33.2 7.8 6.1 1.7 14.7 6.1 20.3 6.7 38 4.2 83.3-3.2 122 0l21.2-6.8 33.2-8.3h.1Zm-74 26h-82c4.9 2.9 14.9 21 18 22.5 1.3.7 7.5 1.4 9.5 1.5 5.9.4 33.5.6 37.1-2 4.4-3.1 11.4-18.2 17.4-22.1Zm-23 38c-11.3-.8-23.3-2.3-34.5 0-1.4.3-1.6-.8-1.5 1.5.2 3.5 2.6 7.8 3.1 11.4 10.2-2.2 19.2-2.9 29.3.2zm-404.1 13.1c-3.7-.6-18.6-5.1-20.9-3.7-3.6 2.2-4.2 21.6-1.6 24.6s14.9 2.2 19.5 2.8c1-.6 3.7-22.7 3-23.7m775.2 23.8c4.8-.7 18.3.7 20.3-3.9 1.4-3.3.4-21.8-2.5-23.5-1.1-.6-20.3 2.8-20.9 3.7 0 3.2 1.8 22.9 3 23.7Z" class="outline" fill="#000000"/></g>
    </g><g class="trait-group" data-category="right ear" id="right ear-scruffy">
      <path id="fill-ear-rt" fill="#ffffff" d="m1784.9 111.1 8.9 47.1c-1.6 8.1-27.6 42.2-26.9 47.1l45.9 34.9c.9 1.7-1.2 17.6-2.8 19.3-2.4 2.5-13.3 4.9-17.3 6.6-7.9 3.5-15.2 8.1-23.2 11.8-.9.4-1.8-.6-1.4 1.6.2 1.2 9.2 9.4 11 11 5.3 4.7 30.2 23.1 31.6 27.5 1.1 3.6-8.8 16-12.3 16.8-14.9.1-29.9.5-44.8.3-8.6-.2-17.1-4.4-23.4 4.5l30 13c1.4 1.4 1.4 16.5.8 18.8-1.4 4.9-45.5 35.5-51.8 42.2-34.4 70.8-50.5 148.5-73.4 223.6l-71 103c-20.4 15.2-41.8 29.5-63.5 43-.3 2.4 0 1.6 1.4 2.1 4.4 1.6 23.6 7.5 27.3 7.6 5.6.2 14.7-5 20.8-5.5.9.2 9 14.3 9.4 15.6 1.3 4.9-6.8 20.9-10.3 25.3l-63.5 36.5c12.4 5.7 31.3 5.6 43.2 10.8 1.2.5 2.9 1.6 2.7 3.1l-34 41.1c-6.6 2.8-54.8 6.2-56.5 8.5-2.1 2.9 8.3 43.8 8.6 50.6-.2 1.7-11.9 10.9-13.7 11.3-4.6 1-27.2-11.6-33.8-11.8l-84 18.1c-13.7-4.9-41.2-5.1-52.8-12.2-4.3-2.6-3.2-5.8-4.9-7.6-1.9-2.1-19.5-7.9-24.1-10.4-7.4-4.1-17.6-12.1-24.6-17.4-16.5-12.4-27.2-21-37.6-39.4-3.5-6.2-15.6-31.6-15.6-37.5 0-4.5 9.9-22.1 12.6-27.5 22.8-45.2 48-89.3 70.1-134.9 4.2-64.6 5.7-129.1 11.6-193.4L1369 380.6l7.6-7.4c122.7-81.3 247.3-160.1 371.9-238.1 3.4-3.7 15.1-23 17-24 2.1-1 16.1 1.7 19.9.7Z" class="fill" data-original-prefix="fill"/><path id="shading-ear-rt" fill="#aaaaaa" d="m1766 307-13.8-6.8-22.2-6.7c8-13.4 11.1-32.6 26.3-39.7l19.7-9.8c-17.4-4.1-35.6-5.7-53-1-.6-20.3 4.4-33.7 15.6-49.9 4.2-6 15.7-17.8 17.9-23.1 5.5-13 6.2-36.7 10.1-51 1.5-5.2 12.7-3.7 17.4-4.1.5 7.8.8 15.6 1 23.5 0 1.9 1.1 3.9 1.1 6 0 19.1-14.5 35.6-20 52.8l48 36.1c1.3 1.8 1.4 17.3.9 20.1-.2 1.1-.5 1.9-1.6 2.4l-43.8 20.2c-4.3 3.3-.3 6.8 2.4 9.4 9.8 9.5 22.9 17.6 33 27v22.5c-11.8-2.5-23.4-6.9-35.5-8L1739 339l23.5 11 .3 18.4-51.9 26.4c-7.3 22.9-13.5 46.1-20.7 69-13.4 43-25.8 86-38.8 129.2-4.2 14.1-9.2 36-15.7 48.3-18 33.7-47.8 67.1-67.4 100.6l-60.4 42.6c7.8 1.9 20 7.9 27.6 8.4 3.8.3 7.8-2.3 9.7-1.8 3.7 1 8.6 12.2 13.6 13v1.2c-9 14.7-21.1 26.9-32.4 39.7l-38.5 20 30.5 9c0 6.9 2.6 20.9-2 26.1-4 4.5-13.7 13.2-18.5 17.5-7.8 6.8-9.7 8.6-20.5 9.5-5.4.4-40 .6-41.5 2 5 16.9 17.5 32.2 12 50.5-4.3 1.4-12.3 7.5-16.5 7.4-4.6 0-14.7-10.8-22-10.9-25.8 1.5-54.9 12.8-80 14-29.8 1.4-77.7-13.9-102.4-30.6-1.8-1.2-27.4-19.4-26.1-20.4 26.2 7.5 52.4 21.9 80 10.5.9-.4 4.7-1.2 4-3-1.7-4.3-16.7-7.7-21-10 4.9-5 10.1-10 15.5-14.5 3.7-3.1 16.2-13.3 20-14 11-1.9 23.7 4.4 34.4 5.9-.3-2.6-4.1-4.8-6.1-6.4-13.2-10.6-29.5-15.6-44.9-22.1l41.9-23 12.1-15.4c-18.8 2.5-37.2 9.9-55-.5-10.4-6.1-4.8-7.2-2.4-16.5 6.4-25.5 7.4-51.6 12.7-76.3 5.4-25 19.7-38.9 31.9-60.1 20.8-36.1 40.5-79.7 49.6-120.4.7-3.1 3.1-23.2 4.3-24.2 3-2.4 4.4 2.3 5.3 2.9 3.4 2.5 7.1 2.2 9.4 6.9l45.2 5.5c10.2 14.6 18 30.7 26 46.5 17-11.2 16.3-35 26.2-51.3l50.7-57.3c1.3-4.8-9.4-4-12.4-4.4-1.1-.1-2 .4-1.5-1.5.9-3 4.6-8.4 6.2-11.9 7.7-17.2 9.5-25 22.3-39.7 3.6-4.1 11.9-14 16.3-15.7 16.9-6.7 40.4-5 58.2-4.3-6.8-5.8-19.3-16.1-28.4-16s-20.9-.7-29.8 1.3c-7.8 1.7-13.8 7.7-20.7 11.3-7.1 3.7-14.6 6.5-22 9.5l37.5-56c13.4-6.5 35.6-8.6 47.9-16.1 6-3.7 13.3-13.7 17.6-19.4-9.8-3.1-20.4.8-30.5.5-6.7-.2-14.8-2.2-21.4-3.5 15.5-20.6 29.5-42.4 42-65 24.3-6.8 48-16.3 68-32 2.7-2.1 4.9-6 9-7.5v16.5c0 2.9-1.9 10.1-2.7 13.3-.9 3.3-2.7 8.6-4.7 11.3-4.3 5.7-24.6 17.4-32 24-6.2 5.4-11.5 11.9-17.5 17.5 4.7 0 21.1-2 24.4-4.4 1.7-1.2 1.1-7.9 4.6-7.1-1.1 23.3-2.8 47.9-15.2 68.3-6.9 11.4-16.4 13.7-27.8 19.2l43 27.5c.5-.7.5-14.8 1.2-17.3 1.5-5.2 28.4-21.8 34.5-25.5 6.8-4.2 13.7-8.6 21.3-11.2l-20.5-3-18.5-.5c1.9-2.6 2.9-5.7 4.6-8.4 4.7-7.4 27.5-38 33.7-41.3 2-1 12.3-3.8 14.2-3.8h24.5Zm-113 152c-1.3-1.2-31 7.9-35 9.5-2.5 1-6.4 2.4-8 4.5 13.3 2.8 25.5 9.3 36.5 17-4.8-11.8 3.8-20.1 6.5-31m-3 53c-20.3 3.1-39.5 8.1-56.3 20.2-8.7 6.2-10.6 10.6-14.9 20.1-6.2 13.7-10.5 29.2-14.8 43.7 3.7 3.3 23.5-15.3 27-18.5 7.4-6.8 14.1-14.6 21.5-21.5.8-.2.6.9.5 1.5-1.3 9.2-12.6 33.4-16.8 43.2-7.3 16.8-15.5 33.2-24.2 49.3 1.1.8 16.9-7.5 18.4-9.1 6.1-6 21.9-33.5 26.7-42.3 14.5-26.4 25.6-57.5 32.8-86.7Zm-203 272c.7-1 17.5-10 20.5-12 9-5.9 17.9-12 26.4-18.6 4.8-3.7 17.5-13.2 20.7-17.3 1-1.3 1.8-2.2 1.4-4.1-20.8 7.7-41.7 15.4-63 21.5-20.2 5.8-50.4 9.4-67.7 19.3-14.5 8.3-20.4 28.4-29.3 41.7-.3 2.2.2 1.2 1.5 1.4 8.2 1.6 26.3 5.1 33.7 3.8 10.1-1.7 19.3-12.7 27.7-17.8-2.3 19.8-7.5 39.6-15.8 57.7-1.7 3.8-4.8 10.8-7.2 13.8-3.5 4.4-15.8 10.5-16.1 15-.4 8.2 4.3 21.4 5.1 30 .6 6.9-.4 14.5 0 21.5 6.7-.2 20 2 25.1 6.4.5.5 3.5 6.1 3.9 3 1.1-8-6.8-21.1-12.5-26.5-2.3-2.2-11.4-6.6-8.5-9.4 1.6-1.6 9.9-5.1 12.9-7.1s14.7-13 15.7-13.2c2.2-.5 9 4.6 12.2 5.5 9.7 2.9 25.3 0 35.2-2.2 7.2-1.6 14.1-4 21-6.5-.1-1.4-1.5-1.6-2.4-2-6-2.8-13.2-4.7-19.2-7.8-3.8-2-13.4-9.2-16.1-9.9-4-1.1-25.5 0-20.3-7.8 2-3 11.7-10.3 15.2-12.8s10.7-8.4 14.2-9.8c20.4-8.3 44.5-4.1 64.6-19.4 2.1-1.5 9.2-9 10.1-11 1.3-3-6.4.3-7.6.4-13.9 1.2-57.3-12.4-71.1-18.7-1.9-.9-11.8-5-10.3-7.2Zm-111.5 130v1c.7-.3.7-.7 0-1" class="outline shading" data-original-prefix="shading" opacity="0.5" style="opacity: 0.5"/><path id="outline-ear-rt1" fill="#000000" d="M1203 940c-.6 2-3 0-4-.5-6.5-3.1-17.2-8.7-22-14-10.8-12.1-18.5-31.1-29.5-43.5-4.1-25.3 12.7-45.4 22.6-67.3 5.5-12.1 11.1-32.2 17.6-42.4 7.8-12.1 17.6-20.4 24.1-35 29.7-67 27.5-149.8 34.8-221.2 43-62.1 88.8-122.2 141.4-176.6 24.4-25.3 52.2-42.5 82.1-60.9 20.5-12.6 41.7-24.6 62.9-36.1 40.7-22.1 79.8-38.4 121.7-57.3s91.3-39.5 107.1-83.9l10.7-37.2c3.3.1 24.3 49.5 26 56 3.7 14.5 5.6 49 1 63-3 9.1-13.4 15.7-16.5 25 7.6 2.4 18.7 6.6 25 11.5 6.2 4.9 20.7 24.3 26.4 31.6 2.3 2.9 11.8 14.7 11.6 17.4-7.2.2-14.4-4-21.8-5.2-23-4-38.5 4-55.2 18.7 10.3 2.9 25.2 6.2 33.5 13 6.7 5.5 16.1 21.2 20.9 29.1 1.9 3.1 13.5 21.9 11.6 23.9-7.9-2.4-15.7-5-23.8-6.7-9.2-1.9-33.2-6.4-41.4-5.1-6.3 1-12.4 5.6-18.7 6.8-.5 2.6.4 1.5 1.4 2.1 12.9 6.6 27.1 12.4 36.6 23.9-42 6.7-76.8 37.4-91.8 76.8-12.2 32.2-10 57.7-14.4 90.6-6.7 50.1-36.2 108.2-60.3 152.6-24.4 44.9-50.8 66.2-94.6 91.4-2.2 1.3-4.2 2.7-6.9 2.6-.3.3 1.3 2 1.5 2h21c2.2 0 15.5-6.9 18.5-8.5 2.4-1.2 16-10.5 17-9.5-1.6 10.4-4.5 20.6-8 30.5-3.1 8.8-10.4 28.6-15.1 35.9-2 3.1-14.8 10-18.8 12.2-12.3 6.6-25.4 11.3-38 17 17 6.2 36.2 4.9 54 3.5 1.2 1.2-6.4 13.7-7.8 15.7-9 12.9-45.2 46.5-60 50-9.9 2.3-23 1.4-33.2 2.3 1.7 3.6 5.3 5.9 6.8 9.7 4.4 11.4 2.3 53-1.3 65.3-2 6.8-2.5 7.3-8 3-22.9-18-24.7-29-58.1-27-19.9 1.2-35.2 9.4-53.5 14.5-13.9 3.9-18.7 1.8-32-2-8.3-2.4-17-5.8-25-8.5 13.4-5.3 26.8-1.7 41-4.5 22.9-4.6 49.8-19.7 73.5-21.5 10.4-.8 23.1 3.5 33.8 3.2l3.7 3.3 6 8.5c-1.6-13.7-1.1-29.6-9.6-40.9-5-6.7-12.6-14.2-19.2-19.3l-.2-3.8c20.8 1.9 41.8 1.3 62.2-3.3l40.8-24.7-.5-2c-8.4 1.7-24.3.5-32.5-2.5-4.9-1.8-19.3-13.4-24.7-17.2-.5-.4-1.9 0-1.2-1.8.5-1.3 7.3-5.2 9-6 14.6-6.8 32.6-11.5 48-18 6.8-2.9 19.8-7.7 25.4-11.6 7.3-5.2 12.1-17.9 15.7-25.8-7 2.2-14.8 7.2-21.9 8.5-11.6 2.1-45.6-7.9-57-13.1-.8-.4-2.9-.2-2-1.9.4-.8 9.6-7.5 11.3-8.7 20.9-15.1 44.7-26.5 63.3-44.7 60.6-59.5 103.6-146.5 119.2-229.8 2.3-12.2 1.6-24.6 3.7-36.3 4.1-21.7 17.7-46.7 21.8-69.2 17.9-19.1 39.9-38.7 66.8-42.7-11.4-10.6-28.7-10.9-43.5-12-1.5-.1-2.9.8-2.5-1.5 8.3-6.9 16.1-18.1 24.5-24.5 7.1-5.4 27.9-8.7 37-8 10.2.8 19.5 6.2 29.5 8-13.9-25-39.4-29.8-66-31-.2-1.7 0-3.2.8-4.7 2.9-6.4 30.9-32.1 37.7-35.3 8.8-4.2 25.6-4 35.6-5-7.8-7.6-18.7-19.2-29.2-22.3-12.5-3.6-27.1-2.7-39.8-.7 3.6-13.9 11.5-23.5 20-34.5s14.4-14.3 17.3-24.7c4.4-16.3-.2-32.5-2.3-48.8l-10.8 21.7c-8.5 15.1-17 25.9-31.7 35.3-31.2 20.1-66.8 32.2-100.2 48.8-59.4 29.5-120.1 66-175.4 102.6-50.7 33.4-90.3 69.4-128.8 116.2-17.3 21-40 48-54.8 70.1-13.1 19.5-12.9 63-15.2 86.8-2.7 27.6-4.3 55.4-7 83-3.6 37.5-23.4 76-40.1 109.9-6.2 12.6-15.4 25.8-21.1 38-2.7 6-15 38.2-15.7 43.3-3.2 23.1 12.8 50 27.9 66.4Z" class="outline" data-original-prefix="outline"/><path id="outline-ear-rt2" fill="#000000" d="M1222 954c11.6 7.5 22.1 16 36.5 18 5.8-4.1 11.7-8 18.2-10.9 3.5-1.6 14.7-6.1 17.9-6.1h18.5c-5.8-16-17.1-18.4-32.5-20-1-.1-3.4.6-2.5-1.5s15.3-10.5 18.3-11.7c18.6-7.6 33.7-6.4 52.7-.8 1.8-2-11.4-19.2-14.5-21-2.6-1.6-23.6-5.7-23.5-7.5 10.1-9.5 28.8-16 37-27 7.1-9.5 12.1-25.9 18-36.5-8.7 2.2-16.6 6.9-25.2 9.2-2.8.8-9.9 2.7-12.3 2.7h-37.5c4.5-25 11.9-49.6 19.7-73.8 3.2-9.8 6.5-22 10.8-31.2 5.9-12.8 17.7-24.5 25.7-36.3 14.4-21.4 23.1-44.2 30.1-69 7.8-27.9 11.8-53.6 1.7-81.8 1.4-.3 2.5.3 3.7.8 6.9 2.5 46.7 25.5 50.8 30.2 3.4 3.9 10.9 28.8 12.7 35.3 3 10.7 4.5 23 7.8 33.2 2.9 8.8 8.3 11.8 17.3 8.5 18.8-7 43.3-65.2 43.6-84.5 0-3-1.1-5.3-1.1-8 0-9.6 22.9-34.8 30.6-41.5 17.6-15 39.8-23.8 62.5-28l-8.8-3.7c-17.8-5.3-36.9-5.3-55.2-3.3-.7-.7 8.5-16.3 9.6-17.9 5.7-8.7 17.7-24.8 26.9-29.1 15.1-7.1 32.4-9.5 48.1-13.9 1.3-.4 2.5-.1 3.4-1.6 0-1.9-23.7-15.1-27.5-15.5-18.4-2.2-37.9 6.1-55.5 10-.9-.7 11.8-16 13-17.5 3.4-4 11.6-14 15.5-16.5s11.2-3.9 15.9-6.1c8.2-3.9 29-13.7 35.2-18.8 3.7-3.1 12.8-15.6 15.9-20.1 1.6-2.4 3.1-4.9 4.6-7.4-3.9.9-6.6 4.2-10.3 5.7-8.1 3.3-26.1 2-35.2.8-2.3-.3-12.3-1.3-12.5-3.5-.2-2.5 19-22.5 21.9-26 6-7.2 14.3-20.6 21-26 4.3-3.4 9.8-4.8 14.3-7.7 23.7-14.9 32.6-26.5 49.9-47.1.7-.9 2-3.2 1.8-.2-2.5 12.6-6.8 24.6-11.6 36.5-24.3 15.6-47.6 33.8-64.4 57.6 19.3 5.9 36.1-12.7 50-23.5-2.8 16.2-8.4 31.5-15.1 46.4-4.7 10.3-9.5 22.9-19.2 28.8-14.9 9.1-32.9 16-49.7 20.8-.2 1.8 3.4 1.1 4.5 1 4.3-.3 11-2.2 15-2.1 5.8.2 45.9 28 51.5 33.6.8.8 6.5 7.8 6 8.5-22.8 3-46 6-67.8 13.7-4.5 1.6-13.1 4.5-16.6 7.4-1.3 1.1-8.2 9.2-8.6 10.4-.7 1.7.4 1.4 1.5 1.5 4.3.6 8.4-1.7 13.8-.8 9.1 1.5 42.7 19.6 50.1 25.9 1 .9 2.1 1 1.7 2.8-34.6 9.4-66.8 26.9-90.5 54-28.1 32.1-34.8 87-44.6 127.4-18.5 20.3-42.7 37.2-66.8 50.2-3.9 2.1-10.1 5.7-14 7-.9.3-3 1.1-3 0 19.1-31 27.9-76.5 3-107-12.4-15.2-19.2-11.5-26 5-7.4 18-10.7 39.7-13 59-1.3 11.2 2.7 10.5-6.5 19.5-23.9 23.4-34.6 32-45.8 65.2-.9 2.8-10.2 32.4-7.2 32.8 14.3-1.1 30 .6 42.7-7.2l26.7-16.8c-1.2 14.9-3 29.6-6.3 44.2-2.2 9.6-8 32.3-13.2 39.8-3.2 4.5-20 15.5-20.3 16.7-.8 2.8 9.2 17.1 10.8 21 5 12.1 1.2 31.5 0 44.4-2 2-17.3-12-21-13.5-2.5-1-17.7-3.5-19-2.5 6.7 9.9 10.5 22.5 11 34.5.3 7.3-5.4 2.7-10.5 2.4-18.5-1.1-38.2 3.5-54.5 12-12.1-4.2-19.7-7.5-30.9-14.6-6.4-4.1-17-9.9-19.1-17.4Z" class="outline" data-original-prefix="outline"/>
    </g><g class="trait-group" data-category="left ear" id="left ear-battle scars">
      <path id="fill-ear-lft" fill="#ffffff" d="M858.7 928.7c-3.7 4.2-14.8 12.9-19.8 16.7-14.6 11.5-32.7 23.6-49.5 31.5-5 2.3-21.9 9.8-26.4 8.7l-60.9-28.2c-24.2-30-45-62.9-68.1-93.9L621.5 828l-113.4-70.7-69.5-84.5-40.8-83.2c-.7-1.3-1-2.7-.8-4.2.9-6.5 16.1-17.9 19.8-24.3 2.3-12.4-1-25.8 3.4-37.7l34.9-31.1c1.7-2.2-3.1-10-6.6-9.6l-68.2 12-2.4-.4-46.8-181.2-8.1-119.8c.2-1.5 11.5-11.4 13-12.1 1.8-.8 4 .7 5.6 1.4 44.7 17.6 88.7 43.3 133.3 61.6l144.9 87.1c34.7 38.2 77.4 72.2 111.6 110.4 19.4 21.7 36.1 47.5 55.3 69.6 7.9 62.9 12.3 126.4 19.6 189.4l79.4 176.7c.6 2.9-1.4 5.4-2.7 7.9-4.2 8.6-19.1 36.9-24.5 43Z" class="fill" data-original-prefix="fill"/><path id="shading-ear-lft" fill="#aaaaaa" d="M594.1 547.9c22-5.9 44.3-10.2 66.9-13.5 7.1-9 19.6-17 26.6-25.4 5.8-7 6.8-15.9 18.9-7l23.5 42.5c4.3 2.7 21.4 14.9 25.3 14.3 2.1-.3 13.8-7.8 16.5-9.6 2.4-1.6 12.1-10 12.9-10.2 2.8-.5 4.1 5.4 4.4 7.4.8 6.7.3 15.6.6 22.6-1 2.9-8.3 5.5-11.3 7.7-.7.5-1.7-.2-1.2 1.7.2.6 8.7 9.2 9.5 9.6 1.5 1 3-.3 3.4 0s4.2 6.9 4.7 7.9c2.1 4.3 1.7 8-2.2 11l-91-69.8-1.5 2c-.6.4-1.6-1.7-2.5-1.7-2 0-27.4 24.3-30 27.7-2.9 3.7-4.2 7.6-5.5 12 2 .4 2.7-.5 4-1.4 5.7-4.2 10.8-12.5 16.9-16.5.5 2-1.8 2.4-1.8 4.3 0 3.2 4 15.7 5.1 19.9C712 681.5 760 779.2 824 857.7c8 9.7 37.9 40.7 40.3 49.7.9 3.3.4 13.9-.5 17.1-1.2 4.2-33.7 28.5-39.5 32.5-15.2 10.4-31.3 19.8-48.8 26l-39.5-7.4c-25.7-24.5-53.6-47.2-79.1-71.9-3-2.9-8.2-7.4-10.4-10.6-5.3-7.6-11.7-45.5-15.1-57.9-.6-2.2 1.2-3.9-1.4-6.6l-105.6-62.4-.5-6c29.4 9.8 56.5 27.9 84.6 39.8 13.2 5.6 27.2 8.1 40.9 12.1 2.3-6.6-5.6-44.9-9.5-47.5-35.8-2-69.1-17.3-99-36-25.8-16.2-32.8-24.5-49.1-49.9-16.6-25.8-31.6-54.3-43.5-82.5-3.2-7.5-12.3-27.3-11.3-34.2.8-5.2 5-11.1 4.8-16.8 2.3-.5 1.6.3 2.2 1.3 7.3 11.3 21.5 41.5 33.5 46.4 6.6 2.7 6-2.2 4.7-7.7-3.4-14.8-17.2-33.6-16.5-47.5.2-3.3 3.8-28 4.6-29.4 7.8-6.3 20.9-9.5 22.2-20.8.6-15.9-2.7-35.1-.8-50.8.4-3.5 3-5.9 3.1-9 0-3.6-3.2-7.7-3-11.5-1-.9-6.3 4.4-7 5.5-3.5 5.3-1 7.1-1 12 .2 15.8-.4 31.6.8 47.4-5.4.6-21.8 15.6-24.5 16.1-2.6.4-7.5-13.8-10.7-13.8l-59.2 11.8h-11.4c1-3.7-3.3-10.3.7-12.7l69.4-19.6 9-38c-12.9-38.6-33.1-79.6-58.1-112-12.6-16.3-30.2-31-33.9-52.4 3.3-.7 9-4.4 12.2-3.9 2 .3 6.5 4.6 9 6 23.8 13.1 49 29 71 45 38.5 28.1 75.4 83.9 100.1 124.9 9.4 15.6 9.7 19.1 11.6 37.4 2.6 24.6 1.1 32.6 12.2 55.8 3.7 7.7 8.6 14.7 12 22.6ZM719 776c-.4-2.2-3.5-6.6-5.5-7-3.7-.7-16.9 1-19.6 3.5-2.4 2.3-5.9 14.8-7.2 18.8-2.2 7-10.2 31.5-8.5 37.1.6 2.1 4.7 4.7 4.8 7.7l4-6.5 26.5 40.5 4.1-8-26.6-47.6 10.5-38.4H719Zm57 190c-3.3-10-4.9-26.8-9.8-35.7-2.6-4.8-10.8-12.4-14.6-17.4s-9.2-10-8.4-16.1c2.2-15.5 15.7-28.9 22.6-42.5l-6.3-13.3c-1.7.8-16.6 29.2-18.7 33.3-5.5 10.9-16.8 32.7-17.8 44.2-1 12.1.9 25.6 0 37.8l6 3.7 5.5-32zm-103-56 9-49.7-4-9.3c-1.6 0-1.6 3.4-1.8 4.7-1.3 7-1.2 14.9-2.4 21.6-1.4 7.7-5.3 16.6-7.4 24.3 0 1.3 5 10.2 6.6 8.5Z" class="outline shading" data-original-prefix="shading" opacity="0.5" style="opacity: 0.5"/><path id="outline-ear-lft" fill="#000000" d="M844 942c15.6-14.5 32.6-45.7 29.9-67.4-8.3-32.4-25.5-58.9-39.8-88.2-9.5-19.6-31.9-63.6-35-83-3.6-22.2-3.2-46.4-5.1-68.9-.9-9.9-2.5-19.8-3.2-29.8-6.3-5.3-13.4-13.5-21.5-15.5-13.1-3.2-22-2.3-35.1-8.9-19.6-9.8-27.8-25.2-36.6-44.3-10.1 11.4-33.8 25-36.3 40.7-3 19.5 8.4 73.2 16.6 91.9 4.8 11 12.6 21.6 20.2 30.8 48 58.3 66.6 127.3 109.2 188.8 3.4 5 10.1 11.7 12.7 16.3 2.1 3.9 4.1 24.3 4.2 29.8.2 6.4-4.7 10-9.1 14-2.2 2-18.3 15.1-20 13.5.9-5 4-9.7 4.7-14.8 1.7-11.6-1.8-24.2-5.2-35.2-7.9-25.5-21.5-49.2-35-72-1.8 0-16 28-18 32-6.6 13.1-18.4 35.3-19.5 49.5-.9 11.2.6 23.6.2 34.9.6 1.8 15.1 10.8 17.8 12.2 17.1 8.9 28 10.8 47.2 6.2 6.9-1.7 12.8-5.3 19.8-5.7-3.3 5.3-7 6.8-13 9.5-22.4 10.2-58.6 26.5-79.5 6.5-14.3-13.6-27.5-29.5-42.4-42.6-12-10.6-25.8-15.8-32.5-31.5-10.8-25.3-24-65.5-48.8-80.2-12-7-24.9-12.3-37.2-19.8-81.4-50-124-108-162.7-194.3-1.9-4.2-11.8-25.8-11.8-28.2 0-2.2 13.4-12.5 16-15 2.7-2.6 11.5-10.6 12.9-13.1 2.3-4.3 4.9-27 5.1-32.9.1-2.2-1.6-4.2-.9-6.8 1.1-4 16.2-13.1 18.8-17.7-24.9 3.4-48.8 10.4-72 20-1-7.2-5-16.4-5.1-23.5s5.4-15.4 6.1-24c1.3-16.7-1.4-39.1-4.3-55.8-3.8-21.6-9.2-45.2-21.9-63.1-2.7-3.8-8.9-9.4-10.3-12.7-6.4-15-6.2-46.8-7.5-63.5-2.2-29.9-8.2-77.3.5-105.5 1.8-5.8 2.2-6.4 8.7-5.7 12.1 1.1 31.8 7.4 43.8 11.3 83.1 27.2 164 67.2 237 115 21.8 14.3 36.8 25 55.1 43.9 52.6 54.4 98.4 114.5 141.4 176.6 2.3 4.6 2.2 21.8 2.6 28.4 3.6 65.9 7.8 160.8 46.2 215.8 2.9 4.1 7.4 7.9 10 12 6.8 10.6 12 30 17.6 42.4 9.2 20.5 21 34.3 22.2 57.8.2 3.2.5 7.5-.5 10.5-13.8 17.6-24.1 41.8-43.8 53.2-3.7 2.2-8.4 5.1-12.7 5.8ZM702.8 512.2c.5.6 4.5 11.7 6.1 14.4 7 12.8 14.2 25.5 27.2 32.8 3.5 2 12 6.2 15.6 6.5 4.3.3 17.8-8.4 23-10.8 3.5-1.6 7.3-2.7 11-4.1-1.8-14.4-3.9-27.9-12.2-40-21.1-30.9-52.7-69.2-77.9-97.1-58.5-64.7-137.8-110.4-212.8-153.2-45-25.7-91.8-52.4-141.2-68.8-1.9-.6-10.6-3.9-11.5-3-2.9 37.8.8 78 8.3 115.2 4 19.6 13.9 30.2 20.7 48.3 8.5 22.4 17.3 59.3 20 83 2.1 18.7 1.2 37.8 3 56.5 16.7-2.5 33.1-6.7 49.8-9.7 8-1.4 18.2-1.6 25.6-3.4 6.1-1.4 6.8-5.9 8.1-10.9 4.5-17.3 3.6-35.6 5.7-53.3 1.6-4.2 14.7-9.6 14.8-13.2 0-3-13.9-27.1-16.6-31.5-23.5-38.4-55.2-67.1-93-91L354 241.3c-.2-1.5 0-1.7 1.5-1.5 6.7 1 18.7 13.8 24 18 7.9 6.3 17.8 9.2 26 15 53.7 51.2 107.7 99.8 130.4 173.4-15.6 64.6-13.8 128.7 20 187.2 5.6 9.7 23.2 34.9 35.7 21.4 4.4-4.7 7.8-28.3 10-36 3.6-12.6 8.4-25 12.5-37.5 17-13.2 37.3-24 53-39 7.3-6.9 22.3-30.1 30.8-31.3 1.4-.2 4.1 0 5 1.1ZM492 414c-12.8 5.3-8.1 15.2-8 25.5.3 13.3-.8 26.7.8 39.9-21.4 13.6-40.7 29.6-58.8 47.3-2.1 3.3-1.5 24.1-2.1 29.9-1.2 11.2-11.1 18.3-19 25.2 9.9 37 29.1 70.7 51.2 101.6 22.3 31.2 49.9 64.5 81.5 86.5 17.3 12 36.6 20.7 54.6 31.4 8.3 4.9 32.2 18.5 37.7 24.3 4.6 4.8 1.7 5.4 2.4 9.5s5.9 15.5 7.8 20.2c3.3 8.4 7 16.7 11.2 24.8 2.7-4.7 5.1-10.5 6.2-15.8 4-19.5 4.9-44.9 2.1-64.6-1.7-11.9-5-23.5-7.9-35.1.2-2.4 6.1-6.7 8-9 7.9-9.9 13.8-21.5 19-33 0-3.4-13.8-12.7-14.5-15.4-1.5-5.3 0-13.7-.4-19.6-1.1-13.7-9.6-50.9-17.2-61.8-11.8-17.2-26.5 9.3-31 19.7-9.3 21.4-7.6 46.3.4 67.9 2.9 7.9 7.3 15.2 10.8 22.7-1.4 1.3-15.2-6.5-17.7-7.8-15.2-8.2-32.4-19.3-45.8-30.2-4.2-3.4-15.7-12.9-18.4-16.6-3-4-9.1-42.7-11.4-51.6-8.6-32.6-20.5-64.9-41.6-91.5-.3-1.7 5.1-9.4 6.3-12.3 14.2-33 3.6-78.9-6.5-112Zm298 177c-1.2-2.4-1.8-28.5-3.5-28l-15.5 9.5c1.2 2.6 13.2 14.9 16 17 1 .8 1.3 1.9 3 1.5m-83 168c.2-1.4 0-2.6-.5-4S694 738.9 693 738.4c-2-1-7.1 5-8.5 6.5-14.2 16.1-18.4 33-13.5 54 2.6.3 1.6 0 2-1.5 2.5-8.6 4.9-28.8 9.9-35.1 3.2-4 18.5-2.4 24-3.5Zm4.8 9.2c-5.4.2-17 .9-19.7 5.4-3.1 5.1-13 38.5-13.9 45.1-.4 3-.8 8.6.3 11.2l33.6 50.4 3.3 2.7 36.5-56.5c.2-4.3-21.2-36.1-25.1-41.8-2-2.8-10.6-16-12.5-16.5-1-.3-1.6 0-2.4 0ZM708 946l-1.7-42.8c-7.9-17.7-17.7-36.5-28.1-52.9-.6-.9-.9-2.2-2.2-2.3-1.2 18.6-3.3 37.2-10.8 54.3 2.6 3.7 4.8 7.8 7.8 11.2 6.1 7 24.9 25.5 32 31 1 .8 1.3 1.9 3 1.5" class="outline" data-original-prefix="outline"/>
    </g><g class="trait-group" data-category="head" id="head-hawker">
      <path id="fill-head" fill="#ffffff" d="M914 448.5c.2 1.7 1.9 5.4 3 7 3.1 4.5 28.3 28.7 33.1 31.9 8.2 5.6 13.6-2.2 20-7.9 9.1-8.2 17.3-18.4 26.5-26.5 31.3-27.3 66.7-49.1 105.8-63.2 1.2-.5 2.2-1.1 3.7-.8l-35.8 89.7c.4 15.7-1 34.3.8 49.8 2.5 21.8 29.6-1.4 41-1.5v17.5c0 3.8 5.1 9.7 9.2 9.3 4.5-.4 26.5-16 27.7-14.8 0 1.3.3 2.5.8 3.7 3.7 8.1 12.2 30.9 16.8 36.2 1 1.2 3.3 2.4 4.8 3.2 4.7 2.6 27.9 12.7 32.4 13.6 8 1.5 39.6-9.4 41.3-7.8l3.2 103.3 23.7 47.2-22.9 64.2c0 15 11.8 11.2 21.9 9.4-1.9 13.3-3.9 26.8-6.5 40-2.1 10.7-6.9 38.7-11 47s-16.9 19.1-22.4 27.6c-10 15.5-15.4 36.8-25.2 52.8-27.2 16.6-51.5 37.2-77.6 55.4-15.3 10.7-39 28-55 36s-35.9 14.4-43.3 15.7c-33.2 6.1-48.3-16.5-75.4-26.7-14.2-5.4-32.8-7.1-47.7-12.3-8.8-3.1-35.8-15.2-42.5-20.5-8.3-6.4-16.9-21.4-25-29-20.6-19.5-33.7-20.2-49.7-48.3-13.9-24.3-25.8-48.8-27.8-77.2-1.5-21.4 1.6-43.9 10.5-63.5 3.9-8.6 13 7.3 18.8 7.8 5.7-4.6 13.6-7.8 13.7-16.3 0-3.5-2.7-15.5-4.3-18.8-5.3-10.9-23.2-24.2-28.6-34.4-5.1-9.5 2-32.8 3.7-44 4.2-28.8 6.6-53.7 6.2-82.9 0-3.5-2.9-21.3 3.4-21.4 4.9 0 12.4 6.9 17.9-.2 4.5-5.8 8.2-39.8 10.9-50 3.8-14.2 11-27.5 14.7-41.8 2.4-2.1 11.3 11.3 18.5 1l29-79c12-16 24.2-32.2 37.5-47v66.5z" class="fill" data-original-prefix="fill"/><path id="shading-head" fill="#aaaaaa" d="M1060 548c1.7 1.7 41.6-10.6 47.6-11.1 7.1.2 7.3 14.6 8.4 20.1 7.7.3 22.5-11.2 29.3-8.8s6.1 16.5 8.7 20.3c10.1 15.5 47.5 28.9 65 34 4 1.1 9.7 2.9 13.6 3.5 5.5.7 7.9-2.8 12.8 4.1 6.7 9.5 5.6 47.9 2.5 59.4-1 3.9-5.2 11.5-4.9 15 .2 2.9 8.7 17.9 10.5 22.6 8.2 21.5 11.5 48.8 5.2 71.2-3.2 11.4-9.8 21.3-12.7 32.8 10.1-3.2 19.9 1.5 21 12.5-4.8 16.4-5.1 38.3-11.2 53.8-10.4 26.4-29.4 47.3-38.1 76.9-2.3 7.8-4.1 25.3-7.7 30.3-1.9 2.6-7.7 7.2-10.5 9.5-11.6 9.7-39 29.5-52.5 34.5-8.8 3.3-13.8 2.6-21.5 9.5-4.9 4.5-3.6 8.8-7.1 13.9-5.7 8.3-17.4 21.5-26.4 25.6-28.3 12.7-55.1 25.5-86.3 12.3-1.5-.6-4.3-1.6-5.3-2.7-3.1-3.4-4.1-14.6-2.5-19.1-5.5 1.8-10.5 4.2-16.5 4.1-6.6-.2-14.2-3.7-21-4-7.7-.4-15.7 1.5-24 1-18.9-1.2-34.5-6-49.4-17.6-4.3-3.3-6.6-8.3-10.8-11.2-6-4.2-15-6.2-21-10-3.4-2.1-6.4-5.7-10-8-4.8-3.2-11.2-5-15.3-7.7-7.5-5-14.7-23.7-19.6-31.4-11-17.2-24.7-32.4-32.4-51.6-2.3-5.6-12.9-34.1-13-38-.2-13.3 10.3-1 14.3 1.7 2 1.3 15.5 7.9 16.7 6.8-2.6-7.1-6.1-15-6.9-22.6-1-9.1 1.3-18.7-1.4-27.6-2-6.4-7.5-11.9-10.2-17.8-1.6-3.5-7.4-19.6-8.1-23-.2-1.2-.5-2.2-.4-3.5 1.4-14.9 20.1 9.6 23 10.9s4-.7 5-3.1c2-5.2 8-28 8.1-33 .2-6.5-6.1-9.3-10-14-15.1-18-17.1-30.8-18.1-53.9-.3-8.7-.7-20.6 0-29.1.5-6.5 3.5-12.9 4-19 .8-8-1.3-16.6-1-25 .4-10.6 2.9-22 3.2-32.8.3-.9 9.9-8.5 11.1-9 2.8-1.1 5.1 1 6.2-.7 3.7-11 4.6-23.9 8.3-34.7 2.8-8.3 9.6-22.2 13.8-30.2 1.4-2.7 12.3-21 13.4-21.7 1.9-1.2 4 .3 5.4 1.6.9.9 11.7 17 12.1 18 1.7 4.8-3.8 8.5-6.3 12.6-10.2 17-24 56.3-23.2 75.8.9 22.1 6.1 45.8 7 68 0 3 .7 10.1-.9 12.1-5.3 6.9-10.3-9-11.6-12.6-2.2-6.2-6.4-25.7-10.6-29.4-1-1-2.4-1.7-3.9-1.6-2.7 12.6-4.9 25.6-6 38.5-.7 8-2.6 30.9-.2 37.2.6 1.7 2.7 3.7 3.7 5.3l35.3 34.6-13.5 50.2c-1.5 12.4-3.1 25.1-2.3 37.7 0 2.2 1 11.3 1.5 12.5.7 1.6 5 4.6 6.5 6.5 9 11.6 13.8 27.2 30 29.5-.9-10.5 2.3-20.8 6-30.5.9-2.4 1.8-6.1 4-7.5 0 7.9 13.2 48.4 18 51.5 1.8 1.2 4.5-2.3 5.6-3.5 6.6-7.9 9.6-20.1 11.5-30l11 24c.9-5.7-4.9-19-1.5-23 1.2-1.4 3.5-1.8 5-3 7-6.1 16.7-42.5 17.5-52.5.5-6.5-.5-13.3 0-19.9 1-10.5 8.4-18.7 5.4-29.7-3.8-6.7-9.9-40.4-13.6-44-.6-.5-2.7-.2-2 1.5l-10 49.5c-7.4-25.5-3.8-52.2-6-78.4-7-3.2-12.6-3-17.3-9.9-9.4-14-11.8-27-12.8-43.7l-13.8 44.7c.2 5.6-.7 14.7-7.7 15.3-14.2 1.4-8-26.9-9.8-35.4-.7-3.3-5-8.4-6.5-12.5-7.9-21-2.4-52.2 6-72.5.7-1.8 5.3-12.2 5.8-12.7 2.5-2.5 2.2 6.4 3 7 .3.2 5.3-3.1 7.9.6 1.8 2.5 1.6 22.5 4.6 22.4 9.5-13.2 18.2-27.8 31-38 4.7-3.8 11-8.9 11.5 1l9-5c-6.8 18.4-11.5 37.4-7 57 7.6-9.3 15.8-19 28-22 .9 4.2-1.1 8.7-1 12.4.2 12.9 9.2 50.9 17.5 60.6 1.8 2 3.7 3.6 6 5-1.7-15.5.2-30.7 2.5-46 2.7-.4 1.5.2 2 1.5 4 10.9 5.6 24.8 9 36.1.3 1.1.4 3.1 2 1.5s5.2-14.7 5.7-16.8c1.8-7.3 2-14.8 3.3-22.2 5.8 6.1 7.9 14.8 11 22.5.5 1.2-.8 1.9 2 1.5l7.2-29.4c.5-1.7 2.8-1.3 3.6-1.9 1.9-1.6-.8-5 5.5-3.5 13.5 3.1 28.3 22.4 38.2 31.8l16.5 14c-1.8-9-.2-18.2-1.3-27.2-1.5-12.5-10.2-25-11.7-37.8 1.9-.4 2.4 1.1 3.5 2 19.8 16.3 19 27.2 26.5 49.5.4 1.1.6 3.6 2 3.5 5.6-34.7 8.9-71.5-.9-105.6-1.5-1.1-29.9 5.8-34.6 5.6-1.4 0-5.3-1.4-6.2-2.3-1.5-1.6-1.9-17.8-2.5-22-1.6-10.5-6.3-22.9-6.8-33.2-1.1-25.2 16.3-73.1 32.5-92.6 2.9-3.4 6.8-6.4 9.5-10-2.5.5-5.3 1.7-7.5 3-15.8 8.7-40.1 25.4-54.4 36.6-8 6.3-36.3 32.5-41.1 39.9-2.1 3.3-3.5 9.1-5.8 13.2-5.2 9.2-12.6 18.7-16.7 28.4-4.9 11.5-6.3 24.2-10 36-2.7 0-1.1-35.7-1.5-39.6-.5-4.9-6-14.9-9-19-7.8-10.1-34.2-26.7-36.8-38.2-1.7-7.7-1.1-23.5 0-31.5.4-3 2.3-5.8 2.7-8.3 1.1-7.6-1.6-16.2 2.6-23.5 1.5.4 4.5-4 5.5-3s1.7 5.2 1.8 5.7c1.2 7.7-1.5 18.9-.7 27.8 2.3 26.6 22.1 40.4 41.5 55.5 2.4 0 33.9-24.6 38-28 20.5-17.5 34.6-31.1 58-46 10.7-6.8 29.9-19.5 42.1-20.9 8-.9 10.3 6.3 7.6 12.7-1 2.5-11.5 12.4-14.2 15.8-14 17.2-25 43.4-29.7 65.3-4.3 19.6 1.8 33.5 4.7 52.7.3 2.1-.2 4.4 0 6.5v.2Zm142 387c10.7-14.4 24-31.3 28.5-49 6.1-23.7-2.1-31.4-6.9-52.2-3.1-13.1 0-23.6-.6-36.4-.4-7.3-2.4-15.5-3-22.9 1.6-5.8 7.8-7.4 10.8-12.2 5.8-9.1 3.6-24.3 2-34.7-1.7-11.3-9-24.8-9-36.1s8.2-22.1 9.1-32c.5-5.1-1-29.1-3.5-32.4-1.6-2.2-10.5-2.7-14.2-3.8-25.2-7.4-51.9-15.2-66.7-38.3l-9.6-18.9c-2.7 13.4-3.8 26.7-1.9 40.4 2.8 19.9 11.7 37 15.6 56.4 2.8 13.9 3.7 29.3 6.7 43.3l1.5 1c3.3-7.2 8.8-21.9 14-27.5 2-2.2 19.8-11.7 21-10.5-4.5 9.7-12.4 16.6-10.9 28.4 1.7 13.3 21.8 23.1 22.9 33.1 1.5 12.9-1.9 28.8-10.9 38.3l-13.1 39.2c-2.3.5-1.6-.3-2.2-1.3-1.3-2-2.3-5.6-3-8-4.1-13.2-5.4-28.5-9-42-.3-.9-1.5-2.5-2.4-2.7-4.6-.7-17.5 27.5-23.4 30-.2-11.9-3.4-23.2-5.7-34.8-2.1-10.5-2.4-20.5-8.3-30.2-1.4 0-1.6 1.5-2 2.5-9.9 19.5-13.7 37.2-30.9 53.1-5.3 4.9-12.4 6.8-19.5 5.4-8.1-1.5-6.8-20.8-7.8-27.2 0-.9-.4-3-1.7-2.7-5.6 22.2-14.3 54.4 8.5 70 8.2 5.6 11.5.2 12.6 13.5 2.9 37-2.6 77.5-11.9 113.2-1.7 6.6-4.4 12.8-6.1 19.4 17-7.8 28.9-21.2 36.2-38.3l22.8-56.7c1.6.2 1.9 4.3 2 5.5 1.4 17.5-3.3 40.2-5 58-.7 7 .3 14.4-2 21.5l11.5-7c16.4-18.8 35.5-37.2 43.8-61.2 6.4-18.8 10.4-40.3 16.4-59.5 2.8-8.8 6-17.8 9.8-26.2 2.4 10-1.3 21.8-.5 31.5.9 10.7 8.4 22.3 5 35l-9 66.5zm-138.2-80.9c-16.2-6.2-28.6-25.6-32.6-41.9-3.1-12.9-1.8-26.8-6.8-39.2-8.4 13.9-22.1 21.9-34 32-11.1 9.4-28.7 25.5-30.4 40.6-.8 6.8 0 12.3-1.4 19.6-2.7 13.3-9.4 28.8-10.7 42.3-.6 6.5-.2 35.9 4 40 1.4 1.4 1.7.7 2.3-.8 2.4-5.7 1-14.4 1.8-20.3.2-1.4.6-3 2-1.5.4.4 2.4 9.3 2.7 10.8.8 3.9.7 8.6 1.6 12.4.2 1 .4 3 1.7 2.8-.2-4.9 2.8-9.9 3-14.5.2-3.8-1.2-7.1-1.1-11 .2-11.5 4-24.3 8.1-35 .6-1.5 1.4-5 3-5.5-1.4 28.1 1.9 55 8.3 82.2l3.7 7.8c-.2-7.3 1.9-15.4 2.1-22.5.3-12.2-.3-24.6 1-37 .7-7.1 3.7-13.6 5-20.5 1.7-.2.9 2.3 1 3.5.2 5.5.2 11.6 0 17.1 0 4.6-1.8 9.1-1 14 .6 4 7.5-1.4 9-3 7.1-7.7 12.3-22.9 19.2-30.8.9-1 1-2.1 2.8-1.7l-2.9 52.4c1.5 6.5 1.2 13.4 2 20 .2 1.5.5 6.1 1.9 6.6 14.8-38.5 28.9-77.8 34.9-118.8h-.2ZM915.5 914v1c.7-.3.7-.7 0-1" class="outline shading" data-original-prefix="shading" opacity="0.5" style="opacity: 0.5"/><path id="outline-head" fill="#000000" d="M1279.5 805c.4 0 1.8 1.5 1.3 2.3-8.8 26.2-11 55.3-18.1 81.9-7.3 26.9-40.6 46.1-46.3 77.7-.7 4 .4 11.6-2 14-1.4 1.5-11.7 5.3-14.8 7.2-13.8 8.2-27.9 20.9-41.8 30.2-17.5 11.8-34.4 21.5-51.4 34.6-5.6 4.3-11.2 10.9-17.2 14.8-12.6 8.1-53.4 24.4-67.9 25.2-28.3 1.6-36.5-13.9-57.2-25.8-15.4-8.9-27.8-5.4-43.3-9.7-10.1-2.8-20.3-10.5-30.4-13.6-4.5-1.4-11.1-1.4-14.8-3.2-4.2-2-12.3-15.5-16.2-19.8-4.5-5-11.3-11.2-16.5-15.5-11-9.1-32.7-20.3-41-29.3-5.4-5.8-27.5-42.5-31.2-50.5-19.5-43.1-11.7-88.6-13.8-133.2 0-2.9-5.3-26.2 3.5-19.5 7.1 8.9 12.8 20.4 20 29 1.6 1.8 3.7 2.8 5.5 4.5 3.9 3.9 4.4 10 10.4 2.5 10.6-13.2 0-30.3-9.4-40.5-6.5-6.9-18.7-12-19.9-22.1-2.3-18.3 7.5-45.1 9.8-64 3.3-27.9 1.4-53.6-.6-81.2-.3-5.1-2.2-15.3 5.1-14.2 2.8.4 15.7 14.3 19.1 9.1 1.7-2.6 1.9-21.9 2.6-26.4 1.5-10.8 4.3-24.1 7.4-34.6 3.9-13.3 10-25.7 18-37l11.9 11.1c6.2 3.3 4.1-4.4 4.8-8.3 8.9-47.4 27.5-82.9 59.2-118.8 2-2.3 14.6-16 16-16 .3 12-2.9 24.4-3.5 36.5-.8 16.3-2.7 43.6 8 56.1l31.6 27.5 1.3-.2c42.8-48.1 96.1-89.5 159.1-106.8.3 1.5-.3 2.4-.9 3.6-3.3 6.9-8.9 14.4-12.6 21.4-20.1 38.9-38.2 88.4-24.4 132 2.7 1.9 34.8-14.5 39.9-16l2 29c1.6 1.7 22.7-14 26.3-15.2 1.6-.5 3.1-1.5 4.8-.3 1.2.8 7.9 23.2 9.8 27.3 10.7 22.8 33.2 32.4 57.7 31.3 12.1-.5 23-7 34.5-10 5.8 24 5.6 48.9 5.1 73.5-.3 13.7-4.2 31.3-.5 44.5 3.5 12.4 10.4 23.6 16 35 2.7 5.4 4.3 7.5 2.5 13.6-4.8 16-17.9 37.2-20.6 52.4-.2 1.2-.6 4 1.1 4 4.9 0 18.5-1 22 0Zm-341 247c7.9 1.2 18.3-.9 26.5 0 1.5-4-1.5-4.8-1.9-5.8-6.7-17.2-15.5-33-19.6-51.2-6.1-26.9-9.1-62.8-10.5-90.5-.7-12.9 2.9-24.4 4-37 1.4-15.7 0-49.1 7.2-61.8 3-5.3 10.6-11.6 12.1-16.9 4.9-17-11.8-45.1-16.8-61.8-5.3-17.5-7-37.1-11-55-1.4-1.8-1.4-.3-2.3.7-11.9 12.7-17.1 31.3-13.2 48.3-2.4 3.3-17.8-7-19.8-9.6-3-3.9-12.1-28.2-12.1-32.9V664c-1.7.4-2.2 2.3-2.8 3.7-23.2 55.7-18.2 138.1-6.9 196.5 1.2 6.2 4.4 13.1 4.7 19.3 0 2-.2 1.6-2 1.5-3.8-11.8-9.7-23.4-13.3-35.2-12.2-40.2-17.2-102.7-9.2-143.8 1.1-5.6 6.9-21.7 6.5-25.5 0-1.3-7.8-13.5-9.2-16.9-8.8-21.6-8.8-50.7 4.2-70.7 2.6 0 0 3.9 0 4.5v27c0 5.2 6.9 22.2 10.6 26.4 3.9 4.5 2.8 1.4 4.6-1.2 13-18.9 21-42.5 40.8-55.7-2.6 12.1-8 23.7-10.7 35.8-4.7 20.9-6.4 40.6 1.7 60.7.5 1.2-.8 1.9 2 1.5 1.5-6.6 3.8-14.7 6.5-21s7.6-11.5 10-17c5.9-13.7 9.5-26 17.3-39.7.9-1.6 1.8-4.9 4.2-4.3-3.1 13.2-7 23.6-6 37.5.5 6.8 3 11.9 3.9 18.1 1.1 7.3 1 15.1 2.4 22.6 5.4 29 21.1 57.3 33.3 83.8 1.2.2 2-.5 3-1 4.2-2.1 17.7-24 20.6-29.4 18.3-34 8.2-75 10.9-112.2l-3-33.5c4.8 6.8 9.5 15.9 12.8 23.6 7.1 16.3 14.9 41 19.7 58.3 8 29.2 7.8 61.4 10.5 91.5.9 9.7 3.3 19.4 4 29 1.3 17.4-5.5 27.1 16.8 31.2 3.8.7 14.5 0 15.2 3.8-2.8 48.6-10.2 98.8-24.7 145.3-4.2 13.3-18.4 47.8-28.8 56.2-1.1.9-1.6 2.4-3.5 2 2.1-5.4 2.7-17.9 5-22.3.5-1 4.3-1 6.5-3.7 5.2-6.5 12.9-39.3 15.1-49 6.2-27.8 17.2-80.5 13.5-107.6-.6-4.6-9.8-9.2-13.5-12.5-19.1-17-12.2-27.6-13.5-50.5-2-34.6-3.8-76.4-12.3-109.7-1.7-6.9-3.5-14.3-8.2-19.8-.4 10.5 2 22.1 1.5 32.5-.7 15-3.2 35.8-5.1 50.9-1 7.7-5 27.4-7.8 34.2-1 2.3-2 2.8-3.8 4.2-18.9 14.8-52.5 17.4-53.2 48.8-.4 17.4 1.9 27.9-1.6 46.4-4.6 24.7-6.3 39.8-5.6 65.5.9 31.3 4 45.9 16.9 74.1 8.4 18.4 11.1 24.5 25.1 37.9 7.3 7 19.9 20.3 29.8 22.2 21.4 4.1 78.1-23.8 88.4-43.1 8.1-15.2 9.2-34.8 10.8-51.7 1.8.4 1.9 2 2 3.5 1.4 12.4-.9 27-1 39.5 14.1-14 26.6-30.5 37-47.5 24.7-40.3 43.8-86.4 50-133.5l3.9 8.5c-.9 7.6 4.4 14.8-2.5 20.4-4.9 20.9-8.7 42.3-15.2 62.8-6.1 19.2-18.6 34.2-28.4 51.6-1.7 3-12 21.1-10.8 22.7 10.5-5.5 18.1-14.9 27-22.5 6.4-5.5 17.8-11.7 22.4-18.5 6.4-9.4 12.2-27.4 18.4-38.6 8.1-14.6 25.1-34.5 30.6-48.4 3.6-9 7.8-31.5 9.3-41.7.9-5.7 1.4-11.5 1.3-17.2-2-2-23.7 5.3-28 4.5 1.7-7.6 4.4-15 6.6-22.5 5.2-18.5 15.1-45.9 13.4-64.5s-12.4-36.6-18.9-54c5.9-20.2 10.2-42.9 8.9-64-.2-2.4-1.1-12-2.6-12.4-.8-.2-12 3.5-15.1 3.8-26.3 2.5-67.9-15.1-80.1-39.7-1.5-3.1-5.5-17.2-6.2-17.8-1.2-.9-1.9-.4-3 0-2.7 1.2-11.7 8.9-12.1 11.9-1.5 11.1 1.9 37.2 4.3 48.8 2.7 12.6 9.2 22.8 13.2 34.8 7.3 21.7 7.9 45.4 13.8 67.2 1 3.7 4.7 12.1 8 5.5 2.2-4.5 3.2-16.8 5-23 3.9-12.8 12.2-29.8 24.7-35.8-.9 5.7-5.4 10.1-6.7 15.8-4.5 18.3 2.4 43.2 7.2 61.3 2.8 10.3 7.1 13.7 5.3 26.2-.7 4.8-7.6 25.5-9.7 30.3-.7 1.5-1 2.8-3.1 2.4-3.7-13.8-.7-26.8-1-40.5 0-4.2-.6-11.8-1.1-15.9-1.1-7.9-7-17.3-7.9-25.6-4.7 0-2.6 6.6-3.2 10.2-.5 2.5-2.1 8.9-3.3 10.7-1.9 2.8-5.8 2.9-7.9 5.1-1.4 1.5-7 19.5-10.6 16-5.3-32-9.2-64.2-16.7-95.8l-5.2-13.2c-.8 6.4-.3 14.2-1.1 20.4-2.8 21-14.9 80.6-26.4 96.6-3.9 5.3-7.3 6.7-13.9 6.1-15.3-1.4-7.4-11-7.4-21.5s-2.7-23.9-4.2-33.8c-2.8-17.6-6.7-35-12.8-51.7 1.1-1.2 4.7 3.2 5.4 4.1 6.5 8 11.9 23.9 15.1 33.9s5.1 25 9 34c.5 1.1 1.9 4.2 3.5 3 1.1-.8 5.2-14.1 5.9-16.6 11.8-42.3 12.9-76.2 9.1-119.9-1.8-20.2-5.1-40.5-8-60.5-14.3 4.2-27.2 12.9-43.1 9.6-2.8-1.9.2-21.6 0-26-.2-8.7-4.8-19-4.9-26.9-.5-24.5 10.3-62 23.1-82.9 1.7-2.8 12.5-15.8 10.8-17.7-10.1 1.9-16.2 9.1-24.1 14.4-47.2 31.4-86.6 63.6-116.1 112.9-4.7 7.9-9.4 16.1-12.8 24.7-1.8-.7-1.1-5.9-1-7.5.2-3.6.6-9.5 1.2-12.8 1.2-7 10-27.5 8.7-31.9-.3-.9-3.4-4.7-4.3-5.7-7.3-8.4-18.4-15.1-25.2-22.4s-11.2-28.7-11.4-39.2c0-4 2.3-22.7 1-24.5-2.9 1.1-4.2 3.2-5.9 5.5-20.7 28.3-33.7 70-34.1 104.9 0 10.3 1.4 21.3 2 31.5-2.3 2.1-19.7-10.6-22.5-13-2.5-2.2-7.2-10-10.9-8.9-.2 0-3.5 3.5-3.6 3.7-6.3 15.6-14.5 50.4-12 66.6.6 4 5 8.6 6.5 13.5 5.3 18.3 9.2 49.5 9.5 68.5.3 13.6-1.3 27-1.1 40.5-1.5.2-1.2-1.9-1.5-3-2.8-12.5-6-25.2-8.2-37.8-2.7-15.2-2.7-33.5-8.3-47.7-4.3-11.1-13.9-20.9-22-29.5 1.2 6.7.3 13.7 1.1 20.4 1.6 14 5.1 22.4 3.9 38.1-1.1 14.7-8.1 28.9-10.7 43.3-.9 4.8-2.8 19.4-2.3 23.8 1 8.5 11.6 16.2 16.5 22.5 5.5 7.2 9.8 16.5 15.6 23.4 1.4 1.7 6.9 5.8 7 6.2.8 3.2-5.2 20.5-6.3 25.5-3.4 15.1-8.4 57.3-2.9 70.6 1.1 2.6 7.4 7.7 8 10 1.3 4.3-.7 9.2-.6 12.8 1.2 29.9 30.4 88.8 50.8 111 1.9 2.1 7.2 7.6 9.5 8.5 2.1.8 1.6-2.2 1.5-3.5-1.2-18.6-4.4-39.1.2-57.7.2-1 .3-3 1.7-2.8 0 20.1-.8 45.7 10.2 63.3 8.5 13.6 28.5 26.4 44.3 28.7zM786.1 833c-4.5-8.1-9.7-16.2-16.1-23 1.2 13.3-1.4 27.4-1 40.5.7 24.1 6.2 65.7 23 84 1.3 1.4 5.5 5.6 6 2 1.3-10.1-1.9-21.2-4-31 0-.9 1.9-.6 2-.5.3.2 3.8 5.5 4.2 6.3 8.1 14.3 5.6 31.9 11.9 47.1 4 9.6 12.4 19.2 21.8 23.6-9.2-23.6-18.8-47.3-22.9-72.6-.6-3.4.5-7-.6-10.4-1.5-4.8-11.4-8-12.4-12.7 2.5-15.6-.5-31.2-.2-46.8 0-5.1 2-11 1-16.5-3.7 4.9-6.3 8.8-12.9 10z" class="outline" data-original-prefix="outline"/>
    </g>
</svg>