<?xml version="1.0" encoding="UTF-8"?>
<svg xmlns="http://www.w3.org/2000/svg" viewBox="0 0 2048 2048">
  <style>
      .outline { fill: #000000; }
      .fill { fill: #FFFFFF; }
      .shading { fill: #aaaaaa; opacity: 0.5; }
    </style>
  <g class="trait-group" data-category="background" id="background-yellow">
      <path class="color" id="color-yellow" d="M2048,0v2048H0V0h2048Z" style="fill: #ddb305" fill="#ddb305"/>
    </g><g class="trait-group" data-category="jaw" id="jaw-OG">
      <!-- Generator: Adobe Illustrator 29.1.0, SVG Export Plug-In . SVG Version: 2.1.0 Build 142)  -->
  <defs>
    
  </defs>
  <path id="fill-jaw" class="fill" d="M1396.7,1438.7c-6.7,4.3-46.8-1.7-48.7.3l-12.2,69.8-57.2,29.3-1.4,1.6c-1.5,11.9,1.5,24.2.9,35.9-.3,4.9-1.3,15-2.3,19.7-.6,2.8-13.7,32.2-15,33.5s-16.1,8.9-16.7,8.3l-9.5-50-51,52c-7.7,5.7-20.7,9.3-27.5,15.5-14,12.7-25.2,37.4-42.1,47.9-5.4,3.3-61.3,25.7-66.7,26.3-13.8,1.7-33-3.3-47.7.2-17.7-10.3-50.1-16.2-66.1-26.9-14.3-9.6-28.3-35.6-41.4-47.6-6.7-6.1-19.9-9.6-27.5-15.4l-51-52-9.6,48.4c-.6.9-.9,1.7-2.2,1.5-.8,0-13.8-7.6-14.4-8.2-1.4-1.4-15.9-33.3-16.2-35.3l-.5-54.4-58.2-30.3-12.3-69.7c-8.1-1.2-45.1,3.9-49.5-1l-37.1-85-.5-3.4,31.5-70.6c5.3-1.6,29.1,0,31.3-6.7.8-2.3-.6-19.5-1.3-22.4-2.2-8.4-16.2-24-19.8-33.2-.7-1.7-1.2-3.1-.6-5,4.7-11.3,10.3-22.3,14.1-34,7.3-22.4,7.2-42.6,16.9-65.1,47.5-110.2,188.9-176,299.9-200.1,44.7-9.7,79.8-1.5,122.7,11.2,98,28.9,222.6,97.5,259,199,6.8,19,7,38.1,13.5,57.5,3.8,11.2,10.1,22.1,13.7,33.4,0,1.4-8.3,16.4-9.8,19.1-2.4,4.3-9.7,13.4-10.7,17.3-1.8,6.8-.6,15.6-2.3,22.5,9.9,7.9,21.3,4.2,32.4,6.5,9.6,23.9,23.5,46,31.4,70.6-9.8,26.3-22.2,51.8-33.2,77.7-1.3,3-1.7,9.3-5.1,11.4h0Z" fill="#ffffff"/>
  <path id="shading-jaw" class="shading" d="M1380.8,1185.8c-.2.4-2.1.7-2.8,1.7-8.6,10.8-16.2,26-21,39-4.2,11.4-5.1,22.7-13,32-18.8,22.4-51.8,45.5-78.3,57.7-5.4,2.5-12.5,3.7-16.7,7.8h20.5c2.7,0,5.1,1.2,7.9,1.1,18.1-.2,64.4-19.8,77.5-32.6,5.7-5.5,14.1-15.7,15-23.5,1.8,0,.7,2.4,1.5,4,3.1,5.9,15.5,5.2,21.5,6,.2,1.6-1.5.7-2.3,2.2-4.6,8.3-4.4,21.6-10.6,28.3-7.5,8.1-37.1,13.5-48.8,17.2-14.5,4.6-29.8,8.8-42,18.1l-52.8-14.8c-19.3-2.3-9.9,15.4-5.3,25.3,5.2,11.3,20.7,40,30.4,46.6,11.9,8.2,22.7-10.2,30-17,6.3-6,16.2-11.8,24.6-14.4,17.7-5.6,32.3,4.7,50.5,5.4,17.4.8,34.6-7.7,48.8-17.2,3.6-2.4,14.6-13.9,17.2-13.8,1.7,0,3.3,6.1,1.8,7.8-10.1,24.3-21.6,48-31.8,72.2-3.7,8.8-.8,14-13,15-9.3.7-15.8-1-24.2-1.8-4.8-.4-11.8,2.5-17.3-.2l-12.9,70.6-59,30.5c.4,11,2.6,23.6,2,34.5-.3,5.7-1.3,15.4-2.1,20.9-.5,3.1-13.4,31.4-15.4,33.6-3,3.2-11.6,6.2-15.5,9-.8-4.9-2.7-10.6-3-15.5-.6-11.2,2-11.3-2.7-23.2-.4-1.1-1.9-1-2.2-2-.8-2.2-.8-6.7-1.1-9.2l-2.3.2-50.2,51.8c-7.7,5.2-19.5,8.7-26.5,14.5-14.2,11.7-24.4,36.1-41.5,47.5-6.7,4.5-54.2,25.7-61.2,26.8-9.9,1.5-51.8,1.6-61.5,0-6.9-1.2-49.7-20.5-57.3-24.7-15.8-8.9-30.2-37.8-44.4-49.6-6.9-5.7-19-9.3-26.5-14.5l-51-52c-1,8.1-7.3,16-8.1,24-.6,6.2.6,14.6-.3,21.6-.2,1.7-3,1.8-2.1,4.4-.6.7-14.6-8.1-15.5-9-1.7-1.8-15-30.8-15.4-33.6-.7-4.4-.9-13-1.1-17.9-.5-12.2.6-24.4.5-36.6l-58.5-31.4-13-69.5-48.8-.2-38-86.6.9-6.2c8.2.4,11.8,8.2,18.6,12.7,25.3,16.9,38.4,19.8,68.5,13.9,17.1-3.4,19.1-7.5,37.2.4,15.9,7,19,16.2,30.6,25.4,9.6,7.6,13.6,7.9,22-1s31.8-49.1,32.1-60c.2-8.7-6.4-8.1-13.3-7.2-8.6,1.1-48.4,15.1-51,14.6-1.7-.4-12.3-7.9-16.5-9.6-20.3-8.4-48.8-11.8-67.2-20.8-14.9-7.3-11.3-20.9-17.7-33.2-.9-1.6-2.5-.6-2.3-2.2,6.3-.9,17,0,21-5.5,1-1.4.3-3.7,2-3.5,3,11.7,15.2,23.9,25.1,30.4,21.2,13.8,50.4,23.7,75.4,23.5h20.5l-34.7-16.8c-19.1-10.8-48.2-33.1-61.8-50.2-6.2-7.8-7.1-18.3-10.5-27.5-6-16.6-14.4-32-25-46,1.3-9,6.5-19.6,7.8-28.2,1.9-12.9,1.8-19.5,6.5-32.5,36.4-101.1,159.2-169,256.8-198.2,49.9-15,102.4-18.2,153.2-5.2,103.5,26.4,242.6,100.3,277.2,208.8,3.4,10.5,3,17.3,4.8,27.2.8,4.7,8.9,28.4,7.6,30.6l-.5-.2ZM1195.9,1382.1c-32.3-16.1-63.1-35.3-95.9-50.7-17.5-18.7-37.4-36.6-54.6-55.4-4.8-5.3-11.2-16-16-20-3-2.6-7.4-3-10.6-.6-4.5,3.4-12.7,16.4-17.4,21.6-16.7,18.6-36.8,35.6-53.6,54.4-32.9,15.3-64,34.2-96,51.2-.6,2.8,12.4,35,14.6,40.3,2.9,7.1,12.1,31.7,16,36.1,7.1,8,36.5,26.3,47,33,19.8,12.7,36.1,22.9,59.3,28.7,27.3,6.8,39.7,7.1,67,.6s43-16.6,65.7-31.3c10.4-6.8,35.9-22.5,43.4-30.6,4-4.4,12.7-27.4,15.6-34.4,2.1-5.1,16.8-41,15.5-42.9M728.3,1496.7c1.6,2,8.2,6.3,10.7,7.8,14.7,8.8,31.8,13.8,46.9,23.1,16.8,10.2,40.2,33.1,59.6,33.5,2.3,0,8.7-1.2,9.4-3.7s-13.6-27.6-16.4-30.3c-7.3-7.1-27.5-17.2-37.2-23.8-15.2-10.3-50.3-39.1-67.9-39.2-10.5,0-8.7,28.1-5.1,32.7h0ZM1319.7,1466.3c-5.9-5.9-24.1,4.1-30.4,7.6-16.2,8.9-31,21.4-46.2,31.8-12.7,8.7-30.1,15.7-38.6,28.4-2.2,3.4-10.8,17.7-11.4,20.7-1.1,5.3,6.2,6.5,10.3,6.3,16-.9,23.4-9.7,35.2-17.8,9.2-6.3,19.3-13.6,29-19,11.7-6.6,47.1-19.2,52.7-29.3,2.4-4.3,2.8-25.2-.7-28.6h0ZM1126,1664c-12-2.7-20.7,6.6-31.6,7.9-5.7.7-12.2-1.2-16.6-.7-7.1.8-22.9,12.1-31.2,14.9-14.8,4.9-30.2,4.7-45.1,0-8.8-2.8-23.9-14.1-31.2-14.9-4.4-.5-10.9,1.4-16.6.7-11-1.3-19.9-11-31.6-7.4,0,6.9,23.8,23.5,30,27,12.5,7.1,59.8,26.8,72.5,26.6s59.9-19.8,72.2-26.9c10.3-6,24.6-16.2,29.3-27.2h-.1Z" fill="#aaaaaa" style="opacity: 0.5" opacity="0.5"/>
  <path id="outline-jaw" d="M676,1140c5.3-3,18.5-3.6,19.1,4.5-2,7,0,18.6-3.2,24.9s-17.1,12.9-20.3,20.7c-1.1,2.6-6.2,25.4-6.5,28.5,0,1.3-.2,2.3.2,3.6,1.8,6.8,14.7,21.7,18.7,29.4,5,9.8,6.5,20.8,10.3,30.7,5.7,14.4,14.5,13.4,26.1,19.9,7.6,4.3,16,10.2,22.7,15.8-3.8,0-7.5.2-11.2-.2-8.4-1.1-30.6-5.8-38-8.9-9.8-4.2-8.9-17-13.8-20.2-2.7-1.8-8.7-1.2-12-2-6-1.4-9.7-6.6-16.7-1.3-6,11.6-13.4,22.6-19.2,34.3-7.3,15-16,27.5-6.5,43.3,5.5,9.2,23.4,26.5,26,35,2.4,7.9-2.3,28.2,2.4,33.6,7.5,8.5,28.6,4.4,35.5-3.6,2-2.4,2.5-6.3,4-9,6.3-10.9,19-25.2,30.7-30.3,12.2-5.3,16.1,11.4,18.4,20.3,3.6,14.2,1.3,26.5,12,38,6.7,7.3,18.2,14.5,27.2,18.8,4.7,2.2,21.2,9.9,25.3,10.7,12.8,2.4,25.4-6.5,32.6-16.5,2-2.8,2.8-6.3,4.7-9.3,9-14.8,16.3-6.2,25.8,1.8,11,9.2,20.9,19.8,32,29,45.8,38.3,90.7,54.1,151.4,45.3,58.2-8.4,83.7-40.7,125.7-75.3,2.2-1.8,8.8-7.7,10.8-8.2,12.1-3.2,14.2,10.5,19.7,17.8,5.7,7.4,15.3,15.6,25,16,7,.3,27.7-8.7,34.9-12.2,10.9-5.3,28.8-17.6,32.4-29.6,2.2-7.6,2.6-17.3,4.6-25.4,2.3-9,6.1-26.7,18.6-21.2,9.4,4.1,22,16.8,27.5,25.5,5.6,8.9,3.9,13.8,14.9,19.1,7.3,3.5,20.9,5,27.1-1.3,5.8-5.8.5-25.5,3-34,2.6-8.8,20.8-26.2,26.4-35.6,8.1-13.8,2.8-20.8-3-33.7-6.7-15-15.5-28.9-23.1-43.4-6.9-5.2-11.2-.2-17.5,1.5-3,.8-8.4,0-11.2,1.8s-5.1,12.8-8.6,16.4c-2.4,2.4-6.7,4-9.9,5.1-7.8,2.7-25.9,6.9-34.1,7.9-3.4.4-7,0-10.4,0,6.2-5.6,14.7-11.2,22.1-15.4,10.5-5.9,20.2-6.1,25.7-18.3,4.2-9.5,5.8-20.9,10.4-30.6,4.3-9,17.4-23.9,19.4-31.6.4-1.7.5-2.5.2-4.2-.6-4.5-5.3-24.5-6.9-28.2-3.4-7.8-19.2-16-20.8-22.2-.9-3.4-2.7-24.1-1.6-26.4,2.2-4.5,13.6-3.5,17.5-1,.8,2.8,2.9,13.6,4.2,14.8,4,3.5,21.3,4.8,24.5,11,2.5,4.8,0,15.5.2,21.8,0,2.9.8,7.8,1.3,10.7,1.5,8.6,9.7,23.3,7,30.5-2.3,5.9-12.8,22-16.8,28.2-3.3,5.1-7.9,9.5-10.4,15.1.7.7,9.7-4.6,10.9-5.6,5.4-4.1,7.6-12.1,14.6-5.5,4.7,4.4,13.6,18.5,17.5,24.5,10.1,15.9,19.6,34.4,25.7,52.3,1.6,4.7,5.8,14.8,3.7,19.2-.7,1.6-9.2,9.8-11.3,12.7-16.3,21.9-31.2,47.4-32.7,75.3-.8,1.3-2.2,1.8-3.5,2.5-5.7,2.8-27.3,11.7-32.6,12.4-3,.4-6.5.3-9.5-.3-4.5-.9-7-4.1-10.9-5.6-1.1,9.1-2.6,18.4-3,27.5-.4,7.8,1.5,32.2-.6,37.4-.4,1.1-11.8,14.9-12.7,15.3-3.8,1.8-11.7.3-16.3.7-13.5,1.3-21.2,15.2-25.2,26.8-4.6,13.3-5.2,27.9-9.2,40.8-5.8,19.3-37.7,50-54.2,61.8-.9.6-4.2,3.4-4.9,2.6,1-15.3,2.8-31.2-2.6-46-.3-.9-1.8-5.7-3.4-4-.6.6-3.5,12.5-6.2,16.3-8.3,11.9-29.2,7.9-37.8,19.2-9.5,12.3-7.6,28.7-22.1,38.9-32,22.4-79.6,38.4-117.7,46.3-12.4,2.6-16.8,2.3-29-.4-35-7.6-67.9-18.6-99.2-35.8-5.1-2.8-20.9-11.4-23.8-15.2-6.2-8-8.6-25.8-15.6-34.4-9.6-11.7-30.7-5.5-39.2-21.8-1.5-2.8-3.8-12.7-4.3-13.2-1.8-1.8-3.8,4.8-4,5.4-4.5,13.8-3.1,29.3-2,43.5-1.7,1.8-16.8-10.7-19-12.5-15.1-12.7-36.9-37.3-41.5-56.5s-7.6-59.5-33-62c-4.4-.4-13.1,1-16.5-.5-.9-.4-12.1-14.4-12.5-15.5-2.6-7.5-.2-27.3-.6-36.4s-2.3-19.1-3-28.5c-.4-.5-9.5,5.3-11.7,5.8-13.3,2.8-32.2-10.6-45.1-13.9-.7-27.4-14.8-51.6-30.3-73.2-2.2-3.1-4.5-6.2-6.8-9.2-4.1-5.2-7.9-4.8-6.9-12.9,1.3-10.6,13.1-35.4,18.4-45.6,3.6-6.8,26.1-44.2,31.2-45.8,7.3-2.2,13.1,11.5,21.3,11.8l-25.5-40.9c-4-9.3,4.3-21.7,6.2-31.8s.2-19.2,1.3-28.7,18.5-11,25.8-14.7c2.6-2.8,1-6.8,1.5-9,.4-1.9,1.3-3.7,1.8-5.8h-.5ZM799,1627.5v-20c0-3.1,8.8-25.7,11-27,4.3-2.7,20.4,9.8,24,13,12,10.5,20.7,26.3,32,36,8.5,7.4,21.1,12,29.5,19.5,10.9,9.6,20.1,26.5,30.5,37.5,11,11.7,29.8,18.4,44.7,24.3,25.1,9.9,38.9,14.1,66.8,12.3,16.1-1,62.3-19.4,76.4-28.6,13.7-8.9,25-32.9,37.6-44.4,9.3-8.6,24.5-14.2,33.6-22.4,10.1-9.2,18.3-23.6,29.4-33.6,3.6-3.3,19.9-16.8,24.4-13.8.8.6,6.9,16.7,7.6,18.9.5,1.7,2.5,8.4,2.5,9.5v17c0,.6-1.6,2-1,3.5,10.4-10.7,20.8-25.9,23.6-40.9,2.4-12.9,1.4-27.4.4-40.5-.3-4-2.6-6.9-.8-10.8,3.7-8.5,20.8-15.9,29.2-19.9s24.7-7.7,29.1-15.9c4.6-8.5,2.6-32.2,3.7-43.3,1-10.3,7.7-19.4,6.9-29.1-.6-6.6-5.4-16.3-10-21-1.5-1.5-8.2-6.7-10-5.5-1.8,1.3-7.1,27.7-7.1,31.5,0,7.3,4.4,13.6-2.4,19.5-17.3,15-41.2,23.8-61.1,34.9-5.5,3.1-23.5,16.8-28.6,16-2.7-.4-5.4-3.6-9.2-3.9-11.7-.8-14.9,8.5-22,15-16.4,14.9-41.2,22.8-63,25-69.3,7-135.6,7.1-205,0-22-2.2-45.8-9.7-62.5-24.5-7.2-6.4-10.9-16.4-22.5-15.6-3.7.2-7.5,4-9.8,3.8-5.4-.5-21.2-12.7-27-15.9-13.4-7.4-27.8-13.2-41-21-4.6-2.7-22.9-14-23.7-18.3-1-5.2,1.1-10.4,1.1-15s-5.6-31.3-7.6-31.5c-7.7-.9-16.7,15.1-18.5,21.5-4.1,14,4.6,20.6,5.9,34.2,1.4,13.7-4.1,40.6,8.8,49.2s39.9,13.7,50.8,26.2c5.6,6.4,1.4,8.6.7,15.6-3.2,29.7,1.3,54.7,20.9,77.8.5.6,3.9,4,2,1l-.3-.3Z" class="outline" fill="#000000"/>
    </g><g class="trait-group" data-category="mouth" id="mouth-OG">
      <path id="fill-muzzle" fill="#ffffff" d="M1125 1622c-3.4-2.3-6.5 6.6-8 8.5-3.7 4.7-17.7 19.6-23.5 19.5-2 0-5.3-4.8-7.8-6.2-7.4-4.3-19.1-5.3-26.8-1.4-4.2 2.2-10.1 9.4-13.4 9.7-7.7.5-10.7-10.3-17-11.2-2.3-.3-9.7-.3-11.5.6-3.2 1.4-8.9 10.8-13.7 11.3-3.1.3-10.3-8.4-13.4-10.2-6.5-3.8-16.5-3-23.5-.6-4.3 1.5-10.5 8-12.8 7.8-5.8-.5-18.9-14.5-22.7-19.3-1.6-2-2.1-4.7-3.5-6.4-5.4-6.8-5.6 3.9-7.6 7.3-9.4 15.7-21-13.3-24.8-18.9-2.4-3.5-7.2-5.7-10-9-9.7-11.6-6.4-27.5-10.3-40.7-1.7-5.8-11.6-19.5-14.9-27.1-10-22.6-12.3-43.5-10.8-68.2-2.4-7.1.4-27.9-4.5-32.5-2.1-2-6.1-2.7-8.5-4.5-5.9-4.5-12.8-32.2-11.9-39.8 1.1-9.4 12.1-25.4 18.4-32.6 12.3-14.3 37.4-24.6 56-26 4.8-.4 28.1 1.1 29.5.5s5.1-5.4 7.1-6.9c8.7-6.5 17-9.5 27.7-11.3 3.7-.6 7.6.4 11-1 3.1-1.3 11.4-13.2 17.3-16.7 10.5-6.1 38.9-5.7 51.5-4.6 5.7.5 13.4 3.6 18 7 3.7 2.8 11.2 13.2 13.8 14.2 3.3 1.4 7.3.4 11 1 8.9 1.5 16.5 3.9 24.1 8.9 2.7 1.8 9.7 8.9 10.7 9.3 1.3.6 23.9-.9 28.5-.6 16.1 1.1 33.8 7.8 46.8 17.2 12.1 8.8 30.2 32.8 28.7 48.3-.4 4.3-7 26.5-9.2 29.8-3.6 5.6-10.6 4.5-13.7 10.3l-3.2 43.8c2 20.7-2.7 38.4-11.1 56.9-3.2 7-11.5 17.9-13.4 23.6-4.4 13-.9 27.8-9.6 40.4-2.9 4.2-8.2 6.2-10.8 10.2-1.6 2.3-2.2 5.7-3.8 8.2-2.8 4.2-10.6 16.7-16.2 14.9-7.1-2.2-6.8-12.8-8-13.6h-.2Z" class="fill" data-original-prefix="fill"/><path id="fill-teeth16" fill="#ffffff" d="M995.3 1525.7c11 9.5 17.2-6.6 23.2 6.3 6.5 14.1 3.7 38.4-1 52.9-.7 2.1-7.1 16.9-8 17.1-1.2.3-3-.4-4.2-.9-12-5.1-31.7-18.1-39.1-28.9-10.6-15.5-6.4-42.9 6.8-55.8 1.3-1.3 9.1-5.6 10.4-5.3 1.5.3 9.4 12.3 12 14.5h-.1Z" class="fill" data-original-prefix="fill"/><path id="fill-teeth15" fill="#ffffff" d="M1039.1 1601.9c-.8-.5-7.5-16.1-8.1-18.4-4.1-13.8-6.5-36.9-1.3-50.3 4.6-12 8.1-4.3 15.8-4.2 9.5.2 17.3-18.2 20.8-17.9 1.2 0 8.5 4.2 9.7 5.3 6.3 6.2 12.2 22.3 13 31 2.4 28-20.3 39.6-41.3 50.7-2 1.1-5.7 5.5-8.6 3.7Z" class="fill" data-original-prefix="fill"/><path id="fill-teeth14" fill="#ffffff" d="M904 1461c0 2.2-1.1 3.8-.8 6.2.2 1.8 7.1 22 8 23.1 3.9 5.1 11.2 3.2 16.7 3.8 4.9 13.5-4.2 23.8-8.6 35.6-2 5.3-8.7 33.1-12.8 34.2-1.8.5-6.8-9.1-8.3-10.7-10.3-23.9-15.3-58.4-2.6-82.2.6-1.2 7.1-11.6 8.4-10.1Z" class="fill" data-original-prefix="fill"/><path id="fill-teeth13" fill="#ffffff" d="M1144 1564c-2.1 1.4-6.1-7.1-6.8-8.7-3.2-7.9-4.4-17.4-7.5-25.5-4.3-11.6-13.6-22-8.6-35.6 4.8-.6 12.3 1.2 15.9-2.9 1.3-1.5 8.1-20.6 8.6-23.2.3-1.8-1.4-7 .9-6 6 2.7 13.7 26 14.4 32.6 1.4 13.9-2.9 45-9.3 57.4-.8 1.5-7 11.6-7.6 11.9" class="fill" data-original-prefix="fill"/><path id="fill-teeth12" fill="#ffffff" d="M1093.1 1644.9c-2.9-1.8-2.4-28.5-2.1-33.4.7-10.5 5.2-31.2 8.9-41.1 1.1-2.8 2.4-1.4 4.2 0 12.2 9.6 21.1 44.8 12.8 57.9-1.9 3-15.6 14.9-18.9 16.1-1.3.5-3.8 1.1-4.8.4Z" class="fill" data-original-prefix="fill"/><path id="fill-teeth11" fill="#ffffff" d="M949 1569c5.5 22 11.1 44.4 9 67.5-.5 5.2-.9 10.3-7 8-3.4-1.3-17.5-13.4-19.5-16.5-5.8-9.2-1.4-31.3 2.7-41.2 1.2-2.9 11.3-21 14.8-17.7Z" class="fill" data-original-prefix="fill"/><path id="fill-teeth10" fill="#ffffff" d="M881.7 1478.3c3.1 2.8-2.7 21-2.8 26.2 0 5.9 2.6 12.4 3.1 18 .2 2.1.7 24.5-.5 24.5-1.5.2-2.1-1.1-2.9-2.1-15.6-18.9-34.8-51.8-17.4-75.3 6.5-8.8 10.5 2.1 14.9 5.8 1.8 1.5 4.9 2.1 5.7 2.8Z" class="fill" data-original-prefix="fill"/><path id="fill-teeth9" fill="#ffffff" d="M1185.7 1467.3c1.9 1.6 7.8 13.7 8.2 16.2 3.2 20.7-9.8 47.3-23.9 61.9-.9 1-1.3 1.9-3 1.5.5-8-.7-16.6 0-24.5.4-5.4 3.1-12.3 3.1-18s-6.1-23.4-2.8-26.2c.6-.6 2.5-.6 3.8-1.7 3.4-3 10-13.1 14.7-9.3Z" class="fill" data-original-prefix="fill"/><path id="fill-teeth8" fill="#ffffff" d="M1018 1613v16.5c0 .9-10.8 13.2-11.9 14.1-6.3 4.8-8-2.6-10.6-5.5-5.5-6-17.9-.4-24.4-5.6-1.2-.9-4.1-8.8-4.1-9.9v-22.5c12.9 1.7 28.3 17.5 41.4 15.9 3.5-.4 6.1-3 9.6-2.9Z" class="fill" data-original-prefix="fill"/><path id="fill-teeth7" fill="#ffffff" d="M1031 1613c6.3 1.3 9.1 4 16.1 2.6 10.6-2.2 24.3-14.8 33.4-15.6 2-.2 1.4 0 1.2 1.3-.8 6.5 2.4 27.5-4.4 31.6-7 4.2-18.8-.3-23.4 4.6-2.1 2.2-3.6 8-8.4 7.6-1 0-14.6-13.5-14.6-14.6V1613z" class="fill" data-original-prefix="fill"/><path id="fill-teeth6" fill="#ffffff" d="M1102.5 1494c3.3-.8 4.5 6.9 5.3 8.7 5.6 12.1 13 24.8 13.3 38.8.2 9-16 29.8-21.3 16.2-4-10.4-4.1-44.8-1.1-55.5.4-1.6 2.4-7.9 3.8-8.2" class="fill" data-original-prefix="fill"/><path id="fill-teeth5" fill="#ffffff" d="M937.3 1559.7c-1.9-1.6-7.8-10.5-8.5-13-3.6-12.1 6-31.3 11.4-42 1.6-3.1 3.3-14.7 8-7.4 5.5 8.5 4.3 41.5 2.7 52.1-1.2 7.7-3.6 18.7-13.6 10.3" class="fill" data-original-prefix="fill"/><path id="fill-teeth4" fill="#ffffff" d="M917 1563c-1.8 13.4 2.9 27.5 2 40.5-.6 9-4.4 18.4-5.5 27.5-6.2-6-10.5-16.1-11.4-24.6-.5-5.2.7-24.7 2.4-29.3.6-1.6 10.5-16.2 12.4-14.1Z" class="fill" data-original-prefix="fill"/><path id="fill-teeth3" fill="#ffffff" d="M1135 1631c-.4-8.9-4.4-17.8-5.1-26.5-1-13.8 3.7-27.6 2-41.5 2.2-2.4 11.9 13 12.5 15 2 6.6 2.6 27.4 1.2 34.3-1.3 6.3-5.5 14.9-10.8 18.7z" class="fill" data-original-prefix="fill"/><path id="fill-teeth2" fill="#ffffff" d="M1154.1 1604.9c-3.4-2-5.1-22.3-3.9-26.2.8-2.6 8.9-5.2 10.2-8.8l5.1-10.9c3.8 3.4 5.1 7.2 4.3 12.2-.7 4.2-5.4 22.7-6.9 26.2-.9 2.2-6.1 9-8.8 7.5" class="fill" data-original-prefix="fill"/><path id="fill-teeth1" fill="#ffffff" d="M885 1559c-.3 3.7 1.7 9.4 4 12.2s9.5 5.2 10 8.3c-2 8.4 1.6 19.2-5.7 25.4-3.6-1.1-6-4-7.4-7.4s-6.5-23.6-6.9-27.1c-.5-4.2 1.2-10.6 5.9-11.4z" class="fill" data-original-prefix="fill"/><path id="shading-mouth2" fill="#aaaaaa" d="M918 1443.5c.8 5.3 5.6 13.8 10.1 16.9 11.5 8.3 16.2-.3 22.4-9.4 2.5 5.4 3.4 11.5 6 17 1.4 2.8 5.7 12 7.5 5.5l4-11.5c1.6 7.5 6.3 15.4 11.5 21 4.3 4.7 18.8 15.4 24.6 9.6 2-2.1 8.3-17.9 10.8-22.2 1.2-2.2 7.8-13.8 9.7-13.3 1 .2 8.5 13.2 9.7 15.3 2.4 4.5 7.3 17.7 9.8 20.2 3.8 3.8 10.5.4 14.4-1.8 10.5-5.9 18.5-17.2 21.7-28.8l4.2 12.3c.3 1.2 1.9 2.4 2.8 1.7.6-.4 5.8-11.3 6.5-13 .8-2 2.8-12 4-12 6.8 10.7 12.9 18.4 24.5 7.5 8.6-8 9.3-23.8 7-34.5 3.5-3.1 21.1 16.1 26.6 16.9 9.1 1.4 17.6-11.8 19-19.9 3.5-20.5-12.9-39.2-30.9-46.2l-12.7-4.8c15.4 0 28.2 2.9 41.1 11.4 4.8 3.1 12.2 10.9 17.6 11.4 6.2.6 10.1-4.1 10-10-.4-19.3-25.8-38.1-39.7-48.8 15.4 2.4 34.6 11.8 45 23.5 7.8 8.8 19.1 25.1 19.1 37s-6.4 28.5-9.2 32.8c-3.3 5.3-11.7 5.4-13.4 10.6-.9 8.1-2.1 16.4-2.5 24.5-1.5 29 1.4 45.2-10.8 73.2-3.6 8.2-12.7 20.4-14.9 27.1-4.2 12.8-.7 26.4-9.1 38.9-3.2 4.8-8.4 6.7-11.2 10.8-1.7 2.5-2.4 6.1-4.2 8.8-4.5 6.7-14.6 23-21.6 8.9-1.6-3.3-1.3-12.9-6.7-6.2-1.4 1.7-1.9 4.4-3.5 6.5-3.7 4.7-17.7 19.6-23.5 19.5-2.2 0-4.5-4.1-6.6-5.4-7.9-5-21.1-6.3-29.2-1.4-7.3 4.4-9.5 13.6-18.1 6.8-8.6-6.7-6.4-10.8-20.1-9-5.6.7-11.4 12.6-16.9 12.1-2.8-.2-11.4-11.1-18.5-12.6-6.3-1.3-17.5.7-23 4.2-2.6 1.7-4.1 5.6-7.5 5.4-5.7-.3-19.8-15.8-23.6-20.5-1.2-1.5-4.4-10.6-7.1-6.9-2.5 3.4-.6 9.9-7.2 12.7-7 3-14.9-11.2-18.1-16.4-1.2-1.8-1.2-4.3-2.6-6.4-2-3-6.8-5.4-9.5-8.5-10.4-11.9-6.7-27.7-10.7-41.3-.8-2.6-5.6-8.5-7.3-11.7-18.4-35.7-16.4-45.6-18.4-84.6-.4-7.7-.6-20.7-2.2-27.8-1.5-6.2-11.1-6.1-14.2-11.8-3.4-6.1-9.3-29.6-8.6-36.4 1.2-10.3 16.2-31.2 24-38 10.5-9.2 26.2-16.5 40-18.5l-21.5 17c-7.2 6.4-26.8 32-14.8 39.9 9 5.9 16.7-4.5 23.7-9.1 12.7-8.4 25.3-11.8 40.7-11.8l-17.3 7.2c-18 9.4-33.1 32.7-22.1 52.8 1.7 3.1 8.6 10.4 12 11.1 9.1 1.7 20.7-15.4 29.5-18 .6 6.4-.9 14.3 0 20.5zm-37.1 40.6c-12.3-.5-17.1-20.2-22.8 1.5-3.4 13 1.2 26.4 9.4 36.5 1.5 1.8 12.7 13.1 13.9 12.9.8 0 2.5-2.3 2.8-3.2 2.9-7.1-3.2-12.2-4.2-19.2-1.5-9.8 0-18.7.9-28.4Zm301.8-8.9c-3.2.8-6.3 6-8.8 7.3-2.1 1.1-7.2 1-7.8 3.2-.5 1.7 3 10.8 2.9 14.8 0 3-1.5 13.9-2.2 16.8-.9 3.6-3.9 5.7-3.9 10.2s1.4 7.1 3.7 7.4c1.9.3 15-14.4 16.8-17 5.7-8.5 9-18.8 7.3-29.2-.5-3-4.4-14.5-8-13.6Zm-284.8 10c-4-2.3-6.5 9.9-6.8 12.5-1.2 10.5 3 38 8.7 47.1 1.9 3 5.4 6.9 9.2 7.3 3.7-15.6 12.6-29.2 21-42.5-2.3-.4-1.7-2.9-2.7-3.5-1.5-.9-7-1.9-9.7-3.1-4.7-2.2-12-7.7-15.6-11.4-1.2-1.2-3.8-6.2-4.2-6.3ZM1139 1552c8.3-2 11.9-12.2 13.9-19.6 3.1-12.1 6.1-33.4 1.1-44.8-3-6.9-5.8 1.7-8.3 4.1-3.9 3.8-11 9.3-16 11.6-2.5 1.1-7.8 1.8-9.1 2.7-.7.5-.5 1.8-1 2.7-.3.4-1.7.4-1.6.9 0 1 7.9 12.3 9.2 14.8 4.8 8.8 9.1 18 11.8 27.7Zm-197.7 5.7c8.1 8.1 9.5 0 10.5-7.3.8-5.6 2.7-20.6 1.7-25.4-3.6-17.2-21.3-15.9-21.6 3.6 0 6.8 4.6 24.3 9.4 29.2Zm161.5-44.5c-5 1.3-8.5 9.3-8.8 14.2-.2 4 2.4 28.5 3.8 31.3 2.5 5 7.5 0 9.8-2.7 6.8-8.3 11.6-30.7 4.5-39.5-2.7-3.3-4.8-4.4-9.2-3.3zM1023 1544c-.7-.7-.8-7-5.1-9.4-8.9-5-21.8-.8-32-4-10.4-3.3-9.4-13.1-16.1 1.8-2.9 6.4-9.1 24.4-6.3 30.7 1.1 2.4 17.8 15.6 21.2 17.8s18.2 11.7 21.1 10c3.1-5.6 9.3-9.5 12.6-14.9 1.8-2.8 4.1-11.5 4.6-11.9 1.6-1.7 1.7.5 2.1 1.4 1.6 3.6 2.1 6.8 4.5 10.5 3.3 5.2 9.2 9.3 12.4 14.6 3.1 1.9 15.5-5.9 18.9-8.1 4.5-2.9 22.9-17 23.9-21.1 2.2-9.7-6.6-28.3-10.9-37.2-4.9 1-7.8 5.2-12.7 6.7-9.2 2.8-28.2-1.6-33.7 6.3-.9 1.2-2.6 8.9-4.5 7zm-136 18c-.7-.6-3.5 0-4.5.9-6 6.2 2.4 31.6 14.6 27.6 4-1.3 3.8-9.4 2.8-12.9-1.1-3.9-7.2-4.1-9.8-7.2-2.1-2.5-2.7-8.2-3-8.5Zm274.1 0c-.3.3-.9 6-3 8.5-2.6 3.1-8.7 3.3-9.8 7.2-1 3.4-1.2 11.6 2.8 12.9 13.4 4.4 20.2-24.5 14.1-28.1-.9-.5-3.5-.9-4-.4Zm-216.4 7.2c-1.5.4-5.1 4.6-6 6.1-3.4 5.6-5.6 32.3-4.8 39.3 1.3 10.9 15.2 18 19.5 3.5 1.7-5.6 2.6-21.4 2.5-27.6 0-1.1-5.8-19.7-6.5-20.5-1.2-1.4-3.2-1.3-4.8-.8Zm153.3-.1c.2 6.6-5.4 14.7-6 20.6-.5 4.5 1 25.3 2.4 29.4 4.2 12.1 16.9 7.3 19.1-2.9 1.1-5.2 0-16.8-.6-22.6-1-9.7-1.7-25.5-14.9-24.5m-180 1.9c-20.5 3.8-17 28.7-9 43 4 2.9 10.4-17 10.7-19.8.9-7.5-2.9-15.5-1.8-23.2Zm218 43c2.5 1.8 7.2-9.1 7.7-10.8 3.9-12.8 1.6-30.1-13.7-32.2.5 7.4-2.8 16.2-1.9 23.4.3 2.7 6.4 18.5 7.9 19.6m-148.2 10.2c1.4.8 4.8 8.6 9.5 11 11.1 5.8 20.2-6.4 20.7-16.7.8-13.7-7.2-7.7-16.5-8.6-8.4-.8-15-4.8-21.8-9.2-5.5-3.5-13.6-14.6-14.7-1.4-.5 5.1 1.4 7.5 1.8 11.2s-2 5.9.5 10.7c4.8 9.3 18 1.3 20.7 2.8zm93.1-31.1c-2.1-1.5-19.7 12.7-23.9 14.4-2.3 1-7.9 2.3-10.5 2.5-10.5.9-18.8-5.4-16.4 11.4 1 7.3 7.9 15.8 16 15.1 9.4-.8 11.9-11.6 14.6-12.4 4-1.3 12.3 5.7 18.9-1.1 4.3-4.4 1.3-8.4 1.5-12.5 0-2.3 1.9-4.8 2-8.1 0-1.9-.8-8.5-2.2-9.4Z" class="outline shading" data-original-prefix="shading" opacity="0.5" style="opacity: 0.5"/><path id="shading-mouth1" fill="#aaaaaa" d="M1041 1343c6.1.5 12.7-1 17.5-5 1.5-1.3.9-3.7 2.8-2.9 10.1 7.9 37.9 17.4 43.8 28.2 3.6 6.5 4.6 17.5-1.8 22.6-5.6 4.5-20.8 10.8-28 15-4.9 2.8-9.7 6.6-14.7 9.3-7.4 4.1-25.5 14.5-32.6 16.4-2.9.8-5.2.8-8.1 0-14.5-3.8-42.2-22.5-56.3-30.7-6.2-3.6-21.2-9.1-23.2-15.8-5.5-18.4 15.7-28.3 28.7-35.4 2.3-1.2 15.5-8.6 16.5-8.7 2.9-.3 4.2 2.9 6.7 4.2 4.2 2.3 10 3.2 14.7 2.8-.3-5.1-3.3-11.3-1.8-16.3.5-1.6 12.5-13.9 14.5-14.4 3.9-1 8.2-.3 11.6 1.9 1 .7 10.8 11.1 11.2 11.8 2.1 5-1.2 11.8-1.5 17" class="outline shading" data-original-prefix="shading" opacity="0.5" style="opacity: 0.5"/><path id="outline-mouth3" fill="#000000" d="M888 1333c-.7 1.9-2.2 2-3.8 2.7-12.3 5.2-24 8.3-33.2 18.8-6.6 7.6-18.9 26-18 36 .3 4 7.1 25.8 9.2 28.8 2.7 4 6.1 4.9 10.8 4.7-1.4-9 4.2-18.1 9.6-24.9 2.2-2.8 21.9-22.6 24.4-20.1-1.7 6.5-8.8 10.4-13 15.5-8.1 10-12.3 23.6-9.5 36.5 1.2 5.4 11.2 26 15 30 .6.7 7.1 6.3 7.5 6.5 2.4 1.2 5.6-3.8 6.5-5.5 2.5-4.3 3.1-9.7 5-14 4.4-10.2 9.3-18.3 18.5-25-5 13.9-9.5 44.6 1.5 56.1 4.6 4.8 11 2.5 15 5.1 2.1 1.3 2.5 5.4 4.2 5.8s7-3.1 9.4-3.5c9-1.4 12.6 16.9 18.7 17.4 2.5.2 10.2-12 18.4-9.4 5.5 1.8 19.2 24.8 24.4 23.6 5.8-5.9 3.6-12.3 5-19 1.5-7.6 8.3-12.6 9.4-22.6.8-7.2-1.7-26.6-4.7-33.1-1.1-2.3-5.5-10.7-6.8-12.2-3.4-4-15-9.2-19.8-6.1l-4.2 11.1c-4.8-4.4-9.5-9.2-14.5-13.5-3.7-3.2-10-6.8-13-9.9-4-4.2-15.6-27.9-15.7-33.2 0-6.8 17.5-22.4 21-29 5.4-4.1 29.2-2.8 35.7.2 8.4 3.8 12.4 12.1 18.5 17.5 5.2 4.5 2.5-1.7 2.5-3.6s.9-3.2.8-4.8c-.2-5.4-6.7-9.2-9.9-13.1-2-2.4-5.6-6.2-7-8.2-.9-1.3-4.9-7.8-5-8.8-.2-2.6 9.1-11.7 11.5-12.4 3.6-1-.5 5.5-.5 6.6-.4 5.2 5.9 4.1 9.3 5.6 1.2.5 3 2.7 3.2 2.7s2.4-2.7 3.8-3.2c7.8-3.2 11 1.2 6.8-11.7 1.6-1.7 12.5 9.1 12.9 11.7.6 4.5-17.6 23.1-21.1 27.5l-.8 12.7c1.7.4 2-.7 3-1.5 8.7-6.7 12.6-16.8 24.9-19.1 5.5-1 25.6-1.3 29.8 1.8 3.4 6.7 20.4 21.8 21 28.4.4 4.3-10.8 27.3-13.9 31.7s-9.8 7.6-13.8 11.2c-5.3 4.6-10.3 9.8-15.5 14.5-2.2.9-1.4-5.6-2.2-7.7-3.4-8.6-19-1.6-22.7 3.8-.7 1-7.1 13.9-7.3 14.7-2.7 12.8-5.5 27.3-.2 39.8 1.5 3.5 4.6 6.8 5.8 10.2 2.5 7.2-.5 15.2 5.8 21.2 9.4-2.8 19.1-24.9 27.9-24 5.2.5 13.2 10 14.9 9.8 5.8-.5 9.3-18.7 18.7-17.4 2.4.3 7.6 3.9 9.3 3.4s2-4.8 4.8-6.1c3.8-1.8 9.4-.4 13.3-3.7 11.5-9.7 8.1-43.1 2.5-56 1.6-1.7 11.3 10.4 12.4 12.1 5.1 7.8 6.1 15.5 9.7 23.3 1 2.1 4.8 9.8 7.8 8.2.4-.2 6.9-5.9 7.5-6.5 6.8-7.5 16-30.4 15.4-40.5-1.3-22.7-10.7-22.7-21.5-37.5-5.3-7.2 2.8-2.4 6 0 11.8 8.6 28 25.5 26.5 41 11.6 1.1 13.6-11.4 16.3-20.2 4.6-15.6 5.3-18.8-3.1-33.4-8.2-14.3-16.4-22.7-31.5-29.5-5.8-2.6-13.2-3.6-17.7-7.8 15.9 1.8 34.5 6.4 49 13.5 8.3 15 22.1 26.8 28.1 42.9l-15.2 44.9c-.9 3.7-13 4.8-13.8 5.8-.6.8-2.2 17.2-2.2 19.4-.2 31.7 2.4 50.4-13.1 79.9-2.6 5-12 16.3-12.6 19.4-.9 4.6 0 10.4-.5 15.5-.9 8.4-5.8 16.4-6.7 23.4-.4 3.5 1.3 7.7.8 9.7s-10.7 8.6-13.2 9.9c-2.2 1.2-5.7 1.5-6.5 2-.6.4-5.2 10.6-7.2 13.2-2.2 2.8-13.6 14.5-16.9 12.4-.6-.4-5.9-11.8-7.1-13.3-2.2-2.9-2.2 2.1-3.2 3.8-4.6 7.3-24.8 27-32.8 29.2-1.7.5-3.3.7-5 .5 1.1-8.2 2.6-16.6-8-18.6-9.7-1.8-16.2 7.5-18.5 15.6-1.2 4.3-1.2 16.7-7.8 14.9-4.3-1.2-20.3-25.6-23.2-30.8-5.5 8.6-11.5 19.1-18.5 26.5-1.8 1.9-6.9 7.7-9.3 3.3-2.8-5.3-2.5-14.6-5.5-20.5-3.8-7.2-14-11.7-21.2-6.8-6.6 4.6-2.9 10-3 16.5-3.4 3.4-23.5-12.8-26.5-15.9-1.5-1.5-11.4-13-11.9-14.1-.7-1.4-.2-6.3-2.6-3.3-2.1 2.6-6 14.4-10.2 13.3-2-.6-12-10.2-13.7-12.4-2.1-2.7-6.6-12.8-7.2-13.2-.8-.5-3.8-.6-5.8-1.7-2.5-1.4-11.8-7.1-13-9-2.3-3.8.4-6.7 0-10.8-1-7.2-5.8-15.5-6.7-24.4-.5-5 .6-10.7-.6-15.4-1-3.9-7.9-9.8-10.7-14.3-10.4-16.9-15.8-37.5-16.8-57.2-.8-15.6 1.6-31.1 0-46.5-18.8 0-17.3-14.5-21.7-27.8-2-5.8-9-19.6-8.1-24.5.6-3.1 5-9.2 7-12.1 2.9-4.3 18.7-27.3 20.9-29.1 1.7-1.4 8.5-4.5 10.7-5.3 9.6-3.2 28.2-7.1 38.2-8.3v-.7Zm16 128c-1.4-1.5-7.8 8.9-8.4 10.1-12.7 23.9-7.6 58.3 2.6 82.2 1.5 1.6 6.5 11.2 8.3 10.7 4.1-1.1 10.8-29 12.8-34.2 4.4-11.8 13.5-22.1 8.6-35.6-5.5-.6-12.8 1.4-16.7-3.8-.9-1.1-7.8-21.4-8-23.1-.2-2.4.8-4 .8-6.2Zm240 103c.6-.4 6.8-10.5 7.6-11.9 6.4-12.5 10.7-43.5 9.3-57.4-.7-6.6-8.4-30-14.4-32.6-2.3-1-.6 4.2-.9 6-.5 2.7-7.2 21.8-8.6 23.2-3.6 4.1-11.1 2.3-15.9 2.9-5 13.6 4.3 24 8.6 35.6 3 8.1 4.3 17.7 7.5 25.5.7 1.6 4.7 10.2 6.8 8.7m-262.3-85.7c-.8-.7-3.9-1.3-5.7-2.8-4.4-3.7-8.4-14.6-14.9-5.8-17.4 23.5 1.8 56.3 17.4 75.3.8.9 1.5 2.3 2.9 2.1 1.2 0 .7-22.5.5-24.5-.5-5.6-3.2-12.1-3.1-18 0-5.2 5.9-23.5 2.8-26.2Zm304-11c-4.6-3.9-11.2 6.2-14.7 9.3-1.3 1.1-3.1 1.1-3.8 1.7-3.3 2.9 2.8 21 2.8 26.2s-2.6 12.6-3.1 18c-.7 7.9.4 16.5 0 24.5 1.7.4 2-.5 3-1.5 14.2-14.6 27.2-41.2 23.9-61.9-.4-2.6-6.3-14.7-8.2-16.2Zm-83.2 26.7c-1.4.3-3.3 6.6-3.8 8.2-3 10.7-2.9 45.1 1.1 55.5 5.3 13.6 21.4-7.2 21.3-16.2-.2-14-7.6-26.7-13.3-38.8-.8-1.8-2-9.4-5.3-8.7m-165.2 65.7c10 8.3 12.4-2.6 13.6-10.3 1.6-10.6 2.8-43.6-2.7-52.1-4.7-7.3-6.5 4.3-8 7.4-5.3 10.7-15 29.9-11.4 42 .7 2.4 6.6 11.4 8.5 13m58-34c-2.6-2.2-10.5-14.2-12-14.5-1.3-.2-9.1 4.1-10.4 5.3-13.2 13-17.5 40.3-6.8 55.8 7.4 10.8 27.1 23.8 39.1 28.9 1.2.5 3 1.2 4.2.9.9-.2 7.4-15 8-17.1 4.7-14.6 7.5-38.8 1-52.9-5.9-13-12.1 3.2-23.2-6.3h.1Zm43.8 76.2c2.9 1.8 6.6-2.7 8.6-3.7 21.1-11.1 43.7-22.7 41.3-50.7-.7-8.7-6.7-24.8-13-31-1.2-1.1-8.4-5.2-9.7-5.3-3.5-.3-11.2 18.1-20.8 17.9-7.8-.2-11.2-7.8-15.8 4.2-5.2 13.4-2.8 36.6 1.3 50.3.7 2.3 7.3 17.8 8.1 18.4ZM885 1559c-5.2 1.1-6.5 7.6-5.8 12.2s5.4 23.4 7 27c1 2.2 6.2 8.5 8.7 6.7 3.4-2.4 3.2-20.7 4.1-25.4-.6-3-7.8-5.5-10-8.3s-4.3-8.6-4-12.2m269.1 45.9c2.7 1.5 7.8-5.3 8.8-7.5 1.5-3.4 6.2-22 6.9-26.2.8-5-.5-8.8-4.3-12.2l-5.1 10.9c-1.4 3.6-9.4 6.1-10.2 8.8-1.2 3.9.5 24.2 3.9 26.2M917 1563c-1.9-2.2-11.8 12.5-12.4 14.1-1.8 4.6-2.9 24.1-2.4 29.3.8 8.6 5.2 18.6 11.4 24.6 1.1-9 4.9-18.4 5.5-27.5.9-13-3.8-27.1-2-40.5Zm218 68c5.2-3.8 9.5-12.5 10.8-18.7 1.4-6.9.7-27.7-1.2-34.3-.6-1.9-10.4-17.4-12.5-15 1.7 13.9-3.1 27.7-2 41.5.7 8.7 4.6 17.6 5.1 26.5zm-186-62c-3.4-3.2-13.6 14.8-14.8 17.7-4 9.9-8.4 31.9-2.7 41.2 2 3.2 16 15.2 19.5 16.5 6 2.4 6.5-2.8 7-8 2.1-23.1-3.5-45.4-9-67.5Zm144.1 75.9c1.1.7 3.6 0 4.8-.4 3.2-1.2 16.9-13.1 18.9-16.1 8.3-13.1-.6-48.3-12.8-57.9-1.8-1.4-3.1-2.8-4.2 0-3.7 9.9-8.2 30.6-8.9 41.1-.3 4.8-.8 31.5 2.1 33.4ZM1018 1613c-3.5 0-6.1 2.5-9.6 2.9-13.1 1.6-28.5-14.2-41.4-15.9v22.5c0 1.1 2.9 9 4.1 9.9 6.5 5.2 18.9-.4 24.4 5.6 2.6 2.9 4.3 10.3 10.6 5.5 1.1-.8 11.9-13.1 11.9-14.1v-16.5Zm64-13c-13.3 1.4-27.9 17.6-41.4 15.9-3.5-.4-6.1-3-9.6-2.9v17.5c4.1 2.4 11.4 14.9 15.4 14.5 5.4-.5 6.1-8.2 10.5-9.6 5.4-1.7 16.2 1.1 21-3 1-.8 4-9.7 4-11v-21.5Z" class="outline" data-original-prefix="outline"/><path id="outline-mouth2" fill="#000000" d="M1011 1292c-6.2 1-21.6 9.8-26 14.5-2.9 3.1-3.9 7.2-7.2 9.8-18.9.8-35.9 5.2-50.3 17.8-.9-.2-.3-1.9-.5-2 1.1-8.8 19.3-26.2 27.4-25 3.5.5 2.6 4.8 10 4 10.8-1.2 17.8-10.7 19.4-20.7.4-2.5-1.9-5.2 1.2-6.7 4.7-2.2 21.7 4.7 26 8.5z" class="outline" data-original-prefix="outline"/><path id="outline-mouth1" fill="#000000" d="m1122 1332-.5 3c-10.9-11.7-25.5-16-41-18-2.9-.4-6.9.7-9.5-.5-1.5-.7-4.5-7.4-6.5-9.5-3.4-3.8-14.1-10.6-19-12s-4.7-.4-8.6-2.9c4.2-4.1 21-10.8 26-8.5 3.1 1.5.8 4.2 1.2 6.7 1.9 11.3 12.7 24.5 25 19.5 4-1.6 2.6-4.3 9.2-1.6 10.8 4.4 18.3 14 23.6 23.9h.1Z" class="outline" data-original-prefix="outline"/>
    </g><g class="trait-group" data-category="eyes" id="eyes-beaker">
      <g id="eyes-goggles"><path id="fill-eyes-skull" fill="#ffffff" d="M1337.7 1024.3c1.5.9 16.3 27.2 18.4 31.1 9.7 17.9 18.4 36.1 23.1 55.8.9 3.7 4.9 7.3-.6 11.5s-13.7 5.7-17.7 7.8c-9.3 4.9-18.6 9.9-27.5 15.5-1.2 42.7-11 81.2-47.2 106.8-43.1 30.5-110 44.9-161.5 32.9-13.7-3.2-24.1-9.2-39.1-3.9-11.8-10.4-26-18.9-37.7-29.3-7.2-6.4-13-14.8-20.5-20.5-2.7 1.3-6.1-.6-8.4.4s-13.7 15-17 18c-12.4 11.4-27.2 20.1-39.7 31.3-3.4.3-6.4-1.6-9.8-1.8-14-1.1-26.2 5.6-40.1 7.8-49.6 8.1-115.4-7.3-155.2-38.4-33-25.8-41.6-63-42.6-103.4-9.7-5.8-19.6-11.2-29.5-16.5s-18-6.5-18.9-12.2 2.6-4.6 3.6-7 .9-6.7 2.1-9.9c7.7-20.9 25.7-58.2 39.1-75.6s2.4-.4 3.1-1.3c18-23.8 37.3-50.3 58.9-70.8 140.3-133.5 334.8-143 483.5-16.5 25.5 21.7 43.5 44 64.5 69.5s10.4 15.7 12.5 17.5 3.2.6 4.2 1.3Z" class="fill" data-original-prefix="fill"/><path id="outline-eyes6" fill="#000000" d="M696 1136c.7 5.7-1.4 11.4-2 17-1.4 1.2-21.5-7.8-24.8-8.7-13.8-4-26.1 4.1-24.1-17.7 2.4-26.3 17.9-67.1 30.7-90.3 4.9-8.8 24.5-40.3 33.1-42.9 3.1-.9 7.2 1.5 8.9.5.4-.3 3.7-6.5 5.2-8.3 78.3-95.7 168.6-146.9 294.5-148.6 132.9-1.8 222.6 47.8 306.4 147.6 1.4 1.7 5.8 9 6.2 9.3 2.4 1.4 7-1.2 9.8-.4 7.6 2.1 25.6 30.2 30.2 37.9 13.9 23.7 31.8 69 33.8 96.2 1.6 20.6-11.3 13.1-24.2 16.8-2.5.7-4.5 2.5-6.8 3.2-5.8 1.8-11.9 2.9-17.5 5.5l-3.5-17c.2-.3-.2-1.8.2-2.3 3.6-4.4 22.6-10.5 23.3-11.7 4.5-6.8-6.4-31.1-9.7-38.4-3.9-8.8-9.1-18.8-13.7-27.3-2-3.7-15.9-28.3-17.4-29.1-.5-.3-10.8-1.3-12.3-1.3-8.7 0-25.2 1.8-34 3.1-7.3 1.1-14.2 4-21.5 5-.4-1.8.9-2.5 2-3.5 10.3-10 25.8-16.8 38.1-24.1-2.6-12.8-10.1-23.8-18.6-33.4-37.8-43-100.8-73.6-152.2-97.8-64.6-30.5-162.4-29.5-226.7 1-47.5 22.5-138.9 67.2-163.2 114.8-1.5 3-6.7 13.2-4.5 15.5 9 5.4 19.5 10 28 16.1 2 1.4 13.1 9.4 11.1 11.4-7.1-1.7-14.2-3.9-21.5-5-8.8-1.3-24.5-3.1-33-3.1s-7.8 2-11.8 1.1c-9.3 14.8-18.8 29.9-26.6 45.6-4.4 8.9-14.4 29.9-15.1 38.9-.2 2.4-.6 9.7 1 11 1 .8 4.9 1.5 6.7 2.3 5.2 2.4 14.7 5.6 15.3 11.2h.2Z" class="outline" data-original-prefix="outline"/><path id="outline-eyes5" fill="#000000" d="M981 1184c-1.9.4-2.4-1-3.4-2.1-13.3-14.7-23-34.8-35.1-47.9-22.5-24.4-60.9-45.3-87.4-65.6-1.2-.9-9.5-7-8.1-8.4 16.5 4.3 29.6 16 44.3 24.2 19.2 10.7 39.3 20 58.6 30.4 5.3 6 8.9 13.4 12.2 20.8 7.2 15.8 12.7 32.5 18.8 48.7Z" class="outline" data-original-prefix="outline"/><path id="outline-eyes4" fill="#000000" d="M1202 1060c.4 1.8-.9 2.5-2 3.5-7.4 7.2-18.8 12.6-27.3 18.7-19.4 13.7-51 35.4-66.7 52.3-10.2 10.9-18.1 30.5-29.4 41.6l-8.5 8c6.1-16.2 11.6-32.9 18.8-48.7 2.4-5.2 7.3-16.6 11.2-19.8 22.4-12.8 46.4-23.4 68.7-36.3 11.5-6.6 21.7-16.7 35.3-19.2Z" class="outline" data-original-prefix="outline"/><path id="fill-eye-lens2" fill="#ffffff" d="M825.8 1080.2c12 .1 33 9.8 43.5 16 68.6 40.5 84.8 127.1 44.1 193.7-76.9 126.1-228.1 32.8-206.1-98.1 9.2-54.6 60.3-112.1 118.5-111.6" class="fill" data-original-prefix="fill"/><path id="fill-eye-lens1" fill="#ffffff" d="M1219.8 1080.2c40-2 88.2 33.9 106.4 68.1 21.9 41.4 22.5 93.8 1 135.3-36.3 70.1-124.4 91.4-178.1 26.8-49.9-60-50.7-147.2 10-200 13-11.3 43.7-29.4 60.8-30.3Z" class="fill" data-original-prefix="fill"/><path id="fill-eyes-rims" fill="#ffffff" d="M1443.4 1122.6c-15.3-2.5-30.1 1.3-45.4.6-11.1-.5-19.7-6.1-27.2-13.8-8.1-8.3-14.7-17.8-22.2-26.6-8.7-10.1-19.1-18.7-30.8-25.2-25.3-14.1-54.4-19-83-19.1-15.4 0-30.8 1.2-46.1 2.8-15.4 1.6-31 3-45.9 7.4-29.3 8.6-51.5 29.5-72.1 51.1-1.6.6-2.8 1.5-3.8 2.7-32.6.2-65.3-.3-97.9-1.5-.4-.8-.8-1.7-1.3-2.5-4.5-7-11.8-13-17.9-18.6-13-12-27.2-22.9-42.1-32.5-1.7-1.1-3.3-1.6-4.9-1.7-.7-.1-1.4-.2-2.1-.2q-50.7-.9-101.4-.3c-2.6 0-4.7.9-6.3 2.2-20.3 1.5-40.2 6.9-58.7 15.6-4.5 1.8-9 3.9-13.4 6.2-28 14.7-46 39-61.2 65.7-1.4-3.5-4.5-6.4-9.3-6.7-8.5-.5-17.1-.5-25.7.1-7.7.6-16.7 1-20.9 8.6-4 7.2 0 16.6.8 24.3.7 7.6.8 15.3.8 22.9.2 15.2-.3 32.1 4.7 46.6 4.6 13.3 19.9 13.5 33 11.2 3.2 24.9 8 49.3 20.1 71.7 21.5 39.6 60.8 69.1 104.3 80.2 22.9 5.8 46.5 6.2 69.7 1.5 13.9-2.8 27.4-7.3 40.7-12.3 13.6-5.1 27.5-10.1 40.5-16.6 24.8-12.4 43.4-32.7 55.3-57.5 10.6-22 16.5-45.7 20.7-69.7 18.7-2.9 37.9-3.1 56.7-.4 4 31 10 62.5 30.3 87.3 11.6 14.1 27.6 23.6 43.4 32.3 16.2 8.8 32.1 18.5 48.6 26.7 16.9 8.3 34.2 14.2 53 16.2 17 1.8 34.5.2 51.1-4 33.3-8.4 63.5-27.7 85.7-53.9 23.8-28.1 39.2-62.5 46-98.6 8.7-.6 17.3-1.3 26-1.9 5.9-.4 10.2-4.5 10.5-10.5 1.8-33.2 3.5-66.5 5.2-99.7.2-4.2-3.4-9.4-7.7-10.1Zm-541.8 195.8c-18.4 19.1-42.6 31.7-68.8 36.1-14.2 2.3-28.8 1.8-43-1.3-.8-1.4-2.1-2.6-3.8-3.5-31.8-16.3-58.5-40.6-77.7-70.4-.6-1.4-1.2-2.9-1.8-4.3-4.6-16.8-8.3-33.9-11.1-51.1v-3.4c.2-7 .6-13.9 1.1-20.8.4-5.7.8-11.5 1.2-17.2 11.8-42.8 44.9-79.7 87.9-93 5.8-1.8 7.9-6.4 7.4-10.9 36.8-4.6 75.8 5.9 104.7 29.2 14.9 12.1 27.1 27.2 35.9 44.2 0 .6-.1 1.2 0 1.8 0 .6.1 1.1.2 1.7 6.3 55.2 9.2 119.9-32.2 163Zm449.7-119.5c-.6 18.5-1.8 37.6-5.7 56-.6.9-1 1.8-1.4 2.8-7.6 22.3-19 43-33.4 61.5-11.4 9.9-24.6 18.2-37.8 25.1-14.8 4.9-30.8 7-46.4 6.5-16.3-.5-32.2-3.8-47.8-8.6-.8-1.5-2.1-2.7-3.7-3.4-6.9-3.3-11.9-8.6-17-14.1-4.9-5.3-9.7-10.7-14.4-16.3-9.2-11-17.8-22.7-24.5-35.4-6.6-12.5-11-26.1-12.4-40.2-1.4-14-1.4-28.2-4.4-41.9 1-5.1 2.2-10.1 3.7-15 5.2-17.8 13.2-36 24.1-51.8 13.3-13.7 27.4-26.8 43.2-37.1l21.3-11.1c.7 0 1.5-.2 2.3-.4 32.7-9.2 67.4-1.7 94.9 17.8 27.9 19.7 43.2 49.7 54.9 80.9l1.8 4.8c1.1 5.8 2.1 11.7 3 17.6-.2.8-.3 1.6-.4 2.4Zm21.6-13.6c-.4-1.4-.9-2.9-1.4-4.3.6 1.4 1.2 2.8 1.8 4.1-.2 0-.3.2-.5.2Z" class="fill" data-original-prefix="fill"/><g id="eyes-shading"><path id="shading-eyes-9" fill="#aaaaaa" d="M828 1341c30.3-58.6 59.5-117.8 86.6-178 1.4-2.2-5.1-12.5-6.1-13-1.6-.8-1.4.8-1.8 1.2-3.3 4.6-6.5 10.5-9.5 15.4-33.5 54.8-63.1 112.1-93.2 168.8-2.2 2.3-11.1-1.5-14.3-2.8-2.4-1-11.8-4.9-11.8-7.2l111.9-197.3c1-4-6.4-8.8-9.5-11.1-16.1-12-46.8-25.6-66.9-26.2-5.7-.2-6.7 3.5-9.5 7.5-11.7 17.3-22.5 38.9-32.5 57.5-18 33.7-35.5 67.9-50.5 103-1.7 1.2-4.2-10.7-4.5-12-6.3-28.1-5-57.3 3.3-84.8 3.1-10.4 8.7-19.5 13.3-29.2-1.1-1.2-9 7.3-10 8.5-25.8 29.8-29.6 76.5-18 113 19.8 62.7 60.6 106.8 131.4 97.3 35.1-4.7 61.4-30.6 80-59 3.7-5.6 19.1-35.9 22.3-36.8 9.1-2.6 3 15.1 1.8 18.8-14.2 44.2-63 92.9-110.9 96.1-146.7 9.8-214.5-185-101-273 34.5-26.8 62.1-29.6 105-26 26.1 2.2 68.2 30.1 85 50 11.3 13.4 24.8 43.2 26.4 60.6 2.1 22.3-6 49-12.6 70.2-9.5 30.6-31.5 65-61.3 78.7-4.2 1.9-25.1 9.5-28.5 9.5h-14.5Z" class="outline shading" data-original-prefix="shading" opacity="0.5" style="opacity: 0.5"/><path id="shading-eyes-8" fill="#aaaaaa" d="M1341 1197c-1.8.3-1.1 5.2-1 6.5.6 11.1 1.4 19.5 0 30.8-2.5 19.2-21.3 61.8-35.4 74.6-17.5 15.9-43.2 27.4-66.5 31 12.9-34.5 27.5-68.4 40.7-102.8 11.3-29.3 22-58.8 32.8-88.2 1.1-2.2-6.8-12.6-7.6-12l-91.1 201.4c-3.7 5.2-20.8-2.8-25.9-4.4l100-214.5c0-2.7-14.6-12.5-17.7-14.3-18.9-11.2-43.3-16.8-64.9-11.3l-79.4 169.1c-5.7-10.8-9.1-22.4-12.5-34-14.3-48.2 27.2-121 71.5-142.5 16.4-8 29.6-9.2 47.6-9.5 9.8-.2 18.8-1.7 28.1-1.9 18.6-.3 36.5 6.9 51.7 17.1 123.7 83 58.4 289-92.9 278.9-47.9-3.2-96.3-51.2-110.7-95.3-1.2-3.7-8-26.1 2.8-18.8 3.1 2 15.4 27.3 19 33 27.3 43.3 61.9 69.2 115.8 61.9 50.8-6.9 77.9-43.2 94.4-88.6 5.9-16.3 5.7-25.4 4.2-42.7-.7-7.8-2.7-15.6-3-23.5" class="outline shading" data-original-prefix="shading" opacity="0.5" style="opacity: 0.5"/><path id="shading-eyes-5" fill="#aaaaaa" d="M1054.8 1224.8c3.2-20.6 5.1-40.3 11.2-60.3 1.8-5.7 9-27.1 12-30.8 2.4-3 8.5-2 7.7 2.3-.6 3.2-6.6 11.7-8.4 16.7-4.3 12.2-6.8 28.8-8.2 41.8-1.2 11.4-.4 25.1-2.1 35.9-1.8 11.2-15.3 6.7-22.4 6.5-13.3-.3-26.8-.2-40.1 0-7.5.1-19.2 4.6-23.2-4.7-2.3-28.3-1.8-60.2-13.5-86.5-1.2-2.8-4.6-6.5-5.3-8.8-1.1-3.4 1.7-5.7 4.9-4.9 4.1 1.1 12.1 24.3 13.7 29.3 6.5 20.4 9.3 41.3 11.4 62.6 20 5.7 41.9 4.7 62.3.7Z" class="outline shading" data-original-prefix="shading" opacity="0.5" style="opacity: 0.5"/><path id="shading-eyes-4" fill="#aaaaaa" d="M1441 1235c-10.6 2-20.9 11.1-31.9 6.9 2.3-38.8-3.8-78.8-22.2-113.3 10.7-6.8 10.5-5 16.2 4.8 15 25.6 19.6 58.4 20.8 87.7.6.7 14.2-5.2 17-4v18Z" class="outline shading" data-original-prefix="shading" opacity="0.5" style="opacity: 0.5"/><path id="shading-eyes-3" fill="#aaaaaa" d="M607 1217c2.8-1.2 16.4 4.7 17 4 .8-29.6 6.1-63.3 21.5-89 3.8-6.4 5.4-10.6 12.9-4.9 4.2 3.2-3.1 12.5-4.8 16.9-10.1 24.9-16.3 57.6-15.5 84.5.1 3.9 2.4 8.6.5 12.5-3.4 6.9-26.1-5-31.5-6.5-1.6-1.4 1.1-14.1 0-17.5Z" class="outline shading" data-original-prefix="shading" opacity="0.5" style="opacity: 0.5"/><path id="shading-eyes-2" fill="#aaaaaa" d="M1107 1341c-1.4.2-2.5-.2-3.7-.8-2.4-1.1-19.6-12.4-21.8-14.2-10.3-8.9-29.2-64.3-27.4-77.5 1-7 15.4-5 16.4-3.6 1.2 1.8 1.9 14.4 2.8 18.2 3.5 15.5 15.4 41.6 23.2 55.8 1.8 3.4 9.8 13.9 10.3 15.7.6 2 .1 4.2.2 6.3Z" class="outline shading" data-original-prefix="shading" opacity="0.5" style="opacity: 0.5"/><path id="shading-eyes-1" fill="#aaaaaa" d="M941 1341c0-2.4-.3-4.6.5-6.9 1.2-3.6 10.3-15.7 13-21 6.7-13.2 16.9-35.9 20-50 .8-3.8 1.7-16.3 3-18 1.5-2 16.1-3.6 16.6 5.5.7 12.7-17.4 65.6-26.6 74.5-2.2 2.2-19.8 13.6-22.9 15.1-1.2.6-2 1.3-3.6.9Z" class="outline shading" data-original-prefix="shading" opacity="0.5" style="opacity: 0.5"/></g><path id="outline-eyes3" fill="#000000" d="M1389 1103c26.4 8.4 53.8 8.7 81 13.1-14.7 46.7-12.2 96.5-11.4 144.9-14.6 6.7-31.3-1.8-46.6-.6-7.1 30.3-16.5 61.3-35.9 86-75.1 95.1-181.4 76.1-270.7 13.8-32.9-22.9-39.4-35.2-52.5-72.5-4.8-13.6-9.9-27.4-11.8-41.7-11.4-1.1-22.5-1.1-33.9 0-1.9 14.7-7.3 29.3-12.3 43.2-12.9 36.2-19.5 48.2-51.4 70.6-89 62.5-195.6 82-270.8-12.8-19.7-24.9-29.3-56-36.4-86.6-14.2-.9-29.1 5.5-43.3 2.3-5.5-1.2-2.7-3.7-2.7-7.2 0-35.7 1.4-73.6-4.3-108.8-1.7-10.5-5-20.5-7.7-30.7 27.2-4.7 55.5-4.5 82-13.1 17.8-5.8 14.4-7.8 25.5-20 20.9-23.1 42.8-35.2 71.5-46.4 26.5-10.4 34.6-8.6 62.5-7.5 21.7.8 43.5 1.5 65 4 19 2.2 39.5 3.8 54.5 16.5 15.6 13.1 28.3 31 42 46 28.6 2.2 57.4 2.2 86 0 15.5-15.7 34.3-45.4 54.8-54.2 23.2-10 86.7-12.5 113.7-13.3 16.3-.5 29.3-1 44.8 4.3 31.5 10.8 59.8 25.9 82.3 50.7 12 13.2 7.3 13.9 26.5 20Zm-593.2-54.7c-108 7.2-173.1 129.2-138.8 227.2 25.9 74 84.1 126 166.5 120.5 56.3-3.8 119-56.1 137.5-108.5 39.4-111.4-40.5-247.6-165.2-239.2m437 0c-115.5 7.8-182.9 134.3-145.8 239.2 18.7 52.7 81.8 105.1 138.5 108.5 82 4.9 139.7-46.7 165.6-120.5 36.8-105.2-40.8-235.1-158.2-227.2ZM882 1053c33.2 12.8 54.5 43.2 74.5 71 2.3-3.1 11.6-9.7 11.3-13.3-.6-6.8-26.5-34.7-32.8-40.2-16.1-14.2-27.1-16.8-48.5-18.5-1.1 0-4.7-.8-4.5 1m284-1c-13.5 1.8-29.8 1.6-41.3 9.2-8.5 5.6-45.3 41.4-44.5 50.2.3 3.3 9.1 9.7 11.3 12.6 16.1-22.9 32.9-45.6 56.2-61.8zm-194 77h104c-2.4-6.9-8-12.7-11.7-19-27.1-.7-54-1.1-81.1.2-.7 2.7-12.5 17.6-11.2 18.8m-323 3-45 6c1.3 6.3 3.5 12.5 4.7 18.8 3.1 16.1 4.6 33.3 5.3 49.7.3 5.9-1.3 21.8.1 25.9.8 2.2 15.5 6.3 18.4 6.6s.5-4.3.4-6.4c-1.2-35.1 1.4-68.2 16-100.5Zm795 6-45-6c14.8 33.6 18.8 70.6 15 107 3.5-.7 18.8-3.7 19.8-6.7 1.4-4.1-.2-20 .1-25.9.8-16.4 2.3-33.6 5.3-49.7 1.2-6.3 3.4-12.5 4.7-18.8Zm-457 95h74c0-10.9-.1-20.2 1.5-31 3.3-22.6 11.9-44.1 17.5-66-5.9 2.7-12.6 0-18.4 0-29.5-.3-59.5 1.8-89.1 1.1-1.7 0-2.9-.3-4.4-1.1 5.6 21.9 14.2 43.3 17.5 66 1.6 10.8 1.5 20.2 1.5 31Zm2 13c-2.1.2-7.4-.8-8.6.9-.7 1-3.1 19.4-3.9 23.1-5.3 23.4-15.1 44.9-29.5 64 2 .5 2.7-.7 4-1.4 3.4-2 11.8-7.9 14.4-10.6 4.8-4.7 12.8-27.6 15-35 4-13.3 6.4-27.3 8.5-41Zm111 88c1.1-1.2-9.2-14.6-10.5-17-8.2-14.2-14.3-31.1-18-47-.8-3.7-3.3-22.1-3.9-23.1-1.2-1.8-6.4-.7-8.6-.9 2.2 13.7 4.5 27.7 8.5 41 2.2 7.4 10.2 30.3 15 35z" class="outline" data-original-prefix="outline"/><path id="outline-eyes2" fill="#000000" d="M791.8 1064.3c75.4-6.2 152.2 54.7 157.2 131.2 4.3 66.6-6.2 126.6-67.7 162.3-85.2 49.4-185-7.6-209.8-96.8-24.3-87.4 23.4-188.8 120.3-196.7m34 15.9c-58.3-.5-109.4 57-118.5 111.6-22 130.9 129.2 224.2 206.1 98.1 40.7-66.7 24.5-153.3-44.1-193.7-10.5-6.2-31.5-15.8-43.5-16M763 1084c-16.4 3.7-31.9 14.1-44 25.5-72.4 68-52 193.5 33.3 240.7 61.6 34.1 135.2 13.3 170.5-46.9 4.6-7.8 10.1-18.4 11.2-27.3-2.8-.6-1.6.8-2.3 2.1-31.8 59.3-83.5 103.3-154.4 72-101.6-44.9-112.9-205.9-16.3-263.7 1.3-.8 2.5.2 2-2.5Z" class="outline" data-original-prefix="outline"/><path id="outline-eyes1" fill="#000000" d="M1229.8 1064.3c74.4-6.3 136.7 43.9 149.9 116.5 20.8 114.3-79.9 232.9-197 185-73.2-29.9-88.4-97.7-83.7-170.3 4.2-64.8 66.5-125.8 130.8-131.2m-10 15.9c-17.1.9-47.8 19-60.8 30.3-60.6 52.8-59.9 139.9-10 200 53.7 64.6 141.8 43.3 178.1-26.8 21.5-41.5 20.9-94-1-135.3-18.1-34.2-66.3-70.1-106.4-68.1ZM1113 1276c28.1 84.7 123.3 118.2 197.3 64.8 76.8-55.4 86.6-178.6 10.2-238.8-10.1-8-23.8-16.1-36.5-18 5.6 4.3 11.9 7.6 17.5 12 75.4 59.2 66.8 190.6-11.6 243.4-69.8 47.1-143.4 7.8-173.9-62.7z" class="outline" data-original-prefix="outline"/></g>
    </g><g class="trait-group" data-category="right ear" id="right ear-metal plate">
      <defs/><path id="fill-ear-rt1" fill="#ffffff" d="M1377.6 547.4c2.3 6.6 3.6 12.4 6.1 17.5 6.5 13.5 4.8 27.4 2.5 41.2-3.2 19.5-6.4 39.1-13.2 57.9-3.3 9.2-8.5 17.3-13.9 25.3-1.5 2.2-2.5 2.9-4.8.7-20.6-19.9-41.3-39.8-62.1-59.5-10.2-9.7-16.3-22-23.4-33.9-7-11.7-8.5-23.2-6.9-36.4 1.4-12 3.7-23.6 6.4-35.3 1.1-4.8 3.4-9.1 6.4-12.9 24.1-29.8 46.5-60.9 71.6-90 35-40.6 76.6-73 121.4-101.8 24.5-15.7 49.1-31.4 74.2-46.2 41.6-24.6 84.1-47.6 128-67.7 15-6.9 30.7-11.9 46.3-17.4 3.4-1.2 3.1.7 3.2 2.7 1.1 18.7 1.2 37.3-.8 55.9-2.3 21.9-5.7 43.6-9.7 65.2-.5 2.6-1 5.3-2.5 7.5-16.6 24.4-23 52.5-29.7 80.6-5.6 23.6-8.8 47.5-8.3 71.8.4 23.5-5 45.9-11.3 68.2-8.9 31.8-17.7 63.7-33.7 92.8-26.5 48.2-58.6 92.2-101.2 127.8-14.8 12.4-31.7 21.5-48.6 30.5-16.8 8.9-32.5 19.7-48.8 29.3-2.9 1.7-4.5 4.1-5.6 7.2-6.8 20.2-14.8 40-25.4 58.5-6.8 12-14.3 24-25.1 33.3-5.2 4.5-9.8 9.5-14.7 14.3-17.3 16.9-36.3 31.5-59.2 39.8-7.1 2.6-15.4.2-20.9-4.7-10.4-9.3-19.3-20.2-28.2-31-1.3-1.6-1.2-2.7 0-4.2 14.7-20.3 21.8-43.9 28.4-67.6 2-7.3 5.3-13.9 10.4-19.7l94.2-106.8c7.9-8.9 8.4-16 1-24.7-1.9-2.2-1.1-3.2.6-4.2 3.8-2.3 4.3-5.7 4.3-9.8 0-24.3 6.1-47.4 14.7-70 .9-2.5 2.3-4.8 3.8-7 4-5.8 7.5-6.4 13.5-2.5 3.4 2.2 6 5.2 8.4 8.5 11.2 15.9 15.9 33.4 14.5 52.8-1.2 16.8-6.8 32.1-14.4 46.9-.8 1.6-1.8 3.2-2.7 4.8v1c2 .4 3.5-.8 5-1.6 24.5-12.7 47.8-27 68.4-45.7 6.6-6 10.3-12.3 11.7-21.3 4-26.6 11.6-52.3 20.6-77.6 6.3-17.8 15.8-33.7 27-48.8 1.9-2.6 1.9-4.2 0-6.9-7.6-11.5-10.5-24.6-10.9-38-1.5-44.6 10.6-85.5 33.7-123.5 21.9-36 50.4-65.2 86.2-87.4 5.4-3.4 9.9-7.3 12.8-13.4 5.3-10.9 11.4-21.4 18.4-31.2-1.1-1-1.8-1.1-2.6-.5-6.4 4.2-13.3 7.8-18.6 13.4-5.6 6-12.4 10.1-19.7 13.3-5.6 2.5-10.2 6-14.6 10.3-14.6 14.4-29.1 28.9-44.3 42.7-36.2 33.1-61.5 73.3-79.3 118.6-2 5.2-2.6 9.8-1.4 15.3 4.3 20.9 7.2 41.9 8 63.2 1.3 34.4-6 66.8-20.4 97.8-4.8 10.3-9.2 20.7-16.3 29.7-3.7 4.8-7.9 9-13.2 12-8.1 4.6-15.4 2-18.3-6.9-1.8-5.4-2.9-10.9-4-16.5-3.4-16.7-9.5-32.5-14.5-48.8-.7-2.4-2.2-4.1-4.1-5.5-17-11.8-35.1-21.6-54.3-31.8v.4Z" class="fill" data-original-prefix="fill"/><path id="fill-panel-ear-rt" fill="#ffffff" d="M1253.2 614.5c2.9 6.9 5.4 12.8 8.9 18.2 4.9 7.5 11.1 13.7 18.2 19 23.1 17.5 45.5 35.9 66.5 55.9 5 4.8 11.1 8.4 16.5 12.9 9.2 7.6 9.8 12.8 1.5 21.1-27.3 27.4-52.9 56.5-81.2 82.7-11.8 11-18.6 24-22.4 39.1-2.2 8.7-4.6 17.4-7 26-3.6 12.8-10.1 24.2-18.1 34.7-.8 1-2.1 2.1-2.1 3.3-.3 5.1-3.3 4.6-6.5 3.4-16.4-6.3-33.1-12.1-47.2-23.1-2.2-1.7-3.7-3.7-4.5-6.4-2.5-8.6-5-17.2-7.7-25.7-3.1-9.9-1.1-19.2 3.1-28.1 18.3-39 35.9-78.4 57.5-115.6 5.2-8.9 6.5-18.3 8.2-27.9 4.4-26.2 9.6-52.2 14.8-78.2.7-3.4 1-6.8 1.6-11.3zm-3.9 277.5c.3-11.1-6-17.9-17.1-18.3-10.9-.4-20.5 9.3-21 21.1-.4 10 8.2 20.1 17.4 20.5 10.5.5 20.3-10.7 20.7-23.3m84.1-129.6c8.2 0 15.9-6 18.6-14.7.9-2.7.8-5.6 1.2-8.3 1-6.6-1.5-11.7-6.9-15.3-5.3-3.4-11.1-4-16.4-.4-6.7 4.6-11 11-11.9 19.3-1.1 10.2 6.2 19.3 15.4 19.4" class="fill" data-original-prefix="fill"/><path id="fill-stud2-ear-rt" d="M1222.6 893.9c0-6.9 4.2-10.7 12-10.9 4.2 0 7.9 3.9 8 8.6 0 6-5.5 12.2-11 12.3-5 0-8.9-4.2-9-9.9Z" class="fill" data-original-prefix="fill" fill="#ffffff"/><path id="fill-stud1-ear-rt" fill="#ffffff" d="M1346.9 742.3c0 7.5-3.9 11.8-10.2 11-4.2-.5-7.1-2.6-7.9-7.1-.9-4.9-.5-9.6 2.6-13.8 3.6-5 10-4.6 13.1.7 1.6 2.8 2.5 5.8 2.4 9.1Z" class="fill" data-original-prefix="fill"/><path id="shading-ear-rt1" fill="#aaaaaa" d="M1234 709.1c0-8.2 2.4-16.1 3.1-24.2.2-2.8 2.5-2.8 4.3-3.3 11-3.2 22-6.3 33.5-9.7-3-3.7-6.5-5.6-9.7-7.8-9.1-6.1-14.1-14.8-16.7-25.1-.4-1.6-.4-3.3 0-4.9 3.2-21.4 6.5-42.8 9.8-64.2 0-.8.5-1.5 1-2.7 9.2 13.9 18.9 26.7 29.6 38.9 11.3 12.8 23.3 24.8 37 35 8.7 6.5 8.8 6.4 13.9-2.9 12.3-22.1 21.4-45.5 26.4-70.3 1.8-9.1 6.1-16.5 11.8-23.7 5.1-6.4 9.8-9 18.4-7.5 17.5 3.2 35.1 6.1 52.2 11 3.3 1 5.3.6 7.1-2.7 6-10.8 11.3-21.8 16.7-32.9 5.5-11.5 4.3-23.8 5.8-35.7 1-7.9 1.5-15.9 2.3-23.9.3-2.4.6-5 2-7.1 19.9-30.6 37.9-62.4 61.1-90.7 7.9-9.7 16.2-19.1 24.7-28.2 5.6-6 11.7-11.4 18.5-16 20.4-13.8 40.7-27.7 61.7-40.7 6.3-3.9 13.1-7.2 19.7-10.7 1.3-.7 13.8 1.7 14.7 2.8 1.1 1.3 0 2.5-.4 3.7-5.4 11.3-13 21.3-21.1 30.6-35.9 41.5-59.7 89.4-76.7 141.1-9.4 28.6-10.2 57.9-5 87.4 2 11.4 2.5 22.2-3.6 32.8-4.9 8.6-7.6 18.4-11 27.8-.2.6-.5 1.2-.7 1.9-.7 2.9-.3 6.2 1.6 7.9 1.7 1.5 4.3-.9 6.2-2.1 5.5-3.5 9.2-8.7 12.8-13.9 16.4-23.6 29.2-49.2 41.9-74.9.8-1.6 1.6-3.2 2.5-4.9 1.6 1.2.7 2.5.4 3.6-18.6 72.5-47.8 140.1-92 200.8-1.5 2-3 4.1-4.9 5.6-26.6 20.3-54.8 37.9-87.2 47.5-12.3 3.6-24.7 6.2-37.7 6.5-16.4.5-27.4 10.7-35.5 23.7-9.2 14.8-17.2 30.5-25.8 45.6-16.6 29.1-32.9 58.5-54.7 84.1-8.9 10.4-13.5 21.8-16.6 34.4-1.3 5.3-2.8 10.5-4.2 15.9 2.4 0 3.3-1.5 4.5-2.5 32.7-28.3 61.9-60.1 90.7-92.3 1.8-2 3-4.4 3.9-6.9 4.4-12.5 9.7-24.7 11.4-38.1.9-7.1 5.4-11.6 13.1-13.9 37.6-11.1 71.6-30.2 106.2-47.9 19.9-10.2 38.5-22.6 55.5-37.1 7.1-6 13.8-12.5 20.8-18.8-3.1 4-6 8-9.2 11.9-17.4 21.1-36.9 40-60.1 54.9-14.5 9.3-30 16.9-44.8 25.7-11.4 6.7-22.6 13.9-33.9 20.8-1.7 1-2.5 2.5-3.2 4.2-10.5 24.5-21.1 48.9-31.5 73.4-1.7 4.1-4.1 7.5-7.4 10.5-26.6 24-53.2 48-79.6 72.2-2.7 2.5-5 2.9-8.4 1.9-13-3.7-26-7.2-39.1-10.6-3.2-.8-5.2-2.2-6.5-5.3-4.4-10.5-12.9-17.6-21.5-24.4-4.1-3.2-7.5-7.3-11.9-9.7-9.8-5.4-20.1-10.1-31.5-10.8-2.6-.2-3.8-1.1-4.8-3.4-7.1-16.1-14.3-32.3-21.6-48.4-.7-1.6-1.1-3-.4-4.8 4.8-11 9.5-22 14.2-33 2 .4 1.4 1.9 1.5 2.8 3 17.7 12.1 33 19.3 49 2 4.4 4 8.8 6 13.1.9 1.8 1.8 3.8 4.1 3.9 2.4 0 3.2-2.3 3.3-3.8.7-9.5 7.6-14.6 13.6-20.8 14.3-14.7 25.5-32 36.9-49 14.1-21 27.9-42.2 42.8-62.8.6-.8 1-1.7 1.9-3.1-38 8.1-74.4 19.5-112.2 29.5 1.2-2.6 2-4.5 3-6.3 6.5-12.2 12.5-24.6 17.8-37.4 1.3-3.1 3.1-4.6 6.3-5.5 26.2-7.5 52.3-15.4 78.6-22.5 7.7-2.1 12.8-5.8 16.6-12.6 3.9-7.1 4.3-7-2.4-11.5-5.4-3.6-10-9.9-16.2-10.1-5.8-.2-11.9 3.8-17.8 5.9-13.8 5-27.5 9.9-41.3 14.9-1.2.4-2.4 1.2-3.8.7Zm-4.8 193.4c-2.3-7.7.9-13.2 7.1-17.3.8-.5 2-.8 1.4-2.1-.4-.9-1.4-.7-2.2-.7h-4c-5.4.2-8.8 4.9-9.9 12.7-.9 6.2 3.2 6.7 7.6 7.5Zm99.6-156.5c3.6-11.8 8.3-14 18.6-9.9 0-8.6-4-9.5-11.3-8.7-6.7.7-9.7 8.2-7.3 18.6" class="outline shading" data-original-prefix="shading" opacity="0.5" style="opacity: 0.5"/><path id="outline-ear-rt3" fill="#000000" d="M1735.4 208.8c1.6 15.9 0 30.4-1 44.8-1.6 25.4-2.3 50.9-6.5 76.1-1.4 8.3-3.6 15.7-9.6 22.4-8.9 9.8-14.3 21.7-17.9 34.7-7.3 26.5-11.5 53.4-12.3 80.8-.2 7.9.6 15.6 4.1 22.9 2.2 4.5 2.2 9.2 1.2 14.1-15.2 75.4-46.3 144.2-89.1 207.6-20.5 30.3-47 55.3-76.8 76.5-21.1 14.9-42.4 29.5-66.1 40.1-9.4 4.2-16.1 11.1-21.6 19.4-12.5 19.2-23.7 39-30.4 61.1-2.1 6.7-5.7 12.5-11.6 16.5-20.1 13.7-36.9 31.2-53.7 48.5-9 9.3-20.7 12.5-31.8 17.7-5.9 2.8-11.3 2.2-17.2.4-10.5-3.1-21.1-5.8-31.4-9.8-3.1-1.2-5.4-2.9-7.4-5.6-5.8-7.9-11.9-15.7-17.7-23.6-3.5-4.7-7.9-8-13-10.7-14.4-7.8-29.7-13.3-45.8-16.4-6.3-1.2-10.8-4.8-14.2-10.1-11.8-18.5-18.2-39-23.2-60.1-1-4.3.5-7.9 1.9-11.5 3.1-7.8 8.3-14.4 13.2-21.1 22.9-31.6 41.9-65.3 56.9-101.3 18.9-45.4 25.1-93 23.3-141.8-.2-5.4-.4-10.6 4.4-14.6 1.6-1.4 1.6-3.9 1.7-6.1.4-10.7 1.2-21.3 1.3-32 0-6.6 1.8-11.9 5.7-17.4 19.4-27.1 38.8-54.2 59.1-80.6 28.6-37.4 61-71.4 93.4-105.5 1.9-2 4.1-3.9 6.4-5.5 64.7-45.2 132.5-84.7 206.2-113.5 27.3-10.6 54.4-22.1 82.7-29.7 7.9-2.1 15.9-3.8 23.9-5.4 6.9-1.3 7.4-.7 9.5 5.9 3.5 11.2 3.1 22.7 3.3 32.7 0 .1 0 0 0 0Zm-357.8 338.6c19.2 10.2 37.3 20 54.3 31.8 1.9 1.3 3.4 3 4.1 5.5 4.9 16.2 11.1 32.1 14.5 48.8 1.1 5.5 2.2 11.1 4 16.5 2.9 8.8 10.2 11.4 18.3 6.9 5.3-3 9.5-7.2 13.2-12 7-9.1 11.5-19.5 16.3-29.7 14.4-31 21.7-63.4 20.4-97.8-.8-21.4-3.8-42.4-8-63.2-1.1-5.5-.6-10.2 1.4-15.3 17.8-45.3 43.1-85.5 79.3-118.6 15.1-13.8 29.6-28.3 44.3-42.7 4.3-4.3 9-7.8 14.6-10.3 7.3-3.3 14.1-7.4 19.7-13.3 5.3-5.6 12.2-9.2 18.6-13.4.8-.5 1.6-.4 2.6.5-7.1 9.8-13.1 20.3-18.4 31.2-3 6.1-7.4 10.1-12.8 13.4-35.8 22.1-64.4 51.4-86.2 87.4-23.1 38-35.3 78.9-33.7 123.5.5 13.4 3.4 26.5 10.9 38 1.8 2.7 1.8 4.3 0 6.9-11.1 15.1-20.7 31-27 48.8-8.9 25.3-16.5 51.1-20.6 77.6-1.4 9-5.1 15.3-11.7 21.3-20.6 18.7-43.9 32.9-68.4 45.7-1.5.8-3 2-5 1.6v-1l2.7-4.8c7.7-14.7 13.2-30 14.4-46.9 1.4-19.4-3.3-37-14.5-52.8-2.3-3.3-5-6.3-8.4-8.5-6-3.9-9.5-3.3-13.5 2.5-1.5 2.2-2.9 4.5-3.8 7-8.6 22.5-14.7 45.6-14.7 70s-.4 7.5-4.3 9.8c-1.7 1-2.4 2-.6 4.2 7.4 8.7 6.9 15.8-1 24.7l-94.2 106.8c-5.1 5.7-8.3 12.3-10.4 19.7-6.6 23.7-13.7 47.3-28.4 67.6-1.1 1.6-1.3 2.6 0 4.2 8.9 10.8 17.8 21.7 28.2 31 5.5 5 13.8 7.3 20.9 4.7 23-8.3 41.9-22.8 59.2-39.8 4.9-4.8 9.6-9.8 14.7-14.3 10.8-9.3 18.3-21.3 25.1-33.3 10.5-18.5 18.6-38.3 25.4-58.5 1.1-3.2 2.7-5.5 5.6-7.2 16.4-9.6 32-20.4 48.8-29.3 16.9-9 33.8-18.1 48.6-30.5 42.6-35.5 74.7-79.6 101.2-127.8 16-29.1 24.7-61 33.7-92.8 6.3-22.3 11.7-44.8 11.3-68.2-.4-24.3 2.7-48.1 8.3-71.8 6.7-28.1 13.1-56.2 29.7-80.6 1.5-2.2 2.1-4.9 2.5-7.5 4-21.6 7.4-43.3 9.7-65.2 1.9-18.6 1.8-37.3.8-55.9 0-2 .2-4-3.2-2.7-15.5 5.5-31.3 10.5-46.3 17.4-43.9 20.2-86.4 43.2-128 67.7-25.1 14.8-49.7 30.5-74.2 46.2-44.8 28.7-86.4 61.2-121.4 101.8-25 29.1-47.4 60.2-71.6 90-3 3.8-5.3 8.1-6.4 12.9-2.7 11.7-5 23.3-6.4 35.3-1.6 13.2 0 24.7 6.9 36.4 7.1 11.9 13.2 24.2 23.4 33.9 20.8 19.7 41.5 39.6 62.1 59.5 2.3 2.2 3.3 1.5 4.8-.7 5.4-8 10.6-16.2 13.9-25.3 6.8-18.7 10-38.3 13.2-57.9 2.2-13.8 3.9-27.7-2.5-41.2-2.5-5.2-3.8-10.9-6.1-17.5v-.4Zm-124.4 67.1c-.6 4.5-.9 7.9-1.6 11.3-5.3 26-10.4 52-14.8 78.2-1.6 9.6-3 19-8.2 27.9-21.7 37.3-39.3 76.6-57.5 115.6-4.2 8.9-6.2 18.2-3.1 28.1 2.7 8.5 5.3 17.1 7.7 25.7.8 2.7 2.3 4.7 4.5 6.4 14.1 11 30.8 16.8 47.2 23.1 3.1 1.2 6.2 1.7 6.5-3.4 0-1.1 1.3-2.2 2.1-3.3 8-10.6 14.5-21.9 18.1-34.7 2.4-8.6 4.8-17.3 7-26 3.8-15.1 10.6-28.1 22.4-39.1 28.4-26.3 54-55.3 81.2-82.7 8.3-8.3 7.7-13.5-1.5-21.1-5.4-4.5-11.5-8.1-16.5-12.9-21-20-43.4-38.4-66.5-55.9-7.1-5.4-13.3-11.6-18.2-19-3.5-5.4-6-11.3-8.9-18.2z" class="outline" data-original-prefix="outline"/><path id="outline-ear-rt2" fill="#000000" d="M1249.3 892c-.4 12.7-10.2 23.8-20.7 23.3-9.2-.4-17.7-10.5-17.4-20.5.4-11.9 10-21.5 21-21.1 11.1.4 17.4 7.1 17.1 18.3m-26.7 1.9c0 5.7 4 10 9 9.9 5.5 0 11-6.3 11-12.3s-3.7-8.7-8-8.6c-7.8.2-12 4-12 10.9Z" class="outline" data-original-prefix="outline"/><path id="outline-ear-rt1" fill="#000000" d="M1333.4 762.4c-9.2 0-16.5-9.1-15.4-19.4.9-8.3 5.2-14.7 11.9-19.3 5.3-3.6 11.1-3.1 16.4.4 5.4 3.5 8 8.6 6.9 15.3-.4 2.8-.3 5.6-1.2 8.3-2.8 8.6-10.4 14.7-18.6 14.7m13.5-20.1c0-3.3-.8-6.3-2.4-9.1-3.1-5.4-9.5-5.7-13.1-.7-3.1 4.2-3.4 8.9-2.6 13.8.8 4.4 3.6 6.6 7.9 7.1 6.4.7 10.2-3.5 10.2-11Z" class="outline" data-original-prefix="outline"/>
    </g><g class="trait-group" data-category="left ear" id="left ear-battle scars">
      <path id="fill-ear-lft" fill="#ffffff" d="M858.7 928.7c-3.7 4.2-14.8 12.9-19.8 16.7-14.6 11.5-32.7 23.6-49.5 31.5-5 2.3-21.9 9.8-26.4 8.7l-60.9-28.2c-24.2-30-45-62.9-68.1-93.9L621.5 828l-113.4-70.7-69.5-84.5-40.8-83.2c-.7-1.3-1-2.7-.8-4.2.9-6.5 16.1-17.9 19.8-24.3 2.3-12.4-1-25.8 3.4-37.7l34.9-31.1c1.7-2.2-3.1-10-6.6-9.6l-68.2 12-2.4-.4-46.8-181.2-8.1-119.8c.2-1.5 11.5-11.4 13-12.1 1.8-.8 4 .7 5.6 1.4 44.7 17.6 88.7 43.3 133.3 61.6l144.9 87.1c34.7 38.2 77.4 72.2 111.6 110.4 19.4 21.7 36.1 47.5 55.3 69.6 7.9 62.9 12.3 126.4 19.6 189.4l79.4 176.7c.6 2.9-1.4 5.4-2.7 7.9-4.2 8.6-19.1 36.9-24.5 43Z" class="fill" data-original-prefix="fill"/><path id="shading-ear-lft" fill="#aaaaaa" d="M594.1 547.9c22-5.9 44.3-10.2 66.9-13.5 7.1-9 19.6-17 26.6-25.4 5.8-7 6.8-15.9 18.9-7l23.5 42.5c4.3 2.7 21.4 14.9 25.3 14.3 2.1-.3 13.8-7.8 16.5-9.6 2.4-1.6 12.1-10 12.9-10.2 2.8-.5 4.1 5.4 4.4 7.4.8 6.7.3 15.6.6 22.6-1 2.9-8.3 5.5-11.3 7.7-.7.5-1.7-.2-1.2 1.7.2.6 8.7 9.2 9.5 9.6 1.5 1 3-.3 3.4 0s4.2 6.9 4.7 7.9c2.1 4.3 1.7 8-2.2 11l-91-69.8-1.5 2c-.6.4-1.6-1.7-2.5-1.7-2 0-27.4 24.3-30 27.7-2.9 3.7-4.2 7.6-5.5 12 2 .4 2.7-.5 4-1.4 5.7-4.2 10.8-12.5 16.9-16.5.5 2-1.8 2.4-1.8 4.3 0 3.2 4 15.7 5.1 19.9C712 681.5 760 779.2 824 857.7c8 9.7 37.9 40.7 40.3 49.7.9 3.3.4 13.9-.5 17.1-1.2 4.2-33.7 28.5-39.5 32.5-15.2 10.4-31.3 19.8-48.8 26l-39.5-7.4c-25.7-24.5-53.6-47.2-79.1-71.9-3-2.9-8.2-7.4-10.4-10.6-5.3-7.6-11.7-45.5-15.1-57.9-.6-2.2 1.2-3.9-1.4-6.6l-105.6-62.4-.5-6c29.4 9.8 56.5 27.9 84.6 39.8 13.2 5.6 27.2 8.1 40.9 12.1 2.3-6.6-5.6-44.9-9.5-47.5-35.8-2-69.1-17.3-99-36-25.8-16.2-32.8-24.5-49.1-49.9-16.6-25.8-31.6-54.3-43.5-82.5-3.2-7.5-12.3-27.3-11.3-34.2.8-5.2 5-11.1 4.8-16.8 2.3-.5 1.6.3 2.2 1.3 7.3 11.3 21.5 41.5 33.5 46.4 6.6 2.7 6-2.2 4.7-7.7-3.4-14.8-17.2-33.6-16.5-47.5.2-3.3 3.8-28 4.6-29.4 7.8-6.3 20.9-9.5 22.2-20.8.6-15.9-2.7-35.1-.8-50.8.4-3.5 3-5.9 3.1-9 0-3.6-3.2-7.7-3-11.5-1-.9-6.3 4.4-7 5.5-3.5 5.3-1 7.1-1 12 .2 15.8-.4 31.6.8 47.4-5.4.6-21.8 15.6-24.5 16.1-2.6.4-7.5-13.8-10.7-13.8l-59.2 11.8h-11.4c1-3.7-3.3-10.3.7-12.7l69.4-19.6 9-38c-12.9-38.6-33.1-79.6-58.1-112-12.6-16.3-30.2-31-33.9-52.4 3.3-.7 9-4.4 12.2-3.9 2 .3 6.5 4.6 9 6 23.8 13.1 49 29 71 45 38.5 28.1 75.4 83.9 100.1 124.9 9.4 15.6 9.7 19.1 11.6 37.4 2.6 24.6 1.1 32.6 12.2 55.8 3.7 7.7 8.6 14.7 12 22.6ZM719 776c-.4-2.2-3.5-6.6-5.5-7-3.7-.7-16.9 1-19.6 3.5-2.4 2.3-5.9 14.8-7.2 18.8-2.2 7-10.2 31.5-8.5 37.1.6 2.1 4.7 4.7 4.8 7.7l4-6.5 26.5 40.5 4.1-8-26.6-47.6 10.5-38.4H719Zm57 190c-3.3-10-4.9-26.8-9.8-35.7-2.6-4.8-10.8-12.4-14.6-17.4s-9.2-10-8.4-16.1c2.2-15.5 15.7-28.9 22.6-42.5l-6.3-13.3c-1.7.8-16.6 29.2-18.7 33.3-5.5 10.9-16.8 32.7-17.8 44.2-1 12.1.9 25.6 0 37.8l6 3.7 5.5-32zm-103-56 9-49.7-4-9.3c-1.6 0-1.6 3.4-1.8 4.7-1.3 7-1.2 14.9-2.4 21.6-1.4 7.7-5.3 16.6-7.4 24.3 0 1.3 5 10.2 6.6 8.5Z" class="outline shading" data-original-prefix="shading" opacity="0.5" style="opacity: 0.5"/><path id="outline-ear-lft" fill="#000000" d="M844 942c15.6-14.5 32.6-45.7 29.9-67.4-8.3-32.4-25.5-58.9-39.8-88.2-9.5-19.6-31.9-63.6-35-83-3.6-22.2-3.2-46.4-5.1-68.9-.9-9.9-2.5-19.8-3.2-29.8-6.3-5.3-13.4-13.5-21.5-15.5-13.1-3.2-22-2.3-35.1-8.9-19.6-9.8-27.8-25.2-36.6-44.3-10.1 11.4-33.8 25-36.3 40.7-3 19.5 8.4 73.2 16.6 91.9 4.8 11 12.6 21.6 20.2 30.8 48 58.3 66.6 127.3 109.2 188.8 3.4 5 10.1 11.7 12.7 16.3 2.1 3.9 4.1 24.3 4.2 29.8.2 6.4-4.7 10-9.1 14-2.2 2-18.3 15.1-20 13.5.9-5 4-9.7 4.7-14.8 1.7-11.6-1.8-24.2-5.2-35.2-7.9-25.5-21.5-49.2-35-72-1.8 0-16 28-18 32-6.6 13.1-18.4 35.3-19.5 49.5-.9 11.2.6 23.6.2 34.9.6 1.8 15.1 10.8 17.8 12.2 17.1 8.9 28 10.8 47.2 6.2 6.9-1.7 12.8-5.3 19.8-5.7-3.3 5.3-7 6.8-13 9.5-22.4 10.2-58.6 26.5-79.5 6.5-14.3-13.6-27.5-29.5-42.4-42.6-12-10.6-25.8-15.8-32.5-31.5-10.8-25.3-24-65.5-48.8-80.2-12-7-24.9-12.3-37.2-19.8-81.4-50-124-108-162.7-194.3-1.9-4.2-11.8-25.8-11.8-28.2 0-2.2 13.4-12.5 16-15 2.7-2.6 11.5-10.6 12.9-13.1 2.3-4.3 4.9-27 5.1-32.9.1-2.2-1.6-4.2-.9-6.8 1.1-4 16.2-13.1 18.8-17.7-24.9 3.4-48.8 10.4-72 20-1-7.2-5-16.4-5.1-23.5s5.4-15.4 6.1-24c1.3-16.7-1.4-39.1-4.3-55.8-3.8-21.6-9.2-45.2-21.9-63.1-2.7-3.8-8.9-9.4-10.3-12.7-6.4-15-6.2-46.8-7.5-63.5-2.2-29.9-8.2-77.3.5-105.5 1.8-5.8 2.2-6.4 8.7-5.7 12.1 1.1 31.8 7.4 43.8 11.3 83.1 27.2 164 67.2 237 115 21.8 14.3 36.8 25 55.1 43.9 52.6 54.4 98.4 114.5 141.4 176.6 2.3 4.6 2.2 21.8 2.6 28.4 3.6 65.9 7.8 160.8 46.2 215.8 2.9 4.1 7.4 7.9 10 12 6.8 10.6 12 30 17.6 42.4 9.2 20.5 21 34.3 22.2 57.8.2 3.2.5 7.5-.5 10.5-13.8 17.6-24.1 41.8-43.8 53.2-3.7 2.2-8.4 5.1-12.7 5.8ZM702.8 512.2c.5.6 4.5 11.7 6.1 14.4 7 12.8 14.2 25.5 27.2 32.8 3.5 2 12 6.2 15.6 6.5 4.3.3 17.8-8.4 23-10.8 3.5-1.6 7.3-2.7 11-4.1-1.8-14.4-3.9-27.9-12.2-40-21.1-30.9-52.7-69.2-77.9-97.1-58.5-64.7-137.8-110.4-212.8-153.2-45-25.7-91.8-52.4-141.2-68.8-1.9-.6-10.6-3.9-11.5-3-2.9 37.8.8 78 8.3 115.2 4 19.6 13.9 30.2 20.7 48.3 8.5 22.4 17.3 59.3 20 83 2.1 18.7 1.2 37.8 3 56.5 16.7-2.5 33.1-6.7 49.8-9.7 8-1.4 18.2-1.6 25.6-3.4 6.1-1.4 6.8-5.9 8.1-10.9 4.5-17.3 3.6-35.6 5.7-53.3 1.6-4.2 14.7-9.6 14.8-13.2 0-3-13.9-27.1-16.6-31.5-23.5-38.4-55.2-67.1-93-91L354 241.3c-.2-1.5 0-1.7 1.5-1.5 6.7 1 18.7 13.8 24 18 7.9 6.3 17.8 9.2 26 15 53.7 51.2 107.7 99.8 130.4 173.4-15.6 64.6-13.8 128.7 20 187.2 5.6 9.7 23.2 34.9 35.7 21.4 4.4-4.7 7.8-28.3 10-36 3.6-12.6 8.4-25 12.5-37.5 17-13.2 37.3-24 53-39 7.3-6.9 22.3-30.1 30.8-31.3 1.4-.2 4.1 0 5 1.1ZM492 414c-12.8 5.3-8.1 15.2-8 25.5.3 13.3-.8 26.7.8 39.9-21.4 13.6-40.7 29.6-58.8 47.3-2.1 3.3-1.5 24.1-2.1 29.9-1.2 11.2-11.1 18.3-19 25.2 9.9 37 29.1 70.7 51.2 101.6 22.3 31.2 49.9 64.5 81.5 86.5 17.3 12 36.6 20.7 54.6 31.4 8.3 4.9 32.2 18.5 37.7 24.3 4.6 4.8 1.7 5.4 2.4 9.5s5.9 15.5 7.8 20.2c3.3 8.4 7 16.7 11.2 24.8 2.7-4.7 5.1-10.5 6.2-15.8 4-19.5 4.9-44.9 2.1-64.6-1.7-11.9-5-23.5-7.9-35.1.2-2.4 6.1-6.7 8-9 7.9-9.9 13.8-21.5 19-33 0-3.4-13.8-12.7-14.5-15.4-1.5-5.3 0-13.7-.4-19.6-1.1-13.7-9.6-50.9-17.2-61.8-11.8-17.2-26.5 9.3-31 19.7-9.3 21.4-7.6 46.3.4 67.9 2.9 7.9 7.3 15.2 10.8 22.7-1.4 1.3-15.2-6.5-17.7-7.8-15.2-8.2-32.4-19.3-45.8-30.2-4.2-3.4-15.7-12.9-18.4-16.6-3-4-9.1-42.7-11.4-51.6-8.6-32.6-20.5-64.9-41.6-91.5-.3-1.7 5.1-9.4 6.3-12.3 14.2-33 3.6-78.9-6.5-112Zm298 177c-1.2-2.4-1.8-28.5-3.5-28l-15.5 9.5c1.2 2.6 13.2 14.9 16 17 1 .8 1.3 1.9 3 1.5m-83 168c.2-1.4 0-2.6-.5-4S694 738.9 693 738.4c-2-1-7.1 5-8.5 6.5-14.2 16.1-18.4 33-13.5 54 2.6.3 1.6 0 2-1.5 2.5-8.6 4.9-28.8 9.9-35.1 3.2-4 18.5-2.4 24-3.5Zm4.8 9.2c-5.4.2-17 .9-19.7 5.4-3.1 5.1-13 38.5-13.9 45.1-.4 3-.8 8.6.3 11.2l33.6 50.4 3.3 2.7 36.5-56.5c.2-4.3-21.2-36.1-25.1-41.8-2-2.8-10.6-16-12.5-16.5-1-.3-1.6 0-2.4 0ZM708 946l-1.7-42.8c-7.9-17.7-17.7-36.5-28.1-52.9-.6-.9-.9-2.2-2.2-2.3-1.2 18.6-3.3 37.2-10.8 54.3 2.6 3.7 4.8 7.8 7.8 11.2 6.1 7 24.9 25.5 32 31 1 .8 1.3 1.9 3 1.5" class="outline" data-original-prefix="outline"/>
    </g><g class="trait-group" data-category="head" id="head-banger black">
      <path id="fill-head" fill="#ffffff" d="M1076.7 823.4c9.6 5.8 4.5 20-7.2 20.7-5.3.3-5.3-3.1-9.1 2.8-41.5 80.3-80.3 162.1-113.8 246.2-6.8 17-17.4 40-22 57-8.5 31.5-2.7 65.4 1.6 97.3 1.7 12.9 4.7 25.7 5.8 38.6l-3.6-.9c-10.9-15.6-26-29.6-36.8-45.2-3.9-5.5-7.6-11.1-8.6-17.9-1.7.4-1.2 3.2-2.5 5-1.4 2-4.4 2.3-5.3 4.7-2.4 6.6-4.5 30.6-5.2 38.8-7.1 78.9-4.3 179.5 25.5 253.5 1.6 4 15.8 31.8 14.5 33-1.8 1.7-7.5-3.3-9-4.5-56.2-45.2-108.1-98.5-149.2-157.8-21.6-31.2-24.3-46-30.1-82.9-.2-1.2-.2-4.8-1.7-4.8-3.7 19.2-7.5 38-9 57.5-4 52.7-2.7 108.6 5.2 160.8 3 20 7.2 39.8 12.8 59.2.7 2.1-2.2 1.8-3.3 1.3-1.8-.8-20.6-28.4-23.5-32.5-38.8-56.7-72.3-120.9-98.7-184.3-8.8-21.2-19.8-45.4-21.5-68.5-1.5-20.5 8.9-43.7 16.2-62.7 13-33.9 28.7-66.8 41.7-100.8-1.1-1.1-10 5.9-11.5 7-8.9 6.9-19.3 16.6-27.5 24.5-15.8 14.9-30.6 30.9-44 48l-4 .5c19-59.8 44.6-119.2 76.2-173.3 7.7-13.3 30.4-52.2 41.5-59.5s25.2-12.6 37-19c64.7-35.1 128.7-72 191.2-110.8 10.6-6.6 31.7-23.4 42.6-24.4 6.5-.6 15.2-.8 21.9-1.1 27.2-.9 54.7-.2 81.9-.9 2.4-10.9 24.6-8.8 31.5-4.6" class="fill" data-original-prefix="fill"/><path id="outline-head3" fill="#000000" d="M1069.4 844c-5.5.4-5.2-3.4-9.4 3.5-15.4 25.4-30.7 59.9-43.8 87.2-27.8 57.8-52.7 116.9-76.7 176.3-21.6 34.5-103.6 66.4-142.6 59.8-3.3-.6-11.9-4.6-13.1-4.5-4.5.4-13.2 11.4-17.2 14.7-17.6 14.7-42.5 23.4-61.5 5.6-26.5-25-15-80.7-4-111 3-8.3 7.5-16.2 10-24.5-18.3 2.1-34-10.6-33-29.5.8-17.4 22.8-50.1 36.7-60.3C777 927.1 838.7 891.9 899 854.5c10.6-6.6 31.7-23.4 42.6-24.4 6.5-.6 15.2-.8 21.9-1.1 27.2-.9 83.6-.2 110.8-.9z" class="outline" data-original-prefix="outline"/><path id="outline-head2" fill="#000000" d="M807 1335c-.7-21 2.7-46.2 16.5-63 12.4-15.1 31.9-20.4 47.4-6.3l-2.9 37.8c-1.5 74.5-.6 150.6 27.5 220.5 1.6 4 15.8 31.8 14.5 33-1.8 1.7-7.5-3.3-9-4.5-56.2-45.2-108.1-98.5-149.2-157.8-21.6-31.2-24.3-46-30.1-82.9-.2-1.2-.2-4.8-1.7-4.8-3.7 19.2-7.5 38-9 57.5-4 52.7-2.7 108.6 5.2 160.8 3 20 7.2 39.8 12.8 59.2.6 2.3-1.8 1.5-3.3 1.3-45.1-60.2-82.5-126.3-112.8-195.2-11.4-25.9-28.7-62.3-30.8-90.2s16.2-57.5 24.5-83.5l12.5-28c4.3 35.6 12.6 71.7 22.3 106.2 2.5 8.9 8.6 34.1 16.7 38.3 1.5.8 1.5.6 2.5-.5 1.8-2 4.8-10.1 6.7-13.3 13.6-22.3 38.1-46.5 61.1-58.9 8.1-4.3 24.6-11.6 32.1-2.8 2.2 2.6 6.5 15.9 8.7 20.3 9.8 20 23 40.5 37.8 56.8" class="outline" data-original-prefix="outline"/><path id="outline-head1" fill="#000000" d="M1125 857c-1.2 1.1-9.8-3.9-11.5-5l2.5 3.5c-3.4 0-9.2-2.6-12.5-4.5-3.6-2.1-6.1-5.1-9-7-1.1-.8-.7-1.5-2 0-2.5 3.1-3.4 7.7-5.1 10.9-20.8 37.4-41.6 71.7-60.2 110.8-24.5 51.3-51.8 111.2-70.2 164.8-18.4 53.8-6 113.1-3.9 169 .2 4 .4 28.4-1 29.5-3-1.2-6.6-4.3-9-6.5-14-12.4-25.3-28.3-38-42l-19-24.5c-1 24.7-1.8 49.8-1 74.5 1.5 47.2 6.7 104.3 16.5 150.5 8.6 40.4 25.3 78.1 38.5 117-22.1-3.7-41.5-20.2-58.9-33.6-56.3-43.5-109.3-98-145.6-159.4l-11.5-25c.5 10.9.9 21.6 1 32.5.8 70.1 6 132.7 21.4 201.5 2.2 9.6 7.2 23.9 8.3 32.7 0 1 .8 3.1-1.3 2.3-1.2-.5-15.8-15.6-18-18-62.3-67.7-115-165.1-150-250.1-8-19.5-22.1-51.5-24.3-71.7-4.1-38.6 20-73.4 32.7-108.2-1.9-.4-2.4 1.1-3.5 2-30.6 25.2-47.6 58.4-59.3 95.7l-3.2 2.3c.4-12.6-2.3-24.9-2-37.5 1.2-51.1 26.7-111.9 48.2-157.8 22.4-47.7 48.7-94.4 79.2-137.3 92.2-45 180.7-96.6 266-153.5 11.5-5.1 31.2-2.4 44.2-2.8 34.6-.9 69.2-.8 104-1 2.3 0 4.4-1.2 6.7-.9 6.6 1 43 36.3 48.8 43.3.9 1.1 2.4 1.6 2 3.5m-57-25c-.3-.4-9-1.9-10.5-2-20.8-2-42.2.5-62.9 1-19.8.5-40-1.7-59.5 2.5-71.3 46-144.7 89.1-219.3 129.7-13.5 7.4-30.4 14.1-43 22-10 6.3-23.8 29.7-30.5 40.5-36.1 58.4-64.5 122.2-86.2 187.3l19-21.5c12-11.7 23.5-23.9 36-35 4-3.6 28.9-26.2 33-22.5-10.7 25.7-22 51.2-32.5 77-10 24.9-29.5 64.4-27.5 90.4 1.8 24.4 16.1 54.5 25.8 77.2 30.7 71.7 69 140.9 115.7 203.3-7.4-33.7-14.1-67.9-16.5-102.5-3.9-55.6-3-118.1 9.5-172.5.7-3.2 1.1-7.3 3-10 2.7 19 4.2 38.4 10.2 56.8 8.9 27.2 34.3 58.2 52.3 80.7 33.7 42.3 75.8 81 117.5 115.6 1.1.9 1.6 2.4 3.5 2-4-12.3-10.2-23.7-14.7-35.8-25-66.8-26.6-146.2-23.3-216.8 1-21.2 1.9-68.9 12.8-86.2.5-.8.8-2.8 2.2-1.3.6.6 3.6 12.8 4.8 15.7 2.1 4.6 5.4 9.6 8.3 13.7 10.3 14.3 23.7 27.9 34.8 41.7-1.8-12.6-4.2-25.1-5.8-37.6-2.7-20.7-7.7-48.7-8.2-68.8-.2-6.8 10.3-38.5 13.3-46.8 29.3-81.3 71.2-173 111.2-249.8 6.3-12.2 15.2-31.4 23.5-41.5 1-1.2 6.3-3.6 4-6.5m-473.5 367v1c.7-.3.7-.7 0-1m-39 15v1c.7-.3.7-.7 0-1" class="outline" data-original-prefix="outline"/>
    </g><g class="trait-group" data-category="mouthpiece" id="mouthpiece-biker-beard">
      <path id="fill-head-main" fill="#ffffff" d="M1321.1 1646.9c-1.9-1.3 1.4-12.7-10.7-8s-5.8 16-6.7 22.3c-1.6 11.1-1.8 20.2-2.8 31.2-1.4 16.2-8.9 17.5-17 28s-3.1 21.9-4 33.1-6.8 21.8-11.4 31.6-2.1 8.1-4.1 9.9c-5.5 5.1-12.7-11.2-15.5-12.5-9.9-4.5-9 9-10.5 14.5-3.7 13.5-13.2 20-24.6 27.4-2.1 1.4-8.4 5.2-10.4 5.6s-1.6-6.7-1.5-8.6c.4-7.5 1.3-15.3 1.9-22.8-.7-3.2-6.2-3.3-8.9-2.2l-14.7 29.3c-1.8 9.5-2.7 19.3-4.5 28.5s-3.9 9.9-7.8 13.2c-9.7 8.1-26.5 14.5-38.9 15.1 6.7-13.8 9.3-27.6 8-43s-2.9-22.3-11-18c-6.4 3.3-2 28.8-10.3 38.2s-16.2 10-21.4 22.1c-5 11.6-1.6 28.2.7 40.2-8.7-.6-20-5.2-26.5-11s-11.1-17.9-15.4-27.6c-3.3-2.7-7.3-2.1-9.3 1.9-6.5 12.9-7.6 27.7-4.3 41.8s6.7 9.6-3 10.9c-6 .8-20.1-4.2-24.9-7.9s-9.2-15.9-11.2-20.8-1.7-11-5-12-7.8.9-8.4 5.3c-1.2 8.9-.2 24.5 0 34.1s2.4 6.2-1.5 6.5-30.7-14.5-34-17.1c-10.5-8.1-8.4-19.9-14.1-30.9-6.9-13.3-18.3-11.2-22.9-30.1s.5-8.1-2.4-9.6c-11.4-5.6-20.9 23.2-21.9 31.1s-1.4 11.1-2.2 16.8.6 15 0 15.6c-15.2-2.3-24-15-30.9-27.6s-3.9-6.9-4.9-9.1c-3.8-8.2-6-17.1-9.7-25.3-2.8-1.7-6-1.6-8 1.1-3.1 4.3-3.9 16.4-5.6 21.9-2.4 2.1-10.6-10.8-11.8-12.7-4.6-7.4-10.8-20.4-12.1-28.9s1.2-19.5 0-27.9-8.5-17.1-10.7-24.3 1.5-20.9-10.3-14.8l-16 33.5c-1.4.3-1.6-.2-2.5-1s-5.9-6.7-6.9-8.1c-15.1-21.1-7.5-47.7-10-72-5.5-10-20.9-14.7-22.5-26.5s-1.3-18.8-2.1-27.9-1.2-9.5-2.2-11.8c-1.8-4.1-13.4-9.4-17.4-13.1s-6.8-7.7-7.4-12.1c-2-17.6-.6-25.2-10.3-41.7s-10-11.6-10.7-17.4 6.7-20.2 8.5-26.4c5-16.9 9.1-37.2 4.4-54.4-2.2-7.9-7.8-15.2-9.9-22.1s.7-28 1-33.1c.9-13.3 9.8-51.4 21.1-58.9s36.2-15.2 44.4-14.6 6.6 4.6 11.5 5.6c11 2.4 29.6-9.8 40.1-14 17.1-6.8 31.2-7.8 48.2-11.8 10.9-2.6 21.7-8.8 33.6-11.4s29.8-1.2 42.3-3.7 34.1-14 47.4-18.6c4.9-1.7 14.9-5.6 19.5-4.5 8.7 2.1 22 12.2 29.5 12.6s25.4-10.8 37.1-12c9-.9 29.4 8.3 38.4 12.4 6.3 2.8 14.6 9.3 20.8 10.2 16.3 2.5 33.5-2 50.6 2.4 8.6 2.2 19.7 9.6 28.2 9.9s10.8-1.8 15.9-2.1c37.1-1.8 68.8 9.1 98.5 30.6 2 1.4 4.6 5.2 6.1 5.9 2.9 1.3 7.9.2 11.4.6 13.6 1.7 29.6 16.2 34.1 28.9 6.5 18.3-.9 37.3 8.7 54.3 1 1.9 5.4 6 5.6 7.3.5 2.3-2.8 5.7-3.6 8.1-7.6 24.7-6.2 49.7.2 74.3 1.7 6.4 6.5 15.5 7.3 21.7s-11.3 21.7-13.9 29.7c-1.2 3.8-2.1 10-2.8 14.2-1.2 7.2 1.2 13.2-6.8 18.2s-15.1 7.8-20.7 10.3-9.8 5-11.6 3.8z" class="fill" data-original-prefix="fill"/><path id="fill-head-tooth2" fill="#ffffff" d="M1016.7 1562.4c-6.6-7.1-18.2-5.6-24.7 1.1-4.4 4.6-8.1 16-9 22.1-.5 3.7.7 6.9 3.5 9.4 5 4.6 27.6 10.9 33 6 2.8-2.6 3.5-16.8 2.9-20.8-.3-1.9-4.6-16.6-5.8-17.8Z" class="fill" data-original-prefix="fill"/><path id="fill-head-tooth1" fill="#ffffff" d="M1046.6 1560.4c-7.5-4.7-18.3-2.9-20.4 6.3-1.8 7.8-2 33.3 8.5 35.1 1.4.2 6-.5 7.5-.9.3 0 5.1-1.8 6-2.2 6.9-2.7 11.2-5.1 9.7-13.2-.2-1.3-.6-3.2-.8-4.2-1.4-5.8-5.2-17.5-10.5-20.9" class="fill" data-original-prefix="fill"/><path id="shading-head" fill="#aaaaaa" d="M1013.6 1363.4c1.5 1.2 6.4 6.8 7.8 6.5 10.7-10.4 21.7-19.7 38-17.8 11.9 1.3 51.9 22.4 59.6 31.7 6.8 8.2 12.8 23.2 1.9 30.7-11.4 2.9-23.6 5.6-34.7 9.3-14.2 4.7-25.8 9-36.2 19.8-6.9 7.2-19.1 21.1-21.5 30.5-3.5 13.6 1.3 34.7 10.7 45.4 2.6 3 6.6 4.1 8.6 5.9 7.5 7.1 19.7 33.8 24.9 43.6 4.6 3.6 8.4 13 14.9 13.1 4.2 0 8.2-5.5 10-9.1 5.7-11.5 11.3-44.7 9.1-57-1-5.5-5.1-10-6.4-13.8s-7.8-21.7-7.9-24 1.4-2.8 1.6-3.9c.3-1.8-2-4.4 1.3-5.3-.7 5.7 3 5.7 5 8.5 18.4 24.8 23.8 47.2 30.2 76.8 1 4.5 3.1 10.4 3.7 13.4 1.1 5.1-1.6 7.4 5.1 10.7 8.5 4.1 16.5-4 21.7-10 7.9-9 18.2-22.7 19.2-34.9 1.8-21.7-19.8-51.4-6.9-71.7 3.9-6.1 10.9 2.4 13.2 6.5 9.5 17.6 20.5 37.8 22.7 58.3 1.1 10.2-1.4 22.8.3 32.7.8 4.4 4.5 9.6 5.7 14.3 1.7 6.6 1.8 13.8 4.6 20.4l8.4-11.8c8.2-17.1 1.7-27.3 2.1-43.7.5-22.9 8.4-38.4 11.8-59.2 1.8-11.5 1.6-23.9 3.4-35.6.8-5.4 3.4-10.6 3.9-16.1 1.1-11.9-3.3-25.5-10.4-35.1-2.2-3-7.3-4.3-6.6-9.4 11.7-2.6 20.8-1.9 32.2 1.1 12.1 3.1 26.4 6.6 38.8 10.4 4.2 1.3 8.2 5.5 12 3-1.2-5.8-6.2-10.2-5-16.4 7.3-2 17 1.4 23.9 4.5 9.1 4.1 11.2 9 15.5 17.5 6.5 12.6 17.5 56.8 16.5 70.5-.7 8.4-3.1 14.6-3 24s1.1 22.4 2 32c1.1 11.3 8.8 44.8 6 53.1-1 2.9-3.9 6-5.2 8.8-4.3 9.5-15 34.2-22.8 40.2-7.3 5.6-30.4 7-39.9 10.6l-9.7 57.8c-1.4 8.3-15 18.2-17.1 24.9-1.7 5.3 0 16.3-.4 22.6-.6 10.6-4 23.8-8.6 33.4-2.2 4.6-4.5 7.8-10.2 5.3-5.4-2.4-6-14.1-14.5-7.3-3.5 2.8-8.1 20-12.3 25-1 1.2-10.5 8.6-11.8 9.2-14.2 6.2-11.8-17.2-17.1-22.1-1.2-1.1-8.3-2.4-9.6-1.6l-26.7 72.3c-1.3 2-17.6 10.8-19.9 11.1-1.5.2-4-.5-5.2-1.4-5.3-4 1.7-25.8 1-32.9-.6-6.2-6.2-12.2-7.1-18.4-.7-.6-12 1.4-12.7 2.1-2.1 2-.5 12.1-1.8 15.7-2.9 8.6-22.1 26.6-27 37-3.2 6.9-5.6 31.1-12.2 32.9-1.9.5-3.1-.2-4.7-1-5.7-3-19.3-19.7-25.7-25.4-1.1-1-.2-3.3-2.9-2.5l-15.5 43c-7.4 11.3-12.1 3.1-16.7-4.3-7.2-11.8-13.7-24.7-14.8-38.7-2.2.9-6.5 1.1-8.3 2-2.1 1.1-6.5 44.8-9.1 49.9-7.3 11.6-19.3-4.2-24.6-9.9-9.9-10.7-16.1-24.6-24.8-36.6-2.7-3.7-18.2-27.6-19.8-28.2-1.2-.4-10.5-.4-11.2 0-2.1 1.3-16.2 37.2-19.3 42.2-3.7 5.9-9.3 6.7-13.3.6l-17.7-41.8c-1.2-1-25.9.4-30.4 0-2-.2-3.6-.5-5-2.1l-22.5-111-23.5 44.9c-7.5 6.5-11.4 2.6-13.2-5.7-3-13.9-5.1-58.5-10.8-67.2-2.2-3.3-5.7-5.7-8.2-9.8-6.9-10.9-11.3-26-12.1-38.9-.2-2.5 1.6-4.7.7-7.7s-9.8-10.7-12.2-13.8c-12.7-16.3-14.6-34.7-20.3-53.7-3-9.8-9.9-21.3-9.2-31.6 1.2-15.2 11-39.5 10.7-53.2-.2-11.5-13.1-33.9-13.7-46.9 4.9-20.2 6.3-42.7 11.4-62.7.9-3.4 1.1-5.6 4-8 5.2-4.3 21.6-12.1 28.5-15.5 7.5-3.7 21.8-13.8 24 1.1 1.2 8-5.3 13.4-3.9 21.4 1.1 1.1 25-10.2 29-7.5 3.3 2.2-.5 2.5-1.1 3.2-3.4 4.8-8.4 8.8-12 14.8s-6.9 12.8-5.8 19.8c1 6.3 9.7 15.5 12.2 21.8 8.6 22-10.3 49.9.4 68.6 4.7 8.4 15.7 14.1 22.7 20.3 8.9 8 15.2 17.6 22.5 27 7.7-14.6 4.3-25.3-2.5-39-6.7-13.5-16.6-28.1-21.7-42.3-5.7-16.1 3.1-29 2.2-44.2-.4-7.3-5.2-14.4-5.1-22 .2-14.9 13.3-28.3 24.8-36.3 4.3-3.1 9-6.3 14.3-7.2-2.2 10.5-8.1 20.5-7 31.6.6 6.7 5.5 11.2 6.1 17.9 1.2 11.9-5.7 21.9-5 34 .4 7.7 4.5 13.4 7 20.5l12-19.5c2.5-2 14.5-16.2 17-14.5 2.8 9.4-.5 19.1-1 28.5-1.5 32.9-2.5 52.9 19.6 79.4 3.9 4.7 12.2 11.2 18.8 8.9 2.7-.9 4.3-19.7 5.4-23.6 2.9-10.8 18.6-36.7 26.8-44.2 3.5-3.2 15.9-10.4 16.4-1.6.3 6.3-5.8 22.3-6.8 30.2-1 7.2-2.4 23.8-1.9 30.6 0 1.6 1.3 5.4 2.1 7 2.3 5.4 12.6 16.5 18.8 15.3 14.6-2.8 23.2-27.1 30.4-38.2 13.4-20.9 29-25.5 21.1-56.4-4-15.8-10.6-18.7-19.5-29.5-5.1-6.2-9.6-14.3-16-20.1-9.7-8.7-42.3-11.4-56.3-15.8-10.6-3.3-14.1-17.9-6.8-26.3 7.7-8.8 40.8-26.8 52.4-31.6 24.4-10.2 33.8-10 54.3 6.6zM806 1714.5c.8 2.9 0 14 0 18 0 13 10 27.4 11.9 40.1.8 5.2.3 11.1 1.3 16.7 1.8 9.1 7.6 17.3 7.8 26.7 1.9-1.4 3.8-5.8 4.5-8 3.9-11.5 1.7-14.1.4-24.5-.7-5.7 1.9-4.2 2-5 .5-2.3-1.7-1-2-2.1-2.4-8.8 6.3-20.5 11-27.1.9-1.3 1.1-3.3 2-4.5 1.6-2 8.5-9.3 10.9-7.6.6.4 3.8 11.4 4.3 13.2 3.3 12 9 36.4 7.7 48.1-.4 3.2-3.8 11.5-3.7 12.9.7 7.1 3.9 16.4 3.8 24.1l7.5 23.6 14.5-22.2c9.8-6.7 10.4-20.6 15.3-31 3.2-6.9 8.6-12.3 11.2-19.8 2.2-6.4 3.7-14.2 3.5-21 8-1.9 5 5.5 6 10.5 1.2 5.7 5.3 13.6 6 19 1.9 15.6-3 40.6.2 54.8 1 4.2 9.5 14.6 12.4 18.6 3.3 4.5 7.1 8.3 10.3 13.7 4.2 7 7.3 15.4 11.5 22.5 3.6 0 11-28.2 11.4-32.6 1.8-17.5-11-34.4-4.4-52.4 7.5-16.3 9.1-33.1 8.5-51 5.3-.9 3.2 1.2 5 3.5 5.3 6.9 16.3 23 17.8 31.2 1.4 7.6.4 17.9 1.4 25.6 1.7 14.6 7.4 29.3 10.4 43.6 1.5 7.3 1.6 14.8 3.5 22 1.3-.6 2.3-4.3 2.7-5.8 1.9-6.2 2.7-13.4 4.6-19.4 3-9.9 8.7-17.6 12.2-26.8 7.8-20.4 4.1-40.9 6.5-61.5 1.5-13.4 10.1 8.8 10.9 10.2 6.1 11.3 21.2 31 21.2 43.8v35.5l7.1-10.2c5.7-6.3 15.5-15.4 17.5-23.7 4.6-18.9 2.6-30.1 1.4-48.5-.9-15 3-28.7 2.1-43.2-.2-3.4 3.7-4.5 5.8-3.2.6.4 4.6 10.6 5.8 12.7 10.1 18.3 22.6 37.2 30.6 56.4 3.2 7.8 5 16 8.3 23.7 1.9-14.1 11.3-24.6 16.7-37.3 4.9-11.8 8.9-24.2 6.7-37.1l-4.9-24.6c1.8 0 3.5-.2 5.3.2 4 .9 22.4 15.2 26.3 18.7 7.8 7.3 16.5 19.2 17.5 30l1-3.5c-1.2-12.5 2.8-25-1-37.1-1.7-5.4-3.7-11.1-5.5-16.5-1.1-3.1-8.1-10.1-4.6-12.5 3-2.1 6.5 2.1 9.1 3.1 10.9 4.1 19.5 7.4 26.2 17.8l11.8 24.7c4.6-12.2-4.2-21.3-4.1-32.5 0-9.3 3.2-19.8 4.1-29 .9-9.5.8-19.9 1-29.5 6.7-1.5 7.4 5.3 10.9 8.7l2.1 9.3c5.8-20.5-3.1-41.3 14.5-57 12.6-11.2 23.7-14.4 38.2-20.8 7.4-3.2 19.3-19.1 22.5-26.5 8.7-20.3-1.1-26.5-3.9-44.5-1.3-8.4-1.8-21.3-1.3-29.7.7-9.9 5.7-24.8 5-33.9-.9-10.3-9.8-24.5-11.5-35.6-1.1-7-.3-34.2-6.4-37.6-1-.6-1.9-.6-3-.5-1.8 13.2 6.2 21.2 5 34.5-1.4 14.5-9.6 16.9-16.9 27.1-5.9 8.2 0 11.6 1 19.9 1.3 10.7-3.8 22.8-2 35 1.1 7.3 9.4 18.5 10.7 25.3 2.1 11.1-2.2 27.2-7.4 37.1-5.5 10.5-12.6 14.6-20.4 22.9-7.9 8.4-32.2 26.6-43.8 29-4.6.9-9.4 0-14.3.7-11.4 2-31.7 14.9-32.5 27.5-2.4 2.9-8.8 24.5-10 25-.4.2-2.5.4-2.5-.5 1.5-9-2.2-15.5-4.1-23.7l-3.9-5.8c-.8 3.3-2.2 7.9-3.6 10.9-4.1 8.5-10.4 16.8-13.7 26.3-3.9 2.2-14.7 22.4-16.4 22.8-8.1 1.7-7.4-2.1-11.8-4.9s-10.4-4.9-14.2-8.3c-3.6-3.2-10.3-13.8-13-15.8-3.7-2.6-11.2-3.6-15.4-5.3-6.3-2.6-12.1-6.9-16.8-11.5-1.2-1.2-4.9-6.8-5.3-7-1.7-1-5.9.5-8.5-.5-2.2-.9-8.2-9.6-10.2-11.3-.8-.7-9-5.4-9.6-5.4-2.4 0-1.2 8.4-1.5 10.5-.7 5.8-1.3 17-2.4 21.6s-6.4 8.4-8.4 11.8c-3.9 6.7-6 14.9-8.9 21.9-1.4 3.4-6.7 8.5-8.1 12.1-3.3 7.9-3.2 17.5-5.1 25.8-.3 1.4.9 2.8-1.5 2.4-4-.6-6.2-9.8-8.5-13.2-1.6-2.3-4.9-3.2-5.7-4.1-7.5-8.4-16.7-20.6-20.6-31.8-2.1-6-3.3-20.9-10.3-22.8-1.8-.5-11.6 7.3-13.7 9.1-3.2 2.7-6.6 7.4-8.7 9.3-.4.3-7.2 3.9-7.9 4.1-11.6 3.3-14.3-6.9-19.6-13.5-2.9-3.6-6.3-6.3-9-9.4-1.1-1.3-1.3-3.9-2.7-5.3-2.3-2.2-9-3.2-11.7-6.3l-5.8 16.7c0 6.7-2.1 13.3-4.3 19.7-.5 1.4-2.5 7.5-2.8 8-2.6 3.9-7.5-8-7.8-10.2-3.2-17.7 1.7-31.2-8.5-48.5-4.9-8.3-10.6-1.3-14.2-1.7-.3 0-.9-4-2.5-2.1-.4.4.7 2.7-.5 3.1-1.7.5-9.5-.8-11.7-1.4-8.5-2.3-18.8-9.8-25.4-15.1-1.9-1.5-5-5.6-7.3-6.2-3.2-.9-14.7 1.3-20.3.3-12-2-18.8-15.8-25.8-24.2-4.8-5.8-16.8-16.9-17.9-24.1-1.8-11.3 1.5-24.8-1.2-36.8-1.6-7.2-6.3-12.9-6.9-21.1-2-24.2 15.2-39.5 1.2-64.2-4.7-8.2-13.3-14.8-14.2-24.8-1.5-16.8 9.6-33.2 15-48.5-1-1-22.6 11.2-24.4 14.1-6.3 9.6-7.2 29.8-8.6 41.4-.2 2-1.7 3.5-2 6-2.7 25.3 20.5 50.3 14.9 73.9-2.8 11.8-8.8 24.1-10.7 35.3-1 5.9-1.4 10.7 0 16.5.8 3.3 9.8 19.1 12 21.5 3.8 4.1 16.3 7.6 21.7 12.8 9.7 9.2 13.5 24.3 14.8 37.2.3 3.2 1.5 19.9 0 21.4-.5.5-4.5-.6-5.8.2-2.3 1.4-2.8 14.5-2.1 17.1.2.7 1.7.6 1.9 1.4.3 1.4-.2 3.2.3 4.6 4.4 11.8 19.7 15.3 22.3 26.7 2.3 10.3-1.5 23.6 1.5 34l7-15.5c4.6-5.1 19.4-25.6 27-22 .4.2 1.9 1.7 2 2h-.4Zm495.6-292.1c-5.6-3.3-15.3-3.6-20.9-.3-.9.5-8.9 11.1-9.2 12-1.8 4.4-5.2 21.3-5.6 26.4-.9 11.3 2.9 22.3 1.9 32.9-1.3 13.1-11.6 26-12.9 39.1-1.6 16.7 3.1 30.8 10.6 45.4 2.1 4 3.3 6.2 7.8 3.9 7.2-3.7 15-14.2 18.5-21.5 1.1-2.2 3.9-8.9 4-11.1s0-4-.8-6c-5-13.4-13.2-26.3-11.1-41.8.6-4.1 3.1-7.8 3-13.1 0-12-4.5-26.5-3.1-38 .9-7.7 9.7-8.4 14.7-11.9 4.5-3.2 9.5-12.3 3-16.2v.2Zm-310.1 166.1c2.7 3 8.5 5.8 12.4 7.1 1 .3 9 2.3 9.5 2.3 11.4.4 8.8-25.9 1.6-28.4-2.9-1-10.2-1.8-13.1-1-6.2 1.8-15.4 14.3-10.4 20m56.1.1c2.7-4.1 3.4-6.2 1.1-10.8-3.4-6.8-13.6-14.1-19.1-5.8-2.3 3.4-1.7 16.4 0 20 3.1 6.8 14.8 1.6 18.1-3.4Z" class="outline shading" data-original-prefix="shading" opacity="0.5" style="opacity: 0.5"/><path id="outline-head1" fill="#000000" d="M947.6 1927.8c-9.8-7.3-7.2-17.6-11.5-27.5-5.1-12-22.7-18-24.1-29.9-.5-4.2 2-16.4-5.1-11-.6.5-6.4 7.5-6.9 8.3-5.7 9.8-8.1 26.4-9 37.8-.2 3.1.6 15.2-.2 16.3-.3.5-3.4 1.2-4.3 1.2-4.3 0-15.6-7.2-19.2-10.4-9.4-8.4-20.4-31.7-24.8-43.8-1-2.6-2.3-15.3-5.3-9.1-1.6 3.2-3.2 10.3-4 14-.9 4 .4 16.4-7.5 10.2-10.1-7.9-22.7-32.8-23.8-45.5-.8-8.8.9-20.4-1.3-28.7-1.1-4.3-10.8-22-10.8-23.3v-16.5c-1.8-.4-2 .5-2.8 1.7-5.3 8.4-8.9 21.7-14 30.9-1.3 2.4-2.7 5.9-5.8 6.3-5 .7-5.1-3.6-7.5-6.2-14-15.6-16-33.4-14.9-54.3.2-3.7 2.2-8.4 2-12 0-.8-2-11.2-2.2-11.9-1.3-3.9-18.1-14-20.5-20.4-2.1-5.6-.7-9.3-1.3-14.7-1.1-9.7-2.8-19.4-3.8-29.1-5.5-6.4-23.8-14.7-25.1-24-1-7.2.2-15.8-1.5-23.4-3-13.3-13.9-25.8-20.6-37.4-.8-6.7 6.5-20.5 8.6-27.5 7.7-25.7 10.1-42.4-.3-67.7-1.6-3.8-5.8-8.6-6.3-12.8s1.7-8.8 2-13c2.1-25.8 1-38.6 11.7-63.3 7.7-17.8 13-17.6 30.1-23.9 1.9-.7 4.5-1.7 6-2.2 8.1-2.7 15.8-6.5 24.7-5 5 .8 6.5 6.5 14.4 5.3 10-1.5 25.5-11.3 36-15.1 15.6-5.7 28.8-7 44.3-10.7 19.5-4.7 33.3-13.3 55.4-14.6 5.6-.3 12.8 1.3 17.6.7 9.7-1.3 35.3-14.4 46.7-18.4 5.2-1.8 16.9-6.2 21.8-6.3 9.6-.3 24.7 11.1 34 14 8-3.1 16.4-7.8 24.5-10.3 2.3-.7 12.8-3.6 14.4-3.5 4.6.3 20.4 6.4 25.6 8.5 7.6 3 26.3 14.3 31.8 15.2 12.6 2.2 31.7 0 45.6 1.4 9.4.9 23.1 11 31.3 11.6 3.1.2 10.8-2.4 14.9-2.7 34.8-2.6 74.1 8.7 101.7 30 2.9 2.2 6.4 8.6 6.9 8.9 1.3.9 4.6-2.9 7.3-2.9s20.1 5.4 21.3 8.6c2 5.3.9 1.9 4.8 5.4 5.4 4.8 13.6 14.7 15.2 21.8 3.2 13.4 0 28.5 2.5 41.5 1.3 6.9 8.2 11.9 9.8 18.2-2.1 8.9-6.2 17.2-7.8 26.2-4.6 26.6 4.1 54.9 12.9 79.7 0 4-5.2 11.5-7.6 14.6-1.3 4.5-4.7 8.4-6.4 12.6-4.1 10.5-1.5 21.4-6.6 31.4-2.2 4.3-21.7 13.4-27.2 15.8-3 1.3-8 4-11 4.1-5.7.2-3.9-8.9-5.4-9.9-.4-.3-6.6.9-7.1 1.6-1.5 2.1-.6 7.1-1 9.8-1.5 9-3.8 18.3-4.8 27.2-.9 7.3.4 18.7-2.2 25.6-1.7 4.6-5.9 7.7-8.9 11.2-1.5 1.8-10.3 11.7-10.5 12.5-1.1 4 .9 16 .6 21.6-.8 15.4-6.3 30-13.7 43.3-7.1 12.9-8.5 4.6-17.2-.6-3.2-2.9-4.5-4.9-4.2-9.7 0-1-2.1-.8-2.5-.6-1.7.7-4.5 20-6.8 24.2-3.2 6.1-16.2 15.8-22.3 19.7-1.7 1.1-13.2 8-14 8-2.6 0-3.2-3.4-3.5-5.5-.6-4.9 2.2-32.4 1-33.5h-3c1 8.8-6.2 15.7-9.8 22.7-7.2 14-4.8 29.7-9.9 43.1-1.8 4.7-4.6 6.5-8.6 9.4-12.1 8.9-27.6 14.8-42.7 14.8.6-10.2 6.2-19 7-29.5.8-10.3 1-26.6-6-34.5-1.7 3.8-.5 7.7-1.1 11.4-.7 4.5-1.3 9.3-2.1 13.9-2.3 14.3-3.9 12.8-13.6 21.6-.6.6-2.2.5-2.9 1.3-12.2 11.6-13.3 24.9-11.3 41.2 1.1 9 9.1 15.4-7.4 13.4-20.4-2.5-34.3-22.2-37.7-41.4-.2-1.3-.4-3.3-1.9-1.5l-5.9 12.8c-3.3 8.9-2.5 24.4 0 33.5l6 20.2c-32 1.4-45.4-22.8-54.3-46.7-.4-1-.5-3.6-2.2-2.7-1.8 1.2-1.4 2.7-1.6 4.4l2.8 47.9-46.1-23.6zm95.2-482.6c-2.3 1.6-11.3 2.7-14.5 6.1-1.4 1.5-6.1 11-6.3 13.2-1.3 9.9-.7 39 1.5 48.6 1 4.3 7.4 19.6 12 20 3.8.3 6.7-3.1 11.2 2.3 5.5 6.8 12.7 24.8 17.9 33.6 1.8 3.1 6.7 8.4 8.7 12.3 3.7 7.3 2.7 14.9 3.9 22 1 5.7 6.6 12.8 8.3 19.7 2.1 8.6 2.3 18.8 7.1 26.9 1.2 2.1 11.8 15.5 14.4 13.1-.8-5.3-7.9-13.3-7.9-18.3 0-11.4 5-26.6 5.9-38.2.6-7.9-1-17.3 0-24.9.7-5.4 5.1-13.2 5.9-18.1 2.5-16.1-1.7-35-6.5-50.4-3.5-11.2-12.7-28.3-14.4-38.6-.4-2.4 0-5 0-7.4l1.5 1c4.4 12.4 12.3 23.3 17.6 35.2s14.1 45.7 13.9 59.3c-.2 10.8-5.5 19.4-6.8 29.3-1.2 9.5-3.9 23.9-4.3 32.8-.7 15.4 9.4 41.1 21.5 50.5 1.9 1.5 5.5 2.9 7.5 4.4 2.3 1.7 4.7 5 7 6.9.6.5 1.4 1.1 2 .6 1.7-1.6 6.8-19.2 9.1-23.2 3.7-6.4 6.1-5.9 7.8-15.4 3-17 5.8-23.6 14.3-38.7 2.2-3.9 11.5-16.3 11.9-19.1.3-2.3.2-6.7 0-9-.9-7-6.4-17.9-6.6-24.2 0-4.9 2.3-11.5 2.7-16.8 1.1-15.8-2.5-33.9-9.1-47.7-4.4-9.1-5.4-9.9-5.9-21.3 0-1.6-.4-14.5 2.9-8.9 1.9 3.2 2.7 7.5 4.2 10.8 6.3 13.6 15.4 26 17.8 41.2 2.3 13.8-.4 28.1 1.2 41.8.9 8.1 5.5 15.5 5.9 24.1.6 11.8-6.6 29.2-3.8 38.8 1.1 3.7 10 11.1 13.8 9.3 1.9-1 3.3-9.6 4.5-12.6 7.8-18.8 19.4-32.8 15.4-55.4-1-6-5.8-13.3-6.7-20.3-3.1-24.6 15.5-34.3 15.7-52.8 0-11.7-3.1-22.5-.9-34.9 1.2-6.5 10-16.7 10.8-23.2 1.4-11.2-3.3-23.5-3.9-34.4 6.4.2 12.8-.4 19.2.3 13.3 1.4 30.8 7.1 43 11 1.6.5 4.6 4.2 3.7-.7-1.2-6.7-5.2-10.2-7.8-15.4-2.3-4.6-6.9-16.9-10.6-19.2-2-1.2-6.5-2.4-9.3-3.7-19.5-8.7-39.5-17.8-61.7-19.3-6.8-.4-13.7.3-20.5 0-.5 4.7 4.3 6.8 7 9.7 1.7 1.9 2.6 2.5 3.6 3.6 1.6 1.6 10.1 10.5 10.3 11.2.4 1.5 0 1.6-1.5 1.5-1.1 0-16.6-6.5-18.2-7.3-3.1-1.7-8.8-7.6-12.2-9.5-6.1-3.6-15.8-6.9-22.3-9.4-11.2-4.2-20.7-7.2-32.8-7.7-2.3 2.1 15.4 14.8 17.6 17.4 2.1 2.4 6 7.6 6.7 10.8.2 1 1.7 2.4-.8 1.8-3.8-.9-5.8-5.5-8.3-6.9-8.6-4.9-22.1-7.9-31.5-12.2-14.8-6.7-27.8-16.7-43.4-23.6-8.1-3.6-19.8-10.7-28.5-9s-23.5 10.4-28.8 17.2c-.9 1.2-2.7 6.5-3.6 6.6-3.3.3-3.1-2.9-4.4-4.5-3.4-4.2-7.9-7.5-12.4-10.1-6.7-4-19.3-10.5-26.9-9.2-14.8 2.7-50.3 22.3-63.5 31.4-11.1 7.6-19.2 17.1-28.3 26.8-.2.3-2.6 5.4-3 2-.3-2.2 1.7-6 2.8-8.2 3.4-6.7 10.2-16.1 14.7-22.3 1.4-2 6.1-2.9 4-7-6.2 1.8-12.8.3-18.8 1.2-24.2 4-54.8 20.1-67 41-.9 1.5-5.7 10.7-6 11.9-3.5 15.3 5.1 20.7 5.4 33.3 0 6.6-4.2 14.6-5 21.1-1.8 15.7 4 27.1 11.5 39.8.7 1.2 6.6 13.4 9.4 10.6 0-2.4-.2-4.8.2-7.3 3.4-17.1 10.8-31 20.5-44.5 1.8-2.4 3.8-5.6 6.2-7.2 0 1.8.2 3.6-.2 5.3-2.4 10.2-8.9 22.7-11.5 33.5-6.7 27.8-3.2 71.7 4 99.5 4.4 17.3 6.8 19.5 19.5 30.7 9.5 8.4 23.5 16.4 30.9 26.4 2.3 3.1 1.4 11.5 5.1 16.5 5.6-14.3 15.2-30.7 11.1-52.2-2.2-11.4-7-22.3-7.9-35.1-2.5-36.6 11-50.6 25.5-80.5 2.4-5 4-11.3 6.3-15.7.5-1 2.2-3.4 3.2-2.3.8.9-3.2 10.6-3.8 12.7-6.8 27.6-23.5 68.1-16.9 95.5 1.2 5.1 4.6 11.2 5.7 16.3 3.1 14.7 7.4 39.2 9 54.1.8 7.9 0 11.8 1.9 20.1.5 1.9 0 5.6 1.8 9.1.3.6 8.8-10.3 10-11.8 3.6-4.4 8.8-12.3 10.2-17.8 4-15.8 3-34.4 6.3-49.7 1.8-8.5 6.2-22.6 9-31.1 2.1-6.3 13.1-31.6 19.5-32.3 2.5-.3 10.1 2.7 11.2-.9.7-2.2 1.9-11.9 2.1-14.9 1.7-18.7 3.3-46.7-7.3-62.6-3.8-5.7-9.8-5.2-14.9-7.9s-9.1-6.8-12.6-8.6c-2-1-6-2.9-8-3.2-5-.5-15 7.3-17.1 5.7-.4-.3-.4-2.4-1.1-3.2-5.4-6.4-8.4-12.4-17-15.2-2.9-.9-13.1-1.9-14.8-3.8-.5-.5-.5-2.2-1.3-3.2-4.2-5.4-10.4-10.9-5-18.1 6.5-8.7 25.5-21.6 35.3-26.6 5.9-3 23.8-11.3 29.5-12.6 13.9-3.2 27.1 9.7 35.2 19.5 2.1 2.5 4.4 8.8 7.5 8.2 4.8-6.9 11.5-16.8 18.6-21.5 4.4-2.8 13.1-7.5 18.1-6.3s22.6 9.9 28.1 12.9c7.3 3.9 19.6 11.5 25.3 17.2.9.9 8.5 10 8.8 10.7 3.3 7.2-5.2 20.6-12.4 22.5-6.1 1.6-9.2.4-15.8 4.1-2.2 1.3-4.7 5.1-5.6 5.9-1.5 1.4-8.8 9-9.5 9.3-6.9 2.8-7.5-2.7-13.4-4.2-8.8-2.3-11.3 1.4-16.6 6.3l-3.5 3.2h.6ZM798 1723v27.5c0 2.6 5.5 9.7 6.7 13.3 2.7 7.8 2.2 17.4 4.6 25.4 4.8 16 8.5 14.7 8.7 34.2 0 10.5-1.9 22.8 4.6 31.5l7.4-14.6c5.7-13.1 13.2-35.8 12.1-49.9-.4-5.4-3.5-14.7-2.8-19.8.2-1.8 8.4-15.5 9.8-16.2.8-.4 2.6-.8 3-.5.3.2 1.8 5.8 2 6.6 1.3 8.6 4.5 23.9 4.1 32-.6 11.4-6.5 24.6-7.8 36.2s8.5 41.7 13.4 53.1c2.7 6.3 4.9 8.5 9 13.5 1 1.3.4 3.5 3.3 4.2 1.1.2 2-.6 2-1v-19c0-2 6.7-17 8.2-19.8 5-9 14.9-16.9 19-25s4-18.5 7.6-26.4c.6-1.3 8.6-14.1 10.2-12.3 1 18.1-2.7 37.6-1 55.5.2 2.6 2.2 10.5 3.1 12.7 2.7 6 18.6 16 21.6 21.6 4.2 7.7 4 16.7 6.4 24.6 2.1 7.1 1.6 7.5 7.3 10.7.9.5 5 3 5.8 3.4 3.2 1.7 8 5.2 12 7.8l-2.2-24.9c0-10.8 9-24.9 10-37 .7-9.1-1.6-18-2-26.9-.7-16.7.8-33.5 5-49.6 3.2-.7 1.5 2.1 2.5 3.9 7.8 13.5 4.4 16.2 5.4 30.6.7 10 4.8 16.3 7 25.1 5.2 21.4.9 47.1 15.1 65.2 1 1.2 6 9.6 7.9 3.6 1.5-4.7 0-17.9 1.4-24.6 1.1-5 5.4-14.1 7.5-19.5 2.7-6.9 7.9-16.6 10.5-23.5 4.4-11.8 7.5-21.4 6.8-34.2 0-2.5-3.1-12.1-.9-13.5.6-.4 2.3-.3 3 .6 2.3 2.9 5.5 11.4 7.6 15.2 1.4 2.6 5.8 7.9 6.2 9.9 1 5.1-4.2 17.4-4.8 23.8-1 11.7-.6 28.2 5.5 38.4 1.7 2.8 7 9.3 10.4 9.1v-14.5c0-15.9 13.2-25.1 23-34.1 10.6-9.8 6.7-13.5 8.1-25.8 1.4-12.5 6.4-19.1 4.8-34-.5-4.8-3.7-11.7-3.8-16.2 0-2.8 1.5-14.7 5.8-12.3 1 .6 4.1 11.8 5.2 14.2 8 16.9 23.9 40 24 59.1 0 8.9-3.5 18.4-4.1 27 0 1.6-.2 1.7 1.5 1.5 4.3-4 18.8-11.5 20-16.9 1-4.3.8-9.5 1.8-14.2 4.3-20.1 14.9-33.2 19.4-52.6 3-13.1 2.2-22.1.3-35.2 5.1 0 6.4 4.4 10 7.5 4.3 3.8 13.7 10.1 15.5 15.5 1.6 4.6 2.2 20.6 2.5 26.5.3 4.5-.2 9 0 13.5l6.4-6.1c8-11.3 6.4-16.7 8.9-29.1 3.2-15.9 6.8-22 2.6-39.2-.7-2.9-6.9-14 3.3-8.6 8.9 4.8 11.6 25.3 15.3 33.9 2.2 5.2 6.8 9.8 9 15 4.4-2.9 3.3-8.4 4.6-12.2.3-.8 1.7-.6 1.9-1.5 4.4-15.4 1.8-16.8 0-30.8-.5-4.1.2-8.6 0-12.7 2.9-2 4-5.3 6.4-7.8 3-3 13.4-9.8 14.7-13.3 4.4-12.3 2.3-30.3 5.7-43.2-4.1-.9.4-11 1.8-14.2.6-1.3 2.1-1.2 2.6-2.5.6-1.4.3-3.7.9-4.6.2-.3 5.2-2.7 6.7-3.8 3.3-2.6 17.1-16.8 21.2-10.7 2.1 3.2-2.8 11 2.4 11.4 3.9.3 16.3-9.3 20.3-11.3 1.4-12.7 3.2-23 9-34.5 4.4-8.6 9.5-9.4 6.1-20.8-4.4-14.7-10.7-37.7-11-53.1-.2-13.2 7.4-32.8 6.9-44-.3-7.4-8.7-19.1-9.8-28.1-1.3-11.6 3.1-25.2-1-36-3.9-10.1-11.3-13.7-20.3-18.5-.5-.3-.7-1.4-1.1-1.6-1.4-.7-5.2-1.7-6.7-.8 9.8 14.4 15 39.4 4.4 54.4-3.3 4.6-18.6 17.7-19.4 21.6-.6 3-.3 11.6 0 14.9s2.6 7.3 2.7 10.1c.3 8.4-4.4 17.3-2.8 28 1.4 9.3 12.8 24.4 13 33.1 0 3.7-3.1 15.7-4.4 19.7-.9 2.9-4.2 12.2-5.8 14.2-3.3 4.1-8.2 1.7-10.6 3.9-1.3 1.2-4 9.7-6 12.5-4.7 6.8-11.1 7.9-17.6 11.3-9.7 5-25.5 15-35.3 17.7-1.9.5-3.3 1-3.3-1.3 0-4.3 3.4-6.1 4-10 .7-4.3.6-11.6-1.4-15.4-5.3 6.9-17.9 39.7-25.2 41.8-5.6 1.7-7.8-3.1-12.4-5.2-12.6-5.7-13.8-1.1-9.9-19.1l-2-.5c-2.7 7.9-8.7 15.3-11.3 23.2-2.5 7.6-.8 13.9-3.8 21.2-1.7 4.1-6.5 8-8.3 11.7-4.4 8.9-6.4 17.4-13.6 25.4-3.2 3.6-3.1-.5-6.1-2.9-9-7.2-18.7-9.5-26.9-19.1-1.9-2.2-1.8-6.7-6.4-6.5-3.3.2-4.9 2.5-9.8 1.8-25.4-3.6-23.7-38.2-34.9-54.1-8.5-12.1-21.4-3.6-32.3-3.6s-16.2.4-26 1c-8 .5-14.3-2.5-21.9 2.1-5.5 3.3-10.1 13.7-11.2 19.8-2.5 14.3-1.5 16-11 29.9-1.7 2.4-4.1 4.6-6.1 6.5-6.4 6-17.8 17.6-19.8 17.8s-4.8-4.2-7.7-13.2c-4-12.5-2.2-19.7-5-31.4-3.1-13.1-4.8-1.2-6.7 3.1-.9 2-3.1 6.6-4.5 8-1.2 1.1-5.3 5.2-7.9 10-1-.2-9.2-10.2-9.8-11.1-1.5-2.1-3.1-7.9-5-10.8-4.2-6.6-13.1-10.7-19.2-15.8-9-7.6-27.9-23.6-31.8-34.5-6.9-19.3-6.7-46.5-12.5-66.4-3.1-10.4-9.6-10.4-12.9-17.1-4.3-8.9-16.4-35.3-16.5-43.6-.3-13.6 3.6-30.5 2-43.9-1-8.2-8.4-13.7-5.8-24.8 1.3-5.8 12.7-22.8 16.8-27.9 4.5-5.6 11.7-9.8 16-15.8l-31.6 9.8c-8.5 3.9-19.4 6-28 11.6-4 2.6-18.3 18.3-19.9 22.7-.8 2.3.7 3.9.4 6.2-.4 2.5-3.9 7.7-4.7 11.4-3.5 14.3 1.9 14 7.8 24.2 1.8 3.1 8.6 15.2 9 17.7 2.6 16.5-5.2 36-4 53 .7 9.4 6.9 20.5 7.1 28 .3 14.7-5.7 25.4-.7 41.6 2.9 9.3 13.8 19.8 14.7 28.3.7 6.7-6-2.7-7.4-4.1-4.8-4.6-11.3-10.7-15.6-16.1-13.2-16.7-3.6-26-6.1-43.6-1.3-9.1-7.1-18.9-7-29.1 0-7.1 3.1-16.3 4-23 1.7-12.6 4.9-25.7-.5-37.3-3.6-7.7-13.9-19.2-16.6-26.4-3.1-8.2 2.4-16.8 2.5-25l13.3-26.8-.6-4c-6.2 1.8-12.7 2.8-18.8 4.7-6.2 1.9-14.1 4.8-19 8.3-.9.6-2.2.5-3 1.3-.4.4-5.8 9.8-6 10.4-4.2 11.3-4 27.7-5.3 39.7-.5 4.2-2.6 9.3-2.9 14.1-.8 13.6 3.8 19.4 7.7 31.3.8 2.3 2 5.3 2.4 6.6 6.3 21.2-1.2 47.1-7.5 67.8-.8 2.5-2.9 4.7-3.6 7.5-3 11 10.9 24.6 14.6 35.2 3.2 9 2.7 28.5 7.7 33.8 1.3 1.4 7.9 6.6 9.6 5.3 1.9-1.5 2.6-19.9 3.1-23.4.5-3.3 5.8-.9 7.3.5 2.6 2.3 7.6 11.1 9.9 14.4.8 1.2 2.7 1.6 3.2 2.8l4.7 18.8c-1.2 1.2-7.5-3.7-9.2-4.3l-7.8-6.7c-.4 8.5 3.3 17.1 4 25.5.8 9.5-1.9 20.8 2.6 29.4 2.5 4.8 11.2 9.6 15.4 13.6 5.2 4.8 5.8 7.7 6 15 .2 4.8-1.1 8.7-1.1 13 0 6.1 1.5 46.9 4.1 48.5 3.4 2.1 5-6.6 6.2-9.2 1.5-3.1 3.5-5.9 4.9-9.1 5.7-13.1 8.1-29.1 16.5-39.6 1.6-2 5-4.7 7.3-6.1zm505.4-279.6c11.8-10.6 12.9-24.8-4.2-30.1-7.1-2.2-23.7-5.1-30.5-3.1-7 2-3.6 12.8-3.6 17.3 0 12.2-8.8 24.3-10.1 36-.8 7.6 1.4 11.7 2 18 1.6 15.7-7.3 25.4-11.5 39.5-5.7 19.2 2.3 32.9 5.4 51.6.4 2.3-.2 4.7 0 6.9 1.3 9.2 3.9 18.1 3 27.5l23.5-12c11-12.8 23.7-22.5 25.4-40.6 1.8-19.6-12.4-33.7-10.8-51.8.5-5.3 3.9-14.7 3.9-19.1s-1.8-13.9-2.3-16.8c-.6-3.5-5-10-4.8-12.2.3-3.6 9.5-6.6 12.4-8.7 1-.7 1.3-1.8 2-2.4Zm-286.7 119c-6.6-7.1-18.2-5.6-24.7 1.1-4.4 4.6-8.1 16-9 22.1-.5 3.7.7 6.9 3.5 9.4 5 4.6 27.6 10.9 33 6 2.8-2.6 3.5-16.8 2.9-20.8-.3-1.9-4.6-16.6-5.8-17.8Zm29.9-2c-7.5-4.7-18.3-2.9-20.4 6.3-1.8 7.8-2 33.3 8.5 35.1 1.4.2 6-.5 7.5-.9.3 0 5.1-1.8 6-2.2 6.9-2.7 11.2-5.1 9.7-13.2-.2-1.3-.6-3.2-.8-4.2-1.4-5.8-5.2-17.5-10.5-20.9m-130.9 96.3c-1.2 1.1-6.2 10-8.8 14.8-3.3-4.4-8.3-15.1-8.9-16" class="outline" data-original-prefix="outline"/><path id="outline-head2" fill="#000000" d="M794.8 1553.3c2.1 1.6 3.2 8.4 4.3 10.7 3.2 7.3 5.9 13.1 10.9 18.2 12.8 13.4 13.8 15 18.3 33 1.5 4.1 2.7 9.5 6.6 12 2.8 1.2 4.6 3.3 6.8 5.5 2.1 1.8 4.8 2.9 6.7 4.8 1.8 1.5 5.1 26.1 4.3 23.7-3.1-9.2-8.8-16.9-10.7-17.3-3.4-.9-5.9-2.4-9.4-4-3.5-1.8-6.8-3.3-9.6-5.6-9.5-8.6-6.3-21.4-18.7-29.4-2.5-1.7-5.3-2.2-6 1.3-1.1 4.9.7 9.3 2.5 13.9 1.2 3.1 10 21 7.7 19.2-9.2-7-24.2-30-22.1-39.1.8-3.4 2.6-6.4 3.9-9.6.5-1.1.9-2.2 1.1-3.3 2.5-8.8 4.4-19.7-.5-28.1-2.2-3.8 1.4-24.1 3.1-23.5l.9 17.6Z" class="outline" data-original-prefix="outline"/><path id="outline-head3" fill="#000000" d="M1032 1652c.4.5 2.7 11.2 2.9 12.6 2.2 21.7-12.5 32.1-21.3 49.5-1.2 2.4-4.2 12.4-4.7 12.8-.4.3-2.5 0-3.2 0-2.2-.8-13.7-12.6-15.2-14.8-5.1-7.6-13.2-32.6-14.3-41.7-.3-2.4-1-7.2 3.1-6.1 2.9.8 6.5 10.1 7.8 13 4.3 9.6 5.7 18.3 12.2 29 10.2 16.6 6.9 6.1 11.2-4 3.9-9.2 15.9-18.3 17.3-27.7 1.1-7.1-1.4-13.8 2-21 .4-.8.6-3.3 2.1-1.4Z" class="outline" data-original-prefix="outline"/>
    </g>
</svg>