<?xml version="1.0" encoding="UTF-8"?>
<?xml-stylesheet type="text/css" href="../styles/semantic.css" ?>
<svg xmlns="http://www.w3.org/2000/svg" viewBox="0 0 2048 2048">
  <g class="trait-group" data-category="background" id="background-red">
      <path id="color-red" class="color" d="M2048,4.5c-.1,679.6-.1,1359.2,0,2038.8,0,3.8-.8,4.6-4.6,4.6-679.6-.1-1359.2-.1-2038.8,0-3.8,0-4.6-.8-4.6-4.6C.2,1362.3.1,681.2.1,0h2043.3c3.8,0,4.6.8,4.6,4.6h0v-.1Z" style="fill: #af6e6e" fill="#af6e6e"/>
    </g><g class="trait-group" data-category="jaw" id="jaw-OG">
      <!-- Generator: Adobe Illustrator 29.1.0, SVG Export Plug-In . SVG Version: 2.1.0 Build 142)  -->
  <defs>
    
  </defs>
  <path id="fill-jaw" class="fill" d="M1396.7,1438.7c-6.7,4.3-46.8-1.7-48.7.3l-12.2,69.8-57.2,29.3-1.4,1.6c-1.5,11.9,1.5,24.2.9,35.9-.3,4.9-1.3,15-2.3,19.7-.6,2.8-13.7,32.2-15,33.5s-16.1,8.9-16.7,8.3l-9.5-50-51,52c-7.7,5.7-20.7,9.3-27.5,15.5-14,12.7-25.2,37.4-42.1,47.9-5.4,3.3-61.3,25.7-66.7,26.3-13.8,1.7-33-3.3-47.7.2-17.7-10.3-50.1-16.2-66.1-26.9-14.3-9.6-28.3-35.6-41.4-47.6-6.7-6.1-19.9-9.6-27.5-15.4l-51-52-9.6,48.4c-.6.9-.9,1.7-2.2,1.5-.8,0-13.8-7.6-14.4-8.2-1.4-1.4-15.9-33.3-16.2-35.3l-.5-54.4-58.2-30.3-12.3-69.7c-8.1-1.2-45.1,3.9-49.5-1l-37.1-85-.5-3.4,31.5-70.6c5.3-1.6,29.1,0,31.3-6.7.8-2.3-.6-19.5-1.3-22.4-2.2-8.4-16.2-24-19.8-33.2-.7-1.7-1.2-3.1-.6-5,4.7-11.3,10.3-22.3,14.1-34,7.3-22.4,7.2-42.6,16.9-65.1,47.5-110.2,188.9-176,299.9-200.1,44.7-9.7,79.8-1.5,122.7,11.2,98,28.9,222.6,97.5,259,199,6.8,19,7,38.1,13.5,57.5,3.8,11.2,10.1,22.1,13.7,33.4,0,1.4-8.3,16.4-9.8,19.1-2.4,4.3-9.7,13.4-10.7,17.3-1.8,6.8-.6,15.6-2.3,22.5,9.9,7.9,21.3,4.2,32.4,6.5,9.6,23.9,23.5,46,31.4,70.6-9.8,26.3-22.2,51.8-33.2,77.7-1.3,3-1.7,9.3-5.1,11.4h0Z" fill="#ffffff"/>
  <path id="shading-jaw" class="shading" d="M1380.8,1185.8c-.2.4-2.1.7-2.8,1.7-8.6,10.8-16.2,26-21,39-4.2,11.4-5.1,22.7-13,32-18.8,22.4-51.8,45.5-78.3,57.7-5.4,2.5-12.5,3.7-16.7,7.8h20.5c2.7,0,5.1,1.2,7.9,1.1,18.1-.2,64.4-19.8,77.5-32.6,5.7-5.5,14.1-15.7,15-23.5,1.8,0,.7,2.4,1.5,4,3.1,5.9,15.5,5.2,21.5,6,.2,1.6-1.5.7-2.3,2.2-4.6,8.3-4.4,21.6-10.6,28.3-7.5,8.1-37.1,13.5-48.8,17.2-14.5,4.6-29.8,8.8-42,18.1l-52.8-14.8c-19.3-2.3-9.9,15.4-5.3,25.3,5.2,11.3,20.7,40,30.4,46.6,11.9,8.2,22.7-10.2,30-17,6.3-6,16.2-11.8,24.6-14.4,17.7-5.6,32.3,4.7,50.5,5.4,17.4.8,34.6-7.7,48.8-17.2,3.6-2.4,14.6-13.9,17.2-13.8,1.7,0,3.3,6.1,1.8,7.8-10.1,24.3-21.6,48-31.8,72.2-3.7,8.8-.8,14-13,15-9.3.7-15.8-1-24.2-1.8-4.8-.4-11.8,2.5-17.3-.2l-12.9,70.6-59,30.5c.4,11,2.6,23.6,2,34.5-.3,5.7-1.3,15.4-2.1,20.9-.5,3.1-13.4,31.4-15.4,33.6-3,3.2-11.6,6.2-15.5,9-.8-4.9-2.7-10.6-3-15.5-.6-11.2,2-11.3-2.7-23.2-.4-1.1-1.9-1-2.2-2-.8-2.2-.8-6.7-1.1-9.2l-2.3.2-50.2,51.8c-7.7,5.2-19.5,8.7-26.5,14.5-14.2,11.7-24.4,36.1-41.5,47.5-6.7,4.5-54.2,25.7-61.2,26.8-9.9,1.5-51.8,1.6-61.5,0-6.9-1.2-49.7-20.5-57.3-24.7-15.8-8.9-30.2-37.8-44.4-49.6-6.9-5.7-19-9.3-26.5-14.5l-51-52c-1,8.1-7.3,16-8.1,24-.6,6.2.6,14.6-.3,21.6-.2,1.7-3,1.8-2.1,4.4-.6.7-14.6-8.1-15.5-9-1.7-1.8-15-30.8-15.4-33.6-.7-4.4-.9-13-1.1-17.9-.5-12.2.6-24.4.5-36.6l-58.5-31.4-13-69.5-48.8-.2-38-86.6.9-6.2c8.2.4,11.8,8.2,18.6,12.7,25.3,16.9,38.4,19.8,68.5,13.9,17.1-3.4,19.1-7.5,37.2.4,15.9,7,19,16.2,30.6,25.4,9.6,7.6,13.6,7.9,22-1s31.8-49.1,32.1-60c.2-8.7-6.4-8.1-13.3-7.2-8.6,1.1-48.4,15.1-51,14.6-1.7-.4-12.3-7.9-16.5-9.6-20.3-8.4-48.8-11.8-67.2-20.8-14.9-7.3-11.3-20.9-17.7-33.2-.9-1.6-2.5-.6-2.3-2.2,6.3-.9,17,0,21-5.5,1-1.4.3-3.7,2-3.5,3,11.7,15.2,23.9,25.1,30.4,21.2,13.8,50.4,23.7,75.4,23.5h20.5l-34.7-16.8c-19.1-10.8-48.2-33.1-61.8-50.2-6.2-7.8-7.1-18.3-10.5-27.5-6-16.6-14.4-32-25-46,1.3-9,6.5-19.6,7.8-28.2,1.9-12.9,1.8-19.5,6.5-32.5,36.4-101.1,159.2-169,256.8-198.2,49.9-15,102.4-18.2,153.2-5.2,103.5,26.4,242.6,100.3,277.2,208.8,3.4,10.5,3,17.3,4.8,27.2.8,4.7,8.9,28.4,7.6,30.6l-.5-.2ZM1195.9,1382.1c-32.3-16.1-63.1-35.3-95.9-50.7-17.5-18.7-37.4-36.6-54.6-55.4-4.8-5.3-11.2-16-16-20-3-2.6-7.4-3-10.6-.6-4.5,3.4-12.7,16.4-17.4,21.6-16.7,18.6-36.8,35.6-53.6,54.4-32.9,15.3-64,34.2-96,51.2-.6,2.8,12.4,35,14.6,40.3,2.9,7.1,12.1,31.7,16,36.1,7.1,8,36.5,26.3,47,33,19.8,12.7,36.1,22.9,59.3,28.7,27.3,6.8,39.7,7.1,67,.6s43-16.6,65.7-31.3c10.4-6.8,35.9-22.5,43.4-30.6,4-4.4,12.7-27.4,15.6-34.4,2.1-5.1,16.8-41,15.5-42.9M728.3,1496.7c1.6,2,8.2,6.3,10.7,7.8,14.7,8.8,31.8,13.8,46.9,23.1,16.8,10.2,40.2,33.1,59.6,33.5,2.3,0,8.7-1.2,9.4-3.7s-13.6-27.6-16.4-30.3c-7.3-7.1-27.5-17.2-37.2-23.8-15.2-10.3-50.3-39.1-67.9-39.2-10.5,0-8.7,28.1-5.1,32.7h0ZM1319.7,1466.3c-5.9-5.9-24.1,4.1-30.4,7.6-16.2,8.9-31,21.4-46.2,31.8-12.7,8.7-30.1,15.7-38.6,28.4-2.2,3.4-10.8,17.7-11.4,20.7-1.1,5.3,6.2,6.5,10.3,6.3,16-.9,23.4-9.7,35.2-17.8,9.2-6.3,19.3-13.6,29-19,11.7-6.6,47.1-19.2,52.7-29.3,2.4-4.3,2.8-25.2-.7-28.6h0ZM1126,1664c-12-2.7-20.7,6.6-31.6,7.9-5.7.7-12.2-1.2-16.6-.7-7.1.8-22.9,12.1-31.2,14.9-14.8,4.9-30.2,4.7-45.1,0-8.8-2.8-23.9-14.1-31.2-14.9-4.4-.5-10.9,1.4-16.6.7-11-1.3-19.9-11-31.6-7.4,0,6.9,23.8,23.5,30,27,12.5,7.1,59.8,26.8,72.5,26.6s59.9-19.8,72.2-26.9c10.3-6,24.6-16.2,29.3-27.2h-.1Z" fill="#aaaaaa" style="opacity: 0.5" opacity="0.5"/>
  <path id="outline-jaw" d="M676,1140c5.3-3,18.5-3.6,19.1,4.5-2,7,0,18.6-3.2,24.9s-17.1,12.9-20.3,20.7c-1.1,2.6-6.2,25.4-6.5,28.5,0,1.3-.2,2.3.2,3.6,1.8,6.8,14.7,21.7,18.7,29.4,5,9.8,6.5,20.8,10.3,30.7,5.7,14.4,14.5,13.4,26.1,19.9,7.6,4.3,16,10.2,22.7,15.8-3.8,0-7.5.2-11.2-.2-8.4-1.1-30.6-5.8-38-8.9-9.8-4.2-8.9-17-13.8-20.2-2.7-1.8-8.7-1.2-12-2-6-1.4-9.7-6.6-16.7-1.3-6,11.6-13.4,22.6-19.2,34.3-7.3,15-16,27.5-6.5,43.3,5.5,9.2,23.4,26.5,26,35,2.4,7.9-2.3,28.2,2.4,33.6,7.5,8.5,28.6,4.4,35.5-3.6,2-2.4,2.5-6.3,4-9,6.3-10.9,19-25.2,30.7-30.3,12.2-5.3,16.1,11.4,18.4,20.3,3.6,14.2,1.3,26.5,12,38,6.7,7.3,18.2,14.5,27.2,18.8,4.7,2.2,21.2,9.9,25.3,10.7,12.8,2.4,25.4-6.5,32.6-16.5,2-2.8,2.8-6.3,4.7-9.3,9-14.8,16.3-6.2,25.8,1.8,11,9.2,20.9,19.8,32,29,45.8,38.3,90.7,54.1,151.4,45.3,58.2-8.4,83.7-40.7,125.7-75.3,2.2-1.8,8.8-7.7,10.8-8.2,12.1-3.2,14.2,10.5,19.7,17.8,5.7,7.4,15.3,15.6,25,16,7,.3,27.7-8.7,34.9-12.2,10.9-5.3,28.8-17.6,32.4-29.6,2.2-7.6,2.6-17.3,4.6-25.4,2.3-9,6.1-26.7,18.6-21.2,9.4,4.1,22,16.8,27.5,25.5,5.6,8.9,3.9,13.8,14.9,19.1,7.3,3.5,20.9,5,27.1-1.3,5.8-5.8.5-25.5,3-34,2.6-8.8,20.8-26.2,26.4-35.6,8.1-13.8,2.8-20.8-3-33.7-6.7-15-15.5-28.9-23.1-43.4-6.9-5.2-11.2-.2-17.5,1.5-3,.8-8.4,0-11.2,1.8s-5.1,12.8-8.6,16.4c-2.4,2.4-6.7,4-9.9,5.1-7.8,2.7-25.9,6.9-34.1,7.9-3.4.4-7,0-10.4,0,6.2-5.6,14.7-11.2,22.1-15.4,10.5-5.9,20.2-6.1,25.7-18.3,4.2-9.5,5.8-20.9,10.4-30.6,4.3-9,17.4-23.9,19.4-31.6.4-1.7.5-2.5.2-4.2-.6-4.5-5.3-24.5-6.9-28.2-3.4-7.8-19.2-16-20.8-22.2-.9-3.4-2.7-24.1-1.6-26.4,2.2-4.5,13.6-3.5,17.5-1,.8,2.8,2.9,13.6,4.2,14.8,4,3.5,21.3,4.8,24.5,11,2.5,4.8,0,15.5.2,21.8,0,2.9.8,7.8,1.3,10.7,1.5,8.6,9.7,23.3,7,30.5-2.3,5.9-12.8,22-16.8,28.2-3.3,5.1-7.9,9.5-10.4,15.1.7.7,9.7-4.6,10.9-5.6,5.4-4.1,7.6-12.1,14.6-5.5,4.7,4.4,13.6,18.5,17.5,24.5,10.1,15.9,19.6,34.4,25.7,52.3,1.6,4.7,5.8,14.8,3.7,19.2-.7,1.6-9.2,9.8-11.3,12.7-16.3,21.9-31.2,47.4-32.7,75.3-.8,1.3-2.2,1.8-3.5,2.5-5.7,2.8-27.3,11.7-32.6,12.4-3,.4-6.5.3-9.5-.3-4.5-.9-7-4.1-10.9-5.6-1.1,9.1-2.6,18.4-3,27.5-.4,7.8,1.5,32.2-.6,37.4-.4,1.1-11.8,14.9-12.7,15.3-3.8,1.8-11.7.3-16.3.7-13.5,1.3-21.2,15.2-25.2,26.8-4.6,13.3-5.2,27.9-9.2,40.8-5.8,19.3-37.7,50-54.2,61.8-.9.6-4.2,3.4-4.9,2.6,1-15.3,2.8-31.2-2.6-46-.3-.9-1.8-5.7-3.4-4-.6.6-3.5,12.5-6.2,16.3-8.3,11.9-29.2,7.9-37.8,19.2-9.5,12.3-7.6,28.7-22.1,38.9-32,22.4-79.6,38.4-117.7,46.3-12.4,2.6-16.8,2.3-29-.4-35-7.6-67.9-18.6-99.2-35.8-5.1-2.8-20.9-11.4-23.8-15.2-6.2-8-8.6-25.8-15.6-34.4-9.6-11.7-30.7-5.5-39.2-21.8-1.5-2.8-3.8-12.7-4.3-13.2-1.8-1.8-3.8,4.8-4,5.4-4.5,13.8-3.1,29.3-2,43.5-1.7,1.8-16.8-10.7-19-12.5-15.1-12.7-36.9-37.3-41.5-56.5s-7.6-59.5-33-62c-4.4-.4-13.1,1-16.5-.5-.9-.4-12.1-14.4-12.5-15.5-2.6-7.5-.2-27.3-.6-36.4s-2.3-19.1-3-28.5c-.4-.5-9.5,5.3-11.7,5.8-13.3,2.8-32.2-10.6-45.1-13.9-.7-27.4-14.8-51.6-30.3-73.2-2.2-3.1-4.5-6.2-6.8-9.2-4.1-5.2-7.9-4.8-6.9-12.9,1.3-10.6,13.1-35.4,18.4-45.6,3.6-6.8,26.1-44.2,31.2-45.8,7.3-2.2,13.1,11.5,21.3,11.8l-25.5-40.9c-4-9.3,4.3-21.7,6.2-31.8s.2-19.2,1.3-28.7,18.5-11,25.8-14.7c2.6-2.8,1-6.8,1.5-9,.4-1.9,1.3-3.7,1.8-5.8h-.5ZM799,1627.5v-20c0-3.1,8.8-25.7,11-27,4.3-2.7,20.4,9.8,24,13,12,10.5,20.7,26.3,32,36,8.5,7.4,21.1,12,29.5,19.5,10.9,9.6,20.1,26.5,30.5,37.5,11,11.7,29.8,18.4,44.7,24.3,25.1,9.9,38.9,14.1,66.8,12.3,16.1-1,62.3-19.4,76.4-28.6,13.7-8.9,25-32.9,37.6-44.4,9.3-8.6,24.5-14.2,33.6-22.4,10.1-9.2,18.3-23.6,29.4-33.6,3.6-3.3,19.9-16.8,24.4-13.8.8.6,6.9,16.7,7.6,18.9.5,1.7,2.5,8.4,2.5,9.5v17c0,.6-1.6,2-1,3.5,10.4-10.7,20.8-25.9,23.6-40.9,2.4-12.9,1.4-27.4.4-40.5-.3-4-2.6-6.9-.8-10.8,3.7-8.5,20.8-15.9,29.2-19.9s24.7-7.7,29.1-15.9c4.6-8.5,2.6-32.2,3.7-43.3,1-10.3,7.7-19.4,6.9-29.1-.6-6.6-5.4-16.3-10-21-1.5-1.5-8.2-6.7-10-5.5-1.8,1.3-7.1,27.7-7.1,31.5,0,7.3,4.4,13.6-2.4,19.5-17.3,15-41.2,23.8-61.1,34.9-5.5,3.1-23.5,16.8-28.6,16-2.7-.4-5.4-3.6-9.2-3.9-11.7-.8-14.9,8.5-22,15-16.4,14.9-41.2,22.8-63,25-69.3,7-135.6,7.1-205,0-22-2.2-45.8-9.7-62.5-24.5-7.2-6.4-10.9-16.4-22.5-15.6-3.7.2-7.5,4-9.8,3.8-5.4-.5-21.2-12.7-27-15.9-13.4-7.4-27.8-13.2-41-21-4.6-2.7-22.9-14-23.7-18.3-1-5.2,1.1-10.4,1.1-15s-5.6-31.3-7.6-31.5c-7.7-.9-16.7,15.1-18.5,21.5-4.1,14,4.6,20.6,5.9,34.2,1.4,13.7-4.1,40.6,8.8,49.2s39.9,13.7,50.8,26.2c5.6,6.4,1.4,8.6.7,15.6-3.2,29.7,1.3,54.7,20.9,77.8.5.6,3.9,4,2,1l-.3-.3Z" class="outline" fill="#000000"/>
    </g><g class="trait-group" data-category="mouth" id="mouth-cracked scrappy">
      <path id="fill-muzzle-1" fill="#ffffff" d="M1038 1292s-.4 1.7.7 2c10.3 2.8 18 4.3 25.8 13 1.9 2.2 4.9 8.8 6.5 9.5 2.6 1.2 6.6 0 9.5.5 11.4 1.5 21.2 3.7 31.2 9.8 2.1 1.3 9.2 7.8 10.2 7.1.3-.3 0-1.7 0-1.9 2.4-1.8 32.7.6 38 1 5.2 4.2 13.2 5.5 19.2 8.3 13.7 6.4 22.5 16.1 29.9 29.1 8.4 14.6 7.7 17.8 3.1 33.4-2.5 8.5-4.8 21.8-16.3 20.2 1.5-15.5-14.8-32.4-26.5-41-3.2-2.4-11.3-7.2-6 0 10.7 14.6 20.5 15 21.5 37.5.5 10.4-8.3 32.8-15.4 40.5-.6.7-7.1 6.3-7.6 6.5-3 1.6-6.8-6.1-7.8-8.2-3.7-7.7-4.8-15.6-9.7-23.3-1.1-1.7-10.8-13.7-12.4-12.1 5.6 13 9 46.2-2.5 56-4.4 3.7-9.4 1.9-13.3 3.7-2.8 1.3-3.1 5.8-4.8 6.2-.9.2-7.2-3.2-9.4-3.5-9.3-1.3-13.1 17-18.7 17.4-2.5.2-10.7-11.9-18.4-9.4-6.8 2.2-15.3 20.6-23.6 23.5-7.3-4.5-4.2-14-6.6-21.1-1.2-3.5-4.2-6.7-5.8-10.2-5.4-12.7-2.8-19.9-.2-32.2.7-3.3-.2-6.3 1.2-9.8.4-1 6-11.5 6.6-12.4 3.7-5.4 19.2-12.4 22.7-3.8.9 2.2 0 8.7 2.2 7.7 5.1-4.9 10.2-9.9 15.5-14.5 10.2-8.9 12.8-8.2 19.5-21.5 1.9-3.8 8.1-17.3 8.2-20.7.2-6.3-17.9-22.6-21-29-3.6-2.9-22.1-2.8-27.2-2.3-14.1 1.5-18 12.2-27.5 19.5-1 .8-1.3 1.9-3 1.5l.8-12.7c7.6-8.2 14.9-16.6 21.1-26 .7-3.3-8.6-12.4-11.3-13.2-3.6-1 .5 5.5.5 6.6.4 5.2-5.9 4.1-9.3 5.6-1.2.5-3 2.7-3.2 2.7s-2-2.2-3.2-2.7c-8-3.5-11.7.6-7.3-12.2-1.6-1.7-12.5 9.1-12.9 11.7-.2 1.6 3.6 7.8 4.8 9.5 1.5 2 5 5.9 7 8.3 3.2 3.9 9.7 7.7 9.9 13.1 0 1.6-.8 3.1-.8 4.8s2.6 8.1-2.5 3.6c-6.2-5.3-10.1-13.6-18.5-17.5-6.8-3.1-28.3-4.1-34.7-.8-.8.4-9.9 11.1-11.2 12.8-2.4 3-10.9 13.7-10.8 16.8.2 5.1 11.2 27.9 14.7 32.2 2.8 3.4 10.2 7.7 14 11 5 4.3 9.7 9.1 14.5 13.5 2.2.9 1.5-5.2 2-7 2.4-9.9 19.2-2.4 23 3.1.7.9 6.6 13.1 6.9 14.1 2.9 11 5.6 26.6 1.9 37.5-1.7 4.9-6.8 10.4-7.8 15.2-1.4 6.6 1 13.6-5 19-5.3 1.2-18.8-21.7-24.4-23.5-8.2-2.6-15.9 9.6-18.4 9.4-5.3-.4-8.7-14-13.9-16.1-6.9-2.8-11.5 2.7-14.1 2.1-1.8-.4-2-4.8-4.8-6.1-4.5-2-9.6.3-14.3-4.7-10.9-11.5-6.5-42.2-1.5-56.1-9.1 6.7-14.1 14.8-18.5 25-1.6 3.6-2 7.5-3.7 11.3-1 2.1-4.9 9.8-7.8 8.2-.4-.2-6.9-5.8-7.5-6.5-4-4.2-13.8-24.3-15-30-2.8-12.9 1.4-26.5 9.5-36.5 4.1-5.1 11.3-9 13-15.5-2.4-2.4-22.3 17.4-24.4 20.1-5.4 6.8-11 15.9-9.6 24.9-4.7.2-8.1-.7-10.8-4.7-1.8-2.7-8.8-24.3-9.2-27.8-1.1-10.9 10.9-28.8 18-37 10.5-12.2 24.5-14.2 38-21.5 12.5-.8 24.5-2.3 37-1 0 0 .7 2.1.5 3 9.5-8.2 20.6-14.8 33.1-16.9 4.7-.8 14.8-.4 18.1-1.8 1.6-.7 5.2-7.7 7.2-9.9 8-8.4 15.2-9.7 25.4-12.5 1.1-.3.6-1.9.7-2 1.1-.7 25.9-.7 27 0Z" class="fill" data-original-prefix="fill"/><path id="fill-teeth16" fill="#ffffff" d="M995.3 1525.7c11 9.5 17.2-6.6 23.2 6.3 6.5 14.1 3.7 38.4-1 52.9-.7 2.1-7.1 16.9-8 17.1-1.2.3-3-.4-4.2-.9-12-5.1-31.7-18.1-39.1-28.9-10.6-15.5-6.4-42.9 6.8-55.8 1.3-1.3 9.1-5.6 10.4-5.3 1.5.3 9.4 12.3 12 14.5h-.1Z" class="fill" data-original-prefix="fill"/><path id="fill-teeth15" fill="#ffffff" d="M1039.1 1601.9c-.8-.5-7.5-16.1-8.1-18.4-4.1-13.8-6.5-36.9-1.3-50.3 4.6-12 8.1-4.3 15.8-4.2 9.5.2 17.3-18.2 20.8-17.9 1.2 0 8.5 4.2 9.7 5.3 6.3 6.2 12.2 22.3 13 31 2.4 28-20.3 39.6-41.3 50.7-2 1.1-5.7 5.5-8.6 3.7Z" class="fill" data-original-prefix="fill"/><path id="fill-teeth14" fill="#ffffff" d="M904 1461c0 2.2-1.1 3.8-.8 6.2.2 1.8 7.1 22 8 23.1 3.9 5.1 11.2 3.2 16.7 3.8 4.9 13.5-4.2 23.8-8.6 35.6-2 5.3-8.7 33.1-12.8 34.2-1.8.5-6.8-9.1-8.3-10.7-10.3-23.9-15.3-58.4-2.6-82.2.6-1.2 7.1-11.6 8.4-10.1Z" class="fill" data-original-prefix="fill"/><path id="fill-teeth13" fill="#ffffff" d="M1144 1564c-2.1 1.4-6.1-7.1-6.8-8.7-3.2-7.9-4.4-17.4-7.5-25.5-4.3-11.6-13.6-22-8.6-35.6 4.8-.6 12.3 1.2 15.9-2.9 1.3-1.5 8.1-20.6 8.6-23.2.3-1.8-1.4-7 .9-6 6 2.7 13.7 26 14.4 32.6 1.4 13.9-2.9 45-9.3 57.4-.8 1.5-7 11.6-7.6 11.9" class="fill" data-original-prefix="fill"/><path id="fill-teeth12" fill="#ffffff" d="M1093.1 1644.9c-2.9-1.8-2.4-28.5-2.1-33.4.7-10.5 5.2-31.2 8.9-41.1 1.1-2.8 2.4-1.4 4.2 0 12.2 9.6 21.1 44.8 12.8 57.9-1.9 3-15.6 14.9-18.9 16.1-1.3.5-3.8 1.1-4.8.4Z" class="fill" data-original-prefix="fill"/><path id="fill-teeth11" fill="#ffffff" d="M949 1569c5.5 22 11.1 44.4 9 67.5-.5 5.2-.9 10.3-7 8-3.4-1.3-17.5-13.4-19.5-16.5-5.8-9.2-1.4-31.3 2.7-41.2 1.2-2.9 11.3-21 14.8-17.7Z" class="fill" data-original-prefix="fill"/><path id="fill-teeth10" fill="#ffffff" d="M881.7 1478.3c3.1 2.8-2.7 21-2.8 26.2 0 5.9 2.6 12.4 3.1 18 .2 2.1.7 24.5-.5 24.5-1.5.2-2.1-1.1-2.9-2.1-15.6-18.9-34.8-51.8-17.4-75.3 6.5-8.8 10.5 2.1 14.9 5.8 1.8 1.5 4.9 2.1 5.7 2.8Z" class="fill" data-original-prefix="fill"/><path id="fill-teeth9" fill="#ffffff" d="M1185.7 1467.3c1.9 1.6 7.8 13.7 8.2 16.2 3.2 20.7-9.8 47.3-23.9 61.9-.9 1-1.3 1.9-3 1.5.5-8-.7-16.6 0-24.5.4-5.4 3.1-12.3 3.1-18s-6.1-23.4-2.8-26.2c.6-.6 2.5-.6 3.8-1.7 3.4-3 10-13.1 14.7-9.3Z" class="fill" data-original-prefix="fill"/><path id="fill-teeth8" fill="#ffffff" d="M1018 1613v16.5c0 .9-10.8 13.2-11.9 14.1-6.3 4.8-8-2.6-10.6-5.5-5.5-6-17.9-.4-24.4-5.6-1.2-.9-4.1-8.8-4.1-9.9v-22.5c12.9 1.7 28.3 17.5 41.4 15.9 3.5-.4 6.1-3 9.6-2.9Z" class="fill" data-original-prefix="fill"/><path id="fill-teeth7" fill="#ffffff" d="M1031 1613c6.3 1.3 9.1 4 16.1 2.6 10.6-2.2 24.3-14.8 33.4-15.6 2-.2 1.4 0 1.2 1.3-.8 6.5 2.4 27.5-4.4 31.6-7 4.2-18.8-.3-23.4 4.6-2.1 2.2-3.6 8-8.4 7.6-1 0-14.6-13.5-14.6-14.6V1613z" class="fill" data-original-prefix="fill"/><path id="fill-teeth6" fill="#ffffff" d="M1102.5 1494c3.3-.8 4.5 6.9 5.3 8.7 5.6 12.1 13 24.8 13.3 38.8.2 9-16 29.8-21.3 16.2-4-10.4-4.1-44.8-1.1-55.5.4-1.6 2.4-7.9 3.8-8.2" class="fill" data-original-prefix="fill"/><path id="fill-teeth5" fill="#ffffff" d="M937.3 1559.7c-1.9-1.6-7.8-10.5-8.5-13-3.6-12.1 6-31.3 11.4-42 1.6-3.1 3.3-14.7 8-7.4 5.5 8.5 4.3 41.5 2.7 52.1-1.2 7.7-3.6 18.7-13.6 10.3" class="fill" data-original-prefix="fill"/><path id="fill-teeth4" fill="#ffffff" d="M917 1563c-1.8 13.4 2.9 27.5 2 40.5-.6 9-4.4 18.4-5.5 27.5-6.2-6-10.5-16.1-11.4-24.6-.5-5.2.7-24.7 2.4-29.3.6-1.6 10.5-16.2 12.4-14.1Z" class="fill" data-original-prefix="fill"/><path id="fill-teeth3" fill="#ffffff" d="M1135 1631c-.4-8.9-4.4-17.8-5.1-26.5-1-13.8 3.7-27.6 2-41.5 2.2-2.4 11.9 13 12.5 15 2 6.6 2.6 27.4 1.2 34.3-1.3 6.3-5.5 14.9-10.8 18.7z" class="fill" data-original-prefix="fill"/><path id="fill-teeth2" fill="#ffffff" d="M1154.1 1604.9c-3.4-2-5.1-22.3-3.9-26.2.8-2.6 8.9-5.2 10.2-8.8l5.1-10.9c3.8 3.4 5.1 7.2 4.3 12.2-.7 4.2-5.4 22.7-6.9 26.2-.9 2.2-6.1 9-8.8 7.5" class="fill" data-original-prefix="fill"/><path id="fill-teeth1" fill="#ffffff" d="M885 1559c-.3 3.7 1.7 9.4 4 12.2s9.5 5.2 10 8.3c-2 8.4 1.6 19.2-5.7 25.4-3.6-1.1-6-4-7.4-7.4s-6.5-23.6-6.9-27.1c-.5-4.2 1.2-10.6 5.9-11.4z" class="fill" data-original-prefix="fill"/><path id="shading-mouth2" fill="#aaaaaa" d="M918 1443.5c.8 5.3 5.6 13.8 10.1 16.9 11.5 8.3 16.2-.3 22.4-9.4 2.5 5.4 3.4 11.5 6 17 1.4 2.8 5.7 12 7.5 5.5l4-11.5c1.6 7.5 6.3 15.4 11.5 21 4.3 4.7 18.8 15.4 24.6 9.6 2-2.1 8.3-17.9 10.8-22.2 1.2-2.2 7.8-13.8 9.7-13.3 1 .2 8.5 13.2 9.7 15.3 2.4 4.5 7.3 17.7 9.8 20.2 3.8 3.8 10.5.4 14.4-1.8 10.5-5.9 18.5-17.2 21.7-28.8l4.2 12.3c.3 1.2 1.9 2.4 2.8 1.7.6-.4 5.8-11.3 6.5-13 .8-2 2.8-12 4-12 6.8 10.7 12.9 18.4 24.5 7.5 8.6-8 9.3-23.8 7-34.5 3.5-3.1 21.1 16.1 26.6 16.9 9.1 1.4 17.6-11.8 19-19.9 3.5-20.5-12.9-39.2-30.9-46.2l-12.7-4.8c15.4 0 28.2 2.9 41.1 11.4 4.8 3.1 12.2 10.9 17.6 11.4 6.2.6 10.1-4.1 10-10-.4-19.3-25.8-38.1-39.7-48.8 15.4 2.4 34.6 11.8 45 23.5 7.8 8.8 19.1 25.1 19.1 37s-6.4 28.5-9.2 32.8c-3.3 5.3-11.7 5.4-13.4 10.6-.9 8.1-2.1 16.4-2.5 24.5-1.5 29 1.4 45.2-10.8 73.2-3.6 8.2-12.7 20.4-14.9 27.1-4.2 12.8-.7 26.4-9.1 38.9-3.2 4.8-8.4 6.7-11.2 10.8-1.7 2.5-2.4 6.1-4.2 8.8-4.5 6.7-14.6 23-21.6 8.9-1.6-3.3-1.3-12.9-6.7-6.2-1.4 1.7-1.9 4.4-3.5 6.5-3.7 4.7-17.7 19.6-23.5 19.5-2.2 0-4.5-4.1-6.6-5.4-7.9-5-21.1-6.3-29.2-1.4-7.3 4.4-9.5 13.6-18.1 6.8s-6.4-10.8-20.1-9c-5.6.7-11.4 12.6-16.9 12.1-2.8-.2-11.4-11.1-18.5-12.6-6.3-1.3-17.5.7-23 4.2-2.6 1.7-4.1 5.6-7.5 5.4-5.7-.3-19.8-15.8-23.6-20.5-1.2-1.5-4.4-10.6-7.1-6.9-2.5 3.4-.6 9.9-7.2 12.7-7 3-14.9-11.2-18.1-16.4-1.2-1.8-1.2-4.3-2.6-6.4-2-3-6.8-5.4-9.5-8.5-10.4-11.9-6.7-27.7-10.7-41.3-.8-2.6-5.6-8.5-7.3-11.7-18.4-35.7-16.4-45.6-18.4-84.6-.4-7.7-.6-20.7-2.2-27.8-1.5-6.2-11.1-6.1-14.2-11.8-3.4-6.1-9.3-29.6-8.6-36.4 1.2-10.3 16.2-31.2 24-38 10.5-9.2 26.2-16.5 40-18.5l-21.5 17c-7.2 6.4-26.8 32-14.8 39.9 9 5.9 16.7-4.5 23.7-9.1 12.7-8.4 25.3-11.8 40.7-11.8l-17.3 7.2c-18 9.4-33.1 32.7-22.1 52.8 1.7 3.1 8.6 10.4 12 11.1 9.1 1.7 20.7-15.4 29.5-18 .6 6.4-.9 14.3 0 20.5zm-37.1 40.6c-12.3-.5-17.1-20.2-22.8 1.5-3.4 13 1.2 26.4 9.4 36.5 1.5 1.8 12.7 13.1 13.9 12.9.8 0 2.5-2.3 2.8-3.2 2.9-7.1-3.2-12.2-4.2-19.2-1.5-9.8 0-18.7.9-28.4Zm301.8-8.9c-3.2.8-6.3 6-8.8 7.3-2.1 1.1-7.2 1-7.8 3.2-.5 1.7 3 10.8 2.9 14.8 0 3-1.5 13.9-2.2 16.8-.9 3.6-3.9 5.7-3.9 10.2s1.4 7.1 3.7 7.4c1.9.3 15-14.4 16.8-17 5.7-8.5 9-18.8 7.3-29.2-.5-3-4.4-14.5-8-13.6Zm-284.8 10c-4-2.3-6.5 9.9-6.8 12.5-1.2 10.5 3 38 8.7 47.1 1.9 3 5.4 6.9 9.2 7.3 3.7-15.6 12.6-29.2 21-42.5-2.3-.4-1.7-2.9-2.7-3.5-1.5-.9-7-1.9-9.7-3.1-4.7-2.2-12-7.7-15.6-11.4-1.2-1.2-3.8-6.2-4.2-6.3ZM1139 1552c8.3-2 11.9-12.2 13.9-19.6 3.1-12.1 6.1-33.4 1.1-44.8-3-6.9-5.8 1.7-8.3 4.1-3.9 3.8-11 9.3-16 11.6-2.5 1.1-7.8 1.8-9.1 2.7-.7.5-.5 1.8-1 2.7-.3.4-1.7.4-1.6.9 0 1 7.9 12.3 9.2 14.8 4.8 8.8 9.1 18 11.8 27.7Zm-197.7 5.7c8.1 8.1 9.5 0 10.5-7.3.8-5.6 2.7-20.6 1.7-25.4-3.6-17.2-21.3-15.9-21.6 3.6 0 6.8 4.6 24.3 9.4 29.2Zm161.5-44.5c-5 1.3-8.5 9.3-8.8 14.2-.2 4 2.4 28.5 3.8 31.3 2.5 5 7.5 0 9.8-2.7 6.8-8.3 11.6-30.7 4.5-39.5-2.7-3.3-4.8-4.4-9.2-3.3zM1023 1544c-.7-.7-.8-7-5.1-9.4-8.9-5-21.8-.8-32-4-10.4-3.3-9.4-13.1-16.1 1.8-2.9 6.4-9.1 24.4-6.3 30.7 1.1 2.4 17.8 15.6 21.2 17.8s18.2 11.7 21.1 10c3.1-5.6 9.3-9.5 12.6-14.9 1.8-2.8 4.1-11.5 4.6-11.9 1.6-1.7 1.7.5 2.1 1.4 1.6 3.6 2.1 6.8 4.5 10.5 3.3 5.2 9.2 9.3 12.4 14.6 3.1 1.9 15.5-5.9 18.9-8.1 4.5-2.9 22.9-17 23.9-21.1 2.2-9.7-6.6-28.3-10.9-37.2-4.9 1-7.8 5.2-12.7 6.7-9.2 2.8-28.2-1.6-33.7 6.3-.9 1.2-2.6 8.9-4.5 7zm-136 18c-.7-.6-3.5 0-4.5.9-6 6.2 2.4 31.6 14.6 27.6 4-1.3 3.8-9.4 2.8-12.9-1.1-3.9-7.2-4.1-9.8-7.2-2.1-2.5-2.7-8.2-3-8.5Zm274.1 0c-.3.3-.9 6-3 8.5-2.6 3.1-8.7 3.3-9.8 7.2-1 3.4-1.2 11.6 2.8 12.9 13.4 4.4 20.2-24.5 14.1-28.1-.9-.5-3.5-.9-4-.4Zm-216.4 7.2c-1.5.4-5.1 4.6-6 6.1-3.4 5.6-5.6 32.3-4.8 39.3 1.3 10.9 15.2 18 19.5 3.5 1.7-5.6 2.6-21.4 2.5-27.6 0-1.1-5.8-19.7-6.5-20.5-1.2-1.4-3.2-1.3-4.8-.8Zm153.3-.1c.2 6.6-5.4 14.7-6 20.6-.5 4.5 1 25.3 2.4 29.4 4.2 12.1 16.9 7.3 19.1-2.9 1.1-5.2 0-16.8-.6-22.6-1-9.7-1.7-25.5-14.9-24.5m-180 1.9c-20.5 3.8-17 28.7-9 43 4 2.9 10.4-17 10.7-19.8.9-7.5-2.9-15.5-1.8-23.2Zm218 43c2.5 1.8 7.2-9.1 7.7-10.8 3.9-12.8 1.6-30.1-13.7-32.2.5 7.4-2.8 16.2-1.9 23.4.3 2.7 6.4 18.5 7.9 19.6m-148.2 10.2c1.4.8 4.8 8.6 9.5 11 11.1 5.8 20.2-6.4 20.7-16.7.8-13.7-7.2-7.7-16.5-8.6-8.4-.8-15-4.8-21.8-9.2-5.5-3.5-13.6-14.6-14.7-1.4-.5 5.1 1.4 7.5 1.8 11.2s-2 5.9.5 10.7c4.8 9.3 18 1.3 20.7 2.8zm93.1-31.1c-2.1-1.5-19.7 12.7-23.9 14.4-2.3 1-7.9 2.3-10.5 2.5-10.5.9-18.8-5.4-16.4 11.4 1 7.3 7.9 15.8 16 15.1 9.4-.8 11.9-11.6 14.6-12.4 4-1.3 12.3 5.7 18.9-1.1 4.3-4.4 1.3-8.4 1.5-12.5 0-2.3 1.9-4.8 2-8.1 0-1.9-.8-8.5-2.2-9.4Z" class="outline shading" data-original-prefix="shading" opacity="0.5" style="opacity: 0.5"/><path id="shading-mouth1" fill="#aaaaaa" d="M1041 1343c6.1.5 12.7-1 17.5-5 1.5-1.3.9-3.7 2.8-2.9 10.1 7.9 37.9 17.4 43.8 28.2 3.6 6.5 4.6 17.5-1.8 22.6-5.6 4.5-20.8 10.8-28 15-4.9 2.8-9.7 6.6-14.7 9.3-7.4 4.1-25.5 14.5-32.6 16.4-2.9.8-5.2.8-8.1 0-14.5-3.8-42.2-22.5-56.3-30.7-6.2-3.6-21.2-9.1-23.2-15.8-5.5-18.4 15.7-28.3 28.7-35.4 2.3-1.2 15.5-8.6 16.5-8.7 2.9-.3 4.2 2.9 6.7 4.2 4.2 2.3 10 3.2 14.7 2.8-.3-5.1-3.3-11.3-1.8-16.3.5-1.6 12.5-13.9 14.5-14.4 3.9-1 8.2-.3 11.6 1.9 1 .7 10.8 11.1 11.2 11.8 2.1 5-1.2 11.8-1.5 17" class="outline shading" data-original-prefix="shading" opacity="0.5" style="opacity: 0.5"/><path id="outline-mouth3" fill="#000000" d="M889 1333c-13.5 7.3-27.4 9.4-38 21.5-7.1 8.2-19.1 26.1-18 37 .3 3.5 7.3 25.1 9.2 27.8 2.7 4 6.1 4.9 10.8 4.7-1.4-9 4.2-18.1 9.6-24.9 2.1-2.6 22-22.5 24.4-20.1-1.7 6.5-8.8 10.4-13 15.5-8.1 10-12.3 23.6-9.5 36.5 1.2 5.7 11 25.8 15 30 .7.7 7.1 6.3 7.5 6.5 3 1.5 6.9-6.1 7.8-8.2 1.7-3.8 2.1-7.7 3.7-11.3 4.4-10.2 9.4-18.4 18.5-25-5.1 13.9-9.5 44.6 1.5 56.1 4.8 5 9.9 2.7 14.3 4.7 2.8 1.3 3 5.7 4.8 6.1 2.6.6 7.2-4.9 14.1-2.1 5.2 2.1 8.6 15.6 13.9 16.1 2.5.2 10.2-12 18.4-9.4 5.6 1.8 19.1 24.8 24.4 23.5 6.1-5.4 3.7-12.4 5-19 1-4.8 6.1-10.3 7.8-15.2 3.7-10.9 1-26.5-1.9-37.5-.3-1.1-6.2-13.2-6.9-14.1-3.8-5.5-20.6-13-23-3.1-.4 1.8.2 7.9-2 7-4.8-4.4-9.5-9.2-14.5-13.5-3.8-3.3-11.2-7.6-14-11-3.5-4.3-14.5-27.1-14.7-32.2 0-3.1 8.4-13.8 10.8-16.8 1.4-1.7 10.5-12.5 11.2-12.8 6.4-3.2 28-2.3 34.7.8 8.4 3.8 12.4 12.1 18.5 17.5 5.2 4.5 2.5-1.7 2.5-3.6s.9-3.2.8-4.8c-.2-5.4-6.7-9.2-9.9-13.1-2-2.4-5.5-6.3-7-8.3-1.2-1.7-5.1-7.9-4.8-9.5.4-2.6 11.3-13.4 12.9-11.7-4.4 12.8-.7 8.7 7.3 12.2 1.2.5 3 2.7 3.2 2.7s2-2.2 3.2-2.7c3.4-1.5 9.7-.4 9.3-5.6 0-1.1-4.1-7.6-.5-6.6 2.8.8 12.1 10 11.3 13.2-6.2 9.4-13.5 17.8-21.1 26l-.8 12.7c1.7.4 2-.7 3-1.5 9.5-7.3 13.4-18 27.5-19.5 5.1-.6 23.6-.6 27.2 2.3 3.2 6.4 21.2 22.7 21 29 0 3.4-6.3 16.9-8.2 20.7-6.8 13.3-9.3 12.6-19.5 21.5-5.3 4.6-10.4 9.6-15.5 14.5-2.2.9-1.4-5.6-2.2-7.7-3.4-8.6-19-1.6-22.7 3.8-.6.9-6.2 11.4-6.6 12.4-1.3 3.6-.5 6.5-1.2 9.8-2.6 12.3-5.2 19.6.2 32.2 1.5 3.5 4.6 6.8 5.8 10.2 2.4 7.1-.8 16.6 6.6 21.1 8.3-2.8 16.9-21.3 23.6-23.5 7.7-2.4 15.9 9.6 18.4 9.4 5.6-.5 9.4-18.8 18.7-17.4 2.2.3 8.4 3.7 9.4 3.5 1.7-.4 2-4.9 4.8-6.2 3.9-1.8 8.9 0 13.3-3.7 11.5-9.9 8.1-43 2.5-56 1.6-1.6 11.3 10.4 12.4 12.1 4.9 7.6 6.1 15.6 9.7 23.3 1 2.1 4.8 9.8 7.8 8.2.4-.2 6.9-5.8 7.6-6.5 7.1-7.7 15.9-30.1 15.4-40.5-1-22.4-10.8-22.9-21.5-37.5-5.3-7.2 2.8-2.4 6 0 11.8 8.6 28 25.5 26.5 41 11.4 1.6 13.7-11.7 16.3-20.2 4.6-15.6 5.3-18.8-3.1-33.4-7.4-13-16.3-22.7-29.9-29.1-6-2.8-14.1-4.1-19.2-8.3 9.3.7 19.7 2.8 29.2 5.3 7.4 1.9 14.4 3.9 20.7 8.3 3.2 9.3 27.6 34.6 28 42 .2 3.9-8.4 23-10.2 28.7-2.4 7.4-1.3 15.8-9 20-2.1 1.1-8.8 2.4-9.5 3-3.6 3.6-1.9 26-2.2 32.3-1.2 29.7-2.2 52.7-20.5 77.5-.9 1.2-2.6 1.5-3.6 2.7-4.3 5.6-2.8 18.6-4.3 26.5-1.1 6-5 13.1-5.6 18.4-.4 3.6 1.4 7.3.2 10.1-1 2.4-9.9 8-12.6 9.5-2.2 1.2-5.7 1.5-6.5 2-.6.4-5.4 10.9-7.2 13.3-2.1 2.7-11.1 11.3-14 12.1-4.1 1.2-7.9-10.3-9.9-13s-2.3 2.3-3.6 4.3c-4.3 6.7-25.1 26.6-32.4 28.6-1.7.5-3.3.7-5 .5-.2-6.5 3.6-11.9-3-16.5-7.6-5.2-17.7 0-21.5 7.4-4.2 8.3-1.8 29.9-14.4 16.5-7.1-7.5-13-17.8-18.5-26.4-2.8 5-19.9 30.6-24 31-5.8.6-5.9-11.5-7.2-15.8-2.5-8.5-10.5-17.7-20-14.4-12.1 4.1-4.7 16.7-6.3 18.2-6 1.1-9.7-4.5-15-5-1.3 6.3-5.2 11.9-5.1 18.5.2 11.2 13.9 23.7 10.9 33.8-.8 2.7-3.4 3.2-5.5 1.4-3.7-3.3-7.9-17.8-10.4-23.1-3.8-8-11.3-14.9-9.4-23.7 1-4.7 7.9-13.9 7.6-17.4-.5-5.3-12.8-12.5-12-18.6-1.2-.2-1.3-.3-2.1.6-2.1 2.7-6.2 14.3-10.2 13.3s-12-10.2-13.7-12.4c-2.1-2.7-6.6-12.8-7.2-13.2-.7-.5-4.2-.8-6.5-2-2.5-1.3-12.6-7.8-13.2-9.9s1.2-6.2.8-9.7c-.6-5.1-4.5-11.5-5.6-17.4-1.7-8.4.3-19.9-3.9-26.1-5.9-8.8-10.5-12.8-15.3-23.7-13.6-31.3-7.5-52.3-10.1-83.9-.8-9.9-3.8-5.3-10.8-9.3-8.2-4.6-6.8-13.1-9.3-20.7-1.9-5.9-9.7-21.8-10-26.1-.2-3.3 1.1-4.7 2.5-7.3 6.8-12.4 18.9-24.3 26.1-36.9 5.9-4.3 13.2-6 20.1-7.9 9.7-2.6 19.8-4.7 29.2-5.3Zm15 128c-1.4-1.5-7.8 8.9-8.4 10.1-10.6 19.9-8.6 50.8-1.8 71.7 1.1 3.3 9.4 22.1 12.8 21.2 4.4-1.1 10.8-28.9 12.8-34.3 4.3-11.7 13.6-22.1 8.6-35.6-4.8-.6-12.2 1.2-15.9-2.9-1.4-1.5-8.5-21.7-8.8-24s.8-4 .8-6.2Zm240 103c.6-.4 6.8-10.5 7.5-12 6.2-12 8.8-32.9 9.5-46.5.8-15.3-4.1-32.2-14.6-43.5l-2.2 9.8c-4.9 13.6-4.6 25.2-23.1 22.4-5.2 13.7 4.3 23.9 8.6 35.6 3.1 8.4 6 27.5 11.8 33.2.7.7 1.4 1.8 2.4 1.1Zm-262.3-85.7c-1-.9-4.6-2-6.6-3.9-4.2-3.9-7.8-13.1-14-4.7-13.3 17.9-4.1 44.9 7 61.7 1.6 2.4 11.5 15.7 13.3 15.7.5-8 1.2-16.5.5-24.5-.4-5.4-3.1-12.3-3.1-18s6-23.3 2.8-26.2ZM1167 1547c1.7.4 2-.5 3-1.5 17.5-18 32.6-50.9 18.4-74.4-6.5-10.8-10.8-.4-16.9 4.9-2 1.7-5 1.6-5.5 4.5-.8 4.5 4 18.3 4 24s-3.3 14.8-3.6 21.2 1.6 14.6.6 21.3m-219.1-51.9c-4.7-3.3-6.5 7.1-7.7 9.6-5.3 11-11.8 23-12.2 35.8-.2 7.6 10.5 26.2 19.1 21 3-1.8 4.7-18 5-22 .4-6.4.2-41.4-4.1-44.4Zm67.8 32.2c-3.2-2.8-9.7 3.2-15.8 1.3-2.1-.7-8.7-7.5-10.5-9.5-2.6-2.9-3.4-8.8-8.2-7.4-12.2 3.5-20.5 24.1-21.2 35.9-.9 13.6 2.4 21.7 11.5 31.5 9.8 10.4 24 15.7 36.1 23h2.3c2.1-6.4 6.2-12 8.1-18.4 3.7-12.2 7.9-47.3-2.3-56.2zm23.4 74.6c1.1.7 3.4 0 4.6-.7 5.6-2.4 20.1-11.1 25.2-14.8 13.4-9.8 21.4-21.7 20.1-38.9-.9-11.9-9.2-33-22-36.1-4.4-1.1-5.5 5-8 8-1.7 1.9-7.3 7.9-9.2 8.8-9.2 4-14.3-9-20 5-5.4 13.2-2.6 37.5 1.5 51.1.7 2.2 7.1 17.1 7.9 17.6ZM885 1559c-3.2-3.3-6.4 8.4-5.8 12.3.7 4.5 5.4 23.4 7 27 1 2.2 6.2 8.5 8.7 6.7 3.4-2.4 3.2-20.7 4-25.4-.5-3.1-8.3-6.1-11-10-2.3-3.5-2.6-10.1-3-10.5Zm32 4c-1.9-2.2-11.8 12.5-12.4 14.1-1.7 4.6-3 25.2-2.4 30.3.9 7.9 5.6 18 11.4 23.6 1.4-8.8 5-18.6 5.5-27.5.8-13.1-3.7-27.1-2-40.5Zm218 68c7.1-5.4 12.1-18.8 11.8-27.5 0-2.6-1.7-5.2-1.8-8-.3-5.4.8-12.5-.5-17.5-.6-2.3-10.4-17.3-12.5-15 1.5 13.8-3.1 28-2 41.5.7 8.7 4.6 17.6 5.1 26.5Zm-35-62c-2.8 14.2-8.1 27.9-9 42.5-.3 5.3-1.4 33.3 3.6 34.4 2.4.6 18.8-13.3 20.9-15.9 8.3-10.5 3.8-32.3-1-44-1.2-2.9-11-19.9-14.5-17m-82 44c-3.5 0-6.1 2.5-9.6 2.9-12.7 1.6-29.1-13.9-41.4-16.9v24.5c0 .6 3.2 8.2 4.1 8.9 6.5 5.2 18.9-.4 24.4 5.6 2.6 2.9 4.3 10.3 10.6 5.5 1.1-.8 11.9-13.1 11.9-14.1v-16.5Zm64-13c-13.2 1.2-27.8 17.6-41.4 15.9-3.5-.4-6.1-3-9.6-2.9v17.5c0 1.1 13 14.6 15.4 14.5 4.9-.3 5.1-4.7 7.1-7 5.5-6 18.3-.4 24.4-5.6 1-.9 4-9.7 4-11v-21.5Z" class="outline" data-original-prefix="outline"/><path id="outline-mouth2" fill="#000000" d="M1122 1332c-.2 0 .2 1.6 0 1.9-1 .8-8.1-5.8-10.2-7.1-10-6.1-19.8-8.3-31.2-9.8-2.9-.4-6.9.7-9.5-.5-1.5-.8-4.5-7.4-6.5-9.5-7.8-8.7-15.6-10.2-25.8-13-1.1-.3-.6-1.9-.7-2 3.1-3.8 16.2-9.3 20.8-9.8 7.9-.9 5.5 4.4 6.5 9.1 2.3 10.7 9.3 19.6 21.3 18.8 5.1-.3 5.6-4 7.9-4.1 1.4 0 6.6 2.9 8.2 3.8 9.4 5.2 15 12.5 19.3 22.2z" class="outline" data-original-prefix="outline"/><path id="outline-mouth1" fill="#000000" d="M1011 1292s.4 1.7-.7 2c-10.2 2.8-17.4 4.1-25.4 12.5-2 2.1-5.6 9.2-7.2 9.9-3.4 1.4-13.5 1-18.1 1.8-12.5 2.1-23.6 8.7-33.1 16.9.2-.9-.5-2.8-.5-3 .7-2.3 8.9-13.5 11-15.5 2.4-2.4 14.7-10.5 17.6-10.4s3 5.1 11.9 3.9c10-1.3 16.2-10.1 17.5-19.6.4-2.6-2.4-6.7 2.8-8.2 3.5-1 21.7 5.6 24.3 9.8Z" class="outline" data-original-prefix="outline"/>
    </g><g class="trait-group" data-category="eyes" id="eyes-starchild">
      <path id="fill-eyes1" fill="#ffffff" d="M1397.8 1136.8c-2 2-9.7 1-13 1.5-7.1 1.1-22.6 6.6-29.5 9.5-3 1.3-12.5 5.7-14.7 7.3-2.8 2.1-.6 13.2 1.3 15.4 2.1 2.4 13.1 3.5 16.6 3.5 16.5 0 61.7-4.5 75.8-11.2 6.5-3.1 14.3-11.3 20.2-15.8 9.6 20.3 19.3 40.7 27.2 61.7 2.4 6.5 7.7 18.1 8.8 24.2 1.9 10.4-6.3 43.1-8.8 55.2-3.3 16-7.3 31.8-10.7 47.8l-8.7-3.2-22.5-62c-2.6-4.4-6.8-6.9-12-5.5-23.6 11.4-47.3 22.9-71.1 33.9-3.4 1.6-7.3 1.3-9.7 4.2l11.1 113.6c-37.1-19.5-70.8-44.8-107.3-65.2-7.2-4-20.6-13.1-28.6-10.3-43.7 30.2-89.6 57-135 84.4l15.9-91.6c0-5.5 1.7-8.3-3.2-11.6-12.9-8.7-52.7-21.8-68.2-22.8-16.2-1.2-27.4 2.2-42.5 6.6-6.8 2-41.1 13.5-43.5 18.5-1 2.2-.6 6.8-.4 9.4l15.9 91.6c-45.4-27.4-91.3-54.3-135-84.4-8-2.8-21.5 6.3-28.6 10.3-36.5 20.4-70.2 45.7-107.3 65.2l11-113.6c-2.4-2.9-6.3-2.7-9.7-4.2-23.8-11-47.4-22.6-71.1-33.9-5.2-1.4-9.4 1.1-12 5.5l-22.5 62-8.7 3.2c-3.4-15.9-7.4-31.8-10.7-47.8-2.6-12.2-10.8-44.9-8.8-55.2 1.1-6.1 6.3-17.7 8.8-24.2 7.9-21 17.7-41.4 27.2-61.7 5.5 4.5 12.6 11.9 18.8 15.2 4.3 2.3 10.7 3.3 15.5 4.5 17 4 57.2 9.5 73.4 6 10.2-2.2 6.6-8.2 8.7-16.6-6.1-1.9-11.4-5.9-17.2-8.3-7.7-3.2-21.4-8-29.5-9.5-9.1-1.7-13.7 3.3-13.3-9.8.6-17.5 13.5-53.6 20.9-70.1 4.5-10.2 31-59 40.8-60 2.8-.3 6.6 2.3 10-.2 1.3-1 3.4-6 5-8 40.8-50.7 92.4-93.8 152-121 81.3-37 208.8-37.5 290-.3 59.1 27 110.6 69.4 151.3 119.7 1.6 2 5.5 8.8 6.4 9.5 3.7 2.7 8.8-.7 12.1.8 4.9 2.2 13.8 14.9 17.3 19.8 15.6 22.1 28.1 50.3 35.7 76.3 1.9 6.7 10.6 37.5 6.3 41.8h-.2Z" class="fill" data-original-prefix="fill"/><path id="fill-eyes6" fill="#ffffff" d="M935.4 1254.4c-4 3.9-18.4 16.2-18.4 20.9 7.6 25 14.5 50.2 20.5 75.6 3.6 15.3 9.2 34.6 11.2 49.8.4 2.8.3 5.5.2 8.2l-124.7-87.8-121.8 74.8c-2-1.2-1.7-3.5-1.6-5.5 8.5-40.5 19.1-80.6 28.9-120.8l-93.9-79.7 133-12.5 49.5-140.5 69.5 135.5c38 4.9 76 11.7 112 25-21.7 18.8-43.9 37.1-64.6 56.9h.2Z" class="fill" data-original-prefix="fill"/><path id="fill-eyes5" fill="#ffffff" d="m1412 1190-93.9 79.7 26.6 108.1c.3 3.2 4.7 17 .8 18.2l-121.8-74.8L1099 1409c0-2.8 0-5.5.2-8.2 2.1-15.1 7.6-34.5 11.2-49.8 6.1-25.9 13.7-51.4 20.3-77.2-1-4.1-23.1-23.9-27.8-28.3-17.8-16.6-36.6-32.1-55-48 36-13.3 73.9-20.1 112-25l69.5-135.5 49.5 140.5 133 12.5z" class="fill" data-original-prefix="fill"/><path id="fill-eyes4" fill="#ffffff" d="M1101.9 1310.9c-3.5 2.5-56.6-18.1-64.9-20.4-11.5-3.2-15.3-3-26.8.2-20.9 5.9-41.7 16.8-63.6 20.4-1.8-.4-6-26.6-7.4-30.5 6-7.7 11.3-11.8 20.1-15.8 11.5-5.3 56.6-22.7 67.1-21.7 9.8.9 63.7 20.6 71.7 26.4 1.3.9 10.6 10.4 10.7 11.2z" class="fill" data-original-prefix="fill"/><path id="fill-eyes3" fill="#ffffff" d="M1452 1162c1.5 1.1 11.9 31 13.3 35.2 4.8 14.9 8.1 30.2 11.5 45.5l-8.8 75.2c-3.6 0-5.3-5.3-6.3-8.2-5.1-15.5-7.4-34-12-50-.8-2.9-4.4-17.1-6.4-17.7-1.1-.4-2.3 0-3.4.4-32 12.5-61.7 30.3-93 44.5-.2-4.3-3.9-7.8 0-11.5 29.8-29.3 58.7-59.3 87-90l-2.3-1.6-34.7-7.9c10.3-1.1 39.2 2.7 46.6-4 1.7-1.5 6.6-11.4 8.4-10.1v.2Z" class="fill" data-original-prefix="fill"/><path id="fill-eyes2" fill="#ffffff" d="m651 1176-34.7 7.9-2.3 1.6c28.3 30.7 57.2 60.7 87 90 3.9 3.8.2 7.2 0 11.5l-73.6-36.9c-3.1-1.4-21-8.7-22.7-8.1-1.9.6-5.5 14.8-6.4 17.7-4.5 16.1-6.9 34.5-12 50-1 2.9-2.7 8.1-6.3 8.2l-8.8-75.2c3.3-15.3 6.7-30.6 11.5-45.5 1.4-4.2 11.8-34.1 13.3-35.2 1.8-1.4 7 9.1 8.9 10.6 7.7 6.2 35.8 2.2 46.1 3.4" class="fill" data-original-prefix="fill"/><g id="shading-eyes" fill="#aaaaaa" opacity="0.5"><path id="shading-eyes8" fill="#aaaaaa" d="M952 1412c-3.4 0-6.9.2-9.9-1.6-29.4-22.9-59.2-45.3-90.1-66.1l.5-7.3c10.1-30.2 20.6-60.2 30.6-90.4 6.9-20.7 12.8-46.5 21-66 1.1-2.6 3.1-8.2 6.4-8.4 4-.2 14.9 2.4 19.8 3.2 16.9 2.8 33.4 6.8 49.8 11.7.6-.5-6.4-12.7-7.4-14.1-17-26.6-32.4-45.3-57.2-64.8-10.3-8.1-21.9-17-32.7-24.3-16.6-11.1-34.7-19.4-51.7-29.8-8.8 19.9-18.2 39.5-27.2 59.3-24.5 54.5-47.9 109.7-69.6 165.4-7.2 18.3-13.2 38.3-20.8 56.2-1 2.4-2.2 5.1-4 7l16.1-71-92.6-76.7v-6.3c38.8-4 77.5-10.4 116.5-13.1 9.3-.6 20.3 3.7 20.5-10l-54.4-14.9c-1.3-.7 0-3.1-2.2-5-6.5-5.3-25.3-13.8-33.7-18.3-5.6-2.9-12.5-2.1-2.8-7.4l15.1-28.9h33l59 34.5 26.1-78.3-84.6-32.7c-1.9-4 2.8-9.6 5.1-12.9 25.7-37.5 68.9-75.6 107.5-99.5 31.7-19.6 67.1-37 103.9-44.6-15.8 14.7-36.6 21.7-53.5 35-22.9 18.1-50.5 53.7-64.7 79.3-2.4 4.4-10.8 19.8-11.4 23.7-2.9 17.9 18.5 42 30.7 53.5 38.6 19.7 77.6 39.1 113.5 63.5 14.2 19.2 24.9 49.2 40 66.9 6.4 7.4 14 4.9 18.4 8.6 4.6 3.9 4.1 16.1 8.6 16.5 4.2.4 3.6-4.8 5-8 6.1-14.4 8.5-7.4 18.7-13.3 12.1-7 33-58.2 44.2-70.8 16.3-11.4 33.5-21.5 50.9-31.1 18-10 47.2-21.4 62.6-32.4s35.4-40.1 27.9-59.8c-10.7-28.2-48.8-76.6-72.4-95.6-17.4-14-38.3-20.9-54.5-36 29.4 5.8 57.6 18.5 83.7 32.8 47.9 26.3 95.2 65.5 126.7 110.3 2.5 3.5 9 10.9 5.3 14.7-3.2 3.3-24.9 8.2-31 10.5-7.8 2.9-15.1 7.2-22.8 10.2-10.2 4-21.1 6.6-31.1 11.2-15 31.6-29.2 63.6-43.1 95.6-25.6 59-48.1 122.9-75.6 180.4-1.6 3.3-2.9 6.8-5.7 9.3l5.6-25.4c1.3-5 9.2-29 8.5-31.6-.4-1.5-9-10.5-10.3-10.8-2.1-.6-9.2 3.8-11.3 5.4-.5 2 5.7 5.6 6.5 7.5 2.7 6.3-6 29-6.6 36.9-3.3.5-6.5 0-9.7-.6-5.1-.9-45.4-13.2-46.7-15.3-.5-.7-.6-1.4-.3-2.3l16.8-42.3c0-3.6-13.8-6.1-17-7.4-2.4 5.5-16.1 44.5-18.1 45.9-.5.4-10.3-1.7-12.9 0l20-48.6c0-2.3-6.6-10.7-8.7-11.2h-8.5c-2.8.7-6.3 7.6-9.4 9.7-5.5 3.7-14.4 4.3-20.3 7.7l-28.8 61.5c-6 1.6-11.8 3.9-18.2 2.9-.6-7.9-9.3-30.6-6.6-36.9.9-2.1 7.7-5.5 6-8.1-.7-1-9.5-5.2-10.8-4.8-1.3.3-9.9 9.3-10.3 10.8-.7 2.7 7.2 26.6 8.5 31.6 7.9 30.2 14.6 60.6 22.1 90.9v14.5h.1Zm262-355c-28.9 12.4-55.2 30.3-79.9 49.6-25.3 19.8-38.2 35.3-55.9 62.1-1.4 2.1-11.2 17.3-10.2 18.3 28.9-8.9 59.1-13.1 89-17.5 19.5-37.2 38.7-74.7 57-112.5m-133 175-32.7-28.9c-3.2-.8-5.2 3.1-7.4 4.3-6.3 3.5-11.4.5-17.4.5s-9.6 2.6-15.2.3c-2.2-.9-5.4-5.2-7.8-5.2s-29.8 25.2-33.5 29c2.1.2 4.1 0 6.2-.3 10.1-1.2 31.8-9.3 39.3-8.8 3.3.2 5.7 3.1 11 3.2 5.9 0 6.5-2.1 10.3-2.9 4.5-.9 20.2 4.3 26.1 5.5 7 1.5 14.1 3.3 21.1 3.3" class="outline shading" data-original-prefix="shading" opacity="0.5" style="opacity: 0.5"/><path id="shading-eyes7" fill="#aaaaaa" d="M1376 1124c-.3.4-7.4 2.6-9 3.5-8.1 4.2-26.1 12.6-32.3 17.7-2.4 1.9-.9 4.2-2.2 5l-54.4 14.9c0 14.1 12.9 9.1 22.4 10.1 1.2 0 6.3.4 5.6 2.3-21.5 51.2-41 103.2-61.1 154.9-.7 1.3-1.2 3.7-3.2 3.5-3.6-.3-14-10-18-9.7-3.2.3-25.4 18.2-26.7 16.8.4-6 2.1-11.8 4-17.5 18.3-55.7 43.5-114.3 64.3-169.7 1-2.7 4.2-7.7 4.6-9.5 1.2-5.8-6.6-18.7-4.6-22.1 17.9-9 35.3-22.8 53.1-31.4 3.2-1.5 4.4-2.5 8.1-2.9 9.1-.9 20.3.3 29.6.5 2.2 1.4 11 23.6 14.1 27.9 1.6 2.1 7.2 3.8 5.8 5.6h-.1Z" class="outline shading" data-original-prefix="shading" opacity="0.5" style="opacity: 0.5"/><path id="shading-eyes6" fill="#aaaaaa" d="M1348.9 1398.9c-1.2.7-7.1.2-8.8-.4l-75-48.1 59.5-173.3 88.8 10c2.5.8 2.3 6.7.6 8.3l-91.8 76.1 27.8 115.8c0 2.1.2 10.5-1.2 11.4v.2Z" class="outline shading" data-original-prefix="shading" opacity="0.5" style="opacity: 0.5"/><path id="shading-eyes5" fill="#aaaaaa" d="M1471 1321c-5.7.9-9.1-.9-11.4-6.1-5.5-12.6-8.7-37.7-12.7-52.3-.6-2.3-4.2-16.1-4.9-16.6-.5-.4-3.5 1.5-4 1l23-71 8.5 23 9.5 37.5c.3 28.3-6.3 56.2-8 84.5" class="outline shading" data-original-prefix="shading" opacity="0.5" style="opacity: 0.5"/><path id="shading-eyes4" fill="#aaaaaa" d="M703.9 1288.9c-.9.6-6.7.3-8.1 0l-53.3-26.8 8.6-43 52.4 53.1c3.6 2.4 2.8 15.3.4 16.7" class="outline shading" data-original-prefix="shading" opacity="0.5" style="opacity: 0.5"/><path id="shading-eyes3" fill="#aaaaaa" d="M600.8 1159.2c.3.2 2.5 4.8 3.3 6.2 1.5 2.4 4.7 3.6 3.7 6.9l-33.1 90-3.7 7.7c.2-5.4-1.7-11.2-2-16.5-1.8-32.1 13.5-64.8 24.1-94.4.3-.3 7.1-.4 7.7 0Z" class="outline shading" data-original-prefix="shading" opacity="0.5" style="opacity: 0.5"/><path id="shading-eyes2" fill="#aaaaaa" d="M1344.2 1288.8c-2.3-1.4-2.4-10.1-1.7-12.9 2.2-8.3 29-28.5 35-36.9l-13.1 42.9c-3.6 3-16.1 9.4-20.2 6.9" class="outline shading" data-original-prefix="shading" opacity="0.5" style="opacity: 0.5"/><path id="shading-eyes1" fill="#aaaaaa" d="M827.9 1326.9c-4.2-1.3-5.4-.2-8.9 1.5-12.4 6.1-23.6 15.8-36 22 24.4-46.5 45.1-95.1 65.5-143.5 7.1-17 15.2-44.4 23.8-59.2 1.1-1.9 2.7-3.2 4.2-4.7 2.9 6.7 14.3 21.5 13.3 28.2-20.2 52-41.7 103.6-61.9 155.7" class="outline shading" data-original-prefix="shading" opacity="0.5" style="opacity: 0.5"/></g><g id="outline-eyes" fill="#000000"><path id="outline-eyes2" fill="#000000" d="M705 1154c.3-1.7 2-11.9 2.6-12.1 16 .9 31.1 7 46.2 11.9.8.2 1.6.2 2.3-.3 1.6-1.1 11.6-30.8 13.5-35.6 11.8-29.2 24-61.4 37.3-89.7 2.8-6 5.4-14.6 13.1-15.3l27 46.6c13.5 3.6 23.7 12.9 35.4 19.6 19 10.8 40.8 19.3 59.7 30.3 11.1 6.5 13.7 12.6 19.2 23.8 6.6 13.8 11.8 29.1 17 43.4l41.8 15.2-41 45.5 15-4.5-12 11c6.7-3.3 23.4-6.7 28.5-11s7.4-20.7 6.5-27c2.8-.4 4.7 2.1 7.5 2.1s4-1.8 6-2.1c3-.5.4 4.3.5 6.5 0 2.9 5.5 19.8 7.3 21.3l28.7 10.2-10-9 11 1.5-40-44.5 42.5-16c6-13.6 10.3-27.9 16.7-41.3 3.3-7.1 8.7-18.5 14.9-23.1 9.1-6.7 30.7-16.1 41.9-22.1 19-10.1 38.2-19.7 57.1-29.9l27.5-46.6c7.2 1.2 9.8 9.4 12.6 15.4 13.3 28.3 25.5 60.5 37.3 89.7 4.7 11.5 8.7 23.4 13 35 1 1.4 2.3 1 3.8.8 6.9-.9 18.8-6.6 26.5-8.5 6.4-1.6 12.9-3.3 19.7-3.3.7 4 1.9 8.1 2.6 12 .6 3.1-.2 12.5 3.7 13.8 1.3.4 9.1 1.3 10.8 1.3 16 0 58.4-4.6 72.5-10.6 5.8-2.4 21.9-18.9 25.5-18.6.8 0 1.5.4 2 1.1 10.5 24.8 22.5 49.1 31.5 74.5 1.8 5 6.4 15.7 6.7 20.3.6 9.9-6.7 38-9.1 49.4-3.8 18.9-8.5 37.6-12.6 56.4-3.1 2.2-14.4-2.6-17.1-5.3l-24.6-65.4-2.6-.7-79.6 37.3 12.8 113.1c0 3.1-2 4.9-5 3.9-4.1-1.3-15.6-9.1-20.3-11.8-31.6-18.4-62.1-40.4-94-58-6.2-3.4-12.2-7.4-19.2-8.7-45.9 31-93.3 59.6-140.7 88.1l-3.7.8 18-107c-9.4-3.2-17.9-8.6-27.5-12.1-10.3-3.7-32.8-10.9-43.2-11.8-14.5-1.3-52.9 11.3-66.8 18-4.1 2-7.8 5.7-12.6 5.9l17.9 99.6c-.2 1.8 1.6 7.8-1.4 7.4l-143-88.9c-7 1.3-13.1 5.3-19.2 8.7-31.9 17.6-62.4 39.6-94 58-4.7 2.8-16.2 10.4-20.3 11.8-3 1-5.1-.8-5-3.9l12.8-113.1-79.5-37.3-2.6.7-24.6 65.4c-2.7 2.7-14 7.5-17.1 5.3-4.1-18.8-8.8-37.5-12.6-56.4-2.3-11.4-9.7-39.5-9.1-49.4.3-4.6 5-15.2 6.7-20.3 9-25.4 21-49.7 31.5-74.5 1.2-1.4 3-1.4 4.5-.5 6.6 4.7 15.8 14.9 23 18 6.7 2.9 26.6 6.4 34.5 7.5 11.9 1.6 37.9 4.1 48.8 1.8 5.3-1.2 4-9.5 4.7-13.7zm230.4 100.4c20.7-19.8 42.9-38.2 64.6-56.9-36-13.3-74-20.1-112-25L818.5 1037 769 1177.5 636 1190l93.9 79.7c-9.8 40.2-20.4 80.3-28.9 120.8 0 2-.3 4.3 1.6 5.5l121.8-74.8 124.7 87.8c0-2.8 0-5.5-.2-8.2-2.1-15.1-7.6-34.5-11.2-49.8-6-25.4-12.9-50.6-20.5-75.6 0-4.7 14.3-17.1 18.4-20.9h-.2ZM1412 1190l-133-12.5-49.5-140.5-69.5 135.5c-38 4.9-76 11.7-112 25 18.4 15.9 37.2 31.4 55 48 4.8 4.4 26.8 24.2 27.8 28.3-6.7 25.8-14.2 51.3-20.3 77.2-3.6 15.3-9.2 34.6-11.2 49.8-.4 2.8-.3 5.5-.2 8.2l124.7-87.8 121.8 74.8c3.9-1.2-.5-15-.8-18.2l-26.6-108.1 93.9-79.7zm-442.6-17.3c-9.6-13.8-18.1-28.8-29.4-41.2l-42.7-34.3L850 1065c4.5 9.4 9.7 18.6 14.8 27.7 11.2 20 23.2 39.5 34.6 59.4 23.7 6.4 47.1 13.8 70.3 21.8zm109.6.3 69.6-20.9 49.4-86.6c-33.1 21.6-66 44.1-94.4 71.6zm-428 3c-10.3-1.2-38.4 2.7-46.1-3.4-1.8-1.5-7.1-11.9-8.9-10.6-1.5 1.1-11.9 31-13.3 35.2-4.8 14.9-8.1 30.2-11.5 45.5l8.8 75.2c3.6 0 5.3-5.3 6.3-8.2 5.1-15.5 7.4-34 12-50 .8-2.9 4.4-17.1 6.4-17.7 1.8-.6 19.6 6.7 22.7 8.1L701 1287c.2-4.3 3.9-7.8 0-11.5-29.8-29.3-58.7-59.3-87-90l2.3-1.6zm801-14c-1.8-1.3-6.8 8.5-8.4 10.1-7.3 6.7-36.3 2.9-46.6 4l34.7 7.9 2.3 1.6c-28.3 30.7-57.2 60.7-87 90-3.9 3.8-.2 7.2 0 11.5 31.3-14.2 61-32 93-44.5 1-.4 2.3-.8 3.4-.4 1.9.6 5.5 14.8 6.4 17.7 4.6 16.1 6.9 34.5 12 50 .9 2.9 2.7 8.1 6.3 8.2l8.8-75.2c-3.3-15.3-6.7-30.6-11.5-45.5-1.4-4.2-11.8-34.1-13.3-35.2v-.2Zm-350.1 148.9 6.9-30.3c-.2-.8-9.5-10.3-10.7-11.2-8-5.7-61.9-25.4-71.7-26.4-10.4-1-55.5 16.4-67.1 21.7-8.8 4.1-14.1 8.1-20.1 15.8 1.5 3.8 5.6 30.1 7.4 30.5 21.9-3.6 42.7-14.4 63.6-20.4 11.5-3.2 15.2-3.4 26.8-.2 8.3 2.3 61.4 22.9 64.9 20.5" class="outline" data-original-prefix="outline"/><path id="outline-eyes1" fill="#000000" d="M695 1149c-.5 3.2-1.4 5.1-5.4 4.7-3.2-.3-15.3-6.8-20.6-8.2-6.6-1.8-12.7-2.4-19.3-3.7-9-4.4-3-24.7-1.2-32.8 5.9-27.1 17.7-57.2 32.1-80.9 4.4-7.3 22.4-34.6 30.1-35.8 1.9-.3 5.9 2.7 7.2 1.7.3-.2.5-2.3 1.2-3.3 39.2-53 103.3-104.3 164.2-129.8s154.1-29.8 220.9-17.5c88.6 16.3 169.9 76.6 224.3 146.7.9 1.1 1.4 3.8 1.6 3.9 1.1.8 4.7-2.5 9.2-.7 10.6 4 28.1 32.6 33.9 43.1 9 16.4 17.2 36.5 22.5 54.5 2.8 9.6 10.8 38.7 7.5 47-2.6 6.6-9.8 4.4-14.6 5.4-10.5 2.1-20.7 5.9-30.3 10.7-4-.3-3.8-1.8-4.3-4.8-1-5-.9-10.9-1.6-16 7.3-4.7 15.2-8.3 23.4-11.1 1.2-15.8-7.3-32.2-14-46.2-3.5-7.3-7.7-15.2-11.7-22.3-2.6-4.6-12.2-22.3-15.1-24.9-1.4-1.2-1.7-1.3-3.5-1.5-4.7-.6-14.1-.2-19.1 0-16.1.8-32 3.5-47.5 8 11.2-12.3 27.1-20.9 42-28.1-3.7-19.6-19.7-36.2-34-49.5-46.6-43.4-138.5-93.1-201.7-101.3-80.3-10.4-144.1 5.6-214 43.7-32.5 17.7-93.8 58.5-110.9 91.1-1.5 3-6.6 13.3-4.5 15.5 9 5.4 19.4 10 28 16.1 1.2.9 14.6 11.2 13.1 12.4-21.8-6.9-45.1-8.9-68-7.5-3.8 1.8-26 44.1-29.2 50.8-4.8 10.3-15.4 32.2-12.9 43l22.9 10.8c.5 5.6 0 11.3-.7 16.8" class="outline" data-original-prefix="outline"/></g>
    </g><g class="trait-group" data-category="right ear" id="right ear-battle scars">
      <path id="fill-ear-rt" fill="#ffffff" d="M1711.8 182.1c1.9-.3 12.9 5.8 12.3 9.3l-7.1 128c-11.3 41.5-31.3 85.9-40.4 127.5-4.1 18.5-3.8 39.5-6.6 58.4-.2.8-.7 1.3-1.5 1.6-3.4 1.1-49-18.4-56.8-20.9-3.8-1.2-11.7-4.6-15.1-2.1-.5.4-5.2 8.2-5.3 8.8-.2 2.1 17.9 16.1 20.9 18.8 2.1 2 12.8 12.1 13.5 13.5 1.6 3.5.2 16.4.5 21.5.4 6.7.9 12.6 5 18 5.9 7.7 20.9 15.3 17.2 26.2-13.8 29.6-30.1 57.4-46.4 85.6-10.1 17.4-14.5 29.1-28.3 44.7-18.1 20.4-37.8 39.6-56.6 59.4l-98.9 53.1c-11 23.9-19.3 49.1-29.6 73.4l-92.6 78.5c-5.1 5.1-13.5.6-19.4-1.4-25.1-8.4-50.8-25.1-71.4-41.6-4.9-3.9-14.1-10.7-17.5-15.5-13.1-18.4-20.9-41.3-13.6-63.5 16.8-50.7 49.3-97.5 68.2-147.8 9.2-24.4 7.9-72.1 10.9-100.1 4.3-38.9 11.1-77.8 16.4-116.5l98.4-116.6 142.4-103.6z" class="fill" data-original-prefix="fill"/><path id="shading-ear-rt" fill="#aaaaaa" d="M1599 504.5c0 .5 1.6 1.4 2 2l-1.5.5c-11.4-10.3-23.7-19.4-37-26.9 2.9-11.5.3-23.1.5-34.6.1-10 6.8-25.9-6.9-29.5-.1 3.6-4 8.3-3.9 11.5 0 2.7 3.4 4.9 3.9 9 1.9 16.2-1.6 35.4-.8 51.8 1.7 10 14.9 14.3 22.3 19.7.6 9.7 4.3 21 4.5 30.5.4 13.2-15.2 34.4-17.3 48.8-.3 2.3.5 4.5.3 6.8 12.5-2.5 20.8-17.9 27.4-28.1 4.2-6.5 8.7-13.9 11.6-20.9 1.4.1 1.6 1.5 2 2.5 6.8 15 5 18.4-.3 32.8-12.6 34.1-31.8 70.9-51.7 101.3-15.4 23.6-23.1 31.8-47.1 46.9-29.3 18.5-61.8 33.1-96.9 36.1-9.9 13.4-11.6 31.3-12 47.5 60.5-12.3 110.8-49.8 157.5-88 2.2-1.8 11-10.5 12-11 1.2-.5 1.9.3 1.5 1.5-.6 1.6-10.5 13.3-12.5 15.5-39.7 44.6-83.4 59.4-130.8 91.2-1.9 1.3-8.9 5.9-9.8 7.3-.8 1.2-.3 8.4-1.2 11.8-1.4 5.5-5 11.6-6.7 17.3-3.5 12.1-6.4 42-14 50-1.1 1.1-2.9 1.8-4.1 3-25.2 25.5-52.1 49.3-77.4 74.6l-2.1.9c-16.9-4.5-37.5-4.8-53.9-10-17.7-5.6-57.5-34.9-67.4-50.6-4.1-6.5-7.5-10.1-5.5-18.1 2.3-9.3 35.9-44.2 44.3-54.7 68-84.5 112.9-185.4 139-290.5 1.5-.4 1.7.4 2.5 1 5.5 3.8 10.5 12.2 16.5 16-1-12.4-13.2-22.4-22-30.5-1.8-1.7-12.3-11.1-13.5-11.1l-93.5 64.7.9-12.3c2.8-.8 12.2-9.1 13.1-11.2.7-1.8-6.5-3.8-7.5-5.5l-7.3-4.7c1.2-7.4 0-15.5.8-22.8 1.5-13.2 15.9 1.6 21.7 5.3 3.3 2.1 13 8.8 16.3 7.8l22.4-13.7 24.1-42.9c12-8.8 13.1 0 18.9 7 7.3 8.8 19.1 16.3 26.6 25.4l65.9 13.1c2.2-1.1 14-25.1 15.9-29.2 8.8-19.7 7-29.3 9.2-49.9.8-7.3 1.6-14.8 2.9-22.1 21.8-35.3 43.5-70.9 70.5-102.5 28.3-33 60.7-53 97.2-75.8 1.3-.9 10.4-5.9 11.1-6 3.5-.5 11.5 10.6 14.8 12.9v1.1c-6 15-18 25.2-27.5 37.5-15.8 20.5-31.2 48.3-42.2 71.8-4.1 8.7-12.4 25.9-14.3 34.7-2.3 10.1 6.5 31.6 8.5 42.5l69.3 19.6c4 2.4-.3 9 .7 12.8-4.1 0-8.2.2-12.2-.3-4.9-.6-44.2-8.6-46.2-9.8-1.1-.6-1.2-2.2-2.3-2.9-2.4-1.3-6.5-1-9.2-1 1 6.7-1.4 17.4 0 23.5ZM1329 776h16.5c.4 0 2.3 1 2.5 1.8l9 36.6-26.8 49.9 4.4 5.7 27.5-41c0 1 1.6 7.9 3 7 0-3 4.2-5.6 4.8-7.7 1.6-5.6-6.3-30.1-8.5-37.1-1.3-3.9-4.8-16.5-7.2-18.8-2.1-2-16.6-4-19.6-3.5-1.9.4-6.3 6.3-5.5 7Zm-7.9 188.9c2.2 1.5 9.2-6.1 10-8.5l-6.5-41.5c-8.1-22.6-19.3-45.8-31.4-66.6-1.4-2.4-3-5.7-5.2-7.3l-5.9 13.3c7.1 13.7 19.3 26.2 22.4 41.7.3 1.5.7 2.9.5 4.5-.9 5.1-19.4 24.3-23.4 29.6L1272 966l41.5-38zM1375 911l6.6-9.5c-2.1-7.7-6-16.6-7.4-24.2-1.4-7.7-.6-17.4-3.8-25.2l-4.6 8.4 9.1 50.5Z" class="outline shading" data-original-prefix="shading" opacity="0.5" style="opacity: 0.5"/><path id="outline-ear-rt" fill="#000000" d="M1204 942c-4.2-.7-8.9-3.7-12.7-5.8-19.7-11.4-30-35.7-43.8-53.2-1-2.9-.7-7.3-.5-10.5 1.2-23.6 12.9-37.4 22.2-57.8 5.6-12.4 10.8-31.7 17.6-42.4 2.6-4 7.1-7.8 10-12 38.3-55 42.6-150 46.2-215.8.4-6.6.3-23.8 2.6-28.4 42.9-62.2 88.8-122.3 141.4-176.6 18.3-18.9 33.3-29.6 55.1-43.9 73-47.8 153.8-87.8 236.9-115.1 12-3.9 31.6-10.1 43.8-11.3 6.6-.6 7 0 8.7 5.7 8.6 28.2 2.7 75.6.4 105.5-1.2 16.8-1.1 48.6-7.5 63.5-1.4 3.3-7.7 8.9-10.3 12.7-12.7 18-18.2 41.5-21.9 63.1-2.9 16.7-5.6 39-4.3 55.8.7 8.6 6.2 16.7 6.1 24 0 7.3-4.1 16.3-5.1 23.5-23.2-9.5-47.1-16.6-72-20 2.6 4.6 17.7 13.8 18.8 17.7.8 2.6-.9 4.6-.8 6.8.3 5.9 2.8 28.5 5.1 32.9 1.3 2.5 10.2 10.6 12.9 13.1 2.7 2.6 16 12.8 16 15 0 2.4-9.9 24.1-11.8 28.2-38.7 86.3-81.2 144.4-162.7 194.3-12.3 7.5-25.2 12.8-37.2 19.8-24.8 14.6-38 54.9-48.8 80.2-6.7 15.7-20.4 20.9-32.5 31.5-14.9 13.1-28.1 28.9-42.4 42.6-21 20-57.1 3.6-79.6-6.5-6-2.7-9.7-4.2-13-9.5 7 .5 13 4.1 19.8 5.7 19.2 4.6 30.1 2.7 47.2-6.2 2.7-1.4 17.2-10.3 17.8-12.2-.4-11.3 1.1-23.7.2-34.9-1.1-14.1-12.9-36.3-19.5-49.5-2-3.9-16.2-31.9-18-32-13.4 22.8-27.1 46.5-35 72-3.4 11-6.9 23.7-5.2 35.2.7 5.1 3.8 9.7 4.7 14.8-1.7 1.6-17.8-11.5-20-13.5-4.4-4-9.2-7.6-9.1-14 .1-5.5 2.1-26 4.2-29.8 2.6-4.7 9.2-11.4 12.7-16.3 42.5-61.5 61.2-130.5 109.2-188.8 7.6-9.2 15.4-19.8 20.2-30.8 8.2-18.7 19.6-72.5 16.6-91.9-2.4-15.8-26.1-29.3-36.3-40.7-8.8 19.2-17 34.5-36.6 44.3-13.2 6.6-22.1 5.7-35.1 8.9-8.2 2-15.2 10.1-21.6 15.5-.7 10-2.3 19.9-3.2 29.8-1.9 22.5-1.6 46.7-5.1 68.9-3.1 19.4-25.6 63.3-35 83-14.2 29.4-31.4 55.9-39.8 88.2-2.7 21.7 14.3 52.9 29.9 67.4Zm514-753c-2-2-47.8 16.6-53.3 19.1-68.3 30.5-139.4 73.9-202.2 114.8-52.8 34.5-93.3 70-133.4 118.5-17.4 21.1-39.2 47.3-54.4 69.6-8.3 12.1-10.4 25.6-12.2 40 3.6 1.4 7.4 2.5 10.9 4.1 5.8 2.7 18.7 11.4 23.9 10.7 20-2.7 33.2-23.1 41.9-39.1 1.5-2.8 5.6-13.8 6.1-14.4 1.8-2.1 5.8-.9 8 0 7.4 3.1 20.5 23.4 27.8 30.2 15.8 15 36 25.7 53 39 4 12.5 8.9 24.9 12.5 37.5 2.2 7.8 5.6 31.3 10 36 12.5 13.5 30.2-11.7 35.7-21.4 33.7-58.5 35.6-122.7 20-187.2 22.7-73.6 76.6-122.2 130.4-173.4 5.9-4.6 13.1-6.7 19.4-10.6 11-6.8 19-19 32.1-22.4l-21.2 37.3c-5.8 7.2-14.8 10.5-22.2 15.9-33.3 24.1-60.4 53.8-79.9 90.1-1.4 2.6-8.8 16.7-8.8 18.2 0 3.5 13.2 8.9 14.8 13.2 2.1 17.7 1.2 36 5.7 53.3 1.3 5.1 2 9.5 8.1 10.9 7.5 1.7 17.7 1.9 25.7 3.4 16.7 3 33.1 7.2 49.8 9.7 1.8-18.7.9-37.8 3-56.5 2.7-23.8 11.5-60.6 20-83 6.8-18 16.8-28.7 20.7-48.3 7.5-37.2 11.2-77.4 8.3-115.2Zm-75.2 392.2c-8-6.2-17.7-13.9-18.8-24.7-.6-5.8 0-26.6-2.1-29.9-18.1-17.7-37.4-33.7-58.8-47.3 1.7-13.2.6-26.6.8-39.9.2-10.2 4.9-20.1-7.9-25.5-10.1 33.1-20.7 79-6.5 112 1.2 2.9 6.7 10.6 6.3 12.3-21.1 26.6-32.9 59-41.6 91.5-2.4 8.9-8.5 47.6-11.4 51.6-2.7 3.7-14.2 13.2-18.4 16.6-13.4 10.9-30.6 22-45.8 30.2-2.5 1.4-16.2 9.2-17.7 7.8 3.5-7.6 7.8-14.9 10.8-22.7 8-21.6 9.7-46.5.4-67.9-4.5-10.3-19.2-36.8-31-19.7-7.5 11-16 48.1-17.2 61.8-.5 5.9 1 14.3-.4 19.6-.8 2.7-14.5 12-14.6 15.4 5.2 11.5 11.1 23.1 19 33 1.9 2.3 7.7 6.6 8 9-2.9 11.6-6.2 23.2-7.9 35.1-2.7 19.7-1.9 45.1 2.1 64.6 1.1 5.3 3.6 11.1 6.2 15.8 4.2-8 7.9-16.3 11.2-24.8 1.9-4.8 7.1-16.1 7.8-20.2s-2.2-4.7 2.4-9.5c5.5-5.8 29.5-19.4 37.7-24.3 18-10.7 37.3-19.4 54.6-31.4 49.8-34.7 117.1-125 132-184 .3-1.3 1.3-3.3.5-4.6ZM1277 572l-16-9-3 28c1.7.5 2-.7 3-1.5 1.8-1.4 16.7-16.5 16-17.5m100 227c.6-8 2.7-15.3 1.9-23.4-1.3-13-12.8-29.9-23.2-37.5-1.1.2-13.4 15.4-14.1 17-.6 1.3-.7 2.5-.6 4 5.5 1.1 20.8-.5 24 3.5 5.1 6.3 7.4 26.5 9.9 35.1.4 1.5-.6 1.8 2 1.5Zm-43.3-30.9c-2.2.6-23.3 32.3-26.1 36.9-2 3.2-11.6 19.1-11.5 21.4l36.5 56.5 2.9-2.1 34-51c.4-2.2 1.3-5.2 1.2-7.3-.3-6.2-7.1-26.3-9.4-33.4-1.4-4.4-4.7-17.7-9-19-1.6-.5-17.7-2.3-18.6-2.1ZM1340 946c1.7.5 2-.7 3-1.5 7.1-5.5 26-24 32-31 3-3.4 5.2-7.5 7.8-11.2-7.5-17.2-9.7-35.7-10.8-54.3-1.2 0-1.6 1.4-2.2 2.3-10.4 16.4-20.2 35.2-28.1 52.9z" class="outline" data-original-prefix="outline"/>
    </g><g class="trait-group" data-category="left ear" id="left ear-robo">
      <path id="fill-ear-lft3" fill="#ffffff" d="M570 663c30.7-2.3 65-.8 92.7 13.8 19 10.1 47.5 28.1 59.5 45.5 28.1 40.4 54.9 112.1 71.8 159.2 4.9 13.7 18.7 48.9 16.7 61.8-4.1 27-52.7 38.8-73.5 24.5-66.3-95.2-146-190.2-258.2-231.3-74.9-128.8-125.1-279.4-146.9-427.1-5.3-35.8-9.6-72.1-9.2-108.3 5.5 4.3 9.9 9.8 15 14.5 28.6 26.4 60.4 52.7 87 81 18.7 19.8 26 39.1 36.4 63.6 41.9 98.6 78.9 194.5 108.1 297.9.5 1.7.5 3.3.5 5h.1Z" class="fill" data-original-prefix="fill"/><path id="fill-ear-lft2" fill="#ffffff" d="M647.7 372.1c1.9-.3 8.3 5.6 10.3 7.4 37.4 33.1 77.7 78.5 106.8 119.2 9.4 13.1 41.1 59.8 40.8 73.7 0 4.9-3.4 12.8-4.3 18.5-7 41.8-3.8 106.1 10 146.5 4.7 13.8 12.8 26.5 18.2 39.8s9.4 27.5 15 41c9.9 23.6 22 46.3 32.6 69.5 0 3.7-1.8 6.7-3.2 9.9-3.6 7.7-17.2 34.9-21.9 40.1-2.9 3.2-11.8 9.8-15.7 12.3-7.4 4.8-16.4 8.3-23.8 13.2l25.1-40c.9-3.2-6.4-20.6-8.1-25-17.9-44.5-42.2-92.2-63.6-135.4-9.3-18.7-24.7-55.8-39.9-68.1-6.9-5.6-16-9.6-23.4-14.6-16.3-11-32.1-22.8-48.8-33.2-15.6-3.3-49.2 4.2-60.7-8.3-3.6-3.9-9.1-16.2-11.5-21.5-8.5-19-15-39.8-22.8-59.2-13.1-32.5-26.6-64.9-39.6-97.5-.3-2.7 5-6.3 7.4-8.2 14.7-12.2 33.3-25 49.2-35.8q34.8-24 72-44.1v-.2Zm.1 12.1c-7.6.4-18.4 7-20.3 14.7-4.1 16 9.4 23.2 23.2 18.2 19.3-7 17.5-34-2.9-33Zm115.9 335c-14.2 2.4-10.1 26.4 1.3 31.3 26.3 11.2 27-36-1.3-31.3m53 82.1c-12.9-11-27.5 1.3-22.1 16.6 1.8 5.3 5 11.4 10.5 13.5 16.3 6.3 26.1-10.2 17.4-23.4-.5-.7-5.2-6.2-5.8-6.7m24 72.9c-11.1 2.3-9.9 16.7-5.9 24.5 5.3 10.3 20.4 15.4 27.7 4.2 8.6-13.2-6.5-31.9-21.7-28.7Z" class="fill" data-original-prefix="fill"/><path id="fill-ear-lft1" fill="#ffffff" d="M631.9 358.9c-34.3 21.6-67.6 45-99.8 69.7-5.7 4.4-11.9 10.5-17.6 14.4-.8.6-1 1.4-2.5 1-16.9-38.3-28.9-79.7-45.5-118-11.5-26.4-24-36.6-44.5-55.5-31.3-28.9-64.1-56.3-96-84.5 44.5 13.2 88.6 29.1 130.7 48.8 63.3 29.7 119.8 77.5 174.4 120.6zm-108.1 36.3c-25.4 2-19.5 44.4 6.1 28.2 14.1-8.9 10.3-29.5-6.1-28.2" class="fill" data-original-prefix="fill"/><path id="fill-ear-lft-rivet5" fill="#ffffff" d="M841.2 881.2c2.8-3.5 11.9 1.1 12.7 6.3 2.4 15.4-14.9 12.3-14.6 1.1 0-.9 1.6-7 1.9-7.4" class="fill" data-original-prefix="fill"/><path id="fill-ear-lft-rivet4" fill="#ffffff" d="M807.8 805.2c7.9-1.2 13.7 8.2 8.1 14.2-9.1 9.7-23.6-11.9-8.1-14.2" class="fill" data-original-prefix="fill"/><path id="fill-ear-lft-rivet3" fill="#ffffff" d="M775.7 740.7c-7.3 5.9-18.9-8.3-11.3-13.8 6.9-4.9 18.2 8.2 11.3 13.8" class="fill" data-original-prefix="fill"/><path id="fill-ear-lft-rivet2" fill="#ffffff" d="M642.7 396.2c9.6-2.9 13 8.7 4.3 11.3-13.4 4.1-9.8-9.7-4.3-11.3" class="fill" data-original-prefix="fill"/><path id="fill-ear-lft-rivet1" fill="#ffffff" d="M526.8 407.2c5.3 5.4-3.2 15.1-9.5 8.5-5.2-5.4 4.6-13.4 9.5-8.5" class="fill" data-original-prefix="fill"/><path id="shading-ear-lft" fill="#aaaaaa" d="M520.2 411.8c1 1 10.3 2.4 11.7 1.8 2.9-1.2 11.2-8.9 14.8-11.3 20.7-14.6 42.5-30.6 63.6-44.4 3.4-2.2 14.8-10.5 18-9.6 1.7.5 3.9 4 5.8 5.3 5.6 3.8 11.8 7.1 17.9 10.1-9.7 6.7-20.6 11.3-30.7 17.3-23.1 13.7-44.1 30.5-65.8 46.2-1 1-2.2 1.3-1 3 .5.8 9.5 5.2 11.4 6.6 9.3 6.3 18.7 14.4 27.6 21.4 64.9 51.8 125.8 108.5 191 160l13.5-72c3.7 4.8 9.3 14.3 10 20.5 1.2 10.6-2.4 17.3-3.9 27.1-6.6 44.4-3.3 107.4 13.4 149.3 4 10 9.9 19.2 14 29 6.2 15.1 10.8 31.3 17.3 46.7 9.6 22.6 21.7 44.1 31.2 66.8 0 2.9.2 5.7-.5 8.6-1.1 4.1-19.5 39.4-22.5 43.5s-11.6 10.9-16.1 13.9c-18.5 12.7-39.4 20.8-61.7 24.3-11.4 1.8-33.6 2.8-43.2-4.3-68.4-94.4-146-191.3-259.8-231.7-53.4-90.2-90.6-189.4-118-290.5-16.9-62.3-30.7-130.3-36.3-194.7-.6-6.8-4.1-53.6-2-55.5.3-.3 2.7.4 3.8-.2 1.3-.8.3-4.3 5.5-3.6 11.1 4.8 23.9 7.5 34.3 13.8 39.3 23.7 76 63.2 111.5 92.5l43.5 98.5c1.2 3.1-.6 9.5 1.7 11.8zm-166.9-64.1L454 420.5c-6.8-18-11-35.7-23-51-10.7-13.6-27.7-29.3-40.5-41.5-14.6-14-30.3-27-45-41-2.3-.4-1.4.8-1.2 2.2.2 2.2.6 4.8.9 7.1.9 6.8 6.2 48.9 8.1 51.4M361 390c3.9 19.7 7.5 39.7 12.5 58.9l113 77c-2.7-19-10-37.1-15.5-55.5-34.8-25.8-69.6-54.4-105.7-78.3-1.4-.9-2.5-2.5-4.3-2.2Zm419 301c-.6-8.2-1.3-16.3-1-24.5.2-6.2 4-24.3.6-28.5L548 464.1c5.7 24.5 12.9 48.7 20.3 72.7L780 691.1ZM414 535c22.5 61 50.5 119.7 78 178.5 59.4 35.6 120.6 68 179.5 104.5-14.2-28.7-30.4-57.6-50.1-82.9-10.8-13.8-24.4-25.9-37.9-37.1-8.9-7.3-27.4-18.5-34-26-5.7-6.3-9.6-21.7-15-30s-14.7-17.2-21.9-24.1c-27.7-26.8-60.8-53.8-91-78-1-.8-6.8-5.8-7.5-5Zm363 200c1.9-8.4-16.8-13.8-13.8-3.7 1.6 5.5 9.5 4.8 13.8 3.7m35.4 63.6c-8.4-13-12-37.6-19.6-51.9-12-12-9.5 1.3-11.8 9.7-1 3.6-4.2 8.7-7.6 10.4-2.6 1.3-8 .4-7.4 2.6l21 47.5c2.2 1.6 5-7.5 9.4-7 .6 0 .6 1.7 1.2 2 3.6 2.1 6.7-.4 8.3.4 2.4 1.2 6 10.7 12.4 6.5 9-6-3.4-16.2-6-20.3ZM826 833c-2.6-.5-1.5.5-2.1 1.4-6.3 10.5-13.2 16-25.9 10.6-1.3 1.5 7.8 21.9 9 25.5 2.5 7.1 8.9 32.3 12.9 36.1 8.8 8.3 9.2-13.4 12.1-15.5.5-.3 3.1 1 4.5 1 2.5 0 4.1-1.9 6-2 2.3-.2 4 1.4 6.1 1.7 1 0 3-1 3.3-.7.3.2.4 6.1 2.5 7 6.4-5.2 2.9-15.9-3.8-19.2-1.9-.9-4.3-.8-6.1-1.9-5.3-3.4-15.3-36.3-18.6-43.9Z" class="outline shading" data-original-prefix="shading" opacity="0.5" style="opacity: 0.5"/><path id="shading-ear-lft2" fill="#aaaaaa" d="M637.6 400.4c.2.1.4 1.1 1.2 1.5 9.2 4.4 15.6 1.7 25.2 3.1 3.5 11.4-13.5 27.2-24 24.5-9.5-2.4-16.7-15.4-14.8-24.8.2-1.1 3.1-6.8 3.8-7.3 2.2-1.4 6.5 1.9 8.6 3" class="outline shading" data-original-prefix="shading" opacity="0.5" style="opacity: 0.5"/><path id="outline-ear-lft" fill="#000000" d="M312.1 163.1c3-2.5 42.9 6.4 49.3 8C512.1 208 635.1 309.1 735.5 423c29.7 33.6 58 70.7 80.3 109.7 3.2 5.6 14 24 15 29 .6 2.9-5.2 26.5-5.8 32.8-6.3 64.6 7.8 142.2 38.8 199.2 6.2 11.4 30.5 45.7 32.1 54.9 1 5.9 3 30.9 1.6 35.5-12 18.1-24.5 59.3-41.2 71.8-5.8 4.3-43.1 24.1-49.8 26.2-16.7 5.4-37.4 4.2-54.2 10.9-13-2.5-25.8-7.7-38.7-11.1-2.9-1.9-3.6-6.4-5.5-9.5-43.9-76.1-140-177.5-221.2-212.8-5-2.2-18.4-5.6-21.3-7.7-3.2-2.2-15.1-21.6-17.8-26.2-64.6-112.1-114-265.2-131.7-393.3-6.6-47.5-13-106.2-7-153.7.7-5.2 2.1-10.4 3-15.5Zm319.8 195.8-.8-3.5c-54.6-43.1-111.1-90.9-174.4-120.6-42-19.7-86.2-35.6-130.7-48.8 31.9 28.2 64.8 55.6 96 84.5 20.5 18.9 33 29.2 44.5 55.5 16.7 38.2 28.6 79.6 45.5 118 1.5.4 1.7-.4 2.5-1 5.7-3.9 11.9-10 17.6-14.4 32.2-24.7 65.5-48.1 99.8-69.7M570 663c0-1.7 0-3.4-.5-5-29.2-103.4-66.1-199.3-108.1-297.9-10.4-24.5-17.8-43.7-36.4-63.6-26.6-28.2-58.4-54.6-87-81-5.1-4.7-9.5-10.2-15-14.5-.4 36.3 3.9 72.5 9.2 108.3 21.8 147.8 72 298.3 146.9 427.1 112.2 41.1 192 136.1 258.2 231.3 20.8 14.3 69.4 2.5 73.5-24.5 2-12.9-11.8-48.1-16.7-61.8-16.9-47.1-43.7-118.8-71.8-159.2-12.1-17.4-40.6-35.4-59.5-45.5-27.6-14.6-62-16.1-92.7-13.8h-.1Zm77.7-290.9q-37.2 20.1-72 44.1c-15.8 10.9-34.5 23.7-49.2 35.8-2.3 1.9-7.7 5.5-7.4 8.2 13 32.6 26.5 65 39.6 97.5 7.8 19.4 14.3 40.2 22.8 59.2 2.4 5.4 7.8 17.6 11.5 21.5 11.5 12.4 45.2 5 60.7 8.3 16.7 10.5 32.4 22.3 48.8 33.2 7.4 5 16.5 9 23.4 14.6 15.2 12.3 30.7 49.4 39.9 68.1 21.5 43.2 45.7 90.8 63.6 135.4 1.8 4.4 9 21.7 8.1 25l-25.1 40c7.5-4.8 16.5-8.3 23.8-13.2 3.9-2.5 12.8-9.1 15.7-12.3 4.7-5.2 18.3-32.4 21.9-40.1 1.5-3.2 3.2-6.2 3.2-9.9-10.6-23.3-22.7-45.9-32.6-69.5-5.6-13.5-9.6-27.7-15-41s-13.6-26-18.2-39.8c-13.7-40.3-17-104.6-10-146.5.9-5.6 4.2-13.5 4.3-18.5.3-13.9-31.5-60.6-40.8-73.7-29.1-40.7-69.4-86.1-106.8-119.2-2-1.7-8.4-7.6-10.3-7.4v.2Z" class="outline" data-original-prefix="outline"/><path id="outline-ear-lft5" fill="#000000" d="M840.7 874.2c15.3-3.2 30.3 15.5 21.7 28.7-7.3 11.2-22.3 6.1-27.7-4.2-4-7.8-5.2-22.2 5.9-24.5Zm.5 7c-.3.4-1.9 6.6-1.9 7.4-.3 11.2 17.1 14.3 14.6-1.1-.8-5.2-9.9-9.8-12.7-6.3" class="outline" data-original-prefix="outline"/><path id="outline-ear-lft4" fill="#000000" d="M816.7 801.3c.6.5 5.3 6 5.8 6.7 8.6 13.3-1.2 29.8-17.4 23.4-5.5-2.1-8.7-8.2-10.5-13.5-5.3-15.4 9.2-27.6 22.1-16.6m-8.9 3.9c-15.5 2.3-1 23.9 8.1 14.2 5.6-6-.2-15.3-8.1-14.2" class="outline" data-original-prefix="outline"/><path id="outline-ear-lft3" fill="#000000" d="M763.7 719.2c28.2-4.8 27.6 42.5 1.3 31.3-11.3-4.8-15.4-28.8-1.3-31.3m12 21.5c6.9-5.6-4.4-18.6-11.3-13.8-7.7 5.4 4 19.7 11.3 13.8" class="outline" data-original-prefix="outline"/><path id="outline-ear-lft2" fill="#000000" d="M647.8 384.2c20.4-1.1 22.2 26 2.9 33-13.9 5-27.3-2.3-23.2-18.2 2-7.7 12.7-14.3 20.3-14.7Zm-5.1 12c-5.4 1.6-9.1 15.5 4.3 11.3 8.6-2.6 5.3-14.2-4.3-11.3" class="outline" data-original-prefix="outline"/><path id="outline-ear-lft1" fill="#000000" d="M523.8 395.2c16.4-1.3 20.2 19.3 6.1 28.2-25.6 16.2-31.5-26.2-6.1-28.2m3 12c-4.8-4.9-14.7 3.1-9.5 8.5 6.3 6.6 14.8-3.1 9.5-8.5" class="outline" data-original-prefix="outline"/>
    </g><g class="trait-group" data-category="head" id="head-spiked">
      <path id="fill-head1" fill="#ffffff" d="M1025 353c30.8 112.9 59.6 226.5 87.3 340.2 11.4 46.6 27.1 99.2 35.2 145.8.9 5.3 2 12.3 1.5 17.6-1.3 13.5-23.1 32.1-33.6 40.4-3.5 2.8-14.3 8.8-16.1 10.9-2.2 2.8-3.8 9.9-5.6 13.4-5.5 11.2-11.3 19.1-20.3 27.7-8.4 7.9-14.1 6-12.3 20.2 2 15.6 13.6 38.7 13.8 53.3 0 5.5-6.2 17.9-9.2 22.8-20.3 32.5-63.3 32.5-83.6 0-2.7-4.3-7.9-14.5-8.8-19.3-2.1-12.4 11.4-42.3 13.3-56.8s-3.9-12.3-12.3-20.2c-9-8.6-14.8-16.5-20.3-27.7-1.8-3.6-3.3-10.7-5.6-13.4-1.9-2.4-16.8-11.4-21.1-14.9-8.7-7.2-29.1-25.9-29.6-37.5-.2-4 1.7-12.2 2.6-16.5 6.6-34.2 16.9-70.6 25.2-104.8 23.7-98 47.9-196.1 73.4-293.6 6.8-26 13.4-53 21.4-78.6.7-2.2 1.5-5.6 2.4-7.6.5-1.2-.5-1.8 2.1-1.4Z" class="fill" data-original-prefix="fill"/><path id="shading-head" fill="#aaaaaa" d="M962 829c.5.3 3.9 9.8 3.9 10.5.2 6-5.8 20.7-6.6 28.3-1.5 14 6.4 44.4 13.6 56.9 3.4 6 9 12.4 16.1 13.3 4.8-8.1 7.8-21.3 12.9-28.7.9-1.3 1.1-2.7 3.2-2.3 2.5 3-10.2 39.3-11.7 45.8-4 17.4-2.6 28.8-3.3 45.7-.2 6.2-2.2 13.7-2.1 20 .3 50.3 76.2 51 72.1-7-.3-3.5-1.7-7.5-2-11-1.3-17.4.7-29-3.5-47.5-1.5-6.7-13.3-41.3-12.4-44.4.2-.8 1.5-1.8 2.4-1.6 1.7.4 12.4 27.3 14.6 31 10.8-2.1 16.3-13.1 20.1-22.3 4.6-11.1 10.9-36.3 9.6-47.9-.9-7.6-6.8-22-6.8-28.3 0-3.7 3.7-6.8 4.1-10.5 1.5-1.4 3.6 3.4 4.2 4.3 4.6 7.9 8.8 16.8 12.8 25 .2.9 1.9.8 2.5.7 1.1-.3 11.8-15.7 13.1-18 2-3.7 3.9-7.9 5.2-11.8s4.3-20.6 6.3-21.7c1-.6 2-.5 3-.5l13.8 55.8c.2 3.5-6.6 11.3-9.3 14.2-5.7 6.2-22 21.3-28.9 25.1-2 1.1-4.3.5-6.1 1.9-4.8 3.9-6.1 12.2-8.7 17.3-5.8 11.7-11.9 19.8-21.3 28.7-7.1 6.7-13.1 6.1-11.3 18.2s7.8 26.5 10.5 38.5c3.8 16.8 4.8 20.8-4.2 36.2-24.1 41.1-75.9 33.1-92-10-4-10.8-1.6-15.5.8-26.2 2.7-12.1 8.7-26.9 10.5-38.5.3-2.3.7-5.4 0-7.6-.5-1.6-16.8-15.8-19.8-19.2-5.9-6.8-9.8-13.3-13.7-21.3-1.8-3.5-1.8-7.7-4.7-11.3s-10.8-7.6-15-11c-11.8-9.6-23.8-20.1-32.4-32.7l13.8-58.2c1.1 0 2-.2 3 .5 1.7 1 4.7 17.4 6 21 4 12 11.2 22.2 19.5 31.5l15.7-29.3c.4-1.1 2-2.3 2.8-1.7Z" class="outline shading" data-original-prefix="shading" opacity="0.5" style="opacity: 0.5"/><path id="outline-head1" fill="#000000" d="M1025 331c11.2 34.9 20.4 70.4 29.7 105.8 35.2 134.1 66.7 269.3 100 404-.2 5.3 1.5 10.5 1.3 15.8-.4 14.5-18.5 31.1-29 40-5.1 4.3-19.1 12.7-22 16-2.7 3.1-5.2 13-7.5 17.5-7.2 13.8-18.8 23.8-30.4 33.7l14.9 58.8c-8.6 36.5-28.8 55.5-67.6 52.5-25.9-2-46.2-30-48.2-54.3l14.6-55.5c.2-3.9-8.4-8.4-11.3-11.2-6.9-6.5-14.6-15.7-19-24-2.1-4.1-5.2-15.1-7.5-17.5-2-2.1-10.9-6.7-14.5-9.5-14.8-11.8-37.2-30.2-36.6-50.5 31.5-138.6 65-277.3 101.1-414.9 7.8-29.9 15.4-60.9 24.7-90.3 1.3-4 3.2-11.7 5-15 .6-1.2 0-1.7 2.2-1.3Zm0 4c-2.4-.2-1.8-.3-2 1.5-.5 3.6-.5 7.8-1 11.5 2.5 0-.7-5.9 2.5-5 1.5.4-.8 5 1.5 5zm0 49c-2.6-.3-1.6 0-2 1.5-5.8 19.7-8 42.3-12.5 62.5-28.9 131.3-63.8 265.8-98 396-1 3.8-5.1 13.2-5.2 15.7-.4 8.3 25.9 38.3 34.2 39.4 2.2.3 1.2-.3 1.5-1.5 8.3-34.1 16.9-68.2 24.5-102.5 19.4-87.5 33.8-176.1 55.5-263 2.3-.4 1.6.1 2.2 1.3 1.9 3.4 3.2 11.5 4.3 15.7 19.5 79.2 32.3 161.4 49.8 241.2 8 36.4 17.9 72.3 25.7 108.8 2 2 15.9-10.4 18-12.5 4-4 16.1-19 16.9-24.1.8-5.5-3-12.8-4.4-18.4-31.6-124.7-64.5-249.5-93-375-6.4-28.2-11.9-56.6-17.5-85Zm0 219c-2.4-.6-2.2.9-2.7 2.8-3.6 13.8-5.6 30.1-8.6 44.4-18.5 87-37.8 173.9-58.6 260.4 4.3 17.3 15.2 33.1 30.4 42.4l38-109c2-.5 3.4 3.7 4 5 5.9 14.4 10.1 33.5 15.2 48.8 6.2 18.5 13.2 36.7 19.3 55.2 15-8.9 25.5-24.2 30.8-40.7-23.8-102.8-47-205.8-67.8-309.3m0 270c-2.6-.3-1.6 0-2 1.5-14.8 50.4-31.7 100.1-41 152 8.7 45 75.4 45 84.1 0-6.1-27.3-11.8-54.8-19.4-81.7-6.7-24.1-16.3-47.4-21.7-71.8" class="outline" data-original-prefix="outline"/><path id="outline-head2" fill="#000000" d="m1025 335 1 13c-2.3 0 0-4.6-1.5-5-3.2-.9 0 5.1-2.5 5 .5-3.7.5-7.9 1-11.5.2-1.8-.4-1.6 2-1.5" class="outline" data-original-prefix="outline"/>
    </g>
</svg>