<?xml version="1.0" encoding="UTF-8"?>
<?xml-stylesheet type="text/css" href="../styles/semantic.css" ?>
<svg xmlns="http://www.w3.org/2000/svg" viewBox="0 0 2048 2048">
  <g class="trait-group" data-category="background" id="background-green">
      <path id="color-green" fill="#32992c" d="M2048 0v2048H0V0z" data-original-style="transition:fill .3s ease" style="fill: #32992c" class="color"/>
    </g><g class="trait-group" data-category="jaw" id="jaw-doom-raider-mask">
      <path id="fill-jaw-main" fill="#ffffff" d="m637.2 1237.2 8.7-.3c13.5-36.6 25-74.9 39.3-111.1 40.9-102.9 149.2-171.1 251.8-201.2 96.8-28.5 178.1-7.9 265 37 60.9 31.4 126.9 87.1 155.2 150.8 8.4 18.9 7.3 37.3 13.6 53.4 7.2 18.6 28.3 46.1 38.7 65.3 15.6 28.9 30.5 61.7 44.3 91.7 1.6 3.4 9.1 18.6 8.9 20.7-26.3 40.9-55.4 79.9-82.8 120.1-25.7 22.3-52.4 43.6-77.4 66.6-10 22.3-16.2 46.5-26.5 68.5-40.4 24.2-79.2 55.9-120 79-37.8 21.3-82.4 35.7-121 56l-20.5.4-115.6-51.4c-45.5-28.4-92.8-54.2-138-83l-27.6-71.4-61.4-52.6-83.8-134.3c-.6-1.5 0-2.8.2-4.3 1.6-6.1 8.7-18.8 11.7-25.3 11.6-25.2 25.5-49.3 37-74.5h.2Z" class="fill" data-original-prefix="fill"/><path id="fill-jaw5" fill="#ffffff" d="M1353 1472c.3 1.4.2 1.3-.6 2.1-2.5 2.4-7.8 5.4-10.8 7.9-10.1 8.4-42.1 34.1-47.4 43.6-10.7 19.7-16.2 47.3-25.4 68.1l-39.1 20.4-58.7 38.8c20.2-48.3 28.3-100.5 36-152 1.4-1.4 10.5 6 16 3.5 25.4-22.1 55.1-38.7 85.8-52.3 15.6 3.6 29.6 13.3 44.2 19.9" class="fill" data-original-prefix="fill"/><path id="fill-jaw4" fill="#ffffff" d="M1337 1303c17.3-4.2 26.8-13.8 38-26.5 10.3-11.7 19.5-24.5 29.5-36.5 15.8 21.7 28.9 48.5 38.3 73.7 2.3 6.1 7.3 19.2 8.1 25 .2 1.9 0 2.2-.7 3.8-2.5 5.3-11.1 14.5-14.9 20.1-9.7 14-20.1 28.6-29 43-9 14.6-18.7 37.6-28.8 50.2-3 3.8-10.2 4.3-11.3.4-.6-2.2 13.9-36.1 15.9-41.8 1.7-4.7 8.4-21.2 7.8-24.8-.8-4.6-9.6-20.7-12.3-25.8-9-16.6-20.8-33.7-32.1-48.9-1.3-1.7-9.7-10.6-8.4-12.1v.2Z" class="fill" data-original-prefix="fill"/><path id="fill-jaw3" fill="#ffffff" d="M711 1303c.7.8-1.9 4-2.6 4.9-11.5 16.1-23.2 30.5-33.2 47.8-3.8 6.6-16 27.9-17 34.1-.6 3.6 7.9 25.6 9.8 30.8 4.4 12 10 23.8 13.9 35.8-6.4 5.8-9.5 2.2-13.3-3.4-10.5-15.6-19.1-34.6-29.2-50.8-8.2-13.2-17.8-26.6-26.6-39.4-3.9-5.6-12.4-14.8-14.9-20.1-.8-1.6-1-1.9-.7-3.8.8-6.2 5.7-18.7 8.1-25 9.6-25.7 22.5-50.4 36.8-73.8l2.4 1.1c9 11.5 17.9 23.4 27.6 34.4 11.3 12.9 21.3 23.6 39 27.5Z" class="fill" data-original-prefix="fill"/><path id="fill-jaw2" fill="#ffffff" d="M841 1501c7.2 51.6 16.2 103.4 35.5 152-31.8-20.5-62-43.8-97-59l-26-69c-16-16.8-34-32.2-52-47-2.1-1.7-8-4.2-5.8-6.1 2-1.8 13.4-7.5 16.7-9.1 4.1-2.1 22.8-10.9 25.9-10.6 31.6 12.9 62 30.9 87.8 53.3 3 2 13.5-6.1 15-4.5z" class="fill" data-original-prefix="fill"/><path id="fill-jaw1" fill="#ffffff" d="M846 1457c-9.4 1.7-24.2 21.3-32.4 21.1-3.7 0-14.6-4.8-18.5-6.6-11.7-5.2-24.9-13.3-36-20.1-5.3-3.2-20.9-15.6-25.7-16.4-3-.5-12.8 1.8-16 2.9-4.2 1.4-26.5 13.6-28.4 12-2.2-17.5-17.1-36.8-12.1-54.5 4.5-16.1 33.4-52.4 45.5-65.5 2.4-2.6 13.9-14.7 16.1-15 1.6-.3 3 .2 4.5.5 12.5 2.5 27.7 8.8 40.7 12.3 27.9 7.4 55.9 13.4 84.6 16.9 22.7-11.5 45.5-22.8 69-32.8 48.7-20.8 80.7-34.3 134.2-15.8 36.9 12.8 73.1 31.7 108.1 48.7 44-5.4 86.9-16.7 128.9-30.3 4.5.4 28.7 29.4 32.9 34.7 9.2 11.7 19.5 25.6 26.1 38.9 4.6 9.2 6 13.9 3.4 24.5l-13.4 38.5c-8.4-3.8-18.3-10.2-27-13-2.9-1-13.4-3.3-16-2.9-4.8.8-25.2 16.2-31.3 19.8-10.7 6.4-24.5 14.6-36 19-3.2 1.2-10.8 4.4-13.8 4.3-6.3-.2-20.6-16.3-28.1-19.9-1-.5-2.2-1.8-3.3-.7-8.5 54.2-15.6 108.7-31.7 161.3-2.8 9.2-8.5 29.8-12.8 37.2-2.3 3.9-32.3 32.9-36.5 35.5-11.1 6.6-43 19.6-55.9 24.1-8.3 2.9-32.6 9.3-40.6 9.4-7.2 0-32.2-6.3-39.9-8.9-12.8-4.2-53.9-21.4-63-29-5.2-4.3-28.6-27.1-31.3-31.7-3.1-5.3-7.2-19.9-9.4-26.6-18.3-55.7-26-113.9-34.8-171.8Z" class="fill" data-original-prefix="fill"/><path id="shading-jaw1" fill="#aaaaaa" d="M1278 1304c.5 1.8 5.6-.4 6.8-.8 16.4-4.8 50.7-16.4 63.7-26.3 12.3-9.2 23.4-45.9 32.7-60.3 2.3-3.5 4.1-6.2 8.8-6.7 0 1.4 0 2.8-.2 4.3-1.8 8.2-7.7 21.7-11 30s-14.4 36.4-19.8 41.2c-3.5 3.1-22.8 10-19.5 16.5 1.1 2.2 11.8 12.2 14.5 15.6 10.3 12.7 18.4 26.9 27.7 40.4 25.3-5.7 50.8-12.9 73.8-24.9l1.1 4-73.1 127.9c-18.1 13.1-38.3 23.5-55.9 37.1l-50 98c-26.9 17.7-58.7 32.4-84.5 51.5-17.4 12.9-36.6 35-54.2 45.8-20.2 12.5-48.9 21.8-70.4 32.6l-92.5-.5c-20.4-12.1-46.2-19.8-66.3-31.7-19-11.3-39.6-35.5-59-49.1-25-17.6-54.1-32.4-80.5-48l-49.8-98.7c-17.4-13.3-37.2-23.2-54.4-36.6l-76-128 2.4-4.4c23.1 11.8 48.5 19.2 73.8 24.8 10.5-16.1 20.6-32.3 33.2-46.9 2.8-3.2 9-6.9 8.3-11.2-1.4-8.8-16.4-9.6-22-18.1-7.5-11.3-17.8-38.9-22.5-52.4-1-2.8-6.5-17.8-5.2-19.2 6.4.5 9.4 8.2 12.2 13.3 5.9 11.2 10.3 23.4 16.3 34.7 2.4 4.6 7.8 14.9 11.3 18 4.7 4 18.1 9.8 24.3 12.4 14.5 6.2 29.8 11.2 45 15.5-16.4-12.2-34.8-21.6-50-35.5-18.3-16.7-19.6-34.6-30.5-55.5-5.2-10.1-12.3-19.1-18.3-28.7-1.8-6.8 5.4-21.6 6.5-29 2.8-19.1 3.8-27.8 12.1-45.9 42.8-94 156.1-156.3 251.2-184.8 55.5-16.7 109-17.9 165-2 99 28.1 225.1 96.5 262.8 198.2 5.1 13.9 5.1 20.8 7.5 34.5 1.2 7.1 7.8 22.1 6.7 28.2-.6 3.4-14.5 22.1-17.5 27.5-11.3 21-13 40.9-31.5 57.5-15.3 13.8-35 25.6-53 35.5v.2Zm-200 23c-5.5-11.1-10.5-24.8-17.6-34.9-4.2-6.1-10.2-10.5-14.9-16.1-3.4-4-15.2-20.5-18.4-21.6-1.9-.6-4.4-.8-6.3-.2-2.4.7-15.7 18.7-18.7 22.3s-7.4 6.8-10.5 10.5c-9.4 11.2-15.1 26.9-21.5 40h108Zm-309.5-23v1c.7-.3.7-.7 0-1m68.5 40c-31.5-5.4-62.3-14.5-92.5-25-4.9-1.7-27.1-11.3-30-11s-12 13.5-14.3 16.7c-3.2 4.4-25.2 35.5-25.2 37.8s9.4 13.2 10.2 17.3c32.5 5.7 63.8 16 95.1 26 4.2-.8 6.5-2.9 9.2-5.8 9.8-10.1 18.8-24.6 28.5-35.5 4.9-5.5 14.2-12.6 18-18 .6-.8 1.4-1 1-2.5m525.8 35.8c.4-4.4 10.8-15.1 10.1-18.1-5.5-6.9-33.4-52.2-38.6-53.6-1.1-.3-2.2 0-3.3.3-38.7 15.6-78.8 28.3-119.9 35.6-.4 1.5.4 1.7 1 2.5 4.5 6.6 16.4 16.4 22.5 23.5 7.8 9 15.1 20.7 23 29 3 3.2 5.7 6 10.3 6.8 31.2-10.1 62.6-20.3 95.1-26zM720 1472c-.4 1.7.5 2 1.5 3 9 8.8 25.2 15.4 33.5 25.5s18.5 37.1 27.1 44.9c3 2.7 10.5 6 14.5 8.6 13.2 8.8 26.3 18.2 39.5 26.6l3.8-5.9-28.3-64.7c-11-6.6-68.3-43.6-76.8-42.8-1.4 0-14.3 4.2-14.8 4.8m608 0c-5.2-.6-13.1-5.9-18-4.6-24.8 13.7-50.3 26.3-73.5 42.6l-27.8 63.3c-1.3 2.2 2.5 8.4 5 7 9.7-7.4 19.7-14.5 29.8-21.3 5.5-3.7 18.6-10 22.5-13.5 8.1-7.4 18.5-33.8 26.1-43.9 7.6-10.3 25.5-17.8 34.5-26.5 1-.9 1.9-1.3 1.5-3Zm-194 173c-2.1-.2-3.8 0-5.7.8-24.5 9.4-50.2 38.1-77.1 42.9-17.9 3.2-50.3 3.7-67.2-3.2-20-8.2-44-31.6-64.3-39.7-1.5-.6-6.2-2.2-5.7.7 1.2 7.7 10.9 21 16 27 6.2 7.3 8.1 8.8 16.3 13.7 30.2 18.1 49.5 27.8 86.2 25.9 21.1-1.1 31-5.5 49.1-14.9 19.5-10.1 34-17.7 45.7-37.3 1.2-2 7.5-15 6.6-15.9z" class="outline shading" data-original-prefix="shading" opacity="0.5" style="opacity: 0.5"/><path id="outline-jaw1" fill="#000000" d="M685 1126c.2 0 1 1.5 2.2 2.2 4.7 2.7 8.7.5 9.7 8.4.6 5.1-2.7 26.3-4.4 31.4-2.8 8.6-17 13.5-21 21-1.2 2.3-7.8 31.1-7.5 33.3.4 3.4 9.5 19 11.8 23.3 4.4 8.2 15.3 29.4 20.7 35.3 9.5 10.3 60.5 26.3 75.9 31.1 29.2 9 59.3 17.4 90 18 29.3-10.7 57.9-23.1 87.2-33.8 16.6-6 42.9-17.7 59.8-17.3 21.9.5 35-1 56.2 5.8 39.5 12.7 77.8 29.4 116.4 44.6 46.7-.8 99.9-16.6 143.1-34.6 5.7-2.4 21.2-9 25.2-12.8 4.6-4.5 15-24.5 18.7-31.3 2.7-4.9 14.7-25.5 14.9-29.2 0-1.7-6.8-30.9-7.6-32.4-3.6-6.8-19-13.6-21.2-20.8-1.7-5.6-5-27.5-4.2-32.7 1-6.5 5.7-5.1 9.7-7.3 1.2-.7 2.1-2.1 2.2-2.2 2.3-1.2 6.9-4.1 9.1-2.6 2.4 1.7.2 26 1.4 30.6 6.9 5 22.7 5.9 26 14 1.1 9.9.5 20.6 1.6 30.4.3 2.9 1 10.8 2.2 12.8 1 1.8 3.1 2.2 4.3 3.7 26.6 31.1 46.5 67.2 61.9 105.1 2.3 5.6 7.6 17.3 8.3 22.7.2 1.4.3 2.7-.6 3.9-24.7 33.2-47.1 68.3-68 104-2.9 4.9-18.6 36-20.4 37.1-3.5 2-13.7-4.6-17.5-3.1-10.9 9.5-22.5 18.2-33.3 27.8-4.6 4-16.5 13.5-19.4 17.6-5 7.1-14.8 34.1-18.3 43.7-4.2 11.1-7.7 22.4-11.3 33.7-32.1 13.9-63.4 31.2-92.5 50.5-20.4 13.5-36.7 25.2-52.5 43.5-9.8 11.4-37.1 18.8-51.9 25.1-22.8 9.6-45.2 20.4-68.5 28.3l-111.2-45.6c-6.9-2.5-9.5-12.1-13.6-15.9-1-.9-2.9-1.1-4.2-2.3-38-35.4-88.6-61.7-135.5-83.5-7.9-26.5-18.8-52-29.6-77.4-17.4-15.7-35.2-31-53.5-45.5-3.5-1.2-13.5 6.1-17.5 2.5-26.4-48.4-54.7-96.1-87.7-140.3-.8-1.3-.8-2.5-.6-3.9.7-5.4 6.1-17.1 8.3-22.7 14-34.4 31.7-67.2 54.5-96.5 8.8-11.4 12.5-9.5 14-26 .9-9.8 0-20.6 1.5-30.5 4.2-7.9 25.3-7.7 26.5-16.5.5-3.9-1.1-7.1-1-10.1 0-5.3 2-11.7 1-17.5 3.8-.6 6.8 1.5 10 3h.2Zm26 177c-17.7-4-27.7-14.6-39-27.5-9.7-11-18.5-22.9-27.6-34.4l-2.4-1.1c-14.2 23.4-27.2 48-36.8 73.8-2.4 6.3-7.3 18.9-8.1 25-.2 1.9 0 2.2.7 3.8 2.5 5.3 11 14.5 14.9 20.1 8.8 12.8 18.4 26.2 26.6 39.4 10.1 16.2 18.6 35.2 29.2 50.8 3.8 5.6 6.9 9.3 13.3 3.4-3.9-12-9.5-23.8-13.9-35.8-1.9-5.2-10.4-27.1-9.8-30.8 1-6.2 13.2-27.5 17-34.1 10-17.3 21.8-31.7 33.2-47.8.7-.9 3.3-4.1 2.6-4.9Zm626 0c-1.3 1.4 7.1 10.4 8.4 12.1 11.3 15.2 23.1 32.3 32.1 48.9 2.8 5.1 11.5 21.2 12.3 25.8.6 3.5-6.1 20.1-7.8 24.8-2 5.7-16.5 39.7-15.9 41.8 1.1 3.9 8.3 3.4 11.3-.4 10.1-12.7 19.7-35.6 28.8-50.2 8.9-14.4 19.3-29 29-43 3.9-5.6 12.4-14.8 14.9-20.1.8-1.6 1-1.9.7-3.8-.8-5.8-5.8-19-8.1-25-9.4-25.2-22.5-52-38.3-73.7-10 12-19.2 24.7-29.5 36.5-11.2 12.7-20.7 22.3-38 26.5v-.2Zm-491 154c8.7 57.8 16.5 116.1 34.8 171.8 2.2 6.6 6.3 21.3 9.4 26.6 2.7 4.6 26.2 27.4 31.3 31.7 9.1 7.6 50.2 24.8 63 29 7.7 2.6 32.8 9 39.9 8.9 8-.2 32.3-6.6 40.6-9.4 12.9-4.5 44.9-17.4 55.9-24.1 4.2-2.5 34.2-31.6 36.5-35.5 4.4-7.4 10-28 12.8-37.2 16.2-52.6 23.2-107.1 31.7-161.3 1.1-1.1 2.3.2 3.3.7 7.5 3.5 21.8 19.7 28.1 19.9 3 0 10.6-3.1 13.8-4.3 11.5-4.4 25.3-12.6 36-19 6.1-3.6 26.4-19.1 31.3-19.8 2.6-.4 13 2 16 2.9 8.6 2.8 18.6 9.2 27 13l13.4-38.5c2.5-10.5 1.2-15.2-3.4-24.5-6.6-13.3-16.9-27.2-26.1-38.9-4.2-5.3-28.4-34.3-32.9-34.7-42 13.6-84.9 24.9-128.9 30.3-35-17-71.2-35.9-108.1-48.7-53.5-18.5-85.5-4.9-134.2 15.8-23.5 10-46.2 21.3-69 32.8-28.7-3.5-56.7-9.6-84.6-16.9-13-3.4-28.2-9.8-40.7-12.3-1.5-.3-2.9-.7-4.5-.5-2.1.3-13.7 12.4-16.1 15-12.1 13-41 49.3-45.5 65.5-5 17.8 9.9 37 12.1 54.5 1.9 1.6 24.2-10.6 28.4-12 3.2-1.1 13-3.4 16-2.9 4.8.8 20.3 13.2 25.7 16.4 11 6.7 24.3 14.8 36 20.1 3.9 1.8 14.8 6.5 18.5 6.6 8.2.2 23-19.4 32.4-21.1Zm-5 44c-1.5-1.6-11.9 6.6-15 4.5-25.7-22.4-56.2-40.4-87.8-53.3-3.1-.3-21.8 8.5-25.9 10.6-3.3 1.6-14.7 7.3-16.7 9.1-2.1 1.9 3.8 4.4 5.8 6.1 18 14.8 36 30.2 52 47l26 69c35 15.1 65.2 38.4 97 59-19.3-48.5-28.3-100.3-35.5-152zm512-29c-14.7-6.6-28.6-16.2-44.2-19.9-30.7 13.7-60.4 30.3-85.8 52.3-5.5 2.5-14.6-4.9-16-3.5-7.7 51.5-15.8 103.7-36 152l58.7-38.8 39.1-20.4c9.2-20.8 14.7-48.4 25.4-68.1 5.2-9.6 37.2-35.2 47.4-43.6 3.1-2.6 8.3-5.6 10.8-7.9.8-.8.9-.7.6-2.1" class="outline" data-original-prefix="outline"/>
    </g><g class="trait-group" data-category="mouth" id="mouth-scrappy">
      <path id="fill-muzzle" fill="#ffffff" d="M1038 1292s-.4 1.7.7 2c10.3 2.8 18 4.3 25.8 13 1.9 2.2 4.9 8.8 6.5 9.5 2.6 1.2 6.6 0 9.5.5 11.4 1.5 21.2 3.7 31.2 9.8 2.1 1.3 9.2 7.8 10.2 7.1.3-.3 0-1.7 0-1.9 2.4-1.8 32.7.6 38 1 5.2 4.2 13.2 5.5 19.2 8.3 13.7 6.4 22.5 16.1 29.9 29.1 8.4 14.6 7.7 17.8 3.1 33.4-2.5 8.5-4.8 21.8-16.3 20.2 1.5-15.5-14.8-32.4-26.5-41-3.2-2.4-11.3-7.2-6 0 10.8 14.7 20.2 14.8 21.5 37.5.6 10.3-8.4 32.9-15.4 40.5-.6.7-7.1 6.3-7.6 6.5-3 1.6-6.9-6.1-7.8-8.2-3.6-7.8-4.7-15.5-9.7-23.3-1.1-1.7-10.8-13.7-12.4-12.1 5.6 13 9 46.2-2.5 56-4.4 3.7-9.4 1.9-13.3 3.7-2.8 1.3-3 5.7-4.8 6.1s-7-3.1-9.4-3.5c-8.9-1.3-13.2 17-18.7 17.5-2.5.2-10.7-11.9-18.4-9.4-7 2.2-15.4 21.2-24.4 23.6-6.3-6-3.4-14-5.8-21.2-1.2-3.5-4.2-6.7-5.8-10.2-5.4-12.7-2.8-19.9-.2-32.2.6-3 0-5.9.9-9.1.2-.7 6.3-12.3 6.9-13.1 3.7-5.4 19.2-12.4 22.7-3.8.9 2.2 0 8.7 2.2 7.7 5.1-4.9 10.2-9.9 15.5-14.5 11.5-10 14.1-9.7 21.2-24.8 1.5-3.3 6.5-14.5 6.6-17.3 0-3.4-9.2-14.7-11.8-17.8-1.4-1.7-9.5-11.5-10.2-11.8-6.4-3.2-28-2.3-34.7.8-7.9 3.6-12.5 12-19 17-1 .8-1.3 1.9-3 1.5l.8-12.7c3.6-4.3 21.7-23.3 21.1-27.5-.4-2.6-11.3-13.4-12.9-11.7 4.4 12.8.7 8.7-7.3 12.2-1.2.5-2.9 2.7-3.2 2.7s-2-2.2-3.2-2.7c-3.4-1.5-9.7-.4-9.3-5.6 0-1.1 4.1-7.6.5-6.6-2.8.8-12 9.9-11.3 13.2 0 .6 4 7 4.8 8 1.5 2 5 5.9 7 8.3 3.2 3.9 9.7 7.6 9.9 13.1 0 1.6-.8 3.1-.8 4.8s2.6 8.1-2.5 3.6c-6.2-5.3-10.2-13.6-18.5-17.5-6.5-3-30.3-4.3-35.7-.2-.8.6-8.8 10.5-10.2 12.2-2.4 3-10.9 13.7-10.8 16.8.2 5.4 11.7 29 15.7 33.2 3 3.2 9.3 6.8 13 9.9 5 4.3 9.7 9.1 14.5 13.5l4.2-11.1c4.9-3.1 17.7 2.6 20.8 7.1 1 1.5 5.1 9.9 6 11.9 2.8 6.4 5.1 25.4 4.4 32.4-1.1 10-7.9 15-9.4 22.6-1.3 6.4 1.1 14.9-5.8 18.9-8.1-2.6-17.3-21.5-23.6-23.5-8.2-2.6-15.9 9.6-18.4 9.4-5.3-.4-8.7-14-13.9-16.1-6.9-2.8-11.5 2.7-14.1 2.1-1.8-.4-2-4.8-4.8-6.1-4.5-2-9.6.3-14.3-4.7-10.9-11.5-6.5-42.2-1.5-56.1-9.1 6.7-14.1 14.8-18.5 25-1.6 3.6-2 7.5-3.7 11.3-1 2.1-4.9 9.8-7.8 8.2-.4-.2-6.9-5.9-7.5-6.5-3.9-4.3-13.8-24.4-15-30-2.8-12.9 1.4-26.5 9.5-36.5 4.1-5.1 11.3-9 13-15.5-2.4-2.4-22.3 17.4-24.4 20.1-5.4 6.8-11 15.9-9.6 24.9-8.3.5-10.7-3.3-13.3-10.2-2.7-7.1-7.8-22.8-6.2-29.8 3.7-16.2 21.4-35.8 36.3-42.7 6.2-2.9 13.9-4.1 19.2-8.3 12.5-.8 24.5-2.3 37-1 0 0 .7 2.1.5 3 9.5-8.2 20.6-14.8 33.1-16.9 4.7-.8 14.8-.4 18.1-1.8 1.6-.7 5.2-7.7 7.2-9.9 8-8.4 15.2-9.7 25.4-12.5 1.1-.3.6-1.9.7-2 1.1-.7 25.9-.7 27 0v.2Z" class="fill" data-original-prefix="fill"/><path id="fill-teeth14" fill="#ffffff" d="M1039.1 1601.9c-.8-.5-7.2-15.4-7.9-17.6-4.2-13.6-7-37.9-1.5-51.1 5.8-13.9 10.8-1 20-5 1.9-.8 7.6-6.8 9.2-8.8 2.6-3 3.6-9.1 8-8 12.8 3.1 21.1 24.2 22 36.1 2.3 30.4-23.4 40.7-45.2 53.7-1.2.5-3.6 1.3-4.6.6Z" class="fill" data-original-prefix="fill"/><path id="fill-teeth13" fill="#ffffff" d="M1015.7 1527.3c10.2 8.9 6 44.1 2.3 56.2-1.9 6.4-6 12-8.1 18.3h-2.3c-12.1-7.1-26.3-12.4-36.1-22.9-9.1-9.8-12.3-17.9-11.5-31.5.8-11.8 9-32.3 21.2-35.9 4.8-1.4 5.7 4.5 8.2 7.4 1.8 2.1 8.3 8.8 10.5 9.5 6 1.9 12.5-4.1 15.8-1.3z" class="fill" data-original-prefix="fill"/><path id="fill-teeth12" fill="#ffffff" d="M904 1461c0 2.2-1.1 3.8-.8 6.2s7.4 22.5 8.8 24c3.7 4.1 11.1 2.3 15.9 2.9 4.9 13.5-4.3 23.9-8.6 35.6-2 5.3-8.4 33.1-12.8 34.3-3.3.8-11.7-18-12.8-21.2-6.8-20.9-8.8-51.8 1.8-71.7.6-1.2 7.1-11.6 8.4-10.1Z" class="fill" data-original-prefix="fill"/><path id="fill-teeth11" fill="#ffffff" d="M1144 1564c-1 .7-1.8-.4-2.4-1.1-5.8-5.8-8.7-24.8-11.8-33.2-4.3-11.7-13.8-21.9-8.6-35.6 18.6 2.9 18.2-8.8 23.1-22.4l2.2-9.8c10.2 11.1 15.2 27.6 14.6 42.5-.5 13.7-3.2 35.3-9.5 47.5-.8 1.5-6.9 11.6-7.5 12Z" class="fill" data-original-prefix="fill"/><path id="fill-teeth10" fill="#ffffff" d="M949 1569c5.5 22.1 11.4 45.4 9 68.5-.5 5-1.3 9.2-7 6.9-3.4-1.3-17.5-13.4-19.5-16.5-7.4-11.8.3-39.7 8-50.8 1.2-1.7 7-10.1 9.4-8.1Z" class="fill" data-original-prefix="fill"/><path id="fill-teeth9" fill="#ffffff" d="M1100 1569c3.4-2.9 13.3 14.1 14.5 17 4.8 11.7 9.3 33.5 1 44-2.1 2.7-18.5 16.5-20.9 15.9-1.9-.4-3.4-6.5-3.6-8.4-1-8.7 0-26 1-35 1.1-10.9 6.5-22.5 8-33.5" class="fill" data-original-prefix="fill"/><path id="fill-teeth8" fill="#ffffff" d="M1167 1547c.9-6.7-1-15-.6-21.3.3-6.3 3.7-14.6 3.6-21.2 0-5.7-4.8-19.5-4-24 .5-2.9 3.5-2.8 5.5-4.5 6.2-5.3 10.4-15.8 16.9-4.9 14.2 23.5-1 56.5-18.4 74.4-.9 1-1.3 1.9-3 1.5" class="fill" data-original-prefix="fill"/><path id="fill-teeth7" fill="#ffffff" d="M881.7 1478.3c3.3 2.9-2.8 21-2.8 26.2s2.6 12.6 3.1 18c.7 8 0 16.5-.5 24.5-1.8 0-11.7-13.3-13.3-15.7-11.2-16.8-20.3-43.7-7-61.7 6.2-8.4 9.7.9 14 4.7 2 1.9 5.7 3 6.6 3.9Z" class="fill" data-original-prefix="fill"/><path id="fill-teeth6" fill="#ffffff" d="M1018 1613v16.5c0 .9-10.8 13.2-11.9 14.1-6.3 4.8-8-2.6-10.6-5.5-5.5-6-17.9-.4-24.4-5.6-.9-.7-4.1-8.3-4.1-8.9v-24.5c12.3 3 28.7 18.5 41.4 16.9 3.5-.4 6.1-3 9.6-2.9Z" class="fill" data-original-prefix="fill"/><path id="fill-teeth5" fill="#ffffff" d="M1102.5 1494c3.3-.8 5.3 8.5 6.3 10.7 5 10.5 15.3 30.3 11.4 42.1-2.2 6.7-15.6 23.4-20.4 11-4-10.4-4.1-44.7-1.1-55.5.4-1.6 2.4-7.9 3.8-8.2Z" class="fill" data-original-prefix="fill"/><path id="fill-teeth4" fill="#ffffff" d="M917 1563c-1.6 13.5 2.8 27.4 2 40.5-.5 8.8-4.2 18.6-5.5 27.5-5.8-5.6-10.5-15.7-11.4-23.6-.6-5.2.7-25.8 2.4-30.3.6-1.6 10.5-16.2 12.4-14.1Z" class="fill" data-original-prefix="fill"/><path id="fill-teeth3" fill="#ffffff" d="M1135 1631c-.4-8.9-4.4-17.8-5.1-26.5-1-13.6 3.6-27.7 2-41.5 2.2-2.4 11.9 13 12.5 15 2 6.8 2.7 27.3 1.2 34.3-1.3 6.3-5.5 14.8-10.8 18.7z" class="fill" data-original-prefix="fill"/><path id="fill-teeth2" fill="#ffffff" d="M1154.1 1604.9c-3.4-2-5.1-22.3-3.9-26.2.8-2.6 8.9-5.2 10.2-8.8l5.1-10.9c3.8 3.4 5.1 7.2 4.3 12.2-.7 4.5-5.2 22.3-6.9 26.2-.9 2.2-6.1 9-8.8 7.5" class="fill" data-original-prefix="fill"/><path id="fill-teeth1" fill="#ffffff" d="M885 1559c.4.4.7 7.1 3 10.5 2.7 3.9 10.5 6.9 11 10-.8 4.7-.7 23-4 25.4-2.5 1.8-7.7-4.5-8.7-6.7-1.6-3.6-6.3-22.5-7-27-.6-3.9 2.5-15.6 5.8-12.3Z" class="fill" data-original-prefix="fill"/><path id="shading-mouth2" fill="#aaaaaa" d="M918 1443.5c.8 5.3 5.6 13.8 10.1 16.9 11.5 8.3 16.2-.3 22.4-9.4 2.5 5.4 3.4 11.5 6 17 1.4 2.8 5.7 12 7.5 5.5l4-11.5c1.6 7.5 6.3 15.4 11.5 21 4.3 4.7 18.8 15.4 24.6 9.6 2-2.1 8.3-17.9 10.8-22.2 1.2-2.2 7.8-13.8 9.7-13.3 1 .2 8.5 13.2 9.7 15.3 2.4 4.5 7.3 17.7 9.8 20.2 3.8 3.8 10.5.4 14.4-1.8 10.5-5.9 18.5-17.2 21.7-28.8l4.2 12.3c.3 1.2 1.9 2.4 2.8 1.7.6-.4 5.8-11.3 6.5-13 .8-2 2.8-12 4-12 6.8 10.7 12.9 18.4 24.5 7.5 8.6-8 9.3-23.8 7-34.5 3.5-3.1 21.1 16.1 26.6 16.9 9.1 1.4 17.6-11.8 19-19.9 3.5-20.5-12.9-39.2-30.9-46.2l-12.7-4.8c15.4 0 28.2 2.9 41.1 11.4 4.8 3.1 12.2 10.9 17.6 11.4 6.2.6 10.1-4.1 10-10-.4-19.3-25.8-38.1-39.7-48.8 15.4 2.4 34.6 11.8 45 23.5 7.8 8.8 19.1 25.1 19.1 37s-6.4 28.5-9.2 32.8c-3.3 5.3-11.7 5.4-13.4 10.6-.9 8.1-2.1 16.4-2.5 24.5-1.5 29 1.4 45.2-10.8 73.2-3.6 8.2-12.7 20.4-14.9 27.1-4.2 12.8-.7 26.4-9.1 38.9-3.2 4.8-8.4 6.7-11.2 10.8-1.7 2.5-2.4 6.1-4.2 8.8-4.5 6.7-14.6 23-21.6 8.9-1.6-3.3-1.3-12.9-6.7-6.2-1.4 1.7-1.9 4.4-3.5 6.5-3.7 4.7-17.7 19.6-23.5 19.5-2.2 0-4.5-4.1-6.6-5.4-7.9-5-21.1-6.3-29.2-1.4-7.3 4.4-9.5 13.6-18.1 6.8s-6.4-10.8-20.1-9c-5.6.7-11.4 12.6-16.9 12.1-2.8-.2-11.4-11.1-18.5-12.6-6.3-1.3-17.5.7-23 4.2-2.6 1.7-4.1 5.6-7.5 5.4-5.7-.3-19.8-15.8-23.6-20.5-1.2-1.5-4.4-10.6-7.1-6.9-2.5 3.4-.6 9.9-7.2 12.7-7 3-14.9-11.2-18.1-16.4-1.2-1.8-1.2-4.3-2.6-6.4-2-3-6.8-5.4-9.5-8.5-10.4-11.9-6.7-27.7-10.7-41.3-.8-2.6-5.6-8.5-7.3-11.7-18.4-35.7-16.4-45.6-18.4-84.6-.4-7.7-.6-20.7-2.2-27.8-1.5-6.2-11.1-6.1-14.2-11.8-3.4-6.1-9.3-29.6-8.6-36.4 1.2-10.3 16.2-31.2 24-38 10.5-9.2 26.2-16.5 40-18.5l-21.5 17c-7.2 6.4-26.8 32-14.8 39.9 9 5.9 16.7-4.5 23.7-9.1 12.7-8.4 25.3-11.8 40.7-11.8l-17.3 7.2c-18 9.4-33.1 32.7-22.1 52.8 1.7 3.1 8.6 10.4 12 11.1 9.1 1.7 20.7-15.4 29.5-18 .6 6.4-.9 14.3 0 20.5zm-37.1 40.6c-12.3-.5-17.1-20.2-22.8 1.5-3.4 13 1.2 26.4 9.4 36.5 1.5 1.8 12.7 13.1 13.9 12.9.8 0 2.5-2.3 2.8-3.2 2.9-7.1-3.2-12.2-4.2-19.2-1.5-9.8 0-18.7.9-28.4Zm301.8-8.9c-3.2.8-6.3 6-8.8 7.3-2.1 1.1-7.2 1-7.8 3.2-.5 1.7 3 10.8 2.9 14.8 0 3-1.5 13.9-2.2 16.8-.9 3.6-3.9 5.7-3.9 10.2s1.4 7.1 3.7 7.4c1.9.3 15-14.4 16.8-17 5.7-8.5 9-18.8 7.3-29.2-.5-3-4.4-14.5-8-13.6Zm-284.8 10c-4-2.3-6.5 9.9-6.8 12.5-1.2 10.5 3 38 8.7 47.1 1.9 3 5.4 6.9 9.2 7.3 3.7-15.6 12.6-29.2 21-42.5-2.3-.4-1.7-2.9-2.7-3.5-1.5-.9-7-1.9-9.7-3.1-4.7-2.2-12-7.7-15.6-11.4-1.2-1.2-3.8-6.2-4.2-6.3ZM1139 1552c8.3-2 11.9-12.2 13.9-19.6 3.1-12.1 6.1-33.4 1.1-44.8-3-6.9-5.8 1.7-8.3 4.1-3.9 3.8-11 9.3-16 11.6-2.5 1.1-7.8 1.8-9.1 2.7-.7.5-.5 1.8-1 2.7-.3.4-1.7.4-1.6.9 0 1 7.9 12.3 9.2 14.8 4.8 8.8 9.1 18 11.8 27.7Zm-197.7 5.7c8.1 8.1 9.5 0 10.5-7.3.8-5.6 2.7-20.6 1.7-25.4-3.6-17.2-21.3-15.9-21.6 3.6 0 6.8 4.6 24.3 9.4 29.2Zm161.5-44.5c-5 1.3-8.5 9.3-8.8 14.2-.2 4 2.4 28.5 3.8 31.3 2.5 5 7.5 0 9.8-2.7 6.8-8.3 11.6-30.7 4.5-39.5-2.7-3.3-4.8-4.4-9.2-3.3zM1023 1544c-.7-.7-.8-7-5.1-9.4-8.9-5-21.8-.8-32-4-10.4-3.3-9.4-13.1-16.1 1.8-2.9 6.4-9.1 24.4-6.3 30.7 1.1 2.4 17.8 15.6 21.2 17.8s18.2 11.7 21.1 10c3.1-5.6 9.3-9.5 12.6-14.9 1.8-2.8 4.1-11.5 4.6-11.9 1.6-1.7 1.7.5 2.1 1.4 1.6 3.6 2.1 6.8 4.5 10.5 3.3 5.2 9.2 9.3 12.4 14.6 3.1 1.9 15.5-5.9 18.9-8.1 4.5-2.9 22.9-17 23.9-21.1 2.2-9.7-6.6-28.3-10.9-37.2-4.9 1-7.8 5.2-12.7 6.7-9.2 2.8-28.2-1.6-33.7 6.3-.9 1.2-2.6 8.9-4.5 7zm-136 18c-.7-.6-3.5 0-4.5.9-6 6.2 2.4 31.6 14.6 27.6 4-1.3 3.8-9.4 2.8-12.9-1.1-3.9-7.2-4.1-9.8-7.2-2.1-2.5-2.7-8.2-3-8.5Zm274.1 0c-.3.3-.9 6-3 8.5-2.6 3.1-8.7 3.3-9.8 7.2-1 3.4-1.2 11.6 2.8 12.9 13.4 4.4 20.2-24.5 14.1-28.1-.9-.5-3.5-.9-4-.4Zm-216.4 7.2c-1.5.4-5.1 4.6-6 6.1-3.4 5.6-5.6 32.3-4.8 39.3 1.3 10.9 15.2 18 19.5 3.5 1.7-5.6 2.6-21.4 2.5-27.6 0-1.1-5.8-19.7-6.5-20.5-1.2-1.4-3.2-1.3-4.8-.8Zm153.3-.1c.2 6.6-5.4 14.7-6 20.6-.5 4.5 1 25.3 2.4 29.4 4.2 12.1 16.9 7.3 19.1-2.9 1.1-5.2 0-16.8-.6-22.6-1-9.7-1.7-25.5-14.9-24.5m-180 1.9c-20.5 3.8-17 28.7-9 43 4 2.9 10.4-17 10.7-19.8.9-7.5-2.9-15.5-1.8-23.2Zm218 43c2.5 1.8 7.2-9.1 7.7-10.8 3.9-12.8 1.6-30.1-13.7-32.2.5 7.4-2.8 16.2-1.9 23.4.3 2.7 6.4 18.5 7.9 19.6m-148.2 10.2c1.4.8 4.8 8.6 9.5 11 11.1 5.8 20.2-6.4 20.7-16.7.8-13.7-7.2-7.7-16.5-8.6-8.4-.8-15-4.8-21.8-9.2-5.5-3.5-13.6-14.6-14.7-1.4-.5 5.1 1.4 7.5 1.8 11.2s-2 5.9.5 10.7c4.8 9.3 18 1.3 20.7 2.8zm93.1-31.1c-2.1-1.5-19.7 12.7-23.9 14.4-2.3 1-7.9 2.3-10.5 2.5-10.5.9-18.8-5.4-16.4 11.4 1 7.3 7.9 15.8 16 15.1 9.4-.8 11.9-11.6 14.6-12.4 4-1.3 12.3 5.7 18.9-1.1 4.3-4.4 1.3-8.4 1.5-12.5 0-2.3 1.9-4.8 2-8.1 0-1.9-.8-8.5-2.2-9.4Z" class="outline shading" data-original-prefix="shading" opacity="0.5" style="opacity: 0.5"/><path id="shading-mouth1" fill="#aaaaaa" d="M1041 1343c6.1.5 12.7-1 17.5-5 1.5-1.3.9-3.7 2.8-2.9 10.1 7.9 37.9 17.4 43.8 28.2 3.6 6.5 4.6 17.5-1.8 22.6-5.6 4.5-20.8 10.8-28 15-4.9 2.8-9.7 6.6-14.7 9.3-7.4 4.1-25.5 14.5-32.6 16.4-2.9.8-5.2.8-8.1 0-14.5-3.8-42.2-22.5-56.3-30.7-6.2-3.6-21.2-9.1-23.2-15.8-5.5-18.4 15.7-28.3 28.7-35.4 2.3-1.2 15.5-8.6 16.5-8.7 2.9-.3 4.2 2.9 6.7 4.2 4.2 2.3 10 3.2 14.7 2.8-.3-5.1-3.3-11.3-1.8-16.3.5-1.6 12.5-13.9 14.5-14.4 3.9-1 8.2-.3 11.6 1.9 1 .7 10.8 11.1 11.2 11.8 2.1 5-1.2 11.8-1.5 17" class="outline shading" data-original-prefix="shading" opacity="0.5" style="opacity: 0.5"/><path id="outline-mouth3" fill="#000000" d="M889 1333c-5.3 4.2-13 5.4-19.2 8.3-14.9 6.9-32.6 26.5-36.3 42.7-1.6 7 3.5 22.7 6.2 29.8 2.6 6.9 5 10.8 13.3 10.2-1.4-9 4.2-18.1 9.6-24.9 2.1-2.6 22-22.5 24.4-20.1-1.7 6.5-8.8 10.4-13 15.5-8.1 10-12.3 23.6-9.5 36.5 1.2 5.6 11.1 25.8 15 30 .6.7 7.1 6.3 7.5 6.5 3 1.5 6.9-6.1 7.8-8.2 1.7-3.8 2.1-7.7 3.7-11.3 4.4-10.2 9.4-18.4 18.5-25-5.1 13.9-9.5 44.6 1.5 56.1 4.8 5 9.9 2.7 14.3 4.7 2.8 1.3 3 5.7 4.8 6.1 2.6.6 7.2-4.9 14.1-2.1 5.2 2.1 8.6 15.6 13.9 16.1 2.5.2 10.2-12 18.4-9.4 6.3 2 15.5 20.8 23.6 23.5 6.9-4 4.5-12.6 5.8-18.9 1.5-7.6 8.3-12.6 9.4-22.6.8-7-1.6-26-4.4-32.4-.9-2.1-5-10.5-6-11.9-3.1-4.5-15.9-10.2-20.8-7.1l-4.2 11.1c-4.8-4.4-9.5-9.2-14.5-13.5-3.7-3.2-10-6.8-13-9.9-4-4.2-15.5-27.8-15.7-33.2 0-3.1 8.4-13.8 10.8-16.8 1.4-1.8 9.5-11.6 10.2-12.2 5.4-4.1 29.2-2.8 35.7.2 8.4 3.8 12.4 12.1 18.5 17.5 5.2 4.5 2.5-1.7 2.5-3.6s.9-3.2.8-4.8c-.2-5.4-6.7-9.2-9.9-13.1-2-2.4-5.5-6.3-7-8.3-.8-1-4.7-7.3-4.8-8-.7-3.3 8.6-12.4 11.3-13.2 3.6-1-.5 5.5-.5 6.6-.4 5.2 5.9 4.1 9.3 5.6 1.2.5 3 2.7 3.2 2.7s2-2.2 3.2-2.7c8-3.5 11.7.6 7.3-12.2 1.6-1.7 12.5 9.1 12.9 11.7.6 4.2-17.5 23.2-21.1 27.5l-.8 12.7c1.7.4 2-.7 3-1.5 6.5-5 11.1-13.4 19-17 6.8-3.1 28.3-4.1 34.7-.8.7.3 8.8 10.1 10.2 11.8 2.6 3.1 11.9 14.4 11.8 17.8 0 2.8-5 14.1-6.6 17.3-7.1 15.2-9.7 14.8-21.2 24.8-5.3 4.6-10.4 9.6-15.5 14.5-2.2.9-1.4-5.6-2.2-7.7-3.4-8.6-19-1.6-22.7 3.8-.6.8-6.7 12.4-6.9 13.1-1 3.2-.3 6.1-.9 9.1-2.6 12.3-5.2 19.6.2 32.2 1.5 3.5 4.6 6.8 5.8 10.2 2.5 7.2-.5 15.2 5.8 21.2 9-2.3 17.4-21.3 24.4-23.6 7.7-2.4 15.9 9.6 18.4 9.4 5.6-.5 9.8-18.8 18.7-17.5 2.3.3 7.6 3.9 9.4 3.5s2-4.8 4.8-6.1c3.9-1.8 8.9 0 13.3-3.7 11.5-9.9 8.1-43 2.5-56 1.6-1.7 11.3 10.4 12.4 12.1 5.1 7.8 6.1 15.5 9.7 23.3 1 2.1 4.8 9.8 7.8 8.2.4-.2 6.9-5.8 7.6-6.5 7-7.6 16-30.2 15.4-40.5-1.3-22.7-10.7-22.7-21.5-37.5-5.3-7.2 2.8-2.4 6 0 11.8 8.6 28 25.5 26.5 41 11.4 1.6 13.7-11.7 16.3-20.2 4.6-15.6 5.3-18.8-3.1-33.4-7.4-13-16.3-22.7-29.9-29.1-6-2.8-14.1-4.1-19.2-8.3 9.3.7 19.7 2.8 29.2 5.3 7.4 1.9 14.4 3.9 20.7 8.3 3.2 9.3 27.6 34.6 28 42 .2 3.7-8.2 22.5-10 27.9-2.5 7.2-2.6 16-10 21-1.9 1.3-8.4 2-9 3.2-4.1 7.9-1.4 38-1.9 48.8-1.1 21.6-7.6 43.1-20.5 60.5-.9 1.2-2.6 1.5-3.6 2.7-4.3 5.6-2.8 18.6-4.3 26.5-1.2 6-5 13.1-5.6 18.4-.4 3.5 1.3 7.7.8 9.7s-10.7 8.6-13.2 9.9c-2.2 1.2-5.7 1.5-6.5 2-.6.4-5.4 10.9-7.2 13.3-2.1 2.7-11.1 11.3-14 12.1-4.1 1.2-7.9-10.3-9.9-13s-2.3 2.3-3.6 4.3c-4.3 6.7-25.1 26.6-32.4 28.6-1.7.5-3.3.7-5 .5-.4-5.9 3.2-9.9-1.5-15.1-8.2-9-20.9-.3-24.3 8.8-1.8 4.9-1.6 20-8.6 18.1-4.6-1.3-20-25.6-23.2-30.8-5.7 8.9-12.2 19.9-19.5 27.4-11.2 11.7-9.9-11-13.8-18.2-3.8-7.1-14-12-21.1-6.7-6.7 5-2.9 9.6-3.1 16.4-3.5 3.5-24.3-13.8-27.5-17-1.3-1.3-10.5-12.2-11-13-.7-1.4-.2-6.3-2.6-3.3-2.1 2.7-6.2 14.3-10.2 13.3s-12-10.2-13.7-12.4c-2.1-2.7-6.6-12.8-7.2-13.2-.8-.5-3.8-.6-5.8-1.7-2.3-1.2-11.9-7.4-13-9-2.1-3.2.4-6.9 0-11-.7-6.8-5.9-15.3-6.8-24.2-.5-5 .6-10.7-.6-15.4-1-4-8-10-10.7-14.3-15.3-24.4-17.6-52.1-17.9-80.2 0-5.4 3-18.2 0-22.8-.8-1.2-7.8-1.9-10.4-3.8-7.2-5.3-6.2-13-8.6-20.4-1.9-6-10.7-24.3-9.8-28.7.5-2.7 4.3-7.5 6-10.1 7-10.8 15.7-20.6 22.5-31.5 5.9-4.3 13.2-6 20.1-7.9 9.7-2.6 19.8-4.7 29.2-5.3h.2Zm15 128c-1.4-1.5-7.8 8.9-8.4 10.1-10.6 19.9-8.6 50.8-1.8 71.7 1.1 3.3 9.4 22.1 12.8 21.2 4.4-1.1 10.8-28.9 12.8-34.3 4.3-11.7 13.6-22.1 8.6-35.6-4.8-.6-12.2 1.2-15.9-2.9-1.4-1.5-8.5-21.7-8.8-24s.8-4 .8-6.2Zm240 103c.6-.4 6.8-10.5 7.5-12 6.3-12.1 9-33.7 9.5-47.5.6-14.9-4.3-31.4-14.6-42.5l-2.2 9.8c-4.9 13.6-4.6 25.2-23.1 22.4-5.2 13.7 4.3 23.9 8.6 35.6 3.1 8.4 6 27.5 11.8 33.2.7.7 1.4 1.8 2.4 1.1Zm-262.3-85.7c-1-.9-4.6-2-6.6-3.9-4.2-3.9-7.8-13.1-14-4.7-13.3 17.9-4.1 44.9 7 61.7 1.6 2.4 11.5 15.7 13.3 15.7.5-8 1.2-16.5.5-24.5-.4-5.4-3.1-12.3-3.1-18s6-23.3 2.8-26.2ZM1167 1547c1.7.4 2-.5 3-1.5 17.4-17.9 32.6-50.9 18.4-74.4-6.5-10.8-10.8-.4-16.9 4.9-2 1.7-5 1.6-5.5 4.5-.8 4.5 4 18.3 4 24s-3.3 14.8-3.6 21.2c-.3 6.3 1.6 14.6.6 21.3m-64.5-53c-1.4.3-3.3 6.6-3.8 8.2-3 10.7-2.9 45.1 1.1 55.5 4.8 12.4 18.2-4.3 20.4-11 3.9-11.7-6.4-31.5-11.4-42.1-1-2.2-3-11.4-6.3-10.7Zm-86.8 33.3c-3.2-2.8-9.7 3.2-15.8 1.3-2.1-.7-8.7-7.5-10.5-9.5-2.6-2.9-3.4-8.8-8.2-7.4-12.2 3.5-20.5 24.1-21.2 35.9-.9 13.6 2.4 21.7 11.5 31.5 9.8 10.4 24 15.7 36.1 23h2.3c2.1-6.4 6.2-12 8.1-18.4 3.7-12.2 7.9-47.3-2.3-56.2zm23.4 74.6c1.1.7 3.4 0 4.6-.6 21.8-13.1 47.5-23.3 45.2-53.7-.9-11.9-9.2-33-22-36.1-4.4-1.1-5.5 5-8 8-1.7 1.9-7.3 7.9-9.2 8.8-9.2 4-14.3-9-20 5-5.4 13.2-2.6 37.5 1.5 51.1.7 2.2 7.1 17.1 7.9 17.6ZM885 1559c-3.2-3.3-6.4 8.4-5.8 12.3.7 4.5 5.4 23.4 7 27 1 2.2 6.2 8.5 8.7 6.7 3.4-2.4 3.2-20.7 4-25.4-.5-3.1-8.3-6.1-11-10-2.3-3.5-2.6-10.1-3-10.5Zm269.1 45.9c2.7 1.5 7.8-5.3 8.8-7.5 1.7-3.8 6.1-21.6 6.9-26.2.8-5-.5-8.8-4.3-12.2l-5.1 10.9c-1.4 3.6-9.4 6.1-10.2 8.8-1.2 3.9.5 24.2 3.9 26.2M917 1563c-1.9-2.2-11.8 12.5-12.4 14.1-1.7 4.6-3 25.2-2.4 30.3.9 7.9 5.6 18 11.4 23.6 1.4-8.8 5-18.6 5.5-27.5.8-13.1-3.7-27.1-2-40.5Zm218 68c5.3-3.9 9.4-12.4 10.8-18.7 1.5-7 .8-27.4-1.2-34.3-.6-1.9-10.4-17.4-12.5-15 1.5 13.8-3.1 28-2 41.5.7 8.7 4.6 17.6 5.1 26.5zm-186-62c-2.4-2-8.2 6.4-9.4 8.1-7.7 11.1-15.4 39-8 50.8 2 3.2 16 15.2 19.5 16.5 5.6 2.2 6.5-1.9 7-6.9 2.4-23.1-3.5-46.4-9-68.5Zm151 0c-1.5 11-6.9 22.6-8 33.5-.9 9-2 26.3-1 35 .2 1.9 1.7 8 3.6 8.4 2.4.6 18.8-13.3 20.9-15.9 8.3-10.5 3.8-32.3-1-44-1.2-2.9-11-19.9-14.5-17m-82 44c-3.5 0-6.1 2.5-9.6 2.9-12.7 1.6-29.1-13.9-41.4-16.9v24.5c0 .6 3.2 8.2 4.1 8.9 6.5 5.2 18.9-.4 24.4 5.6 2.6 2.9 4.3 10.3 10.6 5.5 1.1-.8 11.9-13.1 11.9-14.1v-16.5Z" class="outline" data-original-prefix="outline"/><path id="outline-mouth2" fill="#000000" d="M1122 1332c-.2 0 .2 1.6 0 1.9-1 .8-8.1-5.8-10.2-7.1-10-6.1-19.8-8.3-31.2-9.8-2.9-.4-6.9.7-9.5-.5-1.5-.8-4.5-7.4-6.5-9.5-7.8-8.7-15.6-10.2-25.8-13-1.1-.3-.6-1.9-.7-2 3.1-3.8 16.2-9.3 20.8-9.8 7.9-.9 5.5 4.4 6.5 9.1 2.3 10.7 9.3 19.6 21.3 18.8 5.1-.3 5.6-4 7.9-4.1 1.4 0 6.6 2.9 8.2 3.8 9.4 5.2 15 12.5 19.3 22.2z" class="outline" data-original-prefix="outline"/><path id="outline-mouth1" fill="#000000" d="M1011 1292s.4 1.7-.7 2c-10.2 2.8-17.4 4.1-25.4 12.5-2 2.1-5.6 9.2-7.2 9.9-3.4 1.4-13.5 1-18.1 1.8-12.5 2.1-23.6 8.7-33.1 16.9.2-.9-.5-2.8-.5-3 .8-2.7 8.7-13.3 11-15.6 2.5-2.4 14.7-10.5 17.6-10.4 2.7 0 3 5.1 11.9 3.9 10-1.3 16.2-10.1 17.5-19.6.4-2.6-2.4-6.7 2.8-8.2 3.5-1 21.7 5.6 24.3 9.8Z" class="outline" data-original-prefix="outline"/>
    </g><g class="trait-group" data-category="eyes" id="eyes-specs">
      <g id="glasses-fill"><path id="fill-specs-main" fill="#ffffff" d="M1337.7 1024.3c5.6 3.4 36.1 66.5 39.3 76.2 0 6.8 8.2 17.3 1.7 22.2-2.1 1.6-13.8 5.7-17.7 7.8-9.3 4.9-18.6 9.9-27.5 15.5-1 30.8-7.2 66.9-28.5 90.5-16.1 17.9-39.8 29.8-61.9 38.6 2.4 54.1-38.2 93.3-92.7 85.8-22.1-3-44.1-17.2-56.1-35.9-1.6-2.4-6.4-13.1-7.3-13.6-5.7-3.4-7.8 2.4-9.5 2.6-1.8.2-8.1-2.2-9.6-3.5-2.3-1.9-6.4-11.5-5.8-14 .4-1.7 3.3-1.2 3.8-1.7 1.7-2-2.1-11.4 7.7-12.8 3.9-.6 10.2 1.9 8.4-3.4-10.8-9-23.6-16.9-34-26.2-7.3-6.4-13-14.8-20.5-20.5-2.7 1.3-6.1-.6-8.4.4-1.8.8-13.7 15-17 18.1-10.3 9.5-22.4 16.9-33.1 25.9l-.9 5.6c3.4.2 6.5-.8 9.5.9 5 2.8 3.8 11.2 4.6 12 1.1 1.1 4.1-2.4 2.6 6.3-1.2 6.7-5 11-11.7 12.3-2.9.5-11 0-11.9.6-.3.2-2.5 5.7-3.4 7.1-15.1 24.2-39.3 39.7-68.3 40.7-50.2 1.7-84.5-36.9-83-86-34.1-13.4-67.2-32.1-81-68-7.5-19.5-10.7-41.2-11-62-9.7-5.8-19.6-11.2-29.5-16.5-4.4-2.4-15.9-6.2-18.1-9.9-3.2-5.6 1.4-5.9 2.8-9.3 1.1-2.6.9-6.7 2.1-9.9 7.4-20.6 26-58.6 39.2-75.6.7-.9 2.4-.4 3.1-1.3 24.4-32.2 46.9-61.4 77.9-87.8 140-119.1 324.7-118.5 464.5.5 24.6 21 44.1 44.7 64.5 69.5 2.9 3.5 10.4 15.7 12.5 17.5 1.6 1.3 3.2.6 4.2 1.3" class="fill" data-original-prefix="fill"/><path id="fill-glasses4" fill="#ffffff" d="M1071.1 1285c7.4.7 5.2 3.1 6.2 8.2s7.1 19.1-.8 19.8c-9.5.9-10-22.2-5.4-28" class="fill" data-original-prefix="fill"/><path id="fill-glasses3" fill="#ffffff" d="M974.5 1285c5.5-1.1 8.2 22.3 0 27.1-3 1.8-5.7 1.1-6.4-2.4 2.5-3.1 4.7-24.4 6.3-24.7Z" class="fill" data-original-prefix="fill"/><path id="fill-glasses2" fill="#ffffff" d="M882.8 1198.3c64.7-4.8 104.1 69 70.6 122.6-27.8 44.4-91.1 51.9-125.4 10.6-40.6-49-9.5-128.4 54.8-133.2" class="fill" data-original-prefix="fill"/><path id="fill-glasses1" fill="#ffffff" d="M1155.8 1198.3c64.2-5 104.6 68 73.4 122.4-29.1 50.6-100.1 49.9-131.6 2.2-32.7-49.4-2.1-119.9 58.2-124.6" class="fill" data-original-prefix="fill"/></g><g id="specs-shading"><path id="shading-eyes10" fill="#aaaaaa" d="M942 857c-15.4 14.8-36 21.4-52.9 34.6-23.5 18.3-52 55.5-66.2 81.8-8.1 14.9-14.5 24.7-6.4 41.7 4.1 8.5 19.1 28 26.6 33.4 15.4 10.9 44.6 22.3 62.6 32.4s34.6 19.8 50.9 31.1c10.6 11.9 32.8 64.7 44.2 70.8 3.5 1.9 11.6 2.6 13.8 4.2 4 2.9 5.8 15.4 6.5 16 .2.2 5.7.2 5.9 0 .6-.6 1.7-13 6.5-16s11.9-1.4 17.6-7.4c6.1-6.6 15.9-26.1 21.2-34.8 5.1-8.6 9.8-18.8 15-27 7.3-11.4 40-28.5 53.1-35.9 18.6-10.4 48.7-22.1 64.6-33.4 7.8-5.6 25.9-29.3 28.6-38.4 3.2-10.7 1.5-15.8-2.7-25.4-12.1-27.9-46.6-72.6-70.4-91.6-16.3-13-35.7-21-52.6-33.5-1.1-.8-2.5 0-1.9-2.6 32.2 6.4 62.4 20.5 90.7 36.8 34.1 19.7 69.5 46.9 95.8 76.2 7.4 8.2 24.8 28.6 29.3 37.7 1.2 2.3 1.6 3.5.5 6.1-1.7 4-26.2 9.5-31.6 11.5-55.6 20.7-105.3 42-152.6 78.4-28.9 22.2-42 38.8-62.3 68.7-5.3 7.8-6.4 14-14.3 20.7-2.2 1.9-21.8 15.5-23.2 15.8-5.2 1.2-10.1-.7-14.7-.7s-10.3 2.1-14.9.7c-1.3-.4-20.1-14-22.2-15.8-7.7-6.7-8.1-11.5-13.1-18.9-18.8-27.7-31.9-45.6-58.5-66.5-49.1-38.6-98.8-60.3-156.9-82.1-5.6-2.1-29.8-7.8-32-10.9-3-4.2 2.2-9.9 4.7-13.5 28-40.6 71.6-78 113.7-103.3 30.1-18 63.1-34 97.7-40.8Z" class="outline shading" data-original-prefix="shading" opacity="0.5" style="opacity: 0.5"/><path id="shading-eyes9" fill="#aaaaaa" d="M1376 1124c-.3.4-7.4 2.6-9 3.5-8.1 4.2-26.1 12.6-32.3 17.7-2.4 1.9-.9 4.2-2.2 5-33.1 10.2-66.4 15.4-96.3 33.5-11 6.7-21 14.9-32.1 21.4-.2 1.3-.3 1.3.6 2.1 2.7 2.4 18.8 12.5 18.2 16.2l-90.9 131.2c-2.9 1.8-16.9-7.8-19.9-10.1-5.8-4.6-12.7-11.9-16.9-18.1-2.6-3.8-7.4-10.4-5.4-15l77.2-115.8-2-1.5c12.2-6.5 23.9-14.3 35.3-22.2 18.4-12.8 35.3-28.2 53.4-40.6 22-15.1 46.6-26.7 69.1-40.9l33.2.3c4.2 2.6 10.2 24.5 15.6 29.4 1 1 5.9 2.1 4.4 4Z" class="outline shading" data-original-prefix="shading" opacity="0.5" style="opacity: 0.5"/><path id="shading-eyes8" fill="#aaaaaa" d="M887.7 1195.2c2.5-.8 12.6.4 15.7.9 11.4 1.8 24.3 7.6 33.5 14.5 2.4 1.8 8.4 5.8 8 8.7L852 1353.6c-2.8 1.5-14.6-7.2-17.5-9.6-10.7-9-18.8-22.1-23.3-35.3z" class="outline shading" data-original-prefix="shading" opacity="0.5" style="opacity: 0.5"/><path id="shading-eyes7" fill="#aaaaaa" d="M883 1194c.3 1.3-1.8 1.6-2.7 1.7-9.6 1.7-15.8 2.3-25.2 5.8-3.3 1.2-7.8 5.1-11 4.1-16.1-10.4-33.1-24.7-50.6-32.5-23.4-10.4-53.3-14.4-77.7-23.1-1.3-.7 0-3.1-2.2-5-6.6-5.3-25.2-13.8-33.7-18.3-1.4-.7-8.7-2.5-7.7-4.3.7-1.3 3.4-1.3 4.9-3.1 3.6-4.4 11.6-27.2 15.1-28.9h33c21.5 12.9 44.6 24.7 65.5 38.5 18.6 12.3 35.7 27.9 54.2 40.8 12.3 8.6 25 17.1 38.3 24.2Z" class="outline shading" data-original-prefix="shading" opacity="0.5" style="opacity: 0.5"/><path id="shading-eyes6" fill="#aaaaaa" d="M1093 1232c-2.8 6.2-5.8 12.1-7.7 18.8-2.5 8.8-3.8 18-3.3 27.2-.7.8-4-2-4.9-2.6-17.7-12.6-34.5-26.8-48.8-43.3l-9.3.4c-14.2 17.8-32.7 30.8-50.5 44.5l-.6-11.4-2.9-8.6-69 103.5c-5.2 4.4-24.9-.6-32-.5l89-130c3.2.7 4.7 2.9 8.4 2.9 7.9 0 21.6-3.5 29.8-5.2 5.5-1.2 16.2-5.3 20.6-5.5 2.8-.1 7.5 3.8 11.7 3.8s8.2-2.8 12-3.9c13.6 3.4 28.3 8.1 42.1 9.8 5.2.6 10.3 1.1 15.4.1" class="outline shading" data-original-prefix="shading" opacity="0.5" style="opacity: 0.5"/><path id="shading-eyes5" fill="#aaaaaa" d="m1144 1360 87.5-125c3 1.4 11.2 24.7 10.3 28.2l-64.4 95.7c-6.1 6.3-25.1 1.7-33.5 1Z" class="outline shading" data-original-prefix="shading" opacity="0.5" style="opacity: 0.5"/><path id="shading-eyes4" fill="#aaaaaa" d="M1071.7 1282.2c1.6-.4 4.8-.8 5.8.8.9 7.7 7.5 18.3 4.9 26-.4 1.2-3.9 5.7-5.1 5.9-.6.1-10.9-2.9-10.3-5.3 1.3-7.2-5.3-25.1 4.7-27.3Z" class="outline shading" data-original-prefix="shading" opacity="0.5" style="opacity: 0.5"/><path id="shading-eyes3" fill="#aaaaaa" d="M971.6 1282.1c4.2-1.4 8.6 1.1 9.3 5.4.6 3.5.7 18.6 0 21.9-.4 2.4-2.3 3.1-4.6 3.4-19.8 3.2-8.2-19.2-6.2-29.2.2-.9.6-1.3 1.5-1.6Z" class="outline shading" data-original-prefix="shading" opacity="0.5" style="opacity: 0.5"/><path id="shading-eyes2" fill="#aaaaaa" d="M945 856c.7.3-.6 1.7-2 1-.7-.3.6-1.7 2-1" class="outline shading" data-original-prefix="shading" opacity="0.5" style="opacity: 0.5"/><path id="shading-eyes1" fill="#aaaaaa" d="M1105 856c.7.3-.6 1.7-2 1-.7-.3.6-1.7 2-1" class="outline shading" data-original-prefix="shading" opacity="0.5" style="opacity: 0.5"/></g><g id="specs-outline"><path id="outline-eyes5" fill="#000000" d="M707 1142c3.2.8 8.9.4 13 1.5 34 8.5 68.4 21.4 97.9 40.1 3.5 2.3 20.3 14.8 21.8 15.2 3.4.8 11.4-4.8 15.2-6.3 45.9-18 92.9 5.3 112 49.1 4.1 1 25.9-9.5 27-8.6.6 2.6-.8 1.8-1.9 2.6-4.7 3.5-17.6 12.7-19.6 17.5-1.2 3 .8 14.8 1.5 19 0 .6-.3 1.5 0 1.9.5.5 5.9 1.1 8.4 3.1s3.4 6.9 5.9 7c23.7-5.5 48.3-4.9 72 0 3.1-7.4 7.4-7.8 13.6-10.9.4-.2 1.8.6 2.1-.6-1.3-5.1 2.9-13 1.6-17.4-1.9-6.2-16.2-14.9-20.6-20 5-1 23 8.4 26 6.6.7-.5 6.3-12.5 8-15.1 20.5-31.9 58.2-46.8 95-37 8.3 2.2 15.2 6.7 23.3 9.4 4.4-3.2 8.6-6.9 13.2-9.9 33.6-22.1 67.4-35.5 106.5-45.5 3.6-.9 9.3-.7 12-1.5 2.8 5.2 2.2 12.1 3.3 18.2.8 4.3 4.4 14.4 4.5 17.5 0 1.9-10.5 15.4-8.8 17.3 2.2 2.4 7.6-14.3 12-10.5 0 2.3.2 4.6 0 6.9-1.5 10.2-12 44.2-17.1 52.9-1.5 2.6-3.9 5.8-5.8 8.2-2.7 3.3-26.3 27.8-28.2 28.8-7.4 3.7-50.2 9.6-51.7 11.9-3.2 5 4.2.6 6.7.2 3.7-.6 10-1.1 13.8-1.2 3.2-.2 8-.4 11 0 5.7.7-3.1 3.3-4.2 3.8-6.2 3-27.3 11.8-30.8 15.2-2.4 2.2-6.3 12.4-8.7 16.3-31.4 51.3-103.9 58.2-141.2 9.6-1.6-2.1-7.9-13.1-8.6-13.5-.9-.6-2.8 1.4-4.6 1.5-10.4.9-18.6-3.4-22.6-13.3-1.2-3.1-1.7-9.3-3.2-10.8-1.9-1.8-12.1-3.4-15.2-3.8-9.9-1.2-24.9-1.2-34.7 0-2.4.3-15.8 2.9-16.5 4-.6 1 .2 3.7-.2 5.3-3.2 13.1-14.1 22.2-27.9 17.6-31.1 60.1-112.8 60.8-148.5 3.9-2.1-3.3-7.3-15.2-8.6-16.4-3.1-2.9-26.3-12.8-32.3-15.7-1.1-.5-9.9-3.1-4.2-3.8 2.5-.3 6.5-.2 9.1 0 4.5.2 11.4.7 15.7 1.3 1 .2 10.7 4.5 7.3.7-1.1-1.2-12-3.9-14.5-4.5-11-2.6-29.1-3.5-38.4-8.6-4.7-2.6-29-29.2-32.5-34.6-3.8-5.9-6.3-13.8-8.5-20.5-2.6-8.1-10.3-32.2-10.7-39.3-.2-3.5 1.5-3.4 4.6-1.5 1.8 1.1 5.1 7.8 6.9 10.2.4.5 1.1 3.7 2.6 1.9s-9.5-16.3-9.8-18.6c-.2-1.5 3.8-15.6 4.5-19.2 1-5.7 1.1-11.5 2.3-17.2Zm175.8 56.3c-64.3 4.7-95.3 84.2-54.8 133.2 34.3 41.4 97.6 33.9 125.4-10.6 33.5-53.6-5.9-127.4-70.6-122.6m273 0c-60.3 4.7-90.9 75.2-58.2 124.6 31.5 47.7 102.5 48.4 131.6-2.2 31.3-54.4-9.2-127.4-73.4-122.4M974.5 1285c-1.6.3-3.8 21.6-6.3 24.7.7 3.5 3.4 4.1 6.4 2.4 8.2-4.8 5.4-28.1 0-27.1Zm96.6 0c-4.6 5.8-4.2 28.9 5.4 28 7.9-.8 1.9-14.7.8-19.8s1.2-7.5-6.2-8.2" class="outline" data-original-prefix="outline"/><path id="outline-eyes4" fill="#000000" d="M696 1136c.3 2.6-.8 14.5-2 16.3-.6 1-3.3 1.6-4.4 1.4-3.6-.4-15.2-6.6-20.6-8.2-4.1-1.2-8.6-2.3-12.8-3.2-5.3-1.2-9.4 1.1-11-7-1.8-8.5 4.7-32 7.3-41.3 6.6-23.3 17.1-48.4 30.1-68.9 4.4-7 19.3-29.4 26.4-31.6 3.2-1 8.4.9 9 .5.4-.3 3.5-6.5 5.1-8.4 51.7-63.4 124.9-120.7 206.1-138.9 66-14.8 152.7-13.8 217.3 7.3s136.4 77.9 177.9 131.1c2.2 2.9 5.4 6.2 5.6 9.9 2.1.4 3.1-2 4.9-2.6 8.3-2.3 24.8 22.5 29.1 29.1 17.8 27.5 33.6 66.9 38.7 99.3.9 6 3.8 19-4.4 21-6.4 1.5-13.1 1.9-20.1 3.9-4.1 1.2-18.6 8-20.6 8-5.3 0-3.3-14.2-5.7-17.7.2-1.5.4-3 1.7-4.1 3.2-2.5 21.2-8.9 21.8-9.9 2.6-3.9-1.4-18.4-3.1-23-9.1-25.4-24.3-48.6-37.7-71.8-4.1.5-8.6-1.3-12.3-1.3-8.9 0-25.8 1.8-34.9 3.2-7.7 1.2-14.9 4.8-22.6 5.9 11.8-12 27.7-20.1 42.1-28.6-.4-2.1-.9-4.3-1.6-6.3-11.9-35-80-81.9-111.6-101.4-88-54.5-207-59-302.2-20.3-37.1 15.1-127.3 77.6-145.3 112.7-1.1 2.1-5.5 12-5.4 13.6.2 3.9 9.2 6.7 12.2 8.7 10.2 6.4 21.2 13.5 29.7 21.8-8-1.5-15.4-4.7-23.5-6-8.7-1.3-24.5-3.1-33-3.1-3.6 0-7.8 2-11.8 1.1-9.4 14.8-18.8 29.9-26.6 45.6-4.4 9-14.4 29.8-15.1 38.9-.2 2.4-.6 9.7 1 11 1 .8 4.9 1.5 6.7 2.3 5.2 2.4 14.7 5.6 15.3 11.2Z" class="outline" data-original-prefix="outline"/><path id="outline-eyes3" fill="#000000" d="M1193 1067c1 1-1.4 2.8-2.1 3.4-11.5 10-31.9 20.9-45.2 30.8-12.2 9-27 19.8-37.7 30.3-14.7 14.4-22.4 34.8-38 48.5 7.8-23.1 15.8-48.3 31-67.5 19.3-9.9 38.2-20.8 57.7-30.3 3.8-1.8 33-16.4 34.3-15.1Z" class="outline" data-original-prefix="outline"/><path id="outline-eyes2" fill="#000000" d="M998 1254c.6-.9.9-3.7 2.2-5.3 9-12.3 19.9-26.5 16.8-42.7 6 1.8 8.5 2.6 14.5 0-1.3 11.9 3.9 23.9 10.3 33.7 3.8 5.8 5.9 9.5 9.2 15.3-2.2-.2-3.2 2.3-4.7 2.8-2.9 1-2.4-1.7-4.2-3.4-2.6-2.3-6.8-4.5-9.1-7s-6.4-11.5-8.5-11.6c-3.2 0-3.4 4.5-4.7 6.4-4.3 6.1-7.8 7.6-12.9 12.1-1.1 1-1.9 3.3-2.1 3.4-2.5 1.4-4.8-3-6.9-3.9Z" class="outline" data-original-prefix="outline"/><path id="outline-eyes1" fill="#000000" d="M856 1068c1.7-.3 3.1.2 4.7.8 28.7 10 58.3 31.1 86.3 43.7 16.4 19.7 23.9 45.4 33 69-4.6-2.9-8.5-7.8-12-12-10-12.3-16.8-26.9-28-38-17.5-17.2-43.3-35.2-63.7-49.3-6.8-4.7-14.7-8.4-20.3-14.2" class="outline" data-original-prefix="outline"/></g>
    </g><g class="trait-group" data-category="right ear" id="right ear-battle scars">
      <path id="fill-ear-rt" fill="#ffffff" d="M1711.8 182.1c1.9-.3 12.9 5.8 12.3 9.3l-7.1 128c-11.3 41.5-31.3 85.9-40.4 127.5-4.1 18.5-3.8 39.5-6.6 58.4-.2.8-.7 1.3-1.5 1.6-3.4 1.1-49-18.4-56.8-20.9-3.8-1.2-11.7-4.6-15.1-2.1-.5.4-5.2 8.2-5.3 8.8-.2 2.1 17.9 16.1 20.9 18.8 2.1 2 12.8 12.1 13.5 13.5 1.6 3.5.2 16.4.5 21.5.4 6.7.9 12.6 5 18 5.9 7.7 20.9 15.3 17.2 26.2-13.8 29.6-30.1 57.4-46.4 85.6-10.1 17.4-14.5 29.1-28.3 44.7-18.1 20.4-37.8 39.6-56.6 59.4l-98.9 53.1c-11 23.9-19.3 49.1-29.6 73.4l-92.6 78.5c-5.1 5.1-13.5.6-19.4-1.4-25.1-8.4-50.8-25.1-71.4-41.6-4.9-3.9-14.1-10.7-17.5-15.5-13.1-18.4-20.9-41.3-13.6-63.5 16.8-50.7 49.3-97.5 68.2-147.8 9.2-24.4 7.9-72.1 10.9-100.1 4.3-38.9 11.1-77.8 16.4-116.5l98.4-116.6 142.4-103.6z" class="fill" data-original-prefix="fill"/><path id="shading-ear-rt" fill="#aaaaaa" d="M1599 504.5c0 .5 1.6 1.4 2 2l-1.5.5c-11.4-10.3-23.7-19.4-37-26.9 2.9-11.5.3-23.1.5-34.6.1-10 6.8-25.9-6.9-29.5-.1 3.6-4 8.3-3.9 11.5 0 2.7 3.4 4.9 3.9 9 1.9 16.2-1.6 35.4-.8 51.8 1.7 10 14.9 14.3 22.3 19.7.6 9.7 4.3 21 4.5 30.5.4 13.2-15.2 34.4-17.3 48.8-.3 2.3.5 4.5.3 6.8 12.5-2.5 20.8-17.9 27.4-28.1 4.2-6.5 8.7-13.9 11.6-20.9 1.4.1 1.6 1.5 2 2.5 6.8 15 5 18.4-.3 32.8-12.6 34.1-31.8 70.9-51.7 101.3-15.4 23.6-23.1 31.8-47.1 46.9-29.3 18.5-61.8 33.1-96.9 36.1-9.9 13.4-11.6 31.3-12 47.5 60.5-12.3 110.8-49.8 157.5-88 2.2-1.8 11-10.5 12-11 1.2-.5 1.9.3 1.5 1.5-.6 1.6-10.5 13.3-12.5 15.5-39.7 44.6-83.4 59.4-130.8 91.2-1.9 1.3-8.9 5.9-9.8 7.3-.8 1.2-.3 8.4-1.2 11.8-1.4 5.5-5 11.6-6.7 17.3-3.5 12.1-6.4 42-14 50-1.1 1.1-2.9 1.8-4.1 3-25.2 25.5-52.1 49.3-77.4 74.6l-2.1.9c-16.9-4.5-37.5-4.8-53.9-10-17.7-5.6-57.5-34.9-67.4-50.6-4.1-6.5-7.5-10.1-5.5-18.1 2.3-9.3 35.9-44.2 44.3-54.7 68-84.5 112.9-185.4 139-290.5 1.5-.4 1.7.4 2.5 1 5.5 3.8 10.5 12.2 16.5 16-1-12.4-13.2-22.4-22-30.5-1.8-1.7-12.3-11.1-13.5-11.1l-93.5 64.7.9-12.3c2.8-.8 12.2-9.1 13.1-11.2.7-1.8-6.5-3.8-7.5-5.5l-7.3-4.7c1.2-7.4 0-15.5.8-22.8 1.5-13.2 15.9 1.6 21.7 5.3 3.3 2.1 13 8.8 16.3 7.8l22.4-13.7 24.1-42.9c12-8.8 13.1 0 18.9 7 7.3 8.8 19.1 16.3 26.6 25.4l65.9 13.1c2.2-1.1 14-25.1 15.9-29.2 8.8-19.7 7-29.3 9.2-49.9.8-7.3 1.6-14.8 2.9-22.1 21.8-35.3 43.5-70.9 70.5-102.5 28.3-33 60.7-53 97.2-75.8 1.3-.9 10.4-5.9 11.1-6 3.5-.5 11.5 10.6 14.8 12.9v1.1c-6 15-18 25.2-27.5 37.5-15.8 20.5-31.2 48.3-42.2 71.8-4.1 8.7-12.4 25.9-14.3 34.7-2.3 10.1 6.5 31.6 8.5 42.5l69.3 19.6c4 2.4-.3 9 .7 12.8-4.1 0-8.2.2-12.2-.3-4.9-.6-44.2-8.6-46.2-9.8-1.1-.6-1.2-2.2-2.3-2.9-2.4-1.3-6.5-1-9.2-1 1 6.7-1.4 17.4 0 23.5ZM1329 776h16.5c.4 0 2.3 1 2.5 1.8l9 36.6-26.8 49.9 4.4 5.7 27.5-41c0 1 1.6 7.9 3 7 0-3 4.2-5.6 4.8-7.7 1.6-5.6-6.3-30.1-8.5-37.1-1.3-3.9-4.8-16.5-7.2-18.8-2.1-2-16.6-4-19.6-3.5-1.9.4-6.3 6.3-5.5 7Zm-7.9 188.9c2.2 1.5 9.2-6.1 10-8.5l-6.5-41.5c-8.1-22.6-19.3-45.8-31.4-66.6-1.4-2.4-3-5.7-5.2-7.3l-5.9 13.3c7.1 13.7 19.3 26.2 22.4 41.7.3 1.5.7 2.9.5 4.5-.9 5.1-19.4 24.3-23.4 29.6L1272 966l41.5-38zM1375 911l6.6-9.5c-2.1-7.7-6-16.6-7.4-24.2-1.4-7.7-.6-17.4-3.8-25.2l-4.6 8.4 9.1 50.5Z" class="outline shading" data-original-prefix="shading" opacity="0.5" style="opacity: 0.5"/><path id="outline-ear-rt" fill="#000000" d="M1204 942c-4.2-.7-8.9-3.7-12.7-5.8-19.7-11.4-30-35.7-43.8-53.2-1-2.9-.7-7.3-.5-10.5 1.2-23.6 12.9-37.4 22.2-57.8 5.6-12.4 10.8-31.7 17.6-42.4 2.6-4 7.1-7.8 10-12 38.3-55 42.6-150 46.2-215.8.4-6.6.3-23.8 2.6-28.4 42.9-62.2 88.8-122.3 141.4-176.6 18.3-18.9 33.3-29.6 55.1-43.9 73-47.8 153.8-87.8 236.9-115.1 12-3.9 31.6-10.1 43.8-11.3 6.6-.6 7 0 8.7 5.7 8.6 28.2 2.7 75.6.4 105.5-1.2 16.8-1.1 48.6-7.5 63.5-1.4 3.3-7.7 8.9-10.3 12.7-12.7 18-18.2 41.5-21.9 63.1-2.9 16.7-5.6 39-4.3 55.8.7 8.6 6.2 16.7 6.1 24 0 7.3-4.1 16.3-5.1 23.5-23.2-9.5-47.1-16.6-72-20 2.6 4.6 17.7 13.8 18.8 17.7.8 2.6-.9 4.6-.8 6.8.3 5.9 2.8 28.5 5.1 32.9 1.3 2.5 10.2 10.6 12.9 13.1 2.7 2.6 16 12.8 16 15 0 2.4-9.9 24.1-11.8 28.2-38.7 86.3-81.2 144.4-162.7 194.3-12.3 7.5-25.2 12.8-37.2 19.8-24.8 14.6-38 54.9-48.8 80.2-6.7 15.7-20.4 20.9-32.5 31.5-14.9 13.1-28.1 28.9-42.4 42.6-21 20-57.1 3.6-79.6-6.5-6-2.7-9.7-4.2-13-9.5 7 .5 13 4.1 19.8 5.7 19.2 4.6 30.1 2.7 47.2-6.2 2.7-1.4 17.2-10.3 17.8-12.2-.4-11.3 1.1-23.7.2-34.9-1.1-14.1-12.9-36.3-19.5-49.5-2-3.9-16.2-31.9-18-32-13.4 22.8-27.1 46.5-35 72-3.4 11-6.9 23.7-5.2 35.2.7 5.1 3.8 9.7 4.7 14.8-1.7 1.6-17.8-11.5-20-13.5-4.4-4-9.2-7.6-9.1-14 .1-5.5 2.1-26 4.2-29.8 2.6-4.7 9.2-11.4 12.7-16.3 42.5-61.5 61.2-130.5 109.2-188.8 7.6-9.2 15.4-19.8 20.2-30.8 8.2-18.7 19.6-72.5 16.6-91.9-2.4-15.8-26.1-29.3-36.3-40.7-8.8 19.2-17 34.5-36.6 44.3-13.2 6.6-22.1 5.7-35.1 8.9-8.2 2-15.2 10.1-21.6 15.5-.7 10-2.3 19.9-3.2 29.8-1.9 22.5-1.6 46.7-5.1 68.9-3.1 19.4-25.6 63.3-35 83-14.2 29.4-31.4 55.9-39.8 88.2-2.7 21.7 14.3 52.9 29.9 67.4Zm514-753c-2-2-47.8 16.6-53.3 19.1-68.3 30.5-139.4 73.9-202.2 114.8-52.8 34.5-93.3 70-133.4 118.5-17.4 21.1-39.2 47.3-54.4 69.6-8.3 12.1-10.4 25.6-12.2 40 3.6 1.4 7.4 2.5 10.9 4.1 5.8 2.7 18.7 11.4 23.9 10.7 20-2.7 33.2-23.1 41.9-39.1 1.5-2.8 5.6-13.8 6.1-14.4 1.8-2.1 5.8-.9 8 0 7.4 3.1 20.5 23.4 27.8 30.2 15.8 15 36 25.7 53 39 4 12.5 8.9 24.9 12.5 37.5 2.2 7.8 5.6 31.3 10 36 12.5 13.5 30.2-11.7 35.7-21.4 33.7-58.5 35.6-122.7 20-187.2 22.7-73.6 76.6-122.2 130.4-173.4 5.9-4.6 13.1-6.7 19.4-10.6 11-6.8 19-19 32.1-22.4l-21.2 37.3c-5.8 7.2-14.8 10.5-22.2 15.9-33.3 24.1-60.4 53.8-79.9 90.1-1.4 2.6-8.8 16.7-8.8 18.2 0 3.5 13.2 8.9 14.8 13.2 2.1 17.7 1.2 36 5.7 53.3 1.3 5.1 2 9.5 8.1 10.9 7.5 1.7 17.7 1.9 25.7 3.4 16.7 3 33.1 7.2 49.8 9.7 1.8-18.7.9-37.8 3-56.5 2.7-23.8 11.5-60.6 20-83 6.8-18 16.8-28.7 20.7-48.3 7.5-37.2 11.2-77.4 8.3-115.2Zm-75.2 392.2c-8-6.2-17.7-13.9-18.8-24.7-.6-5.8 0-26.6-2.1-29.9-18.1-17.7-37.4-33.7-58.8-47.3 1.7-13.2.6-26.6.8-39.9.2-10.2 4.9-20.1-7.9-25.5-10.1 33.1-20.7 79-6.5 112 1.2 2.9 6.7 10.6 6.3 12.3-21.1 26.6-32.9 59-41.6 91.5-2.4 8.9-8.5 47.6-11.4 51.6-2.7 3.7-14.2 13.2-18.4 16.6-13.4 10.9-30.6 22-45.8 30.2-2.5 1.4-16.2 9.2-17.7 7.8 3.5-7.6 7.8-14.9 10.8-22.7 8-21.6 9.7-46.5.4-67.9-4.5-10.3-19.2-36.8-31-19.7-7.5 11-16 48.1-17.2 61.8-.5 5.9 1 14.3-.4 19.6-.8 2.7-14.5 12-14.6 15.4 5.2 11.5 11.1 23.1 19 33 1.9 2.3 7.7 6.6 8 9-2.9 11.6-6.2 23.2-7.9 35.1-2.7 19.7-1.9 45.1 2.1 64.6 1.1 5.3 3.6 11.1 6.2 15.8 4.2-8 7.9-16.3 11.2-24.8 1.9-4.8 7.1-16.1 7.8-20.2s-2.2-4.7 2.4-9.5c5.5-5.8 29.5-19.4 37.7-24.3 18-10.7 37.3-19.4 54.6-31.4 49.8-34.7 117.1-125 132-184 .3-1.3 1.3-3.3.5-4.6ZM1277 572l-16-9-3 28c1.7.5 2-.7 3-1.5 1.8-1.4 16.7-16.5 16-17.5m100 227c.6-8 2.7-15.3 1.9-23.4-1.3-13-12.8-29.9-23.2-37.5-1.1.2-13.4 15.4-14.1 17-.6 1.3-.7 2.5-.6 4 5.5 1.1 20.8-.5 24 3.5 5.1 6.3 7.4 26.5 9.9 35.1.4 1.5-.6 1.8 2 1.5Zm-43.3-30.9c-2.2.6-23.3 32.3-26.1 36.9-2 3.2-11.6 19.1-11.5 21.4l36.5 56.5 2.9-2.1 34-51c.4-2.2 1.3-5.2 1.2-7.3-.3-6.2-7.1-26.3-9.4-33.4-1.4-4.4-4.7-17.7-9-19-1.6-.5-17.7-2.3-18.6-2.1ZM1340 946c1.7.5 2-.7 3-1.5 7.1-5.5 26-24 32-31 3-3.4 5.2-7.5 7.8-11.2-7.5-17.2-9.7-35.7-10.8-54.3-1.2 0-1.6 1.4-2.2 2.3-10.4 16.4-20.2 35.2-28.1 52.9z" class="outline" data-original-prefix="outline"/>
    </g><g class="trait-group" data-category="left ear" id="left ear-hi-tek">
      <path id="fill-ear-lft" fill="#ffffff" d="M326.7 182.1q1.65-.45 3.3.3l180.7 78.4c55.2 39.7 111.9 77.7 165.3 119.7l109.1 135.9c10.5 65.4 16.1 132 25.2 197.8 24.6 50.1 52.6 98.7 77.3 148.7 1.5 3.1 5.4 9.5 5.5 12.5.2 4.7-8.5 15.9-11.2 20.8-15.1 27.1-18.8 33.2-43.9 52.1-22.9 17.2-44.3 28.5-72.5 35.5-8 2-18.1 5.7-25.4.5l-82.9-79.1c-9.9-22-17.5-45.3-28.1-66.9l-154-109c-23.7-34.4-41.7-73.1-64.9-108.1-9.8-43.7-27.6-90.2-34.9-134.1-5.9-35.7-6.9-73.6-12.5-109.5-9.3-20.9-22.7-40-30.5-61.5-1-40.6-6.8-81.2-8.3-121.7s-1.1-11.4 2.8-12.4Z" class="fill" data-original-prefix="fill"/><path id="shading-ear-lft" fill="#aaaaaa" d="M664 558v21.5c0 22.8 19.2 43.4 30.4 61.6 38.9 63.4 63.1 129 108.2 189.8 16.2 21.8 35 41.1 51.9 62.1 4.8 5.9 9.3 10.3 9.5 18.5s-1.9 12.6-1.1 19l-.9 2.1-60.1 40.9c-13.7 0-28.1 9.9-40.7 12.4-1.5.3-2.8.5-4.2-.3l-76.6-51.4-69.8-109.7c-33.8-23.4-81.3-39.6-107.2-72.3s-6.4-12.2-10.5-17.5c.3-1.1 2.2-.4 3 0 7.1 2.9 21.5 16.6 29.2 21.8 23.5 15.5 51.4 30.4 77.4 41.6 17.3 7.5 35 10.9 52.9 16.1 7 15.4 12.9 31.5 20.2 46.8 8 16.6 27 35.1 40.2 48.8 19 20 39 39.1 59.5 57.5 1.5.2 1.8 0 1.4-1.4-1.9-7.7-7.7-31.2-11.1-36.9-4.7-7.9-16.1-19.2-22.2-27.8-25.1-34.9-42.3-72.5-64.4-108.6-7.4-12-9.8-16-22.8-22.2-38.1-18-78.4-19.1-114.3-41.7-26.9-17-34.3-26.3-51.1-52.9-25.7-40.5-46.4-86-61.2-131.8-4.2-12.9-10.9-32.4-12.7-45.3s-.3-1.6.5-1.5c14 25.4 25.6 52.8 42.1 76.9s12.8 19.9 23.4 21.1c-.5-2.4 1.1-5.1.8-7.3-1.4-11-12.7-28.8-16.3-39.7-3.8-11.7 2.7-30.6 3.5-43.5 3.6-59-24.7-121.5-55.6-170.4-12.4-19.7-28.5-37.1-37.4-59.1h16.5c8.6 0 8.7 2.4 14.2 5.8 15.3 9.7 32.5 17.5 48 27 30.2 18.6 67.2 68.2 84.5 99.5 2.9 5.2 12 22.4 12.8 27.2s-.9 10.1-1 14.9c-.8 41.5 1.8 83.9 11.9 124.2 3.2 12.9 5.4 24.4 15.1 33.9 1.4 1.4 2.9 3.8 4.5 1.5l24.5-44.5 55-6.5v-.2Z" class="outline shading" data-original-prefix="shading" opacity="0.5" style="opacity: 0.5"/><path id="fill-led-lft7" fill="#ffffff" d="M669.7 841.5c9.8-2 9.4 10.6 2.5 11.7s-9.5-10.3-2.5-11.7" class="fill" data-original-prefix="fill"/><path id="fill-led-lft6" fill="#ffffff" d="M484.7 520.6c3.7 3.7 0 13.3-6.7 10.2-8.1-3.7.6-16.4 6.7-10.2" class="fill" data-original-prefix="fill"/><path id="fill-led-lft5" fill="#ffffff" d="M409.7 431.6c3.7 3.7 0 13.3-6.7 10.2-8.1-3.6.6-16.4 6.7-10.2" class="fill" data-original-prefix="fill"/><path id="fill-led-lft4" fill="#ffffff" d="M562.7 709.6c3.7 3.7 0 13.3-6.7 10.2-8.1-3.7.6-16.4 6.7-10.2" class="fill" data-original-prefix="fill"/><path id="fill-led-lft3" fill="#ffffff" d="M518.7 714.6c3.7 3.7 0 13.3-6.7 10.2-8.1-3.7.6-16.4 6.7-10.2" class="fill" data-original-prefix="fill"/><path id="fill-led-lft2" fill="#ffffff" d="M391.7 292.6c3.7 3.7 0 13.3-6.7 10.2-8.1-3.6.6-16.4 6.7-10.2" class="fill" data-original-prefix="fill"/><path id="fill-led-lft1" fill="#ffffff" d="M761.7 919.6c3.7 3.7 0 13.3-6.7 10.2-8.1-3.7.6-16.4 6.7-10.2" class="fill" data-original-prefix="fill"/><path id="outline-ear-lft" fill="#000000" d="M573 706.7c3.7 8.5 0 12.5-.8 20.5l20.6 31.4c2.5 4.2.9 9.1-1.1 13.1L568 787.5c8.4 5.5 17.7 9.5 26.3 14.7 5.7 3.4 35.9 21.9 37.7 25.3 1.7 3 .6 6.3 1.4 9.6 11.9 50.4 60.6 107 105.9 131.1 24.3 12.9 35.4 10.2 60.4 2.1 2.2-.7 5.3-.6 7.2-1.3 0 2-1.5 3.4-3 4.5-7.6 5.3-52.8 22.6-61.2 22.3-2.6 0-19.5-3.7-21.3-4.7-17-15.3-32.7-34.3-50-49-11.7-10-25.8-16.1-32-31-10.4-25.3-24.2-65.6-48.8-80.2-7.9-4.7-17.2-8.1-25.3-12.7-100.5-56.5-161.2-147.7-195.6-256.4-3.9-12.3-16.2-53.5-15.7-64.1.3-5.5 5.1-11.9 5.8-18.2 3-25.7-5.9-83.4-16.4-107.4-4.5-10.2-16.6-20.8-20-29-3.6-8.8-5.5-29.4-6.5-39.5-3.1-32.9-8.7-93.7-1.3-124.3 1.3-5.6 1.1-10.4 7.8-10.2 11.2.4 35 8 46.3 11.8 89.3 29.6 189.9 78.4 265.5 134.5 17.7 13.1 38 37 53.2 53.8 39.6 43.9 77.2 92.8 110.1 141.9 3 4.4 4.7 3.6 5.4 10.6 2.1 21.1 1.2 43.6 3 65 4.4 51.5 12.5 128.1 42.2 170.8 3.6 5.2 8.8 10.1 12 15 7.4 11.4 13.7 33.5 20 47 8.4 18 19.9 31.7 20.8 52.2.2 3.2.5 7.5-.5 10.5-14.5 18.3-21.9 41.3-42.8 53.2-3.3 1.9-9 5.7-12.7 4.8 14.9-17.2 31.2-42.5 27.9-66.4-6.7-13.7-9.4-29.6-15.7-43.3s-16.2-27.8-23-42c-15.9-32.7-35.5-69.7-38.1-105.9-.7-27.5-4.4-54.7-7-82-2.4-24.8-1.9-68-15.6-88.4-11.2-16.8-29-37.7-42-54-40.5-50.6-77-87.4-130.7-124.3-65.4-45-147.9-94.6-220.4-126.6-5.4-2.4-49.5-20.1-51.4-18.1-2.4 24.7-.9 49.7 2.1 74.4 1.8 14.4 5.2 46.1 11 58 6.3 13 13.2 22.2 18.1 36.9 1.3 3.9 6.6 26.5 7.7 27.3 1.2.9 1.8 0 2.8-.3 8-3.1 23.8-19.6 32.3-16.8 5.3 1.8 33.4 51.9 39.9 59.1l13-8-67.1-103.3c-17.5 2.5-29.9-17.9-17.2-31.1 1.8-1.9 6-2.9 5.4-4.6l-24-39.1c-.2-1.5 0-1.7 1.5-1.5 7 1 21.2 16 27.6 20.5 7 4.9 15.7 7.3 22.4 12.6 10.5 8.1 24.9 24.1 35 34 38.8 37.8 64.8 66.6 86.6 117.4 1.8 4.2 8.3 18.1 8.6 21.4.7 7.3-5.5 27.3-6.7 35.9-7.5 53.7-.2 104.7 26.7 152 5.5 9.8 22.6 33.8 35.2 21.9 5.1-4.9 9.1-31 11.5-39.5 2-7 8.6-30.1 12-35 2.2-3.2 13.2-9.4 17.2-11.8 12.6-7.8 25.9-15.1 39.3-21.2 1 1.1-9.1 24.9-9.8 28.7-3 17.8 8.2 69.7 15 87.5 5.4 14.1 13.7 25.2 23.2 36.8 45.9 55.8 63.5 122 103.3 180.7 4.2 6.2 18.6 23.1 19.2 28.8.3 2.6-.3 5.4 0 8 .6 4.9 3.1 17.6 1.5 21.5-1.4 3.2-26.3 24.1-28.5 22 3.8-9.9 6.1-17.6 5-28.5-3.2-32.9-38.5-93.3-56.2-122.8-1.9-3.2-13.6-22.1-15.5-22.6l-38.2 25.2 61.1 93.5c19.4-2.8 31.1 20.4 14.8 32.7-11.6 8.8-28.3-.2-28.7-14.2 0-4.8 2.8-8 3.2-12.3l-21.7-33.9c-9.8.7-22 19-31.3 8.8-3.5-3.8-11-19.9-13.6-21.4-1.5-.9-7.3-.7-11-2-19.8-7.5-12.8-38.1 10.4-34.4 8.2 1.3 14.7 10.2 14.5 18.3 0 3.7-3.9 9.2-3.7 10.9s10.5 17.7 12.3 17.7 14.2-8.5 14.3-9.5L675 812.4c-1.5-8.8 16.7-11.8 15.2-17.1l-80.6-123v18.5c0 4.7 5.3 19.7 7.2 24.8 2.8 7.2 6.7 13.8 9.8 20.7l-54-29.3zM389.8 293.2c-6.2-6.2-14.8 6.6-6.7 10.2 6.8 3.1 10.5-6.5 6.7-10.2m49.3 77.7c.8.6 2.7-.3 3.6-.7 1.6-.6 16.6-9 17.3-9.7.6-.7 1-1 1.1-2 .3-3.5-15.2-21.8-18.6-25.5-5.5-6.1-30.6-31.1-36.6-33.4-1-.4-1.8-.8-3-.5 1.4 4.4-3.9 8.4-2.5 11.9 12.6 18.5 24.3 37.7 37 56.1.8 1.1 1.5 3.7 1.6 3.9h.1Zm30.7-.7c-3-1.7-18.8 10-22.9 11.3 3.2 8.5 24.2 32.6 24.1 40 0 6.4-16.1 11.9-19.9 17l26.2 40.6c1.4 4.1.8 5.8-2.5 8.4-12.9 10.2-30.5 17.8-43.5 28.6-.8 1 0 1.8.3 2.7.8 2 12.7 20 13.9 20.2 3-2.3 12.7-6.9 14.5-9.3 2-2.8-.1-8.1 3.5-13.5 8.3-12.5 27-10.2 31.9 3.9l1.5 10c11.2-24.6 9.3-53.2 4.7-79.2-3.3-18.2-8.7-35.7-16.5-52.5-1.6-3.5-14-27.3-15.4-28.1ZM412 605l42.9-27.6c-11.2-20.1-25-38.9-37.3-58.4-1-2.2-.8-4.8 0-7 1.9-6 45.6-28.5 45.6-32.4s-9.5-16.4-10.5-16.5c-7.5 3.4-21.1 18-29.3 14.2-4.2-2-12-19.8-15.2-21.8-1.8-1.1-5-.2-7.3-.7-23.6-5.5-17.4-37.6 4.8-35.8 9.1.8 16.3 9.3 16.1 18.4 0 3.9-3.6 9.4-3.4 11 0 .9 9 14.8 9.8 15.2 1.5.8 6-2.6 7.5-3.6 2.1-1.3 9.4-5.6 9.5-7.5l-46.4-70.4-25.7 16.4-1 2c2.1 11.6 5.7 23.3 7 35 3.6 31.8.8 57.1 8.5 89.5 6.5 27.1 15.6 53.6 24.5 80zm-4.2-172.8c-6.2-6.2-14.8 6.6-6.7 10.2 6.8 3.1 10.5-6.5 6.7-10.2m75 89c-6.2-6.2-14.8 6.6-6.7 10.2 6.8 3.1 10.5-6.5 6.7-10.2m7.9 17.9c-1.2.3-2.4 2.4-4 3.1-2.1.9-6 1.9-8.2 1.9-4.5 0-9.9-4.1-11.8-3.9-.9 0-14.5 8.4-14.6 9.3l69.3 104.4c.9 0 14.7-9.1 15.2-9.9 1.9-3-12.8-47.3-15.3-53.8-5.5-14.5-12.2-28.2-21-41-1.7-2.4-6.7-10.9-9.5-10.2h-.1Zm-16.8 68.7c1-1.8-3.3-7.8-4.5-9.8-1.1-1.8-6.1-10.1-7.8-10l-42.7 27.4c-.7.5-1 1.2-1 2-.3 2.9 11.5 24 13.9 28.2 21.6 38.2 58.6 86.8 92.7 114.3 4.8 3.8 26.5 20.2 31 20.1s20.1-13.6 25.6-15.7c.2-1.6-2.7-5.7-3.7-7.3-1.8-3-14.4-23.2-15.6-23.9s-5.7 0-8.1-.4c-20.3-3.7-19.5-32.4-.2-35.7 1.5-.2 8.5.9 7.4-1.6s-7.1-6.1-9-8c-3.8-3.6-7.5-6.1-8.7-11.3-.6-2.6-2.5-18.5-3.3-19.2-10 3-20 19-28.8 5.3l-29.7-45.3c-5.6 4.3-14.4 7.9-19.5 12.5-.8.7-2.1 1.1-1.7 2.5l45.7 70.9c19.7-7 33.9 19.7 16.8 31.5-15.8 11-34.6-6.1-26.2-23.1-12.9-25.3-33.4-48.7-47.2-73.4-2.7-4.8-5.9-9.2-1.1-13.9l25.4-16.1zm161.8 12.4c-9.4 2.1-21.3 24.9-22.5 34l88.5 134.7c1.6.5 16.8-8.7 18.3-10.4 1-1.1 1-1 .6-2.5-.5-1.9-7.1-10.8-8.8-13.3-13.6-19.6-29.2-38.1-46.3-54.7-1.1-23.3-4.5-46.6-12.5-68.5-2.9-7.9-6.5-21.7-17.3-19.3m-74.9 90c-6.2-6.2-14.8 6.6-6.7 10.2 6.8 3.1 10.5-6.5 6.7-10.2m-44 5c-6.2-6.2-14.8 6.6-6.7 10.2 6.8 3.1 10.5-6.5 6.7-10.2m151 127c-7 1.4-4.1 12.7 2.5 11.7s7.3-13.6-2.5-11.7m92 78c-6.2-6.2-14.8 6.6-6.7 10.2 6.8 3.1 10.5-6.5 6.7-10.2" class="outline" data-original-prefix="outline"/>
    </g><g class="trait-group" data-category="head" id="head-tophat-knucks">
      <!-- Generator: Adobe Illustrator 29.1.0, SVG Export Plug-In . SVG Version: 2.1.0 Build 142)  -->
  <defs>
    
  </defs>
  <path id="fill-head4" d="M1387.7,802.3c2.1,2.4,5.7,6.7,7.2,9.3,8.1,13.9,5.6,50.1,8.2,67.8.3,1.9,1.7,4.8,3.6,5.4,35.2,3.5,70.5-3.2,105.6-6,6.2-2.3.7-14.8,1.7-19.1,1.2-5.1,29.5,1.6,34.1,2.8,4.3,1.2,29.1,10.1,30.5,12.5,0,14.2,4.9,29.8,5.5,43.5.4,9.4-5.8,22.5-9.5,31.5-29.7,72.3-88.5,139.6-152.9,183-87.3,58.8-187.2,102.9-291.3,120.7-9.7,1.7-33.3,2.7-40.4,5.3-1.1.4-1.1,2-2.4,2.8-5.4,2.7-34.5,1-42.9,1.2-15.9.3-71.9,3.1-83.7-1.2-14.4-5.3-27.7-5.4-43-8-94.5-16.2-186.7-54.4-267.7-105.3-74.2-46.7-137.4-109.5-173.3-190.7-4.4-10-13.2-28.9-12.8-39.2.6-13.8,5.5-29.3,5.5-43.5,9.6-6.7,55.5-22.2,63.9-16.1,1.7,2.8-.3,6.4-.5,9.6-.4,10.6,0,9.8,9.7,11.4,22.4,3.6,65.8,7.6,87.9,6.2,4.9-.3,13.2-.2,14.2-5.8-.2-8,1.5-15.9,2.2-23.8,1.5-17-1.4-35.2,9.6-49.4,2.5-3.3,10.2-9.5,11-12,1.8-5.7-.4-15.3.4-21.5-23.5-119.8-32.3-242.5-52.3-362.7-.8-4.7-5.8-23.2-4.2-25.8,2.4-4,37.9-19.8,44.5-22.5,118.5-48.5,274.9-68.1,402.5-64.5,104.6,2.9,236.5,24.8,333.4,64.5,6.6,2.7,42.1,18.5,44.5,22.5,1.6,2.6-3.4,21.2-4.2,25.8-20,120.2-28.8,242.9-52.3,362.7.7,6.2-1.1,14.9.2,20.8,1,4.1,5.3,5.4,7.5,7.8" fill="#ffffff"/>
  <ellipse id="fill-head5" cx="1023.3" cy="1013.6" rx="129.1" ry="127" fill="#ffffff"/>
  <path id="fill-head41" d="M1013.8,916.3c-66.7,6.5-103.2,81.5-71.3,139.7,31.3,57,109.6,65.8,152,16,55.1-64.6,4.9-164-80.7-155.7" fill="#ffffff"/>
  <path id="fill-head2" d="M668,808c2.9,19.8,15.1,32.6,29.5,45,32.8,28.2,80.4,47.6,121,62,30.8,11,62.4,20.7,94.5,27,.6.7-7.2,14.1-8.2,16.3-22.1,49.2-14.3,108.1,21.2,148.7-65.8-11.9-130.9-35.9-187.9-70.6-19.5-11.8-40.9-26.2-59.4-39.6-11-8-21.5-13.7-22.7-28.3-2.1-25.5.3-55.4,1-81,.6-20.7-.7-49.1,3.1-68.9.8-4.5,2.4-10.3,7.9-10.6" fill="#ffffff"/>
  <path id="fill-head1" d="M1122,1107c10.7-12.4,19.2-26.2,24.8-41.7,12.7-35.7,12-72.2-3.6-106.9-1-2.2-8.8-15.6-8.2-16.3,32.1-6.3,63.7-16,94.5-27,44.4-15.8,99.2-38.3,132.5-72.5,9.5-9.7,15.6-21,18-34.5,8.3,1.1,8.3,13.8,9,20.5,1.9,18.9,1.4,39,2,58,.7,26,3.1,56.2,1,81.9-1.2,14.7-11.7,20.4-22.7,28.3-18.5,13.4-39.9,27.8-59.4,39.6-57,34.7-122.1,58.6-187.9,70.6" fill="#ffffff"/>
  <path id="shading-head4" d="M1410.1,884.9c1.3.9,5.6-1,7.4,1.1,1.1,1.3,5.4,17.6,6.2,20.8,5.6,21.5,8.5,43.7,11.4,65.7-14,26.5-44.5,44.9-69.8,60.3-37.4,22.8-73,42.2-115.2,54.8-12.1,3.6-21.7,7.3-33.5,11.5-28.1,9.8-57.8,12.6-87.1,16.9-1.7.2-7.1-.2-7.4,0-.5.5,1.2,7.6-1.7,10.1-3.2,2.7-15.3,9-19.6,11.1-47.2,23.2-103.8,23.4-151.3,1-3.9-1.9-19.2-9.8-21.6-12.1-3-3-1.2-9.5-1.7-10.1-.3-.3-6.6.2-8.4,0-13.7-2.1-27.1-4.1-41-6-30.5-4.2-44.8-13.7-71.6-21.4-4.3-1.2-9.5-1.3-14.2-2.8-39.3-11.8-78.8-34.9-113.7-56.3-23.5-14.4-50.4-31.5-64.1-56-.3-10.9,12.6-84.5,17.9-88,1.9-1.2,5.8.2,6.9-.6.6-.4,2.2-9.1,3.2-11.3,1.2-2.5,4.3-4.9,4.7-6.3,2.2-7.5,1.2-25.6,2.2-34.8,1.2-11,1.7-16.5,8.6-25.4s10.5-7.3,11.4-20.6c1.2-16.8-4.3-35.6-6.9-52.2-15.2-99.9-30.6-199.8-42.2-300.3,2.6,1,4.4,11.3,5.1,11.9.6.5,2.9-.1,4.1.3,3,.9,4.6,7.6,5.4,10.6,6.8,25.1,7.9,56,12.8,82.2,4.3,23,10.6,45.8,15.2,68.8,14.9,74.5,27.1,149.9,46.9,223.1,14,27.5,60,46.2,87.9,56.1,40.5,14.4,84.4,24.5,126.8,30.8,54.1-45.6,122.5-51.4,183-13.7,4,2.5,17.6,13.8,20.1,13.9,55.7-10.6,116.5-22.9,167.2-48.9,32.6-16.7,45.3-28.7,53.8-65.2,14.4-61.1,24.5-125.4,36.8-187.2,4.9-24.6,11.7-49.1,16.4-73.6,5.2-27.1,6.5-56.7,12.8-83.2.8-3.2,2.5-12.1,5.5-13.5,1.6-.8,4.3-.1,4.9-.6s2.6-11.8,5.1-12.9c-5.4,42.8-10.2,85.7-16.1,128.3-10.4,75.4-24.6,150.6-32.8,226.1,1,12.4,4.8,11.2,11.4,19.6,13.2,17,7,39.9,10.6,59.4.4,2.4,3,3.5,4.2,5.8s3.5,12.4,4,12.8M926.3,929.3c-1.4,1.7-2.2,3.8-3.8,5.7-1.5,1.7-5.6,4.3-6,5-1.7,2.9,1.5,10-6.9,9.9-10.4,0-40.2-9-51.8-12.2-68.1-18.9-134.3-50.5-184.8-100.7-.2,20.2-1.6,40.3-1,60.5.8,28.2,4.9,56.3,7.6,84.4,1.5,1.9,2.3,4.2,3.9,6.1,7.1,7.7,28.4,20.9,38,27,55.6,35.2,116.6,56.8,180.5,72-6.8-17.4-9.9-36.8-9-55.5.5-10.1,1.1-24.1,2.2-33.8.6-5.3,3.5-11.1,3.9-16.6l2,1c1.3-7.8,3.5-17.4,7.1-24.4,1.9-3.6,4-8.1,8.9-7.6-14.9,31.8-18.4,69.2-4.5,102,35.7,84.2,141.1,105,202,34,33.4-38.9,38-89.9,16.5-136,4.1-.3,7.1,4.6,8.7,7.8,3.8,7.2,6,17.2,7.3,25.2l2-2c0,5.7,3.3,11.1,3.9,16.6,2.4,20.3,3.3,51.8-1.2,71.6-1.4,6.1-4,11.8-5.7,17.8,69.9-16.8,138.3-41.5,197.3-83.2,6.9-4.9,24.4-16.2,25.6-24.4,4-26.3,6.4-59.3,7.1-85.9.4-18.6-1.1-37-1.1-55.5-1.7-.5-2,.7-3,1.5-7.1,5.5-14.3,13.5-21.5,19.5-47.1,38.6-106.5,64.1-165.1,80-12.6,3.4-33.9,10-46.2,10.9-2.7.2-4.3-.2-6.2-2.3-3.2-3.6-.6-6.1-1.4-7.5s-3-1.9-4.1-3c-13.5-13.4-15.2-22.5-34.2-32.8-42.4-23-97.8-23.1-140,.6-13.4,7.4-17.6,13.2-27,24.3" fill="#aaaaaa" opacity="0.5"/>
  <path id="shading-head3" d="M550,880c-1,5.4,0,8.8,1,14-5.6-.4-12.5,5.3-16.5,9-11.3,10.2-10.6,15.9-7,30,6.6,25.7,26.5,59.3,42.1,80.9,34.6,47.7,80.2,82.7,125.7,119.3,3.9,3.5,1.4,5.1-2.7,2.7-65.3-37.5-126.3-85.9-169.5-148.5-12.3-17.8-36.2-57.5-28.4-79,3.5-9.6,28.3-29.4,37.8-30.3,4.9-.5,12.1,3.2,17.5,1.9" fill="#aaaaaa" opacity="0.5"/>
  <path id="shading-head2" d="M1351,1137c-.5-.5.2-3.5,1.5-4,64.8-50.5,138.4-110.8,165.3-191.7,2.9-8.7,7.2-21.1,3.1-29.6-3.2-6.7-16.3-17.6-23.8-17.7-.9-2.5,1.7-5,1.8-6.7.2-2-2.9-4.2-1.4-6.4l18.8-2.8c11,5,34.1,18.8,37.1,31,6.6,27.5-21.9,69.4-37.9,90.7-42.4,56.1-98.8,101.8-160.2,135.8-1.1.6-3.5,2.2-4.3,1.4" fill="#aaaaaa" opacity="0.5"/>
  <path id="shading-head1" d="M1123.6,1031.6c-3.2,8.9-13.7,35.7-21.7,40.8-1.6,1-3,1.8-4.9,1.6-.6-.6,7.2-12.8,8.2-14.3,22.7-37.5,12.8-75.5-15.7-106.7-21.3-23.3-45.6-30.5-77-28-56.8,4.5-99.2,74.6-75.3,127.3,2.9,6.4,9.4,12.2,12.2,18.8s-5.6-.4-7.4-2.6c-8.1-9.7-23.4-47.5-24-60-2.3-45.8,27.9-84.5,69.5-100.5,75.6-29.1,165.4,43.2,136.1,123.6" fill="#aaaaaa" opacity="0.5"/>
  <g id="outline-head-hat" fill="#000000">
    <path id="outline-head-hat10" d="M1510,873l-2.9-18.9c17.9-5,38.1,0,55.2,6.2,4.4,1.6,18.2,6.9,21,9.7s1.3,7,1.7,10.5c1.5,12.2,5.7,29.7,6,41.1.2,8.5-12,35.8-16.2,44.8-86.3,187.6-341.7,298.9-539.4,302.6-144.2,2.7-285.2-46.2-404.4-124.5-78.7-51.7-146.1-129.9-174.1-221l7-52.8c22.2-12.6,51.4-22.8,77-16.6l-2.9,18.9c19.4,2.2,39,3.4,58.5,5,14,1.2,27.5,5.1,41.5.5l1-2c-.2-7.4,1.3-14.7,2-22,1.2-13.5-.2-37.1,7-48,2.3-3.5,14.5-14.2,14.8-15.2,1.4-4.9-1.2-17.9-2-23.6-9.7-68.8-22.2-137.4-31.7-206.3-7.2-52.4-11.2-106.8-21.5-158.5-.9-4.6-4.2-13.9-4.4-17.5-.3-5,12.6-11.5,16.7-13.9,25.3-14.3,58.3-25.2,86.3-33.7,196-59.8,419.8-60.2,617-5.5,33.5,9.3,75.3,22.5,105.5,39.5,4,2.2,16.3,8.6,16.1,13.5-.2,3.6-3.6,12.8-4.4,17.5-10,52-14.2,106-21.4,158.5-9.5,68.9-22,137.5-31.7,206.3-.9,6.1-3.2,17.3-2.1,22.8.4,1.9,12.3,12.1,15,16,7.2,10.9,5.9,34.5,7,48,.6,7.3,2.2,14.6,2,22l1,2c14.1,4.6,27.5.6,41.5-.5,19.3-1.5,38.9-2.7,58.3-4.9M1123.1,927.9c65.1-16.4,132.6-33.1,191.9-65.4,22.1-12,49-26.2,51.9-54.1,3-28.5,3.8-57.2,7.2-85.8,13.3-110.2,34.3-219.4,47.4-329.6-7.6-4.7-15.8-7.9-24.1-11-217.1-81.8-486.8-81.8-707.3-13.2-21.4,6.7-44.1,13.6-63.8,24.3,13.1,110.2,34.1,219.5,47.4,329.6,2.2,18.5,4.5,37.3,6.1,55.9,2.8,32.3-3.2,46.7,26.3,67.7,35.2,25,82.9,43,124,56,31,9.9,62.7,17.5,94.2,25.8,49.5-61.3,149.7-61.7,198.8-.2M668,808c-5.5.3-7.1,6.1-7.9,10.6-3.8,19.8-2.5,48.2-3.1,68.9-.7,25.6-3.1,55.5-1,81,1.2,14.7,11.7,20.4,22.7,28.3,18.5,13.4,39.9,27.8,59.4,39.6,57,34.7,122.2,58.6,187.9,70.6-35.5-40.6-43.2-99.5-21.2-148.7,1-2.2,8.8-15.6,8.2-16.3-32.1-6.3-63.7-16-94.5-27-40.6-14.5-88.2-33.8-121-62-14.4-12.4-26.6-25.2-29.5-45M1122,1107c65.8-11.9,130.9-35.9,187.9-70.6,19.5-11.8,40.9-26.2,59.4-39.6,11-8,21.5-13.7,22.7-28.3,2.1-25.8-.3-56-1-81.9-.5-19,0-39.2-2-58-.7-6.7-.7-19.5-9-20.5-2.4,13.5-8.5,24.8-18,34.5-33.3,34.2-88.1,56.7-132.5,72.5-30.8,11-62.4,20.7-94.5,27-.6.7,7.2,14.1,8.2,16.3,15.6,34.7,16.2,71.2,3.6,106.9-5.5,15.5-14.1,29.3-24.8,41.7M520,869c-12.8,2-32.8,2.5-38.9,15.6-18.5,40.2,3.2,79.2,24.5,112.3,49.7,77.5,161.8,152.4,244.1,191.9,49.3,23.7,114,49.7,168,58,95.2,14.7,189.9,12.7,281.9-17.8,107.5-35.7,219.9-99.6,300-180,24.3-24.4,56.7-66,68.7-98.3,6.1-16.5,7.7-58.2-4.8-71.6-6-6.5-26.6-9.1-35.4-10.1l1,20.3c-.7,2.9-28.5,8.3-33,9.2-28,5.6-56.6,9.1-85,11.5-1.7,14.8-.4,29.7-.9,44.5,0,2.4-.9,4.5-1.1,6.9-.3,5.1,1.2,12.5-1.1,16.9-26.9,26.3-54.8,51.1-87,71-57.2,35.5-122.3,57.4-188.6,68.4-7.7,1.3-17.7,1.3-24.8,3.2-6.1,1.7-13.6,8.2-19.5,11.5-41.8,22.6-86.2,22.6-128,0-6-3.2-13.4-9.8-19.5-11.5-14.9-4.1-37.1-4.9-53.6-8.4-93.3-19.4-180.2-65.2-246.3-133.7-2.9-4.6-1.2-12.1-1.5-17.5,0-2.4-1-4.6-1.1-6.9-.5-14.8.8-29.8-1-44.5-16.1-1.3-32.4-2.8-48.4-5.1-8.2-1.2-68.6-11.1-69.7-15.5l1-20.3ZM1013.8,889.3c-72.3,5.5-128.3,76.8-109.1,148.5s79.6,112,151.5,92.9c43.9-11.6,69.1-41.7,83.8-83.2,29.4-83.1-40.3-164.7-126.2-158.2" fill="#000000"/>
    <path id="outline-head-hat9" d="M1405,400c-14.5,8.1-28.1,14.6-44,19.5-82.2,25.3-174.6,37.2-260.5,41.5-134.7,6.7-283.2-1.8-412.7-41.3-16.2-5-30.1-11.5-44.8-19.7,1.2-2.9,5.8-2.1,8.4-1.9,16.3,1.6,39.6,9.8,56.6,13.4,217,46.6,415,46.6,632,0,17.2-3.7,39.1-11.3,55.7-13.2,2.9-.4,7.9-1.4,9.3,1.7" fill="#000000"/>
    <path id="outline-head-hat8" d="M1094,1230c-.8-2.6,4.2-2.9,6-3.5,28.6-8.6,56.6-13.4,85.5-23.5,72.3-25.2,144.2-54.4,206.4-99.6,50.6-36.8,105.8-87,137.9-141.1,4.4-7.3,13.9-23.1,16.7-30.3,3.6-9.4-.3-19.3-3.7-28.2-1.6-4.2-6.9-10.7-4.8-14.3,3.8-6.5,8.3-.6,11.5,3.6,7.9,10.4,14.7,30.2,11,42.9-10.3,35.6-49.8,76.1-75.4,102.6-84,86.7-177.5,133.4-290.5,172.5-32.4,11.1-66.4,17.4-100.6,18.9" fill="#000000"/>
    <path id="outline-head-hat7" d="M953,1228l-1.5,2c-9.3-1.8-19.5-1-28.9-2.2-21.3-2.6-48.8-9.8-69.1-16.9-113-39.1-206.5-85.8-290.5-172.5-25.7-26.5-65.1-67-75.4-102.6-3.7-12.6,3.1-32.5,11-42.9,3.2-4.2,7.7-10.2,11.5-3.6,2.1,3.6-3.2,10.1-4.8,14.3-3.4,9-7.3,18.8-3.7,28.2,2.8,7.2,12.3,23,16.7,30.3,32.2,54.2,87.7,104.7,138.5,141.5,61.8,44.9,133.2,73.8,205.1,98.9,30,10.8,60.2,17.9,91.1,25.5" fill="#000000"/>
    <path id="outline-head-hat6" d="M1009.8,910.3c76.2-7.1,135.9,57.7,111.7,132.7-26.6,82.4-144.8,92.1-187.3,17.3-34.6-60.9,5.3-143.5,75.6-150M1013.8,916.3c-66.7,6.5-103.2,81.5-71.3,139.7,31.3,57,109.6,65.8,152,16,55.1-64.6,4.9-164-80.7-155.7" fill="#000000"/>
    <path id="shading-head-knucks" d="M1110.5,997.9c-1.3-5.9-18.6-28.9-23.9-30.5-3.7-1.1-8,2.1-11.7,5-2.4,1.8-4.9,3.8-6.3,3.8s-3.9-2.3-6.4-4.1c-5.5-4-12.4-8.9-16.5-8.6-3.3.3-7.2,3.9-11.5,7.7-3.8,3.4-8.1,7.2-10.5,7-2.1,0-6-3.6-9.4-6.8-4.4-3.9-8.5-7.7-11.7-7.9-4.1-.4-11,4.6-16.5,8.5-2.5,1.8-5.7,4.1-6.5,4.2-1.5,0-4.1-1.9-6.7-3.9-3.6-2.7-7.3-5.5-10.4-5.1-5.2.7-21.2,22.1-23.1,26.4-3,6.7-3.4,19,.8,26.6,2.2,3.9,5.4,6.3,9.3,6.9,4.8.7,12.5-.3,20.6-1.4,10.5-1.4,22.3-3,26.3-.2,1.7,1.2,2.5,2.6,2.3,3.9-.3,2.5-3.5,4.9-6.4,6-2.3,1-7.9,1.8-12.9,2.6-6.9,1.1-9.7,1.6-10.6,2.4-1.7,1.6-3.8,11.3-3.8,13.3.3,6.9,7.7,8.4,13.1,9.6.6,0,1.2.2,1.7.4,14.3,3.1,31.7,3.8,44.3,3.8s11.7-.2,14.5-.3c5.8-.3,36.4-2.9,41.7-7.7,1.9-1.7,2.3-4.8,2.3-7.1,0-4.7-1.5-10.1-3.5-11.9-.9-.9-3.9-1.5-11.3-2.6-4.7-.7-10-1.5-12.3-2.4-2.7-1.1-5.9-3.4-6.3-5.8-.2-1.3.4-2.5,1.8-3.8,4-3.5,14.5-1.9,24.6-.4,10.6,1.6,21.5,3.3,27.4-.3,7.8-4.5,8.9-20.4,7.3-27.3h.2ZM1083.4,1006.8c-2.9-1.2-5-5.2-4.6-8.9.4-3.1,2.5-5.2,6.1-5.7h.8c2.2,0,3.9,1.6,4.9,3.2,1.3,2.1,1.9,5.6-.4,8.6-2.2,2.8-4.5,3.8-6.8,2.9h0ZM1051,1003.8c-3.3,1-6.1.5-8.1-1.4-2.1-2-3-5.4-2.3-8.4.3-1.4,1.4-4,4.4-4.8,1.1-.3,2.1-.5,3-.5,4,0,6.4,2.8,7.2,5.7,1.1,3.7,0,8.2-4.2,9.5h0ZM992.6,994c.3-1.4,1.4-4,4.4-4.8,1.1-.3,2.1-.5,3-.5,4,0,6.4,2.8,7.2,5.7,1.1,3.7,0,8.2-4.2,9.5-3.3,1-6.1.5-8.1-1.4-2.1-2-3-5.4-2.3-8.4h0ZM963.1,1006.8c-4.1.4-6.1-3-6.7-5.9-.6-3.6.7-7.8,4.5-8.8,2.9-.8,4.9.9,5.9,1.9,2.1,2.4,2.9,6.3,1.8,9.1-.9,2.2-2.8,3.5-5.5,3.7" fill="#aaaaaa" opacity="0.5"/>
    <path id="fill-head" d="M1088.5,975c-5.8-4.9-14.1,8.7-19.8,7.8s-20-15.3-23.1-14.7c-4.7,3.2-16.8,15.1-22.1,14.8s-19.8-14.9-21.8-14.8c-6.2,2.3-16.5,13.8-22.4,14.7-5.2.8-12.7-10.7-18.6-8.7-1.4.5-17.6,21.7-18.2,23.8-1.7,5.7,1.2,18.7,7.5,20.6,15.8,4.8,34.7-11.5,49.4-.4,14.7,11.2-6.1,24.6-17.9,25.7-1.7.2-3.8-1.5-5.4-.5-.9.6-4.3,7.4-3.6,8.6,3.6,5.6,37.9,5.8,45.1,6,15,.2,33.8.8,48.5-2.4,3.9-.9,10.7-1.6,9.2-6.2-2.7-8.4-3.8-5-8.6-5.4-9.6-.9-24.8-8.8-22.6-20.4.7-3.3,9.4-9,12.5-9.5,15.2-2.5,45.2,17.7,49.2-7.8,2-12.6-11.2-21.3-17.3-31.2M952.6,1004.9c-8.6-14,10.2-26.7,20.1-15.6,11.7,13.2-11.5,29.6-20.1,15.6M998,1007.6c-14.3-2.6-13.1-23.7-1.3-26.4,21.4-5,20.8,30,1.3,26.4M1037,1001.5c-8.6-13.3,9.2-27.6,19.7-17.2,13.5,13.6-8.8,34.1-19.7,17.2M1095.4,1004.9c-8.6,14-31.8-2.4-20.1-15.6,9.9-11.1,28.8,1.8,20.1,15.6" fill="#ffffff"/>
    <path id="outline-head-hat5" d="M1079.7,1056.7c-4.8,4.3-33.7,7-41.1,7.4-17.7.8-41.3.3-58.6-3.5-5.3-1.2-13.7-2.2-14-9,0-2.1,2.2-11.3,3.5-12.5,1.5-1.4,18.5-2.8,23.2-4.8,5.2-2.1,10.3-7.3,4.3-11.7-7.4-5.3-36.2,3.1-47.4,1.4-12.6-1.9-13.4-22.8-9.3-32.1,2.2-4.9,17.9-25.2,22.3-25.8,5-.7,13,9.2,17,9,2.7,0,16.7-13.3,22.8-12.7,5.7.5,16.2,14.4,21.2,14.7,5.6.4,16.1-14.2,22.1-14.7,6.1-.5,20.1,12.6,22.8,12.7,4.3,0,12.2-10.5,17.8-8.8,4.9,1.5,22,24.2,23.2,29.8,1.7,7.3.2,22.1-6.8,26.2-11.4,6.8-43.5-6.8-52.2.8-5.2,4.5,0,9.3,4.8,11.2s21.8,3.3,23.2,4.8c2.9,2.7,4.9,14.3,1.2,17.6M1001.7,968.1c-6.2,2.3-16.5,13.8-22.4,14.7-5.2.8-12.7-10.7-18.6-8.7-1.4.5-17.6,21.7-18.2,23.8-1.7,5.7,1.2,18.7,7.5,20.6,15.8,4.8,34.7-11.5,49.4-.4,14.7,11.2-6.1,24.6-17.9,25.7-1.7.2-3.8-1.5-5.4-.5-.9.6-4.3,7.4-3.6,8.6,3.6,5.6,37.9,5.8,45.1,6,15,.2,33.8.8,48.5-2.4,3.9-.9,10.7-1.6,9.2-6.2-2.7-8.4-3.8-5-8.6-5.4-9.6-.9-24.8-8.8-22.6-20.4.7-3.3,9.4-9,12.5-9.5,15.2-2.5,45.2,17.7,49.2-7.8,2-12.6-11.2-21.3-17.3-31.2-5.8-4.9-14.1,8.7-19.8,7.8s-20-15.3-23.1-14.7c-4.7,3.2-16.8,15.1-22.1,14.8s-19.8-14.9-21.8-14.8" fill="#000000"/>
    <path id="outline-head-hat3" d="M996.7,981.2c21.4-5,20.8,30,1.3,26.4-14.3-2.6-13.1-23.7-1.3-26.4M996.7,986.2c-9.2,2.7-6.2,20.4,6.6,16.6,9.4-2.8,5.9-20.3-6.6-16.6" fill="#000000"/>
    <path id="outline-head-hat2" d="M972.7,989.3c11.7,13.2-11.5,29.6-20.1,15.6s10.2-26.7,20.1-15.6M960.7,989.1c-8.4,2.3-6.6,17.5,2.5,16.7,11.8-1,7-19.2-2.5-16.7" fill="#000000"/>
    <path id="outline-head-hat4" d="M1056.7,984.3c13.5,13.6-8.8,34.1-19.7,17.2-8.6-13.3,9.2-27.6,19.7-17.2M1044.7,986.2c-9.2,2.7-6.2,20.4,6.6,16.6,9.4-2.8,5.9-20.3-6.6-16.6" fill="#000000"/>
    <path id="outline-head-hat1" d="M1075.3,989.3c9.9-11.1,28.8,1.8,20.1,15.6-8.6,14-31.8-2.4-20.1-15.6M1084.8,989.2c-14.5,2.3-3.4,25.7,6.2,13.3,4.5-5.7-.4-14.3-6.2-13.3" fill="#000000"/>
    <g id="shading-head" fill="#aaaaaa" opacity="0.5">
      <path id="shading-head31" data-name="shading-head3" d="M996.7,979.2c-6.2,1.4-9.5,7.9-9.1,14.2.4-5.6,3.6-10.9,9.1-12.2,10.3-2.4,15.5,4.5,16,11.9.5-8.1-4.7-16.5-16-13.9" fill="#aaaaaa" opacity="0.5"/>
      <path id="shading-head41" data-name="shading-head4" d="M972.7,987.3c-8.4-9.4-23.2-1.7-22.2,9.4.8-10,14.4-16.3,22.2-7.4,2,2.3,3,4.6,3.2,6.9.3-2.9-.6-6-3.2-8.9" fill="#aaaaaa" opacity="0.5"/>
      <path id="shading-head5" d="M1056.7,982.3c-8.9-8.8-22.9,0-21.9,11,.8-10,13.6-17.2,21.9-9,2.7,2.7,3.9,5.7,4.2,8.6.3-3.5-.9-7.3-4.2-10.6" fill="#aaaaaa" opacity="0.5"/>
      <path id="shading-head6" d="M1097.6,996.8c1-11-13.9-18.9-22.3-9.5-2.6,2.9-3.5,6-3.2,8.9.2-2.3,1.2-4.6,3.2-6.9,7.9-8.8,21.4-2.5,22.3,7.5" fill="#aaaaaa" opacity="0.5"/>
      <path id="shading-head7" d="M998,1007.6c-6.8-1.2-10.1-6.6-10.4-12.2-.4,6.3,2.8,12.8,10.4,14.2,10.1,1.9,15.1-6.6,14.7-14.5-.4,7.3-5.4,14.2-14.7,12.5" fill="#aaaaaa" opacity="0.5"/>
      <path id="shading-head8" d="M952.6,1004.9c-1.3-2.1-2-4.2-2.1-6.2-.2,2.5.4,5.3,2.1,8.2,7.1,11.6,24.3,2.3,23.3-8.7-1,10.1-16.6,17.6-23.3,6.7" fill="#aaaaaa" opacity="0.5"/>
      <path id="shading-head9" d="M1037,1001.5c-1.4-2.1-2-4.2-2.2-6.2-.2,2.6.4,5.5,2.2,8.2,8.7,13.5,24.8,3.1,23.9-8.6-.9,10.8-15.6,19.4-23.9,6.6" fill="#aaaaaa" opacity="0.5"/>
      <path id="shading-head10" d="M1095.4,1004.9c-6.7,10.9-22.2,3.4-23.3-6.7-1,11,16.1,20.3,23.3,8.7,1.8-2.8,2.4-5.6,2.2-8.1-.2,2-.9,4-2.2,6.1" fill="#aaaaaa" opacity="0.5"/>
    </g>
  </g>
  <g id="shading-head11" fill="#aaaaaa" opacity="0.5">
    <path id="shading-head12" d="M960.7,976.1c5.9-2,13.4,9.5,18.6,8.7,5.9-.9,16.2-12.4,22.4-14.7,2,0,16.5,14.5,21.8,14.8,5.3.3,17.4-11.6,22.1-14.8,3.1-.6,17.4,13.8,23.1,14.7s14-12.7,19.8-7.8c5.5,8.9,16.8,16.9,17.5,27.6.7-11.7-11.6-20.1-17.5-29.6-5.8-4.9-14.1,8.7-19.8,7.8s-20-15.3-23.1-14.7c-4.7,3.2-16.8,15.1-22.1,14.8s-19.8-14.9-21.8-14.8c-6.2,2.3-16.5,13.8-22.4,14.7-5.2.8-12.7-10.7-18.6-8.7-1.4.5-17.6,21.7-18.2,23.8-.4,1.3-.5,3-.5,4.9,0-1.1.2-2.1.5-2.9.6-2.1,16.8-23.3,18.2-23.8" fill="#aaaaaa" opacity="0.5"/>
    <path id="shading-head13" d="M1055.3,1036.3c4.8,1.9,21.8,3.3,23.2,4.8,1.6,1.5,3,5.8,3.2,9.9.2-4.6-1.3-10.1-3.2-11.9-1.4-1.5-18.4-2.9-23.2-4.8-3-1.2-6.2-3.5-6.8-6.2-.9,3.5,3.1,6.7,6.8,8.2" fill="#aaaaaa" opacity="0.5"/>
    <path id="shading-head14" d="M992.7,1036.3c3.9-1.6,7.8-4.9,6.9-8.3-.6,2.7-3.7,5.1-6.9,6.3-4.7,2-21.7,3.4-23.2,4.8-1.3,1.2-3.5,10.4-3.5,12.5s0,.6,0,.9c.5-3.2,2.3-10.3,3.4-11.4,1.5-1.4,18.5-2.8,23.2-4.8" fill="#aaaaaa" opacity="0.5"/>
    <path id="shading-head15" d="M976.1,1045.3c1.6-1,3.7.7,5.4.5,9.3-.9,24.1-9.3,22.9-18.3-1,8.2-14.3,15.5-22.9,16.3-1.7.2-3.8-1.5-5.4-.5-.9.6-4.3,7.4-3.6,8.6l.2.2c.7-2.4,2.8-6.3,3.4-6.8" fill="#aaaaaa" opacity="0.5"/>
    <path id="shading-head16" d="M999.4,1016.1c-14.7-11.1-33.6,5.2-49.4.4-4.8-1.5-7.7-9.5-8-15.7-.3,6.4,2.6,16.1,8,17.7,15.8,4.8,34.7-11.5,49.4-.4,3.2,2.4,4.7,4.9,5,7.4.4-3.1-1-6.3-5-9.4" fill="#aaaaaa" opacity="0.5"/>
    <path id="shading-head17" d="M1056.6,1014c15.2-2.5,45.2,17.7,49.2-7.8.2-1.2.2-2.4.2-3.6,0,.5,0,1.1-.2,1.6-4,25.5-34,5.3-49.2,7.8-3.1.5-11.8,6.2-12.5,9.5-.2,1.1-.3,2.2-.2,3.3,0-.4,0-.8.2-1.3.7-3.3,9.4-9,12.5-9.5" fill="#aaaaaa" opacity="0.5"/>
    <path id="shading-head18" d="M1066.1,1053.5c-14.7,3.2-33.5,2.6-48.5,2.4-7.1-.2-40.7-.4-44.9-5.8-.2.8-.3,1.5-.2,1.8,3.6,5.6,37.9,5.8,45.1,6,15,.2,33.8.8,48.5-2.4,3.8-.9,10.5-1.6,9.2-6-1,2.7-6.1,3.3-9.2,4" fill="#aaaaaa" opacity="0.5"/>
    <path id="shading-head19" d="M1066.7,1045.9c4.8.4,5.9-3,8.6,5.4v.2c.2-.6.2-1.3,0-2.2-2.7-8.4-3.8-5-8.6-5.4-8.7-.8-21.9-7.3-22.8-17.1-.9,10.9,13.5,18.3,22.8,19.1" fill="#aaaaaa" opacity="0.5"/>
  </g>
    </g><g class="trait-group" data-category="mouthpiece" id="mouthpiece-nosering">
      <path id="fill-nosering" fill="#ffffff" d="M1000 1361c-4.4 14.5-13.5 36 1 47.5 12.2 9.6 32.5 9.9 45 .9 16-11.4 6.6-33.4 2.1-48.4 38.4-2.2 59.8 43.8 36 73.5-32 39.8-87.9 39.8-120 0-23.9-29.6-2.4-75.7 36-73.5Z" class="fill" data-original-prefix="fill"/><path id="shading-mouthbit" fill="#aaaaaa" d="M1000 1361c-4.4 14.5-13.5 36 1 47.5 12.2 9.6 32.5 9.9 45 .9 16-11.4 6.6-33.4 2.1-48.4 38.4-2.2 59.8 43.8 36 73.5-32 39.8-87.9 39.8-120 0-23.9-29.6-2.4-75.7 36-73.5Zm-25.8 9.2c-.8.5-9.6 13.6-10.2 15.2-4.8 12.2-.5 33.1 8.1 43 23.8 27.6 74.5 28.4 100.5 3.6 11.1-10.6 18-35.5 10.3-49.4-1-1.7-9.2-12.1-10.6-12.5-4.7-1.3-11.9 4.7-13.9 8.8v32c-7.3 3.5-14.6 8.6-22 11.9-11.8 5.3-12.2 5.3-24.1.3-7.9-3.4-15.1-8.4-22.8-12.2-.2-7-1.1-14.7-1.3-21.5 0-3.5 1.8-7.7.6-11.8-1.1-3.7-11.2-9.5-14.6-7.5Z" class="outline shading" data-original-prefix="shading" opacity="0.5" style="opacity: 0.5"/><path id="outline-mouthbit" fill="#000000" d="M990.8 1356.3c24.1-2.6 14.7 3.9 10.5 17.4-1.5 4.8-3.2 11.8-3.3 16.7-.6 27.4 52.1 26.8 52.1 1s-1.8-12.7-3.3-17.8c-2.3-7.4-11.3-16.7.7-17.8 45.2-4.1 67.1 51.9 38.1 85.1-31.8 36.3-82.1 37.5-117.5 5.5-32.1-29.1-21-85.5 22.8-90.2Zm6.2 7.7c-38.7 8.9-50.2 50.8-19 77.5 29.5 25.2 61.8 25.3 91.5.5 31.7-26.5 20.7-68.9-18.5-78 4.7 10.6 11.9 20 10.7 32.2-4.2 43.6-72.3 43-75.6-.8-.9-11.5 6.5-21.4 10.9-31.4" class="outline" data-original-prefix="outline"/>
    </g>
</svg>