<?xml version="1.0" encoding="UTF-8"?>
<?xml-stylesheet type="text/css" href="../styles/semantic.css" ?>
<svg xmlns="http://www.w3.org/2000/svg" viewBox="0 0 2048 2048">
  <g class="trait-group" data-category="background" id="background-green">
      <path id="color-green" fill="#32992c" d="M2048 0v2048H0V0z" data-original-style="transition:fill .3s ease" style="fill: #32992c" class="color"/>
    </g><g class="trait-group" data-category="jaw" id="jaw-robo">
      <path id="fill-jaw-robo1" fill="#ffffff" d="M1369.9 1062.1c.4.5 1 11.1 1.4 13.1 11.6 61.7 25.9 123 37.2 184.8 16.2 20.3 35.3 38.1 51.5 58.4l-70.1 149.9-2.3 1.6-31.6-1.9-7.8 59.7-101.2 128.8c-1.6 1.1-2.6-.6-3.6-1.6-11.2-11.1-20.8-28.6-32-40-1.3-1.3-2.6-3.5-4.8-2.9-3.4.9-32.4 51.8-38.3 57.8-25.8 9.8-49.6 24-74.7 35.3-8.9 4-63.2 23-65.1 25.9-.6 1-.4 2.8-.6 2.9-.2.2-3.1-.9-4.4-.9s-3.2 1.3-3.6.9c-.3-.3.7-2.4-2.3-4.2-13.4-8.1-38.6-14-54.4-20.6-28.2-11.8-54.4-28.3-83.3-38.7-6.3-5.8-35.3-57.4-38.7-58.4-2.2-.7-4.5 2.4-5.9 3.9-11.6 12.1-21.3 28.8-33.1 41l-1.9-.9-100.9-128.1c-3.2-19.9-5.4-39.9-7.5-60l-31.6 1.9-2.5-1.4-69.8-149.3c-.3-1.9 4.6-7.3 6.3-9.3 14.5-16.8 30.7-32.1 44.6-49.4 10.6-62 27.2-123.3 37.7-185.3.5-3.2-.7-11.9 2-13.3 104.8-21.7 209.7-42.7 314.5-64.3 7.3-1.5 24.9-7.3 30.5-7.5 4.2 0 24.8 6.2 31.1 7.5 105 21.6 210.1 42.9 315.1 64.4v.2z" class="fill" data-original-prefix="fill"/><path id="shading-jaw-main" fill="#aaaaaa" d="m1369.9 1062.1 28.1 145.4c-4.8-.6-19.2-17.4-22.3-16.4-3.4 1-21.1 37.8-20.7 42.4 12.3 15.8 24.8 31.6 35.4 48.6 3.7 5.9 15.5 24.5 15.6 30.5 0 4.7-10.7 25-13.5 30.5-4.5 8.7-9.8 16.9-14.5 25.5 17.3-8 33.9-18.4 49.3-29.7 4.1-3 10.3-7 13.7-10.3 2.3-2.2 12.4-16.5 13.5-16.5l5.5 6.4-65.1 139.9-6.5 11.5-32.3-1.9-7.8 59.7-101.2 128.8c-1.6 1.1-2.6-.6-3.6-1.6-11.1-11.1-20.8-29.2-31.9-40-.8-.8-1.6-2.1-2.9-1.9-7.3 1.3-32.3 48.3-39.7 55.4-30.9 14.9-60.7 32.4-91.6 47.4-12.8 6.2-33.2 17.2-46.8 18.2-23.7 1.7-37.4-7.3-57.9-17.2-31.4-15.1-61.6-32.8-93-48-8.2-6.6-32.8-54.4-40.3-55.8-2.8-.5-31.3 38.2-35.8 43-1 1.2-2 1.2-3.1 0l-100.9-128.1-7.5-60-31.6 1.9-2.5-1.4-69.8-149.3c-.3-3.1 3.7-7.8 6.8-5.8 1.9 1.2 8.8 11.9 11.5 14.6 2.9 2.9 7.8 6.2 11.2 8.8 4.5 3.4 49.2 33.3 51.3 31.2-7.3-15.4-17.3-29.8-23.8-45.6-1.2-2.9-3.2-6.7-3.2-9.9 0-5.3 10.4-22 13.7-27.4 11-18.2 24.3-34.9 37.4-51.6-4.2-15.2-12-29-20.1-42.3-.9-.5-2 0-2.9.4-6.3 3.4-12.9 13.3-20 16.5l28.1-145.9 45.8-9.7c48.2-55 116.4-93.5 184.8-118.2 72.2-26 130.6-31.5 205-8.5 77.7 24 155.9 65.5 210.3 126.7zM854 1330c-21-6.7-43.3-4.3-64.4-11.1-14-4.5-30.8-14.7-42.9-23.1-18.1-12.6-35.7-28.4-49.2-45.8-10.7 14.6-22.1 30.4-30.7 46.3-4.3 8-11.3 21.1-7.7 30.1l27.1 48.4c6.1 1.6 17.5-4.7 22.8-2.3 1.5.7 2.4 3.5 4.5 3.5s4.4-5.1 7-5.1 3.4 4.4 7 4.1 5.2-6.6 7.2-7c.5 0 8.2 2.7 8.6 2.9 4.7 2.4.3 18-3.2 21.4.3 1.5 14.2 9.3 16.4 9.6 2.9.5.2-2.4 1-4.9s6.5-6.3 8.8-5.9c5.4.9 6.3 10.2 14.7.3 1.9-2.2 0-4.1 4.5-4.6 8.5-1 5 8.4 7 14.1 12.4-17.2 20.2-37.4 32.1-54.9l29.4-16.1Zm507.8 44.8c8.8-17.7 20.1-34.4 28.2-52.3-.4-8.9-2.9-14.5-6.9-22.2-8.9-17.4-21.4-34.4-32.7-50.3-21.1 25.5-52 52.2-82.8 65.2-24.8 10.4-48.4 7.8-73.7 14.8l29.7 16.3c11.6 17.6 19.4 37.7 31.8 54.7.9-1.8 1-13.5 1.5-14s7.3-.2 7.8.2c1 .6 1.6 7.8 6.9 8.7 6.3 1.1 7.7-7.8 15.4-2.8 2.7 1.8 3.1 6 2.8 8.9 1.2 1.4 17.7-8.3 18-9.6.2-1-3.9-5.8-4.6-8.4-2.2-9.5-1.5-13.7 8.4-14.8 5.3-.6 2.8 2.2 5.5 4.5 4.6 4 7.8-2.7 10-2.6 2.7.2 5 4.9 7.2 4.9s3-2.8 4.5-3.5c5.2-2.4 16.6 3.8 22.8 2.3zM1078 1327c-5.5-11.1-10.5-24.8-17.6-34.9-4.2-6.1-10.2-10.5-14.9-16.1-3.4-4-15.2-20.5-18.4-21.6-1.9-.6-4.4-.8-6.3-.2-2.4.7-15.7 18.7-18.7 22.3s-7.4 6.8-10.5 10.5c-9.4 11.2-15.1 26.9-21.5 40h108Zm-353.8 172.8c24.8 5.4 50.2 7.7 75 13.6 17.3 4.1 20.3 3.6 29.6 19.4 5.3 8.9 9.2 18.7 14.2 27.8l17 14-29.2-80.8c-2.4-5.8-8-8-13.1-10.9-22.2-12.9-51.7-27.2-75.7-36.3-2.6-1-8.1-3.8-10.4-3.5-1 0-15.6 9.5-16.3 10.3-6.3 7.6 6.8 37.2 8.9 46.5Zm599.6 0c2.5-10.6 8.2-22.1 9.8-32.7.8-5.7 1.7-10.9-3-15.1-1.1-1-13.2-8.9-14-9-2.5-.3-19.4 7.2-23.2 8.8-20.7 8.8-45.7 20.5-65 32-5.6 3.4-8.8 4.9-11.8 11.2l-28.5 80 16.4-14.1c7.1-10.9 14.9-35.4 25.9-42.1 6.1-3.8 19.9-5.9 27.5-7.5 21.8-4.6 44.2-6.7 66-11.5zM908.5 1649v1c.7-.3.7-.7 0-1m229.5 1c-31 8.8-60.6 26.8-91 36.5-19.3 6.2-28.3 5.9-47.5-.4-28.3-9.3-56.5-25.5-85-35.1-1.2-.4-3.6-1.8-4.5-.5.8 2.1 2.7 4.2 4 6 4.9 6.3 18 23.3 23.5 27.5 7.2 5.5 27.9 14.6 37.1 18.9 5 2.3 20.9 10.5 24.9 11.1 9 1.4 36.3 1 46 0 7-.6 57.7-24.6 64.4-29.6 5.3-3.9 18.2-20.8 23-27 .8-1 5.8-6.8 5-7.5Z" class="outline shading" data-original-prefix="shading" opacity="0.5" style="opacity: 0.5"/><path id="outline-jaw" fill="#000000" d="M670 1105c2 .2 9.2 3.6 9.8 5.7 1 3.3-1.3 18.1-2 22.7-6 41.8-19.7 84.1-28.6 125.4-12.3 18.3-29.3 33.5-43.8 50.2-1.2 1.3-6.5 7.5-6.5 8.5l56 135.5c1.5.4 1.7-.4 2.5-1 7.1-4.9 23.9-23.3 30.5-30.5 1.5-1.6 9.9-11.2 10-12-17.6-32.9-42.5-63.1-49.8-100.8 17.2-28.9 35.3-57.4 56.9-83.2 6.2-7.4 21.8-27.5 32-26.1 4.7.6 8.6 4.8 6.4 9.5-23 21-44.9 44.7-62.7 70.3-3.2 4.6-15.2 22.2-15.6 26.5-.5 5.1 11.8 29.8 15 35.6 7 12.8 29.4 46.8 40.5 54.5 2.8 1.9 7 3.2 10 5 77.7 46.7 153.2 90.1 243.1 109.9 13.1 2.9 37.4 9.1 49.8 9.2 11.3 0 33.7-5.7 45.6-8.2 92.6-19.7 168.3-62.9 248.1-110.9 3.1-1.8 7.2-3.1 10-5 11.1-7.7 33.4-41.8 40.5-54.5 3.2-5.8 15.5-30.5 15-35.6-.4-3.9-10.7-19.3-13.6-23.5-18.3-27-40.8-51.3-64.7-73.3-2.5-9.2 6.9-10.8 13.8-7.8 10.7 4.6 40.4 44.2 48.5 55.5 11.9 16.7 22.3 34.6 33 52.1-7.3 37.7-32.2 67.9-49.8 100.8 0 .8 8.5 10.4 10 12 6.6 7.2 23.4 25.6 30.5 30.5.8.6 1 1.4 2.5 1l55.8-135.3c-15.4-20.6-35.6-37.7-50.1-58.9-8.6-41-22.6-83.1-28.6-124.4-.7-4.8-3.1-20-1.9-23.7.6-2.1 8-5.5 9.8-5.7 4.6-.4 10.8 5.1 11.9 9.6 8.1 44.1 13.6 92.9 27.6 135.4 9.1 27.6 33.8 39.8 52 60 4.9 5.4 6.6 7.2 4.8 14.8-2.1 8.6-9.2 23.2-12.8 32.2-16.7 41-35.5 81.7-54.5 121.5-2.5 2.1-18.6 9-21.4 8.6-4.6-.7-13.3-13.3-18.5-15-3.1 22.3-7.1 44.7-11.8 66.7-29.2 38.3-55.4 79-82.3 118.7-10.2 4.1-22.2 12.3-32.2 15.8-1.5.5-3 1.3-4.6.7l-24.6-43.9c-1.1.5-16.2 15.9-17.3 17.7-6.5 10.1-3.8 21-14.2 29.8-22.9 19.1-72.2 40.2-100.7 51.3-18.6 7.3-34.3 14.2-54.7 14.3-24 .2-49.5-11.4-71.5-20.6-23.2-9.8-67.3-29.4-85.5-45.5-10.3-9.1-7.3-19.2-13.7-29.3-1.1-1.7-16.2-17.1-17.3-17.7L812 1674c-1.6.6-3.1 0-4.6-.7-10.1-3.5-22-11.7-32.2-15.8-26.9-39.8-53.1-80.4-82.3-118.7-4.7-22-8.6-44.4-11.8-66.7-5.2 1.7-14 14.4-18.5 15-2.8.4-18.9-6.5-21.4-8.6-19-39.8-37.8-80.5-54.5-121.5-3.6-8.9-10.8-23.6-12.8-32.2-1.8-7.6 0-9.4 4.8-14.8 13.4-14.9 37.6-30.5 47.2-47.8 7.3-13.1 12.4-41.8 15.8-57.2 4.5-20.4 8.5-41.2 12.2-61.8 1.5-8.5 1.8-19.4 3.7-27.3 1.2-5 7.2-11.3 12.6-10.9zm664.9 411.9 14.2-77.4c-.2-3.8-5.4-5.5-8.1-8-2.9-2.7-5.4-5.9-8.6-8.3-82.7 31.3-155.3 82.7-242.3 103.3-57 13.5-94.2 11-150.2-4.8-69.9-19.7-131-59.2-197.1-87.9-6-2.6-20.1-9.4-25.7-10.4-2.8-.5-7.7 6-10 8.1-2.1 2-7.6 4.5-8.1 7l14.2 78.3c17.8 1.1 35.6 3.8 53.4 5.1 9.3.7 42.4-.4 47.8 3.9 8.5 20 14.6 41 23.2 61 2.8 6.5 6.2 15.2 9.9 21.1 5.4 8.7 15 14.9 20 23.1 5.6 9.2 8.1 23.6 15.5 31.5 5.1 5.5 21.6 15 28.8 19.2 31 18.4 83.7 44.6 119.8 42.2 30.1-1.9 87.2-31 113.4-47.6 5.2-3.3 16.2-9.8 20.1-13.9 7.2-7.5 10.4-24.2 16.1-32.9 2.7-4.1 8-7.8 11.3-11.7 8.3-9.7 11.9-17.5 16.9-29.1 9-20.6 15.3-42.4 24.2-63 14.6-5 32.2-2.8 47.8-4 17.8-1.3 35.6-4.1 53.4-5.1v.3ZM801 1649c5.8-16.3 16.4-30.6 24.8-45.6-4.3-11.7-7.5-23.9-12-35.6-2.2-5.8-7.4-19.7-10.9-24.1-10.8-13.6-69.6-12.5-86.9-16.6-.5 1.7.7 2 1.5 3 13.4 17.3 27.7 33.6 40.3 51.7 15.2 21.9 28.4 45.1 43.2 67.3Zm531-122c-17.3 4.1-76.1 3-86.9 16.6-3.5 4.4-8.6 18.3-10.9 24.1-4.5 11.7-7.7 23.9-12 35.6 8.4 15.1 18.9 29.3 24.8 45.6 14.7-22.2 27.9-45.4 43.2-67.3 12.6-18.1 26.9-34.3 40.3-51.7.8-1 1.9-1.3 1.5-3Z" class="outline" data-original-prefix="outline"/><path id="outline-jaw1" fill="#000000" d="M785.7 1376.3c8.1 7.2 8.5 18.5 4.1 27.9-5.2 10.9-19.3 10.7-26.7 2.3-15.1-17.3 3.6-47 22.7-30.2Zm-12 4.9c-10.7 1.7-7.7 23.9 4.7 21.8 10.2-1.7 4.4-23.3-4.7-21.8" class="outline" data-name="outline-jaw" data-original-prefix="outline"/><path id="outline-jaw2" fill="#000000" d="M1262.3 1376.3c22.7-20.1 40.5 23.7 16.9 34.4-21.7 9.8-31.5-21.5-16.9-34.4m10.4 4.9c-10.5 1.7-12.6 25.9 1.3 21.4 10.1-3.2 8.1-22.9-1.3-21.4" class="outline" data-name="outline-jaw" data-original-prefix="outline"/><path id="outline-jaw3" fill="#000000" d="M723.7 1356.2c15.6-2.8 28.9 19.5 15.8 29.8-10 7.8-24 0-26.8-11.2-1.8-7.1 3.5-17.2 11-18.6m9.1 22.6c6.5-6.5-8.3-22.1-11.4-7.8-1.5 7.3 7.1 12.1 11.4 7.8" class="outline" data-name="outline-jaw" data-original-prefix="outline"/><path id="outline-jaw4" fill="#000000" d="M1317.7 1356.2c14.2-2.9 23 13.6 14.3 25.3-12 16-34.6 4.8-27.5-13.5 1.7-4.3 8.7-10.8 13.2-11.8m-2.5 22.6c4.3 4.3 12.9-.5 11.4-7.8-3-14.3-17.9 1.3-11.4 7.8" class="outline" data-name="outline-jaw" data-original-prefix="outline"/>
    </g><g class="trait-group" data-category="mouth" id="mouth-scrappy">
      <path id="fill-muzzle" fill="#ffffff" d="M1038 1292s-.4 1.7.7 2c10.3 2.8 18 4.3 25.8 13 1.9 2.2 4.9 8.8 6.5 9.5 2.6 1.2 6.6 0 9.5.5 11.4 1.5 21.2 3.7 31.2 9.8 2.1 1.3 9.2 7.8 10.2 7.1.3-.3 0-1.7 0-1.9 2.4-1.8 32.7.6 38 1 5.2 4.2 13.2 5.5 19.2 8.3 13.7 6.4 22.5 16.1 29.9 29.1 8.4 14.6 7.7 17.8 3.1 33.4-2.5 8.5-4.8 21.8-16.3 20.2 1.5-15.5-14.8-32.4-26.5-41-3.2-2.4-11.3-7.2-6 0 10.8 14.7 20.2 14.8 21.5 37.5.6 10.3-8.4 32.9-15.4 40.5-.6.7-7.1 6.3-7.6 6.5-3 1.6-6.9-6.1-7.8-8.2-3.6-7.8-4.7-15.5-9.7-23.3-1.1-1.7-10.8-13.7-12.4-12.1 5.6 13 9 46.2-2.5 56-4.4 3.7-9.4 1.9-13.3 3.7-2.8 1.3-3 5.7-4.8 6.1s-7-3.1-9.4-3.5c-8.9-1.3-13.2 17-18.7 17.5-2.5.2-10.7-11.9-18.4-9.4-7 2.2-15.4 21.2-24.4 23.6-6.3-6-3.4-14-5.8-21.2-1.2-3.5-4.2-6.7-5.8-10.2-5.4-12.7-2.8-19.9-.2-32.2.6-3 0-5.9.9-9.1.2-.7 6.3-12.3 6.9-13.1 3.7-5.4 19.2-12.4 22.7-3.8.9 2.2 0 8.7 2.2 7.7 5.1-4.9 10.2-9.9 15.5-14.5 11.5-10 14.1-9.7 21.2-24.8 1.5-3.3 6.5-14.5 6.6-17.3 0-3.4-9.2-14.7-11.8-17.8-1.4-1.7-9.5-11.5-10.2-11.8-6.4-3.2-28-2.3-34.7.8-7.9 3.6-12.5 12-19 17-1 .8-1.3 1.9-3 1.5l.8-12.7c3.6-4.3 21.7-23.3 21.1-27.5-.4-2.6-11.3-13.4-12.9-11.7 4.4 12.8.7 8.7-7.3 12.2-1.2.5-2.9 2.7-3.2 2.7s-2-2.2-3.2-2.7c-3.4-1.5-9.7-.4-9.3-5.6 0-1.1 4.1-7.6.5-6.6-2.8.8-12 9.9-11.3 13.2 0 .6 4 7 4.8 8 1.5 2 5 5.9 7 8.3 3.2 3.9 9.7 7.6 9.9 13.1 0 1.6-.8 3.1-.8 4.8s2.6 8.1-2.5 3.6c-6.2-5.3-10.2-13.6-18.5-17.5-6.5-3-30.3-4.3-35.7-.2-.8.6-8.8 10.5-10.2 12.2-2.4 3-10.9 13.7-10.8 16.8.2 5.4 11.7 29 15.7 33.2 3 3.2 9.3 6.8 13 9.9 5 4.3 9.7 9.1 14.5 13.5l4.2-11.1c4.9-3.1 17.7 2.6 20.8 7.1 1 1.5 5.1 9.9 6 11.9 2.8 6.4 5.1 25.4 4.4 32.4-1.1 10-7.9 15-9.4 22.6-1.3 6.4 1.1 14.9-5.8 18.9-8.1-2.6-17.3-21.5-23.6-23.5-8.2-2.6-15.9 9.6-18.4 9.4-5.3-.4-8.7-14-13.9-16.1-6.9-2.8-11.5 2.7-14.1 2.1-1.8-.4-2-4.8-4.8-6.1-4.5-2-9.6.3-14.3-4.7-10.9-11.5-6.5-42.2-1.5-56.1-9.1 6.7-14.1 14.8-18.5 25-1.6 3.6-2 7.5-3.7 11.3-1 2.1-4.9 9.8-7.8 8.2-.4-.2-6.9-5.9-7.5-6.5-3.9-4.3-13.8-24.4-15-30-2.8-12.9 1.4-26.5 9.5-36.5 4.1-5.1 11.3-9 13-15.5-2.4-2.4-22.3 17.4-24.4 20.1-5.4 6.8-11 15.9-9.6 24.9-8.3.5-10.7-3.3-13.3-10.2-2.7-7.1-7.8-22.8-6.2-29.8 3.7-16.2 21.4-35.8 36.3-42.7 6.2-2.9 13.9-4.1 19.2-8.3 12.5-.8 24.5-2.3 37-1 0 0 .7 2.1.5 3 9.5-8.2 20.6-14.8 33.1-16.9 4.7-.8 14.8-.4 18.1-1.8 1.6-.7 5.2-7.7 7.2-9.9 8-8.4 15.2-9.7 25.4-12.5 1.1-.3.6-1.9.7-2 1.1-.7 25.9-.7 27 0v.2Z" class="fill" data-original-prefix="fill"/><path id="fill-teeth14" fill="#ffffff" d="M1039.1 1601.9c-.8-.5-7.2-15.4-7.9-17.6-4.2-13.6-7-37.9-1.5-51.1 5.8-13.9 10.8-1 20-5 1.9-.8 7.6-6.8 9.2-8.8 2.6-3 3.6-9.1 8-8 12.8 3.1 21.1 24.2 22 36.1 2.3 30.4-23.4 40.7-45.2 53.7-1.2.5-3.6 1.3-4.6.6Z" class="fill" data-original-prefix="fill"/><path id="fill-teeth13" fill="#ffffff" d="M1015.7 1527.3c10.2 8.9 6 44.1 2.3 56.2-1.9 6.4-6 12-8.1 18.3h-2.3c-12.1-7.1-26.3-12.4-36.1-22.9-9.1-9.8-12.3-17.9-11.5-31.5.8-11.8 9-32.3 21.2-35.9 4.8-1.4 5.7 4.5 8.2 7.4 1.8 2.1 8.3 8.8 10.5 9.5 6 1.9 12.5-4.1 15.8-1.3z" class="fill" data-original-prefix="fill"/><path id="fill-teeth12" fill="#ffffff" d="M904 1461c0 2.2-1.1 3.8-.8 6.2s7.4 22.5 8.8 24c3.7 4.1 11.1 2.3 15.9 2.9 4.9 13.5-4.3 23.9-8.6 35.6-2 5.3-8.4 33.1-12.8 34.3-3.3.8-11.7-18-12.8-21.2-6.8-20.9-8.8-51.8 1.8-71.7.6-1.2 7.1-11.6 8.4-10.1Z" class="fill" data-original-prefix="fill"/><path id="fill-teeth11" fill="#ffffff" d="M1144 1564c-1 .7-1.8-.4-2.4-1.1-5.8-5.8-8.7-24.8-11.8-33.2-4.3-11.7-13.8-21.9-8.6-35.6 18.6 2.9 18.2-8.8 23.1-22.4l2.2-9.8c10.2 11.1 15.2 27.6 14.6 42.5-.5 13.7-3.2 35.3-9.5 47.5-.8 1.5-6.9 11.6-7.5 12Z" class="fill" data-original-prefix="fill"/><path id="fill-teeth10" fill="#ffffff" d="M949 1569c5.5 22.1 11.4 45.4 9 68.5-.5 5-1.3 9.2-7 6.9-3.4-1.3-17.5-13.4-19.5-16.5-7.4-11.8.3-39.7 8-50.8 1.2-1.7 7-10.1 9.4-8.1Z" class="fill" data-original-prefix="fill"/><path id="fill-teeth9" fill="#ffffff" d="M1100 1569c3.4-2.9 13.3 14.1 14.5 17 4.8 11.7 9.3 33.5 1 44-2.1 2.7-18.5 16.5-20.9 15.9-1.9-.4-3.4-6.5-3.6-8.4-1-8.7 0-26 1-35 1.1-10.9 6.5-22.5 8-33.5" class="fill" data-original-prefix="fill"/><path id="fill-teeth8" fill="#ffffff" d="M1167 1547c.9-6.7-1-15-.6-21.3.3-6.3 3.7-14.6 3.6-21.2 0-5.7-4.8-19.5-4-24 .5-2.9 3.5-2.8 5.5-4.5 6.2-5.3 10.4-15.8 16.9-4.9 14.2 23.5-1 56.5-18.4 74.4-.9 1-1.3 1.9-3 1.5" class="fill" data-original-prefix="fill"/><path id="fill-teeth7" fill="#ffffff" d="M881.7 1478.3c3.3 2.9-2.8 21-2.8 26.2s2.6 12.6 3.1 18c.7 8 0 16.5-.5 24.5-1.8 0-11.7-13.3-13.3-15.7-11.2-16.8-20.3-43.7-7-61.7 6.2-8.4 9.7.9 14 4.7 2 1.9 5.7 3 6.6 3.9Z" class="fill" data-original-prefix="fill"/><path id="fill-teeth6" fill="#ffffff" d="M1018 1613v16.5c0 .9-10.8 13.2-11.9 14.1-6.3 4.8-8-2.6-10.6-5.5-5.5-6-17.9-.4-24.4-5.6-.9-.7-4.1-8.3-4.1-8.9v-24.5c12.3 3 28.7 18.5 41.4 16.9 3.5-.4 6.1-3 9.6-2.9Z" class="fill" data-original-prefix="fill"/><path id="fill-teeth5" fill="#ffffff" d="M1102.5 1494c3.3-.8 5.3 8.5 6.3 10.7 5 10.5 15.3 30.3 11.4 42.1-2.2 6.7-15.6 23.4-20.4 11-4-10.4-4.1-44.7-1.1-55.5.4-1.6 2.4-7.9 3.8-8.2Z" class="fill" data-original-prefix="fill"/><path id="fill-teeth4" fill="#ffffff" d="M917 1563c-1.6 13.5 2.8 27.4 2 40.5-.5 8.8-4.2 18.6-5.5 27.5-5.8-5.6-10.5-15.7-11.4-23.6-.6-5.2.7-25.8 2.4-30.3.6-1.6 10.5-16.2 12.4-14.1Z" class="fill" data-original-prefix="fill"/><path id="fill-teeth3" fill="#ffffff" d="M1135 1631c-.4-8.9-4.4-17.8-5.1-26.5-1-13.6 3.6-27.7 2-41.5 2.2-2.4 11.9 13 12.5 15 2 6.8 2.7 27.3 1.2 34.3-1.3 6.3-5.5 14.8-10.8 18.7z" class="fill" data-original-prefix="fill"/><path id="fill-teeth2" fill="#ffffff" d="M1154.1 1604.9c-3.4-2-5.1-22.3-3.9-26.2.8-2.6 8.9-5.2 10.2-8.8l5.1-10.9c3.8 3.4 5.1 7.2 4.3 12.2-.7 4.5-5.2 22.3-6.9 26.2-.9 2.2-6.1 9-8.8 7.5" class="fill" data-original-prefix="fill"/><path id="fill-teeth1" fill="#ffffff" d="M885 1559c.4.4.7 7.1 3 10.5 2.7 3.9 10.5 6.9 11 10-.8 4.7-.7 23-4 25.4-2.5 1.8-7.7-4.5-8.7-6.7-1.6-3.6-6.3-22.5-7-27-.6-3.9 2.5-15.6 5.8-12.3Z" class="fill" data-original-prefix="fill"/><path id="shading-mouth2" fill="#aaaaaa" d="M918 1443.5c.8 5.3 5.6 13.8 10.1 16.9 11.5 8.3 16.2-.3 22.4-9.4 2.5 5.4 3.4 11.5 6 17 1.4 2.8 5.7 12 7.5 5.5l4-11.5c1.6 7.5 6.3 15.4 11.5 21 4.3 4.7 18.8 15.4 24.6 9.6 2-2.1 8.3-17.9 10.8-22.2 1.2-2.2 7.8-13.8 9.7-13.3 1 .2 8.5 13.2 9.7 15.3 2.4 4.5 7.3 17.7 9.8 20.2 3.8 3.8 10.5.4 14.4-1.8 10.5-5.9 18.5-17.2 21.7-28.8l4.2 12.3c.3 1.2 1.9 2.4 2.8 1.7.6-.4 5.8-11.3 6.5-13 .8-2 2.8-12 4-12 6.8 10.7 12.9 18.4 24.5 7.5 8.6-8 9.3-23.8 7-34.5 3.5-3.1 21.1 16.1 26.6 16.9 9.1 1.4 17.6-11.8 19-19.9 3.5-20.5-12.9-39.2-30.9-46.2l-12.7-4.8c15.4 0 28.2 2.9 41.1 11.4 4.8 3.1 12.2 10.9 17.6 11.4 6.2.6 10.1-4.1 10-10-.4-19.3-25.8-38.1-39.7-48.8 15.4 2.4 34.6 11.8 45 23.5 7.8 8.8 19.1 25.1 19.1 37s-6.4 28.5-9.2 32.8c-3.3 5.3-11.7 5.4-13.4 10.6-.9 8.1-2.1 16.4-2.5 24.5-1.5 29 1.4 45.2-10.8 73.2-3.6 8.2-12.7 20.4-14.9 27.1-4.2 12.8-.7 26.4-9.1 38.9-3.2 4.8-8.4 6.7-11.2 10.8-1.7 2.5-2.4 6.1-4.2 8.8-4.5 6.7-14.6 23-21.6 8.9-1.6-3.3-1.3-12.9-6.7-6.2-1.4 1.7-1.9 4.4-3.5 6.5-3.7 4.7-17.7 19.6-23.5 19.5-2.2 0-4.5-4.1-6.6-5.4-7.9-5-21.1-6.3-29.2-1.4-7.3 4.4-9.5 13.6-18.1 6.8s-6.4-10.8-20.1-9c-5.6.7-11.4 12.6-16.9 12.1-2.8-.2-11.4-11.1-18.5-12.6-6.3-1.3-17.5.7-23 4.2-2.6 1.7-4.1 5.6-7.5 5.4-5.7-.3-19.8-15.8-23.6-20.5-1.2-1.5-4.4-10.6-7.1-6.9-2.5 3.4-.6 9.9-7.2 12.7-7 3-14.9-11.2-18.1-16.4-1.2-1.8-1.2-4.3-2.6-6.4-2-3-6.8-5.4-9.5-8.5-10.4-11.9-6.7-27.7-10.7-41.3-.8-2.6-5.6-8.5-7.3-11.7-18.4-35.7-16.4-45.6-18.4-84.6-.4-7.7-.6-20.7-2.2-27.8-1.5-6.2-11.1-6.1-14.2-11.8-3.4-6.1-9.3-29.6-8.6-36.4 1.2-10.3 16.2-31.2 24-38 10.5-9.2 26.2-16.5 40-18.5l-21.5 17c-7.2 6.4-26.8 32-14.8 39.9 9 5.9 16.7-4.5 23.7-9.1 12.7-8.4 25.3-11.8 40.7-11.8l-17.3 7.2c-18 9.4-33.1 32.7-22.1 52.8 1.7 3.1 8.6 10.4 12 11.1 9.1 1.7 20.7-15.4 29.5-18 .6 6.4-.9 14.3 0 20.5zm-37.1 40.6c-12.3-.5-17.1-20.2-22.8 1.5-3.4 13 1.2 26.4 9.4 36.5 1.5 1.8 12.7 13.1 13.9 12.9.8 0 2.5-2.3 2.8-3.2 2.9-7.1-3.2-12.2-4.2-19.2-1.5-9.8 0-18.7.9-28.4Zm301.8-8.9c-3.2.8-6.3 6-8.8 7.3-2.1 1.1-7.2 1-7.8 3.2-.5 1.7 3 10.8 2.9 14.8 0 3-1.5 13.9-2.2 16.8-.9 3.6-3.9 5.7-3.9 10.2s1.4 7.1 3.7 7.4c1.9.3 15-14.4 16.8-17 5.7-8.5 9-18.8 7.3-29.2-.5-3-4.4-14.5-8-13.6Zm-284.8 10c-4-2.3-6.5 9.9-6.8 12.5-1.2 10.5 3 38 8.7 47.1 1.9 3 5.4 6.9 9.2 7.3 3.7-15.6 12.6-29.2 21-42.5-2.3-.4-1.7-2.9-2.7-3.5-1.5-.9-7-1.9-9.7-3.1-4.7-2.2-12-7.7-15.6-11.4-1.2-1.2-3.8-6.2-4.2-6.3ZM1139 1552c8.3-2 11.9-12.2 13.9-19.6 3.1-12.1 6.1-33.4 1.1-44.8-3-6.9-5.8 1.7-8.3 4.1-3.9 3.8-11 9.3-16 11.6-2.5 1.1-7.8 1.8-9.1 2.7-.7.5-.5 1.8-1 2.7-.3.4-1.7.4-1.6.9 0 1 7.9 12.3 9.2 14.8 4.8 8.8 9.1 18 11.8 27.7Zm-197.7 5.7c8.1 8.1 9.5 0 10.5-7.3.8-5.6 2.7-20.6 1.7-25.4-3.6-17.2-21.3-15.9-21.6 3.6 0 6.8 4.6 24.3 9.4 29.2Zm161.5-44.5c-5 1.3-8.5 9.3-8.8 14.2-.2 4 2.4 28.5 3.8 31.3 2.5 5 7.5 0 9.8-2.7 6.8-8.3 11.6-30.7 4.5-39.5-2.7-3.3-4.8-4.4-9.2-3.3zM1023 1544c-.7-.7-.8-7-5.1-9.4-8.9-5-21.8-.8-32-4-10.4-3.3-9.4-13.1-16.1 1.8-2.9 6.4-9.1 24.4-6.3 30.7 1.1 2.4 17.8 15.6 21.2 17.8s18.2 11.7 21.1 10c3.1-5.6 9.3-9.5 12.6-14.9 1.8-2.8 4.1-11.5 4.6-11.9 1.6-1.7 1.7.5 2.1 1.4 1.6 3.6 2.1 6.8 4.5 10.5 3.3 5.2 9.2 9.3 12.4 14.6 3.1 1.9 15.5-5.9 18.9-8.1 4.5-2.9 22.9-17 23.9-21.1 2.2-9.7-6.6-28.3-10.9-37.2-4.9 1-7.8 5.2-12.7 6.7-9.2 2.8-28.2-1.6-33.7 6.3-.9 1.2-2.6 8.9-4.5 7zm-136 18c-.7-.6-3.5 0-4.5.9-6 6.2 2.4 31.6 14.6 27.6 4-1.3 3.8-9.4 2.8-12.9-1.1-3.9-7.2-4.1-9.8-7.2-2.1-2.5-2.7-8.2-3-8.5Zm274.1 0c-.3.3-.9 6-3 8.5-2.6 3.1-8.7 3.3-9.8 7.2-1 3.4-1.2 11.6 2.8 12.9 13.4 4.4 20.2-24.5 14.1-28.1-.9-.5-3.5-.9-4-.4Zm-216.4 7.2c-1.5.4-5.1 4.6-6 6.1-3.4 5.6-5.6 32.3-4.8 39.3 1.3 10.9 15.2 18 19.5 3.5 1.7-5.6 2.6-21.4 2.5-27.6 0-1.1-5.8-19.7-6.5-20.5-1.2-1.4-3.2-1.3-4.8-.8Zm153.3-.1c.2 6.6-5.4 14.7-6 20.6-.5 4.5 1 25.3 2.4 29.4 4.2 12.1 16.9 7.3 19.1-2.9 1.1-5.2 0-16.8-.6-22.6-1-9.7-1.7-25.5-14.9-24.5m-180 1.9c-20.5 3.8-17 28.7-9 43 4 2.9 10.4-17 10.7-19.8.9-7.5-2.9-15.5-1.8-23.2Zm218 43c2.5 1.8 7.2-9.1 7.7-10.8 3.9-12.8 1.6-30.1-13.7-32.2.5 7.4-2.8 16.2-1.9 23.4.3 2.7 6.4 18.5 7.9 19.6m-148.2 10.2c1.4.8 4.8 8.6 9.5 11 11.1 5.8 20.2-6.4 20.7-16.7.8-13.7-7.2-7.7-16.5-8.6-8.4-.8-15-4.8-21.8-9.2-5.5-3.5-13.6-14.6-14.7-1.4-.5 5.1 1.4 7.5 1.8 11.2s-2 5.9.5 10.7c4.8 9.3 18 1.3 20.7 2.8zm93.1-31.1c-2.1-1.5-19.7 12.7-23.9 14.4-2.3 1-7.9 2.3-10.5 2.5-10.5.9-18.8-5.4-16.4 11.4 1 7.3 7.9 15.8 16 15.1 9.4-.8 11.9-11.6 14.6-12.4 4-1.3 12.3 5.7 18.9-1.1 4.3-4.4 1.3-8.4 1.5-12.5 0-2.3 1.9-4.8 2-8.1 0-1.9-.8-8.5-2.2-9.4Z" class="outline shading" data-original-prefix="shading" opacity="0.5" style="opacity: 0.5"/><path id="shading-mouth1" fill="#aaaaaa" d="M1041 1343c6.1.5 12.7-1 17.5-5 1.5-1.3.9-3.7 2.8-2.9 10.1 7.9 37.9 17.4 43.8 28.2 3.6 6.5 4.6 17.5-1.8 22.6-5.6 4.5-20.8 10.8-28 15-4.9 2.8-9.7 6.6-14.7 9.3-7.4 4.1-25.5 14.5-32.6 16.4-2.9.8-5.2.8-8.1 0-14.5-3.8-42.2-22.5-56.3-30.7-6.2-3.6-21.2-9.1-23.2-15.8-5.5-18.4 15.7-28.3 28.7-35.4 2.3-1.2 15.5-8.6 16.5-8.7 2.9-.3 4.2 2.9 6.7 4.2 4.2 2.3 10 3.2 14.7 2.8-.3-5.1-3.3-11.3-1.8-16.3.5-1.6 12.5-13.9 14.5-14.4 3.9-1 8.2-.3 11.6 1.9 1 .7 10.8 11.1 11.2 11.8 2.1 5-1.2 11.8-1.5 17" class="outline shading" data-original-prefix="shading" opacity="0.5" style="opacity: 0.5"/><path id="outline-mouth3" fill="#000000" d="M889 1333c-5.3 4.2-13 5.4-19.2 8.3-14.9 6.9-32.6 26.5-36.3 42.7-1.6 7 3.5 22.7 6.2 29.8 2.6 6.9 5 10.8 13.3 10.2-1.4-9 4.2-18.1 9.6-24.9 2.1-2.6 22-22.5 24.4-20.1-1.7 6.5-8.8 10.4-13 15.5-8.1 10-12.3 23.6-9.5 36.5 1.2 5.6 11.1 25.8 15 30 .6.7 7.1 6.3 7.5 6.5 3 1.5 6.9-6.1 7.8-8.2 1.7-3.8 2.1-7.7 3.7-11.3 4.4-10.2 9.4-18.4 18.5-25-5.1 13.9-9.5 44.6 1.5 56.1 4.8 5 9.9 2.7 14.3 4.7 2.8 1.3 3 5.7 4.8 6.1 2.6.6 7.2-4.9 14.1-2.1 5.2 2.1 8.6 15.6 13.9 16.1 2.5.2 10.2-12 18.4-9.4 6.3 2 15.5 20.8 23.6 23.5 6.9-4 4.5-12.6 5.8-18.9 1.5-7.6 8.3-12.6 9.4-22.6.8-7-1.6-26-4.4-32.4-.9-2.1-5-10.5-6-11.9-3.1-4.5-15.9-10.2-20.8-7.1l-4.2 11.1c-4.8-4.4-9.5-9.2-14.5-13.5-3.7-3.2-10-6.8-13-9.9-4-4.2-15.5-27.8-15.7-33.2 0-3.1 8.4-13.8 10.8-16.8 1.4-1.8 9.5-11.6 10.2-12.2 5.4-4.1 29.2-2.8 35.7.2 8.4 3.8 12.4 12.1 18.5 17.5 5.2 4.5 2.5-1.7 2.5-3.6s.9-3.2.8-4.8c-.2-5.4-6.7-9.2-9.9-13.1-2-2.4-5.5-6.3-7-8.3-.8-1-4.7-7.3-4.8-8-.7-3.3 8.6-12.4 11.3-13.2 3.6-1-.5 5.5-.5 6.6-.4 5.2 5.9 4.1 9.3 5.6 1.2.5 3 2.7 3.2 2.7s2-2.2 3.2-2.7c8-3.5 11.7.6 7.3-12.2 1.6-1.7 12.5 9.1 12.9 11.7.6 4.2-17.5 23.2-21.1 27.5l-.8 12.7c1.7.4 2-.7 3-1.5 6.5-5 11.1-13.4 19-17 6.8-3.1 28.3-4.1 34.7-.8.7.3 8.8 10.1 10.2 11.8 2.6 3.1 11.9 14.4 11.8 17.8 0 2.8-5 14.1-6.6 17.3-7.1 15.2-9.7 14.8-21.2 24.8-5.3 4.6-10.4 9.6-15.5 14.5-2.2.9-1.4-5.6-2.2-7.7-3.4-8.6-19-1.6-22.7 3.8-.6.8-6.7 12.4-6.9 13.1-1 3.2-.3 6.1-.9 9.1-2.6 12.3-5.2 19.6.2 32.2 1.5 3.5 4.6 6.8 5.8 10.2 2.5 7.2-.5 15.2 5.8 21.2 9-2.3 17.4-21.3 24.4-23.6 7.7-2.4 15.9 9.6 18.4 9.4 5.6-.5 9.8-18.8 18.7-17.5 2.3.3 7.6 3.9 9.4 3.5s2-4.8 4.8-6.1c3.9-1.8 8.9 0 13.3-3.7 11.5-9.9 8.1-43 2.5-56 1.6-1.7 11.3 10.4 12.4 12.1 5.1 7.8 6.1 15.5 9.7 23.3 1 2.1 4.8 9.8 7.8 8.2.4-.2 6.9-5.8 7.6-6.5 7-7.6 16-30.2 15.4-40.5-1.3-22.7-10.7-22.7-21.5-37.5-5.3-7.2 2.8-2.4 6 0 11.8 8.6 28 25.5 26.5 41 11.4 1.6 13.7-11.7 16.3-20.2 4.6-15.6 5.3-18.8-3.1-33.4-7.4-13-16.3-22.7-29.9-29.1-6-2.8-14.1-4.1-19.2-8.3 9.3.7 19.7 2.8 29.2 5.3 7.4 1.9 14.4 3.9 20.7 8.3 3.2 9.3 27.6 34.6 28 42 .2 3.7-8.2 22.5-10 27.9-2.5 7.2-2.6 16-10 21-1.9 1.3-8.4 2-9 3.2-4.1 7.9-1.4 38-1.9 48.8-1.1 21.6-7.6 43.1-20.5 60.5-.9 1.2-2.6 1.5-3.6 2.7-4.3 5.6-2.8 18.6-4.3 26.5-1.2 6-5 13.1-5.6 18.4-.4 3.5 1.3 7.7.8 9.7s-10.7 8.6-13.2 9.9c-2.2 1.2-5.7 1.5-6.5 2-.6.4-5.4 10.9-7.2 13.3-2.1 2.7-11.1 11.3-14 12.1-4.1 1.2-7.9-10.3-9.9-13s-2.3 2.3-3.6 4.3c-4.3 6.7-25.1 26.6-32.4 28.6-1.7.5-3.3.7-5 .5-.4-5.9 3.2-9.9-1.5-15.1-8.2-9-20.9-.3-24.3 8.8-1.8 4.9-1.6 20-8.6 18.1-4.6-1.3-20-25.6-23.2-30.8-5.7 8.9-12.2 19.9-19.5 27.4-11.2 11.7-9.9-11-13.8-18.2-3.8-7.1-14-12-21.1-6.7-6.7 5-2.9 9.6-3.1 16.4-3.5 3.5-24.3-13.8-27.5-17-1.3-1.3-10.5-12.2-11-13-.7-1.4-.2-6.3-2.6-3.3-2.1 2.7-6.2 14.3-10.2 13.3s-12-10.2-13.7-12.4c-2.1-2.7-6.6-12.8-7.2-13.2-.8-.5-3.8-.6-5.8-1.7-2.3-1.2-11.9-7.4-13-9-2.1-3.2.4-6.9 0-11-.7-6.8-5.9-15.3-6.8-24.2-.5-5 .6-10.7-.6-15.4-1-4-8-10-10.7-14.3-15.3-24.4-17.6-52.1-17.9-80.2 0-5.4 3-18.2 0-22.8-.8-1.2-7.8-1.9-10.4-3.8-7.2-5.3-6.2-13-8.6-20.4-1.9-6-10.7-24.3-9.8-28.7.5-2.7 4.3-7.5 6-10.1 7-10.8 15.7-20.6 22.5-31.5 5.9-4.3 13.2-6 20.1-7.9 9.7-2.6 19.8-4.7 29.2-5.3h.2Zm15 128c-1.4-1.5-7.8 8.9-8.4 10.1-10.6 19.9-8.6 50.8-1.8 71.7 1.1 3.3 9.4 22.1 12.8 21.2 4.4-1.1 10.8-28.9 12.8-34.3 4.3-11.7 13.6-22.1 8.6-35.6-4.8-.6-12.2 1.2-15.9-2.9-1.4-1.5-8.5-21.7-8.8-24s.8-4 .8-6.2Zm240 103c.6-.4 6.8-10.5 7.5-12 6.3-12.1 9-33.7 9.5-47.5.6-14.9-4.3-31.4-14.6-42.5l-2.2 9.8c-4.9 13.6-4.6 25.2-23.1 22.4-5.2 13.7 4.3 23.9 8.6 35.6 3.1 8.4 6 27.5 11.8 33.2.7.7 1.4 1.8 2.4 1.1Zm-262.3-85.7c-1-.9-4.6-2-6.6-3.9-4.2-3.9-7.8-13.1-14-4.7-13.3 17.9-4.1 44.9 7 61.7 1.6 2.4 11.5 15.7 13.3 15.7.5-8 1.2-16.5.5-24.5-.4-5.4-3.1-12.3-3.1-18s6-23.3 2.8-26.2ZM1167 1547c1.7.4 2-.5 3-1.5 17.4-17.9 32.6-50.9 18.4-74.4-6.5-10.8-10.8-.4-16.9 4.9-2 1.7-5 1.6-5.5 4.5-.8 4.5 4 18.3 4 24s-3.3 14.8-3.6 21.2c-.3 6.3 1.6 14.6.6 21.3m-64.5-53c-1.4.3-3.3 6.6-3.8 8.2-3 10.7-2.9 45.1 1.1 55.5 4.8 12.4 18.2-4.3 20.4-11 3.9-11.7-6.4-31.5-11.4-42.1-1-2.2-3-11.4-6.3-10.7Zm-86.8 33.3c-3.2-2.8-9.7 3.2-15.8 1.3-2.1-.7-8.7-7.5-10.5-9.5-2.6-2.9-3.4-8.8-8.2-7.4-12.2 3.5-20.5 24.1-21.2 35.9-.9 13.6 2.4 21.7 11.5 31.5 9.8 10.4 24 15.7 36.1 23h2.3c2.1-6.4 6.2-12 8.1-18.4 3.7-12.2 7.9-47.3-2.3-56.2zm23.4 74.6c1.1.7 3.4 0 4.6-.6 21.8-13.1 47.5-23.3 45.2-53.7-.9-11.9-9.2-33-22-36.1-4.4-1.1-5.5 5-8 8-1.7 1.9-7.3 7.9-9.2 8.8-9.2 4-14.3-9-20 5-5.4 13.2-2.6 37.5 1.5 51.1.7 2.2 7.1 17.1 7.9 17.6ZM885 1559c-3.2-3.3-6.4 8.4-5.8 12.3.7 4.5 5.4 23.4 7 27 1 2.2 6.2 8.5 8.7 6.7 3.4-2.4 3.2-20.7 4-25.4-.5-3.1-8.3-6.1-11-10-2.3-3.5-2.6-10.1-3-10.5Zm269.1 45.9c2.7 1.5 7.8-5.3 8.8-7.5 1.7-3.8 6.1-21.6 6.9-26.2.8-5-.5-8.8-4.3-12.2l-5.1 10.9c-1.4 3.6-9.4 6.1-10.2 8.8-1.2 3.9.5 24.2 3.9 26.2M917 1563c-1.9-2.2-11.8 12.5-12.4 14.1-1.7 4.6-3 25.2-2.4 30.3.9 7.9 5.6 18 11.4 23.6 1.4-8.8 5-18.6 5.5-27.5.8-13.1-3.7-27.1-2-40.5Zm218 68c5.3-3.9 9.4-12.4 10.8-18.7 1.5-7 .8-27.4-1.2-34.3-.6-1.9-10.4-17.4-12.5-15 1.5 13.8-3.1 28-2 41.5.7 8.7 4.6 17.6 5.1 26.5zm-186-62c-2.4-2-8.2 6.4-9.4 8.1-7.7 11.1-15.4 39-8 50.8 2 3.2 16 15.2 19.5 16.5 5.6 2.2 6.5-1.9 7-6.9 2.4-23.1-3.5-46.4-9-68.5Zm151 0c-1.5 11-6.9 22.6-8 33.5-.9 9-2 26.3-1 35 .2 1.9 1.7 8 3.6 8.4 2.4.6 18.8-13.3 20.9-15.9 8.3-10.5 3.8-32.3-1-44-1.2-2.9-11-19.9-14.5-17m-82 44c-3.5 0-6.1 2.5-9.6 2.9-12.7 1.6-29.1-13.9-41.4-16.9v24.5c0 .6 3.2 8.2 4.1 8.9 6.5 5.2 18.9-.4 24.4 5.6 2.6 2.9 4.3 10.3 10.6 5.5 1.1-.8 11.9-13.1 11.9-14.1v-16.5Z" class="outline" data-original-prefix="outline"/><path id="outline-mouth2" fill="#000000" d="M1122 1332c-.2 0 .2 1.6 0 1.9-1 .8-8.1-5.8-10.2-7.1-10-6.1-19.8-8.3-31.2-9.8-2.9-.4-6.9.7-9.5-.5-1.5-.8-4.5-7.4-6.5-9.5-7.8-8.7-15.6-10.2-25.8-13-1.1-.3-.6-1.9-.7-2 3.1-3.8 16.2-9.3 20.8-9.8 7.9-.9 5.5 4.4 6.5 9.1 2.3 10.7 9.3 19.6 21.3 18.8 5.1-.3 5.6-4 7.9-4.1 1.4 0 6.6 2.9 8.2 3.8 9.4 5.2 15 12.5 19.3 22.2z" class="outline" data-original-prefix="outline"/><path id="outline-mouth1" fill="#000000" d="M1011 1292s.4 1.7-.7 2c-10.2 2.8-17.4 4.1-25.4 12.5-2 2.1-5.6 9.2-7.2 9.9-3.4 1.4-13.5 1-18.1 1.8-12.5 2.1-23.6 8.7-33.1 16.9.2-.9-.5-2.8-.5-3 .8-2.7 8.7-13.3 11-15.6 2.5-2.4 14.7-10.5 17.6-10.4 2.7 0 3 5.1 11.9 3.9 10-1.3 16.2-10.1 17.5-19.6.4-2.6-2.4-6.7 2.8-8.2 3.5-1 21.7 5.6 24.3 9.8Z" class="outline" data-original-prefix="outline"/>
    </g><g class="trait-group" data-category="eyes" id="eyes-lennon">
      <path id="fill-eyes1" fill="#ffffff" d="M1337.4 1026.1c3.1 1.9 27.4 48.4 30.4 55.1 4.6 10.3 10.8 24.4 12.8 35.2 2.1 11.4-12.9 9.7-18.9 15.9 56.4 60.1 63.7 159.1 15.2 226.2-85.8 118.9-273.9 81.8-306.7-61.7-1.4-6-3.2-25.8-5-29s-14.2-10.6-17.5-13.5c-7.3-6.4-13-14.8-20.5-20.5-2.7 1.3-6.1-.6-8.4.4s-12.9 14.1-16 17c-6.6 6.1-14.2 11.2-20.9 17.1-3.1 29.1-11.3 56.4-26.7 81.3-64.6 104.6-220.3 106.5-288 4.2-44.8-67.5-36.8-162.7 18.6-221.6-4.4-4.5-20.1-6.7-20.1-14s2.6-3.6 3.6-5.5 1-6.9 2.1-9.9c7-20.2 26.5-59.6 39.4-76.4.7-.9 2.4-.4 3.1-1.3 17.8-23.5 37.1-50.1 58.4-70.4 144.8-137.8 344.4-143.2 493.5-8.5 23.4 21.2 42.9 45.9 62.4 70.6 4.9 6.3 2.4 5 9.3 9.2Z" class="fill" data-original-prefix="fill"/><path id="fill-eyes2" fill="#ffffff" d="M1225.8 1080.3c-134.6 8.8-201.3 164-125.2 272.6 71.9 102.5 225.4 92.8 284.9-16.9 63.4-116.9-25.8-264.5-159.7-255.7" class="fill" data-original-prefix="fill"/><path id="fill-eyes3" fill="#ffffff" d="M799.8 1080.3c-132.6 9.3-203.1 165.1-126.6 273 70.7 99.7 219.8 93.3 281.6-12 69.1-117.7-16.2-270.8-155-261" class="fill" data-original-prefix="fill"/><path id="shading-eyes8" fill="#aaaaaa" d="M942 857c-12.2 12.2-28.8 18.2-42.9 27.6-28.1 18.6-58.9 57.3-75.3 86.7-2.4 4.4-10.8 19.8-11.4 23.7-2.9 17.9 18.5 42 30.7 53.5 38.6 19.7 77.6 39.1 113.5 63.5 10.9 12.6 32.2 63.9 44.2 70.8 9.5 5.5 13.5-.6 18.8 13.2 1.1 2.8-.7 5.7 2.8 7.3 5.4 2.5 4.8-4 6.2-7.3.8-1.9 3.6-8.2 4.9-9.1 2.2-1.6 10.3-2.3 13.8-4.2 11.6-6.3 33.5-59.5 44.7-71.3 16.2-11.1 33.2-21.1 50.3-30.7 18-10 47.2-21.5 62.6-32.4 7.9-5.6 26-29.3 28.6-38.4 5.1-17.8-6.4-33.8-15.5-48.5-16.6-26.8-42.8-59.3-69.1-76.9-14.2-9.5-30.9-15.1-42.9-27.6 32.3 6.5 63 20.9 91.3 37.2 45 25.9 89.6 63.8 119.5 106.5 2.5 3.6 7.3 8.9 5.5 13.1-1.6 3.7-26.3 9.5-31.6 11.5-58 21.6-107.5 42.9-156.6 81.4-26.9 21-39.3 37.8-58.3 65.7-4.9 7.2-6.3 13.4-13.3 19.7-2.1 1.9-22 16.2-23.4 16.6-1.9.6-28.2.6-30.1 0-1.3-.4-19.7-13.4-21.9-15.1-8.5-7-9.6-13.4-15.3-21.7-18.6-27.2-30.8-43.5-56.9-64.1-49.5-39-98.9-60.6-157.6-82.4-5.5-2-29-7.5-31.3-10.6-2.9-4 2.2-9.9 4.6-13.5 27.2-39.6 72-78.2 113.1-102.9 30.2-18.1 63.5-34.2 98.3-41.2Z" class="outline shading" data-original-prefix="shading" opacity="0.5" style="opacity: 0.5"/><path id="shading-eyes7" fill="#aaaaaa" d="M982 1232.5c0-.5-1.4-1.5-1-2.5l30.7-7.8c6.6 2.7 10.5 5.2 17.9 2.8 2-.6 4.2-2.8 5.7-2.8 3.7 0 15.4 4.5 20.5 5.4 3.7.7 7.3 1.8 11.1 1.3 1.9-15.4 5.6-30.8 11.3-45.2 4.4-11.2 7-15.9 15.8-24.2 23.8-22.6 59.7-46.6 91.2-55.8 1.6-.5 18.8-5.4 18.8-3.2L1078.5 1318c-1.7 0-8.2-25-8.8-28.2-1.2-5.4-1.9-20.2-4.2-23.8-1.2-1.8-14.3-10.7-17.4-13.6-3.5-3.1-17.5-19.4-19-20-.4-.2-8.8-.4-9.2-.3-1.3.3-15.6 16.6-18.7 19.4-3.7 3.3-16.8 11.9-18.5 14.5-2.3 3.7-5.8 29.7-7.8 37.2-17.3 62.5-72.8 113.6-137.7 121.8l126-220c1.5-1.1 10 22.7 11 24.5l8 28.5c-.4-8.4.5-17.1 0-25.5z" class="outline shading" data-original-prefix="shading" opacity="0.5" style="opacity: 0.5"/><path id="shading-eyes6" fill="#aaaaaa" d="m1256 1427 127.5-222c1.7.8 11.6 27.3 12.8 31.2 2.4 7.9 10.7 36.7 10.8 43.3 0 7-3.7 21.2-5.8 28.3-14.5 48.4-55.6 91.7-103 109-14 5.1-27.7 7.5-42.2 10.2z" class="outline shading" data-original-prefix="shading" opacity="0.5" style="opacity: 0.5"/><path id="shading-eyes5" fill="#aaaaaa" d="m784 1100-131 226c-16.5-40.5-18.7-84.7-6.3-126.8 6.6-22.5 18-31.9 35.2-46.8 28.5-24.6 64.2-47.4 102-52.5Z" class="outline shading" data-original-prefix="shading" opacity="0.5" style="opacity: 0.5"/><path id="shading-eyes4" fill="#aaaaaa" d="m755 1419 160.4-280c7.5 6.8 15.3 13.5 21.5 21.5 2.2 2.8 5.4 5.6 3.6 9.5l-146 256-3 1.1-36.6-8.1Z" class="outline shading" data-original-prefix="shading" opacity="0.5" style="opacity: 0.5"/><path id="shading-eyes3" fill="#aaaaaa" d="M1214.9 1425.9c-12.3-2.1-25.9-4.3-37.5-8.8-1-.4-1.8.6-1.3-1.5l159.4-276.5c7.5 6.8 15.3 13.5 21.5 21.5 2.2 2.8 5.4 5.6 3.6 9.5L1215 1426Z" class="outline shading" data-original-prefix="shading" opacity="0.5" style="opacity: 0.5"/><path id="shading-eyes2" fill="#aaaaaa" d="M733 1096c-17.9 7.4-32.8 20.6-46.7 33.9L672 1124c-.5-3.2 3.5-2.5 4.9-4.6l15.1-28.9c12.8.7 31.8-5 41 5.5" class="outline shading" data-original-prefix="shading" opacity="0.5" style="opacity: 0.5"/><path id="shading-eyes1" fill="#aaaaaa" d="M1376 1124c-3.2-.2-12.4 6.4-14.3 5.9-1.5-.4-6.8-6.8-8.7-8.4-11.6-10.1-24.2-19.3-38-26 3.9-8.6 32.1-4.8 40.3-5.3 3.1 1.1 11.8 25.7 16.2 29.8 1.6 1.5 4.9 1.1 4.4 4Z" class="outline shading" data-original-prefix="shading" opacity="0.5" style="opacity: 0.5"/><path id="outline-eyes2" fill="#000000" d="M1330 995c5.5-2.7 6.2-3.9 11.9-.5 20.3 12.1 46.5 72.6 53.3 95.7 2.9 9.6 10.1 35.3 8.7 44.2-1.6 10.1-10 6.4-16.9 9.1-1.3.5-2.4 0-2 1.9 79.4 110.2 14.2 272.7-121.7 292.4-83.2 12-156.1-32-192.2-105.5-4.8-9.7-3.4-15.2-14.1-20.9-19.2-10.3-45.2-9.9-64.7-.7-1.6.8-8.2 4.5-9 5.5-2.1 2.5-8.4 20.2-11.1 25.4-46.5 88.6-156.8 124.6-246.2 76.8-98-52.4-127.9-183.7-63-274-5.9-4-15.6.3-17.8-8.2-2.1-8.1 4.7-33.2 7.3-42.3 6.6-23.4 17-48.3 30.1-68.9 4.2-6.7 21.1-31.8 28.1-32.8 1.9-.3 5.9 2.7 7.2 1.7.4-.3 3.5-6.5 5.1-8.4 77.7-95.1 168.5-146.8 293.5-148.6 127.6-1.8 228.7 47.7 307.4 147.6 2.4 3 5.7 6.6 6 10.5Zm-275 262c-.5-40.5 15.3-87.2 32.8-123.7 3.2-6.7 9.5-18.6 15.5-22.5 11.9-7.8 33.8-17.9 47.3-24.7 10.4-5.2 29.1-15.4 39.3-18.7 1-.3 1.9-.7 3-.5l-1 2.5-12 7.5c8.8-.9 17.1-4.2 25.8-5.7 52.3-9.1 104.6 4.6 145.7 37.7 2.7 2.2 15.1 14.5 16.2 14.8 8.2 2.4 8.7-4.4 8.3-10.4-.8-13.6-16-42.4-22.9-55.1-2.1-3.9-16.8-30.2-18.4-31.1-.5-.3-10.8-1.2-12.3-1.2-8.5 0-24.3 1.7-33 3s-16.2 4.3-24.5 6c-.6-2.6.8-1.8 1.9-2.6 12.1-9.8 26.3-18.3 40-25.6 1.1-1.9-5.2-15.9-6.7-18.5-19.8-34.7-109.2-96.5-146.9-111.1-83.7-32.4-179-33-262.2 1.3-36.3 14.9-123.6 75.6-142.8 109.2-1.6 2.8-7.6 15.4-7 17.6.8 3.2 9.2 6.1 12.2 7.9 10.1 6.4 21.4 13.4 29.7 21.8-8-1.4-15.4-4.8-23.5-6-8.7-1.3-24.5-3.1-33-3-3.5 0-8.3 1.7-12.3 1.2-9 15.2-18.6 30.2-26.4 46.1-4.4 8.9-14.1 29.1-14.8 38.2-.5 5.5-1.1 14.6 7.3 12.3 1.1-.3 13.6-12.7 16.2-14.8 41-33.1 93.5-46.8 145.7-37.7 8.4 1.5 16.4 4.4 24.8 5.7l-11-8.5 4.7.3c26.1 14 56 25.6 81.3 40.7 13.2 7.9 22.8 32.2 28.5 46.5 7.1 17.8 13.2 37.5 17.8 56.2 1.2 4.9 2.2 16.8 3.7 20.1.5 1 1.8.7 1.9.8 1.5 2.2-1.9 1.8-2 2.6-.2 1.1 1 3.3 1.1 4.9.2 5.5 0 11 0 16.5s.3 9.1 0 13.5c0 2-2.9 16.4-1.5 16.5 21.2-6 44.3-5.7 65.5 0-1.9-10-1.9-19.9-2-30m-255.2-176.7c-132.6 9.3-203.1 165.1-126.6 273 70.7 99.7 219.8 93.3 281.6-12 69.1-117.7-16.2-270.8-155-261m426 0c-134.6 8.8-201.3 164-125.2 272.6 71.9 102.5 225.4 92.8 284.9-16.9 63.4-116.9-25.8-264.5-159.7-255.7" class="outline" data-original-prefix="outline"/><path id="outline-eyes1" fill="#000000" d="M998 1254c.2-.4 0-2.2.9-3.5 9.2-12.9 21.3-27.4 18.1-44.5 6 1.8 8.5 2.6 14.5 0-1.3 11.9 3.9 23.9 10.3 33.7 3.2 5 8.9 9 9.2 15.3-2.3-.3-3 2.2-4.7 2.8-2.9 1-2.4-1.7-4.3-3.4-2.5-2.2-6.2-4-8.6-6.4s-7-12.1-8.9-12.1c-3.2 0-3.4 4.5-4.7 6.4-4.3 6.1-7.8 7.6-12.9 12.1-1.1 1-1.9 3.3-2.1 3.4-2.5 1.4-4.8-3-6.9-3.9h.1Z" class="outline" data-original-prefix="outline"/>
    </g><g class="trait-group" data-category="right ear" id="right ear-robo">
      <path id="fill-ear-rt1" fill="#ffffff" d="M1309.7 967.7c-21.5 15-73.7 1.5-73.8-28.2 0-17.4 19.3-64.4 26.3-82.8 15.6-40.9 37.9-99.1 62.5-134.5 12.2-17.5 47.1-40.3 66.9-49.1 25.2-11.2 58.3-12.1 85.4-10.1 0-1.7 0-3.4.4-5 29.2-103.4 66.2-199.3 108.1-297.9 10.4-24.5 17.8-43.7 36.4-63.6 26.6-28.2 58.4-54.6 87-81 5.1-4.7 9.5-10.2 15-14.5.4 36.3-3.9 72.5-9.2 108.3-21.8 147.8-72 298.3-146.9 427.1-112.2 41.1-191.9 136.1-258.2 231.3Z" class="fill" data-original-prefix="fill"/><path id="fill-ear-rt2" fill="#ffffff" d="M1288 747c-16.2 44.6-44.8 91.8-64.2 136.3-5.3 12.3-10.4 24.7-14.6 37.4-.2 2.1 4.6 10 6 12.5 5.6 9.8 12.7 20.5 19.8 29.2-8.1-3.9-16.8-7.8-24.3-12.7-3.9-2.5-12.8-9.1-15.7-12.3-4.7-5.3-17.9-31.7-21.5-39.5-1.1-2.4-2.8-5.2-3.3-7.8-.9-5.4 6.1-15.3 8.6-20.9 14.3-31.3 25.7-60.8 38.7-92.3 5.4-13.2 13.6-26 18.2-39.8 13.7-40.3 17-104.6 9.9-146.5-.9-5.6-4.2-13.5-4.3-18.5-.3-13.9 31.4-60.6 40.8-73.7 29.1-40.7 69.4-86.1 106.8-119.2 1.9-1.7 8.4-7.6 10.3-7.4q37.2 20.1 72 44.1c15.8 10.9 34.5 23.7 49.2 35.8 2.7 2.2 8.4 5.7 7.1 9-13 32.3-26.4 64.4-39.4 96.7-7.8 19.4-14.3 40.2-22.8 59.2-2.4 5.4-7.8 17.6-11.5 21.5-11 11.9-42.4 5.7-57.5 7.5-7 .8-39.4 25.6-47.8 31.2-9.3 6.3-20.9 11.6-29.2 18.8-11.1 9.6-18.8 27.5-25.3 40.7-1.2 2.5-2.7 8-4.1 9.7-.9 1.2-1.8.4-2.1.6 2.9-8 9.1-24-3.2-27.3-24.9-6.6-31.1 31.7-10.3 32.4 5.1.2 9.3-2.7 13.5-5Zm108.8-362.8c-16.1 1.3-18.6 20.6-6.3 29.8 13.7 10.2 34.5 3.9 28.7-15.7-2.3-8-14.4-14.7-22.4-14.1m-166.5 417.1c-.6.5-5.3 6-5.8 6.7-8.6 13.3 1.2 29.8 17.4 23.4 5.4-2.1 8.7-8.2 10.5-13.5 5.3-15.4-9.2-27.6-22.1-16.6m-32.6 72.9c-19.7 4.1-21.7 39.6 2.6 34.5 17.2-3.6 22.9-39.9-2.6-34.5" class="fill" data-original-prefix="fill"/><path id="fill-ear-rt3" fill="#ffffff" d="M1721 186c-31.9 28.2-64.8 55.6-96 84.5-20.5 18.9-33 29.2-44.4 55.5-16.7 38.2-28.6 79.6-45.5 118-1.5.4-1.7-.4-2.5-1-5.7-3.9-11.9-10-17.6-14.4-32.2-24.7-65.5-48.1-99.8-69.7l.8-3.5c16.1-12.9 31.8-26.3 48.2-38.8 39-29.7 81.9-61 126.2-81.8 42-19.7 86.2-35.6 130.7-48.8Zm-200.2 209.2c-4.4.3-8.9 3.1-11 7.1-8.3 15.9 17.4 32.4 26.2 21.2 9.4-11.9-.4-29.5-15.2-28.3" class="fill" data-original-prefix="fill"/><path id="fill-ear-rt-rivet5" fill="#ffffff" d="M1205.8 881.2c.3.4 1.9 6.6 1.9 7.4.3 11.2-17.1 14.3-14.6-1.1.8-5.2 9.9-9.8 12.7-6.3" class="fill" data-original-prefix="fill"/><path id="fill-ear-rt-rivet4" fill="#ffffff" d="M1235.7 805.2c13.9-2.8 12.2 15.8 1.7 16.8s-11.4-14.8-1.7-16.8" class="fill" data-original-prefix="fill"/><path id="fill-ear-rt-rivet3" fill="#ffffff" d="M1271.3 740.7c-6.9-5.6 4.4-18.6 11.3-13.8 7.7 5.4-4 19.7-11.3 13.8" class="fill" data-original-prefix="fill"/><path id="fill-ear-rt-rivet2" fill="#ffffff" d="M1398.7 396.2c10.5-3.1 16.5 14.9 2 11.6-6.3-1.5-8-9.8-2-11.6" class="fill" data-original-prefix="fill"/><path id="fill-ear-rt-rivet1" fill="#ffffff" d="M1529.7 415.7c-3.4 3.6-10.4 2.4-10.8-3.2-.8-12.8 17.9-4.2 10.8 3.2" class="fill" data-original-prefix="fill"/><path id="shading-ear-rt" fill="#aaaaaa" d="M1723.2 198.8c1.1.7 3.4 0 3.8.2 1 .9.2 23.2 0 26.5-3 78.4-22 167.1-43.5 242.5-27 94.6-62.5 187.2-112.8 271.8-109 38.4-182.4 127.3-248.3 217.2-6.9 9.3-10.1 16.1-22.2 18.8-16.7 3.7-51.9-3.1-68.2-9.2-8.7-3.3-32.8-19-39.1-26-4.2-4.7-24-40.7-25.5-46.5-.8-3.1-.6-6.3-.4-9.5 9.9-22.1 21.6-43.6 31.1-65.9 6.5-15.3 11.1-31.6 17.3-46.7 4.8-11.7 11.9-22.6 16.2-34.8 14.8-41.1 17.6-100.5 11.1-143.6-1.5-9.8-5.1-16.5-3.9-27.1.9-7.5 7.1-14.2 9-21.5l15 73c62-48.6 120.2-102.4 181.5-152 15.7-12.7 31.6-26.8 49.5-36l-1.5-3c-21.9-15.4-42.7-32.5-65.8-46.2-2.5-1.5-31.8-16.3-30.7-17.8 5.9-1.9 11.6-5.4 16.5-9 3.4-2.5 4.6-7.1 9.8-5.8 3.4.9 18.9 12.1 23.1 15 23.8 16.3 47.4 33.3 70.8 50.3 11.8.5 13.6-2.1 13.4-13.5 12.9-26.7 23-54.7 35.3-81.6 2.3-4.9 5.3-13.5 8.6-17.4 5.9-6.9 18.3-17 25.5-23.5 21.2-19 65.9-59.4 89.8-71.2 4-2 26.6-10.7 30-11.1 3.9-.4 3.4 3 4.5 3.6ZM1703 288c-.6-.8-7.1 4.7-8 5.5-23.5 20-52.6 47-73 70-15.3 17.2-21 36-28 57.5l101.1-74.4c3.3-19.4 6.6-39 7.9-58.5Zm-16 102c-.7-.8-10 6.2-11.3 7.2-33.3 23.5-66 47.9-98.2 72.8-6.6 18.3-12.6 37-16.4 56.1l113.7-77.3 12.3-58.7Zm-207.3 146.7c6.9-24.1 15-48 19.8-72.7l-233.4 175.2c2.2 17.2 3.6 34.5 1.9 51.8zM1634 535c-.7-.8-6.4 4.2-7.5 5-29.9 23.4-62.7 50.7-90.1 76.9-8.9 8.5-20.1 19.2-26 30-3.6 6.6-7.4 20-11.9 25.1-6.7 7.4-25.1 18.6-34 26-19.2 15.8-31.9 28.3-46.3 48.7-16 22.5-29.9 46.6-42.2 71.3l64.3-38.2 115.7-66.3c27.3-58.9 55.3-117.6 78-178.5m-357.3 190.2c-8.5 1.8-10.6 17-2.2 16.8 3.8 0 1.1-3.9 1.8-5 1-1.5 8.5-2.7 8.6-6.4 0-4-4.6-6.1-8.2-5.4m-12.8 16.9c-1.9-1.6-7.4 3-8.8 4.6l-18.8 51.1c-5.9 3.1-15 19.2-5.3 21.9 5.5 1.5 7.5-5.5 10.7-6.4 2.1-.6 4.5.2 6.6-.4 1.6-.5 2.3-2.8 4.2-2.8 3.3 0 6.4 8.5 8.5 7 5.3-16.9 14.6-32.2 20-49-15.5 3.6-14.1-23.4-17.1-26M1224 833c-1.7-1.8-1.7.7-2.1 1.4-3.7 7.3-13.8 39.5-18.6 42.4-3.4 2-12 2.6-11.3 9.7s10.4 3.4 13.5 3.6c2 .1 3.5 2 6 2 1.3 0 4.1-1.4 4.5-1.1 3.2 2.5 3.5 31.1 15.2 9.7l18.8-55.2c-2.7-.5-4.3 1.4-7.5 1.6-6.4.3-11.7-2.7-15.5-7.6-1.7-2.2-2.8-6.2-3-6.5" class="outline shading" data-original-prefix="shading" opacity="0.5" style="opacity: 0.5"/><path id="shading-ear-rt2" fill="#aaaaaa" d="M1384 405c2.6-.1 3.5 2.8 5.9 3.5 6.6 2.1 5.5-1.4 7.8-2.5 1.8-.9 7.7-3 9.9-3.8 1.5-.5 3.9.2 5.3-.7 2-1.3.8-9.2 6-4.1 10.2 10-1 33.1-14.4 32.5-10.8-.5-23.4-13.6-20.6-24.9Z" class="outline shading" data-original-prefix="shading" opacity="0.5" style="opacity: 0.5"/><path id="outline-ear-rt" fill="#000000" d="M1734.9 163.1c.9 5.1 2.3 10.3 3 15.5 6 47.5-.5 106.2-7 153.7-17.7 128.1-67.1 281.2-131.7 393.3-2.7 4.6-14.6 24-17.8 26.2-3 2.1-16.3 5.5-21.3 7.7-29.5 12.8-63.7 37.8-88.5 58.5-54.2 45.1-104.1 102.3-138.2 163.9-13 3.4-25.7 8.6-38.7 11.1-16.8-6.7-37.5-5.5-54.2-10.9-6.7-2.2-43.9-21.9-49.8-26.2-16.8-12.5-29.2-53.7-41.2-71.8-1.4-4.6.6-29.6 1.6-35.5 1.6-9.2 25.9-43.5 32.1-54.9 31-57 45.2-134.6 38.8-199.2-.6-6.2-6.4-29.9-5.8-32.8 1-5 11.8-23.5 15-29 22.3-39 50.6-76.1 80.3-109.7 100.4-113.9 223.3-215 374.1-251.9 6.5-1.6 46.4-10.5 49.3-8M1721 186c-44.5 13.2-88.6 29.1-130.7 48.8-44.4 20.8-87.2 52.1-126.2 81.8-16.4 12.5-32.1 25.9-48.2 38.8l-.8 3.5c34.3 21.6 67.6 45 99.8 69.7 5.7 4.4 11.9 10.5 17.6 14.4.8.6.9 1.4 2.5 1 16.9-38.3 28.9-79.7 45.5-118 11.5-26.4 24-36.6 44.4-55.5 31.3-28.9 64.1-56.3 96-84.5Zm-411.3 781.7c66.3-95.2 146-190.2 258.2-231.3 74.9-128.8 125.1-279.4 146.9-427.1 5.3-35.8 9.6-72.1 9.2-108.3-5.5 4.3-9.9 9.8-15 14.5-28.6 26.4-60.4 52.7-87 81-18.7 19.8-26 39.1-36.4 63.6-41.9 98.6-78.9 194.5-108.1 297.9-.5 1.7-.5 3.3-.4 5-27.1-2-60.2-1.1-85.4 10.1-19.7 8.8-54.7 31.7-66.9 49.1-24.6 35.4-46.9 93.6-62.5 134.5-7 18.3-26.4 65.3-26.3 82.8.1 29.7 52.3 43.2 73.8 28.2ZM1288 747c-4.2 2.4-8.4 5.2-13.5 5-20.8-.7-14.6-39 10.3-32.4 12.3 3.3 6.1 19.3 3.2 27.3.3-.2 1.2.5 2.1-.6 1.4-1.8 2.8-7.3 4.1-9.7 6.5-13.2 14.2-31.1 25.3-40.7 8.3-7.2 20-12.5 29.2-18.8 8.4-5.7 40.7-30.4 47.8-31.2 15.1-1.8 46.5 4.4 57.5-7.5 3.6-3.9 9.1-16.2 11.5-21.5 8.5-19 15-39.8 22.8-59.2 13-32.3 26.4-64.4 39.4-96.7 1.2-3.3-4.5-6.8-7.1-9-14.7-12.2-33.3-25-49.2-35.8q-34.8-24-72-44.1c-1.9-.3-8.3 5.6-10.3 7.4-37.4 33.1-77.7 78.5-106.8 119.2-9.4 13.1-41.1 59.8-40.8 73.7 0 4.9 3.4 12.8 4.3 18.5 7 41.8 3.8 106.1-9.9 146.5-4.7 13.8-12.8 26.5-18.2 39.8-13 31.6-24.4 61-38.7 92.3-2.5 5.6-9.5 15.5-8.6 20.9.4 2.5 2.2 5.4 3.3 7.8 3.6 7.8 16.8 34.2 21.5 39.5 2.9 3.2 11.8 9.8 15.7 12.3 7.5 4.9 16.2 8.8 24.3 12.7-7.1-8.7-14.2-19.4-19.8-29.2-1.5-2.6-6.2-10.4-6-12.5 4.2-12.7 9.3-25.2 14.6-37.4 19.4-44.6 48-91.7 64.2-136.3Zm-16.7-6.3c7.3 5.9 18.9-8.3 11.3-13.8-6.9-4.9-18.2 8.2-11.3 13.8" class="outline" data-original-prefix="outline"/><path id="outline-ear-rt4" fill="#000000" d="M1197.7 874.2c25.5-5.3 19.7 30.9 2.6 34.5-24.2 5.1-22.3-30.4-2.6-34.5m8.1 7c-2.8-3.5-11.9 1.1-12.7 6.3-2.4 15.4 14.9 12.3 14.6 1.1 0-.9-1.6-7-1.9-7.4" class="outline" data-original-prefix="outline"/><path id="outline-ear-rt3" fill="#000000" d="M1230.3 801.3c12.9-11 27.5 1.3 22.1 16.6-1.8 5.3-5.1 11.4-10.5 13.5-16.3 6.3-26.1-10.2-17.4-23.4.5-.7 5.2-6.2 5.8-6.7m5.4 3.9c-9.7 2-8.4 17.8 1.7 16.8s12.2-19.6-1.7-16.8" class="outline" data-original-prefix="outline"/><path id="outline-ear-rt2" fill="#000000" d="M1396.8 384.2c8-.6 20.1 6.1 22.4 14.1 5.8 19.6-15 25.9-28.7 15.7-12.3-9.2-9.8-28.5 6.3-29.8m1.9 12c-6 1.8-4.3 10.1 2 11.6 14.5 3.3 8.5-14.7-2-11.6" class="outline" data-original-prefix="outline"/><path id="outline-ear-rt1" fill="#000000" d="M1520.8 395.2c14.8-1.1 24.7 16.4 15.2 28.3-8.9 11.2-34.5-5.3-26.2-21.2 2.1-4 6.6-6.8 11-7.1m8.9 20.5c7.1-7.5-11.7-16-10.8-3.2.4 5.6 7.4 6.8 10.8 3.2" class="outline" data-original-prefix="outline"/>
    </g><g class="trait-group" data-category="left ear" id="left ear-KBDS tattoo">
      <path id="fill-ear-lft" fill="#ffffff" d="M326.7 182.1q1.65-.45 3.3.3l180.7 78.4c55.2 39.7 111.9 77.8 165.3 119.7l109 135.9c10.5 65.4 16 132 25.2 197.8 24.6 50.1 52.6 98.7 77.3 148.7 1.5 3.1 5.4 9.5 5.5 12.5.2 4.7-8.5 15.9-11.2 20.8-15.1 27.1-18.8 33.2-43.9 52.1-22.9 17.2-44.3 28.5-72.5 35.5-8 2-18.1 5.7-25.3.5l-82.9-79.1c-9.9-22-17.5-45.3-28.1-66.9l-154-109c-23.7-34.4-41.7-73.1-64.9-108.1-9.8-43.7-27.6-90.2-34.9-134.1-5.9-35.7-6.9-73.6-12.5-109.5-9.3-20.9-22.7-40-30.5-61.5-1-40.6-6.8-81.2-8.3-121.7-.1-3.4-1.1-11.4 2.8-12.4Z" class="fill" data-original-prefix="fill"/><path id="shading-ear-lft" fill="#aaaaaa" d="M664 558v21.5c0 22.8 19.2 43.4 30.4 61.6 38.9 63.4 63.1 129 108.2 189.8 16.2 21.8 35 41.1 51.9 62.1 4.8 5.9 9.3 10.3 9.5 18.5.2 6.2-2 12.6-1.1 19l-.9 2.1-60.1 40.9c-13.7.2-28.1 9.9-40.7 12.4-1.5.3-2.8.5-4.2-.3l-76.6-51.4-69.8-109.7c-33.8-23.4-81.3-39.6-107.2-72.3-4.2-5.3-6.4-12.2-10.5-17.5.3-1.1 2.2-.4 3 0 7.1 2.9 21.5 16.6 29.2 21.8 23.5 15.5 51.4 30.4 77.3 41.7 17.3 7.5 35 10.9 52.9 16.1 7 15.4 12.9 31.5 20.2 46.8 8 16.6 27 35.1 40.2 48.8 19 20 39 39.1 59.5 57.5 1.5.2 1.8 0 1.4-1.4-1.9-7.7-7.7-31.2-11.1-36.9-4.7-7.9-16.1-19.2-22.2-27.8-25.1-34.9-42.3-72.5-64.4-108.6-7.4-12-9.8-16-22.8-22.2-38.1-18-78.4-19.1-114.3-41.7-26.9-17-34.3-26.3-51.1-52.9-25.7-40.5-46.4-86-61.2-131.8-4.2-12.9-10.9-32.4-12.7-45.3 0-.6-.3-1.6.5-1.5 14 25.4 25.6 52.8 42.1 76.9 5.6 8.2 12.9 19.9 23.4 21.1-.5-2.4 1.1-5.1.8-7.3-1.4-11-12.7-28.8-16.3-39.8-3.8-11.7 2.7-30.6 3.5-43.5 3.6-59-24.7-121.5-55.6-170.4-12.4-19.7-28.5-37.1-37.4-59.1h16.5c8.6 0 8.7 2.4 14.2 5.8 15.3 9.7 32.5 17.5 48 27 30.2 18.6 67.2 68.2 84.5 99.5 2.9 5.2 12 22.4 12.8 27.2.9 5.4-.9 10.1-1 14.9-.8 41.5 1.8 83.9 11.9 124.2 3.2 12.9 5.4 24.4 15.1 33.9 1.4 1.4 2.9 3.8 4.5 1.5l24.5-44.5 55-6.5Z" class="outline shading" data-original-prefix="shading" opacity="0.5" style="opacity: 0.5"/><path id="outline-ear-lft1" fill="#000000" d="M846 941c15.6-16.5 32.2-43.8 28.9-67.4-.7-5.3-12.9-37-15.7-43.3-4.9-10.8-13.5-22.9-19.1-33.9-13.3-26.2-23.6-54-36.6-80.4-11.5-63.5-8.3-129.6-22.2-192.8-17.8-27.6-39.3-55.2-60.3-80.7-38.8-47.2-78.4-82.8-129.5-116.5-44.3-29.2-93.1-59.2-139.9-84.1-38.9-20.7-78.7-40.3-120.7-53.8-2.4 25.4-1 51.1 2.1 76.4 1.6 12.7 3.6 27.3 6.1 39.9 4 19.6 14 30.2 20.7 48.3 12.6 33.6 20.1 76.2 22 112 1 17.6-.2 29.6 3.5 47.6C403.7 602 448.2 693 517.8 753.8c34 29.7 77.1 43.1 110.3 69.7 7.8 6.3 4 4.9 5.1 11.8 1.6 9.9 18.8 46.7 24.6 56.2 15.7 25.7 53.2 60.5 79.7 75.5 24 13.7 44.9 12.6 70.3 2.2-1 4.2-9.1 7.7-13 9.5-10.8 5-38.1 16.1-49 17.1-3 .3-21.2-3.2-23.6-4.5-4.8-2.8-25.5-24.8-31.5-30.5-6.5-6.3-12.2-13.3-19.5-19.5-10.3-8.7-24.4-15.4-30-28-10.2-23.4-16-42.1-31.1-63.9-13.3-19.2-23.3-19.4-42.1-29.9-54.1-30.4-101.8-71.4-134.8-124.2-34.3-55.1-65.6-124.7-77.1-188.9-2.5-13.8 1.9-13.4 4.1-25 4.4-23.5-6.2-86.5-16-109-4.4-10.1-16.6-21.1-20-29s-5.6-30.1-6.5-39.5c-3.2-33.3-7.5-84.6-2.9-116.9.4-2.5 3.3-15.8 4.5-16.7 3-2.2 17.1 1.6 21.4 2.6 42 9.3 96.2 32.3 135.7 50.3 50.6 23.2 121.1 61.1 164.2 95.8 15.1 12.1 34.1 34.5 47.6 49.4 42 46.4 79.2 96.7 114.9 148.1 8.9 76.3 3.1 178.6 48.8 244.2 2.9 4.1 7.4 7.9 10 12 7.1 11.1 12.9 32 19 45 8.4 18.2 20.9 33.8 21.8 54.2.1 3 .5 7.8-.5 10.5-17.1 21.9-26.4 52.1-56.5 59Z" class="outline" data-original-prefix="outline"/><path id="outline-ear-lft2" fill="#000000" d="M672 548c1 1.1-9.1 24.9-9.8 28.7-3.4 19.9 9.7 77.8 18.9 96.6 8.1 16.7 18.9 24.3 29.3 37.7 6 7.7 12.2 19.9 17.4 28.6 28.7 47.7 46.4 98.9 78 145 4 5.8 13.4 15.9 15.8 21.2 1.5 3.3 3.4 23.6 3.5 28.6.2 6.5-4.7 9.9-9.1 14-2.2 2-18.3 15.2-20 13.5.6-4.8 4.2-9.9 4.9-14.6 3.5-25.1-14.9-60.6-26.4-82.4-4.9 13.5-9.7 27.4-13.8 41.2-1.8 6.3-7.7 23-7.7 28.4s7.6 4.8 7 10.3c-15.2-4.4-28.5-12.5-41.5-21-2.2-2.1 0-8 .8-11.2 4.1-17.3 11.7-34.5 14.7-52.3-.2-2.6-21.2-17.3-24.5-20.5 1 13.8 3.6 27.7 4.5 41.5.3 4.3-.2 8.7 0 13 .2 4.5 4.1 23.3-5 21-2.3-.6-20.4-11.5-22.5-13.5-4.2-3.9-8.2-11.2-12.4-15.6-2.5-2.5-13.6-10.6-14.1-12.9-.3-1.6-.3-5 .5-6.5 9.7 5.3 18.8 11.2 27.5 18-.7-19-1.6-39.6-5.3-58.2-.4-1.9-.8-5.8-1.6-7.1-1-1.6-5.1-1-4.1-3.2s12.4-6.1 15.3-5.3l38.7 28.3-39-100.5c-2.6-.3-1.6 0-2 1.5-4.1 17.4-8.7 36.8-11.7 54.3-2.2 12.7-4 25.3-3.3 38.2-8.7-4.1-17.9-7.7-26.3-12.1-2.7-1.4-18.9-10.1-19.7-11.3-1.8-2.5-.1-5.4-1.8-8.2-1.1-1.7-10.3-6.9-13.6-10.4-24.8-26.3-42.5-56.6-72.5-79.5-1.9-1.4-9.4-3.2-6.3-6.6 4.4-5 15.9-9.9 21.4-14.4-2.3-1.5-3.7-4.5-5.3-6.2-.9-1-3-.9-4.2-2.3-2.5-2.8-8.3-37.9-10-45-1.9-8.1-4.5-16-6.5-24l-18.1 62.5c0 2.9 13.6 7.3 16.1 10 .9.9 1.6 2.5 1 3.5-.5.7-13.8 6.2-15.4 6-1.5 0-23.1-12.3-25.9-14.2-13.3-8.9-12.4-19.7-18.8-33.2-4.7-9.9-10.1-18.5-19-25-2.6-2-15-8.5-15.7-9.8-1.3-2.2 5.5-27.8 6.5-32.6 6.1-29.7 11.1-59.4 13.4-89.7.4-4.9-1.7-12 1.1-16.8 1.6-2.8 42.3-16.6 47.8-21.3-3.5-18.9-8.8-37.1-17-54.4-1.6-1.2-24.6 26.6-26.4 29.1-2.8 3.9-6.6 9.1-6.6 13.9-14.4-3-21.6-16.8-31-26.5-1-1-1.3-1.9-3-1.5l1 83.5c.2.8 11.7 11.3 12.6 11.5 2.6.6 4-6.3 4.9-8 6.9 7.4 6.4 11.1 5.5 20.5-.5 4.8-3.1 23.4-5.5 26.5-2.5 3.2-5.5-1.9-7.6-3.4-13-9.3-26.4-18.2-39.4-27.6-3.6-5.5-2.7-18.8-2.6-25.5.5-27.5 1.3-54.3-1-82-.7-8.5-1.5-23-3.2-30.8-.4-2-5.7-7.9-4.8-8.7 3.8 1.1 9.7.3 13 1.5s22.1 18.3 26 22c3.1 2.9 7 10.5 11.4 9.6l24.3-37.6c0-2.1-17-24.8-19.7-28-2-2.3-12.7-13.8-14.5-14.5-2-.9-2.4 3.5-2.5 4.5-.7 7.8-2.9 28.6-2 35.1.4 3.2 9.1 15.4 8 16.4-1.7.3-2.6-.8-3.9-1.6-9.2-5.6-23.4-19.3-30.1-27.9-1.5-1.9-4.3-5.4-3.9-7.7.3-1.4 7.7-12.2 9.3-15.8 2-4.5 9.4-24.6 8.6-28.3l-26-18.2-22-38.5c3.2-2.9 26 18.3 29.7 20.8 6.7 4.5 14.8 6.9 21.2 11.8 10.2 7.8 21.9 22.1 31.6 31.4 33.1 32 56.9 54.1 79 95.9 3.8 7.1 20.1 40.7 20.3 46.5.3 8.1-5.4 26-6.7 35.2-7.5 53.5-.4 104.9 26.7 152 5.6 9.8 22.5 33.9 35.2 21.9 5.1-4.9 9.1-31 11.5-39.5 1.8-6.4 9-30.9 12-35 2.3-3.1 13.2-9.4 17.2-11.8 12.5-7.8 25.9-15 39.3-21.2ZM448 424c7.3-13.8 19.7-25.6 30.5-37 1.6-3.1-1.2-5.8-3-8-3.3-.8-29.7 32.1-33 37.1-1.8 2 4.2 8.9 5.5 7.9m-37 68c-.5-29.8-1.4-59.6-1-89.5-3-5.5-7.6-10-12-14.5 4.1 32.6 5.7 65.4 5 98.3zm95-14c-10.4 1.8-20.4 6.6-29 12.7 0 29.3-2 58.6-6.1 87.7-1.6 11.1-4 22.1-5.9 33.2.1 2.8 7.5 8 10.1 11 .9 1 5.4 8 6 7.5 9.7-25.4 12.4-52.4 19-78.6 1.7-6-6.7-9.4-6-14.8.2-1.8 5.7-10.4 7-14.1 1.5-4 5-16.3 5-20v-24.5Zm9 93c-.5-.5-2.5-.2-2.1 1.4-4.8 25.6-9.3 51.4-19.7 75.4-.4 4.1 7.2 11.5 7.8 16.2 1.5-.1 1.5-1.5 1.9-2.5 8.1-20.9 11.3-47.5 19-69.1.4-2.8-6-20.4-7-21.4Zm136 123 7.7-39.4c-5.2-18.4-13.7-53.2-34.5-22.9-3.8 5.5-10.2 15.2-6.6 21.3 7.5 12.8 22.6 26.3 30.5 39.5l3 1.5Zm-18 90c4.9-18.2 8.8-36.7 11.7-55.4-10.5-17-21-34.2-33.7-49.6-1 13.6 3.3 27.5 8.5 40 2.5 5.8 6 11.2 8.5 17-17.8-6.2-33.6-18-49.7-27.9-2.3-.2-7.5 8.7-8.2 11.2 20.2 22.3 39.2 45.8 62.8 64.6Zm16.2 30.9c4.4.8 9.3 5.4 12.9 6.7 3.2 1.2 1.8-11.6 2-14 2.8-27.6 12.7-55.6 17-83.1-.1-4.1-8-9-10.5-12.4l-21.3 102.8ZM751 822c1.1-1.5-16.4-28.7-18.8-31.7-1-1.2-1.1-2.7-3.2-2.3l15 36zm-8 108c4.6-26.5 14.7-52.1 22.8-77.8.7-3 .1-6.2-2.3-8.2l-24.3 82.8c-.6 2.8 1.4 3.6 3.8 3.2" class="outline" data-original-prefix="outline"/>
    </g><g class="trait-group" data-category="head" id="head-bandages">
      <path id="fill-head" fill="#ffffff" d="M1238.8 890.2c1.7 3.5 3 7.6 2 11.5-15.9 11.2-31.5 22.9-47.5 34-13.7 9.5-33.1 24.5-47.4 31.6-11.7 5.7-28.4 9.8-41.1 13.9-33.8 10.9-68 20.5-101.8 31.2-5.8 1.9-6.2 12.7.5 13.5 9.7 1.3 20.5-.7 30.1-1 78.2-2.7 146.8-5.9 223.7-21.3 23.8-4.8 52.8-10.2 75.3-18.7 8.6-3.2 18.7-10.8 27.7-9.8 2.6.3 8 1.4 8.9 4.1 3.7 15.7 5.2 32.2 9.2 47.8 4.8 18.5 21.1 35.8 31.6 51.5.3.8-.1 1.5-.3 2.3-.3 1.4-9.7 20.1-10.7 21.4-4 5.1-29.9 6.8-37.4 7.6-84.3 8.9-170.5 9.2-255 6-62.9-2.4-125-9.7-186.3-23.7-30.5-7-61.2-17.8-91.9-23.1-29-5-56 9.3-83.3 17.3-25.6 7.5-56.9 16-83.5 17.5-2.7.2-12.7.9-13.4-1.6 1.5-12.3 3.5-24.5 3-36.9-.4-8.7-3.5-18.2-4-26.1-.6-10.1 14.5-7.6 21-9.8 4.9-1.7 33.1-38.5 37.8-45.2 6.5-9.3 12.7-19.8 18.4-29.6 3-5.3 5.7-13.5 9-18 3-4.2 8.8-4.7 13.5-5.5 56.5-9.9 115.8-11.2 172.7-20.3C956 905 987 898.6 1020 881.5c15.8-8.2 32.9-17.7 48.3-26.7 18.6-10.9 36.7-22.9 53.2-36.7 20.4 16.5 39.2 36.3 62.8 48.1 17.5 8.7 36.9 15.3 54.5 24" class="fill" data-original-prefix="fill"/><path id="shading-head2" fill="#aaaaaa" d="M649.5 1104c-.7-.2-1.6-1.6-1.5-2.5 1.5-3.5 1.3-19.8 3.3-21.3.6-.4 2.1.2 2.7-.9.7-1.3 4.1-13.4 4-14.9-.2-5.2-7.3-8.3-8.8-13.2-1-3.2-3.1-14.7-1-17 6.9-7.4 17.8 4.5 22.2 9.7 8.6 10.1 11.4 18.9 7.5 32 32.5-5.9 64.5-13.8 96.4-22.1 82.5-21.3 164.9-44.6 246.3-69.7 33.3-10.2 70.3-20.5 102.8-32.2 38.8-14.1 69.4-44.5 104.2-65.8 9.3 1.2 14.9 5.6 13.1 15.6l-75.5 53c-41.9 24.5-95.9 27.9-139.3 45.7-4.3 1.8-7.7 4.8-12 6.5l2 2c-3-.1-15.4 5.2-16.5 7-1.3 2.2-.5 10 2 10h28.5l-19 8.5c-32.8 7.4-65.5 16.3-97 28 2 3.9 6.4 6 10.4 7.5 55.4 21.7 127 27.1 186.1 28.9 60.4 1.9 119.7 3.8 179.8-4.1 38.7-5.1 77-12.8 115.2-21 1.6.1 4.6 4.6 4.4 6.4-.2 1.2-9.5 19.9-10.7 21.5-2.5 3.4-6.2 3.9-10.2 4.8-34.5 7.8-86.3 8-122.5 9.5-74.3 3.1-152 3.5-226-4-27.5-2.8-49.8-8.7-76.3-13.7-18-3.4-36.4-4.8-54.4-8.6-34.8-7.3-73-23-108.3-20.9-26.5 1.6-64.9 16-92.7 22.5-13.2 3.1-26.7 5.6-40.1 7.9-1.9.1-3.5 4.8-4.2 4.8-3.2.1-12.7.8-14.9.1" class="outline shading" data-original-prefix="shading" opacity="0.5" style="opacity: 0.5"/><path id="shading-head1" fill="#aaaaaa" d="M969 901c-11.5 8.6-24.3 15.7-37 22.5-64.3 34.5-137.6 63.8-207.2 85.8-7.9 2.5-16.7 5.4-24.8 7.2-6.6 1.5-13.3 3.5-20 1.5-.5-1.7.7-2 1.5-3 1.9-2.5 12.8-16.1 14.2-16.8 3-1.3 8.5-1.8 12-3 75-24.3 154.2-40.7 220.2-85.8z" class="outline shading" data-original-prefix="shading" opacity="0.5" style="opacity: 0.5"/><path id="outline-head" fill="#000000" d="M1004 1019c-.2 1.7 2.3.9 3.5 1 4.8.2 10.2.2 15 0 41.6-1.3 86.5-3.2 128-6 48.6-3.3 119.8-17.2 166.5-31.5 11.4-3.5 22-9.6 32.2-12.8 9.1-2.8 17.1-1.1 25.2 3.3 5.3 18 5.2 42.5 12.5 59.5 6.6 15.3 22.3 31.4 31 45.9-.9 2.7-2 5.3-3.1 7.9-2.2 5.1-8 16.7-11 21-3.4 4.7-11.9 5.6-17.5 6.5-43 7-95 7.8-138.9 9.1-102.4 3-207 1.2-307.7-19.3-38.4-7.8-78.8-22.3-116.5-28.5-20.6-3.4-37.4 6.3-56.5 12-29.6 8.9-59.6 17.8-90.4 21.6-6.9.8-28.8 4.1-33.4-.3-3.2-3.1 2.2-31.4 2.1-38.1-.1-10.8-4.9-23.6-5-33.1-.1-13.8 17.1-12.1 26.6-14.7 16.5-20.6 32.9-40.3 46.5-63 4.9-8.2 10-21 15-28s12.9-5.6 20.2-6.8c71.3-11.6 144.2-12.8 214.6-29.4 41-9.6 87-36.4 122.5-59.5 12.6-8.2 24.2-17.9 36.8-25.8 19.3 14 36.8 33.5 57.4 45.6 19.2 11.3 43.4 18 63.3 28.7 3.9 2.4 6.2 17.2 4.6 20.5-28.9 20.6-57.8 43.4-88 62-21.8 13.4-48.3 19.5-72.8 27.2-27.3 8.9-55.1 17.3-82.7 25m216-126-53.7-20.8c-16.6-10.8-30.6-25-46.4-36.8-57.3 36-116.5 68.3-177.6 97.5-62.8 30-127.8 58.5-193.6 81.4-30.1 10.5-61.2 20.9-92.8 25.7 5 17.9 11.3 34.2 6 53 41-5.6 81.2-16.8 121.2-27.3 72.2-18.9 144.2-39.7 215.5-61.5 37.8-11.5 86-23.5 121.5-38.5 26.6-11.3 71.7-48.5 95.2-67.8 1-.6 5.9-3.7 4.7-4.9m-291 28c-31.9 6.2-64.2 9.5-96.3 14.2-29.6 4.3-59 10.4-89 12-13.6 23.4-28 46.2-45.7 66.8 51.5-15.1 100.6-37 150-57.5 18-7.5 36.8-13 54.3-21.7zm-81 144c47.9 10.7 95 24 143.7 30.9 115.2 16.3 239.4 14.2 354.7 0 11.8-1.5 29.9-3 40.9-6.1 3.1-.9 9.1-5.2 9.6-8.4.4-2.5-26.4-32.7-29.6-40.1-3.3-7.5-8.7-46.7-10.7-48.3-3.3-2.7-9.8 2.6-13.3 3.9-20.1 7.3-44.1 12.4-65.1 16.9-109.3 23.5-224.8 29.4-336.2 23.8l-92.5 25.4z" class="outline" data-original-prefix="outline"/>
    </g><g class="trait-group" data-category="mouthpiece" id="mouthpiece-bearded 2">
      <path id="fill-mouthbit-main1" fill="#ffffff" d="M1250.4 1610h16.5c.9-5.6-1.9-10.6-2.7-15.8-1.8-11.1-2.1-24.7-7.1-34.9-1.9-3.9-3.6-5.9-8.6-4.2-1.9.6-1.4 6.2-5.5 0 2.4-17.1 0-34.8-6.1-50.8 8.1-.8 15.8 11.1 20 13 1.3.6 6.2 1 6.9.4.4-.3 2-8.1 2.1-9.4 1.4-14.6-30.9-59.9-43.8-59.8l-74.1-9.7c-7.1-1-54.5-2.4-56.8 1.2-2.4 3.8 4 13.9 5.4 17.8l-44-6c-10.1 1.9-18.5 7.9-27.2 12.8-9.6-3.8-17.4-11.3-27.9-12.8l-44.5 6c-.6-.6-36.4-19.8-50.9-18.9l-25.8-4.1c-12.2-.2-96.9 45.4-92.3 73.5 0 1.3 1.7 9.1 2.1 9.4.7.6 5.6.2 6.9-.4 4.4-2 11.8-14 20-13-6 14.4-7.2 29.7-7 45.1 0 4.3 2.9 6.7-2.9 9.5 0-4.4-3.6-5.1-7.4-3.8-5.7 2-7.9 25.7-8.8 31.2-.6 3.3-5 22.5-3.9 23.6h-.2 16.5c2.9 0 11.9-4.3 15-5.9 5.9 8 5.5 18.2-1.5 25.4-2.7 2.9-14 8.6-14.5 9.4-.6 1.1-.8 6.6-.4 7 .4.5 10.7 2 12.4 2.1 9.4.7 19.3-.2 28.5-2-7.8 25.2-11.3 57.3 6.5 79 1.2 1.5 9.6 10.1 10.5 10.5 8.4 3.7 7.1-3.1 9.5-8.5 3.7-8.4 9.2-18.5 17.5-23 2 6.6.4 13.6 1.1 20.4 1.9 19.2 14.6 38.6 28.9 51.1 4 3.6 12.2 11 17.4 9.6 2.2-.7 1.4-18.1 3.1-21.1 4.7 6.3 8.8 13.1 14 19 12.4 14.3 25.7 21.7 33.7 40.3 1 2.1 3.2 10.8 3.8 11.2 3.2 2.3 12.9-1.7 15.6-4.5 1.3 0 3.4 8.9 4.3 10.7 1.5 3.2 12.9 16.9 15.6 18.4s6.4 1.5 9.1 0c1.1-.7 10.2-10.9 11.4-12.6 4-5.5 5.6-10.6 8.5-16.5 3 2.8 12.1 7 15.6 4.5.8-.5 2.7-8.4 3.5-10.5 8.1-19.3 21.3-26.2 34-41 4.8-5.6 8.6-12 13-18 2-.5 2.3 5.4 2.4 6.6.6 6.2-2 17.4 8.1 12.9.6-.3 9.6-7.8 11-9 14.7-12.9 26.9-32.3 28.9-52.1.6-6.5-.9-13.2 1.1-19.4 7.7 4.7 14 14.7 17.5 23 .7 1.8 1.5 6.8 2.4 7.5 6.2 4.4 17.9-9.5 20.9-14.2 14-22.1 10.4-50.5 3.2-74.3 9.2 1.8 19 2.7 28.5 2 1.7 0 12-1.7 12.4-2.1s.3-6-.4-7c-.4-.6-6.2-3.1-7.8-4.2-12.7-8.8-15-15.9-9.7-30.8.7-.6 13.7 6 16.5 6zm-305.8-27.8c-1.5-.3-2.9-.6-4.4-.7.9-1.3 1.8-2.4 2.8-3.5.5 1.5 1 2.9 1.6 4.2m179 41.6c-.7 17.4-6.6 34.1-16.8 48.1-5.1-8.8-11.8-16.7-19.6-23.2-3.3-2.7-7.3-1.9-9.9.4-1.7.7-3 2.2-3.5 4.6-1.3 6.8-5.4 12-9.6 17.3-3.3 4.1-6.5 8.2-9.8 12.3-14.5-7.2-39 9.3-53.7-3.6-10.5-8.5-23.7-14.2-31.9-25-2.4-3.2-7.8-5.3-11-1.4-3.5 4.2-6.6 8.5-9.4 13.1-2.4-3.3-4.6-6.7-6.3-10.4-3-6.3-4.4-13.3-7.2-19.7-2.8-6.6-7.3-11.8-12.6-16.5 3.1 1.2 6.3 1.9 9.7 1.5.8-4.3-1.1-8.6-1.1-12.5s.7-8.6 2.2-13h.4c8.2-.9 15.5 2.7 22.9 5.7 7.5 3.1 15.2 5.7 23 7.9h.3c3.1 1.4 6.2 2.8 9.2 4.3 3.1 1.5 19.5 11.1 22.8 8.3 0 0 6.3-42 10.6-39.4 6.2 3.6 12.5 39.2 13.5 40.7s47.5-19.8 53.7-23.9c8-5.3 14.2-12.3 17.8-21.2 9.8 12.6 12.6 27.4 10.5 43 2.3.2 4.4 0 6.6-.6-.5.9-.9 2-.9 3.3h.1Zm9.9-6.3c-.2 0-.5-.2-.7-.2.3-.2.7-.3 1-.5 0 .2-.2.5-.3.7" class="fill" data-original-prefix="fill"/><path id="shading-moutbit" fill="#aaaaaa" d="M1246.3 1591.4v-.2c-3-11.7 7.6-19.1 7.7-30.8 1.2-11.6-4.3-22.9-2.7-34.4.8-5.6 4.3-10.1 7.9-14 12.5-12.2.2-30-5.7-42.5-8.2-12.9-4.5 1.2-4.9 8.2-4 15.5-18.9 9.2-18.3 33.2-3.9 15.5-22.8-23.8-26.8-27.5-3.8-5-5.8-6.7-6.5-6.6-1.2.2 19.2 36.4 21.4 50.5 2.3 10.8 3.5 44.8-14.7 12.5-31.2 9.1-23.6-26.5-35.8-30.3-3.5 1.8 0 7.7.3 10.9 2.2 7.8 4.6 18.7 4.2 28.5 0 5-1.7 19.7-9.2 14.7-2.7-1.5-12.4-28.2-15.6-27-.8.3 11.8 44.7-4.7 56.6-18.3 9.9-23.1-27.9-38.1-25.6-5.5.3-10 4.6-15 6.5-14.7 3.9-12.2-30.4-19.5-37.7-2.8-3.6 7.4 64.5-9.4 47.4-3.7-6.3-4.9-15.6-7.5-22.4-.3-.5-.6-1.3-1.1-.9-2.4 8.2.7 26.8-4.1 34.4-20.7-24.8-32.3-125.4 2.7-136 17.4.5 31.9 50.1 31.6 48.4-3.2-25-10.2-44.2-13.3-48.5 15.2-2.3 32.9 4.3 44.9 13.1 6.2 4 24.6 31.3 21.4 24.9-4-8-10.8-28.3-13.8-32.3-3.7-6-4.3-11.1 1.5-16 17-12.1 31.9 40.5 37.3 41.4s-12.8-29.7-20.5-39.2c-2.9-3.3-8.8-8.9-.6-8.5 9.1-1.2 34.8 34.2 32.8 25.9-7.8-31.7 25.4-19.9 38.5-6.1 4.6 3.7 8.7 21.8 21.7 25.3-9.6-6.4-15.4-27.7-19.2-31.5-1.3-1.8-4.3-3.5-4-5.7 1.8-1.7 6.6-1.1 8.2-2.7 2.1-3.2-5.9-4.3-8.1-4.9-12.9-3.2-25.7-4.3-38.9-2.6-9.4-.6-20-4.1-29.3-4.3-1.1-.3-.5-.6.4-1.3 7.6-4.7-6.3-4.2-9.5-3.4-10.5 2.6-21.7 2.9-31.6 7.3-6.3 3.1-8.9 8-14.8 10.3-4.6 1.8-9.8 2-14.8 1.7-34.6-3.1-77.9 1.5-112.5 1.9-23.9 2.5-34.9-20.8-57.5-17.3-6.8 1.3-13.9-.8-20.8-1.5-14.7-.9-42.4 10.2-64.7 23.9-17.5 11.4-41.8 26.4-33.6 49.1 3.3 7.2 12.7 10.9 14 19.7 2.5 10.5-2.6 20.9-2.8 31.3-1.8 14.4 19.5 32.1 1.1 41.8-17.1 9.1 8.7 8 15.2 7.3 15.7-3.3 22.9 2.7 37.5 5.5 7.4.6 16.6-.7 22 5.5 7.3 8.1-1 25.4 1.1 32.2 16.6-27.5 29.6-12.6 31.9-9.9-5 10.2-5.2 28.2-.8 36.1 3.9-.9 19.2-42.2 20.9-23.6.5 13-6.4 28.9-3.7 42.2.5.8 4.1-13.6 5-18.1 4.4-22.7 9.3 2.1 33.2-1.3 24 3.5 23.5 56.4 21.8 73 9.3-30.5-1.9-36.5 9.4-49.6 6.6-5.1 17.2-.3 23.7 5.2 7.9 7 9.9 18.1 12.7 27.7 4.7 17 5.9-19.2 8.9-22.4 3.9-12.4 23.5-16.7 28.3-3.1 5.7 13.8-2.6 31.5 1.9 45 1.6 2.6 7.3-29.5 8.5-42.8.5-27.5 4.7-29.8 31-31.8 18.7-6.3 17.3-19.3 30.6 3.3.7 1.1 1 1.6 1 1.3-.5-3.1-2.7-8.8-4.8-14.3-1.9-4.5-4.3-10.7-7.9-13.3-.2 0-.4-.2-.6-.3 1.2-1.9 2.3-3.9 2.9-6.2 1.2-4.1 1.5-9.3 6.1-10.9 1.5-.5 3.1-.6 4.7-.6 6.8 2.2 13.8 14.1 18.3 24.8 1.4-15.6-2.6-26-5.2-31.6 5.7-4.7 14.7-10.7 22.5-5.5 7.1 8.6 14.5 43.2 12.7 30.9-1.3-11.4-3.7-24.4-.5-35.3 2-7.7 10.8-6.2 17.5-6.5 10-1.3 18.4-6.5 28.2-6.3-1 4.8-.8 10 .2 14.2.9 3.2 4.4 13.5-2.6 9.3-3.7-2.2-6.5-6.8-10.5-8.5-1.8-.6-2.2 5.3-3.3 7.2-2.9 5-6.7 10.7-5.5 17.5.6 17.1 2.2 35.8-4.1 51.8-1-6.9-9.7-28.4-13.1-33 4 14.6 3.9 38.2 1.9 48.1-2.6-1.7-7.2-8.9-9.5-11.3-4.2-3.9-8.5-9.5-14.4-10.1-3.8.3-4.1 7.4-6.4 14.9-2.9 8.9-6.7 19.4-12.3 26.8 1-20.8-.4-26.5-2.5-34.8-2.6 10.2-3.8 45.7-18.5 55 1.1-6.5 4.7-49.2-.7-62.3-3.8 39.1-.6 66.9-36.4 89.5-5.3 3.6-21.6 2.7-22.6 4.3-2.4 4.7-2.1 10.7-3.9 15.8-7.6 19.5-9.9-12.3-11.4-18.4-1.7-12-5.1-22-5.3-19.7-1.1 21.9-8.6 56.3-15 71.5-5.1 11-7.3 9.2-6.4-2.1.4-15.7 2.7-39.3-1.4-46.3-5.2 5 .4 77.4-11.1 43.8-1.9-5.4.2-16-6.6-17.2-9.9-3.9-1.4-42-7.9-49.1-3.4 14.7 1.6 55.6-7.5 52.8-3.6-2.4-6.9-10-9.9-14.2-5.9-8.5-10.5-17.9-14-27.7-4.2-9.9-11.1-18.8-14.8-28.8-3.1-5.7-7.5-23.4-9.6-30.9-1.1 5 0 15.3.6 21.7 1.3 8 3.2 15.9 5.1 23.8 8 27.6-7.7 6.9-18.3 0-17.4-5.6-15.4-36-15.4-36s-6.7 7.2-6.5 22.3c-2.7.5-6.2-4.7-7.7-8.5-8-14.7 6.2-34.6-1.3-48.8-1.5 5.9-4.2 20.6-6.2 23.3-5.1 18.6-7.4-20.4-15.2-19.5-12.8-1-4.2-23.3-4.2-32-10.6 18.7-18.6 31-21.6 51.7-2.8 0-5.7-6.1-6.8-9.3-6.5-17.1-5.8-40.5-5.7-58.9 0-3-.3-6.4-1.9-8.7-4.6-5.3-11.6-2.4-19-2.3-6.3.8-23.2-1.2-22.3 6.5 5.4 6.3 20.7 3.2 30.4 3.8 15.9-1.9-15.4 49.5 18.5 83.2 3.5 3.3 9.1 7.8 13.4 3.9 3.5-2.4 15.6-34.4 20.8-16.5 2.6 25.1 13.1 47.5 33 63.7 19.7 15 13.5-12.8 23.3-5.8 14 15.4 31.2 30.9 40.5 49.2 6.3 14.4 8.3 11.6 21.3 15.2 9.1 6.4 13.4 24.2 26.5 23.4 11.9-1.6 15.9-17.3 24.3-23.5 3.3-2 7.4-.9 10.9-1.9 5.8-1.8 8.1-8.3 10.7-13.4 7.9-16.2 22.9-28.7 34.6-42.7 2.5-2.5 6.8-9.1 10.3-5.6 3.9 6.2 5.3 14 14.4 8 17.7-12.2 34.1-36.1 36-58.8.8-7.3 1.5-19.8 9.8-11.3 6.7 6.1 7.6 18.6 16.3 20.3 28.5-8.8 28.9-50 23.6-76-3-10.8 1.4-12 11.1-11.3 6.8-.3 28 2.9 23.8-7.8-3.1-5.7-9.9-9.6-12.7-15.5-2.2-3.5-2.2-8.3-1.9-12.9 6 .3 26.5 1.8 24.6-2.9-3.5-3.2-12.5-6-14.2-12.4h.5Zm-320.3-9.1c-3.8 6.6-9.5 17.5-14.5 7-2.4-5.4-2.8-12.5-3.8-18.1-1-6.4-2.5-11-7.9-5.3-2.6 2.8-5.2 6.7-8 9-16.6 12.5-14.1-34.9-10-46.9 1.1-5.9 9.6-21.6 5.9-25.8-13.1-6.1-21.4 69.9-55.7 45.4-14.1-18 11.5-50.5 21.4-63.9 3.6-4.4 9.5-12.7-.5-4.7-10.6 8.6-18.4 20.6-27.2 30.8-7.2 8.4-11.6 3.5-8.5-6.7 2.4-8.3 8.5-16.9 12.3-24.4 6.4-14-24.5 12-30.9 5.7-7-13.6 71.7-46.8 83.4-45.4.3.8-.4 1.7-.8 2.4-1.8 2.8-5.5 7.8-7 11.8-1.4 3.5-.8 4.6 1.8 2.9 6.5-4.7 14.7-12.1 22.6-12.6 15.2-.4 2.6 16.6-1.3 23-1.3 2.3-9.1 13-7 13 10.5-6.5 22.6-29.5 31.8-26.5 9.6 4.4 3.9 19.2.9 27.2-1.2 4.1-8.6 19.6-5.7 21.9 3.3 0 8.1-8.6 10.2-11.3 1.9-2.8 3.8-5.4 6-8 7.3-8.7 16.4-16.1 26.9-20.2 8.8-3.4-11.6 34.5-10.6 38.3 10.5-21.3 22.1-30.8 26.5-37.1 2.3-3.1 6.2-3.3 6.8-1-3.9 7.1-9 25.1-16.4 67.2 13.2-34.5 24-61.8 26.2-64 2.6-2.9 8.1-4.7 9.8-.4 1.6 3.8.5 8.5.7 12.7 0 2.2-3.4 14.7-.8 11.2 1.9-2.6 6.6-14.8 7.6-18 .5-1.2.7-3 2-3.6 15.3 8.9 5.4 127.2-8.5 126.8-39.3 10.7-17.8-51.5-12.3-77.4.2-1.8.2-2.7-.6-1.8-1.5 2.1-4 8.4-5.7 13.1-2.3 6-4.4 11.5-6.3 17.6-3 9.4-4.9 21-10.2 28.2-4.7 6.1-8.9 1.8-8.9-4.8-.4-6 2.3-13.9 2.8-19.4.5-11.2-27.2 19.7-28.8 21.8-2.8 3.2-5.2 6.7-7.4 10.4h-.2Zm146.3 79.6c-9 13.8-20.2 20.4-36.8 21.2-14.3 2-29.6.8-42-5.9-12.4-5.4-17-25-27.9-31.6-11.2-3.9-19.8 38.1-30.3 12.5-6.9-18.8-13.9-56.2 13.4-54.3 14.2 2.6 28.8 11.8 42.3 13.2 18.4 3.4 18.3-18.2 31.2-20.8 4.5.5 5.8 5.3 7.2 9.2 11 43.8 60.2-23 78.6-19.3 13.6 6.6 4.1 32.7 13.7 43.4-.5 7.2-2.7 14.1-6.5 20.3-1.7 2.7-3.5 5.2-4.7 8.1-.3.6-.5 1.1-.7 1.7-.9 1.5-1.7 3-2.4 4.7 0 .4-.2.7-.2 1-.2.4-.4.8-.7 1.2-15.4 6.9-12.3-35.7-34.1-4.7h-.1Zm-206 40.7c0-.4.2-1.3.2-1.8s0-.2 0 0c0 .4 0 1.5-.3 1.8Z" class="outline shading" data-original-prefix="shading" opacity="0.5" style="opacity: 0.5"/><path id="outline-mouthbit3" fill="#000000" d="M1155.3 1597.4c-8.9 5-25.4 14.5-34.9 18.7-.2-4.9.9-9.6.5-14.5-.5-6.4-3.7-15.5-6.8-21.2-1-1.9-7.7-13.3-10.2-9.7-1.9 2.8-3 8.5-6.1 12.7-4.4 6.1-8.1 9-14.6 12.5 0 0-2.3-48.1-23.8-84.1-.2 6 18.9 32.1 12.8 86.8-7.3 3.3-26.7 14.1-32.8 18.9-11.7-12.5-15.6-52.6-17.3-52.5-1.8 0-7.4 32.6-16.6 48.2-8.8-3.6-19.9-6.9-27.2-9.1-4.7-27.7 15.8-93.7 16-99.2-3.4 2.3-26.1 72.5-26.3 96.6-6.8-2-18.2-4.8-24.6-8.8 0-9.9-2-25.5 10-50.9-10.7 12-17.6 29.9-24.2 74.4-6.8-3.5-18-4.5-25.1-7.9 1.2-1.2-10.1-22.3 5.6-58.1-1.8-1.1-8 10.7-12.4 23.9-1.8 4.9-3.2 9.9-4 15.4-.6 3.6-.9 6.9-.7 9.7-5.2-3.5-10-7.6-13.7-12.9-10.5-14.8-12.6-31.2-6.7-48.3-16.7 9.3-34.6 41-18.7 67.8 3.8 6.5 1.7 0 1.4-1.4-3.1-12.8-5.5-14-.7-27.8l4.8-8.7c-.4 20.4 22.6 31.7 34.1 42.8 1.6 4.2.4 3.6 1.8 6.2 11.2 4.2 27.3 8.5 27.3 8.8.2 0 4.1 7.1 6.8 16.2.9 5.9 1.1 14.5 3.8 19.7.6 1.2 5.6 7 9.7 11.4-.4.7-3.1 36.5 3.2 48.3-3.1-23 5.7-48.2 4.9-49 3.1-8.3 6.7-16.4 13.5-22.4 3.3 15.6 20.9 30 29.4 35.4-.7.8.5 54 10 68.3 0 0-13.1-43-2-67.9 2.2-7.4 11.7 9 22 6.4 1.9-.5 3.6-.3 5.5 0 7 1.3 14.9-16.7 17.5-7.3 2.9 9.3 1.1 55.2 1.1 55.2 5-15.3 6.4-53.2 5.9-54 10-5.4 30.5-22.9 30.6-36.4 8.4 7.3 10.7 17.2 14.9 26.6.3.6-.2 2.2 1.6 1.4.5-.3 9.5-11.5 13-15.4 8.9 8.5 16.8 30.6 15.1 46.1 7.2-27.1-10.5-54.2-10.8-54.8 2.4-8.7 5-21 5.8-25.3 1 .5 22.5-11.1 40.6-25.9-5.3-25.7-21.2-78.6-30-88.2 1.3 13.6 22.3 55.1 17.6 85.2zm-52.3 61.5-14.5-19c-3.5-2.2-5.9-5.7-10.5-5-1.6 15.9-11.9 28.5-24 38-2.1-6.5-21.2 4.8-27.1 5.9-10.8-.3-29.5-14.2-33.4-5.8-9.8-8-16.1-15.2-21-27-1.9-4.6-1.1-12.9-7.5-10.5s-15.8 17.6-19.5 23.5l-8.6-28.4c5 .6 1.4.2 6.7.7-3.1-6.9-1.6-13.7.2-21.4 13.1 5.3 58.8 17.4 72 20.8 3.2-.7 3-24.4 5.6-33.5.6-1 9.1 34.7 9.1 34.7 6-.9 25.2-8.3 43-17.1 14.3-7.1 27.7-15.2 32.6-21.5 0 0 6.9 21.8-5.1 41.6 5.4-.4 4.6-.6 9.6-2.1l-7.5 26.1Z" class="outline" data-original-prefix="outline"/><path id="outline-moutbit2" fill="#000000" d="M1175.5 1538.1c17.5 33.9-3.8 51.1-4.7 59.1 10.5-9.6 18.6-20.1 18.4-29.3 3-2.2 5.8 20.8 4.5 38 11.3-3.8 16-46.9-18.2-67.8" class="outline" data-original-prefix="outline"/><path id="outline-mouthbit1" fill="#000000" d="M1282 1608.4c-11.7-16.8-8.3-42.2-19.4-61.6-2.2-3.8-8.1-9-8.6-9.9-.9-1.6-.6-11.4-2.2-14.3 3.6-.2 7 10.1 8.5 10.5 5.2 1.2 11.6-23.3 12.1-28.4.8-8.2-9-32.1-43-65.3-22.2-4.9-77.2-6.6-78.1-6.7 0 0-.2-1.6-1.5-2.4-3.8-2.5-43.7 3.7-59.6 7.7-3.7 1.4-7.4 3.3-6.3 8.9-17.1-1.1-27.9-11.9-45-5.5-3.5 1.3-12.3 7.1-14.7 7.3-3 .3-17.1-9.4-24.8-9.8-6-.4-32.8 7.9-35.5 8-5 1.9-9.4 5.7-10.7 2-.7-2.1-13-9.3-15.6-10.3-15.9-5.8-19.2-11.7-32.9-10.3-3.4 1.4-6.7 3.1-8.8 5.3-3.3-1.8-17.9-7.9-21.3-6.3-70.3 33.2-117 56.8-96.1 95.5 1.1 1.8 7.3 11.5 9.5 10 1.3-3.4 3.7-6.8 5.8-9.7.3-.5 1.6-3.2 2.2-1.8-1.6 4-1.1 10.2-2.2 13.8-.4 1.2-6.3 7.4-8 10.1-12.3 20.1-8.4 51.1-23.8 66.2-.9.8-1.5.9-1.1 2.4 14.4 3 29.6 8.9 44 3-2.3 8.1-9.4 13.2-16.6 16.8-3.1 1.6-10.6 3.4-12.7 5.1-.8.7-1 1.6-.6 2.1.6.8 15.3 8.4 17.3 9.2 9 3.7 22.2 4.6 31.7 2.8-4.1 16.3-6.9 36-.5 52 7.9 19.8 29.8 28.5 42 45l2-3 5.5-27.6c3.1 20.5 16.9 51.5 34.1 63 5.8 3.8 13.2 6.4 18.4 10.6 2.9 2.4 9 11.5 10 12 1.8.9 1.6-1.4 1.8-2.2.4-1.5 1.6-5.2 1.7-6.3h-.4c.5-5.2-.4-11.2 0-16.5 20.1 18.8 38.3 42 38 71 .9 1 9.6-7.4 11.1-8.4 1.2-.8 8.2-5.2 8.9-4.6-1.1 5.9 25.3 33.3 27.4 32.9 8.7-10.7 22.7-19.6 26.7-32.9 1.8-1.6 15.2 10.5 17 11.5 1.3.6 1.9.7 2.6-.5.6-.9 2.7-17 4-21 3.5-11 10.3-21.7 17.5-30.5 4.8-5.8 11.6-12.2 17-17.5v17.5c0 .3 1.4 4.3 1.7 5.3.3.8 0 3.1 1.8 2.2s7.7-10.4 11-13c3.8-2.9 8.5-4.1 12.4-6.6 20-12.8 34.4-30.6 39.1-54.4l5.9 17.6c0 1.2.4 1.9 1.6 1.4.7-.3 8.4-9.6 10.5-11.5 9.1-8.5 19.7-14.6 26.8-25.2 12-18 8.8-40.4 4.2-60.3 18.2 4 33.7-3.3 49-12 .5-2.2-.3-1.6-1.3-2.2-2.8-1.8-7-2.4-10.1-3.9-7.7-3.7-16.4-8.9-18.6-17.8 4.5 1 8.6 3 13.4 3s29.5-4.9 30.6-6c1.2-1.1-3.6-3.8-4.8-5.6Zm-31.1-3.7h-.2c-6.3-1-12.2-5.6-18.1-7.7-7.1 9.2-7.9 23.8 0 32.9 4.2 4.9 10.8 6.8 15.4 11.1-14.7 4.1-28.6 1.6-43-2 1.7 11.1 6.9 21.3 7.9 32.6 2.1 24.4-4.2 43.8-23.4 59.3-2.9-7.2-4.6-13.4-9.1-19.9-2.5-3.5-11.6-14-14.9-16.1-1.2-.7-1.9-1.2-3.5-.9 1.3 7.5.8 16.8 0 24.4-2.8 22.6-13.3 38.2-29.9 53.1l-12 9.5c-.5-4.9.6-10.8 0-15.5-.3-1.8-2.8-8.8-3.8-10.3-.6-1 0-1.8-2.2-1.3-4.8 13.2-14.5 23.1-24.3 32.8-8.3-24.3-4.3-48.5-7.4-74.2-.8-6.4-1.3 80.4.8 80.8-10.1 10.3-19.3 21.1-22.1 36.2-1.3 1-5-1.3-8.4-3.4 1.2-14.6 1.5-29.2.8-43.9-.3-6.4-10.6 46.4-10.1 47.1-.7 2.2-1.3 4.5-1.8 5.6-1.6 3.2-15.3 20.4-17.9 19.9-4.8-4.9-11.4-10.2-15.1-16-3.3-5.2-4-10.8-7.1-15.9-1.8-.4-11.9 8-15.4 7-.2-2.9-1-6-1.9-8.9v-.9c-1.6-27.9-36.2-79.3-32.8-73.8 10.1 16.8 17 35.1 20.5 54.2-7.6-8.5-16.8-15.7-24.2-24.6-5.7-6.9-10.2-14.5-15-22-5.9 8.1-3.7 17.8-5.5 27l-24-22.5c-14.9-18.3-20-41.4-17-64.5-1.4-1.2-11.1 4.6-12.5 6.1-3.1 3.3-2.9 1.7-5.3 6 0-16.9 3-24.8 3.5-34.1-5.6 9.4-11.1 43.5-9.9 49.7-1.2 3.1-2.2 6.2-2.8 9.2-25.6-19-27.6-46-20.7-75.2 1.3-5.6 4.7-10.7 3.7-16.8-14 4-27.7 5.8-42 2 8-5.8 19.4-11.5 20.9-22.6.5-3.8-1.9-21.4-6.4-21.4s-7.7 4.3-9.8 5.2c-7.2 2.9-12.9 3.3-20.7 2.8 7.1-16 3.8-34.4 13-50l9.3 16.7c-1.1-7.7-.8-19.1 1.4-36.1 1.8-13.5 5-27 10-39.5-11.2 2.3-21.8 8-29.3 16.7-11.6-31 78.7-73.7 92.8-76.5l9.6 4.5c-.5 0-14.6 15.1-18.4 34.4 12.6-27.5 25.6-30.7 32.5-34.5 0 0 .9-.4.9-.5l33.1 15c0 3.4-23 41.5-24.3 60.5 24.6-54.5 39.3-55.1 40-56.6 11.9-1.1 31.3-6.4 41.4-5.4 6.4.6 11.8 4.1 18.9 9 7.4 15.1 5.6 86.3 7.4 98.8 3-6.9 1.2-79.3 9.6-98.4 7-5.5 11.5-6.7 19.7-9.7 4.4 0 25.2 3.8 38.5 5.2.5.9 20.4 6.3 47 42.1.7-.4-1-3.3-3.9-7.6-14.9-27.2-28.1-36.2-29.7-35.5-1.7-2.6-2.9-5.4-2.5-8.8l41-9.3c2.5 1.7 27.1 25.4 33.5 40.1 3-1.8-5.9-26.5-11.6-34.2 26.1-.7 58.4 5.8 57 6.6 14.3 13 45.3 41.6 39 61.1-8.2-8.3-18.4-14.5-30-17 3 8.3 6 16.1 7.7 24.8 2.9 14.9 6.1 37.2 1.7 54.1 1.5-2 2.9-4 4.2-6.2l7.6-13.9c8.7 15.7 6.6 33.4 12 50-4.1-.2-8.2.4-12.3-.2v.2Z" class="outline" data-original-prefix="outline"/>
    </g>
</svg>