<?xml version="1.0" encoding="UTF-8"?>
<svg xmlns="http://www.w3.org/2000/svg" viewBox="0 0 2048 2048">
<style>
  .outline { fill: #000000; }
  .fill { fill: #ffffff; }
  .shading { fill: #aaaaaa; opacity: 0.5; }
</style>




<g class="background"><path id="color-green" fill="#32992c" d="M2048 0v2048H0V0z" data-original-style="transition:fill .3s ease" style="fill: #32992c" class="color"/></g>
<g class="trait-group" data-category="jaw"><path id="fill-jaw" fill="#fff" d="m1382.8 1128.2 12.4 130.2 60.9 48.3-49.6 133.4c-1 1.4-2.4 1.1-3.9.9-13.9-1-32.8-8.5-47.4-10.7-1.8-.3-3.5-.4-5.2-.3 1.2 4.7-1.2 7.6-2.1 11.4-4.9 22.2-7.7 45-12.1 67.4l-57.2 29.3-1.4 1.6c-1.1 12 1.6 23.9.9 35.9-.3 5-1.3 14.9-2.3 19.7-.6 2.8-13.7 32.2-15 33.5s-16.1 8.9-16.7 8.3l-9.5-50-51 52c-7.7 5.7-20.7 9.3-27.5 15.5-14 12.7-24.7 36.5-41.4 47.6-5.5 3.6-58.7 25.2-65.4 26.6-2.4.5-46.7.7-49.3.2-6.2-1.1-59.9-22.7-65.6-26.3-14-8.8-29.1-36.3-42-48-6.7-6.1-19.9-9.6-27.5-15.4l-51-52-9.6 48.4c-.6.9-.9 1.7-2.2 1.5-.8 0-13.8-7.6-14.4-8.2-1.4-1.4-15.6-32.9-16-35.5l-.7-54.3-58.2-30.3-12.3-69.7c-16.4-1.1-33.5 3.9-49.5-1l-37.3-85.8c-.7-3.4 4-13 5.6-16.9 8-19 17.8-37.3 25.7-56.3 9.2-2.5 21.3 1.1 29.9-5.1 4-2.8-.2-18.8 0-23.9l-19-32.1-.3-2.2 27.6-63.5c1.4-9.9-3.2-21.4-1.1-31.1 1.3-6.2 9.7-21.7 13.2-27.9 54.6-98.4 184.4-157.8 290.2-180.8 48.2-10.5 90.3.5 136.5 15.4 98 31.8 198 94.6 250.7 185.3 3.2 5.5 3.8 13.3 10.7 14.8h-.7Z" class="fill" data-original-prefix="fill"/></g><g class="trait-group" data-category="jaw"><path id="fill-jaw1" fill="#fff" d="M1265.7 1351.3c9.2 7.7-4.5 25.9-12.2 15.7s2.9-23.4 12.2-15.7" class="fill" data-name="fill-jaw" data-original-prefix="fill"/></g><g class="trait-group" data-category="jaw"><path id="fill-jaw2" fill="#fff" d="M1314.6 1391.2c7.8-1.5 6.2 19.1-2.9 17.7-9.8-1.5-.6-17 2.9-17.7" class="fill" data-name="fill-jaw" data-original-prefix="fill"/></g><g class="trait-group" data-category="jaw"><path id="outline-shading-jaw" fill="#000" d="M1377.3 1124.7c2.2 2.7 13.8 4 14.5 10l8.4 112.6c17.4 18.9 36.8 35.9 56.4 52.6l1.5 3.6-51 135.8c-1 1.6-3.7 1.7-5.4 1.6-14.4-.9-32.2-8.4-47.3-8.9-1.8 0-3.2-.2-4.4 1.3l-14.4 75.6-59.4 30.1c.4 11 2.6 23.6 2 34.5-.3 5.7-1.3 15.4-2.1 20.9-.5 3.1-13.4 31.4-15.4 33.6-3 3.2-11.6 6.2-15.5 9l-12-46.4-2.4-.6-46.1 47.9c-7.8 6.2-20 9.3-27.5 15.5-14.2 11.7-24.4 36.1-41.5 47.5-6.8 4.6-52.9 25.2-60.4 26.6-9.5 1.7-52.8 1.8-62.3.2-7.6-1.3-48.1-19.8-56.6-24.4-16.2-8.6-30.7-38.5-45.1-49.9-7.1-5.7-18.8-9.3-26.5-14.5l-48-49-8.5 47c-1.4 1.2-18.5-6.9-20.5-9-1.7-1.8-15-30.8-15.4-33.6-.7-4.4-.9-13-1.1-17.9-.5-12.2.6-24.4.5-36.6-18.8-11.7-39.4-20.3-58.6-31.4l-13.1-67.4-46.4.9-36.3-91.7-.2-2.3c6.7.3 9.7 6.8 15.7 10.8 19.1 12.8 34.2 19.3 57.7 16.1 20.6-2.8 26.4-11.2 48-1.7 16.1 7.1 19.4 16.7 31.2 25.8 13.2 10.2 17.5 3.6 25.9-7.1 6.9-8.8 25.8-41.6 27.4-51.6 1.7-10.7-3.8-11.2-13-10-8.6 1.1-48.4 15.1-51 14.6-1.7-.4-12.3-7.9-16.5-9.6-20.3-8.4-48.8-11.8-67.2-20.8-14.3-6.9-12.2-21.7-18-34.5l21.5-4.1c1.9.3 10.9 13 13.5 15.6 13.7 13.8 58.3 32.8 77.6 33.5 3.4 0 6-1 8.9-1.1h20.5l-34.7-16.8c-19.1-10.8-48.2-33.1-61.8-50.2-6.2-7.7-7.1-18.3-10.5-27.5-6-16.6-14.4-32-25-46 1.3-9 6.5-19.6 7.8-28.2 2.8-19.1 3.8-27.8 12.1-45.9 49-107.6 188.2-173.2 298.2-196.8 27.9-6 50-5.8 77.9 0 118 24.3 244.7 92.5 307.8 198.2 1.9 3.1 5.2 12.6 6.5 14h-.4ZM1326 1307c15.3-11.2 31.9-21.8 44.5-36 6.1-22.7 14.6-45.7 13.5-69.6l-2.1-29.5c-1.4.2-1.9 1.8-2.5 2.9-16.8 30.8-29.1 66.4-47 97l-62.3 38.7.4 3.3c5.9 15.3 32.8 49 33.4 63.6.2 4.3-2.2 10.7-.7 15.7 1.1 3.6 11 9.8 15.2 9.4l62.4-18.5c8.3 1.2 16.7.9 25.1.6l36.7-78.8.3-3.3c-14.1-10.8-29-21.4-44.3-30.7l-2.8 11.8c-13.3 5.6-27.2 16.2-40.4 21.1-6.7 2.5-16.4 2.8-23.8 3.2-1.2 0-5.6.7-5.5-1Zm-248 20c-5.1-10.6-9.9-23.3-16.6-32.9-6.5-9.4-23.8-30.4-31.9-38.1-4.2-4-7-3.9-11.1 0-7.7 7.4-27 30.2-32.9 39.1s-10.5 22.1-15.6 31.9zm200.7 70.7c1.4-1.6 8.8-25.5 9.1-28.5.4-4.4-3.5-11.7-5.6-15.9-3.8-7.3-18.5-32.7-23.6-37.4-5.7-5.3-8-1-14 1.1-11.8 4-23.6 7.8-35.5 11.5-1.3 1.1-1.1 1 0 2 3 2.6 6.7 4.5 9.4 7.6 6.8 8.1 12.2 22 18.6 30.9l3.1-12.4c.8-3.8 7.7-7.4 10.8-5.4 1.2.8 3.6 11.4 7.9 12.7 6.1 1.8 8.2-5 11-5.7 4.2-1 10.3 3.7 10.1 8.1-.5 11.3-14.6 20.3-25.1 18.6-1.1-.2-10.1-4.8-8.7-1.3 3.1 2.8 14.4 21.8 16.7 22.4 2 .5 14.5-6.5 16-8.2h-.2Zm-550.4 99c1.6 2 8.2 6.3 10.7 7.8 14.8 8.8 31.7 13.8 46.9 23.1 16.8 10.2 40.2 33.1 59.6 33.5 2.3 0 8.7-1.2 9.4-3.7.8-2.7-13.5-27.5-16.4-30.3-7.3-7.2-27.5-17.2-37.2-23.8-15.2-10.3-50.3-39.1-67.9-39.2-10.5 0-8.7 28.1-5.1 32.7Zm591.4-30.4c-6.1-6-24 4-30.4 7.6-16.3 9.1-30.8 21.3-46.2 31.8-9.3 6.4-25.4 13.9-33.1 20.9-3.1 2.8-16.2 24.5-16.9 28.2-1.1 5.3 6.2 6.5 10.3 6.3 16.8-1 25.6-11.2 38.2-19.8 8.3-5.7 17.3-12.1 26-17 11.7-6.6 47.1-19.2 52.7-29.3 2.4-4.3 2.8-25.2-.7-28.6ZM1126 1664c-12-2.7-20.7 6.6-31.6 7.9-5.7.7-12.2-1.2-16.6-.7-7.1.8-22.9 12.1-31.2 14.9-14.8 4.9-30.2 4.7-45.1 0-8.8-2.8-23.9-14.1-31.2-14.9-4.4-.5-10.9 1.4-16.6.7-11-1.3-19.9-11-31.6-7.4 0 7 23.7 23.4 30 27 12.5 7.1 59.7 26.8 72.5 26.6s59.8-19.7 72.2-26.9c3-1.8 33.6-23.3 29.3-27.2z" class="outline" data-original-prefix="shading" opacity=".2"/></g><g class="trait-group" data-category="jaw"><path id="outline-jaw" fill="#000" d="M1378 1122c.3-3.9.6-9.1 5.7-9.8 7.8-1.2 8.7 12 9.3 17.3 3.8 33.8 2.1 69.1 8.3 102.7 2.2 11.9 3.2 13.8 12.3 21.7 14.8 13 33.2 22.8 47.5 36.5 2.6 2.5 11.8 12.2 12 15.1l-66.1 156.3-46.9-24.9c-1.8 6.1-5.4 12.6-6.7 18.8-4.1 19.2 0 41.1-2.2 59.8-.4 3.4-10.5 17.5-13.3 18.7-6.4 3-16.2-1.8-24.7 3.3-23.8 14.4-17.9 48.6-27.2 68.8-7.8 17-37 48.2-52.9 58.1-1.6 1-2.9 1.9-4.9 1.6 1.1-14.8 3.1-34.9-3.9-48.6-.4-.8-.4-3.2-2.1-1.4-.7.7-3.6 13.8-6.6 17.9-5.8 7.9-20.7 8.9-29.4 12.6-16.7 7-14.3 32.7-27.7 43.3-19.3 15.2-61.2 32-85.1 38.9-10.8 3.1-38.9 11.3-48.7 11.3-15 0-63.4-15.1-78.8-21.2-11.1-4.4-55.3-26-60.6-34.4-6.9-11.1-8.5-31.6-21.5-37.6-14.5-6.6-26.4-2.4-33.9-20.1-1.1-2.5-2.5-10.3-2.8-10.7-1.3-1.6-1.8.4-2.2 1.3-6.9 12.5-5 34.9-3.8 48.7-2 .3-3.3-.6-4.9-1.6-15.7-9.8-48.9-44.4-54.2-61.8-6.2-20.6-5.3-52.1-25.9-65.1-8.2-5.2-18.3-.3-24.7-3.3-.9-.4-12.2-14.2-12.7-15.3-2.1-5.2-.2-29.6-.5-37.4-.4-9.1-2-18.5-3-27.5-4 1.6-7.6 4.7-11.9 5.6-2.8.6-5.6.7-8.5.3-4.7-.6-27.4-9.9-32.6-12.4-1.3-.7-2.7-1.2-3.5-2.5-2-33.7-22.2-63.7-44-88-2-4.4 2.1-14.5 3.7-19.2 6.2-17.8 15.6-36.4 25.7-52.3 3.2-5.1 14.2-22 17.9-25.1 5.5-4.4 9.8 3.3 14.6 6.6 1.6 1.1 12.7 7.8 13.5 7-2.9-7.2-9.4-11-13.8-17.7-4-6-15.9-26.4-15.8-32.6s5.4-17.7 6.5-25.3c.5-3 1.1-8.8 1.2-11.8.2-6.5-3-17.5 1.3-22.2 1.2-1.4 12.8-6.5 14.1-6.2.9.2 5 11.2 10.5 7.8 2.3-1.4 1-34.7 0-39.9.3-.3 7.6 1.8 8 2 1.8 1.1 7 8.1 9.8 9.7.5 8.4 3.4 20.7 1.1 28.7-2.8 10.1-17.5 14.8-21.2 22.8-1.2 2.6-6.4 25.9-6.7 29.3 0 1.2-.2 2.4.2 3.7 4.8 10.3 13.7 19.4 18.7 29.3s9 33.8 15.5 40c5.3 5.1 14.5 7.1 21 10.5 7.5 4.1 15.7 10.7 22.7 15.8-11.3-1.3-47.2-5.2-54.5-13-3.3-3.6-5.7-15.7-9.6-17.4-2.6-1.2-6.2-.2-9.2-.8-7-1.2-10.7-7.9-18.5-1.5-6.6 12.5-14.3 24.3-20.4 37.1-7.4 15.4-14.8 25.1-4.8 41.2 5.3 8.6 23.3 26.7 25.6 34.4 2.5 8.6-2.7 28 2.9 34.1 6 6.6 20.6 4.5 27.8.8 10.6-5.4 8.7-9.9 14.3-18.7 5.2-8.2 19.7-23.1 28.9-26.2s13.4 8.6 15.6 15.5c7.3 23.8-.2 34 22.5 51.5 11.6 8.9 33.3 20.1 47.8 17.9 8.5-1.2 21.1-6.6 27.2-12.8 7.2-7.5 8.8-24.6 24-14 15.8 11 30.3 30.1 46.6 41.4 20.5 14.3 77.5 32.5 102.5 34.6 37 3 105.5-17.1 134.5-40.5 11.5-9.3 21.6-20.6 33-30 4-3.3 11.6-11.3 17-8 .7.5 7.5 12.5 9.2 14.8 3.3 4.7 11.5 16.1 17.4 16.7 7.4.8 31.3-15.5 40.2-17.2 8.1-21.2 17.3-42.1 23.5-64 2.8-9.9 8.4-24.8 3.8-34.3-2.1-4.2-21.3-33.6-24-36-3-2.7-9.6-5-13.5-6.5-3.3-1.2-19.8-5.2-20.5-6-1.5-1.4.4-1.7 1.3-2.2 1.3-.7 11.6-5.7 12.3-5.8 2.6-.4 25.4 6.8 27.4 8.5s8.6 15.3 11 19c5 7.6 19.5 25.4 20.8 33.2.4 2.5.5 4.9-.2 7.3l-26.5 74.9c22.1-8.1 42.1-21.6 63.6-30.8 4.1-1.8 12.4-6.1 16.3-4.6 4.7 1.7 16.6 11.3 22.4 14.6 2.4 1.4 18.7 10.5 19.7 9.8l48.1-125.5c-.2-2.1-12.6-9.7-15.4-11.7-13.3-9.9-23-17.3-37.4-25.6-7.1-4.1-7.5-7.8-8.3-15.7-2.2-22.8-2.4-46.1-4-69-1.5-20.8-6.3-45.1-5-65.5h-.7Zm-649 280c-5.9.4-11.3 6.2-14.4 11.1-12.8 20.4-.6 26.3 1.3 45.5 1.3 13.2-3.2 33.5 4.7 44.3 5.3 7.3 21.6 10.7 30.1 14.9 3.6 1.8 23 13.2 24.8 15.2.4.4 3.3 5.3 3.3 5.6 0 .8-3.5 12.2-3.8 15.8-1.9 24 4.5 52.9 21 71l5 4.5c.9-4.6-1.1-9.2-1.1-13.5 0-12.5 8.2-24.3 10.1-36.5 23.5 5.4 36.4 28.6 51.4 45 11.3 12.4 23.8 14.5 34.1 23.9 6.5 5.9 11.9 15.9 17.5 22.5 14.6 17.4 20.2 23.3 41.3 32.7 29 13 50.6 21 83.2 18.9 16.8-1.1 61.8-19.2 76.4-28.6 16-10.4 26.2-34.2 40.1-45.9 10.6-9 21.7-10.9 32.5-22.5 15.6-16.6 28.5-40.5 52.5-46 .8 9.9 6.9 18.2 8.7 27.8 1.5 7.6.3 13.6.3 21.2 7.8-5.3 15.2-16.8 18.8-25.6 5.4-12.9 8.1-33.2 7.2-46.9-.2-3.4-3.8-17.5-3.5-18.4.6-1.7 3.6-5.7 5.2-6.9 4.5-3.4 17.3-10.6 22.7-13.3 11.7-5.9 31.5-8 33.6-23.4s-.7-31.7 3.8-48.2c1-3.6 5.3-8-1.4-5.4-30.7 11.8-63.4 35.5-93.6 46.4-10.1 3.6-23.8 2.7-32.8 7.2-6.8 3.5-11.5 12.3-16.4 17.6-16.2 17.4-41.8 25.6-65 28-69.4 7-135.6 6.9-205 0-21.7-2.1-46-9.9-62.5-24.5-5.9-5.2-10.7-15.4-19.3-15.2-3.9 0-8.2 3.3-11.2 3.7-5.5.6-22.8-12.9-28.7-16.2-15-8.4-31.4-14.8-46-24-2.8-1.8-16.7-11.4-17.8-13.2-2.8-4.9.2-12 0-17.1 0-10.4-4.3-21.6-7.1-31.5" class="outline" data-original-prefix="outline"/></g><g class="trait-group" data-category="jaw"><path id="outline-jaw1" fill="#000" d="M1253.7 1342.2c12.9-2.4 29.1 10.8 24 24-3.6 9.3-14.2 17-24.2 12.8-15.8-6.5-17-33.6.3-36.8zm12 9.1c-9.3-7.8-20.1 5.1-12.2 15.7s21.4-8 12.2-15.7" class="outline" data-name="outline-jaw" data-original-prefix="outline"/></g><g class="trait-group" data-category="jaw"><path id="outline-jaw2" fill="#000" d="M1313.7 1382.2c20.2-4.4 22.1 39.9-4.2 35.7-17.9-2.8-9.8-32.7 4.2-35.7m.9 9c-3.6.7-12.7 16.2-2.9 17.7 9.1 1.4 10.8-19.2 2.9-17.7" class="outline" data-name="outline-jaw" data-original-prefix="outline"/></g>
<g class="trait-group" data-category="mouth"><path id="fill-muzzle-1" fill="#fff" d="M1038 1292s-.4 1.7.7 2c10.3 2.8 18 4.3 25.8 13 1.9 2.2 4.9 8.8 6.5 9.5 2.6 1.2 6.6 0 9.5.5 11.4 1.5 21.2 3.7 31.2 9.8 2.1 1.3 9.2 7.8 10.2 7.1.3-.3 0-1.7 0-1.9 2.4-1.8 32.7.6 38 1 5.2 4.2 13.2 5.5 19.2 8.3 13.7 6.4 22.5 16.1 29.9 29.1 8.4 14.6 7.7 17.8 3.1 33.4-2.5 8.5-4.8 21.8-16.3 20.2 1.5-15.5-14.8-32.4-26.5-41-3.2-2.4-11.3-7.2-6 0 10.7 14.6 20.5 15 21.5 37.5.5 10.4-8.3 32.8-15.4 40.5-.6.7-7.1 6.3-7.6 6.5-3 1.6-6.8-6.1-7.8-8.2-3.7-7.7-4.8-15.6-9.7-23.3-1.1-1.7-10.8-13.7-12.4-12.1 5.6 13 9 46.2-2.5 56-4.4 3.7-9.4 1.9-13.3 3.7-2.8 1.3-3.1 5.8-4.8 6.2-.9.2-7.2-3.2-9.4-3.5-9.3-1.3-13.1 17-18.7 17.4-2.5.2-10.7-11.9-18.4-9.4-6.8 2.2-15.3 20.6-23.6 23.5-7.3-4.5-4.2-14-6.6-21.1-1.2-3.5-4.2-6.7-5.8-10.2-5.4-12.7-2.8-19.9-.2-32.2.7-3.3-.2-6.3 1.2-9.8.4-1 6-11.5 6.6-12.4 3.7-5.4 19.2-12.4 22.7-3.8.9 2.2 0 8.7 2.2 7.7 5.1-4.9 10.2-9.9 15.5-14.5 10.2-8.9 12.8-8.2 19.5-21.5 1.9-3.8 8.1-17.3 8.2-20.7.2-6.3-17.9-22.6-21-29-3.6-2.9-22.1-2.8-27.2-2.3-14.1 1.5-18 12.2-27.5 19.5-1 .8-1.3 1.9-3 1.5l.8-12.7c7.6-8.2 14.9-16.6 21.1-26 .7-3.3-8.6-12.4-11.3-13.2-3.6-1 .5 5.5.5 6.6.4 5.2-5.9 4.1-9.3 5.6-1.2.5-3 2.7-3.2 2.7s-2-2.2-3.2-2.7c-8-3.5-11.7.6-7.3-12.2-1.6-1.7-12.5 9.1-12.9 11.7-.2 1.6 3.6 7.8 4.8 9.5 1.5 2 5 5.9 7 8.3 3.2 3.9 9.7 7.7 9.9 13.1 0 1.6-.8 3.1-.8 4.8s2.6 8.1-2.5 3.6c-6.2-5.3-10.1-13.6-18.5-17.5-6.8-3.1-28.3-4.1-34.7-.8-.8.4-9.9 11.1-11.2 12.8-2.4 3-10.9 13.7-10.8 16.8.2 5.1 11.2 27.9 14.7 32.2 2.8 3.4 10.2 7.7 14 11 5 4.3 9.7 9.1 14.5 13.5 2.2.9 1.5-5.2 2-7 2.4-9.9 19.2-2.4 23 3.1.7.9 6.6 13.1 6.9 14.1 2.9 11 5.6 26.6 1.9 37.5-1.7 4.9-6.8 10.4-7.8 15.2-1.4 6.6 1 13.6-5 19-5.3 1.2-18.8-21.7-24.4-23.5-8.2-2.6-15.9 9.6-18.4 9.4-5.3-.4-8.7-14-13.9-16.1-6.9-2.8-11.5 2.7-14.1 2.1-1.8-.4-2-4.8-4.8-6.1-4.5-2-9.6.3-14.3-4.7-10.9-11.5-6.5-42.2-1.5-56.1-9.1 6.7-14.1 14.8-18.5 25-1.6 3.6-2 7.5-3.7 11.3-1 2.1-4.9 9.8-7.8 8.2-.4-.2-6.9-5.8-7.5-6.5-4-4.2-13.8-24.3-15-30-2.8-12.9 1.4-26.5 9.5-36.5 4.1-5.1 11.3-9 13-15.5-2.4-2.4-22.3 17.4-24.4 20.1-5.4 6.8-11 15.9-9.6 24.9-4.7.2-8.1-.7-10.8-4.7-1.8-2.7-8.8-24.3-9.2-27.8-1.1-10.9 10.9-28.8 18-37 10.5-12.2 24.5-14.2 38-21.5 12.5-.8 24.5-2.3 37-1 0 0 .7 2.1.5 3 9.5-8.2 20.6-14.8 33.1-16.9 4.7-.8 14.8-.4 18.1-1.8 1.6-.7 5.2-7.7 7.2-9.9 8-8.4 15.2-9.7 25.4-12.5 1.1-.3.6-1.9.7-2 1.1-.7 25.9-.7 27 0Z" class="fill" data-original-prefix="fill"/></g><g class="trait-group" data-category="mouth"><path id="fill-teeth16" fill="#fff" d="M995.3 1525.7c11 9.5 17.2-6.6 23.2 6.3 6.5 14.1 3.7 38.4-1 52.9-.7 2.1-7.1 16.9-8 17.1-1.2.3-3-.4-4.2-.9-12-5.1-31.7-18.1-39.1-28.9-10.6-15.5-6.4-42.9 6.8-55.8 1.3-1.3 9.1-5.6 10.4-5.3 1.5.3 9.4 12.3 12 14.5h-.1Z" class="fill" data-original-prefix="fill"/></g><g class="trait-group" data-category="mouth"><path id="fill-teeth15" fill="#fff" d="M1039.1 1601.9c-.8-.5-7.5-16.1-8.1-18.4-4.1-13.8-6.5-36.9-1.3-50.3 4.6-12 8.1-4.3 15.8-4.2 9.5.2 17.3-18.2 20.8-17.9 1.2 0 8.5 4.2 9.7 5.3 6.3 6.2 12.2 22.3 13 31 2.4 28-20.3 39.6-41.3 50.7-2 1.1-5.7 5.5-8.6 3.7Z" class="fill" data-original-prefix="fill"/></g><g class="trait-group" data-category="mouth"><path id="fill-teeth14" fill="#fff" d="M904 1461c0 2.2-1.1 3.8-.8 6.2.2 1.8 7.1 22 8 23.1 3.9 5.1 11.2 3.2 16.7 3.8 4.9 13.5-4.2 23.8-8.6 35.6-2 5.3-8.7 33.1-12.8 34.2-1.8.5-6.8-9.1-8.3-10.7-10.3-23.9-15.3-58.4-2.6-82.2.6-1.2 7.1-11.6 8.4-10.1Z" class="fill" data-original-prefix="fill"/></g><g class="trait-group" data-category="mouth"><path id="fill-teeth13" fill="#fff" d="M1144 1564c-2.1 1.4-6.1-7.1-6.8-8.7-3.2-7.9-4.4-17.4-7.5-25.5-4.3-11.6-13.6-22-8.6-35.6 4.8-.6 12.3 1.2 15.9-2.9 1.3-1.5 8.1-20.6 8.6-23.2.3-1.8-1.4-7 .9-6 6 2.7 13.7 26 14.4 32.6 1.4 13.9-2.9 45-9.3 57.4-.8 1.5-7 11.6-7.6 11.9" class="fill" data-original-prefix="fill"/></g><g class="trait-group" data-category="mouth"><path id="fill-teeth12" fill="#fff" d="M1093.1 1644.9c-2.9-1.8-2.4-28.5-2.1-33.4.7-10.5 5.2-31.2 8.9-41.1 1.1-2.8 2.4-1.4 4.2 0 12.2 9.6 21.1 44.8 12.8 57.9-1.9 3-15.6 14.9-18.9 16.1-1.3.5-3.8 1.1-4.8.4Z" class="fill" data-original-prefix="fill"/></g><g class="trait-group" data-category="mouth"><path id="fill-teeth11" fill="#fff" d="M949 1569c5.5 22 11.1 44.4 9 67.5-.5 5.2-.9 10.3-7 8-3.4-1.3-17.5-13.4-19.5-16.5-5.8-9.2-1.4-31.3 2.7-41.2 1.2-2.9 11.3-21 14.8-17.7Z" class="fill" data-original-prefix="fill"/></g><g class="trait-group" data-category="mouth"><path id="fill-teeth10" fill="#fff" d="M881.7 1478.3c3.1 2.8-2.7 21-2.8 26.2 0 5.9 2.6 12.4 3.1 18 .2 2.1.7 24.5-.5 24.5-1.5.2-2.1-1.1-2.9-2.1-15.6-18.9-34.8-51.8-17.4-75.3 6.5-8.8 10.5 2.1 14.9 5.8 1.8 1.5 4.9 2.1 5.7 2.8Z" class="fill" data-original-prefix="fill"/></g><g class="trait-group" data-category="mouth"><path id="fill-teeth9" fill="#fff" d="M1185.7 1467.3c1.9 1.6 7.8 13.7 8.2 16.2 3.2 20.7-9.8 47.3-23.9 61.9-.9 1-1.3 1.9-3 1.5.5-8-.7-16.6 0-24.5.4-5.4 3.1-12.3 3.1-18s-6.1-23.4-2.8-26.2c.6-.6 2.5-.6 3.8-1.7 3.4-3 10-13.1 14.7-9.3Z" class="fill" data-original-prefix="fill"/></g><g class="trait-group" data-category="mouth"><path id="fill-teeth8" fill="#fff" d="M1018 1613v16.5c0 .9-10.8 13.2-11.9 14.1-6.3 4.8-8-2.6-10.6-5.5-5.5-6-17.9-.4-24.4-5.6-1.2-.9-4.1-8.8-4.1-9.9v-22.5c12.9 1.7 28.3 17.5 41.4 15.9 3.5-.4 6.1-3 9.6-2.9Z" class="fill" data-original-prefix="fill"/></g><g class="trait-group" data-category="mouth"><path id="fill-teeth7" fill="#fff" d="M1031 1613c6.3 1.3 9.1 4 16.1 2.6 10.6-2.2 24.3-14.8 33.4-15.6 2-.2 1.4 0 1.2 1.3-.8 6.5 2.4 27.5-4.4 31.6-7 4.2-18.8-.3-23.4 4.6-2.1 2.2-3.6 8-8.4 7.6-1 0-14.6-13.5-14.6-14.6V1613z" class="fill" data-original-prefix="fill"/></g><g class="trait-group" data-category="mouth"><path id="fill-teeth6" fill="#fff" d="M1102.5 1494c3.3-.8 4.5 6.9 5.3 8.7 5.6 12.1 13 24.8 13.3 38.8.2 9-16 29.8-21.3 16.2-4-10.4-4.1-44.8-1.1-55.5.4-1.6 2.4-7.9 3.8-8.2" class="fill" data-original-prefix="fill"/></g><g class="trait-group" data-category="mouth"><path id="fill-teeth5" fill="#fff" d="M937.3 1559.7c-1.9-1.6-7.8-10.5-8.5-13-3.6-12.1 6-31.3 11.4-42 1.6-3.1 3.3-14.7 8-7.4 5.5 8.5 4.3 41.5 2.7 52.1-1.2 7.7-3.6 18.7-13.6 10.3" class="fill" data-original-prefix="fill"/></g><g class="trait-group" data-category="mouth"><path id="fill-teeth4" fill="#fff" d="M917 1563c-1.8 13.4 2.9 27.5 2 40.5-.6 9-4.4 18.4-5.5 27.5-6.2-6-10.5-16.1-11.4-24.6-.5-5.2.7-24.7 2.4-29.3.6-1.6 10.5-16.2 12.4-14.1Z" class="fill" data-original-prefix="fill"/></g><g class="trait-group" data-category="mouth"><path id="fill-teeth3" fill="#fff" d="M1135 1631c-.4-8.9-4.4-17.8-5.1-26.5-1-13.8 3.7-27.6 2-41.5 2.2-2.4 11.9 13 12.5 15 2 6.6 2.6 27.4 1.2 34.3-1.3 6.3-5.5 14.9-10.8 18.7z" class="fill" data-original-prefix="fill"/></g><g class="trait-group" data-category="mouth"><path id="fill-teeth2" fill="#fff" d="M1154.1 1604.9c-3.4-2-5.1-22.3-3.9-26.2.8-2.6 8.9-5.2 10.2-8.8l5.1-10.9c3.8 3.4 5.1 7.2 4.3 12.2-.7 4.2-5.4 22.7-6.9 26.2-.9 2.2-6.1 9-8.8 7.5" class="fill" data-original-prefix="fill"/></g><g class="trait-group" data-category="mouth"><path id="fill-teeth1" fill="#fff" d="M885 1559c-.3 3.7 1.7 9.4 4 12.2s9.5 5.2 10 8.3c-2 8.4 1.6 19.2-5.7 25.4-3.6-1.1-6-4-7.4-7.4s-6.5-23.6-6.9-27.1c-.5-4.2 1.2-10.6 5.9-11.4z" class="fill" data-original-prefix="fill"/></g><g class="trait-group" data-category="mouth"><path id="outline-shading-mouth2" fill="#000" d="M918 1443.5c.8 5.3 5.6 13.8 10.1 16.9 11.5 8.3 16.2-.3 22.4-9.4 2.5 5.4 3.4 11.5 6 17 1.4 2.8 5.7 12 7.5 5.5l4-11.5c1.6 7.5 6.3 15.4 11.5 21 4.3 4.7 18.8 15.4 24.6 9.6 2-2.1 8.3-17.9 10.8-22.2 1.2-2.2 7.8-13.8 9.7-13.3 1 .2 8.5 13.2 9.7 15.3 2.4 4.5 7.3 17.7 9.8 20.2 3.8 3.8 10.5.4 14.4-1.8 10.5-5.9 18.5-17.2 21.7-28.8l4.2 12.3c.3 1.2 1.9 2.4 2.8 1.7.6-.4 5.8-11.3 6.5-13 .8-2 2.8-12 4-12 6.8 10.7 12.9 18.4 24.5 7.5 8.6-8 9.3-23.8 7-34.5 3.5-3.1 21.1 16.1 26.6 16.9 9.1 1.4 17.6-11.8 19-19.9 3.5-20.5-12.9-39.2-30.9-46.2l-12.7-4.8c15.4 0 28.2 2.9 41.1 11.4 4.8 3.1 12.2 10.9 17.6 11.4 6.2.6 10.1-4.1 10-10-.4-19.3-25.8-38.1-39.7-48.8 15.4 2.4 34.6 11.8 45 23.5 7.8 8.8 19.1 25.1 19.1 37s-6.4 28.5-9.2 32.8c-3.3 5.3-11.7 5.4-13.4 10.6-.9 8.1-2.1 16.4-2.5 24.5-1.5 29 1.4 45.2-10.8 73.2-3.6 8.2-12.7 20.4-14.9 27.1-4.2 12.8-.7 26.4-9.1 38.9-3.2 4.8-8.4 6.7-11.2 10.8-1.7 2.5-2.4 6.1-4.2 8.8-4.5 6.7-14.6 23-21.6 8.9-1.6-3.3-1.3-12.9-6.7-6.2-1.4 1.7-1.9 4.4-3.5 6.5-3.7 4.7-17.7 19.6-23.5 19.5-2.2 0-4.5-4.1-6.6-5.4-7.9-5-21.1-6.3-29.2-1.4-7.3 4.4-9.5 13.6-18.1 6.8s-6.4-10.8-20.1-9c-5.6.7-11.4 12.6-16.9 12.1-2.8-.2-11.4-11.1-18.5-12.6-6.3-1.3-17.5.7-23 4.2-2.6 1.7-4.1 5.6-7.5 5.4-5.7-.3-19.8-15.8-23.6-20.5-1.2-1.5-4.4-10.6-7.1-6.9-2.5 3.4-.6 9.9-7.2 12.7-7 3-14.9-11.2-18.1-16.4-1.2-1.8-1.2-4.3-2.6-6.4-2-3-6.8-5.4-9.5-8.5-10.4-11.9-6.7-27.7-10.7-41.3-.8-2.6-5.6-8.5-7.3-11.7-18.4-35.7-16.4-45.6-18.4-84.6-.4-7.7-.6-20.7-2.2-27.8-1.5-6.2-11.1-6.1-14.2-11.8-3.4-6.1-9.3-29.6-8.6-36.4 1.2-10.3 16.2-31.2 24-38 10.5-9.2 26.2-16.5 40-18.5l-21.5 17c-7.2 6.4-26.8 32-14.8 39.9 9 5.9 16.7-4.5 23.7-9.1 12.7-8.4 25.3-11.8 40.7-11.8l-17.3 7.2c-18 9.4-33.1 32.7-22.1 52.8 1.7 3.1 8.6 10.4 12 11.1 9.1 1.7 20.7-15.4 29.5-18 .6 6.4-.9 14.3 0 20.5zm-37.1 40.6c-12.3-.5-17.1-20.2-22.8 1.5-3.4 13 1.2 26.4 9.4 36.5 1.5 1.8 12.7 13.1 13.9 12.9.8 0 2.5-2.3 2.8-3.2 2.9-7.1-3.2-12.2-4.2-19.2-1.5-9.8 0-18.7.9-28.4Zm301.8-8.9c-3.2.8-6.3 6-8.8 7.3-2.1 1.1-7.2 1-7.8 3.2-.5 1.7 3 10.8 2.9 14.8 0 3-1.5 13.9-2.2 16.8-.9 3.6-3.9 5.7-3.9 10.2s1.4 7.1 3.7 7.4c1.9.3 15-14.4 16.8-17 5.7-8.5 9-18.8 7.3-29.2-.5-3-4.4-14.5-8-13.6Zm-284.8 10c-4-2.3-6.5 9.9-6.8 12.5-1.2 10.5 3 38 8.7 47.1 1.9 3 5.4 6.9 9.2 7.3 3.7-15.6 12.6-29.2 21-42.5-2.3-.4-1.7-2.9-2.7-3.5-1.5-.9-7-1.9-9.7-3.1-4.7-2.2-12-7.7-15.6-11.4-1.2-1.2-3.8-6.2-4.2-6.3ZM1139 1552c8.3-2 11.9-12.2 13.9-19.6 3.1-12.1 6.1-33.4 1.1-44.8-3-6.9-5.8 1.7-8.3 4.1-3.9 3.8-11 9.3-16 11.6-2.5 1.1-7.8 1.8-9.1 2.7-.7.5-.5 1.8-1 2.7-.3.4-1.7.4-1.6.9 0 1 7.9 12.3 9.2 14.8 4.8 8.8 9.1 18 11.8 27.7Zm-197.7 5.7c8.1 8.1 9.5 0 10.5-7.3.8-5.6 2.7-20.6 1.7-25.4-3.6-17.2-21.3-15.9-21.6 3.6 0 6.8 4.6 24.3 9.4 29.2Zm161.5-44.5c-5 1.3-8.5 9.3-8.8 14.2-.2 4 2.4 28.5 3.8 31.3 2.5 5 7.5 0 9.8-2.7 6.8-8.3 11.6-30.7 4.5-39.5-2.7-3.3-4.8-4.4-9.2-3.3zM1023 1544c-.7-.7-.8-7-5.1-9.4-8.9-5-21.8-.8-32-4-10.4-3.3-9.4-13.1-16.1 1.8-2.9 6.4-9.1 24.4-6.3 30.7 1.1 2.4 17.8 15.6 21.2 17.8s18.2 11.7 21.1 10c3.1-5.6 9.3-9.5 12.6-14.9 1.8-2.8 4.1-11.5 4.6-11.9 1.6-1.7 1.7.5 2.1 1.4 1.6 3.6 2.1 6.8 4.5 10.5 3.3 5.2 9.2 9.3 12.4 14.6 3.1 1.9 15.5-5.9 18.9-8.1 4.5-2.9 22.9-17 23.9-21.1 2.2-9.7-6.6-28.3-10.9-37.2-4.9 1-7.8 5.2-12.7 6.7-9.2 2.8-28.2-1.6-33.7 6.3-.9 1.2-2.6 8.9-4.5 7zm-136 18c-.7-.6-3.5 0-4.5.9-6 6.2 2.4 31.6 14.6 27.6 4-1.3 3.8-9.4 2.8-12.9-1.1-3.9-7.2-4.1-9.8-7.2-2.1-2.5-2.7-8.2-3-8.5Zm274.1 0c-.3.3-.9 6-3 8.5-2.6 3.1-8.7 3.3-9.8 7.2-1 3.4-1.2 11.6 2.8 12.9 13.4 4.4 20.2-24.5 14.1-28.1-.9-.5-3.5-.9-4-.4Zm-216.4 7.2c-1.5.4-5.1 4.6-6 6.1-3.4 5.6-5.6 32.3-4.8 39.3 1.3 10.9 15.2 18 19.5 3.5 1.7-5.6 2.6-21.4 2.5-27.6 0-1.1-5.8-19.7-6.5-20.5-1.2-1.4-3.2-1.3-4.8-.8Zm153.3-.1c.2 6.6-5.4 14.7-6 20.6-.5 4.5 1 25.3 2.4 29.4 4.2 12.1 16.9 7.3 19.1-2.9 1.1-5.2 0-16.8-.6-22.6-1-9.7-1.7-25.5-14.9-24.5m-180 1.9c-20.5 3.8-17 28.7-9 43 4 2.9 10.4-17 10.7-19.8.9-7.5-2.9-15.5-1.8-23.2Zm218 43c2.5 1.8 7.2-9.1 7.7-10.8 3.9-12.8 1.6-30.1-13.7-32.2.5 7.4-2.8 16.2-1.9 23.4.3 2.7 6.4 18.5 7.9 19.6m-148.2 10.2c1.4.8 4.8 8.6 9.5 11 11.1 5.8 20.2-6.4 20.7-16.7.8-13.7-7.2-7.7-16.5-8.6-8.4-.8-15-4.8-21.8-9.2-5.5-3.5-13.6-14.6-14.7-1.4-.5 5.1 1.4 7.5 1.8 11.2s-2 5.9.5 10.7c4.8 9.3 18 1.3 20.7 2.8zm93.1-31.1c-2.1-1.5-19.7 12.7-23.9 14.4-2.3 1-7.9 2.3-10.5 2.5-10.5.9-18.8-5.4-16.4 11.4 1 7.3 7.9 15.8 16 15.1 9.4-.8 11.9-11.6 14.6-12.4 4-1.3 12.3 5.7 18.9-1.1 4.3-4.4 1.3-8.4 1.5-12.5 0-2.3 1.9-4.8 2-8.1 0-1.9-.8-8.5-2.2-9.4Z" class="outline" data-original-prefix="shading" opacity=".2"/></g><g class="trait-group" data-category="mouth"><path id="outline-shading-mouth1" fill="#000" d="M1041 1343c6.1.5 12.7-1 17.5-5 1.5-1.3.9-3.7 2.8-2.9 10.1 7.9 37.9 17.4 43.8 28.2 3.6 6.5 4.6 17.5-1.8 22.6-5.6 4.5-20.8 10.8-28 15-4.9 2.8-9.7 6.6-14.7 9.3-7.4 4.1-25.5 14.5-32.6 16.4-2.9.8-5.2.8-8.1 0-14.5-3.8-42.2-22.5-56.3-30.7-6.2-3.6-21.2-9.1-23.2-15.8-5.5-18.4 15.7-28.3 28.7-35.4 2.3-1.2 15.5-8.6 16.5-8.7 2.9-.3 4.2 2.9 6.7 4.2 4.2 2.3 10 3.2 14.7 2.8-.3-5.1-3.3-11.3-1.8-16.3.5-1.6 12.5-13.9 14.5-14.4 3.9-1 8.2-.3 11.6 1.9 1 .7 10.8 11.1 11.2 11.8 2.1 5-1.2 11.8-1.5 17" class="outline" data-original-prefix="shading" opacity=".2"/></g><g class="trait-group" data-category="mouth"><path id="outline-mouth3" fill="#000" d="M889 1333c-13.5 7.3-27.4 9.4-38 21.5-7.1 8.2-19.1 26.1-18 37 .3 3.5 7.3 25.1 9.2 27.8 2.7 4 6.1 4.9 10.8 4.7-1.4-9 4.2-18.1 9.6-24.9 2.1-2.6 22-22.5 24.4-20.1-1.7 6.5-8.8 10.4-13 15.5-8.1 10-12.3 23.6-9.5 36.5 1.2 5.7 11 25.8 15 30 .7.7 7.1 6.3 7.5 6.5 3 1.5 6.9-6.1 7.8-8.2 1.7-3.8 2.1-7.7 3.7-11.3 4.4-10.2 9.4-18.4 18.5-25-5.1 13.9-9.5 44.6 1.5 56.1 4.8 5 9.9 2.7 14.3 4.7 2.8 1.3 3 5.7 4.8 6.1 2.6.6 7.2-4.9 14.1-2.1 5.2 2.1 8.6 15.6 13.9 16.1 2.5.2 10.2-12 18.4-9.4 5.6 1.8 19.1 24.8 24.4 23.5 6.1-5.4 3.7-12.4 5-19 1-4.8 6.1-10.3 7.8-15.2 3.7-10.9 1-26.5-1.9-37.5-.3-1.1-6.2-13.2-6.9-14.1-3.8-5.5-20.6-13-23-3.1-.4 1.8.2 7.9-2 7-4.8-4.4-9.5-9.2-14.5-13.5-3.8-3.3-11.2-7.6-14-11-3.5-4.3-14.5-27.1-14.7-32.2 0-3.1 8.4-13.8 10.8-16.8 1.4-1.7 10.5-12.5 11.2-12.8 6.4-3.2 28-2.3 34.7.8 8.4 3.8 12.4 12.1 18.5 17.5 5.2 4.5 2.5-1.7 2.5-3.6s.9-3.2.8-4.8c-.2-5.4-6.7-9.2-9.9-13.1-2-2.4-5.5-6.3-7-8.3-1.2-1.7-5.1-7.9-4.8-9.5.4-2.6 11.3-13.4 12.9-11.7-4.4 12.8-.7 8.7 7.3 12.2 1.2.5 3 2.7 3.2 2.7s2-2.2 3.2-2.7c3.4-1.5 9.7-.4 9.3-5.6 0-1.1-4.1-7.6-.5-6.6 2.8.8 12.1 10 11.3 13.2-6.2 9.4-13.5 17.8-21.1 26l-.8 12.7c1.7.4 2-.7 3-1.5 9.5-7.3 13.4-18 27.5-19.5 5.1-.6 23.6-.6 27.2 2.3 3.2 6.4 21.2 22.7 21 29 0 3.4-6.3 16.9-8.2 20.7-6.8 13.3-9.3 12.6-19.5 21.5-5.3 4.6-10.4 9.6-15.5 14.5-2.2.9-1.4-5.6-2.2-7.7-3.4-8.6-19-1.6-22.7 3.8-.6.9-6.2 11.4-6.6 12.4-1.3 3.6-.5 6.5-1.2 9.8-2.6 12.3-5.2 19.6.2 32.2 1.5 3.5 4.6 6.8 5.8 10.2 2.4 7.1-.8 16.6 6.6 21.1 8.3-2.8 16.9-21.3 23.6-23.5 7.7-2.4 15.9 9.6 18.4 9.4 5.6-.5 9.4-18.8 18.7-17.4 2.2.3 8.4 3.7 9.4 3.5 1.7-.4 2-4.9 4.8-6.2 3.9-1.8 8.9 0 13.3-3.7 11.5-9.9 8.1-43 2.5-56 1.6-1.6 11.3 10.4 12.4 12.1 4.9 7.6 6.1 15.6 9.7 23.3 1 2.1 4.8 9.8 7.8 8.2.4-.2 6.9-5.8 7.6-6.5 7.1-7.7 15.9-30.1 15.4-40.5-1-22.4-10.8-22.9-21.5-37.5-5.3-7.2 2.8-2.4 6 0 11.8 8.6 28 25.5 26.5 41 11.4 1.6 13.7-11.7 16.3-20.2 4.6-15.6 5.3-18.8-3.1-33.4-7.4-13-16.3-22.7-29.9-29.1-6-2.8-14.1-4.1-19.2-8.3 9.3.7 19.7 2.8 29.2 5.3 7.4 1.9 14.4 3.9 20.7 8.3 3.2 9.3 27.6 34.6 28 42 .2 3.9-8.4 23-10.2 28.7-2.4 7.4-1.3 15.8-9 20-2.1 1.1-8.8 2.4-9.5 3-3.6 3.6-1.9 26-2.2 32.3-1.2 29.7-2.2 52.7-20.5 77.5-.9 1.2-2.6 1.5-3.6 2.7-4.3 5.6-2.8 18.6-4.3 26.5-1.1 6-5 13.1-5.6 18.4-.4 3.6 1.4 7.3.2 10.1-1 2.4-9.9 8-12.6 9.5-2.2 1.2-5.7 1.5-6.5 2-.6.4-5.4 10.9-7.2 13.3-2.1 2.7-11.1 11.3-14 12.1-4.1 1.2-7.9-10.3-9.9-13s-2.3 2.3-3.6 4.3c-4.3 6.7-25.1 26.6-32.4 28.6-1.7.5-3.3.7-5 .5-.2-6.5 3.6-11.9-3-16.5-7.6-5.2-17.7 0-21.5 7.4-4.2 8.3-1.8 29.9-14.4 16.5-7.1-7.5-13-17.8-18.5-26.4-2.8 5-19.9 30.6-24 31-5.8.6-5.9-11.5-7.2-15.8-2.5-8.5-10.5-17.7-20-14.4-12.1 4.1-4.7 16.7-6.3 18.2-6 1.1-9.7-4.5-15-5-1.3 6.3-5.2 11.9-5.1 18.5.2 11.2 13.9 23.7 10.9 33.8-.8 2.7-3.4 3.2-5.5 1.4-3.7-3.3-7.9-17.8-10.4-23.1-3.8-8-11.3-14.9-9.4-23.7 1-4.7 7.9-13.9 7.6-17.4-.5-5.3-12.8-12.5-12-18.6-1.2-.2-1.3-.3-2.1.6-2.1 2.7-6.2 14.3-10.2 13.3s-12-10.2-13.7-12.4c-2.1-2.7-6.6-12.8-7.2-13.2-.7-.5-4.2-.8-6.5-2-2.5-1.3-12.6-7.8-13.2-9.9s1.2-6.2.8-9.7c-.6-5.1-4.5-11.5-5.6-17.4-1.7-8.4.3-19.9-3.9-26.1-5.9-8.8-10.5-12.8-15.3-23.7-13.6-31.3-7.5-52.3-10.1-83.9-.8-9.9-3.8-5.3-10.8-9.3-8.2-4.6-6.8-13.1-9.3-20.7-1.9-5.9-9.7-21.8-10-26.1-.2-3.3 1.1-4.7 2.5-7.3 6.8-12.4 18.9-24.3 26.1-36.9 5.9-4.3 13.2-6 20.1-7.9 9.7-2.6 19.8-4.7 29.2-5.3Zm15 128c-1.4-1.5-7.8 8.9-8.4 10.1-10.6 19.9-8.6 50.8-1.8 71.7 1.1 3.3 9.4 22.1 12.8 21.2 4.4-1.1 10.8-28.9 12.8-34.3 4.3-11.7 13.6-22.1 8.6-35.6-4.8-.6-12.2 1.2-15.9-2.9-1.4-1.5-8.5-21.7-8.8-24s.8-4 .8-6.2Zm240 103c.6-.4 6.8-10.5 7.5-12 6.2-12 8.8-32.9 9.5-46.5.8-15.3-4.1-32.2-14.6-43.5l-2.2 9.8c-4.9 13.6-4.6 25.2-23.1 22.4-5.2 13.7 4.3 23.9 8.6 35.6 3.1 8.4 6 27.5 11.8 33.2.7.7 1.4 1.8 2.4 1.1Zm-262.3-85.7c-1-.9-4.6-2-6.6-3.9-4.2-3.9-7.8-13.1-14-4.7-13.3 17.9-4.1 44.9 7 61.7 1.6 2.4 11.5 15.7 13.3 15.7.5-8 1.2-16.5.5-24.5-.4-5.4-3.1-12.3-3.1-18s6-23.3 2.8-26.2ZM1167 1547c1.7.4 2-.5 3-1.5 17.5-18 32.6-50.9 18.4-74.4-6.5-10.8-10.8-.4-16.9 4.9-2 1.7-5 1.6-5.5 4.5-.8 4.5 4 18.3 4 24s-3.3 14.8-3.6 21.2 1.6 14.6.6 21.3m-219.1-51.9c-4.7-3.3-6.5 7.1-7.7 9.6-5.3 11-11.8 23-12.2 35.8-.2 7.6 10.5 26.2 19.1 21 3-1.8 4.7-18 5-22 .4-6.4.2-41.4-4.1-44.4Zm67.8 32.2c-3.2-2.8-9.7 3.2-15.8 1.3-2.1-.7-8.7-7.5-10.5-9.5-2.6-2.9-3.4-8.8-8.2-7.4-12.2 3.5-20.5 24.1-21.2 35.9-.9 13.6 2.4 21.7 11.5 31.5 9.8 10.4 24 15.7 36.1 23h2.3c2.1-6.4 6.2-12 8.1-18.4 3.7-12.2 7.9-47.3-2.3-56.2zm23.4 74.6c1.1.7 3.4 0 4.6-.7 5.6-2.4 20.1-11.1 25.2-14.8 13.4-9.8 21.4-21.7 20.1-38.9-.9-11.9-9.2-33-22-36.1-4.4-1.1-5.5 5-8 8-1.7 1.9-7.3 7.9-9.2 8.8-9.2 4-14.3-9-20 5-5.4 13.2-2.6 37.5 1.5 51.1.7 2.2 7.1 17.1 7.9 17.6ZM885 1559c-3.2-3.3-6.4 8.4-5.8 12.3.7 4.5 5.4 23.4 7 27 1 2.2 6.2 8.5 8.7 6.7 3.4-2.4 3.2-20.7 4-25.4-.5-3.1-8.3-6.1-11-10-2.3-3.5-2.6-10.1-3-10.5Zm32 4c-1.9-2.2-11.8 12.5-12.4 14.1-1.7 4.6-3 25.2-2.4 30.3.9 7.9 5.6 18 11.4 23.6 1.4-8.8 5-18.6 5.5-27.5.8-13.1-3.7-27.1-2-40.5Zm218 68c7.1-5.4 12.1-18.8 11.8-27.5 0-2.6-1.7-5.2-1.8-8-.3-5.4.8-12.5-.5-17.5-.6-2.3-10.4-17.3-12.5-15 1.5 13.8-3.1 28-2 41.5.7 8.7 4.6 17.6 5.1 26.5Zm-35-62c-2.8 14.2-8.1 27.9-9 42.5-.3 5.3-1.4 33.3 3.6 34.4 2.4.6 18.8-13.3 20.9-15.9 8.3-10.5 3.8-32.3-1-44-1.2-2.9-11-19.9-14.5-17m-82 44c-3.5 0-6.1 2.5-9.6 2.9-12.7 1.6-29.1-13.9-41.4-16.9v24.5c0 .6 3.2 8.2 4.1 8.9 6.5 5.2 18.9-.4 24.4 5.6 2.6 2.9 4.3 10.3 10.6 5.5 1.1-.8 11.9-13.1 11.9-14.1v-16.5Zm64-13c-13.2 1.2-27.8 17.6-41.4 15.9-3.5-.4-6.1-3-9.6-2.9v17.5c0 1.1 13 14.6 15.4 14.5 4.9-.3 5.1-4.7 7.1-7 5.5-6 18.3-.4 24.4-5.6 1-.9 4-9.7 4-11v-21.5Z" class="outline" data-original-prefix="outline"/></g><g class="trait-group" data-category="mouth"><path id="outline-mouth2" fill="#000" d="M1122 1332c-.2 0 .2 1.6 0 1.9-1 .8-8.1-5.8-10.2-7.1-10-6.1-19.8-8.3-31.2-9.8-2.9-.4-6.9.7-9.5-.5-1.5-.8-4.5-7.4-6.5-9.5-7.8-8.7-15.6-10.2-25.8-13-1.1-.3-.6-1.9-.7-2 3.1-3.8 16.2-9.3 20.8-9.8 7.9-.9 5.5 4.4 6.5 9.1 2.3 10.7 9.3 19.6 21.3 18.8 5.1-.3 5.6-4 7.9-4.1 1.4 0 6.6 2.9 8.2 3.8 9.4 5.2 15 12.5 19.3 22.2z" class="outline" data-original-prefix="outline"/></g><g class="trait-group" data-category="mouth"><path id="outline-mouth1" fill="#000" d="M1011 1292s.4 1.7-.7 2c-10.2 2.8-17.4 4.1-25.4 12.5-2 2.1-5.6 9.2-7.2 9.9-3.4 1.4-13.5 1-18.1 1.8-12.5 2.1-23.6 8.7-33.1 16.9.2-.9-.5-2.8-.5-3 .7-2.3 8.9-13.5 11-15.5 2.4-2.4 14.7-10.5 17.6-10.4s3 5.1 11.9 3.9c10-1.3 16.2-10.1 17.5-19.6.4-2.6-2.4-6.7 2.8-8.2 3.5-1 21.7 5.6 24.3 9.8Z" class="outline" data-original-prefix="outline"/></g>
<g class="trait-group" data-category="eyes"><path id="fill-eyes-main" fill="#fff" d="M1361.3 1155.3c-16.2 35.9-23.5 77.5-53.9 104.6-33.7 14.7-68.7 37.1-105.9 40.1-27.2 2.2-65.2-2.3-88.8-17.2-3.3-2.1-11.1-10.2-12.4-10.6-6.8-2-20.1 1.7-27.2-.8-3.8-1.3-18.1-15.8-22.5-19.5-1.3-1.1-3.5-.9-5.1-1.9-4.9-3.4-11.3-14.1-17-15-12.5-2-17.4 7.9-26 14.9-3.5 2.9-25.2 20.2-27.2 20.8-6.7 1.9-20-1.5-26.6.4-2 .6-6.9 6.9-9.2 8.8-27.4 21.4-102.9 23.8-135.2 13.2l-70.8-40.2c-3.6-3-5.2-7.6-7.3-11.7-13.1-25.7-24.6-61.7-39-85.1-5-8.2-12.9-17.2-18.4-25.6-1.7-2.6-8.7-12.1-8.7-14.2 15.3-32.9 31.3-65.5 48.5-97.4 31-29 57.4-63.1 92.1-87.9 32.1-22.9 74.1-43 110-59 71.6-32 163.7-29.7 234.4 3.3 34.4 16.1 71.1 33.5 102.3 55.7 39.6 28.2 71.6 69.8 106.4 103.6l35.2 93.9c.2 2.7-2.6 4.6-4.5 6.4-7.3 7.1-15.5 13.7-23.2 20.3Z" class="fill" data-original-prefix="fill"/></g><g class="trait-group" data-category="eyes"><path id="outline-shading-eyes2" fill="#000" d="M942 857c-12.1 12.3-28.7 18.2-42.9 27.6-24 15.9-46.8 43.3-62.9 67.1-5.4 7.9-23 36-24 44-1.9 15 19 44.3 30.9 52.7 15.5 11 44.6 22.3 62.6 32.4s34.5 19.9 50.9 31.1c14.4 19.1 24.9 49.3 40 66.9 6.5 7.6 13.5 4.7 18 8 1.1.8 4.3 7.4 5 9 1.1 2.8-.7 5.7 2.8 7.3 5.7 2.7 5.9-8.1 8.2-12.3 4.5-8.3 14.1-3.9 20.9-12.1 14.5-17.4 24.2-46.5 37.8-64.2 6.2-8.1 34-23 44.2-28.8 11.7-6.7 23.8-13 35.7-19.3 21-11.2 34.9-13.8 50.4-33.6 11.6-14.8 20.3-27.2 12.4-46.3-11.6-28.4-47.4-74.4-71.4-93.6-17.2-13.8-38.5-21-54.5-36 32.2 6.5 62.4 20.5 90.7 36.8 43.8 25.2 91.8 64.7 120.1 106.9 2.5 3.7 7.4 8.7 5.5 13.1-1.7 4-26.2 9.5-31.6 11.5-55.7 20.6-105.3 41.9-152.6 78.4-29.2 22.5-41.7 38.5-62.3 68.7-4.9 7.2-6.3 13.4-13.3 19.7-2.6 2.4-21.3 15.7-23.6 16.4-7.4 2.2-21.8-.9-30.1.5-8.1-8-20.7-12.5-27.7-21.3-3.8-4.8-5.7-10.7-9.2-15.8-18.6-27.1-30.9-43.6-56.9-64.1-49.4-38.9-99.1-60.6-157.6-82.4-5.5-2-29-7.5-31.3-10.6-2.9-4 2.2-9.9 4.6-13.5 27.4-39.9 72.4-78.4 113.8-103.2 30.1-18 63.1-33.9 97.7-40.8z" class="outline" data-original-prefix="shading" opacity=".2"/></g><g class="trait-group" data-category="eyes"><path id="outline-shading-eyes-1" fill="#000" d="M1376 1124c-.3.4-7.4 2.6-9 3.5-8.1 4.2-26.1 12.6-32.3 17.7-2.4 1.9-.9 4.2-2.2 5-26.3 9.1-58.4 13.3-83 25.8-28.2 14.3-61.1 41-85.2 61.8-16.4 14.2-30 16.1-47.8 26.2-9.8 5.6-17.8 14.5-27.8 19.3l-2.5-.6c-11.3-10.6-24.9-18.4-36.5-28.5-7.8-6.8-14.2-15.6-22.1-21.9-2.7 1.3-6.1-.6-8.4.4-1.4.6-15.2 16.5-18.6 19.5-11.8 10.6-25.7 18.9-37.5 29.5l-3.9 1.1c-11.7-6.7-22.5-15.3-34.3-21.8-10.7-5.8-26.2-10.7-35.6-17.4-5.4-3.9-11.8-11.6-17.6-16.4-25.2-20.7-60-47.9-90.7-58.3-21.3-7.2-43.6-12.1-65.1-18.7l-2.2-5-41.4-21.6 4.9-4.1 15.1-28.9h33c21.4 13 44.7 24.7 65.5 38.5 18.6 12.3 35.7 27.9 54.2 40.8 28.2 19.8 67.5 44.8 99 58 17.5 7.3 25.6 4.5 43.5.8 6-1.2 20.2-6.3 24.5-6.4 2.5 0 7.8 3.9 12.8 3.8 4.4 0 9.7-4.1 11.8-3.9 5.8.6 16.8 4.9 23.8 6.4s18.6 4.4 25.6 4.5c11.2.2 31.8-11.4 42.1-16.9 70-36.9 125.7-90.2 196.1-125.9l32.3.3c3 1.8 10.9 25.2 15.5 29.5 1 1 5.9 2.1 4.4 4h-.4Z" class="outline" data-original-prefix="shading" opacity=".2"/></g><g class="trait-group" data-category="eyes"><path id="outline-eyes6" fill="#000" d="M682 1149c-4.5-1.5-13-4.9-17-5.6-13.1-2.2-21.7 2.4-19.9-16.8 2.7-29.6 21.5-76.3 37.5-101.5 4.3-6.8 19.7-29.8 26.4-31.7 3.3-1 6.2 2.3 8 1.2.7-.5 5.6-8.3 7-10 41.8-51.3 96-96.5 157.3-122.7 63.8-27.3 154.2-30.7 221.9-18.5 88.4 15.9 169.4 75.2 223.8 145.2 1.6 2 2.8 6.1 3.1 6.4 1.6 1.4 6.8-2.5 9.9-1.5 6.9 2.1 22 24.8 26.4 31.7 16.2 25.6 34.2 70.7 37.3 100.7 2 19.4-5.1 15.4-19 17.5-3.9.6-10.4 3.4-14.8 4.7-5 1.6-10.1 3.2-15 5-.7-6.8-2.7-13.4-2-20.3 2.5-2.8 21.9-9.6 22.6-10.6 4.4-6.7-6.2-30.5-9.4-37.7-8.8-19.9-20.3-38.5-31.4-57.1-8.6-1-16.7-.8-25.3-.2-14.4.9-28.6 3.5-42.5 7-.4-1.8.9-2.5 2-3.5 10.2-9.8 25.5-17 37.9-23.6-.8-12.8-10.5-25-18.8-34.4-37.4-42.1-98-72-148.3-95.7-65.5-30.8-166.9-33.6-231.7.6-5.7 3-5.8 3.8-12 6-41.7 15.4-129.9 68.1-150.2 107.8-1.6 3.1-6.2 12.6-3.8 15.2 12.4 7.2 27.7 14 38 24 1.1 1 2.3 1.8 2 3.5-13.9-3.4-28.1-6-42.5-7-8.6-.6-16.7-.8-25.3.2-11.1 18.6-22.5 37.2-31.4 57.1-3.2 7.2-13.8 31.1-9.4 37.7.7 1 20.1 7.8 22.6 10.6.6 6.9-1.3 13.5-2 20.3-.7.7-10.2-3.4-12-4" class="outline" data-original-prefix="outline"/></g><g class="trait-group" data-category="eyes"><path id="outline-eyes5" fill="#000" d="M998 1254c.2-.4 0-2.3.9-3.5 9.8-13 20.4-27.3 18.6-44.5 6 2.6 8.5 1.9 14.5 0-2.2 7.2 1.4 18.2 4.5 25 2.1 4.7 11.1 18 14.5 22-.8 1.4-5.5 7-7 6-4-7.5-11.8-10.4-16.2-18.3-1.4-2.5.7-4.5-4.3-3.8-1.7.2-1.1.2-1.8 1.3-2 3.3-2.8 6.2-5.7 9.3-3.5 3.7-10.7 6.2-11 11.5-1.4 1.3-5.2-4.4-7-5" class="outline" data-original-prefix="outline"/></g><g class="trait-group" data-category="eyes"><path id="outline-eyes4" fill="#000" d="M698 1184c3.4-.8 9.7 15.4 12 13 .3-5.1-8.7-15.5-9-18.5-.2-2.5 4.1-19.5 4.8-24.1.6-4.1 1.3-8.2 1.2-12.3 11.9.6 23.5 4.2 34.8 7.7 32.6 10.2 59.5 21.8 87.5 41.4 34.3 24 55.6 53.6 100.3 57.7 13.8 1.3 28-3.6 41.1-7.6 6.8-2.1 13.4-5.7 20.2-6.3-10 11.3-23.4 14.5-21 32.6.4 3.1 1.9 3.1 2 3.4.6 1.5 2.2 4.8 1.6 6-1.9 3.8-10.7 9.8-13.2 13.9-5.5 1.9-11.5 3.3-17.4 3.1-.8-.8 4.8-11.2.5-10-6.4 1.8-19 11.9-24.5 16.5-4.8 3.9-12.8 13.4-18.2 14.8-10.9 2.8-23.7 0-33.6 2.4-9 2.2-26.2 13.9-34.8 19.2-1.4.8-1.1 1-1.9 2.2-1.3-4.6 12.6-19.7 12.5-21.5-.3-5.8-12.8 5-14 6-4.2 3.6-18.5 18.4-20.2 22.8-.3.9-1.8 7.6-1.8 8.2v49.5l-15-36.5c-2.7-9.1-6.7-18.3-5.9-27.9.8-8.6 5.1-17.9 5.9-26.6l-17.2 28.3c-7.4 24.8 2.1 51.6 4.2 76.7l-18.8-35.6c-2.4-9.4-11.8-22.8-13-31.9-2-14.5.8-33.7 0-48.9-.4-7.9-2.5-16.5-3-24.5-2.4 2-7.4 8.6-7.9 11.6-1.2 7.3 2.6 14.3 3.5 21.4-5.6-5.5-15.6-21.1-16.5-28.5s1.5-19-.2-25.8c-.7-2.6-6.2-7.7-8.2-10.8-4.8-7.5-17.8-50.2-17.6-58.5 0-1.3 1-2.3 1.1-2.4z" class="outline" data-original-prefix="outline"/></g><g class="trait-group" data-category="eyes"><path id="outline-eyes3" fill="#000" d="M1076 1272c.6-.9 2.4.3 3-5.5 1.6-17.3-11.3-21.3-22-31.5 11 1.8 21.2 6.6 32 9.5 62.4 16.6 85.8-22 130.7-53.3 28.1-19.6 54.9-31.2 87.6-41.4 11.3-3.5 22.8-7.2 34.8-7.7 0 4.1.5 8.3 1.2 12.3.7 4.6 5.1 21.6 4.8 24.1-.2 1.9-11 17.5-10 18.5 6.6-1.3 7.2-11 13-13 0 .2 1.1 1.2 1.1 2.4 0 8.7-12.7 50.7-17.6 58.5-2 3.1-7.5 8.2-8.2 10.8-1.7 6.7.7 18.3-.2 25.8s-10.9 23-16.5 28.5c3.1-12.7 7.3-23.4-4.5-33-.6 8-2.6 16.5-3.1 24.5-.8 15.3 1.9 34.4 0 48.9-1.2 9.1-10.6 22.5-13.1 31.9l-18.8 35.6c2-25.1 11.6-51.9 4.2-76.7l-17.2-28.3c.7 8.7 5.1 18 5.9 26.6.9 9.6-3.2 18.8-5.9 27.9l-15 36.5v-49.5c0-.6-1.4-7.4-1.8-8.2-1.7-4.4-16-19.2-20.2-22.8-1.2-1-13.7-11.8-14-6 0 1.2 10.9 15.3 12.5 19.4.4.9 1.1 2.3-.6 2 .3-1.4-.4-1.6-1.4-2.2-8.6-5.3-25.8-17-34.8-19.2-9.7-2.3-21.8 0-32.1-1.9-6.8-1.3-19.3-15.2-25.8-20.2-4.2-3.2-13.7-10.3-18.4-11.6-4.2-1.2 1.3 9.2.5 10-5.7.3-11.3-1.2-16.7-2.8-2.5-3.5-12.5-11-13.8-14.3-.3-.7.3-4.7.5-5v.4Z" class="outline" data-original-prefix="outline"/></g><g class="trait-group" data-category="eyes"><path id="outline-eyes2" fill="#000" d="m981 1184-8.5-8c-11.5-11.2-19.5-31.1-29.9-42.1-8.7-9.1-25.2-21.3-35.7-29.3-17.2-13.3-42.5-27.1-57.4-40.6-1.2-1.1-2.9-2-2.5-4 13.6 2.5 23.9 12.5 35.3 19.2 22.3 12.9 46.3 23.5 68.7 36.3 3.9 3.2 8.8 14.6 11.2 19.8 7.2 15.8 12.7 32.4 18.8 48.7" class="outline" data-original-prefix="outline"/></g><g class="trait-group" data-category="eyes"><path id="outline-eyes1" fill="#000" d="M1202 1060c.3 2-1.3 2.8-2.5 4-14.8 13.6-40.2 27.3-57.4 40.6-10.4 8.1-26.9 20.2-35.7 29.3-10.4 10.9-18.5 30.9-29.9 42.1l-8.5 8c6.1-16.2 11.6-32.9 18.8-48.7 2.4-5.2 7.3-16.6 11.2-19.8 22.4-12.8 46.4-23.4 68.7-36.3 11.5-6.6 21.7-16.7 35.3-19.2" class="outline" data-original-prefix="outline"/></g>
<g class="trait-group" data-category="right ear"><path id="fill-ear-rt" fill="#fff" d="M1722.4 186.9c.8.8 1.1 2.1 1.1 3.2l-8.1 121.8c-8.6 28.8-25.9 53-29.7 83.3s-3.9 64.1-9.3 93.7c-7.4 41.1-28.4 85.6-36.9 127.1l-66.8 103.2c-30.7 24.5-60.3 54-91.5 77.5-13.1 9.9-38.1 22.1-53.4 29.5-4.5 2.2-11.8 7-16.6 3.5s-8.7-32.4-11.9-39.1c-15.4 14.6-30.8 29.2-45 45-2.4 2.6-12.9 13.8-13.3 15.8-.5 7.8 4.3 26.8 1.3 33.2-2.3 5.1-22 16.9-22.5 21.5l15.9 43.8-51.9 35.7c-2.6 3-1.2-1.7-2.6 2.2-17.5-3.9-23.5-9.2-38.8-18.4-19.3-11.6-43.7-28-59.2-43.8-1.9-2-4.8-3.1-6.5-5.5-7-9.5-10.9-33.7-16.9-45 16.2-57.7 47.1-109 71.8-163.1 9.4-65.7 14-132.5 25.2-197.8l96.3-119.7 130.6-105.4L1705.6 178l16.7 8.8h.1Z" class="fill" data-original-prefix="fill"/></g><g class="trait-group" data-category="right ear"><path id="outline-shading-ear-rt" fill="#000" d="M1670 478.5c0 .2-1.5 2-2 1-4.6-2.8-23.5-18.9-27.3-18.4-2.3.3-10.5 6.3-13.1 8-11.6 7.9-21.9 17.5-33.1 25.9-1.7 3.7-1.7 7.1-.4 10.8 6.7 1.4 18.8-4.7 17.7 6.4l-23.3 40.7c-2.5.4-1.5-1.8-1.2-3.2.8-4.7 8.2-23.6 7.7-26.2-.2-.8-1.2-1.4-2.2-1.4-3.3.2-8.7 4-12.6 3.9-.8.9 1.8 12 1.7 14.4-.2 7.7-7.3 19-10.3 26.5-3.3 8.5-8.4 19.1-6.5 28 1.4.2 2.7 0 4-.5 12-4.1 33.5-43.7 40.1-55.9 4.8-8.9 14.3-32.5 19.3-38.7.4-.5 1.2-1.4 1.5-1-12.8 55.3-34.4 111.3-63.2 160.3-7.3 12.4-22.6 38.5-31.8 48.2-6 6.3-23.1 17-31.1 21.9-27.2 17-57.6 30.4-89.9 33.6l14.9 35.4c2.5 3.2 21.7-5.9 25.5-7.5 28.7-12.7 69.6-35.6 94.6-54.4 5.6-4.2 8.5-11 6.6 2.6-10.7 7.5-19.9 16.9-30 25-10.6 8.5-24.1 19.3-35.1 26.9-19.5 13.4-44.2 22.7-64.3 35.7-2.6.7-6.3 1.4-8-1.1l-9.1-33.9-67.5 68.5c-1.5 3.5 7.6 16 5 21l-27.4 24.7c5 16.7 14.5 32 18.9 48.8l-1.1 2-44.3 28.7c-1.3.7-2.7 1.6-4.3 1.8-4.9.6-23-6.1-28.3-8.5-21.2-9.4-42.2-23.3-60.1-38-3.1-2.5-20-18.6-20-21s2.2-2.6 2.8-4.2c1.1-3.1 1.1-7.1 2.5-10.5 4.2-10.5 32.7-39 41.8-50.2 58.9-72.9 101.1-158.1 128.3-247.7 4.3-14 8.8-40.2 14.2-51.8 3-6.3 11.4-12.3 14.7-18.8 22.1.5 44.5 6.1 65.8 11.8.9 1.2-5.4 14.4-5.9 17.5-1.3 9.1.4 20.2.9 29.4l19-47c4.9 3.9 5 10.1 12.5 11 8.4 1 31.8-3.8 40.3-6.7 2.5-.8 6.8-1.9 4.7-5.3-17.2-2.1-36.8 9.9-52.5 1.3-.2-.9-.2-11 0-11.7.3-1.1 2.7-.2 3.9-2.2 4.3-7.1 4.3-42.4 5.2-52.9.8-9.6 2.2-19.4 3-29 .8-10.5-2.6-12.2 5-21 8.7-10.2 35.9-34.5 47.3-40.6 3.1-1.7 7.8-.6 6.7-4.8-3.6-.6-5.7.5-8.7 1.8-16.1 7.3-32.9 26.4-48 34-1.6.8-3.6 1.9-5.4.7-.6-.4-4.6-12.8-4.8-14.3-.5-3.8 5.9-11.6 8-15.5 2.2-4.1 11.5-21.6 10.7-25s-25.6-16.5-30.4-21.7c-1.9-2-10.4-14.8-11.1-17-.7-2.4-.4-4 1.1-6l40.4-26.6c22.6.2 42.9-1.7 64-10 10.6-4.2 30.2-16.4 39.8-18.2 11-2.1 25.7 6.5 35.6 10.5 15.2-9.6 31.4-23.8 47.6-31.3 3.1-1.4 4-2.6 6.5.6 3.2 4 0 3.9-1.2 6.7-3.4 7.9-5.5 16.3-8.8 24.2-12.1 29.2-28.7 57.7-38 88-2.3 7.4-3.4 17.4-6 24-4.6 11.8-18.9 25-23.5 36.5-1.6 4.1-6.1 25-6 29 0 .7-.3 1.6.5 1.5 22.9-20 44.9-41.2 69.1-60 3.1-2.4 6.8-5.6 10.5-7v18.5c0 2.6-32.8 27.9-37 32 10.4.7 16.9 7.4 23.1 14.9.5.6 1.9.5 1.9.6 0 5.1 1 17.5 0 21.5ZM1606 296c-2.4-.2-4.7 0-7.1.4-16.5 2.9-37.6 9.5-53.7 14.3-5 1.5-10.2 2.2-15.2 3.8-11.7 23.6-23.4 47.3-34 71.5l20.3-12.2c27.3-9.4 38.9-37.6 60.2-55.9 8.3-7.1 18.8-12.8 27.6-19.4 1.1-.8 2.5 0 1.9-2.6Zm-86 17-46 3.5c-1.7 1.4-8.4 4.7-8.8 6.2s2.6 12.1 3.7 14c2.2 4 14 11.6 18.5 14.5 2.2 1.4 9.4 6.9 11.6 5.6l21.1-43.9Zm-138.5 421v1c.7-.3.7-.7 0-1m-.5 2c-1.4-1.8-4.5 5-4.7 5.8-5.5 16.6-6.8 40.6-14.1 55.9-7.6 15.9-25.4 34.3-35 50-.6 1-1.9 3.1-1.7 4.3 13.1-10.1 27.2-19.4 38.9-31 2.6-18.2 9.1-35.8 12.3-53.7 1.8-10.3 1.9-21 4.3-31.2Zm2 67c3.7-2.6 12.4-12.4 13-16.6.5-3.8-4.9-11.6-6.5-15.4zm-48.1 77.9c.5-.8-7-16.5-9.4-15.9-9.2 11.1-19.3 21.5-28.5 32.5-5.4 6.5-22 25-22.9 32.1-.5 3.6.2 7.3 0 10.9-.8 8.8-1.8 17.7-3 26.5l39.5-35c1-6.2-8.3-23.1-6-27.9L1335 881Z" class="outline" data-original-prefix="shading" opacity=".2"/></g><g class="trait-group" data-category="right ear"><path id="outline-ear-rt" fill="#000" d="M1204 941c-.6 2-3.1 0-4-.5-6-3.3-16.4-8.4-21-13-11.6-11.9-20.6-32.5-31.5-45.5-1-2.9-.7-7.3-.5-10.5 1-20.3 12.5-34.3 20.8-52.2 6.3-13.5 12.6-35.7 19.9-47 3.2-4.9 8.4-9.8 12-15 29.7-42.8 37.8-119.3 42.2-170.8 1.8-21.4.9-43.9 3-65 .7-7 2.4-6.2 5.4-10.6 32.8-49.1 70.5-98.1 110.1-141.9 13.9-15.4 33.5-38.4 49.2-50.8 52.6-41.5 136.1-85.3 198.3-110.6 29.7-12.1 85.4-35.4 115.8-38.3 8.5-.8 7.8 2.7 9.5 9.9 3.6 14.9 2.9 30.5 2.7 45.3-.4 32-1.4 78.8-8.3 109.7-3.7 16.4-15.8 23.2-22.2 37.8-10.4 23.8-20.5 86.5-15.4 111.4 3 14.6 5.8 10.4 2.4 27.6-12.4 64-44 134.2-79.1 188.9-30.9 48.2-70.1 80.8-118.5 110.5-28.7 17.6-59.7 34.8-91.9 44.6.3-14.2-.5-28.4 0-42.5 0-3 3.2-9.9-1-11-14.8 16.6-30.3 32.5-43.8 50.2-.6 2.2 2 8.2 2.8 10.8 1.5 4.5 9.2 20.3 7.6 23.5-1 2-28.2 11.4-31.4 16.7 6 20.3 14.5 39.6 22.7 59.1.5 4.8-7.5 12.2-11.2 14.3-2.2 1.2-4.5.9-6.9 2.1-5.5 2.6-9.7 9.7-15.6 12.4-22.6 10.3-50.5-2.5-71.7-12.3-4-1.9-11.3-4.7-12.3-9.2 2.4 1.1 5.6.7 8 1.5 26.9 9.2 36.4 9.3 61.7-4.3 3.1-1.7 18.6-11.5 19.2-13.9-5.6-15.9-10.9-32.1-19.7-46.6.2-2.7 11.1-11.8 13.8-14.2 2.5-2.2 16.3-11.8 16.9-12.7.6-1.1-1.1-6-1.7-7.5-1.8-4.9-9.1-13.1-7.8-17.3l32-33c2.3-18.2 9.3-35.8 12.3-53.7.9-5.2.5-11.6 1.4-16.6 6.7-39.1 32.5-73.7 53.7-106.4-3.1-10.5-18.5-34.2-29.3-19.2-7.7 10.7-16.6 48.7-17.6 62.4-.4 5 1.2 17.3-.9 20.8-.9 1.6-11.5 10.3-14.1 13.2-25 27.8-50.2 64.5-69.2 96.8-17.2 29.4-56.3 96-51.7 129.1.7 4.7 4.3 9.8 4.9 14.6-2.1 2.1-27.1-18.8-28.5-22-1.7-3.9.9-16.6 1.5-21.5.3-2.9-.4-6 0-8.9.7-4.5 15.4-22.3 19.2-27.8 39.8-58.6 57.4-124.9 103.3-180.7 11.8-14.4 20-26.2 25.8-44.2 5.6-17.5 15.4-63 12.5-80-.7-3.9-10.8-27.6-9.8-28.7l52 28c16.2-44.2 27.9-91.8 22.2-139.2 9.1-12.4 18-25 25.6-38.5 2.5-4.5 12.1-21.1 12.3-24.8s-4.6-8.1-7.6-10.5c-12.1-9.7-30.2-11.4-31.5-31-.7-.6-12.7 8.1-14.3 9.2-44 31.1-77.8 64.6-111.7 106.3-15.7 19.3-36.9 44.4-50.5 64.5-6.4 9.5-10.1 25.9-11.6 37.4-6.4 50-5.5 104.8-13.1 153.9-2.9 18.9-27.5 67.5-37 87-6.6 13.4-16.1 27.1-22.1 40-6.3 13.7-9 29.6-15.7 43.3-3.2 23.1 13.4 51.4 28.9 67.4v-.3Zm515-753c-30.2 9.5-58.8 22.3-87 36.4-25.9 13-53.6 27.8-78.6 42.4-19.8 11.5-38.5 24.8-58.3 36.2.7 1.8 5.9 1.1 7.5 1 23.2-1.4 56-9.1 77.1-18.9 4.3-2 15.9-9.7 18.9-10.1 11.8-1.7 21.1 15.3 28.8 13.8 1.7-.3 13.6-13.8 16.7-16.2 5.7-4.3 12.8-6.4 18.8-10.2 11-6.8 19-19 32.1-22.4l-22.5 39c-13.1 10-28 17.6-39.9 29.2-3 30.4 1.3 60.6 1.1 91-8 15.5-28.8 23.4-34.1 40.9-1.1 3.5-5.8 33.5-4.7 34.8 3.9-1.3 7.9-4.8 11-7.5 13.4-11.6 26.8-26.6 40-39 8.7-8.2 19.9-16.4 28.1-25 4.6-4.9 12.1-40.9 15.9-51.1 6.8-18.1 16.8-28.7 20.7-48.3 2.5-12.5 4.6-27.1 6.2-39.9 3.1-25.3 4.5-50.9 2.1-76.4v.3Zm-103 112c-5.5-.8-9.5-5.3-15.4-3.9-15.4 6.5-35.4 7-50.6 12.4s-41.3 48-47.9 63.1c-4 9.2-6.3 19.6-12.1 28.4 13.1-4.6 33.8-26 47.5-25 2.4.2 8.9 3.3 9.4 3 .7-.5 7.1-11.6 8.7-13.8 17.6-23.9 39.4-43.3 60.4-64.1Zm-96 13-46.6 3.9c-1.8.5-12.4 7-13 8.1-1.7 3.4 4.2 15.1 7 18 2.4 2.5 15.6 12.7 18.6 14.4 14.4 8.2 19.7-14.4 24.1-23.8 1.2-2.6 10.7-19.8 9.8-20.6Zm57 208c-2.3-22.7-1-46.6 3.5-69 1.9-9.6 5.7-27.6 10.3-35.7 6.1-10.7 27-21.4 29-32l-.8-63.3c-37 35.4-65 84.7-72.7 135.8-3.9 26-5.3 57.6 10.6 79.9v1.6c-21.4 26.5-33.1 58.8-41.6 91.5-2.1 7.9-9.6 50.2-12.3 52.7-19.4 17.7-41.7 34.1-65.3 46.7-2.2 1.2-14.6 7.8-15.7 6.8 3.2-7 7-13.5 9.7-20.8 6.7-17.3 8.5-31.1 7.3-49.8l-2-7.5c-5.5 12.1-11.2 24.3-17.5 36-5 9.3-22.1 34.4-24.1 42-2.9 11.3 9 27.8 13.7 38.3 6.8 15.3 12.3 30.7 12.8 47.7l83.9-48.6c76.6-56 124.6-136.5 149.8-227.2 6.8-24.3 13.8-49 12.3-74.5-7.5-3.4-20-16.1-28.3-14.5-3 .6-13 7.8-16.1 10-7.2 5.2-13.7 12.3-21 17-6 3.9-14.2 4.4-12.7 13.2 1.6 10 26.2 2 25.9 15.1-.2 7.4-23.2 33-26.9 41.5-1.9.2-.6-1.9-.3-2.8 2.2-6.7 14.8-29.3 13.2-34.6-2-6.5-20.6 4.2-24.9 4.4h.2Zm-37-135c-6.7-.9-12.1 3.8-17.3 7.2-8.9 5.7-34.4 22.6-40.6 29.4-3 3.2-12.7 33.4-13.8 39.2-3.7 19-2.9 40.5-7.4 59.7 0 4.8 11.4 18.6 16.1 20 4.2 1.2 19.5.8 24.5.5 2.6-.2 19.6-2.9 20.4-4.1 1.3-18.4.6-37.9-2-56.2-1.1-7.9-7.4-29.9-6.7-35.9.7-4.9 11.1-27.1 13.9-33.1 3.3-7 10-16.4 12.3-22.7.5-1.4.8-2.5.6-3.9Zm133 33-23 17.5c-2.2 2.8-6.4 4.6-6 8.5 9.5 1.2 16.7 8.1 25 12 .4-12.8 1.6-25.4 4-38m-151 128c-1.8-1.8-39.9 5.1-47.4 3.9-7-1.1-12.1-8.2-16.6-12.9-2 16.5-4.7 32.9-7.2 49.3-1.1 7.1-4.9 20.1-4.8 26.2 0 4.7 5.9 28.9 7.7 34.3 3.6 11.1 10.4 13.8 20.6 8 20.7-11.7 39.9-68.2 45-91 1.3-5.9 2-11.8 2.7-17.8m-133 209c-1.1 0-2-.2-3 .5-1.8 1.2-4.5 24.4-5.3 28.7-1.5 8.3-3.3 16.7-5.7 24.8 2.4 1.8 11.8-9.8 13.5-12 2.5-3.2 7.6-10 8.3-13.8 1.2-6.4-7.6-20.8-7.8-28.2" class="outline" data-original-prefix="outline"/></g>
<g class="trait-group" data-category="left ear"><path id="fill-ear-lft" fill="#fff" d="M858.7 928.7c-3.7 4.2-14.8 12.9-19.8 16.7-14.6 11.5-32.7 23.6-49.5 31.5-5 2.3-21.9 9.8-26.4 8.7l-60.9-28.2c-24.2-30-45-62.9-68.1-93.9L621.5 828l-113.4-70.7-69.5-84.5-40.8-83.2c-.7-1.3-1-2.7-.8-4.2.9-6.5 16.1-17.9 19.8-24.3 2.3-12.4-1-25.8 3.4-37.7l34.9-31.1c1.7-2.2-3.1-10-6.6-9.6l-68.2 12-2.4-.4-46.8-181.2-8.1-119.8c.2-1.5 11.5-11.4 13-12.1 1.8-.8 4 .7 5.6 1.4 44.7 17.6 88.7 43.3 133.3 61.6l144.9 87.1c34.7 38.2 77.4 72.2 111.6 110.4 19.4 21.7 36.1 47.5 55.3 69.6 7.9 62.9 12.3 126.4 19.6 189.4l79.4 176.7c.6 2.9-1.4 5.4-2.7 7.9-4.2 8.6-19.1 36.9-24.5 43Z" class="fill" data-original-prefix="fill"/></g><g class="trait-group" data-category="left ear"><path id="outline-shading-ear-lft" fill="#000" d="M594.1 547.9c22-5.9 44.3-10.2 66.9-13.5 7.1-9 19.6-17 26.6-25.4 5.8-7 6.8-15.9 18.9-7l23.5 42.5c4.3 2.7 21.4 14.9 25.3 14.3 2.1-.3 13.8-7.8 16.5-9.6 2.4-1.6 12.1-10 12.9-10.2 2.8-.5 4.1 5.4 4.4 7.4.8 6.7.3 15.6.6 22.6-1 2.9-8.3 5.5-11.3 7.7-.7.5-1.7-.2-1.2 1.7.2.6 8.7 9.2 9.5 9.6 1.5 1 3-.3 3.4 0s4.2 6.9 4.7 7.9c2.1 4.3 1.7 8-2.2 11l-91-69.8-1.5 2c-.6.4-1.6-1.7-2.5-1.7-2 0-27.4 24.3-30 27.7-2.9 3.7-4.2 7.6-5.5 12 2 .4 2.7-.5 4-1.4 5.7-4.2 10.8-12.5 16.9-16.5.5 2-1.8 2.4-1.8 4.3 0 3.2 4 15.7 5.1 19.9C712 681.5 760 779.2 824 857.7c8 9.7 37.9 40.7 40.3 49.7.9 3.3.4 13.9-.5 17.1-1.2 4.2-33.7 28.5-39.5 32.5-15.2 10.4-31.3 19.8-48.8 26l-39.5-7.4c-25.7-24.5-53.6-47.2-79.1-71.9-3-2.9-8.2-7.4-10.4-10.6-5.3-7.6-11.7-45.5-15.1-57.9-.6-2.2 1.2-3.9-1.4-6.6l-105.6-62.4-.5-6c29.4 9.8 56.5 27.9 84.6 39.8 13.2 5.6 27.2 8.1 40.9 12.1 2.3-6.6-5.6-44.9-9.5-47.5-35.8-2-69.1-17.3-99-36-25.8-16.2-32.8-24.5-49.1-49.9-16.6-25.8-31.6-54.3-43.5-82.5-3.2-7.5-12.3-27.3-11.3-34.2.8-5.2 5-11.1 4.8-16.8 2.3-.5 1.6.3 2.2 1.3 7.3 11.3 21.5 41.5 33.5 46.4 6.6 2.7 6-2.2 4.7-7.7-3.4-14.8-17.2-33.6-16.5-47.5.2-3.3 3.8-28 4.6-29.4 7.8-6.3 20.9-9.5 22.2-20.8.6-15.9-2.7-35.1-.8-50.8.4-3.5 3-5.9 3.1-9 0-3.6-3.2-7.7-3-11.5-1-.9-6.3 4.4-7 5.5-3.5 5.3-1 7.1-1 12 .2 15.8-.4 31.6.8 47.4-5.4.6-21.8 15.6-24.5 16.1-2.6.4-7.5-13.8-10.7-13.8l-59.2 11.8h-11.4c1-3.7-3.3-10.3.7-12.7l69.4-19.6 9-38c-12.9-38.6-33.1-79.6-58.1-112-12.6-16.3-30.2-31-33.9-52.4 3.3-.7 9-4.4 12.2-3.9 2 .3 6.5 4.6 9 6 23.8 13.1 49 29 71 45 38.5 28.1 75.4 83.9 100.1 124.9 9.4 15.6 9.7 19.1 11.6 37.4 2.6 24.6 1.1 32.6 12.2 55.8 3.7 7.7 8.6 14.7 12 22.6ZM719 776c-.4-2.2-3.5-6.6-5.5-7-3.7-.7-16.9 1-19.6 3.5-2.4 2.3-5.9 14.8-7.2 18.8-2.2 7-10.2 31.5-8.5 37.1.6 2.1 4.7 4.7 4.8 7.7l4-6.5 26.5 40.5 4.1-8-26.6-47.6 10.5-38.4H719Zm57 190c-3.3-10-4.9-26.8-9.8-35.7-2.6-4.8-10.8-12.4-14.6-17.4s-9.2-10-8.4-16.1c2.2-15.5 15.7-28.9 22.6-42.5l-6.3-13.3c-1.7.8-16.6 29.2-18.7 33.3-5.5 10.9-16.8 32.7-17.8 44.2-1 12.1.9 25.6 0 37.8l6 3.7 5.5-32zm-103-56 9-49.7-4-9.3c-1.6 0-1.6 3.4-1.8 4.7-1.3 7-1.2 14.9-2.4 21.6-1.4 7.7-5.3 16.6-7.4 24.3 0 1.3 5 10.2 6.6 8.5Z" class="outline" data-original-prefix="shading" opacity=".2"/></g><g class="trait-group" data-category="left ear"><path id="outline-ear-lft" fill="#000" d="M844 942c15.6-14.5 32.6-45.7 29.9-67.4-8.3-32.4-25.5-58.9-39.8-88.2-9.5-19.6-31.9-63.6-35-83-3.6-22.2-3.2-46.4-5.1-68.9-.9-9.9-2.5-19.8-3.2-29.8-6.3-5.3-13.4-13.5-21.5-15.5-13.1-3.2-22-2.3-35.1-8.9-19.6-9.8-27.8-25.2-36.6-44.3-10.1 11.4-33.8 25-36.3 40.7-3 19.5 8.4 73.2 16.6 91.9 4.8 11 12.6 21.6 20.2 30.8 48 58.3 66.6 127.3 109.2 188.8 3.4 5 10.1 11.7 12.7 16.3 2.1 3.9 4.1 24.3 4.2 29.8.2 6.4-4.7 10-9.1 14-2.2 2-18.3 15.1-20 13.5.9-5 4-9.7 4.7-14.8 1.7-11.6-1.8-24.2-5.2-35.2-7.9-25.5-21.5-49.2-35-72-1.8 0-16 28-18 32-6.6 13.1-18.4 35.3-19.5 49.5-.9 11.2.6 23.6.2 34.9.6 1.8 15.1 10.8 17.8 12.2 17.1 8.9 28 10.8 47.2 6.2 6.9-1.7 12.8-5.3 19.8-5.7-3.3 5.3-7 6.8-13 9.5-22.4 10.2-58.6 26.5-79.5 6.5-14.3-13.6-27.5-29.5-42.4-42.6-12-10.6-25.8-15.8-32.5-31.5-10.8-25.3-24-65.5-48.8-80.2-12-7-24.9-12.3-37.2-19.8-81.4-50-124-108-162.7-194.3-1.9-4.2-11.8-25.8-11.8-28.2 0-2.2 13.4-12.5 16-15 2.7-2.6 11.5-10.6 12.9-13.1 2.3-4.3 4.9-27 5.1-32.9.1-2.2-1.6-4.2-.9-6.8 1.1-4 16.2-13.1 18.8-17.7-24.9 3.4-48.8 10.4-72 20-1-7.2-5-16.4-5.1-23.5s5.4-15.4 6.1-24c1.3-16.7-1.4-39.1-4.3-55.8-3.8-21.6-9.2-45.2-21.9-63.1-2.7-3.8-8.9-9.4-10.3-12.7-6.4-15-6.2-46.8-7.5-63.5-2.2-29.9-8.2-77.3.5-105.5 1.8-5.8 2.2-6.4 8.7-5.7 12.1 1.1 31.8 7.4 43.8 11.3 83.1 27.2 164 67.2 237 115 21.8 14.3 36.8 25 55.1 43.9 52.6 54.4 98.4 114.5 141.4 176.6 2.3 4.6 2.2 21.8 2.6 28.4 3.6 65.9 7.8 160.8 46.2 215.8 2.9 4.1 7.4 7.9 10 12 6.8 10.6 12 30 17.6 42.4 9.2 20.5 21 34.3 22.2 57.8.2 3.2.5 7.5-.5 10.5-13.8 17.6-24.1 41.8-43.8 53.2-3.7 2.2-8.4 5.1-12.7 5.8ZM702.8 512.2c.5.6 4.5 11.7 6.1 14.4 7 12.8 14.2 25.5 27.2 32.8 3.5 2 12 6.2 15.6 6.5 4.3.3 17.8-8.4 23-10.8 3.5-1.6 7.3-2.7 11-4.1-1.8-14.4-3.9-27.9-12.2-40-21.1-30.9-52.7-69.2-77.9-97.1-58.5-64.7-137.8-110.4-212.8-153.2-45-25.7-91.8-52.4-141.2-68.8-1.9-.6-10.6-3.9-11.5-3-2.9 37.8.8 78 8.3 115.2 4 19.6 13.9 30.2 20.7 48.3 8.5 22.4 17.3 59.3 20 83 2.1 18.7 1.2 37.8 3 56.5 16.7-2.5 33.1-6.7 49.8-9.7 8-1.4 18.2-1.6 25.6-3.4 6.1-1.4 6.8-5.9 8.1-10.9 4.5-17.3 3.6-35.6 5.7-53.3 1.6-4.2 14.7-9.6 14.8-13.2 0-3-13.9-27.1-16.6-31.5-23.5-38.4-55.2-67.1-93-91L354 241.3c-.2-1.5 0-1.7 1.5-1.5 6.7 1 18.7 13.8 24 18 7.9 6.3 17.8 9.2 26 15 53.7 51.2 107.7 99.8 130.4 173.4-15.6 64.6-13.8 128.7 20 187.2 5.6 9.7 23.2 34.9 35.7 21.4 4.4-4.7 7.8-28.3 10-36 3.6-12.6 8.4-25 12.5-37.5 17-13.2 37.3-24 53-39 7.3-6.9 22.3-30.1 30.8-31.3 1.4-.2 4.1 0 5 1.1ZM492 414c-12.8 5.3-8.1 15.2-8 25.5.3 13.3-.8 26.7.8 39.9-21.4 13.6-40.7 29.6-58.8 47.3-2.1 3.3-1.5 24.1-2.1 29.9-1.2 11.2-11.1 18.3-19 25.2 9.9 37 29.1 70.7 51.2 101.6 22.3 31.2 49.9 64.5 81.5 86.5 17.3 12 36.6 20.7 54.6 31.4 8.3 4.9 32.2 18.5 37.7 24.3 4.6 4.8 1.7 5.4 2.4 9.5s5.9 15.5 7.8 20.2c3.3 8.4 7 16.7 11.2 24.8 2.7-4.7 5.1-10.5 6.2-15.8 4-19.5 4.9-44.9 2.1-64.6-1.7-11.9-5-23.5-7.9-35.1.2-2.4 6.1-6.7 8-9 7.9-9.9 13.8-21.5 19-33 0-3.4-13.8-12.7-14.5-15.4-1.5-5.3 0-13.7-.4-19.6-1.1-13.7-9.6-50.9-17.2-61.8-11.8-17.2-26.5 9.3-31 19.7-9.3 21.4-7.6 46.3.4 67.9 2.9 7.9 7.3 15.2 10.8 22.7-1.4 1.3-15.2-6.5-17.7-7.8-15.2-8.2-32.4-19.3-45.8-30.2-4.2-3.4-15.7-12.9-18.4-16.6-3-4-9.1-42.7-11.4-51.6-8.6-32.6-20.5-64.9-41.6-91.5-.3-1.7 5.1-9.4 6.3-12.3 14.2-33 3.6-78.9-6.5-112Zm298 177c-1.2-2.4-1.8-28.5-3.5-28l-15.5 9.5c1.2 2.6 13.2 14.9 16 17 1 .8 1.3 1.9 3 1.5m-83 168c.2-1.4 0-2.6-.5-4S694 738.9 693 738.4c-2-1-7.1 5-8.5 6.5-14.2 16.1-18.4 33-13.5 54 2.6.3 1.6 0 2-1.5 2.5-8.6 4.9-28.8 9.9-35.1 3.2-4 18.5-2.4 24-3.5Zm4.8 9.2c-5.4.2-17 .9-19.7 5.4-3.1 5.1-13 38.5-13.9 45.1-.4 3-.8 8.6.3 11.2l33.6 50.4 3.3 2.7 36.5-56.5c.2-4.3-21.2-36.1-25.1-41.8-2-2.8-10.6-16-12.5-16.5-1-.3-1.6 0-2.4 0ZM708 946l-1.7-42.8c-7.9-17.7-17.7-36.5-28.1-52.9-.6-.9-.9-2.2-2.2-2.3-1.2 18.6-3.3 37.2-10.8 54.3 2.6 3.7 4.8 7.8 7.8 11.2 6.1 7 24.9 25.5 32 31 1 .8 1.3 1.9 3 1.5" class="outline" data-original-prefix="outline"/></g>
<g class="trait-group" data-category="head"><defs/></g><g class="trait-group" data-category="head"><path id="fill-head-main" d="M1447 362.5c5.3 5.2 4.4 15.3 3.8 22-3.8 43.6-12.4 86.5-18.9 129.8-13 92.5-18 185.6-15.7 279 5.5 9.3 17.2 10.9 20.9 21.7-5 40.7-7.1 81.2-4.6 122.1.3 3.9 1.2 13.9 2.5 16.8 2.1 5 8.1 3.7 12.9 3.2 23-3.2 45-9.5 67.2-16.3 31.9-9.1 63.8-18.3 95.6-27.5-16.8 78.8-76.7 144.1-143 186.4-72.6 45.2-154.3 63.9-237.4 79.7-126.9 23.5-251.1 27.6-378.6 6.3-84.6-14.6-170-30.6-246.6-71-77.2-42.2-149.5-113.2-168.2-202q63 18.75 126 37.2c12 2.1 23.9 4.9 35.9 7 3.5.4 11.6 1.5 13.3-1.6 1.5-2.6 2.8-16.4 3.1-20.3 2.4-40.2 0-80-4.6-120 .4-3.9 6.9-10.1 10-12.4s9.9-3.6 11-8.3c.9-4.3.5-14.1.4-19-.7-97.9-11.3-195.2-22.4-292.4-4.1-32.8-9.8-65.4-12.7-98.4-.5-6.5-1.2-11.9 1.4-18 4.7-9.8 16.7-8 25.6-9.1 21-4.9 41.7-10.5 62.9-14.2 129.8-19.8 261.1-23.5 392.3-21.3 98.2 2 196.3 7.1 293.3 23.2 17.3 3.1 34 8.2 51.1 12.3 7 1.6 17.5-.4 23.1 5.1z" class="fill" fill="#FFFFFF"/></g><g class="trait-group" data-category="head"><path id="fill-head-brim" d="M634.7 831c1.9-.5 7.6 5.1 10 6.4 80.9 46.7 188 47.7 278.8 52.4 155.7 7.7 315.2 5.9 464.3-44.4 9.1-3.8 16.8-10 25.5-14.4.5 0 1.8 1.5 1.4 2.3-.5 9.3-.8 13.9-1.4 23.2.4 20.7.9 41.4 1.3 62.1.4 13.4 4.2 26.3 3.9 39.7-.7 9.1-9.1 14.1-16.5 18.1-11.6 6.3-23.8 11.5-36 16.7-207.2 91.1-466.3 92.5-674.7 4.2-18.5-7.7-40.3-14.6-55.8-27.8-9-8.7-5-21.3-3.5-32.1 1.7-26 2.6-51.9 2.6-78s-1.7-17.4-1.6-25c0-1.2.4-3.1 1.7-3.5Z" class="fill" fill="#FFFFFF"/></g><g class="trait-group" data-category="head"><path id="shading-head2" d="M1522.7 939.1c-25.1 5.8-49.3 14-74.7 18.2-2.8.3-10.4.9-11.9-1.3-4.1-9.8-2.4-21.5-2.7-31.8l-2.1-45.9c.3-7.7 2.8-19.8 1.6-27-1.1-6.7-8.1-5.7-10.3.2-4.3 13-5.7 26.6-8.8 39.9-7.3 28.3-17.6 57.1-39.6 77.4-21.9 20.3-52.1 30.7-79.7 40.5-64.3 22.7-129.1 36.2-197.1 40.8-132.4 7.5-266.2-2.1-387.9-58.6-29.2-13.5-50.2-42-65.9-69-4.6-12.6-8.1-25.7-11.3-38.7-2.5-11.7-3.4-24.3-8.5-35.2-1.8-1.8-4.7-2.2-6.9-.6-3.9 9.5-1 21.6 0 31.5l-2.1 45c-.3 10.2 1.6 22.9-3 32.2-1.6 1.8-9.1 1.1-11.6.8-25.5-4-49.7-12.4-74.7-18.2-.8-.2-2.7-1.3-3.1 0 14.9 18.6 32.1 33.5 51.3 47.6 32.8 22.3 68 39 105 53.1 224.4 82.1 475.7 81.2 699.3-3.2 55.2-21.2 110.5-50.7 148-97.6-.3-1.2-2.2 0-3.1 0h-.2Z" class="shading" fill="#AAAAAA" style="opacity: 0.5"/></g><g class="trait-group" data-category="head"><path id="shading-head" d="M1416.1 791.4c0-6.2-.2-9.3-.3-15.5-1.2-44.3-2.5-88.6-3.7-132.9-43.9 110.9-155.8 188.6-270.3 209.6-90 16.3-181.7-2.5-271.9-3.3-69.8-7.9-137.8-22.6-201.6-52.8-12.1-6.9-24.1-13.7-36.1-20.6 0 7-.2 10.5-.4 17.5 0 6.7-16.3 9.3-13.6 14.1 28.1 16.1 55.7 32.2 86 43.8 124.5 42.2 258.4 42.1 388.3 38.5 115.7-3.7 234.4-17.2 334.1-80.7 1.2-1.5 1.8-2.3 3-3.9-4.4-5.2-13.4-5.1-13.5-13.8" class="shading" fill="#AAAAAA" style="opacity: 0.5"/></g><g class="trait-group" data-category="head"><path id="outline-head-tophat" d="M1423.5 791.6c8.5 4.1 18 10.7 20.8 20.3-3.9 36.7-6.1 73.2-4.8 110.1.2 9.2 0 19.1 2.6 28 1.2.8 2.2.3 3.3 0 44.7-4.7 87.7-21.6 130.5-34.4 12.7-3.9 25.2-7.9 37.7-12.4 4.8-1.4 4.7 10.9 4.5 13.9-3.7 50.3-45.1 101.9-79.5 136-87.7 84.4-198.8 114.1-315.4 135.6-129.9 23.2-257 24.6-387.1 2.1-123.5-22-242.7-52.3-333.5-144.4-31.9-33.4-68.6-81.7-72.9-129.3-.2-2.6 0-14.6 3.8-14.2 12.7 4.7 25.4 8.8 38.4 12.8 42.8 12.8 85.7 29.8 130.4 34.6 1.2 0 2.7.8 3.5-.4.6-.8 2.2-14.4 2.3-16.9 1.7-25.9 1.6-52.1-.3-78-1.4-14.3-5.2-28.6-4.2-43.1 2.8-9.8 12.5-16.2 21-20.7l.6-75.9c-5.5-70.5-11.9-141-20-211.3-4.6-36.6-10.9-72.9-14.3-109.7-1.1-12-3.3-26.9 4.2-37.3 5.9-5.9 14.8-4.4 21.8-5.9 38.2-8.5 76.4-16.4 115.2-21.2 193.6-22 389.7-22 583.4 0 38.9 4.9 77 12.7 115.2 21.2 10.6 1.7 23.9 1.3 26.2 14.6 5 30.2-4.4 63.9-8.8 93.8-3.8 25.2-8.4 50.4-12.1 75.6-11.5 85.1-15.2 170.6-12.7 256.4h.2ZM985.7 340.3c-99.5 3.1-198.2 16.6-297.3 25.7-22.7 1.7-45.6 1.8-68.2 4.7-1.2.2-3.5.8-4.2 1.8-1.1 21.6 5 44.5 8 65.9 8.3 70 15.2 140.1 21.1 210.3 4.1 50 8.3 99.9 6.2 150.2 0 2.6-.6 11 .3 12.5 1.1 1.8 19.2 9.8 22.7 11.1 62.3 24 128.7 32.6 194.8 38.8 126.3 11.1 253.1 9.5 378.8-7.8 46.7-6.7 100.1-14.4 141.7-37.9 2.6-1.6 6.5-3.3 6.4-6.7 0-88.7 7.2-177.1 16.1-265.3 5.4-51.3 13.2-102.4 18.6-153.7.2-2.5 1.8-16.6 1.3-17.4-.6-1-2.9-1.7-4.2-1.8-22.6-2.8-45.5-3-68.2-4.7-124.5-11.3-248.5-28.2-373.8-25.7h-.2zM634.7 831c-1.3.4-1.7 2.2-1.7 3.5-.2 7.6 1.6 17.3 1.6 25 0 26-1 52-2.6 78-1.5 10.7-5.5 23.3 3.5 32.1 15.5 13.1 37.3 19.9 55.8 27.8 208.4 88.2 467.5 86.9 674.7-4.2 12.1-5.2 24.4-10.3 36-16.7 7.4-4 15.7-9 16.5-18.1.3-13.4-3.6-26.4-3.9-39.7-.4-20.7-.9-41.4-1.3-62.1.5-9.3.8-13.9 1.4-23.2.3-.8-.9-2.1-1.4-2.3-8.8 4.3-16.5 10.6-25.5 14.4-149.1 50.4-308.7 52.1-464.3 44.4-90.8-4.6-197.8-5.8-278.8-52.4-2.3-1.3-8.1-6.9-10-6.4Zm954.1 104.6c-15.9 6.5-31.6 13.2-47.6 19.4-20.4 7.1-40.9 13.3-62 18.3-14.4 2.8-29.5 3.3-43.6 7.8-3.1 1.3-7.2 5.1-10.5 6.9-89.2 48-186.1 73.5-286.1 86.6-169.7 21.2-356.6-1.1-508.8-82.4-5.6-2.9-13.4-9.2-18.5-11.3-13.7-4.5-28.6-4.9-42.8-7.6-26.1-6.1-51.3-14.2-76.4-23.7-10.4-4.3-20.2-10.1-30.9-13.7-1.5-.4-2.8-.8-2.4 1.2 69.1 161.9 254.2 217.9 413.7 242.1 82.6 12.2 164.8 16 248 7.3 144.6-15.8 311.2-50.3 412.9-163.5 23.1-26.5 41.7-55.1 55.1-87.6v.2z" class="outline" fill="#000000"/></g><g class="trait-group" data-category="head"><path id="outline-head1" d="M1274 901.4c-10.6 2.3-17.5-5.1-23.9-9.6-1.9 1.3-3.7 2.9-6 3.8-15.2 6-31.7 10.2-47.5 12.1-15.2 1.8-32.4 0-47.7 1.9-2.3.3-2.3 2.5-6 3.2-4.6.9-12-.4-17 .5-1.3 3.3-2 4.9-3.4 8.2 10.1 9.7 20.5 19 31.1 28.1 4.8 2.2 21.6 0 26 1.2 1.3.4 3.6 3.8 6.5 4.7 14.8 4.6 31.9 5.8 47.2 9.4 5.6 1.3 17.4 4.7 14.1 10.1-8.2 5.4-20.1 6.1-29.6 6.6-.2-2.4-.4-3.6-.6-6-13.8 2.9-27.9-1-41.3.7-1.8.2-2.9 3.3-4.7 3.7-2.1.5-6.6-1.3-9 .3-3.3 4.5-5 6.7-8.5 11.1-2.4-4.5-3.8-9.4-6.5-13.8-3.7-6.2-9.4-10.8-11.7-17.5-12.1-5.2-24.1-10.6-36-16.3-3.6-.7-6 1.5-10.1 1.1-2.7-.3-16.7-5.8-20.8-7.1-4.2-1.4-8.9-2.4-13.2-3.6 2-6.2 4.1-12.4 5.2-18.7.3-1.5-1.1-2.8-.9-4.4.7-4.1 7.9-6.2.8-10.2-1.4 0-2.1 0-3.5.2-3.9 2.3-14.2 2.8-17.3 5.6-2.6 2.3-2.2 8.4-3.9 10.2-1.1 1.2-4.4.8-5.8 1.8-1.7 1.2-1.8 7.1-4.3 7.5-3.3-1.2-17.4-4.2-18.8-.7 2.4 13.4 4.5 25.3 2.7 37.7-1.2 8.5-5.9 18.1-6.3 27.6-6.5-4.8-9.7-7.3-16-12.2-3.7-1.2-5.6-1.8-9.2-3 10-8.5 20.1-20.2 17.6-34-3.5-19-30.2-26.3-46.8-22.4.9-4 1.3-6 2.1-10-13.4 1.5-26.7 2.8-40.1 3.9-4.2 6.6-6.4 9.9-10.8 16.5-8.2 2.2-12.3 3.3-20.6 5.4-3.2 2.5-7.3 19.7-7.6 23.8-.4 6.6 5.3 13.1 4.6 19.7-6.4-2.3-12.7-10.7-18.3-12.7-3-1.1-5.5 1.2-9.7 0-1.6-.5-7.4-4.6-7.4-5.7 6.2-4.4 9.3-6.6 15.3-11.1 1.4 2 2.2 4.3 4.4 6.1 1.2.9 1.3 2 3.2.8 1.5-1 12.2-17 12.6-18.7 0-.4.5-.8.2-1.1-2.4-.6-3.6-.9-6-1.6 25.3-10-18.8-11.8-24.7-11.6-6.7 9.5-14.9 18.7-25.8 23.2-5.4-2.8-11.5-3.4-17.9-4.5 11.8-14.4 23.3-28.9 34.4-43.8-1.7-1.8-4.3-4.8-7.2-5.2-1.9-.3-23.9 2.1-26.2 2.7-4.1 1-4.4 3.9-6.9 4.7-2.8.9-20 1-20.8 1.4-.7 9.8-4.5 21.9-10.9 29.5-.7.9-4.9-.3-7.7 1.9-10.7 8.4-21.7 18.2-28.4 29.8-.7 1.2 2.1 2.8 1.9 3.9-.3 1.9-3.8 5.3-4.4 8.6-.8 4.3 2.1 10.2 2 14.7 21.1 7.6 42.2 14.8 63.6 21.5 2.8.4 12.2-3 11.4-5.5-6.8-9.4-13.4-18.8-20-28.4 2.6-6.1 3.8-9.1 6.4-15.2 9.1.7 16.9 9.1 23 15.2 15.6 15.6 30.9 32.4 47 47.9 1 .4 1.5.5 2.5.9 3.4-.4 5.2-.7 8.6-1.1 4.2 3.6 6.4 5.4 10.8 8.9 8.1-2.3 12.1-3.4 20.1-5.8 15.7 3.3 31.3 6.4 47.1 9.3.5-2 .7-3 1.1-5 23.2 2.3 46.4 8.3 68.6 4.4 3.3-.6 6.9-3.3 9-3.4 5.5-.2 17.8 6 23.7 5.7 5.4-.3 11.6-5.5 15.7-5.9 10.1-.8 20.6.5 30.7.3 18.7-.5 44-2.3 57.6-17.5 48.6 0 100.8-7.3 142.8-31.6 39.7-23-10.1-37.3-30.8-40.8-19.8-2.9-39.4-6.1-59-9.8 32-4.1 64.1-6.8 96.3-9.4 1.1-1.7 1.7-2.5 2.7-4.2-.5-.9-.8-1.4-1.3-2.3-10.6-5.5-21.2-11.1-31.7-16.9v.3Zm-353.4 64.3c.2-5.1 1.2-10.7 4.9-15.2 9-1.2 33.1-3.2 31.5 10.8-1.5 12.9-22.3 16.8-33.4 17.6-2.2-.4-3.2-11.2-3.1-13.2Zm45.5 42c-11.4 2.8-23.8 2.1-35.4.4-2.2-6.5-3.2-9.7-5.3-16.2 10.3-1.1 22.9-4 31.9 3.1 2.9 2.2 13.7 11.6 8.7 12.8Zm118.5-4.2c-5.8 10.7-22.6 8-33.6 7.2.5-3.6-2-6.9-2.3-10.4-1.2-12.8-1.2-25.3 0-38 0-.9-.4-1.8 1.8-1.3 9.6 1.9 21.1 5.4 28.7 10.8 9.3 6.6 10.4 22.5 5.4 31.7" class="outline" fill="#000000"/></g><g class="trait-group" data-category="head"><path id="outline-head2" d="M749.2 941.4c1.9.5.8 2 .3 2.7-7 9.8-17.3 17.5-28 23.2-5 2.7-5.6-.2-6-3.4-1.4-11 9.2-17.5 18.3-20.5 2-.7 13.9-2.5 15.5-2Z" class="outline" fill="#000000"/></g><g class="trait-group" data-category="head"><path id="outline-head3" d="M1097.8 944.4c10.3-2.3 31.9-1.5 32.2 13.4 0 4.1-1.8 5.2-7.5 3.3-9.7-3.3-19.1-8.4-28.3-13.1-2.1-1.5 1.7-3.2 3.6-3.6" class="outline" fill="#000000"/></g><g class="trait-group" data-category="head"><path id="outline-head4" d="M1209.8 983.5c-15.6.8-30.3-.7-45.7-2.9 12.7-10.7 35.6-12.1 45.7 2.9" class="outline" fill="#000000"/></g><g class="trait-group" data-category="head"><path id="outline-head-bats" d="M1144.4 582.2c-20.9 14.5-42.1 28.7-63.4 42.6s-13.2 8.7-19.9 12.8-.4 0-.3.4c19.2 17.6 38.1 35.4 58.1 52 19.3 16 39.8 30.7 60.1 45.3 11.5 8.3 23.3 17.3 35.1 25s4.3 3 6.7 2.8 4.3-2.3 6.8-2.6c6.3-.6 11.2 4.6 9.9 10.8-1.4 6.4-11.6 21.5-18.4 22.5s-7.6-1.3-9.4-4.6.4-6.6-.8-10-1.8-2.8-2.9-3.9c-32.5-23.1-64.3-47.5-98.2-68.5-27.3-16.9-55.9-31.7-84-47.3-23.8 13.2-48 25.8-71.5 39.7-38.6 22.8-74.3 50-110.7 76-.6.7-1.3 1.2-1.8 1.9-3.4 4.6 1.5 9.1-3.3 14-9.6 9.8-22.3-9.2-25.4-16.9-2.1-5.2-1.5-10.9 4.3-13.2s5.7 0 9.3 1.5 6-.5 8.8-2.3c11.7-7.7 23.6-16.8 35.1-25 20.3-14.6 40.8-29.4 60.1-45.3s38.9-34.5 58.1-52c0-.5 0-.3-.3-.4-6.7-4.1-13.3-8.5-19.9-12.8-41.4-27.2-82.4-55.5-122.7-84.4-8-5.7-16.3-11.5-24.1-17.5s-3-2.2-4.1-3.3c-18.4-18.7 10.4-59.5 35.3-44.4 11.5 7 23.8 16.7 34.9 24.7 19.8 14.3 39.5 28.9 59 43.6 26.7 20.1 53.2 40.4 78.9 61.8 9.2-8 18.9-15.3 28.4-22.8 37.7-29.8 76.3-58.8 115.4-86.8 8.9-6.4 18-13.3 27.1-19.2s3.5-2.3 5.3-3.1c21.7-9.3 46.7 23.5 34.6 42.8s-10.1 9.2-14.7 12.6c-24.7 18.3-50.2 36.1-75.4 53.5Z" class="outline" fill="#000000"/></g></svg>