<?xml version="1.0" encoding="UTF-8"?>
<?xml-stylesheet type="text/css" href="../styles/semantic.css" ?>
<svg xmlns="http://www.w3.org/2000/svg" viewBox="0 0 2048 2048">
  <g class="trait-group" data-category="background" id="background-forest-mist">
      <defs>
    <radialGradient id="forest-mist-gradient" cx="50%" cy="50%" r="70%" fx="50%" fy="50%">
      <stop offset="0%" style="stop-color:#F0FFF0"/>
      <stop offset="100%" style="stop-color:#004B00"/>
    </radialGradient>
  </defs>
  <path id="color-forest-mist" class="color" d="M2048,0v2048H0V0h2048Z" fill="url(#forest-mist-gradient)"/>
    </g><g class="trait-group" data-category="jaw" id="jaw-robo">
      <path id="fill-jaw-robo1" fill="#ffffff" d="M1369.9 1062.1c.4.5 1 11.1 1.4 13.1 11.6 61.7 25.9 123 37.2 184.8 16.2 20.3 35.3 38.1 51.5 58.4l-70.1 149.9-2.3 1.6-31.6-1.9-7.8 59.7-101.2 128.8c-1.6 1.1-2.6-.6-3.6-1.6-11.2-11.1-20.8-28.6-32-40-1.3-1.3-2.6-3.5-4.8-2.9-3.4.9-32.4 51.8-38.3 57.8-25.8 9.8-49.6 24-74.7 35.3-8.9 4-63.2 23-65.1 25.9-.6 1-.4 2.8-.6 2.9-.2.2-3.1-.9-4.4-.9s-3.2 1.3-3.6.9c-.3-.3.7-2.4-2.3-4.2-13.4-8.1-38.6-14-54.4-20.6-28.2-11.8-54.4-28.3-83.3-38.7-6.3-5.8-35.3-57.4-38.7-58.4-2.2-.7-4.5 2.4-5.9 3.9-11.6 12.1-21.3 28.8-33.1 41l-1.9-.9-100.9-128.1c-3.2-19.9-5.4-39.9-7.5-60l-31.6 1.9-2.5-1.4-69.8-149.3c-.3-1.9 4.6-7.3 6.3-9.3 14.5-16.8 30.7-32.1 44.6-49.4 10.6-62 27.2-123.3 37.7-185.3.5-3.2-.7-11.9 2-13.3 104.8-21.7 209.7-42.7 314.5-64.3 7.3-1.5 24.9-7.3 30.5-7.5 4.2 0 24.8 6.2 31.1 7.5 105 21.6 210.1 42.9 315.1 64.4v.2z" class="fill" data-original-prefix="fill"/><path id="shading-jaw-main" fill="#aaaaaa" d="m1369.9 1062.1 28.1 145.4c-4.8-.6-19.2-17.4-22.3-16.4-3.4 1-21.1 37.8-20.7 42.4 12.3 15.8 24.8 31.6 35.4 48.6 3.7 5.9 15.5 24.5 15.6 30.5 0 4.7-10.7 25-13.5 30.5-4.5 8.7-9.8 16.9-14.5 25.5 17.3-8 33.9-18.4 49.3-29.7 4.1-3 10.3-7 13.7-10.3 2.3-2.2 12.4-16.5 13.5-16.5l5.5 6.4-65.1 139.9-6.5 11.5-32.3-1.9-7.8 59.7-101.2 128.8c-1.6 1.1-2.6-.6-3.6-1.6-11.1-11.1-20.8-29.2-31.9-40-.8-.8-1.6-2.1-2.9-1.9-7.3 1.3-32.3 48.3-39.7 55.4-30.9 14.9-60.7 32.4-91.6 47.4-12.8 6.2-33.2 17.2-46.8 18.2-23.7 1.7-37.4-7.3-57.9-17.2-31.4-15.1-61.6-32.8-93-48-8.2-6.6-32.8-54.4-40.3-55.8-2.8-.5-31.3 38.2-35.8 43-1 1.2-2 1.2-3.1 0l-100.9-128.1-7.5-60-31.6 1.9-2.5-1.4-69.8-149.3c-.3-3.1 3.7-7.8 6.8-5.8 1.9 1.2 8.8 11.9 11.5 14.6 2.9 2.9 7.8 6.2 11.2 8.8 4.5 3.4 49.2 33.3 51.3 31.2-7.3-15.4-17.3-29.8-23.8-45.6-1.2-2.9-3.2-6.7-3.2-9.9 0-5.3 10.4-22 13.7-27.4 11-18.2 24.3-34.9 37.4-51.6-4.2-15.2-12-29-20.1-42.3-.9-.5-2 0-2.9.4-6.3 3.4-12.9 13.3-20 16.5l28.1-145.9 45.8-9.7c48.2-55 116.4-93.5 184.8-118.2 72.2-26 130.6-31.5 205-8.5 77.7 24 155.9 65.5 210.3 126.7zM854 1330c-21-6.7-43.3-4.3-64.4-11.1-14-4.5-30.8-14.7-42.9-23.1-18.1-12.6-35.7-28.4-49.2-45.8-10.7 14.6-22.1 30.4-30.7 46.3-4.3 8-11.3 21.1-7.7 30.1l27.1 48.4c6.1 1.6 17.5-4.7 22.8-2.3 1.5.7 2.4 3.5 4.5 3.5s4.4-5.1 7-5.1 3.4 4.4 7 4.1 5.2-6.6 7.2-7c.5 0 8.2 2.7 8.6 2.9 4.7 2.4.3 18-3.2 21.4.3 1.5 14.2 9.3 16.4 9.6 2.9.5.2-2.4 1-4.9s6.5-6.3 8.8-5.9c5.4.9 6.3 10.2 14.7.3 1.9-2.2 0-4.1 4.5-4.6 8.5-1 5 8.4 7 14.1 12.4-17.2 20.2-37.4 32.1-54.9l29.4-16.1Zm507.8 44.8c8.8-17.7 20.1-34.4 28.2-52.3-.4-8.9-2.9-14.5-6.9-22.2-8.9-17.4-21.4-34.4-32.7-50.3-21.1 25.5-52 52.2-82.8 65.2-24.8 10.4-48.4 7.8-73.7 14.8l29.7 16.3c11.6 17.6 19.4 37.7 31.8 54.7.9-1.8 1-13.5 1.5-14s7.3-.2 7.8.2c1 .6 1.6 7.8 6.9 8.7 6.3 1.1 7.7-7.8 15.4-2.8 2.7 1.8 3.1 6 2.8 8.9 1.2 1.4 17.7-8.3 18-9.6.2-1-3.9-5.8-4.6-8.4-2.2-9.5-1.5-13.7 8.4-14.8 5.3-.6 2.8 2.2 5.5 4.5 4.6 4 7.8-2.7 10-2.6 2.7.2 5 4.9 7.2 4.9s3-2.8 4.5-3.5c5.2-2.4 16.6 3.8 22.8 2.3zM1078 1327c-5.5-11.1-10.5-24.8-17.6-34.9-4.2-6.1-10.2-10.5-14.9-16.1-3.4-4-15.2-20.5-18.4-21.6-1.9-.6-4.4-.8-6.3-.2-2.4.7-15.7 18.7-18.7 22.3s-7.4 6.8-10.5 10.5c-9.4 11.2-15.1 26.9-21.5 40h108Zm-353.8 172.8c24.8 5.4 50.2 7.7 75 13.6 17.3 4.1 20.3 3.6 29.6 19.4 5.3 8.9 9.2 18.7 14.2 27.8l17 14-29.2-80.8c-2.4-5.8-8-8-13.1-10.9-22.2-12.9-51.7-27.2-75.7-36.3-2.6-1-8.1-3.8-10.4-3.5-1 0-15.6 9.5-16.3 10.3-6.3 7.6 6.8 37.2 8.9 46.5Zm599.6 0c2.5-10.6 8.2-22.1 9.8-32.7.8-5.7 1.7-10.9-3-15.1-1.1-1-13.2-8.9-14-9-2.5-.3-19.4 7.2-23.2 8.8-20.7 8.8-45.7 20.5-65 32-5.6 3.4-8.8 4.9-11.8 11.2l-28.5 80 16.4-14.1c7.1-10.9 14.9-35.4 25.9-42.1 6.1-3.8 19.9-5.9 27.5-7.5 21.8-4.6 44.2-6.7 66-11.5zM908.5 1649v1c.7-.3.7-.7 0-1m229.5 1c-31 8.8-60.6 26.8-91 36.5-19.3 6.2-28.3 5.9-47.5-.4-28.3-9.3-56.5-25.5-85-35.1-1.2-.4-3.6-1.8-4.5-.5.8 2.1 2.7 4.2 4 6 4.9 6.3 18 23.3 23.5 27.5 7.2 5.5 27.9 14.6 37.1 18.9 5 2.3 20.9 10.5 24.9 11.1 9 1.4 36.3 1 46 0 7-.6 57.7-24.6 64.4-29.6 5.3-3.9 18.2-20.8 23-27 .8-1 5.8-6.8 5-7.5Z" class="outline shading" data-original-prefix="shading" opacity="0.5" style="opacity: 0.5"/><path id="outline-jaw" fill="#000000" d="M670 1105c2 .2 9.2 3.6 9.8 5.7 1 3.3-1.3 18.1-2 22.7-6 41.8-19.7 84.1-28.6 125.4-12.3 18.3-29.3 33.5-43.8 50.2-1.2 1.3-6.5 7.5-6.5 8.5l56 135.5c1.5.4 1.7-.4 2.5-1 7.1-4.9 23.9-23.3 30.5-30.5 1.5-1.6 9.9-11.2 10-12-17.6-32.9-42.5-63.1-49.8-100.8 17.2-28.9 35.3-57.4 56.9-83.2 6.2-7.4 21.8-27.5 32-26.1 4.7.6 8.6 4.8 6.4 9.5-23 21-44.9 44.7-62.7 70.3-3.2 4.6-15.2 22.2-15.6 26.5-.5 5.1 11.8 29.8 15 35.6 7 12.8 29.4 46.8 40.5 54.5 2.8 1.9 7 3.2 10 5 77.7 46.7 153.2 90.1 243.1 109.9 13.1 2.9 37.4 9.1 49.8 9.2 11.3 0 33.7-5.7 45.6-8.2 92.6-19.7 168.3-62.9 248.1-110.9 3.1-1.8 7.2-3.1 10-5 11.1-7.7 33.4-41.8 40.5-54.5 3.2-5.8 15.5-30.5 15-35.6-.4-3.9-10.7-19.3-13.6-23.5-18.3-27-40.8-51.3-64.7-73.3-2.5-9.2 6.9-10.8 13.8-7.8 10.7 4.6 40.4 44.2 48.5 55.5 11.9 16.7 22.3 34.6 33 52.1-7.3 37.7-32.2 67.9-49.8 100.8 0 .8 8.5 10.4 10 12 6.6 7.2 23.4 25.6 30.5 30.5.8.6 1 1.4 2.5 1l55.8-135.3c-15.4-20.6-35.6-37.7-50.1-58.9-8.6-41-22.6-83.1-28.6-124.4-.7-4.8-3.1-20-1.9-23.7.6-2.1 8-5.5 9.8-5.7 4.6-.4 10.8 5.1 11.9 9.6 8.1 44.1 13.6 92.9 27.6 135.4 9.1 27.6 33.8 39.8 52 60 4.9 5.4 6.6 7.2 4.8 14.8-2.1 8.6-9.2 23.2-12.8 32.2-16.7 41-35.5 81.7-54.5 121.5-2.5 2.1-18.6 9-21.4 8.6-4.6-.7-13.3-13.3-18.5-15-3.1 22.3-7.1 44.7-11.8 66.7-29.2 38.3-55.4 79-82.3 118.7-10.2 4.1-22.2 12.3-32.2 15.8-1.5.5-3 1.3-4.6.7l-24.6-43.9c-1.1.5-16.2 15.9-17.3 17.7-6.5 10.1-3.8 21-14.2 29.8-22.9 19.1-72.2 40.2-100.7 51.3-18.6 7.3-34.3 14.2-54.7 14.3-24 .2-49.5-11.4-71.5-20.6-23.2-9.8-67.3-29.4-85.5-45.5-10.3-9.1-7.3-19.2-13.7-29.3-1.1-1.7-16.2-17.1-17.3-17.7L812 1674c-1.6.6-3.1 0-4.6-.7-10.1-3.5-22-11.7-32.2-15.8-26.9-39.8-53.1-80.4-82.3-118.7-4.7-22-8.6-44.4-11.8-66.7-5.2 1.7-14 14.4-18.5 15-2.8.4-18.9-6.5-21.4-8.6-19-39.8-37.8-80.5-54.5-121.5-3.6-8.9-10.8-23.6-12.8-32.2-1.8-7.6 0-9.4 4.8-14.8 13.4-14.9 37.6-30.5 47.2-47.8 7.3-13.1 12.4-41.8 15.8-57.2 4.5-20.4 8.5-41.2 12.2-61.8 1.5-8.5 1.8-19.4 3.7-27.3 1.2-5 7.2-11.3 12.6-10.9zm664.9 411.9 14.2-77.4c-.2-3.8-5.4-5.5-8.1-8-2.9-2.7-5.4-5.9-8.6-8.3-82.7 31.3-155.3 82.7-242.3 103.3-57 13.5-94.2 11-150.2-4.8-69.9-19.7-131-59.2-197.1-87.9-6-2.6-20.1-9.4-25.7-10.4-2.8-.5-7.7 6-10 8.1-2.1 2-7.6 4.5-8.1 7l14.2 78.3c17.8 1.1 35.6 3.8 53.4 5.1 9.3.7 42.4-.4 47.8 3.9 8.5 20 14.6 41 23.2 61 2.8 6.5 6.2 15.2 9.9 21.1 5.4 8.7 15 14.9 20 23.1 5.6 9.2 8.1 23.6 15.5 31.5 5.1 5.5 21.6 15 28.8 19.2 31 18.4 83.7 44.6 119.8 42.2 30.1-1.9 87.2-31 113.4-47.6 5.2-3.3 16.2-9.8 20.1-13.9 7.2-7.5 10.4-24.2 16.1-32.9 2.7-4.1 8-7.8 11.3-11.7 8.3-9.7 11.9-17.5 16.9-29.1 9-20.6 15.3-42.4 24.2-63 14.6-5 32.2-2.8 47.8-4 17.8-1.3 35.6-4.1 53.4-5.1v.3ZM801 1649c5.8-16.3 16.4-30.6 24.8-45.6-4.3-11.7-7.5-23.9-12-35.6-2.2-5.8-7.4-19.7-10.9-24.1-10.8-13.6-69.6-12.5-86.9-16.6-.5 1.7.7 2 1.5 3 13.4 17.3 27.7 33.6 40.3 51.7 15.2 21.9 28.4 45.1 43.2 67.3Zm531-122c-17.3 4.1-76.1 3-86.9 16.6-3.5 4.4-8.6 18.3-10.9 24.1-4.5 11.7-7.7 23.9-12 35.6 8.4 15.1 18.9 29.3 24.8 45.6 14.7-22.2 27.9-45.4 43.2-67.3 12.6-18.1 26.9-34.3 40.3-51.7.8-1 1.9-1.3 1.5-3Z" class="outline" data-original-prefix="outline"/><path id="outline-jaw1" fill="#000000" d="M785.7 1376.3c8.1 7.2 8.5 18.5 4.1 27.9-5.2 10.9-19.3 10.7-26.7 2.3-15.1-17.3 3.6-47 22.7-30.2Zm-12 4.9c-10.7 1.7-7.7 23.9 4.7 21.8 10.2-1.7 4.4-23.3-4.7-21.8" class="outline" data-name="outline-jaw" data-original-prefix="outline"/><path id="outline-jaw2" fill="#000000" d="M1262.3 1376.3c22.7-20.1 40.5 23.7 16.9 34.4-21.7 9.8-31.5-21.5-16.9-34.4m10.4 4.9c-10.5 1.7-12.6 25.9 1.3 21.4 10.1-3.2 8.1-22.9-1.3-21.4" class="outline" data-name="outline-jaw" data-original-prefix="outline"/><path id="outline-jaw3" fill="#000000" d="M723.7 1356.2c15.6-2.8 28.9 19.5 15.8 29.8-10 7.8-24 0-26.8-11.2-1.8-7.1 3.5-17.2 11-18.6m9.1 22.6c6.5-6.5-8.3-22.1-11.4-7.8-1.5 7.3 7.1 12.1 11.4 7.8" class="outline" data-name="outline-jaw" data-original-prefix="outline"/><path id="outline-jaw4" fill="#000000" d="M1317.7 1356.2c14.2-2.9 23 13.6 14.3 25.3-12 16-34.6 4.8-27.5-13.5 1.7-4.3 8.7-10.8 13.2-11.8m-2.5 22.6c4.3 4.3 12.9-.5 11.4-7.8-3-14.3-17.9 1.3-11.4 7.8" class="outline" data-name="outline-jaw" data-original-prefix="outline"/>
    </g><g class="trait-group" data-category="mouth" id="mouth-jaws">
      <path id="fill-mouth-main" fill="#ffffff" d="M1102 1287c.4.6-2.2 4.3 0 5.5 50.4 27.6 100.7 55.4 145.8 91.1-5.2 15.8-10.4 31.6-16.7 47.1-5.9 14.4-8.3 22.4-12.7 37.3-13 44.8-25.3 89.9-38.3 134.7-3.4 15.6 7.3 31.3 8.8 45.8.5 5.4-1.6 24.6-3.1 29.9-2.4 8.9-12.3 10.5-19.9 15.1-23.1 14.2-44 33.8-68.7 45.3-38.6 17.9-94.7 18.9-134.6 4.9-30.8-10.8-53.7-33.5-80.8-50.2-5.6-3.4-16.3-6.9-18.8-12.2-2.2-4.7-4.6-27.2-4.1-32.9 1.2-14.4 12.1-30.2 8.8-45.8-13.8-47.4-26.5-95.2-40.5-142.5-3.7-12.4-5.6-17.8-10.5-29.5-6.4-15.4-11.4-31.2-16.7-47.1 45.2-35.6 95.4-63.7 145.8-91.1 2.2-1.2-.5-4.8 0-5.5.2-.2 3.4-1.1 4.7-1.9 25.5-15.1 52.3-31 83.7-27.1 24.4 3.1 42.7 15.5 62.9 27.1 1.2.7 4.5 1.7 4.7 1.9h.2Z" class="fill" data-original-prefix="fill"/><path id="fill-mouth-teeth13" fill="#ffffff" d="m1042 1510-1.9 71.5c-.9 11.5-1.7 23.4-2.1 34.9-.2 7.7 1.3 20.2 0 27-.5 2.5-12.9 11.6-14.3 11.4-1.2-.2-13.2-8.9-13.7-11.4-.2-44.5-3.3-88.9-4-133.5l17.6 16.9 18.3-16.9Z" class="fill" data-original-prefix="fill"/><path id="fill-mouth-teeth12" fill="#ffffff" d="m1000 1637-20-15.5c-1.8-.5-2.8-4.4-3-4.5-.8-.5-3 3.8-5 3-.4-20.5-.2-41.1-1-61.5s-2.9-41.1-2.5-61.4l11-14c3 4.2 18.8 16.6 19.2 20.6.4 3.5-.9 11.2-.8 15.9.8 20.4 1.8 41.5 2.1 61.9.2 18.5-.2 37 0 55.5" class="fill" data-original-prefix="fill"/><path id="fill-mouth-teeth11" fill="#ffffff" d="M1076 1620c-2 .8-4.2-3.5-5-3-.2.2-1.2 4.1-3 4.5l-20 15.5c.2-18.5-.3-37 0-55.5.2-20.4 1.3-41.5 2.1-61.9.2-4.7-1.2-12.4-.8-15.9.4-4 16.2-16.4 19.2-20.6 2.1 3.9 9.5 10.8 11 14 1.8 3.8-1.3 28.2-1.5 34.4-.3 9-.7 18.1-1 27-.7 20.5-.6 41.1-1 61.5" class="fill" data-original-prefix="fill"/><path id="fill-mouth-teeth10" fill="#ffffff" d="M1114 1651c-3.8-.4-4.7-3.2-5-6.4-1.4-14.4 1.7-35 2.1-50 .6-21.9 0-43.7 2-65.5 3.3.2 4.2 1.9 7.1-.4 6.2-5.1 13.2-22.1 19.9-28.8s2.8-2 3-1.8l-9.1 120.4-20 32.6Z" class="fill" data-original-prefix="fill"/><path id="fill-mouth-teeth9" fill="#ffffff" d="M907.7 1499.3c7 6.2 13.8 23.9 20.3 29.2 2.9 2.4 3.8.6 7.1.4 1.5 10.5.6 21 1 31.5.7 20.9 1.5 42 2 63 .2 5.8 4.1 25-2.5 27.4-1.7.6-6.8-10-8.5-11.4l-12.9-21.1c-3.3-40.1-5.6-80.4-9-120.4 0 0 2.2 1 2.7 1.3h-.2Z" class="fill" data-original-prefix="fill"/><path id="fill-mouth-teeth8" fill="#ffffff" d="M903 1601c-7.1-6.3-5.5-23.9-18-13l-17-142c10.4 12.2 19 26.1 28 39.5 1.9 38.5 3.8 77.1 7 115.5" class="fill" data-original-prefix="fill"/><path id="fill-mouth-teeth7" fill="#ffffff" d="M1163 1588c-12.5-10.9-10.9 6.7-18 13l4-51.5 3.1-63.9c8.9-13.4 17.5-27.3 27.9-39.5l-17 142Z" class="fill" data-original-prefix="fill"/><path id="fill-mouth-teeth6" fill="#ffffff" d="M963 1507c-.7 40.2 2 80.1 2 120.3-1.9 1.4-17.9 15-19 13.7.9-38.3-2.3-76.2-2-114.5l15.4-18.6z" class="fill" data-original-prefix="fill"/><path id="fill-mouth-teeth5" fill="#ffffff" d="M1102 1641c-1.1 1.3-17.1-12.3-19-13.7.4-22.3.5-44.6 1-66.8 0-2.4 1-4.6 1.1-6.9.3-15.5-.3-31.1 0-46.5l3.6.9 15.4 18.6c.3 38.2-2.9 76.2-2 114.5Z" class="fill" data-original-prefix="fill"/><path id="fill-mouth-teeth4" fill="#ffffff" d="M875 1581c-1.5.2-1.3-1.7-1.7-2.8-3-8.8-6.1-18.6-8.6-27.4-10.7-37.7-11.6-78.6-17.8-117.3 0-3.9 3-6.9 5.6-9.5 3.4 3.5 5.8 6.6 6.4 11.6 1.2 10.1 1 21.5 2.1 31.9 3.8 35.2 11.2 72.2 14 107 .2 2.2 0 4.3 0 6.5" class="fill" data-original-prefix="fill"/><path id="fill-mouth-teeth3" fill="#ffffff" d="M1172 1580c6.3-40.6 11.8-81.6 16-122.5 1.2-11.5-1.6-25.4 7.5-33.5 2.6 2.6 5.7 5.5 5.6 9.5-7.6 47.5-8 99-26.1 144-.6 1.6-.8 2.9-3 2.5" class="fill" data-original-prefix="fill"/><path id="fill-mouth-teeth2" fill="#ffffff" d="m843 1439 4 53-5.7-15.8c-1-7.8-7.5-23.8-4.4-30.8.5-1.1 2.9-4.1 3.8-5.2.6-.7 0-1.9 2.3-1.3Z" class="fill" data-original-prefix="fill"/><path id="fill-mouth-teeth1" fill="#ffffff" d="M1207 1439c.3.3 4.7 7.3 4.8 7.7 1.3 4.9-3.4 23.5-5 29.5l-5.7 15.8 4-52.5c0-.9 1.9-.6 2-.5z" class="fill" data-original-prefix="fill"/><path id="shading-mouth4" fill="#aaaaaa" d="m900 1319-56.5 57-14 16c-1.9 4.1 3.2 15.8 2.5 21 4.2-1.8 14.7-13.4 18.4-13.1 4 .3 8.8 14.9 10.3 18.8 2.5 6.3 4.5 12.8 6.8 19.2 18.7 24.5 38.6 48.2 57.4 72.6 3.8 5 3.2 9.2 10.1 7 3.2-1 13.7-10.2 17-13 10.5-9 19.8-20 30.5-28.6l41.1 41 41.9-41c13.1 10.8 24.4 24.6 38 35 3.2 2.5 10.4 9 14.5 6.5l61.8-79.2c3.6-6.3 11.7-36.7 16.9-38.2 4.6-1.3 17.3 14.1 19.3 11.9-.8-5.2 4.4-15.8 2.5-20-20.7-25.2-46.1-46.1-68-70-.7-.7-2.7-2-2-3 34.5 16.7 65.1 39.8 96 62 2.5 5.1-7.2 33.5-9.8 40.2-2.7 7.3-6.2 13.8-9.2 20.8-3.2 7.3-3.5 21.2-14.5 14l-8.5 50-2.5 1c-.2-19.8 1.9-39.7 4-59.4-2-4.9-6.9-13.6-8.8-3.8-4 21.5-4.5 48.2-7.4 70.6-3.6 28-8.2 56-12 84-2 14.9-3.3 16.2 1.9 31.4 1.3 3.8 7.2 14.6 7.4 16.7s-6.3 26.7-7.6 29.5c-2.4 5.5-34.3 27-41.2 30.8-23.5 12.8-65.3 23.2-92 27-44.3 6.3-112.7-12.8-149.7-38-4.2-2.9-22.5-15.7-24.1-18.9-1.2-2.3-7.8-28.2-7.7-30.4 0-2.1 7-16.2 8.3-20.7 4-13.7 2.7-13.4.9-26.4-7.5-52.8-15.1-105.5-20.4-158.6-2.2-5.2-7.7 4.9-7.9 7.8 2.1 19.4 4 39 4.1 58.5h-3l-8-51c-11.6 7.2-11.3-6.6-14.5-14-5.7-13.3-11.5-25.2-15.5-39.5-1.5-5.2-6.1-18.6-2.5-22.6 31.2-21.3 60.9-45.2 95.5-60.9zm-34.5 137v1c.7-.3.7-.7 0-1m315.5 1c-3.8 9.4-17.3 19.9-21.1 28.4-3.4 7.8-1.6 20.7-3.9 29.1l-3 60c.6 3 10.1 7.9 13.4 8.4zm-286.2 118.8c-1.8-29.7-2.2-59.6-6.1-89.1-7.3-9.7-14.3-20.1-22.7-28.8l14 125c6 0 10-4.5 14.8-7.2ZM995 1627c-.8-15.5-.4-31.1-1-46.5-.7-20.6-1.2-43.5-3-63.9-.3-3.6-.4-13.4-4.5-13.5-2.5 0-20 10.7-20.5 13.5 2.4 20.6 1.2 41.4 1.9 62 .2 6.2.6 13.8 1.1 19.9s3 12.8 2 19.5l5.4-5c1.5 2.2 17 15.7 18.6 14m82-10c-.8-6.9 1.6-13.7 2.1-20.4 1.1-17.4.3-35.7.9-53.1.3-8.7 2-18.1 2-26.9s-1-2.1-2-3c-2.2-1.8-17.3-10.9-19.3-10.4-2.9.7-3.4 7.6-3.7 10.4-3.3 35.8-2.8 74-4 110 0 1.4 0 2.9-1 4 5.2.7 17.8-14.1 19.5-14.5 2.3-.5 2.5 4.7 5.4 4Zm-146 17c-1.9-32.1-.2-64.4-2-96.5l-26-32.5c2.8 32.1 2.9 64.2 5 96.4 6.9 11.3 14.5 22.3 23 32.5Zm187 0 22-32.5c1.9-32.2 2-64.3 5-96.4l-26 32.5c-2 25.3-.4 50.7-1 76-.2 5.9-1.4 11.5-1 18 0 1.1-.7 2.8 1 2.5Zm-175 2c.8.8 16.4-9.7 17.5-11 .7-.8 1.5-1.4 1.4-2.6-.7-33.9-2.5-67.6-4-101.5-3.4 2.4-16.3 10.2-17 13.5-.2 33.9 0 67.8 2 101.5Zm101-115c-4.9 2.7-10.4 10.7-15.7 11.8-11.9 2.5-16.1-5.4-24.3-11.8 1.3 37.5 2.3 74.9 2 112.5.8 4 14.2 9.4 17.7 12.4 3.7-2.5 17.6-8.6 18.3-12.4-.2-37.6.2-75.1 2-112.5m61 115c1.6-33.8 2.3-67.6 2-101.5-.7-3.7-13.7-10.5-17-13.5-1.8 33.8-3.7 67.5-4 101.5.2 2.9 18.2 14.4 19 13.5m-167.3 18.7c-1 .9-2.6 1.5-4 1.2-3.8-1-23-30.3-27.3-35.8L895 1607c-.4 4.4-1.3 8.8-2.5 13-1.6 5.4-8.4 19.9-8.6 23.5 0 2.9 4.5 19.8 5.8 23.3.7 1.9 1 3.9 2.9 5.1 29 14.8 52.4 35.8 84.2 44.8 31.1 8.9 64.2 8.8 95.2-.2 31.6-9.2 55.5-30.5 84.3-45.4.8-.4.9-1.2 1.2-2 1.2-3 6.7-24.2 6.5-26.5-.3-3.3-5.8-13.4-7.3-17.8-1.8-5.8-3.1-11.8-4.2-17.8-2.2 3.1-5.1 5.6-7.5 8.5-8.8 10.8-17.2 26.4-26.1 35.9-1.6 1.8-3.2 3.6-5.6 4.3l-43.7-28.7c-4.3 3.6-8.6 8.8-13.3 11.7-8.2 5.1-15 6.1-23.4 13.6-2.3 2.1-3 5.8-6.5 6.5-8.1 1.6-7.3-2.8-11.5-6.4-7.2-6.1-10.9-7.5-18.9-11.1-6.3-2.8-12.3-10-17.6-14.4-12.8 7.9-26.2 15.6-38.3 24.5-1.3.9-1.6 2.5-2.3 3.1v.2Z" class="outline shading" data-original-prefix="shading" opacity="0.5" style="opacity: 0.5"/><path id="shading-mouth3" fill="#aaaaaa" d="M1118 1345c-1.5 1.5-1.8-.6-2.3-1.3-1.8-2.3-6.1-7.1-7.1-8.8-1.8-3.2-.9-7.3-2.6-9.4-2-2.4-11.1-9.6-14.1-11.9-17.8-13.8-38.6-25.3-56-40-3.6-5.4 6-7.7 4.1-13.6.4-.4 8.3 1.9 9 2.5 1.9 1.6 0 5.2 2 7l68.4 49.6c2.9 2.8-.3 24.8-1.4 25.9" class="outline shading" data-original-prefix="shading" opacity="0.5" style="opacity: 0.5"/><path id="shading-mouth2" fill="#aaaaaa" d="M1008 1260c-2.1 5.5 7.8 8.5 4.1 13.6l-61.1 43.9c-10.3 7.3-11.1 16.5-18.7 26.2-.5.7-.7 2.7-2.3 1.3-1.1-1-5.1-24.3-1-26.5l68-49c2-1.9 0-5.2 2-7 1-.9 8.7-2.9 9-2.5" class="outline shading" data-original-prefix="shading" opacity="0.5" style="opacity: 0.5"/><path id="shading-mouth1" fill="#aaaaaa" d="M1011 1355c1.1 4.6-4.9 8.9-3.6 13 1.1 3.3 13.8 10.8 16.2 14.9 1.2.2 16.5-14.1 17-15.9 1-3.6-5.2-7.6-3.6-12 6.9-2.5 17.3 6.5 15.8 13.3-.8 3.8-7.8 10.3-10.8 13.2-6 5.9-6.9 4.1-10.8 12.2-1.9 3.9-5.9 3.9-9.8 3.3-5.8-.8-4.3-4.3-6.4-7.6-4.4-6.7-23.9-15.6-19.3-26.2 2.2-4.9 9.7-10.1 15.2-8.2Z" class="outline shading" data-original-prefix="shading" opacity="0.5" style="opacity: 0.5"/><path id="outline-mouth" fill="#000000" d="M1006 1260c.4-2.1 4.7-6.2 6.5-7 2.2-1 1.8 3.9 2.5 5l-.5 19c-9.8 6.8-19.7 13.6-29 21-10.5 8.4-26.4 21.1-35.5 30.4-3.6 3.7-.7 4.6 2.7 7.3 14.2 11.7 34.2 18.3 52.3 20.2 1.2 1.2-6.6 10.7-4.8 13.8l23.5 23.1c1.5.3 18.4-18.6 21.4-21.5.8-.8 2.6-1.3 2.8-1.6 1.8-3.1-6-12.7-4.8-13.8 18.1-1.9 38.1-8.5 52.3-20.2 3.3-2.8 6.3-3.7 2.7-7.3-9.1-9.4-25-22-35.6-30.4-9.3-7.4-19.2-14.2-29-21-1.1-1.8-.6-15.7-.5-19 0-1.1-.9-6 1.5-5 2.1.9 6.1 6.1 7.5 7-1.8 1-1 3.4-.5 5 3.8 10.3 55.3 44.8 67.4 54.6 1.8 1.5 8 6 8.6 7.4 2.3 5.4-.6 18.1-.5 24.5 0 4.3 3.4 17.4 1.1 20-1 1.1-12.4 6.6-15.3 8.7-15.1 10.7-26.8 28.3-34.7 44.8-1.5.4-1.7-.4-2.5-1-5.2-3.6-23.3-26.5-26.1-26.9-5.3 3.9-11.8 6.3-12.4 13.4-1.2 13 1 27.8 0 41.1l3.1 42.5 34.4-35.1 2.9-.9c13.6 15 26.1 31.3 40.1 46 1.3 1.4 9.3 10.1 10.5 9 3.5-11.2 11.6-21.6 18.2-31.3 19-27.8 40.6-53.8 59.3-81.7.8-.7.7-1.5 1.5-.4 7.1 9.4 13.4 20.9 20.5 30.4l17.6-43.4-157.1-108.6 2-3c36.8 19.5 75.4 39.4 110.9 61.6 21.2 13.3 40.5 29.5 61.9 42.6.6 1.1.2 2.9 0 4.2-.7 7.6-9.9 31.6-13.2 39.9s-7.1 16.1-11 24l-44.5 161.6c.4 12.4 9.3 27.7 9.8 39.7.3 6.8-1.7 25-3.2 31.9-.4 2.2-1.7 6.3-3 8-1.2 1.6-15.8 8.4-19.4 10.6-24.6 15-45.2 35.2-72.5 46.5-40.8 16.9-104 16.8-144.7-.3-27-11.3-47.4-31.4-71.8-46.2-3.6-2.2-18.2-9.1-19.4-10.6-1.3-1.7-2.6-5.8-3-8-1.4-6.9-3.5-25.1-3.2-31.9.6-12.2 9-27.1 9.8-39.7-13.1-46.2-25.7-92.7-39.3-138.8-2.2-7.3-3.2-16.5-5.7-23.3s-7.5-14.1-10.5-21.5c-5.5-13.7-9.1-28.1-14.2-41.9-.3-1.7 0-3.3 1.4-4.4 24.1-15.7 46.6-33.8 71.2-48.8 32.3-19.7 66.7-38.2 100.3-55.2l3 3-157.1 108.6 17.6 43.4c7.1-9.6 13.4-21 20.5-30.4.8-1.1.7-.3 1.5.4 18.8 27.9 40.3 53.9 59.3 81.7 6.6 9.7 14.7 20.2 18.2 31.3 1.2 1.1 9.2-7.6 10.5-9 14-14.6 26.5-30.9 40.1-46l2.9.9 34.4 35.1 3-42.5c-1-13.2 1.2-28.1 0-41.1-.7-7.1-7.1-9.5-12.4-13.4-2.8.5-21 23.4-26.1 26.9-.8.6-1 1.4-2.5 1-7.8-16.5-19.6-34.1-34.7-44.8-3-2.1-14.3-7.5-15.3-8.7-2.3-2.6 1-15.7 1.1-20 0-6.4-2.8-19.1-.5-24.5.6-1.5 6.8-5.9 8.6-7.4 11-9 62.9-44.3 66.1-52.9 1.1-2.8.4-4.5.8-6.7zm-131 321c0-2.1.2-4.3 0-6.5-2.8-34.8-10.2-71.8-14-107-1.1-10.4-.9-21.8-2.1-31.9-.6-5-3-8.1-6.4-11.6-2.6 2.6-5.7 5.5-5.6 9.5 6.2 38.7 7.2 79.6 17.8 117.3 2.5 8.9 5.6 18.7 8.6 27.4.4 1.1.2 3 1.7 2.8m297-1c2.2.4 2.4-1 3-2.5 18.1-45 18.6-96.5 26.1-144 0-3.9-3-6.9-5.6-9.5-9.1 8.1-6.3 22-7.5 33.5-4.2 40.9-9.7 81.9-16 122.5m-329-141c-2.3-.6-1.7.6-2.3 1.3-.9 1.1-3.3 4.1-3.8 5.2-3.1 7 3.3 23 4.4 30.8l5.7 15.8-4-53Zm364 0s-2.1-.4-2 .5l-4 52.5 5.7-15.8c1.6-5.9 6.4-24.5 5-29.5 0-.4-4.4-7.4-4.8-7.7zm-304 162c-3.2-38.4-5.1-76.9-7-115.5-8.9-13.4-17.5-27.3-28-39.5l17 142c12.5-10.9 10.9 6.7 18 13m260-13 17-142c-10.4 12.2-19 26.1-27.9 39.5l-3.1 63.9-4 51.5c7.1-6.3 5.5-23.9 18-13Zm-163 49c-.2-18.5.3-37 0-55.5-.2-20.4-1.3-41.5-2.1-61.9-.2-4.7 1.2-12.4.8-15.9-.5-4-16.2-16.4-19.2-20.6l-11 14c-.3 20.3 1.8 41.1 2.5 61.4s.6 41.1 1 61.5c2 .8 4.2-3.5 5-3 .2.2 1.2 4.1 3 4.5zm76-17c.4-20.5.2-41.1 1-61.5.3-8.9.7-18 1-27 .2-6.2 3.3-30.6 1.5-34.4-1.5-3.2-8.9-10.1-11-14-3 4.2-18.8 16.6-19.2 20.6-.4 3.5.9 11.2.8 15.9-.8 20.4-1.8 41.5-2.1 61.9-.2 18.5.2 37 0 55.5l20-15.5c1.8-.5 2.8-4.4 3-4.5.8-.5 3 3.8 5 3m-168.3-120.7c-.4-.4-2.6-1.5-2.7-1.3 3.4 40.1 5.8 80.3 9 120.4l12.9 21.1c1.7 1.4 6.8 12.1 8.5 11.4 6.6-2.4 2.7-21.7 2.5-27.4-.5-21-1.3-42.1-2-63-.4-10.5.5-21.1-1-31.5-3.3.2-4.2 1.9-7.1-.4-6.5-5.3-13.2-23-20.3-29.2h.2ZM1114 1651l20-32.6 9.1-120.4c-.2-.3-2.5 1.3-3 1.8-6.8 6.7-13.7 23.7-19.9 28.8-2.9 2.4-3.8.6-7.1.4-1.9 21.8-1.3 43.7-2 65.5-.4 15-3.5 35.6-2.1 50 .3 3.2 1.2 6 5 6.4Zm-151-144-3.6.9-15.4 18.6c-.3 38.2 2.9 76.2 2 114.5 1.1 1.3 17.1-12.3 19-13.7 0-40.2-2.7-80.1-2-120.3m139 134c-.9-38.3 2.3-76.2 2-114.5l-15.4-18.6-3.6-.9c-.3 15.5.4 31 0 46.5 0 2.4-1 4.6-1.1 6.9-.5 22.3-.6 44.6-1 66.8 1.9 1.4 17.9 15 19 13.7Zm-60-131-18.3 16.9-17.6-16.9c.7 44.6 3.8 88.9 4 133.5.4 2.5 12.5 11.2 13.7 11.4 1.4.2 13.8-8.9 14.3-11.4 1.3-6.8-.3-19.3 0-27 .4-11.5 1.2-23.4 2.1-34.9l1.9-71.5h-.1Zm-112.9 165.9-39.6-64.9c-2.7 4.3-15.7 16.7-16.5 20.5-.5 2.3 0 6.3 0 8.8.5 6.2 3.4 24.2 5.1 29.9 2.2 7.3 14 10.2 20.1 13.9 44.8 27.9 79.7 46.3 135.2 43.8 47.1-2.2 77.9-20 116.2-43.8 6.1-3.8 17.8-6.6 20.1-13.9 1.7-5.7 4.6-23.7 5.1-29.9.2-2.5.6-6.5 0-8.8-.7-3.8-13.8-16.2-16.5-20.5l-40.1 65.1-48.9-32.8-45.1 37.7-45.8-37.7c-6.8 2.2-46.8 34.1-49.4 32.6Z" data-original-prefix="outline" class="outline"/>
    </g><g class="trait-group" data-category="eyes" id="eyes-aviators">
      <!-- Semantic Classes:
    - fill: Areas that can be colored by the user (default: white)
    - shading: Areas that provide depth/shading (default: gray, 50% opacity)
    - outline: Lines that define the shape (default: black)
  -->
  
  
  <path id="fill-eyes-main" d="M1421.5,1220.6c-.3.6-8.8,2-10.4,2.1-4.8.4-15.8-1.8-18,3-2.8,30-4.2,58.5-16.7,86.3-10.3,23-35.2,57.7-58.2,68.8-30,14.6-98,10-129.5-.9-21.7-7.5-62.4-49.9-79.2-67.8-14.7-15.6-36.7-38.2-49-55-2.3-3.1-2.7-8.1-3-8.5-1-1-6.2,1.2-7.9.5-.6-.3-9.2-8-10-9-4.5-5.8-2.4-10.3-12.6-9.6-6.6.5-5.5,5.8-9.5,10.5-.9,1-8.4,7.8-8.9,8-4,1.5-8.1-3.5-15.1,4-18.2,19.5-35.3,41.4-53.9,61.1-19.6,20.7-56.2,59.4-82.8,67.2-31.3,9.1-92.1,13.6-121.9.5-28.7-12.7-59.2-59.7-67.8-89.2-6.3-21.6-6.6-45.2-9.7-67.3-2-3.1-15.1-2.3-19.2-2.8-1.7-.2-7.5-1.2-8.4-2.1-2.5-2.5-2.8-27.2-4.3-32.3-.2-1.4.3-1.4,1.3-1.8,5.7-2.5,20.8-1.6,25.3-5.7,6-11.4,9.3-26.8,19.4-35.6,2.6-2.2,6.7-2.1,4.6-5.5-2.7-4.3-20,0-21.5-7.5-1.3-6.8,5.7-32,8-39.9,7.8-26.3,27.3-70.8,46.9-90.1,6.5-6.4,7.6-3.2,14.5-4.5,3.3-.6,5.3-6.7,7.5-9.5,40.7-50.5,92.3-93.3,151.6-120.4,80.5-36.8,209.6-37,290-.3,59.2,27,110.4,69.5,151.3,119.7,2.3,2.8,5.7,9.9,8.6,10.5,7.2,1.4,8.7-2.3,15.5,4.5,24.3,24,47.4,83.1,53.5,116.5.6,3.2,2,10.7,1.4,13.5-1.6,8.2-20.9,1.9-22.8,8.2-1.9,6.2,5.4,12.9,8.3,18.3,2.4,4.4,8.1,20.4,9.9,22.1,4.7,4.2,23.9,4.2,25.1,5.9,1.8,11.6-1.8,22.9-2.4,34.1" class="fill" fill="#ffffff"/>
  <path id="fill-eyes-rims" d="M1415.7,1206.8c-.2-3-.4-6.1-.6-9.1-.3-5.7-4.5-10.5-10.5-10.5h-6.3c-1.2,0-2.4.2-3.4.5-.9-.3-1.9-.6-2.9-.8-2.3-.3-4.7-.3-7.1,0,2-23.3-16.1-42.7-36.1-51.8-11-5-22.6-8-34.3-11.1-12.5-3.2-24.9-6.7-37.4-9.7-8.8-2.2-17.6-3.5-26.5-4.3,2.5-6.2-.6-14.9-9.3-14.9-85.4,0-170.8.3-256.2.4h-68.7c-1-.3-2.2-.5-3.5-.5h-104.7c-9.6,0-12.4,10.7-8.3,16.8-10.3,1.4-20.6,3.2-30.8,5.2-24.8,4.8-50.1,10.3-72.3,22.8-11.9,6.7-23.7,15.6-30.8,27.5-2.9,4.9-4.7,10.2-5.6,15.7-1.1-.2-2.3-.4-3.6-.3-3.6.2-6.7,2.1-8.5,4.8-1.5-.2-2.9,0-4.3.2-2.5-1.2-5.4-1.6-7.8-1-6,1.7-8.2,7.3-7.3,12.9.7,4.2,1.3,8.4,1.9,12.7.7,4.6,5.9,7.6,10.1,7.7h3.6c3.3,1.9,5.7,5,7.4,8.5,1.3,2.7,3.9,4.3,6.7,4.9,4.4,36.9,9.5,75.8,31.7,106.7,21.4,29.8,54.4,44.8,90.2,48.7,18.6,2,37.9,1.2,56-3.7,16.9-4.5,32.8-12.5,47.3-22.2,14.8-9.9,28.4-21.5,41.3-33.7s25.6-24.8,36.6-38.7c12.9-16.2,23.6-34,29.3-54,5-17.3,6.2-35.5,4.1-53.3,14.6-1.9,29.3-3.3,44-2.5,4,.2,8,.6,12,1.3.3,0,1.7.3,3.2.7l-1.4,29.7c-.2,3.2.9,5.6,2.6,7.2,2.2,11.9,4.2,24.9,10,35.4,3.2,5.7,7.2,11.1,10.9,16.5,2.2,3.3,4.4,7,6.9,10.4,0,1.6.5,3.2,1.5,4.6,10.8,14.4,24.5,25.8,37.8,37.7,13.4,12,26.5,24.7,41.2,35.2,27,19.4,60.3,29.7,93.5,29.9,2.9,0,5.2-.9,6.9-2.5,15.4-1.6,31-3.4,45.7-8.6,16.6-5.8,29.9-15.5,40.5-29.5,21.2-28,34.4-62.2,39-96.9,1.3-10,2-20,1.8-30.1,0-2.2,0-4.4-.2-6.6.2.2.5.3.8.5,5.8,3.5,13.2,3.4,18.9,0,2.8-1.8,5.2-5.4,5-9v.2h0ZM951.2,1270c-9.4,13.1-20.7,24.8-32.2,36.1-11.2,11-22.7,21.8-35.2,31.3-12.2,9.3-25.6,17.9-39.9,23.4-15.8,6.1-32,8.6-48.8,8.2-29.5-.6-60.2-9.5-80.7-31.8-26-28.3-30.8-69.3-35.2-105.8-.2-1.9-.8-3.7-1.7-5.3.2-1.5.2-3,0-4.5-.5-3.1-1.1-6.2-1.6-9.3,6-9.2,2.6-20,6.1-29.9,3.1-8.9,11.3-15.5,18.9-20.5,19.3-12.7,42.2-18.1,64.5-22.8,48.7-10.1,100.1-15.6,149.1-4,20.8,4.9,43.5,13.1,54.7,32.6,1,1.8,2.4,3.1,3.8,3.9-.5,1.9-.6,3.9-.2,5.6,6.7,33.2-2.3,65.8-21.6,92.8M1062,1160.3c-.3,1-.5,1.9-.5,2.8-4.3-1.2-9.1-1.7-13.3-2.2-19.8-2.5-39.7-.2-59.4,2.5.2-1.9-.2-3.9-1.4-6-11.7-20.4-32.8-32.1-54.6-38.9l-6-1.8c66.8,0,133.6-.2,200.3-.3-1.7.4-3.3.8-5,1.3-12.5,3.6-24.6,9.6-35.9,16-10.9,6.1-20.3,14.3-24.2,26.6M1370,1227.4c0,9.5-.8,19.1-2.4,28.5-3.2,18.9-9.2,37.2-18,54.2-8.1,15.6-17.6,32.9-33,42.2-16.3,9.9-36.1,12-54.7,13.9-2.3.2-4.4,1-6.2,2.2-29.3-.5-57.7-9.9-81.5-27-1.4-1-2.8-2-4.1-3.1-1.1-3.4-3.9-6.2-8.2-6.7-8.4-7.2-16.4-14.9-24.6-22.2-10.4-9.3-21.8-18.2-30.9-28.9,0-2.9-.8-5.7-3-7.5-4.3-3.5-7-8.9-10.1-13.5-3.3-4.9-6.9-9.8-9.9-14.9-2.6-4.6-3.4-10-4.6-15.1-1.5-6.5-2.9-13.1-4.2-19.6-.2-.7-.4-1.4-.7-2.1.7-10,1.8-20.3,1.3-30.2,0-1.8-.4-3.4-.9-4.8,3.4-.6,6.5-2.9,7.9-7.1,2.3-7.2,9.6-11.4,15.8-14.8,8.9-4.9,18.1-9.6,27.8-12.6,21.1-6.6,44.6-6.7,66.4-7.6,11.4-.5,22.7-.7,34.1-.8,11.3,0,22.7,0,33.9,2,11.3,2.1,22.4,5.4,33.6,8.3,10.4,2.7,21,5.3,31.3,8.3,17.9,5.3,40.8,16.5,38.6,38.8-.4,4.1,2.5,7.7,6.1,9.4l-.6,1.5c-1.5,4.5,0,9.9.3,14.6.5,5,.6,9.8.5,14.6" class="fill" fill="#ffffff"/>
  <path id="fill-eyes-lens1" d="M1179.4,1134.1c40.9-2.7,97.1,4.9,136.2,17.2,22.2,7,37.6,14.4,44.9,38.1,14.9,48.3-2.6,130.7-47,159.8-31.6,20.8-93.5,20.9-124.8-1-21.1-14.8-46.4-35.3-63.6-54.4-29.9-33.2-63.5-74-40-121,15.1-30.3,63.8-36.7,94.3-38.7" class="fill" fill="#ffffff"/>
  <path id="fill-eyes-lens2" d="M834.5,1134.1c35.7-1.8,110.2,1.6,129,37.4,25.1,47.6-10.3,90.4-40.8,123.8-16.7,18.3-57.6,53.5-80,62-40.4,15.3-96.8,9.2-126-25-28.6-33.3-50.7-133.3-14.9-165.9,21.7-19.9,102.6-30.8,132.7-32.3" class="fill" fill="#ffffff"/>
  <g id="eyes-shaded">
    <path id="shading-eyes16" d="M1263,1369l77.9-202.4-35.9-17.6-86.3,216.8c-7.7-3.2-18.2-4.6-25.4-8.6-1.1-.6-2.3-.9-2.1-2.5l83.8-214.1,3.1-1.1c-.8-.4-.7-1.8-1.3-2.2-2.8-2.2-33.1-5.4-39.2-6.2-13.5-1.9-25.5-2.1-39-6-1.4-.4-3.1,0-3.4-2,34.4-1.4,68.6,1.9,102.2,9.3,60.3,13.2,86.9,33.8,81.8,100.2-4.3,56.4-23.6,106.8-78.8,129.2-12.1,4.8-24.6,6.4-37.4,7.2" class="shading" fill="#aaaaaa" style="opacity: 0.5" opacity="0.5"/>
    <path id="shading-eyes15" d="M1068,1185c4.4,6.7-1.2,7.5-2,11.5-2.6,13.5,4.2,36.9,3.5,51.4,26.1,33.1,54.5,68.2,87.6,94.4,9.4,7.5,24.7,19.5,35,25,22,11.8,82.3,10.8,107.3,6.4,5.1-.9,19.6-6.7,22.7-3.4,3.6,3.9-1.3,5.4-4,7-23.1,13.8-56.4,9.4-82.5,7.5-12.8-.9-39-2.2-50.2-5.8-8-2.6-29.2-21.2-36.3-27.7-26.1-23.9-48.5-51.5-74-76-13.8-13.2-29.1-24.5-42.5-38.5-1.1-1.2-2-3.4-2.9-4.1-.8-.6-7.7-1-9-.9-2,.2-17,17.3-20.5,20.5-7.2,6.4-16.1,11.4-23,17.9-33.4,31.5-60.8,69.3-97.5,97.5-19.5,15-31,13.9-55,16-22.9,2-62,6.4-83-1-2.1-.7-15.4-7.1-16-8-2.2-3.6,1.6-6.1,4.9-6,3.6,0,7.3,2.8,10.6,3.5,28.8,6.1,75.6,6.2,104.3-.8,9.4-2.3,18.7-9.8,26.7-15.3,26.6-18.6,50-41.2,71.6-65.4,5.6-6.2,34.7-40.5,35.4-45.6,2.3-15,1.5-32.7,3.1-48,.5-3.2-3.9-4.3-4.1-7-.2-2.5,2.2-3.2,2.1-5.4-4.5.8-11-4.6-6.6-8.1,3.7-2.9,4.7,2.1,7.3,2.9,5.5,1.7,7-1.6,10.8-2.8,29.1-9.3,36-9.4,65.1,0,3.7,1.2,5.2,4.5,10.8,2.8,2.2-.7,3.1-4.4,6-3.7,5.7,1.9,0,10.6-5.7,9.2M1038,1185c-9.5-1.8-18.7-3-28,.5,5.4,1.1,7.7,5.6,9.3,10.7,1.5,4.7-1.1,8.7,6.2,7.9,2.9-.3,2.4-5.8,3.4-8.6.6-1.7,2.2-5.7,3.2-6.8,2-2.5,4.8-1.4,5.9-3.7M1053,1197c-.2,0,0,1.8-1,2.4-7.9,5.8-11.5,9.7-21.5,9.6-5.1,0-8.6-.2-13.9,0-11.1.4-14.8-6.6-23.5-12.1l-3,30c2,2,17.7-4.1,21.5-4.1,5.8,0,8.3,4.7,16.8,2.9,1.8-.4,3.2-1.9,4.7-2.3,7.2-2,17.2,4.9,25,3.5l-3-29.5c0-.8-2-.5-2.1-.4" class="shading" fill="#aaaaaa" style="opacity: 0.5" opacity="0.5"/>
    <path id="shading-eyes14" d="M1119,1095c10.8-7.5,22.7-13.9,34.3-20.2,23.5-12.8,49.4-20.6,66.1-41.9,11.6-14.8,20.3-27.2,12.4-46.3-12.8-31.1-52.4-80.9-79.9-100-14.9-10.4-32.6-16.6-45.9-29.1,9.3.7,20.3,4.3,29.5,7.5,66.1,22.7,136.7,74.8,177.9,131.1,2.8,3.8,12.4,14.4,8.3,18.7-3.2,3.3-25.6,8.5-31.7,10.8-38.2,14.4-82.4,31.5-116.9,53.1-3.8,2.4-21.2,16.4-22.6,16.4h-31.5Z" class="shading" fill="#aaaaaa" style="opacity: 0.5" opacity="0.5"/>
    <path id="shading-eyes13" d="M897.5,1095c-1.5-.4-19.2-14.3-23.2-16.8-34.2-21.3-79.2-38.9-117-53-5.4-2-30-7.6-31.8-11.2-1.9-3.9,2.8-9.6,5.1-12.9,27.2-39.7,72-78.2,113.1-102.9,30.2-18.2,63.6-34.2,98.3-41.2-12,12.1-28.8,18.2-42.9,27.6-25.1,16.6-49.7,46.7-66.1,71.9-4.3,6.6-20.6,33.7-20.8,40-.5,14.1,11,30.6,19.9,41,15.3,17.9,40.9,24.1,60.6,36.4l36.3,21.1c-8.1-1.5-24.5,2-31.5,0" class="shading" fill="#aaaaaa" style="opacity: 0.5" opacity="0.5"/>
    <path id="shading-eyes12" d="M875.3,1338.3c-4.1,3.7-6.6,10.1-9.4,13.1-1.1,1.2-9.2,6.5-7.7,1.3l79.9-204.7c2.3-1.9,13.8,7.4,16,9.4,16.1,14.9,20.1,37.7,17.9,58.9-3.8,35.8-44.3,79.1-70.9,102.1-8,7-18.5,13.3-25.8,19.9" class="shading" fill="#aaaaaa" style="opacity: 0.5" opacity="0.5"/>
    <path id="shading-eyes11" d="M778.5,1369c-.7-.2-1.6-1.6-1.5-2.5l91.7-234.6c9.8,2.2,20.1,2.1,29.9,4.1,1.2.2,1.8-.8,1.5,1.5l-91.6,231.5c-5.9,0-26.2,1.2-30,0" class="shading" fill="#aaaaaa" style="opacity: 0.5" opacity="0.5"/>
    <path id="shading-eyes10" d="M1173,1133l-63.5,147c-.8,0-9.2-10.7-10.5-12.5-6.1-8.5-13.4-18.9-17-29-7.5-20.7-9.4-43.8,0-64.2,15.6-34.6,58.3-36.5,91.1-41.3h0Z" class="shading" fill="#aaaaaa" style="opacity: 0.5" opacity="0.5"/>
    <path id="shading-eyes9" d="M1254.8,1109.8c-.2.4-7.5,3.9-8.3,4.2-7,2.4-26.3.2-35,0-34.8-1-70.2-1.7-105-2-20.2-.2-40.1,1-60,1-70.4,0-140.6-1.1-211.1,1-8.6.3-27,2.4-34,0-.8-.3-8-3.8-8.3-4.2-.7-1.2-.4-6.1.8-7.4,3.3-3.4,9.3.3,13.5.6,27.4,1.9,59.2,1.5,87,2,89.1,1.7,177.1.6,266-1.1,25.9-.5,54.5.8,80.1-.9,3.7-.3,11.5-4.2,14,0,.7,1.3,1,5.9.3,6.9h0Z" class="shading" fill="#aaaaaa" style="opacity: 0.5" opacity="0.5"/>
    <path id="shading-eyes8" d="M768,1115c.3,1.4-1.1,1.1-2.2,1.3-18.2,4.5-36.7,6.8-55,12-5.2,1.5-14.4,6.4-18.8,5.3-3.5-.9-8.9-4.9-12.3-6.7-1.4-.7-7.4-2.5-7.7-2.8-1.4-1.9,3.7-3.1,4.9-4.6,4.7-5.7,8.4-20.1,13.3-26.7,1.1-1.5,1.3-2.2,3.4-2.6,4-.8,27.7-.5,31.5.4l42.9,24.4h0Z" class="shading" fill="#aaaaaa" style="opacity: 0.5" opacity="0.5"/>
    <path id="shading-eyes7" d="M1376,1124c-.3.4-6.9,2.3-8.4,3.1-3.3,1.7-8.2,5.5-11.6,6.4-4.4,1.2-13.6-3.8-18.8-5.3-18.3-5.2-36.4-7.3-54.4-11.6-1-.2-3-.3-2.8-1.7l42.7-24.8c5.9.5,30.6-1.8,33.8.8,4.6,3.8,9.2,22.8,14.6,28.4,1.3,1.4,6.2,2.9,4.9,4.7" class="shading" fill="#aaaaaa" style="opacity: 0.5" opacity="0.5"/>
    <path id="shading-eyes6" d="M1075,1141c1.6-3.5,12.5-25.6,14-26.5,1.9-1.1,14.6-1.1,16.1.9,6.7,8.5-8.9,12.6-13.8,15.4l-16.3,10.2h0Z" class="shading" fill="#aaaaaa" style="opacity: 0.5" opacity="0.5"/>
    <path id="shading-eyes5" d="M945,856c.7.3-.6,1.7-2,1-.7-.4.6-1.7,2-1" class="shading" fill="#aaaaaa" style="opacity: 0.5" opacity="0.5"/>
    <path id="shading-eyes4" d="M1105,856c.7.3-.6,1.7-2,1-.7-.4.6-1.7,2-1" class="shading" fill="#aaaaaa" style="opacity: 0.5" opacity="0.5"/>
    <path id="shading-eyes3" d="M958.8,1114.2c1.4.8,13,24.2,14.7,27.8-3.8-2.6-7.3-5.4-11.2-7.8-3.7-2.2-18.8-9-19.8-11.2-1-2.3-1.1-7.2,1.5-8.5,1.5-.7,13.7-.9,14.8-.3" class="shading" fill="#aaaaaa" style="opacity: 0.5" opacity="0.5"/>
    <path id="shading-eyes2" d="M853,1123c0,1.5-2.5,1.6-3.6,1.9-23.2,6.6-47.2,5.9-70.6,10.4-7.2,1.4-8.4.3-8.5,8.4-21.2,48.4-48.3,94.5-69.1,143-2.7,6.2-7.1,16.1-6.1,22.8.6,4.2,9.6,17.5,12.5,21.5,3.7,5,9.7,9.4,11.9,15.1-24.6-17.6-39-48.9-45-77.9-13.8-66.2-11-111.9,60.3-131.8,38.3-10.7,78.5-14.6,118.2-13.4" class="shading" fill="#aaaaaa" style="opacity: 0.5" opacity="0.5"/>
    <path id="shading-eyes1" d="M721.5,1346c.7.3.7.7,0,1v-1Z" class="shading" fill="#aaaaaa" style="opacity: 0.5" opacity="0.5"/>
  </g>
  <g id="outline-eyes" class="outline" fill="#000000">
    <path id="outline-eyes2" d="M993,1256c-1,4-2,4.8-4.5,8-14.2,18.2-34.4,39.6-50.5,56.5-17,17.9-47.1,49.2-67.7,61.3-24,14.1-91.5,17.2-118.5,11.9-29.6-5.8-47.2-25.6-64-49-25.1-35-31.7-73.2-32.8-115.7h-17.5c-.5,0-7.7-1.5-8.3-1.7-4.5-2-5.8-20.7-6.2-25.8-.3-3.7-1.6-15.3.5-17.5,3.5-3.7,22.8-2.9,26.3-6.2,1.1-1.1,2.7-8.4,3.7-10.8,3.6-8,7.8-15.8,13.5-22.5-14.5-3.8-23.3,2.8-22-17,1.8-29,22-77.6,37.6-102.4,4.3-6.9,20.8-32.7,28.8-32.1,2.1.2,3.9,2.7,5.6,1.6.5-.3,4.7-7.4,6-9,42.4-52.1,97.9-98.4,160.3-124.7,80.6-34,211.7-32.3,291,4.3,44.4,20.5,92.8,56.2,126.2,91.8,6.8,7.2,23.5,25.4,27.9,33.1,1.2,2,1.8,3.5,1.6,6,3.5-.3,5.5-3.6,9.3-2.8,1.8.3,7.3,4.8,8.8,6.3,11.7,11.9,33.9,51.3,39.6,67.4,4.9,13.6,16.7,54.3,16.1,67.4-.6,12.3-13.3,7.2-21.8,9.8-1.2,1.5,3.7,6.8,4.8,8.7,3,5.3,6.6,11.9,9.1,17.1.9,1.9,1.5,7,2.3,8,3,3.5,25,2.6,26.6,6.9.4,1.1,0,3,0,3.3l-3,34c-.5,1.2-.2,2.5-1.3,3.7-4.4,5.2-23.1,1.8-25.6,3.4-.4.3-.7,5.3-.8,6.5-.7,9.2-1,10.5-2.1,20-.2,1.5-1,7.5-2.2,14.4-7.3,46.4-41.9,113.1-92.2,123.3-27.5,5.6-95,2.9-119.5-11.1-25.2-14.4-61.4-54-81.8-76.2-11.4-12.4-29.7-31-38.9-44.1-3.2-4.5-2.7-6-3.6-10.9-3.9-20.4-3-38.7-5-58.5-.2-1.4-.8-5.7-1.5-6.5-3-3.8-26.8-4.4-32-4-3.8.3-14.8,2.1-16.1,5.9-.7,11.2-.5,22.4-1.5,33.6-.7,9.7-2.3,24.8-4.8,34.3h.1ZM797.5,1091h90.5c-10.2-9.4-23.2-15.1-33.9-23.6-1.1-.9-8.4-6.1-7.1-7.4,21.5,6.1,37.4,23.6,58.6,30.9h236c22.1-5.8,38.1-24.5,59.9-31,1,2.5-4.7,5.9-6.6,7.4-10.8,8.4-23.7,14.3-33.9,23.6h91.5c.5,0,5.1,5.2,5.7,6.3,1.5,2.9,1.8,10.4,2.4,10.8,2.4,1.4,18.4,2.4,22.7,3.1,19.7,3.2,40.8,7.2,59.8,13.2,3.1.9,12.4,5.7,14.3,5.7s14.7-7.8,18.5-8.6c1-14.6-5.9-28.1-11.9-41-3.3-7.2-7.2-15-11-22-2.4-4.5-16.1-28.6-18.6-30.4-2.9-2.1-20.6-1.2-25.1-.9-14.3.9-28.6,3.6-42.5,7-1.9-1.7,12-11.3,13.3-12.2,8.4-5.8,17.8-10.6,26.8-15.4-4.4-19.8-20.1-36-34.6-49.4-58.1-53.7-155.6-100.6-235-104-90.4-3.8-194.3,42.3-260.5,102.5-14.8,13.4-31,29.9-35.9,49.9,9,5.9,18.8,10.3,27.6,16.4,1.3.9,15.2,10.6,13.3,12.2-13.9-3.4-28.2-6.1-42.5-7-4.5-.3-22.2-1.2-25.1.9-2.5,1.8-16.2,25.9-18.6,30.4-3.8,7-7.7,14.8-11,22-5.9,12.8-13,26.6-11.9,41,3.1.7,16.9,8.6,18.4,8.5,1.6,0,11.5-5.1,14.9-6.1,26.3-8,53.9-11.8,81.1-15.7,1.2-.6.2-15.3,10.4-17.1M819,1100h-16.5c-4.4,0-4.4,9-2,9h15.5c.5,0,2.3-7.9,3-9M1223,1109c.5-4.6-1.9-7.1-6-8.5h-387c-3.9,1.8-4.8,4.8-6,8.5h399ZM1245.5,1100c-4.7-.9-11.5.6-16.5,0,.5,1.5,2.6,9,3.5,9h15c2.2,0,2.5-8.2-2-9M793.8,1117.3c-27.5,2.3-85.6,15.5-108.1,30.9-17.2,11.7-21.7,48.9-21.7,68.4-.2,51.9,12.7,106.6,51.5,143.5,34.7,33,102.4,26.3,144,10,25.7-10.1,68.2-56.5,88-78,7.7-8.4,28.7-30.1,33.4-38.6,3.5-6.4,6.5-45.2,7.1-54.9s-7.1-7.4-7.9-4.8c-.3.8,1.1,10.8.9,13.8-2.8,50.6-57.6,103.7-95.5,133.5-41.3,32.5-108.5,45.8-155.4,17.4-48.2-29.2-73.2-143.5-44.2-191.1,8.5-14,33.7-22.3,49-27.1,54.7-17.2,174-27.9,220.2,11.2,2.6,2.2,12.7,14.2,13.6,14.4.6,0,9.7-4.7,11.3-5.5-10.2-22.7-43.3-32.7-66-37.9-32.6-7.6-86.5-8-120.2-5.2M1066.9,1192.1c-.8-.5-5-.3-5.9.3-1.3.9-1,3.6-1,5.1,0,12,2.4,30.7,4.2,42.8.4,2.7.7,6.3,1.3,8.7,1.9,7.2,28.3,35.6,35,43,21.6,23.5,62.8,69.1,91.8,79.2,34.2,12,96.1,19.8,127.5-1,26.7-17.7,46.4-53.3,55.5-83.5,9.2-30.4,14.1-104.1-4.8-130.7-7.2-10.1-36.4-21.9-48.7-25.3-54.7-15.5-139.3-21-194.2-6.7-16.9,4.4-45.7,14.5-56,29-7.8,10.9.2,7.8,7.8,12.9,21.9-30.3,61.3-36.4,96.1-39.9,48.3-4.9,131.7,3.4,173.8,29.2,28.1,17.2,27.4,67.3,23.6,96.2-5.3,39.8-28.8,99.1-69.3,113.7-82.7,29.8-142.3-17-194.5-74.5-21.3-23.4-39.8-49.1-42-82-.3-2.9.9-15.8-.2-16.5M1095,1119h-141c3.5,8.3,13.6,11.1,20.5,17,7.4,6.2,13.3,14.2,19.1,21.9l58.9.2,2.9-1.1c5.2-8.5,12.3-16.7,20.2-22.8,4.7-3.6,13.8-7.5,17.3-10.7,1.2-1.1,2.3-2.8,2.1-4.5M833.8,1134.3c-30.1,1.5-110.9,12.4-132.7,32.3-35.8,32.6-13.7,132.6,14.9,165.9,29.2,34.1,85.6,40.3,126,25,22.4-8.5,63.4-43.7,80-62,30.5-33.4,65.9-76.2,40.8-123.8-18.9-35.8-93.4-39.2-129-37.4M1178.8,1134.3c-30.6,2.1-79.2,8.5-94.3,38.7-23.5,47,10.1,87.9,40,121,17.2,19.1,42.5,39.6,63.6,54.4,31.3,21.9,93.2,21.8,124.8,1,44.4-29.2,61.9-111.5,47-159.8-7.3-23.7-22.7-31.1-44.9-38.1-39.1-12.3-95.3-19.9-136.2-17.2M1072.7,1172.2c-1.2-1.1-8.5-2.6-10.5-2.9-19.1-3.4-64.9-4.5-83,1.4-3.8,1.2-5.3,1.4-5.3,5.8,0,9.1,6.6,8.9,14.2,7.1,4.5-1.1,8.5-6.5,14.1-7.9,10.5-2.6,39.3-2.8,48.5,2.1,7.3,3.9,9.2,8.3,19.8,6.2,3.5-.7,4.5-9.7,2.2-11.8M636,1196.5c-.7,2.2,0,13.5,0,17s14.9.4,18,1.5c-1-2.1,1.7-22.1.5-22-3.2,1.8-17.4,0-18.5,3.5M1412,1213.5c.8-2.7,0-13.2,0-17s-16-1.9-18.5-3.5c-1.2,0,1.5,19.9.5,22,3.9-1.3,16.8,2.8,18-1.5" class="outline" fill="#000000"/>
    <path id="outline-eyes1" d="M998,1252c11.2-12.1,21.2-29.1,19.5-46,5.4,3.1,9.1,2.3,14.5,0-2.8,10.5,3,24,8.8,32.7,1.6,2.5,10.1,11.5,10.2,12.3.6,3.3-5.9,8.9-7,8-.9-5.7-7.9-7.8-12-12.5-1.3-1.5-3.3-4.1-4.3-5.8-1.4-2.5.7-4.5-4.3-3.8-2.1.3-5,8-7.5,10.6-3.5,3.8-10.8,6.1-11,11.5-1,1-7.1-4.8-6.9-7" class="outline" fill="#000000"/>
  </g>
    </g><g class="trait-group" data-category="right ear" id="right ear-KBDS tattoo">
      <path id="fill-ear-rt" fill="#ffffff" d="M1715.7 184.2c3.2-.7 6.5-.5 7.2 3.3 2.3 39.5-3.6 77.2-9 116-.7 4.7-.2 11.1-1.1 15.9-5 26.9-24.5 58.9-29.7 86.3-5.7 30.4-4.7 64.8-10.9 95.1-7.8 38.3-25.1 77.8-33.7 116.4l-71.9 122.1c-45.8 31.3-94.9 58.3-141.8 88.2l-35 81-84.6 77.3c-5.6 2.9-16.3-.8-22.4-2.4-27.7-7.2-48.3-18.1-70.9-35.1-16.5-12.5-27.2-20.9-37.6-39.4-6-10.5-10.9-22.9-14.5-34.5 26.8-59.3 58.7-116.4 86.8-175.2 4.9-58.7 6.7-117.8 11.4-176.5 36.5-47.5 77-92.5 114.8-139.2 47.2-35.9 96.4-69 144.9-103.1 66.1-31.9 127.9-72.1 197.8-96.2Z" class="fill" data-original-prefix="fill"/><path id="shading-ear-rt" fill="#aaaaaa" d="M1670.9 280.1c2.8 3.9-18.7 26.3-21.9 30.5-38.8 50.2-75.5 128.6-72.1 193 .8 14.1 7.3 33 2.8 45.7-3.7 10.4-14 27.3-15.4 37.7-.4 2.9.9 5.2.6 8 10-1.2 15.8-10.8 21.2-18.3 17.3-24.1 30.1-53.1 43.5-79.5 1.1-2.2 1.5-2.2 1.2.2-.8 9.2-6.8 26.8-9.7 36.3-15.4 50.2-37.8 100.7-66.2 144.8-15.3 23.7-22.2 32.4-46.1 47.9-25.3 16.4-36 17.1-63.9 25.1-14.1 4.1-56 16.5-65.5 25.5-11.9 11.1-30.7 52.3-40.3 68.7-13.5 23-27.7 45.9-43.8 67.2-3.6 4.8-10.5 10.9-13.3 15.7-5.6 10-6.8 27-11.1 37.9 7.3-4.2 14.2-10.7 20.5-16.5 12.8-11.9 26.4-25.8 38.5-38.5 12.3-12.9 33.6-33.7 41.2-48.8 7.8-15.6 13.6-33 21.3-48.7 14.9-4.8 30.4-7.3 45.1-12.9 49.9-18.9 92.7-57.3 134-90 1.4-.3 1.9 0 1.5 1.5-.9 3.2-10.1 20.8-12.2 23.8-4.2 6-36.3 28.6-44.5 34.5-29 20.7-59.7 39.2-87.9 61.1-15.7 27-28.8 55.8-43.5 83.5l-80 71c-6.2 2.7-28.5-4.8-35.8-7.2-32.1-10.8-54.1-27.3-79.9-48.6-8.9-15.6-7.9-22.5 2.7-36.2 24.9-31.8 50.6-57.8 73.4-92.6 33.1-50.5 54.8-106.4 86.2-157.8 11.1-18.2 27.9-36.1 31.3-57.7 1.4-9.1 1-19.2 1.1-28.4l54 6.5c10.6 14.3 17.8 31 26.5 46.5.8-.4 10.6-11.5 11.3-12.7 4.2-7.8 8.8-30.6 10.8-40.2 5-24.6 7-49.5 8.5-74.5 1.9-20.4-5.1-39.9 3.1-58.9 17.4-40.4 50.1-78.2 81-109l66.7-44.4c3.2-.7 24.4 7.8 25.2 8.9Z" class="outline shading" data-original-prefix="shading" opacity="0.5" style="opacity: 0.5"/><path id="outline-ear-rt2" fill="#000000" d="m1695 240-22 38.5-26.1 18.2c-.8 3.6 6.6 23.8 8.6 28.3 1.6 3.6 9 14.4 9.3 15.8.5 2.3-2.4 5.9-3.8 7.7-2 2.6-31.5 31.6-33 29.5-2.1-6.5 4.9-10.6 6.4-15 1.1-3.1-.9-32-1.6-37.4-.1-1-.6-4.4-2.4-3.6s-12.5 12.2-14.5 14.5c-2.7 3.2-19.7 25.9-19.7 28l24.3 37.6c4.3.9 8.3-6.7 11.4-9.6 4.5-4.2 25.3-22.8 29.6-23.4 3-.5 6.4.2 9.4 0 .9.8-4.4 6.8-4.8 8.7-1.8 8.2-2.5 22.9-3.2 31.8-2.2 27.4-1.5 53.7-1 80.9.1 6.7 1 20.1-2.6 25.5-12.9 9.5-26.3 18.3-39.4 27.6-2.1 1.5-5 6.6-7.6 3.4-2.2-2.8-5.1-21-5.5-25.5-.2-2.3-1.1-11-.6-12.5.7-2.4 4.7-6.5 6.1-9 .9 1.7 2.3 8.5 4.9 8 .8-.2 12.4-10.6 12.6-11.5l1-83.5c-1.7-.4-2 .5-3 1.5-5.3 5.5-14.9 19.2-20.1 22.9-.9.7-10.5 4-10.9 3.6 0-4.8-3.8-10-6.6-13.9-1.8-2.5-24.8-30.3-26.4-29.1-8.2 17.3-13.6 35.5-17 54.4 5.5 4.7 46.2 18.4 47.8 21.3 2.8 4.9.8 11.9 1.1 16.8 2.2 30.3 7.3 60 13.4 89.7 1 4.8 7.8 30.4 6.5 32.6-.7 1.3-13.1 7.8-15.7 9.8-8.8 6.6-14.2 15.2-18.9 25-6.4 13.5-5.6 24.2-18.8 33.2-2.7 1.8-24.4 14.1-25.9 14.2-1.7.1-14.9-5.3-15.4-6-.6-1 0-2.5 1-3.5 2.5-2.6 16-7.1 16.1-10l-18.1-62.5c-1.9 8.1-4.6 15.9-6.5 24-3.1 12.9-4.5 28.7-8.2 40.8-1.7 5.5-8 7.6-11.3 12.7 5.4 4.5 17 9.4 21.4 14.4 3.1 3.5-4.4 5.2-6.3 6.6-30 22.8-47.7 53.1-72.6 79.5-3.3 3.5-12.5 8.7-13.6 10.4-1.7 2.7 0 5.7-1.8 8.2-.8 1.1-17 9.8-19.7 11.3-3.2 1.7-24.5 12.2-25.9 12.1-1.3 0-1.7-.6-2.4-1.5 2.9-4.7 2.3-11.4 1.9-16.8-1.9-22.1-9.7-52-14.9-74.1-.4-1.5.7-1.8-2-1.5l-39 100.5 39.7-29.4c.8-.2 13.8 5.3 14.3 5.9 1.9 2.1-3.2 2.3-4.1 3.6s-1.2 5.3-1.6 7.1c-3.7 18.6-4.5 39.3-5.3 58.2 8.7-6.8 17.8-12.7 27.5-18 .8 1.7.9 5.7.3 7.3-.4 1.3-11.9 10-13.9 12.1-4.5 4.7-8.8 12.6-13.4 16.5-2.8 2.3-17.5 11-20.8 12.2-7.5 2.8-6.9-8.9-6.8-13.8.3-10.5 1.1-21.5 2-32 .9-9.8 3.1-19.7 3.5-29.5l-23.5 18.5-1 2 16.6 62.5c-13.1 9.4-27 17.3-42.6 22-.7-5.5 7-4.9 6.9-10.3 0-5.4-5.8-22.1-7.7-28.4-4.1-13.9-8.8-27.7-13.8-41.2-9.1 16-17.5 33.8-22.4 51.6-2.8 10-5.6 21.2-3.8 31.7.6 3.8 4.1 8.9 4.8 12.2.3 1.5 0 1.8-1.5 1.5-3.8-.7-25.2-18.5-26.7-22.3-.8-1.8-.9-3.3-.8-5.2.1-5.6 1.3-20.7 2.3-25.8.8-3.8 25.3-35.9 29.8-43.2 29.6-48.1 48-108.9 82.2-153.8 11.1-14.6 22.6-22.7 31-41 8.4-18.1 20.8-75.1 17.6-94-.7-3.8-10.8-27.6-9.8-28.7 13.4 6.2 26.8 13.4 39.3 21.2 3.9 2.5 14.9 8.7 17.2 11.8 3 4 10.2 28.6 12 35 2.4 8.5 6.3 34.7 11.4 39.5 12.7 12 29.6-12.1 35.2-21.9 27.1-47.2 34.2-98.5 26.7-152-1.3-9.2-7-27.1-6.7-35.2.2-6 16.5-39.2 20.3-46.5 22.2-41.8 45.9-63.9 79.1-95.9 9.7-9.4 21.4-23.7 31.6-31.4 6.4-4.9 14.6-7.2 21.2-11.8 3.7-2.5 26.5-23.7 29.7-20.8Zm-93 184c1.3 1 7.3-6 5.5-7.9-3.3-5-29.7-37.9-33-37.1-1.8 2.2-4.6 4.9-3.1 8 10.8 11.4 23.2 23.2 30.5 37Zm44.8 62.8c1.1-2 0-37.3.2-43.3l5-55.5c-3.2 3.8-11.4 10.8-12.1 15.4-2.2 16.5.4 41.4 0 59.1 0 2.4-1 4.5-1.1 6.9-.2 7.5.2 15 0 22.5 1.2-1.1 7.4-4.6 7.8-5.2ZM1544 478v24.5c0 3.7 3.5 16 5 20 1.3 3.7 6.8 12.2 7 14.1.8 5.4-7.7 8.8-5.9 14.8 6.5 26.2 9.3 53.3 18.9 78.6.6.5 5.1-6.5 6-7.5 2.6-2.9 10-8.1 10.1-11-8.1-39.8-12.3-80.3-12.1-120.9-8.7-6.1-18.6-10.9-29-12.7Zm-7 93c-2.3-.4-1.6.1-2.2 1.3-2.2 3.9-7 16-6.7 20.1 7.7 21.5 10.8 48.2 19 69.1.4 1 .4 2.4 1.9 2.5.6-4.7 8.2-12.2 7.8-16.2-10.5-24.4-15.3-50.7-19.8-76.8m-138 123 3-1.5c7.8-13.2 23-26.8 30.5-39.5 1.9-3.3 1.9-4 .8-7.7-2.6-8.4-16.5-31.1-27.6-24.2-6.7 4.2-11.6 26-14.3 33.5l7.7 39.4Zm23 42c2.5-5.8 6-11.2 8.5-17 5.2-12.3 10-26.5 8-40-11.9 16-22.9 32.6-33.2 49.6 3 18.6 6.8 37.2 11.7 55.4 23.6-19.1 43.3-42.3 62.8-65.3-1.4-2.2-5.7-10.8-8.2-10.5-5.3 3.7-47.2 30.1-49.7 27.9Zm-21.2 78.9-21.3-102.8c-2.5 3.4-10.4 8.3-10.6 12.4 4.4 27.5 14.2 55.5 17 83.1.2 2.4-1.2 15.2 2 14 3.6-1.3 8.5-5.9 12.9-6.7m-79.3-28.9v1c.7-.3.7-.7 0-1m-.5 2c-2.1-.5-2.3 1.1-3.2 2.3-2.4 3.1-5 7.4-7.2 10.8-1.8 2.8-12.3 19.2-10.6 20.9l5.9 1zm-14 142c2.4.4 4.4-.5 3.8-3.2l-24.3-82.8c-2.4 2.1-3 5.2-2.3 8.2 8.1 25.7 18.2 51.2 22.8 77.8" class="outline" data-original-prefix="outline"/><path id="outline-ear-rt1" fill="#000000" d="M1204 941c-4.4-.4-9.8-3.6-13.7-5.8-20.9-12-28.2-35-42.8-53.2-1.1-2.6-.7-7.5-.5-10.5.9-20.4 13.5-35.9 21.8-54.2 6-13.1 11.8-33.9 18.9-45 2.6-4 7.1-7.8 10-12 45.7-65.6 39.8-168 48.8-244.2 35.7-51.4 72.9-101.7 114.9-148.1 13.5-14.9 32.5-37.2 47.6-49.4 43.2-34.6 113.6-72.6 164.2-95.8 39.4-18.1 93.7-41 135.7-50.3 4.3-1 18.4-4.8 21.4-2.6 1.3.9 4.2 14.2 4.5 16.7 4.6 32.3.3 83.6-2.9 116.9-.9 9.4-3.1 31.6-6.5 39.5s-15.6 18.9-20 29c-9.8 22.5-20.5 85.6-16.1 109 2.2 11.6 6.5 11.2 4.1 25-11.5 64.2-42.8 133.8-77.1 188.9-32.9 52.8-80.7 93.9-134.8 124.2-18.8 10.5-28.8 10.7-42.1 29.9-15.2 21.8-20.8 40.5-31.1 63.9-5.5 12.6-19.7 19.4-29.9 28-7.3 6.2-13 13.2-19.5 19.5-6 5.7-26.7 27.8-31.5 30.5-2.3 1.4-20.6 4.8-23.6 4.5-10.9-1-38.2-12.2-49-17.1-3.9-1.8-12.1-5.3-13-9.5 25.5 10.4 46.2 11.5 70.3-2.2 26.5-15 64-49.9 79.7-75.5 5.8-9.5 22.9-46.4 24.6-56.2 1.1-6.9-2.7-5.6 5.1-11.8 33.2-26.6 76.4-40 110.3-69.7 69.6-60.8 114.1-151.8 132.5-241.5 3.7-18 2.5-30 3.4-47.5 1.9-35.7 9.5-78.4 22-112 6.8-18.1 16.8-28.7 20.7-48.3 2.5-12.5 4.6-27.1 6.2-39.9 3.1-25.3 4.5-50.9 2.1-76.4-42 13.5-81.8 33.1-120.7 53.8-46.8 25-95.6 54.9-139.9 84.1-51.1 33.7-90.6 69.4-129.4 116.5-21 25.5-42.6 53.1-60.3 80.7-13.9 63.2-10.7 129.3-22.2 192.8-13.1 26.3-23.4 54.1-36.6 80.4-5.6 11.1-14.2 23.2-19.1 33.9-2.8 6.3-15 38-15.7 43.3-3.2 23.6 13.3 50.9 28.9 67.4Z" class="outline" data-original-prefix="outline"/>
    </g><g class="trait-group" data-category="left ear" id="left ear-ringer">
      <defs/><path id="fill-ear-left" fill="#ffffff" d="M366.5 448c2.2-.7 1.7-6.1 1-8-14.8-50.5-33.9-100.1-45.5-151.5l-3-99c.6-3.5 14.7-7.2 18.4-7.5 72.6 34.3 145.7 67.7 217.5 103.6L702.5 405l86.3 108.7c9.7 62.8 14 126.7 22.2 189.8l75.7 173.9-26.9 52c-5.3 7.8-42.1 33.9-51.5 38.5-18.4 9-40.3 13.4-59.9 19.2l-3-1L638 882.5c-7.9-16.2-9.4-35.5-17.5-51.5L476 735.5l-73.2-131.3c-15.9 1.2-45.2 3-28.2 25.7 7.5 10.1 22.2 9.2 32.5 13.5 1.2 5.2 9.4 13.6 10.5 17.5 1 3.2-1.3 6.7-.6 10l-68.5-7-16.8-43.2-.2-4.8 23.8-45.7c3.4-2.8 29.6-6.2 36.2-8.3 1-.3 2-.2 2.4-1.4-4.9-19.1-12.3-39.6-14.7-59.2-.4-2.8.7-10.8-1-12-7.7-.7-15.3-2.8-23.1-2.4l5 37c-4.9.6-8.3 6.4-14 4.6l-46.8-15.7v-39.6l30.9-22.7c3.4 1 12.5-2.5 13.5-2.5 4.6 0 20 .9 23 0z" class="fill" data-original-prefix="fill"/><path id="fill-earing-lft2" fill="#ffffff" d="M404.9 643.2c1 .6 9.3 17.3 12.1 19.3.2.5-2.1 1.1-2.6 1.1-14.2.4-44-3.9-56-11.5-9.6-6-21-30.6-19.2-41.6 1.4-8.8 18.5-28.8 27.1-31.8 12.1-4.4 38.3-7.8 51.3-7.7 9.6 0 20.4 10.4 15.4 20.4s-17.7 8-23.7 9.3c-9 1.9-31.4 3.1-37.5 8.5-7.4 6.4-2 19.2 3.9 24.9 4.8 4.6 16.5 7.7 23.1 8.9 1.8.3 5.2-.4 6.2.3h-.1z" class="fill" data-original-prefix="fill"/><path id="fill-earing-lft1" fill="#ffffff" d="M360 523c-3.2 2.8-33.2-6.9-38.4-9.1-15.7-6.7-18.1-11-16.7-28.4 1.2-14.7 9.9-16.9 22.1-21.9 21.4-8.9 37.2-11.8 60.2-5.2 8.6 2.5 26.1 9.5 27.6 19.5.9 6.5-3.8 15-10.5 16.1-2.5.4-17.8-4.5-22.2-5.4-12.8-2.4-34.3-7.6-44.1 3-13 14.1 15 16.1 18.6 19.5 1.8 1.7 2.4 9.3 3.5 12h-.1Z" class="fill" data-original-prefix="fill"/><path id="shading-ear-lft" fill="#aaaaaa" d="m608.2 565.2 3.3-1.2 51.4-6c1.9 9.6.6 19.6 2.2 29.3 3.3 21 21.8 41.3 32.7 59.3 28.9 47.5 49 99.2 78.8 146.2 16.1 25.4 34.3 49.3 53.4 72.6 7.9 9.6 28.7 29.6 32.7 39.3 1.1 2.7 2.6 7.6 2.1 10.5-.3 1.4-7.6 14.6-8.8 16.2-3.6 4.9-14.8 12.8-20.1 16.9-22.1 17-43.7 28-70.9 35.1-4.6 1.2-16.1 4.8-20 3l-92-84.2c-10.8-23.6-17.5-49.5-29.5-72.3L510 764.4l-84.1-88.9c-25-3.4-50.4-5.3-75.4-8.6-1.3-.2-4-.6-4.7-1.5L326 606.8l30.8-40.3c3.9-2.9 10.3-.8 15.1-1.4 1.2-1.2-6.9-24-8-27.5-8.1-2.8-41.4-4.6-46.1-8.9-3.1-2.9-16.5-30.5-19.5-36.5s-7.8-14.2-7.5-16.5c0-.8.4-1.5 1.1-2l51.3-33.7c3.4-1.3 29.1-1.4 32.8-.3l43.5 26.5c1.2 1.1 1.6 2.4 2.2 3.8 1.2 3.2 5.4 18 5.4 20.8 0 5.9-7.2 8-6.9 10.8.3 3.3 9.1 19.4 11.3 23.7 8.1 15.8 29.4 56.7 42.6 66.4 2.6 2 5.4 4.1 8.9 3.6 1.8-8.1-2.3-16.5-5.2-24.2-2.8-7.3-11-21.9-11.7-28.4-.9-9.3 4.3-27.3 4.9-37.9 3.8-61-29.8-136-65.2-184.8-8.8-12.1-24.5-26.6-30.7-39.3-1-2.1-7.2-18.7-7-19.7.2-1.1 5.7-4.9 6.9-5.2 2-.5 12.8 7.7 15.7 9.4 30.1 17.6 70.1 41 93.8 66.2s51.7 62.1 64.7 92.3c5.3 12.5 4 11.2 3.8 24.1-.7 40.9 1.3 80.7 10.5 120.5 1.7 7.1 5.7 25.4 9 31 .8 1.3 7.7 9.2 8.9 10.1.9.6 1.4 1.7 2.6.5l24.2-44.3zm-292.1-82.3c3.4 2.2 5.5-3.1 7-4.3 12.8-10.8 63.5-.9 80.3 1.4 11.5-4.6 6.5-11.6-1.7-16.2-12.2-6.9-36.4-10.5-50.1-8.7-5 .7-31.9 10.7-35.1 13.9-2.2 2.2-1.9 12.9-.4 14q0-.1 0 0ZM419 503c-11.1 4.8-24.2.2-36 1l13 60 40-2zm5.8 70.2c-3.2-3.1-24.7-.7-30.1 0-9.5 1.1-25.8 3.3-33.8 8.2-5.4 3.3-19.9 21.7-21.4 27.6-2.8 10.8 1.6 22.4 14.5 20-1.1-8-2.6-17.2 2.2-24.3 8.9-13.2 46.4-4.8 62.3-16.7 3.8-2.8 11.1-10.1 6.3-14.8M450 595l-39.9 13.4c11.9 17 20.5 35.9 31.6 53.4 42.6 67.4 95.1 111.3 170.2 139.8 14.3 5.5 29.5 7.7 44 12.5 5.5 13.5 10.9 27.2 17 40.5 9.5 20.5 22.4 32.9 37.7 49.3 17.6 18.9 38.6 41.2 58.5 57.5 1 .8 7.3 6.2 8 5.5-3.9-10.9-5.5-27.1-10.2-37.3-2.9-6.1-17-20.7-22.2-27.8-24.6-34-42.1-71-63.4-106.6-13.9-23.2-19.7-24.2-44.7-33.3-22-8.1-50.6-11.8-70.2-19.8-11-4.5-43.7-25.5-52.2-33.8-7.1-6.9-18.4-25.8-24.1-34.9-15.6-24.8-29.5-51.1-40-78.5h-.1Zm-45 42c-3-8.1-6.1-16.4-11-23.6-2.7.8-19.3 4.8-20 5.6-.3.4 0 2.3.5 3 .8 1.3 24 13.2 26.8 14.2 1.2.5 2.3 1.1 3.7.8" class="outline shading" data-original-prefix="shading" opacity="0.5" style="opacity: 0.5"/><path id="outline-ear-lft2" fill="#000000" d="M671 548c1 1.1-8.8 24.7-9.5 28.9-3.2 18.8 9 75.7 17.4 93.7 8.3 17.9 19.9 26.5 31 41 35 45.5 53.4 108.2 84.2 156.9 4.4 7 27 36 27.8 40.2 1.2 5.8 2 19.4 2.3 25.8 0 1.9.2 3.7-.6 5.5-1.3 3.1-26.2 24.3-28.5 22 .6-4.8 4.2-9.9 4.9-14.6 4.5-32.7-34.7-99.9-51.7-129.1-19.1-32.7-44.8-69.8-70.1-97.9-2.4-2.7-12.2-10.8-13.1-12.2-2.1-3.5-.6-16.6-1-21.8-1-12.8-10.5-52.4-18-62-10.4-13.3-23.7 7.8-28.2 16.8-11.9 24-9.9 50.3-.3 74.7 2.7 6.9 6.7 13.2 9.5 20-2.9 0-5.5-1.3-8-2.5-17.1-8-40.7-23.6-55.4-35.6-4.2-3.4-15.7-12.9-18.4-16.6-3-4-9.1-42.7-11.4-51.6-8.6-32.6-20.5-64.9-41.6-91.5-.3-1.7 5.1-9.4 6.3-12.3 14.5-33.8 3.2-89.9-11.3-122.7-23.4-53-61.8-94-110.7-124.3l-22.5-39c3.3-3.1 26 18.4 29.7 20.8 6 4.1 14.7 6.7 20.3 10.7 9.2 6.5 21.7 22 30.5 30.5 33.1 32 57.7 54.3 80 96 4.4 8.1 20.6 40.5 21.3 47.8.7 7.6-5.5 27.2-6.7 35.9-7.6 53.4 0 102.9 25.7 150.1 5.5 10 23 36.2 36.2 23.9 4.9-4.5 9.1-31.2 11.5-39.5 2-7.1 8.6-30 12-35 3.1-4.5 28.4-18.6 34.8-22.2 2.3-1.3 20.8-11.7 21.7-10.8z" class="outline" data-original-prefix="outline"/><path id="outline-ear-lft1" fill="#000000" d="M846 940c15.1-16.5 31.1-43.1 27.9-66.4-6.7-13.7-9.4-29.6-15.7-43.3-5.9-12.9-15.5-26.6-22-40-10.6-21.5-23.7-48.6-32.3-70.7-9.2-23.4-7.5-61.4-9.8-87.2-1-11-2.9-22-4-33-2.3-24.6-2.1-67.2-15.6-87.4-14.6-21.8-37.5-48.9-54.5-69.5-41.4-50.3-82.8-86.1-137.5-121.6-42.3-27.4-87.4-55.5-131.9-79.1-38.8-20.7-78.7-40.2-120.7-53.8-3 38.2.9 78.6 8.3 116.2 3.3 16.9 7.6 19.5 14.6 33.4C367 366.1 372 402 378.4 433c1.5 4.2 10.7 6.3 14.6 8.4 13.7 7.3 26.9 14.3 34.4 28.6 6 11.4 4.6 18.9-3.4 28.5-12.5 14.9-22.7 12.7-40 7.5-1.6 1.8 9.7 42.2 12 47.5 20.4.6 40.3.8 51.9 20.1 6.5 10.9 4.8 15.8-1.8 25.8-7 10.7-14.9 15.8-28 16.5-1.5 1.5 7 17.2 8.5 20 24.3 45.7 71.1 106.9 114.2 135.8 26.6 17.9 62 31.7 86.6 51.4 7.8 6.3 4.2 5.9 6.1 13.9 12 50.8 60 106.1 105.3 130.7 23.2 12.6 44 11.2 68.3 1.2-1 4.5-8.9 7.6-13 9.5-19.5 8.8-52 23.1-72.4 12.4-3.2-1.7-21.8-20.6-26.2-24.8-8.6-8.3-15.6-17.1-25-25-10.3-8.7-24.4-15.4-30-28-10.2-23.4-16-42.1-31.1-63.9-13.3-19.2-23.3-19.4-42.1-29.9-55.3-31-107.1-75.3-138.5-131-19.2-.6-39.2-1.6-58-5.5-27.5-5.8-33.9-14.5-44.3-39.7-8.6-21.1-13.7-31.3-2.7-52.6 9-17.5 20.9-37 43.2-36.3l-2.1-10.9c-21.9-2.3-55.5-6.5-70.9-23.6-10.3-11.5-13-21.7-12.1-37 1.1-18.1 4.6-21.7 19.4-30.6 10-6 25.4-14.6 36-19 6.2-2.6 12.7-5.4 19.7-4.8 2-2-10.8-49.6-13.2-55.3-4.6-10.8-15.9-20.4-20-29-3.4-7.1-5.9-31.4-6.8-40.2-3.1-33.1-7.5-84.8-2.9-116.9.4-2.5 3.3-15.8 4.5-16.7 1.7-1.2 4.6-.9 6.6-.7 27.9 2.6 74.9 22.3 102 33 67.9 26.9 154.8 70.8 212.1 115.9 12 9.5 25.4 25.3 36.2 36.8 46.7 50.2 88 104.7 126.9 161.1 8.9 76.2 3.1 178.6 48.8 244.2 2.9 4.1 7.4 7.9 10 12 7.1 11.1 12.9 32 19 45 4.2 9.2 9.1 18.3 13.7 27.3 1.4 2.7 6.4 9.3 7 11 .8 2.6 2.6 22.5 2 24.6-10.1 12.6-17.6 27.8-27.4 40.6-7.7 10-14.2 13.1-25.3 18.7-1.2.6-3.1 2.7-4.1.4zM360 523c-1.1-2.7-1.7-10.3-3.5-12-3.5-3.4-31.6-5.5-18.6-19.5 9.8-10.5 31.3-5.4 44.1-3 4.5.9 19.7 5.8 22.2 5.4 6.7-1.1 11.5-9.6 10.5-16.1-1.5-10-18.9-17-27.6-19.5-23-6.5-38.7-3.7-60.2 5.2-12.2 5.1-20.9 7.2-22.1 21.9-1.4 17.4 1 21.7 16.7 28.4 5.1 2.2 35.1 11.9 38.4 9.1h.1Zm44.9 120.2c-1-.6-4.4 0-6.2-.3-6.6-1.2-18.3-4.3-23.1-8.9-5.9-5.6-11.3-18.5-3.9-24.9 6.2-5.3 28.5-6.5 37.5-8.5 6-1.3 21-4.1 23.7-9.3 5.1-10-5.8-20.4-15.4-20.4s-39.1 3.4-51.3 7.7c-8.6 3.1-25.8 23-27.1 31.8-1.7 11 9.6 35.6 19.2 41.6 12.1 7.5 41.8 11.8 56 11.5.6 0 2.8-.6 2.6-1.1-2.8-2-11.1-18.7-12.1-19.3h.1zM396 628c-1.1-6.4-1-9.6-8.2-8.7-13.6 1.6 1.6 10.2 8.2 8.7" class="outline" data-original-prefix="outline"/>
    </g><g class="trait-group" data-category="head" id="head-slicked">
      <path id="fill-head" fill="#ffffff" d="M1184.8 747.2c1.7 1.6 7.1 11.9 9.4 15.1 15.6 21.3 37.6 44.5 59.5 59.5 2.8 1.9 17.6 9.9 18.1 10.9.8 1.6 2.1 11.4 2.2 13.8 1 17.8-4.1 34-12.8 49.2-.5 2.1-11.1 14.5-10.2 15.3 1 .9 3.1-.8 4-1.5 8.7-6.4 17.5-19.2 25.9-26.5 5.6 12.5 16.9 32.8 17.1 46.5.2 11.8-11.5 36.8-23.6 40.5-3.4 1 .8-5.5 1.3-6.7 1.5-4.3 4.3-11.3 4.3-15.8 0-5.3-2.9 1.3-3.2 1.8-3.7 5.3-6.8 10.1-12.5 13.5-17.3 5.9-62.4 43.2-77.7 43.1-7.3 0-16.7-4.3-24.6-2.9 5.1-5.7 11.2-12.7 9.5-21-13 11.3-26.8 21.6-41.6 30.4-10.1 6.1-24.4 16.9-36.3 8.5-4.9-3.5 2.7-5.8 5-8.2 5.1-5.4 17.4-29.3 20.5-37 3.6-8.8 6.2-19.1 6.3-28.7-5.2 4.1-6.4 10.8-9.7 16.3-11.5 18.9-35.2 43.6-54.5 54.5-51.1 29-102.9-11.5-129.1-54.5-3.3-5.5-4.5-12.2-9.7-16.3 0 9.5 2.8 19.8 6.3 28.7 3.1 7.6 15.4 31.6 20.5 37 2.4 2.5 9.9 4.8 5 8.2-13 9.2-33.2-6.2-44.3-13.5-11.8-7.7-23-16.2-33.6-25.4-1.6 8.3 4.4 15.2 9.5 21-7.9-1.4-17.3 2.9-24.6 2.9-15.3 0-60.4-37.1-77.7-43.1-1.9-1.8-4.4-3-6.2-4.8-2.2-2.2-7.3-11.8-8-12.1-.4-.1-2.5-.3-2.5.5l8 23.5c-12.1-2.4-20.7-20.2-23.5-31-4.7-18.2 8.2-39.9 15.5-56 8.4 7.3 17.2 20.1 25.9 26.5.9.7 3 2.4 4 1.5.9-.8-9.7-13.2-10.2-15.3-11.4-19.3-16.3-41.6-10.3-63.7 30.5-15.7 57.2-42.2 77.3-69.7 1.8-2.5 8.9-14.7 9.9-15.4 9.9-7.1 43 2.9 55.1 4.8 27.3 4.3 43.7-9.7 68-18.5 20.1-7.3 45.1-9.5 65.8-3.3 17.9 5.4 43 21.4 60.1 22.9 15.2 1.4 62.5-14.7 72.1-5.6ZM959 765c-.8-.8-5.9 2.8-6.9 3.6-6.7 5.1-36.1 44-37.6 51.4-2.6 12.6-.8 28.8-.4 41.5.4 11.9-.9 22.9 3 34.5l5.5-37c4.6-24.6 12.2-48.6 22.7-71.3l13.8-22.6Zm172 131c3.9-11.6 2.6-22.7 3-34.5.4-12.7 2.2-28.9-.4-41.5-1.5-7.3-30.9-46.3-37.6-51.4-1-.8-6.1-4.4-6.9-3.6l13.8 22.6c10.4 22.7 18.1 46.7 22.7 71.3l5.5 37Zm-224-97c-.8-.8-15.6 9.7-16.9 11.6-2.5 15.7-19.9 44.4-19.2 58.9.2 3.6 7.9 20.7 9.9 25.2 4.9 11 16.8 36.7 23.7 45.3 1.2 1.5 2.8 2.3 4.5 3-5.4-21.5-21.9-48.5-22.1-70.5-.1-23.9 12.5-51.2 20.1-73.5m232 144c1.7-.7 3.3-1.6 4.5-3 6.9-8.6 18.8-34.3 23.7-45.3 2-4.5 9.7-21.6 9.9-25.2.7-14.5-16.6-42.5-18.8-58.2-4.4-5.2-10.9-8.8-16.7-12.3l13.2 38.8c3.9 15.4 8.2 31.3 4.8 47.3l-20.5 58ZM831 816c-1.8-2-6.7 8.3-7.2 9.3-3.8 8.1-8.5 19.9-11.6 28.4-1.1 3-4.3 11.2-4.3 13.8 0 2.3 5.8 13.8 7.2 16.8s11.2 23 12.4 23.6c1.9.9 1.5-1.3 1.4-2.4-.7-9.1-5.9-20.4-6.8-30.2-1.8-19.6 5.2-40.3 8.9-59.4Zm388 92c2.1.4 2.3-1 3.2-2.3 7.1-10.5 12.2-26.6 17.8-38.2-4.6-13.7-9.8-29.1-15.9-42.2-1.4-3-3.4-8-6.7-9.3l8.5 46.5c1.4 15.7-4.8 30.3-7 45.5Z" class="fill" data-original-prefix="fill"/><path id="fill-head3" fill="#ffffff" d="M689 956c.1 0 .2 1.7 1 2.5 3.8 4 7.9 7.4 11 12 4.5 6.4 15.1 12 19.1 17.9.7 1 1.2 1.5.8 2.9-.8 3.2-14.6 6.3-18.4 9.7-7.2 6.3-27.7 38.1-32.3 47.7l-13.1 32.3c-2.2-18-6.1-36.4-7-54.5-1.5-29.2 10.6-35.5 27-56 3.1-3.9 6.9-10.6 10-13.8.7-.7 1.4-1.2 2.1-.6Z" class="fill" data-original-prefix="fill"/><path id="fill-head2" fill="#ffffff" d="M1361 956c7.8 14.4 21.4 25.8 30.2 39.3 7.2 11 7.4 18.2 6.8 31.2-.9 17.2-5.1 34.3-6 51.5-2.6.4-1.6-.2-2.1-1.4-4.9-11-8.1-22.3-14.1-32.9-4.3-7.5-25.9-39.3-31.4-43.6-4.2-3.2-20.5-5.6-16.4-11.7 6.9-6.8 14.4-12.9 21.1-19.9 3.2-3.3 6.3-8.2 9.5-11.5.8-.8.9-1.4 2.4-1.1Z" class="fill" data-original-prefix="fill"/><path id="shading-head" fill="#aaaaaa" d="M749 958.5c-.9-4.2-14.1-19.9-16.8-28.2s3.4-18.6 7.2-26.3c4.7-9.4 20.7-31.4 21.5-39.5.7-7.3 0-14 1.3-21.7 1.2-7.1 2-15.7 10.7-16.3-13 21.5-2.7 45.5 9.6 64.4 5.5 8.5 17.7 24.8 25.9 30.1 1.2.8 2 1.2 3.5 1-5.7-18.1-13.5-34.6-9.5-54 2.9-14.1 10.1-27.2 21.5-36-.2 3.8-5 7.6-5.8 10.7-1.9 7.7 1.9 19.8 2.7 27.8 1.1 11.2-2.1 25.3 8 33.5-.2-24.2 7.7-47.1 19.8-67.7l12.2-19.3c-16.5-3.4-33.5-5.2-50-8.5-3.5-.7-8.5-1.3-11.6-2.4-1.1-.4-1.7.5-1.4-1.6 10.3-10.4 20.9-20.5 30.5-31.5 10.4-12 30.3-45.4 46-45.8 13.3-.3 29.8 4.8 43 5.8 20.9 1.5 46.8-16.6 67.2-22.8 8.3-2.5 64.5-2.5 74.7-1.1 15.6 2.2 41.8 19.5 58.3 23.7 18 2 38-6 55.8-5.6 15.7.4 35.6 33.8 46 45.8 11.2 12.9 24 24.3 35.5 37-30.7 7.1-61.6 14-93 17 1.1 2.6-1.1 4.4-1.1 7.5 0 .7 2.8 11 3.1 11.5 0 0 1.5-1 2.4 0 .6.6 7.8 13.3 8.4 14.7 7.8 18.2-.1 61.2-6.6 80.2-1.6 4.6-4.8 8.5-5.3 13.2 1.5 1.5 23.5-3 26.5-5 4.1-2.7 18.9-23.5 22.3-28.7 12.1-18.8 19.6-40.9 18.7-63.4l-8.1-24.9c1.5 3.5 4.3 5.4 6.3 8.7 5.9 9.7 12.5 26.8 14.1 37.9 2.3 16.5-1.2 31.6-5.9 47.4 5.7-3.5 23.6-30 28.5-30 5.3 0 15.4 21.3 16.8 26.2 3.6 12.7-.9 24.3-7.1 35.5-1 1.7-4.8 5.6-4.8 6.8 0 .8 2.1 5.6 2.3 8.2 0 1.4-1.2 5.7-.6 6.3 2.4 2.4 3.6-2.8 4.1-3.4 8.1-8.6 13.7-5.5 19.8-18.3 7.7-16.4 10.4-38.5 10.2-56.4 1.4-1.9 11.2 21.6 10.9 25.4-.6 8.5-18 30.3-18 32.1V974s1.1-.2 1.6.4.3 1.6.4 1.6h15.5c1.4 0 20.4-13.1 23-15 8.7-6.7 16.1-15.2 25-21.8 1.3.9 2.8 1.8 3.9 2.9 8.9 8.8 43.7 58.8 47.3 69.7 4.3 12.9-1.6 27.3-5.5 40-5.7 18.7-12.9 37-19.8 55.2-5.6-14.1-10.2-28.5-16.6-42.3-8.4-18.2-25.9-53.8-44.6-61.4-2.4-1-11.3-2.9-12-3.5-3.1-2.2-6.5-20.5-12.7-21.8-11.4-2.2-16.3 2.4-25.7 5.3-5.5 1.7-13.9 4.2-19.4 4.6-7.8.5-18.2-2.6-25.4-.4s-29.9 19.7-39 25c-3 1.7-9.5 6.3-12.5 6.6-4.5.5-15.7-5.2-22-5.9-22.2-2.3-32.9 10.6-52 18.7-2.3 1-8.1 3.8-10 3.8-4.7.2-12.2-6-15.9-6.7-2.3-.4-9.6-.4-12 0-5.8.8-12.9 10-19 11-5.9 1-53 .8-57.2-.7-5.2-1.8-11.4-9.5-16.7-10.3-2.4-.3-9.7-.3-12 0-4.1.8-11.3 7.3-16.6 6.5-5.8-.8-23.7-10.8-30-14.1-13.3-6.8-14.2-10.2-31.4-8.4-6.5.7-18.2 6.6-22.9 5.7-2.8-.5-8.8-4.7-11.7-6.4-9.1-5.2-31.4-22.7-39-25s-17.7 1-25.4.4c-15.2-1.1-28.2-11.4-43.2-9.9-9.9 1-9.5 16.7-14.9 21.1-3.4 2.8-14.4 4.4-19.9 8.1-14.4 9.8-37.6 58.3-44.4 75.6-2.8 7.1-4.6 14.9-7.3 21.7-.4 1-.4 2.4-1.9 2.6-.5-5.7-4-11-6-16.5-4.6-12.3-9.4-26.2-13.2-38.8s-9.8-27.1-5.5-40c3.7-10.9 38.5-60.9 47.3-69.7 1.2-1.1 2.6-2 3.9-2.9 1.4 0 17.7 16 20.6 18.2s25.8 18.6 27.4 18.6h15.5s-.2-1.1.4-1.6 1.6-.3 1.6-.4c0-4.1.7-12.1 0-15.5ZM904 932c-3.5-22.2-6.3-42-.7-64.2 3.2-12.5 10.2-25.3 13.1-37 .6-2.4 1.3-7.3-1.8-7.8-5.9-1-12.9-.4-18.9-2.1-18.3 37.1-16.7 77.7 8.4 111.1Zm219.9-100.9c-21.8.4-43.6 2-65.4 1.9-38.8-.2-77.4-5.6-116-7-3.1-.1-6.5-.3-9.6.4-.8.6-1.8 7.5-1.9 9.1-1.7 20.1 2.8 45 7.3 64.7 3.7 16 10.3 31.1 19.2 44.8l.5-7.5c-2.7-32.3.2-69.9 18.5-97.5-2.2 52.9 15.6 107.2 52 146 .3-22.2-4.8-43.3 4.6-64.3 12.5-27.9 44.1-35.9 64.4-10.7 7.2 9 8.9 19 11 30 15.2-17.7 21-42.8 23.4-65.6.3-3.4 1.3-9.7 1.1-12.7-.2-2.6-7.7-30.6-9.1-31.5ZM1165 887c-.7-4 .9-7.7 1.1-11.5.9-17.1-4-30.8-9.5-46.5-1.7-2-14.6.7-18 1-3.1.3-6.3-.2-9.5 0-.4 1.9 1.6 3 1.7 4.6.2 2.1-1.2 4.3-.5 7.7 1.2 6.1 9.9 18.7 12.5 26.5 6.7 19.7 4.6 30.1 3.2 49.8-.2 3.8-1.3 11.6 3.5 7.5.5-.4 6.5-10 6.9-11.1 1.2-3 3.6-13 4.4-16.6 1-4.6.4-10.4 2.2-15.3l2 4Zm-352.5 36v1c.7-.3.7-.7 0-1" class="outline shading" data-original-prefix="shading" opacity="0.5" style="opacity: 0.5"/><path id="outline-head7" fill="#000000" d="M907 799c-7.6 22.3-20.2 49.6-20.1 73.5.1 22 16.7 49 22.1 70.5-1.7-.7-3.3-1.6-4.5-3-6.9-8.6-18.8-34.3-23.7-45.3-2-4.5-9.7-21.6-9.9-25.2-.7-14.4 16.7-43.2 19.2-58.9 1.2-2 16.1-12.5 16.9-11.6" class="outline" data-original-prefix="outline"/><path id="outline-head6" fill="#000000" d="m1139 943 20.5-58c3.4-15.9-.9-31.9-4.8-47.3l-13.2-38.8c5.8 3.5 12.3 7.1 16.7 12.3 2.2 15.7 19.5 43.8 18.8 58.2-.2 3.6-7.9 20.7-9.9 25.2-4.9 11-16.8 36.7-23.7 45.3-1.2 1.5-2.8 2.3-4.5 3Z" class="outline" data-original-prefix="outline"/><path id="outline-head5" fill="#000000" d="m959 765-13.8 22.6c-10.4 22.7-18.1 46.7-22.7 71.3l-5.5 37c-3.9-11.6-2.6-22.7-3-34.5-.4-12.7-2.2-28.9.4-41.5 1.5-7.3 31-46.3 37.6-51.4 1-.8 6.1-4.4 6.9-3.6Z" class="outline" data-original-prefix="outline"/><path id="outline-head4" fill="#000000" d="m1131 896-5.5-37c-4.6-24.6-12.2-48.6-22.7-71.3l-13.8-22.6c.8-.8 5.9 2.8 6.9 3.6 6.7 5.1 36.1 44 37.6 51.4 2.6 12.6.8 28.8.4 41.5-.4 11.9.9 22.9-3 34.5Z" class="outline" data-original-prefix="outline"/><path id="outline-head3" fill="#000000" d="M831 816c-3.7 19.1-10.7 39.7-8.9 59.4.9 9.8 6.1 21.1 6.8 30.2 0 1.1.5 3.3-1.4 2.4-1.2-.6-11-20.6-12.4-23.6s-7.2-14.6-7.2-16.8c0-2.6 3.2-10.8 4.3-13.8 3.1-8.5 7.8-20.3 11.6-28.4.5-1 5.4-11.3 7.2-9.3Z" class="outline" data-original-prefix="outline"/><path id="outline-head2" fill="#000000" d="M1219 908c2.3-15.2 8.4-29.8 7-45.5l-8.5-46.5c3.2 1.4 5.2 6.3 6.7 9.3 6.1 13 11.3 28.5 15.9 42.2-5.7 11.6-10.8 27.7-17.8 38.2-.9 1.3-1.1 2.7-3.2 2.3Z" class="outline" data-original-prefix="outline"/><path id="outline-head1" fill="#000000" d="M1308 967c20-7.7 33.4-24.5 49.5-37 2.2-1.7 6-5.3 8.8-4.9s15.6 15.7 18.1 18.9c9.9 12.4 31.4 41.7 37.8 55.2 14.7 31.2-11.1 77.2-20.7 107.6-.7 2.3 0 5.4-.9 7.1-1.3 2.1-15.8 8-18 5-1-1.3-4.5-15.8-5.7-19.3-8.6-24-21.3-50.2-35.7-71.3-5.4-7.8-8-12.1-17-16-2.9-1.2-13.5-3.8-14.7-4.8-2.6-2.1-7.7-19.7-10.9-20.7-12.6 5.3-26 9.3-39.8 10-4.1.2-15.7-1.4-17.8-.9-6.2 1.5-34.3 22.8-43.5 27.6-7.2 3.8-10.9 6.1-19.5 4.9s-17.8-7.6-26.3-6.8c-5.1.5-22.3 12.1-28.8 15.2-10.8 5.1-20.4 10.4-32.5 7.1-3.3-.9-13-6.3-14.7-6.3-2 0-13.2 10.1-18 10.9-5.3.9-10.1-.9-14.9-1-12-.2-24.1-.2-36.1 0-5.9.1-12.2 2.6-18.2.3-3.3-1.2-14.3-10.2-15.8-10.2-2.8 0-14.7 7.4-21.3 7.8-7.1.4-19.9-5.7-26.5-8.9-6.1-2.9-22.5-14.1-27.2-14.8-8.8-1.4-18.5 5.5-27.2 6.7-10.8 1.4-16.5-3.3-25.2-8.3-7.2-4.2-32.9-23.1-37.8-24.2-2.1-.5-13.7 1.1-17.8.9-13.6-.6-28.5-4.4-40.4-11-4.1 6.2-6.4 19.1-13 22.5-3.6 1.8-8.8 2.6-12.7 4.3-10.2 4.6-12.8 10.4-18.7 19.3-17.9 27-30.4 57.2-40.2 88-2.5.8-15.5-4.2-16.2-5.2-.6-.9 0-3.9-.6-5.9-9.7-27.9-33.2-74.3-24.2-103.2 4-12.9 35.2-56.3 45.2-67.8 2.4-2.8 11.1-12.9 14-12.9s24.7 20.4 29.6 24.3c2.5 2 26.7 18.9 27.9 17.6-2-7-7.7-12.8-11.2-19.3-10.3-19.3-8.6-28.6.7-47.7 4.1-8.5 20.8-32.1 22.3-37.7 1.4-5.3.5-16.6 1.2-22.8.7-5.5 1.9-11 3.8-16.2 27.3-18.8 50-41.4 71.2-66.8 9.4-11.3 21-32.6 35.2-36.8 16.3-4.8 43 3.4 60.2 4.3 17.5-6 36.2-17.3 53.6-22.5 10.7-3.2 75.1-3 88.4-1.4 16.3 2 42.4 19.2 59.2 23.9 17.2-.9 43.9-9.1 60.2-4.3 14.2 4.2 25.8 25.5 35.2 36.8 21.2 25.4 43.9 48 71.2 66.8 1.9 5.2 3.1 10.8 3.8 16.2.7 6.1-.2 17.4 1.2 22.8 1.5 5.6 18.2 29.3 22.3 37.7 9.3 19.1 10.9 28.4.7 47.7-1.4 2.7-12.4 18-11.2 19.3Zm-123.2-219.8c-9.6-9.1-56.9 7-72.1 5.6-17.1-1.5-42.2-17.5-60.1-22.9-20.7-6.2-45.7-4-65.8 3.3-24.3 8.8-40.7 22.8-68 18.5-12-1.9-45.2-11.9-55.1-4.8-1 .7-8 12.9-9.9 15.4-20.2 27.5-46.8 54-77.3 69.7-5.9 22.1-1.1 44.3 10.3 63.7.5 2.1 11.1 14.5 10.2 15.3-1 .9-3.1-.8-4-1.5-8.7-6.4-17.5-19.2-25.9-26.5-7.3 16.2-20.3 37.9-15.5 56 2.8 10.8 11.4 28.6 23.5 31l-8-23.5c0-.8 2-.7 2.5-.5.7.2 5.8 9.8 8 12.1 1.8 1.8 4.3 3 6.2 4.8 17.3 5.9 62.4 43.2 77.7 43.1 7.3 0 16.7-4.3 24.6-2.9-5.1-5.7-11.2-12.7-9.5-21 10.6 9.2 21.8 17.7 33.6 25.4 11.2 7.2 31.3 22.7 44.3 13.5 4.9-3.5-2.7-5.8-5-8.2-5.1-5.4-17.5-29.3-20.5-37-3.6-8.8-6.2-19.1-6.3-28.7 5.2 4.1 6.4 10.8 9.7 16.3 26.2 43 78 83.5 129.1 54.5 19.2-10.9 43-35.6 54.5-54.5 3.3-5.5 4.5-12.2 9.7-16.3 0 9.5-2.8 19.8-6.3 28.7-3.1 7.6-15.4 31.6-20.5 37-2.4 2.5-9.9 4.8-5 8.2 11.9 8.4 26.2-2.4 36.3-8.5 14.8-8.8 28.6-19.1 41.6-30.4 1.6 8.3-4.4 15.2-9.5 21 7.9-1.4 17.3 2.9 24.6 2.9 15.3 0 60.4-37.1 77.7-43.1 5.7-3.4 8.8-8.2 12.5-13.5.3-.4 3.2-7.1 3.2-1.8 0 4.4-2.7 11.4-4.3 15.8-.4 1.2-4.7 7.8-1.3 6.7 12.1-3.6 23.8-28.7 23.6-40.5-.2-13.7-11.5-34-17.1-46.5-8.4 7.3-17.2 20.1-25.9 26.5-.9.7-3 2.4-4 1.5-.9-.8 9.7-13.2 10.2-15.3 8.8-15.2 13.8-31.4 12.8-49.2-.1-2.4-1.3-12.2-2.2-13.8-.5-.9-15.3-9-18.1-10.9-21.9-15-43.9-38.2-59.5-59.5-2.3-3.2-7.7-13.5-9.4-15.1ZM689 956c-.7-.6-1.4 0-2.1.6-3.1 3.2-6.8 9.9-10 13.8-16.3 20.6-28.5 26.9-27 56 .9 18.1 4.9 36.5 7 54.5l13.1-32.3c4.6-9.5 25.1-41.3 32.3-47.7 3.8-3.3 17.6-6.4 18.4-9.7.4-1.4-.2-1.8-.8-2.9-4-6-14.6-11.5-19.1-17.9-3.1-4.6-7.2-8.1-11-12-.7-.8-.9-2.4-1-2.5Zm672 0c-1.5-.4-1.6.2-2.4 1.1-3.2 3.2-6.4 8.1-9.5 11.5-6.7 7-14.2 13.1-21.1 19.9-4.1 6.1 12.3 8.5 16.4 11.7 5.5 4.3 27.2 36 31.4 43.6 6.1 10.6 9.2 21.9 14.1 32.9.5 1.2-.5 1.8 2.1 1.4.9-17.2 5.1-34.3 6-51.5.7-13 .5-20.2-6.8-31.2-8.8-13.4-22.5-24.9-30.2-39.3Z" class="outline" data-original-prefix="outline"/>
    </g><g class="trait-group" data-category="mouthpiece" id="mouthpiece-outlaw">
      <path id="fill-mouth" fill="#ffffff" d="M1416 1417c.2 1.4-.2 2.7-.4 4-3.4 15.2-13.8 40.9-19.5 56.5-2.8 7.7-7.8 24.3-14.1 28.9-4.8 3.5-11.3 5.3-16.4 9.6-11 9.3-23.4 41-29.7 55.3-1.7 3.7-6.9 19.1-8.3 20.7-.7.8-.8.7-1.8.7-7.4.3-25.8-6.2-31.8-1.4-4.7 3.7-7.2 14.7-9.8 20.2-9.1 19.9-18.9 42.4-29.7 61.3-7.7 13.5-11.3 12.8-22.4 21.6-29.5 23.2-58.4 50.4-86.1 75.9-41.4 38.2-81.3 78-121.6 117.4-11.3-9.3-21.2-20.7-31.8-30.9-52.9-51.4-109.8-108.8-167-154.9-12.8-10.3-23.5-14.1-32-29-10.8-18.9-20.5-41.4-29.7-61.3-2.5-5.6-5.1-16.5-9.8-20.2-6-4.8-24.4 1.6-31.8 1.4-.9 0-1.1 0-1.8-.7-1.5-1.6-6.7-17-8.3-20.7-6.3-14.3-18.7-46-29.7-55.3-5.1-4.3-11.7-6.1-16.4-9.6-6.2-4.6-11.3-21.2-14.1-28.9-7.1-19.5-12.9-39.5-20-59l.5-1.5c8.2 1.2 16.7 2.4 25 3 36.7 2.7 73.4 3.8 109.7-2.3 7.6-1.3 24-3.8 30.4-6.6 11.7-5.2 27.1-32.1 42.8-41.2 21.7-12.6 48-22.2 70.3-34.7 26.7-14.9 52.4-33.8 79.1-48.9 22.5-4.7 45.9-4.7 68.5 0 26.7 15.2 52.3 34 79.1 48.9 22.3 12.4 48.7 22 70.3 34.7 15.7 9.2 31.1 36 42.8 41.2 6.4 2.9 22.8 5.3 30.4 6.6 44.6 7.6 90.4 4.4 135.2-.7Z" class="fill" data-original-prefix="fill"/><path id="shading-mouth3" fill="#aaaaaa" d="M1387.1 1420.1c8.7-.5 18.8-3.1 27.3-3.2 2.4 0 1.7 1.4 1.3 3.3-2.8 14.3-14.3 42.3-19.8 57.3-2.8 7.7-7.8 24.3-14.1 28.9-4.8 3.5-11.3 5.3-16.4 9.6-2.6 2.2-7.6 9.9-8.2 10.1-2.4.5-27.8-14.6-33-16.9-27.8-12.6-44.8-5.6-72.1 3.6-67.3 22.5-132.8 50.7-199.2 75.8-19.4 1.2-43.9 4.1-62.6-1.5-50.5-15.3-101.2-44.7-153-58-26.6-9.6-71.8-32.6-99.5-25.5-16.7 4.3-29.8 16.6-44.1 21.9-1.1.4-2.1.9-3.3.6-.6 0-5.5-7.8-8.2-10.1-5.1-4.3-11.7-6.1-16.4-9.6-6.2-4.6-11.3-21.2-14.1-28.9-7.1-19.5-12.9-39.5-20-59-.4-2.1 1-1.7 2.5-1.5 4.4.4 24 2.1 26 4 5.3 9.7 38.6 78.1 44.2 79.9 2.9.9 25.1-8.8 30.5-10.2 13.1-3.3 42.5 1.5 57.1 3.4 28.3 3.7 46.8 7.3 73 18.1 48.1 19.8 95.2 42.9 146.7 52.3 18.2 3.3 49.9-5.4 68.5-10.5 43.5-11.9 88.1-42.8 132.3-52.7 24.3-5.4 68.3-12.8 92.6-12.2 8.4.2 33.8 13.1 37.9 11.8 5-1.6 37.1-67.5 42.9-77.2.6-1.1.5-2.4.9-3.5h.3Z" class="outline shading" data-original-prefix="shading" opacity="0.5" style="opacity: 0.5"/><path id="shading-mouth2" fill="#aaaaaa" d="M960.8 1425.3c17.2-1.1 35.4-.2 52.8-.3 37.9-.2 73-1 110.7 5.3 45.8 7.7 95.1 21.4 140 34 1.8.5 11.8 3 11.8 4.2-1 1.5-2.6 1.4-4.1 1.8-47.4 13.6-118.1-22.6-168.3-25.4-35-2-73-.3-108 0-20.4.2-42.9-1.5-62.9 1.1-45.6 6-112.9 36.7-156.5 24.2-1.5-.4-3.1-.3-4.1-1.8 0-1.2 10-3.7 11.8-4.2 53.4-15 122.2-35.5 177-39h-.2Z" class="outline shading" data-original-prefix="shading" opacity="0.5" style="opacity: 0.5"/><path id="shading-mouth1" fill="#aaaaaa" d="M1227.4 1689.4c-.3.2-1 3.8-1.2.3 9.4-22 13.5-45.6 16.8-69.2.3-2.2.2-1.3-1-1-2.6.7-6.2 1.4-8.5 2.5-4.8 2.3-18.2 19.9-22.9 25.1-29.8 32.3-60.9 60.8-96.8 86.2l-3.7.3c11.4-16.1 30.5-32.6 25-54.5-9.4 2.8-17.3 8.7-25.3 14.2-31.2 21.6-58 49.7-86 74.7-27.4-25.4-54.6-53.4-85.3-74.7-7.9-5.5-16-11.3-25.3-14.2-5.6 22 13.5 38.4 25 54.5-3.1 1.6-6.8-1.9-9.3-3.7-17.2-11.8-42.2-32.9-57.7-47.3-19.7-18.3-36.9-41-55.7-60.3l-9.8-3.2c.8 24.6 8.3 48.7 16 72-3.5-3.4-7.9-6.2-11.5-9.5-6.1-5.4-20.1-18.5-24.4-24.6-7.1-10-16.8-33.6-22.3-45.7-3.1-6.8-4.6-14.2-9.3-20.2 9.5-2.2 19.9-9.2 29.5-10 14-1.2 46 16.5 59.5 23.5 62.5 32.3 121.8 70.8 180.5 109.5 54.4-35.1 108.8-70.4 165.8-101.1 13.2-7.1 26.7-14.4 40.3-20.7 11.3-5.2 24-12.6 36.6-10.9 4.1.6 21.5 6.9 25.1 8.9.9.5 2 .8 1.6 2.1-3.7 5.9-5.4 12.6-8.2 18.9-5.2 11.8-15.4 36.1-22.3 45.7-4.3 6-17.5 18.2-23.4 23.6-3.5 3.2-7.8 6.1-11.6 8.9h-.2Z" class="outline shading" data-original-prefix="shading" opacity="0.5" style="opacity: 0.5"/><path id="outline-mouth5" fill="#000000" d="M1389.4 1512.4c-5.6 5-11.3 6.2-16.8 10.7-9.6 7.8-21.2 36.9-26.7 49.3-4.3 9.7-8.2 19.6-12 29.5-1.4.5-2.9.2-4.3.2-7.8-.5-18.9-4.2-26.1-4-6.1 0-10 15.8-12.3 20.7-8.3 18.5-17.2 39.5-27 57-10.7 19-18.7 20.5-34.7 33.3-69.6 56-132 124-197.6 184.4-4.2 3.9-5.8 10.9-12.5 4.5-67.2-64.3-133.5-135.4-206.6-193.4-14.9-11.8-19-11-29.1-28.9-9.8-17.5-18.7-38.5-27-57-2.3-5.1-6.2-20.6-12.3-20.7-7.1-.2-18.3 3.6-26.1 4-1.4 0-2.9.3-4.3-.2-3.8-9.9-7.7-19.8-12-29.5-5.6-12.7-17.2-41.9-27.3-49.7-8.1-6.3-16.5-6.4-22.1-16.9-13.1-24.5-18.1-59.8-30.6-85.4-1.1-7.7.2-11 8.2-11.3 17-.6 39.9 4.4 58 5.1 23.3.9 46.8.3 69.7-3.4 8.6-1.4 26.3-4.1 33.6-7.4 10.4-4.6 25.8-30.5 39.7-39.3 20.2-12.9 48.4-22.7 70.2-34.8 29.5-16.3 56.6-37.6 86.9-52.1 17.2-3.3 63.7-4.5 78.7 3.1 26.3 13.3 52.7 34.4 79 49 21.3 11.8 61.7 26.2 78.2 40.8 8.3 7.3 23.1 29.2 30.9 33.1 10.2 4.9 47.7 10.2 60 11 33.9 2.1 65.2-3.9 98.1-5 9.3-.3 13.9.3 12.3 11.3-10 24.1-16.5 49.7-26 74-3.1 7.8-4 12.4-10.4 18.1h.3Zm-2.4-74.4c-17.5-.2-35 1.6-52.6 1-22.5-.7-67.4-4.6-88-12-15.1-5.5-34-33.6-49.2-43.8-22.2-15.1-52.1-28.3-76-42-22.3-12.8-44.1-26.5-66.1-39.9-20.2-1.9-43-2.5-63.1.3-21.7 13.3-43.3 26.8-65.5 39.6-23.9 13.7-53.8 27-76 42-13.7 9.3-25 25.5-37.7 36.3-11.8 10-24.8 10.9-39.7 13.3-36.9 6-73.5 7.2-110.9 5.2l-1.5 1.5 21.6 60.4c4.6 4.2 10.9 5.5 15.8 9.2 8.5 6.4 16.8 27.2 21.5 37.5 5.1 10.9 9.7 22.1 14.2 33.3 21.5-3.1 45.5-13.6 67.4-10.9 5.9.7 21.3 11 27.4 14.6 49.5 29.2 99.3 60.8 146.8 93.2 12.5 8.5 24.6 18.8 37.4 26.6 2.7 1.6 8.9 5.8 11.4 5.7 2.2 0 12.5-7.1 15.2-8.9 59.9-39 117.6-80.2 179.4-116.6 6.1-3.6 21.5-13.9 27.4-14.6 21.9-2.7 46 7.9 67.4 10.9 4.5-11.2 9.2-22.4 14.2-33.3 4.8-10.2 13.1-31.1 21.5-37.5 3.5-2.6 14.3-6.7 15.8-9.2 1.6-2.8 3.3-11.3 4.8-15.2 2-5.4 18.5-45 16.8-46.8h.3Zm-110 155c-8.8-.9-17.5-4.1-26.4-2.9-6.5.9-19.3 8.1-25.6 11.4-69 36.1-135.2 77.9-197.6 124.4-2.2 1.5-4.6 1.5-6.8 0-62.4-46.5-128.6-88.3-197.6-124.4-6.3-3.3-19.1-10.5-25.6-11.4-8.8-1.2-17.9 1.6-26.4 3.4 17.3 26.8 28.9 56.9 46.5 83.5 68.9 48.7 128.4 107.7 186.6 168.4l20.5 23.5c5.6-8.3 12.6-16.2 19.5-23.5 57.7-61.5 118-119.1 186.6-168.4 11.9-17.2 20.2-36.6 29.9-55.1l16.5-29Z" class="outline" data-original-prefix="outline"/><path id="outline-mouth4" fill="#000000" d="M1216 1501c-5 15.8-22.6 23.3-36.6 29.8-40.8 19.1-98.2 39.1-142.3 47.7-23.9 4.6-68.5-10.7-92.5-18.5-28.4-9.3-67.8-22.8-93.2-37.8-5.7-3.3-18.1-13-19.3-19.7-.3-1.6 0-1.7 1.5-1.5 8.4 1.1 19.7 1.4 27.4 3.6 6.7 1.9 15.6 7.6 22.5 10.5 24.7 10.3 49.9 20.1 75.2 28.8 27.3 9.5 56 22.4 85.3 15.2 33.6-8.3 75.7-25.6 108.2-38.8 10.6-4.3 25.3-12.9 35.2-15.8 8.9-2.6 19.7-1.7 28.8-3.7z" class="outline" data-original-prefix="outline"/><path id="outline-mouth3" fill="#000000" d="M1244 1474c-7.2-1-14.4 1.8-21.4.9-10.3-1.3-24.4-6.4-35.4-8.6-106.4-21.2-198.4-23.4-305.4-4-17.9 3.2-39.7 10.4-56.4 12.6-7 .9-14.3-1.9-21.4-.9 1.7-3.3 5.7-4.4 9-5.5 23.4-8 58-14.9 82.8-20.2 93.1-20 173.4-18.6 266.2 2.2 22.1 5 51.2 10.8 72.2 17.8 3.5 1.2 7.9 2.2 9.8 5.7" class="outline" data-original-prefix="outline"/><path id="outline-mouth2" fill="#000000" d="M978 1773c-2 2-12.7-7.2-14.5-9-33.9-33.8-65.2-78.9-96.7-115.3l-2.8-5.7c1.1-1.1 27.5 9.2 29.4 11.1 23.5 34.2 49.9 66.4 73.4 100.6 1.4 2 12.1 17.4 11.2 18.3" class="outline" data-original-prefix="outline"/><path id="outline-mouth1" fill="#000000" d="m1184 1643-2.8 5.7c-31.6 36.4-62.8 81.5-96.7 115.3-3.6 3.6-9.3 8.6-14.5 9-.9-.9 9.8-16.3 11.2-18.3 23.5-34.2 49.9-66.4 73.4-100.6 1.9-1.8 28.3-12.2 29.4-11.1" class="outline" data-original-prefix="outline"/>
    </g>
</svg>