<?xml version="1.0" encoding="UTF-8"?>
<?xml-stylesheet type="text/css" href="../styles/semantic.css" ?>
<svg xmlns="http://www.w3.org/2000/svg" viewBox="0 0 2048 2048">
  <g class="trait-group" data-category="background" id="background-zigzag">
      <defs>
    <pattern id="zigzag-pattern" x="0" y="0" width="100" height="100" patternUnits="userSpaceOnUse">
      <path d="M0,50 l25,-25 l25,25 l25,-25 l25,25" stroke="#444444" stroke-width="3" fill="none" opacity="0.4" style="fill: none"/>
      <path d="M0,75 l25,-25 l25,25 l25,-25 l25,25" stroke="#444444" stroke-width="3" fill="none" opacity="0.3" style="fill: none"/>
      <path d="M0,25 l25,-25 l25,25 l25,-25 l25,25" stroke="#444444" stroke-width="3" fill="none" opacity="0.2" style="fill: none"/>
    </pattern>
  </defs>
  <rect id="color-zigzag-bg" class="color" width="2048" height="2048" fill="#333333"/>
  <rect id="color-zigzag-pattern" class="color" width="2048" height="2048" fill="url(#zigzag-pattern)"/>
    </g><g class="trait-group" data-category="jaw" id="jaw-robo">
      <path id="fill-jaw-robo1" fill="#ffffff" d="M1369.9 1062.1c.4.5 1 11.1 1.4 13.1 11.6 61.7 25.9 123 37.2 184.8 16.2 20.3 35.3 38.1 51.5 58.4l-70.1 149.9-2.3 1.6-31.6-1.9-7.8 59.7-101.2 128.8c-1.6 1.1-2.6-.6-3.6-1.6-11.2-11.1-20.8-28.6-32-40-1.3-1.3-2.6-3.5-4.8-2.9-3.4.9-32.4 51.8-38.3 57.8-25.8 9.8-49.6 24-74.7 35.3-8.9 4-63.2 23-65.1 25.9-.6 1-.4 2.8-.6 2.9-.2.2-3.1-.9-4.4-.9s-3.2 1.3-3.6.9c-.3-.3.7-2.4-2.3-4.2-13.4-8.1-38.6-14-54.4-20.6-28.2-11.8-54.4-28.3-83.3-38.7-6.3-5.8-35.3-57.4-38.7-58.4-2.2-.7-4.5 2.4-5.9 3.9-11.6 12.1-21.3 28.8-33.1 41l-1.9-.9-100.9-128.1c-3.2-19.9-5.4-39.9-7.5-60l-31.6 1.9-2.5-1.4-69.8-149.3c-.3-1.9 4.6-7.3 6.3-9.3 14.5-16.8 30.7-32.1 44.6-49.4 10.6-62 27.2-123.3 37.7-185.3.5-3.2-.7-11.9 2-13.3 104.8-21.7 209.7-42.7 314.5-64.3 7.3-1.5 24.9-7.3 30.5-7.5 4.2 0 24.8 6.2 31.1 7.5 105 21.6 210.1 42.9 315.1 64.4v.2z" class="fill" data-original-prefix="fill"/><path id="shading-jaw-main" fill="#aaaaaa" d="m1369.9 1062.1 28.1 145.4c-4.8-.6-19.2-17.4-22.3-16.4-3.4 1-21.1 37.8-20.7 42.4 12.3 15.8 24.8 31.6 35.4 48.6 3.7 5.9 15.5 24.5 15.6 30.5 0 4.7-10.7 25-13.5 30.5-4.5 8.7-9.8 16.9-14.5 25.5 17.3-8 33.9-18.4 49.3-29.7 4.1-3 10.3-7 13.7-10.3 2.3-2.2 12.4-16.5 13.5-16.5l5.5 6.4-65.1 139.9-6.5 11.5-32.3-1.9-7.8 59.7-101.2 128.8c-1.6 1.1-2.6-.6-3.6-1.6-11.1-11.1-20.8-29.2-31.9-40-.8-.8-1.6-2.1-2.9-1.9-7.3 1.3-32.3 48.3-39.7 55.4-30.9 14.9-60.7 32.4-91.6 47.4-12.8 6.2-33.2 17.2-46.8 18.2-23.7 1.7-37.4-7.3-57.9-17.2-31.4-15.1-61.6-32.8-93-48-8.2-6.6-32.8-54.4-40.3-55.8-2.8-.5-31.3 38.2-35.8 43-1 1.2-2 1.2-3.1 0l-100.9-128.1-7.5-60-31.6 1.9-2.5-1.4-69.8-149.3c-.3-3.1 3.7-7.8 6.8-5.8 1.9 1.2 8.8 11.9 11.5 14.6 2.9 2.9 7.8 6.2 11.2 8.8 4.5 3.4 49.2 33.3 51.3 31.2-7.3-15.4-17.3-29.8-23.8-45.6-1.2-2.9-3.2-6.7-3.2-9.9 0-5.3 10.4-22 13.7-27.4 11-18.2 24.3-34.9 37.4-51.6-4.2-15.2-12-29-20.1-42.3-.9-.5-2 0-2.9.4-6.3 3.4-12.9 13.3-20 16.5l28.1-145.9 45.8-9.7c48.2-55 116.4-93.5 184.8-118.2 72.2-26 130.6-31.5 205-8.5 77.7 24 155.9 65.5 210.3 126.7zM854 1330c-21-6.7-43.3-4.3-64.4-11.1-14-4.5-30.8-14.7-42.9-23.1-18.1-12.6-35.7-28.4-49.2-45.8-10.7 14.6-22.1 30.4-30.7 46.3-4.3 8-11.3 21.1-7.7 30.1l27.1 48.4c6.1 1.6 17.5-4.7 22.8-2.3 1.5.7 2.4 3.5 4.5 3.5s4.4-5.1 7-5.1 3.4 4.4 7 4.1 5.2-6.6 7.2-7c.5 0 8.2 2.7 8.6 2.9 4.7 2.4.3 18-3.2 21.4.3 1.5 14.2 9.3 16.4 9.6 2.9.5.2-2.4 1-4.9s6.5-6.3 8.8-5.9c5.4.9 6.3 10.2 14.7.3 1.9-2.2 0-4.1 4.5-4.6 8.5-1 5 8.4 7 14.1 12.4-17.2 20.2-37.4 32.1-54.9l29.4-16.1Zm507.8 44.8c8.8-17.7 20.1-34.4 28.2-52.3-.4-8.9-2.9-14.5-6.9-22.2-8.9-17.4-21.4-34.4-32.7-50.3-21.1 25.5-52 52.2-82.8 65.2-24.8 10.4-48.4 7.8-73.7 14.8l29.7 16.3c11.6 17.6 19.4 37.7 31.8 54.7.9-1.8 1-13.5 1.5-14s7.3-.2 7.8.2c1 .6 1.6 7.8 6.9 8.7 6.3 1.1 7.7-7.8 15.4-2.8 2.7 1.8 3.1 6 2.8 8.9 1.2 1.4 17.7-8.3 18-9.6.2-1-3.9-5.8-4.6-8.4-2.2-9.5-1.5-13.7 8.4-14.8 5.3-.6 2.8 2.2 5.5 4.5 4.6 4 7.8-2.7 10-2.6 2.7.2 5 4.9 7.2 4.9s3-2.8 4.5-3.5c5.2-2.4 16.6 3.8 22.8 2.3zM1078 1327c-5.5-11.1-10.5-24.8-17.6-34.9-4.2-6.1-10.2-10.5-14.9-16.1-3.4-4-15.2-20.5-18.4-21.6-1.9-.6-4.4-.8-6.3-.2-2.4.7-15.7 18.7-18.7 22.3s-7.4 6.8-10.5 10.5c-9.4 11.2-15.1 26.9-21.5 40h108Zm-353.8 172.8c24.8 5.4 50.2 7.7 75 13.6 17.3 4.1 20.3 3.6 29.6 19.4 5.3 8.9 9.2 18.7 14.2 27.8l17 14-29.2-80.8c-2.4-5.8-8-8-13.1-10.9-22.2-12.9-51.7-27.2-75.7-36.3-2.6-1-8.1-3.8-10.4-3.5-1 0-15.6 9.5-16.3 10.3-6.3 7.6 6.8 37.2 8.9 46.5Zm599.6 0c2.5-10.6 8.2-22.1 9.8-32.7.8-5.7 1.7-10.9-3-15.1-1.1-1-13.2-8.9-14-9-2.5-.3-19.4 7.2-23.2 8.8-20.7 8.8-45.7 20.5-65 32-5.6 3.4-8.8 4.9-11.8 11.2l-28.5 80 16.4-14.1c7.1-10.9 14.9-35.4 25.9-42.1 6.1-3.8 19.9-5.9 27.5-7.5 21.8-4.6 44.2-6.7 66-11.5zM908.5 1649v1c.7-.3.7-.7 0-1m229.5 1c-31 8.8-60.6 26.8-91 36.5-19.3 6.2-28.3 5.9-47.5-.4-28.3-9.3-56.5-25.5-85-35.1-1.2-.4-3.6-1.8-4.5-.5.8 2.1 2.7 4.2 4 6 4.9 6.3 18 23.3 23.5 27.5 7.2 5.5 27.9 14.6 37.1 18.9 5 2.3 20.9 10.5 24.9 11.1 9 1.4 36.3 1 46 0 7-.6 57.7-24.6 64.4-29.6 5.3-3.9 18.2-20.8 23-27 .8-1 5.8-6.8 5-7.5Z" class="outline shading" data-original-prefix="shading" opacity="0.5" style="opacity: 0.5"/><path id="outline-jaw" fill="#000000" d="M670 1105c2 .2 9.2 3.6 9.8 5.7 1 3.3-1.3 18.1-2 22.7-6 41.8-19.7 84.1-28.6 125.4-12.3 18.3-29.3 33.5-43.8 50.2-1.2 1.3-6.5 7.5-6.5 8.5l56 135.5c1.5.4 1.7-.4 2.5-1 7.1-4.9 23.9-23.3 30.5-30.5 1.5-1.6 9.9-11.2 10-12-17.6-32.9-42.5-63.1-49.8-100.8 17.2-28.9 35.3-57.4 56.9-83.2 6.2-7.4 21.8-27.5 32-26.1 4.7.6 8.6 4.8 6.4 9.5-23 21-44.9 44.7-62.7 70.3-3.2 4.6-15.2 22.2-15.6 26.5-.5 5.1 11.8 29.8 15 35.6 7 12.8 29.4 46.8 40.5 54.5 2.8 1.9 7 3.2 10 5 77.7 46.7 153.2 90.1 243.1 109.9 13.1 2.9 37.4 9.1 49.8 9.2 11.3 0 33.7-5.7 45.6-8.2 92.6-19.7 168.3-62.9 248.1-110.9 3.1-1.8 7.2-3.1 10-5 11.1-7.7 33.4-41.8 40.5-54.5 3.2-5.8 15.5-30.5 15-35.6-.4-3.9-10.7-19.3-13.6-23.5-18.3-27-40.8-51.3-64.7-73.3-2.5-9.2 6.9-10.8 13.8-7.8 10.7 4.6 40.4 44.2 48.5 55.5 11.9 16.7 22.3 34.6 33 52.1-7.3 37.7-32.2 67.9-49.8 100.8 0 .8 8.5 10.4 10 12 6.6 7.2 23.4 25.6 30.5 30.5.8.6 1 1.4 2.5 1l55.8-135.3c-15.4-20.6-35.6-37.7-50.1-58.9-8.6-41-22.6-83.1-28.6-124.4-.7-4.8-3.1-20-1.9-23.7.6-2.1 8-5.5 9.8-5.7 4.6-.4 10.8 5.1 11.9 9.6 8.1 44.1 13.6 92.9 27.6 135.4 9.1 27.6 33.8 39.8 52 60 4.9 5.4 6.6 7.2 4.8 14.8-2.1 8.6-9.2 23.2-12.8 32.2-16.7 41-35.5 81.7-54.5 121.5-2.5 2.1-18.6 9-21.4 8.6-4.6-.7-13.3-13.3-18.5-15-3.1 22.3-7.1 44.7-11.8 66.7-29.2 38.3-55.4 79-82.3 118.7-10.2 4.1-22.2 12.3-32.2 15.8-1.5.5-3 1.3-4.6.7l-24.6-43.9c-1.1.5-16.2 15.9-17.3 17.7-6.5 10.1-3.8 21-14.2 29.8-22.9 19.1-72.2 40.2-100.7 51.3-18.6 7.3-34.3 14.2-54.7 14.3-24 .2-49.5-11.4-71.5-20.6-23.2-9.8-67.3-29.4-85.5-45.5-10.3-9.1-7.3-19.2-13.7-29.3-1.1-1.7-16.2-17.1-17.3-17.7L812 1674c-1.6.6-3.1 0-4.6-.7-10.1-3.5-22-11.7-32.2-15.8-26.9-39.8-53.1-80.4-82.3-118.7-4.7-22-8.6-44.4-11.8-66.7-5.2 1.7-14 14.4-18.5 15-2.8.4-18.9-6.5-21.4-8.6-19-39.8-37.8-80.5-54.5-121.5-3.6-8.9-10.8-23.6-12.8-32.2-1.8-7.6 0-9.4 4.8-14.8 13.4-14.9 37.6-30.5 47.2-47.8 7.3-13.1 12.4-41.8 15.8-57.2 4.5-20.4 8.5-41.2 12.2-61.8 1.5-8.5 1.8-19.4 3.7-27.3 1.2-5 7.2-11.3 12.6-10.9zm664.9 411.9 14.2-77.4c-.2-3.8-5.4-5.5-8.1-8-2.9-2.7-5.4-5.9-8.6-8.3-82.7 31.3-155.3 82.7-242.3 103.3-57 13.5-94.2 11-150.2-4.8-69.9-19.7-131-59.2-197.1-87.9-6-2.6-20.1-9.4-25.7-10.4-2.8-.5-7.7 6-10 8.1-2.1 2-7.6 4.5-8.1 7l14.2 78.3c17.8 1.1 35.6 3.8 53.4 5.1 9.3.7 42.4-.4 47.8 3.9 8.5 20 14.6 41 23.2 61 2.8 6.5 6.2 15.2 9.9 21.1 5.4 8.7 15 14.9 20 23.1 5.6 9.2 8.1 23.6 15.5 31.5 5.1 5.5 21.6 15 28.8 19.2 31 18.4 83.7 44.6 119.8 42.2 30.1-1.9 87.2-31 113.4-47.6 5.2-3.3 16.2-9.8 20.1-13.9 7.2-7.5 10.4-24.2 16.1-32.9 2.7-4.1 8-7.8 11.3-11.7 8.3-9.7 11.9-17.5 16.9-29.1 9-20.6 15.3-42.4 24.2-63 14.6-5 32.2-2.8 47.8-4 17.8-1.3 35.6-4.1 53.4-5.1v.3ZM801 1649c5.8-16.3 16.4-30.6 24.8-45.6-4.3-11.7-7.5-23.9-12-35.6-2.2-5.8-7.4-19.7-10.9-24.1-10.8-13.6-69.6-12.5-86.9-16.6-.5 1.7.7 2 1.5 3 13.4 17.3 27.7 33.6 40.3 51.7 15.2 21.9 28.4 45.1 43.2 67.3Zm531-122c-17.3 4.1-76.1 3-86.9 16.6-3.5 4.4-8.6 18.3-10.9 24.1-4.5 11.7-7.7 23.9-12 35.6 8.4 15.1 18.9 29.3 24.8 45.6 14.7-22.2 27.9-45.4 43.2-67.3 12.6-18.1 26.9-34.3 40.3-51.7.8-1 1.9-1.3 1.5-3Z" class="outline" data-original-prefix="outline"/><path id="outline-jaw1" fill="#000000" d="M785.7 1376.3c8.1 7.2 8.5 18.5 4.1 27.9-5.2 10.9-19.3 10.7-26.7 2.3-15.1-17.3 3.6-47 22.7-30.2Zm-12 4.9c-10.7 1.7-7.7 23.9 4.7 21.8 10.2-1.7 4.4-23.3-4.7-21.8" class="outline" data-name="outline-jaw" data-original-prefix="outline"/><path id="outline-jaw2" fill="#000000" d="M1262.3 1376.3c22.7-20.1 40.5 23.7 16.9 34.4-21.7 9.8-31.5-21.5-16.9-34.4m10.4 4.9c-10.5 1.7-12.6 25.9 1.3 21.4 10.1-3.2 8.1-22.9-1.3-21.4" class="outline" data-name="outline-jaw" data-original-prefix="outline"/><path id="outline-jaw3" fill="#000000" d="M723.7 1356.2c15.6-2.8 28.9 19.5 15.8 29.8-10 7.8-24 0-26.8-11.2-1.8-7.1 3.5-17.2 11-18.6m9.1 22.6c6.5-6.5-8.3-22.1-11.4-7.8-1.5 7.3 7.1 12.1 11.4 7.8" class="outline" data-name="outline-jaw" data-original-prefix="outline"/><path id="outline-jaw4" fill="#000000" d="M1317.7 1356.2c14.2-2.9 23 13.6 14.3 25.3-12 16-34.6 4.8-27.5-13.5 1.7-4.3 8.7-10.8 13.2-11.8m-2.5 22.6c4.3 4.3 12.9-.5 11.4-7.8-3-14.3-17.9 1.3-11.4 7.8" class="outline" data-name="outline-jaw" data-original-prefix="outline"/>
    </g><g class="trait-group" data-category="mouth" id="mouth-scrappy">
      <path id="fill-muzzle" fill="#ffffff" d="M1038 1292s-.4 1.7.7 2c10.3 2.8 18 4.3 25.8 13 1.9 2.2 4.9 8.8 6.5 9.5 2.6 1.2 6.6 0 9.5.5 11.4 1.5 21.2 3.7 31.2 9.8 2.1 1.3 9.2 7.8 10.2 7.1.3-.3 0-1.7 0-1.9 2.4-1.8 32.7.6 38 1 5.2 4.2 13.2 5.5 19.2 8.3 13.7 6.4 22.5 16.1 29.9 29.1 8.4 14.6 7.7 17.8 3.1 33.4-2.5 8.5-4.8 21.8-16.3 20.2 1.5-15.5-14.8-32.4-26.5-41-3.2-2.4-11.3-7.2-6 0 10.8 14.7 20.2 14.8 21.5 37.5.6 10.3-8.4 32.9-15.4 40.5-.6.7-7.1 6.3-7.6 6.5-3 1.6-6.9-6.1-7.8-8.2-3.6-7.8-4.7-15.5-9.7-23.3-1.1-1.7-10.8-13.7-12.4-12.1 5.6 13 9 46.2-2.5 56-4.4 3.7-9.4 1.9-13.3 3.7-2.8 1.3-3 5.7-4.8 6.1s-7-3.1-9.4-3.5c-8.9-1.3-13.2 17-18.7 17.5-2.5.2-10.7-11.9-18.4-9.4-7 2.2-15.4 21.2-24.4 23.6-6.3-6-3.4-14-5.8-21.2-1.2-3.5-4.2-6.7-5.8-10.2-5.4-12.7-2.8-19.9-.2-32.2.6-3 0-5.9.9-9.1.2-.7 6.3-12.3 6.9-13.1 3.7-5.4 19.2-12.4 22.7-3.8.9 2.2 0 8.7 2.2 7.7 5.1-4.9 10.2-9.9 15.5-14.5 11.5-10 14.1-9.7 21.2-24.8 1.5-3.3 6.5-14.5 6.6-17.3 0-3.4-9.2-14.7-11.8-17.8-1.4-1.7-9.5-11.5-10.2-11.8-6.4-3.2-28-2.3-34.7.8-7.9 3.6-12.5 12-19 17-1 .8-1.3 1.9-3 1.5l.8-12.7c3.6-4.3 21.7-23.3 21.1-27.5-.4-2.6-11.3-13.4-12.9-11.7 4.4 12.8.7 8.7-7.3 12.2-1.2.5-2.9 2.7-3.2 2.7s-2-2.2-3.2-2.7c-3.4-1.5-9.7-.4-9.3-5.6 0-1.1 4.1-7.6.5-6.6-2.8.8-12 9.9-11.3 13.2 0 .6 4 7 4.8 8 1.5 2 5 5.9 7 8.3 3.2 3.9 9.7 7.6 9.9 13.1 0 1.6-.8 3.1-.8 4.8s2.6 8.1-2.5 3.6c-6.2-5.3-10.2-13.6-18.5-17.5-6.5-3-30.3-4.3-35.7-.2-.8.6-8.8 10.5-10.2 12.2-2.4 3-10.9 13.7-10.8 16.8.2 5.4 11.7 29 15.7 33.2 3 3.2 9.3 6.8 13 9.9 5 4.3 9.7 9.1 14.5 13.5l4.2-11.1c4.9-3.1 17.7 2.6 20.8 7.1 1 1.5 5.1 9.9 6 11.9 2.8 6.4 5.1 25.4 4.4 32.4-1.1 10-7.9 15-9.4 22.6-1.3 6.4 1.1 14.9-5.8 18.9-8.1-2.6-17.3-21.5-23.6-23.5-8.2-2.6-15.9 9.6-18.4 9.4-5.3-.4-8.7-14-13.9-16.1-6.9-2.8-11.5 2.7-14.1 2.1-1.8-.4-2-4.8-4.8-6.1-4.5-2-9.6.3-14.3-4.7-10.9-11.5-6.5-42.2-1.5-56.1-9.1 6.7-14.1 14.8-18.5 25-1.6 3.6-2 7.5-3.7 11.3-1 2.1-4.9 9.8-7.8 8.2-.4-.2-6.9-5.9-7.5-6.5-3.9-4.3-13.8-24.4-15-30-2.8-12.9 1.4-26.5 9.5-36.5 4.1-5.1 11.3-9 13-15.5-2.4-2.4-22.3 17.4-24.4 20.1-5.4 6.8-11 15.9-9.6 24.9-8.3.5-10.7-3.3-13.3-10.2-2.7-7.1-7.8-22.8-6.2-29.8 3.7-16.2 21.4-35.8 36.3-42.7 6.2-2.9 13.9-4.1 19.2-8.3 12.5-.8 24.5-2.3 37-1 0 0 .7 2.1.5 3 9.5-8.2 20.6-14.8 33.1-16.9 4.7-.8 14.8-.4 18.1-1.8 1.6-.7 5.2-7.7 7.2-9.9 8-8.4 15.2-9.7 25.4-12.5 1.1-.3.6-1.9.7-2 1.1-.7 25.9-.7 27 0v.2Z" class="fill" data-original-prefix="fill"/><path id="fill-teeth14" fill="#ffffff" d="M1039.1 1601.9c-.8-.5-7.2-15.4-7.9-17.6-4.2-13.6-7-37.9-1.5-51.1 5.8-13.9 10.8-1 20-5 1.9-.8 7.6-6.8 9.2-8.8 2.6-3 3.6-9.1 8-8 12.8 3.1 21.1 24.2 22 36.1 2.3 30.4-23.4 40.7-45.2 53.7-1.2.5-3.6 1.3-4.6.6Z" class="fill" data-original-prefix="fill"/><path id="fill-teeth13" fill="#ffffff" d="M1015.7 1527.3c10.2 8.9 6 44.1 2.3 56.2-1.9 6.4-6 12-8.1 18.3h-2.3c-12.1-7.1-26.3-12.4-36.1-22.9-9.1-9.8-12.3-17.9-11.5-31.5.8-11.8 9-32.3 21.2-35.9 4.8-1.4 5.7 4.5 8.2 7.4 1.8 2.1 8.3 8.8 10.5 9.5 6 1.9 12.5-4.1 15.8-1.3z" class="fill" data-original-prefix="fill"/><path id="fill-teeth12" fill="#ffffff" d="M904 1461c0 2.2-1.1 3.8-.8 6.2s7.4 22.5 8.8 24c3.7 4.1 11.1 2.3 15.9 2.9 4.9 13.5-4.3 23.9-8.6 35.6-2 5.3-8.4 33.1-12.8 34.3-3.3.8-11.7-18-12.8-21.2-6.8-20.9-8.8-51.8 1.8-71.7.6-1.2 7.1-11.6 8.4-10.1Z" class="fill" data-original-prefix="fill"/><path id="fill-teeth11" fill="#ffffff" d="M1144 1564c-1 .7-1.8-.4-2.4-1.1-5.8-5.8-8.7-24.8-11.8-33.2-4.3-11.7-13.8-21.9-8.6-35.6 18.6 2.9 18.2-8.8 23.1-22.4l2.2-9.8c10.2 11.1 15.2 27.6 14.6 42.5-.5 13.7-3.2 35.3-9.5 47.5-.8 1.5-6.9 11.6-7.5 12Z" class="fill" data-original-prefix="fill"/><path id="fill-teeth10" fill="#ffffff" d="M949 1569c5.5 22.1 11.4 45.4 9 68.5-.5 5-1.3 9.2-7 6.9-3.4-1.3-17.5-13.4-19.5-16.5-7.4-11.8.3-39.7 8-50.8 1.2-1.7 7-10.1 9.4-8.1Z" class="fill" data-original-prefix="fill"/><path id="fill-teeth9" fill="#ffffff" d="M1100 1569c3.4-2.9 13.3 14.1 14.5 17 4.8 11.7 9.3 33.5 1 44-2.1 2.7-18.5 16.5-20.9 15.9-1.9-.4-3.4-6.5-3.6-8.4-1-8.7 0-26 1-35 1.1-10.9 6.5-22.5 8-33.5" class="fill" data-original-prefix="fill"/><path id="fill-teeth8" fill="#ffffff" d="M1167 1547c.9-6.7-1-15-.6-21.3.3-6.3 3.7-14.6 3.6-21.2 0-5.7-4.8-19.5-4-24 .5-2.9 3.5-2.8 5.5-4.5 6.2-5.3 10.4-15.8 16.9-4.9 14.2 23.5-1 56.5-18.4 74.4-.9 1-1.3 1.9-3 1.5" class="fill" data-original-prefix="fill"/><path id="fill-teeth7" fill="#ffffff" d="M881.7 1478.3c3.3 2.9-2.8 21-2.8 26.2s2.6 12.6 3.1 18c.7 8 0 16.5-.5 24.5-1.8 0-11.7-13.3-13.3-15.7-11.2-16.8-20.3-43.7-7-61.7 6.2-8.4 9.7.9 14 4.7 2 1.9 5.7 3 6.6 3.9Z" class="fill" data-original-prefix="fill"/><path id="fill-teeth6" fill="#ffffff" d="M1018 1613v16.5c0 .9-10.8 13.2-11.9 14.1-6.3 4.8-8-2.6-10.6-5.5-5.5-6-17.9-.4-24.4-5.6-.9-.7-4.1-8.3-4.1-8.9v-24.5c12.3 3 28.7 18.5 41.4 16.9 3.5-.4 6.1-3 9.6-2.9Z" class="fill" data-original-prefix="fill"/><path id="fill-teeth5" fill="#ffffff" d="M1102.5 1494c3.3-.8 5.3 8.5 6.3 10.7 5 10.5 15.3 30.3 11.4 42.1-2.2 6.7-15.6 23.4-20.4 11-4-10.4-4.1-44.7-1.1-55.5.4-1.6 2.4-7.9 3.8-8.2Z" class="fill" data-original-prefix="fill"/><path id="fill-teeth4" fill="#ffffff" d="M917 1563c-1.6 13.5 2.8 27.4 2 40.5-.5 8.8-4.2 18.6-5.5 27.5-5.8-5.6-10.5-15.7-11.4-23.6-.6-5.2.7-25.8 2.4-30.3.6-1.6 10.5-16.2 12.4-14.1Z" class="fill" data-original-prefix="fill"/><path id="fill-teeth3" fill="#ffffff" d="M1135 1631c-.4-8.9-4.4-17.8-5.1-26.5-1-13.6 3.6-27.7 2-41.5 2.2-2.4 11.9 13 12.5 15 2 6.8 2.7 27.3 1.2 34.3-1.3 6.3-5.5 14.8-10.8 18.7z" class="fill" data-original-prefix="fill"/><path id="fill-teeth2" fill="#ffffff" d="M1154.1 1604.9c-3.4-2-5.1-22.3-3.9-26.2.8-2.6 8.9-5.2 10.2-8.8l5.1-10.9c3.8 3.4 5.1 7.2 4.3 12.2-.7 4.5-5.2 22.3-6.9 26.2-.9 2.2-6.1 9-8.8 7.5" class="fill" data-original-prefix="fill"/><path id="fill-teeth1" fill="#ffffff" d="M885 1559c.4.4.7 7.1 3 10.5 2.7 3.9 10.5 6.9 11 10-.8 4.7-.7 23-4 25.4-2.5 1.8-7.7-4.5-8.7-6.7-1.6-3.6-6.3-22.5-7-27-.6-3.9 2.5-15.6 5.8-12.3Z" class="fill" data-original-prefix="fill"/><path id="shading-mouth2" fill="#aaaaaa" d="M918 1443.5c.8 5.3 5.6 13.8 10.1 16.9 11.5 8.3 16.2-.3 22.4-9.4 2.5 5.4 3.4 11.5 6 17 1.4 2.8 5.7 12 7.5 5.5l4-11.5c1.6 7.5 6.3 15.4 11.5 21 4.3 4.7 18.8 15.4 24.6 9.6 2-2.1 8.3-17.9 10.8-22.2 1.2-2.2 7.8-13.8 9.7-13.3 1 .2 8.5 13.2 9.7 15.3 2.4 4.5 7.3 17.7 9.8 20.2 3.8 3.8 10.5.4 14.4-1.8 10.5-5.9 18.5-17.2 21.7-28.8l4.2 12.3c.3 1.2 1.9 2.4 2.8 1.7.6-.4 5.8-11.3 6.5-13 .8-2 2.8-12 4-12 6.8 10.7 12.9 18.4 24.5 7.5 8.6-8 9.3-23.8 7-34.5 3.5-3.1 21.1 16.1 26.6 16.9 9.1 1.4 17.6-11.8 19-19.9 3.5-20.5-12.9-39.2-30.9-46.2l-12.7-4.8c15.4 0 28.2 2.9 41.1 11.4 4.8 3.1 12.2 10.9 17.6 11.4 6.2.6 10.1-4.1 10-10-.4-19.3-25.8-38.1-39.7-48.8 15.4 2.4 34.6 11.8 45 23.5 7.8 8.8 19.1 25.1 19.1 37s-6.4 28.5-9.2 32.8c-3.3 5.3-11.7 5.4-13.4 10.6-.9 8.1-2.1 16.4-2.5 24.5-1.5 29 1.4 45.2-10.8 73.2-3.6 8.2-12.7 20.4-14.9 27.1-4.2 12.8-.7 26.4-9.1 38.9-3.2 4.8-8.4 6.7-11.2 10.8-1.7 2.5-2.4 6.1-4.2 8.8-4.5 6.7-14.6 23-21.6 8.9-1.6-3.3-1.3-12.9-6.7-6.2-1.4 1.7-1.9 4.4-3.5 6.5-3.7 4.7-17.7 19.6-23.5 19.5-2.2 0-4.5-4.1-6.6-5.4-7.9-5-21.1-6.3-29.2-1.4-7.3 4.4-9.5 13.6-18.1 6.8s-6.4-10.8-20.1-9c-5.6.7-11.4 12.6-16.9 12.1-2.8-.2-11.4-11.1-18.5-12.6-6.3-1.3-17.5.7-23 4.2-2.6 1.7-4.1 5.6-7.5 5.4-5.7-.3-19.8-15.8-23.6-20.5-1.2-1.5-4.4-10.6-7.1-6.9-2.5 3.4-.6 9.9-7.2 12.7-7 3-14.9-11.2-18.1-16.4-1.2-1.8-1.2-4.3-2.6-6.4-2-3-6.8-5.4-9.5-8.5-10.4-11.9-6.7-27.7-10.7-41.3-.8-2.6-5.6-8.5-7.3-11.7-18.4-35.7-16.4-45.6-18.4-84.6-.4-7.7-.6-20.7-2.2-27.8-1.5-6.2-11.1-6.1-14.2-11.8-3.4-6.1-9.3-29.6-8.6-36.4 1.2-10.3 16.2-31.2 24-38 10.5-9.2 26.2-16.5 40-18.5l-21.5 17c-7.2 6.4-26.8 32-14.8 39.9 9 5.9 16.7-4.5 23.7-9.1 12.7-8.4 25.3-11.8 40.7-11.8l-17.3 7.2c-18 9.4-33.1 32.7-22.1 52.8 1.7 3.1 8.6 10.4 12 11.1 9.1 1.7 20.7-15.4 29.5-18 .6 6.4-.9 14.3 0 20.5zm-37.1 40.6c-12.3-.5-17.1-20.2-22.8 1.5-3.4 13 1.2 26.4 9.4 36.5 1.5 1.8 12.7 13.1 13.9 12.9.8 0 2.5-2.3 2.8-3.2 2.9-7.1-3.2-12.2-4.2-19.2-1.5-9.8 0-18.7.9-28.4Zm301.8-8.9c-3.2.8-6.3 6-8.8 7.3-2.1 1.1-7.2 1-7.8 3.2-.5 1.7 3 10.8 2.9 14.8 0 3-1.5 13.9-2.2 16.8-.9 3.6-3.9 5.7-3.9 10.2s1.4 7.1 3.7 7.4c1.9.3 15-14.4 16.8-17 5.7-8.5 9-18.8 7.3-29.2-.5-3-4.4-14.5-8-13.6Zm-284.8 10c-4-2.3-6.5 9.9-6.8 12.5-1.2 10.5 3 38 8.7 47.1 1.9 3 5.4 6.9 9.2 7.3 3.7-15.6 12.6-29.2 21-42.5-2.3-.4-1.7-2.9-2.7-3.5-1.5-.9-7-1.9-9.7-3.1-4.7-2.2-12-7.7-15.6-11.4-1.2-1.2-3.8-6.2-4.2-6.3ZM1139 1552c8.3-2 11.9-12.2 13.9-19.6 3.1-12.1 6.1-33.4 1.1-44.8-3-6.9-5.8 1.7-8.3 4.1-3.9 3.8-11 9.3-16 11.6-2.5 1.1-7.8 1.8-9.1 2.7-.7.5-.5 1.8-1 2.7-.3.4-1.7.4-1.6.9 0 1 7.9 12.3 9.2 14.8 4.8 8.8 9.1 18 11.8 27.7Zm-197.7 5.7c8.1 8.1 9.5 0 10.5-7.3.8-5.6 2.7-20.6 1.7-25.4-3.6-17.2-21.3-15.9-21.6 3.6 0 6.8 4.6 24.3 9.4 29.2Zm161.5-44.5c-5 1.3-8.5 9.3-8.8 14.2-.2 4 2.4 28.5 3.8 31.3 2.5 5 7.5 0 9.8-2.7 6.8-8.3 11.6-30.7 4.5-39.5-2.7-3.3-4.8-4.4-9.2-3.3zM1023 1544c-.7-.7-.8-7-5.1-9.4-8.9-5-21.8-.8-32-4-10.4-3.3-9.4-13.1-16.1 1.8-2.9 6.4-9.1 24.4-6.3 30.7 1.1 2.4 17.8 15.6 21.2 17.8s18.2 11.7 21.1 10c3.1-5.6 9.3-9.5 12.6-14.9 1.8-2.8 4.1-11.5 4.6-11.9 1.6-1.7 1.7.5 2.1 1.4 1.6 3.6 2.1 6.8 4.5 10.5 3.3 5.2 9.2 9.3 12.4 14.6 3.1 1.9 15.5-5.9 18.9-8.1 4.5-2.9 22.9-17 23.9-21.1 2.2-9.7-6.6-28.3-10.9-37.2-4.9 1-7.8 5.2-12.7 6.7-9.2 2.8-28.2-1.6-33.7 6.3-.9 1.2-2.6 8.9-4.5 7zm-136 18c-.7-.6-3.5 0-4.5.9-6 6.2 2.4 31.6 14.6 27.6 4-1.3 3.8-9.4 2.8-12.9-1.1-3.9-7.2-4.1-9.8-7.2-2.1-2.5-2.7-8.2-3-8.5Zm274.1 0c-.3.3-.9 6-3 8.5-2.6 3.1-8.7 3.3-9.8 7.2-1 3.4-1.2 11.6 2.8 12.9 13.4 4.4 20.2-24.5 14.1-28.1-.9-.5-3.5-.9-4-.4Zm-216.4 7.2c-1.5.4-5.1 4.6-6 6.1-3.4 5.6-5.6 32.3-4.8 39.3 1.3 10.9 15.2 18 19.5 3.5 1.7-5.6 2.6-21.4 2.5-27.6 0-1.1-5.8-19.7-6.5-20.5-1.2-1.4-3.2-1.3-4.8-.8Zm153.3-.1c.2 6.6-5.4 14.7-6 20.6-.5 4.5 1 25.3 2.4 29.4 4.2 12.1 16.9 7.3 19.1-2.9 1.1-5.2 0-16.8-.6-22.6-1-9.7-1.7-25.5-14.9-24.5m-180 1.9c-20.5 3.8-17 28.7-9 43 4 2.9 10.4-17 10.7-19.8.9-7.5-2.9-15.5-1.8-23.2Zm218 43c2.5 1.8 7.2-9.1 7.7-10.8 3.9-12.8 1.6-30.1-13.7-32.2.5 7.4-2.8 16.2-1.9 23.4.3 2.7 6.4 18.5 7.9 19.6m-148.2 10.2c1.4.8 4.8 8.6 9.5 11 11.1 5.8 20.2-6.4 20.7-16.7.8-13.7-7.2-7.7-16.5-8.6-8.4-.8-15-4.8-21.8-9.2-5.5-3.5-13.6-14.6-14.7-1.4-.5 5.1 1.4 7.5 1.8 11.2s-2 5.9.5 10.7c4.8 9.3 18 1.3 20.7 2.8zm93.1-31.1c-2.1-1.5-19.7 12.7-23.9 14.4-2.3 1-7.9 2.3-10.5 2.5-10.5.9-18.8-5.4-16.4 11.4 1 7.3 7.9 15.8 16 15.1 9.4-.8 11.9-11.6 14.6-12.4 4-1.3 12.3 5.7 18.9-1.1 4.3-4.4 1.3-8.4 1.5-12.5 0-2.3 1.9-4.8 2-8.1 0-1.9-.8-8.5-2.2-9.4Z" class="outline shading" data-original-prefix="shading" opacity="0.5" style="opacity: 0.5"/><path id="shading-mouth1" fill="#aaaaaa" d="M1041 1343c6.1.5 12.7-1 17.5-5 1.5-1.3.9-3.7 2.8-2.9 10.1 7.9 37.9 17.4 43.8 28.2 3.6 6.5 4.6 17.5-1.8 22.6-5.6 4.5-20.8 10.8-28 15-4.9 2.8-9.7 6.6-14.7 9.3-7.4 4.1-25.5 14.5-32.6 16.4-2.9.8-5.2.8-8.1 0-14.5-3.8-42.2-22.5-56.3-30.7-6.2-3.6-21.2-9.1-23.2-15.8-5.5-18.4 15.7-28.3 28.7-35.4 2.3-1.2 15.5-8.6 16.5-8.7 2.9-.3 4.2 2.9 6.7 4.2 4.2 2.3 10 3.2 14.7 2.8-.3-5.1-3.3-11.3-1.8-16.3.5-1.6 12.5-13.9 14.5-14.4 3.9-1 8.2-.3 11.6 1.9 1 .7 10.8 11.1 11.2 11.8 2.1 5-1.2 11.8-1.5 17" class="outline shading" data-original-prefix="shading" opacity="0.5" style="opacity: 0.5"/><path id="outline-mouth3" fill="#000000" d="M889 1333c-5.3 4.2-13 5.4-19.2 8.3-14.9 6.9-32.6 26.5-36.3 42.7-1.6 7 3.5 22.7 6.2 29.8 2.6 6.9 5 10.8 13.3 10.2-1.4-9 4.2-18.1 9.6-24.9 2.1-2.6 22-22.5 24.4-20.1-1.7 6.5-8.8 10.4-13 15.5-8.1 10-12.3 23.6-9.5 36.5 1.2 5.6 11.1 25.8 15 30 .6.7 7.1 6.3 7.5 6.5 3 1.5 6.9-6.1 7.8-8.2 1.7-3.8 2.1-7.7 3.7-11.3 4.4-10.2 9.4-18.4 18.5-25-5.1 13.9-9.5 44.6 1.5 56.1 4.8 5 9.9 2.7 14.3 4.7 2.8 1.3 3 5.7 4.8 6.1 2.6.6 7.2-4.9 14.1-2.1 5.2 2.1 8.6 15.6 13.9 16.1 2.5.2 10.2-12 18.4-9.4 6.3 2 15.5 20.8 23.6 23.5 6.9-4 4.5-12.6 5.8-18.9 1.5-7.6 8.3-12.6 9.4-22.6.8-7-1.6-26-4.4-32.4-.9-2.1-5-10.5-6-11.9-3.1-4.5-15.9-10.2-20.8-7.1l-4.2 11.1c-4.8-4.4-9.5-9.2-14.5-13.5-3.7-3.2-10-6.8-13-9.9-4-4.2-15.5-27.8-15.7-33.2 0-3.1 8.4-13.8 10.8-16.8 1.4-1.8 9.5-11.6 10.2-12.2 5.4-4.1 29.2-2.8 35.7.2 8.4 3.8 12.4 12.1 18.5 17.5 5.2 4.5 2.5-1.7 2.5-3.6s.9-3.2.8-4.8c-.2-5.4-6.7-9.2-9.9-13.1-2-2.4-5.5-6.3-7-8.3-.8-1-4.7-7.3-4.8-8-.7-3.3 8.6-12.4 11.3-13.2 3.6-1-.5 5.5-.5 6.6-.4 5.2 5.9 4.1 9.3 5.6 1.2.5 3 2.7 3.2 2.7s2-2.2 3.2-2.7c8-3.5 11.7.6 7.3-12.2 1.6-1.7 12.5 9.1 12.9 11.7.6 4.2-17.5 23.2-21.1 27.5l-.8 12.7c1.7.4 2-.7 3-1.5 6.5-5 11.1-13.4 19-17 6.8-3.1 28.3-4.1 34.7-.8.7.3 8.8 10.1 10.2 11.8 2.6 3.1 11.9 14.4 11.8 17.8 0 2.8-5 14.1-6.6 17.3-7.1 15.2-9.7 14.8-21.2 24.8-5.3 4.6-10.4 9.6-15.5 14.5-2.2.9-1.4-5.6-2.2-7.7-3.4-8.6-19-1.6-22.7 3.8-.6.8-6.7 12.4-6.9 13.1-1 3.2-.3 6.1-.9 9.1-2.6 12.3-5.2 19.6.2 32.2 1.5 3.5 4.6 6.8 5.8 10.2 2.5 7.2-.5 15.2 5.8 21.2 9-2.3 17.4-21.3 24.4-23.6 7.7-2.4 15.9 9.6 18.4 9.4 5.6-.5 9.8-18.8 18.7-17.5 2.3.3 7.6 3.9 9.4 3.5s2-4.8 4.8-6.1c3.9-1.8 8.9 0 13.3-3.7 11.5-9.9 8.1-43 2.5-56 1.6-1.7 11.3 10.4 12.4 12.1 5.1 7.8 6.1 15.5 9.7 23.3 1 2.1 4.8 9.8 7.8 8.2.4-.2 6.9-5.8 7.6-6.5 7-7.6 16-30.2 15.4-40.5-1.3-22.7-10.7-22.7-21.5-37.5-5.3-7.2 2.8-2.4 6 0 11.8 8.6 28 25.5 26.5 41 11.4 1.6 13.7-11.7 16.3-20.2 4.6-15.6 5.3-18.8-3.1-33.4-7.4-13-16.3-22.7-29.9-29.1-6-2.8-14.1-4.1-19.2-8.3 9.3.7 19.7 2.8 29.2 5.3 7.4 1.9 14.4 3.9 20.7 8.3 3.2 9.3 27.6 34.6 28 42 .2 3.7-8.2 22.5-10 27.9-2.5 7.2-2.6 16-10 21-1.9 1.3-8.4 2-9 3.2-4.1 7.9-1.4 38-1.9 48.8-1.1 21.6-7.6 43.1-20.5 60.5-.9 1.2-2.6 1.5-3.6 2.7-4.3 5.6-2.8 18.6-4.3 26.5-1.2 6-5 13.1-5.6 18.4-.4 3.5 1.3 7.7.8 9.7s-10.7 8.6-13.2 9.9c-2.2 1.2-5.7 1.5-6.5 2-.6.4-5.4 10.9-7.2 13.3-2.1 2.7-11.1 11.3-14 12.1-4.1 1.2-7.9-10.3-9.9-13s-2.3 2.3-3.6 4.3c-4.3 6.7-25.1 26.6-32.4 28.6-1.7.5-3.3.7-5 .5-.4-5.9 3.2-9.9-1.5-15.1-8.2-9-20.9-.3-24.3 8.8-1.8 4.9-1.6 20-8.6 18.1-4.6-1.3-20-25.6-23.2-30.8-5.7 8.9-12.2 19.9-19.5 27.4-11.2 11.7-9.9-11-13.8-18.2-3.8-7.1-14-12-21.1-6.7-6.7 5-2.9 9.6-3.1 16.4-3.5 3.5-24.3-13.8-27.5-17-1.3-1.3-10.5-12.2-11-13-.7-1.4-.2-6.3-2.6-3.3-2.1 2.7-6.2 14.3-10.2 13.3s-12-10.2-13.7-12.4c-2.1-2.7-6.6-12.8-7.2-13.2-.8-.5-3.8-.6-5.8-1.7-2.3-1.2-11.9-7.4-13-9-2.1-3.2.4-6.9 0-11-.7-6.8-5.9-15.3-6.8-24.2-.5-5 .6-10.7-.6-15.4-1-4-8-10-10.7-14.3-15.3-24.4-17.6-52.1-17.9-80.2 0-5.4 3-18.2 0-22.8-.8-1.2-7.8-1.9-10.4-3.8-7.2-5.3-6.2-13-8.6-20.4-1.9-6-10.7-24.3-9.8-28.7.5-2.7 4.3-7.5 6-10.1 7-10.8 15.7-20.6 22.5-31.5 5.9-4.3 13.2-6 20.1-7.9 9.7-2.6 19.8-4.7 29.2-5.3h.2Zm15 128c-1.4-1.5-7.8 8.9-8.4 10.1-10.6 19.9-8.6 50.8-1.8 71.7 1.1 3.3 9.4 22.1 12.8 21.2 4.4-1.1 10.8-28.9 12.8-34.3 4.3-11.7 13.6-22.1 8.6-35.6-4.8-.6-12.2 1.2-15.9-2.9-1.4-1.5-8.5-21.7-8.8-24s.8-4 .8-6.2Zm240 103c.6-.4 6.8-10.5 7.5-12 6.3-12.1 9-33.7 9.5-47.5.6-14.9-4.3-31.4-14.6-42.5l-2.2 9.8c-4.9 13.6-4.6 25.2-23.1 22.4-5.2 13.7 4.3 23.9 8.6 35.6 3.1 8.4 6 27.5 11.8 33.2.7.7 1.4 1.8 2.4 1.1Zm-262.3-85.7c-1-.9-4.6-2-6.6-3.9-4.2-3.9-7.8-13.1-14-4.7-13.3 17.9-4.1 44.9 7 61.7 1.6 2.4 11.5 15.7 13.3 15.7.5-8 1.2-16.5.5-24.5-.4-5.4-3.1-12.3-3.1-18s6-23.3 2.8-26.2ZM1167 1547c1.7.4 2-.5 3-1.5 17.4-17.9 32.6-50.9 18.4-74.4-6.5-10.8-10.8-.4-16.9 4.9-2 1.7-5 1.6-5.5 4.5-.8 4.5 4 18.3 4 24s-3.3 14.8-3.6 21.2c-.3 6.3 1.6 14.6.6 21.3m-64.5-53c-1.4.3-3.3 6.6-3.8 8.2-3 10.7-2.9 45.1 1.1 55.5 4.8 12.4 18.2-4.3 20.4-11 3.9-11.7-6.4-31.5-11.4-42.1-1-2.2-3-11.4-6.3-10.7Zm-86.8 33.3c-3.2-2.8-9.7 3.2-15.8 1.3-2.1-.7-8.7-7.5-10.5-9.5-2.6-2.9-3.4-8.8-8.2-7.4-12.2 3.5-20.5 24.1-21.2 35.9-.9 13.6 2.4 21.7 11.5 31.5 9.8 10.4 24 15.7 36.1 23h2.3c2.1-6.4 6.2-12 8.1-18.4 3.7-12.2 7.9-47.3-2.3-56.2zm23.4 74.6c1.1.7 3.4 0 4.6-.6 21.8-13.1 47.5-23.3 45.2-53.7-.9-11.9-9.2-33-22-36.1-4.4-1.1-5.5 5-8 8-1.7 1.9-7.3 7.9-9.2 8.8-9.2 4-14.3-9-20 5-5.4 13.2-2.6 37.5 1.5 51.1.7 2.2 7.1 17.1 7.9 17.6ZM885 1559c-3.2-3.3-6.4 8.4-5.8 12.3.7 4.5 5.4 23.4 7 27 1 2.2 6.2 8.5 8.7 6.7 3.4-2.4 3.2-20.7 4-25.4-.5-3.1-8.3-6.1-11-10-2.3-3.5-2.6-10.1-3-10.5Zm269.1 45.9c2.7 1.5 7.8-5.3 8.8-7.5 1.7-3.8 6.1-21.6 6.9-26.2.8-5-.5-8.8-4.3-12.2l-5.1 10.9c-1.4 3.6-9.4 6.1-10.2 8.8-1.2 3.9.5 24.2 3.9 26.2M917 1563c-1.9-2.2-11.8 12.5-12.4 14.1-1.7 4.6-3 25.2-2.4 30.3.9 7.9 5.6 18 11.4 23.6 1.4-8.8 5-18.6 5.5-27.5.8-13.1-3.7-27.1-2-40.5Zm218 68c5.3-3.9 9.4-12.4 10.8-18.7 1.5-7 .8-27.4-1.2-34.3-.6-1.9-10.4-17.4-12.5-15 1.5 13.8-3.1 28-2 41.5.7 8.7 4.6 17.6 5.1 26.5zm-186-62c-2.4-2-8.2 6.4-9.4 8.1-7.7 11.1-15.4 39-8 50.8 2 3.2 16 15.2 19.5 16.5 5.6 2.2 6.5-1.9 7-6.9 2.4-23.1-3.5-46.4-9-68.5Zm151 0c-1.5 11-6.9 22.6-8 33.5-.9 9-2 26.3-1 35 .2 1.9 1.7 8 3.6 8.4 2.4.6 18.8-13.3 20.9-15.9 8.3-10.5 3.8-32.3-1-44-1.2-2.9-11-19.9-14.5-17m-82 44c-3.5 0-6.1 2.5-9.6 2.9-12.7 1.6-29.1-13.9-41.4-16.9v24.5c0 .6 3.2 8.2 4.1 8.9 6.5 5.2 18.9-.4 24.4 5.6 2.6 2.9 4.3 10.3 10.6 5.5 1.1-.8 11.9-13.1 11.9-14.1v-16.5Z" class="outline" data-original-prefix="outline"/><path id="outline-mouth2" fill="#000000" d="M1122 1332c-.2 0 .2 1.6 0 1.9-1 .8-8.1-5.8-10.2-7.1-10-6.1-19.8-8.3-31.2-9.8-2.9-.4-6.9.7-9.5-.5-1.5-.8-4.5-7.4-6.5-9.5-7.8-8.7-15.6-10.2-25.8-13-1.1-.3-.6-1.9-.7-2 3.1-3.8 16.2-9.3 20.8-9.8 7.9-.9 5.5 4.4 6.5 9.1 2.3 10.7 9.3 19.6 21.3 18.8 5.1-.3 5.6-4 7.9-4.1 1.4 0 6.6 2.9 8.2 3.8 9.4 5.2 15 12.5 19.3 22.2z" class="outline" data-original-prefix="outline"/><path id="outline-mouth1" fill="#000000" d="M1011 1292s.4 1.7-.7 2c-10.2 2.8-17.4 4.1-25.4 12.5-2 2.1-5.6 9.2-7.2 9.9-3.4 1.4-13.5 1-18.1 1.8-12.5 2.1-23.6 8.7-33.1 16.9.2-.9-.5-2.8-.5-3 .8-2.7 8.7-13.3 11-15.6 2.5-2.4 14.7-10.5 17.6-10.4 2.7 0 3 5.1 11.9 3.9 10-1.3 16.2-10.1 17.5-19.6.4-2.6-2.4-6.7 2.8-8.2 3.5-1 21.7 5.6 24.3 9.8Z" class="outline" data-original-prefix="outline"/>
    </g><g class="trait-group" data-category="eyes" id="eyes-wayfairer black-KBDS">
      <path id="fill-head4" fill="#ffffff" d="M1241.1 1390.9c-16.6.9-35.8.2-54.8-1.2-25.5-1.9-51.3-3-76.2-9.7-9.7-2.6-17.8-8-26-13.2-9.1-5.8-17.7-12.3-26.7-18.3-2.9-1.9-3.7-4.7-4.2-7.5-3.6-22.9-9-45.4-13.3-68.1-1-5-3.4-7.6-9-8.2-5-.5-9.9-.4-14.8.2-3.9.5-6.3 2.3-7.1 6.4-3.9 19.3-7.9 38.5-11.8 57.8-.8 4.1-1.2 8.2-2.1 12.2-.6 2.9-1.6 5.5-4.4 7.4-12.5 8.5-24.7 17.4-37.8 24.9-10.3 5.9-21.5 8.6-32.9 10.2-17.6 2.5-35.3 3.9-53 5.3-32.9 2.5-65.9 2.6-98.8 1.4-23.5-.8-46.8-5-69.9-9.2-7.5-1.3-14.9-2.9-22.4-4.2-2.1-.4-3.4-1-3.6-3.3-2-22.2-9-43.3-14.5-64.7-8.8-34.2-18.5-68.2-26-102.8-.2-1-.5-1.9-.5-2.9-.5-7.8-3.3-13.3-12.2-13.4-4 0-6.1-2.6-7.7-5.9-6.1-12.5-14-24-18.4-37.4-1.5-4.6.2-6.1 3.5-7.6 5.5-2.4 11.4-3.3 17.3-4.1 10.3-1.4 20.7-2.8 31-4.2 3.4-.4 4.9-2.2 5.7-5.7 5.8-27.8 14-54.7 27-80.1 7.5-14.5 16.7-27.9 26.7-40.7 2.8-3.6 6.4-6.2 11.6-5.4 3.9.6 6-1.3 8.3-4.6 5.8-8.2 12.3-16 18.8-23.7 6.9-8.2 14.3-15.7 22-23.1 24.1-23 50.4-43.2 79-60.3 19.3-11.5 39.5-21.2 60.4-28.9 13.9-5.1 28.8-7.4 43.3-10.4 34.1-7.1 68.7-6.6 103.2-5.8 22.5.5 44.8 3.8 66.7 9.2 4.7 1.1 9.4 1.9 14 3.2 21.8 6.1 42 15.8 61.8 26.5 18.3 9.9 35.5 21.5 52 34 18.6 14.1 36.2 29.3 51.9 46.4 10.1 10.9 20 22.1 28.2 34.6 2.1 3.1 5.4 2.8 8.1 2.6 6-.4 9.4 2.9 12.8 7.1 26.3 32.7 41.7 70.4 50.7 111 .2.8.5 1.6.7 2.4 2.6 13.9 1 10.2 15.1 12.7 12 2.2 24.3 2.8 36.1 6.2 1.4.4 2.8 1 4.1 1.7 2.6 1.4 3.6 2.9 2.4 6.4-4.8 14.6-13.2 27.5-20.3 40.9-1.9 3.6-6.3 3.5-9.7 3.8-4.7.5-6.6 3-7.4 7.2-5.4 28.8-13.4 56.9-20.7 85.2-6.7 25.9-14.5 51.5-19.7 77.8-.7 3.7-1.4 7.5-1.5 11.3 0 3.4-1.6 4.6-4.6 5.2-16.9 3.2-33.8 6.2-50.9 8.5-12.8 1.7-25.6 3.9-38.4 4.8-12.8.8-25.7 0-41.1 0Z" class="fill" data-original-prefix="fill"/><path id="fill-head3" fill="#ffffff" d="M1238.1 1131.8c32.8-1.3 65.4-1.9 98.1.3 21 1.4 41.8 4.8 62.5 8.7 3.8.8 3.1 2.8 3 5.8-3.9 67.8-19 133-36.5 197.7-4.3 15.7-4.5 15.3-19.3 16.7-31.5 3-62.7 7.2-94.3 9.1-39.6 2.4-79.2 2.3-118.4-5.6-11.5-2.3-22.8-5.3-34.1-8.3-21.8-5.7-30.9-23.4-36.7-45.4-9.5-36.5-12.2-74.3-18.2-111.5-2-12-3.7-24-6.1-35.9-.8-4.2 0-5.2 3.4-6.3 21.5-7.8 43.8-11.8 66.1-14.8 43.2-5.9 86.9-8.1 130.4-10.5Z" class="fill" data-original-prefix="fill"/><path id="fill-head2" fill="#ffffff" d="M808.4 1139.3c51.2 2.9 102.4 4.9 153.2 14 15.2 2.6 30.2 6 44.9 11.3 3.1 1.1 3.8 2.3 3.1 5.9-6.9 37.1-11 74.8-16.8 112-2.8 17.3-6.7 34.7-13 51.2-6.8 17.6-20 25.9-36.5 30.3-43.4 11.6-87.4 15-131.9 13.1-35.9-1.5-71.5-5.8-107.2-9.6-5.2-.5-10.4-1.1-15.5-1.4-3.2 0-4.5-1.8-5.4-5-13.1-43.7-23.1-88.4-31.1-133.5-4.4-24.6-7.6-49.4-8.8-74.5-.2-3.9 1-4.4 3.9-5 27.5-5.5 55.2-9 83.2-9.7 25.8-.5 51.8-.6 77.8 1Z" class="fill" data-original-prefix="fill"/><path id="shading-head8" fill="#aaaaaa" d="M972.8 1140.1c-8.9-1.1-16.9-2.2-24.9-3.3-.7 0-1.5-.8-2-1.4-12.3-15.3-28.6-25.7-43.8-37.6-34.7-27.1-73.9-45.7-115.2-60.3-18.4-6.5-36-15.1-55-20.4-8.1-2.3-8.6-5-3.5-12.1C777 936.5 842 890.1 920.9 862.4c6.8-2.4 13.9-4 21.4-4.9-5.6 4-10.7 9.1-16.9 11.9-35.8 16.3-61.5 43.8-84 74.8-9.8 13.5-18.1 27.8-25.6 42.7-5.2 10.3-3.3 19.8 1.5 28.9 4.4 8.4 10.3 15.9 16.4 23.2 4.9 5.8 10.7 10.2 17.6 13.6 31.8 15.6 63 32.4 93.3 50.9 8.8 5.4 16 11.6 20.1 21.3 1.8 5.2 5 9.8 8.1 15.3" class="outline shading" data-original-prefix="shading" opacity="0.5" style="opacity: 0.5"/><path id="shading-head" fill="#aaaaaa" d="M1075.1 1140.2c5.2-9.4 9.7-17.9 14.6-26.2 1.8-3.1 5.2-4.6 8.2-6.4 30.8-19.8 63.1-37.2 96-53.2 10.1-4.9 18.4-11.3 24.7-20.3 6.2-8.9 14.1-17 16-28.4 1.1-6.2.9-11.9-2.1-17.9-18.6-37.7-43.4-70.5-75.7-97.5-8.8-7.4-19-12.9-29.3-18-7.8-3.9-14.2-9.7-22.1-14.6 3.2-1.4 5.4.2 7.5.7 38.3 9.8 72.8 27.9 105.8 49.2 25 16.2 47.4 35.5 68.1 56.7 12.8 13.2 23.8 27.9 34.3 42.9 3.1 4.4 2.5 7.2-2.8 9.1-7.8 2.9-16 4.5-23.6 7.7-42.5 17.6-86.8 31.2-125.4 57.1-20.5 13.7-39.9 28.8-58.7 44.8-1.3 1.1-2.8 2.1-3.6 3.5-3.8 7.1-10.2 8.6-17.5 8.8-4.5 0-8.9 1.2-14.4 2" class="outline shading" data-original-prefix="shading" opacity="0.5" style="opacity: 0.5"/><path id="shading-head2" fill="#aaaaaa" d="M793.5 1132.4c-9.1.5-18.2 1-27.3 1.4-20.6.9-41.2 2.2-61.8 4.1-2.6.2-4.8-.2-7.1-1.5-8.4-4.5-16.9-8.8-25.6-13.2 8.9-5.1 11.1-14.6 14.6-22.8 3.5-8.1 8.1-10.3 16.7-10.7 14.6-.7 27.1 2.5 39.3 10.6 15.1 10 31 18.7 46.6 28.1 1.7 1 3.3 2.1 4.9 3.2 0 .2-.2.5-.3.8" class="outline shading" data-original-prefix="shading" opacity="0.5" style="opacity: 0.5"/><path id="shading-head1" fill="#aaaaaa" d="M1377.4 1122.9c-10.7 4.4-19.2 9.4-27.9 14-1.7.9-3.4 1.1-5.2 1-28.7-2.5-57.4-4.1-86.2-5.2-1.3 0-2.6-.3-3.9-.5.4-1.8 1.8-2.1 2.9-2.8 21-12.5 42.1-25 63.1-37.5 2.7-1.6 5.4-2.3 8.5-2.2 7.7.2 15.3.4 23 .2 3.6 0 5.4 1.2 6.8 4.4 2.6 5.8 5.5 11.4 8.3 17 2.2 4.5 3.6 9.7 10.6 11.6" class="outline shading" data-original-prefix="shading" opacity="0.5" style="opacity: 0.5"/><polygon id="fill-head11" points="1420.4 1166 1413.7 1159.3 1420.4 1152.6 1437.1 1159.3 1420.4 1166" fill="#ffffff"/><polygon id="fill-head10" points="633.7 1152.6 640.4 1159.3 633.7 1166 617 1159.3 633.7 1152.6" fill="#ffffff"/><g id="glasses"><path id="outline-eyes1" fill="#000000" d="M1459.9 1138.3c-5.4-5.3-12.3-6.3-19.1-7.3-11.2-1.7-22.4-2.9-33.6-4.4-2-.3-3.7-.9-4.1-3.5-1.2-8.9-3.8-17.5-6.1-26.2-9.4-35.2-25.1-67.4-47.9-95.8-3.5-4.4-8-10.6-15.8-6.1-1.2.7-2.4 0-3.3-1.3-9.8-14.8-21.6-27.9-33.8-40.6-19.4-20-40.6-38-63.6-53.7-33.1-22.6-67.6-42.4-107.4-51.1-23.7-5.3-47.5-9.5-71.9-10.5-9.7-.4-19.3.2-28.9-.2-15.2-.7-30.2 0-45.3 1.3-24.3 1.9-48.1 6.9-71.5 13.2-21.7 5.9-41.8 16.2-61.3 27.5-39.7 23-75.2 51.4-105.8 85.7-7.9 8.8-15.9 17.6-22.2 27.6-1.3 2.1-2.7 2.4-4.5 1.3-3-1.9-5.2-.5-7.6 1.3-9.3 7.2-15.1 17.3-21.3 26.8-20 30.6-31.6 64.4-38.6 100-.6 2.6-1.6 3.7-4.1 4-8.8 1.2-17.5 2.6-26.2 3.7-7.2 1-14.6 1.1-21.4 4-6.1 2.6-10 6.9-7.8 12.2 5.7 13.7 12.5 26.8 19.3 40 2.7 5.3 6.2 8.6 12.1 8.8 5.3.2 6.8 3 7.8 7.9 7.5 37.4 18.1 74 27.7 110.8 5.2 20 11.6 39.7 13.9 60.2.6 5.9 2.9 7.6 8.3 8.4 13.9 2.1 27.7 5 41.7 7.1 20.9 3.2 41.7 6.1 62.9 6.3 20.4.2 40.9 0 61.4-.8 24.9-1.2 49.7-2.9 74.5-5.8 14.6-1.7 28.5-4.7 41.2-12.2 11.9-7 23.1-15.1 34.5-22.9 4.2-2.8 6.5-6.2 7.4-11.1 4-21.4 8.3-42.7 12.5-64.1 1.1-5.7 4.4-9.1 10-10.2 7.4-1.5 12.4 1.7 13.8 9 4.2 21.6 9.1 42.9 12.7 64.6.6 3.6 1.1 7.4 4.9 9.9 10.1 6.7 19.9 13.9 30.1 20.5 6.9 4.6 14.1 8.8 22.1 11.4 16.1 5.3 33 6.1 49.6 7.7 30.8 2.9 61.8 4 104.4 4.3 14.6.4 40.5-1.9 66.3-5.9 16.6-2.6 33.1-5.4 49.6-8.4 3-.6 4.5-1.8 4.7-5.2.3-5.4 1.3-10.9 2.5-16.2 6-27.1 13.8-53.7 20.8-80.6 6.6-25.3 13.7-50.4 18.5-76.1 1-5.5 3-8.4 8.8-8.8 3.8-.3 7.3-1.4 9.5-5.4 7.6-14.2 15.3-28.4 21.1-43.5 1.1-2.9 1-5.2-1.5-7.6m-380 197.3c-2.1-2-3.6-4.2-4.8-6.8-10.6-23.2-13.9-48-17.9-72.8-2.8-17.5-6.5-34.9-9.5-52.4-1.6-9.6-2.6-19.4-3.7-29.1-.5-5 2-8.1 6.7-9.8 10.8-3.9 22.1-5.8 33.4-7.8 51.5-9.2 89.7-13.4 157.7-14.6 20.3 0 47.4.8 74.5 3.2 21 2 41.7 5.3 62.2 10.1 4.9 1.1 9 3.7 13.7 5.2 1.6.6 1.8 4.8 1.8 7.6-.2 14.6-1.7 29.2-4.4 43.5-7.9 43-17.3 85.6-31.7 127-.8 2.3-2.1 4.5-2.7 6.9-1.6 6.5-6 9.6-12.1 11.1-12 3-24.3 3.9-36.5 4.8-27.8 2-56 2.9-83.4 2.9s-54.9-.4-82.1-3.8c-22.6-2.8-43.9-9.1-61.2-25.2M867 1364.1c-37.1 1.6-74.2.8-111.2-1.2-16.7-.9-33.5-1.9-50-5.5-7.4-1.6-11.3-5.8-13.8-12.6-12.8-35.1-21.2-71.3-28.9-107.7-3.8-18.1-7.1-36.1-8.3-54.6-.4-6.5-1.4-12.8 0-19.2.5-2.1 1.4-1.8 2.8-2.6 14.3-7.5 30.1-9 45.5-11.4 36.4-5.8 73.1-7.2 109.9-6.8 38.6.2 76.9 3.2 114.9 8.6 21.4 3 42.7 6.7 63.7 11.9 2 .5 3.9 1.1 5.7 1.9 5.6 2.3 7.4 5.8 6.6 11.8-2.5 19-5.2 38-8.9 56.8-4.8 24.9-8.2 50-14.2 74.6-2.1 8.4-6.5 16-9.5 24.1-.3.9-1.1 1.6-1.8 2.3-11.2 10-23.6 17.6-38.3 21.6-17.8 4.8-35.9 6.9-54.2 7.2-3.4 0-6.7.8-10 .8M682.2 1085c8.4-19.3 18.8-37.5 30-55.3 1.4-2.2 2.8-3.6 5.5-3.6 20.5-.2 40.9.8 60.7 6.9 1 .4 2.2 1 2.7 0 .7-1.5-.8-2.4-1.8-3.2-10.6-8.7-22.3-15.9-34.6-21.8-4.2-2-4.1-4.2-2.8-7.7 3.5-9.1 8.3-17.4 14.8-24.7 21.7-24.6 48-43.4 75.5-61 27.7-17.8 57.6-30.8 87.9-43.4 38.5-16 78.5-19.8 119.4-18.3 26.1 1 52.3 3.8 76.9 13.4 39.8 15.6 78.6 33.3 114 57.9 21.8 15.1 42.4 31.2 60.1 50.9 7.2 8 12.6 17 15.9 27.3.9 2.7.6 4.1-2.3 5.6-11.7 5.9-23.1 12.5-33.3 21-1.3 1.1-4 2-2.9 4 1 1.8 2.8-.4 4.3-.8 6.7-1.7 13.3-3.3 20.1-3.8 12.2-.9 24.4-3.2 36.8-2.4 3.6.3 5.9 1.3 8 4.6 13.9 22.1 25.8 45.1 35.9 69.1 2.6 6.2 3.2 12.6 3.2 19.1s-3.2 4.2-6 4c-7.9-.6-15.9-1.5-23.8-2.3-41.5-4.4-83.1-5.5-124.8-5.1-30.4.3-60.7 1.5-90.9 4-2.1.2-4.3.3-7.7.5 24.8-22.2 52.1-39.3 78-58.3-3.8-.7-6.8.9-9.8 2.4-12.4 6.4-23.2 15.6-35.9 21.6-18.3 8.6-35.2 19.5-53.7 27.7-2.3 1-4 2.8-5.1 4.7-2.4 4-5.9 4.9-10 5.3-19.5 2.1-39 4.1-58.4 7-7.5 1.2-14.9-1.1-22.3-1.9-14-1.4-28.1-3.2-42.1-4.8-4.3-.5-8.4-.8-11-5.3-1.8-3-5-4.5-8.2-6.2-25.2-13.5-51.4-25.2-75.2-41.3-6.4-4.3-12.9-8.4-21.1-9.3 25.8 19.2 53 36.2 77.7 58.4-4.3-.3-7.4-.5-10.4-.7-56.9-4.4-113.8-5.2-170.8-2.3-21 1.1-41.9 2.9-62.7 5.6-1.3.2-2.7.2-4 .2-4 .3-5.3-1.3-5.5-5.5-.6-12 5.2-21.9 9.7-32.2" class="outline" data-original-prefix="outline"/><path id="outline-head9" fill="#000000" d="M813.3 1148.3c-29.1 60.2-73.3 144.5-103.7 204.1-4 5.7-14.7-6.7-15.4-16.3-11.7-29.9-38.3-142.4-33.5-167.1-.2-4.3 6.5-8 11.1-8.5 30.8-13.7 142.9-14.7 141.6-12.2Z" class="outline" data-original-prefix="outline"/><path id="outline-head6" fill="#000000" d="M968.2 1164.5c-27.3 41.2-100.1 180-107.3 194.6-1.5 2.9-5.1 1.9-7.3 2-11 .6-55.2-1.6-66.2-1.9-4.7 0-2.1-3.1-1.1-4.8 6.2-11.2 26.7-46.9 33-58 26.7-46.8 43.2-78.1 69-125.4 4.2-7.8 7.6-16.6 14.2-15.7 12 1 67.4 6.3 65.7 9.1Z" class="outline" data-original-prefix="outline"/><path id="outline-head61" fill="#000000" d="M966.4 1332.6c-6.6 9.1-25.2 14.4-30.4 17.1-3.4 1.6-29.4 9-40.4 8.7-4.7 0-1.9-5.4-.9-7.1 6.2-11.2 12.6-22.3 18.9-33.4 26.7-46.8 38.6-66.6 64.4-113.9 4.2-7.8 14.1-30.3 23-28.9-2.4 12.8-15.9 113.2-34.6 157.5" class="outline" data-original-prefix="outline"/><path id="outline-head5" fill="#000000" d="M1260.4 1349.9c10.7-23.1 21.3-46 31.9-68.9 17.3-37.8 43.2-88.7 58.8-127.2 4.4 0 25.4 4 28.5 5.6 5.1 1.4 9.9 4.3 10.8 7.3-.7 12.3-1 30.7-15.1 91.4-5.2 24.2-14.3 57.2-21.7 80.9-4 12.7-7.9 16.4-21.3 17-13.2 1-66.1 5.2-77.1 4.7l5.3-10.8z" class="outline" data-original-prefix="outline"/><path id="outline-head4" fill="#000000" d="M1184.6 1148.3c1.9-.3 3.7-.4 5 1.3 1.6 2-.5 3.1-1.1 4.3-28.2 51.7-68.5 134.9-96 186.9-.8 1.6-10.7-7.6-13.3-9.9-17.1-32.8-31.9-156.8-28.9-161.9 15.9-10.7 128.2-19.9 134.3-20.8Z" class="outline" data-original-prefix="outline"/><path id="outline-head3" fill="#000000" d="M1142.1 1356.6c23.9-52.7 72.5-142.5 102.4-208.3 10.3 0 86.2 0 85.2 1.9-34.5 60.8-72.1 143.9-103.9 206.1-1.1 2.1-4.5 4.3-6.9 4.3l-35.6-.4c-19.7 0-41.2-3.7-41.2-3.7Z" class="outline" data-original-prefix="outline"/><path id="fill-glasses-logo9" fill="#ffffff" d="m710.5 1169.2-.3-1.8-.5-1c0-.2-.3-.3-.6-.5s-.5-.3-.7-.3h-1.5c-.5 0-.7 0-.9.2 0 0-.2 0-.4.3-.2.2-.3.2-.3.2-.4 0-.7-.2-.9-.2s-.2 0-.5.2c.4.8.7 1.6.8 2.3s0 1.1 0 1.5v.7s0 .2.3.4c.3.6.4 1.1.5 1.7s0 .7 0 .8v1.8h.8c.3-.2.4-.3.5-.3h1.8c1.5-.2 2.4-.9 2.6-1.9v-.7l-.3-2.1v-.7l-.2-.3c0-.2-.2-.3-.2-.3h.2zm-1.3 3.8c0 .5-.4.8-.9.9s-1.1-.2-1.2-1.1v-.7c0-.7-.2-1.1-.2-1.2v-.9s0-.5-.2-1.1 0-1.1 0-1.2c0-.4.4-.6.9-.7s.9 0 1.1.5c0 .2.2.6.3 1.2s0 .7 0 .8v.6l.2.3s.2.5.3 1.2 0 1.1 0 1.3h-.3Z" class="fill" data-original-prefix="fill"/><path id="fill-glasses-logo8" fill="#ffffff" d="M717 1168.9c-.3 0-.6-.2-.9-.4s-.6-.4-.7-.6h-.4c-.4 0-.7 0-1-.2s-.5-.5-.5-.8c0-.8.2-1.2 1.1-1.4s.9 0 1.2.2.5.3.6.5v-.8c0-.3.2-.5.3-.6-.3 0-.7 0-1.2-.2h-1.3c-.8 0-1.3.5-1.8 1.1-.4.6-.6 1.3-.4 2s.2.7.4 1c0 .2.4.4.7.7.3 0 .6.3.8.4q.6.3.6.6h.3c.4 0 .8 0 1.1.2s.5.5.6.9c0 .8-.2 1.3-1.2 1.5s-1.9 0-2.8-.9v.4c0 .2.2.4.3.5l-.3.3c0 .2-.2.3-.2.4v.2h1.5c.6 0 1 .2 1.1 0h.6c.9-.2 1.6-.6 2-1.1.5-.6.7-1.3.5-2.2s-.6-1.4-1.4-1.8h.4Z" class="fill" data-original-prefix="fill"/><path id="fill-glasses-logo7" fill="#ffffff" d="M678.9 1177.7c-.2-.4-.5-1-.8-1.8-1.1-.5-1.3-.8-1.3-.9v-.5c.2-.6.5-1.1 1-1.5v-1.4c0-.4.2-.8.3-1h-.4l-.3.2-.2.2h-.9s-.3 0-.4.2q.3.3.3.6c0 .3 0 .8-.4 1.7q-.45 1.5-.6 1.8c-.2 0-.4-.3-.6-1.6s0-.8 0-1.5v-.9h-.4c-.2 0-.3 0-.4.2 0 .2-.2.2-.2.3-.4-.2-.7-.3-.9-.2s-.2 0-.5.2v.3c.4.5.7 1.2.8 2.1s0 1 0 1.5v.6s0 .3.3.7c.2.5.4.9.4 1.3v2.5c.3 0 .5.2.6 0l.4-.2c.2-.2.3-.2.3-.2h.9c.3 0 .5 0 .5-.3-.4-.4-.7-1.2-.9-2.2s0-1 0-1.5v-.5l1.1 1.4c.7.9 1.1 1.6 1.2 2s0 .2 0 .5v.3h.5l.3-.3.2-.2h1.3c-.5-.4-.9-1-1.3-1.7v-.2z" class="fill" data-original-prefix="fill"/><path id="fill-glasses-logo6" fill="#ffffff" d="M687.2 1175.4c0-.3-.2-.6-.3-.8 0-.3-.4-.4-.7-.6h-.7c.2 0 .3 0 .5-.2.3 0 .4-.3.6-.6v-2c-.2-.8-.6-1.3-1.3-1.5-.6-.2-1.3-.3-2.1 0s-.7 0-.9.2l-.5.3c-.2 0-.3.2-.4.2-.4 0-.7-.2-.9-.2h-.4v.3s0 .2.3.9c.2.5.3.9.4 1.2s0 .9 0 1.3v.8s0 .2.2.3c.3.5.4 1 .5 1.7s0 .8 0 1.4v1.2h.8l.2-.2.2-.2h1.9c1.4-.2 2.3-.8 2.6-1.6v-1.7l-.2-.3.3.3v-.2Zm-3.7-4.5c.7 0 1.1 0 1.2.7s0 .3 0 .5v.5c0 .6-.2.9-.9 1s-1.2-.3-1.3-1.3 0-1.5.8-1.6v.2zm1.9 5.4v.3c0 .3 0 .6-.2.8s-.4.3-.7.4c-.8 0-1.3-.4-1.5-1.5s0-1.6.9-1.8 1.1 0 1.2.8 0 0 0 .3v.4l.2.3Z" class="fill" data-original-prefix="fill"/><path id="fill-glasses-logo3" fill="#ffffff" d="M703.1 1162.2v-1c0-.4 0-.8.2-1.1v-1.8c-.2 0-.5.3-.7.4-.5.3-1 .7-1.5 1.1s-1 .8-1.4 1.3c-.5.5-.9 1-1.3 1.6-.2.4-.4.8-.7 1.2v3.5c0 .4-.2.9-.4 1.3v.5c0 .3 0 .4.2.5 0 .2.3.3.4.5h-.3l-.4-.4h-.2c-.3 0-.7-.2-1.1 0-.4 0-.8 0-1.1.2-.4 0-.8.3-1.1.5l-.2.2v.3c0 .2-.2.4-.4.5l.3-.6v-.6s0-.2-.2-.3v-.2l-.3-.3c-.3-.4-.5-.7-.8-1.1 0-.2 0-.3-.2-.5 0-.2 0-.5-.2-.7 0-.3 0-.5-.2-.7v-.5s0-.3-.2-.4c-.2-.2-.5-.4-.7-.7-.6-.6-1.2-1-2-1.4l-2.1-.9c-.3 0-.6-.2-.9-.3-.4 0-.8-.3-1.3-.3h-.2v.7c0 .3.2.6.3.9 0 0 0 .2.2.3.2.2.3.4.4.6.2.5.4.9.5 1.5v.4c0 .2.2.4.3.6.2.4.4.8.7 1.2s.7.7 1 1.1c.4.3.8.6 1.3.8.3 0 .6.2.9.4h.2v.2c.2.4.5.7.9 1 .2.2.5.3.7.4h.3c.2 0 .4 0 .5-.2-.2 0-.4.2-.6.4 0 0-.2 0-.2.2.2 0 .5.2.7.3h-.9c0 .3-.2.6-.3.8v.5h.3v.4s0 .2-.2.3v.5l.2.2s.2.3.3.4v.2s0 .2.2.2.3 0 .5.2h-1.2c0 .3-.2.5-.3.8v.4l.4.4v.3s0 .2.2.2h.2s.2 0 .2-.2.2-.4.4-.6v1.5h.2c.2 0 .4 0 .6.2v.8c0 .2.2.4.5.6v-.8h.2c.2 0 .4.2.5.4 0 0 .2.2.4.3.2 0 .3 0 .4.2l.3.3h1.9c.2 0 .4-.2.5-.3l.3-.3s.2-.2.2-.4.2-.4.4-.5l.2-.2c0-.2.2-.4.3-.5l.3-.3v.2c0 .2.2.3.2.5 0-.2.2-.4.2-.7v-.7c0-.2.3-.3.4-.4 0 0 .2-.2.2-.3v-.7s0-.3-.2-.3c.2 0 .4.2.5.4l.2.2h.4v-.4c0-.3.2-.4.2-.6v-.4c-.2-.2-.3-.4-.5-.7h-.4s0 .2-.2.2h-.6s.2-.2.3-.2.2-.2.2-.3v-.8c0-.3-.2-.4-.3-.5v-.5s.2 0 .2-.2v-.3c-.2-.3-.4-.6-.7-.9-.3 0-.5 0-.7.2l.5-.5c-.2 0-.5 0-.7-.2h-.2.7s.2 0 .3-.2l.3-.3c0-.2.2-.3.4-.5l.3-.6c0-.2 0-.5.2-.8.2-.2.4-.4.7-.5.3-.3.6-.5.9-.9.4-.5.7-1.1.9-1.7 0-.4.2-.9.3-1.3v-1.3l-.6-.5h.3Z" class="fill" data-original-prefix="fill"/><polygon id="fill-glasses-logo5" points="696.7 1180.2 696.7 1180.2 696.7 1180.2 696.7 1180.2" fill="#ffffff"/><polygon id="fill-glasses-logo4" points="695.7 1180.2 695.7 1180.2 695.7 1180.2 695.7 1180.2" fill="#ffffff"/><polygon id="fill-glasses-logo2" points="698 1177.8 698 1177.8 698 1177.8 698 1177.8" fill="#ffffff"/><path id="fill-glasses-logo1" fill="#ffffff" d="M694.6 1166.1" class="fill" data-original-prefix="fill"/></g><path id="fill-eyes-logo-kbds5" fill="#ffffff" d="M1842 1875.7h6.2c6.4 3.1 12.7 6.3 19.2 9.3 2.3 1.1 4.7 2.2 7.4 1 7.2-3.4 14.5-6.9 21.7-10.3h6.2c3.3 1.1 6.7 2.2 9.9 3.4 4.9 1.8 9.9 3.6 11.9 9.3.8 2.2 1.7 4.2 2.9 6.2 2.1 3.7 4.2 7.4 9.3 7.5 9.3 0 18.6.4 27.9.6 3.1 0 5.5 1.3 7.1 4 4.3 7.1 8.6 14.2 12.9 21.2v16.8c-.2.4-.5.7-.6 1.1-2.6 9.4-7.8 16.9-16.3 21.9-7.2 4.3-14.8 2.5-22.4 2-4.3-.3-8.6-.6-12.9 0-1.6.2-3.8 2.2-4.3 3.8-.8 2.3 1.4 3.6 3.5 4.6 4 1.8 8.1 1.6 12.2 1.6s4.2.9 4.6 3.4c.3 2.3-1 3.8-3 4.6-1.4.6-2.9 1.1-4.4 1.4-7.6 1.6-15.2 3.3-22.9 4.5-9.5 1.4-20.4 2.9-29.9 4.1-.5 0 .5-.3 0 0h-31.4c-2.1-.2-4.3-.4-6.4-.6-8-1.1-16.1-2-24-3.4-8.6-1.6-17.2-3.6-25.7-5.6-3.1-.7-4.6-2.8-4.1-4.9.5-2.5 1.9-3.4 5.5-3.4s8.1 0 11.9-1.8c2-.9 3.8-2.6 2.9-4.7-.6-1.6-2.8-3.5-4.3-3.6-6-.2-12.2-.4-18.2.6-11.7 1.9-20.8-2.4-27.2-11.6-2.9-4.2-4.6-9.2-6.9-13.8v-16.8c4.3-7.1 8.6-14.1 12.9-21.2q2.25-3.75 6.6-3.9c7.5-.3 15.1-.4 22.6-.6h5.6c3.2 0 5.8-1.2 7.4-4 1.8-3.3 3.6-6.6 5.3-9.9 1.6-3.2 3.4-6 7.1-7.2 4.9-1.6 9.7-3.5 14.5-5.3zm30.3 111.9c7.6-1 15.3-1.4 22.7-3 12-2.7 20.6-9.6 23.1-22.3 1.6-8.5-1.4-11.8-8.9-11.8s-10.2.5-15.3.4c-2.2 0-4.6-.7-6.6-1.6-9.2-4.2-18.7-4.9-27.8-.7-7.6 3.5-15.2 2.2-22.9 1.9-5.6-.2-10.3.9-10.4 8.2 0 10.5 7.8 20.6 18.5 24.4 8.9 3.2 18.2 3.7 27.6 4.5m-78.6-71c-9.6 0-15.4 3.9-20.3 10.1-3 3.7-5 8.2-4 13.5 2.3 12.1 13 20.3 24.6 20.2 8.3 0 15.3-3.9 20-11 2.4-3.6 4.4-7.6 4-12-1.2-12.1-12.7-21.2-24.4-20.8zm157.1-.2c-1.9.3-3.8.4-5.7.8-11.9 2.5-24.4 16.9-15.3 31 5.2 8.1 12.7 12.4 21.9 12.1 9.5-.3 17-5.3 21.3-14 1.4-2.9 2.8-6.5 2.4-9.4-1.8-11.9-12.7-20.7-24.6-20.5m-107.2-23.3c-6.5-.4-12.3 1.8-17 6.2s-8.5 9.6-7.1 16.6c2 10.2 10.8 18.3 21.4 19.3 10.9 1 19-3.9 24.4-13 2-3.3 3.3-7 2.3-11.1-2.7-10.8-13.7-18.8-24-18m57.4 0c-8.3-.4-14.7 3.2-19.7 9.4-3.5 4.3-5.8 9.3-3.9 15.1.7 2.2 1.7 4.5 3 6.4 4.5 6.6 10.7 10.8 19 11.3q13.8.75 21.9-10.5c2.7-3.7 4.9-8 4.1-12.4-2.1-11.5-12.6-19.8-24.4-19.3" class="fill" data-original-prefix="fill"/><path id="fill-eyes-logo-kbds4" fill="#ffffff" d="M1804.6 1953.4c-.3 0-.7.2-1.2.2s-1.2-.2-1.8-.5c-.7-.3-1.1-.5-1.1-.5s-.4.2-.9.5-.8.5-.9.5h-1.3c-.4 0-.5-.3-.3-1 .2-.9.3-1.4.3-1.7 0-1.4-.9-3.8-2.7-7l-2.8-5.1s-.3 0-.5.3c0 .4-.4.9-.6 1.6-.4 1.5-.6 3.1-.6 4.7 0 3.4.6 6 1.7 7.7-.2.4-.8.6-1.7.6s-1.1-.2-1.7-.5-.9-.5-1-.5-.5.2-1.2.6-1.1.6-1.3.6c-.4 0-1-.2-1.7-.7 1.1-2.4 1.7-5 1.7-7.9s-.2-2.6-.7-4.3-.7-2.5-.7-2.4c0 0 0-.4.4-.9.2-.5.4-.8.4-.9.5-1.8.7-3.4.7-4.9q0-4.35-1.5-7.2v-.6q1.05-.3 1.5-.3 1.05 0 2.7 1.2c.2 0 .6-.3 1.1-.8.5-.3 1-.4 1.4-.4h1.2v.4c0 .3 0 .8-.4 1.4-.2.6-.4 1-.4 1.2q-.6 3.3-.6 4.8c0 3.6.4 5.5 1.3 5.9.2 0 .4 0 .5-.4.4-.7 1.3-2.6 2.8-5.5 1.4-2.8 2.2-4.6 2.2-5.3s-.2-1.2-.7-2.1c.4-.4.7-.6 1.1-.6.7 0 1.3.2 1.9.6s.9.6 1 .6.4-.2.8-.6.7-.6.9-.6h1c-.4.7-1 1.7-1.6 3 0 .2-.3 1.7-.8 4.6-1.7 1.1-3 2.6-4 4.4s-.7 1.4-.7 1.7c0 .6 1.2 1.8 3.7 3.6.7 2.7 1.2 4.8 1.8 6.3.9 2.5 2 4.6 3.2 6.2Z" class="fill" data-original-prefix="fill"/><path id="fill-eyes-logo-kbds3" fill="#ffffff" d="M1853.1 1919.7s0 .3-.2.5c0 .2-.2.4-.3.5v2.3c0 .7-.2 1.3-.6 2-1.4 2.5-4.3 3.8-8.9 3.8s-2.9 0-3.9-.3c0 0-.5-.2-1.1-.5s-1-.4-1.1-.4-.4 0-.8.4-.7.5-.8.5h-1c-.7 0-1.2 0-1.5-.2 0-.3 0-.9.3-1.8.4-1.1.6-1.7.6-1.9.3-1.9.4-3.5.4-4.6q0-3.3-.9-5.7c0-.4-.2-.7-.4-1 0 0 0-.5.4-1.2s.4-1.1.5-1.3c.3-1.3.4-2.7.4-4.2s-.2-2.5-.6-4.2-.6-2.6-.6-2.8v-.9h1.2c.7 0 1.6.3 2.8 1 0 0 .6-.2 1.4-.5s1.4-.5 1.5-.6c.6 0 1.5-.2 3-.2 2.6 0 4.7.5 6.4 1.4 2.1 1.2 3.1 2.9 3.1 5.3s0 .5.3.9q.3.6.3.9c0 .3 0 .4-.3.8-.2.4-.3.7-.4.9 0 1.2-.3 2.1-.6 2.6-.5.7-1.1 1.2-2 1.5-.7 0-1.3.3-2 .4v.3c1.3.4 2.1.7 2.3.8 1 .5 1.6 1.2 1.9 2 0 .6.2 1.5.4 2.6.3.7.5 1 .5.9zm-6.1-12.3-.2-.2c0-.6.2-1.2.2-1.7 0-2.1-1.2-3.1-3.5-3.1s-3.7 1.7-3.7 5 1.2 5 3.7 5 3.5-1 3.5-3.1 0-1.1-.2-1.7zm.3 14.4c0-.2 0-.6-.3-1.1-.2-.6-.3-.9-.3-1.1s0-.5.3-1c.2-.5.3-.8.3-1 0-2.2-1.2-3.3-3.5-3.3s-4.1 1.8-4.1 5.4 1.4 5.7 4.1 5.7 1.9-.3 2.6-.9c.6-.6 1-1.5 1-2.5v-.2Z" class="fill" data-original-prefix="fill"/><path id="fill-eyes-logo-kbds2" fill="#ffffff" d="M1912.5 1913.1s0 .4-.4 1-.4.9-.4 1v6.7c0 .4-.2 1.2-.6 2.1-1.1 3.1-4.1 4.6-9 4.6s-3.2-.3-5-.8l-.9-.4s-.4.3-1.7.9h-1c-.7 0-1.2 0-1.5-.3v-.6s0-.3.3-.7c.2-.3.3-.6.3-.6l.8-3.4v-2.7c0-1.5-.3-3.7-.9-5.7q-.6-.6-.6-1.2c0-.6 0-.5.4-1s.5-.9.5-1c.4-1 .6-2.6.6-4.7s-.5-4.8-1.5-7.7c.7-.3 1.2-.4 1.5-.4.7 0 1.7.3 2.9 1 0 0 .5-.2 1.3-.5s1.2-.5 1.5-.6c.6 0 1.6-.2 3-.2s3.1.2 4.6.7c.6.2 1.3.6 2.1 1.3s1.4 1.3 1.6 1.8c.8 2 1.2 3.1 1.2 3.2v5.9s0 .5.4 1 .4.9.4 1v.3Zm-6 5.3c0-2.2 0-3.5-.2-4-.3-1-.5-1.4-.5-1.2 0 0 0-.5.3-.9.2-.5.3-.8.4-1v-2.7c0-1.5 0-3.2-.4-3.9-.5-1.5-1.7-2.2-3.5-2.2s-3.1.6-3.5 1.9c0 .4-.2 1.8-.2 3.9v3.6s0 .4.3.7c.2.3.3.6.3.7s0 .4-.3.7c-.2.3-.3.6-.3.8v6.2c0 2.9 1.2 4.3 3.6 4.3s3-.9 3.6-2.6c.3-.8.4-2.2.4-4.3" class="fill" data-original-prefix="fill"/><path id="fill-eyes-logo-kbds1" fill="#ffffff" d="M1961 1945.2c0 2.9-.9 5-2.7 6.5-1.7 1.4-3.9 2.1-6.8 2.1h-1.9c-.5 0-1.7-.3-3.4-1-1.8-.7-2.9-1-3.4-1s-1 0-1.3.2c0 0-.2-.2-.2-.4s.2-.6.7-1l1.2-.9c-.2-.4-.5-1.1-.8-2l.2-1.2c2.4 2.8 5.3 4.2 8.6 4.2s4.9-1.4 4.9-4.2-.5-2.5-1.5-3.4-2.2-1.4-3.6-1.4-.8 0-1.1.2c0-.7-.8-1.4-1.8-2.3-.8-.6-1.6-1.1-2.5-1.7-1-1-1.7-1.8-2-2.5-.4-.8-.7-1.9-.7-3.1q0-3.6 2.4-6c2.4-2.4 3.6-2.4 6-2.4s2.4.3 4 .9q2.7 1.05 3.9 1.2c-.4.4-.8 1.1-1.3 1.9 0 .8-.2 1.7-.4 2.5-.4-.4-1-1-1.7-1.8-1.1-.9-2.4-1.4-3.9-1.4-2.9 0-4.3 1.3-4.3 4s.4 2.2 1.3 3c.8.8 1.9 1.2 3.1 1.2s.9 0 1.4-.2c.2.8.9 1.5 1.9 2.3.9.5 1.8 1 2.6 1.6 2.2 1.5 3.3 3.6 3.3 6.2h-.2Z" class="fill" data-original-prefix="fill"/>
    </g><g class="trait-group" data-category="right ear" id="right ear-hi-tek">
      <path id="fill-ear-rt" fill="#ffffff" d="M1715.7 184.2c3.2-.7 6.5-.5 7.2 3.3 2.3 39.5-3.6 77.2-9 116-.7 4.7-.2 11.1-1.1 15.9-5 26.9-24.5 58.9-29.7 86.3-5.7 30.4-4.7 64.8-10.9 95.1-7.8 38.3-25.1 77.8-33.7 116.4l-71.9 122.1c-45.8 31.3-94.9 58.3-141.8 88.2l-35 81-84.6 77.3c-5.6 2.9-16.3-.8-22.4-2.4-27.7-7.2-48.3-18.1-70.9-35.1-16.5-12.5-27.2-20.9-37.6-39.4-6-10.5-10.9-22.9-14.5-34.5 26.8-59.3 58.7-116.4 86.8-175.2 4.9-58.7 6.7-117.8 11.4-176.5 36.5-47.5 77-92.5 114.8-139.2 47.2-35.9 96.4-69 144.9-103.1 66.1-31.9 127.9-72.1 197.8-96.2z" class="fill" data-original-prefix="fill"/><path id="shading-ear-rt" fill="#aaaaaa" d="M1670.9 280.1c2.8 3.9-18.7 26.3-21.9 30.5-38.8 50.2-75.5 128.6-72.1 193 .8 14.1 7.3 33 2.8 45.7-3.7 10.4-14 27.3-15.4 37.7-.4 2.9.9 5.2.6 8 10-1.2 15.8-10.8 21.2-18.3 17.3-24.1 30.1-53.1 43.5-79.5 1.1-2.2 1.5-2.2 1.2.2-.8 9.2-6.8 26.8-9.7 36.3-15.4 50.2-37.8 100.7-66.2 144.8-15.3 23.7-22.2 32.4-46.1 47.9-25.3 16.4-36 17.1-63.9 25.1-14.1 4.1-56 16.5-65.5 25.5-11.9 11.1-30.7 52.3-40.3 68.7-13.5 23-27.7 45.9-43.8 67.2-3.6 4.8-10.5 10.9-13.3 15.7-5.6 10-6.8 27-11.1 37.9 7.3-4.2 14.2-10.7 20.5-16.5 12.8-11.9 26.4-25.8 38.5-38.5 12.3-12.9 33.6-33.7 41.2-48.8 7.8-15.6 13.6-33 21.3-48.7 14.9-4.8 30.4-7.3 45.1-12.9 49.9-18.9 92.7-57.3 134-90 1.4-.3 1.9 0 1.5 1.5-.9 3.2-10.1 20.8-12.2 23.8-4.2 6-36.3 28.6-44.5 34.5-29 20.7-59.7 39.2-87.9 61.1-15.7 27-28.8 55.8-43.5 83.5l-80 71c-6.2 2.7-28.5-4.8-35.8-7.2-32.1-10.8-54.1-27.3-79.9-48.6-8.9-15.6-7.9-22.5 2.7-36.2 24.9-31.8 50.6-57.8 73.4-92.6 33.1-50.5 54.8-106.4 86.2-157.8 11.1-18.2 27.9-36.1 31.3-57.7 1.4-9.1 1-19.2 1.1-28.4l54 6.5c10.6 14.3 17.8 31 26.5 46.5.8-.4 10.6-11.5 11.3-12.7 4.2-7.8 8.8-30.6 10.8-40.2 5-24.6 7-49.5 8.5-74.5 1.9-20.4-5.1-39.9 3.1-58.9 17.4-40.4 50.1-78.2 81-109l66.7-44.4c3.2-.7 24.4 7.8 25.2 8.9Z" class="outline shading" data-original-prefix="shading" opacity="0.5" style="opacity: 0.5"/><path id="fill-led-rt7" fill="#ffffff" d="M1379.7 841.5c9.8-2 9.4 10.6 2.5 11.7s-9.5-10.3-2.5-11.7" class="fill" data-original-prefix="fill"/><path id="fill-led-rt6" fill="#ffffff" d="M1568.2 520.6c6.2-6.2 14.8 6.6 6.7 10.2-6.8 3.1-10.5-6.5-6.7-10.2" class="fill" data-original-prefix="fill"/><path id="fill-led-rt5" fill="#ffffff" d="M1643.2 431.6c6.2-6.2 14.8 6.6 6.7 10.2-6.8 3.1-10.5-6.5-6.7-10.2" class="fill" data-original-prefix="fill"/><path id="fill-led-rt4" fill="#ffffff" d="M1661.2 292.6c6.2-6.2 14.8 6.6 6.7 10.2-6.8 3.1-10.5-6.5-6.7-10.2" class="fill" data-original-prefix="fill"/><path id="fill-led-rt3" fill="#ffffff" d="M1490.2 709.6c6.2-6.2 14.8 6.6 6.7 10.2-6.8 3.1-10.5-6.5-6.7-10.2" class="fill" data-original-prefix="fill"/><path id="fill-led-rt2" fill="#ffffff" d="M1534.2 714.6c6.2-6.2 14.8 6.6 6.7 10.2-6.8 3.1-10.5-6.5-6.7-10.2" class="fill" data-original-prefix="fill"/><path id="fill-led-rt1" fill="#ffffff" d="M1291.2 919.6c6.2-6.2 14.8 6.6 6.7 10.2-6.8 3.1-10.5-6.5-6.7-10.2" class="fill" data-original-prefix="fill"/><path id="outline-ear-rt" fill="#000000" d="M1204 941c-4.5 0-9.7-3.5-13.7-5.8-21-12.1-28.2-34.8-42.8-53.2-1-3-.7-7.3-.5-10.5.9-20.4 12.5-34.1 20.8-52.2 6.3-13.5 12.6-35.7 19.9-47 3.2-4.9 8.4-9.8 12-15 29.7-42.8 37.8-119.3 42.2-170.8 1.8-21.4.9-43.9 3-65 .7-7 2.4-6.2 5.4-10.6 32.8-49.2 70.5-98.1 110.1-141.9 15.2-16.8 35.5-40.7 53.2-53.8 75.7-56 176.2-104.8 265.5-134.5 11.3-3.8 35.2-11.4 46.3-11.8 6.6-.2 6.4 4.6 7.8 10.2 7.4 30.6 1.8 91.4-1.3 124.3-.9 10.1-2.9 30.7-6.5 39.5-3.4 8.2-15.5 18.8-20 29-10.5 24-19.4 81.7-16.4 107.4.7 6.4 5.6 12.8 5.8 18.2.5 10.6-11.8 51.9-15.7 64.1-34.4 108.7-95.1 199.9-195.6 256.4-8.1 4.5-17.4 8-25.3 12.7-24.6 14.5-38.5 54.9-48.8 80.2-6.1 15-20.3 21.1-32 31-17.2 14.7-33 33.7-50 49-1.8 1-18.8 4.6-21.3 4.7-8.4.3-53.6-17-61.2-22.3-1.6-1.1-2.9-2.4-3-4.5 2.6 1 5.6.7 8 1.5 24.7 8.1 35.8 10.4 59.6-2.3 45.3-24.1 94-80.7 105.9-131.1.8-3.3-.3-6.6 1.4-9.6 1.9-3.3 32.1-21.9 37.7-25.3 8.6-5.2 17.9-9.2 26.3-14.7l-23.7-15.8c-1.9-3.8-3.4-8.3-1.5-12.5l21-32c1-4-2.6-7.8-2.7-11.8 0-3.5 2.1-7 2.4-10.4-5.6 4.3-51.8 33.5-54.5 31 3.1-7 7-13.6 9.8-20.7 2-5.1 7.2-20.1 7.2-24.8v-18.5l-80.6 123c-1.5 5.3 16.7 8.3 15.2 17.1l-35.4 55.5c0 1 13.3 9.5 14.3 9.5 1.8 0 12.1-16 12.3-17.7s-3.6-7.3-3.7-10.9c-.2-8.1 6.3-17 14.5-18.3 23.2-3.7 30.2 26.9 10.4 34.4-3.6 1.4-9.5 1.1-11 2-2.6 1.5-10.1 17.6-13.6 21.4-9.3 10.2-21.5-8.1-31.3-8.8l-21.7 33.9c.5 4.4 3.3 7.5 3.2 12.3-.3 14-17 23-28.7 14.2-16.3-12.4-4.6-35.5 14.8-32.7l61.1-93.5-38.2-25.2c-1.9.5-13.6 19.4-15.5 22.6-17.7 29.5-52.9 90-56.2 122.8-1.1 10.9 1.2 18.6 5 28.5-2.1 2.1-27.1-18.8-28.5-22-1.7-3.9.9-16.6 1.5-21.5.3-2.6-.3-5.5 0-8 .7-5.7 15.1-22.6 19.2-28.8 39.8-58.7 57.4-124.9 103.3-180.7 9.5-11.5 17.8-22.7 23.2-36.8 6.8-17.8 18-69.8 15-87.5-.7-3.8-10.8-27.6-9.8-28.7 13.4 6.1 26.7 13.4 39.3 21.2 4 2.5 14.9 8.6 17.2 11.8 3.4 4.9 10.1 27.9 12 35 2.4 8.5 6.3 34.7 11.4 39.5 12.6 11.9 29.7-12.1 35.2-21.9 27-47.4 34.2-98.4 26.7-152-1.2-8.6-7.3-28.6-6.7-35.9.3-3.3 6.8-17.2 8.6-21.4 21.8-50.7 47.9-79.6 86.7-117.4 10.1-9.9 24.6-25.8 35.1-34 6.8-5.3 15.4-7.7 22.4-12.6 6.3-4.4 20.5-19.4 27.6-20.4 1.5-.2 1.8 0 1.5 1.5l-24 39.1c-.6 1.7 3.6 2.7 5.4 4.6 12.7 13.2.3 33.6-17.2 31.1l-67.1 103.3 12.9 8c6.5-7.2 34.6-57.4 39.9-59.1 8.6-2.8 24.4 13.7 32.3 16.8 1 .4 1.6 1.3 2.8.3 1.2-.9 6.4-23.5 7.7-27.3 4.9-14.6 11.8-23.9 18.1-36.9 5.8-11.9 9.2-43.6 11-58 3-24.6 4.6-49.6 2.1-74.4-1.9-2-45.9 15.8-51.3 18.1-72.5 32.1-155 81.6-220.4 126.6-53.3 36.7-89.9 73.5-130.2 123.8-13.1 16.4-31.1 37.5-42.5 54.5-13.7 20.4-13.2 63.6-15.6 88.4-3.2 33-4.2 70.9-9.1 102.9-2.9 18.7-26.7 65.7-36 85-6.8 14.1-16.8 28.5-23.1 42-6.3 13.7-9 29.6-15.7 43.3-3.2 23.4 13.4 51.1 28.9 67.4zm455.2-647.8c-3.7 3.7 0 13.3 6.7 10.2 8.1-3.6-.6-16.4-6.7-10.2M1646 299c-1.5-1.6-11.3 7.1-13 8.5-8.7 7.2-18.9 17.1-26.5 25.5-3.3 3.7-18.8 22-18.6 25.5 0 1 .4 1.4 1.1 2 .7.7 15.7 9.1 17.3 9.7 5 1.9 3.1 0 5.3-3.2 12.7-18.5 24.4-37.6 37-56.1 1.4-3.6-3.9-7.5-2.5-11.9zm-44 82c-5-.8-18.4-11.9-22.3-11.1-3.2.7-22.3 42.9-24.4 48.9-11.4 33.4-17.4 78.1-3.3 111.2l1.5-10c4.9-14.2 23.6-16.4 31.9-3.9 3.6 5.4 1.5 10.7 3.5 13.5 1.8 2.5 11.4 7.1 14.4 9.3 1.2-.2 13.1-18.3 13.9-20.2.3-.9 1.1-1.6.3-2.7l-46.1-31c-.4-.8-.6-1.6-.6-2.5-.3-6.8 23.6-35.7 26.9-44-3.8-5.1-19.8-10.5-19.9-17s25.5-38.6 24.1-40.5Zm35 224c8.9-26.3 18-52.9 24.5-80 7.8-32.4 4.9-57.7 8.5-89.5 1.3-11.8 4.9-23.4 7-35l-1-2-25.7-16.4-46.4 70.4c.2 2 7.5 6.3 9.6 7.5 1.6.9 6.1 4.3 7.5 3.6.8-.5 9.7-14.3 9.8-15.2.2-1.6-3.3-7.1-3.4-11-.2-9 7.1-17.6 16.1-18.4 22.1-1.9 28.3 30.3 4.8 35.8-2.3.5-5.4-.4-7.3.7-3.3 1.9-11 19.8-15.2 21.8-8.2 3.9-21.8-10.9-29.3-14.2-1 0-10.5 15.5-10.5 16.5 0 3.9 43.7 26.4 45.6 32.4.7 2.3.9 4.8 0 7-12.3 19.5-26.1 38.3-37.3 58.4l42.8 27.6Zm4.2-172.8c-3.7 3.7 0 13.3 6.7 10.2 8.1-3.6-.6-16.4-6.7-10.2m-75 89c-3.7 3.7 0 13.3 6.7 10.2 8.1-3.7-.6-16.4-6.7-10.2m-9.5 17.9c-1.4.4-9.6 12.7-11.1 15-12.4 19.2-20.1 40.6-26.6 62.4-1.2 4-7.8 25.4-6.5 27.5.5.8 14.3 9.8 15.2 9.9l69.3-104.4c0-.9-13.7-9.2-14.6-9.3-2-.2-7.3 3.8-11.8 3.9-5.4 0-12.7-5.3-13.8-5Zm-88.6 225.8c7.4 2.3 16.6 12.2 22.9 14.6 5.1 1.9 15.1-6.1 19.7-9.2 41.3-28.2 86.8-87.4 110.4-131.5 2.4-4.4 8.2-14.5 9.4-18.7.4-1.4.9-2.7 0-4l-43.9-27.9c-1.2.3-12 17.3-11.7 19.3l25.6 16.6c4.8 4.8 1.6 9.2-1.1 13.9-5.6 10-47.6 69.1-47.2 73.4.4 3.8 2.5 6.3 1.8 12.2-1.8 14.7-22.8 19.5-32 7-10.6-14.4 4.1-33.4 20.9-27.6 14.5-24.4 31.9-47.3 45.7-72l-21.1-13.9c-8.2 8.4-25.9 45.5-34.1 49.8s-16.5-7.9-24.4-9.9c-1.9 8-2.3 16.5-5 24.3-2.8 2-16 12.7-16.1 15.2 30.2-1 29.4 38.8-.8 36.7-4.2 9.5-14.9 19.7-18.7 28.8-.4.9-1 1.9-.4 2.8Zm-60.4-144.7c-1.4.3-2.1.9-3.1 1.9-8.3 7.8-18 49.2-19.4 61.6-.6 5-.2 21.1-1.7 24.3-1.2 2.6-13 12.6-16 16-10.2 11.5-21.5 26-30.3 38.7-1.4 2-9 12.8-9.1 14 0 1.5.8 1.5 1.5 2.2 1.3 1.2 15 9.8 16.1 10 1.2.2 2 .2 2.8-.9l87.3-133.8c1.1-4.5-10.3-23.8-13.8-27.7-3.7-4.1-8.4-7.7-14.3-6.3m80.5 90c-3.7 3.7 0 13.3 6.7 10.2 8.1-3.7-.6-16.4-6.7-10.2m44 5c-3.7 3.7 0 13.3 6.7 10.2 8.1-3.7-.6-16.4-6.7-10.2m-154.4 127c-6.9 1.4-4.1 12.7 2.5 11.7 6.7-1 7.3-13.6-2.5-11.7m-88.6 78c-3.7 3.7 0 13.3 6.7 10.2 8.1-3.7-.6-16.4-6.7-10.2" class="outline" data-original-prefix="outline"/>
    </g><g class="trait-group" data-category="left ear" id="left ear-ringer">
      <defs/><path id="fill-ear-left" fill="#ffffff" d="M366.5 448c2.2-.7 1.7-6.1 1-8-14.8-50.5-33.9-100.1-45.5-151.5l-3-99c.6-3.5 14.7-7.2 18.4-7.5 72.6 34.3 145.7 67.7 217.5 103.6L702.5 405l86.3 108.7c9.7 62.8 14 126.7 22.2 189.8l75.7 173.9-26.9 52c-5.3 7.8-42.1 33.9-51.5 38.5-18.4 9-40.3 13.4-59.9 19.2l-3-1L638 882.5c-7.9-16.2-9.4-35.5-17.5-51.5L476 735.5l-73.2-131.3c-15.9 1.2-45.2 3-28.2 25.7 7.5 10.1 22.2 9.2 32.5 13.5 1.2 5.2 9.4 13.6 10.5 17.5 1 3.2-1.3 6.7-.6 10l-68.5-7-16.8-43.2-.2-4.8 23.8-45.7c3.4-2.8 29.6-6.2 36.2-8.3 1-.3 2-.2 2.4-1.4-4.9-19.1-12.3-39.6-14.7-59.2-.4-2.8.7-10.8-1-12-7.7-.7-15.3-2.8-23.1-2.4l5 37c-4.9.6-8.3 6.4-14 4.6l-46.8-15.7v-39.6l30.9-22.7c3.4 1 12.5-2.5 13.5-2.5 4.6 0 20 .9 23 0z" class="fill" data-original-prefix="fill"/><path id="fill-earing-lft2" fill="#ffffff" d="M404.9 643.2c1 .6 9.3 17.3 12.1 19.3.2.5-2.1 1.1-2.6 1.1-14.2.4-44-3.9-56-11.5-9.6-6-21-30.6-19.2-41.6 1.4-8.8 18.5-28.8 27.1-31.8 12.1-4.4 38.3-7.8 51.3-7.7 9.6 0 20.4 10.4 15.4 20.4s-17.7 8-23.7 9.3c-9 1.9-31.4 3.1-37.5 8.5-7.4 6.4-2 19.2 3.9 24.9 4.8 4.6 16.5 7.7 23.1 8.9 1.8.3 5.2-.4 6.2.3h-.1z" class="fill" data-original-prefix="fill"/><path id="fill-earing-lft1" fill="#ffffff" d="M360 523c-3.2 2.8-33.2-6.9-38.4-9.1-15.7-6.7-18.1-11-16.7-28.4 1.2-14.7 9.9-16.9 22.1-21.9 21.4-8.9 37.2-11.8 60.2-5.2 8.6 2.5 26.1 9.5 27.6 19.5.9 6.5-3.8 15-10.5 16.1-2.5.4-17.8-4.5-22.2-5.4-12.8-2.4-34.3-7.6-44.1 3-13 14.1 15 16.1 18.6 19.5 1.8 1.7 2.4 9.3 3.5 12h-.1Z" class="fill" data-original-prefix="fill"/><path id="shading-ear-lft" fill="#aaaaaa" d="m608.2 565.2 3.3-1.2 51.4-6c1.9 9.6.6 19.6 2.2 29.3 3.3 21 21.8 41.3 32.7 59.3 28.9 47.5 49 99.2 78.8 146.2 16.1 25.4 34.3 49.3 53.4 72.6 7.9 9.6 28.7 29.6 32.7 39.3 1.1 2.7 2.6 7.6 2.1 10.5-.3 1.4-7.6 14.6-8.8 16.2-3.6 4.9-14.8 12.8-20.1 16.9-22.1 17-43.7 28-70.9 35.1-4.6 1.2-16.1 4.8-20 3l-92-84.2c-10.8-23.6-17.5-49.5-29.5-72.3L510 764.4l-84.1-88.9c-25-3.4-50.4-5.3-75.4-8.6-1.3-.2-4-.6-4.7-1.5L326 606.8l30.8-40.3c3.9-2.9 10.3-.8 15.1-1.4 1.2-1.2-6.9-24-8-27.5-8.1-2.8-41.4-4.6-46.1-8.9-3.1-2.9-16.5-30.5-19.5-36.5s-7.8-14.2-7.5-16.5c0-.8.4-1.5 1.1-2l51.3-33.7c3.4-1.3 29.1-1.4 32.8-.3l43.5 26.5c1.2 1.1 1.6 2.4 2.2 3.8 1.2 3.2 5.4 18 5.4 20.8 0 5.9-7.2 8-6.9 10.8.3 3.3 9.1 19.4 11.3 23.7 8.1 15.8 29.4 56.7 42.6 66.4 2.6 2 5.4 4.1 8.9 3.6 1.8-8.1-2.3-16.5-5.2-24.2-2.8-7.3-11-21.9-11.7-28.4-.9-9.3 4.3-27.3 4.9-37.9 3.8-61-29.8-136-65.2-184.8-8.8-12.1-24.5-26.6-30.7-39.3-1-2.1-7.2-18.7-7-19.7.2-1.1 5.7-4.9 6.9-5.2 2-.5 12.8 7.7 15.7 9.4 30.1 17.6 70.1 41 93.8 66.2s51.7 62.1 64.7 92.3c5.3 12.5 4 11.2 3.8 24.1-.7 40.9 1.3 80.7 10.5 120.5 1.7 7.1 5.7 25.4 9 31 .8 1.3 7.7 9.2 8.9 10.1.9.6 1.4 1.7 2.6.5l24.2-44.3zm-292.1-82.3c3.4 2.2 5.5-3.1 7-4.3 12.8-10.8 63.5-.9 80.3 1.4 11.5-4.6 6.5-11.6-1.7-16.2-12.2-6.9-36.4-10.5-50.1-8.7-5 .7-31.9 10.7-35.1 13.9-2.2 2.2-1.9 12.9-.4 14q0-.1 0 0ZM419 503c-11.1 4.8-24.2.2-36 1l13 60 40-2zm5.8 70.2c-3.2-3.1-24.7-.7-30.1 0-9.5 1.1-25.8 3.3-33.8 8.2-5.4 3.3-19.9 21.7-21.4 27.6-2.8 10.8 1.6 22.4 14.5 20-1.1-8-2.6-17.2 2.2-24.3 8.9-13.2 46.4-4.8 62.3-16.7 3.8-2.8 11.1-10.1 6.3-14.8M450 595l-39.9 13.4c11.9 17 20.5 35.9 31.6 53.4 42.6 67.4 95.1 111.3 170.2 139.8 14.3 5.5 29.5 7.7 44 12.5 5.5 13.5 10.9 27.2 17 40.5 9.5 20.5 22.4 32.9 37.7 49.3 17.6 18.9 38.6 41.2 58.5 57.5 1 .8 7.3 6.2 8 5.5-3.9-10.9-5.5-27.1-10.2-37.3-2.9-6.1-17-20.7-22.2-27.8-24.6-34-42.1-71-63.4-106.6-13.9-23.2-19.7-24.2-44.7-33.3-22-8.1-50.6-11.8-70.2-19.8-11-4.5-43.7-25.5-52.2-33.8-7.1-6.9-18.4-25.8-24.1-34.9-15.6-24.8-29.5-51.1-40-78.5h-.1Zm-45 42c-3-8.1-6.1-16.4-11-23.6-2.7.8-19.3 4.8-20 5.6-.3.4 0 2.3.5 3 .8 1.3 24 13.2 26.8 14.2 1.2.5 2.3 1.1 3.7.8" class="outline shading" data-original-prefix="shading" opacity="0.5" style="opacity: 0.5"/><path id="outline-ear-lft2" fill="#000000" d="M671 548c1 1.1-8.8 24.7-9.5 28.9-3.2 18.8 9 75.7 17.4 93.7 8.3 17.9 19.9 26.5 31 41 35 45.5 53.4 108.2 84.2 156.9 4.4 7 27 36 27.8 40.2 1.2 5.8 2 19.4 2.3 25.8 0 1.9.2 3.7-.6 5.5-1.3 3.1-26.2 24.3-28.5 22 .6-4.8 4.2-9.9 4.9-14.6 4.5-32.7-34.7-99.9-51.7-129.1-19.1-32.7-44.8-69.8-70.1-97.9-2.4-2.7-12.2-10.8-13.1-12.2-2.1-3.5-.6-16.6-1-21.8-1-12.8-10.5-52.4-18-62-10.4-13.3-23.7 7.8-28.2 16.8-11.9 24-9.9 50.3-.3 74.7 2.7 6.9 6.7 13.2 9.5 20-2.9 0-5.5-1.3-8-2.5-17.1-8-40.7-23.6-55.4-35.6-4.2-3.4-15.7-12.9-18.4-16.6-3-4-9.1-42.7-11.4-51.6-8.6-32.6-20.5-64.9-41.6-91.5-.3-1.7 5.1-9.4 6.3-12.3 14.5-33.8 3.2-89.9-11.3-122.7-23.4-53-61.8-94-110.7-124.3l-22.5-39c3.3-3.1 26 18.4 29.7 20.8 6 4.1 14.7 6.7 20.3 10.7 9.2 6.5 21.7 22 30.5 30.5 33.1 32 57.7 54.3 80 96 4.4 8.1 20.6 40.5 21.3 47.8.7 7.6-5.5 27.2-6.7 35.9-7.6 53.4 0 102.9 25.7 150.1 5.5 10 23 36.2 36.2 23.9 4.9-4.5 9.1-31.2 11.5-39.5 2-7.1 8.6-30 12-35 3.1-4.5 28.4-18.6 34.8-22.2 2.3-1.3 20.8-11.7 21.7-10.8z" class="outline" data-original-prefix="outline"/><path id="outline-ear-lft1" fill="#000000" d="M846 940c15.1-16.5 31.1-43.1 27.9-66.4-6.7-13.7-9.4-29.6-15.7-43.3-5.9-12.9-15.5-26.6-22-40-10.6-21.5-23.7-48.6-32.3-70.7-9.2-23.4-7.5-61.4-9.8-87.2-1-11-2.9-22-4-33-2.3-24.6-2.1-67.2-15.6-87.4-14.6-21.8-37.5-48.9-54.5-69.5-41.4-50.3-82.8-86.1-137.5-121.6-42.3-27.4-87.4-55.5-131.9-79.1-38.8-20.7-78.7-40.2-120.7-53.8-3 38.2.9 78.6 8.3 116.2 3.3 16.9 7.6 19.5 14.6 33.4C367 366.1 372 402 378.4 433c1.5 4.2 10.7 6.3 14.6 8.4 13.7 7.3 26.9 14.3 34.4 28.6 6 11.4 4.6 18.9-3.4 28.5-12.5 14.9-22.7 12.7-40 7.5-1.6 1.8 9.7 42.2 12 47.5 20.4.6 40.3.8 51.9 20.1 6.5 10.9 4.8 15.8-1.8 25.8-7 10.7-14.9 15.8-28 16.5-1.5 1.5 7 17.2 8.5 20 24.3 45.7 71.1 106.9 114.2 135.8 26.6 17.9 62 31.7 86.6 51.4 7.8 6.3 4.2 5.9 6.1 13.9 12 50.8 60 106.1 105.3 130.7 23.2 12.6 44 11.2 68.3 1.2-1 4.5-8.9 7.6-13 9.5-19.5 8.8-52 23.1-72.4 12.4-3.2-1.7-21.8-20.6-26.2-24.8-8.6-8.3-15.6-17.1-25-25-10.3-8.7-24.4-15.4-30-28-10.2-23.4-16-42.1-31.1-63.9-13.3-19.2-23.3-19.4-42.1-29.9-55.3-31-107.1-75.3-138.5-131-19.2-.6-39.2-1.6-58-5.5-27.5-5.8-33.9-14.5-44.3-39.7-8.6-21.1-13.7-31.3-2.7-52.6 9-17.5 20.9-37 43.2-36.3l-2.1-10.9c-21.9-2.3-55.5-6.5-70.9-23.6-10.3-11.5-13-21.7-12.1-37 1.1-18.1 4.6-21.7 19.4-30.6 10-6 25.4-14.6 36-19 6.2-2.6 12.7-5.4 19.7-4.8 2-2-10.8-49.6-13.2-55.3-4.6-10.8-15.9-20.4-20-29-3.4-7.1-5.9-31.4-6.8-40.2-3.1-33.1-7.5-84.8-2.9-116.9.4-2.5 3.3-15.8 4.5-16.7 1.7-1.2 4.6-.9 6.6-.7 27.9 2.6 74.9 22.3 102 33 67.9 26.9 154.8 70.8 212.1 115.9 12 9.5 25.4 25.3 36.2 36.8 46.7 50.2 88 104.7 126.9 161.1 8.9 76.2 3.1 178.6 48.8 244.2 2.9 4.1 7.4 7.9 10 12 7.1 11.1 12.9 32 19 45 4.2 9.2 9.1 18.3 13.7 27.3 1.4 2.7 6.4 9.3 7 11 .8 2.6 2.6 22.5 2 24.6-10.1 12.6-17.6 27.8-27.4 40.6-7.7 10-14.2 13.1-25.3 18.7-1.2.6-3.1 2.7-4.1.4zM360 523c-1.1-2.7-1.7-10.3-3.5-12-3.5-3.4-31.6-5.5-18.6-19.5 9.8-10.5 31.3-5.4 44.1-3 4.5.9 19.7 5.8 22.2 5.4 6.7-1.1 11.5-9.6 10.5-16.1-1.5-10-18.9-17-27.6-19.5-23-6.5-38.7-3.7-60.2 5.2-12.2 5.1-20.9 7.2-22.1 21.9-1.4 17.4 1 21.7 16.7 28.4 5.1 2.2 35.1 11.9 38.4 9.1h.1Zm44.9 120.2c-1-.6-4.4 0-6.2-.3-6.6-1.2-18.3-4.3-23.1-8.9-5.9-5.6-11.3-18.5-3.9-24.9 6.2-5.3 28.5-6.5 37.5-8.5 6-1.3 21-4.1 23.7-9.3 5.1-10-5.8-20.4-15.4-20.4s-39.1 3.4-51.3 7.7c-8.6 3.1-25.8 23-27.1 31.8-1.7 11 9.6 35.6 19.2 41.6 12.1 7.5 41.8 11.8 56 11.5.6 0 2.8-.6 2.6-1.1-2.8-2-11.1-18.7-12.1-19.3h.1zM396 628c-1.1-6.4-1-9.6-8.2-8.7-13.6 1.6 1.6 10.2 8.2 8.7" class="outline" data-original-prefix="outline"/>
    </g><g class="trait-group" data-category="head" id="head-rockerdo">
      <!-- Generator: Adobe Illustrator 29.1.0, SVG Export Plug-In . SVG Version: 2.1.0 Build 142)  -->
  <defs>
    
  </defs>
  <path id="fill-head" class="fill" d="M1533.2,1668.8c-.2-8.7-.3-17.6-.7-26.4-1.5-30.4-3.1-56.9-5-81.1-3-39-8.1-55.6-23-89-.3-.7-1-2.1-2-4-1.1-2.1-3-5.8-4.4-8.8l66.9,30.3-5.9-7.8c-22.2-29.2-44.7-61.2-59.8-97.3-15.5-36.9-30.1-78.6-41.8-112-1.9-5.4-3.9-11-6.1-17-8-22.1-17-47.1-21.4-68.1,4,2.6,10.9,8,15,11.2,1.4,1.1,2.6,2.1,3.5,2.8,4,3.1,7.9,6.3,11.8,9.5,5.2,4.3,10.5,8.7,16.1,12.8l29.7,19.4-2.6-7.1c-15.7-42.4-42.9-83.2-85.4-128,1.9.8,3.8,1.6,5.6,2.3,6.2,2.5,12,4.8,16.8,9l.6.5,37.4,4.9-4.4-5c-33.7-38-62.6-76.4-86.2-114.2-1.8-2.9-4.8-8.5-8.4-14.9-9.9-18.1-17.2-31.1-20.8-34-5.4-4.4-13.6-8.9-21.4-13.1-4.7-2.5-9.1-4.9-12.7-7.2-41.8-26.2-87.9-60.5-140.8-104.7-1.7-1.4-4.1-3.8-6.7-6.3-5.2-5.1-10.6-10.4-14-12-8.2-3.6-29.3-5.8-41.9-7.2-1.6-.2-3.1-.3-4.3-.5-65.5-7.3-140.8-6.6-201.4,2-1.5.2-3.2.4-5.2.7-8.3,1.1-18.6,2.4-24.3,4.6-3.8,1.5-9.3,6.9-14.7,12.1-2.4,2.4-4.7,4.6-6.3,6-65,53.9-121.3,94.4-177.2,127.3l-.6.4-.3.6c-30.1,56.3-68,110.3-112.6,160.5l-4.5,5,37.4-4.9.5-.4c6.5-5.1,14.4-8.5,22.4-11.5-4.1,4.7-8.3,9.4-12.4,13.9-11.6,12.9-23.6,26.3-33.8,40.9-14.7,21-28.2,45.8-40,73.7l-2.7,6.3,6.1-3.2c14.9-7.6,28-18.4,40.6-28.9,9.2-7.6,18.8-15.5,28.8-22,.2,0,.4-.3.7-.5-7,28.2-16.9,56.3-26.4,83.6l-.3.7c-11.7,33.5-26.3,75.1-41.8,112-15.1,36.1-37.7,68.1-59.9,97.3l-6,7.8,66.9-30.3c-1.4,3-3.3,6.7-4.4,8.8-1,1.9-1.7,3.2-2,4-14.9,33.4-20,50.1-23,89-1.9,24.2-3.5,50.7-5,81.1-.4,8.8-.6,17.8-.7,26.5-.2,11.5-.4,23.4-1.3,35l-1,14.2,29.7-66.1v-.3c1-5.8,1.8-11.7,2.7-17.4,5.9-39.2,11.9-79.8,31.8-113.9,0-.2.3-.6.5-.9l.3-.6-29.7,118.8,35.8-65.9c3.7-4.2,7.4-8.9,11.2-13.9,6.7-8.7,13.7-17.7,21.2-24-.6,6.7-1.3,13.5-2,20.1-4.2,40.6-8.5,82.7,6.5,121.7l9.2,20.5,1.6-7.4c1.8-8,2.6-16.2,3.4-24.1,1-9.3,1.9-19,4.5-28.2l18.6-41.9c.8,0,1.2,0,1.3,0,1.1,1.2-.8,7.7-1.5,9.8-.2.8-.4,1.4-.6,2.1-1.8,6.4-4.1,12.8-6.3,19-3.6,10.1-7.4,20.6-9.2,31.9-2.4,15.4-4.3,48.5-2.1,62.6.3,2.1,2.3,6.3,4.8,11.5.6,1.2,1.1,2.3,1.5,3.1,10,22.1,21.8,44.2,33.1,65.7,6.6,12.5,13.5,25.4,19.8,38.1l.6,1.2,1.3.2c1.5.2,2.5-.5,2.9-.9,1.3-1.3,1.1-3.1,1-4.3v-.7c.6-17.4.6-34.9.5-51.9,0-27.1,0-55,2.5-82.9,2.2-24.1,6.6-46.7,12.7-66.2,3.8,34.9,8.7,71.3,18.4,105.6,8.2,28.9,22.8,47,40.9,67.6,17.3,19.6,38.6,41.6,65.2,56l4.9,2.6-1.2-5.4c-2.7-11.8-4.5-21.3-5.8-30-11.6-80.9-2.6-114.4,3.8-127.2s3.7-6.3,6-9.5c.6-.9,1.3-1.8,1.9-2.7.7,4,1.3,8,1.8,12,1.2,8.1,2.3,16.4,4.7,24.4,7.4,24.6,27.6,46.2,48.4,65.9l4.3,4.1v-9.8c-.4-26.5-.6-53.9,8.4-79.2l.4-1.1-.6-1c-.7-1.1-2-1.9-11.5-6.9-7.1-3.8-17.9-9.5-20.4-12-3.6-3.6-6.2-10.7-8.7-17.5-2.3-6.3-4.7-12.8-8.1-17.3-4.8-6.2-11.7-7.9-18.5-9.6-8.8-2.1-17.2-4.1-22.4-15.8-.6-1.4-1.1-3.2-1.5-4.8-.9-3.4-1.7-6.2-4.3-6.3-2.7,0-4,2.9-5.3,6.3-4.8,12.7-3.8,28.6-2.7,41.8-3.9-2.7-14.3-11-16.5-13-14.2-12.7-27.3-29.2-36.8-46.6l-5.6-20-1.7,11.6c-4.3,29.4-4.2,59.6-4,88.8v12.5c-.5-4.3-1.2-10.4-2-18.8v-.9c-3.1-31.6-5.5-65.3,1.4-98.8.3-1.3,1-3.4,1.7-5.5,1.1-3.1,1.7-5.1,1.8-6.4.2-2.4-1.1-4.9-2.2-7.3-.8-1.7-1.7-3.4-1.8-4.5l-.6-6.6-3.9,5.3c-5,6.9-7.7,17.1-9.9,26.9-3.1,13.3-5,28.3-6,46.2-1-9.4-1.7-18.9-.6-27.8v-.4c-.4-12.3,2-24.6,4.2-36.6,1.4-7.1,2.8-14.5,3.6-21.8v-1c-1.6-5.7-9.9-5.6-17.3-5.6s-7.1,0-8.7-.5c-2.1-1.3-11.3-12.2-12.2-14.1-1.5-3.7-1.1-17.1-.8-26.8.2-6.1.4-11.3.2-14.6,0-.2-1.9-23-3.6-25-.8-.9-2-1.3-3.3-.9-2.3.7-6,4.9-6.2,6.7-.6,4.7.5,9.3,1.5,13.7.4,1.5.7,3,1,4.4l-7.3-2.7-25.8-14.2,1.3,9.5c3.4,24.7,7.2,52.8,17.7,75.5,1.1,2.4,2.5,4.7,3.7,6.8l2.1,3.6c-12.5-2.6-23.3-11.5-34-21.2-17.3-15.6-62.2-63.3-67-81.1-8.1-29.9,22.2-101.9,32.1-125.5l4.5-9.7c-2.8,11.3-6.8,22.3-10.7,33.1-2.8,7.8-5.8,15.9-8.2,24l-.5,1.6c-5.7,18.9-12.2,40.3-10.3,60.6,1.4,15.2,11.7,27.7,20.8,38.7,1.4,1.7,2.9,3.5,4.2,5.2l5,6.3-.6-8c-.3-3.9-1.3-7.8-2.3-11.7-1.2-4.8-2.4-9.2-2.2-13.5.2-4.8,1.7-10.6,3.2-16.3.3-1.1.6-2.1.8-3.2v18.3c0,4.3,3.8,16.4,7.5,27.8l.4,1.2c6.5,19.9,13.5,33.6,30.3,44.6l6.6,4.3-2.9-7.3c-3.2-8.2-5.7-17.1-7.6-27.3-2.3-12.9-5.4-33.6-6.2-49.4,0-.7,0-1.3-.2-2.1-.2-2.9-.6-7.7.8-9,.3-.3.9-.4,1.7-.4l35.5,30.3-.9-6.5c-1-7.7-2.6-15.5-4.2-22.9-1.3-6.2-2.6-12.6-3.5-18.9-.4-2.8-.9-5.6-1.3-8.3-4.3-26.3-8.3-51.1,2.5-75.4,10-22.5,25.8-47.2,40-68.5,1.2-1.8,4.1-5.7,7.4-10.1,9.8-13.1,14.3-19.3,14.9-21.6,1.3-4.4.9-11.3.5-18.6-.3-5-.6-10.1-.2-13.6.7-6.7,19.1-33.5,26-43.6,1-1.4,1.8-2.6,2.4-3.5,7.2-10.7,15-21.3,22.5-31.5-5.1,14-13.2,29.3-21.1,44.3-6.6,12.4-12.8,24.2-17.4,35.2-8.8,21.1,2.3,80.7,11.1,102.6,2.1,5.3,6.6,15.1,12.2,21.4l4.6,5.2-.2-7c-.7-20.8.4-38.8,3.4-56.5,2-11.9,2.5-17.9,3.4-29l.2-2.7c2.6-33.4,9.2-47.6,26.2-71.5-1.9,4.7-4.1,10-5.7,13.7-2.3,5.5-4.2,9.8-4.7,11.6-2.1,6.5-3.8,13.2-5.4,19.7l-1.8,7.2-2.8,24.1,5.8-9.2c9.1-14.2,21-28.5,36.4-43.5v8.6c0,7.8,10.8,28.9,15.1,34.7.7,2.2,2.3,2.9,4.9,2.3l1.8-.4v-1.8c.6-10.7,4.9-21.6,8.9-32.2l1.2-3.3c17.2-45.2,37.1-80.5,60.8-108,4-4.6,9-8.9,13.9-13,2.3-1.9,4.7-3.9,7-6-7.5,35.6-10.1,69.9-7.8,102.1v1.1l6.2,4.6.7-3.9c5.3-27.9,16.8-58.8,33.2-89.3,9.9-18.4,19.6-33.1,34.3-44.6.6,1,1.2,2.3,1.8,3.4,2.4,4.9,4.9,9.9,8.8,10.4,1.2.2,3,0,4.7-2,.9-1,2.2-3.3,4.2-7.1.8-1.5,1.8-3.4,2.6-4.8,15.4,12.3,25.8,28.3,36.3,48.6,15.1,28.9,25.9,58.5,31.2,85.3l.3,1.8,1.8.2c.9,0,1.9-.2,2.6-.7,1.5-1.2,1.9-3.3,2.1-5.1,3-27.6-1.2-61.2-3.1-74.4-.6-4-1.7-8.6-2.7-13-1.1-4.6-2.2-9.3-2.7-13.3,2.8,2.7,5.8,5.2,8.8,7.7,4.6,3.8,9.3,7.8,13,12,23.2,26.6,43.6,63,60.8,108l1.2,3.3c4.1,10.6,8.3,21.6,8.8,32.2v1.8l1.9.4c2.6.6,4.3,0,4.9-2.2,4.3-5.8,15.1-26.9,15.1-34.7v-8.8c13.3,12.7,24.7,27,36,41.8l4.5,5.8v-7.3c0-10.3-3.3-21.3-6.2-31v-.4c-3.2-10.2-7.3-20.2-11.2-29.8-.2-.4-.4-.9-.6-1.3,17.3,24.4,23.6,40.5,25.5,74.3,0,2.1-.2,4.6-.4,7-.3,2.5-.6,4.9-.4,6.8.2,2.8,1.5,6.7,2.8,10.8,1.1,3.5,2.3,7.2,2.7,9.9,2.4,14.2,2.3,29,2.3,43.3v13.7l4.5-5.8c9.1-11.6,15.8-28.1,20.2-48.8,3.4-16.6,8.7-47.4,5.2-67.5-1-5.8-8.2-21-16.2-37.3-1.7-3.4-3.1-6.3-4-8.3-2.5-5.3-5.4-10.9-8.2-16.2-4.2-8.1-8.6-16.3-11.9-24.6,1.4,2,2.9,3.9,4.3,5.8,3.6,4.9,7.3,10,10.9,15.1,1.8,2.6,4,5.7,6.4,9.1,9.6,13.5,22.7,31.9,27.3,42.6,2.4,5.6,1.9,13.1,1.4,20.4-.4,6.3-.9,12.3.5,17.2.7,2.3,5.1,8.5,14.9,21.6,3.3,4.4,6.2,8.3,7.4,10.1,14.1,21.2,29.9,46,39.9,68.5,10.8,24.2,6.8,49.1,2.5,75.4-.4,2.8-.9,5.5-1.3,8.3-1,6.3-2.3,12.7-3.6,18.9-1.5,7.5-3.1,15.2-4.2,22.9l-.9,6.5,35.5-30.3c.8,0,1.4,0,1.7.4,1.4,1.3,1,6.1.8,9,0,.7,0,1.4-.2,2.1-.9,15.8-3.9,36.5-6.2,49.4-1.8,10.2-4.3,19.1-7.6,27.3l-2.9,7.4,6.6-4.3c16.2-10.7,23.2-23.8,29.2-41.5,0-.3,8.9-26.4,8.9-32.1v-17.1c.4,1.8.9,3.6,1.4,5.4,1.3,4.9,2.6,9.9,2.6,13.8s-1.3,9-2.6,13.8c-.9,3.5-1.9,7.1-2.3,10.3l-1.1,8.2,7.4-8.5c7.1-8.1,15.9-18.1,19.9-27.4,11.3-26.2-3.3-65.8-15-97.7-3.9-10.6-7.6-20.6-9.9-29-.5-1.9-1.8-7.5-2.9-12.6,4.7,9.7,9.5,22.6,13.5,33.3,1,2.7,2,5.3,2.9,7.7,8.6,22.4,28.6,74.9,21.9,99.9-4.8,17.8-49.7,65.5-67,81.1-10.8,9.7-21.5,18.6-34.1,21.2l2.1-3.6c1.3-2.2,2.6-4.4,3.7-6.8,10.5-22.7,14.3-50.8,17.7-75.5l1.3-9.5-25.8,14.2-7.4,2.7c0-.6.3-1.1.4-1.6,1.6-6.3,3.7-15,.8-19.8-1-1.7-2.6-2.8-4.5-3.2l-2.6-.6-.4,2.7c-.3,2.1-.7,4.1-1.1,6.3-.8,4.4-1.7,8.9-1.9,13.3-.3,4.1,0,10.5.3,17.2.4,10.3.9,23-.6,27.6-.9,2.1-10.2,13.5-12.4,14.8-2.4,1-5.8.8-9.4.6-5.9-.3-12.6-.6-17.1,4.4l-.7.8v1.1c.6,8.3,2.4,16.6,4,24.6,1.7,7.9,3.4,16.2,3.9,24.2.8,12.8.3,25.8-.8,38.4-1.3-21.8-3.7-45-11.4-65.5,0,0,0-.3-.2-.6-1.5-4.6-2.7-7.2-4.9-7.7-1.1-.2-2.2,0-3.1,1-1.2,1.3-3.8,12-3.7,13.2,0,4.5,1.6,10.4,3.1,16.7,1.2,5.1,2.5,10.3,3,14.5,2.5,23.5.5,51.1-2,77.5-.5,5.4-1.3,10.9-2,16.3v-47.1l-3.6-53.8-14.8,25.7c-7.5,10.4-16.6,22.3-27.8,32.3-2.2,2-13.3,10.8-17.5,13.9,1.2-13.9,1.7-28.3-2.4-40.9-1.9-5.9-3.6-7-5-7.4-1.2-.3-2.3,0-3.2,1-.6.6-.8,1.1-1.9,5.1-.7,2.2-1.6,5.5-2.1,6.4-5.1,10.1-12.1,12-21.1,14.3-3.4.9-7,1.9-10.7,3.3-9,3.6-12.9,14.1-16.3,23.4-1.2,3.1-2.2,6-3.4,8.4-5.2,10.8-11,14-20.6,19.2-1.4.8-2.9,1.6-4.5,2.5-3.1,1.7-7.7,4.1-12.2,5.7l-2.5.8.9,2.4c9.2,24.3,9,50.9,8.9,76.7v12.2l4.2-4c20.8-19.7,41-41.3,48.4-65.9,2.4-8,3.6-16.3,4.7-24.4.6-3.9,1.1-8,1.8-12,.6.9,1.3,1.8,1.9,2.7,2.2,3.2,4.4,6.2,6,9.5,6.4,12.8,15.3,46.3,3.8,127.2-1.2,8.6-3.1,18.2-5.8,30l-1.2,5.4,4.9-2.6c26.6-14.4,47.8-36.4,65.2-56,18.2-20.6,32.8-38.7,40.9-67.6,9.7-34.3,14.6-70.7,18.4-105.6,13.8,44,14.7,91.4,15.6,137.4v6.7c.3,8.5.2,17.2,0,25.7,0,10.3-.3,21,0,31.4v.7c0,1.2-.3,3.1,1,4.3.4.4,1.4,1.1,2.9.9l1.3-.2.6-1.2c6.4-12.7,13.2-25.6,19.8-38.1,11.3-21.4,23.1-43.5,33.1-65.6.3-.8.9-1.9,1.5-3.1,2.5-5.2,4.5-9.3,4.8-11.5,2.4-15.1-.2-48.1-2.1-61.5-1.6-11.9-5.5-22.5-9.2-32.7-2-5.5-4-11.1-5.7-16.9-.2-.6-.4-1.2-.6-1.9-2.2-7.2-2.9-11.3-1.9-12.4,0,0,.5-.2,1.1,0l18,40.6c2.8,9.4,3.8,19.4,4.8,29,.8,8.1,1.7,16.5,3.6,24.7l1.8,7.8,12.4-31.4c7.2-20.8,6.9-42.3,6.7-63.1v-8.3l-5.6-59.9c16.7,13.7,35.1,41.6,46,61.9,1.2,2.2,2.3,4.6,3.5,7.1,2.4,5.2,5,10.6,8.6,15l7,8.4-26.5-107.2c.3.5.6,1.1.9,1.7.2.4.4.7.5,1,20.3,35.7,26.2,78.4,31.8,119.8.4,2.7.7,5.4,1.1,8.1v.3l30.6,68.3-1.1-14.3c-.9-11.6-1.1-23.5-1.3-35l.7-.5Z" fill="#ffffff"/>
  <path id="fill-head-2" class="fill" d="M950.9,1720.1c2,20.4-1.1,42.1,4.6,61.9.7,2.4,3,10,5,11s1.5-1.6,1.5-2.5c0-3.9-1.7-8.9-2-13-1.5-17.8-.3-36,2.5-53.5,14.4,4.4,29.1,8.9,43.9,12.2s19.4,3.6,33.8.6c15.3-3.2,30.4-8.8,45.8-11.7,1.6,16.7,2.9,33.7,2,50.6-.2,4.5-1.9,9.5-2.1,13.9,0,1.4-.8,4,1.5,3.5,12.5-21.9,7-48.8,9.6-72.9,4.3.5,25.8-12.1,26.9-11.1-2.2,14.1,2.4,29,3.1,43.4.8,16.5,0,34.2-2.6,50.5-16.6,14.3-34.5,26.8-52,40,1.7-16.4,2.9-33.4-2.7-49.3-12.9-13.8-25.3-28-38.3-41.7-1.2-1.3-6.5-7.2-7.9-6.9l-45.4,48.7c-5.7,15.8-4.4,32.8-2.7,49.3-14.4-11.7-31.1-21.8-45-34-3.2-2.8-7.5-5.7-8.3-9.7-2.3-12.6-2-36.6-1.3-49.8.7-13.9,5.2-27.6,3-41.5l26.8,12.1h.3Z" fill="#ffffff"/>
  <path id="shading-head" class="shading" d="M943,1120c16.7-27.8,28-68,50.6-94.9,14.2-20.7,12.3,6.2,26.3,10.5,1.7,1.2,1,3.4,4.6,3.5,2.7,0,1.3-2.5,2.8-3.8s5.8-2.6,8.3-5.2c2.7-2.8,7.1-13.4,10.7-12.9s14.5,17.9,17.1,22c15.9,24.3,28.9,52.9,39.3,79.6,5,6,.9-25.2,1.1-29.1-3.7-21.1-16.3-51.7-19.4-73.6,52.9,53.1,97.1,120.2,113.5,194,3.9-5.4,13.1-18.7,15-25l11,6c-1.2-15.9-7.8-30.6-10.3-46.2-2-9.3-11.5-24.2-10.2-31.8,32.8,39.4,59.3,84.1,66,136l12.5,27c7.3-23,15.6-50.8,13.3-74.8-16.4-57-56.8-109.5-92.3-156.2,40,23.5,70.1,61.3,95.6,99.9,24.1,23.5,35.2,51.5,43.7,84.3,26,64,68.5,130.8,48.8,201.8,4.4-1.2,11.6-17,13.1-17.9,9.3-.9,10.1,37.2,12.9,43.9,13.6-58.8-11.6-117.2-31.5-170.9-.2-.9-1.1-2.7,0-3,11.6,19.9,22.7,40.6,32.4,61.6,11.7,25.3,18,50.6,19.2,78.8-.3,11.8-1.9,21.5.9,32.9,6.9,5.6,10.4-34.2,11.9-39,5.6-40.7,1.5-46.3-18.1-80.7-6.1-27.6-19.1-53.8-30.3-79.7,44.9,44.9,54.4,110.7,96.5,158,1.8-.5-.4-5.6-.8-6.8-21.8-97.9-93.3-176.9-133.2-265.8,10.8,8.8,16.6,27,26.5,37.5,7.7,9,20.3,19.3,29.2,27.8,1.3,1.5,1.1,2.7,1.2-.2-36.8-55.7-72.1-112.2-113-165,45.2,27.4,70.7,78.8,112,112,16.5,15.2,90.8,81.8,42.4,20.6-15.4-23.1-38.3-45.8-54.2-67.8-.7-4.2-32-73.9-21.6-59.4,6.3,7,14.6,20.7,21,26,17.1,18.3,63.2,24.7,67.5,51l-45-5.5c12.1,10,98.4,120.8,66,120-21.2-14.6-41.4-30.5-61.6-46.4,1.2,30.3,23.8,74.3,33.8,106.2,16.6,53.8,43.8,106.6,67.7,156.3,20.4,11.4,8.1,13.8,30.1,21.9,1.6,1.2,15.7,19.7,16,21-21.3,4.5-50.6-15.8-69.7-27.3-2.9-1.9-9.2-8.9-9.8-4.2-14-14.1-23.3-31.6-33.7-48.3-2.2-3.6-1.1-7.1-6.8-3l-3.1,31.7c-1.7,7.1-5.2,7.1,1.5,12.7,34.9,46.4,46.3,121.8,57.5,175.3.8.9.7.9,2.1.6,9.7-13.4,12.4-28.2,10.1-44.4,17.6-55.5,13.7,36.1,13,49-3.6,20,.7,72.7-5,89-16.2-5.9-63.8-143.8-82-133,.7,46-20.4,105.8-44.3,146.8-21.2,36.7-46.3,94.1-73.7,116.2-3.5-204.6-21.4-32.1-139.1,14.9-3.8,1.1-19.2,12.1-19.8,7.2,16.9-40,5.5-86.7,18.9-127.1-.2-2.4.4-18-3.3-12.2-20.6,46.9-87.9,93.6-135.2,113.8,11.6-42-11.2-75.2-11.7-75.8-7.8-1.3-20.9-26.7-23.4-29.1-1.2-.2-6.8,5.6-7.9,6.9-1.7,2-8.4,21-16.3,22.2-.5.7-23.8,38.3-11.7,75.8-42-15.7-97.7-60.4-125.5-93.5-4-6.5-4.4-16.7-12-21.5-4.3,11.9,2.6,22.2,3.9,32.6,2.8,22,2.4,46.2,5.2,68.8,1.8,14,3.6,27.5,8.9,40.6-144.8-48.7-152.4-234.5-159.5-21-57-74.3-114.6-169.3-116.6-264.4-20.4-11.2-64.2,123.9-84.9,136.4,3.1,2.7-15.3-221.8,10.1-141.5-1.9,12.6-1.1,27.8,7.1,38.8,3.7,5.9,4.5,6.7,7.1-.5,7.5-58.2,22.4-123.5,56.5-172.5.5-3.1-6.5-6.7-4.6-12.6,6.7-7.6.7-20.7,1.8-30l-5-1.6c-6.3,11.6-13,24.2-20.7,34.9-12.3,14.7-26.4,32.8-45.7,36.3-15.6,6.1-33.9,15.1-51.7,15.3,7.4-5.3,12.1-18.1,18.9-23.1,9.2-3.6,14.7-6.2,19.4-15.1,2.6-2.4,8.6-4.2,10.7-6.8,23.6-49.8,51.3-102.3,67.7-156.3,55-162.6,48.8-98.6-35.8-59.2,7.1-43.4,45-88.3,74-120.5l-45,5.5c-1.4-14.1,15.8-19.4,26.3-25.2,11.7-7.1,30.6-17.3,40.7-25.3,8-5.8,15.7-23.7,25-29-9.5,19-17.2,42.8-25.1,61.9-23.9,29.6-50.9,61.3-72.8,93.2-.4,2.5,1.7,1.6,3,1,54.6-35.5,104.4-92.7,145.4-143.6.2,1.2,33.4-24.4,20.9-10.1-39.8,49.3-72.9,105.9-108.4,157.1,21.7-10.2,39.2-38.9,53.5-61,2.8-2.4,1.5.7,1,2-12.4,34.3-32.3,67.4-55.7,95.3-36,52.7-57.1,112.3-77.8,172.2,45.9-43.4,51-113.1,97.5-156.5-11.9,26-23.8,53.4-31,81-3.8,10.4-16.5,25.4-18.2,35.8-2.6,22.8,1.1,63.4,10.3,83.3,5,.7,3-10.6,4.1-13.7-4-60.2,21.9-108.2,49.4-160.3-10.2,46-39.1,95.2-33,147.5,2.1,3-.8,31.7,4,23,2.3-8.8,1.6-39.5,11.9-40.4,1.8,1.1,8.4,16.7,13.1,17.9-20.1-71.3,23-137.6,48.8-201.7,8.9-24.5,10-44.5,27.2-65.8,34.4-44.3,65.9-90.3,114-121-48.5,67.2-123,145.7-81,233.5,20.6-46.3,25.4-99.4,60.2-139.3,40.4-59.6,1.6,17.3.3,38.3-2.1,17.5-8.1,18.3,8.5,10,1.9,6.3,11.1,19.6,15,25,16.4-73.8,60.4-141.6,114-194-7.4,35.6-22.9,66.3-21,104v-.4ZM745,1272.5c-.5-4.9.4-10.5,0-15.5l4,4-3-36c-1.7-2-5.6,7-7,7-1.4-6.9.6-16-3-22-3.2,10.3,3.2,13.3-1,21.5,3.3,7.2-7.9,16-11.7,22.3-17.2,28-48.4,67.3-52.3,98.1,2.7-6.8,61.6-122.8,58.5-91.9-22,47.1-68.8,94.6-52.6,149.5,1,11,1.5,32.1,7.1,40.9,4.7,2.3,9.5-2,12.3-1.4,7.8,4.2,4.8,44.2,9.7,55.5-.7,26,9.5,25.9,30.8,28.5,1.3,5.6,7.3,8.1,10,13.4,4.6,7.9,7,18.3,11.7,26.3,1.3-1.7,5.7,19.3,5.7,19.3,7.4,9.4,5.5,3.9,6.3,16.7,4.3,10.7,24.9,37.1,37.5,38.5,2.3.5,5.3,8,7.6,5.5,3.9-8.5-9.1-14.2,2.5-17.7,3.7-12.7-7.2-21.4,7.4-31.3,14.8,27.1,20,31.2,47.1,43.9,11,10.9,15.1,27.9,24.1,39.9,24.3,11.9,47,28,72.8,36.3,60.8,24.2,114.6,0,168.9-27.4,24.8-1.8,22.4-32.1,34-45.4,8.8-10.1,16.9-6.4,27.6-11.9,17.5-3.3,17.1-57,31-23.9,0,7.8-6.2,13.2-3,20.4.5.5,6.5-1.2,7,3.6-2,10.4-9.1,0-5.5,19.5,7.1-11.8,16.9-13,27-22,4.4-4.1,19.9-21.6,21.7-26.3,1-5.4-3.6-17.2,5.8-14.7,1.3-1.2,4-21.4,8-18,2.4-17,8.4-32.6,20-44.5,4.6-3.5,18.9,1,25.9-8.2,6.7-9.3-1-21.4,11.2-21.8,3.9-2.8-4.8-40-1-50,3-7.8,13.1-.6,16.6-3.4,26.3-93.5-6.8-114.2-46.5-190.7-2.2-30.2,58.1,92.7,59.9,92.1-11.9-40.6-43.1-80.6-65.5-114.6-.2-.6-1.6-10.9-1.6-11.5,3-3,1.9-21.9-.8-10.9-.6,5.6-.5,11.8-1.1,17.4-1.4,0-5.3-9-7-7,.6,13.3-3.1,26.3-4,39.5.2,6.3,1.3-6,5-4.5-.3,30.3-15.4,62.2-36,84,1.7-50.9-3.7-104.8-40.5-143.1-1.7-2.1-1.9-6.8-7.5-3.5-6.9,15.1-13,36.9-28,47.5-1.8-26.4-7.4-52.8-18-77l-2,2c-12.2-33.5-33.2-66.7-61.5-89-7.2,11,1.7,27.1.5,40.4,0,15.2,2.4,37-1.2,51.4-.6.4-6.4.3-6.8,0-11.6-46.4-31-98.9-66.6-132.9-5.7,14.9-17.6,15-23,0-35.8,34.7-54.8,85.3-66.6,132.9-4.2,0-7.4,1.6-8-3.4-1.5-12.6-.6-36.8,0-50.1-.9-12.9,7.3-28.2.5-38.4-28.6,22.1-49.3,55.4-61.5,89l-2-2c-24.7,43.1-5.4,110.2-36.2,53.7-4.6-6.6-6.1-28.9-15.7-24.5-13.5,20.6-26.8,33.8-33.7,58.8-9,28.6-7.7,58.3-8.5,88-1.7.4-2-.5-3-1.5-12.7-13-31-52-33-70l.2.6ZM750,1264c.7-1.4-.6-2.7-1-2-.7,1.4.6,2.7,1,2M1456,1390c.7-1.4-.6-2.7-1-2-.7,1.4.6,2.7,1,2M586,1408c4.3-4.6,5.5-11.8,6-18,.5.9-12.2,20.7-6,18M1464,1408l-8-17c.7,2.3,2.4,16.3,3,16.9.5.4,3.8-.2,4.9,0h0ZM1449,1471c-7.9,1.7-.9,6.8,2,10l-2-10ZM597,1481c2.8-2.9,7.3-6,2.5-9l-2.5,9ZM613,1489c-2.9,5.9-13.9,47.4-20.5,43-2.5.3,8.1-32.8,2-25-13,7.1-26.3,65.4-31,78,13.1-18.2,30.8-36.5,47.8-50.2,2.4-5.3,4.4-19,6.2-25.8,3-10.9,6.2-10.6-4.5-20M1435,1489c-13.2,7.2-7.5,12.3-3.5,24,1.3,4.7,3.9,20.8,5.4,23.3,12,7.1,37.8,35.6,47.1,47.7l-19.2-63.3-13.8-15.7c-.3,7.3,8.5,25.1,2,27.5-4.7-3.7-15.6-36.1-18-43.5M633,1673c2.5-40,21.1-75.6,37.1-111.5-1.7-6.8-5.1-13.1-7.4-19.7-.4-6.3-1.6-6.4-7.7-8.3-5-3.1-8.4-8.5-12.5-12.4-17.3,44.6-27.2,105.4-9.5,152h0ZM1416,1673c16.7-47.2,6.5-105.9-10.5-152-25.4,27.7-15.6-1.6-27.6,40.5,17.2,34.8,33.2,76.4,38.1,111.5M709,1542c-8.5,3.4-15.8,31.4-20,36.6-3,1.9-9.5-8-10-7.6-22.3,50.5-48.1,126.5-8,174-10.9-40,9.9-76.7,24-113l-5,84c6.6-19.2,14-49.6,26-66-11.9,32.2,5.4,59.1,20.9,87.6,2.3,9.5,8.1,15.7,16.7,20.3-12.7-43.5-11.8-88.7-5.7-133.2-1.6-1.1-11.3-14.4-12.8-12.7l-6.1,43.5c-1.8,13,9.7,54.5,3.1,60.5-5.5-25.2-8-52.7-13-77l-3,10c-2.7-33.7,5.2-75.7-7-107h-.1ZM1332,1650l-4-12c-3.8,26.6-5.2,55.8-14,81,1.1-37.2,7.3-69.3-1-107-1.5-1.8-11.6,11.7-12.8,12.7,5.3,44.3,7.4,90.2-6.2,133.3l12-8.7c8.3-18.9,19-36.2,26-55.7,8.3-14.3,2.8-28.1,0-43.5,11,14.2,19.8,49,26,66,.9-27.3-8.7-58.1-4-84,17.3,50.9,33,71,21.5,127,37.3-56.3,21-129.7-6.5-187-1.6-1.2-7.2,8.4-10,6.5-1.6-1.1-11.9-28.9-17.1-34.9-.6-.7-1.6-2.6-2.8-1.7-11.2,31.2-6.2,74.6-7,108h0ZM780,1755c4.7,3.8,1.1-13.3,1-14.5-1.3-16.3-.3-33.6,1-50,6.7-21.6-2.1-30.5-16.5-45.5-12.4,30.6,2.9,80.3,14.5,110M1267.9,1754.9c10.6-14.7,40-159.6-4.9-86.3,3.8,27.9,6.4,58.8,2,86.4,0,0,2.5,0,2.9,0M825,1650.5v32.5c-3.7-.3-18.4-13.7-20-12-4.6,36.2-.3,72.4,5.3,108.2.2,1.1.2,4,1.7,3.8,2.7-44.3,17.9-87.3,38-126.5-7.5-.3-18.7-10.6-25-6M1223,1683c0-1.2.6-34.2-1.1-34-3.3.5-24.8,6.8-24.9,8.4,22.3,37.6,35.3,81.9,39,125.5,1.5,0,1.5-3.6,1.7-4.8,6.2-35.1,9.2-71.7,5.3-107.2-1.5-1.5-16.8,11.2-20,12h0ZM900.9,1711.1c-16.8-9.8-25.8-14.5-29.9-34.1-5.4,17.3-2.4,37.8-2.5,56.1,8.2,10.4,18.5,18.9,28.1,27.9.5-16.7,1.7-33.4,4.4-49.9h0ZM1151,1761c5.5-6.2,26.8-21.8,28.8-28.7,2.2-14.9-.4-39.6-1.8-55.3-5.4,9.8-5.1,18.4-16.1,24.4-4.8,3.8-10,6.9-14.9,10.3,2.6,16.3,4.4,32.7,4.1,49.3h0ZM953,1801c-7.8-21.3-12.5-43.3-13.5-66-10.7,15.3-3.9,37.7-3.3,55.3.7,2.1,16.1,11.4,16.8,10.7M1108,1735c-.3,23.1-5.7,45.5-13.5,67,2.9-2.9,16.4-8.5,17.3-11.7,0-17.4,8.1-40.8-3.8-55.3M965,1794c2-15.5,7.9-28.3,16-41.4l-27-12.6c-1.2,13.7,7.7,32.2,7.2,46.2l3.8,7.8ZM1094,1740c-45.6,19.5-17.9,8.6-10.5,54,4.6-17.3,8.8-35.6,10.5-54M1374.5,1760v1c.7-.3.7-.7,0-1" fill="#aaaaaa" style="opacity: 0.5" opacity="0.5"/>
  <path id="outline-head" d="M1525,1141c-18.9,3.6-37-1.1-55.5-3-1.5-.2-2.8-.6-2.5,1.5.3,1.9,21.2,26,24.4,30.6,12.4,17.4,21.9,38.6,30.8,58.2,11.3,25.2,21.5,50.9,29.8,77.2l-23.5-22.5c-22.7-16.8-44.1-35.2-66-53-.8-.2-.6.9-.5,1.5,2.3,15.4,16.1,48.8,22,65,21.6,59.3,52,128.2,88.2,179.8,8.5,12.1,17.2,22.2,29.8,30.2-25.9.4-50.9-6.2-74-17.5l15.5,28c9.1,25.7,4.9,53.8,4.5,80.4-.6,36.2-1.9,72-3,108-.5,16.2-.2,32.4-1,48.5l-85-153c4,29.9-6,59.6-16.3,87.2-10.8,29.1-25,59-39.6,86.4-19.2,36.2-41.3,69.8-68.7,100.3-2.3.4-1.4-1-1.5-2.5-1.5-20.9-.2-42.6-2-64-1.2-14.5-4-28.9-5-43.5l-20,25.5c-21.4,20.8-42.5,48.8-65.5,67.5-11.1,9-39.1,21.4-53.1,27.9-3.4,1.6-14.1,7-16.8,7.2-1.6,0-1.8.2-1.4-1.4,1.7-7.7,8-18,10.2-26.8,1.2-4.7,1.8-9.6,2.6-14.4,4.2-27.6,5.6-56.5,7.1-84.4-21.3,25.1-48.9,46.5-75.7,65.8-18,13-36.5,26.6-58.8,31.2-1.7-18.3,6.8-42.1.8-59.8-4.2-12.5-23.9-27.1-30.8-39.2l-23.5,26.5c-19,19.6-5.7,48.7-7.5,72.5-22.3-4.6-40.8-18.2-58.8-31.2-26.7-19.3-54.3-40.7-75.7-65.8,1.5,27.9,3,56.8,7.1,84.4.7,4.8,1.4,9.7,2.6,14.4,2.2,8.8,8.5,19.2,10.2,26.8.3,1.6,0,1.5-1.4,1.4-2.8-.2-13.4-5.6-16.8-7.2-14-6.5-42-18.9-53.1-27.9-23-18.7-44.1-46.7-65.5-67.5l-20-25.5c-1,14.6-3.8,29-5,43.5-1.8,21.4-.5,43.2-2,64,0,1.5.8,2.9-1.5,2.5-27.4-30.5-49.4-64.2-68.7-100.3-14.6-27.5-28.7-57.2-39.6-86.4-10.3-27.7-20.3-57.3-16.3-87.2l-85,153c-.8-16.2-.5-32.4-1-48.5-1.1-36-2.4-71.8-3-108-.4-26.6-4.6-54.8,4.5-80.4l15.5-28c-23,11.3-48.1,17.9-74,17.5,12.6-8,21.3-18.1,29.8-30.2,36.2-51.6,66.6-120.5,88.2-179.8,5.9-16.2,19.7-49.7,22-65,0-.6.3-1.7-.5-1.5-12.5,9.3-23.9,20.2-36,30-13.4,10.8-28.1,20.4-40.5,32.5-3.6,3.5-6.6,10.1-12,11.5-2.6-2.9,24.3-65.7,27.8-73.7,11.1-24.8,21.3-46.5,37.8-68.2,2.9-3.8,17.7-20.3,18.4-22.6s-1.4-1.5-2.5-1.5c-9.3.4-20.3,3.5-30,4-8.4.4-17.3.3-25.5-1.5,22.2-20.4,42.8-41.8,61.4-65.6,18.5-23.7,35.8-49.7,52-75,9.9-15.4,19-34,29.6-48.4,9.9-13.6,20.6-13.7,34.3-20.7,43.8-22.2,99-71.5,135.7-105.3,14.8-13.6,21.5-27.3,42.8-31.2,78-14.5,212.4-14.5,290.4,0,21.4,4,28.8,18.4,43.8,32.2,36.1,33.2,90.3,81.5,133.3,103.7,19.9,10.3,25.3,6.3,39.1,26.9,35.1,52.2,62.2,104.1,106.1,150.9,10.7,11.4,22.9,21.4,33.5,33M619,1412v39.5c0,4.8,5.9,22.6,7.7,28.3,6,18.5,12.4,32.3,29.3,43.2-3.6-9-6-18.2-7.7-27.8-2.7-14.8-5.5-34.8-6.3-49.7-.3-5.7-2.1-15.4,5.9-14l31,26.5c-1.9-14-5.5-27.8-7.7-41.8-4.5-29.1-11-57.5,1.3-85.1,10.3-23,26.2-47.8,40.2-68.8,3.6-5.4,21-27.5,22-31,2-7-.7-23.3.2-31.8.9-8.2,22.8-39.4,28.8-48.2,9.4-13.8,19.4-27.3,29.2-40.8,1.9-1.4.7,1.8.5,2.5-7.5,27.5-30,61.2-41.4,88.6-8.5,20.4,2.6,79.6,11.1,100.7,2.8,6.8,6.9,15.2,11.8,20.7-.7-19.5.2-37.8,3.5-57,2.2-12.7,2.5-18.7,3.5-31.4,2.9-37.4,10.8-51.3,32.4-80.6.4-.5,1.1-3.7,2.6-1.9,1.3,1.6-12.6,32.2-14.3,37.2-2.9,8.8-4.9,17.8-7.2,26.8l-1.5,13c11.3-17.8,25.8-33.6,41-48v14.5c0,6.8,10.2,27.4,14.7,33.2.7.8,0,1.8,2.3,1.3.6-12.2,5.9-24.9,10.3-36.2,14.7-38.7,34.1-77.3,61.2-108.8,7.8-9,18.9-16.2,27-25-8.2,35.8-12.1,72.7-9.5,109.5l2,1.5c5.9-30.9,18.6-62.3,33.5-90,9.8-18.1,20.2-34.5,37-47,3.2,2.8,7.7,19.5,12.8,13.8,1.6-1.8,7.2-13.8,8.2-13.8,17.8,13.4,28.9,31.5,39,51,13.9,26.7,25.6,56.4,31.5,86,1.5.2,1.8-2.6,1.9-3.6,2.4-22.3.2-51.4-3.1-73.8-1.3-9.1-5.2-21-5.7-29.3,0-1.5-.8-2.8,1.4-2.4,7.6,8.1,17.8,14.7,25,23,27.1,31.1,46.7,70.4,61.2,108.8,4.3,11.4,9.6,24.1,10.3,36.2,2.3.6,1.6-.4,2.3-1.3,4.5-5.8,14.7-26.4,14.7-33.2v-14.5c15.2,13.7,28,29.8,40.5,46,0-10.1-3.3-21-6.2-30.8-4.6-15.5-11.6-30.1-17.3-45.2,2.2-.3,3.6,3.1,4.8,4.7,21.7,29.3,29.1,45.6,31.2,82.8.3,4.6-1.1,10.3-.8,13.8.4,4.8,4.4,14.3,5.5,20.5,2.8,16.6,2.3,33.4,2.3,50.2,10.4-13.3,16.2-31.3,19.7-47.8,3.9-18.9,8.4-47.7,5.2-66.6-1.3-7.7-15.7-35.8-20-45-7.3-15.6-17.7-31.9-22.8-48.2,0-.2-2.3-6.2,0-4.9,7.2,10.4,15,20.4,22.2,30.8,9.2,13.2,28.1,38.5,34,52,4.8,11-.9,28,2,38,1,3.5,18.4,25.6,22,31,14,21,29.9,45.9,40.2,68.8,12.3,27.6,5.9,56,1.3,85.1-2.2,14-5.8,27.8-7.7,41.8l31-26.5c8-1.4,6.2,8.3,5.9,14-.8,14.9-3.6,34.9-6.3,49.7-1.7,9.6-4.1,18.8-7.7,27.8,15.6-10.2,22.4-23,28.3-40.2,1.9-5.6,8.7-26.8,8.7-31.3v-39.5l3.5,13c.4,8.7,5.4,20.4,5.5,28.5,0,7.5-4,17-5,24.5,7-8,17.2-19.1,21.5-29,14.5-33.7-15.8-91.5-25-125-.8-2.7-5.3-22.1-4.5-23,1.3-1.4,2.6,1.8,3,2.5,6.9,12.2,14.5,33.7,19.7,47.3,9.5,24.9,28.8,76.2,22,101.5-5.2,19.1-51.6,67.8-67.7,82.3-11.3,10.2-24.1,21.2-40,22.5,2.1-5.2,5.5-9.6,7.8-14.6,11-23.8,14.6-53.6,18.1-79.3l-21.6,11.8-11.3,4.1c-1.5-1.5,8.3-23.8-1-26-1,6.3-2.7,13.1-3.1,19.5-.7,10.7,2.2,37.5-.5,45.5-.8,2.3-11.4,15.3-13.7,16.3-7.3,3-19.5-2.5-25.6,4.4,1.2,16.4,6.8,32.5,7.9,48.8,1.2,17.4-.3,35.2-2,52.5h-3c-1.4-25.9-2.8-54-12-78.5-.4-1-2.3-8.3-4-6.5-.4.4-3.1,10.1-3.1,11.5.2,7.9,5,21.6,6,31.1,2.6,24.4.3,53.4-2,78-1,10.9-2.9,21.7-4,32.5h-3v-63.6l-3-45.4-10.8,18.7c-8.5,11.7-17.4,23.1-28.2,32.8-2.2,2-18.5,15-19.7,15.3-.8.2-1.5.2-2.3.2,1.3-14.1,2.5-29.9-1.9-43.5-.2-.7-2.3-7.2-4-5.4-.4.4-2.6,8.8-3.6,10.9-7.6,15.2-19.7,13.6-33.1,18.9-10.7,4.3-13.7,20.7-18.4,30.6-6.4,13.2-13.8,15.8-26.2,22.8-3.9,2.2-8.4,4.4-12.7,5.8,10.1,26.7,9.1,55.8,9,84,18.6-17.7,40.1-39.6,47.7-64.8,4.1-13.7,4.6-28.3,7.8-42.2,3.4,6,8.2,11.5,11.3,17.7,15.2,30.5,8.9,94.8,4,128.7-1.4,10.1-3.5,20.2-5.8,30.2,25.1-13.6,45.8-34.3,64.5-55.5s32.5-38.6,40.4-66.6c10.7-37.8,15.4-77.4,19.6-116.4,18.2,49.4,18.4,103.4,19.5,155.5.4,18.9-.6,38.2,0,57,0,1.2-.8,3.7,1,3.5,17.3-34.3,37-68.6,52.9-103.6,1.4-3.1,5.7-11.3,6.1-13.9,2.2-14.2,0-45.9-2.1-60.8-2.5-17.9-9.9-32.5-14.8-49.2-1.6-5.3-7.2-20,2.8-17.3l18.6,41.9c5.3,17.6,4.4,36.2,8.5,54l9.5-24c7.9-22.9,6.6-46.6,6.5-70.5l-6-64.5c1.7-.4,2,.7,3,1.5,17.9,13.9,37.4,43.9,48.2,63.8,3.8,7.1,6.7,15.5,11.8,21.7l-26-105c2.3-2.3,7.1,7.4,8.2,9.3,21.9,38.5,27.2,85.6,33.3,128.7l24.6,54.9c-1.5-20.4-1-41-2-61.5-1.3-26.9-2.9-54.2-5-81-2.9-37.8-7.6-54.1-22.8-88.2-1.2-2.7-9.3-17.1-8.2-18.3l63,28.5c-23.2-30.6-45.2-62.2-60.2-97.8-15-35.8-29-75.4-41.8-112.2-9.2-26.3-22.2-59.4-27.8-86.3-.3-1.3-1-4.1,1.2-3.2,4.1,1.6,17,12.2,21.4,15.6,9.4,7.2,18.2,15.3,27.8,22.2l23.3,15.2c-19-51.2-53.2-94.7-91-133.5l1.5-1.5c9.8,6,21.8,7.9,30.5,15.5l30,4c-31.7-35.8-61.1-73.9-86.4-114.6-5.6-9-23.5-44.1-28.7-48.3-8.3-6.8-24-14-33.8-20.2-48.3-30.3-97.2-68.3-141.1-104.9-5-4.2-15.4-15.8-20.1-17.9-8.8-3.9-34.8-6.3-45.5-7.5-62.8-7-138.2-6.9-200.7,2-7.7,1.1-22.2,2.5-28.8,5.2-5,2-15.2,13.5-20.3,17.7-56.1,46.6-114.6,90.5-177.5,127.5-31,58-69.3,111.9-113,161l30-3.9c9.2-7.2,20.9-11.2,31.9-15.1-17.3,20.7-36.7,39.7-52.2,61.8s-29,47.9-39.8,73.2c25.5-13.1,45.3-35.4,69.2-50.7,1-.7,5-3.6,5.7-2.8-7.2,30.3-17.7,60.1-28,89.5-12.9,36.8-26.8,76.4-41.8,112.2-14.9,35.6-37,67.2-60.2,97.8l63-28.5c1.2,1.2-7,15.7-8.2,18.3-15.2,34.1-19.9,50.4-22.8,88.2-2.1,26.8-3.7,54.1-5,81-1,20.5-.5,41.1-2,61.5l23.7-52.8c7-44.6,11.7-92.5,34.8-132.2,1-1.7,5.1-10.3,7.5-8l-27,108,26.6-48.9c10.8-12.1,21.6-29.7,34.4-39.6,1-.8,1.3-1.9,3-1.5-4,48.1-13.9,99.1,4,145.5l6,13.5c3.8-17.3,3.2-35.3,8-52.6l19.2-43.3c9.5-2.4,4.8,9.5,3.4,14.8-4.7,17-12.6,32.6-15.4,50.6-2.2,14.6-4.3,47.8-2.1,61.8.4,2.6,4.7,10.8,6.1,13.9,15.9,35,35.6,69.3,52.9,103.6,1.7.2.9-2.3,1-3.5,1.6-45-1.2-89.4,3-135,2.4-25.8,7.5-53.3,16.5-77.5,4.1,39,8.9,78.6,19.6,116.4,7.9,28,21.5,45.2,40.4,66.6s39.4,41.9,64.5,55.5c-2.3-10-4.4-20.1-5.8-30.2-4.8-33.9-11.2-98.1,4-128.7,3.1-6.2,7.9-11.7,11.3-17.7,3.2,13.9,3.7,28.5,7.8,42.2,7.6,25.2,29.1,47.1,47.7,64.8-.3-28.3-1-57.1,8.6-84-1-1.6-26.9-13.7-31.6-18.4-7.5-7.5-10.2-26.2-17-35-10.1-13.1-31.2-3.7-41.2-25.8-2.5-5.6-2.6-15.5-6.6-4.9-5.1,13.3-3.4,30.3-2.2,44.3-.8,0-1.5,0-2.3-.2-1.7-.4-16.3-12.2-18.7-14.3-14.8-13.2-28-30.2-37.5-47.5l-2.5-9c-5.5,37.3-3.7,75.3-4,113-.8,0-2.8.2-3,0-1.2-1.1-3.6-27.6-4-31.5-3.2-33.3-5.3-66.5,1.5-99.5.7-3.2,3.4-9.5,3.5-11.6.2-3.2-3.7-8-4-11.4-5,6.8-7.6,17.6-9.5,26-4.5,19.4-6,40.1-6.5,60h-3c-1.2-13.9-3.8-28.7-2-42.5-.6-19.9,5.6-39.1,7.9-58.8-1.7-6.2-19.2-2.3-24.6-4.5-2.2-.9-12.6-13.2-13.5-15.5-2.6-6.5-.3-32.9-.8-42.2-.2-2.9-2.2-22.6-3-23.5-.9-1.1-5,3.7-5.1,4.5-1,7.2,2.7,14.5,3.1,21.5l-11.3-4.1-21.6-11.8c3.6,25.8,7.2,55.6,18.1,79.3,2.3,5.1,5.8,9.5,7.8,14.6-15.9-1.3-28.7-12.3-40-22.5-16.1-14.6-62.5-63.2-67.7-82.3-8.1-29.9,19.9-97.8,32.2-127.2l12.5-27c-2.5,26.8-14.6,50.8-22.3,76.2-5.8,19.3-12.6,40.9-10.7,61.2,1.5,16.7,14.5,30,24.5,42.5-.6-8.2-4.8-17.1-4.5-25.4.3-9.7,5.7-22.5,6.5-32.6l2.5-8v-.2ZM740,1271.5c-.6-5.6.4-11.9,0-17.5-1.2,0-1.6,1.4-2.2,2.3-10.2,16.1-19.4,35.5-28.6,52.4-11.4,20.9-28.4,43.3-29.2,67.8-.3,8.8.4,21.2,1.1,30,1,13.3,3.5,26.5,6,39.5,21.7-7.3,17.3,9.6,19,23.5,1.7,14.2,3,30,5.1,43.9,2.4,16.2,15.5,11.9,26.9,17.1,18.4,8.4,26.2,47.9,33.3,65.7,7.6,19.4,17.8,32.8,34.3,45.7,2.2.3,1.2-.3,1.5-1.4,1.9-6.1,1.7-15.1,3.3-21.7,1.6-6.5,8.9-23,17-20.6,3.9,1.2,15.4,25.8,21.7,31.3,8.8,7.8,20.9,7.4,28.5,15.5,8.2,8.7,12.5,22.1,19.7,31.3,13.8,17.8,73.5,41.2,96.1,47.9,6.9,2.1,24,7.5,30.3,7.5s23.3-5.2,30.5-7.3c27.7-8.1,64.4-23.4,87.7-40.3,14.7-10.7,16.6-25.5,27.8-38.2,8.1-9.2,20.2-8.3,29.5-16.5,6.5-5.7,17.3-30,21.7-31.3,6.2-1.9,12.2,8.1,14.5,13.1,1.8,3.9,2.8,9.2,3.5,13.5.8,4.5.5,12.2,1.4,15.6.7,2.5,2.3,1,3.8,0,8.5-5.5,20.2-19,25.2-27.8,11.7-20.6,19.7-71.8,40.2-81.8,13.3-6.5,25,0,27.7-19.3,2-14.4,3.2-29.5,5-44,1.7-13.9-2.1-28.4,19-21.5,2.5-13,5-26.2,6-39.5.7-8.9,1.3-21.2,1.1-30-.8-24.5-17.8-46.9-29.2-67.8-9.2-16.9-18.5-36.3-28.6-52.4-.6-.9-.9-2.2-2.2-2.3v17.5c0,25.1-24.7,63.4-41.7,80.8-1.7,1.7,0,4.7-4.3,3.7,1.3-46.3.8-87.3-21.8-128.7-2.9-5.2-12.4-21.4-16.7-24.3-.9-.6-1.1-1.6-2,0-2,3.4-4,13.6-6.3,18.7-5.2,11.6-14,23.2-24.3,30.7-.9.6-4.2,3.4-4.9,2.6,3-60.6-40.6-109.8-69.5-159,.7,13.1,3.8,26.4,4.5,39.5,1.3,23.5-7.8,51.3-21,70.5-6.6-41.1-20.2-79.2-39.8-115.7-1.5-2.8-22.4-39.7-24.2-38.3-1.9,6.2-8.7,18.7-16.6,13.1-2.3-1.7-6.6-12.6-8.9-12.1-3.5.9-32.3,55.9-35.7,63.3-13.1,28.9-21.7,58.3-26.8,89.7-1.9,1.5-11-19.8-11.8-21.7-3.7-9.4-8.2-23-9.1-32.9-1.7-17.6,3.1-35.9,3.9-53.4-1.3.3-2.1,1.7-2.8,2.7-11.7,16.2-24.8,38.5-35,56-17.5,30.1-34,62.2-31.2,98.3-.8.9-10-6.5-11-7.5-13.1-12-20.3-28.6-25-45.5-16.9,18.3-30,44.8-35.3,69.2-3.6,16.6-5.6,38.4-5.7,55.3,0,10.1,2,20.3,1,30.6-2,.5-1.9-.8-2.8-1.7-19.6-19.3-40.4-56.2-43.2-83.8h-.4ZM931.5,1096v1c.7-.3.7-.7,0-1M582.5,1137v1c.7-.3.7-.7,0-1M1465.5,1137v1c.7-.3.7-.7,0-1M1493,1619c.7-1.4-.6-2.7-1-2-.7,1.4.6,2.7,1,2M950.9,1720.1l-26.8-12.1c2.1,13.8-2.3,27.6-3,41.5-.7,13.2-1,37.2,1.3,49.8.7,4,5.1,6.9,8.3,9.7,13.9,12.2,30.6,22.3,45,34-1.7-16.4-2.9-33.4,2.7-49.3l45.4-48.7c1.3-.2,6.6,5.6,7.9,6.9,12.9,13.7,25.4,27.9,38.3,41.7,5.7,15.8,4.4,32.8,2.7,49.3,17.5-13.2,35.4-25.7,52-40,2.6-16.3,3.3-34,2.6-50.5-.7-14.4-5.2-29.3-3.1-43.4-1.1-1-22.6,11.6-26.9,11.1-2.7,24.2,2.8,51-9.6,72.9-2.3.5-1.6-2.1-1.5-3.5.2-4.4,1.8-9.5,2.1-13.9.9-16.8-.4-33.9-2-50.6-15.4,2.9-30.4,8.5-45.8,11.7-14.4,3-19.6,2.5-33.8-.6s-29.4-7.8-43.9-12.2c-2.8,17.5-4,35.7-2.5,53.5.3,4.1,2,9,2,13s.4,3.5-1.5,2.5-4.3-8.6-5-11c-5.7-19.8-2.7-41.5-4.6-61.9h-.3Z" class="outline" fill="#000000"/>
    </g>
</svg>