<?xml version="1.0" encoding="UTF-8"?>
<?xml-stylesheet type="text/css" href="../styles/semantic.css" ?>
<svg xmlns="http://www.w3.org/2000/svg" viewBox="0 0 2048 2048">
  <g class="trait-group" data-category="background" id="background-scanlines">
      <defs>
    <pattern id="scanline-pattern" x="0" y="0" width="4" height="4" patternUnits="userSpaceOnUse">
      <rect width="4" height="2" fill="#333333" opacity="0.3"/>
      <rect y="2" width="4" height="2" fill="#333333" opacity="0.1"/>
    </pattern>
    <radialGradient id="crt-glow" cx="50%" cy="50%" r="50%" fx="50%" fy="50%">
      <stop offset="0%" style="stop-color:#666666;stop-opacity:0"/>
      <stop offset="80%" style="stop-color:#444444;stop-opacity:0.3"/>
      <stop offset="100%" style="stop-color:#222222;stop-opacity:0.6"/>
    </radialGradient>
  </defs>
  <rect id="color-scanline-bg" class="color" width="2048" height="2048" fill="#222222"/>
  <rect id="color-scanline-glow" class="color" width="2048" height="2048" fill="url(#crt-glow)"/>
  <rect id="color-scanline-pattern" class="color" width="2048" height="2048" fill="url(#scanline-pattern)"/>
    </g><g class="trait-group" data-category="jaw" id="jaw-OG-cracked">
      <!-- Generator: Adobe Illustrator 29.1.0, SVG Export Plug-In . SVG Version: 2.1.0 Build 142)  -->
  <defs>
    
  </defs>
  <path id="fill-jaw" class="fill" d="M1396.7,1438.7c-6.7,4.3-46.8-1.7-48.7.3l-12.2,69.8-57.2,29.3-1.4,1.6c-1.5,11.9,1.5,24.2.9,35.9-.3,4.9-1.3,15-2.3,19.7-.6,2.8-13.7,32.2-15,33.5s-16.1,8.9-16.7,8.3l-9.5-50-51,52c-7.7,5.7-20.7,9.3-27.5,15.5-14,12.7-25.2,37.4-42.1,47.9-5.4,3.3-61.3,25.7-66.7,26.3-13.8,1.7-33-3.3-47.7.2-17.7-10.3-50.1-16.2-66.1-26.9-14.3-9.6-28.3-35.6-41.4-47.6-6.7-6.1-19.9-9.6-27.5-15.4l-51-52-9.6,48.4c-.6.9-.9,1.7-2.2,1.5-.8,0-13.8-7.6-14.4-8.2-1.4-1.4-15.9-33.3-16.2-35.3l-.5-54.4-58.2-30.3-12.3-69.7c-8.1-1.2-45.1,3.9-49.5-1l-37.1-85-.5-3.4,31.5-70.6c5.3-1.6,29.1,0,31.3-6.7.8-2.3-.6-19.5-1.3-22.4-2.2-8.4-16.2-24-19.8-33.2-.7-1.7-1.2-3.1-.6-5,4.7-11.3,10.3-22.3,14.1-34,7.3-22.4,7.2-42.6,16.9-65.1,47.5-110.2,188.9-176,299.9-200.1,44.7-9.7,79.8-1.5,122.7,11.2,98,28.9,222.6,97.5,259,199,6.8,19,7,38.1,13.5,57.5,3.8,11.2,10.1,22.1,13.7,33.4,0,1.4-8.3,16.4-9.8,19.1-2.4,4.3-9.7,13.4-10.7,17.3-1.8,6.8-.6,15.6-2.3,22.5,9.9,7.9,21.3,4.2,32.4,6.5,9.6,23.9,23.5,46,31.4,70.6-9.8,26.3-22.2,51.8-33.2,77.7-1.3,3-1.7,9.3-5.1,11.4h0Z" fill="#ffffff"/>
  <path id="shading-jaw" class="shading" d="M1380.8,1185.8c-.2.4-2.1.7-2.8,1.7-8.6,10.8-16.2,26-21,39-4.2,11.4-5.1,22.7-13,32-18.8,22.4-51.8,45.5-78.3,57.7-5.4,2.5-12.5,3.7-16.7,7.8h20.5c2.7,0,5.1,1.2,7.9,1.1,18.1-.2,64.4-19.8,77.5-32.6,5.7-5.5,14.1-15.7,15-23.5,1.8,0,.7,2.4,1.5,4,3.1,5.9,15.5,5.2,21.5,6,.2,1.6-1.5.7-2.3,2.2-4.6,8.3-4.4,21.6-10.6,28.3-7.5,8.1-37.1,13.5-48.8,17.2-14.5,4.6-29.8,8.8-42,18.1l-52.8-14.8c-19.3-2.3-9.9,15.4-5.3,25.3,5.2,11.3,20.7,40,30.4,46.6,11.9,8.2,22.7-10.2,30-17,6.3-6,16.2-11.8,24.6-14.4,17.7-5.6,32.3,4.7,50.5,5.4,17.4.8,34.6-7.7,48.8-17.2,3.6-2.4,14.6-13.9,17.2-13.8,1.7,0,3.3,6.1,1.8,7.8-10.1,24.3-21.6,48-31.8,72.2-3.7,8.8-.8,14-13,15-9.3.7-15.8-1-24.2-1.8-4.8-.4-11.8,2.5-17.3-.2l-12.9,70.6-59,30.5c.4,11,2.6,23.6,2,34.5-.3,5.7-1.3,15.4-2.1,20.9-.5,3.1-13.4,31.4-15.4,33.6-3,3.2-11.6,6.2-15.5,9-.8-4.9-2.7-10.6-3-15.5-.6-11.2,2-11.3-2.7-23.2-.4-1.1-1.9-1-2.2-2-.8-2.2-.8-6.7-1.1-9.2l-2.3.2-50.2,51.8c-7.7,5.2-19.5,8.7-26.5,14.5-14.2,11.7-24.4,36.1-41.5,47.5-6.7,4.5-54.2,25.7-61.2,26.8-9.9,1.5-51.8,1.6-61.5,0-6.9-1.2-49.7-20.5-57.3-24.7-15.8-8.9-30.2-37.8-44.4-49.6-6.9-5.7-19-9.3-26.5-14.5l-51-52c-1,8.1-7.3,16-8.1,24-.6,6.2.6,14.6-.3,21.6-.2,1.7-3,1.8-2.1,4.4-.6.7-14.6-8.1-15.5-9-1.7-1.8-15-30.8-15.4-33.6-.7-4.4-.9-13-1.1-17.9-.5-12.2.6-24.4.5-36.6l-58.5-31.4-13-69.5-48.8-.2-38-86.6.9-6.2c8.2.4,11.8,8.2,18.6,12.7,25.3,16.9,38.4,19.8,68.5,13.9,17.1-3.4,19.1-7.5,37.2.4,15.9,7,19,16.2,30.6,25.4,9.6,7.6,13.6,7.9,22-1s31.8-49.1,32.1-60c.2-8.7-6.4-8.1-13.3-7.2-8.6,1.1-48.4,15.1-51,14.6-1.7-.4-12.3-7.9-16.5-9.6-20.3-8.4-48.8-11.8-67.2-20.8-14.9-7.3-11.3-20.9-17.7-33.2-.9-1.6-2.5-.6-2.3-2.2,6.3-.9,17,0,21-5.5,1-1.4.3-3.7,2-3.5,3,11.7,15.2,23.9,25.1,30.4,21.2,13.8,50.4,23.7,75.4,23.5h20.5l-34.7-16.8c-19.1-10.8-48.2-33.1-61.8-50.2-6.2-7.8-7.1-18.3-10.5-27.5-6-16.6-14.4-32-25-46,1.3-9,6.5-19.6,7.8-28.2,1.9-12.9,1.8-19.5,6.5-32.5,36.4-101.1,159.2-169,256.8-198.2,49.9-15,102.4-18.2,153.2-5.2,103.5,26.4,242.6,100.3,277.2,208.8,3.4,10.5,3,17.3,4.8,27.2.8,4.7,8.9,28.4,7.6,30.6l-.5-.2ZM1195.9,1382.1c-32.3-16.1-63.1-35.3-95.9-50.7-17.5-18.7-37.4-36.6-54.6-55.4-4.8-5.3-11.2-16-16-20-3-2.6-7.4-3-10.6-.6-4.5,3.4-12.7,16.4-17.4,21.6-16.7,18.6-36.8,35.6-53.6,54.4-32.9,15.3-64,34.2-96,51.2-.6,2.8,12.4,35,14.6,40.3,2.9,7.1,12.1,31.7,16,36.1,7.1,8,36.5,26.3,47,33,19.8,12.7,36.1,22.9,59.3,28.7,27.3,6.8,39.7,7.1,67,.6s43-16.6,65.7-31.3c10.4-6.8,35.9-22.5,43.4-30.6,4-4.4,12.7-27.4,15.6-34.4,2.1-5.1,16.8-41,15.5-42.9M728.3,1496.7c1.6,2,8.2,6.3,10.7,7.8,14.7,8.8,31.8,13.8,46.9,23.1,16.8,10.2,40.2,33.1,59.6,33.5,2.3,0,8.7-1.2,9.4-3.7s-13.6-27.6-16.4-30.3c-7.3-7.1-27.5-17.2-37.2-23.8-15.2-10.3-50.3-39.1-67.9-39.2-10.5,0-8.7,28.1-5.1,32.7h0ZM1319.7,1466.3c-5.9-5.9-24.1,4.1-30.4,7.6-16.2,8.9-31,21.4-46.2,31.8-12.7,8.7-30.1,15.7-38.6,28.4-2.2,3.4-10.8,17.7-11.4,20.7-1.1,5.3,6.2,6.5,10.3,6.3,16-.9,23.4-9.7,35.2-17.8,9.2-6.3,19.3-13.6,29-19,11.7-6.6,47.1-19.2,52.7-29.3,2.4-4.3,2.8-25.2-.7-28.6h0ZM1126,1664c-12-2.7-20.7,6.6-31.6,7.9-5.7.7-12.2-1.2-16.6-.7-7.1.8-22.9,12.1-31.2,14.9-14.8,4.9-30.2,4.7-45.1,0-8.8-2.8-23.9-14.1-31.2-14.9-4.4-.5-10.9,1.4-16.6.7-11-1.3-19.9-11-31.6-7.4,0,6.9,23.8,23.5,30,27,12.5,7.1,59.8,26.8,72.5,26.6s59.9-19.8,72.2-26.9c10.3-6,24.6-16.2,29.3-27.2h-.1Z" fill="#aaaaaa" style="opacity: 0.5" opacity="0.5"/>
  <path id="outline-jaw" d="M676,1140c5.2-3.1,18.7-3.2,19.1,4.5,0,2.3-.8,11.2-1.1,14-.3,3-.9,8.4-2.1,10.9-2.5,4.9-17.3,13.6-20.1,19.9-1.2,2.6-6.4,25.9-6.7,29.3-.2,1.7,0,2.8.4,4.4,2.1,6.9,13.8,19.7,17.7,27.3,5.7,11,7.2,24.3,12,35s13.5,10.7,22.5,15.6,17.7,11.1,25.3,17.2c-3.1,0-6.3.2-9.4,0-7.7-.8-35.8-6.7-41.8-10-6.1-3.3-8.8-18.4-12.8-20.4-2.5-1.2-7,0-10.3-.7-6.7-1.2-9.9-7.8-17.5-1.5-6.7,12.4-14.3,24.3-20.4,37.1-7.4,15.4-14.8,25.1-4.8,41.2,5.2,8.4,23.4,27,25.6,34.4,2.5,8.4-2.4,27.4,2.4,33.6,5.4,6.9,20.6,5.2,27.7,1.7,11.1-5.5,9.2-10.1,14.9-19.1,5.3-8.3,20.9-24.3,30.4-26.7,7.7-1.9,12.3,10.3,14,16,4.9,15.9,2,31.2,13.9,44.1,1.1,1.2,9,8.5,10,7.5-.8-5.6,4.8-8.4,6.5-13,3-7.9-3.1-20.6-5-29-2.8-12.3-5.1-24.7-8-37-1-4.1-6.2-19.9-5.4-22.3,1.2-3.8,23.7-9.1,24.9-10.7.4-.5-2.9-8.7,0-12.6,1.3-1.8,8.8-6.8,11.1-8.9,3.9-3.5,23.1-22.9,25.7-23.4,4.4-.8,5.2,2.4,8,3.6,5.1,2.1,10.8,2.5,15.7,4.3,1.1.4,2.4.5,2.5,1.9-11.2,6.3-23.6,13-34.3,20.2-2.7,1.8-16.6,11.8-17.6,13.4-1.6,2.6-2.2,9.7-2.2,12.9l3,44.5c-9.8-13.1-8.1-31.3-10-47-2.5,1.9-15.3,3.5-15.9,5.6,4.5,18.6,8.6,38.8,15.1,56.7,7.3,20.1,19.2,40.4,27.7,60.3,11.1,7.8,27.2-5.8,33-15,5.6-8.7,8.1-23.6,22.5-13.5,11,7.7,22.9,21.4,33.5,30.5,48.3,41.3,92.1,59.6,157.4,50.3,40-5.7,69.7-25.7,99.7-51.3,6.2-5.3,32.4-31.5,37.5-32.5,11.9-2.2,14.8,13.8,21.4,21.5,7.4,8.7,17.4,14.2,29.1,12,4.4-.8,21.2-8.4,26.3-10.7,9.2-4.2,20.3-11.4,27.2-18.8,10.4-11.3,8.4-24,12-38,1.7-6.6,6.3-23.8,15.5-21.6,10.7,2.6,27.2,21,32.6,30.4,1.7,3,2.2,6.8,3.9,9.1,6.3,8.5,28.5,13.3,36,5.1,5.6-6.1.4-25.5,2.9-34.1s20.4-25.8,26-35c9.4-15.8.8-28.3-6.5-43.3-5.8-11.8-13.2-22.7-19.2-34.3-7.1-5.6-12.2.4-18.5,1.5-2.9.5-6.9-.4-9.3.7-3,1.4-6.8,14.4-9.5,17.5-1.4,1.6-7.6,4.3-9.9,5.1-8,2.8-25.7,6.6-34.3,7.7-3.4.4-6.8.2-10.2.2,6.6-5.5,15.7-12,23.3-16.2,11.5-6.3,19.8-5.1,25.5-19.5,3.9-9.8,5.3-20.7,10.3-30.7,3.9-7.7,16.9-22.6,18.7-29.4.4-1.7.2-2.8,0-4.5-.6-4.4-5.6-25.6-7.2-28.8-3.7-7.3-19-15.9-20.5-21.5-.8-3.2-2.6-24.3-1.6-26.4,2.1-4.5,12.7-3.4,16.5-1,.5,1.9,4.4,14,5,14.5,6.2,5.3,26.1,4.1,26.1,17s-1.7,15.9.2,26.7c1.7,9.8,9.7,22.5,6.4,31-2.3,6-12,20.9-15.9,27.1-3.6,5.6-8.1,10.6-11.8,16.2,8.8.3,18.9-17.9,26.1-12.1,3.4,2.8,13.7,18.6,16.7,23.3,5.1,7.9,10.9,17.6,15.1,25.9,3.9,7.8,17.4,38.8,16.1,45.8-.2,1.2-13,15.6-15.2,18.8-10,14.2-21.3,32.5-25.7,49.3-1.9,7.2-2.7,14.7-4,22-1,1.4-27.6,11.9-31.1,12.9-10,2.9-17.2,1.5-24.9-5.4-.9,8.8-2.6,17.7-3,26.5s1.7,33.1-.8,39.2c-.6,1.5-11.3,15-12.5,15.5-6.3,3-15.7-1.7-24.7,3.3-22.6,12.7-18.8,48.5-26.9,68.1-6,14.6-40.4,52.5-54.6,59.4-1.2.6-2,1.3-3.6.9,1.2-14.7,3-35.1-3.9-48.6-.4-.8-.4-3.2-2.1-1.4-.7.7-3.6,13.8-6.6,17.9-8.6,11.7-30.9,6.8-39.2,20.8-5.2,8.9-7.6,22.3-13.4,30.6s-48.5,28.9-59.6,33.4c-15.1,6.1-64.1,21.2-78.8,21.2s-63.4-15.1-78.8-21.2c-11.1-4.4-55.3-26-60.6-34.4-6.9-11.1-8.5-31.6-21.5-37.6-14.4-6.6-26.5-2.6-33.9-20.1-1.1-2.5-2.5-10.3-2.8-10.7-1.3-1.6-1.8.4-2.2,1.3-1,1.8-4.8,14.6-4.8,16.2v30c0,.3,1.4,1.4,1,2.5-1.7.2-3-.3-4.4-1.1-15.2-8.7-49.8-45.6-54.8-62.2-6.2-20.6-5.2-52.1-25.9-65.1-8.2-5.2-18.3-.3-24.7-3.3-.9-.4-12.2-14.2-12.7-15.3-2.1-5.2-.2-29.6-.5-37.4-.4-9.1-2-18.5-3-27.5-4,1.6-7.6,4.7-11.9,5.6-2.8.6-5.6.7-8.5.3l-35.7-14.3c-1.5-7.3-2.1-14.8-4-22-4.3-16.8-16.4-36.3-26.5-50.5-2.2-3-13.9-15.8-14.2-16.8-1.1-3.6.8-8.3,1.8-11.8,5-18.6,17.3-42.1,27.6-58.4,2.5-4,17.5-26.2,20.1-26.9,6.2-1.8,15.2,12.1,22.3,12.8.7-.7-9.3-13.3-10.4-15.1-4-6.2-14.5-22.3-16.8-28.2-2.7-7.1,5.4-22.1,6.9-30.5,1.9-10,.2-18.4,1.3-27.7,1.2-11,17.6-11.6,25.8-15.7,2.1-4.7,2-9.6,3.2-14.8h.4v-.2ZM799,1627.5v-20c0-3.5,9.1-26.6,11.7-27.4,6.9-2.2,27.9,17.6,32.8,22.9,7.6,8.1,14.7,20,23,27,10.5,8.8,23.6,12.8,33.5,23.6,22.2,24.2,21.6,36,55.1,50.9,29.5,13.1,59.4,23.9,92.4,17.4,12.7-2.5,58.9-21.3,68.9-29.1,12.4-9.6,23.1-31.8,35.2-42.8,9.6-8.8,25.5-14.6,34.6-23.4,6-5.9,12.7-15.8,18.4-22.6,2.8-3.3,8.4-7.2,10.3-10.7,4.4-8.2,10.5-40.4,10.3-49.8-.3-12.5-3.5-25.3-4.2-37.8-17.1-12.8-20.5-.4-31.4,9.3-16.5,14.9-41.1,22.8-63,25-69.4,7-135.6,7-205,0-22-2.2-46.4-9.9-63-25-7-6.3-10.5-15.9-22-15.1-3.7.3-6,3.1-8.5,3.7-4.9,1-22.9-12.7-28.3-15.8-18.4-10.2-46.1-20.5-61.1-34.9-6.9-6.6-2.4-11.8-2.5-19.5s-3.8-23.4-6.8-30.2c-.5-1.1.2-1.5-1.7-1.3-9.4,1.3-19,20.2-19.3,28.8-.2,6.3,6.7,18.5,7.6,26.9,1.5,13.9-4.4,40.4,8.8,49.2,12.8,8.6,39.9,13.7,50.8,26.2,5.7,6.6,1.5,7.9.7,14.6-3.6,29.6,1.4,55.9,20.9,78.9.5.6,3.9,4,2,1h-.2ZM1248,1630c19.4-21.2,26.1-39.8,25-68.5-.3-7.8-4-21.4,0-27.8,4-6.1,20.2-13.6,27.2-16.8,15.2-7.1,31-7,32.7-27.3,1.3-14.8-1.6-26.3,2.5-41.5,3.4-12.7,7.8-13.2,2.5-27.5-2.8-7.7-9.2-17.6-18-18.4-5.5,13.3-7.4,26.1-7,40.5,0,3,2.2,4.9,0,8.1-1.5,2.2-16.5,12.2-19.8,14.2-9.2,5.7-59,28.5-60.9,35.1-2.7,9.4,7.3,31.3,8.6,41.6l-10,40.5c2.4-1.4,5-2.6,7.9-1.9,6.7,16.4,13.1,31.6,9.1,49.9v-.2h.2ZM780,1448c-2-1.4-5.5,2.6-5.8,4.7-.9,5,7.2,15.1,12.8,15.2-.9-2.6-6.1-19.4-7-20h0Z" class="outline" fill="#000000"/>
    </g><g class="trait-group" data-category="mouth" id="mouth-jaws">
      <path id="fill-mouth-main" fill="#ffffff" d="M1102 1287c.4.6-2.2 4.3 0 5.5 50.4 27.6 100.7 55.4 145.8 91.1-5.2 15.8-10.4 31.6-16.7 47.1-5.9 14.4-8.3 22.4-12.7 37.3-13 44.8-25.3 89.9-38.3 134.7-3.4 15.6 7.3 31.3 8.8 45.8.5 5.4-1.6 24.6-3.1 29.9-2.4 8.9-12.3 10.5-19.9 15.1-23.1 14.2-44 33.8-68.7 45.3-38.6 17.9-94.7 18.9-134.6 4.9-30.8-10.8-53.7-33.5-80.8-50.2-5.6-3.4-16.3-6.9-18.8-12.2-2.2-4.7-4.6-27.2-4.1-32.9 1.2-14.4 12.1-30.2 8.8-45.8-13.8-47.4-26.5-95.2-40.5-142.5-3.7-12.4-5.6-17.8-10.5-29.5-6.4-15.4-11.4-31.2-16.7-47.1 45.2-35.6 95.4-63.7 145.8-91.1 2.2-1.2-.5-4.8 0-5.5.2-.2 3.4-1.1 4.7-1.9 25.5-15.1 52.3-31 83.7-27.1 24.4 3.1 42.7 15.5 62.9 27.1 1.2.7 4.5 1.7 4.7 1.9h.2Z" class="fill" data-original-prefix="fill"/><path id="fill-mouth-teeth13" fill="#ffffff" d="m1042 1510-1.9 71.5c-.9 11.5-1.7 23.4-2.1 34.9-.2 7.7 1.3 20.2 0 27-.5 2.5-12.9 11.6-14.3 11.4-1.2-.2-13.2-8.9-13.7-11.4-.2-44.5-3.3-88.9-4-133.5l17.6 16.9 18.3-16.9Z" class="fill" data-original-prefix="fill"/><path id="fill-mouth-teeth12" fill="#ffffff" d="m1000 1637-20-15.5c-1.8-.5-2.8-4.4-3-4.5-.8-.5-3 3.8-5 3-.4-20.5-.2-41.1-1-61.5s-2.9-41.1-2.5-61.4l11-14c3 4.2 18.8 16.6 19.2 20.6.4 3.5-.9 11.2-.8 15.9.8 20.4 1.8 41.5 2.1 61.9.2 18.5-.2 37 0 55.5" class="fill" data-original-prefix="fill"/><path id="fill-mouth-teeth11" fill="#ffffff" d="M1076 1620c-2 .8-4.2-3.5-5-3-.2.2-1.2 4.1-3 4.5l-20 15.5c.2-18.5-.3-37 0-55.5.2-20.4 1.3-41.5 2.1-61.9.2-4.7-1.2-12.4-.8-15.9.4-4 16.2-16.4 19.2-20.6 2.1 3.9 9.5 10.8 11 14 1.8 3.8-1.3 28.2-1.5 34.4-.3 9-.7 18.1-1 27-.7 20.5-.6 41.1-1 61.5" class="fill" data-original-prefix="fill"/><path id="fill-mouth-teeth10" fill="#ffffff" d="M1114 1651c-3.8-.4-4.7-3.2-5-6.4-1.4-14.4 1.7-35 2.1-50 .6-21.9 0-43.7 2-65.5 3.3.2 4.2 1.9 7.1-.4 6.2-5.1 13.2-22.1 19.9-28.8s2.8-2 3-1.8l-9.1 120.4-20 32.6Z" class="fill" data-original-prefix="fill"/><path id="fill-mouth-teeth9" fill="#ffffff" d="M907.7 1499.3c7 6.2 13.8 23.9 20.3 29.2 2.9 2.4 3.8.6 7.1.4 1.5 10.5.6 21 1 31.5.7 20.9 1.5 42 2 63 .2 5.8 4.1 25-2.5 27.4-1.7.6-6.8-10-8.5-11.4l-12.9-21.1c-3.3-40.1-5.6-80.4-9-120.4 0 0 2.2 1 2.7 1.3h-.2Z" class="fill" data-original-prefix="fill"/><path id="fill-mouth-teeth8" fill="#ffffff" d="M903 1601c-7.1-6.3-5.5-23.9-18-13l-17-142c10.4 12.2 19 26.1 28 39.5 1.9 38.5 3.8 77.1 7 115.5" class="fill" data-original-prefix="fill"/><path id="fill-mouth-teeth7" fill="#ffffff" d="M1163 1588c-12.5-10.9-10.9 6.7-18 13l4-51.5 3.1-63.9c8.9-13.4 17.5-27.3 27.9-39.5l-17 142Z" class="fill" data-original-prefix="fill"/><path id="fill-mouth-teeth6" fill="#ffffff" d="M963 1507c-.7 40.2 2 80.1 2 120.3-1.9 1.4-17.9 15-19 13.7.9-38.3-2.3-76.2-2-114.5l15.4-18.6z" class="fill" data-original-prefix="fill"/><path id="fill-mouth-teeth5" fill="#ffffff" d="M1102 1641c-1.1 1.3-17.1-12.3-19-13.7.4-22.3.5-44.6 1-66.8 0-2.4 1-4.6 1.1-6.9.3-15.5-.3-31.1 0-46.5l3.6.9 15.4 18.6c.3 38.2-2.9 76.2-2 114.5Z" class="fill" data-original-prefix="fill"/><path id="fill-mouth-teeth4" fill="#ffffff" d="M875 1581c-1.5.2-1.3-1.7-1.7-2.8-3-8.8-6.1-18.6-8.6-27.4-10.7-37.7-11.6-78.6-17.8-117.3 0-3.9 3-6.9 5.6-9.5 3.4 3.5 5.8 6.6 6.4 11.6 1.2 10.1 1 21.5 2.1 31.9 3.8 35.2 11.2 72.2 14 107 .2 2.2 0 4.3 0 6.5" class="fill" data-original-prefix="fill"/><path id="fill-mouth-teeth3" fill="#ffffff" d="M1172 1580c6.3-40.6 11.8-81.6 16-122.5 1.2-11.5-1.6-25.4 7.5-33.5 2.6 2.6 5.7 5.5 5.6 9.5-7.6 47.5-8 99-26.1 144-.6 1.6-.8 2.9-3 2.5" class="fill" data-original-prefix="fill"/><path id="fill-mouth-teeth2" fill="#ffffff" d="m843 1439 4 53-5.7-15.8c-1-7.8-7.5-23.8-4.4-30.8.5-1.1 2.9-4.1 3.8-5.2.6-.7 0-1.9 2.3-1.3Z" class="fill" data-original-prefix="fill"/><path id="fill-mouth-teeth1" fill="#ffffff" d="M1207 1439c.3.3 4.7 7.3 4.8 7.7 1.3 4.9-3.4 23.5-5 29.5l-5.7 15.8 4-52.5c0-.9 1.9-.6 2-.5z" class="fill" data-original-prefix="fill"/><path id="shading-mouth4" fill="#aaaaaa" d="m900 1319-56.5 57-14 16c-1.9 4.1 3.2 15.8 2.5 21 4.2-1.8 14.7-13.4 18.4-13.1 4 .3 8.8 14.9 10.3 18.8 2.5 6.3 4.5 12.8 6.8 19.2 18.7 24.5 38.6 48.2 57.4 72.6 3.8 5 3.2 9.2 10.1 7 3.2-1 13.7-10.2 17-13 10.5-9 19.8-20 30.5-28.6l41.1 41 41.9-41c13.1 10.8 24.4 24.6 38 35 3.2 2.5 10.4 9 14.5 6.5l61.8-79.2c3.6-6.3 11.7-36.7 16.9-38.2 4.6-1.3 17.3 14.1 19.3 11.9-.8-5.2 4.4-15.8 2.5-20-20.7-25.2-46.1-46.1-68-70-.7-.7-2.7-2-2-3 34.5 16.7 65.1 39.8 96 62 2.5 5.1-7.2 33.5-9.8 40.2-2.7 7.3-6.2 13.8-9.2 20.8-3.2 7.3-3.5 21.2-14.5 14l-8.5 50-2.5 1c-.2-19.8 1.9-39.7 4-59.4-2-4.9-6.9-13.6-8.8-3.8-4 21.5-4.5 48.2-7.4 70.6-3.6 28-8.2 56-12 84-2 14.9-3.3 16.2 1.9 31.4 1.3 3.8 7.2 14.6 7.4 16.7s-6.3 26.7-7.6 29.5c-2.4 5.5-34.3 27-41.2 30.8-23.5 12.8-65.3 23.2-92 27-44.3 6.3-112.7-12.8-149.7-38-4.2-2.9-22.5-15.7-24.1-18.9-1.2-2.3-7.8-28.2-7.7-30.4 0-2.1 7-16.2 8.3-20.7 4-13.7 2.7-13.4.9-26.4-7.5-52.8-15.1-105.5-20.4-158.6-2.2-5.2-7.7 4.9-7.9 7.8 2.1 19.4 4 39 4.1 58.5h-3l-8-51c-11.6 7.2-11.3-6.6-14.5-14-5.7-13.3-11.5-25.2-15.5-39.5-1.5-5.2-6.1-18.6-2.5-22.6 31.2-21.3 60.9-45.2 95.5-60.9zm-34.5 137v1c.7-.3.7-.7 0-1m315.5 1c-3.8 9.4-17.3 19.9-21.1 28.4-3.4 7.8-1.6 20.7-3.9 29.1l-3 60c.6 3 10.1 7.9 13.4 8.4zm-286.2 118.8c-1.8-29.7-2.2-59.6-6.1-89.1-7.3-9.7-14.3-20.1-22.7-28.8l14 125c6 0 10-4.5 14.8-7.2ZM995 1627c-.8-15.5-.4-31.1-1-46.5-.7-20.6-1.2-43.5-3-63.9-.3-3.6-.4-13.4-4.5-13.5-2.5 0-20 10.7-20.5 13.5 2.4 20.6 1.2 41.4 1.9 62 .2 6.2.6 13.8 1.1 19.9s3 12.8 2 19.5l5.4-5c1.5 2.2 17 15.7 18.6 14m82-10c-.8-6.9 1.6-13.7 2.1-20.4 1.1-17.4.3-35.7.9-53.1.3-8.7 2-18.1 2-26.9s-1-2.1-2-3c-2.2-1.8-17.3-10.9-19.3-10.4-2.9.7-3.4 7.6-3.7 10.4-3.3 35.8-2.8 74-4 110 0 1.4 0 2.9-1 4 5.2.7 17.8-14.1 19.5-14.5 2.3-.5 2.5 4.7 5.4 4Zm-146 17c-1.9-32.1-.2-64.4-2-96.5l-26-32.5c2.8 32.1 2.9 64.2 5 96.4 6.9 11.3 14.5 22.3 23 32.5Zm187 0 22-32.5c1.9-32.2 2-64.3 5-96.4l-26 32.5c-2 25.3-.4 50.7-1 76-.2 5.9-1.4 11.5-1 18 0 1.1-.7 2.8 1 2.5Zm-175 2c.8.8 16.4-9.7 17.5-11 .7-.8 1.5-1.4 1.4-2.6-.7-33.9-2.5-67.6-4-101.5-3.4 2.4-16.3 10.2-17 13.5-.2 33.9 0 67.8 2 101.5Zm101-115c-4.9 2.7-10.4 10.7-15.7 11.8-11.9 2.5-16.1-5.4-24.3-11.8 1.3 37.5 2.3 74.9 2 112.5.8 4 14.2 9.4 17.7 12.4 3.7-2.5 17.6-8.6 18.3-12.4-.2-37.6.2-75.1 2-112.5m61 115c1.6-33.8 2.3-67.6 2-101.5-.7-3.7-13.7-10.5-17-13.5-1.8 33.8-3.7 67.5-4 101.5.2 2.9 18.2 14.4 19 13.5m-167.3 18.7c-1 .9-2.6 1.5-4 1.2-3.8-1-23-30.3-27.3-35.8L895 1607c-.4 4.4-1.3 8.8-2.5 13-1.6 5.4-8.4 19.9-8.6 23.5 0 2.9 4.5 19.8 5.8 23.3.7 1.9 1 3.9 2.9 5.1 29 14.8 52.4 35.8 84.2 44.8 31.1 8.9 64.2 8.8 95.2-.2 31.6-9.2 55.5-30.5 84.3-45.4.8-.4.9-1.2 1.2-2 1.2-3 6.7-24.2 6.5-26.5-.3-3.3-5.8-13.4-7.3-17.8-1.8-5.8-3.1-11.8-4.2-17.8-2.2 3.1-5.1 5.6-7.5 8.5-8.8 10.8-17.2 26.4-26.1 35.9-1.6 1.8-3.2 3.6-5.6 4.3l-43.7-28.7c-4.3 3.6-8.6 8.8-13.3 11.7-8.2 5.1-15 6.1-23.4 13.6-2.3 2.1-3 5.8-6.5 6.5-8.1 1.6-7.3-2.8-11.5-6.4-7.2-6.1-10.9-7.5-18.9-11.1-6.3-2.8-12.3-10-17.6-14.4-12.8 7.9-26.2 15.6-38.3 24.5-1.3.9-1.6 2.5-2.3 3.1v.2Z" class="outline shading" data-original-prefix="shading" opacity="0.5" style="opacity: 0.5"/><path id="shading-mouth3" fill="#aaaaaa" d="M1118 1345c-1.5 1.5-1.8-.6-2.3-1.3-1.8-2.3-6.1-7.1-7.1-8.8-1.8-3.2-.9-7.3-2.6-9.4-2-2.4-11.1-9.6-14.1-11.9-17.8-13.8-38.6-25.3-56-40-3.6-5.4 6-7.7 4.1-13.6.4-.4 8.3 1.9 9 2.5 1.9 1.6 0 5.2 2 7l68.4 49.6c2.9 2.8-.3 24.8-1.4 25.9" class="outline shading" data-original-prefix="shading" opacity="0.5" style="opacity: 0.5"/><path id="shading-mouth2" fill="#aaaaaa" d="M1008 1260c-2.1 5.5 7.8 8.5 4.1 13.6l-61.1 43.9c-10.3 7.3-11.1 16.5-18.7 26.2-.5.7-.7 2.7-2.3 1.3-1.1-1-5.1-24.3-1-26.5l68-49c2-1.9 0-5.2 2-7 1-.9 8.7-2.9 9-2.5" class="outline shading" data-original-prefix="shading" opacity="0.5" style="opacity: 0.5"/><path id="shading-mouth1" fill="#aaaaaa" d="M1011 1355c1.1 4.6-4.9 8.9-3.6 13 1.1 3.3 13.8 10.8 16.2 14.9 1.2.2 16.5-14.1 17-15.9 1-3.6-5.2-7.6-3.6-12 6.9-2.5 17.3 6.5 15.8 13.3-.8 3.8-7.8 10.3-10.8 13.2-6 5.9-6.9 4.1-10.8 12.2-1.9 3.9-5.9 3.9-9.8 3.3-5.8-.8-4.3-4.3-6.4-7.6-4.4-6.7-23.9-15.6-19.3-26.2 2.2-4.9 9.7-10.1 15.2-8.2Z" class="outline shading" data-original-prefix="shading" opacity="0.5" style="opacity: 0.5"/><path id="outline-mouth" fill="#000000" d="M1006 1260c.4-2.1 4.7-6.2 6.5-7 2.2-1 1.8 3.9 2.5 5l-.5 19c-9.8 6.8-19.7 13.6-29 21-10.5 8.4-26.4 21.1-35.5 30.4-3.6 3.7-.7 4.6 2.7 7.3 14.2 11.7 34.2 18.3 52.3 20.2 1.2 1.2-6.6 10.7-4.8 13.8l23.5 23.1c1.5.3 18.4-18.6 21.4-21.5.8-.8 2.6-1.3 2.8-1.6 1.8-3.1-6-12.7-4.8-13.8 18.1-1.9 38.1-8.5 52.3-20.2 3.3-2.8 6.3-3.7 2.7-7.3-9.1-9.4-25-22-35.6-30.4-9.3-7.4-19.2-14.2-29-21-1.1-1.8-.6-15.7-.5-19 0-1.1-.9-6 1.5-5 2.1.9 6.1 6.1 7.5 7-1.8 1-1 3.4-.5 5 3.8 10.3 55.3 44.8 67.4 54.6 1.8 1.5 8 6 8.6 7.4 2.3 5.4-.6 18.1-.5 24.5 0 4.3 3.4 17.4 1.1 20-1 1.1-12.4 6.6-15.3 8.7-15.1 10.7-26.8 28.3-34.7 44.8-1.5.4-1.7-.4-2.5-1-5.2-3.6-23.3-26.5-26.1-26.9-5.3 3.9-11.8 6.3-12.4 13.4-1.2 13 1 27.8 0 41.1l3.1 42.5 34.4-35.1 2.9-.9c13.6 15 26.1 31.3 40.1 46 1.3 1.4 9.3 10.1 10.5 9 3.5-11.2 11.6-21.6 18.2-31.3 19-27.8 40.6-53.8 59.3-81.7.8-.7.7-1.5 1.5-.4 7.1 9.4 13.4 20.9 20.5 30.4l17.6-43.4-157.1-108.6 2-3c36.8 19.5 75.4 39.4 110.9 61.6 21.2 13.3 40.5 29.5 61.9 42.6.6 1.1.2 2.9 0 4.2-.7 7.6-9.9 31.6-13.2 39.9s-7.1 16.1-11 24l-44.5 161.6c.4 12.4 9.3 27.7 9.8 39.7.3 6.8-1.7 25-3.2 31.9-.4 2.2-1.7 6.3-3 8-1.2 1.6-15.8 8.4-19.4 10.6-24.6 15-45.2 35.2-72.5 46.5-40.8 16.9-104 16.8-144.7-.3-27-11.3-47.4-31.4-71.8-46.2-3.6-2.2-18.2-9.1-19.4-10.6-1.3-1.7-2.6-5.8-3-8-1.4-6.9-3.5-25.1-3.2-31.9.6-12.2 9-27.1 9.8-39.7-13.1-46.2-25.7-92.7-39.3-138.8-2.2-7.3-3.2-16.5-5.7-23.3s-7.5-14.1-10.5-21.5c-5.5-13.7-9.1-28.1-14.2-41.9-.3-1.7 0-3.3 1.4-4.4 24.1-15.7 46.6-33.8 71.2-48.8 32.3-19.7 66.7-38.2 100.3-55.2l3 3-157.1 108.6 17.6 43.4c7.1-9.6 13.4-21 20.5-30.4.8-1.1.7-.3 1.5.4 18.8 27.9 40.3 53.9 59.3 81.7 6.6 9.7 14.7 20.2 18.2 31.3 1.2 1.1 9.2-7.6 10.5-9 14-14.6 26.5-30.9 40.1-46l2.9.9 34.4 35.1 3-42.5c-1-13.2 1.2-28.1 0-41.1-.7-7.1-7.1-9.5-12.4-13.4-2.8.5-21 23.4-26.1 26.9-.8.6-1 1.4-2.5 1-7.8-16.5-19.6-34.1-34.7-44.8-3-2.1-14.3-7.5-15.3-8.7-2.3-2.6 1-15.7 1.1-20 0-6.4-2.8-19.1-.5-24.5.6-1.5 6.8-5.9 8.6-7.4 11-9 62.9-44.3 66.1-52.9 1.1-2.8.4-4.5.8-6.7zm-131 321c0-2.1.2-4.3 0-6.5-2.8-34.8-10.2-71.8-14-107-1.1-10.4-.9-21.8-2.1-31.9-.6-5-3-8.1-6.4-11.6-2.6 2.6-5.7 5.5-5.6 9.5 6.2 38.7 7.2 79.6 17.8 117.3 2.5 8.9 5.6 18.7 8.6 27.4.4 1.1.2 3 1.7 2.8m297-1c2.2.4 2.4-1 3-2.5 18.1-45 18.6-96.5 26.1-144 0-3.9-3-6.9-5.6-9.5-9.1 8.1-6.3 22-7.5 33.5-4.2 40.9-9.7 81.9-16 122.5m-329-141c-2.3-.6-1.7.6-2.3 1.3-.9 1.1-3.3 4.1-3.8 5.2-3.1 7 3.3 23 4.4 30.8l5.7 15.8-4-53Zm364 0s-2.1-.4-2 .5l-4 52.5 5.7-15.8c1.6-5.9 6.4-24.5 5-29.5 0-.4-4.4-7.4-4.8-7.7zm-304 162c-3.2-38.4-5.1-76.9-7-115.5-8.9-13.4-17.5-27.3-28-39.5l17 142c12.5-10.9 10.9 6.7 18 13m260-13 17-142c-10.4 12.2-19 26.1-27.9 39.5l-3.1 63.9-4 51.5c7.1-6.3 5.5-23.9 18-13Zm-163 49c-.2-18.5.3-37 0-55.5-.2-20.4-1.3-41.5-2.1-61.9-.2-4.7 1.2-12.4.8-15.9-.5-4-16.2-16.4-19.2-20.6l-11 14c-.3 20.3 1.8 41.1 2.5 61.4s.6 41.1 1 61.5c2 .8 4.2-3.5 5-3 .2.2 1.2 4.1 3 4.5zm76-17c.4-20.5.2-41.1 1-61.5.3-8.9.7-18 1-27 .2-6.2 3.3-30.6 1.5-34.4-1.5-3.2-8.9-10.1-11-14-3 4.2-18.8 16.6-19.2 20.6-.4 3.5.9 11.2.8 15.9-.8 20.4-1.8 41.5-2.1 61.9-.2 18.5.2 37 0 55.5l20-15.5c1.8-.5 2.8-4.4 3-4.5.8-.5 3 3.8 5 3m-168.3-120.7c-.4-.4-2.6-1.5-2.7-1.3 3.4 40.1 5.8 80.3 9 120.4l12.9 21.1c1.7 1.4 6.8 12.1 8.5 11.4 6.6-2.4 2.7-21.7 2.5-27.4-.5-21-1.3-42.1-2-63-.4-10.5.5-21.1-1-31.5-3.3.2-4.2 1.9-7.1-.4-6.5-5.3-13.2-23-20.3-29.2h.2ZM1114 1651l20-32.6 9.1-120.4c-.2-.3-2.5 1.3-3 1.8-6.8 6.7-13.7 23.7-19.9 28.8-2.9 2.4-3.8.6-7.1.4-1.9 21.8-1.3 43.7-2 65.5-.4 15-3.5 35.6-2.1 50 .3 3.2 1.2 6 5 6.4Zm-151-144-3.6.9-15.4 18.6c-.3 38.2 2.9 76.2 2 114.5 1.1 1.3 17.1-12.3 19-13.7 0-40.2-2.7-80.1-2-120.3m139 134c-.9-38.3 2.3-76.2 2-114.5l-15.4-18.6-3.6-.9c-.3 15.5.4 31 0 46.5 0 2.4-1 4.6-1.1 6.9-.5 22.3-.6 44.6-1 66.8 1.9 1.4 17.9 15 19 13.7Zm-60-131-18.3 16.9-17.6-16.9c.7 44.6 3.8 88.9 4 133.5.4 2.5 12.5 11.2 13.7 11.4 1.4.2 13.8-8.9 14.3-11.4 1.3-6.8-.3-19.3 0-27 .4-11.5 1.2-23.4 2.1-34.9l1.9-71.5h-.1Zm-112.9 165.9-39.6-64.9c-2.7 4.3-15.7 16.7-16.5 20.5-.5 2.3 0 6.3 0 8.8.5 6.2 3.4 24.2 5.1 29.9 2.2 7.3 14 10.2 20.1 13.9 44.8 27.9 79.7 46.3 135.2 43.8 47.1-2.2 77.9-20 116.2-43.8 6.1-3.8 17.8-6.6 20.1-13.9 1.7-5.7 4.6-23.7 5.1-29.9.2-2.5.6-6.5 0-8.8-.7-3.8-13.8-16.2-16.5-20.5l-40.1 65.1-48.9-32.8-45.1 37.7-45.8-37.7c-6.8 2.2-46.8 34.1-49.4 32.6Z" data-original-prefix="outline" class="outline"/>
    </g><g class="trait-group" data-category="eyes" id="eyes-aviators">
      <!-- Semantic Classes:
    - fill: Areas that can be colored by the user (default: white)
    - shading: Areas that provide depth/shading (default: gray, 50% opacity)
    - outline: Lines that define the shape (default: black)
  -->
  
  
  <path id="fill-eyes-main" d="M1421.5,1220.6c-.3.6-8.8,2-10.4,2.1-4.8.4-15.8-1.8-18,3-2.8,30-4.2,58.5-16.7,86.3-10.3,23-35.2,57.7-58.2,68.8-30,14.6-98,10-129.5-.9-21.7-7.5-62.4-49.9-79.2-67.8-14.7-15.6-36.7-38.2-49-55-2.3-3.1-2.7-8.1-3-8.5-1-1-6.2,1.2-7.9.5-.6-.3-9.2-8-10-9-4.5-5.8-2.4-10.3-12.6-9.6-6.6.5-5.5,5.8-9.5,10.5-.9,1-8.4,7.8-8.9,8-4,1.5-8.1-3.5-15.1,4-18.2,19.5-35.3,41.4-53.9,61.1-19.6,20.7-56.2,59.4-82.8,67.2-31.3,9.1-92.1,13.6-121.9.5-28.7-12.7-59.2-59.7-67.8-89.2-6.3-21.6-6.6-45.2-9.7-67.3-2-3.1-15.1-2.3-19.2-2.8-1.7-.2-7.5-1.2-8.4-2.1-2.5-2.5-2.8-27.2-4.3-32.3-.2-1.4.3-1.4,1.3-1.8,5.7-2.5,20.8-1.6,25.3-5.7,6-11.4,9.3-26.8,19.4-35.6,2.6-2.2,6.7-2.1,4.6-5.5-2.7-4.3-20,0-21.5-7.5-1.3-6.8,5.7-32,8-39.9,7.8-26.3,27.3-70.8,46.9-90.1,6.5-6.4,7.6-3.2,14.5-4.5,3.3-.6,5.3-6.7,7.5-9.5,40.7-50.5,92.3-93.3,151.6-120.4,80.5-36.8,209.6-37,290-.3,59.2,27,110.4,69.5,151.3,119.7,2.3,2.8,5.7,9.9,8.6,10.5,7.2,1.4,8.7-2.3,15.5,4.5,24.3,24,47.4,83.1,53.5,116.5.6,3.2,2,10.7,1.4,13.5-1.6,8.2-20.9,1.9-22.8,8.2-1.9,6.2,5.4,12.9,8.3,18.3,2.4,4.4,8.1,20.4,9.9,22.1,4.7,4.2,23.9,4.2,25.1,5.9,1.8,11.6-1.8,22.9-2.4,34.1" class="fill" fill="#ffffff"/>
  <path id="fill-eyes-rims" d="M1415.7,1206.8c-.2-3-.4-6.1-.6-9.1-.3-5.7-4.5-10.5-10.5-10.5h-6.3c-1.2,0-2.4.2-3.4.5-.9-.3-1.9-.6-2.9-.8-2.3-.3-4.7-.3-7.1,0,2-23.3-16.1-42.7-36.1-51.8-11-5-22.6-8-34.3-11.1-12.5-3.2-24.9-6.7-37.4-9.7-8.8-2.2-17.6-3.5-26.5-4.3,2.5-6.2-.6-14.9-9.3-14.9-85.4,0-170.8.3-256.2.4h-68.7c-1-.3-2.2-.5-3.5-.5h-104.7c-9.6,0-12.4,10.7-8.3,16.8-10.3,1.4-20.6,3.2-30.8,5.2-24.8,4.8-50.1,10.3-72.3,22.8-11.9,6.7-23.7,15.6-30.8,27.5-2.9,4.9-4.7,10.2-5.6,15.7-1.1-.2-2.3-.4-3.6-.3-3.6.2-6.7,2.1-8.5,4.8-1.5-.2-2.9,0-4.3.2-2.5-1.2-5.4-1.6-7.8-1-6,1.7-8.2,7.3-7.3,12.9.7,4.2,1.3,8.4,1.9,12.7.7,4.6,5.9,7.6,10.1,7.7h3.6c3.3,1.9,5.7,5,7.4,8.5,1.3,2.7,3.9,4.3,6.7,4.9,4.4,36.9,9.5,75.8,31.7,106.7,21.4,29.8,54.4,44.8,90.2,48.7,18.6,2,37.9,1.2,56-3.7,16.9-4.5,32.8-12.5,47.3-22.2,14.8-9.9,28.4-21.5,41.3-33.7s25.6-24.8,36.6-38.7c12.9-16.2,23.6-34,29.3-54,5-17.3,6.2-35.5,4.1-53.3,14.6-1.9,29.3-3.3,44-2.5,4,.2,8,.6,12,1.3.3,0,1.7.3,3.2.7l-1.4,29.7c-.2,3.2.9,5.6,2.6,7.2,2.2,11.9,4.2,24.9,10,35.4,3.2,5.7,7.2,11.1,10.9,16.5,2.2,3.3,4.4,7,6.9,10.4,0,1.6.5,3.2,1.5,4.6,10.8,14.4,24.5,25.8,37.8,37.7,13.4,12,26.5,24.7,41.2,35.2,27,19.4,60.3,29.7,93.5,29.9,2.9,0,5.2-.9,6.9-2.5,15.4-1.6,31-3.4,45.7-8.6,16.6-5.8,29.9-15.5,40.5-29.5,21.2-28,34.4-62.2,39-96.9,1.3-10,2-20,1.8-30.1,0-2.2,0-4.4-.2-6.6.2.2.5.3.8.5,5.8,3.5,13.2,3.4,18.9,0,2.8-1.8,5.2-5.4,5-9v.2h0ZM951.2,1270c-9.4,13.1-20.7,24.8-32.2,36.1-11.2,11-22.7,21.8-35.2,31.3-12.2,9.3-25.6,17.9-39.9,23.4-15.8,6.1-32,8.6-48.8,8.2-29.5-.6-60.2-9.5-80.7-31.8-26-28.3-30.8-69.3-35.2-105.8-.2-1.9-.8-3.7-1.7-5.3.2-1.5.2-3,0-4.5-.5-3.1-1.1-6.2-1.6-9.3,6-9.2,2.6-20,6.1-29.9,3.1-8.9,11.3-15.5,18.9-20.5,19.3-12.7,42.2-18.1,64.5-22.8,48.7-10.1,100.1-15.6,149.1-4,20.8,4.9,43.5,13.1,54.7,32.6,1,1.8,2.4,3.1,3.8,3.9-.5,1.9-.6,3.9-.2,5.6,6.7,33.2-2.3,65.8-21.6,92.8M1062,1160.3c-.3,1-.5,1.9-.5,2.8-4.3-1.2-9.1-1.7-13.3-2.2-19.8-2.5-39.7-.2-59.4,2.5.2-1.9-.2-3.9-1.4-6-11.7-20.4-32.8-32.1-54.6-38.9l-6-1.8c66.8,0,133.6-.2,200.3-.3-1.7.4-3.3.8-5,1.3-12.5,3.6-24.6,9.6-35.9,16-10.9,6.1-20.3,14.3-24.2,26.6M1370,1227.4c0,9.5-.8,19.1-2.4,28.5-3.2,18.9-9.2,37.2-18,54.2-8.1,15.6-17.6,32.9-33,42.2-16.3,9.9-36.1,12-54.7,13.9-2.3.2-4.4,1-6.2,2.2-29.3-.5-57.7-9.9-81.5-27-1.4-1-2.8-2-4.1-3.1-1.1-3.4-3.9-6.2-8.2-6.7-8.4-7.2-16.4-14.9-24.6-22.2-10.4-9.3-21.8-18.2-30.9-28.9,0-2.9-.8-5.7-3-7.5-4.3-3.5-7-8.9-10.1-13.5-3.3-4.9-6.9-9.8-9.9-14.9-2.6-4.6-3.4-10-4.6-15.1-1.5-6.5-2.9-13.1-4.2-19.6-.2-.7-.4-1.4-.7-2.1.7-10,1.8-20.3,1.3-30.2,0-1.8-.4-3.4-.9-4.8,3.4-.6,6.5-2.9,7.9-7.1,2.3-7.2,9.6-11.4,15.8-14.8,8.9-4.9,18.1-9.6,27.8-12.6,21.1-6.6,44.6-6.7,66.4-7.6,11.4-.5,22.7-.7,34.1-.8,11.3,0,22.7,0,33.9,2,11.3,2.1,22.4,5.4,33.6,8.3,10.4,2.7,21,5.3,31.3,8.3,17.9,5.3,40.8,16.5,38.6,38.8-.4,4.1,2.5,7.7,6.1,9.4l-.6,1.5c-1.5,4.5,0,9.9.3,14.6.5,5,.6,9.8.5,14.6" class="fill" fill="#ffffff"/>
  <path id="fill-eyes-lens1" d="M1179.4,1134.1c40.9-2.7,97.1,4.9,136.2,17.2,22.2,7,37.6,14.4,44.9,38.1,14.9,48.3-2.6,130.7-47,159.8-31.6,20.8-93.5,20.9-124.8-1-21.1-14.8-46.4-35.3-63.6-54.4-29.9-33.2-63.5-74-40-121,15.1-30.3,63.8-36.7,94.3-38.7" class="fill" fill="#ffffff"/>
  <path id="fill-eyes-lens2" d="M834.5,1134.1c35.7-1.8,110.2,1.6,129,37.4,25.1,47.6-10.3,90.4-40.8,123.8-16.7,18.3-57.6,53.5-80,62-40.4,15.3-96.8,9.2-126-25-28.6-33.3-50.7-133.3-14.9-165.9,21.7-19.9,102.6-30.8,132.7-32.3" class="fill" fill="#ffffff"/>
  <g id="eyes-shaded">
    <path id="shading-eyes16" d="M1263,1369l77.9-202.4-35.9-17.6-86.3,216.8c-7.7-3.2-18.2-4.6-25.4-8.6-1.1-.6-2.3-.9-2.1-2.5l83.8-214.1,3.1-1.1c-.8-.4-.7-1.8-1.3-2.2-2.8-2.2-33.1-5.4-39.2-6.2-13.5-1.9-25.5-2.1-39-6-1.4-.4-3.1,0-3.4-2,34.4-1.4,68.6,1.9,102.2,9.3,60.3,13.2,86.9,33.8,81.8,100.2-4.3,56.4-23.6,106.8-78.8,129.2-12.1,4.8-24.6,6.4-37.4,7.2" class="shading" fill="#aaaaaa" style="opacity: 0.5" opacity="0.5"/>
    <path id="shading-eyes15" d="M1068,1185c4.4,6.7-1.2,7.5-2,11.5-2.6,13.5,4.2,36.9,3.5,51.4,26.1,33.1,54.5,68.2,87.6,94.4,9.4,7.5,24.7,19.5,35,25,22,11.8,82.3,10.8,107.3,6.4,5.1-.9,19.6-6.7,22.7-3.4,3.6,3.9-1.3,5.4-4,7-23.1,13.8-56.4,9.4-82.5,7.5-12.8-.9-39-2.2-50.2-5.8-8-2.6-29.2-21.2-36.3-27.7-26.1-23.9-48.5-51.5-74-76-13.8-13.2-29.1-24.5-42.5-38.5-1.1-1.2-2-3.4-2.9-4.1-.8-.6-7.7-1-9-.9-2,.2-17,17.3-20.5,20.5-7.2,6.4-16.1,11.4-23,17.9-33.4,31.5-60.8,69.3-97.5,97.5-19.5,15-31,13.9-55,16-22.9,2-62,6.4-83-1-2.1-.7-15.4-7.1-16-8-2.2-3.6,1.6-6.1,4.9-6,3.6,0,7.3,2.8,10.6,3.5,28.8,6.1,75.6,6.2,104.3-.8,9.4-2.3,18.7-9.8,26.7-15.3,26.6-18.6,50-41.2,71.6-65.4,5.6-6.2,34.7-40.5,35.4-45.6,2.3-15,1.5-32.7,3.1-48,.5-3.2-3.9-4.3-4.1-7-.2-2.5,2.2-3.2,2.1-5.4-4.5.8-11-4.6-6.6-8.1,3.7-2.9,4.7,2.1,7.3,2.9,5.5,1.7,7-1.6,10.8-2.8,29.1-9.3,36-9.4,65.1,0,3.7,1.2,5.2,4.5,10.8,2.8,2.2-.7,3.1-4.4,6-3.7,5.7,1.9,0,10.6-5.7,9.2M1038,1185c-9.5-1.8-18.7-3-28,.5,5.4,1.1,7.7,5.6,9.3,10.7,1.5,4.7-1.1,8.7,6.2,7.9,2.9-.3,2.4-5.8,3.4-8.6.6-1.7,2.2-5.7,3.2-6.8,2-2.5,4.8-1.4,5.9-3.7M1053,1197c-.2,0,0,1.8-1,2.4-7.9,5.8-11.5,9.7-21.5,9.6-5.1,0-8.6-.2-13.9,0-11.1.4-14.8-6.6-23.5-12.1l-3,30c2,2,17.7-4.1,21.5-4.1,5.8,0,8.3,4.7,16.8,2.9,1.8-.4,3.2-1.9,4.7-2.3,7.2-2,17.2,4.9,25,3.5l-3-29.5c0-.8-2-.5-2.1-.4" class="shading" fill="#aaaaaa" style="opacity: 0.5" opacity="0.5"/>
    <path id="shading-eyes14" d="M1119,1095c10.8-7.5,22.7-13.9,34.3-20.2,23.5-12.8,49.4-20.6,66.1-41.9,11.6-14.8,20.3-27.2,12.4-46.3-12.8-31.1-52.4-80.9-79.9-100-14.9-10.4-32.6-16.6-45.9-29.1,9.3.7,20.3,4.3,29.5,7.5,66.1,22.7,136.7,74.8,177.9,131.1,2.8,3.8,12.4,14.4,8.3,18.7-3.2,3.3-25.6,8.5-31.7,10.8-38.2,14.4-82.4,31.5-116.9,53.1-3.8,2.4-21.2,16.4-22.6,16.4h-31.5Z" class="shading" fill="#aaaaaa" style="opacity: 0.5" opacity="0.5"/>
    <path id="shading-eyes13" d="M897.5,1095c-1.5-.4-19.2-14.3-23.2-16.8-34.2-21.3-79.2-38.9-117-53-5.4-2-30-7.6-31.8-11.2-1.9-3.9,2.8-9.6,5.1-12.9,27.2-39.7,72-78.2,113.1-102.9,30.2-18.2,63.6-34.2,98.3-41.2-12,12.1-28.8,18.2-42.9,27.6-25.1,16.6-49.7,46.7-66.1,71.9-4.3,6.6-20.6,33.7-20.8,40-.5,14.1,11,30.6,19.9,41,15.3,17.9,40.9,24.1,60.6,36.4l36.3,21.1c-8.1-1.5-24.5,2-31.5,0" class="shading" fill="#aaaaaa" style="opacity: 0.5" opacity="0.5"/>
    <path id="shading-eyes12" d="M875.3,1338.3c-4.1,3.7-6.6,10.1-9.4,13.1-1.1,1.2-9.2,6.5-7.7,1.3l79.9-204.7c2.3-1.9,13.8,7.4,16,9.4,16.1,14.9,20.1,37.7,17.9,58.9-3.8,35.8-44.3,79.1-70.9,102.1-8,7-18.5,13.3-25.8,19.9" class="shading" fill="#aaaaaa" style="opacity: 0.5" opacity="0.5"/>
    <path id="shading-eyes11" d="M778.5,1369c-.7-.2-1.6-1.6-1.5-2.5l91.7-234.6c9.8,2.2,20.1,2.1,29.9,4.1,1.2.2,1.8-.8,1.5,1.5l-91.6,231.5c-5.9,0-26.2,1.2-30,0" class="shading" fill="#aaaaaa" style="opacity: 0.5" opacity="0.5"/>
    <path id="shading-eyes10" d="M1173,1133l-63.5,147c-.8,0-9.2-10.7-10.5-12.5-6.1-8.5-13.4-18.9-17-29-7.5-20.7-9.4-43.8,0-64.2,15.6-34.6,58.3-36.5,91.1-41.3h0Z" class="shading" fill="#aaaaaa" style="opacity: 0.5" opacity="0.5"/>
    <path id="shading-eyes9" d="M1254.8,1109.8c-.2.4-7.5,3.9-8.3,4.2-7,2.4-26.3.2-35,0-34.8-1-70.2-1.7-105-2-20.2-.2-40.1,1-60,1-70.4,0-140.6-1.1-211.1,1-8.6.3-27,2.4-34,0-.8-.3-8-3.8-8.3-4.2-.7-1.2-.4-6.1.8-7.4,3.3-3.4,9.3.3,13.5.6,27.4,1.9,59.2,1.5,87,2,89.1,1.7,177.1.6,266-1.1,25.9-.5,54.5.8,80.1-.9,3.7-.3,11.5-4.2,14,0,.7,1.3,1,5.9.3,6.9h0Z" class="shading" fill="#aaaaaa" style="opacity: 0.5" opacity="0.5"/>
    <path id="shading-eyes8" d="M768,1115c.3,1.4-1.1,1.1-2.2,1.3-18.2,4.5-36.7,6.8-55,12-5.2,1.5-14.4,6.4-18.8,5.3-3.5-.9-8.9-4.9-12.3-6.7-1.4-.7-7.4-2.5-7.7-2.8-1.4-1.9,3.7-3.1,4.9-4.6,4.7-5.7,8.4-20.1,13.3-26.7,1.1-1.5,1.3-2.2,3.4-2.6,4-.8,27.7-.5,31.5.4l42.9,24.4h0Z" class="shading" fill="#aaaaaa" style="opacity: 0.5" opacity="0.5"/>
    <path id="shading-eyes7" d="M1376,1124c-.3.4-6.9,2.3-8.4,3.1-3.3,1.7-8.2,5.5-11.6,6.4-4.4,1.2-13.6-3.8-18.8-5.3-18.3-5.2-36.4-7.3-54.4-11.6-1-.2-3-.3-2.8-1.7l42.7-24.8c5.9.5,30.6-1.8,33.8.8,4.6,3.8,9.2,22.8,14.6,28.4,1.3,1.4,6.2,2.9,4.9,4.7" class="shading" fill="#aaaaaa" style="opacity: 0.5" opacity="0.5"/>
    <path id="shading-eyes6" d="M1075,1141c1.6-3.5,12.5-25.6,14-26.5,1.9-1.1,14.6-1.1,16.1.9,6.7,8.5-8.9,12.6-13.8,15.4l-16.3,10.2h0Z" class="shading" fill="#aaaaaa" style="opacity: 0.5" opacity="0.5"/>
    <path id="shading-eyes5" d="M945,856c.7.3-.6,1.7-2,1-.7-.4.6-1.7,2-1" class="shading" fill="#aaaaaa" style="opacity: 0.5" opacity="0.5"/>
    <path id="shading-eyes4" d="M1105,856c.7.3-.6,1.7-2,1-.7-.4.6-1.7,2-1" class="shading" fill="#aaaaaa" style="opacity: 0.5" opacity="0.5"/>
    <path id="shading-eyes3" d="M958.8,1114.2c1.4.8,13,24.2,14.7,27.8-3.8-2.6-7.3-5.4-11.2-7.8-3.7-2.2-18.8-9-19.8-11.2-1-2.3-1.1-7.2,1.5-8.5,1.5-.7,13.7-.9,14.8-.3" class="shading" fill="#aaaaaa" style="opacity: 0.5" opacity="0.5"/>
    <path id="shading-eyes2" d="M853,1123c0,1.5-2.5,1.6-3.6,1.9-23.2,6.6-47.2,5.9-70.6,10.4-7.2,1.4-8.4.3-8.5,8.4-21.2,48.4-48.3,94.5-69.1,143-2.7,6.2-7.1,16.1-6.1,22.8.6,4.2,9.6,17.5,12.5,21.5,3.7,5,9.7,9.4,11.9,15.1-24.6-17.6-39-48.9-45-77.9-13.8-66.2-11-111.9,60.3-131.8,38.3-10.7,78.5-14.6,118.2-13.4" class="shading" fill="#aaaaaa" style="opacity: 0.5" opacity="0.5"/>
    <path id="shading-eyes1" d="M721.5,1346c.7.3.7.7,0,1v-1Z" class="shading" fill="#aaaaaa" style="opacity: 0.5" opacity="0.5"/>
  </g>
  <g id="outline-eyes" class="outline" fill="#000000">
    <path id="outline-eyes2" d="M993,1256c-1,4-2,4.8-4.5,8-14.2,18.2-34.4,39.6-50.5,56.5-17,17.9-47.1,49.2-67.7,61.3-24,14.1-91.5,17.2-118.5,11.9-29.6-5.8-47.2-25.6-64-49-25.1-35-31.7-73.2-32.8-115.7h-17.5c-.5,0-7.7-1.5-8.3-1.7-4.5-2-5.8-20.7-6.2-25.8-.3-3.7-1.6-15.3.5-17.5,3.5-3.7,22.8-2.9,26.3-6.2,1.1-1.1,2.7-8.4,3.7-10.8,3.6-8,7.8-15.8,13.5-22.5-14.5-3.8-23.3,2.8-22-17,1.8-29,22-77.6,37.6-102.4,4.3-6.9,20.8-32.7,28.8-32.1,2.1.2,3.9,2.7,5.6,1.6.5-.3,4.7-7.4,6-9,42.4-52.1,97.9-98.4,160.3-124.7,80.6-34,211.7-32.3,291,4.3,44.4,20.5,92.8,56.2,126.2,91.8,6.8,7.2,23.5,25.4,27.9,33.1,1.2,2,1.8,3.5,1.6,6,3.5-.3,5.5-3.6,9.3-2.8,1.8.3,7.3,4.8,8.8,6.3,11.7,11.9,33.9,51.3,39.6,67.4,4.9,13.6,16.7,54.3,16.1,67.4-.6,12.3-13.3,7.2-21.8,9.8-1.2,1.5,3.7,6.8,4.8,8.7,3,5.3,6.6,11.9,9.1,17.1.9,1.9,1.5,7,2.3,8,3,3.5,25,2.6,26.6,6.9.4,1.1,0,3,0,3.3l-3,34c-.5,1.2-.2,2.5-1.3,3.7-4.4,5.2-23.1,1.8-25.6,3.4-.4.3-.7,5.3-.8,6.5-.7,9.2-1,10.5-2.1,20-.2,1.5-1,7.5-2.2,14.4-7.3,46.4-41.9,113.1-92.2,123.3-27.5,5.6-95,2.9-119.5-11.1-25.2-14.4-61.4-54-81.8-76.2-11.4-12.4-29.7-31-38.9-44.1-3.2-4.5-2.7-6-3.6-10.9-3.9-20.4-3-38.7-5-58.5-.2-1.4-.8-5.7-1.5-6.5-3-3.8-26.8-4.4-32-4-3.8.3-14.8,2.1-16.1,5.9-.7,11.2-.5,22.4-1.5,33.6-.7,9.7-2.3,24.8-4.8,34.3h.1ZM797.5,1091h90.5c-10.2-9.4-23.2-15.1-33.9-23.6-1.1-.9-8.4-6.1-7.1-7.4,21.5,6.1,37.4,23.6,58.6,30.9h236c22.1-5.8,38.1-24.5,59.9-31,1,2.5-4.7,5.9-6.6,7.4-10.8,8.4-23.7,14.3-33.9,23.6h91.5c.5,0,5.1,5.2,5.7,6.3,1.5,2.9,1.8,10.4,2.4,10.8,2.4,1.4,18.4,2.4,22.7,3.1,19.7,3.2,40.8,7.2,59.8,13.2,3.1.9,12.4,5.7,14.3,5.7s14.7-7.8,18.5-8.6c1-14.6-5.9-28.1-11.9-41-3.3-7.2-7.2-15-11-22-2.4-4.5-16.1-28.6-18.6-30.4-2.9-2.1-20.6-1.2-25.1-.9-14.3.9-28.6,3.6-42.5,7-1.9-1.7,12-11.3,13.3-12.2,8.4-5.8,17.8-10.6,26.8-15.4-4.4-19.8-20.1-36-34.6-49.4-58.1-53.7-155.6-100.6-235-104-90.4-3.8-194.3,42.3-260.5,102.5-14.8,13.4-31,29.9-35.9,49.9,9,5.9,18.8,10.3,27.6,16.4,1.3.9,15.2,10.6,13.3,12.2-13.9-3.4-28.2-6.1-42.5-7-4.5-.3-22.2-1.2-25.1.9-2.5,1.8-16.2,25.9-18.6,30.4-3.8,7-7.7,14.8-11,22-5.9,12.8-13,26.6-11.9,41,3.1.7,16.9,8.6,18.4,8.5,1.6,0,11.5-5.1,14.9-6.1,26.3-8,53.9-11.8,81.1-15.7,1.2-.6.2-15.3,10.4-17.1M819,1100h-16.5c-4.4,0-4.4,9-2,9h15.5c.5,0,2.3-7.9,3-9M1223,1109c.5-4.6-1.9-7.1-6-8.5h-387c-3.9,1.8-4.8,4.8-6,8.5h399ZM1245.5,1100c-4.7-.9-11.5.6-16.5,0,.5,1.5,2.6,9,3.5,9h15c2.2,0,2.5-8.2-2-9M793.8,1117.3c-27.5,2.3-85.6,15.5-108.1,30.9-17.2,11.7-21.7,48.9-21.7,68.4-.2,51.9,12.7,106.6,51.5,143.5,34.7,33,102.4,26.3,144,10,25.7-10.1,68.2-56.5,88-78,7.7-8.4,28.7-30.1,33.4-38.6,3.5-6.4,6.5-45.2,7.1-54.9s-7.1-7.4-7.9-4.8c-.3.8,1.1,10.8.9,13.8-2.8,50.6-57.6,103.7-95.5,133.5-41.3,32.5-108.5,45.8-155.4,17.4-48.2-29.2-73.2-143.5-44.2-191.1,8.5-14,33.7-22.3,49-27.1,54.7-17.2,174-27.9,220.2,11.2,2.6,2.2,12.7,14.2,13.6,14.4.6,0,9.7-4.7,11.3-5.5-10.2-22.7-43.3-32.7-66-37.9-32.6-7.6-86.5-8-120.2-5.2M1066.9,1192.1c-.8-.5-5-.3-5.9.3-1.3.9-1,3.6-1,5.1,0,12,2.4,30.7,4.2,42.8.4,2.7.7,6.3,1.3,8.7,1.9,7.2,28.3,35.6,35,43,21.6,23.5,62.8,69.1,91.8,79.2,34.2,12,96.1,19.8,127.5-1,26.7-17.7,46.4-53.3,55.5-83.5,9.2-30.4,14.1-104.1-4.8-130.7-7.2-10.1-36.4-21.9-48.7-25.3-54.7-15.5-139.3-21-194.2-6.7-16.9,4.4-45.7,14.5-56,29-7.8,10.9.2,7.8,7.8,12.9,21.9-30.3,61.3-36.4,96.1-39.9,48.3-4.9,131.7,3.4,173.8,29.2,28.1,17.2,27.4,67.3,23.6,96.2-5.3,39.8-28.8,99.1-69.3,113.7-82.7,29.8-142.3-17-194.5-74.5-21.3-23.4-39.8-49.1-42-82-.3-2.9.9-15.8-.2-16.5M1095,1119h-141c3.5,8.3,13.6,11.1,20.5,17,7.4,6.2,13.3,14.2,19.1,21.9l58.9.2,2.9-1.1c5.2-8.5,12.3-16.7,20.2-22.8,4.7-3.6,13.8-7.5,17.3-10.7,1.2-1.1,2.3-2.8,2.1-4.5M833.8,1134.3c-30.1,1.5-110.9,12.4-132.7,32.3-35.8,32.6-13.7,132.6,14.9,165.9,29.2,34.1,85.6,40.3,126,25,22.4-8.5,63.4-43.7,80-62,30.5-33.4,65.9-76.2,40.8-123.8-18.9-35.8-93.4-39.2-129-37.4M1178.8,1134.3c-30.6,2.1-79.2,8.5-94.3,38.7-23.5,47,10.1,87.9,40,121,17.2,19.1,42.5,39.6,63.6,54.4,31.3,21.9,93.2,21.8,124.8,1,44.4-29.2,61.9-111.5,47-159.8-7.3-23.7-22.7-31.1-44.9-38.1-39.1-12.3-95.3-19.9-136.2-17.2M1072.7,1172.2c-1.2-1.1-8.5-2.6-10.5-2.9-19.1-3.4-64.9-4.5-83,1.4-3.8,1.2-5.3,1.4-5.3,5.8,0,9.1,6.6,8.9,14.2,7.1,4.5-1.1,8.5-6.5,14.1-7.9,10.5-2.6,39.3-2.8,48.5,2.1,7.3,3.9,9.2,8.3,19.8,6.2,3.5-.7,4.5-9.7,2.2-11.8M636,1196.5c-.7,2.2,0,13.5,0,17s14.9.4,18,1.5c-1-2.1,1.7-22.1.5-22-3.2,1.8-17.4,0-18.5,3.5M1412,1213.5c.8-2.7,0-13.2,0-17s-16-1.9-18.5-3.5c-1.2,0,1.5,19.9.5,22,3.9-1.3,16.8,2.8,18-1.5" class="outline" fill="#000000"/>
    <path id="outline-eyes1" d="M998,1252c11.2-12.1,21.2-29.1,19.5-46,5.4,3.1,9.1,2.3,14.5,0-2.8,10.5,3,24,8.8,32.7,1.6,2.5,10.1,11.5,10.2,12.3.6,3.3-5.9,8.9-7,8-.9-5.7-7.9-7.8-12-12.5-1.3-1.5-3.3-4.1-4.3-5.8-1.4-2.5.7-4.5-4.3-3.8-2.1.3-5,8-7.5,10.6-3.5,3.8-10.8,6.1-11,11.5-1,1-7.1-4.8-6.9-7" class="outline" fill="#000000"/>
  </g>
    </g><g class="trait-group" data-category="right ear" id="right ear-notched">
      <path id="fill-ear-rt" fill="#ffffff" d="m1650 375 21.9 15.6 9 8.1-5 97.7-42.3 137.7-32.6 49.4c-4 5.2-19.7-5.3-21.9-3.4-1.9 4.5-4.9 23.3-7.3 25.7-2.6 2.6-18.8 1.2-20.3 3.2l-16.4 57.6-102.1 56.9c-16.8 32-30.5 65.7-47.1 97.9l-82.3 65.8c-1.2.6-2.3.6-3.6.5-13.8-1-49.3-14.2-62-21-20.5-10.9-39.7-31.3-58.7-43.8l-24.5-38-.8-3.1 89.8-173.3c3.8-62 6.1-123.8 10.4-185.6l129.3-162.7 4.6-4.4 317.4-175.6c3.6 1.1 16.9 6.5 17.5 9.6-.8 28-.3 56.1-1 84.1-.3 14.4-1 29.4-2.3 43.7l-30.2 44.8-39.5 13Z" class="fill" data-original-prefix="fill"/><path id="shading-ear-rt" fill="#aaaaaa" d="M1626 352c14.1-.8 29.3-5.4 42-11.5 5.1-2.4 20.9-11.1 24.4-14.5 2.2-2.1 5-7.4 6.7-10.3 7-12.2 12.5-27 15.8-40.7l2 12.5 2 26-18.3 45.3-51.7 15.3 38.1 26.6-17.1 63.4-5.2-47.8c-22.4-10.8-37.5-32-47.3-54.2-25.9 44.1-43.9 92.3-40.5 144.5.9 13.4 7.2 30.2 2.8 42.8-1.1 3-3.1 5.7-4.2 8.8-4.4 11.9-9 24.3-10.5 37 11.2-3.5 17.1-11.9 23.4-21.1 15.8-23 25.2-48.7 39.1-71.9.7-1.1 1-2.8 2.5-3-7.2 32.9-18.2 66.1-31.5 97-8.3 19.2-18.2 36.5-30.5 53.5 8 .8 16.2 1.2 24 3s14.4 5.3 22 7.5c.2 1.2-.1 1.9-.5 3-.5 1.2-8.3 14.5-9 15.1-1.1 1-1.3.9-2.7.8-4.3-.4-23.8-8-25.7-6.8l-6.1 34.9c-6.7-.6-13.1-3.6-19.9-2.9l-30.3 81.2-2.7 5.3c-23.4 14.2-49.2 24.2-72.9 38.1l-56.3 89.7c-28.3 25.6-60 47.5-90.6 70.5-2.2.5-26.2-8.4-30.5-10.1-24.5-9.4-50.7-23.9-69.8-42.2-5.5-5.3-9.2-12.1-14.5-17.5-2.4-5 7.2-9.4 10.5-12.5 16.1-14.9 33.6-36.1 45.4-54.6 8.5-13.3 11.7-27.5 19.1-41.9 6.3-12.4 13.9-24.3 20.5-36.5 1.2-1.2 1.7-.2 2.6.5 3.4 2.8 6.9 8.3 10.5 11 1.9-11.8 7-21.1 8-33.5.3-3.4-.7-15.7.2-17.3.2-.4 6.5-4.5 7.8-5.7 30.4-28.4 51.9-61.2 61.9-102.1 6-24.3 5.7-48.7 8.1-73.4 6.3-.8 9.8 3 14.6 5.9l46.4 5.6c10.4 14.5 17.6 31.1 26.5 46.5 1-.5 10.5-11.3 11.3-12.7 3.9-7.3 8-27.2 9.9-36.1 8.5-39.9 9.6-76.2 8.3-116.7-.5-15 6.8-27.9 14.2-40.8 14-24.6 34.9-52 54.3-72.7 20.2-21.6 59.5-47.5 85.6-62.4 12.5-7.1 26.5-12.1 39.9-17.1-5.4 12.2-7.1 27.9-12.2 39.8-1.8 4.3-22.4 23-27.8 29.2s-17.7 20.6-21.1 27c-.6 1.2-1.4 1.9-1 3.5Zm-100 343c8.2-17.6 20.3-35.7 18.5-56-3.5 4-8.1 7.5-11.5 11.5-10.1 12.3-18.6 29.3-29.1 42-19.6 23.7-65.6 56.1-93.3 69.7-23.2 11.4-28 6.6-42.8 31.2-23.8 39.3-42.5 79.3-70.4 116.6-4.2 5.7-12.9 13.5-15.8 19.2-1.6 3.1-11.9 36.4-10.6 37.9 2.5-.7 5.5-3.3 7.5-5 18.6-15.8 38.6-36.6 55.6-54.5 13.9-14.7 30.5-30.8 39.2-48.8 6.9-14.5 12.7-29.7 19.1-44.4 10.6-4.1 21.9-5.5 32.8-8.8 30.4-9.2 59.4-27.7 85-46l24.9-69.1c-.7-4.9-7.2 6.4-8.9 4.6Zm29-27c-1.6-1.2-8.4 9.1-10 10.5l17 12.5c.9-1-5.8-22.1-7-23m-19.5 19v1c.7-.3.7-.7 0-1" class="outline shading" data-original-prefix="shading" opacity="0.5" style="opacity: 0.5"/><path id="outline-ear-rt1" fill="#000000" d="M1201 939c-.3-.2-3.9-.4-6.1-1.5-5.2-2.6-14.2-7.8-17.9-12.1-10.7-12-18.5-31.2-29.5-43.5l-.5-8.4c16.4-32.2 27-70 43.1-101.9 3.4-6.7 8.3-11.6 12.3-17.7 33.7-52.8 38.3-147.5 41.6-209.4.3-6.6.3-23.8 2.6-28.4 43.1-62.1 88.8-122.2 141.4-176.6 28.8-29.8 67.6-52.7 103.3-73.6 60.1-35.2 146-76.2 213.7-92.3 4.6-1.1 22.4-5.8 25.4-3.6.9.7 4.3 15.2 4.6 17.6 4.2 31.6-.3 71.9-3 104-2.3 27.6-.5 58.1-28.7 73.3-11.7 6.3-27.1 10-40.3 10.2 2.8 7 32.7 20 33.8 23.7 1 3.4-2.8 14.6-3.5 19.1-2.8 16.4-7.3 47.9-4.1 63.5 2.3 11.1 6.7 11.3 4.3 24.8-9 50.9-31.8 106.5-56 152-6.3 11.9-15 28.7-22.7 39.3-.7 1-1.6 2.9-3.2 2.6-.8-.2-10.3-8.1-13.3-9.8-5.4-3-12-6.7-18.3-6.1-.6 10.1-4.2 19.3-7.1 28.8-4.9 1.7-12.1-4.2-16.2-2.8-7.2 2.4-20 65.1-23.2 74.8-17.8 12.3-35.5 25-54.4 35.6-7.7 4.3-18.5 8-25.4 12.6-13.4 9.2-31.7 44.4-38.1 59.9-2.8 6.6-4.4 14.5-7.3 20.7-5.8 12.5-26.4 24-37.2 33.8-15 13.5-28.6 29.7-43.4 43.6-2.3 1.4-20.6 4.8-23.6 4.5-10.6-1-50.2-16.6-59.3-22.8-1.5-1-2.6-1.8-2.7-3.8 43.4 18.1 71.5 7.3 103.5-23 37.3-35.2 63.7-79.8 83-127 30-21.5 65.3-34.7 93.9-58.1l24.6-68.4c2.8-4.9 15.1 2.6 17-.2 1.4-2 1.1-11.9.8-14.8-.6-5.5-3.4-10.4-4.9-15.6 6-1.5 12.3-.7 18.5 0 5.2.6 21.3 5.3 24 5 2.2-.3 4.5-5.1 5.9-7.1 25.9-38.6 51.8-112.7 58.3-158.7 3-21.1.8-44.1 3.3-65.7 1.1-9.4 3.8-18.5 5.1-27.9-13.4-6.9-30.2-20.9-36.2-35-5.1-11.8-.3-8.6 7.6-9.8 10.4-1.6 37.7-7.5 46-13 6.1-4 15.7-31.8 17.3-39.7 4.1-19.3 7.6-44 9.3-63.7 1.7-19.2 1.6-39.3 0-58.5-42 13.6-81.8 33.1-120.7 53.8-46.8 25-95.5 55-139.9 84.1-50.9 33.5-90.8 69.5-129.4 116.5-17.3 21-40 48-54.8 70.2-12.9 19.2-12.9 62.2-15.2 85.8-2.7 28-4.3 56-7 84-4.6 47.8-19.1 64.4-38.8 105.2-13.1 27.1-21.6 51.4-31.4 79.6-4.4 12.8-8.7 12.1-5.1 27.6 3 12.5 15.9 34.5 24.3 44.2.1.1 1.5.5 3 2-3.5 1.1-2.8-1.9-3-2Z" class="outline" data-original-prefix="outline"/><path id="outline-ear-rt2" fill="#000000" d="M1422 736c3-6.8 6.8-13.1 9.5-20 11-27.9 12.1-62.7-8-87-11.8-14.3-18.7-10.9-25.3 4.8-9.2 21.9-12.2 46.7-15.1 69.7-.2 1.2 1.5 2.8.4 4.5-1.2 1.9-8.6 4.6-10.9 6.2-44.3 30.1-57.7 77.8-79.2 122.8-1.1 2.4-2.3 6.1-5.5 6-1.1-5.6-2.3-11.7-4.5-17-.4-.9-2.9-7.8-4.5-6-.9 1-4.3 22.4-4.8 25.7-1.4 8.6-1.6 19.5-3.4 27.6-1.7 7.9-11.5 24.5-14.8 34.2-4 11.8-8.6 27.5-6.9 39.9.7 4.7 4.3 9.8 4.9 14.6-1.4 1.4-11.6-6.6-13.4-8-5.6-4.3-10.8-9.2-15.3-14.7l2.3-31.3c4.5-10.8 24.3-28.9 27.1-38.9 6.5-23.9 7.8-59.2 22.3-80.7.6-.9 1.7-3.3 3.2-2.3 1.8 1.3 6.8 18.1 11.8 12.7 10.6-26.4 25.4-52.7 40.8-76.7 11.4-17.8 27.6-30.6 37-50 8.8-18.1 21.6-77 17.8-95.9-.8-4-10.4-27.1-9.3-28.1 7.5 2.8 14.7 6.9 21.7 10.8 6.4 3.6 31.7 17.7 34.8 22.2 3.4 5 10 27.9 12 35 2.3 8.3 6.6 35 11.4 39.5 13.2 12.3 30.8-13.9 36.2-23.9 26-47.4 33.3-96.7 25.7-150.1-1.2-8.7-7.4-28.3-6.7-35.9.4-4.2 10.1-25.1 12.6-30.4 28.3-60.6 71.1-97.4 118.2-142.9 14.6-8 29.1-16.2 44.5-22.4-5.6 8.8-9.5 21.8-16.5 29.5-4.7 5.2-14.4 9.3-20.4 13.6-39.6 28.8-70 65.2-89.9 110.1-14.5 32.8-25.8 88.9-11.3 122.7 1.2 2.9 6.7 10.6 6.3 12.3-21.1 26.7-33 58.8-41.6 91.5-3.1 12-4.9 31.6-9.1 41.9-1.4 3.4-10.3 13.4-13.2 16.8-13.6 15.6-28.5 25.4-46.3 35.7-3.1 1.8-22.9 13.5-24.7 11.8Z" class="outline" data-original-prefix="outline"/>
    </g><g class="trait-group" data-category="left ear" id="left ear-OG">
      <path id="fill-ear-lft1" fill="#ffffff" d="M326.7 182.1q1.65-.45 3.3.3l180.7 78.4c55.2 39.7 111.9 77.8 165.3 119.7l109 135.9c10.5 65.4 16 132 25.2 197.8 24.6 50.1 52.6 98.7 77.3 148.7 1.5 3.1 5.4 9.5 5.5 12.5.2 4.7-8.5 15.9-11.2 20.8-15.1 27.1-18.8 33.2-43.9 52.1-22.9 17.2-44.3 28.5-72.5 35.5-8 2-18.1 5.7-25.3.5l-82.9-79.1c-9.9-22-17.5-45.3-28.1-66.9l-154-109c-23.7-34.4-41.7-73.1-64.9-108.1-9.8-43.7-27.6-90.2-34.9-134.1-5.9-35.7-6.9-73.6-12.5-109.5-9.3-20.9-22.7-40-30.5-61.5-1-40.6-6.8-81.2-8.3-121.7-.1-3.4-1.1-11.4 2.8-12.4Z" class="fill" data-original-prefix="fill"/><path id="shading-ear-lft1" fill="#aaaaaa" d="M664 558v21.5c0 22.8 19.2 43.4 30.4 61.6 38.9 63.4 63.1 129 108.2 189.8 16.2 21.8 35 41.1 51.9 62.1 4.8 5.9 9.3 10.3 9.5 18.5.2 6.2-2 12.6-1.1 19l-.9 2.1-60.1 40.9c-13.7.2-28.1 9.9-40.7 12.4-1.5.3-2.8.5-4.2-.3l-76.6-51.4-69.8-109.7c-33.8-23.4-81.3-39.6-107.2-72.3-4.2-5.3-6.4-12.2-10.5-17.5.3-1.1 2.2-.4 3 0 7.1 2.9 21.5 16.6 29.2 21.8 23.5 15.5 51.4 30.4 77.3 41.7 17.3 7.5 35 10.9 52.9 16.1 7 15.4 12.9 31.5 20.2 46.8 8 16.6 27 35.1 40.2 48.8 19 20 39 39.1 59.5 57.5 1.5.2 1.8 0 1.4-1.4-1.9-7.7-7.7-31.2-11.1-36.9-4.7-7.9-16.1-19.2-22.2-27.8-25.1-34.9-42.3-72.5-64.4-108.6-7.4-12-9.8-16-22.8-22.2-38.1-18-78.4-19.1-114.3-41.7-26.9-17-34.3-26.3-51.1-52.9-25.7-40.5-46.4-86-61.2-131.8-4.2-12.9-10.9-32.4-12.7-45.3 0-.6-.3-1.6.5-1.5 14 25.4 25.6 52.8 42.1 76.9 5.6 8.2 12.9 19.9 23.4 21.1-.5-2.4 1.1-5.1.8-7.3-1.4-11-12.7-28.8-16.3-39.8-3.8-11.7 2.7-30.6 3.5-43.5 3.6-59-24.7-121.5-55.6-170.4-12.4-19.7-28.5-37.1-37.4-59.1h16.5c8.6 0 8.7 2.4 14.2 5.8 15.3 9.7 32.5 17.5 48 27 30.2 18.6 67.2 68.2 84.5 99.5 2.9 5.2 12 22.4 12.8 27.2.9 5.4-.9 10.1-1 14.9-.8 41.5 1.8 83.9 11.9 124.2 3.2 12.9 5.4 24.4 15.1 33.9 1.4 1.4 2.9 3.8 4.5 1.5l24.5-44.5 55-6.5z" class="outline shading" data-original-prefix="shading" opacity="0.5" style="opacity: 0.5"/><path id="outline-ear-lft2" fill="#000000" d="M845 941c14.6-16.6 32-43.1 28.9-66.4-6.2-13.9-9.9-31.3-16.2-44.8-6.6-14.1-16.5-28.7-23.6-43.4-15.3-31.6-34.1-66.9-37.1-101.9-.8-27.8-4.4-55.4-7-83-2.5-25.8-1.8-68.6-16.2-89.8-15.1-22.3-37.4-49.1-54.9-70.1-40.4-48.8-81-84.4-134.1-118.9-62.7-40.8-134-84.4-202.2-114.8-5.5-2.4-50.7-20.8-52.7-18.8-2.9 37.8.8 78 8.3 115.2 2.9 14.2 5.3 15.9 11.2 27.8 19.4 39 29.1 89 31.5 132.5 1 17.6-.2 29.6 3.5 47.5 18.4 89.9 62.3 179.1 131.5 240.5 34.3 30.4 77.6 43.7 111.3 70.7 7.8 6.3 4 4.9 5.1 11.8 1.6 9.8 18.8 46.8 24.6 56.2 15.8 25.8 55.2 62.7 82.3 76.9 24.5 12.9 35.2 10.3 60.5 2.1 2.2-.7 5.3-.6 7.2-1.3-1 4.5-8.9 7.6-13 9.5-9.6 4.4-42.4 17.5-51.4 17.4-1.7 0-20.4-3.6-21.4-4.1s-1.2-2.3-2.2-3.3c-15.2-14.7-31.4-32.3-47-46-12-10.6-25.8-15.8-32.5-31.5-10.8-25.2-24.1-65.5-48.8-80.2-25.6-15.1-48.4-25.9-73-44-82.1-60.5-144-180.3-162.2-279.8-2.5-13.4.3-11.7 3.2-22.8 6-23.1-5.4-87.7-14.7-110.8-2-5.1-7-12.2-10.2-16.8-2.7-3.8-8.9-9.4-10.3-12.7-3.4-8-5.6-30.1-6.5-39.5-3.1-31.9-9.3-100.8-.5-129.5 1.8-5.8 2.2-6.4 8.7-5.7 12.1 1.1 31.8 7.4 43.8 11.3 83.1 27.2 164 67.2 237 115.1 21.8 14.3 36.8 25 55.1 43.9 52.6 54.4 98.4 114.5 141.4 176.6 2.3 4.6 2.2 21.8 2.6 28.4 3.6 65.9 7.8 160.8 46.2 215.8 2.9 4.1 7.4 7.9 10 12 6.8 10.6 12 30 17.6 42.4 10.2 22.5 26 41.8 21.6 68.3-12.2 14.7-20.7 38.7-36.8 49.2-5.3 3.5-12.5 7.3-18.7 8.8z" class="outline" data-original-prefix="outline"/><path id="outline-ear-lft1" fill="#000000" d="M671 548c1 1.1-9.1 24.9-9.8 28.7-3.2 18.8 9.2 75.9 17.6 94 8.4 18.2 19.9 26.4 31 41 38.5 50.8 58.2 119.5 95.4 173.6 4.1 6 11.5 13.6 14.6 19.4 2.3 4.2 4.1 23.8 4.2 29.8 0 1.9.2 3.7-.6 5.5-1.3 3.2-26.3 24.1-28.5 22 .6-5.2 4-9.5 4.7-14.8 4.7-32.1-33.9-98.2-50.6-126.9-23.1-39.7-51.6-80.6-84.7-112.3.2-20.9-3.1-40.8-9.2-60.8-5-16.5-11.4-40-29.8-18.2-21.7 25.7-18.4 63-6 92 2.2 5.2 5.5 9.8 7.5 15-3.9.3-7.3-2.1-10.7-3.8-25.9-13-50.8-31.4-71.8-51.2-10.2-49.8-20.3-101.8-52.4-142.7 2.3-5.6 5.6-10.1 7.6-16 12.2-35.3 1.5-87.5-13.6-120.9-23.3-51.5-61.4-93-109.9-121.6l-22.3-39.7c3.2-2.9 26 18.3 29.7 20.8 6.2 4.2 14.6 6.7 20.3 10.7 9.4 6.7 22.5 22.7 31.5 31.5 33.4 32.3 57.8 54.7 80 96.9 3.8 7.2 20.1 40.7 20.3 46.5.3 7.9-5.4 25.4-6.6 34.3-3 21-3.8 46.7-2.2 67.7 1.8 24.6 22.8 84.2 40.4 101.6 27.7 27.2 29-13.4 34-31 2-7.1 9.3-32.9 12.5-37.5 2.9-4.3 22.7-15.4 28.3-18.7 2.8-1.7 27.5-16 28.7-14.8h.4Z" class="outline" data-original-prefix="outline"/>
    </g><g class="trait-group" data-category="head" id="head-horny">
      <path id="fill-head2" fill="#ffffff" d="M782 505c1.3 1-14.2 15.5-15.5 17-4.3 4.8-10.6 11.6-14.5 16.5-4.9 6.2-6.9 14.3-11.6 20.4-1.9 2.4-7.4 6.2-8 7.1-.4.6-.2 7-1 10-2.7 9.5-14.5 26.1-16.2 34.8-.9 4.5.5 11.7-.5 17.5-1.2 6.6-5.5 12.8-6.5 17.5-1.1 5 .3 12-.5 17.5-.8 5.9-5.3 12.5-5.8 17.2-.5 5.2 1.5 11.9 1.1 18-.2 4-1.8 8.2-2 12-.7 11.2 6.1 21 6.1 33s-1.9 7.9-.9 12.8c.7 3.5 4.9 7.8 6.3 11.7 1.1 3.4 1 7.3 2.3 10.7s4.1 5.3 5.4 8.6c1.6 3.8 1.2 8.2 2.6 11.4 1.6 3.8 7.5 5.9 10.3 8.7 7.2 7.3 5.5 15.9 10 22 4 5.6 14.8 8 20.5 12.5 6.3 4.9 9.7 14.4 15.2 17.8 8.7 5.4 21 6 31.3 13.7s12.8 21.1 19.6 26.4c10.1 7.9 20.1 7.2 31.5 19.5 23.5 25.2 34.5 59.9 19.2 92.2-7.6 16-47.9 37.3-65 42-24.8 6.9-64.9 3.3-87.9-8.5-15.5-8-11.7-15-21.8-23.2-4.3-3.5-12.2-6.6-16.2-10.3-8-7.6-11.1-22-21-27.5-2.5-1.4-5.6-1.7-8-3-12.7-6.8-21.1-12.3-24.8-27.2-1.6-6.3-.5-15.5-2.2-19.8-2-5-10.2-7.9-13.7-11.3-8.8-8.3-18.5-36.5-18.6-48.5 0-7.3 5-15.7 4-21.9-.5-3.2-6-10.1-7.8-14.2-5.6-13-9-31.9-4.9-45.6 2.6-8.6 8.7-13.7 7.6-23.2-1.9-16.5-6.8-25.6-.4-43.6 3-8.6 10.9-15.5 13.3-21.7 4.4-11.5-.2-26.2 10.8-38.2 2.2-2.5 8.7-5.4 9.9-8.1 1-2.3 1-6.8 2-10 2.2-7 5.9-16.9 10.5-22.5 2.5-3.1 7.9-5.8 9.4-8.6 2.5-4.7 1.4-10.5 5.2-16.8 4.1-6.9 10.6-8.4 13.9-13.1 6.2-8.8 7-18.5 17-28 5-4.8 14.2-8.5 18.6-13.4 7.8-8.8 6.5-12.6 18.7-20.3 15-9.6 35.7-17.8 53.3-20.2z" class="fill" data-original-prefix="fill"/><path id="fill-head1" fill="#ffffff" d="M1256.3 505c17.6 2.4 38.3 10.6 53.3 20.2 12.1 7.7 10.9 11.5 18.7 20.3 4.3 4.9 13.6 8.7 18.6 13.4 10 9.5 10.8 19.2 17 28 3.3 4.8 9.8 6.3 13.9 13.1 3.8 6.4 2.7 12.1 5.2 16.8 1.5 2.8 6.9 5.5 9.4 8.6 4.6 5.6 8.3 15.6 10.5 22.5 1 3.2 1 7.6 2 10 1.2 2.7 7.6 5.7 9.9 8.1 11 12 6.4 26.7 10.8 38.2 2.4 6.2 10.2 13.1 13.3 21.7 6.4 18 1.5 27.1-.4 43.6-1.1 9.5 5.1 14.6 7.6 23.2 4.1 13.7.8 32.6-4.9 45.6-1.8 4.1-7.3 11-7.8 14.2-1 6.2 4.1 14.6 4 21.9 0 12-9.8 40.2-18.6 48.5-3.6 3.4-11.7 6.3-13.7 11.3-1.7 4.3-.7 13.5-2.3 19.7-3.7 14.9-12.1 20.4-24.8 27.2-2.4 1.3-5.5 1.5-8 3-9.9 5.5-13 19.9-21 27.5-3.9 3.7-11.8 6.8-16.2 10.3-10.2 8.2-6.3 15.2-21.8 23.2-23 11.9-63.1 15.4-87.9 8.5-17.1-4.7-57.4-26.1-65-42-15.3-32.3-4.3-67 19.2-92.2 11.4-12.2 21.4-11.6 31.5-19.5 6.8-5.3 9.3-18.6 19.6-26.4s22.6-8.3 31.3-13.7c5.5-3.4 8.9-12.9 15.2-17.8 5.7-4.5 16.4-6.9 20.5-12.5 4.4-6.1 2.7-14.7 10-22 2.8-2.8 8.7-4.9 10.3-8.7 1.4-3.2 1-7.6 2.6-11.4 1.4-3.3 4.1-5.2 5.4-8.6s1.2-7.3 2.3-10.7c1.3-4 5.5-8.2 6.3-11.7 1-4.9-.8-8.4-.9-12.8 0-11.9 6.8-21.8 6.1-33-.2-3.8-1.8-8-2-12-.4-6.2 1.6-12.8 1.1-18-.5-4.8-5-11.3-5.8-17.2-.8-5.6.7-12.6-.5-17.5-1.1-4.7-5.4-10.9-6.5-17.5-1-5.8.4-13-.5-17.5-1.7-8.7-13.5-25.3-16.2-34.8-.8-3-.7-9.4-1-10-.5-.9-6.1-4.7-8-7.1-4.7-6.1-6.7-14.2-11.6-20.4-3.8-4.9-10.1-11.8-14.5-16.5-1.3-1.5-16.8-16-15.5-17h-.2Z" class="fill" data-original-prefix="fill"/><path id="shading-head4" fill="#aaaaaa" d="M873 1019v-21.5c0-.9-2-5.2-2.5-6.5-2.9 4.4-4.6 11.4-10.5 13-.7-17.7 5.6-39-6.5-54-1.2 0-2.6 10.7-3.2 12.8-2.3 7.7-9 18.6-13.9 25.1-1.8 2.4-4.4 6.3-7.4 6.6 2.4-7.3 6.5-14.1 8.5-21.5 2.8-10.4 4.6-29.6 2-40-1.1-4.2-3-8.2-5-12-3.2 7.9-4.7 16.1-8 24-11.3 27.1-34.6 60.7-59 77-1.9 1.3-11.4 6-11.6 6.6-1.7 7 5.2 15.6 10.7 19.2 8.9 5.6 20.5 4.4 30.3 6.7-11.1 4.8-26.5 4.3-38.4 2.4-10.8-1.8-33.4-11.4-40.6-19.4-16.1-17.8-28.9-38-47-55-6.5-6.1-20.5-15.3-25-22-4.9-7.2-7.2-19.8-12.2-27.8s-17.1-15.8-20.7-22.3c-1.8-3.3-6.4-27.8-7-33-1.4-11.3.7-27.9-1.3-37.7-1.5-7.1-10.9-14.2-10.9-23.2 0-15.4 6.5-32.8 7-46.2.2-7-3.2-15.3-3-22.9s5.7-26.2 8.6-33.5 8.7-14.1 10.8-21.2c4.7-16 .5-16.8 13.2-30.8 1.7-1.9 8.8-7.4 9.1-8 .4-.7-.9-12.6-.3-16.3.4-2.3 5.9-13.3 7.3-15.7 2.1-3.4 9.3-8.4 10.9-11.1s.7-10.1 5.5-16.5c3.1-4.2 13.7-10.1 14.5-11.5.9-1.6.2-4.1 1-6 5.2-13.8 13.3-18.2 23.6-27.4 4.8-4.3 7.7-7.4 12-12 11.4-12.5 39.7-32.3 56.7-33.5 8.7-.6 6.4 8.3 3.2 13.3-5.4 8.4-19.2 18.2-25.8 27.2-3.8 5.1-5.9 14-9.5 18.5-1.4 1.7-4.3 2.7-5 4-1.2 2.6-3.1 14.2-5 19-9.6 24.1-16.2 38.2-21.2 64.8-3.4 18.1-2.5 29.3-3.2 46.8-.4 8.4-3 18.4-2.9 26.8.5 36.8 14.8 58.8 32.1 88.9 8.8 15.3 11.2 19.9 24.8 32.2 16.1 14.6 32.2 21.9 48.9 34.1 12.1 8.8 29.8 23.1 41.1 32.9 28 24.5 45.5 63.3 30.8 99.8-1 2.6-2.5 6.8-5.8 6.7h-.2ZM763 515c-1.3-1.2-24.4 11.2-27.3 13.2-6.3 4.2-11.8 10-15.7 16.3 5.2 3.1 7.9 6 10.5 11.5zm-51.2 40.2c-7.3 1-24.9 18-24.7 25.3 0 3.7 5.7 4.5 7.9 6 9.6 6.7 13.3 19.2 21.5 3.3 4.3-8.3 11.8-37.1-4.6-34.7h-.1Zm-13.6 77.6c6.8 3.9 7.3-14.4 6.7-18.2-1.2-8.7-12.5-22.1-21.6-22.5-7.2-.4-18.8 10.4-15.6 17.7 1.7 3.9 6.3 3.4 9.9 5.1 4.8 2.3 10.6 6 14.3 9.7s5.7 8 6.2 8.3Zm-49.1 13.1c.9 1 21.3 6.6 25.8 8.7 2.1 1 5.1 2.7 7 4 2.4 1.6 10 9.2 10.7 9.4 2.4.5 4.1-5.9 4.3-7.5 2.2-17.3-14.7-41.4-33.3-38.4-4.1.7-12.8 10.3-14 14-.6 1.7-1.1 9.1-.4 9.9Zm3.6 13.3c-11.3 1.9-17.2 17.1-15.8 27.3 1 7.2 5.5 3.2 9.5 3.4 9.9.5 20.4 2.3 29.8 5.3 4.2 1.4 12.7 8.2 14.5 0 4.3-19.3-20.7-39-38-36.1Zm26 55.1c-11.5-13.5-37.2-10-48.1 2.7-6 6.9-12.9 29.9-2.5 34.5 2.7 1.2 25.8-6.9 30.9-8.1 6.5-1.5 20.4-.4 23.3-7.7 2.2-5.4.2-16.9-3.6-21.4M681 792c3.6 0 19-9.5 13-13.6-1.2-.8-12.2-.6-14.6-.5-2 0-14.5 3.5-14.4.5 0-2.7 26.6-5 28-13 .8-4.6-2.9-7.8-7-9-10.4-3.1-38.3-.4-48.8 3.3-35.6 12.4-33.6 56.7 4.2 63.2 18.7-9.3 36.1-22.9 57.6-25l-5-3.5-13-2.5Zm27 20c-3.2-.5-6.2-2.1-9.5-2.1-16.5 0-62.3 21.2-64.5 39.5-1.6 13.6-1.2 31.8 11.3 39.7 13.9 8.8 20.7 3.3 32.2-6.2 6.9-5.8 12-13.9 18.5-19.5 5.7-5 24.4-16.2 25.8-23.2.3-1.4.3-2.8.2-4.3-5.6-.5-10.7.4-16 2 1.5-4.2 5.1-5.8 5.8-10.8 1.7-12.2-13.6-8.6-15.8-10.2-3.4-2.5 7.7-2.9 8.5-3 1.5-.2 3.1 0 3.5-2Zm29.8 42.2c-21 2.3-57.5 40.1-63.3 59.7-6.3 21.2 15.2 42.3 36.5 35.5 11.3-3.6 28.2-24.4 34.4-34.6 2.8-4.6 11.8-21 12.5-25.5 2.1-13.4-2.4-37.2-20.2-35.2ZM761 931c3.6-17.5 12.6-33.9 13-52-1.3-1.9-4.3 12.6-4.7 13.8-8.5 24.6-28.2 46.1-40.7 68.3-2.8 5-9.1 15.6 0 17.7 11.2 2.5 23.6-8.2 34.3-10.8 1.1 1.1-4.6 6.2-5.5 7-6.3 5.1-15.3 7.3-18.5 16 9.2-2.7 18.4-6.3 25-13.5 14.5-15.9 33.4-50.3 34.1-72 0-1.5.3-7.7-2.4-7.3-16.8 2-20.5 27.3-34.7 32.8Zm-6 81c6-.2 14.7-6.1 19.5-10 13.1-10.7 37.8-52.5 41.1-68.9 2.2-11.2 3.2-26.1-3.1-36l-8.5 34.5c-11 28.8-28.7 59.3-59 70.5.3 1.8 5.2 1.1 6.5 1 4.9-.4 9.5-2.5 14.5-2 2 1.8-10.4 9.1-11 11Z" class="outline shading" data-original-prefix="shading" opacity="0.5" style="opacity: 0.5"/><path id="shading-head3" fill="#aaaaaa" d="M832 959c2.8 3-9.7 24.4-12.6 27.9-1.9 2.3-12.7 12.7-15.4 10.1-.5-2.1.7-2.7 1.5-4 2.7-4.7 19.6-29.8 22.5-32.5 1.4-1.2 2-1.8 4-1.5" class="outline shading" data-original-prefix="shading" opacity="0.5" style="opacity: 0.5"/><path id="shading-head1" fill="#aaaaaa" d="M1165.2 1019c-3.3 0-4.7-4.2-5.8-6.7-14.7-36.5 2.7-75.3 30.8-99.8 11.3-9.8 29-24.1 41.1-32.9 16.7-12.2 32.8-19.5 48.9-34.1 13.6-12.3 16.1-16.9 24.8-32.2 17.2-30.1 31.6-52.2 32.1-88.9 0-8.5-2.6-18.5-2.9-26.8-.8-17.5.2-28.6-3.2-46.8-5-26.6-11.6-40.7-21.2-64.8-1.9-4.8-3.8-16.4-5-19s-3.6-2.3-5-4c-3.6-4.4-5.8-13.3-9.5-18.5-6.6-9-20.5-18.8-25.8-27.2-3.2-5-5.5-13.9 3.2-13.3 17 1.1 45.2 20.9 56.7 33.5 4.2 4.6 7.2 7.8 12 12 10.3 9.3 18.3 13.7 23.6 27.4.7 1.9 0 4.4 1 6 .8 1.4 11.3 7.3 14.5 11.5 4.8 6.4 3.9 13.8 5.5 16.5s8.8 7.7 10.9 11.1c1.5 2.3 7 13.3 7.3 15.7.6 3.6-.7 15.5-.3 16.3.3.6 7.4 6.1 9.1 8 12.7 14 8.5 14.8 13.2 30.8 2.1 7.1 8 14 10.8 21.2s8.4 25.9 8.6 33.5-3.2 15.9-3 22.9c.5 13.3 7 30.8 7 46.2s-9.4 16.1-10.9 23.2c-2 9.8 0 26.4-1.3 37.7-.6 5.1-5.2 29.7-7 33-3.6 6.5-15.8 14.3-20.7 22.3s-7.2 20.6-12.2 27.8c-4.5 6.7-18.5 15.9-25 22-18.1 17-30.9 37.1-47 55-7.2 8-29.8 17.6-40.6 19.4-11.9 1.9-27.3 2.5-38.4-2.4 9.8-2.3 21.5-1 30.3-6.7 5.5-3.5 12.4-12.2 10.7-19.2-.2-.7-9.7-5.4-11.6-6.6-24.3-16.3-47.7-50-59-77-3.3-7.9-4.9-16.1-8-24-2 3.8-3.9 7.8-5 12-2.6 10.4-.8 29.6 2 40 2 7.4 6.1 14.2 8.5 21.5-3-.3-5.6-4.2-7.4-6.6-4.9-6.5-11.6-17.4-13.9-25.1-.6-2.1-2.1-12.8-3.2-12.8-12.1 15-5.8 36.3-6.5 54-5.9-1.5-7.6-8.6-10.5-13-.5 1.3-2.5 5.6-2.5 6.5v21.5h-.2Zm110-504 32.5 41c2.6-5.6 5.3-8.4 10.5-11.5-3.9-6.3-9.4-12.1-15.7-16.3-2.9-2-26-14.3-27.3-13.2m51.3 40.2c-16.5-2.4-8.9 26.4-4.6 34.7 8.2 15.8 11.8 3.4 21.5-3.3 2.3-1.6 7.8-2.4 7.9-6 .2-7.4-17.4-24.3-24.7-25.3h-.1Zm13.5 77.6c.5-.3 5-7.1 6.2-8.3 3.8-3.7 9.5-7.4 14.3-9.7 3.6-1.7 8.2-1.2 9.9-5.1 3.2-7.2-8.4-18-15.6-17.7-9.1.5-20.3 13.9-21.6 22.5-.5 3.8 0 22.1 6.7 18.2Zm49.1 13.1c.6-.7 0-8.2-.4-9.9-1.2-3.7-9.9-13.3-14-14-18.6-3-35.6 21.1-33.3 38.4.2 1.6 1.9 8.1 4.3 7.5.7-.2 8.3-7.8 10.7-9.4 1.9-1.3 4.9-3 7-4 4.4-2.1 24.9-7.7 25.8-8.7Zm-41.7 49.4c1.8 8.2 10.3 1.3 14.5 0 9.4-3 19.9-4.8 29.8-5.3 4.1-.2 8.6 3.9 9.5-3.4 1.4-10.2-4.5-25.4-15.8-27.3-17.4-2.9-42.3 16.8-38 36.1Zm12.2 19c-3.8 4.5-5.8 16-3.6 21.4 2.9 7.3 16.8 6.2 23.3 7.7 5.1 1.2 28.2 9.3 30.9 8.1 10.4-4.6 3.4-27.5-2.5-34.5-10.9-12.7-36.6-16.3-48.1-2.7m-2.4 77.7-13 2.5-5 3.5c21.5 2.1 38.8 15.7 57.6 25 37.8-6.6 39.8-50.9 4.2-63.2-10.5-3.7-38.4-6.3-48.8-3.3-4 1.2-7.8 4.4-7 9 1.4 8 27.9 10.4 28 13 0 2.9-12.4-.4-14.4-.5-2.4-.2-13.4-.4-14.6.5-6 4.1 9.4 13.4 13 13.6Zm-27 20c.4 1.9 2 1.8 3.5 2 .8 0 11.9.5 8.5 3-2.2 1.7-17.5-1.9-15.8 10.2.7 5 4.3 6.6 5.8 10.8-5.3-1.6-10.4-2.5-16-2 0 1.4 0 2.8.2 4.3 1.4 7.1 20.1 18.2 25.8 23.2 6.4 5.6 11.6 13.8 18.5 19.5 11.5 9.6 18.3 15 32.2 6.2 12.5-7.9 13-26.1 11.3-39.7-2.2-18.3-48.1-39.6-64.5-39.5-3.3 0-6.3 1.6-9.5 2.1Zm-29.8 42.2c-17.8-2-22.3 21.8-20.2 35.2.7 4.5 9.7 20.9 12.5 25.5 6.3 10.2 23.1 31 34.4 34.6 21.4 6.8 42.8-14.3 36.5-35.5-5.8-19.6-42.3-57.4-63.3-59.7Zm-23.2 76.8c-14.2-5.5-17.9-30.8-34.7-32.8-2.6-.3-2.4 5.9-2.4 7.3.7 21.6 19.6 56 34.1 72 6.5 7.2 15.7 10.8 25 13.5-3.1-8.8-12.2-10.9-18.5-16-.9-.7-6.7-5.9-5.5-7 10.7 2.6 23.1 13.3 34.3 10.8 9.3-2.1 3-12.7 0-17.7-12.5-22.2-32.2-43.7-40.7-68.3-.4-1.2-3.4-15.6-4.7-13.8.4 18.1 9.3 34.5 13 52Zm6 81c-.6-1.9-13-9.2-11-11 5-.4 9.6 1.7 14.5 2 1.3 0 6.3.7 6.5-1-30.3-11.1-48-41.6-59-70.5l-8.5-34.5c-6.3 10-5.3 24.8-3.1 36 3.3 16.4 28 58.3 41.1 68.9 4.8 3.9 13.5 9.8 19.5 10Z" class="outline shading" data-original-prefix="shading" opacity="0.5" style="opacity: 0.5"/><path id="shading-head2" fill="#aaaaaa" d="M1206.2 959c2.1-.4 2.6.2 4 1.5 2.9 2.6 19.8 27.8 22.5 32.5.8 1.3 2 2 1.5 4-2.7 2.7-13.5-7.8-15.4-10.1-2.9-3.5-15.4-24.9-12.6-27.9" class="outline shading" data-original-prefix="shading" opacity="0.5" style="opacity: 0.5"/><path id="outline-head3" fill="#000000" d="M772 912c-.9 0-4 7.5-4.5 9 1.1-2.3 5.6-5.6 5.5-8 0-.8-.2-1-1-1" class="outline" data-original-prefix="outline"/><path id="outline-head2" fill="#000000" d="M1265.2 913c0 2.4 4.4 5.7 5.5 8-.5-1.4-3.6-8.9-4.5-9-.8 0-1 .2-1 1" class="outline" data-original-prefix="outline"/><path id="outline-head5" fill="#000000" d="M816.9 1052.3c-2.6 4.2-74.2 20.2-107.3-13.5-2.5-2.5-2.4-6.6-4.8-9.2s-12.7-7.5-17-11c-9.2-7.4-13.6-16.8-15.4-25-4.6-4-17.5-7.2-23.4-11.2-17.8-11.9-18.3-21-20.3-40.7s-7.8-9-13-14c-12.5-12.1-21.5-42-20-59s3.3-10.6 3-13.9-7.3-13.9-9-19.1c-5.6-17.3-7.4-34.6-.8-51.8s4.5-5.9 4.8-10.2-2.7-12.8-3.1-19c-1-15.3 1.4-29 8.9-42.2 2.4-4.2 6.8-8.3 8.2-12.8 3.3-10.7.6-19.6 7.2-31.8 3.3-6 11.6-10.4 13.2-13.8s1.6-8.6 2.8-12.2c2.5-7.3 7.6-17.5 12.7-23.3s5.7-3.8 6.5-5.5c2.4-5.4 1.8-11 6.1-17.9s10.4-7.8 13.4-12.6 3.1-9.1 5.1-12.7c7.9-14.4 22.1-19.7 31.3-30 1.9-2.2 3.9-6.4 6.1-8.8 11.7-13.2 38-25.3 55.1-29.9 10.9-2.9 31.8-6.7 19.4 11.2-6 8.6-17.5 19.8-24.7 28.7s-9.6 11.5-14.3 17.5-6.8 5.9-9 10-1.6 10.6-3.5 16.5-10.9 20.7-12.3 26.7.8 17.8-3.8 27.2-4.8 5.3-5.2 6.8c-.8 2.6 1.2 11.9.7 16.7s-5.2 14.5-5.7 19.3 1.8 7.2 1.8 10.7c0 6.1-3.3 15.9-3.1 21s3.2 8.8 4.2 12.9c1.8 7.2 2.3 14.8 1.8 22.1s-2 6.1-1.7 7.9 6.3 7.6 7.3 11.6-.1 6.6 1.2 9.8 4.8 4.6 6.4 8.6.5 8 1.3 9.7 10.6 6.4 14 11.1 5.3 17.9 7.1 19.9 10.1 4.1 12.5 5.5c4.9 2.7 11.5 8.7 14.9 13.1s5.6 10.3 7 11c2.3 1.1 5.6.1 8.3.7 13.3 3 28 13.3 35.2 24.8s5.7 12.7 7.1 13.9 13.9 4.4 17.5 6.5c22.9 12.9 44.3 54 44 80s-8.8 25.6-18 33.5c6.8-24.6 1.7-59.8-15-79.5s-25.2-24-28-21.5c-2.2 16.7-8.5 32.3-16.5 47-13.7 25.2-43.5 63.5-72.5 70.5s-14.3 2.2-21 2.5c.6 4.4 6.2 6.1 9.6 7.9 26.1 13.5 33.7 13.7 61.8 12.4 6.4-.3 14.4-2.5 20.6-3.1Zm-70.7-511.7c2.2-2.9 6.3-6.1 8.3-9.2l16.7-18.4c1.3-7.9-43.5 15-50.5 33.6 2.7 1.6 5 3.7 7.1 6.1s1.9 6.8 5.1 3.9 10.4-12 13.4-15.9ZM722 557.3c-2.9-3.2-10.7-4.1-14.7-2s-10 8.5-11.6 10.4-12.2 14.3-10.6 17.2 9.6.4 21 11.3 4.6 4.8 7 7c1.9 0 10-24.4 11.4-27.6s-.4-13.6-2.6-16.2Zm-43.5 35c-4.2 1.1-15.4 11.7-12.3 16.8s14.4 6.4 17.1 8 7 4.4 9.5 6.5 8.1 9.6 9 10.1c4 2.2 6.7-7 7-10 1.7-13.8-4.5-24.5-16.1-30.4s-8.7-2.3-14.1-.9Zm-32.3 56.8c2.3.7 10.5 1.2 13.9 1.2s17.9 5.6 21.3 7.6 14.1 10.8 15 11.1c5.2 1.4 5.6-10.1 5.3-13.4-.9-9.6-12.1-27.5-20.5-32-12.5-6.8-21.7-3.3-29.4 8.1s-9.7 16.2-5.5 17.5Zm52.3 54.8c.4-.5 1.1-5.2 1.2-6.3 1.1-13.3-4.4-22.1-14.1-29.7-19-14.9-44.1-18.2-57.9 6.7-1.5 2.8-7.1 15.4-5.6 17.6s14.4-1.7 18.1-2c12.9-1.1 28.2.8 40.2 5.8s12 8.1 14.3 8.8 3.3 0 3.8-.8Zm.2 48.2c5.1-26.8-9.9-45.9-35.1-52.1-39.3-9.7-66.2 22.2-58.9 60.6.3 1.6 1.2 2.7 2.6 3.5 12-7.7 26.2-12.9 40.2-15.7 17.2-3.4 35.4-5.4 51.2 3.7m13 44c1.4-2-4.5-7.6-5.5-10-4.9-11.8 1.3-19-14.8-26.2-18.2-8.1-38.2-7.3-56.3-.7-33.2 12.1-41.3 42.5-29.8 74.9s4.2 11.2 6.5 10.6 16.2-13.1 19.6-15.4c17.6-11.9 46.1-24.8 66.5-30.5 2.3-.7 13.4-2.1 13.8-2.7m17.5 23.5c-18.5-23.6-57.2-7.1-77.8 5-29 16.9-48.2 39.3-35.9 75.2 3.2 9.5 15.4 27.1 26.8 19.2 6.4-4.4 22.1-21 28.5-27.5s16.6-19.5 26.5-28.5c11.8-10.7 25.8-19.7 36.1-31.9 1.5-4.3-1.6-8.3-4.1-11.5ZM689.5 880c-12.1 11.7-40.5 43.5-42.7 59.7s7.3 21.9 16 28.8c18.3 14.7 27.9 10.8 45.6-2.2s27.3-28.1 35.4-42.6c9.6-17.1 31.5-62.4 8.4-75.7s-19.9-.6-30 7.1c-10.8 8.1-23.1 15.6-32.7 24.8Zm86.2 13.6c.6-5.4 0-12.3 0-18s-1-2.9-2-2.5c-1.7 19.1-11.3 37.1-21.2 53.3-14 23-35.4 49.2-58.3 63.7-1.1.7-2.2 1.1-3.5 1 2.3 8.1 8.1 8 15.5 7 7.5-1.1 28.8-10.4 27.5-9-4.3 4.3-18.2 14.9-22 15 2.3 2.5 10.8 3.1 14.5 3.1s32.8-3.6 34.2-4.1c4.4-1.3-7 6.1-9 7.2-4 2.2-18 7.4-22.5 8.5s-8.7 1.6-13.2 1.3c-.4 1 2.3 2 2.5 2 0 0 5.6 2.1 18 0s27.4-12.5 33.8-17.2c18.2-13.4 30.2-28.9 39.6-49.4s17.4-43.6 2.1-57.4c-.4 8.7-2.2 17.5-4.7 25.8-5.4 17.9-14.9 37.9-27.5 51.8s-33.6 24.1-13 5.7c5.2-4.7 13-16.7 17-23.5 10.8-18.6 19.8-43.4 19.3-65.2-.2-6.8-9.3-15-16-15.5-2.3 17.1-4.1 31.7-16.4 44.6s-5.3 5.9-8.6 7.4c5.5-11.6 12.6-21.8 14-35.5Z" class="outline" data-original-prefix="outline"/><path id="outline-head1" fill="#000000" d="M1243.8 1055.3c28.1 1.3 35.7 1.1 61.8-12.4s9-3.5 9.6-7.9c-6.7-.3-14.5-.9-21-2.5-29-7.1-58.8-45.3-72.5-70.5-7.9-14.7-14.3-30.3-16.5-47-2.8-2.6-25.4 18.4-28 21.5-16.7 19.8-21.8 55-15 79.5-9.1-8-17.9-23.5-18-33.5-.4-26 21-67.2 44-80 3.6-2 16.7-5.7 17.5-6.5 1.4-1.2 5.3-11.1 7.1-13.9 7.2-11.6 21.8-21.9 35.2-24.8 2.7-.6 5.9.4 8.3-.7s5.2-8.6 7-11c3.4-4.4 10.1-10.4 14.9-13.1s11.6-4.4 12.5-5.5c1.7-2.1 3-14.2 7.1-19.9s13-8.8 14-11.1-.3-5.8 1.3-9.7 5.3-5.9 6.4-8.6.4-6.4 1.2-9.8 6.9-9.5 7.3-11.6-1.6-5.4-1.7-7.9c-.4-7.4 0-15 1.8-22.1s4.1-8.9 4.2-12.9c.2-5.1-3.1-14.9-3.1-21s2.1-7.5 1.8-10.7c-.5-4.9-5-12.8-5.7-19.3s1.5-14.1.7-16.7-4-4.4-5.2-6.8c-4.6-9.4-1.9-18.7-3.8-27.2-1.4-6-10-19.7-12.3-26.7s-.7-11.2-3.5-16.5-6.3-6.5-9-10c-4.7-6-9.6-11.7-14.3-17.5-7.2-8.9-18.8-20.1-24.7-28.7-12.4-17.9 8.5-14.1 19.4-11.2 17.1 4.6 43.4 16.7 55.1 29.9 2.2 2.4 4.2 6.7 6.1 8.8 9.2 10.3 23.3 15.6 31.3 30s2.9 9.4 5.1 12.7c3.1 4.7 9.2 5.8 13.4 12.6s3.7 12.5 6.1 17.9c.8 1.8 4.8 3.6 6.5 5.5 5.1 5.7 10.2 16 12.7 23.3s1.5 9.3 2.8 12.2 9.9 7.8 13.2 13.8c6.7 12.2 3.9 21.1 7.2 31.8s5.8 8.6 8.2 12.8c7.5 13.2 9.8 27 8.9 42.2-.4 6.1-3.6 13.5-3.1 19 .4 4.3 3.4 6.6 4.8 10.2 6.7 17.2 4.8 34.5-.8 51.8-1.7 5.2-8.7 16.2-9 19.1s2.6 9.7 3 13.9c1.6 17-7.4 46.9-20 59s-12.2 5.9-13 14c-2 19.7-2.4 28.9-20.3 40.7s-18.8 7.1-23.4 11.2c-1.8 8.2-6.2 17.6-15.4 25s-13.9 7.5-17 11c-2.4 2.7-2.3 6.8-4.8 9.2-33.1 33.7-104.7 17.7-107.3 13.5 6.3.5 14.3 2.8 20.6 3.1Zm63.4-498.8c3.1 3 3.5-2 5.1-3.9s4.3-4.5 7.1-6.1c-7-18.7-51.8-41.5-50.5-33.6l16.7 18.4c2 3.1 6.1 6.3 8.3 9.2 3 3.9 10.8 13.5 13.4 15.9Zm8.1 16.9c1.5 3.2 9.5 27.6 11.4 27.6 2.5-2.1 4.7-4.7 7-7 11.4-10.9 20.4-10.3 21-11.3 1.7-2.8-8.4-14.8-10.6-17.2s-9.9-9.5-11.6-10.4c-3.9-2-11.8-1.2-14.7 2s-4.4 12.3-2.6 16.2Zm32.1 19.9c-11.6 5.8-17.8 16.5-16.1 30.4.4 3 3 12.2 7 10s6.7-8.1 9-10.1c2.5-2.1 6.6-4.9 9.5-6.5s16.6-7.1 17.1-8c3.1-5.1-8-15.7-12.3-16.8-5.4-1.4-9.6-1.3-14.1.9Zm40.8 38.3c-7.7-11.3-16.9-14.9-29.4-8.1s-19.6 22.5-20.5 32 .1 14.8 5.3 13.4 12-9.3 15-11.1 18.3-7.6 21.3-7.6 11.6-.6 13.9-1.2c4.2-1.2-3.9-15-5.5-17.5Zm-42.9 73.1c2.3-.7 9.9-7 14.3-8.8 12-5 27.3-6.9 40.2-5.8s16.4 4.4 18.1 2-4-14.8-5.6-17.6c-13.7-24.8-38.9-21.6-57.9-6.7s-15.2 16.4-14.1 29.7c0 1.1.8 5.8 1.2 6.3.6.8 2.8 1.1 3.8.8Zm47.2 43.7c14 2.8 28.2 7.9 40.2 15.7 1.4-.8 2.3-1.8 2.6-3.5 7.3-38.5-19.6-70.4-58.9-60.6s-40.1 25.4-35.1 52.1c15.8-9.1 34-7.1 51.2-3.7m-50.4 50.4c20.4 5.7 49 18.6 66.5 30.5 3.4 2.3 17.9 15 19.6 15.4s5.8-8.6 6.5-10.6c11.4-32.4 3.3-62.7-29.8-74.9-18.1-6.6-38.1-7.4-56.3.7-16.1 7.2-10 14.4-14.8 26.2s-6.9 8-5.5 10 11.4 2.1 13.8 2.7m-35.4 32.3c10.3 12.2 22.1 21.8 33.9 32.6 9.8 9 19.7 18.8 28.7 27.9 6.4 6.5 22.1 23.1 28.5 27.5 11.3 7.9 23.5-9.7 26.8-19.2 12.3-36-5.8-57.9-34.8-74.8-20.7-12.1-60.4-29-79-5.4-2.5 3.2-5.7 7.2-4.1 11.5Zm11 24c-10.1-7.6-16.8-14.6-30-7.1-23.1 13.3-1.2 58.6 8.4 75.7 8.1 14.5 22.1 32.8 35.4 42.6 17.7 13 27.3 16.9 45.6 2.2s17.6-17 16-28.8-32.4-46.2-44.6-57.9c-9.6-9.2-20.1-18.5-30.9-26.6Zm-39.4 74c-3.3-1.5-6.8-5.6-8.6-7.4-12.3-12.8-14.1-27.5-16.4-44.6-6.8.6-15.9 8.7-16 15.5-.5 21.9 8.5 46.7 19.3 65.2 3.9 6.8 11.8 18.8 17 23.5 20.6 18.4-10.1-2.5-13-5.7-12.6-13.9-22.1-33.9-27.5-51.8-2.5-8.3-4.3-17.1-4.7-25.8-15.3 13.7-5.2 41.4 2.1 57.4 9.4 20.5 21.4 36 39.6 49.4 6.4 4.7 21.5 15.1 33.8 17.2s18 0 18 0c.2 0 2.9-1 2.5-2-4.5.3-8.8-.3-13.2-1.3s-18.5-6.3-22.5-8.5-13.4-8.5-9-7.2 29.6 4 34.2 4.1 12.2-.5 14.5-3.1c-3.8-.2-17.7-10.7-22-15-1.3-1.3 20 7.9 27.5 9 7.4 1.1 13.2 1.1 15.5-7-1.3.1-2.4-.3-3.5-1-22.9-14.4-44.3-40.7-58.3-63.7-9.9-16.2-19.5-34.2-21.2-53.3-1-.4-2 2.3-2 2.5 0 5.7-.6 12.6 0 18 1.4 13.7 8.5 23.9 14 35.5Z" class="outline" data-original-prefix="outline"/>
    </g>
</svg>