<?xml version="1.0" encoding="UTF-8"?>
<?xml-stylesheet type="text/css" href="../styles/semantic.css" ?>
<svg xmlns="http://www.w3.org/2000/svg" viewBox="0 0 2048 2048">
  <g class="trait-group" data-category="background" id="background-popart">
      <defs>
    <!-- Pop art dot pattern -->
    <pattern id="popart-dots" x="0" y="0" width="100" height="100" patternUnits="userSpaceOnUse">
      <circle cx="25" cy="25" r="20" fill="#FF1493" opacity="0.8"/>
      <circle cx="75" cy="25" r="20" fill="#00FFFF" opacity="0.8"/>
      <circle cx="25" cy="75" r="20" fill="#FFFF00" opacity="0.8"/>
      <circle cx="75" cy="75" r="20" fill="#FF4500" opacity="0.8"/>
    </pattern>
    
    <!-- Diagonal stripes pattern -->
    <pattern id="popart-stripes" x="0" y="0" width="40" height="40" patternUnits="userSpaceOnUse" patternTransform="rotate(45)">
      <rect x="0" y="0" width="20" height="40" fill="#FF1493" opacity="0.3"/>
      <rect x="20" y="0" width="20" height="40" fill="#00FFFF" opacity="0.3"/>
    </pattern>
  </defs>
  
  <!-- Base color -->
  <rect id="color-popart-bg" class="color" width="2048" height="2048" fill="#FF69B4"/>
  
  <!-- Patterns -->
  <rect id="color-popart-dots" class="color" width="2048" height="2048" fill="url(#popart-dots)"/>
  <rect id="color-popart-stripes" class="color" width="2048" height="2048" fill="url(#popart-stripes)"/>
    </g><g class="trait-group" data-category="jaw" id="jaw-OG">
      <!-- Generator: Adobe Illustrator 29.1.0, SVG Export Plug-In . SVG Version: 2.1.0 Build 142)  -->
  <defs>
    
  </defs>
  <path id="fill-jaw" class="fill" d="M1396.7,1438.7c-6.7,4.3-46.8-1.7-48.7.3l-12.2,69.8-57.2,29.3-1.4,1.6c-1.5,11.9,1.5,24.2.9,35.9-.3,4.9-1.3,15-2.3,19.7-.6,2.8-13.7,32.2-15,33.5s-16.1,8.9-16.7,8.3l-9.5-50-51,52c-7.7,5.7-20.7,9.3-27.5,15.5-14,12.7-25.2,37.4-42.1,47.9-5.4,3.3-61.3,25.7-66.7,26.3-13.8,1.7-33-3.3-47.7.2-17.7-10.3-50.1-16.2-66.1-26.9-14.3-9.6-28.3-35.6-41.4-47.6-6.7-6.1-19.9-9.6-27.5-15.4l-51-52-9.6,48.4c-.6.9-.9,1.7-2.2,1.5-.8,0-13.8-7.6-14.4-8.2-1.4-1.4-15.9-33.3-16.2-35.3l-.5-54.4-58.2-30.3-12.3-69.7c-8.1-1.2-45.1,3.9-49.5-1l-37.1-85-.5-3.4,31.5-70.6c5.3-1.6,29.1,0,31.3-6.7.8-2.3-.6-19.5-1.3-22.4-2.2-8.4-16.2-24-19.8-33.2-.7-1.7-1.2-3.1-.6-5,4.7-11.3,10.3-22.3,14.1-34,7.3-22.4,7.2-42.6,16.9-65.1,47.5-110.2,188.9-176,299.9-200.1,44.7-9.7,79.8-1.5,122.7,11.2,98,28.9,222.6,97.5,259,199,6.8,19,7,38.1,13.5,57.5,3.8,11.2,10.1,22.1,13.7,33.4,0,1.4-8.3,16.4-9.8,19.1-2.4,4.3-9.7,13.4-10.7,17.3-1.8,6.8-.6,15.6-2.3,22.5,9.9,7.9,21.3,4.2,32.4,6.5,9.6,23.9,23.5,46,31.4,70.6-9.8,26.3-22.2,51.8-33.2,77.7-1.3,3-1.7,9.3-5.1,11.4h0Z" fill="#ffffff"/>
  <path id="shading-jaw" class="shading" d="M1380.8,1185.8c-.2.4-2.1.7-2.8,1.7-8.6,10.8-16.2,26-21,39-4.2,11.4-5.1,22.7-13,32-18.8,22.4-51.8,45.5-78.3,57.7-5.4,2.5-12.5,3.7-16.7,7.8h20.5c2.7,0,5.1,1.2,7.9,1.1,18.1-.2,64.4-19.8,77.5-32.6,5.7-5.5,14.1-15.7,15-23.5,1.8,0,.7,2.4,1.5,4,3.1,5.9,15.5,5.2,21.5,6,.2,1.6-1.5.7-2.3,2.2-4.6,8.3-4.4,21.6-10.6,28.3-7.5,8.1-37.1,13.5-48.8,17.2-14.5,4.6-29.8,8.8-42,18.1l-52.8-14.8c-19.3-2.3-9.9,15.4-5.3,25.3,5.2,11.3,20.7,40,30.4,46.6,11.9,8.2,22.7-10.2,30-17,6.3-6,16.2-11.8,24.6-14.4,17.7-5.6,32.3,4.7,50.5,5.4,17.4.8,34.6-7.7,48.8-17.2,3.6-2.4,14.6-13.9,17.2-13.8,1.7,0,3.3,6.1,1.8,7.8-10.1,24.3-21.6,48-31.8,72.2-3.7,8.8-.8,14-13,15-9.3.7-15.8-1-24.2-1.8-4.8-.4-11.8,2.5-17.3-.2l-12.9,70.6-59,30.5c.4,11,2.6,23.6,2,34.5-.3,5.7-1.3,15.4-2.1,20.9-.5,3.1-13.4,31.4-15.4,33.6-3,3.2-11.6,6.2-15.5,9-.8-4.9-2.7-10.6-3-15.5-.6-11.2,2-11.3-2.7-23.2-.4-1.1-1.9-1-2.2-2-.8-2.2-.8-6.7-1.1-9.2l-2.3.2-50.2,51.8c-7.7,5.2-19.5,8.7-26.5,14.5-14.2,11.7-24.4,36.1-41.5,47.5-6.7,4.5-54.2,25.7-61.2,26.8-9.9,1.5-51.8,1.6-61.5,0-6.9-1.2-49.7-20.5-57.3-24.7-15.8-8.9-30.2-37.8-44.4-49.6-6.9-5.7-19-9.3-26.5-14.5l-51-52c-1,8.1-7.3,16-8.1,24-.6,6.2.6,14.6-.3,21.6-.2,1.7-3,1.8-2.1,4.4-.6.7-14.6-8.1-15.5-9-1.7-1.8-15-30.8-15.4-33.6-.7-4.4-.9-13-1.1-17.9-.5-12.2.6-24.4.5-36.6l-58.5-31.4-13-69.5-48.8-.2-38-86.6.9-6.2c8.2.4,11.8,8.2,18.6,12.7,25.3,16.9,38.4,19.8,68.5,13.9,17.1-3.4,19.1-7.5,37.2.4,15.9,7,19,16.2,30.6,25.4,9.6,7.6,13.6,7.9,22-1s31.8-49.1,32.1-60c.2-8.7-6.4-8.1-13.3-7.2-8.6,1.1-48.4,15.1-51,14.6-1.7-.4-12.3-7.9-16.5-9.6-20.3-8.4-48.8-11.8-67.2-20.8-14.9-7.3-11.3-20.9-17.7-33.2-.9-1.6-2.5-.6-2.3-2.2,6.3-.9,17,0,21-5.5,1-1.4.3-3.7,2-3.5,3,11.7,15.2,23.9,25.1,30.4,21.2,13.8,50.4,23.7,75.4,23.5h20.5l-34.7-16.8c-19.1-10.8-48.2-33.1-61.8-50.2-6.2-7.8-7.1-18.3-10.5-27.5-6-16.6-14.4-32-25-46,1.3-9,6.5-19.6,7.8-28.2,1.9-12.9,1.8-19.5,6.5-32.5,36.4-101.1,159.2-169,256.8-198.2,49.9-15,102.4-18.2,153.2-5.2,103.5,26.4,242.6,100.3,277.2,208.8,3.4,10.5,3,17.3,4.8,27.2.8,4.7,8.9,28.4,7.6,30.6l-.5-.2ZM1195.9,1382.1c-32.3-16.1-63.1-35.3-95.9-50.7-17.5-18.7-37.4-36.6-54.6-55.4-4.8-5.3-11.2-16-16-20-3-2.6-7.4-3-10.6-.6-4.5,3.4-12.7,16.4-17.4,21.6-16.7,18.6-36.8,35.6-53.6,54.4-32.9,15.3-64,34.2-96,51.2-.6,2.8,12.4,35,14.6,40.3,2.9,7.1,12.1,31.7,16,36.1,7.1,8,36.5,26.3,47,33,19.8,12.7,36.1,22.9,59.3,28.7,27.3,6.8,39.7,7.1,67,.6s43-16.6,65.7-31.3c10.4-6.8,35.9-22.5,43.4-30.6,4-4.4,12.7-27.4,15.6-34.4,2.1-5.1,16.8-41,15.5-42.9M728.3,1496.7c1.6,2,8.2,6.3,10.7,7.8,14.7,8.8,31.8,13.8,46.9,23.1,16.8,10.2,40.2,33.1,59.6,33.5,2.3,0,8.7-1.2,9.4-3.7s-13.6-27.6-16.4-30.3c-7.3-7.1-27.5-17.2-37.2-23.8-15.2-10.3-50.3-39.1-67.9-39.2-10.5,0-8.7,28.1-5.1,32.7h0ZM1319.7,1466.3c-5.9-5.9-24.1,4.1-30.4,7.6-16.2,8.9-31,21.4-46.2,31.8-12.7,8.7-30.1,15.7-38.6,28.4-2.2,3.4-10.8,17.7-11.4,20.7-1.1,5.3,6.2,6.5,10.3,6.3,16-.9,23.4-9.7,35.2-17.8,9.2-6.3,19.3-13.6,29-19,11.7-6.6,47.1-19.2,52.7-29.3,2.4-4.3,2.8-25.2-.7-28.6h0ZM1126,1664c-12-2.7-20.7,6.6-31.6,7.9-5.7.7-12.2-1.2-16.6-.7-7.1.8-22.9,12.1-31.2,14.9-14.8,4.9-30.2,4.7-45.1,0-8.8-2.8-23.9-14.1-31.2-14.9-4.4-.5-10.9,1.4-16.6.7-11-1.3-19.9-11-31.6-7.4,0,6.9,23.8,23.5,30,27,12.5,7.1,59.8,26.8,72.5,26.6s59.9-19.8,72.2-26.9c10.3-6,24.6-16.2,29.3-27.2h-.1Z" fill="#aaaaaa" style="opacity: 0.5" opacity="0.5"/>
  <path id="outline-jaw" d="M676,1140c5.3-3,18.5-3.6,19.1,4.5-2,7,0,18.6-3.2,24.9s-17.1,12.9-20.3,20.7c-1.1,2.6-6.2,25.4-6.5,28.5,0,1.3-.2,2.3.2,3.6,1.8,6.8,14.7,21.7,18.7,29.4,5,9.8,6.5,20.8,10.3,30.7,5.7,14.4,14.5,13.4,26.1,19.9,7.6,4.3,16,10.2,22.7,15.8-3.8,0-7.5.2-11.2-.2-8.4-1.1-30.6-5.8-38-8.9-9.8-4.2-8.9-17-13.8-20.2-2.7-1.8-8.7-1.2-12-2-6-1.4-9.7-6.6-16.7-1.3-6,11.6-13.4,22.6-19.2,34.3-7.3,15-16,27.5-6.5,43.3,5.5,9.2,23.4,26.5,26,35,2.4,7.9-2.3,28.2,2.4,33.6,7.5,8.5,28.6,4.4,35.5-3.6,2-2.4,2.5-6.3,4-9,6.3-10.9,19-25.2,30.7-30.3,12.2-5.3,16.1,11.4,18.4,20.3,3.6,14.2,1.3,26.5,12,38,6.7,7.3,18.2,14.5,27.2,18.8,4.7,2.2,21.2,9.9,25.3,10.7,12.8,2.4,25.4-6.5,32.6-16.5,2-2.8,2.8-6.3,4.7-9.3,9-14.8,16.3-6.2,25.8,1.8,11,9.2,20.9,19.8,32,29,45.8,38.3,90.7,54.1,151.4,45.3,58.2-8.4,83.7-40.7,125.7-75.3,2.2-1.8,8.8-7.7,10.8-8.2,12.1-3.2,14.2,10.5,19.7,17.8,5.7,7.4,15.3,15.6,25,16,7,.3,27.7-8.7,34.9-12.2,10.9-5.3,28.8-17.6,32.4-29.6,2.2-7.6,2.6-17.3,4.6-25.4,2.3-9,6.1-26.7,18.6-21.2,9.4,4.1,22,16.8,27.5,25.5,5.6,8.9,3.9,13.8,14.9,19.1,7.3,3.5,20.9,5,27.1-1.3,5.8-5.8.5-25.5,3-34,2.6-8.8,20.8-26.2,26.4-35.6,8.1-13.8,2.8-20.8-3-33.7-6.7-15-15.5-28.9-23.1-43.4-6.9-5.2-11.2-.2-17.5,1.5-3,.8-8.4,0-11.2,1.8s-5.1,12.8-8.6,16.4c-2.4,2.4-6.7,4-9.9,5.1-7.8,2.7-25.9,6.9-34.1,7.9-3.4.4-7,0-10.4,0,6.2-5.6,14.7-11.2,22.1-15.4,10.5-5.9,20.2-6.1,25.7-18.3,4.2-9.5,5.8-20.9,10.4-30.6,4.3-9,17.4-23.9,19.4-31.6.4-1.7.5-2.5.2-4.2-.6-4.5-5.3-24.5-6.9-28.2-3.4-7.8-19.2-16-20.8-22.2-.9-3.4-2.7-24.1-1.6-26.4,2.2-4.5,13.6-3.5,17.5-1,.8,2.8,2.9,13.6,4.2,14.8,4,3.5,21.3,4.8,24.5,11,2.5,4.8,0,15.5.2,21.8,0,2.9.8,7.8,1.3,10.7,1.5,8.6,9.7,23.3,7,30.5-2.3,5.9-12.8,22-16.8,28.2-3.3,5.1-7.9,9.5-10.4,15.1.7.7,9.7-4.6,10.9-5.6,5.4-4.1,7.6-12.1,14.6-5.5,4.7,4.4,13.6,18.5,17.5,24.5,10.1,15.9,19.6,34.4,25.7,52.3,1.6,4.7,5.8,14.8,3.7,19.2-.7,1.6-9.2,9.8-11.3,12.7-16.3,21.9-31.2,47.4-32.7,75.3-.8,1.3-2.2,1.8-3.5,2.5-5.7,2.8-27.3,11.7-32.6,12.4-3,.4-6.5.3-9.5-.3-4.5-.9-7-4.1-10.9-5.6-1.1,9.1-2.6,18.4-3,27.5-.4,7.8,1.5,32.2-.6,37.4-.4,1.1-11.8,14.9-12.7,15.3-3.8,1.8-11.7.3-16.3.7-13.5,1.3-21.2,15.2-25.2,26.8-4.6,13.3-5.2,27.9-9.2,40.8-5.8,19.3-37.7,50-54.2,61.8-.9.6-4.2,3.4-4.9,2.6,1-15.3,2.8-31.2-2.6-46-.3-.9-1.8-5.7-3.4-4-.6.6-3.5,12.5-6.2,16.3-8.3,11.9-29.2,7.9-37.8,19.2-9.5,12.3-7.6,28.7-22.1,38.9-32,22.4-79.6,38.4-117.7,46.3-12.4,2.6-16.8,2.3-29-.4-35-7.6-67.9-18.6-99.2-35.8-5.1-2.8-20.9-11.4-23.8-15.2-6.2-8-8.6-25.8-15.6-34.4-9.6-11.7-30.7-5.5-39.2-21.8-1.5-2.8-3.8-12.7-4.3-13.2-1.8-1.8-3.8,4.8-4,5.4-4.5,13.8-3.1,29.3-2,43.5-1.7,1.8-16.8-10.7-19-12.5-15.1-12.7-36.9-37.3-41.5-56.5s-7.6-59.5-33-62c-4.4-.4-13.1,1-16.5-.5-.9-.4-12.1-14.4-12.5-15.5-2.6-7.5-.2-27.3-.6-36.4s-2.3-19.1-3-28.5c-.4-.5-9.5,5.3-11.7,5.8-13.3,2.8-32.2-10.6-45.1-13.9-.7-27.4-14.8-51.6-30.3-73.2-2.2-3.1-4.5-6.2-6.8-9.2-4.1-5.2-7.9-4.8-6.9-12.9,1.3-10.6,13.1-35.4,18.4-45.6,3.6-6.8,26.1-44.2,31.2-45.8,7.3-2.2,13.1,11.5,21.3,11.8l-25.5-40.9c-4-9.3,4.3-21.7,6.2-31.8s.2-19.2,1.3-28.7,18.5-11,25.8-14.7c2.6-2.8,1-6.8,1.5-9,.4-1.9,1.3-3.7,1.8-5.8h-.5ZM799,1627.5v-20c0-3.1,8.8-25.7,11-27,4.3-2.7,20.4,9.8,24,13,12,10.5,20.7,26.3,32,36,8.5,7.4,21.1,12,29.5,19.5,10.9,9.6,20.1,26.5,30.5,37.5,11,11.7,29.8,18.4,44.7,24.3,25.1,9.9,38.9,14.1,66.8,12.3,16.1-1,62.3-19.4,76.4-28.6,13.7-8.9,25-32.9,37.6-44.4,9.3-8.6,24.5-14.2,33.6-22.4,10.1-9.2,18.3-23.6,29.4-33.6,3.6-3.3,19.9-16.8,24.4-13.8.8.6,6.9,16.7,7.6,18.9.5,1.7,2.5,8.4,2.5,9.5v17c0,.6-1.6,2-1,3.5,10.4-10.7,20.8-25.9,23.6-40.9,2.4-12.9,1.4-27.4.4-40.5-.3-4-2.6-6.9-.8-10.8,3.7-8.5,20.8-15.9,29.2-19.9s24.7-7.7,29.1-15.9c4.6-8.5,2.6-32.2,3.7-43.3,1-10.3,7.7-19.4,6.9-29.1-.6-6.6-5.4-16.3-10-21-1.5-1.5-8.2-6.7-10-5.5-1.8,1.3-7.1,27.7-7.1,31.5,0,7.3,4.4,13.6-2.4,19.5-17.3,15-41.2,23.8-61.1,34.9-5.5,3.1-23.5,16.8-28.6,16-2.7-.4-5.4-3.6-9.2-3.9-11.7-.8-14.9,8.5-22,15-16.4,14.9-41.2,22.8-63,25-69.3,7-135.6,7.1-205,0-22-2.2-45.8-9.7-62.5-24.5-7.2-6.4-10.9-16.4-22.5-15.6-3.7.2-7.5,4-9.8,3.8-5.4-.5-21.2-12.7-27-15.9-13.4-7.4-27.8-13.2-41-21-4.6-2.7-22.9-14-23.7-18.3-1-5.2,1.1-10.4,1.1-15s-5.6-31.3-7.6-31.5c-7.7-.9-16.7,15.1-18.5,21.5-4.1,14,4.6,20.6,5.9,34.2,1.4,13.7-4.1,40.6,8.8,49.2s39.9,13.7,50.8,26.2c5.6,6.4,1.4,8.6.7,15.6-3.2,29.7,1.3,54.7,20.9,77.8.5.6,3.9,4,2,1l-.3-.3Z" class="outline" fill="#000000"/>
    </g><g class="trait-group" data-category="mouth" id="mouth-cracked scrappy">
      <path id="fill-muzzle-1" fill="#ffffff" d="M1038 1292s-.4 1.7.7 2c10.3 2.8 18 4.3 25.8 13 1.9 2.2 4.9 8.8 6.5 9.5 2.6 1.2 6.6 0 9.5.5 11.4 1.5 21.2 3.7 31.2 9.8 2.1 1.3 9.2 7.8 10.2 7.1.3-.3 0-1.7 0-1.9 2.4-1.8 32.7.6 38 1 5.2 4.2 13.2 5.5 19.2 8.3 13.7 6.4 22.5 16.1 29.9 29.1 8.4 14.6 7.7 17.8 3.1 33.4-2.5 8.5-4.8 21.8-16.3 20.2 1.5-15.5-14.8-32.4-26.5-41-3.2-2.4-11.3-7.2-6 0 10.7 14.6 20.5 15 21.5 37.5.5 10.4-8.3 32.8-15.4 40.5-.6.7-7.1 6.3-7.6 6.5-3 1.6-6.8-6.1-7.8-8.2-3.7-7.7-4.8-15.6-9.7-23.3-1.1-1.7-10.8-13.7-12.4-12.1 5.6 13 9 46.2-2.5 56-4.4 3.7-9.4 1.9-13.3 3.7-2.8 1.3-3.1 5.8-4.8 6.2-.9.2-7.2-3.2-9.4-3.5-9.3-1.3-13.1 17-18.7 17.4-2.5.2-10.7-11.9-18.4-9.4-6.8 2.2-15.3 20.6-23.6 23.5-7.3-4.5-4.2-14-6.6-21.1-1.2-3.5-4.2-6.7-5.8-10.2-5.4-12.7-2.8-19.9-.2-32.2.7-3.3-.2-6.3 1.2-9.8.4-1 6-11.5 6.6-12.4 3.7-5.4 19.2-12.4 22.7-3.8.9 2.2 0 8.7 2.2 7.7 5.1-4.9 10.2-9.9 15.5-14.5 10.2-8.9 12.8-8.2 19.5-21.5 1.9-3.8 8.1-17.3 8.2-20.7.2-6.3-17.9-22.6-21-29-3.6-2.9-22.1-2.8-27.2-2.3-14.1 1.5-18 12.2-27.5 19.5-1 .8-1.3 1.9-3 1.5l.8-12.7c7.6-8.2 14.9-16.6 21.1-26 .7-3.3-8.6-12.4-11.3-13.2-3.6-1 .5 5.5.5 6.6.4 5.2-5.9 4.1-9.3 5.6-1.2.5-3 2.7-3.2 2.7s-2-2.2-3.2-2.7c-8-3.5-11.7.6-7.3-12.2-1.6-1.7-12.5 9.1-12.9 11.7-.2 1.6 3.6 7.8 4.8 9.5 1.5 2 5 5.9 7 8.3 3.2 3.9 9.7 7.7 9.9 13.1 0 1.6-.8 3.1-.8 4.8s2.6 8.1-2.5 3.6c-6.2-5.3-10.1-13.6-18.5-17.5-6.8-3.1-28.3-4.1-34.7-.8-.8.4-9.9 11.1-11.2 12.8-2.4 3-10.9 13.7-10.8 16.8.2 5.1 11.2 27.9 14.7 32.2 2.8 3.4 10.2 7.7 14 11 5 4.3 9.7 9.1 14.5 13.5 2.2.9 1.5-5.2 2-7 2.4-9.9 19.2-2.4 23 3.1.7.9 6.6 13.1 6.9 14.1 2.9 11 5.6 26.6 1.9 37.5-1.7 4.9-6.8 10.4-7.8 15.2-1.4 6.6 1 13.6-5 19-5.3 1.2-18.8-21.7-24.4-23.5-8.2-2.6-15.9 9.6-18.4 9.4-5.3-.4-8.7-14-13.9-16.1-6.9-2.8-11.5 2.7-14.1 2.1-1.8-.4-2-4.8-4.8-6.1-4.5-2-9.6.3-14.3-4.7-10.9-11.5-6.5-42.2-1.5-56.1-9.1 6.7-14.1 14.8-18.5 25-1.6 3.6-2 7.5-3.7 11.3-1 2.1-4.9 9.8-7.8 8.2-.4-.2-6.9-5.8-7.5-6.5-4-4.2-13.8-24.3-15-30-2.8-12.9 1.4-26.5 9.5-36.5 4.1-5.1 11.3-9 13-15.5-2.4-2.4-22.3 17.4-24.4 20.1-5.4 6.8-11 15.9-9.6 24.9-4.7.2-8.1-.7-10.8-4.7-1.8-2.7-8.8-24.3-9.2-27.8-1.1-10.9 10.9-28.8 18-37 10.5-12.2 24.5-14.2 38-21.5 12.5-.8 24.5-2.3 37-1 0 0 .7 2.1.5 3 9.5-8.2 20.6-14.8 33.1-16.9 4.7-.8 14.8-.4 18.1-1.8 1.6-.7 5.2-7.7 7.2-9.9 8-8.4 15.2-9.7 25.4-12.5 1.1-.3.6-1.9.7-2 1.1-.7 25.9-.7 27 0Z" class="fill" data-original-prefix="fill"/><path id="fill-teeth16" fill="#ffffff" d="M995.3 1525.7c11 9.5 17.2-6.6 23.2 6.3 6.5 14.1 3.7 38.4-1 52.9-.7 2.1-7.1 16.9-8 17.1-1.2.3-3-.4-4.2-.9-12-5.1-31.7-18.1-39.1-28.9-10.6-15.5-6.4-42.9 6.8-55.8 1.3-1.3 9.1-5.6 10.4-5.3 1.5.3 9.4 12.3 12 14.5h-.1Z" class="fill" data-original-prefix="fill"/><path id="fill-teeth15" fill="#ffffff" d="M1039.1 1601.9c-.8-.5-7.5-16.1-8.1-18.4-4.1-13.8-6.5-36.9-1.3-50.3 4.6-12 8.1-4.3 15.8-4.2 9.5.2 17.3-18.2 20.8-17.9 1.2 0 8.5 4.2 9.7 5.3 6.3 6.2 12.2 22.3 13 31 2.4 28-20.3 39.6-41.3 50.7-2 1.1-5.7 5.5-8.6 3.7Z" class="fill" data-original-prefix="fill"/><path id="fill-teeth14" fill="#ffffff" d="M904 1461c0 2.2-1.1 3.8-.8 6.2.2 1.8 7.1 22 8 23.1 3.9 5.1 11.2 3.2 16.7 3.8 4.9 13.5-4.2 23.8-8.6 35.6-2 5.3-8.7 33.1-12.8 34.2-1.8.5-6.8-9.1-8.3-10.7-10.3-23.9-15.3-58.4-2.6-82.2.6-1.2 7.1-11.6 8.4-10.1Z" class="fill" data-original-prefix="fill"/><path id="fill-teeth13" fill="#ffffff" d="M1144 1564c-2.1 1.4-6.1-7.1-6.8-8.7-3.2-7.9-4.4-17.4-7.5-25.5-4.3-11.6-13.6-22-8.6-35.6 4.8-.6 12.3 1.2 15.9-2.9 1.3-1.5 8.1-20.6 8.6-23.2.3-1.8-1.4-7 .9-6 6 2.7 13.7 26 14.4 32.6 1.4 13.9-2.9 45-9.3 57.4-.8 1.5-7 11.6-7.6 11.9" class="fill" data-original-prefix="fill"/><path id="fill-teeth12" fill="#ffffff" d="M1093.1 1644.9c-2.9-1.8-2.4-28.5-2.1-33.4.7-10.5 5.2-31.2 8.9-41.1 1.1-2.8 2.4-1.4 4.2 0 12.2 9.6 21.1 44.8 12.8 57.9-1.9 3-15.6 14.9-18.9 16.1-1.3.5-3.8 1.1-4.8.4Z" class="fill" data-original-prefix="fill"/><path id="fill-teeth11" fill="#ffffff" d="M949 1569c5.5 22 11.1 44.4 9 67.5-.5 5.2-.9 10.3-7 8-3.4-1.3-17.5-13.4-19.5-16.5-5.8-9.2-1.4-31.3 2.7-41.2 1.2-2.9 11.3-21 14.8-17.7Z" class="fill" data-original-prefix="fill"/><path id="fill-teeth10" fill="#ffffff" d="M881.7 1478.3c3.1 2.8-2.7 21-2.8 26.2 0 5.9 2.6 12.4 3.1 18 .2 2.1.7 24.5-.5 24.5-1.5.2-2.1-1.1-2.9-2.1-15.6-18.9-34.8-51.8-17.4-75.3 6.5-8.8 10.5 2.1 14.9 5.8 1.8 1.5 4.9 2.1 5.7 2.8Z" class="fill" data-original-prefix="fill"/><path id="fill-teeth9" fill="#ffffff" d="M1185.7 1467.3c1.9 1.6 7.8 13.7 8.2 16.2 3.2 20.7-9.8 47.3-23.9 61.9-.9 1-1.3 1.9-3 1.5.5-8-.7-16.6 0-24.5.4-5.4 3.1-12.3 3.1-18s-6.1-23.4-2.8-26.2c.6-.6 2.5-.6 3.8-1.7 3.4-3 10-13.1 14.7-9.3Z" class="fill" data-original-prefix="fill"/><path id="fill-teeth8" fill="#ffffff" d="M1018 1613v16.5c0 .9-10.8 13.2-11.9 14.1-6.3 4.8-8-2.6-10.6-5.5-5.5-6-17.9-.4-24.4-5.6-1.2-.9-4.1-8.8-4.1-9.9v-22.5c12.9 1.7 28.3 17.5 41.4 15.9 3.5-.4 6.1-3 9.6-2.9Z" class="fill" data-original-prefix="fill"/><path id="fill-teeth7" fill="#ffffff" d="M1031 1613c6.3 1.3 9.1 4 16.1 2.6 10.6-2.2 24.3-14.8 33.4-15.6 2-.2 1.4 0 1.2 1.3-.8 6.5 2.4 27.5-4.4 31.6-7 4.2-18.8-.3-23.4 4.6-2.1 2.2-3.6 8-8.4 7.6-1 0-14.6-13.5-14.6-14.6V1613z" class="fill" data-original-prefix="fill"/><path id="fill-teeth6" fill="#ffffff" d="M1102.5 1494c3.3-.8 4.5 6.9 5.3 8.7 5.6 12.1 13 24.8 13.3 38.8.2 9-16 29.8-21.3 16.2-4-10.4-4.1-44.8-1.1-55.5.4-1.6 2.4-7.9 3.8-8.2" class="fill" data-original-prefix="fill"/><path id="fill-teeth5" fill="#ffffff" d="M937.3 1559.7c-1.9-1.6-7.8-10.5-8.5-13-3.6-12.1 6-31.3 11.4-42 1.6-3.1 3.3-14.7 8-7.4 5.5 8.5 4.3 41.5 2.7 52.1-1.2 7.7-3.6 18.7-13.6 10.3" class="fill" data-original-prefix="fill"/><path id="fill-teeth4" fill="#ffffff" d="M917 1563c-1.8 13.4 2.9 27.5 2 40.5-.6 9-4.4 18.4-5.5 27.5-6.2-6-10.5-16.1-11.4-24.6-.5-5.2.7-24.7 2.4-29.3.6-1.6 10.5-16.2 12.4-14.1Z" class="fill" data-original-prefix="fill"/><path id="fill-teeth3" fill="#ffffff" d="M1135 1631c-.4-8.9-4.4-17.8-5.1-26.5-1-13.8 3.7-27.6 2-41.5 2.2-2.4 11.9 13 12.5 15 2 6.6 2.6 27.4 1.2 34.3-1.3 6.3-5.5 14.9-10.8 18.7z" class="fill" data-original-prefix="fill"/><path id="fill-teeth2" fill="#ffffff" d="M1154.1 1604.9c-3.4-2-5.1-22.3-3.9-26.2.8-2.6 8.9-5.2 10.2-8.8l5.1-10.9c3.8 3.4 5.1 7.2 4.3 12.2-.7 4.2-5.4 22.7-6.9 26.2-.9 2.2-6.1 9-8.8 7.5" class="fill" data-original-prefix="fill"/><path id="fill-teeth1" fill="#ffffff" d="M885 1559c-.3 3.7 1.7 9.4 4 12.2s9.5 5.2 10 8.3c-2 8.4 1.6 19.2-5.7 25.4-3.6-1.1-6-4-7.4-7.4s-6.5-23.6-6.9-27.1c-.5-4.2 1.2-10.6 5.9-11.4z" class="fill" data-original-prefix="fill"/><path id="shading-mouth2" fill="#aaaaaa" d="M918 1443.5c.8 5.3 5.6 13.8 10.1 16.9 11.5 8.3 16.2-.3 22.4-9.4 2.5 5.4 3.4 11.5 6 17 1.4 2.8 5.7 12 7.5 5.5l4-11.5c1.6 7.5 6.3 15.4 11.5 21 4.3 4.7 18.8 15.4 24.6 9.6 2-2.1 8.3-17.9 10.8-22.2 1.2-2.2 7.8-13.8 9.7-13.3 1 .2 8.5 13.2 9.7 15.3 2.4 4.5 7.3 17.7 9.8 20.2 3.8 3.8 10.5.4 14.4-1.8 10.5-5.9 18.5-17.2 21.7-28.8l4.2 12.3c.3 1.2 1.9 2.4 2.8 1.7.6-.4 5.8-11.3 6.5-13 .8-2 2.8-12 4-12 6.8 10.7 12.9 18.4 24.5 7.5 8.6-8 9.3-23.8 7-34.5 3.5-3.1 21.1 16.1 26.6 16.9 9.1 1.4 17.6-11.8 19-19.9 3.5-20.5-12.9-39.2-30.9-46.2l-12.7-4.8c15.4 0 28.2 2.9 41.1 11.4 4.8 3.1 12.2 10.9 17.6 11.4 6.2.6 10.1-4.1 10-10-.4-19.3-25.8-38.1-39.7-48.8 15.4 2.4 34.6 11.8 45 23.5 7.8 8.8 19.1 25.1 19.1 37s-6.4 28.5-9.2 32.8c-3.3 5.3-11.7 5.4-13.4 10.6-.9 8.1-2.1 16.4-2.5 24.5-1.5 29 1.4 45.2-10.8 73.2-3.6 8.2-12.7 20.4-14.9 27.1-4.2 12.8-.7 26.4-9.1 38.9-3.2 4.8-8.4 6.7-11.2 10.8-1.7 2.5-2.4 6.1-4.2 8.8-4.5 6.7-14.6 23-21.6 8.9-1.6-3.3-1.3-12.9-6.7-6.2-1.4 1.7-1.9 4.4-3.5 6.5-3.7 4.7-17.7 19.6-23.5 19.5-2.2 0-4.5-4.1-6.6-5.4-7.9-5-21.1-6.3-29.2-1.4-7.3 4.4-9.5 13.6-18.1 6.8s-6.4-10.8-20.1-9c-5.6.7-11.4 12.6-16.9 12.1-2.8-.2-11.4-11.1-18.5-12.6-6.3-1.3-17.5.7-23 4.2-2.6 1.7-4.1 5.6-7.5 5.4-5.7-.3-19.8-15.8-23.6-20.5-1.2-1.5-4.4-10.6-7.1-6.9-2.5 3.4-.6 9.9-7.2 12.7-7 3-14.9-11.2-18.1-16.4-1.2-1.8-1.2-4.3-2.6-6.4-2-3-6.8-5.4-9.5-8.5-10.4-11.9-6.7-27.7-10.7-41.3-.8-2.6-5.6-8.5-7.3-11.7-18.4-35.7-16.4-45.6-18.4-84.6-.4-7.7-.6-20.7-2.2-27.8-1.5-6.2-11.1-6.1-14.2-11.8-3.4-6.1-9.3-29.6-8.6-36.4 1.2-10.3 16.2-31.2 24-38 10.5-9.2 26.2-16.5 40-18.5l-21.5 17c-7.2 6.4-26.8 32-14.8 39.9 9 5.9 16.7-4.5 23.7-9.1 12.7-8.4 25.3-11.8 40.7-11.8l-17.3 7.2c-18 9.4-33.1 32.7-22.1 52.8 1.7 3.1 8.6 10.4 12 11.1 9.1 1.7 20.7-15.4 29.5-18 .6 6.4-.9 14.3 0 20.5zm-37.1 40.6c-12.3-.5-17.1-20.2-22.8 1.5-3.4 13 1.2 26.4 9.4 36.5 1.5 1.8 12.7 13.1 13.9 12.9.8 0 2.5-2.3 2.8-3.2 2.9-7.1-3.2-12.2-4.2-19.2-1.5-9.8 0-18.7.9-28.4Zm301.8-8.9c-3.2.8-6.3 6-8.8 7.3-2.1 1.1-7.2 1-7.8 3.2-.5 1.7 3 10.8 2.9 14.8 0 3-1.5 13.9-2.2 16.8-.9 3.6-3.9 5.7-3.9 10.2s1.4 7.1 3.7 7.4c1.9.3 15-14.4 16.8-17 5.7-8.5 9-18.8 7.3-29.2-.5-3-4.4-14.5-8-13.6Zm-284.8 10c-4-2.3-6.5 9.9-6.8 12.5-1.2 10.5 3 38 8.7 47.1 1.9 3 5.4 6.9 9.2 7.3 3.7-15.6 12.6-29.2 21-42.5-2.3-.4-1.7-2.9-2.7-3.5-1.5-.9-7-1.9-9.7-3.1-4.7-2.2-12-7.7-15.6-11.4-1.2-1.2-3.8-6.2-4.2-6.3ZM1139 1552c8.3-2 11.9-12.2 13.9-19.6 3.1-12.1 6.1-33.4 1.1-44.8-3-6.9-5.8 1.7-8.3 4.1-3.9 3.8-11 9.3-16 11.6-2.5 1.1-7.8 1.8-9.1 2.7-.7.5-.5 1.8-1 2.7-.3.4-1.7.4-1.6.9 0 1 7.9 12.3 9.2 14.8 4.8 8.8 9.1 18 11.8 27.7Zm-197.7 5.7c8.1 8.1 9.5 0 10.5-7.3.8-5.6 2.7-20.6 1.7-25.4-3.6-17.2-21.3-15.9-21.6 3.6 0 6.8 4.6 24.3 9.4 29.2Zm161.5-44.5c-5 1.3-8.5 9.3-8.8 14.2-.2 4 2.4 28.5 3.8 31.3 2.5 5 7.5 0 9.8-2.7 6.8-8.3 11.6-30.7 4.5-39.5-2.7-3.3-4.8-4.4-9.2-3.3zM1023 1544c-.7-.7-.8-7-5.1-9.4-8.9-5-21.8-.8-32-4-10.4-3.3-9.4-13.1-16.1 1.8-2.9 6.4-9.1 24.4-6.3 30.7 1.1 2.4 17.8 15.6 21.2 17.8s18.2 11.7 21.1 10c3.1-5.6 9.3-9.5 12.6-14.9 1.8-2.8 4.1-11.5 4.6-11.9 1.6-1.7 1.7.5 2.1 1.4 1.6 3.6 2.1 6.8 4.5 10.5 3.3 5.2 9.2 9.3 12.4 14.6 3.1 1.9 15.5-5.9 18.9-8.1 4.5-2.9 22.9-17 23.9-21.1 2.2-9.7-6.6-28.3-10.9-37.2-4.9 1-7.8 5.2-12.7 6.7-9.2 2.8-28.2-1.6-33.7 6.3-.9 1.2-2.6 8.9-4.5 7zm-136 18c-.7-.6-3.5 0-4.5.9-6 6.2 2.4 31.6 14.6 27.6 4-1.3 3.8-9.4 2.8-12.9-1.1-3.9-7.2-4.1-9.8-7.2-2.1-2.5-2.7-8.2-3-8.5Zm274.1 0c-.3.3-.9 6-3 8.5-2.6 3.1-8.7 3.3-9.8 7.2-1 3.4-1.2 11.6 2.8 12.9 13.4 4.4 20.2-24.5 14.1-28.1-.9-.5-3.5-.9-4-.4Zm-216.4 7.2c-1.5.4-5.1 4.6-6 6.1-3.4 5.6-5.6 32.3-4.8 39.3 1.3 10.9 15.2 18 19.5 3.5 1.7-5.6 2.6-21.4 2.5-27.6 0-1.1-5.8-19.7-6.5-20.5-1.2-1.4-3.2-1.3-4.8-.8Zm153.3-.1c.2 6.6-5.4 14.7-6 20.6-.5 4.5 1 25.3 2.4 29.4 4.2 12.1 16.9 7.3 19.1-2.9 1.1-5.2 0-16.8-.6-22.6-1-9.7-1.7-25.5-14.9-24.5m-180 1.9c-20.5 3.8-17 28.7-9 43 4 2.9 10.4-17 10.7-19.8.9-7.5-2.9-15.5-1.8-23.2Zm218 43c2.5 1.8 7.2-9.1 7.7-10.8 3.9-12.8 1.6-30.1-13.7-32.2.5 7.4-2.8 16.2-1.9 23.4.3 2.7 6.4 18.5 7.9 19.6m-148.2 10.2c1.4.8 4.8 8.6 9.5 11 11.1 5.8 20.2-6.4 20.7-16.7.8-13.7-7.2-7.7-16.5-8.6-8.4-.8-15-4.8-21.8-9.2-5.5-3.5-13.6-14.6-14.7-1.4-.5 5.1 1.4 7.5 1.8 11.2s-2 5.9.5 10.7c4.8 9.3 18 1.3 20.7 2.8zm93.1-31.1c-2.1-1.5-19.7 12.7-23.9 14.4-2.3 1-7.9 2.3-10.5 2.5-10.5.9-18.8-5.4-16.4 11.4 1 7.3 7.9 15.8 16 15.1 9.4-.8 11.9-11.6 14.6-12.4 4-1.3 12.3 5.7 18.9-1.1 4.3-4.4 1.3-8.4 1.5-12.5 0-2.3 1.9-4.8 2-8.1 0-1.9-.8-8.5-2.2-9.4Z" class="outline shading" data-original-prefix="shading" opacity="0.5" style="opacity: 0.5"/><path id="shading-mouth1" fill="#aaaaaa" d="M1041 1343c6.1.5 12.7-1 17.5-5 1.5-1.3.9-3.7 2.8-2.9 10.1 7.9 37.9 17.4 43.8 28.2 3.6 6.5 4.6 17.5-1.8 22.6-5.6 4.5-20.8 10.8-28 15-4.9 2.8-9.7 6.6-14.7 9.3-7.4 4.1-25.5 14.5-32.6 16.4-2.9.8-5.2.8-8.1 0-14.5-3.8-42.2-22.5-56.3-30.7-6.2-3.6-21.2-9.1-23.2-15.8-5.5-18.4 15.7-28.3 28.7-35.4 2.3-1.2 15.5-8.6 16.5-8.7 2.9-.3 4.2 2.9 6.7 4.2 4.2 2.3 10 3.2 14.7 2.8-.3-5.1-3.3-11.3-1.8-16.3.5-1.6 12.5-13.9 14.5-14.4 3.9-1 8.2-.3 11.6 1.9 1 .7 10.8 11.1 11.2 11.8 2.1 5-1.2 11.8-1.5 17" class="outline shading" data-original-prefix="shading" opacity="0.5" style="opacity: 0.5"/><path id="outline-mouth3" fill="#000000" d="M889 1333c-13.5 7.3-27.4 9.4-38 21.5-7.1 8.2-19.1 26.1-18 37 .3 3.5 7.3 25.1 9.2 27.8 2.7 4 6.1 4.9 10.8 4.7-1.4-9 4.2-18.1 9.6-24.9 2.1-2.6 22-22.5 24.4-20.1-1.7 6.5-8.8 10.4-13 15.5-8.1 10-12.3 23.6-9.5 36.5 1.2 5.7 11 25.8 15 30 .7.7 7.1 6.3 7.5 6.5 3 1.5 6.9-6.1 7.8-8.2 1.7-3.8 2.1-7.7 3.7-11.3 4.4-10.2 9.4-18.4 18.5-25-5.1 13.9-9.5 44.6 1.5 56.1 4.8 5 9.9 2.7 14.3 4.7 2.8 1.3 3 5.7 4.8 6.1 2.6.6 7.2-4.9 14.1-2.1 5.2 2.1 8.6 15.6 13.9 16.1 2.5.2 10.2-12 18.4-9.4 5.6 1.8 19.1 24.8 24.4 23.5 6.1-5.4 3.7-12.4 5-19 1-4.8 6.1-10.3 7.8-15.2 3.7-10.9 1-26.5-1.9-37.5-.3-1.1-6.2-13.2-6.9-14.1-3.8-5.5-20.6-13-23-3.1-.4 1.8.2 7.9-2 7-4.8-4.4-9.5-9.2-14.5-13.5-3.8-3.3-11.2-7.6-14-11-3.5-4.3-14.5-27.1-14.7-32.2 0-3.1 8.4-13.8 10.8-16.8 1.4-1.7 10.5-12.5 11.2-12.8 6.4-3.2 28-2.3 34.7.8 8.4 3.8 12.4 12.1 18.5 17.5 5.2 4.5 2.5-1.7 2.5-3.6s.9-3.2.8-4.8c-.2-5.4-6.7-9.2-9.9-13.1-2-2.4-5.5-6.3-7-8.3-1.2-1.7-5.1-7.9-4.8-9.5.4-2.6 11.3-13.4 12.9-11.7-4.4 12.8-.7 8.7 7.3 12.2 1.2.5 3 2.7 3.2 2.7s2-2.2 3.2-2.7c3.4-1.5 9.7-.4 9.3-5.6 0-1.1-4.1-7.6-.5-6.6 2.8.8 12.1 10 11.3 13.2-6.2 9.4-13.5 17.8-21.1 26l-.8 12.7c1.7.4 2-.7 3-1.5 9.5-7.3 13.4-18 27.5-19.5 5.1-.6 23.6-.6 27.2 2.3 3.2 6.4 21.2 22.7 21 29 0 3.4-6.3 16.9-8.2 20.7-6.8 13.3-9.3 12.6-19.5 21.5-5.3 4.6-10.4 9.6-15.5 14.5-2.2.9-1.4-5.6-2.2-7.7-3.4-8.6-19-1.6-22.7 3.8-.6.9-6.2 11.4-6.6 12.4-1.3 3.6-.5 6.5-1.2 9.8-2.6 12.3-5.2 19.6.2 32.2 1.5 3.5 4.6 6.8 5.8 10.2 2.4 7.1-.8 16.6 6.6 21.1 8.3-2.8 16.9-21.3 23.6-23.5 7.7-2.4 15.9 9.6 18.4 9.4 5.6-.5 9.4-18.8 18.7-17.4 2.2.3 8.4 3.7 9.4 3.5 1.7-.4 2-4.9 4.8-6.2 3.9-1.8 8.9 0 13.3-3.7 11.5-9.9 8.1-43 2.5-56 1.6-1.6 11.3 10.4 12.4 12.1 4.9 7.6 6.1 15.6 9.7 23.3 1 2.1 4.8 9.8 7.8 8.2.4-.2 6.9-5.8 7.6-6.5 7.1-7.7 15.9-30.1 15.4-40.5-1-22.4-10.8-22.9-21.5-37.5-5.3-7.2 2.8-2.4 6 0 11.8 8.6 28 25.5 26.5 41 11.4 1.6 13.7-11.7 16.3-20.2 4.6-15.6 5.3-18.8-3.1-33.4-7.4-13-16.3-22.7-29.9-29.1-6-2.8-14.1-4.1-19.2-8.3 9.3.7 19.7 2.8 29.2 5.3 7.4 1.9 14.4 3.9 20.7 8.3 3.2 9.3 27.6 34.6 28 42 .2 3.9-8.4 23-10.2 28.7-2.4 7.4-1.3 15.8-9 20-2.1 1.1-8.8 2.4-9.5 3-3.6 3.6-1.9 26-2.2 32.3-1.2 29.7-2.2 52.7-20.5 77.5-.9 1.2-2.6 1.5-3.6 2.7-4.3 5.6-2.8 18.6-4.3 26.5-1.1 6-5 13.1-5.6 18.4-.4 3.6 1.4 7.3.2 10.1-1 2.4-9.9 8-12.6 9.5-2.2 1.2-5.7 1.5-6.5 2-.6.4-5.4 10.9-7.2 13.3-2.1 2.7-11.1 11.3-14 12.1-4.1 1.2-7.9-10.3-9.9-13s-2.3 2.3-3.6 4.3c-4.3 6.7-25.1 26.6-32.4 28.6-1.7.5-3.3.7-5 .5-.2-6.5 3.6-11.9-3-16.5-7.6-5.2-17.7 0-21.5 7.4-4.2 8.3-1.8 29.9-14.4 16.5-7.1-7.5-13-17.8-18.5-26.4-2.8 5-19.9 30.6-24 31-5.8.6-5.9-11.5-7.2-15.8-2.5-8.5-10.5-17.7-20-14.4-12.1 4.1-4.7 16.7-6.3 18.2-6 1.1-9.7-4.5-15-5-1.3 6.3-5.2 11.9-5.1 18.5.2 11.2 13.9 23.7 10.9 33.8-.8 2.7-3.4 3.2-5.5 1.4-3.7-3.3-7.9-17.8-10.4-23.1-3.8-8-11.3-14.9-9.4-23.7 1-4.7 7.9-13.9 7.6-17.4-.5-5.3-12.8-12.5-12-18.6-1.2-.2-1.3-.3-2.1.6-2.1 2.7-6.2 14.3-10.2 13.3s-12-10.2-13.7-12.4c-2.1-2.7-6.6-12.8-7.2-13.2-.7-.5-4.2-.8-6.5-2-2.5-1.3-12.6-7.8-13.2-9.9s1.2-6.2.8-9.7c-.6-5.1-4.5-11.5-5.6-17.4-1.7-8.4.3-19.9-3.9-26.1-5.9-8.8-10.5-12.8-15.3-23.7-13.6-31.3-7.5-52.3-10.1-83.9-.8-9.9-3.8-5.3-10.8-9.3-8.2-4.6-6.8-13.1-9.3-20.7-1.9-5.9-9.7-21.8-10-26.1-.2-3.3 1.1-4.7 2.5-7.3 6.8-12.4 18.9-24.3 26.1-36.9 5.9-4.3 13.2-6 20.1-7.9 9.7-2.6 19.8-4.7 29.2-5.3Zm15 128c-1.4-1.5-7.8 8.9-8.4 10.1-10.6 19.9-8.6 50.8-1.8 71.7 1.1 3.3 9.4 22.1 12.8 21.2 4.4-1.1 10.8-28.9 12.8-34.3 4.3-11.7 13.6-22.1 8.6-35.6-4.8-.6-12.2 1.2-15.9-2.9-1.4-1.5-8.5-21.7-8.8-24s.8-4 .8-6.2Zm240 103c.6-.4 6.8-10.5 7.5-12 6.2-12 8.8-32.9 9.5-46.5.8-15.3-4.1-32.2-14.6-43.5l-2.2 9.8c-4.9 13.6-4.6 25.2-23.1 22.4-5.2 13.7 4.3 23.9 8.6 35.6 3.1 8.4 6 27.5 11.8 33.2.7.7 1.4 1.8 2.4 1.1Zm-262.3-85.7c-1-.9-4.6-2-6.6-3.9-4.2-3.9-7.8-13.1-14-4.7-13.3 17.9-4.1 44.9 7 61.7 1.6 2.4 11.5 15.7 13.3 15.7.5-8 1.2-16.5.5-24.5-.4-5.4-3.1-12.3-3.1-18s6-23.3 2.8-26.2ZM1167 1547c1.7.4 2-.5 3-1.5 17.5-18 32.6-50.9 18.4-74.4-6.5-10.8-10.8-.4-16.9 4.9-2 1.7-5 1.6-5.5 4.5-.8 4.5 4 18.3 4 24s-3.3 14.8-3.6 21.2 1.6 14.6.6 21.3m-219.1-51.9c-4.7-3.3-6.5 7.1-7.7 9.6-5.3 11-11.8 23-12.2 35.8-.2 7.6 10.5 26.2 19.1 21 3-1.8 4.7-18 5-22 .4-6.4.2-41.4-4.1-44.4Zm67.8 32.2c-3.2-2.8-9.7 3.2-15.8 1.3-2.1-.7-8.7-7.5-10.5-9.5-2.6-2.9-3.4-8.8-8.2-7.4-12.2 3.5-20.5 24.1-21.2 35.9-.9 13.6 2.4 21.7 11.5 31.5 9.8 10.4 24 15.7 36.1 23h2.3c2.1-6.4 6.2-12 8.1-18.4 3.7-12.2 7.9-47.3-2.3-56.2zm23.4 74.6c1.1.7 3.4 0 4.6-.7 5.6-2.4 20.1-11.1 25.2-14.8 13.4-9.8 21.4-21.7 20.1-38.9-.9-11.9-9.2-33-22-36.1-4.4-1.1-5.5 5-8 8-1.7 1.9-7.3 7.9-9.2 8.8-9.2 4-14.3-9-20 5-5.4 13.2-2.6 37.5 1.5 51.1.7 2.2 7.1 17.1 7.9 17.6ZM885 1559c-3.2-3.3-6.4 8.4-5.8 12.3.7 4.5 5.4 23.4 7 27 1 2.2 6.2 8.5 8.7 6.7 3.4-2.4 3.2-20.7 4-25.4-.5-3.1-8.3-6.1-11-10-2.3-3.5-2.6-10.1-3-10.5Zm32 4c-1.9-2.2-11.8 12.5-12.4 14.1-1.7 4.6-3 25.2-2.4 30.3.9 7.9 5.6 18 11.4 23.6 1.4-8.8 5-18.6 5.5-27.5.8-13.1-3.7-27.1-2-40.5Zm218 68c7.1-5.4 12.1-18.8 11.8-27.5 0-2.6-1.7-5.2-1.8-8-.3-5.4.8-12.5-.5-17.5-.6-2.3-10.4-17.3-12.5-15 1.5 13.8-3.1 28-2 41.5.7 8.7 4.6 17.6 5.1 26.5Zm-35-62c-2.8 14.2-8.1 27.9-9 42.5-.3 5.3-1.4 33.3 3.6 34.4 2.4.6 18.8-13.3 20.9-15.9 8.3-10.5 3.8-32.3-1-44-1.2-2.9-11-19.9-14.5-17m-82 44c-3.5 0-6.1 2.5-9.6 2.9-12.7 1.6-29.1-13.9-41.4-16.9v24.5c0 .6 3.2 8.2 4.1 8.9 6.5 5.2 18.9-.4 24.4 5.6 2.6 2.9 4.3 10.3 10.6 5.5 1.1-.8 11.9-13.1 11.9-14.1v-16.5Zm64-13c-13.2 1.2-27.8 17.6-41.4 15.9-3.5-.4-6.1-3-9.6-2.9v17.5c0 1.1 13 14.6 15.4 14.5 4.9-.3 5.1-4.7 7.1-7 5.5-6 18.3-.4 24.4-5.6 1-.9 4-9.7 4-11v-21.5Z" class="outline" data-original-prefix="outline"/><path id="outline-mouth2" fill="#000000" d="M1122 1332c-.2 0 .2 1.6 0 1.9-1 .8-8.1-5.8-10.2-7.1-10-6.1-19.8-8.3-31.2-9.8-2.9-.4-6.9.7-9.5-.5-1.5-.8-4.5-7.4-6.5-9.5-7.8-8.7-15.6-10.2-25.8-13-1.1-.3-.6-1.9-.7-2 3.1-3.8 16.2-9.3 20.8-9.8 7.9-.9 5.5 4.4 6.5 9.1 2.3 10.7 9.3 19.6 21.3 18.8 5.1-.3 5.6-4 7.9-4.1 1.4 0 6.6 2.9 8.2 3.8 9.4 5.2 15 12.5 19.3 22.2z" class="outline" data-original-prefix="outline"/><path id="outline-mouth1" fill="#000000" d="M1011 1292s.4 1.7-.7 2c-10.2 2.8-17.4 4.1-25.4 12.5-2 2.1-5.6 9.2-7.2 9.9-3.4 1.4-13.5 1-18.1 1.8-12.5 2.1-23.6 8.7-33.1 16.9.2-.9-.5-2.8-.5-3 .7-2.3 8.9-13.5 11-15.5 2.4-2.4 14.7-10.5 17.6-10.4s3 5.1 11.9 3.9c10-1.3 16.2-10.1 17.5-19.6.4-2.6-2.4-6.7 2.8-8.2 3.5-1 21.7 5.6 24.3 9.8Z" class="outline" data-original-prefix="outline"/>
    </g><g class="trait-group" data-category="eyes" id="eyes-half-robo-righty">
      <defs/><g id="fill-eyes" class="fill" fill="#ffffff"><path id="fill-eyes1" d="m1054 1254-3-1c-9.1-14.2-22.5-28.8-19-47-6.2 2.2-8.8 2.2-15 0 2.1 7.1-.6 14.6-3.2 21.3-4.2 10.6-11.3 17.3-15.8 27.7-1 2.4-21.3 14.4-24 19-5.7-.5-4.6-14.6-3.5-18 1.9-6.5 14.5-14.8 19.7-19.3 1-.8 2.5 0 1.9-2.6-19.9 5.8-42.2 16.9-63.4 14.9-44-4.3-65.6-34.1-99.3-57.7-29.2-20.4-60.3-33.7-94.5-43.4-9.1-2.6-18.3-5.3-27.8-5.7 0 5.4-1 10.7-2 16l-11-7c.7-4.8 3.5-13.8 1.5-18-.8-1.7-11.6-6.7-14.2-7.8-2.8-1.3-9.1-2.1-9.3-5.6 1.1-6 .9-11.1 2.9-17.1 2.7-8.4 9.1-21.6 13.2-29.8 2.6-5.3 24-44.7 26.5-45.5 1.2-.4 10-1.2 11.8-1.2 8.8 0 25.1 1.7 34 3.1 3.3.5 19.8 5.8 20.5 5s-.2-2.5-1-3.4c-1.5-1.7-7.4-5.7-9.6-7.4-8.7-6.3-18.9-11.6-28.3-16.7-2.1-2.2 1.8-10 3.2-12.9 12.3-27 67.2-72.8 92.9-89.1 39.3-24.7 117-56.6 163.5-52.6 9 .8 8.5 1.7 10.2 9.8 10.6 53 3.3 103.7 7.3 155.7 1 12.7 6.9 28.2 9.5 41.5 1.2 6.3 1.2 14.7 2.7 20.3.8 2.7 33.2 34.3 38.8 41.2 2.7 3.5 9 8.9 5.4 12.3-7 6.6-18.9 12.6-26.4 19.6-5.5 5.1-6.4 7.2-6 15 1.3 22.1 7.6 46.6 10 69 .6 5.8-.8 11.8 1 17.5h-.2Zm-74-71c.6-.7-2.6-9.6-3.2-11.2-4.5-12.4-18.8-50.9-28.2-57.8-19.4-10.7-39.9-20-59.2-30.8-14-7.9-26.5-19-42.3-23.2-1.4 1.4 6.9 7.5 8.1 8.4 27 20.7 64.8 41.2 87.9 66.1 11.7 12.6 20.2 32.4 33.8 46.2 1 1 1 2.8 3.2 2.3Zm13.5 50v1c.7-.3.7-.7 0-1" class="fill" fill="#ffffff"/><path id="fill-eyes2" d="M1219 1075c.7.9-.6 2.5-1.7 2.8-42.2 21.9-82.5 46.9-122.4 72.6-7.2 4.7-14 7.4-20.6 13.3-.7.6-1.9 0-1.3 2.3 6.3-.4 12.5 2.6 18.7.2 42.8-22.6 85.2-50 128.2-71.8 5.4-2.8 12.1-7.1 18.3-5.5.7.2 5.7 10.6 6.2 12 3.4 10.8.7 39.2-.5 51.5-.5 5.2-2.8 27.3-5.3 30.2-35.1 21.9-70.1 45.5-106.7 64.8-6.2 3.2-31.2 16.8-36.3 15.3-1.1-.3-18.2-13.5-18.8-14.5-1.3-2.2-1.5-15.3-2.1-19.6-2.1-14.3-6.2-39.9-11.1-52.9-2.1-5.6-7.2-7.6-2.8-14.3 6.1-9.2 23.8-17.4 30.4-25.6 9-11.1-5.5-26.6-12.5-35.4-6.1-7.7-13-15.1-19.5-22.5-1.7-1.9-5.8-4.6-6.6-5.7-7-10.5-9.2-38.8-16.7-51-2-45.9-2.3-92-6.2-137.8-.9-10-3.6-21.4-4-31-.2-5.5 4.8-5.1 9.5-5.5 7.5-.6 18.4.3 26 1 8.6.8 49.3 7.1 54 12 2.2 2.4 10.4 23.9 12.3 28.7 21.1 53.7 37.4 110.5 54.3 165.6 2.1 4.4 4.3 7 8.6 9.4s27.4 10 28.3 11.2zm-82.7-74.3c14.5 14.5 30.6-9.6 16.7-24.2-15-15.8-31.6 9.3-16.7 24.2m80.4 112.5c-19.9 3.2-22.9 35.3-5.3 42.8 22.2 9.5 37.6-23.8 19.6-38.6-4.6-3.8-8.2-5.2-14.3-4.2" class="fill" fill="#ffffff"/><path id="fill-eyes3" d="M1304 997c-19.9 9.6-39.8 19.5-58.9 30.6l-10.1 7.4c33.3-6.7 65.4-18.5 97.7-28.8l5.3.3c13.2 25.4 27.6 50.3 39.8 76.2 4 8.4 14 27.4 15.7 35.4 1.5 7-5.3 14.7-5.5 22-15.1-5.3-30.3-11-46.5-12.1-31.4 4.4-56.7 28.5-84.5 42.1 3.1-30.5 4-61.7 2.1-92.3.3-1 13.6-8 15.9-9.2 12-6.4 49.8-21.7 56.9-29.1 5.5-5.7 6.8-17.4 3.6-24.4-2-4.4-3.5.5-5.2 2-3.5 2.9-8.6 5.9-12.6 8.2-26.4 15.2-55.8 27.5-82.4 42.7-11-.9-38.1-9.2-42.8-19.8-17.9-62.1-32.6-125.8-62.5-183.5 17.6 4.7 34.7 13.6 50.7 22.3 38.6 21.1 80.5 54.4 109.3 87.7 5.7 6.5 11.3 14.2 14 22.5zm-107.3-.8c-18.3 3.8-6.9 35.8 10.8 37.8s19.9-11.1 13.3-24.3c-4.6-9.4-13.2-15.7-24.1-13.4Zm84.1 78c-22 1.8-22.5 38.8-1.2 41.7 30.4 4.2 25.9-43.7 1.2-41.7" class="fill" fill="#ffffff"/><path id="fill-eyes4" d="M1362 1161c0 2.2-1 4.2-1 6.4-1.2 35.4-3.5 74.2-10 109-.8 4-6.8 7.9-10.3 9.7-19.6 10.1-45 15.8-65.4 24.6-8.4-.8-16.6-5.6-25.2-6.8l45.7-24.8 42.8-27.2c5.3-24.3 11.5-50.7 13.5-75.5.3-4.2-.8-11.5.2-14.8.9-3 7.2.4 9.8-.7Z" class="fill" fill="#ffffff"/><path id="fill-eyes5" d="M1222 1222c7.7 33.2-25.2 64.8-57.3 45.8-3.4-2-13.9-10.2-9.1-13.7l66.3-32.1Z" class="fill" fill="#ffffff"/><path id="fill-eyes6" d="M1254 1317c.3 1.4-1 1.1-2 1.5-17.2 7.2-37.3 10.2-54.7 17.3-13.6-3.2-29.5-4.9-42.5-10-10.8-4.3-18.9-17.1-25.5-26.5-1.5-2.1-11.2-15.1-10.2-16.3 18.1 12.5 38.1 24.4 58.3 33.2 6.4 2.8 17.1 8 24 6.6 7.6-1.8 24.6-11.4 31.3-11.7 5.5-.2 15 6.6 21.4 6h-.1Z" class="fill" fill="#ffffff"/><path id="fill-eyes7" d="M1215.7 1121.2c15.9-3.7 18.7 19.1 7.2 25.2-15.7 8.3-22.2-21.8-7.2-25.2" class="fill" fill="#ffffff"/><path id="fill-eyes8" d="M1142.7 979.2c10.6-2.2 13 20.8.6 16-8.1-3.1-8.9-14.3-.6-16" class="fill" fill="#ffffff"/><path id="fill-eyes9" d="M1278.7 1083.2c16.1-3.6 21.2 26.1 4.8 24.8-11-.8-15.1-22.5-4.8-24.8" class="fill" fill="#ffffff"/><path id="fill-eyes10" d="M1209.7 1009.3c5 5 8.1 19.1-2.1 17.7-5.7-.8-14.5-16-10.1-20 3-2.7 9.6-.2 12.2 2.4Z" class="fill" fill="#ffffff"/></g><g id="shading-eyes" class="shading" fill="#aaaaaa" style="opacity: 0.5" opacity="0.5"><path id="shading-eyes1" d="M1031 842c6 39.3 9.9 78.9 13 118.5 1.7 21.2.3 49.7 4.2 69.8 1 5.1 13.1 35.5 15.9 40.1 4.2 6.8 17.3 20.4 23.3 26.7 3.4 3.6 7.1 6.9 10.5 10.6l87-47.6c-11.8-42.8-21.5-86.3-34.7-128.8-3.8-12.4-7.7-26.7-12.5-38.5-2.2-5.3-11.8-20.8-10.6-25 1.4-4.8 7.8-4 11.6-3 6.9 1.8 23.3 10 30.5 13.5 59.3 28.6 111.6 70.3 150.6 123.4.4 1.6-1.3 2-2.3 2.6-16.3 10.7-39.9 15.3-57.9 22-37.4 14-80.1 43.1-113.7 65.3-13.9 9.2-31.8 20.1-44.1 30.9-12.8 11.2-23.3 25.8-37.5 36.5-1.9 1.5-6.7 2.9-7.3 4.7-1.8 5.3 1.2 12.1 1.7 16.9 1.6 16 2.5 32.2 6.1 47.9 1.3 1.3 19.8 4.4 22.6 4.5 15.6.3 62.5-28 77.8-37.2 17.1-10.3 33.8-21.2 49.7-33.3-8.3-4.4-13.7-13.2-13.6-22.8 0-3.6 1.4-14.1 6.1-13.7s3 5.4 4 8.1c6.4 16.8 15.5 5.7 24.9-1 6.3 3-2.7 9.4 3 10.9l35.6-24.4c-9.6-5.5-13.2-17.8-8.7-27.7 2.1-4.7 8.6-9.8 8.8-2.8l3-1c-.8 5.4.7 12.4 6.7 13.8 9.4 2.1 11.9-6.7 12.8-6.8 4.2-.7 4 6.3 7.1 6.9 1.2.2 14.5-5.1 18.1-5.6 9.6-1.3 20.7 2.9 30 5.5 20.3 5.7 40.1 13.2 60.2 19.3-5.9 7.6-12.8 14.2-19 21.5-2 2.4-10.3 14.9-11.2 15.4-.6.3-11.6-3-13.9.8-1 1.7-2.6 15.6-2.9 18.8-1.2 11.3 3 13.7-13 10.5-1.5 19.9-1.2 45.2-7.3 64.2-2.4 7.6-15.3 14.4-22.2 18.8-16.6 10.7-35.3 21.2-53.2 29.9-2.4 1.2-6.8 1-3.1 3.4 1.1.7 14 6.1 12.7 7.8-4.8.6-9.7 4.9-14.5 4.8-6.6 0-15.1-5.6-21.8-6.7-13.2 4.5-28 14.3-41.2 17.9-3.1.8-4.5 1.3-7.8.7-8.5-1.4-31.4-12.5-40.4-16.6-8.3-3.8-28.5-12.1-34.7-17.3-3.8-3.2-5.6-12.1-6.6-16.8 1.5-.4 2.3.3 3.6.9 7.6 3.6 16.8 10.9 24.8 15.2 15.9 8.6 33.2 16.6 50.1 22.8 10-4.2 20.3-7.5 30.2-11.8 11.7-5 24.3-13.1 36.1-16.9 17.5-5.8 29.4-10 45.9-19.1 5.5-3 29.2-16.5 31.1-20.9 3-23.1 8.9-47.6 10.2-70.8.3-4.9.8-16.7 0-21-.2-1.2-.3-1.9-1.6-2.4-1-.3-18-1.3-19.8-1.1-23.9 2.9-58.3 26.7-79.5 39.5-24.8 15-49.3 32.6-74.4 46.6-15.4 8.5-38.6 16.1-52 25-3.2 2.1-13.9 14.2-15.3 14.7-2.8 1-8.1-.4-11.3.2l2 2c-2 .4-4 1.7-6 .5-15-13-32.2-23.6-46.4-37.6-2.1-2-7.7-10.5-9.6-11.4-.4-.2-7.8-.5-8.5-.4-1.7.2-18.5 18.8-22.1 21.9-11.2 9.8-24.4 17.5-35.5 27.5-7 .9-11-.9-8-8.5-3.2.6-7.2 1.4-10.3 0-1.2-.5-.8-2.5-1.7-3.5-4.4-5.5-44.3-18.6-54-26-2.2-1.7-2.9-4-4.6-5.4-24.5-21-57.2-47.6-85.8-62.2-24.6-12.5-56.8-16.6-83-25.8-1.3-.7 0-3-2.2-5-6.2-5.1-24.3-13.4-32.3-17.7-2.8-1.4-11.6-3-8-5.9 3-2.3 3-1.2 5.7-5.3 2.5-3.9 11.5-24.8 13.2-25.8l32.3-.3c21.9 12.7 45.2 24.8 66.2 38.8 26.5 17.5 50.2 38.9 77.6 56.4 16.9 10.8 76.4 47.6 93.4 47.7 8.9 0 27.9-4.5 37.1-6.9 2.6-.7 14.2-3.6 15.4-4.6s1.9-9.3 3-11.5c1.8 1.1 1.6 4.3 3.2 6.3.9 1.1 1 2.1 2.8 1.7.3-9.2 13.6-19.1 14.8-26.8 1.1-6.6-2.9-18.5-2.9-25.7 0-13.3 23.8-27.1 30.1-38 .2-1.7-7.6-30.6-8.6-32.4-3.9-7.5-14.3-10.7-19.2-21.8-21.6-49.7-15.4-119.9-18.2-173.8l-3.9-52.3c4.7-1.4 8.6-5.5 13.8-5.2zm195 184c6.9-6.9 12.3-19.7 11.9-29.4-.2-3.6-10.3-22.9-12.8-27.2-10.6-18.7-27.1-40.5-41.7-56.3-3.2-3.4-33.5-33-36.5-30 6.5 19 13.3 38 19.3 57.2 7.4 24.2 12.7 49 20 73 1.8 5.9 8.9 30.3 14.4 31.6 1.1.3 4.9-.4 4.3-2.3 0-.3-4-2.8-5.4-4.6-3.8-4.8-8.2-17.5-7.7-23.4 0-1.2 2.8-8.2 3.7-8.5 7.2-2 6.8 12.4 13.3 14.5 7 2.2 6.6-2.4 9.8-3.4 5.8-1.8 6.7 4.4 7.3 8.8Z" class="shading" fill="#aaaaaa" style="opacity: 0.5" opacity="0.5"/><path id="shading-eyes2" d="M944 857c-12 12.5-28.8 18.1-42.9 27.6-28.5 19.1-59.8 58.6-76.3 88.7-7 12.8-12.9 22.3-8.1 37.5 2.8 8.8 20.7 32.2 28.4 37.6 15.4 10.9 44.6 22.4 62.6 32.4 10.9 6.1 45.1 24.2 51.9 32.1 11 12.9 19.5 38.4 30.5 52.5l3.9 30.6c-11.1-4.1-13.9-15.1-19.8-23.7-18.8-27.6-31.2-44.4-57.8-65.2-49.4-38.7-98.8-60.1-157.2-81.8-6.1-2.3-27.8-7.2-31-10.5-3.7-3.8 2.8-11.1 5.3-14.7 30-42.5 74.2-80 119.1-105.9 28.3-16.3 59-30.7 91.3-37.2Z" class="shading" fill="#aaaaaa" style="opacity: 0.5" opacity="0.5"/><path id="shading-eyes3" d="M1142 979c-2.3 6.1 1.4 14.8 8.8 11.2 3.7-1.8 1.7-6.3 6.2-5.3 0 7.2 5.6 15.4-1.5 21-10.3 8.2-22.1-5.1-22.6-15.6-.2-4.7 3.2-13.4 9-11.5v.2Z" class="shading" fill="#aaaaaa" style="opacity: 0.5" opacity="0.5"/><path id="shading-eyes4" d="M947 856c.7.3-.6 1.7-2 1-.7-.3.6-1.7 2-1" class="shading" fill="#aaaaaa" style="opacity: 0.5" opacity="0.5"/></g><g id="outline"><path id="outline-eyes" d="M694 1151c-.2 1.5 1.1 5.7-1.5 5-6.5-1.9-15.5-9.2-22.6-11.4-6.1-2-16.8-1-21-3-4.5-2.2-4.2-10.7-3.9-14.9 2.7-30 21.3-76 37.5-101.5 4.4-7 19.4-29.5 26.4-31.7 3.4-1.1 5.6 2.8 8 1.2.5-.3 4.6-7.4 6-9 38.5-46.1 83.9-85.9 136.7-115.3 39.2-21.8 83.5-28.2 127.8-32.2 2.8-.3 19.7-.3 20.5-1.1s.9-6.7 4-8.4c2-1.1 19.7-.7 23.5-.5 100.4 4.5 194.6 55.2 263 127 9.5 10 17.4 22.3 27.8 30.8 3.6-1 11.1-6.3 14.2-3.9 26.1 40.1 56.3 78.7 74.6 123.4 2.2 5.4 6.8 14.5 5.8 20.1-6.7 13.2-18.3 24.2-20.1 39.4-9 .8-17.9-1.3-26.9-1.9l-13.5 126c-32.4 14.9-66.4 25.2-100 37-14.8 5.2-52.9 22.5-66 22.1-12.2-.4-33.9-5-46.7-7.3-12.3-2.3-18.4-3.7-25.6-14.4-8.6-12.8-15.1-29-23.3-42.2-5.1 1.8-13-1-17.6-3.8-3.6-2.2-24.4-20.7-26.3-23.7-.7-1-.6-1.6-.9-2.5-1.8-5.7-.4-11.7-1-17.5-2.4-22.4-8.7-46.9-10-69-.4-7.8.5-9.9 6-15 7.5-7 19.3-13 26.4-19.6 3.6-3.4-2.7-8.9-5.4-12.3-5.5-7-38-38.5-38.8-41.2-1.5-5.6-1.5-14-2.7-20.3-2.6-13.2-8.5-28.7-9.5-41.5-4-52 3.2-102.7-7.3-155.7-1.6-8.1-1.2-9.1-10.2-9.8-46.5-4-124.2 27.9-163.5 52.6-25.8 16.2-80.6 62.1-92.9 89.1-1.3 2.9-5.3 10.6-3.2 12.9 9.5 5.1 19.6 10.4 28.3 16.7 2.2 1.6 8.2 5.7 9.6 7.4.8.9 1.8 2.7 1 3.4s-17.2-4.5-20.5-5c-8.9-1.4-25.2-3.1-34-3.1s-10.6.8-11.8 1.2c-2.5.8-23.9 40.1-26.5 45.5-4 8.2-10.4 21.4-13.2 29.8-1.9 6-1.8 11.1-2.9 17.1.2 3.5 6.5 4.2 9.3 5.6 2.5 1.2 13.3 6.2 14.2 7.8 2 4.2-.8 13.2-1.5 18zm525-76c-.9-1.2-24-8.8-28.3-11.2s-6.4-5.1-8.6-9.4c-17-55.2-33.2-111.9-54.3-165.7-1.9-4.8-10.1-26.3-12.3-28.7-4.6-4.9-45.4-11.2-54-12-7.6-.7-18.6-1.7-26-1-4.7.4-9.7 0-9.5 5.5.4 9.7 3.2 21.1 4 31 4 45.7 4.3 91.9 6.2 137.8 7.6 12.2 9.7 40.6 16.7 51 .7 1.1 4.9 3.8 6.6 5.7 6.5 7.4 13.4 14.8 19.5 22.5 6.9 8.8 21.5 24.3 12.5 35.4-6.6 8.1-24.3 16.3-30.4 25.6-4.5 6.7.6 8.6 2.8 14.3 4.9 13 8.9 38.6 11.1 52.9.6 4.3.8 17.4 2.1 19.6.6 1 17.7 14.2 18.8 14.5 5.1 1.5 30.1-12.1 36.3-15.3 36.6-19.3 71.6-42.9 106.7-64.8 2.4-2.9 4.8-25 5.3-30.2 1.2-12.3 3.9-40.7.5-51.5-.5-1.5-5.5-11.9-6.2-12-6.3-1.5-12.9 2.8-18.3 5.5-43 21.8-85.4 49.2-128.2 71.8-6.2 2.3-12.5-.7-18.7-.2-.7-2.3.6-1.7 1.3-2.3 6.7-5.9 13.4-8.7 20.6-13.3 40-25.6 80.3-50.6 122.4-72.6 1.1-.4 2.3-1.9 1.7-2.8h-.3Zm85-78c-2.7-8.3-8.3-16-14-22.5-28.9-33.2-70.8-66.5-109.3-87.7-15.9-8.7-33.1-17.6-50.7-22.3 29.9 57.7 44.6 121.4 62.5 183.5 4.7 10.6 31.8 18.9 42.8 19.8 26.6-15.1 56-27.5 82.4-42.7 4-2.3 9.1-5.2 12.6-8.2 1.8-1.5 3.2-6.4 5.2-2 3.2 7 1.9 18.7-3.6 24.4-7.1 7.3-44.9 22.7-56.9 29.1-2.3 1.2-15.6 8.2-15.9 9.2 1.9 30.7 1 61.8-2.1 92.3 27.8-13.6 53.1-37.7 84.5-42.1 16.2 1 31.4 6.8 46.5 12.1.3-7.3 7-15 5.5-22-1.7-7.9-11.7-26.9-15.7-35.4-12.3-25.9-26.6-50.8-39.8-76.2l-5.3-.3c-32.3 10.2-64.4 22.1-97.7 28.8l10.1-7.4c19.2-11.1 39-21 58.9-30.6zm58 164c-2.7 1.1-8.9-2.4-9.8.7-1 3.3.2 10.7-.2 14.8-2 24.8-8.2 51.2-13.5 75.5l-42.8 27.2-45.7 24.8c8.7 1.2 16.8 6 25.2 6.8 20.5-8.8 45.8-14.6 65.4-24.6 3.5-1.8 9.5-5.7 10.3-9.7 6.5-34.8 8.8-73.6 10-109 0-2.2 1-4.2 1-6.4Zm-140 61-66.3 32.1c-4.8 3.5 5.7 11.7 9.1 13.7 32.1 19 64.9-12.6 57.3-45.8Zm32 95c-6.4.6-15.9-6.2-21.4-6-6.7.3-23.7 9.9-31.3 11.7-6.8 1.4-17.5-3.8-24-6.6-20.2-8.8-40.2-20.7-58.3-33.2-1 1.2 8.7 14.2 10.2 16.3 6.7 9.4 14.7 22.2 25.5 26.5 13 5.1 28.9 6.8 42.5 10 17.4-7.1 37.5-10.1 54.7-17.3.9-.4 2.3 0 2-1.5h.1Z" class="outline" fill="#000000"/><path id="outline-eyes1" d="M705 1158c1-5.3 1.9-10.6 2-16 9.4.4 18.7 3.2 27.8 5.7 34.2 9.8 65.4 23.1 94.5 43.4 33.8 23.6 55.2 53.4 99.3 57.7 21.2 2 43.4-9.1 63.4-14.9.7 2.6-.9 1.8-1.9 2.6-5.2 4.6-17.8 12.9-19.7 19.3-1 3.5-2.2 17.5 3.5 18-.2.4 0 2-.9 3.5-1.2 1.9-12.3 12.9-14.1 13.9s-15.2 3.3-15.9 2.6c-.6-.9 4.6-11.1.5-10-4.8 1.3-14.1 8.4-18.4 11.6-7.9 5.9-18.1 18.3-26.9 20.1-20.8 4.2-78.1 1.4-97.9-6.6-9.2-3.7-23.3-10.2-32-14.9-.8-.5-2.9-.9-1.3-2.2 1-.8 21.5.6 24.4 1.1 5.2.8 9.5 3.6 14.3 4.7 1 .2 4.4 1.1 4.2-.8-5.2-1.1-9.9-4.1-15-5.5-13-3.8-37.7-5-48-11.1-2.1-1.3-22.7-23-25.6-26.4-7.2-8.4-10.3-14.7-13.8-25.2s-9.4-28.8-10.7-37.3c-.3-2.3 0-4.6 0-6.9.7-5.3 9.8 9.8 10.4 10.6.4.5 1.1 3.7 2.6 1.9 1.7-2-9.5-16.9-9.8-18.7-.2-1 4.1-17 4.8-20.3h.2Z" class="outline" fill="#000000"/><path id="outline-eyes2" d="M998 1255c4.5-10.4 11.6-17.2 15.8-27.7 2.7-6.7 5.3-14.1 3.2-21.3 6.2 2.2 8.8 2.2 15 0-3.5 18.2 9.9 32.8 19 47-.8 1.5-5.8 7.1-7 6-1.1-5.5-8.1-8-12-12.5-1.9-2.2-4.8-9-5.2-9.3-1.2-1-4.2-.5-5.2 1.1-2 3.3-2.8 6.2-5.7 9.3-3.5 3.7-10.7 6.2-11 11.5-3 .3-3.7-3.9-7-4Z" class="outline" fill="#000000"/><path id="outline-eyes3" d="M980 1183c-2.2.5-2.2-1.3-3.2-2.3-13.6-13.8-22.1-33.7-33.8-46.2-23.2-24.9-61-45.4-87.9-66.1-1.2-.9-9.5-7-8.1-8.4 15.8 4.1 28.3 15.3 42.3 23.2 19.3 10.8 39.8 20.1 59.2 30.8 9.5 6.9 23.8 45.3 28.2 57.8.6 1.7 3.9 10.5 3.2 11.2Z" class="outline" fill="#000000"/><path id="outline-eyes4" d="M1216.7 1113.2c6.1-1 9.7.5 14.3 4.2 18 14.8 2.6 48.1-19.6 38.6-17.6-7.6-14.6-39.6 5.3-42.8m-1 8c-14.9 3.4-8.4 33.6 7.2 25.2 11.5-6.2 8.7-28.9-7.2-25.2" class="outline" fill="#000000"/><path id="outline-eyes5" d="M1136.3 1000.7c-14.9-14.9 1.8-40 16.7-24.2 13.9 14.6-2.2 38.7-16.7 24.2m6.4-21.5c-8.4 1.8-7.5 12.9.6 16 12.4 4.8 10.1-18.3-.6-16" class="outline" fill="#000000"/><path id="outline-eyes6" d="M1280.8 1074.2c24.7-2 29.2 45.9-1.2 41.7-21.3-2.9-20.8-39.9 1.2-41.7m-2.1 9c-10.3 2.3-6.2 24 4.8 24.8 16.4 1.2 11.3-28.5-4.8-24.8" class="outline" fill="#000000"/><path id="outline-eyes7" d="M1196.7 996.2c10.9-2.2 19.5 4 24.1 13.4 6.5 13.2 3.8 26.2-13.3 24.3s-29.1-34-10.8-37.8Zm13 13.1c-2.6-2.6-9.2-5.1-12.2-2.4-4.4 4 4.4 19.2 10.1 20 10.2 1.4 7.1-12.7 2.1-17.7Z" class="outline" fill="#000000"/></g>
    </g><g class="trait-group" data-category="right ear" id="right ear-notched">
      <path id="fill-ear-rt" fill="#ffffff" d="m1650 375 21.9 15.6 9 8.1-5 97.7-42.3 137.7-32.6 49.4c-4 5.2-19.7-5.3-21.9-3.4-1.9 4.5-4.9 23.3-7.3 25.7-2.6 2.6-18.8 1.2-20.3 3.2l-16.4 57.6-102.1 56.9c-16.8 32-30.5 65.7-47.1 97.9l-82.3 65.8c-1.2.6-2.3.6-3.6.5-13.8-1-49.3-14.2-62-21-20.5-10.9-39.7-31.3-58.7-43.8l-24.5-38-.8-3.1 89.8-173.3c3.8-62 6.1-123.8 10.4-185.6l129.3-162.7 4.6-4.4 317.4-175.6c3.6 1.1 16.9 6.5 17.5 9.6-.8 28-.3 56.1-1 84.1-.3 14.4-1 29.4-2.3 43.7l-30.2 44.8-39.5 13Z" class="fill" data-original-prefix="fill"/><path id="shading-ear-rt" fill="#aaaaaa" d="M1626 352c14.1-.8 29.3-5.4 42-11.5 5.1-2.4 20.9-11.1 24.4-14.5 2.2-2.1 5-7.4 6.7-10.3 7-12.2 12.5-27 15.8-40.7l2 12.5 2 26-18.3 45.3-51.7 15.3 38.1 26.6-17.1 63.4-5.2-47.8c-22.4-10.8-37.5-32-47.3-54.2-25.9 44.1-43.9 92.3-40.5 144.5.9 13.4 7.2 30.2 2.8 42.8-1.1 3-3.1 5.7-4.2 8.8-4.4 11.9-9 24.3-10.5 37 11.2-3.5 17.1-11.9 23.4-21.1 15.8-23 25.2-48.7 39.1-71.9.7-1.1 1-2.8 2.5-3-7.2 32.9-18.2 66.1-31.5 97-8.3 19.2-18.2 36.5-30.5 53.5 8 .8 16.2 1.2 24 3s14.4 5.3 22 7.5c.2 1.2-.1 1.9-.5 3-.5 1.2-8.3 14.5-9 15.1-1.1 1-1.3.9-2.7.8-4.3-.4-23.8-8-25.7-6.8l-6.1 34.9c-6.7-.6-13.1-3.6-19.9-2.9l-30.3 81.2-2.7 5.3c-23.4 14.2-49.2 24.2-72.9 38.1l-56.3 89.7c-28.3 25.6-60 47.5-90.6 70.5-2.2.5-26.2-8.4-30.5-10.1-24.5-9.4-50.7-23.9-69.8-42.2-5.5-5.3-9.2-12.1-14.5-17.5-2.4-5 7.2-9.4 10.5-12.5 16.1-14.9 33.6-36.1 45.4-54.6 8.5-13.3 11.7-27.5 19.1-41.9 6.3-12.4 13.9-24.3 20.5-36.5 1.2-1.2 1.7-.2 2.6.5 3.4 2.8 6.9 8.3 10.5 11 1.9-11.8 7-21.1 8-33.5.3-3.4-.7-15.7.2-17.3.2-.4 6.5-4.5 7.8-5.7 30.4-28.4 51.9-61.2 61.9-102.1 6-24.3 5.7-48.7 8.1-73.4 6.3-.8 9.8 3 14.6 5.9l46.4 5.6c10.4 14.5 17.6 31.1 26.5 46.5 1-.5 10.5-11.3 11.3-12.7 3.9-7.3 8-27.2 9.9-36.1 8.5-39.9 9.6-76.2 8.3-116.7-.5-15 6.8-27.9 14.2-40.8 14-24.6 34.9-52 54.3-72.7 20.2-21.6 59.5-47.5 85.6-62.4 12.5-7.1 26.5-12.1 39.9-17.1-5.4 12.2-7.1 27.9-12.2 39.8-1.8 4.3-22.4 23-27.8 29.2s-17.7 20.6-21.1 27c-.6 1.2-1.4 1.9-1 3.5Zm-100 343c8.2-17.6 20.3-35.7 18.5-56-3.5 4-8.1 7.5-11.5 11.5-10.1 12.3-18.6 29.3-29.1 42-19.6 23.7-65.6 56.1-93.3 69.7-23.2 11.4-28 6.6-42.8 31.2-23.8 39.3-42.5 79.3-70.4 116.6-4.2 5.7-12.9 13.5-15.8 19.2-1.6 3.1-11.9 36.4-10.6 37.9 2.5-.7 5.5-3.3 7.5-5 18.6-15.8 38.6-36.6 55.6-54.5 13.9-14.7 30.5-30.8 39.2-48.8 6.9-14.5 12.7-29.7 19.1-44.4 10.6-4.1 21.9-5.5 32.8-8.8 30.4-9.2 59.4-27.7 85-46l24.9-69.1c-.7-4.9-7.2 6.4-8.9 4.6Zm29-27c-1.6-1.2-8.4 9.1-10 10.5l17 12.5c.9-1-5.8-22.1-7-23m-19.5 19v1c.7-.3.7-.7 0-1" class="outline shading" data-original-prefix="shading" opacity="0.5" style="opacity: 0.5"/><path id="outline-ear-rt1" fill="#000000" d="M1201 939c-.3-.2-3.9-.4-6.1-1.5-5.2-2.6-14.2-7.8-17.9-12.1-10.7-12-18.5-31.2-29.5-43.5l-.5-8.4c16.4-32.2 27-70 43.1-101.9 3.4-6.7 8.3-11.6 12.3-17.7 33.7-52.8 38.3-147.5 41.6-209.4.3-6.6.3-23.8 2.6-28.4 43.1-62.1 88.8-122.2 141.4-176.6 28.8-29.8 67.6-52.7 103.3-73.6 60.1-35.2 146-76.2 213.7-92.3 4.6-1.1 22.4-5.8 25.4-3.6.9.7 4.3 15.2 4.6 17.6 4.2 31.6-.3 71.9-3 104-2.3 27.6-.5 58.1-28.7 73.3-11.7 6.3-27.1 10-40.3 10.2 2.8 7 32.7 20 33.8 23.7 1 3.4-2.8 14.6-3.5 19.1-2.8 16.4-7.3 47.9-4.1 63.5 2.3 11.1 6.7 11.3 4.3 24.8-9 50.9-31.8 106.5-56 152-6.3 11.9-15 28.7-22.7 39.3-.7 1-1.6 2.9-3.2 2.6-.8-.2-10.3-8.1-13.3-9.8-5.4-3-12-6.7-18.3-6.1-.6 10.1-4.2 19.3-7.1 28.8-4.9 1.7-12.1-4.2-16.2-2.8-7.2 2.4-20 65.1-23.2 74.8-17.8 12.3-35.5 25-54.4 35.6-7.7 4.3-18.5 8-25.4 12.6-13.4 9.2-31.7 44.4-38.1 59.9-2.8 6.6-4.4 14.5-7.3 20.7-5.8 12.5-26.4 24-37.2 33.8-15 13.5-28.6 29.7-43.4 43.6-2.3 1.4-20.6 4.8-23.6 4.5-10.6-1-50.2-16.6-59.3-22.8-1.5-1-2.6-1.8-2.7-3.8 43.4 18.1 71.5 7.3 103.5-23 37.3-35.2 63.7-79.8 83-127 30-21.5 65.3-34.7 93.9-58.1l24.6-68.4c2.8-4.9 15.1 2.6 17-.2 1.4-2 1.1-11.9.8-14.8-.6-5.5-3.4-10.4-4.9-15.6 6-1.5 12.3-.7 18.5 0 5.2.6 21.3 5.3 24 5 2.2-.3 4.5-5.1 5.9-7.1 25.9-38.6 51.8-112.7 58.3-158.7 3-21.1.8-44.1 3.3-65.7 1.1-9.4 3.8-18.5 5.1-27.9-13.4-6.9-30.2-20.9-36.2-35-5.1-11.8-.3-8.6 7.6-9.8 10.4-1.6 37.7-7.5 46-13 6.1-4 15.7-31.8 17.3-39.7 4.1-19.3 7.6-44 9.3-63.7 1.7-19.2 1.6-39.3 0-58.5-42 13.6-81.8 33.1-120.7 53.8-46.8 25-95.5 55-139.9 84.1-50.9 33.5-90.8 69.5-129.4 116.5-17.3 21-40 48-54.8 70.2-12.9 19.2-12.9 62.2-15.2 85.8-2.7 28-4.3 56-7 84-4.6 47.8-19.1 64.4-38.8 105.2-13.1 27.1-21.6 51.4-31.4 79.6-4.4 12.8-8.7 12.1-5.1 27.6 3 12.5 15.9 34.5 24.3 44.2.1.1 1.5.5 3 2-3.5 1.1-2.8-1.9-3-2Z" class="outline" data-original-prefix="outline"/><path id="outline-ear-rt2" fill="#000000" d="M1422 736c3-6.8 6.8-13.1 9.5-20 11-27.9 12.1-62.7-8-87-11.8-14.3-18.7-10.9-25.3 4.8-9.2 21.9-12.2 46.7-15.1 69.7-.2 1.2 1.5 2.8.4 4.5-1.2 1.9-8.6 4.6-10.9 6.2-44.3 30.1-57.7 77.8-79.2 122.8-1.1 2.4-2.3 6.1-5.5 6-1.1-5.6-2.3-11.7-4.5-17-.4-.9-2.9-7.8-4.5-6-.9 1-4.3 22.4-4.8 25.7-1.4 8.6-1.6 19.5-3.4 27.6-1.7 7.9-11.5 24.5-14.8 34.2-4 11.8-8.6 27.5-6.9 39.9.7 4.7 4.3 9.8 4.9 14.6-1.4 1.4-11.6-6.6-13.4-8-5.6-4.3-10.8-9.2-15.3-14.7l2.3-31.3c4.5-10.8 24.3-28.9 27.1-38.9 6.5-23.9 7.8-59.2 22.3-80.7.6-.9 1.7-3.3 3.2-2.3 1.8 1.3 6.8 18.1 11.8 12.7 10.6-26.4 25.4-52.7 40.8-76.7 11.4-17.8 27.6-30.6 37-50 8.8-18.1 21.6-77 17.8-95.9-.8-4-10.4-27.1-9.3-28.1 7.5 2.8 14.7 6.9 21.7 10.8 6.4 3.6 31.7 17.7 34.8 22.2 3.4 5 10 27.9 12 35 2.3 8.3 6.6 35 11.4 39.5 13.2 12.3 30.8-13.9 36.2-23.9 26-47.4 33.3-96.7 25.7-150.1-1.2-8.7-7.4-28.3-6.7-35.9.4-4.2 10.1-25.1 12.6-30.4 28.3-60.6 71.1-97.4 118.2-142.9 14.6-8 29.1-16.2 44.5-22.4-5.6 8.8-9.5 21.8-16.5 29.5-4.7 5.2-14.4 9.3-20.4 13.6-39.6 28.8-70 65.2-89.9 110.1-14.5 32.8-25.8 88.9-11.3 122.7 1.2 2.9 6.7 10.6 6.3 12.3-21.1 26.7-33 58.8-41.6 91.5-3.1 12-4.9 31.6-9.1 41.9-1.4 3.4-10.3 13.4-13.2 16.8-13.6 15.6-28.5 25.4-46.3 35.7-3.1 1.8-22.9 13.5-24.7 11.8Z" class="outline" data-original-prefix="outline"/>
    </g><g class="trait-group" data-category="left ear" id="left ear-safety pins">
      <path id="fill-ear-lft1" fill="#ffffff" d="M842 941c-10.4 9.8-22.1 17.8-34.1 25.4-1.2.8-2.9.9-3.5 2.5-1 .2-2 .2-2.9.5-8.9 2.6-17.5 6.5-26.8 7.1-7.3.5-14.6 1.5-21.8-1-16.3-5.7-30-15.7-43.8-25.6-2.7-1.9-6.4-3.5-7.2-6.6-.5-1.9 2.2-4.6 3.4-6.9.3-.6.6-1.2.8-1.8 4.6-15.3 4.8-30.8 1.4-46.3-1.2-5.4-5.3-9.5-10.7-9.8-15.5-.8-31.1-1.1-42.6 12.5-.5-.8-1-1.5-1.4-2.2-9.2-17-16.3-35-22.9-53.2-.3-.8-.8-1.8-.5-2.4 1.9-4.3-1-6.6-3.8-8.7s-5.7-4-8.7-5.9c-20.3-13.1-41.3-25.1-62.5-36.6-20-10.9-37.7-25-53.9-41-7.6-7.5-14.3-15.8-21.1-24-37-44.3-67.3-92.3-82.7-148.6-.7-2.6-1.3-5-.4-7.8 5.2-15.6 10.7-31.1 16.4-46.4 8.3-22.2 18.1-43.9 24.5-66.8 1.9-6.7 3.3-13.5 1.8-20.7-2.5-12.3-14.5-18.1-25.6-12.1-6.6 3.6-10.6 9.5-13.7 16.1-5.6 12.1-9.3 24.9-13.9 37.3l-6.9 18.9c-1.1-1.8-1.1-3.4-1.1-5-.3-27.4-2.2-54.5-8.7-81.3-6.9-28-13.1-56.2-29.7-80.6-1.2-1.7-1.9-3.9-2.3-6-4.9-28.2-10-56.4-11.1-85.1-.6-13.6-.4-27.2.8-41.1 16.5 5.5 32.7 10.9 48.1 17.8 42.4 19.1 83.1 41.5 123.3 64.7 25.1 14.5 49.3 30.4 73.9 45.8 48.7 30.7 93.8 65.7 131.2 110 23.4 27.8 44.7 57.2 67.6 85.4 3.6 4.4 5.6 9.7 7.2 15.2 5.9 20.2 5.9 41.1 8.1 61.7 3.3 30.5 5.7 61 7.9 91.6 1.1 15.9 1.9 31.9 10 46.5 3.6 6.5 6.6 13.5 9.6 20.3 10.8 24.5 21.4 49.2 35.1 72.3 4.8 8.1 8.5 16.5 11.4 25.4 1.6 4.9 3.7 9.6 5.4 14.5 1.9 5.5 5 10.5 5.5 16.5 1 13.1-2.8 25-8.8 36.4-5.5 10.5-12.7 19.7-20.4 28.7v.4zM351.4 240.4c-.5 1.3.6 2.1 1.2 3 6.5 8.9 11.8 18.6 16.6 28.4 3 6.2 7.6 10.3 13.2 13.8 36.4 22.5 65.2 52.4 87.2 89.1 22.4 37.4 34 77.6 32.6 121.3-.4 13.4-3.3 26.5-10.8 38-1.9 2.9-2 4.5 0 7.3 10.9 14.8 20.3 30.4 26.6 47.9 9.5 26.7 16.9 54 21.6 82 .9 5.5 2.7 9.7 7.1 14 21.5 21 46.8 36.2 73.2 49.9 1.2.6 2.4 1.9 4.3.8-1.1-1.9-2.2-3.7-3.2-5.6-9.6-17.9-15.2-36.8-14.5-57.4.6-16.9 6.8-31.4 16.6-44.6 2.3-3.1 5.2-5.7 8.7-7.3 3.9-1.8 7.3-1.4 10.1 2.2 2.7 3.5 4.6 7.3 6.1 11.4 8.1 22.5 13.9 45.5 13.6 69.7 0 2.1.2 3.8 2 5.3 8.4 7 15.3 15.3 22.2 23.7 34.9 42.4 62.9 89.2 88.1 137.8 9.8 19 18.3 38.5 22.4 59.6 1.5 7.8 1.7 15.4-1.2 23.1-1 2.7-3.5 5.2-3.1 9.4 11-6.9 20.6-14.2 28.5-23.8 1.2-1.4.4-2.9.3-4.3-.5-6.8-1.4-13.6-1.7-20.4-.2-4.7-1.5-8.6-4.4-12.4-17.9-22.9-33.3-47.3-45.8-73.7-15.4-32.6-30.1-65.7-49.7-96.2-7.1-11.1-13.6-22.4-23-31.8-9.9-9.9-17.7-21.8-22.6-35.1-8.4-23-12.4-47-15.2-71.1-1.1-9.7-.6-19.1 3.6-28.3 2.5-5.6 3.9-11.7 6.9-18.8-19.7 10.5-37.8 20.3-54.8 32-1.9 1.3-3.4 3-4.1 5.4-5 16.4-11.1 32.4-14.6 49.2-1.1 5.2-2.1 10.5-3.6 15.6-2.9 9.4-10.4 12.1-18.8 7.2-5.3-3.1-9.4-7.3-13.1-12.1-7-9.1-11.4-19.5-16.2-29.8-14.1-30.5-21.5-62.4-20.3-96.3.7-21.7 3.7-43.1 8.1-64.2 1.2-5.7.6-10.5-1.6-15.8-14.3-34.9-31.6-67.9-57.4-95.9-21.1-23-44.9-43.2-66.6-65.6-3.9-4-8.3-7.1-13.3-9.5-6.1-2.9-12.5-5.6-17.3-10.8-5.9-6.3-13-10.8-20.3-15.3-1-.6-2-2-3.6-.8zm369 559.9c-1.7-20.7-11.8-38.1-31.2-49.2-20.9-12-47-1.6-55 21.2-11.1 31.5 11.5 65.7 44.7 67.5 25.2 1.4 39.9-18.9 41.5-39.5m-228.6-88.9c1.3 14.6 5.3 29.9 23.2 37.1 14.3 5.7 27.3 3.4 34.6-7.1 6.1-8.7 8.5-19 7.8-29.3-1.2-18-17.8-31.1-37.7-31.1s-28.1 11.4-28 30.5h.1Z" class="fill" data-original-prefix="fill"/><path id="fill-ear-lft-ring" fill="#ffffff" d="M618.1 994.2c-2.7 0-5.3-.2-7.9-1.1-11.2-4-21.3-10.1-30.1-18.1-4.2-3.9-6.4-8.6-5-14.8 2.7-12 4.3-24.2 7.9-36 3.3-10.8 8.7-20.4 17.2-28.2 6.6-6.1 13.1-12.4 19.4-18.7 1.8-1.8 2.6-2.3 4.1.4 6 10.9 6.6 11.3-2.3 20.1-11.5 11.4-18 24.9-20.4 40.6-.8 5.4 2.7 10.5 8.6 13.7 4.6 2.4 9.9 2 13.9-1.7 3.9-3.6 7.6-7.5 11.2-11.4 13-14 26.4-27.8 36-44.6 2.4-4.2 12.1-6.5 17.7-4.6 5.1 1.7 7.8 6.6 7.3 13.9-1 12.5-4.4 23.8-14.1 33-9.1 8.5-17 18.3-25.2 27.7-8.1 9.3-16.8 18-26.2 26-3.5 3-7.6 4-12 3.8z" class="fill" data-original-prefix="fill"/><path id="fill-ear-lft-fill-pin3" fill="#ffffff" d="M314 639.6c-17.1 0-29.8-10.3-35.8-29.2-4.1-12.7-.9-25 2.2-37.3 1.7-6.8 3.6-13.7 7.5-19.8 1.6-2.5 3-3.1 5.9-1.5 7.6 4.1 15.4 7.8 23.2 11.6 2 1 2.9 1.3 1.8 4.4-3 8.4-7.3 15.9-12.5 23-2.6 3.6-1.3 9 2.7 11 6.7 3.3 13.5 6.3 20.2 9.6 2.8 1.4 3.7.3 3.9-2.2.4-4 1.5-7.8 2.8-11.6.7-2 .5-3.1-1.8-3.5-2.7-.6-5.4-1.4-8.1-2.2-2.8-.8-3.8-2.3-1.9-5.1 2.8-4.1 6-7.9 9.5-11.5 1-1 2.1-1.7 3.6-1.1 9.9 3.8 19.8 7.6 29.7 11.3 1.8.7 2.7 1.8 2.5 3.7 0 1.2-.1 2.3-.3 3.5-3.8 24.7-29.9 47-55 47h-.1Z" class="fill" data-original-prefix="fill"/><path id="fill-ear-lft-fill-pin2" fill="#ffffff" d="M373.9 574.1c-4.5 0-7.9-2.1-11.4-3.3-2.6-.9-1.3-3.3-.7-5.2 5.1-15.3 11.4-30 17.2-45 11.3-29.5 22.5-59 35.1-88 .5-1.3.6-2.8 2.1-3.8 2.6-1.8 5.2-4.3 8.5-2 3.2 2.3 3.6 5.6 2.3 9.3-15.1 42.9-30.1 85.8-45.2 128.6-.6 1.7-1.3 3.4-2 5.1-1.1 3-3 4.7-5.9 4.2Z" class="fill" data-original-prefix="fill"/><path id="fill-ear-lft-fill-pin1" fill="#ffffff" d="M351.4 410.4c2.4 10.8 3.6 20.4 4.7 29.9.6 5-1.6 9.5-3.5 13.8-13.3 29.9-25.6 60.3-37.6 90.8-1.1 2.8-2 3.3-4.9 2.1-10.4-4.3-10.6-4.2-6.9-13.7 13-33 24-66.6 37.6-99.4 3.1-7.6 6.1-15.2 10.7-23.6h-.1Z" class="fill" data-original-prefix="fill"/><path id="fill-ear-lft-stud2" fill="#ffffff" d="M703 790.9c2.4 20-12 30.3-23.2 32.1-16.4 2.7-32.6-8.1-36.8-24.3-5-18.9 4.1-35.2 21.9-39.3 12.3-2.8 27.5 3.5 34.5 14 3.8 5.6 3.9 11.8 3.7 17.5z" class="fill" data-original-prefix="fill"/><path id="fill-ear-lft-stud1" fill="#ffffff" d="M503.1 714.6c-.2-4.2.4-7.9 1.8-11.5 3-7.4 8.7-11.2 16.6-11 18.9.4 31.4 18.3 23.8 33.9-4.6 9.5-13.9 14.1-24.2 12-10.4-2.1-17.5-10.3-18-20.8v-2.7Z" class="fill" data-original-prefix="fill"/><path id="shading-ear-lft1" fill="#aaaaaa" d="M481.2 598.8c3.2-4.3 2.5-8.1 1-11.9-3.9-9.8-7.4-19.9-11.9-29.5-3.6-7.6-4.4-15.1-2.8-23.1 3-15.4 4-30.9 3.8-46.5-.3-22.2-6.1-43.3-13.6-63.9-11.7-31.9-27.5-61.7-45.5-90.5-7.6-12.2-17.3-22.6-26.3-33.7-3.3-4-6.2-8.4-9.6-13.1 8.8-3.9 17.1-6 25.6-7.5 5-.9 8.8 2.5 12.5 5.2 18.5 13.6 35.9 28.5 54 42.4 27.2 21 49.3 46.1 66.8 75.6 8.5 14.2 17.8 28 26.9 41.9 3.2 4.8 5.1 10 5.7 15.7.9 9.6 2.5 19.2 2.4 28.7 0 23.2 12 41.6 22.4 60.8 1.7 3.1 3.9 2.6 6.7 1.8 14.7-4 29.7-7.1 44.7-9.6 17.5-3 17.4-3 29 10.9 3.5 4.2 5.6 8.7 6.9 14 24 95.8 62 185.4 120.6 265.5 16.1 22 33.8 42.6 52 62.9 3.3 3.7 6.6 7.5 8.7 12.1 2.3 4.8 2.2 9-1.1 13.9-18.7 27.3-44.3 45.7-75.1 56.2-14.6 5-30.6 5.7-45.9 8.3-3.6.6-5.4-2-7.6-4-13.6-12.2-27.1-24.5-40.6-36.7-5.5-4.9-5.8-5.1-10.9.4-10 10.6-19.9 21.3-29.3 32.5-4.5 5.4-10.1 9.5-15 14.5-5.2 5.3-11.3 8.1-19.4 6.1 1-2.2 3.1-2.7 4.9-3.7 9.8-5.7 19.2-12.3 26.3-21.1 10.6-13.2 21.6-26 32.9-38.5 9.4-10.4 9.1-21.3 3-32.9-3.4.4-4 3.4-5.4 5.5-4.1 6-8.3 12-12.1 18.2-10.3 16.4-25 28.2-40.8 38.8-4.9 3.3-9.6 4.1-14.9 1.1-2.3-1.3-4.7-2.5-7.2-3.5-9.2-3.8-15-9.6-12.9-20.5 1.2-6-2.9-8.5-7.5-9.8-3.9-1.1-4.5-2.9-3.3-6.5 2.9-8.5 5.9-16.7 12.9-23.1 7.8-7.1 15-15 22.6-22.5 6.2-6.2 6.7-6 11.2 1.8 1.2 2 2.4 4 3.3 6.1 1.7 4 1.5 7.7-1.6 11.1-2.5 2.7-4.5 5.8-7.2 8.2-8.8 7.6-12.1 18.1-15.5 28.4-2.3 7.1.9 13 7.5 16.3s5.8-.3 8.3-1.6c6.2-3.4 10.5-9.2 15.2-14.2 6.8-7.3 12.6-15.4 18.9-23.1 2.4-2.9 2.5-5.6 1-9-8.6-18.7-17-37.4-25.4-56.1-1.2-2.7-3.2-5.5-3.3-8.2-.3-8.2-5.5-12-11.8-15.7-36.2-20.9-71.9-42.7-105.8-67.2-11.9-8.6-18.5-19.6-18.8-34.3 0-2 0-4 .5-5.9.4-1.9.9-4.1 3.5-4.2 2 0 2.7 1.8 3.3 3.3 3.3 9.2 9.5 15.9 17.9 20.4 6.3 3.4 13 5.3 19.6.4 4.9-3.7 5.1-6.4-.4-9.5-18-10.1-29.6-26-40.5-42.8-28.4-43.7-49.3-90.8-65.4-140.2-.9-2.8-1.8-5.6-2.8-8.5-3 1-2.8 3.5-3.3 5.6-4.7 19.6-9.4 39.3-14.2 58.9-2 8.1-2.1 8.1-10.5 8.7-7.6.6-15.2 1.5-22.8 1.6-5.3 0-8.3 2.2-10.9 6.8-8.4 14.9-20.8 24.6-37.9 28-8.4 1.7-16.4 1.3-24-3.3-5.4-3.3-10.9-6.3-16.4-9.5-8.3-5-10-13.1-11.8-23.5 15.2 10.3 29 19 46.8 18.7-7.9-7-15.7-13.9-23.6-20.9-5-4.4-10-8.8-14.9-13.2-5.3-4.8-6.4-11.3-3.4-19.5 9.8 8.4 19.3 16.5 28.7 24.7 9.7 8.5 19.5 17 28.9 25.8 3.3 3 5.8 2.3 8.7 0 5-4 9.4-8.4 12.5-14.9-21.6-18.7-44.9-35.4-67.4-53 1-1.4 1.4-2.3 1.8-2.4 11.8-1.4 15.6-10 19.3-19.7 7.5-19.5 15.6-38.8 23.9-57.9 2.8-6.5 3.8-12.6 1-19.1-3.1-6.9-2.4-13.3.9-20 3.2-6.5 6-13.3 8.8-20 1-2.5 2.5-3.6 5.2-3.5 3.2.1 3.7 2.3 4 4.7 2.4 16.7 6 33-2.1 49.6-7.8 16.1-11.6 33.8-18.6 50.3-3.4 8-7.7 15.4-11.7 23-2.1 4.1-4.9 7.8-5.7 13.3 16.4 7.3 32.5 14.9 49 21.8 7.6 3.2 9.6 1.9 12.3-6.3 14-42.1 30.8-83.3 42.2-126.3.8-3.1 1.5-6.5 4.1-8.9 13 5.9 15.3 9 13.2 22.4-2.7 17.7-5.9 35.3-9.3 52.9-1.3 6.8-.9 12.7 2.6 19 10.4 18.9 20.2 38.1 32.9 55.6 4.3 5.9 8.8 11.7 16.7 14.3zm190.4 250.4c3.1 17.8 10 30.9 27.2 36.1 1.9.6 3.5 2.1 5.4 2.5 7.1 1.6 10.3 6.7 12.4 12.9 1.1 3.4 2.4 6.9 2.9 10.5.6 4.2 2.4 7.4 5.3 10.3 13.3 13.5 26.5 27 40.7 39.4 2.9 2.5 5.4 5.6 10 7.1-2.4-12.4-6-23.7-9.5-35-.8-2.6-2.6-4.6-4.4-6.5-12.8-14.4-23.8-30.2-33.9-46.5-6.3-10.1-12.4-20.4-18.6-30.5-1.5-2.5-2.6-5.5-6.7-3.2-9.4 5-19.4 6.2-30.7 2.9zM541 764.3c29 22.1 59.5 38.1 94.4 47.4.9-13.9 1.6-26.8 2.5-39.6.3-4.8-1.6-6.4-6.2-6.5-11-.4-21.5-3.7-31.9-6.8-12.4-3.7-24.3-8.7-35.7-14.8-2.8-1.5-4.8-1.8-6 1.9-2.8 8.1-8.4 14-17.1 18.5Zm102.6 21.8c-1.9 10.4 5.6 17.8 13.5 24.5 13.1 11.2 31.6 6.7 39.1-8.9 1.6-3.4 1.8-6.1-1-8.9-9.3-9.5-18.4-19.1-27.6-28.6-1.4-1.4-2.8-2.5-5.2-2.1-12.9 2-19.1 9.2-18.7 24Z" class="outline shading" data-original-prefix="shading" opacity="0.5" style="opacity: 0.5"/><path id="outline-ear-lft-outer" fill="#000000" d="M347.6 396.2c0-1.7-.4-3.4-.8-5.3-3.8-17.2-12-32-24-44.8-1.7-1.8-2.1-4.1-2.6-6.4-4.3-18.4-5.6-37.2-6.7-56-1.3-20.6-3-41.2-3.1-61.9 0-15.1-.7-30.4 3.6-45.2 2.2-7.5 2.8-8 10.5-6.5 17 3.4 33.7 7.8 50.1 13.8 45.8 16.9 91.4 34.4 134.8 57 44.3 23 86.6 49.3 127.4 77.9 9 6.3 15.6 15.4 23.3 23.3 50.6 51.8 94.2 109.2 135.5 168.5 3.7 5.3 5.3 10.3 5.4 16.5.9 49.6 6.6 98.7 14.3 147.6 3.5 22 11.2 42.9 19.4 63.4 4.3 10.7 11.1 20.1 18.8 28.7 3.9 4.3 6.7 9.1 8.7 14.5 7.8 20.6 16.8 40.6 26.9 60.2 5 9.7 5.5 20.8 9 31 1.6 4.7 1.1 8.3-2.1 12.6-7.8 10.6-14.2 22.2-22.1 32.7-8 10.8-18.8 18.6-31.7 23 7.7-8.9 14.9-18.2 20.4-28.7 5.9-11.4 9.8-23.3 8.8-36.4-.5-6-3.6-11-5.5-16.5-1.7-4.9-3.8-9.6-5.4-14.5-2.8-8.9-6.5-17.3-11.4-25.4-13.7-23.1-24.3-47.8-35.1-72.3-3-6.9-6-13.8-9.6-20.3-8.1-14.5-8.9-30.6-10-46.5-2.2-30.6-4.6-61.1-7.9-91.6-2.2-20.6-2.3-41.6-8.1-61.7-1.6-5.5-3.6-10.8-7.2-15.2-22.9-28.2-44.2-57.6-67.6-85.4-37.4-44.3-82.5-79.3-131.2-110-24.5-15.4-48.8-31.3-73.9-45.8-40.2-23.3-81-45.6-123.3-64.7-15.4-7-31.6-12.3-48.1-17.8-1.2 13.9-1.3 27.5-.8 41.1 1.2 28.7 6.2 56.9 11.1 85.1.4 2.1 1.1 4.3 2.3 6 16.5 24.5 22.8 52.6 29.7 80.6 6.6 26.8 8.4 53.9 8.7 81.3 0 1.6 0 3.2 1.1 5l6.9-18.9c4.6-12.5 8.3-25.3 13.9-37.3 3.1-6.6 7.1-12.5 13.7-16.1 11.1-6 23.1-.3 25.6 12.1 1.5 7.1.1 13.9-1.8 20.7-6.5 22.9-16.2 44.6-24.5 66.8-5.8 15.4-11.2 30.9-16.4 46.4-.9 2.7-.3 5.1.4 7.8 15.4 56.3 45.6 104.3 82.7 148.6 6.8 8.2 13.5 16.5 21.1 24 16.2 15.9 33.8 30 53.9 41 21.2 11.6 42.2 23.5 62.5 36.6 2.9 1.9 5.9 3.8 8.7 5.9s5.7 4.4 3.8 8.7c-.3.6.2 1.6.5 2.4 6.6 18.2 13.7 36.1 22.9 53.2.4.7.9 1.4 1.4 2.2 11.5-13.7 27.2-13.3 42.6-12.5 5.4.3 9.5 4.4 10.7 9.8 3.4 15.5 3.2 31-1.4 46.3-.2.6-.5 1.3-.8 1.8-1.2 2.3-3.9 5-3.4 6.9.8 3.1 4.5 4.7 7.2 6.6 13.8 9.9 27.5 19.9 43.8 25.6 7.2 2.5 14.5 1.5 21.8 1 9.4-.6 17.9-4.5 26.8-7.1.9-.3 1.9-.3 2.9-.5-3.1 5.3-8.8 7.2-13.9 9.1-13.1 4.9-25.7 10.8-39.2 14.9-11.3 3.4-21.3-.7-31.8-2.1-1.1 0-2.1-1.5-3.1-2.4-9.2-9-18.5-17.8-27.4-27-2.9-3-4.5-2.5-7.2 0-15 14.2-30.3 28.1-45.2 42.4-4 3.9-9 6.2-13.2 10-2.7 2.4-6.9 1.6-10.5.4-15.1-5.3-29-12.9-42.6-21.3-16.5-10.2-18.3-14.4-13.6-34.2 3.4-14.1 6.3-28.3 9.3-42.4 2.7-12.7 8.9-23.2 19.3-31.1 8.7-6.7 17.2-13.7 26-20.2 3.1-2.3 3.3-4 1.1-6.8-1.4-1.8-2.6-3.9-3.8-5.9-6.7-11.7-16.1-19.8-28.4-25.6-29.6-13.8-56.3-32.4-81.5-53-37.6-30.6-65.5-68.9-87.7-111.6-9.2-17.6-18.1-35.2-26.3-54-2.8 5-5.1 9.7-7.9 14-10.7 16.3-23.7 29.9-44.3 32.6-24.5 3.1-45.8-3.3-62.5-22.4-9.4-10.7-11.6-23.4-10.6-36.9 1.1-16.1 5.7-31.4 11.2-46.4 2.3-6.4 5.8-12.6 14.5-11.8 1.7.2 1.6-1.3 2-2.3 15.8-42.1 35.1-82.7 53.1-123.9l7.4-14.7zm5.5 94.9c-.8 1.7-1.6 3.5-2.4 5.2-8.3 18.3-16.6 36.6-25 54.9-1.1 2.4-.3 3.1 1.8 3.9 5.6 2 11.1 4 16.6 6.4 2.9 1.2 3.8 0 4.7-2.4 2.4-6 4.7-12.1 7.6-17.8 2.6-5 2.7-9.7 1.5-15.2zm265 503.1c4.5 0 8.5-.8 12-3.8 9.4-8 18.1-16.7 26.2-26 8.2-9.4 16.2-19.2 25.2-27.7 9.8-9.2 13.2-20.5 14.1-33 .6-7.3-2.2-12.2-7.3-13.9-5.6-1.9-15.3.4-17.7 4.6-9.6 16.8-23 30.5-36 44.6-3.6 3.9-7.3 7.8-11.2 11.4-4 3.7-9.3 4.1-13.9 1.7-6-3.1-9.4-8.3-8.6-13.7 2.3-15.7 8.9-29.3 20.4-40.6 8.9-8.8 8.3-9.2 2.3-20.1-1.5-2.7-2.3-2.2-4.1-.4-6.4 6.4-12.8 12.7-19.4 18.7-8.4 7.8-13.9 17.3-17.2 28.2-3.6 11.8-5.2 24-7.9 36-1.4 6.1.8 10.9 5 14.8 8.8 8 18.9 14.1 30.1 18.1 2.6.9 5.2 1.1 7.9 1.1zM314 639.6c25.1 0 51.2-22.3 55-47 .2-1.1.2-2.3.3-3.5.1-1.9-.7-3-2.5-3.7-9.9-3.7-19.8-7.5-29.7-11.3-1.5-.6-2.6.2-3.6 1.1-3.5 3.5-6.7 7.4-9.5 11.5-1.9 2.7-.9 4.2 1.9 5.1 2.7.8 5.3 1.6 8.1 2.2 2.3.5 2.5 1.5 1.8 3.5-1.3 3.8-2.5 7.6-2.8 11.6-.2 2.5-1.1 3.6-3.9 2.2-6.7-3.3-13.5-6.3-20.2-9.6-4-2-5.3-7.4-2.7-11 5.2-7.1 9.5-14.6 12.5-23 1.1-3.1.2-3.4-1.8-4.4-7.7-3.8-15.6-7.5-23.2-11.6-2.9-1.6-4.3-1-5.9 1.5-3.9 6.1-5.7 13-7.5 19.8-3.1 12.2-6.3 24.6-2.2 37.3 6 18.9 18.7 29.2 35.8 29.2h.1Zm59.9-65.5c2.8.5 4.7-1.2 5.9-4.2.7-1.7 1.4-3.4 2-5.1 15.1-42.9 30.1-85.8 45.2-128.6 1.3-3.7.9-7-2.3-9.3-3.3-2.3-5.8.2-8.5 2-1.4 1-1.5 2.5-2.1 3.8-12.6 29-23.8 58.5-35.1 88-5.8 15-12.1 29.8-17.2 45-.6 1.9-1.9 4.2.7 5.2 3.5 1.2 6.9 3.3 11.4 3.3Zm-22.5-163.7c-4.6 8.4-7.6 16.1-10.7 23.6-13.5 32.7-24.6 66.4-37.6 99.4-3.7 9.5-3.5 9.4 6.9 13.7 3 1.2 3.8.7 4.9-2.1 12.1-30.4 24.3-60.8 37.6-90.8 1.9-4.3 4.1-8.8 3.5-13.8-1.1-9.6-2.3-19.1-4.7-29.9h.1Zm282.7 491.5c-5.7 8-12.1 14.2-16.1 22.1-.9 1.8-1.2 3.6.8 4.8 1.7 1.1 3.5 1.2 5.1 0 1.1-1 2.2-2.1 2.9-3.4 1.9-3.6 4.5-6.7 7.6-9.2 2.9-2.4 3.5-5 1.8-8.3-.7-1.5-1.1-3.1-2.1-6" class="outline" data-original-prefix="outline"/><path id="outline-ear-lft-inner" fill="#000000" d="M351.4 240.4c1.5-1.1 2.5.2 3.6.8 7.2 4.5 14.4 9.1 20.3 15.3 4.8 5.1 11.1 7.8 17.3 10.8 5 2.4 9.4 5.4 13.3 9.5 21.7 22.3 45.5 42.6 66.6 65.6 25.8 28 43.1 61.1 57.4 95.9 2.2 5.3 2.8 10.1 1.6 15.8-4.4 21.2-7.3 42.5-8.1 64.2-1.2 33.9 6.2 65.7 20.3 96.3 4.7 10.3 9.2 20.7 16.2 29.8 3.7 4.8 7.9 9.1 13.1 12.1 8.5 4.9 15.9 2.2 18.8-7.2 1.6-5.1 2.6-10.3 3.6-15.6 3.5-16.8 9.6-32.9 14.6-49.2.7-2.4 2.2-4.1 4.1-5.4 17-11.8 35.1-21.6 54.8-32-3 7.1-4.4 13.2-6.9 18.8-4.1 9.2-4.7 18.7-3.6 28.3 2.8 24.2 6.8 48.2 15.2 71.1 4.9 13.3 12.7 25.1 22.6 35.1 9.5 9.5 15.9 20.8 23 31.8 19.6 30.5 34.3 63.6 49.7 96.2 12.5 26.4 27.8 50.8 45.8 73.7 2.9 3.7 4.3 7.6 4.4 12.4.3 6.8 1.2 13.6 1.7 20.4 0 1.4.9 2.9-.3 4.3-7.9 9.6-17.5 16.9-28.5 23.8-.5-4.3 2.1-6.7 3.1-9.4 2.9-7.7 2.8-15.3 1.2-23.1-4.2-21.1-12.6-40.7-22.4-59.6-25.2-48.6-53.2-95.4-88.1-137.8-6.9-8.4-13.8-16.7-22.2-23.7-1.8-1.5-2.1-3.2-2-5.3.3-24.2-5.4-47.2-13.6-69.7-1.5-4.1-3.4-7.9-6.1-11.4-2.8-3.7-6.2-4.1-10.1-2.2-3.6 1.6-6.4 4.2-8.7 7.3-9.8 13.2-16.1 27.8-16.6 44.6-.7 20.6 4.9 39.4 14.5 57.4 1 1.9 2.1 3.7 3.2 5.6-1.9 1.1-3.2-.2-4.3-.8-26.4-13.7-51.7-28.8-73.2-49.9-4.4-4.3-6.2-8.5-7.1-14-4.7-28-12.1-55.3-21.6-82-6.2-17.4-15.6-33.1-26.6-47.9-2-2.7-2-4.4 0-7.3 7.5-11.5 10.4-24.6 10.8-38 1.4-43.7-10.2-83.8-32.6-121.3-22-36.8-50.7-66.6-87.2-89.1-5.6-3.5-10.1-7.6-13.2-13.8-4.8-9.8-10.1-19.5-16.6-28.4-.6-.9-1.7-1.7-1.2-3z" class="outline" data-original-prefix="outline"/><path id="outline-ear-lft-ring2" fill="#000000" d="M720.4 800.3c-1.6 20.6-16.3 40.9-41.5 39.5-33.3-1.8-55.8-36-44.7-67.5 8-22.8 34.1-33.2 55-21.2 19.4 11.1 29.5 28.5 31.2 49.2m-17.4-9.4c.2-5.6 0-11.8-3.7-17.5-7-10.5-22.2-16.8-34.5-14-17.8 4.1-26.8 20.4-21.9 39.3 4.3 16.3 20.4 27 36.8 24.3 11.2-1.8 25.6-12.2 23.2-32.1z" class="outline" data-original-prefix="outline"/><path id="outline-ear-lft-ring" fill="#000000" d="M491.8 711.4c-.2-19.1 11.1-30.4 28-30.5 19.9 0 36.4 13.1 37.7 31.1.7 10.3-1.7 20.6-7.8 29.3-7.4 10.5-20.4 12.9-34.6 7.1-17.9-7.2-21.9-22.4-23.2-37.1h-.1Zm11.3 3.2v2.7c.5 10.5 7.6 18.7 18 20.8 10.3 2.1 19.6-2.5 24.2-12 7.6-15.6-4.9-33.5-23.8-33.9-7.9-.2-13.7 3.6-16.6 11-1.4 3.6-2.1 7.3-1.8 11.5Z" class="outline" data-original-prefix="outline"/>
    </g><g class="trait-group" data-category="head" id="head-small-hawk">
      <path id="fill-head" fill="#ffffff" d="m1072.2 581.1 29.6 24.9c2.4.8 2.6-2.9 3.5-4.7 2-3.8 4.4-7.6 6.5-11.3l24 20.2c2.9 3 6.4 9.4 8 13.1s1.6 6.9 2.8 9.7 1.3 1.7 2 1.9c7.7 2.7 11.4-8.4 14-12.4s.7-1.3 1.3-.7l13.7 17.4 1.6 24c5.1 0 10.2.2 15.3-.6l2.1 13.3-64.5 203.8-.2 3.1c4.4.5 7.9-2.6 12.3-2.3 2 3.9 3.2 6.9 1 11.1l-74.8 199.5c-1.7 2-8.8-3.2-11.6-1.2s-5.4 7.1-6.6 8.9c-1.9 2.8-5.7 11-7.6 12.7s-2.3.6-3.7 1.9c-6.9 6.5-11.2 18.7-15.9 26.2s-.3 1.9-1.5.8-2.7-6.7-3.5-8.1c-2.6-4.7-8.6-15.3-12.5-19s-3.2-1.3-4-2.1c-1.2-1.2-4.4-8-5.8-10.1s-6.6-10.3-8-11.3c-2.3-1.6-7.9 1.5-10.8 1.7l-1-.9c-22.6-63.2-47.5-125.8-70.2-189s-5.5-12.8-5.6-15.7 1.4-4.5 2.1-5.2c1-1.1 9.9 2.2 12.2 2.5s1.1.2.9-.7l-63.9-201.3c-2.9-6.1 0-12.4.7-18.7 5 .7 10.1.6 15.3.6l1.6-24c.3-1.3 12.1-16.2 13.7-17.4s.6 0 .9.5c2.4 3.9 7.4 16 14.8 12.4s3.3-8.8 4.3-11.3c5.5-13.1 18.4-21.8 29.8-31.6s1.2-2.9 2.6-1.4l9 16.3 29.1-25.6c1.8-.6.4 2.4 2.5 3.3s4.3.5 5.8 0c5.1-1.7 17.4-14.9 21.6-15.6 12.7-1 25.5-1 38.3 0 4.3.8 16.6 13.9 21.6 15.6s8 .4 7.3-3.2z" class="fill" data-original-prefix="fill"/><path id="shading-head" fill="#aaaaaa" d="M996.4 1037c1.4 0 1.4-2.4 1.5-3.3.6-7.9-1.4-15.7-.7-23.5l8.4 22c2.8 8 1.7 16.4 2.5 24.7 2.1 19.9 9.8 41.6 15.3 61.3.3 1-.5 1 1.5.9 3.8-19.3 11.9-37.9 14.6-57.4 1.2-9 .9-18.3 2.4-27.2l9.2-24.9c0 7.4-.6 14.9-.7 22.3 0 1.9-2 4.9.7 6.2 1.4-5.1 4.4-9.9 6.3-14.9 18.3-49.6 25.5-102 35.4-153.2.2-1 .3-3.6 1.3-4 3.1 9.8 3.3 20 4.4 30.1.4 4.2 2.3 9.5 2.3 13.7 0 11.8-5.5 28.3-6.6 41.1-.5 6.1-.8 12.1 0 18.2 10.7-10.6 18.9-23 26.9-35.1l1.5 5.1c4 15.2-10.4 27.6-14.7 40.9-2.3 7.1-2.5 14.3-4.5 21.3-2 7.1-6.3 14.2-7.6 21.4l-2.9-.6-22 65.6c-2.1 3-8.9-3-11.9-.8l-14.1 21.6c-10.1 5.4-12.6 18.2-18.4 26.1-1.3 1.7-2.1 2.4-3.8.4-3.3-6-6.1-12.3-10-18-2.4-3.6-4.8-7.1-9.2-9.1l-13.5-21.1c-3.2-2.3-9.8 4.2-12.1.4-8.1-21.5-14.4-43.6-21.7-65.3h-2.8c-1.7-7.4-5.6-14.3-7.7-21.4-1.9-6.4-2.1-13.4-4.2-19.8-5.1-15.4-18-24.9-15-43 0-.9.4-3.6 1.4-3.9 7.9 12.1 16.1 24.6 26.9 35.1 0-7.9 0-15.7-.7-23.5-1.1-11.1-5.8-25.1-5.9-35.7 0-4.6 1.7-9.2 2.3-13.7.7-6.5 1-24.5 4-29.5 0-.3.9-.8 1.1-.6.6 5 1.3 10.1 2.3 15.1 9.5 47.6 16.5 96.1 33.5 142.2 1.7 4.5 4.9 8.7 5.7 13.5h-.2zm2.2.6c.5-.8-.4-1.6-.7-1.2-.5.8.4 1.6.7 1.2" class="outline shading" data-original-prefix="shading" opacity="0.5" style="opacity: 0.5"/><path id="outline-head6" fill="#000000" d="M903.3 738.8c1.6-.5 6.7-5.2 8-4.2l5.8 26.2c3.3-10.1 10.5-21 18.3-29.3.5-.5 3.3-4.2 4.2-3.4.9 11 3.9 22 9.1 32.1 1.1-2.8 1.9-5.7 3.6-8.3.5-.8 3.4-4.9 4.7-4.2 9.8 18.6 30.2 36.6 55 41.6 14.8 3 25.8.7 38.9-5 18.5-8 31.6-21.2 40-36.6 1.4-.8 3.9 3 4.5 3.7l4.2 8.5c4.7-10.2 8-20.9 8.7-31.8.9-.8 3.7 2.9 4.2 3.4 5.7 6.2 10.5 13.7 14.8 20.6l4.2 8.7 5.1-26.2c1.3-1 6.4 3.7 8 4.2l20.1-46.4c2.2-3.5 6.4 2.9 6.8 4.6.4 2.1-5.7 18.6-7 22-4.7 13.3-10.5 26.2-15.5 39.4-1.8 1.4-3.8-5.2-5.1-5.4-2.1 11.4-5.7 23.2-14.9 32.1-1.5-6.7-2.8-13.5-5.2-20.1-1.7-4.4-4.4-10.7-6.7-14.8-.3-.5-.3-1.8-1.5-.8s-4.9 14.6-6.4 17.7c-2.8 5.8-7.7 10.5-11.8 15.7l-1.5-.3c-.2-4.9-1.5-10.4-3.6-14.9-.3-.6-1.6-4.3-2.9-3.3-11.1 17.5-30.5 31.3-54 36.5-12.3 2.7-18.9 1.5-30.6-2.1-20.4-6.2-36.4-18.7-46.4-34.4-1.3-1-2.6 2.7-2.9 3.3-2.2 4.5-3.4 10-3.6 14.9l-1.5.3c-4.1-5.2-8.9-9.8-11.8-15.7-1.5-3-5.2-16.7-6.4-17.7s-1.2.3-1.5.8c-2.3 4.2-5 10.4-6.7 14.8-2.5 6.5-3.8 13.3-5.2 20.1-9.2-9-12.8-20.7-14.9-32.1-1.3 0-3.3 6.7-5.1 5.4-5.7-14.8-12.2-29.5-17.2-44.5s-5.5-14.4-5.2-16.5c0-1.6 4.3-8.2 6.5-5.4l20.4 46.7Z" class="outline" data-original-prefix="outline"/><path id="outline-head5" fill="#000000" d="m1003.7 1064.9-5.5-8.9c-25.2-52.5-38-108.4-44.7-164.6-.4-3.9-1.7-10.8-1.5-14.3.2-3.1 3-7.6 3-11z" class="outline" data-original-prefix="outline"/><path id="outline-head4" fill="#000000" d="M1045.2 1064.9c-1.2 0-.8-2.1-.7-2.7 0-1.7.6-4 .9-5.8 3.7-17.6 10.3-36.2 14.8-53.9 9.3-36.8 17.5-73.8 25.3-110.8l7.6-25.6c0 3.4 2.8 7.9 3 11 .9 12.9-5.1 37.3-7.4 51.1-3.6 21.5-7.3 43.1-13.9 64.2-7.7 24.5-18 49.1-29.6 72.5" class="outline" data-original-prefix="outline"/><path id="outline-head3" fill="#000000" d="M971 807.8c4.1 19.6 7.5 39.5 11.9 59 4.1 18.6 11.7 36.6 10 55.8-1.2.2-1.5-.2-2-1-.9-1.5-2.2-5.8-2.9-7.7-4-11.2-6.3-22.9-9.7-34.3-6.4-21.1-15.7-41.3-12.3-63.7.4-2.4 1.1-8.5 5.1-8Z" class="outline" data-original-prefix="outline"/><path id="outline-head2" fill="#000000" d="M1055.4 922.7c-1.7-19.2 5.8-37.3 10-55.8 4.4-19.5 7.6-39.2 11.9-58.7 3.4-1.6 4.6 4.6 4.9 6.7 3.7 24-5.3 42.4-12.1 64.8-3.5 11.4-5.7 23.1-9.7 34.3-.7 2-2 6.2-2.8 7.7-.5.8-.8 1.2-2 1z" class="outline" data-original-prefix="outline"/><path id="outline-head1" fill="#000000" d="m1068.5 578.7 3.6-11.5 1.5-.4 25.1 26.2c3.5-5.2 6.6-11.1 7.6-17 .3-2-.2-4 0-5.9.3-2 2.8.2 3.9 1 13.4 10.2 26.7 27.1 33.5 41 2.8 5.7 4.5 11.7 7.3 17.3 7.6-7.2 10.8-17 14.2-25.9.3-.8-.4-1.1 1.5-.9 10.8 15.3 20.5 31.2 20.4 49.4 4.3-2.6 7.3-6.2 10.5-9.6l6.3-8.9c.9 7.6 2.6 15.2 2.2 22.9-.7 13.7-4.1 30.2-6.7 43.9-10.8 58.2-32.2 113.6-55.1 169.1 1.1 1.1.9.7 2 .4 7.6-2.2 17-10.1 23.1-14.4 0 4.1-2.1 9-3.6 13.1-9 24.6-22 49.2-32.4 73.5-19.1 44.7-33.9 90.2-51.4 135.3-2 5.1-5.5 15.8-8.4 19.9-1.3 1.9-6.1-.5-8.6-1.1-.9-.2-5.6-1.1-5.8-.9.2 7-2.1 13.9-3.6 20.8l-10.9-4.8c-3.3 5.8-7.8 11-11.1 16.8-2.9 5.2-4.5 10.6-7 15.7-.3.6-1.8 4.1-3.1 3.2-4.7-12.7-11.6-24.3-19.6-35.7L993 1116c-1.5-6.9-3.9-13.8-3.6-20.8-.2-.2-4.9.7-5.8.9-2.5.5-7.3 3-8.6 1.1-2.9-4.1-6.4-14.9-8.4-19.9-17.5-45.1-32.4-90.6-51.4-135.3-10.4-24.3-23.4-48.9-32.4-73.5-1.5-4.1-3.6-9-3.6-13.1 6.2 4.3 15.5 12.2 23.1 14.4 1.1.3.9.7 2-.4-23-55.5-44.4-110.9-55.1-169.1-3.7-19.9-8.7-43.1-5.1-62.9 0-1 .3-3.6 1.3-3.9 3.3 7.1 8.9 13.6 16 18.4 0-18.2 9.5-34.1 20.4-49.4 1.9-.2 1.2 0 1.5.9 2.5 7 6.9 19.3 12.8 24.6.4.4 1.1 1.5 1.7 1 5.5-16.5 14-31.7 26.9-45.2 3.6-3.8 9.2-9.5 13.5-12.7 6-4.6 3.4 1.1 4 4.9.9 6 4.1 11.8 7.6 17l25.1-26.2 1.5.4c.5 3.7 2.3 7.1 3.6 10.7 0 .5-.3 1.3 1.1.8 1.2-.4 7.6-5.1 9.1-6.2 3.8-2.8 9.5-9.2 14.3-9.8 8.7-1.1 21.6-1.1 30.6-.7 2.6 0 9 .5 11.1 1 3.1.8 14.7 11.3 18.7 13.9.7.4 3.5 2.3 4 1.8zm0 18.4c-.2-.2-1.5-4.4-2.3-5.6-3-4.8-12-14.6-17.8-17-2.9-1.1-17.9-2.4-21.7-2.5-4.9 0-23 1-26.8 2.5-5.8 2.3-14.8 12.1-17.8 17-.7 1.2-2 5.4-2.3 5.6-1 .9-1.2-.2-1.6-.8-1-1.5-3.4-10.4-6-9.9-2.3.4-25.1 25.9-29.9 28.5l-10.2-20.8c-14.5 15.3-23.5 35.4-28.7 54.2-4.4-4.8-10.8-8.2-15.6-12.5-2.5-2.3-4.6-5-6.8-7.6-.4-.5 0-1.1-1.6-.8-5.7 18.3-1.8 38 .7 56.5L859 667.8c5.8 29 13.5 57.8 22.2 86.3 13.3 43.6 28 89.9 44.4 132.7 1.5 3.8 4.4 7.7 4.4 11.3l-20.7-11c14.1 28.6 25.3 58.2 36 87.8 6.7 18.5 13.2 37.1 19.1 55.8 5.6 17.9 9.8 36.1 16.2 53.7 2.4 0 12-5.5 13.1-4.8 1.7 6.4 4.8 12.5 8 18.4 1.7 1 7.5-4.8 10.2-4.2l11.6 38.7c1.5 1.1 2.5-2.9 2.7-3.5 3.1-7.9 6-17.7 8.4-25.8.9-3.1 1.5-6.2 2-9.4 2.6-.7 8.4 5.1 10.1 4.2 3.2-6 6.3-12 8.1-18.4 1.1-.8 10.7 4.7 13.1 4.8 6.4-17.7 10.6-35.8 16.2-53.7s12.4-37.3 19.1-55.8c10.7-29.6 21.9-59.2 36-87.8l-20.7 11c0-3.6 2.9-7.5 4.4-11.3 16.4-42.8 31.1-89.2 44.4-132.7 8.4-27.6 17.3-57.3 22.2-85.4 0-.4.2-1-.4-.9-1.2 1.3-19.9 17-20.7 16.1 2.5-18.5 6.4-38.3.7-56.5-1.7-.4-1.2.2-1.6.8-2.2 2.6-4.1 5.3-6.8 7.6-4.9 4.3-11.3 7.7-15.6 12.5-5.2-18.8-14.3-38.9-28.7-54.2l-10.2 20.8c-4.8-2.6-27.6-28.2-29.9-28.5-2.5-.5-4.9 8.5-6 9.9-.4.5-.6 1.6-1.6.8z" class="outline" data-original-prefix="outline"/>
    </g><g class="trait-group" data-category="mouthpiece" id="mouthpiece-nosering">
      <path id="fill-nosering" fill="#ffffff" d="M1000 1361c-4.4 14.5-13.5 36 1 47.5 12.2 9.6 32.5 9.9 45 .9 16-11.4 6.6-33.4 2.1-48.4 38.4-2.2 59.8 43.8 36 73.5-32 39.8-87.9 39.8-120 0-23.9-29.6-2.4-75.7 36-73.5Z" class="fill" data-original-prefix="fill"/><path id="shading-mouthbit" fill="#aaaaaa" d="M1000 1361c-4.4 14.5-13.5 36 1 47.5 12.2 9.6 32.5 9.9 45 .9 16-11.4 6.6-33.4 2.1-48.4 38.4-2.2 59.8 43.8 36 73.5-32 39.8-87.9 39.8-120 0-23.9-29.6-2.4-75.7 36-73.5Zm-25.8 9.2c-.8.5-9.6 13.6-10.2 15.2-4.8 12.2-.5 33.1 8.1 43 23.8 27.6 74.5 28.4 100.5 3.6 11.1-10.6 18-35.5 10.3-49.4-1-1.7-9.2-12.1-10.6-12.5-4.7-1.3-11.9 4.7-13.9 8.8v32c-7.3 3.5-14.6 8.6-22 11.9-11.8 5.3-12.2 5.3-24.1.3-7.9-3.4-15.1-8.4-22.8-12.2-.2-7-1.1-14.7-1.3-21.5 0-3.5 1.8-7.7.6-11.8-1.1-3.7-11.2-9.5-14.6-7.5Z" class="outline shading" data-original-prefix="shading" opacity="0.5" style="opacity: 0.5"/><path id="outline-mouthbit" fill="#000000" d="M990.8 1356.3c24.1-2.6 14.7 3.9 10.5 17.4-1.5 4.8-3.2 11.8-3.3 16.7-.6 27.4 52.1 26.8 52.1 1s-1.8-12.7-3.3-17.8c-2.3-7.4-11.3-16.7.7-17.8 45.2-4.1 67.1 51.9 38.1 85.1-31.8 36.3-82.1 37.5-117.5 5.5-32.1-29.1-21-85.5 22.8-90.2Zm6.2 7.7c-38.7 8.9-50.2 50.8-19 77.5 29.5 25.2 61.8 25.3 91.5.5 31.7-26.5 20.7-68.9-18.5-78 4.7 10.6 11.9 20 10.7 32.2-4.2 43.6-72.3 43-75.6-.8-.9-11.5 6.5-21.4 10.9-31.4" class="outline" data-original-prefix="outline"/>
    </g>
</svg>