<?xml version="1.0" encoding="UTF-8"?>
<?xml-stylesheet type="text/css" href="../styles/semantic.css" ?>
<svg xmlns="http://www.w3.org/2000/svg" viewBox="0 0 2048 2048">
  <g class="trait-group" data-category="background" id="background-zigzag">
      <defs>
    <pattern id="zigzag-pattern" x="0" y="0" width="100" height="100" patternUnits="userSpaceOnUse">
      <path d="M0,50 l25,-25 l25,25 l25,-25 l25,25" stroke="#444444" stroke-width="3" fill="none" opacity="0.4" style="fill: none"/>
      <path d="M0,75 l25,-25 l25,25 l25,-25 l25,25" stroke="#444444" stroke-width="3" fill="none" opacity="0.3" style="fill: none"/>
      <path d="M0,25 l25,-25 l25,25 l25,-25 l25,25" stroke="#444444" stroke-width="3" fill="none" opacity="0.2" style="fill: none"/>
    </pattern>
  </defs>
  <rect id="color-zigzag-bg" class="color" width="2048" height="2048" fill="#333333"/>
  <rect id="color-zigzag-pattern" class="color" width="2048" height="2048" fill="url(#zigzag-pattern)"/>
    </g><g class="trait-group" data-category="jaw" id="jaw-robo">
      <path id="fill-jaw-robo1" fill="#ffffff" d="M1369.9 1062.1c.4.5 1 11.1 1.4 13.1 11.6 61.7 25.9 123 37.2 184.8 16.2 20.3 35.3 38.1 51.5 58.4l-70.1 149.9-2.3 1.6-31.6-1.9-7.8 59.7-101.2 128.8c-1.6 1.1-2.6-.6-3.6-1.6-11.2-11.1-20.8-28.6-32-40-1.3-1.3-2.6-3.5-4.8-2.9-3.4.9-32.4 51.8-38.3 57.8-25.8 9.8-49.6 24-74.7 35.3-8.9 4-63.2 23-65.1 25.9-.6 1-.4 2.8-.6 2.9-.2.2-3.1-.9-4.4-.9s-3.2 1.3-3.6.9c-.3-.3.7-2.4-2.3-4.2-13.4-8.1-38.6-14-54.4-20.6-28.2-11.8-54.4-28.3-83.3-38.7-6.3-5.8-35.3-57.4-38.7-58.4-2.2-.7-4.5 2.4-5.9 3.9-11.6 12.1-21.3 28.8-33.1 41l-1.9-.9-100.9-128.1c-3.2-19.9-5.4-39.9-7.5-60l-31.6 1.9-2.5-1.4-69.8-149.3c-.3-1.9 4.6-7.3 6.3-9.3 14.5-16.8 30.7-32.1 44.6-49.4 10.6-62 27.2-123.3 37.7-185.3.5-3.2-.7-11.9 2-13.3 104.8-21.7 209.7-42.7 314.5-64.3 7.3-1.5 24.9-7.3 30.5-7.5 4.2 0 24.8 6.2 31.1 7.5 105 21.6 210.1 42.9 315.1 64.4v.2z" class="fill" data-original-prefix="fill"/><path id="shading-jaw-main" fill="#aaaaaa" d="m1369.9 1062.1 28.1 145.4c-4.8-.6-19.2-17.4-22.3-16.4-3.4 1-21.1 37.8-20.7 42.4 12.3 15.8 24.8 31.6 35.4 48.6 3.7 5.9 15.5 24.5 15.6 30.5 0 4.7-10.7 25-13.5 30.5-4.5 8.7-9.8 16.9-14.5 25.5 17.3-8 33.9-18.4 49.3-29.7 4.1-3 10.3-7 13.7-10.3 2.3-2.2 12.4-16.5 13.5-16.5l5.5 6.4-65.1 139.9-6.5 11.5-32.3-1.9-7.8 59.7-101.2 128.8c-1.6 1.1-2.6-.6-3.6-1.6-11.1-11.1-20.8-29.2-31.9-40-.8-.8-1.6-2.1-2.9-1.9-7.3 1.3-32.3 48.3-39.7 55.4-30.9 14.9-60.7 32.4-91.6 47.4-12.8 6.2-33.2 17.2-46.8 18.2-23.7 1.7-37.4-7.3-57.9-17.2-31.4-15.1-61.6-32.8-93-48-8.2-6.6-32.8-54.4-40.3-55.8-2.8-.5-31.3 38.2-35.8 43-1 1.2-2 1.2-3.1 0l-100.9-128.1-7.5-60-31.6 1.9-2.5-1.4-69.8-149.3c-.3-3.1 3.7-7.8 6.8-5.8 1.9 1.2 8.8 11.9 11.5 14.6 2.9 2.9 7.8 6.2 11.2 8.8 4.5 3.4 49.2 33.3 51.3 31.2-7.3-15.4-17.3-29.8-23.8-45.6-1.2-2.9-3.2-6.7-3.2-9.9 0-5.3 10.4-22 13.7-27.4 11-18.2 24.3-34.9 37.4-51.6-4.2-15.2-12-29-20.1-42.3-.9-.5-2 0-2.9.4-6.3 3.4-12.9 13.3-20 16.5l28.1-145.9 45.8-9.7c48.2-55 116.4-93.5 184.8-118.2 72.2-26 130.6-31.5 205-8.5 77.7 24 155.9 65.5 210.3 126.7zM854 1330c-21-6.7-43.3-4.3-64.4-11.1-14-4.5-30.8-14.7-42.9-23.1-18.1-12.6-35.7-28.4-49.2-45.8-10.7 14.6-22.1 30.4-30.7 46.3-4.3 8-11.3 21.1-7.7 30.1l27.1 48.4c6.1 1.6 17.5-4.7 22.8-2.3 1.5.7 2.4 3.5 4.5 3.5s4.4-5.1 7-5.1 3.4 4.4 7 4.1 5.2-6.6 7.2-7c.5 0 8.2 2.7 8.6 2.9 4.7 2.4.3 18-3.2 21.4.3 1.5 14.2 9.3 16.4 9.6 2.9.5.2-2.4 1-4.9s6.5-6.3 8.8-5.9c5.4.9 6.3 10.2 14.7.3 1.9-2.2 0-4.1 4.5-4.6 8.5-1 5 8.4 7 14.1 12.4-17.2 20.2-37.4 32.1-54.9l29.4-16.1Zm507.8 44.8c8.8-17.7 20.1-34.4 28.2-52.3-.4-8.9-2.9-14.5-6.9-22.2-8.9-17.4-21.4-34.4-32.7-50.3-21.1 25.5-52 52.2-82.8 65.2-24.8 10.4-48.4 7.8-73.7 14.8l29.7 16.3c11.6 17.6 19.4 37.7 31.8 54.7.9-1.8 1-13.5 1.5-14s7.3-.2 7.8.2c1 .6 1.6 7.8 6.9 8.7 6.3 1.1 7.7-7.8 15.4-2.8 2.7 1.8 3.1 6 2.8 8.9 1.2 1.4 17.7-8.3 18-9.6.2-1-3.9-5.8-4.6-8.4-2.2-9.5-1.5-13.7 8.4-14.8 5.3-.6 2.8 2.2 5.5 4.5 4.6 4 7.8-2.7 10-2.6 2.7.2 5 4.9 7.2 4.9s3-2.8 4.5-3.5c5.2-2.4 16.6 3.8 22.8 2.3zM1078 1327c-5.5-11.1-10.5-24.8-17.6-34.9-4.2-6.1-10.2-10.5-14.9-16.1-3.4-4-15.2-20.5-18.4-21.6-1.9-.6-4.4-.8-6.3-.2-2.4.7-15.7 18.7-18.7 22.3s-7.4 6.8-10.5 10.5c-9.4 11.2-15.1 26.9-21.5 40h108Zm-353.8 172.8c24.8 5.4 50.2 7.7 75 13.6 17.3 4.1 20.3 3.6 29.6 19.4 5.3 8.9 9.2 18.7 14.2 27.8l17 14-29.2-80.8c-2.4-5.8-8-8-13.1-10.9-22.2-12.9-51.7-27.2-75.7-36.3-2.6-1-8.1-3.8-10.4-3.5-1 0-15.6 9.5-16.3 10.3-6.3 7.6 6.8 37.2 8.9 46.5Zm599.6 0c2.5-10.6 8.2-22.1 9.8-32.7.8-5.7 1.7-10.9-3-15.1-1.1-1-13.2-8.9-14-9-2.5-.3-19.4 7.2-23.2 8.8-20.7 8.8-45.7 20.5-65 32-5.6 3.4-8.8 4.9-11.8 11.2l-28.5 80 16.4-14.1c7.1-10.9 14.9-35.4 25.9-42.1 6.1-3.8 19.9-5.9 27.5-7.5 21.8-4.6 44.2-6.7 66-11.5zM908.5 1649v1c.7-.3.7-.7 0-1m229.5 1c-31 8.8-60.6 26.8-91 36.5-19.3 6.2-28.3 5.9-47.5-.4-28.3-9.3-56.5-25.5-85-35.1-1.2-.4-3.6-1.8-4.5-.5.8 2.1 2.7 4.2 4 6 4.9 6.3 18 23.3 23.5 27.5 7.2 5.5 27.9 14.6 37.1 18.9 5 2.3 20.9 10.5 24.9 11.1 9 1.4 36.3 1 46 0 7-.6 57.7-24.6 64.4-29.6 5.3-3.9 18.2-20.8 23-27 .8-1 5.8-6.8 5-7.5Z" class="outline shading" data-original-prefix="shading" opacity="0.5" style="opacity: 0.5"/><path id="outline-jaw" fill="#000000" d="M670 1105c2 .2 9.2 3.6 9.8 5.7 1 3.3-1.3 18.1-2 22.7-6 41.8-19.7 84.1-28.6 125.4-12.3 18.3-29.3 33.5-43.8 50.2-1.2 1.3-6.5 7.5-6.5 8.5l56 135.5c1.5.4 1.7-.4 2.5-1 7.1-4.9 23.9-23.3 30.5-30.5 1.5-1.6 9.9-11.2 10-12-17.6-32.9-42.5-63.1-49.8-100.8 17.2-28.9 35.3-57.4 56.9-83.2 6.2-7.4 21.8-27.5 32-26.1 4.7.6 8.6 4.8 6.4 9.5-23 21-44.9 44.7-62.7 70.3-3.2 4.6-15.2 22.2-15.6 26.5-.5 5.1 11.8 29.8 15 35.6 7 12.8 29.4 46.8 40.5 54.5 2.8 1.9 7 3.2 10 5 77.7 46.7 153.2 90.1 243.1 109.9 13.1 2.9 37.4 9.1 49.8 9.2 11.3 0 33.7-5.7 45.6-8.2 92.6-19.7 168.3-62.9 248.1-110.9 3.1-1.8 7.2-3.1 10-5 11.1-7.7 33.4-41.8 40.5-54.5 3.2-5.8 15.5-30.5 15-35.6-.4-3.9-10.7-19.3-13.6-23.5-18.3-27-40.8-51.3-64.7-73.3-2.5-9.2 6.9-10.8 13.8-7.8 10.7 4.6 40.4 44.2 48.5 55.5 11.9 16.7 22.3 34.6 33 52.1-7.3 37.7-32.2 67.9-49.8 100.8 0 .8 8.5 10.4 10 12 6.6 7.2 23.4 25.6 30.5 30.5.8.6 1 1.4 2.5 1l55.8-135.3c-15.4-20.6-35.6-37.7-50.1-58.9-8.6-41-22.6-83.1-28.6-124.4-.7-4.8-3.1-20-1.9-23.7.6-2.1 8-5.5 9.8-5.7 4.6-.4 10.8 5.1 11.9 9.6 8.1 44.1 13.6 92.9 27.6 135.4 9.1 27.6 33.8 39.8 52 60 4.9 5.4 6.6 7.2 4.8 14.8-2.1 8.6-9.2 23.2-12.8 32.2-16.7 41-35.5 81.7-54.5 121.5-2.5 2.1-18.6 9-21.4 8.6-4.6-.7-13.3-13.3-18.5-15-3.1 22.3-7.1 44.7-11.8 66.7-29.2 38.3-55.4 79-82.3 118.7-10.2 4.1-22.2 12.3-32.2 15.8-1.5.5-3 1.3-4.6.7l-24.6-43.9c-1.1.5-16.2 15.9-17.3 17.7-6.5 10.1-3.8 21-14.2 29.8-22.9 19.1-72.2 40.2-100.7 51.3-18.6 7.3-34.3 14.2-54.7 14.3-24 .2-49.5-11.4-71.5-20.6-23.2-9.8-67.3-29.4-85.5-45.5-10.3-9.1-7.3-19.2-13.7-29.3-1.1-1.7-16.2-17.1-17.3-17.7L812 1674c-1.6.6-3.1 0-4.6-.7-10.1-3.5-22-11.7-32.2-15.8-26.9-39.8-53.1-80.4-82.3-118.7-4.7-22-8.6-44.4-11.8-66.7-5.2 1.7-14 14.4-18.5 15-2.8.4-18.9-6.5-21.4-8.6-19-39.8-37.8-80.5-54.5-121.5-3.6-8.9-10.8-23.6-12.8-32.2-1.8-7.6 0-9.4 4.8-14.8 13.4-14.9 37.6-30.5 47.2-47.8 7.3-13.1 12.4-41.8 15.8-57.2 4.5-20.4 8.5-41.2 12.2-61.8 1.5-8.5 1.8-19.4 3.7-27.3 1.2-5 7.2-11.3 12.6-10.9zm664.9 411.9 14.2-77.4c-.2-3.8-5.4-5.5-8.1-8-2.9-2.7-5.4-5.9-8.6-8.3-82.7 31.3-155.3 82.7-242.3 103.3-57 13.5-94.2 11-150.2-4.8-69.9-19.7-131-59.2-197.1-87.9-6-2.6-20.1-9.4-25.7-10.4-2.8-.5-7.7 6-10 8.1-2.1 2-7.6 4.5-8.1 7l14.2 78.3c17.8 1.1 35.6 3.8 53.4 5.1 9.3.7 42.4-.4 47.8 3.9 8.5 20 14.6 41 23.2 61 2.8 6.5 6.2 15.2 9.9 21.1 5.4 8.7 15 14.9 20 23.1 5.6 9.2 8.1 23.6 15.5 31.5 5.1 5.5 21.6 15 28.8 19.2 31 18.4 83.7 44.6 119.8 42.2 30.1-1.9 87.2-31 113.4-47.6 5.2-3.3 16.2-9.8 20.1-13.9 7.2-7.5 10.4-24.2 16.1-32.9 2.7-4.1 8-7.8 11.3-11.7 8.3-9.7 11.9-17.5 16.9-29.1 9-20.6 15.3-42.4 24.2-63 14.6-5 32.2-2.8 47.8-4 17.8-1.3 35.6-4.1 53.4-5.1v.3ZM801 1649c5.8-16.3 16.4-30.6 24.8-45.6-4.3-11.7-7.5-23.9-12-35.6-2.2-5.8-7.4-19.7-10.9-24.1-10.8-13.6-69.6-12.5-86.9-16.6-.5 1.7.7 2 1.5 3 13.4 17.3 27.7 33.6 40.3 51.7 15.2 21.9 28.4 45.1 43.2 67.3Zm531-122c-17.3 4.1-76.1 3-86.9 16.6-3.5 4.4-8.6 18.3-10.9 24.1-4.5 11.7-7.7 23.9-12 35.6 8.4 15.1 18.9 29.3 24.8 45.6 14.7-22.2 27.9-45.4 43.2-67.3 12.6-18.1 26.9-34.3 40.3-51.7.8-1 1.9-1.3 1.5-3Z" class="outline" data-original-prefix="outline"/><path id="outline-jaw1" fill="#000000" d="M785.7 1376.3c8.1 7.2 8.5 18.5 4.1 27.9-5.2 10.9-19.3 10.7-26.7 2.3-15.1-17.3 3.6-47 22.7-30.2Zm-12 4.9c-10.7 1.7-7.7 23.9 4.7 21.8 10.2-1.7 4.4-23.3-4.7-21.8" class="outline" data-name="outline-jaw" data-original-prefix="outline"/><path id="outline-jaw2" fill="#000000" d="M1262.3 1376.3c22.7-20.1 40.5 23.7 16.9 34.4-21.7 9.8-31.5-21.5-16.9-34.4m10.4 4.9c-10.5 1.7-12.6 25.9 1.3 21.4 10.1-3.2 8.1-22.9-1.3-21.4" class="outline" data-name="outline-jaw" data-original-prefix="outline"/><path id="outline-jaw3" fill="#000000" d="M723.7 1356.2c15.6-2.8 28.9 19.5 15.8 29.8-10 7.8-24 0-26.8-11.2-1.8-7.1 3.5-17.2 11-18.6m9.1 22.6c6.5-6.5-8.3-22.1-11.4-7.8-1.5 7.3 7.1 12.1 11.4 7.8" class="outline" data-name="outline-jaw" data-original-prefix="outline"/><path id="outline-jaw4" fill="#000000" d="M1317.7 1356.2c14.2-2.9 23 13.6 14.3 25.3-12 16-34.6 4.8-27.5-13.5 1.7-4.3 8.7-10.8 13.2-11.8m-2.5 22.6c4.3 4.3 12.9-.5 11.4-7.8-3-14.3-17.9 1.3-11.4 7.8" class="outline" data-name="outline-jaw" data-original-prefix="outline"/>
    </g><g class="trait-group" data-category="mouth" id="mouth-cracked scrappy">
      <path id="fill-muzzle-1" fill="#ffffff" d="M1038 1292s-.4 1.7.7 2c10.3 2.8 18 4.3 25.8 13 1.9 2.2 4.9 8.8 6.5 9.5 2.6 1.2 6.6 0 9.5.5 11.4 1.5 21.2 3.7 31.2 9.8 2.1 1.3 9.2 7.8 10.2 7.1.3-.3 0-1.7 0-1.9 2.4-1.8 32.7.6 38 1 5.2 4.2 13.2 5.5 19.2 8.3 13.7 6.4 22.5 16.1 29.9 29.1 8.4 14.6 7.7 17.8 3.1 33.4-2.5 8.5-4.8 21.8-16.3 20.2 1.5-15.5-14.8-32.4-26.5-41-3.2-2.4-11.3-7.2-6 0 10.7 14.6 20.5 15 21.5 37.5.5 10.4-8.3 32.8-15.4 40.5-.6.7-7.1 6.3-7.6 6.5-3 1.6-6.8-6.1-7.8-8.2-3.7-7.7-4.8-15.6-9.7-23.3-1.1-1.7-10.8-13.7-12.4-12.1 5.6 13 9 46.2-2.5 56-4.4 3.7-9.4 1.9-13.3 3.7-2.8 1.3-3.1 5.8-4.8 6.2-.9.2-7.2-3.2-9.4-3.5-9.3-1.3-13.1 17-18.7 17.4-2.5.2-10.7-11.9-18.4-9.4-6.8 2.2-15.3 20.6-23.6 23.5-7.3-4.5-4.2-14-6.6-21.1-1.2-3.5-4.2-6.7-5.8-10.2-5.4-12.7-2.8-19.9-.2-32.2.7-3.3-.2-6.3 1.2-9.8.4-1 6-11.5 6.6-12.4 3.7-5.4 19.2-12.4 22.7-3.8.9 2.2 0 8.7 2.2 7.7 5.1-4.9 10.2-9.9 15.5-14.5 10.2-8.9 12.8-8.2 19.5-21.5 1.9-3.8 8.1-17.3 8.2-20.7.2-6.3-17.9-22.6-21-29-3.6-2.9-22.1-2.8-27.2-2.3-14.1 1.5-18 12.2-27.5 19.5-1 .8-1.3 1.9-3 1.5l.8-12.7c7.6-8.2 14.9-16.6 21.1-26 .7-3.3-8.6-12.4-11.3-13.2-3.6-1 .5 5.5.5 6.6.4 5.2-5.9 4.1-9.3 5.6-1.2.5-3 2.7-3.2 2.7s-2-2.2-3.2-2.7c-8-3.5-11.7.6-7.3-12.2-1.6-1.7-12.5 9.1-12.9 11.7-.2 1.6 3.6 7.8 4.8 9.5 1.5 2 5 5.9 7 8.3 3.2 3.9 9.7 7.7 9.9 13.1 0 1.6-.8 3.1-.8 4.8s2.6 8.1-2.5 3.6c-6.2-5.3-10.1-13.6-18.5-17.5-6.8-3.1-28.3-4.1-34.7-.8-.8.4-9.9 11.1-11.2 12.8-2.4 3-10.9 13.7-10.8 16.8.2 5.1 11.2 27.9 14.7 32.2 2.8 3.4 10.2 7.7 14 11 5 4.3 9.7 9.1 14.5 13.5 2.2.9 1.5-5.2 2-7 2.4-9.9 19.2-2.4 23 3.1.7.9 6.6 13.1 6.9 14.1 2.9 11 5.6 26.6 1.9 37.5-1.7 4.9-6.8 10.4-7.8 15.2-1.4 6.6 1 13.6-5 19-5.3 1.2-18.8-21.7-24.4-23.5-8.2-2.6-15.9 9.6-18.4 9.4-5.3-.4-8.7-14-13.9-16.1-6.9-2.8-11.5 2.7-14.1 2.1-1.8-.4-2-4.8-4.8-6.1-4.5-2-9.6.3-14.3-4.7-10.9-11.5-6.5-42.2-1.5-56.1-9.1 6.7-14.1 14.8-18.5 25-1.6 3.6-2 7.5-3.7 11.3-1 2.1-4.9 9.8-7.8 8.2-.4-.2-6.9-5.8-7.5-6.5-4-4.2-13.8-24.3-15-30-2.8-12.9 1.4-26.5 9.5-36.5 4.1-5.1 11.3-9 13-15.5-2.4-2.4-22.3 17.4-24.4 20.1-5.4 6.8-11 15.9-9.6 24.9-4.7.2-8.1-.7-10.8-4.7-1.8-2.7-8.8-24.3-9.2-27.8-1.1-10.9 10.9-28.8 18-37 10.5-12.2 24.5-14.2 38-21.5 12.5-.8 24.5-2.3 37-1 0 0 .7 2.1.5 3 9.5-8.2 20.6-14.8 33.1-16.9 4.7-.8 14.8-.4 18.1-1.8 1.6-.7 5.2-7.7 7.2-9.9 8-8.4 15.2-9.7 25.4-12.5 1.1-.3.6-1.9.7-2 1.1-.7 25.9-.7 27 0Z" class="fill" data-original-prefix="fill"/><path id="fill-teeth16" fill="#ffffff" d="M995.3 1525.7c11 9.5 17.2-6.6 23.2 6.3 6.5 14.1 3.7 38.4-1 52.9-.7 2.1-7.1 16.9-8 17.1-1.2.3-3-.4-4.2-.9-12-5.1-31.7-18.1-39.1-28.9-10.6-15.5-6.4-42.9 6.8-55.8 1.3-1.3 9.1-5.6 10.4-5.3 1.5.3 9.4 12.3 12 14.5h-.1Z" class="fill" data-original-prefix="fill"/><path id="fill-teeth15" fill="#ffffff" d="M1039.1 1601.9c-.8-.5-7.5-16.1-8.1-18.4-4.1-13.8-6.5-36.9-1.3-50.3 4.6-12 8.1-4.3 15.8-4.2 9.5.2 17.3-18.2 20.8-17.9 1.2 0 8.5 4.2 9.7 5.3 6.3 6.2 12.2 22.3 13 31 2.4 28-20.3 39.6-41.3 50.7-2 1.1-5.7 5.5-8.6 3.7Z" class="fill" data-original-prefix="fill"/><path id="fill-teeth14" fill="#ffffff" d="M904 1461c0 2.2-1.1 3.8-.8 6.2.2 1.8 7.1 22 8 23.1 3.9 5.1 11.2 3.2 16.7 3.8 4.9 13.5-4.2 23.8-8.6 35.6-2 5.3-8.7 33.1-12.8 34.2-1.8.5-6.8-9.1-8.3-10.7-10.3-23.9-15.3-58.4-2.6-82.2.6-1.2 7.1-11.6 8.4-10.1Z" class="fill" data-original-prefix="fill"/><path id="fill-teeth13" fill="#ffffff" d="M1144 1564c-2.1 1.4-6.1-7.1-6.8-8.7-3.2-7.9-4.4-17.4-7.5-25.5-4.3-11.6-13.6-22-8.6-35.6 4.8-.6 12.3 1.2 15.9-2.9 1.3-1.5 8.1-20.6 8.6-23.2.3-1.8-1.4-7 .9-6 6 2.7 13.7 26 14.4 32.6 1.4 13.9-2.9 45-9.3 57.4-.8 1.5-7 11.6-7.6 11.9" class="fill" data-original-prefix="fill"/><path id="fill-teeth12" fill="#ffffff" d="M1093.1 1644.9c-2.9-1.8-2.4-28.5-2.1-33.4.7-10.5 5.2-31.2 8.9-41.1 1.1-2.8 2.4-1.4 4.2 0 12.2 9.6 21.1 44.8 12.8 57.9-1.9 3-15.6 14.9-18.9 16.1-1.3.5-3.8 1.1-4.8.4Z" class="fill" data-original-prefix="fill"/><path id="fill-teeth11" fill="#ffffff" d="M949 1569c5.5 22 11.1 44.4 9 67.5-.5 5.2-.9 10.3-7 8-3.4-1.3-17.5-13.4-19.5-16.5-5.8-9.2-1.4-31.3 2.7-41.2 1.2-2.9 11.3-21 14.8-17.7Z" class="fill" data-original-prefix="fill"/><path id="fill-teeth10" fill="#ffffff" d="M881.7 1478.3c3.1 2.8-2.7 21-2.8 26.2 0 5.9 2.6 12.4 3.1 18 .2 2.1.7 24.5-.5 24.5-1.5.2-2.1-1.1-2.9-2.1-15.6-18.9-34.8-51.8-17.4-75.3 6.5-8.8 10.5 2.1 14.9 5.8 1.8 1.5 4.9 2.1 5.7 2.8Z" class="fill" data-original-prefix="fill"/><path id="fill-teeth9" fill="#ffffff" d="M1185.7 1467.3c1.9 1.6 7.8 13.7 8.2 16.2 3.2 20.7-9.8 47.3-23.9 61.9-.9 1-1.3 1.9-3 1.5.5-8-.7-16.6 0-24.5.4-5.4 3.1-12.3 3.1-18s-6.1-23.4-2.8-26.2c.6-.6 2.5-.6 3.8-1.7 3.4-3 10-13.1 14.7-9.3Z" class="fill" data-original-prefix="fill"/><path id="fill-teeth8" fill="#ffffff" d="M1018 1613v16.5c0 .9-10.8 13.2-11.9 14.1-6.3 4.8-8-2.6-10.6-5.5-5.5-6-17.9-.4-24.4-5.6-1.2-.9-4.1-8.8-4.1-9.9v-22.5c12.9 1.7 28.3 17.5 41.4 15.9 3.5-.4 6.1-3 9.6-2.9Z" class="fill" data-original-prefix="fill"/><path id="fill-teeth7" fill="#ffffff" d="M1031 1613c6.3 1.3 9.1 4 16.1 2.6 10.6-2.2 24.3-14.8 33.4-15.6 2-.2 1.4 0 1.2 1.3-.8 6.5 2.4 27.5-4.4 31.6-7 4.2-18.8-.3-23.4 4.6-2.1 2.2-3.6 8-8.4 7.6-1 0-14.6-13.5-14.6-14.6V1613z" class="fill" data-original-prefix="fill"/><path id="fill-teeth6" fill="#ffffff" d="M1102.5 1494c3.3-.8 4.5 6.9 5.3 8.7 5.6 12.1 13 24.8 13.3 38.8.2 9-16 29.8-21.3 16.2-4-10.4-4.1-44.8-1.1-55.5.4-1.6 2.4-7.9 3.8-8.2" class="fill" data-original-prefix="fill"/><path id="fill-teeth5" fill="#ffffff" d="M937.3 1559.7c-1.9-1.6-7.8-10.5-8.5-13-3.6-12.1 6-31.3 11.4-42 1.6-3.1 3.3-14.7 8-7.4 5.5 8.5 4.3 41.5 2.7 52.1-1.2 7.7-3.6 18.7-13.6 10.3" class="fill" data-original-prefix="fill"/><path id="fill-teeth4" fill="#ffffff" d="M917 1563c-1.8 13.4 2.9 27.5 2 40.5-.6 9-4.4 18.4-5.5 27.5-6.2-6-10.5-16.1-11.4-24.6-.5-5.2.7-24.7 2.4-29.3.6-1.6 10.5-16.2 12.4-14.1Z" class="fill" data-original-prefix="fill"/><path id="fill-teeth3" fill="#ffffff" d="M1135 1631c-.4-8.9-4.4-17.8-5.1-26.5-1-13.8 3.7-27.6 2-41.5 2.2-2.4 11.9 13 12.5 15 2 6.6 2.6 27.4 1.2 34.3-1.3 6.3-5.5 14.9-10.8 18.7z" class="fill" data-original-prefix="fill"/><path id="fill-teeth2" fill="#ffffff" d="M1154.1 1604.9c-3.4-2-5.1-22.3-3.9-26.2.8-2.6 8.9-5.2 10.2-8.8l5.1-10.9c3.8 3.4 5.1 7.2 4.3 12.2-.7 4.2-5.4 22.7-6.9 26.2-.9 2.2-6.1 9-8.8 7.5" class="fill" data-original-prefix="fill"/><path id="fill-teeth1" fill="#ffffff" d="M885 1559c-.3 3.7 1.7 9.4 4 12.2s9.5 5.2 10 8.3c-2 8.4 1.6 19.2-5.7 25.4-3.6-1.1-6-4-7.4-7.4s-6.5-23.6-6.9-27.1c-.5-4.2 1.2-10.6 5.9-11.4z" class="fill" data-original-prefix="fill"/><path id="shading-mouth2" fill="#aaaaaa" d="M918 1443.5c.8 5.3 5.6 13.8 10.1 16.9 11.5 8.3 16.2-.3 22.4-9.4 2.5 5.4 3.4 11.5 6 17 1.4 2.8 5.7 12 7.5 5.5l4-11.5c1.6 7.5 6.3 15.4 11.5 21 4.3 4.7 18.8 15.4 24.6 9.6 2-2.1 8.3-17.9 10.8-22.2 1.2-2.2 7.8-13.8 9.7-13.3 1 .2 8.5 13.2 9.7 15.3 2.4 4.5 7.3 17.7 9.8 20.2 3.8 3.8 10.5.4 14.4-1.8 10.5-5.9 18.5-17.2 21.7-28.8l4.2 12.3c.3 1.2 1.9 2.4 2.8 1.7.6-.4 5.8-11.3 6.5-13 .8-2 2.8-12 4-12 6.8 10.7 12.9 18.4 24.5 7.5 8.6-8 9.3-23.8 7-34.5 3.5-3.1 21.1 16.1 26.6 16.9 9.1 1.4 17.6-11.8 19-19.9 3.5-20.5-12.9-39.2-30.9-46.2l-12.7-4.8c15.4 0 28.2 2.9 41.1 11.4 4.8 3.1 12.2 10.9 17.6 11.4 6.2.6 10.1-4.1 10-10-.4-19.3-25.8-38.1-39.7-48.8 15.4 2.4 34.6 11.8 45 23.5 7.8 8.8 19.1 25.1 19.1 37s-6.4 28.5-9.2 32.8c-3.3 5.3-11.7 5.4-13.4 10.6-.9 8.1-2.1 16.4-2.5 24.5-1.5 29 1.4 45.2-10.8 73.2-3.6 8.2-12.7 20.4-14.9 27.1-4.2 12.8-.7 26.4-9.1 38.9-3.2 4.8-8.4 6.7-11.2 10.8-1.7 2.5-2.4 6.1-4.2 8.8-4.5 6.7-14.6 23-21.6 8.9-1.6-3.3-1.3-12.9-6.7-6.2-1.4 1.7-1.9 4.4-3.5 6.5-3.7 4.7-17.7 19.6-23.5 19.5-2.2 0-4.5-4.1-6.6-5.4-7.9-5-21.1-6.3-29.2-1.4-7.3 4.4-9.5 13.6-18.1 6.8s-6.4-10.8-20.1-9c-5.6.7-11.4 12.6-16.9 12.1-2.8-.2-11.4-11.1-18.5-12.6-6.3-1.3-17.5.7-23 4.2-2.6 1.7-4.1 5.6-7.5 5.4-5.7-.3-19.8-15.8-23.6-20.5-1.2-1.5-4.4-10.6-7.1-6.9-2.5 3.4-.6 9.9-7.2 12.7-7 3-14.9-11.2-18.1-16.4-1.2-1.8-1.2-4.3-2.6-6.4-2-3-6.8-5.4-9.5-8.5-10.4-11.9-6.7-27.7-10.7-41.3-.8-2.6-5.6-8.5-7.3-11.7-18.4-35.7-16.4-45.6-18.4-84.6-.4-7.7-.6-20.7-2.2-27.8-1.5-6.2-11.1-6.1-14.2-11.8-3.4-6.1-9.3-29.6-8.6-36.4 1.2-10.3 16.2-31.2 24-38 10.5-9.2 26.2-16.5 40-18.5l-21.5 17c-7.2 6.4-26.8 32-14.8 39.9 9 5.9 16.7-4.5 23.7-9.1 12.7-8.4 25.3-11.8 40.7-11.8l-17.3 7.2c-18 9.4-33.1 32.7-22.1 52.8 1.7 3.1 8.6 10.4 12 11.1 9.1 1.7 20.7-15.4 29.5-18 .6 6.4-.9 14.3 0 20.5zm-37.1 40.6c-12.3-.5-17.1-20.2-22.8 1.5-3.4 13 1.2 26.4 9.4 36.5 1.5 1.8 12.7 13.1 13.9 12.9.8 0 2.5-2.3 2.8-3.2 2.9-7.1-3.2-12.2-4.2-19.2-1.5-9.8 0-18.7.9-28.4Zm301.8-8.9c-3.2.8-6.3 6-8.8 7.3-2.1 1.1-7.2 1-7.8 3.2-.5 1.7 3 10.8 2.9 14.8 0 3-1.5 13.9-2.2 16.8-.9 3.6-3.9 5.7-3.9 10.2s1.4 7.1 3.7 7.4c1.9.3 15-14.4 16.8-17 5.7-8.5 9-18.8 7.3-29.2-.5-3-4.4-14.5-8-13.6Zm-284.8 10c-4-2.3-6.5 9.9-6.8 12.5-1.2 10.5 3 38 8.7 47.1 1.9 3 5.4 6.9 9.2 7.3 3.7-15.6 12.6-29.2 21-42.5-2.3-.4-1.7-2.9-2.7-3.5-1.5-.9-7-1.9-9.7-3.1-4.7-2.2-12-7.7-15.6-11.4-1.2-1.2-3.8-6.2-4.2-6.3ZM1139 1552c8.3-2 11.9-12.2 13.9-19.6 3.1-12.1 6.1-33.4 1.1-44.8-3-6.9-5.8 1.7-8.3 4.1-3.9 3.8-11 9.3-16 11.6-2.5 1.1-7.8 1.8-9.1 2.7-.7.5-.5 1.8-1 2.7-.3.4-1.7.4-1.6.9 0 1 7.9 12.3 9.2 14.8 4.8 8.8 9.1 18 11.8 27.7Zm-197.7 5.7c8.1 8.1 9.5 0 10.5-7.3.8-5.6 2.7-20.6 1.7-25.4-3.6-17.2-21.3-15.9-21.6 3.6 0 6.8 4.6 24.3 9.4 29.2Zm161.5-44.5c-5 1.3-8.5 9.3-8.8 14.2-.2 4 2.4 28.5 3.8 31.3 2.5 5 7.5 0 9.8-2.7 6.8-8.3 11.6-30.7 4.5-39.5-2.7-3.3-4.8-4.4-9.2-3.3zM1023 1544c-.7-.7-.8-7-5.1-9.4-8.9-5-21.8-.8-32-4-10.4-3.3-9.4-13.1-16.1 1.8-2.9 6.4-9.1 24.4-6.3 30.7 1.1 2.4 17.8 15.6 21.2 17.8s18.2 11.7 21.1 10c3.1-5.6 9.3-9.5 12.6-14.9 1.8-2.8 4.1-11.5 4.6-11.9 1.6-1.7 1.7.5 2.1 1.4 1.6 3.6 2.1 6.8 4.5 10.5 3.3 5.2 9.2 9.3 12.4 14.6 3.1 1.9 15.5-5.9 18.9-8.1 4.5-2.9 22.9-17 23.9-21.1 2.2-9.7-6.6-28.3-10.9-37.2-4.9 1-7.8 5.2-12.7 6.7-9.2 2.8-28.2-1.6-33.7 6.3-.9 1.2-2.6 8.9-4.5 7zm-136 18c-.7-.6-3.5 0-4.5.9-6 6.2 2.4 31.6 14.6 27.6 4-1.3 3.8-9.4 2.8-12.9-1.1-3.9-7.2-4.1-9.8-7.2-2.1-2.5-2.7-8.2-3-8.5Zm274.1 0c-.3.3-.9 6-3 8.5-2.6 3.1-8.7 3.3-9.8 7.2-1 3.4-1.2 11.6 2.8 12.9 13.4 4.4 20.2-24.5 14.1-28.1-.9-.5-3.5-.9-4-.4Zm-216.4 7.2c-1.5.4-5.1 4.6-6 6.1-3.4 5.6-5.6 32.3-4.8 39.3 1.3 10.9 15.2 18 19.5 3.5 1.7-5.6 2.6-21.4 2.5-27.6 0-1.1-5.8-19.7-6.5-20.5-1.2-1.4-3.2-1.3-4.8-.8Zm153.3-.1c.2 6.6-5.4 14.7-6 20.6-.5 4.5 1 25.3 2.4 29.4 4.2 12.1 16.9 7.3 19.1-2.9 1.1-5.2 0-16.8-.6-22.6-1-9.7-1.7-25.5-14.9-24.5m-180 1.9c-20.5 3.8-17 28.7-9 43 4 2.9 10.4-17 10.7-19.8.9-7.5-2.9-15.5-1.8-23.2Zm218 43c2.5 1.8 7.2-9.1 7.7-10.8 3.9-12.8 1.6-30.1-13.7-32.2.5 7.4-2.8 16.2-1.9 23.4.3 2.7 6.4 18.5 7.9 19.6m-148.2 10.2c1.4.8 4.8 8.6 9.5 11 11.1 5.8 20.2-6.4 20.7-16.7.8-13.7-7.2-7.7-16.5-8.6-8.4-.8-15-4.8-21.8-9.2-5.5-3.5-13.6-14.6-14.7-1.4-.5 5.1 1.4 7.5 1.8 11.2s-2 5.9.5 10.7c4.8 9.3 18 1.3 20.7 2.8zm93.1-31.1c-2.1-1.5-19.7 12.7-23.9 14.4-2.3 1-7.9 2.3-10.5 2.5-10.5.9-18.8-5.4-16.4 11.4 1 7.3 7.9 15.8 16 15.1 9.4-.8 11.9-11.6 14.6-12.4 4-1.3 12.3 5.7 18.9-1.1 4.3-4.4 1.3-8.4 1.5-12.5 0-2.3 1.9-4.8 2-8.1 0-1.9-.8-8.5-2.2-9.4Z" class="outline shading" data-original-prefix="shading" opacity="0.5" style="opacity: 0.5"/><path id="shading-mouth1" fill="#aaaaaa" d="M1041 1343c6.1.5 12.7-1 17.5-5 1.5-1.3.9-3.7 2.8-2.9 10.1 7.9 37.9 17.4 43.8 28.2 3.6 6.5 4.6 17.5-1.8 22.6-5.6 4.5-20.8 10.8-28 15-4.9 2.8-9.7 6.6-14.7 9.3-7.4 4.1-25.5 14.5-32.6 16.4-2.9.8-5.2.8-8.1 0-14.5-3.8-42.2-22.5-56.3-30.7-6.2-3.6-21.2-9.1-23.2-15.8-5.5-18.4 15.7-28.3 28.7-35.4 2.3-1.2 15.5-8.6 16.5-8.7 2.9-.3 4.2 2.9 6.7 4.2 4.2 2.3 10 3.2 14.7 2.8-.3-5.1-3.3-11.3-1.8-16.3.5-1.6 12.5-13.9 14.5-14.4 3.9-1 8.2-.3 11.6 1.9 1 .7 10.8 11.1 11.2 11.8 2.1 5-1.2 11.8-1.5 17" class="outline shading" data-original-prefix="shading" opacity="0.5" style="opacity: 0.5"/><path id="outline-mouth3" fill="#000000" d="M889 1333c-13.5 7.3-27.4 9.4-38 21.5-7.1 8.2-19.1 26.1-18 37 .3 3.5 7.3 25.1 9.2 27.8 2.7 4 6.1 4.9 10.8 4.7-1.4-9 4.2-18.1 9.6-24.9 2.1-2.6 22-22.5 24.4-20.1-1.7 6.5-8.8 10.4-13 15.5-8.1 10-12.3 23.6-9.5 36.5 1.2 5.7 11 25.8 15 30 .7.7 7.1 6.3 7.5 6.5 3 1.5 6.9-6.1 7.8-8.2 1.7-3.8 2.1-7.7 3.7-11.3 4.4-10.2 9.4-18.4 18.5-25-5.1 13.9-9.5 44.6 1.5 56.1 4.8 5 9.9 2.7 14.3 4.7 2.8 1.3 3 5.7 4.8 6.1 2.6.6 7.2-4.9 14.1-2.1 5.2 2.1 8.6 15.6 13.9 16.1 2.5.2 10.2-12 18.4-9.4 5.6 1.8 19.1 24.8 24.4 23.5 6.1-5.4 3.7-12.4 5-19 1-4.8 6.1-10.3 7.8-15.2 3.7-10.9 1-26.5-1.9-37.5-.3-1.1-6.2-13.2-6.9-14.1-3.8-5.5-20.6-13-23-3.1-.4 1.8.2 7.9-2 7-4.8-4.4-9.5-9.2-14.5-13.5-3.8-3.3-11.2-7.6-14-11-3.5-4.3-14.5-27.1-14.7-32.2 0-3.1 8.4-13.8 10.8-16.8 1.4-1.7 10.5-12.5 11.2-12.8 6.4-3.2 28-2.3 34.7.8 8.4 3.8 12.4 12.1 18.5 17.5 5.2 4.5 2.5-1.7 2.5-3.6s.9-3.2.8-4.8c-.2-5.4-6.7-9.2-9.9-13.1-2-2.4-5.5-6.3-7-8.3-1.2-1.7-5.1-7.9-4.8-9.5.4-2.6 11.3-13.4 12.9-11.7-4.4 12.8-.7 8.7 7.3 12.2 1.2.5 3 2.7 3.2 2.7s2-2.2 3.2-2.7c3.4-1.5 9.7-.4 9.3-5.6 0-1.1-4.1-7.6-.5-6.6 2.8.8 12.1 10 11.3 13.2-6.2 9.4-13.5 17.8-21.1 26l-.8 12.7c1.7.4 2-.7 3-1.5 9.5-7.3 13.4-18 27.5-19.5 5.1-.6 23.6-.6 27.2 2.3 3.2 6.4 21.2 22.7 21 29 0 3.4-6.3 16.9-8.2 20.7-6.8 13.3-9.3 12.6-19.5 21.5-5.3 4.6-10.4 9.6-15.5 14.5-2.2.9-1.4-5.6-2.2-7.7-3.4-8.6-19-1.6-22.7 3.8-.6.9-6.2 11.4-6.6 12.4-1.3 3.6-.5 6.5-1.2 9.8-2.6 12.3-5.2 19.6.2 32.2 1.5 3.5 4.6 6.8 5.8 10.2 2.4 7.1-.8 16.6 6.6 21.1 8.3-2.8 16.9-21.3 23.6-23.5 7.7-2.4 15.9 9.6 18.4 9.4 5.6-.5 9.4-18.8 18.7-17.4 2.2.3 8.4 3.7 9.4 3.5 1.7-.4 2-4.9 4.8-6.2 3.9-1.8 8.9 0 13.3-3.7 11.5-9.9 8.1-43 2.5-56 1.6-1.6 11.3 10.4 12.4 12.1 4.9 7.6 6.1 15.6 9.7 23.3 1 2.1 4.8 9.8 7.8 8.2.4-.2 6.9-5.8 7.6-6.5 7.1-7.7 15.9-30.1 15.4-40.5-1-22.4-10.8-22.9-21.5-37.5-5.3-7.2 2.8-2.4 6 0 11.8 8.6 28 25.5 26.5 41 11.4 1.6 13.7-11.7 16.3-20.2 4.6-15.6 5.3-18.8-3.1-33.4-7.4-13-16.3-22.7-29.9-29.1-6-2.8-14.1-4.1-19.2-8.3 9.3.7 19.7 2.8 29.2 5.3 7.4 1.9 14.4 3.9 20.7 8.3 3.2 9.3 27.6 34.6 28 42 .2 3.9-8.4 23-10.2 28.7-2.4 7.4-1.3 15.8-9 20-2.1 1.1-8.8 2.4-9.5 3-3.6 3.6-1.9 26-2.2 32.3-1.2 29.7-2.2 52.7-20.5 77.5-.9 1.2-2.6 1.5-3.6 2.7-4.3 5.6-2.8 18.6-4.3 26.5-1.1 6-5 13.1-5.6 18.4-.4 3.6 1.4 7.3.2 10.1-1 2.4-9.9 8-12.6 9.5-2.2 1.2-5.7 1.5-6.5 2-.6.4-5.4 10.9-7.2 13.3-2.1 2.7-11.1 11.3-14 12.1-4.1 1.2-7.9-10.3-9.9-13s-2.3 2.3-3.6 4.3c-4.3 6.7-25.1 26.6-32.4 28.6-1.7.5-3.3.7-5 .5-.2-6.5 3.6-11.9-3-16.5-7.6-5.2-17.7 0-21.5 7.4-4.2 8.3-1.8 29.9-14.4 16.5-7.1-7.5-13-17.8-18.5-26.4-2.8 5-19.9 30.6-24 31-5.8.6-5.9-11.5-7.2-15.8-2.5-8.5-10.5-17.7-20-14.4-12.1 4.1-4.7 16.7-6.3 18.2-6 1.1-9.7-4.5-15-5-1.3 6.3-5.2 11.9-5.1 18.5.2 11.2 13.9 23.7 10.9 33.8-.8 2.7-3.4 3.2-5.5 1.4-3.7-3.3-7.9-17.8-10.4-23.1-3.8-8-11.3-14.9-9.4-23.7 1-4.7 7.9-13.9 7.6-17.4-.5-5.3-12.8-12.5-12-18.6-1.2-.2-1.3-.3-2.1.6-2.1 2.7-6.2 14.3-10.2 13.3s-12-10.2-13.7-12.4c-2.1-2.7-6.6-12.8-7.2-13.2-.7-.5-4.2-.8-6.5-2-2.5-1.3-12.6-7.8-13.2-9.9s1.2-6.2.8-9.7c-.6-5.1-4.5-11.5-5.6-17.4-1.7-8.4.3-19.9-3.9-26.1-5.9-8.8-10.5-12.8-15.3-23.7-13.6-31.3-7.5-52.3-10.1-83.9-.8-9.9-3.8-5.3-10.8-9.3-8.2-4.6-6.8-13.1-9.3-20.7-1.9-5.9-9.7-21.8-10-26.1-.2-3.3 1.1-4.7 2.5-7.3 6.8-12.4 18.9-24.3 26.1-36.9 5.9-4.3 13.2-6 20.1-7.9 9.7-2.6 19.8-4.7 29.2-5.3Zm15 128c-1.4-1.5-7.8 8.9-8.4 10.1-10.6 19.9-8.6 50.8-1.8 71.7 1.1 3.3 9.4 22.1 12.8 21.2 4.4-1.1 10.8-28.9 12.8-34.3 4.3-11.7 13.6-22.1 8.6-35.6-4.8-.6-12.2 1.2-15.9-2.9-1.4-1.5-8.5-21.7-8.8-24s.8-4 .8-6.2Zm240 103c.6-.4 6.8-10.5 7.5-12 6.2-12 8.8-32.9 9.5-46.5.8-15.3-4.1-32.2-14.6-43.5l-2.2 9.8c-4.9 13.6-4.6 25.2-23.1 22.4-5.2 13.7 4.3 23.9 8.6 35.6 3.1 8.4 6 27.5 11.8 33.2.7.7 1.4 1.8 2.4 1.1Zm-262.3-85.7c-1-.9-4.6-2-6.6-3.9-4.2-3.9-7.8-13.1-14-4.7-13.3 17.9-4.1 44.9 7 61.7 1.6 2.4 11.5 15.7 13.3 15.7.5-8 1.2-16.5.5-24.5-.4-5.4-3.1-12.3-3.1-18s6-23.3 2.8-26.2ZM1167 1547c1.7.4 2-.5 3-1.5 17.5-18 32.6-50.9 18.4-74.4-6.5-10.8-10.8-.4-16.9 4.9-2 1.7-5 1.6-5.5 4.5-.8 4.5 4 18.3 4 24s-3.3 14.8-3.6 21.2 1.6 14.6.6 21.3m-219.1-51.9c-4.7-3.3-6.5 7.1-7.7 9.6-5.3 11-11.8 23-12.2 35.8-.2 7.6 10.5 26.2 19.1 21 3-1.8 4.7-18 5-22 .4-6.4.2-41.4-4.1-44.4Zm67.8 32.2c-3.2-2.8-9.7 3.2-15.8 1.3-2.1-.7-8.7-7.5-10.5-9.5-2.6-2.9-3.4-8.8-8.2-7.4-12.2 3.5-20.5 24.1-21.2 35.9-.9 13.6 2.4 21.7 11.5 31.5 9.8 10.4 24 15.7 36.1 23h2.3c2.1-6.4 6.2-12 8.1-18.4 3.7-12.2 7.9-47.3-2.3-56.2zm23.4 74.6c1.1.7 3.4 0 4.6-.7 5.6-2.4 20.1-11.1 25.2-14.8 13.4-9.8 21.4-21.7 20.1-38.9-.9-11.9-9.2-33-22-36.1-4.4-1.1-5.5 5-8 8-1.7 1.9-7.3 7.9-9.2 8.8-9.2 4-14.3-9-20 5-5.4 13.2-2.6 37.5 1.5 51.1.7 2.2 7.1 17.1 7.9 17.6ZM885 1559c-3.2-3.3-6.4 8.4-5.8 12.3.7 4.5 5.4 23.4 7 27 1 2.2 6.2 8.5 8.7 6.7 3.4-2.4 3.2-20.7 4-25.4-.5-3.1-8.3-6.1-11-10-2.3-3.5-2.6-10.1-3-10.5Zm32 4c-1.9-2.2-11.8 12.5-12.4 14.1-1.7 4.6-3 25.2-2.4 30.3.9 7.9 5.6 18 11.4 23.6 1.4-8.8 5-18.6 5.5-27.5.8-13.1-3.7-27.1-2-40.5Zm218 68c7.1-5.4 12.1-18.8 11.8-27.5 0-2.6-1.7-5.2-1.8-8-.3-5.4.8-12.5-.5-17.5-.6-2.3-10.4-17.3-12.5-15 1.5 13.8-3.1 28-2 41.5.7 8.7 4.6 17.6 5.1 26.5Zm-35-62c-2.8 14.2-8.1 27.9-9 42.5-.3 5.3-1.4 33.3 3.6 34.4 2.4.6 18.8-13.3 20.9-15.9 8.3-10.5 3.8-32.3-1-44-1.2-2.9-11-19.9-14.5-17m-82 44c-3.5 0-6.1 2.5-9.6 2.9-12.7 1.6-29.1-13.9-41.4-16.9v24.5c0 .6 3.2 8.2 4.1 8.9 6.5 5.2 18.9-.4 24.4 5.6 2.6 2.9 4.3 10.3 10.6 5.5 1.1-.8 11.9-13.1 11.9-14.1v-16.5Zm64-13c-13.2 1.2-27.8 17.6-41.4 15.9-3.5-.4-6.1-3-9.6-2.9v17.5c0 1.1 13 14.6 15.4 14.5 4.9-.3 5.1-4.7 7.1-7 5.5-6 18.3-.4 24.4-5.6 1-.9 4-9.7 4-11v-21.5Z" class="outline" data-original-prefix="outline"/><path id="outline-mouth2" fill="#000000" d="M1122 1332c-.2 0 .2 1.6 0 1.9-1 .8-8.1-5.8-10.2-7.1-10-6.1-19.8-8.3-31.2-9.8-2.9-.4-6.9.7-9.5-.5-1.5-.8-4.5-7.4-6.5-9.5-7.8-8.7-15.6-10.2-25.8-13-1.1-.3-.6-1.9-.7-2 3.1-3.8 16.2-9.3 20.8-9.8 7.9-.9 5.5 4.4 6.5 9.1 2.3 10.7 9.3 19.6 21.3 18.8 5.1-.3 5.6-4 7.9-4.1 1.4 0 6.6 2.9 8.2 3.8 9.4 5.2 15 12.5 19.3 22.2z" class="outline" data-original-prefix="outline"/><path id="outline-mouth1" fill="#000000" d="M1011 1292s.4 1.7-.7 2c-10.2 2.8-17.4 4.1-25.4 12.5-2 2.1-5.6 9.2-7.2 9.9-3.4 1.4-13.5 1-18.1 1.8-12.5 2.1-23.6 8.7-33.1 16.9.2-.9-.5-2.8-.5-3 .7-2.3 8.9-13.5 11-15.5 2.4-2.4 14.7-10.5 17.6-10.4s3 5.1 11.9 3.9c10-1.3 16.2-10.1 17.5-19.6.4-2.6-2.4-6.7 2.8-8.2 3.5-1 21.7 5.6 24.3 9.8Z" class="outline" data-original-prefix="outline"/>
    </g><g class="trait-group" data-category="eyes" id="eyes-steampunk-goggles">
      <path id="fill-eyes-main" fill="#ffffff" d="M1439.9 1144.1c-3.6 27.9-12.3 55.1-13.9 83.3-.4 7.7.9 16.7 0 24.1-1.3 11-25.5 16.1-34.3 19.7-20.4 8.4-25.3 24-38.8 39.2-55.4 62.9-122.1 75.3-200.5 47.6-42.5-15.1-69.2-37-93.5-74.5-2.7-4.2-10-19.4-13.2-20.8-1.5-.7-2.6-.7-4.2-.8-8.5-.8-27.8-.9-36.1 0-7.2.8-12.1 14.7-16.1 20.9-24.3 37.6-50.5 59.6-93.2 74.8-78.4 28-145 15.9-200.8-46.7-10.3-11.5-17.5-27.2-30.6-35.4-9.5-6-36-11.4-41.4-19.6-3.1-4.8-1.1-21.7-1.5-28.5-1.6-28-10-55.2-14.1-82.8 12.5-7.9 28.7-4.6 42.2-10 6.4-39.3 19.8-78.9 42.1-111.9 3.6-5.3 14.5-21.6 20.4-22.6 3.2-.6 7.4 1 10-1 1.3-.9 3.8-6.5 5.5-8.5 62-76.9 146.3-134.5 246.6-145.4 143.8-15.7 254.6 34.3 344.3 144.4 1.6 2 5.5 8.8 6.4 9.5 2.9 2.2 8.7 0 13.2 1.8 4.2 1.8 12.2 13.5 15.2 17.8 24.3 34.2 38 74.7 45.1 115.9 13 5.5 28.4 2.6 41 9.5Z" class="fill" data-original-prefix="fill"/><path id="fill-eyes-frame" fill="#ffffff" d="M1005 1154.9c17.3-2.1 33.8-.3 51 2.1 1.7-12.1-2.8-7.9-13.9-9.1 1.3-19.1 14.4-40 25.5-55.3 12-16.7 35.3-37.8 54-46.5 12.6-5.8 30.6-6.6 43.8-11.2 3.6-1.2 7.8-4.1 11.6-5.4 23.6-8.2 61.9-10.1 86-4.1 58.3 14.7 98.9 62.2 120.1 116.4 5.6.5 11.1-.4 16.7.8 3.4.8 18.4 8.5 19.7 11.3 1 2.1-2.9 19.4-3.4 23.6-3 24.6-3.8 49-3.1 73.8-7.1 0-16.5 8.3-21.8 9.4-4.1.8-10.8-1.4-13.3.1-1 .6-9 18.3-10.8 21.4-21.6 36.3-58.2 67.7-99.5 79-22.2 6.1-46.6 5.4-69.1 3.8-7.4-.5-65.6-21.8-73.2-26.1-18.3-10.4-47.1-38.2-57.1-56.8-1.2-2.1-6.6-13.6-6.7-14.9-.3-3.6 6.7-1.7 6.4-4.7-.2-1.6-5.5-11.2-6.6-11.5-25.2 5.7-51.5 4.9-76.7 0-1.6.4-4.3 8.6-5 11.5-.3 1.2 7.1 1.2 6.7 4.7-.1 1.4-5.6 12.2-6.7 14.3-9.7 18-39.5 47-57.1 57.4-29.7 17.4-98 32.4-131.4 25.5-52.6-10.9-98.3-53.4-119.4-101.8-5.3-1.4-10-.9-15-1.9-5.3-1.1-14.7-9.3-21.8-9.4.3-22 .3-43.9-2.1-65.8-.5-4.9-5.2-28.9-4.7-30.9.7-2.8 12.1-8.9 15.1-10 7.6-2.9 13.8-3.2 21.8-2.1 7-13.9 12-29.8 20.5-43 31.3-49 86-84 145.8-78.7 24.3 2.2 70 14.7 92.7 23.6 17.8 7 43.7 33.6 54.8 49.2 13.3 18.5 24.1 38.1 26.2 61.3" class="fill" data-original-prefix="fill"/><path id="fill-eyes-lens2" fill="#ffffff" d="M1213.8 1080.3c114.8-12.2 132 184 38.6 222.6-13.9 5.7-36.9 5.7-51.2 1.5-103.1-30.7-92.3-212.9 12.6-224Z" class="fill" data-original-prefix="fill"/><path id="fill-eyes-lens1" fill="#ffffff" d="M808.8 1080.3c122.5-14.7 144.8 173.1 56.5 216.5-113.8 56-166.4-113-102.3-188.3 10.1-11.9 29.9-26.4 45.8-28.2" class="fill" data-original-prefix="fill"/><path id="fill-eyes-strap3" fill="#ffffff" d="M1057.8 1158.2c2.9 2.5.3 11.8.2 15.2-.4 15.7-.2 32.4 2.2 47.9.6 4 6.2 26.3 5.4 27.7-2.1 3.5-28.1 5.8-33 6-8.4.3-44.2-.7-49.6-5.5-1.1-1-.6-1.4-.6-2.5.3-5.9 3.3-13 4.3-18.8 3.1-18.2 3.8-36.3 3.3-54.7 0-3.9-2.6-11.3-.1-14.8 1.3-1.8 24.7-4.5 28.5-4.7 5.6-.2 36.2 1.7 39.3 4.3Z" class="fill" data-original-prefix="fill"/><path id="fill-eyes-strap2" fill="#ffffff" d="M1412.9 1251.9c-7.4 1.2-14 5-20.9 7.6 14.5-36 14-79.1 5-116.5 5.2-.7 22.6 7.9 23 12.5-6.5 31.7-7.7 64.1-7.1 96.4" class="fill" data-original-prefix="fill"/><path id="fill-eyes-strap1" fill="#ffffff" d="M651 1143c-9.4 38.1-8.8 79.9 4.5 117-6.2-4.2-13.6-6-20.6-8.6.9-32.2-.6-64.3-6.9-95.9.5-4.6 17.8-13.2 23-12.5" class="fill" data-original-prefix="fill"/><g id="fill-eyes-rivet" fill="#ffffff"><path id="fill-eyes-rivet16" fill="#ffffff" d="M1143.7 1309.2c5.9-1.8 13.9 1.8 14.4 8.3 1.2 16.7-23.9 10.6-19.9-2.8.4-1.2 4.3-5.1 5.5-5.5" class="fill" data-original-prefix="fill"/><path id="fill-eyes-rivet15" fill="#ffffff" d="M897.7 1309.2c7.5-1.6 13.8 3.3 12.1 11.1-.8 3.7-7.7 7.8-11.3 7.8-9.6 0-12.8-16.3-.8-18.8Z" class="fill" data-original-prefix="fill"/><path id="fill-eyes-rivet14" fill="#ffffff" d="M897.8 1060.2c4.2-.5 10.5 2.7 11.8 6.8 3 9.4-9.2 14.7-16.5 8.5-5.4-4.6-2.2-14.4 4.7-15.2Z" class="fill" data-original-prefix="fill"/><path id="fill-eyes-rivet13" fill="#ffffff" d="M1147.8 1060.2c11.2-1.3 14.3 15.9 1.7 17.8-14.2 2.1-15.3-16.2-1.7-17.8" class="fill" data-original-prefix="fill"/><path id="fill-eyes-rivet12" fill="#ffffff" d="M703.7 1095.2c12.2-2.7 9.9 15.8-2.7 19.4-10.2 2.9-7.2-17.1 2.7-19.4" class="fill" data-original-prefix="fill"/><path id="fill-eyes-rivet11" fill="#ffffff" d="M1339.7 1095.2c8.5-2.6 14.8 8.5 13.3 16.3-1.7 8.7-17.3-1.2-16.9-9.9 0-2.1 1.5-5.8 3.6-6.4" class="fill" data-original-prefix="fill"/><path id="fill-eyes-rivet10" fill="#ffffff" d="M1086.7 1182.2c10.6-3.1 13.4 21.9 7.6 23.7-10.1 3.2-17.9-20.7-7.6-23.7" class="fill" data-original-prefix="fill"/><path id="fill-eyes-rivet9" fill="#ffffff" d="M1373.7 1174.2c13.9-2.5 10.9 30.5-1.5 25.1-9.7-4.2-6.7-23.6 1.5-25.1" class="fill" data-original-prefix="fill"/><path id="fill-eyes-rivet8" fill="#ffffff" d="M1252.8 1335.2c12.9-1.9 15.1 10 4.8 16.8-14.4 9.4-21.8-14.3-4.8-16.8" class="fill" data-original-prefix="fill"/><path id="fill-eyes-rivet7" fill="#ffffff" d="M1248.7 1033.2c15-3.4 22.4 13.8 11.3 17.3-12.8 4.1-23.8-14.5-11.3-17.3" class="fill" data-original-prefix="fill"/><path id="fill-eyes-rivet6" fill="#ffffff" d="M1343.7 1271.2c15-4.5 11.4 13.4 1.3 18.3-14.8 7.3-8.6-16.2-1.3-18.3" class="fill" data-original-prefix="fill"/><path id="fill-eyes-rivet5" fill="#ffffff" d="M957.7 1182.2c9.5-2.8 10.8 14.5 3.8 20.8-14.2 12.8-13.2-18-3.8-20.8" class="fill" data-original-prefix="fill"/><path id="fill-eyes-rivet4" fill="#ffffff" d="M671.7 1174.2c9.8-1.8 14.6 19.5 4.6 24.7-11.8 6.2-16.2-22.6-4.6-24.7" class="fill" data-original-prefix="fill"/><path id="fill-eyes-rivet3" fill="#ffffff" d="M790.8 1335.2c15.5-2.5 19.6 17.8 6.6 18.7-10.4.7-20.6-16.5-6.6-18.7" class="fill" data-original-prefix="fill"/><path id="fill-eyes-rivet2" fill="#ffffff" d="M791.7 1033.2c16.6-3.4 17.2 14.3 2.3 17.3-14.3 2.9-14.8-14.7-2.3-17.3" class="fill" data-original-prefix="fill"/><path id="fill-eyes-rivet1" fill="#ffffff" d="M697.7 1271.2c5-1.1 7.8-.3 10.7 3.8s7 15.5-1 15.9c-8.8.4-19-17.7-9.7-19.8Z" class="fill" data-original-prefix="fill"/></g><g id="shading-eyes" fill="#aaaaaa" opacity="0.5"><path id="shading-eyes3" fill="#aaaaaa" d="M808 1053c18.3-1.1 35.8 1.8 52.7 8.8 3.3 1.4 17.8 9.9 19 10 4.5.4 1.7-8.7 7.9-9.8 4-.8 2.7 4.3 4.6 7.4 6.1 10.4 12.8-5.4 17.9-4 8.6 2.4 6.1 14.8 2.4 20.6l-7.4 6.5c28.5 27.2 36.6 68.5 37 106.5 2.1-.9.9-7.1 3.5-8 4.4-1.4 4.3 9.4 10 10 6.5.7 14.6-18.5 16.3-.4 1.5 15.9-12.5 29.1-26.5 18.1l-4.3-8.7c-4.9 51.2-39.2 110.9-92.8 121.7-50 10.1-98.3-9.1-130.2-47.7-.8 8.9-1 15.6-10 19.5 10.4 16.7 25.8 28 43 37 3.5 1.8 22.8 11.7 25 9.5.3-4.1-1.8-14.1 4.5-14.1 5.1 0 5.7 10.3 12.7 12.4 8.8 2.8 23.2-10.6 18.8 7.7 26.8 2 51.7-7.1 76-17-6.8-4.3-12.8-24.8.3-21.8 4.6 1.1 5.9 7 14 4.6 6.5-1.9 1.9-12.9 9.2-11.8 4.2.7 6.3 7.5 7 11 19-14.9 36.6-34.2 48.9-55.1 7.5-12.7 9-19 11.4-33.6 3.8-23.7 5.1-47.8 6.2-71.8 2.5-6.4 6.3-5.2 8.2.8s2.7 18.8 2.9 25.1c.6 18.9-2.3 38.9-5 57.5 10.6 2.5 22.5 7.2 33.5 7.1s22.2-4.7 32.5-7.1c-3.3-19.5-6-40.6-5.1-60.5.3-5.4 1.1-16.6 2.5-21.5 1.1-4.1 4.6-8.5 7.4-3.3 2.2 4.1 1.6 23.7 2.1 29.9 1.4 16.8 3.1 34.2 6.3 50.7 3.7 19.1 14.4 35.3 26.7 50.3 5.3 6.4 23.6 26.7 30 30 1 .5 1.9.6 3 .5-.4-4.3 5.5-12.7 9.9-9.9 1.2.8.7 10.2 5 11.4 9.2 2.6 9.2-2.9 13.8-4.3 13.3-4 8.2 16.9 1.3 21.8 24 10.2 49.4 19 76 17-4-16.7 6.7-7.3 13.5-6.9 12.4.7 11.8-11.5 16.2-12.9 9.3-2.8 5.1 14.9 6.8 14.8 17.2-6 36.8-15.3 50.5-27.5 2.4-2.2 16.5-17.3 16.9-19.1.5-2.1-3.9-3-5.5-4.4-4.7-4.2-3.3-10.4-4.5-16-30.8 36.8-75 55.6-123.4 48.9-58-8.1-95.3-69.3-99.6-123.9l-2.6 6.9c-12.8 15.4-29.9 2.7-28.3-15.3 1.7-18.2 9.8 1.1 16.3.4 5.4-.6 5.1-11.4 10-10 2.6.7 1.3 7.9 3.5 9-.2-13.7.7-27.6 3.5-41 4.7-22.4 11.9-41.6 26.6-59.4 1.4-1.7 6.5-5.9 7-7 .8-2.1-5.3-2.2-6-4.2-3.9-5.9-8.4-15.1-2-20.8 7.5-6.6 9.3 6.4 16.3 5.4 6.7-1 4.3-10.9 8.2-10.9 6.2.1 5.9 9.6 6.6 10 1.7 1.1 11.3-5.5 13.8-6.7 19.3-9.2 38.6-13.8 60.2-12.3-1.2-2.1-3.8-8.8-.4-9.9 3.7-1.2 8.4 6.9 17.4 4.4 7.6-2 6.5-12 8.6-12.6 9.1-2.3 9.4 10.2 8.1 16.3-.8 4-5 5.8-4.8 9.7 16.4 4.7 33.2 15.3 46 26.5 2.8 2.5 14.4 15.4 15.9 16 1.2.4 2.8-.7 4.3-.3 2.8.8 2.5 5 9.2 3.8 5.4-1 7.4-9.1 14.1-8.9 5.2.1 4.9 16.5 3.5 20.5-2.4 6.8-8.4 7.4-14.1 10 6.7 14.8 11.6 30.7 13 47 .2 2.3-.5 13 0 13.5.2.2 3.8-.3 5.3.2s2 2.3 4.2 2.8c6.5 1.3 11.1-3.3 11.4-9.6 0-1.8-2.5-5.9.6-5.4 5.4.9 4.1 12.2 6.6 13.9.4.3 7.1-1.3 8.9 0 .6-11.5-1.4-22.9-4.5-34-1.9-6.9-7.8-17.8-6.5-24.5.7-3.8 6.2-4.4 8.4-1.4 10.3 21.6 12.5 44.1 16.4 67.4 5.6 2.9 8.4-5.4 14.1-5.4-3.4 20.2-4.8 40.8-5.2 61.3l-25.5 15.5c-21.1 5.8-28.9 25.7-42.3 40.7-57.2 64.2-122.6 75.3-203 46.9-45.8-16.2-70.3-41.4-95.9-81.1-1.5-2.4-5.4-11.2-6.7-12.3-3.2-2.9-42.6-2.9-46.5-.5-1.2.7-5.8 10.6-7.2 12.8-29.8 46.4-57.8 70.8-111.8 86.2-76.3 21.7-135 6.9-187.5-52.5-10.5-11.8-18-28.2-32-36-3.1-1.8-6.9-2.4-9.9-4.1-8.4-4.9-16.3-10.7-25.2-14.8-1.4-20.7-2-41.5-5.5-62 5.8-.1 9.6 10.1 14.5 4 2.8-14.7 3.6-29.8 7.8-44.2 1.3-4.5 6-18.5 8.3-21.7.8-1.2 1.4-1.9 3-2.1 11.7-1.1 1.5 18.6.2 23.2-3.7 12.8-6.7 25.3-5.7 38.8 2.2-1.8 7.9.7 8.9 0 2.1-1.5.8-12.8 6.6-13.9 3-.6.4 2.8.5 4.5.2 2.8 2.3 8.8 5 10 6 2.7 9.2-3.1 14.9-2.6 1.5-10 1.5-20 3.6-29.9 2.2-10.5 6.2-20.7 10.6-30.4 0-.9-12.4-2.2-14.6-10.5-1-3.7-.8-17.5 2.5-19.6 5.2-3.3 11.8 8.8 16.6 9.3 4.1.5 6-4.1 8.1-4.6 1.5-.4 3.2.7 4.3.3 1.8-.6 5.9-7.1 7.9-9 15.2-14.4 33.7-27.6 54-33.5.1-3.2-3.1-4.8-4.1-7.4-1.5-3.9-2.4-16.9 2.8-18.4 8.5-2.6 4.3 10.6 14 12.6 9 1.8 23.1-14.2 16.3 5.2Zm438.2 27.1-121 126.6c.9 24.3 12.9 46.2 28.3 64.3l145.3-146.7c2.9-10.7-23.1-29.7-31.2-34.4-2.8-1.6-20-10.6-21.5-9.7Zm-500.6 171.3c4.3 9.2 10.6 22.6 17.5 30 .7.7.9 2 2.3 1.6l140.7-143.4c1-.8.8-1.4.5-2.5-1.7-6.4-11.2-21.1-15.6-26.5-5.1-6.1-18.8-18.2-26-21-1.1-.4-1.8-.9-2.9 0-41.2 43.5-82.6 86.8-125.1 129-2.2 3.8 1.1 14.3 2.3 18.8 1.7 6.2 4 9.3 6.3 14.2Zm563.1-103.3L1171 1284.4c-.6.6-1 1.2-1 2 0 3 16.3 13.6 19.6 13.4 1.8 0 11.3-10.2 13.5-12.4 38.4-39.5 73.4-82.6 112.5-121.6 1.2-3.5-2.4-19-6.8-17.9Zm-494.9 153.7c30.8-39.9 67.3-75 103.7-109.8 1.5-9.7.2-19.5-1.5-29l-133 132.5c5.3 1.6 26.9 8.6 30.8 6.3m549.1-26.9c8.2-18.5 14.7-37.6 19.1-57.4-12 7.4-17.7-1.5-24-10.5-2.6 20.2-6.8 41-16.5 59-1.2 2.3-10.2 15.3-9.5 16 5.6-.2 2.8 4.4 8.2 3.8 10.8-1.3 9.2-7.1 13.5-9.6 2.6-1.6 6.3-1 9.2-1.3M690 1208c-2.4-.6-1.6.4-2.2 1.3-5.5 7.9-11 15.7-21.3 7.7-.8-.2-.6.9-.5 1.5 1.2 8.4 6.1 23.6 9 32 1 3 9 23.6 10.2 24.3 1 .6 4.7 0 6.9.6 3.6 1.1 4.7 5.4 7.6 7.4 1.9 1.3 8.7 3.6 10.7 3.2.9-.2 2.2-5.2 5.7-4.1.6-.7-8-13.1-9.2-15.3-10-18.4-14.3-38-16.8-58.7Z" class="outline shading" data-original-prefix="shading" opacity="0.5" style="opacity: 0.5"/><path id="shading-eyes2" fill="#aaaaaa" d="M942 857c-15.8 14.7-36.6 21.7-53.5 35-24.9 19.7-63.7 69.6-74.7 99.3-3 8.1.3 14.4 1.2 22.7-11.2.4-23.2 1.8-34 4.5-4.8 1.2-19 7.4-21.5 7.4-3 0-26.1-7.4-29.8-9.1-9-4.1-3.1-10 .8-15.7 27.1-39.6 72.1-78.2 113.1-102.9 30.2-18.2 63.6-34.2 98.3-41.2Z" class="outline shading" data-original-prefix="shading" opacity="0.5" style="opacity: 0.5"/><path id="shading-eyes1" fill="#aaaaaa" d="M1321.7 1014.8c-.8.8-5.7 2.7-7.2 3.3-3.7 1.4-23.4 7.8-26 7.8s-17.3-6.3-22.3-7.5c-10.9-2.6-22.9-4.1-34.2-4.3 8.5-17.3-2.8-34.2-11.6-48.9-16.6-27.7-44.7-62.6-71.5-80.5-14.2-9.5-30.9-15.1-42.9-27.6 31.9 6.4 62.5 20.8 90.7 36.8 40.6 23.1 81 56.5 109.7 93.3 3.2 4 16.5 20.7 16.6 24.3 0 .9-.6 2.7-1.2 3.3Z" class="outline shading" data-original-prefix="shading" opacity="0.5" style="opacity: 0.5"/></g><g id="outlines"><path id="outline-eyes11" fill="#000000" d="M1330.1 993.9c1.4 1 4.2-1.5 5.6-1.7 8.1-.9 21.2 18.7 25.6 25 22.8 33.2 36.7 72.8 42.9 112.6 1 1.3 25.1 3.5 29.1 4.4 11 2.5 13.7 4.6 12.6 16.1-2.4 25.5-12.5 52.1-13.9 79.1-.4 7.2 1.7 25.4-1.5 30.5-5.8 9.2-28.7 14.1-38.4 18.6-14.9 6.9-26.7 29-38.5 41.5-21.4 22.7-53.2 45.5-83.7 53.3-59.5 15.2-143.1-6.7-187.8-48.8-16.6-15.6-28.4-36.6-40-56-1.4-.9-30-1-33.6-.5-1.3.2-1.8 0-3 1-1.7 1.5-7.1 12.8-9.1 15.9-27.8 44-60.8 69.2-111.4 83.6-75.5 21.4-135.9 9-190-48-12-12.6-24.1-35.1-39-42-8.8-4.1-36.5-10.7-39.5-20.5.8-24.6-2.5-47.2-6.8-71.2-1.9-10.7-9.1-35.1-7.6-44.2.2-1.1.4-2 1-3 4.3-6.7 33.7-7.3 41.8-9.7 5.2-35.2 17.2-71.3 35.7-101.8 5-8.3 14.3-22.5 20.9-29.1 1.3-1.3 7.8-6.6 9.3-6.8 2.4-.4 5.8 2.8 7.2 1.8.4-.3 3.5-6.5 5.1-8.4 78.7-96.5 169.8-147.5 296.5-148.6 130.2-1.2 229.8 51 308.9 153.1.9 1.1 1.4 3.8 1.6 3.9Zm-23.2 12.9c.9-1.6-3.8-12.9-5-15.2-18.3-36.2-111.1-99.9-149.4-114.6-95.6-36.8-210.4-32.7-298.4 21.6-30.7 18.9-92.7 62-108.3 93.7-1 2-4.8 10.7-4.8 12.2.1 2.4 19.5 14 21.6 14.2s17.2-5.3 21.3-6.2c86.6-19.4 202.6 33.5 229.3 121.7.8 2.7 1.4 9.4 2.6 11.2 1 1.4 13.3.2 16 .5 13.2-64.6 72.4-111.2 133.7-127.8 31.6-8.6 66.2-12.8 98.4-5.6 4.4 1 19.3 6.5 21.5 6.4 2.5-.1 16.9-11.3 21.3-12.1ZM913 1329c2-.2 3.9-.9 5.5-2 3.4-2.3 12.9-12.4 16-16 69.3-79.6 53.3-208.6-36.2-265.8-63.8-40.8-145.4-24.7-193.8 31.8-1.2 1.4-6.8 7.8-5.5 9 13.4-1.3 20.9 3.1 18.9 17.4-1.6 11.7-19.8 26.3-28.4 13.5-3.8-5.6-2.2-10.8-2-16.9-2.6 4-5.4 8.1-7.7 12.3-28.1 51.7-30.3 99.4-4.7 153 35.5 74.2 112.9 118.7 194.8 91.1 13-4.4 27.3-13.5 38-22-11.2 3.9-20.4 1.1-24.5-10.5-2.8-7.9-.4-9.5 1.5-17-.7-.7-9.4 5.7-11 6.5-98 54-202-48.1-178.7-149.7 18.1-79 102.7-132.2 178.7-90.3 1.5.8 10.3 7.2 11 6.5 0-3.8-2.9-6.7-3-10.5-.4-13.2 15.8-19.1 26.4-12.3 17.6 11.2 4.8 31.3-12.4 28.4-3.3-.6-6-2.6-8.9-4.1 20.6 17.2 36.8 39.6 44.5 65.5 7 23.6 7.9 57 3 81-6.2 30.9-23.4 57.5-47.5 77.5 3.8-2.1 7.8-4.6 12.4-4.5 12.8.2 22.6 14.8 15.5 26.3-.6.9-2.4.2-2 1.7Zm436-243c1.3-1.3-4.3-7.6-5.5-9-50.7-59.1-135.1-72.8-199.8-27.8-92.1 64-98.3 206.9-12.4 278.8.9.7.8 3.6 2.8 1.5-10-16 5.2-33.9 22.5-26.5 1.8.8 2.8 2.5 4.4 2.6-20.4-17.1-36.5-39.1-44.2-64.8-7.2-23.8-8.2-57.5-3.2-81.8 6.2-30.9 23.4-57.5 47.5-77.5-1.3-.4-2.3 1.6-3.7 2.3-19.4 9-37.6-14.9-17-27 11.4-6.7 27.5.8 25.5 14.4-.4 3-3 5.5-2.8 8.8.7.7 9.4-5.7 11-6.5 76-41.9 160.6 11.3 178.7 90.3 22.4 97.9-71.6 195.8-169.4 154.4l-20.3-11.2c3.5 8.9 4.3 16.2-2.5 24-5.9 6.8-13.8 5.7-21.5 3l21.3 14.2c120.6 61 245.5-57.5 228.5-181.5-3.3-24.1-15.9-45.5-27.9-66.2-1.8-1.2-.9.9-.8 1.8 5 30-28 21.1-30.2.3-1.5-14 6.1-17.7 19-16.5Zm-605-59c-7 .9-24.7-3.7-29.9.6-3 2.4-11.7 18.3-14.2 22.8-4.2 7.4-8.3 14.9-11.8 22.7 1.9.4 2.4-1.1 3.5-2 8.2-6.8 15.5-16 24-23s18.7-11.9 26.8-18.2c1.1-.9 2.1-1 1.7-2.8Zm617 49c-.7-6.3-4.8-13-7.8-18.7-2.6-5-15.2-27.3-18.2-29.8-5.4-4.4-23.8.5-30.9-.6-.4 1.8.6 2 1.7 2.8 3.8 3 9.5 5.4 13.6 8.4 15.4 10.9 28.9 24 41.7 37.8Zm-358 71c-1.2-19-13.2-38-24.2-53.3-9.6-13.4-22-26.9-35.5-36.5-3.6-2.5-16.9-10.9-13.3-6.7 28 24.7 49.6 59.6 57 96.5zm42 0h16c7.1-35.9 28.2-70 54.7-94.7.6-.6 5.6-4.6.8-2.3-19 10.1-34.8 26.3-47.3 43.7-11 15.3-23 34.3-24.2 53.3m-147.2-86.8c-6.9.8-10 10.6-4.7 15.2 7.2 6.2 19.5 1 16.5-8.5-1.3-4.1-7.6-7.2-11.8-6.8Zm250 0c-13.7 1.6-12.5 19.8 1.7 17.8 12.6-1.9 9.5-19-1.7-17.8M782 1077c-6.6 0-13.6 3.9-19.3 7.2-73.5 41.8-78.5 165.6-7.2 212.8 5.1 3.4 12.8 8.3 18.5 8.5-46.4-35.7-62.3-96.1-48.1-152.1 8.2-32.6 30-56.6 56.1-76.4m492 229c29.3-10.6 51.7-35.4 61.7-64.7 15.8-46.1 5.7-112.2-32.7-144.8-9.7-8.2-24.5-17.9-37-19.5 26.1 19.8 47.9 43.8 56.1 76.4 14.3 56.7-2.1 116-48.1 152.6m-465.2-225.7c-15.8 1.9-35.6 16.3-45.8 28.2-64.1 75.3-11.5 244.3 102.3 188.3 88.3-43.4 66-231.2-56.5-216.5m405 0c-104.9 11.1-115.7 193.3-12.6 224 14.3 4.3 37.3 4.3 51.2-1.5 93.4-38.6 76.2-234.8-38.6-222.6Zm-510.1 14.9c-9.9 2.2-12.9 22.2-2.7 19.4 12.6-3.5 14.9-22.1 2.7-19.4m636 0c-2.1.6-3.6 4.3-3.6 6.4-.4 8.7 15.2 18.5 16.9 9.9 1.5-7.8-4.8-18.9-13.3-16.3M651 1143c-5.2-.7-22.5 7.9-23 12.5 6.3 31.5 7.9 63.7 6.9 95.9 7 2.6 14.3 4.3 20.6 8.6-13.3-37-13.9-78.9-4.5-117m761.9 108.9c-.6-32.3.6-64.7 7.1-96.4-.4-4.6-17.8-13.2-23-12.5 9 37.4 9.5 80.5-5 116.5 6.9-2.6 13.4-6.4 20.9-7.6m-355.1-93.7c-3.1-2.6-33.7-4.5-39.3-4.3-3.8.2-27.2 2.9-28.5 4.7-2.5 3.5 0 10.9.1 14.8.5 18.5-.2 36.5-3.3 54.7-1 5.8-4 12.9-4.3 18.8 0 1.1-.6 1.5.6 2.5 5.4 4.9 41.2 5.9 49.6 5.5 5-.2 30.9-2.6 33-6 .8-1.3-4.8-23.6-5.4-27.7-2.3-15.5-2.6-32.2-2.2-47.9 0-3.4 2.8-12.7-.2-15.2ZM923 1335.5l9-5.5c18.9-12.6 35-28.1 46.2-48.3 1.2-2.3 7.7-14.1 6.4-15.7l-11.6-2.9c-3 11.1-8.6 21.2-14.6 30.9-7 11.4-18 25.6-27.4 35.1l-8 6.5Zm202 0-8-6.5c-9.4-9.5-20.4-23.7-27.4-35.1-6-9.7-11.6-19.8-14.6-30.9l-11.6 2.9c-1.2 1.6 5.2 13.4 6.4 15.7 11.1 20.1 27.3 35.9 46.2 48.3l9 5.5Zm-227.3-26.3c-12 2.5-8.9 18.8.8 18.8 3.6 0 10.4-4 11.3-7.8 1.8-7.7-4.5-12.6-12.1-11.1Zm246 0c-1.2.3-5.1 4.3-5.5 5.5-4.1 13.4 21.1 19.5 19.9 2.8-.5-6.5-8.5-10.1-14.4-8.3" class="outline" data-original-prefix="outline"/><path id="outline-eyes10" fill="#000000" d="M1084.7 1174.2c20-4.6 29.1 31.7 12.8 39.8-21.9 11-33.3-35.2-12.8-39.8m2 8c-10.3 3-2.5 26.9 7.6 23.7 5.8-1.8 2.9-26.8-7.6-23.7" class="outline" data-original-prefix="outline"/><path id="outline-eyes9" fill="#000000" d="M1368.7 1168.2c22.1-5 23.6 37.4 9.6 40.6-24.7 5.6-27.6-36.5-9.6-40.6m5 6c-8.2 1.5-11.2 20.8-1.5 25.1 12.4 5.4 15.4-27.6 1.5-25.1" class="outline" data-original-prefix="outline"/><path id="outline-eyes8" fill="#000000" d="M1251.7 1329.2c7-1.4 15 .3 18.7 6.8 8.9 15.9-22 33.9-33.4 17.4-6.3-9.2 5.7-22.4 14.7-24.3Zm1.1 6c-17 2.5-9.7 26.2 4.8 16.8 10.3-6.8 8.2-18.7-4.8-16.8" class="outline" data-original-prefix="outline"/><path id="outline-eyes7" fill="#000000" d="M1251.8 1027.2c13.2-.7 26.5 12.3 17.7 24.8-7 10-21.5 6.7-29-1.1-9.2-9.5-1.6-23.1 11.3-23.8Zm-3.1 6c-12.5 2.8-1.5 21.4 11.3 17.3 11.1-3.5 3.6-20.7-11.3-17.3" class="outline" data-original-prefix="outline"/><path id="outline-eyes6" fill="#000000" d="M1346.8 1265.2c2.5-.4 3.7-.2 6.1.5 17.1 4.9 3.1 33.3-13.3 33.1-19.4-.2-8.7-31.2 7.3-33.6Zm-3.1 6c-7.2 2.1-13.4 25.6 1.3 18.3 10.1-5 13.7-22.8-1.3-18.3" class="outline" data-original-prefix="outline"/><path id="outline-eyes5" fill="#000000" d="M955.7 1174.2c29.3-6.1 19.7 51-4.6 40.2-15.5-6.9-8.6-37.4 4.6-40.2m2 8c-9.4 2.8-10.4 33.6 3.8 20.8 7-6.3 5.8-23.7-3.8-20.8" class="outline" data-original-prefix="outline"/><path id="outline-eyes4" fill="#000000" d="M672.7 1168.2c24.1-5 25 45.1-2.2 40.7-13.8-2.2-13.3-37.5 2.2-40.7m-1 6c-11.6 2.1-7.2 30.9 4.6 24.7 10-5.2 5.2-26.4-4.6-24.7" class="outline" data-original-prefix="outline"/><path id="outline-eyes3" fill="#000000" d="M786.7 1329.2c6.2-1.1 10.4-.2 15.6 2.9 9.3 5.6 15.8 17.8 4.6 25.2-12.4 8.3-35.8-5.5-30-20 1.3-3.4 6.2-7.5 9.8-8.2Zm4.1 6c-14 2.3-3.8 19.5 6.6 18.7 13-.9 8.9-21.3-6.6-18.7" class="outline" data-original-prefix="outline"/><path id="outline-eyes2" fill="#000000" d="M793.8 1027.2c11.4-.9 19.9 7.4 17 19.1-.9 3.7-9.4 9.9-13 11-25.8 7.6-30.4-27.9-3.9-30Zm-2.1 6c-12.5 2.6-12 20.3 2.3 17.3 14.9-3.1 14.2-20.8-2.3-17.3" class="outline" data-original-prefix="outline"/><path id="outline-eyes1" fill="#000000" d="M696.8 1265.2c16.2-2.7 29.1 25.4 18.6 31.7-19 11.3-40.9-28-18.6-31.7m.9 6c-9.3 2.1.9 20.2 9.7 19.8 8-.4 4-11.7 1-15.9s-5.7-5-10.7-3.8Z" class="outline" data-original-prefix="outline"/></g>
    </g><g class="trait-group" data-category="right ear" id="right ear-slasher">
      <path id="fill-ear-rt" fill="#ffffff" d="M1715.7 184.2c3.2-.7 6.5-.5 7.2 3.3 2.3 39.5-3.6 77.2-9 116-.7 4.7-.2 11.1-1.1 15.9-5 26.9-24.5 58.9-29.7 86.3-5.7 30.4-4.7 64.8-10.9 95.1-7.8 38.3-25.1 77.8-33.7 116.4l-71.9 122.1c-45.8 31.3-94.9 58.3-141.8 88.2l-35 81-84.6 77.3c-5.6 2.9-16.3-.8-22.4-2.4-27.7-7.2-48.3-18.1-70.9-35.1-16.5-12.5-27.2-20.9-37.6-39.4-6-10.5-10.9-22.9-14.5-34.5 26.8-59.3 58.7-116.4 86.8-175.2 4.9-58.7 6.7-117.8 11.4-176.5 36.5-47.5 77-92.5 114.8-139.2 47.2-35.9 96.4-69 144.9-103.1 66.1-31.9 127.9-72.1 197.8-96.2Z" class="fill" data-original-prefix="fill"/><path id="shading-ear-rt" fill="#aaaaaa" d="M1307 640c-2 .7-10.3 2.6-11.1 3.6-3 4.1 1.3 17.2-.5 18.5L1265 668l3-12c-.6-.6-5.7 2.2-6.5 3-4.2 4-11.7 27.7-13.5 29-.6 0-1.3-.6-1.5-1-.4-.8-1.4-13.2-1.5-15.5-.2-4.8-.7-24.1 1.2-27 .7-1.1 2.6-1.3 2.9-2.3 1.9-7 2-15.6 3.2-22.5 1.6-9.4 13.2-6.8 14.6-11.5 1.1-3.6-.9-13.2.6-15.4l21.9-5.8c5.3 2.7 1.3 8.1 1.7 12.4.1 1.4-.4 1.8 1.4 1.4 1.7-.4 13.1-3.4 13.6-3.9 1.4-1.6-3.9-10.5-1-12.5l29.5-8.5c1.8 0-2.5 12.6-1.5 14 1.9-1.2 11.2-2.1 11.9-3.1.9-1.3-3.8-11 2.7-14.8 2.2-1.3 22.3-5.8 23.3-5 .2.2.8 6.1 4.1 3.9 1.5-1 5.5-18.1 4-21 5.9-1.6 4.3 4.3 6.5 7 3 3.5 45.1 6.1 52.5 7.5 10.2 14.6 18 30.7 26 46.5.7.5 11.1-11.5 11.8-12.7 3.9-7.2 7.9-26.5 9.7-35.3 7.9-36.5 10.3-74.2 9.5-111.5 0-5.1-1.8-10.3-1.1-16 .8-6.8 8.7-15.8 8-21.9-.4-3.3-3.8-7.9-4-11.6-6.1.3-12.7 10.5-18.3 8.8-2.8-.8-4.9-11.5-6.2-14.8-.9-2.2-5.5-9.6-5.5-10.5 0-2.7 12.8-9.3 12.8-12 0-.6-6.3-8.8-6.8-9.1-3.8-2.3-12 15.4-17.4 14.6-.6 0-5.1-7.4-7.6-9.6-1.8-1.6-9.2-6-9.5-6.5-4-6.4 13.4-13.8 16.5-18.5-2.8-3.5-13.2-11.1-11.9-15.8 1-3.5 26.5-16.8 30.9-20.3 4.5-1.3 9.4 7.4 14.5 7.2 3.8-.2 10.8-11.4 15.7-10.5 2.4.5 14.6 15.6 14.8 17.4.4 4.2-11.5 11.5-12 14.1-.1.8 4.8 7.2 5.5 7.3 3.4-2.6 7-5.3 10.6-7.9.9-.6 1.1-2.1 1.7-2.5 6.8-4.2 15.7 18.9 20.4 17.4 1.2-.4 14.1-16.8 16.6-19.5 21.8-23.1 62.8-49 90.7-65.3 9.8-5.7 19.9-11.8 31.3-13.2 1.3 1.2-8.7 15.3-9.9 17.6-2.6 5.3-3.8 11.1-6.7 16.3-6.7 11.8-20.8 24.7-29.2 36.8-1.9 2.7-14.2 21.5-14.1 22.8 0 1 3.3 1.6 3.8 3.1 1.3 3.9-7.2 7.2 6.1 8.3-.2-4.4-1-7.1 4.4-6.9 3.4.1 18.8 2.4 21.7 3.4 3.3 1.1 4.9 3.4 3 6.5 14.6 3.2 23.9-12.5 35.7-16.8 1.2-.4 2.8-.8 2.3 1.3-4 6.7-7 14-9.7 21.3-2.1 5.5-7.4 26.5-9.8 29.2-1.9 2.2-9.2 4.2-12.2 4.8s-15.7.7-16.2 1.2c-.3.3 1 7-3.5 7-.9 0-1.7-1-2-1h-20c-3 0 0-7.6-.5-8-3.9.8-7.9-1-11.5-1-3.1 0-.9 5.3-1.5 7-4.9-.8-15.9-2.4-19.7 1.2-2.4 2.3-11.6 32.2-13 37.5-5.1 20.1-6.6 40.9-5.3 61.7.8 12.7 6.8 29.3 3.2 41.2-1.5 5-8.7 16.4-9 20-.3 2.8 4.6 2.9 4.9 5.8.3 3.5-4.6 7.5-4.1 11.5 7.5 2.8 4.3-1.9 8-5.5 1.7-1.7 4.1-1.7 6-3 10.2-7 33.2-60.6 41.5-74.5.7-1.1 1-2.8 2.5-3-5 26.1-14.2 51.1-23 76 2.3.4 12.5-1.2 13 1.5.4 2.1-4.9 7.9-5 10.5 3.2 2.8 26.6-7.1 30.3-6.7 1 0 2.7.9 3.1 1.8.2.3 2.5 7.2 2.5 7.6.3 3-4.9 6.8-6.2 9.7-3.3 7.1-1.7 16.4-2.2 23.8-5.8 1.6-11.4 3.5-17.3 4.7-2.8.5-19.2 1.2-19.2 3.8v24.5c-7-.7-30.7-5.7-36-2.5-1 .6-9.7 16.6-11.6 19.4-6.1 9.4-16.3 27.1-23.4 34.6-7.5 7.8-44.4 31.5-54.7 35.3-19.7 7.3-44.6 10.6-65.8 18.2-5.8 2-34.1 13-36.6 16.4s.3 7.5-.2 10c-.3 1.6-4.5 4.4-4.8 7.2-.8 8.5 7.3 1.2 10 2.9 1.2.7 5.8 7.8 7.5 9.6 2.6 2.6 4.6 5 8.8 4.8 11.3-.7 35.2-9.2 46.1-13.9 49.4-21.5 87.8-56.8 129.2-89.8 2.5-2 5.5-4.5 8.4-5.5-13.2 16.7-26.3 33.5-42 48-34.2 31.8-77.5 48.8-115.7 74.8-10.7 21.5-17.6 46-29.8 66.7-18.8 31.8-53.1 60.5-84.5 79.5-3.8 19.7-10.4 16.5-26.4 12.4-31.3-7.9-73-30.1-95.5-53.5-1-1-8.1-11.2-8.1-11.9 2.6-4.2 2.1-9.3 4.2-13.8 42.2-49.7 81.5-98.7 112.3-156.7 9.9-18.7 17.4-38.6 27-57 6.9-13.3 20.8-28.8 20.6-43.5 0-2.1-1-4-1-6 0-3 1.9-7 1-10.5l-10 1 4 19c-5.3-1.5-28.2 9.2-30.9 6.8-.1-.1-1.1-3.2-1.1-3.3v-14.5Zm33 225c-1.6-1.2-5.3 5.1-8.5 5-2.8 0-2.4-4.5-5.4-4-9.6 17.4-21 33.7-33.1 49.5-2.8 3.6-8.2 8.2-10.4 11.6-1.9 2.9-12.9 38.4-11.5 40 2.7-.8 5.8-3.6 8-5.5 23.5-19.5 44.2-43.8 65.5-65.5 2.4-5.2-7-12.2-7.5-17.6-.6-5.9 6.5-7.1 3-13.4Z" class="outline shading" data-original-prefix="shading" opacity="0.5" style="opacity: 0.5"/><path id="outline-ear-rt" fill="#000000" d="M1203 940c-.6 2-3 0-4-.5-7-3.3-16.8-8.4-22-14-11.1-12.2-18.6-30.8-29.5-43.5-1.1-2.6-.7-7.5-.5-10.5.9-20.2 13.6-36 21.8-54.2 5.9-12.8 10.2-27.3 16.3-39.7 4.8-9.8 13.9-18.2 19.9-28.1 11.7-19.3 21.4-51.9 25.7-74.3 1.4-7.1 1.9-22.4 4.2-27.8 1.5-3.5 9.8-6.1 10.9-10.1 1.5-5.1-5.6-11.7-7.1-16.6-1.8-6 2.6-25.5 3.2-33.2 1.9-23.7 1.4-48 4.6-71.4 14.2-19.8 28-39.9 42.6-59.4 37.5-50.2 83.1-93.7 131.8-133.2 4.5-3.6 17.7-15 22.7-15.2 3.5.7 18 4.5 20.3 3.3 4.7-2.4 5.9-16 7.9-20.1 2.2-4.7 51.2-32.9 59.4-37.6 54.4-30.8 126.9-64.9 186.9-82.1 2.7-.8 10.1-3.3 12.1-1.8 4.6 3.5 6.3 42.4 6.3 49.8 0 27-1.9 67.1-5.8 93.7-2.1 14.1-9.1 17.7-15.4 29.6-4.2 7.8-6.4 18.2-10.3 24.7-2.1 3.5-11.9 11.8-12.2 14.8-.5 4.5 4.4 7.1 5.6 9.5 1 2.2-4.4 22.1-5.2 26.8-4.1 23.3-4.6 41.4-3.3 64.7.9 16.8-2.9 40-6.3 56.7-1.8 8.8-6.6 31.2-10.8 38.2-2.1 3.4-10.1 8.5-13.4 11.6-2.1 2-8.3 7.7-9 10-2.9 9.3 5.7 16.5 4.4 23.3-.7 3.8-8.1 17.3-10.3 21.8-39.1 77.8-86.1 131.6-162.8 174.1-7.5 4.2-31.5 13.7-35.7 18.3-10.6 11.7-19.9 37.5-29.3 51.2l-26.8 14.7c-1.6 2.2-1.1 14.8-2 19-1.1 5.4-23.2 29.8-28.4 35.6-5.5 6.1-26.7 30-32 33-2.3 1.4-20.6 4.8-23.6 4.5-10.9-1-38.2-12.2-49-17.1-3.9-1.8-12.1-5.3-13-9.5 28.7 11.6 48.3 11.1 74.5-5 14.1-8.7 41.8-29.8 51-43 2-2.8 5.7-22.6 5.5-26.5 0-1.6-4.4-15.1-5.1-15.5-2.3-1.6-11.9 9.1-15 10l-6.9-16.3 13.7-11.2-6.4-12.6c-3.2-.5-11.4 8.8-13.9 11l-8.3-16.3c.5-2.7 10.9-8.4 12.4-10.6 1.5-2.4-6.6-13-8.1-16-2.2-.5-10.1 10.5-12.1 11-1.4.3-9.3-12.1-9.5-13.5-.4-4.1 10.7-8.6 11.1-13 .2-2.5-5.1-7.8-6.6-10.4-1.5 0-14.8 22.1-16.7 25.3-16.8 28.8-49.8 85.2-52.8 117.2-1 11 1.2 18.5 5 28.5-1.7 1.6-17.8-11.5-20-13.5-1.9-1.8-6.2-5.7-7.4-7.6-4.2-6.6 2.1-23.2.5-31.4 12.3-19.4 26.8-37.6 38.1-57.9 25-45.1 42.4-95 72.4-137.6 7.1-10.1 17-17.9 24.2-28.8 14.6-22 18.4-46.8 23.2-72.3l-16.9 2-.2 22.8-17.9 4.1v-24l-20.9 4 2 25-18 3c.1-6.8 0-13.8-1-20.5-.2-1.4.6-1.7-1.5-1.5s-20.4 7-21.1 8c-2.5 3.7 1.8 20.3.4 21.9-4.6.2-10.1 4-14.4 4.2-1.6 0-2.5-2.9-2.5-3.6v-15.5c-2.7 1.4-11.1 3.6-12.7 5.3-4.4 4.5-7.6 19-8.3 25.2-1.7 15.4-.6 29.8-6.2 44.8-8.4 22.2-22.3 50.5-32.9 72.1-6.5 13.3-16.1 27.1-22.1 40-2.9 6.3-14.6 36.8-15.6 42.4-3.9 23.1 12.7 50.9 27.8 67.3Zm516-752c-41.8 13.5-81.4 32.9-120 53.5-14.9 8-31.7 17.2-46.3 25.7-22.3 13-43.6 27.9-65.7 41.3-1.2 2.3-6.4 16.8-2.4 17.5 4.4-1.7 14.9-13.7 18.8-13.1.8.1 8.4 12 8.5 12.8.4 2.5-13.5 11.8-15.9 13.9l10.1 17.4c1.5.4 1.7-.4 2.5-1 2.3-1.6 13.1-12.8 14.1-12.9 1.4-.3 9.9 10.4 10.2 11.6 1.2 4.5-16.5 14.7-16.9 18.8-.5 4.6 12.7 27.1 12 34.5 2.3.5 1.6-.3 2.2-1.3 9.4-14.6 16.3-30.5 26.9-45 24-32.8 59-58.7 86.3-88.7 7.7-5.7 17.2-8.3 24.8-14.2 6.5-5 16.3-16.3 24.3-18.6 1.3-.4 3-.6 2.3 1.3-.8 2.2-6.1 8.3-7.8 11.2-4.2 7.1-10 20.9-14.7 26.3s-21.2 14.1-28.4 19.6c-21.3 16.2-41.4 36.5-56.1 58.9.3 1.4 12.6 4 14.3 3.6 1.9-.4 2.4-8.7 2.7-9 1.2-1.2 15.2 1.8 18 2l-3 11c3.3-.7 17.9 3.2 19.1 1.4l1.9-10.4 18 1-2 12c5.6-1.5 16.2 2.6 20.6 0 .8-.5 8.7-8.5 9.4-9.5 3.4-4.9 6.2-15.6 9.3-21.7 6.9-13.9 11.1-17 14.4-33.6 2.5-12.5 4.6-27.1 6.2-39.9 3.1-25.3 4.5-50.9 2.1-76.4Zm-431 407v15c3-.8 21.8-6.9 22.5-8 1.6-2.4-.5-12.8.6-14 .6-.7 14.6-3.5 16.9-4.1v12c.8.8 20.1-3.6 21.3-4.2 3.8-2 .3-11.3 1.8-13.7.7-1.1 14.4-3 16.9-4.1v15c6.6-1.2 13.3-1.1 20-1 1.6-14.2-7.1-26.5-10-40 .6-.6 11.1 5 12.7 5.8 7.7 4.1 40.8 22.5 44.2 27.8 3.4 5.4 9.4 26.3 11.4 33.6 3 10.6 4.7 26 8.5 35.5 4.3 10.4 12.5 9.2 20.5 4.1 22.7-14.5 44.9-81.9 46.7-108.3 2.6-36.2-3.5-85.1-11.5-120.5-1.5-6.6-8.6-31.7-12-36-1.3-1.6-.9-.7-2 0-2.7 1.8-8.5 9.6-11.9 9.1-.8-.1-7.5-11.5-9.5-12.7-.4-2.3 12.6-12 15-13.9 0-1-9.5-16.7-10.5-17.5-1.5-1.2-.8-.6-2 0-4.1 2.1-14.6 13.7-17.2 13.9-2.5-1.5-13.6-10.1-13.2-12.2s18.4-14 20.9-17.1c-10-15-20.4-5.9-31.3 1.7-43.7 30.5-78.2 65.2-111.7 106.3-19.5 23.9-38.5 48.9-55.8 74.2-6.2 26.4-10.2 56.5-11.2 83.8-.1 3.5.2 15.4 4.6 16.4.5.1 9-3.7 9.2-4.1 1.4-2.3-1.1-15.2.6-18.9l15.6-3.9Zm304-15h18c-1.2 5.5-2.8 11.1-3.8 16.7-.3 1.7-.4 1.3 1.3 1.3 4.4-.2 22.4-4.7 26.3-6.8 13.5-7.4 18.1-31 22-45 4.9-17.2 11.2-39.1 12.3-56.7 1.1-17.9-.2-35.9 2-54 1.5-13.1 5.1-26 7.8-38.9-.2-1-4.4-5.1-5.5-5.4-2.4-.7-19.8-.6-20.8.8-1.1 1.5-1.5 9.2-2.6 9.9-2.3 1.5-12.6-1.1-15.9-.9-1-2.8 2.6-9.8 0-11.6-2-1.4-15.1-.7-18.5-2.5l-2.6 12c-2.7-.3-16.6-.7-17-2.6l2.1-12.3c-5-.2-17.4-5.5-21.5-5.1-2 .2-6.7 9.4-8 12-19.7 38.2-34.2 101.9-13.7 141.7 1 2 3.7 3.3 3.1 5.6-5 6.9-26 36.3-24.9 43.2.5 3 10.2 6.7 13 8.5l2.9-14.6 17.1 1.6-2.6 19c7.7 3.3 16.1 2.2 24.1 4 1.5 0 1.7-.5 2.3-1.7 1.1-2.5 2.3-17.5 3.2-18.3Zm-33.9 40.1c-1.8 3.6-1.8 21.9-4 23.5-1.6 1.2-14.3-.8-16.4-1.8-1.2-.6-1.6-.7-1.7-2.2 0-5.1 5.1-20.2 3.8-23.9-1.8-1.1-17.1-10.4-17.9-9.7-1.9 9.1-5.4 17.8-7.7 26.8-1.9 7.6-8.3 46.4-10.8 49.2-1.2 1.4-3.2 1.4-4.2 2.3-18.3 18-38.8 32.6-61.6 44.9-2.9 1.6-11.6 6.5-14.2 6.8-3.6.5.3-3.7 1-5 15.5-29.8 22-63 4.6-93.7-6.2-10.9-18.5-27-28.2-9.8-12.5 22.2-15.1 55.6-17.5 80.5-18.4 17.5-34.1 37.6-48.5 58.5l10 17.5c1.6 1.1 11.7-10.3 14.5-11 1.6 3.6 9.8 11.2 8.1 15-1.6 3.5-11.4 8.1-11.5 11.5 0 1.3 7 13.4 7.9 14.1 1.5 1 1.5.2 2.6-.5 1.8-1.3 10.7-10.3 11.9-10 1.7 2.4 9.2 12.6 8.1 15-1.7 3.5-12.3 9.9-12.6 12.6-.2 1.5 5.5 13 6.2 13.3 4.2 2.4 13.7-13.7 17.8-8.2 1.5 2 7.2 12.1 5.9 14.2-2.5 1.8-14.2 9.8-14.7 11.9-.6 2.6 5 13.2 6.4 16.3 3.9.9 9.7-14 10.9-17 2.1-4.9 9.4-22 10.1-26 1.1-6.9-2.7-5.6 5.1-11.8 23.8-19 58.3-32.7 84.2-49.8 40.2-26.5 77-72.9 102.5-113.5 3.5-5.5 18.6-29.8 18.5-34.3 0-.7-.7-3.2-1.1-3.4-2.3-1.5-19.6 2.3-23.8.9l-2.1 22.9c-1 1.2-16.4 1.7-17.9.7-2.6-1.8 3.4-19.4 2.1-23.6l-25.9-2.9Z" class="outline" data-original-prefix="outline"/>
    </g><g class="trait-group" data-category="left ear" id="left ear-scruffy">
      <path id="fill-ear-lft" fill="#ffffff" d="m286.8 111.2 30.8 44.7c91.6 62.6 192.9 110.5 287.1 168.9 36.5 22.6 69.5 60.6 103.8 87.2l81.6 106.4c7.4 63.7 12.1 127.8 18.4 191.6 22.2 52.3 49.9 102.3 72.6 154.5-2.6 11.7-1.7 25.5-4.1 36.9-.5 2.5-18.5 28.2-21.3 31.2-7.4 7.9-34.6 27.7-44.3 33.2-6.2 3.5-20.8 7.2-25 10.5-1 .7-2 3.8-3.3 5.2-4.8 5.2-17.7 6.9-24.5 9.5-26.5-4.8-55.6-5.8-81.7-11.3-8.7-1.8-26.7-11-33.3-10.8s-29.2 17.7-32.8 16.9c-2-.4-9.6-10.2-9.7-12.3-.5-9.1 6.7-23.6 7-33.2 0-1.5.3-2.8-.9-3.9L526.6 894c-.4-4.1-2-13 1.6-15.5l44-11c-13.1-9-30.1-13.4-43.3-21.7-7.4-4.7-24.1-17.9-29.5-24.5-2.1-2.5-10.7-19.2-10.2-21.7.2-1 16.2-11.1 17.8-11.5 10.3-2.1 29.3-.4 40.8-1.2 1.5-.1 2.9.8 2.5-1.5-30.5-23.6-59.2-49.4-88-75-23.8-43.2-46-87.2-69.5-130.5l-45.3-164.7-3.7-4.3-59.3-44.6c1.1-2.2 4.2-14.3 5.1-15.2 1.4-1.4 18.7-4.1 22.4-5.1.7-.2 3.3.4 2.4-1.6-.7-1.3-24.1-15.1-25.6-15.2l-51.4 8.7 2.5-24c9.2-6.5 18.2-20.8 28.7-24.3 4.1-1.4 27.9-5.3 28.8-7.2-10.6-4.4-23.8-16.5-34-20-4.7-1.6-34.7-3.3-35-5.1.2-5.7-.8-11.7 2-16.9l52-24.6c-7.8-23.2-19.6-45.2-27.9-68.3l12.1-36.5h20.7c0 .1 0 0 0 0Z" class="fill" data-original-prefix="fill"/><path id="shading-ear-lft" fill="#aaaaaa" d="M349 234.5c0-.2-2.4-3.8.5-2.5 3.1 1.4 10.8 9.4 14.8 12.2 18.8 13.2 39.8 21 61.7 27.3 12.3 22.7 26.3 44.5 42 65-6.6 1.3-14.8 3.4-21.5 3.5-10.2.3-20.7-3.7-30.5-.5 3.5 4.6 7.5 10.5 11.5 14.5 10.9 10.9 36.9 14 51.5 19.5 5.8 2.1 12.1 19.2 16.8 24.2L519 431c-5.7-2.4-11.8-4.4-17.4-7.1-20.1-9.9-19.8-14.9-45.1-14.9-3 0-11 0-13.5.4-8.1 1.4-18.9 10.1-25 15.6 9.9 0 19.6-1.6 29.5-1 7.2.5 28.1 3.5 33 8 5.5 5 20.3 21.9 23.8 28.2 6.3 11.1 9.6 26.2 16.6 37.4-4.3.8-8.8.6-13 2-1 .4-2.7.3-2 2 .6 1.5 6.8 6.5 8.5 8.5 4.2 4.8 7.8 10.2 12 15 9 10.4 26 25.6 32.5 36.5 5.9 10 7.5 25.8 12.8 36.2 1.5 2.9 9.5 14.9 12.7 11.3l24.2-44.1 46.5-6c2.3-4.3 5.6-4.7 9.2-7.1 1.6-1 1.3-4 4.1-2.8 3.2 1.3 5 20.8 6 25 11 48.3 35 97.9 61.5 139.5 3.3 5.2 9.7 11.8 12.1 16.9 12.2 26.7 12.8 71.1 21 102 2.5 9.5 6.9 9.2-5 15.1-17.7 8.8-34.8 1.9-53-.5l12 15.4 41.9 23.1c-18.9 7.5-38.5 14.2-53 29 10.4-1.5 28.7-9.8 38.7-5.8 3.4 1.4 15.2 11.3 18.7 14.3 5 4.2 9.9 8.8 14.5 13.5-7.7 2.4-15 5.4-22 9.5-.5 2.6.4 1.5 1.4 2.1 26.8 13.6 54.1-.2 79.8-8.4 1-.3 3.2-1.5 3.8-.2-8.6 6.6-17.1 13.9-26.1 19.9-16.3 11-36.3 18.2-55.2 23.8-10.3 3.1-44.2 12.9-52.8 11.3-20.1-3.8-43.1-16-63.6-20.5-8.1-.8-25.8 13.6-34 16.8-1.1.1-18.3-10.9-18.8-11.8-1-1.7-.5-3.3 0-5 2.5-9.3 11.3-22.5 15-32 .5-1.3 2.1-5 1.5-5.9-11.9-4.4-22.8-10.9-34.2-16.3-8-3.8-45.1-18.6-48.2-24.8-1-2 .5-13.9 2.6-15.5l39-12c-23.1-15.5-52.1-22.6-70.5-44.5-4.7-5.5-14.4-18.7-8-25 10-9.7 25-7.3 37.9-9.1 1.2-.2 5.4-.5 4.6-2.4-12.7-14-24.3-29.1-36.5-43.5-32.5-38.5-64.1-77.8-97.4-115.7-21-73.9-38.8-148.9-61.7-222.3-7.5-8.2-57.2-35.8-59.2-42.7-4.1-13.8 17.1-14.6 26.3-17.3 1.5-.4 1.7.6 1.5-2l-27.7-14.8-42 9.5c-8-.7-11.1-7.3-7.3-14.1 2.1-3.7 24.1-30.2 27-32 6.8-4.2 22.8-5.1 31-7.5l-30.4-23.1c-6.4-2.8-25-1.5-28.5-7.5-2.4-4.2-.9-9.1 2.5-12.2 2.4-2.2 16-10.2 19.7-12.3s31.4-14.7 31.8-16.5c.3-1.3-.3-2.9-.9-4.1-6.5-15.1-21.2-31-27.8-46.2-1.9-4.4-1.7-7.6-1.3-12.4.5-5.9 5.7-36.4 8-40 6.1-9.8 17.4-.3 18.8 8.9 2.1 13.9 4.5 39 9.4 51.6 1.8 4.6 16.3 20 20.5 26.4 10 15.4 13 27.8 13.2 46.3-17.4-4.7-35.6-3.1-53 1l22.7 11.8c12.9 7.5 15.8 25.6 23.3 37.7l-22.2 6.7-13.8 6.8h24.5c7.8 0 16.4 4.9 21.5 10.5s28.6 36.4 29.9 42.1c.4 1.9 0 1.2-1.4 1.4-5 .6-10.9-.5-16 0l-20.5 3c3 .8 6 2.3 8.7 3.8 7.5 4.3 45.3 26.8 47.1 32.9 1.1 3.9.3 12.7 1.2 17.3 13.6-10 27.5-20 43-27l-13.7-6.8c-6-3.3-9.8-5.5-13.5-11.5-12.9-20.4-15-46.1-15.8-69.7 3.5-.7 2.9 5.7 4.6 7.1 3 2.3 19.8 4.7 24.3 4.4-7.3-7.3-14.5-14.9-22.5-21.5-7-5.8-20.9-13.1-26.1-18.4-1.9-2-4.5-8.4-5.4-11.1-1-3.3-3-11-3-14 0-5 .2-10.1 0-15ZM438 473c-5.1-3.9-12.9-6.3-19.2-8.3-7.8-2.4-15.8-4.2-23.8-5.7 2.5 11 11.1 19 6.5 31 11-7.7 23.1-14.3 36.5-17m45 123c2.2-2.2-12.4-40.4-14.8-45.7-5.8-12.6-9.4-15.7-21.2-22.8-15.3-9.1-31.5-12.6-48.9-15.6-1.4 1.7 7.5 27.4 9 31.5 8.6 24.6 18.2 46.1 31.6 68.4 3.8 6.3 14.5 24.8 18.9 29.1 1.7 1.7 13.8 8.4 16 9 2.1.6 1.6-1.1 1.3-2.3-15.8-29.3-30.1-59.8-39.8-91.7 8.6 7.1 15.7 16 24 23.5 3.6 3.2 16.5 14.9 20 16 1.3.4 2.6.6 4 .5Zm209 220-17.6-31.9c-14.1-19.8-48.2-22-70.8-28.2-24.4-6.6-48.3-15.4-72.1-23.9-1.7 1 .3 2.2 1 3 16.1 19.8 46.8 33.4 66.6 48.4.7.5 2.7.4 1.9 2.1-1.5 3.3-30.9 13.6-35.8 14.2L508 803c-1 .9 7.9 11.4 9 12.5 20.9 21.4 46.4 14.8 69.7 24.3 4.1 1.7 15.8 10.9 19.8 14.2 2.4 2 11.3 8.6 10.5 11.3-1.2 4.1-17.4 3.8-21.2 4.9-3.5.9-19.2 11.3-25.1 13.9-1.3.6-13.6 4.6-12.7 5.8 8.1 2.9 16.4 5.9 25 7.5 9.1 1.8 22.4 3.8 31.2 1.2 3.4-1 9.8-6.2 12.1-5.6.9.2 10.7 9.8 13.4 11.7 4 2.9 12.9 6.5 15.3 8.7.7.6 1.3.8 1 2-.2.7-9.2 7.1-11 9-6.2 6.5-11.6 16.3-11 25.5l7.4-6.1c7.2-1.5 14-4.8 21.6-3.9-1.5-18 2.9-34.8 5-52.5-.4-2.6-13.3-10.6-16.1-14-2.6-3.2-6.3-11.7-8.2-15.8-7.8-17.4-12.8-36.7-14.8-55.7 8.1 5.2 18 16.1 27.7 17.8 10.8 1.9 24.2-3.9 35.3-3.8Z" class="outline shading" data-original-prefix="shading" opacity="0.5" style="opacity: 0.5"/><path id="outline-ear-lft1" fill="#000000" d="M845 940c15.1-16.4 31.1-43.3 27.9-66.4-.7-5.1-13-37.3-15.7-43.3-5.6-12.2-14.8-25.4-21-38-16.8-33.9-36.5-72.4-40.1-109.9-2.7-27.6-4.4-55.4-7-83-2.3-23.9-2.1-67.3-15.2-86.8-14.8-22.1-37.6-49.2-54.8-70.1-38.5-46.8-78.2-82.7-128.8-116.2-55.4-36.5-116.1-73-175.5-102.6-33.4-16.6-69-28.7-100.2-48.8-14.6-9.4-23.2-20.3-31.6-35.4l-10.8-21.7c-2.1 16.2-6.7 32.5-2.3 48.8 2.8 10.4 10.9 16.5 17.3 24.7 8.5 11 16.4 20.6 20 34.5-12.7-2-27.3-2.9-39.8.7-10.5 3.1-21.4 14.7-29.2 22.3 9.9.9 26.7.7 35.6 5 6.8 3.2 34.8 28.9 37.7 35.3.7 1.6.9 3 .8 4.7-26.6 1.2-52.1 6-66 31 10-1.8 19.3-7.2 29.5-8 9-.7 29.8 2.6 37 8 8.4 6.3 16.2 17.6 24.5 24.5.4 2.3-1 1.4-2.5 1.5-14.8 1.1-32.1 1.4-43.5 12 26.9 4 48.8 23.7 66.8 42.7 4.1 22.5 17.7 47.5 21.8 69.2 2.2 11.6 1.5 24 3.7 36.3 15.5 83.3 58.6 170.3 119.2 229.8 18.5 18.2 42.4 29.7 63.3 44.7 1.7 1.2 10.9 8 11.3 8.7.9 1.7-1.2 1.6-2 1.9-11.4 5.2-45.4 15.2-57 13.1-7.2-1.3-15-6.4-21.9-8.5 3.6 7.9 8.4 20.7 15.7 25.8 5.6 4 18.5 8.7 25.4 11.6 15.3 6.5 33.4 11.3 48 18 1.7.8 8.5 4.7 9 6 .7 1.7-.7 1.4-1.2 1.8-5.4 3.8-19.8 15.4-24.7 17.2-8.2 3-24 4.2-32.5 2.5l-.5 2 40.8 24.7c20.5 4.6 41.4 5.2 62.2 3.3l-.2 3.8c-6.6 5.1-14.2 12.6-19.2 19.3-8.5 11.3-8 27.2-9.6 40.9l6-8.5 3.7-3.3c10.7.3 23.4-4 33.8-3.2 23.7 1.8 50.6 16.9 73.5 21.5 14.2 2.8 27.6-.8 41 4.5-18.5 6.2-37.3 16-57 10.5-18.3-5.1-33.5-13.3-53.5-14.5-33.3-2-35.2 9-58.1 27-5.5 4.3-6 3.8-8-3-3.6-12.3-5.7-53.9-1.3-65.3 1.5-3.8 5.1-6.1 6.8-9.7-10.2-.8-23.4 0-33.2-2.3-14.7-3.5-51-37.1-60-50-1.4-2-9-14.6-7.8-15.7 17.8 1.4 37 2.7 54-3.5-12.7-5.7-25.8-10.4-38-17-4-2.2-16.8-9-18.9-12.2-4.7-7.3-12.1-27-15.1-35.9-3.5-9.9-6.4-20.1-8-30.5 1-1 14.6 8.3 17 9.5 3 1.6 16.4 8.5 18.5 8.5h21c.2 0 1.8-1.7 1.5-2-2.7 0-4.7-1.3-6.9-2.6-43.8-25.2-70.2-46.5-94.6-91.4-24.1-44.4-53.6-102.6-60.4-152.7-4.4-32.9-2.2-58.5-14.4-90.6-14.9-39.4-49.7-70-91.8-76.8 9.5-11.5 23.7-17.3 36.6-23.9 1-.5 1.9.5 1.4-2.1-6.3-1.1-12.4-5.8-18.7-6.8-8.3-1.3-32.3 3.1-41.4 5.1-8.1 1.7-15.9 4.3-23.8 6.7-1.9-2 9.7-20.8 11.6-23.9 4.8-7.9 14.2-23.6 20.9-29.1 8.3-6.8 23.2-10.1 33.5-13-16.6-14.5-32.6-22.6-55.2-18.7-7.4 1.3-14.6 5.5-21.8 5.2-.2-2.7 9.3-14.4 11.6-17.4 5.7-7.3 20.1-26.8 26.4-31.6 6.3-4.9 17.4-9.1 25-11.5-3.1-9.3-13.5-15.9-16.5-25-4.6-13.9-2.7-48.4 1-63 1.7-6.5 22.7-55.9 26-56l10.7 37.2c15.8 44.4 67 65.8 107.1 83.9 19.7 8.9 40.7 16 60 25 11.5 5.3 21.6 12.7 32.6 18.4 31.6 16.4 61.5 31.3 91.9 50.1 29.9 18.4 57.7 35.6 82.1 60.9 52.6 54.4 98.4 114.5 141.4 176.6 2.3 4.6 2.2 21.8 2.6 28.4 3.2 59.8 8.3 159.1 41.6 209.4 4.3 6.5 10.8 12.5 14.6 18.4 6.6 10.1 12.1 30.3 17.6 42.4 9.9 21.9 26.8 42 22.6 67.3-11 12.4-18.7 31.5-29.5 43.5-4.7 5.3-15.4 10.9-22 14-1 .5-3.4 2.5-4 .5Z" class="outline" data-original-prefix="outline"/><path id="outline-ear-lft2" fill="#000000" d="M776 986c-16.3-8.5-36-13.2-54.5-12-5.1.3-10.8 4.9-10.5-2.4.5-12 4.3-24.6 11-34.5-1.3-1-16.5 1.5-19 2.5-3.8 1.5-19 15.5-21 13.5-1-12.9-4.9-32.3 0-44.4 1.6-3.9 11.7-18.1 10.8-21-.4-1.3-17.2-12.2-20.3-16.7-5.3-7.5-11.1-30.1-13.2-39.8-3.3-14.6-5.2-29.3-6.3-44.2l26.7 16.8c12.7 7.8 28.4 6.1 42.7 7.2 3.1-.4-6.2-30-7.2-32.8-11.2-33.2-21.9-41.8-45.8-65.2-9.2-9-5.2-8.3-6.5-19.5-2.2-19.3-5.5-41-13-59-6.8-16.5-13.6-20.2-26-5-24.9 30.4-16.1 76 3 107 0 1.1-2.2.3-3 0-3.9-1.3-10.1-5-14-7-24.2-12.9-48.4-29.9-66.8-50.2-9.8-40.4-16.5-95.3-44.6-127.4-23.7-27.1-55.9-44.6-90.5-54-.4-1.8.6-1.9 1.7-2.8 7.4-6.4 40.9-24.4 50.1-25.9 5.3-.9 9.4 1.3 13.8.8 1-.1 2.2.2 1.5-1.5-.5-1.2-7.4-9.3-8.6-10.4-3.5-2.9-12-5.8-16.6-7.4-21.8-7.8-44.9-10.7-67.8-13.7-.5-.7 5.1-7.6 6-8.5 5.6-5.6 45.7-33.4 51.5-33.6 4-.1 10.7 1.7 15 2.1 1.1 0 4.6.8 4.5-1-16.7-4.9-34.8-11.7-49.7-20.8-9.7-5.9-14.5-18.5-19.2-28.8-6.8-14.9-12.3-30.2-15.1-46.4 13.9 10.8 30.6 29.4 50 23.5-16.8-23.7-40.1-41.9-64.4-57.6-4.8-11.9-9.1-23.9-11.5-36.5-.1-3 1.1-.7 1.8.2 17.3 20.7 26.2 32.2 49.9 47.1 4.5 2.9 10.1 4.3 14.3 7.7 6.7 5.3 15 18.8 21 26 3 3.6 22.1 23.5 21.9 26-.2 2.2-10.2 3.2-12.5 3.5-9.1 1.1-27.1 2.5-35.2-.8-3.7-1.5-6.4-4.8-10.3-5.7 1.5 2.5 3 5 4.6 7.4 3.1 4.5 12.1 17 15.9 20.1 6.2 5.1 26.9 14.9 35.2 18.8 4.6 2.2 12.1 3.7 15.9 6.1s12.1 12.5 15.5 16.5c1.2 1.4 13.9 16.8 13 17.5-17.6-4-37.2-12.3-55.5-10-3.8.5-27.5 13.7-27.5 15.5.9 1.5 2.1 1.2 3.4 1.6 15.7 4.4 33 6.8 48.1 13.9 9.1 4.3 21.2 20.4 26.9 29.1 1.1 1.6 10.3 17.2 9.6 17.9-18.3-2-37.4-2-55.2 3.3l-8.8 3.7c22.6 4.2 44.9 13 62.5 28 7.8 6.6 30.6 31.9 30.6 41.5 0 2.6-1.2 5-1.1 8 .3 19.3 24.8 77.5 43.6 84.5 9 3.4 14.5.4 17.3-8.5 3.3-10.2 4.8-22.5 7.8-33.2 1.8-6.5 9.3-31.4 12.7-35.3 4.1-4.6 44-27.6 50.8-30.2 1.2-.5 2.3-1.1 3.7-.8-10.1 28.2-6 53.9 1.7 81.8 6.9 24.8 15.6 47.5 30 69 7.9 11.8 19.7 23.6 25.7 36.3 4.3 9.2 7.6 21.3 10.8 31.2 7.9 24.1 15.2 48.8 19.7 73.8h-37.5c-2.4 0-9.5-2-12.3-2.7-8.7-2.3-16.5-7-25.2-9.2 5.9 10.6 10.9 27 18 36.5 8.2 11 26.8 17.5 37 27 0 1.8-20.9 5.9-23.5 7.5-3 1.8-16.3 19-14.5 21 19-5.6 34.1-6.8 52.7.8 3 1.2 17.4 9.6 18.3 11.7s-1.5 1.3-2.5 1.5c-15.4 1.6-26.7 4-32.5 20h18.5c3.2 0 14.3 4.6 17.9 6.1 6.5 2.9 12.4 6.8 18.2 10.9 14.4-2 24.9-10.5 36.5-18-2.1 7.5-12.6 13.3-19.1 17.4-11 7-18.8 10.7-30.9 14.6Z" class="outline" data-original-prefix="outline"/>
    </g><g class="trait-group" data-category="head" id="head-horny">
      <path id="fill-head2" fill="#ffffff" d="M782 505c1.3 1-14.2 15.5-15.5 17-4.3 4.8-10.6 11.6-14.5 16.5-4.9 6.2-6.9 14.3-11.6 20.4-1.9 2.4-7.4 6.2-8 7.1-.4.6-.2 7-1 10-2.7 9.5-14.5 26.1-16.2 34.8-.9 4.5.5 11.7-.5 17.5-1.2 6.6-5.5 12.8-6.5 17.5-1.1 5 .3 12-.5 17.5-.8 5.9-5.3 12.5-5.8 17.2-.5 5.2 1.5 11.9 1.1 18-.2 4-1.8 8.2-2 12-.7 11.2 6.1 21 6.1 33s-1.9 7.9-.9 12.8c.7 3.5 4.9 7.8 6.3 11.7 1.1 3.4 1 7.3 2.3 10.7s4.1 5.3 5.4 8.6c1.6 3.8 1.2 8.2 2.6 11.4 1.6 3.8 7.5 5.9 10.3 8.7 7.2 7.3 5.5 15.9 10 22 4 5.6 14.8 8 20.5 12.5 6.3 4.9 9.7 14.4 15.2 17.8 8.7 5.4 21 6 31.3 13.7s12.8 21.1 19.6 26.4c10.1 7.9 20.1 7.2 31.5 19.5 23.5 25.2 34.5 59.9 19.2 92.2-7.6 16-47.9 37.3-65 42-24.8 6.9-64.9 3.3-87.9-8.5-15.5-8-11.7-15-21.8-23.2-4.3-3.5-12.2-6.6-16.2-10.3-8-7.6-11.1-22-21-27.5-2.5-1.4-5.6-1.7-8-3-12.7-6.8-21.1-12.3-24.8-27.2-1.6-6.3-.5-15.5-2.2-19.8-2-5-10.2-7.9-13.7-11.3-8.8-8.3-18.5-36.5-18.6-48.5 0-7.3 5-15.7 4-21.9-.5-3.2-6-10.1-7.8-14.2-5.6-13-9-31.9-4.9-45.6 2.6-8.6 8.7-13.7 7.6-23.2-1.9-16.5-6.8-25.6-.4-43.6 3-8.6 10.9-15.5 13.3-21.7 4.4-11.5-.2-26.2 10.8-38.2 2.2-2.5 8.7-5.4 9.9-8.1 1-2.3 1-6.8 2-10 2.2-7 5.9-16.9 10.5-22.5 2.5-3.1 7.9-5.8 9.4-8.6 2.5-4.7 1.4-10.5 5.2-16.8 4.1-6.9 10.6-8.4 13.9-13.1 6.2-8.8 7-18.5 17-28 5-4.8 14.2-8.5 18.6-13.4 7.8-8.8 6.5-12.6 18.7-20.3 15-9.6 35.7-17.8 53.3-20.2z" class="fill" data-original-prefix="fill"/><path id="fill-head1" fill="#ffffff" d="M1256.3 505c17.6 2.4 38.3 10.6 53.3 20.2 12.1 7.7 10.9 11.5 18.7 20.3 4.3 4.9 13.6 8.7 18.6 13.4 10 9.5 10.8 19.2 17 28 3.3 4.8 9.8 6.3 13.9 13.1 3.8 6.4 2.7 12.1 5.2 16.8 1.5 2.8 6.9 5.5 9.4 8.6 4.6 5.6 8.3 15.6 10.5 22.5 1 3.2 1 7.6 2 10 1.2 2.7 7.6 5.7 9.9 8.1 11 12 6.4 26.7 10.8 38.2 2.4 6.2 10.2 13.1 13.3 21.7 6.4 18 1.5 27.1-.4 43.6-1.1 9.5 5.1 14.6 7.6 23.2 4.1 13.7.8 32.6-4.9 45.6-1.8 4.1-7.3 11-7.8 14.2-1 6.2 4.1 14.6 4 21.9 0 12-9.8 40.2-18.6 48.5-3.6 3.4-11.7 6.3-13.7 11.3-1.7 4.3-.7 13.5-2.3 19.7-3.7 14.9-12.1 20.4-24.8 27.2-2.4 1.3-5.5 1.5-8 3-9.9 5.5-13 19.9-21 27.5-3.9 3.7-11.8 6.8-16.2 10.3-10.2 8.2-6.3 15.2-21.8 23.2-23 11.9-63.1 15.4-87.9 8.5-17.1-4.7-57.4-26.1-65-42-15.3-32.3-4.3-67 19.2-92.2 11.4-12.2 21.4-11.6 31.5-19.5 6.8-5.3 9.3-18.6 19.6-26.4s22.6-8.3 31.3-13.7c5.5-3.4 8.9-12.9 15.2-17.8 5.7-4.5 16.4-6.9 20.5-12.5 4.4-6.1 2.7-14.7 10-22 2.8-2.8 8.7-4.9 10.3-8.7 1.4-3.2 1-7.6 2.6-11.4 1.4-3.3 4.1-5.2 5.4-8.6s1.2-7.3 2.3-10.7c1.3-4 5.5-8.2 6.3-11.7 1-4.9-.8-8.4-.9-12.8 0-11.9 6.8-21.8 6.1-33-.2-3.8-1.8-8-2-12-.4-6.2 1.6-12.8 1.1-18-.5-4.8-5-11.3-5.8-17.2-.8-5.6.7-12.6-.5-17.5-1.1-4.7-5.4-10.9-6.5-17.5-1-5.8.4-13-.5-17.5-1.7-8.7-13.5-25.3-16.2-34.8-.8-3-.7-9.4-1-10-.5-.9-6.1-4.7-8-7.1-4.7-6.1-6.7-14.2-11.6-20.4-3.8-4.9-10.1-11.8-14.5-16.5-1.3-1.5-16.8-16-15.5-17h-.2Z" class="fill" data-original-prefix="fill"/><path id="shading-head4" fill="#aaaaaa" d="M873 1019v-21.5c0-.9-2-5.2-2.5-6.5-2.9 4.4-4.6 11.4-10.5 13-.7-17.7 5.6-39-6.5-54-1.2 0-2.6 10.7-3.2 12.8-2.3 7.7-9 18.6-13.9 25.1-1.8 2.4-4.4 6.3-7.4 6.6 2.4-7.3 6.5-14.1 8.5-21.5 2.8-10.4 4.6-29.6 2-40-1.1-4.2-3-8.2-5-12-3.2 7.9-4.7 16.1-8 24-11.3 27.1-34.6 60.7-59 77-1.9 1.3-11.4 6-11.6 6.6-1.7 7 5.2 15.6 10.7 19.2 8.9 5.6 20.5 4.4 30.3 6.7-11.1 4.8-26.5 4.3-38.4 2.4-10.8-1.8-33.4-11.4-40.6-19.4-16.1-17.8-28.9-38-47-55-6.5-6.1-20.5-15.3-25-22-4.9-7.2-7.2-19.8-12.2-27.8s-17.1-15.8-20.7-22.3c-1.8-3.3-6.4-27.8-7-33-1.4-11.3.7-27.9-1.3-37.7-1.5-7.1-10.9-14.2-10.9-23.2 0-15.4 6.5-32.8 7-46.2.2-7-3.2-15.3-3-22.9s5.7-26.2 8.6-33.5 8.7-14.1 10.8-21.2c4.7-16 .5-16.8 13.2-30.8 1.7-1.9 8.8-7.4 9.1-8 .4-.7-.9-12.6-.3-16.3.4-2.3 5.9-13.3 7.3-15.7 2.1-3.4 9.3-8.4 10.9-11.1s.7-10.1 5.5-16.5c3.1-4.2 13.7-10.1 14.5-11.5.9-1.6.2-4.1 1-6 5.2-13.8 13.3-18.2 23.6-27.4 4.8-4.3 7.7-7.4 12-12 11.4-12.5 39.7-32.3 56.7-33.5 8.7-.6 6.4 8.3 3.2 13.3-5.4 8.4-19.2 18.2-25.8 27.2-3.8 5.1-5.9 14-9.5 18.5-1.4 1.7-4.3 2.7-5 4-1.2 2.6-3.1 14.2-5 19-9.6 24.1-16.2 38.2-21.2 64.8-3.4 18.1-2.5 29.3-3.2 46.8-.4 8.4-3 18.4-2.9 26.8.5 36.8 14.8 58.8 32.1 88.9 8.8 15.3 11.2 19.9 24.8 32.2 16.1 14.6 32.2 21.9 48.9 34.1 12.1 8.8 29.8 23.1 41.1 32.9 28 24.5 45.5 63.3 30.8 99.8-1 2.6-2.5 6.8-5.8 6.7h-.2ZM763 515c-1.3-1.2-24.4 11.2-27.3 13.2-6.3 4.2-11.8 10-15.7 16.3 5.2 3.1 7.9 6 10.5 11.5zm-51.2 40.2c-7.3 1-24.9 18-24.7 25.3 0 3.7 5.7 4.5 7.9 6 9.6 6.7 13.3 19.2 21.5 3.3 4.3-8.3 11.8-37.1-4.6-34.7h-.1Zm-13.6 77.6c6.8 3.9 7.3-14.4 6.7-18.2-1.2-8.7-12.5-22.1-21.6-22.5-7.2-.4-18.8 10.4-15.6 17.7 1.7 3.9 6.3 3.4 9.9 5.1 4.8 2.3 10.6 6 14.3 9.7s5.7 8 6.2 8.3Zm-49.1 13.1c.9 1 21.3 6.6 25.8 8.7 2.1 1 5.1 2.7 7 4 2.4 1.6 10 9.2 10.7 9.4 2.4.5 4.1-5.9 4.3-7.5 2.2-17.3-14.7-41.4-33.3-38.4-4.1.7-12.8 10.3-14 14-.6 1.7-1.1 9.1-.4 9.9Zm3.6 13.3c-11.3 1.9-17.2 17.1-15.8 27.3 1 7.2 5.5 3.2 9.5 3.4 9.9.5 20.4 2.3 29.8 5.3 4.2 1.4 12.7 8.2 14.5 0 4.3-19.3-20.7-39-38-36.1Zm26 55.1c-11.5-13.5-37.2-10-48.1 2.7-6 6.9-12.9 29.9-2.5 34.5 2.7 1.2 25.8-6.9 30.9-8.1 6.5-1.5 20.4-.4 23.3-7.7 2.2-5.4.2-16.9-3.6-21.4M681 792c3.6 0 19-9.5 13-13.6-1.2-.8-12.2-.6-14.6-.5-2 0-14.5 3.5-14.4.5 0-2.7 26.6-5 28-13 .8-4.6-2.9-7.8-7-9-10.4-3.1-38.3-.4-48.8 3.3-35.6 12.4-33.6 56.7 4.2 63.2 18.7-9.3 36.1-22.9 57.6-25l-5-3.5-13-2.5Zm27 20c-3.2-.5-6.2-2.1-9.5-2.1-16.5 0-62.3 21.2-64.5 39.5-1.6 13.6-1.2 31.8 11.3 39.7 13.9 8.8 20.7 3.3 32.2-6.2 6.9-5.8 12-13.9 18.5-19.5 5.7-5 24.4-16.2 25.8-23.2.3-1.4.3-2.8.2-4.3-5.6-.5-10.7.4-16 2 1.5-4.2 5.1-5.8 5.8-10.8 1.7-12.2-13.6-8.6-15.8-10.2-3.4-2.5 7.7-2.9 8.5-3 1.5-.2 3.1 0 3.5-2Zm29.8 42.2c-21 2.3-57.5 40.1-63.3 59.7-6.3 21.2 15.2 42.3 36.5 35.5 11.3-3.6 28.2-24.4 34.4-34.6 2.8-4.6 11.8-21 12.5-25.5 2.1-13.4-2.4-37.2-20.2-35.2ZM761 931c3.6-17.5 12.6-33.9 13-52-1.3-1.9-4.3 12.6-4.7 13.8-8.5 24.6-28.2 46.1-40.7 68.3-2.8 5-9.1 15.6 0 17.7 11.2 2.5 23.6-8.2 34.3-10.8 1.1 1.1-4.6 6.2-5.5 7-6.3 5.1-15.3 7.3-18.5 16 9.2-2.7 18.4-6.3 25-13.5 14.5-15.9 33.4-50.3 34.1-72 0-1.5.3-7.7-2.4-7.3-16.8 2-20.5 27.3-34.7 32.8Zm-6 81c6-.2 14.7-6.1 19.5-10 13.1-10.7 37.8-52.5 41.1-68.9 2.2-11.2 3.2-26.1-3.1-36l-8.5 34.5c-11 28.8-28.7 59.3-59 70.5.3 1.8 5.2 1.1 6.5 1 4.9-.4 9.5-2.5 14.5-2 2 1.8-10.4 9.1-11 11Z" class="outline shading" data-original-prefix="shading" opacity="0.5" style="opacity: 0.5"/><path id="shading-head3" fill="#aaaaaa" d="M832 959c2.8 3-9.7 24.4-12.6 27.9-1.9 2.3-12.7 12.7-15.4 10.1-.5-2.1.7-2.7 1.5-4 2.7-4.7 19.6-29.8 22.5-32.5 1.4-1.2 2-1.8 4-1.5" class="outline shading" data-original-prefix="shading" opacity="0.5" style="opacity: 0.5"/><path id="shading-head1" fill="#aaaaaa" d="M1165.2 1019c-3.3 0-4.7-4.2-5.8-6.7-14.7-36.5 2.7-75.3 30.8-99.8 11.3-9.8 29-24.1 41.1-32.9 16.7-12.2 32.8-19.5 48.9-34.1 13.6-12.3 16.1-16.9 24.8-32.2 17.2-30.1 31.6-52.2 32.1-88.9 0-8.5-2.6-18.5-2.9-26.8-.8-17.5.2-28.6-3.2-46.8-5-26.6-11.6-40.7-21.2-64.8-1.9-4.8-3.8-16.4-5-19s-3.6-2.3-5-4c-3.6-4.4-5.8-13.3-9.5-18.5-6.6-9-20.5-18.8-25.8-27.2-3.2-5-5.5-13.9 3.2-13.3 17 1.1 45.2 20.9 56.7 33.5 4.2 4.6 7.2 7.8 12 12 10.3 9.3 18.3 13.7 23.6 27.4.7 1.9 0 4.4 1 6 .8 1.4 11.3 7.3 14.5 11.5 4.8 6.4 3.9 13.8 5.5 16.5s8.8 7.7 10.9 11.1c1.5 2.3 7 13.3 7.3 15.7.6 3.6-.7 15.5-.3 16.3.3.6 7.4 6.1 9.1 8 12.7 14 8.5 14.8 13.2 30.8 2.1 7.1 8 14 10.8 21.2s8.4 25.9 8.6 33.5-3.2 15.9-3 22.9c.5 13.3 7 30.8 7 46.2s-9.4 16.1-10.9 23.2c-2 9.8 0 26.4-1.3 37.7-.6 5.1-5.2 29.7-7 33-3.6 6.5-15.8 14.3-20.7 22.3s-7.2 20.6-12.2 27.8c-4.5 6.7-18.5 15.9-25 22-18.1 17-30.9 37.1-47 55-7.2 8-29.8 17.6-40.6 19.4-11.9 1.9-27.3 2.5-38.4-2.4 9.8-2.3 21.5-1 30.3-6.7 5.5-3.5 12.4-12.2 10.7-19.2-.2-.7-9.7-5.4-11.6-6.6-24.3-16.3-47.7-50-59-77-3.3-7.9-4.9-16.1-8-24-2 3.8-3.9 7.8-5 12-2.6 10.4-.8 29.6 2 40 2 7.4 6.1 14.2 8.5 21.5-3-.3-5.6-4.2-7.4-6.6-4.9-6.5-11.6-17.4-13.9-25.1-.6-2.1-2.1-12.8-3.2-12.8-12.1 15-5.8 36.3-6.5 54-5.9-1.5-7.6-8.6-10.5-13-.5 1.3-2.5 5.6-2.5 6.5v21.5h-.2Zm110-504 32.5 41c2.6-5.6 5.3-8.4 10.5-11.5-3.9-6.3-9.4-12.1-15.7-16.3-2.9-2-26-14.3-27.3-13.2m51.3 40.2c-16.5-2.4-8.9 26.4-4.6 34.7 8.2 15.8 11.8 3.4 21.5-3.3 2.3-1.6 7.8-2.4 7.9-6 .2-7.4-17.4-24.3-24.7-25.3h-.1Zm13.5 77.6c.5-.3 5-7.1 6.2-8.3 3.8-3.7 9.5-7.4 14.3-9.7 3.6-1.7 8.2-1.2 9.9-5.1 3.2-7.2-8.4-18-15.6-17.7-9.1.5-20.3 13.9-21.6 22.5-.5 3.8 0 22.1 6.7 18.2Zm49.1 13.1c.6-.7 0-8.2-.4-9.9-1.2-3.7-9.9-13.3-14-14-18.6-3-35.6 21.1-33.3 38.4.2 1.6 1.9 8.1 4.3 7.5.7-.2 8.3-7.8 10.7-9.4 1.9-1.3 4.9-3 7-4 4.4-2.1 24.9-7.7 25.8-8.7Zm-41.7 49.4c1.8 8.2 10.3 1.3 14.5 0 9.4-3 19.9-4.8 29.8-5.3 4.1-.2 8.6 3.9 9.5-3.4 1.4-10.2-4.5-25.4-15.8-27.3-17.4-2.9-42.3 16.8-38 36.1Zm12.2 19c-3.8 4.5-5.8 16-3.6 21.4 2.9 7.3 16.8 6.2 23.3 7.7 5.1 1.2 28.2 9.3 30.9 8.1 10.4-4.6 3.4-27.5-2.5-34.5-10.9-12.7-36.6-16.3-48.1-2.7m-2.4 77.7-13 2.5-5 3.5c21.5 2.1 38.8 15.7 57.6 25 37.8-6.6 39.8-50.9 4.2-63.2-10.5-3.7-38.4-6.3-48.8-3.3-4 1.2-7.8 4.4-7 9 1.4 8 27.9 10.4 28 13 0 2.9-12.4-.4-14.4-.5-2.4-.2-13.4-.4-14.6.5-6 4.1 9.4 13.4 13 13.6Zm-27 20c.4 1.9 2 1.8 3.5 2 .8 0 11.9.5 8.5 3-2.2 1.7-17.5-1.9-15.8 10.2.7 5 4.3 6.6 5.8 10.8-5.3-1.6-10.4-2.5-16-2 0 1.4 0 2.8.2 4.3 1.4 7.1 20.1 18.2 25.8 23.2 6.4 5.6 11.6 13.8 18.5 19.5 11.5 9.6 18.3 15 32.2 6.2 12.5-7.9 13-26.1 11.3-39.7-2.2-18.3-48.1-39.6-64.5-39.5-3.3 0-6.3 1.6-9.5 2.1Zm-29.8 42.2c-17.8-2-22.3 21.8-20.2 35.2.7 4.5 9.7 20.9 12.5 25.5 6.3 10.2 23.1 31 34.4 34.6 21.4 6.8 42.8-14.3 36.5-35.5-5.8-19.6-42.3-57.4-63.3-59.7Zm-23.2 76.8c-14.2-5.5-17.9-30.8-34.7-32.8-2.6-.3-2.4 5.9-2.4 7.3.7 21.6 19.6 56 34.1 72 6.5 7.2 15.7 10.8 25 13.5-3.1-8.8-12.2-10.9-18.5-16-.9-.7-6.7-5.9-5.5-7 10.7 2.6 23.1 13.3 34.3 10.8 9.3-2.1 3-12.7 0-17.7-12.5-22.2-32.2-43.7-40.7-68.3-.4-1.2-3.4-15.6-4.7-13.8.4 18.1 9.3 34.5 13 52Zm6 81c-.6-1.9-13-9.2-11-11 5-.4 9.6 1.7 14.5 2 1.3 0 6.3.7 6.5-1-30.3-11.1-48-41.6-59-70.5l-8.5-34.5c-6.3 10-5.3 24.8-3.1 36 3.3 16.4 28 58.3 41.1 68.9 4.8 3.9 13.5 9.8 19.5 10Z" class="outline shading" data-original-prefix="shading" opacity="0.5" style="opacity: 0.5"/><path id="shading-head2" fill="#aaaaaa" d="M1206.2 959c2.1-.4 2.6.2 4 1.5 2.9 2.6 19.8 27.8 22.5 32.5.8 1.3 2 2 1.5 4-2.7 2.7-13.5-7.8-15.4-10.1-2.9-3.5-15.4-24.9-12.6-27.9" class="outline shading" data-original-prefix="shading" opacity="0.5" style="opacity: 0.5"/><path id="outline-head3" fill="#000000" d="M772 912c-.9 0-4 7.5-4.5 9 1.1-2.3 5.6-5.6 5.5-8 0-.8-.2-1-1-1" class="outline" data-original-prefix="outline"/><path id="outline-head2" fill="#000000" d="M1265.2 913c0 2.4 4.4 5.7 5.5 8-.5-1.4-3.6-8.9-4.5-9-.8 0-1 .2-1 1" class="outline" data-original-prefix="outline"/><path id="outline-head5" fill="#000000" d="M816.9 1052.3c-2.6 4.2-74.2 20.2-107.3-13.5-2.5-2.5-2.4-6.6-4.8-9.2s-12.7-7.5-17-11c-9.2-7.4-13.6-16.8-15.4-25-4.6-4-17.5-7.2-23.4-11.2-17.8-11.9-18.3-21-20.3-40.7s-7.8-9-13-14c-12.5-12.1-21.5-42-20-59s3.3-10.6 3-13.9-7.3-13.9-9-19.1c-5.6-17.3-7.4-34.6-.8-51.8s4.5-5.9 4.8-10.2-2.7-12.8-3.1-19c-1-15.3 1.4-29 8.9-42.2 2.4-4.2 6.8-8.3 8.2-12.8 3.3-10.7.6-19.6 7.2-31.8 3.3-6 11.6-10.4 13.2-13.8s1.6-8.6 2.8-12.2c2.5-7.3 7.6-17.5 12.7-23.3s5.7-3.8 6.5-5.5c2.4-5.4 1.8-11 6.1-17.9s10.4-7.8 13.4-12.6 3.1-9.1 5.1-12.7c7.9-14.4 22.1-19.7 31.3-30 1.9-2.2 3.9-6.4 6.1-8.8 11.7-13.2 38-25.3 55.1-29.9 10.9-2.9 31.8-6.7 19.4 11.2-6 8.6-17.5 19.8-24.7 28.7s-9.6 11.5-14.3 17.5-6.8 5.9-9 10-1.6 10.6-3.5 16.5-10.9 20.7-12.3 26.7.8 17.8-3.8 27.2-4.8 5.3-5.2 6.8c-.8 2.6 1.2 11.9.7 16.7s-5.2 14.5-5.7 19.3 1.8 7.2 1.8 10.7c0 6.1-3.3 15.9-3.1 21s3.2 8.8 4.2 12.9c1.8 7.2 2.3 14.8 1.8 22.1s-2 6.1-1.7 7.9 6.3 7.6 7.3 11.6-.1 6.6 1.2 9.8 4.8 4.6 6.4 8.6.5 8 1.3 9.7 10.6 6.4 14 11.1 5.3 17.9 7.1 19.9 10.1 4.1 12.5 5.5c4.9 2.7 11.5 8.7 14.9 13.1s5.6 10.3 7 11c2.3 1.1 5.6.1 8.3.7 13.3 3 28 13.3 35.2 24.8s5.7 12.7 7.1 13.9 13.9 4.4 17.5 6.5c22.9 12.9 44.3 54 44 80s-8.8 25.6-18 33.5c6.8-24.6 1.7-59.8-15-79.5s-25.2-24-28-21.5c-2.2 16.7-8.5 32.3-16.5 47-13.7 25.2-43.5 63.5-72.5 70.5s-14.3 2.2-21 2.5c.6 4.4 6.2 6.1 9.6 7.9 26.1 13.5 33.7 13.7 61.8 12.4 6.4-.3 14.4-2.5 20.6-3.1Zm-70.7-511.7c2.2-2.9 6.3-6.1 8.3-9.2l16.7-18.4c1.3-7.9-43.5 15-50.5 33.6 2.7 1.6 5 3.7 7.1 6.1s1.9 6.8 5.1 3.9 10.4-12 13.4-15.9ZM722 557.3c-2.9-3.2-10.7-4.1-14.7-2s-10 8.5-11.6 10.4-12.2 14.3-10.6 17.2 9.6.4 21 11.3 4.6 4.8 7 7c1.9 0 10-24.4 11.4-27.6s-.4-13.6-2.6-16.2Zm-43.5 35c-4.2 1.1-15.4 11.7-12.3 16.8s14.4 6.4 17.1 8 7 4.4 9.5 6.5 8.1 9.6 9 10.1c4 2.2 6.7-7 7-10 1.7-13.8-4.5-24.5-16.1-30.4s-8.7-2.3-14.1-.9Zm-32.3 56.8c2.3.7 10.5 1.2 13.9 1.2s17.9 5.6 21.3 7.6 14.1 10.8 15 11.1c5.2 1.4 5.6-10.1 5.3-13.4-.9-9.6-12.1-27.5-20.5-32-12.5-6.8-21.7-3.3-29.4 8.1s-9.7 16.2-5.5 17.5Zm52.3 54.8c.4-.5 1.1-5.2 1.2-6.3 1.1-13.3-4.4-22.1-14.1-29.7-19-14.9-44.1-18.2-57.9 6.7-1.5 2.8-7.1 15.4-5.6 17.6s14.4-1.7 18.1-2c12.9-1.1 28.2.8 40.2 5.8s12 8.1 14.3 8.8 3.3 0 3.8-.8Zm.2 48.2c5.1-26.8-9.9-45.9-35.1-52.1-39.3-9.7-66.2 22.2-58.9 60.6.3 1.6 1.2 2.7 2.6 3.5 12-7.7 26.2-12.9 40.2-15.7 17.2-3.4 35.4-5.4 51.2 3.7m13 44c1.4-2-4.5-7.6-5.5-10-4.9-11.8 1.3-19-14.8-26.2-18.2-8.1-38.2-7.3-56.3-.7-33.2 12.1-41.3 42.5-29.8 74.9s4.2 11.2 6.5 10.6 16.2-13.1 19.6-15.4c17.6-11.9 46.1-24.8 66.5-30.5 2.3-.7 13.4-2.1 13.8-2.7m17.5 23.5c-18.5-23.6-57.2-7.1-77.8 5-29 16.9-48.2 39.3-35.9 75.2 3.2 9.5 15.4 27.1 26.8 19.2 6.4-4.4 22.1-21 28.5-27.5s16.6-19.5 26.5-28.5c11.8-10.7 25.8-19.7 36.1-31.9 1.5-4.3-1.6-8.3-4.1-11.5ZM689.5 880c-12.1 11.7-40.5 43.5-42.7 59.7s7.3 21.9 16 28.8c18.3 14.7 27.9 10.8 45.6-2.2s27.3-28.1 35.4-42.6c9.6-17.1 31.5-62.4 8.4-75.7s-19.9-.6-30 7.1c-10.8 8.1-23.1 15.6-32.7 24.8Zm86.2 13.6c.6-5.4 0-12.3 0-18s-1-2.9-2-2.5c-1.7 19.1-11.3 37.1-21.2 53.3-14 23-35.4 49.2-58.3 63.7-1.1.7-2.2 1.1-3.5 1 2.3 8.1 8.1 8 15.5 7 7.5-1.1 28.8-10.4 27.5-9-4.3 4.3-18.2 14.9-22 15 2.3 2.5 10.8 3.1 14.5 3.1s32.8-3.6 34.2-4.1c4.4-1.3-7 6.1-9 7.2-4 2.2-18 7.4-22.5 8.5s-8.7 1.6-13.2 1.3c-.4 1 2.3 2 2.5 2 0 0 5.6 2.1 18 0s27.4-12.5 33.8-17.2c18.2-13.4 30.2-28.9 39.6-49.4s17.4-43.6 2.1-57.4c-.4 8.7-2.2 17.5-4.7 25.8-5.4 17.9-14.9 37.9-27.5 51.8s-33.6 24.1-13 5.7c5.2-4.7 13-16.7 17-23.5 10.8-18.6 19.8-43.4 19.3-65.2-.2-6.8-9.3-15-16-15.5-2.3 17.1-4.1 31.7-16.4 44.6s-5.3 5.9-8.6 7.4c5.5-11.6 12.6-21.8 14-35.5Z" class="outline" data-original-prefix="outline"/><path id="outline-head1" fill="#000000" d="M1243.8 1055.3c28.1 1.3 35.7 1.1 61.8-12.4s9-3.5 9.6-7.9c-6.7-.3-14.5-.9-21-2.5-29-7.1-58.8-45.3-72.5-70.5-7.9-14.7-14.3-30.3-16.5-47-2.8-2.6-25.4 18.4-28 21.5-16.7 19.8-21.8 55-15 79.5-9.1-8-17.9-23.5-18-33.5-.4-26 21-67.2 44-80 3.6-2 16.7-5.7 17.5-6.5 1.4-1.2 5.3-11.1 7.1-13.9 7.2-11.6 21.8-21.9 35.2-24.8 2.7-.6 5.9.4 8.3-.7s5.2-8.6 7-11c3.4-4.4 10.1-10.4 14.9-13.1s11.6-4.4 12.5-5.5c1.7-2.1 3-14.2 7.1-19.9s13-8.8 14-11.1-.3-5.8 1.3-9.7 5.3-5.9 6.4-8.6.4-6.4 1.2-9.8 6.9-9.5 7.3-11.6-1.6-5.4-1.7-7.9c-.4-7.4 0-15 1.8-22.1s4.1-8.9 4.2-12.9c.2-5.1-3.1-14.9-3.1-21s2.1-7.5 1.8-10.7c-.5-4.9-5-12.8-5.7-19.3s1.5-14.1.7-16.7-4-4.4-5.2-6.8c-4.6-9.4-1.9-18.7-3.8-27.2-1.4-6-10-19.7-12.3-26.7s-.7-11.2-3.5-16.5-6.3-6.5-9-10c-4.7-6-9.6-11.7-14.3-17.5-7.2-8.9-18.8-20.1-24.7-28.7-12.4-17.9 8.5-14.1 19.4-11.2 17.1 4.6 43.4 16.7 55.1 29.9 2.2 2.4 4.2 6.7 6.1 8.8 9.2 10.3 23.3 15.6 31.3 30s2.9 9.4 5.1 12.7c3.1 4.7 9.2 5.8 13.4 12.6s3.7 12.5 6.1 17.9c.8 1.8 4.8 3.6 6.5 5.5 5.1 5.7 10.2 16 12.7 23.3s1.5 9.3 2.8 12.2 9.9 7.8 13.2 13.8c6.7 12.2 3.9 21.1 7.2 31.8s5.8 8.6 8.2 12.8c7.5 13.2 9.8 27 8.9 42.2-.4 6.1-3.6 13.5-3.1 19 .4 4.3 3.4 6.6 4.8 10.2 6.7 17.2 4.8 34.5-.8 51.8-1.7 5.2-8.7 16.2-9 19.1s2.6 9.7 3 13.9c1.6 17-7.4 46.9-20 59s-12.2 5.9-13 14c-2 19.7-2.4 28.9-20.3 40.7s-18.8 7.1-23.4 11.2c-1.8 8.2-6.2 17.6-15.4 25s-13.9 7.5-17 11c-2.4 2.7-2.3 6.8-4.8 9.2-33.1 33.7-104.7 17.7-107.3 13.5 6.3.5 14.3 2.8 20.6 3.1Zm63.4-498.8c3.1 3 3.5-2 5.1-3.9s4.3-4.5 7.1-6.1c-7-18.7-51.8-41.5-50.5-33.6l16.7 18.4c2 3.1 6.1 6.3 8.3 9.2 3 3.9 10.8 13.5 13.4 15.9Zm8.1 16.9c1.5 3.2 9.5 27.6 11.4 27.6 2.5-2.1 4.7-4.7 7-7 11.4-10.9 20.4-10.3 21-11.3 1.7-2.8-8.4-14.8-10.6-17.2s-9.9-9.5-11.6-10.4c-3.9-2-11.8-1.2-14.7 2s-4.4 12.3-2.6 16.2Zm32.1 19.9c-11.6 5.8-17.8 16.5-16.1 30.4.4 3 3 12.2 7 10s6.7-8.1 9-10.1c2.5-2.1 6.6-4.9 9.5-6.5s16.6-7.1 17.1-8c3.1-5.1-8-15.7-12.3-16.8-5.4-1.4-9.6-1.3-14.1.9Zm40.8 38.3c-7.7-11.3-16.9-14.9-29.4-8.1s-19.6 22.5-20.5 32 .1 14.8 5.3 13.4 12-9.3 15-11.1 18.3-7.6 21.3-7.6 11.6-.6 13.9-1.2c4.2-1.2-3.9-15-5.5-17.5Zm-42.9 73.1c2.3-.7 9.9-7 14.3-8.8 12-5 27.3-6.9 40.2-5.8s16.4 4.4 18.1 2-4-14.8-5.6-17.6c-13.7-24.8-38.9-21.6-57.9-6.7s-15.2 16.4-14.1 29.7c0 1.1.8 5.8 1.2 6.3.6.8 2.8 1.1 3.8.8Zm47.2 43.7c14 2.8 28.2 7.9 40.2 15.7 1.4-.8 2.3-1.8 2.6-3.5 7.3-38.5-19.6-70.4-58.9-60.6s-40.1 25.4-35.1 52.1c15.8-9.1 34-7.1 51.2-3.7m-50.4 50.4c20.4 5.7 49 18.6 66.5 30.5 3.4 2.3 17.9 15 19.6 15.4s5.8-8.6 6.5-10.6c11.4-32.4 3.3-62.7-29.8-74.9-18.1-6.6-38.1-7.4-56.3.7-16.1 7.2-10 14.4-14.8 26.2s-6.9 8-5.5 10 11.4 2.1 13.8 2.7m-35.4 32.3c10.3 12.2 22.1 21.8 33.9 32.6 9.8 9 19.7 18.8 28.7 27.9 6.4 6.5 22.1 23.1 28.5 27.5 11.3 7.9 23.5-9.7 26.8-19.2 12.3-36-5.8-57.9-34.8-74.8-20.7-12.1-60.4-29-79-5.4-2.5 3.2-5.7 7.2-4.1 11.5Zm11 24c-10.1-7.6-16.8-14.6-30-7.1-23.1 13.3-1.2 58.6 8.4 75.7 8.1 14.5 22.1 32.8 35.4 42.6 17.7 13 27.3 16.9 45.6 2.2s17.6-17 16-28.8-32.4-46.2-44.6-57.9c-9.6-9.2-20.1-18.5-30.9-26.6Zm-39.4 74c-3.3-1.5-6.8-5.6-8.6-7.4-12.3-12.8-14.1-27.5-16.4-44.6-6.8.6-15.9 8.7-16 15.5-.5 21.9 8.5 46.7 19.3 65.2 3.9 6.8 11.8 18.8 17 23.5 20.6 18.4-10.1-2.5-13-5.7-12.6-13.9-22.1-33.9-27.5-51.8-2.5-8.3-4.3-17.1-4.7-25.8-15.3 13.7-5.2 41.4 2.1 57.4 9.4 20.5 21.4 36 39.6 49.4 6.4 4.7 21.5 15.1 33.8 17.2s18 0 18 0c.2 0 2.9-1 2.5-2-4.5.3-8.8-.3-13.2-1.3s-18.5-6.3-22.5-8.5-13.4-8.5-9-7.2 29.6 4 34.2 4.1 12.2-.5 14.5-3.1c-3.8-.2-17.7-10.7-22-15-1.3-1.3 20 7.9 27.5 9 7.4 1.1 13.2 1.1 15.5-7-1.3.1-2.4-.3-3.5-1-22.9-14.4-44.3-40.7-58.3-63.7-9.9-16.2-19.5-34.2-21.2-53.3-1-.4-2 2.3-2 2.5 0 5.7-.6 12.6 0 18 1.4 13.7 8.5 23.9 14 35.5Z" class="outline" data-original-prefix="outline"/>
    </g>
</svg>