<?xml version="1.0" encoding="UTF-8"?>
<?xml-stylesheet type="text/css" href="styles/collection.css"?>
<svg xmlns="http://www.w3.org/2000/svg" viewBox="0 0 2048 2048"><g id="01_background" data-trait="KBDS"><defs><radialGradient id="radial-gradient" cx="1024" cy="-181" r="1024" fx="1024" fy="-181" gradientTransform="translate(0 1204)" gradientUnits="userSpaceOnUse"><stop offset="0" stop-color="#505151"/><stop offset="1" stop-color="#202733"/></radialGradient></defs><path id="gradient-jean" fill="url(#radial-gradient)" d="M2048 3.6v2038.8c0 3.8-.8 4.6-4.6 4.6H4.6c-3.8 0-4.6-.8-4.6-4.6C.1 1361.3 0 680.2 0-1h2043.4c3.8 0 4.6.8 4.6 4.6"/></g><g id="02_Jaw" data-trait="half-robo"><path id="fill-jaw" class="fill"  fill="#fff" d="m1382.8 1128.2 12.4 130.2 60.9 48.3-49.6 133.4c-1 1.4-2.4 1.1-3.9.9-13.9-1-32.8-8.5-47.4-10.7-1.8-.3-3.5-.4-5.2-.3 1.2 4.7-1.2 7.6-2.1 11.4-4.9 22.2-7.7 45-12.1 67.4l-57.2 29.3-1.4 1.6c-1.1 12 1.6 23.9.9 35.9-.3 5-1.3 14.9-2.3 19.7-.6 2.8-13.7 32.2-15 33.5s-16.1 8.9-16.7 8.3l-9.5-50-51 52c-7.7 5.7-20.7 9.3-27.5 15.5-14 12.7-24.7 36.5-41.4 47.6-5.5 3.6-58.7 25.2-65.4 26.6-2.4.5-46.7.7-49.3.2-6.2-1.1-59.9-22.7-65.6-26.3-14-8.8-29.1-36.3-42-48-6.7-6.1-19.9-9.6-27.5-15.4l-51-52-9.6 48.4c-.6.9-.9 1.7-2.2 1.5-.8 0-13.8-7.6-14.4-8.2-1.4-1.4-15.6-32.9-16-35.5l-.7-54.3-58.2-30.3-12.3-69.7c-16.4-1.1-33.5 3.9-49.5-1l-37.3-85.8c-.7-3.4 4-13 5.6-16.9 8-19 17.8-37.3 25.7-56.3 9.2-2.5 21.3 1.1 29.9-5.1 4-2.8-.2-18.8 0-23.9l-19-32.1-.3-2.2 27.6-63.5c1.4-9.9-3.2-21.4-1.1-31.1 1.3-6.2 9.7-21.7 13.2-27.9 54.6-98.4 184.4-157.8 290.2-180.8 48.2-10.5 90.3.5 136.5 15.4 98 31.8 198 94.6 250.7 185.3 3.2 5.5 3.8 13.3 10.7 14.8h-.7Z" class="fill" data-original-prefix="fill"/><path id="fill-jaw1" class="fill"  fill="#fff" d="M1265.7 1351.3c9.2 7.7-4.5 25.9-12.2 15.7s2.9-23.4 12.2-15.7" class="fill" data-name="fill-jaw" data-original-prefix="fill"/><path id="fill-jaw2" class="fill"  fill="#fff" d="M1314.6 1391.2c7.8-1.5 6.2 19.1-2.9 17.7-9.8-1.5-.6-17 2.9-17.7" class="fill" data-name="fill-jaw" data-original-prefix="fill"/><path id="outline-shading-jaw" class="outline"  fill="#000" d="M1377.3 1124.7c2.2 2.7 13.8 4 14.5 10l8.4 112.6c17.4 18.9 36.8 35.9 56.4 52.6l1.5 3.6-51 135.8c-1 1.6-3.7 1.7-5.4 1.6-14.4-.9-32.2-8.4-47.3-8.9-1.8 0-3.2-.2-4.4 1.3l-14.4 75.6-59.4 30.1c.4 11 2.6 23.6 2 34.5-.3 5.7-1.3 15.4-2.1 20.9-.5 3.1-13.4 31.4-15.4 33.6-3 3.2-11.6 6.2-15.5 9l-12-46.4-2.4-.6-46.1 47.9c-7.8 6.2-20 9.3-27.5 15.5-14.2 11.7-24.4 36.1-41.5 47.5-6.8 4.6-52.9 25.2-60.4 26.6-9.5 1.7-52.8 1.8-62.3.2-7.6-1.3-48.1-19.8-56.6-24.4-16.2-8.6-30.7-38.5-45.1-49.9-7.1-5.7-18.8-9.3-26.5-14.5l-48-49-8.5 47c-1.4 1.2-18.5-6.9-20.5-9-1.7-1.8-15-30.8-15.4-33.6-.7-4.4-.9-13-1.1-17.9-.5-12.2.6-24.4.5-36.6-18.8-11.7-39.4-20.3-58.6-31.4l-13.1-67.4-46.4.9-36.3-91.7-.2-2.3c6.7.3 9.7 6.8 15.7 10.8 19.1 12.8 34.2 19.3 57.7 16.1 20.6-2.8 26.4-11.2 48-1.7 16.1 7.1 19.4 16.7 31.2 25.8 13.2 10.2 17.5 3.6 25.9-7.1 6.9-8.8 25.8-41.6 27.4-51.6 1.7-10.7-3.8-11.2-13-10-8.6 1.1-48.4 15.1-51 14.6-1.7-.4-12.3-7.9-16.5-9.6-20.3-8.4-48.8-11.8-67.2-20.8-14.3-6.9-12.2-21.7-18-34.5l21.5-4.1c1.9.3 10.9 13 13.5 15.6 13.7 13.8 58.3 32.8 77.6 33.5 3.4 0 6-1 8.9-1.1h20.5l-34.7-16.8c-19.1-10.8-48.2-33.1-61.8-50.2-6.2-7.7-7.1-18.3-10.5-27.5-6-16.6-14.4-32-25-46 1.3-9 6.5-19.6 7.8-28.2 2.8-19.1 3.8-27.8 12.1-45.9 49-107.6 188.2-173.2 298.2-196.8 27.9-6 50-5.8 77.9 0 118 24.3 244.7 92.5 307.8 198.2 1.9 3.1 5.2 12.6 6.5 14h-.4ZM1326 1307c15.3-11.2 31.9-21.8 44.5-36 6.1-22.7 14.6-45.7 13.5-69.6l-2.1-29.5c-1.4.2-1.9 1.8-2.5 2.9-16.8 30.8-29.1 66.4-47 97l-62.3 38.7.4 3.3c5.9 15.3 32.8 49 33.4 63.6.2 4.3-2.2 10.7-.7 15.7 1.1 3.6 11 9.8 15.2 9.4l62.4-18.5c8.3 1.2 16.7.9 25.1.6l36.7-78.8.3-3.3c-14.1-10.8-29-21.4-44.3-30.7l-2.8 11.8c-13.3 5.6-27.2 16.2-40.4 21.1-6.7 2.5-16.4 2.8-23.8 3.2-1.2 0-5.6.7-5.5-1Zm-248 20c-5.1-10.6-9.9-23.3-16.6-32.9-6.5-9.4-23.8-30.4-31.9-38.1-4.2-4-7-3.9-11.1 0-7.7 7.4-27 30.2-32.9 39.1s-10.5 22.1-15.6 31.9zm200.7 70.7c1.4-1.6 8.8-25.5 9.1-28.5.4-4.4-3.5-11.7-5.6-15.9-3.8-7.3-18.5-32.7-23.6-37.4-5.7-5.3-8-1-14 1.1-11.8 4-23.6 7.8-35.5 11.5-1.3 1.1-1.1 1 0 2 3 2.6 6.7 4.5 9.4 7.6 6.8 8.1 12.2 22 18.6 30.9l3.1-12.4c.8-3.8 7.7-7.4 10.8-5.4 1.2.8 3.6 11.4 7.9 12.7 6.1 1.8 8.2-5 11-5.7 4.2-1 10.3 3.7 10.1 8.1-.5 11.3-14.6 20.3-25.1 18.6-1.1-.2-10.1-4.8-8.7-1.3 3.1 2.8 14.4 21.8 16.7 22.4 2 .5 14.5-6.5 16-8.2h-.2Zm-550.4 99c1.6 2 8.2 6.3 10.7 7.8 14.8 8.8 31.7 13.8 46.9 23.1 16.8 10.2 40.2 33.1 59.6 33.5 2.3 0 8.7-1.2 9.4-3.7.8-2.7-13.5-27.5-16.4-30.3-7.3-7.2-27.5-17.2-37.2-23.8-15.2-10.3-50.3-39.1-67.9-39.2-10.5 0-8.7 28.1-5.1 32.7Zm591.4-30.4c-6.1-6-24 4-30.4 7.6-16.3 9.1-30.8 21.3-46.2 31.8-9.3 6.4-25.4 13.9-33.1 20.9-3.1 2.8-16.2 24.5-16.9 28.2-1.1 5.3 6.2 6.5 10.3 6.3 16.8-1 25.6-11.2 38.2-19.8 8.3-5.7 17.3-12.1 26-17 11.7-6.6 47.1-19.2 52.7-29.3 2.4-4.3 2.8-25.2-.7-28.6ZM1126 1664c-12-2.7-20.7 6.6-31.6 7.9-5.7.7-12.2-1.2-16.6-.7-7.1.8-22.9 12.1-31.2 14.9-14.8 4.9-30.2 4.7-45.1 0-8.8-2.8-23.9-14.1-31.2-14.9-4.4-.5-10.9 1.4-16.6.7-11-1.3-19.9-11-31.6-7.4 0 7 23.7 23.4 30 27 12.5 7.1 59.7 26.8 72.5 26.6s59.8-19.7 72.2-26.9c3-1.8 33.6-23.3 29.3-27.2z" class="shading" data-original-prefix="shading" opacity=".2"/><path id="outline-jaw" class="outline"  fill="#000" d="M1378 1122c.3-3.9.6-9.1 5.7-9.8 7.8-1.2 8.7 12 9.3 17.3 3.8 33.8 2.1 69.1 8.3 102.7 2.2 11.9 3.2 13.8 12.3 21.7 14.8 13 33.2 22.8 47.5 36.5 2.6 2.5 11.8 12.2 12 15.1l-66.1 156.3-46.9-24.9c-1.8 6.1-5.4 12.6-6.7 18.8-4.1 19.2 0 41.1-2.2 59.8-.4 3.4-10.5 17.5-13.3 18.7-6.4 3-16.2-1.8-24.7 3.3-23.8 14.4-17.9 48.6-27.2 68.8-7.8 17-37 48.2-52.9 58.1-1.6 1-2.9 1.9-4.9 1.6 1.1-14.8 3.1-34.9-3.9-48.6-.4-.8-.4-3.2-2.1-1.4-.7.7-3.6 13.8-6.6 17.9-5.8 7.9-20.7 8.9-29.4 12.6-16.7 7-14.3 32.7-27.7 43.3-19.3 15.2-61.2 32-85.1 38.9-10.8 3.1-38.9 11.3-48.7 11.3-15 0-63.4-15.1-78.8-21.2-11.1-4.4-55.3-26-60.6-34.4-6.9-11.1-8.5-31.6-21.5-37.6-14.5-6.6-26.4-2.4-33.9-20.1-1.1-2.5-2.5-10.3-2.8-10.7-1.3-1.6-1.8.4-2.2 1.3-6.9 12.5-5 34.9-3.8 48.7-2 .3-3.3-.6-4.9-1.6-15.7-9.8-48.9-44.4-54.2-61.8-6.2-20.6-5.3-52.1-25.9-65.1-8.2-5.2-18.3-.3-24.7-3.3-.9-.4-12.2-14.2-12.7-15.3-2.1-5.2-.2-29.6-.5-37.4-.4-9.1-2-18.5-3-27.5-4 1.6-7.6 4.7-11.9 5.6-2.8.6-5.6.7-8.5.3-4.7-.6-27.4-9.9-32.6-12.4-1.3-.7-2.7-1.2-3.5-2.5-2-33.7-22.2-63.7-44-88-2-4.4 2.1-14.5 3.7-19.2 6.2-17.8 15.6-36.4 25.7-52.3 3.2-5.1 14.2-22 17.9-25.1 5.5-4.4 9.8 3.3 14.6 6.6 1.6 1.1 12.7 7.8 13.5 7-2.9-7.2-9.4-11-13.8-17.7-4-6-15.9-26.4-15.8-32.6s5.4-17.7 6.5-25.3c.5-3 1.1-8.8 1.2-11.8.2-6.5-3-17.5 1.3-22.2 1.2-1.4 12.8-6.5 14.1-6.2.9.2 5 11.2 10.5 7.8 2.3-1.4 1-34.7 0-39.9.3-.3 7.6 1.8 8 2 1.8 1.1 7 8.1 9.8 9.7.5 8.4 3.4 20.7 1.1 28.7-2.8 10.1-17.5 14.8-21.2 22.8-1.2 2.6-6.4 25.9-6.7 29.3 0 1.2-.2 2.4.2 3.7 4.8 10.3 13.7 19.4 18.7 29.3s9 33.8 15.5 40c5.3 5.1 14.5 7.1 21 10.5 7.5 4.1 15.7 10.7 22.7 15.8-11.3-1.3-47.2-5.2-54.5-13-3.3-3.6-5.7-15.7-9.6-17.4-2.6-1.2-6.2-.2-9.2-.8-7-1.2-10.7-7.9-18.5-1.5-6.6 12.5-14.3 24.3-20.4 37.1-7.4 15.4-14.8 25.1-4.8 41.2 5.3 8.6 23.3 26.7 25.6 34.4 2.5 8.6-2.7 28 2.9 34.1 6 6.6 20.6 4.5 27.8.8 10.6-5.4 8.7-9.9 14.3-18.7 5.2-8.2 19.7-23.1 28.9-26.2s13.4 8.6 15.6 15.5c7.3 23.8-.2 34 22.5 51.5 11.6 8.9 33.3 20.1 47.8 17.9 8.5-1.2 21.1-6.6 27.2-12.8 7.2-7.5 8.8-24.6 24-14 15.8 11 30.3 30.1 46.6 41.4 20.5 14.3 77.5 32.5 102.5 34.6 37 3 105.5-17.1 134.5-40.5 11.5-9.3 21.6-20.6 33-30 4-3.3 11.6-11.3 17-8 .7.5 7.5 12.5 9.2 14.8 3.3 4.7 11.5 16.1 17.4 16.7 7.4.8 31.3-15.5 40.2-17.2 8.1-21.2 17.3-42.1 23.5-64 2.8-9.9 8.4-24.8 3.8-34.3-2.1-4.2-21.3-33.6-24-36-3-2.7-9.6-5-13.5-6.5-3.3-1.2-19.8-5.2-20.5-6-1.5-1.4.4-1.7 1.3-2.2 1.3-.7 11.6-5.7 12.3-5.8 2.6-.4 25.4 6.8 27.4 8.5s8.6 15.3 11 19c5 7.6 19.5 25.4 20.8 33.2.4 2.5.5 4.9-.2 7.3l-26.5 74.9c22.1-8.1 42.1-21.6 63.6-30.8 4.1-1.8 12.4-6.1 16.3-4.6 4.7 1.7 16.6 11.3 22.4 14.6 2.4 1.4 18.7 10.5 19.7 9.8l48.1-125.5c-.2-2.1-12.6-9.7-15.4-11.7-13.3-9.9-23-17.3-37.4-25.6-7.1-4.1-7.5-7.8-8.3-15.7-2.2-22.8-2.4-46.1-4-69-1.5-20.8-6.3-45.1-5-65.5h-.7Zm-649 280c-5.9.4-11.3 6.2-14.4 11.1-12.8 20.4-.6 26.3 1.3 45.5 1.3 13.2-3.2 33.5 4.7 44.3 5.3 7.3 21.6 10.7 30.1 14.9 3.6 1.8 23 13.2 24.8 15.2.4.4 3.3 5.3 3.3 5.6 0 .8-3.5 12.2-3.8 15.8-1.9 24 4.5 52.9 21 71l5 4.5c.9-4.6-1.1-9.2-1.1-13.5 0-12.5 8.2-24.3 10.1-36.5 23.5 5.4 36.4 28.6 51.4 45 11.3 12.4 23.8 14.5 34.1 23.9 6.5 5.9 11.9 15.9 17.5 22.5 14.6 17.4 20.2 23.3 41.3 32.7 29 13 50.6 21 83.2 18.9 16.8-1.1 61.8-19.2 76.4-28.6 16-10.4 26.2-34.2 40.1-45.9 10.6-9 21.7-10.9 32.5-22.5 15.6-16.6 28.5-40.5 52.5-46 .8 9.9 6.9 18.2 8.7 27.8 1.5 7.6.3 13.6.3 21.2 7.8-5.3 15.2-16.8 18.8-25.6 5.4-12.9 8.1-33.2 7.2-46.9-.2-3.4-3.8-17.5-3.5-18.4.6-1.7 3.6-5.7 5.2-6.9 4.5-3.4 17.3-10.6 22.7-13.3 11.7-5.9 31.5-8 33.6-23.4s-.7-31.7 3.8-48.2c1-3.6 5.3-8-1.4-5.4-30.7 11.8-63.4 35.5-93.6 46.4-10.1 3.6-23.8 2.7-32.8 7.2-6.8 3.5-11.5 12.3-16.4 17.6-16.2 17.4-41.8 25.6-65 28-69.4 7-135.6 6.9-205 0-21.7-2.1-46-9.9-62.5-24.5-5.9-5.2-10.7-15.4-19.3-15.2-3.9 0-8.2 3.3-11.2 3.7-5.5.6-22.8-12.9-28.7-16.2-15-8.4-31.4-14.8-46-24-2.8-1.8-16.7-11.4-17.8-13.2-2.8-4.9.2-12 0-17.1 0-10.4-4.3-21.6-7.1-31.5" class="outline" data-original-prefix="outline"/><path id="outline-jaw1" class="outline"  fill="#000" d="M1253.7 1342.2c12.9-2.4 29.1 10.8 24 24-3.6 9.3-14.2 17-24.2 12.8-15.8-6.5-17-33.6.3-36.8zm12 9.1c-9.3-7.8-20.1 5.1-12.2 15.7s21.4-8 12.2-15.7" class="outline" data-name="outline-jaw" data-original-prefix="outline"/><path id="outline-jaw2" class="outline"  fill="#000" d="M1313.7 1382.2c20.2-4.4 22.1 39.9-4.2 35.7-17.9-2.8-9.8-32.7 4.2-35.7m.9 9c-3.6.7-12.7 16.2-2.9 17.7 9.1 1.4 10.8-19.2 2.9-17.7" class="outline" data-name="outline-jaw" data-original-prefix="outline"/></g><g id="03_Mouth" data-trait="OG"><path id="fill-muzzle" class="fill"  fill="#fff" d="M1125 1622c-3.4-2.3-6.5 6.6-8 8.5-3.7 4.7-17.7 19.6-23.5 19.5-2 0-5.3-4.8-7.8-6.2-7.4-4.3-19.1-5.3-26.8-1.4-4.2 2.2-10.1 9.4-13.4 9.7-7.7.5-10.7-10.3-17-11.2-2.3-.3-9.7-.3-11.5.6-3.2 1.4-8.9 10.8-13.7 11.3-3.1.3-10.3-8.4-13.4-10.2-6.5-3.8-16.5-3-23.5-.6-4.3 1.5-10.5 8-12.8 7.8-5.8-.5-18.9-14.5-22.7-19.3-1.6-2-2.1-4.7-3.5-6.4-5.4-6.8-5.6 3.9-7.6 7.3-9.4 15.7-21-13.3-24.8-18.9-2.4-3.5-7.2-5.7-10-9-9.7-11.6-6.4-27.5-10.3-40.7-1.7-5.8-11.6-19.5-14.9-27.1-10-22.6-12.3-43.5-10.8-68.2-2.4-7.1.4-27.9-4.5-32.5-2.1-2-6.1-2.7-8.5-4.5-5.9-4.5-12.8-32.2-11.9-39.8 1.1-9.4 12.1-25.4 18.4-32.6 12.3-14.3 37.4-24.6 56-26 4.8-.4 28.1 1.1 29.5.5s5.1-5.4 7.1-6.9c8.7-6.5 17-9.5 27.7-11.3 3.7-.6 7.6.4 11-1 3.1-1.3 11.4-13.2 17.3-16.7 10.5-6.1 38.9-5.7 51.5-4.6 5.7.5 13.4 3.6 18 7 3.7 2.8 11.2 13.2 13.8 14.2 3.3 1.4 7.3.4 11 1 8.9 1.5 16.5 3.9 24.1 8.9 2.7 1.8 9.7 8.9 10.7 9.3 1.3.6 23.9-.9 28.5-.6 16.1 1.1 33.8 7.8 46.8 17.2 12.1 8.8 30.2 32.8 28.7 48.3-.4 4.3-7 26.5-9.2 29.8-3.6 5.6-10.6 4.5-13.7 10.3l-3.2 43.8c2 20.7-2.7 38.4-11.1 56.9-3.2 7-11.5 17.9-13.4 23.6-4.4 13-.9 27.8-9.6 40.4-2.9 4.2-8.2 6.2-10.8 10.2-1.6 2.3-2.2 5.7-3.8 8.2-2.8 4.2-10.6 16.7-16.2 14.9-7.1-2.2-6.8-12.8-8-13.6h-.2Z" class="fill" data-original-prefix="fill"/><path id="fill-teeth16" class="fill"  fill="#fff" d="M995.3 1525.7c11 9.5 17.2-6.6 23.2 6.3 6.5 14.1 3.7 38.4-1 52.9-.7 2.1-7.1 16.9-8 17.1-1.2.3-3-.4-4.2-.9-12-5.1-31.7-18.1-39.1-28.9-10.6-15.5-6.4-42.9 6.8-55.8 1.3-1.3 9.1-5.6 10.4-5.3 1.5.3 9.4 12.3 12 14.5h-.1Z" class="fill" data-original-prefix="fill"/><path id="fill-teeth15" class="fill"  fill="#fff" d="M1039.1 1601.9c-.8-.5-7.5-16.1-8.1-18.4-4.1-13.8-6.5-36.9-1.3-50.3 4.6-12 8.1-4.3 15.8-4.2 9.5.2 17.3-18.2 20.8-17.9 1.2 0 8.5 4.2 9.7 5.3 6.3 6.2 12.2 22.3 13 31 2.4 28-20.3 39.6-41.3 50.7-2 1.1-5.7 5.5-8.6 3.7Z" class="fill" data-original-prefix="fill"/><path id="fill-teeth14" class="fill"  fill="#fff" d="M904 1461c0 2.2-1.1 3.8-.8 6.2.2 1.8 7.1 22 8 23.1 3.9 5.1 11.2 3.2 16.7 3.8 4.9 13.5-4.2 23.8-8.6 35.6-2 5.3-8.7 33.1-12.8 34.2-1.8.5-6.8-9.1-8.3-10.7-10.3-23.9-15.3-58.4-2.6-82.2.6-1.2 7.1-11.6 8.4-10.1Z" class="fill" data-original-prefix="fill"/><path id="fill-teeth13" class="fill"  fill="#fff" d="M1144 1564c-2.1 1.4-6.1-7.1-6.8-8.7-3.2-7.9-4.4-17.4-7.5-25.5-4.3-11.6-13.6-22-8.6-35.6 4.8-.6 12.3 1.2 15.9-2.9 1.3-1.5 8.1-20.6 8.6-23.2.3-1.8-1.4-7 .9-6 6 2.7 13.7 26 14.4 32.6 1.4 13.9-2.9 45-9.3 57.4-.8 1.5-7 11.6-7.6 11.9" class="fill" data-original-prefix="fill"/><path id="fill-teeth12" class="fill"  fill="#fff" d="M1093.1 1644.9c-2.9-1.8-2.4-28.5-2.1-33.4.7-10.5 5.2-31.2 8.9-41.1 1.1-2.8 2.4-1.4 4.2 0 12.2 9.6 21.1 44.8 12.8 57.9-1.9 3-15.6 14.9-18.9 16.1-1.3.5-3.8 1.1-4.8.4Z" class="fill" data-original-prefix="fill"/><path id="fill-teeth11" class="fill"  fill="#fff" d="M949 1569c5.5 22 11.1 44.4 9 67.5-.5 5.2-.9 10.3-7 8-3.4-1.3-17.5-13.4-19.5-16.5-5.8-9.2-1.4-31.3 2.7-41.2 1.2-2.9 11.3-21 14.8-17.7Z" class="fill" data-original-prefix="fill"/><path id="fill-teeth10" class="fill"  fill="#fff" d="M881.7 1478.3c3.1 2.8-2.7 21-2.8 26.2 0 5.9 2.6 12.4 3.1 18 .2 2.1.7 24.5-.5 24.5-1.5.2-2.1-1.1-2.9-2.1-15.6-18.9-34.8-51.8-17.4-75.3 6.5-8.8 10.5 2.1 14.9 5.8 1.8 1.5 4.9 2.1 5.7 2.8Z" class="fill" data-original-prefix="fill"/><path id="fill-teeth9" class="fill"  fill="#fff" d="M1185.7 1467.3c1.9 1.6 7.8 13.7 8.2 16.2 3.2 20.7-9.8 47.3-23.9 61.9-.9 1-1.3 1.9-3 1.5.5-8-.7-16.6 0-24.5.4-5.4 3.1-12.3 3.1-18s-6.1-23.4-2.8-26.2c.6-.6 2.5-.6 3.8-1.7 3.4-3 10-13.1 14.7-9.3Z" class="fill" data-original-prefix="fill"/><path id="fill-teeth8" class="fill"  fill="#fff" d="M1018 1613v16.5c0 .9-10.8 13.2-11.9 14.1-6.3 4.8-8-2.6-10.6-5.5-5.5-6-17.9-.4-24.4-5.6-1.2-.9-4.1-8.8-4.1-9.9v-22.5c12.9 1.7 28.3 17.5 41.4 15.9 3.5-.4 6.1-3 9.6-2.9Z" class="fill" data-original-prefix="fill"/><path id="fill-teeth7" class="fill"  fill="#fff" d="M1031 1613c6.3 1.3 9.1 4 16.1 2.6 10.6-2.2 24.3-14.8 33.4-15.6 2-.2 1.4 0 1.2 1.3-.8 6.5 2.4 27.5-4.4 31.6-7 4.2-18.8-.3-23.4 4.6-2.1 2.2-3.6 8-8.4 7.6-1 0-14.6-13.5-14.6-14.6V1613z" class="fill" data-original-prefix="fill"/><path id="fill-teeth6" class="fill"  fill="#fff" d="M1102.5 1494c3.3-.8 4.5 6.9 5.3 8.7 5.6 12.1 13 24.8 13.3 38.8.2 9-16 29.8-21.3 16.2-4-10.4-4.1-44.8-1.1-55.5.4-1.6 2.4-7.9 3.8-8.2" class="fill" data-original-prefix="fill"/><path id="fill-teeth5" class="fill"  fill="#fff" d="M937.3 1559.7c-1.9-1.6-7.8-10.5-8.5-13-3.6-12.1 6-31.3 11.4-42 1.6-3.1 3.3-14.7 8-7.4 5.5 8.5 4.3 41.5 2.7 52.1-1.2 7.7-3.6 18.7-13.6 10.3" class="fill" data-original-prefix="fill"/><path id="fill-teeth4" class="fill"  fill="#fff" d="M917 1563c-1.8 13.4 2.9 27.5 2 40.5-.6 9-4.4 18.4-5.5 27.5-6.2-6-10.5-16.1-11.4-24.6-.5-5.2.7-24.7 2.4-29.3.6-1.6 10.5-16.2 12.4-14.1Z" class="fill" data-original-prefix="fill"/><path id="fill-teeth3" class="fill"  fill="#fff" d="M1135 1631c-.4-8.9-4.4-17.8-5.1-26.5-1-13.8 3.7-27.6 2-41.5 2.2-2.4 11.9 13 12.5 15 2 6.6 2.6 27.4 1.2 34.3-1.3 6.3-5.5 14.9-10.8 18.7z" class="fill" data-original-prefix="fill"/><path id="fill-teeth2" class="fill"  fill="#fff" d="M1154.1 1604.9c-3.4-2-5.1-22.3-3.9-26.2.8-2.6 8.9-5.2 10.2-8.8l5.1-10.9c3.8 3.4 5.1 7.2 4.3 12.2-.7 4.2-5.4 22.7-6.9 26.2-.9 2.2-6.1 9-8.8 7.5" class="fill" data-original-prefix="fill"/><path id="fill-teeth1" class="fill"  fill="#fff" d="M885 1559c-.3 3.7 1.7 9.4 4 12.2s9.5 5.2 10 8.3c-2 8.4 1.6 19.2-5.7 25.4-3.6-1.1-6-4-7.4-7.4s-6.5-23.6-6.9-27.1c-.5-4.2 1.2-10.6 5.9-11.4z" class="fill" data-original-prefix="fill"/><path id="outline-shading-mouth2" class="outline"  fill="#000" d="M918 1443.5c.8 5.3 5.6 13.8 10.1 16.9 11.5 8.3 16.2-.3 22.4-9.4 2.5 5.4 3.4 11.5 6 17 1.4 2.8 5.7 12 7.5 5.5l4-11.5c1.6 7.5 6.3 15.4 11.5 21 4.3 4.7 18.8 15.4 24.6 9.6 2-2.1 8.3-17.9 10.8-22.2 1.2-2.2 7.8-13.8 9.7-13.3 1 .2 8.5 13.2 9.7 15.3 2.4 4.5 7.3 17.7 9.8 20.2 3.8 3.8 10.5.4 14.4-1.8 10.5-5.9 18.5-17.2 21.7-28.8l4.2 12.3c.3 1.2 1.9 2.4 2.8 1.7.6-.4 5.8-11.3 6.5-13 .8-2 2.8-12 4-12 6.8 10.7 12.9 18.4 24.5 7.5 8.6-8 9.3-23.8 7-34.5 3.5-3.1 21.1 16.1 26.6 16.9 9.1 1.4 17.6-11.8 19-19.9 3.5-20.5-12.9-39.2-30.9-46.2l-12.7-4.8c15.4 0 28.2 2.9 41.1 11.4 4.8 3.1 12.2 10.9 17.6 11.4 6.2.6 10.1-4.1 10-10-.4-19.3-25.8-38.1-39.7-48.8 15.4 2.4 34.6 11.8 45 23.5 7.8 8.8 19.1 25.1 19.1 37s-6.4 28.5-9.2 32.8c-3.3 5.3-11.7 5.4-13.4 10.6-.9 8.1-2.1 16.4-2.5 24.5-1.5 29 1.4 45.2-10.8 73.2-3.6 8.2-12.7 20.4-14.9 27.1-4.2 12.8-.7 26.4-9.1 38.9-3.2 4.8-8.4 6.7-11.2 10.8-1.7 2.5-2.4 6.1-4.2 8.8-4.5 6.7-14.6 23-21.6 8.9-1.6-3.3-1.3-12.9-6.7-6.2-1.4 1.7-1.9 4.4-3.5 6.5-3.7 4.7-17.7 19.6-23.5 19.5-2.2 0-4.5-4.1-6.6-5.4-7.9-5-21.1-6.3-29.2-1.4-7.3 4.4-9.5 13.6-18.1 6.8-8.6-6.7-6.4-10.8-20.1-9-5.6.7-11.4 12.6-16.9 12.1-2.8-.2-11.4-11.1-18.5-12.6-6.3-1.3-17.5.7-23 4.2-2.6 1.7-4.1 5.6-7.5 5.4-5.7-.3-19.8-15.8-23.6-20.5-1.2-1.5-4.4-10.6-7.1-6.9-2.5 3.4-.6 9.9-7.2 12.7-7 3-14.9-11.2-18.1-16.4-1.2-1.8-1.2-4.3-2.6-6.4-2-3-6.8-5.4-9.5-8.5-10.4-11.9-6.7-27.7-10.7-41.3-.8-2.6-5.6-8.5-7.3-11.7-18.4-35.7-16.4-45.6-18.4-84.6-.4-7.7-.6-20.7-2.2-27.8-1.5-6.2-11.1-6.1-14.2-11.8-3.4-6.1-9.3-29.6-8.6-36.4 1.2-10.3 16.2-31.2 24-38 10.5-9.2 26.2-16.5 40-18.5l-21.5 17c-7.2 6.4-26.8 32-14.8 39.9 9 5.9 16.7-4.5 23.7-9.1 12.7-8.4 25.3-11.8 40.7-11.8l-17.3 7.2c-18 9.4-33.1 32.7-22.1 52.8 1.7 3.1 8.6 10.4 12 11.1 9.1 1.7 20.7-15.4 29.5-18 .6 6.4-.9 14.3 0 20.5zm-37.1 40.6c-12.3-.5-17.1-20.2-22.8 1.5-3.4 13 1.2 26.4 9.4 36.5 1.5 1.8 12.7 13.1 13.9 12.9.8 0 2.5-2.3 2.8-3.2 2.9-7.1-3.2-12.2-4.2-19.2-1.5-9.8 0-18.7.9-28.4Zm301.8-8.9c-3.2.8-6.3 6-8.8 7.3-2.1 1.1-7.2 1-7.8 3.2-.5 1.7 3 10.8 2.9 14.8 0 3-1.5 13.9-2.2 16.8-.9 3.6-3.9 5.7-3.9 10.2s1.4 7.1 3.7 7.4c1.9.3 15-14.4 16.8-17 5.7-8.5 9-18.8 7.3-29.2-.5-3-4.4-14.5-8-13.6Zm-284.8 10c-4-2.3-6.5 9.9-6.8 12.5-1.2 10.5 3 38 8.7 47.1 1.9 3 5.4 6.9 9.2 7.3 3.7-15.6 12.6-29.2 21-42.5-2.3-.4-1.7-2.9-2.7-3.5-1.5-.9-7-1.9-9.7-3.1-4.7-2.2-12-7.7-15.6-11.4-1.2-1.2-3.8-6.2-4.2-6.3ZM1139 1552c8.3-2 11.9-12.2 13.9-19.6 3.1-12.1 6.1-33.4 1.1-44.8-3-6.9-5.8 1.7-8.3 4.1-3.9 3.8-11 9.3-16 11.6-2.5 1.1-7.8 1.8-9.1 2.7-.7.5-.5 1.8-1 2.7-.3.4-1.7.4-1.6.9 0 1 7.9 12.3 9.2 14.8 4.8 8.8 9.1 18 11.8 27.7Zm-197.7 5.7c8.1 8.1 9.5 0 10.5-7.3.8-5.6 2.7-20.6 1.7-25.4-3.6-17.2-21.3-15.9-21.6 3.6 0 6.8 4.6 24.3 9.4 29.2Zm161.5-44.5c-5 1.3-8.5 9.3-8.8 14.2-.2 4 2.4 28.5 3.8 31.3 2.5 5 7.5 0 9.8-2.7 6.8-8.3 11.6-30.7 4.5-39.5-2.7-3.3-4.8-4.4-9.2-3.3zM1023 1544c-.7-.7-.8-7-5.1-9.4-8.9-5-21.8-.8-32-4-10.4-3.3-9.4-13.1-16.1 1.8-2.9 6.4-9.1 24.4-6.3 30.7 1.1 2.4 17.8 15.6 21.2 17.8s18.2 11.7 21.1 10c3.1-5.6 9.3-9.5 12.6-14.9 1.8-2.8 4.1-11.5 4.6-11.9 1.6-1.7 1.7.5 2.1 1.4 1.6 3.6 2.1 6.8 4.5 10.5 3.3 5.2 9.2 9.3 12.4 14.6 3.1 1.9 15.5-5.9 18.9-8.1 4.5-2.9 22.9-17 23.9-21.1 2.2-9.7-6.6-28.3-10.9-37.2-4.9 1-7.8 5.2-12.7 6.7-9.2 2.8-28.2-1.6-33.7 6.3-.9 1.2-2.6 8.9-4.5 7zm-136 18c-.7-.6-3.5 0-4.5.9-6 6.2 2.4 31.6 14.6 27.6 4-1.3 3.8-9.4 2.8-12.9-1.1-3.9-7.2-4.1-9.8-7.2-2.1-2.5-2.7-8.2-3-8.5Zm274.1 0c-.3.3-.9 6-3 8.5-2.6 3.1-8.7 3.3-9.8 7.2-1 3.4-1.2 11.6 2.8 12.9 13.4 4.4 20.2-24.5 14.1-28.1-.9-.5-3.5-.9-4-.4Zm-216.4 7.2c-1.5.4-5.1 4.6-6 6.1-3.4 5.6-5.6 32.3-4.8 39.3 1.3 10.9 15.2 18 19.5 3.5 1.7-5.6 2.6-21.4 2.5-27.6 0-1.1-5.8-19.7-6.5-20.5-1.2-1.4-3.2-1.3-4.8-.8Zm153.3-.1c.2 6.6-5.4 14.7-6 20.6-.5 4.5 1 25.3 2.4 29.4 4.2 12.1 16.9 7.3 19.1-2.9 1.1-5.2 0-16.8-.6-22.6-1-9.7-1.7-25.5-14.9-24.5m-180 1.9c-20.5 3.8-17 28.7-9 43 4 2.9 10.4-17 10.7-19.8.9-7.5-2.9-15.5-1.8-23.2Zm218 43c2.5 1.8 7.2-9.1 7.7-10.8 3.9-12.8 1.6-30.1-13.7-32.2.5 7.4-2.8 16.2-1.9 23.4.3 2.7 6.4 18.5 7.9 19.6m-148.2 10.2c1.4.8 4.8 8.6 9.5 11 11.1 5.8 20.2-6.4 20.7-16.7.8-13.7-7.2-7.7-16.5-8.6-8.4-.8-15-4.8-21.8-9.2-5.5-3.5-13.6-14.6-14.7-1.4-.5 5.1 1.4 7.5 1.8 11.2s-2 5.9.5 10.7c4.8 9.3 18 1.3 20.7 2.8zm93.1-31.1c-2.1-1.5-19.7 12.7-23.9 14.4-2.3 1-7.9 2.3-10.5 2.5-10.5.9-18.8-5.4-16.4 11.4 1 7.3 7.9 15.8 16 15.1 9.4-.8 11.9-11.6 14.6-12.4 4-1.3 12.3 5.7 18.9-1.1 4.3-4.4 1.3-8.4 1.5-12.5 0-2.3 1.9-4.8 2-8.1 0-1.9-.8-8.5-2.2-9.4Z" class="shading" data-original-prefix="shading" opacity=".2"/><path id="outline-shading-mouth1" class="outline"  fill="#000" d="M1041 1343c6.1.5 12.7-1 17.5-5 1.5-1.3.9-3.7 2.8-2.9 10.1 7.9 37.9 17.4 43.8 28.2 3.6 6.5 4.6 17.5-1.8 22.6-5.6 4.5-20.8 10.8-28 15-4.9 2.8-9.7 6.6-14.7 9.3-7.4 4.1-25.5 14.5-32.6 16.4-2.9.8-5.2.8-8.1 0-14.5-3.8-42.2-22.5-56.3-30.7-6.2-3.6-21.2-9.1-23.2-15.8-5.5-18.4 15.7-28.3 28.7-35.4 2.3-1.2 15.5-8.6 16.5-8.7 2.9-.3 4.2 2.9 6.7 4.2 4.2 2.3 10 3.2 14.7 2.8-.3-5.1-3.3-11.3-1.8-16.3.5-1.6 12.5-13.9 14.5-14.4 3.9-1 8.2-.3 11.6 1.9 1 .7 10.8 11.1 11.2 11.8 2.1 5-1.2 11.8-1.5 17" class="shading" data-original-prefix="shading" opacity=".2"/><path id="outline-mouth3" class="outline"  fill="#000" d="M888 1333c-.7 1.9-2.2 2-3.8 2.7-12.3 5.2-24 8.3-33.2 18.8-6.6 7.6-18.9 26-18 36 .3 4 7.1 25.8 9.2 28.8 2.7 4 6.1 4.9 10.8 4.7-1.4-9 4.2-18.1 9.6-24.9 2.2-2.8 21.9-22.6 24.4-20.1-1.7 6.5-8.8 10.4-13 15.5-8.1 10-12.3 23.6-9.5 36.5 1.2 5.4 11.2 26 15 30 .6.7 7.1 6.3 7.5 6.5 2.4 1.2 5.6-3.8 6.5-5.5 2.5-4.3 3.1-9.7 5-14 4.4-10.2 9.3-18.3 18.5-25-5 13.9-9.5 44.6 1.5 56.1 4.6 4.8 11 2.5 15 5.1 2.1 1.3 2.5 5.4 4.2 5.8s7-3.1 9.4-3.5c9-1.4 12.6 16.9 18.7 17.4 2.5.2 10.2-12 18.4-9.4 5.5 1.8 19.2 24.8 24.4 23.6 5.8-5.9 3.6-12.3 5-19 1.5-7.6 8.3-12.6 9.4-22.6.8-7.2-1.7-26.6-4.7-33.1-1.1-2.3-5.5-10.7-6.8-12.2-3.4-4-15-9.2-19.8-6.1l-4.2 11.1c-4.8-4.4-9.5-9.2-14.5-13.5-3.7-3.2-10-6.8-13-9.9-4-4.2-15.6-27.9-15.7-33.2 0-6.8 17.5-22.4 21-29 5.4-4.1 29.2-2.8 35.7.2 8.4 3.8 12.4 12.1 18.5 17.5 5.2 4.5 2.5-1.7 2.5-3.6s.9-3.2.8-4.8c-.2-5.4-6.7-9.2-9.9-13.1-2-2.4-5.6-6.2-7-8.2-.9-1.3-4.9-7.8-5-8.8-.2-2.6 9.1-11.7 11.5-12.4 3.6-1-.5 5.5-.5 6.6-.4 5.2 5.9 4.1 9.3 5.6 1.2.5 3 2.7 3.2 2.7s2.4-2.7 3.8-3.2c7.8-3.2 11 1.2 6.8-11.7 1.6-1.7 12.5 9.1 12.9 11.7.6 4.5-17.6 23.1-21.1 27.5l-.8 12.7c1.7.4 2-.7 3-1.5 8.7-6.7 12.6-16.8 24.9-19.1 5.5-1 25.6-1.3 29.8 1.8 3.4 6.7 20.4 21.8 21 28.4.4 4.3-10.8 27.3-13.9 31.7s-9.8 7.6-13.8 11.2c-5.3 4.6-10.3 9.8-15.5 14.5-2.2.9-1.4-5.6-2.2-7.7-3.4-8.6-19-1.6-22.7 3.8-.7 1-7.1 13.9-7.3 14.7-2.7 12.8-5.5 27.3-.2 39.8 1.5 3.5 4.6 6.8 5.8 10.2 2.5 7.2-.5 15.2 5.8 21.2 9.4-2.8 19.1-24.9 27.9-24 5.2.5 13.2 10 14.9 9.8 5.8-.5 9.3-18.7 18.7-17.4 2.4.3 7.6 3.9 9.3 3.4s2-4.8 4.8-6.1c3.8-1.8 9.4-.4 13.3-3.7 11.5-9.7 8.1-43.1 2.5-56 1.6-1.7 11.3 10.4 12.4 12.1 5.1 7.8 6.1 15.5 9.7 23.3 1 2.1 4.8 9.8 7.8 8.2.4-.2 6.9-5.9 7.5-6.5 6.8-7.5 16-30.4 15.4-40.5-1.3-22.7-10.7-22.7-21.5-37.5-5.3-7.2 2.8-2.4 6 0 11.8 8.6 28 25.5 26.5 41 11.6 1.1 13.6-11.4 16.3-20.2 4.6-15.6 5.3-18.8-3.1-33.4-8.2-14.3-16.4-22.7-31.5-29.5-5.8-2.6-13.2-3.6-17.7-7.8 15.9 1.8 34.5 6.4 49 13.5 8.3 15 22.1 26.8 28.1 42.9l-15.2 44.9c-.9 3.7-13 4.8-13.8 5.8-.6.8-2.2 17.2-2.2 19.4-.2 31.7 2.4 50.4-13.1 79.9-2.6 5-12 16.3-12.6 19.4-.9 4.6 0 10.4-.5 15.5-.9 8.4-5.8 16.4-6.7 23.4-.4 3.5 1.3 7.7.8 9.7s-10.7 8.6-13.2 9.9c-2.2 1.2-5.7 1.5-6.5 2-.6.4-5.2 10.6-7.2 13.2-2.2 2.8-13.6 14.5-16.9 12.4-.6-.4-5.9-11.8-7.1-13.3-2.2-2.9-2.2 2.1-3.2 3.8-4.6 7.3-24.8 27-32.8 29.2-1.7.5-3.3.7-5 .5 1.1-8.2 2.6-16.6-8-18.6-9.7-1.8-16.2 7.5-18.5 15.6-1.2 4.3-1.2 16.7-7.8 14.9-4.3-1.2-20.3-25.6-23.2-30.8-5.5 8.6-11.5 19.1-18.5 26.5-1.8 1.9-6.9 7.7-9.3 3.3-2.8-5.3-2.5-14.6-5.5-20.5-3.8-7.2-14-11.7-21.2-6.8-6.6 4.6-2.9 10-3 16.5-3.4 3.4-23.5-12.8-26.5-15.9-1.5-1.5-11.4-13-11.9-14.1-.7-1.4-.2-6.3-2.6-3.3-2.1 2.6-6 14.4-10.2 13.3-2-.6-12-10.2-13.7-12.4-2.1-2.7-6.6-12.8-7.2-13.2-.8-.5-3.8-.6-5.8-1.7-2.5-1.4-11.8-7.1-13-9-2.3-3.8.4-6.7 0-10.8-1-7.2-5.8-15.5-6.7-24.4-.5-5 .6-10.7-.6-15.4-1-3.9-7.9-9.8-10.7-14.3-10.4-16.9-15.8-37.5-16.8-57.2-.8-15.6 1.6-31.1 0-46.5-18.8 0-17.3-14.5-21.7-27.8-2-5.8-9-19.6-8.1-24.5.6-3.1 5-9.2 7-12.1 2.9-4.3 18.7-27.3 20.9-29.1 1.7-1.4 8.5-4.5 10.7-5.3 9.6-3.2 28.2-7.1 38.2-8.3v-.7Zm16 128c-1.4-1.5-7.8 8.9-8.4 10.1-12.7 23.9-7.6 58.3 2.6 82.2 1.5 1.6 6.5 11.2 8.3 10.7 4.1-1.1 10.8-29 12.8-34.2 4.4-11.8 13.5-22.1 8.6-35.6-5.5-.6-12.8 1.4-16.7-3.8-.9-1.1-7.8-21.4-8-23.1-.2-2.4.8-4 .8-6.2Zm240 103c.6-.4 6.8-10.5 7.6-11.9 6.4-12.5 10.7-43.5 9.3-57.4-.7-6.6-8.4-30-14.4-32.6-2.3-1-.6 4.2-.9 6-.5 2.7-7.2 21.8-8.6 23.2-3.6 4.1-11.1 2.3-15.9 2.9-5 13.6 4.3 24 8.6 35.6 3 8.1 4.3 17.7 7.5 25.5.7 1.6 4.7 10.2 6.8 8.7m-262.3-85.7c-.8-.7-3.9-1.3-5.7-2.8-4.4-3.7-8.4-14.6-14.9-5.8-17.4 23.5 1.8 56.3 17.4 75.3.8.9 1.5 2.3 2.9 2.1 1.2 0 .7-22.5.5-24.5-.5-5.6-3.2-12.1-3.1-18 0-5.2 5.9-23.5 2.8-26.2Zm304-11c-4.6-3.9-11.2 6.2-14.7 9.3-1.3 1.1-3.1 1.1-3.8 1.7-3.3 2.9 2.8 21 2.8 26.2s-2.6 12.6-3.1 18c-.7 7.9.4 16.5 0 24.5 1.7.4 2-.5 3-1.5 14.2-14.6 27.2-41.2 23.9-61.9-.4-2.6-6.3-14.7-8.2-16.2Zm-83.2 26.7c-1.4.3-3.3 6.6-3.8 8.2-3 10.7-2.9 45.1 1.1 55.5 5.3 13.6 21.4-7.2 21.3-16.2-.2-14-7.6-26.7-13.3-38.8-.8-1.8-2-9.4-5.3-8.7m-165.2 65.7c10 8.3 12.4-2.6 13.6-10.3 1.6-10.6 2.8-43.6-2.7-52.1-4.7-7.3-6.5 4.3-8 7.4-5.3 10.7-15 29.9-11.4 42 .7 2.4 6.6 11.4 8.5 13m58-34c-2.6-2.2-10.5-14.2-12-14.5-1.3-.2-9.1 4.1-10.4 5.3-13.2 13-17.5 40.3-6.8 55.8 7.4 10.8 27.1 23.8 39.1 28.9 1.2.5 3 1.2 4.2.9.9-.2 7.4-15 8-17.1 4.7-14.6 7.5-38.8 1-52.9-5.9-13-12.1 3.2-23.2-6.3h.1Zm43.8 76.2c2.9 1.8 6.6-2.7 8.6-3.7 21.1-11.1 43.7-22.7 41.3-50.7-.7-8.7-6.7-24.8-13-31-1.2-1.1-8.4-5.2-9.7-5.3-3.5-.3-11.2 18.1-20.8 17.9-7.8-.2-11.2-7.8-15.8 4.2-5.2 13.4-2.8 36.6 1.3 50.3.7 2.3 7.3 17.8 8.1 18.4ZM885 1559c-5.2 1.1-6.5 7.6-5.8 12.2s5.4 23.4 7 27c1 2.2 6.2 8.5 8.7 6.7 3.4-2.4 3.2-20.7 4.1-25.4-.6-3-7.8-5.5-10-8.3s-4.3-8.6-4-12.2m269.1 45.9c2.7 1.5 7.8-5.3 8.8-7.5 1.5-3.4 6.2-22 6.9-26.2.8-5-.5-8.8-4.3-12.2l-5.1 10.9c-1.4 3.6-9.4 6.1-10.2 8.8-1.2 3.9.5 24.2 3.9 26.2M917 1563c-1.9-2.2-11.8 12.5-12.4 14.1-1.8 4.6-2.9 24.1-2.4 29.3.8 8.6 5.2 18.6 11.4 24.6 1.1-9 4.9-18.4 5.5-27.5.9-13-3.8-27.1-2-40.5Zm218 68c5.2-3.8 9.5-12.5 10.8-18.7 1.4-6.9.7-27.7-1.2-34.3-.6-1.9-10.4-17.4-12.5-15 1.7 13.9-3.1 27.7-2 41.5.7 8.7 4.6 17.6 5.1 26.5zm-186-62c-3.4-3.2-13.6 14.8-14.8 17.7-4 9.9-8.4 31.9-2.7 41.2 2 3.2 16 15.2 19.5 16.5 6 2.4 6.5-2.8 7-8 2.1-23.1-3.5-45.4-9-67.5Zm144.1 75.9c1.1.7 3.6 0 4.8-.4 3.2-1.2 16.9-13.1 18.9-16.1 8.3-13.1-.6-48.3-12.8-57.9-1.8-1.4-3.1-2.8-4.2 0-3.7 9.9-8.2 30.6-8.9 41.1-.3 4.8-.8 31.5 2.1 33.4ZM1018 1613c-3.5 0-6.1 2.5-9.6 2.9-13.1 1.6-28.5-14.2-41.4-15.9v22.5c0 1.1 2.9 9 4.1 9.9 6.5 5.2 18.9-.4 24.4 5.6 2.6 2.9 4.3 10.3 10.6 5.5 1.1-.8 11.9-13.1 11.9-14.1v-16.5Zm64-13c-13.3 1.4-27.9 17.6-41.4 15.9-3.5-.4-6.1-3-9.6-2.9v17.5c4.1 2.4 11.4 14.9 15.4 14.5 5.4-.5 6.1-8.2 10.5-9.6 5.4-1.7 16.2 1.1 21-3 1-.8 4-9.7 4-11v-21.5Z" class="outline" data-original-prefix="outline"/><path id="outline-mouth2" class="outline"  fill="#000" d="M1011 1292c-6.2 1-21.6 9.8-26 14.5-2.9 3.1-3.9 7.2-7.2 9.8-18.9.8-35.9 5.2-50.3 17.8-.9-.2-.3-1.9-.5-2 1.1-8.8 19.3-26.2 27.4-25 3.5.5 2.6 4.8 10 4 10.8-1.2 17.8-10.7 19.4-20.7.4-2.5-1.9-5.2 1.2-6.7 4.7-2.2 21.7 4.7 26 8.5z" class="outline" data-original-prefix="outline"/><path id="outline-mouth1" class="outline"  fill="#000" d="m1122 1332-.5 3c-10.9-11.7-25.5-16-41-18-2.9-.4-6.9.7-9.5-.5-1.5-.7-4.5-7.4-6.5-9.5-3.4-3.8-14.1-10.6-19-12s-4.7-.4-8.6-2.9c4.2-4.1 21-10.8 26-8.5 3.1 1.5.8 4.2 1.2 6.7 1.9 11.3 12.7 24.5 25 19.5 4-1.6 2.6-4.3 9.2-1.6 10.8 4.4 18.3 14 23.6 23.9h.1Z" class="outline" data-original-prefix="outline"/></g><g id="04_Eyes" data-trait="starchild"><path id="fill-eyes1" class="fill"  fill="#fff" d="M1397.8 1136.8c-2 2-9.7 1-13 1.5-7.1 1.1-22.6 6.6-29.5 9.5-3 1.3-12.5 5.7-14.7 7.3-2.8 2.1-.6 13.2 1.3 15.4 2.1 2.4 13.1 3.5 16.6 3.5 16.5 0 61.7-4.5 75.8-11.2 6.5-3.1 14.3-11.3 20.2-15.8 9.6 20.3 19.3 40.7 27.2 61.7 2.4 6.5 7.7 18.1 8.8 24.2 1.9 10.4-6.3 43.1-8.8 55.2-3.3 16-7.3 31.8-10.7 47.8l-8.7-3.2-22.5-62c-2.6-4.4-6.8-6.9-12-5.5-23.6 11.4-47.3 22.9-71.1 33.9-3.4 1.6-7.3 1.3-9.7 4.2l11.1 113.6c-37.1-19.5-70.8-44.8-107.3-65.2-7.2-4-20.6-13.1-28.6-10.3-43.7 30.2-89.6 57-135 84.4l15.9-91.6c0-5.5 1.7-8.3-3.2-11.6-12.9-8.7-52.7-21.8-68.2-22.8-16.2-1.2-27.4 2.2-42.5 6.6-6.8 2-41.1 13.5-43.5 18.5-1 2.2-.6 6.8-.4 9.4l15.9 91.6c-45.4-27.4-91.3-54.3-135-84.4-8-2.8-21.5 6.3-28.6 10.3-36.5 20.4-70.2 45.7-107.3 65.2l11-113.6c-2.4-2.9-6.3-2.7-9.7-4.2-23.8-11-47.4-22.6-71.1-33.9-5.2-1.4-9.4 1.1-12 5.5l-22.5 62-8.7 3.2c-3.4-15.9-7.4-31.8-10.7-47.8-2.6-12.2-10.8-44.9-8.8-55.2 1.1-6.1 6.3-17.7 8.8-24.2 7.9-21 17.7-41.4 27.2-61.7 5.5 4.5 12.6 11.9 18.8 15.2 4.3 2.3 10.7 3.3 15.5 4.5 17 4 57.2 9.5 73.4 6 10.2-2.2 6.6-8.2 8.7-16.6-6.1-1.9-11.4-5.9-17.2-8.3-7.7-3.2-21.4-8-29.5-9.5-9.1-1.7-13.7 3.3-13.3-9.8.6-17.5 13.5-53.6 20.9-70.1 4.5-10.2 31-59 40.8-60 2.8-.3 6.6 2.3 10-.2 1.3-1 3.4-6 5-8 40.8-50.7 92.4-93.8 152-121 81.3-37 208.8-37.5 290-.3 59.1 27 110.6 69.4 151.3 119.7 1.6 2 5.5 8.8 6.4 9.5 3.7 2.7 8.8-.7 12.1.8 4.9 2.2 13.8 14.9 17.3 19.8 15.6 22.1 28.1 50.3 35.7 76.3 1.9 6.7 10.6 37.5 6.3 41.8h-.2Z" class="fill" data-original-prefix="fill"/><path id="fill-eyes6" class="fill"  fill="#fff" d="M935.4 1254.4c-4 3.9-18.4 16.2-18.4 20.9 7.6 25 14.5 50.2 20.5 75.6 3.6 15.3 9.2 34.6 11.2 49.8.4 2.8.3 5.5.2 8.2l-124.7-87.8-121.8 74.8c-2-1.2-1.7-3.5-1.6-5.5 8.5-40.5 19.1-80.6 28.9-120.8l-93.9-79.7 133-12.5 49.5-140.5 69.5 135.5c38 4.9 76 11.7 112 25-21.7 18.8-43.9 37.1-64.6 56.9h.2Z" class="fill" data-original-prefix="fill"/><path id="fill-eyes5" class="fill"  fill="#fff" d="m1412 1190-93.9 79.7 26.6 108.1c.3 3.2 4.7 17 .8 18.2l-121.8-74.8L1099 1409c0-2.8 0-5.5.2-8.2 2.1-15.1 7.6-34.5 11.2-49.8 6.1-25.9 13.7-51.4 20.3-77.2-1-4.1-23.1-23.9-27.8-28.3-17.8-16.6-36.6-32.1-55-48 36-13.3 73.9-20.1 112-25l69.5-135.5 49.5 140.5 133 12.5z" class="fill" data-original-prefix="fill"/><path id="fill-eyes4" class="fill"  fill="#fff" d="M1101.9 1310.9c-3.5 2.5-56.6-18.1-64.9-20.4-11.5-3.2-15.3-3-26.8.2-20.9 5.9-41.7 16.8-63.6 20.4-1.8-.4-6-26.6-7.4-30.5 6-7.7 11.3-11.8 20.1-15.8 11.5-5.3 56.6-22.7 67.1-21.7 9.8.9 63.7 20.6 71.7 26.4 1.3.9 10.6 10.4 10.7 11.2z" class="fill" data-original-prefix="fill"/><path id="fill-eyes3" class="fill"  fill="#fff" d="M1452 1162c1.5 1.1 11.9 31 13.3 35.2 4.8 14.9 8.1 30.2 11.5 45.5l-8.8 75.2c-3.6 0-5.3-5.3-6.3-8.2-5.1-15.5-7.4-34-12-50-.8-2.9-4.4-17.1-6.4-17.7-1.1-.4-2.3 0-3.4.4-32 12.5-61.7 30.3-93 44.5-.2-4.3-3.9-7.8 0-11.5 29.8-29.3 58.7-59.3 87-90l-2.3-1.6-34.7-7.9c10.3-1.1 39.2 2.7 46.6-4 1.7-1.5 6.6-11.4 8.4-10.1v.2Z" class="fill" data-original-prefix="fill"/><path id="fill-eyes2" class="fill"  fill="#fff" d="m651 1176-34.7 7.9-2.3 1.6c28.3 30.7 57.2 60.7 87 90 3.9 3.8.2 7.2 0 11.5l-73.6-36.9c-3.1-1.4-21-8.7-22.7-8.1-1.9.6-5.5 14.8-6.4 17.7-4.5 16.1-6.9 34.5-12 50-1 2.9-2.7 8.1-6.3 8.2l-8.8-75.2c3.3-15.3 6.7-30.6 11.5-45.5 1.4-4.2 11.8-34.1 13.3-35.2 1.8-1.4 7 9.1 8.9 10.6 7.7 6.2 35.8 2.2 46.1 3.4" class="fill" data-original-prefix="fill"/><g id="shading-eyes" class="shading" ><path id="outline-shading-eyes8" class="outline"  fill="#000" d="M952 1412c-3.4 0-6.9.2-9.9-1.6-29.4-22.9-59.2-45.3-90.1-66.1l.5-7.3c10.1-30.2 20.6-60.2 30.6-90.4 6.9-20.7 12.8-46.5 21-66 1.1-2.6 3.1-8.2 6.4-8.4 4-.2 14.9 2.4 19.8 3.2 16.9 2.8 33.4 6.8 49.8 11.7.6-.5-6.4-12.7-7.4-14.1-17-26.6-32.4-45.3-57.2-64.8-10.3-8.1-21.9-17-32.7-24.3-16.6-11.1-34.7-19.4-51.7-29.8-8.8 19.9-18.2 39.5-27.2 59.3-24.5 54.5-47.9 109.7-69.6 165.4-7.2 18.3-13.2 38.3-20.8 56.2-1 2.4-2.2 5.1-4 7l16.1-71-92.6-76.7v-6.3c38.8-4 77.5-10.4 116.5-13.1 9.3-.6 20.3 3.7 20.5-10l-54.4-14.9c-1.3-.7 0-3.1-2.2-5-6.5-5.3-25.3-13.8-33.7-18.3-5.6-2.9-12.5-2.1-2.8-7.4l15.1-28.9h33l59 34.5 26.1-78.3-84.6-32.7c-1.9-4 2.8-9.6 5.1-12.9 25.7-37.5 68.9-75.6 107.5-99.5 31.7-19.6 67.1-37 103.9-44.6-15.8 14.7-36.6 21.7-53.5 35-22.9 18.1-50.5 53.7-64.7 79.3-2.4 4.4-10.8 19.8-11.4 23.7-2.9 17.9 18.5 42 30.7 53.5 38.6 19.7 77.6 39.1 113.5 63.5 14.2 19.2 24.9 49.2 40 66.9 6.4 7.4 14 4.9 18.4 8.6 4.6 3.9 4.1 16.1 8.6 16.5 4.2.4 3.6-4.8 5-8 6.1-14.4 8.5-7.4 18.7-13.3 12.1-7 33-58.2 44.2-70.8 16.3-11.4 33.5-21.5 50.9-31.1 18-10 47.2-21.4 62.6-32.4s35.4-40.1 27.9-59.8c-10.7-28.2-48.8-76.6-72.4-95.6-17.4-14-38.3-20.9-54.5-36 29.4 5.8 57.6 18.5 83.7 32.8 47.9 26.3 95.2 65.5 126.7 110.3 2.5 3.5 9 10.9 5.3 14.7-3.2 3.3-24.9 8.2-31 10.5-7.8 2.9-15.1 7.2-22.8 10.2-10.2 4-21.1 6.6-31.1 11.2-15 31.6-29.2 63.6-43.1 95.6-25.6 59-48.1 122.9-75.6 180.4-1.6 3.3-2.9 6.8-5.7 9.3l5.6-25.4c1.3-5 9.2-29 8.5-31.6-.4-1.5-9-10.5-10.3-10.8-2.1-.6-9.2 3.8-11.3 5.4-.5 2 5.7 5.6 6.5 7.5 2.7 6.3-6 29-6.6 36.9-3.3.5-6.5 0-9.7-.6-5.1-.9-45.4-13.2-46.7-15.3-.5-.7-.6-1.4-.3-2.3l16.8-42.3c0-3.6-13.8-6.1-17-7.4-2.4 5.5-16.1 44.5-18.1 45.9-.5.4-10.3-1.7-12.9 0l20-48.6c0-2.3-6.6-10.7-8.7-11.2h-8.5c-2.8.7-6.3 7.6-9.4 9.7-5.5 3.7-14.4 4.3-20.3 7.7l-28.8 61.5c-6 1.6-11.8 3.9-18.2 2.9-.6-7.9-9.3-30.6-6.6-36.9.9-2.1 7.7-5.5 6-8.1-.7-1-9.5-5.2-10.8-4.8-1.3.3-9.9 9.3-10.3 10.8-.7 2.7 7.2 26.6 8.5 31.6 7.9 30.2 14.6 60.6 22.1 90.9v14.5h.1Zm262-355c-28.9 12.4-55.2 30.3-79.9 49.6-25.3 19.8-38.2 35.3-55.9 62.1-1.4 2.1-11.2 17.3-10.2 18.3 28.9-8.9 59.1-13.1 89-17.5 19.5-37.2 38.7-74.7 57-112.5m-133 175-32.7-28.9c-3.2-.8-5.2 3.1-7.4 4.3-6.3 3.5-11.4.5-17.4.5s-9.6 2.6-15.2.3c-2.2-.9-5.4-5.2-7.8-5.2s-29.8 25.2-33.5 29c2.1.2 4.1 0 6.2-.3 10.1-1.2 31.8-9.3 39.3-8.8 3.3.2 5.7 3.1 11 3.2 5.9 0 6.5-2.1 10.3-2.9 4.5-.9 20.2 4.3 26.1 5.5 7 1.5 14.1 3.3 21.1 3.3" class="shading" data-original-prefix="shading" opacity=".2"/><path id="outline-shading-eyes7" class="outline"  fill="#000" d="M1376 1124c-.3.4-7.4 2.6-9 3.5-8.1 4.2-26.1 12.6-32.3 17.7-2.4 1.9-.9 4.2-2.2 5l-54.4 14.9c0 14.1 12.9 9.1 22.4 10.1 1.2 0 6.3.4 5.6 2.3-21.5 51.2-41 103.2-61.1 154.9-.7 1.3-1.2 3.7-3.2 3.5-3.6-.3-14-10-18-9.7-3.2.3-25.4 18.2-26.7 16.8.4-6 2.1-11.8 4-17.5 18.3-55.7 43.5-114.3 64.3-169.7 1-2.7 4.2-7.7 4.6-9.5 1.2-5.8-6.6-18.7-4.6-22.1 17.9-9 35.3-22.8 53.1-31.4 3.2-1.5 4.4-2.5 8.1-2.9 9.1-.9 20.3.3 29.6.5 2.2 1.4 11 23.6 14.1 27.9 1.6 2.1 7.2 3.8 5.8 5.6h-.1Z" class="shading" data-original-prefix="shading" opacity=".2"/><path id="outline-shading-eyes6" class="outline"  fill="#000" d="M1348.9 1398.9c-1.2.7-7.1.2-8.8-.4l-75-48.1 59.5-173.3 88.8 10c2.5.8 2.3 6.7.6 8.3l-91.8 76.1 27.8 115.8c0 2.1.2 10.5-1.2 11.4v.2Z" class="shading" data-original-prefix="shading" opacity=".2"/><path id="outline-shading-eyes5" class="outline"  fill="#000" d="M1471 1321c-5.7.9-9.1-.9-11.4-6.1-5.5-12.6-8.7-37.7-12.7-52.3-.6-2.3-4.2-16.1-4.9-16.6-.5-.4-3.5 1.5-4 1l23-71 8.5 23 9.5 37.5c.3 28.3-6.3 56.2-8 84.5" class="shading" data-original-prefix="shading" opacity=".2"/><path id="outline-shading-eyes4" class="outline"  fill="#000" d="M703.9 1288.9c-.9.6-6.7.3-8.1 0l-53.3-26.8 8.6-43 52.4 53.1c3.6 2.4 2.8 15.3.4 16.7" class="shading" data-original-prefix="shading" opacity=".2"/><path id="outline-shading-eyes3" class="outline"  fill="#000" d="M600.8 1159.2c.3.2 2.5 4.8 3.3 6.2 1.5 2.4 4.7 3.6 3.7 6.9l-33.1 90-3.7 7.7c.2-5.4-1.7-11.2-2-16.5-1.8-32.1 13.5-64.8 24.1-94.4.3-.3 7.1-.4 7.7 0Z" class="shading" data-original-prefix="shading" opacity=".2"/><path id="outline-shading-eyes2" class="outline"  fill="#000" d="M1344.2 1288.8c-2.3-1.4-2.4-10.1-1.7-12.9 2.2-8.3 29-28.5 35-36.9l-13.1 42.9c-3.6 3-16.1 9.4-20.2 6.9" class="shading" data-original-prefix="shading" opacity=".2"/><path id="outline-shading-eyes1" class="outline"  fill="#000" d="M827.9 1326.9c-4.2-1.3-5.4-.2-8.9 1.5-12.4 6.1-23.6 15.8-36 22 24.4-46.5 45.1-95.1 65.5-143.5 7.1-17 15.2-44.4 23.8-59.2 1.1-1.9 2.7-3.2 4.2-4.7 2.9 6.7 14.3 21.5 13.3 28.2-20.2 52-41.7 103.6-61.9 155.7" class="shading" data-original-prefix="shading" opacity=".2"/></g><g id="outline-eyes" class="outline" ><path id="outline-eyes2" class="outline"  fill="#000" d="M705 1154c.3-1.7 2-11.9 2.6-12.1 16 .9 31.1 7 46.2 11.9.8.2 1.6.2 2.3-.3 1.6-1.1 11.6-30.8 13.5-35.6 11.8-29.2 24-61.4 37.3-89.7 2.8-6 5.4-14.6 13.1-15.3l27 46.6c13.5 3.6 23.7 12.9 35.4 19.6 19 10.8 40.8 19.3 59.7 30.3 11.1 6.5 13.7 12.6 19.2 23.8 6.6 13.8 11.8 29.1 17 43.4l41.8 15.2-41 45.5 15-4.5-12 11c6.7-3.3 23.4-6.7 28.5-11s7.4-20.7 6.5-27c2.8-.4 4.7 2.1 7.5 2.1s4-1.8 6-2.1c3-.5.4 4.3.5 6.5 0 2.9 5.5 19.8 7.3 21.3l28.7 10.2-10-9 11 1.5-40-44.5 42.5-16c6-13.6 10.3-27.9 16.7-41.3 3.3-7.1 8.7-18.5 14.9-23.1 9.1-6.7 30.7-16.1 41.9-22.1 19-10.1 38.2-19.7 57.1-29.9l27.5-46.6c7.2 1.2 9.8 9.4 12.6 15.4 13.3 28.3 25.5 60.5 37.3 89.7 4.7 11.5 8.7 23.4 13 35 1 1.4 2.3 1 3.8.8 6.9-.9 18.8-6.6 26.5-8.5 6.4-1.6 12.9-3.3 19.7-3.3.7 4 1.9 8.1 2.6 12 .6 3.1-.2 12.5 3.7 13.8 1.3.4 9.1 1.3 10.8 1.3 16 0 58.4-4.6 72.5-10.6 5.8-2.4 21.9-18.9 25.5-18.6.8 0 1.5.4 2 1.1 10.5 24.8 22.5 49.1 31.5 74.5 1.8 5 6.4 15.7 6.7 20.3.6 9.9-6.7 38-9.1 49.4-3.8 18.9-8.5 37.6-12.6 56.4-3.1 2.2-14.4-2.6-17.1-5.3l-24.6-65.4-2.6-.7-79.6 37.3 12.8 113.1c0 3.1-2 4.9-5 3.9-4.1-1.3-15.6-9.1-20.3-11.8-31.6-18.4-62.1-40.4-94-58-6.2-3.4-12.2-7.4-19.2-8.7-45.9 31-93.3 59.6-140.7 88.1l-3.7.8 18-107c-9.4-3.2-17.9-8.6-27.5-12.1-10.3-3.7-32.8-10.9-43.2-11.8-14.5-1.3-52.9 11.3-66.8 18-4.1 2-7.8 5.7-12.6 5.9l17.9 99.6c-.2 1.8 1.6 7.8-1.4 7.4l-143-88.9c-7 1.3-13.1 5.3-19.2 8.7-31.9 17.6-62.4 39.6-94 58-4.7 2.8-16.2 10.4-20.3 11.8-3 1-5.1-.8-5-3.9l12.8-113.1-79.5-37.3-2.6.7-24.6 65.4c-2.7 2.7-14 7.5-17.1 5.3-4.1-18.8-8.8-37.5-12.6-56.4-2.3-11.4-9.7-39.5-9.1-49.4.3-4.6 5-15.2 6.7-20.3 9-25.4 21-49.7 31.5-74.5 1.2-1.4 3-1.4 4.5-.5 6.6 4.7 15.8 14.9 23 18 6.7 2.9 26.6 6.4 34.5 7.5 11.9 1.6 37.9 4.1 48.8 1.8 5.3-1.2 4-9.5 4.7-13.7zm230.4 100.4c20.7-19.8 42.9-38.2 64.6-56.9-36-13.3-74-20.1-112-25L818.5 1037 769 1177.5 636 1190l93.9 79.7c-9.8 40.2-20.4 80.3-28.9 120.8 0 2-.3 4.3 1.6 5.5l121.8-74.8 124.7 87.8c0-2.8 0-5.5-.2-8.2-2.1-15.1-7.6-34.5-11.2-49.8-6-25.4-12.9-50.6-20.5-75.6 0-4.7 14.3-17.1 18.4-20.9h-.2ZM1412 1190l-133-12.5-49.5-140.5-69.5 135.5c-38 4.9-76 11.7-112 25 18.4 15.9 37.2 31.4 55 48 4.8 4.4 26.8 24.2 27.8 28.3-6.7 25.8-14.2 51.3-20.3 77.2-3.6 15.3-9.2 34.6-11.2 49.8-.4 2.8-.3 5.5-.2 8.2l124.7-87.8 121.8 74.8c3.9-1.2-.5-15-.8-18.2l-26.6-108.1 93.9-79.7zm-442.6-17.3c-9.6-13.8-18.1-28.8-29.4-41.2l-42.7-34.3L850 1065c4.5 9.4 9.7 18.6 14.8 27.7 11.2 20 23.2 39.5 34.6 59.4 23.7 6.4 47.1 13.8 70.3 21.8zm109.6.3 69.6-20.9 49.4-86.6c-33.1 21.6-66 44.1-94.4 71.6zm-428 3c-10.3-1.2-38.4 2.7-46.1-3.4-1.8-1.5-7.1-11.9-8.9-10.6-1.5 1.1-11.9 31-13.3 35.2-4.8 14.9-8.1 30.2-11.5 45.5l8.8 75.2c3.6 0 5.3-5.3 6.3-8.2 5.1-15.5 7.4-34 12-50 .8-2.9 4.4-17.1 6.4-17.7 1.8-.6 19.6 6.7 22.7 8.1L701 1287c.2-4.3 3.9-7.8 0-11.5-29.8-29.3-58.7-59.3-87-90l2.3-1.6zm801-14c-1.8-1.3-6.8 8.5-8.4 10.1-7.3 6.7-36.3 2.9-46.6 4l34.7 7.9 2.3 1.6c-28.3 30.7-57.2 60.7-87 90-3.9 3.8-.2 7.2 0 11.5 31.3-14.2 61-32 93-44.5 1-.4 2.3-.8 3.4-.4 1.9.6 5.5 14.8 6.4 17.7 4.6 16.1 6.9 34.5 12 50 .9 2.9 2.7 8.1 6.3 8.2l8.8-75.2c-3.3-15.3-6.7-30.6-11.5-45.5-1.4-4.2-11.8-34.1-13.3-35.2v-.2Zm-350.1 148.9 6.9-30.3c-.2-.8-9.5-10.3-10.7-11.2-8-5.7-61.9-25.4-71.7-26.4-10.4-1-55.5 16.4-67.1 21.7-8.8 4.1-14.1 8.1-20.1 15.8 1.5 3.8 5.6 30.1 7.4 30.5 21.9-3.6 42.7-14.4 63.6-20.4 11.5-3.2 15.2-3.4 26.8-.2 8.3 2.3 61.4 22.9 64.9 20.5" class="outline" data-original-prefix="outline"/><path id="outline-eyes1" class="outline"  fill="#000" d="M695 1149c-.5 3.2-1.4 5.1-5.4 4.7-3.2-.3-15.3-6.8-20.6-8.2-6.6-1.8-12.7-2.4-19.3-3.7-9-4.4-3-24.7-1.2-32.8 5.9-27.1 17.7-57.2 32.1-80.9 4.4-7.3 22.4-34.6 30.1-35.8 1.9-.3 5.9 2.7 7.2 1.7.3-.2.5-2.3 1.2-3.3 39.2-53 103.3-104.3 164.2-129.8s154.1-29.8 220.9-17.5c88.6 16.3 169.9 76.6 224.3 146.7.9 1.1 1.4 3.8 1.6 3.9 1.1.8 4.7-2.5 9.2-.7 10.6 4 28.1 32.6 33.9 43.1 9 16.4 17.2 36.5 22.5 54.5 2.8 9.6 10.8 38.7 7.5 47-2.6 6.6-9.8 4.4-14.6 5.4-10.5 2.1-20.7 5.9-30.3 10.7-4-.3-3.8-1.8-4.3-4.8-1-5-.9-10.9-1.6-16 7.3-4.7 15.2-8.3 23.4-11.1 1.2-15.8-7.3-32.2-14-46.2-3.5-7.3-7.7-15.2-11.7-22.3-2.6-4.6-12.2-22.3-15.1-24.9-1.4-1.2-1.7-1.3-3.5-1.5-4.7-.6-14.1-.2-19.1 0-16.1.8-32 3.5-47.5 8 11.2-12.3 27.1-20.9 42-28.1-3.7-19.6-19.7-36.2-34-49.5-46.6-43.4-138.5-93.1-201.7-101.3-80.3-10.4-144.1 5.6-214 43.7-32.5 17.7-93.8 58.5-110.9 91.1-1.5 3-6.6 13.3-4.5 15.5 9 5.4 19.4 10 28 16.1 1.2.9 14.6 11.2 13.1 12.4-21.8-6.9-45.1-8.9-68-7.5-3.8 1.8-26 44.1-29.2 50.8-4.8 10.3-15.4 32.2-12.9 43l22.9 10.8c.5 5.6 0 11.3-.7 16.8" class="outline" data-original-prefix="outline"/></g></g><g id="05_Right Ear" data-trait="ringer"><defs></defs><path id="fill-ear-right" class="fill"  fill="#fff" d="M1679.5 565c3.1.9 34.6 44.3 40.3 49.6l-18 48.1-77.7 9.2 14.5-26c5.3-3.9 21.9-4.9 25.6-9.4 1-1.2 7.7-19.7 7-20.5l-27.9-6.9-78.4 136.6c-47 29.7-93.4 60.4-141.4 88.6-7.7 21.6-11.8 46.3-20 67.5-2.3 6-4.2 7.9-8.8 12.2-14.9 13.7-33.9 28.4-50 41-14.6 11.4-29.9 22.1-44.9 33-14.5-5-29.7-8.6-44.1-13.9-21.8-8.1-59.9-34-73.3-52.7-6.9-9.5-19.8-33.3-22.7-44.3-.6-2.2-.7-4.2-.4-6.5 26.7-58 56.9-114.5 83.5-172.5l15.2-178.8 127.2-166.8 321.3-172.7c1.7-1 2.9-.8 4.7-.3 1.3.4 16.4 8.4 17 9.1.6.6 1.1 1 .9 1.9l-15.2 124.8c-12.1 41.8-20.6 84.8-30.6 127.2.4 1.2 1.3 1.4 2.4 1.6 7.2 1.3 40.6 3.2 44 6l20.1 33.9c.7 2.2-1 16.8-1.8 19.4-.5 1.8-2.8 2.7-4.3 3.7-9.6 6.8-24.9 16.3-35.2 21.8-1.8.9-3.4 2.4-5.6 2-1.5-.2-19.7-6.9-20.3-7.8l7.6-36-13.4 1.9-18.6 76.1c5.7 1 16.6-1.4 21.5 0h-.2Z" class="fill" data-original-prefix="fill"/><path id="fill-earing-rt2" class="fill"  fill="#fff" d="M1632 663c2.4-2.2 11.2-19.2 12.2-19.8 1.1-.6 4.4 0 6.2-.3 6.6-1.2 18.3-4.3 23.1-8.9 5.7-5.5 11-17.9 4.4-24.4-5.7-5.6-29.3-7-38.1-8.9-6-1.3-21-4.1-23.7-9.3-5.1-10 5.8-20.4 15.4-20.4s39.2 3.4 51.3 7.7c8.6 3.1 25.8 23 27.2 31.8 1.7 11-9.6 35.6-19.2 41.6-14.7 9.2-41.8 11.2-58.7 10.8v.1Z" class="fill" data-original-prefix="fill"/><path id="fill-earing-rt1" class="fill"  fill="#fff" d="M1689 523c1.1-2.7 1.7-10.3 3.5-12 3.5-3.4 31.6-5.5 18.6-19.5-9.8-10.5-31.3-5.4-44.1-3-4.5.9-19.7 5.8-22.2 5.4-6.7-1.1-11.5-9.6-10.5-16.1 1.4-10 18.9-17 27.6-19.5 23-6.5 38.7-3.7 60.2 5.2 12.2 5.1 20.9 7.2 22.1 21.9 1.4 17.4-1 21.7-16.7 28.4-5.1 2.2-35.2 11.9-38.3 9.1h-.2Z" class="fill" data-original-prefix="fill"/><path id="outline-shading-ear-rt" class="outline"  fill="#000" d="M1680 253c.3 2-.2 3.9-.7 5.8-8.9 34.3-34.7 54.4-52.5 84.5-29.1 49.3-53.6 104.6-49.8 163.2.9 14.2 7.4 30 2.5 43.5-2.1 5.7-5.9 11.8-8.2 17.8-3.3 8.3-8.1 18.6-6.2 27.3 1.1 0 2.2 0 3.3-.2 11.8-2.8 35-45.1 41.2-56.8 3.6-6.8 17.1-31.1 18.2-36.8 1.6-7.5.4-20.4 1.2-28.8s1.7-12.1 9.4-15.6c7-3.2 34.9-11.7 42.3-12.7 5.3-.7 31.7.6 36.2 2.3l37.6 25.5c2 3.3-.3 15.3-.5 19.5s.2 19.5-2 22c-.9 1-21.6 11-24.7 12.3-3.2 1.4-9 4.4-12.1 4.9-9.4 1.6-20.7.8-30.3 2.7-1.6 1-7.1 26-5.8 27.4 4.9 1.1 9.8 3.7 13.9 6.6l28 46-19 47.9-1.6 1.4-68.7 12.3-65.2 66.8-139 93c-9.9 21.5-17 44.3-27.5 65.5l-94.6 85.4c-2.1 1.4-4.4 1.3-6.8 1-12.9-1.2-50.1-14.6-61.9-21.1-9.8-5.4-40.8-28-48.1-35.9-.9-1-7.6-10.7-7.6-11.4 0-1.2 1.5-2.2 1.7-3.3 2.3-11.1 3.3-13 10.3-21.7 19.1-23.8 39.7-44.9 57.8-70.2 41.9-58.5 65.7-121.7 102.8-182.2 10.9-17.8 25.9-33.1 29.3-54.7 1.5-9.4 1.1-18.9 1.1-28.4l54 6.5c10.2 14.6 18 30.7 26 46.5.8.6 11.2-11.8 12-13.4 2-4 3.6-11.5 4.9-16.1 13.4-47.4 15.6-97.8 13.1-146.9 15.8-37.5 40.7-73 68.4-102.6 22.1-23.5 61.1-47.8 89.2-64.8 5.8-3.5 17.3-10.7 22.9-13.1 1.8-.8 3.3-1.4 5.4-1.1v.2Zm-3.2 202.3c-10.3.9-27.7 5.8-35.7 12.3-6.7 5.4-2 12.4 5.4 12.5 18.8-2.7 58.3-11.5 75.3-3.2 2.6 1.3 5.3 5.6 7 6.1 5.9 1.5 5.1-11.8 2.7-14.8-1.6-2-29.3-12.3-33.2-12.8-6-.9-15.3-.5-21.5 0zM1670 502c-13.7.1-27.5 2.6-41 1l-19 64c1.8 1.7 41.1-11.8 46.8-13.2zm24 127c6.7.2 11.7-.3 14.8-6.7 3.9-8.2 2.1-11.4-2-18.6-1.6-2.8-13.7-20.5-15.3-21.7-2.4-1.9-14.5-5-18.2-5.8-9.1-2.1-36.5-6.6-44.7-4.9-13.8 2.8-3.2 15.6 4.3 19.3 23.9 11.9 71.3-6.8 61 38.5Zm-423 338c.7.7 6.6-4.2 7.5-5 18.6-15.8 38.6-36.6 55.6-54.5 13.9-14.7 30.5-30.8 39.2-48.8 6.9-14.4 12.7-29.5 18.8-44.2 14.4-5.4 29.8-7.3 44.2-12.8 53.6-20.2 101.4-63 144.7-99.3l60.5-88.5v-3l-42.4-17.9c-14.3 34.9-32.3 69.5-54.3 100.2-11.7 16.4-21 23.3-37.9 34.1-31.7 20.2-61 22-95.4 34.6-22.9 8.3-30.6 9.9-43.7 31.3-22.8 37.6-40.8 76.8-67.4 112.6-4.9 6.6-15.6 17-18.8 23.2-1.6 3.1-11.9 36.4-10.6 37.9zm388.7-352.8c-2 .6-11.3 14.7-12.2 17.8 8-3.7 19.8-1.8 22.1-12 1-4.7-6.5-6.8-9.8-5.8Z" class="shading" data-original-prefix="shading" opacity=".2"/><path id="outline-ear-rt1" class="outline"  fill="#000" d="M1203 940c-1 2.3-3 .2-4.1-.4-11-5.7-17.6-8.7-25.3-18.7-9.8-12.8-17.3-28-27.4-40.6-.6-2.1 1.2-22 2-24.6.5-1.7 5.6-8.4 6.9-11 4.6-9 9.5-18.2 13.7-27.3 6-13.1 11.8-33.9 18.9-45 2.6-4 7.1-7.8 10-12 45.7-65.6 39.9-168 48.8-244.2 38.8-56.5 80.2-110.9 126.9-161.1 10.8-11.6 24.2-27.3 36.2-36.8 57.3-45.1 144.2-89 212.1-115.9 27.1-10.7 74.2-30.4 102-33 2-.2 4.9-.6 6.6.7 1.3.9 4.2 14.2 4.5 16.7 4.6 32 .2 83.8-2.9 116.9-.8 8.8-3.4 33.2-6.8 40.2-4.1 8.6-15.4 18.2-20 29-2.4 5.7-15.3 53.3-13.2 55.3 6.9-.5 13.4 2.2 19.7 4.8 10.6 4.4 26 13 36 19 8.9 5.4 15.7 8.8 18.1 19.9 10.8 49.3-27.4 63.5-67.4 70.1-2.4.4-13.7.8-14.3 1.2-.4.4-2.5 10.5-2.1 10.9 22.2-.6 34.2 18.8 43.2 36.3 10.9 21.4 5.9 31.6-2.7 52.6-10.4 25.3-16.7 34-44.3 39.7-18.8 3.9-38.8 4.9-58 5.5-8.2 14.6-17.6 28.4-28.2 41.3-29.3 35.5-70.2 67.2-110.3 89.7-18.8 10.5-28.8 10.7-42.1 29.9-15.2 21.8-20.8 40.5-31.1 63.9-5.5 12.6-19.7 19.4-29.9 28-9.4 7.9-16.4 16.7-25 25-4.4 4.2-22.9 23.2-26.2 24.8-20.3 10.7-52.9-3.5-72.4-12.4-4.1-1.9-11.9-5-13-9.5 24.3 10 45 11.5 68.3-1.2 45.3-24.6 93.3-80 105.3-130.7 1.9-8-1.7-7.6 6.1-13.9 24.6-19.7 60-33.5 86.6-51.4 43.1-28.9 89.9-90.1 114.2-135.8 1.5-2.8 9.9-18.5 8.5-20-13.2-.7-21-5.7-28-16.5-6.6-10.1-8.3-14.9-1.8-25.8 11.6-19.4 31.5-19.5 51.9-20.1 2.2-5.3 13.6-45.7 11.9-47.5-17.3 5.2-27.6 7.5-40-7.5-8-9.6-9.4-17-3.4-28.5 7.5-14.3 20.7-21.3 34.4-28.6 3.9-2.1 13.1-4.2 14.6-8.4 6.3-31.1 11.3-66.9 25.6-95.4 7-13.9 11.3-16.6 14.6-33.4 7.4-37.6 11.2-78 8.3-116.2-41.9 13.6-81.8 33.1-120.7 53.8-44.4 23.7-89.5 51.7-131.8 79.1-54.6 35.4-96.1 71.2-137.4 121.6-17 20.7-39.9 47.8-54.5 69.5-13.5 20.2-13.2 62.9-15.6 87.4-1.1 11-3 22-4 33-2.3 25.8-.7 63.8-9.8 87.2-8.6 22-21.8 49.2-32.3 70.7-6.5 13.3-16.1 27.1-22.1 40-6.3 13.7-9 29.6-15.7 43.3-3.2 23.3 12.8 49.9 27.9 66.4m486-417c3.2 2.8 33.2-6.9 38.3-9.1 15.7-6.7 18.1-11 16.7-28.4-1.2-14.7-9.9-16.9-22.1-21.9-21.4-8.9-37.2-11.8-60.2-5.2-8.7 2.5-26.1 9.5-27.6 19.5-.9 6.5 3.8 15 10.5 16.1 2.5.4 17.8-4.5 22.2-5.4 12.8-2.4 34.3-7.6 44.1 3 13 14.1-15 16.1-18.6 19.5-1.8 1.7-2.4 9.3-3.5 12h.2Zm-57 140c16.8.4 44-1.6 58.7-10.8 9.6-6 21-30.6 19.2-41.6-1.4-8.8-18.5-28.8-27.2-31.8-12.2-4.4-38.3-7.8-51.3-7.7-9.6 0-20.4 10.4-15.4 20.4 2.7 5.2 17.7 8 23.7 9.3 8.8 1.9 32.4 3.3 38.1 8.9 6.6 6.5 1.2 19-4.4 24.4-4.8 4.6-16.5 7.7-23.1 8.9-1.8.3-5.2-.4-6.2.3-1 .6-9.7 17.6-12.2 19.8v-.1Zm21-35c6.6 1.5 21.8-7.1 8.2-8.7-7.2-.8-7.1 2.3-8.2 8.7" class="outline" data-original-prefix="outline"/><path id="outline-ear-rt2" class="outline"  fill="#000" d="m1695 240-22.5 39c-48.9 30.3-87.3 71.3-110.7 124.3-14.5 32.8-25.8 88.9-11.3 122.7 1.2 2.9 6.7 10.6 6.3 12.3-21.1 26.6-32.9 59-41.6 91.5-2.4 8.9-8.5 47.6-11.4 51.6-2.7 3.7-14.2 13.2-18.4 16.6-14.8 12-38.3 27.6-55.4 35.6-2.5 1.2-5.2 2.5-8 2.5 2.8-6.9 6.8-13.1 9.5-20 11-27.9 12.1-62.7-8-87-11.8-14.3-18.7-10.9-25.3 4.8-9.5 22.7-13.4 49.6-13.9 74-42.8 42.2-76.4 95.5-104.5 148.6-12.4 23.3-33.8 63.7-30.8 90.2.6 5.4 4.2 10.1 5 15.5-2.4 2.5-27-19-28.8-22.7l2.3-31.3c45.3-56.5 66.2-125.3 105.1-185.9 11.6-18 28.4-31.6 37.6-51.4 8.3-18 20.6-75 17.4-93.7-.7-4.3-10.6-27.8-9.6-28.9 7.5 2.8 14.7 6.9 21.7 10.8 6.4 3.6 31.7 17.7 34.8 22.2 3.4 5 10 27.9 12 35 2.3 8.3 6.6 35 11.4 39.5 13.2 12.3 30.8-13.9 36.2-23.9 25.8-47.2 33.3-96.7 25.7-150.1-1.2-8.7-7.4-28.3-6.7-35.9s16.9-39.6 21.3-47.8c22.4-41.7 46.9-64 80.1-96 8.8-8.5 21.4-24 30.5-30.5 5.6-4 14.3-6.6 20.3-10.7 3.6-2.5 26.3-23.9 29.7-20.8 0-.1 0 0 0 0Z" class="outline" data-original-prefix="outline"/></g><g id="06_Left Ear" data-trait="notched"><path id="fill-ear-lft" class="fill"  fill="#fff" d="M515.3 757.7 497.9 703c-4.5-.8-15.7 5.8-19 3.5-2.3-1.5-6.1-25.3-7-29.5-1.9-1.6-22.5 9.7-28.3 7.8-.7-.2-1.2-.8-1.6-1.4l-62.4-152.6c-3.7-41.1-13-85.4-14.7-126.3-.1-3.3-1-8 2-9.9l32.9-20.5-37.7-10.3-29.8-44.7c-3.5-42.9-4.2-85.6-6.5-128.6-.5-2.7 8-8.8 9.8-9.3 2.4-.6 8.1 2.5 10.9 3.6 46.2 19.1 91.1 42.1 137 62l183.2 124.8L792.3 514c2.9 3 4 6.5 4.5 10.5 7.1 58.5 6 120 13.2 178.8l79.7 168.3c.4 1.9 0 3.4-.8 5.1-7 17.9-22 38.7-30.7 56.3-20.9 16.1-39.2 32.7-64.7 41.3-10.7 3.6-33.2 11-43.5 12.5-2.4.3-4.7.6-7-.5-28.5-27.2-57.8-53.6-85.7-81.3l-37.6-83.4L515 757.8Z" class="fill" data-original-prefix="fill"/><path id="outline-shading-ear-lft" class="outline"  fill="#000" d="M608.2 565.2c.8-.8 2.2-1 3.3-1.2 13.1-2 32.8-1.5 44.9-5.2 2.8-.8 11-9.6 14.1-5 .5.7 2.2 15.3 2.4 17.6 1.2 14.7.7 27.7 3.3 42.7 8.2 46.2 31.4 83.3 65.2 114.8 1.4 1.3 7.1 4.8 7.3 5.2 1 1.7 0 13.9.2 17.3.9 12.3 6 21.7 8 33.5 2.7-3.1 5.7-6 8.5-9 1.7-1.7 1.3-5 5-2l27.4 50.6c7.7 26.9 34.8 63.7 56.7 81.3 2.2 1.7 13.4 7.9 13.5 8.7.5 2.4-7.6 14.7-9.7 17.2-10.6 13.4-47.4 38.2-63.5 44.5-8.8 3.4-36.8 11.1-45.9 12.2-1 .1-2 .5-3 0l-65-53.1-77-110-70-38-39.1-83.4c-2.9-1.8-10.8 4.3-13.4.9s-5.7-31.3-7.6-32.9c-11.2 0-22.1 3.7-33.2 5-7-11.4-11.4-14.7 3-20.8 11.4-4.8 24.1-5.7 36.3-6.7-32.8-44.7-49.3-99.3-63-152.5 1.4.2 1.9 1.8 2.5 3 12.6 23.2 36.1 80.6 58.2 92.8 1.6.9 3.3 2.3 5.3 2.2.8-.9-4.8-20.8-5.7-23.8-2.5-7.6-11-23.7-11.3-29.8-.5-10 4.4-26 5.1-36.9 2.7-44.5-13.8-99.2-36.9-137.2-.6-1-3.6-6.7-5.2-5.3-6.7 22.4-24.9 43.5-45.8 54.2-1.2 7.7-2.5 15.5-3.2 23.3-.7 6.9-.2 15.5-1 22-.2 1.4-.6 3-2 1.5L361 399.6l39.9-25.2-57.1-17.9-9.9-74.6 9.1 22.4c2.6 5.6 8.6 18.3 12.9 22.1 11.2 10 48.5 26 63.4 25.6 1.4 0 3.1.6 2.5-1.5-14.6-20.1-30-39.8-48.8-56.2L360.3 252c24.5 9.1 46.6 22.6 68.4 36.6 20 12.8 39.3 25.1 55.6 42.4 27.9 29.6 53.2 65.5 69 103-1.6 41.9-.6 84 7.9 125.1 2 9.5 6.3 30.8 10.3 38.7 1.1 2.1 7.7 10 9.7 11.3.9.6 1.4 1.7 2.6.5l24.2-44.3ZM777 967c-3.9-10.9-5.5-27.1-10.2-37.3-2.9-6.1-17-20.7-22.2-27.8-24.6-34-42.1-71-63.4-106.6-16.1-26.8-19.1-20.9-44.5-33.5-28-13.8-72-45.1-92.1-68.9-11.2-13.2-19.7-30.7-30.5-43.5-1-1.2-9.9-10.7-11-9.5-.7 20.8 11.1 38.7 20 56.5-1.5-.3-11.7-12-9.8-5.2 2.3 8.2 6.9 17.8 9.8 26.2 5.3 15.4 10.6 30.9 15.5 46.5 21.2 12.2 44.3 25.6 66.8 35.2 16.5 7 33.5 9.8 50.4 15.1 5.5 13.5 10.9 27.2 17 40.5 9.5 20.5 22.4 32.9 37.7 49.3 17.5 18.9 38.7 41.3 58.5 57.5 1 .8 7.3 6.2 8 5.5M495 668c-2.2-1.5-4.1 5.2-4.7 6.8-.9 2.3-5.2 15.2-4.2 16.2 1.7.5 2-.7 3-1.5 1.8-1.3 12.8-10.3 12.9-11.2.4-2.6-6.7-7.3-6.9-10.3Z" class="shading" data-original-prefix="shading" opacity=".2"/><path id="outline-ear-lft2" class="outline"  fill="#000" d="M673 548c1 1.1-8.8 24.7-9.5 28.9-3.2 18.8 9 75.6 17.4 93.7 8.3 17.9 19.9 26.5 31 41 10 13 27.1 42.8 34 58 3.2 6.9 7.3 23.6 10.7 28.3.6.9 2.3 2.8 3.5 2 .7-.5 6.9-12.2 9-13.5 1.1-.7 2.2-.8 3.4-.4 4.1 1.4 13.8 33 15.4 38.7 4 14.6 5.1 30.8 8.8 44.2 2.3 8.4 20.4 26.7 25.3 35.7 2.6 4.6 4 23.4 4.2 29.8.3 6.8-5.8 11.2-10.6 15.5-3 2.6-13 10.7-16.2 11.8-1.5.5-2.7.7-2.3-1.3.7-3.6 4.3-8.8 4.9-13.1 2.6-18.9-8.5-44.7-15.7-62.1-1.5-3.5-5.2-8.8-6-12-1.8-8.1-2-19-3.4-27.6-.5-3.3-4-24.7-4.8-25.7-1.6-1.8-3.9 4.7-4.2 5.3-2.6 5.9-2.8 11.8-4.7 17.3-.5 1.4.3 1.7-2.1 1.4-17.1-29.1-27.5-61.7-47.2-89.3-7.7-10.8-17.1-22.2-26.8-31.2-3.1-2.9-18.5-13.8-19.5-15.5-2.6-4.3-1.1-16.8-1.7-22.3-1.2-13-10.2-51.3-17.9-61.1-10.4-13.3-23.7 7.8-28.2 16.8-11.9 24.1-10 50.1-.3 74.7 2.7 6.9 6.5 13.3 9.5 20-2.9 0-5.5-1.3-8-2.5-12.4-5.8-27.9-15.9-39.3-23.7-9.7-6.7-30.6-22.1-35.5-32.5-4.7-9.8-7.2-35.2-10.5-47.5-8.6-32.7-20.4-64.8-41.6-91.5-.3-1.7 5.1-9.4 6.3-12.3 14.5-33.8 3.2-89.8-11.3-122.7-19.9-45-50.2-81.4-89.9-110.1-6-4.3-15.7-8.5-20.4-13.6-5.6-6.2-10.5-19.5-14.9-27.1 15.1 6 29.9 13 44 21 46.7 45.1 89 81.7 117.2 141.9 2.5 5.3 12.2 26.2 12.6 30.4.7 7.6-5.5 27.2-6.7 35.9-7.5 53.4-.2 102.7 25.7 150.1 5.5 10 23 36.2 36.2 23.9 4.9-4.5 9.1-31.2 11.5-39.5 2-7.1 8.6-30 12-35 3.1-4.5 28.4-18.6 34.8-22.2 2.3-1.3 20.8-11.7 21.7-10.8Z" class="outline" data-original-prefix="outline"/><path id="outline-ear-lft1" class="outline"  fill="#000" d="M847 941c10.6-11.2 23.3-30.3 27.1-45.4 4-15.9-.3-15.2-4.9-28.4-9.8-28.2-18.3-52.5-31.4-79.6-19.7-40.8-34.2-57.3-38.8-105.2-2.7-28-4.3-56-7-84-2.3-23.6-2.3-66.6-15.2-85.8-14.9-22.2-37.6-49.1-54.8-70.1-38.7-47-78.5-83-129.5-116.6-44.3-29.2-93.1-59.2-139.9-84.1-38.8-20.7-78.7-40.3-120.7-53.8-1.5 19.2-1.7 39.3 0 58.5s5.3 44.4 9.3 63.7c1.7 7.9 11.2 35.7 17.3 39.7 8.2 5.5 35.6 11.4 46 13 7.9 1.2 12.6-2 7.5 9.8-6.1 14.1-22.8 28.1-36.2 35 1.3 9.3 4 18.5 5.1 27.9 2.4 21.6.3 44.6 3.3 65.7 6.5 46 32.5 120.1 58.3 158.7 1.4 2 3.8 6.9 5.9 7.1 2.8.3 18.9-4.4 24-5 6.1-.7 12.5-1.5 18.5 0-1.5 5.2-4.3 10-4.9 15.6-.3 2.9-.6 12.9.8 14.8 2 2.8 14.2-4.7 17 .2l24.6 68.4c28.6 23.4 63.9 36.6 93.9 58.1 19.4 47.2 45.7 91.8 83 127 32 30.2 60.3 41 103.5 23 0 2-1.1 2.8-2.7 3.8-9.1 6.2-48.7 21.7-59.3 22.8-3 .3-21.2-3.2-23.6-4.5-14.8-13.8-28.4-30-43.4-43.6-10.8-9.8-31.4-21.3-37.2-33.8-2.9-6.2-4.6-14-7.3-20.7-6.5-15.5-24.7-50.7-38.1-59.9-6.9-4.7-17.7-8.4-25.4-12.6-18.9-10.5-36.6-23.3-54.4-35.6-3.2-9.7-16-72.5-23.2-74.8-3.8-1.2-13.7 5-16.2 2.8-.6-.5-4.1-12.1-4.6-13.9-1.3-4.8-1.7-10-2.5-15-6.3-.6-12.9 3.1-18.3 6.1-3 1.7-12.5 9.6-13.3 9.8-1.6.3-2.5-1.6-3.2-2.6-7.7-10.6-16.4-27.4-22.7-39.3-24.2-45.5-47-101.1-56-152-2.4-13.5 2-13.7 4.3-24.8 3.2-15.5-1.3-47.1-4.1-63.5-.8-4.5-4.5-15.7-3.5-19.1 1.1-3.7 31-16.7 33.8-23.7-13.2-.2-28.6-3.9-40.3-10.2-28.2-15.2-26.4-45.7-28.7-73.3-2.6-32-7.2-72.4-3-104 .3-2.4 3.7-16.9 4.6-17.6 3-2.2 20.7 2.5 25.4 3.6 67.6 16.1 153.5 57.1 213.7 92.3 35.8 21 74.6 43.9 103.3 73.6 52.5 54.4 98.3 114.6 141.4 176.6 2.3 4.6 2.2 21.8 2.6 28.4 3.3 61.9 8 156.6 41.6 209.4 3.9 6.2 8.9 11.1 12.3 17.7 16.1 31.9 26.7 69.7 43.1 101.9l-.5 8.4c-13.6 15.6-21.6 39.6-39.2 50.8-5 3.2-11.6 7-17.3 8.2Z" class="outline" data-original-prefix="outline"/></g><g id="07_Head" data-trait="tophat"><defs></defs><path id="fill-head-main" class="fill"  d="M1447 362.5c5.3 5.2 4.4 15.3 3.8 22-3.8 43.6-12.4 86.5-18.9 129.8-13 92.5-18 185.6-15.7 279 5.5 9.3 17.2 10.9 20.9 21.7-5 40.7-7.1 81.2-4.6 122.1.3 3.9 1.2 13.9 2.5 16.8 2.1 5 8.1 3.7 12.9 3.2 23-3.2 45-9.5 67.2-16.3 31.9-9.1 63.8-18.3 95.6-27.5-16.8 78.8-76.7 144.1-143 186.4-72.6 45.2-154.3 63.9-237.4 79.7-126.9 23.5-251.1 27.6-378.6 6.3-84.6-14.6-170-30.6-246.6-71-77.2-42.2-149.5-113.2-168.2-202q63 18.75 126 37.2c12 2.1 23.9 4.9 35.9 7 3.5.4 11.6 1.5 13.3-1.6 1.5-2.6 2.8-16.4 3.1-20.3 2.4-40.2 0-80-4.6-120 .4-3.9 6.9-10.1 10-12.4s9.9-3.6 11-8.3c.9-4.3.5-14.1.4-19-.7-97.9-11.3-195.2-22.4-292.4-4.1-32.8-9.8-65.4-12.7-98.4-.5-6.5-1.2-11.9 1.4-18 4.7-9.8 16.7-8 25.6-9.1 21-4.9 41.7-10.5 62.9-14.2 129.8-19.8 261.1-23.5 392.3-21.3 98.2 2 196.3 7.1 293.3 23.2 17.3 3.1 34 8.2 51.1 12.3 7 1.6 17.5-.4 23.1 5.1z" class="fill" data-original-prefix="fill"/><path id="fill-head-brim" class="fill"  d="M634.7 831c1.9-.5 7.6 5.1 10 6.4 80.9 46.7 188 47.7 278.8 52.4 155.7 7.7 315.2 5.9 464.3-44.4 9.1-3.8 16.8-10 25.5-14.4.5 0 1.8 1.5 1.4 2.3-.5 9.3-.8 13.9-1.4 23.2.4 20.7.9 41.4 1.3 62.1.4 13.4 4.2 26.3 3.9 39.7-.7 9.1-9.1 14.1-16.5 18.1-11.6 6.3-23.8 11.5-36 16.7-207.2 91.1-466.3 92.5-674.7 4.2-18.5-7.7-40.3-14.6-55.8-27.8-9-8.7-5-21.3-3.5-32.1 1.7-26 2.6-51.9 2.6-78s-1.7-17.4-1.6-25c0-1.2.4-3.1 1.7-3.5Z" class="fill" data-original-prefix="fill"/><path id="shading-head2" class="shading"  d="M1522.7 939.1c-25.1 5.8-49.3 14-74.7 18.2-2.8.3-10.4.9-11.9-1.3-4.1-9.8-2.4-21.5-2.7-31.8l-2.1-45.9c.3-7.7 2.8-19.8 1.6-27-1.1-6.7-8.1-5.7-10.3.2-4.3 13-5.7 26.6-8.8 39.9-7.3 28.3-17.6 57.1-39.6 77.4-21.9 20.3-52.1 30.7-79.7 40.5-64.3 22.7-129.1 36.2-197.1 40.8-132.4 7.5-266.2-2.1-387.9-58.6-29.2-13.5-50.2-42-65.9-69-4.6-12.6-8.1-25.7-11.3-38.7-2.5-11.7-3.4-24.3-8.5-35.2-1.8-1.8-4.7-2.2-6.9-.6-3.9 9.5-1 21.6 0 31.5l-2.1 45c-.3 10.2 1.6 22.9-3 32.2-1.6 1.8-9.1 1.1-11.6.8-25.5-4-49.7-12.4-74.7-18.2-.8-.2-2.7-1.3-3.1 0 14.9 18.6 32.1 33.5 51.3 47.6 32.8 22.3 68 39 105 53.1 224.4 82.1 475.7 81.2 699.3-3.2 55.2-21.2 110.5-50.7 148-97.6-.3-1.2-2.2 0-3.1 0h-.2Z" class="shading" data-original-prefix="shading"/><path id="shading-head" class="shading"  d="M1416.1 791.4c0-6.2-.2-9.3-.3-15.5-1.2-44.3-2.5-88.6-3.7-132.9-43.9 110.9-155.8 188.6-270.3 209.6-90 16.3-181.7-2.5-271.9-3.3-69.8-7.9-137.8-22.6-201.6-52.8-12.1-6.9-24.1-13.7-36.1-20.6 0 7-.2 10.5-.4 17.5 0 6.7-16.3 9.3-13.6 14.1 28.1 16.1 55.7 32.2 86 43.8 124.5 42.2 258.4 42.1 388.3 38.5 115.7-3.7 234.4-17.2 334.1-80.7 1.2-1.5 1.8-2.3 3-3.9-4.4-5.2-13.4-5.1-13.5-13.8" class="shading" data-original-prefix="shading"/><path id="outline-head-tophat" class="outline"  d="M1423.5 791.6c8.5 4.1 18 10.7 20.8 20.3-3.9 36.7-6.1 73.2-4.8 110.1.2 9.2 0 19.1 2.6 28 1.2.8 2.2.3 3.3 0 44.7-4.7 87.7-21.6 130.5-34.4 12.7-3.9 25.2-7.9 37.7-12.4 4.8-1.4 4.7 10.9 4.5 13.9-3.7 50.3-45.1 101.9-79.5 136-87.7 84.4-198.8 114.1-315.4 135.6-129.9 23.2-257 24.6-387.1 2.1-123.5-22-242.7-52.3-333.5-144.4-31.9-33.4-68.6-81.7-72.9-129.3-.2-2.6 0-14.6 3.8-14.2 12.7 4.7 25.4 8.8 38.4 12.8 42.8 12.8 85.7 29.8 130.4 34.6 1.2 0 2.7.8 3.5-.4.6-.8 2.2-14.4 2.3-16.9 1.7-25.9 1.6-52.1-.3-78-1.4-14.3-5.2-28.6-4.2-43.1 2.8-9.8 12.5-16.2 21-20.7l.6-75.9c-5.5-70.5-11.9-141-20-211.3-4.6-36.6-10.9-72.9-14.3-109.7-1.1-12-3.3-26.9 4.2-37.3 5.9-5.9 14.8-4.4 21.8-5.9 38.2-8.5 76.4-16.4 115.2-21.2 193.6-22 389.7-22 583.4 0 38.9 4.9 77 12.7 115.2 21.2 10.6 1.7 23.9 1.3 26.2 14.6 5 30.2-4.4 63.9-8.8 93.8-3.8 25.2-8.4 50.4-12.1 75.6-11.5 85.1-15.2 170.6-12.7 256.4h.2ZM985.7 340.3c-99.5 3.1-198.2 16.6-297.3 25.7-22.7 1.7-45.6 1.8-68.2 4.7-1.2.2-3.5.8-4.2 1.8-1.1 21.6 5 44.5 8 65.9 8.3 70 15.2 140.1 21.1 210.3 4.1 50 8.3 99.9 6.2 150.2 0 2.6-.6 11 .3 12.5 1.1 1.8 19.2 9.8 22.7 11.1 62.3 24 128.7 32.6 194.8 38.8 126.3 11.1 253.1 9.5 378.8-7.8 46.7-6.7 100.1-14.4 141.7-37.9 2.6-1.6 6.5-3.3 6.4-6.7 0-88.7 7.2-177.1 16.1-265.3 5.4-51.3 13.2-102.4 18.6-153.7.2-2.5 1.8-16.6 1.3-17.4-.6-1-2.9-1.7-4.2-1.8-22.6-2.8-45.5-3-68.2-4.7-124.5-11.3-248.5-28.2-373.8-25.7h-.2zM634.7 831c-1.3.4-1.7 2.2-1.7 3.5-.2 7.6 1.6 17.3 1.6 25 0 26-1 52-2.6 78-1.5 10.7-5.5 23.3 3.5 32.1 15.5 13.1 37.3 19.9 55.8 27.8 208.4 88.2 467.5 86.9 674.7-4.2 12.1-5.2 24.4-10.3 36-16.7 7.4-4 15.7-9 16.5-18.1.3-13.4-3.6-26.4-3.9-39.7-.4-20.7-.9-41.4-1.3-62.1.5-9.3.8-13.9 1.4-23.2.3-.8-.9-2.1-1.4-2.3-8.8 4.3-16.5 10.6-25.5 14.4-149.1 50.4-308.7 52.1-464.3 44.4-90.8-4.6-197.8-5.8-278.8-52.4-2.3-1.3-8.1-6.9-10-6.4Zm954.1 104.6c-15.9 6.5-31.6 13.2-47.6 19.4-20.4 7.1-40.9 13.3-62 18.3-14.4 2.8-29.5 3.3-43.6 7.8-3.1 1.3-7.2 5.1-10.5 6.9-89.2 48-186.1 73.5-286.1 86.6-169.7 21.2-356.6-1.1-508.8-82.4-5.6-2.9-13.4-9.2-18.5-11.3-13.7-4.5-28.6-4.9-42.8-7.6-26.1-6.1-51.3-14.2-76.4-23.7-10.4-4.3-20.2-10.1-30.9-13.7-1.5-.4-2.8-.8-2.4 1.2 69.1 161.9 254.2 217.9 413.7 242.1 82.6 12.2 164.8 16 248 7.3 144.6-15.8 311.2-50.3 412.9-163.5 23.1-26.5 41.7-55.1 55.1-87.6v.2z" class="outline" data-original-prefix="outline"/><path id="outline-head1" class="outline"  d="M1274 901.4c-10.6 2.3-17.5-5.1-23.9-9.6-1.9 1.3-3.7 2.9-6 3.8-15.2 6-31.7 10.2-47.5 12.1-15.2 1.8-32.4 0-47.7 1.9-2.3.3-2.3 2.5-6 3.2-4.6.9-12-.4-17 .5-1.3 3.3-2 4.9-3.4 8.2 10.1 9.7 20.5 19 31.1 28.1 4.8 2.2 21.6 0 26 1.2 1.3.4 3.6 3.8 6.5 4.7 14.8 4.6 31.9 5.8 47.2 9.4 5.6 1.3 17.4 4.7 14.1 10.1-8.2 5.4-20.1 6.1-29.6 6.6-.2-2.4-.4-3.6-.6-6-13.8 2.9-27.9-1-41.3.7-1.8.2-2.9 3.3-4.7 3.7-2.1.5-6.6-1.3-9 .3-3.3 4.5-5 6.7-8.5 11.1-2.4-4.5-3.8-9.4-6.5-13.8-3.7-6.2-9.4-10.8-11.7-17.5-12.1-5.2-24.1-10.6-36-16.3-3.6-.7-6 1.5-10.1 1.1-2.7-.3-16.7-5.8-20.8-7.1-4.2-1.4-8.9-2.4-13.2-3.6 2-6.2 4.1-12.4 5.2-18.7.3-1.5-1.1-2.8-.9-4.4.7-4.1 7.9-6.2.8-10.2-1.4 0-2.1 0-3.5.2-3.9 2.3-14.2 2.8-17.3 5.6-2.6 2.3-2.2 8.4-3.9 10.2-1.1 1.2-4.4.8-5.8 1.8-1.7 1.2-1.8 7.1-4.3 7.5-3.3-1.2-17.4-4.2-18.8-.7 2.4 13.4 4.5 25.3 2.7 37.7-1.2 8.5-5.9 18.1-6.3 27.6-6.5-4.8-9.7-7.3-16-12.2-3.7-1.2-5.6-1.8-9.2-3 10-8.5 20.1-20.2 17.6-34-3.5-19-30.2-26.3-46.8-22.4.9-4 1.3-6 2.1-10-13.4 1.5-26.7 2.8-40.1 3.9-4.2 6.6-6.4 9.9-10.8 16.5-8.2 2.2-12.3 3.3-20.6 5.4-3.2 2.5-7.3 19.7-7.6 23.8-.4 6.6 5.3 13.1 4.6 19.7-6.4-2.3-12.7-10.7-18.3-12.7-3-1.1-5.5 1.2-9.7 0-1.6-.5-7.4-4.6-7.4-5.7 6.2-4.4 9.3-6.6 15.3-11.1 1.4 2 2.2 4.3 4.4 6.1 1.2.9 1.3 2 3.2.8 1.5-1 12.2-17 12.6-18.7 0-.4.5-.8.2-1.1-2.4-.6-3.6-.9-6-1.6 25.3-10-18.8-11.8-24.7-11.6-6.7 9.5-14.9 18.7-25.8 23.2-5.4-2.8-11.5-3.4-17.9-4.5 11.8-14.4 23.3-28.9 34.4-43.8-1.7-1.8-4.3-4.8-7.2-5.2-1.9-.3-23.9 2.1-26.2 2.7-4.1 1-4.4 3.9-6.9 4.7-2.8.9-20 1-20.8 1.4-.7 9.8-4.5 21.9-10.9 29.5-.7.9-4.9-.3-7.7 1.9-10.7 8.4-21.7 18.2-28.4 29.8-.7 1.2 2.1 2.8 1.9 3.9-.3 1.9-3.8 5.3-4.4 8.6-.8 4.3 2.1 10.2 2 14.7 21.1 7.6 42.2 14.8 63.6 21.5 2.8.4 12.2-3 11.4-5.5-6.8-9.4-13.4-18.8-20-28.4 2.6-6.1 3.8-9.1 6.4-15.2 9.1.7 16.9 9.1 23 15.2 15.6 15.6 30.9 32.4 47 47.9 1 .4 1.5.5 2.5.9 3.4-.4 5.2-.7 8.6-1.1 4.2 3.6 6.4 5.4 10.8 8.9 8.1-2.3 12.1-3.4 20.1-5.8 15.7 3.3 31.3 6.4 47.1 9.3.5-2 .7-3 1.1-5 23.2 2.3 46.4 8.3 68.6 4.4 3.3-.6 6.9-3.3 9-3.4 5.5-.2 17.8 6 23.7 5.7 5.4-.3 11.6-5.5 15.7-5.9 10.1-.8 20.6.5 30.7.3 18.7-.5 44-2.3 57.6-17.5 48.6 0 100.8-7.3 142.8-31.6 39.7-23-10.1-37.3-30.8-40.8-19.8-2.9-39.4-6.1-59-9.8 32-4.1 64.1-6.8 96.3-9.4 1.1-1.7 1.7-2.5 2.7-4.2-.5-.9-.8-1.4-1.3-2.3-10.6-5.5-21.2-11.1-31.7-16.9v.3Zm-353.4 64.3c.2-5.1 1.2-10.7 4.9-15.2 9-1.2 33.1-3.2 31.5 10.8-1.5 12.9-22.3 16.8-33.4 17.6-2.2-.4-3.2-11.2-3.1-13.2Zm45.5 42c-11.4 2.8-23.8 2.1-35.4.4-2.2-6.5-3.2-9.7-5.3-16.2 10.3-1.1 22.9-4 31.9 3.1 2.9 2.2 13.7 11.6 8.7 12.8Zm118.5-4.2c-5.8 10.7-22.6 8-33.6 7.2.5-3.6-2-6.9-2.3-10.4-1.2-12.8-1.2-25.3 0-38 0-.9-.4-1.8 1.8-1.3 9.6 1.9 21.1 5.4 28.7 10.8 9.3 6.6 10.4 22.5 5.4 31.7" class="outline" data-original-prefix="outline"/><path id="outline-head2" class="outline"  d="M749.2 941.4c1.9.5.8 2 .3 2.7-7 9.8-17.3 17.5-28 23.2-5 2.7-5.6-.2-6-3.4-1.4-11 9.2-17.5 18.3-20.5 2-.7 13.9-2.5 15.5-2Z" class="outline" data-original-prefix="outline"/><path id="outline-head3" class="outline"  d="M1097.8 944.4c10.3-2.3 31.9-1.5 32.2 13.4 0 4.1-1.8 5.2-7.5 3.3-9.7-3.3-19.1-8.4-28.3-13.1-2.1-1.5 1.7-3.2 3.6-3.6" class="outline" data-original-prefix="outline"/><path id="outline-head4" class="outline"  d="M1209.8 983.5c-15.6.8-30.3-.7-45.7-2.9 12.7-10.7 35.6-12.1 45.7 2.9" class="outline" data-original-prefix="outline"/><path id="outline-head-bats" class="outline"  d="M1144.4 582.2c-20.9 14.5-42.1 28.7-63.4 42.6s-13.2 8.7-19.9 12.8-.4 0-.3.4c19.2 17.6 38.1 35.4 58.1 52 19.3 16 39.8 30.7 60.1 45.3 11.5 8.3 23.3 17.3 35.1 25s4.3 3 6.7 2.8 4.3-2.3 6.8-2.6c6.3-.6 11.2 4.6 9.9 10.8-1.4 6.4-11.6 21.5-18.4 22.5s-7.6-1.3-9.4-4.6.4-6.6-.8-10-1.8-2.8-2.9-3.9c-32.5-23.1-64.3-47.5-98.2-68.5-27.3-16.9-55.9-31.7-84-47.3-23.8 13.2-48 25.8-71.5 39.7-38.6 22.8-74.3 50-110.7 76-.6.7-1.3 1.2-1.8 1.9-3.4 4.6 1.5 9.1-3.3 14-9.6 9.8-22.3-9.2-25.4-16.9-2.1-5.2-1.5-10.9 4.3-13.2s5.7 0 9.3 1.5 6-.5 8.8-2.3c11.7-7.7 23.6-16.8 35.1-25 20.3-14.6 40.8-29.4 60.1-45.3s38.9-34.5 58.1-52c0-.5 0-.3-.3-.4-6.7-4.1-13.3-8.5-19.9-12.8-41.4-27.2-82.4-55.5-122.7-84.4-8-5.7-16.3-11.5-24.1-17.5s-3-2.2-4.1-3.3c-18.4-18.7 10.4-59.5 35.3-44.4 11.5 7 23.8 16.7 34.9 24.7 19.8 14.3 39.5 28.9 59 43.6 26.7 20.1 53.2 40.4 78.9 61.8 9.2-8 18.9-15.3 28.4-22.8 37.7-29.8 76.3-58.8 115.4-86.8 8.9-6.4 18-13.3 27.1-19.2s3.5-2.3 5.3-3.1c21.7-9.3 46.7 23.5 34.6 42.8s-10.1 9.2-14.7 12.6c-24.7 18.3-50.2 36.1-75.4 53.5Z" class="outline" data-original-prefix="outline"/></g></svg>