<?xml version="1.0" encoding="UTF-8"?>
<svg xmlns="http://www.w3.org/2000/svg" viewBox="0 0 2048 2048">
  <style>
      .outline { fill: #000000; }
      .fill { fill: #FFFFFF; }
      .shading { fill: #aaaaaa; opacity: 0.5; }
    </style>
  <g class="trait-group" data-category="background" id="background-brown">
      <path id="color-brown" fill="#564624" d="M2048 4.5q-.15 1019.4 0 2038.8c0 3.8-.8 4.6-4.6 4.6q-1019.4-.15-2038.8 0c-3.8 0-4.6-.8-4.6-4.6C.2 1362.3.1 681.2.1 0h2043.3c3.8 0 4.6.8 4.6 4.6z" data-original-style="transition:fill .3s ease" style="fill: #564624" class="color"/>
    </g><g class="trait-group" data-category="jaw" id="jaw-headphones">
      <!-- Generator: Adobe Illustrator 29.1.0, SVG Export Plug-In . SVG Version: 2.1.0 Build 142)  -->
  <defs>
    
  </defs>
  <path id="fill-jaw" class="fill" d="M1373,1278c10.5.4,29.1-5.9,35.2,5.3,10.7,19.6,15.9,50.4,25.7,71.3,3,11.9-8.8,18.7-13,27.9-.4.8-1.4,1.4-.5,2.6l79.1,40c2.3,3.8-3.6,14.2-1,19l36.2,79.6-11.5,32.7c5.5,8.9,13.4,16.8,17.8,26.1l-19.9,52.2,18.3,22.3v5l-61.4,99.3c-2.5,2.2-23.2-.7-28.1,1.2l-61.7,62.3c-16.4-2.9-31.7,11.1-47.8,14.2-20.1-2.5-44.6-14.1-64.1-15.9-10.5-1-30.4,5.3-39.3,2.3l-90-57.5,21.9-62.5c0-1.6-1.2-2-2.3-2.7-7.1-4.6-19-6.8-26.5-11.6l-4.2.3-89.9,35.1c-15.1,1.2-30.2,3.6-45.3,3.2l-100.2-35.8c-2,0-18,7.8-19.9,9.2-.9.7-1.7,1.1-1.7,2.4l16.9,58.3-.8,2.7-83,59.1c-5.8,1.8-14-4.8-20.5-3.6l-87,18.1c-2.7-.5-3.8-5.4-8-7-11.3-4.3-28.3-3.2-40-8l-58.5-66.5c-4.8-2.2-15.4,5.2-20.8,5.4l-69-103.7.3-3.2c2.8-4.1,19.4-20.2,19.5-23.5l-22-52.1c-.4-5.6,17.6-24.2,18-30,.3-5.4-11.4-19.6-9.8-26.7l40.1-104.5,64.6-33.4c1.9-3-12.3-33-10.7-39.1l34.7-65.1c10.3-3,21.4-3.8,32.1-5.7l-23.7-60.3c5.6-16,11.2-32,17-47.9,7.9-21.7,16.5-47.6,27.2-67.8,53.7-101.2,185.9-162.6,293.5-185.5,35.9-7.6,63.7-2.7,98.4,6.5,100.4,26.7,224,89.8,269.8,188.2,7.8,16.7,8.9,28,13.3,44.7,2,7.7,14.7,26.3,19.1,34.9,2,3.9,7.2,12.8,7.5,16.5.5,5.7-7.6,35.3-10,42-3.7,10.1-10.8,19.3-14,29.5v.2h0Z" fill="#ffffff"/>
  <path id="fill-jaw1" class="fill" d="M633.3,1439.3c-6.9,9.3-7.1,20.4-1.8,30.6,11.3,21.3,32.2,49,46.2,69.8,45.6,67.8,94.8,132.8,149.2,193.8,13.2,10.1,26.6-2.7,28.8-16.3,3.7-22.9-25.9-58.5-35.7-78.8-.8-4.2,2.4-17.5,4.7-21.2.5-.8.8-2.8,2.2-1.3.7.7,3.6,14.5,7.6,18.9,3,3.4,8.2,4.1,9.5,5.8,3.8,4.6,13.5,27,16.8,33.9,9,19.1,25.7,53.6,27.2,73.8.9,11.9-.8,14.4-8.1,23-14.7,17.3-47.5,38.8-70.5,40.5-10.1.8-13.3-3.5-20.5-9.5-62.4-51.2-122.3-130.8-164.4-199.6-24.2-39.6-64.6-113.9-68.5-159.6-.6-7.4-1.5-12.5,3.8-17.9,15-15.1,41-26.4,61.4-31.3,5.1,1.2,16.7,35.2,15.6,41.3-.5,3-2.7,2.6-3.7,3.9l.2.2Z" fill="#ffffff"/>
  <path id="fill-jaw2" class="fill" d="M1213.7,1635.7c5.1-5.1,6-14.3,8.8-20.7,4.6,6.1,6.2,14.9,6.3,22.3-9.9,20.1-39.1,55.6-36.8,78.2,1.2,11.9,10.8,24.5,24,21,5.4-1.4,17.2-16.5,21.5-21.5,66.6-77.1,124.4-160.8,179.7-246.3,3.9-7.6,3.9-17,.4-24.7-1.3-2.9-6.3-7-6.3-8.2,0-4.6,4-17.4,5.8-22.2,1.4-3.8,7.1-17.8,10.5-18.5,9-1.7,39.9,15,48.2,20.8,4.2,2.9,15.5,11,16.2,15.8,2.2,14.1-6.8,42.2-11.7,56.2-35.2,102.4-137.6,246-221.3,314.7-6.8,5.6-10.2,10-19.6,9.5-19.6-1-47.1-17.5-61.5-30.5-4-3.6-16.7-16.6-17.8-21.2-3.8-17.2,10.6-48.8,17.6-65,3.7-8.4,22.6-51,27.2-54.8,2.2-1.8,6.5-2.7,8.6-4.9h.2Z" fill="#ffffff"/>
  <path id="fill-jaw3" class="fill" d="M765,1818c-12.7,3.6-25.1,8.6-38,11.5-5.6,1.3-14,4.1-19,.9-64-61.2-119.5-138.6-156.9-219.1-10.1-21.7-30.2-68.4-26.7-91.4,2.5-16.7,12.8-35.6,17.6-51.9l12.2,36.2c40.7,100,105.4,197.4,177.2,277.8,8.7,9.8,26.1,24.2,32.5,33.5.6.8,1.4,1,1,2.5h.1Z" fill="#ffffff"/>
  <path id="fill-jaw4" class="fill" d="M1283,1818c-.4-1.5.4-1.7,1-2.5,6.5-9.3,23.8-23.7,32.5-33.5,71.9-80.4,136.5-177.8,177.2-277.8l12.2-36.2c4.7,16.4,15,35.2,17.6,51.9,3.5,23-16.6,69.7-26.7,91.4-37.4,80.5-92.9,157.9-156.9,219.1-4.9,3.1-13.4.3-19-.9-12.9-2.9-25.3-7.9-38-11.5h.1Z" fill="#ffffff"/>
  <path id="fill-jaw5" class="fill" d="M692.7,1454.6c.2,0,.6-3.3,2.3-1.6.7.7,2.8,16.2,3,18.5.8,11.3-2.3,39.3,1.5,47.6,1,2.3,9.7,13.2,11.6,14.3,5.2,3,7.5.4,12.4.6,35,1.2,30.9,51,40.4,72.7,4.6,10.5,40,56.8,49.9,59.1,1.1.3,2.2.3,3.3.2v-7c1.6.8,3.4,2.6,4.4,4.1,3.9,5.6,13,23.4,15.1,29.9,2.5,7.9,6.9,26.8-7.3,22.3-8.6-2.7-27.2-27.4-33.6-35.4-28.5-36-56.8-75.1-83.4-112.6-18.6-26.2-41.5-56.4-56.4-84.6-3.5-6.6-11.8-22.5-3.8-28.1,5.7-4,11.9,1.8,17.4,3.5,9.7,3.1,14.7,1.8,23.2-3.4h0Z" fill="#ffffff"/>
  <path id="fill-jaw6" class="fill" d="M1356,1453s-.4,1.3,1.2,2.3c8.1,4.8,13.3,5.6,22.3,2.7,5.3-1.7,11.2-7.2,16.4-3.5,8,5.7-.3,21.6-3.8,28.1-14.9,28.2-37.7,58.4-56.4,84.6-26.6,37.5-54.9,76.6-83.4,112.6-6.4,8-24.9,32.7-33.6,35.4-4.6,1.4-9.2.4-9.9-4.8-2.3-16.9,12.8-37.1,20.1-51.5,4.5-1.2-.3,7.2,3.5,7,3.3-.2,8.9-5.1,11.5-7.5,9.9-9.3,35.9-40.2,41.2-51.8,4.4-9.7,5.2-26.7,8.3-37.7,4.6-16.4,12.4-34.4,32.1-35,4.8-.2,7.2,2.4,12.4-.6,1.8-1.1,10.3-11.6,11.3-13.7,4.3-9,.9-37.2,1.8-49.2.2-3.1,1.9-14.7,3-16.9.5-1,1.5-.9,2-.6h0Z" fill="#ffffff"/>
  <path id="fill-jaw7" class="fill" d="M668.3,1813.7c1.2,1.3,4.2,1.7,3.6,4.3-11.8,2.6-22.5-6.2-30.5-13.9-47-45-85.8-115.1-111.6-174.4-4.2-9.6-9.4-20.7-12.6-30.4-3.7-11.4-6.2-20.8,3.2-30.2,17,38.9,33,78.5,53,116,25.2,47.2,59.3,88.9,94.9,128.6" fill="#ffffff"/>
  <path id="fill-jaw8" class="fill" d="M1376,1818c-.4-1.8.6-2,1.6-3,23.2-23.3,49.4-55.6,68.2-82.7,34.9-50.1,57.3-107.7,81.7-163.3,9.5,9.5,6.9,18.8,3.2,30.2-5.4,16.7-15.3,37-22.9,53.1-24.4,51.7-59.5,111.3-100.8,151.2-8.1,7.9-19,17.1-31,14.4h0Z" fill="#ffffff"/>
  <path id="fill-jaw9" class="fill" d="M586,1754c-8.8,4.2-11.8-.9-17.5-7-13.2-14.2-48.5-65.3-49.5-83.5-.4-6.5,3.1-11.1,7.5-15.4l25.3,49.7,34.2,56.3h0Z" fill="#ffffff"/>
  <path id="fill-jaw10" class="fill" d="M1462,1754l34.2-56.3,25.3-49.7c4.4,4.4,7.9,9,7.5,15.4-1,18.2-36.3,69.3-49.5,83.5-5.7,6.1-8.7,11.2-17.5,7h0Z" fill="#ffffff"/>
  <path id="fill-jaw11" class="fill" d="M853,1643c23.4,1.8,23.6,24.4,32.8,40.7.8,3.2-7.7,7.2-9.3,5.3l-23.5-46Z" fill="#ffffff"/>
  <path id="fill-jaw12" class="fill" d="M1194,1644l-22,46c-4.7-1.2-10.2-1.5-8.5-7s10.2-25.6,13.1-29.9c3.8-5.7,10.7-8.8,17.4-9.1" fill="#ffffff"/>
  <path id="shading-jaw" class="outline shading" d="M1380.8,1185.8c-.2.4-2.1.7-2.8,1.7-8.6,10.8-16.2,26-21,39-4.2,11.4-5.1,22.7-13,32-11.3,13.5-31,29.3-45.7,39.3-15.8,10.7-32,18-49.3,25.7,7.1.9,14.3.5,21.5.5,23.3,0,41.9-6.8,62.9-17.1,15.5-7.6,25.1-16.9,35.2-30.7l21.4,3.8c-4.2,14-3.4,28.4-18.5,35-23.4,10.3-52.3,12.2-75.8,25.2-1.8,1-5.5,4.4-6.4,4.7-1.8.4-30-9.3-35.1-10.6-25.9-6.6-37.1-9.7-23.1,21.1,5.3,11.7,19.9,38.8,29.8,46.2,12.3,9.1,22.9-9.5,30.5-16.5,6.2-5.9,17.1-12.2,25.3-14.7,16.8-5,32.3,4.9,49.7,5.7,17.6.8,34.4-7.6,48.8-17.2,3.6-2.4,14.6-13.9,17.2-13.8,3.3.2,2,7.1,1.3,9.2-5.4,16.2-16.1,32.7-21.4,49.2,10.4,8.1,27.3,20.2,27.5,35,.2,17.8-26.4,60-36.4,76.4-39.8,65.4-86.5,126.3-133.5,186.6,14,16.5,38.6,26.1,60,20,7.6-2.1,12.1-7.4,19-9.5-2.6,20.2-3.1,27.7,16.8,34.7,21.1,7.5,45.8,7.9,64-6.5l21.3-16.2-22,44.5,8,2.5c.2,1.1,0,1.9-.5,2.9-6.5,16.2-30.2,41.1-45.5,49.5-5.7,3.1-46.1,12.9-52.4,12.6l-84.3-18.7-15.5,3.5-71-30c-1.3-.4-1.8-1.4-2.6-2.4-2-2.6-13.5-23.8-14.4-26.6s-1.1-5.3-.8-8.2l24-61.5c-15.6,0-31.3-2.2-46.8-2.8-3,4.8-9.3,10.4-14.2,13.3-8.6,5.1-53.1,24.7-61.5,25.5-18.7,1.7-40.6-1-59.6-.5-17.3-8.6-39-15.2-55.8-24.2-6.6-3.5-10.2-10.9-16.6-14.4-15.1,1.1-30.3,2.9-45.5,3l23.3,59.2c1.1,3.4,1.1,7.1,0,10.5-.9,2.5-14.6,27.1-15.9,28.1l-72.1,30.9-15.5-3.6c-25.8,4.6-51.9,13.1-77.6,17.4-3.8.6-6.7,1.6-10.7,1.3-6.5-.4-39-8.3-45.2-10.8-7.3-3-27-19.4-32.3-25.7-2.9-3.4-15.8-22.7-16.8-26.2-.2-.8-.3-1.5-.2-2.3l8-2.5-23-46.5,18.7,15.8c19.2,17.3,52.4,17.8,74.6,6,15.5-8.2,9.7-18.1,9.7-32.8,23.9,20.9,59.5,13.2,78.9-9.6-42.1-53.6-83.6-108-120.3-165.4-14.8-23.2-36.2-55.1-45.3-80.7-7.2-20-3.9-28.9,11.8-42.8,2.3-2.1,10.8-6.9,11-9,.2-1.7-1-3.8-1.6-5.5-4.8-13.7-16.7-32.1-20-45-1.1-4.3-.6-8.4,4.5-6.5,4.7,1.8,9.6,8.8,14.8,12.3,25.4,16.9,38.3,19.8,68.5,13.9,5.4-1.1,13.6-4.6,18.3-4.7,11.5-.3,29.8,10.2,38,18,7,6.7,17.2,24.1,29,16.1,9.9-6.8,30-43.8,34.3-55.7,1.7-4.7,5.2-14.8-2.3-16.2-8.2-1.6-30.5,5.9-39.5,8.5-3.9,1.1-17,6.5-19.5,6.4-1,0-13.7-8.2-17.2-9.7-16.2-6.7-62.8-15.6-72.7-24.3-7.9-6.8-7-18.7-11.5-27.5,0-1.4.7-1.7,1.7-2.2,1.5-.8,18.7-5.3,19.7-5.1,14,22.3,36.7,32.7,60.6,41.3,16,5.8,21.6,6.6,38.4,6.5h20.5l-34-16.5c-15.7-8.8-60.2-41.6-66.8-57.2-2.5-5.8-3.6-13.7-5.9-20.1-6.1-16.9-14.4-32.5-25.3-46.8,1.3-9,6.5-19.6,7.8-28.2,2.8-19.1,3.8-27.8,12.1-45.9,42.8-94,156.1-156.3,251.2-184.8,49.9-15,102.4-18.1,153.2-5.2,102.2,25.9,235.9,97.2,274.5,201.5,5.1,13.9,5.1,20.8,7.5,34.5.8,4.8,8.8,28.4,7.6,30.6h-.2ZM1078,1327c-6.6-11.3-11.1-25.2-18.6-35.9-4.1-5.9-9.8-10.2-14.4-15.6-3.4-3.9-14.7-20-18-21-1.9-.6-4.4-.8-6.3-.2-2.4.7-15.8,18.7-18.7,22.3-4.5,5.4-9.5,9.1-13.8,15.2-7.4,10.5-12.7,23.7-18.2,35.3h108ZM728.3,1496.7c1.6,2,8.2,6.3,10.7,7.8,14.8,8.8,31.7,13.8,46.9,23.1,16.8,10.2,40.2,33.1,59.6,33.5,2.3,0,8.7-1.2,9.4-3.7.8-2.7-13.5-27.5-16.4-30.3-7.3-7.2-27.5-17.2-37.2-23.8-15.2-10.3-50.3-39.1-67.9-39.2-10.5,0-8.7,28.1-5.1,32.7h0ZM1319.7,1466.3c-5.9-5.9-24.1,4.1-30.4,7.6-16.2,8.9-31,21.4-46.2,31.8-12.7,8.7-30.1,15.7-38.6,28.4-2.2,3.4-10.8,17.7-11.4,20.7-1.1,5.3,6.2,6.5,10.3,6.3,16-.9,23.4-9.7,35.2-17.8,9.2-6.3,19.3-13.6,29-19,11.7-6.6,47.1-19.2,52.7-29.3,2.4-4.3,2.8-25.2-.7-28.6h0ZM1126,1664c-12-2.7-20.7,6.6-31.6,7.9-5.7.7-12.2-1.2-16.6-.7-7.1.8-22.9,12.1-31.2,14.9-14.8,4.9-30.2,4.7-45.1,0-8.8-2.8-23.9-14.1-31.2-14.9-4.4-.5-10.9,1.4-16.6.7-11-1.3-19.9-11-31.6-7.4,0,6.9,23.8,23.5,30,27,12.5,7.1,59.8,26.8,72.5,26.6s59.9-19.8,72.2-26.9c10.3-6,24.6-16.2,29.3-27.2h-.1Z" fill="#aaaaaa" style="opacity: 0.5" opacity="0.5"/>
  <path id="shading-jaw1" class="outline shading" d="M1478,1737c3.9.4,7.2-2.1,10.3-4.2s11.4-11.1,13.2-11.8c3.7-1.6-1.6,7.2-2.1,7.9-3.6,5.7-19.8,26.3-24.9,29.1-6.3,3.5-11.9.9-18.5,0-.5-3.4,1.9-6.1,3.6-8.9,9.7-16.6,23.4-37.9,34.6-53.4.7-1,1.5-2.4,2.8-2.7-1.2,6.4-3.2,12.7-5.8,18.7-1.4,3.3-14.2,24.3-13.2,25.3" fill="#aaaaaa" style="opacity: 0.5" opacity="0.5"/>
  <path id="shading-jaw2" class="outline shading" d="M592,1758c-7.2,1.1-12.2,3.5-19.2-.3-5-2.7-21.2-23.7-24.7-29.3-.5-.8-5.2-8.8-1.7-7.3,1.7.7,9.8,9.6,13.2,11.8,3.1,2.1,6.3,4.6,10.3,4.2-6.3-14.7-17.1-27.6-19-44l38.4,58.1,2.6,6.9h.1Z" fill="#aaaaaa" style="opacity: 0.5" opacity="0.5"/>
  <path id="outline-jaw" d="M681,1139c5.4-1,10.7-1.8,13.8,3.7-1.2,7.6,0,17.4-2,24.6-1.6,5.8-18,15.3-21,22-1.2,2.6-6.4,25.9-6.7,29.3-.2,1.7,0,2.8.4,4.4,2.2,7.2,14.4,20.5,18.4,28.6,5.2,10.5,6.7,23.5,11.3,33.7,5,11.1,15.6,11.8,25.1,16.9,7.5,4,16,10.6,22.7,15.8-3.1,0-6.3.3-9.4,0-8.2-1-26.7-5-34.4-7.6-2.1-.7-9.4-4-10.7-5.3-3.1-3.3-6.1-15.8-9.5-17.4-2.5-1.2-7,0-10.3-.7-6.7-1.2-9.9-7.8-17.5-1.5-6.6,12.4-14.3,24.3-20.4,37.1-7.4,15.4-14.8,25.1-4.8,41.2,5.2,8.4,23.4,27,25.6,34.4,2.5,8.6-2.7,28,2.9,34.1,6,6.6,20.6,4.5,27.8.8,10.6-5.4,8.7-9.9,14.3-18.7,5.3-8.3,20.9-24.3,30.4-26.7,7.7-1.9,12.3,10.3,14,16,3.6,11.6,3.2,28.2,9.1,37.9,10.7,17.3,45.3,33.7,65.3,34.7,9.3.4,15.2-5.5,21-12,3-3.3,13.4-19.9,14.5-20.5,1.8-1,4.3-.7,6.3-.3,6.1,1.3,31.8,27.4,38.7,33.3,29.5,25.3,59.4,44.7,98.7,50.3,60.9,8.7,105.3-6.9,151.3-45.3,11.4-9.5,21.6-20.6,33-30,4.3-3.6,12.1-11.6,18-8,1.1.7,11.4,17.1,14.5,20.5,12,13.2,17.2,13.9,34.7,9.7,15.2-3.7,44.3-19.1,52.6-32.4,5.1-8.2,5.1-21.6,7.5-31.5,1.7-6.7,6.2-24.7,15.7-22.4,10.7,2.6,27.2,21,32.6,30.4,1.7,3,2.2,6.8,3.9,9.1,6.4,8.6,29.4,13.6,36.5,4.5,4.8-6.2,0-25.2,2.4-33.6s20.4-25.8,26-35c9.4-15.7.8-28.4-6.5-43.3-5.8-11.7-13.3-22.7-19.2-34.3-7.1-5.6-12.2.4-18.5,1.5-2.9.5-6.9-.4-9.3.7-3,1.4-6.8,14.4-9.6,17.4-1.3,1.4-7.2,3.9-9.3,4.7-8,3-26.3,7-34.9,8.1-3.4.4-6.8.2-10.2.2,6.6-5.5,15.7-12,23.3-16.2,11.5-6.3,19.8-5.1,25.5-19.5,3.6-9.1,5-19.4,9.4-28.6,5.2-10.9,14.2-20.6,19.6-31.4.6-1.5.2-3,0-4.5-.6-4.4-5.6-25.6-7.2-28.8-3.5-6.8-19-16.2-20.3-20.7-.8-2.7-2.7-24.4-2-26.6,1.5-4.9,9.1-3.4,12.8-2.7,1.6.3,4.1,0,5.1,1.7,1.8,2.9,1.8,11.7,3.9,13.8,4.3,4.4,21.1,4.4,24.8,12.2,2.2,4.6,0,15.6.2,21.8.5,12.5,8.5,29.5,6.8,39.7-.7,4.2-13.9,26.4-17.1,30.9-1.5,2-12.2,12.4-10.6,13.9,7.4.6,18.3-14.1,23.5-14.1s9,8.6,11.3,11.8c14.6,19.9,29.3,46.5,36.9,70.1,1.2,3.8,4.5,12.8,2.8,16.2-.7,1.4-3.3,2.1-4.5,3.5-5,6-9.6,13-14,19.5,23.4,4.3,53.2,19.5,68,38.5,7.3,9.4,4.3,12.7,6.5,22.5,3.5,15.9,19.4,40.3,25.5,57.5,2.5,7,6.9,19.9,7.1,27,0,6-4.5,13-4.1,16.9s6.2,16.4,7.5,22.6c3,13.8,3.9,17.4-1.3,30.7-2,5.2-16.4,34.3-16,36.7,8.9,8.9,19.7,15,18.8,29.2-1,17.7-33.9,64-45.6,79.4-4.3,5.6-23.6,30.1-28.3,31.7-7.5,2.4-17.8-6.7-22.1-4.1-7.5,10.9-15.8,21.5-24.5,31.5-16.8,19.3-25.5,31.3-52.2,35.8-4.7.8-12.8.4-16.4,1.6-8.7,2.8-10.3,11.6-24.4,11.6s-49.3-7.9-58.8-14.2c-2.1-1.4-5.3-5.9-7.2-5.8-1.5,0-10.7,6.3-16.1,6.9-33.7,4-93.1-31.4-107.9-61.8-5.1-10.4-3.9-14.2-.5-24.6,4.8-14.4,12.7-27.7,18-41.9-5-.8-14.5-7.9-18.7-8.3-2.3-.2-34.8,17.4-40.8,19.8-18.6,7.5-44.8,14.4-64.5,18.5-11.3,2.3-15.7,2.3-27,0-36.4-7.4-71.7-19.8-104-38.1-3-.7-15.7,5.8-19.6,7.5-1.1.5-1.7-.7-1.4,1.6,5.8,13.5,13.4,27.1,18,41,3.4,10.4,4.6,14.2-.5,24.6-14.8,30.3-73.5,65.3-107,61.9-4.9-.5-16.9-7.1-17.8-6.9-1.4.3-4.4,4.4-6.4,5.7-9.7,6.5-46.9,14.3-58.8,14.2-14.1,0-15.7-8.9-24.4-11.6-7.3-2.3-20-1.5-29.5-4.5-17.1-5.4-34-26.7-45.5-40.5-6.4-7.7-12.3-15.8-18-24-4.9-3-15.5,8.3-24,3-2-1.3-5.7-5.5-7.6-7.4-8.4-8.9-17.6-21.2-24.9-31.1-10.5-14.3-36.3-51.6-39.2-67.8s8-22.5,18.4-32.7l-19.7-46.9c-.7-6.9.9-13.7,2.4-20.4,1.4-6.2,7.1-18.8,7.5-22.6.3-3.4-3.2-9-3.7-13.2-1-8.6,3.8-22.4,6.7-30.8,6.1-17.2,22-41.5,25.5-57.5,2-9.3-.8-12.9,6.1-21.9,14.5-19.3,45-34.8,68.4-39.1,1.1-1.2-8.5-13.6-10-15.5-3.5-4.4-8.3-5.6-8-12,.4-8.2,10.9-31.9,14.8-40.2,3.7-7.7,29.3-51.5,34.9-53.2,6.3-1.8,17.3,14.4,25.3,13.8,1.9-1.8-8.7-10.8-10-12.5-3.8-4.9-13.3-21.4-15.9-27.1-6.1-13.5,1.7-20.9,3.8-34,.5-3.2,1-8.6,1.2-11.8.2-6.5-2.4-17.4.6-22.3,3.3-5.3,21.2-7.6,24.1-10.5,2.7-2.7.9-10.5,3.2-14.1,1-1.6,3.5-1.4,5.1-1.7v-.2h0ZM633.3,1439.3c.9-1.2,3.1-.8,3.7-3.9,1.1-6.1-10.5-40.1-15.6-41.3-20.5,4.9-46.5,16.2-61.4,31.3-5.3,5.4-4.5,10.5-3.8,17.9,3.8,45.6,44.2,120,68.5,159.6,42.1,68.8,102,148.4,164.4,199.6,7.2,5.9,10.4,10.2,20.5,9.5,23-1.7,55.8-23.2,70.5-40.5,7.3-8.6,9-11.1,8.1-23-1.5-20.2-18.2-54.8-27.2-73.8-3.3-7-13-29.3-16.8-33.9-1.3-1.6-6.5-2.4-9.5-5.8-3.9-4.4-6.8-18.2-7.6-18.9-1.5-1.5-1.7.5-2.2,1.3-2.3,3.7-5.5,17-4.7,21.2,9.8,20.3,39.4,55.9,35.7,78.8-2.2,13.6-15.6,26.4-28.8,16.3-54.4-61-103.6-126.1-149.2-193.8-14-20.8-34.9-48.5-46.2-69.8-5.4-10.2-5.2-21.2,1.8-30.6l-.2-.2ZM1213.7,1635.7c-2.2,2.2-6.4,3.1-8.6,4.9-4.6,3.8-23.6,46.3-27.2,54.8-7,16.2-21.4,47.8-17.6,65,1,4.6,13.8,17.6,17.8,21.2,14.4,13,41.9,29.6,61.5,30.5,9.3.5,12.8-3.9,19.6-9.5,83.7-68.7,186.1-212.3,221.3-314.7,4.8-14,13.9-42.1,11.7-56.2-.8-4.8-12-12.8-16.2-15.8-8.3-5.8-39.2-22.5-48.2-20.8-3.5.7-9.2,14.7-10.5,18.5-1.8,4.8-5.8,17.7-5.8,22.2s5,5.3,6.3,8.2c3.5,7.7,3.6,17.1-.4,24.7-55.2,85.5-113,169.3-179.7,246.3-4.3,5-16.1,20.1-21.5,21.5-13.2,3.5-22.8-9.1-24-21-2.3-22.7,26.9-58.1,36.8-78.2,0-7.4-1.7-16.2-6.3-22.3-2.8,6.3-3.7,15.6-8.8,20.7h-.2ZM1249,1614.5c.5,5.3-.4,11.2,0,16.5,4.5-2.9,6.9-8.6,9.2-13.3,7.2-14.9,13.6-37.5,13.9-54.1,0-7.5-1.8-15.8-2-23.2,0-2.6,2.9-7.2,5-8.8,3.9-3.2,18.2-11.2,23.3-13.7,10.8-5.5,29.6-7.9,33-21,2.5-9.8.7-28.2,1.8-39.2,1-10.3,7.7-19.4,6.9-29.1-.6-6.2-5.2-16.1-9.4-20.6-1.5-1.6-8.7-7.2-10.5-5.9s-7.1,27.7-7.1,31.5,2.9,12.2,0,17.1c-1,1.8-14.9,11.5-17.8,13.2-13.5,8.5-30.5,17.7-44.6,25.4-9.2,5-19.2,9.5-28.4,14.7-3.1.5-6.8-3.6-10.8-3.9-11.7-.8-14.5,8.2-21.5,14.6-16.6,15.2-41.4,23.2-63.5,25.5-69.2,7.1-135.8,6.9-205,0-21.8-2.2-45.9-9.8-62.5-24.5-7.4-6.5-10.7-16.4-22.5-15.6-4,.3-7.4,4.3-10.5,3.7-12.5-7.1-25.7-12.8-38.3-19.8s-39.3-21.5-49.2-30.8c-6.9-6.6-2.4-12.5-2.5-20.4-.2-9.9-4.5-21.1-7.1-30.5-9.8,1.4-16.8,13.3-19.3,22.2-3.6,12.9,4.8,20.7,6.2,33.4s-2.5,31.6,2.7,42.3,22.8,13.3,32.7,18.3c4.5,2.3,19.2,10.6,22.6,13.4,1.8,1.5,2.7,3.4,3.6,5.4.2,9.9-2.1,19.6-1.6,29.6.8,16.7,8.6,44.3,17.5,58.5,1.4,2.3,3,4.7,5.5,6-.9-5.1-.4-9.2.3-14.2.9-6.6,4.7-25.1,7.5-30.5,1.2-2.3,3.7-3.5,4.3-6.2,23,6.3,35.4,28.6,50.3,44.9,11.3,12.4,23.8,14.5,34.1,23.9,6.5,5.9,11.9,15.9,17.5,22.5,14.4,17.2,20.4,23.3,41.3,32.7,28.8,12.9,50.9,21,83.2,18.9,16.7-1.1,61-18.9,75.8-28.2,16.1-10.1,26.5-33.3,40.2-45.8,10.2-9.3,22.2-11.3,33-23,9.6-10.3,17.3-22.5,28-32,5-4.5,21.2-18.9,26.3-9.3,2.2,9.9,7.3,19.6,8.2,29.8v-.4h.2ZM692.7,1454.6c-8.6,5.2-13.5,6.5-23.2,3.4-5.5-1.8-11.8-7.5-17.4-3.5-8,5.7.3,21.6,3.8,28.1,14.9,28.2,37.7,58.4,56.4,84.6,26.6,37.5,54.9,76.6,83.4,112.6,6.4,8,24.9,32.7,33.6,35.4,14.2,4.5,9.9-14.4,7.3-22.3-2.1-6.5-11.2-24.4-15.1-29.9-1-1.5-2.8-3.2-4.4-4.1v7c-1.1,0-2.2,0-3.3-.2-9.8-2.4-45.3-48.6-49.9-59.1-9.5-21.7-5.3-71.5-40.4-72.7-4.8-.2-7.2,2.4-12.4-.6-2-1.1-10.6-12.1-11.6-14.3-3.7-8.3-.7-36.3-1.5-47.6-.2-2.3-2.3-17.8-3-18.5-1.7-1.7-2.1,1.5-2.3,1.6h0ZM1356,1453c-.5-.3-1.5-.4-2,.6-1.1,2.2-2.8,13.8-3,16.9-.9,11.9,2.5,40.2-1.8,49.2-1,2.1-9.4,12.7-11.3,13.7-5.2,3-7.5.4-12.4.6-19.6.7-27.5,18.6-32.1,35-3.1,11-3.9,28-8.3,37.7-5.3,11.7-31.3,42.5-41.2,51.8-2.6,2.4-8.2,7.4-11.5,7.5-3.8.2,1-8.2-3.5-7-7.3,14.4-22.4,34.7-20.1,51.5.7,5.2,5.3,6.2,9.9,4.8,8.6-2.7,27.2-27.4,33.6-35.4,28.5-36,56.8-75.1,83.4-112.6,18.6-26.2,41.4-56.4,56.4-84.6,3.5-6.6,11.8-22.4,3.8-28.1-5.2-3.7-11.2,1.8-16.4,3.5-9,2.8-14.2,2.1-22.3-2.7-1.6-1-1.2-2.2-1.2-2.3h0ZM765,1818c.4-1.5-.4-1.7-1-2.5-6.5-9.3-23.8-23.7-32.5-33.5-71.9-80.4-136.5-177.8-177.2-277.8l-12.2-36.2c-4.7,16.4-15,35.2-17.6,51.9-3.5,23,16.6,69.7,26.7,91.4,37.4,80.5,92.9,157.9,156.9,219.1,5,3.1,13.4.3,19-.9,12.9-2.9,25.3-7.9,38-11.5h0ZM1283,1818c12.7,3.6,25.1,8.6,38,11.5,5.6,1.3,14,4.1,19,.9,64-61.2,119.5-138.6,156.9-219.1,10.1-21.7,30.2-68.4,26.7-91.4-2.6-16.7-12.8-35.6-17.6-51.9l-12.2,36.2c-40.7,100-105.4,197.4-177.2,277.8-8.7,9.8-26.1,24.2-32.5,33.5-.6.8-1.4,1-1,2.5h-.1ZM668.3,1813.7c-35.5-39.8-69.7-81.4-94.9-128.6-20-37.5-36-77.1-53-116-9.5,9.5-7,18.8-3.2,30.2,3.2,9.8,8.4,20.9,12.6,30.4,25.8,59.3,64.7,129.4,111.6,174.4,8,7.7,18.8,16.6,30.5,13.9.5-2.7-2.5-3-3.6-4.3M1376,1818c12,2.7,22.9-6.6,31-14.4,41.3-39.9,76.4-99.4,100.8-151.2,7.6-16.1,17.4-36.4,22.9-53.1,3.7-11.4,6.2-20.8-3.2-30.2-24.4,55.6-46.8,113.2-81.7,163.3-18.9,27.1-45,59.4-68.2,82.7-.9,1-2,1.2-1.6,3h0ZM853,1643l23.5,46c1.7,1.9,10.1-2.1,9.3-5.3-9.3-16.3-9.5-39-32.8-40.7M1194,1644c-6.8.3-13.6,3.4-17.4,9.1-2.9,4.3-11.5,24.6-13.1,29.9s3.8,5.8,8.5,7l22-46ZM586,1754l-34.2-56.3-25.3-49.7c-4.4,4.4-7.9,9-7.5,15.4,1,18.2,36.3,69.3,49.5,83.5,5.7,6.1,8.7,11.2,17.5,7h0ZM1462,1754c8.8,4.2,11.8-.9,17.5-7,13.2-14.2,48.5-65.3,49.5-83.5.4-6.5-3.1-11.1-7.5-15.4l-25.3,49.7-34.2,56.3h0Z" class="outline" fill="#000000"/>
    </g><g class="trait-group" data-category="mouth" id="mouth-OG">
      <path id="fill-muzzle" fill="#ffffff" d="M1125 1622c-3.4-2.3-6.5 6.6-8 8.5-3.7 4.7-17.7 19.6-23.5 19.5-2 0-5.3-4.8-7.8-6.2-7.4-4.3-19.1-5.3-26.8-1.4-4.2 2.2-10.1 9.4-13.4 9.7-7.7.5-10.7-10.3-17-11.2-2.3-.3-9.7-.3-11.5.6-3.2 1.4-8.9 10.8-13.7 11.3-3.1.3-10.3-8.4-13.4-10.2-6.5-3.8-16.5-3-23.5-.6-4.3 1.5-10.5 8-12.8 7.8-5.8-.5-18.9-14.5-22.7-19.3-1.6-2-2.1-4.7-3.5-6.4-5.4-6.8-5.6 3.9-7.6 7.3-9.4 15.7-21-13.3-24.8-18.9-2.4-3.5-7.2-5.7-10-9-9.7-11.6-6.4-27.5-10.3-40.7-1.7-5.8-11.6-19.5-14.9-27.1-10-22.6-12.3-43.5-10.8-68.2-2.4-7.1.4-27.9-4.5-32.5-2.1-2-6.1-2.7-8.5-4.5-5.9-4.5-12.8-32.2-11.9-39.8 1.1-9.4 12.1-25.4 18.4-32.6 12.3-14.3 37.4-24.6 56-26 4.8-.4 28.1 1.1 29.5.5s5.1-5.4 7.1-6.9c8.7-6.5 17-9.5 27.7-11.3 3.7-.6 7.6.4 11-1 3.1-1.3 11.4-13.2 17.3-16.7 10.5-6.1 38.9-5.7 51.5-4.6 5.7.5 13.4 3.6 18 7 3.7 2.8 11.2 13.2 13.8 14.2 3.3 1.4 7.3.4 11 1 8.9 1.5 16.5 3.9 24.1 8.9 2.7 1.8 9.7 8.9 10.7 9.3 1.3.6 23.9-.9 28.5-.6 16.1 1.1 33.8 7.8 46.8 17.2 12.1 8.8 30.2 32.8 28.7 48.3-.4 4.3-7 26.5-9.2 29.8-3.6 5.6-10.6 4.5-13.7 10.3l-3.2 43.8c2 20.7-2.7 38.4-11.1 56.9-3.2 7-11.5 17.9-13.4 23.6-4.4 13-.9 27.8-9.6 40.4-2.9 4.2-8.2 6.2-10.8 10.2-1.6 2.3-2.2 5.7-3.8 8.2-2.8 4.2-10.6 16.7-16.2 14.9-7.1-2.2-6.8-12.8-8-13.6h-.2Z" class="fill" data-original-prefix="fill"/><path id="fill-teeth16" fill="#ffffff" d="M995.3 1525.7c11 9.5 17.2-6.6 23.2 6.3 6.5 14.1 3.7 38.4-1 52.9-.7 2.1-7.1 16.9-8 17.1-1.2.3-3-.4-4.2-.9-12-5.1-31.7-18.1-39.1-28.9-10.6-15.5-6.4-42.9 6.8-55.8 1.3-1.3 9.1-5.6 10.4-5.3 1.5.3 9.4 12.3 12 14.5h-.1Z" class="fill" data-original-prefix="fill"/><path id="fill-teeth15" fill="#ffffff" d="M1039.1 1601.9c-.8-.5-7.5-16.1-8.1-18.4-4.1-13.8-6.5-36.9-1.3-50.3 4.6-12 8.1-4.3 15.8-4.2 9.5.2 17.3-18.2 20.8-17.9 1.2 0 8.5 4.2 9.7 5.3 6.3 6.2 12.2 22.3 13 31 2.4 28-20.3 39.6-41.3 50.7-2 1.1-5.7 5.5-8.6 3.7Z" class="fill" data-original-prefix="fill"/><path id="fill-teeth14" fill="#ffffff" d="M904 1461c0 2.2-1.1 3.8-.8 6.2.2 1.8 7.1 22 8 23.1 3.9 5.1 11.2 3.2 16.7 3.8 4.9 13.5-4.2 23.8-8.6 35.6-2 5.3-8.7 33.1-12.8 34.2-1.8.5-6.8-9.1-8.3-10.7-10.3-23.9-15.3-58.4-2.6-82.2.6-1.2 7.1-11.6 8.4-10.1Z" class="fill" data-original-prefix="fill"/><path id="fill-teeth13" fill="#ffffff" d="M1144 1564c-2.1 1.4-6.1-7.1-6.8-8.7-3.2-7.9-4.4-17.4-7.5-25.5-4.3-11.6-13.6-22-8.6-35.6 4.8-.6 12.3 1.2 15.9-2.9 1.3-1.5 8.1-20.6 8.6-23.2.3-1.8-1.4-7 .9-6 6 2.7 13.7 26 14.4 32.6 1.4 13.9-2.9 45-9.3 57.4-.8 1.5-7 11.6-7.6 11.9" class="fill" data-original-prefix="fill"/><path id="fill-teeth12" fill="#ffffff" d="M1093.1 1644.9c-2.9-1.8-2.4-28.5-2.1-33.4.7-10.5 5.2-31.2 8.9-41.1 1.1-2.8 2.4-1.4 4.2 0 12.2 9.6 21.1 44.8 12.8 57.9-1.9 3-15.6 14.9-18.9 16.1-1.3.5-3.8 1.1-4.8.4Z" class="fill" data-original-prefix="fill"/><path id="fill-teeth11" fill="#ffffff" d="M949 1569c5.5 22 11.1 44.4 9 67.5-.5 5.2-.9 10.3-7 8-3.4-1.3-17.5-13.4-19.5-16.5-5.8-9.2-1.4-31.3 2.7-41.2 1.2-2.9 11.3-21 14.8-17.7Z" class="fill" data-original-prefix="fill"/><path id="fill-teeth10" fill="#ffffff" d="M881.7 1478.3c3.1 2.8-2.7 21-2.8 26.2 0 5.9 2.6 12.4 3.1 18 .2 2.1.7 24.5-.5 24.5-1.5.2-2.1-1.1-2.9-2.1-15.6-18.9-34.8-51.8-17.4-75.3 6.5-8.8 10.5 2.1 14.9 5.8 1.8 1.5 4.9 2.1 5.7 2.8Z" class="fill" data-original-prefix="fill"/><path id="fill-teeth9" fill="#ffffff" d="M1185.7 1467.3c1.9 1.6 7.8 13.7 8.2 16.2 3.2 20.7-9.8 47.3-23.9 61.9-.9 1-1.3 1.9-3 1.5.5-8-.7-16.6 0-24.5.4-5.4 3.1-12.3 3.1-18s-6.1-23.4-2.8-26.2c.6-.6 2.5-.6 3.8-1.7 3.4-3 10-13.1 14.7-9.3Z" class="fill" data-original-prefix="fill"/><path id="fill-teeth8" fill="#ffffff" d="M1018 1613v16.5c0 .9-10.8 13.2-11.9 14.1-6.3 4.8-8-2.6-10.6-5.5-5.5-6-17.9-.4-24.4-5.6-1.2-.9-4.1-8.8-4.1-9.9v-22.5c12.9 1.7 28.3 17.5 41.4 15.9 3.5-.4 6.1-3 9.6-2.9Z" class="fill" data-original-prefix="fill"/><path id="fill-teeth7" fill="#ffffff" d="M1031 1613c6.3 1.3 9.1 4 16.1 2.6 10.6-2.2 24.3-14.8 33.4-15.6 2-.2 1.4 0 1.2 1.3-.8 6.5 2.4 27.5-4.4 31.6-7 4.2-18.8-.3-23.4 4.6-2.1 2.2-3.6 8-8.4 7.6-1 0-14.6-13.5-14.6-14.6V1613z" class="fill" data-original-prefix="fill"/><path id="fill-teeth6" fill="#ffffff" d="M1102.5 1494c3.3-.8 4.5 6.9 5.3 8.7 5.6 12.1 13 24.8 13.3 38.8.2 9-16 29.8-21.3 16.2-4-10.4-4.1-44.8-1.1-55.5.4-1.6 2.4-7.9 3.8-8.2" class="fill" data-original-prefix="fill"/><path id="fill-teeth5" fill="#ffffff" d="M937.3 1559.7c-1.9-1.6-7.8-10.5-8.5-13-3.6-12.1 6-31.3 11.4-42 1.6-3.1 3.3-14.7 8-7.4 5.5 8.5 4.3 41.5 2.7 52.1-1.2 7.7-3.6 18.7-13.6 10.3" class="fill" data-original-prefix="fill"/><path id="fill-teeth4" fill="#ffffff" d="M917 1563c-1.8 13.4 2.9 27.5 2 40.5-.6 9-4.4 18.4-5.5 27.5-6.2-6-10.5-16.1-11.4-24.6-.5-5.2.7-24.7 2.4-29.3.6-1.6 10.5-16.2 12.4-14.1Z" class="fill" data-original-prefix="fill"/><path id="fill-teeth3" fill="#ffffff" d="M1135 1631c-.4-8.9-4.4-17.8-5.1-26.5-1-13.8 3.7-27.6 2-41.5 2.2-2.4 11.9 13 12.5 15 2 6.6 2.6 27.4 1.2 34.3-1.3 6.3-5.5 14.9-10.8 18.7z" class="fill" data-original-prefix="fill"/><path id="fill-teeth2" fill="#ffffff" d="M1154.1 1604.9c-3.4-2-5.1-22.3-3.9-26.2.8-2.6 8.9-5.2 10.2-8.8l5.1-10.9c3.8 3.4 5.1 7.2 4.3 12.2-.7 4.2-5.4 22.7-6.9 26.2-.9 2.2-6.1 9-8.8 7.5" class="fill" data-original-prefix="fill"/><path id="fill-teeth1" fill="#ffffff" d="M885 1559c-.3 3.7 1.7 9.4 4 12.2s9.5 5.2 10 8.3c-2 8.4 1.6 19.2-5.7 25.4-3.6-1.1-6-4-7.4-7.4s-6.5-23.6-6.9-27.1c-.5-4.2 1.2-10.6 5.9-11.4z" class="fill" data-original-prefix="fill"/><path id="shading-mouth2" fill="#aaaaaa" d="M918 1443.5c.8 5.3 5.6 13.8 10.1 16.9 11.5 8.3 16.2-.3 22.4-9.4 2.5 5.4 3.4 11.5 6 17 1.4 2.8 5.7 12 7.5 5.5l4-11.5c1.6 7.5 6.3 15.4 11.5 21 4.3 4.7 18.8 15.4 24.6 9.6 2-2.1 8.3-17.9 10.8-22.2 1.2-2.2 7.8-13.8 9.7-13.3 1 .2 8.5 13.2 9.7 15.3 2.4 4.5 7.3 17.7 9.8 20.2 3.8 3.8 10.5.4 14.4-1.8 10.5-5.9 18.5-17.2 21.7-28.8l4.2 12.3c.3 1.2 1.9 2.4 2.8 1.7.6-.4 5.8-11.3 6.5-13 .8-2 2.8-12 4-12 6.8 10.7 12.9 18.4 24.5 7.5 8.6-8 9.3-23.8 7-34.5 3.5-3.1 21.1 16.1 26.6 16.9 9.1 1.4 17.6-11.8 19-19.9 3.5-20.5-12.9-39.2-30.9-46.2l-12.7-4.8c15.4 0 28.2 2.9 41.1 11.4 4.8 3.1 12.2 10.9 17.6 11.4 6.2.6 10.1-4.1 10-10-.4-19.3-25.8-38.1-39.7-48.8 15.4 2.4 34.6 11.8 45 23.5 7.8 8.8 19.1 25.1 19.1 37s-6.4 28.5-9.2 32.8c-3.3 5.3-11.7 5.4-13.4 10.6-.9 8.1-2.1 16.4-2.5 24.5-1.5 29 1.4 45.2-10.8 73.2-3.6 8.2-12.7 20.4-14.9 27.1-4.2 12.8-.7 26.4-9.1 38.9-3.2 4.8-8.4 6.7-11.2 10.8-1.7 2.5-2.4 6.1-4.2 8.8-4.5 6.7-14.6 23-21.6 8.9-1.6-3.3-1.3-12.9-6.7-6.2-1.4 1.7-1.9 4.4-3.5 6.5-3.7 4.7-17.7 19.6-23.5 19.5-2.2 0-4.5-4.1-6.6-5.4-7.9-5-21.1-6.3-29.2-1.4-7.3 4.4-9.5 13.6-18.1 6.8-8.6-6.7-6.4-10.8-20.1-9-5.6.7-11.4 12.6-16.9 12.1-2.8-.2-11.4-11.1-18.5-12.6-6.3-1.3-17.5.7-23 4.2-2.6 1.7-4.1 5.6-7.5 5.4-5.7-.3-19.8-15.8-23.6-20.5-1.2-1.5-4.4-10.6-7.1-6.9-2.5 3.4-.6 9.9-7.2 12.7-7 3-14.9-11.2-18.1-16.4-1.2-1.8-1.2-4.3-2.6-6.4-2-3-6.8-5.4-9.5-8.5-10.4-11.9-6.7-27.7-10.7-41.3-.8-2.6-5.6-8.5-7.3-11.7-18.4-35.7-16.4-45.6-18.4-84.6-.4-7.7-.6-20.7-2.2-27.8-1.5-6.2-11.1-6.1-14.2-11.8-3.4-6.1-9.3-29.6-8.6-36.4 1.2-10.3 16.2-31.2 24-38 10.5-9.2 26.2-16.5 40-18.5l-21.5 17c-7.2 6.4-26.8 32-14.8 39.9 9 5.9 16.7-4.5 23.7-9.1 12.7-8.4 25.3-11.8 40.7-11.8l-17.3 7.2c-18 9.4-33.1 32.7-22.1 52.8 1.7 3.1 8.6 10.4 12 11.1 9.1 1.7 20.7-15.4 29.5-18 .6 6.4-.9 14.3 0 20.5zm-37.1 40.6c-12.3-.5-17.1-20.2-22.8 1.5-3.4 13 1.2 26.4 9.4 36.5 1.5 1.8 12.7 13.1 13.9 12.9.8 0 2.5-2.3 2.8-3.2 2.9-7.1-3.2-12.2-4.2-19.2-1.5-9.8 0-18.7.9-28.4Zm301.8-8.9c-3.2.8-6.3 6-8.8 7.3-2.1 1.1-7.2 1-7.8 3.2-.5 1.7 3 10.8 2.9 14.8 0 3-1.5 13.9-2.2 16.8-.9 3.6-3.9 5.7-3.9 10.2s1.4 7.1 3.7 7.4c1.9.3 15-14.4 16.8-17 5.7-8.5 9-18.8 7.3-29.2-.5-3-4.4-14.5-8-13.6Zm-284.8 10c-4-2.3-6.5 9.9-6.8 12.5-1.2 10.5 3 38 8.7 47.1 1.9 3 5.4 6.9 9.2 7.3 3.7-15.6 12.6-29.2 21-42.5-2.3-.4-1.7-2.9-2.7-3.5-1.5-.9-7-1.9-9.7-3.1-4.7-2.2-12-7.7-15.6-11.4-1.2-1.2-3.8-6.2-4.2-6.3ZM1139 1552c8.3-2 11.9-12.2 13.9-19.6 3.1-12.1 6.1-33.4 1.1-44.8-3-6.9-5.8 1.7-8.3 4.1-3.9 3.8-11 9.3-16 11.6-2.5 1.1-7.8 1.8-9.1 2.7-.7.5-.5 1.8-1 2.7-.3.4-1.7.4-1.6.9 0 1 7.9 12.3 9.2 14.8 4.8 8.8 9.1 18 11.8 27.7Zm-197.7 5.7c8.1 8.1 9.5 0 10.5-7.3.8-5.6 2.7-20.6 1.7-25.4-3.6-17.2-21.3-15.9-21.6 3.6 0 6.8 4.6 24.3 9.4 29.2Zm161.5-44.5c-5 1.3-8.5 9.3-8.8 14.2-.2 4 2.4 28.5 3.8 31.3 2.5 5 7.5 0 9.8-2.7 6.8-8.3 11.6-30.7 4.5-39.5-2.7-3.3-4.8-4.4-9.2-3.3zM1023 1544c-.7-.7-.8-7-5.1-9.4-8.9-5-21.8-.8-32-4-10.4-3.3-9.4-13.1-16.1 1.8-2.9 6.4-9.1 24.4-6.3 30.7 1.1 2.4 17.8 15.6 21.2 17.8s18.2 11.7 21.1 10c3.1-5.6 9.3-9.5 12.6-14.9 1.8-2.8 4.1-11.5 4.6-11.9 1.6-1.7 1.7.5 2.1 1.4 1.6 3.6 2.1 6.8 4.5 10.5 3.3 5.2 9.2 9.3 12.4 14.6 3.1 1.9 15.5-5.9 18.9-8.1 4.5-2.9 22.9-17 23.9-21.1 2.2-9.7-6.6-28.3-10.9-37.2-4.9 1-7.8 5.2-12.7 6.7-9.2 2.8-28.2-1.6-33.7 6.3-.9 1.2-2.6 8.9-4.5 7zm-136 18c-.7-.6-3.5 0-4.5.9-6 6.2 2.4 31.6 14.6 27.6 4-1.3 3.8-9.4 2.8-12.9-1.1-3.9-7.2-4.1-9.8-7.2-2.1-2.5-2.7-8.2-3-8.5Zm274.1 0c-.3.3-.9 6-3 8.5-2.6 3.1-8.7 3.3-9.8 7.2-1 3.4-1.2 11.6 2.8 12.9 13.4 4.4 20.2-24.5 14.1-28.1-.9-.5-3.5-.9-4-.4Zm-216.4 7.2c-1.5.4-5.1 4.6-6 6.1-3.4 5.6-5.6 32.3-4.8 39.3 1.3 10.9 15.2 18 19.5 3.5 1.7-5.6 2.6-21.4 2.5-27.6 0-1.1-5.8-19.7-6.5-20.5-1.2-1.4-3.2-1.3-4.8-.8Zm153.3-.1c.2 6.6-5.4 14.7-6 20.6-.5 4.5 1 25.3 2.4 29.4 4.2 12.1 16.9 7.3 19.1-2.9 1.1-5.2 0-16.8-.6-22.6-1-9.7-1.7-25.5-14.9-24.5m-180 1.9c-20.5 3.8-17 28.7-9 43 4 2.9 10.4-17 10.7-19.8.9-7.5-2.9-15.5-1.8-23.2Zm218 43c2.5 1.8 7.2-9.1 7.7-10.8 3.9-12.8 1.6-30.1-13.7-32.2.5 7.4-2.8 16.2-1.9 23.4.3 2.7 6.4 18.5 7.9 19.6m-148.2 10.2c1.4.8 4.8 8.6 9.5 11 11.1 5.8 20.2-6.4 20.7-16.7.8-13.7-7.2-7.7-16.5-8.6-8.4-.8-15-4.8-21.8-9.2-5.5-3.5-13.6-14.6-14.7-1.4-.5 5.1 1.4 7.5 1.8 11.2s-2 5.9.5 10.7c4.8 9.3 18 1.3 20.7 2.8zm93.1-31.1c-2.1-1.5-19.7 12.7-23.9 14.4-2.3 1-7.9 2.3-10.5 2.5-10.5.9-18.8-5.4-16.4 11.4 1 7.3 7.9 15.8 16 15.1 9.4-.8 11.9-11.6 14.6-12.4 4-1.3 12.3 5.7 18.9-1.1 4.3-4.4 1.3-8.4 1.5-12.5 0-2.3 1.9-4.8 2-8.1 0-1.9-.8-8.5-2.2-9.4Z" class="outline shading" data-original-prefix="shading" opacity="0.5" style="opacity: 0.5"/><path id="shading-mouth1" fill="#aaaaaa" d="M1041 1343c6.1.5 12.7-1 17.5-5 1.5-1.3.9-3.7 2.8-2.9 10.1 7.9 37.9 17.4 43.8 28.2 3.6 6.5 4.6 17.5-1.8 22.6-5.6 4.5-20.8 10.8-28 15-4.9 2.8-9.7 6.6-14.7 9.3-7.4 4.1-25.5 14.5-32.6 16.4-2.9.8-5.2.8-8.1 0-14.5-3.8-42.2-22.5-56.3-30.7-6.2-3.6-21.2-9.1-23.2-15.8-5.5-18.4 15.7-28.3 28.7-35.4 2.3-1.2 15.5-8.6 16.5-8.7 2.9-.3 4.2 2.9 6.7 4.2 4.2 2.3 10 3.2 14.7 2.8-.3-5.1-3.3-11.3-1.8-16.3.5-1.6 12.5-13.9 14.5-14.4 3.9-1 8.2-.3 11.6 1.9 1 .7 10.8 11.1 11.2 11.8 2.1 5-1.2 11.8-1.5 17" class="outline shading" data-original-prefix="shading" opacity="0.5" style="opacity: 0.5"/><path id="outline-mouth3" fill="#000000" d="M888 1333c-.7 1.9-2.2 2-3.8 2.7-12.3 5.2-24 8.3-33.2 18.8-6.6 7.6-18.9 26-18 36 .3 4 7.1 25.8 9.2 28.8 2.7 4 6.1 4.9 10.8 4.7-1.4-9 4.2-18.1 9.6-24.9 2.2-2.8 21.9-22.6 24.4-20.1-1.7 6.5-8.8 10.4-13 15.5-8.1 10-12.3 23.6-9.5 36.5 1.2 5.4 11.2 26 15 30 .6.7 7.1 6.3 7.5 6.5 2.4 1.2 5.6-3.8 6.5-5.5 2.5-4.3 3.1-9.7 5-14 4.4-10.2 9.3-18.3 18.5-25-5 13.9-9.5 44.6 1.5 56.1 4.6 4.8 11 2.5 15 5.1 2.1 1.3 2.5 5.4 4.2 5.8s7-3.1 9.4-3.5c9-1.4 12.6 16.9 18.7 17.4 2.5.2 10.2-12 18.4-9.4 5.5 1.8 19.2 24.8 24.4 23.6 5.8-5.9 3.6-12.3 5-19 1.5-7.6 8.3-12.6 9.4-22.6.8-7.2-1.7-26.6-4.7-33.1-1.1-2.3-5.5-10.7-6.8-12.2-3.4-4-15-9.2-19.8-6.1l-4.2 11.1c-4.8-4.4-9.5-9.2-14.5-13.5-3.7-3.2-10-6.8-13-9.9-4-4.2-15.6-27.9-15.7-33.2 0-6.8 17.5-22.4 21-29 5.4-4.1 29.2-2.8 35.7.2 8.4 3.8 12.4 12.1 18.5 17.5 5.2 4.5 2.5-1.7 2.5-3.6s.9-3.2.8-4.8c-.2-5.4-6.7-9.2-9.9-13.1-2-2.4-5.6-6.2-7-8.2-.9-1.3-4.9-7.8-5-8.8-.2-2.6 9.1-11.7 11.5-12.4 3.6-1-.5 5.5-.5 6.6-.4 5.2 5.9 4.1 9.3 5.6 1.2.5 3 2.7 3.2 2.7s2.4-2.7 3.8-3.2c7.8-3.2 11 1.2 6.8-11.7 1.6-1.7 12.5 9.1 12.9 11.7.6 4.5-17.6 23.1-21.1 27.5l-.8 12.7c1.7.4 2-.7 3-1.5 8.7-6.7 12.6-16.8 24.9-19.1 5.5-1 25.6-1.3 29.8 1.8 3.4 6.7 20.4 21.8 21 28.4.4 4.3-10.8 27.3-13.9 31.7s-9.8 7.6-13.8 11.2c-5.3 4.6-10.3 9.8-15.5 14.5-2.2.9-1.4-5.6-2.2-7.7-3.4-8.6-19-1.6-22.7 3.8-.7 1-7.1 13.9-7.3 14.7-2.7 12.8-5.5 27.3-.2 39.8 1.5 3.5 4.6 6.8 5.8 10.2 2.5 7.2-.5 15.2 5.8 21.2 9.4-2.8 19.1-24.9 27.9-24 5.2.5 13.2 10 14.9 9.8 5.8-.5 9.3-18.7 18.7-17.4 2.4.3 7.6 3.9 9.3 3.4s2-4.8 4.8-6.1c3.8-1.8 9.4-.4 13.3-3.7 11.5-9.7 8.1-43.1 2.5-56 1.6-1.7 11.3 10.4 12.4 12.1 5.1 7.8 6.1 15.5 9.7 23.3 1 2.1 4.8 9.8 7.8 8.2.4-.2 6.9-5.9 7.5-6.5 6.8-7.5 16-30.4 15.4-40.5-1.3-22.7-10.7-22.7-21.5-37.5-5.3-7.2 2.8-2.4 6 0 11.8 8.6 28 25.5 26.5 41 11.6 1.1 13.6-11.4 16.3-20.2 4.6-15.6 5.3-18.8-3.1-33.4-8.2-14.3-16.4-22.7-31.5-29.5-5.8-2.6-13.2-3.6-17.7-7.8 15.9 1.8 34.5 6.4 49 13.5 8.3 15 22.1 26.8 28.1 42.9l-15.2 44.9c-.9 3.7-13 4.8-13.8 5.8-.6.8-2.2 17.2-2.2 19.4-.2 31.7 2.4 50.4-13.1 79.9-2.6 5-12 16.3-12.6 19.4-.9 4.6 0 10.4-.5 15.5-.9 8.4-5.8 16.4-6.7 23.4-.4 3.5 1.3 7.7.8 9.7s-10.7 8.6-13.2 9.9c-2.2 1.2-5.7 1.5-6.5 2-.6.4-5.2 10.6-7.2 13.2-2.2 2.8-13.6 14.5-16.9 12.4-.6-.4-5.9-11.8-7.1-13.3-2.2-2.9-2.2 2.1-3.2 3.8-4.6 7.3-24.8 27-32.8 29.2-1.7.5-3.3.7-5 .5 1.1-8.2 2.6-16.6-8-18.6-9.7-1.8-16.2 7.5-18.5 15.6-1.2 4.3-1.2 16.7-7.8 14.9-4.3-1.2-20.3-25.6-23.2-30.8-5.5 8.6-11.5 19.1-18.5 26.5-1.8 1.9-6.9 7.7-9.3 3.3-2.8-5.3-2.5-14.6-5.5-20.5-3.8-7.2-14-11.7-21.2-6.8-6.6 4.6-2.9 10-3 16.5-3.4 3.4-23.5-12.8-26.5-15.9-1.5-1.5-11.4-13-11.9-14.1-.7-1.4-.2-6.3-2.6-3.3-2.1 2.6-6 14.4-10.2 13.3-2-.6-12-10.2-13.7-12.4-2.1-2.7-6.6-12.8-7.2-13.2-.8-.5-3.8-.6-5.8-1.7-2.5-1.4-11.8-7.1-13-9-2.3-3.8.4-6.7 0-10.8-1-7.2-5.8-15.5-6.7-24.4-.5-5 .6-10.7-.6-15.4-1-3.9-7.9-9.8-10.7-14.3-10.4-16.9-15.8-37.5-16.8-57.2-.8-15.6 1.6-31.1 0-46.5-18.8 0-17.3-14.5-21.7-27.8-2-5.8-9-19.6-8.1-24.5.6-3.1 5-9.2 7-12.1 2.9-4.3 18.7-27.3 20.9-29.1 1.7-1.4 8.5-4.5 10.7-5.3 9.6-3.2 28.2-7.1 38.2-8.3v-.7Zm16 128c-1.4-1.5-7.8 8.9-8.4 10.1-12.7 23.9-7.6 58.3 2.6 82.2 1.5 1.6 6.5 11.2 8.3 10.7 4.1-1.1 10.8-29 12.8-34.2 4.4-11.8 13.5-22.1 8.6-35.6-5.5-.6-12.8 1.4-16.7-3.8-.9-1.1-7.8-21.4-8-23.1-.2-2.4.8-4 .8-6.2Zm240 103c.6-.4 6.8-10.5 7.6-11.9 6.4-12.5 10.7-43.5 9.3-57.4-.7-6.6-8.4-30-14.4-32.6-2.3-1-.6 4.2-.9 6-.5 2.7-7.2 21.8-8.6 23.2-3.6 4.1-11.1 2.3-15.9 2.9-5 13.6 4.3 24 8.6 35.6 3 8.1 4.3 17.7 7.5 25.5.7 1.6 4.7 10.2 6.8 8.7m-262.3-85.7c-.8-.7-3.9-1.3-5.7-2.8-4.4-3.7-8.4-14.6-14.9-5.8-17.4 23.5 1.8 56.3 17.4 75.3.8.9 1.5 2.3 2.9 2.1 1.2 0 .7-22.5.5-24.5-.5-5.6-3.2-12.1-3.1-18 0-5.2 5.9-23.5 2.8-26.2Zm304-11c-4.6-3.9-11.2 6.2-14.7 9.3-1.3 1.1-3.1 1.1-3.8 1.7-3.3 2.9 2.8 21 2.8 26.2s-2.6 12.6-3.1 18c-.7 7.9.4 16.5 0 24.5 1.7.4 2-.5 3-1.5 14.2-14.6 27.2-41.2 23.9-61.9-.4-2.6-6.3-14.7-8.2-16.2Zm-83.2 26.7c-1.4.3-3.3 6.6-3.8 8.2-3 10.7-2.9 45.1 1.1 55.5 5.3 13.6 21.4-7.2 21.3-16.2-.2-14-7.6-26.7-13.3-38.8-.8-1.8-2-9.4-5.3-8.7m-165.2 65.7c10 8.3 12.4-2.6 13.6-10.3 1.6-10.6 2.8-43.6-2.7-52.1-4.7-7.3-6.5 4.3-8 7.4-5.3 10.7-15 29.9-11.4 42 .7 2.4 6.6 11.4 8.5 13m58-34c-2.6-2.2-10.5-14.2-12-14.5-1.3-.2-9.1 4.1-10.4 5.3-13.2 13-17.5 40.3-6.8 55.8 7.4 10.8 27.1 23.8 39.1 28.9 1.2.5 3 1.2 4.2.9.9-.2 7.4-15 8-17.1 4.7-14.6 7.5-38.8 1-52.9-5.9-13-12.1 3.2-23.2-6.3h.1Zm43.8 76.2c2.9 1.8 6.6-2.7 8.6-3.7 21.1-11.1 43.7-22.7 41.3-50.7-.7-8.7-6.7-24.8-13-31-1.2-1.1-8.4-5.2-9.7-5.3-3.5-.3-11.2 18.1-20.8 17.9-7.8-.2-11.2-7.8-15.8 4.2-5.2 13.4-2.8 36.6 1.3 50.3.7 2.3 7.3 17.8 8.1 18.4ZM885 1559c-5.2 1.1-6.5 7.6-5.8 12.2s5.4 23.4 7 27c1 2.2 6.2 8.5 8.7 6.7 3.4-2.4 3.2-20.7 4.1-25.4-.6-3-7.8-5.5-10-8.3s-4.3-8.6-4-12.2m269.1 45.9c2.7 1.5 7.8-5.3 8.8-7.5 1.5-3.4 6.2-22 6.9-26.2.8-5-.5-8.8-4.3-12.2l-5.1 10.9c-1.4 3.6-9.4 6.1-10.2 8.8-1.2 3.9.5 24.2 3.9 26.2M917 1563c-1.9-2.2-11.8 12.5-12.4 14.1-1.8 4.6-2.9 24.1-2.4 29.3.8 8.6 5.2 18.6 11.4 24.6 1.1-9 4.9-18.4 5.5-27.5.9-13-3.8-27.1-2-40.5Zm218 68c5.2-3.8 9.5-12.5 10.8-18.7 1.4-6.9.7-27.7-1.2-34.3-.6-1.9-10.4-17.4-12.5-15 1.7 13.9-3.1 27.7-2 41.5.7 8.7 4.6 17.6 5.1 26.5zm-186-62c-3.4-3.2-13.6 14.8-14.8 17.7-4 9.9-8.4 31.9-2.7 41.2 2 3.2 16 15.2 19.5 16.5 6 2.4 6.5-2.8 7-8 2.1-23.1-3.5-45.4-9-67.5Zm144.1 75.9c1.1.7 3.6 0 4.8-.4 3.2-1.2 16.9-13.1 18.9-16.1 8.3-13.1-.6-48.3-12.8-57.9-1.8-1.4-3.1-2.8-4.2 0-3.7 9.9-8.2 30.6-8.9 41.1-.3 4.8-.8 31.5 2.1 33.4ZM1018 1613c-3.5 0-6.1 2.5-9.6 2.9-13.1 1.6-28.5-14.2-41.4-15.9v22.5c0 1.1 2.9 9 4.1 9.9 6.5 5.2 18.9-.4 24.4 5.6 2.6 2.9 4.3 10.3 10.6 5.5 1.1-.8 11.9-13.1 11.9-14.1v-16.5Zm64-13c-13.3 1.4-27.9 17.6-41.4 15.9-3.5-.4-6.1-3-9.6-2.9v17.5c4.1 2.4 11.4 14.9 15.4 14.5 5.4-.5 6.1-8.2 10.5-9.6 5.4-1.7 16.2 1.1 21-3 1-.8 4-9.7 4-11v-21.5Z" class="outline" data-original-prefix="outline"/><path id="outline-mouth2" fill="#000000" d="M1011 1292c-6.2 1-21.6 9.8-26 14.5-2.9 3.1-3.9 7.2-7.2 9.8-18.9.8-35.9 5.2-50.3 17.8-.9-.2-.3-1.9-.5-2 1.1-8.8 19.3-26.2 27.4-25 3.5.5 2.6 4.8 10 4 10.8-1.2 17.8-10.7 19.4-20.7.4-2.5-1.9-5.2 1.2-6.7 4.7-2.2 21.7 4.7 26 8.5z" class="outline" data-original-prefix="outline"/><path id="outline-mouth1" fill="#000000" d="m1122 1332-.5 3c-10.9-11.7-25.5-16-41-18-2.9-.4-6.9.7-9.5-.5-1.5-.7-4.5-7.4-6.5-9.5-3.4-3.8-14.1-10.6-19-12s-4.7-.4-8.6-2.9c4.2-4.1 21-10.8 26-8.5 3.1 1.5.8 4.2 1.2 6.7 1.9 11.3 12.7 24.5 25 19.5 4-1.6 2.6-4.3 9.2-1.6 10.8 4.4 18.3 14 23.6 23.9h.1Z" class="outline" data-original-prefix="outline"/>
    </g><g class="trait-group" data-category="eyes" id="eyes-aviators KBDS">
      <path id="fill-eyes-main" fill="#ffffff" d="M1421.5 1220.6c-.3.6-8.8 2-10.4 2.1-4.8.4-15.8-1.8-18 3-2.8 30-4.2 58.5-16.7 86.3-10.3 23-35.2 57.7-58.2 68.8-30 14.6-98 10-129.5-.9-21.7-7.5-62.4-49.9-79.2-67.8-14.7-15.6-36.7-38.2-49-55-2.3-3.1-2.7-8.1-3-8.5-1-1-6.2 1.2-7.9.5-.6-.3-9.2-8-10-9-4.5-5.8-2.4-10.3-12.6-9.6-6.6.5-5.5 5.8-9.5 10.5-.9 1-8.4 7.8-8.9 8-4 1.5-8.1-3.5-15.1 4-18.2 19.5-35.3 41.4-53.9 61.1-19.6 20.7-56.2 59.4-82.8 67.2-31.3 9.1-92.1 13.6-121.9.5-28.7-12.7-59.2-59.7-67.8-89.2-6.3-21.6-6.6-45.2-9.7-67.3-2-3.1-15.1-2.3-19.2-2.8-1.7-.2-7.5-1.2-8.4-2.1-2.5-2.5-2.8-27.2-4.3-32.3-.2-1.4.3-1.4 1.3-1.8 5.7-2.5 20.8-1.6 25.3-5.7 6-11.4 9.3-26.8 19.4-35.6 2.6-2.2 6.7-2.1 4.6-5.5-2.7-4.3-20 0-21.5-7.5-1.3-6.8 5.7-32 8-39.9 7.8-26.3 27.3-70.8 46.9-90.1 6.5-6.4 7.6-3.2 14.5-4.5 3.3-.6 5.3-6.7 7.5-9.5 40.7-50.5 92.3-93.3 151.6-120.4 80.5-36.8 209.6-37 290-.3 59.2 27 110.4 69.5 151.3 119.7 2.3 2.8 5.7 9.9 8.6 10.5 7.2 1.4 8.7-2.3 15.5 4.5 24.3 24 47.4 83.1 53.5 116.5.6 3.2 2 10.7 1.4 13.5-1.6 8.2-20.9 1.9-22.8 8.2-1.9 6.2 5.4 12.9 8.3 18.3 2.4 4.4 8.1 20.4 9.9 22.1 4.7 4.2 23.9 4.2 25.1 5.9 1.8 11.6-1.8 22.9-2.4 34.1" class="fill" data-original-prefix="fill"/><path id="fill-eyes-rims" fill="#ffffff" d="M1415.7 1206.8c-.2-3-.4-6.1-.6-9.1-.3-5.7-4.5-10.5-10.5-10.5h-6.3c-1.2 0-2.4.2-3.4.5-.9-.3-1.9-.6-2.9-.8-2.3-.3-4.7-.3-7.1 0 2-23.3-16.1-42.7-36.1-51.8-11-5-22.6-8-34.3-11.1-12.5-3.2-24.9-6.7-37.4-9.7-8.8-2.2-17.6-3.5-26.5-4.3 2.5-6.2-.6-14.9-9.3-14.9-85.4 0-170.8.3-256.2.4h-68.7c-1-.3-2.2-.5-3.5-.5H808.2c-9.6 0-12.4 10.7-8.3 16.8-10.3 1.4-20.6 3.2-30.8 5.2-24.8 4.8-50.1 10.3-72.3 22.8-11.9 6.7-23.7 15.6-30.8 27.5-2.9 4.9-4.7 10.2-5.6 15.7-1.1-.2-2.3-.4-3.6-.3-3.6.2-6.7 2.1-8.5 4.8-1.5-.2-2.9 0-4.3.2-2.5-1.2-5.4-1.6-7.8-1-6 1.7-8.2 7.3-7.3 12.9.7 4.2 1.3 8.4 1.9 12.7.7 4.6 5.9 7.6 10.1 7.7h3.6c3.3 1.9 5.7 5 7.4 8.5 1.3 2.7 3.9 4.3 6.7 4.9 4.4 36.9 9.5 75.8 31.7 106.7 21.4 29.8 54.4 44.8 90.2 48.7 18.6 2 37.9 1.2 56-3.7 16.9-4.5 32.8-12.5 47.3-22.2 14.8-9.9 28.4-21.5 41.3-33.7s25.6-24.8 36.6-38.7c12.9-16.2 23.6-34 29.3-54 5-17.3 6.2-35.5 4.1-53.3 14.6-1.9 29.3-3.3 44-2.5 4 .2 8 .6 12 1.3.3 0 1.7.3 3.2.7l-1.4 29.7c-.2 3.2.9 5.6 2.6 7.2 2.2 11.9 4.2 24.9 10 35.4 3.2 5.7 7.2 11.1 10.9 16.5 2.2 3.3 4.4 7 6.9 10.4 0 1.6.5 3.2 1.5 4.6 10.8 14.4 24.5 25.8 37.8 37.7 13.4 12 26.5 24.7 41.2 35.2 27 19.4 60.3 29.7 93.5 29.9 2.9 0 5.2-.9 6.9-2.5 15.4-1.6 31-3.4 45.7-8.6 16.6-5.8 29.9-15.5 40.5-29.5 21.2-28 34.4-62.2 39-96.9 1.3-10 2-20 1.8-30.1 0-2.2 0-4.4-.2-6.6.2.2.5.3.8.5 5.8 3.5 13.2 3.4 18.9 0 2.8-1.8 5.2-5.4 5-9zM951.2 1270c-9.4 13.1-20.7 24.8-32.2 36.1-11.2 11-22.7 21.8-35.2 31.3-12.2 9.3-25.6 17.9-39.9 23.4-15.8 6.1-32 8.6-48.8 8.2-29.5-.6-60.2-9.5-80.7-31.8-26-28.3-30.8-69.3-35.2-105.8-.2-1.9-.8-3.7-1.7-5.3q.3-2.25 0-4.5c-.5-3.1-1.1-6.2-1.6-9.3 6-9.2 2.6-20 6.1-29.9 3.1-8.9 11.3-15.5 18.9-20.5 19.3-12.7 42.2-18.1 64.5-22.8 48.7-10.1 100.1-15.6 149.1-4 20.8 4.9 43.5 13.1 54.7 32.6 1 1.8 2.4 3.1 3.8 3.9-.5 1.9-.6 3.9-.2 5.6 6.7 33.2-2.3 65.8-21.6 92.8m110.8-109.7c-.3 1-.5 1.9-.5 2.8-4.3-1.2-9.1-1.7-13.3-2.2-19.8-2.5-39.7-.2-59.4 2.5.2-1.9-.2-3.9-1.4-6-11.7-20.4-32.8-32.1-54.6-38.9l-6-1.8c66.8 0 133.6-.2 200.3-.3-1.7.4-3.3.8-5 1.3-12.5 3.6-24.6 9.6-35.9 16-10.9 6.1-20.3 14.3-24.2 26.6m308 67.1c0 9.5-.8 19.1-2.4 28.5-3.2 18.9-9.2 37.2-18 54.2-8.1 15.6-17.6 32.9-33 42.2-16.3 9.9-36.1 12-54.7 13.9-2.3.2-4.4 1-6.2 2.2-29.3-.5-57.7-9.9-81.5-27-1.4-1-2.8-2-4.1-3.1-1.1-3.4-3.9-6.2-8.2-6.7-8.4-7.2-16.4-14.9-24.6-22.2-10.4-9.3-21.8-18.2-30.9-28.9 0-2.9-.8-5.7-3-7.5-4.3-3.5-7-8.9-10.1-13.5-3.3-4.9-6.9-9.8-9.9-14.9-2.6-4.6-3.4-10-4.6-15.1-1.5-6.5-2.9-13.1-4.2-19.6-.2-.7-.4-1.4-.7-2.1.7-10 1.8-20.3 1.3-30.2 0-1.8-.4-3.4-.9-4.8 3.4-.6 6.5-2.9 7.9-7.1 2.3-7.2 9.6-11.4 15.8-14.8 8.9-4.9 18.1-9.6 27.8-12.6 21.1-6.6 44.6-6.7 66.4-7.6 11.4-.5 22.7-.7 34.1-.8 11.3 0 22.7 0 33.9 2 11.3 2.1 22.4 5.4 33.6 8.3 10.4 2.7 21 5.3 31.3 8.3 17.9 5.3 40.8 16.5 38.6 38.8-.4 4.1 2.5 7.7 6.1 9.4l-.6 1.5c-1.5 4.5 0 9.9.3 14.6.5 5 .6 9.8.5 14.6" class="fill" data-original-prefix="fill"/><path id="fill-eyes-lens1" fill="#ffffff" d="M1179.4 1134.1c40.9-2.7 97.1 4.9 136.2 17.2 22.2 7 37.6 14.4 44.9 38.1 14.9 48.3-2.6 130.7-47 159.8-31.6 20.8-93.5 20.9-124.8-1-21.1-14.8-46.4-35.3-63.6-54.4-29.9-33.2-63.5-74-40-121 15.1-30.3 63.8-36.7 94.3-38.7" class="fill" data-original-prefix="fill"/><path id="fill-eyes-lens2" fill="#ffffff" d="M834.5 1134.1c35.7-1.8 110.2 1.6 129 37.4 25.1 47.6-10.3 90.4-40.8 123.8-16.7 18.3-57.6 53.5-80 62-40.4 15.3-96.8 9.2-126-25-28.6-33.3-50.7-133.3-14.9-165.9 21.7-19.9 102.6-30.8 132.7-32.3" class="fill" data-original-prefix="fill"/><path id="shading-eyes15" fill="#aaaaaa" d="M1068 1185c4.4 6.7-1.2 7.5-2 11.5-2.6 13.5 4.2 36.9 3.5 51.4 26.1 33.1 54.5 68.2 87.6 94.4 9.4 7.5 24.7 19.5 35 25 22 11.8 82.3 10.8 107.3 6.4 5.1-.9 19.6-6.7 22.7-3.4 3.6 3.9-1.3 5.4-4 7-23.1 13.8-56.4 9.4-82.5 7.5-12.8-.9-39-2.2-50.2-5.8-8-2.6-29.2-21.2-36.3-27.7-26.1-23.9-48.5-51.5-74-76-13.8-13.2-29.1-24.5-42.5-38.5-1.1-1.2-2-3.4-2.9-4.1-.8-.6-7.7-1-9-.9-2 .2-17 17.3-20.5 20.5-7.2 6.4-16.1 11.4-23 17.9-33.4 31.5-60.8 69.3-97.5 97.5-19.5 15-31 13.9-55 16-22.9 2-62 6.4-83-1-2.1-.7-15.4-7.1-16-8-2.2-3.6 1.6-6.1 4.9-6 3.6 0 7.3 2.8 10.6 3.5 28.8 6.1 75.6 6.2 104.3-.8 9.4-2.3 18.7-9.8 26.7-15.3 26.6-18.6 50-41.2 71.6-65.4 5.6-6.2 34.7-40.5 35.4-45.6 2.3-15 1.5-32.7 3.1-48 .5-3.2-3.9-4.3-4.1-7-.2-2.5 2.2-3.2 2.1-5.4-4.5.8-11-4.6-6.6-8.1 3.7-2.9 4.7 2.1 7.3 2.9 5.5 1.7 7-1.6 10.8-2.8 29.1-9.3 36-9.4 65.1 0 3.7 1.2 5.2 4.5 10.8 2.8 2.2-.7 3.1-4.4 6-3.7 5.7 1.9 0 10.6-5.7 9.2m-30 0c-9.5-1.8-18.7-3-28 .5 5.4 1.1 7.7 5.6 9.3 10.7 1.5 4.7-1.1 8.7 6.2 7.9 2.9-.3 2.4-5.8 3.4-8.6.6-1.7 2.2-5.7 3.2-6.8 2-2.5 4.8-1.4 5.9-3.7m15 12c-.2 0 0 1.8-1 2.4-7.9 5.8-11.5 9.7-21.5 9.6-5.1 0-8.6-.2-13.9 0-11.1.4-14.8-6.6-23.5-12.1l-3 30c2 2 17.7-4.1 21.5-4.1 5.8 0 8.3 4.7 16.8 2.9 1.8-.4 3.2-1.9 4.7-2.3 7.2-2 17.2 4.9 25 3.5l-3-29.5c0-.8-2-.5-2.1-.4" class="outline shading" data-original-prefix="shading" opacity="0.5" style="opacity: 0.5"/><path id="shading-eyes14" fill="#aaaaaa" d="M1119 1095c10.8-7.5 22.7-13.9 34.3-20.2 23.5-12.8 49.4-20.6 66.1-41.9 11.6-14.8 20.3-27.2 12.4-46.3-12.8-31.1-52.4-80.9-79.9-100-14.9-10.4-32.6-16.6-45.9-29.1 9.3.7 20.3 4.3 29.5 7.5 66.1 22.7 136.7 74.8 177.9 131.1 2.8 3.8 12.4 14.4 8.3 18.7-3.2 3.3-25.6 8.5-31.7 10.8-38.2 14.4-82.4 31.5-116.9 53.1-3.8 2.4-21.2 16.4-22.6 16.4H1119Z" class="outline shading" data-original-prefix="shading" opacity="0.5" style="opacity: 0.5"/><path id="shading-eyes13" fill="#aaaaaa" d="M897.5 1095c-1.5-.4-19.2-14.3-23.2-16.8-34.2-21.3-79.2-38.9-117-53-5.4-2-30-7.6-31.8-11.2-1.9-3.9 2.8-9.6 5.1-12.9 27.2-39.7 72-78.2 113.1-102.9C873.9 880 907.3 864 942 857c-12 12.1-28.8 18.2-42.9 27.6-25.1 16.6-49.7 46.7-66.1 71.9-4.3 6.6-20.6 33.7-20.8 40-.5 14.1 11 30.6 19.9 41 15.3 17.9 40.9 24.1 60.6 36.4L929 1095c-8.1-1.5-24.5 2-31.5 0" class="outline shading" data-original-prefix="shading" opacity="0.5" style="opacity: 0.5"/><path id="shading-eyes9" fill="#aaaaaa" d="M1254.8 1109.8c-.2.4-7.5 3.9-8.3 4.2-7 2.4-26.3.2-35 0-34.8-1-70.2-1.7-105-2-20.2-.2-40.1 1-60 1-70.4 0-140.6-1.1-211.1 1-8.6.3-27 2.4-34 0-.8-.3-8-3.8-8.3-4.2-.7-1.2-.4-6.1.8-7.4 3.3-3.4 9.3.3 13.5.6 27.4 1.9 59.2 1.5 87 2 89.1 1.7 177.1.6 266-1.1 25.9-.5 54.5.8 80.1-.9 3.7-.3 11.5-4.2 14 0 .7 1.3 1 5.9.3 6.9Z" class="outline shading" data-original-prefix="shading" opacity="0.5" style="opacity: 0.5"/><path id="shading-eyes8" fill="#aaaaaa" d="M768 1115c.3 1.4-1.1 1.1-2.2 1.3-18.2 4.5-36.7 6.8-55 12-5.2 1.5-14.4 6.4-18.8 5.3-3.5-.9-8.9-4.9-12.3-6.7-1.4-.7-7.4-2.5-7.7-2.8-1.4-1.9 3.7-3.1 4.9-4.6 4.7-5.7 8.4-20.1 13.3-26.7 1.1-1.5 1.3-2.2 3.4-2.6 4-.8 27.7-.5 31.5.4z" class="outline shading" data-original-prefix="shading" opacity="0.5" style="opacity: 0.5"/><path id="shading-eyes7" fill="#aaaaaa" d="M1376 1124c-.3.4-6.9 2.3-8.4 3.1-3.3 1.7-8.2 5.5-11.6 6.4-4.4 1.2-13.6-3.8-18.8-5.3-18.3-5.2-36.4-7.3-54.4-11.6-1-.2-3-.3-2.8-1.7l42.7-24.8c5.9.5 30.6-1.8 33.8.8 4.6 3.8 9.2 22.8 14.6 28.4 1.3 1.4 6.2 2.9 4.9 4.7" class="outline shading" data-original-prefix="shading" opacity="0.5" style="opacity: 0.5"/><path id="shading-eyes6" fill="#aaaaaa" d="M1075 1141c1.6-3.5 12.5-25.6 14-26.5 1.9-1.1 14.6-1.1 16.1.9 6.7 8.5-8.9 12.6-13.8 15.4z" class="outline shading" data-original-prefix="shading" opacity="0.5" style="opacity: 0.5"/><path id="shading-eyes5" fill="#aaaaaa" d="M945 856c.7.3-.6 1.7-2 1-.7-.4.6-1.7 2-1" class="outline shading" data-original-prefix="shading" opacity="0.5" style="opacity: 0.5"/><path id="shading-eyes4" fill="#aaaaaa" d="M1105 856c.7.3-.6 1.7-2 1-.7-.4.6-1.7 2-1" class="outline shading" data-original-prefix="shading" opacity="0.5" style="opacity: 0.5"/><path id="shading-eyes3" fill="#aaaaaa" d="M958.8 1114.2c1.4.8 13 24.2 14.7 27.8-3.8-2.6-7.3-5.4-11.2-7.8-3.7-2.2-18.8-9-19.8-11.2-1-2.3-1.1-7.2 1.5-8.5 1.5-.7 13.7-.9 14.8-.3" class="outline shading" data-original-prefix="shading" opacity="0.5" style="opacity: 0.5"/><path id="shading-eyes1" fill="#aaaaaa" d="M721.5 1346c.7.3.7.7 0 1z" class="outline shading" data-original-prefix="shading" opacity="0.5" style="opacity: 0.5"/><path id="outline-eyes16" fill="#000000" d="m1249.1 1368.1 82.7-212.5-25.7-9.4-87.4 219.5c-7.7-3.2-18.2-4.6-25.4-8.6-1.1-.6-19.3-14.2-19.1-15.8l86.6-206.4s15.2.6 48.8 8c60.3 13.2 64.8 33 59.7 99.4-11.7 55.2-18.2 89.4-68.9 119.4-12.1 4.8-24.6 6.4-37.4 7.2l-13.9-.9Z" class="outline" data-original-prefix="outline"/><path id="outline-eyes12" fill="#000000" d="M875.3 1338.3c-4.1 3.7-6.6 10.1-9.4 13.1-1.1 1.2-9.2 6.5-7.7 1.3l79.9-204.7c2.3-1.9 13.8 7.4 16 9.4 16.1 14.9 20.1 37.7 17.9 58.9-3.8 35.8-44.3 79.1-70.9 102.1-8 7-18.5 13.3-25.8 19.9" class="outline" data-original-prefix="outline"/><path id="outline-eyes11" fill="#000000" d="m784.3 1368.4 95.9-236.5c9.8 2.2 8.6 2.1 18.4 4.1 1.2.2 1.8-.8 1.5 1.5L808.5 1369c-5.9 0-24.3.3-24.2-.6" class="outline" data-original-prefix="outline"/><path id="outline-eyes10" fill="#000000" d="M1136.2 1311.7c-.8 0-35.9-42.4-37.2-44.2-6.1-8.5-13.4-18.9-17-29-7.5-20.7-9.4-43.8 0-64.2 15.6-34.6 70.6-44.3 129.8-44.4l-75.5 181.8z" class="outline" data-original-prefix="outline"/><path id="outline-eyes2" fill="#000000" d="M808.9 1133.7c-21.2 48.4-63.1 163.8-83.9 212.3-2.7 6.2-30.9-43.2-29.9-36.5.6 4.2-3.7-7.4-9.7-36.4-13.8-66.2-21.8-112.9 49.5-132.8 38.3-10.7 74.1-14.7 74-6.6" class="outline" data-original-prefix="outline"/><g id="outline-eyes" class="outline" fill="#000000"><path id="outline-eyes21" fill="#000000" d="M993 1256c-1 4-2 4.8-4.5 8-14.2 18.2-34.4 39.6-50.5 56.5-17 17.9-47.1 49.2-67.7 61.3-24 14.1-91.5 17.2-118.5 11.9-29.6-5.8-47.2-25.6-64-49-25.1-35-31.7-73.2-32.8-115.7h-17.5c-.5 0-7.7-1.5-8.3-1.7-4.5-2-5.8-20.7-6.2-25.8-.3-3.7-1.6-15.3.5-17.5 3.5-3.7 22.8-2.9 26.3-6.2 1.1-1.1 2.7-8.4 3.7-10.8 3.6-8 7.8-15.8 13.5-22.5-14.5-3.8-23.3 2.8-22-17 1.8-29 22-77.6 37.6-102.4 4.3-6.9 20.8-32.7 28.8-32.1 2.1.2 3.9 2.7 5.6 1.6.5-.3 4.7-7.4 6-9 42.4-52.1 97.9-98.4 160.3-124.7 80.6-34 211.7-32.3 291 4.3 44.4 20.5 92.8 56.2 126.2 91.8 6.8 7.2 23.5 25.4 27.9 33.1 1.2 2 1.8 3.5 1.6 6 3.5-.3 5.5-3.6 9.3-2.8 1.8.3 7.3 4.8 8.8 6.3 11.7 11.9 33.9 51.3 39.6 67.4 4.9 13.6 16.7 54.3 16.1 67.4-.6 12.3-13.3 7.2-21.8 9.8-1.2 1.5 3.7 6.8 4.8 8.7 3 5.3 6.6 11.9 9.1 17.1.9 1.9 1.5 7 2.3 8 3 3.5 25 2.6 26.6 6.9.4 1.1 0 3 0 3.3l-3 34c-.5 1.2-.2 2.5-1.3 3.7-4.4 5.2-23.1 1.8-25.6 3.4-.4.3-.7 5.3-.8 6.5-.7 9.2-1 10.5-2.1 20-.2 1.5-1 7.5-2.2 14.4-7.3 46.4-41.9 113.1-92.2 123.3-27.5 5.6-95 2.9-119.5-11.1-25.2-14.4-61.4-54-81.8-76.2-11.4-12.4-29.7-31-38.9-44.1-3.2-4.5-2.7-6-3.6-10.9-3.9-20.4-3-38.7-5-58.5-.2-1.4-.8-5.7-1.5-6.5-3-3.8-26.8-4.4-32-4-3.8.3-14.8 2.1-16.1 5.9-.7 11.2-.5 22.4-1.5 33.6-.7 9.7-2.3 24.8-4.8 34.3zm-195.5-165H888c-10.2-9.4-23.2-15.1-33.9-23.6-1.1-.9-8.4-6.1-7.1-7.4 21.5 6.1 37.4 23.6 58.6 30.9h236c22.1-5.8 38.1-24.5 59.9-31 1 2.5-4.7 5.9-6.6 7.4-10.8 8.4-23.7 14.3-33.9 23.6h91.5c.5 0 5.1 5.2 5.7 6.3 1.5 2.9 1.8 10.4 2.4 10.8 2.4 1.4 18.4 2.4 22.7 3.1 19.7 3.2 40.8 7.2 59.8 13.2 3.1.9 12.4 5.7 14.3 5.7s14.7-7.8 18.5-8.6c1-14.6-5.9-28.1-11.9-41-3.3-7.2-7.2-15-11-22-2.4-4.5-16.1-28.6-18.6-30.4-2.9-2.1-20.6-1.2-25.1-.9-14.3.9-28.6 3.6-42.5 7-1.9-1.7 12-11.3 13.3-12.2 8.4-5.8 17.8-10.6 26.8-15.4-4.4-19.8-20.1-36-34.6-49.4-58.1-53.7-155.6-100.6-235-104-90.4-3.8-194.3 42.3-260.5 102.5-14.8 13.4-31 29.9-35.9 49.9 9 5.9 18.8 10.3 27.6 16.4 1.3.9 15.2 10.6 13.3 12.2-13.9-3.4-28.2-6.1-42.5-7-4.5-.3-22.2-1.2-25.1.9-2.5 1.8-16.2 25.9-18.6 30.4-3.8 7-7.7 14.8-11 22-5.9 12.8-13 26.6-11.9 41 3.1.7 16.9 8.6 18.4 8.5 1.6 0 11.5-5.1 14.9-6.1 26.3-8 53.9-11.8 81.1-15.7 1.2-.6.2-15.3 10.4-17.1m21.5 9h-16.5c-4.4 0-4.4 9-2 9H816c.5 0 2.3-7.9 3-9m404 9c.5-4.6-1.9-7.1-6-8.5H830c-3.9 1.8-4.8 4.8-6 8.5zm22.5-9c-4.7-.9-11.5.6-16.5 0 .5 1.5 2.6 9 3.5 9h15c2.2 0 2.5-8.2-2-9m-451.7 17.3c-27.5 2.3-85.6 15.5-108.1 30.9-17.2 11.7-21.7 48.9-21.7 68.4-.2 51.9 12.7 106.6 51.5 143.5 34.7 33 102.4 26.3 144 10 25.7-10.1 68.2-56.5 88-78 7.7-8.4 28.7-30.1 33.4-38.6 3.5-6.4 6.5-45.2 7.1-54.9s-7.1-7.4-7.9-4.8c-.3.8 1.1 10.8.9 13.8-2.8 50.6-57.6 103.7-95.5 133.5-41.3 32.5-108.5 45.8-155.4 17.4-48.2-29.2-73.2-143.5-44.2-191.1 8.5-14 33.7-22.3 49-27.1 54.7-17.2 174-27.9 220.2 11.2 2.6 2.2 12.7 14.2 13.6 14.4.6 0 9.7-4.7 11.3-5.5-10.2-22.7-43.3-32.7-66-37.9-32.6-7.6-86.5-8-120.2-5.2m273.1 74.8c-.8-.5-5-.3-5.9.3-1.3.9-1 3.6-1 5.1 0 12 2.4 30.7 4.2 42.8.4 2.7.7 6.3 1.3 8.7 1.9 7.2 28.3 35.6 35 43 21.6 23.5 62.8 69.1 91.8 79.2 34.2 12 96.1 19.8 127.5-1 26.7-17.7 46.4-53.3 55.5-83.5 9.2-30.4 14.1-104.1-4.8-130.7-7.2-10.1-36.4-21.9-48.7-25.3-54.7-15.5-139.3-21-194.2-6.7-16.9 4.4-45.7 14.5-56 29-7.8 10.9.2 7.8 7.8 12.9 21.9-30.3 61.3-36.4 96.1-39.9 48.3-4.9 131.7 3.4 173.8 29.2 28.1 17.2 27.4 67.3 23.6 96.2-5.3 39.8-28.8 99.1-69.3 113.7-82.7 29.8-142.3-17-194.5-74.5-21.3-23.4-39.8-49.1-42-82-.3-2.9.9-15.8-.2-16.5m28.1-73.1H954c3.5 8.3 13.6 11.1 20.5 17 7.4 6.2 13.3 14.2 19.1 21.9l58.9.2 2.9-1.1c5.2-8.5 12.3-16.7 20.2-22.8 4.7-3.6 13.8-7.5 17.3-10.7 1.2-1.1 2.3-2.8 2.1-4.5m-261.2 15.3c-30.1 1.5-110.9 12.4-132.7 32.3-35.8 32.6-13.7 132.6 14.9 165.9 29.2 34.1 85.6 40.3 126 25 22.4-8.5 63.4-43.7 80-62 30.5-33.4 65.9-76.2 40.8-123.8-18.9-35.8-93.4-39.2-129-37.4m345 0c-30.6 2.1-79.2 8.5-94.3 38.7-23.5 47 10.1 87.9 40 121 17.2 19.1 42.5 39.6 63.6 54.4 31.3 21.9 93.2 21.8 124.8 1 44.4-29.2 61.9-111.5 47-159.8-7.3-23.7-22.7-31.1-44.9-38.1-39.1-12.3-95.3-19.9-136.2-17.2m-106.1 37.9c-1.2-1.1-8.5-2.6-10.5-2.9-19.1-3.4-64.9-4.5-83 1.4-3.8 1.2-5.3 1.4-5.3 5.8 0 9.1 6.6 8.9 14.2 7.1 4.5-1.1 8.5-6.5 14.1-7.9 10.5-2.6 39.3-2.8 48.5 2.1 7.3 3.9 9.2 8.3 19.8 6.2 3.5-.7 4.5-9.7 2.2-11.8M636 1196.5c-.7 2.2 0 13.5 0 17s14.9.4 18 1.5c-1-2.1 1.7-22.1.5-22-3.2 1.8-17.4 0-18.5 3.5m776 17c.8-2.7 0-13.2 0-17s-16-1.9-18.5-3.5c-1.2 0 1.5 19.9.5 22 3.9-1.3 16.8 2.8 18-1.5" class="outline" data-original-prefix="outline"/><path id="outline-eyes1" fill="#000000" d="M998 1252c11.2-12.1 21.2-29.1 19.5-46 5.4 3.1 9.1 2.3 14.5 0-2.8 10.5 3 24 8.8 32.7 1.6 2.5 10.1 11.5 10.2 12.3.6 3.3-5.9 8.9-7 8-.9-5.7-7.9-7.8-12-12.5-1.3-1.5-3.3-4.1-4.3-5.8-1.4-2.5.7-4.5-4.3-3.8-2.1.3-5 8-7.5 10.6-3.5 3.8-10.8 6.1-11 11.5-1 1-7.1-4.8-6.9-7" class="outline" data-original-prefix="outline"/></g><path id="fill-eyes-logo-kbds5" fill="#ffffff" d="M1842 1875.7h6.2c6.4 3.1 12.7 6.3 19.2 9.3 2.3 1.1 4.7 2.2 7.4 1 7.2-3.4 14.5-6.9 21.7-10.3h6.2c3.3 1.1 6.7 2.2 9.9 3.4 4.9 1.8 9.9 3.6 11.9 9.3.8 2.2 1.7 4.2 2.9 6.2 2.1 3.7 4.2 7.4 9.3 7.5 9.3 0 18.6.4 27.9.6 3.1 0 5.5 1.3 7.1 4 4.3 7.1 8.6 14.2 12.9 21.2v16.8c-.2.4-.5.7-.6 1.1-2.6 9.4-7.8 16.9-16.3 21.9-7.2 4.3-14.8 2.5-22.4 2-4.3-.3-8.6-.6-12.9 0-1.6.2-3.8 2.2-4.3 3.8-.8 2.3 1.4 3.6 3.5 4.6 4 1.8 8.1 1.6 12.2 1.6s4.2.9 4.6 3.4c.3 2.3-1 3.8-3 4.6-1.4.6-2.9 1.1-4.4 1.4-7.6 1.6-15.2 3.3-22.9 4.5-9.5 1.4-20.4 2.9-29.9 4.1-.5 0 .5-.3 0 0h-31.4c-2.1-.2-4.3-.4-6.4-.6-8-1.1-16.1-2-24-3.4-8.6-1.6-17.2-3.6-25.7-5.6-3.1-.7-4.6-2.8-4.1-4.9.5-2.5 1.9-3.4 5.5-3.4s8.1 0 11.9-1.8c2-.9 3.8-2.6 2.9-4.7-.6-1.6-2.8-3.5-4.3-3.6-6-.2-12.2-.4-18.2.6-11.7 1.9-20.8-2.4-27.2-11.6-2.9-4.2-4.6-9.2-6.9-13.8v-16.8c4.3-7.1 8.6-14.1 12.9-21.2q2.25-3.75 6.6-3.9c7.5-.3 15.1-.4 22.6-.6h5.6c3.2 0 5.8-1.2 7.4-4 1.8-3.3 3.6-6.6 5.3-9.9 1.6-3.2 3.4-6 7.1-7.2 4.9-1.6 9.7-3.5 14.5-5.3zm30.3 111.9c7.6-1 15.3-1.4 22.7-3 12-2.7 20.6-9.6 23.1-22.3 1.6-8.5-1.4-11.8-8.9-11.8s-10.2.5-15.3.4c-2.2 0-4.6-.7-6.6-1.6-9.2-4.2-18.7-4.9-27.8-.7-7.6 3.5-15.2 2.2-22.9 1.9-5.6-.2-10.3.9-10.4 8.2 0 10.5 7.8 20.6 18.5 24.4 8.9 3.2 18.2 3.7 27.6 4.5m-78.6-71c-9.6 0-15.4 3.9-20.3 10.1-3 3.7-5 8.2-4 13.5 2.3 12.1 13 20.3 24.6 20.2 8.3 0 15.3-3.9 20-11 2.4-3.6 4.4-7.6 4-12-1.2-12.1-12.7-21.2-24.4-20.8zm157.1-.2c-1.9.3-3.8.4-5.7.8-11.9 2.5-24.4 16.9-15.3 31 5.2 8.1 12.7 12.4 21.9 12.1 9.5-.3 17-5.3 21.3-14 1.4-2.9 2.8-6.5 2.4-9.4-1.8-11.9-12.7-20.7-24.6-20.5m-107.2-23.3c-6.5-.4-12.3 1.8-17 6.2s-8.5 9.6-7.1 16.6c2 10.2 10.8 18.3 21.4 19.3 10.9 1 19-3.9 24.4-13 2-3.3 3.3-7 2.3-11.1-2.7-10.8-13.7-18.8-24-18m57.4 0c-8.3-.4-14.7 3.2-19.7 9.4-3.5 4.3-5.8 9.3-3.9 15.1.7 2.2 1.7 4.5 3 6.4 4.5 6.6 10.7 10.8 19 11.3q13.8.75 21.9-10.5c2.7-3.7 4.9-8 4.1-12.4-2.1-11.5-12.6-19.8-24.4-19.3" class="fill" data-original-prefix="fill"/><path id="fill-eyes-logo-kbds4" fill="#ffffff" d="M1804.6 1953.4c-.3 0-.7.2-1.2.2s-1.2-.2-1.8-.5c-.7-.3-1.1-.5-1.1-.5s-.4.2-.9.5-.8.5-.9.5h-1.3c-.4 0-.5-.3-.3-1 .2-.9.3-1.4.3-1.7 0-1.4-.9-3.8-2.7-7l-2.8-5.1s-.3 0-.5.3c0 .4-.4.9-.6 1.6-.4 1.5-.6 3.1-.6 4.7 0 3.4.6 6 1.7 7.7-.2.4-.8.6-1.7.6s-1.1-.2-1.7-.5-.9-.5-1-.5-.5.2-1.2.6-1.1.6-1.3.6c-.4 0-1-.2-1.7-.7 1.1-2.4 1.7-5 1.7-7.9s-.2-2.6-.7-4.3-.7-2.5-.7-2.4c0 0 0-.4.4-.9.2-.5.4-.8.4-.9.5-1.8.7-3.4.7-4.9q0-4.35-1.5-7.2v-.6q1.05-.3 1.5-.3 1.05 0 2.7 1.2c.2 0 .6-.3 1.1-.8.5-.3 1-.4 1.4-.4h1.2v.4c0 .3 0 .8-.4 1.4-.2.6-.4 1-.4 1.2q-.6 3.3-.6 4.8c0 3.6.4 5.5 1.3 5.9.2 0 .4 0 .5-.4.4-.7 1.3-2.6 2.8-5.5 1.4-2.8 2.2-4.6 2.2-5.3s-.2-1.2-.7-2.1c.4-.4.7-.6 1.1-.6.7 0 1.3.2 1.9.6s.9.6 1 .6.4-.2.8-.6.7-.6.9-.6h1c-.4.7-1 1.7-1.6 3 0 .2-.3 1.7-.8 4.6-1.7 1.1-3 2.6-4 4.4s-.7 1.4-.7 1.7c0 .6 1.2 1.8 3.7 3.6.7 2.7 1.2 4.8 1.8 6.3.9 2.5 2 4.6 3.2 6.2Z" class="fill" data-original-prefix="fill"/><path id="fill-eyes-logo-kbds3" fill="#ffffff" d="M1853.1 1919.7s0 .3-.2.5c0 .2-.2.4-.3.5v2.3c0 .7-.2 1.3-.6 2-1.4 2.5-4.3 3.8-8.9 3.8s-2.9 0-3.9-.3c0 0-.5-.2-1.1-.5s-1-.4-1.1-.4-.4 0-.8.4-.7.5-.8.5h-1c-.7 0-1.2 0-1.5-.2 0-.3 0-.9.3-1.8.4-1.1.6-1.7.6-1.9.3-1.9.4-3.5.4-4.6q0-3.3-.9-5.7c0-.4-.2-.7-.4-1 0 0 0-.5.4-1.2s.4-1.1.5-1.3c.3-1.3.4-2.7.4-4.2s-.2-2.5-.6-4.2-.6-2.6-.6-2.8v-.9h1.2c.7 0 1.6.3 2.8 1 0 0 .6-.2 1.4-.5s1.4-.5 1.5-.6c.6 0 1.5-.2 3-.2 2.6 0 4.7.5 6.4 1.4 2.1 1.2 3.1 2.9 3.1 5.3s0 .5.3.9q.3.6.3.9c0 .3 0 .4-.3.8-.2.4-.3.7-.4.9 0 1.2-.3 2.1-.6 2.6-.5.7-1.1 1.2-2 1.5-.7 0-1.3.3-2 .4v.3c1.3.4 2.1.7 2.3.8 1 .5 1.6 1.2 1.9 2 0 .6.2 1.5.4 2.6.3.7.5 1 .5.9zm-6.1-12.3-.2-.2c0-.6.2-1.2.2-1.7 0-2.1-1.2-3.1-3.5-3.1s-3.7 1.7-3.7 5 1.2 5 3.7 5 3.5-1 3.5-3.1 0-1.1-.2-1.7zm.3 14.4c0-.2 0-.6-.3-1.1-.2-.6-.3-.9-.3-1.1s0-.5.3-1c.2-.5.3-.8.3-1 0-2.2-1.2-3.3-3.5-3.3s-4.1 1.8-4.1 5.4 1.4 5.7 4.1 5.7 1.9-.3 2.6-.9c.6-.6 1-1.5 1-2.5v-.2Z" class="fill" data-original-prefix="fill"/><path id="fill-eyes-logo-kbds2" fill="#ffffff" d="M1912.5 1913.1s0 .4-.4 1-.4.9-.4 1v6.7c0 .4-.2 1.2-.6 2.1-1.1 3.1-4.1 4.6-9 4.6s-3.2-.3-5-.8l-.9-.4s-.4.3-1.7.9h-1c-.7 0-1.2 0-1.5-.3v-.6s0-.3.3-.7c.2-.3.3-.6.3-.6l.8-3.4v-2.7c0-1.5-.3-3.7-.9-5.7q-.6-.6-.6-1.2c0-.6 0-.5.4-1s.5-.9.5-1c.4-1 .6-2.6.6-4.7s-.5-4.8-1.5-7.7c.7-.3 1.2-.4 1.5-.4.7 0 1.7.3 2.9 1 0 0 .5-.2 1.3-.5s1.2-.5 1.5-.6c.6 0 1.6-.2 3-.2s3.1.2 4.6.7c.6.2 1.3.6 2.1 1.3s1.4 1.3 1.6 1.8c.8 2 1.2 3.1 1.2 3.2v5.9s0 .5.4 1 .4.9.4 1v.3Zm-6 5.3c0-2.2 0-3.5-.2-4-.3-1-.5-1.4-.5-1.2 0 0 0-.5.3-.9.2-.5.3-.8.4-1v-2.7c0-1.5 0-3.2-.4-3.9-.5-1.5-1.7-2.2-3.5-2.2s-3.1.6-3.5 1.9c0 .4-.2 1.8-.2 3.9v3.6s0 .4.3.7c.2.3.3.6.3.7s0 .4-.3.7c-.2.3-.3.6-.3.8v6.2c0 2.9 1.2 4.3 3.6 4.3s3-.9 3.6-2.6c.3-.8.4-2.2.4-4.3" class="fill" data-original-prefix="fill"/><path id="fill-eyes-logo-kbds1" fill="#ffffff" d="M1961 1945.2c0 2.9-.9 5-2.7 6.5-1.7 1.4-3.9 2.1-6.8 2.1h-1.9c-.5 0-1.7-.3-3.4-1-1.8-.7-2.9-1-3.4-1s-1 0-1.3.2c0 0-.2-.2-.2-.4s.2-.6.7-1l1.2-.9c-.2-.4-.5-1.1-.8-2l.2-1.2c2.4 2.8 5.3 4.2 8.6 4.2s4.9-1.4 4.9-4.2-.5-2.5-1.5-3.4-2.2-1.4-3.6-1.4-.8 0-1.1.2c0-.7-.8-1.4-1.8-2.3-.8-.6-1.6-1.1-2.5-1.7-1-1-1.7-1.8-2-2.5-.4-.8-.7-1.9-.7-3.1q0-3.6 2.4-6c2.4-2.4 3.6-2.4 6-2.4s2.4.3 4 .9q2.7 1.05 3.9 1.2c-.4.4-.8 1.1-1.3 1.9 0 .8-.2 1.7-.4 2.5-.4-.4-1-1-1.7-1.8-1.1-.9-2.4-1.4-3.9-1.4-2.9 0-4.3 1.3-4.3 4s.4 2.2 1.3 3c.8.8 1.9 1.2 3.1 1.2s.9 0 1.4-.2c.2.8.9 1.5 1.9 2.3.9.5 1.8 1 2.6 1.6 2.2 1.5 3.3 3.6 3.3 6.2h-.2Z" class="fill" data-original-prefix="fill"/><path id="fill-glasses-logo9" fill="#ffffff" d="m743.5 1162.1-.5-1.7-.6-.9c0-.2-.3-.3-.7-.4s-.5-.2-.7-.2l-1.5.2c-.5 0-.7 0-.9.3 0 0-.2 0-.4.4-.2.2-.3.2-.3.2h-.9c-.1 0-.3 0-.5.3.5.7.9 1.5 1.1 2.2s0 1.1.2 1.5v.7s0 .2.4.4c.4.6.5 1 .7 1.6s0 .7 0 .8l.2 1.3v.5h.8c.3-.3.4-.5.5-.5l1.8-.2c1.5-.4 2.3-1.2 2.3-2.2v-.7l-.7-2v-.7s-.2 0-.3-.3c0-.2-.2-.3-.2-.3h.2-.2v-.3zm-.8 3.9c0 .5-.3.8-.8 1s-1.1 0-1.3-.9v-.7c0-.7-.3-1.1-.4-1.2v-.9s0-.5-.3-1.1 0-1.1-.2-1.2c0-.4.3-.6.8-.8s.9 0 1.2.4c0 .2.3.6.5 1.1s0 .7 0 .8v.6l.2.3s.3.5.5 1.1 0 1.1.2 1.3h-.3l-.2.2Z" class="fill" data-original-prefix="fill"/><path id="fill-glasses-logo8" fill="#ffffff" d="M749.9 1160.9c-.3 0-.6 0-.9-.3-.3-.2-.6-.3-.8-.5h-1.4c-.3 0-.6-.4-.6-.7 0-.8 0-1.2.9-1.5s.9 0 1.2 0 .5.2.7.4v-1.4h-1.2l-1.3.2c-.8 0-1.2.7-1.6 1.3-.3.6-.4 1.4 0 2s.3.7.5.9c0 .2.4.3.8.6.3 0 .6.2.8.3.4 0 .6.3.7.5h1.4c.3 0 .6.4.7.8 0 .8 0 1.3-1 1.6s-1.9.3-2.9-.5v.4c0 .2.3.4.4.5l-.3.3c0 .2-.2.3 0 .4v.2h.4c.4 0 .5 0 1.1-.2s1 0 1.1 0h.6c.9-.4 1.5-.9 1.8-1.4.4-.7.5-1.4.2-2.2s-.8-1.3-1.6-1.6h.4-.1Z" class="fill" data-original-prefix="fill"/><path id="fill-glasses-logo7" fill="#ffffff" d="M713.3 1174.7c-.3-.4-.6-.9-1-1.7-1.2-.4-1.4-.6-1.4-.7v-.5c0-.6.3-1.2.7-1.6l-.2-1.4c0-.4 0-.8.2-1h-.4l-.3.3-.2.2h-.9c-.1 0-.3 0-.4.3.2.2.4.4.4.6s0 .8-.2 1.7c-.2 1-.3 1.7-.4 1.9-.2 0-.4-.2-.8-1.5s0-.8-.2-1.5v-.9h-.5c-.2 0-.3 0-.4.3 0 .2-.2.2-.2.3-.4 0-.7-.2-.9 0s-.2 0-.5.3v.3c.5.4.9 1.1 1.1 2s0 1 .2 1.5v.6s0 .3.4.7c.3.5.5.8.6 1.2l.3 2.5h.6l.4-.3c.2-.2.3-.2.3-.2h.9c.3-.2.5-.2.5-.5-.4-.3-.9-1.1-1.2-2.1s0-1-.2-1.5v-.5l1.3 1.2q1.2 1.2 1.5 1.8c.3.6 0 .2 0 .5v.3h.5l.3-.3.2-.2h.9c.2 0 .3-.2.4-.2-.5-.3-1-.9-1.5-1.5v-.5h.1Z" class="fill" data-original-prefix="fill"/><path id="fill-glasses-logo6" fill="#ffffff" d="M721.2 1171.3c0-.3-.3-.6-.4-.8 0-.3-.4-.3-.8-.5h-.7c.2 0 .3 0 .5-.2.3 0 .4-.4.5-.7l-.2-1.5v-.5c-.3-.8-.8-1.2-1.5-1.3-.6 0-1.3 0-2.1.3s-.7 0-.9.3l-.5.4c-.2.2-.3.2-.4.3h-1.3v.4s0 .2.4.9c.3.5.4.9.6 1.1s0 .9.2 1.3v.8s0 .2.2.3c.4.5.5.9.7 1.6s0 .8.2 1.4l.2 1.2h.8l.2-.3.2-.2 1.9-.3c1.4-.4 2.2-1.1 2.4-1.9v-.7c0-.3-.2-.5-.2-.7v-.3l-.2-.3.3.3v-.2l-.2-.2Zm-4.3-4c.7 0 1.1 0 1.3.5s0 .3 0 .5v.5c0 .6 0 .9-.7 1.1s-1.2 0-1.5-1.1-.2-1.5.6-1.7v.2zm2.6 5.1v1.1c-.2.2-.4.4-.6.5-.8 0-1.3-.2-1.7-1.3s-.2-1.6.7-1.9 1.1 0 1.3.6 0 0 0 .3v.4z" class="fill" data-original-prefix="fill"/><path id="fill-glasses-logo3" fill="#ffffff" d="M735.2 1156.1v-1c-.2-.4-.2-.8 0-1.1l-.2-1.8c-.2 0-.5.4-.6.5-.5.4-.9.8-1.3 1.3s-.9.9-1.2 1.5c-.4.6-.8 1.1-1.1 1.8 0 .4-.3.8-.5 1.3v.5l.2.7.2 1.5v.8c.2.4 0 .9 0 1.3v.5c0 .3 0 .4.3.5 0 .2.3.3.5.4h-.3s-.3-.2-.4-.3h-.2c-.3 0-.7 0-1.1.2-.4 0-.8 0-1.1.3-.4 0-.8.4-1 .6l-.2.2v.3c0 .2 0 .4-.3.5l.2-.6v-.6s0-.2-.3-.3v-.2s-.3-.2-.4-.3c-.4-.4-.6-.6-.9-1 0-.2 0-.3-.3-.5 0-.2 0-.5-.3-.7 0-.3 0-.5-.3-.7v-.5s0-.3-.3-.4c-.2-.2-.5-.3-.8-.6-.7-.5-1.3-.8-2.2-1.1-.7-.2-1.5-.4-2.2-.6-.3 0-.6 0-.9-.2-.4 0-.8-.2-1.3 0h-.2v.7c0 .3.3.6.4.9 0 0 0 .2.2.3l.5.5c.3.5.5.8.7 1.4v.4c0 .2.3.4.4.6.3.4.5.7.9 1.1s.8.6 1.1 1c.4.2.9.5 1.4.6.3 0 .6 0 .9.3h.2v.2c.3.4.6.6 1 .9.2.2.5.2.7.3h.3c.2 0 .4 0 .5-.3-.2 0-.4.3-.5.5 0 0-.2 0-.2.2.2 0 .5 0 .7.2h-.9c0 .4 0 .7-.2 1v.5h.4v.4s0 .2-.2.3v.5l.2.2s.2.3.4.4v.2s0 .2.3.2h.5-1.2c0 .4 0 .6-.2.9v.4s.4.3.5.3v.3s0 .2.3.2h.2s.2 0 .2-.3 0-.4.3-.6v1.5h.8v.8c0 .2.3.4.7.5v-.8c.2 0 .4 0 .5.3 0 0 .2.2.4.2h.4l.3.3h1.4c.2 0 .3 0 .5-.2s.4-.3.5-.4l.3-.3s.2-.2 0-.4 0-.4.3-.5l.2-.2c0-.2 0-.4.2-.5l.3-.3v.2c0 .2.3.3.3.5v-1.4c0-.2.3-.3.3-.4 0 0 .2-.2.2-.3v-.7s0-.3-.2-.3c.2 0 .4 0 .5.3l.2.2h.4v-1.4c-.3-.2-.4-.4-.6-.6h-.4s0 .3-.2.3h-.6s.2-.2.3-.2.2-.2.2-.3v-.8c0-.3-.3-.4-.4-.5v-.5s.2 0 .2-.2v-.3c-.3-.3-.5-.5-.9-.8-.3 0-.5 0-.7.3.2-.2.3-.4.4-.6h-.9.7s.2 0 .3-.2l.3-.3c0-.2.2-.3.3-.5l.2-.6v-.8c.2-.2.3-.4.6-.6.3-.3.5-.6.8-1 .3-.5.5-1.2.7-1.8v-1.3l-.2-1.3-.7-.4h.3l.3-.7h.2Z" class="fill" data-original-prefix="fill"/>
    </g><g class="trait-group" data-category="right ear" id="right ear-notched">
      <path id="fill-ear-rt" fill="#ffffff" d="m1650 375 21.9 15.6 9 8.1-5 97.7-42.3 137.7-32.6 49.4c-4 5.2-19.7-5.3-21.9-3.4-1.9 4.5-4.9 23.3-7.3 25.7-2.6 2.6-18.8 1.2-20.3 3.2l-16.4 57.6-102.1 56.9c-16.8 32-30.5 65.7-47.1 97.9l-82.3 65.8c-1.2.6-2.3.6-3.6.5-13.8-1-49.3-14.2-62-21-20.5-10.9-39.7-31.3-58.7-43.8l-24.5-38-.8-3.1 89.8-173.3c3.8-62 6.1-123.8 10.4-185.6l129.3-162.7 4.6-4.4 317.4-175.6c3.6 1.1 16.9 6.5 17.5 9.6-.8 28-.3 56.1-1 84.1-.3 14.4-1 29.4-2.3 43.7l-30.2 44.8-39.5 13Z" class="fill" data-original-prefix="fill"/><path id="shading-ear-rt" fill="#aaaaaa" d="M1626 352c14.1-.8 29.3-5.4 42-11.5 5.1-2.4 20.9-11.1 24.4-14.5 2.2-2.1 5-7.4 6.7-10.3 7-12.2 12.5-27 15.8-40.7l2 12.5 2 26-18.3 45.3-51.7 15.3 38.1 26.6-17.1 63.4-5.2-47.8c-22.4-10.8-37.5-32-47.3-54.2-25.9 44.1-43.9 92.3-40.5 144.5.9 13.4 7.2 30.2 2.8 42.8-1.1 3-3.1 5.7-4.2 8.8-4.4 11.9-9 24.3-10.5 37 11.2-3.5 17.1-11.9 23.4-21.1 15.8-23 25.2-48.7 39.1-71.9.7-1.1 1-2.8 2.5-3-7.2 32.9-18.2 66.1-31.5 97-8.3 19.2-18.2 36.5-30.5 53.5 8 .8 16.2 1.2 24 3s14.4 5.3 22 7.5c.2 1.2-.1 1.9-.5 3-.5 1.2-8.3 14.5-9 15.1-1.1 1-1.3.9-2.7.8-4.3-.4-23.8-8-25.7-6.8l-6.1 34.9c-6.7-.6-13.1-3.6-19.9-2.9l-30.3 81.2-2.7 5.3c-23.4 14.2-49.2 24.2-72.9 38.1l-56.3 89.7c-28.3 25.6-60 47.5-90.6 70.5-2.2.5-26.2-8.4-30.5-10.1-24.5-9.4-50.7-23.9-69.8-42.2-5.5-5.3-9.2-12.1-14.5-17.5-2.4-5 7.2-9.4 10.5-12.5 16.1-14.9 33.6-36.1 45.4-54.6 8.5-13.3 11.7-27.5 19.1-41.9 6.3-12.4 13.9-24.3 20.5-36.5 1.2-1.2 1.7-.2 2.6.5 3.4 2.8 6.9 8.3 10.5 11 1.9-11.8 7-21.1 8-33.5.3-3.4-.7-15.7.2-17.3.2-.4 6.5-4.5 7.8-5.7 30.4-28.4 51.9-61.2 61.9-102.1 6-24.3 5.7-48.7 8.1-73.4 6.3-.8 9.8 3 14.6 5.9l46.4 5.6c10.4 14.5 17.6 31.1 26.5 46.5 1-.5 10.5-11.3 11.3-12.7 3.9-7.3 8-27.2 9.9-36.1 8.5-39.9 9.6-76.2 8.3-116.7-.5-15 6.8-27.9 14.2-40.8 14-24.6 34.9-52 54.3-72.7 20.2-21.6 59.5-47.5 85.6-62.4 12.5-7.1 26.5-12.1 39.9-17.1-5.4 12.2-7.1 27.9-12.2 39.8-1.8 4.3-22.4 23-27.8 29.2s-17.7 20.6-21.1 27c-.6 1.2-1.4 1.9-1 3.5Zm-100 343c8.2-17.6 20.3-35.7 18.5-56-3.5 4-8.1 7.5-11.5 11.5-10.1 12.3-18.6 29.3-29.1 42-19.6 23.7-65.6 56.1-93.3 69.7-23.2 11.4-28 6.6-42.8 31.2-23.8 39.3-42.5 79.3-70.4 116.6-4.2 5.7-12.9 13.5-15.8 19.2-1.6 3.1-11.9 36.4-10.6 37.9 2.5-.7 5.5-3.3 7.5-5 18.6-15.8 38.6-36.6 55.6-54.5 13.9-14.7 30.5-30.8 39.2-48.8 6.9-14.5 12.7-29.7 19.1-44.4 10.6-4.1 21.9-5.5 32.8-8.8 30.4-9.2 59.4-27.7 85-46l24.9-69.1c-.7-4.9-7.2 6.4-8.9 4.6Zm29-27c-1.6-1.2-8.4 9.1-10 10.5l17 12.5c.9-1-5.8-22.1-7-23m-19.5 19v1c.7-.3.7-.7 0-1" class="outline shading" data-original-prefix="shading" opacity="0.5" style="opacity: 0.5"/><path id="outline-ear-rt1" fill="#000000" d="M1201 939c-.3-.2-3.9-.4-6.1-1.5-5.2-2.6-14.2-7.8-17.9-12.1-10.7-12-18.5-31.2-29.5-43.5l-.5-8.4c16.4-32.2 27-70 43.1-101.9 3.4-6.7 8.3-11.6 12.3-17.7 33.7-52.8 38.3-147.5 41.6-209.4.3-6.6.3-23.8 2.6-28.4 43.1-62.1 88.8-122.2 141.4-176.6 28.8-29.8 67.6-52.7 103.3-73.6 60.1-35.2 146-76.2 213.7-92.3 4.6-1.1 22.4-5.8 25.4-3.6.9.7 4.3 15.2 4.6 17.6 4.2 31.6-.3 71.9-3 104-2.3 27.6-.5 58.1-28.7 73.3-11.7 6.3-27.1 10-40.3 10.2 2.8 7 32.7 20 33.8 23.7 1 3.4-2.8 14.6-3.5 19.1-2.8 16.4-7.3 47.9-4.1 63.5 2.3 11.1 6.7 11.3 4.3 24.8-9 50.9-31.8 106.5-56 152-6.3 11.9-15 28.7-22.7 39.3-.7 1-1.6 2.9-3.2 2.6-.8-.2-10.3-8.1-13.3-9.8-5.4-3-12-6.7-18.3-6.1-.6 10.1-4.2 19.3-7.1 28.8-4.9 1.7-12.1-4.2-16.2-2.8-7.2 2.4-20 65.1-23.2 74.8-17.8 12.3-35.5 25-54.4 35.6-7.7 4.3-18.5 8-25.4 12.6-13.4 9.2-31.7 44.4-38.1 59.9-2.8 6.6-4.4 14.5-7.3 20.7-5.8 12.5-26.4 24-37.2 33.8-15 13.5-28.6 29.7-43.4 43.6-2.3 1.4-20.6 4.8-23.6 4.5-10.6-1-50.2-16.6-59.3-22.8-1.5-1-2.6-1.8-2.7-3.8 43.4 18.1 71.5 7.3 103.5-23 37.3-35.2 63.7-79.8 83-127 30-21.5 65.3-34.7 93.9-58.1l24.6-68.4c2.8-4.9 15.1 2.6 17-.2 1.4-2 1.1-11.9.8-14.8-.6-5.5-3.4-10.4-4.9-15.6 6-1.5 12.3-.7 18.5 0 5.2.6 21.3 5.3 24 5 2.2-.3 4.5-5.1 5.9-7.1 25.9-38.6 51.8-112.7 58.3-158.7 3-21.1.8-44.1 3.3-65.7 1.1-9.4 3.8-18.5 5.1-27.9-13.4-6.9-30.2-20.9-36.2-35-5.1-11.8-.3-8.6 7.6-9.8 10.4-1.6 37.7-7.5 46-13 6.1-4 15.7-31.8 17.3-39.7 4.1-19.3 7.6-44 9.3-63.7 1.7-19.2 1.6-39.3 0-58.5-42 13.6-81.8 33.1-120.7 53.8-46.8 25-95.5 55-139.9 84.1-50.9 33.5-90.8 69.5-129.4 116.5-17.3 21-40 48-54.8 70.2-12.9 19.2-12.9 62.2-15.2 85.8-2.7 28-4.3 56-7 84-4.6 47.8-19.1 64.4-38.8 105.2-13.1 27.1-21.6 51.4-31.4 79.6-4.4 12.8-8.7 12.1-5.1 27.6 3 12.5 15.9 34.5 24.3 44.2.1.1 1.5.5 3 2-3.5 1.1-2.8-1.9-3-2Z" class="outline" data-original-prefix="outline"/><path id="outline-ear-rt2" fill="#000000" d="M1422 736c3-6.8 6.8-13.1 9.5-20 11-27.9 12.1-62.7-8-87-11.8-14.3-18.7-10.9-25.3 4.8-9.2 21.9-12.2 46.7-15.1 69.7-.2 1.2 1.5 2.8.4 4.5-1.2 1.9-8.6 4.6-10.9 6.2-44.3 30.1-57.7 77.8-79.2 122.8-1.1 2.4-2.3 6.1-5.5 6-1.1-5.6-2.3-11.7-4.5-17-.4-.9-2.9-7.8-4.5-6-.9 1-4.3 22.4-4.8 25.7-1.4 8.6-1.6 19.5-3.4 27.6-1.7 7.9-11.5 24.5-14.8 34.2-4 11.8-8.6 27.5-6.9 39.9.7 4.7 4.3 9.8 4.9 14.6-1.4 1.4-11.6-6.6-13.4-8-5.6-4.3-10.8-9.2-15.3-14.7l2.3-31.3c4.5-10.8 24.3-28.9 27.1-38.9 6.5-23.9 7.8-59.2 22.3-80.7.6-.9 1.7-3.3 3.2-2.3 1.8 1.3 6.8 18.1 11.8 12.7 10.6-26.4 25.4-52.7 40.8-76.7 11.4-17.8 27.6-30.6 37-50 8.8-18.1 21.6-77 17.8-95.9-.8-4-10.4-27.1-9.3-28.1 7.5 2.8 14.7 6.9 21.7 10.8 6.4 3.6 31.7 17.7 34.8 22.2 3.4 5 10 27.9 12 35 2.3 8.3 6.6 35 11.4 39.5 13.2 12.3 30.8-13.9 36.2-23.9 26-47.4 33.3-96.7 25.7-150.1-1.2-8.7-7.4-28.3-6.7-35.9.4-4.2 10.1-25.1 12.6-30.4 28.3-60.6 71.1-97.4 118.2-142.9 14.6-8 29.1-16.2 44.5-22.4-5.6 8.8-9.5 21.8-16.5 29.5-4.7 5.2-14.4 9.3-20.4 13.6-39.6 28.8-70 65.2-89.9 110.1-14.5 32.8-25.8 88.9-11.3 122.7 1.2 2.9 6.7 10.6 6.3 12.3-21.1 26.7-33 58.8-41.6 91.5-3.1 12-4.9 31.6-9.1 41.9-1.4 3.4-10.3 13.4-13.2 16.8-13.6 15.6-28.5 25.4-46.3 35.7-3.1 1.8-22.9 13.5-24.7 11.8Z" class="outline" data-original-prefix="outline"/>
    </g><g class="trait-group" data-category="left ear" id="left ear-robo">
      <path id="fill-ear-lft3" fill="#ffffff" d="M570 663c30.7-2.3 65-.8 92.7 13.8 19 10.1 47.5 28.1 59.5 45.5 28.1 40.4 54.9 112.1 71.8 159.2 4.9 13.7 18.7 48.9 16.7 61.8-4.1 27-52.7 38.8-73.5 24.5-66.3-95.2-146-190.2-258.2-231.3-74.9-128.8-125.1-279.4-146.9-427.1-5.3-35.8-9.6-72.1-9.2-108.3 5.5 4.3 9.9 9.8 15 14.5 28.6 26.4 60.4 52.7 87 81 18.7 19.8 26 39.1 36.4 63.6 41.9 98.6 78.9 194.5 108.1 297.9.5 1.7.5 3.3.5 5h.1Z" class="fill" data-original-prefix="fill"/><path id="fill-ear-lft2" fill="#ffffff" d="M647.7 372.1c1.9-.3 8.3 5.6 10.3 7.4 37.4 33.1 77.7 78.5 106.8 119.2 9.4 13.1 41.1 59.8 40.8 73.7 0 4.9-3.4 12.8-4.3 18.5-7 41.8-3.8 106.1 10 146.5 4.7 13.8 12.8 26.5 18.2 39.8s9.4 27.5 15 41c9.9 23.6 22 46.3 32.6 69.5 0 3.7-1.8 6.7-3.2 9.9-3.6 7.7-17.2 34.9-21.9 40.1-2.9 3.2-11.8 9.8-15.7 12.3-7.4 4.8-16.4 8.3-23.8 13.2l25.1-40c.9-3.2-6.4-20.6-8.1-25-17.9-44.5-42.2-92.2-63.6-135.4-9.3-18.7-24.7-55.8-39.9-68.1-6.9-5.6-16-9.6-23.4-14.6-16.3-11-32.1-22.8-48.8-33.2-15.6-3.3-49.2 4.2-60.7-8.3-3.6-3.9-9.1-16.2-11.5-21.5-8.5-19-15-39.8-22.8-59.2-13.1-32.5-26.6-64.9-39.6-97.5-.3-2.7 5-6.3 7.4-8.2 14.7-12.2 33.3-25 49.2-35.8q34.8-24 72-44.1v-.2Zm.1 12.1c-7.6.4-18.4 7-20.3 14.7-4.1 16 9.4 23.2 23.2 18.2 19.3-7 17.5-34-2.9-33Zm115.9 335c-14.2 2.4-10.1 26.4 1.3 31.3 26.3 11.2 27-36-1.3-31.3m53 82.1c-12.9-11-27.5 1.3-22.1 16.6 1.8 5.3 5 11.4 10.5 13.5 16.3 6.3 26.1-10.2 17.4-23.4-.5-.7-5.2-6.2-5.8-6.7m24 72.9c-11.1 2.3-9.9 16.7-5.9 24.5 5.3 10.3 20.4 15.4 27.7 4.2 8.6-13.2-6.5-31.9-21.7-28.7Z" class="fill" data-original-prefix="fill"/><path id="fill-ear-lft1" fill="#ffffff" d="M631.9 358.9c-34.3 21.6-67.6 45-99.8 69.7-5.7 4.4-11.9 10.5-17.6 14.4-.8.6-1 1.4-2.5 1-16.9-38.3-28.9-79.7-45.5-118-11.5-26.4-24-36.6-44.5-55.5-31.3-28.9-64.1-56.3-96-84.5 44.5 13.2 88.6 29.1 130.7 48.8 63.3 29.7 119.8 77.5 174.4 120.6zm-108.1 36.3c-25.4 2-19.5 44.4 6.1 28.2 14.1-8.9 10.3-29.5-6.1-28.2" class="fill" data-original-prefix="fill"/><path id="fill-ear-lft-rivet5" fill="#ffffff" d="M841.2 881.2c2.8-3.5 11.9 1.1 12.7 6.3 2.4 15.4-14.9 12.3-14.6 1.1 0-.9 1.6-7 1.9-7.4" class="fill" data-original-prefix="fill"/><path id="fill-ear-lft-rivet4" fill="#ffffff" d="M807.8 805.2c7.9-1.2 13.7 8.2 8.1 14.2-9.1 9.7-23.6-11.9-8.1-14.2" class="fill" data-original-prefix="fill"/><path id="fill-ear-lft-rivet3" fill="#ffffff" d="M775.7 740.7c-7.3 5.9-18.9-8.3-11.3-13.8 6.9-4.9 18.2 8.2 11.3 13.8" class="fill" data-original-prefix="fill"/><path id="fill-ear-lft-rivet2" fill="#ffffff" d="M642.7 396.2c9.6-2.9 13 8.7 4.3 11.3-13.4 4.1-9.8-9.7-4.3-11.3" class="fill" data-original-prefix="fill"/><path id="fill-ear-lft-rivet1" fill="#ffffff" d="M526.8 407.2c5.3 5.4-3.2 15.1-9.5 8.5-5.2-5.4 4.6-13.4 9.5-8.5" class="fill" data-original-prefix="fill"/><path id="shading-ear-lft" fill="#aaaaaa" d="M520.2 411.8c1 1 10.3 2.4 11.7 1.8 2.9-1.2 11.2-8.9 14.8-11.3 20.7-14.6 42.5-30.6 63.6-44.4 3.4-2.2 14.8-10.5 18-9.6 1.7.5 3.9 4 5.8 5.3 5.6 3.8 11.8 7.1 17.9 10.1-9.7 6.7-20.6 11.3-30.7 17.3-23.1 13.7-44.1 30.5-65.8 46.2-1 1-2.2 1.3-1 3 .5.8 9.5 5.2 11.4 6.6 9.3 6.3 18.7 14.4 27.6 21.4 64.9 51.8 125.8 108.5 191 160l13.5-72c3.7 4.8 9.3 14.3 10 20.5 1.2 10.6-2.4 17.3-3.9 27.1-6.6 44.4-3.3 107.4 13.4 149.3 4 10 9.9 19.2 14 29 6.2 15.1 10.8 31.3 17.3 46.7 9.6 22.6 21.7 44.1 31.2 66.8 0 2.9.2 5.7-.5 8.6-1.1 4.1-19.5 39.4-22.5 43.5s-11.6 10.9-16.1 13.9c-18.5 12.7-39.4 20.8-61.7 24.3-11.4 1.8-33.6 2.8-43.2-4.3-68.4-94.4-146-191.3-259.8-231.7-53.4-90.2-90.6-189.4-118-290.5-16.9-62.3-30.7-130.3-36.3-194.7-.6-6.8-4.1-53.6-2-55.5.3-.3 2.7.4 3.8-.2 1.3-.8.3-4.3 5.5-3.6 11.1 4.8 23.9 7.5 34.3 13.8 39.3 23.7 76 63.2 111.5 92.5l43.5 98.5c1.2 3.1-.6 9.5 1.7 11.8zm-166.9-64.1L454 420.5c-6.8-18-11-35.7-23-51-10.7-13.6-27.7-29.3-40.5-41.5-14.6-14-30.3-27-45-41-2.3-.4-1.4.8-1.2 2.2.2 2.2.6 4.8.9 7.1.9 6.8 6.2 48.9 8.1 51.4M361 390c3.9 19.7 7.5 39.7 12.5 58.9l113 77c-2.7-19-10-37.1-15.5-55.5-34.8-25.8-69.6-54.4-105.7-78.3-1.4-.9-2.5-2.5-4.3-2.2Zm419 301c-.6-8.2-1.3-16.3-1-24.5.2-6.2 4-24.3.6-28.5L548 464.1c5.7 24.5 12.9 48.7 20.3 72.7L780 691.1ZM414 535c22.5 61 50.5 119.7 78 178.5 59.4 35.6 120.6 68 179.5 104.5-14.2-28.7-30.4-57.6-50.1-82.9-10.8-13.8-24.4-25.9-37.9-37.1-8.9-7.3-27.4-18.5-34-26-5.7-6.3-9.6-21.7-15-30s-14.7-17.2-21.9-24.1c-27.7-26.8-60.8-53.8-91-78-1-.8-6.8-5.8-7.5-5Zm363 200c1.9-8.4-16.8-13.8-13.8-3.7 1.6 5.5 9.5 4.8 13.8 3.7m35.4 63.6c-8.4-13-12-37.6-19.6-51.9-12-12-9.5 1.3-11.8 9.7-1 3.6-4.2 8.7-7.6 10.4-2.6 1.3-8 .4-7.4 2.6l21 47.5c2.2 1.6 5-7.5 9.4-7 .6 0 .6 1.7 1.2 2 3.6 2.1 6.7-.4 8.3.4 2.4 1.2 6 10.7 12.4 6.5 9-6-3.4-16.2-6-20.3ZM826 833c-2.6-.5-1.5.5-2.1 1.4-6.3 10.5-13.2 16-25.9 10.6-1.3 1.5 7.8 21.9 9 25.5 2.5 7.1 8.9 32.3 12.9 36.1 8.8 8.3 9.2-13.4 12.1-15.5.5-.3 3.1 1 4.5 1 2.5 0 4.1-1.9 6-2 2.3-.2 4 1.4 6.1 1.7 1 0 3-1 3.3-.7.3.2.4 6.1 2.5 7 6.4-5.2 2.9-15.9-3.8-19.2-1.9-.9-4.3-.8-6.1-1.9-5.3-3.4-15.3-36.3-18.6-43.9Z" class="outline shading" data-original-prefix="shading" opacity="0.5" style="opacity: 0.5"/><path id="shading-ear-lft2" fill="#aaaaaa" d="M637.6 400.4c.2.1.4 1.1 1.2 1.5 9.2 4.4 15.6 1.7 25.2 3.1 3.5 11.4-13.5 27.2-24 24.5-9.5-2.4-16.7-15.4-14.8-24.8.2-1.1 3.1-6.8 3.8-7.3 2.2-1.4 6.5 1.9 8.6 3" class="outline shading" data-original-prefix="shading" opacity="0.5" style="opacity: 0.5"/><path id="outline-ear-lft" fill="#000000" d="M312.1 163.1c3-2.5 42.9 6.4 49.3 8C512.1 208 635.1 309.1 735.5 423c29.7 33.6 58 70.7 80.3 109.7 3.2 5.6 14 24 15 29 .6 2.9-5.2 26.5-5.8 32.8-6.3 64.6 7.8 142.2 38.8 199.2 6.2 11.4 30.5 45.7 32.1 54.9 1 5.9 3 30.9 1.6 35.5-12 18.1-24.5 59.3-41.2 71.8-5.8 4.3-43.1 24.1-49.8 26.2-16.7 5.4-37.4 4.2-54.2 10.9-13-2.5-25.8-7.7-38.7-11.1-2.9-1.9-3.6-6.4-5.5-9.5-43.9-76.1-140-177.5-221.2-212.8-5-2.2-18.4-5.6-21.3-7.7-3.2-2.2-15.1-21.6-17.8-26.2-64.6-112.1-114-265.2-131.7-393.3-6.6-47.5-13-106.2-7-153.7.7-5.2 2.1-10.4 3-15.5Zm319.8 195.8-.8-3.5c-54.6-43.1-111.1-90.9-174.4-120.6-42-19.7-86.2-35.6-130.7-48.8 31.9 28.2 64.8 55.6 96 84.5 20.5 18.9 33 29.2 44.5 55.5 16.7 38.2 28.6 79.6 45.5 118 1.5.4 1.7-.4 2.5-1 5.7-3.9 11.9-10 17.6-14.4 32.2-24.7 65.5-48.1 99.8-69.7M570 663c0-1.7 0-3.4-.5-5-29.2-103.4-66.1-199.3-108.1-297.9-10.4-24.5-17.8-43.7-36.4-63.6-26.6-28.2-58.4-54.6-87-81-5.1-4.7-9.5-10.2-15-14.5-.4 36.3 3.9 72.5 9.2 108.3 21.8 147.8 72 298.3 146.9 427.1 112.2 41.1 192 136.1 258.2 231.3 20.8 14.3 69.4 2.5 73.5-24.5 2-12.9-11.8-48.1-16.7-61.8-16.9-47.1-43.7-118.8-71.8-159.2-12.1-17.4-40.6-35.4-59.5-45.5-27.6-14.6-62-16.1-92.7-13.8h-.1Zm77.7-290.9q-37.2 20.1-72 44.1c-15.8 10.9-34.5 23.7-49.2 35.8-2.3 1.9-7.7 5.5-7.4 8.2 13 32.6 26.5 65 39.6 97.5 7.8 19.4 14.3 40.2 22.8 59.2 2.4 5.4 7.8 17.6 11.5 21.5 11.5 12.4 45.2 5 60.7 8.3 16.7 10.5 32.4 22.3 48.8 33.2 7.4 5 16.5 9 23.4 14.6 15.2 12.3 30.7 49.4 39.9 68.1 21.5 43.2 45.7 90.8 63.6 135.4 1.8 4.4 9 21.7 8.1 25l-25.1 40c7.5-4.8 16.5-8.3 23.8-13.2 3.9-2.5 12.8-9.1 15.7-12.3 4.7-5.2 18.3-32.4 21.9-40.1 1.5-3.2 3.2-6.2 3.2-9.9-10.6-23.3-22.7-45.9-32.6-69.5-5.6-13.5-9.6-27.7-15-41s-13.6-26-18.2-39.8c-13.7-40.3-17-104.6-10-146.5.9-5.6 4.2-13.5 4.3-18.5.3-13.9-31.5-60.6-40.8-73.7-29.1-40.7-69.4-86.1-106.8-119.2-2-1.7-8.4-7.6-10.3-7.4v.2Z" class="outline" data-original-prefix="outline"/><path id="outline-ear-lft5" fill="#000000" d="M840.7 874.2c15.3-3.2 30.3 15.5 21.7 28.7-7.3 11.2-22.3 6.1-27.7-4.2-4-7.8-5.2-22.2 5.9-24.5Zm.5 7c-.3.4-1.9 6.6-1.9 7.4-.3 11.2 17.1 14.3 14.6-1.1-.8-5.2-9.9-9.8-12.7-6.3" class="outline" data-original-prefix="outline"/><path id="outline-ear-lft4" fill="#000000" d="M816.7 801.3c.6.5 5.3 6 5.8 6.7 8.6 13.3-1.2 29.8-17.4 23.4-5.5-2.1-8.7-8.2-10.5-13.5-5.3-15.4 9.2-27.6 22.1-16.6m-8.9 3.9c-15.5 2.3-1 23.9 8.1 14.2 5.6-6-.2-15.3-8.1-14.2" class="outline" data-original-prefix="outline"/><path id="outline-ear-lft3" fill="#000000" d="M763.7 719.2c28.2-4.8 27.6 42.5 1.3 31.3-11.3-4.8-15.4-28.8-1.3-31.3m12 21.5c6.9-5.6-4.4-18.6-11.3-13.8-7.7 5.4 4 19.7 11.3 13.8" class="outline" data-original-prefix="outline"/><path id="outline-ear-lft2" fill="#000000" d="M647.8 384.2c20.4-1.1 22.2 26 2.9 33-13.9 5-27.3-2.3-23.2-18.2 2-7.7 12.7-14.3 20.3-14.7Zm-5.1 12c-5.4 1.6-9.1 15.5 4.3 11.3 8.6-2.6 5.3-14.2-4.3-11.3" class="outline" data-original-prefix="outline"/><path id="outline-ear-lft1" fill="#000000" d="M523.8 395.2c16.4-1.3 20.2 19.3 6.1 28.2-25.6 16.2-31.5-26.2-6.1-28.2m3 12c-4.8-4.9-14.7 3.1-9.5 8.5 6.3 6.6 14.8-3.1 9.5-8.5" class="outline" data-original-prefix="outline"/>
    </g><g class="trait-group" data-category="head" id="head-alien">
      <path id="fill-head2" fill="#ffffff" d="M944.7 496.2c14.6-2.3 25.4 2.3 31.7 15.8 10.5 22.5.3 42.1-19.2 54.8-4 2.6-16.8 7.1-18.2 8.8-4.2 5.1-8.8 24-9.2 30.8-1.9 34.2 29.7 68.6 42 99.1 1.9 29.3-28.4 66.9-21.5 95.5 1.8 7.3 20.1 43.1 25.6 46.4 2.3 1.4 5 1 6.9 3.1 2.4 2.8 11.6 24.5 13.6 29.4 1.4 3.5 6.2 14.8 6.3 17.6 0 1-5.5 13.4-6.5 15-7.1 11.2-30.3 14.6-41.2 6.8-10-17.1-21-33.6-31.5-50.5-9-14.4-21.9-47.4-23.4-64.6-2.4-27 16.9-60.8 21.7-88.3 3.6-20.8-5.1-29.3-12.2-47.2-12.8-32.3-23.8-62.5-10-97 2.7-6.8 10.8-17.3 12-23 1.4-6.6.3-15.4 1.7-22.3 2.9-13.9 17-27.9 31.4-30.2" class="fill" data-original-prefix="fill"/><path id="fill-head1" fill="#ffffff" d="M1088.7 496.2c20.2-4.1 42.6 11.2 46 31.5 1.1 6.6.2 16.1 1.7 22.3 1.8 7 11 18.1 14 28 14 45.7-8.6 74-22.3 113.8-11.9 34.8 22.8 76.3 19.7 111.7-1 11.2-6.9 27.5-10.7 38.3-7.6 21.4-15.7 31.8-27.7 50.3-4.1 6.4-12.3 23.2-16.5 27.5-2.5 2.6-12.8 4.6-16.6 4.5-5.7-.2-16.5-3.6-21-7.1-2.8-2.1-10.4-16.4-10.3-19.2.2-4.2 8.4-23.4 10.7-28.5 1.6-3.5 7.5-16.7 9.3-18.7s4.6-1.7 6.9-3.1c5.2-3.2 24-39.7 25.4-46.6 6.2-31.6-29.5-76.7-19.5-100.5 11.6-27.8 39.3-56.9 40.2-88.8.2-7.7-4.4-30.2-9.2-35.9-1.7-2-10.3-4.2-13.9-6.1-11.1-5.7-25.5-20.8-27.5-33.5-2.1-14 5.9-36.7 21.3-39.9" class="fill" data-original-prefix="fill"/><path id="shading-head2" fill="#aaaaaa" d="M1067 922c-.8.9-12.2-4.9-13.7-6.3s-7.5-14.7-7.9-16.6c-1-4.4 12.9-35.3 16.1-41 .8-1.4 4.3-8.5 4.7-8.8.9-.6 3.5-.4 5.7-1.8 4.9-3 23-37.6 24.8-44.2 8.5-31.3-22.8-66.9-20.7-98.7 12.3-29.5 42.7-63 42-96.1-.2-6.7-5.3-31-10.7-34.3-2.4-1.5-7.6-2.3-11-4-12.6-6.3-27.7-21.1-29.2-35.8-.9-8.5 2.3-22.7 8.9-28.4-8.4 44.4 61.4 63.5 51 6 13.4 13.4 8.1 33.7-5.8 44.6 17.3 40.6 16.9 79.8-8.3 116.7-2.5 3.7-17.6 21.5-17.8 23.2-.5 3.7 5.4 19.4 7 24 5.6 16.2 21.9 49.6 22 65 .1 23.2-34.2 78.3-46.8 100.2-1.4 2.5-10.2 14.9-10.2 15.8z" class="outline shading" data-original-prefix="shading" opacity="0.5" style="opacity: 0.5"/><path id="shading-head1" fill="#aaaaaa" d="M920 531.5c1 6.2 9.5 15 15.7 16.3 20.5 4.2 42.3-22 36.3-41.8 17.5 21.4 6.8 46.3-14.1 60.4-4.1 2.8-17.4 7.5-18.8 9.2-4.2 5.1-8.6 23.2-9.1 29.9-2.5 35 27.7 65.1 40.2 94.8 10.2 24.4-27.1 70.5-19.7 100.7 1.8 7.6 20.3 43.7 26.2 46.8 1.9 1 4.5.7 5.5 1.8 1.4 1.5 9.6 19.3 11.1 22.7 1.9 4.4 9.5 21.9 9.6 25.3 0 1.4-6 14.7-7.2 16.4-3.3 4.4-10.3 7-15.5 8-1-5.2 1.1-10.6 1.1-15.5 0-7.1-12.2-23.6-16.3-30.8-11.3-20-41.2-68.8-40.9-90.2.3-17.2 18.1-52.8 24.1-71 1.2-3.8 5.1-13.9 5-17.1s-9.9-13.1-12.5-16.6c-11.8-16-21.1-31.7-24.3-51.7-4.1-26.2.9-48.4 10.3-72.7-13.9-11.2-18.6-30.2-6.2-44.5 1.7 1-.5 3.8-.5 4.5 0 4.5-.7 11.2 0 15.1" class="outline shading" data-original-prefix="shading" opacity="0.5" style="opacity: 0.5"/><path id="outline-head2" fill="#000000" d="M965 922c-2.4 1.7-9.2-.7-11.8-1.7-13-5.1-32-36.1-39-49-9.2-16.8-32.7-71.1-29.9-88.6 1.3-8.1 7.8-23.7 10.7-32.3 3.9-11.3 14.7-34 14.1-45-.5-8.7-19.3-38.2-23.8-49.3-13-31.9-9.9-61.2 6.6-90.9 1.7-3 9.9-14.4 10.2-15.9.6-3.5-2.5-9.9-2.9-14.1-3.6-34.7 33.7-55.8 64.1-45.1 25.6 9 36.7 38.7 25.6 63.1-7.1 15.7-28.4 30.3-45.8 23.6-14.4 35.4 1.8 69.4 26.5 95 4 4.2 18 14.2 18.5 19.6-8.2 30.9-19.7 60.9-27 92 3.5 24 12.1 47.1 23.9 68.1 4.7 8.4 21.6 30.5 22.1 38 .7 10.8-5.5 26-15.4 31.4-4.4 2.4-4.8.8-6.5 1 3.6-7.6 7.6-13.6 4.8-22.3-3.1-9.3-18.5-29.1-24.3-39.7-12.8-23.5-22.4-48.8-32.5-73.5 2-29.7 18.5-54.6 28.5-81.5.8-2 2.2-5.3 2.2-7.3-.1-6.7-10.4-14.8-14.7-20.2-23.9-30.3-38.6-66.1-22.2-104.2 1-2.3 5.7-11.9 7.2-12.9 1.2-.7 11 .9 14.4.4 24.6-3.2 33.7-29.4 16.1-47.9-22.2-23.3-60.9 2-45.3 30.3 1.2 2.1 5.8 6.9 5.8 8.2 0 1-9 13.7-10.5 16.5-21 38.7-17.7 63.1 3.3 100.7 4.8 8.5 19.9 27.7 20.2 35.9.3 8.8-9.7 29.5-13 38.9-4.2 11.8-12.5 31-14.5 42.5s10.9 45.8 15.5 58.6c8.1 23.1 21.8 60.3 38.8 77.6" class="outline" data-original-prefix="outline"/><path id="outline-head1" fill="#000000" d="M1083 922c17-17.3 30.7-54.5 39-77.5 4.6-12.8 17.7-46.8 15.5-58.6s-10.4-30.6-14.5-42.5c-3.3-9.4-13.4-30.1-13.1-38.9.3-8.2 15.4-27.3 20.2-35.9 21.1-37.5 24.4-62 3.3-100.7-1.6-2.9-10.3-14.8-10.4-15.7-.3-2.4 4.2-6.2 5.7-9 15.5-28.3-23.2-53.6-45.3-30.3-17.6 18.5-8.5 44.7 16.1 47.9 3.4.5 13.2-1.2 14.4-.4 1.5.9 6.2 10.6 7.2 12.9 16.4 38 1.7 73.9-22.2 104.2-4.3 5.4-14.6 13.5-14.7 20.2 0 2 1.4 5.3 2.2 7.3 10.1 26.9 26.5 51.8 28.6 81.5-10.1 24.8-19.8 50-32.6 73.5-5.8 10.6-21.2 30.4-24.3 39.7-2.9 8.6 1.2 14.7 4.8 22.3-.2 0-1.2.8-2.3.7-12.6-1.2-20.7-23.2-19.6-34.1.7-6.4 14.7-24.4 18.8-31.3 13.3-22.7 23.6-47.5 27.2-73.8-7.3-31-18.8-61.1-27-92 .5-5.4 14.5-15.4 18.5-19.6 24.6-25.7 40.8-59.6 26.4-95-17.5 6.7-38.7-7.9-45.8-23.6-11.1-24.5 0-54.1 25.6-63.1 30.4-10.7 67.7 10.5 64.1 45.1-.4 4.2-3.5 10.6-2.9 14.1.2 1.5 8.5 12.9 10.2 15.9 16.5 29.8 19.6 59.1 6.6 90.9-4.5 11.1-23.3 40.5-23.8 49.3-.6 10.9 10.2 33.6 14.1 45 2.9 8.6 9.5 24.2 10.7 32.3 2.5 16.1-17.3 62.5-25 78.5-6.4 13.1-28.3 50.5-40.1 57-3.6 1.9-11.7 5.9-15.6 3.7" class="outline" data-original-prefix="outline"/>
    </g><g class="trait-group" data-category="mouthpiece" id="mouthpiece-outlaw">
      <path id="fill-mouth" fill="#ffffff" d="M1416 1417c.2 1.4-.2 2.7-.4 4-3.4 15.2-13.8 40.9-19.5 56.5-2.8 7.7-7.8 24.3-14.1 28.9-4.8 3.5-11.3 5.3-16.4 9.6-11 9.3-23.4 41-29.7 55.3-1.7 3.7-6.9 19.1-8.3 20.7-.7.8-.8.7-1.8.7-7.4.3-25.8-6.2-31.8-1.4-4.7 3.7-7.2 14.7-9.8 20.2-9.1 19.9-18.9 42.4-29.7 61.3-7.7 13.5-11.3 12.8-22.4 21.6-29.5 23.2-58.4 50.4-86.1 75.9-41.4 38.2-81.3 78-121.6 117.4-11.3-9.3-21.2-20.7-31.8-30.9-52.9-51.4-109.8-108.8-167-154.9-12.8-10.3-23.5-14.1-32-29-10.8-18.9-20.5-41.4-29.7-61.3-2.5-5.6-5.1-16.5-9.8-20.2-6-4.8-24.4 1.6-31.8 1.4-.9 0-1.1 0-1.8-.7-1.5-1.6-6.7-17-8.3-20.7-6.3-14.3-18.7-46-29.7-55.3-5.1-4.3-11.7-6.1-16.4-9.6-6.2-4.6-11.3-21.2-14.1-28.9-7.1-19.5-12.9-39.5-20-59l.5-1.5c8.2 1.2 16.7 2.4 25 3 36.7 2.7 73.4 3.8 109.7-2.3 7.6-1.3 24-3.8 30.4-6.6 11.7-5.2 27.1-32.1 42.8-41.2 21.7-12.6 48-22.2 70.3-34.7 26.7-14.9 52.4-33.8 79.1-48.9 22.5-4.7 45.9-4.7 68.5 0 26.7 15.2 52.3 34 79.1 48.9 22.3 12.4 48.7 22 70.3 34.7 15.7 9.2 31.1 36 42.8 41.2 6.4 2.9 22.8 5.3 30.4 6.6 44.6 7.6 90.4 4.4 135.2-.7Z" class="fill" data-original-prefix="fill"/><path id="shading-mouth3" fill="#aaaaaa" d="M1387.1 1420.1c8.7-.5 18.8-3.1 27.3-3.2 2.4 0 1.7 1.4 1.3 3.3-2.8 14.3-14.3 42.3-19.8 57.3-2.8 7.7-7.8 24.3-14.1 28.9-4.8 3.5-11.3 5.3-16.4 9.6-2.6 2.2-7.6 9.9-8.2 10.1-2.4.5-27.8-14.6-33-16.9-27.8-12.6-44.8-5.6-72.1 3.6-67.3 22.5-132.8 50.7-199.2 75.8-19.4 1.2-43.9 4.1-62.6-1.5-50.5-15.3-101.2-44.7-153-58-26.6-9.6-71.8-32.6-99.5-25.5-16.7 4.3-29.8 16.6-44.1 21.9-1.1.4-2.1.9-3.3.6-.6 0-5.5-7.8-8.2-10.1-5.1-4.3-11.7-6.1-16.4-9.6-6.2-4.6-11.3-21.2-14.1-28.9-7.1-19.5-12.9-39.5-20-59-.4-2.1 1-1.7 2.5-1.5 4.4.4 24 2.1 26 4 5.3 9.7 38.6 78.1 44.2 79.9 2.9.9 25.1-8.8 30.5-10.2 13.1-3.3 42.5 1.5 57.1 3.4 28.3 3.7 46.8 7.3 73 18.1 48.1 19.8 95.2 42.9 146.7 52.3 18.2 3.3 49.9-5.4 68.5-10.5 43.5-11.9 88.1-42.8 132.3-52.7 24.3-5.4 68.3-12.8 92.6-12.2 8.4.2 33.8 13.1 37.9 11.8 5-1.6 37.1-67.5 42.9-77.2.6-1.1.5-2.4.9-3.5h.3Z" class="outline shading" data-original-prefix="shading" opacity="0.5" style="opacity: 0.5"/><path id="shading-mouth2" fill="#aaaaaa" d="M960.8 1425.3c17.2-1.1 35.4-.2 52.8-.3 37.9-.2 73-1 110.7 5.3 45.8 7.7 95.1 21.4 140 34 1.8.5 11.8 3 11.8 4.2-1 1.5-2.6 1.4-4.1 1.8-47.4 13.6-118.1-22.6-168.3-25.4-35-2-73-.3-108 0-20.4.2-42.9-1.5-62.9 1.1-45.6 6-112.9 36.7-156.5 24.2-1.5-.4-3.1-.3-4.1-1.8 0-1.2 10-3.7 11.8-4.2 53.4-15 122.2-35.5 177-39h-.2Z" class="outline shading" data-original-prefix="shading" opacity="0.5" style="opacity: 0.5"/><path id="shading-mouth1" fill="#aaaaaa" d="M1227.4 1689.4c-.3.2-1 3.8-1.2.3 9.4-22 13.5-45.6 16.8-69.2.3-2.2.2-1.3-1-1-2.6.7-6.2 1.4-8.5 2.5-4.8 2.3-18.2 19.9-22.9 25.1-29.8 32.3-60.9 60.8-96.8 86.2l-3.7.3c11.4-16.1 30.5-32.6 25-54.5-9.4 2.8-17.3 8.7-25.3 14.2-31.2 21.6-58 49.7-86 74.7-27.4-25.4-54.6-53.4-85.3-74.7-7.9-5.5-16-11.3-25.3-14.2-5.6 22 13.5 38.4 25 54.5-3.1 1.6-6.8-1.9-9.3-3.7-17.2-11.8-42.2-32.9-57.7-47.3-19.7-18.3-36.9-41-55.7-60.3l-9.8-3.2c.8 24.6 8.3 48.7 16 72-3.5-3.4-7.9-6.2-11.5-9.5-6.1-5.4-20.1-18.5-24.4-24.6-7.1-10-16.8-33.6-22.3-45.7-3.1-6.8-4.6-14.2-9.3-20.2 9.5-2.2 19.9-9.2 29.5-10 14-1.2 46 16.5 59.5 23.5 62.5 32.3 121.8 70.8 180.5 109.5 54.4-35.1 108.8-70.4 165.8-101.1 13.2-7.1 26.7-14.4 40.3-20.7 11.3-5.2 24-12.6 36.6-10.9 4.1.6 21.5 6.9 25.1 8.9.9.5 2 .8 1.6 2.1-3.7 5.9-5.4 12.6-8.2 18.9-5.2 11.8-15.4 36.1-22.3 45.7-4.3 6-17.5 18.2-23.4 23.6-3.5 3.2-7.8 6.1-11.6 8.9h-.2Z" class="outline shading" data-original-prefix="shading" opacity="0.5" style="opacity: 0.5"/><path id="outline-mouth5" fill="#000000" d="M1389.4 1512.4c-5.6 5-11.3 6.2-16.8 10.7-9.6 7.8-21.2 36.9-26.7 49.3-4.3 9.7-8.2 19.6-12 29.5-1.4.5-2.9.2-4.3.2-7.8-.5-18.9-4.2-26.1-4-6.1 0-10 15.8-12.3 20.7-8.3 18.5-17.2 39.5-27 57-10.7 19-18.7 20.5-34.7 33.3-69.6 56-132 124-197.6 184.4-4.2 3.9-5.8 10.9-12.5 4.5-67.2-64.3-133.5-135.4-206.6-193.4-14.9-11.8-19-11-29.1-28.9-9.8-17.5-18.7-38.5-27-57-2.3-5.1-6.2-20.6-12.3-20.7-7.1-.2-18.3 3.6-26.1 4-1.4 0-2.9.3-4.3-.2-3.8-9.9-7.7-19.8-12-29.5-5.6-12.7-17.2-41.9-27.3-49.7-8.1-6.3-16.5-6.4-22.1-16.9-13.1-24.5-18.1-59.8-30.6-85.4-1.1-7.7.2-11 8.2-11.3 17-.6 39.9 4.4 58 5.1 23.3.9 46.8.3 69.7-3.4 8.6-1.4 26.3-4.1 33.6-7.4 10.4-4.6 25.8-30.5 39.7-39.3 20.2-12.9 48.4-22.7 70.2-34.8 29.5-16.3 56.6-37.6 86.9-52.1 17.2-3.3 63.7-4.5 78.7 3.1 26.3 13.3 52.7 34.4 79 49 21.3 11.8 61.7 26.2 78.2 40.8 8.3 7.3 23.1 29.2 30.9 33.1 10.2 4.9 47.7 10.2 60 11 33.9 2.1 65.2-3.9 98.1-5 9.3-.3 13.9.3 12.3 11.3-10 24.1-16.5 49.7-26 74-3.1 7.8-4 12.4-10.4 18.1h.3Zm-2.4-74.4c-17.5-.2-35 1.6-52.6 1-22.5-.7-67.4-4.6-88-12-15.1-5.5-34-33.6-49.2-43.8-22.2-15.1-52.1-28.3-76-42-22.3-12.8-44.1-26.5-66.1-39.9-20.2-1.9-43-2.5-63.1.3-21.7 13.3-43.3 26.8-65.5 39.6-23.9 13.7-53.8 27-76 42-13.7 9.3-25 25.5-37.7 36.3-11.8 10-24.8 10.9-39.7 13.3-36.9 6-73.5 7.2-110.9 5.2l-1.5 1.5 21.6 60.4c4.6 4.2 10.9 5.5 15.8 9.2 8.5 6.4 16.8 27.2 21.5 37.5 5.1 10.9 9.7 22.1 14.2 33.3 21.5-3.1 45.5-13.6 67.4-10.9 5.9.7 21.3 11 27.4 14.6 49.5 29.2 99.3 60.8 146.8 93.2 12.5 8.5 24.6 18.8 37.4 26.6 2.7 1.6 8.9 5.8 11.4 5.7 2.2 0 12.5-7.1 15.2-8.9 59.9-39 117.6-80.2 179.4-116.6 6.1-3.6 21.5-13.9 27.4-14.6 21.9-2.7 46 7.9 67.4 10.9 4.5-11.2 9.2-22.4 14.2-33.3 4.8-10.2 13.1-31.1 21.5-37.5 3.5-2.6 14.3-6.7 15.8-9.2 1.6-2.8 3.3-11.3 4.8-15.2 2-5.4 18.5-45 16.8-46.8h.3Zm-110 155c-8.8-.9-17.5-4.1-26.4-2.9-6.5.9-19.3 8.1-25.6 11.4-69 36.1-135.2 77.9-197.6 124.4-2.2 1.5-4.6 1.5-6.8 0-62.4-46.5-128.6-88.3-197.6-124.4-6.3-3.3-19.1-10.5-25.6-11.4-8.8-1.2-17.9 1.6-26.4 3.4 17.3 26.8 28.9 56.9 46.5 83.5 68.9 48.7 128.4 107.7 186.6 168.4l20.5 23.5c5.6-8.3 12.6-16.2 19.5-23.5 57.7-61.5 118-119.1 186.6-168.4 11.9-17.2 20.2-36.6 29.9-55.1l16.5-29Z" class="outline" data-original-prefix="outline"/><path id="outline-mouth4" fill="#000000" d="M1216 1501c-5 15.8-22.6 23.3-36.6 29.8-40.8 19.1-98.2 39.1-142.3 47.7-23.9 4.6-68.5-10.7-92.5-18.5-28.4-9.3-67.8-22.8-93.2-37.8-5.7-3.3-18.1-13-19.3-19.7-.3-1.6 0-1.7 1.5-1.5 8.4 1.1 19.7 1.4 27.4 3.6 6.7 1.9 15.6 7.6 22.5 10.5 24.7 10.3 49.9 20.1 75.2 28.8 27.3 9.5 56 22.4 85.3 15.2 33.6-8.3 75.7-25.6 108.2-38.8 10.6-4.3 25.3-12.9 35.2-15.8 8.9-2.6 19.7-1.7 28.8-3.7z" class="outline" data-original-prefix="outline"/><path id="outline-mouth3" fill="#000000" d="M1244 1474c-7.2-1-14.4 1.8-21.4.9-10.3-1.3-24.4-6.4-35.4-8.6-106.4-21.2-198.4-23.4-305.4-4-17.9 3.2-39.7 10.4-56.4 12.6-7 .9-14.3-1.9-21.4-.9 1.7-3.3 5.7-4.4 9-5.5 23.4-8 58-14.9 82.8-20.2 93.1-20 173.4-18.6 266.2 2.2 22.1 5 51.2 10.8 72.2 17.8 3.5 1.2 7.9 2.2 9.8 5.7" class="outline" data-original-prefix="outline"/><path id="outline-mouth2" fill="#000000" d="M978 1773c-2 2-12.7-7.2-14.5-9-33.9-33.8-65.2-78.9-96.7-115.3l-2.8-5.7c1.1-1.1 27.5 9.2 29.4 11.1 23.5 34.2 49.9 66.4 73.4 100.6 1.4 2 12.1 17.4 11.2 18.3" class="outline" data-original-prefix="outline"/><path id="outline-mouth1" fill="#000000" d="m1184 1643-2.8 5.7c-31.6 36.4-62.8 81.5-96.7 115.3-3.6 3.6-9.3 8.6-14.5 9-.9-.9 9.8-16.3 11.2-18.3 23.5-34.2 49.9-66.4 73.4-100.6 1.9-1.8 28.3-12.2 29.4-11.1" class="outline" data-original-prefix="outline"/>
    </g>
</svg>