<?xml version="1.0" encoding="UTF-8"?>
<?xml-stylesheet type="text/css" href="../styles/semantic.css" ?>
<svg xmlns="http://www.w3.org/2000/svg" viewBox="0 0 2048 2048">
  <g class="trait-group" data-category="background" id="background-yellow">
      <path class="color" id="color-yellow" d="M2048,0v2048H0V0h2048Z" style="fill: #ddb305" fill="#ddb305"/>
    </g><g class="trait-group" data-category="jaw" id="jaw-OG-cracked">
      <!-- Generator: Adobe Illustrator 29.1.0, SVG Export Plug-In . SVG Version: 2.1.0 Build 142)  -->
  <defs>
    
  </defs>
  <path id="fill-jaw" class="fill" d="M1396.7,1438.7c-6.7,4.3-46.8-1.7-48.7.3l-12.2,69.8-57.2,29.3-1.4,1.6c-1.5,11.9,1.5,24.2.9,35.9-.3,4.9-1.3,15-2.3,19.7-.6,2.8-13.7,32.2-15,33.5s-16.1,8.9-16.7,8.3l-9.5-50-51,52c-7.7,5.7-20.7,9.3-27.5,15.5-14,12.7-25.2,37.4-42.1,47.9-5.4,3.3-61.3,25.7-66.7,26.3-13.8,1.7-33-3.3-47.7.2-17.7-10.3-50.1-16.2-66.1-26.9-14.3-9.6-28.3-35.6-41.4-47.6-6.7-6.1-19.9-9.6-27.5-15.4l-51-52-9.6,48.4c-.6.9-.9,1.7-2.2,1.5-.8,0-13.8-7.6-14.4-8.2-1.4-1.4-15.9-33.3-16.2-35.3l-.5-54.4-58.2-30.3-12.3-69.7c-8.1-1.2-45.1,3.9-49.5-1l-37.1-85-.5-3.4,31.5-70.6c5.3-1.6,29.1,0,31.3-6.7.8-2.3-.6-19.5-1.3-22.4-2.2-8.4-16.2-24-19.8-33.2-.7-1.7-1.2-3.1-.6-5,4.7-11.3,10.3-22.3,14.1-34,7.3-22.4,7.2-42.6,16.9-65.1,47.5-110.2,188.9-176,299.9-200.1,44.7-9.7,79.8-1.5,122.7,11.2,98,28.9,222.6,97.5,259,199,6.8,19,7,38.1,13.5,57.5,3.8,11.2,10.1,22.1,13.7,33.4,0,1.4-8.3,16.4-9.8,19.1-2.4,4.3-9.7,13.4-10.7,17.3-1.8,6.8-.6,15.6-2.3,22.5,9.9,7.9,21.3,4.2,32.4,6.5,9.6,23.9,23.5,46,31.4,70.6-9.8,26.3-22.2,51.8-33.2,77.7-1.3,3-1.7,9.3-5.1,11.4h0Z" fill="#ffffff"/>
  <path id="shading-jaw" class="shading" d="M1380.8,1185.8c-.2.4-2.1.7-2.8,1.7-8.6,10.8-16.2,26-21,39-4.2,11.4-5.1,22.7-13,32-18.8,22.4-51.8,45.5-78.3,57.7-5.4,2.5-12.5,3.7-16.7,7.8h20.5c2.7,0,5.1,1.2,7.9,1.1,18.1-.2,64.4-19.8,77.5-32.6,5.7-5.5,14.1-15.7,15-23.5,1.8,0,.7,2.4,1.5,4,3.1,5.9,15.5,5.2,21.5,6,.2,1.6-1.5.7-2.3,2.2-4.6,8.3-4.4,21.6-10.6,28.3-7.5,8.1-37.1,13.5-48.8,17.2-14.5,4.6-29.8,8.8-42,18.1l-52.8-14.8c-19.3-2.3-9.9,15.4-5.3,25.3,5.2,11.3,20.7,40,30.4,46.6,11.9,8.2,22.7-10.2,30-17,6.3-6,16.2-11.8,24.6-14.4,17.7-5.6,32.3,4.7,50.5,5.4,17.4.8,34.6-7.7,48.8-17.2,3.6-2.4,14.6-13.9,17.2-13.8,1.7,0,3.3,6.1,1.8,7.8-10.1,24.3-21.6,48-31.8,72.2-3.7,8.8-.8,14-13,15-9.3.7-15.8-1-24.2-1.8-4.8-.4-11.8,2.5-17.3-.2l-12.9,70.6-59,30.5c.4,11,2.6,23.6,2,34.5-.3,5.7-1.3,15.4-2.1,20.9-.5,3.1-13.4,31.4-15.4,33.6-3,3.2-11.6,6.2-15.5,9-.8-4.9-2.7-10.6-3-15.5-.6-11.2,2-11.3-2.7-23.2-.4-1.1-1.9-1-2.2-2-.8-2.2-.8-6.7-1.1-9.2l-2.3.2-50.2,51.8c-7.7,5.2-19.5,8.7-26.5,14.5-14.2,11.7-24.4,36.1-41.5,47.5-6.7,4.5-54.2,25.7-61.2,26.8-9.9,1.5-51.8,1.6-61.5,0-6.9-1.2-49.7-20.5-57.3-24.7-15.8-8.9-30.2-37.8-44.4-49.6-6.9-5.7-19-9.3-26.5-14.5l-51-52c-1,8.1-7.3,16-8.1,24-.6,6.2.6,14.6-.3,21.6-.2,1.7-3,1.8-2.1,4.4-.6.7-14.6-8.1-15.5-9-1.7-1.8-15-30.8-15.4-33.6-.7-4.4-.9-13-1.1-17.9-.5-12.2.6-24.4.5-36.6l-58.5-31.4-13-69.5-48.8-.2-38-86.6.9-6.2c8.2.4,11.8,8.2,18.6,12.7,25.3,16.9,38.4,19.8,68.5,13.9,17.1-3.4,19.1-7.5,37.2.4,15.9,7,19,16.2,30.6,25.4,9.6,7.6,13.6,7.9,22-1s31.8-49.1,32.1-60c.2-8.7-6.4-8.1-13.3-7.2-8.6,1.1-48.4,15.1-51,14.6-1.7-.4-12.3-7.9-16.5-9.6-20.3-8.4-48.8-11.8-67.2-20.8-14.9-7.3-11.3-20.9-17.7-33.2-.9-1.6-2.5-.6-2.3-2.2,6.3-.9,17,0,21-5.5,1-1.4.3-3.7,2-3.5,3,11.7,15.2,23.9,25.1,30.4,21.2,13.8,50.4,23.7,75.4,23.5h20.5l-34.7-16.8c-19.1-10.8-48.2-33.1-61.8-50.2-6.2-7.8-7.1-18.3-10.5-27.5-6-16.6-14.4-32-25-46,1.3-9,6.5-19.6,7.8-28.2,1.9-12.9,1.8-19.5,6.5-32.5,36.4-101.1,159.2-169,256.8-198.2,49.9-15,102.4-18.2,153.2-5.2,103.5,26.4,242.6,100.3,277.2,208.8,3.4,10.5,3,17.3,4.8,27.2.8,4.7,8.9,28.4,7.6,30.6l-.5-.2ZM1195.9,1382.1c-32.3-16.1-63.1-35.3-95.9-50.7-17.5-18.7-37.4-36.6-54.6-55.4-4.8-5.3-11.2-16-16-20-3-2.6-7.4-3-10.6-.6-4.5,3.4-12.7,16.4-17.4,21.6-16.7,18.6-36.8,35.6-53.6,54.4-32.9,15.3-64,34.2-96,51.2-.6,2.8,12.4,35,14.6,40.3,2.9,7.1,12.1,31.7,16,36.1,7.1,8,36.5,26.3,47,33,19.8,12.7,36.1,22.9,59.3,28.7,27.3,6.8,39.7,7.1,67,.6s43-16.6,65.7-31.3c10.4-6.8,35.9-22.5,43.4-30.6,4-4.4,12.7-27.4,15.6-34.4,2.1-5.1,16.8-41,15.5-42.9M728.3,1496.7c1.6,2,8.2,6.3,10.7,7.8,14.7,8.8,31.8,13.8,46.9,23.1,16.8,10.2,40.2,33.1,59.6,33.5,2.3,0,8.7-1.2,9.4-3.7s-13.6-27.6-16.4-30.3c-7.3-7.1-27.5-17.2-37.2-23.8-15.2-10.3-50.3-39.1-67.9-39.2-10.5,0-8.7,28.1-5.1,32.7h0ZM1319.7,1466.3c-5.9-5.9-24.1,4.1-30.4,7.6-16.2,8.9-31,21.4-46.2,31.8-12.7,8.7-30.1,15.7-38.6,28.4-2.2,3.4-10.8,17.7-11.4,20.7-1.1,5.3,6.2,6.5,10.3,6.3,16-.9,23.4-9.7,35.2-17.8,9.2-6.3,19.3-13.6,29-19,11.7-6.6,47.1-19.2,52.7-29.3,2.4-4.3,2.8-25.2-.7-28.6h0ZM1126,1664c-12-2.7-20.7,6.6-31.6,7.9-5.7.7-12.2-1.2-16.6-.7-7.1.8-22.9,12.1-31.2,14.9-14.8,4.9-30.2,4.7-45.1,0-8.8-2.8-23.9-14.1-31.2-14.9-4.4-.5-10.9,1.4-16.6.7-11-1.3-19.9-11-31.6-7.4,0,6.9,23.8,23.5,30,27,12.5,7.1,59.8,26.8,72.5,26.6s59.9-19.8,72.2-26.9c10.3-6,24.6-16.2,29.3-27.2h-.1Z" fill="#aaaaaa" style="opacity: 0.5" opacity="0.5"/>
  <path id="outline-jaw" d="M676,1140c5.2-3.1,18.7-3.2,19.1,4.5,0,2.3-.8,11.2-1.1,14-.3,3-.9,8.4-2.1,10.9-2.5,4.9-17.3,13.6-20.1,19.9-1.2,2.6-6.4,25.9-6.7,29.3-.2,1.7,0,2.8.4,4.4,2.1,6.9,13.8,19.7,17.7,27.3,5.7,11,7.2,24.3,12,35s13.5,10.7,22.5,15.6,17.7,11.1,25.3,17.2c-3.1,0-6.3.2-9.4,0-7.7-.8-35.8-6.7-41.8-10-6.1-3.3-8.8-18.4-12.8-20.4-2.5-1.2-7,0-10.3-.7-6.7-1.2-9.9-7.8-17.5-1.5-6.7,12.4-14.3,24.3-20.4,37.1-7.4,15.4-14.8,25.1-4.8,41.2,5.2,8.4,23.4,27,25.6,34.4,2.5,8.4-2.4,27.4,2.4,33.6,5.4,6.9,20.6,5.2,27.7,1.7,11.1-5.5,9.2-10.1,14.9-19.1,5.3-8.3,20.9-24.3,30.4-26.7,7.7-1.9,12.3,10.3,14,16,4.9,15.9,2,31.2,13.9,44.1,1.1,1.2,9,8.5,10,7.5-.8-5.6,4.8-8.4,6.5-13,3-7.9-3.1-20.6-5-29-2.8-12.3-5.1-24.7-8-37-1-4.1-6.2-19.9-5.4-22.3,1.2-3.8,23.7-9.1,24.9-10.7.4-.5-2.9-8.7,0-12.6,1.3-1.8,8.8-6.8,11.1-8.9,3.9-3.5,23.1-22.9,25.7-23.4,4.4-.8,5.2,2.4,8,3.6,5.1,2.1,10.8,2.5,15.7,4.3,1.1.4,2.4.5,2.5,1.9-11.2,6.3-23.6,13-34.3,20.2-2.7,1.8-16.6,11.8-17.6,13.4-1.6,2.6-2.2,9.7-2.2,12.9l3,44.5c-9.8-13.1-8.1-31.3-10-47-2.5,1.9-15.3,3.5-15.9,5.6,4.5,18.6,8.6,38.8,15.1,56.7,7.3,20.1,19.2,40.4,27.7,60.3,11.1,7.8,27.2-5.8,33-15,5.6-8.7,8.1-23.6,22.5-13.5,11,7.7,22.9,21.4,33.5,30.5,48.3,41.3,92.1,59.6,157.4,50.3,40-5.7,69.7-25.7,99.7-51.3,6.2-5.3,32.4-31.5,37.5-32.5,11.9-2.2,14.8,13.8,21.4,21.5,7.4,8.7,17.4,14.2,29.1,12,4.4-.8,21.2-8.4,26.3-10.7,9.2-4.2,20.3-11.4,27.2-18.8,10.4-11.3,8.4-24,12-38,1.7-6.6,6.3-23.8,15.5-21.6,10.7,2.6,27.2,21,32.6,30.4,1.7,3,2.2,6.8,3.9,9.1,6.3,8.5,28.5,13.3,36,5.1,5.6-6.1.4-25.5,2.9-34.1s20.4-25.8,26-35c9.4-15.8.8-28.3-6.5-43.3-5.8-11.8-13.2-22.7-19.2-34.3-7.1-5.6-12.2.4-18.5,1.5-2.9.5-6.9-.4-9.3.7-3,1.4-6.8,14.4-9.5,17.5-1.4,1.6-7.6,4.3-9.9,5.1-8,2.8-25.7,6.6-34.3,7.7-3.4.4-6.8.2-10.2.2,6.6-5.5,15.7-12,23.3-16.2,11.5-6.3,19.8-5.1,25.5-19.5,3.9-9.8,5.3-20.7,10.3-30.7,3.9-7.7,16.9-22.6,18.7-29.4.4-1.7.2-2.8,0-4.5-.6-4.4-5.6-25.6-7.2-28.8-3.7-7.3-19-15.9-20.5-21.5-.8-3.2-2.6-24.3-1.6-26.4,2.1-4.5,12.7-3.4,16.5-1,.5,1.9,4.4,14,5,14.5,6.2,5.3,26.1,4.1,26.1,17s-1.7,15.9.2,26.7c1.7,9.8,9.7,22.5,6.4,31-2.3,6-12,20.9-15.9,27.1-3.6,5.6-8.1,10.6-11.8,16.2,8.8.3,18.9-17.9,26.1-12.1,3.4,2.8,13.7,18.6,16.7,23.3,5.1,7.9,10.9,17.6,15.1,25.9,3.9,7.8,17.4,38.8,16.1,45.8-.2,1.2-13,15.6-15.2,18.8-10,14.2-21.3,32.5-25.7,49.3-1.9,7.2-2.7,14.7-4,22-1,1.4-27.6,11.9-31.1,12.9-10,2.9-17.2,1.5-24.9-5.4-.9,8.8-2.6,17.7-3,26.5s1.7,33.1-.8,39.2c-.6,1.5-11.3,15-12.5,15.5-6.3,3-15.7-1.7-24.7,3.3-22.6,12.7-18.8,48.5-26.9,68.1-6,14.6-40.4,52.5-54.6,59.4-1.2.6-2,1.3-3.6.9,1.2-14.7,3-35.1-3.9-48.6-.4-.8-.4-3.2-2.1-1.4-.7.7-3.6,13.8-6.6,17.9-8.6,11.7-30.9,6.8-39.2,20.8-5.2,8.9-7.6,22.3-13.4,30.6s-48.5,28.9-59.6,33.4c-15.1,6.1-64.1,21.2-78.8,21.2s-63.4-15.1-78.8-21.2c-11.1-4.4-55.3-26-60.6-34.4-6.9-11.1-8.5-31.6-21.5-37.6-14.4-6.6-26.5-2.6-33.9-20.1-1.1-2.5-2.5-10.3-2.8-10.7-1.3-1.6-1.8.4-2.2,1.3-1,1.8-4.8,14.6-4.8,16.2v30c0,.3,1.4,1.4,1,2.5-1.7.2-3-.3-4.4-1.1-15.2-8.7-49.8-45.6-54.8-62.2-6.2-20.6-5.2-52.1-25.9-65.1-8.2-5.2-18.3-.3-24.7-3.3-.9-.4-12.2-14.2-12.7-15.3-2.1-5.2-.2-29.6-.5-37.4-.4-9.1-2-18.5-3-27.5-4,1.6-7.6,4.7-11.9,5.6-2.8.6-5.6.7-8.5.3l-35.7-14.3c-1.5-7.3-2.1-14.8-4-22-4.3-16.8-16.4-36.3-26.5-50.5-2.2-3-13.9-15.8-14.2-16.8-1.1-3.6.8-8.3,1.8-11.8,5-18.6,17.3-42.1,27.6-58.4,2.5-4,17.5-26.2,20.1-26.9,6.2-1.8,15.2,12.1,22.3,12.8.7-.7-9.3-13.3-10.4-15.1-4-6.2-14.5-22.3-16.8-28.2-2.7-7.1,5.4-22.1,6.9-30.5,1.9-10,.2-18.4,1.3-27.7,1.2-11,17.6-11.6,25.8-15.7,2.1-4.7,2-9.6,3.2-14.8h.4v-.2ZM799,1627.5v-20c0-3.5,9.1-26.6,11.7-27.4,6.9-2.2,27.9,17.6,32.8,22.9,7.6,8.1,14.7,20,23,27,10.5,8.8,23.6,12.8,33.5,23.6,22.2,24.2,21.6,36,55.1,50.9,29.5,13.1,59.4,23.9,92.4,17.4,12.7-2.5,58.9-21.3,68.9-29.1,12.4-9.6,23.1-31.8,35.2-42.8,9.6-8.8,25.5-14.6,34.6-23.4,6-5.9,12.7-15.8,18.4-22.6,2.8-3.3,8.4-7.2,10.3-10.7,4.4-8.2,10.5-40.4,10.3-49.8-.3-12.5-3.5-25.3-4.2-37.8-17.1-12.8-20.5-.4-31.4,9.3-16.5,14.9-41.1,22.8-63,25-69.4,7-135.6,7-205,0-22-2.2-46.4-9.9-63-25-7-6.3-10.5-15.9-22-15.1-3.7.3-6,3.1-8.5,3.7-4.9,1-22.9-12.7-28.3-15.8-18.4-10.2-46.1-20.5-61.1-34.9-6.9-6.6-2.4-11.8-2.5-19.5s-3.8-23.4-6.8-30.2c-.5-1.1.2-1.5-1.7-1.3-9.4,1.3-19,20.2-19.3,28.8-.2,6.3,6.7,18.5,7.6,26.9,1.5,13.9-4.4,40.4,8.8,49.2,12.8,8.6,39.9,13.7,50.8,26.2,5.7,6.6,1.5,7.9.7,14.6-3.6,29.6,1.4,55.9,20.9,78.9.5.6,3.9,4,2,1h-.2ZM1248,1630c19.4-21.2,26.1-39.8,25-68.5-.3-7.8-4-21.4,0-27.8,4-6.1,20.2-13.6,27.2-16.8,15.2-7.1,31-7,32.7-27.3,1.3-14.8-1.6-26.3,2.5-41.5,3.4-12.7,7.8-13.2,2.5-27.5-2.8-7.7-9.2-17.6-18-18.4-5.5,13.3-7.4,26.1-7,40.5,0,3,2.2,4.9,0,8.1-1.5,2.2-16.5,12.2-19.8,14.2-9.2,5.7-59,28.5-60.9,35.1-2.7,9.4,7.3,31.3,8.6,41.6l-10,40.5c2.4-1.4,5-2.6,7.9-1.9,6.7,16.4,13.1,31.6,9.1,49.9v-.2h.2ZM780,1448c-2-1.4-5.5,2.6-5.8,4.7-.9,5,7.2,15.1,12.8,15.2-.9-2.6-6.1-19.4-7-20h0Z" class="outline" fill="#000000"/>
    </g><g class="trait-group" data-category="mouth" id="mouth-jaws">
      <path id="fill-mouth-main" fill="#ffffff" d="M1102 1287c.4.6-2.2 4.3 0 5.5 50.4 27.6 100.7 55.4 145.8 91.1-5.2 15.8-10.4 31.6-16.7 47.1-5.9 14.4-8.3 22.4-12.7 37.3-13 44.8-25.3 89.9-38.3 134.7-3.4 15.6 7.3 31.3 8.8 45.8.5 5.4-1.6 24.6-3.1 29.9-2.4 8.9-12.3 10.5-19.9 15.1-23.1 14.2-44 33.8-68.7 45.3-38.6 17.9-94.7 18.9-134.6 4.9-30.8-10.8-53.7-33.5-80.8-50.2-5.6-3.4-16.3-6.9-18.8-12.2-2.2-4.7-4.6-27.2-4.1-32.9 1.2-14.4 12.1-30.2 8.8-45.8-13.8-47.4-26.5-95.2-40.5-142.5-3.7-12.4-5.6-17.8-10.5-29.5-6.4-15.4-11.4-31.2-16.7-47.1 45.2-35.6 95.4-63.7 145.8-91.1 2.2-1.2-.5-4.8 0-5.5.2-.2 3.4-1.1 4.7-1.9 25.5-15.1 52.3-31 83.7-27.1 24.4 3.1 42.7 15.5 62.9 27.1 1.2.7 4.5 1.7 4.7 1.9h.2Z" class="fill" data-original-prefix="fill"/><path id="fill-mouth-teeth13" fill="#ffffff" d="m1042 1510-1.9 71.5c-.9 11.5-1.7 23.4-2.1 34.9-.2 7.7 1.3 20.2 0 27-.5 2.5-12.9 11.6-14.3 11.4-1.2-.2-13.2-8.9-13.7-11.4-.2-44.5-3.3-88.9-4-133.5l17.6 16.9 18.3-16.9Z" class="fill" data-original-prefix="fill"/><path id="fill-mouth-teeth12" fill="#ffffff" d="m1000 1637-20-15.5c-1.8-.5-2.8-4.4-3-4.5-.8-.5-3 3.8-5 3-.4-20.5-.2-41.1-1-61.5s-2.9-41.1-2.5-61.4l11-14c3 4.2 18.8 16.6 19.2 20.6.4 3.5-.9 11.2-.8 15.9.8 20.4 1.8 41.5 2.1 61.9.2 18.5-.2 37 0 55.5" class="fill" data-original-prefix="fill"/><path id="fill-mouth-teeth11" fill="#ffffff" d="M1076 1620c-2 .8-4.2-3.5-5-3-.2.2-1.2 4.1-3 4.5l-20 15.5c.2-18.5-.3-37 0-55.5.2-20.4 1.3-41.5 2.1-61.9.2-4.7-1.2-12.4-.8-15.9.4-4 16.2-16.4 19.2-20.6 2.1 3.9 9.5 10.8 11 14 1.8 3.8-1.3 28.2-1.5 34.4-.3 9-.7 18.1-1 27-.7 20.5-.6 41.1-1 61.5" class="fill" data-original-prefix="fill"/><path id="fill-mouth-teeth10" fill="#ffffff" d="M1114 1651c-3.8-.4-4.7-3.2-5-6.4-1.4-14.4 1.7-35 2.1-50 .6-21.9 0-43.7 2-65.5 3.3.2 4.2 1.9 7.1-.4 6.2-5.1 13.2-22.1 19.9-28.8s2.8-2 3-1.8l-9.1 120.4-20 32.6Z" class="fill" data-original-prefix="fill"/><path id="fill-mouth-teeth9" fill="#ffffff" d="M907.7 1499.3c7 6.2 13.8 23.9 20.3 29.2 2.9 2.4 3.8.6 7.1.4 1.5 10.5.6 21 1 31.5.7 20.9 1.5 42 2 63 .2 5.8 4.1 25-2.5 27.4-1.7.6-6.8-10-8.5-11.4l-12.9-21.1c-3.3-40.1-5.6-80.4-9-120.4 0 0 2.2 1 2.7 1.3h-.2Z" class="fill" data-original-prefix="fill"/><path id="fill-mouth-teeth8" fill="#ffffff" d="M903 1601c-7.1-6.3-5.5-23.9-18-13l-17-142c10.4 12.2 19 26.1 28 39.5 1.9 38.5 3.8 77.1 7 115.5" class="fill" data-original-prefix="fill"/><path id="fill-mouth-teeth7" fill="#ffffff" d="M1163 1588c-12.5-10.9-10.9 6.7-18 13l4-51.5 3.1-63.9c8.9-13.4 17.5-27.3 27.9-39.5l-17 142Z" class="fill" data-original-prefix="fill"/><path id="fill-mouth-teeth6" fill="#ffffff" d="M963 1507c-.7 40.2 2 80.1 2 120.3-1.9 1.4-17.9 15-19 13.7.9-38.3-2.3-76.2-2-114.5l15.4-18.6z" class="fill" data-original-prefix="fill"/><path id="fill-mouth-teeth5" fill="#ffffff" d="M1102 1641c-1.1 1.3-17.1-12.3-19-13.7.4-22.3.5-44.6 1-66.8 0-2.4 1-4.6 1.1-6.9.3-15.5-.3-31.1 0-46.5l3.6.9 15.4 18.6c.3 38.2-2.9 76.2-2 114.5Z" class="fill" data-original-prefix="fill"/><path id="fill-mouth-teeth4" fill="#ffffff" d="M875 1581c-1.5.2-1.3-1.7-1.7-2.8-3-8.8-6.1-18.6-8.6-27.4-10.7-37.7-11.6-78.6-17.8-117.3 0-3.9 3-6.9 5.6-9.5 3.4 3.5 5.8 6.6 6.4 11.6 1.2 10.1 1 21.5 2.1 31.9 3.8 35.2 11.2 72.2 14 107 .2 2.2 0 4.3 0 6.5" class="fill" data-original-prefix="fill"/><path id="fill-mouth-teeth3" fill="#ffffff" d="M1172 1580c6.3-40.6 11.8-81.6 16-122.5 1.2-11.5-1.6-25.4 7.5-33.5 2.6 2.6 5.7 5.5 5.6 9.5-7.6 47.5-8 99-26.1 144-.6 1.6-.8 2.9-3 2.5" class="fill" data-original-prefix="fill"/><path id="fill-mouth-teeth2" fill="#ffffff" d="m843 1439 4 53-5.7-15.8c-1-7.8-7.5-23.8-4.4-30.8.5-1.1 2.9-4.1 3.8-5.2.6-.7 0-1.9 2.3-1.3Z" class="fill" data-original-prefix="fill"/><path id="fill-mouth-teeth1" fill="#ffffff" d="M1207 1439c.3.3 4.7 7.3 4.8 7.7 1.3 4.9-3.4 23.5-5 29.5l-5.7 15.8 4-52.5c0-.9 1.9-.6 2-.5z" class="fill" data-original-prefix="fill"/><path id="shading-mouth4" fill="#aaaaaa" d="m900 1319-56.5 57-14 16c-1.9 4.1 3.2 15.8 2.5 21 4.2-1.8 14.7-13.4 18.4-13.1 4 .3 8.8 14.9 10.3 18.8 2.5 6.3 4.5 12.8 6.8 19.2 18.7 24.5 38.6 48.2 57.4 72.6 3.8 5 3.2 9.2 10.1 7 3.2-1 13.7-10.2 17-13 10.5-9 19.8-20 30.5-28.6l41.1 41 41.9-41c13.1 10.8 24.4 24.6 38 35 3.2 2.5 10.4 9 14.5 6.5l61.8-79.2c3.6-6.3 11.7-36.7 16.9-38.2 4.6-1.3 17.3 14.1 19.3 11.9-.8-5.2 4.4-15.8 2.5-20-20.7-25.2-46.1-46.1-68-70-.7-.7-2.7-2-2-3 34.5 16.7 65.1 39.8 96 62 2.5 5.1-7.2 33.5-9.8 40.2-2.7 7.3-6.2 13.8-9.2 20.8-3.2 7.3-3.5 21.2-14.5 14l-8.5 50-2.5 1c-.2-19.8 1.9-39.7 4-59.4-2-4.9-6.9-13.6-8.8-3.8-4 21.5-4.5 48.2-7.4 70.6-3.6 28-8.2 56-12 84-2 14.9-3.3 16.2 1.9 31.4 1.3 3.8 7.2 14.6 7.4 16.7s-6.3 26.7-7.6 29.5c-2.4 5.5-34.3 27-41.2 30.8-23.5 12.8-65.3 23.2-92 27-44.3 6.3-112.7-12.8-149.7-38-4.2-2.9-22.5-15.7-24.1-18.9-1.2-2.3-7.8-28.2-7.7-30.4 0-2.1 7-16.2 8.3-20.7 4-13.7 2.7-13.4.9-26.4-7.5-52.8-15.1-105.5-20.4-158.6-2.2-5.2-7.7 4.9-7.9 7.8 2.1 19.4 4 39 4.1 58.5h-3l-8-51c-11.6 7.2-11.3-6.6-14.5-14-5.7-13.3-11.5-25.2-15.5-39.5-1.5-5.2-6.1-18.6-2.5-22.6 31.2-21.3 60.9-45.2 95.5-60.9zm-34.5 137v1c.7-.3.7-.7 0-1m315.5 1c-3.8 9.4-17.3 19.9-21.1 28.4-3.4 7.8-1.6 20.7-3.9 29.1l-3 60c.6 3 10.1 7.9 13.4 8.4zm-286.2 118.8c-1.8-29.7-2.2-59.6-6.1-89.1-7.3-9.7-14.3-20.1-22.7-28.8l14 125c6 0 10-4.5 14.8-7.2ZM995 1627c-.8-15.5-.4-31.1-1-46.5-.7-20.6-1.2-43.5-3-63.9-.3-3.6-.4-13.4-4.5-13.5-2.5 0-20 10.7-20.5 13.5 2.4 20.6 1.2 41.4 1.9 62 .2 6.2.6 13.8 1.1 19.9s3 12.8 2 19.5l5.4-5c1.5 2.2 17 15.7 18.6 14m82-10c-.8-6.9 1.6-13.7 2.1-20.4 1.1-17.4.3-35.7.9-53.1.3-8.7 2-18.1 2-26.9s-1-2.1-2-3c-2.2-1.8-17.3-10.9-19.3-10.4-2.9.7-3.4 7.6-3.7 10.4-3.3 35.8-2.8 74-4 110 0 1.4 0 2.9-1 4 5.2.7 17.8-14.1 19.5-14.5 2.3-.5 2.5 4.7 5.4 4Zm-146 17c-1.9-32.1-.2-64.4-2-96.5l-26-32.5c2.8 32.1 2.9 64.2 5 96.4 6.9 11.3 14.5 22.3 23 32.5Zm187 0 22-32.5c1.9-32.2 2-64.3 5-96.4l-26 32.5c-2 25.3-.4 50.7-1 76-.2 5.9-1.4 11.5-1 18 0 1.1-.7 2.8 1 2.5Zm-175 2c.8.8 16.4-9.7 17.5-11 .7-.8 1.5-1.4 1.4-2.6-.7-33.9-2.5-67.6-4-101.5-3.4 2.4-16.3 10.2-17 13.5-.2 33.9 0 67.8 2 101.5Zm101-115c-4.9 2.7-10.4 10.7-15.7 11.8-11.9 2.5-16.1-5.4-24.3-11.8 1.3 37.5 2.3 74.9 2 112.5.8 4 14.2 9.4 17.7 12.4 3.7-2.5 17.6-8.6 18.3-12.4-.2-37.6.2-75.1 2-112.5m61 115c1.6-33.8 2.3-67.6 2-101.5-.7-3.7-13.7-10.5-17-13.5-1.8 33.8-3.7 67.5-4 101.5.2 2.9 18.2 14.4 19 13.5m-167.3 18.7c-1 .9-2.6 1.5-4 1.2-3.8-1-23-30.3-27.3-35.8L895 1607c-.4 4.4-1.3 8.8-2.5 13-1.6 5.4-8.4 19.9-8.6 23.5 0 2.9 4.5 19.8 5.8 23.3.7 1.9 1 3.9 2.9 5.1 29 14.8 52.4 35.8 84.2 44.8 31.1 8.9 64.2 8.8 95.2-.2 31.6-9.2 55.5-30.5 84.3-45.4.8-.4.9-1.2 1.2-2 1.2-3 6.7-24.2 6.5-26.5-.3-3.3-5.8-13.4-7.3-17.8-1.8-5.8-3.1-11.8-4.2-17.8-2.2 3.1-5.1 5.6-7.5 8.5-8.8 10.8-17.2 26.4-26.1 35.9-1.6 1.8-3.2 3.6-5.6 4.3l-43.7-28.7c-4.3 3.6-8.6 8.8-13.3 11.7-8.2 5.1-15 6.1-23.4 13.6-2.3 2.1-3 5.8-6.5 6.5-8.1 1.6-7.3-2.8-11.5-6.4-7.2-6.1-10.9-7.5-18.9-11.1-6.3-2.8-12.3-10-17.6-14.4-12.8 7.9-26.2 15.6-38.3 24.5-1.3.9-1.6 2.5-2.3 3.1v.2Z" class="outline shading" data-original-prefix="shading" opacity="0.5" style="opacity: 0.5"/><path id="shading-mouth3" fill="#aaaaaa" d="M1118 1345c-1.5 1.5-1.8-.6-2.3-1.3-1.8-2.3-6.1-7.1-7.1-8.8-1.8-3.2-.9-7.3-2.6-9.4-2-2.4-11.1-9.6-14.1-11.9-17.8-13.8-38.6-25.3-56-40-3.6-5.4 6-7.7 4.1-13.6.4-.4 8.3 1.9 9 2.5 1.9 1.6 0 5.2 2 7l68.4 49.6c2.9 2.8-.3 24.8-1.4 25.9" class="outline shading" data-original-prefix="shading" opacity="0.5" style="opacity: 0.5"/><path id="shading-mouth2" fill="#aaaaaa" d="M1008 1260c-2.1 5.5 7.8 8.5 4.1 13.6l-61.1 43.9c-10.3 7.3-11.1 16.5-18.7 26.2-.5.7-.7 2.7-2.3 1.3-1.1-1-5.1-24.3-1-26.5l68-49c2-1.9 0-5.2 2-7 1-.9 8.7-2.9 9-2.5" class="outline shading" data-original-prefix="shading" opacity="0.5" style="opacity: 0.5"/><path id="shading-mouth1" fill="#aaaaaa" d="M1011 1355c1.1 4.6-4.9 8.9-3.6 13 1.1 3.3 13.8 10.8 16.2 14.9 1.2.2 16.5-14.1 17-15.9 1-3.6-5.2-7.6-3.6-12 6.9-2.5 17.3 6.5 15.8 13.3-.8 3.8-7.8 10.3-10.8 13.2-6 5.9-6.9 4.1-10.8 12.2-1.9 3.9-5.9 3.9-9.8 3.3-5.8-.8-4.3-4.3-6.4-7.6-4.4-6.7-23.9-15.6-19.3-26.2 2.2-4.9 9.7-10.1 15.2-8.2Z" class="outline shading" data-original-prefix="shading" opacity="0.5" style="opacity: 0.5"/><path id="outline-mouth" fill="#000000" d="M1006 1260c.4-2.1 4.7-6.2 6.5-7 2.2-1 1.8 3.9 2.5 5l-.5 19c-9.8 6.8-19.7 13.6-29 21-10.5 8.4-26.4 21.1-35.5 30.4-3.6 3.7-.7 4.6 2.7 7.3 14.2 11.7 34.2 18.3 52.3 20.2 1.2 1.2-6.6 10.7-4.8 13.8l23.5 23.1c1.5.3 18.4-18.6 21.4-21.5.8-.8 2.6-1.3 2.8-1.6 1.8-3.1-6-12.7-4.8-13.8 18.1-1.9 38.1-8.5 52.3-20.2 3.3-2.8 6.3-3.7 2.7-7.3-9.1-9.4-25-22-35.6-30.4-9.3-7.4-19.2-14.2-29-21-1.1-1.8-.6-15.7-.5-19 0-1.1-.9-6 1.5-5 2.1.9 6.1 6.1 7.5 7-1.8 1-1 3.4-.5 5 3.8 10.3 55.3 44.8 67.4 54.6 1.8 1.5 8 6 8.6 7.4 2.3 5.4-.6 18.1-.5 24.5 0 4.3 3.4 17.4 1.1 20-1 1.1-12.4 6.6-15.3 8.7-15.1 10.7-26.8 28.3-34.7 44.8-1.5.4-1.7-.4-2.5-1-5.2-3.6-23.3-26.5-26.1-26.9-5.3 3.9-11.8 6.3-12.4 13.4-1.2 13 1 27.8 0 41.1l3.1 42.5 34.4-35.1 2.9-.9c13.6 15 26.1 31.3 40.1 46 1.3 1.4 9.3 10.1 10.5 9 3.5-11.2 11.6-21.6 18.2-31.3 19-27.8 40.6-53.8 59.3-81.7.8-.7.7-1.5 1.5-.4 7.1 9.4 13.4 20.9 20.5 30.4l17.6-43.4-157.1-108.6 2-3c36.8 19.5 75.4 39.4 110.9 61.6 21.2 13.3 40.5 29.5 61.9 42.6.6 1.1.2 2.9 0 4.2-.7 7.6-9.9 31.6-13.2 39.9s-7.1 16.1-11 24l-44.5 161.6c.4 12.4 9.3 27.7 9.8 39.7.3 6.8-1.7 25-3.2 31.9-.4 2.2-1.7 6.3-3 8-1.2 1.6-15.8 8.4-19.4 10.6-24.6 15-45.2 35.2-72.5 46.5-40.8 16.9-104 16.8-144.7-.3-27-11.3-47.4-31.4-71.8-46.2-3.6-2.2-18.2-9.1-19.4-10.6-1.3-1.7-2.6-5.8-3-8-1.4-6.9-3.5-25.1-3.2-31.9.6-12.2 9-27.1 9.8-39.7-13.1-46.2-25.7-92.7-39.3-138.8-2.2-7.3-3.2-16.5-5.7-23.3s-7.5-14.1-10.5-21.5c-5.5-13.7-9.1-28.1-14.2-41.9-.3-1.7 0-3.3 1.4-4.4 24.1-15.7 46.6-33.8 71.2-48.8 32.3-19.7 66.7-38.2 100.3-55.2l3 3-157.1 108.6 17.6 43.4c7.1-9.6 13.4-21 20.5-30.4.8-1.1.7-.3 1.5.4 18.8 27.9 40.3 53.9 59.3 81.7 6.6 9.7 14.7 20.2 18.2 31.3 1.2 1.1 9.2-7.6 10.5-9 14-14.6 26.5-30.9 40.1-46l2.9.9 34.4 35.1 3-42.5c-1-13.2 1.2-28.1 0-41.1-.7-7.1-7.1-9.5-12.4-13.4-2.8.5-21 23.4-26.1 26.9-.8.6-1 1.4-2.5 1-7.8-16.5-19.6-34.1-34.7-44.8-3-2.1-14.3-7.5-15.3-8.7-2.3-2.6 1-15.7 1.1-20 0-6.4-2.8-19.1-.5-24.5.6-1.5 6.8-5.9 8.6-7.4 11-9 62.9-44.3 66.1-52.9 1.1-2.8.4-4.5.8-6.7zm-131 321c0-2.1.2-4.3 0-6.5-2.8-34.8-10.2-71.8-14-107-1.1-10.4-.9-21.8-2.1-31.9-.6-5-3-8.1-6.4-11.6-2.6 2.6-5.7 5.5-5.6 9.5 6.2 38.7 7.2 79.6 17.8 117.3 2.5 8.9 5.6 18.7 8.6 27.4.4 1.1.2 3 1.7 2.8m297-1c2.2.4 2.4-1 3-2.5 18.1-45 18.6-96.5 26.1-144 0-3.9-3-6.9-5.6-9.5-9.1 8.1-6.3 22-7.5 33.5-4.2 40.9-9.7 81.9-16 122.5m-329-141c-2.3-.6-1.7.6-2.3 1.3-.9 1.1-3.3 4.1-3.8 5.2-3.1 7 3.3 23 4.4 30.8l5.7 15.8-4-53Zm364 0s-2.1-.4-2 .5l-4 52.5 5.7-15.8c1.6-5.9 6.4-24.5 5-29.5 0-.4-4.4-7.4-4.8-7.7zm-304 162c-3.2-38.4-5.1-76.9-7-115.5-8.9-13.4-17.5-27.3-28-39.5l17 142c12.5-10.9 10.9 6.7 18 13m260-13 17-142c-10.4 12.2-19 26.1-27.9 39.5l-3.1 63.9-4 51.5c7.1-6.3 5.5-23.9 18-13Zm-163 49c-.2-18.5.3-37 0-55.5-.2-20.4-1.3-41.5-2.1-61.9-.2-4.7 1.2-12.4.8-15.9-.5-4-16.2-16.4-19.2-20.6l-11 14c-.3 20.3 1.8 41.1 2.5 61.4s.6 41.1 1 61.5c2 .8 4.2-3.5 5-3 .2.2 1.2 4.1 3 4.5zm76-17c.4-20.5.2-41.1 1-61.5.3-8.9.7-18 1-27 .2-6.2 3.3-30.6 1.5-34.4-1.5-3.2-8.9-10.1-11-14-3 4.2-18.8 16.6-19.2 20.6-.4 3.5.9 11.2.8 15.9-.8 20.4-1.8 41.5-2.1 61.9-.2 18.5.2 37 0 55.5l20-15.5c1.8-.5 2.8-4.4 3-4.5.8-.5 3 3.8 5 3m-168.3-120.7c-.4-.4-2.6-1.5-2.7-1.3 3.4 40.1 5.8 80.3 9 120.4l12.9 21.1c1.7 1.4 6.8 12.1 8.5 11.4 6.6-2.4 2.7-21.7 2.5-27.4-.5-21-1.3-42.1-2-63-.4-10.5.5-21.1-1-31.5-3.3.2-4.2 1.9-7.1-.4-6.5-5.3-13.2-23-20.3-29.2h.2ZM1114 1651l20-32.6 9.1-120.4c-.2-.3-2.5 1.3-3 1.8-6.8 6.7-13.7 23.7-19.9 28.8-2.9 2.4-3.8.6-7.1.4-1.9 21.8-1.3 43.7-2 65.5-.4 15-3.5 35.6-2.1 50 .3 3.2 1.2 6 5 6.4Zm-151-144-3.6.9-15.4 18.6c-.3 38.2 2.9 76.2 2 114.5 1.1 1.3 17.1-12.3 19-13.7 0-40.2-2.7-80.1-2-120.3m139 134c-.9-38.3 2.3-76.2 2-114.5l-15.4-18.6-3.6-.9c-.3 15.5.4 31 0 46.5 0 2.4-1 4.6-1.1 6.9-.5 22.3-.6 44.6-1 66.8 1.9 1.4 17.9 15 19 13.7Zm-60-131-18.3 16.9-17.6-16.9c.7 44.6 3.8 88.9 4 133.5.4 2.5 12.5 11.2 13.7 11.4 1.4.2 13.8-8.9 14.3-11.4 1.3-6.8-.3-19.3 0-27 .4-11.5 1.2-23.4 2.1-34.9l1.9-71.5h-.1Zm-112.9 165.9-39.6-64.9c-2.7 4.3-15.7 16.7-16.5 20.5-.5 2.3 0 6.3 0 8.8.5 6.2 3.4 24.2 5.1 29.9 2.2 7.3 14 10.2 20.1 13.9 44.8 27.9 79.7 46.3 135.2 43.8 47.1-2.2 77.9-20 116.2-43.8 6.1-3.8 17.8-6.6 20.1-13.9 1.7-5.7 4.6-23.7 5.1-29.9.2-2.5.6-6.5 0-8.8-.7-3.8-13.8-16.2-16.5-20.5l-40.1 65.1-48.9-32.8-45.1 37.7-45.8-37.7c-6.8 2.2-46.8 34.1-49.4 32.6Z" data-original-prefix="outline" class="outline"/>
    </g><g class="trait-group" data-category="eyes" id="eyes-alien">
      <path id="fill-eyes-main" fill="#ffffff" d="M1361.3 1155.3c-16.1 35.9-23.5 77.5-53.9 104.6-33 14.3-68.6 37.1-104.9 40.1-27.9 2.3-67.9-2.5-91.8-18.2-2.8-1.8-9.2-9.3-10.4-9.6-6.3-1.8-19.3.8-26.7-.3-19.6-3-27.2-26.4-41.6-35.4-9.8-6.2-18.3 2.6-25 8.9-8.8 8.4-16.3 22.3-29 25-8.5 1.8-22.3-1.4-29.3.7-2 .6-6.9 6.9-9.2 8.8-27.4 21.4-102.9 23.8-135.2 13.2l-70.8-40.2c-3.6-3-5.2-7.6-7.3-11.7-13.5-26-24.4-61-38.9-85.1-4-6.6-11.5-15-16.1-22-1.9-2.9-11.1-15.7-11.1-17.8 15.3-32.9 31.4-65.4 48.5-97.4 31-29 57.4-63.1 92.1-87.9 32.1-22.9 74.1-43 110-59 71.6-32 163.6-29.7 234.4 3.3 34.4 16.1 71.1 33.5 102.3 55.7 39.5 28.1 71.6 69.8 106.4 103.6l35.2 93.9c.2 2.7-2.6 4.6-4.5 6.4-7.3 7.1-15.4 13.8-23.2 20.3Z" class="fill" data-original-prefix="fill"/><g id="eye-shine"><path id="fill-eyes4" fill="#ffffff" d="m1311 1245 1 1c-45.2 39.6-120 69-179 44.5-7.9-3.3-20.7-9.3-19-19.5 10.4 4.9 21 7.8 32.5 9 53.6 5.8 117.7-8.6 164.5-35" class="fill" data-original-prefix="fill"/><path id="fill-eyes3" fill="#ffffff" d="M737 1245c44.3 27.2 128.5 44.4 179 32.5 6.6-1.5 11.8-4 18-6.5 1.7 10.3-11.7 16.6-19.7 19.8-59.1 23.4-133.2-4.9-178.3-44.8z" class="fill" data-original-prefix="fill"/><path id="fill-eyes2" fill="#ffffff" d="M1354 1145c-4.6-1.2-8.4-4.1-13-5.5-36.5-11.4-90.1 6.2-123.4 22.6-6.8 3.3-13.4 8.8-20.6 10.9-2.4-1.9 23.4-22.2 25.7-23.8 29.8-20.9 76.1-38.8 112.3-26.6 3.9 1.3 15.1 6.7 17.1 9.9 1.8 2.8.5 9 1.9 12.6Z" class="fill" data-original-prefix="fill"/><path id="fill-eyes1" fill="#ffffff" d="M851 1173c-1.3 1-17.8-9.5-20.6-10.9-33.5-16.6-83.9-33-121-23.2-5.3 1.4-9.2 4.2-14.4 5.1 1.7-3.5.2-8.2 1.2-11.3 1-3.5 14.6-9.4 18.4-10.6 34.1-10.6 76.6 4.9 105.3 23.5 2.6 1.7 34.1 25 31.1 27.4" class="fill" data-original-prefix="fill"/></g><g id="eyes-shading"><path id="shading-eyes4" fill="#aaaaaa" d="M945 856c.7.3-.6 1.7-2 1-.7-.3.6-1.7 2-1" class="outline shading" data-original-prefix="shading" opacity="0.5" style="opacity: 0.5"/><path id="shading-eyes3" fill="#aaaaaa" d="M1105 856c.7.3-.6 1.7-2 1-.7-.3.6-1.7 2-1" class="outline shading" data-original-prefix="shading" opacity="0.5" style="opacity: 0.5"/><path id="shading-eyes2" fill="#aaaaaa" d="M1376 1124c-.4.5-10.7 4.3-11.9 4.6-10.2 2-33.8-11.1-46.8-13.3-80.4-13.5-146.8 57.7-193.2 113.2-7.9 9.4-15 21-23.1 29.9-7.4 8.2-16.7 13.4-27.7 13.8-16-12-31.8-24.1-44.3-39.8-.4-.2-7.8-.5-8.4-.4-2 .2-17 17.3-20.5 20.5-3.1 2.8-25.4 20.3-27.3 20.3-1.3 0-8.9-2.6-10.7-3.3-15.3-6.1-32.6-34.5-44-48-30.3-36-69.9-78.9-114.5-95.5-30.4-11.4-53.9-17.4-86.3-7.3-9.3 2.9-25.2 12.5-34.5 10-2.5-.7-7.7-4.4-10.8-5.3 0-2.4 3.3-2.2 4.9-4.1 3.9-4.8 11.4-27.6 15.8-29.2 2.7-1 13.3-2.1 16.7-2.3 33.9-2.1 113 3.8 139.5 25.5 21.9 18 45.7 46.3 66 67 16.2 16.5 33.2 32.2 48 50.1 4.1 3.3 19.5-.9 25.1-2.1 6.2-1.3 18.6-6 23.7-6.3 3.5-.2 7.2 6 17.4 3.3 2.2-.6 4.6-3.4 6.4-3.5 2.6-.1 20.4 5.6 25.3 6.6 4.6.9 18.9 4.4 22.5 3.1l46.6-49.4c23.8-20.6 45.1-49.2 69-69 22.3-18.4 77.7-24.2 106.5-25.5 7.9-.3 46.4-.7 51 3s9.3 22.9 14.6 28.4c1.3 1.3 6.2 2.8 4.9 4.6Z" class="outline shading" data-original-prefix="shading" opacity="0.5" style="opacity: 0.5"/><path id="shading-eyes1" fill="#aaaaaa" d="M942 857c-12.1 12.3-28.7 18.2-42.9 27.6-24 15.9-46.8 43.3-62.9 67.1-5.4 7.9-23 36-24 44-1.9 15 19 44.3 30.9 52.7 15.5 11 44.6 22.3 62.6 32.4s34.5 19.9 50.9 31.1c14.4 19.1 24.9 49.3 40 66.9 6.5 7.6 13.5 4.7 18 8 1.1.8 4.3 7.4 5 9 1.1 2.8-.7 5.7 2.8 7.3 5.7 2.7 5.9-8.1 8.2-12.3 4.5-8.3 14.1-3.9 20.9-12.1 14.5-17.4 24.2-46.5 37.8-64.2 6.2-8.1 34-23 44.2-28.8 11.7-6.7 23.8-13 35.7-19.3 21-11.2 34.9-13.8 50.4-33.6 11.6-14.8 20.3-27.2 12.4-46.3-11.6-28.4-47.4-74.4-71.4-93.6-17.2-13.8-38.5-21-54.5-36 32.2 6.5 62.4 20.5 90.7 36.8 43.8 25.2 91.8 64.7 120.1 106.9 2.5 3.7 7.4 8.7 5.5 13.1-1.7 4-26.2 9.5-31.6 11.5-55.7 20.6-105.3 41.9-152.6 78.4-29.2 22.5-41.7 38.5-62.3 68.7-4.9 7.2-6.3 13.4-13.3 19.7-2.6 2.4-21.3 15.7-23.6 16.4-7.4 2.2-21.8-.9-30.1.5-8.1-8-20.7-12.5-27.7-21.3-3.8-4.8-5.7-10.7-9.2-15.8-18.6-27.1-30.9-43.6-56.9-64.1-49.4-38.9-99.1-60.6-157.6-82.4-5.5-2-29-7.5-31.3-10.6-2.9-4 2.2-9.9 4.6-13.5 27.4-39.9 72.4-78.4 113.8-103.2 30.1-18 63.1-33.9 97.7-40.8Z" class="outline shading" data-original-prefix="shading" opacity="0.5" style="opacity: 0.5"/></g><g id="eyes-outlines"><path id="outline-eyes4" fill="#000000" d="M998 1256c3.5-11.5 10.9-16.9 15.5-28 3.1-7.5 4.7-12.5 3.6-20.6-.5-3.5 5.3.6 7.5.6s4.7-2.4 7.5-2.1c-2.6 10.9 3.8 24.7 9.8 33.7 2.4 3.6 11.9 12.2 8.2 16.3-.2.3-5.7 3.2-6 3-.9-5.7-7.9-7.8-12-12.5-1.3-1.5-3.3-4.1-4.3-5.8-1.4-2.5.7-4.5-4.3-3.8-1.7.2-1.1.2-1.8 1.3-2 3.3-2.8 6.2-5.7 9.3-3.5 3.7-10.7 6.2-11 11.5l-7-3Z" class="outline" data-original-prefix="outline"/><path id="outline-eyes3" fill="#000000" d="m981 1184-8.5-8c-11.5-11.2-19.5-31.1-29.9-42.1-8.7-9.1-25.2-21.3-35.7-29.3-17.2-13.3-42.5-27.1-57.4-40.6-1.2-1.1-2.9-2-2.5-4 13.6 2.5 23.9 12.5 35.3 19.2 22.3 12.9 46.3 23.5 68.7 36.3 3.9 3.2 8.8 14.6 11.2 19.8 7.2 15.8 12.7 32.4 18.8 48.7" class="outline" data-original-prefix="outline"/><path id="outline-eyes2" fill="#000000" d="M1202 1060c.3 2-1.3 2.8-2.5 4-14.8 13.6-40.2 27.3-57.4 40.6-10.4 8.1-26.9 20.2-35.7 29.3-10.4 10.9-18.5 30.9-29.9 42.1l-8.5 8c6.1-16.2 11.6-32.9 18.8-48.7 2.4-5.2 7.3-16.6 11.2-19.8 22.4-12.8 46.4-23.4 68.7-36.3 11.5-6.6 21.7-16.7 35.3-19.2" class="outline" data-original-prefix="outline"/><path id="outline-eyes1" fill="#000000" d="M991 1262c.9 4.5-2 6.9-5 9.5-3.3 2.9-19.8 12.2-23.4 11.3-1.4-.3-2.5-4-4.1-4.8-3.1 5.5-6.4 10.7-10.5 15.5-5.5 6.4-19.4 20.8-26.8 23.2-8.5 2.7-17.6 2.2-26.2 4.3 1.2-2.2 12.9-13.1 11-15-7.1 1-13.8 5.3-20.8 7.7-15.4 5.3-37.4 11.1-53.5 9-9.8-1.2-20-7.8-29.8-9.8 1.6-4.5 14.6-3.7 16-5l-1-1.5c-8.3-.4-15.9-4.4-23.8-6.2-24.6-5.6-32.1-2.8-55.5-16.5-53.2-31.1-79.1-70-73.6-133.2.2-1.9 2.1-5.1 1.9-6-.9-3.6-18.9 1.8-20.9-9.1-2.2-12 9.6-49 14.2-61.7 8.4-23.3 24-54 40.3-72.7 1.4-1.6 8.6-7.6 10.2-7.9 2.7-.6 4.8 3 7.3 1.4.5-.3 4.6-7.4 6-9 41.7-50 91.6-93.3 151.3-120.7 68.2-31.3 165.1-34 237.9-19.5 81.5 16.2 160.7 75 211.8 139.2 1.7 2.1 6.5 10.6 7 11.1 1 .8 5.3-2.2 6.8-2.4 6.3-.9 18.5 17.5 22.1 22.5 19.1 27.4 42.2 79.5 44.2 112.8 1 17.3-9.2 12.8-22 15.6.4 2.6 1.8 4.8 2 7.5 6 61.8-22.1 102.2-73.7 132.3-23.4 13.7-30.9 10.9-55.5 16.5-7.9 1.8-15.5 5.8-23.8 6.2l-1 1.5c1.3 1.3 14.4.5 16 5-9.8 2-19.9 8.5-29.8 9.8-16.1 2.1-38.1-3.7-53.5-9-6.9-2.4-13.6-6.7-20.8-7.7-1.9 1.9 9.8 12.7 11 15-8.6-2.1-17.8-1.6-26.2-4.3-7.4-2.4-21.3-16.8-26.8-23.2-4.1-4.8-7.4-10.1-10.5-15.5-1.6.8-2.7 4.5-4.1 4.8-3.7.9-20.1-8.4-23.4-11.3-3-2.6-5.9-5-5-9.5.7 0 1.9-1.1 4.2-.8 4.3.6 16 7.1 19.3 4.9 30.3-36.3 57-75.9 92-108.1 49.6-45.7 105.5-70.8 172.5-44.5 4 1.6 21.4 11.1 22.7 11.2 1.1.1 7.9-2.5 8.2-2.9.5-.8.3-7.7.2-9.4-.8-10-10.4-30.2-15.2-39.8-7.7-15.6-17.2-30.4-26.1-45.4-22.2-2.1-46.2 1.2-67.8 6.8-.4-1.9 1-2.4 2.1-3.4 10.6-9.7 25.1-17.1 37.8-23.7-3.3-20.5-21.3-38.3-36.3-51.9-36.5-33-88-57.8-132.2-78.8-66.9-31.9-160.7-30.9-227.7 0-33.5 15.5-72.5 34.1-103 55-19.8 13.6-61.4 47.8-66.4 71.6-1.2 5.8.4 3.4 3.4 5 11.2 6 25.9 14.3 35.2 22.8 1.1 1 2.5 1.5 2.1 3.4-21.6-5.6-45.5-8.9-67.8-6.8-8.8 15-18.4 29.8-26.1 45.4-4.4 9-14.4 29.8-15.1 38.9-.5 6.7-1.7 12.4 6.5 12.6 3.1 0 18.6-8.6 23.5-10.6 120.5-47.4 200.4 72.3 264.5 152.6 3.3 2.2 15-4.3 19.3-4.9 2.3-.3 3.5.8 4.2.8Zm-140-89c3-2.4-28.4-25.7-31.1-27.4-28.8-18.7-71.3-34.1-105.3-23.5-3.8 1.2-17.3 7.2-18.4 10.6-.9 3.1.5 7.8-1.2 11.3 5.2-1 9.1-3.7 14.4-5.1 37.1-9.7 87.5 6.7 121 23.2 2.9 1.4 19.3 11.9 20.6 10.9m503-28c-1.4-3.6 0-9.7-1.9-12.6-2.1-3.2-13.2-8.6-17.1-9.9-36.1-12.1-82.5 5.8-112.3 26.6-2.2 1.6-28.1 21.9-25.7 23.8 7.2-2.1 13.8-7.5 20.6-10.9 33.3-16.4 86.9-34 123.4-22.6 4.6 1.4 8.4 4.2 13 5.5Zm-618 101c45.1 39.8 119.2 68.1 178.3 44.8 8-3.2 21.4-9.4 19.7-19.8-6.1 2.5-11.4 5-18 6.5-50.5 11.9-134.7-5.3-179-32.5-.8-.5-6-4-6-4s4.7 4.8 5 5m575-1c-46.8 26.4-110.9 40.7-164.5 35-11.5-1.2-22.1-4-32.5-9-1.7 10.2 11.1 16.2 19 19.5 59 24.5 133.8-4.9 179-44.5.3-.2 5-5 5-5s-5.2 3.6-6 4" class="outline" data-original-prefix="outline"/></g>
    </g><g class="trait-group" data-category="right ear" id="right ear-scruffy">
      <path id="fill-ear-rt" fill="#ffffff" d="m1784.9 111.1 8.9 47.1c-1.6 8.1-27.6 42.2-26.9 47.1l45.9 34.9c.9 1.7-1.2 17.6-2.8 19.3-2.4 2.5-13.3 4.9-17.3 6.6-7.9 3.5-15.2 8.1-23.2 11.8-.9.4-1.8-.6-1.4 1.6.2 1.2 9.2 9.4 11 11 5.3 4.7 30.2 23.1 31.6 27.5 1.1 3.6-8.8 16-12.3 16.8-14.9.1-29.9.5-44.8.3-8.6-.2-17.1-4.4-23.4 4.5l30 13c1.4 1.4 1.4 16.5.8 18.8-1.4 4.9-45.5 35.5-51.8 42.2-34.4 70.8-50.5 148.5-73.4 223.6l-71 103c-20.4 15.2-41.8 29.5-63.5 43-.3 2.4 0 1.6 1.4 2.1 4.4 1.6 23.6 7.5 27.3 7.6 5.6.2 14.7-5 20.8-5.5.9.2 9 14.3 9.4 15.6 1.3 4.9-6.8 20.9-10.3 25.3l-63.5 36.5c12.4 5.7 31.3 5.6 43.2 10.8 1.2.5 2.9 1.6 2.7 3.1l-34 41.1c-6.6 2.8-54.8 6.2-56.5 8.5-2.1 2.9 8.3 43.8 8.6 50.6-.2 1.7-11.9 10.9-13.7 11.3-4.6 1-27.2-11.6-33.8-11.8l-84 18.1c-13.7-4.9-41.2-5.1-52.8-12.2-4.3-2.6-3.2-5.8-4.9-7.6-1.9-2.1-19.5-7.9-24.1-10.4-7.4-4.1-17.6-12.1-24.6-17.4-16.5-12.4-27.2-21-37.6-39.4-3.5-6.2-15.6-31.6-15.6-37.5 0-4.5 9.9-22.1 12.6-27.5 22.8-45.2 48-89.3 70.1-134.9 4.2-64.6 5.7-129.1 11.6-193.4L1369 380.6l7.6-7.4c122.7-81.3 247.3-160.1 371.9-238.1 3.4-3.7 15.1-23 17-24 2.1-1 16.1 1.7 19.9.7Z" class="fill" data-original-prefix="fill"/><path id="shading-ear-rt" fill="#aaaaaa" d="m1766 307-13.8-6.8-22.2-6.7c8-13.4 11.1-32.6 26.3-39.7l19.7-9.8c-17.4-4.1-35.6-5.7-53-1-.6-20.3 4.4-33.7 15.6-49.9 4.2-6 15.7-17.8 17.9-23.1 5.5-13 6.2-36.7 10.1-51 1.5-5.2 12.7-3.7 17.4-4.1.5 7.8.8 15.6 1 23.5 0 1.9 1.1 3.9 1.1 6 0 19.1-14.5 35.6-20 52.8l48 36.1c1.3 1.8 1.4 17.3.9 20.1-.2 1.1-.5 1.9-1.6 2.4l-43.8 20.2c-4.3 3.3-.3 6.8 2.4 9.4 9.8 9.5 22.9 17.6 33 27v22.5c-11.8-2.5-23.4-6.9-35.5-8L1739 339l23.5 11 .3 18.4-51.9 26.4c-7.3 22.9-13.5 46.1-20.7 69-13.4 43-25.8 86-38.8 129.2-4.2 14.1-9.2 36-15.7 48.3-18 33.7-47.8 67.1-67.4 100.6l-60.4 42.6c7.8 1.9 20 7.9 27.6 8.4 3.8.3 7.8-2.3 9.7-1.8 3.7 1 8.6 12.2 13.6 13v1.2c-9 14.7-21.1 26.9-32.4 39.7l-38.5 20 30.5 9c0 6.9 2.6 20.9-2 26.1-4 4.5-13.7 13.2-18.5 17.5-7.8 6.8-9.7 8.6-20.5 9.5-5.4.4-40 .6-41.5 2 5 16.9 17.5 32.2 12 50.5-4.3 1.4-12.3 7.5-16.5 7.4-4.6 0-14.7-10.8-22-10.9-25.8 1.5-54.9 12.8-80 14-29.8 1.4-77.7-13.9-102.4-30.6-1.8-1.2-27.4-19.4-26.1-20.4 26.2 7.5 52.4 21.9 80 10.5.9-.4 4.7-1.2 4-3-1.7-4.3-16.7-7.7-21-10 4.9-5 10.1-10 15.5-14.5 3.7-3.1 16.2-13.3 20-14 11-1.9 23.7 4.4 34.4 5.9-.3-2.6-4.1-4.8-6.1-6.4-13.2-10.6-29.5-15.6-44.9-22.1l41.9-23 12.1-15.4c-18.8 2.5-37.2 9.9-55-.5-10.4-6.1-4.8-7.2-2.4-16.5 6.4-25.5 7.4-51.6 12.7-76.3 5.4-25 19.7-38.9 31.9-60.1 20.8-36.1 40.5-79.7 49.6-120.4.7-3.1 3.1-23.2 4.3-24.2 3-2.4 4.4 2.3 5.3 2.9 3.4 2.5 7.1 2.2 9.4 6.9l45.2 5.5c10.2 14.6 18 30.7 26 46.5 17-11.2 16.3-35 26.2-51.3l50.7-57.3c1.3-4.8-9.4-4-12.4-4.4-1.1-.1-2 .4-1.5-1.5.9-3 4.6-8.4 6.2-11.9 7.7-17.2 9.5-25 22.3-39.7 3.6-4.1 11.9-14 16.3-15.7 16.9-6.7 40.4-5 58.2-4.3-6.8-5.8-19.3-16.1-28.4-16s-20.9-.7-29.8 1.3c-7.8 1.7-13.8 7.7-20.7 11.3-7.1 3.7-14.6 6.5-22 9.5l37.5-56c13.4-6.5 35.6-8.6 47.9-16.1 6-3.7 13.3-13.7 17.6-19.4-9.8-3.1-20.4.8-30.5.5-6.7-.2-14.8-2.2-21.4-3.5 15.5-20.6 29.5-42.4 42-65 24.3-6.8 48-16.3 68-32 2.7-2.1 4.9-6 9-7.5v16.5c0 2.9-1.9 10.1-2.7 13.3-.9 3.3-2.7 8.6-4.7 11.3-4.3 5.7-24.6 17.4-32 24-6.2 5.4-11.5 11.9-17.5 17.5 4.7 0 21.1-2 24.4-4.4 1.7-1.2 1.1-7.9 4.6-7.1-1.1 23.3-2.8 47.9-15.2 68.3-6.9 11.4-16.4 13.7-27.8 19.2l43 27.5c.5-.7.5-14.8 1.2-17.3 1.5-5.2 28.4-21.8 34.5-25.5 6.8-4.2 13.7-8.6 21.3-11.2l-20.5-3-18.5-.5c1.9-2.6 2.9-5.7 4.6-8.4 4.7-7.4 27.5-38 33.7-41.3 2-1 12.3-3.8 14.2-3.8h24.5Zm-113 152c-1.3-1.2-31 7.9-35 9.5-2.5 1-6.4 2.4-8 4.5 13.3 2.8 25.5 9.3 36.5 17-4.8-11.8 3.8-20.1 6.5-31m-3 53c-20.3 3.1-39.5 8.1-56.3 20.2-8.7 6.2-10.6 10.6-14.9 20.1-6.2 13.7-10.5 29.2-14.8 43.7 3.7 3.3 23.5-15.3 27-18.5 7.4-6.8 14.1-14.6 21.5-21.5.8-.2.6.9.5 1.5-1.3 9.2-12.6 33.4-16.8 43.2-7.3 16.8-15.5 33.2-24.2 49.3 1.1.8 16.9-7.5 18.4-9.1 6.1-6 21.9-33.5 26.7-42.3 14.5-26.4 25.6-57.5 32.8-86.7Zm-203 272c.7-1 17.5-10 20.5-12 9-5.9 17.9-12 26.4-18.6 4.8-3.7 17.5-13.2 20.7-17.3 1-1.3 1.8-2.2 1.4-4.1-20.8 7.7-41.7 15.4-63 21.5-20.2 5.8-50.4 9.4-67.7 19.3-14.5 8.3-20.4 28.4-29.3 41.7-.3 2.2.2 1.2 1.5 1.4 8.2 1.6 26.3 5.1 33.7 3.8 10.1-1.7 19.3-12.7 27.7-17.8-2.3 19.8-7.5 39.6-15.8 57.7-1.7 3.8-4.8 10.8-7.2 13.8-3.5 4.4-15.8 10.5-16.1 15-.4 8.2 4.3 21.4 5.1 30 .6 6.9-.4 14.5 0 21.5 6.7-.2 20 2 25.1 6.4.5.5 3.5 6.1 3.9 3 1.1-8-6.8-21.1-12.5-26.5-2.3-2.2-11.4-6.6-8.5-9.4 1.6-1.6 9.9-5.1 12.9-7.1s14.7-13 15.7-13.2c2.2-.5 9 4.6 12.2 5.5 9.7 2.9 25.3 0 35.2-2.2 7.2-1.6 14.1-4 21-6.5-.1-1.4-1.5-1.6-2.4-2-6-2.8-13.2-4.7-19.2-7.8-3.8-2-13.4-9.2-16.1-9.9-4-1.1-25.5 0-20.3-7.8 2-3 11.7-10.3 15.2-12.8s10.7-8.4 14.2-9.8c20.4-8.3 44.5-4.1 64.6-19.4 2.1-1.5 9.2-9 10.1-11 1.3-3-6.4.3-7.6.4-13.9 1.2-57.3-12.4-71.1-18.7-1.9-.9-11.8-5-10.3-7.2Zm-111.5 130v1c.7-.3.7-.7 0-1" class="outline shading" data-original-prefix="shading" opacity="0.5" style="opacity: 0.5"/><path id="outline-ear-rt1" fill="#000000" d="M1203 940c-.6 2-3 0-4-.5-6.5-3.1-17.2-8.7-22-14-10.8-12.1-18.5-31.1-29.5-43.5-4.1-25.3 12.7-45.4 22.6-67.3 5.5-12.1 11.1-32.2 17.6-42.4 7.8-12.1 17.6-20.4 24.1-35 29.7-67 27.5-149.8 34.8-221.2 43-62.1 88.8-122.2 141.4-176.6 24.4-25.3 52.2-42.5 82.1-60.9 20.5-12.6 41.7-24.6 62.9-36.1 40.7-22.1 79.8-38.4 121.7-57.3s91.3-39.5 107.1-83.9l10.7-37.2c3.3.1 24.3 49.5 26 56 3.7 14.5 5.6 49 1 63-3 9.1-13.4 15.7-16.5 25 7.6 2.4 18.7 6.6 25 11.5 6.2 4.9 20.7 24.3 26.4 31.6 2.3 2.9 11.8 14.7 11.6 17.4-7.2.2-14.4-4-21.8-5.2-23-4-38.5 4-55.2 18.7 10.3 2.9 25.2 6.2 33.5 13 6.7 5.5 16.1 21.2 20.9 29.1 1.9 3.1 13.5 21.9 11.6 23.9-7.9-2.4-15.7-5-23.8-6.7-9.2-1.9-33.2-6.4-41.4-5.1-6.3 1-12.4 5.6-18.7 6.8-.5 2.6.4 1.5 1.4 2.1 12.9 6.6 27.1 12.4 36.6 23.9-42 6.7-76.8 37.4-91.8 76.8-12.2 32.2-10 57.7-14.4 90.6-6.7 50.1-36.2 108.2-60.3 152.6-24.4 44.9-50.8 66.2-94.6 91.4-2.2 1.3-4.2 2.7-6.9 2.6-.3.3 1.3 2 1.5 2h21c2.2 0 15.5-6.9 18.5-8.5 2.4-1.2 16-10.5 17-9.5-1.6 10.4-4.5 20.6-8 30.5-3.1 8.8-10.4 28.6-15.1 35.9-2 3.1-14.8 10-18.8 12.2-12.3 6.6-25.4 11.3-38 17 17 6.2 36.2 4.9 54 3.5 1.2 1.2-6.4 13.7-7.8 15.7-9 12.9-45.2 46.5-60 50-9.9 2.3-23 1.4-33.2 2.3 1.7 3.6 5.3 5.9 6.8 9.7 4.4 11.4 2.3 53-1.3 65.3-2 6.8-2.5 7.3-8 3-22.9-18-24.7-29-58.1-27-19.9 1.2-35.2 9.4-53.5 14.5-13.9 3.9-18.7 1.8-32-2-8.3-2.4-17-5.8-25-8.5 13.4-5.3 26.8-1.7 41-4.5 22.9-4.6 49.8-19.7 73.5-21.5 10.4-.8 23.1 3.5 33.8 3.2l3.7 3.3 6 8.5c-1.6-13.7-1.1-29.6-9.6-40.9-5-6.7-12.6-14.2-19.2-19.3l-.2-3.8c20.8 1.9 41.8 1.3 62.2-3.3l40.8-24.7-.5-2c-8.4 1.7-24.3.5-32.5-2.5-4.9-1.8-19.3-13.4-24.7-17.2-.5-.4-1.9 0-1.2-1.8.5-1.3 7.3-5.2 9-6 14.6-6.8 32.6-11.5 48-18 6.8-2.9 19.8-7.7 25.4-11.6 7.3-5.2 12.1-17.9 15.7-25.8-7 2.2-14.8 7.2-21.9 8.5-11.6 2.1-45.6-7.9-57-13.1-.8-.4-2.9-.2-2-1.9.4-.8 9.6-7.5 11.3-8.7 20.9-15.1 44.7-26.5 63.3-44.7 60.6-59.5 103.6-146.5 119.2-229.8 2.3-12.2 1.6-24.6 3.7-36.3 4.1-21.7 17.7-46.7 21.8-69.2 17.9-19.1 39.9-38.7 66.8-42.7-11.4-10.6-28.7-10.9-43.5-12-1.5-.1-2.9.8-2.5-1.5 8.3-6.9 16.1-18.1 24.5-24.5 7.1-5.4 27.9-8.7 37-8 10.2.8 19.5 6.2 29.5 8-13.9-25-39.4-29.8-66-31-.2-1.7 0-3.2.8-4.7 2.9-6.4 30.9-32.1 37.7-35.3 8.8-4.2 25.6-4 35.6-5-7.8-7.6-18.7-19.2-29.2-22.3-12.5-3.6-27.1-2.7-39.8-.7 3.6-13.9 11.5-23.5 20-34.5s14.4-14.3 17.3-24.7c4.4-16.3-.2-32.5-2.3-48.8l-10.8 21.7c-8.5 15.1-17 25.9-31.7 35.3-31.2 20.1-66.8 32.2-100.2 48.8-59.4 29.5-120.1 66-175.4 102.6-50.7 33.4-90.3 69.4-128.8 116.2-17.3 21-40 48-54.8 70.1-13.1 19.5-12.9 63-15.2 86.8-2.7 27.6-4.3 55.4-7 83-3.6 37.5-23.4 76-40.1 109.9-6.2 12.6-15.4 25.8-21.1 38-2.7 6-15 38.2-15.7 43.3-3.2 23.1 12.8 50 27.9 66.4Z" class="outline" data-original-prefix="outline"/><path id="outline-ear-rt2" fill="#000000" d="M1222 954c11.6 7.5 22.1 16 36.5 18 5.8-4.1 11.7-8 18.2-10.9 3.5-1.6 14.7-6.1 17.9-6.1h18.5c-5.8-16-17.1-18.4-32.5-20-1-.1-3.4.6-2.5-1.5s15.3-10.5 18.3-11.7c18.6-7.6 33.7-6.4 52.7-.8 1.8-2-11.4-19.2-14.5-21-2.6-1.6-23.6-5.7-23.5-7.5 10.1-9.5 28.8-16 37-27 7.1-9.5 12.1-25.9 18-36.5-8.7 2.2-16.6 6.9-25.2 9.2-2.8.8-9.9 2.7-12.3 2.7h-37.5c4.5-25 11.9-49.6 19.7-73.8 3.2-9.8 6.5-22 10.8-31.2 5.9-12.8 17.7-24.5 25.7-36.3 14.4-21.4 23.1-44.2 30.1-69 7.8-27.9 11.8-53.6 1.7-81.8 1.4-.3 2.5.3 3.7.8 6.9 2.5 46.7 25.5 50.8 30.2 3.4 3.9 10.9 28.8 12.7 35.3 3 10.7 4.5 23 7.8 33.2 2.9 8.8 8.3 11.8 17.3 8.5 18.8-7 43.3-65.2 43.6-84.5 0-3-1.1-5.3-1.1-8 0-9.6 22.9-34.8 30.6-41.5 17.6-15 39.8-23.8 62.5-28l-8.8-3.7c-17.8-5.3-36.9-5.3-55.2-3.3-.7-.7 8.5-16.3 9.6-17.9 5.7-8.7 17.7-24.8 26.9-29.1 15.1-7.1 32.4-9.5 48.1-13.9 1.3-.4 2.5-.1 3.4-1.6 0-1.9-23.7-15.1-27.5-15.5-18.4-2.2-37.9 6.1-55.5 10-.9-.7 11.8-16 13-17.5 3.4-4 11.6-14 15.5-16.5s11.2-3.9 15.9-6.1c8.2-3.9 29-13.7 35.2-18.8 3.7-3.1 12.8-15.6 15.9-20.1 1.6-2.4 3.1-4.9 4.6-7.4-3.9.9-6.6 4.2-10.3 5.7-8.1 3.3-26.1 2-35.2.8-2.3-.3-12.3-1.3-12.5-3.5-.2-2.5 19-22.5 21.9-26 6-7.2 14.3-20.6 21-26 4.3-3.4 9.8-4.8 14.3-7.7 23.7-14.9 32.6-26.5 49.9-47.1.7-.9 2-3.2 1.8-.2-2.5 12.6-6.8 24.6-11.6 36.5-24.3 15.6-47.6 33.8-64.4 57.6 19.3 5.9 36.1-12.7 50-23.5-2.8 16.2-8.4 31.5-15.1 46.4-4.7 10.3-9.5 22.9-19.2 28.8-14.9 9.1-32.9 16-49.7 20.8-.2 1.8 3.4 1.1 4.5 1 4.3-.3 11-2.2 15-2.1 5.8.2 45.9 28 51.5 33.6.8.8 6.5 7.8 6 8.5-22.8 3-46 6-67.8 13.7-4.5 1.6-13.1 4.5-16.6 7.4-1.3 1.1-8.2 9.2-8.6 10.4-.7 1.7.4 1.4 1.5 1.5 4.3.6 8.4-1.7 13.8-.8 9.1 1.5 42.7 19.6 50.1 25.9 1 .9 2.1 1 1.7 2.8-34.6 9.4-66.8 26.9-90.5 54-28.1 32.1-34.8 87-44.6 127.4-18.5 20.3-42.7 37.2-66.8 50.2-3.9 2.1-10.1 5.7-14 7-.9.3-3 1.1-3 0 19.1-31 27.9-76.5 3-107-12.4-15.2-19.2-11.5-26 5-7.4 18-10.7 39.7-13 59-1.3 11.2 2.7 10.5-6.5 19.5-23.9 23.4-34.6 32-45.8 65.2-.9 2.8-10.2 32.4-7.2 32.8 14.3-1.1 30 .6 42.7-7.2l26.7-16.8c-1.2 14.9-3 29.6-6.3 44.2-2.2 9.6-8 32.3-13.2 39.8-3.2 4.5-20 15.5-20.3 16.7-.8 2.8 9.2 17.1 10.8 21 5 12.1 1.2 31.5 0 44.4-2 2-17.3-12-21-13.5-2.5-1-17.7-3.5-19-2.5 6.7 9.9 10.5 22.5 11 34.5.3 7.3-5.4 2.7-10.5 2.4-18.5-1.1-38.2 3.5-54.5 12-12.1-4.2-19.7-7.5-30.9-14.6-6.4-4.1-17-9.9-19.1-17.4Z" class="outline" data-original-prefix="outline"/>
    </g><g class="trait-group" data-category="left ear" id="left ear-notched">
      <path id="fill-ear-lft" fill="#ffffff" d="M515.3 757.7 497.9 703c-4.5-.8-15.7 5.8-19 3.5-2.3-1.5-6.1-25.3-7-29.5-1.9-1.6-22.5 9.7-28.3 7.8-.7-.2-1.2-.8-1.6-1.4l-62.4-152.6c-3.7-41.1-13-85.4-14.7-126.3-.1-3.3-1-8 2-9.9l32.9-20.5-37.7-10.3-29.8-44.7c-3.5-42.9-4.2-85.6-6.5-128.6-.5-2.7 8-8.8 9.8-9.3 2.4-.6 8.1 2.5 10.9 3.6 46.2 19.1 91.1 42.1 137 62l183.2 124.8L792.3 514c2.9 3 4 6.5 4.5 10.5 7.1 58.5 6 120 13.2 178.8l79.7 168.3c.4 1.9 0 3.4-.8 5.1-7 17.9-22 38.7-30.7 56.3-20.9 16.1-39.2 32.7-64.7 41.3-10.7 3.6-33.2 11-43.5 12.5-2.4.3-4.7.6-7-.5-28.5-27.2-57.8-53.6-85.7-81.3l-37.6-83.4L515 757.8Z" class="fill" data-original-prefix="fill"/><path id="shading-ear-lft" fill="#aaaaaa" d="M608.2 565.2c.8-.8 2.2-1 3.3-1.2 13.1-2 32.8-1.5 44.9-5.2 2.8-.8 11-9.6 14.1-5 .5.7 2.2 15.3 2.4 17.6 1.2 14.7.7 27.7 3.3 42.7 8.2 46.2 31.4 83.3 65.2 114.8 1.4 1.3 7.1 4.8 7.3 5.2 1 1.7 0 13.9.2 17.3.9 12.3 6 21.7 8 33.5 2.7-3.1 5.7-6 8.5-9 1.7-1.7 1.3-5 5-2l27.4 50.6c7.7 26.9 34.8 63.7 56.7 81.3 2.2 1.7 13.4 7.9 13.5 8.7.5 2.4-7.6 14.7-9.7 17.2-10.6 13.4-47.4 38.2-63.5 44.5-8.8 3.4-36.8 11.1-45.9 12.2-1 .1-2 .5-3 0l-65-53.1-77-110-70-38-39.1-83.4c-2.9-1.8-10.8 4.3-13.4.9s-5.7-31.3-7.6-32.9c-11.2 0-22.1 3.7-33.2 5-7-11.4-11.4-14.7 3-20.8 11.4-4.8 24.1-5.7 36.3-6.7-32.8-44.7-49.3-99.3-63-152.5 1.4.2 1.9 1.8 2.5 3 12.6 23.2 36.1 80.6 58.2 92.8 1.6.9 3.3 2.3 5.3 2.2.8-.9-4.8-20.8-5.7-23.8-2.5-7.6-11-23.7-11.3-29.8-.5-10 4.4-26 5.1-36.9 2.7-44.5-13.8-99.2-36.9-137.2-.6-1-3.6-6.7-5.2-5.3-6.7 22.4-24.9 43.5-45.8 54.2-1.2 7.7-2.5 15.5-3.2 23.3-.7 6.9-.2 15.5-1 22-.2 1.4-.6 3-2 1.5L361 399.6l39.9-25.2-57.1-17.9-9.9-74.6 9.1 22.4c2.6 5.6 8.6 18.3 12.9 22.1 11.2 10 48.5 26 63.4 25.6 1.4 0 3.1.6 2.5-1.5-14.6-20.1-30-39.8-48.8-56.2L360.3 252c24.5 9.1 46.6 22.6 68.4 36.6 20 12.8 39.3 25.1 55.6 42.4 27.9 29.6 53.2 65.5 69 103-1.6 41.9-.6 84 7.9 125.1 2 9.5 6.3 30.8 10.3 38.7 1.1 2.1 7.7 10 9.7 11.3.9.6 1.4 1.7 2.6.5l24.2-44.3ZM777 967c-3.9-10.9-5.5-27.1-10.2-37.3-2.9-6.1-17-20.7-22.2-27.8-24.6-34-42.1-71-63.4-106.6-16.1-26.8-19.1-20.9-44.5-33.5-28-13.8-72-45.1-92.1-68.9-11.2-13.2-19.7-30.7-30.5-43.5-1-1.2-9.9-10.7-11-9.5-.7 20.8 11.1 38.7 20 56.5-1.5-.3-11.7-12-9.8-5.2 2.3 8.2 6.9 17.8 9.8 26.2 5.3 15.4 10.6 30.9 15.5 46.5 21.2 12.2 44.3 25.6 66.8 35.2 16.5 7 33.5 9.8 50.4 15.1 5.5 13.5 10.9 27.2 17 40.5 9.5 20.5 22.4 32.9 37.7 49.3 17.5 18.9 38.7 41.3 58.5 57.5 1 .8 7.3 6.2 8 5.5M495 668c-2.2-1.5-4.1 5.2-4.7 6.8-.9 2.3-5.2 15.2-4.2 16.2 1.7.5 2-.7 3-1.5 1.8-1.3 12.8-10.3 12.9-11.2.4-2.6-6.7-7.3-6.9-10.3Z" class="outline shading" data-original-prefix="shading" opacity="0.5" style="opacity: 0.5"/><path id="outline-ear-lft2" fill="#000000" d="M673 548c1 1.1-8.8 24.7-9.5 28.9-3.2 18.8 9 75.6 17.4 93.7 8.3 17.9 19.9 26.5 31 41 10 13 27.1 42.8 34 58 3.2 6.9 7.3 23.6 10.7 28.3.6.9 2.3 2.8 3.5 2 .7-.5 6.9-12.2 9-13.5 1.1-.7 2.2-.8 3.4-.4 4.1 1.4 13.8 33 15.4 38.7 4 14.6 5.1 30.8 8.8 44.2 2.3 8.4 20.4 26.7 25.3 35.7 2.6 4.6 4 23.4 4.2 29.8.3 6.8-5.8 11.2-10.6 15.5-3 2.6-13 10.7-16.2 11.8-1.5.5-2.7.7-2.3-1.3.7-3.6 4.3-8.8 4.9-13.1 2.6-18.9-8.5-44.7-15.7-62.1-1.5-3.5-5.2-8.8-6-12-1.8-8.1-2-19-3.4-27.6-.5-3.3-4-24.7-4.8-25.7-1.6-1.8-3.9 4.7-4.2 5.3-2.6 5.9-2.8 11.8-4.7 17.3-.5 1.4.3 1.7-2.1 1.4-17.1-29.1-27.5-61.7-47.2-89.3-7.7-10.8-17.1-22.2-26.8-31.2-3.1-2.9-18.5-13.8-19.5-15.5-2.6-4.3-1.1-16.8-1.7-22.3-1.2-13-10.2-51.3-17.9-61.1-10.4-13.3-23.7 7.8-28.2 16.8-11.9 24.1-10 50.1-.3 74.7 2.7 6.9 6.5 13.3 9.5 20-2.9 0-5.5-1.3-8-2.5-12.4-5.8-27.9-15.9-39.3-23.7-9.7-6.7-30.6-22.1-35.5-32.5-4.7-9.8-7.2-35.2-10.5-47.5-8.6-32.7-20.4-64.8-41.6-91.5-.3-1.7 5.1-9.4 6.3-12.3 14.5-33.8 3.2-89.8-11.3-122.7-19.9-45-50.2-81.4-89.9-110.1-6-4.3-15.7-8.5-20.4-13.6-5.6-6.2-10.5-19.5-14.9-27.1 15.1 6 29.9 13 44 21 46.7 45.1 89 81.7 117.2 141.9 2.5 5.3 12.2 26.2 12.6 30.4.7 7.6-5.5 27.2-6.7 35.9-7.5 53.4-.2 102.7 25.7 150.1 5.5 10 23 36.2 36.2 23.9 4.9-4.5 9.1-31.2 11.5-39.5 2-7.1 8.6-30 12-35 3.1-4.5 28.4-18.6 34.8-22.2 2.3-1.3 20.8-11.7 21.7-10.8Z" class="outline" data-original-prefix="outline"/><path id="outline-ear-lft1" fill="#000000" d="M847 941c10.6-11.2 23.3-30.3 27.1-45.4 4-15.9-.3-15.2-4.9-28.4-9.8-28.2-18.3-52.5-31.4-79.6-19.7-40.8-34.2-57.3-38.8-105.2-2.7-28-4.3-56-7-84-2.3-23.6-2.3-66.6-15.2-85.8-14.9-22.2-37.6-49.1-54.8-70.1-38.7-47-78.5-83-129.5-116.6-44.3-29.2-93.1-59.2-139.9-84.1-38.8-20.7-78.7-40.3-120.7-53.8-1.5 19.2-1.7 39.3 0 58.5s5.3 44.4 9.3 63.7c1.7 7.9 11.2 35.7 17.3 39.7 8.2 5.5 35.6 11.4 46 13 7.9 1.2 12.6-2 7.5 9.8-6.1 14.1-22.8 28.1-36.2 35 1.3 9.3 4 18.5 5.1 27.9 2.4 21.6.3 44.6 3.3 65.7 6.5 46 32.5 120.1 58.3 158.7 1.4 2 3.8 6.9 5.9 7.1 2.8.3 18.9-4.4 24-5 6.1-.7 12.5-1.5 18.5 0-1.5 5.2-4.3 10-4.9 15.6-.3 2.9-.6 12.9.8 14.8 2 2.8 14.2-4.7 17 .2l24.6 68.4c28.6 23.4 63.9 36.6 93.9 58.1 19.4 47.2 45.7 91.8 83 127 32 30.2 60.3 41 103.5 23 0 2-1.1 2.8-2.7 3.8-9.1 6.2-48.7 21.7-59.3 22.8-3 .3-21.2-3.2-23.6-4.5-14.8-13.8-28.4-30-43.4-43.6-10.8-9.8-31.4-21.3-37.2-33.8-2.9-6.2-4.6-14-7.3-20.7-6.5-15.5-24.7-50.7-38.1-59.9-6.9-4.7-17.7-8.4-25.4-12.6-18.9-10.5-36.6-23.3-54.4-35.6-3.2-9.7-16-72.5-23.2-74.8-3.8-1.2-13.7 5-16.2 2.8-.6-.5-4.1-12.1-4.6-13.9-1.3-4.8-1.7-10-2.5-15-6.3-.6-12.9 3.1-18.3 6.1-3 1.7-12.5 9.6-13.3 9.8-1.6.3-2.5-1.6-3.2-2.6-7.7-10.6-16.4-27.4-22.7-39.3-24.2-45.5-47-101.1-56-152-2.4-13.5 2-13.7 4.3-24.8 3.2-15.5-1.3-47.1-4.1-63.5-.8-4.5-4.5-15.7-3.5-19.1 1.1-3.7 31-16.7 33.8-23.7-13.2-.2-28.6-3.9-40.3-10.2-28.2-15.2-26.4-45.7-28.7-73.3-2.6-32-7.2-72.4-3-104 .3-2.4 3.7-16.9 4.6-17.6 3-2.2 20.7 2.5 25.4 3.6 67.6 16.1 153.5 57.1 213.7 92.3 35.8 21 74.6 43.9 103.3 73.6 52.5 54.4 98.3 114.6 141.4 176.6 2.3 4.6 2.2 21.8 2.6 28.4 3.3 61.9 8 156.6 41.6 209.4 3.9 6.2 8.9 11.1 12.3 17.7 16.1 31.9 26.7 69.7 43.1 101.9l-.5 8.4c-13.6 15.6-21.6 39.6-39.2 50.8-5 3.2-11.6 7-17.3 8.2Z" class="outline" data-original-prefix="outline"/>
    </g><g class="trait-group" data-category="head" id="head-banger">
      <path id="fill-head" fill="#ffffff" d="M1076.7 823.4c9.6 5.8 4.5 20-7.2 20.7-5.3.3-5.3-3.1-9.1 2.8-41.5 80.3-80.3 162.1-113.8 246.2-6.8 17-17.4 40-22 57-8.5 31.5-2.7 65.4 1.6 97.3 1.7 12.9 4.7 25.7 5.8 38.6l-3.6-.9c-10.9-15.6-26-29.6-36.8-45.2-3.9-5.5-7.6-11.1-8.6-17.9-1.7.4-1.2 3.2-2.5 5-1.4 2-4.4 2.3-5.3 4.7-2.4 6.6-4.5 30.6-5.2 38.8-7.1 78.9-4.3 179.5 25.5 253.5 1.6 4 15.8 31.8 14.5 33-1.8 1.7-7.5-3.3-9-4.5-56.2-45.2-108.1-98.5-149.2-157.8-21.6-31.2-24.3-46-30.1-82.9-.2-1.2-.2-4.8-1.7-4.8-3.7 19.2-7.5 38-9 57.5-4 52.7-2.7 108.6 5.2 160.8 3 20 7.2 39.8 12.8 59.2.7 2.1-2.2 1.8-3.3 1.3-1.8-.8-20.6-28.4-23.5-32.5-38.8-56.7-72.3-120.9-98.7-184.3-8.8-21.2-19.8-45.4-21.5-68.5-1.5-20.5 8.9-43.7 16.2-62.7 13-33.9 28.7-66.8 41.7-100.8-1.1-1.1-10 5.9-11.5 7-8.9 6.9-19.3 16.6-27.5 24.5-15.8 14.9-30.6 30.9-44 48l-4 .5c19-59.8 44.6-119.2 76.2-173.3 7.7-13.3 30.4-52.2 41.5-59.5s25.2-12.6 37-19c64.7-35.1 128.7-72 191.2-110.8 10.6-6.6 31.7-23.4 42.6-24.4 6.5-.6 15.2-.8 21.9-1.1 27.2-.9 54.7-.2 81.9-.9 2.4-10.9 24.6-8.8 31.5-4.6" class="fill" data-original-prefix="fill"/><path id="shading-head2" fill="#aaaaaa" d="M1069.4 844c-5.5.4-5.2-3.4-9.4 3.5-15.4 25.4-30.7 59.9-43.8 87.2-27.8 57.8-52.7 116.9-76.7 176.3-21.6 34.5-103.6 66.4-142.6 59.8-3.3-.6-11.9-4.6-13.1-4.5-4.5.4-13.2 11.4-17.2 14.7-17.6 14.7-42.5 23.4-61.5 5.6-26.5-25-15-80.7-4-111 3-8.3 7.5-16.2 10-24.5-18.3 2.1-34-10.6-33-29.5.8-17.4 22.8-50.1 36.7-60.3C777 927.1 838.7 891.9 899 854.5c10.6-6.6 31.7-23.4 42.6-24.4 6.5-.6 15.2-.8 21.9-1.1 27.2-.9 83.6-.2 110.8-.9z" class="outline shading" data-original-prefix="shading" opacity="0.5" style="opacity: 0.5"/><path id="shading-head1" fill="#aaaaaa" d="M807 1335c-.7-21 2.7-46.2 16.5-63 12.4-15.1 31.9-20.4 47.4-6.3l-2.9 37.8c-1.5 74.5-.6 150.6 27.5 220.5 1.6 4 15.8 31.8 14.5 33-1.8 1.7-7.5-3.3-9-4.5-56.2-45.2-108.1-98.5-149.2-157.8-21.6-31.2-24.3-46-30.1-82.9-.2-1.2-.2-4.8-1.7-4.8-3.7 19.2-7.5 38-9 57.5-4 52.7-2.7 108.6 5.2 160.8 3 20 7.2 39.8 12.8 59.2.6 2.3-1.8 1.5-3.3 1.3-45.1-60.2-82.5-126.3-112.8-195.2-11.4-25.9-28.7-62.3-30.8-90.2s16.2-57.5 24.5-83.5l12.5-28c4.3 35.6 12.6 71.7 22.3 106.2 2.5 8.9 8.6 34.1 16.7 38.3 1.5.8 1.5.6 2.5-.5 1.8-2 4.8-10.1 6.7-13.3 13.6-22.3 38.1-46.5 61.1-58.9 8.1-4.3 24.6-11.6 32.1-2.8 2.2 2.6 6.5 15.9 8.7 20.3 9.8 20 23 40.5 37.8 56.8" class="outline shading" data-original-prefix="shading" opacity="0.5" style="opacity: 0.5"/><path id="outline-head1" fill="#000000" d="M1125 857c-1.2 1.1-9.8-3.9-11.5-5l2.5 3.5c-3.4.1-9.2-2.6-12.5-4.5-3.6-2.1-6.1-5.1-9-7-1.1-.8-.7-1.5-2 0-2.5 3.1-3.4 7.7-5.1 10.9-20.8 37.4-41.6 71.7-60.2 110.8-24.5 51.3-51.8 111.2-70.2 164.8-18.4 53.8-6 113.1-3.9 169 .2 4 .4 28.4-1 29.5-3-1.2-6.6-4.3-9-6.5-14-12.4-25.3-28.3-38-42l-19-24.5c-1 24.7-1.8 49.8-1 74.5 1.5 47.2 6.7 104.3 16.5 150.5 8.6 40.4 25.3 78.1 38.5 117-22.1-3.7-41.5-20.2-58.9-33.6-56.3-43.5-109.3-98-145.6-159.4l-11.5-25c.5 10.9.9 21.6 1 32.5.8 70.1 6 132.7 21.4 201.5 2.2 9.6 7.2 23.9 8.3 32.7.1 1 .8 3.1-1.3 2.3-1.2-.5-15.8-15.6-18-18-62.3-67.7-115-165.1-150-250.1-8-19.5-22.1-51.5-24.3-71.7-4.1-38.6 20-73.4 32.7-108.2-1.9-.4-2.4 1.1-3.5 2-30.6 25.2-47.6 58.4-59.3 95.7l-3.2 2.3c.4-12.6-2.3-24.9-2-37.5 1.2-51.1 26.7-111.9 48.2-157.8 22.4-47.7 48.7-94.4 79.2-137.3 92.2-45 180.7-96.6 266-153.5 11.5-5.1 31.2-2.4 44.2-2.8 34.6-.9 69.2-.8 104-1 2.3 0 4.4-1.2 6.7-.9 6.6 1 43 36.3 48.8 43.3.9 1.1 2.4 1.6 2 3.5m-57-25c-.3-.4-9-1.9-10.5-2-20.8-2-42.2.5-62.9 1-19.8.5-40-1.7-59.5 2.5-71.3 46-144.7 89.1-219.3 129.7-13.5 7.4-30.4 14.1-43 22-10 6.3-23.8 29.7-30.5 40.5-36.1 58.4-64.5 122.2-86.2 187.3l19-21.5c12-11.7 23.5-23.9 36-35 4-3.6 28.9-26.2 33-22.5-10.7 25.7-22 51.2-32.5 77-10 24.9-29.5 64.4-27.5 90.4 1.8 24.4 16.1 54.5 25.8 77.2 30.7 71.7 69 140.9 115.7 203.3-7.4-33.7-14.1-67.9-16.5-102.5-3.9-55.6-3-118.1 9.5-172.5.7-3.2 1.1-7.3 3-10 2.7 19 4.2 38.4 10.2 56.8 8.9 27.2 34.3 58.2 52.3 80.7 33.7 42.3 75.8 81 117.5 115.6 1.1.9 1.6 2.4 3.5 2-4-12.3-10.2-23.7-14.7-35.8-25-66.8-26.6-146.2-23.3-216.8 1-21.2 1.9-68.9 12.8-86.2.5-.8.8-2.8 2.2-1.3.6.6 3.6 12.8 4.8 15.7 2.1 4.6 5.4 9.6 8.3 13.7 10.3 14.3 23.7 27.9 34.8 41.7-1.8-12.6-4.2-25.1-5.8-37.6-2.7-20.7-7.7-48.7-8.2-68.8-.2-6.8 10.3-38.5 13.3-46.8 29.3-81.3 71.2-173 111.2-249.8 6.3-12.2 15.2-31.4 23.5-41.5 1-1.2 6.3-3.6 4-6.5m-473.5 367v1c.7-.3.7-.7 0-1m-39 15v1c.7-.3.7-.7 0-1" class="outline" data-original-prefix="outline"/>
    </g><g class="trait-group" data-category="mouthpiece" id="mouthpiece-stogie">
      <path id="fill-mouthbit-main" fill="#ffffff" d="M1380.7 1584.3c6.4 17.5 27.5 11.4 39.8 21.7 2.6 2.2 3.8 6.5 7.4 7.6 7.3 2.2 16.1-2.2 23.3-.3 3.3.8 5.8 5.4 9.3 6.7 10 3.7 17.2-4.4 22.2 7.8 11.5 28.1-14.7 83.3-38.4 100.1-2.3 1.6-8.2 6-10.7 5.9-4 0-3.9-8.3-9.3-9.5-2.5-.6-8-.5-10.7 0-5.3.7-10.5 6.8-15 1.9-2.1-2.3-3-8.8-6.2-9.8-1.7-.5-10.9-.5-12.6 0-2.3.7-2.3 3.4-2.8 3.7-2.4 1.4-29-11.6-38.3-9.8-2.5.5-3.7 2.9-7.1 3s-10.8-2.5-14.5-3.6c-37.1-10.8-76.4-26.1-111.4-42.6-8.9-4.2-8.6-6.4-13.7-14.3-17.2-5.8-34.2-12.1-51-19-1.7-.7-3.8-.5-5.7-1.3-2.2-.9-15.3-7.8-16.3-8.7-1.4-1.4-6-14-7-17-3.8-10.5-6.5-21.4-9.9-32 0-5.6 14.9-17 19.4-20.4 4.7-3.6 18.9-14.1 23.9-14.1 20.3 2.9 50.8 18.9 70.8 14.8 3.3-.7 7.5-4.5 10.7-5.3 8.2-2.2 45.6 4.8 56.2 6.8 33.6 6.3 65.2 17.2 97.5 28v-.2Z" class="fill" data-original-prefix="fill"/><path id="fill-mouthbit-label1" fill="#ffffff" d="m1373 1589-17.3 3.2c-35 17.2-52.7 54.8-41.2 92.8 2.2 7.2 6.6 12.9 7.5 20-30.3-10.7-62.6-20.2-91.7-33.8-15.9-7.4-27.6-12.4-33.6-30.4-9.2-27.7 3-62.2 26.8-78.8 7.4-5.2 21.2-2.8 29.9-1.8 40.5 4.5 81.1 16.3 119.6 28.9Zm-114.2-14.7c-22.6 2.6-45.1 28.1-42.8 51.2 2.4 23.4 37.9 43.7 56.5 26.5 7.2-6.7 20.9-36.6 21.5-46.4 1.3-20.4-15.7-33.6-35.2-31.3" class="fill" data-original-prefix="fill"/><path id="fill-mouthbit-label2" fill="#ffffff" d="M1258.8 1584.3c14.8-2 27.3 6.2 25.2 22.2-1.1 8-13.6 36.5-20 41-11.9 8.4-32.8-2.5-37.7-15.1-7.7-19.9 12.9-45.4 32.6-48Z" class="fill" data-original-prefix="fill"/><path id="fill-mouthbit-ember" fill="#ffffff" d="M1462.1 1632.9c1.6 1.1 7.6-6.6 12.4 0 1.3 1.8 3.2 9.2 3.4 11.6 1.7 16-14.6 63.2-30.3 69.4-2.1.8-6.8 2.1-9 2-4.2-.2-11.8-6.5-14.9-5.9-2.2.4-6.3 6.1-11.9 5.6-6.6-.6-5.5-8.4-9.8-10.3-3.1-1.3-9.9-.9-13.8-2.2-17.7-5.8-13.9-40.5-9.7-54.3 2.6-8.5 13.4-28.2 23-29 3.2-.3 5.5 1.1 8 1.1s6.7-2.3 8.8-1.8c1.8.4 4.2 4.6 6.3 5.7 5.7 3 8.2-1 13.3-2.4 9.3-2.5 15.1-1.7 21.4 5.6 1.1 1.3 2.4 4.7 2.7 4.9Zm-43.1-2.9c-15.4-5.5-26.8 18.2-28 30.5-.5 5.5 2.3 31 5.1 34.9 1.4 2 3.8 2.2 5.9 1.1 4.2-2.1 1-13.1.9-17-.2-6.4-.7-16.4.7-22.4 2.2-9.2 11.7-18.3 15.3-27.2Zm14 78v-27.5c0-8.9 8.2-26.1 13.6-33.4 1.5-2 9.4-9.9 9.4-10.6 0-7.4-15.8 4-18.1 6-12.8 11.4-17.8 31.3-14.7 47.8 1.2 6.4 4.1 14.2 9.8 17.8Z" class="fill" data-original-prefix="fill"/><path id="shading-mouthbit" fill="#aaaaaa" d="M1174 1617c-1.1-15.2 4.2-30 11.5-43 4-7.2 8.8-18.2 18.5-14-5.4 12.1-11.5 23.9-14.5 37-1.2 5.1-4 18.6-3.1 23 .2.8 6.6 13.2 7.2 13.9 5.8 6.6 32.4 17.7 41.5 21.5 26.7 11.3 54.5 20.6 82.4 28.6 1.1 0 6-3.7 6.4-4.7 1-2.9-1.1-17.5-.8-22.8.8-13.3 13.5-49.9 26.9-54.1 12-3.7-.3 9.9-1.8 12.2-11.1 16.8-16 35.4-12.9 55.6.4 2.7 2.5 13 4 14.5 1.7 1.8 27.2 11 28.8 9.8 2.9-2.2 1.7-18.6 2.1-23 1.1-12.1 5.9-26.5 12.1-36.9 2.6-4.4 7.1-13.1 12.8-11.7 1.8 1.8-7.8 14.2-9.2 17.3-3.5 7.9-5.9 19.6-6.8 28.2-.3 3.6-1.3 11.2 0 13.9 2.3 4.3 10.8 10.3 15.6 11.4 2.3.6 5.2-.3 7.3.7 1.2.6 3.2 4.5 4.9 6.1 8.2 7.1 16.2 1 25-1.5 1.5 5.1 0 8.4 4 12.5 5.6 5.8 12.2 4.5 19 7-7.4 7.9-14.8 15.6-26.3 9.3-1.3-.7-1.6-2.4-2.4-2.8-2.6-1.6-23.9-2.3-30.6-5.2-1.9-.8-1.5-3.3-4.2-3.8-1.6-.3-10.5-.3-11.9.2-1.6.5-1.7 2.8-2.7 3.4-2.9 2-29.1-11.4-38.5-9.5-2.4.5-2.8 2.8-6 3.1-7 .6-60.6-18.3-71-22.1-21-7.6-41-17.7-61.4-26.6-5.7-4.1-5.7-12.1-7-13-.5-.3-2.6.6-4.1.2-16.1-4.3-39.6-13.4-54.9-20.2-2.6-1.2-12.4-5.7-14-7-2.4-1.9-6.7-14.2-8.1-17.9-2.4-6.6-9.3-25.4-9.8-31.3-.2-2.6 1.9-5.1 3.4-7.2 4.2-5.6 29.7-25.5 36.1-26.9 11-2.3 27.1 6.2 37.8 8.7 2.2 11.4-19.1 3.5-26.1 4-8.4.6-24.9 14.3-28 22.1-2.6 6.4-2.8 13.5 2.6 18.4 3.7 3.4 44.2 24.5 45.9 22.6h.2Z" class="outline shading" data-original-prefix="shading" opacity="0.5" style="opacity: 0.5"/><path id="outline-mouthbit5" fill="#000000" d="M1258.8 1574.3c19.6-2.3 36.6 10.9 35.2 31.3-.6 9.9-14.3 39.8-21.5 46.4-18.5 17.2-54.1-3.1-56.5-26.5-2.4-23.1 20.2-48.6 42.8-51.2m0 10c-19.6 2.7-40.3 28.1-32.6 48 4.9 12.7 25.8 23.6 37.7 15.1 6.4-4.5 18.9-33 20-41 2.1-15.9-10.4-24.2-25.2-22.2Z" class="outline" data-original-prefix="outline"/><path id="outline-mouthbit4" fill="#000000" d="M1419 1630c-3.6 8.9-13.1 18-15.3 27.2-1.4 6-.9 15.9-.7 22.4 0 3.9 3.3 14.9-.9 17-2.2 1.1-4.5.9-5.9-1.1-2.8-3.9-5.6-29.4-5.1-34.9 1.2-12.3 12.6-36 28-30.5Z" class="outline" data-original-prefix="outline"/><path id="outline-mouthbit3" fill="#000000" d="M1433 1708c-5.7-3.6-8.6-11.4-9.8-17.8-3.1-16.4 2-36.3 14.7-47.8 2.2-2 18.1-13.4 18.1-6s-8 8.6-9.4 10.6c-5.4 7.3-13.6 24.5-13.6 33.4v27.5Z" class="outline" data-original-prefix="outline"/><path id="outline-mouthbit2" fill="#000000" d="M1387.9 1722c-2.6-1.7-4.3 3.2-6 4.4-4.1 3.1-11.1 0-15.8-1.2-5.5-1.5-18.9-7.8-22.9-8-2.5 0-4.5 3-7 3.5-5.1 1.2-14.8-2.1-20.1-3.5-41.4-11.5-81.7-28.9-120.9-46.1-5.2-2-5.6-7.9-7.8-11.2-1.7-2.4-36.6-13.8-42.7-16.3s-27.4-10.6-30.8-14.2c-3.7-3.9-11-27.5-13-34-1.9-6.2-7.5-20.8-5.2-26.3.9-2.2 7.6-9.2 9.7-11.3 10.4-10 24.3-19.1 37.2-25.7l66 16.7c4.3 0 10.3-6.1 14.9-6.9 5-.9 15.4.4 20.9.9 48.7 4.4 95.4 19.4 141.5 34.5 3.1 2.2 5.2 9.3 8.1 10.9 8.1 4.6 24 3.3 32.4 11.6 1.8 1.7 3.5 6.2 5.2 6.8 3.6 1.2 15.1-2.1 19.7-1.8 7 .4 10.9 8.4 16.6 9.6 8.1 1.7 13.7-7.1 19.9 5 15.9 30.8-10 93.7-36.4 113.4-4.5 3.3-13.4 9.1-19 8.9-7.2-.2-10.5-11.2-13.1-11.7-4.4-.9-13.3 9-22.7 4.6-5.7-2.7-8.1-12.3-8.8-12.7h.1ZM1195 1563c-18.1-2.2-36.1-7.2-53.9-9.5-4.4 4.2-24.4 16.5-25.9 21.2-1.9 6.3 2.1 30.1 5.9 35.7s48.4 18.8 56.9 23.6c-2.6-20.3 1.3-41.6 10.8-59.7 1-2 7.5-10 6.2-11.3m178 26c-38.5-12.5-79.2-24.4-119.6-28.9-8.7-1-22.5-3.3-29.9 1.8-23.8 16.6-36 51.1-26.8 78.8 6 18 17.7 22.9 33.6 30.4 29.1 13.6 61.3 23.2 91.7 33.8-.9-7.1-5.3-12.8-7.5-20-11.4-38 6.2-75.6 41.2-92.8l17.3-3.2Zm-6 119c-11.8-26.2-2.6-72.3 19.5-91 3.9-3.3 14.3-6.6 6.5-10.5-46.1-23.3-74.8 42.7-62.5 79.5 3.4 10.3 26.3 19.8 36.5 22m95.1-75.1c-.2-.2-1.6-3.6-2.7-4.9-6.3-7.3-12.2-8.1-21.4-5.6-5.1 1.4-7.7 5.4-13.3 2.4-2.2-1.1-4.5-5.3-6.3-5.7-2.2-.5-6 1.8-8.8 1.8s-4.8-1.3-8-1.1c-9.6.8-20.4 20.5-23 29-4.2 13.9-8 48.6 9.7 54.3 3.9 1.3 10.7.8 13.8 2.2 4.3 1.9 3.2 9.7 9.8 10.3 5.6.5 9.7-5.1 11.9-5.6 3.1-.6 10.6 5.7 14.9 5.9 2.2 0 6.9-1.2 9-2 15.8-6.2 32-53.4 30.3-69.4-.3-2.4-2.1-9.7-3.4-11.6-4.8-6.7-10.8 1.1-12.4 0Z" class="outline" data-original-prefix="outline"/><g id="outline-mouthbit1" fill="#000000"><path id="outline-mouthbit" fill="#000000" d="M1237.5 1606.4c-.1 0-.3-.2-.4-.3s-.2-.3-.3-.5-.1-.3-.1-.5v-.5s.2 0 .3-.1c.1 0 .3 0 .4-.1s.3 0 .5 0h1.7v-.1s-.1 0-.2-.1-.2 0-.3-.1c-.1 0-.3 0-.4-.1s-.3-.1-.5-.2c-.2 0-.3-.1-.5-.2s-.1 0-.2-.1v-.5c0-.2 0-.4.1-.5s.1-.3.2-.5c0-.1.1-.3.2-.4.1 0 .2-.1.3 0 .2 0 .4 0 .6.2.2 0 .5.2.7.3s.5.2.7.3.5.2.6.3.5.3.8.4.6.3.9.5.6.3.9.5.5.3.7.5c0 .1 0 .3-.1.4s-.1.3-.2.5c0 .2-.2.3-.3.5s-.2.3-.3.3h-.3c-.1 0-.2-.1-.3-.2 0 0-.2-.1-.3-.2 0 0-.2-.1-.3-.2-.1 0-.2-.1-.4-.2s-.1 0-.2 0h-.1v.2c0 .2 0 .2.1.3s.1.3.2.4c0 .1.1.3.2.4 0 .1.1.3.2.4s.1.3.2.5.1.3.1.5v.3l-.3.3c-.1 0-.3.2-.5.2s-.3 0-.5.1h-.5c0-.1-.1-.2-.2-.4 0-.1-.1-.3-.2-.5 0-.2-.1-.3-.2-.5 0-.2-.1-.3-.1-.5s0-.2-.1-.3v-.2h-.3c-.2 0-.4.1-.6.2-.2 0-.3.1-.5.2-.2 0-.3.1-.5.2s-.3 0-.5.1-.3 0-.5 0Z" class="outline" data-original-prefix="outline"/><path id="outline-mouthbit1" fill="#000000" d="M1240.8 1608.9c.1-.3.2-.4.4-.5.1 0 .3 0 .5.1.2 0 .4.2.5.3 0 0 .1.2 0 .4 0 .2 0 .4-.1.6 0 .2-.1.4-.3.7s-.2.5-.3.7l-.3.6c-.1.2-.1.3-.2.4-.1.3-.3.7-.5 1s-.5.6-.7.8-.6.4-.9.5c-.3 0-.7 0-1-.1s-.5-.3-.6-.6-.1-.6 0-.9v-.4l-.2.1-.3.3c-.2.3-.5.5-.8.6s-.6 0-.9 0-.2 0-.3-.1-.2-.1-.3-.2l-.3-.3c-.1-.1-.1-.3-.2-.5v-.8c0-.3 0-.6.1-.9 0-.3.2-.7.3-1s.3-.7.4-1 .1-.3.3-.5c0-.2.2-.3.3-.5l.4-.4c.1-.1.3-.2.4-.2h.5c.1 0 .3 0 .5.2.2 0 .4.2.6.3s.5.3.9.4.3.2.5.3l.6.3c.2.1.4.2.5.3.1 0 .3.1.3.1Zm-4.5 1v.9c0 .1 0 .1.2.2q.3.15.6 0c.2 0 .3-.3.5-.6s.1-.3 0-.5c0-.1-.2-.2-.4-.3s-.2 0-.3-.1-.2 0-.2 0-.1 0-.2.1c0 0 0 .1-.1.3Zm2.2 1v.6c0 .1 0 .2.1.3s.2.2.3.2h.5c.2 0 .3-.3.4-.5s0-.2.1-.3v-.2s0-.1-.1-.2-.2-.1-.3-.2c-.3-.1-.5-.1-.6-.1s-.2.2-.3.4Z" class="outline" data-name="outline-mouthbit" data-original-prefix="outline"/></g><g id="cigar-label"><path id="outline-mouthbit2" fill="#000000" d="M1277.4 1617c-.2.5-.5 1-.7 1.5-1.5 1.2-2.9 2.4-4.4 3.6-.5.4-1.1.9-1.1 1.7v6.4c-.2.5-.5 1-.7 1.5-.6.7-1.3 1.3-1.9 2-1 1-2 2-3.5 1.8h-1.8c-1.1 0-2.3.2-2.8 1.4-1.1 2.2-2.2 4.4-3.2 6.6-.4.7-.9 1.2-1.7 1.3-2.2.2-4.4.5-6.5.7l-4-1.9s-.1-.2-.2-.3c-2-1.7-3.2-3.7-3.4-6.4-.2-2.2 1-3.8 2-5.6.6-1 1.1-2 1.4-3.1.1-.4-.1-1.2-.4-1.5-.5-.4-1 0-1.5.3-.9.8-1.3 1.8-1.7 2.8-.3.6-.7.9-1.3.7s-.8-.7-.8-1.2c0-.4 0-.8.2-1.2.5-2 .9-4 1.5-6 .7-2.4 1.6-5.2 2.3-7.6 0-.1 0 .1 0 0l3.5-7.6.9-1.5c1.2-1.8 2.3-3.6 3.5-5.4 1.3-1.9 2.8-3.7 4.2-5.6.5-.7 1.2-.8 1.6-.4.6.4.6.8.2 1.7-.5 1-.9 2-.9 3.1 0 .6.2 1.2.8 1.2.5 0 1.2-.3 1.3-.6.7-1.4 1.4-2.9 1.9-4.4.8-3 2.9-4.7 5.8-5.3 1.3-.2 2.7 0 4.1-.1 1.3.6 2.7 1.2 4 1.9 1.2 1.8 2.4 3.6 3.7 5.5.4.6.5 1.3.2 2-.8 1.8-1.6 3.7-2.4 5.5-.2.5-.4.9-.6 1.3-.3.8-.4 1.5.1 2.2l1.8 2.4c.6.7 1.1 1.5.9 2.5-.2 1.4-.2 2.7-.3 4.1Zm-30.2-5.2c-.6 1.9-1.4 3.8-1.8 5.8-.7 3.2 0 6 2.8 8 1.9 1.3 3 1 3.8-.8.6-1.2 1-2.5 1.6-3.7.3-.5.7-1 1.1-1.4 2-1.7 3.3-3.9 3.3-6.6 0-2.2 1.2-3.9 2.1-5.7.7-1.3.9-2.6-.8-3.4-2.5-1.2-5.8-.4-7.9 1.7-1.8 1.8-2.9 4-4.2 6.1m25.7-10.9c1.1-2.3.8-4.1-.2-6-.6-1.1-1.4-2.1-2.8-2.5-3.2-.8-6.3.9-7.6 3.7-.9 2-.8 4.1.4 6 .6 1 1.3 1.9 2.4 2.3 3 1.1 6.5-.7 7.7-3.5Zm-17.4 37.7c.1-.5.3-1 .4-1.5.7-3.1-1.4-7.8-5.8-7.1-2.5.4-4.4 1.7-5.3 3.9-1 2.3-.6 4.7 1 6.7.5.7 1.2 1.4 2 1.6 3 .9 6.4-.7 7.7-3.6m17.6-23.1c.8-1.5.9-3.2.4-4.8s-1.4-3.1-3.2-3.6c-2.7-.7-5.6.6-7 3-1.4 2.5-1.2 5 .4 7.3.6.8 1.3 1.6 2.4 1.8 2.9.5 6-1.2 7-3.8Zm-6.4 13.8c1-1.9.9-3.9 0-5.8-.6-1.3-1.6-2.4-3.2-2.6h-1.9c-2.1.4-3.8 1.4-4.8 3.3-1.1 2.1-1.1 4.3 0 6.4.6 1.1 1.4 2.1 2.5 2.4 3 .8 6.2-.8 7.3-3.7Z" class="outline" data-name="outline-mouthbit" data-original-prefix="outline"/><path id="outline-mouthbit3" fill="#000000" d="M1245.4 1597.4c-1.1.6-2.3 1-3.4 1.6-.1 0-.4.2-.2.3l7.1-1.2-2.2-1.4c1.2-.6 2.6-.9 3.7-1.4 0 0 .5-.2.2-.3l-8 .7 2.7 1.8Z" class="outline" data-name="outline-mouthbit" data-original-prefix="outline"/><path id="outline-mouthbit4" fill="#000000" d="M1235 1619.9c-.4-1.3-1-2.5-1.3-3.7 0-.1-.2-.4 0-.4l3.9 5.8-2.1-.2c.4 1.3 1.2 2.5 1.6 3.8 0 .1.2.5 0 .5l-4.7-6z" class="outline" data-name="outline-mouthbit" data-original-prefix="outline"/></g>
    </g>
</svg>