<?xml version="1.0" encoding="UTF-8"?>
<?xml-stylesheet type="text/css" href="../styles/semantic.css" ?>
<svg xmlns="http://www.w3.org/2000/svg" viewBox="0 0 2048 2048">
  <g class="trait-group" data-category="background" id="background-blue">
      <path id="color-blue" fill="#2f5496" d="M2048 0v2048H0V0z" class="color" style="fill: #2f5496"/>
    </g><g class="trait-group" data-category="jaw" id="jaw-robo">
      <path id="fill-jaw-robo1" fill="#ffffff" d="M1369.9 1062.1c.4.5 1 11.1 1.4 13.1 11.6 61.7 25.9 123 37.2 184.8 16.2 20.3 35.3 38.1 51.5 58.4l-70.1 149.9-2.3 1.6-31.6-1.9-7.8 59.7-101.2 128.8c-1.6 1.1-2.6-.6-3.6-1.6-11.2-11.1-20.8-28.6-32-40-1.3-1.3-2.6-3.5-4.8-2.9-3.4.9-32.4 51.8-38.3 57.8-25.8 9.8-49.6 24-74.7 35.3-8.9 4-63.2 23-65.1 25.9-.6 1-.4 2.8-.6 2.9-.2.2-3.1-.9-4.4-.9s-3.2 1.3-3.6.9c-.3-.3.7-2.4-2.3-4.2-13.4-8.1-38.6-14-54.4-20.6-28.2-11.8-54.4-28.3-83.3-38.7-6.3-5.8-35.3-57.4-38.7-58.4-2.2-.7-4.5 2.4-5.9 3.9-11.6 12.1-21.3 28.8-33.1 41l-1.9-.9-100.9-128.1c-3.2-19.9-5.4-39.9-7.5-60l-31.6 1.9-2.5-1.4-69.8-149.3c-.3-1.9 4.6-7.3 6.3-9.3 14.5-16.8 30.7-32.1 44.6-49.4 10.6-62 27.2-123.3 37.7-185.3.5-3.2-.7-11.9 2-13.3 104.8-21.7 209.7-42.7 314.5-64.3 7.3-1.5 24.9-7.3 30.5-7.5 4.2 0 24.8 6.2 31.1 7.5 105 21.6 210.1 42.9 315.1 64.4v.2z" class="fill" data-original-prefix="fill"/><path id="shading-jaw-main" fill="#aaaaaa" d="m1369.9 1062.1 28.1 145.4c-4.8-.6-19.2-17.4-22.3-16.4-3.4 1-21.1 37.8-20.7 42.4 12.3 15.8 24.8 31.6 35.4 48.6 3.7 5.9 15.5 24.5 15.6 30.5 0 4.7-10.7 25-13.5 30.5-4.5 8.7-9.8 16.9-14.5 25.5 17.3-8 33.9-18.4 49.3-29.7 4.1-3 10.3-7 13.7-10.3 2.3-2.2 12.4-16.5 13.5-16.5l5.5 6.4-65.1 139.9-6.5 11.5-32.3-1.9-7.8 59.7-101.2 128.8c-1.6 1.1-2.6-.6-3.6-1.6-11.1-11.1-20.8-29.2-31.9-40-.8-.8-1.6-2.1-2.9-1.9-7.3 1.3-32.3 48.3-39.7 55.4-30.9 14.9-60.7 32.4-91.6 47.4-12.8 6.2-33.2 17.2-46.8 18.2-23.7 1.7-37.4-7.3-57.9-17.2-31.4-15.1-61.6-32.8-93-48-8.2-6.6-32.8-54.4-40.3-55.8-2.8-.5-31.3 38.2-35.8 43-1 1.2-2 1.2-3.1 0l-100.9-128.1-7.5-60-31.6 1.9-2.5-1.4-69.8-149.3c-.3-3.1 3.7-7.8 6.8-5.8 1.9 1.2 8.8 11.9 11.5 14.6 2.9 2.9 7.8 6.2 11.2 8.8 4.5 3.4 49.2 33.3 51.3 31.2-7.3-15.4-17.3-29.8-23.8-45.6-1.2-2.9-3.2-6.7-3.2-9.9 0-5.3 10.4-22 13.7-27.4 11-18.2 24.3-34.9 37.4-51.6-4.2-15.2-12-29-20.1-42.3-.9-.5-2 0-2.9.4-6.3 3.4-12.9 13.3-20 16.5l28.1-145.9 45.8-9.7c48.2-55 116.4-93.5 184.8-118.2 72.2-26 130.6-31.5 205-8.5 77.7 24 155.9 65.5 210.3 126.7zM854 1330c-21-6.7-43.3-4.3-64.4-11.1-14-4.5-30.8-14.7-42.9-23.1-18.1-12.6-35.7-28.4-49.2-45.8-10.7 14.6-22.1 30.4-30.7 46.3-4.3 8-11.3 21.1-7.7 30.1l27.1 48.4c6.1 1.6 17.5-4.7 22.8-2.3 1.5.7 2.4 3.5 4.5 3.5s4.4-5.1 7-5.1 3.4 4.4 7 4.1 5.2-6.6 7.2-7c.5 0 8.2 2.7 8.6 2.9 4.7 2.4.3 18-3.2 21.4.3 1.5 14.2 9.3 16.4 9.6 2.9.5.2-2.4 1-4.9s6.5-6.3 8.8-5.9c5.4.9 6.3 10.2 14.7.3 1.9-2.2 0-4.1 4.5-4.6 8.5-1 5 8.4 7 14.1 12.4-17.2 20.2-37.4 32.1-54.9l29.4-16.1Zm507.8 44.8c8.8-17.7 20.1-34.4 28.2-52.3-.4-8.9-2.9-14.5-6.9-22.2-8.9-17.4-21.4-34.4-32.7-50.3-21.1 25.5-52 52.2-82.8 65.2-24.8 10.4-48.4 7.8-73.7 14.8l29.7 16.3c11.6 17.6 19.4 37.7 31.8 54.7.9-1.8 1-13.5 1.5-14s7.3-.2 7.8.2c1 .6 1.6 7.8 6.9 8.7 6.3 1.1 7.7-7.8 15.4-2.8 2.7 1.8 3.1 6 2.8 8.9 1.2 1.4 17.7-8.3 18-9.6.2-1-3.9-5.8-4.6-8.4-2.2-9.5-1.5-13.7 8.4-14.8 5.3-.6 2.8 2.2 5.5 4.5 4.6 4 7.8-2.7 10-2.6 2.7.2 5 4.9 7.2 4.9s3-2.8 4.5-3.5c5.2-2.4 16.6 3.8 22.8 2.3zM1078 1327c-5.5-11.1-10.5-24.8-17.6-34.9-4.2-6.1-10.2-10.5-14.9-16.1-3.4-4-15.2-20.5-18.4-21.6-1.9-.6-4.4-.8-6.3-.2-2.4.7-15.7 18.7-18.7 22.3s-7.4 6.8-10.5 10.5c-9.4 11.2-15.1 26.9-21.5 40h108Zm-353.8 172.8c24.8 5.4 50.2 7.7 75 13.6 17.3 4.1 20.3 3.6 29.6 19.4 5.3 8.9 9.2 18.7 14.2 27.8l17 14-29.2-80.8c-2.4-5.8-8-8-13.1-10.9-22.2-12.9-51.7-27.2-75.7-36.3-2.6-1-8.1-3.8-10.4-3.5-1 0-15.6 9.5-16.3 10.3-6.3 7.6 6.8 37.2 8.9 46.5Zm599.6 0c2.5-10.6 8.2-22.1 9.8-32.7.8-5.7 1.7-10.9-3-15.1-1.1-1-13.2-8.9-14-9-2.5-.3-19.4 7.2-23.2 8.8-20.7 8.8-45.7 20.5-65 32-5.6 3.4-8.8 4.9-11.8 11.2l-28.5 80 16.4-14.1c7.1-10.9 14.9-35.4 25.9-42.1 6.1-3.8 19.9-5.9 27.5-7.5 21.8-4.6 44.2-6.7 66-11.5zM908.5 1649v1c.7-.3.7-.7 0-1m229.5 1c-31 8.8-60.6 26.8-91 36.5-19.3 6.2-28.3 5.9-47.5-.4-28.3-9.3-56.5-25.5-85-35.1-1.2-.4-3.6-1.8-4.5-.5.8 2.1 2.7 4.2 4 6 4.9 6.3 18 23.3 23.5 27.5 7.2 5.5 27.9 14.6 37.1 18.9 5 2.3 20.9 10.5 24.9 11.1 9 1.4 36.3 1 46 0 7-.6 57.7-24.6 64.4-29.6 5.3-3.9 18.2-20.8 23-27 .8-1 5.8-6.8 5-7.5Z" class="outline shading" data-original-prefix="shading" opacity="0.5" style="opacity: 0.5"/><path id="outline-jaw" fill="#000000" d="M670 1105c2 .2 9.2 3.6 9.8 5.7 1 3.3-1.3 18.1-2 22.7-6 41.8-19.7 84.1-28.6 125.4-12.3 18.3-29.3 33.5-43.8 50.2-1.2 1.3-6.5 7.5-6.5 8.5l56 135.5c1.5.4 1.7-.4 2.5-1 7.1-4.9 23.9-23.3 30.5-30.5 1.5-1.6 9.9-11.2 10-12-17.6-32.9-42.5-63.1-49.8-100.8 17.2-28.9 35.3-57.4 56.9-83.2 6.2-7.4 21.8-27.5 32-26.1 4.7.6 8.6 4.8 6.4 9.5-23 21-44.9 44.7-62.7 70.3-3.2 4.6-15.2 22.2-15.6 26.5-.5 5.1 11.8 29.8 15 35.6 7 12.8 29.4 46.8 40.5 54.5 2.8 1.9 7 3.2 10 5 77.7 46.7 153.2 90.1 243.1 109.9 13.1 2.9 37.4 9.1 49.8 9.2 11.3 0 33.7-5.7 45.6-8.2 92.6-19.7 168.3-62.9 248.1-110.9 3.1-1.8 7.2-3.1 10-5 11.1-7.7 33.4-41.8 40.5-54.5 3.2-5.8 15.5-30.5 15-35.6-.4-3.9-10.7-19.3-13.6-23.5-18.3-27-40.8-51.3-64.7-73.3-2.5-9.2 6.9-10.8 13.8-7.8 10.7 4.6 40.4 44.2 48.5 55.5 11.9 16.7 22.3 34.6 33 52.1-7.3 37.7-32.2 67.9-49.8 100.8 0 .8 8.5 10.4 10 12 6.6 7.2 23.4 25.6 30.5 30.5.8.6 1 1.4 2.5 1l55.8-135.3c-15.4-20.6-35.6-37.7-50.1-58.9-8.6-41-22.6-83.1-28.6-124.4-.7-4.8-3.1-20-1.9-23.7.6-2.1 8-5.5 9.8-5.7 4.6-.4 10.8 5.1 11.9 9.6 8.1 44.1 13.6 92.9 27.6 135.4 9.1 27.6 33.8 39.8 52 60 4.9 5.4 6.6 7.2 4.8 14.8-2.1 8.6-9.2 23.2-12.8 32.2-16.7 41-35.5 81.7-54.5 121.5-2.5 2.1-18.6 9-21.4 8.6-4.6-.7-13.3-13.3-18.5-15-3.1 22.3-7.1 44.7-11.8 66.7-29.2 38.3-55.4 79-82.3 118.7-10.2 4.1-22.2 12.3-32.2 15.8-1.5.5-3 1.3-4.6.7l-24.6-43.9c-1.1.5-16.2 15.9-17.3 17.7-6.5 10.1-3.8 21-14.2 29.8-22.9 19.1-72.2 40.2-100.7 51.3-18.6 7.3-34.3 14.2-54.7 14.3-24 .2-49.5-11.4-71.5-20.6-23.2-9.8-67.3-29.4-85.5-45.5-10.3-9.1-7.3-19.2-13.7-29.3-1.1-1.7-16.2-17.1-17.3-17.7L812 1674c-1.6.6-3.1 0-4.6-.7-10.1-3.5-22-11.7-32.2-15.8-26.9-39.8-53.1-80.4-82.3-118.7-4.7-22-8.6-44.4-11.8-66.7-5.2 1.7-14 14.4-18.5 15-2.8.4-18.9-6.5-21.4-8.6-19-39.8-37.8-80.5-54.5-121.5-3.6-8.9-10.8-23.6-12.8-32.2-1.8-7.6 0-9.4 4.8-14.8 13.4-14.9 37.6-30.5 47.2-47.8 7.3-13.1 12.4-41.8 15.8-57.2 4.5-20.4 8.5-41.2 12.2-61.8 1.5-8.5 1.8-19.4 3.7-27.3 1.2-5 7.2-11.3 12.6-10.9zm664.9 411.9 14.2-77.4c-.2-3.8-5.4-5.5-8.1-8-2.9-2.7-5.4-5.9-8.6-8.3-82.7 31.3-155.3 82.7-242.3 103.3-57 13.5-94.2 11-150.2-4.8-69.9-19.7-131-59.2-197.1-87.9-6-2.6-20.1-9.4-25.7-10.4-2.8-.5-7.7 6-10 8.1-2.1 2-7.6 4.5-8.1 7l14.2 78.3c17.8 1.1 35.6 3.8 53.4 5.1 9.3.7 42.4-.4 47.8 3.9 8.5 20 14.6 41 23.2 61 2.8 6.5 6.2 15.2 9.9 21.1 5.4 8.7 15 14.9 20 23.1 5.6 9.2 8.1 23.6 15.5 31.5 5.1 5.5 21.6 15 28.8 19.2 31 18.4 83.7 44.6 119.8 42.2 30.1-1.9 87.2-31 113.4-47.6 5.2-3.3 16.2-9.8 20.1-13.9 7.2-7.5 10.4-24.2 16.1-32.9 2.7-4.1 8-7.8 11.3-11.7 8.3-9.7 11.9-17.5 16.9-29.1 9-20.6 15.3-42.4 24.2-63 14.6-5 32.2-2.8 47.8-4 17.8-1.3 35.6-4.1 53.4-5.1v.3ZM801 1649c5.8-16.3 16.4-30.6 24.8-45.6-4.3-11.7-7.5-23.9-12-35.6-2.2-5.8-7.4-19.7-10.9-24.1-10.8-13.6-69.6-12.5-86.9-16.6-.5 1.7.7 2 1.5 3 13.4 17.3 27.7 33.6 40.3 51.7 15.2 21.9 28.4 45.1 43.2 67.3Zm531-122c-17.3 4.1-76.1 3-86.9 16.6-3.5 4.4-8.6 18.3-10.9 24.1-4.5 11.7-7.7 23.9-12 35.6 8.4 15.1 18.9 29.3 24.8 45.6 14.7-22.2 27.9-45.4 43.2-67.3 12.6-18.1 26.9-34.3 40.3-51.7.8-1 1.9-1.3 1.5-3Z" class="outline" data-original-prefix="outline"/><path id="outline-jaw1" fill="#000000" d="M785.7 1376.3c8.1 7.2 8.5 18.5 4.1 27.9-5.2 10.9-19.3 10.7-26.7 2.3-15.1-17.3 3.6-47 22.7-30.2Zm-12 4.9c-10.7 1.7-7.7 23.9 4.7 21.8 10.2-1.7 4.4-23.3-4.7-21.8" class="outline" data-name="outline-jaw" data-original-prefix="outline"/><path id="outline-jaw2" fill="#000000" d="M1262.3 1376.3c22.7-20.1 40.5 23.7 16.9 34.4-21.7 9.8-31.5-21.5-16.9-34.4m10.4 4.9c-10.5 1.7-12.6 25.9 1.3 21.4 10.1-3.2 8.1-22.9-1.3-21.4" class="outline" data-name="outline-jaw" data-original-prefix="outline"/><path id="outline-jaw3" fill="#000000" d="M723.7 1356.2c15.6-2.8 28.9 19.5 15.8 29.8-10 7.8-24 0-26.8-11.2-1.8-7.1 3.5-17.2 11-18.6m9.1 22.6c6.5-6.5-8.3-22.1-11.4-7.8-1.5 7.3 7.1 12.1 11.4 7.8" class="outline" data-name="outline-jaw" data-original-prefix="outline"/><path id="outline-jaw4" fill="#000000" d="M1317.7 1356.2c14.2-2.9 23 13.6 14.3 25.3-12 16-34.6 4.8-27.5-13.5 1.7-4.3 8.7-10.8 13.2-11.8m-2.5 22.6c4.3 4.3 12.9-.5 11.4-7.8-3-14.3-17.9 1.3-11.4 7.8" class="outline" data-name="outline-jaw" data-original-prefix="outline"/>
    </g><g class="trait-group" data-category="mouth" id="mouth-scrappy">
      <path id="fill-muzzle" fill="#ffffff" d="M1038 1292s-.4 1.7.7 2c10.3 2.8 18 4.3 25.8 13 1.9 2.2 4.9 8.8 6.5 9.5 2.6 1.2 6.6 0 9.5.5 11.4 1.5 21.2 3.7 31.2 9.8 2.1 1.3 9.2 7.8 10.2 7.1.3-.3 0-1.7 0-1.9 2.4-1.8 32.7.6 38 1 5.2 4.2 13.2 5.5 19.2 8.3 13.7 6.4 22.5 16.1 29.9 29.1 8.4 14.6 7.7 17.8 3.1 33.4-2.5 8.5-4.8 21.8-16.3 20.2 1.5-15.5-14.8-32.4-26.5-41-3.2-2.4-11.3-7.2-6 0 10.8 14.7 20.2 14.8 21.5 37.5.6 10.3-8.4 32.9-15.4 40.5-.6.7-7.1 6.3-7.6 6.5-3 1.6-6.9-6.1-7.8-8.2-3.6-7.8-4.7-15.5-9.7-23.3-1.1-1.7-10.8-13.7-12.4-12.1 5.6 13 9 46.2-2.5 56-4.4 3.7-9.4 1.9-13.3 3.7-2.8 1.3-3 5.7-4.8 6.1s-7-3.1-9.4-3.5c-8.9-1.3-13.2 17-18.7 17.5-2.5.2-10.7-11.9-18.4-9.4-7 2.2-15.4 21.2-24.4 23.6-6.3-6-3.4-14-5.8-21.2-1.2-3.5-4.2-6.7-5.8-10.2-5.4-12.7-2.8-19.9-.2-32.2.6-3 0-5.9.9-9.1.2-.7 6.3-12.3 6.9-13.1 3.7-5.4 19.2-12.4 22.7-3.8.9 2.2 0 8.7 2.2 7.7 5.1-4.9 10.2-9.9 15.5-14.5 11.5-10 14.1-9.7 21.2-24.8 1.5-3.3 6.5-14.5 6.6-17.3 0-3.4-9.2-14.7-11.8-17.8-1.4-1.7-9.5-11.5-10.2-11.8-6.4-3.2-28-2.3-34.7.8-7.9 3.6-12.5 12-19 17-1 .8-1.3 1.9-3 1.5l.8-12.7c3.6-4.3 21.7-23.3 21.1-27.5-.4-2.6-11.3-13.4-12.9-11.7 4.4 12.8.7 8.7-7.3 12.2-1.2.5-2.9 2.7-3.2 2.7s-2-2.2-3.2-2.7c-3.4-1.5-9.7-.4-9.3-5.6 0-1.1 4.1-7.6.5-6.6-2.8.8-12 9.9-11.3 13.2 0 .6 4 7 4.8 8 1.5 2 5 5.9 7 8.3 3.2 3.9 9.7 7.6 9.9 13.1 0 1.6-.8 3.1-.8 4.8s2.6 8.1-2.5 3.6c-6.2-5.3-10.2-13.6-18.5-17.5-6.5-3-30.3-4.3-35.7-.2-.8.6-8.8 10.5-10.2 12.2-2.4 3-10.9 13.7-10.8 16.8.2 5.4 11.7 29 15.7 33.2 3 3.2 9.3 6.8 13 9.9 5 4.3 9.7 9.1 14.5 13.5l4.2-11.1c4.9-3.1 17.7 2.6 20.8 7.1 1 1.5 5.1 9.9 6 11.9 2.8 6.4 5.1 25.4 4.4 32.4-1.1 10-7.9 15-9.4 22.6-1.3 6.4 1.1 14.9-5.8 18.9-8.1-2.6-17.3-21.5-23.6-23.5-8.2-2.6-15.9 9.6-18.4 9.4-5.3-.4-8.7-14-13.9-16.1-6.9-2.8-11.5 2.7-14.1 2.1-1.8-.4-2-4.8-4.8-6.1-4.5-2-9.6.3-14.3-4.7-10.9-11.5-6.5-42.2-1.5-56.1-9.1 6.7-14.1 14.8-18.5 25-1.6 3.6-2 7.5-3.7 11.3-1 2.1-4.9 9.8-7.8 8.2-.4-.2-6.9-5.9-7.5-6.5-3.9-4.3-13.8-24.4-15-30-2.8-12.9 1.4-26.5 9.5-36.5 4.1-5.1 11.3-9 13-15.5-2.4-2.4-22.3 17.4-24.4 20.1-5.4 6.8-11 15.9-9.6 24.9-8.3.5-10.7-3.3-13.3-10.2-2.7-7.1-7.8-22.8-6.2-29.8 3.7-16.2 21.4-35.8 36.3-42.7 6.2-2.9 13.9-4.1 19.2-8.3 12.5-.8 24.5-2.3 37-1 0 0 .7 2.1.5 3 9.5-8.2 20.6-14.8 33.1-16.9 4.7-.8 14.8-.4 18.1-1.8 1.6-.7 5.2-7.7 7.2-9.9 8-8.4 15.2-9.7 25.4-12.5 1.1-.3.6-1.9.7-2 1.1-.7 25.9-.7 27 0v.2Z" class="fill" data-original-prefix="fill"/><path id="fill-teeth14" fill="#ffffff" d="M1039.1 1601.9c-.8-.5-7.2-15.4-7.9-17.6-4.2-13.6-7-37.9-1.5-51.1 5.8-13.9 10.8-1 20-5 1.9-.8 7.6-6.8 9.2-8.8 2.6-3 3.6-9.1 8-8 12.8 3.1 21.1 24.2 22 36.1 2.3 30.4-23.4 40.7-45.2 53.7-1.2.5-3.6 1.3-4.6.6Z" class="fill" data-original-prefix="fill"/><path id="fill-teeth13" fill="#ffffff" d="M1015.7 1527.3c10.2 8.9 6 44.1 2.3 56.2-1.9 6.4-6 12-8.1 18.3h-2.3c-12.1-7.1-26.3-12.4-36.1-22.9-9.1-9.8-12.3-17.9-11.5-31.5.8-11.8 9-32.3 21.2-35.9 4.8-1.4 5.7 4.5 8.2 7.4 1.8 2.1 8.3 8.8 10.5 9.5 6 1.9 12.5-4.1 15.8-1.3z" class="fill" data-original-prefix="fill"/><path id="fill-teeth12" fill="#ffffff" d="M904 1461c0 2.2-1.1 3.8-.8 6.2s7.4 22.5 8.8 24c3.7 4.1 11.1 2.3 15.9 2.9 4.9 13.5-4.3 23.9-8.6 35.6-2 5.3-8.4 33.1-12.8 34.3-3.3.8-11.7-18-12.8-21.2-6.8-20.9-8.8-51.8 1.8-71.7.6-1.2 7.1-11.6 8.4-10.1Z" class="fill" data-original-prefix="fill"/><path id="fill-teeth11" fill="#ffffff" d="M1144 1564c-1 .7-1.8-.4-2.4-1.1-5.8-5.8-8.7-24.8-11.8-33.2-4.3-11.7-13.8-21.9-8.6-35.6 18.6 2.9 18.2-8.8 23.1-22.4l2.2-9.8c10.2 11.1 15.2 27.6 14.6 42.5-.5 13.7-3.2 35.3-9.5 47.5-.8 1.5-6.9 11.6-7.5 12Z" class="fill" data-original-prefix="fill"/><path id="fill-teeth10" fill="#ffffff" d="M949 1569c5.5 22.1 11.4 45.4 9 68.5-.5 5-1.3 9.2-7 6.9-3.4-1.3-17.5-13.4-19.5-16.5-7.4-11.8.3-39.7 8-50.8 1.2-1.7 7-10.1 9.4-8.1Z" class="fill" data-original-prefix="fill"/><path id="fill-teeth9" fill="#ffffff" d="M1100 1569c3.4-2.9 13.3 14.1 14.5 17 4.8 11.7 9.3 33.5 1 44-2.1 2.7-18.5 16.5-20.9 15.9-1.9-.4-3.4-6.5-3.6-8.4-1-8.7 0-26 1-35 1.1-10.9 6.5-22.5 8-33.5" class="fill" data-original-prefix="fill"/><path id="fill-teeth8" fill="#ffffff" d="M1167 1547c.9-6.7-1-15-.6-21.3.3-6.3 3.7-14.6 3.6-21.2 0-5.7-4.8-19.5-4-24 .5-2.9 3.5-2.8 5.5-4.5 6.2-5.3 10.4-15.8 16.9-4.9 14.2 23.5-1 56.5-18.4 74.4-.9 1-1.3 1.9-3 1.5" class="fill" data-original-prefix="fill"/><path id="fill-teeth7" fill="#ffffff" d="M881.7 1478.3c3.3 2.9-2.8 21-2.8 26.2s2.6 12.6 3.1 18c.7 8 0 16.5-.5 24.5-1.8 0-11.7-13.3-13.3-15.7-11.2-16.8-20.3-43.7-7-61.7 6.2-8.4 9.7.9 14 4.7 2 1.9 5.7 3 6.6 3.9Z" class="fill" data-original-prefix="fill"/><path id="fill-teeth6" fill="#ffffff" d="M1018 1613v16.5c0 .9-10.8 13.2-11.9 14.1-6.3 4.8-8-2.6-10.6-5.5-5.5-6-17.9-.4-24.4-5.6-.9-.7-4.1-8.3-4.1-8.9v-24.5c12.3 3 28.7 18.5 41.4 16.9 3.5-.4 6.1-3 9.6-2.9Z" class="fill" data-original-prefix="fill"/><path id="fill-teeth5" fill="#ffffff" d="M1102.5 1494c3.3-.8 5.3 8.5 6.3 10.7 5 10.5 15.3 30.3 11.4 42.1-2.2 6.7-15.6 23.4-20.4 11-4-10.4-4.1-44.7-1.1-55.5.4-1.6 2.4-7.9 3.8-8.2Z" class="fill" data-original-prefix="fill"/><path id="fill-teeth4" fill="#ffffff" d="M917 1563c-1.6 13.5 2.8 27.4 2 40.5-.5 8.8-4.2 18.6-5.5 27.5-5.8-5.6-10.5-15.7-11.4-23.6-.6-5.2.7-25.8 2.4-30.3.6-1.6 10.5-16.2 12.4-14.1Z" class="fill" data-original-prefix="fill"/><path id="fill-teeth3" fill="#ffffff" d="M1135 1631c-.4-8.9-4.4-17.8-5.1-26.5-1-13.6 3.6-27.7 2-41.5 2.2-2.4 11.9 13 12.5 15 2 6.8 2.7 27.3 1.2 34.3-1.3 6.3-5.5 14.8-10.8 18.7z" class="fill" data-original-prefix="fill"/><path id="fill-teeth2" fill="#ffffff" d="M1154.1 1604.9c-3.4-2-5.1-22.3-3.9-26.2.8-2.6 8.9-5.2 10.2-8.8l5.1-10.9c3.8 3.4 5.1 7.2 4.3 12.2-.7 4.5-5.2 22.3-6.9 26.2-.9 2.2-6.1 9-8.8 7.5" class="fill" data-original-prefix="fill"/><path id="fill-teeth1" fill="#ffffff" d="M885 1559c.4.4.7 7.1 3 10.5 2.7 3.9 10.5 6.9 11 10-.8 4.7-.7 23-4 25.4-2.5 1.8-7.7-4.5-8.7-6.7-1.6-3.6-6.3-22.5-7-27-.6-3.9 2.5-15.6 5.8-12.3Z" class="fill" data-original-prefix="fill"/><path id="shading-mouth2" fill="#aaaaaa" d="M918 1443.5c.8 5.3 5.6 13.8 10.1 16.9 11.5 8.3 16.2-.3 22.4-9.4 2.5 5.4 3.4 11.5 6 17 1.4 2.8 5.7 12 7.5 5.5l4-11.5c1.6 7.5 6.3 15.4 11.5 21 4.3 4.7 18.8 15.4 24.6 9.6 2-2.1 8.3-17.9 10.8-22.2 1.2-2.2 7.8-13.8 9.7-13.3 1 .2 8.5 13.2 9.7 15.3 2.4 4.5 7.3 17.7 9.8 20.2 3.8 3.8 10.5.4 14.4-1.8 10.5-5.9 18.5-17.2 21.7-28.8l4.2 12.3c.3 1.2 1.9 2.4 2.8 1.7.6-.4 5.8-11.3 6.5-13 .8-2 2.8-12 4-12 6.8 10.7 12.9 18.4 24.5 7.5 8.6-8 9.3-23.8 7-34.5 3.5-3.1 21.1 16.1 26.6 16.9 9.1 1.4 17.6-11.8 19-19.9 3.5-20.5-12.9-39.2-30.9-46.2l-12.7-4.8c15.4 0 28.2 2.9 41.1 11.4 4.8 3.1 12.2 10.9 17.6 11.4 6.2.6 10.1-4.1 10-10-.4-19.3-25.8-38.1-39.7-48.8 15.4 2.4 34.6 11.8 45 23.5 7.8 8.8 19.1 25.1 19.1 37s-6.4 28.5-9.2 32.8c-3.3 5.3-11.7 5.4-13.4 10.6-.9 8.1-2.1 16.4-2.5 24.5-1.5 29 1.4 45.2-10.8 73.2-3.6 8.2-12.7 20.4-14.9 27.1-4.2 12.8-.7 26.4-9.1 38.9-3.2 4.8-8.4 6.7-11.2 10.8-1.7 2.5-2.4 6.1-4.2 8.8-4.5 6.7-14.6 23-21.6 8.9-1.6-3.3-1.3-12.9-6.7-6.2-1.4 1.7-1.9 4.4-3.5 6.5-3.7 4.7-17.7 19.6-23.5 19.5-2.2 0-4.5-4.1-6.6-5.4-7.9-5-21.1-6.3-29.2-1.4-7.3 4.4-9.5 13.6-18.1 6.8s-6.4-10.8-20.1-9c-5.6.7-11.4 12.6-16.9 12.1-2.8-.2-11.4-11.1-18.5-12.6-6.3-1.3-17.5.7-23 4.2-2.6 1.7-4.1 5.6-7.5 5.4-5.7-.3-19.8-15.8-23.6-20.5-1.2-1.5-4.4-10.6-7.1-6.9-2.5 3.4-.6 9.9-7.2 12.7-7 3-14.9-11.2-18.1-16.4-1.2-1.8-1.2-4.3-2.6-6.4-2-3-6.8-5.4-9.5-8.5-10.4-11.9-6.7-27.7-10.7-41.3-.8-2.6-5.6-8.5-7.3-11.7-18.4-35.7-16.4-45.6-18.4-84.6-.4-7.7-.6-20.7-2.2-27.8-1.5-6.2-11.1-6.1-14.2-11.8-3.4-6.1-9.3-29.6-8.6-36.4 1.2-10.3 16.2-31.2 24-38 10.5-9.2 26.2-16.5 40-18.5l-21.5 17c-7.2 6.4-26.8 32-14.8 39.9 9 5.9 16.7-4.5 23.7-9.1 12.7-8.4 25.3-11.8 40.7-11.8l-17.3 7.2c-18 9.4-33.1 32.7-22.1 52.8 1.7 3.1 8.6 10.4 12 11.1 9.1 1.7 20.7-15.4 29.5-18 .6 6.4-.9 14.3 0 20.5zm-37.1 40.6c-12.3-.5-17.1-20.2-22.8 1.5-3.4 13 1.2 26.4 9.4 36.5 1.5 1.8 12.7 13.1 13.9 12.9.8 0 2.5-2.3 2.8-3.2 2.9-7.1-3.2-12.2-4.2-19.2-1.5-9.8 0-18.7.9-28.4Zm301.8-8.9c-3.2.8-6.3 6-8.8 7.3-2.1 1.1-7.2 1-7.8 3.2-.5 1.7 3 10.8 2.9 14.8 0 3-1.5 13.9-2.2 16.8-.9 3.6-3.9 5.7-3.9 10.2s1.4 7.1 3.7 7.4c1.9.3 15-14.4 16.8-17 5.7-8.5 9-18.8 7.3-29.2-.5-3-4.4-14.5-8-13.6Zm-284.8 10c-4-2.3-6.5 9.9-6.8 12.5-1.2 10.5 3 38 8.7 47.1 1.9 3 5.4 6.9 9.2 7.3 3.7-15.6 12.6-29.2 21-42.5-2.3-.4-1.7-2.9-2.7-3.5-1.5-.9-7-1.9-9.7-3.1-4.7-2.2-12-7.7-15.6-11.4-1.2-1.2-3.8-6.2-4.2-6.3ZM1139 1552c8.3-2 11.9-12.2 13.9-19.6 3.1-12.1 6.1-33.4 1.1-44.8-3-6.9-5.8 1.7-8.3 4.1-3.9 3.8-11 9.3-16 11.6-2.5 1.1-7.8 1.8-9.1 2.7-.7.5-.5 1.8-1 2.7-.3.4-1.7.4-1.6.9 0 1 7.9 12.3 9.2 14.8 4.8 8.8 9.1 18 11.8 27.7Zm-197.7 5.7c8.1 8.1 9.5 0 10.5-7.3.8-5.6 2.7-20.6 1.7-25.4-3.6-17.2-21.3-15.9-21.6 3.6 0 6.8 4.6 24.3 9.4 29.2Zm161.5-44.5c-5 1.3-8.5 9.3-8.8 14.2-.2 4 2.4 28.5 3.8 31.3 2.5 5 7.5 0 9.8-2.7 6.8-8.3 11.6-30.7 4.5-39.5-2.7-3.3-4.8-4.4-9.2-3.3zM1023 1544c-.7-.7-.8-7-5.1-9.4-8.9-5-21.8-.8-32-4-10.4-3.3-9.4-13.1-16.1 1.8-2.9 6.4-9.1 24.4-6.3 30.7 1.1 2.4 17.8 15.6 21.2 17.8s18.2 11.7 21.1 10c3.1-5.6 9.3-9.5 12.6-14.9 1.8-2.8 4.1-11.5 4.6-11.9 1.6-1.7 1.7.5 2.1 1.4 1.6 3.6 2.1 6.8 4.5 10.5 3.3 5.2 9.2 9.3 12.4 14.6 3.1 1.9 15.5-5.9 18.9-8.1 4.5-2.9 22.9-17 23.9-21.1 2.2-9.7-6.6-28.3-10.9-37.2-4.9 1-7.8 5.2-12.7 6.7-9.2 2.8-28.2-1.6-33.7 6.3-.9 1.2-2.6 8.9-4.5 7zm-136 18c-.7-.6-3.5 0-4.5.9-6 6.2 2.4 31.6 14.6 27.6 4-1.3 3.8-9.4 2.8-12.9-1.1-3.9-7.2-4.1-9.8-7.2-2.1-2.5-2.7-8.2-3-8.5Zm274.1 0c-.3.3-.9 6-3 8.5-2.6 3.1-8.7 3.3-9.8 7.2-1 3.4-1.2 11.6 2.8 12.9 13.4 4.4 20.2-24.5 14.1-28.1-.9-.5-3.5-.9-4-.4Zm-216.4 7.2c-1.5.4-5.1 4.6-6 6.1-3.4 5.6-5.6 32.3-4.8 39.3 1.3 10.9 15.2 18 19.5 3.5 1.7-5.6 2.6-21.4 2.5-27.6 0-1.1-5.8-19.7-6.5-20.5-1.2-1.4-3.2-1.3-4.8-.8Zm153.3-.1c.2 6.6-5.4 14.7-6 20.6-.5 4.5 1 25.3 2.4 29.4 4.2 12.1 16.9 7.3 19.1-2.9 1.1-5.2 0-16.8-.6-22.6-1-9.7-1.7-25.5-14.9-24.5m-180 1.9c-20.5 3.8-17 28.7-9 43 4 2.9 10.4-17 10.7-19.8.9-7.5-2.9-15.5-1.8-23.2Zm218 43c2.5 1.8 7.2-9.1 7.7-10.8 3.9-12.8 1.6-30.1-13.7-32.2.5 7.4-2.8 16.2-1.9 23.4.3 2.7 6.4 18.5 7.9 19.6m-148.2 10.2c1.4.8 4.8 8.6 9.5 11 11.1 5.8 20.2-6.4 20.7-16.7.8-13.7-7.2-7.7-16.5-8.6-8.4-.8-15-4.8-21.8-9.2-5.5-3.5-13.6-14.6-14.7-1.4-.5 5.1 1.4 7.5 1.8 11.2s-2 5.9.5 10.7c4.8 9.3 18 1.3 20.7 2.8zm93.1-31.1c-2.1-1.5-19.7 12.7-23.9 14.4-2.3 1-7.9 2.3-10.5 2.5-10.5.9-18.8-5.4-16.4 11.4 1 7.3 7.9 15.8 16 15.1 9.4-.8 11.9-11.6 14.6-12.4 4-1.3 12.3 5.7 18.9-1.1 4.3-4.4 1.3-8.4 1.5-12.5 0-2.3 1.9-4.8 2-8.1 0-1.9-.8-8.5-2.2-9.4Z" class="outline shading" data-original-prefix="shading" opacity="0.5" style="opacity: 0.5"/><path id="shading-mouth1" fill="#aaaaaa" d="M1041 1343c6.1.5 12.7-1 17.5-5 1.5-1.3.9-3.7 2.8-2.9 10.1 7.9 37.9 17.4 43.8 28.2 3.6 6.5 4.6 17.5-1.8 22.6-5.6 4.5-20.8 10.8-28 15-4.9 2.8-9.7 6.6-14.7 9.3-7.4 4.1-25.5 14.5-32.6 16.4-2.9.8-5.2.8-8.1 0-14.5-3.8-42.2-22.5-56.3-30.7-6.2-3.6-21.2-9.1-23.2-15.8-5.5-18.4 15.7-28.3 28.7-35.4 2.3-1.2 15.5-8.6 16.5-8.7 2.9-.3 4.2 2.9 6.7 4.2 4.2 2.3 10 3.2 14.7 2.8-.3-5.1-3.3-11.3-1.8-16.3.5-1.6 12.5-13.9 14.5-14.4 3.9-1 8.2-.3 11.6 1.9 1 .7 10.8 11.1 11.2 11.8 2.1 5-1.2 11.8-1.5 17" class="outline shading" data-original-prefix="shading" opacity="0.5" style="opacity: 0.5"/><path id="outline-mouth3" fill="#000000" d="M889 1333c-5.3 4.2-13 5.4-19.2 8.3-14.9 6.9-32.6 26.5-36.3 42.7-1.6 7 3.5 22.7 6.2 29.8 2.6 6.9 5 10.8 13.3 10.2-1.4-9 4.2-18.1 9.6-24.9 2.1-2.6 22-22.5 24.4-20.1-1.7 6.5-8.8 10.4-13 15.5-8.1 10-12.3 23.6-9.5 36.5 1.2 5.6 11.1 25.8 15 30 .6.7 7.1 6.3 7.5 6.5 3 1.5 6.9-6.1 7.8-8.2 1.7-3.8 2.1-7.7 3.7-11.3 4.4-10.2 9.4-18.4 18.5-25-5.1 13.9-9.5 44.6 1.5 56.1 4.8 5 9.9 2.7 14.3 4.7 2.8 1.3 3 5.7 4.8 6.1 2.6.6 7.2-4.9 14.1-2.1 5.2 2.1 8.6 15.6 13.9 16.1 2.5.2 10.2-12 18.4-9.4 6.3 2 15.5 20.8 23.6 23.5 6.9-4 4.5-12.6 5.8-18.9 1.5-7.6 8.3-12.6 9.4-22.6.8-7-1.6-26-4.4-32.4-.9-2.1-5-10.5-6-11.9-3.1-4.5-15.9-10.2-20.8-7.1l-4.2 11.1c-4.8-4.4-9.5-9.2-14.5-13.5-3.7-3.2-10-6.8-13-9.9-4-4.2-15.5-27.8-15.7-33.2 0-3.1 8.4-13.8 10.8-16.8 1.4-1.8 9.5-11.6 10.2-12.2 5.4-4.1 29.2-2.8 35.7.2 8.4 3.8 12.4 12.1 18.5 17.5 5.2 4.5 2.5-1.7 2.5-3.6s.9-3.2.8-4.8c-.2-5.4-6.7-9.2-9.9-13.1-2-2.4-5.5-6.3-7-8.3-.8-1-4.7-7.3-4.8-8-.7-3.3 8.6-12.4 11.3-13.2 3.6-1-.5 5.5-.5 6.6-.4 5.2 5.9 4.1 9.3 5.6 1.2.5 3 2.7 3.2 2.7s2-2.2 3.2-2.7c8-3.5 11.7.6 7.3-12.2 1.6-1.7 12.5 9.1 12.9 11.7.6 4.2-17.5 23.2-21.1 27.5l-.8 12.7c1.7.4 2-.7 3-1.5 6.5-5 11.1-13.4 19-17 6.8-3.1 28.3-4.1 34.7-.8.7.3 8.8 10.1 10.2 11.8 2.6 3.1 11.9 14.4 11.8 17.8 0 2.8-5 14.1-6.6 17.3-7.1 15.2-9.7 14.8-21.2 24.8-5.3 4.6-10.4 9.6-15.5 14.5-2.2.9-1.4-5.6-2.2-7.7-3.4-8.6-19-1.6-22.7 3.8-.6.8-6.7 12.4-6.9 13.1-1 3.2-.3 6.1-.9 9.1-2.6 12.3-5.2 19.6.2 32.2 1.5 3.5 4.6 6.8 5.8 10.2 2.5 7.2-.5 15.2 5.8 21.2 9-2.3 17.4-21.3 24.4-23.6 7.7-2.4 15.9 9.6 18.4 9.4 5.6-.5 9.8-18.8 18.7-17.5 2.3.3 7.6 3.9 9.4 3.5s2-4.8 4.8-6.1c3.9-1.8 8.9 0 13.3-3.7 11.5-9.9 8.1-43 2.5-56 1.6-1.7 11.3 10.4 12.4 12.1 5.1 7.8 6.1 15.5 9.7 23.3 1 2.1 4.8 9.8 7.8 8.2.4-.2 6.9-5.8 7.6-6.5 7-7.6 16-30.2 15.4-40.5-1.3-22.7-10.7-22.7-21.5-37.5-5.3-7.2 2.8-2.4 6 0 11.8 8.6 28 25.5 26.5 41 11.4 1.6 13.7-11.7 16.3-20.2 4.6-15.6 5.3-18.8-3.1-33.4-7.4-13-16.3-22.7-29.9-29.1-6-2.8-14.1-4.1-19.2-8.3 9.3.7 19.7 2.8 29.2 5.3 7.4 1.9 14.4 3.9 20.7 8.3 3.2 9.3 27.6 34.6 28 42 .2 3.7-8.2 22.5-10 27.9-2.5 7.2-2.6 16-10 21-1.9 1.3-8.4 2-9 3.2-4.1 7.9-1.4 38-1.9 48.8-1.1 21.6-7.6 43.1-20.5 60.5-.9 1.2-2.6 1.5-3.6 2.7-4.3 5.6-2.8 18.6-4.3 26.5-1.2 6-5 13.1-5.6 18.4-.4 3.5 1.3 7.7.8 9.7s-10.7 8.6-13.2 9.9c-2.2 1.2-5.7 1.5-6.5 2-.6.4-5.4 10.9-7.2 13.3-2.1 2.7-11.1 11.3-14 12.1-4.1 1.2-7.9-10.3-9.9-13s-2.3 2.3-3.6 4.3c-4.3 6.7-25.1 26.6-32.4 28.6-1.7.5-3.3.7-5 .5-.4-5.9 3.2-9.9-1.5-15.1-8.2-9-20.9-.3-24.3 8.8-1.8 4.9-1.6 20-8.6 18.1-4.6-1.3-20-25.6-23.2-30.8-5.7 8.9-12.2 19.9-19.5 27.4-11.2 11.7-9.9-11-13.8-18.2-3.8-7.1-14-12-21.1-6.7-6.7 5-2.9 9.6-3.1 16.4-3.5 3.5-24.3-13.8-27.5-17-1.3-1.3-10.5-12.2-11-13-.7-1.4-.2-6.3-2.6-3.3-2.1 2.7-6.2 14.3-10.2 13.3s-12-10.2-13.7-12.4c-2.1-2.7-6.6-12.8-7.2-13.2-.8-.5-3.8-.6-5.8-1.7-2.3-1.2-11.9-7.4-13-9-2.1-3.2.4-6.9 0-11-.7-6.8-5.9-15.3-6.8-24.2-.5-5 .6-10.7-.6-15.4-1-4-8-10-10.7-14.3-15.3-24.4-17.6-52.1-17.9-80.2 0-5.4 3-18.2 0-22.8-.8-1.2-7.8-1.9-10.4-3.8-7.2-5.3-6.2-13-8.6-20.4-1.9-6-10.7-24.3-9.8-28.7.5-2.7 4.3-7.5 6-10.1 7-10.8 15.7-20.6 22.5-31.5 5.9-4.3 13.2-6 20.1-7.9 9.7-2.6 19.8-4.7 29.2-5.3h.2Zm15 128c-1.4-1.5-7.8 8.9-8.4 10.1-10.6 19.9-8.6 50.8-1.8 71.7 1.1 3.3 9.4 22.1 12.8 21.2 4.4-1.1 10.8-28.9 12.8-34.3 4.3-11.7 13.6-22.1 8.6-35.6-4.8-.6-12.2 1.2-15.9-2.9-1.4-1.5-8.5-21.7-8.8-24s.8-4 .8-6.2Zm240 103c.6-.4 6.8-10.5 7.5-12 6.3-12.1 9-33.7 9.5-47.5.6-14.9-4.3-31.4-14.6-42.5l-2.2 9.8c-4.9 13.6-4.6 25.2-23.1 22.4-5.2 13.7 4.3 23.9 8.6 35.6 3.1 8.4 6 27.5 11.8 33.2.7.7 1.4 1.8 2.4 1.1Zm-262.3-85.7c-1-.9-4.6-2-6.6-3.9-4.2-3.9-7.8-13.1-14-4.7-13.3 17.9-4.1 44.9 7 61.7 1.6 2.4 11.5 15.7 13.3 15.7.5-8 1.2-16.5.5-24.5-.4-5.4-3.1-12.3-3.1-18s6-23.3 2.8-26.2ZM1167 1547c1.7.4 2-.5 3-1.5 17.4-17.9 32.6-50.9 18.4-74.4-6.5-10.8-10.8-.4-16.9 4.9-2 1.7-5 1.6-5.5 4.5-.8 4.5 4 18.3 4 24s-3.3 14.8-3.6 21.2c-.3 6.3 1.6 14.6.6 21.3m-64.5-53c-1.4.3-3.3 6.6-3.8 8.2-3 10.7-2.9 45.1 1.1 55.5 4.8 12.4 18.2-4.3 20.4-11 3.9-11.7-6.4-31.5-11.4-42.1-1-2.2-3-11.4-6.3-10.7Zm-86.8 33.3c-3.2-2.8-9.7 3.2-15.8 1.3-2.1-.7-8.7-7.5-10.5-9.5-2.6-2.9-3.4-8.8-8.2-7.4-12.2 3.5-20.5 24.1-21.2 35.9-.9 13.6 2.4 21.7 11.5 31.5 9.8 10.4 24 15.7 36.1 23h2.3c2.1-6.4 6.2-12 8.1-18.4 3.7-12.2 7.9-47.3-2.3-56.2zm23.4 74.6c1.1.7 3.4 0 4.6-.6 21.8-13.1 47.5-23.3 45.2-53.7-.9-11.9-9.2-33-22-36.1-4.4-1.1-5.5 5-8 8-1.7 1.9-7.3 7.9-9.2 8.8-9.2 4-14.3-9-20 5-5.4 13.2-2.6 37.5 1.5 51.1.7 2.2 7.1 17.1 7.9 17.6ZM885 1559c-3.2-3.3-6.4 8.4-5.8 12.3.7 4.5 5.4 23.4 7 27 1 2.2 6.2 8.5 8.7 6.7 3.4-2.4 3.2-20.7 4-25.4-.5-3.1-8.3-6.1-11-10-2.3-3.5-2.6-10.1-3-10.5Zm269.1 45.9c2.7 1.5 7.8-5.3 8.8-7.5 1.7-3.8 6.1-21.6 6.9-26.2.8-5-.5-8.8-4.3-12.2l-5.1 10.9c-1.4 3.6-9.4 6.1-10.2 8.8-1.2 3.9.5 24.2 3.9 26.2M917 1563c-1.9-2.2-11.8 12.5-12.4 14.1-1.7 4.6-3 25.2-2.4 30.3.9 7.9 5.6 18 11.4 23.6 1.4-8.8 5-18.6 5.5-27.5.8-13.1-3.7-27.1-2-40.5Zm218 68c5.3-3.9 9.4-12.4 10.8-18.7 1.5-7 .8-27.4-1.2-34.3-.6-1.9-10.4-17.4-12.5-15 1.5 13.8-3.1 28-2 41.5.7 8.7 4.6 17.6 5.1 26.5zm-186-62c-2.4-2-8.2 6.4-9.4 8.1-7.7 11.1-15.4 39-8 50.8 2 3.2 16 15.2 19.5 16.5 5.6 2.2 6.5-1.9 7-6.9 2.4-23.1-3.5-46.4-9-68.5Zm151 0c-1.5 11-6.9 22.6-8 33.5-.9 9-2 26.3-1 35 .2 1.9 1.7 8 3.6 8.4 2.4.6 18.8-13.3 20.9-15.9 8.3-10.5 3.8-32.3-1-44-1.2-2.9-11-19.9-14.5-17m-82 44c-3.5 0-6.1 2.5-9.6 2.9-12.7 1.6-29.1-13.9-41.4-16.9v24.5c0 .6 3.2 8.2 4.1 8.9 6.5 5.2 18.9-.4 24.4 5.6 2.6 2.9 4.3 10.3 10.6 5.5 1.1-.8 11.9-13.1 11.9-14.1v-16.5Z" class="outline" data-original-prefix="outline"/><path id="outline-mouth2" fill="#000000" d="M1122 1332c-.2 0 .2 1.6 0 1.9-1 .8-8.1-5.8-10.2-7.1-10-6.1-19.8-8.3-31.2-9.8-2.9-.4-6.9.7-9.5-.5-1.5-.8-4.5-7.4-6.5-9.5-7.8-8.7-15.6-10.2-25.8-13-1.1-.3-.6-1.9-.7-2 3.1-3.8 16.2-9.3 20.8-9.8 7.9-.9 5.5 4.4 6.5 9.1 2.3 10.7 9.3 19.6 21.3 18.8 5.1-.3 5.6-4 7.9-4.1 1.4 0 6.6 2.9 8.2 3.8 9.4 5.2 15 12.5 19.3 22.2z" class="outline" data-original-prefix="outline"/><path id="outline-mouth1" fill="#000000" d="M1011 1292s.4 1.7-.7 2c-10.2 2.8-17.4 4.1-25.4 12.5-2 2.1-5.6 9.2-7.2 9.9-3.4 1.4-13.5 1-18.1 1.8-12.5 2.1-23.6 8.7-33.1 16.9.2-.9-.5-2.8-.5-3 .8-2.7 8.7-13.3 11-15.6 2.5-2.4 14.7-10.5 17.6-10.4 2.7 0 3 5.1 11.9 3.9 10-1.3 16.2-10.1 17.5-19.6.4-2.6-2.4-6.7 2.8-8.2 3.5-1 21.7 5.6 24.3 9.8Z" class="outline" data-original-prefix="outline"/>
    </g><g class="trait-group" data-category="eyes" id="eyes-Snake-Plissken">
      <path id="fill-eyes-main" fill="#ffffff" d="M1377.5 1237c8.3-.2 17.6 0 26.9-1 1.5-.2 3.1-.4 4.1 1.1.9 1.4-.3 2.5-1 3.6-4.9 8.2-10.2 16-18.8 21.2-5.4 3.3-11.1 3.3-16.8 3.6-12.8.8-25.6 1.2-38.4 1.5-4.2 0-6.7 1.7-8.1 5.8-5.7 16.5-15 31.1-23.9 45.8-5.1 8.4-12.8 14-22 17.2-41 14.1-82.7 18.2-125.3 7.9-8.7-2.1-15.3-7.7-22.1-13.1-16.1-12.9-27.8-29.7-40.3-45.8-1.3-1.7-2.2-3.7-5.1-3.1-1.7.3-2.9-1.4-4.2-2.4-18.3-14.4-37.6-27.7-52.7-45.8-2.5-2.9-9.8-2.8-12.3.2-15.3 18.2-34.8 31.4-53.1 46.1-2 1.6-3.7 1.8-6.3 1.2-7.6-1.7-15.2-1.9-23 .7-22.2 7.6-45 9.2-68.3 7.3-34.8-3-67.1-13.4-97.2-31.1-29.8-17.4-45.9-43.7-51.8-77.1-1.8-10.3-3.5-20.7-2.9-31.2.2-2.7-.7-4.2-3.1-5.5-13.1-7.2-25.9-14.8-39.7-20.6-6.3-2.7-7.3-6.5-3.3-11.9.5-.6.9-1.4 1-2.2 5.1-22.9 16.8-42.8 27.9-63 2.2-4.1 4.4-8.2 7-12 9.2-13.3 19.4-25.8 30.2-38 4.2-4.7 4.1-4.8-1.6-7-4.2-1.6-8.3-3.4-12.6-4.6-3-.8-3.2-2.3-2.6-4.7 2-9.4 8-16.6 13.1-24.3 1.1-1.6 2.2-.6 3.5-.3 6.9 1.9 13.4 5 19.5 8.5 3.6 2 5.7 1.4 8.5-1.5 38.7-40 83.9-70.6 135.2-92 26.3-11 53.8-18.3 82-21.5 27-3.1 54.1-3.1 81.2-.5 51.4 5.1 98.3 22.8 142.1 49.5 41.3 25.2 77.8 55.8 106.6 95.1 7.3 10 15.2 20 23.6 29 16.2 17.3 24.7 38.7 35 59.1 4 7.9 7.9 16.1 9.7 25 .5 2.7.8 5.3 2.3 7.9 1.9 3.1-.3 6.9-4.3 8.6-14.1 6-27.3 13.7-40.6 21.1-2.4 1.3-3.1 2.8-3.1 5.5-.2 7.2.9 13.5 4.8 20.2 7.2 12.2 6.5 26.1 4.9 39.8-.7 6.6-2.6 13-2.6 19.8s1.5 6.2 6 6.6c10.6 1 20.7 1.2 32 1.3" class="fill" data-original-prefix="fill"/><g id="fill-eyes-eyepatch" fill="#ffffff"><path id="fill-eyes3" fill="#ffffff" d="M1403.8 1239.8c-4.4 6.8-8.9 12.2-14.2 17-1.1 1-2.3 1.2-3.6 1.4-15.5 2.1-31.1 2.6-46.8 3.2-2.8 0-3.2-.9-2.2-3.2v-.5c1.5-4.9 1.5-11.4 4.8-14.4 3.3-3.1 9.6.2 14.6.2 15.6.4 31-1.4 47.3-3.7Z" class="fill" data-original-prefix="fill"/><path id="fill-eyes2" fill="#ffffff" d="M1256.1 1148c13.1-.2 29.9-.4 46.4 3.8 9.5 2.4 18 6.7 25.4 13.3 7.9 7 10.9 15.3 10.2 26.1-2.8 43.5-18.7 82.5-38.9 120.3-6.9 12.9-17.7 19.7-30.7 23.4-18.5 5.2-37.5 7.5-56.7 8-15 .4-30 .4-44.9-.9-8.7-.8-16.5-3.2-23.3-9.5-29.4-27.2-53.4-58.3-72.3-93.6-2.3-4.4-2.8-8.2-1.4-13.1 4.2-14.5 8.6-28.9 14.5-42.9 1-2.5 2.5-3.9 5.1-4.9 34.1-12.8 69.4-20.2 105.4-25.2 18.9-2.7 38.1-4.1 61.2-4.8" class="fill" data-original-prefix="fill"/><path id="fill-eyes1" fill="#ffffff" d="M1063.5 1196.9c-7.5-6.5-14.6-12.7-21.7-18.9-55.3-48.2-115.4-89.5-178.1-127.3-41.8-25.2-84.5-48.3-130.5-65.1l-4.2-1.5c-7.9-2.7-8-2.7-4-10.4 2-4 4.2-7.8 7.6-11 2.7-2.5 4.8-2.5 7.9-1.1 30.2 13.4 59 29.5 87.7 45.9 65.5 37.6 127.4 80.3 186 127.8 17.5 14.2 35.2 27.9 51.6 43.4 2.8 2.6 3.4 4.7 1.7 8.1-1.7 3-2.6 6.4-4 10.1" class="fill" data-original-prefix="fill"/></g><path id="shading-eyes3" fill="#aaaaaa" d="M1352.3 1255.9c-6.5-.4-6.6-.8-4.8-7.3 1.2-4.3 3.8-8.3 3.1-13.6-4.2 0-8.7-2.5-9.9 3.8-1.8 9.1-7.2 16.2-11.9 23.8-9.2 14.7-18 29.6-29 43-8.4 10.3-18.5 17.4-31.5 21.6-32.2 10.4-64.9 10.3-97.7 4.9-14.7-2.4-28.2-8.6-38.1-20.2-20.6-24-39.2-49.6-54.4-77.5-2.1-3.8-3.4-7.8-3.4-12.3.2-12.3.2-24.6-.2-36.9-.2-7 1.3-12.9 5.9-18.4 4.9-5.9 9.3-12.2 13.4-18.6 9.1-14.2 20.8-25.6 33.8-36.3 40.8-33.6 86.1-58.7 136.1-75.7 17.6-6 34.2-14.7 52.3-19.3 1-.2 1.9-.7 2.8-1.1 6.3-3.1 6.9-4.7 2.8-10.6-11.1-15.8-22.8-31.2-36.4-44.9-35.8-36-76.8-64.5-123-85.7-17.6-8.1-35.7-14.3-55.7-18.8 7.7 6.1 14.3 11.5 22.1 15.5 11.9 6.1 23.6 12.5 33.7 21.3 30.2 26.8 54.3 58.4 71.9 94.8 2.8 5.8 3.7 11.5 1.7 17.4-6.7 19.4-17.5 36.2-35.9 45.9-33.3 17.4-66.8 34.4-98.6 54.7-4.2 2.7-8.6 4.9-11.3 9.6-8.7 15.3-17.6 30.6-26.4 45.8-1 1.7-2.8 3.6-1.6 5.4 5.4 7.8-1.5 13.2-2.6 20-4.3-1.7-6.6-4.7-9.2-7.2-30.6-29.8-63.9-56.4-98.9-80.7-41.6-28.8-84.6-55.3-128.7-80.2-27.9-15.8-57-28.7-87.7-38-3.5-1.1-7-1.9-10.6-2.7-1.9-.4-3.2.8-3.8 2.5-.8 2.1.7 3 2.3 3.6 5.5 2.1 11 4.2 17.3 6.6-3.5 5-6.8 9.5-9.9 14.2-4.6 7-4 10 4 12.3 18.7 5.2 35.9 14 54.2 20 56.5 18.8 105.9 49.3 150.5 88.2 2.2 2 4.5 4.1 6.2 6.5 11.7 17 25.1 32.8 35 51 1.9 3.6 4.4 6.7 7.7 9 6.8 4.8 13.5 9.7 20.3 14.5 2 1.4 4.3 2.3 6.6 1.9 8.9-1.4 17.9 1.3 26.8-.9 2.1-.5 4-.9 5.4.8 3.3 3.9 8 5.6 11.8 8.7.4.4 0 1.9 0 2.9-.7 2.2-.7 4.7-2.8 6.5-2.5-.4-5.1-.7-7.7-1.4-6-1.8-11.8-3.9-18.1 0-1.9 1.2-5.8 1.3-7.7.2-7.7-4.6-14.7-1-22 .6-6.5 1.4-13.1 2.5-19.5 4.3-15.4 4.4-29.3 1.2-43.2-6-40.2-21-79.3-43.8-114.7-72.2-20.4-16.3-42-30.4-64.5-43.3-5.5-3.2-11.2-6-16.3-9.7-10.1-7.5-21.1-10.1-33.6-9.2-17.5 1.2-12.8-2.6-21.3 13.7-3.6 6.9-5.5 14.9-12.8 19.5 12.8 7 26.4 12.5 37.6 20.9 9.2 6.9 19 9.7 29.3 12.6 10.6 3 20.9 6.7 31.6 9.2 17.5 4.1 32.8 12.5 47.6 22.2 19.5 12.8 38.8 26.1 55.7 42.1 13.7 12.9 29.3 21.7 46.3 28.5 11 4.4 20.3 11.8 31.7 15.2 1 .3 1.2 1.2 1.7 2 3.7 6.9 5.8 7.7 11.5 3.3 17-13.3 34.9-25.7 49.3-42.1 6.6-7.5 11.4-7.3 18.1 0 10.1 11.1 21.3 21 33.4 30 18.5 13.7 35.6 29.1 49.5 47.6 15.8 21 36.4 31.9 62.7 33.6 20.8 1.3 41.2-.5 61.6-3.3 13.2-1.8 26.3-3.7 38.8-8.7 7.2-2.9 14.4-6.3 18.7-12.8 9.6-14.3 19.3-28.7 25-45.1 2.5-7 5.6-11.3 13.8-11.4 4.2 0 8.5-.7 12.8-.8 9.6-.2 19.3 0 28.9-.8 8.1-.6 9.8-2.2 13.1-9.3-13.7 2-27.3 1.9-40.9.9Z" class="outline shading" data-original-prefix="shading" opacity="0.5" style="opacity: 0.5"/><path id="shading-eyes2" fill="#aaaaaa" d="M814 993.7c-17.4-9.5-34.3-19.1-53.2-28 52-52.6 111.1-90.8 182.2-109.2-5.9 5.8-12.2 10.9-19.6 14.5-21.8 10.7-40.6 25.2-56.6 43.5-19.8 22.7-37.6 46.6-50 74.2-.8 1.4-1.7 2.8-2.8 5" class="outline shading" data-original-prefix="shading" opacity="0.5" style="opacity: 0.5"/><path id="shading-eyes1" fill="#aaaaaa" d="M1377.3 1121.9c-10.6 5.6-20.6 10.7-30.4 16.2-4.8 2.7-9.9 4.6-13.5 9.6-2.3 3.2-7.4 4.7-11.8 2.4-19.4-10.4-40.3-9.7-61.3-8.2-6 .4-11.9.7-17.9 1-1.3-3.5 1.8-4 3.3-5.3 5.4-5 11.7-8.7 18-12.4 17.7-10.5 35.5-20.9 53-31.6 5.6-3.4 11.2-5.4 17.8-4.7 7.5.8 16.3-2.4 22.4 1.6 5.8 3.8 7 12.5 10.5 18.9 2.5 4.6 4.2 9.8 9.9 12.5" class="outline shading" data-original-prefix="shading" opacity="0.5" style="opacity: 0.5"/><path id="outline-eyes3" fill="#000000" d="M1352.8 1134.8c-.3-2.3 1.7-2.6 3-3.4 5.1-3.1 10.5-5.7 16.2-7.6 3.5-1.2 4.6-2.9 4.6-6.9 0-11.5-5.6-21.2-9.9-31.2-8.4-19.4-19-37.8-30.2-55.7-1.7-2.7-3.8-3.4-6.6-3.4-20 0-39.9.7-59.1 7.2-1.8.6-3.7 1.7-5.8 1.2 0-1.6 1.6-2.1 2.6-2.8 11.2-8.4 22.5-16.6 35.2-22.7 4-1.9 4.7-4.3 3.3-8.2-3.6-9.8-8.9-18.5-15.9-26.2-24.4-26.8-53.9-47.2-83.2-68.2-40.3-28.8-86-43-133.7-51.1-21.9-3.7-44.8-4.6-67.2-2.2-11.7 1.3-23.7 0-35.3 2.5-27.6 5.8-55 12.7-81.2 23.3-19.3 7.8-36.4 19.8-53.7 31.3C814 925.3 793 941 773.7 959c-1.6 1.5-3.2 2.9-4.6 4.1 108.1 59.3 210.9 125.5 304.5 206.4 3.3-8.1 6.6-16 9.6-24 3.8-10 8.8-19.3 14.3-28.5 1.7-2.8 4-4.8 6.9-6.3 28-14.5 55.8-29.3 84.5-42.5 1.3-.6 2.5-1.9 4.3-.8-.3 2.3-2.4 2.9-4 3.9-28.9 18.5-56.7 38.6-82.5 61.3-1.5 1.3-3 2.7-4.1 4.3-6.7 9.6-13.4 19.4-20.1 29.1 1.7 1 2.8 0 4-.4 32.5-11.8 66.1-18.8 100.4-22.5 31.8-3.4 63.6-6.7 95.6-6.4 13.5 0 27 1 39.3 7.6 1.5.8 2.8.5 4.3.2 4.9-1 9.8-1.8 14.7-2.6 3.6 4.2 1.8 9.6 2.9 14.4 1.5 6.4 2.3 13.1 4.3 19.4.5 1.7.4 3.2.2 4.9-.2 1.3 0 3.1 1.5 3.3 4.5.5 3.4 3.6 2.6 5.9-4.2 12.1-3.1 25.1-6.4 37.3-.7 2.5.2 3.1 2.6 3.2 19.1 1.1 38.2 2.2 57.3-.7 3.8-.6 6.8 1.3 9 4.2 2.1 2.8 1.7 5.7 0 8.4-6 9.9-13.8 18.3-22.8 25.7-6.1 5-13.8 3.2-20.7 3.8-10.8.8-21.7.6-32.5.3-4.7-.2-6.8 1.4-8.2 5.8-5.2 16.2-14.3 30.4-23.1 44.7-7.3 11.9-18.7 18.3-32.1 22.1-24 6.8-48.3 11.3-73.2 11.2-18.1 0-36.2-1.9-53.8-6.7-8.4-2.3-14.7-8.3-21.3-13.6-15.7-12.7-27-29.3-39.5-44.8-1.3-1.6-2.3-3.4-3.9-4.5-5.9-4.4-7.9-11.7-12.6-16.9.8-2-.9-3.1-1.7-4.4-4.6-6.9-9.1-13.9-13.3-21.1-2.1-3.6-2.6-7.2-1.8-11 1-5.2 2-10.5 3.5-15.6 1.1-3.8 0-6-2.7-8.6-20.2-18.3-41-36-62.2-53.3-11-9-22.2-17.9-33.3-26.8-.4.2-.8.3-1.2.5.2 0 .7 1.7 1.1 2.5 7.3 14.5 12.7 29.8 18.5 45 .6 1.6 1.8 3.3.9 5.2h.2c-10.7-11.5-19.8-24.2-28.2-37.4-2.5-3.9-4.9-8-8.5-11.1-17.7-15.4-36.2-29.9-55.2-43.6-10.1-7.2-20.5-14.1-31-20.7.2-.5.5-1 .7-1.5 12.2 5.7 24.5 11.5 36.7 17.2.2-.4.4-.8.7-1.2-4.1-2.9-8.3-5.7-12.3-8.7-41.7-30.9-87.3-54.5-135.3-73.7-1.5-.6-3.3-2.5-4.5.4-.9 2.2-1.9 4.4.6 6.3.8.6 1.6 1.2 2.5 1.6 13.1 6.4 24.6 15.1 36.2 23.8.6.5 1.8.7 1.4 2-1.3.4-2.3-.2-3.4-.6-19.4-6.8-39.6-7.7-59.9-7.8-3.5 0-5.7 1.3-7.6 4.4-12.4 20.1-23.9 40.7-33 62.6-3.2 7.8-6.1 15.4-6.5 23.9 0 3.2.6 4.9 3.7 6 6.1 2.1 12 5 17.6 8.2 1.8 1 2.8 2.2 2.6 4.2-.5 4.4-1 8.9-1.6 13.3-.6 4.2-3.1 5.2-6.8 3.6-8.4-3.7-16.8-7.3-25.8-9.1-2.9-.6-5.9-.8-8.8-1.4-5.5-1-8-4-8-9.6 0-9.1 2.3-17.8 4.5-26.5 8.1-32.9 20.5-64 40.5-91.7 4.9-6.8 9.1-14.3 16.3-19.3 2.8-1.9 5.1-3.8 8.5-1.6 1.2.8 2.5.9 3.3-.8 1-2-.7-2.3-1.8-2.7-4.7-1.6-5.5-4.5-4.6-9.3 2.3-11.9 9.4-21.2 16-30.7 1.7-2.4 4.1-3.1 7-1.6 2.4 1.2 5 1.8 7.4 2.9 8.8 4.1 6.6 4.4 14.1-3 34.6-34 73.4-62 117.2-83 25.1-12.1 51.9-18.7 79.2-23.2 21.8-3.5 43.9-5.4 66-5 15.1.3 30.2-.4 45.3 1 24.9 2.3 49.4 6.3 73.4 13.2 26.4 7.7 50.7 19.9 74.1 34.2 30.9 18.9 59.1 41.5 84.5 67.4 12 12.2 22.9 25.4 33.2 39.2 1.2 1.7 2.2 2.3 4 1.2 3.6-2.1 6.3 0 9.1 1.8 8.4 5.7 13.1 14.5 18.6 22.5 22.8 32.9 35.3 69.9 42.5 108.9.4 2.4.4 5 0 7.5-.6 5-3.5 8-9 8.3-11.9.7-22.6 5.1-33.3 9.7-5.1 2.2-6 1.6-7.3-4-1.2-4.5-1.2-9-1.4-13.4Zm-96.7 13.2c-23.1.6-42.3 2.1-61.4 4.7-36 5-71.3 12.4-105.4 25.2-2.6 1-4 2.4-5.1 4.9-5.8 14-10.3 28.4-14.5 42.9-1.4 4.9-.9 8.7 1.4 13.1 18.9 35.2 42.9 66.4 72.3 93.6 6.9 6.3 14.6 8.8 23.3 9.5 14.9 1.3 30 1.3 44.9.9 19.2-.5 38.2-2.7 56.7-8 13.1-3.7 23.8-10.5 30.7-23.4 20.3-37.8 36.1-76.8 38.9-120.3.7-10.8-2.3-19.1-10.2-26.1-7.4-6.6-15.9-10.8-25.4-13.3-16.3-4.1-33.1-3.9-46.2-3.7m-192.6 48.9c1.4-3.7 2.4-7.1 4-10.1 1.8-3.4 1.1-5.5-1.7-8.1-16.4-15.4-34.1-29.2-51.6-43.4-58.6-47.6-120.6-90.3-186-127.8-28.6-16.4-57.5-32.5-87.7-45.9-3.1-1.4-5.2-1.3-7.9 1.1-3.4 3.2-5.6 7-7.6 11q-3.9 7.7 4 10.4l4.2 1.5c45.9 16.8 88.7 39.9 130.5 65.1 62.7 37.8 122.8 79.1 178.1 127.3 7.1 6.2 14.2 12.4 21.7 18.9m340.4 42.9c-16.4 2.3-31.7 4-47.2 3.8-5 0-11.3-3.3-14.6-.2-3.2 3-3.3 9.4-4.8 14.4v.5c-1 2.2-.6 3.3 2.2 3.2 15.6-.7 31.2-1.1 46.8-3.2 1.3-.2 2.6-.4 3.6-1.4 5.1-4.9 9.7-10.3 14.1-17.1Z" class="outline" data-original-prefix="outline"/><path id="outline-eyes2" fill="#000000" d="M707 1141.9c12.4.7 24.2 4.5 35.8 8.5 15.4 5.2 31 10.4 45.9 16.9 16 7 30.7 16.8 44.7 27.3 14 10.4 27.7 21.3 41.3 32.4 7.8 6.4 16.4 11.5 25.5 15.7 7.7 3.6 16.4 3.8 24.7 5.5 8.9 1.8 17.8 1.3 26.6-1.3 12.8-3.7 25.6-7.2 38-12.2.9-.4 1.8-.9 3.8 0-5.6 3.6-10.1 7.7-14.7 11.6-6.3 5.4-10.4 11.7-9 20.4.4 2.7.8 5.3 3.2 7 .9 1.8.8 3.2-.8 4.8-4 3.8-7.5 8-11.6 11.6-4.4 3.8-10.3 3.2-15.6 3.8-1.6.2-1.9-1-1.3-2.4.3-.6.5-1.2.8-1.8.8-1.6 1.4-3.5.2-4.7-1.6-1.5-3.4 0-4.9.9-7.2 3.9-13.7 8.8-20 14-2.3 1.9-5 3.6-6.7 5.9-7.3 10-17.9 11-28.9 11.3-25.1.6-50.2 0-75-4.9-2.2-.4-4.2-1.2-6.1-2.1-11.8-5.5-23.7-11.1-35.3-17.2 14.2-.9 28.1.2 41.6 5.3-9.3-5.7-19.6-8.1-30-10.2-9.1-1.8-18.4-2.6-27.2-5.8-3.4-1.2-6.1-3.1-8.5-5.8-7.3-8.4-15.7-15.8-23.2-24.1-6.6-7.3-10.3-15.8-13-25-3.3-11.3-6.5-22.7-9.6-34.1-.8-2.9-2.5-7.2.3-8.6 3-1.4 3.9 3.2 5.6 5.3 1.9 2.2 3.3 4.8 5.5 6.9-.7-4.9-2.5-9.3-5.5-13.2-2.6-3.4-3.3-6.5-1.9-10.9 3.4-10 4.3-20.4 5.3-30.8" class="outline" data-original-prefix="outline"/><path id="outline-eyes1" fill="#000000" d="M997.4 1255c.9-5.1 4.8-8.2 7.7-12 5.6-7.6 9.7-15.8 11.9-25.1.9-3.7 1.2-7.4.2-12.1 5 3 9.5 3.2 14.1 0-1 12.9 3.4 23.5 9.9 33.3 2.3 3.5 4.9 6.8 7.6 9.9 1.5 1.8 2 3.7 1.8 5.9-4.1 3.9-6.8 1.7-10.3-1.5-5-4.5-10-8.7-13-14.8-1.4-2.9-4.4-3-5.3-.5-3.2 8.9-12.2 12.4-17.2 19.5-1.2 1.8-1.9 0-2.7-.5-1.5-1.1-2.4-3.1-4.7-2.2Z" class="outline" data-original-prefix="outline"/>
    </g><g class="trait-group" data-category="right ear" id="right ear-hi-tek">
      <path id="fill-ear-rt" fill="#ffffff" d="M1715.7 184.2c3.2-.7 6.5-.5 7.2 3.3 2.3 39.5-3.6 77.2-9 116-.7 4.7-.2 11.1-1.1 15.9-5 26.9-24.5 58.9-29.7 86.3-5.7 30.4-4.7 64.8-10.9 95.1-7.8 38.3-25.1 77.8-33.7 116.4l-71.9 122.1c-45.8 31.3-94.9 58.3-141.8 88.2l-35 81-84.6 77.3c-5.6 2.9-16.3-.8-22.4-2.4-27.7-7.2-48.3-18.1-70.9-35.1-16.5-12.5-27.2-20.9-37.6-39.4-6-10.5-10.9-22.9-14.5-34.5 26.8-59.3 58.7-116.4 86.8-175.2 4.9-58.7 6.7-117.8 11.4-176.5 36.5-47.5 77-92.5 114.8-139.2 47.2-35.9 96.4-69 144.9-103.1 66.1-31.9 127.9-72.1 197.8-96.2z" class="fill" data-original-prefix="fill"/><path id="shading-ear-rt" fill="#aaaaaa" d="M1670.9 280.1c2.8 3.9-18.7 26.3-21.9 30.5-38.8 50.2-75.5 128.6-72.1 193 .8 14.1 7.3 33 2.8 45.7-3.7 10.4-14 27.3-15.4 37.7-.4 2.9.9 5.2.6 8 10-1.2 15.8-10.8 21.2-18.3 17.3-24.1 30.1-53.1 43.5-79.5 1.1-2.2 1.5-2.2 1.2.2-.8 9.2-6.8 26.8-9.7 36.3-15.4 50.2-37.8 100.7-66.2 144.8-15.3 23.7-22.2 32.4-46.1 47.9-25.3 16.4-36 17.1-63.9 25.1-14.1 4.1-56 16.5-65.5 25.5-11.9 11.1-30.7 52.3-40.3 68.7-13.5 23-27.7 45.9-43.8 67.2-3.6 4.8-10.5 10.9-13.3 15.7-5.6 10-6.8 27-11.1 37.9 7.3-4.2 14.2-10.7 20.5-16.5 12.8-11.9 26.4-25.8 38.5-38.5 12.3-12.9 33.6-33.7 41.2-48.8 7.8-15.6 13.6-33 21.3-48.7 14.9-4.8 30.4-7.3 45.1-12.9 49.9-18.9 92.7-57.3 134-90 1.4-.3 1.9 0 1.5 1.5-.9 3.2-10.1 20.8-12.2 23.8-4.2 6-36.3 28.6-44.5 34.5-29 20.7-59.7 39.2-87.9 61.1-15.7 27-28.8 55.8-43.5 83.5l-80 71c-6.2 2.7-28.5-4.8-35.8-7.2-32.1-10.8-54.1-27.3-79.9-48.6-8.9-15.6-7.9-22.5 2.7-36.2 24.9-31.8 50.6-57.8 73.4-92.6 33.1-50.5 54.8-106.4 86.2-157.8 11.1-18.2 27.9-36.1 31.3-57.7 1.4-9.1 1-19.2 1.1-28.4l54 6.5c10.6 14.3 17.8 31 26.5 46.5.8-.4 10.6-11.5 11.3-12.7 4.2-7.8 8.8-30.6 10.8-40.2 5-24.6 7-49.5 8.5-74.5 1.9-20.4-5.1-39.9 3.1-58.9 17.4-40.4 50.1-78.2 81-109l66.7-44.4c3.2-.7 24.4 7.8 25.2 8.9Z" class="outline shading" data-original-prefix="shading" opacity="0.5" style="opacity: 0.5"/><path id="fill-led-rt7" fill="#ffffff" d="M1379.7 841.5c9.8-2 9.4 10.6 2.5 11.7s-9.5-10.3-2.5-11.7" class="fill" data-original-prefix="fill"/><path id="fill-led-rt6" fill="#ffffff" d="M1568.2 520.6c6.2-6.2 14.8 6.6 6.7 10.2-6.8 3.1-10.5-6.5-6.7-10.2" class="fill" data-original-prefix="fill"/><path id="fill-led-rt5" fill="#ffffff" d="M1643.2 431.6c6.2-6.2 14.8 6.6 6.7 10.2-6.8 3.1-10.5-6.5-6.7-10.2" class="fill" data-original-prefix="fill"/><path id="fill-led-rt4" fill="#ffffff" d="M1661.2 292.6c6.2-6.2 14.8 6.6 6.7 10.2-6.8 3.1-10.5-6.5-6.7-10.2" class="fill" data-original-prefix="fill"/><path id="fill-led-rt3" fill="#ffffff" d="M1490.2 709.6c6.2-6.2 14.8 6.6 6.7 10.2-6.8 3.1-10.5-6.5-6.7-10.2" class="fill" data-original-prefix="fill"/><path id="fill-led-rt2" fill="#ffffff" d="M1534.2 714.6c6.2-6.2 14.8 6.6 6.7 10.2-6.8 3.1-10.5-6.5-6.7-10.2" class="fill" data-original-prefix="fill"/><path id="fill-led-rt1" fill="#ffffff" d="M1291.2 919.6c6.2-6.2 14.8 6.6 6.7 10.2-6.8 3.1-10.5-6.5-6.7-10.2" class="fill" data-original-prefix="fill"/><path id="outline-ear-rt" fill="#000000" d="M1204 941c-4.5 0-9.7-3.5-13.7-5.8-21-12.1-28.2-34.8-42.8-53.2-1-3-.7-7.3-.5-10.5.9-20.4 12.5-34.1 20.8-52.2 6.3-13.5 12.6-35.7 19.9-47 3.2-4.9 8.4-9.8 12-15 29.7-42.8 37.8-119.3 42.2-170.8 1.8-21.4.9-43.9 3-65 .7-7 2.4-6.2 5.4-10.6 32.8-49.2 70.5-98.1 110.1-141.9 15.2-16.8 35.5-40.7 53.2-53.8 75.7-56 176.2-104.8 265.5-134.5 11.3-3.8 35.2-11.4 46.3-11.8 6.6-.2 6.4 4.6 7.8 10.2 7.4 30.6 1.8 91.4-1.3 124.3-.9 10.1-2.9 30.7-6.5 39.5-3.4 8.2-15.5 18.8-20 29-10.5 24-19.4 81.7-16.4 107.4.7 6.4 5.6 12.8 5.8 18.2.5 10.6-11.8 51.9-15.7 64.1-34.4 108.7-95.1 199.9-195.6 256.4-8.1 4.5-17.4 8-25.3 12.7-24.6 14.5-38.5 54.9-48.8 80.2-6.1 15-20.3 21.1-32 31-17.2 14.7-33 33.7-50 49-1.8 1-18.8 4.6-21.3 4.7-8.4.3-53.6-17-61.2-22.3-1.6-1.1-2.9-2.4-3-4.5 2.6 1 5.6.7 8 1.5 24.7 8.1 35.8 10.4 59.6-2.3 45.3-24.1 94-80.7 105.9-131.1.8-3.3-.3-6.6 1.4-9.6 1.9-3.3 32.1-21.9 37.7-25.3 8.6-5.2 17.9-9.2 26.3-14.7l-23.7-15.8c-1.9-3.8-3.4-8.3-1.5-12.5l21-32c1-4-2.6-7.8-2.7-11.8 0-3.5 2.1-7 2.4-10.4-5.6 4.3-51.8 33.5-54.5 31 3.1-7 7-13.6 9.8-20.7 2-5.1 7.2-20.1 7.2-24.8v-18.5l-80.6 123c-1.5 5.3 16.7 8.3 15.2 17.1l-35.4 55.5c0 1 13.3 9.5 14.3 9.5 1.8 0 12.1-16 12.3-17.7s-3.6-7.3-3.7-10.9c-.2-8.1 6.3-17 14.5-18.3 23.2-3.7 30.2 26.9 10.4 34.4-3.6 1.4-9.5 1.1-11 2-2.6 1.5-10.1 17.6-13.6 21.4-9.3 10.2-21.5-8.1-31.3-8.8l-21.7 33.9c.5 4.4 3.3 7.5 3.2 12.3-.3 14-17 23-28.7 14.2-16.3-12.4-4.6-35.5 14.8-32.7l61.1-93.5-38.2-25.2c-1.9.5-13.6 19.4-15.5 22.6-17.7 29.5-52.9 90-56.2 122.8-1.1 10.9 1.2 18.6 5 28.5-2.1 2.1-27.1-18.8-28.5-22-1.7-3.9.9-16.6 1.5-21.5.3-2.6-.3-5.5 0-8 .7-5.7 15.1-22.6 19.2-28.8 39.8-58.7 57.4-124.9 103.3-180.7 9.5-11.5 17.8-22.7 23.2-36.8 6.8-17.8 18-69.8 15-87.5-.7-3.8-10.8-27.6-9.8-28.7 13.4 6.1 26.7 13.4 39.3 21.2 4 2.5 14.9 8.6 17.2 11.8 3.4 4.9 10.1 27.9 12 35 2.4 8.5 6.3 34.7 11.4 39.5 12.6 11.9 29.7-12.1 35.2-21.9 27-47.4 34.2-98.4 26.7-152-1.2-8.6-7.3-28.6-6.7-35.9.3-3.3 6.8-17.2 8.6-21.4 21.8-50.7 47.9-79.6 86.7-117.4 10.1-9.9 24.6-25.8 35.1-34 6.8-5.3 15.4-7.7 22.4-12.6 6.3-4.4 20.5-19.4 27.6-20.4 1.5-.2 1.8 0 1.5 1.5l-24 39.1c-.6 1.7 3.6 2.7 5.4 4.6 12.7 13.2.3 33.6-17.2 31.1l-67.1 103.3 12.9 8c6.5-7.2 34.6-57.4 39.9-59.1 8.6-2.8 24.4 13.7 32.3 16.8 1 .4 1.6 1.3 2.8.3 1.2-.9 6.4-23.5 7.7-27.3 4.9-14.6 11.8-23.9 18.1-36.9 5.8-11.9 9.2-43.6 11-58 3-24.6 4.6-49.6 2.1-74.4-1.9-2-45.9 15.8-51.3 18.1-72.5 32.1-155 81.6-220.4 126.6-53.3 36.7-89.9 73.5-130.2 123.8-13.1 16.4-31.1 37.5-42.5 54.5-13.7 20.4-13.2 63.6-15.6 88.4-3.2 33-4.2 70.9-9.1 102.9-2.9 18.7-26.7 65.7-36 85-6.8 14.1-16.8 28.5-23.1 42-6.3 13.7-9 29.6-15.7 43.3-3.2 23.4 13.4 51.1 28.9 67.4zm455.2-647.8c-3.7 3.7 0 13.3 6.7 10.2 8.1-3.6-.6-16.4-6.7-10.2M1646 299c-1.5-1.6-11.3 7.1-13 8.5-8.7 7.2-18.9 17.1-26.5 25.5-3.3 3.7-18.8 22-18.6 25.5 0 1 .4 1.4 1.1 2 .7.7 15.7 9.1 17.3 9.7 5 1.9 3.1 0 5.3-3.2 12.7-18.5 24.4-37.6 37-56.1 1.4-3.6-3.9-7.5-2.5-11.9zm-44 82c-5-.8-18.4-11.9-22.3-11.1-3.2.7-22.3 42.9-24.4 48.9-11.4 33.4-17.4 78.1-3.3 111.2l1.5-10c4.9-14.2 23.6-16.4 31.9-3.9 3.6 5.4 1.5 10.7 3.5 13.5 1.8 2.5 11.4 7.1 14.4 9.3 1.2-.2 13.1-18.3 13.9-20.2.3-.9 1.1-1.6.3-2.7l-46.1-31c-.4-.8-.6-1.6-.6-2.5-.3-6.8 23.6-35.7 26.9-44-3.8-5.1-19.8-10.5-19.9-17s25.5-38.6 24.1-40.5Zm35 224c8.9-26.3 18-52.9 24.5-80 7.8-32.4 4.9-57.7 8.5-89.5 1.3-11.8 4.9-23.4 7-35l-1-2-25.7-16.4-46.4 70.4c.2 2 7.5 6.3 9.6 7.5 1.6.9 6.1 4.3 7.5 3.6.8-.5 9.7-14.3 9.8-15.2.2-1.6-3.3-7.1-3.4-11-.2-9 7.1-17.6 16.1-18.4 22.1-1.9 28.3 30.3 4.8 35.8-2.3.5-5.4-.4-7.3.7-3.3 1.9-11 19.8-15.2 21.8-8.2 3.9-21.8-10.9-29.3-14.2-1 0-10.5 15.5-10.5 16.5 0 3.9 43.7 26.4 45.6 32.4.7 2.3.9 4.8 0 7-12.3 19.5-26.1 38.3-37.3 58.4l42.8 27.6Zm4.2-172.8c-3.7 3.7 0 13.3 6.7 10.2 8.1-3.6-.6-16.4-6.7-10.2m-75 89c-3.7 3.7 0 13.3 6.7 10.2 8.1-3.7-.6-16.4-6.7-10.2m-9.5 17.9c-1.4.4-9.6 12.7-11.1 15-12.4 19.2-20.1 40.6-26.6 62.4-1.2 4-7.8 25.4-6.5 27.5.5.8 14.3 9.8 15.2 9.9l69.3-104.4c0-.9-13.7-9.2-14.6-9.3-2-.2-7.3 3.8-11.8 3.9-5.4 0-12.7-5.3-13.8-5Zm-88.6 225.8c7.4 2.3 16.6 12.2 22.9 14.6 5.1 1.9 15.1-6.1 19.7-9.2 41.3-28.2 86.8-87.4 110.4-131.5 2.4-4.4 8.2-14.5 9.4-18.7.4-1.4.9-2.7 0-4l-43.9-27.9c-1.2.3-12 17.3-11.7 19.3l25.6 16.6c4.8 4.8 1.6 9.2-1.1 13.9-5.6 10-47.6 69.1-47.2 73.4.4 3.8 2.5 6.3 1.8 12.2-1.8 14.7-22.8 19.5-32 7-10.6-14.4 4.1-33.4 20.9-27.6 14.5-24.4 31.9-47.3 45.7-72l-21.1-13.9c-8.2 8.4-25.9 45.5-34.1 49.8s-16.5-7.9-24.4-9.9c-1.9 8-2.3 16.5-5 24.3-2.8 2-16 12.7-16.1 15.2 30.2-1 29.4 38.8-.8 36.7-4.2 9.5-14.9 19.7-18.7 28.8-.4.9-1 1.9-.4 2.8Zm-60.4-144.7c-1.4.3-2.1.9-3.1 1.9-8.3 7.8-18 49.2-19.4 61.6-.6 5-.2 21.1-1.7 24.3-1.2 2.6-13 12.6-16 16-10.2 11.5-21.5 26-30.3 38.7-1.4 2-9 12.8-9.1 14 0 1.5.8 1.5 1.5 2.2 1.3 1.2 15 9.8 16.1 10 1.2.2 2 .2 2.8-.9l87.3-133.8c1.1-4.5-10.3-23.8-13.8-27.7-3.7-4.1-8.4-7.7-14.3-6.3m80.5 90c-3.7 3.7 0 13.3 6.7 10.2 8.1-3.7-.6-16.4-6.7-10.2m44 5c-3.7 3.7 0 13.3 6.7 10.2 8.1-3.7-.6-16.4-6.7-10.2m-154.4 127c-6.9 1.4-4.1 12.7 2.5 11.7 6.7-1 7.3-13.6-2.5-11.7m-88.6 78c-3.7 3.7 0 13.3 6.7 10.2 8.1-3.7-.6-16.4-6.7-10.2" class="outline" data-original-prefix="outline"/>
    </g><g class="trait-group" data-category="left ear" id="left ear-safety pins">
      <path id="fill-ear-lft1" fill="#ffffff" d="M842 941c-10.4 9.8-22.1 17.8-34.1 25.4-1.2.8-2.9.9-3.5 2.5-1 .2-2 .2-2.9.5-8.9 2.6-17.5 6.5-26.8 7.1-7.3.5-14.6 1.5-21.8-1-16.3-5.7-30-15.7-43.8-25.6-2.7-1.9-6.4-3.5-7.2-6.6-.5-1.9 2.2-4.6 3.4-6.9.3-.6.6-1.2.8-1.8 4.6-15.3 4.8-30.8 1.4-46.3-1.2-5.4-5.3-9.5-10.7-9.8-15.5-.8-31.1-1.1-42.6 12.5-.5-.8-1-1.5-1.4-2.2-9.2-17-16.3-35-22.9-53.2-.3-.8-.8-1.8-.5-2.4 1.9-4.3-1-6.6-3.8-8.7s-5.7-4-8.7-5.9c-20.3-13.1-41.3-25.1-62.5-36.6-20-10.9-37.7-25-53.9-41-7.6-7.5-14.3-15.8-21.1-24-37-44.3-67.3-92.3-82.7-148.6-.7-2.6-1.3-5-.4-7.8 5.2-15.6 10.7-31.1 16.4-46.4 8.3-22.2 18.1-43.9 24.5-66.8 1.9-6.7 3.3-13.5 1.8-20.7-2.5-12.3-14.5-18.1-25.6-12.1-6.6 3.6-10.6 9.5-13.7 16.1-5.6 12.1-9.3 24.9-13.9 37.3l-6.9 18.9c-1.1-1.8-1.1-3.4-1.1-5-.3-27.4-2.2-54.5-8.7-81.3-6.9-28-13.1-56.2-29.7-80.6-1.2-1.7-1.9-3.9-2.3-6-4.9-28.2-10-56.4-11.1-85.1-.6-13.6-.4-27.2.8-41.1 16.5 5.5 32.7 10.9 48.1 17.8 42.4 19.1 83.1 41.5 123.3 64.7 25.1 14.5 49.3 30.4 73.9 45.8 48.7 30.7 93.8 65.7 131.2 110 23.4 27.8 44.7 57.2 67.6 85.4 3.6 4.4 5.6 9.7 7.2 15.2 5.9 20.2 5.9 41.1 8.1 61.7 3.3 30.5 5.7 61 7.9 91.6 1.1 15.9 1.9 31.9 10 46.5 3.6 6.5 6.6 13.5 9.6 20.3 10.8 24.5 21.4 49.2 35.1 72.3 4.8 8.1 8.5 16.5 11.4 25.4 1.6 4.9 3.7 9.6 5.4 14.5 1.9 5.5 5 10.5 5.5 16.5 1 13.1-2.8 25-8.8 36.4-5.5 10.5-12.7 19.7-20.4 28.7v.4zM351.4 240.4c-.5 1.3.6 2.1 1.2 3 6.5 8.9 11.8 18.6 16.6 28.4 3 6.2 7.6 10.3 13.2 13.8 36.4 22.5 65.2 52.4 87.2 89.1 22.4 37.4 34 77.6 32.6 121.3-.4 13.4-3.3 26.5-10.8 38-1.9 2.9-2 4.5 0 7.3 10.9 14.8 20.3 30.4 26.6 47.9 9.5 26.7 16.9 54 21.6 82 .9 5.5 2.7 9.7 7.1 14 21.5 21 46.8 36.2 73.2 49.9 1.2.6 2.4 1.9 4.3.8-1.1-1.9-2.2-3.7-3.2-5.6-9.6-17.9-15.2-36.8-14.5-57.4.6-16.9 6.8-31.4 16.6-44.6 2.3-3.1 5.2-5.7 8.7-7.3 3.9-1.8 7.3-1.4 10.1 2.2 2.7 3.5 4.6 7.3 6.1 11.4 8.1 22.5 13.9 45.5 13.6 69.7 0 2.1.2 3.8 2 5.3 8.4 7 15.3 15.3 22.2 23.7 34.9 42.4 62.9 89.2 88.1 137.8 9.8 19 18.3 38.5 22.4 59.6 1.5 7.8 1.7 15.4-1.2 23.1-1 2.7-3.5 5.2-3.1 9.4 11-6.9 20.6-14.2 28.5-23.8 1.2-1.4.4-2.9.3-4.3-.5-6.8-1.4-13.6-1.7-20.4-.2-4.7-1.5-8.6-4.4-12.4-17.9-22.9-33.3-47.3-45.8-73.7-15.4-32.6-30.1-65.7-49.7-96.2-7.1-11.1-13.6-22.4-23-31.8-9.9-9.9-17.7-21.8-22.6-35.1-8.4-23-12.4-47-15.2-71.1-1.1-9.7-.6-19.1 3.6-28.3 2.5-5.6 3.9-11.7 6.9-18.8-19.7 10.5-37.8 20.3-54.8 32-1.9 1.3-3.4 3-4.1 5.4-5 16.4-11.1 32.4-14.6 49.2-1.1 5.2-2.1 10.5-3.6 15.6-2.9 9.4-10.4 12.1-18.8 7.2-5.3-3.1-9.4-7.3-13.1-12.1-7-9.1-11.4-19.5-16.2-29.8-14.1-30.5-21.5-62.4-20.3-96.3.7-21.7 3.7-43.1 8.1-64.2 1.2-5.7.6-10.5-1.6-15.8-14.3-34.9-31.6-67.9-57.4-95.9-21.1-23-44.9-43.2-66.6-65.6-3.9-4-8.3-7.1-13.3-9.5-6.1-2.9-12.5-5.6-17.3-10.8-5.9-6.3-13-10.8-20.3-15.3-1-.6-2-2-3.6-.8zm369 559.9c-1.7-20.7-11.8-38.1-31.2-49.2-20.9-12-47-1.6-55 21.2-11.1 31.5 11.5 65.7 44.7 67.5 25.2 1.4 39.9-18.9 41.5-39.5m-228.6-88.9c1.3 14.6 5.3 29.9 23.2 37.1 14.3 5.7 27.3 3.4 34.6-7.1 6.1-8.7 8.5-19 7.8-29.3-1.2-18-17.8-31.1-37.7-31.1s-28.1 11.4-28 30.5h.1Z" class="fill" data-original-prefix="fill"/><path id="fill-ear-lft-ring" fill="#ffffff" d="M618.1 994.2c-2.7 0-5.3-.2-7.9-1.1-11.2-4-21.3-10.1-30.1-18.1-4.2-3.9-6.4-8.6-5-14.8 2.7-12 4.3-24.2 7.9-36 3.3-10.8 8.7-20.4 17.2-28.2 6.6-6.1 13.1-12.4 19.4-18.7 1.8-1.8 2.6-2.3 4.1.4 6 10.9 6.6 11.3-2.3 20.1-11.5 11.4-18 24.9-20.4 40.6-.8 5.4 2.7 10.5 8.6 13.7 4.6 2.4 9.9 2 13.9-1.7 3.9-3.6 7.6-7.5 11.2-11.4 13-14 26.4-27.8 36-44.6 2.4-4.2 12.1-6.5 17.7-4.6 5.1 1.7 7.8 6.6 7.3 13.9-1 12.5-4.4 23.8-14.1 33-9.1 8.5-17 18.3-25.2 27.7-8.1 9.3-16.8 18-26.2 26-3.5 3-7.6 4-12 3.8z" class="fill" data-original-prefix="fill"/><path id="fill-ear-lft-fill-pin3" fill="#ffffff" d="M314 639.6c-17.1 0-29.8-10.3-35.8-29.2-4.1-12.7-.9-25 2.2-37.3 1.7-6.8 3.6-13.7 7.5-19.8 1.6-2.5 3-3.1 5.9-1.5 7.6 4.1 15.4 7.8 23.2 11.6 2 1 2.9 1.3 1.8 4.4-3 8.4-7.3 15.9-12.5 23-2.6 3.6-1.3 9 2.7 11 6.7 3.3 13.5 6.3 20.2 9.6 2.8 1.4 3.7.3 3.9-2.2.4-4 1.5-7.8 2.8-11.6.7-2 .5-3.1-1.8-3.5-2.7-.6-5.4-1.4-8.1-2.2-2.8-.8-3.8-2.3-1.9-5.1 2.8-4.1 6-7.9 9.5-11.5 1-1 2.1-1.7 3.6-1.1 9.9 3.8 19.8 7.6 29.7 11.3 1.8.7 2.7 1.8 2.5 3.7 0 1.2-.1 2.3-.3 3.5-3.8 24.7-29.9 47-55 47h-.1Z" class="fill" data-original-prefix="fill"/><path id="fill-ear-lft-fill-pin2" fill="#ffffff" d="M373.9 574.1c-4.5 0-7.9-2.1-11.4-3.3-2.6-.9-1.3-3.3-.7-5.2 5.1-15.3 11.4-30 17.2-45 11.3-29.5 22.5-59 35.1-88 .5-1.3.6-2.8 2.1-3.8 2.6-1.8 5.2-4.3 8.5-2 3.2 2.3 3.6 5.6 2.3 9.3-15.1 42.9-30.1 85.8-45.2 128.6-.6 1.7-1.3 3.4-2 5.1-1.1 3-3 4.7-5.9 4.2Z" class="fill" data-original-prefix="fill"/><path id="fill-ear-lft-fill-pin1" fill="#ffffff" d="M351.4 410.4c2.4 10.8 3.6 20.4 4.7 29.9.6 5-1.6 9.5-3.5 13.8-13.3 29.9-25.6 60.3-37.6 90.8-1.1 2.8-2 3.3-4.9 2.1-10.4-4.3-10.6-4.2-6.9-13.7 13-33 24-66.6 37.6-99.4 3.1-7.6 6.1-15.2 10.7-23.6h-.1Z" class="fill" data-original-prefix="fill"/><path id="fill-ear-lft-stud2" fill="#ffffff" d="M703 790.9c2.4 20-12 30.3-23.2 32.1-16.4 2.7-32.6-8.1-36.8-24.3-5-18.9 4.1-35.2 21.9-39.3 12.3-2.8 27.5 3.5 34.5 14 3.8 5.6 3.9 11.8 3.7 17.5z" class="fill" data-original-prefix="fill"/><path id="fill-ear-lft-stud1" fill="#ffffff" d="M503.1 714.6c-.2-4.2.4-7.9 1.8-11.5 3-7.4 8.7-11.2 16.6-11 18.9.4 31.4 18.3 23.8 33.9-4.6 9.5-13.9 14.1-24.2 12-10.4-2.1-17.5-10.3-18-20.8v-2.7Z" class="fill" data-original-prefix="fill"/><path id="shading-ear-lft1" fill="#aaaaaa" d="M481.2 598.8c3.2-4.3 2.5-8.1 1-11.9-3.9-9.8-7.4-19.9-11.9-29.5-3.6-7.6-4.4-15.1-2.8-23.1 3-15.4 4-30.9 3.8-46.5-.3-22.2-6.1-43.3-13.6-63.9-11.7-31.9-27.5-61.7-45.5-90.5-7.6-12.2-17.3-22.6-26.3-33.7-3.3-4-6.2-8.4-9.6-13.1 8.8-3.9 17.1-6 25.6-7.5 5-.9 8.8 2.5 12.5 5.2 18.5 13.6 35.9 28.5 54 42.4 27.2 21 49.3 46.1 66.8 75.6 8.5 14.2 17.8 28 26.9 41.9 3.2 4.8 5.1 10 5.7 15.7.9 9.6 2.5 19.2 2.4 28.7 0 23.2 12 41.6 22.4 60.8 1.7 3.1 3.9 2.6 6.7 1.8 14.7-4 29.7-7.1 44.7-9.6 17.5-3 17.4-3 29 10.9 3.5 4.2 5.6 8.7 6.9 14 24 95.8 62 185.4 120.6 265.5 16.1 22 33.8 42.6 52 62.9 3.3 3.7 6.6 7.5 8.7 12.1 2.3 4.8 2.2 9-1.1 13.9-18.7 27.3-44.3 45.7-75.1 56.2-14.6 5-30.6 5.7-45.9 8.3-3.6.6-5.4-2-7.6-4-13.6-12.2-27.1-24.5-40.6-36.7-5.5-4.9-5.8-5.1-10.9.4-10 10.6-19.9 21.3-29.3 32.5-4.5 5.4-10.1 9.5-15 14.5-5.2 5.3-11.3 8.1-19.4 6.1 1-2.2 3.1-2.7 4.9-3.7 9.8-5.7 19.2-12.3 26.3-21.1 10.6-13.2 21.6-26 32.9-38.5 9.4-10.4 9.1-21.3 3-32.9-3.4.4-4 3.4-5.4 5.5-4.1 6-8.3 12-12.1 18.2-10.3 16.4-25 28.2-40.8 38.8-4.9 3.3-9.6 4.1-14.9 1.1-2.3-1.3-4.7-2.5-7.2-3.5-9.2-3.8-15-9.6-12.9-20.5 1.2-6-2.9-8.5-7.5-9.8-3.9-1.1-4.5-2.9-3.3-6.5 2.9-8.5 5.9-16.7 12.9-23.1 7.8-7.1 15-15 22.6-22.5 6.2-6.2 6.7-6 11.2 1.8 1.2 2 2.4 4 3.3 6.1 1.7 4 1.5 7.7-1.6 11.1-2.5 2.7-4.5 5.8-7.2 8.2-8.8 7.6-12.1 18.1-15.5 28.4-2.3 7.1.9 13 7.5 16.3s5.8-.3 8.3-1.6c6.2-3.4 10.5-9.2 15.2-14.2 6.8-7.3 12.6-15.4 18.9-23.1 2.4-2.9 2.5-5.6 1-9-8.6-18.7-17-37.4-25.4-56.1-1.2-2.7-3.2-5.5-3.3-8.2-.3-8.2-5.5-12-11.8-15.7-36.2-20.9-71.9-42.7-105.8-67.2-11.9-8.6-18.5-19.6-18.8-34.3 0-2 0-4 .5-5.9.4-1.9.9-4.1 3.5-4.2 2 0 2.7 1.8 3.3 3.3 3.3 9.2 9.5 15.9 17.9 20.4 6.3 3.4 13 5.3 19.6.4 4.9-3.7 5.1-6.4-.4-9.5-18-10.1-29.6-26-40.5-42.8-28.4-43.7-49.3-90.8-65.4-140.2-.9-2.8-1.8-5.6-2.8-8.5-3 1-2.8 3.5-3.3 5.6-4.7 19.6-9.4 39.3-14.2 58.9-2 8.1-2.1 8.1-10.5 8.7-7.6.6-15.2 1.5-22.8 1.6-5.3 0-8.3 2.2-10.9 6.8-8.4 14.9-20.8 24.6-37.9 28-8.4 1.7-16.4 1.3-24-3.3-5.4-3.3-10.9-6.3-16.4-9.5-8.3-5-10-13.1-11.8-23.5 15.2 10.3 29 19 46.8 18.7-7.9-7-15.7-13.9-23.6-20.9-5-4.4-10-8.8-14.9-13.2-5.3-4.8-6.4-11.3-3.4-19.5 9.8 8.4 19.3 16.5 28.7 24.7 9.7 8.5 19.5 17 28.9 25.8 3.3 3 5.8 2.3 8.7 0 5-4 9.4-8.4 12.5-14.9-21.6-18.7-44.9-35.4-67.4-53 1-1.4 1.4-2.3 1.8-2.4 11.8-1.4 15.6-10 19.3-19.7 7.5-19.5 15.6-38.8 23.9-57.9 2.8-6.5 3.8-12.6 1-19.1-3.1-6.9-2.4-13.3.9-20 3.2-6.5 6-13.3 8.8-20 1-2.5 2.5-3.6 5.2-3.5 3.2.1 3.7 2.3 4 4.7 2.4 16.7 6 33-2.1 49.6-7.8 16.1-11.6 33.8-18.6 50.3-3.4 8-7.7 15.4-11.7 23-2.1 4.1-4.9 7.8-5.7 13.3 16.4 7.3 32.5 14.9 49 21.8 7.6 3.2 9.6 1.9 12.3-6.3 14-42.1 30.8-83.3 42.2-126.3.8-3.1 1.5-6.5 4.1-8.9 13 5.9 15.3 9 13.2 22.4-2.7 17.7-5.9 35.3-9.3 52.9-1.3 6.8-.9 12.7 2.6 19 10.4 18.9 20.2 38.1 32.9 55.6 4.3 5.9 8.8 11.7 16.7 14.3zm190.4 250.4c3.1 17.8 10 30.9 27.2 36.1 1.9.6 3.5 2.1 5.4 2.5 7.1 1.6 10.3 6.7 12.4 12.9 1.1 3.4 2.4 6.9 2.9 10.5.6 4.2 2.4 7.4 5.3 10.3 13.3 13.5 26.5 27 40.7 39.4 2.9 2.5 5.4 5.6 10 7.1-2.4-12.4-6-23.7-9.5-35-.8-2.6-2.6-4.6-4.4-6.5-12.8-14.4-23.8-30.2-33.9-46.5-6.3-10.1-12.4-20.4-18.6-30.5-1.5-2.5-2.6-5.5-6.7-3.2-9.4 5-19.4 6.2-30.7 2.9zM541 764.3c29 22.1 59.5 38.1 94.4 47.4.9-13.9 1.6-26.8 2.5-39.6.3-4.8-1.6-6.4-6.2-6.5-11-.4-21.5-3.7-31.9-6.8-12.4-3.7-24.3-8.7-35.7-14.8-2.8-1.5-4.8-1.8-6 1.9-2.8 8.1-8.4 14-17.1 18.5Zm102.6 21.8c-1.9 10.4 5.6 17.8 13.5 24.5 13.1 11.2 31.6 6.7 39.1-8.9 1.6-3.4 1.8-6.1-1-8.9-9.3-9.5-18.4-19.1-27.6-28.6-1.4-1.4-2.8-2.5-5.2-2.1-12.9 2-19.1 9.2-18.7 24Z" class="outline shading" data-original-prefix="shading" opacity="0.5" style="opacity: 0.5"/><path id="outline-ear-lft-outer" fill="#000000" d="M347.6 396.2c0-1.7-.4-3.4-.8-5.3-3.8-17.2-12-32-24-44.8-1.7-1.8-2.1-4.1-2.6-6.4-4.3-18.4-5.6-37.2-6.7-56-1.3-20.6-3-41.2-3.1-61.9 0-15.1-.7-30.4 3.6-45.2 2.2-7.5 2.8-8 10.5-6.5 17 3.4 33.7 7.8 50.1 13.8 45.8 16.9 91.4 34.4 134.8 57 44.3 23 86.6 49.3 127.4 77.9 9 6.3 15.6 15.4 23.3 23.3 50.6 51.8 94.2 109.2 135.5 168.5 3.7 5.3 5.3 10.3 5.4 16.5.9 49.6 6.6 98.7 14.3 147.6 3.5 22 11.2 42.9 19.4 63.4 4.3 10.7 11.1 20.1 18.8 28.7 3.9 4.3 6.7 9.1 8.7 14.5 7.8 20.6 16.8 40.6 26.9 60.2 5 9.7 5.5 20.8 9 31 1.6 4.7 1.1 8.3-2.1 12.6-7.8 10.6-14.2 22.2-22.1 32.7-8 10.8-18.8 18.6-31.7 23 7.7-8.9 14.9-18.2 20.4-28.7 5.9-11.4 9.8-23.3 8.8-36.4-.5-6-3.6-11-5.5-16.5-1.7-4.9-3.8-9.6-5.4-14.5-2.8-8.9-6.5-17.3-11.4-25.4-13.7-23.1-24.3-47.8-35.1-72.3-3-6.9-6-13.8-9.6-20.3-8.1-14.5-8.9-30.6-10-46.5-2.2-30.6-4.6-61.1-7.9-91.6-2.2-20.6-2.3-41.6-8.1-61.7-1.6-5.5-3.6-10.8-7.2-15.2-22.9-28.2-44.2-57.6-67.6-85.4-37.4-44.3-82.5-79.3-131.2-110-24.5-15.4-48.8-31.3-73.9-45.8-40.2-23.3-81-45.6-123.3-64.7-15.4-7-31.6-12.3-48.1-17.8-1.2 13.9-1.3 27.5-.8 41.1 1.2 28.7 6.2 56.9 11.1 85.1.4 2.1 1.1 4.3 2.3 6 16.5 24.5 22.8 52.6 29.7 80.6 6.6 26.8 8.4 53.9 8.7 81.3 0 1.6 0 3.2 1.1 5l6.9-18.9c4.6-12.5 8.3-25.3 13.9-37.3 3.1-6.6 7.1-12.5 13.7-16.1 11.1-6 23.1-.3 25.6 12.1 1.5 7.1.1 13.9-1.8 20.7-6.5 22.9-16.2 44.6-24.5 66.8-5.8 15.4-11.2 30.9-16.4 46.4-.9 2.7-.3 5.1.4 7.8 15.4 56.3 45.6 104.3 82.7 148.6 6.8 8.2 13.5 16.5 21.1 24 16.2 15.9 33.8 30 53.9 41 21.2 11.6 42.2 23.5 62.5 36.6 2.9 1.9 5.9 3.8 8.7 5.9s5.7 4.4 3.8 8.7c-.3.6.2 1.6.5 2.4 6.6 18.2 13.7 36.1 22.9 53.2.4.7.9 1.4 1.4 2.2 11.5-13.7 27.2-13.3 42.6-12.5 5.4.3 9.5 4.4 10.7 9.8 3.4 15.5 3.2 31-1.4 46.3-.2.6-.5 1.3-.8 1.8-1.2 2.3-3.9 5-3.4 6.9.8 3.1 4.5 4.7 7.2 6.6 13.8 9.9 27.5 19.9 43.8 25.6 7.2 2.5 14.5 1.5 21.8 1 9.4-.6 17.9-4.5 26.8-7.1.9-.3 1.9-.3 2.9-.5-3.1 5.3-8.8 7.2-13.9 9.1-13.1 4.9-25.7 10.8-39.2 14.9-11.3 3.4-21.3-.7-31.8-2.1-1.1 0-2.1-1.5-3.1-2.4-9.2-9-18.5-17.8-27.4-27-2.9-3-4.5-2.5-7.2 0-15 14.2-30.3 28.1-45.2 42.4-4 3.9-9 6.2-13.2 10-2.7 2.4-6.9 1.6-10.5.4-15.1-5.3-29-12.9-42.6-21.3-16.5-10.2-18.3-14.4-13.6-34.2 3.4-14.1 6.3-28.3 9.3-42.4 2.7-12.7 8.9-23.2 19.3-31.1 8.7-6.7 17.2-13.7 26-20.2 3.1-2.3 3.3-4 1.1-6.8-1.4-1.8-2.6-3.9-3.8-5.9-6.7-11.7-16.1-19.8-28.4-25.6-29.6-13.8-56.3-32.4-81.5-53-37.6-30.6-65.5-68.9-87.7-111.6-9.2-17.6-18.1-35.2-26.3-54-2.8 5-5.1 9.7-7.9 14-10.7 16.3-23.7 29.9-44.3 32.6-24.5 3.1-45.8-3.3-62.5-22.4-9.4-10.7-11.6-23.4-10.6-36.9 1.1-16.1 5.7-31.4 11.2-46.4 2.3-6.4 5.8-12.6 14.5-11.8 1.7.2 1.6-1.3 2-2.3 15.8-42.1 35.1-82.7 53.1-123.9l7.4-14.7zm5.5 94.9c-.8 1.7-1.6 3.5-2.4 5.2-8.3 18.3-16.6 36.6-25 54.9-1.1 2.4-.3 3.1 1.8 3.9 5.6 2 11.1 4 16.6 6.4 2.9 1.2 3.8 0 4.7-2.4 2.4-6 4.7-12.1 7.6-17.8 2.6-5 2.7-9.7 1.5-15.2zm265 503.1c4.5 0 8.5-.8 12-3.8 9.4-8 18.1-16.7 26.2-26 8.2-9.4 16.2-19.2 25.2-27.7 9.8-9.2 13.2-20.5 14.1-33 .6-7.3-2.2-12.2-7.3-13.9-5.6-1.9-15.3.4-17.7 4.6-9.6 16.8-23 30.5-36 44.6-3.6 3.9-7.3 7.8-11.2 11.4-4 3.7-9.3 4.1-13.9 1.7-6-3.1-9.4-8.3-8.6-13.7 2.3-15.7 8.9-29.3 20.4-40.6 8.9-8.8 8.3-9.2 2.3-20.1-1.5-2.7-2.3-2.2-4.1-.4-6.4 6.4-12.8 12.7-19.4 18.7-8.4 7.8-13.9 17.3-17.2 28.2-3.6 11.8-5.2 24-7.9 36-1.4 6.1.8 10.9 5 14.8 8.8 8 18.9 14.1 30.1 18.1 2.6.9 5.2 1.1 7.9 1.1zM314 639.6c25.1 0 51.2-22.3 55-47 .2-1.1.2-2.3.3-3.5.1-1.9-.7-3-2.5-3.7-9.9-3.7-19.8-7.5-29.7-11.3-1.5-.6-2.6.2-3.6 1.1-3.5 3.5-6.7 7.4-9.5 11.5-1.9 2.7-.9 4.2 1.9 5.1 2.7.8 5.3 1.6 8.1 2.2 2.3.5 2.5 1.5 1.8 3.5-1.3 3.8-2.5 7.6-2.8 11.6-.2 2.5-1.1 3.6-3.9 2.2-6.7-3.3-13.5-6.3-20.2-9.6-4-2-5.3-7.4-2.7-11 5.2-7.1 9.5-14.6 12.5-23 1.1-3.1.2-3.4-1.8-4.4-7.7-3.8-15.6-7.5-23.2-11.6-2.9-1.6-4.3-1-5.9 1.5-3.9 6.1-5.7 13-7.5 19.8-3.1 12.2-6.3 24.6-2.2 37.3 6 18.9 18.7 29.2 35.8 29.2h.1Zm59.9-65.5c2.8.5 4.7-1.2 5.9-4.2.7-1.7 1.4-3.4 2-5.1 15.1-42.9 30.1-85.8 45.2-128.6 1.3-3.7.9-7-2.3-9.3-3.3-2.3-5.8.2-8.5 2-1.4 1-1.5 2.5-2.1 3.8-12.6 29-23.8 58.5-35.1 88-5.8 15-12.1 29.8-17.2 45-.6 1.9-1.9 4.2.7 5.2 3.5 1.2 6.9 3.3 11.4 3.3Zm-22.5-163.7c-4.6 8.4-7.6 16.1-10.7 23.6-13.5 32.7-24.6 66.4-37.6 99.4-3.7 9.5-3.5 9.4 6.9 13.7 3 1.2 3.8.7 4.9-2.1 12.1-30.4 24.3-60.8 37.6-90.8 1.9-4.3 4.1-8.8 3.5-13.8-1.1-9.6-2.3-19.1-4.7-29.9h.1Zm282.7 491.5c-5.7 8-12.1 14.2-16.1 22.1-.9 1.8-1.2 3.6.8 4.8 1.7 1.1 3.5 1.2 5.1 0 1.1-1 2.2-2.1 2.9-3.4 1.9-3.6 4.5-6.7 7.6-9.2 2.9-2.4 3.5-5 1.8-8.3-.7-1.5-1.1-3.1-2.1-6" class="outline" data-original-prefix="outline"/><path id="outline-ear-lft-inner" fill="#000000" d="M351.4 240.4c1.5-1.1 2.5.2 3.6.8 7.2 4.5 14.4 9.1 20.3 15.3 4.8 5.1 11.1 7.8 17.3 10.8 5 2.4 9.4 5.4 13.3 9.5 21.7 22.3 45.5 42.6 66.6 65.6 25.8 28 43.1 61.1 57.4 95.9 2.2 5.3 2.8 10.1 1.6 15.8-4.4 21.2-7.3 42.5-8.1 64.2-1.2 33.9 6.2 65.7 20.3 96.3 4.7 10.3 9.2 20.7 16.2 29.8 3.7 4.8 7.9 9.1 13.1 12.1 8.5 4.9 15.9 2.2 18.8-7.2 1.6-5.1 2.6-10.3 3.6-15.6 3.5-16.8 9.6-32.9 14.6-49.2.7-2.4 2.2-4.1 4.1-5.4 17-11.8 35.1-21.6 54.8-32-3 7.1-4.4 13.2-6.9 18.8-4.1 9.2-4.7 18.7-3.6 28.3 2.8 24.2 6.8 48.2 15.2 71.1 4.9 13.3 12.7 25.1 22.6 35.1 9.5 9.5 15.9 20.8 23 31.8 19.6 30.5 34.3 63.6 49.7 96.2 12.5 26.4 27.8 50.8 45.8 73.7 2.9 3.7 4.3 7.6 4.4 12.4.3 6.8 1.2 13.6 1.7 20.4 0 1.4.9 2.9-.3 4.3-7.9 9.6-17.5 16.9-28.5 23.8-.5-4.3 2.1-6.7 3.1-9.4 2.9-7.7 2.8-15.3 1.2-23.1-4.2-21.1-12.6-40.7-22.4-59.6-25.2-48.6-53.2-95.4-88.1-137.8-6.9-8.4-13.8-16.7-22.2-23.7-1.8-1.5-2.1-3.2-2-5.3.3-24.2-5.4-47.2-13.6-69.7-1.5-4.1-3.4-7.9-6.1-11.4-2.8-3.7-6.2-4.1-10.1-2.2-3.6 1.6-6.4 4.2-8.7 7.3-9.8 13.2-16.1 27.8-16.6 44.6-.7 20.6 4.9 39.4 14.5 57.4 1 1.9 2.1 3.7 3.2 5.6-1.9 1.1-3.2-.2-4.3-.8-26.4-13.7-51.7-28.8-73.2-49.9-4.4-4.3-6.2-8.5-7.1-14-4.7-28-12.1-55.3-21.6-82-6.2-17.4-15.6-33.1-26.6-47.9-2-2.7-2-4.4 0-7.3 7.5-11.5 10.4-24.6 10.8-38 1.4-43.7-10.2-83.8-32.6-121.3-22-36.8-50.7-66.6-87.2-89.1-5.6-3.5-10.1-7.6-13.2-13.8-4.8-9.8-10.1-19.5-16.6-28.4-.6-.9-1.7-1.7-1.2-3z" class="outline" data-original-prefix="outline"/><path id="outline-ear-lft-ring2" fill="#000000" d="M720.4 800.3c-1.6 20.6-16.3 40.9-41.5 39.5-33.3-1.8-55.8-36-44.7-67.5 8-22.8 34.1-33.2 55-21.2 19.4 11.1 29.5 28.5 31.2 49.2m-17.4-9.4c.2-5.6 0-11.8-3.7-17.5-7-10.5-22.2-16.8-34.5-14-17.8 4.1-26.8 20.4-21.9 39.3 4.3 16.3 20.4 27 36.8 24.3 11.2-1.8 25.6-12.2 23.2-32.1z" class="outline" data-original-prefix="outline"/><path id="outline-ear-lft-ring" fill="#000000" d="M491.8 711.4c-.2-19.1 11.1-30.4 28-30.5 19.9 0 36.4 13.1 37.7 31.1.7 10.3-1.7 20.6-7.8 29.3-7.4 10.5-20.4 12.9-34.6 7.1-17.9-7.2-21.9-22.4-23.2-37.1h-.1Zm11.3 3.2v2.7c.5 10.5 7.6 18.7 18 20.8 10.3 2.1 19.6-2.5 24.2-12 7.6-15.6-4.9-33.5-23.8-33.9-7.9-.2-13.7 3.6-16.6 11-1.4 3.6-2.1 7.3-1.8 11.5Z" class="outline" data-original-prefix="outline"/>
    </g><g class="trait-group" data-category="head" id="head-palerider">
      <path id="fill-head2" fill="#ffffff" d="M647.3 900.2c5.1-1.5 10-4.9 14.8-6.7s12.8-1.7 15.4-6.6c12.3-56.2 28.7-111.2 47.5-165.5 6.9-19.8 15.6-49.3 24.8-67.2 6.2-12 28-23.5 38.2-32.9 2.5-.8 8.3 1.9 11.7 2.5 61 9.8 123.3 10.3 184.9 11.1 86.4 1.1 179.2 2.4 264.7-11.2 2.7-.4 7.5-2.7 9.3-2.7 4 .2 34.3 26.2 38.7 31.2 29.5 76.2 55.7 153.9 73.1 233.9 2.6 5.9 11.5 5.5 16.5 7.5 2.5 1 12.7 5.8 13.8 7.2 5 6.6 5.3 32 8.6 41.4.8 2.3 1.9 4.1 4.4 4.5 7.1 1.3 18.4 1.5 26 2 76.9 4.8 154.1-.8 231 2 21 .7 69.6 3.8 86.8 14.2 7.7 4.6 16.6 22.6 15.7 31.3-1.9 18.2-40.6 51.5-55.1 62.9-77.2 60.6-145.9 90.2-239.1 118.9-163 50.1-333.5 87.8-505.3 79.8-129.1-6.1-257.3-36-380.5-72.5-102.6-30.4-178.7-59.5-263.5-126.5-14.6-11.6-55.7-46-55.2-65.3.1-3.4 7.9-20.6 10.2-23.6 7-9.1 31.9-13.3 43.1-14.9 84.2-11.8 174.1.2 258.9-5.1 15.2-2.6 33-.4 47.9-3.1 2-.3 3.5-1.9 4.2-3.8 3.5-9 3.6-26.1 6.4-36.6.5-1.9.9-4.2 2.1-6.2" class="fill" data-original-prefix="fill"/><path id="fill-head1" fill="#ffffff" d="M669.8 911.2c.4.3.8 2 1.7 2.8 195.6 157.5 495.1 165.7 694 9 2.7-2.2 12-11.6 14.1-12 2.6-.5 10-.8 11.3 1.7 1 2 3 15.8 3.2 18.8.5 7.3 1 23.1.1 30-.7 5.5-16.2 18.7-21 23-173.8 150.7-512.9 150.7-690.5 6.5-5.2-4.2-26.4-22.2-28-27-1.4-4.1-1.7-14.8-1.6-19.5.1-7.2 1.6-23.7 3.7-30.3.4-1.2.6-2.6 2-3 1-.5 10.2-.5 11 0" class="fill" data-original-prefix="fill"/><g id="shading-head-hat" fill="#aaaaaa" opacity="0.5"><path id="shading-head3" fill="#aaaaaa" d="M296 963c2.1 6.4 3 12.4 5.9 18.7 26 56 138.2 122.2 193.8 148.2 76.5 35.7 162.6 52.8 245.2 68.8 71.4 13.8 145.2 27.6 217.7 34.3 117.7 11 238.4-12.8 353.7-35.3 90.8-17.7 180.2-36.3 262.8-79.2 48.3-25.1 155.9-90.1 173.4-142.5 2-6.1.1-15.8 8.2-11.2 6.9 3.9 15 16.1 12.5 23.9-13.5 42.9-84.6 94.4-121.7 118.3-54 34.8-110.7 53.5-171.8 72.2-196.9 60.5-387 97-594.1 70.6-124.4-15.8-265.7-51.5-383.4-94.6-67.8-24.8-173-86.5-210.6-149.3-2.6-4.3-9-15-9.5-19.5-.9-7.3 9.3-22.9 17.9-23.4" class="outline shading" data-original-prefix="shading" opacity="0.5" style="opacity: 0.5"/><path id="shading-head2" fill="#aaaaaa" d="M677 912c-3.2 6.4-5.9 13-7.5 20-1.3 5.3-4.8 23.5-2.5 27.6 42.6 45.2 97.8 78.9 151.4 109.6 3.9 2.2 18.3 8.8 20.2 10.8 1.6 1.8 2.3 3.7.5 5.6-2 1.4-7-1.7-9-2.6 2.4 8.3-9.8 6.4-15.4 5.9-23.4-2.3-56.5-17.1-78.3-26.7-42.4-18.7-84-40.1-121.1-67.9-86.6-15.8-174.3-25-261.2-38.8l-9-2.5 30.5-2c69-1 138.1-.2 207.1-.9 3.9 0 7.4-1.4 12-1.1 13.6.9 30.5 10.1 44.5 12 2-15.9 5.6-55.4 19.1-65.5 5.4-4 16.8-3.4 19.5-9.5 12-55.9 28.7-110.6 47.5-164.5 6.9-19.8 15.6-49.3 24.8-67.2 4.8-9.2 18.1-16.9 26.2-23.3.4 4.7-.6 9.2-1.7 13.8-6.4 26-20.2 56-28.5 82.5-14.8 46.8-33.9 107.9-37.6 156.4-.2 2.2-.5 4.2.4 6.3s14.2 13.7 17 16c30.3 24.9 73.9 46.3 109.8 62.2 59.9 26.5 123.9 41.5 185.8 62.2 2.3 2.7.2 4.7-2.7 5.3-97.8-5.4-193-33.1-276.3-84.3-17.2-10.6-36.6-27.1-55.3-32.7-5.6-1.4-6.8-2.6-10.2-6.7" class="outline shading" data-original-prefix="shading" opacity="0.5" style="opacity: 0.5"/><path id="shading-head1" fill="#aaaaaa" d="M1409.1 961c1.9 1.3 37.1-11.5 44.4-12 13.9-.9 32.6 1.9 47 2.1 63.7.9 127.5-3 191 1l11.5 2c-89.6 14.6-180.1 24-269.5 40.1-29.3 21.3-60.6 39.1-93.2 54.8-28.2 13.6-75.8 36.6-106.1 39.9-5.8.6-18.7 2.8-16.2-5.7-4.7 3.1-13.4 5.2-8.5-3.1 60.6-34.4 123.5-69.2 171.6-120.4 2.2-3.8-1.2-20.6-2.4-25.7-1.8-8.1-4.3-14.4-7.7-21.8-4.3 7.5-11 5.5-16.7 7.8-12.3 4.9-35.5 23.8-48.3 31.7-83.4 51.3-178.7 78.5-276.5 84.5-2.7-.1-4.6-3.5-2.5-5.5 61.8-20.8 125.9-35.7 185.8-62.2 36.1-16 80.7-38 110.8-63.2 2.8-2.4 14.9-12.7 16-15 .9-2 .5-3.4.4-5.3-1-18.8-7.7-49.1-12.2-67.9-6.5-27.1-15.2-55.9-23.4-82.5-8.9-28.6-21.9-58-29.8-86.2-1.6-5.6-3.1-11.1-2.5-17 6.9 5.9 21.2 14.2 25.5 22 8.2 15 16.4 43.3 22.5 60.5 20.1 56.5 37.6 113.9 50.5 172.5 2.7 6.2 14.2 5.7 19.4 9.5 6.2 4.6 11.7 21.9 13.6 29.4 2.8 11.5 3.4 23.7 5.5 35.7" class="outline shading" data-original-prefix="shading" opacity="0.5" style="opacity: 0.5"/></g><g id="outline-head-hat" fill="#000000"><path id="outline-head-hat2" fill="#000000" d="M1378.2 881.8c5 2.3 10.6 2.8 15.8 4.7 2 .8 9.2 4.1 10.9 5.1 5.8 3.4 6.5 14 7.8 20.2 1.8 9 2.9 18.2 4.3 27.2l45.4 3c80.1 4.6 163.3-3.9 243 3 31.8 2.7 65 3.6 75 39 7.3 26-18.9 50.6-36.5 66.5-108.6 98.5-257.3 139.9-397 174-240.8 58.7-441.2 54-680.2-8.8-130.8-34.4-259.4-71.6-361.8-164.2-25.8-23.3-52.3-48.2-30.2-84.2 10.8-17.6 48.5-20.6 67.7-22.3 72.6-6.2 150.5-.8 224-3 21.5-.7 43-1.1 64.5-3 2.2-11.9 3.1-25.8 6.1-37.4 2.7-10.4 4.5-8.7 12.6-12.4 1.5-.7 2.7-2.1 4.3-2.7 5.2-1.9 10.8-2.4 15.8-4.7 17.1-80.8 44-159.1 73.5-236 2.6-4.4 31.1-27.7 36.4-30.6 9.5-5.2 15.3-.8 24.1.6 56.5 8.7 112.8 10.1 169.8 11.2 89.9 1.7 181.6 2.4 270.7-11.2 7-1.1 12.6-4.7 20.8-2.3 3.6 1.1 30.4 22.7 34.4 26.6 2.7 2.7 3.9 3.8 5.7 7.3 7 13.6 13.4 35.2 18.8 50.2 21.7 60.2 40.5 121.5 54.3 184.2m-90.5-220.5c-2.3-2.7-33.4-24-36.1-24.4-102.4 4-204.5 7.8-307 5-50-1.3-99.8-4.2-149.8-4.8-3.2.9-34.2 23.4-35.8 26.2-7.4 12.8-16 42.8-21 58-19 58-34.9 117.2-47.8 176.8 82.7 63.6 187.2 105.6 291.4 116.7 76.2 8.1 155.6-7.3 226.7-34.2 53.3-20.1 104.9-47.1 149.6-82.4-15.5-68-33.3-137.2-56.8-202.8-2.4-6.4-10.2-30.3-13.4-34.1M669.8 911.2c-.8-.5-10-.5-11.2-.1-1.4.5-1.6 1.8-2 3-2.1 6.6-3.6 23.1-3.7 30.3-.1 4.7.2 15.4 1.6 19.5 1.6 4.8 22.8 22.8 28 27 177.6 144.3 516.7 144.2 690.5-6.5 4.9-4.2 20.3-17.4 21-23 .9-6.9.5-22.7-.1-30-.2-3-2.2-16.9-3.2-18.8-1.3-2.4-8.7-2.2-11.3-1.7-2.1.4-11.3 9.8-14.1 12-198.9 156.7-498.4 148.5-694-9-.8-.7-1.1-2.4-1.5-2.7M625 965c-40 .4-79.8-.6-119.5-2-48.2-1.6-162.7-14.1-202.1 9.8-21.1 12.8-13.6 28.5-.4 43.7 17.7 20.3 40.3 32.2 61.8 47.3 23.4 16.4 43.7 32.3 69.2 45.8 115.3 60.9 250.1 91.7 377.8 114.2 89.6 15.8 180.7 29.4 271.7 21.3 61.9-5.5 124.6-15.8 185.7-27.3 116.3-21.9 237.4-52 342.8-107.2 25.4-13.3 45.1-28.6 68.3-44.7 21.5-15 44.7-27.6 62.8-47.2 10.7-11.7 22.1-26.1 8.5-40.6-20.6-22.1-98.8-19.6-128.1-19-46.6 1-93.3 5.1-139.9 6.1-20.2.4-40.4-.4-60.6 0-.2 8.8.8 14.4-5 21.5-12.5 15.2-41.9 34.4-59.1 45-71.3 43.8-150.2 72.1-233.6 82.4-158.8 19.8-329.9-4.1-461.7-99-8.5-6.1-36.8-27.3-38.4-36.6-.4-2.2.2-13-.2-13.5" class="outline" data-original-prefix="outline"/><path id="outline-head-hat1" fill="#000000" d="M769 677c.1.1.3 1.7 1 2.5 18.2 19.6 37 41.6 59.1 56.9 18.6 12.9 36.2 10.9 57.4 13.6 47.4 5.9 95.5 11.7 143 11 44.8-.7 87.7-5.5 132-11 38.4-4.8 44.1-1.3 74.5-27.5 15.9-13.7 30.2-29.3 43.5-45.5 2.1-.4 1.4.8 1.8 2.2 2.1 6.9 2.2 14.3 3.7 21.3-.2 1.9-15.8 17.9-18.5 20.5-7.1 6.9-33.2 31.4-40.5 34.5-16.7 7.1-55.5 11.8-74.7 14.3-96.5 13-203.8 11.5-299.4-7.3-8.2-1.6-23.8-3.9-30.7-7.3-10-4.9-42-35.3-50.3-44.7-1.1-1.3-7.2-8-7.5-8.5-1.1-2.3 1.7-17.9 2.7-21.3.4-1.2.9-5.4 2.9-3.7" class="outline" data-original-prefix="outline"/></g>
    </g>
</svg>