<?xml version="1.0" encoding="UTF-8"?>
<svg xmlns="http://www.w3.org/2000/svg" viewBox="0 0 2048 2048">
<style>
  .outline { fill: #000000; }
  .fill { fill: #ffffff; }
  .shading { fill: #aaaaaa; opacity: 0.5; }
</style>


<g class="background">
  </g><g class="background"><path class="color" id="color-yellow" d="M2048,0v2048H0V0h2048Z" style="fill: #ddb305" fill="#ddb305"/></g><g class="background">
</g>
<g class="trait-group" data-category="jaw"><path id="fill-jaw-main" fill="#fff" d="m637.2 1237.2 8.7-.3c13.5-36.6 25-74.9 39.3-111.1 40.9-102.9 149.2-171.1 251.8-201.2 96.8-28.5 178.1-7.9 265 37 60.9 31.4 126.9 87.1 155.2 150.8 8.4 18.9 7.3 37.3 13.6 53.4 7.2 18.6 28.3 46.1 38.7 65.3 15.6 28.9 30.5 61.7 44.3 91.7 1.6 3.4 9.1 18.6 8.9 20.7-26.3 40.9-55.4 79.9-82.8 120.1-25.7 22.3-52.4 43.6-77.4 66.6-10 22.3-16.2 46.5-26.5 68.5-40.4 24.2-79.2 55.9-120 79-37.8 21.3-82.4 35.7-121 56l-20.5.4-115.6-51.4c-45.5-28.4-92.8-54.2-138-83l-27.6-71.4-61.4-52.6-83.8-134.3c-.6-1.5 0-2.8.2-4.3 1.6-6.1 8.7-18.8 11.7-25.3 11.6-25.2 25.5-49.3 37-74.5h.2Z" class="fill" data-original-prefix="fill"/></g><g class="trait-group" data-category="jaw"><path id="fill-jaw5" fill="#fff" d="M1353 1472c.3 1.4.2 1.3-.6 2.1-2.5 2.4-7.8 5.4-10.8 7.9-10.1 8.4-42.1 34.1-47.4 43.6-10.7 19.7-16.2 47.3-25.4 68.1l-39.1 20.4-58.7 38.8c20.2-48.3 28.3-100.5 36-152 1.4-1.4 10.5 6 16 3.5 25.4-22.1 55.1-38.7 85.8-52.3 15.6 3.6 29.6 13.3 44.2 19.9" class="fill" data-original-prefix="fill"/></g><g class="trait-group" data-category="jaw"><path id="fill-jaw4" fill="#fff" d="M1337 1303c17.3-4.2 26.8-13.8 38-26.5 10.3-11.7 19.5-24.5 29.5-36.5 15.8 21.7 28.9 48.5 38.3 73.7 2.3 6.1 7.3 19.2 8.1 25 .2 1.9 0 2.2-.7 3.8-2.5 5.3-11.1 14.5-14.9 20.1-9.7 14-20.1 28.6-29 43-9 14.6-18.7 37.6-28.8 50.2-3 3.8-10.2 4.3-11.3.4-.6-2.2 13.9-36.1 15.9-41.8 1.7-4.7 8.4-21.2 7.8-24.8-.8-4.6-9.6-20.7-12.3-25.8-9-16.6-20.8-33.7-32.1-48.9-1.3-1.7-9.7-10.6-8.4-12.1v.2Z" class="fill" data-original-prefix="fill"/></g><g class="trait-group" data-category="jaw"><path id="fill-jaw3" fill="#fff" d="M711 1303c.7.8-1.9 4-2.6 4.9-11.5 16.1-23.2 30.5-33.2 47.8-3.8 6.6-16 27.9-17 34.1-.6 3.6 7.9 25.6 9.8 30.8 4.4 12 10 23.8 13.9 35.8-6.4 5.8-9.5 2.2-13.3-3.4-10.5-15.6-19.1-34.6-29.2-50.8-8.2-13.2-17.8-26.6-26.6-39.4-3.9-5.6-12.4-14.8-14.9-20.1-.8-1.6-1-1.9-.7-3.8.8-6.2 5.7-18.7 8.1-25 9.6-25.7 22.5-50.4 36.8-73.8l2.4 1.1c9 11.5 17.9 23.4 27.6 34.4 11.3 12.9 21.3 23.6 39 27.5Z" class="fill" data-original-prefix="fill"/></g><g class="trait-group" data-category="jaw"><path id="fill-jaw2" fill="#fff" d="M841 1501c7.2 51.6 16.2 103.4 35.5 152-31.8-20.5-62-43.8-97-59l-26-69c-16-16.8-34-32.2-52-47-2.1-1.7-8-4.2-5.8-6.1 2-1.8 13.4-7.5 16.7-9.1 4.1-2.1 22.8-10.9 25.9-10.6 31.6 12.9 62 30.9 87.8 53.3 3 2 13.5-6.1 15-4.5z" class="fill" data-original-prefix="fill"/></g><g class="trait-group" data-category="jaw"><path id="fill-jaw1" fill="#fff" d="M846 1457c-9.4 1.7-24.2 21.3-32.4 21.1-3.7 0-14.6-4.8-18.5-6.6-11.7-5.2-24.9-13.3-36-20.1-5.3-3.2-20.9-15.6-25.7-16.4-3-.5-12.8 1.8-16 2.9-4.2 1.4-26.5 13.6-28.4 12-2.2-17.5-17.1-36.8-12.1-54.5 4.5-16.1 33.4-52.4 45.5-65.5 2.4-2.6 13.9-14.7 16.1-15 1.6-.3 3 .2 4.5.5 12.5 2.5 27.7 8.8 40.7 12.3 27.9 7.4 55.9 13.4 84.6 16.9 22.7-11.5 45.5-22.8 69-32.8 48.7-20.8 80.7-34.3 134.2-15.8 36.9 12.8 73.1 31.7 108.1 48.7 44-5.4 86.9-16.7 128.9-30.3 4.5.4 28.7 29.4 32.9 34.7 9.2 11.7 19.5 25.6 26.1 38.9 4.6 9.2 6 13.9 3.4 24.5l-13.4 38.5c-8.4-3.8-18.3-10.2-27-13-2.9-1-13.4-3.3-16-2.9-4.8.8-25.2 16.2-31.3 19.8-10.7 6.4-24.5 14.6-36 19-3.2 1.2-10.8 4.4-13.8 4.3-6.3-.2-20.6-16.3-28.1-19.9-1-.5-2.2-1.8-3.3-.7-8.5 54.2-15.6 108.7-31.7 161.3-2.8 9.2-8.5 29.8-12.8 37.2-2.3 3.9-32.3 32.9-36.5 35.5-11.1 6.6-43 19.6-55.9 24.1-8.3 2.9-32.6 9.3-40.6 9.4-7.2 0-32.2-6.3-39.9-8.9-12.8-4.2-53.9-21.4-63-29-5.2-4.3-28.6-27.1-31.3-31.7-3.1-5.3-7.2-19.9-9.4-26.6-18.3-55.7-26-113.9-34.8-171.8Z" class="fill" data-original-prefix="fill"/></g><g class="trait-group" data-category="jaw"><path id="outline-shading-jaw1" fill="#000" d="M1278 1304c.5 1.8 5.6-.4 6.8-.8 16.4-4.8 50.7-16.4 63.7-26.3 12.3-9.2 23.4-45.9 32.7-60.3 2.3-3.5 4.1-6.2 8.8-6.7 0 1.4 0 2.8-.2 4.3-1.8 8.2-7.7 21.7-11 30s-14.4 36.4-19.8 41.2c-3.5 3.1-22.8 10-19.5 16.5 1.1 2.2 11.8 12.2 14.5 15.6 10.3 12.7 18.4 26.9 27.7 40.4 25.3-5.7 50.8-12.9 73.8-24.9l1.1 4-73.1 127.9c-18.1 13.1-38.3 23.5-55.9 37.1l-50 98c-26.9 17.7-58.7 32.4-84.5 51.5-17.4 12.9-36.6 35-54.2 45.8-20.2 12.5-48.9 21.8-70.4 32.6l-92.5-.5c-20.4-12.1-46.2-19.8-66.3-31.7-19-11.3-39.6-35.5-59-49.1-25-17.6-54.1-32.4-80.5-48l-49.8-98.7c-17.4-13.3-37.2-23.2-54.4-36.6l-76-128 2.4-4.4c23.1 11.8 48.5 19.2 73.8 24.8 10.5-16.1 20.6-32.3 33.2-46.9 2.8-3.2 9-6.9 8.3-11.2-1.4-8.8-16.4-9.6-22-18.1-7.5-11.3-17.8-38.9-22.5-52.4-1-2.8-6.5-17.8-5.2-19.2 6.4.5 9.4 8.2 12.2 13.3 5.9 11.2 10.3 23.4 16.3 34.7 2.4 4.6 7.8 14.9 11.3 18 4.7 4 18.1 9.8 24.3 12.4 14.5 6.2 29.8 11.2 45 15.5-16.4-12.2-34.8-21.6-50-35.5-18.3-16.7-19.6-34.6-30.5-55.5-5.2-10.1-12.3-19.1-18.3-28.7-1.8-6.8 5.4-21.6 6.5-29 2.8-19.1 3.8-27.8 12.1-45.9 42.8-94 156.1-156.3 251.2-184.8 55.5-16.7 109-17.9 165-2 99 28.1 225.1 96.5 262.8 198.2 5.1 13.9 5.1 20.8 7.5 34.5 1.2 7.1 7.8 22.1 6.7 28.2-.6 3.4-14.5 22.1-17.5 27.5-11.3 21-13 40.9-31.5 57.5-15.3 13.8-35 25.6-53 35.5v.2Zm-200 23c-5.5-11.1-10.5-24.8-17.6-34.9-4.2-6.1-10.2-10.5-14.9-16.1-3.4-4-15.2-20.5-18.4-21.6-1.9-.6-4.4-.8-6.3-.2-2.4.7-15.7 18.7-18.7 22.3s-7.4 6.8-10.5 10.5c-9.4 11.2-15.1 26.9-21.5 40h108Zm-309.5-23v1c.7-.3.7-.7 0-1m68.5 40c-31.5-5.4-62.3-14.5-92.5-25-4.9-1.7-27.1-11.3-30-11s-12 13.5-14.3 16.7c-3.2 4.4-25.2 35.5-25.2 37.8s9.4 13.2 10.2 17.3c32.5 5.7 63.8 16 95.1 26 4.2-.8 6.5-2.9 9.2-5.8 9.8-10.1 18.8-24.6 28.5-35.5 4.9-5.5 14.2-12.6 18-18 .6-.8 1.4-1 1-2.5m525.8 35.8c.4-4.4 10.8-15.1 10.1-18.1-5.5-6.9-33.4-52.2-38.6-53.6-1.1-.3-2.2 0-3.3.3-38.7 15.6-78.8 28.3-119.9 35.6-.4 1.5.4 1.7 1 2.5 4.5 6.6 16.4 16.4 22.5 23.5 7.8 9 15.1 20.7 23 29 3 3.2 5.7 6 10.3 6.8 31.2-10.1 62.6-20.3 95.1-26zM720 1472c-.4 1.7.5 2 1.5 3 9 8.8 25.2 15.4 33.5 25.5s18.5 37.1 27.1 44.9c3 2.7 10.5 6 14.5 8.6 13.2 8.8 26.3 18.2 39.5 26.6l3.8-5.9-28.3-64.7c-11-6.6-68.3-43.6-76.8-42.8-1.4 0-14.3 4.2-14.8 4.8m608 0c-5.2-.6-13.1-5.9-18-4.6-24.8 13.7-50.3 26.3-73.5 42.6l-27.8 63.3c-1.3 2.2 2.5 8.4 5 7 9.7-7.4 19.7-14.5 29.8-21.3 5.5-3.7 18.6-10 22.5-13.5 8.1-7.4 18.5-33.8 26.1-43.9 7.6-10.3 25.5-17.8 34.5-26.5 1-.9 1.9-1.3 1.5-3Zm-194 173c-2.1-.2-3.8 0-5.7.8-24.5 9.4-50.2 38.1-77.1 42.9-17.9 3.2-50.3 3.7-67.2-3.2-20-8.2-44-31.6-64.3-39.7-1.5-.6-6.2-2.2-5.7.7 1.2 7.7 10.9 21 16 27 6.2 7.3 8.1 8.8 16.3 13.7 30.2 18.1 49.5 27.8 86.2 25.9 21.1-1.1 31-5.5 49.1-14.9 19.5-10.1 34-17.7 45.7-37.3 1.2-2 7.5-15 6.6-15.9z" class="outline" data-original-prefix="shading" opacity=".2"/></g><g class="trait-group" data-category="jaw"><path id="outline-jaw1" fill="#000" d="M685 1126c.2 0 1 1.5 2.2 2.2 4.7 2.7 8.7.5 9.7 8.4.6 5.1-2.7 26.3-4.4 31.4-2.8 8.6-17 13.5-21 21-1.2 2.3-7.8 31.1-7.5 33.3.4 3.4 9.5 19 11.8 23.3 4.4 8.2 15.3 29.4 20.7 35.3 9.5 10.3 60.5 26.3 75.9 31.1 29.2 9 59.3 17.4 90 18 29.3-10.7 57.9-23.1 87.2-33.8 16.6-6 42.9-17.7 59.8-17.3 21.9.5 35-1 56.2 5.8 39.5 12.7 77.8 29.4 116.4 44.6 46.7-.8 99.9-16.6 143.1-34.6 5.7-2.4 21.2-9 25.2-12.8 4.6-4.5 15-24.5 18.7-31.3 2.7-4.9 14.7-25.5 14.9-29.2 0-1.7-6.8-30.9-7.6-32.4-3.6-6.8-19-13.6-21.2-20.8-1.7-5.6-5-27.5-4.2-32.7 1-6.5 5.7-5.1 9.7-7.3 1.2-.7 2.1-2.1 2.2-2.2 2.3-1.2 6.9-4.1 9.1-2.6 2.4 1.7.2 26 1.4 30.6 6.9 5 22.7 5.9 26 14 1.1 9.9.5 20.6 1.6 30.4.3 2.9 1 10.8 2.2 12.8 1 1.8 3.1 2.2 4.3 3.7 26.6 31.1 46.5 67.2 61.9 105.1 2.3 5.6 7.6 17.3 8.3 22.7.2 1.4.3 2.7-.6 3.9-24.7 33.2-47.1 68.3-68 104-2.9 4.9-18.6 36-20.4 37.1-3.5 2-13.7-4.6-17.5-3.1-10.9 9.5-22.5 18.2-33.3 27.8-4.6 4-16.5 13.5-19.4 17.6-5 7.1-14.8 34.1-18.3 43.7-4.2 11.1-7.7 22.4-11.3 33.7-32.1 13.9-63.4 31.2-92.5 50.5-20.4 13.5-36.7 25.2-52.5 43.5-9.8 11.4-37.1 18.8-51.9 25.1-22.8 9.6-45.2 20.4-68.5 28.3l-111.2-45.6c-6.9-2.5-9.5-12.1-13.6-15.9-1-.9-2.9-1.1-4.2-2.3-38-35.4-88.6-61.7-135.5-83.5-7.9-26.5-18.8-52-29.6-77.4-17.4-15.7-35.2-31-53.5-45.5-3.5-1.2-13.5 6.1-17.5 2.5-26.4-48.4-54.7-96.1-87.7-140.3-.8-1.3-.8-2.5-.6-3.9.7-5.4 6.1-17.1 8.3-22.7 14-34.4 31.7-67.2 54.5-96.5 8.8-11.4 12.5-9.5 14-26 .9-9.8 0-20.6 1.5-30.5 4.2-7.9 25.3-7.7 26.5-16.5.5-3.9-1.1-7.1-1-10.1 0-5.3 2-11.7 1-17.5 3.8-.6 6.8 1.5 10 3h.2Zm26 177c-17.7-4-27.7-14.6-39-27.5-9.7-11-18.5-22.9-27.6-34.4l-2.4-1.1c-14.2 23.4-27.2 48-36.8 73.8-2.4 6.3-7.3 18.9-8.1 25-.2 1.9 0 2.2.7 3.8 2.5 5.3 11 14.5 14.9 20.1 8.8 12.8 18.4 26.2 26.6 39.4 10.1 16.2 18.6 35.2 29.2 50.8 3.8 5.6 6.9 9.3 13.3 3.4-3.9-12-9.5-23.8-13.9-35.8-1.9-5.2-10.4-27.1-9.8-30.8 1-6.2 13.2-27.5 17-34.1 10-17.3 21.8-31.7 33.2-47.8.7-.9 3.3-4.1 2.6-4.9Zm626 0c-1.3 1.4 7.1 10.4 8.4 12.1 11.3 15.2 23.1 32.3 32.1 48.9 2.8 5.1 11.5 21.2 12.3 25.8.6 3.5-6.1 20.1-7.8 24.8-2 5.7-16.5 39.7-15.9 41.8 1.1 3.9 8.3 3.4 11.3-.4 10.1-12.7 19.7-35.6 28.8-50.2 8.9-14.4 19.3-29 29-43 3.9-5.6 12.4-14.8 14.9-20.1.8-1.6 1-1.9.7-3.8-.8-5.8-5.8-19-8.1-25-9.4-25.2-22.5-52-38.3-73.7-10 12-19.2 24.7-29.5 36.5-11.2 12.7-20.7 22.3-38 26.5v-.2Zm-491 154c8.7 57.8 16.5 116.1 34.8 171.8 2.2 6.6 6.3 21.3 9.4 26.6 2.7 4.6 26.2 27.4 31.3 31.7 9.1 7.6 50.2 24.8 63 29 7.7 2.6 32.8 9 39.9 8.9 8-.2 32.3-6.6 40.6-9.4 12.9-4.5 44.9-17.4 55.9-24.1 4.2-2.5 34.2-31.6 36.5-35.5 4.4-7.4 10-28 12.8-37.2 16.2-52.6 23.2-107.1 31.7-161.3 1.1-1.1 2.3.2 3.3.7 7.5 3.5 21.8 19.7 28.1 19.9 3 0 10.6-3.1 13.8-4.3 11.5-4.4 25.3-12.6 36-19 6.1-3.6 26.4-19.1 31.3-19.8 2.6-.4 13 2 16 2.9 8.6 2.8 18.6 9.2 27 13l13.4-38.5c2.5-10.5 1.2-15.2-3.4-24.5-6.6-13.3-16.9-27.2-26.1-38.9-4.2-5.3-28.4-34.3-32.9-34.7-42 13.6-84.9 24.9-128.9 30.3-35-17-71.2-35.9-108.1-48.7-53.5-18.5-85.5-4.9-134.2 15.8-23.5 10-46.2 21.3-69 32.8-28.7-3.5-56.7-9.6-84.6-16.9-13-3.4-28.2-9.8-40.7-12.3-1.5-.3-2.9-.7-4.5-.5-2.1.3-13.7 12.4-16.1 15-12.1 13-41 49.3-45.5 65.5-5 17.8 9.9 37 12.1 54.5 1.9 1.6 24.2-10.6 28.4-12 3.2-1.1 13-3.4 16-2.9 4.8.8 20.3 13.2 25.7 16.4 11 6.7 24.3 14.8 36 20.1 3.9 1.8 14.8 6.5 18.5 6.6 8.2.2 23-19.4 32.4-21.1Zm-5 44c-1.5-1.6-11.9 6.6-15 4.5-25.7-22.4-56.2-40.4-87.8-53.3-3.1-.3-21.8 8.5-25.9 10.6-3.3 1.6-14.7 7.3-16.7 9.1-2.1 1.9 3.8 4.4 5.8 6.1 18 14.8 36 30.2 52 47l26 69c35 15.1 65.2 38.4 97 59-19.3-48.5-28.3-100.3-35.5-152zm512-29c-14.7-6.6-28.6-16.2-44.2-19.9-30.7 13.7-60.4 30.3-85.8 52.3-5.5 2.5-14.6-4.9-16-3.5-7.7 51.5-15.8 103.7-36 152l58.7-38.8 39.1-20.4c9.2-20.8 14.7-48.4 25.4-68.1 5.2-9.6 37.2-35.2 47.4-43.6 3.1-2.6 8.3-5.6 10.8-7.9.8-.8.9-.7.6-2.1" class="outline" data-original-prefix="outline"/></g>
<g class="trait-group" data-category="mouth"><path id="fill-muzzle" fill="#fff" d="M1038 1292s-.4 1.7.7 2c10.3 2.8 18 4.3 25.8 13 1.9 2.2 4.9 8.8 6.5 9.5 2.6 1.2 6.6 0 9.5.5 11.4 1.5 21.2 3.7 31.2 9.8 2.1 1.3 9.2 7.8 10.2 7.1.3-.3 0-1.7 0-1.9 2.4-1.8 32.7.6 38 1 5.2 4.2 13.2 5.5 19.2 8.3 13.7 6.4 22.5 16.1 29.9 29.1 8.4 14.6 7.7 17.8 3.1 33.4-2.5 8.5-4.8 21.8-16.3 20.2 1.5-15.5-14.8-32.4-26.5-41-3.2-2.4-11.3-7.2-6 0 10.8 14.7 20.2 14.8 21.5 37.5.6 10.3-8.4 32.9-15.4 40.5-.6.7-7.1 6.3-7.6 6.5-3 1.6-6.9-6.1-7.8-8.2-3.6-7.8-4.7-15.5-9.7-23.3-1.1-1.7-10.8-13.7-12.4-12.1 5.6 13 9 46.2-2.5 56-4.4 3.7-9.4 1.9-13.3 3.7-2.8 1.3-3 5.7-4.8 6.1s-7-3.1-9.4-3.5c-8.9-1.3-13.2 17-18.7 17.5-2.5.2-10.7-11.9-18.4-9.4-7 2.2-15.4 21.2-24.4 23.6-6.3-6-3.4-14-5.8-21.2-1.2-3.5-4.2-6.7-5.8-10.2-5.4-12.7-2.8-19.9-.2-32.2.6-3 0-5.9.9-9.1.2-.7 6.3-12.3 6.9-13.1 3.7-5.4 19.2-12.4 22.7-3.8.9 2.2 0 8.7 2.2 7.7 5.1-4.9 10.2-9.9 15.5-14.5 11.5-10 14.1-9.7 21.2-24.8 1.5-3.3 6.5-14.5 6.6-17.3 0-3.4-9.2-14.7-11.8-17.8-1.4-1.7-9.5-11.5-10.2-11.8-6.4-3.2-28-2.3-34.7.8-7.9 3.6-12.5 12-19 17-1 .8-1.3 1.9-3 1.5l.8-12.7c3.6-4.3 21.7-23.3 21.1-27.5-.4-2.6-11.3-13.4-12.9-11.7 4.4 12.8.7 8.7-7.3 12.2-1.2.5-2.9 2.7-3.2 2.7s-2-2.2-3.2-2.7c-3.4-1.5-9.7-.4-9.3-5.6 0-1.1 4.1-7.6.5-6.6-2.8.8-12 9.9-11.3 13.2 0 .6 4 7 4.8 8 1.5 2 5 5.9 7 8.3 3.2 3.9 9.7 7.6 9.9 13.1 0 1.6-.8 3.1-.8 4.8s2.6 8.1-2.5 3.6c-6.2-5.3-10.2-13.6-18.5-17.5-6.5-3-30.3-4.3-35.7-.2-.8.6-8.8 10.5-10.2 12.2-2.4 3-10.9 13.7-10.8 16.8.2 5.4 11.7 29 15.7 33.2 3 3.2 9.3 6.8 13 9.9 5 4.3 9.7 9.1 14.5 13.5l4.2-11.1c4.9-3.1 17.7 2.6 20.8 7.1 1 1.5 5.1 9.9 6 11.9 2.8 6.4 5.1 25.4 4.4 32.4-1.1 10-7.9 15-9.4 22.6-1.3 6.4 1.1 14.9-5.8 18.9-8.1-2.6-17.3-21.5-23.6-23.5-8.2-2.6-15.9 9.6-18.4 9.4-5.3-.4-8.7-14-13.9-16.1-6.9-2.8-11.5 2.7-14.1 2.1-1.8-.4-2-4.8-4.8-6.1-4.5-2-9.6.3-14.3-4.7-10.9-11.5-6.5-42.2-1.5-56.1-9.1 6.7-14.1 14.8-18.5 25-1.6 3.6-2 7.5-3.7 11.3-1 2.1-4.9 9.8-7.8 8.2-.4-.2-6.9-5.9-7.5-6.5-3.9-4.3-13.8-24.4-15-30-2.8-12.9 1.4-26.5 9.5-36.5 4.1-5.1 11.3-9 13-15.5-2.4-2.4-22.3 17.4-24.4 20.1-5.4 6.8-11 15.9-9.6 24.9-8.3.5-10.7-3.3-13.3-10.2-2.7-7.1-7.8-22.8-6.2-29.8 3.7-16.2 21.4-35.8 36.3-42.7 6.2-2.9 13.9-4.1 19.2-8.3 12.5-.8 24.5-2.3 37-1 0 0 .7 2.1.5 3 9.5-8.2 20.6-14.8 33.1-16.9 4.7-.8 14.8-.4 18.1-1.8 1.6-.7 5.2-7.7 7.2-9.9 8-8.4 15.2-9.7 25.4-12.5 1.1-.3.6-1.9.7-2 1.1-.7 25.9-.7 27 0v.2Z" class="fill" data-original-prefix="fill"/></g><g class="trait-group" data-category="mouth"><path id="fill-teeth14" fill="#fff" d="M1039.1 1601.9c-.8-.5-7.2-15.4-7.9-17.6-4.2-13.6-7-37.9-1.5-51.1 5.8-13.9 10.8-1 20-5 1.9-.8 7.6-6.8 9.2-8.8 2.6-3 3.6-9.1 8-8 12.8 3.1 21.1 24.2 22 36.1 2.3 30.4-23.4 40.7-45.2 53.7-1.2.5-3.6 1.3-4.6.6Z" class="fill" data-original-prefix="fill"/></g><g class="trait-group" data-category="mouth"><path id="fill-teeth13" fill="#fff" d="M1015.7 1527.3c10.2 8.9 6 44.1 2.3 56.2-1.9 6.4-6 12-8.1 18.3h-2.3c-12.1-7.1-26.3-12.4-36.1-22.9-9.1-9.8-12.3-17.9-11.5-31.5.8-11.8 9-32.3 21.2-35.9 4.8-1.4 5.7 4.5 8.2 7.4 1.8 2.1 8.3 8.8 10.5 9.5 6 1.9 12.5-4.1 15.8-1.3z" class="fill" data-original-prefix="fill"/></g><g class="trait-group" data-category="mouth"><path id="fill-teeth12" fill="#fff" d="M904 1461c0 2.2-1.1 3.8-.8 6.2s7.4 22.5 8.8 24c3.7 4.1 11.1 2.3 15.9 2.9 4.9 13.5-4.3 23.9-8.6 35.6-2 5.3-8.4 33.1-12.8 34.3-3.3.8-11.7-18-12.8-21.2-6.8-20.9-8.8-51.8 1.8-71.7.6-1.2 7.1-11.6 8.4-10.1Z" class="fill" data-original-prefix="fill"/></g><g class="trait-group" data-category="mouth"><path id="fill-teeth11" fill="#fff" d="M1144 1564c-1 .7-1.8-.4-2.4-1.1-5.8-5.8-8.7-24.8-11.8-33.2-4.3-11.7-13.8-21.9-8.6-35.6 18.6 2.9 18.2-8.8 23.1-22.4l2.2-9.8c10.2 11.1 15.2 27.6 14.6 42.5-.5 13.7-3.2 35.3-9.5 47.5-.8 1.5-6.9 11.6-7.5 12Z" class="fill" data-original-prefix="fill"/></g><g class="trait-group" data-category="mouth"><path id="fill-teeth10" fill="#fff" d="M949 1569c5.5 22.1 11.4 45.4 9 68.5-.5 5-1.3 9.2-7 6.9-3.4-1.3-17.5-13.4-19.5-16.5-7.4-11.8.3-39.7 8-50.8 1.2-1.7 7-10.1 9.4-8.1Z" class="fill" data-original-prefix="fill"/></g><g class="trait-group" data-category="mouth"><path id="fill-teeth9" fill="#fff" d="M1100 1569c3.4-2.9 13.3 14.1 14.5 17 4.8 11.7 9.3 33.5 1 44-2.1 2.7-18.5 16.5-20.9 15.9-1.9-.4-3.4-6.5-3.6-8.4-1-8.7 0-26 1-35 1.1-10.9 6.5-22.5 8-33.5" class="fill" data-original-prefix="fill"/></g><g class="trait-group" data-category="mouth"><path id="fill-teeth8" fill="#fff" d="M1167 1547c.9-6.7-1-15-.6-21.3.3-6.3 3.7-14.6 3.6-21.2 0-5.7-4.8-19.5-4-24 .5-2.9 3.5-2.8 5.5-4.5 6.2-5.3 10.4-15.8 16.9-4.9 14.2 23.5-1 56.5-18.4 74.4-.9 1-1.3 1.9-3 1.5" class="fill" data-original-prefix="fill"/></g><g class="trait-group" data-category="mouth"><path id="fill-teeth7" fill="#fff" d="M881.7 1478.3c3.3 2.9-2.8 21-2.8 26.2s2.6 12.6 3.1 18c.7 8 0 16.5-.5 24.5-1.8 0-11.7-13.3-13.3-15.7-11.2-16.8-20.3-43.7-7-61.7 6.2-8.4 9.7.9 14 4.7 2 1.9 5.7 3 6.6 3.9Z" class="fill" data-original-prefix="fill"/></g><g class="trait-group" data-category="mouth"><path id="fill-teeth6" fill="#fff" d="M1018 1613v16.5c0 .9-10.8 13.2-11.9 14.1-6.3 4.8-8-2.6-10.6-5.5-5.5-6-17.9-.4-24.4-5.6-.9-.7-4.1-8.3-4.1-8.9v-24.5c12.3 3 28.7 18.5 41.4 16.9 3.5-.4 6.1-3 9.6-2.9Z" class="fill" data-original-prefix="fill"/></g><g class="trait-group" data-category="mouth"><path id="fill-teeth5" fill="#fff" d="M1102.5 1494c3.3-.8 5.3 8.5 6.3 10.7 5 10.5 15.3 30.3 11.4 42.1-2.2 6.7-15.6 23.4-20.4 11-4-10.4-4.1-44.7-1.1-55.5.4-1.6 2.4-7.9 3.8-8.2Z" class="fill" data-original-prefix="fill"/></g><g class="trait-group" data-category="mouth"><path id="fill-teeth4" fill="#fff" d="M917 1563c-1.6 13.5 2.8 27.4 2 40.5-.5 8.8-4.2 18.6-5.5 27.5-5.8-5.6-10.5-15.7-11.4-23.6-.6-5.2.7-25.8 2.4-30.3.6-1.6 10.5-16.2 12.4-14.1Z" class="fill" data-original-prefix="fill"/></g><g class="trait-group" data-category="mouth"><path id="fill-teeth3" fill="#fff" d="M1135 1631c-.4-8.9-4.4-17.8-5.1-26.5-1-13.6 3.6-27.7 2-41.5 2.2-2.4 11.9 13 12.5 15 2 6.8 2.7 27.3 1.2 34.3-1.3 6.3-5.5 14.8-10.8 18.7z" class="fill" data-original-prefix="fill"/></g><g class="trait-group" data-category="mouth"><path id="fill-teeth2" fill="#fff" d="M1154.1 1604.9c-3.4-2-5.1-22.3-3.9-26.2.8-2.6 8.9-5.2 10.2-8.8l5.1-10.9c3.8 3.4 5.1 7.2 4.3 12.2-.7 4.5-5.2 22.3-6.9 26.2-.9 2.2-6.1 9-8.8 7.5" class="fill" data-original-prefix="fill"/></g><g class="trait-group" data-category="mouth"><path id="fill-teeth1" fill="#fff" d="M885 1559c.4.4.7 7.1 3 10.5 2.7 3.9 10.5 6.9 11 10-.8 4.7-.7 23-4 25.4-2.5 1.8-7.7-4.5-8.7-6.7-1.6-3.6-6.3-22.5-7-27-.6-3.9 2.5-15.6 5.8-12.3Z" class="fill" data-original-prefix="fill"/></g><g class="trait-group" data-category="mouth"><path id="outline-shading-mouth2" fill="#000" d="M918 1443.5c.8 5.3 5.6 13.8 10.1 16.9 11.5 8.3 16.2-.3 22.4-9.4 2.5 5.4 3.4 11.5 6 17 1.4 2.8 5.7 12 7.5 5.5l4-11.5c1.6 7.5 6.3 15.4 11.5 21 4.3 4.7 18.8 15.4 24.6 9.6 2-2.1 8.3-17.9 10.8-22.2 1.2-2.2 7.8-13.8 9.7-13.3 1 .2 8.5 13.2 9.7 15.3 2.4 4.5 7.3 17.7 9.8 20.2 3.8 3.8 10.5.4 14.4-1.8 10.5-5.9 18.5-17.2 21.7-28.8l4.2 12.3c.3 1.2 1.9 2.4 2.8 1.7.6-.4 5.8-11.3 6.5-13 .8-2 2.8-12 4-12 6.8 10.7 12.9 18.4 24.5 7.5 8.6-8 9.3-23.8 7-34.5 3.5-3.1 21.1 16.1 26.6 16.9 9.1 1.4 17.6-11.8 19-19.9 3.5-20.5-12.9-39.2-30.9-46.2l-12.7-4.8c15.4 0 28.2 2.9 41.1 11.4 4.8 3.1 12.2 10.9 17.6 11.4 6.2.6 10.1-4.1 10-10-.4-19.3-25.8-38.1-39.7-48.8 15.4 2.4 34.6 11.8 45 23.5 7.8 8.8 19.1 25.1 19.1 37s-6.4 28.5-9.2 32.8c-3.3 5.3-11.7 5.4-13.4 10.6-.9 8.1-2.1 16.4-2.5 24.5-1.5 29 1.4 45.2-10.8 73.2-3.6 8.2-12.7 20.4-14.9 27.1-4.2 12.8-.7 26.4-9.1 38.9-3.2 4.8-8.4 6.7-11.2 10.8-1.7 2.5-2.4 6.1-4.2 8.8-4.5 6.7-14.6 23-21.6 8.9-1.6-3.3-1.3-12.9-6.7-6.2-1.4 1.7-1.9 4.4-3.5 6.5-3.7 4.7-17.7 19.6-23.5 19.5-2.2 0-4.5-4.1-6.6-5.4-7.9-5-21.1-6.3-29.2-1.4-7.3 4.4-9.5 13.6-18.1 6.8s-6.4-10.8-20.1-9c-5.6.7-11.4 12.6-16.9 12.1-2.8-.2-11.4-11.1-18.5-12.6-6.3-1.3-17.5.7-23 4.2-2.6 1.7-4.1 5.6-7.5 5.4-5.7-.3-19.8-15.8-23.6-20.5-1.2-1.5-4.4-10.6-7.1-6.9-2.5 3.4-.6 9.9-7.2 12.7-7 3-14.9-11.2-18.1-16.4-1.2-1.8-1.2-4.3-2.6-6.4-2-3-6.8-5.4-9.5-8.5-10.4-11.9-6.7-27.7-10.7-41.3-.8-2.6-5.6-8.5-7.3-11.7-18.4-35.7-16.4-45.6-18.4-84.6-.4-7.7-.6-20.7-2.2-27.8-1.5-6.2-11.1-6.1-14.2-11.8-3.4-6.1-9.3-29.6-8.6-36.4 1.2-10.3 16.2-31.2 24-38 10.5-9.2 26.2-16.5 40-18.5l-21.5 17c-7.2 6.4-26.8 32-14.8 39.9 9 5.9 16.7-4.5 23.7-9.1 12.7-8.4 25.3-11.8 40.7-11.8l-17.3 7.2c-18 9.4-33.1 32.7-22.1 52.8 1.7 3.1 8.6 10.4 12 11.1 9.1 1.7 20.7-15.4 29.5-18 .6 6.4-.9 14.3 0 20.5zm-37.1 40.6c-12.3-.5-17.1-20.2-22.8 1.5-3.4 13 1.2 26.4 9.4 36.5 1.5 1.8 12.7 13.1 13.9 12.9.8 0 2.5-2.3 2.8-3.2 2.9-7.1-3.2-12.2-4.2-19.2-1.5-9.8 0-18.7.9-28.4Zm301.8-8.9c-3.2.8-6.3 6-8.8 7.3-2.1 1.1-7.2 1-7.8 3.2-.5 1.7 3 10.8 2.9 14.8 0 3-1.5 13.9-2.2 16.8-.9 3.6-3.9 5.7-3.9 10.2s1.4 7.1 3.7 7.4c1.9.3 15-14.4 16.8-17 5.7-8.5 9-18.8 7.3-29.2-.5-3-4.4-14.5-8-13.6Zm-284.8 10c-4-2.3-6.5 9.9-6.8 12.5-1.2 10.5 3 38 8.7 47.1 1.9 3 5.4 6.9 9.2 7.3 3.7-15.6 12.6-29.2 21-42.5-2.3-.4-1.7-2.9-2.7-3.5-1.5-.9-7-1.9-9.7-3.1-4.7-2.2-12-7.7-15.6-11.4-1.2-1.2-3.8-6.2-4.2-6.3ZM1139 1552c8.3-2 11.9-12.2 13.9-19.6 3.1-12.1 6.1-33.4 1.1-44.8-3-6.9-5.8 1.7-8.3 4.1-3.9 3.8-11 9.3-16 11.6-2.5 1.1-7.8 1.8-9.1 2.7-.7.5-.5 1.8-1 2.7-.3.4-1.7.4-1.6.9 0 1 7.9 12.3 9.2 14.8 4.8 8.8 9.1 18 11.8 27.7Zm-197.7 5.7c8.1 8.1 9.5 0 10.5-7.3.8-5.6 2.7-20.6 1.7-25.4-3.6-17.2-21.3-15.9-21.6 3.6 0 6.8 4.6 24.3 9.4 29.2Zm161.5-44.5c-5 1.3-8.5 9.3-8.8 14.2-.2 4 2.4 28.5 3.8 31.3 2.5 5 7.5 0 9.8-2.7 6.8-8.3 11.6-30.7 4.5-39.5-2.7-3.3-4.8-4.4-9.2-3.3zM1023 1544c-.7-.7-.8-7-5.1-9.4-8.9-5-21.8-.8-32-4-10.4-3.3-9.4-13.1-16.1 1.8-2.9 6.4-9.1 24.4-6.3 30.7 1.1 2.4 17.8 15.6 21.2 17.8s18.2 11.7 21.1 10c3.1-5.6 9.3-9.5 12.6-14.9 1.8-2.8 4.1-11.5 4.6-11.9 1.6-1.7 1.7.5 2.1 1.4 1.6 3.6 2.1 6.8 4.5 10.5 3.3 5.2 9.2 9.3 12.4 14.6 3.1 1.9 15.5-5.9 18.9-8.1 4.5-2.9 22.9-17 23.9-21.1 2.2-9.7-6.6-28.3-10.9-37.2-4.9 1-7.8 5.2-12.7 6.7-9.2 2.8-28.2-1.6-33.7 6.3-.9 1.2-2.6 8.9-4.5 7zm-136 18c-.7-.6-3.5 0-4.5.9-6 6.2 2.4 31.6 14.6 27.6 4-1.3 3.8-9.4 2.8-12.9-1.1-3.9-7.2-4.1-9.8-7.2-2.1-2.5-2.7-8.2-3-8.5Zm274.1 0c-.3.3-.9 6-3 8.5-2.6 3.1-8.7 3.3-9.8 7.2-1 3.4-1.2 11.6 2.8 12.9 13.4 4.4 20.2-24.5 14.1-28.1-.9-.5-3.5-.9-4-.4Zm-216.4 7.2c-1.5.4-5.1 4.6-6 6.1-3.4 5.6-5.6 32.3-4.8 39.3 1.3 10.9 15.2 18 19.5 3.5 1.7-5.6 2.6-21.4 2.5-27.6 0-1.1-5.8-19.7-6.5-20.5-1.2-1.4-3.2-1.3-4.8-.8Zm153.3-.1c.2 6.6-5.4 14.7-6 20.6-.5 4.5 1 25.3 2.4 29.4 4.2 12.1 16.9 7.3 19.1-2.9 1.1-5.2 0-16.8-.6-22.6-1-9.7-1.7-25.5-14.9-24.5m-180 1.9c-20.5 3.8-17 28.7-9 43 4 2.9 10.4-17 10.7-19.8.9-7.5-2.9-15.5-1.8-23.2Zm218 43c2.5 1.8 7.2-9.1 7.7-10.8 3.9-12.8 1.6-30.1-13.7-32.2.5 7.4-2.8 16.2-1.9 23.4.3 2.7 6.4 18.5 7.9 19.6m-148.2 10.2c1.4.8 4.8 8.6 9.5 11 11.1 5.8 20.2-6.4 20.7-16.7.8-13.7-7.2-7.7-16.5-8.6-8.4-.8-15-4.8-21.8-9.2-5.5-3.5-13.6-14.6-14.7-1.4-.5 5.1 1.4 7.5 1.8 11.2s-2 5.9.5 10.7c4.8 9.3 18 1.3 20.7 2.8zm93.1-31.1c-2.1-1.5-19.7 12.7-23.9 14.4-2.3 1-7.9 2.3-10.5 2.5-10.5.9-18.8-5.4-16.4 11.4 1 7.3 7.9 15.8 16 15.1 9.4-.8 11.9-11.6 14.6-12.4 4-1.3 12.3 5.7 18.9-1.1 4.3-4.4 1.3-8.4 1.5-12.5 0-2.3 1.9-4.8 2-8.1 0-1.9-.8-8.5-2.2-9.4Z" class="outline" data-original-prefix="shading" opacity=".2"/></g><g class="trait-group" data-category="mouth"><path id="outline-shading-mouth1" fill="#000" d="M1041 1343c6.1.5 12.7-1 17.5-5 1.5-1.3.9-3.7 2.8-2.9 10.1 7.9 37.9 17.4 43.8 28.2 3.6 6.5 4.6 17.5-1.8 22.6-5.6 4.5-20.8 10.8-28 15-4.9 2.8-9.7 6.6-14.7 9.3-7.4 4.1-25.5 14.5-32.6 16.4-2.9.8-5.2.8-8.1 0-14.5-3.8-42.2-22.5-56.3-30.7-6.2-3.6-21.2-9.1-23.2-15.8-5.5-18.4 15.7-28.3 28.7-35.4 2.3-1.2 15.5-8.6 16.5-8.7 2.9-.3 4.2 2.9 6.7 4.2 4.2 2.3 10 3.2 14.7 2.8-.3-5.1-3.3-11.3-1.8-16.3.5-1.6 12.5-13.9 14.5-14.4 3.9-1 8.2-.3 11.6 1.9 1 .7 10.8 11.1 11.2 11.8 2.1 5-1.2 11.8-1.5 17" class="outline" data-original-prefix="shading" opacity=".2"/></g><g class="trait-group" data-category="mouth"><path id="outline-mouth3" fill="#000" d="M889 1333c-5.3 4.2-13 5.4-19.2 8.3-14.9 6.9-32.6 26.5-36.3 42.7-1.6 7 3.5 22.7 6.2 29.8 2.6 6.9 5 10.8 13.3 10.2-1.4-9 4.2-18.1 9.6-24.9 2.1-2.6 22-22.5 24.4-20.1-1.7 6.5-8.8 10.4-13 15.5-8.1 10-12.3 23.6-9.5 36.5 1.2 5.6 11.1 25.8 15 30 .6.7 7.1 6.3 7.5 6.5 3 1.5 6.9-6.1 7.8-8.2 1.7-3.8 2.1-7.7 3.7-11.3 4.4-10.2 9.4-18.4 18.5-25-5.1 13.9-9.5 44.6 1.5 56.1 4.8 5 9.9 2.7 14.3 4.7 2.8 1.3 3 5.7 4.8 6.1 2.6.6 7.2-4.9 14.1-2.1 5.2 2.1 8.6 15.6 13.9 16.1 2.5.2 10.2-12 18.4-9.4 6.3 2 15.5 20.8 23.6 23.5 6.9-4 4.5-12.6 5.8-18.9 1.5-7.6 8.3-12.6 9.4-22.6.8-7-1.6-26-4.4-32.4-.9-2.1-5-10.5-6-11.9-3.1-4.5-15.9-10.2-20.8-7.1l-4.2 11.1c-4.8-4.4-9.5-9.2-14.5-13.5-3.7-3.2-10-6.8-13-9.9-4-4.2-15.5-27.8-15.7-33.2 0-3.1 8.4-13.8 10.8-16.8 1.4-1.8 9.5-11.6 10.2-12.2 5.4-4.1 29.2-2.8 35.7.2 8.4 3.8 12.4 12.1 18.5 17.5 5.2 4.5 2.5-1.7 2.5-3.6s.9-3.2.8-4.8c-.2-5.4-6.7-9.2-9.9-13.1-2-2.4-5.5-6.3-7-8.3-.8-1-4.7-7.3-4.8-8-.7-3.3 8.6-12.4 11.3-13.2 3.6-1-.5 5.5-.5 6.6-.4 5.2 5.9 4.1 9.3 5.6 1.2.5 3 2.7 3.2 2.7s2-2.2 3.2-2.7c8-3.5 11.7.6 7.3-12.2 1.6-1.7 12.5 9.1 12.9 11.7.6 4.2-17.5 23.2-21.1 27.5l-.8 12.7c1.7.4 2-.7 3-1.5 6.5-5 11.1-13.4 19-17 6.8-3.1 28.3-4.1 34.7-.8.7.3 8.8 10.1 10.2 11.8 2.6 3.1 11.9 14.4 11.8 17.8 0 2.8-5 14.1-6.6 17.3-7.1 15.2-9.7 14.8-21.2 24.8-5.3 4.6-10.4 9.6-15.5 14.5-2.2.9-1.4-5.6-2.2-7.7-3.4-8.6-19-1.6-22.7 3.8-.6.8-6.7 12.4-6.9 13.1-1 3.2-.3 6.1-.9 9.1-2.6 12.3-5.2 19.6.2 32.2 1.5 3.5 4.6 6.8 5.8 10.2 2.5 7.2-.5 15.2 5.8 21.2 9-2.3 17.4-21.3 24.4-23.6 7.7-2.4 15.9 9.6 18.4 9.4 5.6-.5 9.8-18.8 18.7-17.5 2.3.3 7.6 3.9 9.4 3.5s2-4.8 4.8-6.1c3.9-1.8 8.9 0 13.3-3.7 11.5-9.9 8.1-43 2.5-56 1.6-1.7 11.3 10.4 12.4 12.1 5.1 7.8 6.1 15.5 9.7 23.3 1 2.1 4.8 9.8 7.8 8.2.4-.2 6.9-5.8 7.6-6.5 7-7.6 16-30.2 15.4-40.5-1.3-22.7-10.7-22.7-21.5-37.5-5.3-7.2 2.8-2.4 6 0 11.8 8.6 28 25.5 26.5 41 11.4 1.6 13.7-11.7 16.3-20.2 4.6-15.6 5.3-18.8-3.1-33.4-7.4-13-16.3-22.7-29.9-29.1-6-2.8-14.1-4.1-19.2-8.3 9.3.7 19.7 2.8 29.2 5.3 7.4 1.9 14.4 3.9 20.7 8.3 3.2 9.3 27.6 34.6 28 42 .2 3.7-8.2 22.5-10 27.9-2.5 7.2-2.6 16-10 21-1.9 1.3-8.4 2-9 3.2-4.1 7.9-1.4 38-1.9 48.8-1.1 21.6-7.6 43.1-20.5 60.5-.9 1.2-2.6 1.5-3.6 2.7-4.3 5.6-2.8 18.6-4.3 26.5-1.2 6-5 13.1-5.6 18.4-.4 3.5 1.3 7.7.8 9.7s-10.7 8.6-13.2 9.9c-2.2 1.2-5.7 1.5-6.5 2-.6.4-5.4 10.9-7.2 13.3-2.1 2.7-11.1 11.3-14 12.1-4.1 1.2-7.9-10.3-9.9-13s-2.3 2.3-3.6 4.3c-4.3 6.7-25.1 26.6-32.4 28.6-1.7.5-3.3.7-5 .5-.4-5.9 3.2-9.9-1.5-15.1-8.2-9-20.9-.3-24.3 8.8-1.8 4.9-1.6 20-8.6 18.1-4.6-1.3-20-25.6-23.2-30.8-5.7 8.9-12.2 19.9-19.5 27.4-11.2 11.7-9.9-11-13.8-18.2-3.8-7.1-14-12-21.1-6.7-6.7 5-2.9 9.6-3.1 16.4-3.5 3.5-24.3-13.8-27.5-17-1.3-1.3-10.5-12.2-11-13-.7-1.4-.2-6.3-2.6-3.3-2.1 2.7-6.2 14.3-10.2 13.3s-12-10.2-13.7-12.4c-2.1-2.7-6.6-12.8-7.2-13.2-.8-.5-3.8-.6-5.8-1.7-2.3-1.2-11.9-7.4-13-9-2.1-3.2.4-6.9 0-11-.7-6.8-5.9-15.3-6.8-24.2-.5-5 .6-10.7-.6-15.4-1-4-8-10-10.7-14.3-15.3-24.4-17.6-52.1-17.9-80.2 0-5.4 3-18.2 0-22.8-.8-1.2-7.8-1.9-10.4-3.8-7.2-5.3-6.2-13-8.6-20.4-1.9-6-10.7-24.3-9.8-28.7.5-2.7 4.3-7.5 6-10.1 7-10.8 15.7-20.6 22.5-31.5 5.9-4.3 13.2-6 20.1-7.9 9.7-2.6 19.8-4.7 29.2-5.3h.2Zm15 128c-1.4-1.5-7.8 8.9-8.4 10.1-10.6 19.9-8.6 50.8-1.8 71.7 1.1 3.3 9.4 22.1 12.8 21.2 4.4-1.1 10.8-28.9 12.8-34.3 4.3-11.7 13.6-22.1 8.6-35.6-4.8-.6-12.2 1.2-15.9-2.9-1.4-1.5-8.5-21.7-8.8-24s.8-4 .8-6.2Zm240 103c.6-.4 6.8-10.5 7.5-12 6.3-12.1 9-33.7 9.5-47.5.6-14.9-4.3-31.4-14.6-42.5l-2.2 9.8c-4.9 13.6-4.6 25.2-23.1 22.4-5.2 13.7 4.3 23.9 8.6 35.6 3.1 8.4 6 27.5 11.8 33.2.7.7 1.4 1.8 2.4 1.1Zm-262.3-85.7c-1-.9-4.6-2-6.6-3.9-4.2-3.9-7.8-13.1-14-4.7-13.3 17.9-4.1 44.9 7 61.7 1.6 2.4 11.5 15.7 13.3 15.7.5-8 1.2-16.5.5-24.5-.4-5.4-3.1-12.3-3.1-18s6-23.3 2.8-26.2ZM1167 1547c1.7.4 2-.5 3-1.5 17.4-17.9 32.6-50.9 18.4-74.4-6.5-10.8-10.8-.4-16.9 4.9-2 1.7-5 1.6-5.5 4.5-.8 4.5 4 18.3 4 24s-3.3 14.8-3.6 21.2c-.3 6.3 1.6 14.6.6 21.3m-64.5-53c-1.4.3-3.3 6.6-3.8 8.2-3 10.7-2.9 45.1 1.1 55.5 4.8 12.4 18.2-4.3 20.4-11 3.9-11.7-6.4-31.5-11.4-42.1-1-2.2-3-11.4-6.3-10.7Zm-86.8 33.3c-3.2-2.8-9.7 3.2-15.8 1.3-2.1-.7-8.7-7.5-10.5-9.5-2.6-2.9-3.4-8.8-8.2-7.4-12.2 3.5-20.5 24.1-21.2 35.9-.9 13.6 2.4 21.7 11.5 31.5 9.8 10.4 24 15.7 36.1 23h2.3c2.1-6.4 6.2-12 8.1-18.4 3.7-12.2 7.9-47.3-2.3-56.2zm23.4 74.6c1.1.7 3.4 0 4.6-.6 21.8-13.1 47.5-23.3 45.2-53.7-.9-11.9-9.2-33-22-36.1-4.4-1.1-5.5 5-8 8-1.7 1.9-7.3 7.9-9.2 8.8-9.2 4-14.3-9-20 5-5.4 13.2-2.6 37.5 1.5 51.1.7 2.2 7.1 17.1 7.9 17.6ZM885 1559c-3.2-3.3-6.4 8.4-5.8 12.3.7 4.5 5.4 23.4 7 27 1 2.2 6.2 8.5 8.7 6.7 3.4-2.4 3.2-20.7 4-25.4-.5-3.1-8.3-6.1-11-10-2.3-3.5-2.6-10.1-3-10.5Zm269.1 45.9c2.7 1.5 7.8-5.3 8.8-7.5 1.7-3.8 6.1-21.6 6.9-26.2.8-5-.5-8.8-4.3-12.2l-5.1 10.9c-1.4 3.6-9.4 6.1-10.2 8.8-1.2 3.9.5 24.2 3.9 26.2M917 1563c-1.9-2.2-11.8 12.5-12.4 14.1-1.7 4.6-3 25.2-2.4 30.3.9 7.9 5.6 18 11.4 23.6 1.4-8.8 5-18.6 5.5-27.5.8-13.1-3.7-27.1-2-40.5Zm218 68c5.3-3.9 9.4-12.4 10.8-18.7 1.5-7 .8-27.4-1.2-34.3-.6-1.9-10.4-17.4-12.5-15 1.5 13.8-3.1 28-2 41.5.7 8.7 4.6 17.6 5.1 26.5zm-186-62c-2.4-2-8.2 6.4-9.4 8.1-7.7 11.1-15.4 39-8 50.8 2 3.2 16 15.2 19.5 16.5 5.6 2.2 6.5-1.9 7-6.9 2.4-23.1-3.5-46.4-9-68.5Zm151 0c-1.5 11-6.9 22.6-8 33.5-.9 9-2 26.3-1 35 .2 1.9 1.7 8 3.6 8.4 2.4.6 18.8-13.3 20.9-15.9 8.3-10.5 3.8-32.3-1-44-1.2-2.9-11-19.9-14.5-17m-82 44c-3.5 0-6.1 2.5-9.6 2.9-12.7 1.6-29.1-13.9-41.4-16.9v24.5c0 .6 3.2 8.2 4.1 8.9 6.5 5.2 18.9-.4 24.4 5.6 2.6 2.9 4.3 10.3 10.6 5.5 1.1-.8 11.9-13.1 11.9-14.1v-16.5Z" class="outline" data-original-prefix="outline"/></g><g class="trait-group" data-category="mouth"><path id="outline-mouth2" fill="#000" d="M1122 1332c-.2 0 .2 1.6 0 1.9-1 .8-8.1-5.8-10.2-7.1-10-6.1-19.8-8.3-31.2-9.8-2.9-.4-6.9.7-9.5-.5-1.5-.8-4.5-7.4-6.5-9.5-7.8-8.7-15.6-10.2-25.8-13-1.1-.3-.6-1.9-.7-2 3.1-3.8 16.2-9.3 20.8-9.8 7.9-.9 5.5 4.4 6.5 9.1 2.3 10.7 9.3 19.6 21.3 18.8 5.1-.3 5.6-4 7.9-4.1 1.4 0 6.6 2.9 8.2 3.8 9.4 5.2 15 12.5 19.3 22.2z" class="outline" data-original-prefix="outline"/></g><g class="trait-group" data-category="mouth"><path id="outline-mouth1" fill="#000" d="M1011 1292s.4 1.7-.7 2c-10.2 2.8-17.4 4.1-25.4 12.5-2 2.1-5.6 9.2-7.2 9.9-3.4 1.4-13.5 1-18.1 1.8-12.5 2.1-23.6 8.7-33.1 16.9.2-.9-.5-2.8-.5-3 .8-2.7 8.7-13.3 11-15.6 2.5-2.4 14.7-10.5 17.6-10.4 2.7 0 3 5.1 11.9 3.9 10-1.3 16.2-10.1 17.5-19.6.4-2.6-2.4-6.7 2.8-8.2 3.5-1 21.7 5.6 24.3 9.8Z" class="outline" data-original-prefix="outline"/></g>
<g class="trait-group" data-category="eyes">
  </g><g class="trait-group" data-category="eyes"><!-- Semantic Classes:
    - fill: Areas that can be colored by the user (default: white)
    - shading: Areas that provide depth/shading (default: gray, 50% opacity)
    - outline: Lines that define the shape (default: black)
  --></g><g class="trait-group" data-category="eyes">
  
  
  </g><g class="trait-group" data-category="eyes"><path id="fill-eyes-main" d="M1421.5,1220.6c-.3.6-8.8,2-10.4,2.1-4.8.4-15.8-1.8-18,3-2.8,30-4.2,58.5-16.7,86.3-10.3,23-35.2,57.7-58.2,68.8-30,14.6-98,10-129.5-.9-21.7-7.5-62.4-49.9-79.2-67.8-14.7-15.6-36.7-38.2-49-55-2.3-3.1-2.7-8.1-3-8.5-1-1-6.2,1.2-7.9.5-.6-.3-9.2-8-10-9-4.5-5.8-2.4-10.3-12.6-9.6-6.6.5-5.5,5.8-9.5,10.5-.9,1-8.4,7.8-8.9,8-4,1.5-8.1-3.5-15.1,4-18.2,19.5-35.3,41.4-53.9,61.1-19.6,20.7-56.2,59.4-82.8,67.2-31.3,9.1-92.1,13.6-121.9.5-28.7-12.7-59.2-59.7-67.8-89.2-6.3-21.6-6.6-45.2-9.7-67.3-2-3.1-15.1-2.3-19.2-2.8-1.7-.2-7.5-1.2-8.4-2.1-2.5-2.5-2.8-27.2-4.3-32.3-.2-1.4.3-1.4,1.3-1.8,5.7-2.5,20.8-1.6,25.3-5.7,6-11.4,9.3-26.8,19.4-35.6,2.6-2.2,6.7-2.1,4.6-5.5-2.7-4.3-20,0-21.5-7.5-1.3-6.8,5.7-32,8-39.9,7.8-26.3,27.3-70.8,46.9-90.1,6.5-6.4,7.6-3.2,14.5-4.5,3.3-.6,5.3-6.7,7.5-9.5,40.7-50.5,92.3-93.3,151.6-120.4,80.5-36.8,209.6-37,290-.3,59.2,27,110.4,69.5,151.3,119.7,2.3,2.8,5.7,9.9,8.6,10.5,7.2,1.4,8.7-2.3,15.5,4.5,24.3,24,47.4,83.1,53.5,116.5.6,3.2,2,10.7,1.4,13.5-1.6,8.2-20.9,1.9-22.8,8.2-1.9,6.2,5.4,12.9,8.3,18.3,2.4,4.4,8.1,20.4,9.9,22.1,4.7,4.2,23.9,4.2,25.1,5.9,1.8,11.6-1.8,22.9-2.4,34.1" class="fill"/></g><g class="trait-group" data-category="eyes">
  </g><g class="trait-group" data-category="eyes"><path id="fill-eyes-rims" d="M1415.7,1206.8c-.2-3-.4-6.1-.6-9.1-.3-5.7-4.5-10.5-10.5-10.5h-6.3c-1.2,0-2.4.2-3.4.5-.9-.3-1.9-.6-2.9-.8-2.3-.3-4.7-.3-7.1,0,2-23.3-16.1-42.7-36.1-51.8-11-5-22.6-8-34.3-11.1-12.5-3.2-24.9-6.7-37.4-9.7-8.8-2.2-17.6-3.5-26.5-4.3,2.5-6.2-.6-14.9-9.3-14.9-85.4,0-170.8.3-256.2.4h-68.7c-1-.3-2.2-.5-3.5-.5h-104.7c-9.6,0-12.4,10.7-8.3,16.8-10.3,1.4-20.6,3.2-30.8,5.2-24.8,4.8-50.1,10.3-72.3,22.8-11.9,6.7-23.7,15.6-30.8,27.5-2.9,4.9-4.7,10.2-5.6,15.7-1.1-.2-2.3-.4-3.6-.3-3.6.2-6.7,2.1-8.5,4.8-1.5-.2-2.9,0-4.3.2-2.5-1.2-5.4-1.6-7.8-1-6,1.7-8.2,7.3-7.3,12.9.7,4.2,1.3,8.4,1.9,12.7.7,4.6,5.9,7.6,10.1,7.7h3.6c3.3,1.9,5.7,5,7.4,8.5,1.3,2.7,3.9,4.3,6.7,4.9,4.4,36.9,9.5,75.8,31.7,106.7,21.4,29.8,54.4,44.8,90.2,48.7,18.6,2,37.9,1.2,56-3.7,16.9-4.5,32.8-12.5,47.3-22.2,14.8-9.9,28.4-21.5,41.3-33.7s25.6-24.8,36.6-38.7c12.9-16.2,23.6-34,29.3-54,5-17.3,6.2-35.5,4.1-53.3,14.6-1.9,29.3-3.3,44-2.5,4,.2,8,.6,12,1.3.3,0,1.7.3,3.2.7l-1.4,29.7c-.2,3.2.9,5.6,2.6,7.2,2.2,11.9,4.2,24.9,10,35.4,3.2,5.7,7.2,11.1,10.9,16.5,2.2,3.3,4.4,7,6.9,10.4,0,1.6.5,3.2,1.5,4.6,10.8,14.4,24.5,25.8,37.8,37.7,13.4,12,26.5,24.7,41.2,35.2,27,19.4,60.3,29.7,93.5,29.9,2.9,0,5.2-.9,6.9-2.5,15.4-1.6,31-3.4,45.7-8.6,16.6-5.8,29.9-15.5,40.5-29.5,21.2-28,34.4-62.2,39-96.9,1.3-10,2-20,1.8-30.1,0-2.2,0-4.4-.2-6.6.2.2.5.3.8.5,5.8,3.5,13.2,3.4,18.9,0,2.8-1.8,5.2-5.4,5-9v.2h0ZM951.2,1270c-9.4,13.1-20.7,24.8-32.2,36.1-11.2,11-22.7,21.8-35.2,31.3-12.2,9.3-25.6,17.9-39.9,23.4-15.8,6.1-32,8.6-48.8,8.2-29.5-.6-60.2-9.5-80.7-31.8-26-28.3-30.8-69.3-35.2-105.8-.2-1.9-.8-3.7-1.7-5.3.2-1.5.2-3,0-4.5-.5-3.1-1.1-6.2-1.6-9.3,6-9.2,2.6-20,6.1-29.9,3.1-8.9,11.3-15.5,18.9-20.5,19.3-12.7,42.2-18.1,64.5-22.8,48.7-10.1,100.1-15.6,149.1-4,20.8,4.9,43.5,13.1,54.7,32.6,1,1.8,2.4,3.1,3.8,3.9-.5,1.9-.6,3.9-.2,5.6,6.7,33.2-2.3,65.8-21.6,92.8M1062,1160.3c-.3,1-.5,1.9-.5,2.8-4.3-1.2-9.1-1.7-13.3-2.2-19.8-2.5-39.7-.2-59.4,2.5.2-1.9-.2-3.9-1.4-6-11.7-20.4-32.8-32.1-54.6-38.9l-6-1.8c66.8,0,133.6-.2,200.3-.3-1.7.4-3.3.8-5,1.3-12.5,3.6-24.6,9.6-35.9,16-10.9,6.1-20.3,14.3-24.2,26.6M1370,1227.4c0,9.5-.8,19.1-2.4,28.5-3.2,18.9-9.2,37.2-18,54.2-8.1,15.6-17.6,32.9-33,42.2-16.3,9.9-36.1,12-54.7,13.9-2.3.2-4.4,1-6.2,2.2-29.3-.5-57.7-9.9-81.5-27-1.4-1-2.8-2-4.1-3.1-1.1-3.4-3.9-6.2-8.2-6.7-8.4-7.2-16.4-14.9-24.6-22.2-10.4-9.3-21.8-18.2-30.9-28.9,0-2.9-.8-5.7-3-7.5-4.3-3.5-7-8.9-10.1-13.5-3.3-4.9-6.9-9.8-9.9-14.9-2.6-4.6-3.4-10-4.6-15.1-1.5-6.5-2.9-13.1-4.2-19.6-.2-.7-.4-1.4-.7-2.1.7-10,1.8-20.3,1.3-30.2,0-1.8-.4-3.4-.9-4.8,3.4-.6,6.5-2.9,7.9-7.1,2.3-7.2,9.6-11.4,15.8-14.8,8.9-4.9,18.1-9.6,27.8-12.6,21.1-6.6,44.6-6.7,66.4-7.6,11.4-.5,22.7-.7,34.1-.8,11.3,0,22.7,0,33.9,2,11.3,2.1,22.4,5.4,33.6,8.3,10.4,2.7,21,5.3,31.3,8.3,17.9,5.3,40.8,16.5,38.6,38.8-.4,4.1,2.5,7.7,6.1,9.4l-.6,1.5c-1.5,4.5,0,9.9.3,14.6.5,5,.6,9.8.5,14.6" class="fill"/></g><g class="trait-group" data-category="eyes">
  </g><g class="trait-group" data-category="eyes"><path id="fill-eyes-lens1" d="M1179.4,1134.1c40.9-2.7,97.1,4.9,136.2,17.2,22.2,7,37.6,14.4,44.9,38.1,14.9,48.3-2.6,130.7-47,159.8-31.6,20.8-93.5,20.9-124.8-1-21.1-14.8-46.4-35.3-63.6-54.4-29.9-33.2-63.5-74-40-121,15.1-30.3,63.8-36.7,94.3-38.7" class="fill"/></g><g class="trait-group" data-category="eyes">
  </g><g class="trait-group" data-category="eyes"><path id="fill-eyes-lens2" d="M834.5,1134.1c35.7-1.8,110.2,1.6,129,37.4,25.1,47.6-10.3,90.4-40.8,123.8-16.7,18.3-57.6,53.5-80,62-40.4,15.3-96.8,9.2-126-25-28.6-33.3-50.7-133.3-14.9-165.9,21.7-19.9,102.6-30.8,132.7-32.3" class="fill"/></g><g class="trait-group" data-category="eyes">
  </g><g class="trait-group" data-category="eyes"><g id="eyes-shaded">
    <path id="shading-eyes16" d="M1263,1369l77.9-202.4-35.9-17.6-86.3,216.8c-7.7-3.2-18.2-4.6-25.4-8.6-1.1-.6-2.3-.9-2.1-2.5l83.8-214.1,3.1-1.1c-.8-.4-.7-1.8-1.3-2.2-2.8-2.2-33.1-5.4-39.2-6.2-13.5-1.9-25.5-2.1-39-6-1.4-.4-3.1,0-3.4-2,34.4-1.4,68.6,1.9,102.2,9.3,60.3,13.2,86.9,33.8,81.8,100.2-4.3,56.4-23.6,106.8-78.8,129.2-12.1,4.8-24.6,6.4-37.4,7.2" class="shading"/>
    <path id="shading-eyes15" d="M1068,1185c4.4,6.7-1.2,7.5-2,11.5-2.6,13.5,4.2,36.9,3.5,51.4,26.1,33.1,54.5,68.2,87.6,94.4,9.4,7.5,24.7,19.5,35,25,22,11.8,82.3,10.8,107.3,6.4,5.1-.9,19.6-6.7,22.7-3.4,3.6,3.9-1.3,5.4-4,7-23.1,13.8-56.4,9.4-82.5,7.5-12.8-.9-39-2.2-50.2-5.8-8-2.6-29.2-21.2-36.3-27.7-26.1-23.9-48.5-51.5-74-76-13.8-13.2-29.1-24.5-42.5-38.5-1.1-1.2-2-3.4-2.9-4.1-.8-.6-7.7-1-9-.9-2,.2-17,17.3-20.5,20.5-7.2,6.4-16.1,11.4-23,17.9-33.4,31.5-60.8,69.3-97.5,97.5-19.5,15-31,13.9-55,16-22.9,2-62,6.4-83-1-2.1-.7-15.4-7.1-16-8-2.2-3.6,1.6-6.1,4.9-6,3.6,0,7.3,2.8,10.6,3.5,28.8,6.1,75.6,6.2,104.3-.8,9.4-2.3,18.7-9.8,26.7-15.3,26.6-18.6,50-41.2,71.6-65.4,5.6-6.2,34.7-40.5,35.4-45.6,2.3-15,1.5-32.7,3.1-48,.5-3.2-3.9-4.3-4.1-7-.2-2.5,2.2-3.2,2.1-5.4-4.5.8-11-4.6-6.6-8.1,3.7-2.9,4.7,2.1,7.3,2.9,5.5,1.7,7-1.6,10.8-2.8,29.1-9.3,36-9.4,65.1,0,3.7,1.2,5.2,4.5,10.8,2.8,2.2-.7,3.1-4.4,6-3.7,5.7,1.9,0,10.6-5.7,9.2M1038,1185c-9.5-1.8-18.7-3-28,.5,5.4,1.1,7.7,5.6,9.3,10.7,1.5,4.7-1.1,8.7,6.2,7.9,2.9-.3,2.4-5.8,3.4-8.6.6-1.7,2.2-5.7,3.2-6.8,2-2.5,4.8-1.4,5.9-3.7M1053,1197c-.2,0,0,1.8-1,2.4-7.9,5.8-11.5,9.7-21.5,9.6-5.1,0-8.6-.2-13.9,0-11.1.4-14.8-6.6-23.5-12.1l-3,30c2,2,17.7-4.1,21.5-4.1,5.8,0,8.3,4.7,16.8,2.9,1.8-.4,3.2-1.9,4.7-2.3,7.2-2,17.2,4.9,25,3.5l-3-29.5c0-.8-2-.5-2.1-.4" class="shading"/>
    <path id="shading-eyes14" d="M1119,1095c10.8-7.5,22.7-13.9,34.3-20.2,23.5-12.8,49.4-20.6,66.1-41.9,11.6-14.8,20.3-27.2,12.4-46.3-12.8-31.1-52.4-80.9-79.9-100-14.9-10.4-32.6-16.6-45.9-29.1,9.3.7,20.3,4.3,29.5,7.5,66.1,22.7,136.7,74.8,177.9,131.1,2.8,3.8,12.4,14.4,8.3,18.7-3.2,3.3-25.6,8.5-31.7,10.8-38.2,14.4-82.4,31.5-116.9,53.1-3.8,2.4-21.2,16.4-22.6,16.4h-31.5Z" class="shading"/>
    <path id="shading-eyes13" d="M897.5,1095c-1.5-.4-19.2-14.3-23.2-16.8-34.2-21.3-79.2-38.9-117-53-5.4-2-30-7.6-31.8-11.2-1.9-3.9,2.8-9.6,5.1-12.9,27.2-39.7,72-78.2,113.1-102.9,30.2-18.2,63.6-34.2,98.3-41.2-12,12.1-28.8,18.2-42.9,27.6-25.1,16.6-49.7,46.7-66.1,71.9-4.3,6.6-20.6,33.7-20.8,40-.5,14.1,11,30.6,19.9,41,15.3,17.9,40.9,24.1,60.6,36.4l36.3,21.1c-8.1-1.5-24.5,2-31.5,0" class="shading"/>
    <path id="shading-eyes12" d="M875.3,1338.3c-4.1,3.7-6.6,10.1-9.4,13.1-1.1,1.2-9.2,6.5-7.7,1.3l79.9-204.7c2.3-1.9,13.8,7.4,16,9.4,16.1,14.9,20.1,37.7,17.9,58.9-3.8,35.8-44.3,79.1-70.9,102.1-8,7-18.5,13.3-25.8,19.9" class="shading"/>
    <path id="shading-eyes11" d="M778.5,1369c-.7-.2-1.6-1.6-1.5-2.5l91.7-234.6c9.8,2.2,20.1,2.1,29.9,4.1,1.2.2,1.8-.8,1.5,1.5l-91.6,231.5c-5.9,0-26.2,1.2-30,0" class="shading"/>
    <path id="shading-eyes10" d="M1173,1133l-63.5,147c-.8,0-9.2-10.7-10.5-12.5-6.1-8.5-13.4-18.9-17-29-7.5-20.7-9.4-43.8,0-64.2,15.6-34.6,58.3-36.5,91.1-41.3h0Z" class="shading"/>
    <path id="shading-eyes9" d="M1254.8,1109.8c-.2.4-7.5,3.9-8.3,4.2-7,2.4-26.3.2-35,0-34.8-1-70.2-1.7-105-2-20.2-.2-40.1,1-60,1-70.4,0-140.6-1.1-211.1,1-8.6.3-27,2.4-34,0-.8-.3-8-3.8-8.3-4.2-.7-1.2-.4-6.1.8-7.4,3.3-3.4,9.3.3,13.5.6,27.4,1.9,59.2,1.5,87,2,89.1,1.7,177.1.6,266-1.1,25.9-.5,54.5.8,80.1-.9,3.7-.3,11.5-4.2,14,0,.7,1.3,1,5.9.3,6.9h0Z" class="shading"/>
    <path id="shading-eyes8" d="M768,1115c.3,1.4-1.1,1.1-2.2,1.3-18.2,4.5-36.7,6.8-55,12-5.2,1.5-14.4,6.4-18.8,5.3-3.5-.9-8.9-4.9-12.3-6.7-1.4-.7-7.4-2.5-7.7-2.8-1.4-1.9,3.7-3.1,4.9-4.6,4.7-5.7,8.4-20.1,13.3-26.7,1.1-1.5,1.3-2.2,3.4-2.6,4-.8,27.7-.5,31.5.4l42.9,24.4h0Z" class="shading"/>
    <path id="shading-eyes7" d="M1376,1124c-.3.4-6.9,2.3-8.4,3.1-3.3,1.7-8.2,5.5-11.6,6.4-4.4,1.2-13.6-3.8-18.8-5.3-18.3-5.2-36.4-7.3-54.4-11.6-1-.2-3-.3-2.8-1.7l42.7-24.8c5.9.5,30.6-1.8,33.8.8,4.6,3.8,9.2,22.8,14.6,28.4,1.3,1.4,6.2,2.9,4.9,4.7" class="shading"/>
    <path id="shading-eyes6" d="M1075,1141c1.6-3.5,12.5-25.6,14-26.5,1.9-1.1,14.6-1.1,16.1.9,6.7,8.5-8.9,12.6-13.8,15.4l-16.3,10.2h0Z" class="shading"/>
    <path id="shading-eyes5" d="M945,856c.7.3-.6,1.7-2,1-.7-.4.6-1.7,2-1" class="shading"/>
    <path id="shading-eyes4" d="M1105,856c.7.3-.6,1.7-2,1-.7-.4.6-1.7,2-1" class="shading"/>
    <path id="shading-eyes3" d="M958.8,1114.2c1.4.8,13,24.2,14.7,27.8-3.8-2.6-7.3-5.4-11.2-7.8-3.7-2.2-18.8-9-19.8-11.2-1-2.3-1.1-7.2,1.5-8.5,1.5-.7,13.7-.9,14.8-.3" class="shading"/>
    <path id="shading-eyes2" d="M853,1123c0,1.5-2.5,1.6-3.6,1.9-23.2,6.6-47.2,5.9-70.6,10.4-7.2,1.4-8.4.3-8.5,8.4-21.2,48.4-48.3,94.5-69.1,143-2.7,6.2-7.1,16.1-6.1,22.8.6,4.2,9.6,17.5,12.5,21.5,3.7,5,9.7,9.4,11.9,15.1-24.6-17.6-39-48.9-45-77.9-13.8-66.2-11-111.9,60.3-131.8,38.3-10.7,78.5-14.6,118.2-13.4" class="shading"/>
    <path id="shading-eyes1" d="M721.5,1346c.7.3.7.7,0,1v-1Z" class="shading"/>
  </g></g><g class="trait-group" data-category="eyes">
  </g><g class="trait-group" data-category="eyes"><g id="outline-eyes" class="outline">
    <path id="outline-eyes2" d="M993,1256c-1,4-2,4.8-4.5,8-14.2,18.2-34.4,39.6-50.5,56.5-17,17.9-47.1,49.2-67.7,61.3-24,14.1-91.5,17.2-118.5,11.9-29.6-5.8-47.2-25.6-64-49-25.1-35-31.7-73.2-32.8-115.7h-17.5c-.5,0-7.7-1.5-8.3-1.7-4.5-2-5.8-20.7-6.2-25.8-.3-3.7-1.6-15.3.5-17.5,3.5-3.7,22.8-2.9,26.3-6.2,1.1-1.1,2.7-8.4,3.7-10.8,3.6-8,7.8-15.8,13.5-22.5-14.5-3.8-23.3,2.8-22-17,1.8-29,22-77.6,37.6-102.4,4.3-6.9,20.8-32.7,28.8-32.1,2.1.2,3.9,2.7,5.6,1.6.5-.3,4.7-7.4,6-9,42.4-52.1,97.9-98.4,160.3-124.7,80.6-34,211.7-32.3,291,4.3,44.4,20.5,92.8,56.2,126.2,91.8,6.8,7.2,23.5,25.4,27.9,33.1,1.2,2,1.8,3.5,1.6,6,3.5-.3,5.5-3.6,9.3-2.8,1.8.3,7.3,4.8,8.8,6.3,11.7,11.9,33.9,51.3,39.6,67.4,4.9,13.6,16.7,54.3,16.1,67.4-.6,12.3-13.3,7.2-21.8,9.8-1.2,1.5,3.7,6.8,4.8,8.7,3,5.3,6.6,11.9,9.1,17.1.9,1.9,1.5,7,2.3,8,3,3.5,25,2.6,26.6,6.9.4,1.1,0,3,0,3.3l-3,34c-.5,1.2-.2,2.5-1.3,3.7-4.4,5.2-23.1,1.8-25.6,3.4-.4.3-.7,5.3-.8,6.5-.7,9.2-1,10.5-2.1,20-.2,1.5-1,7.5-2.2,14.4-7.3,46.4-41.9,113.1-92.2,123.3-27.5,5.6-95,2.9-119.5-11.1-25.2-14.4-61.4-54-81.8-76.2-11.4-12.4-29.7-31-38.9-44.1-3.2-4.5-2.7-6-3.6-10.9-3.9-20.4-3-38.7-5-58.5-.2-1.4-.8-5.7-1.5-6.5-3-3.8-26.8-4.4-32-4-3.8.3-14.8,2.1-16.1,5.9-.7,11.2-.5,22.4-1.5,33.6-.7,9.7-2.3,24.8-4.8,34.3h.1ZM797.5,1091h90.5c-10.2-9.4-23.2-15.1-33.9-23.6-1.1-.9-8.4-6.1-7.1-7.4,21.5,6.1,37.4,23.6,58.6,30.9h236c22.1-5.8,38.1-24.5,59.9-31,1,2.5-4.7,5.9-6.6,7.4-10.8,8.4-23.7,14.3-33.9,23.6h91.5c.5,0,5.1,5.2,5.7,6.3,1.5,2.9,1.8,10.4,2.4,10.8,2.4,1.4,18.4,2.4,22.7,3.1,19.7,3.2,40.8,7.2,59.8,13.2,3.1.9,12.4,5.7,14.3,5.7s14.7-7.8,18.5-8.6c1-14.6-5.9-28.1-11.9-41-3.3-7.2-7.2-15-11-22-2.4-4.5-16.1-28.6-18.6-30.4-2.9-2.1-20.6-1.2-25.1-.9-14.3.9-28.6,3.6-42.5,7-1.9-1.7,12-11.3,13.3-12.2,8.4-5.8,17.8-10.6,26.8-15.4-4.4-19.8-20.1-36-34.6-49.4-58.1-53.7-155.6-100.6-235-104-90.4-3.8-194.3,42.3-260.5,102.5-14.8,13.4-31,29.9-35.9,49.9,9,5.9,18.8,10.3,27.6,16.4,1.3.9,15.2,10.6,13.3,12.2-13.9-3.4-28.2-6.1-42.5-7-4.5-.3-22.2-1.2-25.1.9-2.5,1.8-16.2,25.9-18.6,30.4-3.8,7-7.7,14.8-11,22-5.9,12.8-13,26.6-11.9,41,3.1.7,16.9,8.6,18.4,8.5,1.6,0,11.5-5.1,14.9-6.1,26.3-8,53.9-11.8,81.1-15.7,1.2-.6.2-15.3,10.4-17.1M819,1100h-16.5c-4.4,0-4.4,9-2,9h15.5c.5,0,2.3-7.9,3-9M1223,1109c.5-4.6-1.9-7.1-6-8.5h-387c-3.9,1.8-4.8,4.8-6,8.5h399ZM1245.5,1100c-4.7-.9-11.5.6-16.5,0,.5,1.5,2.6,9,3.5,9h15c2.2,0,2.5-8.2-2-9M793.8,1117.3c-27.5,2.3-85.6,15.5-108.1,30.9-17.2,11.7-21.7,48.9-21.7,68.4-.2,51.9,12.7,106.6,51.5,143.5,34.7,33,102.4,26.3,144,10,25.7-10.1,68.2-56.5,88-78,7.7-8.4,28.7-30.1,33.4-38.6,3.5-6.4,6.5-45.2,7.1-54.9s-7.1-7.4-7.9-4.8c-.3.8,1.1,10.8.9,13.8-2.8,50.6-57.6,103.7-95.5,133.5-41.3,32.5-108.5,45.8-155.4,17.4-48.2-29.2-73.2-143.5-44.2-191.1,8.5-14,33.7-22.3,49-27.1,54.7-17.2,174-27.9,220.2,11.2,2.6,2.2,12.7,14.2,13.6,14.4.6,0,9.7-4.7,11.3-5.5-10.2-22.7-43.3-32.7-66-37.9-32.6-7.6-86.5-8-120.2-5.2M1066.9,1192.1c-.8-.5-5-.3-5.9.3-1.3.9-1,3.6-1,5.1,0,12,2.4,30.7,4.2,42.8.4,2.7.7,6.3,1.3,8.7,1.9,7.2,28.3,35.6,35,43,21.6,23.5,62.8,69.1,91.8,79.2,34.2,12,96.1,19.8,127.5-1,26.7-17.7,46.4-53.3,55.5-83.5,9.2-30.4,14.1-104.1-4.8-130.7-7.2-10.1-36.4-21.9-48.7-25.3-54.7-15.5-139.3-21-194.2-6.7-16.9,4.4-45.7,14.5-56,29-7.8,10.9.2,7.8,7.8,12.9,21.9-30.3,61.3-36.4,96.1-39.9,48.3-4.9,131.7,3.4,173.8,29.2,28.1,17.2,27.4,67.3,23.6,96.2-5.3,39.8-28.8,99.1-69.3,113.7-82.7,29.8-142.3-17-194.5-74.5-21.3-23.4-39.8-49.1-42-82-.3-2.9.9-15.8-.2-16.5M1095,1119h-141c3.5,8.3,13.6,11.1,20.5,17,7.4,6.2,13.3,14.2,19.1,21.9l58.9.2,2.9-1.1c5.2-8.5,12.3-16.7,20.2-22.8,4.7-3.6,13.8-7.5,17.3-10.7,1.2-1.1,2.3-2.8,2.1-4.5M833.8,1134.3c-30.1,1.5-110.9,12.4-132.7,32.3-35.8,32.6-13.7,132.6,14.9,165.9,29.2,34.1,85.6,40.3,126,25,22.4-8.5,63.4-43.7,80-62,30.5-33.4,65.9-76.2,40.8-123.8-18.9-35.8-93.4-39.2-129-37.4M1178.8,1134.3c-30.6,2.1-79.2,8.5-94.3,38.7-23.5,47,10.1,87.9,40,121,17.2,19.1,42.5,39.6,63.6,54.4,31.3,21.9,93.2,21.8,124.8,1,44.4-29.2,61.9-111.5,47-159.8-7.3-23.7-22.7-31.1-44.9-38.1-39.1-12.3-95.3-19.9-136.2-17.2M1072.7,1172.2c-1.2-1.1-8.5-2.6-10.5-2.9-19.1-3.4-64.9-4.5-83,1.4-3.8,1.2-5.3,1.4-5.3,5.8,0,9.1,6.6,8.9,14.2,7.1,4.5-1.1,8.5-6.5,14.1-7.9,10.5-2.6,39.3-2.8,48.5,2.1,7.3,3.9,9.2,8.3,19.8,6.2,3.5-.7,4.5-9.7,2.2-11.8M636,1196.5c-.7,2.2,0,13.5,0,17s14.9.4,18,1.5c-1-2.1,1.7-22.1.5-22-3.2,1.8-17.4,0-18.5,3.5M1412,1213.5c.8-2.7,0-13.2,0-17s-16-1.9-18.5-3.5c-1.2,0,1.5,19.9.5,22,3.9-1.3,16.8,2.8,18-1.5" class="outline"/>
    <path id="outline-eyes1" d="M998,1252c11.2-12.1,21.2-29.1,19.5-46,5.4,3.1,9.1,2.3,14.5,0-2.8,10.5,3,24,8.8,32.7,1.6,2.5,10.1,11.5,10.2,12.3.6,3.3-5.9,8.9-7,8-.9-5.7-7.9-7.8-12-12.5-1.3-1.5-3.3-4.1-4.3-5.8-1.4-2.5.7-4.5-4.3-3.8-2.1.3-5,8-7.5,10.6-3.5,3.8-10.8,6.1-11,11.5-1,1-7.1-4.8-6.9-7" class="outline"/>
  </g></g><g class="trait-group" data-category="eyes">
</g>
<g class="trait-group" data-category="right ear"><path id="fill-ear-rt1" fill="#fff" d="M1309.7 967.7c-21.5 15-73.7 1.5-73.8-28.2 0-17.4 19.3-64.4 26.3-82.8 15.6-40.9 37.9-99.1 62.5-134.5 12.2-17.5 47.1-40.3 66.9-49.1 25.2-11.2 58.3-12.1 85.4-10.1 0-1.7 0-3.4.4-5 29.2-103.4 66.2-199.3 108.1-297.9 10.4-24.5 17.8-43.7 36.4-63.6 26.6-28.2 58.4-54.6 87-81 5.1-4.7 9.5-10.2 15-14.5.4 36.3-3.9 72.5-9.2 108.3-21.8 147.8-72 298.3-146.9 427.1-112.2 41.1-191.9 136.1-258.2 231.3Z" class="fill" data-original-prefix="fill"/></g><g class="trait-group" data-category="right ear"><path id="fill-ear-rt2" fill="#fff" d="M1288 747c-16.2 44.6-44.8 91.8-64.2 136.3-5.3 12.3-10.4 24.7-14.6 37.4-.2 2.1 4.6 10 6 12.5 5.6 9.8 12.7 20.5 19.8 29.2-8.1-3.9-16.8-7.8-24.3-12.7-3.9-2.5-12.8-9.1-15.7-12.3-4.7-5.3-17.9-31.7-21.5-39.5-1.1-2.4-2.8-5.2-3.3-7.8-.9-5.4 6.1-15.3 8.6-20.9 14.3-31.3 25.7-60.8 38.7-92.3 5.4-13.2 13.6-26 18.2-39.8 13.7-40.3 17-104.6 9.9-146.5-.9-5.6-4.2-13.5-4.3-18.5-.3-13.9 31.4-60.6 40.8-73.7 29.1-40.7 69.4-86.1 106.8-119.2 1.9-1.7 8.4-7.6 10.3-7.4q37.2 20.1 72 44.1c15.8 10.9 34.5 23.7 49.2 35.8 2.7 2.2 8.4 5.7 7.1 9-13 32.3-26.4 64.4-39.4 96.7-7.8 19.4-14.3 40.2-22.8 59.2-2.4 5.4-7.8 17.6-11.5 21.5-11 11.9-42.4 5.7-57.5 7.5-7 .8-39.4 25.6-47.8 31.2-9.3 6.3-20.9 11.6-29.2 18.8-11.1 9.6-18.8 27.5-25.3 40.7-1.2 2.5-2.7 8-4.1 9.7-.9 1.2-1.8.4-2.1.6 2.9-8 9.1-24-3.2-27.3-24.9-6.6-31.1 31.7-10.3 32.4 5.1.2 9.3-2.7 13.5-5Zm108.8-362.8c-16.1 1.3-18.6 20.6-6.3 29.8 13.7 10.2 34.5 3.9 28.7-15.7-2.3-8-14.4-14.7-22.4-14.1m-166.5 417.1c-.6.5-5.3 6-5.8 6.7-8.6 13.3 1.2 29.8 17.4 23.4 5.4-2.1 8.7-8.2 10.5-13.5 5.3-15.4-9.2-27.6-22.1-16.6m-32.6 72.9c-19.7 4.1-21.7 39.6 2.6 34.5 17.2-3.6 22.9-39.9-2.6-34.5" class="fill" data-original-prefix="fill"/></g><g class="trait-group" data-category="right ear"><path id="fill-ear-rt3" fill="#fff" d="M1721 186c-31.9 28.2-64.8 55.6-96 84.5-20.5 18.9-33 29.2-44.4 55.5-16.7 38.2-28.6 79.6-45.5 118-1.5.4-1.7-.4-2.5-1-5.7-3.9-11.9-10-17.6-14.4-32.2-24.7-65.5-48.1-99.8-69.7l.8-3.5c16.1-12.9 31.8-26.3 48.2-38.8 39-29.7 81.9-61 126.2-81.8 42-19.7 86.2-35.6 130.7-48.8Zm-200.2 209.2c-4.4.3-8.9 3.1-11 7.1-8.3 15.9 17.4 32.4 26.2 21.2 9.4-11.9-.4-29.5-15.2-28.3" class="fill" data-original-prefix="fill"/></g><g class="trait-group" data-category="right ear"><path id="fill-ear-rt-rivet5" fill="#fff" d="M1205.8 881.2c.3.4 1.9 6.6 1.9 7.4.3 11.2-17.1 14.3-14.6-1.1.8-5.2 9.9-9.8 12.7-6.3" class="fill" data-original-prefix="fill"/></g><g class="trait-group" data-category="right ear"><path id="fill-ear-rt-rivet4" fill="#fff" d="M1235.7 805.2c13.9-2.8 12.2 15.8 1.7 16.8s-11.4-14.8-1.7-16.8" class="fill" data-original-prefix="fill"/></g><g class="trait-group" data-category="right ear"><path id="fill-ear-rt-rivet3" fill="#fff" d="M1271.3 740.7c-6.9-5.6 4.4-18.6 11.3-13.8 7.7 5.4-4 19.7-11.3 13.8" class="fill" data-original-prefix="fill"/></g><g class="trait-group" data-category="right ear"><path id="fill-ear-rt-rivet2" fill="#fff" d="M1398.7 396.2c10.5-3.1 16.5 14.9 2 11.6-6.3-1.5-8-9.8-2-11.6" class="fill" data-original-prefix="fill"/></g><g class="trait-group" data-category="right ear"><path id="fill-ear-rt-rivet1" fill="#fff" d="M1529.7 415.7c-3.4 3.6-10.4 2.4-10.8-3.2-.8-12.8 17.9-4.2 10.8 3.2" class="fill" data-original-prefix="fill"/></g><g class="trait-group" data-category="right ear"><path id="outline-shading-ear-rt" fill="#000" d="M1723.2 198.8c1.1.7 3.4 0 3.8.2 1 .9.2 23.2 0 26.5-3 78.4-22 167.1-43.5 242.5-27 94.6-62.5 187.2-112.8 271.8-109 38.4-182.4 127.3-248.3 217.2-6.9 9.3-10.1 16.1-22.2 18.8-16.7 3.7-51.9-3.1-68.2-9.2-8.7-3.3-32.8-19-39.1-26-4.2-4.7-24-40.7-25.5-46.5-.8-3.1-.6-6.3-.4-9.5 9.9-22.1 21.6-43.6 31.1-65.9 6.5-15.3 11.1-31.6 17.3-46.7 4.8-11.7 11.9-22.6 16.2-34.8 14.8-41.1 17.6-100.5 11.1-143.6-1.5-9.8-5.1-16.5-3.9-27.1.9-7.5 7.1-14.2 9-21.5l15 73c62-48.6 120.2-102.4 181.5-152 15.7-12.7 31.6-26.8 49.5-36l-1.5-3c-21.9-15.4-42.7-32.5-65.8-46.2-2.5-1.5-31.8-16.3-30.7-17.8 5.9-1.9 11.6-5.4 16.5-9 3.4-2.5 4.6-7.1 9.8-5.8 3.4.9 18.9 12.1 23.1 15 23.8 16.3 47.4 33.3 70.8 50.3 11.8.5 13.6-2.1 13.4-13.5 12.9-26.7 23-54.7 35.3-81.6 2.3-4.9 5.3-13.5 8.6-17.4 5.9-6.9 18.3-17 25.5-23.5 21.2-19 65.9-59.4 89.8-71.2 4-2 26.6-10.7 30-11.1 3.9-.4 3.4 3 4.5 3.6ZM1703 288c-.6-.8-7.1 4.7-8 5.5-23.5 20-52.6 47-73 70-15.3 17.2-21 36-28 57.5l101.1-74.4c3.3-19.4 6.6-39 7.9-58.5Zm-16 102c-.7-.8-10 6.2-11.3 7.2-33.3 23.5-66 47.9-98.2 72.8-6.6 18.3-12.6 37-16.4 56.1l113.7-77.3 12.3-58.7Zm-207.3 146.7c6.9-24.1 15-48 19.8-72.7l-233.4 175.2c2.2 17.2 3.6 34.5 1.9 51.8zM1634 535c-.7-.8-6.4 4.2-7.5 5-29.9 23.4-62.7 50.7-90.1 76.9-8.9 8.5-20.1 19.2-26 30-3.6 6.6-7.4 20-11.9 25.1-6.7 7.4-25.1 18.6-34 26-19.2 15.8-31.9 28.3-46.3 48.7-16 22.5-29.9 46.6-42.2 71.3l64.3-38.2 115.7-66.3c27.3-58.9 55.3-117.6 78-178.5m-357.3 190.2c-8.5 1.8-10.6 17-2.2 16.8 3.8 0 1.1-3.9 1.8-5 1-1.5 8.5-2.7 8.6-6.4 0-4-4.6-6.1-8.2-5.4m-12.8 16.9c-1.9-1.6-7.4 3-8.8 4.6l-18.8 51.1c-5.9 3.1-15 19.2-5.3 21.9 5.5 1.5 7.5-5.5 10.7-6.4 2.1-.6 4.5.2 6.6-.4 1.6-.5 2.3-2.8 4.2-2.8 3.3 0 6.4 8.5 8.5 7 5.3-16.9 14.6-32.2 20-49-15.5 3.6-14.1-23.4-17.1-26M1224 833c-1.7-1.8-1.7.7-2.1 1.4-3.7 7.3-13.8 39.5-18.6 42.4-3.4 2-12 2.6-11.3 9.7s10.4 3.4 13.5 3.6c2 .1 3.5 2 6 2 1.3 0 4.1-1.4 4.5-1.1 3.2 2.5 3.5 31.1 15.2 9.7l18.8-55.2c-2.7-.5-4.3 1.4-7.5 1.6-6.4.3-11.7-2.7-15.5-7.6-1.7-2.2-2.8-6.2-3-6.5" class="outline" data-original-prefix="shading" opacity=".2"/></g><g class="trait-group" data-category="right ear"><path id="outline-shading-ear-rt2" fill="#000" d="M1384 405c2.6-.1 3.5 2.8 5.9 3.5 6.6 2.1 5.5-1.4 7.8-2.5 1.8-.9 7.7-3 9.9-3.8 1.5-.5 3.9.2 5.3-.7 2-1.3.8-9.2 6-4.1 10.2 10-1 33.1-14.4 32.5-10.8-.5-23.4-13.6-20.6-24.9Z" class="outline" data-original-prefix="shading" opacity=".2"/></g><g class="trait-group" data-category="right ear"><path id="outline-ear-rt" fill="#000" d="M1734.9 163.1c.9 5.1 2.3 10.3 3 15.5 6 47.5-.5 106.2-7 153.7-17.7 128.1-67.1 281.2-131.7 393.3-2.7 4.6-14.6 24-17.8 26.2-3 2.1-16.3 5.5-21.3 7.7-29.5 12.8-63.7 37.8-88.5 58.5-54.2 45.1-104.1 102.3-138.2 163.9-13 3.4-25.7 8.6-38.7 11.1-16.8-6.7-37.5-5.5-54.2-10.9-6.7-2.2-43.9-21.9-49.8-26.2-16.8-12.5-29.2-53.7-41.2-71.8-1.4-4.6.6-29.6 1.6-35.5 1.6-9.2 25.9-43.5 32.1-54.9 31-57 45.2-134.6 38.8-199.2-.6-6.2-6.4-29.9-5.8-32.8 1-5 11.8-23.5 15-29 22.3-39 50.6-76.1 80.3-109.7 100.4-113.9 223.3-215 374.1-251.9 6.5-1.6 46.4-10.5 49.3-8M1721 186c-44.5 13.2-88.6 29.1-130.7 48.8-44.4 20.8-87.2 52.1-126.2 81.8-16.4 12.5-32.1 25.9-48.2 38.8l-.8 3.5c34.3 21.6 67.6 45 99.8 69.7 5.7 4.4 11.9 10.5 17.6 14.4.8.6.9 1.4 2.5 1 16.9-38.3 28.9-79.7 45.5-118 11.5-26.4 24-36.6 44.4-55.5 31.3-28.9 64.1-56.3 96-84.5Zm-411.3 781.7c66.3-95.2 146-190.2 258.2-231.3 74.9-128.8 125.1-279.4 146.9-427.1 5.3-35.8 9.6-72.1 9.2-108.3-5.5 4.3-9.9 9.8-15 14.5-28.6 26.4-60.4 52.7-87 81-18.7 19.8-26 39.1-36.4 63.6-41.9 98.6-78.9 194.5-108.1 297.9-.5 1.7-.5 3.3-.4 5-27.1-2-60.2-1.1-85.4 10.1-19.7 8.8-54.7 31.7-66.9 49.1-24.6 35.4-46.9 93.6-62.5 134.5-7 18.3-26.4 65.3-26.3 82.8.1 29.7 52.3 43.2 73.8 28.2ZM1288 747c-4.2 2.4-8.4 5.2-13.5 5-20.8-.7-14.6-39 10.3-32.4 12.3 3.3 6.1 19.3 3.2 27.3.3-.2 1.2.5 2.1-.6 1.4-1.8 2.8-7.3 4.1-9.7 6.5-13.2 14.2-31.1 25.3-40.7 8.3-7.2 20-12.5 29.2-18.8 8.4-5.7 40.7-30.4 47.8-31.2 15.1-1.8 46.5 4.4 57.5-7.5 3.6-3.9 9.1-16.2 11.5-21.5 8.5-19 15-39.8 22.8-59.2 13-32.3 26.4-64.4 39.4-96.7 1.2-3.3-4.5-6.8-7.1-9-14.7-12.2-33.3-25-49.2-35.8q-34.8-24-72-44.1c-1.9-.3-8.3 5.6-10.3 7.4-37.4 33.1-77.7 78.5-106.8 119.2-9.4 13.1-41.1 59.8-40.8 73.7 0 4.9 3.4 12.8 4.3 18.5 7 41.8 3.8 106.1-9.9 146.5-4.7 13.8-12.8 26.5-18.2 39.8-13 31.6-24.4 61-38.7 92.3-2.5 5.6-9.5 15.5-8.6 20.9.4 2.5 2.2 5.4 3.3 7.8 3.6 7.8 16.8 34.2 21.5 39.5 2.9 3.2 11.8 9.8 15.7 12.3 7.5 4.9 16.2 8.8 24.3 12.7-7.1-8.7-14.2-19.4-19.8-29.2-1.5-2.6-6.2-10.4-6-12.5 4.2-12.7 9.3-25.2 14.6-37.4 19.4-44.6 48-91.7 64.2-136.3Zm-16.7-6.3c7.3 5.9 18.9-8.3 11.3-13.8-6.9-4.9-18.2 8.2-11.3 13.8" class="outline" data-original-prefix="outline"/></g><g class="trait-group" data-category="right ear"><path id="outline-ear-rt4" fill="#000" d="M1197.7 874.2c25.5-5.3 19.7 30.9 2.6 34.5-24.2 5.1-22.3-30.4-2.6-34.5m8.1 7c-2.8-3.5-11.9 1.1-12.7 6.3-2.4 15.4 14.9 12.3 14.6 1.1 0-.9-1.6-7-1.9-7.4" class="outline" data-original-prefix="outline"/></g><g class="trait-group" data-category="right ear"><path id="outline-ear-rt3" fill="#000" d="M1230.3 801.3c12.9-11 27.5 1.3 22.1 16.6-1.8 5.3-5.1 11.4-10.5 13.5-16.3 6.3-26.1-10.2-17.4-23.4.5-.7 5.2-6.2 5.8-6.7m5.4 3.9c-9.7 2-8.4 17.8 1.7 16.8s12.2-19.6-1.7-16.8" class="outline" data-original-prefix="outline"/></g><g class="trait-group" data-category="right ear"><path id="outline-ear-rt2" fill="#000" d="M1396.8 384.2c8-.6 20.1 6.1 22.4 14.1 5.8 19.6-15 25.9-28.7 15.7-12.3-9.2-9.8-28.5 6.3-29.8m1.9 12c-6 1.8-4.3 10.1 2 11.6 14.5 3.3 8.5-14.7-2-11.6" class="outline" data-original-prefix="outline"/></g><g class="trait-group" data-category="right ear"><path id="outline-ear-rt1" fill="#000" d="M1520.8 395.2c14.8-1.1 24.7 16.4 15.2 28.3-8.9 11.2-34.5-5.3-26.2-21.2 2.1-4 6.6-6.8 11-7.1m8.9 20.5c7.1-7.5-11.7-16-10.8-3.2.4 5.6 7.4 6.8 10.8 3.2" class="outline" data-original-prefix="outline"/></g>
<g class="trait-group" data-category="left ear"><path id="fill-ear-lft1" fill="#fff" d="M326.7 182.1q1.65-.45 3.3.3l180.7 78.4c55.2 39.7 111.9 77.8 165.3 119.7l109 135.9c10.5 65.4 16 132 25.2 197.8 24.6 50.1 52.6 98.7 77.3 148.7 1.5 3.1 5.4 9.5 5.5 12.5.2 4.7-8.5 15.9-11.2 20.8-15.1 27.1-18.8 33.2-43.9 52.1-22.9 17.2-44.3 28.5-72.5 35.5-8 2-18.1 5.7-25.3.5l-82.9-79.1c-9.9-22-17.5-45.3-28.1-66.9l-154-109c-23.7-34.4-41.7-73.1-64.9-108.1-9.8-43.7-27.6-90.2-34.9-134.1-5.9-35.7-6.9-73.6-12.5-109.5-9.3-20.9-22.7-40-30.5-61.5-1-40.6-6.8-81.2-8.3-121.7-.1-3.4-1.1-11.4 2.8-12.4Z" class="fill" data-original-prefix="fill"/></g><g class="trait-group" data-category="left ear"><path id="outline-shading-ear-lft1" fill="#000" d="M664 558v21.5c0 22.8 19.2 43.4 30.4 61.6 38.9 63.4 63.1 129 108.2 189.8 16.2 21.8 35 41.1 51.9 62.1 4.8 5.9 9.3 10.3 9.5 18.5.2 6.2-2 12.6-1.1 19l-.9 2.1-60.1 40.9c-13.7.2-28.1 9.9-40.7 12.4-1.5.3-2.8.5-4.2-.3l-76.6-51.4-69.8-109.7c-33.8-23.4-81.3-39.6-107.2-72.3-4.2-5.3-6.4-12.2-10.5-17.5.3-1.1 2.2-.4 3 0 7.1 2.9 21.5 16.6 29.2 21.8 23.5 15.5 51.4 30.4 77.3 41.7 17.3 7.5 35 10.9 52.9 16.1 7 15.4 12.9 31.5 20.2 46.8 8 16.6 27 35.1 40.2 48.8 19 20 39 39.1 59.5 57.5 1.5.2 1.8 0 1.4-1.4-1.9-7.7-7.7-31.2-11.1-36.9-4.7-7.9-16.1-19.2-22.2-27.8-25.1-34.9-42.3-72.5-64.4-108.6-7.4-12-9.8-16-22.8-22.2-38.1-18-78.4-19.1-114.3-41.7-26.9-17-34.3-26.3-51.1-52.9-25.7-40.5-46.4-86-61.2-131.8-4.2-12.9-10.9-32.4-12.7-45.3 0-.6-.3-1.6.5-1.5 14 25.4 25.6 52.8 42.1 76.9 5.6 8.2 12.9 19.9 23.4 21.1-.5-2.4 1.1-5.1.8-7.3-1.4-11-12.7-28.8-16.3-39.8-3.8-11.7 2.7-30.6 3.5-43.5 3.6-59-24.7-121.5-55.6-170.4-12.4-19.7-28.5-37.1-37.4-59.1h16.5c8.6 0 8.7 2.4 14.2 5.8 15.3 9.7 32.5 17.5 48 27 30.2 18.6 67.2 68.2 84.5 99.5 2.9 5.2 12 22.4 12.8 27.2.9 5.4-.9 10.1-1 14.9-.8 41.5 1.8 83.9 11.9 124.2 3.2 12.9 5.4 24.4 15.1 33.9 1.4 1.4 2.9 3.8 4.5 1.5l24.5-44.5 55-6.5z" class="outline" data-original-prefix="shading" opacity=".2"/></g><g class="trait-group" data-category="left ear"><path id="outline-ear-lft2" fill="#000" d="M845 941c14.6-16.6 32-43.1 28.9-66.4-6.2-13.9-9.9-31.3-16.2-44.8-6.6-14.1-16.5-28.7-23.6-43.4-15.3-31.6-34.1-66.9-37.1-101.9-.8-27.8-4.4-55.4-7-83-2.5-25.8-1.8-68.6-16.2-89.8-15.1-22.3-37.4-49.1-54.9-70.1-40.4-48.8-81-84.4-134.1-118.9-62.7-40.8-134-84.4-202.2-114.8-5.5-2.4-50.7-20.8-52.7-18.8-2.9 37.8.8 78 8.3 115.2 2.9 14.2 5.3 15.9 11.2 27.8 19.4 39 29.1 89 31.5 132.5 1 17.6-.2 29.6 3.5 47.5 18.4 89.9 62.3 179.1 131.5 240.5 34.3 30.4 77.6 43.7 111.3 70.7 7.8 6.3 4 4.9 5.1 11.8 1.6 9.8 18.8 46.8 24.6 56.2 15.8 25.8 55.2 62.7 82.3 76.9 24.5 12.9 35.2 10.3 60.5 2.1 2.2-.7 5.3-.6 7.2-1.3-1 4.5-8.9 7.6-13 9.5-9.6 4.4-42.4 17.5-51.4 17.4-1.7 0-20.4-3.6-21.4-4.1s-1.2-2.3-2.2-3.3c-15.2-14.7-31.4-32.3-47-46-12-10.6-25.8-15.8-32.5-31.5-10.8-25.2-24.1-65.5-48.8-80.2-25.6-15.1-48.4-25.9-73-44-82.1-60.5-144-180.3-162.2-279.8-2.5-13.4.3-11.7 3.2-22.8 6-23.1-5.4-87.7-14.7-110.8-2-5.1-7-12.2-10.2-16.8-2.7-3.8-8.9-9.4-10.3-12.7-3.4-8-5.6-30.1-6.5-39.5-3.1-31.9-9.3-100.8-.5-129.5 1.8-5.8 2.2-6.4 8.7-5.7 12.1 1.1 31.8 7.4 43.8 11.3 83.1 27.2 164 67.2 237 115.1 21.8 14.3 36.8 25 55.1 43.9 52.6 54.4 98.4 114.5 141.4 176.6 2.3 4.6 2.2 21.8 2.6 28.4 3.6 65.9 7.8 160.8 46.2 215.8 2.9 4.1 7.4 7.9 10 12 6.8 10.6 12 30 17.6 42.4 10.2 22.5 26 41.8 21.6 68.3-12.2 14.7-20.7 38.7-36.8 49.2-5.3 3.5-12.5 7.3-18.7 8.8z" class="outline" data-original-prefix="outline"/></g><g class="trait-group" data-category="left ear"><path id="outline-ear-lft1" fill="#000" d="M671 548c1 1.1-9.1 24.9-9.8 28.7-3.2 18.8 9.2 75.9 17.6 94 8.4 18.2 19.9 26.4 31 41 38.5 50.8 58.2 119.5 95.4 173.6 4.1 6 11.5 13.6 14.6 19.4 2.3 4.2 4.1 23.8 4.2 29.8 0 1.9.2 3.7-.6 5.5-1.3 3.2-26.3 24.1-28.5 22 .6-5.2 4-9.5 4.7-14.8 4.7-32.1-33.9-98.2-50.6-126.9-23.1-39.7-51.6-80.6-84.7-112.3.2-20.9-3.1-40.8-9.2-60.8-5-16.5-11.4-40-29.8-18.2-21.7 25.7-18.4 63-6 92 2.2 5.2 5.5 9.8 7.5 15-3.9.3-7.3-2.1-10.7-3.8-25.9-13-50.8-31.4-71.8-51.2-10.2-49.8-20.3-101.8-52.4-142.7 2.3-5.6 5.6-10.1 7.6-16 12.2-35.3 1.5-87.5-13.6-120.9-23.3-51.5-61.4-93-109.9-121.6l-22.3-39.7c3.2-2.9 26 18.3 29.7 20.8 6.2 4.2 14.6 6.7 20.3 10.7 9.4 6.7 22.5 22.7 31.5 31.5 33.4 32.3 57.8 54.7 80 96.9 3.8 7.2 20.1 40.7 20.3 46.5.3 7.9-5.4 25.4-6.6 34.3-3 21-3.8 46.7-2.2 67.7 1.8 24.6 22.8 84.2 40.4 101.6 27.7 27.2 29-13.4 34-31 2-7.1 9.3-32.9 12.5-37.5 2.9-4.3 22.7-15.4 28.3-18.7 2.8-1.7 27.5-16 28.7-14.8h.4Z" class="outline" data-original-prefix="outline"/></g>
<g class="trait-group" data-category="head"><path id="fill-head2" fill="#fff" d="M951.4 888.7c-3.4-10-10.1-19-17-26.7-5.7-6.3-12-10.6-19.3-13.1-13.4-21.5-27.3-42.5-43.1-62.4-19.4-24.5-42.4-46.3-69.5-62.2-2.9-1.7-6.1-2.5-9.2-2.6-10.2-7.1-20.6-14-31.2-20.5-25.1-15.5-53.4-31.8-83.6-25.6-8.5-1.5-17.2-2.6-25.8-3.3-14.1-3.1-17.2-4.2-31.4-6.5-9.5-1.6-10.6.9-37 4.4-128.9 25.6-203.2 171.9-210.8 295.1-2.2 35.7 1 72.2 10 106.8 9.7 37.7 28.9 70.8 49.9 103.3 5.1 8 10.4 16.2 17 23 6.7 6.8 15.3 11.3 22.2 17.3 11.9 10.2 22.3 22.4 36 30.2 37.1 21.2 73.5-1.8 102.4-25.4 16.8-13.8 28.4-30.7 33-52.2 4.1-19.4 4.8-39.8 2.5-59.5-4.7-41.2-20.6-79-46.5-111.4-1.8-2.3-61.3-37.6-61.4-37.8-2.2-3.9 28 50 28 50.1v1.5c2.9 22.8 14.8 74.4 5.8 97.1-10 11.6-31.4 14.4-36.1 13.9-14.9-1.7-26.6-12.4-34-24.8-9.5-15.8-12.3-35.5-13-54.4-.8-21.4-.7-43.4 2.4-64.7 2.8-19.5 8-39.3 18.7-56 9.1-14.2 23.2-24.4 37.8-29.9 36.7-13.7 78.2-4.9 113.9 12 38.8 18.3 82.6 45.4 112.6 75.8 7.1 7.2 4 15.3 10.4 23 7.5 9 14.1 18 26.2 21 10.8 2.6 22.8-.9 33.1-4.2 7.2-2.3 14.4-5.1 21-8.8 3.5-1.5 7-3.4 10.7-5.7 8.1-5 15.8-10.7 23.1-16.8 14.2-11.9 26.5-26.3 36.5-41.9 10.6-16.6 22.9-38.3 16.1-58.5z" class="fill" data-original-prefix="fill"/></g><g class="trait-group" data-category="head"><path id="fill-head1" fill="#fff" d="M1116.8 947.1c10 15.6 22.2 30 36.5 41.9 7.3 6.1 15 11.8 23.1 16.8 3.6 2.2 7.1 4.1 10.7 5.7 6.7 3.7 13.9 6.5 21 8.8 10.3 3.3 22.4 6.8 33.1 4.2 12.1-2.9 18.7-12 26.2-21 6.5-7.7 3.3-15.9 10.4-23 30-30.4 73.8-57.5 112.6-75.8 35.7-16.9 77.2-25.8 113.9-12 14.6 5.5 28.7 15.7 37.8 29.9 10.7 16.7 15.9 36.5 18.7 56 3.1 21.2 3.2 43.3 2.4 64.7-.7 18.8-3.5 38.5-13 54.4-7.4 12.4-19.1 23.2-34 24.8-4.8.5-26.1-2.2-36.1-13.9-8.9-22.7 3-74.3 5.8-97.1v-1.5s30.2-54 28.1-50.1c0 .2-59.5 35.5-61.4 37.8-25.9 32.4-41.8 70.1-46.5 111.4-2.3 19.7-1.6 40.1 2.5 59.5 4.6 21.5 16.1 38.4 33 52.2 28.9 23.6 65.3 46.6 102.3 25.4 13.8-7.9 24.1-20.1 36-30.2 6.9-5.9 15.6-10.5 22.2-17.3 6.7-6.8 11.9-15 17-23 20.9-32.5 40.2-65.6 49.9-103.3 8.9-34.6 12.2-71.1 10-106.8-7.6-123.2-81.9-269.5-210.8-295.1-26.4-3.5-27.5-6-37-4.4-14.2 2.4-17.3 3.5-31.4 6.5q-13.05 1.05-25.8 3.3c-30.2-6.2-58.6 10.1-83.6 25.6-10.6 6.5-21 13.4-31.2 20.5-3.2 0-6.4.9-9.2 2.6-27.1 15.8-50.1 37.7-69.5 62.2-15.7 19.9-29.7 40.9-43.1 62.4-7.3 2.5-13.7 6.8-19.3 13.1-6.9 7.8-13.7 16.8-17.1 26.7-6.8 20.1 5.5 41.8 16.1 58.5z" class="fill" data-original-prefix="fill"/></g><g class="trait-group" data-category="head"><path id="outline-shading-head2" fill="#000" d="M864.9 999.2c-15.1 1.8-25.6 6.6-41.3 1.8-15.2-4.6-28.2-24.6-25.8-40.3.4-2.6 1.7-4.6 2.9-6.4v-.2c1.5-2.2 2.7-4.2 1.8-6.8 0-1.8-.6-3.4-1.3-5 .2-.5.5-.9.9-1.3 2.1-1.8 7.8-2.2 11-4.1 3.3-1.9 8.8-7.2 11.5-10.3-21.9 5.5-48.7-3.5-49.7-29.4 0-1.9 2-6.3 1.5-6.8s-2.3.4-3.2-.2c-6.5-4.4-6.3-1.8-13.4-3.5-10.3-2.5-16.6-7.9-19.6-18.2-2.2-7.8-3.2-20.5-1.3-28.2.3-1.2 2.4-7.5 3.6-10.2 20.3-47.7 77.8-71.4 88.8-72.9.8 0 8.8 1.3 12 3.2 2 1.2 4.1 2.4 5.8 4.1.4.3.7.7 1 1.1-1.4 7.5-16.5.8-22.5 4.4l18 3.8c3.9 2.4 8.5 5.1 8.9 10.2-8.4 13.8-20 25.6-29 38.7-1.1 1.6-.5 4-.8 4.4l37.5-38.7v-.3c2.2 0 4.5-1.9 3.8-4.7-1.4-5.9-3.5-11.7-6.3-17s-6.8-9.2-12-12.2c-6.9-4-14.6-6.6-22.5-7.6-.2-.2-.4-.5-.5-.8-53.8 12.1-87.4 70.3-94.1 88.3q-3.6 1.2-9 .6c-16.5-2-16.8-23.7-13.2-35.8 5-16.9 35.7-69.2 77.2-78.6 1.2-4.2-3.8-3.8-4.5-4.5-26.9 2.7-52.3 27.7-68.4 48.3-6.7 8.5-22.7 38.6-28.9 41.8-6.5 3.3-17 2.3-22.4-2.8-15.4-14.6-.3-41.8 9.2-55.6 3.7-5.4 10.5-10.2 11.2-16.7-21.1 18.4-21.4 11.8 1.5-8.3 13-11.4 30.8-24.2 48.2-26.3.4-3.7-3.6-5.6-6-7.5-26.4 10.6-55.4 33.3-72 56.7-7.6 10.7-11.9 23-18.6 34.1-5.1 8.3-7.6 14.8-18.5 14.7-15 0-11.5-15.5-9.8-25.7-3.7-.8 20.1-61.7 64.7-81.3 1.9-.8 5.3-2.8 6-3l-7.5-3c-27.8 13.7-47.3 36.7-65.1 62.1-8.4 12-16.7 34.3-32.7 38.1-4.6 1.1-13 2.9-17.5 3.6-19.3 3-5.1-7.4-9.7-16.5-7 19.5 26.8-58.3 67.7-90.3-28.8 12.9-61.6 49-78 76.3-6.9 11.5-15 34.4-24.5 41.8-6.2 4.8-15 6.3-21 12.2-5.3 5.2-9.8 13.6-12.2 21.4-.5-8.8 2.2-29.2 2.4-31.1 1-12.2 16.9-57.7 20.4-63.3-14 7.6-24 27.8-31.2 41.8-4.1 8-11.6 31.3-12.4 63.6.1.4.1 3.7.1 5-1.1 4-5.1 5.8-7.4 9.6-3 4.9-9 18.6-9.1 24 0 2.1 2.1 9 1.5 10.8-6.5-13.6-10-28.4-10.6-43.4.4-5.3 1.5-10 2.4-15.4.2-.3 3.9-19.4 5.5-28.5.5-2.6-1.3-4.3-3.2-4.6-1.6-.6-3.5-.2-4.5 1.5-2.9 5.4-8.1 19.6-8.7 21.4-5.5 18.5-7.3 46.7-2.7 70.3 0 .4 0 .7.2 1.1 2.2 10.5 5.7 20 10.7 27.2 5.2 7.5 13.5 14.2 19.3 21.3-1 8.5-19.1 26.8-19.3 32.9 0 1.6 5.5 10.5 6.3 11 .4.2 2 .2 3.6.4-1.1 1.6-2.1 3.3-3 5-1 .4-1.9.7-2.1.7-11.9 2-31.8-14.5-39.5-23.1l-18.1-26.3c.1 3.3-13.2 49.7-2 88.7-.2 12.8 8.4 26.7 14.5 37.9 1.4 19.3-1.3 47.2 24.6 63.8 4.1 7.5 9.2 14.3 15.3 20.3 4.4 16.1 8.3 31.4 21.1 37.1 11.5 15.7 26.8 28.6 42.7 40 6.1 4.3 12.3 8.7 19.5 11.1 4.7 1.5 9.7 2.1 14.7 2.3 4.7 1.6 9.5 3.4 14.9 4 16.3 1.8 29-2.3 38.4-10 .8-.3 1.5-.6 2.2-.9 6.9-3 13.2-7 18.9-11.6 23.4.9 31.2-41.5 33.2-46.4 12.4-30.2 12.8-63.4 7-95.1-1.4-7.9-3.1-15.9-5.4-23.6-2.1-6.8-7.1-10.9-12.2-16-8.5-8.4-24.5-2.2-27.6-4.4-2.6-1.8-5.4-17.5-7.9-24.2.2-.4 2.1-3.2 2.2-3.3.2-.2 2.8-2.3 3.6-2.7.2 0 .3-.2.5-.2 0 0 2.3-.6 2.7-.7.3 0 7.8-4.4 6.7-5.4-15.6-13.4-35.7-25.4-55.4-31.5-2.6-.8-4.3 1.1-4.6 3.2-1 1-1.4 2.6-.3 4.2 7.4 11 14.8 21.9 22.3 32.9.7 2 1.4 4.1 2 6.2 0 .2.6 6.1.9 8.9 1.1 8.5 2.9 16.9 5.3 25.1.6 8.2.6 16.5 0 24.7-.5 6.5-1.4 12.9-2.7 19.3-1.2 5.9-2.3 12.3-5.4 17.6-2.4 4.1-6.2 6.1-10.5 7.2h-3.1c-.9 0-7.1 1.3-9.5 1.3s-1-.2-1.6-.3c-.8-.2-4.6-.2-5.8-.4-12.4-2.3-34.5-19.8-34.5-19.8-.5-.8-1.2-1.6-1.8-2.5v-.2c-.7-3.7-15.3-38.6-16-43.5 0 0-2.1-68.8-1.7-71 2.6-11.8 12.4-45.7 13.1-47.7 2.8-2.7 13.8-15.5 16.3-19.3 2.7-3.9 4.9-8 7.5-12 2.4-3.7 5.2-6.8 9.1-9.1.8-.5 1.7-.9 2.5-1.3 9.3 0 18.7-1.6 24-6.9q7.65-1.35 15.3-1.8c20-1.3 40.5.7 60 5 9.9 2.2 19.3 5.5 28.4 9.9 9.3 4.5 18.4 9.5 27.5 14.3 5.7 3 11.3 6.1 17 9.2 2.7 2.3 5.8 4.1 9 5.1 9.3 5.3 18.4 10.7 27.4 16.5 5.5 10.6 18.3 19.9 28.4 23.2 3.6 3.3 9 4.6 14.2 4.9 4.7 18.5 12.7 38.1 28.6 44.2 14.6 5.5 39.7-4.5 53.7-10.8 1.9-.9 2.7-3 3.5-3.4 0-4.1 1.3-5-3.6-4.4l.3-.3Zm-443.3-146v9.9q-.15-4.95 0-9.9M387.1 1013c-.2-1.1-2-11 1.9-9.4 1.3.5 2.8 1.8 4.6 3.4 6.2 6.6 12.9 13 21 17.2 3.8 2 7.7 3.3 11.7 4.2 2.7 1.7 7.5 1.7 10.1 2.3.2 0 .4-.2.6-.3 3.2 1.8 6.6 3.1 10.4 3.5h2.9c.3.2.7.5 1.1.6 4 1 8.1 1.6 12.1 2.2-18.5 53.8-69.1 15.7-76.4-23.7m60.6 108.1c-3.1 0-16.8-8.2-19.5-10.6-8.4-7.6-13-22.2-14.3-33.1 3 .6 5.8 1 8.7 1.2 8.9 1.9 18.1 1.8 26.8-.4 9.2-1.1 18.4-3.1 27.6-3.9 3.6 17.7-8.8 47.4-29.4 46.7Zm153.5-69.3c2.9-4.7 15.7-2.6 20.4-1.5.5.3 1.1.6 1.6 1-1.7.9-1.6 0-.3 3 5.3 13.1 13.7 28.6 7 42.7-8.9-4.7-17.4-9.9-27.8-10.6 4.8-6.8-3.4-30.3-.8-34.6zm-.1 47.7h1.1c6.2.6 12.4 2.7 17.7 6 9 5.6 15.2 15.3 15.7 25.9-.6.3-1.5.3-2.8 0-4.3-.7-8.8-11.7-11.3-9-.5.6 5.4 10.3 6 14.3 1 6 1.8 16.7-2.1 22.2-1.3-2-2.8-3.9-4.3-5.7-1.8-3.7-3.3-5.5-5.7-8.9-4.1-5.7-21.1-22-22.3-26-2-6.9 4.9-12.8 7.8-19zm-45.7 29.4c.4 3.7 14.4 12.4 15 11.7-.6-6.2-6.3-8.6-10.5-12.1h1.7c3.3.6 6.5 1.7 9.6 2.7 2 .7 3.9 1.5 5.6 2.5 3.3 3.5 6.5 7.3 9.2 11.2 1.5 3.4 2.8 6.9 4 10.4s2.3 7 3.2 10.5c1.7 24.3-15 47.7-40.9 47.1 6.2-22.5 10.6-56.5.8-78.3-.3-.7-.6-1.3-.9-1.9-.6-1.2-1.2-2.3-1.9-3.4 1.7 0 3.4-.2 5.1-.4m-37.6 17.8c.3-.4.6-.9.8-1.4 2.5-7.3 2.5-15.3.5-22.7 1.1.6 2.2 1.1 3.3 1.6l7.5 19.4c2.5.4 1.7-3.7 1.5-5.2-.5-4.3-2.6-7.8-3-11.9.7.2 1.3.4 2 .6 0 .2.2.3.4.4.7.6 1.4 1.3 2.1 2 6.3 9.5 12.2 17.9 13.6 30.1 1.9 17.3-3.9 43.9-26.7 32.7-2.1-1.1-10.3-8.5-10.6-10.3-1-5.2 5.7-23.3 8.7-35.1v-.2Zm-26.4-43.8c5.2-1.2 8.9 20 11.3 18.1.5-.5-1.2-3.6 1.5-3 4.7 12.2-5.3 48.4-19.2 50.9-6.6 1.2-25.3-11.9-26-18.7-.8-8.3 16.2-21.6 21.7-29.3 1.7-2.4 9.6-17.7 10.7-18m39.7-263.4c0-.4-.2-.8-.3-1.2.4 0 .8.2 1.1.3-.3.3-.6.6-.8.9m61.7-18.5h1.4v2c-.4-.9-.9-1.5-1.5-2Zm13.8 54c-.2-.5-.5-1-.7-1.4.5.5 1.1 1 1.6 1.4zm69-12.5c0-1.6 0-3.3.2-4.9l.3 1.4c-.2 1.2-.3 2.3-.5 3.5m63.2 59.9c0-.6-.2-1.1-.5-1.7h.8v1.7s-.2 0-.2-.2v.2Zm30.6 32.3V953c.2.3.4.7.6 1 .2.4.3.8.3 1.1-.3-.2-.7-.3-1-.5h.1Z" class="outline" data-original-prefix="shading" opacity=".2"/></g><g class="trait-group" data-category="head"><path id="outline-shading-head1" fill="#000" d="M1183.6 1003.6c.8.4 1.6 2.6 3.4 3.4 14 6.4 39.2 16.4 53.7 10.8 15.9-6 23.9-25.6 28.6-44.2 5.1-.4 10.5-1.6 14.2-4.9 10.1-3.3 22.9-12.6 28.4-23.2 9-5.8 18.1-11.2 27.4-16.5 3.3-1 6.3-2.8 9-5.1 5.6-3.1 11.3-6.2 17-9.2 9.1-4.8 18.2-9.8 27.5-14.3 9.1-4.5 18.5-7.8 28.4-9.9 19.5-4.2 40.1-6.2 60-5q7.65.45 15.3 1.8c5.4 5.4 14.7 7.1 24 6.9.8.4 1.7.8 2.5 1.3 3.8 2.3 6.7 5.4 9.1 9.1 2.6 4 4.8 8.1 7.5 12 2.6 3.8 13.6 16.6 16.3 19.3.8 2 10.5 35.9 13.1 47.7.5 2.2-1.7 71-1.7 71-.7 4.9-15.3 39.8-16 43.5v.2c-.7.9-1.3 1.7-1.8 2.5 0 0-22.1 17.5-34.5 19.8-1.2.2-5 .2-5.8.4-.5 0-1.1.2-1.6.3-2.4 0-8.6-1.2-9.5-1.3h-3.1c-4.3-1.1-8.1-3.1-10.5-7.2-3.1-5.2-4.2-11.7-5.4-17.6-1.3-6.4-2.2-12.8-2.7-19.3-.6-8.2-.6-16.5 0-24.7 2.4-8.2 4.2-16.6 5.3-25.1.4-2.8.9-8.7.9-8.9.6-2.1 1.3-4.1 2-6.2 7.4-11 14.8-21.9 22.3-32.9 1.1-1.6.7-3.2-.3-4.2-.2-2.1-2-4-4.6-3.2-19.7 6.1-39.8 18.1-55.4 31.5-1.2 1 6.4 5.4 6.7 5.4.4 0 2.6.7 2.7.7.2 0 .3 0 .5.2.8.4 3.4 2.4 3.6 2.7 0 0 2 2.9 2.2 3.3-2.6 6.7-5.3 22.4-7.9 24.3-3.1 2.2-19-4-27.6 4.4-5.1 5.1-10.1 9.2-12.2 16-2.3 7.7-4 15.7-5.4 23.6-5.8 31.7-5.4 64.9 7 95.1 2 4.9 9.8 47.3 33.2 46.4 5.8 4.7 12 8.6 18.9 11.6.7.3 1.5.6 2.2.9 9.3 7.7 22.1 11.8 38.4 10 5.4-.6 10.2-2.4 14.9-4 5-.2 10-.7 14.7-2.3 7.2-2.3 13.4-6.7 19.5-11.1 15.9-11.4 31.2-24.3 42.7-40 12.8-5.7 16.7-21 21.1-37.1 6.1-6 11.2-12.9 15.3-20.3 25.9-16.5 23.2-44.4 24.6-63.8 6.2-11.2 14.8-25.1 14.5-37.9 11.2-39-2.1-85.4-2-88.7l-18.1 26.3c-7.7 8.6-27.5 25-39.5 23.1-.2 0-1-.3-2.1-.7-.9-1.7-1.9-3.3-3-5 1.6-.2 3.2-.2 3.6-.4.8-.5 6.3-9.4 6.3-11-.2-6.1-18.2-24.3-19.3-32.9 5.8-7.1 14.1-13.8 19.3-21.3 5.1-7.2 8.6-16.8 10.7-27.2 0-.4.2-.7.2-1.1 4.7-23.6 2.8-51.8-2.7-70.3-.6-1.9-5.8-16-8.7-21.4-.9-1.8-2.9-2.1-4.5-1.5-1.9.3-3.7 2-3.2 4.6 1.7 9.1 5.3 28.2 5.6 28.5.9 5.4 2 10.1 2.4 15.4-.5 15-4.1 29.8-10.6 43.4-.6-1.8 1.6-8.7 1.5-10.8-.2-5.4-6.2-19-9.2-24-2.3-3.8-6.3-5.6-7.4-9.6v-5c-.8-32.3-8.2-55.7-12.4-63.6-7.3-14-17.2-34.1-31.2-41.8 3.5 5.6 19.3 51.1 20.3 63.3.2 2 2.9 22.3 2.4 31.1-2.4-7.8-6.9-16.1-12.2-21.4-5.9-5.8-14.7-7.3-20.9-12.2-9.4-7.4-17.6-30.2-24.5-41.8-16.4-27.3-49.2-63.4-78-76.3 40.9 32 74.7 109.8 67.7 90.3-4.6 9.1 9.6 19.5-9.7 16.5-4.5-.7-12.9-2.5-17.5-3.6-15.9-3.8-24.2-26.1-32.7-38.1-17.8-25.4-37.3-48.4-65.1-62.1l-7.5 3c.7.2 4.2 2.2 6 3 44.6 19.6 68.5 80.5 64.7 81.3 1.7 10.2 5.2 25.6-9.8 25.7-11 0-13.5-6.4-18.5-14.7-6.7-11-11.1-23.4-18.6-34.1-16.6-23.4-45.6-46.1-72-56.7-2.4 1.9-6.4 3.8-6 7.5 17.4 2.1 35.2 14.9 48.2 26.3 22.8 20.1 22.6 26.7 1.5 8.3.6 6.5 7.4 11.3 11.2 16.7 9.5 13.8 24.6 41 9.2 55.6-5.4 5.1-15.9 6.1-22.4 2.8-6.2-3.2-22.3-33.3-28.9-41.8-16.1-20.6-41.4-45.6-68.4-48.3-.7.8-5.7.4-4.5 4.5 41.5 9.4 72.2 61.7 77.2 78.6 3.6 12.2 3.3 33.9-13.2 35.8-3.7.4-6.6.2-9-.6-6.7-18-40.3-76.2-94.1-88.3 0 .3-.3.5-.6.8-7.9 1-15.6 3.6-22.5 7.6-5.2 3.1-9.2 6.8-12 12.2s-5 11.1-6.3 17c-.7 2.8 1.6 4.6 3.8 4.7v.3l37.5 38.7c-.3-.4.3-2.8-.8-4.4-9-13.2-20.6-25-29-38.7.4-5.1 5-7.8 8.9-10.2l18-3.8c-6.1-3.6-21.1 3.1-22.5-4.4.3-.4.7-.8 1-1.1 1.7-1.6 3.8-2.9 5.8-4.1 3.2-1.8 11.2-3.3 12-3.2 11 1.5 68.4 25.2 88.8 72.9 1.2 2.7 3.3 9 3.6 10.2 2 7.7 1 20.5-1.3 28.2-3 10.3-9.3 15.7-19.6 18.2-7.1 1.7-6.9-.8-13.4 3.5-.9.6-2.9 0-3.2.2-.5.5 1.6 4.9 1.5 6.8-.9 25.9-27.8 34.9-49.7 29.4 2.7 3.1 8.2 8.4 11.5 10.3s8.9 2.3 11.1 4.1c.4.3.7.8.9 1.3-.8 1.6-1.2 3.2-1.3 5-.9 2.6.4 4.6 1.8 6.8v.2c1.2 1.8 2.5 3.8 2.9 6.4 2.4 15.7-10.6 35.7-25.8 40.3-15.7 4.7-26.2 0-41.3-1.8-4.9-.6-3.6.3-3.6 4.4l.4.2zm446.8-140.5v-9.9zm-41.9 173.6c4-.6 8.2-1.2 12.1-2.2.4 0 .8-.3 1.1-.6h2.9c3.8-.4 7.2-1.7 10.4-3.5.2 0 .4.2.6.3 2.5-.6 7.4-.6 10.1-2.3 4.1-.9 8-2.2 11.7-4.2 8.1-4.2 14.8-10.5 21-17.2 1.8-1.6 3.3-2.9 4.6-3.4 3.9-1.6 2.1 8.3 1.9 9.4-7.3 39.4-57.9 77.5-76.4 23.7m-13.5 37.6c9.2.8 18.4 2.8 27.6 3.9 8.8 2.1 18 2.3 26.8.4 2.9-.2 5.7-.6 8.7-1.2-1.3 10.9-5.9 25.5-14.3 33.1-2.7 2.4-16.3 10.5-19.5 10.6-20.6.6-33.1-29.1-29.4-46.7h.1Zm-125 12.1c-10.4.7-18.9 5.9-27.8 10.6-6.7-14.1 1.7-29.7 7-42.7 1.2-3 1.3-2.1-.3-3 .5-.4 1-.7 1.6-1 4.7-1.1 17.5-3.2 20.4 1.5 2.6 4.3-5.6 27.8-.8 34.6Zm8.8 32c-1.2 4-18.2 20.3-22.3 26-2.4 3.4-3.9 5.3-5.7 8.9-1.6 1.8-3 3.7-4.3 5.7-3.9-5.5-3.1-16.2-2.1-22.2.7-3.9 6.6-13.7 6.1-14.3-2.5-2.7-7 8.3-11.3 9-1.2.2-2.1.2-2.8 0 .5-10.6 6.8-20.3 15.7-25.9 5.3-3.3 11.5-5.3 17.7-6h1.1c2.9 6.1 9.9 12.1 7.8 19v-.2zm43 10.9c-.7 1.1-1.4 2.2-1.9 3.4-.3.6-.6 1.2-.9 1.9-9.8 21.8-5.4 55.8.8 78.3-25.9.6-42.6-22.8-40.9-47.1 1-3.5 2.1-7 3.2-10.5 1.2-3.5 2.4-7 4-10.4 2.7-4 5.9-7.7 9.2-11.2 1.7-1 3.6-1.8 5.6-2.5 3.2-1.1 6.3-2.1 9.6-2.7h1.7c-4.2 3.5-9.8 5.9-10.5 12.1.7.7 14.6-8 15.1-11.7 1.7.2 3.4.3 5.1.4Zm41.2 52.5c-.3 1.8-8.5 9.2-10.6 10.3-22.8 11.2-28.6-15.3-26.7-32.7 1.3-12.1 7.3-20.5 13.6-30.1.7-.7 1.4-1.3 2.1-2 .2 0 .3-.3.4-.4.7-.2 1.3-.4 2-.6-.4 4.2-2.4 7.7-2.9 11.9-.2 1.5-1 5.7 1.5 5.2l7.5-19.4c1.1-.5 2.2-1 3.3-1.6-2.1 7.4-2 15.3.5 22.7.2.5.4 1 .8 1.4 3 11.8 9.7 29.9 8.7 35.1zm28.3-60.9c5.5 7.7 22.6 21 21.7 29.3-.7 6.9-19.4 19.9-26 18.7-13.8-2.5-23.8-38.7-19.2-50.9 2.7-.6.9 2.5 1.5 3 2.3 2 6.1-19.3 11.3-18.1 1 .2 9 15.6 10.7 18m-51.2-282.4c.4 0 .8-.2 1.1-.3 0 .4-.2.8-.3 1.2-.3-.3-.6-.6-.8-.9m-62.4-15.5v-2h1.4c-.6.4-1.2 1.1-1.6 2zm-13.1 52c.6-.5 1.1-1 1.6-1.4-.2.5-.5 1-.7 1.4zM1313 922.5v-1.7h.8c-.3.5-.5 1.1-.6 1.7 0 0-.2 0-.2.2zm-30.1-23.5c1.1.6 2.2 1 3.3 1.5-.2.4-.3.6-.5.9q-1.2-1.35-2.7-2.4zm-1.2 56.1c0-.3.2-.7.3-1.1.2-.4.4-.7.6-1v1.7c-.3.2-.7.3-1 .5Z" class="outline" data-original-prefix="shading" opacity=".2"/></g><g class="trait-group" data-category="head"><path id="outline-head2" fill="#000" d="m944.9 858.6.3-.2zm-78.4 145.7c-.6.7-1.2 1.6-2.1 2-24.7 11.1-42.5 14.7-52.9 10.8-21.7-8.2-28.3-42.4-32.2-63.9h.3c-2.3-26.9 8.1-31.9 5.4-32.5-8.8-2-17.5 25.9-17.2 46.7-12.2-4.5-28.3-17.7-29.2-30.9-.2-2.7.3-5.2.7-7.9.5-2.5.9-5.1.8-7.9v-.8l-.8-.2c-3.9-.9-5.4 3.9-6.6 7.8-.5 1.6-1.2 3.8-1.8 4.2-.8.4-1.5.5-2.4 0-4.2-1.8-8.4-12.7-9.4-16.8-4.4-19.1 1.2-38.2 6.6-56.7.8-2.7 1.6-5.4 2.3-8.1l.3-1.1-1.1-.2c-3.2-.6-4 .2-4.4 2.2 0 .4-.2.9-.4 1.4-6.3 13.4-14.6 46.9-12.6 61.2.5 3.6 1.8 6.6 3.1 9.5.8 1.8 1.5 3.5 2.1 5.3-13-2.5-22.9-18.3-26.7-32.4-7-26.4-.7-51.3 7.2-74.3 5.5-16.1 10.7-26.9 18.4-38.5l.3-.4c7.6-11.5 19.5-28.1 34.6-40.2 16-12.8 32.4-17.7 48.8-14.4 9.2 1.8 22.9 10.4 26.3 18.3.2.4.5.8.7 1.1.4.4.7.8.7 1.6q0 1.2-.6 1.7c-.2.1-.4.3-.6.5-1.5 1.3-4.4 2-7.3 2.7-2.3.6-4.6 1.1-6.4 2-22 10.5-38.8 28.4-55.1 45.7-1.2 1.3-31.4 42.2-1.4 11.4 6.4-7.6 12.1-12.3 19.1-19.5 5.9-6.1 12-12.4 18.1-17 11-8.4 24.5-16.8 40.3-16.1 5.7.3 13.8 2.4 18.2 5.9 4 3.1 12.6 17.6 11.6 21.8l-37.3 38.5c-2.2 3.5-5.1 6.7-7.9 9.7-5.1 5.7-10.4 11.5-12.6 19.3l-.8 2.7 2.3-1.6c7.7-5.4 15.9-14.7 24.6-24.5 10.9-12.3 22.1-25 32.4-29.6 7.4-3.3 14.7-2.6 21.2 2.1 10.2 7.4 17.2 24.6 15.7 38.2-1.6 14.1-20.6 38.9-30.5 50-2 2.2-4.2 4.3-6.3 6.3-3.4 3.2-6.8 6.4-9.5 10.3l-1 1.4 1.7.2c3.9.5 7-1.9 9.6-4 .3-.2.6-.4.8-.6 9.1-6.9 36.8-39.9 41.8-50.7.7-1.4.9-2.9 1.1-4.1.2-1 .3-2.1.7-2.3 0 0 .8-.2 2.8.7 26.8 20.9 41.5 34.4 33.5 68.9-8.3 35.5-33 62.8-75.5 83.6-.5.3-.9.8-1.4 1.4ZM679.2 906c-19.1-2.6-31.5-25.9-36.5-45.4-10.3-40.2 8.8-101.6 39.9-128.8 19.8-17.2 38.5-31.6 60.7-31.6s15.5 1.7 24 5.4c5.9 2.6 7.9 5 11 8.6.7.8 1.4 1.6 2.2 2.5l.7.8.4-.4c.2 0 .5.1.8.2.9.2 2.1.5 2.5 1.2.2.3.2.6 0 1.1-42.8 10-76.8 51-91.6 87.4-8.9 21.9-14 41.1-15.2 57.4l-2.8-15.3-.5 8.3c-1 16.9 1.4 33.3 4.3 48.6Zm-76-49.8c-22.7-64.9 26.7-131.7 40.2-144.8 4.7-4.5 10.1-8.6 15.4-12.5 4.4-3.4 9-6.9 13.2-10.6l4.4-4v1.6l1.3-.5c14.9-5.2 30.9-8.2 47.3 4.3.5.4 1 .7 1.5 1.1 1.9 1.3 3.9 2.7 4.1 4.7-14 2-30.1 10.9-47.9 26.4-23 20.2-40.8 48.8-48.9 78.4-7.4 26.9-5.1 56.9 6.7 89.1-22-2.4-32.4-19.3-37.3-33.2m-64.4-28.5c-7.5-36.4 6.3-61.2 11.5-70.5.7-1.4 1.3-2.4 1.6-3.1 2.4-5.2 17.7-25.9 37-45.2 30.1-30.1 48.2-35.7 58-35.1 11.3.7 18.8 1.2 29.6 3.9v6.5l-5.5 2.4c-25.6 11.2-49.3 35.4-64.9 66.3-15.5 30.5-21.5 63.9-16.5 91.7 1.5 8.5 4.7 16.2 7.9 23.7 1.7 4.2 3.5 8.4 5 12.8-10 4.1-19.8 3.8-29.1-1-18.2-9.4-30.6-33.8-34.5-52.4Zm17.9 56.5c-8 12.8-34.9 9.5-45.9 6-20.6-6.6-33.8-24.1-37.3-49.3-.2-1.3-.1-2.8 0-4.2v-9.1c.5-8.2 1.1-15.1 3-24 1.6-7.9 3.1-12.4 5.9-19.4 6.2-15.8 20.1-41.4 30.3-56 12.1-17.3 29.5-32.3 48.9-42.4 16.8-8.7 34.1-13.2 50.7-13.2s5.9.1 8.7.4l-9 4.5h-.2c-24.1 18.9-42.6 37.5-56.4 56.9-17.1 24-26.7 48.9-28.3 74.2-1.6 25.7 5.8 48.5 22 67.7 1 1.2 2.4 2.2 3.8 3.3 2.7 2 4.4 3.5 3.7 4.6Zm-55.3 217 .3.4c8.1 11.2 11.2 25.7 8.7 40.7h-.1c-2.7 16.2-11.7 31.3-24.2 40.2-1 .7-2 1.4-2.8 2.1-3.9 3-6.7 5.1-13.2 6-27.6 3.7-32.7-15.2-38.6-37.1-.4-1.5-.8-3.1-1.3-4.7 5.3-1.2 7.1-1.9 8.6-2.4l.7-.2c16.7-6.2 24.8-10.9 36.8-25.3 3.1-3.8 5.8-8.4 8.5-12.9 2.6-4.4 5-8.6 7.6-11.5.8-.9 1.6-1.3 2.4-1.3 2.3 0 4.9 3.7 6.6 6m15.4 38.1c0-2.6.2-5 1.6-7l.4-.5-.3-.6h.1v-7.8c.6 0 1.1.4 1.6.8.5.3 1 .6 1.6.8.7.2 1.3.3 1.8.4 1.3.2 2.4.4 4 1.1 1 .4 1.7.8 2.6 1.3l.3.2c15.9 8.7 20.6 35.8 18.9 52.3-1.6 15.8-14.6 39-30.6 47.1-8.2 4.2-16.3 4-23.9-.5-3.7-2.2-13.7-12.8-17.3-16.9-.8-.9-1.5-2.4-2.2-3.8-.9-2-1.8-3.8-3.1-4.7-1.6-1.1-3.8-1.4-6.2-1.7-1.3-.2-2.7-.4-3.9-.7 8.7 1 17-1 24.6-5.9 16.5-10.6 26.1-32.3 29.6-49.1.3-1.6.4-3.2.4-4.8m39.3-10.1c.2 0 .4-.2.6-.4.5-.4 1.2-.9 1.9-.9 21.1-1 35.9 23.6 39.6 41.4 5.1 24.3.2 48.3-12.7 62.6-10.1 11.2-24.7 16-42.2 14.1-4.9-.5-9.4-2.1-13.7-3.6-4.4-1.5-8.9-3.1-13.9-3.5v-.8c.3-.4 1.4-.5 2.5-.6 1.3 0 2.8-.2 4.1-.9 13.8-7.2 24.7-21.8 30.5-41.3 6.9-23.1 5.3-49-4.1-65.8h1.9c1.6 0 3.3.2 4.9 0h.3l.2-.3Zm3.2-139c-4.2-6.2-9.8-14.6-9.4-17.1 20.9 5.1 38 16.5 48.6 32.1-11.8-1.8-22 6.3-25.8 9.8-1.3-6.7-7.7-16.2-13.4-24.8m53.3 228.1c-4 3.3-8.8 6.1-9.7 5.6v-.9l.2-.2c.3-2 1.1-4.1 1.9-6.4 1.1-3 2.3-6.5 2.6-10.3 1.5-16.5-.5-33.3-5.4-46.3-2.1-5.8-5.5-11.1-8.7-16.1-2.2-3.4-4.4-6.9-6.2-10.6 6.9 2.3 13 8.3 17.7 12.7 1.2 1.2 2.3 2.2 3.2 3 4.1 3.6 19.7 27.9 19.7 27.9.7-3.3-8.5-23.5-11.4-27.1-3-3.8-18.1-20.6-31.2-26.7-2.1-1-4.4-1.6-6.4-2-2.9-.7-5.4-1.3-6.2-3s-.2-4.5 1.9-8.8c4-8.3 15.4-13.2 23.6-12.6 1.1 0 11.5 2.8 13.9 3.8q.6.3 1.5.6c8.3 3.4 27.7 11.3 27.7 32s-1.9 20.9-5 28.5c-1.2 3-2.6 6.3-4.1 11-1.7 5.2-2.6 10.1-3.5 14.8-2.1 11.3-3.9 21-16.1 31.1m27.3-100.9c-6.9-13.3-24.1-26.2-38.8-28.6-1.8-.3-3.4-.4-4.8-.4-2.5 0-4.6.3-6.7.6-1.7.2-3.4.5-5.3.6-.5 0-.9 0-1.3-.5-2.1-2.2-1.3-9.6-1.1-12.1v-.3c1.6-14.4 16.9-29.1 27.4-30h1c18 0 22.1 12 23.6 16.5q.3 1.05.6 1.5c8 16.2 7.3 34 5.3 52.5v.2Zm-15.3-73.7c-.6-.2-1.1-.4-1.7-.7-1.2-.5-2.5-1.1-4.1-1.3-8.7-.9-20.9 1.2-28.7 7.7-1.1.9-2 2.3-2.8 3.6-2.3 3.4-3.5 4.7-5.8 3.2-2.2-1.4-7.2-23.3-6.7-27.3 1.1-9.4 14.8-17.6 16.6-18.1 17.5-5.4 30.2 24.8 33.3 32.9Zm-215.8-83.9c-.8-5.7-2.6-11.2-4.4-16.6-1.5-4.4-3-9-3.9-13.5-1.8-9.6-3.4-23.5-3.8-33.8-1.6-39.6 10.7-75.5 35.5-104-.9 3.2-1.9 6.4-3 9.5-1.5 4.7-3.1 9.5-4.2 14.4l-.2.8c-5.6 27.9-8.7 67.3 8.8 96.6 12.3 20.7 36.8 33 58.7 29.8-3.6 24.2-19.4 47.4-47 46H444l.3 1.2c.7 3.1 3.4 3.5 5.4 3.7h.7c10.9 1.4 20.2-2 30.1-5.6.2 9.4-4.2 17.9-12.3 24.3-10.5 8.2-25.6 11-37.5 7.2-24.6-8-50.2-35.3-52-78.1-.6-14.2.7-24.3 4.4-35 .1-.4.3-.7.4-1.1.8-2.5 2-5.9 3.7-8-.4 23.1 7.1 47 19.9 63l2.3 2.8-.5-3.6Zm-30.4 22v-.2c.1-.5.2-1 .2-1.4v-1.1c6.7 16.8 20.5 32.6 37.8 43.5h.2c1.2.5 2.5 1.1 3.8 1.7 1.4.6 2.8 1.2 3.8 1.5 7.9 1.6 14.2 2.8 21.6 2.5-.6 0-1.2.2-1.7.3-2.3.4-4.7.7-7.8 1.3v2c4 .9 27.1 2 43-14.3 5.2 8.7 3.4 17.7 1 23.9-5.5 13.7-20.3 26.8-33.7 29.7-23.3 5.1-39.3-5.1-48.6-14.6-17.9-18.3-26-49.1-19.7-74.8Zm21.2 85.1c2.8 2.4 5.7 4.7 9 6.4 24.1 12.5 52.6-1.1 52.9-1.3l22.5-15.5c.5 2 1.2 3.9 2 5.8.9 2.4 1.8 4.7 2.1 7 2.4 18.4-10.8 45.2-23.8 56-11.9 10-23 14.5-33 13.3-8.5-1-16.4-6.2-23.3-15.4-13.3-17.7-16.2-42.4-17.1-62.4 3.1 1.5 5.8 3.7 8.7 6.1m83-135.9c-11.7 1.3-23.5-2.6-33.3-11.1-23.1-20.2-20.3-46.9-17.4-75.2l.4-.2c.2-2.2.4-4.3.7-6.5l1.3-9.1c8.4-52.7 36.2-97.9 74.3-120.9 5.9-3.3 18.7-10.3 20.5-10.7h.6c-10.8 11.6-22.8 24.6-31 37.8-8.6 14-20.7 37.1-26.4 55.9-5.8 19.1-9.7 46.5-3.5 65.6l-10.6-13.2-4.2-6.3 5.5 17.1c7.9 16.6 23.3 33.6 37.5 41.5 2.4 1.3 5.3 2.3 8.3 3.3 3.3 1.1 6.8 2.3 9.6 4 .5.3.8.7.9 1.3.5 2.5-2.8 7.1-4.5 9.2l-.3.4c-7.1 9.8-17.2 15.8-28.4 17.1m473.1 7.2-.9 2.1zm-511-186.7h.3zm207.9 414.4c.6-1.1 1.2-2.2 1.6-3.1-.4 1-1 2-1.6 3.1m-18-136.3c.9 1.6 1.8 3.3 2.6 5-.8-1.7-1.7-3.3-2.6-5m-131.4 47.1c0-.4.1-.7.2-1.1 0 .4-.1.8-.2 1.1m.4-2.9c0-.4 0-.8.1-1.1 0 .4 0 .8-.1 1.1m114.5-174.4c.4.3.9.7 1.3 1-.4-.3-.8-.7-1.3-1m344.6 10.5v-.6zm-16.3-51.1.3-.2-.8-.9c-2.5-2.6-9.2-7.7-16.4-13.1-3.1-2.3-12.6-9.3-13.3-10.6-.4-.7-.8-2.9-1.1-4.9 0-.6-.2-1.2-.3-1.7-.4-2.5-.9-5.8-1.6-8-3.2-9.9-11-23.1-19-28-1.7-1.1-4.8-2-8-3.1l-1-.3-.9-.3c-2-.6-5.4-1.7-6-2.2-.5-.7-1.6-3.5-2.4-5.8-.3-.7-.5-1.4-.8-2.1-1.7-4.9-3.3-9.5-4.9-12-5.8-8.9-15-13.2-21-16.1-2.1-1-5-2.3-5.9-3.3-1.5-1.8-2.5-4.1-3.7-6.8v-.3c-2.2-4.8-4.4-10.2-10.7-14.6-5.3-3.9-12.5-5.9-17.7-7.3l-.8-.2c-3.6-1.1-6.7-2-8.6-3.2-1.4-.8-4-4.5-5.9-7.2-2.4-3.5-4.4-6.1-5.9-7.6-7.7-6.9-20.3-11.3-29.3-12.8-1.2-.2-2.6-.3-4.3-.3h-6.7c-2.1 0-3.5-.2-4.7-.5-1-.3-3.6-2.9-5.5-4.9l-.7-.7c-2.3-2.4-4.8-5-6.8-6.2-12.5-8.2-22.1-8.2-31.3-8.2s-9.4 0-14.8-.9c-5.5-.9-9.5-2.2-13.5-3.7h-.1c-5.8-2.1-11.3-4-21.1-4-2 0-4.1 0-6.3.2-3.1.2-5.2.4-6.9.6h-.8c-1.8.3-3 .5-4.6.5s-4.5-.2-8.7-.8c-6.3-.8-11.7-1.2-16.8-1.2-16.9 0-28.7 4.4-48 12.3-5.1 2-8.7 4-12.1 5.9-3.6 2-7 3.9-11.9 5.7l-3.2 1.2c-34.3 12.8-57 21.3-86.5 67.1l-1.3 2.3-.8 1.5h.3c-1.5 2.8-1.9 4-2.6 7.3 0 .3-.2.7-.3 1.2s-.3 1.1-.4 1.8c-1.1 4.7-3.1 5.5-5.8 6.5h-.2c-1.7.6-4 1.4-5.9 3.6-9.2 9.9-17.8 20.9-26.5 33.5-4.2 6.3-12.2 23.1-15 31.6-.5 1.5-8.2 36.6-6.4 46.6-.2.1-.5.3-.7.4-.3.2-.6.3-.8.5-2.3 1.2-5.8 3-7 6.6q-.6 2.1-1.2 3.9c-.4 1.3-.8 2.5-1.2 3.7l-.2.5c-5 15.7-8.3 26-6.5 46 .2 2.6 1 5.7 1.9 8.7l.3 1c1 3.6 2 7.3 1.9 9.4 0 1.8-1.2 4.7-2.4 7.8-.2.4-.3.8-.5 1.2-.9 2.3-1.7 4.4-2.1 6.4-4.2 20-1.6 40.9 7.7 62.1.7 1.6 1.8 3.2 2.9 4.6.2.3.4.5.5.8l.5.7c1.2 1.7 2.4 3.3 2.7 4.8 1.6 7.1 1.8 13.6 1.9 20.5v1.8c.2 10.5.4 21.4 5.8 35.2 5.9 15.4 12.3 21.7 19.1 28.4l.7.7c3.4 3.4 6.9 6.9 10.6 11.9 2.3 3.1 3.9 9 5.4 14.8v.6c1.4 5 2.7 9.8 4.4 13.5 6.7 14.6 16.1 24.2 31.3 32.2 1.7.9 3.5 1.2 5.3 1.5 1.5.3 3 .6 3.9 1.1 1.9 1.3 4.4 4.5 7.3 8.3l.8 1.1c4.5 6.2 10.2 13.7 17 18.1 19.7 12.8 42.2 20.2 61.7 20.2s29.8-4.7 41-14c1.4-1.2 2.6-2.9 3.5-4.4v-.2c.8-1.1 1.4-1.8 1.6-2 1.3-.7 3.5-1.3 6.2-2 4.1-1.1 9.8-2.5 14.7-5.7 18.7-12.1 21.5-26.5 24.5-41.7.2-.8.3-1.6.5-2.5.9-4.4 1.9-9 3.4-13.6.2-.9 1.5-2.6 2.6-4.4l.5-.8.2-.3c1.9-2.7 4-5.9 5.1-8.4 4.9-12.9 3.4-20.9 1.9-29.4v-.2l-.2-.9c-.7-4.2-1.5-8.5-1.5-13.7s.2-3.9.3-4.1c.2-.3.3-.6.5-1.2.4-1.7.8-3.5.8-5.2.1-28.3-9.4-60.1-26-87.2-17.7-28.7-41.9-49.8-68.1-59.6h-.4c-11-4.2-19.2-6.3-24.3-6.3-2 0-3.5.3-4.6.9-1.2.6-2 1.6-2.4 2.9-1 4 0 10 3 17.6 2.5 6.3 8.1 14.5 13.5 22.4l.5.8c5.5 8 11.7 17 12.8 21.9.7 3 .6 6.6.5 10.4v2.5c0 2.4 0 4.9.2 7.2.6 4.9 2.5 9.4 4.3 13.3v.3c1.4 2.9 2.7 5.6 2.9 7.8.4 2.6-.2 24.9-.5 28.1-.2 2.4-3.4 6.3-5.3 8.7-1.4 1.8-2.8 3.6-3.7 5.1-.5.9-1 2.4-1.4 3.8 0 .3-.2.6-.3 1-.1.5-.4 1.3-.6 1.8-3.3.7-15.4 2.5-16.7 2.6-1.3-.2-3.7-1.7-5-2.5-1.5-.9-3.1-1.9-4.6-2.4s-3.2-.7-4.7-.8c-1.5 0-3.4-.1-4.3-1 0-.1-.7-.8-2.6-5.6v-.2c-1.8-4-3.7-8.5-5.7-11.2-1.5-2-4.6-4.5-7.6-7-1-.8-1.9-1.6-2.4-2 0-.6.3-1.5.4-2.3v-.5c.7-2.6 1.2-5.4 1.1-8.1-.4-6.3-3.1-11.9-5.5-16.7-1.4-2.8-2.8-5.7-3.2-8-.3-2 .5-5.5 1.3-9.1l.2-1c.6-3 1.3-6.1 1.3-8.8s-1.1-7.1-2.2-10.3l-.2-.5c-.8-2.3-1.5-4.3-1.8-6.2-2.3-16.1 2.2-27 7-38.6v-.2c2.6-6.1 5.2-12.3 6.8-19.5.5-2 .4-4 .4-6v-1c0-2.1 0-4.1.3-5.3.3-.5 2.3-2.1 3.8-3.4.5-.4.9-.8 1.4-1.1h.1c5.4-4.5 12.8-10.6 15.4-15.9 1.2-2.6 2.6-6.4 3-10.2 2.4.6 4.9.9 7.4.9 5.4 0 11.1-1.4 17-4.1 1.5-.7 3.2-1.9 5-3.3l.7-.5c2.2-1.7 5.2-3.9 6.6-4.1h.6c1.6 0 3.9.4 6.6 1l1.4.3h.1c4.3.9 9.7 2 14.8 2s2.4 0 3.5-.2c3.2-.4 6.8-2.4 9.7-4l.8-.4c.3-.2.6-.3.9-.5.4-.3 1.1-.6 1.5-.8 3.2 1.8 13.5 9.7 14.2 11.4v1.6h.9l.9.2h21c2.5.4 5.9 3.1 9 5.4h.1c3.4 2.7 7.4 5.7 11.6 7.2 3.3 1.2 6.8 1.5 10 1.8h.4c1.8.2 4.4.4 5.9 1 .4.4 1.7 1.9 3.8 4.5l.8.9c2.8 3.4 6.1 7.3 8 8.8 5.5 4.6 15.6 10.4 21.9 11.7.4.1.7.2 1.1.2.9 0 1.7-.2 2.6-.5.8-.2 1.6-.4 2.3-.4s1.2.2 1.7.5c.7.4 1.6 3.2 2.1 4.8l.3.9c.5 1.6 1 3 1.7 4.1 5.1 8 20.6 21.9 30.7 24 1.2.3 3 .3 4.8.3h5.2c.3 1.2.8 3.3 1.5 6.4 1.1 5.1 2.2 10.1 3.2 12.3 9.5 23.8 24.9 35.4 47.2 35.4s11.5-.7 17.8-2.1c16.2-3.4 37.6-12.4 54.6-22.9 30.3-18.8 63.6-58.8 68.7-98.6 2.7-21.4-3-39.8-16.9-54.8Z" class="outline" data-original-prefix="outline"/></g><g class="trait-group" data-category="head"><path id="outline-head1" fill="#000" d="M1620.5 1153.9c-6 21.7-11.1 40.4-38.5 36.8-6.5-.9-9.3-3-13.2-6-.9-.8-1.8-1.5-2.8-2.2-22.9-16.5-34.4-54.6-15.5-81l.3-.4c1.7-2.4 4.3-5.9 6.6-6 .8 0 1.6.4 2.4 1.3 2.5 2.9 4.8 7 7.3 11.2 2.7 4.6 5.5 9.4 8.8 13.3 12.2 14.4 20.2 19.2 36.8 25.3.3 0 .5.2.8.3 1.4.5 3.3 1.3 8.4 2.4-.5 1.7-.9 3.3-1.4 5m-84.1 85.1c-5 .3-9.6 2-14.1 3.5-4.2 1.5-8.6 3-13.5 3.5-17.4 1.9-32-3-42.1-14.2-12.9-14.3-17.8-38.2-12.8-62.6l.2.2c5.8-28.6 26.1-41.4 38.7-41.4h.9c.6 0 1.3.6 1.8 1 .4.3.8.6 1.2.6 1.5.2 3.2 0 4.8 0h1.9c-9.4 16.9-11 42.7-4.1 65.8 5.8 19.5 16.7 34.2 30.5 41.3 1.3.7 2.8.8 4.1.9 1.1 0 2.2.2 2.4.6 0 .2.2.5 0 .8Zm-92.2-33.2c.4 3.8 1.6 7.2 2.6 10.3.8 2.3 1.5 4.4 1.9 6.4v.9c-.8.4-4.9-1.7-9.7-5.6l.2.2c-12.2-10-14-19.8-16.1-31.1-.9-4.7-1.8-9.6-3.5-14.8-1.5-4.7-2.9-8-4.1-11-3.1-7.6-5-12.2-5-28.5s22.2-29.7 29.2-32.6c2.5-1 5.2-1.5 7.9-1.9.8 0 1.6-.2 2.4-.4.4 0 .6-.3 1-.5.6-.4 1.4-1 2.6-1.1h1.6c8.9 0 18.6 5.5 22 12.7 2.1 4.3 2.7 7.2 1.9 8.8-.8 1.7-3.3 2.3-6.2 3-2 .5-4.3 1-6.4 2-12.8 6.2-27.6 22.4-30.8 26.3l-.3.4c-2.9 3.7-12 23.9-11.4 27.1 0 .6.4.8.7 1l.9.5.4-1c8.5-18.9 13.8-24.9 17.7-28.4 1-.9 2.2-2 3.5-3.2 4.6-4.4 10.7-10.2 17.4-12.5-1.8 3.6-4 7.1-6.2 10.6-3.2 5.1-6.5 10.3-8.7 16.1-4.9 13-6.8 29.9-5.4 46.3Zm48.4-215.6c-5.7 8.5-12 17.9-13.3 24.6-3.4-3-12.1-10-22.4-10h-3.2c10.7-15.5 27.7-26.7 48.4-31.8.4 2.6-5.3 11-9.5 17.2m-59.2 51.5c-1.6.2-3 .8-4.1 1.3-.6.3-1.2.5-1.8.7 1.9-5.1 5.9-14.7 11.9-22.5 7-9.1 14.2-12.6 21.4-10.4 1.7.5 15.5 8.6 16.6 18 .4 4.2-4.6 26.1-6.7 27.4-2.3 1.4-3.5 0-5.7-3.2-.9-1.3-1.8-2.6-2.9-3.6-6.6-5.6-16.6-7.9-24.8-7.9s-2.7 0-3.9.2m-16 22.8c0-.3.3-.7.5-1.3 1.5-4.5 5.7-16.5 23.6-16.5s27 17.5 28.4 30c.6 4.5.6 10.5-1.1 12.3-.4.4-.7.5-1.3.5-2 0-3.8-.3-5.6-.6-3.3-.5-6.6-.9-11.2-.2-14.7 2.3-31.8 15.2-38.8 28.6-2-18.5-2.7-36.3 5.3-52.5v-.3Zm115.6 162.8c-16-8.1-28.9-31.3-30.6-47.2-1-9.2 0-20.2 2.8-29.3 2.3-7.7 7-18 16-23l.3-.2c.9-.5 1.6-.9 2.6-1.3 1.6-.7 2.7-.9 4-1.1.6 0 1.2-.2 1.9-.4.6 0 1-.4 1.6-.8.5-.3 1-.6 1.4-.7v8.5l.2.3c1.4 2 1.5 4.4 1.6 7 0 1.5 0 3.1.4 4.7 3.6 16.8 13.2 38.5 29.7 49.1 7.5 4.8 15.7 6.8 24.3 5.9-1.2.3-2.5.5-3.7.7-2.4.3-4.6.6-6.2 1.8-1.3.9-2.2 2.8-3.1 4.7-.7 1.4-1.4 2.9-2.2 3.8-3.5 4.1-13.6 14.7-17.3 16.9-7.6 4.5-15.5 4.6-23.7.6m7.3-313.3c-1.6-2.2-4.8-6.6-4.3-9.1l-.2-.4c0-.6.4-1 1-1.3 2.8-1.7 6.2-2.8 9.6-4 3-1 5.9-2 8.3-3.3 14.2-7.8 29.6-24.8 37.5-41.3l4.9-15.2-14 17.6c6.2-19.1 2.3-46.5-3.5-65.6-5.8-19.3-17.9-42.2-26.4-55.9-8.2-13.2-20.3-26.2-31-37.8.2 0 .4 0 .7.1 1.9.3 16.6 8.3 20.5 10.7 38.1 23 65.9 68.2 74.3 120.9l1.3 9.1c.2 2.2.4 4.3.7 6.5 2.9 28.3 5.7 55-17.4 75.3-9.7 8.4-21.5 12.4-33.2 11.1-11.2-1.2-21.3-7.3-28.5-17zm-45-29.6c-.7-1.2 1-2.6 3.7-4.6v-.2c1.4-1 2.8-2.1 3.8-3.3 16.2-19.2 23.7-42 22-67.7-2.9-45.8-30.6-88.6-84.7-130.9l-9.2-4.6c44.6-4.5 87.2 25.1 108.3 55.2 10.2 14.6 24 40.2 30.3 56 3 7.6 4.3 12 6 19.4 1.9 8.8 2.5 15.7 3 24v13.4c-3.5 25.3-16.8 42.8-37.3 49.3-11.1 3.5-38 6.8-45.9-6M1479 880c-9.3 4.8-19.1 5.2-29.1 1 1.5-4.3 3.2-8.6 5-12.8 3.1-7.4 6.3-15.1 7.9-23.6 5-27.8-1.1-61.2-16.5-91.7-15.7-30.9-39.3-55-64.9-66.3l-5.5-2.4v-6.5c10.9-2.7 18.4-3.2 29.6-3.9 33.8-2.1 90.3 69.9 95 80.3.3.7.8 1.6 1.5 2.8 5.2 9.3 19.2 34 11.6 70.7-3.8 18.7-16.3 43-34.5 52.4Zm-118.4-73.9h.2c-14.9-36.4-50.9-76.4-93.6-86.4v-.9c.4-.7 1.5-1 2.4-1.2.8-.2 1.4-.4 1.8-.8.7-.8 1.4-1.6 2-2.3 3.2-3.6 5.2-6.1 11.2-8.7 33.6-14.9 58.2 3 84.7 26.1 31.2 27.2 50.2 88.6 39.9 128.8-1.6 6.3-5.5 18.5-13 29-6.9 9.6-14.7 15.1-23.5 16.4 2.7-14.6 6.6-47.3-12.2-100Zm-31 46.6c-.2-.5-.3-1-.4-1.4-.4-1.9-1.1-2.7-4.4-2.2l-1.1.2.3 1.1 2.4 8.4c5.4 18.4 10.9 37.4 6.5 56.4-1 4-5.2 15-9.4 16.8-.8.4-1.6.3-2.4 0-.6-.3-1.3-2.5-1.8-4.1-1.2-3.9-2.7-8.7-6.6-7.8l-.7.2v.7c-.3 2.9.2 5.5.7 8.1s.9 5 .7 7.7c-.9 13.2-17 26.3-29.2 30.9.9-3.6.6-6.8 0-10.6-.3-2.3-.6-4.8-.7-8-.4-2.7-12.4-29.5-16-31.5-.9-.5-1.5 0-1.7 0-1 .8-2.6 2 6.7 34.3-3.8 21.3-10.3 56.8-32.4 65.2-10.4 4-28.7.3-52.9-10.8-.8-.4-1.5-1.2-2-2-.4-.6-.8-1.2-1.4-1.4-42.5-20.9-67.2-48.2-75.5-83.6-8.1-34.5 6.7-48 33.5-68.9 2-1 2.6-.8 2.7-.7.3.2.5 1.3.7 2.2.2 1.2.4 2.7 1.1 4.2 4.7 10.5 32.5 43.5 41.8 50.7l.7.5c2.7 2.1 5.7 4.6 9.7 4.2l1.7-.2-1-1.4c-2.7-3.7-6-6.9-9.3-10-2.2-2.1-4.5-4.3-6.6-6.6-9.9-11.2-28.9-36-30.5-50.1-1.5-13.6 5.5-30.7 15.7-38.1 6.5-4.7 13.8-5.5 21.2-2.1 10.3 4.6 21.7 17.4 32.6 29.8 8.6 9.8 16.8 19 24.4 24.3l2.3 1.6-.7-2.7c-2.1-7.8-7.4-13.7-12.6-19.3-2.8-3-5.6-6.2-7.9-9.6l-37.4-38.7c-.9-4.2 7.7-18.7 11.6-21.8 4.5-3.5 12.5-5.6 18.2-5.9 15.8-.7 29.3 7.7 40.4 16.1 6 4.5 12.1 10.8 17.9 16.9 7 7.3 13.7 14.1 20.1 18.2.5.3 1 .2 1.4.2h.3l3.4 1.7-2.2-3.2c-.6-.8-.8-1.9-1.1-3.1 0-.4-.2-.8-.3-1.1v-.2l-.2-.2-4.2-4.5c-16.2-17.1-32.9-34.7-54.5-45-1.8-.8-4-1.4-6.2-1.9-2.9-.7-6-1.5-7.4-2.8-.2-.2-.4-.3-.5-.5-.5-.4-.7-1-.7-1.8s.4-1.2.7-1.6c.2-.3.5-.6.7-1 3.4-7.9 17.1-16.5 26.3-18.3 4.4-.9 8.7-1.2 12.9-1v.4-.3c30.8 1.7 54.5 31.7 70.4 55.5 7.8 11.8 13.1 22.7 18.7 39 7.9 23 14.2 48 7.2 74.3-3.8 14-13.6 29.8-26.7 32.4.6-1.8 1.3-3.5 2.1-5.3l.2-.2c1.3-2.9 2.6-5.9 3.1-9.5 2-14.1-6.3-47.6-12.6-61.1Zm-27-165.6h1.2zm115.8 113.3c-8.2-29.7-26-58.3-48.9-78.5-17.8-15.6-33.9-24.5-47.9-26.4.2-2 2.2-3.4 4.1-4.7.5-.4 1.1-.7 1.5-1.1 9.7-7.4 22.1-13.1 47.3-4.3l1.4.5v-1.5l4.4 3.9c4.1 3.6 8.6 7 12.9 10.3 5.3 4.1 10.9 8.3 15.7 12.9 13.4 13.1 62.8 79.9 40.2 144.8-4.9 13.9-15.3 30.8-37.3 33.2 11.8-32.3 14.1-62.3 6.7-89.1Zm236.7 95.6h.1c-.5 11-2 24.2-3.8 33.8-.9 4.8-2.5 9.5-4 14-1.7 5.2-3.5 10.5-4.3 16l-.5 3.6 2.3-2.8c12.9-15.9 20.4-39.9 19.9-63.1 1.7 2.1 2.8 5.4 3.7 8 0 .4.3.8.4 1.2 4.3 12.5 4.9 23 4.4 35-1.8 42.8-27.4 70.1-52 78.1-11.9 3.9-26.9 1.1-37.4-7.1-8.2-6.3-12.6-14.9-12.4-24.3 9.4 3.5 19.1 7 30 5.7h.4c2.1-.2 4.9-.5 5.6-3.8l.3-1.3h-1.3c-18.5 1-41.7-10.5-47-45.9 21.8 3.2 46.3-9.1 58.7-29.8l.9-1.5c16.4-28.9 13.4-67.6 7.9-95.1-1.1-5.3-2.8-10.4-4.4-15.3-1-3.1-2.1-6.2-2.9-9.4 24.8 28.4 37.1 64.3 35.5 104Zm-34.2 242.6c-10 1.2-21.2-3.3-33.1-13.3h-.1c-13-10.8-26.2-37.6-23.7-56 .3-2.3 1.2-4.6 2.1-7 .7-1.9 1.5-3.8 2-5.8l22.3 15.4c.3.2 28.8 13.9 52.9 1.4 3.3-1.7 6.1-4 8.9-6.3 2.9-2.3 5.7-4.6 8.8-6.1-.9 20-3.8 44.7-17.1 62.4-6.8 9.2-14.6 14.3-23.1 15.3Zm33.5-82.5c-9.3 9.5-25.2 19.8-48.6 14.6l-.2.2c-13.4-2.9-28.2-16-33.7-29.7-2.5-6.2-4.2-15.2 1-23.9 15.8 16.4 39 15.3 43 14.3l4.7-1.1-4.8-.9c-3.1-.6-5.5-.9-7.8-1.3-.6 0-1.2-.2-1.7-.3 7.4.3 13.7-.9 21.6-2.5 1-.2 2.3-.8 3.9-1.5 1.3-.6 2.6-1.2 3.8-1.5h.2c17.2-10.8 31-26.6 37.9-43.6v1c0 .3 0 .9.2 1.4 6.3 25.7-1.8 56.4-19.6 74.8Zm-346.9-369.6c-.3.1-.7.2-1 .3.4 0 .7-.2 1-.3m-3.4.5h.9zm1.3-.1c.3 0 .5 0 .8-.1-.3 0-.5 0-.8.1m-4.7.1h-1.3zm1.6.1h-1.1zm-6.8-.2c-1.3 0-2.5 0-3.7.2 1.2-.2 2.4-.2 3.7-.2m395.6 293.3-.3-1.3h-.2c-.5-2-1.5-4.3-2.4-6.5-1.2-3-2.3-5.8-2.4-7.6-.2-2 .8-5.6 1.7-9l.2-.6c.9-3.5 1.8-6.8 2.1-9.6 1.8-20.2-1.5-30.6-6.5-46.3-.4-1.1-.7-2.3-1.1-3.5-.4-1.4-.9-2.9-1.4-4.4-1.2-3.7-4.9-5.6-7.1-6.7-.3-.2-1.1-.6-1.5-.8 2-10-5.9-45.2-6.3-46.7-2.8-8.2-10.6-24.9-15-31.5-9.8-14.1-18-24.4-26.5-33.5-1.8-1.9-3.8-2.7-5.8-3.4h-.1c-2.3-.9-4-1.5-5.2-4.5l-.5-2c-.2-.7-.3-1.3-.4-1.8-.1-.4-.2-.9-.3-1.2-1-4.3-1.2-5-4.7-11.1-16.4-29.3-48-55-84.5-68.6-9.3-3.4-19.2-7.1-29.3-11.3-19.5-7.8-31.3-12.3-48.1-12.3-5 0-10.4.4-16.6 1.2-4.5.6-7.1.9-9 .9s-2.8-.2-4.5-.4c-.5 0-1-.1-1.5-.2-1.5-.2-3.4-.4-6.1-.6-2.2-.2-4.4-.2-6.4-.2-9.9 0-15.4 1.9-21.3 4-4 1.4-8 2.8-13.4 3.7-5 .8-9.3.9-13.5 1h-1.6c-9.1 0-18.6 0-31.1 8.2-1.9 1.2-4 3.4-6.3 5.7l-.8.8c-1.9 2-4.8 5-5.9 5.4s-2.6.5-4.7.5h-6.9c-1.6 0-2.8 0-3.9.3-9.1 1.4-21.8 5.9-29.3 12.7-1.5 1.4-3.5 4-6 7.6-1.9 2.7-4.5 6.4-5.9 7.2-1.8 1.2-5.1 2.2-9 3.3h-.4c0 .1-.3.2-.3.2-5.8 1.7-12.4 3.6-17.4 7.3-6.3 4.6-8.6 10-10.7 14.7v.2c-1.2 2.7-2.3 5-3.7 6.7-.6.8-2.5 1.7-4.5 2.7-.4.2-.9.4-1.3.7h-.1c-6.4 3.1-15.2 7.3-20.8 16.1-1.7 2.6-3.3 7.2-4.9 11.6l-.4 1-.3.8c-.9 2.6-2.1 5.9-2.6 6.7-.4.3-2.7 1.2-6.6 2.3l-.5.2c-3.5 1.1-6.8 2.1-8.7 3.4-8 5-15.8 18.2-19 28-.7 2.1-1.1 4.8-1.5 7.5v.5c-.6 3.6-1 5.8-1.5 6.6-.7 1.1-8.6 7.1-13.4 10.7l-.5.4-.8.6c-6.2 4.7-12.7 9.6-15.1 12-14.5 15.2-20.4 33.9-17.7 55.7 5 39.9 38.4 79.8 68.7 98.6 17 10.5 38.5 19.5 54.6 22.9 6.4 1.4 12.4 2.1 17.8 2.1 22.3 0 37.7-11.6 47.2-35.4 1-2.4 2.2-7.7 3.2-12.7.4-2 1-4.6 1.4-6h2.7c2.6 0 5.5 0 7.1-.3 10.2-2.1 25.7-16 30.7-24 .8-1.2 1.3-2.8 1.9-4.6v-.4c.1 0 .3-.4.3-.4.5-1.4 1.3-3.9 1.9-4.3.5-.3 1.1-.5 1.8-.5s1.6.2 2.4.4 1.6.4 2.5.4.7 0 1-.1c6.4-1.3 16.5-7.1 22-11.7 1.8-1.6 5.1-5.6 7.8-8.8 1.3-1.6 4-4.8 4.6-5.4 1.3-.6 3.8-.8 6-.9h.4c3.1-.3 6.7-.7 10-1.9 4.3-1.6 8.6-5 11.5-7.3 3.2-2.5 6.6-5.1 9.1-5.5h21l.8-.2.8-.2V906c.6-1.7 11.1-9.7 14.2-11.4.4.2 1.1.6 1.6.9.3.2.6.3.9.5l.4.2c2.8 1.6 6.6 3.8 10 4.2 1.2.2 2.6.2 4 .2 5.1 0 10.3-1.1 14.8-2.1 2.7-.6 5.7-1.2 7.7-1.2h.7c1.1.1 3.4 1.5 6.6 4.1l.7.5c1.8 1.4 3.5 2.6 5 3.3 5.8 2.7 11.5 4.1 17 4.1s5-.3 7.4-.9c.5 4.3 2.3 8.5 3.1 10.3 2.5 5.2 9.2 10.9 15.8 16.2 3.1 2.5 4.7 3.9 5 4.3.3 1.3.3 3.1.3 5.1s0 4.8.5 7.2c1.6 7.1 4.2 13.4 6.7 19.4v.2c.1 0 .2.2.2.2 4.7 11.7 9.2 22.7 7 38.5-.3 1.6-.9 3.4-1.5 5.3l-.2.5-.2.5c-1.1 3.2-2.3 6.9-2.3 10.8s.7 6 1.4 9.1l.2.8v.5c.9 3.3 1.5 6.4 1.3 8.5-.2 1.8-1.3 4.1-2.5 6.7l-.6 1.2c-2.6 5.1-5.1 10.6-5.5 16.9-.2 2.6.4 5.2.9 7.5l.2.7v.5c.3.9.5 1.7.5 2.3-.5.4-1.4 1.2-2.3 1.8-.3.3-.7.6-1 .9-2.5 2.1-5.3 4.4-6.7 6.3-2 2.7-4 7.2-5.7 11.2v.2l-.4.8c-.8 1.8-1.9 4.3-2.3 4.8-.8.8-2.5.9-4.3 1-1.5 0-3.2 0-4.8.8-1 .4-2.1 1-3.1 1.6-.5.3-.9.5-1.4.8-1.8 1.1-3.7 2.2-5 2.5-1.5 0-13.7-1.9-16.7-2.5 0-.3-.2-.6-.3-.9s-.2-.7-.3-1c-.6-1.8-1.1-3.6-1.6-4.7-.7-1.2-1.7-2.5-2.8-3.9-.2-.3-.5-.6-.7-.9l-.4-.5c-2.3-3-4.8-6.4-5-8.5-.3-3.5-.8-25.8-.5-28.1.3-1.9 1.2-4.2 2.4-6.8l.3-.8c1.7-3.8 3.8-8.6 4.5-13.8.2-2.4.2-5 .2-7.5v-4.1c0-3.1 0-6.1.5-8.6 1-4.7 6.4-12.7 12.7-21.8l.5-.8c5.4-7.9 11-16.1 13.5-22.4 3-7.7 4-13.6 3-17.5-.2-1.2-1.1-2.3-2.3-2.9-1.1-.6-2.7-.9-4.6-.9-5.1 0-13.3 2.1-24.4 6.2h-.3c-26.1 9.8-50.3 31-68 59.8-16.7 27.1-26.2 58.8-26.1 87.1 0 1.7.4 3.5.8 5.2.4 1.9.8 3.6.8 5.4 0 5.2-.8 9.5-1.5 13.7l-.2.9c-1.5 8-3.1 16.4 1.8 29.5.9 2.5 2.9 5.4 4.6 7.9l.7 1 .4.6c1.3 1.9 2.5 3.6 2.8 4.5 1.7 5.3 2.7 10.3 3.8 15.2l.2 1c3.2 15.8 6 29.5 24.4 41.5 5 3.3 10.7 4.7 14.8 5.7h.4c2.4.7 4.7 1.3 5.9 2 .1 0 .4.5 1.3 1.9l.2.3c1 1.5 2.1 3.1 3.5 4.4 11.3 9.3 25.6 14.1 41.4 14.1s10.4 0 10.7-.7c16.6-2.1 34.7-9.1 50.9-19.5 6.8-4.4 12.3-11.8 16.8-17.8l.2-.3.4-.5c3.1-4.1 5.7-7.6 7.9-9 .8-.5 1.9-.7 3.3-1h.6c0-.1.1-.1.1-.1 1.7-.3 3.5-.6 5.1-1.5 15.4-8.1 24.8-17.7 31.3-32.2 1.8-3.8 3.1-8.8 4.3-13.6 1.6-6.5 3.1-12.2 5.4-15.2 4-5.2 7.7-9 11.3-12.6l.2-.2c7-7 13.1-13.1 18.9-28.3 5.6-14.4 5.7-25.9 5.8-36 0-7.2.2-14 1.9-21.4.4-1.8 1.9-3.7 3.3-5.6l.2-.2c1.2-1.6 2.5-3.3 3.3-5.1 9.2-21.4 11.8-42.3 7.7-62.1Z" class="outline" data-original-prefix="outline"/></g>
<g class="trait-group" data-category="mouthpiece"><path id="fill-nosering" fill="#fff" d="M1000 1361c-4.4 14.5-13.5 36 1 47.5 12.2 9.6 32.5 9.9 45 .9 16-11.4 6.6-33.4 2.1-48.4 38.4-2.2 59.8 43.8 36 73.5-32 39.8-87.9 39.8-120 0-23.9-29.6-2.4-75.7 36-73.5Z" class="fill" data-original-prefix="fill"/></g><g class="trait-group" data-category="mouthpiece"><path id="outline-shading-mouthbit" fill="#000" d="M1000 1361c-4.4 14.5-13.5 36 1 47.5 12.2 9.6 32.5 9.9 45 .9 16-11.4 6.6-33.4 2.1-48.4 38.4-2.2 59.8 43.8 36 73.5-32 39.8-87.9 39.8-120 0-23.9-29.6-2.4-75.7 36-73.5Zm-25.8 9.2c-.8.5-9.6 13.6-10.2 15.2-4.8 12.2-.5 33.1 8.1 43 23.8 27.6 74.5 28.4 100.5 3.6 11.1-10.6 18-35.5 10.3-49.4-1-1.7-9.2-12.1-10.6-12.5-4.7-1.3-11.9 4.7-13.9 8.8v32c-7.3 3.5-14.6 8.6-22 11.9-11.8 5.3-12.2 5.3-24.1.3-7.9-3.4-15.1-8.4-22.8-12.2-.2-7-1.1-14.7-1.3-21.5 0-3.5 1.8-7.7.6-11.8-1.1-3.7-11.2-9.5-14.6-7.5Z" class="outline" data-original-prefix="shading" opacity=".2"/></g><g class="trait-group" data-category="mouthpiece"><path id="outline-mouthbit" fill="#000" d="M990.8 1356.3c24.1-2.6 14.7 3.9 10.5 17.4-1.5 4.8-3.2 11.8-3.3 16.7-.6 27.4 52.1 26.8 52.1 1s-1.8-12.7-3.3-17.8c-2.3-7.4-11.3-16.7.7-17.8 45.2-4.1 67.1 51.9 38.1 85.1-31.8 36.3-82.1 37.5-117.5 5.5-32.1-29.1-21-85.5 22.8-90.2Zm6.2 7.7c-38.7 8.9-50.2 50.8-19 77.5 29.5 25.2 61.8 25.3 91.5.5 31.7-26.5 20.7-68.9-18.5-78 4.7 10.6 11.9 20 10.7 32.2-4.2 43.6-72.3 43-75.6-.8-.9-11.5 6.5-21.4 10.9-31.4" class="outline" data-original-prefix="outline"/></g></svg>