<?xml version="1.0" encoding="UTF-8"?>
<svg xmlns="http://www.w3.org/2000/svg" viewBox="0 0 2048 2048">
  <style>
      .outline { fill: #000000; }
      .fill { fill: #FFFFFF; }
      .shading { fill: #aaaaaa; opacity: 0.5; }
    </style>
  <g class="trait-group" data-category="background" id="background-yellow">
      <path class="color" id="color-yellow" d="M2048,0v2048H0V0h2048Z" style="fill: #ddb305" fill="#ddb305"/>
    </g><g class="trait-group" data-category="jaw" id="jaw-half-robo">
      <path id="fill-jaw" fill="#ffffff" d="m1382.8 1128.2 12.4 130.2 60.9 48.3-49.6 133.4c-1 1.4-2.4 1.1-3.9.9-13.9-1-32.8-8.5-47.4-10.7-1.8-.3-3.5-.4-5.2-.3 1.2 4.7-1.2 7.6-2.1 11.4-4.9 22.2-7.7 45-12.1 67.4l-57.2 29.3-1.4 1.6c-1.1 12 1.6 23.9.9 35.9-.3 5-1.3 14.9-2.3 19.7-.6 2.8-13.7 32.2-15 33.5s-16.1 8.9-16.7 8.3l-9.5-50-51 52c-7.7 5.7-20.7 9.3-27.5 15.5-14 12.7-24.7 36.5-41.4 47.6-5.5 3.6-58.7 25.2-65.4 26.6-2.4.5-46.7.7-49.3.2-6.2-1.1-59.9-22.7-65.6-26.3-14-8.8-29.1-36.3-42-48-6.7-6.1-19.9-9.6-27.5-15.4l-51-52-9.6 48.4c-.6.9-.9 1.7-2.2 1.5-.8 0-13.8-7.6-14.4-8.2-1.4-1.4-15.6-32.9-16-35.5l-.7-54.3-58.2-30.3-12.3-69.7c-16.4-1.1-33.5 3.9-49.5-1l-37.3-85.8c-.7-3.4 4-13 5.6-16.9 8-19 17.8-37.3 25.7-56.3 9.2-2.5 21.3 1.1 29.9-5.1 4-2.8-.2-18.8 0-23.9l-19-32.1-.3-2.2 27.6-63.5c1.4-9.9-3.2-21.4-1.1-31.1 1.3-6.2 9.7-21.7 13.2-27.9 54.6-98.4 184.4-157.8 290.2-180.8 48.2-10.5 90.3.5 136.5 15.4 98 31.8 198 94.6 250.7 185.3 3.2 5.5 3.8 13.3 10.7 14.8h-.7Z" class="fill" data-original-prefix="fill"/><path id="fill-jaw1" fill="#ffffff" d="M1265.7 1351.3c9.2 7.7-4.5 25.9-12.2 15.7s2.9-23.4 12.2-15.7" class="fill" data-name="fill-jaw" data-original-prefix="fill"/><path id="fill-jaw2" fill="#ffffff" d="M1314.6 1391.2c7.8-1.5 6.2 19.1-2.9 17.7-9.8-1.5-.6-17 2.9-17.7" class="fill" data-name="fill-jaw" data-original-prefix="fill"/><path id="shading-jaw" fill="#aaaaaa" d="M1377.3 1124.7c2.2 2.7 13.8 4 14.5 10l8.4 112.6c17.4 18.9 36.8 35.9 56.4 52.6l1.5 3.6-51 135.8c-1 1.6-3.7 1.7-5.4 1.6-14.4-.9-32.2-8.4-47.3-8.9-1.8 0-3.2-.2-4.4 1.3l-14.4 75.6-59.4 30.1c.4 11 2.6 23.6 2 34.5-.3 5.7-1.3 15.4-2.1 20.9-.5 3.1-13.4 31.4-15.4 33.6-3 3.2-11.6 6.2-15.5 9l-12-46.4-2.4-.6-46.1 47.9c-7.8 6.2-20 9.3-27.5 15.5-14.2 11.7-24.4 36.1-41.5 47.5-6.8 4.6-52.9 25.2-60.4 26.6-9.5 1.7-52.8 1.8-62.3.2-7.6-1.3-48.1-19.8-56.6-24.4-16.2-8.6-30.7-38.5-45.1-49.9-7.1-5.7-18.8-9.3-26.5-14.5l-48-49-8.5 47c-1.4 1.2-18.5-6.9-20.5-9-1.7-1.8-15-30.8-15.4-33.6-.7-4.4-.9-13-1.1-17.9-.5-12.2.6-24.4.5-36.6-18.8-11.7-39.4-20.3-58.6-31.4l-13.1-67.4-46.4.9-36.3-91.7-.2-2.3c6.7.3 9.7 6.8 15.7 10.8 19.1 12.8 34.2 19.3 57.7 16.1 20.6-2.8 26.4-11.2 48-1.7 16.1 7.1 19.4 16.7 31.2 25.8 13.2 10.2 17.5 3.6 25.9-7.1 6.9-8.8 25.8-41.6 27.4-51.6 1.7-10.7-3.8-11.2-13-10-8.6 1.1-48.4 15.1-51 14.6-1.7-.4-12.3-7.9-16.5-9.6-20.3-8.4-48.8-11.8-67.2-20.8-14.3-6.9-12.2-21.7-18-34.5l21.5-4.1c1.9.3 10.9 13 13.5 15.6 13.7 13.8 58.3 32.8 77.6 33.5 3.4 0 6-1 8.9-1.1h20.5l-34.7-16.8c-19.1-10.8-48.2-33.1-61.8-50.2-6.2-7.7-7.1-18.3-10.5-27.5-6-16.6-14.4-32-25-46 1.3-9 6.5-19.6 7.8-28.2 2.8-19.1 3.8-27.8 12.1-45.9 49-107.6 188.2-173.2 298.2-196.8 27.9-6 50-5.8 77.9 0 118 24.3 244.7 92.5 307.8 198.2 1.9 3.1 5.2 12.6 6.5 14h-.4ZM1326 1307c15.3-11.2 31.9-21.8 44.5-36 6.1-22.7 14.6-45.7 13.5-69.6l-2.1-29.5c-1.4.2-1.9 1.8-2.5 2.9-16.8 30.8-29.1 66.4-47 97l-62.3 38.7.4 3.3c5.9 15.3 32.8 49 33.4 63.6.2 4.3-2.2 10.7-.7 15.7 1.1 3.6 11 9.8 15.2 9.4l62.4-18.5c8.3 1.2 16.7.9 25.1.6l36.7-78.8.3-3.3c-14.1-10.8-29-21.4-44.3-30.7l-2.8 11.8c-13.3 5.6-27.2 16.2-40.4 21.1-6.7 2.5-16.4 2.8-23.8 3.2-1.2 0-5.6.7-5.5-1Zm-248 20c-5.1-10.6-9.9-23.3-16.6-32.9-6.5-9.4-23.8-30.4-31.9-38.1-4.2-4-7-3.9-11.1 0-7.7 7.4-27 30.2-32.9 39.1s-10.5 22.1-15.6 31.9zm200.7 70.7c1.4-1.6 8.8-25.5 9.1-28.5.4-4.4-3.5-11.7-5.6-15.9-3.8-7.3-18.5-32.7-23.6-37.4-5.7-5.3-8-1-14 1.1-11.8 4-23.6 7.8-35.5 11.5-1.3 1.1-1.1 1 0 2 3 2.6 6.7 4.5 9.4 7.6 6.8 8.1 12.2 22 18.6 30.9l3.1-12.4c.8-3.8 7.7-7.4 10.8-5.4 1.2.8 3.6 11.4 7.9 12.7 6.1 1.8 8.2-5 11-5.7 4.2-1 10.3 3.7 10.1 8.1-.5 11.3-14.6 20.3-25.1 18.6-1.1-.2-10.1-4.8-8.7-1.3 3.1 2.8 14.4 21.8 16.7 22.4 2 .5 14.5-6.5 16-8.2h-.2Zm-550.4 99c1.6 2 8.2 6.3 10.7 7.8 14.8 8.8 31.7 13.8 46.9 23.1 16.8 10.2 40.2 33.1 59.6 33.5 2.3 0 8.7-1.2 9.4-3.7.8-2.7-13.5-27.5-16.4-30.3-7.3-7.2-27.5-17.2-37.2-23.8-15.2-10.3-50.3-39.1-67.9-39.2-10.5 0-8.7 28.1-5.1 32.7Zm591.4-30.4c-6.1-6-24 4-30.4 7.6-16.3 9.1-30.8 21.3-46.2 31.8-9.3 6.4-25.4 13.9-33.1 20.9-3.1 2.8-16.2 24.5-16.9 28.2-1.1 5.3 6.2 6.5 10.3 6.3 16.8-1 25.6-11.2 38.2-19.8 8.3-5.7 17.3-12.1 26-17 11.7-6.6 47.1-19.2 52.7-29.3 2.4-4.3 2.8-25.2-.7-28.6ZM1126 1664c-12-2.7-20.7 6.6-31.6 7.9-5.7.7-12.2-1.2-16.6-.7-7.1.8-22.9 12.1-31.2 14.9-14.8 4.9-30.2 4.7-45.1 0-8.8-2.8-23.9-14.1-31.2-14.9-4.4-.5-10.9 1.4-16.6.7-11-1.3-19.9-11-31.6-7.4 0 7 23.7 23.4 30 27 12.5 7.1 59.7 26.8 72.5 26.6s59.8-19.7 72.2-26.9c3-1.8 33.6-23.3 29.3-27.2z" class="outline shading" data-original-prefix="shading" opacity="0.5" style="opacity: 0.5"/><path id="outline-jaw" fill="#000000" d="M1378 1122c.3-3.9.6-9.1 5.7-9.8 7.8-1.2 8.7 12 9.3 17.3 3.8 33.8 2.1 69.1 8.3 102.7 2.2 11.9 3.2 13.8 12.3 21.7 14.8 13 33.2 22.8 47.5 36.5 2.6 2.5 11.8 12.2 12 15.1l-66.1 156.3-46.9-24.9c-1.8 6.1-5.4 12.6-6.7 18.8-4.1 19.2 0 41.1-2.2 59.8-.4 3.4-10.5 17.5-13.3 18.7-6.4 3-16.2-1.8-24.7 3.3-23.8 14.4-17.9 48.6-27.2 68.8-7.8 17-37 48.2-52.9 58.1-1.6 1-2.9 1.9-4.9 1.6 1.1-14.8 3.1-34.9-3.9-48.6-.4-.8-.4-3.2-2.1-1.4-.7.7-3.6 13.8-6.6 17.9-5.8 7.9-20.7 8.9-29.4 12.6-16.7 7-14.3 32.7-27.7 43.3-19.3 15.2-61.2 32-85.1 38.9-10.8 3.1-38.9 11.3-48.7 11.3-15 0-63.4-15.1-78.8-21.2-11.1-4.4-55.3-26-60.6-34.4-6.9-11.1-8.5-31.6-21.5-37.6-14.5-6.6-26.4-2.4-33.9-20.1-1.1-2.5-2.5-10.3-2.8-10.7-1.3-1.6-1.8.4-2.2 1.3-6.9 12.5-5 34.9-3.8 48.7-2 .3-3.3-.6-4.9-1.6-15.7-9.8-48.9-44.4-54.2-61.8-6.2-20.6-5.3-52.1-25.9-65.1-8.2-5.2-18.3-.3-24.7-3.3-.9-.4-12.2-14.2-12.7-15.3-2.1-5.2-.2-29.6-.5-37.4-.4-9.1-2-18.5-3-27.5-4 1.6-7.6 4.7-11.9 5.6-2.8.6-5.6.7-8.5.3-4.7-.6-27.4-9.9-32.6-12.4-1.3-.7-2.7-1.2-3.5-2.5-2-33.7-22.2-63.7-44-88-2-4.4 2.1-14.5 3.7-19.2 6.2-17.8 15.6-36.4 25.7-52.3 3.2-5.1 14.2-22 17.9-25.1 5.5-4.4 9.8 3.3 14.6 6.6 1.6 1.1 12.7 7.8 13.5 7-2.9-7.2-9.4-11-13.8-17.7-4-6-15.9-26.4-15.8-32.6s5.4-17.7 6.5-25.3c.5-3 1.1-8.8 1.2-11.8.2-6.5-3-17.5 1.3-22.2 1.2-1.4 12.8-6.5 14.1-6.2.9.2 5 11.2 10.5 7.8 2.3-1.4 1-34.7 0-39.9.3-.3 7.6 1.8 8 2 1.8 1.1 7 8.1 9.8 9.7.5 8.4 3.4 20.7 1.1 28.7-2.8 10.1-17.5 14.8-21.2 22.8-1.2 2.6-6.4 25.9-6.7 29.3 0 1.2-.2 2.4.2 3.7 4.8 10.3 13.7 19.4 18.7 29.3s9 33.8 15.5 40c5.3 5.1 14.5 7.1 21 10.5 7.5 4.1 15.7 10.7 22.7 15.8-11.3-1.3-47.2-5.2-54.5-13-3.3-3.6-5.7-15.7-9.6-17.4-2.6-1.2-6.2-.2-9.2-.8-7-1.2-10.7-7.9-18.5-1.5-6.6 12.5-14.3 24.3-20.4 37.1-7.4 15.4-14.8 25.1-4.8 41.2 5.3 8.6 23.3 26.7 25.6 34.4 2.5 8.6-2.7 28 2.9 34.1 6 6.6 20.6 4.5 27.8.8 10.6-5.4 8.7-9.9 14.3-18.7 5.2-8.2 19.7-23.1 28.9-26.2s13.4 8.6 15.6 15.5c7.3 23.8-.2 34 22.5 51.5 11.6 8.9 33.3 20.1 47.8 17.9 8.5-1.2 21.1-6.6 27.2-12.8 7.2-7.5 8.8-24.6 24-14 15.8 11 30.3 30.1 46.6 41.4 20.5 14.3 77.5 32.5 102.5 34.6 37 3 105.5-17.1 134.5-40.5 11.5-9.3 21.6-20.6 33-30 4-3.3 11.6-11.3 17-8 .7.5 7.5 12.5 9.2 14.8 3.3 4.7 11.5 16.1 17.4 16.7 7.4.8 31.3-15.5 40.2-17.2 8.1-21.2 17.3-42.1 23.5-64 2.8-9.9 8.4-24.8 3.8-34.3-2.1-4.2-21.3-33.6-24-36-3-2.7-9.6-5-13.5-6.5-3.3-1.2-19.8-5.2-20.5-6-1.5-1.4.4-1.7 1.3-2.2 1.3-.7 11.6-5.7 12.3-5.8 2.6-.4 25.4 6.8 27.4 8.5s8.6 15.3 11 19c5 7.6 19.5 25.4 20.8 33.2.4 2.5.5 4.9-.2 7.3l-26.5 74.9c22.1-8.1 42.1-21.6 63.6-30.8 4.1-1.8 12.4-6.1 16.3-4.6 4.7 1.7 16.6 11.3 22.4 14.6 2.4 1.4 18.7 10.5 19.7 9.8l48.1-125.5c-.2-2.1-12.6-9.7-15.4-11.7-13.3-9.9-23-17.3-37.4-25.6-7.1-4.1-7.5-7.8-8.3-15.7-2.2-22.8-2.4-46.1-4-69-1.5-20.8-6.3-45.1-5-65.5h-.7Zm-649 280c-5.9.4-11.3 6.2-14.4 11.1-12.8 20.4-.6 26.3 1.3 45.5 1.3 13.2-3.2 33.5 4.7 44.3 5.3 7.3 21.6 10.7 30.1 14.9 3.6 1.8 23 13.2 24.8 15.2.4.4 3.3 5.3 3.3 5.6 0 .8-3.5 12.2-3.8 15.8-1.9 24 4.5 52.9 21 71l5 4.5c.9-4.6-1.1-9.2-1.1-13.5 0-12.5 8.2-24.3 10.1-36.5 23.5 5.4 36.4 28.6 51.4 45 11.3 12.4 23.8 14.5 34.1 23.9 6.5 5.9 11.9 15.9 17.5 22.5 14.6 17.4 20.2 23.3 41.3 32.7 29 13 50.6 21 83.2 18.9 16.8-1.1 61.8-19.2 76.4-28.6 16-10.4 26.2-34.2 40.1-45.9 10.6-9 21.7-10.9 32.5-22.5 15.6-16.6 28.5-40.5 52.5-46 .8 9.9 6.9 18.2 8.7 27.8 1.5 7.6.3 13.6.3 21.2 7.8-5.3 15.2-16.8 18.8-25.6 5.4-12.9 8.1-33.2 7.2-46.9-.2-3.4-3.8-17.5-3.5-18.4.6-1.7 3.6-5.7 5.2-6.9 4.5-3.4 17.3-10.6 22.7-13.3 11.7-5.9 31.5-8 33.6-23.4s-.7-31.7 3.8-48.2c1-3.6 5.3-8-1.4-5.4-30.7 11.8-63.4 35.5-93.6 46.4-10.1 3.6-23.8 2.7-32.8 7.2-6.8 3.5-11.5 12.3-16.4 17.6-16.2 17.4-41.8 25.6-65 28-69.4 7-135.6 6.9-205 0-21.7-2.1-46-9.9-62.5-24.5-5.9-5.2-10.7-15.4-19.3-15.2-3.9 0-8.2 3.3-11.2 3.7-5.5.6-22.8-12.9-28.7-16.2-15-8.4-31.4-14.8-46-24-2.8-1.8-16.7-11.4-17.8-13.2-2.8-4.9.2-12 0-17.1 0-10.4-4.3-21.6-7.1-31.5" class="outline" data-original-prefix="outline"/><path id="outline-jaw1" fill="#000000" d="M1253.7 1342.2c12.9-2.4 29.1 10.8 24 24-3.6 9.3-14.2 17-24.2 12.8-15.8-6.5-17-33.6.3-36.8zm12 9.1c-9.3-7.8-20.1 5.1-12.2 15.7s21.4-8 12.2-15.7" class="outline" data-name="outline-jaw" data-original-prefix="outline"/><path id="outline-jaw2" fill="#000000" d="M1313.7 1382.2c20.2-4.4 22.1 39.9-4.2 35.7-17.9-2.8-9.8-32.7 4.2-35.7m.9 9c-3.6.7-12.7 16.2-2.9 17.7 9.1 1.4 10.8-19.2 2.9-17.7" class="outline" data-name="outline-jaw" data-original-prefix="outline"/>
    </g><g class="trait-group" data-category="mouth" id="mouth-scrappy">
      <path id="fill-muzzle" fill="#ffffff" d="M1038 1292s-.4 1.7.7 2c10.3 2.8 18 4.3 25.8 13 1.9 2.2 4.9 8.8 6.5 9.5 2.6 1.2 6.6 0 9.5.5 11.4 1.5 21.2 3.7 31.2 9.8 2.1 1.3 9.2 7.8 10.2 7.1.3-.3 0-1.7 0-1.9 2.4-1.8 32.7.6 38 1 5.2 4.2 13.2 5.5 19.2 8.3 13.7 6.4 22.5 16.1 29.9 29.1 8.4 14.6 7.7 17.8 3.1 33.4-2.5 8.5-4.8 21.8-16.3 20.2 1.5-15.5-14.8-32.4-26.5-41-3.2-2.4-11.3-7.2-6 0 10.8 14.7 20.2 14.8 21.5 37.5.6 10.3-8.4 32.9-15.4 40.5-.6.7-7.1 6.3-7.6 6.5-3 1.6-6.9-6.1-7.8-8.2-3.6-7.8-4.7-15.5-9.7-23.3-1.1-1.7-10.8-13.7-12.4-12.1 5.6 13 9 46.2-2.5 56-4.4 3.7-9.4 1.9-13.3 3.7-2.8 1.3-3 5.7-4.8 6.1s-7-3.1-9.4-3.5c-8.9-1.3-13.2 17-18.7 17.5-2.5.2-10.7-11.9-18.4-9.4-7 2.2-15.4 21.2-24.4 23.6-6.3-6-3.4-14-5.8-21.2-1.2-3.5-4.2-6.7-5.8-10.2-5.4-12.7-2.8-19.9-.2-32.2.6-3 0-5.9.9-9.1.2-.7 6.3-12.3 6.9-13.1 3.7-5.4 19.2-12.4 22.7-3.8.9 2.2 0 8.7 2.2 7.7 5.1-4.9 10.2-9.9 15.5-14.5 11.5-10 14.1-9.7 21.2-24.8 1.5-3.3 6.5-14.5 6.6-17.3 0-3.4-9.2-14.7-11.8-17.8-1.4-1.7-9.5-11.5-10.2-11.8-6.4-3.2-28-2.3-34.7.8-7.9 3.6-12.5 12-19 17-1 .8-1.3 1.9-3 1.5l.8-12.7c3.6-4.3 21.7-23.3 21.1-27.5-.4-2.6-11.3-13.4-12.9-11.7 4.4 12.8.7 8.7-7.3 12.2-1.2.5-2.9 2.7-3.2 2.7s-2-2.2-3.2-2.7c-3.4-1.5-9.7-.4-9.3-5.6 0-1.1 4.1-7.6.5-6.6-2.8.8-12 9.9-11.3 13.2 0 .6 4 7 4.8 8 1.5 2 5 5.9 7 8.3 3.2 3.9 9.7 7.6 9.9 13.1 0 1.6-.8 3.1-.8 4.8s2.6 8.1-2.5 3.6c-6.2-5.3-10.2-13.6-18.5-17.5-6.5-3-30.3-4.3-35.7-.2-.8.6-8.8 10.5-10.2 12.2-2.4 3-10.9 13.7-10.8 16.8.2 5.4 11.7 29 15.7 33.2 3 3.2 9.3 6.8 13 9.9 5 4.3 9.7 9.1 14.5 13.5l4.2-11.1c4.9-3.1 17.7 2.6 20.8 7.1 1 1.5 5.1 9.9 6 11.9 2.8 6.4 5.1 25.4 4.4 32.4-1.1 10-7.9 15-9.4 22.6-1.3 6.4 1.1 14.9-5.8 18.9-8.1-2.6-17.3-21.5-23.6-23.5-8.2-2.6-15.9 9.6-18.4 9.4-5.3-.4-8.7-14-13.9-16.1-6.9-2.8-11.5 2.7-14.1 2.1-1.8-.4-2-4.8-4.8-6.1-4.5-2-9.6.3-14.3-4.7-10.9-11.5-6.5-42.2-1.5-56.1-9.1 6.7-14.1 14.8-18.5 25-1.6 3.6-2 7.5-3.7 11.3-1 2.1-4.9 9.8-7.8 8.2-.4-.2-6.9-5.9-7.5-6.5-3.9-4.3-13.8-24.4-15-30-2.8-12.9 1.4-26.5 9.5-36.5 4.1-5.1 11.3-9 13-15.5-2.4-2.4-22.3 17.4-24.4 20.1-5.4 6.8-11 15.9-9.6 24.9-8.3.5-10.7-3.3-13.3-10.2-2.7-7.1-7.8-22.8-6.2-29.8 3.7-16.2 21.4-35.8 36.3-42.7 6.2-2.9 13.9-4.1 19.2-8.3 12.5-.8 24.5-2.3 37-1 0 0 .7 2.1.5 3 9.5-8.2 20.6-14.8 33.1-16.9 4.7-.8 14.8-.4 18.1-1.8 1.6-.7 5.2-7.7 7.2-9.9 8-8.4 15.2-9.7 25.4-12.5 1.1-.3.6-1.9.7-2 1.1-.7 25.9-.7 27 0v.2Z" class="fill" data-original-prefix="fill"/><path id="fill-teeth14" fill="#ffffff" d="M1039.1 1601.9c-.8-.5-7.2-15.4-7.9-17.6-4.2-13.6-7-37.9-1.5-51.1 5.8-13.9 10.8-1 20-5 1.9-.8 7.6-6.8 9.2-8.8 2.6-3 3.6-9.1 8-8 12.8 3.1 21.1 24.2 22 36.1 2.3 30.4-23.4 40.7-45.2 53.7-1.2.5-3.6 1.3-4.6.6Z" class="fill" data-original-prefix="fill"/><path id="fill-teeth13" fill="#ffffff" d="M1015.7 1527.3c10.2 8.9 6 44.1 2.3 56.2-1.9 6.4-6 12-8.1 18.3h-2.3c-12.1-7.1-26.3-12.4-36.1-22.9-9.1-9.8-12.3-17.9-11.5-31.5.8-11.8 9-32.3 21.2-35.9 4.8-1.4 5.7 4.5 8.2 7.4 1.8 2.1 8.3 8.8 10.5 9.5 6 1.9 12.5-4.1 15.8-1.3z" class="fill" data-original-prefix="fill"/><path id="fill-teeth12" fill="#ffffff" d="M904 1461c0 2.2-1.1 3.8-.8 6.2s7.4 22.5 8.8 24c3.7 4.1 11.1 2.3 15.9 2.9 4.9 13.5-4.3 23.9-8.6 35.6-2 5.3-8.4 33.1-12.8 34.3-3.3.8-11.7-18-12.8-21.2-6.8-20.9-8.8-51.8 1.8-71.7.6-1.2 7.1-11.6 8.4-10.1Z" class="fill" data-original-prefix="fill"/><path id="fill-teeth11" fill="#ffffff" d="M1144 1564c-1 .7-1.8-.4-2.4-1.1-5.8-5.8-8.7-24.8-11.8-33.2-4.3-11.7-13.8-21.9-8.6-35.6 18.6 2.9 18.2-8.8 23.1-22.4l2.2-9.8c10.2 11.1 15.2 27.6 14.6 42.5-.5 13.7-3.2 35.3-9.5 47.5-.8 1.5-6.9 11.6-7.5 12Z" class="fill" data-original-prefix="fill"/><path id="fill-teeth10" fill="#ffffff" d="M949 1569c5.5 22.1 11.4 45.4 9 68.5-.5 5-1.3 9.2-7 6.9-3.4-1.3-17.5-13.4-19.5-16.5-7.4-11.8.3-39.7 8-50.8 1.2-1.7 7-10.1 9.4-8.1Z" class="fill" data-original-prefix="fill"/><path id="fill-teeth9" fill="#ffffff" d="M1100 1569c3.4-2.9 13.3 14.1 14.5 17 4.8 11.7 9.3 33.5 1 44-2.1 2.7-18.5 16.5-20.9 15.9-1.9-.4-3.4-6.5-3.6-8.4-1-8.7 0-26 1-35 1.1-10.9 6.5-22.5 8-33.5" class="fill" data-original-prefix="fill"/><path id="fill-teeth8" fill="#ffffff" d="M1167 1547c.9-6.7-1-15-.6-21.3.3-6.3 3.7-14.6 3.6-21.2 0-5.7-4.8-19.5-4-24 .5-2.9 3.5-2.8 5.5-4.5 6.2-5.3 10.4-15.8 16.9-4.9 14.2 23.5-1 56.5-18.4 74.4-.9 1-1.3 1.9-3 1.5" class="fill" data-original-prefix="fill"/><path id="fill-teeth7" fill="#ffffff" d="M881.7 1478.3c3.3 2.9-2.8 21-2.8 26.2s2.6 12.6 3.1 18c.7 8 0 16.5-.5 24.5-1.8 0-11.7-13.3-13.3-15.7-11.2-16.8-20.3-43.7-7-61.7 6.2-8.4 9.7.9 14 4.7 2 1.9 5.7 3 6.6 3.9Z" class="fill" data-original-prefix="fill"/><path id="fill-teeth6" fill="#ffffff" d="M1018 1613v16.5c0 .9-10.8 13.2-11.9 14.1-6.3 4.8-8-2.6-10.6-5.5-5.5-6-17.9-.4-24.4-5.6-.9-.7-4.1-8.3-4.1-8.9v-24.5c12.3 3 28.7 18.5 41.4 16.9 3.5-.4 6.1-3 9.6-2.9Z" class="fill" data-original-prefix="fill"/><path id="fill-teeth5" fill="#ffffff" d="M1102.5 1494c3.3-.8 5.3 8.5 6.3 10.7 5 10.5 15.3 30.3 11.4 42.1-2.2 6.7-15.6 23.4-20.4 11-4-10.4-4.1-44.7-1.1-55.5.4-1.6 2.4-7.9 3.8-8.2Z" class="fill" data-original-prefix="fill"/><path id="fill-teeth4" fill="#ffffff" d="M917 1563c-1.6 13.5 2.8 27.4 2 40.5-.5 8.8-4.2 18.6-5.5 27.5-5.8-5.6-10.5-15.7-11.4-23.6-.6-5.2.7-25.8 2.4-30.3.6-1.6 10.5-16.2 12.4-14.1Z" class="fill" data-original-prefix="fill"/><path id="fill-teeth3" fill="#ffffff" d="M1135 1631c-.4-8.9-4.4-17.8-5.1-26.5-1-13.6 3.6-27.7 2-41.5 2.2-2.4 11.9 13 12.5 15 2 6.8 2.7 27.3 1.2 34.3-1.3 6.3-5.5 14.8-10.8 18.7z" class="fill" data-original-prefix="fill"/><path id="fill-teeth2" fill="#ffffff" d="M1154.1 1604.9c-3.4-2-5.1-22.3-3.9-26.2.8-2.6 8.9-5.2 10.2-8.8l5.1-10.9c3.8 3.4 5.1 7.2 4.3 12.2-.7 4.5-5.2 22.3-6.9 26.2-.9 2.2-6.1 9-8.8 7.5" class="fill" data-original-prefix="fill"/><path id="fill-teeth1" fill="#ffffff" d="M885 1559c.4.4.7 7.1 3 10.5 2.7 3.9 10.5 6.9 11 10-.8 4.7-.7 23-4 25.4-2.5 1.8-7.7-4.5-8.7-6.7-1.6-3.6-6.3-22.5-7-27-.6-3.9 2.5-15.6 5.8-12.3Z" class="fill" data-original-prefix="fill"/><path id="shading-mouth2" fill="#aaaaaa" d="M918 1443.5c.8 5.3 5.6 13.8 10.1 16.9 11.5 8.3 16.2-.3 22.4-9.4 2.5 5.4 3.4 11.5 6 17 1.4 2.8 5.7 12 7.5 5.5l4-11.5c1.6 7.5 6.3 15.4 11.5 21 4.3 4.7 18.8 15.4 24.6 9.6 2-2.1 8.3-17.9 10.8-22.2 1.2-2.2 7.8-13.8 9.7-13.3 1 .2 8.5 13.2 9.7 15.3 2.4 4.5 7.3 17.7 9.8 20.2 3.8 3.8 10.5.4 14.4-1.8 10.5-5.9 18.5-17.2 21.7-28.8l4.2 12.3c.3 1.2 1.9 2.4 2.8 1.7.6-.4 5.8-11.3 6.5-13 .8-2 2.8-12 4-12 6.8 10.7 12.9 18.4 24.5 7.5 8.6-8 9.3-23.8 7-34.5 3.5-3.1 21.1 16.1 26.6 16.9 9.1 1.4 17.6-11.8 19-19.9 3.5-20.5-12.9-39.2-30.9-46.2l-12.7-4.8c15.4 0 28.2 2.9 41.1 11.4 4.8 3.1 12.2 10.9 17.6 11.4 6.2.6 10.1-4.1 10-10-.4-19.3-25.8-38.1-39.7-48.8 15.4 2.4 34.6 11.8 45 23.5 7.8 8.8 19.1 25.1 19.1 37s-6.4 28.5-9.2 32.8c-3.3 5.3-11.7 5.4-13.4 10.6-.9 8.1-2.1 16.4-2.5 24.5-1.5 29 1.4 45.2-10.8 73.2-3.6 8.2-12.7 20.4-14.9 27.1-4.2 12.8-.7 26.4-9.1 38.9-3.2 4.8-8.4 6.7-11.2 10.8-1.7 2.5-2.4 6.1-4.2 8.8-4.5 6.7-14.6 23-21.6 8.9-1.6-3.3-1.3-12.9-6.7-6.2-1.4 1.7-1.9 4.4-3.5 6.5-3.7 4.7-17.7 19.6-23.5 19.5-2.2 0-4.5-4.1-6.6-5.4-7.9-5-21.1-6.3-29.2-1.4-7.3 4.4-9.5 13.6-18.1 6.8s-6.4-10.8-20.1-9c-5.6.7-11.4 12.6-16.9 12.1-2.8-.2-11.4-11.1-18.5-12.6-6.3-1.3-17.5.7-23 4.2-2.6 1.7-4.1 5.6-7.5 5.4-5.7-.3-19.8-15.8-23.6-20.5-1.2-1.5-4.4-10.6-7.1-6.9-2.5 3.4-.6 9.9-7.2 12.7-7 3-14.9-11.2-18.1-16.4-1.2-1.8-1.2-4.3-2.6-6.4-2-3-6.8-5.4-9.5-8.5-10.4-11.9-6.7-27.7-10.7-41.3-.8-2.6-5.6-8.5-7.3-11.7-18.4-35.7-16.4-45.6-18.4-84.6-.4-7.7-.6-20.7-2.2-27.8-1.5-6.2-11.1-6.1-14.2-11.8-3.4-6.1-9.3-29.6-8.6-36.4 1.2-10.3 16.2-31.2 24-38 10.5-9.2 26.2-16.5 40-18.5l-21.5 17c-7.2 6.4-26.8 32-14.8 39.9 9 5.9 16.7-4.5 23.7-9.1 12.7-8.4 25.3-11.8 40.7-11.8l-17.3 7.2c-18 9.4-33.1 32.7-22.1 52.8 1.7 3.1 8.6 10.4 12 11.1 9.1 1.7 20.7-15.4 29.5-18 .6 6.4-.9 14.3 0 20.5zm-37.1 40.6c-12.3-.5-17.1-20.2-22.8 1.5-3.4 13 1.2 26.4 9.4 36.5 1.5 1.8 12.7 13.1 13.9 12.9.8 0 2.5-2.3 2.8-3.2 2.9-7.1-3.2-12.2-4.2-19.2-1.5-9.8 0-18.7.9-28.4Zm301.8-8.9c-3.2.8-6.3 6-8.8 7.3-2.1 1.1-7.2 1-7.8 3.2-.5 1.7 3 10.8 2.9 14.8 0 3-1.5 13.9-2.2 16.8-.9 3.6-3.9 5.7-3.9 10.2s1.4 7.1 3.7 7.4c1.9.3 15-14.4 16.8-17 5.7-8.5 9-18.8 7.3-29.2-.5-3-4.4-14.5-8-13.6Zm-284.8 10c-4-2.3-6.5 9.9-6.8 12.5-1.2 10.5 3 38 8.7 47.1 1.9 3 5.4 6.9 9.2 7.3 3.7-15.6 12.6-29.2 21-42.5-2.3-.4-1.7-2.9-2.7-3.5-1.5-.9-7-1.9-9.7-3.1-4.7-2.2-12-7.7-15.6-11.4-1.2-1.2-3.8-6.2-4.2-6.3ZM1139 1552c8.3-2 11.9-12.2 13.9-19.6 3.1-12.1 6.1-33.4 1.1-44.8-3-6.9-5.8 1.7-8.3 4.1-3.9 3.8-11 9.3-16 11.6-2.5 1.1-7.8 1.8-9.1 2.7-.7.5-.5 1.8-1 2.7-.3.4-1.7.4-1.6.9 0 1 7.9 12.3 9.2 14.8 4.8 8.8 9.1 18 11.8 27.7Zm-197.7 5.7c8.1 8.1 9.5 0 10.5-7.3.8-5.6 2.7-20.6 1.7-25.4-3.6-17.2-21.3-15.9-21.6 3.6 0 6.8 4.6 24.3 9.4 29.2Zm161.5-44.5c-5 1.3-8.5 9.3-8.8 14.2-.2 4 2.4 28.5 3.8 31.3 2.5 5 7.5 0 9.8-2.7 6.8-8.3 11.6-30.7 4.5-39.5-2.7-3.3-4.8-4.4-9.2-3.3zM1023 1544c-.7-.7-.8-7-5.1-9.4-8.9-5-21.8-.8-32-4-10.4-3.3-9.4-13.1-16.1 1.8-2.9 6.4-9.1 24.4-6.3 30.7 1.1 2.4 17.8 15.6 21.2 17.8s18.2 11.7 21.1 10c3.1-5.6 9.3-9.5 12.6-14.9 1.8-2.8 4.1-11.5 4.6-11.9 1.6-1.7 1.7.5 2.1 1.4 1.6 3.6 2.1 6.8 4.5 10.5 3.3 5.2 9.2 9.3 12.4 14.6 3.1 1.9 15.5-5.9 18.9-8.1 4.5-2.9 22.9-17 23.9-21.1 2.2-9.7-6.6-28.3-10.9-37.2-4.9 1-7.8 5.2-12.7 6.7-9.2 2.8-28.2-1.6-33.7 6.3-.9 1.2-2.6 8.9-4.5 7zm-136 18c-.7-.6-3.5 0-4.5.9-6 6.2 2.4 31.6 14.6 27.6 4-1.3 3.8-9.4 2.8-12.9-1.1-3.9-7.2-4.1-9.8-7.2-2.1-2.5-2.7-8.2-3-8.5Zm274.1 0c-.3.3-.9 6-3 8.5-2.6 3.1-8.7 3.3-9.8 7.2-1 3.4-1.2 11.6 2.8 12.9 13.4 4.4 20.2-24.5 14.1-28.1-.9-.5-3.5-.9-4-.4Zm-216.4 7.2c-1.5.4-5.1 4.6-6 6.1-3.4 5.6-5.6 32.3-4.8 39.3 1.3 10.9 15.2 18 19.5 3.5 1.7-5.6 2.6-21.4 2.5-27.6 0-1.1-5.8-19.7-6.5-20.5-1.2-1.4-3.2-1.3-4.8-.8Zm153.3-.1c.2 6.6-5.4 14.7-6 20.6-.5 4.5 1 25.3 2.4 29.4 4.2 12.1 16.9 7.3 19.1-2.9 1.1-5.2 0-16.8-.6-22.6-1-9.7-1.7-25.5-14.9-24.5m-180 1.9c-20.5 3.8-17 28.7-9 43 4 2.9 10.4-17 10.7-19.8.9-7.5-2.9-15.5-1.8-23.2Zm218 43c2.5 1.8 7.2-9.1 7.7-10.8 3.9-12.8 1.6-30.1-13.7-32.2.5 7.4-2.8 16.2-1.9 23.4.3 2.7 6.4 18.5 7.9 19.6m-148.2 10.2c1.4.8 4.8 8.6 9.5 11 11.1 5.8 20.2-6.4 20.7-16.7.8-13.7-7.2-7.7-16.5-8.6-8.4-.8-15-4.8-21.8-9.2-5.5-3.5-13.6-14.6-14.7-1.4-.5 5.1 1.4 7.5 1.8 11.2s-2 5.9.5 10.7c4.8 9.3 18 1.3 20.7 2.8zm93.1-31.1c-2.1-1.5-19.7 12.7-23.9 14.4-2.3 1-7.9 2.3-10.5 2.5-10.5.9-18.8-5.4-16.4 11.4 1 7.3 7.9 15.8 16 15.1 9.4-.8 11.9-11.6 14.6-12.4 4-1.3 12.3 5.7 18.9-1.1 4.3-4.4 1.3-8.4 1.5-12.5 0-2.3 1.9-4.8 2-8.1 0-1.9-.8-8.5-2.2-9.4Z" class="outline shading" data-original-prefix="shading" opacity="0.5" style="opacity: 0.5"/><path id="shading-mouth1" fill="#aaaaaa" d="M1041 1343c6.1.5 12.7-1 17.5-5 1.5-1.3.9-3.7 2.8-2.9 10.1 7.9 37.9 17.4 43.8 28.2 3.6 6.5 4.6 17.5-1.8 22.6-5.6 4.5-20.8 10.8-28 15-4.9 2.8-9.7 6.6-14.7 9.3-7.4 4.1-25.5 14.5-32.6 16.4-2.9.8-5.2.8-8.1 0-14.5-3.8-42.2-22.5-56.3-30.7-6.2-3.6-21.2-9.1-23.2-15.8-5.5-18.4 15.7-28.3 28.7-35.4 2.3-1.2 15.5-8.6 16.5-8.7 2.9-.3 4.2 2.9 6.7 4.2 4.2 2.3 10 3.2 14.7 2.8-.3-5.1-3.3-11.3-1.8-16.3.5-1.6 12.5-13.9 14.5-14.4 3.9-1 8.2-.3 11.6 1.9 1 .7 10.8 11.1 11.2 11.8 2.1 5-1.2 11.8-1.5 17" class="outline shading" data-original-prefix="shading" opacity="0.5" style="opacity: 0.5"/><path id="outline-mouth3" fill="#000000" d="M889 1333c-5.3 4.2-13 5.4-19.2 8.3-14.9 6.9-32.6 26.5-36.3 42.7-1.6 7 3.5 22.7 6.2 29.8 2.6 6.9 5 10.8 13.3 10.2-1.4-9 4.2-18.1 9.6-24.9 2.1-2.6 22-22.5 24.4-20.1-1.7 6.5-8.8 10.4-13 15.5-8.1 10-12.3 23.6-9.5 36.5 1.2 5.6 11.1 25.8 15 30 .6.7 7.1 6.3 7.5 6.5 3 1.5 6.9-6.1 7.8-8.2 1.7-3.8 2.1-7.7 3.7-11.3 4.4-10.2 9.4-18.4 18.5-25-5.1 13.9-9.5 44.6 1.5 56.1 4.8 5 9.9 2.7 14.3 4.7 2.8 1.3 3 5.7 4.8 6.1 2.6.6 7.2-4.9 14.1-2.1 5.2 2.1 8.6 15.6 13.9 16.1 2.5.2 10.2-12 18.4-9.4 6.3 2 15.5 20.8 23.6 23.5 6.9-4 4.5-12.6 5.8-18.9 1.5-7.6 8.3-12.6 9.4-22.6.8-7-1.6-26-4.4-32.4-.9-2.1-5-10.5-6-11.9-3.1-4.5-15.9-10.2-20.8-7.1l-4.2 11.1c-4.8-4.4-9.5-9.2-14.5-13.5-3.7-3.2-10-6.8-13-9.9-4-4.2-15.5-27.8-15.7-33.2 0-3.1 8.4-13.8 10.8-16.8 1.4-1.8 9.5-11.6 10.2-12.2 5.4-4.1 29.2-2.8 35.7.2 8.4 3.8 12.4 12.1 18.5 17.5 5.2 4.5 2.5-1.7 2.5-3.6s.9-3.2.8-4.8c-.2-5.4-6.7-9.2-9.9-13.1-2-2.4-5.5-6.3-7-8.3-.8-1-4.7-7.3-4.8-8-.7-3.3 8.6-12.4 11.3-13.2 3.6-1-.5 5.5-.5 6.6-.4 5.2 5.9 4.1 9.3 5.6 1.2.5 3 2.7 3.2 2.7s2-2.2 3.2-2.7c8-3.5 11.7.6 7.3-12.2 1.6-1.7 12.5 9.1 12.9 11.7.6 4.2-17.5 23.2-21.1 27.5l-.8 12.7c1.7.4 2-.7 3-1.5 6.5-5 11.1-13.4 19-17 6.8-3.1 28.3-4.1 34.7-.8.7.3 8.8 10.1 10.2 11.8 2.6 3.1 11.9 14.4 11.8 17.8 0 2.8-5 14.1-6.6 17.3-7.1 15.2-9.7 14.8-21.2 24.8-5.3 4.6-10.4 9.6-15.5 14.5-2.2.9-1.4-5.6-2.2-7.7-3.4-8.6-19-1.6-22.7 3.8-.6.8-6.7 12.4-6.9 13.1-1 3.2-.3 6.1-.9 9.1-2.6 12.3-5.2 19.6.2 32.2 1.5 3.5 4.6 6.8 5.8 10.2 2.5 7.2-.5 15.2 5.8 21.2 9-2.3 17.4-21.3 24.4-23.6 7.7-2.4 15.9 9.6 18.4 9.4 5.6-.5 9.8-18.8 18.7-17.5 2.3.3 7.6 3.9 9.4 3.5s2-4.8 4.8-6.1c3.9-1.8 8.9 0 13.3-3.7 11.5-9.9 8.1-43 2.5-56 1.6-1.7 11.3 10.4 12.4 12.1 5.1 7.8 6.1 15.5 9.7 23.3 1 2.1 4.8 9.8 7.8 8.2.4-.2 6.9-5.8 7.6-6.5 7-7.6 16-30.2 15.4-40.5-1.3-22.7-10.7-22.7-21.5-37.5-5.3-7.2 2.8-2.4 6 0 11.8 8.6 28 25.5 26.5 41 11.4 1.6 13.7-11.7 16.3-20.2 4.6-15.6 5.3-18.8-3.1-33.4-7.4-13-16.3-22.7-29.9-29.1-6-2.8-14.1-4.1-19.2-8.3 9.3.7 19.7 2.8 29.2 5.3 7.4 1.9 14.4 3.9 20.7 8.3 3.2 9.3 27.6 34.6 28 42 .2 3.7-8.2 22.5-10 27.9-2.5 7.2-2.6 16-10 21-1.9 1.3-8.4 2-9 3.2-4.1 7.9-1.4 38-1.9 48.8-1.1 21.6-7.6 43.1-20.5 60.5-.9 1.2-2.6 1.5-3.6 2.7-4.3 5.6-2.8 18.6-4.3 26.5-1.2 6-5 13.1-5.6 18.4-.4 3.5 1.3 7.7.8 9.7s-10.7 8.6-13.2 9.9c-2.2 1.2-5.7 1.5-6.5 2-.6.4-5.4 10.9-7.2 13.3-2.1 2.7-11.1 11.3-14 12.1-4.1 1.2-7.9-10.3-9.9-13s-2.3 2.3-3.6 4.3c-4.3 6.7-25.1 26.6-32.4 28.6-1.7.5-3.3.7-5 .5-.4-5.9 3.2-9.9-1.5-15.1-8.2-9-20.9-.3-24.3 8.8-1.8 4.9-1.6 20-8.6 18.1-4.6-1.3-20-25.6-23.2-30.8-5.7 8.9-12.2 19.9-19.5 27.4-11.2 11.7-9.9-11-13.8-18.2-3.8-7.1-14-12-21.1-6.7-6.7 5-2.9 9.6-3.1 16.4-3.5 3.5-24.3-13.8-27.5-17-1.3-1.3-10.5-12.2-11-13-.7-1.4-.2-6.3-2.6-3.3-2.1 2.7-6.2 14.3-10.2 13.3s-12-10.2-13.7-12.4c-2.1-2.7-6.6-12.8-7.2-13.2-.8-.5-3.8-.6-5.8-1.7-2.3-1.2-11.9-7.4-13-9-2.1-3.2.4-6.9 0-11-.7-6.8-5.9-15.3-6.8-24.2-.5-5 .6-10.7-.6-15.4-1-4-8-10-10.7-14.3-15.3-24.4-17.6-52.1-17.9-80.2 0-5.4 3-18.2 0-22.8-.8-1.2-7.8-1.9-10.4-3.8-7.2-5.3-6.2-13-8.6-20.4-1.9-6-10.7-24.3-9.8-28.7.5-2.7 4.3-7.5 6-10.1 7-10.8 15.7-20.6 22.5-31.5 5.9-4.3 13.2-6 20.1-7.9 9.7-2.6 19.8-4.7 29.2-5.3h.2Zm15 128c-1.4-1.5-7.8 8.9-8.4 10.1-10.6 19.9-8.6 50.8-1.8 71.7 1.1 3.3 9.4 22.1 12.8 21.2 4.4-1.1 10.8-28.9 12.8-34.3 4.3-11.7 13.6-22.1 8.6-35.6-4.8-.6-12.2 1.2-15.9-2.9-1.4-1.5-8.5-21.7-8.8-24s.8-4 .8-6.2Zm240 103c.6-.4 6.8-10.5 7.5-12 6.3-12.1 9-33.7 9.5-47.5.6-14.9-4.3-31.4-14.6-42.5l-2.2 9.8c-4.9 13.6-4.6 25.2-23.1 22.4-5.2 13.7 4.3 23.9 8.6 35.6 3.1 8.4 6 27.5 11.8 33.2.7.7 1.4 1.8 2.4 1.1Zm-262.3-85.7c-1-.9-4.6-2-6.6-3.9-4.2-3.9-7.8-13.1-14-4.7-13.3 17.9-4.1 44.9 7 61.7 1.6 2.4 11.5 15.7 13.3 15.7.5-8 1.2-16.5.5-24.5-.4-5.4-3.1-12.3-3.1-18s6-23.3 2.8-26.2ZM1167 1547c1.7.4 2-.5 3-1.5 17.4-17.9 32.6-50.9 18.4-74.4-6.5-10.8-10.8-.4-16.9 4.9-2 1.7-5 1.6-5.5 4.5-.8 4.5 4 18.3 4 24s-3.3 14.8-3.6 21.2c-.3 6.3 1.6 14.6.6 21.3m-64.5-53c-1.4.3-3.3 6.6-3.8 8.2-3 10.7-2.9 45.1 1.1 55.5 4.8 12.4 18.2-4.3 20.4-11 3.9-11.7-6.4-31.5-11.4-42.1-1-2.2-3-11.4-6.3-10.7Zm-86.8 33.3c-3.2-2.8-9.7 3.2-15.8 1.3-2.1-.7-8.7-7.5-10.5-9.5-2.6-2.9-3.4-8.8-8.2-7.4-12.2 3.5-20.5 24.1-21.2 35.9-.9 13.6 2.4 21.7 11.5 31.5 9.8 10.4 24 15.7 36.1 23h2.3c2.1-6.4 6.2-12 8.1-18.4 3.7-12.2 7.9-47.3-2.3-56.2zm23.4 74.6c1.1.7 3.4 0 4.6-.6 21.8-13.1 47.5-23.3 45.2-53.7-.9-11.9-9.2-33-22-36.1-4.4-1.1-5.5 5-8 8-1.7 1.9-7.3 7.9-9.2 8.8-9.2 4-14.3-9-20 5-5.4 13.2-2.6 37.5 1.5 51.1.7 2.2 7.1 17.1 7.9 17.6ZM885 1559c-3.2-3.3-6.4 8.4-5.8 12.3.7 4.5 5.4 23.4 7 27 1 2.2 6.2 8.5 8.7 6.7 3.4-2.4 3.2-20.7 4-25.4-.5-3.1-8.3-6.1-11-10-2.3-3.5-2.6-10.1-3-10.5Zm269.1 45.9c2.7 1.5 7.8-5.3 8.8-7.5 1.7-3.8 6.1-21.6 6.9-26.2.8-5-.5-8.8-4.3-12.2l-5.1 10.9c-1.4 3.6-9.4 6.1-10.2 8.8-1.2 3.9.5 24.2 3.9 26.2M917 1563c-1.9-2.2-11.8 12.5-12.4 14.1-1.7 4.6-3 25.2-2.4 30.3.9 7.9 5.6 18 11.4 23.6 1.4-8.8 5-18.6 5.5-27.5.8-13.1-3.7-27.1-2-40.5Zm218 68c5.3-3.9 9.4-12.4 10.8-18.7 1.5-7 .8-27.4-1.2-34.3-.6-1.9-10.4-17.4-12.5-15 1.5 13.8-3.1 28-2 41.5.7 8.7 4.6 17.6 5.1 26.5zm-186-62c-2.4-2-8.2 6.4-9.4 8.1-7.7 11.1-15.4 39-8 50.8 2 3.2 16 15.2 19.5 16.5 5.6 2.2 6.5-1.9 7-6.9 2.4-23.1-3.5-46.4-9-68.5Zm151 0c-1.5 11-6.9 22.6-8 33.5-.9 9-2 26.3-1 35 .2 1.9 1.7 8 3.6 8.4 2.4.6 18.8-13.3 20.9-15.9 8.3-10.5 3.8-32.3-1-44-1.2-2.9-11-19.9-14.5-17m-82 44c-3.5 0-6.1 2.5-9.6 2.9-12.7 1.6-29.1-13.9-41.4-16.9v24.5c0 .6 3.2 8.2 4.1 8.9 6.5 5.2 18.9-.4 24.4 5.6 2.6 2.9 4.3 10.3 10.6 5.5 1.1-.8 11.9-13.1 11.9-14.1v-16.5Z" class="outline" data-original-prefix="outline"/><path id="outline-mouth2" fill="#000000" d="M1122 1332c-.2 0 .2 1.6 0 1.9-1 .8-8.1-5.8-10.2-7.1-10-6.1-19.8-8.3-31.2-9.8-2.9-.4-6.9.7-9.5-.5-1.5-.8-4.5-7.4-6.5-9.5-7.8-8.7-15.6-10.2-25.8-13-1.1-.3-.6-1.9-.7-2 3.1-3.8 16.2-9.3 20.8-9.8 7.9-.9 5.5 4.4 6.5 9.1 2.3 10.7 9.3 19.6 21.3 18.8 5.1-.3 5.6-4 7.9-4.1 1.4 0 6.6 2.9 8.2 3.8 9.4 5.2 15 12.5 19.3 22.2z" class="outline" data-original-prefix="outline"/><path id="outline-mouth1" fill="#000000" d="M1011 1292s.4 1.7-.7 2c-10.2 2.8-17.4 4.1-25.4 12.5-2 2.1-5.6 9.2-7.2 9.9-3.4 1.4-13.5 1-18.1 1.8-12.5 2.1-23.6 8.7-33.1 16.9.2-.9-.5-2.8-.5-3 .8-2.7 8.7-13.3 11-15.6 2.5-2.4 14.7-10.5 17.6-10.4 2.7 0 3 5.1 11.9 3.9 10-1.3 16.2-10.1 17.5-19.6.4-2.6-2.4-6.7 2.8-8.2 3.5-1 21.7 5.6 24.3 9.8Z" class="outline" data-original-prefix="outline"/>
    </g><g class="trait-group" data-category="eyes" id="eyes-starchild">
      <path id="fill-eyes1" fill="#ffffff" d="M1397.8 1136.8c-2 2-9.7 1-13 1.5-7.1 1.1-22.6 6.6-29.5 9.5-3 1.3-12.5 5.7-14.7 7.3-2.8 2.1-.6 13.2 1.3 15.4 2.1 2.4 13.1 3.5 16.6 3.5 16.5 0 61.7-4.5 75.8-11.2 6.5-3.1 14.3-11.3 20.2-15.8 9.6 20.3 19.3 40.7 27.2 61.7 2.4 6.5 7.7 18.1 8.8 24.2 1.9 10.4-6.3 43.1-8.8 55.2-3.3 16-7.3 31.8-10.7 47.8l-8.7-3.2-22.5-62c-2.6-4.4-6.8-6.9-12-5.5-23.6 11.4-47.3 22.9-71.1 33.9-3.4 1.6-7.3 1.3-9.7 4.2l11.1 113.6c-37.1-19.5-70.8-44.8-107.3-65.2-7.2-4-20.6-13.1-28.6-10.3-43.7 30.2-89.6 57-135 84.4l15.9-91.6c0-5.5 1.7-8.3-3.2-11.6-12.9-8.7-52.7-21.8-68.2-22.8-16.2-1.2-27.4 2.2-42.5 6.6-6.8 2-41.1 13.5-43.5 18.5-1 2.2-.6 6.8-.4 9.4l15.9 91.6c-45.4-27.4-91.3-54.3-135-84.4-8-2.8-21.5 6.3-28.6 10.3-36.5 20.4-70.2 45.7-107.3 65.2l11-113.6c-2.4-2.9-6.3-2.7-9.7-4.2-23.8-11-47.4-22.6-71.1-33.9-5.2-1.4-9.4 1.1-12 5.5l-22.5 62-8.7 3.2c-3.4-15.9-7.4-31.8-10.7-47.8-2.6-12.2-10.8-44.9-8.8-55.2 1.1-6.1 6.3-17.7 8.8-24.2 7.9-21 17.7-41.4 27.2-61.7 5.5 4.5 12.6 11.9 18.8 15.2 4.3 2.3 10.7 3.3 15.5 4.5 17 4 57.2 9.5 73.4 6 10.2-2.2 6.6-8.2 8.7-16.6-6.1-1.9-11.4-5.9-17.2-8.3-7.7-3.2-21.4-8-29.5-9.5-9.1-1.7-13.7 3.3-13.3-9.8.6-17.5 13.5-53.6 20.9-70.1 4.5-10.2 31-59 40.8-60 2.8-.3 6.6 2.3 10-.2 1.3-1 3.4-6 5-8 40.8-50.7 92.4-93.8 152-121 81.3-37 208.8-37.5 290-.3 59.1 27 110.6 69.4 151.3 119.7 1.6 2 5.5 8.8 6.4 9.5 3.7 2.7 8.8-.7 12.1.8 4.9 2.2 13.8 14.9 17.3 19.8 15.6 22.1 28.1 50.3 35.7 76.3 1.9 6.7 10.6 37.5 6.3 41.8h-.2Z" class="fill" data-original-prefix="fill"/><path id="fill-eyes6" fill="#ffffff" d="M935.4 1254.4c-4 3.9-18.4 16.2-18.4 20.9 7.6 25 14.5 50.2 20.5 75.6 3.6 15.3 9.2 34.6 11.2 49.8.4 2.8.3 5.5.2 8.2l-124.7-87.8-121.8 74.8c-2-1.2-1.7-3.5-1.6-5.5 8.5-40.5 19.1-80.6 28.9-120.8l-93.9-79.7 133-12.5 49.5-140.5 69.5 135.5c38 4.9 76 11.7 112 25-21.7 18.8-43.9 37.1-64.6 56.9h.2Z" class="fill" data-original-prefix="fill"/><path id="fill-eyes5" fill="#ffffff" d="m1412 1190-93.9 79.7 26.6 108.1c.3 3.2 4.7 17 .8 18.2l-121.8-74.8L1099 1409c0-2.8 0-5.5.2-8.2 2.1-15.1 7.6-34.5 11.2-49.8 6.1-25.9 13.7-51.4 20.3-77.2-1-4.1-23.1-23.9-27.8-28.3-17.8-16.6-36.6-32.1-55-48 36-13.3 73.9-20.1 112-25l69.5-135.5 49.5 140.5 133 12.5z" class="fill" data-original-prefix="fill"/><path id="fill-eyes4" fill="#ffffff" d="M1101.9 1310.9c-3.5 2.5-56.6-18.1-64.9-20.4-11.5-3.2-15.3-3-26.8.2-20.9 5.9-41.7 16.8-63.6 20.4-1.8-.4-6-26.6-7.4-30.5 6-7.7 11.3-11.8 20.1-15.8 11.5-5.3 56.6-22.7 67.1-21.7 9.8.9 63.7 20.6 71.7 26.4 1.3.9 10.6 10.4 10.7 11.2z" class="fill" data-original-prefix="fill"/><path id="fill-eyes3" fill="#ffffff" d="M1452 1162c1.5 1.1 11.9 31 13.3 35.2 4.8 14.9 8.1 30.2 11.5 45.5l-8.8 75.2c-3.6 0-5.3-5.3-6.3-8.2-5.1-15.5-7.4-34-12-50-.8-2.9-4.4-17.1-6.4-17.7-1.1-.4-2.3 0-3.4.4-32 12.5-61.7 30.3-93 44.5-.2-4.3-3.9-7.8 0-11.5 29.8-29.3 58.7-59.3 87-90l-2.3-1.6-34.7-7.9c10.3-1.1 39.2 2.7 46.6-4 1.7-1.5 6.6-11.4 8.4-10.1v.2Z" class="fill" data-original-prefix="fill"/><path id="fill-eyes2" fill="#ffffff" d="m651 1176-34.7 7.9-2.3 1.6c28.3 30.7 57.2 60.7 87 90 3.9 3.8.2 7.2 0 11.5l-73.6-36.9c-3.1-1.4-21-8.7-22.7-8.1-1.9.6-5.5 14.8-6.4 17.7-4.5 16.1-6.9 34.5-12 50-1 2.9-2.7 8.1-6.3 8.2l-8.8-75.2c3.3-15.3 6.7-30.6 11.5-45.5 1.4-4.2 11.8-34.1 13.3-35.2 1.8-1.4 7 9.1 8.9 10.6 7.7 6.2 35.8 2.2 46.1 3.4" class="fill" data-original-prefix="fill"/><g id="shading-eyes" fill="#aaaaaa" opacity="0.5"><path id="shading-eyes8" fill="#aaaaaa" d="M952 1412c-3.4 0-6.9.2-9.9-1.6-29.4-22.9-59.2-45.3-90.1-66.1l.5-7.3c10.1-30.2 20.6-60.2 30.6-90.4 6.9-20.7 12.8-46.5 21-66 1.1-2.6 3.1-8.2 6.4-8.4 4-.2 14.9 2.4 19.8 3.2 16.9 2.8 33.4 6.8 49.8 11.7.6-.5-6.4-12.7-7.4-14.1-17-26.6-32.4-45.3-57.2-64.8-10.3-8.1-21.9-17-32.7-24.3-16.6-11.1-34.7-19.4-51.7-29.8-8.8 19.9-18.2 39.5-27.2 59.3-24.5 54.5-47.9 109.7-69.6 165.4-7.2 18.3-13.2 38.3-20.8 56.2-1 2.4-2.2 5.1-4 7l16.1-71-92.6-76.7v-6.3c38.8-4 77.5-10.4 116.5-13.1 9.3-.6 20.3 3.7 20.5-10l-54.4-14.9c-1.3-.7 0-3.1-2.2-5-6.5-5.3-25.3-13.8-33.7-18.3-5.6-2.9-12.5-2.1-2.8-7.4l15.1-28.9h33l59 34.5 26.1-78.3-84.6-32.7c-1.9-4 2.8-9.6 5.1-12.9 25.7-37.5 68.9-75.6 107.5-99.5 31.7-19.6 67.1-37 103.9-44.6-15.8 14.7-36.6 21.7-53.5 35-22.9 18.1-50.5 53.7-64.7 79.3-2.4 4.4-10.8 19.8-11.4 23.7-2.9 17.9 18.5 42 30.7 53.5 38.6 19.7 77.6 39.1 113.5 63.5 14.2 19.2 24.9 49.2 40 66.9 6.4 7.4 14 4.9 18.4 8.6 4.6 3.9 4.1 16.1 8.6 16.5 4.2.4 3.6-4.8 5-8 6.1-14.4 8.5-7.4 18.7-13.3 12.1-7 33-58.2 44.2-70.8 16.3-11.4 33.5-21.5 50.9-31.1 18-10 47.2-21.4 62.6-32.4s35.4-40.1 27.9-59.8c-10.7-28.2-48.8-76.6-72.4-95.6-17.4-14-38.3-20.9-54.5-36 29.4 5.8 57.6 18.5 83.7 32.8 47.9 26.3 95.2 65.5 126.7 110.3 2.5 3.5 9 10.9 5.3 14.7-3.2 3.3-24.9 8.2-31 10.5-7.8 2.9-15.1 7.2-22.8 10.2-10.2 4-21.1 6.6-31.1 11.2-15 31.6-29.2 63.6-43.1 95.6-25.6 59-48.1 122.9-75.6 180.4-1.6 3.3-2.9 6.8-5.7 9.3l5.6-25.4c1.3-5 9.2-29 8.5-31.6-.4-1.5-9-10.5-10.3-10.8-2.1-.6-9.2 3.8-11.3 5.4-.5 2 5.7 5.6 6.5 7.5 2.7 6.3-6 29-6.6 36.9-3.3.5-6.5 0-9.7-.6-5.1-.9-45.4-13.2-46.7-15.3-.5-.7-.6-1.4-.3-2.3l16.8-42.3c0-3.6-13.8-6.1-17-7.4-2.4 5.5-16.1 44.5-18.1 45.9-.5.4-10.3-1.7-12.9 0l20-48.6c0-2.3-6.6-10.7-8.7-11.2h-8.5c-2.8.7-6.3 7.6-9.4 9.7-5.5 3.7-14.4 4.3-20.3 7.7l-28.8 61.5c-6 1.6-11.8 3.9-18.2 2.9-.6-7.9-9.3-30.6-6.6-36.9.9-2.1 7.7-5.5 6-8.1-.7-1-9.5-5.2-10.8-4.8-1.3.3-9.9 9.3-10.3 10.8-.7 2.7 7.2 26.6 8.5 31.6 7.9 30.2 14.6 60.6 22.1 90.9v14.5h.1Zm262-355c-28.9 12.4-55.2 30.3-79.9 49.6-25.3 19.8-38.2 35.3-55.9 62.1-1.4 2.1-11.2 17.3-10.2 18.3 28.9-8.9 59.1-13.1 89-17.5 19.5-37.2 38.7-74.7 57-112.5m-133 175-32.7-28.9c-3.2-.8-5.2 3.1-7.4 4.3-6.3 3.5-11.4.5-17.4.5s-9.6 2.6-15.2.3c-2.2-.9-5.4-5.2-7.8-5.2s-29.8 25.2-33.5 29c2.1.2 4.1 0 6.2-.3 10.1-1.2 31.8-9.3 39.3-8.8 3.3.2 5.7 3.1 11 3.2 5.9 0 6.5-2.1 10.3-2.9 4.5-.9 20.2 4.3 26.1 5.5 7 1.5 14.1 3.3 21.1 3.3" class="outline shading" data-original-prefix="shading" opacity="0.5" style="opacity: 0.5"/><path id="shading-eyes7" fill="#aaaaaa" d="M1376 1124c-.3.4-7.4 2.6-9 3.5-8.1 4.2-26.1 12.6-32.3 17.7-2.4 1.9-.9 4.2-2.2 5l-54.4 14.9c0 14.1 12.9 9.1 22.4 10.1 1.2 0 6.3.4 5.6 2.3-21.5 51.2-41 103.2-61.1 154.9-.7 1.3-1.2 3.7-3.2 3.5-3.6-.3-14-10-18-9.7-3.2.3-25.4 18.2-26.7 16.8.4-6 2.1-11.8 4-17.5 18.3-55.7 43.5-114.3 64.3-169.7 1-2.7 4.2-7.7 4.6-9.5 1.2-5.8-6.6-18.7-4.6-22.1 17.9-9 35.3-22.8 53.1-31.4 3.2-1.5 4.4-2.5 8.1-2.9 9.1-.9 20.3.3 29.6.5 2.2 1.4 11 23.6 14.1 27.9 1.6 2.1 7.2 3.8 5.8 5.6h-.1Z" class="outline shading" data-original-prefix="shading" opacity="0.5" style="opacity: 0.5"/><path id="shading-eyes6" fill="#aaaaaa" d="M1348.9 1398.9c-1.2.7-7.1.2-8.8-.4l-75-48.1 59.5-173.3 88.8 10c2.5.8 2.3 6.7.6 8.3l-91.8 76.1 27.8 115.8c0 2.1.2 10.5-1.2 11.4v.2Z" class="outline shading" data-original-prefix="shading" opacity="0.5" style="opacity: 0.5"/><path id="shading-eyes5" fill="#aaaaaa" d="M1471 1321c-5.7.9-9.1-.9-11.4-6.1-5.5-12.6-8.7-37.7-12.7-52.3-.6-2.3-4.2-16.1-4.9-16.6-.5-.4-3.5 1.5-4 1l23-71 8.5 23 9.5 37.5c.3 28.3-6.3 56.2-8 84.5" class="outline shading" data-original-prefix="shading" opacity="0.5" style="opacity: 0.5"/><path id="shading-eyes4" fill="#aaaaaa" d="M703.9 1288.9c-.9.6-6.7.3-8.1 0l-53.3-26.8 8.6-43 52.4 53.1c3.6 2.4 2.8 15.3.4 16.7" class="outline shading" data-original-prefix="shading" opacity="0.5" style="opacity: 0.5"/><path id="shading-eyes3" fill="#aaaaaa" d="M600.8 1159.2c.3.2 2.5 4.8 3.3 6.2 1.5 2.4 4.7 3.6 3.7 6.9l-33.1 90-3.7 7.7c.2-5.4-1.7-11.2-2-16.5-1.8-32.1 13.5-64.8 24.1-94.4.3-.3 7.1-.4 7.7 0Z" class="outline shading" data-original-prefix="shading" opacity="0.5" style="opacity: 0.5"/><path id="shading-eyes2" fill="#aaaaaa" d="M1344.2 1288.8c-2.3-1.4-2.4-10.1-1.7-12.9 2.2-8.3 29-28.5 35-36.9l-13.1 42.9c-3.6 3-16.1 9.4-20.2 6.9" class="outline shading" data-original-prefix="shading" opacity="0.5" style="opacity: 0.5"/><path id="shading-eyes1" fill="#aaaaaa" d="M827.9 1326.9c-4.2-1.3-5.4-.2-8.9 1.5-12.4 6.1-23.6 15.8-36 22 24.4-46.5 45.1-95.1 65.5-143.5 7.1-17 15.2-44.4 23.8-59.2 1.1-1.9 2.7-3.2 4.2-4.7 2.9 6.7 14.3 21.5 13.3 28.2-20.2 52-41.7 103.6-61.9 155.7" class="outline shading" data-original-prefix="shading" opacity="0.5" style="opacity: 0.5"/></g><g id="outline-eyes" fill="#000000"><path id="outline-eyes2" fill="#000000" d="M705 1154c.3-1.7 2-11.9 2.6-12.1 16 .9 31.1 7 46.2 11.9.8.2 1.6.2 2.3-.3 1.6-1.1 11.6-30.8 13.5-35.6 11.8-29.2 24-61.4 37.3-89.7 2.8-6 5.4-14.6 13.1-15.3l27 46.6c13.5 3.6 23.7 12.9 35.4 19.6 19 10.8 40.8 19.3 59.7 30.3 11.1 6.5 13.7 12.6 19.2 23.8 6.6 13.8 11.8 29.1 17 43.4l41.8 15.2-41 45.5 15-4.5-12 11c6.7-3.3 23.4-6.7 28.5-11s7.4-20.7 6.5-27c2.8-.4 4.7 2.1 7.5 2.1s4-1.8 6-2.1c3-.5.4 4.3.5 6.5 0 2.9 5.5 19.8 7.3 21.3l28.7 10.2-10-9 11 1.5-40-44.5 42.5-16c6-13.6 10.3-27.9 16.7-41.3 3.3-7.1 8.7-18.5 14.9-23.1 9.1-6.7 30.7-16.1 41.9-22.1 19-10.1 38.2-19.7 57.1-29.9l27.5-46.6c7.2 1.2 9.8 9.4 12.6 15.4 13.3 28.3 25.5 60.5 37.3 89.7 4.7 11.5 8.7 23.4 13 35 1 1.4 2.3 1 3.8.8 6.9-.9 18.8-6.6 26.5-8.5 6.4-1.6 12.9-3.3 19.7-3.3.7 4 1.9 8.1 2.6 12 .6 3.1-.2 12.5 3.7 13.8 1.3.4 9.1 1.3 10.8 1.3 16 0 58.4-4.6 72.5-10.6 5.8-2.4 21.9-18.9 25.5-18.6.8 0 1.5.4 2 1.1 10.5 24.8 22.5 49.1 31.5 74.5 1.8 5 6.4 15.7 6.7 20.3.6 9.9-6.7 38-9.1 49.4-3.8 18.9-8.5 37.6-12.6 56.4-3.1 2.2-14.4-2.6-17.1-5.3l-24.6-65.4-2.6-.7-79.6 37.3 12.8 113.1c0 3.1-2 4.9-5 3.9-4.1-1.3-15.6-9.1-20.3-11.8-31.6-18.4-62.1-40.4-94-58-6.2-3.4-12.2-7.4-19.2-8.7-45.9 31-93.3 59.6-140.7 88.1l-3.7.8 18-107c-9.4-3.2-17.9-8.6-27.5-12.1-10.3-3.7-32.8-10.9-43.2-11.8-14.5-1.3-52.9 11.3-66.8 18-4.1 2-7.8 5.7-12.6 5.9l17.9 99.6c-.2 1.8 1.6 7.8-1.4 7.4l-143-88.9c-7 1.3-13.1 5.3-19.2 8.7-31.9 17.6-62.4 39.6-94 58-4.7 2.8-16.2 10.4-20.3 11.8-3 1-5.1-.8-5-3.9l12.8-113.1-79.5-37.3-2.6.7-24.6 65.4c-2.7 2.7-14 7.5-17.1 5.3-4.1-18.8-8.8-37.5-12.6-56.4-2.3-11.4-9.7-39.5-9.1-49.4.3-4.6 5-15.2 6.7-20.3 9-25.4 21-49.7 31.5-74.5 1.2-1.4 3-1.4 4.5-.5 6.6 4.7 15.8 14.9 23 18 6.7 2.9 26.6 6.4 34.5 7.5 11.9 1.6 37.9 4.1 48.8 1.8 5.3-1.2 4-9.5 4.7-13.7zm230.4 100.4c20.7-19.8 42.9-38.2 64.6-56.9-36-13.3-74-20.1-112-25L818.5 1037 769 1177.5 636 1190l93.9 79.7c-9.8 40.2-20.4 80.3-28.9 120.8 0 2-.3 4.3 1.6 5.5l121.8-74.8 124.7 87.8c0-2.8 0-5.5-.2-8.2-2.1-15.1-7.6-34.5-11.2-49.8-6-25.4-12.9-50.6-20.5-75.6 0-4.7 14.3-17.1 18.4-20.9h-.2ZM1412 1190l-133-12.5-49.5-140.5-69.5 135.5c-38 4.9-76 11.7-112 25 18.4 15.9 37.2 31.4 55 48 4.8 4.4 26.8 24.2 27.8 28.3-6.7 25.8-14.2 51.3-20.3 77.2-3.6 15.3-9.2 34.6-11.2 49.8-.4 2.8-.3 5.5-.2 8.2l124.7-87.8 121.8 74.8c3.9-1.2-.5-15-.8-18.2l-26.6-108.1 93.9-79.7zm-442.6-17.3c-9.6-13.8-18.1-28.8-29.4-41.2l-42.7-34.3L850 1065c4.5 9.4 9.7 18.6 14.8 27.7 11.2 20 23.2 39.5 34.6 59.4 23.7 6.4 47.1 13.8 70.3 21.8zm109.6.3 69.6-20.9 49.4-86.6c-33.1 21.6-66 44.1-94.4 71.6zm-428 3c-10.3-1.2-38.4 2.7-46.1-3.4-1.8-1.5-7.1-11.9-8.9-10.6-1.5 1.1-11.9 31-13.3 35.2-4.8 14.9-8.1 30.2-11.5 45.5l8.8 75.2c3.6 0 5.3-5.3 6.3-8.2 5.1-15.5 7.4-34 12-50 .8-2.9 4.4-17.1 6.4-17.7 1.8-.6 19.6 6.7 22.7 8.1L701 1287c.2-4.3 3.9-7.8 0-11.5-29.8-29.3-58.7-59.3-87-90l2.3-1.6zm801-14c-1.8-1.3-6.8 8.5-8.4 10.1-7.3 6.7-36.3 2.9-46.6 4l34.7 7.9 2.3 1.6c-28.3 30.7-57.2 60.7-87 90-3.9 3.8-.2 7.2 0 11.5 31.3-14.2 61-32 93-44.5 1-.4 2.3-.8 3.4-.4 1.9.6 5.5 14.8 6.4 17.7 4.6 16.1 6.9 34.5 12 50 .9 2.9 2.7 8.1 6.3 8.2l8.8-75.2c-3.3-15.3-6.7-30.6-11.5-45.5-1.4-4.2-11.8-34.1-13.3-35.2v-.2Zm-350.1 148.9 6.9-30.3c-.2-.8-9.5-10.3-10.7-11.2-8-5.7-61.9-25.4-71.7-26.4-10.4-1-55.5 16.4-67.1 21.7-8.8 4.1-14.1 8.1-20.1 15.8 1.5 3.8 5.6 30.1 7.4 30.5 21.9-3.6 42.7-14.4 63.6-20.4 11.5-3.2 15.2-3.4 26.8-.2 8.3 2.3 61.4 22.9 64.9 20.5" class="outline" data-original-prefix="outline"/><path id="outline-eyes1" fill="#000000" d="M695 1149c-.5 3.2-1.4 5.1-5.4 4.7-3.2-.3-15.3-6.8-20.6-8.2-6.6-1.8-12.7-2.4-19.3-3.7-9-4.4-3-24.7-1.2-32.8 5.9-27.1 17.7-57.2 32.1-80.9 4.4-7.3 22.4-34.6 30.1-35.8 1.9-.3 5.9 2.7 7.2 1.7.3-.2.5-2.3 1.2-3.3 39.2-53 103.3-104.3 164.2-129.8s154.1-29.8 220.9-17.5c88.6 16.3 169.9 76.6 224.3 146.7.9 1.1 1.4 3.8 1.6 3.9 1.1.8 4.7-2.5 9.2-.7 10.6 4 28.1 32.6 33.9 43.1 9 16.4 17.2 36.5 22.5 54.5 2.8 9.6 10.8 38.7 7.5 47-2.6 6.6-9.8 4.4-14.6 5.4-10.5 2.1-20.7 5.9-30.3 10.7-4-.3-3.8-1.8-4.3-4.8-1-5-.9-10.9-1.6-16 7.3-4.7 15.2-8.3 23.4-11.1 1.2-15.8-7.3-32.2-14-46.2-3.5-7.3-7.7-15.2-11.7-22.3-2.6-4.6-12.2-22.3-15.1-24.9-1.4-1.2-1.7-1.3-3.5-1.5-4.7-.6-14.1-.2-19.1 0-16.1.8-32 3.5-47.5 8 11.2-12.3 27.1-20.9 42-28.1-3.7-19.6-19.7-36.2-34-49.5-46.6-43.4-138.5-93.1-201.7-101.3-80.3-10.4-144.1 5.6-214 43.7-32.5 17.7-93.8 58.5-110.9 91.1-1.5 3-6.6 13.3-4.5 15.5 9 5.4 19.4 10 28 16.1 1.2.9 14.6 11.2 13.1 12.4-21.8-6.9-45.1-8.9-68-7.5-3.8 1.8-26 44.1-29.2 50.8-4.8 10.3-15.4 32.2-12.9 43l22.9 10.8c.5 5.6 0 11.3-.7 16.8" class="outline" data-original-prefix="outline"/></g>
    </g><g class="trait-group" data-category="right ear" id="right ear-lop-eared">
      <path id="fill-ear-rt" fill="#ffffff" d="M1463.9 815.1c-1.1-.7-8-.2-9.6.6-.7.3-10 9.7-11.1 10.9-6.2 7.2-20.7 26.1-25 34-4.6 8.5-7.7 20-12 29-17.8 36.8-49.6 57.6-83.3 78.7-7.6 4.8-29.5 17.5-37.9 16.2-7-1.1-34.8-11.7-42-15.1-21.9-10.4-41.9-30.6-57.5-48.5-3.2-3.6-15.1-14.9-15.5-18.6-.3-3.2 3.6-17.9 4.7-22.2 8.4-34.6 26.4-65.8 37.6-99.4 7.8-23.5 15.9-52.5 21.2-76.8 12.6-56.9 6.2-116.2 18.8-173.2 6.5-29.5 44.6-53.4 68.8-69.2 18.9-12.3 68.6-41.2 89.5-43.5 15.6-1.7 55.8 8.9 72.8 13 32.2 7.7 82.2 19.7 108.9 38.1 28.8 19.8 56.1 41.5 79.2 67.8 28.8 32.7 32.2 44.2 17.2 86.3-24.8 69.4-61.7 123.7-101.8 184.2-17.7 26.7-44.5 75.8-67.1 95.9-5.7 5-12.1 7.7-19.2 3.5-6.7-4-7.2-14.3-9.9-21.1-5.9-15.2-13.1-29.9-18.8-45.2-1.4-3.7-7-24.7-8.1-25.4Z" class="fill" data-original-prefix="fill"/><path id="shading-ear-rt" fill="#aaaaaa" d="M1693 608c1 1-4.3 15.7-5.2 18.2-24.8 67.4-59.8 119.2-98.8 178.2-21.9 33.2-41.9 67.9-68 98.1-1 .6-21.9-3.9-22.8-4.8-6.2-16-12.7-32-18.2-48.3-2.8-8.2-5.2-22.3-8.8-29.2-6.7-12.9-25.5-1.8-31.6 6.8L1375 927.4c-15.2 15.6-73.2 61.5-94 58.1-27.4-10.3-54.4-22.9-76-43.1-7.2-6.8-11-13.5-16.6-21.4-1.2-1.8-4.3-3.7-4.9-5.1-2-4.3 2-12.6 4.7-16.3 58.6-63.6 106.8-135.2 139.3-215.7 2.7-6.6 6.2-14.1 8.2-20.8 12.4-39.6 1.6-77.7 5.3-117.7.1-1.6 1-7.4 1.9-8.1 36-.7 71.8-5 107.1 5.1 4.8 4.7-.7 11.5 1.5 16.5.9 1.9 19.3 19.7 22.5 22.5 22.5 20.7 50.8 41.6 76.3 58.7 18.7 12.6 25.8 21.5 49.7 12.2 27.4-10.6 54.6-28.2 81.7-40.3 1.6-.7 10.7-4.9 11.3-4.1Zm-243.1 187.9c.7-1.2-.2-3.3-.7-4.6-1.1-3.3-15.2-30.7-16.9-31.2-14.9 4.2-27.9.2-41.7 8.1-20.9 12-39.7 56.6-52.5 78.5-13.9 23.7-28.5 47-45.2 68.8-10.3 13.5-11.2 12-16.5 29.5-2.2 7.2-4 14.6-5.5 22 .7.7 7-4.7 8-5.5 19.1-15.9 39.4-37.3 56.5-55.5 15.3-16.3 30.8-30.3 38.5-51.5 3.8-10.5 6.9-31.8 15-38 7.4-5.8 26.8-8.1 36.8-11.2 3.2-1 23.3-8.1 24.1-9.4Z" class="outline shading" data-original-prefix="shading" opacity="0.5" style="opacity: 0.5"/><path id="outline-ear-rt" fill="#000000" d="M1204 941c-.3 1.7-3.1-.2-3.9-.6-7.2-3.8-17.7-9-23.1-14.9-11.1-12.2-18.6-30.8-29.5-43.5-1.1-2.6-.7-7.5-.5-10.5.9-20.2 13.6-36 21.8-54.2 9.5-20.7 16.6-37.4 27.3-57.7 35.2-66.4 43.6-127.5 46.8-202.2.5-10.7-2-36.2 1.5-44.5 1.4-3.3 13-13.4 16.5-16.5 21.7-19 49.4-37.3 73.5-53.5 14-9.4 50.3-35.6 64.1-39.9 42.4-13.3 127.4 18.5 168.4 35.5 32.1 13.3 72.4 28.4 93.2 56.8 15.6 21.2 47 74.4 50.6 99.5 1 7.4-8.7 31.3-11.8 39.8-35.5 98.7-94.4 215.4-170.5 288.5-7.1 6.9-19.8 19.2-27.6 24.4-1.1.8-9.4 5.2-9.9 4.6-1.7-24.9-6.5-50.8-13.7-74.8-1.4-4.7-3.2-9.4-5.1-13.9-1.9-4.4-15.5-30-19.5-29.2-6.2 1.1-28.3 40-31.8 47.2-5 10.4-7.9 21.5-12.3 31.7-5.6 12.7-20.1 19.7-30.5 28.5-11.3 9.6-20.6 22.3-32.7 30.3-10.6 7-40.6 20.7-52.8 20.2-11.7-.4-41.3-16.4-51.5-23 8.6.3 16.8 5 25.6 5.9 37.8 3.8 59.7-18.4 86.4-41.4 21.6-18.5 29.3-31.5 42.5-56.5 8.9-16.8 16.4-34.2 23-52l26.6-18.7-60.6-103.4c-1.9 2-1.5 4.5-3 7-3.9 6.4-17.6 18.5-23.4 25.6-34.1 41.1-71.2 101.1-93.2 149.8-10 22.1-22.8 52.5-10.8 75.7-1.4.3-2.4-.2-3.7-.8-4.5-1.9-23.8-17.8-25.1-21.9-1.9-6.1 3.5-21.4 1.9-28.7 12.2-19.5 26.9-37.6 38.1-57.9 24.5-44.3 42-94.9 71.4-136.6 6-8.5 14.6-15.7 20.8-24.2 4.8-6.4 10.9-14.3 10.6-22.4-.7-14.4-5.8-30.2-6.9-44.1-.2-2.2-.4-4.6 0-6.8.7-4 11.7-17.3 14.8-22.2 8.2-13.4 22.4-40.6 6.2-52.8-12.2-9.3-28.9 1.5-42 2.5-1-12.5 18.7-18.5 28.5-22 25.7-9.4 40-10.3 66.3-2.2 5.3 1.6 28 8.1 26.1 15.6-.4 1.7-9.4 6.6-11.8 8.3-20.8 15.2-37.8 32.8-50.6 55.4-3.8 6.6-13.3 26.5-13.1 33.4.2 5.3 6.5 22.2 8.6 28.2 8.4 23.3 20.3 47.1 34.8 67.2 5.7 7.9 14.6 16.1 19.4 23.6 6.2 9.6 11.6 26.1 16.9 37 15.2 31.3 30.8 62.3 43 95 1.7 1.2 2.3 6.8 4.3 6.6 9-.9 29.9-27.5 35.9-35.1 49.7-62.8 110.8-167 129.1-244.9 2.2-9.3 5.9-23.2 2-32-5.7-13.1-34.2-49.7-44.6-61.4-47.2-53.1-148.3-76.6-216.4-84.6-41 14.3-80 35-114 62.1-6.3 5-26.1 21-29 27-14.1 28.2-19.5 95.6-22.5 128.5-2.4 27.1-.3 58.6-10.8 83.2-7.8 18.2-18.3 36.1-26.3 54.7-14.2 32.7-25.5 66.6-39.8 99.2-2 14 18.3 43.4 27.9 53.4Z" class="outline" data-original-prefix="outline"/>
    </g><g class="trait-group" data-category="left ear" id="left ear-robo">
      <path id="fill-ear-lft3" fill="#ffffff" d="M570 663c30.7-2.3 65-.8 92.7 13.8 19 10.1 47.5 28.1 59.5 45.5 28.1 40.4 54.9 112.1 71.8 159.2 4.9 13.7 18.7 48.9 16.7 61.8-4.1 27-52.7 38.8-73.5 24.5-66.3-95.2-146-190.2-258.2-231.3-74.9-128.8-125.1-279.4-146.9-427.1-5.3-35.8-9.6-72.1-9.2-108.3 5.5 4.3 9.9 9.8 15 14.5 28.6 26.4 60.4 52.7 87 81 18.7 19.8 26 39.1 36.4 63.6 41.9 98.6 78.9 194.5 108.1 297.9.5 1.7.5 3.3.5 5h.1Z" class="fill" data-original-prefix="fill"/><path id="fill-ear-lft2" fill="#ffffff" d="M647.7 372.1c1.9-.3 8.3 5.6 10.3 7.4 37.4 33.1 77.7 78.5 106.8 119.2 9.4 13.1 41.1 59.8 40.8 73.7 0 4.9-3.4 12.8-4.3 18.5-7 41.8-3.8 106.1 10 146.5 4.7 13.8 12.8 26.5 18.2 39.8s9.4 27.5 15 41c9.9 23.6 22 46.3 32.6 69.5 0 3.7-1.8 6.7-3.2 9.9-3.6 7.7-17.2 34.9-21.9 40.1-2.9 3.2-11.8 9.8-15.7 12.3-7.4 4.8-16.4 8.3-23.8 13.2l25.1-40c.9-3.2-6.4-20.6-8.1-25-17.9-44.5-42.2-92.2-63.6-135.4-9.3-18.7-24.7-55.8-39.9-68.1-6.9-5.6-16-9.6-23.4-14.6-16.3-11-32.1-22.8-48.8-33.2-15.6-3.3-49.2 4.2-60.7-8.3-3.6-3.9-9.1-16.2-11.5-21.5-8.5-19-15-39.8-22.8-59.2-13.1-32.5-26.6-64.9-39.6-97.5-.3-2.7 5-6.3 7.4-8.2 14.7-12.2 33.3-25 49.2-35.8q34.8-24 72-44.1v-.2Zm.1 12.1c-7.6.4-18.4 7-20.3 14.7-4.1 16 9.4 23.2 23.2 18.2 19.3-7 17.5-34-2.9-33Zm115.9 335c-14.2 2.4-10.1 26.4 1.3 31.3 26.3 11.2 27-36-1.3-31.3m53 82.1c-12.9-11-27.5 1.3-22.1 16.6 1.8 5.3 5 11.4 10.5 13.5 16.3 6.3 26.1-10.2 17.4-23.4-.5-.7-5.2-6.2-5.8-6.7m24 72.9c-11.1 2.3-9.9 16.7-5.9 24.5 5.3 10.3 20.4 15.4 27.7 4.2 8.6-13.2-6.5-31.9-21.7-28.7Z" class="fill" data-original-prefix="fill"/><path id="fill-ear-lft1" fill="#ffffff" d="M631.9 358.9c-34.3 21.6-67.6 45-99.8 69.7-5.7 4.4-11.9 10.5-17.6 14.4-.8.6-1 1.4-2.5 1-16.9-38.3-28.9-79.7-45.5-118-11.5-26.4-24-36.6-44.5-55.5-31.3-28.9-64.1-56.3-96-84.5 44.5 13.2 88.6 29.1 130.7 48.8 63.3 29.7 119.8 77.5 174.4 120.6zm-108.1 36.3c-25.4 2-19.5 44.4 6.1 28.2 14.1-8.9 10.3-29.5-6.1-28.2" class="fill" data-original-prefix="fill"/><path id="fill-ear-lft-rivet5" fill="#ffffff" d="M841.2 881.2c2.8-3.5 11.9 1.1 12.7 6.3 2.4 15.4-14.9 12.3-14.6 1.1 0-.9 1.6-7 1.9-7.4" class="fill" data-original-prefix="fill"/><path id="fill-ear-lft-rivet4" fill="#ffffff" d="M807.8 805.2c7.9-1.2 13.7 8.2 8.1 14.2-9.1 9.7-23.6-11.9-8.1-14.2" class="fill" data-original-prefix="fill"/><path id="fill-ear-lft-rivet3" fill="#ffffff" d="M775.7 740.7c-7.3 5.9-18.9-8.3-11.3-13.8 6.9-4.9 18.2 8.2 11.3 13.8" class="fill" data-original-prefix="fill"/><path id="fill-ear-lft-rivet2" fill="#ffffff" d="M642.7 396.2c9.6-2.9 13 8.7 4.3 11.3-13.4 4.1-9.8-9.7-4.3-11.3" class="fill" data-original-prefix="fill"/><path id="fill-ear-lft-rivet1" fill="#ffffff" d="M526.8 407.2c5.3 5.4-3.2 15.1-9.5 8.5-5.2-5.4 4.6-13.4 9.5-8.5" class="fill" data-original-prefix="fill"/><path id="shading-ear-lft" fill="#aaaaaa" d="M520.2 411.8c1 1 10.3 2.4 11.7 1.8 2.9-1.2 11.2-8.9 14.8-11.3 20.7-14.6 42.5-30.6 63.6-44.4 3.4-2.2 14.8-10.5 18-9.6 1.7.5 3.9 4 5.8 5.3 5.6 3.8 11.8 7.1 17.9 10.1-9.7 6.7-20.6 11.3-30.7 17.3-23.1 13.7-44.1 30.5-65.8 46.2-1 1-2.2 1.3-1 3 .5.8 9.5 5.2 11.4 6.6 9.3 6.3 18.7 14.4 27.6 21.4 64.9 51.8 125.8 108.5 191 160l13.5-72c3.7 4.8 9.3 14.3 10 20.5 1.2 10.6-2.4 17.3-3.9 27.1-6.6 44.4-3.3 107.4 13.4 149.3 4 10 9.9 19.2 14 29 6.2 15.1 10.8 31.3 17.3 46.7 9.6 22.6 21.7 44.1 31.2 66.8 0 2.9.2 5.7-.5 8.6-1.1 4.1-19.5 39.4-22.5 43.5s-11.6 10.9-16.1 13.9c-18.5 12.7-39.4 20.8-61.7 24.3-11.4 1.8-33.6 2.8-43.2-4.3-68.4-94.4-146-191.3-259.8-231.7-53.4-90.2-90.6-189.4-118-290.5-16.9-62.3-30.7-130.3-36.3-194.7-.6-6.8-4.1-53.6-2-55.5.3-.3 2.7.4 3.8-.2 1.3-.8.3-4.3 5.5-3.6 11.1 4.8 23.9 7.5 34.3 13.8 39.3 23.7 76 63.2 111.5 92.5l43.5 98.5c1.2 3.1-.6 9.5 1.7 11.8zm-166.9-64.1L454 420.5c-6.8-18-11-35.7-23-51-10.7-13.6-27.7-29.3-40.5-41.5-14.6-14-30.3-27-45-41-2.3-.4-1.4.8-1.2 2.2.2 2.2.6 4.8.9 7.1.9 6.8 6.2 48.9 8.1 51.4M361 390c3.9 19.7 7.5 39.7 12.5 58.9l113 77c-2.7-19-10-37.1-15.5-55.5-34.8-25.8-69.6-54.4-105.7-78.3-1.4-.9-2.5-2.5-4.3-2.2Zm419 301c-.6-8.2-1.3-16.3-1-24.5.2-6.2 4-24.3.6-28.5L548 464.1c5.7 24.5 12.9 48.7 20.3 72.7L780 691.1ZM414 535c22.5 61 50.5 119.7 78 178.5 59.4 35.6 120.6 68 179.5 104.5-14.2-28.7-30.4-57.6-50.1-82.9-10.8-13.8-24.4-25.9-37.9-37.1-8.9-7.3-27.4-18.5-34-26-5.7-6.3-9.6-21.7-15-30s-14.7-17.2-21.9-24.1c-27.7-26.8-60.8-53.8-91-78-1-.8-6.8-5.8-7.5-5Zm363 200c1.9-8.4-16.8-13.8-13.8-3.7 1.6 5.5 9.5 4.8 13.8 3.7m35.4 63.6c-8.4-13-12-37.6-19.6-51.9-12-12-9.5 1.3-11.8 9.7-1 3.6-4.2 8.7-7.6 10.4-2.6 1.3-8 .4-7.4 2.6l21 47.5c2.2 1.6 5-7.5 9.4-7 .6 0 .6 1.7 1.2 2 3.6 2.1 6.7-.4 8.3.4 2.4 1.2 6 10.7 12.4 6.5 9-6-3.4-16.2-6-20.3ZM826 833c-2.6-.5-1.5.5-2.1 1.4-6.3 10.5-13.2 16-25.9 10.6-1.3 1.5 7.8 21.9 9 25.5 2.5 7.1 8.9 32.3 12.9 36.1 8.8 8.3 9.2-13.4 12.1-15.5.5-.3 3.1 1 4.5 1 2.5 0 4.1-1.9 6-2 2.3-.2 4 1.4 6.1 1.7 1 0 3-1 3.3-.7.3.2.4 6.1 2.5 7 6.4-5.2 2.9-15.9-3.8-19.2-1.9-.9-4.3-.8-6.1-1.9-5.3-3.4-15.3-36.3-18.6-43.9Z" class="outline shading" data-original-prefix="shading" opacity="0.5" style="opacity: 0.5"/><path id="shading-ear-lft2" fill="#aaaaaa" d="M637.6 400.4c.2.1.4 1.1 1.2 1.5 9.2 4.4 15.6 1.7 25.2 3.1 3.5 11.4-13.5 27.2-24 24.5-9.5-2.4-16.7-15.4-14.8-24.8.2-1.1 3.1-6.8 3.8-7.3 2.2-1.4 6.5 1.9 8.6 3" class="outline shading" data-original-prefix="shading" opacity="0.5" style="opacity: 0.5"/><path id="outline-ear-lft" fill="#000000" d="M312.1 163.1c3-2.5 42.9 6.4 49.3 8C512.1 208 635.1 309.1 735.5 423c29.7 33.6 58 70.7 80.3 109.7 3.2 5.6 14 24 15 29 .6 2.9-5.2 26.5-5.8 32.8-6.3 64.6 7.8 142.2 38.8 199.2 6.2 11.4 30.5 45.7 32.1 54.9 1 5.9 3 30.9 1.6 35.5-12 18.1-24.5 59.3-41.2 71.8-5.8 4.3-43.1 24.1-49.8 26.2-16.7 5.4-37.4 4.2-54.2 10.9-13-2.5-25.8-7.7-38.7-11.1-2.9-1.9-3.6-6.4-5.5-9.5-43.9-76.1-140-177.5-221.2-212.8-5-2.2-18.4-5.6-21.3-7.7-3.2-2.2-15.1-21.6-17.8-26.2-64.6-112.1-114-265.2-131.7-393.3-6.6-47.5-13-106.2-7-153.7.7-5.2 2.1-10.4 3-15.5Zm319.8 195.8-.8-3.5c-54.6-43.1-111.1-90.9-174.4-120.6-42-19.7-86.2-35.6-130.7-48.8 31.9 28.2 64.8 55.6 96 84.5 20.5 18.9 33 29.2 44.5 55.5 16.7 38.2 28.6 79.6 45.5 118 1.5.4 1.7-.4 2.5-1 5.7-3.9 11.9-10 17.6-14.4 32.2-24.7 65.5-48.1 99.8-69.7M570 663c0-1.7 0-3.4-.5-5-29.2-103.4-66.1-199.3-108.1-297.9-10.4-24.5-17.8-43.7-36.4-63.6-26.6-28.2-58.4-54.6-87-81-5.1-4.7-9.5-10.2-15-14.5-.4 36.3 3.9 72.5 9.2 108.3 21.8 147.8 72 298.3 146.9 427.1 112.2 41.1 192 136.1 258.2 231.3 20.8 14.3 69.4 2.5 73.5-24.5 2-12.9-11.8-48.1-16.7-61.8-16.9-47.1-43.7-118.8-71.8-159.2-12.1-17.4-40.6-35.4-59.5-45.5-27.6-14.6-62-16.1-92.7-13.8h-.1Zm77.7-290.9q-37.2 20.1-72 44.1c-15.8 10.9-34.5 23.7-49.2 35.8-2.3 1.9-7.7 5.5-7.4 8.2 13 32.6 26.5 65 39.6 97.5 7.8 19.4 14.3 40.2 22.8 59.2 2.4 5.4 7.8 17.6 11.5 21.5 11.5 12.4 45.2 5 60.7 8.3 16.7 10.5 32.4 22.3 48.8 33.2 7.4 5 16.5 9 23.4 14.6 15.2 12.3 30.7 49.4 39.9 68.1 21.5 43.2 45.7 90.8 63.6 135.4 1.8 4.4 9 21.7 8.1 25l-25.1 40c7.5-4.8 16.5-8.3 23.8-13.2 3.9-2.5 12.8-9.1 15.7-12.3 4.7-5.2 18.3-32.4 21.9-40.1 1.5-3.2 3.2-6.2 3.2-9.9-10.6-23.3-22.7-45.9-32.6-69.5-5.6-13.5-9.6-27.7-15-41s-13.6-26-18.2-39.8c-13.7-40.3-17-104.6-10-146.5.9-5.6 4.2-13.5 4.3-18.5.3-13.9-31.5-60.6-40.8-73.7-29.1-40.7-69.4-86.1-106.8-119.2-2-1.7-8.4-7.6-10.3-7.4v.2Z" class="outline" data-original-prefix="outline"/><path id="outline-ear-lft5" fill="#000000" d="M840.7 874.2c15.3-3.2 30.3 15.5 21.7 28.7-7.3 11.2-22.3 6.1-27.7-4.2-4-7.8-5.2-22.2 5.9-24.5Zm.5 7c-.3.4-1.9 6.6-1.9 7.4-.3 11.2 17.1 14.3 14.6-1.1-.8-5.2-9.9-9.8-12.7-6.3" class="outline" data-original-prefix="outline"/><path id="outline-ear-lft4" fill="#000000" d="M816.7 801.3c.6.5 5.3 6 5.8 6.7 8.6 13.3-1.2 29.8-17.4 23.4-5.5-2.1-8.7-8.2-10.5-13.5-5.3-15.4 9.2-27.6 22.1-16.6m-8.9 3.9c-15.5 2.3-1 23.9 8.1 14.2 5.6-6-.2-15.3-8.1-14.2" class="outline" data-original-prefix="outline"/><path id="outline-ear-lft3" fill="#000000" d="M763.7 719.2c28.2-4.8 27.6 42.5 1.3 31.3-11.3-4.8-15.4-28.8-1.3-31.3m12 21.5c6.9-5.6-4.4-18.6-11.3-13.8-7.7 5.4 4 19.7 11.3 13.8" class="outline" data-original-prefix="outline"/><path id="outline-ear-lft2" fill="#000000" d="M647.8 384.2c20.4-1.1 22.2 26 2.9 33-13.9 5-27.3-2.3-23.2-18.2 2-7.7 12.7-14.3 20.3-14.7Zm-5.1 12c-5.4 1.6-9.1 15.5 4.3 11.3 8.6-2.6 5.3-14.2-4.3-11.3" class="outline" data-original-prefix="outline"/><path id="outline-ear-lft1" fill="#000000" d="M523.8 395.2c16.4-1.3 20.2 19.3 6.1 28.2-25.6 16.2-31.5-26.2-6.1-28.2m3 12c-4.8-4.9-14.7 3.1-9.5 8.5 6.3 6.6 14.8-3.1 9.5-8.5" class="outline" data-original-prefix="outline"/>
    </g><g class="trait-group" data-category="head" id="head-banger black">
      <path id="fill-head" fill="#ffffff" d="M1076.7 823.4c9.6 5.8 4.5 20-7.2 20.7-5.3.3-5.3-3.1-9.1 2.8-41.5 80.3-80.3 162.1-113.8 246.2-6.8 17-17.4 40-22 57-8.5 31.5-2.7 65.4 1.6 97.3 1.7 12.9 4.7 25.7 5.8 38.6l-3.6-.9c-10.9-15.6-26-29.6-36.8-45.2-3.9-5.5-7.6-11.1-8.6-17.9-1.7.4-1.2 3.2-2.5 5-1.4 2-4.4 2.3-5.3 4.7-2.4 6.6-4.5 30.6-5.2 38.8-7.1 78.9-4.3 179.5 25.5 253.5 1.6 4 15.8 31.8 14.5 33-1.8 1.7-7.5-3.3-9-4.5-56.2-45.2-108.1-98.5-149.2-157.8-21.6-31.2-24.3-46-30.1-82.9-.2-1.2-.2-4.8-1.7-4.8-3.7 19.2-7.5 38-9 57.5-4 52.7-2.7 108.6 5.2 160.8 3 20 7.2 39.8 12.8 59.2.7 2.1-2.2 1.8-3.3 1.3-1.8-.8-20.6-28.4-23.5-32.5-38.8-56.7-72.3-120.9-98.7-184.3-8.8-21.2-19.8-45.4-21.5-68.5-1.5-20.5 8.9-43.7 16.2-62.7 13-33.9 28.7-66.8 41.7-100.8-1.1-1.1-10 5.9-11.5 7-8.9 6.9-19.3 16.6-27.5 24.5-15.8 14.9-30.6 30.9-44 48l-4 .5c19-59.8 44.6-119.2 76.2-173.3 7.7-13.3 30.4-52.2 41.5-59.5s25.2-12.6 37-19c64.7-35.1 128.7-72 191.2-110.8 10.6-6.6 31.7-23.4 42.6-24.4 6.5-.6 15.2-.8 21.9-1.1 27.2-.9 54.7-.2 81.9-.9 2.4-10.9 24.6-8.8 31.5-4.6" class="fill" data-original-prefix="fill"/><path id="outline-head3" fill="#000000" d="M1069.4 844c-5.5.4-5.2-3.4-9.4 3.5-15.4 25.4-30.7 59.9-43.8 87.2-27.8 57.8-52.7 116.9-76.7 176.3-21.6 34.5-103.6 66.4-142.6 59.8-3.3-.6-11.9-4.6-13.1-4.5-4.5.4-13.2 11.4-17.2 14.7-17.6 14.7-42.5 23.4-61.5 5.6-26.5-25-15-80.7-4-111 3-8.3 7.5-16.2 10-24.5-18.3 2.1-34-10.6-33-29.5.8-17.4 22.8-50.1 36.7-60.3C777 927.1 838.7 891.9 899 854.5c10.6-6.6 31.7-23.4 42.6-24.4 6.5-.6 15.2-.8 21.9-1.1 27.2-.9 83.6-.2 110.8-.9z" class="outline" data-original-prefix="outline"/><path id="outline-head2" fill="#000000" d="M807 1335c-.7-21 2.7-46.2 16.5-63 12.4-15.1 31.9-20.4 47.4-6.3l-2.9 37.8c-1.5 74.5-.6 150.6 27.5 220.5 1.6 4 15.8 31.8 14.5 33-1.8 1.7-7.5-3.3-9-4.5-56.2-45.2-108.1-98.5-149.2-157.8-21.6-31.2-24.3-46-30.1-82.9-.2-1.2-.2-4.8-1.7-4.8-3.7 19.2-7.5 38-9 57.5-4 52.7-2.7 108.6 5.2 160.8 3 20 7.2 39.8 12.8 59.2.6 2.3-1.8 1.5-3.3 1.3-45.1-60.2-82.5-126.3-112.8-195.2-11.4-25.9-28.7-62.3-30.8-90.2s16.2-57.5 24.5-83.5l12.5-28c4.3 35.6 12.6 71.7 22.3 106.2 2.5 8.9 8.6 34.1 16.7 38.3 1.5.8 1.5.6 2.5-.5 1.8-2 4.8-10.1 6.7-13.3 13.6-22.3 38.1-46.5 61.1-58.9 8.1-4.3 24.6-11.6 32.1-2.8 2.2 2.6 6.5 15.9 8.7 20.3 9.8 20 23 40.5 37.8 56.8" class="outline" data-original-prefix="outline"/><path id="outline-head1" fill="#000000" d="M1125 857c-1.2 1.1-9.8-3.9-11.5-5l2.5 3.5c-3.4 0-9.2-2.6-12.5-4.5-3.6-2.1-6.1-5.1-9-7-1.1-.8-.7-1.5-2 0-2.5 3.1-3.4 7.7-5.1 10.9-20.8 37.4-41.6 71.7-60.2 110.8-24.5 51.3-51.8 111.2-70.2 164.8-18.4 53.8-6 113.1-3.9 169 .2 4 .4 28.4-1 29.5-3-1.2-6.6-4.3-9-6.5-14-12.4-25.3-28.3-38-42l-19-24.5c-1 24.7-1.8 49.8-1 74.5 1.5 47.2 6.7 104.3 16.5 150.5 8.6 40.4 25.3 78.1 38.5 117-22.1-3.7-41.5-20.2-58.9-33.6-56.3-43.5-109.3-98-145.6-159.4l-11.5-25c.5 10.9.9 21.6 1 32.5.8 70.1 6 132.7 21.4 201.5 2.2 9.6 7.2 23.9 8.3 32.7 0 1 .8 3.1-1.3 2.3-1.2-.5-15.8-15.6-18-18-62.3-67.7-115-165.1-150-250.1-8-19.5-22.1-51.5-24.3-71.7-4.1-38.6 20-73.4 32.7-108.2-1.9-.4-2.4 1.1-3.5 2-30.6 25.2-47.6 58.4-59.3 95.7l-3.2 2.3c.4-12.6-2.3-24.9-2-37.5 1.2-51.1 26.7-111.9 48.2-157.8 22.4-47.7 48.7-94.4 79.2-137.3 92.2-45 180.7-96.6 266-153.5 11.5-5.1 31.2-2.4 44.2-2.8 34.6-.9 69.2-.8 104-1 2.3 0 4.4-1.2 6.7-.9 6.6 1 43 36.3 48.8 43.3.9 1.1 2.4 1.6 2 3.5m-57-25c-.3-.4-9-1.9-10.5-2-20.8-2-42.2.5-62.9 1-19.8.5-40-1.7-59.5 2.5-71.3 46-144.7 89.1-219.3 129.7-13.5 7.4-30.4 14.1-43 22-10 6.3-23.8 29.7-30.5 40.5-36.1 58.4-64.5 122.2-86.2 187.3l19-21.5c12-11.7 23.5-23.9 36-35 4-3.6 28.9-26.2 33-22.5-10.7 25.7-22 51.2-32.5 77-10 24.9-29.5 64.4-27.5 90.4 1.8 24.4 16.1 54.5 25.8 77.2 30.7 71.7 69 140.9 115.7 203.3-7.4-33.7-14.1-67.9-16.5-102.5-3.9-55.6-3-118.1 9.5-172.5.7-3.2 1.1-7.3 3-10 2.7 19 4.2 38.4 10.2 56.8 8.9 27.2 34.3 58.2 52.3 80.7 33.7 42.3 75.8 81 117.5 115.6 1.1.9 1.6 2.4 3.5 2-4-12.3-10.2-23.7-14.7-35.8-25-66.8-26.6-146.2-23.3-216.8 1-21.2 1.9-68.9 12.8-86.2.5-.8.8-2.8 2.2-1.3.6.6 3.6 12.8 4.8 15.7 2.1 4.6 5.4 9.6 8.3 13.7 10.3 14.3 23.7 27.9 34.8 41.7-1.8-12.6-4.2-25.1-5.8-37.6-2.7-20.7-7.7-48.7-8.2-68.8-.2-6.8 10.3-38.5 13.3-46.8 29.3-81.3 71.2-173 111.2-249.8 6.3-12.2 15.2-31.4 23.5-41.5 1-1.2 6.3-3.6 4-6.5m-473.5 367v1c.7-.3.7-.7 0-1m-39 15v1c.7-.3.7-.7 0-1" class="outline" data-original-prefix="outline"/>
    </g><g class="trait-group" data-category="mouthpiece" id="mouthpiece-bearded 2">
      <path id="fill-mouthbit-main1" fill="#ffffff" d="M1250.4 1610h16.5c.9-5.6-1.9-10.6-2.7-15.8-1.8-11.1-2.1-24.7-7.1-34.9-1.9-3.9-3.6-5.9-8.6-4.2-1.9.6-1.4 6.2-5.5 0 2.4-17.1 0-34.8-6.1-50.8 8.1-.8 15.8 11.1 20 13 1.3.6 6.2 1 6.9.4.4-.3 2-8.1 2.1-9.4 1.4-14.6-30.9-59.9-43.8-59.8l-74.1-9.7c-7.1-1-54.5-2.4-56.8 1.2-2.4 3.8 4 13.9 5.4 17.8l-44-6c-10.1 1.9-18.5 7.9-27.2 12.8-9.6-3.8-17.4-11.3-27.9-12.8l-44.5 6c-.6-.6-36.4-19.8-50.9-18.9l-25.8-4.1c-12.2-.2-96.9 45.4-92.3 73.5 0 1.3 1.7 9.1 2.1 9.4.7.6 5.6.2 6.9-.4 4.4-2 11.8-14 20-13-6 14.4-7.2 29.7-7 45.1 0 4.3 2.9 6.7-2.9 9.5 0-4.4-3.6-5.1-7.4-3.8-5.7 2-7.9 25.7-8.8 31.2-.6 3.3-5 22.5-3.9 23.6h-.2 16.5c2.9 0 11.9-4.3 15-5.9 5.9 8 5.5 18.2-1.5 25.4-2.7 2.9-14 8.6-14.5 9.4-.6 1.1-.8 6.6-.4 7 .4.5 10.7 2 12.4 2.1 9.4.7 19.3-.2 28.5-2-7.8 25.2-11.3 57.3 6.5 79 1.2 1.5 9.6 10.1 10.5 10.5 8.4 3.7 7.1-3.1 9.5-8.5 3.7-8.4 9.2-18.5 17.5-23 2 6.6.4 13.6 1.1 20.4 1.9 19.2 14.6 38.6 28.9 51.1 4 3.6 12.2 11 17.4 9.6 2.2-.7 1.4-18.1 3.1-21.1 4.7 6.3 8.8 13.1 14 19 12.4 14.3 25.7 21.7 33.7 40.3 1 2.1 3.2 10.8 3.8 11.2 3.2 2.3 12.9-1.7 15.6-4.5 1.3 0 3.4 8.9 4.3 10.7 1.5 3.2 12.9 16.9 15.6 18.4s6.4 1.5 9.1 0c1.1-.7 10.2-10.9 11.4-12.6 4-5.5 5.6-10.6 8.5-16.5 3 2.8 12.1 7 15.6 4.5.8-.5 2.7-8.4 3.5-10.5 8.1-19.3 21.3-26.2 34-41 4.8-5.6 8.6-12 13-18 2-.5 2.3 5.4 2.4 6.6.6 6.2-2 17.4 8.1 12.9.6-.3 9.6-7.8 11-9 14.7-12.9 26.9-32.3 28.9-52.1.6-6.5-.9-13.2 1.1-19.4 7.7 4.7 14 14.7 17.5 23 .7 1.8 1.5 6.8 2.4 7.5 6.2 4.4 17.9-9.5 20.9-14.2 14-22.1 10.4-50.5 3.2-74.3 9.2 1.8 19 2.7 28.5 2 1.7 0 12-1.7 12.4-2.1s.3-6-.4-7c-.4-.6-6.2-3.1-7.8-4.2-12.7-8.8-15-15.9-9.7-30.8.7-.6 13.7 6 16.5 6zm-305.8-27.8c-1.5-.3-2.9-.6-4.4-.7.9-1.3 1.8-2.4 2.8-3.5.5 1.5 1 2.9 1.6 4.2m179 41.6c-.7 17.4-6.6 34.1-16.8 48.1-5.1-8.8-11.8-16.7-19.6-23.2-3.3-2.7-7.3-1.9-9.9.4-1.7.7-3 2.2-3.5 4.6-1.3 6.8-5.4 12-9.6 17.3-3.3 4.1-6.5 8.2-9.8 12.3-14.5-7.2-39 9.3-53.7-3.6-10.5-8.5-23.7-14.2-31.9-25-2.4-3.2-7.8-5.3-11-1.4-3.5 4.2-6.6 8.5-9.4 13.1-2.4-3.3-4.6-6.7-6.3-10.4-3-6.3-4.4-13.3-7.2-19.7-2.8-6.6-7.3-11.8-12.6-16.5 3.1 1.2 6.3 1.9 9.7 1.5.8-4.3-1.1-8.6-1.1-12.5s.7-8.6 2.2-13h.4c8.2-.9 15.5 2.7 22.9 5.7 7.5 3.1 15.2 5.7 23 7.9h.3c3.1 1.4 6.2 2.8 9.2 4.3 3.1 1.5 19.5 11.1 22.8 8.3 0 0 6.3-42 10.6-39.4 6.2 3.6 12.5 39.2 13.5 40.7s47.5-19.8 53.7-23.9c8-5.3 14.2-12.3 17.8-21.2 9.8 12.6 12.6 27.4 10.5 43 2.3.2 4.4 0 6.6-.6-.5.9-.9 2-.9 3.3h.1Zm9.9-6.3c-.2 0-.5-.2-.7-.2.3-.2.7-.3 1-.5 0 .2-.2.5-.3.7" class="fill" data-original-prefix="fill"/><path id="shading-moutbit" fill="#aaaaaa" d="M1246.3 1591.4v-.2c-3-11.7 7.6-19.1 7.7-30.8 1.2-11.6-4.3-22.9-2.7-34.4.8-5.6 4.3-10.1 7.9-14 12.5-12.2.2-30-5.7-42.5-8.2-12.9-4.5 1.2-4.9 8.2-4 15.5-18.9 9.2-18.3 33.2-3.9 15.5-22.8-23.8-26.8-27.5-3.8-5-5.8-6.7-6.5-6.6-1.2.2 19.2 36.4 21.4 50.5 2.3 10.8 3.5 44.8-14.7 12.5-31.2 9.1-23.6-26.5-35.8-30.3-3.5 1.8 0 7.7.3 10.9 2.2 7.8 4.6 18.7 4.2 28.5 0 5-1.7 19.7-9.2 14.7-2.7-1.5-12.4-28.2-15.6-27-.8.3 11.8 44.7-4.7 56.6-18.3 9.9-23.1-27.9-38.1-25.6-5.5.3-10 4.6-15 6.5-14.7 3.9-12.2-30.4-19.5-37.7-2.8-3.6 7.4 64.5-9.4 47.4-3.7-6.3-4.9-15.6-7.5-22.4-.3-.5-.6-1.3-1.1-.9-2.4 8.2.7 26.8-4.1 34.4-20.7-24.8-32.3-125.4 2.7-136 17.4.5 31.9 50.1 31.6 48.4-3.2-25-10.2-44.2-13.3-48.5 15.2-2.3 32.9 4.3 44.9 13.1 6.2 4 24.6 31.3 21.4 24.9-4-8-10.8-28.3-13.8-32.3-3.7-6-4.3-11.1 1.5-16 17-12.1 31.9 40.5 37.3 41.4s-12.8-29.7-20.5-39.2c-2.9-3.3-8.8-8.9-.6-8.5 9.1-1.2 34.8 34.2 32.8 25.9-7.8-31.7 25.4-19.9 38.5-6.1 4.6 3.7 8.7 21.8 21.7 25.3-9.6-6.4-15.4-27.7-19.2-31.5-1.3-1.8-4.3-3.5-4-5.7 1.8-1.7 6.6-1.1 8.2-2.7 2.1-3.2-5.9-4.3-8.1-4.9-12.9-3.2-25.7-4.3-38.9-2.6-9.4-.6-20-4.1-29.3-4.3-1.1-.3-.5-.6.4-1.3 7.6-4.7-6.3-4.2-9.5-3.4-10.5 2.6-21.7 2.9-31.6 7.3-6.3 3.1-8.9 8-14.8 10.3-4.6 1.8-9.8 2-14.8 1.7-34.6-3.1-77.9 1.5-112.5 1.9-23.9 2.5-34.9-20.8-57.5-17.3-6.8 1.3-13.9-.8-20.8-1.5-14.7-.9-42.4 10.2-64.7 23.9-17.5 11.4-41.8 26.4-33.6 49.1 3.3 7.2 12.7 10.9 14 19.7 2.5 10.5-2.6 20.9-2.8 31.3-1.8 14.4 19.5 32.1 1.1 41.8-17.1 9.1 8.7 8 15.2 7.3 15.7-3.3 22.9 2.7 37.5 5.5 7.4.6 16.6-.7 22 5.5 7.3 8.1-1 25.4 1.1 32.2 16.6-27.5 29.6-12.6 31.9-9.9-5 10.2-5.2 28.2-.8 36.1 3.9-.9 19.2-42.2 20.9-23.6.5 13-6.4 28.9-3.7 42.2.5.8 4.1-13.6 5-18.1 4.4-22.7 9.3 2.1 33.2-1.3 24 3.5 23.5 56.4 21.8 73 9.3-30.5-1.9-36.5 9.4-49.6 6.6-5.1 17.2-.3 23.7 5.2 7.9 7 9.9 18.1 12.7 27.7 4.7 17 5.9-19.2 8.9-22.4 3.9-12.4 23.5-16.7 28.3-3.1 5.7 13.8-2.6 31.5 1.9 45 1.6 2.6 7.3-29.5 8.5-42.8.5-27.5 4.7-29.8 31-31.8 18.7-6.3 17.3-19.3 30.6 3.3.7 1.1 1 1.6 1 1.3-.5-3.1-2.7-8.8-4.8-14.3-1.9-4.5-4.3-10.7-7.9-13.3-.2 0-.4-.2-.6-.3 1.2-1.9 2.3-3.9 2.9-6.2 1.2-4.1 1.5-9.3 6.1-10.9 1.5-.5 3.1-.6 4.7-.6 6.8 2.2 13.8 14.1 18.3 24.8 1.4-15.6-2.6-26-5.2-31.6 5.7-4.7 14.7-10.7 22.5-5.5 7.1 8.6 14.5 43.2 12.7 30.9-1.3-11.4-3.7-24.4-.5-35.3 2-7.7 10.8-6.2 17.5-6.5 10-1.3 18.4-6.5 28.2-6.3-1 4.8-.8 10 .2 14.2.9 3.2 4.4 13.5-2.6 9.3-3.7-2.2-6.5-6.8-10.5-8.5-1.8-.6-2.2 5.3-3.3 7.2-2.9 5-6.7 10.7-5.5 17.5.6 17.1 2.2 35.8-4.1 51.8-1-6.9-9.7-28.4-13.1-33 4 14.6 3.9 38.2 1.9 48.1-2.6-1.7-7.2-8.9-9.5-11.3-4.2-3.9-8.5-9.5-14.4-10.1-3.8.3-4.1 7.4-6.4 14.9-2.9 8.9-6.7 19.4-12.3 26.8 1-20.8-.4-26.5-2.5-34.8-2.6 10.2-3.8 45.7-18.5 55 1.1-6.5 4.7-49.2-.7-62.3-3.8 39.1-.6 66.9-36.4 89.5-5.3 3.6-21.6 2.7-22.6 4.3-2.4 4.7-2.1 10.7-3.9 15.8-7.6 19.5-9.9-12.3-11.4-18.4-1.7-12-5.1-22-5.3-19.7-1.1 21.9-8.6 56.3-15 71.5-5.1 11-7.3 9.2-6.4-2.1.4-15.7 2.7-39.3-1.4-46.3-5.2 5 .4 77.4-11.1 43.8-1.9-5.4.2-16-6.6-17.2-9.9-3.9-1.4-42-7.9-49.1-3.4 14.7 1.6 55.6-7.5 52.8-3.6-2.4-6.9-10-9.9-14.2-5.9-8.5-10.5-17.9-14-27.7-4.2-9.9-11.1-18.8-14.8-28.8-3.1-5.7-7.5-23.4-9.6-30.9-1.1 5 0 15.3.6 21.7 1.3 8 3.2 15.9 5.1 23.8 8 27.6-7.7 6.9-18.3 0-17.4-5.6-15.4-36-15.4-36s-6.7 7.2-6.5 22.3c-2.7.5-6.2-4.7-7.7-8.5-8-14.7 6.2-34.6-1.3-48.8-1.5 5.9-4.2 20.6-6.2 23.3-5.1 18.6-7.4-20.4-15.2-19.5-12.8-1-4.2-23.3-4.2-32-10.6 18.7-18.6 31-21.6 51.7-2.8 0-5.7-6.1-6.8-9.3-6.5-17.1-5.8-40.5-5.7-58.9 0-3-.3-6.4-1.9-8.7-4.6-5.3-11.6-2.4-19-2.3-6.3.8-23.2-1.2-22.3 6.5 5.4 6.3 20.7 3.2 30.4 3.8 15.9-1.9-15.4 49.5 18.5 83.2 3.5 3.3 9.1 7.8 13.4 3.9 3.5-2.4 15.6-34.4 20.8-16.5 2.6 25.1 13.1 47.5 33 63.7 19.7 15 13.5-12.8 23.3-5.8 14 15.4 31.2 30.9 40.5 49.2 6.3 14.4 8.3 11.6 21.3 15.2 9.1 6.4 13.4 24.2 26.5 23.4 11.9-1.6 15.9-17.3 24.3-23.5 3.3-2 7.4-.9 10.9-1.9 5.8-1.8 8.1-8.3 10.7-13.4 7.9-16.2 22.9-28.7 34.6-42.7 2.5-2.5 6.8-9.1 10.3-5.6 3.9 6.2 5.3 14 14.4 8 17.7-12.2 34.1-36.1 36-58.8.8-7.3 1.5-19.8 9.8-11.3 6.7 6.1 7.6 18.6 16.3 20.3 28.5-8.8 28.9-50 23.6-76-3-10.8 1.4-12 11.1-11.3 6.8-.3 28 2.9 23.8-7.8-3.1-5.7-9.9-9.6-12.7-15.5-2.2-3.5-2.2-8.3-1.9-12.9 6 .3 26.5 1.8 24.6-2.9-3.5-3.2-12.5-6-14.2-12.4h.5Zm-320.3-9.1c-3.8 6.6-9.5 17.5-14.5 7-2.4-5.4-2.8-12.5-3.8-18.1-1-6.4-2.5-11-7.9-5.3-2.6 2.8-5.2 6.7-8 9-16.6 12.5-14.1-34.9-10-46.9 1.1-5.9 9.6-21.6 5.9-25.8-13.1-6.1-21.4 69.9-55.7 45.4-14.1-18 11.5-50.5 21.4-63.9 3.6-4.4 9.5-12.7-.5-4.7-10.6 8.6-18.4 20.6-27.2 30.8-7.2 8.4-11.6 3.5-8.5-6.7 2.4-8.3 8.5-16.9 12.3-24.4 6.4-14-24.5 12-30.9 5.7-7-13.6 71.7-46.8 83.4-45.4.3.8-.4 1.7-.8 2.4-1.8 2.8-5.5 7.8-7 11.8-1.4 3.5-.8 4.6 1.8 2.9 6.5-4.7 14.7-12.1 22.6-12.6 15.2-.4 2.6 16.6-1.3 23-1.3 2.3-9.1 13-7 13 10.5-6.5 22.6-29.5 31.8-26.5 9.6 4.4 3.9 19.2.9 27.2-1.2 4.1-8.6 19.6-5.7 21.9 3.3 0 8.1-8.6 10.2-11.3 1.9-2.8 3.8-5.4 6-8 7.3-8.7 16.4-16.1 26.9-20.2 8.8-3.4-11.6 34.5-10.6 38.3 10.5-21.3 22.1-30.8 26.5-37.1 2.3-3.1 6.2-3.3 6.8-1-3.9 7.1-9 25.1-16.4 67.2 13.2-34.5 24-61.8 26.2-64 2.6-2.9 8.1-4.7 9.8-.4 1.6 3.8.5 8.5.7 12.7 0 2.2-3.4 14.7-.8 11.2 1.9-2.6 6.6-14.8 7.6-18 .5-1.2.7-3 2-3.6 15.3 8.9 5.4 127.2-8.5 126.8-39.3 10.7-17.8-51.5-12.3-77.4.2-1.8.2-2.7-.6-1.8-1.5 2.1-4 8.4-5.7 13.1-2.3 6-4.4 11.5-6.3 17.6-3 9.4-4.9 21-10.2 28.2-4.7 6.1-8.9 1.8-8.9-4.8-.4-6 2.3-13.9 2.8-19.4.5-11.2-27.2 19.7-28.8 21.8-2.8 3.2-5.2 6.7-7.4 10.4h-.2Zm146.3 79.6c-9 13.8-20.2 20.4-36.8 21.2-14.3 2-29.6.8-42-5.9-12.4-5.4-17-25-27.9-31.6-11.2-3.9-19.8 38.1-30.3 12.5-6.9-18.8-13.9-56.2 13.4-54.3 14.2 2.6 28.8 11.8 42.3 13.2 18.4 3.4 18.3-18.2 31.2-20.8 4.5.5 5.8 5.3 7.2 9.2 11 43.8 60.2-23 78.6-19.3 13.6 6.6 4.1 32.7 13.7 43.4-.5 7.2-2.7 14.1-6.5 20.3-1.7 2.7-3.5 5.2-4.7 8.1-.3.6-.5 1.1-.7 1.7-.9 1.5-1.7 3-2.4 4.7 0 .4-.2.7-.2 1-.2.4-.4.8-.7 1.2-15.4 6.9-12.3-35.7-34.1-4.7h-.1Zm-206 40.7c0-.4.2-1.3.2-1.8s0-.2 0 0c0 .4 0 1.5-.3 1.8Z" class="outline shading" data-original-prefix="shading" opacity="0.5" style="opacity: 0.5"/><path id="outline-mouthbit3" fill="#000000" d="M1155.3 1597.4c-8.9 5-25.4 14.5-34.9 18.7-.2-4.9.9-9.6.5-14.5-.5-6.4-3.7-15.5-6.8-21.2-1-1.9-7.7-13.3-10.2-9.7-1.9 2.8-3 8.5-6.1 12.7-4.4 6.1-8.1 9-14.6 12.5 0 0-2.3-48.1-23.8-84.1-.2 6 18.9 32.1 12.8 86.8-7.3 3.3-26.7 14.1-32.8 18.9-11.7-12.5-15.6-52.6-17.3-52.5-1.8 0-7.4 32.6-16.6 48.2-8.8-3.6-19.9-6.9-27.2-9.1-4.7-27.7 15.8-93.7 16-99.2-3.4 2.3-26.1 72.5-26.3 96.6-6.8-2-18.2-4.8-24.6-8.8 0-9.9-2-25.5 10-50.9-10.7 12-17.6 29.9-24.2 74.4-6.8-3.5-18-4.5-25.1-7.9 1.2-1.2-10.1-22.3 5.6-58.1-1.8-1.1-8 10.7-12.4 23.9-1.8 4.9-3.2 9.9-4 15.4-.6 3.6-.9 6.9-.7 9.7-5.2-3.5-10-7.6-13.7-12.9-10.5-14.8-12.6-31.2-6.7-48.3-16.7 9.3-34.6 41-18.7 67.8 3.8 6.5 1.7 0 1.4-1.4-3.1-12.8-5.5-14-.7-27.8l4.8-8.7c-.4 20.4 22.6 31.7 34.1 42.8 1.6 4.2.4 3.6 1.8 6.2 11.2 4.2 27.3 8.5 27.3 8.8.2 0 4.1 7.1 6.8 16.2.9 5.9 1.1 14.5 3.8 19.7.6 1.2 5.6 7 9.7 11.4-.4.7-3.1 36.5 3.2 48.3-3.1-23 5.7-48.2 4.9-49 3.1-8.3 6.7-16.4 13.5-22.4 3.3 15.6 20.9 30 29.4 35.4-.7.8.5 54 10 68.3 0 0-13.1-43-2-67.9 2.2-7.4 11.7 9 22 6.4 1.9-.5 3.6-.3 5.5 0 7 1.3 14.9-16.7 17.5-7.3 2.9 9.3 1.1 55.2 1.1 55.2 5-15.3 6.4-53.2 5.9-54 10-5.4 30.5-22.9 30.6-36.4 8.4 7.3 10.7 17.2 14.9 26.6.3.6-.2 2.2 1.6 1.4.5-.3 9.5-11.5 13-15.4 8.9 8.5 16.8 30.6 15.1 46.1 7.2-27.1-10.5-54.2-10.8-54.8 2.4-8.7 5-21 5.8-25.3 1 .5 22.5-11.1 40.6-25.9-5.3-25.7-21.2-78.6-30-88.2 1.3 13.6 22.3 55.1 17.6 85.2zm-52.3 61.5-14.5-19c-3.5-2.2-5.9-5.7-10.5-5-1.6 15.9-11.9 28.5-24 38-2.1-6.5-21.2 4.8-27.1 5.9-10.8-.3-29.5-14.2-33.4-5.8-9.8-8-16.1-15.2-21-27-1.9-4.6-1.1-12.9-7.5-10.5s-15.8 17.6-19.5 23.5l-8.6-28.4c5 .6 1.4.2 6.7.7-3.1-6.9-1.6-13.7.2-21.4 13.1 5.3 58.8 17.4 72 20.8 3.2-.7 3-24.4 5.6-33.5.6-1 9.1 34.7 9.1 34.7 6-.9 25.2-8.3 43-17.1 14.3-7.1 27.7-15.2 32.6-21.5 0 0 6.9 21.8-5.1 41.6 5.4-.4 4.6-.6 9.6-2.1l-7.5 26.1Z" class="outline" data-original-prefix="outline"/><path id="outline-moutbit2" fill="#000000" d="M1175.5 1538.1c17.5 33.9-3.8 51.1-4.7 59.1 10.5-9.6 18.6-20.1 18.4-29.3 3-2.2 5.8 20.8 4.5 38 11.3-3.8 16-46.9-18.2-67.8" class="outline" data-original-prefix="outline"/><path id="outline-mouthbit1" fill="#000000" d="M1282 1608.4c-11.7-16.8-8.3-42.2-19.4-61.6-2.2-3.8-8.1-9-8.6-9.9-.9-1.6-.6-11.4-2.2-14.3 3.6-.2 7 10.1 8.5 10.5 5.2 1.2 11.6-23.3 12.1-28.4.8-8.2-9-32.1-43-65.3-22.2-4.9-77.2-6.6-78.1-6.7 0 0-.2-1.6-1.5-2.4-3.8-2.5-43.7 3.7-59.6 7.7-3.7 1.4-7.4 3.3-6.3 8.9-17.1-1.1-27.9-11.9-45-5.5-3.5 1.3-12.3 7.1-14.7 7.3-3 .3-17.1-9.4-24.8-9.8-6-.4-32.8 7.9-35.5 8-5 1.9-9.4 5.7-10.7 2-.7-2.1-13-9.3-15.6-10.3-15.9-5.8-19.2-11.7-32.9-10.3-3.4 1.4-6.7 3.1-8.8 5.3-3.3-1.8-17.9-7.9-21.3-6.3-70.3 33.2-117 56.8-96.1 95.5 1.1 1.8 7.3 11.5 9.5 10 1.3-3.4 3.7-6.8 5.8-9.7.3-.5 1.6-3.2 2.2-1.8-1.6 4-1.1 10.2-2.2 13.8-.4 1.2-6.3 7.4-8 10.1-12.3 20.1-8.4 51.1-23.8 66.2-.9.8-1.5.9-1.1 2.4 14.4 3 29.6 8.9 44 3-2.3 8.1-9.4 13.2-16.6 16.8-3.1 1.6-10.6 3.4-12.7 5.1-.8.7-1 1.6-.6 2.1.6.8 15.3 8.4 17.3 9.2 9 3.7 22.2 4.6 31.7 2.8-4.1 16.3-6.9 36-.5 52 7.9 19.8 29.8 28.5 42 45l2-3 5.5-27.6c3.1 20.5 16.9 51.5 34.1 63 5.8 3.8 13.2 6.4 18.4 10.6 2.9 2.4 9 11.5 10 12 1.8.9 1.6-1.4 1.8-2.2.4-1.5 1.6-5.2 1.7-6.3h-.4c.5-5.2-.4-11.2 0-16.5 20.1 18.8 38.3 42 38 71 .9 1 9.6-7.4 11.1-8.4 1.2-.8 8.2-5.2 8.9-4.6-1.1 5.9 25.3 33.3 27.4 32.9 8.7-10.7 22.7-19.6 26.7-32.9 1.8-1.6 15.2 10.5 17 11.5 1.3.6 1.9.7 2.6-.5.6-.9 2.7-17 4-21 3.5-11 10.3-21.7 17.5-30.5 4.8-5.8 11.6-12.2 17-17.5v17.5c0 .3 1.4 4.3 1.7 5.3.3.8 0 3.1 1.8 2.2s7.7-10.4 11-13c3.8-2.9 8.5-4.1 12.4-6.6 20-12.8 34.4-30.6 39.1-54.4l5.9 17.6c0 1.2.4 1.9 1.6 1.4.7-.3 8.4-9.6 10.5-11.5 9.1-8.5 19.7-14.6 26.8-25.2 12-18 8.8-40.4 4.2-60.3 18.2 4 33.7-3.3 49-12 .5-2.2-.3-1.6-1.3-2.2-2.8-1.8-7-2.4-10.1-3.9-7.7-3.7-16.4-8.9-18.6-17.8 4.5 1 8.6 3 13.4 3s29.5-4.9 30.6-6c1.2-1.1-3.6-3.8-4.8-5.6Zm-31.1-3.7h-.2c-6.3-1-12.2-5.6-18.1-7.7-7.1 9.2-7.9 23.8 0 32.9 4.2 4.9 10.8 6.8 15.4 11.1-14.7 4.1-28.6 1.6-43-2 1.7 11.1 6.9 21.3 7.9 32.6 2.1 24.4-4.2 43.8-23.4 59.3-2.9-7.2-4.6-13.4-9.1-19.9-2.5-3.5-11.6-14-14.9-16.1-1.2-.7-1.9-1.2-3.5-.9 1.3 7.5.8 16.8 0 24.4-2.8 22.6-13.3 38.2-29.9 53.1l-12 9.5c-.5-4.9.6-10.8 0-15.5-.3-1.8-2.8-8.8-3.8-10.3-.6-1 0-1.8-2.2-1.3-4.8 13.2-14.5 23.1-24.3 32.8-8.3-24.3-4.3-48.5-7.4-74.2-.8-6.4-1.3 80.4.8 80.8-10.1 10.3-19.3 21.1-22.1 36.2-1.3 1-5-1.3-8.4-3.4 1.2-14.6 1.5-29.2.8-43.9-.3-6.4-10.6 46.4-10.1 47.1-.7 2.2-1.3 4.5-1.8 5.6-1.6 3.2-15.3 20.4-17.9 19.9-4.8-4.9-11.4-10.2-15.1-16-3.3-5.2-4-10.8-7.1-15.9-1.8-.4-11.9 8-15.4 7-.2-2.9-1-6-1.9-8.9v-.9c-1.6-27.9-36.2-79.3-32.8-73.8 10.1 16.8 17 35.1 20.5 54.2-7.6-8.5-16.8-15.7-24.2-24.6-5.7-6.9-10.2-14.5-15-22-5.9 8.1-3.7 17.8-5.5 27l-24-22.5c-14.9-18.3-20-41.4-17-64.5-1.4-1.2-11.1 4.6-12.5 6.1-3.1 3.3-2.9 1.7-5.3 6 0-16.9 3-24.8 3.5-34.1-5.6 9.4-11.1 43.5-9.9 49.7-1.2 3.1-2.2 6.2-2.8 9.2-25.6-19-27.6-46-20.7-75.2 1.3-5.6 4.7-10.7 3.7-16.8-14 4-27.7 5.8-42 2 8-5.8 19.4-11.5 20.9-22.6.5-3.8-1.9-21.4-6.4-21.4s-7.7 4.3-9.8 5.2c-7.2 2.9-12.9 3.3-20.7 2.8 7.1-16 3.8-34.4 13-50l9.3 16.7c-1.1-7.7-.8-19.1 1.4-36.1 1.8-13.5 5-27 10-39.5-11.2 2.3-21.8 8-29.3 16.7-11.6-31 78.7-73.7 92.8-76.5l9.6 4.5c-.5 0-14.6 15.1-18.4 34.4 12.6-27.5 25.6-30.7 32.5-34.5 0 0 .9-.4.9-.5l33.1 15c0 3.4-23 41.5-24.3 60.5 24.6-54.5 39.3-55.1 40-56.6 11.9-1.1 31.3-6.4 41.4-5.4 6.4.6 11.8 4.1 18.9 9 7.4 15.1 5.6 86.3 7.4 98.8 3-6.9 1.2-79.3 9.6-98.4 7-5.5 11.5-6.7 19.7-9.7 4.4 0 25.2 3.8 38.5 5.2.5.9 20.4 6.3 47 42.1.7-.4-1-3.3-3.9-7.6-14.9-27.2-28.1-36.2-29.7-35.5-1.7-2.6-2.9-5.4-2.5-8.8l41-9.3c2.5 1.7 27.1 25.4 33.5 40.1 3-1.8-5.9-26.5-11.6-34.2 26.1-.7 58.4 5.8 57 6.6 14.3 13 45.3 41.6 39 61.1-8.2-8.3-18.4-14.5-30-17 3 8.3 6 16.1 7.7 24.8 2.9 14.9 6.1 37.2 1.7 54.1 1.5-2 2.9-4 4.2-6.2l7.6-13.9c8.7 15.7 6.6 33.4 12 50-4.1-.2-8.2.4-12.3-.2v.2Z" class="outline" data-original-prefix="outline"/>
    </g>
</svg>