<?xml version="1.0" encoding="UTF-8"?>
<?xml-stylesheet type="text/css" href="../styles/semantic.css" ?>
<svg xmlns="http://www.w3.org/2000/svg" viewBox="0 0 2048 2048">
  <g class="trait-group" data-category="background" id="background-red">
      <path id="color-red" class="color" d="M2048,4.5c-.1,679.6-.1,1359.2,0,2038.8,0,3.8-.8,4.6-4.6,4.6-679.6-.1-1359.2-.1-2038.8,0-3.8,0-4.6-.8-4.6-4.6C.2,1362.3.1,681.2.1,0h2043.3c3.8,0,4.6.8,4.6,4.6h0v-.1Z" style="fill: #af6e6e" fill="#af6e6e"/>
    </g><g class="trait-group" data-category="jaw" id="jaw-OG-cracked">
      <!-- Generator: Adobe Illustrator 29.1.0, SVG Export Plug-In . SVG Version: 2.1.0 Build 142)  -->
  <defs>
    
  </defs>
  <path id="fill-jaw" class="fill" d="M1396.7,1438.7c-6.7,4.3-46.8-1.7-48.7.3l-12.2,69.8-57.2,29.3-1.4,1.6c-1.5,11.9,1.5,24.2.9,35.9-.3,4.9-1.3,15-2.3,19.7-.6,2.8-13.7,32.2-15,33.5s-16.1,8.9-16.7,8.3l-9.5-50-51,52c-7.7,5.7-20.7,9.3-27.5,15.5-14,12.7-25.2,37.4-42.1,47.9-5.4,3.3-61.3,25.7-66.7,26.3-13.8,1.7-33-3.3-47.7.2-17.7-10.3-50.1-16.2-66.1-26.9-14.3-9.6-28.3-35.6-41.4-47.6-6.7-6.1-19.9-9.6-27.5-15.4l-51-52-9.6,48.4c-.6.9-.9,1.7-2.2,1.5-.8,0-13.8-7.6-14.4-8.2-1.4-1.4-15.9-33.3-16.2-35.3l-.5-54.4-58.2-30.3-12.3-69.7c-8.1-1.2-45.1,3.9-49.5-1l-37.1-85-.5-3.4,31.5-70.6c5.3-1.6,29.1,0,31.3-6.7.8-2.3-.6-19.5-1.3-22.4-2.2-8.4-16.2-24-19.8-33.2-.7-1.7-1.2-3.1-.6-5,4.7-11.3,10.3-22.3,14.1-34,7.3-22.4,7.2-42.6,16.9-65.1,47.5-110.2,188.9-176,299.9-200.1,44.7-9.7,79.8-1.5,122.7,11.2,98,28.9,222.6,97.5,259,199,6.8,19,7,38.1,13.5,57.5,3.8,11.2,10.1,22.1,13.7,33.4,0,1.4-8.3,16.4-9.8,19.1-2.4,4.3-9.7,13.4-10.7,17.3-1.8,6.8-.6,15.6-2.3,22.5,9.9,7.9,21.3,4.2,32.4,6.5,9.6,23.9,23.5,46,31.4,70.6-9.8,26.3-22.2,51.8-33.2,77.7-1.3,3-1.7,9.3-5.1,11.4h0Z" fill="#ffffff"/>
  <path id="shading-jaw" class="shading" d="M1380.8,1185.8c-.2.4-2.1.7-2.8,1.7-8.6,10.8-16.2,26-21,39-4.2,11.4-5.1,22.7-13,32-18.8,22.4-51.8,45.5-78.3,57.7-5.4,2.5-12.5,3.7-16.7,7.8h20.5c2.7,0,5.1,1.2,7.9,1.1,18.1-.2,64.4-19.8,77.5-32.6,5.7-5.5,14.1-15.7,15-23.5,1.8,0,.7,2.4,1.5,4,3.1,5.9,15.5,5.2,21.5,6,.2,1.6-1.5.7-2.3,2.2-4.6,8.3-4.4,21.6-10.6,28.3-7.5,8.1-37.1,13.5-48.8,17.2-14.5,4.6-29.8,8.8-42,18.1l-52.8-14.8c-19.3-2.3-9.9,15.4-5.3,25.3,5.2,11.3,20.7,40,30.4,46.6,11.9,8.2,22.7-10.2,30-17,6.3-6,16.2-11.8,24.6-14.4,17.7-5.6,32.3,4.7,50.5,5.4,17.4.8,34.6-7.7,48.8-17.2,3.6-2.4,14.6-13.9,17.2-13.8,1.7,0,3.3,6.1,1.8,7.8-10.1,24.3-21.6,48-31.8,72.2-3.7,8.8-.8,14-13,15-9.3.7-15.8-1-24.2-1.8-4.8-.4-11.8,2.5-17.3-.2l-12.9,70.6-59,30.5c.4,11,2.6,23.6,2,34.5-.3,5.7-1.3,15.4-2.1,20.9-.5,3.1-13.4,31.4-15.4,33.6-3,3.2-11.6,6.2-15.5,9-.8-4.9-2.7-10.6-3-15.5-.6-11.2,2-11.3-2.7-23.2-.4-1.1-1.9-1-2.2-2-.8-2.2-.8-6.7-1.1-9.2l-2.3.2-50.2,51.8c-7.7,5.2-19.5,8.7-26.5,14.5-14.2,11.7-24.4,36.1-41.5,47.5-6.7,4.5-54.2,25.7-61.2,26.8-9.9,1.5-51.8,1.6-61.5,0-6.9-1.2-49.7-20.5-57.3-24.7-15.8-8.9-30.2-37.8-44.4-49.6-6.9-5.7-19-9.3-26.5-14.5l-51-52c-1,8.1-7.3,16-8.1,24-.6,6.2.6,14.6-.3,21.6-.2,1.7-3,1.8-2.1,4.4-.6.7-14.6-8.1-15.5-9-1.7-1.8-15-30.8-15.4-33.6-.7-4.4-.9-13-1.1-17.9-.5-12.2.6-24.4.5-36.6l-58.5-31.4-13-69.5-48.8-.2-38-86.6.9-6.2c8.2.4,11.8,8.2,18.6,12.7,25.3,16.9,38.4,19.8,68.5,13.9,17.1-3.4,19.1-7.5,37.2.4,15.9,7,19,16.2,30.6,25.4,9.6,7.6,13.6,7.9,22-1s31.8-49.1,32.1-60c.2-8.7-6.4-8.1-13.3-7.2-8.6,1.1-48.4,15.1-51,14.6-1.7-.4-12.3-7.9-16.5-9.6-20.3-8.4-48.8-11.8-67.2-20.8-14.9-7.3-11.3-20.9-17.7-33.2-.9-1.6-2.5-.6-2.3-2.2,6.3-.9,17,0,21-5.5,1-1.4.3-3.7,2-3.5,3,11.7,15.2,23.9,25.1,30.4,21.2,13.8,50.4,23.7,75.4,23.5h20.5l-34.7-16.8c-19.1-10.8-48.2-33.1-61.8-50.2-6.2-7.8-7.1-18.3-10.5-27.5-6-16.6-14.4-32-25-46,1.3-9,6.5-19.6,7.8-28.2,1.9-12.9,1.8-19.5,6.5-32.5,36.4-101.1,159.2-169,256.8-198.2,49.9-15,102.4-18.2,153.2-5.2,103.5,26.4,242.6,100.3,277.2,208.8,3.4,10.5,3,17.3,4.8,27.2.8,4.7,8.9,28.4,7.6,30.6l-.5-.2ZM1195.9,1382.1c-32.3-16.1-63.1-35.3-95.9-50.7-17.5-18.7-37.4-36.6-54.6-55.4-4.8-5.3-11.2-16-16-20-3-2.6-7.4-3-10.6-.6-4.5,3.4-12.7,16.4-17.4,21.6-16.7,18.6-36.8,35.6-53.6,54.4-32.9,15.3-64,34.2-96,51.2-.6,2.8,12.4,35,14.6,40.3,2.9,7.1,12.1,31.7,16,36.1,7.1,8,36.5,26.3,47,33,19.8,12.7,36.1,22.9,59.3,28.7,27.3,6.8,39.7,7.1,67,.6s43-16.6,65.7-31.3c10.4-6.8,35.9-22.5,43.4-30.6,4-4.4,12.7-27.4,15.6-34.4,2.1-5.1,16.8-41,15.5-42.9M728.3,1496.7c1.6,2,8.2,6.3,10.7,7.8,14.7,8.8,31.8,13.8,46.9,23.1,16.8,10.2,40.2,33.1,59.6,33.5,2.3,0,8.7-1.2,9.4-3.7s-13.6-27.6-16.4-30.3c-7.3-7.1-27.5-17.2-37.2-23.8-15.2-10.3-50.3-39.1-67.9-39.2-10.5,0-8.7,28.1-5.1,32.7h0ZM1319.7,1466.3c-5.9-5.9-24.1,4.1-30.4,7.6-16.2,8.9-31,21.4-46.2,31.8-12.7,8.7-30.1,15.7-38.6,28.4-2.2,3.4-10.8,17.7-11.4,20.7-1.1,5.3,6.2,6.5,10.3,6.3,16-.9,23.4-9.7,35.2-17.8,9.2-6.3,19.3-13.6,29-19,11.7-6.6,47.1-19.2,52.7-29.3,2.4-4.3,2.8-25.2-.7-28.6h0ZM1126,1664c-12-2.7-20.7,6.6-31.6,7.9-5.7.7-12.2-1.2-16.6-.7-7.1.8-22.9,12.1-31.2,14.9-14.8,4.9-30.2,4.7-45.1,0-8.8-2.8-23.9-14.1-31.2-14.9-4.4-.5-10.9,1.4-16.6.7-11-1.3-19.9-11-31.6-7.4,0,6.9,23.8,23.5,30,27,12.5,7.1,59.8,26.8,72.5,26.6s59.9-19.8,72.2-26.9c10.3-6,24.6-16.2,29.3-27.2h-.1Z" fill="#aaaaaa" style="opacity: 0.5" opacity="0.5"/>
  <path id="outline-jaw" d="M676,1140c5.2-3.1,18.7-3.2,19.1,4.5,0,2.3-.8,11.2-1.1,14-.3,3-.9,8.4-2.1,10.9-2.5,4.9-17.3,13.6-20.1,19.9-1.2,2.6-6.4,25.9-6.7,29.3-.2,1.7,0,2.8.4,4.4,2.1,6.9,13.8,19.7,17.7,27.3,5.7,11,7.2,24.3,12,35s13.5,10.7,22.5,15.6,17.7,11.1,25.3,17.2c-3.1,0-6.3.2-9.4,0-7.7-.8-35.8-6.7-41.8-10-6.1-3.3-8.8-18.4-12.8-20.4-2.5-1.2-7,0-10.3-.7-6.7-1.2-9.9-7.8-17.5-1.5-6.7,12.4-14.3,24.3-20.4,37.1-7.4,15.4-14.8,25.1-4.8,41.2,5.2,8.4,23.4,27,25.6,34.4,2.5,8.4-2.4,27.4,2.4,33.6,5.4,6.9,20.6,5.2,27.7,1.7,11.1-5.5,9.2-10.1,14.9-19.1,5.3-8.3,20.9-24.3,30.4-26.7,7.7-1.9,12.3,10.3,14,16,4.9,15.9,2,31.2,13.9,44.1,1.1,1.2,9,8.5,10,7.5-.8-5.6,4.8-8.4,6.5-13,3-7.9-3.1-20.6-5-29-2.8-12.3-5.1-24.7-8-37-1-4.1-6.2-19.9-5.4-22.3,1.2-3.8,23.7-9.1,24.9-10.7.4-.5-2.9-8.7,0-12.6,1.3-1.8,8.8-6.8,11.1-8.9,3.9-3.5,23.1-22.9,25.7-23.4,4.4-.8,5.2,2.4,8,3.6,5.1,2.1,10.8,2.5,15.7,4.3,1.1.4,2.4.5,2.5,1.9-11.2,6.3-23.6,13-34.3,20.2-2.7,1.8-16.6,11.8-17.6,13.4-1.6,2.6-2.2,9.7-2.2,12.9l3,44.5c-9.8-13.1-8.1-31.3-10-47-2.5,1.9-15.3,3.5-15.9,5.6,4.5,18.6,8.6,38.8,15.1,56.7,7.3,20.1,19.2,40.4,27.7,60.3,11.1,7.8,27.2-5.8,33-15,5.6-8.7,8.1-23.6,22.5-13.5,11,7.7,22.9,21.4,33.5,30.5,48.3,41.3,92.1,59.6,157.4,50.3,40-5.7,69.7-25.7,99.7-51.3,6.2-5.3,32.4-31.5,37.5-32.5,11.9-2.2,14.8,13.8,21.4,21.5,7.4,8.7,17.4,14.2,29.1,12,4.4-.8,21.2-8.4,26.3-10.7,9.2-4.2,20.3-11.4,27.2-18.8,10.4-11.3,8.4-24,12-38,1.7-6.6,6.3-23.8,15.5-21.6,10.7,2.6,27.2,21,32.6,30.4,1.7,3,2.2,6.8,3.9,9.1,6.3,8.5,28.5,13.3,36,5.1,5.6-6.1.4-25.5,2.9-34.1s20.4-25.8,26-35c9.4-15.8.8-28.3-6.5-43.3-5.8-11.8-13.2-22.7-19.2-34.3-7.1-5.6-12.2.4-18.5,1.5-2.9.5-6.9-.4-9.3.7-3,1.4-6.8,14.4-9.5,17.5-1.4,1.6-7.6,4.3-9.9,5.1-8,2.8-25.7,6.6-34.3,7.7-3.4.4-6.8.2-10.2.2,6.6-5.5,15.7-12,23.3-16.2,11.5-6.3,19.8-5.1,25.5-19.5,3.9-9.8,5.3-20.7,10.3-30.7,3.9-7.7,16.9-22.6,18.7-29.4.4-1.7.2-2.8,0-4.5-.6-4.4-5.6-25.6-7.2-28.8-3.7-7.3-19-15.9-20.5-21.5-.8-3.2-2.6-24.3-1.6-26.4,2.1-4.5,12.7-3.4,16.5-1,.5,1.9,4.4,14,5,14.5,6.2,5.3,26.1,4.1,26.1,17s-1.7,15.9.2,26.7c1.7,9.8,9.7,22.5,6.4,31-2.3,6-12,20.9-15.9,27.1-3.6,5.6-8.1,10.6-11.8,16.2,8.8.3,18.9-17.9,26.1-12.1,3.4,2.8,13.7,18.6,16.7,23.3,5.1,7.9,10.9,17.6,15.1,25.9,3.9,7.8,17.4,38.8,16.1,45.8-.2,1.2-13,15.6-15.2,18.8-10,14.2-21.3,32.5-25.7,49.3-1.9,7.2-2.7,14.7-4,22-1,1.4-27.6,11.9-31.1,12.9-10,2.9-17.2,1.5-24.9-5.4-.9,8.8-2.6,17.7-3,26.5s1.7,33.1-.8,39.2c-.6,1.5-11.3,15-12.5,15.5-6.3,3-15.7-1.7-24.7,3.3-22.6,12.7-18.8,48.5-26.9,68.1-6,14.6-40.4,52.5-54.6,59.4-1.2.6-2,1.3-3.6.9,1.2-14.7,3-35.1-3.9-48.6-.4-.8-.4-3.2-2.1-1.4-.7.7-3.6,13.8-6.6,17.9-8.6,11.7-30.9,6.8-39.2,20.8-5.2,8.9-7.6,22.3-13.4,30.6s-48.5,28.9-59.6,33.4c-15.1,6.1-64.1,21.2-78.8,21.2s-63.4-15.1-78.8-21.2c-11.1-4.4-55.3-26-60.6-34.4-6.9-11.1-8.5-31.6-21.5-37.6-14.4-6.6-26.5-2.6-33.9-20.1-1.1-2.5-2.5-10.3-2.8-10.7-1.3-1.6-1.8.4-2.2,1.3-1,1.8-4.8,14.6-4.8,16.2v30c0,.3,1.4,1.4,1,2.5-1.7.2-3-.3-4.4-1.1-15.2-8.7-49.8-45.6-54.8-62.2-6.2-20.6-5.2-52.1-25.9-65.1-8.2-5.2-18.3-.3-24.7-3.3-.9-.4-12.2-14.2-12.7-15.3-2.1-5.2-.2-29.6-.5-37.4-.4-9.1-2-18.5-3-27.5-4,1.6-7.6,4.7-11.9,5.6-2.8.6-5.6.7-8.5.3l-35.7-14.3c-1.5-7.3-2.1-14.8-4-22-4.3-16.8-16.4-36.3-26.5-50.5-2.2-3-13.9-15.8-14.2-16.8-1.1-3.6.8-8.3,1.8-11.8,5-18.6,17.3-42.1,27.6-58.4,2.5-4,17.5-26.2,20.1-26.9,6.2-1.8,15.2,12.1,22.3,12.8.7-.7-9.3-13.3-10.4-15.1-4-6.2-14.5-22.3-16.8-28.2-2.7-7.1,5.4-22.1,6.9-30.5,1.9-10,.2-18.4,1.3-27.7,1.2-11,17.6-11.6,25.8-15.7,2.1-4.7,2-9.6,3.2-14.8h.4v-.2ZM799,1627.5v-20c0-3.5,9.1-26.6,11.7-27.4,6.9-2.2,27.9,17.6,32.8,22.9,7.6,8.1,14.7,20,23,27,10.5,8.8,23.6,12.8,33.5,23.6,22.2,24.2,21.6,36,55.1,50.9,29.5,13.1,59.4,23.9,92.4,17.4,12.7-2.5,58.9-21.3,68.9-29.1,12.4-9.6,23.1-31.8,35.2-42.8,9.6-8.8,25.5-14.6,34.6-23.4,6-5.9,12.7-15.8,18.4-22.6,2.8-3.3,8.4-7.2,10.3-10.7,4.4-8.2,10.5-40.4,10.3-49.8-.3-12.5-3.5-25.3-4.2-37.8-17.1-12.8-20.5-.4-31.4,9.3-16.5,14.9-41.1,22.8-63,25-69.4,7-135.6,7-205,0-22-2.2-46.4-9.9-63-25-7-6.3-10.5-15.9-22-15.1-3.7.3-6,3.1-8.5,3.7-4.9,1-22.9-12.7-28.3-15.8-18.4-10.2-46.1-20.5-61.1-34.9-6.9-6.6-2.4-11.8-2.5-19.5s-3.8-23.4-6.8-30.2c-.5-1.1.2-1.5-1.7-1.3-9.4,1.3-19,20.2-19.3,28.8-.2,6.3,6.7,18.5,7.6,26.9,1.5,13.9-4.4,40.4,8.8,49.2,12.8,8.6,39.9,13.7,50.8,26.2,5.7,6.6,1.5,7.9.7,14.6-3.6,29.6,1.4,55.9,20.9,78.9.5.6,3.9,4,2,1h-.2ZM1248,1630c19.4-21.2,26.1-39.8,25-68.5-.3-7.8-4-21.4,0-27.8,4-6.1,20.2-13.6,27.2-16.8,15.2-7.1,31-7,32.7-27.3,1.3-14.8-1.6-26.3,2.5-41.5,3.4-12.7,7.8-13.2,2.5-27.5-2.8-7.7-9.2-17.6-18-18.4-5.5,13.3-7.4,26.1-7,40.5,0,3,2.2,4.9,0,8.1-1.5,2.2-16.5,12.2-19.8,14.2-9.2,5.7-59,28.5-60.9,35.1-2.7,9.4,7.3,31.3,8.6,41.6l-10,40.5c2.4-1.4,5-2.6,7.9-1.9,6.7,16.4,13.1,31.6,9.1,49.9v-.2h.2ZM780,1448c-2-1.4-5.5,2.6-5.8,4.7-.9,5,7.2,15.1,12.8,15.2-.9-2.6-6.1-19.4-7-20h0Z" class="outline" fill="#000000"/>
    </g><g class="trait-group" data-category="mouth" id="mouth-cracked scrappy">
      <path id="fill-muzzle-1" fill="#ffffff" d="M1038 1292s-.4 1.7.7 2c10.3 2.8 18 4.3 25.8 13 1.9 2.2 4.9 8.8 6.5 9.5 2.6 1.2 6.6 0 9.5.5 11.4 1.5 21.2 3.7 31.2 9.8 2.1 1.3 9.2 7.8 10.2 7.1.3-.3 0-1.7 0-1.9 2.4-1.8 32.7.6 38 1 5.2 4.2 13.2 5.5 19.2 8.3 13.7 6.4 22.5 16.1 29.9 29.1 8.4 14.6 7.7 17.8 3.1 33.4-2.5 8.5-4.8 21.8-16.3 20.2 1.5-15.5-14.8-32.4-26.5-41-3.2-2.4-11.3-7.2-6 0 10.7 14.6 20.5 15 21.5 37.5.5 10.4-8.3 32.8-15.4 40.5-.6.7-7.1 6.3-7.6 6.5-3 1.6-6.8-6.1-7.8-8.2-3.7-7.7-4.8-15.6-9.7-23.3-1.1-1.7-10.8-13.7-12.4-12.1 5.6 13 9 46.2-2.5 56-4.4 3.7-9.4 1.9-13.3 3.7-2.8 1.3-3.1 5.8-4.8 6.2-.9.2-7.2-3.2-9.4-3.5-9.3-1.3-13.1 17-18.7 17.4-2.5.2-10.7-11.9-18.4-9.4-6.8 2.2-15.3 20.6-23.6 23.5-7.3-4.5-4.2-14-6.6-21.1-1.2-3.5-4.2-6.7-5.8-10.2-5.4-12.7-2.8-19.9-.2-32.2.7-3.3-.2-6.3 1.2-9.8.4-1 6-11.5 6.6-12.4 3.7-5.4 19.2-12.4 22.7-3.8.9 2.2 0 8.7 2.2 7.7 5.1-4.9 10.2-9.9 15.5-14.5 10.2-8.9 12.8-8.2 19.5-21.5 1.9-3.8 8.1-17.3 8.2-20.7.2-6.3-17.9-22.6-21-29-3.6-2.9-22.1-2.8-27.2-2.3-14.1 1.5-18 12.2-27.5 19.5-1 .8-1.3 1.9-3 1.5l.8-12.7c7.6-8.2 14.9-16.6 21.1-26 .7-3.3-8.6-12.4-11.3-13.2-3.6-1 .5 5.5.5 6.6.4 5.2-5.9 4.1-9.3 5.6-1.2.5-3 2.7-3.2 2.7s-2-2.2-3.2-2.7c-8-3.5-11.7.6-7.3-12.2-1.6-1.7-12.5 9.1-12.9 11.7-.2 1.6 3.6 7.8 4.8 9.5 1.5 2 5 5.9 7 8.3 3.2 3.9 9.7 7.7 9.9 13.1 0 1.6-.8 3.1-.8 4.8s2.6 8.1-2.5 3.6c-6.2-5.3-10.1-13.6-18.5-17.5-6.8-3.1-28.3-4.1-34.7-.8-.8.4-9.9 11.1-11.2 12.8-2.4 3-10.9 13.7-10.8 16.8.2 5.1 11.2 27.9 14.7 32.2 2.8 3.4 10.2 7.7 14 11 5 4.3 9.7 9.1 14.5 13.5 2.2.9 1.5-5.2 2-7 2.4-9.9 19.2-2.4 23 3.1.7.9 6.6 13.1 6.9 14.1 2.9 11 5.6 26.6 1.9 37.5-1.7 4.9-6.8 10.4-7.8 15.2-1.4 6.6 1 13.6-5 19-5.3 1.2-18.8-21.7-24.4-23.5-8.2-2.6-15.9 9.6-18.4 9.4-5.3-.4-8.7-14-13.9-16.1-6.9-2.8-11.5 2.7-14.1 2.1-1.8-.4-2-4.8-4.8-6.1-4.5-2-9.6.3-14.3-4.7-10.9-11.5-6.5-42.2-1.5-56.1-9.1 6.7-14.1 14.8-18.5 25-1.6 3.6-2 7.5-3.7 11.3-1 2.1-4.9 9.8-7.8 8.2-.4-.2-6.9-5.8-7.5-6.5-4-4.2-13.8-24.3-15-30-2.8-12.9 1.4-26.5 9.5-36.5 4.1-5.1 11.3-9 13-15.5-2.4-2.4-22.3 17.4-24.4 20.1-5.4 6.8-11 15.9-9.6 24.9-4.7.2-8.1-.7-10.8-4.7-1.8-2.7-8.8-24.3-9.2-27.8-1.1-10.9 10.9-28.8 18-37 10.5-12.2 24.5-14.2 38-21.5 12.5-.8 24.5-2.3 37-1 0 0 .7 2.1.5 3 9.5-8.2 20.6-14.8 33.1-16.9 4.7-.8 14.8-.4 18.1-1.8 1.6-.7 5.2-7.7 7.2-9.9 8-8.4 15.2-9.7 25.4-12.5 1.1-.3.6-1.9.7-2 1.1-.7 25.9-.7 27 0Z" class="fill" data-original-prefix="fill"/><path id="fill-teeth16" fill="#ffffff" d="M995.3 1525.7c11 9.5 17.2-6.6 23.2 6.3 6.5 14.1 3.7 38.4-1 52.9-.7 2.1-7.1 16.9-8 17.1-1.2.3-3-.4-4.2-.9-12-5.1-31.7-18.1-39.1-28.9-10.6-15.5-6.4-42.9 6.8-55.8 1.3-1.3 9.1-5.6 10.4-5.3 1.5.3 9.4 12.3 12 14.5h-.1Z" class="fill" data-original-prefix="fill"/><path id="fill-teeth15" fill="#ffffff" d="M1039.1 1601.9c-.8-.5-7.5-16.1-8.1-18.4-4.1-13.8-6.5-36.9-1.3-50.3 4.6-12 8.1-4.3 15.8-4.2 9.5.2 17.3-18.2 20.8-17.9 1.2 0 8.5 4.2 9.7 5.3 6.3 6.2 12.2 22.3 13 31 2.4 28-20.3 39.6-41.3 50.7-2 1.1-5.7 5.5-8.6 3.7Z" class="fill" data-original-prefix="fill"/><path id="fill-teeth14" fill="#ffffff" d="M904 1461c0 2.2-1.1 3.8-.8 6.2.2 1.8 7.1 22 8 23.1 3.9 5.1 11.2 3.2 16.7 3.8 4.9 13.5-4.2 23.8-8.6 35.6-2 5.3-8.7 33.1-12.8 34.2-1.8.5-6.8-9.1-8.3-10.7-10.3-23.9-15.3-58.4-2.6-82.2.6-1.2 7.1-11.6 8.4-10.1Z" class="fill" data-original-prefix="fill"/><path id="fill-teeth13" fill="#ffffff" d="M1144 1564c-2.1 1.4-6.1-7.1-6.8-8.7-3.2-7.9-4.4-17.4-7.5-25.5-4.3-11.6-13.6-22-8.6-35.6 4.8-.6 12.3 1.2 15.9-2.9 1.3-1.5 8.1-20.6 8.6-23.2.3-1.8-1.4-7 .9-6 6 2.7 13.7 26 14.4 32.6 1.4 13.9-2.9 45-9.3 57.4-.8 1.5-7 11.6-7.6 11.9" class="fill" data-original-prefix="fill"/><path id="fill-teeth12" fill="#ffffff" d="M1093.1 1644.9c-2.9-1.8-2.4-28.5-2.1-33.4.7-10.5 5.2-31.2 8.9-41.1 1.1-2.8 2.4-1.4 4.2 0 12.2 9.6 21.1 44.8 12.8 57.9-1.9 3-15.6 14.9-18.9 16.1-1.3.5-3.8 1.1-4.8.4Z" class="fill" data-original-prefix="fill"/><path id="fill-teeth11" fill="#ffffff" d="M949 1569c5.5 22 11.1 44.4 9 67.5-.5 5.2-.9 10.3-7 8-3.4-1.3-17.5-13.4-19.5-16.5-5.8-9.2-1.4-31.3 2.7-41.2 1.2-2.9 11.3-21 14.8-17.7Z" class="fill" data-original-prefix="fill"/><path id="fill-teeth10" fill="#ffffff" d="M881.7 1478.3c3.1 2.8-2.7 21-2.8 26.2 0 5.9 2.6 12.4 3.1 18 .2 2.1.7 24.5-.5 24.5-1.5.2-2.1-1.1-2.9-2.1-15.6-18.9-34.8-51.8-17.4-75.3 6.5-8.8 10.5 2.1 14.9 5.8 1.8 1.5 4.9 2.1 5.7 2.8Z" class="fill" data-original-prefix="fill"/><path id="fill-teeth9" fill="#ffffff" d="M1185.7 1467.3c1.9 1.6 7.8 13.7 8.2 16.2 3.2 20.7-9.8 47.3-23.9 61.9-.9 1-1.3 1.9-3 1.5.5-8-.7-16.6 0-24.5.4-5.4 3.1-12.3 3.1-18s-6.1-23.4-2.8-26.2c.6-.6 2.5-.6 3.8-1.7 3.4-3 10-13.1 14.7-9.3Z" class="fill" data-original-prefix="fill"/><path id="fill-teeth8" fill="#ffffff" d="M1018 1613v16.5c0 .9-10.8 13.2-11.9 14.1-6.3 4.8-8-2.6-10.6-5.5-5.5-6-17.9-.4-24.4-5.6-1.2-.9-4.1-8.8-4.1-9.9v-22.5c12.9 1.7 28.3 17.5 41.4 15.9 3.5-.4 6.1-3 9.6-2.9Z" class="fill" data-original-prefix="fill"/><path id="fill-teeth7" fill="#ffffff" d="M1031 1613c6.3 1.3 9.1 4 16.1 2.6 10.6-2.2 24.3-14.8 33.4-15.6 2-.2 1.4 0 1.2 1.3-.8 6.5 2.4 27.5-4.4 31.6-7 4.2-18.8-.3-23.4 4.6-2.1 2.2-3.6 8-8.4 7.6-1 0-14.6-13.5-14.6-14.6V1613z" class="fill" data-original-prefix="fill"/><path id="fill-teeth6" fill="#ffffff" d="M1102.5 1494c3.3-.8 4.5 6.9 5.3 8.7 5.6 12.1 13 24.8 13.3 38.8.2 9-16 29.8-21.3 16.2-4-10.4-4.1-44.8-1.1-55.5.4-1.6 2.4-7.9 3.8-8.2" class="fill" data-original-prefix="fill"/><path id="fill-teeth5" fill="#ffffff" d="M937.3 1559.7c-1.9-1.6-7.8-10.5-8.5-13-3.6-12.1 6-31.3 11.4-42 1.6-3.1 3.3-14.7 8-7.4 5.5 8.5 4.3 41.5 2.7 52.1-1.2 7.7-3.6 18.7-13.6 10.3" class="fill" data-original-prefix="fill"/><path id="fill-teeth4" fill="#ffffff" d="M917 1563c-1.8 13.4 2.9 27.5 2 40.5-.6 9-4.4 18.4-5.5 27.5-6.2-6-10.5-16.1-11.4-24.6-.5-5.2.7-24.7 2.4-29.3.6-1.6 10.5-16.2 12.4-14.1Z" class="fill" data-original-prefix="fill"/><path id="fill-teeth3" fill="#ffffff" d="M1135 1631c-.4-8.9-4.4-17.8-5.1-26.5-1-13.8 3.7-27.6 2-41.5 2.2-2.4 11.9 13 12.5 15 2 6.6 2.6 27.4 1.2 34.3-1.3 6.3-5.5 14.9-10.8 18.7z" class="fill" data-original-prefix="fill"/><path id="fill-teeth2" fill="#ffffff" d="M1154.1 1604.9c-3.4-2-5.1-22.3-3.9-26.2.8-2.6 8.9-5.2 10.2-8.8l5.1-10.9c3.8 3.4 5.1 7.2 4.3 12.2-.7 4.2-5.4 22.7-6.9 26.2-.9 2.2-6.1 9-8.8 7.5" class="fill" data-original-prefix="fill"/><path id="fill-teeth1" fill="#ffffff" d="M885 1559c-.3 3.7 1.7 9.4 4 12.2s9.5 5.2 10 8.3c-2 8.4 1.6 19.2-5.7 25.4-3.6-1.1-6-4-7.4-7.4s-6.5-23.6-6.9-27.1c-.5-4.2 1.2-10.6 5.9-11.4z" class="fill" data-original-prefix="fill"/><path id="shading-mouth2" fill="#aaaaaa" d="M918 1443.5c.8 5.3 5.6 13.8 10.1 16.9 11.5 8.3 16.2-.3 22.4-9.4 2.5 5.4 3.4 11.5 6 17 1.4 2.8 5.7 12 7.5 5.5l4-11.5c1.6 7.5 6.3 15.4 11.5 21 4.3 4.7 18.8 15.4 24.6 9.6 2-2.1 8.3-17.9 10.8-22.2 1.2-2.2 7.8-13.8 9.7-13.3 1 .2 8.5 13.2 9.7 15.3 2.4 4.5 7.3 17.7 9.8 20.2 3.8 3.8 10.5.4 14.4-1.8 10.5-5.9 18.5-17.2 21.7-28.8l4.2 12.3c.3 1.2 1.9 2.4 2.8 1.7.6-.4 5.8-11.3 6.5-13 .8-2 2.8-12 4-12 6.8 10.7 12.9 18.4 24.5 7.5 8.6-8 9.3-23.8 7-34.5 3.5-3.1 21.1 16.1 26.6 16.9 9.1 1.4 17.6-11.8 19-19.9 3.5-20.5-12.9-39.2-30.9-46.2l-12.7-4.8c15.4 0 28.2 2.9 41.1 11.4 4.8 3.1 12.2 10.9 17.6 11.4 6.2.6 10.1-4.1 10-10-.4-19.3-25.8-38.1-39.7-48.8 15.4 2.4 34.6 11.8 45 23.5 7.8 8.8 19.1 25.1 19.1 37s-6.4 28.5-9.2 32.8c-3.3 5.3-11.7 5.4-13.4 10.6-.9 8.1-2.1 16.4-2.5 24.5-1.5 29 1.4 45.2-10.8 73.2-3.6 8.2-12.7 20.4-14.9 27.1-4.2 12.8-.7 26.4-9.1 38.9-3.2 4.8-8.4 6.7-11.2 10.8-1.7 2.5-2.4 6.1-4.2 8.8-4.5 6.7-14.6 23-21.6 8.9-1.6-3.3-1.3-12.9-6.7-6.2-1.4 1.7-1.9 4.4-3.5 6.5-3.7 4.7-17.7 19.6-23.5 19.5-2.2 0-4.5-4.1-6.6-5.4-7.9-5-21.1-6.3-29.2-1.4-7.3 4.4-9.5 13.6-18.1 6.8s-6.4-10.8-20.1-9c-5.6.7-11.4 12.6-16.9 12.1-2.8-.2-11.4-11.1-18.5-12.6-6.3-1.3-17.5.7-23 4.2-2.6 1.7-4.1 5.6-7.5 5.4-5.7-.3-19.8-15.8-23.6-20.5-1.2-1.5-4.4-10.6-7.1-6.9-2.5 3.4-.6 9.9-7.2 12.7-7 3-14.9-11.2-18.1-16.4-1.2-1.8-1.2-4.3-2.6-6.4-2-3-6.8-5.4-9.5-8.5-10.4-11.9-6.7-27.7-10.7-41.3-.8-2.6-5.6-8.5-7.3-11.7-18.4-35.7-16.4-45.6-18.4-84.6-.4-7.7-.6-20.7-2.2-27.8-1.5-6.2-11.1-6.1-14.2-11.8-3.4-6.1-9.3-29.6-8.6-36.4 1.2-10.3 16.2-31.2 24-38 10.5-9.2 26.2-16.5 40-18.5l-21.5 17c-7.2 6.4-26.8 32-14.8 39.9 9 5.9 16.7-4.5 23.7-9.1 12.7-8.4 25.3-11.8 40.7-11.8l-17.3 7.2c-18 9.4-33.1 32.7-22.1 52.8 1.7 3.1 8.6 10.4 12 11.1 9.1 1.7 20.7-15.4 29.5-18 .6 6.4-.9 14.3 0 20.5zm-37.1 40.6c-12.3-.5-17.1-20.2-22.8 1.5-3.4 13 1.2 26.4 9.4 36.5 1.5 1.8 12.7 13.1 13.9 12.9.8 0 2.5-2.3 2.8-3.2 2.9-7.1-3.2-12.2-4.2-19.2-1.5-9.8 0-18.7.9-28.4Zm301.8-8.9c-3.2.8-6.3 6-8.8 7.3-2.1 1.1-7.2 1-7.8 3.2-.5 1.7 3 10.8 2.9 14.8 0 3-1.5 13.9-2.2 16.8-.9 3.6-3.9 5.7-3.9 10.2s1.4 7.1 3.7 7.4c1.9.3 15-14.4 16.8-17 5.7-8.5 9-18.8 7.3-29.2-.5-3-4.4-14.5-8-13.6Zm-284.8 10c-4-2.3-6.5 9.9-6.8 12.5-1.2 10.5 3 38 8.7 47.1 1.9 3 5.4 6.9 9.2 7.3 3.7-15.6 12.6-29.2 21-42.5-2.3-.4-1.7-2.9-2.7-3.5-1.5-.9-7-1.9-9.7-3.1-4.7-2.2-12-7.7-15.6-11.4-1.2-1.2-3.8-6.2-4.2-6.3ZM1139 1552c8.3-2 11.9-12.2 13.9-19.6 3.1-12.1 6.1-33.4 1.1-44.8-3-6.9-5.8 1.7-8.3 4.1-3.9 3.8-11 9.3-16 11.6-2.5 1.1-7.8 1.8-9.1 2.7-.7.5-.5 1.8-1 2.7-.3.4-1.7.4-1.6.9 0 1 7.9 12.3 9.2 14.8 4.8 8.8 9.1 18 11.8 27.7Zm-197.7 5.7c8.1 8.1 9.5 0 10.5-7.3.8-5.6 2.7-20.6 1.7-25.4-3.6-17.2-21.3-15.9-21.6 3.6 0 6.8 4.6 24.3 9.4 29.2Zm161.5-44.5c-5 1.3-8.5 9.3-8.8 14.2-.2 4 2.4 28.5 3.8 31.3 2.5 5 7.5 0 9.8-2.7 6.8-8.3 11.6-30.7 4.5-39.5-2.7-3.3-4.8-4.4-9.2-3.3zM1023 1544c-.7-.7-.8-7-5.1-9.4-8.9-5-21.8-.8-32-4-10.4-3.3-9.4-13.1-16.1 1.8-2.9 6.4-9.1 24.4-6.3 30.7 1.1 2.4 17.8 15.6 21.2 17.8s18.2 11.7 21.1 10c3.1-5.6 9.3-9.5 12.6-14.9 1.8-2.8 4.1-11.5 4.6-11.9 1.6-1.7 1.7.5 2.1 1.4 1.6 3.6 2.1 6.8 4.5 10.5 3.3 5.2 9.2 9.3 12.4 14.6 3.1 1.9 15.5-5.9 18.9-8.1 4.5-2.9 22.9-17 23.9-21.1 2.2-9.7-6.6-28.3-10.9-37.2-4.9 1-7.8 5.2-12.7 6.7-9.2 2.8-28.2-1.6-33.7 6.3-.9 1.2-2.6 8.9-4.5 7zm-136 18c-.7-.6-3.5 0-4.5.9-6 6.2 2.4 31.6 14.6 27.6 4-1.3 3.8-9.4 2.8-12.9-1.1-3.9-7.2-4.1-9.8-7.2-2.1-2.5-2.7-8.2-3-8.5Zm274.1 0c-.3.3-.9 6-3 8.5-2.6 3.1-8.7 3.3-9.8 7.2-1 3.4-1.2 11.6 2.8 12.9 13.4 4.4 20.2-24.5 14.1-28.1-.9-.5-3.5-.9-4-.4Zm-216.4 7.2c-1.5.4-5.1 4.6-6 6.1-3.4 5.6-5.6 32.3-4.8 39.3 1.3 10.9 15.2 18 19.5 3.5 1.7-5.6 2.6-21.4 2.5-27.6 0-1.1-5.8-19.7-6.5-20.5-1.2-1.4-3.2-1.3-4.8-.8Zm153.3-.1c.2 6.6-5.4 14.7-6 20.6-.5 4.5 1 25.3 2.4 29.4 4.2 12.1 16.9 7.3 19.1-2.9 1.1-5.2 0-16.8-.6-22.6-1-9.7-1.7-25.5-14.9-24.5m-180 1.9c-20.5 3.8-17 28.7-9 43 4 2.9 10.4-17 10.7-19.8.9-7.5-2.9-15.5-1.8-23.2Zm218 43c2.5 1.8 7.2-9.1 7.7-10.8 3.9-12.8 1.6-30.1-13.7-32.2.5 7.4-2.8 16.2-1.9 23.4.3 2.7 6.4 18.5 7.9 19.6m-148.2 10.2c1.4.8 4.8 8.6 9.5 11 11.1 5.8 20.2-6.4 20.7-16.7.8-13.7-7.2-7.7-16.5-8.6-8.4-.8-15-4.8-21.8-9.2-5.5-3.5-13.6-14.6-14.7-1.4-.5 5.1 1.4 7.5 1.8 11.2s-2 5.9.5 10.7c4.8 9.3 18 1.3 20.7 2.8zm93.1-31.1c-2.1-1.5-19.7 12.7-23.9 14.4-2.3 1-7.9 2.3-10.5 2.5-10.5.9-18.8-5.4-16.4 11.4 1 7.3 7.9 15.8 16 15.1 9.4-.8 11.9-11.6 14.6-12.4 4-1.3 12.3 5.7 18.9-1.1 4.3-4.4 1.3-8.4 1.5-12.5 0-2.3 1.9-4.8 2-8.1 0-1.9-.8-8.5-2.2-9.4Z" class="outline shading" data-original-prefix="shading" opacity="0.5" style="opacity: 0.5"/><path id="shading-mouth1" fill="#aaaaaa" d="M1041 1343c6.1.5 12.7-1 17.5-5 1.5-1.3.9-3.7 2.8-2.9 10.1 7.9 37.9 17.4 43.8 28.2 3.6 6.5 4.6 17.5-1.8 22.6-5.6 4.5-20.8 10.8-28 15-4.9 2.8-9.7 6.6-14.7 9.3-7.4 4.1-25.5 14.5-32.6 16.4-2.9.8-5.2.8-8.1 0-14.5-3.8-42.2-22.5-56.3-30.7-6.2-3.6-21.2-9.1-23.2-15.8-5.5-18.4 15.7-28.3 28.7-35.4 2.3-1.2 15.5-8.6 16.5-8.7 2.9-.3 4.2 2.9 6.7 4.2 4.2 2.3 10 3.2 14.7 2.8-.3-5.1-3.3-11.3-1.8-16.3.5-1.6 12.5-13.9 14.5-14.4 3.9-1 8.2-.3 11.6 1.9 1 .7 10.8 11.1 11.2 11.8 2.1 5-1.2 11.8-1.5 17" class="outline shading" data-original-prefix="shading" opacity="0.5" style="opacity: 0.5"/><path id="outline-mouth3" fill="#000000" d="M889 1333c-13.5 7.3-27.4 9.4-38 21.5-7.1 8.2-19.1 26.1-18 37 .3 3.5 7.3 25.1 9.2 27.8 2.7 4 6.1 4.9 10.8 4.7-1.4-9 4.2-18.1 9.6-24.9 2.1-2.6 22-22.5 24.4-20.1-1.7 6.5-8.8 10.4-13 15.5-8.1 10-12.3 23.6-9.5 36.5 1.2 5.7 11 25.8 15 30 .7.7 7.1 6.3 7.5 6.5 3 1.5 6.9-6.1 7.8-8.2 1.7-3.8 2.1-7.7 3.7-11.3 4.4-10.2 9.4-18.4 18.5-25-5.1 13.9-9.5 44.6 1.5 56.1 4.8 5 9.9 2.7 14.3 4.7 2.8 1.3 3 5.7 4.8 6.1 2.6.6 7.2-4.9 14.1-2.1 5.2 2.1 8.6 15.6 13.9 16.1 2.5.2 10.2-12 18.4-9.4 5.6 1.8 19.1 24.8 24.4 23.5 6.1-5.4 3.7-12.4 5-19 1-4.8 6.1-10.3 7.8-15.2 3.7-10.9 1-26.5-1.9-37.5-.3-1.1-6.2-13.2-6.9-14.1-3.8-5.5-20.6-13-23-3.1-.4 1.8.2 7.9-2 7-4.8-4.4-9.5-9.2-14.5-13.5-3.8-3.3-11.2-7.6-14-11-3.5-4.3-14.5-27.1-14.7-32.2 0-3.1 8.4-13.8 10.8-16.8 1.4-1.7 10.5-12.5 11.2-12.8 6.4-3.2 28-2.3 34.7.8 8.4 3.8 12.4 12.1 18.5 17.5 5.2 4.5 2.5-1.7 2.5-3.6s.9-3.2.8-4.8c-.2-5.4-6.7-9.2-9.9-13.1-2-2.4-5.5-6.3-7-8.3-1.2-1.7-5.1-7.9-4.8-9.5.4-2.6 11.3-13.4 12.9-11.7-4.4 12.8-.7 8.7 7.3 12.2 1.2.5 3 2.7 3.2 2.7s2-2.2 3.2-2.7c3.4-1.5 9.7-.4 9.3-5.6 0-1.1-4.1-7.6-.5-6.6 2.8.8 12.1 10 11.3 13.2-6.2 9.4-13.5 17.8-21.1 26l-.8 12.7c1.7.4 2-.7 3-1.5 9.5-7.3 13.4-18 27.5-19.5 5.1-.6 23.6-.6 27.2 2.3 3.2 6.4 21.2 22.7 21 29 0 3.4-6.3 16.9-8.2 20.7-6.8 13.3-9.3 12.6-19.5 21.5-5.3 4.6-10.4 9.6-15.5 14.5-2.2.9-1.4-5.6-2.2-7.7-3.4-8.6-19-1.6-22.7 3.8-.6.9-6.2 11.4-6.6 12.4-1.3 3.6-.5 6.5-1.2 9.8-2.6 12.3-5.2 19.6.2 32.2 1.5 3.5 4.6 6.8 5.8 10.2 2.4 7.1-.8 16.6 6.6 21.1 8.3-2.8 16.9-21.3 23.6-23.5 7.7-2.4 15.9 9.6 18.4 9.4 5.6-.5 9.4-18.8 18.7-17.4 2.2.3 8.4 3.7 9.4 3.5 1.7-.4 2-4.9 4.8-6.2 3.9-1.8 8.9 0 13.3-3.7 11.5-9.9 8.1-43 2.5-56 1.6-1.6 11.3 10.4 12.4 12.1 4.9 7.6 6.1 15.6 9.7 23.3 1 2.1 4.8 9.8 7.8 8.2.4-.2 6.9-5.8 7.6-6.5 7.1-7.7 15.9-30.1 15.4-40.5-1-22.4-10.8-22.9-21.5-37.5-5.3-7.2 2.8-2.4 6 0 11.8 8.6 28 25.5 26.5 41 11.4 1.6 13.7-11.7 16.3-20.2 4.6-15.6 5.3-18.8-3.1-33.4-7.4-13-16.3-22.7-29.9-29.1-6-2.8-14.1-4.1-19.2-8.3 9.3.7 19.7 2.8 29.2 5.3 7.4 1.9 14.4 3.9 20.7 8.3 3.2 9.3 27.6 34.6 28 42 .2 3.9-8.4 23-10.2 28.7-2.4 7.4-1.3 15.8-9 20-2.1 1.1-8.8 2.4-9.5 3-3.6 3.6-1.9 26-2.2 32.3-1.2 29.7-2.2 52.7-20.5 77.5-.9 1.2-2.6 1.5-3.6 2.7-4.3 5.6-2.8 18.6-4.3 26.5-1.1 6-5 13.1-5.6 18.4-.4 3.6 1.4 7.3.2 10.1-1 2.4-9.9 8-12.6 9.5-2.2 1.2-5.7 1.5-6.5 2-.6.4-5.4 10.9-7.2 13.3-2.1 2.7-11.1 11.3-14 12.1-4.1 1.2-7.9-10.3-9.9-13s-2.3 2.3-3.6 4.3c-4.3 6.7-25.1 26.6-32.4 28.6-1.7.5-3.3.7-5 .5-.2-6.5 3.6-11.9-3-16.5-7.6-5.2-17.7 0-21.5 7.4-4.2 8.3-1.8 29.9-14.4 16.5-7.1-7.5-13-17.8-18.5-26.4-2.8 5-19.9 30.6-24 31-5.8.6-5.9-11.5-7.2-15.8-2.5-8.5-10.5-17.7-20-14.4-12.1 4.1-4.7 16.7-6.3 18.2-6 1.1-9.7-4.5-15-5-1.3 6.3-5.2 11.9-5.1 18.5.2 11.2 13.9 23.7 10.9 33.8-.8 2.7-3.4 3.2-5.5 1.4-3.7-3.3-7.9-17.8-10.4-23.1-3.8-8-11.3-14.9-9.4-23.7 1-4.7 7.9-13.9 7.6-17.4-.5-5.3-12.8-12.5-12-18.6-1.2-.2-1.3-.3-2.1.6-2.1 2.7-6.2 14.3-10.2 13.3s-12-10.2-13.7-12.4c-2.1-2.7-6.6-12.8-7.2-13.2-.7-.5-4.2-.8-6.5-2-2.5-1.3-12.6-7.8-13.2-9.9s1.2-6.2.8-9.7c-.6-5.1-4.5-11.5-5.6-17.4-1.7-8.4.3-19.9-3.9-26.1-5.9-8.8-10.5-12.8-15.3-23.7-13.6-31.3-7.5-52.3-10.1-83.9-.8-9.9-3.8-5.3-10.8-9.3-8.2-4.6-6.8-13.1-9.3-20.7-1.9-5.9-9.7-21.8-10-26.1-.2-3.3 1.1-4.7 2.5-7.3 6.8-12.4 18.9-24.3 26.1-36.9 5.9-4.3 13.2-6 20.1-7.9 9.7-2.6 19.8-4.7 29.2-5.3Zm15 128c-1.4-1.5-7.8 8.9-8.4 10.1-10.6 19.9-8.6 50.8-1.8 71.7 1.1 3.3 9.4 22.1 12.8 21.2 4.4-1.1 10.8-28.9 12.8-34.3 4.3-11.7 13.6-22.1 8.6-35.6-4.8-.6-12.2 1.2-15.9-2.9-1.4-1.5-8.5-21.7-8.8-24s.8-4 .8-6.2Zm240 103c.6-.4 6.8-10.5 7.5-12 6.2-12 8.8-32.9 9.5-46.5.8-15.3-4.1-32.2-14.6-43.5l-2.2 9.8c-4.9 13.6-4.6 25.2-23.1 22.4-5.2 13.7 4.3 23.9 8.6 35.6 3.1 8.4 6 27.5 11.8 33.2.7.7 1.4 1.8 2.4 1.1Zm-262.3-85.7c-1-.9-4.6-2-6.6-3.9-4.2-3.9-7.8-13.1-14-4.7-13.3 17.9-4.1 44.9 7 61.7 1.6 2.4 11.5 15.7 13.3 15.7.5-8 1.2-16.5.5-24.5-.4-5.4-3.1-12.3-3.1-18s6-23.3 2.8-26.2ZM1167 1547c1.7.4 2-.5 3-1.5 17.5-18 32.6-50.9 18.4-74.4-6.5-10.8-10.8-.4-16.9 4.9-2 1.7-5 1.6-5.5 4.5-.8 4.5 4 18.3 4 24s-3.3 14.8-3.6 21.2 1.6 14.6.6 21.3m-219.1-51.9c-4.7-3.3-6.5 7.1-7.7 9.6-5.3 11-11.8 23-12.2 35.8-.2 7.6 10.5 26.2 19.1 21 3-1.8 4.7-18 5-22 .4-6.4.2-41.4-4.1-44.4Zm67.8 32.2c-3.2-2.8-9.7 3.2-15.8 1.3-2.1-.7-8.7-7.5-10.5-9.5-2.6-2.9-3.4-8.8-8.2-7.4-12.2 3.5-20.5 24.1-21.2 35.9-.9 13.6 2.4 21.7 11.5 31.5 9.8 10.4 24 15.7 36.1 23h2.3c2.1-6.4 6.2-12 8.1-18.4 3.7-12.2 7.9-47.3-2.3-56.2zm23.4 74.6c1.1.7 3.4 0 4.6-.7 5.6-2.4 20.1-11.1 25.2-14.8 13.4-9.8 21.4-21.7 20.1-38.9-.9-11.9-9.2-33-22-36.1-4.4-1.1-5.5 5-8 8-1.7 1.9-7.3 7.9-9.2 8.8-9.2 4-14.3-9-20 5-5.4 13.2-2.6 37.5 1.5 51.1.7 2.2 7.1 17.1 7.9 17.6ZM885 1559c-3.2-3.3-6.4 8.4-5.8 12.3.7 4.5 5.4 23.4 7 27 1 2.2 6.2 8.5 8.7 6.7 3.4-2.4 3.2-20.7 4-25.4-.5-3.1-8.3-6.1-11-10-2.3-3.5-2.6-10.1-3-10.5Zm32 4c-1.9-2.2-11.8 12.5-12.4 14.1-1.7 4.6-3 25.2-2.4 30.3.9 7.9 5.6 18 11.4 23.6 1.4-8.8 5-18.6 5.5-27.5.8-13.1-3.7-27.1-2-40.5Zm218 68c7.1-5.4 12.1-18.8 11.8-27.5 0-2.6-1.7-5.2-1.8-8-.3-5.4.8-12.5-.5-17.5-.6-2.3-10.4-17.3-12.5-15 1.5 13.8-3.1 28-2 41.5.7 8.7 4.6 17.6 5.1 26.5Zm-35-62c-2.8 14.2-8.1 27.9-9 42.5-.3 5.3-1.4 33.3 3.6 34.4 2.4.6 18.8-13.3 20.9-15.9 8.3-10.5 3.8-32.3-1-44-1.2-2.9-11-19.9-14.5-17m-82 44c-3.5 0-6.1 2.5-9.6 2.9-12.7 1.6-29.1-13.9-41.4-16.9v24.5c0 .6 3.2 8.2 4.1 8.9 6.5 5.2 18.9-.4 24.4 5.6 2.6 2.9 4.3 10.3 10.6 5.5 1.1-.8 11.9-13.1 11.9-14.1v-16.5Zm64-13c-13.2 1.2-27.8 17.6-41.4 15.9-3.5-.4-6.1-3-9.6-2.9v17.5c0 1.1 13 14.6 15.4 14.5 4.9-.3 5.1-4.7 7.1-7 5.5-6 18.3-.4 24.4-5.6 1-.9 4-9.7 4-11v-21.5Z" class="outline" data-original-prefix="outline"/><path id="outline-mouth2" fill="#000000" d="M1122 1332c-.2 0 .2 1.6 0 1.9-1 .8-8.1-5.8-10.2-7.1-10-6.1-19.8-8.3-31.2-9.8-2.9-.4-6.9.7-9.5-.5-1.5-.8-4.5-7.4-6.5-9.5-7.8-8.7-15.6-10.2-25.8-13-1.1-.3-.6-1.9-.7-2 3.1-3.8 16.2-9.3 20.8-9.8 7.9-.9 5.5 4.4 6.5 9.1 2.3 10.7 9.3 19.6 21.3 18.8 5.1-.3 5.6-4 7.9-4.1 1.4 0 6.6 2.9 8.2 3.8 9.4 5.2 15 12.5 19.3 22.2z" class="outline" data-original-prefix="outline"/><path id="outline-mouth1" fill="#000000" d="M1011 1292s.4 1.7-.7 2c-10.2 2.8-17.4 4.1-25.4 12.5-2 2.1-5.6 9.2-7.2 9.9-3.4 1.4-13.5 1-18.1 1.8-12.5 2.1-23.6 8.7-33.1 16.9.2-.9-.5-2.8-.5-3 .7-2.3 8.9-13.5 11-15.5 2.4-2.4 14.7-10.5 17.6-10.4s3 5.1 11.9 3.9c10-1.3 16.2-10.1 17.5-19.6.4-2.6-2.4-6.7 2.8-8.2 3.5-1 21.7 5.6 24.3 9.8Z" class="outline" data-original-prefix="outline"/>
    </g><g class="trait-group" data-category="eyes" id="eyes-aviators">
      <!-- Semantic Classes:
    - fill: Areas that can be colored by the user (default: white)
    - shading: Areas that provide depth/shading (default: gray, 50% opacity)
    - outline: Lines that define the shape (default: black)
  -->
  
  
  <path id="fill-eyes-main" d="M1421.5,1220.6c-.3.6-8.8,2-10.4,2.1-4.8.4-15.8-1.8-18,3-2.8,30-4.2,58.5-16.7,86.3-10.3,23-35.2,57.7-58.2,68.8-30,14.6-98,10-129.5-.9-21.7-7.5-62.4-49.9-79.2-67.8-14.7-15.6-36.7-38.2-49-55-2.3-3.1-2.7-8.1-3-8.5-1-1-6.2,1.2-7.9.5-.6-.3-9.2-8-10-9-4.5-5.8-2.4-10.3-12.6-9.6-6.6.5-5.5,5.8-9.5,10.5-.9,1-8.4,7.8-8.9,8-4,1.5-8.1-3.5-15.1,4-18.2,19.5-35.3,41.4-53.9,61.1-19.6,20.7-56.2,59.4-82.8,67.2-31.3,9.1-92.1,13.6-121.9.5-28.7-12.7-59.2-59.7-67.8-89.2-6.3-21.6-6.6-45.2-9.7-67.3-2-3.1-15.1-2.3-19.2-2.8-1.7-.2-7.5-1.2-8.4-2.1-2.5-2.5-2.8-27.2-4.3-32.3-.2-1.4.3-1.4,1.3-1.8,5.7-2.5,20.8-1.6,25.3-5.7,6-11.4,9.3-26.8,19.4-35.6,2.6-2.2,6.7-2.1,4.6-5.5-2.7-4.3-20,0-21.5-7.5-1.3-6.8,5.7-32,8-39.9,7.8-26.3,27.3-70.8,46.9-90.1,6.5-6.4,7.6-3.2,14.5-4.5,3.3-.6,5.3-6.7,7.5-9.5,40.7-50.5,92.3-93.3,151.6-120.4,80.5-36.8,209.6-37,290-.3,59.2,27,110.4,69.5,151.3,119.7,2.3,2.8,5.7,9.9,8.6,10.5,7.2,1.4,8.7-2.3,15.5,4.5,24.3,24,47.4,83.1,53.5,116.5.6,3.2,2,10.7,1.4,13.5-1.6,8.2-20.9,1.9-22.8,8.2-1.9,6.2,5.4,12.9,8.3,18.3,2.4,4.4,8.1,20.4,9.9,22.1,4.7,4.2,23.9,4.2,25.1,5.9,1.8,11.6-1.8,22.9-2.4,34.1" class="fill" fill="#ffffff"/>
  <path id="fill-eyes-rims" d="M1415.7,1206.8c-.2-3-.4-6.1-.6-9.1-.3-5.7-4.5-10.5-10.5-10.5h-6.3c-1.2,0-2.4.2-3.4.5-.9-.3-1.9-.6-2.9-.8-2.3-.3-4.7-.3-7.1,0,2-23.3-16.1-42.7-36.1-51.8-11-5-22.6-8-34.3-11.1-12.5-3.2-24.9-6.7-37.4-9.7-8.8-2.2-17.6-3.5-26.5-4.3,2.5-6.2-.6-14.9-9.3-14.9-85.4,0-170.8.3-256.2.4h-68.7c-1-.3-2.2-.5-3.5-.5h-104.7c-9.6,0-12.4,10.7-8.3,16.8-10.3,1.4-20.6,3.2-30.8,5.2-24.8,4.8-50.1,10.3-72.3,22.8-11.9,6.7-23.7,15.6-30.8,27.5-2.9,4.9-4.7,10.2-5.6,15.7-1.1-.2-2.3-.4-3.6-.3-3.6.2-6.7,2.1-8.5,4.8-1.5-.2-2.9,0-4.3.2-2.5-1.2-5.4-1.6-7.8-1-6,1.7-8.2,7.3-7.3,12.9.7,4.2,1.3,8.4,1.9,12.7.7,4.6,5.9,7.6,10.1,7.7h3.6c3.3,1.9,5.7,5,7.4,8.5,1.3,2.7,3.9,4.3,6.7,4.9,4.4,36.9,9.5,75.8,31.7,106.7,21.4,29.8,54.4,44.8,90.2,48.7,18.6,2,37.9,1.2,56-3.7,16.9-4.5,32.8-12.5,47.3-22.2,14.8-9.9,28.4-21.5,41.3-33.7s25.6-24.8,36.6-38.7c12.9-16.2,23.6-34,29.3-54,5-17.3,6.2-35.5,4.1-53.3,14.6-1.9,29.3-3.3,44-2.5,4,.2,8,.6,12,1.3.3,0,1.7.3,3.2.7l-1.4,29.7c-.2,3.2.9,5.6,2.6,7.2,2.2,11.9,4.2,24.9,10,35.4,3.2,5.7,7.2,11.1,10.9,16.5,2.2,3.3,4.4,7,6.9,10.4,0,1.6.5,3.2,1.5,4.6,10.8,14.4,24.5,25.8,37.8,37.7,13.4,12,26.5,24.7,41.2,35.2,27,19.4,60.3,29.7,93.5,29.9,2.9,0,5.2-.9,6.9-2.5,15.4-1.6,31-3.4,45.7-8.6,16.6-5.8,29.9-15.5,40.5-29.5,21.2-28,34.4-62.2,39-96.9,1.3-10,2-20,1.8-30.1,0-2.2,0-4.4-.2-6.6.2.2.5.3.8.5,5.8,3.5,13.2,3.4,18.9,0,2.8-1.8,5.2-5.4,5-9v.2h0ZM951.2,1270c-9.4,13.1-20.7,24.8-32.2,36.1-11.2,11-22.7,21.8-35.2,31.3-12.2,9.3-25.6,17.9-39.9,23.4-15.8,6.1-32,8.6-48.8,8.2-29.5-.6-60.2-9.5-80.7-31.8-26-28.3-30.8-69.3-35.2-105.8-.2-1.9-.8-3.7-1.7-5.3.2-1.5.2-3,0-4.5-.5-3.1-1.1-6.2-1.6-9.3,6-9.2,2.6-20,6.1-29.9,3.1-8.9,11.3-15.5,18.9-20.5,19.3-12.7,42.2-18.1,64.5-22.8,48.7-10.1,100.1-15.6,149.1-4,20.8,4.9,43.5,13.1,54.7,32.6,1,1.8,2.4,3.1,3.8,3.9-.5,1.9-.6,3.9-.2,5.6,6.7,33.2-2.3,65.8-21.6,92.8M1062,1160.3c-.3,1-.5,1.9-.5,2.8-4.3-1.2-9.1-1.7-13.3-2.2-19.8-2.5-39.7-.2-59.4,2.5.2-1.9-.2-3.9-1.4-6-11.7-20.4-32.8-32.1-54.6-38.9l-6-1.8c66.8,0,133.6-.2,200.3-.3-1.7.4-3.3.8-5,1.3-12.5,3.6-24.6,9.6-35.9,16-10.9,6.1-20.3,14.3-24.2,26.6M1370,1227.4c0,9.5-.8,19.1-2.4,28.5-3.2,18.9-9.2,37.2-18,54.2-8.1,15.6-17.6,32.9-33,42.2-16.3,9.9-36.1,12-54.7,13.9-2.3.2-4.4,1-6.2,2.2-29.3-.5-57.7-9.9-81.5-27-1.4-1-2.8-2-4.1-3.1-1.1-3.4-3.9-6.2-8.2-6.7-8.4-7.2-16.4-14.9-24.6-22.2-10.4-9.3-21.8-18.2-30.9-28.9,0-2.9-.8-5.7-3-7.5-4.3-3.5-7-8.9-10.1-13.5-3.3-4.9-6.9-9.8-9.9-14.9-2.6-4.6-3.4-10-4.6-15.1-1.5-6.5-2.9-13.1-4.2-19.6-.2-.7-.4-1.4-.7-2.1.7-10,1.8-20.3,1.3-30.2,0-1.8-.4-3.4-.9-4.8,3.4-.6,6.5-2.9,7.9-7.1,2.3-7.2,9.6-11.4,15.8-14.8,8.9-4.9,18.1-9.6,27.8-12.6,21.1-6.6,44.6-6.7,66.4-7.6,11.4-.5,22.7-.7,34.1-.8,11.3,0,22.7,0,33.9,2,11.3,2.1,22.4,5.4,33.6,8.3,10.4,2.7,21,5.3,31.3,8.3,17.9,5.3,40.8,16.5,38.6,38.8-.4,4.1,2.5,7.7,6.1,9.4l-.6,1.5c-1.5,4.5,0,9.9.3,14.6.5,5,.6,9.8.5,14.6" class="fill" fill="#ffffff"/>
  <path id="fill-eyes-lens1" d="M1179.4,1134.1c40.9-2.7,97.1,4.9,136.2,17.2,22.2,7,37.6,14.4,44.9,38.1,14.9,48.3-2.6,130.7-47,159.8-31.6,20.8-93.5,20.9-124.8-1-21.1-14.8-46.4-35.3-63.6-54.4-29.9-33.2-63.5-74-40-121,15.1-30.3,63.8-36.7,94.3-38.7" class="fill" fill="#ffffff"/>
  <path id="fill-eyes-lens2" d="M834.5,1134.1c35.7-1.8,110.2,1.6,129,37.4,25.1,47.6-10.3,90.4-40.8,123.8-16.7,18.3-57.6,53.5-80,62-40.4,15.3-96.8,9.2-126-25-28.6-33.3-50.7-133.3-14.9-165.9,21.7-19.9,102.6-30.8,132.7-32.3" class="fill" fill="#ffffff"/>
  <g id="eyes-shaded">
    <path id="shading-eyes16" d="M1263,1369l77.9-202.4-35.9-17.6-86.3,216.8c-7.7-3.2-18.2-4.6-25.4-8.6-1.1-.6-2.3-.9-2.1-2.5l83.8-214.1,3.1-1.1c-.8-.4-.7-1.8-1.3-2.2-2.8-2.2-33.1-5.4-39.2-6.2-13.5-1.9-25.5-2.1-39-6-1.4-.4-3.1,0-3.4-2,34.4-1.4,68.6,1.9,102.2,9.3,60.3,13.2,86.9,33.8,81.8,100.2-4.3,56.4-23.6,106.8-78.8,129.2-12.1,4.8-24.6,6.4-37.4,7.2" class="shading" fill="#aaaaaa" style="opacity: 0.5" opacity="0.5"/>
    <path id="shading-eyes15" d="M1068,1185c4.4,6.7-1.2,7.5-2,11.5-2.6,13.5,4.2,36.9,3.5,51.4,26.1,33.1,54.5,68.2,87.6,94.4,9.4,7.5,24.7,19.5,35,25,22,11.8,82.3,10.8,107.3,6.4,5.1-.9,19.6-6.7,22.7-3.4,3.6,3.9-1.3,5.4-4,7-23.1,13.8-56.4,9.4-82.5,7.5-12.8-.9-39-2.2-50.2-5.8-8-2.6-29.2-21.2-36.3-27.7-26.1-23.9-48.5-51.5-74-76-13.8-13.2-29.1-24.5-42.5-38.5-1.1-1.2-2-3.4-2.9-4.1-.8-.6-7.7-1-9-.9-2,.2-17,17.3-20.5,20.5-7.2,6.4-16.1,11.4-23,17.9-33.4,31.5-60.8,69.3-97.5,97.5-19.5,15-31,13.9-55,16-22.9,2-62,6.4-83-1-2.1-.7-15.4-7.1-16-8-2.2-3.6,1.6-6.1,4.9-6,3.6,0,7.3,2.8,10.6,3.5,28.8,6.1,75.6,6.2,104.3-.8,9.4-2.3,18.7-9.8,26.7-15.3,26.6-18.6,50-41.2,71.6-65.4,5.6-6.2,34.7-40.5,35.4-45.6,2.3-15,1.5-32.7,3.1-48,.5-3.2-3.9-4.3-4.1-7-.2-2.5,2.2-3.2,2.1-5.4-4.5.8-11-4.6-6.6-8.1,3.7-2.9,4.7,2.1,7.3,2.9,5.5,1.7,7-1.6,10.8-2.8,29.1-9.3,36-9.4,65.1,0,3.7,1.2,5.2,4.5,10.8,2.8,2.2-.7,3.1-4.4,6-3.7,5.7,1.9,0,10.6-5.7,9.2M1038,1185c-9.5-1.8-18.7-3-28,.5,5.4,1.1,7.7,5.6,9.3,10.7,1.5,4.7-1.1,8.7,6.2,7.9,2.9-.3,2.4-5.8,3.4-8.6.6-1.7,2.2-5.7,3.2-6.8,2-2.5,4.8-1.4,5.9-3.7M1053,1197c-.2,0,0,1.8-1,2.4-7.9,5.8-11.5,9.7-21.5,9.6-5.1,0-8.6-.2-13.9,0-11.1.4-14.8-6.6-23.5-12.1l-3,30c2,2,17.7-4.1,21.5-4.1,5.8,0,8.3,4.7,16.8,2.9,1.8-.4,3.2-1.9,4.7-2.3,7.2-2,17.2,4.9,25,3.5l-3-29.5c0-.8-2-.5-2.1-.4" class="shading" fill="#aaaaaa" style="opacity: 0.5" opacity="0.5"/>
    <path id="shading-eyes14" d="M1119,1095c10.8-7.5,22.7-13.9,34.3-20.2,23.5-12.8,49.4-20.6,66.1-41.9,11.6-14.8,20.3-27.2,12.4-46.3-12.8-31.1-52.4-80.9-79.9-100-14.9-10.4-32.6-16.6-45.9-29.1,9.3.7,20.3,4.3,29.5,7.5,66.1,22.7,136.7,74.8,177.9,131.1,2.8,3.8,12.4,14.4,8.3,18.7-3.2,3.3-25.6,8.5-31.7,10.8-38.2,14.4-82.4,31.5-116.9,53.1-3.8,2.4-21.2,16.4-22.6,16.4h-31.5Z" class="shading" fill="#aaaaaa" style="opacity: 0.5" opacity="0.5"/>
    <path id="shading-eyes13" d="M897.5,1095c-1.5-.4-19.2-14.3-23.2-16.8-34.2-21.3-79.2-38.9-117-53-5.4-2-30-7.6-31.8-11.2-1.9-3.9,2.8-9.6,5.1-12.9,27.2-39.7,72-78.2,113.1-102.9,30.2-18.2,63.6-34.2,98.3-41.2-12,12.1-28.8,18.2-42.9,27.6-25.1,16.6-49.7,46.7-66.1,71.9-4.3,6.6-20.6,33.7-20.8,40-.5,14.1,11,30.6,19.9,41,15.3,17.9,40.9,24.1,60.6,36.4l36.3,21.1c-8.1-1.5-24.5,2-31.5,0" class="shading" fill="#aaaaaa" style="opacity: 0.5" opacity="0.5"/>
    <path id="shading-eyes12" d="M875.3,1338.3c-4.1,3.7-6.6,10.1-9.4,13.1-1.1,1.2-9.2,6.5-7.7,1.3l79.9-204.7c2.3-1.9,13.8,7.4,16,9.4,16.1,14.9,20.1,37.7,17.9,58.9-3.8,35.8-44.3,79.1-70.9,102.1-8,7-18.5,13.3-25.8,19.9" class="shading" fill="#aaaaaa" style="opacity: 0.5" opacity="0.5"/>
    <path id="shading-eyes11" d="M778.5,1369c-.7-.2-1.6-1.6-1.5-2.5l91.7-234.6c9.8,2.2,20.1,2.1,29.9,4.1,1.2.2,1.8-.8,1.5,1.5l-91.6,231.5c-5.9,0-26.2,1.2-30,0" class="shading" fill="#aaaaaa" style="opacity: 0.5" opacity="0.5"/>
    <path id="shading-eyes10" d="M1173,1133l-63.5,147c-.8,0-9.2-10.7-10.5-12.5-6.1-8.5-13.4-18.9-17-29-7.5-20.7-9.4-43.8,0-64.2,15.6-34.6,58.3-36.5,91.1-41.3h0Z" class="shading" fill="#aaaaaa" style="opacity: 0.5" opacity="0.5"/>
    <path id="shading-eyes9" d="M1254.8,1109.8c-.2.4-7.5,3.9-8.3,4.2-7,2.4-26.3.2-35,0-34.8-1-70.2-1.7-105-2-20.2-.2-40.1,1-60,1-70.4,0-140.6-1.1-211.1,1-8.6.3-27,2.4-34,0-.8-.3-8-3.8-8.3-4.2-.7-1.2-.4-6.1.8-7.4,3.3-3.4,9.3.3,13.5.6,27.4,1.9,59.2,1.5,87,2,89.1,1.7,177.1.6,266-1.1,25.9-.5,54.5.8,80.1-.9,3.7-.3,11.5-4.2,14,0,.7,1.3,1,5.9.3,6.9h0Z" class="shading" fill="#aaaaaa" style="opacity: 0.5" opacity="0.5"/>
    <path id="shading-eyes8" d="M768,1115c.3,1.4-1.1,1.1-2.2,1.3-18.2,4.5-36.7,6.8-55,12-5.2,1.5-14.4,6.4-18.8,5.3-3.5-.9-8.9-4.9-12.3-6.7-1.4-.7-7.4-2.5-7.7-2.8-1.4-1.9,3.7-3.1,4.9-4.6,4.7-5.7,8.4-20.1,13.3-26.7,1.1-1.5,1.3-2.2,3.4-2.6,4-.8,27.7-.5,31.5.4l42.9,24.4h0Z" class="shading" fill="#aaaaaa" style="opacity: 0.5" opacity="0.5"/>
    <path id="shading-eyes7" d="M1376,1124c-.3.4-6.9,2.3-8.4,3.1-3.3,1.7-8.2,5.5-11.6,6.4-4.4,1.2-13.6-3.8-18.8-5.3-18.3-5.2-36.4-7.3-54.4-11.6-1-.2-3-.3-2.8-1.7l42.7-24.8c5.9.5,30.6-1.8,33.8.8,4.6,3.8,9.2,22.8,14.6,28.4,1.3,1.4,6.2,2.9,4.9,4.7" class="shading" fill="#aaaaaa" style="opacity: 0.5" opacity="0.5"/>
    <path id="shading-eyes6" d="M1075,1141c1.6-3.5,12.5-25.6,14-26.5,1.9-1.1,14.6-1.1,16.1.9,6.7,8.5-8.9,12.6-13.8,15.4l-16.3,10.2h0Z" class="shading" fill="#aaaaaa" style="opacity: 0.5" opacity="0.5"/>
    <path id="shading-eyes5" d="M945,856c.7.3-.6,1.7-2,1-.7-.4.6-1.7,2-1" class="shading" fill="#aaaaaa" style="opacity: 0.5" opacity="0.5"/>
    <path id="shading-eyes4" d="M1105,856c.7.3-.6,1.7-2,1-.7-.4.6-1.7,2-1" class="shading" fill="#aaaaaa" style="opacity: 0.5" opacity="0.5"/>
    <path id="shading-eyes3" d="M958.8,1114.2c1.4.8,13,24.2,14.7,27.8-3.8-2.6-7.3-5.4-11.2-7.8-3.7-2.2-18.8-9-19.8-11.2-1-2.3-1.1-7.2,1.5-8.5,1.5-.7,13.7-.9,14.8-.3" class="shading" fill="#aaaaaa" style="opacity: 0.5" opacity="0.5"/>
    <path id="shading-eyes2" d="M853,1123c0,1.5-2.5,1.6-3.6,1.9-23.2,6.6-47.2,5.9-70.6,10.4-7.2,1.4-8.4.3-8.5,8.4-21.2,48.4-48.3,94.5-69.1,143-2.7,6.2-7.1,16.1-6.1,22.8.6,4.2,9.6,17.5,12.5,21.5,3.7,5,9.7,9.4,11.9,15.1-24.6-17.6-39-48.9-45-77.9-13.8-66.2-11-111.9,60.3-131.8,38.3-10.7,78.5-14.6,118.2-13.4" class="shading" fill="#aaaaaa" style="opacity: 0.5" opacity="0.5"/>
    <path id="shading-eyes1" d="M721.5,1346c.7.3.7.7,0,1v-1Z" class="shading" fill="#aaaaaa" style="opacity: 0.5" opacity="0.5"/>
  </g>
  <g id="outline-eyes" class="outline" fill="#000000">
    <path id="outline-eyes2" d="M993,1256c-1,4-2,4.8-4.5,8-14.2,18.2-34.4,39.6-50.5,56.5-17,17.9-47.1,49.2-67.7,61.3-24,14.1-91.5,17.2-118.5,11.9-29.6-5.8-47.2-25.6-64-49-25.1-35-31.7-73.2-32.8-115.7h-17.5c-.5,0-7.7-1.5-8.3-1.7-4.5-2-5.8-20.7-6.2-25.8-.3-3.7-1.6-15.3.5-17.5,3.5-3.7,22.8-2.9,26.3-6.2,1.1-1.1,2.7-8.4,3.7-10.8,3.6-8,7.8-15.8,13.5-22.5-14.5-3.8-23.3,2.8-22-17,1.8-29,22-77.6,37.6-102.4,4.3-6.9,20.8-32.7,28.8-32.1,2.1.2,3.9,2.7,5.6,1.6.5-.3,4.7-7.4,6-9,42.4-52.1,97.9-98.4,160.3-124.7,80.6-34,211.7-32.3,291,4.3,44.4,20.5,92.8,56.2,126.2,91.8,6.8,7.2,23.5,25.4,27.9,33.1,1.2,2,1.8,3.5,1.6,6,3.5-.3,5.5-3.6,9.3-2.8,1.8.3,7.3,4.8,8.8,6.3,11.7,11.9,33.9,51.3,39.6,67.4,4.9,13.6,16.7,54.3,16.1,67.4-.6,12.3-13.3,7.2-21.8,9.8-1.2,1.5,3.7,6.8,4.8,8.7,3,5.3,6.6,11.9,9.1,17.1.9,1.9,1.5,7,2.3,8,3,3.5,25,2.6,26.6,6.9.4,1.1,0,3,0,3.3l-3,34c-.5,1.2-.2,2.5-1.3,3.7-4.4,5.2-23.1,1.8-25.6,3.4-.4.3-.7,5.3-.8,6.5-.7,9.2-1,10.5-2.1,20-.2,1.5-1,7.5-2.2,14.4-7.3,46.4-41.9,113.1-92.2,123.3-27.5,5.6-95,2.9-119.5-11.1-25.2-14.4-61.4-54-81.8-76.2-11.4-12.4-29.7-31-38.9-44.1-3.2-4.5-2.7-6-3.6-10.9-3.9-20.4-3-38.7-5-58.5-.2-1.4-.8-5.7-1.5-6.5-3-3.8-26.8-4.4-32-4-3.8.3-14.8,2.1-16.1,5.9-.7,11.2-.5,22.4-1.5,33.6-.7,9.7-2.3,24.8-4.8,34.3h.1ZM797.5,1091h90.5c-10.2-9.4-23.2-15.1-33.9-23.6-1.1-.9-8.4-6.1-7.1-7.4,21.5,6.1,37.4,23.6,58.6,30.9h236c22.1-5.8,38.1-24.5,59.9-31,1,2.5-4.7,5.9-6.6,7.4-10.8,8.4-23.7,14.3-33.9,23.6h91.5c.5,0,5.1,5.2,5.7,6.3,1.5,2.9,1.8,10.4,2.4,10.8,2.4,1.4,18.4,2.4,22.7,3.1,19.7,3.2,40.8,7.2,59.8,13.2,3.1.9,12.4,5.7,14.3,5.7s14.7-7.8,18.5-8.6c1-14.6-5.9-28.1-11.9-41-3.3-7.2-7.2-15-11-22-2.4-4.5-16.1-28.6-18.6-30.4-2.9-2.1-20.6-1.2-25.1-.9-14.3.9-28.6,3.6-42.5,7-1.9-1.7,12-11.3,13.3-12.2,8.4-5.8,17.8-10.6,26.8-15.4-4.4-19.8-20.1-36-34.6-49.4-58.1-53.7-155.6-100.6-235-104-90.4-3.8-194.3,42.3-260.5,102.5-14.8,13.4-31,29.9-35.9,49.9,9,5.9,18.8,10.3,27.6,16.4,1.3.9,15.2,10.6,13.3,12.2-13.9-3.4-28.2-6.1-42.5-7-4.5-.3-22.2-1.2-25.1.9-2.5,1.8-16.2,25.9-18.6,30.4-3.8,7-7.7,14.8-11,22-5.9,12.8-13,26.6-11.9,41,3.1.7,16.9,8.6,18.4,8.5,1.6,0,11.5-5.1,14.9-6.1,26.3-8,53.9-11.8,81.1-15.7,1.2-.6.2-15.3,10.4-17.1M819,1100h-16.5c-4.4,0-4.4,9-2,9h15.5c.5,0,2.3-7.9,3-9M1223,1109c.5-4.6-1.9-7.1-6-8.5h-387c-3.9,1.8-4.8,4.8-6,8.5h399ZM1245.5,1100c-4.7-.9-11.5.6-16.5,0,.5,1.5,2.6,9,3.5,9h15c2.2,0,2.5-8.2-2-9M793.8,1117.3c-27.5,2.3-85.6,15.5-108.1,30.9-17.2,11.7-21.7,48.9-21.7,68.4-.2,51.9,12.7,106.6,51.5,143.5,34.7,33,102.4,26.3,144,10,25.7-10.1,68.2-56.5,88-78,7.7-8.4,28.7-30.1,33.4-38.6,3.5-6.4,6.5-45.2,7.1-54.9s-7.1-7.4-7.9-4.8c-.3.8,1.1,10.8.9,13.8-2.8,50.6-57.6,103.7-95.5,133.5-41.3,32.5-108.5,45.8-155.4,17.4-48.2-29.2-73.2-143.5-44.2-191.1,8.5-14,33.7-22.3,49-27.1,54.7-17.2,174-27.9,220.2,11.2,2.6,2.2,12.7,14.2,13.6,14.4.6,0,9.7-4.7,11.3-5.5-10.2-22.7-43.3-32.7-66-37.9-32.6-7.6-86.5-8-120.2-5.2M1066.9,1192.1c-.8-.5-5-.3-5.9.3-1.3.9-1,3.6-1,5.1,0,12,2.4,30.7,4.2,42.8.4,2.7.7,6.3,1.3,8.7,1.9,7.2,28.3,35.6,35,43,21.6,23.5,62.8,69.1,91.8,79.2,34.2,12,96.1,19.8,127.5-1,26.7-17.7,46.4-53.3,55.5-83.5,9.2-30.4,14.1-104.1-4.8-130.7-7.2-10.1-36.4-21.9-48.7-25.3-54.7-15.5-139.3-21-194.2-6.7-16.9,4.4-45.7,14.5-56,29-7.8,10.9.2,7.8,7.8,12.9,21.9-30.3,61.3-36.4,96.1-39.9,48.3-4.9,131.7,3.4,173.8,29.2,28.1,17.2,27.4,67.3,23.6,96.2-5.3,39.8-28.8,99.1-69.3,113.7-82.7,29.8-142.3-17-194.5-74.5-21.3-23.4-39.8-49.1-42-82-.3-2.9.9-15.8-.2-16.5M1095,1119h-141c3.5,8.3,13.6,11.1,20.5,17,7.4,6.2,13.3,14.2,19.1,21.9l58.9.2,2.9-1.1c5.2-8.5,12.3-16.7,20.2-22.8,4.7-3.6,13.8-7.5,17.3-10.7,1.2-1.1,2.3-2.8,2.1-4.5M833.8,1134.3c-30.1,1.5-110.9,12.4-132.7,32.3-35.8,32.6-13.7,132.6,14.9,165.9,29.2,34.1,85.6,40.3,126,25,22.4-8.5,63.4-43.7,80-62,30.5-33.4,65.9-76.2,40.8-123.8-18.9-35.8-93.4-39.2-129-37.4M1178.8,1134.3c-30.6,2.1-79.2,8.5-94.3,38.7-23.5,47,10.1,87.9,40,121,17.2,19.1,42.5,39.6,63.6,54.4,31.3,21.9,93.2,21.8,124.8,1,44.4-29.2,61.9-111.5,47-159.8-7.3-23.7-22.7-31.1-44.9-38.1-39.1-12.3-95.3-19.9-136.2-17.2M1072.7,1172.2c-1.2-1.1-8.5-2.6-10.5-2.9-19.1-3.4-64.9-4.5-83,1.4-3.8,1.2-5.3,1.4-5.3,5.8,0,9.1,6.6,8.9,14.2,7.1,4.5-1.1,8.5-6.5,14.1-7.9,10.5-2.6,39.3-2.8,48.5,2.1,7.3,3.9,9.2,8.3,19.8,6.2,3.5-.7,4.5-9.7,2.2-11.8M636,1196.5c-.7,2.2,0,13.5,0,17s14.9.4,18,1.5c-1-2.1,1.7-22.1.5-22-3.2,1.8-17.4,0-18.5,3.5M1412,1213.5c.8-2.7,0-13.2,0-17s-16-1.9-18.5-3.5c-1.2,0,1.5,19.9.5,22,3.9-1.3,16.8,2.8,18-1.5" class="outline" fill="#000000"/>
    <path id="outline-eyes1" d="M998,1252c11.2-12.1,21.2-29.1,19.5-46,5.4,3.1,9.1,2.3,14.5,0-2.8,10.5,3,24,8.8,32.7,1.6,2.5,10.1,11.5,10.2,12.3.6,3.3-5.9,8.9-7,8-.9-5.7-7.9-7.8-12-12.5-1.3-1.5-3.3-4.1-4.3-5.8-1.4-2.5.7-4.5-4.3-3.8-2.1.3-5,8-7.5,10.6-3.5,3.8-10.8,6.1-11,11.5-1,1-7.1-4.8-6.9-7" class="outline" fill="#000000"/>
  </g>
    </g><g class="trait-group" data-category="right ear" id="right ear-ringer">
      <defs/><path id="fill-ear-right" fill="#ffffff" d="M1679.5 565c3.1.9 34.6 44.3 40.3 49.6l-18 48.1-77.7 9.2 14.5-26c5.3-3.9 21.9-4.9 25.6-9.4 1-1.2 7.7-19.7 7-20.5l-27.9-6.9-78.4 136.6c-47 29.7-93.4 60.4-141.4 88.6-7.7 21.6-11.8 46.3-20 67.5-2.3 6-4.2 7.9-8.8 12.2-14.9 13.7-33.9 28.4-50 41-14.6 11.4-29.9 22.1-44.9 33-14.5-5-29.7-8.6-44.1-13.9-21.8-8.1-59.9-34-73.3-52.7-6.9-9.5-19.8-33.3-22.7-44.3-.6-2.2-.7-4.2-.4-6.5 26.7-58 56.9-114.5 83.5-172.5l15.2-178.8 127.2-166.8 321.3-172.7c1.7-1 2.9-.8 4.7-.3 1.3.4 16.4 8.4 17 9.1.6.6 1.1 1 .9 1.9l-15.2 124.8c-12.1 41.8-20.6 84.8-30.6 127.2.4 1.2 1.3 1.4 2.4 1.6 7.2 1.3 40.6 3.2 44 6l20.1 33.9c.7 2.2-1 16.8-1.8 19.4-.5 1.8-2.8 2.7-4.3 3.7-9.6 6.8-24.9 16.3-35.2 21.8-1.8.9-3.4 2.4-5.6 2-1.5-.2-19.7-6.9-20.3-7.8l7.6-36-13.4 1.9-18.6 76.1c5.7 1 16.6-1.4 21.5 0h-.2Z" class="fill" data-original-prefix="fill"/><path id="fill-earing-rt2" fill="#ffffff" d="M1632 663c2.4-2.2 11.2-19.2 12.2-19.8 1.1-.6 4.4 0 6.2-.3 6.6-1.2 18.3-4.3 23.1-8.9 5.7-5.5 11-17.9 4.4-24.4-5.7-5.6-29.3-7-38.1-8.9-6-1.3-21-4.1-23.7-9.3-5.1-10 5.8-20.4 15.4-20.4s39.2 3.4 51.3 7.7c8.6 3.1 25.8 23 27.2 31.8 1.7 11-9.6 35.6-19.2 41.6-14.7 9.2-41.8 11.2-58.7 10.8v.1Z" class="fill" data-original-prefix="fill"/><path id="fill-earing-rt1" fill="#ffffff" d="M1689 523c1.1-2.7 1.7-10.3 3.5-12 3.5-3.4 31.6-5.5 18.6-19.5-9.8-10.5-31.3-5.4-44.1-3-4.5.9-19.7 5.8-22.2 5.4-6.7-1.1-11.5-9.6-10.5-16.1 1.4-10 18.9-17 27.6-19.5 23-6.5 38.7-3.7 60.2 5.2 12.2 5.1 20.9 7.2 22.1 21.9 1.4 17.4-1 21.7-16.7 28.4-5.1 2.2-35.2 11.9-38.3 9.1h-.2Z" class="fill" data-original-prefix="fill"/><path id="shading-ear-rt" fill="#aaaaaa" d="M1680 253c.3 2-.2 3.9-.7 5.8-8.9 34.3-34.7 54.4-52.5 84.5-29.1 49.3-53.6 104.6-49.8 163.2.9 14.2 7.4 30 2.5 43.5-2.1 5.7-5.9 11.8-8.2 17.8-3.3 8.3-8.1 18.6-6.2 27.3 1.1 0 2.2 0 3.3-.2 11.8-2.8 35-45.1 41.2-56.8 3.6-6.8 17.1-31.1 18.2-36.8 1.6-7.5.4-20.4 1.2-28.8s1.7-12.1 9.4-15.6c7-3.2 34.9-11.7 42.3-12.7 5.3-.7 31.7.6 36.2 2.3l37.6 25.5c2 3.3-.3 15.3-.5 19.5s.2 19.5-2 22c-.9 1-21.6 11-24.7 12.3-3.2 1.4-9 4.4-12.1 4.9-9.4 1.6-20.7.8-30.3 2.7-1.6 1-7.1 26-5.8 27.4 4.9 1.1 9.8 3.7 13.9 6.6l28 46-19 47.9-1.6 1.4-68.7 12.3-65.2 66.8-139 93c-9.9 21.5-17 44.3-27.5 65.5l-94.6 85.4c-2.1 1.4-4.4 1.3-6.8 1-12.9-1.2-50.1-14.6-61.9-21.1-9.8-5.4-40.8-28-48.1-35.9-.9-1-7.6-10.7-7.6-11.4 0-1.2 1.5-2.2 1.7-3.3 2.3-11.1 3.3-13 10.3-21.7 19.1-23.8 39.7-44.9 57.8-70.2 41.9-58.5 65.7-121.7 102.8-182.2 10.9-17.8 25.9-33.1 29.3-54.7 1.5-9.4 1.1-18.9 1.1-28.4l54 6.5c10.2 14.6 18 30.7 26 46.5.8.6 11.2-11.8 12-13.4 2-4 3.6-11.5 4.9-16.1 13.4-47.4 15.6-97.8 13.1-146.9 15.8-37.5 40.7-73 68.4-102.6 22.1-23.5 61.1-47.8 89.2-64.8 5.8-3.5 17.3-10.7 22.9-13.1 1.8-.8 3.3-1.4 5.4-1.1v.2Zm-3.2 202.3c-10.3.9-27.7 5.8-35.7 12.3-6.7 5.4-2 12.4 5.4 12.5 18.8-2.7 58.3-11.5 75.3-3.2 2.6 1.3 5.3 5.6 7 6.1 5.9 1.5 5.1-11.8 2.7-14.8-1.6-2-29.3-12.3-33.2-12.8-6-.9-15.3-.5-21.5 0zM1670 502c-13.7.1-27.5 2.6-41 1l-19 64c1.8 1.7 41.1-11.8 46.8-13.2zm24 127c6.7.2 11.7-.3 14.8-6.7 3.9-8.2 2.1-11.4-2-18.6-1.6-2.8-13.7-20.5-15.3-21.7-2.4-1.9-14.5-5-18.2-5.8-9.1-2.1-36.5-6.6-44.7-4.9-13.8 2.8-3.2 15.6 4.3 19.3 23.9 11.9 71.3-6.8 61 38.5Zm-423 338c.7.7 6.6-4.2 7.5-5 18.6-15.8 38.6-36.6 55.6-54.5 13.9-14.7 30.5-30.8 39.2-48.8 6.9-14.4 12.7-29.5 18.8-44.2 14.4-5.4 29.8-7.3 44.2-12.8 53.6-20.2 101.4-63 144.7-99.3l60.5-88.5v-3l-42.4-17.9c-14.3 34.9-32.3 69.5-54.3 100.2-11.7 16.4-21 23.3-37.9 34.1-31.7 20.2-61 22-95.4 34.6-22.9 8.3-30.6 9.9-43.7 31.3-22.8 37.6-40.8 76.8-67.4 112.6-4.9 6.6-15.6 17-18.8 23.2-1.6 3.1-11.9 36.4-10.6 37.9zm388.7-352.8c-2 .6-11.3 14.7-12.2 17.8 8-3.7 19.8-1.8 22.1-12 1-4.7-6.5-6.8-9.8-5.8Z" class="outline shading" data-original-prefix="shading" opacity="0.5" style="opacity: 0.5"/><path id="outline-ear-rt1" fill="#000000" d="M1203 940c-1 2.3-3 .2-4.1-.4-11-5.7-17.6-8.7-25.3-18.7-9.8-12.8-17.3-28-27.4-40.6-.6-2.1 1.2-22 2-24.6.5-1.7 5.6-8.4 6.9-11 4.6-9 9.5-18.2 13.7-27.3 6-13.1 11.8-33.9 18.9-45 2.6-4 7.1-7.8 10-12 45.7-65.6 39.9-168 48.8-244.2 38.8-56.5 80.2-110.9 126.9-161.1 10.8-11.6 24.2-27.3 36.2-36.8 57.3-45.1 144.2-89 212.1-115.9 27.1-10.7 74.2-30.4 102-33 2-.2 4.9-.6 6.6.7 1.3.9 4.2 14.2 4.5 16.7 4.6 32 .2 83.8-2.9 116.9-.8 8.8-3.4 33.2-6.8 40.2-4.1 8.6-15.4 18.2-20 29-2.4 5.7-15.3 53.3-13.2 55.3 6.9-.5 13.4 2.2 19.7 4.8 10.6 4.4 26 13 36 19 8.9 5.4 15.7 8.8 18.1 19.9 10.8 49.3-27.4 63.5-67.4 70.1-2.4.4-13.7.8-14.3 1.2-.4.4-2.5 10.5-2.1 10.9 22.2-.6 34.2 18.8 43.2 36.3 10.9 21.4 5.9 31.6-2.7 52.6-10.4 25.3-16.7 34-44.3 39.7-18.8 3.9-38.8 4.9-58 5.5-8.2 14.6-17.6 28.4-28.2 41.3-29.3 35.5-70.2 67.2-110.3 89.7-18.8 10.5-28.8 10.7-42.1 29.9-15.2 21.8-20.8 40.5-31.1 63.9-5.5 12.6-19.7 19.4-29.9 28-9.4 7.9-16.4 16.7-25 25-4.4 4.2-22.9 23.2-26.2 24.8-20.3 10.7-52.9-3.5-72.4-12.4-4.1-1.9-11.9-5-13-9.5 24.3 10 45 11.5 68.3-1.2 45.3-24.6 93.3-80 105.3-130.7 1.9-8-1.7-7.6 6.1-13.9 24.6-19.7 60-33.5 86.6-51.4 43.1-28.9 89.9-90.1 114.2-135.8 1.5-2.8 9.9-18.5 8.5-20-13.2-.7-21-5.7-28-16.5-6.6-10.1-8.3-14.9-1.8-25.8 11.6-19.4 31.5-19.5 51.9-20.1 2.2-5.3 13.6-45.7 11.9-47.5-17.3 5.2-27.6 7.5-40-7.5-8-9.6-9.4-17-3.4-28.5 7.5-14.3 20.7-21.3 34.4-28.6 3.9-2.1 13.1-4.2 14.6-8.4 6.3-31.1 11.3-66.9 25.6-95.4 7-13.9 11.3-16.6 14.6-33.4 7.4-37.6 11.2-78 8.3-116.2-41.9 13.6-81.8 33.1-120.7 53.8-44.4 23.7-89.5 51.7-131.8 79.1-54.6 35.4-96.1 71.2-137.4 121.6-17 20.7-39.9 47.8-54.5 69.5-13.5 20.2-13.2 62.9-15.6 87.4-1.1 11-3 22-4 33-2.3 25.8-.7 63.8-9.8 87.2-8.6 22-21.8 49.2-32.3 70.7-6.5 13.3-16.1 27.1-22.1 40-6.3 13.7-9 29.6-15.7 43.3-3.2 23.3 12.8 49.9 27.9 66.4m486-417c3.2 2.8 33.2-6.9 38.3-9.1 15.7-6.7 18.1-11 16.7-28.4-1.2-14.7-9.9-16.9-22.1-21.9-21.4-8.9-37.2-11.8-60.2-5.2-8.7 2.5-26.1 9.5-27.6 19.5-.9 6.5 3.8 15 10.5 16.1 2.5.4 17.8-4.5 22.2-5.4 12.8-2.4 34.3-7.6 44.1 3 13 14.1-15 16.1-18.6 19.5-1.8 1.7-2.4 9.3-3.5 12h.2Zm-57 140c16.8.4 44-1.6 58.7-10.8 9.6-6 21-30.6 19.2-41.6-1.4-8.8-18.5-28.8-27.2-31.8-12.2-4.4-38.3-7.8-51.3-7.7-9.6 0-20.4 10.4-15.4 20.4 2.7 5.2 17.7 8 23.7 9.3 8.8 1.9 32.4 3.3 38.1 8.9 6.6 6.5 1.2 19-4.4 24.4-4.8 4.6-16.5 7.7-23.1 8.9-1.8.3-5.2-.4-6.2.3-1 .6-9.7 17.6-12.2 19.8v-.1Zm21-35c6.6 1.5 21.8-7.1 8.2-8.7-7.2-.8-7.1 2.3-8.2 8.7" class="outline" data-original-prefix="outline"/><path id="outline-ear-rt2" fill="#000000" d="m1695 240-22.5 39c-48.9 30.3-87.3 71.3-110.7 124.3-14.5 32.8-25.8 88.9-11.3 122.7 1.2 2.9 6.7 10.6 6.3 12.3-21.1 26.6-32.9 59-41.6 91.5-2.4 8.9-8.5 47.6-11.4 51.6-2.7 3.7-14.2 13.2-18.4 16.6-14.8 12-38.3 27.6-55.4 35.6-2.5 1.2-5.2 2.5-8 2.5 2.8-6.9 6.8-13.1 9.5-20 11-27.9 12.1-62.7-8-87-11.8-14.3-18.7-10.9-25.3 4.8-9.5 22.7-13.4 49.6-13.9 74-42.8 42.2-76.4 95.5-104.5 148.6-12.4 23.3-33.8 63.7-30.8 90.2.6 5.4 4.2 10.1 5 15.5-2.4 2.5-27-19-28.8-22.7l2.3-31.3c45.3-56.5 66.2-125.3 105.1-185.9 11.6-18 28.4-31.6 37.6-51.4 8.3-18 20.6-75 17.4-93.7-.7-4.3-10.6-27.8-9.6-28.9 7.5 2.8 14.7 6.9 21.7 10.8 6.4 3.6 31.7 17.7 34.8 22.2 3.4 5 10 27.9 12 35 2.3 8.3 6.6 35 11.4 39.5 13.2 12.3 30.8-13.9 36.2-23.9 25.8-47.2 33.3-96.7 25.7-150.1-1.2-8.7-7.4-28.3-6.7-35.9s16.9-39.6 21.3-47.8c22.4-41.7 46.9-64 80.1-96 8.8-8.5 21.4-24 30.5-30.5 5.6-4 14.3-6.6 20.3-10.7 3.6-2.5 26.3-23.9 29.7-20.8 0-.1 0 0 0 0Z" class="outline" data-original-prefix="outline"/>
    </g><g class="trait-group" data-category="left ear" id="left ear-safety pins">
      <path id="fill-ear-lft1" fill="#ffffff" d="M842 941c-10.4 9.8-22.1 17.8-34.1 25.4-1.2.8-2.9.9-3.5 2.5-1 .2-2 .2-2.9.5-8.9 2.6-17.5 6.5-26.8 7.1-7.3.5-14.6 1.5-21.8-1-16.3-5.7-30-15.7-43.8-25.6-2.7-1.9-6.4-3.5-7.2-6.6-.5-1.9 2.2-4.6 3.4-6.9.3-.6.6-1.2.8-1.8 4.6-15.3 4.8-30.8 1.4-46.3-1.2-5.4-5.3-9.5-10.7-9.8-15.5-.8-31.1-1.1-42.6 12.5-.5-.8-1-1.5-1.4-2.2-9.2-17-16.3-35-22.9-53.2-.3-.8-.8-1.8-.5-2.4 1.9-4.3-1-6.6-3.8-8.7s-5.7-4-8.7-5.9c-20.3-13.1-41.3-25.1-62.5-36.6-20-10.9-37.7-25-53.9-41-7.6-7.5-14.3-15.8-21.1-24-37-44.3-67.3-92.3-82.7-148.6-.7-2.6-1.3-5-.4-7.8 5.2-15.6 10.7-31.1 16.4-46.4 8.3-22.2 18.1-43.9 24.5-66.8 1.9-6.7 3.3-13.5 1.8-20.7-2.5-12.3-14.5-18.1-25.6-12.1-6.6 3.6-10.6 9.5-13.7 16.1-5.6 12.1-9.3 24.9-13.9 37.3l-6.9 18.9c-1.1-1.8-1.1-3.4-1.1-5-.3-27.4-2.2-54.5-8.7-81.3-6.9-28-13.1-56.2-29.7-80.6-1.2-1.7-1.9-3.9-2.3-6-4.9-28.2-10-56.4-11.1-85.1-.6-13.6-.4-27.2.8-41.1 16.5 5.5 32.7 10.9 48.1 17.8 42.4 19.1 83.1 41.5 123.3 64.7 25.1 14.5 49.3 30.4 73.9 45.8 48.7 30.7 93.8 65.7 131.2 110 23.4 27.8 44.7 57.2 67.6 85.4 3.6 4.4 5.6 9.7 7.2 15.2 5.9 20.2 5.9 41.1 8.1 61.7 3.3 30.5 5.7 61 7.9 91.6 1.1 15.9 1.9 31.9 10 46.5 3.6 6.5 6.6 13.5 9.6 20.3 10.8 24.5 21.4 49.2 35.1 72.3 4.8 8.1 8.5 16.5 11.4 25.4 1.6 4.9 3.7 9.6 5.4 14.5 1.9 5.5 5 10.5 5.5 16.5 1 13.1-2.8 25-8.8 36.4-5.5 10.5-12.7 19.7-20.4 28.7v.4zM351.4 240.4c-.5 1.3.6 2.1 1.2 3 6.5 8.9 11.8 18.6 16.6 28.4 3 6.2 7.6 10.3 13.2 13.8 36.4 22.5 65.2 52.4 87.2 89.1 22.4 37.4 34 77.6 32.6 121.3-.4 13.4-3.3 26.5-10.8 38-1.9 2.9-2 4.5 0 7.3 10.9 14.8 20.3 30.4 26.6 47.9 9.5 26.7 16.9 54 21.6 82 .9 5.5 2.7 9.7 7.1 14 21.5 21 46.8 36.2 73.2 49.9 1.2.6 2.4 1.9 4.3.8-1.1-1.9-2.2-3.7-3.2-5.6-9.6-17.9-15.2-36.8-14.5-57.4.6-16.9 6.8-31.4 16.6-44.6 2.3-3.1 5.2-5.7 8.7-7.3 3.9-1.8 7.3-1.4 10.1 2.2 2.7 3.5 4.6 7.3 6.1 11.4 8.1 22.5 13.9 45.5 13.6 69.7 0 2.1.2 3.8 2 5.3 8.4 7 15.3 15.3 22.2 23.7 34.9 42.4 62.9 89.2 88.1 137.8 9.8 19 18.3 38.5 22.4 59.6 1.5 7.8 1.7 15.4-1.2 23.1-1 2.7-3.5 5.2-3.1 9.4 11-6.9 20.6-14.2 28.5-23.8 1.2-1.4.4-2.9.3-4.3-.5-6.8-1.4-13.6-1.7-20.4-.2-4.7-1.5-8.6-4.4-12.4-17.9-22.9-33.3-47.3-45.8-73.7-15.4-32.6-30.1-65.7-49.7-96.2-7.1-11.1-13.6-22.4-23-31.8-9.9-9.9-17.7-21.8-22.6-35.1-8.4-23-12.4-47-15.2-71.1-1.1-9.7-.6-19.1 3.6-28.3 2.5-5.6 3.9-11.7 6.9-18.8-19.7 10.5-37.8 20.3-54.8 32-1.9 1.3-3.4 3-4.1 5.4-5 16.4-11.1 32.4-14.6 49.2-1.1 5.2-2.1 10.5-3.6 15.6-2.9 9.4-10.4 12.1-18.8 7.2-5.3-3.1-9.4-7.3-13.1-12.1-7-9.1-11.4-19.5-16.2-29.8-14.1-30.5-21.5-62.4-20.3-96.3.7-21.7 3.7-43.1 8.1-64.2 1.2-5.7.6-10.5-1.6-15.8-14.3-34.9-31.6-67.9-57.4-95.9-21.1-23-44.9-43.2-66.6-65.6-3.9-4-8.3-7.1-13.3-9.5-6.1-2.9-12.5-5.6-17.3-10.8-5.9-6.3-13-10.8-20.3-15.3-1-.6-2-2-3.6-.8zm369 559.9c-1.7-20.7-11.8-38.1-31.2-49.2-20.9-12-47-1.6-55 21.2-11.1 31.5 11.5 65.7 44.7 67.5 25.2 1.4 39.9-18.9 41.5-39.5m-228.6-88.9c1.3 14.6 5.3 29.9 23.2 37.1 14.3 5.7 27.3 3.4 34.6-7.1 6.1-8.7 8.5-19 7.8-29.3-1.2-18-17.8-31.1-37.7-31.1s-28.1 11.4-28 30.5h.1Z" class="fill" data-original-prefix="fill"/><path id="fill-ear-lft-ring" fill="#ffffff" d="M618.1 994.2c-2.7 0-5.3-.2-7.9-1.1-11.2-4-21.3-10.1-30.1-18.1-4.2-3.9-6.4-8.6-5-14.8 2.7-12 4.3-24.2 7.9-36 3.3-10.8 8.7-20.4 17.2-28.2 6.6-6.1 13.1-12.4 19.4-18.7 1.8-1.8 2.6-2.3 4.1.4 6 10.9 6.6 11.3-2.3 20.1-11.5 11.4-18 24.9-20.4 40.6-.8 5.4 2.7 10.5 8.6 13.7 4.6 2.4 9.9 2 13.9-1.7 3.9-3.6 7.6-7.5 11.2-11.4 13-14 26.4-27.8 36-44.6 2.4-4.2 12.1-6.5 17.7-4.6 5.1 1.7 7.8 6.6 7.3 13.9-1 12.5-4.4 23.8-14.1 33-9.1 8.5-17 18.3-25.2 27.7-8.1 9.3-16.8 18-26.2 26-3.5 3-7.6 4-12 3.8z" class="fill" data-original-prefix="fill"/><path id="fill-ear-lft-fill-pin3" fill="#ffffff" d="M314 639.6c-17.1 0-29.8-10.3-35.8-29.2-4.1-12.7-.9-25 2.2-37.3 1.7-6.8 3.6-13.7 7.5-19.8 1.6-2.5 3-3.1 5.9-1.5 7.6 4.1 15.4 7.8 23.2 11.6 2 1 2.9 1.3 1.8 4.4-3 8.4-7.3 15.9-12.5 23-2.6 3.6-1.3 9 2.7 11 6.7 3.3 13.5 6.3 20.2 9.6 2.8 1.4 3.7.3 3.9-2.2.4-4 1.5-7.8 2.8-11.6.7-2 .5-3.1-1.8-3.5-2.7-.6-5.4-1.4-8.1-2.2-2.8-.8-3.8-2.3-1.9-5.1 2.8-4.1 6-7.9 9.5-11.5 1-1 2.1-1.7 3.6-1.1 9.9 3.8 19.8 7.6 29.7 11.3 1.8.7 2.7 1.8 2.5 3.7 0 1.2-.1 2.3-.3 3.5-3.8 24.7-29.9 47-55 47h-.1Z" class="fill" data-original-prefix="fill"/><path id="fill-ear-lft-fill-pin2" fill="#ffffff" d="M373.9 574.1c-4.5 0-7.9-2.1-11.4-3.3-2.6-.9-1.3-3.3-.7-5.2 5.1-15.3 11.4-30 17.2-45 11.3-29.5 22.5-59 35.1-88 .5-1.3.6-2.8 2.1-3.8 2.6-1.8 5.2-4.3 8.5-2 3.2 2.3 3.6 5.6 2.3 9.3-15.1 42.9-30.1 85.8-45.2 128.6-.6 1.7-1.3 3.4-2 5.1-1.1 3-3 4.7-5.9 4.2Z" class="fill" data-original-prefix="fill"/><path id="fill-ear-lft-fill-pin1" fill="#ffffff" d="M351.4 410.4c2.4 10.8 3.6 20.4 4.7 29.9.6 5-1.6 9.5-3.5 13.8-13.3 29.9-25.6 60.3-37.6 90.8-1.1 2.8-2 3.3-4.9 2.1-10.4-4.3-10.6-4.2-6.9-13.7 13-33 24-66.6 37.6-99.4 3.1-7.6 6.1-15.2 10.7-23.6h-.1Z" class="fill" data-original-prefix="fill"/><path id="fill-ear-lft-stud2" fill="#ffffff" d="M703 790.9c2.4 20-12 30.3-23.2 32.1-16.4 2.7-32.6-8.1-36.8-24.3-5-18.9 4.1-35.2 21.9-39.3 12.3-2.8 27.5 3.5 34.5 14 3.8 5.6 3.9 11.8 3.7 17.5z" class="fill" data-original-prefix="fill"/><path id="fill-ear-lft-stud1" fill="#ffffff" d="M503.1 714.6c-.2-4.2.4-7.9 1.8-11.5 3-7.4 8.7-11.2 16.6-11 18.9.4 31.4 18.3 23.8 33.9-4.6 9.5-13.9 14.1-24.2 12-10.4-2.1-17.5-10.3-18-20.8v-2.7Z" class="fill" data-original-prefix="fill"/><path id="shading-ear-lft1" fill="#aaaaaa" d="M481.2 598.8c3.2-4.3 2.5-8.1 1-11.9-3.9-9.8-7.4-19.9-11.9-29.5-3.6-7.6-4.4-15.1-2.8-23.1 3-15.4 4-30.9 3.8-46.5-.3-22.2-6.1-43.3-13.6-63.9-11.7-31.9-27.5-61.7-45.5-90.5-7.6-12.2-17.3-22.6-26.3-33.7-3.3-4-6.2-8.4-9.6-13.1 8.8-3.9 17.1-6 25.6-7.5 5-.9 8.8 2.5 12.5 5.2 18.5 13.6 35.9 28.5 54 42.4 27.2 21 49.3 46.1 66.8 75.6 8.5 14.2 17.8 28 26.9 41.9 3.2 4.8 5.1 10 5.7 15.7.9 9.6 2.5 19.2 2.4 28.7 0 23.2 12 41.6 22.4 60.8 1.7 3.1 3.9 2.6 6.7 1.8 14.7-4 29.7-7.1 44.7-9.6 17.5-3 17.4-3 29 10.9 3.5 4.2 5.6 8.7 6.9 14 24 95.8 62 185.4 120.6 265.5 16.1 22 33.8 42.6 52 62.9 3.3 3.7 6.6 7.5 8.7 12.1 2.3 4.8 2.2 9-1.1 13.9-18.7 27.3-44.3 45.7-75.1 56.2-14.6 5-30.6 5.7-45.9 8.3-3.6.6-5.4-2-7.6-4-13.6-12.2-27.1-24.5-40.6-36.7-5.5-4.9-5.8-5.1-10.9.4-10 10.6-19.9 21.3-29.3 32.5-4.5 5.4-10.1 9.5-15 14.5-5.2 5.3-11.3 8.1-19.4 6.1 1-2.2 3.1-2.7 4.9-3.7 9.8-5.7 19.2-12.3 26.3-21.1 10.6-13.2 21.6-26 32.9-38.5 9.4-10.4 9.1-21.3 3-32.9-3.4.4-4 3.4-5.4 5.5-4.1 6-8.3 12-12.1 18.2-10.3 16.4-25 28.2-40.8 38.8-4.9 3.3-9.6 4.1-14.9 1.1-2.3-1.3-4.7-2.5-7.2-3.5-9.2-3.8-15-9.6-12.9-20.5 1.2-6-2.9-8.5-7.5-9.8-3.9-1.1-4.5-2.9-3.3-6.5 2.9-8.5 5.9-16.7 12.9-23.1 7.8-7.1 15-15 22.6-22.5 6.2-6.2 6.7-6 11.2 1.8 1.2 2 2.4 4 3.3 6.1 1.7 4 1.5 7.7-1.6 11.1-2.5 2.7-4.5 5.8-7.2 8.2-8.8 7.6-12.1 18.1-15.5 28.4-2.3 7.1.9 13 7.5 16.3s5.8-.3 8.3-1.6c6.2-3.4 10.5-9.2 15.2-14.2 6.8-7.3 12.6-15.4 18.9-23.1 2.4-2.9 2.5-5.6 1-9-8.6-18.7-17-37.4-25.4-56.1-1.2-2.7-3.2-5.5-3.3-8.2-.3-8.2-5.5-12-11.8-15.7-36.2-20.9-71.9-42.7-105.8-67.2-11.9-8.6-18.5-19.6-18.8-34.3 0-2 0-4 .5-5.9.4-1.9.9-4.1 3.5-4.2 2 0 2.7 1.8 3.3 3.3 3.3 9.2 9.5 15.9 17.9 20.4 6.3 3.4 13 5.3 19.6.4 4.9-3.7 5.1-6.4-.4-9.5-18-10.1-29.6-26-40.5-42.8-28.4-43.7-49.3-90.8-65.4-140.2-.9-2.8-1.8-5.6-2.8-8.5-3 1-2.8 3.5-3.3 5.6-4.7 19.6-9.4 39.3-14.2 58.9-2 8.1-2.1 8.1-10.5 8.7-7.6.6-15.2 1.5-22.8 1.6-5.3 0-8.3 2.2-10.9 6.8-8.4 14.9-20.8 24.6-37.9 28-8.4 1.7-16.4 1.3-24-3.3-5.4-3.3-10.9-6.3-16.4-9.5-8.3-5-10-13.1-11.8-23.5 15.2 10.3 29 19 46.8 18.7-7.9-7-15.7-13.9-23.6-20.9-5-4.4-10-8.8-14.9-13.2-5.3-4.8-6.4-11.3-3.4-19.5 9.8 8.4 19.3 16.5 28.7 24.7 9.7 8.5 19.5 17 28.9 25.8 3.3 3 5.8 2.3 8.7 0 5-4 9.4-8.4 12.5-14.9-21.6-18.7-44.9-35.4-67.4-53 1-1.4 1.4-2.3 1.8-2.4 11.8-1.4 15.6-10 19.3-19.7 7.5-19.5 15.6-38.8 23.9-57.9 2.8-6.5 3.8-12.6 1-19.1-3.1-6.9-2.4-13.3.9-20 3.2-6.5 6-13.3 8.8-20 1-2.5 2.5-3.6 5.2-3.5 3.2.1 3.7 2.3 4 4.7 2.4 16.7 6 33-2.1 49.6-7.8 16.1-11.6 33.8-18.6 50.3-3.4 8-7.7 15.4-11.7 23-2.1 4.1-4.9 7.8-5.7 13.3 16.4 7.3 32.5 14.9 49 21.8 7.6 3.2 9.6 1.9 12.3-6.3 14-42.1 30.8-83.3 42.2-126.3.8-3.1 1.5-6.5 4.1-8.9 13 5.9 15.3 9 13.2 22.4-2.7 17.7-5.9 35.3-9.3 52.9-1.3 6.8-.9 12.7 2.6 19 10.4 18.9 20.2 38.1 32.9 55.6 4.3 5.9 8.8 11.7 16.7 14.3zm190.4 250.4c3.1 17.8 10 30.9 27.2 36.1 1.9.6 3.5 2.1 5.4 2.5 7.1 1.6 10.3 6.7 12.4 12.9 1.1 3.4 2.4 6.9 2.9 10.5.6 4.2 2.4 7.4 5.3 10.3 13.3 13.5 26.5 27 40.7 39.4 2.9 2.5 5.4 5.6 10 7.1-2.4-12.4-6-23.7-9.5-35-.8-2.6-2.6-4.6-4.4-6.5-12.8-14.4-23.8-30.2-33.9-46.5-6.3-10.1-12.4-20.4-18.6-30.5-1.5-2.5-2.6-5.5-6.7-3.2-9.4 5-19.4 6.2-30.7 2.9zM541 764.3c29 22.1 59.5 38.1 94.4 47.4.9-13.9 1.6-26.8 2.5-39.6.3-4.8-1.6-6.4-6.2-6.5-11-.4-21.5-3.7-31.9-6.8-12.4-3.7-24.3-8.7-35.7-14.8-2.8-1.5-4.8-1.8-6 1.9-2.8 8.1-8.4 14-17.1 18.5Zm102.6 21.8c-1.9 10.4 5.6 17.8 13.5 24.5 13.1 11.2 31.6 6.7 39.1-8.9 1.6-3.4 1.8-6.1-1-8.9-9.3-9.5-18.4-19.1-27.6-28.6-1.4-1.4-2.8-2.5-5.2-2.1-12.9 2-19.1 9.2-18.7 24Z" class="outline shading" data-original-prefix="shading" opacity="0.5" style="opacity: 0.5"/><path id="outline-ear-lft-outer" fill="#000000" d="M347.6 396.2c0-1.7-.4-3.4-.8-5.3-3.8-17.2-12-32-24-44.8-1.7-1.8-2.1-4.1-2.6-6.4-4.3-18.4-5.6-37.2-6.7-56-1.3-20.6-3-41.2-3.1-61.9 0-15.1-.7-30.4 3.6-45.2 2.2-7.5 2.8-8 10.5-6.5 17 3.4 33.7 7.8 50.1 13.8 45.8 16.9 91.4 34.4 134.8 57 44.3 23 86.6 49.3 127.4 77.9 9 6.3 15.6 15.4 23.3 23.3 50.6 51.8 94.2 109.2 135.5 168.5 3.7 5.3 5.3 10.3 5.4 16.5.9 49.6 6.6 98.7 14.3 147.6 3.5 22 11.2 42.9 19.4 63.4 4.3 10.7 11.1 20.1 18.8 28.7 3.9 4.3 6.7 9.1 8.7 14.5 7.8 20.6 16.8 40.6 26.9 60.2 5 9.7 5.5 20.8 9 31 1.6 4.7 1.1 8.3-2.1 12.6-7.8 10.6-14.2 22.2-22.1 32.7-8 10.8-18.8 18.6-31.7 23 7.7-8.9 14.9-18.2 20.4-28.7 5.9-11.4 9.8-23.3 8.8-36.4-.5-6-3.6-11-5.5-16.5-1.7-4.9-3.8-9.6-5.4-14.5-2.8-8.9-6.5-17.3-11.4-25.4-13.7-23.1-24.3-47.8-35.1-72.3-3-6.9-6-13.8-9.6-20.3-8.1-14.5-8.9-30.6-10-46.5-2.2-30.6-4.6-61.1-7.9-91.6-2.2-20.6-2.3-41.6-8.1-61.7-1.6-5.5-3.6-10.8-7.2-15.2-22.9-28.2-44.2-57.6-67.6-85.4-37.4-44.3-82.5-79.3-131.2-110-24.5-15.4-48.8-31.3-73.9-45.8-40.2-23.3-81-45.6-123.3-64.7-15.4-7-31.6-12.3-48.1-17.8-1.2 13.9-1.3 27.5-.8 41.1 1.2 28.7 6.2 56.9 11.1 85.1.4 2.1 1.1 4.3 2.3 6 16.5 24.5 22.8 52.6 29.7 80.6 6.6 26.8 8.4 53.9 8.7 81.3 0 1.6 0 3.2 1.1 5l6.9-18.9c4.6-12.5 8.3-25.3 13.9-37.3 3.1-6.6 7.1-12.5 13.7-16.1 11.1-6 23.1-.3 25.6 12.1 1.5 7.1.1 13.9-1.8 20.7-6.5 22.9-16.2 44.6-24.5 66.8-5.8 15.4-11.2 30.9-16.4 46.4-.9 2.7-.3 5.1.4 7.8 15.4 56.3 45.6 104.3 82.7 148.6 6.8 8.2 13.5 16.5 21.1 24 16.2 15.9 33.8 30 53.9 41 21.2 11.6 42.2 23.5 62.5 36.6 2.9 1.9 5.9 3.8 8.7 5.9s5.7 4.4 3.8 8.7c-.3.6.2 1.6.5 2.4 6.6 18.2 13.7 36.1 22.9 53.2.4.7.9 1.4 1.4 2.2 11.5-13.7 27.2-13.3 42.6-12.5 5.4.3 9.5 4.4 10.7 9.8 3.4 15.5 3.2 31-1.4 46.3-.2.6-.5 1.3-.8 1.8-1.2 2.3-3.9 5-3.4 6.9.8 3.1 4.5 4.7 7.2 6.6 13.8 9.9 27.5 19.9 43.8 25.6 7.2 2.5 14.5 1.5 21.8 1 9.4-.6 17.9-4.5 26.8-7.1.9-.3 1.9-.3 2.9-.5-3.1 5.3-8.8 7.2-13.9 9.1-13.1 4.9-25.7 10.8-39.2 14.9-11.3 3.4-21.3-.7-31.8-2.1-1.1 0-2.1-1.5-3.1-2.4-9.2-9-18.5-17.8-27.4-27-2.9-3-4.5-2.5-7.2 0-15 14.2-30.3 28.1-45.2 42.4-4 3.9-9 6.2-13.2 10-2.7 2.4-6.9 1.6-10.5.4-15.1-5.3-29-12.9-42.6-21.3-16.5-10.2-18.3-14.4-13.6-34.2 3.4-14.1 6.3-28.3 9.3-42.4 2.7-12.7 8.9-23.2 19.3-31.1 8.7-6.7 17.2-13.7 26-20.2 3.1-2.3 3.3-4 1.1-6.8-1.4-1.8-2.6-3.9-3.8-5.9-6.7-11.7-16.1-19.8-28.4-25.6-29.6-13.8-56.3-32.4-81.5-53-37.6-30.6-65.5-68.9-87.7-111.6-9.2-17.6-18.1-35.2-26.3-54-2.8 5-5.1 9.7-7.9 14-10.7 16.3-23.7 29.9-44.3 32.6-24.5 3.1-45.8-3.3-62.5-22.4-9.4-10.7-11.6-23.4-10.6-36.9 1.1-16.1 5.7-31.4 11.2-46.4 2.3-6.4 5.8-12.6 14.5-11.8 1.7.2 1.6-1.3 2-2.3 15.8-42.1 35.1-82.7 53.1-123.9l7.4-14.7zm5.5 94.9c-.8 1.7-1.6 3.5-2.4 5.2-8.3 18.3-16.6 36.6-25 54.9-1.1 2.4-.3 3.1 1.8 3.9 5.6 2 11.1 4 16.6 6.4 2.9 1.2 3.8 0 4.7-2.4 2.4-6 4.7-12.1 7.6-17.8 2.6-5 2.7-9.7 1.5-15.2zm265 503.1c4.5 0 8.5-.8 12-3.8 9.4-8 18.1-16.7 26.2-26 8.2-9.4 16.2-19.2 25.2-27.7 9.8-9.2 13.2-20.5 14.1-33 .6-7.3-2.2-12.2-7.3-13.9-5.6-1.9-15.3.4-17.7 4.6-9.6 16.8-23 30.5-36 44.6-3.6 3.9-7.3 7.8-11.2 11.4-4 3.7-9.3 4.1-13.9 1.7-6-3.1-9.4-8.3-8.6-13.7 2.3-15.7 8.9-29.3 20.4-40.6 8.9-8.8 8.3-9.2 2.3-20.1-1.5-2.7-2.3-2.2-4.1-.4-6.4 6.4-12.8 12.7-19.4 18.7-8.4 7.8-13.9 17.3-17.2 28.2-3.6 11.8-5.2 24-7.9 36-1.4 6.1.8 10.9 5 14.8 8.8 8 18.9 14.1 30.1 18.1 2.6.9 5.2 1.1 7.9 1.1zM314 639.6c25.1 0 51.2-22.3 55-47 .2-1.1.2-2.3.3-3.5.1-1.9-.7-3-2.5-3.7-9.9-3.7-19.8-7.5-29.7-11.3-1.5-.6-2.6.2-3.6 1.1-3.5 3.5-6.7 7.4-9.5 11.5-1.9 2.7-.9 4.2 1.9 5.1 2.7.8 5.3 1.6 8.1 2.2 2.3.5 2.5 1.5 1.8 3.5-1.3 3.8-2.5 7.6-2.8 11.6-.2 2.5-1.1 3.6-3.9 2.2-6.7-3.3-13.5-6.3-20.2-9.6-4-2-5.3-7.4-2.7-11 5.2-7.1 9.5-14.6 12.5-23 1.1-3.1.2-3.4-1.8-4.4-7.7-3.8-15.6-7.5-23.2-11.6-2.9-1.6-4.3-1-5.9 1.5-3.9 6.1-5.7 13-7.5 19.8-3.1 12.2-6.3 24.6-2.2 37.3 6 18.9 18.7 29.2 35.8 29.2h.1Zm59.9-65.5c2.8.5 4.7-1.2 5.9-4.2.7-1.7 1.4-3.4 2-5.1 15.1-42.9 30.1-85.8 45.2-128.6 1.3-3.7.9-7-2.3-9.3-3.3-2.3-5.8.2-8.5 2-1.4 1-1.5 2.5-2.1 3.8-12.6 29-23.8 58.5-35.1 88-5.8 15-12.1 29.8-17.2 45-.6 1.9-1.9 4.2.7 5.2 3.5 1.2 6.9 3.3 11.4 3.3Zm-22.5-163.7c-4.6 8.4-7.6 16.1-10.7 23.6-13.5 32.7-24.6 66.4-37.6 99.4-3.7 9.5-3.5 9.4 6.9 13.7 3 1.2 3.8.7 4.9-2.1 12.1-30.4 24.3-60.8 37.6-90.8 1.9-4.3 4.1-8.8 3.5-13.8-1.1-9.6-2.3-19.1-4.7-29.9h.1Zm282.7 491.5c-5.7 8-12.1 14.2-16.1 22.1-.9 1.8-1.2 3.6.8 4.8 1.7 1.1 3.5 1.2 5.1 0 1.1-1 2.2-2.1 2.9-3.4 1.9-3.6 4.5-6.7 7.6-9.2 2.9-2.4 3.5-5 1.8-8.3-.7-1.5-1.1-3.1-2.1-6" class="outline" data-original-prefix="outline"/><path id="outline-ear-lft-inner" fill="#000000" d="M351.4 240.4c1.5-1.1 2.5.2 3.6.8 7.2 4.5 14.4 9.1 20.3 15.3 4.8 5.1 11.1 7.8 17.3 10.8 5 2.4 9.4 5.4 13.3 9.5 21.7 22.3 45.5 42.6 66.6 65.6 25.8 28 43.1 61.1 57.4 95.9 2.2 5.3 2.8 10.1 1.6 15.8-4.4 21.2-7.3 42.5-8.1 64.2-1.2 33.9 6.2 65.7 20.3 96.3 4.7 10.3 9.2 20.7 16.2 29.8 3.7 4.8 7.9 9.1 13.1 12.1 8.5 4.9 15.9 2.2 18.8-7.2 1.6-5.1 2.6-10.3 3.6-15.6 3.5-16.8 9.6-32.9 14.6-49.2.7-2.4 2.2-4.1 4.1-5.4 17-11.8 35.1-21.6 54.8-32-3 7.1-4.4 13.2-6.9 18.8-4.1 9.2-4.7 18.7-3.6 28.3 2.8 24.2 6.8 48.2 15.2 71.1 4.9 13.3 12.7 25.1 22.6 35.1 9.5 9.5 15.9 20.8 23 31.8 19.6 30.5 34.3 63.6 49.7 96.2 12.5 26.4 27.8 50.8 45.8 73.7 2.9 3.7 4.3 7.6 4.4 12.4.3 6.8 1.2 13.6 1.7 20.4 0 1.4.9 2.9-.3 4.3-7.9 9.6-17.5 16.9-28.5 23.8-.5-4.3 2.1-6.7 3.1-9.4 2.9-7.7 2.8-15.3 1.2-23.1-4.2-21.1-12.6-40.7-22.4-59.6-25.2-48.6-53.2-95.4-88.1-137.8-6.9-8.4-13.8-16.7-22.2-23.7-1.8-1.5-2.1-3.2-2-5.3.3-24.2-5.4-47.2-13.6-69.7-1.5-4.1-3.4-7.9-6.1-11.4-2.8-3.7-6.2-4.1-10.1-2.2-3.6 1.6-6.4 4.2-8.7 7.3-9.8 13.2-16.1 27.8-16.6 44.6-.7 20.6 4.9 39.4 14.5 57.4 1 1.9 2.1 3.7 3.2 5.6-1.9 1.1-3.2-.2-4.3-.8-26.4-13.7-51.7-28.8-73.2-49.9-4.4-4.3-6.2-8.5-7.1-14-4.7-28-12.1-55.3-21.6-82-6.2-17.4-15.6-33.1-26.6-47.9-2-2.7-2-4.4 0-7.3 7.5-11.5 10.4-24.6 10.8-38 1.4-43.7-10.2-83.8-32.6-121.3-22-36.8-50.7-66.6-87.2-89.1-5.6-3.5-10.1-7.6-13.2-13.8-4.8-9.8-10.1-19.5-16.6-28.4-.6-.9-1.7-1.7-1.2-3z" class="outline" data-original-prefix="outline"/><path id="outline-ear-lft-ring2" fill="#000000" d="M720.4 800.3c-1.6 20.6-16.3 40.9-41.5 39.5-33.3-1.8-55.8-36-44.7-67.5 8-22.8 34.1-33.2 55-21.2 19.4 11.1 29.5 28.5 31.2 49.2m-17.4-9.4c.2-5.6 0-11.8-3.7-17.5-7-10.5-22.2-16.8-34.5-14-17.8 4.1-26.8 20.4-21.9 39.3 4.3 16.3 20.4 27 36.8 24.3 11.2-1.8 25.6-12.2 23.2-32.1z" class="outline" data-original-prefix="outline"/><path id="outline-ear-lft-ring" fill="#000000" d="M491.8 711.4c-.2-19.1 11.1-30.4 28-30.5 19.9 0 36.4 13.1 37.7 31.1.7 10.3-1.7 20.6-7.8 29.3-7.4 10.5-20.4 12.9-34.6 7.1-17.9-7.2-21.9-22.4-23.2-37.1h-.1Zm11.3 3.2v2.7c.5 10.5 7.6 18.7 18 20.8 10.3 2.1 19.6-2.5 24.2-12 7.6-15.6-4.9-33.5-23.8-33.9-7.9-.2-13.7 3.6-16.6 11-1.4 3.6-2.1 7.3-1.8 11.5Z" class="outline" data-original-prefix="outline"/>
    </g><g class="trait-group" data-category="head" id="head-bowler">
      <path id="fill-head3" fill="#ffffff" d="M1009.8 640.3c118.8-3.4 214.4 26.8 292.2 118.2 40.8 47.9 65.6 117.8 71.9 180 0 .8-.4 1.4-.8 2-1.5 2.1-30.6 11.8-35.6 13.5-58.8 19.8-123.6 34.6-185.2 42.8-160.2 21.5-326.4 1.5-476.9-55.8l-1.4-2.5c2.2-18.4 4.4-35.9 9.2-53.8 20.1-75.7 59.7-135 121.8-182.2 58.5-44.4 132-60.2 204.7-62.3Z" class="fill" data-original-prefix="fill"/><path id="fill-head2" fill="#ffffff" d="M654.6 955c1.4-.3 9.9 7.3 12.4 8.5 10.2 5 29.7 10.1 41.2 13.8 106.6 33.2 231.5 54.7 343.2 50.7 91.6-3.2 189.8-21.3 277.5-47.5 14.6-4.3 39.1-10.7 52-17 4.4-2.2 7.7-6.7 12.4-8.5 5.4 1.2 3.3 26.2 3.6 31.5.9 14.3 3.5 28.6 4 43-12.2 17.7-33.8 24.9-53.4 31.6-189.4 64.1-439.5 63.3-630.3 5.2-24.7-7.5-54.5-15.3-70.2-36.8.5-14.4 3.1-28.7 4-43 .3-5.2-1.8-30.3 3.6-31.5" class="fill" data-original-prefix="fill"/><path id="fill-head1" fill="#ffffff" d="M622.7 1033.3c1 .7 5.1 9.3 6.9 11.6 26.9 35.4 130 60.6 173.2 68.8 113.8 21.6 235.4 23.8 350.7 13.3 73.9-6.7 172.6-24 237.2-60.8 14.7-8.4 27.5-17.6 35.1-33.1 23.1-1.5 45.6-3.4 68.2-8.5 3.8-.9 17.4-5.7 19.5-5.5 2.2.2 14.6 13.3 14.6 15.5 0 4.3-24.7 20.9-29.4 23.7-42.7 24.9-100.7 48.7-147.4 65.6-208 75.2-464 72.6-670.5-6-40-15.2-124.1-48.4-154.2-75.8-1.9-1.7-7-5.9-6.4-8.3.6-2.1 12.3-14.5 14.4-14.7s15.6 4.7 19.5 5.5c16.2 3.7 33 6.1 49.5 7.5 4.5.4 15.9-.9 19.2 1.3Z" class="fill" data-original-prefix="fill"/><path id="shading-head2" fill="#aaaaaa" d="M662.3 1021.7c3 3.6 20.2 11.6 25.3 14.1 51.1 24.6 115.3 36.1 171.2 45.8 115.3 20.1 215.1 20.1 330.4 0 51.7-9 111.5-19.8 159.5-40.5 8.6-3.7 29.3-12.7 35.4-18.6 3-3 8.1-17.1 9.3-21.7 1.7-6.5 1.2-15.7 2.8-21.2.6-1.9 4.6-2.5 4.8-1 1.4 9.4 2.1 38.8 8.5 44.4 2 1.8 7.3 3.1 10 3 8 0 16.3-2.1 24.1-3 20-2.4 5.9 19.2-.6 26.4-21.2 23.7-60.6 35.6-90.3 44.7-60.9 18.8-117.4 28.3-181.3 25.7-42.3-1.7-89.2 2.8-131.9 4-53.8 1.5-110.6-6.4-164-4-57.4 2.5-111.3-5.4-166.5-21.5-32.6-9.5-91.2-26.2-109.8-56.2-4.8-7.8-10.2-20.5 4.3-19.3 7.5.6 17 3.1 25 3.1 11.8 0 13.5-8.1 15.2-17.9s1.7-20.3 3.3-30.2c1.8 0 4.2-.4 4.8 1.6.5 6.8 1 13.7 2.6 20.4.7 2.7 6.8 20.5 7.8 21.7Z" class="outline shading" data-original-prefix="shading" opacity="0.5" style="opacity: 0.5"/><path id="shading-head1" fill="#aaaaaa" d="M1389 910c1 9.1-1 21.1 11 22 .2 1.3-.5 2.3-1.2 3.3-7.2 12.2-69.4 34-85.1 38.9-44.1 13.9-95.6 23.5-141.4 30.6-132.6 20.5-257.3 11.6-387.5-17.1-36.8-8.1-96.4-24.9-127.7-45.3-2.7-1.8-9.2-6.5-9.1-9.9 12.3-1.6 8.8-12 11-21 .3-1.2-.8-1.8 1.5-1.5 33.3 16.9 69.1 31.2 104.3 43.7 71.3 25.4 143.5 32 218.8 35.2 94.9 4 206-2.4 296-33.9 37.2-13 73.8-28.4 109.5-45Z" class="outline shading" data-original-prefix="shading" opacity="0.5" style="opacity: 0.5"/><path id="outline-head" fill="#000000" d="M1400.2 921.8c3 3 20.1.2 22.6 10.9.2 24.4-3 49.1 1.3 73.2 30.4 1.1 58.9-10.5 87.9-16.4 4-.8 8-2.2 12.1-1 7.3 2.2 22.9 16.1 27.4 22.6 10.5 15.4 6.7 23-4.4 36.5-38.8 26.9-74.3 59.5-117.1 79.9-74 35.3-158.9 53.3-239.8 67.2-112.3 19.4-220.1 19.4-332.4 0-80.9-14-165.8-31.6-239.8-67.2-42.6-20.5-77.4-52.1-116.1-78.9-4-3.9-11.4-14.6-11.9-20.1-1.1-11.4 13-25.9 21.6-32.2 10.4-7.6 12.3-9.2 25.2-6.5 28.7 6 57 17.2 87.1 16.2 4.4-24.1 1.1-48.8 1.3-73.2 2.5-10.9 21.5-8.1 23.1-11.9 2.2-18.2 4.4-35.2 9-53 20.5-79.7 75.3-163.2 144.4-208.6 19.9-13.1 43.5-18.8 66.5-24.5 99.8-24.8 183.1-27.6 284-6.4 28.3 6 67.3 14.1 91.7 29.3 73.6 45.9 137.4 147 151.8 232.2.9 5.2 2.3 29.9 4.5 32Zm-390.4-281.5c-72.7 2.1-146.2 17.9-204.7 62.3-62.1 47.1-101.7 106.5-121.8 182.2-4.8 17.9-7 35.4-9.2 53.8l1.4 2.5c150.5 57.3 316.7 77.3 476.9 55.8 61.5-8.3 126.4-23 185.2-42.8 5-1.7 34-11.4 35.6-13.5.5-.6.9-1.1.8-2-6.4-62.2-31.2-132.1-71.9-180-77.8-91.4-173.3-121.7-292.2-118.2ZM654.6 955c-5.4 1.2-3.3 26.2-3.6 31.5-.9 14.3-3.5 28.6-4 43 15.7 21.5 45.5 29.3 70.2 36.8 190.8 58 440.9 58.9 630.3-5.2 19.7-6.7 41.2-13.9 53.4-31.6-.5-14.4-3.1-28.7-4-43-.3-5.2 1.8-30.3-3.6-31.5-4.7 1.8-8 6.3-12.4 8.5-13 6.3-37.4 12.6-52 17-87.7 26.2-185.9 44.2-277.5 47.5-111.7 3.9-236.6-17.4-343.2-50.7-11.6-3.6-31-8.8-41.2-13.8-2.5-1.2-11-8.8-12.4-8.5m-31.9 78.3c-3.3-2.2-14.7-.9-19.2-1.3-16.5-1.3-33.4-3.8-49.5-7.5-3.8-.9-17.4-5.7-19.5-5.5s-13.8 12.6-14.4 14.7c-.6 2.4 4.5 6.6 6.4 8.3 30.1 27.3 114.2 60.6 154.2 75.8 206.5 78.6 462.5 81.2 670.5 6 46.8-16.9 104.7-40.7 147.4-65.6 4.7-2.8 29.4-19.3 29.4-23.7 0-2.2-12.3-15.3-14.6-15.5-2-.2-15.6 4.7-19.5 5.5-22.6 5.1-45.1 7.1-68.2 8.5-7.6 15.6-20.4 24.8-35.1 33.1-64.6 36.8-163.3 54.1-237.2 60.8-115.3 10.5-236.9 8.2-350.7-13.3-43.2-8.2-146.3-33.4-173.2-68.8-1.7-2.3-5.8-11-6.9-11.6Z" data-original-prefix="outline" class="outline"/>
    </g>
</svg>