<?xml version="1.0" encoding="UTF-8"?>
<?xml-stylesheet type="text/css" href="styles/collection.css"?>
<svg xmlns="http://www.w3.org/2000/svg" viewBox="0 0 2048 2048"><g id="01_background" data-trait="blue"><path id="color-blue" fill="#2f5496" d="M2048 0v2048H0V0z"/></g><g id="02_Jaw" data-trait="OG-cracked"><defs>
    
  </defs>
  <path id="fill-jaw" class="fill"  class="st0" d="M1396.7,1438.7c-6.7,4.3-46.8-1.7-48.7.3l-12.2,69.8-57.2,29.3-1.4,1.6c-1.5,11.9,1.5,24.2.9,35.9-.3,4.9-1.3,15-2.3,19.7-.6,2.8-13.7,32.2-15,33.5s-16.1,8.9-16.7,8.3l-9.5-50-51,52c-7.7,5.7-20.7,9.3-27.5,15.5-14,12.7-25.2,37.4-42.1,47.9-5.4,3.3-61.3,25.7-66.7,26.3-13.8,1.7-33-3.3-47.7.2-17.7-10.3-50.1-16.2-66.1-26.9-14.3-9.6-28.3-35.6-41.4-47.6-6.7-6.1-19.9-9.6-27.5-15.4l-51-52-9.6,48.4c-.6.9-.9,1.7-2.2,1.5-.8,0-13.8-7.6-14.4-8.2-1.4-1.4-15.9-33.3-16.2-35.3l-.5-54.4-58.2-30.3-12.3-69.7c-8.1-1.2-45.1,3.9-49.5-1l-37.1-85-.5-3.4,31.5-70.6c5.3-1.6,29.1,0,31.3-6.7.8-2.3-.6-19.5-1.3-22.4-2.2-8.4-16.2-24-19.8-33.2-.7-1.7-1.2-3.1-.6-5,4.7-11.3,10.3-22.3,14.1-34,7.3-22.4,7.2-42.6,16.9-65.1,47.5-110.2,188.9-176,299.9-200.1,44.7-9.7,79.8-1.5,122.7,11.2,98,28.9,222.6,97.5,259,199,6.8,19,7,38.1,13.5,57.5,3.8,11.2,10.1,22.1,13.7,33.4,0,1.4-8.3,16.4-9.8,19.1-2.4,4.3-9.7,13.4-10.7,17.3-1.8,6.8-.6,15.6-2.3,22.5,9.9,7.9,21.3,4.2,32.4,6.5,9.6,23.9,23.5,46,31.4,70.6-9.8,26.3-22.2,51.8-33.2,77.7-1.3,3-1.7,9.3-5.1,11.4h0Z"/>
  <path id="shading-jaw" class="shading"  class="st1" d="M1380.8,1185.8c-.2.4-2.1.7-2.8,1.7-8.6,10.8-16.2,26-21,39-4.2,11.4-5.1,22.7-13,32-18.8,22.4-51.8,45.5-78.3,57.7-5.4,2.5-12.5,3.7-16.7,7.8h20.5c2.7,0,5.1,1.2,7.9,1.1,18.1-.2,64.4-19.8,77.5-32.6,5.7-5.5,14.1-15.7,15-23.5,1.8,0,.7,2.4,1.5,4,3.1,5.9,15.5,5.2,21.5,6,.2,1.6-1.5.7-2.3,2.2-4.6,8.3-4.4,21.6-10.6,28.3-7.5,8.1-37.1,13.5-48.8,17.2-14.5,4.6-29.8,8.8-42,18.1l-52.8-14.8c-19.3-2.3-9.9,15.4-5.3,25.3,5.2,11.3,20.7,40,30.4,46.6,11.9,8.2,22.7-10.2,30-17,6.3-6,16.2-11.8,24.6-14.4,17.7-5.6,32.3,4.7,50.5,5.4,17.4.8,34.6-7.7,48.8-17.2,3.6-2.4,14.6-13.9,17.2-13.8,1.7,0,3.3,6.1,1.8,7.8-10.1,24.3-21.6,48-31.8,72.2-3.7,8.8-.8,14-13,15-9.3.7-15.8-1-24.2-1.8-4.8-.4-11.8,2.5-17.3-.2l-12.9,70.6-59,30.5c.4,11,2.6,23.6,2,34.5-.3,5.7-1.3,15.4-2.1,20.9-.5,3.1-13.4,31.4-15.4,33.6-3,3.2-11.6,6.2-15.5,9-.8-4.9-2.7-10.6-3-15.5-.6-11.2,2-11.3-2.7-23.2-.4-1.1-1.9-1-2.2-2-.8-2.2-.8-6.7-1.1-9.2l-2.3.2-50.2,51.8c-7.7,5.2-19.5,8.7-26.5,14.5-14.2,11.7-24.4,36.1-41.5,47.5-6.7,4.5-54.2,25.7-61.2,26.8-9.9,1.5-51.8,1.6-61.5,0-6.9-1.2-49.7-20.5-57.3-24.7-15.8-8.9-30.2-37.8-44.4-49.6-6.9-5.7-19-9.3-26.5-14.5l-51-52c-1,8.1-7.3,16-8.1,24-.6,6.2.6,14.6-.3,21.6-.2,1.7-3,1.8-2.1,4.4-.6.7-14.6-8.1-15.5-9-1.7-1.8-15-30.8-15.4-33.6-.7-4.4-.9-13-1.1-17.9-.5-12.2.6-24.4.5-36.6l-58.5-31.4-13-69.5-48.8-.2-38-86.6.9-6.2c8.2.4,11.8,8.2,18.6,12.7,25.3,16.9,38.4,19.8,68.5,13.9,17.1-3.4,19.1-7.5,37.2.4,15.9,7,19,16.2,30.6,25.4,9.6,7.6,13.6,7.9,22-1s31.8-49.1,32.1-60c.2-8.7-6.4-8.1-13.3-7.2-8.6,1.1-48.4,15.1-51,14.6-1.7-.4-12.3-7.9-16.5-9.6-20.3-8.4-48.8-11.8-67.2-20.8-14.9-7.3-11.3-20.9-17.7-33.2-.9-1.6-2.5-.6-2.3-2.2,6.3-.9,17,0,21-5.5,1-1.4.3-3.7,2-3.5,3,11.7,15.2,23.9,25.1,30.4,21.2,13.8,50.4,23.7,75.4,23.5h20.5l-34.7-16.8c-19.1-10.8-48.2-33.1-61.8-50.2-6.2-7.8-7.1-18.3-10.5-27.5-6-16.6-14.4-32-25-46,1.3-9,6.5-19.6,7.8-28.2,1.9-12.9,1.8-19.5,6.5-32.5,36.4-101.1,159.2-169,256.8-198.2,49.9-15,102.4-18.2,153.2-5.2,103.5,26.4,242.6,100.3,277.2,208.8,3.4,10.5,3,17.3,4.8,27.2.8,4.7,8.9,28.4,7.6,30.6l-.5-.2ZM1195.9,1382.1c-32.3-16.1-63.1-35.3-95.9-50.7-17.5-18.7-37.4-36.6-54.6-55.4-4.8-5.3-11.2-16-16-20-3-2.6-7.4-3-10.6-.6-4.5,3.4-12.7,16.4-17.4,21.6-16.7,18.6-36.8,35.6-53.6,54.4-32.9,15.3-64,34.2-96,51.2-.6,2.8,12.4,35,14.6,40.3,2.9,7.1,12.1,31.7,16,36.1,7.1,8,36.5,26.3,47,33,19.8,12.7,36.1,22.9,59.3,28.7,27.3,6.8,39.7,7.1,67,.6s43-16.6,65.7-31.3c10.4-6.8,35.9-22.5,43.4-30.6,4-4.4,12.7-27.4,15.6-34.4,2.1-5.1,16.8-41,15.5-42.9M728.3,1496.7c1.6,2,8.2,6.3,10.7,7.8,14.7,8.8,31.8,13.8,46.9,23.1,16.8,10.2,40.2,33.1,59.6,33.5,2.3,0,8.7-1.2,9.4-3.7s-13.6-27.6-16.4-30.3c-7.3-7.1-27.5-17.2-37.2-23.8-15.2-10.3-50.3-39.1-67.9-39.2-10.5,0-8.7,28.1-5.1,32.7h0ZM1319.7,1466.3c-5.9-5.9-24.1,4.1-30.4,7.6-16.2,8.9-31,21.4-46.2,31.8-12.7,8.7-30.1,15.7-38.6,28.4-2.2,3.4-10.8,17.7-11.4,20.7-1.1,5.3,6.2,6.5,10.3,6.3,16-.9,23.4-9.7,35.2-17.8,9.2-6.3,19.3-13.6,29-19,11.7-6.6,47.1-19.2,52.7-29.3,2.4-4.3,2.8-25.2-.7-28.6h0ZM1126,1664c-12-2.7-20.7,6.6-31.6,7.9-5.7.7-12.2-1.2-16.6-.7-7.1.8-22.9,12.1-31.2,14.9-14.8,4.9-30.2,4.7-45.1,0-8.8-2.8-23.9-14.1-31.2-14.9-4.4-.5-10.9,1.4-16.6.7-11-1.3-19.9-11-31.6-7.4,0,6.9,23.8,23.5,30,27,12.5,7.1,59.8,26.8,72.5,26.6s59.9-19.8,72.2-26.9c10.3-6,24.6-16.2,29.3-27.2h-.1Z"/>
  <path id="outline-jaw" class="outline"  d="M676,1140c5.2-3.1,18.7-3.2,19.1,4.5,0,2.3-.8,11.2-1.1,14-.3,3-.9,8.4-2.1,10.9-2.5,4.9-17.3,13.6-20.1,19.9-1.2,2.6-6.4,25.9-6.7,29.3-.2,1.7,0,2.8.4,4.4,2.1,6.9,13.8,19.7,17.7,27.3,5.7,11,7.2,24.3,12,35s13.5,10.7,22.5,15.6,17.7,11.1,25.3,17.2c-3.1,0-6.3.2-9.4,0-7.7-.8-35.8-6.7-41.8-10-6.1-3.3-8.8-18.4-12.8-20.4-2.5-1.2-7,0-10.3-.7-6.7-1.2-9.9-7.8-17.5-1.5-6.7,12.4-14.3,24.3-20.4,37.1-7.4,15.4-14.8,25.1-4.8,41.2,5.2,8.4,23.4,27,25.6,34.4,2.5,8.4-2.4,27.4,2.4,33.6,5.4,6.9,20.6,5.2,27.7,1.7,11.1-5.5,9.2-10.1,14.9-19.1,5.3-8.3,20.9-24.3,30.4-26.7,7.7-1.9,12.3,10.3,14,16,4.9,15.9,2,31.2,13.9,44.1,1.1,1.2,9,8.5,10,7.5-.8-5.6,4.8-8.4,6.5-13,3-7.9-3.1-20.6-5-29-2.8-12.3-5.1-24.7-8-37-1-4.1-6.2-19.9-5.4-22.3,1.2-3.8,23.7-9.1,24.9-10.7.4-.5-2.9-8.7,0-12.6,1.3-1.8,8.8-6.8,11.1-8.9,3.9-3.5,23.1-22.9,25.7-23.4,4.4-.8,5.2,2.4,8,3.6,5.1,2.1,10.8,2.5,15.7,4.3,1.1.4,2.4.5,2.5,1.9-11.2,6.3-23.6,13-34.3,20.2-2.7,1.8-16.6,11.8-17.6,13.4-1.6,2.6-2.2,9.7-2.2,12.9l3,44.5c-9.8-13.1-8.1-31.3-10-47-2.5,1.9-15.3,3.5-15.9,5.6,4.5,18.6,8.6,38.8,15.1,56.7,7.3,20.1,19.2,40.4,27.7,60.3,11.1,7.8,27.2-5.8,33-15,5.6-8.7,8.1-23.6,22.5-13.5,11,7.7,22.9,21.4,33.5,30.5,48.3,41.3,92.1,59.6,157.4,50.3,40-5.7,69.7-25.7,99.7-51.3,6.2-5.3,32.4-31.5,37.5-32.5,11.9-2.2,14.8,13.8,21.4,21.5,7.4,8.7,17.4,14.2,29.1,12,4.4-.8,21.2-8.4,26.3-10.7,9.2-4.2,20.3-11.4,27.2-18.8,10.4-11.3,8.4-24,12-38,1.7-6.6,6.3-23.8,15.5-21.6,10.7,2.6,27.2,21,32.6,30.4,1.7,3,2.2,6.8,3.9,9.1,6.3,8.5,28.5,13.3,36,5.1,5.6-6.1.4-25.5,2.9-34.1s20.4-25.8,26-35c9.4-15.8.8-28.3-6.5-43.3-5.8-11.8-13.2-22.7-19.2-34.3-7.1-5.6-12.2.4-18.5,1.5-2.9.5-6.9-.4-9.3.7-3,1.4-6.8,14.4-9.5,17.5-1.4,1.6-7.6,4.3-9.9,5.1-8,2.8-25.7,6.6-34.3,7.7-3.4.4-6.8.2-10.2.2,6.6-5.5,15.7-12,23.3-16.2,11.5-6.3,19.8-5.1,25.5-19.5,3.9-9.8,5.3-20.7,10.3-30.7,3.9-7.7,16.9-22.6,18.7-29.4.4-1.7.2-2.8,0-4.5-.6-4.4-5.6-25.6-7.2-28.8-3.7-7.3-19-15.9-20.5-21.5-.8-3.2-2.6-24.3-1.6-26.4,2.1-4.5,12.7-3.4,16.5-1,.5,1.9,4.4,14,5,14.5,6.2,5.3,26.1,4.1,26.1,17s-1.7,15.9.2,26.7c1.7,9.8,9.7,22.5,6.4,31-2.3,6-12,20.9-15.9,27.1-3.6,5.6-8.1,10.6-11.8,16.2,8.8.3,18.9-17.9,26.1-12.1,3.4,2.8,13.7,18.6,16.7,23.3,5.1,7.9,10.9,17.6,15.1,25.9,3.9,7.8,17.4,38.8,16.1,45.8-.2,1.2-13,15.6-15.2,18.8-10,14.2-21.3,32.5-25.7,49.3-1.9,7.2-2.7,14.7-4,22-1,1.4-27.6,11.9-31.1,12.9-10,2.9-17.2,1.5-24.9-5.4-.9,8.8-2.6,17.7-3,26.5s1.7,33.1-.8,39.2c-.6,1.5-11.3,15-12.5,15.5-6.3,3-15.7-1.7-24.7,3.3-22.6,12.7-18.8,48.5-26.9,68.1-6,14.6-40.4,52.5-54.6,59.4-1.2.6-2,1.3-3.6.9,1.2-14.7,3-35.1-3.9-48.6-.4-.8-.4-3.2-2.1-1.4-.7.7-3.6,13.8-6.6,17.9-8.6,11.7-30.9,6.8-39.2,20.8-5.2,8.9-7.6,22.3-13.4,30.6s-48.5,28.9-59.6,33.4c-15.1,6.1-64.1,21.2-78.8,21.2s-63.4-15.1-78.8-21.2c-11.1-4.4-55.3-26-60.6-34.4-6.9-11.1-8.5-31.6-21.5-37.6-14.4-6.6-26.5-2.6-33.9-20.1-1.1-2.5-2.5-10.3-2.8-10.7-1.3-1.6-1.8.4-2.2,1.3-1,1.8-4.8,14.6-4.8,16.2v30c0,.3,1.4,1.4,1,2.5-1.7.2-3-.3-4.4-1.1-15.2-8.7-49.8-45.6-54.8-62.2-6.2-20.6-5.2-52.1-25.9-65.1-8.2-5.2-18.3-.3-24.7-3.3-.9-.4-12.2-14.2-12.7-15.3-2.1-5.2-.2-29.6-.5-37.4-.4-9.1-2-18.5-3-27.5-4,1.6-7.6,4.7-11.9,5.6-2.8.6-5.6.7-8.5.3l-35.7-14.3c-1.5-7.3-2.1-14.8-4-22-4.3-16.8-16.4-36.3-26.5-50.5-2.2-3-13.9-15.8-14.2-16.8-1.1-3.6.8-8.3,1.8-11.8,5-18.6,17.3-42.1,27.6-58.4,2.5-4,17.5-26.2,20.1-26.9,6.2-1.8,15.2,12.1,22.3,12.8.7-.7-9.3-13.3-10.4-15.1-4-6.2-14.5-22.3-16.8-28.2-2.7-7.1,5.4-22.1,6.9-30.5,1.9-10,.2-18.4,1.3-27.7,1.2-11,17.6-11.6,25.8-15.7,2.1-4.7,2-9.6,3.2-14.8h.4v-.2ZM799,1627.5v-20c0-3.5,9.1-26.6,11.7-27.4,6.9-2.2,27.9,17.6,32.8,22.9,7.6,8.1,14.7,20,23,27,10.5,8.8,23.6,12.8,33.5,23.6,22.2,24.2,21.6,36,55.1,50.9,29.5,13.1,59.4,23.9,92.4,17.4,12.7-2.5,58.9-21.3,68.9-29.1,12.4-9.6,23.1-31.8,35.2-42.8,9.6-8.8,25.5-14.6,34.6-23.4,6-5.9,12.7-15.8,18.4-22.6,2.8-3.3,8.4-7.2,10.3-10.7,4.4-8.2,10.5-40.4,10.3-49.8-.3-12.5-3.5-25.3-4.2-37.8-17.1-12.8-20.5-.4-31.4,9.3-16.5,14.9-41.1,22.8-63,25-69.4,7-135.6,7-205,0-22-2.2-46.4-9.9-63-25-7-6.3-10.5-15.9-22-15.1-3.7.3-6,3.1-8.5,3.7-4.9,1-22.9-12.7-28.3-15.8-18.4-10.2-46.1-20.5-61.1-34.9-6.9-6.6-2.4-11.8-2.5-19.5s-3.8-23.4-6.8-30.2c-.5-1.1.2-1.5-1.7-1.3-9.4,1.3-19,20.2-19.3,28.8-.2,6.3,6.7,18.5,7.6,26.9,1.5,13.9-4.4,40.4,8.8,49.2,12.8,8.6,39.9,13.7,50.8,26.2,5.7,6.6,1.5,7.9.7,14.6-3.6,29.6,1.4,55.9,20.9,78.9.5.6,3.9,4,2,1h-.2ZM1248,1630c19.4-21.2,26.1-39.8,25-68.5-.3-7.8-4-21.4,0-27.8,4-6.1,20.2-13.6,27.2-16.8,15.2-7.1,31-7,32.7-27.3,1.3-14.8-1.6-26.3,2.5-41.5,3.4-12.7,7.8-13.2,2.5-27.5-2.8-7.7-9.2-17.6-18-18.4-5.5,13.3-7.4,26.1-7,40.5,0,3,2.2,4.9,0,8.1-1.5,2.2-16.5,12.2-19.8,14.2-9.2,5.7-59,28.5-60.9,35.1-2.7,9.4,7.3,31.3,8.6,41.6l-10,40.5c2.4-1.4,5-2.6,7.9-1.9,6.7,16.4,13.1,31.6,9.1,49.9v-.2h.2ZM780,1448c-2-1.4-5.5,2.6-5.8,4.7-.9,5,7.2,15.1,12.8,15.2-.9-2.6-6.1-19.4-7-20h0Z"/></g><g id="03_Mouth" data-trait="OG"><path id="fill-muzzle" class="fill"  fill="#fff" d="M1125 1622c-3.4-2.3-6.5 6.6-8 8.5-3.7 4.7-17.7 19.6-23.5 19.5-2 0-5.3-4.8-7.8-6.2-7.4-4.3-19.1-5.3-26.8-1.4-4.2 2.2-10.1 9.4-13.4 9.7-7.7.5-10.7-10.3-17-11.2-2.3-.3-9.7-.3-11.5.6-3.2 1.4-8.9 10.8-13.7 11.3-3.1.3-10.3-8.4-13.4-10.2-6.5-3.8-16.5-3-23.5-.6-4.3 1.5-10.5 8-12.8 7.8-5.8-.5-18.9-14.5-22.7-19.3-1.6-2-2.1-4.7-3.5-6.4-5.4-6.8-5.6 3.9-7.6 7.3-9.4 15.7-21-13.3-24.8-18.9-2.4-3.5-7.2-5.7-10-9-9.7-11.6-6.4-27.5-10.3-40.7-1.7-5.8-11.6-19.5-14.9-27.1-10-22.6-12.3-43.5-10.8-68.2-2.4-7.1.4-27.9-4.5-32.5-2.1-2-6.1-2.7-8.5-4.5-5.9-4.5-12.8-32.2-11.9-39.8 1.1-9.4 12.1-25.4 18.4-32.6 12.3-14.3 37.4-24.6 56-26 4.8-.4 28.1 1.1 29.5.5s5.1-5.4 7.1-6.9c8.7-6.5 17-9.5 27.7-11.3 3.7-.6 7.6.4 11-1 3.1-1.3 11.4-13.2 17.3-16.7 10.5-6.1 38.9-5.7 51.5-4.6 5.7.5 13.4 3.6 18 7 3.7 2.8 11.2 13.2 13.8 14.2 3.3 1.4 7.3.4 11 1 8.9 1.5 16.5 3.9 24.1 8.9 2.7 1.8 9.7 8.9 10.7 9.3 1.3.6 23.9-.9 28.5-.6 16.1 1.1 33.8 7.8 46.8 17.2 12.1 8.8 30.2 32.8 28.7 48.3-.4 4.3-7 26.5-9.2 29.8-3.6 5.6-10.6 4.5-13.7 10.3l-3.2 43.8c2 20.7-2.7 38.4-11.1 56.9-3.2 7-11.5 17.9-13.4 23.6-4.4 13-.9 27.8-9.6 40.4-2.9 4.2-8.2 6.2-10.8 10.2-1.6 2.3-2.2 5.7-3.8 8.2-2.8 4.2-10.6 16.7-16.2 14.9-7.1-2.2-6.8-12.8-8-13.6h-.2Z" class="fill" data-original-prefix="fill"/><path id="fill-teeth16" class="fill"  fill="#fff" d="M995.3 1525.7c11 9.5 17.2-6.6 23.2 6.3 6.5 14.1 3.7 38.4-1 52.9-.7 2.1-7.1 16.9-8 17.1-1.2.3-3-.4-4.2-.9-12-5.1-31.7-18.1-39.1-28.9-10.6-15.5-6.4-42.9 6.8-55.8 1.3-1.3 9.1-5.6 10.4-5.3 1.5.3 9.4 12.3 12 14.5h-.1Z" class="fill" data-original-prefix="fill"/><path id="fill-teeth15" class="fill"  fill="#fff" d="M1039.1 1601.9c-.8-.5-7.5-16.1-8.1-18.4-4.1-13.8-6.5-36.9-1.3-50.3 4.6-12 8.1-4.3 15.8-4.2 9.5.2 17.3-18.2 20.8-17.9 1.2 0 8.5 4.2 9.7 5.3 6.3 6.2 12.2 22.3 13 31 2.4 28-20.3 39.6-41.3 50.7-2 1.1-5.7 5.5-8.6 3.7Z" class="fill" data-original-prefix="fill"/><path id="fill-teeth14" class="fill"  fill="#fff" d="M904 1461c0 2.2-1.1 3.8-.8 6.2.2 1.8 7.1 22 8 23.1 3.9 5.1 11.2 3.2 16.7 3.8 4.9 13.5-4.2 23.8-8.6 35.6-2 5.3-8.7 33.1-12.8 34.2-1.8.5-6.8-9.1-8.3-10.7-10.3-23.9-15.3-58.4-2.6-82.2.6-1.2 7.1-11.6 8.4-10.1Z" class="fill" data-original-prefix="fill"/><path id="fill-teeth13" class="fill"  fill="#fff" d="M1144 1564c-2.1 1.4-6.1-7.1-6.8-8.7-3.2-7.9-4.4-17.4-7.5-25.5-4.3-11.6-13.6-22-8.6-35.6 4.8-.6 12.3 1.2 15.9-2.9 1.3-1.5 8.1-20.6 8.6-23.2.3-1.8-1.4-7 .9-6 6 2.7 13.7 26 14.4 32.6 1.4 13.9-2.9 45-9.3 57.4-.8 1.5-7 11.6-7.6 11.9" class="fill" data-original-prefix="fill"/><path id="fill-teeth12" class="fill"  fill="#fff" d="M1093.1 1644.9c-2.9-1.8-2.4-28.5-2.1-33.4.7-10.5 5.2-31.2 8.9-41.1 1.1-2.8 2.4-1.4 4.2 0 12.2 9.6 21.1 44.8 12.8 57.9-1.9 3-15.6 14.9-18.9 16.1-1.3.5-3.8 1.1-4.8.4Z" class="fill" data-original-prefix="fill"/><path id="fill-teeth11" class="fill"  fill="#fff" d="M949 1569c5.5 22 11.1 44.4 9 67.5-.5 5.2-.9 10.3-7 8-3.4-1.3-17.5-13.4-19.5-16.5-5.8-9.2-1.4-31.3 2.7-41.2 1.2-2.9 11.3-21 14.8-17.7Z" class="fill" data-original-prefix="fill"/><path id="fill-teeth10" class="fill"  fill="#fff" d="M881.7 1478.3c3.1 2.8-2.7 21-2.8 26.2 0 5.9 2.6 12.4 3.1 18 .2 2.1.7 24.5-.5 24.5-1.5.2-2.1-1.1-2.9-2.1-15.6-18.9-34.8-51.8-17.4-75.3 6.5-8.8 10.5 2.1 14.9 5.8 1.8 1.5 4.9 2.1 5.7 2.8Z" class="fill" data-original-prefix="fill"/><path id="fill-teeth9" class="fill"  fill="#fff" d="M1185.7 1467.3c1.9 1.6 7.8 13.7 8.2 16.2 3.2 20.7-9.8 47.3-23.9 61.9-.9 1-1.3 1.9-3 1.5.5-8-.7-16.6 0-24.5.4-5.4 3.1-12.3 3.1-18s-6.1-23.4-2.8-26.2c.6-.6 2.5-.6 3.8-1.7 3.4-3 10-13.1 14.7-9.3Z" class="fill" data-original-prefix="fill"/><path id="fill-teeth8" class="fill"  fill="#fff" d="M1018 1613v16.5c0 .9-10.8 13.2-11.9 14.1-6.3 4.8-8-2.6-10.6-5.5-5.5-6-17.9-.4-24.4-5.6-1.2-.9-4.1-8.8-4.1-9.9v-22.5c12.9 1.7 28.3 17.5 41.4 15.9 3.5-.4 6.1-3 9.6-2.9Z" class="fill" data-original-prefix="fill"/><path id="fill-teeth7" class="fill"  fill="#fff" d="M1031 1613c6.3 1.3 9.1 4 16.1 2.6 10.6-2.2 24.3-14.8 33.4-15.6 2-.2 1.4 0 1.2 1.3-.8 6.5 2.4 27.5-4.4 31.6-7 4.2-18.8-.3-23.4 4.6-2.1 2.2-3.6 8-8.4 7.6-1 0-14.6-13.5-14.6-14.6V1613z" class="fill" data-original-prefix="fill"/><path id="fill-teeth6" class="fill"  fill="#fff" d="M1102.5 1494c3.3-.8 4.5 6.9 5.3 8.7 5.6 12.1 13 24.8 13.3 38.8.2 9-16 29.8-21.3 16.2-4-10.4-4.1-44.8-1.1-55.5.4-1.6 2.4-7.9 3.8-8.2" class="fill" data-original-prefix="fill"/><path id="fill-teeth5" class="fill"  fill="#fff" d="M937.3 1559.7c-1.9-1.6-7.8-10.5-8.5-13-3.6-12.1 6-31.3 11.4-42 1.6-3.1 3.3-14.7 8-7.4 5.5 8.5 4.3 41.5 2.7 52.1-1.2 7.7-3.6 18.7-13.6 10.3" class="fill" data-original-prefix="fill"/><path id="fill-teeth4" class="fill"  fill="#fff" d="M917 1563c-1.8 13.4 2.9 27.5 2 40.5-.6 9-4.4 18.4-5.5 27.5-6.2-6-10.5-16.1-11.4-24.6-.5-5.2.7-24.7 2.4-29.3.6-1.6 10.5-16.2 12.4-14.1Z" class="fill" data-original-prefix="fill"/><path id="fill-teeth3" class="fill"  fill="#fff" d="M1135 1631c-.4-8.9-4.4-17.8-5.1-26.5-1-13.8 3.7-27.6 2-41.5 2.2-2.4 11.9 13 12.5 15 2 6.6 2.6 27.4 1.2 34.3-1.3 6.3-5.5 14.9-10.8 18.7z" class="fill" data-original-prefix="fill"/><path id="fill-teeth2" class="fill"  fill="#fff" d="M1154.1 1604.9c-3.4-2-5.1-22.3-3.9-26.2.8-2.6 8.9-5.2 10.2-8.8l5.1-10.9c3.8 3.4 5.1 7.2 4.3 12.2-.7 4.2-5.4 22.7-6.9 26.2-.9 2.2-6.1 9-8.8 7.5" class="fill" data-original-prefix="fill"/><path id="fill-teeth1" class="fill"  fill="#fff" d="M885 1559c-.3 3.7 1.7 9.4 4 12.2s9.5 5.2 10 8.3c-2 8.4 1.6 19.2-5.7 25.4-3.6-1.1-6-4-7.4-7.4s-6.5-23.6-6.9-27.1c-.5-4.2 1.2-10.6 5.9-11.4z" class="fill" data-original-prefix="fill"/><path id="outline-shading-mouth2" class="outline"  fill="#000" d="M918 1443.5c.8 5.3 5.6 13.8 10.1 16.9 11.5 8.3 16.2-.3 22.4-9.4 2.5 5.4 3.4 11.5 6 17 1.4 2.8 5.7 12 7.5 5.5l4-11.5c1.6 7.5 6.3 15.4 11.5 21 4.3 4.7 18.8 15.4 24.6 9.6 2-2.1 8.3-17.9 10.8-22.2 1.2-2.2 7.8-13.8 9.7-13.3 1 .2 8.5 13.2 9.7 15.3 2.4 4.5 7.3 17.7 9.8 20.2 3.8 3.8 10.5.4 14.4-1.8 10.5-5.9 18.5-17.2 21.7-28.8l4.2 12.3c.3 1.2 1.9 2.4 2.8 1.7.6-.4 5.8-11.3 6.5-13 .8-2 2.8-12 4-12 6.8 10.7 12.9 18.4 24.5 7.5 8.6-8 9.3-23.8 7-34.5 3.5-3.1 21.1 16.1 26.6 16.9 9.1 1.4 17.6-11.8 19-19.9 3.5-20.5-12.9-39.2-30.9-46.2l-12.7-4.8c15.4 0 28.2 2.9 41.1 11.4 4.8 3.1 12.2 10.9 17.6 11.4 6.2.6 10.1-4.1 10-10-.4-19.3-25.8-38.1-39.7-48.8 15.4 2.4 34.6 11.8 45 23.5 7.8 8.8 19.1 25.1 19.1 37s-6.4 28.5-9.2 32.8c-3.3 5.3-11.7 5.4-13.4 10.6-.9 8.1-2.1 16.4-2.5 24.5-1.5 29 1.4 45.2-10.8 73.2-3.6 8.2-12.7 20.4-14.9 27.1-4.2 12.8-.7 26.4-9.1 38.9-3.2 4.8-8.4 6.7-11.2 10.8-1.7 2.5-2.4 6.1-4.2 8.8-4.5 6.7-14.6 23-21.6 8.9-1.6-3.3-1.3-12.9-6.7-6.2-1.4 1.7-1.9 4.4-3.5 6.5-3.7 4.7-17.7 19.6-23.5 19.5-2.2 0-4.5-4.1-6.6-5.4-7.9-5-21.1-6.3-29.2-1.4-7.3 4.4-9.5 13.6-18.1 6.8-8.6-6.7-6.4-10.8-20.1-9-5.6.7-11.4 12.6-16.9 12.1-2.8-.2-11.4-11.1-18.5-12.6-6.3-1.3-17.5.7-23 4.2-2.6 1.7-4.1 5.6-7.5 5.4-5.7-.3-19.8-15.8-23.6-20.5-1.2-1.5-4.4-10.6-7.1-6.9-2.5 3.4-.6 9.9-7.2 12.7-7 3-14.9-11.2-18.1-16.4-1.2-1.8-1.2-4.3-2.6-6.4-2-3-6.8-5.4-9.5-8.5-10.4-11.9-6.7-27.7-10.7-41.3-.8-2.6-5.6-8.5-7.3-11.7-18.4-35.7-16.4-45.6-18.4-84.6-.4-7.7-.6-20.7-2.2-27.8-1.5-6.2-11.1-6.1-14.2-11.8-3.4-6.1-9.3-29.6-8.6-36.4 1.2-10.3 16.2-31.2 24-38 10.5-9.2 26.2-16.5 40-18.5l-21.5 17c-7.2 6.4-26.8 32-14.8 39.9 9 5.9 16.7-4.5 23.7-9.1 12.7-8.4 25.3-11.8 40.7-11.8l-17.3 7.2c-18 9.4-33.1 32.7-22.1 52.8 1.7 3.1 8.6 10.4 12 11.1 9.1 1.7 20.7-15.4 29.5-18 .6 6.4-.9 14.3 0 20.5zm-37.1 40.6c-12.3-.5-17.1-20.2-22.8 1.5-3.4 13 1.2 26.4 9.4 36.5 1.5 1.8 12.7 13.1 13.9 12.9.8 0 2.5-2.3 2.8-3.2 2.9-7.1-3.2-12.2-4.2-19.2-1.5-9.8 0-18.7.9-28.4Zm301.8-8.9c-3.2.8-6.3 6-8.8 7.3-2.1 1.1-7.2 1-7.8 3.2-.5 1.7 3 10.8 2.9 14.8 0 3-1.5 13.9-2.2 16.8-.9 3.6-3.9 5.7-3.9 10.2s1.4 7.1 3.7 7.4c1.9.3 15-14.4 16.8-17 5.7-8.5 9-18.8 7.3-29.2-.5-3-4.4-14.5-8-13.6Zm-284.8 10c-4-2.3-6.5 9.9-6.8 12.5-1.2 10.5 3 38 8.7 47.1 1.9 3 5.4 6.9 9.2 7.3 3.7-15.6 12.6-29.2 21-42.5-2.3-.4-1.7-2.9-2.7-3.5-1.5-.9-7-1.9-9.7-3.1-4.7-2.2-12-7.7-15.6-11.4-1.2-1.2-3.8-6.2-4.2-6.3ZM1139 1552c8.3-2 11.9-12.2 13.9-19.6 3.1-12.1 6.1-33.4 1.1-44.8-3-6.9-5.8 1.7-8.3 4.1-3.9 3.8-11 9.3-16 11.6-2.5 1.1-7.8 1.8-9.1 2.7-.7.5-.5 1.8-1 2.7-.3.4-1.7.4-1.6.9 0 1 7.9 12.3 9.2 14.8 4.8 8.8 9.1 18 11.8 27.7Zm-197.7 5.7c8.1 8.1 9.5 0 10.5-7.3.8-5.6 2.7-20.6 1.7-25.4-3.6-17.2-21.3-15.9-21.6 3.6 0 6.8 4.6 24.3 9.4 29.2Zm161.5-44.5c-5 1.3-8.5 9.3-8.8 14.2-.2 4 2.4 28.5 3.8 31.3 2.5 5 7.5 0 9.8-2.7 6.8-8.3 11.6-30.7 4.5-39.5-2.7-3.3-4.8-4.4-9.2-3.3zM1023 1544c-.7-.7-.8-7-5.1-9.4-8.9-5-21.8-.8-32-4-10.4-3.3-9.4-13.1-16.1 1.8-2.9 6.4-9.1 24.4-6.3 30.7 1.1 2.4 17.8 15.6 21.2 17.8s18.2 11.7 21.1 10c3.1-5.6 9.3-9.5 12.6-14.9 1.8-2.8 4.1-11.5 4.6-11.9 1.6-1.7 1.7.5 2.1 1.4 1.6 3.6 2.1 6.8 4.5 10.5 3.3 5.2 9.2 9.3 12.4 14.6 3.1 1.9 15.5-5.9 18.9-8.1 4.5-2.9 22.9-17 23.9-21.1 2.2-9.7-6.6-28.3-10.9-37.2-4.9 1-7.8 5.2-12.7 6.7-9.2 2.8-28.2-1.6-33.7 6.3-.9 1.2-2.6 8.9-4.5 7zm-136 18c-.7-.6-3.5 0-4.5.9-6 6.2 2.4 31.6 14.6 27.6 4-1.3 3.8-9.4 2.8-12.9-1.1-3.9-7.2-4.1-9.8-7.2-2.1-2.5-2.7-8.2-3-8.5Zm274.1 0c-.3.3-.9 6-3 8.5-2.6 3.1-8.7 3.3-9.8 7.2-1 3.4-1.2 11.6 2.8 12.9 13.4 4.4 20.2-24.5 14.1-28.1-.9-.5-3.5-.9-4-.4Zm-216.4 7.2c-1.5.4-5.1 4.6-6 6.1-3.4 5.6-5.6 32.3-4.8 39.3 1.3 10.9 15.2 18 19.5 3.5 1.7-5.6 2.6-21.4 2.5-27.6 0-1.1-5.8-19.7-6.5-20.5-1.2-1.4-3.2-1.3-4.8-.8Zm153.3-.1c.2 6.6-5.4 14.7-6 20.6-.5 4.5 1 25.3 2.4 29.4 4.2 12.1 16.9 7.3 19.1-2.9 1.1-5.2 0-16.8-.6-22.6-1-9.7-1.7-25.5-14.9-24.5m-180 1.9c-20.5 3.8-17 28.7-9 43 4 2.9 10.4-17 10.7-19.8.9-7.5-2.9-15.5-1.8-23.2Zm218 43c2.5 1.8 7.2-9.1 7.7-10.8 3.9-12.8 1.6-30.1-13.7-32.2.5 7.4-2.8 16.2-1.9 23.4.3 2.7 6.4 18.5 7.9 19.6m-148.2 10.2c1.4.8 4.8 8.6 9.5 11 11.1 5.8 20.2-6.4 20.7-16.7.8-13.7-7.2-7.7-16.5-8.6-8.4-.8-15-4.8-21.8-9.2-5.5-3.5-13.6-14.6-14.7-1.4-.5 5.1 1.4 7.5 1.8 11.2s-2 5.9.5 10.7c4.8 9.3 18 1.3 20.7 2.8zm93.1-31.1c-2.1-1.5-19.7 12.7-23.9 14.4-2.3 1-7.9 2.3-10.5 2.5-10.5.9-18.8-5.4-16.4 11.4 1 7.3 7.9 15.8 16 15.1 9.4-.8 11.9-11.6 14.6-12.4 4-1.3 12.3 5.7 18.9-1.1 4.3-4.4 1.3-8.4 1.5-12.5 0-2.3 1.9-4.8 2-8.1 0-1.9-.8-8.5-2.2-9.4Z" class="shading" data-original-prefix="shading" opacity=".2"/><path id="outline-shading-mouth1" class="outline"  fill="#000" d="M1041 1343c6.1.5 12.7-1 17.5-5 1.5-1.3.9-3.7 2.8-2.9 10.1 7.9 37.9 17.4 43.8 28.2 3.6 6.5 4.6 17.5-1.8 22.6-5.6 4.5-20.8 10.8-28 15-4.9 2.8-9.7 6.6-14.7 9.3-7.4 4.1-25.5 14.5-32.6 16.4-2.9.8-5.2.8-8.1 0-14.5-3.8-42.2-22.5-56.3-30.7-6.2-3.6-21.2-9.1-23.2-15.8-5.5-18.4 15.7-28.3 28.7-35.4 2.3-1.2 15.5-8.6 16.5-8.7 2.9-.3 4.2 2.9 6.7 4.2 4.2 2.3 10 3.2 14.7 2.8-.3-5.1-3.3-11.3-1.8-16.3.5-1.6 12.5-13.9 14.5-14.4 3.9-1 8.2-.3 11.6 1.9 1 .7 10.8 11.1 11.2 11.8 2.1 5-1.2 11.8-1.5 17" class="shading" data-original-prefix="shading" opacity=".2"/><path id="outline-mouth3" class="outline"  fill="#000" d="M888 1333c-.7 1.9-2.2 2-3.8 2.7-12.3 5.2-24 8.3-33.2 18.8-6.6 7.6-18.9 26-18 36 .3 4 7.1 25.8 9.2 28.8 2.7 4 6.1 4.9 10.8 4.7-1.4-9 4.2-18.1 9.6-24.9 2.2-2.8 21.9-22.6 24.4-20.1-1.7 6.5-8.8 10.4-13 15.5-8.1 10-12.3 23.6-9.5 36.5 1.2 5.4 11.2 26 15 30 .6.7 7.1 6.3 7.5 6.5 2.4 1.2 5.6-3.8 6.5-5.5 2.5-4.3 3.1-9.7 5-14 4.4-10.2 9.3-18.3 18.5-25-5 13.9-9.5 44.6 1.5 56.1 4.6 4.8 11 2.5 15 5.1 2.1 1.3 2.5 5.4 4.2 5.8s7-3.1 9.4-3.5c9-1.4 12.6 16.9 18.7 17.4 2.5.2 10.2-12 18.4-9.4 5.5 1.8 19.2 24.8 24.4 23.6 5.8-5.9 3.6-12.3 5-19 1.5-7.6 8.3-12.6 9.4-22.6.8-7.2-1.7-26.6-4.7-33.1-1.1-2.3-5.5-10.7-6.8-12.2-3.4-4-15-9.2-19.8-6.1l-4.2 11.1c-4.8-4.4-9.5-9.2-14.5-13.5-3.7-3.2-10-6.8-13-9.9-4-4.2-15.6-27.9-15.7-33.2 0-6.8 17.5-22.4 21-29 5.4-4.1 29.2-2.8 35.7.2 8.4 3.8 12.4 12.1 18.5 17.5 5.2 4.5 2.5-1.7 2.5-3.6s.9-3.2.8-4.8c-.2-5.4-6.7-9.2-9.9-13.1-2-2.4-5.6-6.2-7-8.2-.9-1.3-4.9-7.8-5-8.8-.2-2.6 9.1-11.7 11.5-12.4 3.6-1-.5 5.5-.5 6.6-.4 5.2 5.9 4.1 9.3 5.6 1.2.5 3 2.7 3.2 2.7s2.4-2.7 3.8-3.2c7.8-3.2 11 1.2 6.8-11.7 1.6-1.7 12.5 9.1 12.9 11.7.6 4.5-17.6 23.1-21.1 27.5l-.8 12.7c1.7.4 2-.7 3-1.5 8.7-6.7 12.6-16.8 24.9-19.1 5.5-1 25.6-1.3 29.8 1.8 3.4 6.7 20.4 21.8 21 28.4.4 4.3-10.8 27.3-13.9 31.7s-9.8 7.6-13.8 11.2c-5.3 4.6-10.3 9.8-15.5 14.5-2.2.9-1.4-5.6-2.2-7.7-3.4-8.6-19-1.6-22.7 3.8-.7 1-7.1 13.9-7.3 14.7-2.7 12.8-5.5 27.3-.2 39.8 1.5 3.5 4.6 6.8 5.8 10.2 2.5 7.2-.5 15.2 5.8 21.2 9.4-2.8 19.1-24.9 27.9-24 5.2.5 13.2 10 14.9 9.8 5.8-.5 9.3-18.7 18.7-17.4 2.4.3 7.6 3.9 9.3 3.4s2-4.8 4.8-6.1c3.8-1.8 9.4-.4 13.3-3.7 11.5-9.7 8.1-43.1 2.5-56 1.6-1.7 11.3 10.4 12.4 12.1 5.1 7.8 6.1 15.5 9.7 23.3 1 2.1 4.8 9.8 7.8 8.2.4-.2 6.9-5.9 7.5-6.5 6.8-7.5 16-30.4 15.4-40.5-1.3-22.7-10.7-22.7-21.5-37.5-5.3-7.2 2.8-2.4 6 0 11.8 8.6 28 25.5 26.5 41 11.6 1.1 13.6-11.4 16.3-20.2 4.6-15.6 5.3-18.8-3.1-33.4-8.2-14.3-16.4-22.7-31.5-29.5-5.8-2.6-13.2-3.6-17.7-7.8 15.9 1.8 34.5 6.4 49 13.5 8.3 15 22.1 26.8 28.1 42.9l-15.2 44.9c-.9 3.7-13 4.8-13.8 5.8-.6.8-2.2 17.2-2.2 19.4-.2 31.7 2.4 50.4-13.1 79.9-2.6 5-12 16.3-12.6 19.4-.9 4.6 0 10.4-.5 15.5-.9 8.4-5.8 16.4-6.7 23.4-.4 3.5 1.3 7.7.8 9.7s-10.7 8.6-13.2 9.9c-2.2 1.2-5.7 1.5-6.5 2-.6.4-5.2 10.6-7.2 13.2-2.2 2.8-13.6 14.5-16.9 12.4-.6-.4-5.9-11.8-7.1-13.3-2.2-2.9-2.2 2.1-3.2 3.8-4.6 7.3-24.8 27-32.8 29.2-1.7.5-3.3.7-5 .5 1.1-8.2 2.6-16.6-8-18.6-9.7-1.8-16.2 7.5-18.5 15.6-1.2 4.3-1.2 16.7-7.8 14.9-4.3-1.2-20.3-25.6-23.2-30.8-5.5 8.6-11.5 19.1-18.5 26.5-1.8 1.9-6.9 7.7-9.3 3.3-2.8-5.3-2.5-14.6-5.5-20.5-3.8-7.2-14-11.7-21.2-6.8-6.6 4.6-2.9 10-3 16.5-3.4 3.4-23.5-12.8-26.5-15.9-1.5-1.5-11.4-13-11.9-14.1-.7-1.4-.2-6.3-2.6-3.3-2.1 2.6-6 14.4-10.2 13.3-2-.6-12-10.2-13.7-12.4-2.1-2.7-6.6-12.8-7.2-13.2-.8-.5-3.8-.6-5.8-1.7-2.5-1.4-11.8-7.1-13-9-2.3-3.8.4-6.7 0-10.8-1-7.2-5.8-15.5-6.7-24.4-.5-5 .6-10.7-.6-15.4-1-3.9-7.9-9.8-10.7-14.3-10.4-16.9-15.8-37.5-16.8-57.2-.8-15.6 1.6-31.1 0-46.5-18.8 0-17.3-14.5-21.7-27.8-2-5.8-9-19.6-8.1-24.5.6-3.1 5-9.2 7-12.1 2.9-4.3 18.7-27.3 20.9-29.1 1.7-1.4 8.5-4.5 10.7-5.3 9.6-3.2 28.2-7.1 38.2-8.3v-.7Zm16 128c-1.4-1.5-7.8 8.9-8.4 10.1-12.7 23.9-7.6 58.3 2.6 82.2 1.5 1.6 6.5 11.2 8.3 10.7 4.1-1.1 10.8-29 12.8-34.2 4.4-11.8 13.5-22.1 8.6-35.6-5.5-.6-12.8 1.4-16.7-3.8-.9-1.1-7.8-21.4-8-23.1-.2-2.4.8-4 .8-6.2Zm240 103c.6-.4 6.8-10.5 7.6-11.9 6.4-12.5 10.7-43.5 9.3-57.4-.7-6.6-8.4-30-14.4-32.6-2.3-1-.6 4.2-.9 6-.5 2.7-7.2 21.8-8.6 23.2-3.6 4.1-11.1 2.3-15.9 2.9-5 13.6 4.3 24 8.6 35.6 3 8.1 4.3 17.7 7.5 25.5.7 1.6 4.7 10.2 6.8 8.7m-262.3-85.7c-.8-.7-3.9-1.3-5.7-2.8-4.4-3.7-8.4-14.6-14.9-5.8-17.4 23.5 1.8 56.3 17.4 75.3.8.9 1.5 2.3 2.9 2.1 1.2 0 .7-22.5.5-24.5-.5-5.6-3.2-12.1-3.1-18 0-5.2 5.9-23.5 2.8-26.2Zm304-11c-4.6-3.9-11.2 6.2-14.7 9.3-1.3 1.1-3.1 1.1-3.8 1.7-3.3 2.9 2.8 21 2.8 26.2s-2.6 12.6-3.1 18c-.7 7.9.4 16.5 0 24.5 1.7.4 2-.5 3-1.5 14.2-14.6 27.2-41.2 23.9-61.9-.4-2.6-6.3-14.7-8.2-16.2Zm-83.2 26.7c-1.4.3-3.3 6.6-3.8 8.2-3 10.7-2.9 45.1 1.1 55.5 5.3 13.6 21.4-7.2 21.3-16.2-.2-14-7.6-26.7-13.3-38.8-.8-1.8-2-9.4-5.3-8.7m-165.2 65.7c10 8.3 12.4-2.6 13.6-10.3 1.6-10.6 2.8-43.6-2.7-52.1-4.7-7.3-6.5 4.3-8 7.4-5.3 10.7-15 29.9-11.4 42 .7 2.4 6.6 11.4 8.5 13m58-34c-2.6-2.2-10.5-14.2-12-14.5-1.3-.2-9.1 4.1-10.4 5.3-13.2 13-17.5 40.3-6.8 55.8 7.4 10.8 27.1 23.8 39.1 28.9 1.2.5 3 1.2 4.2.9.9-.2 7.4-15 8-17.1 4.7-14.6 7.5-38.8 1-52.9-5.9-13-12.1 3.2-23.2-6.3h.1Zm43.8 76.2c2.9 1.8 6.6-2.7 8.6-3.7 21.1-11.1 43.7-22.7 41.3-50.7-.7-8.7-6.7-24.8-13-31-1.2-1.1-8.4-5.2-9.7-5.3-3.5-.3-11.2 18.1-20.8 17.9-7.8-.2-11.2-7.8-15.8 4.2-5.2 13.4-2.8 36.6 1.3 50.3.7 2.3 7.3 17.8 8.1 18.4ZM885 1559c-5.2 1.1-6.5 7.6-5.8 12.2s5.4 23.4 7 27c1 2.2 6.2 8.5 8.7 6.7 3.4-2.4 3.2-20.7 4.1-25.4-.6-3-7.8-5.5-10-8.3s-4.3-8.6-4-12.2m269.1 45.9c2.7 1.5 7.8-5.3 8.8-7.5 1.5-3.4 6.2-22 6.9-26.2.8-5-.5-8.8-4.3-12.2l-5.1 10.9c-1.4 3.6-9.4 6.1-10.2 8.8-1.2 3.9.5 24.2 3.9 26.2M917 1563c-1.9-2.2-11.8 12.5-12.4 14.1-1.8 4.6-2.9 24.1-2.4 29.3.8 8.6 5.2 18.6 11.4 24.6 1.1-9 4.9-18.4 5.5-27.5.9-13-3.8-27.1-2-40.5Zm218 68c5.2-3.8 9.5-12.5 10.8-18.7 1.4-6.9.7-27.7-1.2-34.3-.6-1.9-10.4-17.4-12.5-15 1.7 13.9-3.1 27.7-2 41.5.7 8.7 4.6 17.6 5.1 26.5zm-186-62c-3.4-3.2-13.6 14.8-14.8 17.7-4 9.9-8.4 31.9-2.7 41.2 2 3.2 16 15.2 19.5 16.5 6 2.4 6.5-2.8 7-8 2.1-23.1-3.5-45.4-9-67.5Zm144.1 75.9c1.1.7 3.6 0 4.8-.4 3.2-1.2 16.9-13.1 18.9-16.1 8.3-13.1-.6-48.3-12.8-57.9-1.8-1.4-3.1-2.8-4.2 0-3.7 9.9-8.2 30.6-8.9 41.1-.3 4.8-.8 31.5 2.1 33.4ZM1018 1613c-3.5 0-6.1 2.5-9.6 2.9-13.1 1.6-28.5-14.2-41.4-15.9v22.5c0 1.1 2.9 9 4.1 9.9 6.5 5.2 18.9-.4 24.4 5.6 2.6 2.9 4.3 10.3 10.6 5.5 1.1-.8 11.9-13.1 11.9-14.1v-16.5Zm64-13c-13.3 1.4-27.9 17.6-41.4 15.9-3.5-.4-6.1-3-9.6-2.9v17.5c4.1 2.4 11.4 14.9 15.4 14.5 5.4-.5 6.1-8.2 10.5-9.6 5.4-1.7 16.2 1.1 21-3 1-.8 4-9.7 4-11v-21.5Z" class="outline" data-original-prefix="outline"/><path id="outline-mouth2" class="outline"  fill="#000" d="M1011 1292c-6.2 1-21.6 9.8-26 14.5-2.9 3.1-3.9 7.2-7.2 9.8-18.9.8-35.9 5.2-50.3 17.8-.9-.2-.3-1.9-.5-2 1.1-8.8 19.3-26.2 27.4-25 3.5.5 2.6 4.8 10 4 10.8-1.2 17.8-10.7 19.4-20.7.4-2.5-1.9-5.2 1.2-6.7 4.7-2.2 21.7 4.7 26 8.5z" class="outline" data-original-prefix="outline"/><path id="outline-mouth1" class="outline"  fill="#000" d="m1122 1332-.5 3c-10.9-11.7-25.5-16-41-18-2.9-.4-6.9.7-9.5-.5-1.5-.7-4.5-7.4-6.5-9.5-3.4-3.8-14.1-10.6-19-12s-4.7-.4-8.6-2.9c4.2-4.1 21-10.8 26-8.5 3.1 1.5.8 4.2 1.2 6.7 1.9 11.3 12.7 24.5 25 19.5 4-1.6 2.6-4.3 9.2-1.6 10.8 4.4 18.3 14 23.6 23.9h.1Z" class="outline" data-original-prefix="outline"/></g><g id="04_Eyes" data-trait="aviators KBDS"><path id="fill-eyes-main" class="fill"  fill="#fff" d="M1421.5 1220.6c-.3.6-8.8 2-10.4 2.1-4.8.4-15.8-1.8-18 3-2.8 30-4.2 58.5-16.7 86.3-10.3 23-35.2 57.7-58.2 68.8-30 14.6-98 10-129.5-.9-21.7-7.5-62.4-49.9-79.2-67.8-14.7-15.6-36.7-38.2-49-55-2.3-3.1-2.7-8.1-3-8.5-1-1-6.2 1.2-7.9.5-.6-.3-9.2-8-10-9-4.5-5.8-2.4-10.3-12.6-9.6-6.6.5-5.5 5.8-9.5 10.5-.9 1-8.4 7.8-8.9 8-4 1.5-8.1-3.5-15.1 4-18.2 19.5-35.3 41.4-53.9 61.1-19.6 20.7-56.2 59.4-82.8 67.2-31.3 9.1-92.1 13.6-121.9.5-28.7-12.7-59.2-59.7-67.8-89.2-6.3-21.6-6.6-45.2-9.7-67.3-2-3.1-15.1-2.3-19.2-2.8-1.7-.2-7.5-1.2-8.4-2.1-2.5-2.5-2.8-27.2-4.3-32.3-.2-1.4.3-1.4 1.3-1.8 5.7-2.5 20.8-1.6 25.3-5.7 6-11.4 9.3-26.8 19.4-35.6 2.6-2.2 6.7-2.1 4.6-5.5-2.7-4.3-20 0-21.5-7.5-1.3-6.8 5.7-32 8-39.9 7.8-26.3 27.3-70.8 46.9-90.1 6.5-6.4 7.6-3.2 14.5-4.5 3.3-.6 5.3-6.7 7.5-9.5 40.7-50.5 92.3-93.3 151.6-120.4 80.5-36.8 209.6-37 290-.3 59.2 27 110.4 69.5 151.3 119.7 2.3 2.8 5.7 9.9 8.6 10.5 7.2 1.4 8.7-2.3 15.5 4.5 24.3 24 47.4 83.1 53.5 116.5.6 3.2 2 10.7 1.4 13.5-1.6 8.2-20.9 1.9-22.8 8.2-1.9 6.2 5.4 12.9 8.3 18.3 2.4 4.4 8.1 20.4 9.9 22.1 4.7 4.2 23.9 4.2 25.1 5.9 1.8 11.6-1.8 22.9-2.4 34.1" class="fill" data-original-prefix="fill"/><path id="fill-eyes-rims" class="fill"  fill="#fff" d="M1415.7 1206.8c-.2-3-.4-6.1-.6-9.1-.3-5.7-4.5-10.5-10.5-10.5h-6.3c-1.2 0-2.4.2-3.4.5-.9-.3-1.9-.6-2.9-.8-2.3-.3-4.7-.3-7.1 0 2-23.3-16.1-42.7-36.1-51.8-11-5-22.6-8-34.3-11.1-12.5-3.2-24.9-6.7-37.4-9.7-8.8-2.2-17.6-3.5-26.5-4.3 2.5-6.2-.6-14.9-9.3-14.9-85.4 0-170.8.3-256.2.4h-68.7c-1-.3-2.2-.5-3.5-.5H808.2c-9.6 0-12.4 10.7-8.3 16.8-10.3 1.4-20.6 3.2-30.8 5.2-24.8 4.8-50.1 10.3-72.3 22.8-11.9 6.7-23.7 15.6-30.8 27.5-2.9 4.9-4.7 10.2-5.6 15.7-1.1-.2-2.3-.4-3.6-.3-3.6.2-6.7 2.1-8.5 4.8-1.5-.2-2.9 0-4.3.2-2.5-1.2-5.4-1.6-7.8-1-6 1.7-8.2 7.3-7.3 12.9.7 4.2 1.3 8.4 1.9 12.7.7 4.6 5.9 7.6 10.1 7.7h3.6c3.3 1.9 5.7 5 7.4 8.5 1.3 2.7 3.9 4.3 6.7 4.9 4.4 36.9 9.5 75.8 31.7 106.7 21.4 29.8 54.4 44.8 90.2 48.7 18.6 2 37.9 1.2 56-3.7 16.9-4.5 32.8-12.5 47.3-22.2 14.8-9.9 28.4-21.5 41.3-33.7s25.6-24.8 36.6-38.7c12.9-16.2 23.6-34 29.3-54 5-17.3 6.2-35.5 4.1-53.3 14.6-1.9 29.3-3.3 44-2.5 4 .2 8 .6 12 1.3.3 0 1.7.3 3.2.7l-1.4 29.7c-.2 3.2.9 5.6 2.6 7.2 2.2 11.9 4.2 24.9 10 35.4 3.2 5.7 7.2 11.1 10.9 16.5 2.2 3.3 4.4 7 6.9 10.4 0 1.6.5 3.2 1.5 4.6 10.8 14.4 24.5 25.8 37.8 37.7 13.4 12 26.5 24.7 41.2 35.2 27 19.4 60.3 29.7 93.5 29.9 2.9 0 5.2-.9 6.9-2.5 15.4-1.6 31-3.4 45.7-8.6 16.6-5.8 29.9-15.5 40.5-29.5 21.2-28 34.4-62.2 39-96.9 1.3-10 2-20 1.8-30.1 0-2.2 0-4.4-.2-6.6.2.2.5.3.8.5 5.8 3.5 13.2 3.4 18.9 0 2.8-1.8 5.2-5.4 5-9zM951.2 1270c-9.4 13.1-20.7 24.8-32.2 36.1-11.2 11-22.7 21.8-35.2 31.3-12.2 9.3-25.6 17.9-39.9 23.4-15.8 6.1-32 8.6-48.8 8.2-29.5-.6-60.2-9.5-80.7-31.8-26-28.3-30.8-69.3-35.2-105.8-.2-1.9-.8-3.7-1.7-5.3q.3-2.25 0-4.5c-.5-3.1-1.1-6.2-1.6-9.3 6-9.2 2.6-20 6.1-29.9 3.1-8.9 11.3-15.5 18.9-20.5 19.3-12.7 42.2-18.1 64.5-22.8 48.7-10.1 100.1-15.6 149.1-4 20.8 4.9 43.5 13.1 54.7 32.6 1 1.8 2.4 3.1 3.8 3.9-.5 1.9-.6 3.9-.2 5.6 6.7 33.2-2.3 65.8-21.6 92.8m110.8-109.7c-.3 1-.5 1.9-.5 2.8-4.3-1.2-9.1-1.7-13.3-2.2-19.8-2.5-39.7-.2-59.4 2.5.2-1.9-.2-3.9-1.4-6-11.7-20.4-32.8-32.1-54.6-38.9l-6-1.8c66.8 0 133.6-.2 200.3-.3-1.7.4-3.3.8-5 1.3-12.5 3.6-24.6 9.6-35.9 16-10.9 6.1-20.3 14.3-24.2 26.6m308 67.1c0 9.5-.8 19.1-2.4 28.5-3.2 18.9-9.2 37.2-18 54.2-8.1 15.6-17.6 32.9-33 42.2-16.3 9.9-36.1 12-54.7 13.9-2.3.2-4.4 1-6.2 2.2-29.3-.5-57.7-9.9-81.5-27-1.4-1-2.8-2-4.1-3.1-1.1-3.4-3.9-6.2-8.2-6.7-8.4-7.2-16.4-14.9-24.6-22.2-10.4-9.3-21.8-18.2-30.9-28.9 0-2.9-.8-5.7-3-7.5-4.3-3.5-7-8.9-10.1-13.5-3.3-4.9-6.9-9.8-9.9-14.9-2.6-4.6-3.4-10-4.6-15.1-1.5-6.5-2.9-13.1-4.2-19.6-.2-.7-.4-1.4-.7-2.1.7-10 1.8-20.3 1.3-30.2 0-1.8-.4-3.4-.9-4.8 3.4-.6 6.5-2.9 7.9-7.1 2.3-7.2 9.6-11.4 15.8-14.8 8.9-4.9 18.1-9.6 27.8-12.6 21.1-6.6 44.6-6.7 66.4-7.6 11.4-.5 22.7-.7 34.1-.8 11.3 0 22.7 0 33.9 2 11.3 2.1 22.4 5.4 33.6 8.3 10.4 2.7 21 5.3 31.3 8.3 17.9 5.3 40.8 16.5 38.6 38.8-.4 4.1 2.5 7.7 6.1 9.4l-.6 1.5c-1.5 4.5 0 9.9.3 14.6.5 5 .6 9.8.5 14.6" class="fill" data-original-prefix="fill"/><path id="fill-eyes-lens1" class="fill"  fill="#fff" d="M1179.4 1134.1c40.9-2.7 97.1 4.9 136.2 17.2 22.2 7 37.6 14.4 44.9 38.1 14.9 48.3-2.6 130.7-47 159.8-31.6 20.8-93.5 20.9-124.8-1-21.1-14.8-46.4-35.3-63.6-54.4-29.9-33.2-63.5-74-40-121 15.1-30.3 63.8-36.7 94.3-38.7" class="fill" data-original-prefix="fill"/><path id="fill-eyes-lens2" class="fill"  fill="#fff" d="M834.5 1134.1c35.7-1.8 110.2 1.6 129 37.4 25.1 47.6-10.3 90.4-40.8 123.8-16.7 18.3-57.6 53.5-80 62-40.4 15.3-96.8 9.2-126-25-28.6-33.3-50.7-133.3-14.9-165.9 21.7-19.9 102.6-30.8 132.7-32.3" class="fill" data-original-prefix="fill"/><path id="outline-shading-eyes15" class="outline"  fill="#000" d="M1068 1185c4.4 6.7-1.2 7.5-2 11.5-2.6 13.5 4.2 36.9 3.5 51.4 26.1 33.1 54.5 68.2 87.6 94.4 9.4 7.5 24.7 19.5 35 25 22 11.8 82.3 10.8 107.3 6.4 5.1-.9 19.6-6.7 22.7-3.4 3.6 3.9-1.3 5.4-4 7-23.1 13.8-56.4 9.4-82.5 7.5-12.8-.9-39-2.2-50.2-5.8-8-2.6-29.2-21.2-36.3-27.7-26.1-23.9-48.5-51.5-74-76-13.8-13.2-29.1-24.5-42.5-38.5-1.1-1.2-2-3.4-2.9-4.1-.8-.6-7.7-1-9-.9-2 .2-17 17.3-20.5 20.5-7.2 6.4-16.1 11.4-23 17.9-33.4 31.5-60.8 69.3-97.5 97.5-19.5 15-31 13.9-55 16-22.9 2-62 6.4-83-1-2.1-.7-15.4-7.1-16-8-2.2-3.6 1.6-6.1 4.9-6 3.6 0 7.3 2.8 10.6 3.5 28.8 6.1 75.6 6.2 104.3-.8 9.4-2.3 18.7-9.8 26.7-15.3 26.6-18.6 50-41.2 71.6-65.4 5.6-6.2 34.7-40.5 35.4-45.6 2.3-15 1.5-32.7 3.1-48 .5-3.2-3.9-4.3-4.1-7-.2-2.5 2.2-3.2 2.1-5.4-4.5.8-11-4.6-6.6-8.1 3.7-2.9 4.7 2.1 7.3 2.9 5.5 1.7 7-1.6 10.8-2.8 29.1-9.3 36-9.4 65.1 0 3.7 1.2 5.2 4.5 10.8 2.8 2.2-.7 3.1-4.4 6-3.7 5.7 1.9 0 10.6-5.7 9.2m-30 0c-9.5-1.8-18.7-3-28 .5 5.4 1.1 7.7 5.6 9.3 10.7 1.5 4.7-1.1 8.7 6.2 7.9 2.9-.3 2.4-5.8 3.4-8.6.6-1.7 2.2-5.7 3.2-6.8 2-2.5 4.8-1.4 5.9-3.7m15 12c-.2 0 0 1.8-1 2.4-7.9 5.8-11.5 9.7-21.5 9.6-5.1 0-8.6-.2-13.9 0-11.1.4-14.8-6.6-23.5-12.1l-3 30c2 2 17.7-4.1 21.5-4.1 5.8 0 8.3 4.7 16.8 2.9 1.8-.4 3.2-1.9 4.7-2.3 7.2-2 17.2 4.9 25 3.5l-3-29.5c0-.8-2-.5-2.1-.4" class="shading" data-original-prefix="shading" opacity=".2"/><path id="outline-shading-eyes14" class="outline"  fill="#000" d="M1119 1095c10.8-7.5 22.7-13.9 34.3-20.2 23.5-12.8 49.4-20.6 66.1-41.9 11.6-14.8 20.3-27.2 12.4-46.3-12.8-31.1-52.4-80.9-79.9-100-14.9-10.4-32.6-16.6-45.9-29.1 9.3.7 20.3 4.3 29.5 7.5 66.1 22.7 136.7 74.8 177.9 131.1 2.8 3.8 12.4 14.4 8.3 18.7-3.2 3.3-25.6 8.5-31.7 10.8-38.2 14.4-82.4 31.5-116.9 53.1-3.8 2.4-21.2 16.4-22.6 16.4H1119Z" class="shading" data-original-prefix="shading" opacity=".2"/><path id="outline-shading-eyes13" class="outline"  fill="#000" d="M897.5 1095c-1.5-.4-19.2-14.3-23.2-16.8-34.2-21.3-79.2-38.9-117-53-5.4-2-30-7.6-31.8-11.2-1.9-3.9 2.8-9.6 5.1-12.9 27.2-39.7 72-78.2 113.1-102.9C873.9 880 907.3 864 942 857c-12 12.1-28.8 18.2-42.9 27.6-25.1 16.6-49.7 46.7-66.1 71.9-4.3 6.6-20.6 33.7-20.8 40-.5 14.1 11 30.6 19.9 41 15.3 17.9 40.9 24.1 60.6 36.4L929 1095c-8.1-1.5-24.5 2-31.5 0" class="shading" data-original-prefix="shading" opacity=".2"/><path id="outline-shading-eyes9" class="outline"  fill="#000" d="M1254.8 1109.8c-.2.4-7.5 3.9-8.3 4.2-7 2.4-26.3.2-35 0-34.8-1-70.2-1.7-105-2-20.2-.2-40.1 1-60 1-70.4 0-140.6-1.1-211.1 1-8.6.3-27 2.4-34 0-.8-.3-8-3.8-8.3-4.2-.7-1.2-.4-6.1.8-7.4 3.3-3.4 9.3.3 13.5.6 27.4 1.9 59.2 1.5 87 2 89.1 1.7 177.1.6 266-1.1 25.9-.5 54.5.8 80.1-.9 3.7-.3 11.5-4.2 14 0 .7 1.3 1 5.9.3 6.9Z" class="shading" data-original-prefix="shading" opacity=".2"/><path id="outline-shading-eyes8" class="outline"  fill="#000" d="M768 1115c.3 1.4-1.1 1.1-2.2 1.3-18.2 4.5-36.7 6.8-55 12-5.2 1.5-14.4 6.4-18.8 5.3-3.5-.9-8.9-4.9-12.3-6.7-1.4-.7-7.4-2.5-7.7-2.8-1.4-1.9 3.7-3.1 4.9-4.6 4.7-5.7 8.4-20.1 13.3-26.7 1.1-1.5 1.3-2.2 3.4-2.6 4-.8 27.7-.5 31.5.4z" class="shading" data-original-prefix="shading" opacity=".2"/><path id="outline-shading-eyes7" class="outline"  fill="#000" d="M1376 1124c-.3.4-6.9 2.3-8.4 3.1-3.3 1.7-8.2 5.5-11.6 6.4-4.4 1.2-13.6-3.8-18.8-5.3-18.3-5.2-36.4-7.3-54.4-11.6-1-.2-3-.3-2.8-1.7l42.7-24.8c5.9.5 30.6-1.8 33.8.8 4.6 3.8 9.2 22.8 14.6 28.4 1.3 1.4 6.2 2.9 4.9 4.7" class="shading" data-original-prefix="shading" opacity=".2"/><path id="outline-shading-eyes6" class="outline"  fill="#000" d="M1075 1141c1.6-3.5 12.5-25.6 14-26.5 1.9-1.1 14.6-1.1 16.1.9 6.7 8.5-8.9 12.6-13.8 15.4z" class="shading" data-original-prefix="shading" opacity=".2"/><path id="outline-shading-eyes5" class="outline"  fill="#000" d="M945 856c.7.3-.6 1.7-2 1-.7-.4.6-1.7 2-1" class="shading" data-original-prefix="shading" opacity=".2"/><path id="outline-shading-eyes4" class="outline"  fill="#000" d="M1105 856c.7.3-.6 1.7-2 1-.7-.4.6-1.7 2-1" class="shading" data-original-prefix="shading" opacity=".2"/><path id="outline-shading-eyes3" class="outline"  fill="#000" d="M958.8 1114.2c1.4.8 13 24.2 14.7 27.8-3.8-2.6-7.3-5.4-11.2-7.8-3.7-2.2-18.8-9-19.8-11.2-1-2.3-1.1-7.2 1.5-8.5 1.5-.7 13.7-.9 14.8-.3" class="shading" data-original-prefix="shading" opacity=".2"/><path id="outline-shading-eyes1" class="outline"  fill="#000" d="M721.5 1346c.7.3.7.7 0 1z" class="shading" data-original-prefix="shading" opacity=".2"/><path id="outline-eyes16" class="outline"  fill="#000" d="m1249.1 1368.1 82.7-212.5-25.7-9.4-87.4 219.5c-7.7-3.2-18.2-4.6-25.4-8.6-1.1-.6-19.3-14.2-19.1-15.8l86.6-206.4s15.2.6 48.8 8c60.3 13.2 64.8 33 59.7 99.4-11.7 55.2-18.2 89.4-68.9 119.4-12.1 4.8-24.6 6.4-37.4 7.2l-13.9-.9Z" class="outline" data-original-prefix="outline"/><path id="outline-eyes12" class="outline"  fill="#000" d="M875.3 1338.3c-4.1 3.7-6.6 10.1-9.4 13.1-1.1 1.2-9.2 6.5-7.7 1.3l79.9-204.7c2.3-1.9 13.8 7.4 16 9.4 16.1 14.9 20.1 37.7 17.9 58.9-3.8 35.8-44.3 79.1-70.9 102.1-8 7-18.5 13.3-25.8 19.9" class="outline" data-original-prefix="outline"/><path id="outline-eyes11" class="outline"  fill="#000" d="m784.3 1368.4 95.9-236.5c9.8 2.2 8.6 2.1 18.4 4.1 1.2.2 1.8-.8 1.5 1.5L808.5 1369c-5.9 0-24.3.3-24.2-.6" class="outline" data-original-prefix="outline"/><path id="outline-eyes10" class="outline"  fill="#000" d="M1136.2 1311.7c-.8 0-35.9-42.4-37.2-44.2-6.1-8.5-13.4-18.9-17-29-7.5-20.7-9.4-43.8 0-64.2 15.6-34.6 70.6-44.3 129.8-44.4l-75.5 181.8z" class="outline" data-original-prefix="outline"/><path id="outline-eyes2" class="outline"  fill="#000" d="M808.9 1133.7c-21.2 48.4-63.1 163.8-83.9 212.3-2.7 6.2-30.9-43.2-29.9-36.5.6 4.2-3.7-7.4-9.7-36.4-13.8-66.2-21.8-112.9 49.5-132.8 38.3-10.7 74.1-14.7 74-6.6" class="outline" data-original-prefix="outline"/><g id="outline-eyes" class="outline"  class="outline"><path id="outline-eyes21" class="outline"  fill="#000" d="M993 1256c-1 4-2 4.8-4.5 8-14.2 18.2-34.4 39.6-50.5 56.5-17 17.9-47.1 49.2-67.7 61.3-24 14.1-91.5 17.2-118.5 11.9-29.6-5.8-47.2-25.6-64-49-25.1-35-31.7-73.2-32.8-115.7h-17.5c-.5 0-7.7-1.5-8.3-1.7-4.5-2-5.8-20.7-6.2-25.8-.3-3.7-1.6-15.3.5-17.5 3.5-3.7 22.8-2.9 26.3-6.2 1.1-1.1 2.7-8.4 3.7-10.8 3.6-8 7.8-15.8 13.5-22.5-14.5-3.8-23.3 2.8-22-17 1.8-29 22-77.6 37.6-102.4 4.3-6.9 20.8-32.7 28.8-32.1 2.1.2 3.9 2.7 5.6 1.6.5-.3 4.7-7.4 6-9 42.4-52.1 97.9-98.4 160.3-124.7 80.6-34 211.7-32.3 291 4.3 44.4 20.5 92.8 56.2 126.2 91.8 6.8 7.2 23.5 25.4 27.9 33.1 1.2 2 1.8 3.5 1.6 6 3.5-.3 5.5-3.6 9.3-2.8 1.8.3 7.3 4.8 8.8 6.3 11.7 11.9 33.9 51.3 39.6 67.4 4.9 13.6 16.7 54.3 16.1 67.4-.6 12.3-13.3 7.2-21.8 9.8-1.2 1.5 3.7 6.8 4.8 8.7 3 5.3 6.6 11.9 9.1 17.1.9 1.9 1.5 7 2.3 8 3 3.5 25 2.6 26.6 6.9.4 1.1 0 3 0 3.3l-3 34c-.5 1.2-.2 2.5-1.3 3.7-4.4 5.2-23.1 1.8-25.6 3.4-.4.3-.7 5.3-.8 6.5-.7 9.2-1 10.5-2.1 20-.2 1.5-1 7.5-2.2 14.4-7.3 46.4-41.9 113.1-92.2 123.3-27.5 5.6-95 2.9-119.5-11.1-25.2-14.4-61.4-54-81.8-76.2-11.4-12.4-29.7-31-38.9-44.1-3.2-4.5-2.7-6-3.6-10.9-3.9-20.4-3-38.7-5-58.5-.2-1.4-.8-5.7-1.5-6.5-3-3.8-26.8-4.4-32-4-3.8.3-14.8 2.1-16.1 5.9-.7 11.2-.5 22.4-1.5 33.6-.7 9.7-2.3 24.8-4.8 34.3zm-195.5-165H888c-10.2-9.4-23.2-15.1-33.9-23.6-1.1-.9-8.4-6.1-7.1-7.4 21.5 6.1 37.4 23.6 58.6 30.9h236c22.1-5.8 38.1-24.5 59.9-31 1 2.5-4.7 5.9-6.6 7.4-10.8 8.4-23.7 14.3-33.9 23.6h91.5c.5 0 5.1 5.2 5.7 6.3 1.5 2.9 1.8 10.4 2.4 10.8 2.4 1.4 18.4 2.4 22.7 3.1 19.7 3.2 40.8 7.2 59.8 13.2 3.1.9 12.4 5.7 14.3 5.7s14.7-7.8 18.5-8.6c1-14.6-5.9-28.1-11.9-41-3.3-7.2-7.2-15-11-22-2.4-4.5-16.1-28.6-18.6-30.4-2.9-2.1-20.6-1.2-25.1-.9-14.3.9-28.6 3.6-42.5 7-1.9-1.7 12-11.3 13.3-12.2 8.4-5.8 17.8-10.6 26.8-15.4-4.4-19.8-20.1-36-34.6-49.4-58.1-53.7-155.6-100.6-235-104-90.4-3.8-194.3 42.3-260.5 102.5-14.8 13.4-31 29.9-35.9 49.9 9 5.9 18.8 10.3 27.6 16.4 1.3.9 15.2 10.6 13.3 12.2-13.9-3.4-28.2-6.1-42.5-7-4.5-.3-22.2-1.2-25.1.9-2.5 1.8-16.2 25.9-18.6 30.4-3.8 7-7.7 14.8-11 22-5.9 12.8-13 26.6-11.9 41 3.1.7 16.9 8.6 18.4 8.5 1.6 0 11.5-5.1 14.9-6.1 26.3-8 53.9-11.8 81.1-15.7 1.2-.6.2-15.3 10.4-17.1m21.5 9h-16.5c-4.4 0-4.4 9-2 9H816c.5 0 2.3-7.9 3-9m404 9c.5-4.6-1.9-7.1-6-8.5H830c-3.9 1.8-4.8 4.8-6 8.5zm22.5-9c-4.7-.9-11.5.6-16.5 0 .5 1.5 2.6 9 3.5 9h15c2.2 0 2.5-8.2-2-9m-451.7 17.3c-27.5 2.3-85.6 15.5-108.1 30.9-17.2 11.7-21.7 48.9-21.7 68.4-.2 51.9 12.7 106.6 51.5 143.5 34.7 33 102.4 26.3 144 10 25.7-10.1 68.2-56.5 88-78 7.7-8.4 28.7-30.1 33.4-38.6 3.5-6.4 6.5-45.2 7.1-54.9s-7.1-7.4-7.9-4.8c-.3.8 1.1 10.8.9 13.8-2.8 50.6-57.6 103.7-95.5 133.5-41.3 32.5-108.5 45.8-155.4 17.4-48.2-29.2-73.2-143.5-44.2-191.1 8.5-14 33.7-22.3 49-27.1 54.7-17.2 174-27.9 220.2 11.2 2.6 2.2 12.7 14.2 13.6 14.4.6 0 9.7-4.7 11.3-5.5-10.2-22.7-43.3-32.7-66-37.9-32.6-7.6-86.5-8-120.2-5.2m273.1 74.8c-.8-.5-5-.3-5.9.3-1.3.9-1 3.6-1 5.1 0 12 2.4 30.7 4.2 42.8.4 2.7.7 6.3 1.3 8.7 1.9 7.2 28.3 35.6 35 43 21.6 23.5 62.8 69.1 91.8 79.2 34.2 12 96.1 19.8 127.5-1 26.7-17.7 46.4-53.3 55.5-83.5 9.2-30.4 14.1-104.1-4.8-130.7-7.2-10.1-36.4-21.9-48.7-25.3-54.7-15.5-139.3-21-194.2-6.7-16.9 4.4-45.7 14.5-56 29-7.8 10.9.2 7.8 7.8 12.9 21.9-30.3 61.3-36.4 96.1-39.9 48.3-4.9 131.7 3.4 173.8 29.2 28.1 17.2 27.4 67.3 23.6 96.2-5.3 39.8-28.8 99.1-69.3 113.7-82.7 29.8-142.3-17-194.5-74.5-21.3-23.4-39.8-49.1-42-82-.3-2.9.9-15.8-.2-16.5m28.1-73.1H954c3.5 8.3 13.6 11.1 20.5 17 7.4 6.2 13.3 14.2 19.1 21.9l58.9.2 2.9-1.1c5.2-8.5 12.3-16.7 20.2-22.8 4.7-3.6 13.8-7.5 17.3-10.7 1.2-1.1 2.3-2.8 2.1-4.5m-261.2 15.3c-30.1 1.5-110.9 12.4-132.7 32.3-35.8 32.6-13.7 132.6 14.9 165.9 29.2 34.1 85.6 40.3 126 25 22.4-8.5 63.4-43.7 80-62 30.5-33.4 65.9-76.2 40.8-123.8-18.9-35.8-93.4-39.2-129-37.4m345 0c-30.6 2.1-79.2 8.5-94.3 38.7-23.5 47 10.1 87.9 40 121 17.2 19.1 42.5 39.6 63.6 54.4 31.3 21.9 93.2 21.8 124.8 1 44.4-29.2 61.9-111.5 47-159.8-7.3-23.7-22.7-31.1-44.9-38.1-39.1-12.3-95.3-19.9-136.2-17.2m-106.1 37.9c-1.2-1.1-8.5-2.6-10.5-2.9-19.1-3.4-64.9-4.5-83 1.4-3.8 1.2-5.3 1.4-5.3 5.8 0 9.1 6.6 8.9 14.2 7.1 4.5-1.1 8.5-6.5 14.1-7.9 10.5-2.6 39.3-2.8 48.5 2.1 7.3 3.9 9.2 8.3 19.8 6.2 3.5-.7 4.5-9.7 2.2-11.8M636 1196.5c-.7 2.2 0 13.5 0 17s14.9.4 18 1.5c-1-2.1 1.7-22.1.5-22-3.2 1.8-17.4 0-18.5 3.5m776 17c.8-2.7 0-13.2 0-17s-16-1.9-18.5-3.5c-1.2 0 1.5 19.9.5 22 3.9-1.3 16.8 2.8 18-1.5" class="outline" data-original-prefix="outline"/><path id="outline-eyes1" class="outline"  fill="#000" d="M998 1252c11.2-12.1 21.2-29.1 19.5-46 5.4 3.1 9.1 2.3 14.5 0-2.8 10.5 3 24 8.8 32.7 1.6 2.5 10.1 11.5 10.2 12.3.6 3.3-5.9 8.9-7 8-.9-5.7-7.9-7.8-12-12.5-1.3-1.5-3.3-4.1-4.3-5.8-1.4-2.5.7-4.5-4.3-3.8-2.1.3-5 8-7.5 10.6-3.5 3.8-10.8 6.1-11 11.5-1 1-7.1-4.8-6.9-7" class="outline" data-original-prefix="outline"/></g><path id="fill-eyes-logo-kbds5" class="fill"  fill="#fff" d="M1842 1875.7h6.2c6.4 3.1 12.7 6.3 19.2 9.3 2.3 1.1 4.7 2.2 7.4 1 7.2-3.4 14.5-6.9 21.7-10.3h6.2c3.3 1.1 6.7 2.2 9.9 3.4 4.9 1.8 9.9 3.6 11.9 9.3.8 2.2 1.7 4.2 2.9 6.2 2.1 3.7 4.2 7.4 9.3 7.5 9.3 0 18.6.4 27.9.6 3.1 0 5.5 1.3 7.1 4 4.3 7.1 8.6 14.2 12.9 21.2v16.8c-.2.4-.5.7-.6 1.1-2.6 9.4-7.8 16.9-16.3 21.9-7.2 4.3-14.8 2.5-22.4 2-4.3-.3-8.6-.6-12.9 0-1.6.2-3.8 2.2-4.3 3.8-.8 2.3 1.4 3.6 3.5 4.6 4 1.8 8.1 1.6 12.2 1.6s4.2.9 4.6 3.4c.3 2.3-1 3.8-3 4.6-1.4.6-2.9 1.1-4.4 1.4-7.6 1.6-15.2 3.3-22.9 4.5-9.5 1.4-20.4 2.9-29.9 4.1-.5 0 .5-.3 0 0h-31.4c-2.1-.2-4.3-.4-6.4-.6-8-1.1-16.1-2-24-3.4-8.6-1.6-17.2-3.6-25.7-5.6-3.1-.7-4.6-2.8-4.1-4.9.5-2.5 1.9-3.4 5.5-3.4s8.1 0 11.9-1.8c2-.9 3.8-2.6 2.9-4.7-.6-1.6-2.8-3.5-4.3-3.6-6-.2-12.2-.4-18.2.6-11.7 1.9-20.8-2.4-27.2-11.6-2.9-4.2-4.6-9.2-6.9-13.8v-16.8c4.3-7.1 8.6-14.1 12.9-21.2q2.25-3.75 6.6-3.9c7.5-.3 15.1-.4 22.6-.6h5.6c3.2 0 5.8-1.2 7.4-4 1.8-3.3 3.6-6.6 5.3-9.9 1.6-3.2 3.4-6 7.1-7.2 4.9-1.6 9.7-3.5 14.5-5.3zm30.3 111.9c7.6-1 15.3-1.4 22.7-3 12-2.7 20.6-9.6 23.1-22.3 1.6-8.5-1.4-11.8-8.9-11.8s-10.2.5-15.3.4c-2.2 0-4.6-.7-6.6-1.6-9.2-4.2-18.7-4.9-27.8-.7-7.6 3.5-15.2 2.2-22.9 1.9-5.6-.2-10.3.9-10.4 8.2 0 10.5 7.8 20.6 18.5 24.4 8.9 3.2 18.2 3.7 27.6 4.5m-78.6-71c-9.6 0-15.4 3.9-20.3 10.1-3 3.7-5 8.2-4 13.5 2.3 12.1 13 20.3 24.6 20.2 8.3 0 15.3-3.9 20-11 2.4-3.6 4.4-7.6 4-12-1.2-12.1-12.7-21.2-24.4-20.8zm157.1-.2c-1.9.3-3.8.4-5.7.8-11.9 2.5-24.4 16.9-15.3 31 5.2 8.1 12.7 12.4 21.9 12.1 9.5-.3 17-5.3 21.3-14 1.4-2.9 2.8-6.5 2.4-9.4-1.8-11.9-12.7-20.7-24.6-20.5m-107.2-23.3c-6.5-.4-12.3 1.8-17 6.2s-8.5 9.6-7.1 16.6c2 10.2 10.8 18.3 21.4 19.3 10.9 1 19-3.9 24.4-13 2-3.3 3.3-7 2.3-11.1-2.7-10.8-13.7-18.8-24-18m57.4 0c-8.3-.4-14.7 3.2-19.7 9.4-3.5 4.3-5.8 9.3-3.9 15.1.7 2.2 1.7 4.5 3 6.4 4.5 6.6 10.7 10.8 19 11.3q13.8.75 21.9-10.5c2.7-3.7 4.9-8 4.1-12.4-2.1-11.5-12.6-19.8-24.4-19.3" class="fill" data-original-prefix="fill"/><path id="fill-eyes-logo-kbds4" class="fill"  fill="#fff" d="M1804.6 1953.4c-.3 0-.7.2-1.2.2s-1.2-.2-1.8-.5c-.7-.3-1.1-.5-1.1-.5s-.4.2-.9.5-.8.5-.9.5h-1.3c-.4 0-.5-.3-.3-1 .2-.9.3-1.4.3-1.7 0-1.4-.9-3.8-2.7-7l-2.8-5.1s-.3 0-.5.3c0 .4-.4.9-.6 1.6-.4 1.5-.6 3.1-.6 4.7 0 3.4.6 6 1.7 7.7-.2.4-.8.6-1.7.6s-1.1-.2-1.7-.5-.9-.5-1-.5-.5.2-1.2.6-1.1.6-1.3.6c-.4 0-1-.2-1.7-.7 1.1-2.4 1.7-5 1.7-7.9s-.2-2.6-.7-4.3-.7-2.5-.7-2.4c0 0 0-.4.4-.9.2-.5.4-.8.4-.9.5-1.8.7-3.4.7-4.9q0-4.35-1.5-7.2v-.6q1.05-.3 1.5-.3 1.05 0 2.7 1.2c.2 0 .6-.3 1.1-.8.5-.3 1-.4 1.4-.4h1.2v.4c0 .3 0 .8-.4 1.4-.2.6-.4 1-.4 1.2q-.6 3.3-.6 4.8c0 3.6.4 5.5 1.3 5.9.2 0 .4 0 .5-.4.4-.7 1.3-2.6 2.8-5.5 1.4-2.8 2.2-4.6 2.2-5.3s-.2-1.2-.7-2.1c.4-.4.7-.6 1.1-.6.7 0 1.3.2 1.9.6s.9.6 1 .6.4-.2.8-.6.7-.6.9-.6h1c-.4.7-1 1.7-1.6 3 0 .2-.3 1.7-.8 4.6-1.7 1.1-3 2.6-4 4.4s-.7 1.4-.7 1.7c0 .6 1.2 1.8 3.7 3.6.7 2.7 1.2 4.8 1.8 6.3.9 2.5 2 4.6 3.2 6.2Z" class="fill" data-original-prefix="fill"/><path id="fill-eyes-logo-kbds3" class="fill"  fill="#fff" d="M1853.1 1919.7s0 .3-.2.5c0 .2-.2.4-.3.5v2.3c0 .7-.2 1.3-.6 2-1.4 2.5-4.3 3.8-8.9 3.8s-2.9 0-3.9-.3c0 0-.5-.2-1.1-.5s-1-.4-1.1-.4-.4 0-.8.4-.7.5-.8.5h-1c-.7 0-1.2 0-1.5-.2 0-.3 0-.9.3-1.8.4-1.1.6-1.7.6-1.9.3-1.9.4-3.5.4-4.6q0-3.3-.9-5.7c0-.4-.2-.7-.4-1 0 0 0-.5.4-1.2s.4-1.1.5-1.3c.3-1.3.4-2.7.4-4.2s-.2-2.5-.6-4.2-.6-2.6-.6-2.8v-.9h1.2c.7 0 1.6.3 2.8 1 0 0 .6-.2 1.4-.5s1.4-.5 1.5-.6c.6 0 1.5-.2 3-.2 2.6 0 4.7.5 6.4 1.4 2.1 1.2 3.1 2.9 3.1 5.3s0 .5.3.9q.3.6.3.9c0 .3 0 .4-.3.8-.2.4-.3.7-.4.9 0 1.2-.3 2.1-.6 2.6-.5.7-1.1 1.2-2 1.5-.7 0-1.3.3-2 .4v.3c1.3.4 2.1.7 2.3.8 1 .5 1.6 1.2 1.9 2 0 .6.2 1.5.4 2.6.3.7.5 1 .5.9zm-6.1-12.3-.2-.2c0-.6.2-1.2.2-1.7 0-2.1-1.2-3.1-3.5-3.1s-3.7 1.7-3.7 5 1.2 5 3.7 5 3.5-1 3.5-3.1 0-1.1-.2-1.7zm.3 14.4c0-.2 0-.6-.3-1.1-.2-.6-.3-.9-.3-1.1s0-.5.3-1c.2-.5.3-.8.3-1 0-2.2-1.2-3.3-3.5-3.3s-4.1 1.8-4.1 5.4 1.4 5.7 4.1 5.7 1.9-.3 2.6-.9c.6-.6 1-1.5 1-2.5v-.2Z" class="fill" data-original-prefix="fill"/><path id="fill-eyes-logo-kbds2" class="fill"  fill="#fff" d="M1912.5 1913.1s0 .4-.4 1-.4.9-.4 1v6.7c0 .4-.2 1.2-.6 2.1-1.1 3.1-4.1 4.6-9 4.6s-3.2-.3-5-.8l-.9-.4s-.4.3-1.7.9h-1c-.7 0-1.2 0-1.5-.3v-.6s0-.3.3-.7c.2-.3.3-.6.3-.6l.8-3.4v-2.7c0-1.5-.3-3.7-.9-5.7q-.6-.6-.6-1.2c0-.6 0-.5.4-1s.5-.9.5-1c.4-1 .6-2.6.6-4.7s-.5-4.8-1.5-7.7c.7-.3 1.2-.4 1.5-.4.7 0 1.7.3 2.9 1 0 0 .5-.2 1.3-.5s1.2-.5 1.5-.6c.6 0 1.6-.2 3-.2s3.1.2 4.6.7c.6.2 1.3.6 2.1 1.3s1.4 1.3 1.6 1.8c.8 2 1.2 3.1 1.2 3.2v5.9s0 .5.4 1 .4.9.4 1v.3Zm-6 5.3c0-2.2 0-3.5-.2-4-.3-1-.5-1.4-.5-1.2 0 0 0-.5.3-.9.2-.5.3-.8.4-1v-2.7c0-1.5 0-3.2-.4-3.9-.5-1.5-1.7-2.2-3.5-2.2s-3.1.6-3.5 1.9c0 .4-.2 1.8-.2 3.9v3.6s0 .4.3.7c.2.3.3.6.3.7s0 .4-.3.7c-.2.3-.3.6-.3.8v6.2c0 2.9 1.2 4.3 3.6 4.3s3-.9 3.6-2.6c.3-.8.4-2.2.4-4.3" class="fill" data-original-prefix="fill"/><path id="fill-eyes-logo-kbds1" class="fill"  fill="#fff" d="M1961 1945.2c0 2.9-.9 5-2.7 6.5-1.7 1.4-3.9 2.1-6.8 2.1h-1.9c-.5 0-1.7-.3-3.4-1-1.8-.7-2.9-1-3.4-1s-1 0-1.3.2c0 0-.2-.2-.2-.4s.2-.6.7-1l1.2-.9c-.2-.4-.5-1.1-.8-2l.2-1.2c2.4 2.8 5.3 4.2 8.6 4.2s4.9-1.4 4.9-4.2-.5-2.5-1.5-3.4-2.2-1.4-3.6-1.4-.8 0-1.1.2c0-.7-.8-1.4-1.8-2.3-.8-.6-1.6-1.1-2.5-1.7-1-1-1.7-1.8-2-2.5-.4-.8-.7-1.9-.7-3.1q0-3.6 2.4-6c2.4-2.4 3.6-2.4 6-2.4s2.4.3 4 .9q2.7 1.05 3.9 1.2c-.4.4-.8 1.1-1.3 1.9 0 .8-.2 1.7-.4 2.5-.4-.4-1-1-1.7-1.8-1.1-.9-2.4-1.4-3.9-1.4-2.9 0-4.3 1.3-4.3 4s.4 2.2 1.3 3c.8.8 1.9 1.2 3.1 1.2s.9 0 1.4-.2c.2.8.9 1.5 1.9 2.3.9.5 1.8 1 2.6 1.6 2.2 1.5 3.3 3.6 3.3 6.2h-.2Z" class="fill" data-original-prefix="fill"/><path id="fill-glasses-logo9" class="fill"  fill="#fff" d="m743.5 1162.1-.5-1.7-.6-.9c0-.2-.3-.3-.7-.4s-.5-.2-.7-.2l-1.5.2c-.5 0-.7 0-.9.3 0 0-.2 0-.4.4-.2.2-.3.2-.3.2h-.9c-.1 0-.3 0-.5.3.5.7.9 1.5 1.1 2.2s0 1.1.2 1.5v.7s0 .2.4.4c.4.6.5 1 .7 1.6s0 .7 0 .8l.2 1.3v.5h.8c.3-.3.4-.5.5-.5l1.8-.2c1.5-.4 2.3-1.2 2.3-2.2v-.7l-.7-2v-.7s-.2 0-.3-.3c0-.2-.2-.3-.2-.3h.2-.2v-.3zm-.8 3.9c0 .5-.3.8-.8 1s-1.1 0-1.3-.9v-.7c0-.7-.3-1.1-.4-1.2v-.9s0-.5-.3-1.1 0-1.1-.2-1.2c0-.4.3-.6.8-.8s.9 0 1.2.4c0 .2.3.6.5 1.1s0 .7 0 .8v.6l.2.3s.3.5.5 1.1 0 1.1.2 1.3h-.3l-.2.2Z" class="fill" data-original-prefix="fill"/><path id="fill-glasses-logo8" class="fill"  fill="#fff" d="M749.9 1160.9c-.3 0-.6 0-.9-.3-.3-.2-.6-.3-.8-.5h-1.4c-.3 0-.6-.4-.6-.7 0-.8 0-1.2.9-1.5s.9 0 1.2 0 .5.2.7.4v-1.4h-1.2l-1.3.2c-.8 0-1.2.7-1.6 1.3-.3.6-.4 1.4 0 2s.3.7.5.9c0 .2.4.3.8.6.3 0 .6.2.8.3.4 0 .6.3.7.5h1.4c.3 0 .6.4.7.8 0 .8 0 1.3-1 1.6s-1.9.3-2.9-.5v.4c0 .2.3.4.4.5l-.3.3c0 .2-.2.3 0 .4v.2h.4c.4 0 .5 0 1.1-.2s1 0 1.1 0h.6c.9-.4 1.5-.9 1.8-1.4.4-.7.5-1.4.2-2.2s-.8-1.3-1.6-1.6h.4-.1Z" class="fill" data-original-prefix="fill"/><path id="fill-glasses-logo7" class="fill"  fill="#fff" d="M713.3 1174.7c-.3-.4-.6-.9-1-1.7-1.2-.4-1.4-.6-1.4-.7v-.5c0-.6.3-1.2.7-1.6l-.2-1.4c0-.4 0-.8.2-1h-.4l-.3.3-.2.2h-.9c-.1 0-.3 0-.4.3.2.2.4.4.4.6s0 .8-.2 1.7c-.2 1-.3 1.7-.4 1.9-.2 0-.4-.2-.8-1.5s0-.8-.2-1.5v-.9h-.5c-.2 0-.3 0-.4.3 0 .2-.2.2-.2.3-.4 0-.7-.2-.9 0s-.2 0-.5.3v.3c.5.4.9 1.1 1.1 2s0 1 .2 1.5v.6s0 .3.4.7c.3.5.5.8.6 1.2l.3 2.5h.6l.4-.3c.2-.2.3-.2.3-.2h.9c.3-.2.5-.2.5-.5-.4-.3-.9-1.1-1.2-2.1s0-1-.2-1.5v-.5l1.3 1.2q1.2 1.2 1.5 1.8c.3.6 0 .2 0 .5v.3h.5l.3-.3.2-.2h.9c.2 0 .3-.2.4-.2-.5-.3-1-.9-1.5-1.5v-.5h.1Z" class="fill" data-original-prefix="fill"/><path id="fill-glasses-logo6" class="fill"  fill="#fff" d="M721.2 1171.3c0-.3-.3-.6-.4-.8 0-.3-.4-.3-.8-.5h-.7c.2 0 .3 0 .5-.2.3 0 .4-.4.5-.7l-.2-1.5v-.5c-.3-.8-.8-1.2-1.5-1.3-.6 0-1.3 0-2.1.3s-.7 0-.9.3l-.5.4c-.2.2-.3.2-.4.3h-1.3v.4s0 .2.4.9c.3.5.4.9.6 1.1s0 .9.2 1.3v.8s0 .2.2.3c.4.5.5.9.7 1.6s0 .8.2 1.4l.2 1.2h.8l.2-.3.2-.2 1.9-.3c1.4-.4 2.2-1.1 2.4-1.9v-.7c0-.3-.2-.5-.2-.7v-.3l-.2-.3.3.3v-.2l-.2-.2Zm-4.3-4c.7 0 1.1 0 1.3.5s0 .3 0 .5v.5c0 .6 0 .9-.7 1.1s-1.2 0-1.5-1.1-.2-1.5.6-1.7v.2zm2.6 5.1v1.1c-.2.2-.4.4-.6.5-.8 0-1.3-.2-1.7-1.3s-.2-1.6.7-1.9 1.1 0 1.3.6 0 0 0 .3v.4z" class="fill" data-original-prefix="fill"/><path id="fill-glasses-logo3" class="fill"  fill="#fff" d="M735.2 1156.1v-1c-.2-.4-.2-.8 0-1.1l-.2-1.8c-.2 0-.5.4-.6.5-.5.4-.9.8-1.3 1.3s-.9.9-1.2 1.5c-.4.6-.8 1.1-1.1 1.8 0 .4-.3.8-.5 1.3v.5l.2.7.2 1.5v.8c.2.4 0 .9 0 1.3v.5c0 .3 0 .4.3.5 0 .2.3.3.5.4h-.3s-.3-.2-.4-.3h-.2c-.3 0-.7 0-1.1.2-.4 0-.8 0-1.1.3-.4 0-.8.4-1 .6l-.2.2v.3c0 .2 0 .4-.3.5l.2-.6v-.6s0-.2-.3-.3v-.2s-.3-.2-.4-.3c-.4-.4-.6-.6-.9-1 0-.2 0-.3-.3-.5 0-.2 0-.5-.3-.7 0-.3 0-.5-.3-.7v-.5s0-.3-.3-.4c-.2-.2-.5-.3-.8-.6-.7-.5-1.3-.8-2.2-1.1-.7-.2-1.5-.4-2.2-.6-.3 0-.6 0-.9-.2-.4 0-.8-.2-1.3 0h-.2v.7c0 .3.3.6.4.9 0 0 0 .2.2.3l.5.5c.3.5.5.8.7 1.4v.4c0 .2.3.4.4.6.3.4.5.7.9 1.1s.8.6 1.1 1c.4.2.9.5 1.4.6.3 0 .6 0 .9.3h.2v.2c.3.4.6.6 1 .9.2.2.5.2.7.3h.3c.2 0 .4 0 .5-.3-.2 0-.4.3-.5.5 0 0-.2 0-.2.2.2 0 .5 0 .7.2h-.9c0 .4 0 .7-.2 1v.5h.4v.4s0 .2-.2.3v.5l.2.2s.2.3.4.4v.2s0 .2.3.2h.5-1.2c0 .4 0 .6-.2.9v.4s.4.3.5.3v.3s0 .2.3.2h.2s.2 0 .2-.3 0-.4.3-.6v1.5h.8v.8c0 .2.3.4.7.5v-.8c.2 0 .4 0 .5.3 0 0 .2.2.4.2h.4l.3.3h1.4c.2 0 .3 0 .5-.2s.4-.3.5-.4l.3-.3s.2-.2 0-.4 0-.4.3-.5l.2-.2c0-.2 0-.4.2-.5l.3-.3v.2c0 .2.3.3.3.5v-1.4c0-.2.3-.3.3-.4 0 0 .2-.2.2-.3v-.7s0-.3-.2-.3c.2 0 .4 0 .5.3l.2.2h.4v-1.4c-.3-.2-.4-.4-.6-.6h-.4s0 .3-.2.3h-.6s.2-.2.3-.2.2-.2.2-.3v-.8c0-.3-.3-.4-.4-.5v-.5s.2 0 .2-.2v-.3c-.3-.3-.5-.5-.9-.8-.3 0-.5 0-.7.3.2-.2.3-.4.4-.6h-.9.7s.2 0 .3-.2l.3-.3c0-.2.2-.3.3-.5l.2-.6v-.8c.2-.2.3-.4.6-.6.3-.3.5-.6.8-1 .3-.5.5-1.2.7-1.8v-1.3l-.2-1.3-.7-.4h.3l.3-.7h.2Z" class="fill" data-original-prefix="fill"/></g><g id="05_Right Ear" data-trait="slasher"><path id="fill-ear-rt" class="fill"  fill="#fff" d="M1715.7 184.2c3.2-.7 6.5-.5 7.2 3.3 2.3 39.5-3.6 77.2-9 116-.7 4.7-.2 11.1-1.1 15.9-5 26.9-24.5 58.9-29.7 86.3-5.7 30.4-4.7 64.8-10.9 95.1-7.8 38.3-25.1 77.8-33.7 116.4l-71.9 122.1c-45.8 31.3-94.9 58.3-141.8 88.2l-35 81-84.6 77.3c-5.6 2.9-16.3-.8-22.4-2.4-27.7-7.2-48.3-18.1-70.9-35.1-16.5-12.5-27.2-20.9-37.6-39.4-6-10.5-10.9-22.9-14.5-34.5 26.8-59.3 58.7-116.4 86.8-175.2 4.9-58.7 6.7-117.8 11.4-176.5 36.5-47.5 77-92.5 114.8-139.2 47.2-35.9 96.4-69 144.9-103.1 66.1-31.9 127.9-72.1 197.8-96.2Z" class="fill" data-original-prefix="fill"/><path id="outline-shading-ear-rt" class="outline"  fill="#000" d="M1307 640c-2 .7-10.3 2.6-11.1 3.6-3 4.1 1.3 17.2-.5 18.5L1265 668l3-12c-.6-.6-5.7 2.2-6.5 3-4.2 4-11.7 27.7-13.5 29-.6 0-1.3-.6-1.5-1-.4-.8-1.4-13.2-1.5-15.5-.2-4.8-.7-24.1 1.2-27 .7-1.1 2.6-1.3 2.9-2.3 1.9-7 2-15.6 3.2-22.5 1.6-9.4 13.2-6.8 14.6-11.5 1.1-3.6-.9-13.2.6-15.4l21.9-5.8c5.3 2.7 1.3 8.1 1.7 12.4.1 1.4-.4 1.8 1.4 1.4 1.7-.4 13.1-3.4 13.6-3.9 1.4-1.6-3.9-10.5-1-12.5l29.5-8.5c1.8 0-2.5 12.6-1.5 14 1.9-1.2 11.2-2.1 11.9-3.1.9-1.3-3.8-11 2.7-14.8 2.2-1.3 22.3-5.8 23.3-5 .2.2.8 6.1 4.1 3.9 1.5-1 5.5-18.1 4-21 5.9-1.6 4.3 4.3 6.5 7 3 3.5 45.1 6.1 52.5 7.5 10.2 14.6 18 30.7 26 46.5.7.5 11.1-11.5 11.8-12.7 3.9-7.2 7.9-26.5 9.7-35.3 7.9-36.5 10.3-74.2 9.5-111.5 0-5.1-1.8-10.3-1.1-16 .8-6.8 8.7-15.8 8-21.9-.4-3.3-3.8-7.9-4-11.6-6.1.3-12.7 10.5-18.3 8.8-2.8-.8-4.9-11.5-6.2-14.8-.9-2.2-5.5-9.6-5.5-10.5 0-2.7 12.8-9.3 12.8-12 0-.6-6.3-8.8-6.8-9.1-3.8-2.3-12 15.4-17.4 14.6-.6 0-5.1-7.4-7.6-9.6-1.8-1.6-9.2-6-9.5-6.5-4-6.4 13.4-13.8 16.5-18.5-2.8-3.5-13.2-11.1-11.9-15.8 1-3.5 26.5-16.8 30.9-20.3 4.5-1.3 9.4 7.4 14.5 7.2 3.8-.2 10.8-11.4 15.7-10.5 2.4.5 14.6 15.6 14.8 17.4.4 4.2-11.5 11.5-12 14.1-.1.8 4.8 7.2 5.5 7.3 3.4-2.6 7-5.3 10.6-7.9.9-.6 1.1-2.1 1.7-2.5 6.8-4.2 15.7 18.9 20.4 17.4 1.2-.4 14.1-16.8 16.6-19.5 21.8-23.1 62.8-49 90.7-65.3 9.8-5.7 19.9-11.8 31.3-13.2 1.3 1.2-8.7 15.3-9.9 17.6-2.6 5.3-3.8 11.1-6.7 16.3-6.7 11.8-20.8 24.7-29.2 36.8-1.9 2.7-14.2 21.5-14.1 22.8 0 1 3.3 1.6 3.8 3.1 1.3 3.9-7.2 7.2 6.1 8.3-.2-4.4-1-7.1 4.4-6.9 3.4.1 18.8 2.4 21.7 3.4 3.3 1.1 4.9 3.4 3 6.5 14.6 3.2 23.9-12.5 35.7-16.8 1.2-.4 2.8-.8 2.3 1.3-4 6.7-7 14-9.7 21.3-2.1 5.5-7.4 26.5-9.8 29.2-1.9 2.2-9.2 4.2-12.2 4.8s-15.7.7-16.2 1.2c-.3.3 1 7-3.5 7-.9 0-1.7-1-2-1h-20c-3 0 0-7.6-.5-8-3.9.8-7.9-1-11.5-1-3.1 0-.9 5.3-1.5 7-4.9-.8-15.9-2.4-19.7 1.2-2.4 2.3-11.6 32.2-13 37.5-5.1 20.1-6.6 40.9-5.3 61.7.8 12.7 6.8 29.3 3.2 41.2-1.5 5-8.7 16.4-9 20-.3 2.8 4.6 2.9 4.9 5.8.3 3.5-4.6 7.5-4.1 11.5 7.5 2.8 4.3-1.9 8-5.5 1.7-1.7 4.1-1.7 6-3 10.2-7 33.2-60.6 41.5-74.5.7-1.1 1-2.8 2.5-3-5 26.1-14.2 51.1-23 76 2.3.4 12.5-1.2 13 1.5.4 2.1-4.9 7.9-5 10.5 3.2 2.8 26.6-7.1 30.3-6.7 1 0 2.7.9 3.1 1.8.2.3 2.5 7.2 2.5 7.6.3 3-4.9 6.8-6.2 9.7-3.3 7.1-1.7 16.4-2.2 23.8-5.8 1.6-11.4 3.5-17.3 4.7-2.8.5-19.2 1.2-19.2 3.8v24.5c-7-.7-30.7-5.7-36-2.5-1 .6-9.7 16.6-11.6 19.4-6.1 9.4-16.3 27.1-23.4 34.6-7.5 7.8-44.4 31.5-54.7 35.3-19.7 7.3-44.6 10.6-65.8 18.2-5.8 2-34.1 13-36.6 16.4s.3 7.5-.2 10c-.3 1.6-4.5 4.4-4.8 7.2-.8 8.5 7.3 1.2 10 2.9 1.2.7 5.8 7.8 7.5 9.6 2.6 2.6 4.6 5 8.8 4.8 11.3-.7 35.2-9.2 46.1-13.9 49.4-21.5 87.8-56.8 129.2-89.8 2.5-2 5.5-4.5 8.4-5.5-13.2 16.7-26.3 33.5-42 48-34.2 31.8-77.5 48.8-115.7 74.8-10.7 21.5-17.6 46-29.8 66.7-18.8 31.8-53.1 60.5-84.5 79.5-3.8 19.7-10.4 16.5-26.4 12.4-31.3-7.9-73-30.1-95.5-53.5-1-1-8.1-11.2-8.1-11.9 2.6-4.2 2.1-9.3 4.2-13.8 42.2-49.7 81.5-98.7 112.3-156.7 9.9-18.7 17.4-38.6 27-57 6.9-13.3 20.8-28.8 20.6-43.5 0-2.1-1-4-1-6 0-3 1.9-7 1-10.5l-10 1 4 19c-5.3-1.5-28.2 9.2-30.9 6.8-.1-.1-1.1-3.2-1.1-3.3v-14.5Zm33 225c-1.6-1.2-5.3 5.1-8.5 5-2.8 0-2.4-4.5-5.4-4-9.6 17.4-21 33.7-33.1 49.5-2.8 3.6-8.2 8.2-10.4 11.6-1.9 2.9-12.9 38.4-11.5 40 2.7-.8 5.8-3.6 8-5.5 23.5-19.5 44.2-43.8 65.5-65.5 2.4-5.2-7-12.2-7.5-17.6-.6-5.9 6.5-7.1 3-13.4Z" class="shading" data-original-prefix="shading" opacity=".2"/><path id="outline-ear-rt" class="outline"  fill="#000" d="M1203 940c-.6 2-3 0-4-.5-7-3.3-16.8-8.4-22-14-11.1-12.2-18.6-30.8-29.5-43.5-1.1-2.6-.7-7.5-.5-10.5.9-20.2 13.6-36 21.8-54.2 5.9-12.8 10.2-27.3 16.3-39.7 4.8-9.8 13.9-18.2 19.9-28.1 11.7-19.3 21.4-51.9 25.7-74.3 1.4-7.1 1.9-22.4 4.2-27.8 1.5-3.5 9.8-6.1 10.9-10.1 1.5-5.1-5.6-11.7-7.1-16.6-1.8-6 2.6-25.5 3.2-33.2 1.9-23.7 1.4-48 4.6-71.4 14.2-19.8 28-39.9 42.6-59.4 37.5-50.2 83.1-93.7 131.8-133.2 4.5-3.6 17.7-15 22.7-15.2 3.5.7 18 4.5 20.3 3.3 4.7-2.4 5.9-16 7.9-20.1 2.2-4.7 51.2-32.9 59.4-37.6 54.4-30.8 126.9-64.9 186.9-82.1 2.7-.8 10.1-3.3 12.1-1.8 4.6 3.5 6.3 42.4 6.3 49.8 0 27-1.9 67.1-5.8 93.7-2.1 14.1-9.1 17.7-15.4 29.6-4.2 7.8-6.4 18.2-10.3 24.7-2.1 3.5-11.9 11.8-12.2 14.8-.5 4.5 4.4 7.1 5.6 9.5 1 2.2-4.4 22.1-5.2 26.8-4.1 23.3-4.6 41.4-3.3 64.7.9 16.8-2.9 40-6.3 56.7-1.8 8.8-6.6 31.2-10.8 38.2-2.1 3.4-10.1 8.5-13.4 11.6-2.1 2-8.3 7.7-9 10-2.9 9.3 5.7 16.5 4.4 23.3-.7 3.8-8.1 17.3-10.3 21.8-39.1 77.8-86.1 131.6-162.8 174.1-7.5 4.2-31.5 13.7-35.7 18.3-10.6 11.7-19.9 37.5-29.3 51.2l-26.8 14.7c-1.6 2.2-1.1 14.8-2 19-1.1 5.4-23.2 29.8-28.4 35.6-5.5 6.1-26.7 30-32 33-2.3 1.4-20.6 4.8-23.6 4.5-10.9-1-38.2-12.2-49-17.1-3.9-1.8-12.1-5.3-13-9.5 28.7 11.6 48.3 11.1 74.5-5 14.1-8.7 41.8-29.8 51-43 2-2.8 5.7-22.6 5.5-26.5 0-1.6-4.4-15.1-5.1-15.5-2.3-1.6-11.9 9.1-15 10l-6.9-16.3 13.7-11.2-6.4-12.6c-3.2-.5-11.4 8.8-13.9 11l-8.3-16.3c.5-2.7 10.9-8.4 12.4-10.6 1.5-2.4-6.6-13-8.1-16-2.2-.5-10.1 10.5-12.1 11-1.4.3-9.3-12.1-9.5-13.5-.4-4.1 10.7-8.6 11.1-13 .2-2.5-5.1-7.8-6.6-10.4-1.5 0-14.8 22.1-16.7 25.3-16.8 28.8-49.8 85.2-52.8 117.2-1 11 1.2 18.5 5 28.5-1.7 1.6-17.8-11.5-20-13.5-1.9-1.8-6.2-5.7-7.4-7.6-4.2-6.6 2.1-23.2.5-31.4 12.3-19.4 26.8-37.6 38.1-57.9 25-45.1 42.4-95 72.4-137.6 7.1-10.1 17-17.9 24.2-28.8 14.6-22 18.4-46.8 23.2-72.3l-16.9 2-.2 22.8-17.9 4.1v-24l-20.9 4 2 25-18 3c.1-6.8 0-13.8-1-20.5-.2-1.4.6-1.7-1.5-1.5s-20.4 7-21.1 8c-2.5 3.7 1.8 20.3.4 21.9-4.6.2-10.1 4-14.4 4.2-1.6 0-2.5-2.9-2.5-3.6v-15.5c-2.7 1.4-11.1 3.6-12.7 5.3-4.4 4.5-7.6 19-8.3 25.2-1.7 15.4-.6 29.8-6.2 44.8-8.4 22.2-22.3 50.5-32.9 72.1-6.5 13.3-16.1 27.1-22.1 40-2.9 6.3-14.6 36.8-15.6 42.4-3.9 23.1 12.7 50.9 27.8 67.3Zm516-752c-41.8 13.5-81.4 32.9-120 53.5-14.9 8-31.7 17.2-46.3 25.7-22.3 13-43.6 27.9-65.7 41.3-1.2 2.3-6.4 16.8-2.4 17.5 4.4-1.7 14.9-13.7 18.8-13.1.8.1 8.4 12 8.5 12.8.4 2.5-13.5 11.8-15.9 13.9l10.1 17.4c1.5.4 1.7-.4 2.5-1 2.3-1.6 13.1-12.8 14.1-12.9 1.4-.3 9.9 10.4 10.2 11.6 1.2 4.5-16.5 14.7-16.9 18.8-.5 4.6 12.7 27.1 12 34.5 2.3.5 1.6-.3 2.2-1.3 9.4-14.6 16.3-30.5 26.9-45 24-32.8 59-58.7 86.3-88.7 7.7-5.7 17.2-8.3 24.8-14.2 6.5-5 16.3-16.3 24.3-18.6 1.3-.4 3-.6 2.3 1.3-.8 2.2-6.1 8.3-7.8 11.2-4.2 7.1-10 20.9-14.7 26.3s-21.2 14.1-28.4 19.6c-21.3 16.2-41.4 36.5-56.1 58.9.3 1.4 12.6 4 14.3 3.6 1.9-.4 2.4-8.7 2.7-9 1.2-1.2 15.2 1.8 18 2l-3 11c3.3-.7 17.9 3.2 19.1 1.4l1.9-10.4 18 1-2 12c5.6-1.5 16.2 2.6 20.6 0 .8-.5 8.7-8.5 9.4-9.5 3.4-4.9 6.2-15.6 9.3-21.7 6.9-13.9 11.1-17 14.4-33.6 2.5-12.5 4.6-27.1 6.2-39.9 3.1-25.3 4.5-50.9 2.1-76.4Zm-431 407v15c3-.8 21.8-6.9 22.5-8 1.6-2.4-.5-12.8.6-14 .6-.7 14.6-3.5 16.9-4.1v12c.8.8 20.1-3.6 21.3-4.2 3.8-2 .3-11.3 1.8-13.7.7-1.1 14.4-3 16.9-4.1v15c6.6-1.2 13.3-1.1 20-1 1.6-14.2-7.1-26.5-10-40 .6-.6 11.1 5 12.7 5.8 7.7 4.1 40.8 22.5 44.2 27.8 3.4 5.4 9.4 26.3 11.4 33.6 3 10.6 4.7 26 8.5 35.5 4.3 10.4 12.5 9.2 20.5 4.1 22.7-14.5 44.9-81.9 46.7-108.3 2.6-36.2-3.5-85.1-11.5-120.5-1.5-6.6-8.6-31.7-12-36-1.3-1.6-.9-.7-2 0-2.7 1.8-8.5 9.6-11.9 9.1-.8-.1-7.5-11.5-9.5-12.7-.4-2.3 12.6-12 15-13.9 0-1-9.5-16.7-10.5-17.5-1.5-1.2-.8-.6-2 0-4.1 2.1-14.6 13.7-17.2 13.9-2.5-1.5-13.6-10.1-13.2-12.2s18.4-14 20.9-17.1c-10-15-20.4-5.9-31.3 1.7-43.7 30.5-78.2 65.2-111.7 106.3-19.5 23.9-38.5 48.9-55.8 74.2-6.2 26.4-10.2 56.5-11.2 83.8-.1 3.5.2 15.4 4.6 16.4.5.1 9-3.7 9.2-4.1 1.4-2.3-1.1-15.2.6-18.9l15.6-3.9Zm304-15h18c-1.2 5.5-2.8 11.1-3.8 16.7-.3 1.7-.4 1.3 1.3 1.3 4.4-.2 22.4-4.7 26.3-6.8 13.5-7.4 18.1-31 22-45 4.9-17.2 11.2-39.1 12.3-56.7 1.1-17.9-.2-35.9 2-54 1.5-13.1 5.1-26 7.8-38.9-.2-1-4.4-5.1-5.5-5.4-2.4-.7-19.8-.6-20.8.8-1.1 1.5-1.5 9.2-2.6 9.9-2.3 1.5-12.6-1.1-15.9-.9-1-2.8 2.6-9.8 0-11.6-2-1.4-15.1-.7-18.5-2.5l-2.6 12c-2.7-.3-16.6-.7-17-2.6l2.1-12.3c-5-.2-17.4-5.5-21.5-5.1-2 .2-6.7 9.4-8 12-19.7 38.2-34.2 101.9-13.7 141.7 1 2 3.7 3.3 3.1 5.6-5 6.9-26 36.3-24.9 43.2.5 3 10.2 6.7 13 8.5l2.9-14.6 17.1 1.6-2.6 19c7.7 3.3 16.1 2.2 24.1 4 1.5 0 1.7-.5 2.3-1.7 1.1-2.5 2.3-17.5 3.2-18.3Zm-33.9 40.1c-1.8 3.6-1.8 21.9-4 23.5-1.6 1.2-14.3-.8-16.4-1.8-1.2-.6-1.6-.7-1.7-2.2 0-5.1 5.1-20.2 3.8-23.9-1.8-1.1-17.1-10.4-17.9-9.7-1.9 9.1-5.4 17.8-7.7 26.8-1.9 7.6-8.3 46.4-10.8 49.2-1.2 1.4-3.2 1.4-4.2 2.3-18.3 18-38.8 32.6-61.6 44.9-2.9 1.6-11.6 6.5-14.2 6.8-3.6.5.3-3.7 1-5 15.5-29.8 22-63 4.6-93.7-6.2-10.9-18.5-27-28.2-9.8-12.5 22.2-15.1 55.6-17.5 80.5-18.4 17.5-34.1 37.6-48.5 58.5l10 17.5c1.6 1.1 11.7-10.3 14.5-11 1.6 3.6 9.8 11.2 8.1 15-1.6 3.5-11.4 8.1-11.5 11.5 0 1.3 7 13.4 7.9 14.1 1.5 1 1.5.2 2.6-.5 1.8-1.3 10.7-10.3 11.9-10 1.7 2.4 9.2 12.6 8.1 15-1.7 3.5-12.3 9.9-12.6 12.6-.2 1.5 5.5 13 6.2 13.3 4.2 2.4 13.7-13.7 17.8-8.2 1.5 2 7.2 12.1 5.9 14.2-2.5 1.8-14.2 9.8-14.7 11.9-.6 2.6 5 13.2 6.4 16.3 3.9.9 9.7-14 10.9-17 2.1-4.9 9.4-22 10.1-26 1.1-6.9-2.7-5.6 5.1-11.8 23.8-19 58.3-32.7 84.2-49.8 40.2-26.5 77-72.9 102.5-113.5 3.5-5.5 18.6-29.8 18.5-34.3 0-.7-.7-3.2-1.1-3.4-2.3-1.5-19.6 2.3-23.8.9l-2.1 22.9c-1 1.2-16.4 1.7-17.9.7-2.6-1.8 3.4-19.4 2.1-23.6l-25.9-2.9Z" class="outline" data-original-prefix="outline"/></g><g id="06_Left Ear" data-trait="robo"><path id="fill-ear-lft3" class="fill"  fill="#fff" d="M570 663c30.7-2.3 65-.8 92.7 13.8 19 10.1 47.5 28.1 59.5 45.5 28.1 40.4 54.9 112.1 71.8 159.2 4.9 13.7 18.7 48.9 16.7 61.8-4.1 27-52.7 38.8-73.5 24.5-66.3-95.2-146-190.2-258.2-231.3-74.9-128.8-125.1-279.4-146.9-427.1-5.3-35.8-9.6-72.1-9.2-108.3 5.5 4.3 9.9 9.8 15 14.5 28.6 26.4 60.4 52.7 87 81 18.7 19.8 26 39.1 36.4 63.6 41.9 98.6 78.9 194.5 108.1 297.9.5 1.7.5 3.3.5 5h.1Z" class="fill" data-original-prefix="fill"/><path id="fill-ear-lft2" class="fill"  fill="#fff" d="M647.7 372.1c1.9-.3 8.3 5.6 10.3 7.4 37.4 33.1 77.7 78.5 106.8 119.2 9.4 13.1 41.1 59.8 40.8 73.7 0 4.9-3.4 12.8-4.3 18.5-7 41.8-3.8 106.1 10 146.5 4.7 13.8 12.8 26.5 18.2 39.8s9.4 27.5 15 41c9.9 23.6 22 46.3 32.6 69.5 0 3.7-1.8 6.7-3.2 9.9-3.6 7.7-17.2 34.9-21.9 40.1-2.9 3.2-11.8 9.8-15.7 12.3-7.4 4.8-16.4 8.3-23.8 13.2l25.1-40c.9-3.2-6.4-20.6-8.1-25-17.9-44.5-42.2-92.2-63.6-135.4-9.3-18.7-24.7-55.8-39.9-68.1-6.9-5.6-16-9.6-23.4-14.6-16.3-11-32.1-22.8-48.8-33.2-15.6-3.3-49.2 4.2-60.7-8.3-3.6-3.9-9.1-16.2-11.5-21.5-8.5-19-15-39.8-22.8-59.2-13.1-32.5-26.6-64.9-39.6-97.5-.3-2.7 5-6.3 7.4-8.2 14.7-12.2 33.3-25 49.2-35.8q34.8-24 72-44.1v-.2Zm.1 12.1c-7.6.4-18.4 7-20.3 14.7-4.1 16 9.4 23.2 23.2 18.2 19.3-7 17.5-34-2.9-33Zm115.9 335c-14.2 2.4-10.1 26.4 1.3 31.3 26.3 11.2 27-36-1.3-31.3m53 82.1c-12.9-11-27.5 1.3-22.1 16.6 1.8 5.3 5 11.4 10.5 13.5 16.3 6.3 26.1-10.2 17.4-23.4-.5-.7-5.2-6.2-5.8-6.7m24 72.9c-11.1 2.3-9.9 16.7-5.9 24.5 5.3 10.3 20.4 15.4 27.7 4.2 8.6-13.2-6.5-31.9-21.7-28.7Z" class="fill" data-original-prefix="fill"/><path id="fill-ear-lft1" class="fill"  fill="#fff" d="M631.9 358.9c-34.3 21.6-67.6 45-99.8 69.7-5.7 4.4-11.9 10.5-17.6 14.4-.8.6-1 1.4-2.5 1-16.9-38.3-28.9-79.7-45.5-118-11.5-26.4-24-36.6-44.5-55.5-31.3-28.9-64.1-56.3-96-84.5 44.5 13.2 88.6 29.1 130.7 48.8 63.3 29.7 119.8 77.5 174.4 120.6zm-108.1 36.3c-25.4 2-19.5 44.4 6.1 28.2 14.1-8.9 10.3-29.5-6.1-28.2" class="fill" data-original-prefix="fill"/><path id="fill-ear-lft-rivet5" class="fill"  fill="#fff" d="M841.2 881.2c2.8-3.5 11.9 1.1 12.7 6.3 2.4 15.4-14.9 12.3-14.6 1.1 0-.9 1.6-7 1.9-7.4" class="fill" data-original-prefix="fill"/><path id="fill-ear-lft-rivet4" class="fill"  fill="#fff" d="M807.8 805.2c7.9-1.2 13.7 8.2 8.1 14.2-9.1 9.7-23.6-11.9-8.1-14.2" class="fill" data-original-prefix="fill"/><path id="fill-ear-lft-rivet3" class="fill"  fill="#fff" d="M775.7 740.7c-7.3 5.9-18.9-8.3-11.3-13.8 6.9-4.9 18.2 8.2 11.3 13.8" class="fill" data-original-prefix="fill"/><path id="fill-ear-lft-rivet2" class="fill"  fill="#fff" d="M642.7 396.2c9.6-2.9 13 8.7 4.3 11.3-13.4 4.1-9.8-9.7-4.3-11.3" class="fill" data-original-prefix="fill"/><path id="fill-ear-lft-rivet1" class="fill"  fill="#fff" d="M526.8 407.2c5.3 5.4-3.2 15.1-9.5 8.5-5.2-5.4 4.6-13.4 9.5-8.5" class="fill" data-original-prefix="fill"/><path id="outline-shading-ear-lft" class="outline"  fill="#000" d="M520.2 411.8c1 1 10.3 2.4 11.7 1.8 2.9-1.2 11.2-8.9 14.8-11.3 20.7-14.6 42.5-30.6 63.6-44.4 3.4-2.2 14.8-10.5 18-9.6 1.7.5 3.9 4 5.8 5.3 5.6 3.8 11.8 7.1 17.9 10.1-9.7 6.7-20.6 11.3-30.7 17.3-23.1 13.7-44.1 30.5-65.8 46.2-1 1-2.2 1.3-1 3 .5.8 9.5 5.2 11.4 6.6 9.3 6.3 18.7 14.4 27.6 21.4 64.9 51.8 125.8 108.5 191 160l13.5-72c3.7 4.8 9.3 14.3 10 20.5 1.2 10.6-2.4 17.3-3.9 27.1-6.6 44.4-3.3 107.4 13.4 149.3 4 10 9.9 19.2 14 29 6.2 15.1 10.8 31.3 17.3 46.7 9.6 22.6 21.7 44.1 31.2 66.8 0 2.9.2 5.7-.5 8.6-1.1 4.1-19.5 39.4-22.5 43.5s-11.6 10.9-16.1 13.9c-18.5 12.7-39.4 20.8-61.7 24.3-11.4 1.8-33.6 2.8-43.2-4.3-68.4-94.4-146-191.3-259.8-231.7-53.4-90.2-90.6-189.4-118-290.5-16.9-62.3-30.7-130.3-36.3-194.7-.6-6.8-4.1-53.6-2-55.5.3-.3 2.7.4 3.8-.2 1.3-.8.3-4.3 5.5-3.6 11.1 4.8 23.9 7.5 34.3 13.8 39.3 23.7 76 63.2 111.5 92.5l43.5 98.5c1.2 3.1-.6 9.5 1.7 11.8zm-166.9-64.1L454 420.5c-6.8-18-11-35.7-23-51-10.7-13.6-27.7-29.3-40.5-41.5-14.6-14-30.3-27-45-41-2.3-.4-1.4.8-1.2 2.2.2 2.2.6 4.8.9 7.1.9 6.8 6.2 48.9 8.1 51.4M361 390c3.9 19.7 7.5 39.7 12.5 58.9l113 77c-2.7-19-10-37.1-15.5-55.5-34.8-25.8-69.6-54.4-105.7-78.3-1.4-.9-2.5-2.5-4.3-2.2Zm419 301c-.6-8.2-1.3-16.3-1-24.5.2-6.2 4-24.3.6-28.5L548 464.1c5.7 24.5 12.9 48.7 20.3 72.7L780 691.1ZM414 535c22.5 61 50.5 119.7 78 178.5 59.4 35.6 120.6 68 179.5 104.5-14.2-28.7-30.4-57.6-50.1-82.9-10.8-13.8-24.4-25.9-37.9-37.1-8.9-7.3-27.4-18.5-34-26-5.7-6.3-9.6-21.7-15-30s-14.7-17.2-21.9-24.1c-27.7-26.8-60.8-53.8-91-78-1-.8-6.8-5.8-7.5-5Zm363 200c1.9-8.4-16.8-13.8-13.8-3.7 1.6 5.5 9.5 4.8 13.8 3.7m35.4 63.6c-8.4-13-12-37.6-19.6-51.9-12-12-9.5 1.3-11.8 9.7-1 3.6-4.2 8.7-7.6 10.4-2.6 1.3-8 .4-7.4 2.6l21 47.5c2.2 1.6 5-7.5 9.4-7 .6 0 .6 1.7 1.2 2 3.6 2.1 6.7-.4 8.3.4 2.4 1.2 6 10.7 12.4 6.5 9-6-3.4-16.2-6-20.3ZM826 833c-2.6-.5-1.5.5-2.1 1.4-6.3 10.5-13.2 16-25.9 10.6-1.3 1.5 7.8 21.9 9 25.5 2.5 7.1 8.9 32.3 12.9 36.1 8.8 8.3 9.2-13.4 12.1-15.5.5-.3 3.1 1 4.5 1 2.5 0 4.1-1.9 6-2 2.3-.2 4 1.4 6.1 1.7 1 0 3-1 3.3-.7.3.2.4 6.1 2.5 7 6.4-5.2 2.9-15.9-3.8-19.2-1.9-.9-4.3-.8-6.1-1.9-5.3-3.4-15.3-36.3-18.6-43.9Z" class="shading" data-original-prefix="shading" opacity=".2"/><path id="outline-shading-ear-lft2" class="outline"  fill="#000" d="M637.6 400.4c.2.1.4 1.1 1.2 1.5 9.2 4.4 15.6 1.7 25.2 3.1 3.5 11.4-13.5 27.2-24 24.5-9.5-2.4-16.7-15.4-14.8-24.8.2-1.1 3.1-6.8 3.8-7.3 2.2-1.4 6.5 1.9 8.6 3" class="shading" data-original-prefix="shading" opacity=".2"/><path id="outline-ear-lft" class="outline"  fill="#000" d="M312.1 163.1c3-2.5 42.9 6.4 49.3 8C512.1 208 635.1 309.1 735.5 423c29.7 33.6 58 70.7 80.3 109.7 3.2 5.6 14 24 15 29 .6 2.9-5.2 26.5-5.8 32.8-6.3 64.6 7.8 142.2 38.8 199.2 6.2 11.4 30.5 45.7 32.1 54.9 1 5.9 3 30.9 1.6 35.5-12 18.1-24.5 59.3-41.2 71.8-5.8 4.3-43.1 24.1-49.8 26.2-16.7 5.4-37.4 4.2-54.2 10.9-13-2.5-25.8-7.7-38.7-11.1-2.9-1.9-3.6-6.4-5.5-9.5-43.9-76.1-140-177.5-221.2-212.8-5-2.2-18.4-5.6-21.3-7.7-3.2-2.2-15.1-21.6-17.8-26.2-64.6-112.1-114-265.2-131.7-393.3-6.6-47.5-13-106.2-7-153.7.7-5.2 2.1-10.4 3-15.5Zm319.8 195.8-.8-3.5c-54.6-43.1-111.1-90.9-174.4-120.6-42-19.7-86.2-35.6-130.7-48.8 31.9 28.2 64.8 55.6 96 84.5 20.5 18.9 33 29.2 44.5 55.5 16.7 38.2 28.6 79.6 45.5 118 1.5.4 1.7-.4 2.5-1 5.7-3.9 11.9-10 17.6-14.4 32.2-24.7 65.5-48.1 99.8-69.7M570 663c0-1.7 0-3.4-.5-5-29.2-103.4-66.1-199.3-108.1-297.9-10.4-24.5-17.8-43.7-36.4-63.6-26.6-28.2-58.4-54.6-87-81-5.1-4.7-9.5-10.2-15-14.5-.4 36.3 3.9 72.5 9.2 108.3 21.8 147.8 72 298.3 146.9 427.1 112.2 41.1 192 136.1 258.2 231.3 20.8 14.3 69.4 2.5 73.5-24.5 2-12.9-11.8-48.1-16.7-61.8-16.9-47.1-43.7-118.8-71.8-159.2-12.1-17.4-40.6-35.4-59.5-45.5-27.6-14.6-62-16.1-92.7-13.8h-.1Zm77.7-290.9q-37.2 20.1-72 44.1c-15.8 10.9-34.5 23.7-49.2 35.8-2.3 1.9-7.7 5.5-7.4 8.2 13 32.6 26.5 65 39.6 97.5 7.8 19.4 14.3 40.2 22.8 59.2 2.4 5.4 7.8 17.6 11.5 21.5 11.5 12.4 45.2 5 60.7 8.3 16.7 10.5 32.4 22.3 48.8 33.2 7.4 5 16.5 9 23.4 14.6 15.2 12.3 30.7 49.4 39.9 68.1 21.5 43.2 45.7 90.8 63.6 135.4 1.8 4.4 9 21.7 8.1 25l-25.1 40c7.5-4.8 16.5-8.3 23.8-13.2 3.9-2.5 12.8-9.1 15.7-12.3 4.7-5.2 18.3-32.4 21.9-40.1 1.5-3.2 3.2-6.2 3.2-9.9-10.6-23.3-22.7-45.9-32.6-69.5-5.6-13.5-9.6-27.7-15-41s-13.6-26-18.2-39.8c-13.7-40.3-17-104.6-10-146.5.9-5.6 4.2-13.5 4.3-18.5.3-13.9-31.5-60.6-40.8-73.7-29.1-40.7-69.4-86.1-106.8-119.2-2-1.7-8.4-7.6-10.3-7.4v.2Z" class="outline" data-original-prefix="outline"/><path id="outline-ear-lft5" class="outline"  fill="#000" d="M840.7 874.2c15.3-3.2 30.3 15.5 21.7 28.7-7.3 11.2-22.3 6.1-27.7-4.2-4-7.8-5.2-22.2 5.9-24.5Zm.5 7c-.3.4-1.9 6.6-1.9 7.4-.3 11.2 17.1 14.3 14.6-1.1-.8-5.2-9.9-9.8-12.7-6.3" class="outline" data-original-prefix="outline"/><path id="outline-ear-lft4" class="outline"  fill="#000" d="M816.7 801.3c.6.5 5.3 6 5.8 6.7 8.6 13.3-1.2 29.8-17.4 23.4-5.5-2.1-8.7-8.2-10.5-13.5-5.3-15.4 9.2-27.6 22.1-16.6m-8.9 3.9c-15.5 2.3-1 23.9 8.1 14.2 5.6-6-.2-15.3-8.1-14.2" class="outline" data-original-prefix="outline"/><path id="outline-ear-lft3" class="outline"  fill="#000" d="M763.7 719.2c28.2-4.8 27.6 42.5 1.3 31.3-11.3-4.8-15.4-28.8-1.3-31.3m12 21.5c6.9-5.6-4.4-18.6-11.3-13.8-7.7 5.4 4 19.7 11.3 13.8" class="outline" data-original-prefix="outline"/><path id="outline-ear-lft2" class="outline"  fill="#000" d="M647.8 384.2c20.4-1.1 22.2 26 2.9 33-13.9 5-27.3-2.3-23.2-18.2 2-7.7 12.7-14.3 20.3-14.7Zm-5.1 12c-5.4 1.6-9.1 15.5 4.3 11.3 8.6-2.6 5.3-14.2-4.3-11.3" class="outline" data-original-prefix="outline"/><path id="outline-ear-lft1" class="outline"  fill="#000" d="M523.8 395.2c16.4-1.3 20.2 19.3 6.1 28.2-25.6 16.2-31.5-26.2-6.1-28.2m3 12c-4.8-4.9-14.7 3.1-9.5 8.5 6.3 6.6 14.8-3.1 9.5-8.5" class="outline" data-original-prefix="outline"/></g><g id="07_Head" data-trait="palerider"><path id="fill-head2" class="fill"  fill="#fff" d="M647.3 900.2c5.1-1.5 10-4.9 14.8-6.7s12.8-1.7 15.4-6.6c12.3-56.2 28.7-111.2 47.5-165.5 6.9-19.8 15.6-49.3 24.8-67.2 6.2-12 28-23.5 38.2-32.9 2.5-.8 8.3 1.9 11.7 2.5 61 9.8 123.3 10.3 184.9 11.1 86.4 1.1 179.2 2.4 264.7-11.2 2.7-.4 7.5-2.7 9.3-2.7 4 .2 34.3 26.2 38.7 31.2 29.5 76.2 55.7 153.9 73.1 233.9 2.6 5.9 11.5 5.5 16.5 7.5 2.5 1 12.7 5.8 13.8 7.2 5 6.6 5.3 32 8.6 41.4.8 2.3 1.9 4.1 4.4 4.5 7.1 1.3 18.4 1.5 26 2 76.9 4.8 154.1-.8 231 2 21 .7 69.6 3.8 86.8 14.2 7.7 4.6 16.6 22.6 15.7 31.3-1.9 18.2-40.6 51.5-55.1 62.9-77.2 60.6-145.9 90.2-239.1 118.9-163 50.1-333.5 87.8-505.3 79.8-129.1-6.1-257.3-36-380.5-72.5-102.6-30.4-178.7-59.5-263.5-126.5-14.6-11.6-55.7-46-55.2-65.3.1-3.4 7.9-20.6 10.2-23.6 7-9.1 31.9-13.3 43.1-14.9 84.2-11.8 174.1.2 258.9-5.1 15.2-2.6 33-.4 47.9-3.1 2-.3 3.5-1.9 4.2-3.8 3.5-9 3.6-26.1 6.4-36.6.5-1.9.9-4.2 2.1-6.2" class="fill" data-original-prefix="fill"/><path id="fill-head1" class="fill"  fill="#fff" d="M669.8 911.2c.4.3.8 2 1.7 2.8 195.6 157.5 495.1 165.7 694 9 2.7-2.2 12-11.6 14.1-12 2.6-.5 10-.8 11.3 1.7 1 2 3 15.8 3.2 18.8.5 7.3 1 23.1.1 30-.7 5.5-16.2 18.7-21 23-173.8 150.7-512.9 150.7-690.5 6.5-5.2-4.2-26.4-22.2-28-27-1.4-4.1-1.7-14.8-1.6-19.5.1-7.2 1.6-23.7 3.7-30.3.4-1.2.6-2.6 2-3 1-.5 10.2-.5 11 0" class="fill" data-original-prefix="fill"/><g id="shading-head-hat" class="shading" ><path id="outline-shading-head3" class="outline"  fill="#000" d="M296 963c2.1 6.4 3 12.4 5.9 18.7 26 56 138.2 122.2 193.8 148.2 76.5 35.7 162.6 52.8 245.2 68.8 71.4 13.8 145.2 27.6 217.7 34.3 117.7 11 238.4-12.8 353.7-35.3 90.8-17.7 180.2-36.3 262.8-79.2 48.3-25.1 155.9-90.1 173.4-142.5 2-6.1.1-15.8 8.2-11.2 6.9 3.9 15 16.1 12.5 23.9-13.5 42.9-84.6 94.4-121.7 118.3-54 34.8-110.7 53.5-171.8 72.2-196.9 60.5-387 97-594.1 70.6-124.4-15.8-265.7-51.5-383.4-94.6-67.8-24.8-173-86.5-210.6-149.3-2.6-4.3-9-15-9.5-19.5-.9-7.3 9.3-22.9 17.9-23.4" class="shading" data-original-prefix="shading" opacity=".2"/><path id="outline-shading-head2" class="outline"  fill="#000" d="M677 912c-3.2 6.4-5.9 13-7.5 20-1.3 5.3-4.8 23.5-2.5 27.6 42.6 45.2 97.8 78.9 151.4 109.6 3.9 2.2 18.3 8.8 20.2 10.8 1.6 1.8 2.3 3.7.5 5.6-2 1.4-7-1.7-9-2.6 2.4 8.3-9.8 6.4-15.4 5.9-23.4-2.3-56.5-17.1-78.3-26.7-42.4-18.7-84-40.1-121.1-67.9-86.6-15.8-174.3-25-261.2-38.8l-9-2.5 30.5-2c69-1 138.1-.2 207.1-.9 3.9 0 7.4-1.4 12-1.1 13.6.9 30.5 10.1 44.5 12 2-15.9 5.6-55.4 19.1-65.5 5.4-4 16.8-3.4 19.5-9.5 12-55.9 28.7-110.6 47.5-164.5 6.9-19.8 15.6-49.3 24.8-67.2 4.8-9.2 18.1-16.9 26.2-23.3.4 4.7-.6 9.2-1.7 13.8-6.4 26-20.2 56-28.5 82.5-14.8 46.8-33.9 107.9-37.6 156.4-.2 2.2-.5 4.2.4 6.3s14.2 13.7 17 16c30.3 24.9 73.9 46.3 109.8 62.2 59.9 26.5 123.9 41.5 185.8 62.2 2.3 2.7.2 4.7-2.7 5.3-97.8-5.4-193-33.1-276.3-84.3-17.2-10.6-36.6-27.1-55.3-32.7-5.6-1.4-6.8-2.6-10.2-6.7" class="shading" data-original-prefix="shading" opacity=".2"/><path id="outline-shading-head1" class="outline"  fill="#000" d="M1409.1 961c1.9 1.3 37.1-11.5 44.4-12 13.9-.9 32.6 1.9 47 2.1 63.7.9 127.5-3 191 1l11.5 2c-89.6 14.6-180.1 24-269.5 40.1-29.3 21.3-60.6 39.1-93.2 54.8-28.2 13.6-75.8 36.6-106.1 39.9-5.8.6-18.7 2.8-16.2-5.7-4.7 3.1-13.4 5.2-8.5-3.1 60.6-34.4 123.5-69.2 171.6-120.4 2.2-3.8-1.2-20.6-2.4-25.7-1.8-8.1-4.3-14.4-7.7-21.8-4.3 7.5-11 5.5-16.7 7.8-12.3 4.9-35.5 23.8-48.3 31.7-83.4 51.3-178.7 78.5-276.5 84.5-2.7-.1-4.6-3.5-2.5-5.5 61.8-20.8 125.9-35.7 185.8-62.2 36.1-16 80.7-38 110.8-63.2 2.8-2.4 14.9-12.7 16-15 .9-2 .5-3.4.4-5.3-1-18.8-7.7-49.1-12.2-67.9-6.5-27.1-15.2-55.9-23.4-82.5-8.9-28.6-21.9-58-29.8-86.2-1.6-5.6-3.1-11.1-2.5-17 6.9 5.9 21.2 14.2 25.5 22 8.2 15 16.4 43.3 22.5 60.5 20.1 56.5 37.6 113.9 50.5 172.5 2.7 6.2 14.2 5.7 19.4 9.5 6.2 4.6 11.7 21.9 13.6 29.4 2.8 11.5 3.4 23.7 5.5 35.7" class="shading" data-original-prefix="shading" opacity=".2"/></g><g id="outline-head-hat" class="outline" ><path id="outline-head-hat2" class="outline"  fill="#000" d="M1378.2 881.8c5 2.3 10.6 2.8 15.8 4.7 2 .8 9.2 4.1 10.9 5.1 5.8 3.4 6.5 14 7.8 20.2 1.8 9 2.9 18.2 4.3 27.2l45.4 3c80.1 4.6 163.3-3.9 243 3 31.8 2.7 65 3.6 75 39 7.3 26-18.9 50.6-36.5 66.5-108.6 98.5-257.3 139.9-397 174-240.8 58.7-441.2 54-680.2-8.8-130.8-34.4-259.4-71.6-361.8-164.2-25.8-23.3-52.3-48.2-30.2-84.2 10.8-17.6 48.5-20.6 67.7-22.3 72.6-6.2 150.5-.8 224-3 21.5-.7 43-1.1 64.5-3 2.2-11.9 3.1-25.8 6.1-37.4 2.7-10.4 4.5-8.7 12.6-12.4 1.5-.7 2.7-2.1 4.3-2.7 5.2-1.9 10.8-2.4 15.8-4.7 17.1-80.8 44-159.1 73.5-236 2.6-4.4 31.1-27.7 36.4-30.6 9.5-5.2 15.3-.8 24.1.6 56.5 8.7 112.8 10.1 169.8 11.2 89.9 1.7 181.6 2.4 270.7-11.2 7-1.1 12.6-4.7 20.8-2.3 3.6 1.1 30.4 22.7 34.4 26.6 2.7 2.7 3.9 3.8 5.7 7.3 7 13.6 13.4 35.2 18.8 50.2 21.7 60.2 40.5 121.5 54.3 184.2m-90.5-220.5c-2.3-2.7-33.4-24-36.1-24.4-102.4 4-204.5 7.8-307 5-50-1.3-99.8-4.2-149.8-4.8-3.2.9-34.2 23.4-35.8 26.2-7.4 12.8-16 42.8-21 58-19 58-34.9 117.2-47.8 176.8 82.7 63.6 187.2 105.6 291.4 116.7 76.2 8.1 155.6-7.3 226.7-34.2 53.3-20.1 104.9-47.1 149.6-82.4-15.5-68-33.3-137.2-56.8-202.8-2.4-6.4-10.2-30.3-13.4-34.1M669.8 911.2c-.8-.5-10-.5-11.2-.1-1.4.5-1.6 1.8-2 3-2.1 6.6-3.6 23.1-3.7 30.3-.1 4.7.2 15.4 1.6 19.5 1.6 4.8 22.8 22.8 28 27 177.6 144.3 516.7 144.2 690.5-6.5 4.9-4.2 20.3-17.4 21-23 .9-6.9.5-22.7-.1-30-.2-3-2.2-16.9-3.2-18.8-1.3-2.4-8.7-2.2-11.3-1.7-2.1.4-11.3 9.8-14.1 12-198.9 156.7-498.4 148.5-694-9-.8-.7-1.1-2.4-1.5-2.7M625 965c-40 .4-79.8-.6-119.5-2-48.2-1.6-162.7-14.1-202.1 9.8-21.1 12.8-13.6 28.5-.4 43.7 17.7 20.3 40.3 32.2 61.8 47.3 23.4 16.4 43.7 32.3 69.2 45.8 115.3 60.9 250.1 91.7 377.8 114.2 89.6 15.8 180.7 29.4 271.7 21.3 61.9-5.5 124.6-15.8 185.7-27.3 116.3-21.9 237.4-52 342.8-107.2 25.4-13.3 45.1-28.6 68.3-44.7 21.5-15 44.7-27.6 62.8-47.2 10.7-11.7 22.1-26.1 8.5-40.6-20.6-22.1-98.8-19.6-128.1-19-46.6 1-93.3 5.1-139.9 6.1-20.2.4-40.4-.4-60.6 0-.2 8.8.8 14.4-5 21.5-12.5 15.2-41.9 34.4-59.1 45-71.3 43.8-150.2 72.1-233.6 82.4-158.8 19.8-329.9-4.1-461.7-99-8.5-6.1-36.8-27.3-38.4-36.6-.4-2.2.2-13-.2-13.5" class="outline" data-original-prefix="outline"/><path id="outline-head-hat1" class="outline"  fill="#000" d="M769 677c.1.1.3 1.7 1 2.5 18.2 19.6 37 41.6 59.1 56.9 18.6 12.9 36.2 10.9 57.4 13.6 47.4 5.9 95.5 11.7 143 11 44.8-.7 87.7-5.5 132-11 38.4-4.8 44.1-1.3 74.5-27.5 15.9-13.7 30.2-29.3 43.5-45.5 2.1-.4 1.4.8 1.8 2.2 2.1 6.9 2.2 14.3 3.7 21.3-.2 1.9-15.8 17.9-18.5 20.5-7.1 6.9-33.2 31.4-40.5 34.5-16.7 7.1-55.5 11.8-74.7 14.3-96.5 13-203.8 11.5-299.4-7.3-8.2-1.6-23.8-3.9-30.7-7.3-10-4.9-42-35.3-50.3-44.7-1.1-1.3-7.2-8-7.5-8.5-1.1-2.3 1.7-17.9 2.7-21.3.4-1.2.9-5.4 2.9-3.7" class="outline" data-original-prefix="outline"/></g></g></svg>