<?xml version="1.0" encoding="UTF-8"?>
<svg xmlns="http://www.w3.org/2000/svg" viewBox="0 0 2048 2048">
<style>
  .outline { fill: #000000; }
  .fill { fill: #ffffff; }
  .shading { fill: #aaaaaa; opacity: 0.5; }
</style>

<g class="background">
  </g><g class="background"><path id="color-red" class="color" d="M2048,4.5c-.1,679.6-.1,1359.2,0,2038.8,0,3.8-.8,4.6-4.6,4.6-679.6-.1-1359.2-.1-2038.8,0-3.8,0-4.6-.8-4.6-4.6C.2,1362.3.1,681.2.1,0h2043.3c3.8,0,4.6.8,4.6,4.6h0v-.1Z" style="fill: #af6e6e" fill="#af6e6e"/></g><g class="background">
</g>
<g class="trait-group" data-category="jaw">
  </g><g class="trait-group" data-category="jaw"><!-- Generator: Adobe Illustrator 29.1.0, SVG Export Plug-In . SVG Version: 2.1.0 Build 142)  --></g><g class="trait-group" data-category="jaw">
  </g><g class="trait-group" data-category="jaw"><defs>
    
  </defs></g><g class="trait-group" data-category="jaw">
  </g><g class="trait-group" data-category="jaw"><path id="fill-jaw" class="fill" d="M1396.7,1438.7c-6.7,4.3-46.8-1.7-48.7.3l-12.2,69.8-57.2,29.3-1.4,1.6c-1.5,11.9,1.5,24.2.9,35.9-.3,4.9-1.3,15-2.3,19.7-.6,2.8-13.7,32.2-15,33.5s-16.1,8.9-16.7,8.3l-9.5-50-51,52c-7.7,5.7-20.7,9.3-27.5,15.5-14,12.7-25.2,37.4-42.1,47.9-5.4,3.3-61.3,25.7-66.7,26.3-13.8,1.7-33-3.3-47.7.2-17.7-10.3-50.1-16.2-66.1-26.9-14.3-9.6-28.3-35.6-41.4-47.6-6.7-6.1-19.9-9.6-27.5-15.4l-51-52-9.6,48.4c-.6.9-.9,1.7-2.2,1.5-.8,0-13.8-7.6-14.4-8.2-1.4-1.4-15.9-33.3-16.2-35.3l-.5-54.4-58.2-30.3-12.3-69.7c-8.1-1.2-45.1,3.9-49.5-1l-37.1-85-.5-3.4,31.5-70.6c5.3-1.6,29.1,0,31.3-6.7.8-2.3-.6-19.5-1.3-22.4-2.2-8.4-16.2-24-19.8-33.2-.7-1.7-1.2-3.1-.6-5,4.7-11.3,10.3-22.3,14.1-34,7.3-22.4,7.2-42.6,16.9-65.1,47.5-110.2,188.9-176,299.9-200.1,44.7-9.7,79.8-1.5,122.7,11.2,98,28.9,222.6,97.5,259,199,6.8,19,7,38.1,13.5,57.5,3.8,11.2,10.1,22.1,13.7,33.4,0,1.4-8.3,16.4-9.8,19.1-2.4,4.3-9.7,13.4-10.7,17.3-1.8,6.8-.6,15.6-2.3,22.5,9.9,7.9,21.3,4.2,32.4,6.5,9.6,23.9,23.5,46,31.4,70.6-9.8,26.3-22.2,51.8-33.2,77.7-1.3,3-1.7,9.3-5.1,11.4h0Z" fill="#FFFFFF"/></g><g class="trait-group" data-category="jaw">
  </g><g class="trait-group" data-category="jaw"><path id="shading-jaw" class="shading" d="M1380.8,1185.8c-.2.4-2.1.7-2.8,1.7-8.6,10.8-16.2,26-21,39-4.2,11.4-5.1,22.7-13,32-18.8,22.4-51.8,45.5-78.3,57.7-5.4,2.5-12.5,3.7-16.7,7.8h20.5c2.7,0,5.1,1.2,7.9,1.1,18.1-.2,64.4-19.8,77.5-32.6,5.7-5.5,14.1-15.7,15-23.5,1.8,0,.7,2.4,1.5,4,3.1,5.9,15.5,5.2,21.5,6,.2,1.6-1.5.7-2.3,2.2-4.6,8.3-4.4,21.6-10.6,28.3-7.5,8.1-37.1,13.5-48.8,17.2-14.5,4.6-29.8,8.8-42,18.1l-52.8-14.8c-19.3-2.3-9.9,15.4-5.3,25.3,5.2,11.3,20.7,40,30.4,46.6,11.9,8.2,22.7-10.2,30-17,6.3-6,16.2-11.8,24.6-14.4,17.7-5.6,32.3,4.7,50.5,5.4,17.4.8,34.6-7.7,48.8-17.2,3.6-2.4,14.6-13.9,17.2-13.8,1.7,0,3.3,6.1,1.8,7.8-10.1,24.3-21.6,48-31.8,72.2-3.7,8.8-.8,14-13,15-9.3.7-15.8-1-24.2-1.8-4.8-.4-11.8,2.5-17.3-.2l-12.9,70.6-59,30.5c.4,11,2.6,23.6,2,34.5-.3,5.7-1.3,15.4-2.1,20.9-.5,3.1-13.4,31.4-15.4,33.6-3,3.2-11.6,6.2-15.5,9-.8-4.9-2.7-10.6-3-15.5-.6-11.2,2-11.3-2.7-23.2-.4-1.1-1.9-1-2.2-2-.8-2.2-.8-6.7-1.1-9.2l-2.3.2-50.2,51.8c-7.7,5.2-19.5,8.7-26.5,14.5-14.2,11.7-24.4,36.1-41.5,47.5-6.7,4.5-54.2,25.7-61.2,26.8-9.9,1.5-51.8,1.6-61.5,0-6.9-1.2-49.7-20.5-57.3-24.7-15.8-8.9-30.2-37.8-44.4-49.6-6.9-5.7-19-9.3-26.5-14.5l-51-52c-1,8.1-7.3,16-8.1,24-.6,6.2.6,14.6-.3,21.6-.2,1.7-3,1.8-2.1,4.4-.6.7-14.6-8.1-15.5-9-1.7-1.8-15-30.8-15.4-33.6-.7-4.4-.9-13-1.1-17.9-.5-12.2.6-24.4.5-36.6l-58.5-31.4-13-69.5-48.8-.2-38-86.6.9-6.2c8.2.4,11.8,8.2,18.6,12.7,25.3,16.9,38.4,19.8,68.5,13.9,17.1-3.4,19.1-7.5,37.2.4,15.9,7,19,16.2,30.6,25.4,9.6,7.6,13.6,7.9,22-1s31.8-49.1,32.1-60c.2-8.7-6.4-8.1-13.3-7.2-8.6,1.1-48.4,15.1-51,14.6-1.7-.4-12.3-7.9-16.5-9.6-20.3-8.4-48.8-11.8-67.2-20.8-14.9-7.3-11.3-20.9-17.7-33.2-.9-1.6-2.5-.6-2.3-2.2,6.3-.9,17,0,21-5.5,1-1.4.3-3.7,2-3.5,3,11.7,15.2,23.9,25.1,30.4,21.2,13.8,50.4,23.7,75.4,23.5h20.5l-34.7-16.8c-19.1-10.8-48.2-33.1-61.8-50.2-6.2-7.8-7.1-18.3-10.5-27.5-6-16.6-14.4-32-25-46,1.3-9,6.5-19.6,7.8-28.2,1.9-12.9,1.8-19.5,6.5-32.5,36.4-101.1,159.2-169,256.8-198.2,49.9-15,102.4-18.2,153.2-5.2,103.5,26.4,242.6,100.3,277.2,208.8,3.4,10.5,3,17.3,4.8,27.2.8,4.7,8.9,28.4,7.6,30.6l-.5-.2ZM1195.9,1382.1c-32.3-16.1-63.1-35.3-95.9-50.7-17.5-18.7-37.4-36.6-54.6-55.4-4.8-5.3-11.2-16-16-20-3-2.6-7.4-3-10.6-.6-4.5,3.4-12.7,16.4-17.4,21.6-16.7,18.6-36.8,35.6-53.6,54.4-32.9,15.3-64,34.2-96,51.2-.6,2.8,12.4,35,14.6,40.3,2.9,7.1,12.1,31.7,16,36.1,7.1,8,36.5,26.3,47,33,19.8,12.7,36.1,22.9,59.3,28.7,27.3,6.8,39.7,7.1,67,.6s43-16.6,65.7-31.3c10.4-6.8,35.9-22.5,43.4-30.6,4-4.4,12.7-27.4,15.6-34.4,2.1-5.1,16.8-41,15.5-42.9M728.3,1496.7c1.6,2,8.2,6.3,10.7,7.8,14.7,8.8,31.8,13.8,46.9,23.1,16.8,10.2,40.2,33.1,59.6,33.5,2.3,0,8.7-1.2,9.4-3.7s-13.6-27.6-16.4-30.3c-7.3-7.1-27.5-17.2-37.2-23.8-15.2-10.3-50.3-39.1-67.9-39.2-10.5,0-8.7,28.1-5.1,32.7h0ZM1319.7,1466.3c-5.9-5.9-24.1,4.1-30.4,7.6-16.2,8.9-31,21.4-46.2,31.8-12.7,8.7-30.1,15.7-38.6,28.4-2.2,3.4-10.8,17.7-11.4,20.7-1.1,5.3,6.2,6.5,10.3,6.3,16-.9,23.4-9.7,35.2-17.8,9.2-6.3,19.3-13.6,29-19,11.7-6.6,47.1-19.2,52.7-29.3,2.4-4.3,2.8-25.2-.7-28.6h0ZM1126,1664c-12-2.7-20.7,6.6-31.6,7.9-5.7.7-12.2-1.2-16.6-.7-7.1.8-22.9,12.1-31.2,14.9-14.8,4.9-30.2,4.7-45.1,0-8.8-2.8-23.9-14.1-31.2-14.9-4.4-.5-10.9,1.4-16.6.7-11-1.3-19.9-11-31.6-7.4,0,6.9,23.8,23.5,30,27,12.5,7.1,59.8,26.8,72.5,26.6s59.9-19.8,72.2-26.9c10.3-6,24.6-16.2,29.3-27.2h-.1Z" fill="#AAAAAA" style="opacity: 0.5"/></g><g class="trait-group" data-category="jaw">
  </g><g class="trait-group" data-category="jaw"><path id="outline-jaw" d="M676,1140c5.3-3,18.5-3.6,19.1,4.5-2,7,0,18.6-3.2,24.9s-17.1,12.9-20.3,20.7c-1.1,2.6-6.2,25.4-6.5,28.5,0,1.3-.2,2.3.2,3.6,1.8,6.8,14.7,21.7,18.7,29.4,5,9.8,6.5,20.8,10.3,30.7,5.7,14.4,14.5,13.4,26.1,19.9,7.6,4.3,16,10.2,22.7,15.8-3.8,0-7.5.2-11.2-.2-8.4-1.1-30.6-5.8-38-8.9-9.8-4.2-8.9-17-13.8-20.2-2.7-1.8-8.7-1.2-12-2-6-1.4-9.7-6.6-16.7-1.3-6,11.6-13.4,22.6-19.2,34.3-7.3,15-16,27.5-6.5,43.3,5.5,9.2,23.4,26.5,26,35,2.4,7.9-2.3,28.2,2.4,33.6,7.5,8.5,28.6,4.4,35.5-3.6,2-2.4,2.5-6.3,4-9,6.3-10.9,19-25.2,30.7-30.3,12.2-5.3,16.1,11.4,18.4,20.3,3.6,14.2,1.3,26.5,12,38,6.7,7.3,18.2,14.5,27.2,18.8,4.7,2.2,21.2,9.9,25.3,10.7,12.8,2.4,25.4-6.5,32.6-16.5,2-2.8,2.8-6.3,4.7-9.3,9-14.8,16.3-6.2,25.8,1.8,11,9.2,20.9,19.8,32,29,45.8,38.3,90.7,54.1,151.4,45.3,58.2-8.4,83.7-40.7,125.7-75.3,2.2-1.8,8.8-7.7,10.8-8.2,12.1-3.2,14.2,10.5,19.7,17.8,5.7,7.4,15.3,15.6,25,16,7,.3,27.7-8.7,34.9-12.2,10.9-5.3,28.8-17.6,32.4-29.6,2.2-7.6,2.6-17.3,4.6-25.4,2.3-9,6.1-26.7,18.6-21.2,9.4,4.1,22,16.8,27.5,25.5,5.6,8.9,3.9,13.8,14.9,19.1,7.3,3.5,20.9,5,27.1-1.3,5.8-5.8.5-25.5,3-34,2.6-8.8,20.8-26.2,26.4-35.6,8.1-13.8,2.8-20.8-3-33.7-6.7-15-15.5-28.9-23.1-43.4-6.9-5.2-11.2-.2-17.5,1.5-3,.8-8.4,0-11.2,1.8s-5.1,12.8-8.6,16.4c-2.4,2.4-6.7,4-9.9,5.1-7.8,2.7-25.9,6.9-34.1,7.9-3.4.4-7,0-10.4,0,6.2-5.6,14.7-11.2,22.1-15.4,10.5-5.9,20.2-6.1,25.7-18.3,4.2-9.5,5.8-20.9,10.4-30.6,4.3-9,17.4-23.9,19.4-31.6.4-1.7.5-2.5.2-4.2-.6-4.5-5.3-24.5-6.9-28.2-3.4-7.8-19.2-16-20.8-22.2-.9-3.4-2.7-24.1-1.6-26.4,2.2-4.5,13.6-3.5,17.5-1,.8,2.8,2.9,13.6,4.2,14.8,4,3.5,21.3,4.8,24.5,11,2.5,4.8,0,15.5.2,21.8,0,2.9.8,7.8,1.3,10.7,1.5,8.6,9.7,23.3,7,30.5-2.3,5.9-12.8,22-16.8,28.2-3.3,5.1-7.9,9.5-10.4,15.1.7.7,9.7-4.6,10.9-5.6,5.4-4.1,7.6-12.1,14.6-5.5,4.7,4.4,13.6,18.5,17.5,24.5,10.1,15.9,19.6,34.4,25.7,52.3,1.6,4.7,5.8,14.8,3.7,19.2-.7,1.6-9.2,9.8-11.3,12.7-16.3,21.9-31.2,47.4-32.7,75.3-.8,1.3-2.2,1.8-3.5,2.5-5.7,2.8-27.3,11.7-32.6,12.4-3,.4-6.5.3-9.5-.3-4.5-.9-7-4.1-10.9-5.6-1.1,9.1-2.6,18.4-3,27.5-.4,7.8,1.5,32.2-.6,37.4-.4,1.1-11.8,14.9-12.7,15.3-3.8,1.8-11.7.3-16.3.7-13.5,1.3-21.2,15.2-25.2,26.8-4.6,13.3-5.2,27.9-9.2,40.8-5.8,19.3-37.7,50-54.2,61.8-.9.6-4.2,3.4-4.9,2.6,1-15.3,2.8-31.2-2.6-46-.3-.9-1.8-5.7-3.4-4-.6.6-3.5,12.5-6.2,16.3-8.3,11.9-29.2,7.9-37.8,19.2-9.5,12.3-7.6,28.7-22.1,38.9-32,22.4-79.6,38.4-117.7,46.3-12.4,2.6-16.8,2.3-29-.4-35-7.6-67.9-18.6-99.2-35.8-5.1-2.8-20.9-11.4-23.8-15.2-6.2-8-8.6-25.8-15.6-34.4-9.6-11.7-30.7-5.5-39.2-21.8-1.5-2.8-3.8-12.7-4.3-13.2-1.8-1.8-3.8,4.8-4,5.4-4.5,13.8-3.1,29.3-2,43.5-1.7,1.8-16.8-10.7-19-12.5-15.1-12.7-36.9-37.3-41.5-56.5s-7.6-59.5-33-62c-4.4-.4-13.1,1-16.5-.5-.9-.4-12.1-14.4-12.5-15.5-2.6-7.5-.2-27.3-.6-36.4s-2.3-19.1-3-28.5c-.4-.5-9.5,5.3-11.7,5.8-13.3,2.8-32.2-10.6-45.1-13.9-.7-27.4-14.8-51.6-30.3-73.2-2.2-3.1-4.5-6.2-6.8-9.2-4.1-5.2-7.9-4.8-6.9-12.9,1.3-10.6,13.1-35.4,18.4-45.6,3.6-6.8,26.1-44.2,31.2-45.8,7.3-2.2,13.1,11.5,21.3,11.8l-25.5-40.9c-4-9.3,4.3-21.7,6.2-31.8s.2-19.2,1.3-28.7,18.5-11,25.8-14.7c2.6-2.8,1-6.8,1.5-9,.4-1.9,1.3-3.7,1.8-5.8h-.5ZM799,1627.5v-20c0-3.1,8.8-25.7,11-27,4.3-2.7,20.4,9.8,24,13,12,10.5,20.7,26.3,32,36,8.5,7.4,21.1,12,29.5,19.5,10.9,9.6,20.1,26.5,30.5,37.5,11,11.7,29.8,18.4,44.7,24.3,25.1,9.9,38.9,14.1,66.8,12.3,16.1-1,62.3-19.4,76.4-28.6,13.7-8.9,25-32.9,37.6-44.4,9.3-8.6,24.5-14.2,33.6-22.4,10.1-9.2,18.3-23.6,29.4-33.6,3.6-3.3,19.9-16.8,24.4-13.8.8.6,6.9,16.7,7.6,18.9.5,1.7,2.5,8.4,2.5,9.5v17c0,.6-1.6,2-1,3.5,10.4-10.7,20.8-25.9,23.6-40.9,2.4-12.9,1.4-27.4.4-40.5-.3-4-2.6-6.9-.8-10.8,3.7-8.5,20.8-15.9,29.2-19.9s24.7-7.7,29.1-15.9c4.6-8.5,2.6-32.2,3.7-43.3,1-10.3,7.7-19.4,6.9-29.1-.6-6.6-5.4-16.3-10-21-1.5-1.5-8.2-6.7-10-5.5-1.8,1.3-7.1,27.7-7.1,31.5,0,7.3,4.4,13.6-2.4,19.5-17.3,15-41.2,23.8-61.1,34.9-5.5,3.1-23.5,16.8-28.6,16-2.7-.4-5.4-3.6-9.2-3.9-11.7-.8-14.9,8.5-22,15-16.4,14.9-41.2,22.8-63,25-69.3,7-135.6,7.1-205,0-22-2.2-45.8-9.7-62.5-24.5-7.2-6.4-10.9-16.4-22.5-15.6-3.7.2-7.5,4-9.8,3.8-5.4-.5-21.2-12.7-27-15.9-13.4-7.4-27.8-13.2-41-21-4.6-2.7-22.9-14-23.7-18.3-1-5.2,1.1-10.4,1.1-15s-5.6-31.3-7.6-31.5c-7.7-.9-16.7,15.1-18.5,21.5-4.1,14,4.6,20.6,5.9,34.2,1.4,13.7-4.1,40.6,8.8,49.2s39.9,13.7,50.8,26.2c5.6,6.4,1.4,8.6.7,15.6-3.2,29.7,1.3,54.7,20.9,77.8.5.6,3.9,4,2,1l-.3-.3Z" class="outline" fill="#000000"/></g><g class="trait-group" data-category="jaw">
</g>
<g class="trait-group" data-category="mouth"><path id="fill-muzzle" fill="#fff" d="M1125 1622c-3.4-2.3-6.5 6.6-8 8.5-3.7 4.7-17.7 19.6-23.5 19.5-2 0-5.3-4.8-7.8-6.2-7.4-4.3-19.1-5.3-26.8-1.4-4.2 2.2-10.1 9.4-13.4 9.7-7.7.5-10.7-10.3-17-11.2-2.3-.3-9.7-.3-11.5.6-3.2 1.4-8.9 10.8-13.7 11.3-3.1.3-10.3-8.4-13.4-10.2-6.5-3.8-16.5-3-23.5-.6-4.3 1.5-10.5 8-12.8 7.8-5.8-.5-18.9-14.5-22.7-19.3-1.6-2-2.1-4.7-3.5-6.4-5.4-6.8-5.6 3.9-7.6 7.3-9.4 15.7-21-13.3-24.8-18.9-2.4-3.5-7.2-5.7-10-9-9.7-11.6-6.4-27.5-10.3-40.7-1.7-5.8-11.6-19.5-14.9-27.1-10-22.6-12.3-43.5-10.8-68.2-2.4-7.1.4-27.9-4.5-32.5-2.1-2-6.1-2.7-8.5-4.5-5.9-4.5-12.8-32.2-11.9-39.8 1.1-9.4 12.1-25.4 18.4-32.6 12.3-14.3 37.4-24.6 56-26 4.8-.4 28.1 1.1 29.5.5s5.1-5.4 7.1-6.9c8.7-6.5 17-9.5 27.7-11.3 3.7-.6 7.6.4 11-1 3.1-1.3 11.4-13.2 17.3-16.7 10.5-6.1 38.9-5.7 51.5-4.6 5.7.5 13.4 3.6 18 7 3.7 2.8 11.2 13.2 13.8 14.2 3.3 1.4 7.3.4 11 1 8.9 1.5 16.5 3.9 24.1 8.9 2.7 1.8 9.7 8.9 10.7 9.3 1.3.6 23.9-.9 28.5-.6 16.1 1.1 33.8 7.8 46.8 17.2 12.1 8.8 30.2 32.8 28.7 48.3-.4 4.3-7 26.5-9.2 29.8-3.6 5.6-10.6 4.5-13.7 10.3l-3.2 43.8c2 20.7-2.7 38.4-11.1 56.9-3.2 7-11.5 17.9-13.4 23.6-4.4 13-.9 27.8-9.6 40.4-2.9 4.2-8.2 6.2-10.8 10.2-1.6 2.3-2.2 5.7-3.8 8.2-2.8 4.2-10.6 16.7-16.2 14.9-7.1-2.2-6.8-12.8-8-13.6h-.2Z" class="fill" data-original-prefix="fill"/></g><g class="trait-group" data-category="mouth"><path id="fill-teeth16" fill="#fff" d="M995.3 1525.7c11 9.5 17.2-6.6 23.2 6.3 6.5 14.1 3.7 38.4-1 52.9-.7 2.1-7.1 16.9-8 17.1-1.2.3-3-.4-4.2-.9-12-5.1-31.7-18.1-39.1-28.9-10.6-15.5-6.4-42.9 6.8-55.8 1.3-1.3 9.1-5.6 10.4-5.3 1.5.3 9.4 12.3 12 14.5h-.1Z" class="fill" data-original-prefix="fill"/></g><g class="trait-group" data-category="mouth"><path id="fill-teeth15" fill="#fff" d="M1039.1 1601.9c-.8-.5-7.5-16.1-8.1-18.4-4.1-13.8-6.5-36.9-1.3-50.3 4.6-12 8.1-4.3 15.8-4.2 9.5.2 17.3-18.2 20.8-17.9 1.2 0 8.5 4.2 9.7 5.3 6.3 6.2 12.2 22.3 13 31 2.4 28-20.3 39.6-41.3 50.7-2 1.1-5.7 5.5-8.6 3.7Z" class="fill" data-original-prefix="fill"/></g><g class="trait-group" data-category="mouth"><path id="fill-teeth14" fill="#fff" d="M904 1461c0 2.2-1.1 3.8-.8 6.2.2 1.8 7.1 22 8 23.1 3.9 5.1 11.2 3.2 16.7 3.8 4.9 13.5-4.2 23.8-8.6 35.6-2 5.3-8.7 33.1-12.8 34.2-1.8.5-6.8-9.1-8.3-10.7-10.3-23.9-15.3-58.4-2.6-82.2.6-1.2 7.1-11.6 8.4-10.1Z" class="fill" data-original-prefix="fill"/></g><g class="trait-group" data-category="mouth"><path id="fill-teeth13" fill="#fff" d="M1144 1564c-2.1 1.4-6.1-7.1-6.8-8.7-3.2-7.9-4.4-17.4-7.5-25.5-4.3-11.6-13.6-22-8.6-35.6 4.8-.6 12.3 1.2 15.9-2.9 1.3-1.5 8.1-20.6 8.6-23.2.3-1.8-1.4-7 .9-6 6 2.7 13.7 26 14.4 32.6 1.4 13.9-2.9 45-9.3 57.4-.8 1.5-7 11.6-7.6 11.9" class="fill" data-original-prefix="fill"/></g><g class="trait-group" data-category="mouth"><path id="fill-teeth12" fill="#fff" d="M1093.1 1644.9c-2.9-1.8-2.4-28.5-2.1-33.4.7-10.5 5.2-31.2 8.9-41.1 1.1-2.8 2.4-1.4 4.2 0 12.2 9.6 21.1 44.8 12.8 57.9-1.9 3-15.6 14.9-18.9 16.1-1.3.5-3.8 1.1-4.8.4Z" class="fill" data-original-prefix="fill"/></g><g class="trait-group" data-category="mouth"><path id="fill-teeth11" fill="#fff" d="M949 1569c5.5 22 11.1 44.4 9 67.5-.5 5.2-.9 10.3-7 8-3.4-1.3-17.5-13.4-19.5-16.5-5.8-9.2-1.4-31.3 2.7-41.2 1.2-2.9 11.3-21 14.8-17.7Z" class="fill" data-original-prefix="fill"/></g><g class="trait-group" data-category="mouth"><path id="fill-teeth10" fill="#fff" d="M881.7 1478.3c3.1 2.8-2.7 21-2.8 26.2 0 5.9 2.6 12.4 3.1 18 .2 2.1.7 24.5-.5 24.5-1.5.2-2.1-1.1-2.9-2.1-15.6-18.9-34.8-51.8-17.4-75.3 6.5-8.8 10.5 2.1 14.9 5.8 1.8 1.5 4.9 2.1 5.7 2.8Z" class="fill" data-original-prefix="fill"/></g><g class="trait-group" data-category="mouth"><path id="fill-teeth9" fill="#fff" d="M1185.7 1467.3c1.9 1.6 7.8 13.7 8.2 16.2 3.2 20.7-9.8 47.3-23.9 61.9-.9 1-1.3 1.9-3 1.5.5-8-.7-16.6 0-24.5.4-5.4 3.1-12.3 3.1-18s-6.1-23.4-2.8-26.2c.6-.6 2.5-.6 3.8-1.7 3.4-3 10-13.1 14.7-9.3Z" class="fill" data-original-prefix="fill"/></g><g class="trait-group" data-category="mouth"><path id="fill-teeth8" fill="#fff" d="M1018 1613v16.5c0 .9-10.8 13.2-11.9 14.1-6.3 4.8-8-2.6-10.6-5.5-5.5-6-17.9-.4-24.4-5.6-1.2-.9-4.1-8.8-4.1-9.9v-22.5c12.9 1.7 28.3 17.5 41.4 15.9 3.5-.4 6.1-3 9.6-2.9Z" class="fill" data-original-prefix="fill"/></g><g class="trait-group" data-category="mouth"><path id="fill-teeth7" fill="#fff" d="M1031 1613c6.3 1.3 9.1 4 16.1 2.6 10.6-2.2 24.3-14.8 33.4-15.6 2-.2 1.4 0 1.2 1.3-.8 6.5 2.4 27.5-4.4 31.6-7 4.2-18.8-.3-23.4 4.6-2.1 2.2-3.6 8-8.4 7.6-1 0-14.6-13.5-14.6-14.6V1613z" class="fill" data-original-prefix="fill"/></g><g class="trait-group" data-category="mouth"><path id="fill-teeth6" fill="#fff" d="M1102.5 1494c3.3-.8 4.5 6.9 5.3 8.7 5.6 12.1 13 24.8 13.3 38.8.2 9-16 29.8-21.3 16.2-4-10.4-4.1-44.8-1.1-55.5.4-1.6 2.4-7.9 3.8-8.2" class="fill" data-original-prefix="fill"/></g><g class="trait-group" data-category="mouth"><path id="fill-teeth5" fill="#fff" d="M937.3 1559.7c-1.9-1.6-7.8-10.5-8.5-13-3.6-12.1 6-31.3 11.4-42 1.6-3.1 3.3-14.7 8-7.4 5.5 8.5 4.3 41.5 2.7 52.1-1.2 7.7-3.6 18.7-13.6 10.3" class="fill" data-original-prefix="fill"/></g><g class="trait-group" data-category="mouth"><path id="fill-teeth4" fill="#fff" d="M917 1563c-1.8 13.4 2.9 27.5 2 40.5-.6 9-4.4 18.4-5.5 27.5-6.2-6-10.5-16.1-11.4-24.6-.5-5.2.7-24.7 2.4-29.3.6-1.6 10.5-16.2 12.4-14.1Z" class="fill" data-original-prefix="fill"/></g><g class="trait-group" data-category="mouth"><path id="fill-teeth3" fill="#fff" d="M1135 1631c-.4-8.9-4.4-17.8-5.1-26.5-1-13.8 3.7-27.6 2-41.5 2.2-2.4 11.9 13 12.5 15 2 6.6 2.6 27.4 1.2 34.3-1.3 6.3-5.5 14.9-10.8 18.7z" class="fill" data-original-prefix="fill"/></g><g class="trait-group" data-category="mouth"><path id="fill-teeth2" fill="#fff" d="M1154.1 1604.9c-3.4-2-5.1-22.3-3.9-26.2.8-2.6 8.9-5.2 10.2-8.8l5.1-10.9c3.8 3.4 5.1 7.2 4.3 12.2-.7 4.2-5.4 22.7-6.9 26.2-.9 2.2-6.1 9-8.8 7.5" class="fill" data-original-prefix="fill"/></g><g class="trait-group" data-category="mouth"><path id="fill-teeth1" fill="#fff" d="M885 1559c-.3 3.7 1.7 9.4 4 12.2s9.5 5.2 10 8.3c-2 8.4 1.6 19.2-5.7 25.4-3.6-1.1-6-4-7.4-7.4s-6.5-23.6-6.9-27.1c-.5-4.2 1.2-10.6 5.9-11.4z" class="fill" data-original-prefix="fill"/></g><g class="trait-group" data-category="mouth"><path id="outline-shading-mouth2" fill="#000" d="M918 1443.5c.8 5.3 5.6 13.8 10.1 16.9 11.5 8.3 16.2-.3 22.4-9.4 2.5 5.4 3.4 11.5 6 17 1.4 2.8 5.7 12 7.5 5.5l4-11.5c1.6 7.5 6.3 15.4 11.5 21 4.3 4.7 18.8 15.4 24.6 9.6 2-2.1 8.3-17.9 10.8-22.2 1.2-2.2 7.8-13.8 9.7-13.3 1 .2 8.5 13.2 9.7 15.3 2.4 4.5 7.3 17.7 9.8 20.2 3.8 3.8 10.5.4 14.4-1.8 10.5-5.9 18.5-17.2 21.7-28.8l4.2 12.3c.3 1.2 1.9 2.4 2.8 1.7.6-.4 5.8-11.3 6.5-13 .8-2 2.8-12 4-12 6.8 10.7 12.9 18.4 24.5 7.5 8.6-8 9.3-23.8 7-34.5 3.5-3.1 21.1 16.1 26.6 16.9 9.1 1.4 17.6-11.8 19-19.9 3.5-20.5-12.9-39.2-30.9-46.2l-12.7-4.8c15.4 0 28.2 2.9 41.1 11.4 4.8 3.1 12.2 10.9 17.6 11.4 6.2.6 10.1-4.1 10-10-.4-19.3-25.8-38.1-39.7-48.8 15.4 2.4 34.6 11.8 45 23.5 7.8 8.8 19.1 25.1 19.1 37s-6.4 28.5-9.2 32.8c-3.3 5.3-11.7 5.4-13.4 10.6-.9 8.1-2.1 16.4-2.5 24.5-1.5 29 1.4 45.2-10.8 73.2-3.6 8.2-12.7 20.4-14.9 27.1-4.2 12.8-.7 26.4-9.1 38.9-3.2 4.8-8.4 6.7-11.2 10.8-1.7 2.5-2.4 6.1-4.2 8.8-4.5 6.7-14.6 23-21.6 8.9-1.6-3.3-1.3-12.9-6.7-6.2-1.4 1.7-1.9 4.4-3.5 6.5-3.7 4.7-17.7 19.6-23.5 19.5-2.2 0-4.5-4.1-6.6-5.4-7.9-5-21.1-6.3-29.2-1.4-7.3 4.4-9.5 13.6-18.1 6.8-8.6-6.7-6.4-10.8-20.1-9-5.6.7-11.4 12.6-16.9 12.1-2.8-.2-11.4-11.1-18.5-12.6-6.3-1.3-17.5.7-23 4.2-2.6 1.7-4.1 5.6-7.5 5.4-5.7-.3-19.8-15.8-23.6-20.5-1.2-1.5-4.4-10.6-7.1-6.9-2.5 3.4-.6 9.9-7.2 12.7-7 3-14.9-11.2-18.1-16.4-1.2-1.8-1.2-4.3-2.6-6.4-2-3-6.8-5.4-9.5-8.5-10.4-11.9-6.7-27.7-10.7-41.3-.8-2.6-5.6-8.5-7.3-11.7-18.4-35.7-16.4-45.6-18.4-84.6-.4-7.7-.6-20.7-2.2-27.8-1.5-6.2-11.1-6.1-14.2-11.8-3.4-6.1-9.3-29.6-8.6-36.4 1.2-10.3 16.2-31.2 24-38 10.5-9.2 26.2-16.5 40-18.5l-21.5 17c-7.2 6.4-26.8 32-14.8 39.9 9 5.9 16.7-4.5 23.7-9.1 12.7-8.4 25.3-11.8 40.7-11.8l-17.3 7.2c-18 9.4-33.1 32.7-22.1 52.8 1.7 3.1 8.6 10.4 12 11.1 9.1 1.7 20.7-15.4 29.5-18 .6 6.4-.9 14.3 0 20.5zm-37.1 40.6c-12.3-.5-17.1-20.2-22.8 1.5-3.4 13 1.2 26.4 9.4 36.5 1.5 1.8 12.7 13.1 13.9 12.9.8 0 2.5-2.3 2.8-3.2 2.9-7.1-3.2-12.2-4.2-19.2-1.5-9.8 0-18.7.9-28.4Zm301.8-8.9c-3.2.8-6.3 6-8.8 7.3-2.1 1.1-7.2 1-7.8 3.2-.5 1.7 3 10.8 2.9 14.8 0 3-1.5 13.9-2.2 16.8-.9 3.6-3.9 5.7-3.9 10.2s1.4 7.1 3.7 7.4c1.9.3 15-14.4 16.8-17 5.7-8.5 9-18.8 7.3-29.2-.5-3-4.4-14.5-8-13.6Zm-284.8 10c-4-2.3-6.5 9.9-6.8 12.5-1.2 10.5 3 38 8.7 47.1 1.9 3 5.4 6.9 9.2 7.3 3.7-15.6 12.6-29.2 21-42.5-2.3-.4-1.7-2.9-2.7-3.5-1.5-.9-7-1.9-9.7-3.1-4.7-2.2-12-7.7-15.6-11.4-1.2-1.2-3.8-6.2-4.2-6.3ZM1139 1552c8.3-2 11.9-12.2 13.9-19.6 3.1-12.1 6.1-33.4 1.1-44.8-3-6.9-5.8 1.7-8.3 4.1-3.9 3.8-11 9.3-16 11.6-2.5 1.1-7.8 1.8-9.1 2.7-.7.5-.5 1.8-1 2.7-.3.4-1.7.4-1.6.9 0 1 7.9 12.3 9.2 14.8 4.8 8.8 9.1 18 11.8 27.7Zm-197.7 5.7c8.1 8.1 9.5 0 10.5-7.3.8-5.6 2.7-20.6 1.7-25.4-3.6-17.2-21.3-15.9-21.6 3.6 0 6.8 4.6 24.3 9.4 29.2Zm161.5-44.5c-5 1.3-8.5 9.3-8.8 14.2-.2 4 2.4 28.5 3.8 31.3 2.5 5 7.5 0 9.8-2.7 6.8-8.3 11.6-30.7 4.5-39.5-2.7-3.3-4.8-4.4-9.2-3.3zM1023 1544c-.7-.7-.8-7-5.1-9.4-8.9-5-21.8-.8-32-4-10.4-3.3-9.4-13.1-16.1 1.8-2.9 6.4-9.1 24.4-6.3 30.7 1.1 2.4 17.8 15.6 21.2 17.8s18.2 11.7 21.1 10c3.1-5.6 9.3-9.5 12.6-14.9 1.8-2.8 4.1-11.5 4.6-11.9 1.6-1.7 1.7.5 2.1 1.4 1.6 3.6 2.1 6.8 4.5 10.5 3.3 5.2 9.2 9.3 12.4 14.6 3.1 1.9 15.5-5.9 18.9-8.1 4.5-2.9 22.9-17 23.9-21.1 2.2-9.7-6.6-28.3-10.9-37.2-4.9 1-7.8 5.2-12.7 6.7-9.2 2.8-28.2-1.6-33.7 6.3-.9 1.2-2.6 8.9-4.5 7zm-136 18c-.7-.6-3.5 0-4.5.9-6 6.2 2.4 31.6 14.6 27.6 4-1.3 3.8-9.4 2.8-12.9-1.1-3.9-7.2-4.1-9.8-7.2-2.1-2.5-2.7-8.2-3-8.5Zm274.1 0c-.3.3-.9 6-3 8.5-2.6 3.1-8.7 3.3-9.8 7.2-1 3.4-1.2 11.6 2.8 12.9 13.4 4.4 20.2-24.5 14.1-28.1-.9-.5-3.5-.9-4-.4Zm-216.4 7.2c-1.5.4-5.1 4.6-6 6.1-3.4 5.6-5.6 32.3-4.8 39.3 1.3 10.9 15.2 18 19.5 3.5 1.7-5.6 2.6-21.4 2.5-27.6 0-1.1-5.8-19.7-6.5-20.5-1.2-1.4-3.2-1.3-4.8-.8Zm153.3-.1c.2 6.6-5.4 14.7-6 20.6-.5 4.5 1 25.3 2.4 29.4 4.2 12.1 16.9 7.3 19.1-2.9 1.1-5.2 0-16.8-.6-22.6-1-9.7-1.7-25.5-14.9-24.5m-180 1.9c-20.5 3.8-17 28.7-9 43 4 2.9 10.4-17 10.7-19.8.9-7.5-2.9-15.5-1.8-23.2Zm218 43c2.5 1.8 7.2-9.1 7.7-10.8 3.9-12.8 1.6-30.1-13.7-32.2.5 7.4-2.8 16.2-1.9 23.4.3 2.7 6.4 18.5 7.9 19.6m-148.2 10.2c1.4.8 4.8 8.6 9.5 11 11.1 5.8 20.2-6.4 20.7-16.7.8-13.7-7.2-7.7-16.5-8.6-8.4-.8-15-4.8-21.8-9.2-5.5-3.5-13.6-14.6-14.7-1.4-.5 5.1 1.4 7.5 1.8 11.2s-2 5.9.5 10.7c4.8 9.3 18 1.3 20.7 2.8zm93.1-31.1c-2.1-1.5-19.7 12.7-23.9 14.4-2.3 1-7.9 2.3-10.5 2.5-10.5.9-18.8-5.4-16.4 11.4 1 7.3 7.9 15.8 16 15.1 9.4-.8 11.9-11.6 14.6-12.4 4-1.3 12.3 5.7 18.9-1.1 4.3-4.4 1.3-8.4 1.5-12.5 0-2.3 1.9-4.8 2-8.1 0-1.9-.8-8.5-2.2-9.4Z" class="outline" data-original-prefix="shading" opacity=".2"/></g><g class="trait-group" data-category="mouth"><path id="outline-shading-mouth1" fill="#000" d="M1041 1343c6.1.5 12.7-1 17.5-5 1.5-1.3.9-3.7 2.8-2.9 10.1 7.9 37.9 17.4 43.8 28.2 3.6 6.5 4.6 17.5-1.8 22.6-5.6 4.5-20.8 10.8-28 15-4.9 2.8-9.7 6.6-14.7 9.3-7.4 4.1-25.5 14.5-32.6 16.4-2.9.8-5.2.8-8.1 0-14.5-3.8-42.2-22.5-56.3-30.7-6.2-3.6-21.2-9.1-23.2-15.8-5.5-18.4 15.7-28.3 28.7-35.4 2.3-1.2 15.5-8.6 16.5-8.7 2.9-.3 4.2 2.9 6.7 4.2 4.2 2.3 10 3.2 14.7 2.8-.3-5.1-3.3-11.3-1.8-16.3.5-1.6 12.5-13.9 14.5-14.4 3.9-1 8.2-.3 11.6 1.9 1 .7 10.8 11.1 11.2 11.8 2.1 5-1.2 11.8-1.5 17" class="outline" data-original-prefix="shading" opacity=".2"/></g><g class="trait-group" data-category="mouth"><path id="outline-mouth3" fill="#000" d="M888 1333c-.7 1.9-2.2 2-3.8 2.7-12.3 5.2-24 8.3-33.2 18.8-6.6 7.6-18.9 26-18 36 .3 4 7.1 25.8 9.2 28.8 2.7 4 6.1 4.9 10.8 4.7-1.4-9 4.2-18.1 9.6-24.9 2.2-2.8 21.9-22.6 24.4-20.1-1.7 6.5-8.8 10.4-13 15.5-8.1 10-12.3 23.6-9.5 36.5 1.2 5.4 11.2 26 15 30 .6.7 7.1 6.3 7.5 6.5 2.4 1.2 5.6-3.8 6.5-5.5 2.5-4.3 3.1-9.7 5-14 4.4-10.2 9.3-18.3 18.5-25-5 13.9-9.5 44.6 1.5 56.1 4.6 4.8 11 2.5 15 5.1 2.1 1.3 2.5 5.4 4.2 5.8s7-3.1 9.4-3.5c9-1.4 12.6 16.9 18.7 17.4 2.5.2 10.2-12 18.4-9.4 5.5 1.8 19.2 24.8 24.4 23.6 5.8-5.9 3.6-12.3 5-19 1.5-7.6 8.3-12.6 9.4-22.6.8-7.2-1.7-26.6-4.7-33.1-1.1-2.3-5.5-10.7-6.8-12.2-3.4-4-15-9.2-19.8-6.1l-4.2 11.1c-4.8-4.4-9.5-9.2-14.5-13.5-3.7-3.2-10-6.8-13-9.9-4-4.2-15.6-27.9-15.7-33.2 0-6.8 17.5-22.4 21-29 5.4-4.1 29.2-2.8 35.7.2 8.4 3.8 12.4 12.1 18.5 17.5 5.2 4.5 2.5-1.7 2.5-3.6s.9-3.2.8-4.8c-.2-5.4-6.7-9.2-9.9-13.1-2-2.4-5.6-6.2-7-8.2-.9-1.3-4.9-7.8-5-8.8-.2-2.6 9.1-11.7 11.5-12.4 3.6-1-.5 5.5-.5 6.6-.4 5.2 5.9 4.1 9.3 5.6 1.2.5 3 2.7 3.2 2.7s2.4-2.7 3.8-3.2c7.8-3.2 11 1.2 6.8-11.7 1.6-1.7 12.5 9.1 12.9 11.7.6 4.5-17.6 23.1-21.1 27.5l-.8 12.7c1.7.4 2-.7 3-1.5 8.7-6.7 12.6-16.8 24.9-19.1 5.5-1 25.6-1.3 29.8 1.8 3.4 6.7 20.4 21.8 21 28.4.4 4.3-10.8 27.3-13.9 31.7s-9.8 7.6-13.8 11.2c-5.3 4.6-10.3 9.8-15.5 14.5-2.2.9-1.4-5.6-2.2-7.7-3.4-8.6-19-1.6-22.7 3.8-.7 1-7.1 13.9-7.3 14.7-2.7 12.8-5.5 27.3-.2 39.8 1.5 3.5 4.6 6.8 5.8 10.2 2.5 7.2-.5 15.2 5.8 21.2 9.4-2.8 19.1-24.9 27.9-24 5.2.5 13.2 10 14.9 9.8 5.8-.5 9.3-18.7 18.7-17.4 2.4.3 7.6 3.9 9.3 3.4s2-4.8 4.8-6.1c3.8-1.8 9.4-.4 13.3-3.7 11.5-9.7 8.1-43.1 2.5-56 1.6-1.7 11.3 10.4 12.4 12.1 5.1 7.8 6.1 15.5 9.7 23.3 1 2.1 4.8 9.8 7.8 8.2.4-.2 6.9-5.9 7.5-6.5 6.8-7.5 16-30.4 15.4-40.5-1.3-22.7-10.7-22.7-21.5-37.5-5.3-7.2 2.8-2.4 6 0 11.8 8.6 28 25.5 26.5 41 11.6 1.1 13.6-11.4 16.3-20.2 4.6-15.6 5.3-18.8-3.1-33.4-8.2-14.3-16.4-22.7-31.5-29.5-5.8-2.6-13.2-3.6-17.7-7.8 15.9 1.8 34.5 6.4 49 13.5 8.3 15 22.1 26.8 28.1 42.9l-15.2 44.9c-.9 3.7-13 4.8-13.8 5.8-.6.8-2.2 17.2-2.2 19.4-.2 31.7 2.4 50.4-13.1 79.9-2.6 5-12 16.3-12.6 19.4-.9 4.6 0 10.4-.5 15.5-.9 8.4-5.8 16.4-6.7 23.4-.4 3.5 1.3 7.7.8 9.7s-10.7 8.6-13.2 9.9c-2.2 1.2-5.7 1.5-6.5 2-.6.4-5.2 10.6-7.2 13.2-2.2 2.8-13.6 14.5-16.9 12.4-.6-.4-5.9-11.8-7.1-13.3-2.2-2.9-2.2 2.1-3.2 3.8-4.6 7.3-24.8 27-32.8 29.2-1.7.5-3.3.7-5 .5 1.1-8.2 2.6-16.6-8-18.6-9.7-1.8-16.2 7.5-18.5 15.6-1.2 4.3-1.2 16.7-7.8 14.9-4.3-1.2-20.3-25.6-23.2-30.8-5.5 8.6-11.5 19.1-18.5 26.5-1.8 1.9-6.9 7.7-9.3 3.3-2.8-5.3-2.5-14.6-5.5-20.5-3.8-7.2-14-11.7-21.2-6.8-6.6 4.6-2.9 10-3 16.5-3.4 3.4-23.5-12.8-26.5-15.9-1.5-1.5-11.4-13-11.9-14.1-.7-1.4-.2-6.3-2.6-3.3-2.1 2.6-6 14.4-10.2 13.3-2-.6-12-10.2-13.7-12.4-2.1-2.7-6.6-12.8-7.2-13.2-.8-.5-3.8-.6-5.8-1.7-2.5-1.4-11.8-7.1-13-9-2.3-3.8.4-6.7 0-10.8-1-7.2-5.8-15.5-6.7-24.4-.5-5 .6-10.7-.6-15.4-1-3.9-7.9-9.8-10.7-14.3-10.4-16.9-15.8-37.5-16.8-57.2-.8-15.6 1.6-31.1 0-46.5-18.8 0-17.3-14.5-21.7-27.8-2-5.8-9-19.6-8.1-24.5.6-3.1 5-9.2 7-12.1 2.9-4.3 18.7-27.3 20.9-29.1 1.7-1.4 8.5-4.5 10.7-5.3 9.6-3.2 28.2-7.1 38.2-8.3v-.7Zm16 128c-1.4-1.5-7.8 8.9-8.4 10.1-12.7 23.9-7.6 58.3 2.6 82.2 1.5 1.6 6.5 11.2 8.3 10.7 4.1-1.1 10.8-29 12.8-34.2 4.4-11.8 13.5-22.1 8.6-35.6-5.5-.6-12.8 1.4-16.7-3.8-.9-1.1-7.8-21.4-8-23.1-.2-2.4.8-4 .8-6.2Zm240 103c.6-.4 6.8-10.5 7.6-11.9 6.4-12.5 10.7-43.5 9.3-57.4-.7-6.6-8.4-30-14.4-32.6-2.3-1-.6 4.2-.9 6-.5 2.7-7.2 21.8-8.6 23.2-3.6 4.1-11.1 2.3-15.9 2.9-5 13.6 4.3 24 8.6 35.6 3 8.1 4.3 17.7 7.5 25.5.7 1.6 4.7 10.2 6.8 8.7m-262.3-85.7c-.8-.7-3.9-1.3-5.7-2.8-4.4-3.7-8.4-14.6-14.9-5.8-17.4 23.5 1.8 56.3 17.4 75.3.8.9 1.5 2.3 2.9 2.1 1.2 0 .7-22.5.5-24.5-.5-5.6-3.2-12.1-3.1-18 0-5.2 5.9-23.5 2.8-26.2Zm304-11c-4.6-3.9-11.2 6.2-14.7 9.3-1.3 1.1-3.1 1.1-3.8 1.7-3.3 2.9 2.8 21 2.8 26.2s-2.6 12.6-3.1 18c-.7 7.9.4 16.5 0 24.5 1.7.4 2-.5 3-1.5 14.2-14.6 27.2-41.2 23.9-61.9-.4-2.6-6.3-14.7-8.2-16.2Zm-83.2 26.7c-1.4.3-3.3 6.6-3.8 8.2-3 10.7-2.9 45.1 1.1 55.5 5.3 13.6 21.4-7.2 21.3-16.2-.2-14-7.6-26.7-13.3-38.8-.8-1.8-2-9.4-5.3-8.7m-165.2 65.7c10 8.3 12.4-2.6 13.6-10.3 1.6-10.6 2.8-43.6-2.7-52.1-4.7-7.3-6.5 4.3-8 7.4-5.3 10.7-15 29.9-11.4 42 .7 2.4 6.6 11.4 8.5 13m58-34c-2.6-2.2-10.5-14.2-12-14.5-1.3-.2-9.1 4.1-10.4 5.3-13.2 13-17.5 40.3-6.8 55.8 7.4 10.8 27.1 23.8 39.1 28.9 1.2.5 3 1.2 4.2.9.9-.2 7.4-15 8-17.1 4.7-14.6 7.5-38.8 1-52.9-5.9-13-12.1 3.2-23.2-6.3h.1Zm43.8 76.2c2.9 1.8 6.6-2.7 8.6-3.7 21.1-11.1 43.7-22.7 41.3-50.7-.7-8.7-6.7-24.8-13-31-1.2-1.1-8.4-5.2-9.7-5.3-3.5-.3-11.2 18.1-20.8 17.9-7.8-.2-11.2-7.8-15.8 4.2-5.2 13.4-2.8 36.6 1.3 50.3.7 2.3 7.3 17.8 8.1 18.4ZM885 1559c-5.2 1.1-6.5 7.6-5.8 12.2s5.4 23.4 7 27c1 2.2 6.2 8.5 8.7 6.7 3.4-2.4 3.2-20.7 4.1-25.4-.6-3-7.8-5.5-10-8.3s-4.3-8.6-4-12.2m269.1 45.9c2.7 1.5 7.8-5.3 8.8-7.5 1.5-3.4 6.2-22 6.9-26.2.8-5-.5-8.8-4.3-12.2l-5.1 10.9c-1.4 3.6-9.4 6.1-10.2 8.8-1.2 3.9.5 24.2 3.9 26.2M917 1563c-1.9-2.2-11.8 12.5-12.4 14.1-1.8 4.6-2.9 24.1-2.4 29.3.8 8.6 5.2 18.6 11.4 24.6 1.1-9 4.9-18.4 5.5-27.5.9-13-3.8-27.1-2-40.5Zm218 68c5.2-3.8 9.5-12.5 10.8-18.7 1.4-6.9.7-27.7-1.2-34.3-.6-1.9-10.4-17.4-12.5-15 1.7 13.9-3.1 27.7-2 41.5.7 8.7 4.6 17.6 5.1 26.5zm-186-62c-3.4-3.2-13.6 14.8-14.8 17.7-4 9.9-8.4 31.9-2.7 41.2 2 3.2 16 15.2 19.5 16.5 6 2.4 6.5-2.8 7-8 2.1-23.1-3.5-45.4-9-67.5Zm144.1 75.9c1.1.7 3.6 0 4.8-.4 3.2-1.2 16.9-13.1 18.9-16.1 8.3-13.1-.6-48.3-12.8-57.9-1.8-1.4-3.1-2.8-4.2 0-3.7 9.9-8.2 30.6-8.9 41.1-.3 4.8-.8 31.5 2.1 33.4ZM1018 1613c-3.5 0-6.1 2.5-9.6 2.9-13.1 1.6-28.5-14.2-41.4-15.9v22.5c0 1.1 2.9 9 4.1 9.9 6.5 5.2 18.9-.4 24.4 5.6 2.6 2.9 4.3 10.3 10.6 5.5 1.1-.8 11.9-13.1 11.9-14.1v-16.5Zm64-13c-13.3 1.4-27.9 17.6-41.4 15.9-3.5-.4-6.1-3-9.6-2.9v17.5c4.1 2.4 11.4 14.9 15.4 14.5 5.4-.5 6.1-8.2 10.5-9.6 5.4-1.7 16.2 1.1 21-3 1-.8 4-9.7 4-11v-21.5Z" class="outline" data-original-prefix="outline"/></g><g class="trait-group" data-category="mouth"><path id="outline-mouth2" fill="#000" d="M1011 1292c-6.2 1-21.6 9.8-26 14.5-2.9 3.1-3.9 7.2-7.2 9.8-18.9.8-35.9 5.2-50.3 17.8-.9-.2-.3-1.9-.5-2 1.1-8.8 19.3-26.2 27.4-25 3.5.5 2.6 4.8 10 4 10.8-1.2 17.8-10.7 19.4-20.7.4-2.5-1.9-5.2 1.2-6.7 4.7-2.2 21.7 4.7 26 8.5z" class="outline" data-original-prefix="outline"/></g><g class="trait-group" data-category="mouth"><path id="outline-mouth1" fill="#000" d="m1122 1332-.5 3c-10.9-11.7-25.5-16-41-18-2.9-.4-6.9.7-9.5-.5-1.5-.7-4.5-7.4-6.5-9.5-3.4-3.8-14.1-10.6-19-12s-4.7-.4-8.6-2.9c4.2-4.1 21-10.8 26-8.5 3.1 1.5.8 4.2 1.2 6.7 1.9 11.3 12.7 24.5 25 19.5 4-1.6 2.6-4.3 9.2-1.6 10.8 4.4 18.3 14 23.6 23.9h.1Z" class="outline" data-original-prefix="outline"/></g>
<g class="trait-group" data-category="eyes"><path id="fill-eyes-main" fill="#fff" d="M1439.9 1144.1c-3.6 27.9-12.3 55.1-13.9 83.3-.4 7.7.9 16.7 0 24.1-1.3 11-25.5 16.1-34.3 19.7-20.4 8.4-25.3 24-38.8 39.2-55.4 62.9-122.1 75.3-200.5 47.6-42.5-15.1-69.2-37-93.5-74.5-2.7-4.2-10-19.4-13.2-20.8-1.5-.7-2.6-.7-4.2-.8-8.5-.8-27.8-.9-36.1 0-7.2.8-12.1 14.7-16.1 20.9-24.3 37.6-50.5 59.6-93.2 74.8-78.4 28-145 15.9-200.8-46.7-10.3-11.5-17.5-27.2-30.6-35.4-9.5-6-36-11.4-41.4-19.6-3.1-4.8-1.1-21.7-1.5-28.5-1.6-28-10-55.2-14.1-82.8 12.5-7.9 28.7-4.6 42.2-10 6.4-39.3 19.8-78.9 42.1-111.9 3.6-5.3 14.5-21.6 20.4-22.6 3.2-.6 7.4 1 10-1 1.3-.9 3.8-6.5 5.5-8.5 62-76.9 146.3-134.5 246.6-145.4 143.8-15.7 254.6 34.3 344.3 144.4 1.6 2 5.5 8.8 6.4 9.5 2.9 2.2 8.7 0 13.2 1.8 4.2 1.8 12.2 13.5 15.2 17.8 24.3 34.2 38 74.7 45.1 115.9 13 5.5 28.4 2.6 41 9.5Z" class="fill" data-original-prefix="fill"/></g><g class="trait-group" data-category="eyes"><path id="fill-eyes-frame" fill="#fff" d="M1005 1154.9c17.3-2.1 33.8-.3 51 2.1 1.7-12.1-2.8-7.9-13.9-9.1 1.3-19.1 14.4-40 25.5-55.3 12-16.7 35.3-37.8 54-46.5 12.6-5.8 30.6-6.6 43.8-11.2 3.6-1.2 7.8-4.1 11.6-5.4 23.6-8.2 61.9-10.1 86-4.1 58.3 14.7 98.9 62.2 120.1 116.4 5.6.5 11.1-.4 16.7.8 3.4.8 18.4 8.5 19.7 11.3 1 2.1-2.9 19.4-3.4 23.6-3 24.6-3.8 49-3.1 73.8-7.1 0-16.5 8.3-21.8 9.4-4.1.8-10.8-1.4-13.3.1-1 .6-9 18.3-10.8 21.4-21.6 36.3-58.2 67.7-99.5 79-22.2 6.1-46.6 5.4-69.1 3.8-7.4-.5-65.6-21.8-73.2-26.1-18.3-10.4-47.1-38.2-57.1-56.8-1.2-2.1-6.6-13.6-6.7-14.9-.3-3.6 6.7-1.7 6.4-4.7-.2-1.6-5.5-11.2-6.6-11.5-25.2 5.7-51.5 4.9-76.7 0-1.6.4-4.3 8.6-5 11.5-.3 1.2 7.1 1.2 6.7 4.7-.1 1.4-5.6 12.2-6.7 14.3-9.7 18-39.5 47-57.1 57.4-29.7 17.4-98 32.4-131.4 25.5-52.6-10.9-98.3-53.4-119.4-101.8-5.3-1.4-10-.9-15-1.9-5.3-1.1-14.7-9.3-21.8-9.4.3-22 .3-43.9-2.1-65.8-.5-4.9-5.2-28.9-4.7-30.9.7-2.8 12.1-8.9 15.1-10 7.6-2.9 13.8-3.2 21.8-2.1 7-13.9 12-29.8 20.5-43 31.3-49 86-84 145.8-78.7 24.3 2.2 70 14.7 92.7 23.6 17.8 7 43.7 33.6 54.8 49.2 13.3 18.5 24.1 38.1 26.2 61.3" class="fill" data-original-prefix="fill"/></g><g class="trait-group" data-category="eyes"><path id="fill-eyes-lens2" fill="#fff" d="M1213.8 1080.3c114.8-12.2 132 184 38.6 222.6-13.9 5.7-36.9 5.7-51.2 1.5-103.1-30.7-92.3-212.9 12.6-224Z" class="fill" data-original-prefix="fill"/></g><g class="trait-group" data-category="eyes"><path id="fill-eyes-lens1" fill="#fff" d="M808.8 1080.3c122.5-14.7 144.8 173.1 56.5 216.5-113.8 56-166.4-113-102.3-188.3 10.1-11.9 29.9-26.4 45.8-28.2" class="fill" data-original-prefix="fill"/></g><g class="trait-group" data-category="eyes"><path id="fill-eyes-strap3" fill="#fff" d="M1057.8 1158.2c2.9 2.5.3 11.8.2 15.2-.4 15.7-.2 32.4 2.2 47.9.6 4 6.2 26.3 5.4 27.7-2.1 3.5-28.1 5.8-33 6-8.4.3-44.2-.7-49.6-5.5-1.1-1-.6-1.4-.6-2.5.3-5.9 3.3-13 4.3-18.8 3.1-18.2 3.8-36.3 3.3-54.7 0-3.9-2.6-11.3-.1-14.8 1.3-1.8 24.7-4.5 28.5-4.7 5.6-.2 36.2 1.7 39.3 4.3Z" class="fill" data-original-prefix="fill"/></g><g class="trait-group" data-category="eyes"><path id="fill-eyes-strap2" fill="#fff" d="M1412.9 1251.9c-7.4 1.2-14 5-20.9 7.6 14.5-36 14-79.1 5-116.5 5.2-.7 22.6 7.9 23 12.5-6.5 31.7-7.7 64.1-7.1 96.4" class="fill" data-original-prefix="fill"/></g><g class="trait-group" data-category="eyes"><path id="fill-eyes-strap1" fill="#fff" d="M651 1143c-9.4 38.1-8.8 79.9 4.5 117-6.2-4.2-13.6-6-20.6-8.6.9-32.2-.6-64.3-6.9-95.9.5-4.6 17.8-13.2 23-12.5" class="fill" data-original-prefix="fill"/></g><g class="trait-group" data-category="eyes"><g id="fill-eyes-rivet"><path id="fill-eyes-rivet16" fill="#fff" d="M1143.7 1309.2c5.9-1.8 13.9 1.8 14.4 8.3 1.2 16.7-23.9 10.6-19.9-2.8.4-1.2 4.3-5.1 5.5-5.5" class="fill" data-original-prefix="fill"/><path id="fill-eyes-rivet15" fill="#fff" d="M897.7 1309.2c7.5-1.6 13.8 3.3 12.1 11.1-.8 3.7-7.7 7.8-11.3 7.8-9.6 0-12.8-16.3-.8-18.8Z" class="fill" data-original-prefix="fill"/><path id="fill-eyes-rivet14" fill="#fff" d="M897.8 1060.2c4.2-.5 10.5 2.7 11.8 6.8 3 9.4-9.2 14.7-16.5 8.5-5.4-4.6-2.2-14.4 4.7-15.2Z" class="fill" data-original-prefix="fill"/><path id="fill-eyes-rivet13" fill="#fff" d="M1147.8 1060.2c11.2-1.3 14.3 15.9 1.7 17.8-14.2 2.1-15.3-16.2-1.7-17.8" class="fill" data-original-prefix="fill"/><path id="fill-eyes-rivet12" fill="#fff" d="M703.7 1095.2c12.2-2.7 9.9 15.8-2.7 19.4-10.2 2.9-7.2-17.1 2.7-19.4" class="fill" data-original-prefix="fill"/><path id="fill-eyes-rivet11" fill="#fff" d="M1339.7 1095.2c8.5-2.6 14.8 8.5 13.3 16.3-1.7 8.7-17.3-1.2-16.9-9.9 0-2.1 1.5-5.8 3.6-6.4" class="fill" data-original-prefix="fill"/><path id="fill-eyes-rivet10" fill="#fff" d="M1086.7 1182.2c10.6-3.1 13.4 21.9 7.6 23.7-10.1 3.2-17.9-20.7-7.6-23.7" class="fill" data-original-prefix="fill"/><path id="fill-eyes-rivet9" fill="#fff" d="M1373.7 1174.2c13.9-2.5 10.9 30.5-1.5 25.1-9.7-4.2-6.7-23.6 1.5-25.1" class="fill" data-original-prefix="fill"/><path id="fill-eyes-rivet8" fill="#fff" d="M1252.8 1335.2c12.9-1.9 15.1 10 4.8 16.8-14.4 9.4-21.8-14.3-4.8-16.8" class="fill" data-original-prefix="fill"/><path id="fill-eyes-rivet7" fill="#fff" d="M1248.7 1033.2c15-3.4 22.4 13.8 11.3 17.3-12.8 4.1-23.8-14.5-11.3-17.3" class="fill" data-original-prefix="fill"/><path id="fill-eyes-rivet6" fill="#fff" d="M1343.7 1271.2c15-4.5 11.4 13.4 1.3 18.3-14.8 7.3-8.6-16.2-1.3-18.3" class="fill" data-original-prefix="fill"/><path id="fill-eyes-rivet5" fill="#fff" d="M957.7 1182.2c9.5-2.8 10.8 14.5 3.8 20.8-14.2 12.8-13.2-18-3.8-20.8" class="fill" data-original-prefix="fill"/><path id="fill-eyes-rivet4" fill="#fff" d="M671.7 1174.2c9.8-1.8 14.6 19.5 4.6 24.7-11.8 6.2-16.2-22.6-4.6-24.7" class="fill" data-original-prefix="fill"/><path id="fill-eyes-rivet3" fill="#fff" d="M790.8 1335.2c15.5-2.5 19.6 17.8 6.6 18.7-10.4.7-20.6-16.5-6.6-18.7" class="fill" data-original-prefix="fill"/><path id="fill-eyes-rivet2" fill="#fff" d="M791.7 1033.2c16.6-3.4 17.2 14.3 2.3 17.3-14.3 2.9-14.8-14.7-2.3-17.3" class="fill" data-original-prefix="fill"/><path id="fill-eyes-rivet1" fill="#fff" d="M697.7 1271.2c5-1.1 7.8-.3 10.7 3.8s7 15.5-1 15.9c-8.8.4-19-17.7-9.7-19.8Z" class="fill" data-original-prefix="fill"/></g></g><g class="trait-group" data-category="eyes"><g id="shading-eyes"><path id="outline-shading-eyes3" fill="#000" d="M808 1053c18.3-1.1 35.8 1.8 52.7 8.8 3.3 1.4 17.8 9.9 19 10 4.5.4 1.7-8.7 7.9-9.8 4-.8 2.7 4.3 4.6 7.4 6.1 10.4 12.8-5.4 17.9-4 8.6 2.4 6.1 14.8 2.4 20.6l-7.4 6.5c28.5 27.2 36.6 68.5 37 106.5 2.1-.9.9-7.1 3.5-8 4.4-1.4 4.3 9.4 10 10 6.5.7 14.6-18.5 16.3-.4 1.5 15.9-12.5 29.1-26.5 18.1l-4.3-8.7c-4.9 51.2-39.2 110.9-92.8 121.7-50 10.1-98.3-9.1-130.2-47.7-.8 8.9-1 15.6-10 19.5 10.4 16.7 25.8 28 43 37 3.5 1.8 22.8 11.7 25 9.5.3-4.1-1.8-14.1 4.5-14.1 5.1 0 5.7 10.3 12.7 12.4 8.8 2.8 23.2-10.6 18.8 7.7 26.8 2 51.7-7.1 76-17-6.8-4.3-12.8-24.8.3-21.8 4.6 1.1 5.9 7 14 4.6 6.5-1.9 1.9-12.9 9.2-11.8 4.2.7 6.3 7.5 7 11 19-14.9 36.6-34.2 48.9-55.1 7.5-12.7 9-19 11.4-33.6 3.8-23.7 5.1-47.8 6.2-71.8 2.5-6.4 6.3-5.2 8.2.8s2.7 18.8 2.9 25.1c.6 18.9-2.3 38.9-5 57.5 10.6 2.5 22.5 7.2 33.5 7.1s22.2-4.7 32.5-7.1c-3.3-19.5-6-40.6-5.1-60.5.3-5.4 1.1-16.6 2.5-21.5 1.1-4.1 4.6-8.5 7.4-3.3 2.2 4.1 1.6 23.7 2.1 29.9 1.4 16.8 3.1 34.2 6.3 50.7 3.7 19.1 14.4 35.3 26.7 50.3 5.3 6.4 23.6 26.7 30 30 1 .5 1.9.6 3 .5-.4-4.3 5.5-12.7 9.9-9.9 1.2.8.7 10.2 5 11.4 9.2 2.6 9.2-2.9 13.8-4.3 13.3-4 8.2 16.9 1.3 21.8 24 10.2 49.4 19 76 17-4-16.7 6.7-7.3 13.5-6.9 12.4.7 11.8-11.5 16.2-12.9 9.3-2.8 5.1 14.9 6.8 14.8 17.2-6 36.8-15.3 50.5-27.5 2.4-2.2 16.5-17.3 16.9-19.1.5-2.1-3.9-3-5.5-4.4-4.7-4.2-3.3-10.4-4.5-16-30.8 36.8-75 55.6-123.4 48.9-58-8.1-95.3-69.3-99.6-123.9l-2.6 6.9c-12.8 15.4-29.9 2.7-28.3-15.3 1.7-18.2 9.8 1.1 16.3.4 5.4-.6 5.1-11.4 10-10 2.6.7 1.3 7.9 3.5 9-.2-13.7.7-27.6 3.5-41 4.7-22.4 11.9-41.6 26.6-59.4 1.4-1.7 6.5-5.9 7-7 .8-2.1-5.3-2.2-6-4.2-3.9-5.9-8.4-15.1-2-20.8 7.5-6.6 9.3 6.4 16.3 5.4 6.7-1 4.3-10.9 8.2-10.9 6.2.1 5.9 9.6 6.6 10 1.7 1.1 11.3-5.5 13.8-6.7 19.3-9.2 38.6-13.8 60.2-12.3-1.2-2.1-3.8-8.8-.4-9.9 3.7-1.2 8.4 6.9 17.4 4.4 7.6-2 6.5-12 8.6-12.6 9.1-2.3 9.4 10.2 8.1 16.3-.8 4-5 5.8-4.8 9.7 16.4 4.7 33.2 15.3 46 26.5 2.8 2.5 14.4 15.4 15.9 16 1.2.4 2.8-.7 4.3-.3 2.8.8 2.5 5 9.2 3.8 5.4-1 7.4-9.1 14.1-8.9 5.2.1 4.9 16.5 3.5 20.5-2.4 6.8-8.4 7.4-14.1 10 6.7 14.8 11.6 30.7 13 47 .2 2.3-.5 13 0 13.5.2.2 3.8-.3 5.3.2s2 2.3 4.2 2.8c6.5 1.3 11.1-3.3 11.4-9.6 0-1.8-2.5-5.9.6-5.4 5.4.9 4.1 12.2 6.6 13.9.4.3 7.1-1.3 8.9 0 .6-11.5-1.4-22.9-4.5-34-1.9-6.9-7.8-17.8-6.5-24.5.7-3.8 6.2-4.4 8.4-1.4 10.3 21.6 12.5 44.1 16.4 67.4 5.6 2.9 8.4-5.4 14.1-5.4-3.4 20.2-4.8 40.8-5.2 61.3l-25.5 15.5c-21.1 5.8-28.9 25.7-42.3 40.7-57.2 64.2-122.6 75.3-203 46.9-45.8-16.2-70.3-41.4-95.9-81.1-1.5-2.4-5.4-11.2-6.7-12.3-3.2-2.9-42.6-2.9-46.5-.5-1.2.7-5.8 10.6-7.2 12.8-29.8 46.4-57.8 70.8-111.8 86.2-76.3 21.7-135 6.9-187.5-52.5-10.5-11.8-18-28.2-32-36-3.1-1.8-6.9-2.4-9.9-4.1-8.4-4.9-16.3-10.7-25.2-14.8-1.4-20.7-2-41.5-5.5-62 5.8-.1 9.6 10.1 14.5 4 2.8-14.7 3.6-29.8 7.8-44.2 1.3-4.5 6-18.5 8.3-21.7.8-1.2 1.4-1.9 3-2.1 11.7-1.1 1.5 18.6.2 23.2-3.7 12.8-6.7 25.3-5.7 38.8 2.2-1.8 7.9.7 8.9 0 2.1-1.5.8-12.8 6.6-13.9 3-.6.4 2.8.5 4.5.2 2.8 2.3 8.8 5 10 6 2.7 9.2-3.1 14.9-2.6 1.5-10 1.5-20 3.6-29.9 2.2-10.5 6.2-20.7 10.6-30.4 0-.9-12.4-2.2-14.6-10.5-1-3.7-.8-17.5 2.5-19.6 5.2-3.3 11.8 8.8 16.6 9.3 4.1.5 6-4.1 8.1-4.6 1.5-.4 3.2.7 4.3.3 1.8-.6 5.9-7.1 7.9-9 15.2-14.4 33.7-27.6 54-33.5.1-3.2-3.1-4.8-4.1-7.4-1.5-3.9-2.4-16.9 2.8-18.4 8.5-2.6 4.3 10.6 14 12.6 9 1.8 23.1-14.2 16.3 5.2Zm438.2 27.1-121 126.6c.9 24.3 12.9 46.2 28.3 64.3l145.3-146.7c2.9-10.7-23.1-29.7-31.2-34.4-2.8-1.6-20-10.6-21.5-9.7Zm-500.6 171.3c4.3 9.2 10.6 22.6 17.5 30 .7.7.9 2 2.3 1.6l140.7-143.4c1-.8.8-1.4.5-2.5-1.7-6.4-11.2-21.1-15.6-26.5-5.1-6.1-18.8-18.2-26-21-1.1-.4-1.8-.9-2.9 0-41.2 43.5-82.6 86.8-125.1 129-2.2 3.8 1.1 14.3 2.3 18.8 1.7 6.2 4 9.3 6.3 14.2Zm563.1-103.3L1171 1284.4c-.6.6-1 1.2-1 2 0 3 16.3 13.6 19.6 13.4 1.8 0 11.3-10.2 13.5-12.4 38.4-39.5 73.4-82.6 112.5-121.6 1.2-3.5-2.4-19-6.8-17.9Zm-494.9 153.7c30.8-39.9 67.3-75 103.7-109.8 1.5-9.7.2-19.5-1.5-29l-133 132.5c5.3 1.6 26.9 8.6 30.8 6.3m549.1-26.9c8.2-18.5 14.7-37.6 19.1-57.4-12 7.4-17.7-1.5-24-10.5-2.6 20.2-6.8 41-16.5 59-1.2 2.3-10.2 15.3-9.5 16 5.6-.2 2.8 4.4 8.2 3.8 10.8-1.3 9.2-7.1 13.5-9.6 2.6-1.6 6.3-1 9.2-1.3M690 1208c-2.4-.6-1.6.4-2.2 1.3-5.5 7.9-11 15.7-21.3 7.7-.8-.2-.6.9-.5 1.5 1.2 8.4 6.1 23.6 9 32 1 3 9 23.6 10.2 24.3 1 .6 4.7 0 6.9.6 3.6 1.1 4.7 5.4 7.6 7.4 1.9 1.3 8.7 3.6 10.7 3.2.9-.2 2.2-5.2 5.7-4.1.6-.7-8-13.1-9.2-15.3-10-18.4-14.3-38-16.8-58.7Z" class="outline" data-original-prefix="shading" opacity=".2"/><path id="outline-shading-eyes2" fill="#000" d="M942 857c-15.8 14.7-36.6 21.7-53.5 35-24.9 19.7-63.7 69.6-74.7 99.3-3 8.1.3 14.4 1.2 22.7-11.2.4-23.2 1.8-34 4.5-4.8 1.2-19 7.4-21.5 7.4-3 0-26.1-7.4-29.8-9.1-9-4.1-3.1-10 .8-15.7 27.1-39.6 72.1-78.2 113.1-102.9 30.2-18.2 63.6-34.2 98.3-41.2Z" class="outline" data-original-prefix="shading" opacity=".2"/><path id="outline-shading-eyes1" fill="#000" d="M1321.7 1014.8c-.8.8-5.7 2.7-7.2 3.3-3.7 1.4-23.4 7.8-26 7.8s-17.3-6.3-22.3-7.5c-10.9-2.6-22.9-4.1-34.2-4.3 8.5-17.3-2.8-34.2-11.6-48.9-16.6-27.7-44.7-62.6-71.5-80.5-14.2-9.5-30.9-15.1-42.9-27.6 31.9 6.4 62.5 20.8 90.7 36.8 40.6 23.1 81 56.5 109.7 93.3 3.2 4 16.5 20.7 16.6 24.3 0 .9-.6 2.7-1.2 3.3Z" class="outline" data-original-prefix="shading" opacity=".2"/></g></g><g class="trait-group" data-category="eyes"><g id="outlines"><path id="outline-eyes11" fill="#000" d="M1330.1 993.9c1.4 1 4.2-1.5 5.6-1.7 8.1-.9 21.2 18.7 25.6 25 22.8 33.2 36.7 72.8 42.9 112.6 1 1.3 25.1 3.5 29.1 4.4 11 2.5 13.7 4.6 12.6 16.1-2.4 25.5-12.5 52.1-13.9 79.1-.4 7.2 1.7 25.4-1.5 30.5-5.8 9.2-28.7 14.1-38.4 18.6-14.9 6.9-26.7 29-38.5 41.5-21.4 22.7-53.2 45.5-83.7 53.3-59.5 15.2-143.1-6.7-187.8-48.8-16.6-15.6-28.4-36.6-40-56-1.4-.9-30-1-33.6-.5-1.3.2-1.8 0-3 1-1.7 1.5-7.1 12.8-9.1 15.9-27.8 44-60.8 69.2-111.4 83.6-75.5 21.4-135.9 9-190-48-12-12.6-24.1-35.1-39-42-8.8-4.1-36.5-10.7-39.5-20.5.8-24.6-2.5-47.2-6.8-71.2-1.9-10.7-9.1-35.1-7.6-44.2.2-1.1.4-2 1-3 4.3-6.7 33.7-7.3 41.8-9.7 5.2-35.2 17.2-71.3 35.7-101.8 5-8.3 14.3-22.5 20.9-29.1 1.3-1.3 7.8-6.6 9.3-6.8 2.4-.4 5.8 2.8 7.2 1.8.4-.3 3.5-6.5 5.1-8.4 78.7-96.5 169.8-147.5 296.5-148.6 130.2-1.2 229.8 51 308.9 153.1.9 1.1 1.4 3.8 1.6 3.9Zm-23.2 12.9c.9-1.6-3.8-12.9-5-15.2-18.3-36.2-111.1-99.9-149.4-114.6-95.6-36.8-210.4-32.7-298.4 21.6-30.7 18.9-92.7 62-108.3 93.7-1 2-4.8 10.7-4.8 12.2.1 2.4 19.5 14 21.6 14.2s17.2-5.3 21.3-6.2c86.6-19.4 202.6 33.5 229.3 121.7.8 2.7 1.4 9.4 2.6 11.2 1 1.4 13.3.2 16 .5 13.2-64.6 72.4-111.2 133.7-127.8 31.6-8.6 66.2-12.8 98.4-5.6 4.4 1 19.3 6.5 21.5 6.4 2.5-.1 16.9-11.3 21.3-12.1ZM913 1329c2-.2 3.9-.9 5.5-2 3.4-2.3 12.9-12.4 16-16 69.3-79.6 53.3-208.6-36.2-265.8-63.8-40.8-145.4-24.7-193.8 31.8-1.2 1.4-6.8 7.8-5.5 9 13.4-1.3 20.9 3.1 18.9 17.4-1.6 11.7-19.8 26.3-28.4 13.5-3.8-5.6-2.2-10.8-2-16.9-2.6 4-5.4 8.1-7.7 12.3-28.1 51.7-30.3 99.4-4.7 153 35.5 74.2 112.9 118.7 194.8 91.1 13-4.4 27.3-13.5 38-22-11.2 3.9-20.4 1.1-24.5-10.5-2.8-7.9-.4-9.5 1.5-17-.7-.7-9.4 5.7-11 6.5-98 54-202-48.1-178.7-149.7 18.1-79 102.7-132.2 178.7-90.3 1.5.8 10.3 7.2 11 6.5 0-3.8-2.9-6.7-3-10.5-.4-13.2 15.8-19.1 26.4-12.3 17.6 11.2 4.8 31.3-12.4 28.4-3.3-.6-6-2.6-8.9-4.1 20.6 17.2 36.8 39.6 44.5 65.5 7 23.6 7.9 57 3 81-6.2 30.9-23.4 57.5-47.5 77.5 3.8-2.1 7.8-4.6 12.4-4.5 12.8.2 22.6 14.8 15.5 26.3-.6.9-2.4.2-2 1.7Zm436-243c1.3-1.3-4.3-7.6-5.5-9-50.7-59.1-135.1-72.8-199.8-27.8-92.1 64-98.3 206.9-12.4 278.8.9.7.8 3.6 2.8 1.5-10-16 5.2-33.9 22.5-26.5 1.8.8 2.8 2.5 4.4 2.6-20.4-17.1-36.5-39.1-44.2-64.8-7.2-23.8-8.2-57.5-3.2-81.8 6.2-30.9 23.4-57.5 47.5-77.5-1.3-.4-2.3 1.6-3.7 2.3-19.4 9-37.6-14.9-17-27 11.4-6.7 27.5.8 25.5 14.4-.4 3-3 5.5-2.8 8.8.7.7 9.4-5.7 11-6.5 76-41.9 160.6 11.3 178.7 90.3 22.4 97.9-71.6 195.8-169.4 154.4l-20.3-11.2c3.5 8.9 4.3 16.2-2.5 24-5.9 6.8-13.8 5.7-21.5 3l21.3 14.2c120.6 61 245.5-57.5 228.5-181.5-3.3-24.1-15.9-45.5-27.9-66.2-1.8-1.2-.9.9-.8 1.8 5 30-28 21.1-30.2.3-1.5-14 6.1-17.7 19-16.5Zm-605-59c-7 .9-24.7-3.7-29.9.6-3 2.4-11.7 18.3-14.2 22.8-4.2 7.4-8.3 14.9-11.8 22.7 1.9.4 2.4-1.1 3.5-2 8.2-6.8 15.5-16 24-23s18.7-11.9 26.8-18.2c1.1-.9 2.1-1 1.7-2.8Zm617 49c-.7-6.3-4.8-13-7.8-18.7-2.6-5-15.2-27.3-18.2-29.8-5.4-4.4-23.8.5-30.9-.6-.4 1.8.6 2 1.7 2.8 3.8 3 9.5 5.4 13.6 8.4 15.4 10.9 28.9 24 41.7 37.8Zm-358 71c-1.2-19-13.2-38-24.2-53.3-9.6-13.4-22-26.9-35.5-36.5-3.6-2.5-16.9-10.9-13.3-6.7 28 24.7 49.6 59.6 57 96.5zm42 0h16c7.1-35.9 28.2-70 54.7-94.7.6-.6 5.6-4.6.8-2.3-19 10.1-34.8 26.3-47.3 43.7-11 15.3-23 34.3-24.2 53.3m-147.2-86.8c-6.9.8-10 10.6-4.7 15.2 7.2 6.2 19.5 1 16.5-8.5-1.3-4.1-7.6-7.2-11.8-6.8Zm250 0c-13.7 1.6-12.5 19.8 1.7 17.8 12.6-1.9 9.5-19-1.7-17.8M782 1077c-6.6 0-13.6 3.9-19.3 7.2-73.5 41.8-78.5 165.6-7.2 212.8 5.1 3.4 12.8 8.3 18.5 8.5-46.4-35.7-62.3-96.1-48.1-152.1 8.2-32.6 30-56.6 56.1-76.4m492 229c29.3-10.6 51.7-35.4 61.7-64.7 15.8-46.1 5.7-112.2-32.7-144.8-9.7-8.2-24.5-17.9-37-19.5 26.1 19.8 47.9 43.8 56.1 76.4 14.3 56.7-2.1 116-48.1 152.6m-465.2-225.7c-15.8 1.9-35.6 16.3-45.8 28.2-64.1 75.3-11.5 244.3 102.3 188.3 88.3-43.4 66-231.2-56.5-216.5m405 0c-104.9 11.1-115.7 193.3-12.6 224 14.3 4.3 37.3 4.3 51.2-1.5 93.4-38.6 76.2-234.8-38.6-222.6Zm-510.1 14.9c-9.9 2.2-12.9 22.2-2.7 19.4 12.6-3.5 14.9-22.1 2.7-19.4m636 0c-2.1.6-3.6 4.3-3.6 6.4-.4 8.7 15.2 18.5 16.9 9.9 1.5-7.8-4.8-18.9-13.3-16.3M651 1143c-5.2-.7-22.5 7.9-23 12.5 6.3 31.5 7.9 63.7 6.9 95.9 7 2.6 14.3 4.3 20.6 8.6-13.3-37-13.9-78.9-4.5-117m761.9 108.9c-.6-32.3.6-64.7 7.1-96.4-.4-4.6-17.8-13.2-23-12.5 9 37.4 9.5 80.5-5 116.5 6.9-2.6 13.4-6.4 20.9-7.6m-355.1-93.7c-3.1-2.6-33.7-4.5-39.3-4.3-3.8.2-27.2 2.9-28.5 4.7-2.5 3.5 0 10.9.1 14.8.5 18.5-.2 36.5-3.3 54.7-1 5.8-4 12.9-4.3 18.8 0 1.1-.6 1.5.6 2.5 5.4 4.9 41.2 5.9 49.6 5.5 5-.2 30.9-2.6 33-6 .8-1.3-4.8-23.6-5.4-27.7-2.3-15.5-2.6-32.2-2.2-47.9 0-3.4 2.8-12.7-.2-15.2ZM923 1335.5l9-5.5c18.9-12.6 35-28.1 46.2-48.3 1.2-2.3 7.7-14.1 6.4-15.7l-11.6-2.9c-3 11.1-8.6 21.2-14.6 30.9-7 11.4-18 25.6-27.4 35.1l-8 6.5Zm202 0-8-6.5c-9.4-9.5-20.4-23.7-27.4-35.1-6-9.7-11.6-19.8-14.6-30.9l-11.6 2.9c-1.2 1.6 5.2 13.4 6.4 15.7 11.1 20.1 27.3 35.9 46.2 48.3l9 5.5Zm-227.3-26.3c-12 2.5-8.9 18.8.8 18.8 3.6 0 10.4-4 11.3-7.8 1.8-7.7-4.5-12.6-12.1-11.1Zm246 0c-1.2.3-5.1 4.3-5.5 5.5-4.1 13.4 21.1 19.5 19.9 2.8-.5-6.5-8.5-10.1-14.4-8.3" class="outline" data-original-prefix="outline"/><path id="outline-eyes10" fill="#000" d="M1084.7 1174.2c20-4.6 29.1 31.7 12.8 39.8-21.9 11-33.3-35.2-12.8-39.8m2 8c-10.3 3-2.5 26.9 7.6 23.7 5.8-1.8 2.9-26.8-7.6-23.7" class="outline" data-original-prefix="outline"/><path id="outline-eyes9" fill="#000" d="M1368.7 1168.2c22.1-5 23.6 37.4 9.6 40.6-24.7 5.6-27.6-36.5-9.6-40.6m5 6c-8.2 1.5-11.2 20.8-1.5 25.1 12.4 5.4 15.4-27.6 1.5-25.1" class="outline" data-original-prefix="outline"/><path id="outline-eyes8" fill="#000" d="M1251.7 1329.2c7-1.4 15 .3 18.7 6.8 8.9 15.9-22 33.9-33.4 17.4-6.3-9.2 5.7-22.4 14.7-24.3Zm1.1 6c-17 2.5-9.7 26.2 4.8 16.8 10.3-6.8 8.2-18.7-4.8-16.8" class="outline" data-original-prefix="outline"/><path id="outline-eyes7" fill="#000" d="M1251.8 1027.2c13.2-.7 26.5 12.3 17.7 24.8-7 10-21.5 6.7-29-1.1-9.2-9.5-1.6-23.1 11.3-23.8Zm-3.1 6c-12.5 2.8-1.5 21.4 11.3 17.3 11.1-3.5 3.6-20.7-11.3-17.3" class="outline" data-original-prefix="outline"/><path id="outline-eyes6" fill="#000" d="M1346.8 1265.2c2.5-.4 3.7-.2 6.1.5 17.1 4.9 3.1 33.3-13.3 33.1-19.4-.2-8.7-31.2 7.3-33.6Zm-3.1 6c-7.2 2.1-13.4 25.6 1.3 18.3 10.1-5 13.7-22.8-1.3-18.3" class="outline" data-original-prefix="outline"/><path id="outline-eyes5" fill="#000" d="M955.7 1174.2c29.3-6.1 19.7 51-4.6 40.2-15.5-6.9-8.6-37.4 4.6-40.2m2 8c-9.4 2.8-10.4 33.6 3.8 20.8 7-6.3 5.8-23.7-3.8-20.8" class="outline" data-original-prefix="outline"/><path id="outline-eyes4" fill="#000" d="M672.7 1168.2c24.1-5 25 45.1-2.2 40.7-13.8-2.2-13.3-37.5 2.2-40.7m-1 6c-11.6 2.1-7.2 30.9 4.6 24.7 10-5.2 5.2-26.4-4.6-24.7" class="outline" data-original-prefix="outline"/><path id="outline-eyes3" fill="#000" d="M786.7 1329.2c6.2-1.1 10.4-.2 15.6 2.9 9.3 5.6 15.8 17.8 4.6 25.2-12.4 8.3-35.8-5.5-30-20 1.3-3.4 6.2-7.5 9.8-8.2Zm4.1 6c-14 2.3-3.8 19.5 6.6 18.7 13-.9 8.9-21.3-6.6-18.7" class="outline" data-original-prefix="outline"/><path id="outline-eyes2" fill="#000" d="M793.8 1027.2c11.4-.9 19.9 7.4 17 19.1-.9 3.7-9.4 9.9-13 11-25.8 7.6-30.4-27.9-3.9-30Zm-2.1 6c-12.5 2.6-12 20.3 2.3 17.3 14.9-3.1 14.2-20.8-2.3-17.3" class="outline" data-original-prefix="outline"/><path id="outline-eyes1" fill="#000" d="M696.8 1265.2c16.2-2.7 29.1 25.4 18.6 31.7-19 11.3-40.9-28-18.6-31.7m.9 6c-9.3 2.1.9 20.2 9.7 19.8 8-.4 4-11.7 1-15.9s-5.7-5-10.7-3.8Z" class="outline" data-original-prefix="outline"/></g></g>
<g class="trait-group" data-category="right ear"><path id="fill-ear-rt" fill="#fff" d="M1711.8 182.1c1.9-.3 12.9 5.8 12.3 9.3l-7.1 128c-11.3 41.5-31.3 85.9-40.4 127.5-4.1 18.5-3.8 39.5-6.6 58.4-.2.8-.7 1.3-1.5 1.6-3.4 1.1-49-18.4-56.8-20.9-3.8-1.2-11.7-4.6-15.1-2.1-.5.4-5.2 8.2-5.3 8.8-.2 2.1 17.9 16.1 20.9 18.8 2.1 2 12.8 12.1 13.5 13.5 1.6 3.5.2 16.4.5 21.5.4 6.7.9 12.6 5 18 5.9 7.7 20.9 15.3 17.2 26.2-13.8 29.6-30.1 57.4-46.4 85.6-10.1 17.4-14.5 29.1-28.3 44.7-18.1 20.4-37.8 39.6-56.6 59.4l-98.9 53.1c-11 23.9-19.3 49.1-29.6 73.4l-92.6 78.5c-5.1 5.1-13.5.6-19.4-1.4-25.1-8.4-50.8-25.1-71.4-41.6-4.9-3.9-14.1-10.7-17.5-15.5-13.1-18.4-20.9-41.3-13.6-63.5 16.8-50.7 49.3-97.5 68.2-147.8 9.2-24.4 7.9-72.1 10.9-100.1 4.3-38.9 11.1-77.8 16.4-116.5l98.4-116.6 142.4-103.6z" class="fill" data-original-prefix="fill"/></g><g class="trait-group" data-category="right ear"><path id="outline-shading-ear-rt" fill="#000" d="M1599 504.5c0 .5 1.6 1.4 2 2l-1.5.5c-11.4-10.3-23.7-19.4-37-26.9 2.9-11.5.3-23.1.5-34.6.1-10 6.8-25.9-6.9-29.5-.1 3.6-4 8.3-3.9 11.5 0 2.7 3.4 4.9 3.9 9 1.9 16.2-1.6 35.4-.8 51.8 1.7 10 14.9 14.3 22.3 19.7.6 9.7 4.3 21 4.5 30.5.4 13.2-15.2 34.4-17.3 48.8-.3 2.3.5 4.5.3 6.8 12.5-2.5 20.8-17.9 27.4-28.1 4.2-6.5 8.7-13.9 11.6-20.9 1.4.1 1.6 1.5 2 2.5 6.8 15 5 18.4-.3 32.8-12.6 34.1-31.8 70.9-51.7 101.3-15.4 23.6-23.1 31.8-47.1 46.9-29.3 18.5-61.8 33.1-96.9 36.1-9.9 13.4-11.6 31.3-12 47.5 60.5-12.3 110.8-49.8 157.5-88 2.2-1.8 11-10.5 12-11 1.2-.5 1.9.3 1.5 1.5-.6 1.6-10.5 13.3-12.5 15.5-39.7 44.6-83.4 59.4-130.8 91.2-1.9 1.3-8.9 5.9-9.8 7.3-.8 1.2-.3 8.4-1.2 11.8-1.4 5.5-5 11.6-6.7 17.3-3.5 12.1-6.4 42-14 50-1.1 1.1-2.9 1.8-4.1 3-25.2 25.5-52.1 49.3-77.4 74.6l-2.1.9c-16.9-4.5-37.5-4.8-53.9-10-17.7-5.6-57.5-34.9-67.4-50.6-4.1-6.5-7.5-10.1-5.5-18.1 2.3-9.3 35.9-44.2 44.3-54.7 68-84.5 112.9-185.4 139-290.5 1.5-.4 1.7.4 2.5 1 5.5 3.8 10.5 12.2 16.5 16-1-12.4-13.2-22.4-22-30.5-1.8-1.7-12.3-11.1-13.5-11.1l-93.5 64.7.9-12.3c2.8-.8 12.2-9.1 13.1-11.2.7-1.8-6.5-3.8-7.5-5.5l-7.3-4.7c1.2-7.4 0-15.5.8-22.8 1.5-13.2 15.9 1.6 21.7 5.3 3.3 2.1 13 8.8 16.3 7.8l22.4-13.7 24.1-42.9c12-8.8 13.1 0 18.9 7 7.3 8.8 19.1 16.3 26.6 25.4l65.9 13.1c2.2-1.1 14-25.1 15.9-29.2 8.8-19.7 7-29.3 9.2-49.9.8-7.3 1.6-14.8 2.9-22.1 21.8-35.3 43.5-70.9 70.5-102.5 28.3-33 60.7-53 97.2-75.8 1.3-.9 10.4-5.9 11.1-6 3.5-.5 11.5 10.6 14.8 12.9v1.1c-6 15-18 25.2-27.5 37.5-15.8 20.5-31.2 48.3-42.2 71.8-4.1 8.7-12.4 25.9-14.3 34.7-2.3 10.1 6.5 31.6 8.5 42.5l69.3 19.6c4 2.4-.3 9 .7 12.8-4.1 0-8.2.2-12.2-.3-4.9-.6-44.2-8.6-46.2-9.8-1.1-.6-1.2-2.2-2.3-2.9-2.4-1.3-6.5-1-9.2-1 1 6.7-1.4 17.4 0 23.5ZM1329 776h16.5c.4 0 2.3 1 2.5 1.8l9 36.6-26.8 49.9 4.4 5.7 27.5-41c0 1 1.6 7.9 3 7 0-3 4.2-5.6 4.8-7.7 1.6-5.6-6.3-30.1-8.5-37.1-1.3-3.9-4.8-16.5-7.2-18.8-2.1-2-16.6-4-19.6-3.5-1.9.4-6.3 6.3-5.5 7Zm-7.9 188.9c2.2 1.5 9.2-6.1 10-8.5l-6.5-41.5c-8.1-22.6-19.3-45.8-31.4-66.6-1.4-2.4-3-5.7-5.2-7.3l-5.9 13.3c7.1 13.7 19.3 26.2 22.4 41.7.3 1.5.7 2.9.5 4.5-.9 5.1-19.4 24.3-23.4 29.6L1272 966l41.5-38zM1375 911l6.6-9.5c-2.1-7.7-6-16.6-7.4-24.2-1.4-7.7-.6-17.4-3.8-25.2l-4.6 8.4 9.1 50.5Z" class="outline" data-original-prefix="shading" opacity=".2"/></g><g class="trait-group" data-category="right ear"><path id="outline-ear-rt" fill="#000" d="M1204 942c-4.2-.7-8.9-3.7-12.7-5.8-19.7-11.4-30-35.7-43.8-53.2-1-2.9-.7-7.3-.5-10.5 1.2-23.6 12.9-37.4 22.2-57.8 5.6-12.4 10.8-31.7 17.6-42.4 2.6-4 7.1-7.8 10-12 38.3-55 42.6-150 46.2-215.8.4-6.6.3-23.8 2.6-28.4 42.9-62.2 88.8-122.3 141.4-176.6 18.3-18.9 33.3-29.6 55.1-43.9 73-47.8 153.8-87.8 236.9-115.1 12-3.9 31.6-10.1 43.8-11.3 6.6-.6 7 0 8.7 5.7 8.6 28.2 2.7 75.6.4 105.5-1.2 16.8-1.1 48.6-7.5 63.5-1.4 3.3-7.7 8.9-10.3 12.7-12.7 18-18.2 41.5-21.9 63.1-2.9 16.7-5.6 39-4.3 55.8.7 8.6 6.2 16.7 6.1 24 0 7.3-4.1 16.3-5.1 23.5-23.2-9.5-47.1-16.6-72-20 2.6 4.6 17.7 13.8 18.8 17.7.8 2.6-.9 4.6-.8 6.8.3 5.9 2.8 28.5 5.1 32.9 1.3 2.5 10.2 10.6 12.9 13.1 2.7 2.6 16 12.8 16 15 0 2.4-9.9 24.1-11.8 28.2-38.7 86.3-81.2 144.4-162.7 194.3-12.3 7.5-25.2 12.8-37.2 19.8-24.8 14.6-38 54.9-48.8 80.2-6.7 15.7-20.4 20.9-32.5 31.5-14.9 13.1-28.1 28.9-42.4 42.6-21 20-57.1 3.6-79.6-6.5-6-2.7-9.7-4.2-13-9.5 7 .5 13 4.1 19.8 5.7 19.2 4.6 30.1 2.7 47.2-6.2 2.7-1.4 17.2-10.3 17.8-12.2-.4-11.3 1.1-23.7.2-34.9-1.1-14.1-12.9-36.3-19.5-49.5-2-3.9-16.2-31.9-18-32-13.4 22.8-27.1 46.5-35 72-3.4 11-6.9 23.7-5.2 35.2.7 5.1 3.8 9.7 4.7 14.8-1.7 1.6-17.8-11.5-20-13.5-4.4-4-9.2-7.6-9.1-14 .1-5.5 2.1-26 4.2-29.8 2.6-4.7 9.2-11.4 12.7-16.3 42.5-61.5 61.2-130.5 109.2-188.8 7.6-9.2 15.4-19.8 20.2-30.8 8.2-18.7 19.6-72.5 16.6-91.9-2.4-15.8-26.1-29.3-36.3-40.7-8.8 19.2-17 34.5-36.6 44.3-13.2 6.6-22.1 5.7-35.1 8.9-8.2 2-15.2 10.1-21.6 15.5-.7 10-2.3 19.9-3.2 29.8-1.9 22.5-1.6 46.7-5.1 68.9-3.1 19.4-25.6 63.3-35 83-14.2 29.4-31.4 55.9-39.8 88.2-2.7 21.7 14.3 52.9 29.9 67.4Zm514-753c-2-2-47.8 16.6-53.3 19.1-68.3 30.5-139.4 73.9-202.2 114.8-52.8 34.5-93.3 70-133.4 118.5-17.4 21.1-39.2 47.3-54.4 69.6-8.3 12.1-10.4 25.6-12.2 40 3.6 1.4 7.4 2.5 10.9 4.1 5.8 2.7 18.7 11.4 23.9 10.7 20-2.7 33.2-23.1 41.9-39.1 1.5-2.8 5.6-13.8 6.1-14.4 1.8-2.1 5.8-.9 8 0 7.4 3.1 20.5 23.4 27.8 30.2 15.8 15 36 25.7 53 39 4 12.5 8.9 24.9 12.5 37.5 2.2 7.8 5.6 31.3 10 36 12.5 13.5 30.2-11.7 35.7-21.4 33.7-58.5 35.6-122.7 20-187.2 22.7-73.6 76.6-122.2 130.4-173.4 5.9-4.6 13.1-6.7 19.4-10.6 11-6.8 19-19 32.1-22.4l-21.2 37.3c-5.8 7.2-14.8 10.5-22.2 15.9-33.3 24.1-60.4 53.8-79.9 90.1-1.4 2.6-8.8 16.7-8.8 18.2 0 3.5 13.2 8.9 14.8 13.2 2.1 17.7 1.2 36 5.7 53.3 1.3 5.1 2 9.5 8.1 10.9 7.5 1.7 17.7 1.9 25.7 3.4 16.7 3 33.1 7.2 49.8 9.7 1.8-18.7.9-37.8 3-56.5 2.7-23.8 11.5-60.6 20-83 6.8-18 16.8-28.7 20.7-48.3 7.5-37.2 11.2-77.4 8.3-115.2Zm-75.2 392.2c-8-6.2-17.7-13.9-18.8-24.7-.6-5.8 0-26.6-2.1-29.9-18.1-17.7-37.4-33.7-58.8-47.3 1.7-13.2.6-26.6.8-39.9.2-10.2 4.9-20.1-7.9-25.5-10.1 33.1-20.7 79-6.5 112 1.2 2.9 6.7 10.6 6.3 12.3-21.1 26.6-32.9 59-41.6 91.5-2.4 8.9-8.5 47.6-11.4 51.6-2.7 3.7-14.2 13.2-18.4 16.6-13.4 10.9-30.6 22-45.8 30.2-2.5 1.4-16.2 9.2-17.7 7.8 3.5-7.6 7.8-14.9 10.8-22.7 8-21.6 9.7-46.5.4-67.9-4.5-10.3-19.2-36.8-31-19.7-7.5 11-16 48.1-17.2 61.8-.5 5.9 1 14.3-.4 19.6-.8 2.7-14.5 12-14.6 15.4 5.2 11.5 11.1 23.1 19 33 1.9 2.3 7.7 6.6 8 9-2.9 11.6-6.2 23.2-7.9 35.1-2.7 19.7-1.9 45.1 2.1 64.6 1.1 5.3 3.6 11.1 6.2 15.8 4.2-8 7.9-16.3 11.2-24.8 1.9-4.8 7.1-16.1 7.8-20.2s-2.2-4.7 2.4-9.5c5.5-5.8 29.5-19.4 37.7-24.3 18-10.7 37.3-19.4 54.6-31.4 49.8-34.7 117.1-125 132-184 .3-1.3 1.3-3.3.5-4.6ZM1277 572l-16-9-3 28c1.7.5 2-.7 3-1.5 1.8-1.4 16.7-16.5 16-17.5m100 227c.6-8 2.7-15.3 1.9-23.4-1.3-13-12.8-29.9-23.2-37.5-1.1.2-13.4 15.4-14.1 17-.6 1.3-.7 2.5-.6 4 5.5 1.1 20.8-.5 24 3.5 5.1 6.3 7.4 26.5 9.9 35.1.4 1.5-.6 1.8 2 1.5Zm-43.3-30.9c-2.2.6-23.3 32.3-26.1 36.9-2 3.2-11.6 19.1-11.5 21.4l36.5 56.5 2.9-2.1 34-51c.4-2.2 1.3-5.2 1.2-7.3-.3-6.2-7.1-26.3-9.4-33.4-1.4-4.4-4.7-17.7-9-19-1.6-.5-17.7-2.3-18.6-2.1ZM1340 946c1.7.5 2-.7 3-1.5 7.1-5.5 26-24 32-31 3-3.4 5.2-7.5 7.8-11.2-7.5-17.2-9.7-35.7-10.8-54.3-1.2 0-1.6 1.4-2.2 2.3-10.4 16.4-20.2 35.2-28.1 52.9z" class="outline" data-original-prefix="outline"/></g>
<g class="trait-group" data-category="left ear"><defs/></g><g class="trait-group" data-category="left ear"><path id="fill-ear-left" fill="#fff" d="M366.5 448c2.2-.7 1.7-6.1 1-8-14.8-50.5-33.9-100.1-45.5-151.5l-3-99c.6-3.5 14.7-7.2 18.4-7.5 72.6 34.3 145.7 67.7 217.5 103.6L702.5 405l86.3 108.7c9.7 62.8 14 126.7 22.2 189.8l75.7 173.9-26.9 52c-5.3 7.8-42.1 33.9-51.5 38.5-18.4 9-40.3 13.4-59.9 19.2l-3-1L638 882.5c-7.9-16.2-9.4-35.5-17.5-51.5L476 735.5l-73.2-131.3c-15.9 1.2-45.2 3-28.2 25.7 7.5 10.1 22.2 9.2 32.5 13.5 1.2 5.2 9.4 13.6 10.5 17.5 1 3.2-1.3 6.7-.6 10l-68.5-7-16.8-43.2-.2-4.8 23.8-45.7c3.4-2.8 29.6-6.2 36.2-8.3 1-.3 2-.2 2.4-1.4-4.9-19.1-12.3-39.6-14.7-59.2-.4-2.8.7-10.8-1-12-7.7-.7-15.3-2.8-23.1-2.4l5 37c-4.9.6-8.3 6.4-14 4.6l-46.8-15.7v-39.6l30.9-22.7c3.4 1 12.5-2.5 13.5-2.5 4.6 0 20 .9 23 0z" class="fill" data-original-prefix="fill"/></g><g class="trait-group" data-category="left ear"><path id="fill-earing-lft2" fill="#fff" d="M404.9 643.2c1 .6 9.3 17.3 12.1 19.3.2.5-2.1 1.1-2.6 1.1-14.2.4-44-3.9-56-11.5-9.6-6-21-30.6-19.2-41.6 1.4-8.8 18.5-28.8 27.1-31.8 12.1-4.4 38.3-7.8 51.3-7.7 9.6 0 20.4 10.4 15.4 20.4s-17.7 8-23.7 9.3c-9 1.9-31.4 3.1-37.5 8.5-7.4 6.4-2 19.2 3.9 24.9 4.8 4.6 16.5 7.7 23.1 8.9 1.8.3 5.2-.4 6.2.3h-.1z" class="fill" data-original-prefix="fill"/></g><g class="trait-group" data-category="left ear"><path id="fill-earing-lft1" fill="#fff" d="M360 523c-3.2 2.8-33.2-6.9-38.4-9.1-15.7-6.7-18.1-11-16.7-28.4 1.2-14.7 9.9-16.9 22.1-21.9 21.4-8.9 37.2-11.8 60.2-5.2 8.6 2.5 26.1 9.5 27.6 19.5.9 6.5-3.8 15-10.5 16.1-2.5.4-17.8-4.5-22.2-5.4-12.8-2.4-34.3-7.6-44.1 3-13 14.1 15 16.1 18.6 19.5 1.8 1.7 2.4 9.3 3.5 12h-.1Z" class="fill" data-original-prefix="fill"/></g><g class="trait-group" data-category="left ear"><path id="outline-shading-ear-lft" fill="#000" d="m608.2 565.2 3.3-1.2 51.4-6c1.9 9.6.6 19.6 2.2 29.3 3.3 21 21.8 41.3 32.7 59.3 28.9 47.5 49 99.2 78.8 146.2 16.1 25.4 34.3 49.3 53.4 72.6 7.9 9.6 28.7 29.6 32.7 39.3 1.1 2.7 2.6 7.6 2.1 10.5-.3 1.4-7.6 14.6-8.8 16.2-3.6 4.9-14.8 12.8-20.1 16.9-22.1 17-43.7 28-70.9 35.1-4.6 1.2-16.1 4.8-20 3l-92-84.2c-10.8-23.6-17.5-49.5-29.5-72.3L510 764.4l-84.1-88.9c-25-3.4-50.4-5.3-75.4-8.6-1.3-.2-4-.6-4.7-1.5L326 606.8l30.8-40.3c3.9-2.9 10.3-.8 15.1-1.4 1.2-1.2-6.9-24-8-27.5-8.1-2.8-41.4-4.6-46.1-8.9-3.1-2.9-16.5-30.5-19.5-36.5s-7.8-14.2-7.5-16.5c0-.8.4-1.5 1.1-2l51.3-33.7c3.4-1.3 29.1-1.4 32.8-.3l43.5 26.5c1.2 1.1 1.6 2.4 2.2 3.8 1.2 3.2 5.4 18 5.4 20.8 0 5.9-7.2 8-6.9 10.8.3 3.3 9.1 19.4 11.3 23.7 8.1 15.8 29.4 56.7 42.6 66.4 2.6 2 5.4 4.1 8.9 3.6 1.8-8.1-2.3-16.5-5.2-24.2-2.8-7.3-11-21.9-11.7-28.4-.9-9.3 4.3-27.3 4.9-37.9 3.8-61-29.8-136-65.2-184.8-8.8-12.1-24.5-26.6-30.7-39.3-1-2.1-7.2-18.7-7-19.7.2-1.1 5.7-4.9 6.9-5.2 2-.5 12.8 7.7 15.7 9.4 30.1 17.6 70.1 41 93.8 66.2s51.7 62.1 64.7 92.3c5.3 12.5 4 11.2 3.8 24.1-.7 40.9 1.3 80.7 10.5 120.5 1.7 7.1 5.7 25.4 9 31 .8 1.3 7.7 9.2 8.9 10.1.9.6 1.4 1.7 2.6.5l24.2-44.3zm-292.1-82.3c3.4 2.2 5.5-3.1 7-4.3 12.8-10.8 63.5-.9 80.3 1.4 11.5-4.6 6.5-11.6-1.7-16.2-12.2-6.9-36.4-10.5-50.1-8.7-5 .7-31.9 10.7-35.1 13.9-2.2 2.2-1.9 12.9-.4 14q0-.1 0 0ZM419 503c-11.1 4.8-24.2.2-36 1l13 60 40-2zm5.8 70.2c-3.2-3.1-24.7-.7-30.1 0-9.5 1.1-25.8 3.3-33.8 8.2-5.4 3.3-19.9 21.7-21.4 27.6-2.8 10.8 1.6 22.4 14.5 20-1.1-8-2.6-17.2 2.2-24.3 8.9-13.2 46.4-4.8 62.3-16.7 3.8-2.8 11.1-10.1 6.3-14.8M450 595l-39.9 13.4c11.9 17 20.5 35.9 31.6 53.4 42.6 67.4 95.1 111.3 170.2 139.8 14.3 5.5 29.5 7.7 44 12.5 5.5 13.5 10.9 27.2 17 40.5 9.5 20.5 22.4 32.9 37.7 49.3 17.6 18.9 38.6 41.2 58.5 57.5 1 .8 7.3 6.2 8 5.5-3.9-10.9-5.5-27.1-10.2-37.3-2.9-6.1-17-20.7-22.2-27.8-24.6-34-42.1-71-63.4-106.6-13.9-23.2-19.7-24.2-44.7-33.3-22-8.1-50.6-11.8-70.2-19.8-11-4.5-43.7-25.5-52.2-33.8-7.1-6.9-18.4-25.8-24.1-34.9-15.6-24.8-29.5-51.1-40-78.5h-.1Zm-45 42c-3-8.1-6.1-16.4-11-23.6-2.7.8-19.3 4.8-20 5.6-.3.4 0 2.3.5 3 .8 1.3 24 13.2 26.8 14.2 1.2.5 2.3 1.1 3.7.8" class="outline" data-original-prefix="shading" opacity=".2"/></g><g class="trait-group" data-category="left ear"><path id="outline-ear-lft2" fill="#000" d="M671 548c1 1.1-8.8 24.7-9.5 28.9-3.2 18.8 9 75.7 17.4 93.7 8.3 17.9 19.9 26.5 31 41 35 45.5 53.4 108.2 84.2 156.9 4.4 7 27 36 27.8 40.2 1.2 5.8 2 19.4 2.3 25.8 0 1.9.2 3.7-.6 5.5-1.3 3.1-26.2 24.3-28.5 22 .6-4.8 4.2-9.9 4.9-14.6 4.5-32.7-34.7-99.9-51.7-129.1-19.1-32.7-44.8-69.8-70.1-97.9-2.4-2.7-12.2-10.8-13.1-12.2-2.1-3.5-.6-16.6-1-21.8-1-12.8-10.5-52.4-18-62-10.4-13.3-23.7 7.8-28.2 16.8-11.9 24-9.9 50.3-.3 74.7 2.7 6.9 6.7 13.2 9.5 20-2.9 0-5.5-1.3-8-2.5-17.1-8-40.7-23.6-55.4-35.6-4.2-3.4-15.7-12.9-18.4-16.6-3-4-9.1-42.7-11.4-51.6-8.6-32.6-20.5-64.9-41.6-91.5-.3-1.7 5.1-9.4 6.3-12.3 14.5-33.8 3.2-89.9-11.3-122.7-23.4-53-61.8-94-110.7-124.3l-22.5-39c3.3-3.1 26 18.4 29.7 20.8 6 4.1 14.7 6.7 20.3 10.7 9.2 6.5 21.7 22 30.5 30.5 33.1 32 57.7 54.3 80 96 4.4 8.1 20.6 40.5 21.3 47.8.7 7.6-5.5 27.2-6.7 35.9-7.6 53.4 0 102.9 25.7 150.1 5.5 10 23 36.2 36.2 23.9 4.9-4.5 9.1-31.2 11.5-39.5 2-7.1 8.6-30 12-35 3.1-4.5 28.4-18.6 34.8-22.2 2.3-1.3 20.8-11.7 21.7-10.8z" class="outline" data-original-prefix="outline"/></g><g class="trait-group" data-category="left ear"><path id="outline-ear-lft1" fill="#000" d="M846 940c15.1-16.5 31.1-43.1 27.9-66.4-6.7-13.7-9.4-29.6-15.7-43.3-5.9-12.9-15.5-26.6-22-40-10.6-21.5-23.7-48.6-32.3-70.7-9.2-23.4-7.5-61.4-9.8-87.2-1-11-2.9-22-4-33-2.3-24.6-2.1-67.2-15.6-87.4-14.6-21.8-37.5-48.9-54.5-69.5-41.4-50.3-82.8-86.1-137.5-121.6-42.3-27.4-87.4-55.5-131.9-79.1-38.8-20.7-78.7-40.2-120.7-53.8-3 38.2.9 78.6 8.3 116.2 3.3 16.9 7.6 19.5 14.6 33.4C367 366.1 372 402 378.4 433c1.5 4.2 10.7 6.3 14.6 8.4 13.7 7.3 26.9 14.3 34.4 28.6 6 11.4 4.6 18.9-3.4 28.5-12.5 14.9-22.7 12.7-40 7.5-1.6 1.8 9.7 42.2 12 47.5 20.4.6 40.3.8 51.9 20.1 6.5 10.9 4.8 15.8-1.8 25.8-7 10.7-14.9 15.8-28 16.5-1.5 1.5 7 17.2 8.5 20 24.3 45.7 71.1 106.9 114.2 135.8 26.6 17.9 62 31.7 86.6 51.4 7.8 6.3 4.2 5.9 6.1 13.9 12 50.8 60 106.1 105.3 130.7 23.2 12.6 44 11.2 68.3 1.2-1 4.5-8.9 7.6-13 9.5-19.5 8.8-52 23.1-72.4 12.4-3.2-1.7-21.8-20.6-26.2-24.8-8.6-8.3-15.6-17.1-25-25-10.3-8.7-24.4-15.4-30-28-10.2-23.4-16-42.1-31.1-63.9-13.3-19.2-23.3-19.4-42.1-29.9-55.3-31-107.1-75.3-138.5-131-19.2-.6-39.2-1.6-58-5.5-27.5-5.8-33.9-14.5-44.3-39.7-8.6-21.1-13.7-31.3-2.7-52.6 9-17.5 20.9-37 43.2-36.3l-2.1-10.9c-21.9-2.3-55.5-6.5-70.9-23.6-10.3-11.5-13-21.7-12.1-37 1.1-18.1 4.6-21.7 19.4-30.6 10-6 25.4-14.6 36-19 6.2-2.6 12.7-5.4 19.7-4.8 2-2-10.8-49.6-13.2-55.3-4.6-10.8-15.9-20.4-20-29-3.4-7.1-5.9-31.4-6.8-40.2-3.1-33.1-7.5-84.8-2.9-116.9.4-2.5 3.3-15.8 4.5-16.7 1.7-1.2 4.6-.9 6.6-.7 27.9 2.6 74.9 22.3 102 33 67.9 26.9 154.8 70.8 212.1 115.9 12 9.5 25.4 25.3 36.2 36.8 46.7 50.2 88 104.7 126.9 161.1 8.9 76.2 3.1 178.6 48.8 244.2 2.9 4.1 7.4 7.9 10 12 7.1 11.1 12.9 32 19 45 4.2 9.2 9.1 18.3 13.7 27.3 1.4 2.7 6.4 9.3 7 11 .8 2.6 2.6 22.5 2 24.6-10.1 12.6-17.6 27.8-27.4 40.6-7.7 10-14.2 13.1-25.3 18.7-1.2.6-3.1 2.7-4.1.4zM360 523c-1.1-2.7-1.7-10.3-3.5-12-3.5-3.4-31.6-5.5-18.6-19.5 9.8-10.5 31.3-5.4 44.1-3 4.5.9 19.7 5.8 22.2 5.4 6.7-1.1 11.5-9.6 10.5-16.1-1.5-10-18.9-17-27.6-19.5-23-6.5-38.7-3.7-60.2 5.2-12.2 5.1-20.9 7.2-22.1 21.9-1.4 17.4 1 21.7 16.7 28.4 5.1 2.2 35.1 11.9 38.4 9.1h.1Zm44.9 120.2c-1-.6-4.4 0-6.2-.3-6.6-1.2-18.3-4.3-23.1-8.9-5.9-5.6-11.3-18.5-3.9-24.9 6.2-5.3 28.5-6.5 37.5-8.5 6-1.3 21-4.1 23.7-9.3 5.1-10-5.8-20.4-15.4-20.4s-39.1 3.4-51.3 7.7c-8.6 3.1-25.8 23-27.1 31.8-1.7 11 9.6 35.6 19.2 41.6 12.1 7.5 41.8 11.8 56 11.5.6 0 2.8-.6 2.6-1.1-2.8-2-11.1-18.7-12.1-19.3h.1zM396 628c-1.1-6.4-1-9.6-8.2-8.7-13.6 1.6 1.6 10.2 8.2 8.7" class="outline" data-original-prefix="outline"/></g>
<g class="trait-group" data-category="head"><path id="fill-head" fill="#fff" d="M1184.8 747.2c1.7 1.6 7.1 11.9 9.4 15.1 15.6 21.3 37.6 44.5 59.5 59.5 2.8 1.9 17.6 9.9 18.1 10.9.8 1.6 2.1 11.4 2.2 13.8 1 17.8-4.1 34-12.8 49.2-.5 2.1-11.1 14.5-10.2 15.3 1 .9 3.1-.8 4-1.5 8.7-6.4 17.5-19.2 25.9-26.5 5.6 12.5 16.9 32.8 17.1 46.5.2 11.8-11.5 36.8-23.6 40.5-3.4 1 .8-5.5 1.3-6.7 1.5-4.3 4.3-11.3 4.3-15.8 0-5.3-2.9 1.3-3.2 1.8-3.7 5.3-6.8 10.1-12.5 13.5-17.3 5.9-62.4 43.2-77.7 43.1-7.3 0-16.7-4.3-24.6-2.9 5.1-5.7 11.2-12.7 9.5-21-13 11.3-26.8 21.6-41.6 30.4-10.1 6.1-24.4 16.9-36.3 8.5-4.9-3.5 2.7-5.8 5-8.2 5.1-5.4 17.4-29.3 20.5-37 3.6-8.8 6.2-19.1 6.3-28.7-5.2 4.1-6.4 10.8-9.7 16.3-11.5 18.9-35.2 43.6-54.5 54.5-51.1 29-102.9-11.5-129.1-54.5-3.3-5.5-4.5-12.2-9.7-16.3 0 9.5 2.8 19.8 6.3 28.7 3.1 7.6 15.4 31.6 20.5 37 2.4 2.5 9.9 4.8 5 8.2-13 9.2-33.2-6.2-44.3-13.5-11.8-7.7-23-16.2-33.6-25.4-1.6 8.3 4.4 15.2 9.5 21-7.9-1.4-17.3 2.9-24.6 2.9-15.3 0-60.4-37.1-77.7-43.1-1.9-1.8-4.4-3-6.2-4.8-2.2-2.2-7.3-11.8-8-12.1-.4-.1-2.5-.3-2.5.5l8 23.5c-12.1-2.4-20.7-20.2-23.5-31-4.7-18.2 8.2-39.9 15.5-56 8.4 7.3 17.2 20.1 25.9 26.5.9.7 3 2.4 4 1.5.9-.8-9.7-13.2-10.2-15.3-11.4-19.3-16.3-41.6-10.3-63.7 30.5-15.7 57.2-42.2 77.3-69.7 1.8-2.5 8.9-14.7 9.9-15.4 9.9-7.1 43 2.9 55.1 4.8 27.3 4.3 43.7-9.7 68-18.5 20.1-7.3 45.1-9.5 65.8-3.3 17.9 5.4 43 21.4 60.1 22.9 15.2 1.4 62.5-14.7 72.1-5.6ZM959 765c-.8-.8-5.9 2.8-6.9 3.6-6.7 5.1-36.1 44-37.6 51.4-2.6 12.6-.8 28.8-.4 41.5.4 11.9-.9 22.9 3 34.5l5.5-37c4.6-24.6 12.2-48.6 22.7-71.3l13.8-22.6Zm172 131c3.9-11.6 2.6-22.7 3-34.5.4-12.7 2.2-28.9-.4-41.5-1.5-7.3-30.9-46.3-37.6-51.4-1-.8-6.1-4.4-6.9-3.6l13.8 22.6c10.4 22.7 18.1 46.7 22.7 71.3l5.5 37Zm-224-97c-.8-.8-15.6 9.7-16.9 11.6-2.5 15.7-19.9 44.4-19.2 58.9.2 3.6 7.9 20.7 9.9 25.2 4.9 11 16.8 36.7 23.7 45.3 1.2 1.5 2.8 2.3 4.5 3-5.4-21.5-21.9-48.5-22.1-70.5-.1-23.9 12.5-51.2 20.1-73.5m232 144c1.7-.7 3.3-1.6 4.5-3 6.9-8.6 18.8-34.3 23.7-45.3 2-4.5 9.7-21.6 9.9-25.2.7-14.5-16.6-42.5-18.8-58.2-4.4-5.2-10.9-8.8-16.7-12.3l13.2 38.8c3.9 15.4 8.2 31.3 4.8 47.3l-20.5 58ZM831 816c-1.8-2-6.7 8.3-7.2 9.3-3.8 8.1-8.5 19.9-11.6 28.4-1.1 3-4.3 11.2-4.3 13.8 0 2.3 5.8 13.8 7.2 16.8s11.2 23 12.4 23.6c1.9.9 1.5-1.3 1.4-2.4-.7-9.1-5.9-20.4-6.8-30.2-1.8-19.6 5.2-40.3 8.9-59.4Zm388 92c2.1.4 2.3-1 3.2-2.3 7.1-10.5 12.2-26.6 17.8-38.2-4.6-13.7-9.8-29.1-15.9-42.2-1.4-3-3.4-8-6.7-9.3l8.5 46.5c1.4 15.7-4.8 30.3-7 45.5Z" class="fill" data-original-prefix="fill"/></g><g class="trait-group" data-category="head"><path id="fill-head3" fill="#fff" d="M689 956c.1 0 .2 1.7 1 2.5 3.8 4 7.9 7.4 11 12 4.5 6.4 15.1 12 19.1 17.9.7 1 1.2 1.5.8 2.9-.8 3.2-14.6 6.3-18.4 9.7-7.2 6.3-27.7 38.1-32.3 47.7l-13.1 32.3c-2.2-18-6.1-36.4-7-54.5-1.5-29.2 10.6-35.5 27-56 3.1-3.9 6.9-10.6 10-13.8.7-.7 1.4-1.2 2.1-.6Z" class="fill" data-original-prefix="fill"/></g><g class="trait-group" data-category="head"><path id="fill-head2" fill="#fff" d="M1361 956c7.8 14.4 21.4 25.8 30.2 39.3 7.2 11 7.4 18.2 6.8 31.2-.9 17.2-5.1 34.3-6 51.5-2.6.4-1.6-.2-2.1-1.4-4.9-11-8.1-22.3-14.1-32.9-4.3-7.5-25.9-39.3-31.4-43.6-4.2-3.2-20.5-5.6-16.4-11.7 6.9-6.8 14.4-12.9 21.1-19.9 3.2-3.3 6.3-8.2 9.5-11.5.8-.8.9-1.4 2.4-1.1Z" class="fill" data-original-prefix="fill"/></g><g class="trait-group" data-category="head"><path id="outline-shading-head" fill="#000" d="M749 958.5c-.9-4.2-14.1-19.9-16.8-28.2s3.4-18.6 7.2-26.3c4.7-9.4 20.7-31.4 21.5-39.5.7-7.3 0-14 1.3-21.7 1.2-7.1 2-15.7 10.7-16.3-13 21.5-2.7 45.5 9.6 64.4 5.5 8.5 17.7 24.8 25.9 30.1 1.2.8 2 1.2 3.5 1-5.7-18.1-13.5-34.6-9.5-54 2.9-14.1 10.1-27.2 21.5-36-.2 3.8-5 7.6-5.8 10.7-1.9 7.7 1.9 19.8 2.7 27.8 1.1 11.2-2.1 25.3 8 33.5-.2-24.2 7.7-47.1 19.8-67.7l12.2-19.3c-16.5-3.4-33.5-5.2-50-8.5-3.5-.7-8.5-1.3-11.6-2.4-1.1-.4-1.7.5-1.4-1.6 10.3-10.4 20.9-20.5 30.5-31.5 10.4-12 30.3-45.4 46-45.8 13.3-.3 29.8 4.8 43 5.8 20.9 1.5 46.8-16.6 67.2-22.8 8.3-2.5 64.5-2.5 74.7-1.1 15.6 2.2 41.8 19.5 58.3 23.7 18 2 38-6 55.8-5.6 15.7.4 35.6 33.8 46 45.8 11.2 12.9 24 24.3 35.5 37-30.7 7.1-61.6 14-93 17 1.1 2.6-1.1 4.4-1.1 7.5 0 .7 2.8 11 3.1 11.5 0 0 1.5-1 2.4 0 .6.6 7.8 13.3 8.4 14.7 7.8 18.2-.1 61.2-6.6 80.2-1.6 4.6-4.8 8.5-5.3 13.2 1.5 1.5 23.5-3 26.5-5 4.1-2.7 18.9-23.5 22.3-28.7 12.1-18.8 19.6-40.9 18.7-63.4l-8.1-24.9c1.5 3.5 4.3 5.4 6.3 8.7 5.9 9.7 12.5 26.8 14.1 37.9 2.3 16.5-1.2 31.6-5.9 47.4 5.7-3.5 23.6-30 28.5-30 5.3 0 15.4 21.3 16.8 26.2 3.6 12.7-.9 24.3-7.1 35.5-1 1.7-4.8 5.6-4.8 6.8 0 .8 2.1 5.6 2.3 8.2 0 1.4-1.2 5.7-.6 6.3 2.4 2.4 3.6-2.8 4.1-3.4 8.1-8.6 13.7-5.5 19.8-18.3 7.7-16.4 10.4-38.5 10.2-56.4 1.4-1.9 11.2 21.6 10.9 25.4-.6 8.5-18 30.3-18 32.1V974s1.1-.2 1.6.4.3 1.6.4 1.6h15.5c1.4 0 20.4-13.1 23-15 8.7-6.7 16.1-15.2 25-21.8 1.3.9 2.8 1.8 3.9 2.9 8.9 8.8 43.7 58.8 47.3 69.7 4.3 12.9-1.6 27.3-5.5 40-5.7 18.7-12.9 37-19.8 55.2-5.6-14.1-10.2-28.5-16.6-42.3-8.4-18.2-25.9-53.8-44.6-61.4-2.4-1-11.3-2.9-12-3.5-3.1-2.2-6.5-20.5-12.7-21.8-11.4-2.2-16.3 2.4-25.7 5.3-5.5 1.7-13.9 4.2-19.4 4.6-7.8.5-18.2-2.6-25.4-.4s-29.9 19.7-39 25c-3 1.7-9.5 6.3-12.5 6.6-4.5.5-15.7-5.2-22-5.9-22.2-2.3-32.9 10.6-52 18.7-2.3 1-8.1 3.8-10 3.8-4.7.2-12.2-6-15.9-6.7-2.3-.4-9.6-.4-12 0-5.8.8-12.9 10-19 11-5.9 1-53 .8-57.2-.7-5.2-1.8-11.4-9.5-16.7-10.3-2.4-.3-9.7-.3-12 0-4.1.8-11.3 7.3-16.6 6.5-5.8-.8-23.7-10.8-30-14.1-13.3-6.8-14.2-10.2-31.4-8.4-6.5.7-18.2 6.6-22.9 5.7-2.8-.5-8.8-4.7-11.7-6.4-9.1-5.2-31.4-22.7-39-25s-17.7 1-25.4.4c-15.2-1.1-28.2-11.4-43.2-9.9-9.9 1-9.5 16.7-14.9 21.1-3.4 2.8-14.4 4.4-19.9 8.1-14.4 9.8-37.6 58.3-44.4 75.6-2.8 7.1-4.6 14.9-7.3 21.7-.4 1-.4 2.4-1.9 2.6-.5-5.7-4-11-6-16.5-4.6-12.3-9.4-26.2-13.2-38.8s-9.8-27.1-5.5-40c3.7-10.9 38.5-60.9 47.3-69.7 1.2-1.1 2.6-2 3.9-2.9 1.4 0 17.7 16 20.6 18.2s25.8 18.6 27.4 18.6h15.5s-.2-1.1.4-1.6 1.6-.3 1.6-.4c0-4.1.7-12.1 0-15.5ZM904 932c-3.5-22.2-6.3-42-.7-64.2 3.2-12.5 10.2-25.3 13.1-37 .6-2.4 1.3-7.3-1.8-7.8-5.9-1-12.9-.4-18.9-2.1-18.3 37.1-16.7 77.7 8.4 111.1Zm219.9-100.9c-21.8.4-43.6 2-65.4 1.9-38.8-.2-77.4-5.6-116-7-3.1-.1-6.5-.3-9.6.4-.8.6-1.8 7.5-1.9 9.1-1.7 20.1 2.8 45 7.3 64.7 3.7 16 10.3 31.1 19.2 44.8l.5-7.5c-2.7-32.3.2-69.9 18.5-97.5-2.2 52.9 15.6 107.2 52 146 .3-22.2-4.8-43.3 4.6-64.3 12.5-27.9 44.1-35.9 64.4-10.7 7.2 9 8.9 19 11 30 15.2-17.7 21-42.8 23.4-65.6.3-3.4 1.3-9.7 1.1-12.7-.2-2.6-7.7-30.6-9.1-31.5ZM1165 887c-.7-4 .9-7.7 1.1-11.5.9-17.1-4-30.8-9.5-46.5-1.7-2-14.6.7-18 1-3.1.3-6.3-.2-9.5 0-.4 1.9 1.6 3 1.7 4.6.2 2.1-1.2 4.3-.5 7.7 1.2 6.1 9.9 18.7 12.5 26.5 6.7 19.7 4.6 30.1 3.2 49.8-.2 3.8-1.3 11.6 3.5 7.5.5-.4 6.5-10 6.9-11.1 1.2-3 3.6-13 4.4-16.6 1-4.6.4-10.4 2.2-15.3l2 4Zm-352.5 36v1c.7-.3.7-.7 0-1" class="outline" data-original-prefix="shading" opacity=".2"/></g><g class="trait-group" data-category="head"><path id="outline-head7" fill="#000" d="M907 799c-7.6 22.3-20.2 49.6-20.1 73.5.1 22 16.7 49 22.1 70.5-1.7-.7-3.3-1.6-4.5-3-6.9-8.6-18.8-34.3-23.7-45.3-2-4.5-9.7-21.6-9.9-25.2-.7-14.4 16.7-43.2 19.2-58.9 1.2-2 16.1-12.5 16.9-11.6" class="outline" data-original-prefix="outline"/></g><g class="trait-group" data-category="head"><path id="outline-head6" fill="#000" d="m1139 943 20.5-58c3.4-15.9-.9-31.9-4.8-47.3l-13.2-38.8c5.8 3.5 12.3 7.1 16.7 12.3 2.2 15.7 19.5 43.8 18.8 58.2-.2 3.6-7.9 20.7-9.9 25.2-4.9 11-16.8 36.7-23.7 45.3-1.2 1.5-2.8 2.3-4.5 3Z" class="outline" data-original-prefix="outline"/></g><g class="trait-group" data-category="head"><path id="outline-head5" fill="#000" d="m959 765-13.8 22.6c-10.4 22.7-18.1 46.7-22.7 71.3l-5.5 37c-3.9-11.6-2.6-22.7-3-34.5-.4-12.7-2.2-28.9.4-41.5 1.5-7.3 31-46.3 37.6-51.4 1-.8 6.1-4.4 6.9-3.6Z" class="outline" data-original-prefix="outline"/></g><g class="trait-group" data-category="head"><path id="outline-head4" fill="#000" d="m1131 896-5.5-37c-4.6-24.6-12.2-48.6-22.7-71.3l-13.8-22.6c.8-.8 5.9 2.8 6.9 3.6 6.7 5.1 36.1 44 37.6 51.4 2.6 12.6.8 28.8.4 41.5-.4 11.9.9 22.9-3 34.5Z" class="outline" data-original-prefix="outline"/></g><g class="trait-group" data-category="head"><path id="outline-head3" fill="#000" d="M831 816c-3.7 19.1-10.7 39.7-8.9 59.4.9 9.8 6.1 21.1 6.8 30.2 0 1.1.5 3.3-1.4 2.4-1.2-.6-11-20.6-12.4-23.6s-7.2-14.6-7.2-16.8c0-2.6 3.2-10.8 4.3-13.8 3.1-8.5 7.8-20.3 11.6-28.4.5-1 5.4-11.3 7.2-9.3Z" class="outline" data-original-prefix="outline"/></g><g class="trait-group" data-category="head"><path id="outline-head2" fill="#000" d="M1219 908c2.3-15.2 8.4-29.8 7-45.5l-8.5-46.5c3.2 1.4 5.2 6.3 6.7 9.3 6.1 13 11.3 28.5 15.9 42.2-5.7 11.6-10.8 27.7-17.8 38.2-.9 1.3-1.1 2.7-3.2 2.3Z" class="outline" data-original-prefix="outline"/></g><g class="trait-group" data-category="head"><path id="outline-head1" fill="#000" d="M1308 967c20-7.7 33.4-24.5 49.5-37 2.2-1.7 6-5.3 8.8-4.9s15.6 15.7 18.1 18.9c9.9 12.4 31.4 41.7 37.8 55.2 14.7 31.2-11.1 77.2-20.7 107.6-.7 2.3 0 5.4-.9 7.1-1.3 2.1-15.8 8-18 5-1-1.3-4.5-15.8-5.7-19.3-8.6-24-21.3-50.2-35.7-71.3-5.4-7.8-8-12.1-17-16-2.9-1.2-13.5-3.8-14.7-4.8-2.6-2.1-7.7-19.7-10.9-20.7-12.6 5.3-26 9.3-39.8 10-4.1.2-15.7-1.4-17.8-.9-6.2 1.5-34.3 22.8-43.5 27.6-7.2 3.8-10.9 6.1-19.5 4.9s-17.8-7.6-26.3-6.8c-5.1.5-22.3 12.1-28.8 15.2-10.8 5.1-20.4 10.4-32.5 7.1-3.3-.9-13-6.3-14.7-6.3-2 0-13.2 10.1-18 10.9-5.3.9-10.1-.9-14.9-1-12-.2-24.1-.2-36.1 0-5.9.1-12.2 2.6-18.2.3-3.3-1.2-14.3-10.2-15.8-10.2-2.8 0-14.7 7.4-21.3 7.8-7.1.4-19.9-5.7-26.5-8.9-6.1-2.9-22.5-14.1-27.2-14.8-8.8-1.4-18.5 5.5-27.2 6.7-10.8 1.4-16.5-3.3-25.2-8.3-7.2-4.2-32.9-23.1-37.8-24.2-2.1-.5-13.7 1.1-17.8.9-13.6-.6-28.5-4.4-40.4-11-4.1 6.2-6.4 19.1-13 22.5-3.6 1.8-8.8 2.6-12.7 4.3-10.2 4.6-12.8 10.4-18.7 19.3-17.9 27-30.4 57.2-40.2 88-2.5.8-15.5-4.2-16.2-5.2-.6-.9 0-3.9-.6-5.9-9.7-27.9-33.2-74.3-24.2-103.2 4-12.9 35.2-56.3 45.2-67.8 2.4-2.8 11.1-12.9 14-12.9s24.7 20.4 29.6 24.3c2.5 2 26.7 18.9 27.9 17.6-2-7-7.7-12.8-11.2-19.3-10.3-19.3-8.6-28.6.7-47.7 4.1-8.5 20.8-32.1 22.3-37.7 1.4-5.3.5-16.6 1.2-22.8.7-5.5 1.9-11 3.8-16.2 27.3-18.8 50-41.4 71.2-66.8 9.4-11.3 21-32.6 35.2-36.8 16.3-4.8 43 3.4 60.2 4.3 17.5-6 36.2-17.3 53.6-22.5 10.7-3.2 75.1-3 88.4-1.4 16.3 2 42.4 19.2 59.2 23.9 17.2-.9 43.9-9.1 60.2-4.3 14.2 4.2 25.8 25.5 35.2 36.8 21.2 25.4 43.9 48 71.2 66.8 1.9 5.2 3.1 10.8 3.8 16.2.7 6.1-.2 17.4 1.2 22.8 1.5 5.6 18.2 29.3 22.3 37.7 9.3 19.1 10.9 28.4.7 47.7-1.4 2.7-12.4 18-11.2 19.3Zm-123.2-219.8c-9.6-9.1-56.9 7-72.1 5.6-17.1-1.5-42.2-17.5-60.1-22.9-20.7-6.2-45.7-4-65.8 3.3-24.3 8.8-40.7 22.8-68 18.5-12-1.9-45.2-11.9-55.1-4.8-1 .7-8 12.9-9.9 15.4-20.2 27.5-46.8 54-77.3 69.7-5.9 22.1-1.1 44.3 10.3 63.7.5 2.1 11.1 14.5 10.2 15.3-1 .9-3.1-.8-4-1.5-8.7-6.4-17.5-19.2-25.9-26.5-7.3 16.2-20.3 37.9-15.5 56 2.8 10.8 11.4 28.6 23.5 31l-8-23.5c0-.8 2-.7 2.5-.5.7.2 5.8 9.8 8 12.1 1.8 1.8 4.3 3 6.2 4.8 17.3 5.9 62.4 43.2 77.7 43.1 7.3 0 16.7-4.3 24.6-2.9-5.1-5.7-11.2-12.7-9.5-21 10.6 9.2 21.8 17.7 33.6 25.4 11.2 7.2 31.3 22.7 44.3 13.5 4.9-3.5-2.7-5.8-5-8.2-5.1-5.4-17.5-29.3-20.5-37-3.6-8.8-6.2-19.1-6.3-28.7 5.2 4.1 6.4 10.8 9.7 16.3 26.2 43 78 83.5 129.1 54.5 19.2-10.9 43-35.6 54.5-54.5 3.3-5.5 4.5-12.2 9.7-16.3 0 9.5-2.8 19.8-6.3 28.7-3.1 7.6-15.4 31.6-20.5 37-2.4 2.5-9.9 4.8-5 8.2 11.9 8.4 26.2-2.4 36.3-8.5 14.8-8.8 28.6-19.1 41.6-30.4 1.6 8.3-4.4 15.2-9.5 21 7.9-1.4 17.3 2.9 24.6 2.9 15.3 0 60.4-37.1 77.7-43.1 5.7-3.4 8.8-8.2 12.5-13.5.3-.4 3.2-7.1 3.2-1.8 0 4.4-2.7 11.4-4.3 15.8-.4 1.2-4.7 7.8-1.3 6.7 12.1-3.6 23.8-28.7 23.6-40.5-.2-13.7-11.5-34-17.1-46.5-8.4 7.3-17.2 20.1-25.9 26.5-.9.7-3 2.4-4 1.5-.9-.8 9.7-13.2 10.2-15.3 8.8-15.2 13.8-31.4 12.8-49.2-.1-2.4-1.3-12.2-2.2-13.8-.5-.9-15.3-9-18.1-10.9-21.9-15-43.9-38.2-59.5-59.5-2.3-3.2-7.7-13.5-9.4-15.1ZM689 956c-.7-.6-1.4 0-2.1.6-3.1 3.2-6.8 9.9-10 13.8-16.3 20.6-28.5 26.9-27 56 .9 18.1 4.9 36.5 7 54.5l13.1-32.3c4.6-9.5 25.1-41.3 32.3-47.7 3.8-3.3 17.6-6.4 18.4-9.7.4-1.4-.2-1.8-.8-2.9-4-6-14.6-11.5-19.1-17.9-3.1-4.6-7.2-8.1-11-12-.7-.8-.9-2.4-1-2.5Zm672 0c-1.5-.4-1.6.2-2.4 1.1-3.2 3.2-6.4 8.1-9.5 11.5-6.7 7-14.2 13.1-21.1 19.9-4.1 6.1 12.3 8.5 16.4 11.7 5.5 4.3 27.2 36 31.4 43.6 6.1 10.6 9.2 21.9 14.1 32.9.5 1.2-.5 1.8 2.1 1.4.9-17.2 5.1-34.3 6-51.5.7-13 .5-20.2-6.8-31.2-8.8-13.4-22.5-24.9-30.2-39.3Z" class="outline" data-original-prefix="outline"/></g>
<g class="trait-group" data-category="mouthpiece"><path id="fill-mouthbit-main" fill="#fff" d="M1380.7 1584.3c6.4 17.5 27.5 11.4 39.8 21.7 2.6 2.2 3.8 6.5 7.4 7.6 7.3 2.2 16.1-2.2 23.3-.3 3.3.8 5.8 5.4 9.3 6.7 10 3.7 17.2-4.4 22.2 7.8 11.5 28.1-14.7 83.3-38.4 100.1-2.3 1.6-8.2 6-10.7 5.9-4 0-3.9-8.3-9.3-9.5-2.5-.6-8-.5-10.7 0-5.3.7-10.5 6.8-15 1.9-2.1-2.3-3-8.8-6.2-9.8-1.7-.5-10.9-.5-12.6 0-2.3.7-2.3 3.4-2.8 3.7-2.4 1.4-29-11.6-38.3-9.8-2.5.5-3.7 2.9-7.1 3s-10.8-2.5-14.5-3.6c-37.1-10.8-76.4-26.1-111.4-42.6-8.9-4.2-8.6-6.4-13.7-14.3-17.2-5.8-34.2-12.1-51-19-1.7-.7-3.8-.5-5.7-1.3-2.2-.9-15.3-7.8-16.3-8.7-1.4-1.4-6-14-7-17-3.8-10.5-6.5-21.4-9.9-32 0-5.6 14.9-17 19.4-20.4 4.7-3.6 18.9-14.1 23.9-14.1 20.3 2.9 50.8 18.9 70.8 14.8 3.3-.7 7.5-4.5 10.7-5.3 8.2-2.2 45.6 4.8 56.2 6.8 33.6 6.3 65.2 17.2 97.5 28v-.2Z" class="fill" data-original-prefix="fill"/></g><g class="trait-group" data-category="mouthpiece"><path id="fill-mouthbit-label1" fill="#fff" d="m1373 1589-17.3 3.2c-35 17.2-52.7 54.8-41.2 92.8 2.2 7.2 6.6 12.9 7.5 20-30.3-10.7-62.6-20.2-91.7-33.8-15.9-7.4-27.6-12.4-33.6-30.4-9.2-27.7 3-62.2 26.8-78.8 7.4-5.2 21.2-2.8 29.9-1.8 40.5 4.5 81.1 16.3 119.6 28.9Zm-114.2-14.7c-22.6 2.6-45.1 28.1-42.8 51.2 2.4 23.4 37.9 43.7 56.5 26.5 7.2-6.7 20.9-36.6 21.5-46.4 1.3-20.4-15.7-33.6-35.2-31.3" class="fill" data-original-prefix="fill"/></g><g class="trait-group" data-category="mouthpiece"><path id="fill-mouthbit-label2" fill="#fff" d="M1258.8 1584.3c14.8-2 27.3 6.2 25.2 22.2-1.1 8-13.6 36.5-20 41-11.9 8.4-32.8-2.5-37.7-15.1-7.7-19.9 12.9-45.4 32.6-48Z" class="fill" data-original-prefix="fill"/></g><g class="trait-group" data-category="mouthpiece"><path id="fill-mouthbit-ember" fill="#fff" d="M1462.1 1632.9c1.6 1.1 7.6-6.6 12.4 0 1.3 1.8 3.2 9.2 3.4 11.6 1.7 16-14.6 63.2-30.3 69.4-2.1.8-6.8 2.1-9 2-4.2-.2-11.8-6.5-14.9-5.9-2.2.4-6.3 6.1-11.9 5.6-6.6-.6-5.5-8.4-9.8-10.3-3.1-1.3-9.9-.9-13.8-2.2-17.7-5.8-13.9-40.5-9.7-54.3 2.6-8.5 13.4-28.2 23-29 3.2-.3 5.5 1.1 8 1.1s6.7-2.3 8.8-1.8c1.8.4 4.2 4.6 6.3 5.7 5.7 3 8.2-1 13.3-2.4 9.3-2.5 15.1-1.7 21.4 5.6 1.1 1.3 2.4 4.7 2.7 4.9Zm-43.1-2.9c-15.4-5.5-26.8 18.2-28 30.5-.5 5.5 2.3 31 5.1 34.9 1.4 2 3.8 2.2 5.9 1.1 4.2-2.1 1-13.1.9-17-.2-6.4-.7-16.4.7-22.4 2.2-9.2 11.7-18.3 15.3-27.2Zm14 78v-27.5c0-8.9 8.2-26.1 13.6-33.4 1.5-2 9.4-9.9 9.4-10.6 0-7.4-15.8 4-18.1 6-12.8 11.4-17.8 31.3-14.7 47.8 1.2 6.4 4.1 14.2 9.8 17.8Z" class="fill" data-original-prefix="fill"/></g><g class="trait-group" data-category="mouthpiece"><path id="outline-shading-mouthbit" fill="#000" d="M1174 1617c-1.1-15.2 4.2-30 11.5-43 4-7.2 8.8-18.2 18.5-14-5.4 12.1-11.5 23.9-14.5 37-1.2 5.1-4 18.6-3.1 23 .2.8 6.6 13.2 7.2 13.9 5.8 6.6 32.4 17.7 41.5 21.5 26.7 11.3 54.5 20.6 82.4 28.6 1.1 0 6-3.7 6.4-4.7 1-2.9-1.1-17.5-.8-22.8.8-13.3 13.5-49.9 26.9-54.1 12-3.7-.3 9.9-1.8 12.2-11.1 16.8-16 35.4-12.9 55.6.4 2.7 2.5 13 4 14.5 1.7 1.8 27.2 11 28.8 9.8 2.9-2.2 1.7-18.6 2.1-23 1.1-12.1 5.9-26.5 12.1-36.9 2.6-4.4 7.1-13.1 12.8-11.7 1.8 1.8-7.8 14.2-9.2 17.3-3.5 7.9-5.9 19.6-6.8 28.2-.3 3.6-1.3 11.2 0 13.9 2.3 4.3 10.8 10.3 15.6 11.4 2.3.6 5.2-.3 7.3.7 1.2.6 3.2 4.5 4.9 6.1 8.2 7.1 16.2 1 25-1.5 1.5 5.1 0 8.4 4 12.5 5.6 5.8 12.2 4.5 19 7-7.4 7.9-14.8 15.6-26.3 9.3-1.3-.7-1.6-2.4-2.4-2.8-2.6-1.6-23.9-2.3-30.6-5.2-1.9-.8-1.5-3.3-4.2-3.8-1.6-.3-10.5-.3-11.9.2-1.6.5-1.7 2.8-2.7 3.4-2.9 2-29.1-11.4-38.5-9.5-2.4.5-2.8 2.8-6 3.1-7 .6-60.6-18.3-71-22.1-21-7.6-41-17.7-61.4-26.6-5.7-4.1-5.7-12.1-7-13-.5-.3-2.6.6-4.1.2-16.1-4.3-39.6-13.4-54.9-20.2-2.6-1.2-12.4-5.7-14-7-2.4-1.9-6.7-14.2-8.1-17.9-2.4-6.6-9.3-25.4-9.8-31.3-.2-2.6 1.9-5.1 3.4-7.2 4.2-5.6 29.7-25.5 36.1-26.9 11-2.3 27.1 6.2 37.8 8.7 2.2 11.4-19.1 3.5-26.1 4-8.4.6-24.9 14.3-28 22.1-2.6 6.4-2.8 13.5 2.6 18.4 3.7 3.4 44.2 24.5 45.9 22.6h.2Z" class="outline" data-original-prefix="shading" opacity=".2"/></g><g class="trait-group" data-category="mouthpiece"><path id="outline-mouthbit5" fill="#000" d="M1258.8 1574.3c19.6-2.3 36.6 10.9 35.2 31.3-.6 9.9-14.3 39.8-21.5 46.4-18.5 17.2-54.1-3.1-56.5-26.5-2.4-23.1 20.2-48.6 42.8-51.2m0 10c-19.6 2.7-40.3 28.1-32.6 48 4.9 12.7 25.8 23.6 37.7 15.1 6.4-4.5 18.9-33 20-41 2.1-15.9-10.4-24.2-25.2-22.2Z" class="outline" data-original-prefix="outline"/></g><g class="trait-group" data-category="mouthpiece"><path id="outline-mouthbit4" fill="#000" d="M1419 1630c-3.6 8.9-13.1 18-15.3 27.2-1.4 6-.9 15.9-.7 22.4 0 3.9 3.3 14.9-.9 17-2.2 1.1-4.5.9-5.9-1.1-2.8-3.9-5.6-29.4-5.1-34.9 1.2-12.3 12.6-36 28-30.5Z" class="outline" data-original-prefix="outline"/></g><g class="trait-group" data-category="mouthpiece"><path id="outline-mouthbit3" fill="#000" d="M1433 1708c-5.7-3.6-8.6-11.4-9.8-17.8-3.1-16.4 2-36.3 14.7-47.8 2.2-2 18.1-13.4 18.1-6s-8 8.6-9.4 10.6c-5.4 7.3-13.6 24.5-13.6 33.4v27.5Z" class="outline" data-original-prefix="outline"/></g><g class="trait-group" data-category="mouthpiece"><path id="outline-mouthbit2" fill="#000" d="M1387.9 1722c-2.6-1.7-4.3 3.2-6 4.4-4.1 3.1-11.1 0-15.8-1.2-5.5-1.5-18.9-7.8-22.9-8-2.5 0-4.5 3-7 3.5-5.1 1.2-14.8-2.1-20.1-3.5-41.4-11.5-81.7-28.9-120.9-46.1-5.2-2-5.6-7.9-7.8-11.2-1.7-2.4-36.6-13.8-42.7-16.3s-27.4-10.6-30.8-14.2c-3.7-3.9-11-27.5-13-34-1.9-6.2-7.5-20.8-5.2-26.3.9-2.2 7.6-9.2 9.7-11.3 10.4-10 24.3-19.1 37.2-25.7l66 16.7c4.3 0 10.3-6.1 14.9-6.9 5-.9 15.4.4 20.9.9 48.7 4.4 95.4 19.4 141.5 34.5 3.1 2.2 5.2 9.3 8.1 10.9 8.1 4.6 24 3.3 32.4 11.6 1.8 1.7 3.5 6.2 5.2 6.8 3.6 1.2 15.1-2.1 19.7-1.8 7 .4 10.9 8.4 16.6 9.6 8.1 1.7 13.7-7.1 19.9 5 15.9 30.8-10 93.7-36.4 113.4-4.5 3.3-13.4 9.1-19 8.9-7.2-.2-10.5-11.2-13.1-11.7-4.4-.9-13.3 9-22.7 4.6-5.7-2.7-8.1-12.3-8.8-12.7h.1ZM1195 1563c-18.1-2.2-36.1-7.2-53.9-9.5-4.4 4.2-24.4 16.5-25.9 21.2-1.9 6.3 2.1 30.1 5.9 35.7s48.4 18.8 56.9 23.6c-2.6-20.3 1.3-41.6 10.8-59.7 1-2 7.5-10 6.2-11.3m178 26c-38.5-12.5-79.2-24.4-119.6-28.9-8.7-1-22.5-3.3-29.9 1.8-23.8 16.6-36 51.1-26.8 78.8 6 18 17.7 22.9 33.6 30.4 29.1 13.6 61.3 23.2 91.7 33.8-.9-7.1-5.3-12.8-7.5-20-11.4-38 6.2-75.6 41.2-92.8l17.3-3.2Zm-6 119c-11.8-26.2-2.6-72.3 19.5-91 3.9-3.3 14.3-6.6 6.5-10.5-46.1-23.3-74.8 42.7-62.5 79.5 3.4 10.3 26.3 19.8 36.5 22m95.1-75.1c-.2-.2-1.6-3.6-2.7-4.9-6.3-7.3-12.2-8.1-21.4-5.6-5.1 1.4-7.7 5.4-13.3 2.4-2.2-1.1-4.5-5.3-6.3-5.7-2.2-.5-6 1.8-8.8 1.8s-4.8-1.3-8-1.1c-9.6.8-20.4 20.5-23 29-4.2 13.9-8 48.6 9.7 54.3 3.9 1.3 10.7.8 13.8 2.2 4.3 1.9 3.2 9.7 9.8 10.3 5.6.5 9.7-5.1 11.9-5.6 3.1-.6 10.6 5.7 14.9 5.9 2.2 0 6.9-1.2 9-2 15.8-6.2 32-53.4 30.3-69.4-.3-2.4-2.1-9.7-3.4-11.6-4.8-6.7-10.8 1.1-12.4 0Z" class="outline" data-original-prefix="outline"/></g><g class="trait-group" data-category="mouthpiece"><g id="outline-mouthbit1"><path id="outline-mouthbit" fill="#000" d="M1237.5 1606.4c-.1 0-.3-.2-.4-.3s-.2-.3-.3-.5-.1-.3-.1-.5v-.5s.2 0 .3-.1c.1 0 .3 0 .4-.1s.3 0 .5 0h1.7v-.1s-.1 0-.2-.1-.2 0-.3-.1c-.1 0-.3 0-.4-.1s-.3-.1-.5-.2c-.2 0-.3-.1-.5-.2s-.1 0-.2-.1v-.5c0-.2 0-.4.1-.5s.1-.3.2-.5c0-.1.1-.3.2-.4.1 0 .2-.1.3 0 .2 0 .4 0 .6.2.2 0 .5.2.7.3s.5.2.7.3.5.2.6.3.5.3.8.4.6.3.9.5.6.3.9.5.5.3.7.5c0 .1 0 .3-.1.4s-.1.3-.2.5c0 .2-.2.3-.3.5s-.2.3-.3.3h-.3c-.1 0-.2-.1-.3-.2 0 0-.2-.1-.3-.2 0 0-.2-.1-.3-.2-.1 0-.2-.1-.4-.2s-.1 0-.2 0h-.1v.2c0 .2 0 .2.1.3s.1.3.2.4c0 .1.1.3.2.4 0 .1.1.3.2.4s.1.3.2.5.1.3.1.5v.3l-.3.3c-.1 0-.3.2-.5.2s-.3 0-.5.1h-.5c0-.1-.1-.2-.2-.4 0-.1-.1-.3-.2-.5 0-.2-.1-.3-.2-.5 0-.2-.1-.3-.1-.5s0-.2-.1-.3v-.2h-.3c-.2 0-.4.1-.6.2-.2 0-.3.1-.5.2-.2 0-.3.1-.5.2s-.3 0-.5.1-.3 0-.5 0Z" class="outline" data-original-prefix="outline"/><path id="outline-mouthbit1" fill="#000" d="M1240.8 1608.9c.1-.3.2-.4.4-.5.1 0 .3 0 .5.1.2 0 .4.2.5.3 0 0 .1.2 0 .4 0 .2 0 .4-.1.6 0 .2-.1.4-.3.7s-.2.5-.3.7l-.3.6c-.1.2-.1.3-.2.4-.1.3-.3.7-.5 1s-.5.6-.7.8-.6.4-.9.5c-.3 0-.7 0-1-.1s-.5-.3-.6-.6-.1-.6 0-.9v-.4l-.2.1-.3.3c-.2.3-.5.5-.8.6s-.6 0-.9 0-.2 0-.3-.1-.2-.1-.3-.2l-.3-.3c-.1-.1-.1-.3-.2-.5v-.8c0-.3 0-.6.1-.9 0-.3.2-.7.3-1s.3-.7.4-1 .1-.3.3-.5c0-.2.2-.3.3-.5l.4-.4c.1-.1.3-.2.4-.2h.5c.1 0 .3 0 .5.2.2 0 .4.2.6.3s.5.3.9.4.3.2.5.3l.6.3c.2.1.4.2.5.3.1 0 .3.1.3.1Zm-4.5 1v.9c0 .1 0 .1.2.2q.3.15.6 0c.2 0 .3-.3.5-.6s.1-.3 0-.5c0-.1-.2-.2-.4-.3s-.2 0-.3-.1-.2 0-.2 0-.1 0-.2.1c0 0 0 .1-.1.3Zm2.2 1v.6c0 .1 0 .2.1.3s.2.2.3.2h.5c.2 0 .3-.3.4-.5s0-.2.1-.3v-.2s0-.1-.1-.2-.2-.1-.3-.2c-.3-.1-.5-.1-.6-.1s-.2.2-.3.4Z" class="outline" data-name="outline-mouthbit" data-original-prefix="outline"/></g></g><g class="trait-group" data-category="mouthpiece"><g id="cigar-label"><path id="outline-mouthbit2" fill="#000" d="M1277.4 1617c-.2.5-.5 1-.7 1.5-1.5 1.2-2.9 2.4-4.4 3.6-.5.4-1.1.9-1.1 1.7v6.4c-.2.5-.5 1-.7 1.5-.6.7-1.3 1.3-1.9 2-1 1-2 2-3.5 1.8h-1.8c-1.1 0-2.3.2-2.8 1.4-1.1 2.2-2.2 4.4-3.2 6.6-.4.7-.9 1.2-1.7 1.3-2.2.2-4.4.5-6.5.7l-4-1.9s-.1-.2-.2-.3c-2-1.7-3.2-3.7-3.4-6.4-.2-2.2 1-3.8 2-5.6.6-1 1.1-2 1.4-3.1.1-.4-.1-1.2-.4-1.5-.5-.4-1 0-1.5.3-.9.8-1.3 1.8-1.7 2.8-.3.6-.7.9-1.3.7s-.8-.7-.8-1.2c0-.4 0-.8.2-1.2.5-2 .9-4 1.5-6 .7-2.4 1.6-5.2 2.3-7.6 0-.1 0 .1 0 0l3.5-7.6.9-1.5c1.2-1.8 2.3-3.6 3.5-5.4 1.3-1.9 2.8-3.7 4.2-5.6.5-.7 1.2-.8 1.6-.4.6.4.6.8.2 1.7-.5 1-.9 2-.9 3.1 0 .6.2 1.2.8 1.2.5 0 1.2-.3 1.3-.6.7-1.4 1.4-2.9 1.9-4.4.8-3 2.9-4.7 5.8-5.3 1.3-.2 2.7 0 4.1-.1 1.3.6 2.7 1.2 4 1.9 1.2 1.8 2.4 3.6 3.7 5.5.4.6.5 1.3.2 2-.8 1.8-1.6 3.7-2.4 5.5-.2.5-.4.9-.6 1.3-.3.8-.4 1.5.1 2.2l1.8 2.4c.6.7 1.1 1.5.9 2.5-.2 1.4-.2 2.7-.3 4.1Zm-30.2-5.2c-.6 1.9-1.4 3.8-1.8 5.8-.7 3.2 0 6 2.8 8 1.9 1.3 3 1 3.8-.8.6-1.2 1-2.5 1.6-3.7.3-.5.7-1 1.1-1.4 2-1.7 3.3-3.9 3.3-6.6 0-2.2 1.2-3.9 2.1-5.7.7-1.3.9-2.6-.8-3.4-2.5-1.2-5.8-.4-7.9 1.7-1.8 1.8-2.9 4-4.2 6.1m25.7-10.9c1.1-2.3.8-4.1-.2-6-.6-1.1-1.4-2.1-2.8-2.5-3.2-.8-6.3.9-7.6 3.7-.9 2-.8 4.1.4 6 .6 1 1.3 1.9 2.4 2.3 3 1.1 6.5-.7 7.7-3.5Zm-17.4 37.7c.1-.5.3-1 .4-1.5.7-3.1-1.4-7.8-5.8-7.1-2.5.4-4.4 1.7-5.3 3.9-1 2.3-.6 4.7 1 6.7.5.7 1.2 1.4 2 1.6 3 .9 6.4-.7 7.7-3.6m17.6-23.1c.8-1.5.9-3.2.4-4.8s-1.4-3.1-3.2-3.6c-2.7-.7-5.6.6-7 3-1.4 2.5-1.2 5 .4 7.3.6.8 1.3 1.6 2.4 1.8 2.9.5 6-1.2 7-3.8Zm-6.4 13.8c1-1.9.9-3.9 0-5.8-.6-1.3-1.6-2.4-3.2-2.6h-1.9c-2.1.4-3.8 1.4-4.8 3.3-1.1 2.1-1.1 4.3 0 6.4.6 1.1 1.4 2.1 2.5 2.4 3 .8 6.2-.8 7.3-3.7Z" class="outline" data-name="outline-mouthbit" data-original-prefix="outline"/><path id="outline-mouthbit3" fill="#000" d="M1245.4 1597.4c-1.1.6-2.3 1-3.4 1.6-.1 0-.4.2-.2.3l7.1-1.2-2.2-1.4c1.2-.6 2.6-.9 3.7-1.4 0 0 .5-.2.2-.3l-8 .7 2.7 1.8Z" class="outline" data-name="outline-mouthbit" data-original-prefix="outline"/><path id="outline-mouthbit4" fill="#000" d="M1235 1619.9c-.4-1.3-1-2.5-1.3-3.7 0-.1-.2-.4 0-.4l3.9 5.8-2.1-.2c.4 1.3 1.2 2.5 1.6 3.8 0 .1.2.5 0 .5l-4.7-6z" class="outline" data-name="outline-mouthbit" data-original-prefix="outline"/></g></g></svg>