<?xml version="1.0" encoding="UTF-8"?>
<svg xmlns="http://www.w3.org/2000/svg" viewBox="0 0 2048 2048">
<style>
  .outline { fill: #000000; }
  .fill { fill: #ffffff; }
  .shading { fill: #aaaaaa; opacity: 0.5; }
</style>

<g class="background">
  </g><g class="background"><path id="color-red" class="color" d="M2048,4.5c-.1,679.6-.1,1359.2,0,2038.8,0,3.8-.8,4.6-4.6,4.6-679.6-.1-1359.2-.1-2038.8,0-3.8,0-4.6-.8-4.6-4.6C.2,1362.3.1,681.2.1,0h2043.3c3.8,0,4.6.8,4.6,4.6h0v-.1Z" style="fill: #af6e6e" fill="#af6e6e"/></g><g class="background">
</g>
<g class="trait-group" data-category="jaw"><path id="fill-jaw-robo1" fill="#fff" d="M1369.9 1062.1c.4.5 1 11.1 1.4 13.1 11.6 61.7 25.9 123 37.2 184.8 16.2 20.3 35.3 38.1 51.5 58.4l-70.1 149.9-2.3 1.6-31.6-1.9-7.8 59.7-101.2 128.8c-1.6 1.1-2.6-.6-3.6-1.6-11.2-11.1-20.8-28.6-32-40-1.3-1.3-2.6-3.5-4.8-2.9-3.4.9-32.4 51.8-38.3 57.8-25.8 9.8-49.6 24-74.7 35.3-8.9 4-63.2 23-65.1 25.9-.6 1-.4 2.8-.6 2.9-.2.2-3.1-.9-4.4-.9s-3.2 1.3-3.6.9c-.3-.3.7-2.4-2.3-4.2-13.4-8.1-38.6-14-54.4-20.6-28.2-11.8-54.4-28.3-83.3-38.7-6.3-5.8-35.3-57.4-38.7-58.4-2.2-.7-4.5 2.4-5.9 3.9-11.6 12.1-21.3 28.8-33.1 41l-1.9-.9-100.9-128.1c-3.2-19.9-5.4-39.9-7.5-60l-31.6 1.9-2.5-1.4-69.8-149.3c-.3-1.9 4.6-7.3 6.3-9.3 14.5-16.8 30.7-32.1 44.6-49.4 10.6-62 27.2-123.3 37.7-185.3.5-3.2-.7-11.9 2-13.3 104.8-21.7 209.7-42.7 314.5-64.3 7.3-1.5 24.9-7.3 30.5-7.5 4.2 0 24.8 6.2 31.1 7.5 105 21.6 210.1 42.9 315.1 64.4v.2z" class="fill" data-original-prefix="fill"/></g><g class="trait-group" data-category="jaw"><path id="outline-shading-jaw-main" fill="#000" d="m1369.9 1062.1 28.1 145.4c-4.8-.6-19.2-17.4-22.3-16.4-3.4 1-21.1 37.8-20.7 42.4 12.3 15.8 24.8 31.6 35.4 48.6 3.7 5.9 15.5 24.5 15.6 30.5 0 4.7-10.7 25-13.5 30.5-4.5 8.7-9.8 16.9-14.5 25.5 17.3-8 33.9-18.4 49.3-29.7 4.1-3 10.3-7 13.7-10.3 2.3-2.2 12.4-16.5 13.5-16.5l5.5 6.4-65.1 139.9-6.5 11.5-32.3-1.9-7.8 59.7-101.2 128.8c-1.6 1.1-2.6-.6-3.6-1.6-11.1-11.1-20.8-29.2-31.9-40-.8-.8-1.6-2.1-2.9-1.9-7.3 1.3-32.3 48.3-39.7 55.4-30.9 14.9-60.7 32.4-91.6 47.4-12.8 6.2-33.2 17.2-46.8 18.2-23.7 1.7-37.4-7.3-57.9-17.2-31.4-15.1-61.6-32.8-93-48-8.2-6.6-32.8-54.4-40.3-55.8-2.8-.5-31.3 38.2-35.8 43-1 1.2-2 1.2-3.1 0l-100.9-128.1-7.5-60-31.6 1.9-2.5-1.4-69.8-149.3c-.3-3.1 3.7-7.8 6.8-5.8 1.9 1.2 8.8 11.9 11.5 14.6 2.9 2.9 7.8 6.2 11.2 8.8 4.5 3.4 49.2 33.3 51.3 31.2-7.3-15.4-17.3-29.8-23.8-45.6-1.2-2.9-3.2-6.7-3.2-9.9 0-5.3 10.4-22 13.7-27.4 11-18.2 24.3-34.9 37.4-51.6-4.2-15.2-12-29-20.1-42.3-.9-.5-2 0-2.9.4-6.3 3.4-12.9 13.3-20 16.5l28.1-145.9 45.8-9.7c48.2-55 116.4-93.5 184.8-118.2 72.2-26 130.6-31.5 205-8.5 77.7 24 155.9 65.5 210.3 126.7zM854 1330c-21-6.7-43.3-4.3-64.4-11.1-14-4.5-30.8-14.7-42.9-23.1-18.1-12.6-35.7-28.4-49.2-45.8-10.7 14.6-22.1 30.4-30.7 46.3-4.3 8-11.3 21.1-7.7 30.1l27.1 48.4c6.1 1.6 17.5-4.7 22.8-2.3 1.5.7 2.4 3.5 4.5 3.5s4.4-5.1 7-5.1 3.4 4.4 7 4.1 5.2-6.6 7.2-7c.5 0 8.2 2.7 8.6 2.9 4.7 2.4.3 18-3.2 21.4.3 1.5 14.2 9.3 16.4 9.6 2.9.5.2-2.4 1-4.9s6.5-6.3 8.8-5.9c5.4.9 6.3 10.2 14.7.3 1.9-2.2 0-4.1 4.5-4.6 8.5-1 5 8.4 7 14.1 12.4-17.2 20.2-37.4 32.1-54.9l29.4-16.1Zm507.8 44.8c8.8-17.7 20.1-34.4 28.2-52.3-.4-8.9-2.9-14.5-6.9-22.2-8.9-17.4-21.4-34.4-32.7-50.3-21.1 25.5-52 52.2-82.8 65.2-24.8 10.4-48.4 7.8-73.7 14.8l29.7 16.3c11.6 17.6 19.4 37.7 31.8 54.7.9-1.8 1-13.5 1.5-14s7.3-.2 7.8.2c1 .6 1.6 7.8 6.9 8.7 6.3 1.1 7.7-7.8 15.4-2.8 2.7 1.8 3.1 6 2.8 8.9 1.2 1.4 17.7-8.3 18-9.6.2-1-3.9-5.8-4.6-8.4-2.2-9.5-1.5-13.7 8.4-14.8 5.3-.6 2.8 2.2 5.5 4.5 4.6 4 7.8-2.7 10-2.6 2.7.2 5 4.9 7.2 4.9s3-2.8 4.5-3.5c5.2-2.4 16.6 3.8 22.8 2.3zM1078 1327c-5.5-11.1-10.5-24.8-17.6-34.9-4.2-6.1-10.2-10.5-14.9-16.1-3.4-4-15.2-20.5-18.4-21.6-1.9-.6-4.4-.8-6.3-.2-2.4.7-15.7 18.7-18.7 22.3s-7.4 6.8-10.5 10.5c-9.4 11.2-15.1 26.9-21.5 40h108Zm-353.8 172.8c24.8 5.4 50.2 7.7 75 13.6 17.3 4.1 20.3 3.6 29.6 19.4 5.3 8.9 9.2 18.7 14.2 27.8l17 14-29.2-80.8c-2.4-5.8-8-8-13.1-10.9-22.2-12.9-51.7-27.2-75.7-36.3-2.6-1-8.1-3.8-10.4-3.5-1 0-15.6 9.5-16.3 10.3-6.3 7.6 6.8 37.2 8.9 46.5Zm599.6 0c2.5-10.6 8.2-22.1 9.8-32.7.8-5.7 1.7-10.9-3-15.1-1.1-1-13.2-8.9-14-9-2.5-.3-19.4 7.2-23.2 8.8-20.7 8.8-45.7 20.5-65 32-5.6 3.4-8.8 4.9-11.8 11.2l-28.5 80 16.4-14.1c7.1-10.9 14.9-35.4 25.9-42.1 6.1-3.8 19.9-5.9 27.5-7.5 21.8-4.6 44.2-6.7 66-11.5zM908.5 1649v1c.7-.3.7-.7 0-1m229.5 1c-31 8.8-60.6 26.8-91 36.5-19.3 6.2-28.3 5.9-47.5-.4-28.3-9.3-56.5-25.5-85-35.1-1.2-.4-3.6-1.8-4.5-.5.8 2.1 2.7 4.2 4 6 4.9 6.3 18 23.3 23.5 27.5 7.2 5.5 27.9 14.6 37.1 18.9 5 2.3 20.9 10.5 24.9 11.1 9 1.4 36.3 1 46 0 7-.6 57.7-24.6 64.4-29.6 5.3-3.9 18.2-20.8 23-27 .8-1 5.8-6.8 5-7.5Z" class="outline" data-original-prefix="shading" opacity=".2"/></g><g class="trait-group" data-category="jaw"><path id="outline-jaw" fill="#000" d="M670 1105c2 .2 9.2 3.6 9.8 5.7 1 3.3-1.3 18.1-2 22.7-6 41.8-19.7 84.1-28.6 125.4-12.3 18.3-29.3 33.5-43.8 50.2-1.2 1.3-6.5 7.5-6.5 8.5l56 135.5c1.5.4 1.7-.4 2.5-1 7.1-4.9 23.9-23.3 30.5-30.5 1.5-1.6 9.9-11.2 10-12-17.6-32.9-42.5-63.1-49.8-100.8 17.2-28.9 35.3-57.4 56.9-83.2 6.2-7.4 21.8-27.5 32-26.1 4.7.6 8.6 4.8 6.4 9.5-23 21-44.9 44.7-62.7 70.3-3.2 4.6-15.2 22.2-15.6 26.5-.5 5.1 11.8 29.8 15 35.6 7 12.8 29.4 46.8 40.5 54.5 2.8 1.9 7 3.2 10 5 77.7 46.7 153.2 90.1 243.1 109.9 13.1 2.9 37.4 9.1 49.8 9.2 11.3 0 33.7-5.7 45.6-8.2 92.6-19.7 168.3-62.9 248.1-110.9 3.1-1.8 7.2-3.1 10-5 11.1-7.7 33.4-41.8 40.5-54.5 3.2-5.8 15.5-30.5 15-35.6-.4-3.9-10.7-19.3-13.6-23.5-18.3-27-40.8-51.3-64.7-73.3-2.5-9.2 6.9-10.8 13.8-7.8 10.7 4.6 40.4 44.2 48.5 55.5 11.9 16.7 22.3 34.6 33 52.1-7.3 37.7-32.2 67.9-49.8 100.8 0 .8 8.5 10.4 10 12 6.6 7.2 23.4 25.6 30.5 30.5.8.6 1 1.4 2.5 1l55.8-135.3c-15.4-20.6-35.6-37.7-50.1-58.9-8.6-41-22.6-83.1-28.6-124.4-.7-4.8-3.1-20-1.9-23.7.6-2.1 8-5.5 9.8-5.7 4.6-.4 10.8 5.1 11.9 9.6 8.1 44.1 13.6 92.9 27.6 135.4 9.1 27.6 33.8 39.8 52 60 4.9 5.4 6.6 7.2 4.8 14.8-2.1 8.6-9.2 23.2-12.8 32.2-16.7 41-35.5 81.7-54.5 121.5-2.5 2.1-18.6 9-21.4 8.6-4.6-.7-13.3-13.3-18.5-15-3.1 22.3-7.1 44.7-11.8 66.7-29.2 38.3-55.4 79-82.3 118.7-10.2 4.1-22.2 12.3-32.2 15.8-1.5.5-3 1.3-4.6.7l-24.6-43.9c-1.1.5-16.2 15.9-17.3 17.7-6.5 10.1-3.8 21-14.2 29.8-22.9 19.1-72.2 40.2-100.7 51.3-18.6 7.3-34.3 14.2-54.7 14.3-24 .2-49.5-11.4-71.5-20.6-23.2-9.8-67.3-29.4-85.5-45.5-10.3-9.1-7.3-19.2-13.7-29.3-1.1-1.7-16.2-17.1-17.3-17.7L812 1674c-1.6.6-3.1 0-4.6-.7-10.1-3.5-22-11.7-32.2-15.8-26.9-39.8-53.1-80.4-82.3-118.7-4.7-22-8.6-44.4-11.8-66.7-5.2 1.7-14 14.4-18.5 15-2.8.4-18.9-6.5-21.4-8.6-19-39.8-37.8-80.5-54.5-121.5-3.6-8.9-10.8-23.6-12.8-32.2-1.8-7.6 0-9.4 4.8-14.8 13.4-14.9 37.6-30.5 47.2-47.8 7.3-13.1 12.4-41.8 15.8-57.2 4.5-20.4 8.5-41.2 12.2-61.8 1.5-8.5 1.8-19.4 3.7-27.3 1.2-5 7.2-11.3 12.6-10.9zm664.9 411.9 14.2-77.4c-.2-3.8-5.4-5.5-8.1-8-2.9-2.7-5.4-5.9-8.6-8.3-82.7 31.3-155.3 82.7-242.3 103.3-57 13.5-94.2 11-150.2-4.8-69.9-19.7-131-59.2-197.1-87.9-6-2.6-20.1-9.4-25.7-10.4-2.8-.5-7.7 6-10 8.1-2.1 2-7.6 4.5-8.1 7l14.2 78.3c17.8 1.1 35.6 3.8 53.4 5.1 9.3.7 42.4-.4 47.8 3.9 8.5 20 14.6 41 23.2 61 2.8 6.5 6.2 15.2 9.9 21.1 5.4 8.7 15 14.9 20 23.1 5.6 9.2 8.1 23.6 15.5 31.5 5.1 5.5 21.6 15 28.8 19.2 31 18.4 83.7 44.6 119.8 42.2 30.1-1.9 87.2-31 113.4-47.6 5.2-3.3 16.2-9.8 20.1-13.9 7.2-7.5 10.4-24.2 16.1-32.9 2.7-4.1 8-7.8 11.3-11.7 8.3-9.7 11.9-17.5 16.9-29.1 9-20.6 15.3-42.4 24.2-63 14.6-5 32.2-2.8 47.8-4 17.8-1.3 35.6-4.1 53.4-5.1v.3ZM801 1649c5.8-16.3 16.4-30.6 24.8-45.6-4.3-11.7-7.5-23.9-12-35.6-2.2-5.8-7.4-19.7-10.9-24.1-10.8-13.6-69.6-12.5-86.9-16.6-.5 1.7.7 2 1.5 3 13.4 17.3 27.7 33.6 40.3 51.7 15.2 21.9 28.4 45.1 43.2 67.3Zm531-122c-17.3 4.1-76.1 3-86.9 16.6-3.5 4.4-8.6 18.3-10.9 24.1-4.5 11.7-7.7 23.9-12 35.6 8.4 15.1 18.9 29.3 24.8 45.6 14.7-22.2 27.9-45.4 43.2-67.3 12.6-18.1 26.9-34.3 40.3-51.7.8-1 1.9-1.3 1.5-3Z" class="outline" data-original-prefix="outline"/></g><g class="trait-group" data-category="jaw"><path id="outline-jaw1" fill="#000" d="M785.7 1376.3c8.1 7.2 8.5 18.5 4.1 27.9-5.2 10.9-19.3 10.7-26.7 2.3-15.1-17.3 3.6-47 22.7-30.2Zm-12 4.9c-10.7 1.7-7.7 23.9 4.7 21.8 10.2-1.7 4.4-23.3-4.7-21.8" class="outline" data-name="outline-jaw" data-original-prefix="outline"/></g><g class="trait-group" data-category="jaw"><path id="outline-jaw2" fill="#000" d="M1262.3 1376.3c22.7-20.1 40.5 23.7 16.9 34.4-21.7 9.8-31.5-21.5-16.9-34.4m10.4 4.9c-10.5 1.7-12.6 25.9 1.3 21.4 10.1-3.2 8.1-22.9-1.3-21.4" class="outline" data-name="outline-jaw" data-original-prefix="outline"/></g><g class="trait-group" data-category="jaw"><path id="outline-jaw3" fill="#000" d="M723.7 1356.2c15.6-2.8 28.9 19.5 15.8 29.8-10 7.8-24 0-26.8-11.2-1.8-7.1 3.5-17.2 11-18.6m9.1 22.6c6.5-6.5-8.3-22.1-11.4-7.8-1.5 7.3 7.1 12.1 11.4 7.8" class="outline" data-name="outline-jaw" data-original-prefix="outline"/></g><g class="trait-group" data-category="jaw"><path id="outline-jaw4" fill="#000" d="M1317.7 1356.2c14.2-2.9 23 13.6 14.3 25.3-12 16-34.6 4.8-27.5-13.5 1.7-4.3 8.7-10.8 13.2-11.8m-2.5 22.6c4.3 4.3 12.9-.5 11.4-7.8-3-14.3-17.9 1.3-11.4 7.8" class="outline" data-name="outline-jaw" data-original-prefix="outline"/></g>
<g class="trait-group" data-category="mouth"><path id="fill-mouth-main" fill="#fff" d="M1102 1287c.4.6-2.2 4.3 0 5.5 50.4 27.6 100.7 55.4 145.8 91.1-5.2 15.8-10.4 31.6-16.7 47.1-5.9 14.4-8.3 22.4-12.7 37.3-13 44.8-25.3 89.9-38.3 134.7-3.4 15.6 7.3 31.3 8.8 45.8.5 5.4-1.6 24.6-3.1 29.9-2.4 8.9-12.3 10.5-19.9 15.1-23.1 14.2-44 33.8-68.7 45.3-38.6 17.9-94.7 18.9-134.6 4.9-30.8-10.8-53.7-33.5-80.8-50.2-5.6-3.4-16.3-6.9-18.8-12.2-2.2-4.7-4.6-27.2-4.1-32.9 1.2-14.4 12.1-30.2 8.8-45.8-13.8-47.4-26.5-95.2-40.5-142.5-3.7-12.4-5.6-17.8-10.5-29.5-6.4-15.4-11.4-31.2-16.7-47.1 45.2-35.6 95.4-63.7 145.8-91.1 2.2-1.2-.5-4.8 0-5.5.2-.2 3.4-1.1 4.7-1.9 25.5-15.1 52.3-31 83.7-27.1 24.4 3.1 42.7 15.5 62.9 27.1 1.2.7 4.5 1.7 4.7 1.9h.2Z" class="fill" data-original-prefix="fill"/></g><g class="trait-group" data-category="mouth"><path id="fill-mouth-teeth13" fill="#fff" d="m1042 1510-1.9 71.5c-.9 11.5-1.7 23.4-2.1 34.9-.2 7.7 1.3 20.2 0 27-.5 2.5-12.9 11.6-14.3 11.4-1.2-.2-13.2-8.9-13.7-11.4-.2-44.5-3.3-88.9-4-133.5l17.6 16.9 18.3-16.9Z" class="fill" data-original-prefix="fill"/></g><g class="trait-group" data-category="mouth"><path id="fill-mouth-teeth12" fill="#fff" d="m1000 1637-20-15.5c-1.8-.5-2.8-4.4-3-4.5-.8-.5-3 3.8-5 3-.4-20.5-.2-41.1-1-61.5s-2.9-41.1-2.5-61.4l11-14c3 4.2 18.8 16.6 19.2 20.6.4 3.5-.9 11.2-.8 15.9.8 20.4 1.8 41.5 2.1 61.9.2 18.5-.2 37 0 55.5" class="fill" data-original-prefix="fill"/></g><g class="trait-group" data-category="mouth"><path id="fill-mouth-teeth11" fill="#fff" d="M1076 1620c-2 .8-4.2-3.5-5-3-.2.2-1.2 4.1-3 4.5l-20 15.5c.2-18.5-.3-37 0-55.5.2-20.4 1.3-41.5 2.1-61.9.2-4.7-1.2-12.4-.8-15.9.4-4 16.2-16.4 19.2-20.6 2.1 3.9 9.5 10.8 11 14 1.8 3.8-1.3 28.2-1.5 34.4-.3 9-.7 18.1-1 27-.7 20.5-.6 41.1-1 61.5" class="fill" data-original-prefix="fill"/></g><g class="trait-group" data-category="mouth"><path id="fill-mouth-teeth10" fill="#fff" d="M1114 1651c-3.8-.4-4.7-3.2-5-6.4-1.4-14.4 1.7-35 2.1-50 .6-21.9 0-43.7 2-65.5 3.3.2 4.2 1.9 7.1-.4 6.2-5.1 13.2-22.1 19.9-28.8s2.8-2 3-1.8l-9.1 120.4-20 32.6Z" class="fill" data-original-prefix="fill"/></g><g class="trait-group" data-category="mouth"><path id="fill-mouth-teeth9" fill="#fff" d="M907.7 1499.3c7 6.2 13.8 23.9 20.3 29.2 2.9 2.4 3.8.6 7.1.4 1.5 10.5.6 21 1 31.5.7 20.9 1.5 42 2 63 .2 5.8 4.1 25-2.5 27.4-1.7.6-6.8-10-8.5-11.4l-12.9-21.1c-3.3-40.1-5.6-80.4-9-120.4 0 0 2.2 1 2.7 1.3h-.2Z" class="fill" data-original-prefix="fill"/></g><g class="trait-group" data-category="mouth"><path id="fill-mouth-teeth8" fill="#fff" d="M903 1601c-7.1-6.3-5.5-23.9-18-13l-17-142c10.4 12.2 19 26.1 28 39.5 1.9 38.5 3.8 77.1 7 115.5" class="fill" data-original-prefix="fill"/></g><g class="trait-group" data-category="mouth"><path id="fill-mouth-teeth7" fill="#fff" d="M1163 1588c-12.5-10.9-10.9 6.7-18 13l4-51.5 3.1-63.9c8.9-13.4 17.5-27.3 27.9-39.5l-17 142Z" class="fill" data-original-prefix="fill"/></g><g class="trait-group" data-category="mouth"><path id="fill-mouth-teeth6" fill="#fff" d="M963 1507c-.7 40.2 2 80.1 2 120.3-1.9 1.4-17.9 15-19 13.7.9-38.3-2.3-76.2-2-114.5l15.4-18.6z" class="fill" data-original-prefix="fill"/></g><g class="trait-group" data-category="mouth"><path id="fill-mouth-teeth5" fill="#fff" d="M1102 1641c-1.1 1.3-17.1-12.3-19-13.7.4-22.3.5-44.6 1-66.8 0-2.4 1-4.6 1.1-6.9.3-15.5-.3-31.1 0-46.5l3.6.9 15.4 18.6c.3 38.2-2.9 76.2-2 114.5Z" class="fill" data-original-prefix="fill"/></g><g class="trait-group" data-category="mouth"><path id="fill-mouth-teeth4" fill="#fff" d="M875 1581c-1.5.2-1.3-1.7-1.7-2.8-3-8.8-6.1-18.6-8.6-27.4-10.7-37.7-11.6-78.6-17.8-117.3 0-3.9 3-6.9 5.6-9.5 3.4 3.5 5.8 6.6 6.4 11.6 1.2 10.1 1 21.5 2.1 31.9 3.8 35.2 11.2 72.2 14 107 .2 2.2 0 4.3 0 6.5" class="fill" data-original-prefix="fill"/></g><g class="trait-group" data-category="mouth"><path id="fill-mouth-teeth3" fill="#fff" d="M1172 1580c6.3-40.6 11.8-81.6 16-122.5 1.2-11.5-1.6-25.4 7.5-33.5 2.6 2.6 5.7 5.5 5.6 9.5-7.6 47.5-8 99-26.1 144-.6 1.6-.8 2.9-3 2.5" class="fill" data-original-prefix="fill"/></g><g class="trait-group" data-category="mouth"><path id="fill-mouth-teeth2" fill="#fff" d="m843 1439 4 53-5.7-15.8c-1-7.8-7.5-23.8-4.4-30.8.5-1.1 2.9-4.1 3.8-5.2.6-.7 0-1.9 2.3-1.3Z" class="fill" data-original-prefix="fill"/></g><g class="trait-group" data-category="mouth"><path id="fill-mouth-teeth1" fill="#fff" d="M1207 1439c.3.3 4.7 7.3 4.8 7.7 1.3 4.9-3.4 23.5-5 29.5l-5.7 15.8 4-52.5c0-.9 1.9-.6 2-.5z" class="fill" data-original-prefix="fill"/></g><g class="trait-group" data-category="mouth"><path id="outline-shading-mouth4" fill="#000" d="m900 1319-56.5 57-14 16c-1.9 4.1 3.2 15.8 2.5 21 4.2-1.8 14.7-13.4 18.4-13.1 4 .3 8.8 14.9 10.3 18.8 2.5 6.3 4.5 12.8 6.8 19.2 18.7 24.5 38.6 48.2 57.4 72.6 3.8 5 3.2 9.2 10.1 7 3.2-1 13.7-10.2 17-13 10.5-9 19.8-20 30.5-28.6l41.1 41 41.9-41c13.1 10.8 24.4 24.6 38 35 3.2 2.5 10.4 9 14.5 6.5l61.8-79.2c3.6-6.3 11.7-36.7 16.9-38.2 4.6-1.3 17.3 14.1 19.3 11.9-.8-5.2 4.4-15.8 2.5-20-20.7-25.2-46.1-46.1-68-70-.7-.7-2.7-2-2-3 34.5 16.7 65.1 39.8 96 62 2.5 5.1-7.2 33.5-9.8 40.2-2.7 7.3-6.2 13.8-9.2 20.8-3.2 7.3-3.5 21.2-14.5 14l-8.5 50-2.5 1c-.2-19.8 1.9-39.7 4-59.4-2-4.9-6.9-13.6-8.8-3.8-4 21.5-4.5 48.2-7.4 70.6-3.6 28-8.2 56-12 84-2 14.9-3.3 16.2 1.9 31.4 1.3 3.8 7.2 14.6 7.4 16.7s-6.3 26.7-7.6 29.5c-2.4 5.5-34.3 27-41.2 30.8-23.5 12.8-65.3 23.2-92 27-44.3 6.3-112.7-12.8-149.7-38-4.2-2.9-22.5-15.7-24.1-18.9-1.2-2.3-7.8-28.2-7.7-30.4 0-2.1 7-16.2 8.3-20.7 4-13.7 2.7-13.4.9-26.4-7.5-52.8-15.1-105.5-20.4-158.6-2.2-5.2-7.7 4.9-7.9 7.8 2.1 19.4 4 39 4.1 58.5h-3l-8-51c-11.6 7.2-11.3-6.6-14.5-14-5.7-13.3-11.5-25.2-15.5-39.5-1.5-5.2-6.1-18.6-2.5-22.6 31.2-21.3 60.9-45.2 95.5-60.9zm-34.5 137v1c.7-.3.7-.7 0-1m315.5 1c-3.8 9.4-17.3 19.9-21.1 28.4-3.4 7.8-1.6 20.7-3.9 29.1l-3 60c.6 3 10.1 7.9 13.4 8.4zm-286.2 118.8c-1.8-29.7-2.2-59.6-6.1-89.1-7.3-9.7-14.3-20.1-22.7-28.8l14 125c6 0 10-4.5 14.8-7.2ZM995 1627c-.8-15.5-.4-31.1-1-46.5-.7-20.6-1.2-43.5-3-63.9-.3-3.6-.4-13.4-4.5-13.5-2.5 0-20 10.7-20.5 13.5 2.4 20.6 1.2 41.4 1.9 62 .2 6.2.6 13.8 1.1 19.9s3 12.8 2 19.5l5.4-5c1.5 2.2 17 15.7 18.6 14m82-10c-.8-6.9 1.6-13.7 2.1-20.4 1.1-17.4.3-35.7.9-53.1.3-8.7 2-18.1 2-26.9s-1-2.1-2-3c-2.2-1.8-17.3-10.9-19.3-10.4-2.9.7-3.4 7.6-3.7 10.4-3.3 35.8-2.8 74-4 110 0 1.4 0 2.9-1 4 5.2.7 17.8-14.1 19.5-14.5 2.3-.5 2.5 4.7 5.4 4Zm-146 17c-1.9-32.1-.2-64.4-2-96.5l-26-32.5c2.8 32.1 2.9 64.2 5 96.4 6.9 11.3 14.5 22.3 23 32.5Zm187 0 22-32.5c1.9-32.2 2-64.3 5-96.4l-26 32.5c-2 25.3-.4 50.7-1 76-.2 5.9-1.4 11.5-1 18 0 1.1-.7 2.8 1 2.5Zm-175 2c.8.8 16.4-9.7 17.5-11 .7-.8 1.5-1.4 1.4-2.6-.7-33.9-2.5-67.6-4-101.5-3.4 2.4-16.3 10.2-17 13.5-.2 33.9 0 67.8 2 101.5Zm101-115c-4.9 2.7-10.4 10.7-15.7 11.8-11.9 2.5-16.1-5.4-24.3-11.8 1.3 37.5 2.3 74.9 2 112.5.8 4 14.2 9.4 17.7 12.4 3.7-2.5 17.6-8.6 18.3-12.4-.2-37.6.2-75.1 2-112.5m61 115c1.6-33.8 2.3-67.6 2-101.5-.7-3.7-13.7-10.5-17-13.5-1.8 33.8-3.7 67.5-4 101.5.2 2.9 18.2 14.4 19 13.5m-167.3 18.7c-1 .9-2.6 1.5-4 1.2-3.8-1-23-30.3-27.3-35.8L895 1607c-.4 4.4-1.3 8.8-2.5 13-1.6 5.4-8.4 19.9-8.6 23.5 0 2.9 4.5 19.8 5.8 23.3.7 1.9 1 3.9 2.9 5.1 29 14.8 52.4 35.8 84.2 44.8 31.1 8.9 64.2 8.8 95.2-.2 31.6-9.2 55.5-30.5 84.3-45.4.8-.4.9-1.2 1.2-2 1.2-3 6.7-24.2 6.5-26.5-.3-3.3-5.8-13.4-7.3-17.8-1.8-5.8-3.1-11.8-4.2-17.8-2.2 3.1-5.1 5.6-7.5 8.5-8.8 10.8-17.2 26.4-26.1 35.9-1.6 1.8-3.2 3.6-5.6 4.3l-43.7-28.7c-4.3 3.6-8.6 8.8-13.3 11.7-8.2 5.1-15 6.1-23.4 13.6-2.3 2.1-3 5.8-6.5 6.5-8.1 1.6-7.3-2.8-11.5-6.4-7.2-6.1-10.9-7.5-18.9-11.1-6.3-2.8-12.3-10-17.6-14.4-12.8 7.9-26.2 15.6-38.3 24.5-1.3.9-1.6 2.5-2.3 3.1v.2Z" class="outline" data-original-prefix="shading" opacity=".2"/></g><g class="trait-group" data-category="mouth"><path id="outline-shading-mouth3" fill="#000" d="M1118 1345c-1.5 1.5-1.8-.6-2.3-1.3-1.8-2.3-6.1-7.1-7.1-8.8-1.8-3.2-.9-7.3-2.6-9.4-2-2.4-11.1-9.6-14.1-11.9-17.8-13.8-38.6-25.3-56-40-3.6-5.4 6-7.7 4.1-13.6.4-.4 8.3 1.9 9 2.5 1.9 1.6 0 5.2 2 7l68.4 49.6c2.9 2.8-.3 24.8-1.4 25.9" class="outline" data-original-prefix="shading" opacity=".2"/></g><g class="trait-group" data-category="mouth"><path id="outline-shading-mouth2" fill="#000" d="M1008 1260c-2.1 5.5 7.8 8.5 4.1 13.6l-61.1 43.9c-10.3 7.3-11.1 16.5-18.7 26.2-.5.7-.7 2.7-2.3 1.3-1.1-1-5.1-24.3-1-26.5l68-49c2-1.9 0-5.2 2-7 1-.9 8.7-2.9 9-2.5" class="outline" data-original-prefix="shading" opacity=".2"/></g><g class="trait-group" data-category="mouth"><path id="outline-shading-mouth1" fill="#000" d="M1011 1355c1.1 4.6-4.9 8.9-3.6 13 1.1 3.3 13.8 10.8 16.2 14.9 1.2.2 16.5-14.1 17-15.9 1-3.6-5.2-7.6-3.6-12 6.9-2.5 17.3 6.5 15.8 13.3-.8 3.8-7.8 10.3-10.8 13.2-6 5.9-6.9 4.1-10.8 12.2-1.9 3.9-5.9 3.9-9.8 3.3-5.8-.8-4.3-4.3-6.4-7.6-4.4-6.7-23.9-15.6-19.3-26.2 2.2-4.9 9.7-10.1 15.2-8.2Z" class="outline" data-original-prefix="shading" opacity=".2"/></g><g class="trait-group" data-category="mouth"><path id="outline-mouth" fill="#000" d="M1006 1260c.4-2.1 4.7-6.2 6.5-7 2.2-1 1.8 3.9 2.5 5l-.5 19c-9.8 6.8-19.7 13.6-29 21-10.5 8.4-26.4 21.1-35.5 30.4-3.6 3.7-.7 4.6 2.7 7.3 14.2 11.7 34.2 18.3 52.3 20.2 1.2 1.2-6.6 10.7-4.8 13.8l23.5 23.1c1.5.3 18.4-18.6 21.4-21.5.8-.8 2.6-1.3 2.8-1.6 1.8-3.1-6-12.7-4.8-13.8 18.1-1.9 38.1-8.5 52.3-20.2 3.3-2.8 6.3-3.7 2.7-7.3-9.1-9.4-25-22-35.6-30.4-9.3-7.4-19.2-14.2-29-21-1.1-1.8-.6-15.7-.5-19 0-1.1-.9-6 1.5-5 2.1.9 6.1 6.1 7.5 7-1.8 1-1 3.4-.5 5 3.8 10.3 55.3 44.8 67.4 54.6 1.8 1.5 8 6 8.6 7.4 2.3 5.4-.6 18.1-.5 24.5 0 4.3 3.4 17.4 1.1 20-1 1.1-12.4 6.6-15.3 8.7-15.1 10.7-26.8 28.3-34.7 44.8-1.5.4-1.7-.4-2.5-1-5.2-3.6-23.3-26.5-26.1-26.9-5.3 3.9-11.8 6.3-12.4 13.4-1.2 13 1 27.8 0 41.1l3.1 42.5 34.4-35.1 2.9-.9c13.6 15 26.1 31.3 40.1 46 1.3 1.4 9.3 10.1 10.5 9 3.5-11.2 11.6-21.6 18.2-31.3 19-27.8 40.6-53.8 59.3-81.7.8-.7.7-1.5 1.5-.4 7.1 9.4 13.4 20.9 20.5 30.4l17.6-43.4-157.1-108.6 2-3c36.8 19.5 75.4 39.4 110.9 61.6 21.2 13.3 40.5 29.5 61.9 42.6.6 1.1.2 2.9 0 4.2-.7 7.6-9.9 31.6-13.2 39.9s-7.1 16.1-11 24l-44.5 161.6c.4 12.4 9.3 27.7 9.8 39.7.3 6.8-1.7 25-3.2 31.9-.4 2.2-1.7 6.3-3 8-1.2 1.6-15.8 8.4-19.4 10.6-24.6 15-45.2 35.2-72.5 46.5-40.8 16.9-104 16.8-144.7-.3-27-11.3-47.4-31.4-71.8-46.2-3.6-2.2-18.2-9.1-19.4-10.6-1.3-1.7-2.6-5.8-3-8-1.4-6.9-3.5-25.1-3.2-31.9.6-12.2 9-27.1 9.8-39.7-13.1-46.2-25.7-92.7-39.3-138.8-2.2-7.3-3.2-16.5-5.7-23.3s-7.5-14.1-10.5-21.5c-5.5-13.7-9.1-28.1-14.2-41.9-.3-1.7 0-3.3 1.4-4.4 24.1-15.7 46.6-33.8 71.2-48.8 32.3-19.7 66.7-38.2 100.3-55.2l3 3-157.1 108.6 17.6 43.4c7.1-9.6 13.4-21 20.5-30.4.8-1.1.7-.3 1.5.4 18.8 27.9 40.3 53.9 59.3 81.7 6.6 9.7 14.7 20.2 18.2 31.3 1.2 1.1 9.2-7.6 10.5-9 14-14.6 26.5-30.9 40.1-46l2.9.9 34.4 35.1 3-42.5c-1-13.2 1.2-28.1 0-41.1-.7-7.1-7.1-9.5-12.4-13.4-2.8.5-21 23.4-26.1 26.9-.8.6-1 1.4-2.5 1-7.8-16.5-19.6-34.1-34.7-44.8-3-2.1-14.3-7.5-15.3-8.7-2.3-2.6 1-15.7 1.1-20 0-6.4-2.8-19.1-.5-24.5.6-1.5 6.8-5.9 8.6-7.4 11-9 62.9-44.3 66.1-52.9 1.1-2.8.4-4.5.8-6.7zm-131 321c0-2.1.2-4.3 0-6.5-2.8-34.8-10.2-71.8-14-107-1.1-10.4-.9-21.8-2.1-31.9-.6-5-3-8.1-6.4-11.6-2.6 2.6-5.7 5.5-5.6 9.5 6.2 38.7 7.2 79.6 17.8 117.3 2.5 8.9 5.6 18.7 8.6 27.4.4 1.1.2 3 1.7 2.8m297-1c2.2.4 2.4-1 3-2.5 18.1-45 18.6-96.5 26.1-144 0-3.9-3-6.9-5.6-9.5-9.1 8.1-6.3 22-7.5 33.5-4.2 40.9-9.7 81.9-16 122.5m-329-141c-2.3-.6-1.7.6-2.3 1.3-.9 1.1-3.3 4.1-3.8 5.2-3.1 7 3.3 23 4.4 30.8l5.7 15.8-4-53Zm364 0s-2.1-.4-2 .5l-4 52.5 5.7-15.8c1.6-5.9 6.4-24.5 5-29.5 0-.4-4.4-7.4-4.8-7.7zm-304 162c-3.2-38.4-5.1-76.9-7-115.5-8.9-13.4-17.5-27.3-28-39.5l17 142c12.5-10.9 10.9 6.7 18 13m260-13 17-142c-10.4 12.2-19 26.1-27.9 39.5l-3.1 63.9-4 51.5c7.1-6.3 5.5-23.9 18-13Zm-163 49c-.2-18.5.3-37 0-55.5-.2-20.4-1.3-41.5-2.1-61.9-.2-4.7 1.2-12.4.8-15.9-.5-4-16.2-16.4-19.2-20.6l-11 14c-.3 20.3 1.8 41.1 2.5 61.4s.6 41.1 1 61.5c2 .8 4.2-3.5 5-3 .2.2 1.2 4.1 3 4.5zm76-17c.4-20.5.2-41.1 1-61.5.3-8.9.7-18 1-27 .2-6.2 3.3-30.6 1.5-34.4-1.5-3.2-8.9-10.1-11-14-3 4.2-18.8 16.6-19.2 20.6-.4 3.5.9 11.2.8 15.9-.8 20.4-1.8 41.5-2.1 61.9-.2 18.5.2 37 0 55.5l20-15.5c1.8-.5 2.8-4.4 3-4.5.8-.5 3 3.8 5 3m-168.3-120.7c-.4-.4-2.6-1.5-2.7-1.3 3.4 40.1 5.8 80.3 9 120.4l12.9 21.1c1.7 1.4 6.8 12.1 8.5 11.4 6.6-2.4 2.7-21.7 2.5-27.4-.5-21-1.3-42.1-2-63-.4-10.5.5-21.1-1-31.5-3.3.2-4.2 1.9-7.1-.4-6.5-5.3-13.2-23-20.3-29.2h.2ZM1114 1651l20-32.6 9.1-120.4c-.2-.3-2.5 1.3-3 1.8-6.8 6.7-13.7 23.7-19.9 28.8-2.9 2.4-3.8.6-7.1.4-1.9 21.8-1.3 43.7-2 65.5-.4 15-3.5 35.6-2.1 50 .3 3.2 1.2 6 5 6.4Zm-151-144-3.6.9-15.4 18.6c-.3 38.2 2.9 76.2 2 114.5 1.1 1.3 17.1-12.3 19-13.7 0-40.2-2.7-80.1-2-120.3m139 134c-.9-38.3 2.3-76.2 2-114.5l-15.4-18.6-3.6-.9c-.3 15.5.4 31 0 46.5 0 2.4-1 4.6-1.1 6.9-.5 22.3-.6 44.6-1 66.8 1.9 1.4 17.9 15 19 13.7Zm-60-131-18.3 16.9-17.6-16.9c.7 44.6 3.8 88.9 4 133.5.4 2.5 12.5 11.2 13.7 11.4 1.4.2 13.8-8.9 14.3-11.4 1.3-6.8-.3-19.3 0-27 .4-11.5 1.2-23.4 2.1-34.9l1.9-71.5h-.1Zm-112.9 165.9-39.6-64.9c-2.7 4.3-15.7 16.7-16.5 20.5-.5 2.3 0 6.3 0 8.8.5 6.2 3.4 24.2 5.1 29.9 2.2 7.3 14 10.2 20.1 13.9 44.8 27.9 79.7 46.3 135.2 43.8 47.1-2.2 77.9-20 116.2-43.8 6.1-3.8 17.8-6.6 20.1-13.9 1.7-5.7 4.6-23.7 5.1-29.9.2-2.5.6-6.5 0-8.8-.7-3.8-13.8-16.2-16.5-20.5l-40.1 65.1-48.9-32.8-45.1 37.7-45.8-37.7c-6.8 2.2-46.8 34.1-49.4 32.6Z" data-original-prefix="outline" class="outline"/></g>
<g class="trait-group" data-category="eyes"><path id="fill-eyes" fill="#fff" d="M1337.7 1024.3c1.5.9 16.3 27.2 18.4 31.1 9.7 17.9 18.4 36.1 23.1 55.8.9 3.7 4.9 7.3-.6 11.5s-13.7 5.7-17.7 7.8c-9.3 4.9-18.6 9.9-27.5 15.5-1.2 42.7-11 81.2-47.2 106.8-43.1 30.5-110 44.9-161.5 32.9-13.7-3.2-24.1-9.2-39.1-3.9-11.8-10.4-26-18.9-37.7-29.3-7.2-6.4-13-14.8-20.5-20.5-2.7 1.3-6.1-.6-8.4.4s-13.7 15-17 18c-12.4 11.4-27.2 20.1-39.7 31.3-3.4.3-6.4-1.6-9.8-1.8-14-1.1-26.2 5.6-40.1 7.8-49.6 8.1-115.4-7.3-155.2-38.4-33-25.8-41.6-63-42.6-103.4-9.7-5.8-19.6-11.2-29.5-16.5s-18-6.5-18.9-12.2 2.6-4.6 3.6-7 .9-6.7 2.1-9.9c7.7-20.9 25.7-58.2 39.1-75.6s2.4-.4 3.1-1.3c18-23.8 37.3-50.3 58.9-70.8 140.3-133.5 334.8-143 483.5-16.5 25.5 21.7 43.5 44 64.5 69.5s10.4 15.7 12.5 17.5 3.2.6 4.2 1.3Z" class="fill" data-original-prefix="fill"/></g><g class="trait-group" data-category="eyes"><path id="outline-shading-eyes-2" fill="#000" d="M942 857c-12.1 12.3-28.7 18.2-42.9 27.6-24 15.9-46.8 43.3-62.9 67.1-5.4 7.9-23 36-24 44-1.9 15 19 44.3 30.9 52.7 15.5 11 44.6 22.3 62.6 32.4 17.3 9.7 34.5 19.9 50.9 31.1 14.4 19.1 24.9 49.3 40 66.9 6.5 7.6 13.5 4.7 18 8 1.1.8 4.3 7.4 5 9 1.1 2.8-.7 5.7 2.8 7.3 5.7 2.7 5.9-8.1 8.2-12.3 4.5-8.3 14.1-3.9 20.9-12.1 14.5-17.4 24.2-46.5 37.8-64.2 6.2-8.1 34-23 44.2-28.8 11.7-6.7 23.8-13 35.7-19.3 21-11.2 34.9-13.8 50.4-33.6 11.6-14.8 20.3-27.2 12.4-46.3-11.6-28.4-47.4-74.4-71.4-93.6-17.2-13.8-38.5-21-54.5-36 32.2 6.5 62.4 20.5 90.7 36.8 43.8 25.2 91.8 64.7 120.1 106.9 2.5 3.7 7.4 8.7 5.5 13.1-1.7 4-26.2 9.5-31.6 11.5-55.7 20.6-105.3 41.9-152.6 78.4-29.2 22.5-41.7 38.5-62.3 68.7-4.9 7.2-6.3 13.4-13.3 19.7-2.1 1.9-22 16.2-23.4 16.6-1.9.6-28.2.6-30.1 0-1.3-.4-19.7-13.4-21.9-15.1-8.5-7-9.6-13.4-15.3-21.7-18.6-27.1-30.9-43.6-56.9-64.1-49.4-38.9-99.1-60.6-157.6-82.4-5.5-2-29-7.5-31.3-10.6-2.9-4 2.2-9.9 4.6-13.5 27.4-39.9 72.4-78.4 113.8-103.2 30.1-18 63.1-33.9 97.7-40.8z" class="outline" data-original-prefix="shading" opacity=".2"/></g><g class="trait-group" data-category="eyes"><path id="outline-shading-eyes-1" fill="#000" d="M1376 1124c-.3.4-7.4 2.6-9 3.5-8.1 4.2-26.1 12.6-32.3 17.7-2.4 1.9-.9 4.2-2.2 5-26.3 9.1-58.4 13.3-83 25.8-28.2 14.3-61.1 41-85.2 61.8-16.4 14.2-30 16.1-47.8 26.2-9.8 5.6-17.8 14.5-27.8 19.3l-2.5-.6c-11.3-10.6-24.9-18.4-36.5-28.5-7.8-6.8-14.2-15.6-22.1-21.9-2.7 1.3-6.1-.6-8.4.4-1.4.6-15.2 16.5-18.6 19.5-11.8 10.6-25.7 18.9-37.5 29.5l-3.9 1.1c-11.7-6.7-22.5-15.3-34.3-21.8-10.7-5.8-26.2-10.7-35.6-17.4-5.4-3.9-11.8-11.6-17.6-16.4-25.2-20.7-60-47.9-90.7-58.3-21.3-7.2-43.6-12.1-65.1-18.7l-2.2-5-41.4-21.6 4.9-4.1 15.1-28.9h33c21.4 13 44.7 24.7 65.5 38.5 18.6 12.3 35.7 27.9 54.2 40.8 28.2 19.8 67.5 44.8 99 58 17.5 7.3 25.6 4.5 43.5.8 6-1.2 20.2-6.3 24.5-6.4 2.5 0 7.8 3.9 12.8 3.8 4.4 0 9.7-4.1 11.8-3.9 5.8.6 16.8 4.9 23.8 6.4s18.6 4.4 25.6 4.5c11.2.2 31.8-11.4 42.1-16.9 70-36.9 125.7-90.2 196.1-125.9l32.3.3c3 1.8 10.9 25.2 15.5 29.5 1 1 5.9 2.1 4.4 4h-.4Z" class="outline" data-original-prefix="shading" opacity=".2"/></g><g class="trait-group" data-category="eyes"><path id="outline-eyes6" fill="#000" d="M696 1136c.7 5.7-1.4 11.4-2 17-1.4 1.2-21.5-7.8-24.8-8.7-13.8-4-26.1 4.1-24.1-17.7 2.4-26.3 17.9-67.1 30.7-90.3 4.9-8.8 24.5-40.3 33.1-42.9 3.1-.9 7.2 1.5 8.9.5.4-.3 3.7-6.5 5.2-8.3 78.3-95.7 168.6-146.9 294.5-148.6 132.9-1.8 222.6 47.8 306.4 147.6 1.4 1.7 5.8 9 6.2 9.3 2.4 1.4 7-1.2 9.8-.4 7.6 2.1 25.6 30.2 30.2 37.9 13.9 23.7 31.8 69 33.8 96.2 1.6 20.6-11.3 13.1-24.2 16.8-2.5.7-4.5 2.5-6.8 3.2-5.8 1.8-11.9 2.9-17.5 5.5l-3.5-17c.2-.3-.2-1.8.2-2.3 3.6-4.4 22.6-10.5 23.3-11.7 4.5-6.8-6.4-31.1-9.7-38.4-3.9-8.8-9.1-18.8-13.7-27.3-2-3.7-15.9-28.3-17.4-29.1-.5-.3-10.8-1.3-12.3-1.3-8.7 0-25.2 1.8-34 3.1-7.3 1.1-14.2 4-21.5 5-.4-1.8.9-2.5 2-3.5 10.3-10 25.8-16.8 38.1-24.1-2.6-12.8-10.1-23.8-18.6-33.4-37.8-43-100.8-73.6-152.2-97.8-64.6-30.5-162.4-29.5-226.7 1-47.5 22.5-138.9 67.2-163.2 114.8-1.5 3-6.7 13.2-4.5 15.5 9 5.4 19.5 10 28 16.1 2 1.4 13.1 9.4 11.1 11.4-7.1-1.7-14.2-3.9-21.5-5-8.8-1.3-24.5-3.1-33-3.1s-7.8 2-11.8 1.1c-9.3 14.8-18.8 29.9-26.6 45.6-4.4 8.9-14.4 29.9-15.1 38.9-.2 2.4-.6 9.7 1 11 1 .8 4.9 1.5 6.7 2.3 5.2 2.4 14.7 5.6 15.3 11.2h.2Z" class="outline" data-original-prefix="outline"/></g><g class="trait-group" data-category="eyes"><path id="outline-eyes5" fill="#000" d="M1341 1142c2.8 5.1 2.2 12.1 3.3 18.2.6 3.1 4.6 17.2 4.5 18.1-.3 1.7-10.6 14.7-8.8 16.7 2.2 2.4 7.6-14.3 12-10.5 0 2 .2 4 0 6-.9 8-7.9 29.6-10.7 38.3-3.7 11.3-6.9 17.3-14.8 26.2-2.9 3.3-23.2 24.8-25.1 25.9-5.6 3.1-11.9 3.2-17.6 4.4-15.2 3.3-30.3 5.6-44.8 11.8-.2 1.8 2.2.9 3.2.7 5-.8 9-3.8 13.5-4.5 3.7-.6 10-1.1 13.8-1.2 3.2-.2 8-.4 11 0 5.7.7-3.1 3.3-4.2 3.8-11 5.4-26.6 14.2-38.1 16.9-19.5 4.5-69.6 7.3-88.5 3-7.3-1.6-22.2-17.8-29.8-23.2-3.2-2.3-11.1-7.6-14.4-8.6-4.2-1.2 1.3 9.2.5 10-14.9 1.2-22.3-6.1-30.5-17.1-.7-1-.3-2.6-.5-2.9 4.9-2.4 4.6-9.9 4-14.5-1.3-10.2-15.3-17.8-22-24.5 20.5 3.6 41 15.9 62.4 13.9 44.4-4.3 63.1-31.3 96.7-55.3 34.7-24.8 71.6-39.6 112.9-50.1 3.4-.9 9.1-.5 12.1-1.4Z" class="outline" data-original-prefix="outline"/></g><g class="trait-group" data-category="eyes"><path id="outline-eyes4" fill="#000" d="M707 1142c4 1.2 11.2 1 16.2 2.3 37.9 9.8 74 24.5 106.1 46.9 34.5 24.2 55.2 53.3 100.3 57.7 20.5 2 42.9-9.6 62.4-14.9.5 2.2-1.2 2.2-2.3 3.2-10.7 9.9-22.4 13.2-19.7 31.2.5 3.4 2.3 3.4 2.9 4.6.5.9 1 2.9.5 4-.6 1.4-13 13.6-14.6 14.5-2 1-14.9 3.5-15.9 2.6l2-9c-2.5-2.4-17.2 8.6-19.9 10.6-6.5 4.9-19.3 18.9-25.8 20.2-20.4 4-67.9 1.8-88.5-3-12.1-2.8-26.8-11.3-38.1-16.9-1.1-.5-9.9-3.1-4.2-3.8 3-.4 7.8 0 11 0 3.8.2 10.1.7 13.8 1.2 4.6.7 8.5 3.7 13.5 4.5 1.1.2 3.5 1.1 3.2-.7-5.7-1.6-11.1-4.2-16.8-5.7-12.7-3.5-35.4-4.8-45.6-10.4-3.5-1.9-29.8-30.3-32.5-34.6-3.8-5.9-6.3-13.8-8.5-20.5-2.5-8.1-10.3-32.3-10.7-39.3-.2-3.1.9-3.6 4-2 1.5.7 5.9 8.5 7.4 10.6.4.5 1.1 3.7 2.6 1.9 1.6-1.9-9.6-16.9-9.8-18.6-.2-1.6 3.8-15.6 4.5-19.2 1-5.7 1.2-11.5 2.3-17.2z" class="outline" data-original-prefix="outline"/></g><g class="trait-group" data-category="eyes"><path id="outline-eyes3" fill="#000" d="M998 1254c1.7-6.8 7.8-11.9 11.4-18.1 4.8-8.4 10-20.3 7.6-29.9 6 1.8 8.5 2.6 14.5 0-1.3 11.8 3.9 24 10.3 33.7 4.4 6.7 5.8 7.8 9.2 15.3-3.3 0-4 4.3-7 4-4-7.2-11-10.3-15.9-17.6-.9-1.3-.8-4.1-1.7-4.4-5.5-1.6-6 5.6-9.4 9.5-3.8 4.4-11.3 6.9-12 12.5-1.4 1.3-5.2-4.4-7-5" class="outline" data-original-prefix="outline"/></g><g class="trait-group" data-category="eyes"><path id="outline-eyes2" fill="#000" d="M981 1184c-1.9.4-2.4-1-3.4-2.1-13.3-14.7-23-34.8-35.1-47.9-22.5-24.4-60.9-45.3-87.4-65.6-1.2-.9-9.5-7-8.1-8.4 16.5 4.3 29.6 16 44.3 24.2 19.2 10.7 39.3 20 58.6 30.4 5.3 6 8.9 13.4 12.2 20.8 7.2 15.8 12.7 32.5 18.8 48.7h.1Z" class="outline" data-original-prefix="outline"/></g><g class="trait-group" data-category="eyes"><path id="outline-eyes1" fill="#000" d="M1202 1060c.4 1.8-.9 2.5-2 3.5-7.4 7.2-18.8 12.6-27.3 18.7-19.4 13.7-51 35.4-66.7 52.3-10.2 10.9-18.1 30.5-29.4 41.6l-8.5 8c6.1-16.2 11.6-32.9 18.8-48.7 2.4-5.2 7.3-16.6 11.2-19.8 22.4-12.8 46.4-23.4 68.7-36.3 11.5-6.6 21.7-16.7 35.3-19.2Z" class="outline" data-original-prefix="outline"/></g>
<g class="trait-group" data-category="right ear"><path id="fill-ear-rt" fill="#fff" d="M1463.9 815.1c-1.1-.7-8-.2-9.6.6-.7.3-10 9.7-11.1 10.9-6.2 7.2-20.7 26.1-25 34-4.6 8.5-7.7 20-12 29-17.8 36.8-49.6 57.6-83.3 78.7-7.6 4.8-29.5 17.5-37.9 16.2-7-1.1-34.8-11.7-42-15.1-21.9-10.4-41.9-30.6-57.5-48.5-3.2-3.6-15.1-14.9-15.5-18.6-.3-3.2 3.6-17.9 4.7-22.2 8.4-34.6 26.4-65.8 37.6-99.4 7.8-23.5 15.9-52.5 21.2-76.8 12.6-56.9 6.2-116.2 18.8-173.2 6.5-29.5 44.6-53.4 68.8-69.2 18.9-12.3 68.6-41.2 89.5-43.5 15.6-1.7 55.8 8.9 72.8 13 32.2 7.7 82.2 19.7 108.9 38.1 28.8 19.8 56.1 41.5 79.2 67.8 28.8 32.7 32.2 44.2 17.2 86.3-24.8 69.4-61.7 123.7-101.8 184.2-17.7 26.7-44.5 75.8-67.1 95.9-5.7 5-12.1 7.7-19.2 3.5-6.7-4-7.2-14.3-9.9-21.1-5.9-15.2-13.1-29.9-18.8-45.2-1.4-3.7-7-24.7-8.1-25.4Z" class="fill" data-original-prefix="fill"/></g><g class="trait-group" data-category="right ear"><path id="outline-shading-ear-rt" fill="#000" d="M1693 608c1 1-4.3 15.7-5.2 18.2-24.8 67.4-59.8 119.2-98.8 178.2-21.9 33.2-41.9 67.9-68 98.1-1 .6-21.9-3.9-22.8-4.8-6.2-16-12.7-32-18.2-48.3-2.8-8.2-5.2-22.3-8.8-29.2-6.7-12.9-25.5-1.8-31.6 6.8L1375 927.4c-15.2 15.6-73.2 61.5-94 58.1-27.4-10.3-54.4-22.9-76-43.1-7.2-6.8-11-13.5-16.6-21.4-1.2-1.8-4.3-3.7-4.9-5.1-2-4.3 2-12.6 4.7-16.3 58.6-63.6 106.8-135.2 139.3-215.7 2.7-6.6 6.2-14.1 8.2-20.8 12.4-39.6 1.6-77.7 5.3-117.7.1-1.6 1-7.4 1.9-8.1 36-.7 71.8-5 107.1 5.1 4.8 4.7-.7 11.5 1.5 16.5.9 1.9 19.3 19.7 22.5 22.5 22.5 20.7 50.8 41.6 76.3 58.7 18.7 12.6 25.8 21.5 49.7 12.2 27.4-10.6 54.6-28.2 81.7-40.3 1.6-.7 10.7-4.9 11.3-4.1Zm-243.1 187.9c.7-1.2-.2-3.3-.7-4.6-1.1-3.3-15.2-30.7-16.9-31.2-14.9 4.2-27.9.2-41.7 8.1-20.9 12-39.7 56.6-52.5 78.5-13.9 23.7-28.5 47-45.2 68.8-10.3 13.5-11.2 12-16.5 29.5-2.2 7.2-4 14.6-5.5 22 .7.7 7-4.7 8-5.5 19.1-15.9 39.4-37.3 56.5-55.5 15.3-16.3 30.8-30.3 38.5-51.5 3.8-10.5 6.9-31.8 15-38 7.4-5.8 26.8-8.1 36.8-11.2 3.2-1 23.3-8.1 24.1-9.4Z" class="outline" data-original-prefix="shading" opacity=".2"/></g><g class="trait-group" data-category="right ear"><path id="outline-ear-rt" fill="#000" d="M1204 941c-.3 1.7-3.1-.2-3.9-.6-7.2-3.8-17.7-9-23.1-14.9-11.1-12.2-18.6-30.8-29.5-43.5-1.1-2.6-.7-7.5-.5-10.5.9-20.2 13.6-36 21.8-54.2 9.5-20.7 16.6-37.4 27.3-57.7 35.2-66.4 43.6-127.5 46.8-202.2.5-10.7-2-36.2 1.5-44.5 1.4-3.3 13-13.4 16.5-16.5 21.7-19 49.4-37.3 73.5-53.5 14-9.4 50.3-35.6 64.1-39.9 42.4-13.3 127.4 18.5 168.4 35.5 32.1 13.3 72.4 28.4 93.2 56.8 15.6 21.2 47 74.4 50.6 99.5 1 7.4-8.7 31.3-11.8 39.8-35.5 98.7-94.4 215.4-170.5 288.5-7.1 6.9-19.8 19.2-27.6 24.4-1.1.8-9.4 5.2-9.9 4.6-1.7-24.9-6.5-50.8-13.7-74.8-1.4-4.7-3.2-9.4-5.1-13.9-1.9-4.4-15.5-30-19.5-29.2-6.2 1.1-28.3 40-31.8 47.2-5 10.4-7.9 21.5-12.3 31.7-5.6 12.7-20.1 19.7-30.5 28.5-11.3 9.6-20.6 22.3-32.7 30.3-10.6 7-40.6 20.7-52.8 20.2-11.7-.4-41.3-16.4-51.5-23 8.6.3 16.8 5 25.6 5.9 37.8 3.8 59.7-18.4 86.4-41.4 21.6-18.5 29.3-31.5 42.5-56.5 8.9-16.8 16.4-34.2 23-52l26.6-18.7-60.6-103.4c-1.9 2-1.5 4.5-3 7-3.9 6.4-17.6 18.5-23.4 25.6-34.1 41.1-71.2 101.1-93.2 149.8-10 22.1-22.8 52.5-10.8 75.7-1.4.3-2.4-.2-3.7-.8-4.5-1.9-23.8-17.8-25.1-21.9-1.9-6.1 3.5-21.4 1.9-28.7 12.2-19.5 26.9-37.6 38.1-57.9 24.5-44.3 42-94.9 71.4-136.6 6-8.5 14.6-15.7 20.8-24.2 4.8-6.4 10.9-14.3 10.6-22.4-.7-14.4-5.8-30.2-6.9-44.1-.2-2.2-.4-4.6 0-6.8.7-4 11.7-17.3 14.8-22.2 8.2-13.4 22.4-40.6 6.2-52.8-12.2-9.3-28.9 1.5-42 2.5-1-12.5 18.7-18.5 28.5-22 25.7-9.4 40-10.3 66.3-2.2 5.3 1.6 28 8.1 26.1 15.6-.4 1.7-9.4 6.6-11.8 8.3-20.8 15.2-37.8 32.8-50.6 55.4-3.8 6.6-13.3 26.5-13.1 33.4.2 5.3 6.5 22.2 8.6 28.2 8.4 23.3 20.3 47.1 34.8 67.2 5.7 7.9 14.6 16.1 19.4 23.6 6.2 9.6 11.6 26.1 16.9 37 15.2 31.3 30.8 62.3 43 95 1.7 1.2 2.3 6.8 4.3 6.6 9-.9 29.9-27.5 35.9-35.1 49.7-62.8 110.8-167 129.1-244.9 2.2-9.3 5.9-23.2 2-32-5.7-13.1-34.2-49.7-44.6-61.4-47.2-53.1-148.3-76.6-216.4-84.6-41 14.3-80 35-114 62.1-6.3 5-26.1 21-29 27-14.1 28.2-19.5 95.6-22.5 128.5-2.4 27.1-.3 58.6-10.8 83.2-7.8 18.2-18.3 36.1-26.3 54.7-14.2 32.7-25.5 66.6-39.8 99.2-2 14 18.3 43.4 27.9 53.4Z" class="outline" data-original-prefix="outline"/></g>
<g class="trait-group" data-category="left ear"><path id="fill-ear-lft" fill="#fff" d="M326.7 182.1q1.65-.45 3.3.3l180.7 78.4c55.2 39.7 111.9 77.8 165.3 119.7l109 135.9c10.5 65.4 16 132 25.2 197.8 24.6 50.1 52.6 98.7 77.3 148.7 1.5 3.1 5.4 9.5 5.5 12.5.2 4.7-8.5 15.9-11.2 20.8-15.1 27.1-18.8 33.2-43.9 52.1-22.9 17.2-44.3 28.5-72.5 35.5-8 2-18.1 5.7-25.3.5l-82.9-79.1c-9.9-22-17.5-45.3-28.1-66.9l-154-109c-23.7-34.4-41.7-73.1-64.9-108.1-9.8-43.7-27.6-90.2-34.9-134.1-5.9-35.7-6.9-73.6-12.5-109.5-9.3-20.9-22.7-40-30.5-61.5-1-40.6-6.8-81.2-8.3-121.7-.1-3.4-1.1-11.4 2.8-12.4Z" class="fill" data-original-prefix="fill"/></g><g class="trait-group" data-category="left ear"><path id="outline-shading-ear-lft" fill="#000" d="M664 558v21.5c0 22.8 19.2 43.4 30.4 61.6 38.9 63.4 63.1 129 108.2 189.8 16.2 21.8 35 41.1 51.9 62.1 4.8 5.9 9.3 10.3 9.5 18.5.2 6.2-2 12.6-1.1 19l-.9 2.1-60.1 40.9c-13.7.2-28.1 9.9-40.7 12.4-1.5.3-2.8.5-4.2-.3l-76.6-51.4-69.8-109.7c-33.8-23.4-81.3-39.6-107.2-72.3-4.2-5.3-6.4-12.2-10.5-17.5.3-1.1 2.2-.4 3 0 7.1 2.9 21.5 16.6 29.2 21.8 23.5 15.5 51.4 30.4 77.3 41.7 17.3 7.5 35 10.9 52.9 16.1 7 15.4 12.9 31.5 20.2 46.8 8 16.6 27 35.1 40.2 48.8 19 20 39 39.1 59.5 57.5 1.5.2 1.8 0 1.4-1.4-1.9-7.7-7.7-31.2-11.1-36.9-4.7-7.9-16.1-19.2-22.2-27.8-25.1-34.9-42.3-72.5-64.4-108.6-7.4-12-9.8-16-22.8-22.2-38.1-18-78.4-19.1-114.3-41.7-26.9-17-34.3-26.3-51.1-52.9-25.7-40.5-46.4-86-61.2-131.8-4.2-12.9-10.9-32.4-12.7-45.3 0-.6-.3-1.6.5-1.5 14 25.4 25.6 52.8 42.1 76.9 5.6 8.2 12.9 19.9 23.4 21.1-.5-2.4 1.1-5.1.8-7.3-1.4-11-12.7-28.8-16.3-39.8-3.8-11.7 2.7-30.6 3.5-43.5 3.6-59-24.7-121.5-55.6-170.4-12.4-19.7-28.5-37.1-37.4-59.1h16.5c8.6 0 8.7 2.4 14.2 5.8 15.3 9.7 32.5 17.5 48 27 30.2 18.6 67.2 68.2 84.5 99.5 2.9 5.2 12 22.4 12.8 27.2.9 5.4-.9 10.1-1 14.9-.8 41.5 1.8 83.9 11.9 124.2 3.2 12.9 5.4 24.4 15.1 33.9 1.4 1.4 2.9 3.8 4.5 1.5l24.5-44.5 55-6.5Z" class="outline" data-original-prefix="shading" opacity=".2"/></g><g class="trait-group" data-category="left ear"><path id="outline-ear-lft1" fill="#000" d="M846 941c15.6-16.5 32.2-43.8 28.9-67.4-.7-5.3-12.9-37-15.7-43.3-4.9-10.8-13.5-22.9-19.1-33.9-13.3-26.2-23.6-54-36.6-80.4-11.5-63.5-8.3-129.6-22.2-192.8-17.8-27.6-39.3-55.2-60.3-80.7-38.8-47.2-78.4-82.8-129.5-116.5-44.3-29.2-93.1-59.2-139.9-84.1-38.9-20.7-78.7-40.3-120.7-53.8-2.4 25.4-1 51.1 2.1 76.4 1.6 12.7 3.6 27.3 6.1 39.9 4 19.6 14 30.2 20.7 48.3 12.6 33.6 20.1 76.2 22 112 1 17.6-.2 29.6 3.5 47.6C403.7 602 448.2 693 517.8 753.8c34 29.7 77.1 43.1 110.3 69.7 7.8 6.3 4 4.9 5.1 11.8 1.6 9.9 18.8 46.7 24.6 56.2 15.7 25.7 53.2 60.5 79.7 75.5 24 13.7 44.9 12.6 70.3 2.2-1 4.2-9.1 7.7-13 9.5-10.8 5-38.1 16.1-49 17.1-3 .3-21.2-3.2-23.6-4.5-4.8-2.8-25.5-24.8-31.5-30.5-6.5-6.3-12.2-13.3-19.5-19.5-10.3-8.7-24.4-15.4-30-28-10.2-23.4-16-42.1-31.1-63.9-13.3-19.2-23.3-19.4-42.1-29.9-54.1-30.4-101.8-71.4-134.8-124.2-34.3-55.1-65.6-124.7-77.1-188.9-2.5-13.8 1.9-13.4 4.1-25 4.4-23.5-6.2-86.5-16-109-4.4-10.1-16.6-21.1-20-29s-5.6-30.1-6.5-39.5c-3.2-33.3-7.5-84.6-2.9-116.9.4-2.5 3.3-15.8 4.5-16.7 3-2.2 17.1 1.6 21.4 2.6 42 9.3 96.2 32.3 135.7 50.3 50.6 23.2 121.1 61.1 164.2 95.8 15.1 12.1 34.1 34.5 47.6 49.4 42 46.4 79.2 96.7 114.9 148.1 8.9 76.3 3.1 178.6 48.8 244.2 2.9 4.1 7.4 7.9 10 12 7.1 11.1 12.9 32 19 45 8.4 18.2 20.9 33.8 21.8 54.2.1 3 .5 7.8-.5 10.5-17.1 21.9-26.4 52.1-56.5 59Z" class="outline" data-original-prefix="outline"/></g><g class="trait-group" data-category="left ear"><path id="outline-ear-lft2" fill="#000" d="M672 548c1 1.1-9.1 24.9-9.8 28.7-3.4 19.9 9.7 77.8 18.9 96.6 8.1 16.7 18.9 24.3 29.3 37.7 6 7.7 12.2 19.9 17.4 28.6 28.7 47.7 46.4 98.9 78 145 4 5.8 13.4 15.9 15.8 21.2 1.5 3.3 3.4 23.6 3.5 28.6.2 6.5-4.7 9.9-9.1 14-2.2 2-18.3 15.2-20 13.5.6-4.8 4.2-9.9 4.9-14.6 3.5-25.1-14.9-60.6-26.4-82.4-4.9 13.5-9.7 27.4-13.8 41.2-1.8 6.3-7.7 23-7.7 28.4s7.6 4.8 7 10.3c-15.2-4.4-28.5-12.5-41.5-21-2.2-2.1 0-8 .8-11.2 4.1-17.3 11.7-34.5 14.7-52.3-.2-2.6-21.2-17.3-24.5-20.5 1 13.8 3.6 27.7 4.5 41.5.3 4.3-.2 8.7 0 13 .2 4.5 4.1 23.3-5 21-2.3-.6-20.4-11.5-22.5-13.5-4.2-3.9-8.2-11.2-12.4-15.6-2.5-2.5-13.6-10.6-14.1-12.9-.3-1.6-.3-5 .5-6.5 9.7 5.3 18.8 11.2 27.5 18-.7-19-1.6-39.6-5.3-58.2-.4-1.9-.8-5.8-1.6-7.1-1-1.6-5.1-1-4.1-3.2s12.4-6.1 15.3-5.3l38.7 28.3-39-100.5c-2.6-.3-1.6 0-2 1.5-4.1 17.4-8.7 36.8-11.7 54.3-2.2 12.7-4 25.3-3.3 38.2-8.7-4.1-17.9-7.7-26.3-12.1-2.7-1.4-18.9-10.1-19.7-11.3-1.8-2.5-.1-5.4-1.8-8.2-1.1-1.7-10.3-6.9-13.6-10.4-24.8-26.3-42.5-56.6-72.5-79.5-1.9-1.4-9.4-3.2-6.3-6.6 4.4-5 15.9-9.9 21.4-14.4-2.3-1.5-3.7-4.5-5.3-6.2-.9-1-3-.9-4.2-2.3-2.5-2.8-8.3-37.9-10-45-1.9-8.1-4.5-16-6.5-24l-18.1 62.5c0 2.9 13.6 7.3 16.1 10 .9.9 1.6 2.5 1 3.5-.5.7-13.8 6.2-15.4 6-1.5 0-23.1-12.3-25.9-14.2-13.3-8.9-12.4-19.7-18.8-33.2-4.7-9.9-10.1-18.5-19-25-2.6-2-15-8.5-15.7-9.8-1.3-2.2 5.5-27.8 6.5-32.6 6.1-29.7 11.1-59.4 13.4-89.7.4-4.9-1.7-12 1.1-16.8 1.6-2.8 42.3-16.6 47.8-21.3-3.5-18.9-8.8-37.1-17-54.4-1.6-1.2-24.6 26.6-26.4 29.1-2.8 3.9-6.6 9.1-6.6 13.9-14.4-3-21.6-16.8-31-26.5-1-1-1.3-1.9-3-1.5l1 83.5c.2.8 11.7 11.3 12.6 11.5 2.6.6 4-6.3 4.9-8 6.9 7.4 6.4 11.1 5.5 20.5-.5 4.8-3.1 23.4-5.5 26.5-2.5 3.2-5.5-1.9-7.6-3.4-13-9.3-26.4-18.2-39.4-27.6-3.6-5.5-2.7-18.8-2.6-25.5.5-27.5 1.3-54.3-1-82-.7-8.5-1.5-23-3.2-30.8-.4-2-5.7-7.9-4.8-8.7 3.8 1.1 9.7.3 13 1.5s22.1 18.3 26 22c3.1 2.9 7 10.5 11.4 9.6l24.3-37.6c0-2.1-17-24.8-19.7-28-2-2.3-12.7-13.8-14.5-14.5-2-.9-2.4 3.5-2.5 4.5-.7 7.8-2.9 28.6-2 35.1.4 3.2 9.1 15.4 8 16.4-1.7.3-2.6-.8-3.9-1.6-9.2-5.6-23.4-19.3-30.1-27.9-1.5-1.9-4.3-5.4-3.9-7.7.3-1.4 7.7-12.2 9.3-15.8 2-4.5 9.4-24.6 8.6-28.3l-26-18.2-22-38.5c3.2-2.9 26 18.3 29.7 20.8 6.7 4.5 14.8 6.9 21.2 11.8 10.2 7.8 21.9 22.1 31.6 31.4 33.1 32 56.9 54.1 79 95.9 3.8 7.1 20.1 40.7 20.3 46.5.3 8.1-5.4 26-6.7 35.2-7.5 53.5-.4 104.9 26.7 152 5.6 9.8 22.5 33.9 35.2 21.9 5.1-4.9 9.1-31 11.5-39.5 1.8-6.4 9-30.9 12-35 2.3-3.1 13.2-9.4 17.2-11.8 12.5-7.8 25.9-15 39.3-21.2ZM448 424c7.3-13.8 19.7-25.6 30.5-37 1.6-3.1-1.2-5.8-3-8-3.3-.8-29.7 32.1-33 37.1-1.8 2 4.2 8.9 5.5 7.9m-37 68c-.5-29.8-1.4-59.6-1-89.5-3-5.5-7.6-10-12-14.5 4.1 32.6 5.7 65.4 5 98.3zm95-14c-10.4 1.8-20.4 6.6-29 12.7 0 29.3-2 58.6-6.1 87.7-1.6 11.1-4 22.1-5.9 33.2.1 2.8 7.5 8 10.1 11 .9 1 5.4 8 6 7.5 9.7-25.4 12.4-52.4 19-78.6 1.7-6-6.7-9.4-6-14.8.2-1.8 5.7-10.4 7-14.1 1.5-4 5-16.3 5-20v-24.5Zm9 93c-.5-.5-2.5-.2-2.1 1.4-4.8 25.6-9.3 51.4-19.7 75.4-.4 4.1 7.2 11.5 7.8 16.2 1.5-.1 1.5-1.5 1.9-2.5 8.1-20.9 11.3-47.5 19-69.1.4-2.8-6-20.4-7-21.4Zm136 123 7.7-39.4c-5.2-18.4-13.7-53.2-34.5-22.9-3.8 5.5-10.2 15.2-6.6 21.3 7.5 12.8 22.6 26.3 30.5 39.5l3 1.5Zm-18 90c4.9-18.2 8.8-36.7 11.7-55.4-10.5-17-21-34.2-33.7-49.6-1 13.6 3.3 27.5 8.5 40 2.5 5.8 6 11.2 8.5 17-17.8-6.2-33.6-18-49.7-27.9-2.3-.2-7.5 8.7-8.2 11.2 20.2 22.3 39.2 45.8 62.8 64.6Zm16.2 30.9c4.4.8 9.3 5.4 12.9 6.7 3.2 1.2 1.8-11.6 2-14 2.8-27.6 12.7-55.6 17-83.1-.1-4.1-8-9-10.5-12.4l-21.3 102.8ZM751 822c1.1-1.5-16.4-28.7-18.8-31.7-1-1.2-1.1-2.7-3.2-2.3l15 36zm-8 108c4.6-26.5 14.7-52.1 22.8-77.8.7-3 .1-6.2-2.3-8.2l-24.3 82.8c-.6 2.8 1.4 3.6 3.8 3.2" class="outline" data-original-prefix="outline"/></g>
<g class="trait-group" data-category="head">
  </g><g class="trait-group" data-category="head"><!-- Generator: Adobe Illustrator 29.1.0, SVG Export Plug-In . SVG Version: 2.1.0 Build 142)  --></g><g class="trait-group" data-category="head">
  </g><g class="trait-group" data-category="head"><defs>
    
  </defs></g><g class="trait-group" data-category="head">
  </g><g class="trait-group" data-category="head"><path id="fill-head" class="fill" d="M1533.2,1668.8c-.2-8.7-.3-17.6-.7-26.4-1.5-30.4-3.1-56.9-5-81.1-3-39-8.1-55.6-23-89-.3-.7-1-2.1-2-4-1.1-2.1-3-5.8-4.4-8.8l66.9,30.3-5.9-7.8c-22.2-29.2-44.7-61.2-59.8-97.3-15.5-36.9-30.1-78.6-41.8-112-1.9-5.4-3.9-11-6.1-17-8-22.1-17-47.1-21.4-68.1,4,2.6,10.9,8,15,11.2,1.4,1.1,2.6,2.1,3.5,2.8,4,3.1,7.9,6.3,11.8,9.5,5.2,4.3,10.5,8.7,16.1,12.8l29.7,19.4-2.6-7.1c-15.7-42.4-42.9-83.2-85.4-128,1.9.8,3.8,1.6,5.6,2.3,6.2,2.5,12,4.8,16.8,9l.6.5,37.4,4.9-4.4-5c-33.7-38-62.6-76.4-86.2-114.2-1.8-2.9-4.8-8.5-8.4-14.9-9.9-18.1-17.2-31.1-20.8-34-5.4-4.4-13.6-8.9-21.4-13.1-4.7-2.5-9.1-4.9-12.7-7.2-41.8-26.2-87.9-60.5-140.8-104.7-1.7-1.4-4.1-3.8-6.7-6.3-5.2-5.1-10.6-10.4-14-12-8.2-3.6-29.3-5.8-41.9-7.2-1.6-.2-3.1-.3-4.3-.5-65.5-7.3-140.8-6.6-201.4,2-1.5.2-3.2.4-5.2.7-8.3,1.1-18.6,2.4-24.3,4.6-3.8,1.5-9.3,6.9-14.7,12.1-2.4,2.4-4.7,4.6-6.3,6-65,53.9-121.3,94.4-177.2,127.3l-.6.4-.3.6c-30.1,56.3-68,110.3-112.6,160.5l-4.5,5,37.4-4.9.5-.4c6.5-5.1,14.4-8.5,22.4-11.5-4.1,4.7-8.3,9.4-12.4,13.9-11.6,12.9-23.6,26.3-33.8,40.9-14.7,21-28.2,45.8-40,73.7l-2.7,6.3,6.1-3.2c14.9-7.6,28-18.4,40.6-28.9,9.2-7.6,18.8-15.5,28.8-22,.2,0,.4-.3.7-.5-7,28.2-16.9,56.3-26.4,83.6l-.3.7c-11.7,33.5-26.3,75.1-41.8,112-15.1,36.1-37.7,68.1-59.9,97.3l-6,7.8,66.9-30.3c-1.4,3-3.3,6.7-4.4,8.8-1,1.9-1.7,3.2-2,4-14.9,33.4-20,50.1-23,89-1.9,24.2-3.5,50.7-5,81.1-.4,8.8-.6,17.8-.7,26.5-.2,11.5-.4,23.4-1.3,35l-1,14.2,29.7-66.1v-.3c1-5.8,1.8-11.7,2.7-17.4,5.9-39.2,11.9-79.8,31.8-113.9,0-.2.3-.6.5-.9l.3-.6-29.7,118.8,35.8-65.9c3.7-4.2,7.4-8.9,11.2-13.9,6.7-8.7,13.7-17.7,21.2-24-.6,6.7-1.3,13.5-2,20.1-4.2,40.6-8.5,82.7,6.5,121.7l9.2,20.5,1.6-7.4c1.8-8,2.6-16.2,3.4-24.1,1-9.3,1.9-19,4.5-28.2l18.6-41.9c.8,0,1.2,0,1.3,0,1.1,1.2-.8,7.7-1.5,9.8-.2.8-.4,1.4-.6,2.1-1.8,6.4-4.1,12.8-6.3,19-3.6,10.1-7.4,20.6-9.2,31.9-2.4,15.4-4.3,48.5-2.1,62.6.3,2.1,2.3,6.3,4.8,11.5.6,1.2,1.1,2.3,1.5,3.1,10,22.1,21.8,44.2,33.1,65.7,6.6,12.5,13.5,25.4,19.8,38.1l.6,1.2,1.3.2c1.5.2,2.5-.5,2.9-.9,1.3-1.3,1.1-3.1,1-4.3v-.7c.6-17.4.6-34.9.5-51.9,0-27.1,0-55,2.5-82.9,2.2-24.1,6.6-46.7,12.7-66.2,3.8,34.9,8.7,71.3,18.4,105.6,8.2,28.9,22.8,47,40.9,67.6,17.3,19.6,38.6,41.6,65.2,56l4.9,2.6-1.2-5.4c-2.7-11.8-4.5-21.3-5.8-30-11.6-80.9-2.6-114.4,3.8-127.2s3.7-6.3,6-9.5c.6-.9,1.3-1.8,1.9-2.7.7,4,1.3,8,1.8,12,1.2,8.1,2.3,16.4,4.7,24.4,7.4,24.6,27.6,46.2,48.4,65.9l4.3,4.1v-9.8c-.4-26.5-.6-53.9,8.4-79.2l.4-1.1-.6-1c-.7-1.1-2-1.9-11.5-6.9-7.1-3.8-17.9-9.5-20.4-12-3.6-3.6-6.2-10.7-8.7-17.5-2.3-6.3-4.7-12.8-8.1-17.3-4.8-6.2-11.7-7.9-18.5-9.6-8.8-2.1-17.2-4.1-22.4-15.8-.6-1.4-1.1-3.2-1.5-4.8-.9-3.4-1.7-6.2-4.3-6.3-2.7,0-4,2.9-5.3,6.3-4.8,12.7-3.8,28.6-2.7,41.8-3.9-2.7-14.3-11-16.5-13-14.2-12.7-27.3-29.2-36.8-46.6l-5.6-20-1.7,11.6c-4.3,29.4-4.2,59.6-4,88.8v12.5c-.5-4.3-1.2-10.4-2-18.8v-.9c-3.1-31.6-5.5-65.3,1.4-98.8.3-1.3,1-3.4,1.7-5.5,1.1-3.1,1.7-5.1,1.8-6.4.2-2.4-1.1-4.9-2.2-7.3-.8-1.7-1.7-3.4-1.8-4.5l-.6-6.6-3.9,5.3c-5,6.9-7.7,17.1-9.9,26.9-3.1,13.3-5,28.3-6,46.2-1-9.4-1.7-18.9-.6-27.8v-.4c-.4-12.3,2-24.6,4.2-36.6,1.4-7.1,2.8-14.5,3.6-21.8v-1c-1.6-5.7-9.9-5.6-17.3-5.6s-7.1,0-8.7-.5c-2.1-1.3-11.3-12.2-12.2-14.1-1.5-3.7-1.1-17.1-.8-26.8.2-6.1.4-11.3.2-14.6,0-.2-1.9-23-3.6-25-.8-.9-2-1.3-3.3-.9-2.3.7-6,4.9-6.2,6.7-.6,4.7.5,9.3,1.5,13.7.4,1.5.7,3,1,4.4l-7.3-2.7-25.8-14.2,1.3,9.5c3.4,24.7,7.2,52.8,17.7,75.5,1.1,2.4,2.5,4.7,3.7,6.8l2.1,3.6c-12.5-2.6-23.3-11.5-34-21.2-17.3-15.6-62.2-63.3-67-81.1-8.1-29.9,22.2-101.9,32.1-125.5l4.5-9.7c-2.8,11.3-6.8,22.3-10.7,33.1-2.8,7.8-5.8,15.9-8.2,24l-.5,1.6c-5.7,18.9-12.2,40.3-10.3,60.6,1.4,15.2,11.7,27.7,20.8,38.7,1.4,1.7,2.9,3.5,4.2,5.2l5,6.3-.6-8c-.3-3.9-1.3-7.8-2.3-11.7-1.2-4.8-2.4-9.2-2.2-13.5.2-4.8,1.7-10.6,3.2-16.3.3-1.1.6-2.1.8-3.2v18.3c0,4.3,3.8,16.4,7.5,27.8l.4,1.2c6.5,19.9,13.5,33.6,30.3,44.6l6.6,4.3-2.9-7.3c-3.2-8.2-5.7-17.1-7.6-27.3-2.3-12.9-5.4-33.6-6.2-49.4,0-.7,0-1.3-.2-2.1-.2-2.9-.6-7.7.8-9,.3-.3.9-.4,1.7-.4l35.5,30.3-.9-6.5c-1-7.7-2.6-15.5-4.2-22.9-1.3-6.2-2.6-12.6-3.5-18.9-.4-2.8-.9-5.6-1.3-8.3-4.3-26.3-8.3-51.1,2.5-75.4,10-22.5,25.8-47.2,40-68.5,1.2-1.8,4.1-5.7,7.4-10.1,9.8-13.1,14.3-19.3,14.9-21.6,1.3-4.4.9-11.3.5-18.6-.3-5-.6-10.1-.2-13.6.7-6.7,19.1-33.5,26-43.6,1-1.4,1.8-2.6,2.4-3.5,7.2-10.7,15-21.3,22.5-31.5-5.1,14-13.2,29.3-21.1,44.3-6.6,12.4-12.8,24.2-17.4,35.2-8.8,21.1,2.3,80.7,11.1,102.6,2.1,5.3,6.6,15.1,12.2,21.4l4.6,5.2-.2-7c-.7-20.8.4-38.8,3.4-56.5,2-11.9,2.5-17.9,3.4-29l.2-2.7c2.6-33.4,9.2-47.6,26.2-71.5-1.9,4.7-4.1,10-5.7,13.7-2.3,5.5-4.2,9.8-4.7,11.6-2.1,6.5-3.8,13.2-5.4,19.7l-1.8,7.2-2.8,24.1,5.8-9.2c9.1-14.2,21-28.5,36.4-43.5v8.6c0,7.8,10.8,28.9,15.1,34.7.7,2.2,2.3,2.9,4.9,2.3l1.8-.4v-1.8c.6-10.7,4.9-21.6,8.9-32.2l1.2-3.3c17.2-45.2,37.1-80.5,60.8-108,4-4.6,9-8.9,13.9-13,2.3-1.9,4.7-3.9,7-6-7.5,35.6-10.1,69.9-7.8,102.1v1.1l6.2,4.6.7-3.9c5.3-27.9,16.8-58.8,33.2-89.3,9.9-18.4,19.6-33.1,34.3-44.6.6,1,1.2,2.3,1.8,3.4,2.4,4.9,4.9,9.9,8.8,10.4,1.2.2,3,0,4.7-2,.9-1,2.2-3.3,4.2-7.1.8-1.5,1.8-3.4,2.6-4.8,15.4,12.3,25.8,28.3,36.3,48.6,15.1,28.9,25.9,58.5,31.2,85.3l.3,1.8,1.8.2c.9,0,1.9-.2,2.6-.7,1.5-1.2,1.9-3.3,2.1-5.1,3-27.6-1.2-61.2-3.1-74.4-.6-4-1.7-8.6-2.7-13-1.1-4.6-2.2-9.3-2.7-13.3,2.8,2.7,5.8,5.2,8.8,7.7,4.6,3.8,9.3,7.8,13,12,23.2,26.6,43.6,63,60.8,108l1.2,3.3c4.1,10.6,8.3,21.6,8.8,32.2v1.8l1.9.4c2.6.6,4.3,0,4.9-2.2,4.3-5.8,15.1-26.9,15.1-34.7v-8.8c13.3,12.7,24.7,27,36,41.8l4.5,5.8v-7.3c0-10.3-3.3-21.3-6.2-31v-.4c-3.2-10.2-7.3-20.2-11.2-29.8-.2-.4-.4-.9-.6-1.3,17.3,24.4,23.6,40.5,25.5,74.3,0,2.1-.2,4.6-.4,7-.3,2.5-.6,4.9-.4,6.8.2,2.8,1.5,6.7,2.8,10.8,1.1,3.5,2.3,7.2,2.7,9.9,2.4,14.2,2.3,29,2.3,43.3v13.7l4.5-5.8c9.1-11.6,15.8-28.1,20.2-48.8,3.4-16.6,8.7-47.4,5.2-67.5-1-5.8-8.2-21-16.2-37.3-1.7-3.4-3.1-6.3-4-8.3-2.5-5.3-5.4-10.9-8.2-16.2-4.2-8.1-8.6-16.3-11.9-24.6,1.4,2,2.9,3.9,4.3,5.8,3.6,4.9,7.3,10,10.9,15.1,1.8,2.6,4,5.7,6.4,9.1,9.6,13.5,22.7,31.9,27.3,42.6,2.4,5.6,1.9,13.1,1.4,20.4-.4,6.3-.9,12.3.5,17.2.7,2.3,5.1,8.5,14.9,21.6,3.3,4.4,6.2,8.3,7.4,10.1,14.1,21.2,29.9,46,39.9,68.5,10.8,24.2,6.8,49.1,2.5,75.4-.4,2.8-.9,5.5-1.3,8.3-1,6.3-2.3,12.7-3.6,18.9-1.5,7.5-3.1,15.2-4.2,22.9l-.9,6.5,35.5-30.3c.8,0,1.4,0,1.7.4,1.4,1.3,1,6.1.8,9,0,.7,0,1.4-.2,2.1-.9,15.8-3.9,36.5-6.2,49.4-1.8,10.2-4.3,19.1-7.6,27.3l-2.9,7.4,6.6-4.3c16.2-10.7,23.2-23.8,29.2-41.5,0-.3,8.9-26.4,8.9-32.1v-17.1c.4,1.8.9,3.6,1.4,5.4,1.3,4.9,2.6,9.9,2.6,13.8s-1.3,9-2.6,13.8c-.9,3.5-1.9,7.1-2.3,10.3l-1.1,8.2,7.4-8.5c7.1-8.1,15.9-18.1,19.9-27.4,11.3-26.2-3.3-65.8-15-97.7-3.9-10.6-7.6-20.6-9.9-29-.5-1.9-1.8-7.5-2.9-12.6,4.7,9.7,9.5,22.6,13.5,33.3,1,2.7,2,5.3,2.9,7.7,8.6,22.4,28.6,74.9,21.9,99.9-4.8,17.8-49.7,65.5-67,81.1-10.8,9.7-21.5,18.6-34.1,21.2l2.1-3.6c1.3-2.2,2.6-4.4,3.7-6.8,10.5-22.7,14.3-50.8,17.7-75.5l1.3-9.5-25.8,14.2-7.4,2.7c0-.6.3-1.1.4-1.6,1.6-6.3,3.7-15,.8-19.8-1-1.7-2.6-2.8-4.5-3.2l-2.6-.6-.4,2.7c-.3,2.1-.7,4.1-1.1,6.3-.8,4.4-1.7,8.9-1.9,13.3-.3,4.1,0,10.5.3,17.2.4,10.3.9,23-.6,27.6-.9,2.1-10.2,13.5-12.4,14.8-2.4,1-5.8.8-9.4.6-5.9-.3-12.6-.6-17.1,4.4l-.7.8v1.1c.6,8.3,2.4,16.6,4,24.6,1.7,7.9,3.4,16.2,3.9,24.2.8,12.8.3,25.8-.8,38.4-1.3-21.8-3.7-45-11.4-65.5,0,0,0-.3-.2-.6-1.5-4.6-2.7-7.2-4.9-7.7-1.1-.2-2.2,0-3.1,1-1.2,1.3-3.8,12-3.7,13.2,0,4.5,1.6,10.4,3.1,16.7,1.2,5.1,2.5,10.3,3,14.5,2.5,23.5.5,51.1-2,77.5-.5,5.4-1.3,10.9-2,16.3v-47.1l-3.6-53.8-14.8,25.7c-7.5,10.4-16.6,22.3-27.8,32.3-2.2,2-13.3,10.8-17.5,13.9,1.2-13.9,1.7-28.3-2.4-40.9-1.9-5.9-3.6-7-5-7.4-1.2-.3-2.3,0-3.2,1-.6.6-.8,1.1-1.9,5.1-.7,2.2-1.6,5.5-2.1,6.4-5.1,10.1-12.1,12-21.1,14.3-3.4.9-7,1.9-10.7,3.3-9,3.6-12.9,14.1-16.3,23.4-1.2,3.1-2.2,6-3.4,8.4-5.2,10.8-11,14-20.6,19.2-1.4.8-2.9,1.6-4.5,2.5-3.1,1.7-7.7,4.1-12.2,5.7l-2.5.8.9,2.4c9.2,24.3,9,50.9,8.9,76.7v12.2l4.2-4c20.8-19.7,41-41.3,48.4-65.9,2.4-8,3.6-16.3,4.7-24.4.6-3.9,1.1-8,1.8-12,.6.9,1.3,1.8,1.9,2.7,2.2,3.2,4.4,6.2,6,9.5,6.4,12.8,15.3,46.3,3.8,127.2-1.2,8.6-3.1,18.2-5.8,30l-1.2,5.4,4.9-2.6c26.6-14.4,47.8-36.4,65.2-56,18.2-20.6,32.8-38.7,40.9-67.6,9.7-34.3,14.6-70.7,18.4-105.6,13.8,44,14.7,91.4,15.6,137.4v6.7c.3,8.5.2,17.2,0,25.7,0,10.3-.3,21,0,31.4v.7c0,1.2-.3,3.1,1,4.3.4.4,1.4,1.1,2.9.9l1.3-.2.6-1.2c6.4-12.7,13.2-25.6,19.8-38.1,11.3-21.4,23.1-43.5,33.1-65.6.3-.8.9-1.9,1.5-3.1,2.5-5.2,4.5-9.3,4.8-11.5,2.4-15.1-.2-48.1-2.1-61.5-1.6-11.9-5.5-22.5-9.2-32.7-2-5.5-4-11.1-5.7-16.9-.2-.6-.4-1.2-.6-1.9-2.2-7.2-2.9-11.3-1.9-12.4,0,0,.5-.2,1.1,0l18,40.6c2.8,9.4,3.8,19.4,4.8,29,.8,8.1,1.7,16.5,3.6,24.7l1.8,7.8,12.4-31.4c7.2-20.8,6.9-42.3,6.7-63.1v-8.3l-5.6-59.9c16.7,13.7,35.1,41.6,46,61.9,1.2,2.2,2.3,4.6,3.5,7.1,2.4,5.2,5,10.6,8.6,15l7,8.4-26.5-107.2c.3.5.6,1.1.9,1.7.2.4.4.7.5,1,20.3,35.7,26.2,78.4,31.8,119.8.4,2.7.7,5.4,1.1,8.1v.3l30.6,68.3-1.1-14.3c-.9-11.6-1.1-23.5-1.3-35l.7-.5Z" fill="#FFFFFF"/></g><g class="trait-group" data-category="head">
  </g><g class="trait-group" data-category="head"><path id="fill-head-2" class="fill" d="M950.9,1720.1c2,20.4-1.1,42.1,4.6,61.9.7,2.4,3,10,5,11s1.5-1.6,1.5-2.5c0-3.9-1.7-8.9-2-13-1.5-17.8-.3-36,2.5-53.5,14.4,4.4,29.1,8.9,43.9,12.2s19.4,3.6,33.8.6c15.3-3.2,30.4-8.8,45.8-11.7,1.6,16.7,2.9,33.7,2,50.6-.2,4.5-1.9,9.5-2.1,13.9,0,1.4-.8,4,1.5,3.5,12.5-21.9,7-48.8,9.6-72.9,4.3.5,25.8-12.1,26.9-11.1-2.2,14.1,2.4,29,3.1,43.4.8,16.5,0,34.2-2.6,50.5-16.6,14.3-34.5,26.8-52,40,1.7-16.4,2.9-33.4-2.7-49.3-12.9-13.8-25.3-28-38.3-41.7-1.2-1.3-6.5-7.2-7.9-6.9l-45.4,48.7c-5.7,15.8-4.4,32.8-2.7,49.3-14.4-11.7-31.1-21.8-45-34-3.2-2.8-7.5-5.7-8.3-9.7-2.3-12.6-2-36.6-1.3-49.8.7-13.9,5.2-27.6,3-41.5l26.8,12.1h.3Z" fill="#FFFFFF"/></g><g class="trait-group" data-category="head">
  </g><g class="trait-group" data-category="head"><path id="shading-head" class="shading" d="M943,1120c16.7-27.8,28-68,50.6-94.9,14.2-20.7,12.3,6.2,26.3,10.5,1.7,1.2,1,3.4,4.6,3.5,2.7,0,1.3-2.5,2.8-3.8s5.8-2.6,8.3-5.2c2.7-2.8,7.1-13.4,10.7-12.9s14.5,17.9,17.1,22c15.9,24.3,28.9,52.9,39.3,79.6,5,6,.9-25.2,1.1-29.1-3.7-21.1-16.3-51.7-19.4-73.6,52.9,53.1,97.1,120.2,113.5,194,3.9-5.4,13.1-18.7,15-25l11,6c-1.2-15.9-7.8-30.6-10.3-46.2-2-9.3-11.5-24.2-10.2-31.8,32.8,39.4,59.3,84.1,66,136l12.5,27c7.3-23,15.6-50.8,13.3-74.8-16.4-57-56.8-109.5-92.3-156.2,40,23.5,70.1,61.3,95.6,99.9,24.1,23.5,35.2,51.5,43.7,84.3,26,64,68.5,130.8,48.8,201.8,4.4-1.2,11.6-17,13.1-17.9,9.3-.9,10.1,37.2,12.9,43.9,13.6-58.8-11.6-117.2-31.5-170.9-.2-.9-1.1-2.7,0-3,11.6,19.9,22.7,40.6,32.4,61.6,11.7,25.3,18,50.6,19.2,78.8-.3,11.8-1.9,21.5.9,32.9,6.9,5.6,10.4-34.2,11.9-39,5.6-40.7,1.5-46.3-18.1-80.7-6.1-27.6-19.1-53.8-30.3-79.7,44.9,44.9,54.4,110.7,96.5,158,1.8-.5-.4-5.6-.8-6.8-21.8-97.9-93.3-176.9-133.2-265.8,10.8,8.8,16.6,27,26.5,37.5,7.7,9,20.3,19.3,29.2,27.8,1.3,1.5,1.1,2.7,1.2-.2-36.8-55.7-72.1-112.2-113-165,45.2,27.4,70.7,78.8,112,112,16.5,15.2,90.8,81.8,42.4,20.6-15.4-23.1-38.3-45.8-54.2-67.8-.7-4.2-32-73.9-21.6-59.4,6.3,7,14.6,20.7,21,26,17.1,18.3,63.2,24.7,67.5,51l-45-5.5c12.1,10,98.4,120.8,66,120-21.2-14.6-41.4-30.5-61.6-46.4,1.2,30.3,23.8,74.3,33.8,106.2,16.6,53.8,43.8,106.6,67.7,156.3,20.4,11.4,8.1,13.8,30.1,21.9,1.6,1.2,15.7,19.7,16,21-21.3,4.5-50.6-15.8-69.7-27.3-2.9-1.9-9.2-8.9-9.8-4.2-14-14.1-23.3-31.6-33.7-48.3-2.2-3.6-1.1-7.1-6.8-3l-3.1,31.7c-1.7,7.1-5.2,7.1,1.5,12.7,34.9,46.4,46.3,121.8,57.5,175.3.8.9.7.9,2.1.6,9.7-13.4,12.4-28.2,10.1-44.4,17.6-55.5,13.7,36.1,13,49-3.6,20,.7,72.7-5,89-16.2-5.9-63.8-143.8-82-133,.7,46-20.4,105.8-44.3,146.8-21.2,36.7-46.3,94.1-73.7,116.2-3.5-204.6-21.4-32.1-139.1,14.9-3.8,1.1-19.2,12.1-19.8,7.2,16.9-40,5.5-86.7,18.9-127.1-.2-2.4.4-18-3.3-12.2-20.6,46.9-87.9,93.6-135.2,113.8,11.6-42-11.2-75.2-11.7-75.8-7.8-1.3-20.9-26.7-23.4-29.1-1.2-.2-6.8,5.6-7.9,6.9-1.7,2-8.4,21-16.3,22.2-.5.7-23.8,38.3-11.7,75.8-42-15.7-97.7-60.4-125.5-93.5-4-6.5-4.4-16.7-12-21.5-4.3,11.9,2.6,22.2,3.9,32.6,2.8,22,2.4,46.2,5.2,68.8,1.8,14,3.6,27.5,8.9,40.6-144.8-48.7-152.4-234.5-159.5-21-57-74.3-114.6-169.3-116.6-264.4-20.4-11.2-64.2,123.9-84.9,136.4,3.1,2.7-15.3-221.8,10.1-141.5-1.9,12.6-1.1,27.8,7.1,38.8,3.7,5.9,4.5,6.7,7.1-.5,7.5-58.2,22.4-123.5,56.5-172.5.5-3.1-6.5-6.7-4.6-12.6,6.7-7.6.7-20.7,1.8-30l-5-1.6c-6.3,11.6-13,24.2-20.7,34.9-12.3,14.7-26.4,32.8-45.7,36.3-15.6,6.1-33.9,15.1-51.7,15.3,7.4-5.3,12.1-18.1,18.9-23.1,9.2-3.6,14.7-6.2,19.4-15.1,2.6-2.4,8.6-4.2,10.7-6.8,23.6-49.8,51.3-102.3,67.7-156.3,55-162.6,48.8-98.6-35.8-59.2,7.1-43.4,45-88.3,74-120.5l-45,5.5c-1.4-14.1,15.8-19.4,26.3-25.2,11.7-7.1,30.6-17.3,40.7-25.3,8-5.8,15.7-23.7,25-29-9.5,19-17.2,42.8-25.1,61.9-23.9,29.6-50.9,61.3-72.8,93.2-.4,2.5,1.7,1.6,3,1,54.6-35.5,104.4-92.7,145.4-143.6.2,1.2,33.4-24.4,20.9-10.1-39.8,49.3-72.9,105.9-108.4,157.1,21.7-10.2,39.2-38.9,53.5-61,2.8-2.4,1.5.7,1,2-12.4,34.3-32.3,67.4-55.7,95.3-36,52.7-57.1,112.3-77.8,172.2,45.9-43.4,51-113.1,97.5-156.5-11.9,26-23.8,53.4-31,81-3.8,10.4-16.5,25.4-18.2,35.8-2.6,22.8,1.1,63.4,10.3,83.3,5,.7,3-10.6,4.1-13.7-4-60.2,21.9-108.2,49.4-160.3-10.2,46-39.1,95.2-33,147.5,2.1,3-.8,31.7,4,23,2.3-8.8,1.6-39.5,11.9-40.4,1.8,1.1,8.4,16.7,13.1,17.9-20.1-71.3,23-137.6,48.8-201.7,8.9-24.5,10-44.5,27.2-65.8,34.4-44.3,65.9-90.3,114-121-48.5,67.2-123,145.7-81,233.5,20.6-46.3,25.4-99.4,60.2-139.3,40.4-59.6,1.6,17.3.3,38.3-2.1,17.5-8.1,18.3,8.5,10,1.9,6.3,11.1,19.6,15,25,16.4-73.8,60.4-141.6,114-194-7.4,35.6-22.9,66.3-21,104v-.4ZM745,1272.5c-.5-4.9.4-10.5,0-15.5l4,4-3-36c-1.7-2-5.6,7-7,7-1.4-6.9.6-16-3-22-3.2,10.3,3.2,13.3-1,21.5,3.3,7.2-7.9,16-11.7,22.3-17.2,28-48.4,67.3-52.3,98.1,2.7-6.8,61.6-122.8,58.5-91.9-22,47.1-68.8,94.6-52.6,149.5,1,11,1.5,32.1,7.1,40.9,4.7,2.3,9.5-2,12.3-1.4,7.8,4.2,4.8,44.2,9.7,55.5-.7,26,9.5,25.9,30.8,28.5,1.3,5.6,7.3,8.1,10,13.4,4.6,7.9,7,18.3,11.7,26.3,1.3-1.7,5.7,19.3,5.7,19.3,7.4,9.4,5.5,3.9,6.3,16.7,4.3,10.7,24.9,37.1,37.5,38.5,2.3.5,5.3,8,7.6,5.5,3.9-8.5-9.1-14.2,2.5-17.7,3.7-12.7-7.2-21.4,7.4-31.3,14.8,27.1,20,31.2,47.1,43.9,11,10.9,15.1,27.9,24.1,39.9,24.3,11.9,47,28,72.8,36.3,60.8,24.2,114.6,0,168.9-27.4,24.8-1.8,22.4-32.1,34-45.4,8.8-10.1,16.9-6.4,27.6-11.9,17.5-3.3,17.1-57,31-23.9,0,7.8-6.2,13.2-3,20.4.5.5,6.5-1.2,7,3.6-2,10.4-9.1,0-5.5,19.5,7.1-11.8,16.9-13,27-22,4.4-4.1,19.9-21.6,21.7-26.3,1-5.4-3.6-17.2,5.8-14.7,1.3-1.2,4-21.4,8-18,2.4-17,8.4-32.6,20-44.5,4.6-3.5,18.9,1,25.9-8.2,6.7-9.3-1-21.4,11.2-21.8,3.9-2.8-4.8-40-1-50,3-7.8,13.1-.6,16.6-3.4,26.3-93.5-6.8-114.2-46.5-190.7-2.2-30.2,58.1,92.7,59.9,92.1-11.9-40.6-43.1-80.6-65.5-114.6-.2-.6-1.6-10.9-1.6-11.5,3-3,1.9-21.9-.8-10.9-.6,5.6-.5,11.8-1.1,17.4-1.4,0-5.3-9-7-7,.6,13.3-3.1,26.3-4,39.5.2,6.3,1.3-6,5-4.5-.3,30.3-15.4,62.2-36,84,1.7-50.9-3.7-104.8-40.5-143.1-1.7-2.1-1.9-6.8-7.5-3.5-6.9,15.1-13,36.9-28,47.5-1.8-26.4-7.4-52.8-18-77l-2,2c-12.2-33.5-33.2-66.7-61.5-89-7.2,11,1.7,27.1.5,40.4,0,15.2,2.4,37-1.2,51.4-.6.4-6.4.3-6.8,0-11.6-46.4-31-98.9-66.6-132.9-5.7,14.9-17.6,15-23,0-35.8,34.7-54.8,85.3-66.6,132.9-4.2,0-7.4,1.6-8-3.4-1.5-12.6-.6-36.8,0-50.1-.9-12.9,7.3-28.2.5-38.4-28.6,22.1-49.3,55.4-61.5,89l-2-2c-24.7,43.1-5.4,110.2-36.2,53.7-4.6-6.6-6.1-28.9-15.7-24.5-13.5,20.6-26.8,33.8-33.7,58.8-9,28.6-7.7,58.3-8.5,88-1.7.4-2-.5-3-1.5-12.7-13-31-52-33-70l.2.6ZM750,1264c.7-1.4-.6-2.7-1-2-.7,1.4.6,2.7,1,2M1456,1390c.7-1.4-.6-2.7-1-2-.7,1.4.6,2.7,1,2M586,1408c4.3-4.6,5.5-11.8,6-18,.5.9-12.2,20.7-6,18M1464,1408l-8-17c.7,2.3,2.4,16.3,3,16.9.5.4,3.8-.2,4.9,0h0ZM1449,1471c-7.9,1.7-.9,6.8,2,10l-2-10ZM597,1481c2.8-2.9,7.3-6,2.5-9l-2.5,9ZM613,1489c-2.9,5.9-13.9,47.4-20.5,43-2.5.3,8.1-32.8,2-25-13,7.1-26.3,65.4-31,78,13.1-18.2,30.8-36.5,47.8-50.2,2.4-5.3,4.4-19,6.2-25.8,3-10.9,6.2-10.6-4.5-20M1435,1489c-13.2,7.2-7.5,12.3-3.5,24,1.3,4.7,3.9,20.8,5.4,23.3,12,7.1,37.8,35.6,47.1,47.7l-19.2-63.3-13.8-15.7c-.3,7.3,8.5,25.1,2,27.5-4.7-3.7-15.6-36.1-18-43.5M633,1673c2.5-40,21.1-75.6,37.1-111.5-1.7-6.8-5.1-13.1-7.4-19.7-.4-6.3-1.6-6.4-7.7-8.3-5-3.1-8.4-8.5-12.5-12.4-17.3,44.6-27.2,105.4-9.5,152h0ZM1416,1673c16.7-47.2,6.5-105.9-10.5-152-25.4,27.7-15.6-1.6-27.6,40.5,17.2,34.8,33.2,76.4,38.1,111.5M709,1542c-8.5,3.4-15.8,31.4-20,36.6-3,1.9-9.5-8-10-7.6-22.3,50.5-48.1,126.5-8,174-10.9-40,9.9-76.7,24-113l-5,84c6.6-19.2,14-49.6,26-66-11.9,32.2,5.4,59.1,20.9,87.6,2.3,9.5,8.1,15.7,16.7,20.3-12.7-43.5-11.8-88.7-5.7-133.2-1.6-1.1-11.3-14.4-12.8-12.7l-6.1,43.5c-1.8,13,9.7,54.5,3.1,60.5-5.5-25.2-8-52.7-13-77l-3,10c-2.7-33.7,5.2-75.7-7-107h-.1ZM1332,1650l-4-12c-3.8,26.6-5.2,55.8-14,81,1.1-37.2,7.3-69.3-1-107-1.5-1.8-11.6,11.7-12.8,12.7,5.3,44.3,7.4,90.2-6.2,133.3l12-8.7c8.3-18.9,19-36.2,26-55.7,8.3-14.3,2.8-28.1,0-43.5,11,14.2,19.8,49,26,66,.9-27.3-8.7-58.1-4-84,17.3,50.9,33,71,21.5,127,37.3-56.3,21-129.7-6.5-187-1.6-1.2-7.2,8.4-10,6.5-1.6-1.1-11.9-28.9-17.1-34.9-.6-.7-1.6-2.6-2.8-1.7-11.2,31.2-6.2,74.6-7,108h0ZM780,1755c4.7,3.8,1.1-13.3,1-14.5-1.3-16.3-.3-33.6,1-50,6.7-21.6-2.1-30.5-16.5-45.5-12.4,30.6,2.9,80.3,14.5,110M1267.9,1754.9c10.6-14.7,40-159.6-4.9-86.3,3.8,27.9,6.4,58.8,2,86.4,0,0,2.5,0,2.9,0M825,1650.5v32.5c-3.7-.3-18.4-13.7-20-12-4.6,36.2-.3,72.4,5.3,108.2.2,1.1.2,4,1.7,3.8,2.7-44.3,17.9-87.3,38-126.5-7.5-.3-18.7-10.6-25-6M1223,1683c0-1.2.6-34.2-1.1-34-3.3.5-24.8,6.8-24.9,8.4,22.3,37.6,35.3,81.9,39,125.5,1.5,0,1.5-3.6,1.7-4.8,6.2-35.1,9.2-71.7,5.3-107.2-1.5-1.5-16.8,11.2-20,12h0ZM900.9,1711.1c-16.8-9.8-25.8-14.5-29.9-34.1-5.4,17.3-2.4,37.8-2.5,56.1,8.2,10.4,18.5,18.9,28.1,27.9.5-16.7,1.7-33.4,4.4-49.9h0ZM1151,1761c5.5-6.2,26.8-21.8,28.8-28.7,2.2-14.9-.4-39.6-1.8-55.3-5.4,9.8-5.1,18.4-16.1,24.4-4.8,3.8-10,6.9-14.9,10.3,2.6,16.3,4.4,32.7,4.1,49.3h0ZM953,1801c-7.8-21.3-12.5-43.3-13.5-66-10.7,15.3-3.9,37.7-3.3,55.3.7,2.1,16.1,11.4,16.8,10.7M1108,1735c-.3,23.1-5.7,45.5-13.5,67,2.9-2.9,16.4-8.5,17.3-11.7,0-17.4,8.1-40.8-3.8-55.3M965,1794c2-15.5,7.9-28.3,16-41.4l-27-12.6c-1.2,13.7,7.7,32.2,7.2,46.2l3.8,7.8ZM1094,1740c-45.6,19.5-17.9,8.6-10.5,54,4.6-17.3,8.8-35.6,10.5-54M1374.5,1760v1c.7-.3.7-.7,0-1" fill="#AAAAAA" style="opacity: 0.5"/></g><g class="trait-group" data-category="head">
  </g><g class="trait-group" data-category="head"><path id="outline-head" d="M1525,1141c-18.9,3.6-37-1.1-55.5-3-1.5-.2-2.8-.6-2.5,1.5.3,1.9,21.2,26,24.4,30.6,12.4,17.4,21.9,38.6,30.8,58.2,11.3,25.2,21.5,50.9,29.8,77.2l-23.5-22.5c-22.7-16.8-44.1-35.2-66-53-.8-.2-.6.9-.5,1.5,2.3,15.4,16.1,48.8,22,65,21.6,59.3,52,128.2,88.2,179.8,8.5,12.1,17.2,22.2,29.8,30.2-25.9.4-50.9-6.2-74-17.5l15.5,28c9.1,25.7,4.9,53.8,4.5,80.4-.6,36.2-1.9,72-3,108-.5,16.2-.2,32.4-1,48.5l-85-153c4,29.9-6,59.6-16.3,87.2-10.8,29.1-25,59-39.6,86.4-19.2,36.2-41.3,69.8-68.7,100.3-2.3.4-1.4-1-1.5-2.5-1.5-20.9-.2-42.6-2-64-1.2-14.5-4-28.9-5-43.5l-20,25.5c-21.4,20.8-42.5,48.8-65.5,67.5-11.1,9-39.1,21.4-53.1,27.9-3.4,1.6-14.1,7-16.8,7.2-1.6,0-1.8.2-1.4-1.4,1.7-7.7,8-18,10.2-26.8,1.2-4.7,1.8-9.6,2.6-14.4,4.2-27.6,5.6-56.5,7.1-84.4-21.3,25.1-48.9,46.5-75.7,65.8-18,13-36.5,26.6-58.8,31.2-1.7-18.3,6.8-42.1.8-59.8-4.2-12.5-23.9-27.1-30.8-39.2l-23.5,26.5c-19,19.6-5.7,48.7-7.5,72.5-22.3-4.6-40.8-18.2-58.8-31.2-26.7-19.3-54.3-40.7-75.7-65.8,1.5,27.9,3,56.8,7.1,84.4.7,4.8,1.4,9.7,2.6,14.4,2.2,8.8,8.5,19.2,10.2,26.8.3,1.6,0,1.5-1.4,1.4-2.8-.2-13.4-5.6-16.8-7.2-14-6.5-42-18.9-53.1-27.9-23-18.7-44.1-46.7-65.5-67.5l-20-25.5c-1,14.6-3.8,29-5,43.5-1.8,21.4-.5,43.2-2,64,0,1.5.8,2.9-1.5,2.5-27.4-30.5-49.4-64.2-68.7-100.3-14.6-27.5-28.7-57.2-39.6-86.4-10.3-27.7-20.3-57.3-16.3-87.2l-85,153c-.8-16.2-.5-32.4-1-48.5-1.1-36-2.4-71.8-3-108-.4-26.6-4.6-54.8,4.5-80.4l15.5-28c-23,11.3-48.1,17.9-74,17.5,12.6-8,21.3-18.1,29.8-30.2,36.2-51.6,66.6-120.5,88.2-179.8,5.9-16.2,19.7-49.7,22-65,0-.6.3-1.7-.5-1.5-12.5,9.3-23.9,20.2-36,30-13.4,10.8-28.1,20.4-40.5,32.5-3.6,3.5-6.6,10.1-12,11.5-2.6-2.9,24.3-65.7,27.8-73.7,11.1-24.8,21.3-46.5,37.8-68.2,2.9-3.8,17.7-20.3,18.4-22.6s-1.4-1.5-2.5-1.5c-9.3.4-20.3,3.5-30,4-8.4.4-17.3.3-25.5-1.5,22.2-20.4,42.8-41.8,61.4-65.6,18.5-23.7,35.8-49.7,52-75,9.9-15.4,19-34,29.6-48.4,9.9-13.6,20.6-13.7,34.3-20.7,43.8-22.2,99-71.5,135.7-105.3,14.8-13.6,21.5-27.3,42.8-31.2,78-14.5,212.4-14.5,290.4,0,21.4,4,28.8,18.4,43.8,32.2,36.1,33.2,90.3,81.5,133.3,103.7,19.9,10.3,25.3,6.3,39.1,26.9,35.1,52.2,62.2,104.1,106.1,150.9,10.7,11.4,22.9,21.4,33.5,33M619,1412v39.5c0,4.8,5.9,22.6,7.7,28.3,6,18.5,12.4,32.3,29.3,43.2-3.6-9-6-18.2-7.7-27.8-2.7-14.8-5.5-34.8-6.3-49.7-.3-5.7-2.1-15.4,5.9-14l31,26.5c-1.9-14-5.5-27.8-7.7-41.8-4.5-29.1-11-57.5,1.3-85.1,10.3-23,26.2-47.8,40.2-68.8,3.6-5.4,21-27.5,22-31,2-7-.7-23.3.2-31.8.9-8.2,22.8-39.4,28.8-48.2,9.4-13.8,19.4-27.3,29.2-40.8,1.9-1.4.7,1.8.5,2.5-7.5,27.5-30,61.2-41.4,88.6-8.5,20.4,2.6,79.6,11.1,100.7,2.8,6.8,6.9,15.2,11.8,20.7-.7-19.5.2-37.8,3.5-57,2.2-12.7,2.5-18.7,3.5-31.4,2.9-37.4,10.8-51.3,32.4-80.6.4-.5,1.1-3.7,2.6-1.9,1.3,1.6-12.6,32.2-14.3,37.2-2.9,8.8-4.9,17.8-7.2,26.8l-1.5,13c11.3-17.8,25.8-33.6,41-48v14.5c0,6.8,10.2,27.4,14.7,33.2.7.8,0,1.8,2.3,1.3.6-12.2,5.9-24.9,10.3-36.2,14.7-38.7,34.1-77.3,61.2-108.8,7.8-9,18.9-16.2,27-25-8.2,35.8-12.1,72.7-9.5,109.5l2,1.5c5.9-30.9,18.6-62.3,33.5-90,9.8-18.1,20.2-34.5,37-47,3.2,2.8,7.7,19.5,12.8,13.8,1.6-1.8,7.2-13.8,8.2-13.8,17.8,13.4,28.9,31.5,39,51,13.9,26.7,25.6,56.4,31.5,86,1.5.2,1.8-2.6,1.9-3.6,2.4-22.3.2-51.4-3.1-73.8-1.3-9.1-5.2-21-5.7-29.3,0-1.5-.8-2.8,1.4-2.4,7.6,8.1,17.8,14.7,25,23,27.1,31.1,46.7,70.4,61.2,108.8,4.3,11.4,9.6,24.1,10.3,36.2,2.3.6,1.6-.4,2.3-1.3,4.5-5.8,14.7-26.4,14.7-33.2v-14.5c15.2,13.7,28,29.8,40.5,46,0-10.1-3.3-21-6.2-30.8-4.6-15.5-11.6-30.1-17.3-45.2,2.2-.3,3.6,3.1,4.8,4.7,21.7,29.3,29.1,45.6,31.2,82.8.3,4.6-1.1,10.3-.8,13.8.4,4.8,4.4,14.3,5.5,20.5,2.8,16.6,2.3,33.4,2.3,50.2,10.4-13.3,16.2-31.3,19.7-47.8,3.9-18.9,8.4-47.7,5.2-66.6-1.3-7.7-15.7-35.8-20-45-7.3-15.6-17.7-31.9-22.8-48.2,0-.2-2.3-6.2,0-4.9,7.2,10.4,15,20.4,22.2,30.8,9.2,13.2,28.1,38.5,34,52,4.8,11-.9,28,2,38,1,3.5,18.4,25.6,22,31,14,21,29.9,45.9,40.2,68.8,12.3,27.6,5.9,56,1.3,85.1-2.2,14-5.8,27.8-7.7,41.8l31-26.5c8-1.4,6.2,8.3,5.9,14-.8,14.9-3.6,34.9-6.3,49.7-1.7,9.6-4.1,18.8-7.7,27.8,15.6-10.2,22.4-23,28.3-40.2,1.9-5.6,8.7-26.8,8.7-31.3v-39.5l3.5,13c.4,8.7,5.4,20.4,5.5,28.5,0,7.5-4,17-5,24.5,7-8,17.2-19.1,21.5-29,14.5-33.7-15.8-91.5-25-125-.8-2.7-5.3-22.1-4.5-23,1.3-1.4,2.6,1.8,3,2.5,6.9,12.2,14.5,33.7,19.7,47.3,9.5,24.9,28.8,76.2,22,101.5-5.2,19.1-51.6,67.8-67.7,82.3-11.3,10.2-24.1,21.2-40,22.5,2.1-5.2,5.5-9.6,7.8-14.6,11-23.8,14.6-53.6,18.1-79.3l-21.6,11.8-11.3,4.1c-1.5-1.5,8.3-23.8-1-26-1,6.3-2.7,13.1-3.1,19.5-.7,10.7,2.2,37.5-.5,45.5-.8,2.3-11.4,15.3-13.7,16.3-7.3,3-19.5-2.5-25.6,4.4,1.2,16.4,6.8,32.5,7.9,48.8,1.2,17.4-.3,35.2-2,52.5h-3c-1.4-25.9-2.8-54-12-78.5-.4-1-2.3-8.3-4-6.5-.4.4-3.1,10.1-3.1,11.5.2,7.9,5,21.6,6,31.1,2.6,24.4.3,53.4-2,78-1,10.9-2.9,21.7-4,32.5h-3v-63.6l-3-45.4-10.8,18.7c-8.5,11.7-17.4,23.1-28.2,32.8-2.2,2-18.5,15-19.7,15.3-.8.2-1.5.2-2.3.2,1.3-14.1,2.5-29.9-1.9-43.5-.2-.7-2.3-7.2-4-5.4-.4.4-2.6,8.8-3.6,10.9-7.6,15.2-19.7,13.6-33.1,18.9-10.7,4.3-13.7,20.7-18.4,30.6-6.4,13.2-13.8,15.8-26.2,22.8-3.9,2.2-8.4,4.4-12.7,5.8,10.1,26.7,9.1,55.8,9,84,18.6-17.7,40.1-39.6,47.7-64.8,4.1-13.7,4.6-28.3,7.8-42.2,3.4,6,8.2,11.5,11.3,17.7,15.2,30.5,8.9,94.8,4,128.7-1.4,10.1-3.5,20.2-5.8,30.2,25.1-13.6,45.8-34.3,64.5-55.5s32.5-38.6,40.4-66.6c10.7-37.8,15.4-77.4,19.6-116.4,18.2,49.4,18.4,103.4,19.5,155.5.4,18.9-.6,38.2,0,57,0,1.2-.8,3.7,1,3.5,17.3-34.3,37-68.6,52.9-103.6,1.4-3.1,5.7-11.3,6.1-13.9,2.2-14.2,0-45.9-2.1-60.8-2.5-17.9-9.9-32.5-14.8-49.2-1.6-5.3-7.2-20,2.8-17.3l18.6,41.9c5.3,17.6,4.4,36.2,8.5,54l9.5-24c7.9-22.9,6.6-46.6,6.5-70.5l-6-64.5c1.7-.4,2,.7,3,1.5,17.9,13.9,37.4,43.9,48.2,63.8,3.8,7.1,6.7,15.5,11.8,21.7l-26-105c2.3-2.3,7.1,7.4,8.2,9.3,21.9,38.5,27.2,85.6,33.3,128.7l24.6,54.9c-1.5-20.4-1-41-2-61.5-1.3-26.9-2.9-54.2-5-81-2.9-37.8-7.6-54.1-22.8-88.2-1.2-2.7-9.3-17.1-8.2-18.3l63,28.5c-23.2-30.6-45.2-62.2-60.2-97.8-15-35.8-29-75.4-41.8-112.2-9.2-26.3-22.2-59.4-27.8-86.3-.3-1.3-1-4.1,1.2-3.2,4.1,1.6,17,12.2,21.4,15.6,9.4,7.2,18.2,15.3,27.8,22.2l23.3,15.2c-19-51.2-53.2-94.7-91-133.5l1.5-1.5c9.8,6,21.8,7.9,30.5,15.5l30,4c-31.7-35.8-61.1-73.9-86.4-114.6-5.6-9-23.5-44.1-28.7-48.3-8.3-6.8-24-14-33.8-20.2-48.3-30.3-97.2-68.3-141.1-104.9-5-4.2-15.4-15.8-20.1-17.9-8.8-3.9-34.8-6.3-45.5-7.5-62.8-7-138.2-6.9-200.7,2-7.7,1.1-22.2,2.5-28.8,5.2-5,2-15.2,13.5-20.3,17.7-56.1,46.6-114.6,90.5-177.5,127.5-31,58-69.3,111.9-113,161l30-3.9c9.2-7.2,20.9-11.2,31.9-15.1-17.3,20.7-36.7,39.7-52.2,61.8s-29,47.9-39.8,73.2c25.5-13.1,45.3-35.4,69.2-50.7,1-.7,5-3.6,5.7-2.8-7.2,30.3-17.7,60.1-28,89.5-12.9,36.8-26.8,76.4-41.8,112.2-14.9,35.6-37,67.2-60.2,97.8l63-28.5c1.2,1.2-7,15.7-8.2,18.3-15.2,34.1-19.9,50.4-22.8,88.2-2.1,26.8-3.7,54.1-5,81-1,20.5-.5,41.1-2,61.5l23.7-52.8c7-44.6,11.7-92.5,34.8-132.2,1-1.7,5.1-10.3,7.5-8l-27,108,26.6-48.9c10.8-12.1,21.6-29.7,34.4-39.6,1-.8,1.3-1.9,3-1.5-4,48.1-13.9,99.1,4,145.5l6,13.5c3.8-17.3,3.2-35.3,8-52.6l19.2-43.3c9.5-2.4,4.8,9.5,3.4,14.8-4.7,17-12.6,32.6-15.4,50.6-2.2,14.6-4.3,47.8-2.1,61.8.4,2.6,4.7,10.8,6.1,13.9,15.9,35,35.6,69.3,52.9,103.6,1.7.2.9-2.3,1-3.5,1.6-45-1.2-89.4,3-135,2.4-25.8,7.5-53.3,16.5-77.5,4.1,39,8.9,78.6,19.6,116.4,7.9,28,21.5,45.2,40.4,66.6s39.4,41.9,64.5,55.5c-2.3-10-4.4-20.1-5.8-30.2-4.8-33.9-11.2-98.1,4-128.7,3.1-6.2,7.9-11.7,11.3-17.7,3.2,13.9,3.7,28.5,7.8,42.2,7.6,25.2,29.1,47.1,47.7,64.8-.3-28.3-1-57.1,8.6-84-1-1.6-26.9-13.7-31.6-18.4-7.5-7.5-10.2-26.2-17-35-10.1-13.1-31.2-3.7-41.2-25.8-2.5-5.6-2.6-15.5-6.6-4.9-5.1,13.3-3.4,30.3-2.2,44.3-.8,0-1.5,0-2.3-.2-1.7-.4-16.3-12.2-18.7-14.3-14.8-13.2-28-30.2-37.5-47.5l-2.5-9c-5.5,37.3-3.7,75.3-4,113-.8,0-2.8.2-3,0-1.2-1.1-3.6-27.6-4-31.5-3.2-33.3-5.3-66.5,1.5-99.5.7-3.2,3.4-9.5,3.5-11.6.2-3.2-3.7-8-4-11.4-5,6.8-7.6,17.6-9.5,26-4.5,19.4-6,40.1-6.5,60h-3c-1.2-13.9-3.8-28.7-2-42.5-.6-19.9,5.6-39.1,7.9-58.8-1.7-6.2-19.2-2.3-24.6-4.5-2.2-.9-12.6-13.2-13.5-15.5-2.6-6.5-.3-32.9-.8-42.2-.2-2.9-2.2-22.6-3-23.5-.9-1.1-5,3.7-5.1,4.5-1,7.2,2.7,14.5,3.1,21.5l-11.3-4.1-21.6-11.8c3.6,25.8,7.2,55.6,18.1,79.3,2.3,5.1,5.8,9.5,7.8,14.6-15.9-1.3-28.7-12.3-40-22.5-16.1-14.6-62.5-63.2-67.7-82.3-8.1-29.9,19.9-97.8,32.2-127.2l12.5-27c-2.5,26.8-14.6,50.8-22.3,76.2-5.8,19.3-12.6,40.9-10.7,61.2,1.5,16.7,14.5,30,24.5,42.5-.6-8.2-4.8-17.1-4.5-25.4.3-9.7,5.7-22.5,6.5-32.6l2.5-8v-.2ZM740,1271.5c-.6-5.6.4-11.9,0-17.5-1.2,0-1.6,1.4-2.2,2.3-10.2,16.1-19.4,35.5-28.6,52.4-11.4,20.9-28.4,43.3-29.2,67.8-.3,8.8.4,21.2,1.1,30,1,13.3,3.5,26.5,6,39.5,21.7-7.3,17.3,9.6,19,23.5,1.7,14.2,3,30,5.1,43.9,2.4,16.2,15.5,11.9,26.9,17.1,18.4,8.4,26.2,47.9,33.3,65.7,7.6,19.4,17.8,32.8,34.3,45.7,2.2.3,1.2-.3,1.5-1.4,1.9-6.1,1.7-15.1,3.3-21.7,1.6-6.5,8.9-23,17-20.6,3.9,1.2,15.4,25.8,21.7,31.3,8.8,7.8,20.9,7.4,28.5,15.5,8.2,8.7,12.5,22.1,19.7,31.3,13.8,17.8,73.5,41.2,96.1,47.9,6.9,2.1,24,7.5,30.3,7.5s23.3-5.2,30.5-7.3c27.7-8.1,64.4-23.4,87.7-40.3,14.7-10.7,16.6-25.5,27.8-38.2,8.1-9.2,20.2-8.3,29.5-16.5,6.5-5.7,17.3-30,21.7-31.3,6.2-1.9,12.2,8.1,14.5,13.1,1.8,3.9,2.8,9.2,3.5,13.5.8,4.5.5,12.2,1.4,15.6.7,2.5,2.3,1,3.8,0,8.5-5.5,20.2-19,25.2-27.8,11.7-20.6,19.7-71.8,40.2-81.8,13.3-6.5,25,0,27.7-19.3,2-14.4,3.2-29.5,5-44,1.7-13.9-2.1-28.4,19-21.5,2.5-13,5-26.2,6-39.5.7-8.9,1.3-21.2,1.1-30-.8-24.5-17.8-46.9-29.2-67.8-9.2-16.9-18.5-36.3-28.6-52.4-.6-.9-.9-2.2-2.2-2.3v17.5c0,25.1-24.7,63.4-41.7,80.8-1.7,1.7,0,4.7-4.3,3.7,1.3-46.3.8-87.3-21.8-128.7-2.9-5.2-12.4-21.4-16.7-24.3-.9-.6-1.1-1.6-2,0-2,3.4-4,13.6-6.3,18.7-5.2,11.6-14,23.2-24.3,30.7-.9.6-4.2,3.4-4.9,2.6,3-60.6-40.6-109.8-69.5-159,.7,13.1,3.8,26.4,4.5,39.5,1.3,23.5-7.8,51.3-21,70.5-6.6-41.1-20.2-79.2-39.8-115.7-1.5-2.8-22.4-39.7-24.2-38.3-1.9,6.2-8.7,18.7-16.6,13.1-2.3-1.7-6.6-12.6-8.9-12.1-3.5.9-32.3,55.9-35.7,63.3-13.1,28.9-21.7,58.3-26.8,89.7-1.9,1.5-11-19.8-11.8-21.7-3.7-9.4-8.2-23-9.1-32.9-1.7-17.6,3.1-35.9,3.9-53.4-1.3.3-2.1,1.7-2.8,2.7-11.7,16.2-24.8,38.5-35,56-17.5,30.1-34,62.2-31.2,98.3-.8.9-10-6.5-11-7.5-13.1-12-20.3-28.6-25-45.5-16.9,18.3-30,44.8-35.3,69.2-3.6,16.6-5.6,38.4-5.7,55.3,0,10.1,2,20.3,1,30.6-2,.5-1.9-.8-2.8-1.7-19.6-19.3-40.4-56.2-43.2-83.8h-.4ZM931.5,1096v1c.7-.3.7-.7,0-1M582.5,1137v1c.7-.3.7-.7,0-1M1465.5,1137v1c.7-.3.7-.7,0-1M1493,1619c.7-1.4-.6-2.7-1-2-.7,1.4.6,2.7,1,2M950.9,1720.1l-26.8-12.1c2.1,13.8-2.3,27.6-3,41.5-.7,13.2-1,37.2,1.3,49.8.7,4,5.1,6.9,8.3,9.7,13.9,12.2,30.6,22.3,45,34-1.7-16.4-2.9-33.4,2.7-49.3l45.4-48.7c1.3-.2,6.6,5.6,7.9,6.9,12.9,13.7,25.4,27.9,38.3,41.7,5.7,15.8,4.4,32.8,2.7,49.3,17.5-13.2,35.4-25.7,52-40,2.6-16.3,3.3-34,2.6-50.5-.7-14.4-5.2-29.3-3.1-43.4-1.1-1-22.6,11.6-26.9,11.1-2.7,24.2,2.8,51-9.6,72.9-2.3.5-1.6-2.1-1.5-3.5.2-4.4,1.8-9.5,2.1-13.9.9-16.8-.4-33.9-2-50.6-15.4,2.9-30.4,8.5-45.8,11.7-14.4,3-19.6,2.5-33.8-.6s-29.4-7.8-43.9-12.2c-2.8,17.5-4,35.7-2.5,53.5.3,4.1,2,9,2,13s.4,3.5-1.5,2.5-4.3-8.6-5-11c-5.7-19.8-2.7-41.5-4.6-61.9h-.3Z" class="outline" fill="#000000"/></g><g class="trait-group" data-category="head">
</g>
<g class="trait-group" data-category="mouthpiece"><path id="fill-mouthbit-main1" fill="#fff" d="M1250.4 1610h16.5c.9-5.6-1.9-10.6-2.7-15.8-1.8-11.1-2.1-24.7-7.1-34.9-1.9-3.9-3.6-5.9-8.6-4.2-1.9.6-1.4 6.2-5.5 0 2.4-17.1 0-34.8-6.1-50.8 8.1-.8 15.8 11.1 20 13 1.3.6 6.2 1 6.9.4.4-.3 2-8.1 2.1-9.4 1.4-14.6-30.9-59.9-43.8-59.8l-74.1-9.7c-7.1-1-54.5-2.4-56.8 1.2-2.4 3.8 4 13.9 5.4 17.8l-44-6c-10.1 1.9-18.5 7.9-27.2 12.8-9.6-3.8-17.4-11.3-27.9-12.8l-44.5 6c-.6-.6-36.4-19.8-50.9-18.9l-25.8-4.1c-12.2-.2-96.9 45.4-92.3 73.5 0 1.3 1.7 9.1 2.1 9.4.7.6 5.6.2 6.9-.4 4.4-2 11.8-14 20-13-6 14.4-7.2 29.7-7 45.1 0 4.3 2.9 6.7-2.9 9.5 0-4.4-3.6-5.1-7.4-3.8-5.7 2-7.9 25.7-8.8 31.2-.6 3.3-5 22.5-3.9 23.6h-.2 16.5c2.9 0 11.9-4.3 15-5.9 5.9 8 5.5 18.2-1.5 25.4-2.7 2.9-14 8.6-14.5 9.4-.6 1.1-.8 6.6-.4 7 .4.5 10.7 2 12.4 2.1 9.4.7 19.3-.2 28.5-2-7.8 25.2-11.3 57.3 6.5 79 1.2 1.5 9.6 10.1 10.5 10.5 8.4 3.7 7.1-3.1 9.5-8.5 3.7-8.4 9.2-18.5 17.5-23 2 6.6.4 13.6 1.1 20.4 1.9 19.2 14.6 38.6 28.9 51.1 4 3.6 12.2 11 17.4 9.6 2.2-.7 1.4-18.1 3.1-21.1 4.7 6.3 8.8 13.1 14 19 12.4 14.3 25.7 21.7 33.7 40.3 1 2.1 3.2 10.8 3.8 11.2 3.2 2.3 12.9-1.7 15.6-4.5 1.3 0 3.4 8.9 4.3 10.7 1.5 3.2 12.9 16.9 15.6 18.4s6.4 1.5 9.1 0c1.1-.7 10.2-10.9 11.4-12.6 4-5.5 5.6-10.6 8.5-16.5 3 2.8 12.1 7 15.6 4.5.8-.5 2.7-8.4 3.5-10.5 8.1-19.3 21.3-26.2 34-41 4.8-5.6 8.6-12 13-18 2-.5 2.3 5.4 2.4 6.6.6 6.2-2 17.4 8.1 12.9.6-.3 9.6-7.8 11-9 14.7-12.9 26.9-32.3 28.9-52.1.6-6.5-.9-13.2 1.1-19.4 7.7 4.7 14 14.7 17.5 23 .7 1.8 1.5 6.8 2.4 7.5 6.2 4.4 17.9-9.5 20.9-14.2 14-22.1 10.4-50.5 3.2-74.3 9.2 1.8 19 2.7 28.5 2 1.7 0 12-1.7 12.4-2.1s.3-6-.4-7c-.4-.6-6.2-3.1-7.8-4.2-12.7-8.8-15-15.9-9.7-30.8.7-.6 13.7 6 16.5 6zm-305.8-27.8c-1.5-.3-2.9-.6-4.4-.7.9-1.3 1.8-2.4 2.8-3.5.5 1.5 1 2.9 1.6 4.2m179 41.6c-.7 17.4-6.6 34.1-16.8 48.1-5.1-8.8-11.8-16.7-19.6-23.2-3.3-2.7-7.3-1.9-9.9.4-1.7.7-3 2.2-3.5 4.6-1.3 6.8-5.4 12-9.6 17.3-3.3 4.1-6.5 8.2-9.8 12.3-14.5-7.2-39 9.3-53.7-3.6-10.5-8.5-23.7-14.2-31.9-25-2.4-3.2-7.8-5.3-11-1.4-3.5 4.2-6.6 8.5-9.4 13.1-2.4-3.3-4.6-6.7-6.3-10.4-3-6.3-4.4-13.3-7.2-19.7-2.8-6.6-7.3-11.8-12.6-16.5 3.1 1.2 6.3 1.9 9.7 1.5.8-4.3-1.1-8.6-1.1-12.5s.7-8.6 2.2-13h.4c8.2-.9 15.5 2.7 22.9 5.7 7.5 3.1 15.2 5.7 23 7.9h.3c3.1 1.4 6.2 2.8 9.2 4.3 3.1 1.5 19.5 11.1 22.8 8.3 0 0 6.3-42 10.6-39.4 6.2 3.6 12.5 39.2 13.5 40.7s47.5-19.8 53.7-23.9c8-5.3 14.2-12.3 17.8-21.2 9.8 12.6 12.6 27.4 10.5 43 2.3.2 4.4 0 6.6-.6-.5.9-.9 2-.9 3.3h.1Zm9.9-6.3c-.2 0-.5-.2-.7-.2.3-.2.7-.3 1-.5 0 .2-.2.5-.3.7" class="fill" data-original-prefix="fill"/></g><g class="trait-group" data-category="mouthpiece"><path id="outline-shading-moutbit" fill="#000" d="M1246.3 1591.4v-.2c-3-11.7 7.6-19.1 7.7-30.8 1.2-11.6-4.3-22.9-2.7-34.4.8-5.6 4.3-10.1 7.9-14 12.5-12.2.2-30-5.7-42.5-8.2-12.9-4.5 1.2-4.9 8.2-4 15.5-18.9 9.2-18.3 33.2-3.9 15.5-22.8-23.8-26.8-27.5-3.8-5-5.8-6.7-6.5-6.6-1.2.2 19.2 36.4 21.4 50.5 2.3 10.8 3.5 44.8-14.7 12.5-31.2 9.1-23.6-26.5-35.8-30.3-3.5 1.8 0 7.7.3 10.9 2.2 7.8 4.6 18.7 4.2 28.5 0 5-1.7 19.7-9.2 14.7-2.7-1.5-12.4-28.2-15.6-27-.8.3 11.8 44.7-4.7 56.6-18.3 9.9-23.1-27.9-38.1-25.6-5.5.3-10 4.6-15 6.5-14.7 3.9-12.2-30.4-19.5-37.7-2.8-3.6 7.4 64.5-9.4 47.4-3.7-6.3-4.9-15.6-7.5-22.4-.3-.5-.6-1.3-1.1-.9-2.4 8.2.7 26.8-4.1 34.4-20.7-24.8-32.3-125.4 2.7-136 17.4.5 31.9 50.1 31.6 48.4-3.2-25-10.2-44.2-13.3-48.5 15.2-2.3 32.9 4.3 44.9 13.1 6.2 4 24.6 31.3 21.4 24.9-4-8-10.8-28.3-13.8-32.3-3.7-6-4.3-11.1 1.5-16 17-12.1 31.9 40.5 37.3 41.4s-12.8-29.7-20.5-39.2c-2.9-3.3-8.8-8.9-.6-8.5 9.1-1.2 34.8 34.2 32.8 25.9-7.8-31.7 25.4-19.9 38.5-6.1 4.6 3.7 8.7 21.8 21.7 25.3-9.6-6.4-15.4-27.7-19.2-31.5-1.3-1.8-4.3-3.5-4-5.7 1.8-1.7 6.6-1.1 8.2-2.7 2.1-3.2-5.9-4.3-8.1-4.9-12.9-3.2-25.7-4.3-38.9-2.6-9.4-.6-20-4.1-29.3-4.3-1.1-.3-.5-.6.4-1.3 7.6-4.7-6.3-4.2-9.5-3.4-10.5 2.6-21.7 2.9-31.6 7.3-6.3 3.1-8.9 8-14.8 10.3-4.6 1.8-9.8 2-14.8 1.7-34.6-3.1-77.9 1.5-112.5 1.9-23.9 2.5-34.9-20.8-57.5-17.3-6.8 1.3-13.9-.8-20.8-1.5-14.7-.9-42.4 10.2-64.7 23.9-17.5 11.4-41.8 26.4-33.6 49.1 3.3 7.2 12.7 10.9 14 19.7 2.5 10.5-2.6 20.9-2.8 31.3-1.8 14.4 19.5 32.1 1.1 41.8-17.1 9.1 8.7 8 15.2 7.3 15.7-3.3 22.9 2.7 37.5 5.5 7.4.6 16.6-.7 22 5.5 7.3 8.1-1 25.4 1.1 32.2 16.6-27.5 29.6-12.6 31.9-9.9-5 10.2-5.2 28.2-.8 36.1 3.9-.9 19.2-42.2 20.9-23.6.5 13-6.4 28.9-3.7 42.2.5.8 4.1-13.6 5-18.1 4.4-22.7 9.3 2.1 33.2-1.3 24 3.5 23.5 56.4 21.8 73 9.3-30.5-1.9-36.5 9.4-49.6 6.6-5.1 17.2-.3 23.7 5.2 7.9 7 9.9 18.1 12.7 27.7 4.7 17 5.9-19.2 8.9-22.4 3.9-12.4 23.5-16.7 28.3-3.1 5.7 13.8-2.6 31.5 1.9 45 1.6 2.6 7.3-29.5 8.5-42.8.5-27.5 4.7-29.8 31-31.8 18.7-6.3 17.3-19.3 30.6 3.3.7 1.1 1 1.6 1 1.3-.5-3.1-2.7-8.8-4.8-14.3-1.9-4.5-4.3-10.7-7.9-13.3-.2 0-.4-.2-.6-.3 1.2-1.9 2.3-3.9 2.9-6.2 1.2-4.1 1.5-9.3 6.1-10.9 1.5-.5 3.1-.6 4.7-.6 6.8 2.2 13.8 14.1 18.3 24.8 1.4-15.6-2.6-26-5.2-31.6 5.7-4.7 14.7-10.7 22.5-5.5 7.1 8.6 14.5 43.2 12.7 30.9-1.3-11.4-3.7-24.4-.5-35.3 2-7.7 10.8-6.2 17.5-6.5 10-1.3 18.4-6.5 28.2-6.3-1 4.8-.8 10 .2 14.2.9 3.2 4.4 13.5-2.6 9.3-3.7-2.2-6.5-6.8-10.5-8.5-1.8-.6-2.2 5.3-3.3 7.2-2.9 5-6.7 10.7-5.5 17.5.6 17.1 2.2 35.8-4.1 51.8-1-6.9-9.7-28.4-13.1-33 4 14.6 3.9 38.2 1.9 48.1-2.6-1.7-7.2-8.9-9.5-11.3-4.2-3.9-8.5-9.5-14.4-10.1-3.8.3-4.1 7.4-6.4 14.9-2.9 8.9-6.7 19.4-12.3 26.8 1-20.8-.4-26.5-2.5-34.8-2.6 10.2-3.8 45.7-18.5 55 1.1-6.5 4.7-49.2-.7-62.3-3.8 39.1-.6 66.9-36.4 89.5-5.3 3.6-21.6 2.7-22.6 4.3-2.4 4.7-2.1 10.7-3.9 15.8-7.6 19.5-9.9-12.3-11.4-18.4-1.7-12-5.1-22-5.3-19.7-1.1 21.9-8.6 56.3-15 71.5-5.1 11-7.3 9.2-6.4-2.1.4-15.7 2.7-39.3-1.4-46.3-5.2 5 .4 77.4-11.1 43.8-1.9-5.4.2-16-6.6-17.2-9.9-3.9-1.4-42-7.9-49.1-3.4 14.7 1.6 55.6-7.5 52.8-3.6-2.4-6.9-10-9.9-14.2-5.9-8.5-10.5-17.9-14-27.7-4.2-9.9-11.1-18.8-14.8-28.8-3.1-5.7-7.5-23.4-9.6-30.9-1.1 5 0 15.3.6 21.7 1.3 8 3.2 15.9 5.1 23.8 8 27.6-7.7 6.9-18.3 0-17.4-5.6-15.4-36-15.4-36s-6.7 7.2-6.5 22.3c-2.7.5-6.2-4.7-7.7-8.5-8-14.7 6.2-34.6-1.3-48.8-1.5 5.9-4.2 20.6-6.2 23.3-5.1 18.6-7.4-20.4-15.2-19.5-12.8-1-4.2-23.3-4.2-32-10.6 18.7-18.6 31-21.6 51.7-2.8 0-5.7-6.1-6.8-9.3-6.5-17.1-5.8-40.5-5.7-58.9 0-3-.3-6.4-1.9-8.7-4.6-5.3-11.6-2.4-19-2.3-6.3.8-23.2-1.2-22.3 6.5 5.4 6.3 20.7 3.2 30.4 3.8 15.9-1.9-15.4 49.5 18.5 83.2 3.5 3.3 9.1 7.8 13.4 3.9 3.5-2.4 15.6-34.4 20.8-16.5 2.6 25.1 13.1 47.5 33 63.7 19.7 15 13.5-12.8 23.3-5.8 14 15.4 31.2 30.9 40.5 49.2 6.3 14.4 8.3 11.6 21.3 15.2 9.1 6.4 13.4 24.2 26.5 23.4 11.9-1.6 15.9-17.3 24.3-23.5 3.3-2 7.4-.9 10.9-1.9 5.8-1.8 8.1-8.3 10.7-13.4 7.9-16.2 22.9-28.7 34.6-42.7 2.5-2.5 6.8-9.1 10.3-5.6 3.9 6.2 5.3 14 14.4 8 17.7-12.2 34.1-36.1 36-58.8.8-7.3 1.5-19.8 9.8-11.3 6.7 6.1 7.6 18.6 16.3 20.3 28.5-8.8 28.9-50 23.6-76-3-10.8 1.4-12 11.1-11.3 6.8-.3 28 2.9 23.8-7.8-3.1-5.7-9.9-9.6-12.7-15.5-2.2-3.5-2.2-8.3-1.9-12.9 6 .3 26.5 1.8 24.6-2.9-3.5-3.2-12.5-6-14.2-12.4h.5Zm-320.3-9.1c-3.8 6.6-9.5 17.5-14.5 7-2.4-5.4-2.8-12.5-3.8-18.1-1-6.4-2.5-11-7.9-5.3-2.6 2.8-5.2 6.7-8 9-16.6 12.5-14.1-34.9-10-46.9 1.1-5.9 9.6-21.6 5.9-25.8-13.1-6.1-21.4 69.9-55.7 45.4-14.1-18 11.5-50.5 21.4-63.9 3.6-4.4 9.5-12.7-.5-4.7-10.6 8.6-18.4 20.6-27.2 30.8-7.2 8.4-11.6 3.5-8.5-6.7 2.4-8.3 8.5-16.9 12.3-24.4 6.4-14-24.5 12-30.9 5.7-7-13.6 71.7-46.8 83.4-45.4.3.8-.4 1.7-.8 2.4-1.8 2.8-5.5 7.8-7 11.8-1.4 3.5-.8 4.6 1.8 2.9 6.5-4.7 14.7-12.1 22.6-12.6 15.2-.4 2.6 16.6-1.3 23-1.3 2.3-9.1 13-7 13 10.5-6.5 22.6-29.5 31.8-26.5 9.6 4.4 3.9 19.2.9 27.2-1.2 4.1-8.6 19.6-5.7 21.9 3.3 0 8.1-8.6 10.2-11.3 1.9-2.8 3.8-5.4 6-8 7.3-8.7 16.4-16.1 26.9-20.2 8.8-3.4-11.6 34.5-10.6 38.3 10.5-21.3 22.1-30.8 26.5-37.1 2.3-3.1 6.2-3.3 6.8-1-3.9 7.1-9 25.1-16.4 67.2 13.2-34.5 24-61.8 26.2-64 2.6-2.9 8.1-4.7 9.8-.4 1.6 3.8.5 8.5.7 12.7 0 2.2-3.4 14.7-.8 11.2 1.9-2.6 6.6-14.8 7.6-18 .5-1.2.7-3 2-3.6 15.3 8.9 5.4 127.2-8.5 126.8-39.3 10.7-17.8-51.5-12.3-77.4.2-1.8.2-2.7-.6-1.8-1.5 2.1-4 8.4-5.7 13.1-2.3 6-4.4 11.5-6.3 17.6-3 9.4-4.9 21-10.2 28.2-4.7 6.1-8.9 1.8-8.9-4.8-.4-6 2.3-13.9 2.8-19.4.5-11.2-27.2 19.7-28.8 21.8-2.8 3.2-5.2 6.7-7.4 10.4h-.2Zm146.3 79.6c-9 13.8-20.2 20.4-36.8 21.2-14.3 2-29.6.8-42-5.9-12.4-5.4-17-25-27.9-31.6-11.2-3.9-19.8 38.1-30.3 12.5-6.9-18.8-13.9-56.2 13.4-54.3 14.2 2.6 28.8 11.8 42.3 13.2 18.4 3.4 18.3-18.2 31.2-20.8 4.5.5 5.8 5.3 7.2 9.2 11 43.8 60.2-23 78.6-19.3 13.6 6.6 4.1 32.7 13.7 43.4-.5 7.2-2.7 14.1-6.5 20.3-1.7 2.7-3.5 5.2-4.7 8.1-.3.6-.5 1.1-.7 1.7-.9 1.5-1.7 3-2.4 4.7 0 .4-.2.7-.2 1-.2.4-.4.8-.7 1.2-15.4 6.9-12.3-35.7-34.1-4.7h-.1Zm-206 40.7c0-.4.2-1.3.2-1.8s0-.2 0 0c0 .4 0 1.5-.3 1.8Z" class="outline" data-original-prefix="shading" opacity=".2"/></g><g class="trait-group" data-category="mouthpiece"><path id="outline-mouthbit3" fill="#000" d="M1155.3 1597.4c-8.9 5-25.4 14.5-34.9 18.7-.2-4.9.9-9.6.5-14.5-.5-6.4-3.7-15.5-6.8-21.2-1-1.9-7.7-13.3-10.2-9.7-1.9 2.8-3 8.5-6.1 12.7-4.4 6.1-8.1 9-14.6 12.5 0 0-2.3-48.1-23.8-84.1-.2 6 18.9 32.1 12.8 86.8-7.3 3.3-26.7 14.1-32.8 18.9-11.7-12.5-15.6-52.6-17.3-52.5-1.8 0-7.4 32.6-16.6 48.2-8.8-3.6-19.9-6.9-27.2-9.1-4.7-27.7 15.8-93.7 16-99.2-3.4 2.3-26.1 72.5-26.3 96.6-6.8-2-18.2-4.8-24.6-8.8 0-9.9-2-25.5 10-50.9-10.7 12-17.6 29.9-24.2 74.4-6.8-3.5-18-4.5-25.1-7.9 1.2-1.2-10.1-22.3 5.6-58.1-1.8-1.1-8 10.7-12.4 23.9-1.8 4.9-3.2 9.9-4 15.4-.6 3.6-.9 6.9-.7 9.7-5.2-3.5-10-7.6-13.7-12.9-10.5-14.8-12.6-31.2-6.7-48.3-16.7 9.3-34.6 41-18.7 67.8 3.8 6.5 1.7 0 1.4-1.4-3.1-12.8-5.5-14-.7-27.8l4.8-8.7c-.4 20.4 22.6 31.7 34.1 42.8 1.6 4.2.4 3.6 1.8 6.2 11.2 4.2 27.3 8.5 27.3 8.8.2 0 4.1 7.1 6.8 16.2.9 5.9 1.1 14.5 3.8 19.7.6 1.2 5.6 7 9.7 11.4-.4.7-3.1 36.5 3.2 48.3-3.1-23 5.7-48.2 4.9-49 3.1-8.3 6.7-16.4 13.5-22.4 3.3 15.6 20.9 30 29.4 35.4-.7.8.5 54 10 68.3 0 0-13.1-43-2-67.9 2.2-7.4 11.7 9 22 6.4 1.9-.5 3.6-.3 5.5 0 7 1.3 14.9-16.7 17.5-7.3 2.9 9.3 1.1 55.2 1.1 55.2 5-15.3 6.4-53.2 5.9-54 10-5.4 30.5-22.9 30.6-36.4 8.4 7.3 10.7 17.2 14.9 26.6.3.6-.2 2.2 1.6 1.4.5-.3 9.5-11.5 13-15.4 8.9 8.5 16.8 30.6 15.1 46.1 7.2-27.1-10.5-54.2-10.8-54.8 2.4-8.7 5-21 5.8-25.3 1 .5 22.5-11.1 40.6-25.9-5.3-25.7-21.2-78.6-30-88.2 1.3 13.6 22.3 55.1 17.6 85.2zm-52.3 61.5-14.5-19c-3.5-2.2-5.9-5.7-10.5-5-1.6 15.9-11.9 28.5-24 38-2.1-6.5-21.2 4.8-27.1 5.9-10.8-.3-29.5-14.2-33.4-5.8-9.8-8-16.1-15.2-21-27-1.9-4.6-1.1-12.9-7.5-10.5s-15.8 17.6-19.5 23.5l-8.6-28.4c5 .6 1.4.2 6.7.7-3.1-6.9-1.6-13.7.2-21.4 13.1 5.3 58.8 17.4 72 20.8 3.2-.7 3-24.4 5.6-33.5.6-1 9.1 34.7 9.1 34.7 6-.9 25.2-8.3 43-17.1 14.3-7.1 27.7-15.2 32.6-21.5 0 0 6.9 21.8-5.1 41.6 5.4-.4 4.6-.6 9.6-2.1l-7.5 26.1Z" class="outline" data-original-prefix="outline"/></g><g class="trait-group" data-category="mouthpiece"><path id="outline-moutbit2" fill="#000" d="M1175.5 1538.1c17.5 33.9-3.8 51.1-4.7 59.1 10.5-9.6 18.6-20.1 18.4-29.3 3-2.2 5.8 20.8 4.5 38 11.3-3.8 16-46.9-18.2-67.8" class="outline" data-original-prefix="outline"/></g><g class="trait-group" data-category="mouthpiece"><path id="outline-mouthbit1" fill="#000" d="M1282 1608.4c-11.7-16.8-8.3-42.2-19.4-61.6-2.2-3.8-8.1-9-8.6-9.9-.9-1.6-.6-11.4-2.2-14.3 3.6-.2 7 10.1 8.5 10.5 5.2 1.2 11.6-23.3 12.1-28.4.8-8.2-9-32.1-43-65.3-22.2-4.9-77.2-6.6-78.1-6.7 0 0-.2-1.6-1.5-2.4-3.8-2.5-43.7 3.7-59.6 7.7-3.7 1.4-7.4 3.3-6.3 8.9-17.1-1.1-27.9-11.9-45-5.5-3.5 1.3-12.3 7.1-14.7 7.3-3 .3-17.1-9.4-24.8-9.8-6-.4-32.8 7.9-35.5 8-5 1.9-9.4 5.7-10.7 2-.7-2.1-13-9.3-15.6-10.3-15.9-5.8-19.2-11.7-32.9-10.3-3.4 1.4-6.7 3.1-8.8 5.3-3.3-1.8-17.9-7.9-21.3-6.3-70.3 33.2-117 56.8-96.1 95.5 1.1 1.8 7.3 11.5 9.5 10 1.3-3.4 3.7-6.8 5.8-9.7.3-.5 1.6-3.2 2.2-1.8-1.6 4-1.1 10.2-2.2 13.8-.4 1.2-6.3 7.4-8 10.1-12.3 20.1-8.4 51.1-23.8 66.2-.9.8-1.5.9-1.1 2.4 14.4 3 29.6 8.9 44 3-2.3 8.1-9.4 13.2-16.6 16.8-3.1 1.6-10.6 3.4-12.7 5.1-.8.7-1 1.6-.6 2.1.6.8 15.3 8.4 17.3 9.2 9 3.7 22.2 4.6 31.7 2.8-4.1 16.3-6.9 36-.5 52 7.9 19.8 29.8 28.5 42 45l2-3 5.5-27.6c3.1 20.5 16.9 51.5 34.1 63 5.8 3.8 13.2 6.4 18.4 10.6 2.9 2.4 9 11.5 10 12 1.8.9 1.6-1.4 1.8-2.2.4-1.5 1.6-5.2 1.7-6.3h-.4c.5-5.2-.4-11.2 0-16.5 20.1 18.8 38.3 42 38 71 .9 1 9.6-7.4 11.1-8.4 1.2-.8 8.2-5.2 8.9-4.6-1.1 5.9 25.3 33.3 27.4 32.9 8.7-10.7 22.7-19.6 26.7-32.9 1.8-1.6 15.2 10.5 17 11.5 1.3.6 1.9.7 2.6-.5.6-.9 2.7-17 4-21 3.5-11 10.3-21.7 17.5-30.5 4.8-5.8 11.6-12.2 17-17.5v17.5c0 .3 1.4 4.3 1.7 5.3.3.8 0 3.1 1.8 2.2s7.7-10.4 11-13c3.8-2.9 8.5-4.1 12.4-6.6 20-12.8 34.4-30.6 39.1-54.4l5.9 17.6c0 1.2.4 1.9 1.6 1.4.7-.3 8.4-9.6 10.5-11.5 9.1-8.5 19.7-14.6 26.8-25.2 12-18 8.8-40.4 4.2-60.3 18.2 4 33.7-3.3 49-12 .5-2.2-.3-1.6-1.3-2.2-2.8-1.8-7-2.4-10.1-3.9-7.7-3.7-16.4-8.9-18.6-17.8 4.5 1 8.6 3 13.4 3s29.5-4.9 30.6-6c1.2-1.1-3.6-3.8-4.8-5.6Zm-31.1-3.7h-.2c-6.3-1-12.2-5.6-18.1-7.7-7.1 9.2-7.9 23.8 0 32.9 4.2 4.9 10.8 6.8 15.4 11.1-14.7 4.1-28.6 1.6-43-2 1.7 11.1 6.9 21.3 7.9 32.6 2.1 24.4-4.2 43.8-23.4 59.3-2.9-7.2-4.6-13.4-9.1-19.9-2.5-3.5-11.6-14-14.9-16.1-1.2-.7-1.9-1.2-3.5-.9 1.3 7.5.8 16.8 0 24.4-2.8 22.6-13.3 38.2-29.9 53.1l-12 9.5c-.5-4.9.6-10.8 0-15.5-.3-1.8-2.8-8.8-3.8-10.3-.6-1 0-1.8-2.2-1.3-4.8 13.2-14.5 23.1-24.3 32.8-8.3-24.3-4.3-48.5-7.4-74.2-.8-6.4-1.3 80.4.8 80.8-10.1 10.3-19.3 21.1-22.1 36.2-1.3 1-5-1.3-8.4-3.4 1.2-14.6 1.5-29.2.8-43.9-.3-6.4-10.6 46.4-10.1 47.1-.7 2.2-1.3 4.5-1.8 5.6-1.6 3.2-15.3 20.4-17.9 19.9-4.8-4.9-11.4-10.2-15.1-16-3.3-5.2-4-10.8-7.1-15.9-1.8-.4-11.9 8-15.4 7-.2-2.9-1-6-1.9-8.9v-.9c-1.6-27.9-36.2-79.3-32.8-73.8 10.1 16.8 17 35.1 20.5 54.2-7.6-8.5-16.8-15.7-24.2-24.6-5.7-6.9-10.2-14.5-15-22-5.9 8.1-3.7 17.8-5.5 27l-24-22.5c-14.9-18.3-20-41.4-17-64.5-1.4-1.2-11.1 4.6-12.5 6.1-3.1 3.3-2.9 1.7-5.3 6 0-16.9 3-24.8 3.5-34.1-5.6 9.4-11.1 43.5-9.9 49.7-1.2 3.1-2.2 6.2-2.8 9.2-25.6-19-27.6-46-20.7-75.2 1.3-5.6 4.7-10.7 3.7-16.8-14 4-27.7 5.8-42 2 8-5.8 19.4-11.5 20.9-22.6.5-3.8-1.9-21.4-6.4-21.4s-7.7 4.3-9.8 5.2c-7.2 2.9-12.9 3.3-20.7 2.8 7.1-16 3.8-34.4 13-50l9.3 16.7c-1.1-7.7-.8-19.1 1.4-36.1 1.8-13.5 5-27 10-39.5-11.2 2.3-21.8 8-29.3 16.7-11.6-31 78.7-73.7 92.8-76.5l9.6 4.5c-.5 0-14.6 15.1-18.4 34.4 12.6-27.5 25.6-30.7 32.5-34.5 0 0 .9-.4.9-.5l33.1 15c0 3.4-23 41.5-24.3 60.5 24.6-54.5 39.3-55.1 40-56.6 11.9-1.1 31.3-6.4 41.4-5.4 6.4.6 11.8 4.1 18.9 9 7.4 15.1 5.6 86.3 7.4 98.8 3-6.9 1.2-79.3 9.6-98.4 7-5.5 11.5-6.7 19.7-9.7 4.4 0 25.2 3.8 38.5 5.2.5.9 20.4 6.3 47 42.1.7-.4-1-3.3-3.9-7.6-14.9-27.2-28.1-36.2-29.7-35.5-1.7-2.6-2.9-5.4-2.5-8.8l41-9.3c2.5 1.7 27.1 25.4 33.5 40.1 3-1.8-5.9-26.5-11.6-34.2 26.1-.7 58.4 5.8 57 6.6 14.3 13 45.3 41.6 39 61.1-8.2-8.3-18.4-14.5-30-17 3 8.3 6 16.1 7.7 24.8 2.9 14.9 6.1 37.2 1.7 54.1 1.5-2 2.9-4 4.2-6.2l7.6-13.9c8.7 15.7 6.6 33.4 12 50-4.1-.2-8.2.4-12.3-.2v.2Z" class="outline" data-original-prefix="outline"/></g></svg>