<?xml version="1.0" encoding="UTF-8"?>
<svg xmlns="http://www.w3.org/2000/svg" viewBox="0 0 2048 2048">
  <style>
      .outline { fill: #000000; }
      .fill { fill: #FFFFFF; }
      .shading { fill: #aaaaaa; opacity: 0.5; }
    </style>
  <g class="trait-group" data-category="background" id="background-brown">
      <path id="color-brown" fill="#564624" d="M2048 4.5q-.15 1019.4 0 2038.8c0 3.8-.8 4.6-4.6 4.6q-1019.4-.15-2038.8 0c-3.8 0-4.6-.8-4.6-4.6C.2 1362.3.1 681.2.1 0h2043.3c3.8 0 4.6.8 4.6 4.6z" data-original-style="transition:fill .3s ease" style="fill: #564624" class="color"/>
    </g><g class="trait-group" data-category="jaw" id="jaw-OG-cracked">
      <!-- Generator: Adobe Illustrator 29.1.0, SVG Export Plug-In . SVG Version: 2.1.0 Build 142)  -->
  <defs>
    
  </defs>
  <path id="fill-jaw" class="fill" d="M1396.7,1438.7c-6.7,4.3-46.8-1.7-48.7.3l-12.2,69.8-57.2,29.3-1.4,1.6c-1.5,11.9,1.5,24.2.9,35.9-.3,4.9-1.3,15-2.3,19.7-.6,2.8-13.7,32.2-15,33.5s-16.1,8.9-16.7,8.3l-9.5-50-51,52c-7.7,5.7-20.7,9.3-27.5,15.5-14,12.7-25.2,37.4-42.1,47.9-5.4,3.3-61.3,25.7-66.7,26.3-13.8,1.7-33-3.3-47.7.2-17.7-10.3-50.1-16.2-66.1-26.9-14.3-9.6-28.3-35.6-41.4-47.6-6.7-6.1-19.9-9.6-27.5-15.4l-51-52-9.6,48.4c-.6.9-.9,1.7-2.2,1.5-.8,0-13.8-7.6-14.4-8.2-1.4-1.4-15.9-33.3-16.2-35.3l-.5-54.4-58.2-30.3-12.3-69.7c-8.1-1.2-45.1,3.9-49.5-1l-37.1-85-.5-3.4,31.5-70.6c5.3-1.6,29.1,0,31.3-6.7.8-2.3-.6-19.5-1.3-22.4-2.2-8.4-16.2-24-19.8-33.2-.7-1.7-1.2-3.1-.6-5,4.7-11.3,10.3-22.3,14.1-34,7.3-22.4,7.2-42.6,16.9-65.1,47.5-110.2,188.9-176,299.9-200.1,44.7-9.7,79.8-1.5,122.7,11.2,98,28.9,222.6,97.5,259,199,6.8,19,7,38.1,13.5,57.5,3.8,11.2,10.1,22.1,13.7,33.4,0,1.4-8.3,16.4-9.8,19.1-2.4,4.3-9.7,13.4-10.7,17.3-1.8,6.8-.6,15.6-2.3,22.5,9.9,7.9,21.3,4.2,32.4,6.5,9.6,23.9,23.5,46,31.4,70.6-9.8,26.3-22.2,51.8-33.2,77.7-1.3,3-1.7,9.3-5.1,11.4h0Z" fill="#ffffff"/>
  <path id="shading-jaw" class="shading" d="M1380.8,1185.8c-.2.4-2.1.7-2.8,1.7-8.6,10.8-16.2,26-21,39-4.2,11.4-5.1,22.7-13,32-18.8,22.4-51.8,45.5-78.3,57.7-5.4,2.5-12.5,3.7-16.7,7.8h20.5c2.7,0,5.1,1.2,7.9,1.1,18.1-.2,64.4-19.8,77.5-32.6,5.7-5.5,14.1-15.7,15-23.5,1.8,0,.7,2.4,1.5,4,3.1,5.9,15.5,5.2,21.5,6,.2,1.6-1.5.7-2.3,2.2-4.6,8.3-4.4,21.6-10.6,28.3-7.5,8.1-37.1,13.5-48.8,17.2-14.5,4.6-29.8,8.8-42,18.1l-52.8-14.8c-19.3-2.3-9.9,15.4-5.3,25.3,5.2,11.3,20.7,40,30.4,46.6,11.9,8.2,22.7-10.2,30-17,6.3-6,16.2-11.8,24.6-14.4,17.7-5.6,32.3,4.7,50.5,5.4,17.4.8,34.6-7.7,48.8-17.2,3.6-2.4,14.6-13.9,17.2-13.8,1.7,0,3.3,6.1,1.8,7.8-10.1,24.3-21.6,48-31.8,72.2-3.7,8.8-.8,14-13,15-9.3.7-15.8-1-24.2-1.8-4.8-.4-11.8,2.5-17.3-.2l-12.9,70.6-59,30.5c.4,11,2.6,23.6,2,34.5-.3,5.7-1.3,15.4-2.1,20.9-.5,3.1-13.4,31.4-15.4,33.6-3,3.2-11.6,6.2-15.5,9-.8-4.9-2.7-10.6-3-15.5-.6-11.2,2-11.3-2.7-23.2-.4-1.1-1.9-1-2.2-2-.8-2.2-.8-6.7-1.1-9.2l-2.3.2-50.2,51.8c-7.7,5.2-19.5,8.7-26.5,14.5-14.2,11.7-24.4,36.1-41.5,47.5-6.7,4.5-54.2,25.7-61.2,26.8-9.9,1.5-51.8,1.6-61.5,0-6.9-1.2-49.7-20.5-57.3-24.7-15.8-8.9-30.2-37.8-44.4-49.6-6.9-5.7-19-9.3-26.5-14.5l-51-52c-1,8.1-7.3,16-8.1,24-.6,6.2.6,14.6-.3,21.6-.2,1.7-3,1.8-2.1,4.4-.6.7-14.6-8.1-15.5-9-1.7-1.8-15-30.8-15.4-33.6-.7-4.4-.9-13-1.1-17.9-.5-12.2.6-24.4.5-36.6l-58.5-31.4-13-69.5-48.8-.2-38-86.6.9-6.2c8.2.4,11.8,8.2,18.6,12.7,25.3,16.9,38.4,19.8,68.5,13.9,17.1-3.4,19.1-7.5,37.2.4,15.9,7,19,16.2,30.6,25.4,9.6,7.6,13.6,7.9,22-1s31.8-49.1,32.1-60c.2-8.7-6.4-8.1-13.3-7.2-8.6,1.1-48.4,15.1-51,14.6-1.7-.4-12.3-7.9-16.5-9.6-20.3-8.4-48.8-11.8-67.2-20.8-14.9-7.3-11.3-20.9-17.7-33.2-.9-1.6-2.5-.6-2.3-2.2,6.3-.9,17,0,21-5.5,1-1.4.3-3.7,2-3.5,3,11.7,15.2,23.9,25.1,30.4,21.2,13.8,50.4,23.7,75.4,23.5h20.5l-34.7-16.8c-19.1-10.8-48.2-33.1-61.8-50.2-6.2-7.8-7.1-18.3-10.5-27.5-6-16.6-14.4-32-25-46,1.3-9,6.5-19.6,7.8-28.2,1.9-12.9,1.8-19.5,6.5-32.5,36.4-101.1,159.2-169,256.8-198.2,49.9-15,102.4-18.2,153.2-5.2,103.5,26.4,242.6,100.3,277.2,208.8,3.4,10.5,3,17.3,4.8,27.2.8,4.7,8.9,28.4,7.6,30.6l-.5-.2ZM1195.9,1382.1c-32.3-16.1-63.1-35.3-95.9-50.7-17.5-18.7-37.4-36.6-54.6-55.4-4.8-5.3-11.2-16-16-20-3-2.6-7.4-3-10.6-.6-4.5,3.4-12.7,16.4-17.4,21.6-16.7,18.6-36.8,35.6-53.6,54.4-32.9,15.3-64,34.2-96,51.2-.6,2.8,12.4,35,14.6,40.3,2.9,7.1,12.1,31.7,16,36.1,7.1,8,36.5,26.3,47,33,19.8,12.7,36.1,22.9,59.3,28.7,27.3,6.8,39.7,7.1,67,.6s43-16.6,65.7-31.3c10.4-6.8,35.9-22.5,43.4-30.6,4-4.4,12.7-27.4,15.6-34.4,2.1-5.1,16.8-41,15.5-42.9M728.3,1496.7c1.6,2,8.2,6.3,10.7,7.8,14.7,8.8,31.8,13.8,46.9,23.1,16.8,10.2,40.2,33.1,59.6,33.5,2.3,0,8.7-1.2,9.4-3.7s-13.6-27.6-16.4-30.3c-7.3-7.1-27.5-17.2-37.2-23.8-15.2-10.3-50.3-39.1-67.9-39.2-10.5,0-8.7,28.1-5.1,32.7h0ZM1319.7,1466.3c-5.9-5.9-24.1,4.1-30.4,7.6-16.2,8.9-31,21.4-46.2,31.8-12.7,8.7-30.1,15.7-38.6,28.4-2.2,3.4-10.8,17.7-11.4,20.7-1.1,5.3,6.2,6.5,10.3,6.3,16-.9,23.4-9.7,35.2-17.8,9.2-6.3,19.3-13.6,29-19,11.7-6.6,47.1-19.2,52.7-29.3,2.4-4.3,2.8-25.2-.7-28.6h0ZM1126,1664c-12-2.7-20.7,6.6-31.6,7.9-5.7.7-12.2-1.2-16.6-.7-7.1.8-22.9,12.1-31.2,14.9-14.8,4.9-30.2,4.7-45.1,0-8.8-2.8-23.9-14.1-31.2-14.9-4.4-.5-10.9,1.4-16.6.7-11-1.3-19.9-11-31.6-7.4,0,6.9,23.8,23.5,30,27,12.5,7.1,59.8,26.8,72.5,26.6s59.9-19.8,72.2-26.9c10.3-6,24.6-16.2,29.3-27.2h-.1Z" fill="#aaaaaa" style="opacity: 0.5" opacity="0.5"/>
  <path id="outline-jaw" d="M676,1140c5.2-3.1,18.7-3.2,19.1,4.5,0,2.3-.8,11.2-1.1,14-.3,3-.9,8.4-2.1,10.9-2.5,4.9-17.3,13.6-20.1,19.9-1.2,2.6-6.4,25.9-6.7,29.3-.2,1.7,0,2.8.4,4.4,2.1,6.9,13.8,19.7,17.7,27.3,5.7,11,7.2,24.3,12,35s13.5,10.7,22.5,15.6,17.7,11.1,25.3,17.2c-3.1,0-6.3.2-9.4,0-7.7-.8-35.8-6.7-41.8-10-6.1-3.3-8.8-18.4-12.8-20.4-2.5-1.2-7,0-10.3-.7-6.7-1.2-9.9-7.8-17.5-1.5-6.7,12.4-14.3,24.3-20.4,37.1-7.4,15.4-14.8,25.1-4.8,41.2,5.2,8.4,23.4,27,25.6,34.4,2.5,8.4-2.4,27.4,2.4,33.6,5.4,6.9,20.6,5.2,27.7,1.7,11.1-5.5,9.2-10.1,14.9-19.1,5.3-8.3,20.9-24.3,30.4-26.7,7.7-1.9,12.3,10.3,14,16,4.9,15.9,2,31.2,13.9,44.1,1.1,1.2,9,8.5,10,7.5-.8-5.6,4.8-8.4,6.5-13,3-7.9-3.1-20.6-5-29-2.8-12.3-5.1-24.7-8-37-1-4.1-6.2-19.9-5.4-22.3,1.2-3.8,23.7-9.1,24.9-10.7.4-.5-2.9-8.7,0-12.6,1.3-1.8,8.8-6.8,11.1-8.9,3.9-3.5,23.1-22.9,25.7-23.4,4.4-.8,5.2,2.4,8,3.6,5.1,2.1,10.8,2.5,15.7,4.3,1.1.4,2.4.5,2.5,1.9-11.2,6.3-23.6,13-34.3,20.2-2.7,1.8-16.6,11.8-17.6,13.4-1.6,2.6-2.2,9.7-2.2,12.9l3,44.5c-9.8-13.1-8.1-31.3-10-47-2.5,1.9-15.3,3.5-15.9,5.6,4.5,18.6,8.6,38.8,15.1,56.7,7.3,20.1,19.2,40.4,27.7,60.3,11.1,7.8,27.2-5.8,33-15,5.6-8.7,8.1-23.6,22.5-13.5,11,7.7,22.9,21.4,33.5,30.5,48.3,41.3,92.1,59.6,157.4,50.3,40-5.7,69.7-25.7,99.7-51.3,6.2-5.3,32.4-31.5,37.5-32.5,11.9-2.2,14.8,13.8,21.4,21.5,7.4,8.7,17.4,14.2,29.1,12,4.4-.8,21.2-8.4,26.3-10.7,9.2-4.2,20.3-11.4,27.2-18.8,10.4-11.3,8.4-24,12-38,1.7-6.6,6.3-23.8,15.5-21.6,10.7,2.6,27.2,21,32.6,30.4,1.7,3,2.2,6.8,3.9,9.1,6.3,8.5,28.5,13.3,36,5.1,5.6-6.1.4-25.5,2.9-34.1s20.4-25.8,26-35c9.4-15.8.8-28.3-6.5-43.3-5.8-11.8-13.2-22.7-19.2-34.3-7.1-5.6-12.2.4-18.5,1.5-2.9.5-6.9-.4-9.3.7-3,1.4-6.8,14.4-9.5,17.5-1.4,1.6-7.6,4.3-9.9,5.1-8,2.8-25.7,6.6-34.3,7.7-3.4.4-6.8.2-10.2.2,6.6-5.5,15.7-12,23.3-16.2,11.5-6.3,19.8-5.1,25.5-19.5,3.9-9.8,5.3-20.7,10.3-30.7,3.9-7.7,16.9-22.6,18.7-29.4.4-1.7.2-2.8,0-4.5-.6-4.4-5.6-25.6-7.2-28.8-3.7-7.3-19-15.9-20.5-21.5-.8-3.2-2.6-24.3-1.6-26.4,2.1-4.5,12.7-3.4,16.5-1,.5,1.9,4.4,14,5,14.5,6.2,5.3,26.1,4.1,26.1,17s-1.7,15.9.2,26.7c1.7,9.8,9.7,22.5,6.4,31-2.3,6-12,20.9-15.9,27.1-3.6,5.6-8.1,10.6-11.8,16.2,8.8.3,18.9-17.9,26.1-12.1,3.4,2.8,13.7,18.6,16.7,23.3,5.1,7.9,10.9,17.6,15.1,25.9,3.9,7.8,17.4,38.8,16.1,45.8-.2,1.2-13,15.6-15.2,18.8-10,14.2-21.3,32.5-25.7,49.3-1.9,7.2-2.7,14.7-4,22-1,1.4-27.6,11.9-31.1,12.9-10,2.9-17.2,1.5-24.9-5.4-.9,8.8-2.6,17.7-3,26.5s1.7,33.1-.8,39.2c-.6,1.5-11.3,15-12.5,15.5-6.3,3-15.7-1.7-24.7,3.3-22.6,12.7-18.8,48.5-26.9,68.1-6,14.6-40.4,52.5-54.6,59.4-1.2.6-2,1.3-3.6.9,1.2-14.7,3-35.1-3.9-48.6-.4-.8-.4-3.2-2.1-1.4-.7.7-3.6,13.8-6.6,17.9-8.6,11.7-30.9,6.8-39.2,20.8-5.2,8.9-7.6,22.3-13.4,30.6s-48.5,28.9-59.6,33.4c-15.1,6.1-64.1,21.2-78.8,21.2s-63.4-15.1-78.8-21.2c-11.1-4.4-55.3-26-60.6-34.4-6.9-11.1-8.5-31.6-21.5-37.6-14.4-6.6-26.5-2.6-33.9-20.1-1.1-2.5-2.5-10.3-2.8-10.7-1.3-1.6-1.8.4-2.2,1.3-1,1.8-4.8,14.6-4.8,16.2v30c0,.3,1.4,1.4,1,2.5-1.7.2-3-.3-4.4-1.1-15.2-8.7-49.8-45.6-54.8-62.2-6.2-20.6-5.2-52.1-25.9-65.1-8.2-5.2-18.3-.3-24.7-3.3-.9-.4-12.2-14.2-12.7-15.3-2.1-5.2-.2-29.6-.5-37.4-.4-9.1-2-18.5-3-27.5-4,1.6-7.6,4.7-11.9,5.6-2.8.6-5.6.7-8.5.3l-35.7-14.3c-1.5-7.3-2.1-14.8-4-22-4.3-16.8-16.4-36.3-26.5-50.5-2.2-3-13.9-15.8-14.2-16.8-1.1-3.6.8-8.3,1.8-11.8,5-18.6,17.3-42.1,27.6-58.4,2.5-4,17.5-26.2,20.1-26.9,6.2-1.8,15.2,12.1,22.3,12.8.7-.7-9.3-13.3-10.4-15.1-4-6.2-14.5-22.3-16.8-28.2-2.7-7.1,5.4-22.1,6.9-30.5,1.9-10,.2-18.4,1.3-27.7,1.2-11,17.6-11.6,25.8-15.7,2.1-4.7,2-9.6,3.2-14.8h.4v-.2ZM799,1627.5v-20c0-3.5,9.1-26.6,11.7-27.4,6.9-2.2,27.9,17.6,32.8,22.9,7.6,8.1,14.7,20,23,27,10.5,8.8,23.6,12.8,33.5,23.6,22.2,24.2,21.6,36,55.1,50.9,29.5,13.1,59.4,23.9,92.4,17.4,12.7-2.5,58.9-21.3,68.9-29.1,12.4-9.6,23.1-31.8,35.2-42.8,9.6-8.8,25.5-14.6,34.6-23.4,6-5.9,12.7-15.8,18.4-22.6,2.8-3.3,8.4-7.2,10.3-10.7,4.4-8.2,10.5-40.4,10.3-49.8-.3-12.5-3.5-25.3-4.2-37.8-17.1-12.8-20.5-.4-31.4,9.3-16.5,14.9-41.1,22.8-63,25-69.4,7-135.6,7-205,0-22-2.2-46.4-9.9-63-25-7-6.3-10.5-15.9-22-15.1-3.7.3-6,3.1-8.5,3.7-4.9,1-22.9-12.7-28.3-15.8-18.4-10.2-46.1-20.5-61.1-34.9-6.9-6.6-2.4-11.8-2.5-19.5s-3.8-23.4-6.8-30.2c-.5-1.1.2-1.5-1.7-1.3-9.4,1.3-19,20.2-19.3,28.8-.2,6.3,6.7,18.5,7.6,26.9,1.5,13.9-4.4,40.4,8.8,49.2,12.8,8.6,39.9,13.7,50.8,26.2,5.7,6.6,1.5,7.9.7,14.6-3.6,29.6,1.4,55.9,20.9,78.9.5.6,3.9,4,2,1h-.2ZM1248,1630c19.4-21.2,26.1-39.8,25-68.5-.3-7.8-4-21.4,0-27.8,4-6.1,20.2-13.6,27.2-16.8,15.2-7.1,31-7,32.7-27.3,1.3-14.8-1.6-26.3,2.5-41.5,3.4-12.7,7.8-13.2,2.5-27.5-2.8-7.7-9.2-17.6-18-18.4-5.5,13.3-7.4,26.1-7,40.5,0,3,2.2,4.9,0,8.1-1.5,2.2-16.5,12.2-19.8,14.2-9.2,5.7-59,28.5-60.9,35.1-2.7,9.4,7.3,31.3,8.6,41.6l-10,40.5c2.4-1.4,5-2.6,7.9-1.9,6.7,16.4,13.1,31.6,9.1,49.9v-.2h.2ZM780,1448c-2-1.4-5.5,2.6-5.8,4.7-.9,5,7.2,15.1,12.8,15.2-.9-2.6-6.1-19.4-7-20h0Z" class="outline" fill="#000000"/>
    </g><g class="trait-group" data-category="mouth" id="mouth-cracked scrappy">
      <path id="fill-muzzle-1" fill="#ffffff" d="M1038 1292s-.4 1.7.7 2c10.3 2.8 18 4.3 25.8 13 1.9 2.2 4.9 8.8 6.5 9.5 2.6 1.2 6.6 0 9.5.5 11.4 1.5 21.2 3.7 31.2 9.8 2.1 1.3 9.2 7.8 10.2 7.1.3-.3 0-1.7 0-1.9 2.4-1.8 32.7.6 38 1 5.2 4.2 13.2 5.5 19.2 8.3 13.7 6.4 22.5 16.1 29.9 29.1 8.4 14.6 7.7 17.8 3.1 33.4-2.5 8.5-4.8 21.8-16.3 20.2 1.5-15.5-14.8-32.4-26.5-41-3.2-2.4-11.3-7.2-6 0 10.7 14.6 20.5 15 21.5 37.5.5 10.4-8.3 32.8-15.4 40.5-.6.7-7.1 6.3-7.6 6.5-3 1.6-6.8-6.1-7.8-8.2-3.7-7.7-4.8-15.6-9.7-23.3-1.1-1.7-10.8-13.7-12.4-12.1 5.6 13 9 46.2-2.5 56-4.4 3.7-9.4 1.9-13.3 3.7-2.8 1.3-3.1 5.8-4.8 6.2-.9.2-7.2-3.2-9.4-3.5-9.3-1.3-13.1 17-18.7 17.4-2.5.2-10.7-11.9-18.4-9.4-6.8 2.2-15.3 20.6-23.6 23.5-7.3-4.5-4.2-14-6.6-21.1-1.2-3.5-4.2-6.7-5.8-10.2-5.4-12.7-2.8-19.9-.2-32.2.7-3.3-.2-6.3 1.2-9.8.4-1 6-11.5 6.6-12.4 3.7-5.4 19.2-12.4 22.7-3.8.9 2.2 0 8.7 2.2 7.7 5.1-4.9 10.2-9.9 15.5-14.5 10.2-8.9 12.8-8.2 19.5-21.5 1.9-3.8 8.1-17.3 8.2-20.7.2-6.3-17.9-22.6-21-29-3.6-2.9-22.1-2.8-27.2-2.3-14.1 1.5-18 12.2-27.5 19.5-1 .8-1.3 1.9-3 1.5l.8-12.7c7.6-8.2 14.9-16.6 21.1-26 .7-3.3-8.6-12.4-11.3-13.2-3.6-1 .5 5.5.5 6.6.4 5.2-5.9 4.1-9.3 5.6-1.2.5-3 2.7-3.2 2.7s-2-2.2-3.2-2.7c-8-3.5-11.7.6-7.3-12.2-1.6-1.7-12.5 9.1-12.9 11.7-.2 1.6 3.6 7.8 4.8 9.5 1.5 2 5 5.9 7 8.3 3.2 3.9 9.7 7.7 9.9 13.1 0 1.6-.8 3.1-.8 4.8s2.6 8.1-2.5 3.6c-6.2-5.3-10.1-13.6-18.5-17.5-6.8-3.1-28.3-4.1-34.7-.8-.8.4-9.9 11.1-11.2 12.8-2.4 3-10.9 13.7-10.8 16.8.2 5.1 11.2 27.9 14.7 32.2 2.8 3.4 10.2 7.7 14 11 5 4.3 9.7 9.1 14.5 13.5 2.2.9 1.5-5.2 2-7 2.4-9.9 19.2-2.4 23 3.1.7.9 6.6 13.1 6.9 14.1 2.9 11 5.6 26.6 1.9 37.5-1.7 4.9-6.8 10.4-7.8 15.2-1.4 6.6 1 13.6-5 19-5.3 1.2-18.8-21.7-24.4-23.5-8.2-2.6-15.9 9.6-18.4 9.4-5.3-.4-8.7-14-13.9-16.1-6.9-2.8-11.5 2.7-14.1 2.1-1.8-.4-2-4.8-4.8-6.1-4.5-2-9.6.3-14.3-4.7-10.9-11.5-6.5-42.2-1.5-56.1-9.1 6.7-14.1 14.8-18.5 25-1.6 3.6-2 7.5-3.7 11.3-1 2.1-4.9 9.8-7.8 8.2-.4-.2-6.9-5.8-7.5-6.5-4-4.2-13.8-24.3-15-30-2.8-12.9 1.4-26.5 9.5-36.5 4.1-5.1 11.3-9 13-15.5-2.4-2.4-22.3 17.4-24.4 20.1-5.4 6.8-11 15.9-9.6 24.9-4.7.2-8.1-.7-10.8-4.7-1.8-2.7-8.8-24.3-9.2-27.8-1.1-10.9 10.9-28.8 18-37 10.5-12.2 24.5-14.2 38-21.5 12.5-.8 24.5-2.3 37-1 0 0 .7 2.1.5 3 9.5-8.2 20.6-14.8 33.1-16.9 4.7-.8 14.8-.4 18.1-1.8 1.6-.7 5.2-7.7 7.2-9.9 8-8.4 15.2-9.7 25.4-12.5 1.1-.3.6-1.9.7-2 1.1-.7 25.9-.7 27 0Z" class="fill" data-original-prefix="fill"/><path id="fill-teeth16" fill="#ffffff" d="M995.3 1525.7c11 9.5 17.2-6.6 23.2 6.3 6.5 14.1 3.7 38.4-1 52.9-.7 2.1-7.1 16.9-8 17.1-1.2.3-3-.4-4.2-.9-12-5.1-31.7-18.1-39.1-28.9-10.6-15.5-6.4-42.9 6.8-55.8 1.3-1.3 9.1-5.6 10.4-5.3 1.5.3 9.4 12.3 12 14.5h-.1Z" class="fill" data-original-prefix="fill"/><path id="fill-teeth15" fill="#ffffff" d="M1039.1 1601.9c-.8-.5-7.5-16.1-8.1-18.4-4.1-13.8-6.5-36.9-1.3-50.3 4.6-12 8.1-4.3 15.8-4.2 9.5.2 17.3-18.2 20.8-17.9 1.2 0 8.5 4.2 9.7 5.3 6.3 6.2 12.2 22.3 13 31 2.4 28-20.3 39.6-41.3 50.7-2 1.1-5.7 5.5-8.6 3.7Z" class="fill" data-original-prefix="fill"/><path id="fill-teeth14" fill="#ffffff" d="M904 1461c0 2.2-1.1 3.8-.8 6.2.2 1.8 7.1 22 8 23.1 3.9 5.1 11.2 3.2 16.7 3.8 4.9 13.5-4.2 23.8-8.6 35.6-2 5.3-8.7 33.1-12.8 34.2-1.8.5-6.8-9.1-8.3-10.7-10.3-23.9-15.3-58.4-2.6-82.2.6-1.2 7.1-11.6 8.4-10.1Z" class="fill" data-original-prefix="fill"/><path id="fill-teeth13" fill="#ffffff" d="M1144 1564c-2.1 1.4-6.1-7.1-6.8-8.7-3.2-7.9-4.4-17.4-7.5-25.5-4.3-11.6-13.6-22-8.6-35.6 4.8-.6 12.3 1.2 15.9-2.9 1.3-1.5 8.1-20.6 8.6-23.2.3-1.8-1.4-7 .9-6 6 2.7 13.7 26 14.4 32.6 1.4 13.9-2.9 45-9.3 57.4-.8 1.5-7 11.6-7.6 11.9" class="fill" data-original-prefix="fill"/><path id="fill-teeth12" fill="#ffffff" d="M1093.1 1644.9c-2.9-1.8-2.4-28.5-2.1-33.4.7-10.5 5.2-31.2 8.9-41.1 1.1-2.8 2.4-1.4 4.2 0 12.2 9.6 21.1 44.8 12.8 57.9-1.9 3-15.6 14.9-18.9 16.1-1.3.5-3.8 1.1-4.8.4Z" class="fill" data-original-prefix="fill"/><path id="fill-teeth11" fill="#ffffff" d="M949 1569c5.5 22 11.1 44.4 9 67.5-.5 5.2-.9 10.3-7 8-3.4-1.3-17.5-13.4-19.5-16.5-5.8-9.2-1.4-31.3 2.7-41.2 1.2-2.9 11.3-21 14.8-17.7Z" class="fill" data-original-prefix="fill"/><path id="fill-teeth10" fill="#ffffff" d="M881.7 1478.3c3.1 2.8-2.7 21-2.8 26.2 0 5.9 2.6 12.4 3.1 18 .2 2.1.7 24.5-.5 24.5-1.5.2-2.1-1.1-2.9-2.1-15.6-18.9-34.8-51.8-17.4-75.3 6.5-8.8 10.5 2.1 14.9 5.8 1.8 1.5 4.9 2.1 5.7 2.8Z" class="fill" data-original-prefix="fill"/><path id="fill-teeth9" fill="#ffffff" d="M1185.7 1467.3c1.9 1.6 7.8 13.7 8.2 16.2 3.2 20.7-9.8 47.3-23.9 61.9-.9 1-1.3 1.9-3 1.5.5-8-.7-16.6 0-24.5.4-5.4 3.1-12.3 3.1-18s-6.1-23.4-2.8-26.2c.6-.6 2.5-.6 3.8-1.7 3.4-3 10-13.1 14.7-9.3Z" class="fill" data-original-prefix="fill"/><path id="fill-teeth8" fill="#ffffff" d="M1018 1613v16.5c0 .9-10.8 13.2-11.9 14.1-6.3 4.8-8-2.6-10.6-5.5-5.5-6-17.9-.4-24.4-5.6-1.2-.9-4.1-8.8-4.1-9.9v-22.5c12.9 1.7 28.3 17.5 41.4 15.9 3.5-.4 6.1-3 9.6-2.9Z" class="fill" data-original-prefix="fill"/><path id="fill-teeth7" fill="#ffffff" d="M1031 1613c6.3 1.3 9.1 4 16.1 2.6 10.6-2.2 24.3-14.8 33.4-15.6 2-.2 1.4 0 1.2 1.3-.8 6.5 2.4 27.5-4.4 31.6-7 4.2-18.8-.3-23.4 4.6-2.1 2.2-3.6 8-8.4 7.6-1 0-14.6-13.5-14.6-14.6V1613z" class="fill" data-original-prefix="fill"/><path id="fill-teeth6" fill="#ffffff" d="M1102.5 1494c3.3-.8 4.5 6.9 5.3 8.7 5.6 12.1 13 24.8 13.3 38.8.2 9-16 29.8-21.3 16.2-4-10.4-4.1-44.8-1.1-55.5.4-1.6 2.4-7.9 3.8-8.2" class="fill" data-original-prefix="fill"/><path id="fill-teeth5" fill="#ffffff" d="M937.3 1559.7c-1.9-1.6-7.8-10.5-8.5-13-3.6-12.1 6-31.3 11.4-42 1.6-3.1 3.3-14.7 8-7.4 5.5 8.5 4.3 41.5 2.7 52.1-1.2 7.7-3.6 18.7-13.6 10.3" class="fill" data-original-prefix="fill"/><path id="fill-teeth4" fill="#ffffff" d="M917 1563c-1.8 13.4 2.9 27.5 2 40.5-.6 9-4.4 18.4-5.5 27.5-6.2-6-10.5-16.1-11.4-24.6-.5-5.2.7-24.7 2.4-29.3.6-1.6 10.5-16.2 12.4-14.1Z" class="fill" data-original-prefix="fill"/><path id="fill-teeth3" fill="#ffffff" d="M1135 1631c-.4-8.9-4.4-17.8-5.1-26.5-1-13.8 3.7-27.6 2-41.5 2.2-2.4 11.9 13 12.5 15 2 6.6 2.6 27.4 1.2 34.3-1.3 6.3-5.5 14.9-10.8 18.7z" class="fill" data-original-prefix="fill"/><path id="fill-teeth2" fill="#ffffff" d="M1154.1 1604.9c-3.4-2-5.1-22.3-3.9-26.2.8-2.6 8.9-5.2 10.2-8.8l5.1-10.9c3.8 3.4 5.1 7.2 4.3 12.2-.7 4.2-5.4 22.7-6.9 26.2-.9 2.2-6.1 9-8.8 7.5" class="fill" data-original-prefix="fill"/><path id="fill-teeth1" fill="#ffffff" d="M885 1559c-.3 3.7 1.7 9.4 4 12.2s9.5 5.2 10 8.3c-2 8.4 1.6 19.2-5.7 25.4-3.6-1.1-6-4-7.4-7.4s-6.5-23.6-6.9-27.1c-.5-4.2 1.2-10.6 5.9-11.4z" class="fill" data-original-prefix="fill"/><path id="shading-mouth2" fill="#aaaaaa" d="M918 1443.5c.8 5.3 5.6 13.8 10.1 16.9 11.5 8.3 16.2-.3 22.4-9.4 2.5 5.4 3.4 11.5 6 17 1.4 2.8 5.7 12 7.5 5.5l4-11.5c1.6 7.5 6.3 15.4 11.5 21 4.3 4.7 18.8 15.4 24.6 9.6 2-2.1 8.3-17.9 10.8-22.2 1.2-2.2 7.8-13.8 9.7-13.3 1 .2 8.5 13.2 9.7 15.3 2.4 4.5 7.3 17.7 9.8 20.2 3.8 3.8 10.5.4 14.4-1.8 10.5-5.9 18.5-17.2 21.7-28.8l4.2 12.3c.3 1.2 1.9 2.4 2.8 1.7.6-.4 5.8-11.3 6.5-13 .8-2 2.8-12 4-12 6.8 10.7 12.9 18.4 24.5 7.5 8.6-8 9.3-23.8 7-34.5 3.5-3.1 21.1 16.1 26.6 16.9 9.1 1.4 17.6-11.8 19-19.9 3.5-20.5-12.9-39.2-30.9-46.2l-12.7-4.8c15.4 0 28.2 2.9 41.1 11.4 4.8 3.1 12.2 10.9 17.6 11.4 6.2.6 10.1-4.1 10-10-.4-19.3-25.8-38.1-39.7-48.8 15.4 2.4 34.6 11.8 45 23.5 7.8 8.8 19.1 25.1 19.1 37s-6.4 28.5-9.2 32.8c-3.3 5.3-11.7 5.4-13.4 10.6-.9 8.1-2.1 16.4-2.5 24.5-1.5 29 1.4 45.2-10.8 73.2-3.6 8.2-12.7 20.4-14.9 27.1-4.2 12.8-.7 26.4-9.1 38.9-3.2 4.8-8.4 6.7-11.2 10.8-1.7 2.5-2.4 6.1-4.2 8.8-4.5 6.7-14.6 23-21.6 8.9-1.6-3.3-1.3-12.9-6.7-6.2-1.4 1.7-1.9 4.4-3.5 6.5-3.7 4.7-17.7 19.6-23.5 19.5-2.2 0-4.5-4.1-6.6-5.4-7.9-5-21.1-6.3-29.2-1.4-7.3 4.4-9.5 13.6-18.1 6.8s-6.4-10.8-20.1-9c-5.6.7-11.4 12.6-16.9 12.1-2.8-.2-11.4-11.1-18.5-12.6-6.3-1.3-17.5.7-23 4.2-2.6 1.7-4.1 5.6-7.5 5.4-5.7-.3-19.8-15.8-23.6-20.5-1.2-1.5-4.4-10.6-7.1-6.9-2.5 3.4-.6 9.9-7.2 12.7-7 3-14.9-11.2-18.1-16.4-1.2-1.8-1.2-4.3-2.6-6.4-2-3-6.8-5.4-9.5-8.5-10.4-11.9-6.7-27.7-10.7-41.3-.8-2.6-5.6-8.5-7.3-11.7-18.4-35.7-16.4-45.6-18.4-84.6-.4-7.7-.6-20.7-2.2-27.8-1.5-6.2-11.1-6.1-14.2-11.8-3.4-6.1-9.3-29.6-8.6-36.4 1.2-10.3 16.2-31.2 24-38 10.5-9.2 26.2-16.5 40-18.5l-21.5 17c-7.2 6.4-26.8 32-14.8 39.9 9 5.9 16.7-4.5 23.7-9.1 12.7-8.4 25.3-11.8 40.7-11.8l-17.3 7.2c-18 9.4-33.1 32.7-22.1 52.8 1.7 3.1 8.6 10.4 12 11.1 9.1 1.7 20.7-15.4 29.5-18 .6 6.4-.9 14.3 0 20.5zm-37.1 40.6c-12.3-.5-17.1-20.2-22.8 1.5-3.4 13 1.2 26.4 9.4 36.5 1.5 1.8 12.7 13.1 13.9 12.9.8 0 2.5-2.3 2.8-3.2 2.9-7.1-3.2-12.2-4.2-19.2-1.5-9.8 0-18.7.9-28.4Zm301.8-8.9c-3.2.8-6.3 6-8.8 7.3-2.1 1.1-7.2 1-7.8 3.2-.5 1.7 3 10.8 2.9 14.8 0 3-1.5 13.9-2.2 16.8-.9 3.6-3.9 5.7-3.9 10.2s1.4 7.1 3.7 7.4c1.9.3 15-14.4 16.8-17 5.7-8.5 9-18.8 7.3-29.2-.5-3-4.4-14.5-8-13.6Zm-284.8 10c-4-2.3-6.5 9.9-6.8 12.5-1.2 10.5 3 38 8.7 47.1 1.9 3 5.4 6.9 9.2 7.3 3.7-15.6 12.6-29.2 21-42.5-2.3-.4-1.7-2.9-2.7-3.5-1.5-.9-7-1.9-9.7-3.1-4.7-2.2-12-7.7-15.6-11.4-1.2-1.2-3.8-6.2-4.2-6.3ZM1139 1552c8.3-2 11.9-12.2 13.9-19.6 3.1-12.1 6.1-33.4 1.1-44.8-3-6.9-5.8 1.7-8.3 4.1-3.9 3.8-11 9.3-16 11.6-2.5 1.1-7.8 1.8-9.1 2.7-.7.5-.5 1.8-1 2.7-.3.4-1.7.4-1.6.9 0 1 7.9 12.3 9.2 14.8 4.8 8.8 9.1 18 11.8 27.7Zm-197.7 5.7c8.1 8.1 9.5 0 10.5-7.3.8-5.6 2.7-20.6 1.7-25.4-3.6-17.2-21.3-15.9-21.6 3.6 0 6.8 4.6 24.3 9.4 29.2Zm161.5-44.5c-5 1.3-8.5 9.3-8.8 14.2-.2 4 2.4 28.5 3.8 31.3 2.5 5 7.5 0 9.8-2.7 6.8-8.3 11.6-30.7 4.5-39.5-2.7-3.3-4.8-4.4-9.2-3.3zM1023 1544c-.7-.7-.8-7-5.1-9.4-8.9-5-21.8-.8-32-4-10.4-3.3-9.4-13.1-16.1 1.8-2.9 6.4-9.1 24.4-6.3 30.7 1.1 2.4 17.8 15.6 21.2 17.8s18.2 11.7 21.1 10c3.1-5.6 9.3-9.5 12.6-14.9 1.8-2.8 4.1-11.5 4.6-11.9 1.6-1.7 1.7.5 2.1 1.4 1.6 3.6 2.1 6.8 4.5 10.5 3.3 5.2 9.2 9.3 12.4 14.6 3.1 1.9 15.5-5.9 18.9-8.1 4.5-2.9 22.9-17 23.9-21.1 2.2-9.7-6.6-28.3-10.9-37.2-4.9 1-7.8 5.2-12.7 6.7-9.2 2.8-28.2-1.6-33.7 6.3-.9 1.2-2.6 8.9-4.5 7zm-136 18c-.7-.6-3.5 0-4.5.9-6 6.2 2.4 31.6 14.6 27.6 4-1.3 3.8-9.4 2.8-12.9-1.1-3.9-7.2-4.1-9.8-7.2-2.1-2.5-2.7-8.2-3-8.5Zm274.1 0c-.3.3-.9 6-3 8.5-2.6 3.1-8.7 3.3-9.8 7.2-1 3.4-1.2 11.6 2.8 12.9 13.4 4.4 20.2-24.5 14.1-28.1-.9-.5-3.5-.9-4-.4Zm-216.4 7.2c-1.5.4-5.1 4.6-6 6.1-3.4 5.6-5.6 32.3-4.8 39.3 1.3 10.9 15.2 18 19.5 3.5 1.7-5.6 2.6-21.4 2.5-27.6 0-1.1-5.8-19.7-6.5-20.5-1.2-1.4-3.2-1.3-4.8-.8Zm153.3-.1c.2 6.6-5.4 14.7-6 20.6-.5 4.5 1 25.3 2.4 29.4 4.2 12.1 16.9 7.3 19.1-2.9 1.1-5.2 0-16.8-.6-22.6-1-9.7-1.7-25.5-14.9-24.5m-180 1.9c-20.5 3.8-17 28.7-9 43 4 2.9 10.4-17 10.7-19.8.9-7.5-2.9-15.5-1.8-23.2Zm218 43c2.5 1.8 7.2-9.1 7.7-10.8 3.9-12.8 1.6-30.1-13.7-32.2.5 7.4-2.8 16.2-1.9 23.4.3 2.7 6.4 18.5 7.9 19.6m-148.2 10.2c1.4.8 4.8 8.6 9.5 11 11.1 5.8 20.2-6.4 20.7-16.7.8-13.7-7.2-7.7-16.5-8.6-8.4-.8-15-4.8-21.8-9.2-5.5-3.5-13.6-14.6-14.7-1.4-.5 5.1 1.4 7.5 1.8 11.2s-2 5.9.5 10.7c4.8 9.3 18 1.3 20.7 2.8zm93.1-31.1c-2.1-1.5-19.7 12.7-23.9 14.4-2.3 1-7.9 2.3-10.5 2.5-10.5.9-18.8-5.4-16.4 11.4 1 7.3 7.9 15.8 16 15.1 9.4-.8 11.9-11.6 14.6-12.4 4-1.3 12.3 5.7 18.9-1.1 4.3-4.4 1.3-8.4 1.5-12.5 0-2.3 1.9-4.8 2-8.1 0-1.9-.8-8.5-2.2-9.4Z" class="outline shading" data-original-prefix="shading" opacity="0.5" style="opacity: 0.5"/><path id="shading-mouth1" fill="#aaaaaa" d="M1041 1343c6.1.5 12.7-1 17.5-5 1.5-1.3.9-3.7 2.8-2.9 10.1 7.9 37.9 17.4 43.8 28.2 3.6 6.5 4.6 17.5-1.8 22.6-5.6 4.5-20.8 10.8-28 15-4.9 2.8-9.7 6.6-14.7 9.3-7.4 4.1-25.5 14.5-32.6 16.4-2.9.8-5.2.8-8.1 0-14.5-3.8-42.2-22.5-56.3-30.7-6.2-3.6-21.2-9.1-23.2-15.8-5.5-18.4 15.7-28.3 28.7-35.4 2.3-1.2 15.5-8.6 16.5-8.7 2.9-.3 4.2 2.9 6.7 4.2 4.2 2.3 10 3.2 14.7 2.8-.3-5.1-3.3-11.3-1.8-16.3.5-1.6 12.5-13.9 14.5-14.4 3.9-1 8.2-.3 11.6 1.9 1 .7 10.8 11.1 11.2 11.8 2.1 5-1.2 11.8-1.5 17" class="outline shading" data-original-prefix="shading" opacity="0.5" style="opacity: 0.5"/><path id="outline-mouth3" fill="#000000" d="M889 1333c-13.5 7.3-27.4 9.4-38 21.5-7.1 8.2-19.1 26.1-18 37 .3 3.5 7.3 25.1 9.2 27.8 2.7 4 6.1 4.9 10.8 4.7-1.4-9 4.2-18.1 9.6-24.9 2.1-2.6 22-22.5 24.4-20.1-1.7 6.5-8.8 10.4-13 15.5-8.1 10-12.3 23.6-9.5 36.5 1.2 5.7 11 25.8 15 30 .7.7 7.1 6.3 7.5 6.5 3 1.5 6.9-6.1 7.8-8.2 1.7-3.8 2.1-7.7 3.7-11.3 4.4-10.2 9.4-18.4 18.5-25-5.1 13.9-9.5 44.6 1.5 56.1 4.8 5 9.9 2.7 14.3 4.7 2.8 1.3 3 5.7 4.8 6.1 2.6.6 7.2-4.9 14.1-2.1 5.2 2.1 8.6 15.6 13.9 16.1 2.5.2 10.2-12 18.4-9.4 5.6 1.8 19.1 24.8 24.4 23.5 6.1-5.4 3.7-12.4 5-19 1-4.8 6.1-10.3 7.8-15.2 3.7-10.9 1-26.5-1.9-37.5-.3-1.1-6.2-13.2-6.9-14.1-3.8-5.5-20.6-13-23-3.1-.4 1.8.2 7.9-2 7-4.8-4.4-9.5-9.2-14.5-13.5-3.8-3.3-11.2-7.6-14-11-3.5-4.3-14.5-27.1-14.7-32.2 0-3.1 8.4-13.8 10.8-16.8 1.4-1.7 10.5-12.5 11.2-12.8 6.4-3.2 28-2.3 34.7.8 8.4 3.8 12.4 12.1 18.5 17.5 5.2 4.5 2.5-1.7 2.5-3.6s.9-3.2.8-4.8c-.2-5.4-6.7-9.2-9.9-13.1-2-2.4-5.5-6.3-7-8.3-1.2-1.7-5.1-7.9-4.8-9.5.4-2.6 11.3-13.4 12.9-11.7-4.4 12.8-.7 8.7 7.3 12.2 1.2.5 3 2.7 3.2 2.7s2-2.2 3.2-2.7c3.4-1.5 9.7-.4 9.3-5.6 0-1.1-4.1-7.6-.5-6.6 2.8.8 12.1 10 11.3 13.2-6.2 9.4-13.5 17.8-21.1 26l-.8 12.7c1.7.4 2-.7 3-1.5 9.5-7.3 13.4-18 27.5-19.5 5.1-.6 23.6-.6 27.2 2.3 3.2 6.4 21.2 22.7 21 29 0 3.4-6.3 16.9-8.2 20.7-6.8 13.3-9.3 12.6-19.5 21.5-5.3 4.6-10.4 9.6-15.5 14.5-2.2.9-1.4-5.6-2.2-7.7-3.4-8.6-19-1.6-22.7 3.8-.6.9-6.2 11.4-6.6 12.4-1.3 3.6-.5 6.5-1.2 9.8-2.6 12.3-5.2 19.6.2 32.2 1.5 3.5 4.6 6.8 5.8 10.2 2.4 7.1-.8 16.6 6.6 21.1 8.3-2.8 16.9-21.3 23.6-23.5 7.7-2.4 15.9 9.6 18.4 9.4 5.6-.5 9.4-18.8 18.7-17.4 2.2.3 8.4 3.7 9.4 3.5 1.7-.4 2-4.9 4.8-6.2 3.9-1.8 8.9 0 13.3-3.7 11.5-9.9 8.1-43 2.5-56 1.6-1.6 11.3 10.4 12.4 12.1 4.9 7.6 6.1 15.6 9.7 23.3 1 2.1 4.8 9.8 7.8 8.2.4-.2 6.9-5.8 7.6-6.5 7.1-7.7 15.9-30.1 15.4-40.5-1-22.4-10.8-22.9-21.5-37.5-5.3-7.2 2.8-2.4 6 0 11.8 8.6 28 25.5 26.5 41 11.4 1.6 13.7-11.7 16.3-20.2 4.6-15.6 5.3-18.8-3.1-33.4-7.4-13-16.3-22.7-29.9-29.1-6-2.8-14.1-4.1-19.2-8.3 9.3.7 19.7 2.8 29.2 5.3 7.4 1.9 14.4 3.9 20.7 8.3 3.2 9.3 27.6 34.6 28 42 .2 3.9-8.4 23-10.2 28.7-2.4 7.4-1.3 15.8-9 20-2.1 1.1-8.8 2.4-9.5 3-3.6 3.6-1.9 26-2.2 32.3-1.2 29.7-2.2 52.7-20.5 77.5-.9 1.2-2.6 1.5-3.6 2.7-4.3 5.6-2.8 18.6-4.3 26.5-1.1 6-5 13.1-5.6 18.4-.4 3.6 1.4 7.3.2 10.1-1 2.4-9.9 8-12.6 9.5-2.2 1.2-5.7 1.5-6.5 2-.6.4-5.4 10.9-7.2 13.3-2.1 2.7-11.1 11.3-14 12.1-4.1 1.2-7.9-10.3-9.9-13s-2.3 2.3-3.6 4.3c-4.3 6.7-25.1 26.6-32.4 28.6-1.7.5-3.3.7-5 .5-.2-6.5 3.6-11.9-3-16.5-7.6-5.2-17.7 0-21.5 7.4-4.2 8.3-1.8 29.9-14.4 16.5-7.1-7.5-13-17.8-18.5-26.4-2.8 5-19.9 30.6-24 31-5.8.6-5.9-11.5-7.2-15.8-2.5-8.5-10.5-17.7-20-14.4-12.1 4.1-4.7 16.7-6.3 18.2-6 1.1-9.7-4.5-15-5-1.3 6.3-5.2 11.9-5.1 18.5.2 11.2 13.9 23.7 10.9 33.8-.8 2.7-3.4 3.2-5.5 1.4-3.7-3.3-7.9-17.8-10.4-23.1-3.8-8-11.3-14.9-9.4-23.7 1-4.7 7.9-13.9 7.6-17.4-.5-5.3-12.8-12.5-12-18.6-1.2-.2-1.3-.3-2.1.6-2.1 2.7-6.2 14.3-10.2 13.3s-12-10.2-13.7-12.4c-2.1-2.7-6.6-12.8-7.2-13.2-.7-.5-4.2-.8-6.5-2-2.5-1.3-12.6-7.8-13.2-9.9s1.2-6.2.8-9.7c-.6-5.1-4.5-11.5-5.6-17.4-1.7-8.4.3-19.9-3.9-26.1-5.9-8.8-10.5-12.8-15.3-23.7-13.6-31.3-7.5-52.3-10.1-83.9-.8-9.9-3.8-5.3-10.8-9.3-8.2-4.6-6.8-13.1-9.3-20.7-1.9-5.9-9.7-21.8-10-26.1-.2-3.3 1.1-4.7 2.5-7.3 6.8-12.4 18.9-24.3 26.1-36.9 5.9-4.3 13.2-6 20.1-7.9 9.7-2.6 19.8-4.7 29.2-5.3Zm15 128c-1.4-1.5-7.8 8.9-8.4 10.1-10.6 19.9-8.6 50.8-1.8 71.7 1.1 3.3 9.4 22.1 12.8 21.2 4.4-1.1 10.8-28.9 12.8-34.3 4.3-11.7 13.6-22.1 8.6-35.6-4.8-.6-12.2 1.2-15.9-2.9-1.4-1.5-8.5-21.7-8.8-24s.8-4 .8-6.2Zm240 103c.6-.4 6.8-10.5 7.5-12 6.2-12 8.8-32.9 9.5-46.5.8-15.3-4.1-32.2-14.6-43.5l-2.2 9.8c-4.9 13.6-4.6 25.2-23.1 22.4-5.2 13.7 4.3 23.9 8.6 35.6 3.1 8.4 6 27.5 11.8 33.2.7.7 1.4 1.8 2.4 1.1Zm-262.3-85.7c-1-.9-4.6-2-6.6-3.9-4.2-3.9-7.8-13.1-14-4.7-13.3 17.9-4.1 44.9 7 61.7 1.6 2.4 11.5 15.7 13.3 15.7.5-8 1.2-16.5.5-24.5-.4-5.4-3.1-12.3-3.1-18s6-23.3 2.8-26.2ZM1167 1547c1.7.4 2-.5 3-1.5 17.5-18 32.6-50.9 18.4-74.4-6.5-10.8-10.8-.4-16.9 4.9-2 1.7-5 1.6-5.5 4.5-.8 4.5 4 18.3 4 24s-3.3 14.8-3.6 21.2 1.6 14.6.6 21.3m-219.1-51.9c-4.7-3.3-6.5 7.1-7.7 9.6-5.3 11-11.8 23-12.2 35.8-.2 7.6 10.5 26.2 19.1 21 3-1.8 4.7-18 5-22 .4-6.4.2-41.4-4.1-44.4Zm67.8 32.2c-3.2-2.8-9.7 3.2-15.8 1.3-2.1-.7-8.7-7.5-10.5-9.5-2.6-2.9-3.4-8.8-8.2-7.4-12.2 3.5-20.5 24.1-21.2 35.9-.9 13.6 2.4 21.7 11.5 31.5 9.8 10.4 24 15.7 36.1 23h2.3c2.1-6.4 6.2-12 8.1-18.4 3.7-12.2 7.9-47.3-2.3-56.2zm23.4 74.6c1.1.7 3.4 0 4.6-.7 5.6-2.4 20.1-11.1 25.2-14.8 13.4-9.8 21.4-21.7 20.1-38.9-.9-11.9-9.2-33-22-36.1-4.4-1.1-5.5 5-8 8-1.7 1.9-7.3 7.9-9.2 8.8-9.2 4-14.3-9-20 5-5.4 13.2-2.6 37.5 1.5 51.1.7 2.2 7.1 17.1 7.9 17.6ZM885 1559c-3.2-3.3-6.4 8.4-5.8 12.3.7 4.5 5.4 23.4 7 27 1 2.2 6.2 8.5 8.7 6.7 3.4-2.4 3.2-20.7 4-25.4-.5-3.1-8.3-6.1-11-10-2.3-3.5-2.6-10.1-3-10.5Zm32 4c-1.9-2.2-11.8 12.5-12.4 14.1-1.7 4.6-3 25.2-2.4 30.3.9 7.9 5.6 18 11.4 23.6 1.4-8.8 5-18.6 5.5-27.5.8-13.1-3.7-27.1-2-40.5Zm218 68c7.1-5.4 12.1-18.8 11.8-27.5 0-2.6-1.7-5.2-1.8-8-.3-5.4.8-12.5-.5-17.5-.6-2.3-10.4-17.3-12.5-15 1.5 13.8-3.1 28-2 41.5.7 8.7 4.6 17.6 5.1 26.5Zm-35-62c-2.8 14.2-8.1 27.9-9 42.5-.3 5.3-1.4 33.3 3.6 34.4 2.4.6 18.8-13.3 20.9-15.9 8.3-10.5 3.8-32.3-1-44-1.2-2.9-11-19.9-14.5-17m-82 44c-3.5 0-6.1 2.5-9.6 2.9-12.7 1.6-29.1-13.9-41.4-16.9v24.5c0 .6 3.2 8.2 4.1 8.9 6.5 5.2 18.9-.4 24.4 5.6 2.6 2.9 4.3 10.3 10.6 5.5 1.1-.8 11.9-13.1 11.9-14.1v-16.5Zm64-13c-13.2 1.2-27.8 17.6-41.4 15.9-3.5-.4-6.1-3-9.6-2.9v17.5c0 1.1 13 14.6 15.4 14.5 4.9-.3 5.1-4.7 7.1-7 5.5-6 18.3-.4 24.4-5.6 1-.9 4-9.7 4-11v-21.5Z" class="outline" data-original-prefix="outline"/><path id="outline-mouth2" fill="#000000" d="M1122 1332c-.2 0 .2 1.6 0 1.9-1 .8-8.1-5.8-10.2-7.1-10-6.1-19.8-8.3-31.2-9.8-2.9-.4-6.9.7-9.5-.5-1.5-.8-4.5-7.4-6.5-9.5-7.8-8.7-15.6-10.2-25.8-13-1.1-.3-.6-1.9-.7-2 3.1-3.8 16.2-9.3 20.8-9.8 7.9-.9 5.5 4.4 6.5 9.1 2.3 10.7 9.3 19.6 21.3 18.8 5.1-.3 5.6-4 7.9-4.1 1.4 0 6.6 2.9 8.2 3.8 9.4 5.2 15 12.5 19.3 22.2z" class="outline" data-original-prefix="outline"/><path id="outline-mouth1" fill="#000000" d="M1011 1292s.4 1.7-.7 2c-10.2 2.8-17.4 4.1-25.4 12.5-2 2.1-5.6 9.2-7.2 9.9-3.4 1.4-13.5 1-18.1 1.8-12.5 2.1-23.6 8.7-33.1 16.9.2-.9-.5-2.8-.5-3 .7-2.3 8.9-13.5 11-15.5 2.4-2.4 14.7-10.5 17.6-10.4s3 5.1 11.9 3.9c10-1.3 16.2-10.1 17.5-19.6.4-2.6-2.4-6.7 2.8-8.2 3.5-1 21.7 5.6 24.3 9.8Z" class="outline" data-original-prefix="outline"/>
    </g><g class="trait-group" data-category="eyes" id="eyes-navigators">
      <defs/><path id="fill-eyes-skull" d="M1306.9 1006.8c-13.7 7.2-27.9 15.8-40 25.6-1.1.8-2.5 0-1.9 2.6 8.3-1.5 16.1-4.8 24.5-6 8.7-1.3 24.5-3.1 33-3 1.5 0 11.8.9 12.3 1.2 1.6.9 16.3 27.2 18.4 31.1 4 7.3 8.2 15.7 11.7 23.3 5.7 12.5 12.7 26.1 11 40.2l-22.1 10.1c-1.5.7-1 3.8-2.3 4.1-2.7.6-23.7-3.6-28.9-4.1-42.8-4.2-88.2-4.2-130.9-4.1-26.6 0-52.9 1.3-79.5 1 20-19.2 44-35.8 67.1-51.4 3.6-2.4 8.7-4.4 11.8-7.2.9-.7 3.3-2.2 1.6-3.4-31 12.5-59.9 29.4-89.8 44.2-6.6 4.5-8.7 12.7-13.4 18.8-35.1.4-70.6 2.2-105.8 1-7.7-.2-15.8-1.8-23.8-1.2-2.3-.7-8-12.4-10.7-15.3-5-5.3-39.4-22.2-48.3-26.7-6.6-3.3-38.7-19.5-43.2-19.8-.6 0-1.7-.3-1.5.5 27.3 19 56.1 37.2 80 60.5-26.2.3-52.3-.9-78.5-1-35.6 0-73.3-.2-108.9 2.1-17.6 1.1-35.1 3.8-52.5 6 0-1.1.4-2.9-.2-3.8-1-1.7-20.3-8.5-22.7-10.8-1.8-13.2 4.5-25.3 9.7-37 8.9-19.9 20.2-38.5 31.4-57.1 4 .5 8.8-1.2 12.3-1.2 8.5 0 24.3 1.7 33 3 8.1 1.2 15.5 4.5 23.5 6-4.9-5.7-11.8-10.2-18.1-14.4s-15.7-8.2-20.8-12.2c-1.3-1-2.9-2.1-3-3.9 0-1.5 4.1-10.8 5.1-12.9 16-32.3 84.7-79.8 116.5-98.5 93.2-54.7 233.8-53.4 326.2 2.4 32.8 19.8 104.9 69 116.8 105.2.4 1.3 1.7 5.2 1.2 6.1z" class="fill" fill="#ffffff"/><g id="fill-eyes" class="fill" fill="#ffffff"><path id="fill-eyes8" d="M795.8 1140.3c28.3-.6 57.5 2 85.6 5.8 25.3 3.5 69.5 10.7 89.6 26.4 21.9 17.2 39.3 55.5 26.2 82.1-8.5 17.3-25.9 40.5-37.3 56.7-15.4 21.8-38.8 56.7-61.8 69.2-93.1 50.5-204 10.9-245.9-85.2-9.4-21.7-8.6-30.5-6.1-53.8 2.3-21.5 7.7-50.4 15.5-70.5 4.3-11 8.3-14.3 19.2-18.8 27-11.1 84.5-11.3 115.1-11.9Zm-12 10c-21.1.7-46.5 1.4-67.3 3.7-72.2 8.1-73 112.8-44.3 161.3 30.4 51.4 104.8 87.8 163.8 75.2 63.1-13.5 90.4-48.9 125.8-98.2 20.8-28.9 43.3-56.4 21-92.6-17.3-28.1-49.2-39.4-80.4-43.6-38.3-5.1-79.9-7.1-118.6-5.8" class="fill" fill="#ffffff"/><path id="fill-eyes7" d="M1225.8 1140.3c33.5-1.6 79.3.8 112.7 4.7 13.6 1.6 38.9 7.4 45.7 20.3 11.3 21.3 19.6 78.7 19.9 103.2 0 11.4-11.7 35.1-17.6 45.5-45.4 80.7-143.3 110.1-227.2 71.2-21.8-10.1-29.6-19.5-44.3-37.7-19.3-23.8-51-66-64.2-92.8s4.1-64.4 25.7-81.7c27.9-22.4 112.8-31 149.3-32.7m-9 10c-10.3.4-21 .9-31.3 1.7-43.4 3.4-96.5 7.3-121 49-21.1 35.9 1.3 62.9 21.7 91.3 35.5 49.4 63.2 85.2 126.6 98.4 59.2 12.3 134-24.8 163.7-76.7 27.8-48.5 26.8-151.9-45-160-35.3-4-79.1-5-114.7-3.7" class="fill" fill="#ffffff"/><path id="fill-eyes6" d="m1139 1141-33.2 8.3-21.2 6.8c-38.8-3.2-84.1 4.1-122 0-5.6-.6-14.2-5.1-20.3-6.7-11-3-22.1-5.5-33.2-7.8l230-.5h-.1Z" class="fill" fill="#ffffff"/><path id="fill-eyes5" d="M637.9 1218.1c.7 1-2 23.1-3 23.7-4.5-.6-16.9.2-19.5-2.8s-2-22.4 1.6-24.6c2.3-1.4 17.2 3.1 20.9 3.7" class="fill" fill="#ffffff"/><path id="fill-eyes4" d="M1413.1 1241.9c-1.2-.8-3-20.5-3-23.7.6-.9 19.8-4.3 20.9-3.7 2.9 1.8 3.9 20.2 2.5 23.5-2 4.6-15.5 3.2-20.3 3.9Z" class="fill" fill="#ffffff"/><path id="fill-eyes3" d="m1042 1205-3.6 13.1c-10.1-3.1-19.1-2.3-29.3-.2-.5-3.6-3-7.9-3.1-11.4 0-2.3 0-1.2 1.5-1.5 11.2-2.3 23.2-.8 34.5 0" class="fill" fill="#ffffff"/><path id="fill-eyes2" d="M730.8 1163.3c30.7-2.5 65.6 3.5 96.7 1.7 46 3.6 120.3-1 147.3 45.7 17.8 30.8-18.3 78.3-38.3 101.3-39 44.9-89.2 83.1-152.5 67.5-74.3-18.3-123.1-70.5-118-150.1 2.5-39.8 25.2-62.9 64.8-66.2Z" class="fill" fill="#ffffff"/><path id="fill-eyes1" d="M1298.8 1163.3c46.4-.5 79.7 13.8 83.2 65.2 4 57.5-21.2 106.9-72.3 133.7-82.6 43.2-141.7 15-198.2-50.2-21.2-24.4-57.9-72.4-36.3-104.3 28.6-42.2 94.3-39.8 139.3-41.7 27.9-1.2 56.3-2.4 84.3-2.7" class="fill" fill="#ffffff"/></g><path id="outline-eyes15" d="M1371.5 1187c15.8 20.8 15.5 53.3 12.4 78.3-3.5 28.1-20.7 62.2-42.4 80.6-29.5 25.1-78.3 42.7-117 40.1-4.8-.3-30.8-5.2-33-8-1.1-1.5-.2-1.6.5-2.6 2.9-4.1 8-9.4 11.5-13.5 52.6-61.5 109.8-118.9 168-175Z" class="outline" fill="#000000"/><path id="outline-eyes14" d="M983 1229c.3.3 4.8-.2 6 0-.9 16.8-8 28.2-16.8 41.7-38.5 59.1-94.4 120.9-171.8 115.3-2.8-.2-19-2.7-19.5-4.6 55.7-67.3 117-129.7 180-190 3-1.4 7 3.8 9 6 5.4 5.9 11.3 15.4 12.7 23.3.3 1.9 0 8 .2 8.3z" class="outline" fill="#000000"/><path id="shading-eyes13" d="M948.5 1139c-.8-.2-9-11.1-11.5-13.5-50.3-47.6-115.6-76.4-179.7-100.3-5.5-2-29-7.5-31.3-10.6-2.9-4 2.2-9.9 4.6-13.5 27.2-39.6 72-78.2 113.1-102.9 30.2-18.1 63.6-34.2 98.3-41.2-12 12.1-28.8 18.2-42.9 27.6-25.7 17-51.7 48.9-68.1 74.9-3.8 6.1-18.6 31.3-18.8 37-.7 18.9 17.8 39 30.3 51.5 39.3 21 81 39.4 116.3 66.7L972 1139c-6.1-1.1-18.3 1.5-23.5 0" class="shading" fill="#aaaaaa" style="opacity: 0.5" opacity="0.5"/><path id="shading-eyes12" d="m1076 1139 13.2-24.3c35.2-27.4 77.1-45.7 116.3-66.7 7.5-5.6 25.1-28.4 27.8-37.2 4.8-15.3-1-24.5-8.1-37.5-16.5-30.1-47.7-69.7-76.3-88.7-14.2-9.5-31-15.2-42.9-27.6 31.9 6.4 62.5 20.8 90.7 36.8 45.1 25.7 89.8 63.8 119.7 106.3 2.5 3.5 9 10.9 5.3 14.7-3.2 3.3-24.9 8.2-31 10.5-61.1 22.6-111 44.7-162.2 85.8-10.5 8.4-21.5 16.6-29 28H1076Z" class="shading" fill="#aaaaaa" style="opacity: 0.5" opacity="0.5"/><path id="outline-eyes11" d="M834 1163c-8.3-1.4-9-.6-15 4.5-35 29.6-73.6 71.6-106 105-8.7 9-23.2 28.2-32.5 34.5-.8.6-1 1.4-2.5 1-2.5-7.6-7.4-14.1-9.7-21.8-6.7-21.9-8.3-63.1-.2-84.6 13.7-36 45.5-43.2 80.9-41.6l-10-3 9.5-2c21.9 1.2 50.7-5.5 71.9-2 3.9.7 11 6.7 13.5 9.9Z" class="outline" fill="#000000"/><path id="outline-eyes10" d="m1309 1156-17.5 5c-20.2-.4-40.3.8-60.5 1.5-46.6 43.1-90.8 88.6-134.7 134.4-2.1.6-2.6-.7-3.7-2-6.2-6.7-24.5-34.5-28-42.9-3-7.2-4.7-15.2-5.5-23 9 1.1 5.1-1.7 6.2-8.3 9.6-53.8 105.4-58.7 147.1-57.9 14.6-14.7 31.6-8.7 50.2-9.8l46.4 3.1Z" class="outline" fill="#000000"/><path id="outline-eyes9" d="M943 1178c1 1.3-6.1 7.7-7.5 9-13.4 12.8-27.7 25-41 37.9-48.2 46.9-93.4 96.9-136.5 148.6-2.6 1.6-23.9-7.9-25.5-10.5-.8-1.2-.5-1.7.5-2.6 35.6-35.7 70.3-72.3 106.5-107.5 25.7-25 55.1-55.1 82.5-77.5 1.3-1 3.8-3.3 5.3-3.3 3.9 0 11.5 4.9 15.7 5.8Z" class="outline" fill="#000000"/><path id="outline-eyes8" d="M1341.6 1164.2c1.9-.2 11.9 4.6 13.7 5.9 1.1.8 2.4 1.3 1.2 2.9-66.7 59.6-128.7 124.4-186 193.1-.6.5-1.2.9-2 .9-1.3 0-18.5-11-19.6-12.4-1.2-1.5-1.4-2.6 0-4.1 51.6-52.4 103-105.1 157-155 4.3-4 33.3-31 35.7-31.2Z" class="outline" fill="#000000"/><path id="shading-eyes7" d="M801 1138c-30.9-.6-61.5 2.8-92.4 3.9l-35.3-17.7c-4.1-1.8 2.4-3.2 3.6-4.8l15.1-28.9c12.1 0 26.8-3 37.7 2.3 18.4 9 42.8 24.4 60.2 35.8 1.3.9 12.9 7.8 11.1 9.4" class="shading" fill="#aaaaaa" style="opacity: 0.5" opacity="0.5"/><path id="shading-eyes6" d="M1376 1124c-.3.4-6.9 2.3-8.4 3.1-5.9 3.1-23.2 14-28.2 14.8-10.7 1.7-33.8-2.4-45.9-3-7.3-.4-14.8-.7-22-1-8.2-.3-16.4.3-24.5 0-1.8-1.7 9.8-8.6 11.1-9.4 16.7-10.8 35.9-22.1 53.2-31.8 3.3-1.9 9.9-6.2 13.2-6.8 3.2-.5 30.1-.4 31.4.4 5.4 6.6 10 24.3 15.5 29.5 1 1 5.9 2.1 4.4 4z" class="shading" fill="#aaaaaa" style="opacity: 0.5" opacity="0.5"/><path id="shading-eyes5" d="M1085 1159c-2.1 6.6-7.9 8-12.5 12-2.6 2.3-5.8 5.4-8 8-5.4 6.1-10.8 18.1-15.6 22.4-4.3 4-3.8.8-6.5.6-5.1-.4-10.4 0-15.5-1.1-.7-.6 3.8-11.5 5.4-13.1 3.6-3.3 12.5-2.7 17.6-7.4 4.1-3.7 11.5-20.5 13.9-22.1 2.8-1.8 16.5 1.9 21 .5z" class="shading" fill="#aaaaaa" style="opacity: 0.5" opacity="0.5"/><path id="shading-eyes4" d="M1020 1201c-4.4 1.1-8.9.7-13.4 1.1-3.4.3-3.2 3.3-7.5-.6-4.7-4.3-10.2-16.4-15.6-22.4-2.3-2.6-5.4-5.6-8-8-4.3-3.9-10.9-5.7-12.5-12 4.5 1.4 18.2-2.3 21-.5 2.6 1.6 9.8 19.1 14.9 23.1 4.4 3.3 13.5 3.5 16.1 5.9 1.5 1.4 6.4 12 4.9 13.5Z" class="shading" fill="#aaaaaa" style="opacity: 0.5" opacity="0.5"/><path id="shading-eyes3" d="M1045 1248c-1.7.4-2-.7-3-1.5-5.3-4-9.4-10.7-14.5-14.5-2.7 1.4-6.1-.6-8.5.5-1.5.7-14.2 17.6-16 15.5-.6-3.2 1-6.3 1-9.4s-1.4-12.4-.6-13.6c.6-.8 7.9-2.9 9.1-2.8 2.1 0 7.1 3.7 11 3.8 4.7 0 9.2-3.8 11.9-3.8s8.2 2.1 8.5 2.4c2.2 1.6 0 7.1 0 10 0 4.8 1 8.9 1 13.5Z" class="shading" fill="#aaaaaa" style="opacity: 0.5" opacity="0.5"/><path id="shading-eyes2" d="M945 856c.7.3-.6 1.7-2 1-.7-.3.6-1.7 2-1" class="shading" fill="#aaaaaa" style="opacity: 0.5" opacity="0.5"/><path id="shading-eyes1" d="M1105 856c.7.3-.6 1.7-2 1-.7-.3.6-1.7 2-1" class="shading" fill="#aaaaaa" style="opacity: 0.5" opacity="0.5"/><g id="outline-eyes" class="outline" fill="#000000"><path id="outline-eyes1" d="M783.8 1150.3c38.7-1.3 80.2.7 118.6 5.8 31.2 4.2 63.2 15.5 80.4 43.6 22.3 36.3-.2 63.7-21 92.6-35.4 49.2-62.7 84.7-125.8 98.2-59.1 12.6-133.4-23.8-163.8-75.2-28.7-48.5-27.8-153.2 44.3-161.3 20.8-2.3 46.1-3 67.3-3.7m-53 13c-39.6 3.2-62.3 26.4-64.8 66.2-5.1 79.5 43.7 131.7 118 150.1 63.3 15.6 113.5-22.6 152.5-67.5 20-23 56.1-70.5 38.3-101.3-27-46.8-101.2-42.2-147.3-45.7-31.1 1.8-66-4.2-96.7-1.7Z" class="outline" fill="#000000"/><path id="outline-eyes2" d="M1216.8 1150.3c35.6-1.3 79.4-.2 114.7 3.7 71.8 8.1 72.9 111.5 45 160-29.7 51.8-104.5 88.9-163.7 76.7-63.4-13.2-91.2-49-126.6-98.4-20.4-28.4-42.8-55.5-21.7-91.3 24.6-41.7 77.6-45.6 121-49 10.3-.8 20.9-1.3 31.3-1.7m82 13c-28 .3-56.4 1.5-84.3 2.7-45 1.9-110.7-.5-139.3 41.7-21.6 31.9 15.2 79.9 36.3 104.3 56.5 65.1 115.6 93.3 198.2 50.2 51.2-26.7 76.3-76.2 72.3-133.7-3.5-51.4-36.8-65.7-83.2-65.2" class="outline" fill="#000000"/><path id="outline-eyes3" d="M1330.1 993.9c1.1.8 5.5-3.3 11.9.6 17.4 10.7 40.7 59.5 47.8 79.2 4.6 12.8 16.5 49.5 14 61.5-1.8 8.7-9.9 7.3-16.8 8.2 18.8 13.2 15.7 40.6 22 60.5 6.6-1.3 15-5.8 21.6-5.9 1.7 0 8.3 2.1 9.1 3.2 1.1 1.4 5.5 20.4 6 23.5 1.2 8.1 3.7 24-6 27.4-3.5 1.2-23.8 3.9-24.7 4.8 2.4 15.6-3.5 33.5-9.6 47.9-33 77.8-114.3 114.1-195.9 108-24.3-1.8-73.4-21.1-90-39-30-32.3-64.7-86.5-85.7-125.3-2-3.8-5.9-6.9-6.9-11.6-5.6-2-5.9 3.6-8.6 7.6-27.5 40.9-52.2 84.6-84.3 122.7-18.6 22.1-43.4 32-70.8 40.2-46.9 14.1-119.7.8-159.5-27.9-29.6-21.3-56.5-55.8-66.9-91.1-3.2-10.7-6-20.5-3.8-31.7-16.2-5-32.7 1.1-32-21.6 0-4.6 5.2-31.5 7.3-34.2.8-1 7.4-3.2 9.1-3.2 6.6 0 15 4.6 21.6 5.9 6.3-19.9 3.2-47.4 22-60.5-21.1.6-16.5-13.9-13.7-28.7 6.8-35.9 27.2-85 51.3-112.7 2.4-2.7 10.4-10.5 13.7-9.9 1.4.2 4.3 2.8 5.7 1.8.4-.3 3.5-6.5 5.1-8.4 78.4-96 169.4-147.3 295.5-148.6 130.6-1.4 230.4 50.6 309.9 153.1.9 1.1 1.4 3.8 1.6 3.9zm-23.2 12.9c.5-.9-.7-4.8-1.2-6.1-11.9-36.2-84-85.4-116.8-105.2-92.4-55.8-233-57.1-326.2-2.4-31.9 18.7-100.5 66.1-116.5 98.5-1 2.1-5.2 11.4-5.1 12.9 0 1.8 1.8 2.9 3 3.9 5.2 3.9 14.7 8.1 20.8 12.2s13.2 8.7 18.1 14.4c-8-1.4-15.4-4.8-23.5-6-8.7-1.3-24.5-3.1-33-3-3.5 0-8.3 1.7-12.3 1.2-11.2 18.6-22.5 37.2-31.4 57.1-5.2 11.7-11.5 23.8-9.7 37 2.4 2.3 21.7 9.2 22.7 10.8.6.9 0 2.7.2 3.8 17.4-2.2 35-4.9 52.5-6 35.7-2.3 73.3-2.2 108.9-2.1 26.2 0 52.3 1.3 78.5 1-23.9-23.3-52.7-41.5-80-60.5 0-.8.9-.6 1.5-.5 4.5.3 36.6 16.6 43.2 19.8 8.9 4.5 43.4 21.3 48.3 26.7 2.7 2.9 8.3 14.6 10.7 15.3 8-.5 16.1 1 23.8 1.2 35.2 1.1 70.7-.6 105.8-1 4.7-6.1 6.7-14.3 13.4-18.8 29.9-14.8 58.8-31.6 89.8-44.2 1.7 1.2-.7 2.7-1.6 3.4-3.2 2.7-8.2 4.7-11.8 7.2-23.1 15.6-47.1 32.2-67.1 51.4 26.6.3 52.9-.9 79.5-1 42.7-.2 88.1 0 130.9 4.1 5.1.5 26.1 4.7 28.9 4.1 1.3-.3.8-3.5 2.3-4.1l22.1-10.1c1.7-14.1-5.3-27.7-11-40.2-3.4-7.6-7.7-16-11.7-23.3-2.1-3.9-16.8-30.2-18.4-31.1-.5-.3-10.8-1.2-12.3-1.2-8.5 0-24.3 1.7-33 3-8.4 1.2-16.2 4.5-24.5 6-.6-2.6.8-1.8 1.9-2.6 12.1-9.8 26.3-18.3 40-25.6zm-511.1 133.5c-30.6.6-88.1.8-115.1 11.9-10.9 4.5-14.9 7.8-19.2 18.8-7.9 20.1-13.2 48.9-15.5 70.5-2.5 23.3-3.3 32.2 6.1 53.8 41.8 96 152.8 135.7 245.9 85.2 23-12.5 46.4-47.5 61.8-69.2 11.5-16.2 28.8-39.4 37.3-56.7 13.1-26.6-4.3-64.9-26.2-82.1-20.1-15.8-64.3-23-89.6-26.4-28.1-3.8-57.2-6.4-85.6-5.8zm430 0c-36.4 1.7-121.3 10.3-149.3 32.7-21.6 17.3-38.7 55.3-25.7 81.7s44.9 69 64.2 92.8c14.7 18.2 22.5 27.6 44.3 37.7 83.9 38.9 181.8 9.5 227.2-71.2 5.9-10.4 17.7-34.1 17.6-45.5-.2-24.5-8.6-81.9-19.9-103.2-6.8-12.9-32.1-18.7-45.7-20.3-33.4-3.9-79.2-6.3-112.7-4.7m-86.8.7-230 .5c11.1 2.2 22.3 4.8 33.2 7.8 6.1 1.7 14.7 6.1 20.3 6.7 38 4.2 83.3-3.2 122 0l21.2-6.8 33.2-8.3h.1Zm-74 26h-82c4.9 2.9 14.9 21 18 22.5 1.3.7 7.5 1.4 9.5 1.5 5.9.4 33.5.6 37.1-2 4.4-3.1 11.4-18.2 17.4-22.1Zm-23 38c-11.3-.8-23.3-2.3-34.5 0-1.4.3-1.6-.8-1.5 1.5.2 3.5 2.6 7.8 3.1 11.4 10.2-2.2 19.2-2.9 29.3.2zm-404.1 13.1c-3.7-.6-18.6-5.1-20.9-3.7-3.6 2.2-4.2 21.6-1.6 24.6s14.9 2.2 19.5 2.8c1-.6 3.7-22.7 3-23.7m775.2 23.8c4.8-.7 18.3.7 20.3-3.9 1.4-3.3.4-21.8-2.5-23.5-1.1-.6-20.3 2.8-20.9 3.7 0 3.2 1.8 22.9 3 23.7Z" class="outline" fill="#000000"/></g>
    </g><g class="trait-group" data-category="right ear" id="right ear-stitches">
      <path id="fill-ear-rt" fill="#ffffff" d="M1715.7 184.2c3.2-.7 6.5-.5 7.2 3.3 2.3 39.5-3.6 77.2-9 116-.7 4.7-.2 11.1-1.1 15.9-5 26.9-24.5 58.9-29.7 86.3-5.7 30.4-4.7 64.8-10.9 95.1-7.8 38.3-25.1 77.8-33.7 116.4l-71.9 122.1c-45.8 31.3-94.9 58.3-141.8 88.2l-35 81-84.6 77.3c-5.6 2.9-16.3-.8-22.4-2.4-27.7-7.2-48.3-18.1-70.9-35.1-16.5-12.5-27.2-20.9-37.6-39.4-6-10.5-10.9-22.9-14.5-34.5 26.8-59.3 58.7-116.4 86.8-175.2 4.9-58.7 6.7-117.8 11.4-176.5 36.5-47.5 77-92.5 114.8-139.2 47.2-35.9 96.4-69 144.9-103.1 66.1-31.9 127.9-72.1 197.8-96.2Z" class="fill" data-original-prefix="fill"/><path id="shading-ear-rt" fill="#aaaaaa" d="M1680 253c.3 2-.2 3.9-.7 5.8-8.7 33.2-28 45.7-45.3 72.7-19.4 30.1-38.8 69.6-49 104-2 6.9-9.8 35.5-7.5 40.5 2.1 4.5 7.8 5.5 4.6 13.6-1 2.4-4.9 4.5-3.6 6.5.6 1 7.7 5.3 8.9 4.9 1.4-.4 5.2-8.5 9-7.8.7.1 4.7 3.7 6.3 4.6 1.9 1 8.5 3.8 9.3 4.7 4.5 5.1-6.4 13-3.6 17.5.6 1 12 9.8 13.2 9.9 2 .2 6.1-6.5 9.2-4.7.4.2 3.6 5.9 5.6 7.9 2.9 2.8 10.2 6.5 12 9 4.3 6.3-4.2 10-3.3 13.2.6 2.3 7.8 6.8 9.2 10 3.6 8.6-7.3 23.2-9.3 31.7-3.3 2.3-12.5-11.7-13.6-12-4.4-1.2-4.3 4.3-7.2 6.6-7.3 5.9-17.5-8.4-21.1-6.2-1.5.9-12.1 27.6-14.1 31.9-9.1 19-19.2 37.7-30.4 55.6-5.7 9.1-17 28.1-23.9 35.1-6.1 6.2-22.6 16.5-30.6 21.4-27.1 16.9-48.1 18.1-77.4 27.6-11.9 3.8-40.5 13.1-48.4 21.5-2.4 2.5-5.1 6.9-7.1 10-1.6 2.4-10.7 17.9-10.8 19.2 0 1.1 3 4.7 3.9 5.7 1.4 1.5 9.4 7.2 9.7 7.8 1 1.8-1.5 4.6-.4 6.8.5 1 3.8 3.2 5 3 1.4-.3 2-3.7 3.6-4.4 1.9-.9 5.3 0 5.9-.6.9-.7 2.4-11.2 5.1-12.3 28.4-5.8 53.7-14.9 79-29 37.5-20.9 69.2-49.9 102.5-76.5 2.5-2 5.5-4.5 8.4-5.5-22 29.2-47 56.2-78.1 75.9-14.3 9-29.7 16.2-44.2 24.8-6.6 3.9-30.4 17.4-34.2 21.8-1.5 1.7-16.3 37.7-17.1 41.1-.5 2.3 1.5 2.8 1.6 4.5 0 1.2-9.7 20.6-10.5 21.5-2.1 2.2-4.8 1.4-6.9 3.1-3.9 3.1-10.1 15.3-14 20-7.4 8.9-25.4 25.8-34.5 33.5-10.2 8.6-22.7 15.9-34 23-3.5 20.4-12.3 16.1-28 12-37.5-9.7-64.7-28.6-93.9-53.1l-8.1-11.9c3-7.3 3-12.6 7.6-19.4 9.5-14.2 27-30.5 38.4-44.6 2.4-3 17.7-21.7 17.9-23.1.3-1.9-7.2-5.6-3.3-14.3 1-2.3 4.4-4.3 2.9-7.1-2.8-5.4-7.8 3-12.9 2.7-5.8-.3-12.4-9.3-13.4-14.4-.9-4.3 1-9.7.3-12.3-.9-3.7-7.9-10-8.4-15.7-.4-5 15.1-25 15.8-32.2 2.3-.5 1.6.3 2.2 1.3 1.3 2.1 7.3 14.7 9.3 14.7 2.9-2.6 5.6-9 10-9.1s17.5 10.7 18.3 14.8c1.6 7.9-13.7 13-2.3 18.2 1.5-.1 3.5-8.7 7.2-9.8 5-1.4 8.7 5.3 14.3 2.3 9.5-16.8 18.2-33.9 26.8-51.2 13.7-27.4 25.6-51.9 41.7-78.3 11-17.9 25.9-32.9 29.3-54.7 1.5-9.4 1.1-18.9 1.1-28.4l54 6.5c10.4 14.5 17.6 31.1 26.5 46.5 1.4-.6 10.7-11.6 11.6-13.4 5.1-10.3 14.6-53.4 15-65.1.2-4.9-3.5-5.2-7-7.4-6.9 19.2-20.4 2.3-30.6-4-1.7-4.1 6.7-11 5.4-12.9-4.3-1.4-11.9-10-15.9-8.7-5.6 1.7-6.9 10.7-8.1 11.5-2.9 2-18.9-13.2-23-14.6-1.4-5.8 8.7-12.1 8.1-15.7-2.2-.7-7.6-6.3-8.7-6.5-3.1-.5-8.1 10.6-11.9 11-2.5.2-16.4-9.8-20.4-10.6-2.4-2.1 3.8-7.9 5.2-10.8 1.7-3.7 2.7-6.7-.2-10.1-.3-.4-7.5-5.8-8-6-4-1.9-4.6 4-7 7-8.5 10.6-9.7 3.2-17.1-2.9-1.8-1.5-7.7-4.4-8.5-5.6-3-4.7 9.1-12 9.4-15.7.3-3.5-17-9.2-8.7-22.7 3.1-5.1 7.3-4.3 7.8-4.7.6-.6-1-6.8 4.8-9.7 7.7-3.8 16.8 8.4 19.7 7.7 4.9-6.5 8.5-16.6 18.4-15.8 1.2 4.4 13.9 14.4 14.2 17.4.6 6.1-14.5 12.8-11.9 16.4.5.6 10.2 7.3 11.2 7 2.7-.7 7-11.6 11.2-12 2.9-.3 13.6 11.7 17.3 13.7 2.4 6.9-8.8 14.5-6.4 18.3.6 1 7.2 5.8 8.5 5 2.6-6.1 4.3-16.4 12.8-13.2 1.5.6 17.4 10.3 17.8 11.2 1.5 2.9-10.3 13.6-10.6 18 3.5.5 17.9 11.8 20 10 1.1-10.6 4.8-15.5 16-12 1.3-1.4-1.8-26-.8-31.3s9.6-20.9 12.6-26.4c17.6-31.6 51.4-76.3 80.4-97.5 18.6-13.5 41.2-28.1 60.8-40.2 6.9-4.3 19.7-12.6 26.5-15.5 1.8-.8 3.3-1.4 5.4-1.1Zm-115 343c11.1-2.5 18.4-14.1 24.4-23.1 1.7-2.6 8.7-13 9.2-14.9.7-2.5-7.9-8.8-10.6-7.6-1.5.7-4.1 4.6-6.1 6s-7.1 2.9-8 4.2c-1 1.4-9.4 24.1-9.7 26.1-.5 3.5.7 5.9.8 9.2Zm-294 371c.7.7 7-4.7 8-5.5 9.3-7.7 17-17 26.5-24.5l49-52c1.4-3-5.2-7.8-3.3-15.2.4-1.4 5.5-6.1 2.2-6.7-1.9-.4-7.2 7.9-12 7.9-3.7 0-9.3-8-15.3-4.7-10 17.1-21.2 33.5-33.2 49.3-10.3 13.5-11.2 12-16.5 29.5-2.2 7.2-4 14.6-5.5 22Z" class="outline shading" data-original-prefix="shading" opacity="0.5" style="opacity: 0.5"/><path id="outline-ear-rt" fill="#000000" d="M1202 940c-.7 2.2-2.8-.3-3.7-.8-7.5-4.1-15.4-7.3-21.3-13.7-11-12.2-18.8-30.7-29.5-43.5-1.6-4.6 0-20.2 2-25 2.1-5.1 8.5-12.8 11.7-18.3 15.6-27.4 29.9-56 41-85.5 2.9-1 12.6 1.5 13.7-1.8 1.5-4.5-2.4-14.2-1.8-19.8.6-5.7 5.4-14.9 7.2-20.8 19.1-62.7 19.6-130.1 25.3-194.7 25.9-36.9 52.3-73.4 80.4-108.6 6.1-4.5 13.9-5.4 20.9-7.6.9-5.5-1.2-12.2 1.3-17.2 19.4-19.9 38.5-46.9 59.9-64.1 43.3-34.7 113.5-72.5 164.2-95.8 36-16.5 113.1-50.1 150.5-53.6 2-.2 4.9-.6 6.6.7 1.3.9 4.2 14.2 4.5 16.7 5 34.4 0 106.7-6.2 141.6-2.7 15.4-3.5 13.8-11.5 25.5-20.9 30.2-30.9 86.3-28.2 122.9.9 12.8 7.2 15 4.6 29.5-1.9 10.4-16.9 71.2-22.6 75.4-1.6 1.2-11.6 3.5-12 5.2 1.8 11.3 6 12.6 1.6 24.3-17.4 46.2-55.1 107.3-90 142-35.9 35.8-70.5 53.9-113.6 78.5-12.7 7.2-18.8 16.5-25.8 29.2-2.1 3.8-8 18.8-9.7 20.3-2.4 2.1-11.1 1-13 5-2.3 4.8 3.8 10.5 3.3 15.3-.2 2.6-7.5 18.1-9.4 20.7-5.5 7.6-25 19.5-33.4 27.5-14.1 13.5-27.2 28.2-41.4 41.6-7.1 2.4-14.6 3.4-22.1 3-15.9-.8-45.9-12-59.4-20.7-1.4-.9-4.4-2.4-4.1-4.4 10.7 4 34.4 9.2 45.5 8 14.3-1.5 58-38.5 70.5-49.5 6.3-5.5 22.8-19.3 26.8-25.2 1.7-2.4 7.2-13.8 7.7-16.3.7-3.6-8.2-12.5-11.6-11.6-4.2 1.2-7.9 14.7-11.5 14.7-.8 0-11.9-8.5-12.6-9.5-3.3-4.3 9.1-15.5 8.8-19.1 0-.9-10.3-11.7-12.6-10.4-1.9 1.1-7 15.2-12.5 14.7-2.1-.2-11.6-9.5-11.5-11.1.3-3.2 10.8-14.9 10.8-16.2l-12.3-9.5c-2 .4-7.6 11.3-9.3 13.7-.4.5 0 1.9-1.7 1.2-.8-.3-12.2-11.8-12.4-12.7-1-3.7 7.4-10.2 6.8-12.7l-6.4-4.4c-.8 0-1.8 1.7-2.3 2.5-8.7 12.8-19.3 34.1-26.7 48.3-9.7 18.5-20 39.9-24.6 60.4-3.7 16.5-2.6 19.7 1.9 35.3.4 1.3.6 3-1.3 2.3-2.3-.9-15-11.2-17.5-13.5-4.4-4.1-9.2-7.6-9.1-14 .1-6.2 1.2-18.8 2.1-24.9.6-4.2 26.4-37.8 31.1-45.9 3-5.3 20.7-40.8 19.7-44-.4-1.5-8.8-6.8-10.8-5.5-1.6 1-5.4 16.3-8.7 16.8-1.9.3-9.9-8.4-12.4-9.6-.4-4.7 9.3-14.6 7.6-18.3-.7-1.6-12.1-10-13.5-9-1.2.8-3 15.2-9 12.5-1.6-.7-8.6-9.6-8.9-11.2-.6-3.7 6.8-11.7 5.8-13.2l-7.9-5.1c-7.1 12.3-13.3 25.1-19.8 37.7-2.6 5-6.7 10-9.1 15-2.8 6.2-15.3 38.7-16 44-3 22 12.8 50.5 26.9 66.4Zm517-752c-41.7 13.6-81.4 32.9-120 53.5-44.4 23.7-89.6 51.7-131.9 79.1-37.3 24.2-73.8 51.1-104 83.8 2.3 1.6 7.9 8.1 10.2 7.5 2.6-.7 10.3-13.4 13.2-15.9 2.9-2.6 2.2 0 3.5 1.5s9.1 10.1 8.9 10.9l-12.9 15.1c6.4 5.6 12.9 11.5 20.5 15.5 2.5 0 8.2-11.3 11.1-13 .8-.2 12.1 9.7 12.3 10.6.4 2.4-8.4 10-8.8 12-.4 2.2 15.3 12.7 17.4 12.4l8.2-12c2 1.6 12.9 7.8 13.2 9.6.5 2.6-7.4 11.7-6.4 13.4 3.4 2 25.1 16.9 26.5 15.9l7.6-13 15.4 8.1c1.4 2-9.2 12.3-7.5 14.9 1.6 2.4 22.4 11.8 26.1 15 1.5-.9 1.4-2 1.6-3.5.5-4.4-.6-14.2-1.1-19-1.1-11.1-8.7-37.9-7.9-45.9.7-7.6 15.4-37.1 19.8-45.3 27.6-51.9 68.3-85.1 109.2-125.8 6.8-5.4 15.2-7.9 22.3-12.7 3.7-2.5 26.5-23.7 29.7-20.8l-22.5 39c-10.9 8.2-22.7 15-33.4 23.6-53 42.2-92.5 108.3-94.9 177.2l12.8 8.2c1-2.3 6.2-13.5 8.4-13 1.8.4 8.4 9.7 11.6 10.6.8 3.6-5.8 10.1-6.7 13.3-.5 1.7 12.6 11.5 15.1 13.1l8.2-10.9c3 2.8 13.4 8.5 12 13-2.7 8.2-10.2 6.5-.6 15.5 1.8 1.8 14.7 13 15.7 13.3.6.2 1.9.4 2.3.1.5-.3 3.7-9 5.6-10 .9-.2 10.8 9.2 11.5 10.5 3.2 5.4-4.6 9.4-3.9 12.9.3 1.7 10.8 10.8 12.8 12.6 6.3-25.4 17.4-53.3 19.1-79.5.5-8.5-.5-17.5 0-26.1 1.9-35.4 10.1-81.8 23.3-114.7 6.8-17 15.7-25.4 19.5-44.5 7.4-37.6 11.2-78 8.3-116.2Zm-354.1 264c-2.1 1.5-11.5-8.1-13.9-9.6-.2-3.3 9.6-11.3 8.5-13.4-3.7-1.9-9.1-9.8-13.1-7-6.9 8.8-14.4 17-21.4 25.6-15.7 19.2-37 44.4-50.5 64.5-10.9 16.3-10.6 37.7-12.6 56.4-2.3 21.3-5.1 42.7-7 64-2.3 25.7-.7 63-9.5 86.5-2.1 5.5-15.5 30.3-15.3 33.3.1 1.4 6 11.1 7.3 11.7 1.6-1.9 5.1-10.7 6.5-11.5 3.5-2.2 9.3 8.7 12.9 10.2-.6 4.2-8.8 11.5-6.4 15.4 1.4 2.2 10 7.2 12 10 2.3-1.3 5.9-12.5 6.6-12.9 1.4-1 13.6 8.5 13.8 9.6.5 2.3-7.5 10.1-5.4 13.4.7 1.1 10.4 5.7 11.5 4.9 14.9-28.1 30.2-56.2 47.7-82.8 12.2-18.5 28.6-36 36.4-56.6 6.7-17.6 17.7-69.2 14.8-86.8-.7-3.8-10.8-27.6-9.8-28.7 13.4 6.2 26.8 13.4 39.3 21.2 3.9 2.5 14.9 8.7 17.2 11.8 3 4 10.2 28.6 12 35 5 17.7 6.7 61.6 34.5 34.5 18.2-17.7 39.5-77.9 41-103 .2-3.1.6-11.1-1.1-13l-35.5-21.5c-2.6 1.8-4.7 11.1-7.2 11.9-2.7.9-15.4-6.2-15.2-8.2.2-2.3 7.6-12.8 6.9-13.7l-25.7-14.9c-2-.3-7.7 11.4-8.4 13.9-1.9 1.4-12.9-7.6-15.9-8l7.5-15.9-18-12c-2 .5-6.7 12.3-8.5 13.5-1.1.7-1 .5-2 0-1.1-.6-11.8-8.4-12-9.1l9-15.4-22.5-16c-2.1 3.4-4.9 6.4-7.4 9.7-.7 1-1 3.2-1.2 3.3Zm207.9 76.2c-.4-.7-12.7-9-13.5-9-1.7-.2-6.9 7.2-7.2 8.6-.8 3.8 4.2 7 4.7 9s-6.8 10.6-8.5 13.2c-28.1 43.5-30.1 78.6-42.7 126.3-2 7.6-3.2 4.8-6.4 8.1-12.1 12.1-23.3 21.3-37.8 30.7-4.2 2.7-37.6 22.8-39.5 21 3.2-7.4 7.6-14.4 10.5-22 10.2-27.5 10.4-59.8-8.1-83.9-10.7-14-18.2-14.4-25.6 2.2-9.5 21.3-13.4 47.3-14.6 70.4-18.3 22-37.9 43.1-54.4 66.6-3.9 5.6-16 22.3-17.4 27.7-.7 2.6 7.1 7.9 8.1 7.8 2.1-.2 7-12.2 10.5-10.4.7.4 10.7 9.5 10.9 10.3 1 4-7.7 8.8-5.4 12.3.4.6 10.4 8.1 11.1 8.1 3.1-.4 5.6-9.4 8.8-8.9.7.1 11 7.6 11.7 8.4 3.3 3.8-5.6 9-5.1 12.9 2.8 1.2 10.5 9.8 13.1 8.2 1.4-.9 4.7-8 6.6-9.6.8 0 13.7 7.8 14.4 8.6 3 3.3-6.8 10.3-5.9 13.8.4 1.5 10.3 8.7 11.9 7.6 2.3-7.8 9.4-15 12.4-22.1 2.9-6.6 3-14.4 6.1-21 27.2-18.9 59-32.5 86.3-50.7 50.5-33.6 111.1-115.8 131-173 1.1-3.1 3.9-8.7 3.1-11.5-.3-1-13.4-14.5-14.5-14.7-2.8-.5-7.2 10.6-10 11.9-1.6-1.1-12.1-9.8-12.3-10.6-1.1-3.5 8.8-11.6 6.5-15.3l-22.1-18c-1.7-.4-8.5 10.8-9.5 13-5.4-2-10.1-7.4-16-9-1.4-1.8 11.1-12.9 8.8-16.8Z" class="outline" data-original-prefix="outline"/>
    </g><g class="trait-group" data-category="left ear" id="left ear-ringer">
      <defs/><path id="fill-ear-left" fill="#ffffff" d="M366.5 448c2.2-.7 1.7-6.1 1-8-14.8-50.5-33.9-100.1-45.5-151.5l-3-99c.6-3.5 14.7-7.2 18.4-7.5 72.6 34.3 145.7 67.7 217.5 103.6L702.5 405l86.3 108.7c9.7 62.8 14 126.7 22.2 189.8l75.7 173.9-26.9 52c-5.3 7.8-42.1 33.9-51.5 38.5-18.4 9-40.3 13.4-59.9 19.2l-3-1L638 882.5c-7.9-16.2-9.4-35.5-17.5-51.5L476 735.5l-73.2-131.3c-15.9 1.2-45.2 3-28.2 25.7 7.5 10.1 22.2 9.2 32.5 13.5 1.2 5.2 9.4 13.6 10.5 17.5 1 3.2-1.3 6.7-.6 10l-68.5-7-16.8-43.2-.2-4.8 23.8-45.7c3.4-2.8 29.6-6.2 36.2-8.3 1-.3 2-.2 2.4-1.4-4.9-19.1-12.3-39.6-14.7-59.2-.4-2.8.7-10.8-1-12-7.7-.7-15.3-2.8-23.1-2.4l5 37c-4.9.6-8.3 6.4-14 4.6l-46.8-15.7v-39.6l30.9-22.7c3.4 1 12.5-2.5 13.5-2.5 4.6 0 20 .9 23 0z" class="fill" data-original-prefix="fill"/><path id="fill-earing-lft2" fill="#ffffff" d="M404.9 643.2c1 .6 9.3 17.3 12.1 19.3.2.5-2.1 1.1-2.6 1.1-14.2.4-44-3.9-56-11.5-9.6-6-21-30.6-19.2-41.6 1.4-8.8 18.5-28.8 27.1-31.8 12.1-4.4 38.3-7.8 51.3-7.7 9.6 0 20.4 10.4 15.4 20.4s-17.7 8-23.7 9.3c-9 1.9-31.4 3.1-37.5 8.5-7.4 6.4-2 19.2 3.9 24.9 4.8 4.6 16.5 7.7 23.1 8.9 1.8.3 5.2-.4 6.2.3h-.1z" class="fill" data-original-prefix="fill"/><path id="fill-earing-lft1" fill="#ffffff" d="M360 523c-3.2 2.8-33.2-6.9-38.4-9.1-15.7-6.7-18.1-11-16.7-28.4 1.2-14.7 9.9-16.9 22.1-21.9 21.4-8.9 37.2-11.8 60.2-5.2 8.6 2.5 26.1 9.5 27.6 19.5.9 6.5-3.8 15-10.5 16.1-2.5.4-17.8-4.5-22.2-5.4-12.8-2.4-34.3-7.6-44.1 3-13 14.1 15 16.1 18.6 19.5 1.8 1.7 2.4 9.3 3.5 12h-.1Z" class="fill" data-original-prefix="fill"/><path id="shading-ear-lft" fill="#aaaaaa" d="m608.2 565.2 3.3-1.2 51.4-6c1.9 9.6.6 19.6 2.2 29.3 3.3 21 21.8 41.3 32.7 59.3 28.9 47.5 49 99.2 78.8 146.2 16.1 25.4 34.3 49.3 53.4 72.6 7.9 9.6 28.7 29.6 32.7 39.3 1.1 2.7 2.6 7.6 2.1 10.5-.3 1.4-7.6 14.6-8.8 16.2-3.6 4.9-14.8 12.8-20.1 16.9-22.1 17-43.7 28-70.9 35.1-4.6 1.2-16.1 4.8-20 3l-92-84.2c-10.8-23.6-17.5-49.5-29.5-72.3L510 764.4l-84.1-88.9c-25-3.4-50.4-5.3-75.4-8.6-1.3-.2-4-.6-4.7-1.5L326 606.8l30.8-40.3c3.9-2.9 10.3-.8 15.1-1.4 1.2-1.2-6.9-24-8-27.5-8.1-2.8-41.4-4.6-46.1-8.9-3.1-2.9-16.5-30.5-19.5-36.5s-7.8-14.2-7.5-16.5c0-.8.4-1.5 1.1-2l51.3-33.7c3.4-1.3 29.1-1.4 32.8-.3l43.5 26.5c1.2 1.1 1.6 2.4 2.2 3.8 1.2 3.2 5.4 18 5.4 20.8 0 5.9-7.2 8-6.9 10.8.3 3.3 9.1 19.4 11.3 23.7 8.1 15.8 29.4 56.7 42.6 66.4 2.6 2 5.4 4.1 8.9 3.6 1.8-8.1-2.3-16.5-5.2-24.2-2.8-7.3-11-21.9-11.7-28.4-.9-9.3 4.3-27.3 4.9-37.9 3.8-61-29.8-136-65.2-184.8-8.8-12.1-24.5-26.6-30.7-39.3-1-2.1-7.2-18.7-7-19.7.2-1.1 5.7-4.9 6.9-5.2 2-.5 12.8 7.7 15.7 9.4 30.1 17.6 70.1 41 93.8 66.2s51.7 62.1 64.7 92.3c5.3 12.5 4 11.2 3.8 24.1-.7 40.9 1.3 80.7 10.5 120.5 1.7 7.1 5.7 25.4 9 31 .8 1.3 7.7 9.2 8.9 10.1.9.6 1.4 1.7 2.6.5l24.2-44.3zm-292.1-82.3c3.4 2.2 5.5-3.1 7-4.3 12.8-10.8 63.5-.9 80.3 1.4 11.5-4.6 6.5-11.6-1.7-16.2-12.2-6.9-36.4-10.5-50.1-8.7-5 .7-31.9 10.7-35.1 13.9-2.2 2.2-1.9 12.9-.4 14q0-.1 0 0ZM419 503c-11.1 4.8-24.2.2-36 1l13 60 40-2zm5.8 70.2c-3.2-3.1-24.7-.7-30.1 0-9.5 1.1-25.8 3.3-33.8 8.2-5.4 3.3-19.9 21.7-21.4 27.6-2.8 10.8 1.6 22.4 14.5 20-1.1-8-2.6-17.2 2.2-24.3 8.9-13.2 46.4-4.8 62.3-16.7 3.8-2.8 11.1-10.1 6.3-14.8M450 595l-39.9 13.4c11.9 17 20.5 35.9 31.6 53.4 42.6 67.4 95.1 111.3 170.2 139.8 14.3 5.5 29.5 7.7 44 12.5 5.5 13.5 10.9 27.2 17 40.5 9.5 20.5 22.4 32.9 37.7 49.3 17.6 18.9 38.6 41.2 58.5 57.5 1 .8 7.3 6.2 8 5.5-3.9-10.9-5.5-27.1-10.2-37.3-2.9-6.1-17-20.7-22.2-27.8-24.6-34-42.1-71-63.4-106.6-13.9-23.2-19.7-24.2-44.7-33.3-22-8.1-50.6-11.8-70.2-19.8-11-4.5-43.7-25.5-52.2-33.8-7.1-6.9-18.4-25.8-24.1-34.9-15.6-24.8-29.5-51.1-40-78.5h-.1Zm-45 42c-3-8.1-6.1-16.4-11-23.6-2.7.8-19.3 4.8-20 5.6-.3.4 0 2.3.5 3 .8 1.3 24 13.2 26.8 14.2 1.2.5 2.3 1.1 3.7.8" class="outline shading" data-original-prefix="shading" opacity="0.5" style="opacity: 0.5"/><path id="outline-ear-lft2" fill="#000000" d="M671 548c1 1.1-8.8 24.7-9.5 28.9-3.2 18.8 9 75.7 17.4 93.7 8.3 17.9 19.9 26.5 31 41 35 45.5 53.4 108.2 84.2 156.9 4.4 7 27 36 27.8 40.2 1.2 5.8 2 19.4 2.3 25.8 0 1.9.2 3.7-.6 5.5-1.3 3.1-26.2 24.3-28.5 22 .6-4.8 4.2-9.9 4.9-14.6 4.5-32.7-34.7-99.9-51.7-129.1-19.1-32.7-44.8-69.8-70.1-97.9-2.4-2.7-12.2-10.8-13.1-12.2-2.1-3.5-.6-16.6-1-21.8-1-12.8-10.5-52.4-18-62-10.4-13.3-23.7 7.8-28.2 16.8-11.9 24-9.9 50.3-.3 74.7 2.7 6.9 6.7 13.2 9.5 20-2.9 0-5.5-1.3-8-2.5-17.1-8-40.7-23.6-55.4-35.6-4.2-3.4-15.7-12.9-18.4-16.6-3-4-9.1-42.7-11.4-51.6-8.6-32.6-20.5-64.9-41.6-91.5-.3-1.7 5.1-9.4 6.3-12.3 14.5-33.8 3.2-89.9-11.3-122.7-23.4-53-61.8-94-110.7-124.3l-22.5-39c3.3-3.1 26 18.4 29.7 20.8 6 4.1 14.7 6.7 20.3 10.7 9.2 6.5 21.7 22 30.5 30.5 33.1 32 57.7 54.3 80 96 4.4 8.1 20.6 40.5 21.3 47.8.7 7.6-5.5 27.2-6.7 35.9-7.6 53.4 0 102.9 25.7 150.1 5.5 10 23 36.2 36.2 23.9 4.9-4.5 9.1-31.2 11.5-39.5 2-7.1 8.6-30 12-35 3.1-4.5 28.4-18.6 34.8-22.2 2.3-1.3 20.8-11.7 21.7-10.8z" class="outline" data-original-prefix="outline"/><path id="outline-ear-lft1" fill="#000000" d="M846 940c15.1-16.5 31.1-43.1 27.9-66.4-6.7-13.7-9.4-29.6-15.7-43.3-5.9-12.9-15.5-26.6-22-40-10.6-21.5-23.7-48.6-32.3-70.7-9.2-23.4-7.5-61.4-9.8-87.2-1-11-2.9-22-4-33-2.3-24.6-2.1-67.2-15.6-87.4-14.6-21.8-37.5-48.9-54.5-69.5-41.4-50.3-82.8-86.1-137.5-121.6-42.3-27.4-87.4-55.5-131.9-79.1-38.8-20.7-78.7-40.2-120.7-53.8-3 38.2.9 78.6 8.3 116.2 3.3 16.9 7.6 19.5 14.6 33.4C367 366.1 372 402 378.4 433c1.5 4.2 10.7 6.3 14.6 8.4 13.7 7.3 26.9 14.3 34.4 28.6 6 11.4 4.6 18.9-3.4 28.5-12.5 14.9-22.7 12.7-40 7.5-1.6 1.8 9.7 42.2 12 47.5 20.4.6 40.3.8 51.9 20.1 6.5 10.9 4.8 15.8-1.8 25.8-7 10.7-14.9 15.8-28 16.5-1.5 1.5 7 17.2 8.5 20 24.3 45.7 71.1 106.9 114.2 135.8 26.6 17.9 62 31.7 86.6 51.4 7.8 6.3 4.2 5.9 6.1 13.9 12 50.8 60 106.1 105.3 130.7 23.2 12.6 44 11.2 68.3 1.2-1 4.5-8.9 7.6-13 9.5-19.5 8.8-52 23.1-72.4 12.4-3.2-1.7-21.8-20.6-26.2-24.8-8.6-8.3-15.6-17.1-25-25-10.3-8.7-24.4-15.4-30-28-10.2-23.4-16-42.1-31.1-63.9-13.3-19.2-23.3-19.4-42.1-29.9-55.3-31-107.1-75.3-138.5-131-19.2-.6-39.2-1.6-58-5.5-27.5-5.8-33.9-14.5-44.3-39.7-8.6-21.1-13.7-31.3-2.7-52.6 9-17.5 20.9-37 43.2-36.3l-2.1-10.9c-21.9-2.3-55.5-6.5-70.9-23.6-10.3-11.5-13-21.7-12.1-37 1.1-18.1 4.6-21.7 19.4-30.6 10-6 25.4-14.6 36-19 6.2-2.6 12.7-5.4 19.7-4.8 2-2-10.8-49.6-13.2-55.3-4.6-10.8-15.9-20.4-20-29-3.4-7.1-5.9-31.4-6.8-40.2-3.1-33.1-7.5-84.8-2.9-116.9.4-2.5 3.3-15.8 4.5-16.7 1.7-1.2 4.6-.9 6.6-.7 27.9 2.6 74.9 22.3 102 33 67.9 26.9 154.8 70.8 212.1 115.9 12 9.5 25.4 25.3 36.2 36.8 46.7 50.2 88 104.7 126.9 161.1 8.9 76.2 3.1 178.6 48.8 244.2 2.9 4.1 7.4 7.9 10 12 7.1 11.1 12.9 32 19 45 4.2 9.2 9.1 18.3 13.7 27.3 1.4 2.7 6.4 9.3 7 11 .8 2.6 2.6 22.5 2 24.6-10.1 12.6-17.6 27.8-27.4 40.6-7.7 10-14.2 13.1-25.3 18.7-1.2.6-3.1 2.7-4.1.4zM360 523c-1.1-2.7-1.7-10.3-3.5-12-3.5-3.4-31.6-5.5-18.6-19.5 9.8-10.5 31.3-5.4 44.1-3 4.5.9 19.7 5.8 22.2 5.4 6.7-1.1 11.5-9.6 10.5-16.1-1.5-10-18.9-17-27.6-19.5-23-6.5-38.7-3.7-60.2 5.2-12.2 5.1-20.9 7.2-22.1 21.9-1.4 17.4 1 21.7 16.7 28.4 5.1 2.2 35.1 11.9 38.4 9.1h.1Zm44.9 120.2c-1-.6-4.4 0-6.2-.3-6.6-1.2-18.3-4.3-23.1-8.9-5.9-5.6-11.3-18.5-3.9-24.9 6.2-5.3 28.5-6.5 37.5-8.5 6-1.3 21-4.1 23.7-9.3 5.1-10-5.8-20.4-15.4-20.4s-39.1 3.4-51.3 7.7c-8.6 3.1-25.8 23-27.1 31.8-1.7 11 9.6 35.6 19.2 41.6 12.1 7.5 41.8 11.8 56 11.5.6 0 2.8-.6 2.6-1.1-2.8-2-11.1-18.7-12.1-19.3h.1zM396 628c-1.1-6.4-1-9.6-8.2-8.7-13.6 1.6 1.6 10.2 8.2 8.7" class="outline" data-original-prefix="outline"/>
    </g><g class="trait-group" data-category="head" id="head-biker">
      <path id="fill-head" fill="#ffffff" d="M1561.7 1243.3c1.8 1.8 2.2 3.6 2.4 6.1 1.1 11.2-1.7 23.8-2.1 35-.3 8.4 1.5 45.8-4 50-1.5 1.2-9.1 2.3-11.5 2.5-24.7 2-52-7.3-77-9-6.3-.4-23.2 1.4-27.4-1.6-5.6-4.1-9.2-25.3-13.2-32.8-9.2-17.2-28-17.9-44.9-22.6l15.8-30.7c4.9-20.2-14.1-66.4-27.4-82.2-6.9-8.2-25.5-11.5-36.2-13.8-60.9-12.6-141-16.3-203.7-18.3-58.7-1.9-118-1-177-2.9-86.1-2.9-163.6 4.2-249 12.9-10.8 1.1-24.2-1.4-30.9 10.1-2.2 3.7-5.2 9.6-7.4 13.6-17 31.3-15.6 63.6-7.9 97.6 1.1 4.9 4.8 8 4.8 12.7-24.2-1.1-36.9 22.3-52.7 36.8-22.6 4-45.8 4.3-68.7 6.3-20.5 1.8-31.2 2.1-51.8-2.4s-24.2-5.1-22.8-27.2c.7-11.2 3.4-23.4 4-35 .8-15.1-3.7-29.9 6.5-42.6 25.8-32.1 56.6-57.4 74.4-96.6 12.8-28.1 12.6-54.1 16.2-83.8.7-5.4 3.1-11.6 3.8-17.2 3.3-27.6 1.2-47.7 12.9-74.1 8.5-19.1 12.2-22.7 15-45 5.9-46.8 5.4-87 28-130 68.3-130.2 204.9-182.7 345.6-192.4 126-8.7 279.4 17.9 375.1 106 37.8 34.9 59.4 73.7 74 123 12.6 42.7 12.4 92.2 26 132 6.8 20 22.4 14.5 28.2 36.8 8.8 34.1-3.4 73.9-1.7 108.7.7 15.8 3.7 37.6 8.3 52.7 6.3 20.6 25.8 41 34.6 61.4 7.4 17.2 6.9 33.2 24.2 45.8 4.5 3.3 14.2 6.5 17.6 9.9v.3Z" class="fill" data-original-prefix="fill"/><path id="fill-head1" fill="#ffffff" d="M672.8 951.2c5.4-.8 16.4 2.4 19.5 7 4.8 7.3 3.1 30.3 0 38.4-4.4 11.1-27.1 29.8-38.7 19.3-2.9-2.6-7.3-14.6-7.5-18.6-.6-14.5 10.3-43.9 26.8-46.2Zm3.9 14.1c-2.5-2.3-4.7-.4-6.8 1.2-9.1 6.9-19 25.8-12.8 36.8s19.1-9.5 20.9-15.8c1.3-4.6 2.2-19-1.3-22.3Z" class="fill" data-name="fill-head" data-original-prefix="fill"/><path id="fill-head2" fill="#ffffff" d="M1373.3 961.3c.2-.3 5.3-4.5 5.8-4.7 8.6-4.9 17.3-3 23.3 4.5 12.9 16.1 24.7 54.1 1.3 66.1-18.5 9.5-29.8-12-32.4-27-1.3-7.5-2.1-33.1 2.1-39h-.1Zm14.4 6.8c-1.9.5-3.8 3.8-4.4 5.7-4.2 11.5-2.4 34.4 8.8 41.7 2.9 1.9 4.1 2.4 6.4-.5 6-7.3 1.1-28.9-2.6-37.3-1.1-2.5-4.8-10.4-8.2-9.5Z" class="fill" data-name="fill-head" data-original-prefix="fill"/><path id="fill-head3" fill="#ffffff" d="M667.7 993.7c-8.3 7.3-6.7-16.6 1.8-15.8 6.6.6 1.1 13.3-1.8 15.8" class="fill" data-name="fill-head" data-original-prefix="fill"/><path id="shading-head" fill="#aaaaaa" d="M1545.7 1307.3c.8.6 5.6 5.2 6.3 6.2 3.9 5 4.7 10.8-2.7 12.3-15.6-3.8-33.3-4.8-48.7-8.9-6.6-1.8-6.4-3.5-8.3-9.7-8.4-26.7-11.6-56.5-20.8-83.2-17.8-14.4-34.5-40.6-52.5-53.5-13.3-9.5-36.6-14.9-50.9-24.1-31.7-5.4-63.5-12.5-95.5-16.5-83.3-10.5-166.2-11.3-249.9-12.1-92.4-.8-186.2-2.3-278 7.1-35.6 3.7-71.1 10.3-106.8 14.2-20.3 5.7-53.7 31-65.6 48.4-5.8 8.5-25.7 49-28.5 58.5-4.5 15.4-3.9 35.3-8 51-1.2 4.8-2.9 6.4-8.1 6.7-12.3-2.6-28-.5-39.9-3.1-1.5-.3-4.6-2.4-5.2-3.8-6.8-15.1 19.4-20 27.4-25.5 5.6-3.8 9.7-31.5 12.4-39.6 13.4-41.1 43.9-82.5 81.4-104.6 15.9-9.4 25.3-7.5 42.8-8.2 38-1.4 81.8-11 122-13 69.2-5.3 138.7-2.3 208-2.1 135.3.4 273.7-5.2 406.5 26.5 17.8 4.3 53.6 12.9 67 24 22.2 18.4 50.2 60.7 57.5 88.5 3.1 11.9 5.2 41.8 11.2 49.8 4 5.2 20.7 10.1 26.9 14.6Z" class="outline shading" data-original-prefix="shading" opacity="0.5" style="opacity: 0.5"/><path id="shading-head1" fill="#aaaaaa" d="M829 1056c-10 1.4-18.4 2.6-28.5 1-30.1 5.3-60.7 8.2-90.8 13.3-31.3 5.3-68.9 16.8-99.4 19.6-2.1.2-4.8.5-6.9 0h-4.5c-2.2-4.2-.3-15.6 3.1-18.4.7-.6 2.3-.3 3-1.2 1.2-1.7.4-4.4.9-5.8.4-1.2 2.4 0 3.1-1.3 6.6-11.8-5.7-36.9-7-49.8-.8-7 1-27.5 2.5-34.6.6-3 5.1-13.7 6.9-15.6 2.8-3.1 17.4-7.8 17.7-8.8.6-2.1-1.1-1.3-2.2-1.7-6.2-2.5-26.1-7.9-27.6-14.5-.5-2-.3-3.6 0-5.5.5-3.2 8.6-25.9 10.3-27.7 3.6-3.8 13.9-2.5 18.2-7.3.4-7.6 2.9-15.1 4.2-22.3 2.5-14.9 2.7-32.8 13.4-45.1 4-4.5 18.1-16.8 20.2-21.4 1.3-2.9-1.9-7 1.3-12.7 5.5-9.8 19.2-3.5 27.4-1 5.8 1.8 31.7 10.2 34.3 13.7 3 4 1.2 17.7 1.5 23.5 3.2 56.4 20.8 94.1 72.8 119.2 12.8 6.2 25 9.3 39.2 10.3.5-5.5-3.7-10.5-1.5-16 7.6 10.7 20.8 12.1 30.8 19.2 8.9 6.3 10.2 12.5 22.2 16.8 24.2 8.9 54.3 5 80 8 10.9 1.3 21.5 4.9 32.3 6.7 12.8 2.1 26.9 3.7 39.2-1.2l-57.5-71.5c-7.4-7.9-37.6-6.8-41.8-16.2-2.5-5.6-2.6-15.1-4.6-21.2L948 825l-43 19.5c-5.9 1.6-7.3-1-9.5-5.6-2.5-5.2-11.8-30-12.3-34.8-.6-5.2 2.9-7.5 7.8-7.2-1.4-1.7-.9-4.8 1-3 0 0 0 2.2 1 3.5 2.5 3.5 13.6 17.6 16.5 18.6 4 1.4 17.2-4.5 21.8-6.4 9.8-4.2 21.2-10.2 30.4-15.6 5.2-3 9.6-8.6 15.3-8.2 1.7 1.7-9.3 32.1-10.5 37-2.4 10-4.4 22.5-6.2 32.8-2.1 12.5-5.8 25.8-2.9 38.2 16.1 4.7 33.1 14 49.3 17.7 15.2 3.5 36 2.3 51.8 1.3 2.8-.2 5.6-1.3 8.4-1 1.5-5.4-3-35.5 0-37.6s11.2 2.6 14.6 3.5c10.3 2.7 19.9 4.3 30 8 1.5.5 2.8 1.8 4.4 2.2 1.2 6.6-20 30.3-16.9 33.8.2.2 3 .3 4.3 1.2 5.7 3.7-.5 19.2 6.1 26 3.5 3.6 23.8 6.4 30.8 9.2 12.6 4.9 29.7 17.2 39.8 26.2 6.3 5.7 20.2 24.8 27 26.1 5.6 1.1 18.3-6.8 22.6-10.6 3.3-3 4.7-6 7.2-8.8 5.9-6.6 1 5.5 0 7.8-.9 1.9-6.4 10-6.5 10.7-.5 1.9.4 4.3-1 6.3 2.2 1.5 8.2-3.9 10-5.5 9.1-7.6 17.7-18.3 26.8-26.2l-5.3-66.3-44.6-56.4-81.4-18.6c-1.7-.4-4.3-1.3-5.1-2.9-.5-1-1.3-11.2-1.5-13.5-.3-4.7.7-10.3-.2-14.8-1.4-6.6-10.3-18.5-13.3-25.7-1.6-3.8-6-17.1-6.2-20.6s5.9-32 7.4-35.1c3.2-6.5 7.2-.3 11.2-4.3-.9 3.1.3 6.2 0 9.3-2.1 18.3-8.9 24.7 0 44.3 4.7 10.5 9.5 12.9 16.7 20.3 8.6 8.9 1.1 12.8 4.4 18.6 4.7 8.1 38.1 13 48.1 15.9 52 15.2 56.3 54.5 88.4 90.1 17.3 19.2 25.1 17.9 49.4 12.7 14.3-3.1 51.2-11.7 60.7-21.3 8.2-8.2 13-25.5 15-37 3.8-21.1-2.7-49.3-7.8-70.3-.7-3-6-15.6-3.7-17.8 2.8-2.7 4.6 5.7 5.8 7.7 5.8 10.3 9 11.9 11.9 25 7.4 32.7 2.1 68.2 10.1 98.9.5 1.9 1.6 3 2.2 4.8-4.8 3.9-10.5 1.8-16.1 3-.7 3.5-5.4 10-4.8 12.8.4 1.8 2.4 3.1 2.7 4.5.3 1.5-.9 3.1-.6 4.5.4 1.8 3.5 13 4 13.5s4.5 1.4 5.2 1.3c.7 0 .6-1.8.7-1.9 1.5-1 2.6 1.5 3.9 2.2 15.5 8 20.6 7.8 22.9 27.1 1.4 11.9.7 23.8-1.4 35.5-1.1 6.2-5.4 16.5-5.6 21.5 0 4.1 2.9 10.9 2.8 16-.3 20.7-24 19.7-39 17.2-14.8-2.5-31.4-10.3-46.3-10.7-6.5-.2-11.3 2.3-18 2-20.2-.9-44.3-6.7-65-9-37.6-4.2-75.5-6.7-113-10-66.9-5.9-133.7-14.1-201-11-40 1.8-80 7.1-120 9l-10.5.9v.5Zm272.7-84.6c-18.1-5.7-36.6-21.5-54.7-6.9 10.2 10.2 21 25.2 33.1 32.9 9.3 6 32.4 12.5 42.2 6.4 4.1-2.6.5-2.5.2-3.1-6.2-10.3-13.4-19.9-20.8-29.3M656 1000h14.5c2.3 0 6.1-24.7 7.5-28-3.1-.3-11.5-3.1-13.5-1-1 1.1-9.6 28-8.5 29" class="outline shading" data-name="shading-head" data-original-prefix="shading" opacity="0.5" style="opacity: 0.5"/><path id="outline-head" fill="#000000" d="M1371.7 939.2c7.9-1.3 25 0 31.8 4.8 8.4 5.9 22.2 33.9 24.8 44.2 4.4 17.4 3.4 31.3-7.9 45.7-6.5 8.3-12.1 13.6-22.9 14.1-16.2.8-25.1-4.4-33.3-17.7-15-24.4-17.5-45.1-8.9-72.5 2.4-7.6 7.8-17.1 16.4-18.5Zm1.6 22.1c-4.1 5.9-3.4 31.4-2.1 39 2.7 15 14 36.4 32.4 26.9 23.4-12 11.6-50-1.3-66.1-6.1-7.6-14.8-9.5-23.3-4.5-.5.3-5.6 4.4-5.8 4.7z" class="outline" data-original-prefix="outline"/><path id="outline-head1" fill="#000000" d="M676.7 965.3c3.5 3.3 2.6 17.7 1.3 22.3-1.8 6.3-14.6 26.8-20.9 15.8s3.7-29.9 12.8-36.8c2.1-1.6 4.3-3.6 6.8-1.2Zm-9 28.4c2.8-2.5 8.4-15.1 1.8-15.8-8.5-.8-10.1 23.1-1.8 15.8" class="outline" data-name="outline-head" data-original-prefix="outline"/><path id="outline-head2" fill="#000000" d="M1387.7 968.1c3.3-.9 7 7 8.2 9.5 3.7 8.4 8.6 30 2.6 37.3-2.3 2.8-3.5 2.4-6.4.5-11.2-7.3-12.9-30.2-8.8-41.7.7-1.8 2.5-5.1 4.4-5.7Z" class="outline" data-name="outline-head" data-original-prefix="outline"/><path id="outline-head3" fill="#000000" d="m679 1065 93.5-12c18 .5 38.3-4.1 56-2.1 2.4.3 3.8.5 3.5 3.6-8.1.9-16.3 1.5-24.4 2.6-40.5 5.8-80.8 13.1-120.9 20.1-18.8 3.3-50.8 8-67.3 15.7-9.8 4.5-18 13.4-28.3 16.2-1.2-1.1 9.3-21.8 11.4-24.1 2.7-2.8 19.3-10.5 19.6-11.6 2-19.9-8.3-38.6-5-58.3 1.1-1.2 5.4 3.7 5.5 5l13.5 50.6c2.1 1.5 6.5-1.8 8.8-2.3 6.5-1.4 14.3-1.1 20.3-4.9.6-2.5-1.9-19.4-3.2-21.7-2-3.4-15.2-3.9-20.3-11.7-2.4-3.7-8.1-21.9-8.5-26.5-.6-7 2.8-21.8 5.5-28.5 4.1-10.3 14-17.8 20.5-26.5-1-4.2-32.6-5.5-38-6.5-1.2-10.9 11.9-11.7 14.7-20.8 4.3-13.9 3.2-39 5.3-54.7 3.2-24.9 9.4-49.8 17.8-73.3.6-5.8-14.9-9.4-12.8-15.6 1.3-4 18.6-2.7 21-4.1.8-.5 6.5-12.9 7.8-15.2 7.8-13.5 20.6-30.4 32.7-40.3 1.1-.9 1.6-2.4 3.5-2l-29.8 62.8c1.4 8.2 10.6 3.5 7.1 14-3.1 9-10.8-.5-14.1 4.9-5.5 20.4-9.8 40.9-12.2 61.8-1.9 16.6-5.2 40.9-5 57 0 2.1 1.1 10.7 1.7 12.2 3 7.5 42.7 3 50.1 23 9.6 26 4.3 52.3-12.8 73.7-2.3 2.9-17 15.8-17 17v22.5zm-6.2-113.8c-16.5 2.4-27.4 31.8-26.8 46.2.2 4 4.6 15.9 7.5 18.6 11.6 10.5 34.4-8.2 38.7-19.3 3.2-8.1 4.8-31.1 0-38.4-3.1-4.7-14-7.8-19.5-7Z" class="outline" data-name="outline-head" data-original-prefix="outline"/><path id="outline-head4" fill="#000000" d="M1418.7 1287.3c-2.4-2.1-10.8-5.2-14.2-6.3-6.6-2.2-15.5-3.1-21.6-5.4-3.4-1.3-4.4-4-3.5-7.5 2-8.1 13.2-21.1 16.3-29.7 4.3-16.9-12.9-55.4-22.3-70.2-6.8-10.6-6.4-10.6-18.7-14.3-43.7-13.4-106.9-16.4-153.3-19.7-77.6-5.5-155.3-3.5-233-6-9.2-.3-18.8-1.7-28-2-84-2.7-167.9 8.3-251.5 15.4-9.5 3.6-9.5 9.8-13.8 17.2-18.6 32.4-19.6 59.7-10.8 96.4 1.2 4.8 7.2 11.6 6.6 15.4-.7 4.6-13.9 4.5-18.3 5.8-7.1 2.2-27.1 22.5-33.5 29-1 1.1-1.1 3.2-2.8 4.7-4.3 4-28.3 3.4-35 4-33.7 2.7-57.5 8.2-91.7.7-8.2-1.8-19.9-3.2-23.3-11.7-4.9-12.3 1.7-41.1 2.5-55.5.5-9.9-1.3-22.1.5-31.5 2.1-11.6 25.5-32 34.1-41.9 29.4-34.2 52.9-67.7 59.4-113.6 1.4-9.8.9-21.1 2.1-30.9 1.1-9 3.8-17.9 5-27 2.7-21.8 1.3-43.6 9.8-64.2 3.9-9.4 12.2-20.9 14.7-30.3 1.8-6.6 2.6-16.5 3.5-23.5 5.1-41 5.2-80.6 23.3-118.7C681 640.3 813.7 578.5 947.4 565.2c157.2-15.6 347.9 16.3 447.5 150.5 17.1 23 35.5 80.9 41.5 109.5 6.6 31.5 7.8 67.7 17.2 97.8 6.4 20.6 14.8 14.7 24.1 27.9 13.1 18.7 6.8 68.8 5.2 91.8-2.1 28.2-2.1 54.1 6.3 81.7 4.9 16.3 15.9 29.5 23.6 44.4 10.3 20.1 17.3 45.1 33.2 60.8 5.7 3.8 20.6 8.8 21.9 16.1 2 10.8-1.6 29.3-2 40.9-.5 13.6 1.2 28.6-1.1 41.9-1.9 11.1-6.9 11.9-17.4 12.6-27.1 1.9-53.3-7.2-80.1-9-6.9-.5-21 1.4-26.6-.4-9.1-3-12.2-35.7-22.2-44.2zM1116 888.5v-61c0-.4-1.2-6.8-1.5-7.5-3.1-9.8-20.9-19.3-21.6-22.5-1.4-7.5 1.1-15.2 1.9-22.1 3.4-30.7 5.9-65.6 35.2-81.8 14.4-7.9 30.6-13.2 46.7-15.8l11.1-74.8c-11.8-3.2-23.4-7.3-35.3-10.2-105.5-25.8-245.7-17.5-345.3 27C704 665.9 621.6 751.2 619.8 870.4c-.4 25 7.7 35.7-8.5 58.5-8.3 11.6-14 15.6-18.4 30.6-15 51.6 4.2 109.5-23.4 157.6-19.8 34.5-70.6 83.6-77.5 119.5-3.2 16.8-4 34.7-5.9 51.7.7 3 2.3 3.9 4.9 4.9 5.2 2.1 24.8 5.5 30.5 5.6 15.6.2 12.2-15.2 13.5-25.3 6.4-49.1 30.8-97.3 71.5-126.5 18.9-13.5 57.2-15.9 81-19 79.3-10.5 152.7-16.4 232.8-15.1 102.5 1.7 208.4-3 310 8 90.7 9.8 226.8 19.4 255.2 125.8 4.4 16.6 4.8 43.6 10.8 57.2s27.3 16.4 39.9 14.9c3.3-.4 8.9-1.6 9.6-5.4 0-17.6 3.6-36.5 2-54-.2-2.1-.9-6.5-1.7-8.3-1.9-4-16.5-11.3-20.7-15.3-11.5-10.9-18.1-40.1-26-55-7.6-14.4-18.5-26.8-25.7-42.3-21.6-46.5-11.4-80.4-8.9-128.2.6-11.9 3.2-33.3-.6-44.3-2.6-7.5-19.3-5-25-9.5-3.1-2.4-8.2-19.9-9.8-24.7-9.9-30-5.6-56.1-9.6-87.4-13.1-103.2-75.8-173.3-167.9-216.1-12.1-5.6-31.6-14.2-44-18-1.1-.3-2.2-.7-3.4-.5-5.1 15.5-4.6 32.5-7.6 48.6l-1 47.5c-11-2.8-24.1-2.7-35.4-.9-34.9 5.6-57.8 48.2-42.5 80.3 3.2 6.8 12 15.7 13.4 22.6 1.1 5.3-.6 29.1 1.6 30.9 22.6 5.1 46.6 7.4 69.1 12.5 38.8 8.7 59.1 30.6 64.7 70.3 2.1 15.3 6.7 56.6 1.9 69.6-5.1 13.8-22 40.6-36.5 45.5-13.6 2.9-28.3 4.1-41.7 7.3-5 1.2 3 3.6 5.1 3.9 5.4.7 11.4-.4 16.9 0 34.9 3.1 81.7 13 115.7 22.3 4.6 1.3 23.4 6.7 26.2 8.8 1.6 1.2 7.7 12.8 6.6 13.9-21.4-5.5-42.5-12.2-64-17.5-21.4-5.2-43.2-9.8-64.8-14.2-12.2-2.5-29.1-3.4-40.2-7.8-25-10-45.8-9.3-72.4-12.6-45.4-5.7-92.3-14.6-138.2-12.9-28.9 1.1-62.3 9-90.3 2.4-1.9-.5-12.5-3.3-13.2-3.8-1.5-1.1-.9-3-1-4.5 39.6-.6 79-1.7 118.5-2 42.9-.3 86 1.7 129 2 30 .2 64 6.4 93.7.7 2.5-.5 7.1-1.4 8.8-3.2 3.3-3.4 14.1-31.7 15.5-37.5 6.7-27.9 2.3-51.3-7.5-77.5-10.8-28.9-57.7-32.5-83.7-38.3-2-.5-6.8-3.9-6.4-.7l4 64c-.7.9-1 1.5-2.3 1.4-1.5 0-11.2-4.9-14.2-5.9-13-4.3-25.7-6.7-39.5-6l5.9 27.5c0 1.5-1.2 2.8-2.6 3.2-6.9 2.1-19.2-2.4-26.8-.8-13.6.9-27.4 3.4-41 4-23 1.1-29.4-7.7-49.5-13.5-9.5-2.8-22.8-5.3-32.6-6.4-4.5-.5-13.5 2-13.4-3.6 0-8.3 2.5-17.9 3-26.1.4-5.5-.5-11.5 0-17 .7-8.2 2.5-16.4 3.5-24.5l-46.5 34.5-1.8-1.2c-2.6-16.3-4.9-33.5-8.4-49.6s-14.8-43.6-13.6-59.2c.6-7.3 2.9-17.2 4.2-24.8.7-4.2 5.5-31.6 6.7-32.8 2-1.9 2.8 3.7 2.9 4.6 2.2 18.9 1.5 36.4 5.4 55.6 3.6 17.6 9.4 35.8 13.7 53.4l65-28.6c1 3.8-1.3 6.4-1.9 9.6-3.2 16.5-4.4 33.2-6.1 49.9-1.2 11.7-3.8 23.5-3 35.5 6.4.8 13.8 2.6 20 4.5 10.4 3.2 24.2 9.6 34.5 11.5 9.2 1.6 19.8-.7 28.9-1 11.2-.3 22.4 0 33.5-1l-5-42c11.9 2.8 24.4 6.3 36.6 7.8 2.3.3 10.6 2 11.4-.4z" class="outline" data-name="outline-head" data-original-prefix="outline"/>
    </g><g class="trait-group" data-category="mouthpiece" id="mouthpiece-hombre">
      xmlns="http://www.w3.org/2000/svg" id="hombre" version="1.1" viewBox="0 0 2048 2048"&gt;<path id="outline-mouthbit" fill="#000000" d="m774 1450-11.9 6.6c-7.8 13.9 7.8 25.1 20.2 16.2 10.6-7.6 6.1-26.4-5.6-31.1-39.3-15.5-69.8 48.4-29.6 74.6 39.3 25.6 73.7-22.6 98.4-46.4 51.7-49.9 101.3-61.1 160-12l19 20c20.5-28.6 62.7-55 98.9-51.9 49.6 4.3 74.4 42.6 107.1 72.9 22.2 20.5 53.3 38 78.6 10.5 26.3-28.6-.3-80.9-37-68-12.1 4.2-17.1 23.1-6.9 30.9 19.1 14.8 35.7-17.7 8.9-21.4.7-1.9 5.8-2.1 7.5-2.1 16.4.2 30.9 24.6 19.5 39.6-21.4 28.2-66.2 2.9-69-30-5.3-64.5 68-53.6 103.9-25.9 74.8 57.7 34.6 158.8-61.1 136.1-51.2-12.2-72.2-55.4-109.8-86.2-41.8-34.3-103.5-12-141.4 17.4-24.5-20-63.9-37.4-96.1-34.9-57.1 4.5-80.3 68.4-126.8 93.2-59.3 31.6-143 5.5-125-73 8.8-38.4 53-72.7 91.8-75.2 34-2.2 55 22.7 47 56-7 29.1-48.9 48.3-68.5 21.5-12.2-16.7 8.4-43.9 28-37.5Z" data-original-prefix="outline" style="transition:fill .3s ease" class="outline"/>
    </g>
</svg>