<?xml version="1.0" encoding="UTF-8"?>
<?xml-stylesheet type="text/css" href="../styles/semantic.css" ?>
<svg xmlns="http://www.w3.org/2000/svg" viewBox="0 0 2048 2048">
  <g class="trait-group" data-category="background" id="background-green">
      <path id="color-green" fill="#32992c" d="M2048 0v2048H0V0z" data-original-style="transition:fill .3s ease" style="fill: #32992c" class="color"/>
    </g><g class="trait-group" data-category="jaw" id="jaw-half-robo">
      <path id="fill-jaw" fill="#ffffff" d="m1382.8 1128.2 12.4 130.2 60.9 48.3-49.6 133.4c-1 1.4-2.4 1.1-3.9.9-13.9-1-32.8-8.5-47.4-10.7-1.8-.3-3.5-.4-5.2-.3 1.2 4.7-1.2 7.6-2.1 11.4-4.9 22.2-7.7 45-12.1 67.4l-57.2 29.3-1.4 1.6c-1.1 12 1.6 23.9.9 35.9-.3 5-1.3 14.9-2.3 19.7-.6 2.8-13.7 32.2-15 33.5s-16.1 8.9-16.7 8.3l-9.5-50-51 52c-7.7 5.7-20.7 9.3-27.5 15.5-14 12.7-24.7 36.5-41.4 47.6-5.5 3.6-58.7 25.2-65.4 26.6-2.4.5-46.7.7-49.3.2-6.2-1.1-59.9-22.7-65.6-26.3-14-8.8-29.1-36.3-42-48-6.7-6.1-19.9-9.6-27.5-15.4l-51-52-9.6 48.4c-.6.9-.9 1.7-2.2 1.5-.8 0-13.8-7.6-14.4-8.2-1.4-1.4-15.6-32.9-16-35.5l-.7-54.3-58.2-30.3-12.3-69.7c-16.4-1.1-33.5 3.9-49.5-1l-37.3-85.8c-.7-3.4 4-13 5.6-16.9 8-19 17.8-37.3 25.7-56.3 9.2-2.5 21.3 1.1 29.9-5.1 4-2.8-.2-18.8 0-23.9l-19-32.1-.3-2.2 27.6-63.5c1.4-9.9-3.2-21.4-1.1-31.1 1.3-6.2 9.7-21.7 13.2-27.9 54.6-98.4 184.4-157.8 290.2-180.8 48.2-10.5 90.3.5 136.5 15.4 98 31.8 198 94.6 250.7 185.3 3.2 5.5 3.8 13.3 10.7 14.8h-.7Z" class="fill" data-original-prefix="fill"/><path id="fill-jaw1" fill="#ffffff" d="M1265.7 1351.3c9.2 7.7-4.5 25.9-12.2 15.7s2.9-23.4 12.2-15.7" class="fill" data-name="fill-jaw" data-original-prefix="fill"/><path id="fill-jaw2" fill="#ffffff" d="M1314.6 1391.2c7.8-1.5 6.2 19.1-2.9 17.7-9.8-1.5-.6-17 2.9-17.7" class="fill" data-name="fill-jaw" data-original-prefix="fill"/><path id="shading-jaw" fill="#aaaaaa" d="M1377.3 1124.7c2.2 2.7 13.8 4 14.5 10l8.4 112.6c17.4 18.9 36.8 35.9 56.4 52.6l1.5 3.6-51 135.8c-1 1.6-3.7 1.7-5.4 1.6-14.4-.9-32.2-8.4-47.3-8.9-1.8 0-3.2-.2-4.4 1.3l-14.4 75.6-59.4 30.1c.4 11 2.6 23.6 2 34.5-.3 5.7-1.3 15.4-2.1 20.9-.5 3.1-13.4 31.4-15.4 33.6-3 3.2-11.6 6.2-15.5 9l-12-46.4-2.4-.6-46.1 47.9c-7.8 6.2-20 9.3-27.5 15.5-14.2 11.7-24.4 36.1-41.5 47.5-6.8 4.6-52.9 25.2-60.4 26.6-9.5 1.7-52.8 1.8-62.3.2-7.6-1.3-48.1-19.8-56.6-24.4-16.2-8.6-30.7-38.5-45.1-49.9-7.1-5.7-18.8-9.3-26.5-14.5l-48-49-8.5 47c-1.4 1.2-18.5-6.9-20.5-9-1.7-1.8-15-30.8-15.4-33.6-.7-4.4-.9-13-1.1-17.9-.5-12.2.6-24.4.5-36.6-18.8-11.7-39.4-20.3-58.6-31.4l-13.1-67.4-46.4.9-36.3-91.7-.2-2.3c6.7.3 9.7 6.8 15.7 10.8 19.1 12.8 34.2 19.3 57.7 16.1 20.6-2.8 26.4-11.2 48-1.7 16.1 7.1 19.4 16.7 31.2 25.8 13.2 10.2 17.5 3.6 25.9-7.1 6.9-8.8 25.8-41.6 27.4-51.6 1.7-10.7-3.8-11.2-13-10-8.6 1.1-48.4 15.1-51 14.6-1.7-.4-12.3-7.9-16.5-9.6-20.3-8.4-48.8-11.8-67.2-20.8-14.3-6.9-12.2-21.7-18-34.5l21.5-4.1c1.9.3 10.9 13 13.5 15.6 13.7 13.8 58.3 32.8 77.6 33.5 3.4 0 6-1 8.9-1.1h20.5l-34.7-16.8c-19.1-10.8-48.2-33.1-61.8-50.2-6.2-7.7-7.1-18.3-10.5-27.5-6-16.6-14.4-32-25-46 1.3-9 6.5-19.6 7.8-28.2 2.8-19.1 3.8-27.8 12.1-45.9 49-107.6 188.2-173.2 298.2-196.8 27.9-6 50-5.8 77.9 0 118 24.3 244.7 92.5 307.8 198.2 1.9 3.1 5.2 12.6 6.5 14h-.4ZM1326 1307c15.3-11.2 31.9-21.8 44.5-36 6.1-22.7 14.6-45.7 13.5-69.6l-2.1-29.5c-1.4.2-1.9 1.8-2.5 2.9-16.8 30.8-29.1 66.4-47 97l-62.3 38.7.4 3.3c5.9 15.3 32.8 49 33.4 63.6.2 4.3-2.2 10.7-.7 15.7 1.1 3.6 11 9.8 15.2 9.4l62.4-18.5c8.3 1.2 16.7.9 25.1.6l36.7-78.8.3-3.3c-14.1-10.8-29-21.4-44.3-30.7l-2.8 11.8c-13.3 5.6-27.2 16.2-40.4 21.1-6.7 2.5-16.4 2.8-23.8 3.2-1.2 0-5.6.7-5.5-1Zm-248 20c-5.1-10.6-9.9-23.3-16.6-32.9-6.5-9.4-23.8-30.4-31.9-38.1-4.2-4-7-3.9-11.1 0-7.7 7.4-27 30.2-32.9 39.1s-10.5 22.1-15.6 31.9zm200.7 70.7c1.4-1.6 8.8-25.5 9.1-28.5.4-4.4-3.5-11.7-5.6-15.9-3.8-7.3-18.5-32.7-23.6-37.4-5.7-5.3-8-1-14 1.1-11.8 4-23.6 7.8-35.5 11.5-1.3 1.1-1.1 1 0 2 3 2.6 6.7 4.5 9.4 7.6 6.8 8.1 12.2 22 18.6 30.9l3.1-12.4c.8-3.8 7.7-7.4 10.8-5.4 1.2.8 3.6 11.4 7.9 12.7 6.1 1.8 8.2-5 11-5.7 4.2-1 10.3 3.7 10.1 8.1-.5 11.3-14.6 20.3-25.1 18.6-1.1-.2-10.1-4.8-8.7-1.3 3.1 2.8 14.4 21.8 16.7 22.4 2 .5 14.5-6.5 16-8.2h-.2Zm-550.4 99c1.6 2 8.2 6.3 10.7 7.8 14.8 8.8 31.7 13.8 46.9 23.1 16.8 10.2 40.2 33.1 59.6 33.5 2.3 0 8.7-1.2 9.4-3.7.8-2.7-13.5-27.5-16.4-30.3-7.3-7.2-27.5-17.2-37.2-23.8-15.2-10.3-50.3-39.1-67.9-39.2-10.5 0-8.7 28.1-5.1 32.7Zm591.4-30.4c-6.1-6-24 4-30.4 7.6-16.3 9.1-30.8 21.3-46.2 31.8-9.3 6.4-25.4 13.9-33.1 20.9-3.1 2.8-16.2 24.5-16.9 28.2-1.1 5.3 6.2 6.5 10.3 6.3 16.8-1 25.6-11.2 38.2-19.8 8.3-5.7 17.3-12.1 26-17 11.7-6.6 47.1-19.2 52.7-29.3 2.4-4.3 2.8-25.2-.7-28.6ZM1126 1664c-12-2.7-20.7 6.6-31.6 7.9-5.7.7-12.2-1.2-16.6-.7-7.1.8-22.9 12.1-31.2 14.9-14.8 4.9-30.2 4.7-45.1 0-8.8-2.8-23.9-14.1-31.2-14.9-4.4-.5-10.9 1.4-16.6.7-11-1.3-19.9-11-31.6-7.4 0 7 23.7 23.4 30 27 12.5 7.1 59.7 26.8 72.5 26.6s59.8-19.7 72.2-26.9c3-1.8 33.6-23.3 29.3-27.2z" class="outline shading" data-original-prefix="shading" opacity="0.5" style="opacity: 0.5"/><path id="outline-jaw" fill="#000000" d="M1378 1122c.3-3.9.6-9.1 5.7-9.8 7.8-1.2 8.7 12 9.3 17.3 3.8 33.8 2.1 69.1 8.3 102.7 2.2 11.9 3.2 13.8 12.3 21.7 14.8 13 33.2 22.8 47.5 36.5 2.6 2.5 11.8 12.2 12 15.1l-66.1 156.3-46.9-24.9c-1.8 6.1-5.4 12.6-6.7 18.8-4.1 19.2 0 41.1-2.2 59.8-.4 3.4-10.5 17.5-13.3 18.7-6.4 3-16.2-1.8-24.7 3.3-23.8 14.4-17.9 48.6-27.2 68.8-7.8 17-37 48.2-52.9 58.1-1.6 1-2.9 1.9-4.9 1.6 1.1-14.8 3.1-34.9-3.9-48.6-.4-.8-.4-3.2-2.1-1.4-.7.7-3.6 13.8-6.6 17.9-5.8 7.9-20.7 8.9-29.4 12.6-16.7 7-14.3 32.7-27.7 43.3-19.3 15.2-61.2 32-85.1 38.9-10.8 3.1-38.9 11.3-48.7 11.3-15 0-63.4-15.1-78.8-21.2-11.1-4.4-55.3-26-60.6-34.4-6.9-11.1-8.5-31.6-21.5-37.6-14.5-6.6-26.4-2.4-33.9-20.1-1.1-2.5-2.5-10.3-2.8-10.7-1.3-1.6-1.8.4-2.2 1.3-6.9 12.5-5 34.9-3.8 48.7-2 .3-3.3-.6-4.9-1.6-15.7-9.8-48.9-44.4-54.2-61.8-6.2-20.6-5.3-52.1-25.9-65.1-8.2-5.2-18.3-.3-24.7-3.3-.9-.4-12.2-14.2-12.7-15.3-2.1-5.2-.2-29.6-.5-37.4-.4-9.1-2-18.5-3-27.5-4 1.6-7.6 4.7-11.9 5.6-2.8.6-5.6.7-8.5.3-4.7-.6-27.4-9.9-32.6-12.4-1.3-.7-2.7-1.2-3.5-2.5-2-33.7-22.2-63.7-44-88-2-4.4 2.1-14.5 3.7-19.2 6.2-17.8 15.6-36.4 25.7-52.3 3.2-5.1 14.2-22 17.9-25.1 5.5-4.4 9.8 3.3 14.6 6.6 1.6 1.1 12.7 7.8 13.5 7-2.9-7.2-9.4-11-13.8-17.7-4-6-15.9-26.4-15.8-32.6s5.4-17.7 6.5-25.3c.5-3 1.1-8.8 1.2-11.8.2-6.5-3-17.5 1.3-22.2 1.2-1.4 12.8-6.5 14.1-6.2.9.2 5 11.2 10.5 7.8 2.3-1.4 1-34.7 0-39.9.3-.3 7.6 1.8 8 2 1.8 1.1 7 8.1 9.8 9.7.5 8.4 3.4 20.7 1.1 28.7-2.8 10.1-17.5 14.8-21.2 22.8-1.2 2.6-6.4 25.9-6.7 29.3 0 1.2-.2 2.4.2 3.7 4.8 10.3 13.7 19.4 18.7 29.3s9 33.8 15.5 40c5.3 5.1 14.5 7.1 21 10.5 7.5 4.1 15.7 10.7 22.7 15.8-11.3-1.3-47.2-5.2-54.5-13-3.3-3.6-5.7-15.7-9.6-17.4-2.6-1.2-6.2-.2-9.2-.8-7-1.2-10.7-7.9-18.5-1.5-6.6 12.5-14.3 24.3-20.4 37.1-7.4 15.4-14.8 25.1-4.8 41.2 5.3 8.6 23.3 26.7 25.6 34.4 2.5 8.6-2.7 28 2.9 34.1 6 6.6 20.6 4.5 27.8.8 10.6-5.4 8.7-9.9 14.3-18.7 5.2-8.2 19.7-23.1 28.9-26.2s13.4 8.6 15.6 15.5c7.3 23.8-.2 34 22.5 51.5 11.6 8.9 33.3 20.1 47.8 17.9 8.5-1.2 21.1-6.6 27.2-12.8 7.2-7.5 8.8-24.6 24-14 15.8 11 30.3 30.1 46.6 41.4 20.5 14.3 77.5 32.5 102.5 34.6 37 3 105.5-17.1 134.5-40.5 11.5-9.3 21.6-20.6 33-30 4-3.3 11.6-11.3 17-8 .7.5 7.5 12.5 9.2 14.8 3.3 4.7 11.5 16.1 17.4 16.7 7.4.8 31.3-15.5 40.2-17.2 8.1-21.2 17.3-42.1 23.5-64 2.8-9.9 8.4-24.8 3.8-34.3-2.1-4.2-21.3-33.6-24-36-3-2.7-9.6-5-13.5-6.5-3.3-1.2-19.8-5.2-20.5-6-1.5-1.4.4-1.7 1.3-2.2 1.3-.7 11.6-5.7 12.3-5.8 2.6-.4 25.4 6.8 27.4 8.5s8.6 15.3 11 19c5 7.6 19.5 25.4 20.8 33.2.4 2.5.5 4.9-.2 7.3l-26.5 74.9c22.1-8.1 42.1-21.6 63.6-30.8 4.1-1.8 12.4-6.1 16.3-4.6 4.7 1.7 16.6 11.3 22.4 14.6 2.4 1.4 18.7 10.5 19.7 9.8l48.1-125.5c-.2-2.1-12.6-9.7-15.4-11.7-13.3-9.9-23-17.3-37.4-25.6-7.1-4.1-7.5-7.8-8.3-15.7-2.2-22.8-2.4-46.1-4-69-1.5-20.8-6.3-45.1-5-65.5h-.7Zm-649 280c-5.9.4-11.3 6.2-14.4 11.1-12.8 20.4-.6 26.3 1.3 45.5 1.3 13.2-3.2 33.5 4.7 44.3 5.3 7.3 21.6 10.7 30.1 14.9 3.6 1.8 23 13.2 24.8 15.2.4.4 3.3 5.3 3.3 5.6 0 .8-3.5 12.2-3.8 15.8-1.9 24 4.5 52.9 21 71l5 4.5c.9-4.6-1.1-9.2-1.1-13.5 0-12.5 8.2-24.3 10.1-36.5 23.5 5.4 36.4 28.6 51.4 45 11.3 12.4 23.8 14.5 34.1 23.9 6.5 5.9 11.9 15.9 17.5 22.5 14.6 17.4 20.2 23.3 41.3 32.7 29 13 50.6 21 83.2 18.9 16.8-1.1 61.8-19.2 76.4-28.6 16-10.4 26.2-34.2 40.1-45.9 10.6-9 21.7-10.9 32.5-22.5 15.6-16.6 28.5-40.5 52.5-46 .8 9.9 6.9 18.2 8.7 27.8 1.5 7.6.3 13.6.3 21.2 7.8-5.3 15.2-16.8 18.8-25.6 5.4-12.9 8.1-33.2 7.2-46.9-.2-3.4-3.8-17.5-3.5-18.4.6-1.7 3.6-5.7 5.2-6.9 4.5-3.4 17.3-10.6 22.7-13.3 11.7-5.9 31.5-8 33.6-23.4s-.7-31.7 3.8-48.2c1-3.6 5.3-8-1.4-5.4-30.7 11.8-63.4 35.5-93.6 46.4-10.1 3.6-23.8 2.7-32.8 7.2-6.8 3.5-11.5 12.3-16.4 17.6-16.2 17.4-41.8 25.6-65 28-69.4 7-135.6 6.9-205 0-21.7-2.1-46-9.9-62.5-24.5-5.9-5.2-10.7-15.4-19.3-15.2-3.9 0-8.2 3.3-11.2 3.7-5.5.6-22.8-12.9-28.7-16.2-15-8.4-31.4-14.8-46-24-2.8-1.8-16.7-11.4-17.8-13.2-2.8-4.9.2-12 0-17.1 0-10.4-4.3-21.6-7.1-31.5" class="outline" data-original-prefix="outline"/><path id="outline-jaw1" fill="#000000" d="M1253.7 1342.2c12.9-2.4 29.1 10.8 24 24-3.6 9.3-14.2 17-24.2 12.8-15.8-6.5-17-33.6.3-36.8zm12 9.1c-9.3-7.8-20.1 5.1-12.2 15.7s21.4-8 12.2-15.7" class="outline" data-name="outline-jaw" data-original-prefix="outline"/><path id="outline-jaw2" fill="#000000" d="M1313.7 1382.2c20.2-4.4 22.1 39.9-4.2 35.7-17.9-2.8-9.8-32.7 4.2-35.7m.9 9c-3.6.7-12.7 16.2-2.9 17.7 9.1 1.4 10.8-19.2 2.9-17.7" class="outline" data-name="outline-jaw" data-original-prefix="outline"/>
    </g><g class="trait-group" data-category="mouth" id="mouth-jaws">
      <path id="fill-mouth-main" fill="#ffffff" d="M1102 1287c.4.6-2.2 4.3 0 5.5 50.4 27.6 100.7 55.4 145.8 91.1-5.2 15.8-10.4 31.6-16.7 47.1-5.9 14.4-8.3 22.4-12.7 37.3-13 44.8-25.3 89.9-38.3 134.7-3.4 15.6 7.3 31.3 8.8 45.8.5 5.4-1.6 24.6-3.1 29.9-2.4 8.9-12.3 10.5-19.9 15.1-23.1 14.2-44 33.8-68.7 45.3-38.6 17.9-94.7 18.9-134.6 4.9-30.8-10.8-53.7-33.5-80.8-50.2-5.6-3.4-16.3-6.9-18.8-12.2-2.2-4.7-4.6-27.2-4.1-32.9 1.2-14.4 12.1-30.2 8.8-45.8-13.8-47.4-26.5-95.2-40.5-142.5-3.7-12.4-5.6-17.8-10.5-29.5-6.4-15.4-11.4-31.2-16.7-47.1 45.2-35.6 95.4-63.7 145.8-91.1 2.2-1.2-.5-4.8 0-5.5.2-.2 3.4-1.1 4.7-1.9 25.5-15.1 52.3-31 83.7-27.1 24.4 3.1 42.7 15.5 62.9 27.1 1.2.7 4.5 1.7 4.7 1.9h.2Z" class="fill" data-original-prefix="fill"/><path id="fill-mouth-teeth13" fill="#ffffff" d="m1042 1510-1.9 71.5c-.9 11.5-1.7 23.4-2.1 34.9-.2 7.7 1.3 20.2 0 27-.5 2.5-12.9 11.6-14.3 11.4-1.2-.2-13.2-8.9-13.7-11.4-.2-44.5-3.3-88.9-4-133.5l17.6 16.9 18.3-16.9Z" class="fill" data-original-prefix="fill"/><path id="fill-mouth-teeth12" fill="#ffffff" d="m1000 1637-20-15.5c-1.8-.5-2.8-4.4-3-4.5-.8-.5-3 3.8-5 3-.4-20.5-.2-41.1-1-61.5s-2.9-41.1-2.5-61.4l11-14c3 4.2 18.8 16.6 19.2 20.6.4 3.5-.9 11.2-.8 15.9.8 20.4 1.8 41.5 2.1 61.9.2 18.5-.2 37 0 55.5" class="fill" data-original-prefix="fill"/><path id="fill-mouth-teeth11" fill="#ffffff" d="M1076 1620c-2 .8-4.2-3.5-5-3-.2.2-1.2 4.1-3 4.5l-20 15.5c.2-18.5-.3-37 0-55.5.2-20.4 1.3-41.5 2.1-61.9.2-4.7-1.2-12.4-.8-15.9.4-4 16.2-16.4 19.2-20.6 2.1 3.9 9.5 10.8 11 14 1.8 3.8-1.3 28.2-1.5 34.4-.3 9-.7 18.1-1 27-.7 20.5-.6 41.1-1 61.5" class="fill" data-original-prefix="fill"/><path id="fill-mouth-teeth10" fill="#ffffff" d="M1114 1651c-3.8-.4-4.7-3.2-5-6.4-1.4-14.4 1.7-35 2.1-50 .6-21.9 0-43.7 2-65.5 3.3.2 4.2 1.9 7.1-.4 6.2-5.1 13.2-22.1 19.9-28.8s2.8-2 3-1.8l-9.1 120.4-20 32.6Z" class="fill" data-original-prefix="fill"/><path id="fill-mouth-teeth9" fill="#ffffff" d="M907.7 1499.3c7 6.2 13.8 23.9 20.3 29.2 2.9 2.4 3.8.6 7.1.4 1.5 10.5.6 21 1 31.5.7 20.9 1.5 42 2 63 .2 5.8 4.1 25-2.5 27.4-1.7.6-6.8-10-8.5-11.4l-12.9-21.1c-3.3-40.1-5.6-80.4-9-120.4 0 0 2.2 1 2.7 1.3h-.2Z" class="fill" data-original-prefix="fill"/><path id="fill-mouth-teeth8" fill="#ffffff" d="M903 1601c-7.1-6.3-5.5-23.9-18-13l-17-142c10.4 12.2 19 26.1 28 39.5 1.9 38.5 3.8 77.1 7 115.5" class="fill" data-original-prefix="fill"/><path id="fill-mouth-teeth7" fill="#ffffff" d="M1163 1588c-12.5-10.9-10.9 6.7-18 13l4-51.5 3.1-63.9c8.9-13.4 17.5-27.3 27.9-39.5l-17 142Z" class="fill" data-original-prefix="fill"/><path id="fill-mouth-teeth6" fill="#ffffff" d="M963 1507c-.7 40.2 2 80.1 2 120.3-1.9 1.4-17.9 15-19 13.7.9-38.3-2.3-76.2-2-114.5l15.4-18.6z" class="fill" data-original-prefix="fill"/><path id="fill-mouth-teeth5" fill="#ffffff" d="M1102 1641c-1.1 1.3-17.1-12.3-19-13.7.4-22.3.5-44.6 1-66.8 0-2.4 1-4.6 1.1-6.9.3-15.5-.3-31.1 0-46.5l3.6.9 15.4 18.6c.3 38.2-2.9 76.2-2 114.5Z" class="fill" data-original-prefix="fill"/><path id="fill-mouth-teeth4" fill="#ffffff" d="M875 1581c-1.5.2-1.3-1.7-1.7-2.8-3-8.8-6.1-18.6-8.6-27.4-10.7-37.7-11.6-78.6-17.8-117.3 0-3.9 3-6.9 5.6-9.5 3.4 3.5 5.8 6.6 6.4 11.6 1.2 10.1 1 21.5 2.1 31.9 3.8 35.2 11.2 72.2 14 107 .2 2.2 0 4.3 0 6.5" class="fill" data-original-prefix="fill"/><path id="fill-mouth-teeth3" fill="#ffffff" d="M1172 1580c6.3-40.6 11.8-81.6 16-122.5 1.2-11.5-1.6-25.4 7.5-33.5 2.6 2.6 5.7 5.5 5.6 9.5-7.6 47.5-8 99-26.1 144-.6 1.6-.8 2.9-3 2.5" class="fill" data-original-prefix="fill"/><path id="fill-mouth-teeth2" fill="#ffffff" d="m843 1439 4 53-5.7-15.8c-1-7.8-7.5-23.8-4.4-30.8.5-1.1 2.9-4.1 3.8-5.2.6-.7 0-1.9 2.3-1.3Z" class="fill" data-original-prefix="fill"/><path id="fill-mouth-teeth1" fill="#ffffff" d="M1207 1439c.3.3 4.7 7.3 4.8 7.7 1.3 4.9-3.4 23.5-5 29.5l-5.7 15.8 4-52.5c0-.9 1.9-.6 2-.5z" class="fill" data-original-prefix="fill"/><path id="shading-mouth4" fill="#aaaaaa" d="m900 1319-56.5 57-14 16c-1.9 4.1 3.2 15.8 2.5 21 4.2-1.8 14.7-13.4 18.4-13.1 4 .3 8.8 14.9 10.3 18.8 2.5 6.3 4.5 12.8 6.8 19.2 18.7 24.5 38.6 48.2 57.4 72.6 3.8 5 3.2 9.2 10.1 7 3.2-1 13.7-10.2 17-13 10.5-9 19.8-20 30.5-28.6l41.1 41 41.9-41c13.1 10.8 24.4 24.6 38 35 3.2 2.5 10.4 9 14.5 6.5l61.8-79.2c3.6-6.3 11.7-36.7 16.9-38.2 4.6-1.3 17.3 14.1 19.3 11.9-.8-5.2 4.4-15.8 2.5-20-20.7-25.2-46.1-46.1-68-70-.7-.7-2.7-2-2-3 34.5 16.7 65.1 39.8 96 62 2.5 5.1-7.2 33.5-9.8 40.2-2.7 7.3-6.2 13.8-9.2 20.8-3.2 7.3-3.5 21.2-14.5 14l-8.5 50-2.5 1c-.2-19.8 1.9-39.7 4-59.4-2-4.9-6.9-13.6-8.8-3.8-4 21.5-4.5 48.2-7.4 70.6-3.6 28-8.2 56-12 84-2 14.9-3.3 16.2 1.9 31.4 1.3 3.8 7.2 14.6 7.4 16.7s-6.3 26.7-7.6 29.5c-2.4 5.5-34.3 27-41.2 30.8-23.5 12.8-65.3 23.2-92 27-44.3 6.3-112.7-12.8-149.7-38-4.2-2.9-22.5-15.7-24.1-18.9-1.2-2.3-7.8-28.2-7.7-30.4 0-2.1 7-16.2 8.3-20.7 4-13.7 2.7-13.4.9-26.4-7.5-52.8-15.1-105.5-20.4-158.6-2.2-5.2-7.7 4.9-7.9 7.8 2.1 19.4 4 39 4.1 58.5h-3l-8-51c-11.6 7.2-11.3-6.6-14.5-14-5.7-13.3-11.5-25.2-15.5-39.5-1.5-5.2-6.1-18.6-2.5-22.6 31.2-21.3 60.9-45.2 95.5-60.9zm-34.5 137v1c.7-.3.7-.7 0-1m315.5 1c-3.8 9.4-17.3 19.9-21.1 28.4-3.4 7.8-1.6 20.7-3.9 29.1l-3 60c.6 3 10.1 7.9 13.4 8.4zm-286.2 118.8c-1.8-29.7-2.2-59.6-6.1-89.1-7.3-9.7-14.3-20.1-22.7-28.8l14 125c6 0 10-4.5 14.8-7.2ZM995 1627c-.8-15.5-.4-31.1-1-46.5-.7-20.6-1.2-43.5-3-63.9-.3-3.6-.4-13.4-4.5-13.5-2.5 0-20 10.7-20.5 13.5 2.4 20.6 1.2 41.4 1.9 62 .2 6.2.6 13.8 1.1 19.9s3 12.8 2 19.5l5.4-5c1.5 2.2 17 15.7 18.6 14m82-10c-.8-6.9 1.6-13.7 2.1-20.4 1.1-17.4.3-35.7.9-53.1.3-8.7 2-18.1 2-26.9s-1-2.1-2-3c-2.2-1.8-17.3-10.9-19.3-10.4-2.9.7-3.4 7.6-3.7 10.4-3.3 35.8-2.8 74-4 110 0 1.4 0 2.9-1 4 5.2.7 17.8-14.1 19.5-14.5 2.3-.5 2.5 4.7 5.4 4Zm-146 17c-1.9-32.1-.2-64.4-2-96.5l-26-32.5c2.8 32.1 2.9 64.2 5 96.4 6.9 11.3 14.5 22.3 23 32.5Zm187 0 22-32.5c1.9-32.2 2-64.3 5-96.4l-26 32.5c-2 25.3-.4 50.7-1 76-.2 5.9-1.4 11.5-1 18 0 1.1-.7 2.8 1 2.5Zm-175 2c.8.8 16.4-9.7 17.5-11 .7-.8 1.5-1.4 1.4-2.6-.7-33.9-2.5-67.6-4-101.5-3.4 2.4-16.3 10.2-17 13.5-.2 33.9 0 67.8 2 101.5Zm101-115c-4.9 2.7-10.4 10.7-15.7 11.8-11.9 2.5-16.1-5.4-24.3-11.8 1.3 37.5 2.3 74.9 2 112.5.8 4 14.2 9.4 17.7 12.4 3.7-2.5 17.6-8.6 18.3-12.4-.2-37.6.2-75.1 2-112.5m61 115c1.6-33.8 2.3-67.6 2-101.5-.7-3.7-13.7-10.5-17-13.5-1.8 33.8-3.7 67.5-4 101.5.2 2.9 18.2 14.4 19 13.5m-167.3 18.7c-1 .9-2.6 1.5-4 1.2-3.8-1-23-30.3-27.3-35.8L895 1607c-.4 4.4-1.3 8.8-2.5 13-1.6 5.4-8.4 19.9-8.6 23.5 0 2.9 4.5 19.8 5.8 23.3.7 1.9 1 3.9 2.9 5.1 29 14.8 52.4 35.8 84.2 44.8 31.1 8.9 64.2 8.8 95.2-.2 31.6-9.2 55.5-30.5 84.3-45.4.8-.4.9-1.2 1.2-2 1.2-3 6.7-24.2 6.5-26.5-.3-3.3-5.8-13.4-7.3-17.8-1.8-5.8-3.1-11.8-4.2-17.8-2.2 3.1-5.1 5.6-7.5 8.5-8.8 10.8-17.2 26.4-26.1 35.9-1.6 1.8-3.2 3.6-5.6 4.3l-43.7-28.7c-4.3 3.6-8.6 8.8-13.3 11.7-8.2 5.1-15 6.1-23.4 13.6-2.3 2.1-3 5.8-6.5 6.5-8.1 1.6-7.3-2.8-11.5-6.4-7.2-6.1-10.9-7.5-18.9-11.1-6.3-2.8-12.3-10-17.6-14.4-12.8 7.9-26.2 15.6-38.3 24.5-1.3.9-1.6 2.5-2.3 3.1v.2Z" class="outline shading" data-original-prefix="shading" opacity="0.5" style="opacity: 0.5"/><path id="shading-mouth3" fill="#aaaaaa" d="M1118 1345c-1.5 1.5-1.8-.6-2.3-1.3-1.8-2.3-6.1-7.1-7.1-8.8-1.8-3.2-.9-7.3-2.6-9.4-2-2.4-11.1-9.6-14.1-11.9-17.8-13.8-38.6-25.3-56-40-3.6-5.4 6-7.7 4.1-13.6.4-.4 8.3 1.9 9 2.5 1.9 1.6 0 5.2 2 7l68.4 49.6c2.9 2.8-.3 24.8-1.4 25.9" class="outline shading" data-original-prefix="shading" opacity="0.5" style="opacity: 0.5"/><path id="shading-mouth2" fill="#aaaaaa" d="M1008 1260c-2.1 5.5 7.8 8.5 4.1 13.6l-61.1 43.9c-10.3 7.3-11.1 16.5-18.7 26.2-.5.7-.7 2.7-2.3 1.3-1.1-1-5.1-24.3-1-26.5l68-49c2-1.9 0-5.2 2-7 1-.9 8.7-2.9 9-2.5" class="outline shading" data-original-prefix="shading" opacity="0.5" style="opacity: 0.5"/><path id="shading-mouth1" fill="#aaaaaa" d="M1011 1355c1.1 4.6-4.9 8.9-3.6 13 1.1 3.3 13.8 10.8 16.2 14.9 1.2.2 16.5-14.1 17-15.9 1-3.6-5.2-7.6-3.6-12 6.9-2.5 17.3 6.5 15.8 13.3-.8 3.8-7.8 10.3-10.8 13.2-6 5.9-6.9 4.1-10.8 12.2-1.9 3.9-5.9 3.9-9.8 3.3-5.8-.8-4.3-4.3-6.4-7.6-4.4-6.7-23.9-15.6-19.3-26.2 2.2-4.9 9.7-10.1 15.2-8.2Z" class="outline shading" data-original-prefix="shading" opacity="0.5" style="opacity: 0.5"/><path id="outline-mouth" fill="#000000" d="M1006 1260c.4-2.1 4.7-6.2 6.5-7 2.2-1 1.8 3.9 2.5 5l-.5 19c-9.8 6.8-19.7 13.6-29 21-10.5 8.4-26.4 21.1-35.5 30.4-3.6 3.7-.7 4.6 2.7 7.3 14.2 11.7 34.2 18.3 52.3 20.2 1.2 1.2-6.6 10.7-4.8 13.8l23.5 23.1c1.5.3 18.4-18.6 21.4-21.5.8-.8 2.6-1.3 2.8-1.6 1.8-3.1-6-12.7-4.8-13.8 18.1-1.9 38.1-8.5 52.3-20.2 3.3-2.8 6.3-3.7 2.7-7.3-9.1-9.4-25-22-35.6-30.4-9.3-7.4-19.2-14.2-29-21-1.1-1.8-.6-15.7-.5-19 0-1.1-.9-6 1.5-5 2.1.9 6.1 6.1 7.5 7-1.8 1-1 3.4-.5 5 3.8 10.3 55.3 44.8 67.4 54.6 1.8 1.5 8 6 8.6 7.4 2.3 5.4-.6 18.1-.5 24.5 0 4.3 3.4 17.4 1.1 20-1 1.1-12.4 6.6-15.3 8.7-15.1 10.7-26.8 28.3-34.7 44.8-1.5.4-1.7-.4-2.5-1-5.2-3.6-23.3-26.5-26.1-26.9-5.3 3.9-11.8 6.3-12.4 13.4-1.2 13 1 27.8 0 41.1l3.1 42.5 34.4-35.1 2.9-.9c13.6 15 26.1 31.3 40.1 46 1.3 1.4 9.3 10.1 10.5 9 3.5-11.2 11.6-21.6 18.2-31.3 19-27.8 40.6-53.8 59.3-81.7.8-.7.7-1.5 1.5-.4 7.1 9.4 13.4 20.9 20.5 30.4l17.6-43.4-157.1-108.6 2-3c36.8 19.5 75.4 39.4 110.9 61.6 21.2 13.3 40.5 29.5 61.9 42.6.6 1.1.2 2.9 0 4.2-.7 7.6-9.9 31.6-13.2 39.9s-7.1 16.1-11 24l-44.5 161.6c.4 12.4 9.3 27.7 9.8 39.7.3 6.8-1.7 25-3.2 31.9-.4 2.2-1.7 6.3-3 8-1.2 1.6-15.8 8.4-19.4 10.6-24.6 15-45.2 35.2-72.5 46.5-40.8 16.9-104 16.8-144.7-.3-27-11.3-47.4-31.4-71.8-46.2-3.6-2.2-18.2-9.1-19.4-10.6-1.3-1.7-2.6-5.8-3-8-1.4-6.9-3.5-25.1-3.2-31.9.6-12.2 9-27.1 9.8-39.7-13.1-46.2-25.7-92.7-39.3-138.8-2.2-7.3-3.2-16.5-5.7-23.3s-7.5-14.1-10.5-21.5c-5.5-13.7-9.1-28.1-14.2-41.9-.3-1.7 0-3.3 1.4-4.4 24.1-15.7 46.6-33.8 71.2-48.8 32.3-19.7 66.7-38.2 100.3-55.2l3 3-157.1 108.6 17.6 43.4c7.1-9.6 13.4-21 20.5-30.4.8-1.1.7-.3 1.5.4 18.8 27.9 40.3 53.9 59.3 81.7 6.6 9.7 14.7 20.2 18.2 31.3 1.2 1.1 9.2-7.6 10.5-9 14-14.6 26.5-30.9 40.1-46l2.9.9 34.4 35.1 3-42.5c-1-13.2 1.2-28.1 0-41.1-.7-7.1-7.1-9.5-12.4-13.4-2.8.5-21 23.4-26.1 26.9-.8.6-1 1.4-2.5 1-7.8-16.5-19.6-34.1-34.7-44.8-3-2.1-14.3-7.5-15.3-8.7-2.3-2.6 1-15.7 1.1-20 0-6.4-2.8-19.1-.5-24.5.6-1.5 6.8-5.9 8.6-7.4 11-9 62.9-44.3 66.1-52.9 1.1-2.8.4-4.5.8-6.7zm-131 321c0-2.1.2-4.3 0-6.5-2.8-34.8-10.2-71.8-14-107-1.1-10.4-.9-21.8-2.1-31.9-.6-5-3-8.1-6.4-11.6-2.6 2.6-5.7 5.5-5.6 9.5 6.2 38.7 7.2 79.6 17.8 117.3 2.5 8.9 5.6 18.7 8.6 27.4.4 1.1.2 3 1.7 2.8m297-1c2.2.4 2.4-1 3-2.5 18.1-45 18.6-96.5 26.1-144 0-3.9-3-6.9-5.6-9.5-9.1 8.1-6.3 22-7.5 33.5-4.2 40.9-9.7 81.9-16 122.5m-329-141c-2.3-.6-1.7.6-2.3 1.3-.9 1.1-3.3 4.1-3.8 5.2-3.1 7 3.3 23 4.4 30.8l5.7 15.8-4-53Zm364 0s-2.1-.4-2 .5l-4 52.5 5.7-15.8c1.6-5.9 6.4-24.5 5-29.5 0-.4-4.4-7.4-4.8-7.7zm-304 162c-3.2-38.4-5.1-76.9-7-115.5-8.9-13.4-17.5-27.3-28-39.5l17 142c12.5-10.9 10.9 6.7 18 13m260-13 17-142c-10.4 12.2-19 26.1-27.9 39.5l-3.1 63.9-4 51.5c7.1-6.3 5.5-23.9 18-13Zm-163 49c-.2-18.5.3-37 0-55.5-.2-20.4-1.3-41.5-2.1-61.9-.2-4.7 1.2-12.4.8-15.9-.5-4-16.2-16.4-19.2-20.6l-11 14c-.3 20.3 1.8 41.1 2.5 61.4s.6 41.1 1 61.5c2 .8 4.2-3.5 5-3 .2.2 1.2 4.1 3 4.5zm76-17c.4-20.5.2-41.1 1-61.5.3-8.9.7-18 1-27 .2-6.2 3.3-30.6 1.5-34.4-1.5-3.2-8.9-10.1-11-14-3 4.2-18.8 16.6-19.2 20.6-.4 3.5.9 11.2.8 15.9-.8 20.4-1.8 41.5-2.1 61.9-.2 18.5.2 37 0 55.5l20-15.5c1.8-.5 2.8-4.4 3-4.5.8-.5 3 3.8 5 3m-168.3-120.7c-.4-.4-2.6-1.5-2.7-1.3 3.4 40.1 5.8 80.3 9 120.4l12.9 21.1c1.7 1.4 6.8 12.1 8.5 11.4 6.6-2.4 2.7-21.7 2.5-27.4-.5-21-1.3-42.1-2-63-.4-10.5.5-21.1-1-31.5-3.3.2-4.2 1.9-7.1-.4-6.5-5.3-13.2-23-20.3-29.2h.2ZM1114 1651l20-32.6 9.1-120.4c-.2-.3-2.5 1.3-3 1.8-6.8 6.7-13.7 23.7-19.9 28.8-2.9 2.4-3.8.6-7.1.4-1.9 21.8-1.3 43.7-2 65.5-.4 15-3.5 35.6-2.1 50 .3 3.2 1.2 6 5 6.4Zm-151-144-3.6.9-15.4 18.6c-.3 38.2 2.9 76.2 2 114.5 1.1 1.3 17.1-12.3 19-13.7 0-40.2-2.7-80.1-2-120.3m139 134c-.9-38.3 2.3-76.2 2-114.5l-15.4-18.6-3.6-.9c-.3 15.5.4 31 0 46.5 0 2.4-1 4.6-1.1 6.9-.5 22.3-.6 44.6-1 66.8 1.9 1.4 17.9 15 19 13.7Zm-60-131-18.3 16.9-17.6-16.9c.7 44.6 3.8 88.9 4 133.5.4 2.5 12.5 11.2 13.7 11.4 1.4.2 13.8-8.9 14.3-11.4 1.3-6.8-.3-19.3 0-27 .4-11.5 1.2-23.4 2.1-34.9l1.9-71.5h-.1Zm-112.9 165.9-39.6-64.9c-2.7 4.3-15.7 16.7-16.5 20.5-.5 2.3 0 6.3 0 8.8.5 6.2 3.4 24.2 5.1 29.9 2.2 7.3 14 10.2 20.1 13.9 44.8 27.9 79.7 46.3 135.2 43.8 47.1-2.2 77.9-20 116.2-43.8 6.1-3.8 17.8-6.6 20.1-13.9 1.7-5.7 4.6-23.7 5.1-29.9.2-2.5.6-6.5 0-8.8-.7-3.8-13.8-16.2-16.5-20.5l-40.1 65.1-48.9-32.8-45.1 37.7-45.8-37.7c-6.8 2.2-46.8 34.1-49.4 32.6Z" data-original-prefix="outline" class="outline"/>
    </g><g class="trait-group" data-category="eyes" id="eyes-patch-square">
      <path id="fill-eyes-main" fill="#ffffff" d="M1337.7 1024.3c1.5.9 16.3 27.2 18.4 31.1 9.6 17.9 18.4 36.1 23.2 55.8.9 3.7 4.9 7.3-.6 11.5-2.1 1.6-13.7 5.7-17.7 7.8s-27.1 14.2-27.8 16.2c-.6 1.7-.4 13.6 0 15.6.8 2.9 6.1 8.9 7.5 13.5.9 2.8 1 8 1.7 9.3.6.9 2.9 1.6 4 3 4.4 5.8-2.2 8.3-3.2 13.7s-2.8 17-3.2 22.8c-.3 4.3-1.4 10.2 3.7 11.3 2.7.6 9.6 1 12.8 1.2 12.1.7 26.8.4 39 0 2.6 0 13.8-3.3 13.3 1.3-.4 3.6-12.5 18.4-15.9 21.1-14.6 11.2-37.7 4.2-54.9 7.6l-1 45.5c-.2 5.3-4.2 6.9-8.5 8.5-10 3.9-37.5 13.6-47.1 14.9-26.7 3.6-67.9-.4-95.9-1-23-.4-46 1.2-68.9-2.1-1.4-.5-17.1-22-17.9-24.1-2.9-7.9.4-19.7-8.2-25.8-1.7-1.2-3.9-.7-6.1-1.9-7.3-3.9-28.9-21.8-35.9-28.1-7.4-6.6-13.4-15-21.1-20.9-2.7 1.3-6.1-.6-8.4.4-1.8.8-13.7 15-17 18.1-12.4 11.4-27.2 20.1-39.7 31.3-3.4.3-6.4-1.6-9.8-1.8-14.9-1.2-31.4 7-47.1 8.9-49.2 5.8-116.2-10.9-153.8-43.9-28.5-24.9-36.2-62.5-37-99-9.7-5.8-19.6-11.2-29.5-16.5-4.9-2.6-18-6.5-18.9-12.2-.5-3.4 2.6-4.6 3.6-7s.8-6.4 1.8-9.2c7.7-21.1 25.9-58.8 39.4-76.4 3.2-4.1 8.3-9.5 12.1-14.1 2.9-3.5 13.9-14.5 14.8-17.2.2-.6.4-2 .2-2.3-.8-1.2-19.2-5.3-19.9-7.7-1.9-5.9 10.5-22.7 13.9-27.9 3-1.9 22.7 9.9 27.3 10.4 30.5-30.6 63.6-56.8 101.7-77.4 133-71.8 282.3-48.8 395.5 47.5 25.5 21.7 43.5 44 64.5 69.5 2.9 3.5 10.4 15.7 12.5 17.5 1.6 1.3 3.2.6 4.2 1.3Z" class="fill" data-original-prefix="fill"/><path id="fill-eyes4" fill="#ffffff" d="M1301.8 1116.3c3.8-.2 10-1 13.5 0 2.5.7 13.1 8.4 13.7 11.3 1.2 6.2 1.8 17.3 2.1 23.9 1.6 36 1.2 77.9 0 114.1-.4 13.2-.9 32.2-3.1 44.9-2.3 13.4-38.3 18.8-49.6 20.4-42.5 5.9-103.2 5-145.7-1-3.2-.5-10.9-1.1-13.2-2.8-1.1-.8-7.2-10.8-8.3-12.7-11.6-21.7-8.1-60.3-12.2-84.8 2.6-22.8-3.3-53 .1-75 1-6.4 14.7-23.5 21.5-24.5 22.6-3.5 46.2-2.4 68.9-4.1 37.4-2.8 74.9-7.4 112.3-9.7m-40 23c-31.5 1.3-66 4.9-97.1 9.9-7.8 1.2-33.6 4.7-38.1 9.9-2.8 3.2-3.4 13.7-3.6 18.4-1.7 31.3.2 68.8 4.2 99.9.8 6.2 2.4 19.5 4.1 24.9 2.2 6.7 8.9 6.4 15.2 6.8 41.4 2.7 104.8-.6 145.9-7.2 11.1-1.8 18.5-.8 19.6-13.4 3-33.9 2-76.9-1-111-1-11.3-2.9-22.5-4.2-33.8-.8-2.2-5-4.3-7.3-4.7-9.5-1.5-27.4-.2-37.6.2Z" class="fill" data-original-prefix="fill"/><path id="fill-eyes3" fill="#ffffff" d="M1086 1218c-1.7.4-2-.7-3-1.5-11.6-8.9-24.7-24.7-36-35-64.5-59-150-118.9-227.3-159.7-30.9-16.3-63.7-31.6-96.7-42.8.9-4.8 9.2-19.5 14-18.6 70.5 32.6 138.8 73.2 202.3 117.8 44.2 31.1 90.4 65.3 129.2 102.8 2.5 2.4 15.2 14.4 15.9 16.1.4 1 2.2 20.2 1.5 21Z" class="fill" data-original-prefix="fill"/><path id="fill-eyes2" fill="#ffffff" d="M1349 1245.5c0-.4-1.4-1.4-1-2.5 18.4 2.5 36.7-1.6 55-2.5-2.3 4.7-10.3 15.2-14.8 17.2-3.1 1.4-11.8 1.9-15.7 2.3-7.5.7-15.9.7-23.5 1-.4-5 .6-10.7 0-15.5" class="fill" data-original-prefix="fill"/><path id="fill-eyes1" fill="#ffffff" d="M1262.8 1153.3c4.9-.2 30.8-1.3 32.7.7 3.2 3.3 6.2 28.7 6.5 34.5 1.7 31.9-.8 65.7-2.5 97.6-1.7 2.8-26.6 7.2-31.2 7.8-28.3 4-67.4 6.6-95.9 5.2-3.9-.2-28.5-2.7-30.1-3.9-.8-.6-1.2-1.6-1.4-2.6-.4-22.7-3.9-45.3-5.1-67.9-.4-8.6.2-17.4 0-26.1-.2-9.9-4.8-26.6 8.7-31.2 7.5-2.6 21.5-3.8 29.9-5.1 28.9-4.3 58.9-7.8 88.1-8.9Z" class="fill" data-original-prefix="fill"/><g id="shading-eyes" fill="#aaaaaa" opacity="0.5"><path id="shading-eyes4" fill="#aaaaaa" d="M1091 1153.5c0-.7 2.6-4.3 0-4.5-3.9 10.4-12.6 18.7-18.5 28l-12.4-11.6 30.4-52.4c24.6-17.8 51.7-32.2 78.5-46.5 16.6-8.8 33.3-13.7 46-28 5.2-5.9 16.1-20.6 18.3-27.7 5.2-16.7-3.1-28.6-11.1-42.5-18.2-31.5-47.3-67.4-78.3-86.7-12.8-8-27.4-13.5-37.9-24.6 32.2 6.5 62.9 20.8 91.3 37.2 44 25.3 86.1 60.9 116.1 101.9 2.8 3.8 12.4 14.4 8.3 18.7-3.2 3.3-24.9 8.2-31 10.5-59.6 22.2-105.7 42.8-156.6 81.4-3.9 2.9-10 9.4-13.7 11.3-3.2 1.6-5.8.6-8.3 1.7-1.7.8-15 17.8-14 18.5 10.7-1.9 6.1 7.1 6 13.5-1.1 43.7-3 90.5 4.3 133.8 4.4 26.3 14 35.6 40.3 39.7 39.1 6 86.4 3.6 125.6-2.2 9.6-1.4 26.4-3.7 35.1-6.9 1.9-.7 9.8-5.4 11-6.7 2.1-2.1 3.6-10.5 4.4-13.9 4.5-19.2 6.7-39 11.3-58.2 2.6-.3 1.6 0 2 1.5 2.7 8.6-2.4 21.4-.5 30.5 4.3-5.4 5.9-29.8 11.5-32.5 10.1-4.9 6.6 11.1 9.2 16.4 12.8 1.9 25.9 1.2 38.8.6-4.1 3.6-8.2 10-13.7 11.3-11.3 2.7-26.4.6-38.3 2.2l-1.2 26.3c-3.2 3.8-6.6 7.6-9 12-2.2 4.1-7 20.7-8.9 22.1-2.4 1.8-15.8 4.3-19.8 5.2-48.6 11-137 18.5-183.9 2.6-11.8-4-11.1-9.4-17.4-18.6-2.3-3.3-9.2-10.1-10.3-12.7-1.7-4.3.8-21.3-1.6-22.9-1-.7-6.1 2.3-7.9.5-19.3-15.7-40.5-29.2-56.1-49-.8-.3-9.2-.3-9.9 0-1.5.7-15.5 16.9-19 20-11.7 10.4-25.5 18.4-37 29-6.9.9-11.1-.9-8-8.5-2.7.6-8.6 1.4-10.8-.2-.7-.5-.8-2.7-1.7-3.7-4.3-4.9-43-18.5-52.8-25.2-4.3-3-8-8.3-12.2-11.8-22.6-18.9-57-46.6-83.4-58.6-23.5-10.6-53.9-14.7-78.4-23.4l-2.2-5-41.4-21.6 4.9-4.1 15.1-28.9 32.3-.3c21.8 12.8 45.2 24.8 66.2 38.8 27.5 18.2 51.9 40.4 80.6 58.4 16.4 10.3 74 45.7 90.4 45.6 6.9 0 18.6-2.9 25.7-4.3 6-1.2 20-6.3 24.5-6.4 2.5 0 7.8 3.9 12.8 3.8 4.6 0 9.1-3.9 11-4 2.4-.1 20.6 5.6 25.3 6.6 8.3 1.8 16.8 3.1 25.2 4.3.4-1.7-.7-2-1.5-3-1.9-2.5-5.7-6.5-8-9-2.6-2.8-20.7-21.5-22.2-21.8-4-1-11.8 8.7-16 9.7-5.2 1.2-10.1-.7-14.7-.7-4 0-8.3 1.6-13 .8-1.7-.3-20.9-13.4-23.5-15.5-8.5-7-9.3-13-14.9-21.1-18.7-27.4-31-44-57.3-64.7-49.5-39-98.9-60.6-157.6-82.4-5.5-2-30.8-7.5-32.1-11.9-1.9-6.5 12.8-18.3 11.8-21.7-.8-2.9-19.7-7.4-20.8-8.7-1.2-1.4 1.5-10.9 2.4-10.9 11.6 7 25 10.2 37.5 15.5 119.1 50.8 202.7 110.9 299 195.9 8.1 7.2 15.9 14.8 23.5 22.5 2.7-5.3.6-11.4 2-17 .1-.5 2.6-6.4 2.8-6.7.8-1 4.3-1.1 5.2-3.2.9-2 .2-4.3.7-6.3.3-1.3 1.8-3 1.8-3.2 0-5.2-.3-10.8 0-16ZM830.5 1034c.6 2.7 3.2 5.9 5 8 9.4 10.7 35.1 20.5 48.5 27.5 7.9 4.1 15.4 9.6 24 12zm208.5 152c-21.5-20.6-44-40.7-67.5-58.9-3-2.3-6.1-4.8-9.4-6.6 2.9 6.2 6.4 12.2 9.8 18.2 5.5 9.6 18.8 34.8 25.3 41.7 1.7 1.8 2.7 2.1 4.9 3.1 9.8 4.5 12.3-.6 17 12 1.5 4.1 0 9.7 5.4 8.5 4.9-1.1 2.8-4.8 4-8 1.8-4.8 4.5-10.9 10.5-10" class="outline shading" data-original-prefix="shading" opacity="0.5" style="opacity: 0.5"/><path id="shading-eyes3" fill="#aaaaaa" d="m1294.9 1282.9 5.2-78.3c-.2-7 .2-14.1 0-21.1-.2-8.5-2.8-18.1-1-26.5 6.3 7.3 9.3 16.9 10 26.5 2.2 30.6-2 61.3-1 91 .2 5.8 3.7 21.4.5 25.4-2.7 3.4-10 4.9-14.2 5.8-21.7 4.7-52.3 6.6-74.7 7.3-17.1.6-66.8 2.6-80.8-1.3-6.8-1.9-3.7-4.9-3.7-9.2.2-16.5-2.3-30.2-3.1-46-.7-14.7.8-29.4 1.1-44 .2-11.1-1.3-24.4-.7-34.9.3-5.1 4-6.5 5.6-1.1 2.3 37.7-.5 76.7 11 113l36.5 4.5c36.9 1.5 73.7-1.9 109.3-11.1" class="outline shading" data-original-prefix="shading" opacity="0.5" style="opacity: 0.5"/><path id="shading-eyes2" fill="#aaaaaa" d="M942 857c-13.9 13.6-32.7 20-48.3 31.2s-30.7 28.3-42.6 43.4c-15.2 19.1-28.7 39.8-38.1 62.5l-53-27.5c-.7-2.8 34.6-33.5 39.5-37.5 40.6-32.8 91.3-60.5 142.5-72Z" class="outline shading" data-original-prefix="shading" opacity="0.5" style="opacity: 0.5"/><path id="shading-eyes1" fill="#aaaaaa" d="M1340 1127.5c-1.3-7.2-24.1-22.1-31-24-1.7-.4-7-.3-7-1 6-2.5 15.8-11.1 21.7-12.3 4.8-1 24.6-.9 29.8-.3 1.3.2 1.8 0 3 1 2.5 2.3 9.6 20.5 12.7 25.3.7 1.1 1.5 2.9 2.3 3.7 1.6 1.5 4.9 1.1 4.4 4l-36 18c-.5-4.4.7-10.3 0-14.5Z" class="outline shading" data-original-prefix="shading" opacity="0.5" style="opacity: 0.5"/></g><g id="outline-eyes" fill="#000000"><path id="outline-eyes4" fill="#000000" d="M696 1136c.3 2.6-.8 14.5-2 16.3-.6 1-3.3 1.6-4.4 1.4-3.8-.5-15-6.6-20.6-8.2-4.9-1.3-17.2-2.5-20-4.1-4.8-2.8-4.4-10.1-3.9-14.8 3.2-34.8 30.8-101.4 55.3-126.7 1.2-1.2 9.2-7.6 10.3-7.8 2.5-.5 4.5 2.4 7.2 1.8 2.6-5.3-4.2-4.1-7-6.5-4.3-3.8.9-19 3.2-23.7 2.6-5.2 11.8-16.8 18.1-16.5 4.7.2 15.3 7.8 18.6 6.2 44.2-43.5 99.3-84.9 159.8-102.2 62.3-17.8 144.3-19.3 207.4-5 82.1 18.6 152.9 74.9 205.8 138.2 1.4 1.7 5.7 9.1 6.2 9.3 1.7 1 4.2-1.8 6.9-1.5 9.9 1.4 27.5 29.3 32.8 38.3 13.7 23.1 25.1 53 30.7 79.3 1.5 7 7.1 27.5-.6 31.5-7.2 1.4-13.9 2.1-21 4-4.5 1.2-19.2 8.3-21.3 8.2-4.9 0-4.8-14.8-4.7-18.7.3-.5-.6-2.4.6-3.1l22.2-10.1c1.7-14.1-5.3-27.7-11-40.2-6.3-14-19.2-40-28.4-51.6-.8-1.1-1.8-2.5-3.1-2.9s-9.8-1.1-11.7-1.1c-8.4 0-24.3 1.7-33 3-8.1 1.2-15.6 4.6-23.6 5.9-.6-2.6.8-1.8 1.9-2.6 12.1-9.8 26.3-18.3 40-25.6 1.1-1.8-4.4-14.1-5.7-16.5-18.8-35.7-110.6-98.8-148.7-113.3-95.7-36.6-209.6-32.9-297.8 21.2-30.2 18.6-60.7 40.7-85.7 65.8 97.3 49.2 192.4 106 275 177.5 10 8.6 19.1 18.3 29.5 26.5 8.9-18.8 13.8-40.3 28-56 29.8-15.5 59.3-31.4 90-45l1.5 1.5c-20.7 14.7-42.8 27.8-62 44.5 11.4-2 23-.5 34.5-.9 33.2-1.3 69-4.4 101.8-9.2 9.6-1.4 32.2-7.6 40.1-6.8 8 .8 31.9 16.7 36.6 23.4 3.5 5.1 1.7 12.4 2 18.5.7 13.1 2.1 26.8 2.8 39.7 0 2.1-2.9 5.4-1.8 8.3 2-1.3 3.3-2.5 6-2 2.2 2.1-5 16.3-5 18.5v27.5c15.8 1.2 32.6 1.6 48.5 1 5.9-.2 10-3.7 15.8 0 3.8 2.5 4.5 6.4 2.8 10.6-2.2 5.7-20.4 25.8-26 28-3.5 1.4-11.7 2-15.8 2.2-8.1.5-16.4-.3-24.5 0l.8 39.3c-8.6 11.2-14.9 21.9-29.2 25.9-21.2 5.9-47.2 9.1-69.1 10.9-45.6 3.8-92.3 4.9-137.7-1.2-8.9-7.8-24.4-23.1-25.8-35.2-.7-5.8 1.2-15.9-.2-20.8-.4-1.3-9.7-10.4-11.8-13.2-1.1-1.5-.7-3.1-1-3.5 2.1.5 2.3-1.1 2.9-2.6 6.6-18.3-9.6-26.2-20.9-36.4 9.3.8 17.7 5.7 26.7 7.8 1.5.3 2.7.8 2.3-1.3-10.8-11.2-20.8-23.2-32-34-28.2-27.1-63.8-58.7-95.1-81.9-.9-.7-2.8-2.4-3.9-2.1 10.2 18.5 18.2 38.3 24.5 58.5-3.3-3.8-7.4-7.7-10.5-11.5-8.9-10.9-16.5-26.9-25.5-36.5-8.2-8.7-24.7-20.7-34.6-28.4-17-13.2-35-25.1-52.9-37.1 1-1.3 3.5-.2 4.7.3 16 5.8 36.5 17.8 52.3 25.7 1.3.7 2.5 1.4 3.5 2.5l.5-2c-40.5-27.8-83-53-127.6-73.9-12.5-5.8-31.9-15.7-44.3-19.7-3.1-1-4.6.7-3.9 3.8s9.2 6.1 12.2 7.9c10.2 6.4 21.1 13.4 29.7 21.8-7.7-1.3-14.8-4.8-22.5-6-11.3-1.7-34.3-4-45-2-.8.2-1.5.2-2 1-8.8 15.2-18.3 30.2-26 46-4.3 8.9-12.9 26.5-14.4 35.6-.3 2.1-1.1 10.9-.2 12 1.4 1.7 17.2 6.9 21.1 10 2.1 1.7 1.8 2.1 2 4.5Zm390 82c.7-.8-1.1-20-1.5-21-.8-1.7-13.4-13.6-15.9-16.1-38.8-37.4-85-71.7-129.2-102.8-63.5-44.7-131.8-85.2-202.3-117.8-4.9-.8-13.1 13.8-14 18.6 33 11.2 65.8 26.6 96.7 42.8 77.3 40.8 162.9 100.7 227.3 159.7 11.3 10.3 24.3 26.1 36 35 1 .8 1.3 1.9 3 1.5Zm215.8-101.7c-37.4 2.3-74.9 6.9-112.3 9.7-22.8 1.7-46.3.6-68.9 4.1-6.8 1-20.5 18.1-21.5 24.5-3.4 22 2.5 52.1-.1 75 4.2 24.5.7 63 12.2 84.8 1 1.9 7.2 11.9 8.3 12.7 2.3 1.7 9.9 2.3 13.2 2.8 42.5 6 103.2 6.9 145.7 1 11.3-1.6 47.3-7.1 49.6-20.4 2.2-12.8 2.7-31.7 3.1-44.9 1.2-36.2 1.6-78.1 0-114.1-.3-6.6-.8-17.7-2.1-23.9-.6-2.9-11.2-10.6-13.7-11.3-3.5-.9-9.7-.2-13.5 0M1084 1178v-14l-7 8.5zm265 67.5c.6 4.8-.4 10.5 0 15.5 7.6-.3 16-.3 23.5-1 3.9-.4 12.7-.9 15.7-2.3 4.4-2 12.4-12.6 14.8-17.2-18.3.9-36.6 5-55 2.5-.4 1.1.9 2.1 1 2.5" class="outline" data-original-prefix="outline"/><path id="outline-eyes3" fill="#000000" d="M707 1142c4 1.2 11.1 1.2 16 2.5 37 9.8 72.3 23.3 103.9 45.1 34.5 23.8 57 54.9 101.7 59.3 21.1 2.1 43.4-9 63.4-14.9.7 2.6-.9 1.8-1.9 2.6-10.5 9.2-26.9 18-19.5 35.2.7 1.6 2.2 1.1 2.3 1.2 2.2 3.7-11.2 16.6-14.3 18.2-4.3 2.2-10.9 2.5-15.7 2.8-.2-2.8 1.7-4.6 2-7.5.2-1.5.6-2.8-1.4-2.4-4.5.9-13.5 7.5-17.5 10.5-8 5.9-19.1 19.5-27.9 21.1-20.4 3.9-65.8 1.6-86.5-3-12.8-2.8-29.1-11.9-41.1-17.9-.8-.4-7.6-2.1-2.2-2.8 2.3-.3 5.6-.1 8 0 4.3.2 10.5.7 14.7 1.3 5.7.8 10.2 3.8 15.4 4.6 1 .2 3.7.8 3.4-.9-5.5-1.3-10.4-4.2-15.8-5.7-13.3-3.9-33.5-4.4-44.9-10.1-5-2.5-29.8-28.8-33.5-34.4-5.8-8.7-17.7-46.7-18.8-57.2-.2-1.8 0-3.7 0-5.5 2.6-2.6 9 9.2 10.4 11.1.4.5 1.1 3.7 2.6 1.9 1.7-2-9.5-16.9-9.8-18.7-.2-.9 3.9-14.9 4.5-18.1 1-6.1 1.3-12.2 2.3-18.2Z" class="outline" data-original-prefix="outline"/><path id="outline-eyes2" fill="#000000" d="M998 1254c.8-5.6 6.1-9.6 9.2-14.3 6-9.1 12.3-22.8 9.8-33.7 5.5 2.5 8.9 2.5 14.5 0-2.8 19.1 9.8 31 19 45.1.9 1.4.3 3.3.5 3.9-3.3 0-4 4.3-7 4-.3-5.3-7.6-7.7-11.1-11.5-2.9-3.1-3.7-6.1-5.7-9.3-1-1.7-3.7-2-5.1-1.1-.5.3-3.4 7.2-5.2 9.3-3.8 4.4-11.3 6.9-12 12.5-1.4 1.3-5.2-4.4-7-5Z" class="outline" data-original-prefix="outline"/><path id="outline-eyes1" fill="#000000" d="M1261.8 1139.3c10.2-.4 28.2-1.7 37.6-.2 2.3.4 6.5 2.4 7.3 4.7 1.3 11.2 3.2 22.5 4.2 33.8 3 34 4 77.1 1 111-1.1 12.6-8.6 11.6-19.6 13.4-41.1 6.6-104.5 9.9-145.9 7.2-6.2-.4-13-.2-15.2-6.8-1.8-5.4-3.3-18.6-4.1-24.9-4-31.1-5.9-68.6-4.2-99.9.3-4.7.8-15.2 3.6-18.4 4.5-5.2 30.3-8.7 38.1-9.9 31.1-5 65.7-8.6 97.1-9.9Zm1 14c-29.3 1.1-59.2 4.5-88.1 8.9-8.4 1.3-22.4 2.5-29.9 5.1-13.5 4.6-8.9 21.3-8.7 31.2.1 8.7-.5 17.4 0 26.1 1.1 22.7 4.7 45.2 5.1 67.9.1 1 .6 2 1.4 2.6 1.6 1.2 26.2 3.7 30.1 3.9 28.5 1.4 67.6-1.2 95.9-5.2 4.6-.7 29.5-5.1 31.2-7.8 1.8-31.9 4.2-65.7 2.5-97.6-.3-5.7-3.3-31.2-6.5-34.5-1.9-2-27.8-.9-32.7-.7Z" class="outline" data-original-prefix="outline"/></g>
    </g><g class="trait-group" data-category="right ear" id="right ear-cracked">
      <path id="fill-ear-rt" fill="#ffffff" d="M1722.4 186.9c.8.8 1.1 2.1 1.1 3.2l-8.1 121.8c-8.6 28.8-25.9 53-29.7 83.3s-3.9 64.1-9.3 93.7c-7.4 41.1-28.4 85.6-36.9 127.1l-66.8 103.2c-30.7 24.5-60.3 54-91.5 77.5-13.1 9.9-38.1 22.1-53.4 29.5-4.5 2.2-11.8 7-16.6 3.5s-8.7-32.4-11.9-39.1c-15.4 14.6-30.8 29.2-45 45-2.4 2.6-12.9 13.8-13.3 15.8-.5 7.8 4.3 26.8 1.3 33.2-2.3 5.1-22 16.9-22.5 21.5l15.9 43.8-51.9 35.7c-2.6 3-1.2-1.7-2.6 2.2-17.5-3.9-23.5-9.2-38.8-18.4-19.3-11.6-43.7-28-59.2-43.8-1.9-2-4.8-3.1-6.5-5.5-7-9.5-10.9-33.7-16.9-45 16.2-57.7 47.1-109 71.8-163.1 9.4-65.7 14-132.5 25.2-197.8l96.3-119.7 130.6-105.4L1705.6 178l16.7 8.8h.1Z" class="fill" data-original-prefix="fill"/><path id="shading-ear-rt" fill="#aaaaaa" d="M1670 478.5c0 .2-1.5 2-2 1-4.6-2.8-23.5-18.9-27.3-18.4-2.3.3-10.5 6.3-13.1 8-11.6 7.9-21.9 17.5-33.1 25.9-1.7 3.7-1.7 7.1-.4 10.8 6.7 1.4 18.8-4.7 17.7 6.4l-23.3 40.7c-2.5.4-1.5-1.8-1.2-3.2.8-4.7 8.2-23.6 7.7-26.2-.2-.8-1.2-1.4-2.2-1.4-3.3.2-8.7 4-12.6 3.9-.8.9 1.8 12 1.7 14.4-.2 7.7-7.3 19-10.3 26.5-3.3 8.5-8.4 19.1-6.5 28 1.4.2 2.7 0 4-.5 12-4.1 33.5-43.7 40.1-55.9 4.8-8.9 14.3-32.5 19.3-38.7.4-.5 1.2-1.4 1.5-1-12.8 55.3-34.4 111.3-63.2 160.3-7.3 12.4-22.6 38.5-31.8 48.2-6 6.3-23.1 17-31.1 21.9-27.2 17-57.6 30.4-89.9 33.6l14.9 35.4c2.5 3.2 21.7-5.9 25.5-7.5 28.7-12.7 69.6-35.6 94.6-54.4 5.6-4.2 8.5-11 6.6 2.6-10.7 7.5-19.9 16.9-30 25-10.6 8.5-24.1 19.3-35.1 26.9-19.5 13.4-44.2 22.7-64.3 35.7-2.6.7-6.3 1.4-8-1.1l-9.1-33.9-67.5 68.5c-1.5 3.5 7.6 16 5 21l-27.4 24.7c5 16.7 14.5 32 18.9 48.8l-1.1 2-44.3 28.7c-1.3.7-2.7 1.6-4.3 1.8-4.9.6-23-6.1-28.3-8.5-21.2-9.4-42.2-23.3-60.1-38-3.1-2.5-20-18.6-20-21s2.2-2.6 2.8-4.2c1.1-3.1 1.1-7.1 2.5-10.5 4.2-10.5 32.7-39 41.8-50.2 58.9-72.9 101.1-158.1 128.3-247.7 4.3-14 8.8-40.2 14.2-51.8 3-6.3 11.4-12.3 14.7-18.8 22.1.5 44.5 6.1 65.8 11.8.9 1.2-5.4 14.4-5.9 17.5-1.3 9.1.4 20.2.9 29.4l19-47c4.9 3.9 5 10.1 12.5 11 8.4 1 31.8-3.8 40.3-6.7 2.5-.8 6.8-1.9 4.7-5.3-17.2-2.1-36.8 9.9-52.5 1.3-.2-.9-.2-11 0-11.7.3-1.1 2.7-.2 3.9-2.2 4.3-7.1 4.3-42.4 5.2-52.9.8-9.6 2.2-19.4 3-29 .8-10.5-2.6-12.2 5-21 8.7-10.2 35.9-34.5 47.3-40.6 3.1-1.7 7.8-.6 6.7-4.8-3.6-.6-5.7.5-8.7 1.8-16.1 7.3-32.9 26.4-48 34-1.6.8-3.6 1.9-5.4.7-.6-.4-4.6-12.8-4.8-14.3-.5-3.8 5.9-11.6 8-15.5 2.2-4.1 11.5-21.6 10.7-25s-25.6-16.5-30.4-21.7c-1.9-2-10.4-14.8-11.1-17-.7-2.4-.4-4 1.1-6l40.4-26.6c22.6.2 42.9-1.7 64-10 10.6-4.2 30.2-16.4 39.8-18.2 11-2.1 25.7 6.5 35.6 10.5 15.2-9.6 31.4-23.8 47.6-31.3 3.1-1.4 4-2.6 6.5.6 3.2 4 0 3.9-1.2 6.7-3.4 7.9-5.5 16.3-8.8 24.2-12.1 29.2-28.7 57.7-38 88-2.3 7.4-3.4 17.4-6 24-4.6 11.8-18.9 25-23.5 36.5-1.6 4.1-6.1 25-6 29 0 .7-.3 1.6.5 1.5 22.9-20 44.9-41.2 69.1-60 3.1-2.4 6.8-5.6 10.5-7v18.5c0 2.6-32.8 27.9-37 32 10.4.7 16.9 7.4 23.1 14.9.5.6 1.9.5 1.9.6 0 5.1 1 17.5 0 21.5ZM1606 296c-2.4-.2-4.7 0-7.1.4-16.5 2.9-37.6 9.5-53.7 14.3-5 1.5-10.2 2.2-15.2 3.8-11.7 23.6-23.4 47.3-34 71.5l20.3-12.2c27.3-9.4 38.9-37.6 60.2-55.9 8.3-7.1 18.8-12.8 27.6-19.4 1.1-.8 2.5 0 1.9-2.6Zm-86 17-46 3.5c-1.7 1.4-8.4 4.7-8.8 6.2s2.6 12.1 3.7 14c2.2 4 14 11.6 18.5 14.5 2.2 1.4 9.4 6.9 11.6 5.6l21.1-43.9Zm-138.5 421v1c.7-.3.7-.7 0-1m-.5 2c-1.4-1.8-4.5 5-4.7 5.8-5.5 16.6-6.8 40.6-14.1 55.9-7.6 15.9-25.4 34.3-35 50-.6 1-1.9 3.1-1.7 4.3 13.1-10.1 27.2-19.4 38.9-31 2.6-18.2 9.1-35.8 12.3-53.7 1.8-10.3 1.9-21 4.3-31.2Zm2 67c3.7-2.6 12.4-12.4 13-16.6.5-3.8-4.9-11.6-6.5-15.4zm-48.1 77.9c.5-.8-7-16.5-9.4-15.9-9.2 11.1-19.3 21.5-28.5 32.5-5.4 6.5-22 25-22.9 32.1-.5 3.6.2 7.3 0 10.9-.8 8.8-1.8 17.7-3 26.5l39.5-35c1-6.2-8.3-23.1-6-27.9L1335 881Z" class="outline shading" data-original-prefix="shading" opacity="0.5" style="opacity: 0.5"/><path id="outline-ear-rt" fill="#000000" d="M1204 941c-.6 2-3.1 0-4-.5-6-3.3-16.4-8.4-21-13-11.6-11.9-20.6-32.5-31.5-45.5-1-2.9-.7-7.3-.5-10.5 1-20.3 12.5-34.3 20.8-52.2 6.3-13.5 12.6-35.7 19.9-47 3.2-4.9 8.4-9.8 12-15 29.7-42.8 37.8-119.3 42.2-170.8 1.8-21.4.9-43.9 3-65 .7-7 2.4-6.2 5.4-10.6 32.8-49.1 70.5-98.1 110.1-141.9 13.9-15.4 33.5-38.4 49.2-50.8 52.6-41.5 136.1-85.3 198.3-110.6 29.7-12.1 85.4-35.4 115.8-38.3 8.5-.8 7.8 2.7 9.5 9.9 3.6 14.9 2.9 30.5 2.7 45.3-.4 32-1.4 78.8-8.3 109.7-3.7 16.4-15.8 23.2-22.2 37.8-10.4 23.8-20.5 86.5-15.4 111.4 3 14.6 5.8 10.4 2.4 27.6-12.4 64-44 134.2-79.1 188.9-30.9 48.2-70.1 80.8-118.5 110.5-28.7 17.6-59.7 34.8-91.9 44.6.3-14.2-.5-28.4 0-42.5 0-3 3.2-9.9-1-11-14.8 16.6-30.3 32.5-43.8 50.2-.6 2.2 2 8.2 2.8 10.8 1.5 4.5 9.2 20.3 7.6 23.5-1 2-28.2 11.4-31.4 16.7 6 20.3 14.5 39.6 22.7 59.1.5 4.8-7.5 12.2-11.2 14.3-2.2 1.2-4.5.9-6.9 2.1-5.5 2.6-9.7 9.7-15.6 12.4-22.6 10.3-50.5-2.5-71.7-12.3-4-1.9-11.3-4.7-12.3-9.2 2.4 1.1 5.6.7 8 1.5 26.9 9.2 36.4 9.3 61.7-4.3 3.1-1.7 18.6-11.5 19.2-13.9-5.6-15.9-10.9-32.1-19.7-46.6.2-2.7 11.1-11.8 13.8-14.2 2.5-2.2 16.3-11.8 16.9-12.7.6-1.1-1.1-6-1.7-7.5-1.8-4.9-9.1-13.1-7.8-17.3l32-33c2.3-18.2 9.3-35.8 12.3-53.7.9-5.2.5-11.6 1.4-16.6 6.7-39.1 32.5-73.7 53.7-106.4-3.1-10.5-18.5-34.2-29.3-19.2-7.7 10.7-16.6 48.7-17.6 62.4-.4 5 1.2 17.3-.9 20.8-.9 1.6-11.5 10.3-14.1 13.2-25 27.8-50.2 64.5-69.2 96.8-17.2 29.4-56.3 96-51.7 129.1.7 4.7 4.3 9.8 4.9 14.6-2.1 2.1-27.1-18.8-28.5-22-1.7-3.9.9-16.6 1.5-21.5.3-2.9-.4-6 0-8.9.7-4.5 15.4-22.3 19.2-27.8 39.8-58.6 57.4-124.9 103.3-180.7 11.8-14.4 20-26.2 25.8-44.2 5.6-17.5 15.4-63 12.5-80-.7-3.9-10.8-27.6-9.8-28.7l52 28c16.2-44.2 27.9-91.8 22.2-139.2 9.1-12.4 18-25 25.6-38.5 2.5-4.5 12.1-21.1 12.3-24.8s-4.6-8.1-7.6-10.5c-12.1-9.7-30.2-11.4-31.5-31-.7-.6-12.7 8.1-14.3 9.2-44 31.1-77.8 64.6-111.7 106.3-15.7 19.3-36.9 44.4-50.5 64.5-6.4 9.5-10.1 25.9-11.6 37.4-6.4 50-5.5 104.8-13.1 153.9-2.9 18.9-27.5 67.5-37 87-6.6 13.4-16.1 27.1-22.1 40-6.3 13.7-9 29.6-15.7 43.3-3.2 23.1 13.4 51.4 28.9 67.4v-.3Zm515-753c-30.2 9.5-58.8 22.3-87 36.4-25.9 13-53.6 27.8-78.6 42.4-19.8 11.5-38.5 24.8-58.3 36.2.7 1.8 5.9 1.1 7.5 1 23.2-1.4 56-9.1 77.1-18.9 4.3-2 15.9-9.7 18.9-10.1 11.8-1.7 21.1 15.3 28.8 13.8 1.7-.3 13.6-13.8 16.7-16.2 5.7-4.3 12.8-6.4 18.8-10.2 11-6.8 19-19 32.1-22.4l-22.5 39c-13.1 10-28 17.6-39.9 29.2-3 30.4 1.3 60.6 1.1 91-8 15.5-28.8 23.4-34.1 40.9-1.1 3.5-5.8 33.5-4.7 34.8 3.9-1.3 7.9-4.8 11-7.5 13.4-11.6 26.8-26.6 40-39 8.7-8.2 19.9-16.4 28.1-25 4.6-4.9 12.1-40.9 15.9-51.1 6.8-18.1 16.8-28.7 20.7-48.3 2.5-12.5 4.6-27.1 6.2-39.9 3.1-25.3 4.5-50.9 2.1-76.4v.3Zm-103 112c-5.5-.8-9.5-5.3-15.4-3.9-15.4 6.5-35.4 7-50.6 12.4s-41.3 48-47.9 63.1c-4 9.2-6.3 19.6-12.1 28.4 13.1-4.6 33.8-26 47.5-25 2.4.2 8.9 3.3 9.4 3 .7-.5 7.1-11.6 8.7-13.8 17.6-23.9 39.4-43.3 60.4-64.1Zm-96 13-46.6 3.9c-1.8.5-12.4 7-13 8.1-1.7 3.4 4.2 15.1 7 18 2.4 2.5 15.6 12.7 18.6 14.4 14.4 8.2 19.7-14.4 24.1-23.8 1.2-2.6 10.7-19.8 9.8-20.6Zm57 208c-2.3-22.7-1-46.6 3.5-69 1.9-9.6 5.7-27.6 10.3-35.7 6.1-10.7 27-21.4 29-32l-.8-63.3c-37 35.4-65 84.7-72.7 135.8-3.9 26-5.3 57.6 10.6 79.9v1.6c-21.4 26.5-33.1 58.8-41.6 91.5-2.1 7.9-9.6 50.2-12.3 52.7-19.4 17.7-41.7 34.1-65.3 46.7-2.2 1.2-14.6 7.8-15.7 6.8 3.2-7 7-13.5 9.7-20.8 6.7-17.3 8.5-31.1 7.3-49.8l-2-7.5c-5.5 12.1-11.2 24.3-17.5 36-5 9.3-22.1 34.4-24.1 42-2.9 11.3 9 27.8 13.7 38.3 6.8 15.3 12.3 30.7 12.8 47.7l83.9-48.6c76.6-56 124.6-136.5 149.8-227.2 6.8-24.3 13.8-49 12.3-74.5-7.5-3.4-20-16.1-28.3-14.5-3 .6-13 7.8-16.1 10-7.2 5.2-13.7 12.3-21 17-6 3.9-14.2 4.4-12.7 13.2 1.6 10 26.2 2 25.9 15.1-.2 7.4-23.2 33-26.9 41.5-1.9.2-.6-1.9-.3-2.8 2.2-6.7 14.8-29.3 13.2-34.6-2-6.5-20.6 4.2-24.9 4.4h.2Zm-37-135c-6.7-.9-12.1 3.8-17.3 7.2-8.9 5.7-34.4 22.6-40.6 29.4-3 3.2-12.7 33.4-13.8 39.2-3.7 19-2.9 40.5-7.4 59.7 0 4.8 11.4 18.6 16.1 20 4.2 1.2 19.5.8 24.5.5 2.6-.2 19.6-2.9 20.4-4.1 1.3-18.4.6-37.9-2-56.2-1.1-7.9-7.4-29.9-6.7-35.9.7-4.9 11.1-27.1 13.9-33.1 3.3-7 10-16.4 12.3-22.7.5-1.4.8-2.5.6-3.9Zm133 33-23 17.5c-2.2 2.8-6.4 4.6-6 8.5 9.5 1.2 16.7 8.1 25 12 .4-12.8 1.6-25.4 4-38m-151 128c-1.8-1.8-39.9 5.1-47.4 3.9-7-1.1-12.1-8.2-16.6-12.9-2 16.5-4.7 32.9-7.2 49.3-1.1 7.1-4.9 20.1-4.8 26.2 0 4.7 5.9 28.9 7.7 34.3 3.6 11.1 10.4 13.8 20.6 8 20.7-11.7 39.9-68.2 45-91 1.3-5.9 2-11.8 2.7-17.8m-133 209c-1.1 0-2-.2-3 .5-1.8 1.2-4.5 24.4-5.3 28.7-1.5 8.3-3.3 16.7-5.7 24.8 2.4 1.8 11.8-9.8 13.5-12 2.5-3.2 7.6-10 8.3-13.8 1.2-6.4-7.6-20.8-7.8-28.2" class="outline" data-original-prefix="outline"/>
    </g><g class="trait-group" data-category="left ear" id="left ear-cracked">
      <path id="fill-ear-lft" fill="#ffffff" d="m752 993 3-3-53.9-36.7 23-48.7c-.3-1.7-25.8-15.7-28.6-19.7-5.5-7.9 5.5-19.8 7-28-20.2-21.9-39.9-44.5-62.5-64-3.2 11.8-7.8 25.1-13.8 35.7-.5.9.4 1.7-1.5 1.1-14.2-7.6-29.1-14-43.3-21.7-19.6-10.6-58.5-31.1-72.8-46.2-27.5-28.9-52.5-61.9-79.7-91.3L379.4 549c-6.2-63.5-19.6-125.9-35.4-187.6-6.4-25-20.4-60.6-22-85-1.5-24.5-1.3-48.4-1.9-72.1-.1-3.8-2.9-15.6 0-18 1.6-1.3 13.8-5.5 16-5.1 34.7 16.9 71.1 30.5 105.7 47.4 50.9 24.8 99.7 57 150.3 82.7 38.7 39.9 85 75.9 123.1 115.9 24.1 25.3 45.6 55.7 69.5 81.5 10.7 66.2 14.2 133.5 20.7 200.3l82.8 169.2-33.4 54.7c-8.6 11.6-42.3 33.3-55.9 41.1-8.3 4.8-25.9 11.6-34.7 14.9-3.6 1.3-8.1 3.5-12 3.9Z" class="fill" data-original-prefix="fill"/><path id="shading-ear-lft" fill="#aaaaaa" d="M546.1 369.9c-4.9-11.5 3.5-11.7 10.8-16.4 3.7-2.4 19.4-12.5 21.1-14.9 2.1-2.9 4.7-12.6 4-16-1.2-6.3-14.1-5.9-18.4-6.6-24.9-4.1-55.8-9.7-79.6-17.4-11.6-3.8-23.1-10.4-34.8-14.4-2.1-.7-11 8.7-11.2 9.4-.3 1.5.9 1.6 1.6 2.3 7.9 7.4 22.6 14.2 31.9 22.1 7.1 6.1 14.7 14.9 21 22 7.3 8.2 19.8 27.4 27 33 11.8 9.3 31.4 14.5 45 26 1.5 1.3 6.5 6 4.5 8-3.9 3.9-32.2-15.7-37.5-18-4.3 0 2.5 5 2 7-5-1.8-15.8-12.4-20.2-12.8-2.2-.2-9.2 4.6-7.3 6.8 1.5-.1 2.7-1 4.2-.8 7 .7 37.8 28.3 44.3 34.8 2 1.9 12 12.3 12.3 13.8.5 2-.9 3.8-.8 5.7.8 13 2.9 26.1 3.9 39.1 1 12.4.1 41.2 4.8 51.2 1.3 2.9 4 3.1 5.3 4.7 3.1 4-7 13.2-11.7 13.5-9 .6-24.8-4.2-34.9-5-2.3-.2-4.7 0-7 0-2 3.2 1.5 4 4 5 7.7 3.2 33.1 7.9 41.1 7 7.4-.9 7.3-7.3 12.5-11l19 48c0-9.5 2.2-20.1 1-29.5-.5-3.9-7.2-16.5-5.6-18.5.8-1.1 23-5.9 26.4-6.6 6.9-1.4 32.4-6.6 37.5-5.1 2.3.7 15.5 17.2 16.7 20.2 6.3 15.2 10.3 40.2 15.7 57.3 28 89.6 70.8 173.1 130.3 245.7 7.6 9.3 36.2 38.8 38.5 47.5 3.1 11.7-7.4 26.7-15.5 33.6-19.8 16.7-48.3 36.1-72.9 44.4-3.8 1.3-13.1 1.9-16.8.3L710 954.4l13.5-37.3c16.8 15.6 32.2 34.6 50.5 48.5 1 .8 1.3 2 3 1.5-3.2-13.1-2.5-27-4-40.5-15-22.6-34.3-41.7-51.5-62.6-1.8-3.5 4.3-7.8 3-10.9-5.3-6.7-10.5-13.7-15.3-20.7-6.2-9-21.1-27.5-24.7-36.3-6.1-14.9-7.5-36.4-12.8-52.2-1-3-1.5-5.8-4.2-7.8-.8 4.7 1.7 9.8 2.4 14.6 2.1 15.5 4.5 26.3 7.6 41.4 2 9.5 3.4 19.1 5.4 28.6 0 1.9-9.3 8-11 7-8.1-9.3-15.9-20.5-24.3-29.2-1.4-1.5-7.2-4.8-7.6-6-1-3.2 12.7-21.6 11.9-27.3-1.9.2-5.4-1.8-6.9-.9-1 .6-8 19.9-8.8 22.7-1.8 6-6.9 35.3-9.7 37.3-2 1.5-4.2 1.2-6.3.2-35-21.2-70.6-41.5-104.3-64.7l-22-24c.3-1.2 2.2-.3 3 0 8.3 3.3 24.2 15.6 33 21 20.7 12.4 44.2 26.2 66.2 35.8 8.8 3.8 17.8 8 27.7 6.8-1.7-5.2 15.4-34.7 14-36-35.5-1.8-70.1-17.8-99.5-37-17.3-11.3-24.8-17.3-36.7-34.3-32.7-46.7-58.4-103.5-75-158-3.1-10.1-8.3-25.3-9.7-35.3 0-.6-.3-1.6.5-1.5 14.4 26.7 27.1 57.2 45.3 81.7 4.8 6.5 11.5 16.2 20.2 16.3-.3-2.8 1.1-5.2.6-8-2.1-13.2-15.6-31.9-17.4-43.7-1-6.8 2.8-14.2 1.6-21.1-5.7-1.1-24.3-1.8-19.7-11.4 4-8.4 16-12.8 6.2-22.6l-42.9-30.1-38.5 25c.9-5-3.4-14.8-1.5-19 .5-1.2 14.6-15 16.6-16.4 4.5-3.4 9.3-5.5 14.9-6.1l-44-37c-2.6-6.9-7.6-26.6 5.5-16.5 14 10.9 28.1 22.9 41.5 34.5s25.6 24.6 39.5 35.5c.8.2.5-.8.5-1.5 0-4.5-4.5-25.4-6.2-29.8-4.6-12.1-20.6-26.7-24.3-37.7-5.5-16.1-8.1-31-15-48-10-24.6-22.3-54.6-33.7-78.3-1.4-3-8.3-11.2-7.6-14.1s3.7-4 6.6-3c3.9 1.4 11.2 6.4 15.2 8.8 12.3 7.4 23.9 16.2 35.8 24.2 9.7-3.9 24.1-12.3 34.8-10.7 8.2 1.2 30.2 14.2 39.9 18.1 12.1 4.8 27.2 8.9 40.2 9.8 4.7.3 14.4-1.2 17.5-.5 2.9.6 40.7 26.5 44.9 30.1 1.2 1 4.1 3 3.9 4.7-.2 2.7-9 14.5-11.3 16.7-3 2.7-31.4 21.3-34.5 22.5-1.9.7-3.8.9-5.8.4ZM659 772c-2.3-.4-1.6.1-2.2 1.3-1.2 2.3-5 11-4.8 13.1.5 4.9 9.7 13.7 13 17.6z" class="outline shading" data-original-prefix="shading" opacity="0.5" style="opacity: 0.5"/><path id="outline-ear-left" fill="#000000" d="M844 941c15.5-16.5 32.2-43.8 28.9-67.4-6.7-13.7-9.4-29.6-15.7-43.3-6-12.9-15.5-26.5-22-40-9.5-19.5-34.1-68-37-87-7.6-49.1-6.7-103.9-13.1-153.9-1.5-11.5-5.2-27.9-11.6-37.4-13.5-20.2-34.8-45.2-50.5-64.5-33.9-41.7-67.6-75.2-111.7-106.3-1.6-1.1-13.6-9.8-14.3-9.2-1.2 19.7-19.5 21.3-31.5 31-11.5 9.4-7.4 12.4-1.7 23.6 9 17.6 20.3 34.2 32 50.1-5.7 47.5 6 95 22.2 139.2l52-28c1 1.1-9.1 24.9-9.8 28.7-2.9 17 7 62.6 12.5 80 5.5 17.5 13.9 29.8 25.8 44.2 45.9 55.8 63.5 122.1 103.3 180.7 3.7 5.5 18.5 23.3 19.2 27.8.4 2.9-.3 6 0 8.9.6 4.9 3.1 17.6 1.5 21.5-1.4 3.2-26.3 24.1-28.5 22 .6-4.8 4.2-9.9 4.9-14.6 4.6-33.1-34.5-99.7-51.7-129.1-18.9-32.3-44.1-69.1-69.2-96.8-2.6-2.9-13.1-11.6-14.1-13.2-2.1-3.6-.5-15.8-.9-20.8-1-13.7-9.9-51.7-17.6-62.4-10.8-15-26.2 8.7-29.3 19.2 21.2 32.6 47.1 67.2 53.7 106.4.8 5 .5 11.5 1.4 16.6 3 17.9 10 35.5 12.3 53.7l32 33c1.3 4.3-5.9 12.4-7.8 17.3-.6 1.5-2.3 6.4-1.7 7.5.5.9 14.3 10.5 16.9 12.7 2.7 2.3 13.6 11.5 13.8 14.2-8.8 14.5-14.1 30.7-19.7 46.6.6 2.3 16.1 12.2 19.2 13.9 19.4 10.5 30.2 13.7 52.3 8 6-1.5 11-4.9 17.4-5.1-8.4 8.7-23.5 14.3-35.7 18.8-16.9 6.2-30.8 10.7-48.3 2.8-6-2.7-10.1-9.7-15.6-12.4-2.4-1.2-4.6-.9-6.9-2.1-3.8-2-11.7-9.6-11.2-14.3 8.2-19.5 16.7-38.8 22.7-59.1-3.2-5.2-30.5-14.7-31.5-16.7-1.6-3.2 6.1-19 7.6-23.5.8-2.6 3.5-8.5 2.8-10.8-13.6-17.7-29-33.7-43.8-50.2-4.2 1.1-1.1 7.9-1 11 .4 14.2-.4 28.4 0 42.5-32.3-9.8-63.2-27-91.9-44.6-48.4-29.7-87.6-62.3-118.5-110.5-35.1-54.7-66.7-124.9-79.1-188.9-3.4-17.2-.6-13 2.4-27.6 5.1-24.9-5-87.6-15.4-111.4-6.4-14.6-18.5-21.4-22.2-37.8-2-8.9-3.4-20.6-4.3-29.7-3.1-32.8-8.7-94.9-1.3-125.3 1.7-7.2 1-10.7 9.5-9.9 30.4 2.9 86 26.2 115.8 38.3 62.2 25.3 145.8 69.1 198.4 110.6 15.7 12.4 35.3 35.4 49.2 50.8 39.5 43.8 77.3 92.8 110.1 141.9 3 4.4 4.7 3.6 5.4 10.6 2.1 21.1 1.2 43.6 3 65 4.4 51.5 12.5 128.1 42.2 170.8 3.6 5.2 8.8 10.1 12 15 7.4 11.4 13.7 33.5 20 47 8.3 17.9 19.8 31.8 20.8 52.2.2 3.2.5 7.5-.5 10.5-10.9 13-19.9 33.6-31.5 45.5-4.5 4.6-15 9.8-21 13-1 .5-3.5 2.4-4 .5ZM553 303c-19.8-11.4-38.6-24.7-58.3-36.2-25-14.6-52.7-29.4-78.6-42.4-28.2-14.1-56.9-26.9-87-36.4-2.4 25.4-1 51.1 2.1 76.3 1.6 12.7 3.6 27.3 6.1 39.9 4 19.6 14 30.2 20.7 48.3 3.8 10.2 11.3 46.2 15.9 51.1 8.2 8.5 19.3 16.7 28 25 9 8.5 42.3 43.8 50.5 46.5 2.5.8.8-1 .8-1.8-1.2-10.8-2.9-30.3-7.8-39.3-5.9-10.9-29.6-26.5-31.3-34.7-2.1-10.2 1.5-27.8 1.8-38.7.3-8.7-1-17.6 1-26.1-2.8-7.2.9-20-1.7-26.2-.5-1.3-13.7-11.4-16-13-7.8-5.6-16.5-9.8-23.9-16.1l-22.5-39c13 3.4 21.1 15.6 32.1 22.4 6 3.7 13.1 5.8 18.8 10.2 3.1 2.4 15.1 15.9 16.7 16.2 7.7 1.5 17-15.5 28.8-13.8 3 .4 14.5 8.1 18.9 10.1 21.2 9.7 53.9 17.5 77.1 18.9 1.6.1 6.8.8 7.5-1Zm5 97c-7.9-14.4-11.9-29-20.2-43.3s-25.9-42.9-41.6-48.4c-14.8-5.2-33.1-5.9-48-12-6.3-1.9-10.5 2.8-16.3 3.8 21 20.8 42.8 40.2 60.4 64.1 1.6 2.2 8 13.4 8.7 13.8.5.4 7-2.8 9.4-3 13.7-1 34.4 20.4 47.5 25Zm-8.7-43.3c2.8 2.7 7.1 3 10.7 1.9 1.2-.4 18.3-13.4 20-15 3.2-3.1 9.9-15.4 7.1-19.1-.3-.5-8.7-5.7-9.8-6.3-7.5-3.6-23.7-2.5-32.8-3.2-5.4-.4-11.1-1.4-16.5-2-.8.8 8.6 18 9.8 20.6 3 6.3 6.6 18.4 11.5 23Zm-.6 327.6c-1-1-3-1-4.2-2.3-2.4-2.7-9.6-43.6-11.6-51.4-8.5-32.9-20.2-65.6-41.8-92.3v-1.6c14.5-20 14.5-48.4 11.8-72.1C496.6 410.5 468 358.3 429 321l-.8 63.3c1.7 9.4 18 18.9 24.3 25.7 12.4 13.4 18.8 59.9 19.5 78.5.2 4.2.3 31.1-1 32.5-4.4-.1-22.9-10.9-24.9-4.4-.3 1.1 2.5 10.8 3.1 12.7 2.8 7.5 9.4 15.7 9.3 23.7-3.8-8-26.2-33.4-26.4-40.5-.3-13 24.3-5 25.9-15.1 1.4-8.8-6.8-9.4-12.7-13.2-7.3-4.7-13.8-11.8-21-17-3.1-2.2-13.1-9.4-16.1-10-8.6-1.7-20.1 11.1-28 14-2 25.6 5.3 50.6 12.1 75 19.8 71.4 48.5 126.6 98.2 181.8 32.5 36.1 59.6 49.1 100.2 72.8 11.8 6.9 22.8 15.6 35.3 21.2.5-11.8 3-22.4 7-33.5 4.2-11.8 18.5-34.5 20-44 .5-3.1.2-6.1-.7-9.2-2.5-8.5-18.4-31.3-23.7-41.3-6.3-11.7-12-23.9-17.5-36l-2 7.5c-1.2 18.7.6 32.5 7.3 49.8 2.8 7.2 6.5 13.8 9.7 20.8-1.1 1-13.5-5.7-15.7-6.8-22.8-12.2-43.5-26.7-61.6-44.9Zm-22.6-146.4c12.6 3.8 28.2 5.4 41.4 4.2 8.9-.8 16-12.1 19.5-19.5-4.7-22.5-3.6-47.3-9.8-69.3-2.8-9.8-6.8-20.8-10.8-30.2-15.3-9.9-30.8-24.7-46.5-33.5-3.9-2.2-7.2-4.4-11.9-3.6-.2 1.4 0 2.6.6 3.9 2.3 6.3 9 15.7 12.3 22.7 2.8 6 13.3 28.2 13.9 33.1.8 6-5.5 28.1-6.7 35.9-1.7 12.3-3.2 28.6-3.2 40.9s1.7 10.2 1.2 15.4M404 445c.5-3.9-3.8-5.8-6-8.5L375 419c2.4 12.5 3.6 25.2 4 38 8.3-3.9 15.5-10.8 25-12m122 102c.7 6 1.4 11.9 2.7 17.8 5.1 22.8 24.3 79.3 45 91 10.2 5.8 17 3.1 20.6-8 1.7-5.4 7.7-29.6 7.7-34.3 0-6.1-3.8-19.1-4.8-26.2-2.5-16.4-5.2-32.8-7.2-49.3-4.5 4.7-9.6 11.8-16.5 12.9-7.6 1.2-45.7-5.7-47.4-3.9Zm147 263c-3.9-6.4-8.6-51.9-11-53.5-1-.7-1.9-.5-3-.5-.2 7.4-9.1 21.8-7.8 28.2.7 3.8 5.8 10.5 8.3 13.8 1.7 2.2 11.1 13.8 13.5 12" class="outline" data-original-prefix="outline"/>
    </g><g class="trait-group" data-category="head" id="head-hatflip">
      <path id="fill-head1" fill="#ffffff" d="M1015.8 692.3c17.2-1 48.3 1.2 61.7 12.7 4.2 3.6 8.9 11.7 13.5 13.5 15.1 5.8 38.7 9.2 55.2 13.8 53.3 14.7 86.1 28.6 131.1 60.9 17 12.2 61.4 45 69.9 62.1 19.5 39.4 19.8 89.2 32 131 .4 1.3 14.8 17.5 17.2 20.8 8.7 11.8 19.4 27.3 25.4 40.6 6.3 13.9 7.3 17.3.8 31.6-7.1 15.7-16.5 30.6-23.9 46.1-3.1 6.5-6.5 22-12.9 26.1-2.5 1.6-22.9 3.8-27.6 4.4-131 17-262.2 15.9-393.8 15.1-95.9-.6-187.7-3.1-282.9-16.1-4.1-.6-17.8-2-20.1-3.9-6.2-5.1-9.2-18.2-12.7-25.3-7.5-15.5-16.7-30.6-23.7-46.3-5.8-12.8-5.4-17 0-29.7 5.9-13.7 17.5-30.4 26.4-42.6 2.4-3.3 16.8-19.5 17.2-20.8 12.2-41.8 12.5-91.6 32-131 9-18.2 59.1-54.8 77.5-67.5 42.1-29.3 74.2-41.9 123.5-55.5 16.5-4.6 40.2-8 55.2-13.8 4.6-1.8 9.3-9.9 13.5-13.5 11.1-9.4 31.3-11.9 45.5-12.7" class="fill" data-original-prefix="fill"/><path id="shading-head4" fill="#aaaaaa" d="M680.2 1154.8c-11.8-20.5-19.7-42.5-22.2-66.3-2.9-27.3 1.6-42.6 22.5-60.5 45.7-39.1 168.8-59.5 229.1-68.9 41.3-6.4 83.1-13.2 124.9-12.1 55.6 1.4 127.5 14.6 182.7 26.3 45.7 9.7 143.2 30.8 167 74 14.6 26.5 1.2 79.2-14.6 103.7-4.9 7.6-6.3 4.2-14 5-46.9 5-93.7 10.8-141 13-8.2.4-19.8-1.5-26.9-.8-59.9 6-121.9 1.4-182.1 2.7-106 2.3-207.6-3.2-313-15-3.3-.2-10.1 1-12.4-1.1" class="outline shading" data-original-prefix="shading" opacity="0.5" style="opacity: 0.5"/><path id="shading-head3" fill="#aaaaaa" d="M1375.8 968.2c2.3 2.4 2.8 15.2 4.5 19s8.9 8.9 10.7 13.3c.2.7-.8.6-1.5.5-4.4-.7-16.1-9.2-21.3-11.7-24.3-11.7-55.1-19.4-81-28-3.9-1.3-7.8-3.9-12.2-4.8-39-8.8-74.9-27-114.9-32.1L1121 918c17.8.3 35.7 1.2 53.4 3.1 53.1 5.6 113.3 18.9 164.4 34.6 4.6 1.5 35.6 11.1 37 12.5" class="outline shading" data-original-prefix="shading" opacity="0.5" style="opacity: 0.5"/><path id="shading-head2" fill="#aaaaaa" d="m926 918-83.2 15c-10.4 8.1-27.2 10.9-40.3 14.9-37.6 11.7-89.3 24.8-124.2 41.8-6.9 3.4-13.7 9.6-21.3 11.2 1.4-4.8 8.5-9.4 10.4-13.1 2.1-4 2.3-17.2 4.8-19.7.9-.9 20.8-7.5 24-8.5 23.7-7.8 49.4-14.7 73.8-20.2 50.9-11.5 103.6-20.4 156-21.4" class="outline shading" data-original-prefix="shading" opacity="0.5" style="opacity: 0.5"/><path id="shading-head1" fill="#aaaaaa" d="M982 713c.6.7 15.2 2.7 17.5 3 6.2.8 16 1.9 22 2 5 .1 43-3.4 44.5-5 .5-.5-1.8-5.4-.3-8.8 4.2-8.9 18.7 3 12.7 13.7-5.7 10-23.8 10.6-33.9 10.1-6.2-.3-14.3-2.8-20.1-2.9-6.3-.1-15.1 2.6-21.8 2.9-11 .5-36.7-1.1-34.3-17.3.7-5 6.3-11.5 11.5-9 5.8 2.8 1.6 10.6 2.2 11.3" class="outline shading" data-original-prefix="shading" opacity="0.5" style="opacity: 0.5"/><path id="outline-head37" fill="#000000" d="M1092.3 711.7c46.7 13 97.5 22.1 140.7 44.8 30.2 15.8 92.2 59.8 113.5 85.5 17.8 21.5 24.6 77.7 31 106 2.3 10.3 4.8 25.9 7.7 35.3.3 1.1 10.2 11.3 12.2 13.8 8.8 11.2 33.8 46.7 35.5 59.5 3.1 22.6-18.2 52.2-28.1 72.7-2.5 5.1-4.1 12.5-6.6 17.4-.6 1.2-6.8 9.5-7.5 10-2.5 1.9-10.8 2.6-14.4 3.2-70.5 11.2-144.5 14.5-215.9 16.1-157.1 3.4-326.5 6.8-481.8-15.1-4.8-.7-18.4-2-21.6-4.4-7.6-5.8-10-19.1-13.9-27.1-9.9-20.4-31.2-50.2-28.1-72.7 2.7-19.4 34.7-57.8 47.7-73.3 11.8-40.8 13.7-92.8 32-131 8.5-17.5 45.7-45.4 62.3-57.7 52.7-39.4 90.2-54.4 153.5-71.5 10.6-2.9 36-6.7 44.2-10.8 2.1-1.1 10.8-12.1 14.2-14.8 18-14.4 85.2-13.8 105.3-3.3 6.5 3.2 13.4 11.9 18.1 17.4M1073 717c-1.3-2.7-4.7-3.9-7.3-5.2-21.1-10-53.5-10.2-75.5-3.1-4.9 1.6-12.1 4.1-15.2 8.3zm225 234c-8.1-32.1-17.3-71.1-38-97.5-35-44.6-125.2-92.7-178-114-53.5-21.6-77.2-16.9-128.7 5.3-51.6 22.3-150.2 75.3-176.5 125.5-12.6 24.1-20.2 53.8-26.8 80.2l36.6-10.4c58.8-17 116.9-23.3 177.9-25.1 74.8-2.2 151.8-3.4 225.7 9.3 36.5 6.3 72.5 15.6 107.8 26.7M958 731c-23.9 2.4-48.8 10.7-71.2 19.2-46.4 17.7-113.1 54.8-149.8 88.2-18.3 16.7-24.4 34.5-32.7 57.3-9 24.7-13 53.4-18.2 79.2l49.7-19.3c6.6-31.8 14.3-64.6 32.5-92 28.6-43.3 74.3-69.3 118.1-94.9zm404 244c-5.2-25.8-9.2-54.5-18.2-79.2-8.3-22.8-14.4-40.6-32.7-57.3-36.7-33.4-103.3-70.5-149.8-88.2-22.5-8.6-47.3-16.9-71.2-19.2l28 15.5c63.7 33.4 142.5 70 173.9 139.1 10.2 22.4 15.3 46.5 20.7 70.3zm-362.2-50.7c-95 1.8-192.3 14.6-277.8 57.2-26 13-52 25.4-71.5 47.5-5 5.7-19.7 24.7-20.2 31.6s10.1 29.4 13.5 37.1c7 15.8 14.9 31.3 23.9 46.1 36.8 6.8 74.4 8.3 111.8 11.2 55.2 4.3 110.6 8.5 166 10 108.5 3 215.1-1.5 323.1-10 37.6-3 75.5-4.3 112.4-11.6 5-10.2 10.9-19.9 15.9-30.1s19.4-40 20.1-49.9c.5-7.2-3.2-12.2-7-18-11-17.2-27.9-33.2-45.4-43.6-110.6-66.2-237.7-80-364.8-77.5" class="outline" data-original-prefix="outline"/><path id="outline-head36" fill="#000000" d="m822.9 974.1 1 8.9-38.5 10.1c-3.4 1-7-7.8-4.9-9.2z" class="outline" data-original-prefix="outline"/><path id="outline-head35" fill="#000000" d="M1268 984c-1.2 5.2-1 9.7-7.2 8.8-11.4-1.6-24.7-8.8-36.7-9.8v-9z" class="outline" data-original-prefix="outline"/><path id="outline-head34" fill="#000000" d="M1284 1000c-1.1-1.3 3-10 3.5-10l41.4 16.5c-13.1 11.5-30.1-5.3-44.9-6.5" class="outline" data-original-prefix="outline"/><path id="outline-head33" fill="#000000" d="M761 990c.4.3 3.8 9 3 10l-32.5 11c-4.6.7-8.9-1.7-12.4-4.5 4.7-2.5 40.1-17.8 41.9-16.5" class="outline" data-original-prefix="outline"/><path id="outline-head32" fill="#000000" d="M1383 1051c.3 6.9 1.4 13.6 1.1 20.6-.1 2.2-.7 9.2-1.2 10.8-.7 2.2-8.4 2.5-10.9 2.6 1-10.5 1-20-1.1-30.4 4-1.3 7.6-4.2 12.1-3.6" class="outline" data-original-prefix="outline"/><path id="outline-head31" fill="#000000" d="M676 1085c-11-.3-11.3-1.1-12-11.5-.5-7.8.4-15.8 1-23.5 2.4.7 11.3 3.6 11.9 5.7-2.3 9.9-2 19.2-.9 29.3" class="outline" data-original-prefix="outline"/><path id="outline-head30" fill="#000000" d="M1379 1104c1.1 1-7.9 27.1-8.9 28.3-1.7 2-8.3 2.3-11.1 2.7l8.2-28.8c3.7-1.5 7.7-2.5 11.8-2.2" class="outline" data-original-prefix="outline"/><path id="outline-head29" fill="#000000" d="M689 1135c-3-.4-9.7-.7-11.5-3-.9-1.2-9.6-27-8.5-27.9 2.9.2 9.2.4 11.1 2.4.9 1 7.6 21.6 8.4 24.6.4 1.2.7 2.5.5 3.9" class="outline" data-original-prefix="outline"/><path id="outline-head28" fill="#000000" d="M1255 1013c.3.3-2.8 7.6-3.2 7.8-2.6 1.7-24-7.4-28.9-7.3-1.9-1.4-.7-6.2-1-8.5 2.5-2.4 28.2 7.7 33.1 8" class="outline" data-original-prefix="outline"/><path id="outline-head27" fill="#000000" d="M826 1005c-.4 1.9.6 6.6-.2 7.9-.6 1-19.1 5.9-21.9 6.6-7 1.8-8.5 3.2-10.8-5.2-.5-1.8 0-1.1 1.1-1.6 3.6-1.5 30.3-9.2 31.8-7.7" class="outline" data-original-prefix="outline"/><path id="outline-head26" fill="#000000" d="M1014 949v9c-9.6-.3-19.2 1.4-28.8 1.8-3.3.2-3.2-8.8-.6-9.7z" class="outline" data-original-prefix="outline"/><polygon id="outline-head25" points="1064,950 1064,960 1034,958 1034,949" fill="#000000"/><path id="outline-head24" fill="#000000" d="M1112 954c.4.4-.3 8.3 0 10-4-1.6-27.6-1.7-28.9-3-.5-.5.2-7.3-.1-9z" class="outline" data-original-prefix="outline"/><path id="outline-head23" fill="#000000" d="M965 952c-.3 1.6.4 8.6 0 9-1.3 1.2-25.2 1.3-29 3v-10z" class="outline" data-original-prefix="outline"/><path id="outline-head22" fill="#000000" d="M917 957c-.3 2.2.9 7.3-1 8.5-3.4 2.4-22.7 2.3-28 4.4-.8-.5-1.5-8.5-1-9 1.1-.9 26.2-3.2 30-3.9" class="outline" data-original-prefix="outline"/><path id="outline-head21" fill="#000000" d="M1160 970c-5.3-2.2-24.6-2.1-28-4.5-1.8-1.3-.7-6.3-1-8.5 4.3.3 29.2 3 29.9 5.6.3 1.1-1.7 5.4-.9 7.4" class="outline" data-original-prefix="outline"/><path id="outline-head20" fill="#000000" d="M735 1141c-2.8-.8-8.2-.4-10.1-2.4-1.6-1.7-8.9-24.7-7.9-25.6 2.9 0 7.5-.6 9.5 2z" class="outline" data-original-prefix="outline"/><path id="outline-head19" fill="#000000" d="M1331 1113c1 .9-7.1 24.8-8.5 26-1.8 1.6-7 1.2-9.5 2l8.2-26.8z" class="outline" data-original-prefix="outline"/><path id="outline-head18" fill="#000000" d="M705 1021c.9 1.2-.9 2.2-1.7 2.8-3.8 3-9.3 5.3-13.4 8.6-1.4 1.1-3.2 4.5-3.7 4.6-1.3.3-10-2.7-10.3-3.1-2.2-3.2 14.8-14.7 17.9-15.5 2.3-.6 10.5 1.6 11.2 2.6" class="outline" data-original-prefix="outline"/><path id="outline-head17" fill="#000000" d="M1372 1034c-.3.4-9.4 3.3-10.3 3.1-.5-.1-2.3-3.5-3.7-4.6-4.1-3.3-9.5-5.7-13.4-8.6-.8-.6-2.6-1.6-1.7-2.8.7-1 8.9-3.2 11-2.6 3.2.8 20.3 12.3 18.1 15.5" class="outline" data-original-prefix="outline"/><path id="outline-head16" fill="#000000" d="M1113 983c.4.4-.2 6.5 0 8-3.9-.7-29.6-1.8-30.1-3.6s.4-5.2.1-7.4c3.8.4 28.9 2 30 3" class="outline" data-original-prefix="outline"/><path id="outline-head15" fill="#000000" d="M965 980c-.3 1.7.5 7.1-.1 7.9-1.1 1.2-26 2.3-29.9 3.1.2-1.5-.4-7.6 0-8 1.1-1 26.2-2.6 30-3" class="outline" data-original-prefix="outline"/><path id="outline-head14" fill="#000000" d="M1035 985c-.3-.3.1-6.4-1-8l30.1 1.4c1.6 1.1 1.6 7.8-.7 8.5-3.7-1.7-27.4-.9-28.4-1.9" class="outline" data-original-prefix="outline"/><path id="outline-head13" fill="#000000" d="M1013 977v8l-27.5 2c-3.6-.1-3.4-8.1-.8-8.9z" class="outline" data-original-prefix="outline"/><path id="outline-head12" fill="#000000" d="M1205 978c-4.2-1.5-22.7-2.8-25.1-4.5-1.8-1.2-.8-7.8.2-8.5s23.9 3.7 24.9 4.4c1.9 1.2-.8 6.1 0 8.6" class="outline" data-original-prefix="outline"/><path id="outline-head11" fill="#000000" d="M1326 1094v-18.5c0-.3-1.1-1.1-.9-1.9.3-1.6 10.9-6.2 10.9-3.1v18c0 5.3-6.4 4.5-10 5.5" class="outline" data-original-prefix="outline"/><path id="outline-head10" fill="#000000" d="M868 965v9l-25 4c.5-2.5-2.4-6.9 0-8.5 3.1-2.2 20.2-2.9 25-4.5" class="outline" data-original-prefix="outline"/><path id="outline-head9" fill="#000000" d="M722 1072v22c-2.8-.8-10-.6-10-4.5V1070z" class="outline" data-original-prefix="outline"/><path id="outline-head8" fill="#000000" d="M1160 998c-3.6-1-27-3-27.9-4-.5-.5.2-6.4-.1-8l27.1 4.4c1.6 1.2.7 5.6.9 7.6" class="outline" data-original-prefix="outline"/><path id="outline-head7" fill="#000000" d="M916 986c-.2 2.9 1.1 6.1-1.7 7.8-3.7 2.3-20.9 2.5-26.3 4.2.2-2.1-.8-6.3 1-7.5 1.1-.8 26-5.5 27-4.5" class="outline" data-original-prefix="outline"/><path id="outline-head6" fill="#000000" d="M869 995c-.3 1.8.8 6.2-.6 7.1-1.2.8-22.4 5.6-23.3 4.8-.2-2.2-2.3-5.8-.1-7.4 1-.7 23.1-5.4 24-4.5" class="outline" data-original-prefix="outline"/><path id="outline-head5" fill="#000000" d="M1202.9 999c.5.5-.2 6.4.1 8-3-.2-23.2-4.1-23.9-5.1-.7-1.1.2-5.2-.1-6.9 3.1.4 23.1 3.2 23.9 4" class="outline" data-original-prefix="outline"/><path id="outline-head4" fill="#000000" d="M1327 1052c-10.6 4.5-7.6 2.3-14.5-3-1.6-1.2-10.6-6.5-9.5-8 .6-.8 7.1-3.2 9-2.6 2.6.8 16.5 11.5 15 13.6" class="outline" data-original-prefix="outline"/><path id="outline-head3" fill="#000000" d="M745 1041c.6 2.3-.5 1.6-1.3 2.3-2.1 1.7-5 3-7.2 4.7-1.7 1.3-5.9 6.6-7.2 6.8-1.6.3-6-3.1-8.3-2.8-1.5-2.1 12.5-12.9 15-13.6 3.6-1 5.5 2.2 9 2.6" class="outline" data-original-prefix="outline"/><path id="outline-head2" fill="#000000" d="M1289 1026c1.6 1.5-.5 1.7-1.3 2.2-5.8 3.8-9.8 4.1-16 .6-3.3-1.9-.2-7.8 1.8-7.9.9-.1 14.9 4.5 15.5 5.1" class="outline" data-original-prefix="outline"/><path id="outline-head1" fill="#000000" d="M759 1028c-1.7-1.8.6-1.7 1.4-2.1 6.4-3.2 16.2-8.8 17.5 1.5-.2.8-9.5 4.6-10.5 4.5-.4.1-8.1-3.6-8.4-3.9" class="outline" data-original-prefix="outline"/>
    </g><g class="trait-group" data-category="mouthpiece" id="mouthpiece-nosering">
      <path id="fill-nosering" fill="#ffffff" d="M1000 1361c-4.4 14.5-13.5 36 1 47.5 12.2 9.6 32.5 9.9 45 .9 16-11.4 6.6-33.4 2.1-48.4 38.4-2.2 59.8 43.8 36 73.5-32 39.8-87.9 39.8-120 0-23.9-29.6-2.4-75.7 36-73.5Z" class="fill" data-original-prefix="fill"/><path id="shading-mouthbit" fill="#aaaaaa" d="M1000 1361c-4.4 14.5-13.5 36 1 47.5 12.2 9.6 32.5 9.9 45 .9 16-11.4 6.6-33.4 2.1-48.4 38.4-2.2 59.8 43.8 36 73.5-32 39.8-87.9 39.8-120 0-23.9-29.6-2.4-75.7 36-73.5Zm-25.8 9.2c-.8.5-9.6 13.6-10.2 15.2-4.8 12.2-.5 33.1 8.1 43 23.8 27.6 74.5 28.4 100.5 3.6 11.1-10.6 18-35.5 10.3-49.4-1-1.7-9.2-12.1-10.6-12.5-4.7-1.3-11.9 4.7-13.9 8.8v32c-7.3 3.5-14.6 8.6-22 11.9-11.8 5.3-12.2 5.3-24.1.3-7.9-3.4-15.1-8.4-22.8-12.2-.2-7-1.1-14.7-1.3-21.5 0-3.5 1.8-7.7.6-11.8-1.1-3.7-11.2-9.5-14.6-7.5Z" class="outline shading" data-original-prefix="shading" opacity="0.5" style="opacity: 0.5"/><path id="outline-mouthbit" fill="#000000" d="M990.8 1356.3c24.1-2.6 14.7 3.9 10.5 17.4-1.5 4.8-3.2 11.8-3.3 16.7-.6 27.4 52.1 26.8 52.1 1s-1.8-12.7-3.3-17.8c-2.3-7.4-11.3-16.7.7-17.8 45.2-4.1 67.1 51.9 38.1 85.1-31.8 36.3-82.1 37.5-117.5 5.5-32.1-29.1-21-85.5 22.8-90.2Zm6.2 7.7c-38.7 8.9-50.2 50.8-19 77.5 29.5 25.2 61.8 25.3 91.5.5 31.7-26.5 20.7-68.9-18.5-78 4.7 10.6 11.9 20 10.7 32.2-4.2 43.6-72.3 43-75.6-.8-.9-11.5 6.5-21.4 10.9-31.4" class="outline" data-original-prefix="outline"/>
    </g>
</svg>