<?xml version="1.0" encoding="UTF-8"?>
<?xml-stylesheet type="text/css" href="../styles/semantic.css" ?>
<svg xmlns="http://www.w3.org/2000/svg" viewBox="0 0 2048 2048">
  <g class="trait-group" data-category="background" id="background-sunset-glow">
      <defs>
    <radialGradient id="sunset-glow-gradient" cx="50%" cy="50%" r="70%" fx="50%" fy="50%">
      <stop offset="0%" style="stop-color:#FFDAB9"/>
      <stop offset="100%" style="stop-color:#8B0000"/>
    </radialGradient>
  </defs>
  <path id="color-sunset-glow" class="color" d="M2048,0v2048H0V0h2048Z" fill="url(#sunset-glow-gradient)" style="fill: url(#sunset-glow-gradient)"/>
    </g><g class="trait-group" data-category="jaw" id="jaw-half-robo">
      <path id="fill-jaw" fill="#ffffff" d="m1382.8 1128.2 12.4 130.2 60.9 48.3-49.6 133.4c-1 1.4-2.4 1.1-3.9.9-13.9-1-32.8-8.5-47.4-10.7-1.8-.3-3.5-.4-5.2-.3 1.2 4.7-1.2 7.6-2.1 11.4-4.9 22.2-7.7 45-12.1 67.4l-57.2 29.3-1.4 1.6c-1.1 12 1.6 23.9.9 35.9-.3 5-1.3 14.9-2.3 19.7-.6 2.8-13.7 32.2-15 33.5s-16.1 8.9-16.7 8.3l-9.5-50-51 52c-7.7 5.7-20.7 9.3-27.5 15.5-14 12.7-24.7 36.5-41.4 47.6-5.5 3.6-58.7 25.2-65.4 26.6-2.4.5-46.7.7-49.3.2-6.2-1.1-59.9-22.7-65.6-26.3-14-8.8-29.1-36.3-42-48-6.7-6.1-19.9-9.6-27.5-15.4l-51-52-9.6 48.4c-.6.9-.9 1.7-2.2 1.5-.8 0-13.8-7.6-14.4-8.2-1.4-1.4-15.6-32.9-16-35.5l-.7-54.3-58.2-30.3-12.3-69.7c-16.4-1.1-33.5 3.9-49.5-1l-37.3-85.8c-.7-3.4 4-13 5.6-16.9 8-19 17.8-37.3 25.7-56.3 9.2-2.5 21.3 1.1 29.9-5.1 4-2.8-.2-18.8 0-23.9l-19-32.1-.3-2.2 27.6-63.5c1.4-9.9-3.2-21.4-1.1-31.1 1.3-6.2 9.7-21.7 13.2-27.9 54.6-98.4 184.4-157.8 290.2-180.8 48.2-10.5 90.3.5 136.5 15.4 98 31.8 198 94.6 250.7 185.3 3.2 5.5 3.8 13.3 10.7 14.8h-.7Z" class="fill" data-original-prefix="fill"/><path id="fill-jaw1" fill="#ffffff" d="M1265.7 1351.3c9.2 7.7-4.5 25.9-12.2 15.7s2.9-23.4 12.2-15.7" class="fill" data-name="fill-jaw" data-original-prefix="fill"/><path id="fill-jaw2" fill="#ffffff" d="M1314.6 1391.2c7.8-1.5 6.2 19.1-2.9 17.7-9.8-1.5-.6-17 2.9-17.7" class="fill" data-name="fill-jaw" data-original-prefix="fill"/><path id="shading-jaw" fill="#aaaaaa" d="M1377.3 1124.7c2.2 2.7 13.8 4 14.5 10l8.4 112.6c17.4 18.9 36.8 35.9 56.4 52.6l1.5 3.6-51 135.8c-1 1.6-3.7 1.7-5.4 1.6-14.4-.9-32.2-8.4-47.3-8.9-1.8 0-3.2-.2-4.4 1.3l-14.4 75.6-59.4 30.1c.4 11 2.6 23.6 2 34.5-.3 5.7-1.3 15.4-2.1 20.9-.5 3.1-13.4 31.4-15.4 33.6-3 3.2-11.6 6.2-15.5 9l-12-46.4-2.4-.6-46.1 47.9c-7.8 6.2-20 9.3-27.5 15.5-14.2 11.7-24.4 36.1-41.5 47.5-6.8 4.6-52.9 25.2-60.4 26.6-9.5 1.7-52.8 1.8-62.3.2-7.6-1.3-48.1-19.8-56.6-24.4-16.2-8.6-30.7-38.5-45.1-49.9-7.1-5.7-18.8-9.3-26.5-14.5l-48-49-8.5 47c-1.4 1.2-18.5-6.9-20.5-9-1.7-1.8-15-30.8-15.4-33.6-.7-4.4-.9-13-1.1-17.9-.5-12.2.6-24.4.5-36.6-18.8-11.7-39.4-20.3-58.6-31.4l-13.1-67.4-46.4.9-36.3-91.7-.2-2.3c6.7.3 9.7 6.8 15.7 10.8 19.1 12.8 34.2 19.3 57.7 16.1 20.6-2.8 26.4-11.2 48-1.7 16.1 7.1 19.4 16.7 31.2 25.8 13.2 10.2 17.5 3.6 25.9-7.1 6.9-8.8 25.8-41.6 27.4-51.6 1.7-10.7-3.8-11.2-13-10-8.6 1.1-48.4 15.1-51 14.6-1.7-.4-12.3-7.9-16.5-9.6-20.3-8.4-48.8-11.8-67.2-20.8-14.3-6.9-12.2-21.7-18-34.5l21.5-4.1c1.9.3 10.9 13 13.5 15.6 13.7 13.8 58.3 32.8 77.6 33.5 3.4 0 6-1 8.9-1.1h20.5l-34.7-16.8c-19.1-10.8-48.2-33.1-61.8-50.2-6.2-7.7-7.1-18.3-10.5-27.5-6-16.6-14.4-32-25-46 1.3-9 6.5-19.6 7.8-28.2 2.8-19.1 3.8-27.8 12.1-45.9 49-107.6 188.2-173.2 298.2-196.8 27.9-6 50-5.8 77.9 0 118 24.3 244.7 92.5 307.8 198.2 1.9 3.1 5.2 12.6 6.5 14h-.4ZM1326 1307c15.3-11.2 31.9-21.8 44.5-36 6.1-22.7 14.6-45.7 13.5-69.6l-2.1-29.5c-1.4.2-1.9 1.8-2.5 2.9-16.8 30.8-29.1 66.4-47 97l-62.3 38.7.4 3.3c5.9 15.3 32.8 49 33.4 63.6.2 4.3-2.2 10.7-.7 15.7 1.1 3.6 11 9.8 15.2 9.4l62.4-18.5c8.3 1.2 16.7.9 25.1.6l36.7-78.8.3-3.3c-14.1-10.8-29-21.4-44.3-30.7l-2.8 11.8c-13.3 5.6-27.2 16.2-40.4 21.1-6.7 2.5-16.4 2.8-23.8 3.2-1.2 0-5.6.7-5.5-1Zm-248 20c-5.1-10.6-9.9-23.3-16.6-32.9-6.5-9.4-23.8-30.4-31.9-38.1-4.2-4-7-3.9-11.1 0-7.7 7.4-27 30.2-32.9 39.1s-10.5 22.1-15.6 31.9zm200.7 70.7c1.4-1.6 8.8-25.5 9.1-28.5.4-4.4-3.5-11.7-5.6-15.9-3.8-7.3-18.5-32.7-23.6-37.4-5.7-5.3-8-1-14 1.1-11.8 4-23.6 7.8-35.5 11.5-1.3 1.1-1.1 1 0 2 3 2.6 6.7 4.5 9.4 7.6 6.8 8.1 12.2 22 18.6 30.9l3.1-12.4c.8-3.8 7.7-7.4 10.8-5.4 1.2.8 3.6 11.4 7.9 12.7 6.1 1.8 8.2-5 11-5.7 4.2-1 10.3 3.7 10.1 8.1-.5 11.3-14.6 20.3-25.1 18.6-1.1-.2-10.1-4.8-8.7-1.3 3.1 2.8 14.4 21.8 16.7 22.4 2 .5 14.5-6.5 16-8.2h-.2Zm-550.4 99c1.6 2 8.2 6.3 10.7 7.8 14.8 8.8 31.7 13.8 46.9 23.1 16.8 10.2 40.2 33.1 59.6 33.5 2.3 0 8.7-1.2 9.4-3.7.8-2.7-13.5-27.5-16.4-30.3-7.3-7.2-27.5-17.2-37.2-23.8-15.2-10.3-50.3-39.1-67.9-39.2-10.5 0-8.7 28.1-5.1 32.7Zm591.4-30.4c-6.1-6-24 4-30.4 7.6-16.3 9.1-30.8 21.3-46.2 31.8-9.3 6.4-25.4 13.9-33.1 20.9-3.1 2.8-16.2 24.5-16.9 28.2-1.1 5.3 6.2 6.5 10.3 6.3 16.8-1 25.6-11.2 38.2-19.8 8.3-5.7 17.3-12.1 26-17 11.7-6.6 47.1-19.2 52.7-29.3 2.4-4.3 2.8-25.2-.7-28.6ZM1126 1664c-12-2.7-20.7 6.6-31.6 7.9-5.7.7-12.2-1.2-16.6-.7-7.1.8-22.9 12.1-31.2 14.9-14.8 4.9-30.2 4.7-45.1 0-8.8-2.8-23.9-14.1-31.2-14.9-4.4-.5-10.9 1.4-16.6.7-11-1.3-19.9-11-31.6-7.4 0 7 23.7 23.4 30 27 12.5 7.1 59.7 26.8 72.5 26.6s59.8-19.7 72.2-26.9c3-1.8 33.6-23.3 29.3-27.2z" class="outline shading" data-original-prefix="shading" opacity="0.5" style="opacity: 0.5"/><path id="outline-jaw" fill="#000000" d="M1378 1122c.3-3.9.6-9.1 5.7-9.8 7.8-1.2 8.7 12 9.3 17.3 3.8 33.8 2.1 69.1 8.3 102.7 2.2 11.9 3.2 13.8 12.3 21.7 14.8 13 33.2 22.8 47.5 36.5 2.6 2.5 11.8 12.2 12 15.1l-66.1 156.3-46.9-24.9c-1.8 6.1-5.4 12.6-6.7 18.8-4.1 19.2 0 41.1-2.2 59.8-.4 3.4-10.5 17.5-13.3 18.7-6.4 3-16.2-1.8-24.7 3.3-23.8 14.4-17.9 48.6-27.2 68.8-7.8 17-37 48.2-52.9 58.1-1.6 1-2.9 1.9-4.9 1.6 1.1-14.8 3.1-34.9-3.9-48.6-.4-.8-.4-3.2-2.1-1.4-.7.7-3.6 13.8-6.6 17.9-5.8 7.9-20.7 8.9-29.4 12.6-16.7 7-14.3 32.7-27.7 43.3-19.3 15.2-61.2 32-85.1 38.9-10.8 3.1-38.9 11.3-48.7 11.3-15 0-63.4-15.1-78.8-21.2-11.1-4.4-55.3-26-60.6-34.4-6.9-11.1-8.5-31.6-21.5-37.6-14.5-6.6-26.4-2.4-33.9-20.1-1.1-2.5-2.5-10.3-2.8-10.7-1.3-1.6-1.8.4-2.2 1.3-6.9 12.5-5 34.9-3.8 48.7-2 .3-3.3-.6-4.9-1.6-15.7-9.8-48.9-44.4-54.2-61.8-6.2-20.6-5.3-52.1-25.9-65.1-8.2-5.2-18.3-.3-24.7-3.3-.9-.4-12.2-14.2-12.7-15.3-2.1-5.2-.2-29.6-.5-37.4-.4-9.1-2-18.5-3-27.5-4 1.6-7.6 4.7-11.9 5.6-2.8.6-5.6.7-8.5.3-4.7-.6-27.4-9.9-32.6-12.4-1.3-.7-2.7-1.2-3.5-2.5-2-33.7-22.2-63.7-44-88-2-4.4 2.1-14.5 3.7-19.2 6.2-17.8 15.6-36.4 25.7-52.3 3.2-5.1 14.2-22 17.9-25.1 5.5-4.4 9.8 3.3 14.6 6.6 1.6 1.1 12.7 7.8 13.5 7-2.9-7.2-9.4-11-13.8-17.7-4-6-15.9-26.4-15.8-32.6s5.4-17.7 6.5-25.3c.5-3 1.1-8.8 1.2-11.8.2-6.5-3-17.5 1.3-22.2 1.2-1.4 12.8-6.5 14.1-6.2.9.2 5 11.2 10.5 7.8 2.3-1.4 1-34.7 0-39.9.3-.3 7.6 1.8 8 2 1.8 1.1 7 8.1 9.8 9.7.5 8.4 3.4 20.7 1.1 28.7-2.8 10.1-17.5 14.8-21.2 22.8-1.2 2.6-6.4 25.9-6.7 29.3 0 1.2-.2 2.4.2 3.7 4.8 10.3 13.7 19.4 18.7 29.3s9 33.8 15.5 40c5.3 5.1 14.5 7.1 21 10.5 7.5 4.1 15.7 10.7 22.7 15.8-11.3-1.3-47.2-5.2-54.5-13-3.3-3.6-5.7-15.7-9.6-17.4-2.6-1.2-6.2-.2-9.2-.8-7-1.2-10.7-7.9-18.5-1.5-6.6 12.5-14.3 24.3-20.4 37.1-7.4 15.4-14.8 25.1-4.8 41.2 5.3 8.6 23.3 26.7 25.6 34.4 2.5 8.6-2.7 28 2.9 34.1 6 6.6 20.6 4.5 27.8.8 10.6-5.4 8.7-9.9 14.3-18.7 5.2-8.2 19.7-23.1 28.9-26.2s13.4 8.6 15.6 15.5c7.3 23.8-.2 34 22.5 51.5 11.6 8.9 33.3 20.1 47.8 17.9 8.5-1.2 21.1-6.6 27.2-12.8 7.2-7.5 8.8-24.6 24-14 15.8 11 30.3 30.1 46.6 41.4 20.5 14.3 77.5 32.5 102.5 34.6 37 3 105.5-17.1 134.5-40.5 11.5-9.3 21.6-20.6 33-30 4-3.3 11.6-11.3 17-8 .7.5 7.5 12.5 9.2 14.8 3.3 4.7 11.5 16.1 17.4 16.7 7.4.8 31.3-15.5 40.2-17.2 8.1-21.2 17.3-42.1 23.5-64 2.8-9.9 8.4-24.8 3.8-34.3-2.1-4.2-21.3-33.6-24-36-3-2.7-9.6-5-13.5-6.5-3.3-1.2-19.8-5.2-20.5-6-1.5-1.4.4-1.7 1.3-2.2 1.3-.7 11.6-5.7 12.3-5.8 2.6-.4 25.4 6.8 27.4 8.5s8.6 15.3 11 19c5 7.6 19.5 25.4 20.8 33.2.4 2.5.5 4.9-.2 7.3l-26.5 74.9c22.1-8.1 42.1-21.6 63.6-30.8 4.1-1.8 12.4-6.1 16.3-4.6 4.7 1.7 16.6 11.3 22.4 14.6 2.4 1.4 18.7 10.5 19.7 9.8l48.1-125.5c-.2-2.1-12.6-9.7-15.4-11.7-13.3-9.9-23-17.3-37.4-25.6-7.1-4.1-7.5-7.8-8.3-15.7-2.2-22.8-2.4-46.1-4-69-1.5-20.8-6.3-45.1-5-65.5h-.7Zm-649 280c-5.9.4-11.3 6.2-14.4 11.1-12.8 20.4-.6 26.3 1.3 45.5 1.3 13.2-3.2 33.5 4.7 44.3 5.3 7.3 21.6 10.7 30.1 14.9 3.6 1.8 23 13.2 24.8 15.2.4.4 3.3 5.3 3.3 5.6 0 .8-3.5 12.2-3.8 15.8-1.9 24 4.5 52.9 21 71l5 4.5c.9-4.6-1.1-9.2-1.1-13.5 0-12.5 8.2-24.3 10.1-36.5 23.5 5.4 36.4 28.6 51.4 45 11.3 12.4 23.8 14.5 34.1 23.9 6.5 5.9 11.9 15.9 17.5 22.5 14.6 17.4 20.2 23.3 41.3 32.7 29 13 50.6 21 83.2 18.9 16.8-1.1 61.8-19.2 76.4-28.6 16-10.4 26.2-34.2 40.1-45.9 10.6-9 21.7-10.9 32.5-22.5 15.6-16.6 28.5-40.5 52.5-46 .8 9.9 6.9 18.2 8.7 27.8 1.5 7.6.3 13.6.3 21.2 7.8-5.3 15.2-16.8 18.8-25.6 5.4-12.9 8.1-33.2 7.2-46.9-.2-3.4-3.8-17.5-3.5-18.4.6-1.7 3.6-5.7 5.2-6.9 4.5-3.4 17.3-10.6 22.7-13.3 11.7-5.9 31.5-8 33.6-23.4s-.7-31.7 3.8-48.2c1-3.6 5.3-8-1.4-5.4-30.7 11.8-63.4 35.5-93.6 46.4-10.1 3.6-23.8 2.7-32.8 7.2-6.8 3.5-11.5 12.3-16.4 17.6-16.2 17.4-41.8 25.6-65 28-69.4 7-135.6 6.9-205 0-21.7-2.1-46-9.9-62.5-24.5-5.9-5.2-10.7-15.4-19.3-15.2-3.9 0-8.2 3.3-11.2 3.7-5.5.6-22.8-12.9-28.7-16.2-15-8.4-31.4-14.8-46-24-2.8-1.8-16.7-11.4-17.8-13.2-2.8-4.9.2-12 0-17.1 0-10.4-4.3-21.6-7.1-31.5" class="outline" data-original-prefix="outline"/><path id="outline-jaw1" fill="#000000" d="M1253.7 1342.2c12.9-2.4 29.1 10.8 24 24-3.6 9.3-14.2 17-24.2 12.8-15.8-6.5-17-33.6.3-36.8zm12 9.1c-9.3-7.8-20.1 5.1-12.2 15.7s21.4-8 12.2-15.7" class="outline" data-name="outline-jaw" data-original-prefix="outline"/><path id="outline-jaw2" fill="#000000" d="M1313.7 1382.2c20.2-4.4 22.1 39.9-4.2 35.7-17.9-2.8-9.8-32.7 4.2-35.7m.9 9c-3.6.7-12.7 16.2-2.9 17.7 9.1 1.4 10.8-19.2 2.9-17.7" class="outline" data-name="outline-jaw" data-original-prefix="outline"/>
    </g><g class="trait-group" data-category="mouth" id="mouth-jaws">
      <path id="fill-mouth-main" fill="#ffffff" d="M1102 1287c.4.6-2.2 4.3 0 5.5 50.4 27.6 100.7 55.4 145.8 91.1-5.2 15.8-10.4 31.6-16.7 47.1-5.9 14.4-8.3 22.4-12.7 37.3-13 44.8-25.3 89.9-38.3 134.7-3.4 15.6 7.3 31.3 8.8 45.8.5 5.4-1.6 24.6-3.1 29.9-2.4 8.9-12.3 10.5-19.9 15.1-23.1 14.2-44 33.8-68.7 45.3-38.6 17.9-94.7 18.9-134.6 4.9-30.8-10.8-53.7-33.5-80.8-50.2-5.6-3.4-16.3-6.9-18.8-12.2-2.2-4.7-4.6-27.2-4.1-32.9 1.2-14.4 12.1-30.2 8.8-45.8-13.8-47.4-26.5-95.2-40.5-142.5-3.7-12.4-5.6-17.8-10.5-29.5-6.4-15.4-11.4-31.2-16.7-47.1 45.2-35.6 95.4-63.7 145.8-91.1 2.2-1.2-.5-4.8 0-5.5.2-.2 3.4-1.1 4.7-1.9 25.5-15.1 52.3-31 83.7-27.1 24.4 3.1 42.7 15.5 62.9 27.1 1.2.7 4.5 1.7 4.7 1.9h.2Z" class="fill" data-original-prefix="fill"/><path id="fill-mouth-teeth13" fill="#ffffff" d="m1042 1510-1.9 71.5c-.9 11.5-1.7 23.4-2.1 34.9-.2 7.7 1.3 20.2 0 27-.5 2.5-12.9 11.6-14.3 11.4-1.2-.2-13.2-8.9-13.7-11.4-.2-44.5-3.3-88.9-4-133.5l17.6 16.9 18.3-16.9Z" class="fill" data-original-prefix="fill"/><path id="fill-mouth-teeth12" fill="#ffffff" d="m1000 1637-20-15.5c-1.8-.5-2.8-4.4-3-4.5-.8-.5-3 3.8-5 3-.4-20.5-.2-41.1-1-61.5s-2.9-41.1-2.5-61.4l11-14c3 4.2 18.8 16.6 19.2 20.6.4 3.5-.9 11.2-.8 15.9.8 20.4 1.8 41.5 2.1 61.9.2 18.5-.2 37 0 55.5" class="fill" data-original-prefix="fill"/><path id="fill-mouth-teeth11" fill="#ffffff" d="M1076 1620c-2 .8-4.2-3.5-5-3-.2.2-1.2 4.1-3 4.5l-20 15.5c.2-18.5-.3-37 0-55.5.2-20.4 1.3-41.5 2.1-61.9.2-4.7-1.2-12.4-.8-15.9.4-4 16.2-16.4 19.2-20.6 2.1 3.9 9.5 10.8 11 14 1.8 3.8-1.3 28.2-1.5 34.4-.3 9-.7 18.1-1 27-.7 20.5-.6 41.1-1 61.5" class="fill" data-original-prefix="fill"/><path id="fill-mouth-teeth10" fill="#ffffff" d="M1114 1651c-3.8-.4-4.7-3.2-5-6.4-1.4-14.4 1.7-35 2.1-50 .6-21.9 0-43.7 2-65.5 3.3.2 4.2 1.9 7.1-.4 6.2-5.1 13.2-22.1 19.9-28.8s2.8-2 3-1.8l-9.1 120.4-20 32.6Z" class="fill" data-original-prefix="fill"/><path id="fill-mouth-teeth9" fill="#ffffff" d="M907.7 1499.3c7 6.2 13.8 23.9 20.3 29.2 2.9 2.4 3.8.6 7.1.4 1.5 10.5.6 21 1 31.5.7 20.9 1.5 42 2 63 .2 5.8 4.1 25-2.5 27.4-1.7.6-6.8-10-8.5-11.4l-12.9-21.1c-3.3-40.1-5.6-80.4-9-120.4 0 0 2.2 1 2.7 1.3h-.2Z" class="fill" data-original-prefix="fill"/><path id="fill-mouth-teeth8" fill="#ffffff" d="M903 1601c-7.1-6.3-5.5-23.9-18-13l-17-142c10.4 12.2 19 26.1 28 39.5 1.9 38.5 3.8 77.1 7 115.5" class="fill" data-original-prefix="fill"/><path id="fill-mouth-teeth7" fill="#ffffff" d="M1163 1588c-12.5-10.9-10.9 6.7-18 13l4-51.5 3.1-63.9c8.9-13.4 17.5-27.3 27.9-39.5l-17 142Z" class="fill" data-original-prefix="fill"/><path id="fill-mouth-teeth6" fill="#ffffff" d="M963 1507c-.7 40.2 2 80.1 2 120.3-1.9 1.4-17.9 15-19 13.7.9-38.3-2.3-76.2-2-114.5l15.4-18.6z" class="fill" data-original-prefix="fill"/><path id="fill-mouth-teeth5" fill="#ffffff" d="M1102 1641c-1.1 1.3-17.1-12.3-19-13.7.4-22.3.5-44.6 1-66.8 0-2.4 1-4.6 1.1-6.9.3-15.5-.3-31.1 0-46.5l3.6.9 15.4 18.6c.3 38.2-2.9 76.2-2 114.5Z" class="fill" data-original-prefix="fill"/><path id="fill-mouth-teeth4" fill="#ffffff" d="M875 1581c-1.5.2-1.3-1.7-1.7-2.8-3-8.8-6.1-18.6-8.6-27.4-10.7-37.7-11.6-78.6-17.8-117.3 0-3.9 3-6.9 5.6-9.5 3.4 3.5 5.8 6.6 6.4 11.6 1.2 10.1 1 21.5 2.1 31.9 3.8 35.2 11.2 72.2 14 107 .2 2.2 0 4.3 0 6.5" class="fill" data-original-prefix="fill"/><path id="fill-mouth-teeth3" fill="#ffffff" d="M1172 1580c6.3-40.6 11.8-81.6 16-122.5 1.2-11.5-1.6-25.4 7.5-33.5 2.6 2.6 5.7 5.5 5.6 9.5-7.6 47.5-8 99-26.1 144-.6 1.6-.8 2.9-3 2.5" class="fill" data-original-prefix="fill"/><path id="fill-mouth-teeth2" fill="#ffffff" d="m843 1439 4 53-5.7-15.8c-1-7.8-7.5-23.8-4.4-30.8.5-1.1 2.9-4.1 3.8-5.2.6-.7 0-1.9 2.3-1.3Z" class="fill" data-original-prefix="fill"/><path id="fill-mouth-teeth1" fill="#ffffff" d="M1207 1439c.3.3 4.7 7.3 4.8 7.7 1.3 4.9-3.4 23.5-5 29.5l-5.7 15.8 4-52.5c0-.9 1.9-.6 2-.5z" class="fill" data-original-prefix="fill"/><path id="shading-mouth4" fill="#aaaaaa" d="m900 1319-56.5 57-14 16c-1.9 4.1 3.2 15.8 2.5 21 4.2-1.8 14.7-13.4 18.4-13.1 4 .3 8.8 14.9 10.3 18.8 2.5 6.3 4.5 12.8 6.8 19.2 18.7 24.5 38.6 48.2 57.4 72.6 3.8 5 3.2 9.2 10.1 7 3.2-1 13.7-10.2 17-13 10.5-9 19.8-20 30.5-28.6l41.1 41 41.9-41c13.1 10.8 24.4 24.6 38 35 3.2 2.5 10.4 9 14.5 6.5l61.8-79.2c3.6-6.3 11.7-36.7 16.9-38.2 4.6-1.3 17.3 14.1 19.3 11.9-.8-5.2 4.4-15.8 2.5-20-20.7-25.2-46.1-46.1-68-70-.7-.7-2.7-2-2-3 34.5 16.7 65.1 39.8 96 62 2.5 5.1-7.2 33.5-9.8 40.2-2.7 7.3-6.2 13.8-9.2 20.8-3.2 7.3-3.5 21.2-14.5 14l-8.5 50-2.5 1c-.2-19.8 1.9-39.7 4-59.4-2-4.9-6.9-13.6-8.8-3.8-4 21.5-4.5 48.2-7.4 70.6-3.6 28-8.2 56-12 84-2 14.9-3.3 16.2 1.9 31.4 1.3 3.8 7.2 14.6 7.4 16.7s-6.3 26.7-7.6 29.5c-2.4 5.5-34.3 27-41.2 30.8-23.5 12.8-65.3 23.2-92 27-44.3 6.3-112.7-12.8-149.7-38-4.2-2.9-22.5-15.7-24.1-18.9-1.2-2.3-7.8-28.2-7.7-30.4 0-2.1 7-16.2 8.3-20.7 4-13.7 2.7-13.4.9-26.4-7.5-52.8-15.1-105.5-20.4-158.6-2.2-5.2-7.7 4.9-7.9 7.8 2.1 19.4 4 39 4.1 58.5h-3l-8-51c-11.6 7.2-11.3-6.6-14.5-14-5.7-13.3-11.5-25.2-15.5-39.5-1.5-5.2-6.1-18.6-2.5-22.6 31.2-21.3 60.9-45.2 95.5-60.9zm-34.5 137v1c.7-.3.7-.7 0-1m315.5 1c-3.8 9.4-17.3 19.9-21.1 28.4-3.4 7.8-1.6 20.7-3.9 29.1l-3 60c.6 3 10.1 7.9 13.4 8.4zm-286.2 118.8c-1.8-29.7-2.2-59.6-6.1-89.1-7.3-9.7-14.3-20.1-22.7-28.8l14 125c6 0 10-4.5 14.8-7.2ZM995 1627c-.8-15.5-.4-31.1-1-46.5-.7-20.6-1.2-43.5-3-63.9-.3-3.6-.4-13.4-4.5-13.5-2.5 0-20 10.7-20.5 13.5 2.4 20.6 1.2 41.4 1.9 62 .2 6.2.6 13.8 1.1 19.9s3 12.8 2 19.5l5.4-5c1.5 2.2 17 15.7 18.6 14m82-10c-.8-6.9 1.6-13.7 2.1-20.4 1.1-17.4.3-35.7.9-53.1.3-8.7 2-18.1 2-26.9s-1-2.1-2-3c-2.2-1.8-17.3-10.9-19.3-10.4-2.9.7-3.4 7.6-3.7 10.4-3.3 35.8-2.8 74-4 110 0 1.4 0 2.9-1 4 5.2.7 17.8-14.1 19.5-14.5 2.3-.5 2.5 4.7 5.4 4Zm-146 17c-1.9-32.1-.2-64.4-2-96.5l-26-32.5c2.8 32.1 2.9 64.2 5 96.4 6.9 11.3 14.5 22.3 23 32.5Zm187 0 22-32.5c1.9-32.2 2-64.3 5-96.4l-26 32.5c-2 25.3-.4 50.7-1 76-.2 5.9-1.4 11.5-1 18 0 1.1-.7 2.8 1 2.5Zm-175 2c.8.8 16.4-9.7 17.5-11 .7-.8 1.5-1.4 1.4-2.6-.7-33.9-2.5-67.6-4-101.5-3.4 2.4-16.3 10.2-17 13.5-.2 33.9 0 67.8 2 101.5Zm101-115c-4.9 2.7-10.4 10.7-15.7 11.8-11.9 2.5-16.1-5.4-24.3-11.8 1.3 37.5 2.3 74.9 2 112.5.8 4 14.2 9.4 17.7 12.4 3.7-2.5 17.6-8.6 18.3-12.4-.2-37.6.2-75.1 2-112.5m61 115c1.6-33.8 2.3-67.6 2-101.5-.7-3.7-13.7-10.5-17-13.5-1.8 33.8-3.7 67.5-4 101.5.2 2.9 18.2 14.4 19 13.5m-167.3 18.7c-1 .9-2.6 1.5-4 1.2-3.8-1-23-30.3-27.3-35.8L895 1607c-.4 4.4-1.3 8.8-2.5 13-1.6 5.4-8.4 19.9-8.6 23.5 0 2.9 4.5 19.8 5.8 23.3.7 1.9 1 3.9 2.9 5.1 29 14.8 52.4 35.8 84.2 44.8 31.1 8.9 64.2 8.8 95.2-.2 31.6-9.2 55.5-30.5 84.3-45.4.8-.4.9-1.2 1.2-2 1.2-3 6.7-24.2 6.5-26.5-.3-3.3-5.8-13.4-7.3-17.8-1.8-5.8-3.1-11.8-4.2-17.8-2.2 3.1-5.1 5.6-7.5 8.5-8.8 10.8-17.2 26.4-26.1 35.9-1.6 1.8-3.2 3.6-5.6 4.3l-43.7-28.7c-4.3 3.6-8.6 8.8-13.3 11.7-8.2 5.1-15 6.1-23.4 13.6-2.3 2.1-3 5.8-6.5 6.5-8.1 1.6-7.3-2.8-11.5-6.4-7.2-6.1-10.9-7.5-18.9-11.1-6.3-2.8-12.3-10-17.6-14.4-12.8 7.9-26.2 15.6-38.3 24.5-1.3.9-1.6 2.5-2.3 3.1v.2Z" class="outline shading" data-original-prefix="shading" opacity="0.5" style="opacity: 0.5"/><path id="shading-mouth3" fill="#aaaaaa" d="M1118 1345c-1.5 1.5-1.8-.6-2.3-1.3-1.8-2.3-6.1-7.1-7.1-8.8-1.8-3.2-.9-7.3-2.6-9.4-2-2.4-11.1-9.6-14.1-11.9-17.8-13.8-38.6-25.3-56-40-3.6-5.4 6-7.7 4.1-13.6.4-.4 8.3 1.9 9 2.5 1.9 1.6 0 5.2 2 7l68.4 49.6c2.9 2.8-.3 24.8-1.4 25.9" class="outline shading" data-original-prefix="shading" opacity="0.5" style="opacity: 0.5"/><path id="shading-mouth2" fill="#aaaaaa" d="M1008 1260c-2.1 5.5 7.8 8.5 4.1 13.6l-61.1 43.9c-10.3 7.3-11.1 16.5-18.7 26.2-.5.7-.7 2.7-2.3 1.3-1.1-1-5.1-24.3-1-26.5l68-49c2-1.9 0-5.2 2-7 1-.9 8.7-2.9 9-2.5" class="outline shading" data-original-prefix="shading" opacity="0.5" style="opacity: 0.5"/><path id="shading-mouth1" fill="#aaaaaa" d="M1011 1355c1.1 4.6-4.9 8.9-3.6 13 1.1 3.3 13.8 10.8 16.2 14.9 1.2.2 16.5-14.1 17-15.9 1-3.6-5.2-7.6-3.6-12 6.9-2.5 17.3 6.5 15.8 13.3-.8 3.8-7.8 10.3-10.8 13.2-6 5.9-6.9 4.1-10.8 12.2-1.9 3.9-5.9 3.9-9.8 3.3-5.8-.8-4.3-4.3-6.4-7.6-4.4-6.7-23.9-15.6-19.3-26.2 2.2-4.9 9.7-10.1 15.2-8.2Z" class="outline shading" data-original-prefix="shading" opacity="0.5" style="opacity: 0.5"/><path id="outline-mouth" fill="#000000" d="M1006 1260c.4-2.1 4.7-6.2 6.5-7 2.2-1 1.8 3.9 2.5 5l-.5 19c-9.8 6.8-19.7 13.6-29 21-10.5 8.4-26.4 21.1-35.5 30.4-3.6 3.7-.7 4.6 2.7 7.3 14.2 11.7 34.2 18.3 52.3 20.2 1.2 1.2-6.6 10.7-4.8 13.8l23.5 23.1c1.5.3 18.4-18.6 21.4-21.5.8-.8 2.6-1.3 2.8-1.6 1.8-3.1-6-12.7-4.8-13.8 18.1-1.9 38.1-8.5 52.3-20.2 3.3-2.8 6.3-3.7 2.7-7.3-9.1-9.4-25-22-35.6-30.4-9.3-7.4-19.2-14.2-29-21-1.1-1.8-.6-15.7-.5-19 0-1.1-.9-6 1.5-5 2.1.9 6.1 6.1 7.5 7-1.8 1-1 3.4-.5 5 3.8 10.3 55.3 44.8 67.4 54.6 1.8 1.5 8 6 8.6 7.4 2.3 5.4-.6 18.1-.5 24.5 0 4.3 3.4 17.4 1.1 20-1 1.1-12.4 6.6-15.3 8.7-15.1 10.7-26.8 28.3-34.7 44.8-1.5.4-1.7-.4-2.5-1-5.2-3.6-23.3-26.5-26.1-26.9-5.3 3.9-11.8 6.3-12.4 13.4-1.2 13 1 27.8 0 41.1l3.1 42.5 34.4-35.1 2.9-.9c13.6 15 26.1 31.3 40.1 46 1.3 1.4 9.3 10.1 10.5 9 3.5-11.2 11.6-21.6 18.2-31.3 19-27.8 40.6-53.8 59.3-81.7.8-.7.7-1.5 1.5-.4 7.1 9.4 13.4 20.9 20.5 30.4l17.6-43.4-157.1-108.6 2-3c36.8 19.5 75.4 39.4 110.9 61.6 21.2 13.3 40.5 29.5 61.9 42.6.6 1.1.2 2.9 0 4.2-.7 7.6-9.9 31.6-13.2 39.9s-7.1 16.1-11 24l-44.5 161.6c.4 12.4 9.3 27.7 9.8 39.7.3 6.8-1.7 25-3.2 31.9-.4 2.2-1.7 6.3-3 8-1.2 1.6-15.8 8.4-19.4 10.6-24.6 15-45.2 35.2-72.5 46.5-40.8 16.9-104 16.8-144.7-.3-27-11.3-47.4-31.4-71.8-46.2-3.6-2.2-18.2-9.1-19.4-10.6-1.3-1.7-2.6-5.8-3-8-1.4-6.9-3.5-25.1-3.2-31.9.6-12.2 9-27.1 9.8-39.7-13.1-46.2-25.7-92.7-39.3-138.8-2.2-7.3-3.2-16.5-5.7-23.3s-7.5-14.1-10.5-21.5c-5.5-13.7-9.1-28.1-14.2-41.9-.3-1.7 0-3.3 1.4-4.4 24.1-15.7 46.6-33.8 71.2-48.8 32.3-19.7 66.7-38.2 100.3-55.2l3 3-157.1 108.6 17.6 43.4c7.1-9.6 13.4-21 20.5-30.4.8-1.1.7-.3 1.5.4 18.8 27.9 40.3 53.9 59.3 81.7 6.6 9.7 14.7 20.2 18.2 31.3 1.2 1.1 9.2-7.6 10.5-9 14-14.6 26.5-30.9 40.1-46l2.9.9 34.4 35.1 3-42.5c-1-13.2 1.2-28.1 0-41.1-.7-7.1-7.1-9.5-12.4-13.4-2.8.5-21 23.4-26.1 26.9-.8.6-1 1.4-2.5 1-7.8-16.5-19.6-34.1-34.7-44.8-3-2.1-14.3-7.5-15.3-8.7-2.3-2.6 1-15.7 1.1-20 0-6.4-2.8-19.1-.5-24.5.6-1.5 6.8-5.9 8.6-7.4 11-9 62.9-44.3 66.1-52.9 1.1-2.8.4-4.5.8-6.7zm-131 321c0-2.1.2-4.3 0-6.5-2.8-34.8-10.2-71.8-14-107-1.1-10.4-.9-21.8-2.1-31.9-.6-5-3-8.1-6.4-11.6-2.6 2.6-5.7 5.5-5.6 9.5 6.2 38.7 7.2 79.6 17.8 117.3 2.5 8.9 5.6 18.7 8.6 27.4.4 1.1.2 3 1.7 2.8m297-1c2.2.4 2.4-1 3-2.5 18.1-45 18.6-96.5 26.1-144 0-3.9-3-6.9-5.6-9.5-9.1 8.1-6.3 22-7.5 33.5-4.2 40.9-9.7 81.9-16 122.5m-329-141c-2.3-.6-1.7.6-2.3 1.3-.9 1.1-3.3 4.1-3.8 5.2-3.1 7 3.3 23 4.4 30.8l5.7 15.8-4-53Zm364 0s-2.1-.4-2 .5l-4 52.5 5.7-15.8c1.6-5.9 6.4-24.5 5-29.5 0-.4-4.4-7.4-4.8-7.7zm-304 162c-3.2-38.4-5.1-76.9-7-115.5-8.9-13.4-17.5-27.3-28-39.5l17 142c12.5-10.9 10.9 6.7 18 13m260-13 17-142c-10.4 12.2-19 26.1-27.9 39.5l-3.1 63.9-4 51.5c7.1-6.3 5.5-23.9 18-13Zm-163 49c-.2-18.5.3-37 0-55.5-.2-20.4-1.3-41.5-2.1-61.9-.2-4.7 1.2-12.4.8-15.9-.5-4-16.2-16.4-19.2-20.6l-11 14c-.3 20.3 1.8 41.1 2.5 61.4s.6 41.1 1 61.5c2 .8 4.2-3.5 5-3 .2.2 1.2 4.1 3 4.5zm76-17c.4-20.5.2-41.1 1-61.5.3-8.9.7-18 1-27 .2-6.2 3.3-30.6 1.5-34.4-1.5-3.2-8.9-10.1-11-14-3 4.2-18.8 16.6-19.2 20.6-.4 3.5.9 11.2.8 15.9-.8 20.4-1.8 41.5-2.1 61.9-.2 18.5.2 37 0 55.5l20-15.5c1.8-.5 2.8-4.4 3-4.5.8-.5 3 3.8 5 3m-168.3-120.7c-.4-.4-2.6-1.5-2.7-1.3 3.4 40.1 5.8 80.3 9 120.4l12.9 21.1c1.7 1.4 6.8 12.1 8.5 11.4 6.6-2.4 2.7-21.7 2.5-27.4-.5-21-1.3-42.1-2-63-.4-10.5.5-21.1-1-31.5-3.3.2-4.2 1.9-7.1-.4-6.5-5.3-13.2-23-20.3-29.2h.2ZM1114 1651l20-32.6 9.1-120.4c-.2-.3-2.5 1.3-3 1.8-6.8 6.7-13.7 23.7-19.9 28.8-2.9 2.4-3.8.6-7.1.4-1.9 21.8-1.3 43.7-2 65.5-.4 15-3.5 35.6-2.1 50 .3 3.2 1.2 6 5 6.4Zm-151-144-3.6.9-15.4 18.6c-.3 38.2 2.9 76.2 2 114.5 1.1 1.3 17.1-12.3 19-13.7 0-40.2-2.7-80.1-2-120.3m139 134c-.9-38.3 2.3-76.2 2-114.5l-15.4-18.6-3.6-.9c-.3 15.5.4 31 0 46.5 0 2.4-1 4.6-1.1 6.9-.5 22.3-.6 44.6-1 66.8 1.9 1.4 17.9 15 19 13.7Zm-60-131-18.3 16.9-17.6-16.9c.7 44.6 3.8 88.9 4 133.5.4 2.5 12.5 11.2 13.7 11.4 1.4.2 13.8-8.9 14.3-11.4 1.3-6.8-.3-19.3 0-27 .4-11.5 1.2-23.4 2.1-34.9l1.9-71.5h-.1Zm-112.9 165.9-39.6-64.9c-2.7 4.3-15.7 16.7-16.5 20.5-.5 2.3 0 6.3 0 8.8.5 6.2 3.4 24.2 5.1 29.9 2.2 7.3 14 10.2 20.1 13.9 44.8 27.9 79.7 46.3 135.2 43.8 47.1-2.2 77.9-20 116.2-43.8 6.1-3.8 17.8-6.6 20.1-13.9 1.7-5.7 4.6-23.7 5.1-29.9.2-2.5.6-6.5 0-8.8-.7-3.8-13.8-16.2-16.5-20.5l-40.1 65.1-48.9-32.8-45.1 37.7-45.8-37.7c-6.8 2.2-46.8 34.1-49.4 32.6Z" data-original-prefix="outline" class="outline"/>
    </g><g class="trait-group" data-category="eyes" id="eyes-aviators">
      <!-- Semantic Classes:
    - fill: Areas that can be colored by the user (default: white)
    - shading: Areas that provide depth/shading (default: gray, 50% opacity)
    - outline: Lines that define the shape (default: black)
  -->
  
  
  <path id="fill-eyes-main" d="M1421.5,1220.6c-.3.6-8.8,2-10.4,2.1-4.8.4-15.8-1.8-18,3-2.8,30-4.2,58.5-16.7,86.3-10.3,23-35.2,57.7-58.2,68.8-30,14.6-98,10-129.5-.9-21.7-7.5-62.4-49.9-79.2-67.8-14.7-15.6-36.7-38.2-49-55-2.3-3.1-2.7-8.1-3-8.5-1-1-6.2,1.2-7.9.5-.6-.3-9.2-8-10-9-4.5-5.8-2.4-10.3-12.6-9.6-6.6.5-5.5,5.8-9.5,10.5-.9,1-8.4,7.8-8.9,8-4,1.5-8.1-3.5-15.1,4-18.2,19.5-35.3,41.4-53.9,61.1-19.6,20.7-56.2,59.4-82.8,67.2-31.3,9.1-92.1,13.6-121.9.5-28.7-12.7-59.2-59.7-67.8-89.2-6.3-21.6-6.6-45.2-9.7-67.3-2-3.1-15.1-2.3-19.2-2.8-1.7-.2-7.5-1.2-8.4-2.1-2.5-2.5-2.8-27.2-4.3-32.3-.2-1.4.3-1.4,1.3-1.8,5.7-2.5,20.8-1.6,25.3-5.7,6-11.4,9.3-26.8,19.4-35.6,2.6-2.2,6.7-2.1,4.6-5.5-2.7-4.3-20,0-21.5-7.5-1.3-6.8,5.7-32,8-39.9,7.8-26.3,27.3-70.8,46.9-90.1,6.5-6.4,7.6-3.2,14.5-4.5,3.3-.6,5.3-6.7,7.5-9.5,40.7-50.5,92.3-93.3,151.6-120.4,80.5-36.8,209.6-37,290-.3,59.2,27,110.4,69.5,151.3,119.7,2.3,2.8,5.7,9.9,8.6,10.5,7.2,1.4,8.7-2.3,15.5,4.5,24.3,24,47.4,83.1,53.5,116.5.6,3.2,2,10.7,1.4,13.5-1.6,8.2-20.9,1.9-22.8,8.2-1.9,6.2,5.4,12.9,8.3,18.3,2.4,4.4,8.1,20.4,9.9,22.1,4.7,4.2,23.9,4.2,25.1,5.9,1.8,11.6-1.8,22.9-2.4,34.1" class="fill" fill="#ffffff"/>
  <path id="fill-eyes-rims" d="M1415.7,1206.8c-.2-3-.4-6.1-.6-9.1-.3-5.7-4.5-10.5-10.5-10.5h-6.3c-1.2,0-2.4.2-3.4.5-.9-.3-1.9-.6-2.9-.8-2.3-.3-4.7-.3-7.1,0,2-23.3-16.1-42.7-36.1-51.8-11-5-22.6-8-34.3-11.1-12.5-3.2-24.9-6.7-37.4-9.7-8.8-2.2-17.6-3.5-26.5-4.3,2.5-6.2-.6-14.9-9.3-14.9-85.4,0-170.8.3-256.2.4h-68.7c-1-.3-2.2-.5-3.5-.5h-104.7c-9.6,0-12.4,10.7-8.3,16.8-10.3,1.4-20.6,3.2-30.8,5.2-24.8,4.8-50.1,10.3-72.3,22.8-11.9,6.7-23.7,15.6-30.8,27.5-2.9,4.9-4.7,10.2-5.6,15.7-1.1-.2-2.3-.4-3.6-.3-3.6.2-6.7,2.1-8.5,4.8-1.5-.2-2.9,0-4.3.2-2.5-1.2-5.4-1.6-7.8-1-6,1.7-8.2,7.3-7.3,12.9.7,4.2,1.3,8.4,1.9,12.7.7,4.6,5.9,7.6,10.1,7.7h3.6c3.3,1.9,5.7,5,7.4,8.5,1.3,2.7,3.9,4.3,6.7,4.9,4.4,36.9,9.5,75.8,31.7,106.7,21.4,29.8,54.4,44.8,90.2,48.7,18.6,2,37.9,1.2,56-3.7,16.9-4.5,32.8-12.5,47.3-22.2,14.8-9.9,28.4-21.5,41.3-33.7s25.6-24.8,36.6-38.7c12.9-16.2,23.6-34,29.3-54,5-17.3,6.2-35.5,4.1-53.3,14.6-1.9,29.3-3.3,44-2.5,4,.2,8,.6,12,1.3.3,0,1.7.3,3.2.7l-1.4,29.7c-.2,3.2.9,5.6,2.6,7.2,2.2,11.9,4.2,24.9,10,35.4,3.2,5.7,7.2,11.1,10.9,16.5,2.2,3.3,4.4,7,6.9,10.4,0,1.6.5,3.2,1.5,4.6,10.8,14.4,24.5,25.8,37.8,37.7,13.4,12,26.5,24.7,41.2,35.2,27,19.4,60.3,29.7,93.5,29.9,2.9,0,5.2-.9,6.9-2.5,15.4-1.6,31-3.4,45.7-8.6,16.6-5.8,29.9-15.5,40.5-29.5,21.2-28,34.4-62.2,39-96.9,1.3-10,2-20,1.8-30.1,0-2.2,0-4.4-.2-6.6.2.2.5.3.8.5,5.8,3.5,13.2,3.4,18.9,0,2.8-1.8,5.2-5.4,5-9v.2h0ZM951.2,1270c-9.4,13.1-20.7,24.8-32.2,36.1-11.2,11-22.7,21.8-35.2,31.3-12.2,9.3-25.6,17.9-39.9,23.4-15.8,6.1-32,8.6-48.8,8.2-29.5-.6-60.2-9.5-80.7-31.8-26-28.3-30.8-69.3-35.2-105.8-.2-1.9-.8-3.7-1.7-5.3.2-1.5.2-3,0-4.5-.5-3.1-1.1-6.2-1.6-9.3,6-9.2,2.6-20,6.1-29.9,3.1-8.9,11.3-15.5,18.9-20.5,19.3-12.7,42.2-18.1,64.5-22.8,48.7-10.1,100.1-15.6,149.1-4,20.8,4.9,43.5,13.1,54.7,32.6,1,1.8,2.4,3.1,3.8,3.9-.5,1.9-.6,3.9-.2,5.6,6.7,33.2-2.3,65.8-21.6,92.8M1062,1160.3c-.3,1-.5,1.9-.5,2.8-4.3-1.2-9.1-1.7-13.3-2.2-19.8-2.5-39.7-.2-59.4,2.5.2-1.9-.2-3.9-1.4-6-11.7-20.4-32.8-32.1-54.6-38.9l-6-1.8c66.8,0,133.6-.2,200.3-.3-1.7.4-3.3.8-5,1.3-12.5,3.6-24.6,9.6-35.9,16-10.9,6.1-20.3,14.3-24.2,26.6M1370,1227.4c0,9.5-.8,19.1-2.4,28.5-3.2,18.9-9.2,37.2-18,54.2-8.1,15.6-17.6,32.9-33,42.2-16.3,9.9-36.1,12-54.7,13.9-2.3.2-4.4,1-6.2,2.2-29.3-.5-57.7-9.9-81.5-27-1.4-1-2.8-2-4.1-3.1-1.1-3.4-3.9-6.2-8.2-6.7-8.4-7.2-16.4-14.9-24.6-22.2-10.4-9.3-21.8-18.2-30.9-28.9,0-2.9-.8-5.7-3-7.5-4.3-3.5-7-8.9-10.1-13.5-3.3-4.9-6.9-9.8-9.9-14.9-2.6-4.6-3.4-10-4.6-15.1-1.5-6.5-2.9-13.1-4.2-19.6-.2-.7-.4-1.4-.7-2.1.7-10,1.8-20.3,1.3-30.2,0-1.8-.4-3.4-.9-4.8,3.4-.6,6.5-2.9,7.9-7.1,2.3-7.2,9.6-11.4,15.8-14.8,8.9-4.9,18.1-9.6,27.8-12.6,21.1-6.6,44.6-6.7,66.4-7.6,11.4-.5,22.7-.7,34.1-.8,11.3,0,22.7,0,33.9,2,11.3,2.1,22.4,5.4,33.6,8.3,10.4,2.7,21,5.3,31.3,8.3,17.9,5.3,40.8,16.5,38.6,38.8-.4,4.1,2.5,7.7,6.1,9.4l-.6,1.5c-1.5,4.5,0,9.9.3,14.6.5,5,.6,9.8.5,14.6" class="fill" fill="#ffffff"/>
  <path id="fill-eyes-lens1" d="M1179.4,1134.1c40.9-2.7,97.1,4.9,136.2,17.2,22.2,7,37.6,14.4,44.9,38.1,14.9,48.3-2.6,130.7-47,159.8-31.6,20.8-93.5,20.9-124.8-1-21.1-14.8-46.4-35.3-63.6-54.4-29.9-33.2-63.5-74-40-121,15.1-30.3,63.8-36.7,94.3-38.7" class="fill" fill="#ffffff"/>
  <path id="fill-eyes-lens2" d="M834.5,1134.1c35.7-1.8,110.2,1.6,129,37.4,25.1,47.6-10.3,90.4-40.8,123.8-16.7,18.3-57.6,53.5-80,62-40.4,15.3-96.8,9.2-126-25-28.6-33.3-50.7-133.3-14.9-165.9,21.7-19.9,102.6-30.8,132.7-32.3" class="fill" fill="#ffffff"/>
  <g id="eyes-shaded">
    <path id="shading-eyes16" d="M1263,1369l77.9-202.4-35.9-17.6-86.3,216.8c-7.7-3.2-18.2-4.6-25.4-8.6-1.1-.6-2.3-.9-2.1-2.5l83.8-214.1,3.1-1.1c-.8-.4-.7-1.8-1.3-2.2-2.8-2.2-33.1-5.4-39.2-6.2-13.5-1.9-25.5-2.1-39-6-1.4-.4-3.1,0-3.4-2,34.4-1.4,68.6,1.9,102.2,9.3,60.3,13.2,86.9,33.8,81.8,100.2-4.3,56.4-23.6,106.8-78.8,129.2-12.1,4.8-24.6,6.4-37.4,7.2" class="shading" fill="#aaaaaa" style="opacity: 0.5" opacity="0.5"/>
    <path id="shading-eyes15" d="M1068,1185c4.4,6.7-1.2,7.5-2,11.5-2.6,13.5,4.2,36.9,3.5,51.4,26.1,33.1,54.5,68.2,87.6,94.4,9.4,7.5,24.7,19.5,35,25,22,11.8,82.3,10.8,107.3,6.4,5.1-.9,19.6-6.7,22.7-3.4,3.6,3.9-1.3,5.4-4,7-23.1,13.8-56.4,9.4-82.5,7.5-12.8-.9-39-2.2-50.2-5.8-8-2.6-29.2-21.2-36.3-27.7-26.1-23.9-48.5-51.5-74-76-13.8-13.2-29.1-24.5-42.5-38.5-1.1-1.2-2-3.4-2.9-4.1-.8-.6-7.7-1-9-.9-2,.2-17,17.3-20.5,20.5-7.2,6.4-16.1,11.4-23,17.9-33.4,31.5-60.8,69.3-97.5,97.5-19.5,15-31,13.9-55,16-22.9,2-62,6.4-83-1-2.1-.7-15.4-7.1-16-8-2.2-3.6,1.6-6.1,4.9-6,3.6,0,7.3,2.8,10.6,3.5,28.8,6.1,75.6,6.2,104.3-.8,9.4-2.3,18.7-9.8,26.7-15.3,26.6-18.6,50-41.2,71.6-65.4,5.6-6.2,34.7-40.5,35.4-45.6,2.3-15,1.5-32.7,3.1-48,.5-3.2-3.9-4.3-4.1-7-.2-2.5,2.2-3.2,2.1-5.4-4.5.8-11-4.6-6.6-8.1,3.7-2.9,4.7,2.1,7.3,2.9,5.5,1.7,7-1.6,10.8-2.8,29.1-9.3,36-9.4,65.1,0,3.7,1.2,5.2,4.5,10.8,2.8,2.2-.7,3.1-4.4,6-3.7,5.7,1.9,0,10.6-5.7,9.2M1038,1185c-9.5-1.8-18.7-3-28,.5,5.4,1.1,7.7,5.6,9.3,10.7,1.5,4.7-1.1,8.7,6.2,7.9,2.9-.3,2.4-5.8,3.4-8.6.6-1.7,2.2-5.7,3.2-6.8,2-2.5,4.8-1.4,5.9-3.7M1053,1197c-.2,0,0,1.8-1,2.4-7.9,5.8-11.5,9.7-21.5,9.6-5.1,0-8.6-.2-13.9,0-11.1.4-14.8-6.6-23.5-12.1l-3,30c2,2,17.7-4.1,21.5-4.1,5.8,0,8.3,4.7,16.8,2.9,1.8-.4,3.2-1.9,4.7-2.3,7.2-2,17.2,4.9,25,3.5l-3-29.5c0-.8-2-.5-2.1-.4" class="shading" fill="#aaaaaa" style="opacity: 0.5" opacity="0.5"/>
    <path id="shading-eyes14" d="M1119,1095c10.8-7.5,22.7-13.9,34.3-20.2,23.5-12.8,49.4-20.6,66.1-41.9,11.6-14.8,20.3-27.2,12.4-46.3-12.8-31.1-52.4-80.9-79.9-100-14.9-10.4-32.6-16.6-45.9-29.1,9.3.7,20.3,4.3,29.5,7.5,66.1,22.7,136.7,74.8,177.9,131.1,2.8,3.8,12.4,14.4,8.3,18.7-3.2,3.3-25.6,8.5-31.7,10.8-38.2,14.4-82.4,31.5-116.9,53.1-3.8,2.4-21.2,16.4-22.6,16.4h-31.5Z" class="shading" fill="#aaaaaa" style="opacity: 0.5" opacity="0.5"/>
    <path id="shading-eyes13" d="M897.5,1095c-1.5-.4-19.2-14.3-23.2-16.8-34.2-21.3-79.2-38.9-117-53-5.4-2-30-7.6-31.8-11.2-1.9-3.9,2.8-9.6,5.1-12.9,27.2-39.7,72-78.2,113.1-102.9,30.2-18.2,63.6-34.2,98.3-41.2-12,12.1-28.8,18.2-42.9,27.6-25.1,16.6-49.7,46.7-66.1,71.9-4.3,6.6-20.6,33.7-20.8,40-.5,14.1,11,30.6,19.9,41,15.3,17.9,40.9,24.1,60.6,36.4l36.3,21.1c-8.1-1.5-24.5,2-31.5,0" class="shading" fill="#aaaaaa" style="opacity: 0.5" opacity="0.5"/>
    <path id="shading-eyes12" d="M875.3,1338.3c-4.1,3.7-6.6,10.1-9.4,13.1-1.1,1.2-9.2,6.5-7.7,1.3l79.9-204.7c2.3-1.9,13.8,7.4,16,9.4,16.1,14.9,20.1,37.7,17.9,58.9-3.8,35.8-44.3,79.1-70.9,102.1-8,7-18.5,13.3-25.8,19.9" class="shading" fill="#aaaaaa" style="opacity: 0.5" opacity="0.5"/>
    <path id="shading-eyes11" d="M778.5,1369c-.7-.2-1.6-1.6-1.5-2.5l91.7-234.6c9.8,2.2,20.1,2.1,29.9,4.1,1.2.2,1.8-.8,1.5,1.5l-91.6,231.5c-5.9,0-26.2,1.2-30,0" class="shading" fill="#aaaaaa" style="opacity: 0.5" opacity="0.5"/>
    <path id="shading-eyes10" d="M1173,1133l-63.5,147c-.8,0-9.2-10.7-10.5-12.5-6.1-8.5-13.4-18.9-17-29-7.5-20.7-9.4-43.8,0-64.2,15.6-34.6,58.3-36.5,91.1-41.3h0Z" class="shading" fill="#aaaaaa" style="opacity: 0.5" opacity="0.5"/>
    <path id="shading-eyes9" d="M1254.8,1109.8c-.2.4-7.5,3.9-8.3,4.2-7,2.4-26.3.2-35,0-34.8-1-70.2-1.7-105-2-20.2-.2-40.1,1-60,1-70.4,0-140.6-1.1-211.1,1-8.6.3-27,2.4-34,0-.8-.3-8-3.8-8.3-4.2-.7-1.2-.4-6.1.8-7.4,3.3-3.4,9.3.3,13.5.6,27.4,1.9,59.2,1.5,87,2,89.1,1.7,177.1.6,266-1.1,25.9-.5,54.5.8,80.1-.9,3.7-.3,11.5-4.2,14,0,.7,1.3,1,5.9.3,6.9h0Z" class="shading" fill="#aaaaaa" style="opacity: 0.5" opacity="0.5"/>
    <path id="shading-eyes8" d="M768,1115c.3,1.4-1.1,1.1-2.2,1.3-18.2,4.5-36.7,6.8-55,12-5.2,1.5-14.4,6.4-18.8,5.3-3.5-.9-8.9-4.9-12.3-6.7-1.4-.7-7.4-2.5-7.7-2.8-1.4-1.9,3.7-3.1,4.9-4.6,4.7-5.7,8.4-20.1,13.3-26.7,1.1-1.5,1.3-2.2,3.4-2.6,4-.8,27.7-.5,31.5.4l42.9,24.4h0Z" class="shading" fill="#aaaaaa" style="opacity: 0.5" opacity="0.5"/>
    <path id="shading-eyes7" d="M1376,1124c-.3.4-6.9,2.3-8.4,3.1-3.3,1.7-8.2,5.5-11.6,6.4-4.4,1.2-13.6-3.8-18.8-5.3-18.3-5.2-36.4-7.3-54.4-11.6-1-.2-3-.3-2.8-1.7l42.7-24.8c5.9.5,30.6-1.8,33.8.8,4.6,3.8,9.2,22.8,14.6,28.4,1.3,1.4,6.2,2.9,4.9,4.7" class="shading" fill="#aaaaaa" style="opacity: 0.5" opacity="0.5"/>
    <path id="shading-eyes6" d="M1075,1141c1.6-3.5,12.5-25.6,14-26.5,1.9-1.1,14.6-1.1,16.1.9,6.7,8.5-8.9,12.6-13.8,15.4l-16.3,10.2h0Z" class="shading" fill="#aaaaaa" style="opacity: 0.5" opacity="0.5"/>
    <path id="shading-eyes5" d="M945,856c.7.3-.6,1.7-2,1-.7-.4.6-1.7,2-1" class="shading" fill="#aaaaaa" style="opacity: 0.5" opacity="0.5"/>
    <path id="shading-eyes4" d="M1105,856c.7.3-.6,1.7-2,1-.7-.4.6-1.7,2-1" class="shading" fill="#aaaaaa" style="opacity: 0.5" opacity="0.5"/>
    <path id="shading-eyes3" d="M958.8,1114.2c1.4.8,13,24.2,14.7,27.8-3.8-2.6-7.3-5.4-11.2-7.8-3.7-2.2-18.8-9-19.8-11.2-1-2.3-1.1-7.2,1.5-8.5,1.5-.7,13.7-.9,14.8-.3" class="shading" fill="#aaaaaa" style="opacity: 0.5" opacity="0.5"/>
    <path id="shading-eyes2" d="M853,1123c0,1.5-2.5,1.6-3.6,1.9-23.2,6.6-47.2,5.9-70.6,10.4-7.2,1.4-8.4.3-8.5,8.4-21.2,48.4-48.3,94.5-69.1,143-2.7,6.2-7.1,16.1-6.1,22.8.6,4.2,9.6,17.5,12.5,21.5,3.7,5,9.7,9.4,11.9,15.1-24.6-17.6-39-48.9-45-77.9-13.8-66.2-11-111.9,60.3-131.8,38.3-10.7,78.5-14.6,118.2-13.4" class="shading" fill="#aaaaaa" style="opacity: 0.5" opacity="0.5"/>
    <path id="shading-eyes1" d="M721.5,1346c.7.3.7.7,0,1v-1Z" class="shading" fill="#aaaaaa" style="opacity: 0.5" opacity="0.5"/>
  </g>
  <g id="outline-eyes" class="outline" fill="#000000">
    <path id="outline-eyes2" d="M993,1256c-1,4-2,4.8-4.5,8-14.2,18.2-34.4,39.6-50.5,56.5-17,17.9-47.1,49.2-67.7,61.3-24,14.1-91.5,17.2-118.5,11.9-29.6-5.8-47.2-25.6-64-49-25.1-35-31.7-73.2-32.8-115.7h-17.5c-.5,0-7.7-1.5-8.3-1.7-4.5-2-5.8-20.7-6.2-25.8-.3-3.7-1.6-15.3.5-17.5,3.5-3.7,22.8-2.9,26.3-6.2,1.1-1.1,2.7-8.4,3.7-10.8,3.6-8,7.8-15.8,13.5-22.5-14.5-3.8-23.3,2.8-22-17,1.8-29,22-77.6,37.6-102.4,4.3-6.9,20.8-32.7,28.8-32.1,2.1.2,3.9,2.7,5.6,1.6.5-.3,4.7-7.4,6-9,42.4-52.1,97.9-98.4,160.3-124.7,80.6-34,211.7-32.3,291,4.3,44.4,20.5,92.8,56.2,126.2,91.8,6.8,7.2,23.5,25.4,27.9,33.1,1.2,2,1.8,3.5,1.6,6,3.5-.3,5.5-3.6,9.3-2.8,1.8.3,7.3,4.8,8.8,6.3,11.7,11.9,33.9,51.3,39.6,67.4,4.9,13.6,16.7,54.3,16.1,67.4-.6,12.3-13.3,7.2-21.8,9.8-1.2,1.5,3.7,6.8,4.8,8.7,3,5.3,6.6,11.9,9.1,17.1.9,1.9,1.5,7,2.3,8,3,3.5,25,2.6,26.6,6.9.4,1.1,0,3,0,3.3l-3,34c-.5,1.2-.2,2.5-1.3,3.7-4.4,5.2-23.1,1.8-25.6,3.4-.4.3-.7,5.3-.8,6.5-.7,9.2-1,10.5-2.1,20-.2,1.5-1,7.5-2.2,14.4-7.3,46.4-41.9,113.1-92.2,123.3-27.5,5.6-95,2.9-119.5-11.1-25.2-14.4-61.4-54-81.8-76.2-11.4-12.4-29.7-31-38.9-44.1-3.2-4.5-2.7-6-3.6-10.9-3.9-20.4-3-38.7-5-58.5-.2-1.4-.8-5.7-1.5-6.5-3-3.8-26.8-4.4-32-4-3.8.3-14.8,2.1-16.1,5.9-.7,11.2-.5,22.4-1.5,33.6-.7,9.7-2.3,24.8-4.8,34.3h.1ZM797.5,1091h90.5c-10.2-9.4-23.2-15.1-33.9-23.6-1.1-.9-8.4-6.1-7.1-7.4,21.5,6.1,37.4,23.6,58.6,30.9h236c22.1-5.8,38.1-24.5,59.9-31,1,2.5-4.7,5.9-6.6,7.4-10.8,8.4-23.7,14.3-33.9,23.6h91.5c.5,0,5.1,5.2,5.7,6.3,1.5,2.9,1.8,10.4,2.4,10.8,2.4,1.4,18.4,2.4,22.7,3.1,19.7,3.2,40.8,7.2,59.8,13.2,3.1.9,12.4,5.7,14.3,5.7s14.7-7.8,18.5-8.6c1-14.6-5.9-28.1-11.9-41-3.3-7.2-7.2-15-11-22-2.4-4.5-16.1-28.6-18.6-30.4-2.9-2.1-20.6-1.2-25.1-.9-14.3.9-28.6,3.6-42.5,7-1.9-1.7,12-11.3,13.3-12.2,8.4-5.8,17.8-10.6,26.8-15.4-4.4-19.8-20.1-36-34.6-49.4-58.1-53.7-155.6-100.6-235-104-90.4-3.8-194.3,42.3-260.5,102.5-14.8,13.4-31,29.9-35.9,49.9,9,5.9,18.8,10.3,27.6,16.4,1.3.9,15.2,10.6,13.3,12.2-13.9-3.4-28.2-6.1-42.5-7-4.5-.3-22.2-1.2-25.1.9-2.5,1.8-16.2,25.9-18.6,30.4-3.8,7-7.7,14.8-11,22-5.9,12.8-13,26.6-11.9,41,3.1.7,16.9,8.6,18.4,8.5,1.6,0,11.5-5.1,14.9-6.1,26.3-8,53.9-11.8,81.1-15.7,1.2-.6.2-15.3,10.4-17.1M819,1100h-16.5c-4.4,0-4.4,9-2,9h15.5c.5,0,2.3-7.9,3-9M1223,1109c.5-4.6-1.9-7.1-6-8.5h-387c-3.9,1.8-4.8,4.8-6,8.5h399ZM1245.5,1100c-4.7-.9-11.5.6-16.5,0,.5,1.5,2.6,9,3.5,9h15c2.2,0,2.5-8.2-2-9M793.8,1117.3c-27.5,2.3-85.6,15.5-108.1,30.9-17.2,11.7-21.7,48.9-21.7,68.4-.2,51.9,12.7,106.6,51.5,143.5,34.7,33,102.4,26.3,144,10,25.7-10.1,68.2-56.5,88-78,7.7-8.4,28.7-30.1,33.4-38.6,3.5-6.4,6.5-45.2,7.1-54.9s-7.1-7.4-7.9-4.8c-.3.8,1.1,10.8.9,13.8-2.8,50.6-57.6,103.7-95.5,133.5-41.3,32.5-108.5,45.8-155.4,17.4-48.2-29.2-73.2-143.5-44.2-191.1,8.5-14,33.7-22.3,49-27.1,54.7-17.2,174-27.9,220.2,11.2,2.6,2.2,12.7,14.2,13.6,14.4.6,0,9.7-4.7,11.3-5.5-10.2-22.7-43.3-32.7-66-37.9-32.6-7.6-86.5-8-120.2-5.2M1066.9,1192.1c-.8-.5-5-.3-5.9.3-1.3.9-1,3.6-1,5.1,0,12,2.4,30.7,4.2,42.8.4,2.7.7,6.3,1.3,8.7,1.9,7.2,28.3,35.6,35,43,21.6,23.5,62.8,69.1,91.8,79.2,34.2,12,96.1,19.8,127.5-1,26.7-17.7,46.4-53.3,55.5-83.5,9.2-30.4,14.1-104.1-4.8-130.7-7.2-10.1-36.4-21.9-48.7-25.3-54.7-15.5-139.3-21-194.2-6.7-16.9,4.4-45.7,14.5-56,29-7.8,10.9.2,7.8,7.8,12.9,21.9-30.3,61.3-36.4,96.1-39.9,48.3-4.9,131.7,3.4,173.8,29.2,28.1,17.2,27.4,67.3,23.6,96.2-5.3,39.8-28.8,99.1-69.3,113.7-82.7,29.8-142.3-17-194.5-74.5-21.3-23.4-39.8-49.1-42-82-.3-2.9.9-15.8-.2-16.5M1095,1119h-141c3.5,8.3,13.6,11.1,20.5,17,7.4,6.2,13.3,14.2,19.1,21.9l58.9.2,2.9-1.1c5.2-8.5,12.3-16.7,20.2-22.8,4.7-3.6,13.8-7.5,17.3-10.7,1.2-1.1,2.3-2.8,2.1-4.5M833.8,1134.3c-30.1,1.5-110.9,12.4-132.7,32.3-35.8,32.6-13.7,132.6,14.9,165.9,29.2,34.1,85.6,40.3,126,25,22.4-8.5,63.4-43.7,80-62,30.5-33.4,65.9-76.2,40.8-123.8-18.9-35.8-93.4-39.2-129-37.4M1178.8,1134.3c-30.6,2.1-79.2,8.5-94.3,38.7-23.5,47,10.1,87.9,40,121,17.2,19.1,42.5,39.6,63.6,54.4,31.3,21.9,93.2,21.8,124.8,1,44.4-29.2,61.9-111.5,47-159.8-7.3-23.7-22.7-31.1-44.9-38.1-39.1-12.3-95.3-19.9-136.2-17.2M1072.7,1172.2c-1.2-1.1-8.5-2.6-10.5-2.9-19.1-3.4-64.9-4.5-83,1.4-3.8,1.2-5.3,1.4-5.3,5.8,0,9.1,6.6,8.9,14.2,7.1,4.5-1.1,8.5-6.5,14.1-7.9,10.5-2.6,39.3-2.8,48.5,2.1,7.3,3.9,9.2,8.3,19.8,6.2,3.5-.7,4.5-9.7,2.2-11.8M636,1196.5c-.7,2.2,0,13.5,0,17s14.9.4,18,1.5c-1-2.1,1.7-22.1.5-22-3.2,1.8-17.4,0-18.5,3.5M1412,1213.5c.8-2.7,0-13.2,0-17s-16-1.9-18.5-3.5c-1.2,0,1.5,19.9.5,22,3.9-1.3,16.8,2.8,18-1.5" class="outline" fill="#000000"/>
    <path id="outline-eyes1" d="M998,1252c11.2-12.1,21.2-29.1,19.5-46,5.4,3.1,9.1,2.3,14.5,0-2.8,10.5,3,24,8.8,32.7,1.6,2.5,10.1,11.5,10.2,12.3.6,3.3-5.9,8.9-7,8-.9-5.7-7.9-7.8-12-12.5-1.3-1.5-3.3-4.1-4.3-5.8-1.4-2.5.7-4.5-4.3-3.8-2.1.3-5,8-7.5,10.6-3.5,3.8-10.8,6.1-11,11.5-1,1-7.1-4.8-6.9-7" class="outline" fill="#000000"/>
  </g>
    </g><g class="trait-group" data-category="right ear" id="right ear-battle scars">
      <path id="fill-ear-rt" fill="#ffffff" d="M1711.8 182.1c1.9-.3 12.9 5.8 12.3 9.3l-7.1 128c-11.3 41.5-31.3 85.9-40.4 127.5-4.1 18.5-3.8 39.5-6.6 58.4-.2.8-.7 1.3-1.5 1.6-3.4 1.1-49-18.4-56.8-20.9-3.8-1.2-11.7-4.6-15.1-2.1-.5.4-5.2 8.2-5.3 8.8-.2 2.1 17.9 16.1 20.9 18.8 2.1 2 12.8 12.1 13.5 13.5 1.6 3.5.2 16.4.5 21.5.4 6.7.9 12.6 5 18 5.9 7.7 20.9 15.3 17.2 26.2-13.8 29.6-30.1 57.4-46.4 85.6-10.1 17.4-14.5 29.1-28.3 44.7-18.1 20.4-37.8 39.6-56.6 59.4l-98.9 53.1c-11 23.9-19.3 49.1-29.6 73.4l-92.6 78.5c-5.1 5.1-13.5.6-19.4-1.4-25.1-8.4-50.8-25.1-71.4-41.6-4.9-3.9-14.1-10.7-17.5-15.5-13.1-18.4-20.9-41.3-13.6-63.5 16.8-50.7 49.3-97.5 68.2-147.8 9.2-24.4 7.9-72.1 10.9-100.1 4.3-38.9 11.1-77.8 16.4-116.5l98.4-116.6 142.4-103.6z" class="fill" data-original-prefix="fill"/><path id="shading-ear-rt" fill="#aaaaaa" d="M1599 504.5c0 .5 1.6 1.4 2 2l-1.5.5c-11.4-10.3-23.7-19.4-37-26.9 2.9-11.5.3-23.1.5-34.6.1-10 6.8-25.9-6.9-29.5-.1 3.6-4 8.3-3.9 11.5 0 2.7 3.4 4.9 3.9 9 1.9 16.2-1.6 35.4-.8 51.8 1.7 10 14.9 14.3 22.3 19.7.6 9.7 4.3 21 4.5 30.5.4 13.2-15.2 34.4-17.3 48.8-.3 2.3.5 4.5.3 6.8 12.5-2.5 20.8-17.9 27.4-28.1 4.2-6.5 8.7-13.9 11.6-20.9 1.4.1 1.6 1.5 2 2.5 6.8 15 5 18.4-.3 32.8-12.6 34.1-31.8 70.9-51.7 101.3-15.4 23.6-23.1 31.8-47.1 46.9-29.3 18.5-61.8 33.1-96.9 36.1-9.9 13.4-11.6 31.3-12 47.5 60.5-12.3 110.8-49.8 157.5-88 2.2-1.8 11-10.5 12-11 1.2-.5 1.9.3 1.5 1.5-.6 1.6-10.5 13.3-12.5 15.5-39.7 44.6-83.4 59.4-130.8 91.2-1.9 1.3-8.9 5.9-9.8 7.3-.8 1.2-.3 8.4-1.2 11.8-1.4 5.5-5 11.6-6.7 17.3-3.5 12.1-6.4 42-14 50-1.1 1.1-2.9 1.8-4.1 3-25.2 25.5-52.1 49.3-77.4 74.6l-2.1.9c-16.9-4.5-37.5-4.8-53.9-10-17.7-5.6-57.5-34.9-67.4-50.6-4.1-6.5-7.5-10.1-5.5-18.1 2.3-9.3 35.9-44.2 44.3-54.7 68-84.5 112.9-185.4 139-290.5 1.5-.4 1.7.4 2.5 1 5.5 3.8 10.5 12.2 16.5 16-1-12.4-13.2-22.4-22-30.5-1.8-1.7-12.3-11.1-13.5-11.1l-93.5 64.7.9-12.3c2.8-.8 12.2-9.1 13.1-11.2.7-1.8-6.5-3.8-7.5-5.5l-7.3-4.7c1.2-7.4 0-15.5.8-22.8 1.5-13.2 15.9 1.6 21.7 5.3 3.3 2.1 13 8.8 16.3 7.8l22.4-13.7 24.1-42.9c12-8.8 13.1 0 18.9 7 7.3 8.8 19.1 16.3 26.6 25.4l65.9 13.1c2.2-1.1 14-25.1 15.9-29.2 8.8-19.7 7-29.3 9.2-49.9.8-7.3 1.6-14.8 2.9-22.1 21.8-35.3 43.5-70.9 70.5-102.5 28.3-33 60.7-53 97.2-75.8 1.3-.9 10.4-5.9 11.1-6 3.5-.5 11.5 10.6 14.8 12.9v1.1c-6 15-18 25.2-27.5 37.5-15.8 20.5-31.2 48.3-42.2 71.8-4.1 8.7-12.4 25.9-14.3 34.7-2.3 10.1 6.5 31.6 8.5 42.5l69.3 19.6c4 2.4-.3 9 .7 12.8-4.1 0-8.2.2-12.2-.3-4.9-.6-44.2-8.6-46.2-9.8-1.1-.6-1.2-2.2-2.3-2.9-2.4-1.3-6.5-1-9.2-1 1 6.7-1.4 17.4 0 23.5ZM1329 776h16.5c.4 0 2.3 1 2.5 1.8l9 36.6-26.8 49.9 4.4 5.7 27.5-41c0 1 1.6 7.9 3 7 0-3 4.2-5.6 4.8-7.7 1.6-5.6-6.3-30.1-8.5-37.1-1.3-3.9-4.8-16.5-7.2-18.8-2.1-2-16.6-4-19.6-3.5-1.9.4-6.3 6.3-5.5 7Zm-7.9 188.9c2.2 1.5 9.2-6.1 10-8.5l-6.5-41.5c-8.1-22.6-19.3-45.8-31.4-66.6-1.4-2.4-3-5.7-5.2-7.3l-5.9 13.3c7.1 13.7 19.3 26.2 22.4 41.7.3 1.5.7 2.9.5 4.5-.9 5.1-19.4 24.3-23.4 29.6L1272 966l41.5-38zM1375 911l6.6-9.5c-2.1-7.7-6-16.6-7.4-24.2-1.4-7.7-.6-17.4-3.8-25.2l-4.6 8.4 9.1 50.5Z" class="outline shading" data-original-prefix="shading" opacity="0.5" style="opacity: 0.5"/><path id="outline-ear-rt" fill="#000000" d="M1204 942c-4.2-.7-8.9-3.7-12.7-5.8-19.7-11.4-30-35.7-43.8-53.2-1-2.9-.7-7.3-.5-10.5 1.2-23.6 12.9-37.4 22.2-57.8 5.6-12.4 10.8-31.7 17.6-42.4 2.6-4 7.1-7.8 10-12 38.3-55 42.6-150 46.2-215.8.4-6.6.3-23.8 2.6-28.4 42.9-62.2 88.8-122.3 141.4-176.6 18.3-18.9 33.3-29.6 55.1-43.9 73-47.8 153.8-87.8 236.9-115.1 12-3.9 31.6-10.1 43.8-11.3 6.6-.6 7 0 8.7 5.7 8.6 28.2 2.7 75.6.4 105.5-1.2 16.8-1.1 48.6-7.5 63.5-1.4 3.3-7.7 8.9-10.3 12.7-12.7 18-18.2 41.5-21.9 63.1-2.9 16.7-5.6 39-4.3 55.8.7 8.6 6.2 16.7 6.1 24 0 7.3-4.1 16.3-5.1 23.5-23.2-9.5-47.1-16.6-72-20 2.6 4.6 17.7 13.8 18.8 17.7.8 2.6-.9 4.6-.8 6.8.3 5.9 2.8 28.5 5.1 32.9 1.3 2.5 10.2 10.6 12.9 13.1 2.7 2.6 16 12.8 16 15 0 2.4-9.9 24.1-11.8 28.2-38.7 86.3-81.2 144.4-162.7 194.3-12.3 7.5-25.2 12.8-37.2 19.8-24.8 14.6-38 54.9-48.8 80.2-6.7 15.7-20.4 20.9-32.5 31.5-14.9 13.1-28.1 28.9-42.4 42.6-21 20-57.1 3.6-79.6-6.5-6-2.7-9.7-4.2-13-9.5 7 .5 13 4.1 19.8 5.7 19.2 4.6 30.1 2.7 47.2-6.2 2.7-1.4 17.2-10.3 17.8-12.2-.4-11.3 1.1-23.7.2-34.9-1.1-14.1-12.9-36.3-19.5-49.5-2-3.9-16.2-31.9-18-32-13.4 22.8-27.1 46.5-35 72-3.4 11-6.9 23.7-5.2 35.2.7 5.1 3.8 9.7 4.7 14.8-1.7 1.6-17.8-11.5-20-13.5-4.4-4-9.2-7.6-9.1-14 .1-5.5 2.1-26 4.2-29.8 2.6-4.7 9.2-11.4 12.7-16.3 42.5-61.5 61.2-130.5 109.2-188.8 7.6-9.2 15.4-19.8 20.2-30.8 8.2-18.7 19.6-72.5 16.6-91.9-2.4-15.8-26.1-29.3-36.3-40.7-8.8 19.2-17 34.5-36.6 44.3-13.2 6.6-22.1 5.7-35.1 8.9-8.2 2-15.2 10.1-21.6 15.5-.7 10-2.3 19.9-3.2 29.8-1.9 22.5-1.6 46.7-5.1 68.9-3.1 19.4-25.6 63.3-35 83-14.2 29.4-31.4 55.9-39.8 88.2-2.7 21.7 14.3 52.9 29.9 67.4Zm514-753c-2-2-47.8 16.6-53.3 19.1-68.3 30.5-139.4 73.9-202.2 114.8-52.8 34.5-93.3 70-133.4 118.5-17.4 21.1-39.2 47.3-54.4 69.6-8.3 12.1-10.4 25.6-12.2 40 3.6 1.4 7.4 2.5 10.9 4.1 5.8 2.7 18.7 11.4 23.9 10.7 20-2.7 33.2-23.1 41.9-39.1 1.5-2.8 5.6-13.8 6.1-14.4 1.8-2.1 5.8-.9 8 0 7.4 3.1 20.5 23.4 27.8 30.2 15.8 15 36 25.7 53 39 4 12.5 8.9 24.9 12.5 37.5 2.2 7.8 5.6 31.3 10 36 12.5 13.5 30.2-11.7 35.7-21.4 33.7-58.5 35.6-122.7 20-187.2 22.7-73.6 76.6-122.2 130.4-173.4 5.9-4.6 13.1-6.7 19.4-10.6 11-6.8 19-19 32.1-22.4l-21.2 37.3c-5.8 7.2-14.8 10.5-22.2 15.9-33.3 24.1-60.4 53.8-79.9 90.1-1.4 2.6-8.8 16.7-8.8 18.2 0 3.5 13.2 8.9 14.8 13.2 2.1 17.7 1.2 36 5.7 53.3 1.3 5.1 2 9.5 8.1 10.9 7.5 1.7 17.7 1.9 25.7 3.4 16.7 3 33.1 7.2 49.8 9.7 1.8-18.7.9-37.8 3-56.5 2.7-23.8 11.5-60.6 20-83 6.8-18 16.8-28.7 20.7-48.3 7.5-37.2 11.2-77.4 8.3-115.2Zm-75.2 392.2c-8-6.2-17.7-13.9-18.8-24.7-.6-5.8 0-26.6-2.1-29.9-18.1-17.7-37.4-33.7-58.8-47.3 1.7-13.2.6-26.6.8-39.9.2-10.2 4.9-20.1-7.9-25.5-10.1 33.1-20.7 79-6.5 112 1.2 2.9 6.7 10.6 6.3 12.3-21.1 26.6-32.9 59-41.6 91.5-2.4 8.9-8.5 47.6-11.4 51.6-2.7 3.7-14.2 13.2-18.4 16.6-13.4 10.9-30.6 22-45.8 30.2-2.5 1.4-16.2 9.2-17.7 7.8 3.5-7.6 7.8-14.9 10.8-22.7 8-21.6 9.7-46.5.4-67.9-4.5-10.3-19.2-36.8-31-19.7-7.5 11-16 48.1-17.2 61.8-.5 5.9 1 14.3-.4 19.6-.8 2.7-14.5 12-14.6 15.4 5.2 11.5 11.1 23.1 19 33 1.9 2.3 7.7 6.6 8 9-2.9 11.6-6.2 23.2-7.9 35.1-2.7 19.7-1.9 45.1 2.1 64.6 1.1 5.3 3.6 11.1 6.2 15.8 4.2-8 7.9-16.3 11.2-24.8 1.9-4.8 7.1-16.1 7.8-20.2s-2.2-4.7 2.4-9.5c5.5-5.8 29.5-19.4 37.7-24.3 18-10.7 37.3-19.4 54.6-31.4 49.8-34.7 117.1-125 132-184 .3-1.3 1.3-3.3.5-4.6ZM1277 572l-16-9-3 28c1.7.5 2-.7 3-1.5 1.8-1.4 16.7-16.5 16-17.5m100 227c.6-8 2.7-15.3 1.9-23.4-1.3-13-12.8-29.9-23.2-37.5-1.1.2-13.4 15.4-14.1 17-.6 1.3-.7 2.5-.6 4 5.5 1.1 20.8-.5 24 3.5 5.1 6.3 7.4 26.5 9.9 35.1.4 1.5-.6 1.8 2 1.5Zm-43.3-30.9c-2.2.6-23.3 32.3-26.1 36.9-2 3.2-11.6 19.1-11.5 21.4l36.5 56.5 2.9-2.1 34-51c.4-2.2 1.3-5.2 1.2-7.3-.3-6.2-7.1-26.3-9.4-33.4-1.4-4.4-4.7-17.7-9-19-1.6-.5-17.7-2.3-18.6-2.1ZM1340 946c1.7.5 2-.7 3-1.5 7.1-5.5 26-24 32-31 3-3.4 5.2-7.5 7.8-11.2-7.5-17.2-9.7-35.7-10.8-54.3-1.2 0-1.6 1.4-2.2 2.3-10.4 16.4-20.2 35.2-28.1 52.9z" class="outline" data-original-prefix="outline"/>
    </g><g class="trait-group" data-category="left ear" id="left ear-ringer">
      <defs/><path id="fill-ear-left" fill="#ffffff" d="M366.5 448c2.2-.7 1.7-6.1 1-8-14.8-50.5-33.9-100.1-45.5-151.5l-3-99c.6-3.5 14.7-7.2 18.4-7.5 72.6 34.3 145.7 67.7 217.5 103.6L702.5 405l86.3 108.7c9.7 62.8 14 126.7 22.2 189.8l75.7 173.9-26.9 52c-5.3 7.8-42.1 33.9-51.5 38.5-18.4 9-40.3 13.4-59.9 19.2l-3-1L638 882.5c-7.9-16.2-9.4-35.5-17.5-51.5L476 735.5l-73.2-131.3c-15.9 1.2-45.2 3-28.2 25.7 7.5 10.1 22.2 9.2 32.5 13.5 1.2 5.2 9.4 13.6 10.5 17.5 1 3.2-1.3 6.7-.6 10l-68.5-7-16.8-43.2-.2-4.8 23.8-45.7c3.4-2.8 29.6-6.2 36.2-8.3 1-.3 2-.2 2.4-1.4-4.9-19.1-12.3-39.6-14.7-59.2-.4-2.8.7-10.8-1-12-7.7-.7-15.3-2.8-23.1-2.4l5 37c-4.9.6-8.3 6.4-14 4.6l-46.8-15.7v-39.6l30.9-22.7c3.4 1 12.5-2.5 13.5-2.5 4.6 0 20 .9 23 0z" class="fill" data-original-prefix="fill"/><path id="fill-earing-lft2" fill="#ffffff" d="M404.9 643.2c1 .6 9.3 17.3 12.1 19.3.2.5-2.1 1.1-2.6 1.1-14.2.4-44-3.9-56-11.5-9.6-6-21-30.6-19.2-41.6 1.4-8.8 18.5-28.8 27.1-31.8 12.1-4.4 38.3-7.8 51.3-7.7 9.6 0 20.4 10.4 15.4 20.4s-17.7 8-23.7 9.3c-9 1.9-31.4 3.1-37.5 8.5-7.4 6.4-2 19.2 3.9 24.9 4.8 4.6 16.5 7.7 23.1 8.9 1.8.3 5.2-.4 6.2.3h-.1z" class="fill" data-original-prefix="fill"/><path id="fill-earing-lft1" fill="#ffffff" d="M360 523c-3.2 2.8-33.2-6.9-38.4-9.1-15.7-6.7-18.1-11-16.7-28.4 1.2-14.7 9.9-16.9 22.1-21.9 21.4-8.9 37.2-11.8 60.2-5.2 8.6 2.5 26.1 9.5 27.6 19.5.9 6.5-3.8 15-10.5 16.1-2.5.4-17.8-4.5-22.2-5.4-12.8-2.4-34.3-7.6-44.1 3-13 14.1 15 16.1 18.6 19.5 1.8 1.7 2.4 9.3 3.5 12h-.1Z" class="fill" data-original-prefix="fill"/><path id="shading-ear-lft" fill="#aaaaaa" d="m608.2 565.2 3.3-1.2 51.4-6c1.9 9.6.6 19.6 2.2 29.3 3.3 21 21.8 41.3 32.7 59.3 28.9 47.5 49 99.2 78.8 146.2 16.1 25.4 34.3 49.3 53.4 72.6 7.9 9.6 28.7 29.6 32.7 39.3 1.1 2.7 2.6 7.6 2.1 10.5-.3 1.4-7.6 14.6-8.8 16.2-3.6 4.9-14.8 12.8-20.1 16.9-22.1 17-43.7 28-70.9 35.1-4.6 1.2-16.1 4.8-20 3l-92-84.2c-10.8-23.6-17.5-49.5-29.5-72.3L510 764.4l-84.1-88.9c-25-3.4-50.4-5.3-75.4-8.6-1.3-.2-4-.6-4.7-1.5L326 606.8l30.8-40.3c3.9-2.9 10.3-.8 15.1-1.4 1.2-1.2-6.9-24-8-27.5-8.1-2.8-41.4-4.6-46.1-8.9-3.1-2.9-16.5-30.5-19.5-36.5s-7.8-14.2-7.5-16.5c0-.8.4-1.5 1.1-2l51.3-33.7c3.4-1.3 29.1-1.4 32.8-.3l43.5 26.5c1.2 1.1 1.6 2.4 2.2 3.8 1.2 3.2 5.4 18 5.4 20.8 0 5.9-7.2 8-6.9 10.8.3 3.3 9.1 19.4 11.3 23.7 8.1 15.8 29.4 56.7 42.6 66.4 2.6 2 5.4 4.1 8.9 3.6 1.8-8.1-2.3-16.5-5.2-24.2-2.8-7.3-11-21.9-11.7-28.4-.9-9.3 4.3-27.3 4.9-37.9 3.8-61-29.8-136-65.2-184.8-8.8-12.1-24.5-26.6-30.7-39.3-1-2.1-7.2-18.7-7-19.7.2-1.1 5.7-4.9 6.9-5.2 2-.5 12.8 7.7 15.7 9.4 30.1 17.6 70.1 41 93.8 66.2s51.7 62.1 64.7 92.3c5.3 12.5 4 11.2 3.8 24.1-.7 40.9 1.3 80.7 10.5 120.5 1.7 7.1 5.7 25.4 9 31 .8 1.3 7.7 9.2 8.9 10.1.9.6 1.4 1.7 2.6.5l24.2-44.3zm-292.1-82.3c3.4 2.2 5.5-3.1 7-4.3 12.8-10.8 63.5-.9 80.3 1.4 11.5-4.6 6.5-11.6-1.7-16.2-12.2-6.9-36.4-10.5-50.1-8.7-5 .7-31.9 10.7-35.1 13.9-2.2 2.2-1.9 12.9-.4 14q0-.1 0 0ZM419 503c-11.1 4.8-24.2.2-36 1l13 60 40-2zm5.8 70.2c-3.2-3.1-24.7-.7-30.1 0-9.5 1.1-25.8 3.3-33.8 8.2-5.4 3.3-19.9 21.7-21.4 27.6-2.8 10.8 1.6 22.4 14.5 20-1.1-8-2.6-17.2 2.2-24.3 8.9-13.2 46.4-4.8 62.3-16.7 3.8-2.8 11.1-10.1 6.3-14.8M450 595l-39.9 13.4c11.9 17 20.5 35.9 31.6 53.4 42.6 67.4 95.1 111.3 170.2 139.8 14.3 5.5 29.5 7.7 44 12.5 5.5 13.5 10.9 27.2 17 40.5 9.5 20.5 22.4 32.9 37.7 49.3 17.6 18.9 38.6 41.2 58.5 57.5 1 .8 7.3 6.2 8 5.5-3.9-10.9-5.5-27.1-10.2-37.3-2.9-6.1-17-20.7-22.2-27.8-24.6-34-42.1-71-63.4-106.6-13.9-23.2-19.7-24.2-44.7-33.3-22-8.1-50.6-11.8-70.2-19.8-11-4.5-43.7-25.5-52.2-33.8-7.1-6.9-18.4-25.8-24.1-34.9-15.6-24.8-29.5-51.1-40-78.5h-.1Zm-45 42c-3-8.1-6.1-16.4-11-23.6-2.7.8-19.3 4.8-20 5.6-.3.4 0 2.3.5 3 .8 1.3 24 13.2 26.8 14.2 1.2.5 2.3 1.1 3.7.8" class="outline shading" data-original-prefix="shading" opacity="0.5" style="opacity: 0.5"/><path id="outline-ear-lft2" fill="#000000" d="M671 548c1 1.1-8.8 24.7-9.5 28.9-3.2 18.8 9 75.7 17.4 93.7 8.3 17.9 19.9 26.5 31 41 35 45.5 53.4 108.2 84.2 156.9 4.4 7 27 36 27.8 40.2 1.2 5.8 2 19.4 2.3 25.8 0 1.9.2 3.7-.6 5.5-1.3 3.1-26.2 24.3-28.5 22 .6-4.8 4.2-9.9 4.9-14.6 4.5-32.7-34.7-99.9-51.7-129.1-19.1-32.7-44.8-69.8-70.1-97.9-2.4-2.7-12.2-10.8-13.1-12.2-2.1-3.5-.6-16.6-1-21.8-1-12.8-10.5-52.4-18-62-10.4-13.3-23.7 7.8-28.2 16.8-11.9 24-9.9 50.3-.3 74.7 2.7 6.9 6.7 13.2 9.5 20-2.9 0-5.5-1.3-8-2.5-17.1-8-40.7-23.6-55.4-35.6-4.2-3.4-15.7-12.9-18.4-16.6-3-4-9.1-42.7-11.4-51.6-8.6-32.6-20.5-64.9-41.6-91.5-.3-1.7 5.1-9.4 6.3-12.3 14.5-33.8 3.2-89.9-11.3-122.7-23.4-53-61.8-94-110.7-124.3l-22.5-39c3.3-3.1 26 18.4 29.7 20.8 6 4.1 14.7 6.7 20.3 10.7 9.2 6.5 21.7 22 30.5 30.5 33.1 32 57.7 54.3 80 96 4.4 8.1 20.6 40.5 21.3 47.8.7 7.6-5.5 27.2-6.7 35.9-7.6 53.4 0 102.9 25.7 150.1 5.5 10 23 36.2 36.2 23.9 4.9-4.5 9.1-31.2 11.5-39.5 2-7.1 8.6-30 12-35 3.1-4.5 28.4-18.6 34.8-22.2 2.3-1.3 20.8-11.7 21.7-10.8z" class="outline" data-original-prefix="outline"/><path id="outline-ear-lft1" fill="#000000" d="M846 940c15.1-16.5 31.1-43.1 27.9-66.4-6.7-13.7-9.4-29.6-15.7-43.3-5.9-12.9-15.5-26.6-22-40-10.6-21.5-23.7-48.6-32.3-70.7-9.2-23.4-7.5-61.4-9.8-87.2-1-11-2.9-22-4-33-2.3-24.6-2.1-67.2-15.6-87.4-14.6-21.8-37.5-48.9-54.5-69.5-41.4-50.3-82.8-86.1-137.5-121.6-42.3-27.4-87.4-55.5-131.9-79.1-38.8-20.7-78.7-40.2-120.7-53.8-3 38.2.9 78.6 8.3 116.2 3.3 16.9 7.6 19.5 14.6 33.4C367 366.1 372 402 378.4 433c1.5 4.2 10.7 6.3 14.6 8.4 13.7 7.3 26.9 14.3 34.4 28.6 6 11.4 4.6 18.9-3.4 28.5-12.5 14.9-22.7 12.7-40 7.5-1.6 1.8 9.7 42.2 12 47.5 20.4.6 40.3.8 51.9 20.1 6.5 10.9 4.8 15.8-1.8 25.8-7 10.7-14.9 15.8-28 16.5-1.5 1.5 7 17.2 8.5 20 24.3 45.7 71.1 106.9 114.2 135.8 26.6 17.9 62 31.7 86.6 51.4 7.8 6.3 4.2 5.9 6.1 13.9 12 50.8 60 106.1 105.3 130.7 23.2 12.6 44 11.2 68.3 1.2-1 4.5-8.9 7.6-13 9.5-19.5 8.8-52 23.1-72.4 12.4-3.2-1.7-21.8-20.6-26.2-24.8-8.6-8.3-15.6-17.1-25-25-10.3-8.7-24.4-15.4-30-28-10.2-23.4-16-42.1-31.1-63.9-13.3-19.2-23.3-19.4-42.1-29.9-55.3-31-107.1-75.3-138.5-131-19.2-.6-39.2-1.6-58-5.5-27.5-5.8-33.9-14.5-44.3-39.7-8.6-21.1-13.7-31.3-2.7-52.6 9-17.5 20.9-37 43.2-36.3l-2.1-10.9c-21.9-2.3-55.5-6.5-70.9-23.6-10.3-11.5-13-21.7-12.1-37 1.1-18.1 4.6-21.7 19.4-30.6 10-6 25.4-14.6 36-19 6.2-2.6 12.7-5.4 19.7-4.8 2-2-10.8-49.6-13.2-55.3-4.6-10.8-15.9-20.4-20-29-3.4-7.1-5.9-31.4-6.8-40.2-3.1-33.1-7.5-84.8-2.9-116.9.4-2.5 3.3-15.8 4.5-16.7 1.7-1.2 4.6-.9 6.6-.7 27.9 2.6 74.9 22.3 102 33 67.9 26.9 154.8 70.8 212.1 115.9 12 9.5 25.4 25.3 36.2 36.8 46.7 50.2 88 104.7 126.9 161.1 8.9 76.2 3.1 178.6 48.8 244.2 2.9 4.1 7.4 7.9 10 12 7.1 11.1 12.9 32 19 45 4.2 9.2 9.1 18.3 13.7 27.3 1.4 2.7 6.4 9.3 7 11 .8 2.6 2.6 22.5 2 24.6-10.1 12.6-17.6 27.8-27.4 40.6-7.7 10-14.2 13.1-25.3 18.7-1.2.6-3.1 2.7-4.1.4zM360 523c-1.1-2.7-1.7-10.3-3.5-12-3.5-3.4-31.6-5.5-18.6-19.5 9.8-10.5 31.3-5.4 44.1-3 4.5.9 19.7 5.8 22.2 5.4 6.7-1.1 11.5-9.6 10.5-16.1-1.5-10-18.9-17-27.6-19.5-23-6.5-38.7-3.7-60.2 5.2-12.2 5.1-20.9 7.2-22.1 21.9-1.4 17.4 1 21.7 16.7 28.4 5.1 2.2 35.1 11.9 38.4 9.1h.1Zm44.9 120.2c-1-.6-4.4 0-6.2-.3-6.6-1.2-18.3-4.3-23.1-8.9-5.9-5.6-11.3-18.5-3.9-24.9 6.2-5.3 28.5-6.5 37.5-8.5 6-1.3 21-4.1 23.7-9.3 5.1-10-5.8-20.4-15.4-20.4s-39.1 3.4-51.3 7.7c-8.6 3.1-25.8 23-27.1 31.8-1.7 11 9.6 35.6 19.2 41.6 12.1 7.5 41.8 11.8 56 11.5.6 0 2.8-.6 2.6-1.1-2.8-2-11.1-18.7-12.1-19.3h.1zM396 628c-1.1-6.4-1-9.6-8.2-8.7-13.6 1.6 1.6 10.2 8.2 8.7" class="outline" data-original-prefix="outline"/>
    </g><g class="trait-group" data-category="head" id="head-banger">
      <path id="fill-head" fill="#ffffff" d="M1076.7 823.4c9.6 5.8 4.5 20-7.2 20.7-5.3.3-5.3-3.1-9.1 2.8-41.5 80.3-80.3 162.1-113.8 246.2-6.8 17-17.4 40-22 57-8.5 31.5-2.7 65.4 1.6 97.3 1.7 12.9 4.7 25.7 5.8 38.6l-3.6-.9c-10.9-15.6-26-29.6-36.8-45.2-3.9-5.5-7.6-11.1-8.6-17.9-1.7.4-1.2 3.2-2.5 5-1.4 2-4.4 2.3-5.3 4.7-2.4 6.6-4.5 30.6-5.2 38.8-7.1 78.9-4.3 179.5 25.5 253.5 1.6 4 15.8 31.8 14.5 33-1.8 1.7-7.5-3.3-9-4.5-56.2-45.2-108.1-98.5-149.2-157.8-21.6-31.2-24.3-46-30.1-82.9-.2-1.2-.2-4.8-1.7-4.8-3.7 19.2-7.5 38-9 57.5-4 52.7-2.7 108.6 5.2 160.8 3 20 7.2 39.8 12.8 59.2.7 2.1-2.2 1.8-3.3 1.3-1.8-.8-20.6-28.4-23.5-32.5-38.8-56.7-72.3-120.9-98.7-184.3-8.8-21.2-19.8-45.4-21.5-68.5-1.5-20.5 8.9-43.7 16.2-62.7 13-33.9 28.7-66.8 41.7-100.8-1.1-1.1-10 5.9-11.5 7-8.9 6.9-19.3 16.6-27.5 24.5-15.8 14.9-30.6 30.9-44 48l-4 .5c19-59.8 44.6-119.2 76.2-173.3 7.7-13.3 30.4-52.2 41.5-59.5s25.2-12.6 37-19c64.7-35.1 128.7-72 191.2-110.8 10.6-6.6 31.7-23.4 42.6-24.4 6.5-.6 15.2-.8 21.9-1.1 27.2-.9 54.7-.2 81.9-.9 2.4-10.9 24.6-8.8 31.5-4.6" class="fill" data-original-prefix="fill"/><path id="shading-head2" fill="#aaaaaa" d="M1069.4 844c-5.5.4-5.2-3.4-9.4 3.5-15.4 25.4-30.7 59.9-43.8 87.2-27.8 57.8-52.7 116.9-76.7 176.3-21.6 34.5-103.6 66.4-142.6 59.8-3.3-.6-11.9-4.6-13.1-4.5-4.5.4-13.2 11.4-17.2 14.7-17.6 14.7-42.5 23.4-61.5 5.6-26.5-25-15-80.7-4-111 3-8.3 7.5-16.2 10-24.5-18.3 2.1-34-10.6-33-29.5.8-17.4 22.8-50.1 36.7-60.3C777 927.1 838.7 891.9 899 854.5c10.6-6.6 31.7-23.4 42.6-24.4 6.5-.6 15.2-.8 21.9-1.1 27.2-.9 83.6-.2 110.8-.9z" class="outline shading" data-original-prefix="shading" opacity="0.5" style="opacity: 0.5"/><path id="shading-head1" fill="#aaaaaa" d="M807 1335c-.7-21 2.7-46.2 16.5-63 12.4-15.1 31.9-20.4 47.4-6.3l-2.9 37.8c-1.5 74.5-.6 150.6 27.5 220.5 1.6 4 15.8 31.8 14.5 33-1.8 1.7-7.5-3.3-9-4.5-56.2-45.2-108.1-98.5-149.2-157.8-21.6-31.2-24.3-46-30.1-82.9-.2-1.2-.2-4.8-1.7-4.8-3.7 19.2-7.5 38-9 57.5-4 52.7-2.7 108.6 5.2 160.8 3 20 7.2 39.8 12.8 59.2.6 2.3-1.8 1.5-3.3 1.3-45.1-60.2-82.5-126.3-112.8-195.2-11.4-25.9-28.7-62.3-30.8-90.2s16.2-57.5 24.5-83.5l12.5-28c4.3 35.6 12.6 71.7 22.3 106.2 2.5 8.9 8.6 34.1 16.7 38.3 1.5.8 1.5.6 2.5-.5 1.8-2 4.8-10.1 6.7-13.3 13.6-22.3 38.1-46.5 61.1-58.9 8.1-4.3 24.6-11.6 32.1-2.8 2.2 2.6 6.5 15.9 8.7 20.3 9.8 20 23 40.5 37.8 56.8" class="outline shading" data-original-prefix="shading" opacity="0.5" style="opacity: 0.5"/><path id="outline-head1" fill="#000000" d="M1125 857c-1.2 1.1-9.8-3.9-11.5-5l2.5 3.5c-3.4.1-9.2-2.6-12.5-4.5-3.6-2.1-6.1-5.1-9-7-1.1-.8-.7-1.5-2 0-2.5 3.1-3.4 7.7-5.1 10.9-20.8 37.4-41.6 71.7-60.2 110.8-24.5 51.3-51.8 111.2-70.2 164.8-18.4 53.8-6 113.1-3.9 169 .2 4 .4 28.4-1 29.5-3-1.2-6.6-4.3-9-6.5-14-12.4-25.3-28.3-38-42l-19-24.5c-1 24.7-1.8 49.8-1 74.5 1.5 47.2 6.7 104.3 16.5 150.5 8.6 40.4 25.3 78.1 38.5 117-22.1-3.7-41.5-20.2-58.9-33.6-56.3-43.5-109.3-98-145.6-159.4l-11.5-25c.5 10.9.9 21.6 1 32.5.8 70.1 6 132.7 21.4 201.5 2.2 9.6 7.2 23.9 8.3 32.7.1 1 .8 3.1-1.3 2.3-1.2-.5-15.8-15.6-18-18-62.3-67.7-115-165.1-150-250.1-8-19.5-22.1-51.5-24.3-71.7-4.1-38.6 20-73.4 32.7-108.2-1.9-.4-2.4 1.1-3.5 2-30.6 25.2-47.6 58.4-59.3 95.7l-3.2 2.3c.4-12.6-2.3-24.9-2-37.5 1.2-51.1 26.7-111.9 48.2-157.8 22.4-47.7 48.7-94.4 79.2-137.3 92.2-45 180.7-96.6 266-153.5 11.5-5.1 31.2-2.4 44.2-2.8 34.6-.9 69.2-.8 104-1 2.3 0 4.4-1.2 6.7-.9 6.6 1 43 36.3 48.8 43.3.9 1.1 2.4 1.6 2 3.5m-57-25c-.3-.4-9-1.9-10.5-2-20.8-2-42.2.5-62.9 1-19.8.5-40-1.7-59.5 2.5-71.3 46-144.7 89.1-219.3 129.7-13.5 7.4-30.4 14.1-43 22-10 6.3-23.8 29.7-30.5 40.5-36.1 58.4-64.5 122.2-86.2 187.3l19-21.5c12-11.7 23.5-23.9 36-35 4-3.6 28.9-26.2 33-22.5-10.7 25.7-22 51.2-32.5 77-10 24.9-29.5 64.4-27.5 90.4 1.8 24.4 16.1 54.5 25.8 77.2 30.7 71.7 69 140.9 115.7 203.3-7.4-33.7-14.1-67.9-16.5-102.5-3.9-55.6-3-118.1 9.5-172.5.7-3.2 1.1-7.3 3-10 2.7 19 4.2 38.4 10.2 56.8 8.9 27.2 34.3 58.2 52.3 80.7 33.7 42.3 75.8 81 117.5 115.6 1.1.9 1.6 2.4 3.5 2-4-12.3-10.2-23.7-14.7-35.8-25-66.8-26.6-146.2-23.3-216.8 1-21.2 1.9-68.9 12.8-86.2.5-.8.8-2.8 2.2-1.3.6.6 3.6 12.8 4.8 15.7 2.1 4.6 5.4 9.6 8.3 13.7 10.3 14.3 23.7 27.9 34.8 41.7-1.8-12.6-4.2-25.1-5.8-37.6-2.7-20.7-7.7-48.7-8.2-68.8-.2-6.8 10.3-38.5 13.3-46.8 29.3-81.3 71.2-173 111.2-249.8 6.3-12.2 15.2-31.4 23.5-41.5 1-1.2 6.3-3.6 4-6.5m-473.5 367v1c.7-.3.7-.7 0-1m-39 15v1c.7-.3.7-.7 0-1" class="outline" data-original-prefix="outline"/>
    </g>
</svg>