<?xml version="1.0" encoding="UTF-8"?>
<?xml-stylesheet type="text/css" href="styles/collection.css"?>
<svg xmlns="http://www.w3.org/2000/svg" viewBox="0 0 2048 2048"><g id="01_background" data-trait="brown"><path id="color-brown" fill="#564624" d="M2048 4.5q-.15 1019.4 0 2038.8c0 3.8-.8 4.6-4.6 4.6q-1019.4-.15-2038.8 0c-3.8 0-4.6-.8-4.6-4.6C.2 1362.3.1 681.2.1 0h2043.3c3.8 0 4.6.8 4.6 4.6z" data-original-style="transition:fill .3s ease" style="transition:fill .3s ease"/></g><g id="02_Jaw" data-trait="doom-raider-mask"><path id="fill-jaw-main" class="fill"  fill="#fff" d="m637.2 1237.2 8.7-.3c13.5-36.6 25-74.9 39.3-111.1 40.9-102.9 149.2-171.1 251.8-201.2 96.8-28.5 178.1-7.9 265 37 60.9 31.4 126.9 87.1 155.2 150.8 8.4 18.9 7.3 37.3 13.6 53.4 7.2 18.6 28.3 46.1 38.7 65.3 15.6 28.9 30.5 61.7 44.3 91.7 1.6 3.4 9.1 18.6 8.9 20.7-26.3 40.9-55.4 79.9-82.8 120.1-25.7 22.3-52.4 43.6-77.4 66.6-10 22.3-16.2 46.5-26.5 68.5-40.4 24.2-79.2 55.9-120 79-37.8 21.3-82.4 35.7-121 56l-20.5.4-115.6-51.4c-45.5-28.4-92.8-54.2-138-83l-27.6-71.4-61.4-52.6-83.8-134.3c-.6-1.5 0-2.8.2-4.3 1.6-6.1 8.7-18.8 11.7-25.3 11.6-25.2 25.5-49.3 37-74.5h.2Z" class="fill" data-original-prefix="fill"/><path id="fill-jaw5" class="fill"  fill="#fff" d="M1353 1472c.3 1.4.2 1.3-.6 2.1-2.5 2.4-7.8 5.4-10.8 7.9-10.1 8.4-42.1 34.1-47.4 43.6-10.7 19.7-16.2 47.3-25.4 68.1l-39.1 20.4-58.7 38.8c20.2-48.3 28.3-100.5 36-152 1.4-1.4 10.5 6 16 3.5 25.4-22.1 55.1-38.7 85.8-52.3 15.6 3.6 29.6 13.3 44.2 19.9" class="fill" data-original-prefix="fill"/><path id="fill-jaw4" class="fill"  fill="#fff" d="M1337 1303c17.3-4.2 26.8-13.8 38-26.5 10.3-11.7 19.5-24.5 29.5-36.5 15.8 21.7 28.9 48.5 38.3 73.7 2.3 6.1 7.3 19.2 8.1 25 .2 1.9 0 2.2-.7 3.8-2.5 5.3-11.1 14.5-14.9 20.1-9.7 14-20.1 28.6-29 43-9 14.6-18.7 37.6-28.8 50.2-3 3.8-10.2 4.3-11.3.4-.6-2.2 13.9-36.1 15.9-41.8 1.7-4.7 8.4-21.2 7.8-24.8-.8-4.6-9.6-20.7-12.3-25.8-9-16.6-20.8-33.7-32.1-48.9-1.3-1.7-9.7-10.6-8.4-12.1v.2Z" class="fill" data-original-prefix="fill"/><path id="fill-jaw3" class="fill"  fill="#fff" d="M711 1303c.7.8-1.9 4-2.6 4.9-11.5 16.1-23.2 30.5-33.2 47.8-3.8 6.6-16 27.9-17 34.1-.6 3.6 7.9 25.6 9.8 30.8 4.4 12 10 23.8 13.9 35.8-6.4 5.8-9.5 2.2-13.3-3.4-10.5-15.6-19.1-34.6-29.2-50.8-8.2-13.2-17.8-26.6-26.6-39.4-3.9-5.6-12.4-14.8-14.9-20.1-.8-1.6-1-1.9-.7-3.8.8-6.2 5.7-18.7 8.1-25 9.6-25.7 22.5-50.4 36.8-73.8l2.4 1.1c9 11.5 17.9 23.4 27.6 34.4 11.3 12.9 21.3 23.6 39 27.5Z" class="fill" data-original-prefix="fill"/><path id="fill-jaw2" class="fill"  fill="#fff" d="M841 1501c7.2 51.6 16.2 103.4 35.5 152-31.8-20.5-62-43.8-97-59l-26-69c-16-16.8-34-32.2-52-47-2.1-1.7-8-4.2-5.8-6.1 2-1.8 13.4-7.5 16.7-9.1 4.1-2.1 22.8-10.9 25.9-10.6 31.6 12.9 62 30.9 87.8 53.3 3 2 13.5-6.1 15-4.5z" class="fill" data-original-prefix="fill"/><path id="fill-jaw1" class="fill"  fill="#fff" d="M846 1457c-9.4 1.7-24.2 21.3-32.4 21.1-3.7 0-14.6-4.8-18.5-6.6-11.7-5.2-24.9-13.3-36-20.1-5.3-3.2-20.9-15.6-25.7-16.4-3-.5-12.8 1.8-16 2.9-4.2 1.4-26.5 13.6-28.4 12-2.2-17.5-17.1-36.8-12.1-54.5 4.5-16.1 33.4-52.4 45.5-65.5 2.4-2.6 13.9-14.7 16.1-15 1.6-.3 3 .2 4.5.5 12.5 2.5 27.7 8.8 40.7 12.3 27.9 7.4 55.9 13.4 84.6 16.9 22.7-11.5 45.5-22.8 69-32.8 48.7-20.8 80.7-34.3 134.2-15.8 36.9 12.8 73.1 31.7 108.1 48.7 44-5.4 86.9-16.7 128.9-30.3 4.5.4 28.7 29.4 32.9 34.7 9.2 11.7 19.5 25.6 26.1 38.9 4.6 9.2 6 13.9 3.4 24.5l-13.4 38.5c-8.4-3.8-18.3-10.2-27-13-2.9-1-13.4-3.3-16-2.9-4.8.8-25.2 16.2-31.3 19.8-10.7 6.4-24.5 14.6-36 19-3.2 1.2-10.8 4.4-13.8 4.3-6.3-.2-20.6-16.3-28.1-19.9-1-.5-2.2-1.8-3.3-.7-8.5 54.2-15.6 108.7-31.7 161.3-2.8 9.2-8.5 29.8-12.8 37.2-2.3 3.9-32.3 32.9-36.5 35.5-11.1 6.6-43 19.6-55.9 24.1-8.3 2.9-32.6 9.3-40.6 9.4-7.2 0-32.2-6.3-39.9-8.9-12.8-4.2-53.9-21.4-63-29-5.2-4.3-28.6-27.1-31.3-31.7-3.1-5.3-7.2-19.9-9.4-26.6-18.3-55.7-26-113.9-34.8-171.8Z" class="fill" data-original-prefix="fill"/><path id="outline-shading-jaw1" class="outline"  fill="#000" d="M1278 1304c.5 1.8 5.6-.4 6.8-.8 16.4-4.8 50.7-16.4 63.7-26.3 12.3-9.2 23.4-45.9 32.7-60.3 2.3-3.5 4.1-6.2 8.8-6.7 0 1.4 0 2.8-.2 4.3-1.8 8.2-7.7 21.7-11 30s-14.4 36.4-19.8 41.2c-3.5 3.1-22.8 10-19.5 16.5 1.1 2.2 11.8 12.2 14.5 15.6 10.3 12.7 18.4 26.9 27.7 40.4 25.3-5.7 50.8-12.9 73.8-24.9l1.1 4-73.1 127.9c-18.1 13.1-38.3 23.5-55.9 37.1l-50 98c-26.9 17.7-58.7 32.4-84.5 51.5-17.4 12.9-36.6 35-54.2 45.8-20.2 12.5-48.9 21.8-70.4 32.6l-92.5-.5c-20.4-12.1-46.2-19.8-66.3-31.7-19-11.3-39.6-35.5-59-49.1-25-17.6-54.1-32.4-80.5-48l-49.8-98.7c-17.4-13.3-37.2-23.2-54.4-36.6l-76-128 2.4-4.4c23.1 11.8 48.5 19.2 73.8 24.8 10.5-16.1 20.6-32.3 33.2-46.9 2.8-3.2 9-6.9 8.3-11.2-1.4-8.8-16.4-9.6-22-18.1-7.5-11.3-17.8-38.9-22.5-52.4-1-2.8-6.5-17.8-5.2-19.2 6.4.5 9.4 8.2 12.2 13.3 5.9 11.2 10.3 23.4 16.3 34.7 2.4 4.6 7.8 14.9 11.3 18 4.7 4 18.1 9.8 24.3 12.4 14.5 6.2 29.8 11.2 45 15.5-16.4-12.2-34.8-21.6-50-35.5-18.3-16.7-19.6-34.6-30.5-55.5-5.2-10.1-12.3-19.1-18.3-28.7-1.8-6.8 5.4-21.6 6.5-29 2.8-19.1 3.8-27.8 12.1-45.9 42.8-94 156.1-156.3 251.2-184.8 55.5-16.7 109-17.9 165-2 99 28.1 225.1 96.5 262.8 198.2 5.1 13.9 5.1 20.8 7.5 34.5 1.2 7.1 7.8 22.1 6.7 28.2-.6 3.4-14.5 22.1-17.5 27.5-11.3 21-13 40.9-31.5 57.5-15.3 13.8-35 25.6-53 35.5v.2Zm-200 23c-5.5-11.1-10.5-24.8-17.6-34.9-4.2-6.1-10.2-10.5-14.9-16.1-3.4-4-15.2-20.5-18.4-21.6-1.9-.6-4.4-.8-6.3-.2-2.4.7-15.7 18.7-18.7 22.3s-7.4 6.8-10.5 10.5c-9.4 11.2-15.1 26.9-21.5 40h108Zm-309.5-23v1c.7-.3.7-.7 0-1m68.5 40c-31.5-5.4-62.3-14.5-92.5-25-4.9-1.7-27.1-11.3-30-11s-12 13.5-14.3 16.7c-3.2 4.4-25.2 35.5-25.2 37.8s9.4 13.2 10.2 17.3c32.5 5.7 63.8 16 95.1 26 4.2-.8 6.5-2.9 9.2-5.8 9.8-10.1 18.8-24.6 28.5-35.5 4.9-5.5 14.2-12.6 18-18 .6-.8 1.4-1 1-2.5m525.8 35.8c.4-4.4 10.8-15.1 10.1-18.1-5.5-6.9-33.4-52.2-38.6-53.6-1.1-.3-2.2 0-3.3.3-38.7 15.6-78.8 28.3-119.9 35.6-.4 1.5.4 1.7 1 2.5 4.5 6.6 16.4 16.4 22.5 23.5 7.8 9 15.1 20.7 23 29 3 3.2 5.7 6 10.3 6.8 31.2-10.1 62.6-20.3 95.1-26zM720 1472c-.4 1.7.5 2 1.5 3 9 8.8 25.2 15.4 33.5 25.5s18.5 37.1 27.1 44.9c3 2.7 10.5 6 14.5 8.6 13.2 8.8 26.3 18.2 39.5 26.6l3.8-5.9-28.3-64.7c-11-6.6-68.3-43.6-76.8-42.8-1.4 0-14.3 4.2-14.8 4.8m608 0c-5.2-.6-13.1-5.9-18-4.6-24.8 13.7-50.3 26.3-73.5 42.6l-27.8 63.3c-1.3 2.2 2.5 8.4 5 7 9.7-7.4 19.7-14.5 29.8-21.3 5.5-3.7 18.6-10 22.5-13.5 8.1-7.4 18.5-33.8 26.1-43.9 7.6-10.3 25.5-17.8 34.5-26.5 1-.9 1.9-1.3 1.5-3Zm-194 173c-2.1-.2-3.8 0-5.7.8-24.5 9.4-50.2 38.1-77.1 42.9-17.9 3.2-50.3 3.7-67.2-3.2-20-8.2-44-31.6-64.3-39.7-1.5-.6-6.2-2.2-5.7.7 1.2 7.7 10.9 21 16 27 6.2 7.3 8.1 8.8 16.3 13.7 30.2 18.1 49.5 27.8 86.2 25.9 21.1-1.1 31-5.5 49.1-14.9 19.5-10.1 34-17.7 45.7-37.3 1.2-2 7.5-15 6.6-15.9z" class="shading" data-original-prefix="shading" opacity=".2"/><path id="outline-jaw1" class="outline"  fill="#000" d="M685 1126c.2 0 1 1.5 2.2 2.2 4.7 2.7 8.7.5 9.7 8.4.6 5.1-2.7 26.3-4.4 31.4-2.8 8.6-17 13.5-21 21-1.2 2.3-7.8 31.1-7.5 33.3.4 3.4 9.5 19 11.8 23.3 4.4 8.2 15.3 29.4 20.7 35.3 9.5 10.3 60.5 26.3 75.9 31.1 29.2 9 59.3 17.4 90 18 29.3-10.7 57.9-23.1 87.2-33.8 16.6-6 42.9-17.7 59.8-17.3 21.9.5 35-1 56.2 5.8 39.5 12.7 77.8 29.4 116.4 44.6 46.7-.8 99.9-16.6 143.1-34.6 5.7-2.4 21.2-9 25.2-12.8 4.6-4.5 15-24.5 18.7-31.3 2.7-4.9 14.7-25.5 14.9-29.2 0-1.7-6.8-30.9-7.6-32.4-3.6-6.8-19-13.6-21.2-20.8-1.7-5.6-5-27.5-4.2-32.7 1-6.5 5.7-5.1 9.7-7.3 1.2-.7 2.1-2.1 2.2-2.2 2.3-1.2 6.9-4.1 9.1-2.6 2.4 1.7.2 26 1.4 30.6 6.9 5 22.7 5.9 26 14 1.1 9.9.5 20.6 1.6 30.4.3 2.9 1 10.8 2.2 12.8 1 1.8 3.1 2.2 4.3 3.7 26.6 31.1 46.5 67.2 61.9 105.1 2.3 5.6 7.6 17.3 8.3 22.7.2 1.4.3 2.7-.6 3.9-24.7 33.2-47.1 68.3-68 104-2.9 4.9-18.6 36-20.4 37.1-3.5 2-13.7-4.6-17.5-3.1-10.9 9.5-22.5 18.2-33.3 27.8-4.6 4-16.5 13.5-19.4 17.6-5 7.1-14.8 34.1-18.3 43.7-4.2 11.1-7.7 22.4-11.3 33.7-32.1 13.9-63.4 31.2-92.5 50.5-20.4 13.5-36.7 25.2-52.5 43.5-9.8 11.4-37.1 18.8-51.9 25.1-22.8 9.6-45.2 20.4-68.5 28.3l-111.2-45.6c-6.9-2.5-9.5-12.1-13.6-15.9-1-.9-2.9-1.1-4.2-2.3-38-35.4-88.6-61.7-135.5-83.5-7.9-26.5-18.8-52-29.6-77.4-17.4-15.7-35.2-31-53.5-45.5-3.5-1.2-13.5 6.1-17.5 2.5-26.4-48.4-54.7-96.1-87.7-140.3-.8-1.3-.8-2.5-.6-3.9.7-5.4 6.1-17.1 8.3-22.7 14-34.4 31.7-67.2 54.5-96.5 8.8-11.4 12.5-9.5 14-26 .9-9.8 0-20.6 1.5-30.5 4.2-7.9 25.3-7.7 26.5-16.5.5-3.9-1.1-7.1-1-10.1 0-5.3 2-11.7 1-17.5 3.8-.6 6.8 1.5 10 3h.2Zm26 177c-17.7-4-27.7-14.6-39-27.5-9.7-11-18.5-22.9-27.6-34.4l-2.4-1.1c-14.2 23.4-27.2 48-36.8 73.8-2.4 6.3-7.3 18.9-8.1 25-.2 1.9 0 2.2.7 3.8 2.5 5.3 11 14.5 14.9 20.1 8.8 12.8 18.4 26.2 26.6 39.4 10.1 16.2 18.6 35.2 29.2 50.8 3.8 5.6 6.9 9.3 13.3 3.4-3.9-12-9.5-23.8-13.9-35.8-1.9-5.2-10.4-27.1-9.8-30.8 1-6.2 13.2-27.5 17-34.1 10-17.3 21.8-31.7 33.2-47.8.7-.9 3.3-4.1 2.6-4.9Zm626 0c-1.3 1.4 7.1 10.4 8.4 12.1 11.3 15.2 23.1 32.3 32.1 48.9 2.8 5.1 11.5 21.2 12.3 25.8.6 3.5-6.1 20.1-7.8 24.8-2 5.7-16.5 39.7-15.9 41.8 1.1 3.9 8.3 3.4 11.3-.4 10.1-12.7 19.7-35.6 28.8-50.2 8.9-14.4 19.3-29 29-43 3.9-5.6 12.4-14.8 14.9-20.1.8-1.6 1-1.9.7-3.8-.8-5.8-5.8-19-8.1-25-9.4-25.2-22.5-52-38.3-73.7-10 12-19.2 24.7-29.5 36.5-11.2 12.7-20.7 22.3-38 26.5v-.2Zm-491 154c8.7 57.8 16.5 116.1 34.8 171.8 2.2 6.6 6.3 21.3 9.4 26.6 2.7 4.6 26.2 27.4 31.3 31.7 9.1 7.6 50.2 24.8 63 29 7.7 2.6 32.8 9 39.9 8.9 8-.2 32.3-6.6 40.6-9.4 12.9-4.5 44.9-17.4 55.9-24.1 4.2-2.5 34.2-31.6 36.5-35.5 4.4-7.4 10-28 12.8-37.2 16.2-52.6 23.2-107.1 31.7-161.3 1.1-1.1 2.3.2 3.3.7 7.5 3.5 21.8 19.7 28.1 19.9 3 0 10.6-3.1 13.8-4.3 11.5-4.4 25.3-12.6 36-19 6.1-3.6 26.4-19.1 31.3-19.8 2.6-.4 13 2 16 2.9 8.6 2.8 18.6 9.2 27 13l13.4-38.5c2.5-10.5 1.2-15.2-3.4-24.5-6.6-13.3-16.9-27.2-26.1-38.9-4.2-5.3-28.4-34.3-32.9-34.7-42 13.6-84.9 24.9-128.9 30.3-35-17-71.2-35.9-108.1-48.7-53.5-18.5-85.5-4.9-134.2 15.8-23.5 10-46.2 21.3-69 32.8-28.7-3.5-56.7-9.6-84.6-16.9-13-3.4-28.2-9.8-40.7-12.3-1.5-.3-2.9-.7-4.5-.5-2.1.3-13.7 12.4-16.1 15-12.1 13-41 49.3-45.5 65.5-5 17.8 9.9 37 12.1 54.5 1.9 1.6 24.2-10.6 28.4-12 3.2-1.1 13-3.4 16-2.9 4.8.8 20.3 13.2 25.7 16.4 11 6.7 24.3 14.8 36 20.1 3.9 1.8 14.8 6.5 18.5 6.6 8.2.2 23-19.4 32.4-21.1Zm-5 44c-1.5-1.6-11.9 6.6-15 4.5-25.7-22.4-56.2-40.4-87.8-53.3-3.1-.3-21.8 8.5-25.9 10.6-3.3 1.6-14.7 7.3-16.7 9.1-2.1 1.9 3.8 4.4 5.8 6.1 18 14.8 36 30.2 52 47l26 69c35 15.1 65.2 38.4 97 59-19.3-48.5-28.3-100.3-35.5-152zm512-29c-14.7-6.6-28.6-16.2-44.2-19.9-30.7 13.7-60.4 30.3-85.8 52.3-5.5 2.5-14.6-4.9-16-3.5-7.7 51.5-15.8 103.7-36 152l58.7-38.8 39.1-20.4c9.2-20.8 14.7-48.4 25.4-68.1 5.2-9.6 37.2-35.2 47.4-43.6 3.1-2.6 8.3-5.6 10.8-7.9.8-.8.9-.7.6-2.1" class="outline" data-original-prefix="outline"/></g><g id="03_Mouth" data-trait="cracked scrappy"><path id="fill-muzzle-1" class="fill"  fill="#fff" d="M1038 1292s-.4 1.7.7 2c10.3 2.8 18 4.3 25.8 13 1.9 2.2 4.9 8.8 6.5 9.5 2.6 1.2 6.6 0 9.5.5 11.4 1.5 21.2 3.7 31.2 9.8 2.1 1.3 9.2 7.8 10.2 7.1.3-.3 0-1.7 0-1.9 2.4-1.8 32.7.6 38 1 5.2 4.2 13.2 5.5 19.2 8.3 13.7 6.4 22.5 16.1 29.9 29.1 8.4 14.6 7.7 17.8 3.1 33.4-2.5 8.5-4.8 21.8-16.3 20.2 1.5-15.5-14.8-32.4-26.5-41-3.2-2.4-11.3-7.2-6 0 10.7 14.6 20.5 15 21.5 37.5.5 10.4-8.3 32.8-15.4 40.5-.6.7-7.1 6.3-7.6 6.5-3 1.6-6.8-6.1-7.8-8.2-3.7-7.7-4.8-15.6-9.7-23.3-1.1-1.7-10.8-13.7-12.4-12.1 5.6 13 9 46.2-2.5 56-4.4 3.7-9.4 1.9-13.3 3.7-2.8 1.3-3.1 5.8-4.8 6.2-.9.2-7.2-3.2-9.4-3.5-9.3-1.3-13.1 17-18.7 17.4-2.5.2-10.7-11.9-18.4-9.4-6.8 2.2-15.3 20.6-23.6 23.5-7.3-4.5-4.2-14-6.6-21.1-1.2-3.5-4.2-6.7-5.8-10.2-5.4-12.7-2.8-19.9-.2-32.2.7-3.3-.2-6.3 1.2-9.8.4-1 6-11.5 6.6-12.4 3.7-5.4 19.2-12.4 22.7-3.8.9 2.2 0 8.7 2.2 7.7 5.1-4.9 10.2-9.9 15.5-14.5 10.2-8.9 12.8-8.2 19.5-21.5 1.9-3.8 8.1-17.3 8.2-20.7.2-6.3-17.9-22.6-21-29-3.6-2.9-22.1-2.8-27.2-2.3-14.1 1.5-18 12.2-27.5 19.5-1 .8-1.3 1.9-3 1.5l.8-12.7c7.6-8.2 14.9-16.6 21.1-26 .7-3.3-8.6-12.4-11.3-13.2-3.6-1 .5 5.5.5 6.6.4 5.2-5.9 4.1-9.3 5.6-1.2.5-3 2.7-3.2 2.7s-2-2.2-3.2-2.7c-8-3.5-11.7.6-7.3-12.2-1.6-1.7-12.5 9.1-12.9 11.7-.2 1.6 3.6 7.8 4.8 9.5 1.5 2 5 5.9 7 8.3 3.2 3.9 9.7 7.7 9.9 13.1 0 1.6-.8 3.1-.8 4.8s2.6 8.1-2.5 3.6c-6.2-5.3-10.1-13.6-18.5-17.5-6.8-3.1-28.3-4.1-34.7-.8-.8.4-9.9 11.1-11.2 12.8-2.4 3-10.9 13.7-10.8 16.8.2 5.1 11.2 27.9 14.7 32.2 2.8 3.4 10.2 7.7 14 11 5 4.3 9.7 9.1 14.5 13.5 2.2.9 1.5-5.2 2-7 2.4-9.9 19.2-2.4 23 3.1.7.9 6.6 13.1 6.9 14.1 2.9 11 5.6 26.6 1.9 37.5-1.7 4.9-6.8 10.4-7.8 15.2-1.4 6.6 1 13.6-5 19-5.3 1.2-18.8-21.7-24.4-23.5-8.2-2.6-15.9 9.6-18.4 9.4-5.3-.4-8.7-14-13.9-16.1-6.9-2.8-11.5 2.7-14.1 2.1-1.8-.4-2-4.8-4.8-6.1-4.5-2-9.6.3-14.3-4.7-10.9-11.5-6.5-42.2-1.5-56.1-9.1 6.7-14.1 14.8-18.5 25-1.6 3.6-2 7.5-3.7 11.3-1 2.1-4.9 9.8-7.8 8.2-.4-.2-6.9-5.8-7.5-6.5-4-4.2-13.8-24.3-15-30-2.8-12.9 1.4-26.5 9.5-36.5 4.1-5.1 11.3-9 13-15.5-2.4-2.4-22.3 17.4-24.4 20.1-5.4 6.8-11 15.9-9.6 24.9-4.7.2-8.1-.7-10.8-4.7-1.8-2.7-8.8-24.3-9.2-27.8-1.1-10.9 10.9-28.8 18-37 10.5-12.2 24.5-14.2 38-21.5 12.5-.8 24.5-2.3 37-1 0 0 .7 2.1.5 3 9.5-8.2 20.6-14.8 33.1-16.9 4.7-.8 14.8-.4 18.1-1.8 1.6-.7 5.2-7.7 7.2-9.9 8-8.4 15.2-9.7 25.4-12.5 1.1-.3.6-1.9.7-2 1.1-.7 25.9-.7 27 0Z" class="fill" data-original-prefix="fill"/><path id="fill-teeth16" class="fill"  fill="#fff" d="M995.3 1525.7c11 9.5 17.2-6.6 23.2 6.3 6.5 14.1 3.7 38.4-1 52.9-.7 2.1-7.1 16.9-8 17.1-1.2.3-3-.4-4.2-.9-12-5.1-31.7-18.1-39.1-28.9-10.6-15.5-6.4-42.9 6.8-55.8 1.3-1.3 9.1-5.6 10.4-5.3 1.5.3 9.4 12.3 12 14.5h-.1Z" class="fill" data-original-prefix="fill"/><path id="fill-teeth15" class="fill"  fill="#fff" d="M1039.1 1601.9c-.8-.5-7.5-16.1-8.1-18.4-4.1-13.8-6.5-36.9-1.3-50.3 4.6-12 8.1-4.3 15.8-4.2 9.5.2 17.3-18.2 20.8-17.9 1.2 0 8.5 4.2 9.7 5.3 6.3 6.2 12.2 22.3 13 31 2.4 28-20.3 39.6-41.3 50.7-2 1.1-5.7 5.5-8.6 3.7Z" class="fill" data-original-prefix="fill"/><path id="fill-teeth14" class="fill"  fill="#fff" d="M904 1461c0 2.2-1.1 3.8-.8 6.2.2 1.8 7.1 22 8 23.1 3.9 5.1 11.2 3.2 16.7 3.8 4.9 13.5-4.2 23.8-8.6 35.6-2 5.3-8.7 33.1-12.8 34.2-1.8.5-6.8-9.1-8.3-10.7-10.3-23.9-15.3-58.4-2.6-82.2.6-1.2 7.1-11.6 8.4-10.1Z" class="fill" data-original-prefix="fill"/><path id="fill-teeth13" class="fill"  fill="#fff" d="M1144 1564c-2.1 1.4-6.1-7.1-6.8-8.7-3.2-7.9-4.4-17.4-7.5-25.5-4.3-11.6-13.6-22-8.6-35.6 4.8-.6 12.3 1.2 15.9-2.9 1.3-1.5 8.1-20.6 8.6-23.2.3-1.8-1.4-7 .9-6 6 2.7 13.7 26 14.4 32.6 1.4 13.9-2.9 45-9.3 57.4-.8 1.5-7 11.6-7.6 11.9" class="fill" data-original-prefix="fill"/><path id="fill-teeth12" class="fill"  fill="#fff" d="M1093.1 1644.9c-2.9-1.8-2.4-28.5-2.1-33.4.7-10.5 5.2-31.2 8.9-41.1 1.1-2.8 2.4-1.4 4.2 0 12.2 9.6 21.1 44.8 12.8 57.9-1.9 3-15.6 14.9-18.9 16.1-1.3.5-3.8 1.1-4.8.4Z" class="fill" data-original-prefix="fill"/><path id="fill-teeth11" class="fill"  fill="#fff" d="M949 1569c5.5 22 11.1 44.4 9 67.5-.5 5.2-.9 10.3-7 8-3.4-1.3-17.5-13.4-19.5-16.5-5.8-9.2-1.4-31.3 2.7-41.2 1.2-2.9 11.3-21 14.8-17.7Z" class="fill" data-original-prefix="fill"/><path id="fill-teeth10" class="fill"  fill="#fff" d="M881.7 1478.3c3.1 2.8-2.7 21-2.8 26.2 0 5.9 2.6 12.4 3.1 18 .2 2.1.7 24.5-.5 24.5-1.5.2-2.1-1.1-2.9-2.1-15.6-18.9-34.8-51.8-17.4-75.3 6.5-8.8 10.5 2.1 14.9 5.8 1.8 1.5 4.9 2.1 5.7 2.8Z" class="fill" data-original-prefix="fill"/><path id="fill-teeth9" class="fill"  fill="#fff" d="M1185.7 1467.3c1.9 1.6 7.8 13.7 8.2 16.2 3.2 20.7-9.8 47.3-23.9 61.9-.9 1-1.3 1.9-3 1.5.5-8-.7-16.6 0-24.5.4-5.4 3.1-12.3 3.1-18s-6.1-23.4-2.8-26.2c.6-.6 2.5-.6 3.8-1.7 3.4-3 10-13.1 14.7-9.3Z" class="fill" data-original-prefix="fill"/><path id="fill-teeth8" class="fill"  fill="#fff" d="M1018 1613v16.5c0 .9-10.8 13.2-11.9 14.1-6.3 4.8-8-2.6-10.6-5.5-5.5-6-17.9-.4-24.4-5.6-1.2-.9-4.1-8.8-4.1-9.9v-22.5c12.9 1.7 28.3 17.5 41.4 15.9 3.5-.4 6.1-3 9.6-2.9Z" class="fill" data-original-prefix="fill"/><path id="fill-teeth7" class="fill"  fill="#fff" d="M1031 1613c6.3 1.3 9.1 4 16.1 2.6 10.6-2.2 24.3-14.8 33.4-15.6 2-.2 1.4 0 1.2 1.3-.8 6.5 2.4 27.5-4.4 31.6-7 4.2-18.8-.3-23.4 4.6-2.1 2.2-3.6 8-8.4 7.6-1 0-14.6-13.5-14.6-14.6V1613z" class="fill" data-original-prefix="fill"/><path id="fill-teeth6" class="fill"  fill="#fff" d="M1102.5 1494c3.3-.8 4.5 6.9 5.3 8.7 5.6 12.1 13 24.8 13.3 38.8.2 9-16 29.8-21.3 16.2-4-10.4-4.1-44.8-1.1-55.5.4-1.6 2.4-7.9 3.8-8.2" class="fill" data-original-prefix="fill"/><path id="fill-teeth5" class="fill"  fill="#fff" d="M937.3 1559.7c-1.9-1.6-7.8-10.5-8.5-13-3.6-12.1 6-31.3 11.4-42 1.6-3.1 3.3-14.7 8-7.4 5.5 8.5 4.3 41.5 2.7 52.1-1.2 7.7-3.6 18.7-13.6 10.3" class="fill" data-original-prefix="fill"/><path id="fill-teeth4" class="fill"  fill="#fff" d="M917 1563c-1.8 13.4 2.9 27.5 2 40.5-.6 9-4.4 18.4-5.5 27.5-6.2-6-10.5-16.1-11.4-24.6-.5-5.2.7-24.7 2.4-29.3.6-1.6 10.5-16.2 12.4-14.1Z" class="fill" data-original-prefix="fill"/><path id="fill-teeth3" class="fill"  fill="#fff" d="M1135 1631c-.4-8.9-4.4-17.8-5.1-26.5-1-13.8 3.7-27.6 2-41.5 2.2-2.4 11.9 13 12.5 15 2 6.6 2.6 27.4 1.2 34.3-1.3 6.3-5.5 14.9-10.8 18.7z" class="fill" data-original-prefix="fill"/><path id="fill-teeth2" class="fill"  fill="#fff" d="M1154.1 1604.9c-3.4-2-5.1-22.3-3.9-26.2.8-2.6 8.9-5.2 10.2-8.8l5.1-10.9c3.8 3.4 5.1 7.2 4.3 12.2-.7 4.2-5.4 22.7-6.9 26.2-.9 2.2-6.1 9-8.8 7.5" class="fill" data-original-prefix="fill"/><path id="fill-teeth1" class="fill"  fill="#fff" d="M885 1559c-.3 3.7 1.7 9.4 4 12.2s9.5 5.2 10 8.3c-2 8.4 1.6 19.2-5.7 25.4-3.6-1.1-6-4-7.4-7.4s-6.5-23.6-6.9-27.1c-.5-4.2 1.2-10.6 5.9-11.4z" class="fill" data-original-prefix="fill"/><path id="outline-shading-mouth2" class="outline"  fill="#000" d="M918 1443.5c.8 5.3 5.6 13.8 10.1 16.9 11.5 8.3 16.2-.3 22.4-9.4 2.5 5.4 3.4 11.5 6 17 1.4 2.8 5.7 12 7.5 5.5l4-11.5c1.6 7.5 6.3 15.4 11.5 21 4.3 4.7 18.8 15.4 24.6 9.6 2-2.1 8.3-17.9 10.8-22.2 1.2-2.2 7.8-13.8 9.7-13.3 1 .2 8.5 13.2 9.7 15.3 2.4 4.5 7.3 17.7 9.8 20.2 3.8 3.8 10.5.4 14.4-1.8 10.5-5.9 18.5-17.2 21.7-28.8l4.2 12.3c.3 1.2 1.9 2.4 2.8 1.7.6-.4 5.8-11.3 6.5-13 .8-2 2.8-12 4-12 6.8 10.7 12.9 18.4 24.5 7.5 8.6-8 9.3-23.8 7-34.5 3.5-3.1 21.1 16.1 26.6 16.9 9.1 1.4 17.6-11.8 19-19.9 3.5-20.5-12.9-39.2-30.9-46.2l-12.7-4.8c15.4 0 28.2 2.9 41.1 11.4 4.8 3.1 12.2 10.9 17.6 11.4 6.2.6 10.1-4.1 10-10-.4-19.3-25.8-38.1-39.7-48.8 15.4 2.4 34.6 11.8 45 23.5 7.8 8.8 19.1 25.1 19.1 37s-6.4 28.5-9.2 32.8c-3.3 5.3-11.7 5.4-13.4 10.6-.9 8.1-2.1 16.4-2.5 24.5-1.5 29 1.4 45.2-10.8 73.2-3.6 8.2-12.7 20.4-14.9 27.1-4.2 12.8-.7 26.4-9.1 38.9-3.2 4.8-8.4 6.7-11.2 10.8-1.7 2.5-2.4 6.1-4.2 8.8-4.5 6.7-14.6 23-21.6 8.9-1.6-3.3-1.3-12.9-6.7-6.2-1.4 1.7-1.9 4.4-3.5 6.5-3.7 4.7-17.7 19.6-23.5 19.5-2.2 0-4.5-4.1-6.6-5.4-7.9-5-21.1-6.3-29.2-1.4-7.3 4.4-9.5 13.6-18.1 6.8s-6.4-10.8-20.1-9c-5.6.7-11.4 12.6-16.9 12.1-2.8-.2-11.4-11.1-18.5-12.6-6.3-1.3-17.5.7-23 4.2-2.6 1.7-4.1 5.6-7.5 5.4-5.7-.3-19.8-15.8-23.6-20.5-1.2-1.5-4.4-10.6-7.1-6.9-2.5 3.4-.6 9.9-7.2 12.7-7 3-14.9-11.2-18.1-16.4-1.2-1.8-1.2-4.3-2.6-6.4-2-3-6.8-5.4-9.5-8.5-10.4-11.9-6.7-27.7-10.7-41.3-.8-2.6-5.6-8.5-7.3-11.7-18.4-35.7-16.4-45.6-18.4-84.6-.4-7.7-.6-20.7-2.2-27.8-1.5-6.2-11.1-6.1-14.2-11.8-3.4-6.1-9.3-29.6-8.6-36.4 1.2-10.3 16.2-31.2 24-38 10.5-9.2 26.2-16.5 40-18.5l-21.5 17c-7.2 6.4-26.8 32-14.8 39.9 9 5.9 16.7-4.5 23.7-9.1 12.7-8.4 25.3-11.8 40.7-11.8l-17.3 7.2c-18 9.4-33.1 32.7-22.1 52.8 1.7 3.1 8.6 10.4 12 11.1 9.1 1.7 20.7-15.4 29.5-18 .6 6.4-.9 14.3 0 20.5zm-37.1 40.6c-12.3-.5-17.1-20.2-22.8 1.5-3.4 13 1.2 26.4 9.4 36.5 1.5 1.8 12.7 13.1 13.9 12.9.8 0 2.5-2.3 2.8-3.2 2.9-7.1-3.2-12.2-4.2-19.2-1.5-9.8 0-18.7.9-28.4Zm301.8-8.9c-3.2.8-6.3 6-8.8 7.3-2.1 1.1-7.2 1-7.8 3.2-.5 1.7 3 10.8 2.9 14.8 0 3-1.5 13.9-2.2 16.8-.9 3.6-3.9 5.7-3.9 10.2s1.4 7.1 3.7 7.4c1.9.3 15-14.4 16.8-17 5.7-8.5 9-18.8 7.3-29.2-.5-3-4.4-14.5-8-13.6Zm-284.8 10c-4-2.3-6.5 9.9-6.8 12.5-1.2 10.5 3 38 8.7 47.1 1.9 3 5.4 6.9 9.2 7.3 3.7-15.6 12.6-29.2 21-42.5-2.3-.4-1.7-2.9-2.7-3.5-1.5-.9-7-1.9-9.7-3.1-4.7-2.2-12-7.7-15.6-11.4-1.2-1.2-3.8-6.2-4.2-6.3ZM1139 1552c8.3-2 11.9-12.2 13.9-19.6 3.1-12.1 6.1-33.4 1.1-44.8-3-6.9-5.8 1.7-8.3 4.1-3.9 3.8-11 9.3-16 11.6-2.5 1.1-7.8 1.8-9.1 2.7-.7.5-.5 1.8-1 2.7-.3.4-1.7.4-1.6.9 0 1 7.9 12.3 9.2 14.8 4.8 8.8 9.1 18 11.8 27.7Zm-197.7 5.7c8.1 8.1 9.5 0 10.5-7.3.8-5.6 2.7-20.6 1.7-25.4-3.6-17.2-21.3-15.9-21.6 3.6 0 6.8 4.6 24.3 9.4 29.2Zm161.5-44.5c-5 1.3-8.5 9.3-8.8 14.2-.2 4 2.4 28.5 3.8 31.3 2.5 5 7.5 0 9.8-2.7 6.8-8.3 11.6-30.7 4.5-39.5-2.7-3.3-4.8-4.4-9.2-3.3zM1023 1544c-.7-.7-.8-7-5.1-9.4-8.9-5-21.8-.8-32-4-10.4-3.3-9.4-13.1-16.1 1.8-2.9 6.4-9.1 24.4-6.3 30.7 1.1 2.4 17.8 15.6 21.2 17.8s18.2 11.7 21.1 10c3.1-5.6 9.3-9.5 12.6-14.9 1.8-2.8 4.1-11.5 4.6-11.9 1.6-1.7 1.7.5 2.1 1.4 1.6 3.6 2.1 6.8 4.5 10.5 3.3 5.2 9.2 9.3 12.4 14.6 3.1 1.9 15.5-5.9 18.9-8.1 4.5-2.9 22.9-17 23.9-21.1 2.2-9.7-6.6-28.3-10.9-37.2-4.9 1-7.8 5.2-12.7 6.7-9.2 2.8-28.2-1.6-33.7 6.3-.9 1.2-2.6 8.9-4.5 7zm-136 18c-.7-.6-3.5 0-4.5.9-6 6.2 2.4 31.6 14.6 27.6 4-1.3 3.8-9.4 2.8-12.9-1.1-3.9-7.2-4.1-9.8-7.2-2.1-2.5-2.7-8.2-3-8.5Zm274.1 0c-.3.3-.9 6-3 8.5-2.6 3.1-8.7 3.3-9.8 7.2-1 3.4-1.2 11.6 2.8 12.9 13.4 4.4 20.2-24.5 14.1-28.1-.9-.5-3.5-.9-4-.4Zm-216.4 7.2c-1.5.4-5.1 4.6-6 6.1-3.4 5.6-5.6 32.3-4.8 39.3 1.3 10.9 15.2 18 19.5 3.5 1.7-5.6 2.6-21.4 2.5-27.6 0-1.1-5.8-19.7-6.5-20.5-1.2-1.4-3.2-1.3-4.8-.8Zm153.3-.1c.2 6.6-5.4 14.7-6 20.6-.5 4.5 1 25.3 2.4 29.4 4.2 12.1 16.9 7.3 19.1-2.9 1.1-5.2 0-16.8-.6-22.6-1-9.7-1.7-25.5-14.9-24.5m-180 1.9c-20.5 3.8-17 28.7-9 43 4 2.9 10.4-17 10.7-19.8.9-7.5-2.9-15.5-1.8-23.2Zm218 43c2.5 1.8 7.2-9.1 7.7-10.8 3.9-12.8 1.6-30.1-13.7-32.2.5 7.4-2.8 16.2-1.9 23.4.3 2.7 6.4 18.5 7.9 19.6m-148.2 10.2c1.4.8 4.8 8.6 9.5 11 11.1 5.8 20.2-6.4 20.7-16.7.8-13.7-7.2-7.7-16.5-8.6-8.4-.8-15-4.8-21.8-9.2-5.5-3.5-13.6-14.6-14.7-1.4-.5 5.1 1.4 7.5 1.8 11.2s-2 5.9.5 10.7c4.8 9.3 18 1.3 20.7 2.8zm93.1-31.1c-2.1-1.5-19.7 12.7-23.9 14.4-2.3 1-7.9 2.3-10.5 2.5-10.5.9-18.8-5.4-16.4 11.4 1 7.3 7.9 15.8 16 15.1 9.4-.8 11.9-11.6 14.6-12.4 4-1.3 12.3 5.7 18.9-1.1 4.3-4.4 1.3-8.4 1.5-12.5 0-2.3 1.9-4.8 2-8.1 0-1.9-.8-8.5-2.2-9.4Z" class="shading" data-original-prefix="shading" opacity=".2"/><path id="outline-shading-mouth1" class="outline"  fill="#000" d="M1041 1343c6.1.5 12.7-1 17.5-5 1.5-1.3.9-3.7 2.8-2.9 10.1 7.9 37.9 17.4 43.8 28.2 3.6 6.5 4.6 17.5-1.8 22.6-5.6 4.5-20.8 10.8-28 15-4.9 2.8-9.7 6.6-14.7 9.3-7.4 4.1-25.5 14.5-32.6 16.4-2.9.8-5.2.8-8.1 0-14.5-3.8-42.2-22.5-56.3-30.7-6.2-3.6-21.2-9.1-23.2-15.8-5.5-18.4 15.7-28.3 28.7-35.4 2.3-1.2 15.5-8.6 16.5-8.7 2.9-.3 4.2 2.9 6.7 4.2 4.2 2.3 10 3.2 14.7 2.8-.3-5.1-3.3-11.3-1.8-16.3.5-1.6 12.5-13.9 14.5-14.4 3.9-1 8.2-.3 11.6 1.9 1 .7 10.8 11.1 11.2 11.8 2.1 5-1.2 11.8-1.5 17" class="shading" data-original-prefix="shading" opacity=".2"/><path id="outline-mouth3" class="outline"  fill="#000" d="M889 1333c-13.5 7.3-27.4 9.4-38 21.5-7.1 8.2-19.1 26.1-18 37 .3 3.5 7.3 25.1 9.2 27.8 2.7 4 6.1 4.9 10.8 4.7-1.4-9 4.2-18.1 9.6-24.9 2.1-2.6 22-22.5 24.4-20.1-1.7 6.5-8.8 10.4-13 15.5-8.1 10-12.3 23.6-9.5 36.5 1.2 5.7 11 25.8 15 30 .7.7 7.1 6.3 7.5 6.5 3 1.5 6.9-6.1 7.8-8.2 1.7-3.8 2.1-7.7 3.7-11.3 4.4-10.2 9.4-18.4 18.5-25-5.1 13.9-9.5 44.6 1.5 56.1 4.8 5 9.9 2.7 14.3 4.7 2.8 1.3 3 5.7 4.8 6.1 2.6.6 7.2-4.9 14.1-2.1 5.2 2.1 8.6 15.6 13.9 16.1 2.5.2 10.2-12 18.4-9.4 5.6 1.8 19.1 24.8 24.4 23.5 6.1-5.4 3.7-12.4 5-19 1-4.8 6.1-10.3 7.8-15.2 3.7-10.9 1-26.5-1.9-37.5-.3-1.1-6.2-13.2-6.9-14.1-3.8-5.5-20.6-13-23-3.1-.4 1.8.2 7.9-2 7-4.8-4.4-9.5-9.2-14.5-13.5-3.8-3.3-11.2-7.6-14-11-3.5-4.3-14.5-27.1-14.7-32.2 0-3.1 8.4-13.8 10.8-16.8 1.4-1.7 10.5-12.5 11.2-12.8 6.4-3.2 28-2.3 34.7.8 8.4 3.8 12.4 12.1 18.5 17.5 5.2 4.5 2.5-1.7 2.5-3.6s.9-3.2.8-4.8c-.2-5.4-6.7-9.2-9.9-13.1-2-2.4-5.5-6.3-7-8.3-1.2-1.7-5.1-7.9-4.8-9.5.4-2.6 11.3-13.4 12.9-11.7-4.4 12.8-.7 8.7 7.3 12.2 1.2.5 3 2.7 3.2 2.7s2-2.2 3.2-2.7c3.4-1.5 9.7-.4 9.3-5.6 0-1.1-4.1-7.6-.5-6.6 2.8.8 12.1 10 11.3 13.2-6.2 9.4-13.5 17.8-21.1 26l-.8 12.7c1.7.4 2-.7 3-1.5 9.5-7.3 13.4-18 27.5-19.5 5.1-.6 23.6-.6 27.2 2.3 3.2 6.4 21.2 22.7 21 29 0 3.4-6.3 16.9-8.2 20.7-6.8 13.3-9.3 12.6-19.5 21.5-5.3 4.6-10.4 9.6-15.5 14.5-2.2.9-1.4-5.6-2.2-7.7-3.4-8.6-19-1.6-22.7 3.8-.6.9-6.2 11.4-6.6 12.4-1.3 3.6-.5 6.5-1.2 9.8-2.6 12.3-5.2 19.6.2 32.2 1.5 3.5 4.6 6.8 5.8 10.2 2.4 7.1-.8 16.6 6.6 21.1 8.3-2.8 16.9-21.3 23.6-23.5 7.7-2.4 15.9 9.6 18.4 9.4 5.6-.5 9.4-18.8 18.7-17.4 2.2.3 8.4 3.7 9.4 3.5 1.7-.4 2-4.9 4.8-6.2 3.9-1.8 8.9 0 13.3-3.7 11.5-9.9 8.1-43 2.5-56 1.6-1.6 11.3 10.4 12.4 12.1 4.9 7.6 6.1 15.6 9.7 23.3 1 2.1 4.8 9.8 7.8 8.2.4-.2 6.9-5.8 7.6-6.5 7.1-7.7 15.9-30.1 15.4-40.5-1-22.4-10.8-22.9-21.5-37.5-5.3-7.2 2.8-2.4 6 0 11.8 8.6 28 25.5 26.5 41 11.4 1.6 13.7-11.7 16.3-20.2 4.6-15.6 5.3-18.8-3.1-33.4-7.4-13-16.3-22.7-29.9-29.1-6-2.8-14.1-4.1-19.2-8.3 9.3.7 19.7 2.8 29.2 5.3 7.4 1.9 14.4 3.9 20.7 8.3 3.2 9.3 27.6 34.6 28 42 .2 3.9-8.4 23-10.2 28.7-2.4 7.4-1.3 15.8-9 20-2.1 1.1-8.8 2.4-9.5 3-3.6 3.6-1.9 26-2.2 32.3-1.2 29.7-2.2 52.7-20.5 77.5-.9 1.2-2.6 1.5-3.6 2.7-4.3 5.6-2.8 18.6-4.3 26.5-1.1 6-5 13.1-5.6 18.4-.4 3.6 1.4 7.3.2 10.1-1 2.4-9.9 8-12.6 9.5-2.2 1.2-5.7 1.5-6.5 2-.6.4-5.4 10.9-7.2 13.3-2.1 2.7-11.1 11.3-14 12.1-4.1 1.2-7.9-10.3-9.9-13s-2.3 2.3-3.6 4.3c-4.3 6.7-25.1 26.6-32.4 28.6-1.7.5-3.3.7-5 .5-.2-6.5 3.6-11.9-3-16.5-7.6-5.2-17.7 0-21.5 7.4-4.2 8.3-1.8 29.9-14.4 16.5-7.1-7.5-13-17.8-18.5-26.4-2.8 5-19.9 30.6-24 31-5.8.6-5.9-11.5-7.2-15.8-2.5-8.5-10.5-17.7-20-14.4-12.1 4.1-4.7 16.7-6.3 18.2-6 1.1-9.7-4.5-15-5-1.3 6.3-5.2 11.9-5.1 18.5.2 11.2 13.9 23.7 10.9 33.8-.8 2.7-3.4 3.2-5.5 1.4-3.7-3.3-7.9-17.8-10.4-23.1-3.8-8-11.3-14.9-9.4-23.7 1-4.7 7.9-13.9 7.6-17.4-.5-5.3-12.8-12.5-12-18.6-1.2-.2-1.3-.3-2.1.6-2.1 2.7-6.2 14.3-10.2 13.3s-12-10.2-13.7-12.4c-2.1-2.7-6.6-12.8-7.2-13.2-.7-.5-4.2-.8-6.5-2-2.5-1.3-12.6-7.8-13.2-9.9s1.2-6.2.8-9.7c-.6-5.1-4.5-11.5-5.6-17.4-1.7-8.4.3-19.9-3.9-26.1-5.9-8.8-10.5-12.8-15.3-23.7-13.6-31.3-7.5-52.3-10.1-83.9-.8-9.9-3.8-5.3-10.8-9.3-8.2-4.6-6.8-13.1-9.3-20.7-1.9-5.9-9.7-21.8-10-26.1-.2-3.3 1.1-4.7 2.5-7.3 6.8-12.4 18.9-24.3 26.1-36.9 5.9-4.3 13.2-6 20.1-7.9 9.7-2.6 19.8-4.7 29.2-5.3Zm15 128c-1.4-1.5-7.8 8.9-8.4 10.1-10.6 19.9-8.6 50.8-1.8 71.7 1.1 3.3 9.4 22.1 12.8 21.2 4.4-1.1 10.8-28.9 12.8-34.3 4.3-11.7 13.6-22.1 8.6-35.6-4.8-.6-12.2 1.2-15.9-2.9-1.4-1.5-8.5-21.7-8.8-24s.8-4 .8-6.2Zm240 103c.6-.4 6.8-10.5 7.5-12 6.2-12 8.8-32.9 9.5-46.5.8-15.3-4.1-32.2-14.6-43.5l-2.2 9.8c-4.9 13.6-4.6 25.2-23.1 22.4-5.2 13.7 4.3 23.9 8.6 35.6 3.1 8.4 6 27.5 11.8 33.2.7.7 1.4 1.8 2.4 1.1Zm-262.3-85.7c-1-.9-4.6-2-6.6-3.9-4.2-3.9-7.8-13.1-14-4.7-13.3 17.9-4.1 44.9 7 61.7 1.6 2.4 11.5 15.7 13.3 15.7.5-8 1.2-16.5.5-24.5-.4-5.4-3.1-12.3-3.1-18s6-23.3 2.8-26.2ZM1167 1547c1.7.4 2-.5 3-1.5 17.5-18 32.6-50.9 18.4-74.4-6.5-10.8-10.8-.4-16.9 4.9-2 1.7-5 1.6-5.5 4.5-.8 4.5 4 18.3 4 24s-3.3 14.8-3.6 21.2 1.6 14.6.6 21.3m-219.1-51.9c-4.7-3.3-6.5 7.1-7.7 9.6-5.3 11-11.8 23-12.2 35.8-.2 7.6 10.5 26.2 19.1 21 3-1.8 4.7-18 5-22 .4-6.4.2-41.4-4.1-44.4Zm67.8 32.2c-3.2-2.8-9.7 3.2-15.8 1.3-2.1-.7-8.7-7.5-10.5-9.5-2.6-2.9-3.4-8.8-8.2-7.4-12.2 3.5-20.5 24.1-21.2 35.9-.9 13.6 2.4 21.7 11.5 31.5 9.8 10.4 24 15.7 36.1 23h2.3c2.1-6.4 6.2-12 8.1-18.4 3.7-12.2 7.9-47.3-2.3-56.2zm23.4 74.6c1.1.7 3.4 0 4.6-.7 5.6-2.4 20.1-11.1 25.2-14.8 13.4-9.8 21.4-21.7 20.1-38.9-.9-11.9-9.2-33-22-36.1-4.4-1.1-5.5 5-8 8-1.7 1.9-7.3 7.9-9.2 8.8-9.2 4-14.3-9-20 5-5.4 13.2-2.6 37.5 1.5 51.1.7 2.2 7.1 17.1 7.9 17.6ZM885 1559c-3.2-3.3-6.4 8.4-5.8 12.3.7 4.5 5.4 23.4 7 27 1 2.2 6.2 8.5 8.7 6.7 3.4-2.4 3.2-20.7 4-25.4-.5-3.1-8.3-6.1-11-10-2.3-3.5-2.6-10.1-3-10.5Zm32 4c-1.9-2.2-11.8 12.5-12.4 14.1-1.7 4.6-3 25.2-2.4 30.3.9 7.9 5.6 18 11.4 23.6 1.4-8.8 5-18.6 5.5-27.5.8-13.1-3.7-27.1-2-40.5Zm218 68c7.1-5.4 12.1-18.8 11.8-27.5 0-2.6-1.7-5.2-1.8-8-.3-5.4.8-12.5-.5-17.5-.6-2.3-10.4-17.3-12.5-15 1.5 13.8-3.1 28-2 41.5.7 8.7 4.6 17.6 5.1 26.5Zm-35-62c-2.8 14.2-8.1 27.9-9 42.5-.3 5.3-1.4 33.3 3.6 34.4 2.4.6 18.8-13.3 20.9-15.9 8.3-10.5 3.8-32.3-1-44-1.2-2.9-11-19.9-14.5-17m-82 44c-3.5 0-6.1 2.5-9.6 2.9-12.7 1.6-29.1-13.9-41.4-16.9v24.5c0 .6 3.2 8.2 4.1 8.9 6.5 5.2 18.9-.4 24.4 5.6 2.6 2.9 4.3 10.3 10.6 5.5 1.1-.8 11.9-13.1 11.9-14.1v-16.5Zm64-13c-13.2 1.2-27.8 17.6-41.4 15.9-3.5-.4-6.1-3-9.6-2.9v17.5c0 1.1 13 14.6 15.4 14.5 4.9-.3 5.1-4.7 7.1-7 5.5-6 18.3-.4 24.4-5.6 1-.9 4-9.7 4-11v-21.5Z" class="outline" data-original-prefix="outline"/><path id="outline-mouth2" class="outline"  fill="#000" d="M1122 1332c-.2 0 .2 1.6 0 1.9-1 .8-8.1-5.8-10.2-7.1-10-6.1-19.8-8.3-31.2-9.8-2.9-.4-6.9.7-9.5-.5-1.5-.8-4.5-7.4-6.5-9.5-7.8-8.7-15.6-10.2-25.8-13-1.1-.3-.6-1.9-.7-2 3.1-3.8 16.2-9.3 20.8-9.8 7.9-.9 5.5 4.4 6.5 9.1 2.3 10.7 9.3 19.6 21.3 18.8 5.1-.3 5.6-4 7.9-4.1 1.4 0 6.6 2.9 8.2 3.8 9.4 5.2 15 12.5 19.3 22.2z" class="outline" data-original-prefix="outline"/><path id="outline-mouth1" class="outline"  fill="#000" d="M1011 1292s.4 1.7-.7 2c-10.2 2.8-17.4 4.1-25.4 12.5-2 2.1-5.6 9.2-7.2 9.9-3.4 1.4-13.5 1-18.1 1.8-12.5 2.1-23.6 8.7-33.1 16.9.2-.9-.5-2.8-.5-3 .7-2.3 8.9-13.5 11-15.5 2.4-2.4 14.7-10.5 17.6-10.4s3 5.1 11.9 3.9c10-1.3 16.2-10.1 17.5-19.6.4-2.6-2.4-6.7 2.8-8.2 3.5-1 21.7 5.6 24.3 9.8Z" class="outline" data-original-prefix="outline"/></g><g id="04_Eyes" data-trait="OG"><path id="fill-eyes" class="fill"  fill="#fff" d="M1337.7 1024.3c1.5.9 16.3 27.2 18.4 31.1 9.7 17.9 18.4 36.1 23.1 55.8.9 3.7 4.9 7.3-.6 11.5s-13.7 5.7-17.7 7.8c-9.3 4.9-18.6 9.9-27.5 15.5-1.2 42.7-11 81.2-47.2 106.8-43.1 30.5-110 44.9-161.5 32.9-13.7-3.2-24.1-9.2-39.1-3.9-11.8-10.4-26-18.9-37.7-29.3-7.2-6.4-13-14.8-20.5-20.5-2.7 1.3-6.1-.6-8.4.4s-13.7 15-17 18c-12.4 11.4-27.2 20.1-39.7 31.3-3.4.3-6.4-1.6-9.8-1.8-14-1.1-26.2 5.6-40.1 7.8-49.6 8.1-115.4-7.3-155.2-38.4-33-25.8-41.6-63-42.6-103.4-9.7-5.8-19.6-11.2-29.5-16.5s-18-6.5-18.9-12.2 2.6-4.6 3.6-7 .9-6.7 2.1-9.9c7.7-20.9 25.7-58.2 39.1-75.6s2.4-.4 3.1-1.3c18-23.8 37.3-50.3 58.9-70.8 140.3-133.5 334.8-143 483.5-16.5 25.5 21.7 43.5 44 64.5 69.5s10.4 15.7 12.5 17.5 3.2.6 4.2 1.3Z" class="fill" data-original-prefix="fill"/><path id="outline-shading-eyes-2" class="outline"  fill="#000" d="M942 857c-12.1 12.3-28.7 18.2-42.9 27.6-24 15.9-46.8 43.3-62.9 67.1-5.4 7.9-23 36-24 44-1.9 15 19 44.3 30.9 52.7 15.5 11 44.6 22.3 62.6 32.4 17.3 9.7 34.5 19.9 50.9 31.1 14.4 19.1 24.9 49.3 40 66.9 6.5 7.6 13.5 4.7 18 8 1.1.8 4.3 7.4 5 9 1.1 2.8-.7 5.7 2.8 7.3 5.7 2.7 5.9-8.1 8.2-12.3 4.5-8.3 14.1-3.9 20.9-12.1 14.5-17.4 24.2-46.5 37.8-64.2 6.2-8.1 34-23 44.2-28.8 11.7-6.7 23.8-13 35.7-19.3 21-11.2 34.9-13.8 50.4-33.6 11.6-14.8 20.3-27.2 12.4-46.3-11.6-28.4-47.4-74.4-71.4-93.6-17.2-13.8-38.5-21-54.5-36 32.2 6.5 62.4 20.5 90.7 36.8 43.8 25.2 91.8 64.7 120.1 106.9 2.5 3.7 7.4 8.7 5.5 13.1-1.7 4-26.2 9.5-31.6 11.5-55.7 20.6-105.3 41.9-152.6 78.4-29.2 22.5-41.7 38.5-62.3 68.7-4.9 7.2-6.3 13.4-13.3 19.7-2.1 1.9-22 16.2-23.4 16.6-1.9.6-28.2.6-30.1 0-1.3-.4-19.7-13.4-21.9-15.1-8.5-7-9.6-13.4-15.3-21.7-18.6-27.1-30.9-43.6-56.9-64.1-49.4-38.9-99.1-60.6-157.6-82.4-5.5-2-29-7.5-31.3-10.6-2.9-4 2.2-9.9 4.6-13.5 27.4-39.9 72.4-78.4 113.8-103.2 30.1-18 63.1-33.9 97.7-40.8z" class="shading" data-original-prefix="shading" opacity=".2"/><path id="outline-shading-eyes-1" class="outline"  fill="#000" d="M1376 1124c-.3.4-7.4 2.6-9 3.5-8.1 4.2-26.1 12.6-32.3 17.7-2.4 1.9-.9 4.2-2.2 5-26.3 9.1-58.4 13.3-83 25.8-28.2 14.3-61.1 41-85.2 61.8-16.4 14.2-30 16.1-47.8 26.2-9.8 5.6-17.8 14.5-27.8 19.3l-2.5-.6c-11.3-10.6-24.9-18.4-36.5-28.5-7.8-6.8-14.2-15.6-22.1-21.9-2.7 1.3-6.1-.6-8.4.4-1.4.6-15.2 16.5-18.6 19.5-11.8 10.6-25.7 18.9-37.5 29.5l-3.9 1.1c-11.7-6.7-22.5-15.3-34.3-21.8-10.7-5.8-26.2-10.7-35.6-17.4-5.4-3.9-11.8-11.6-17.6-16.4-25.2-20.7-60-47.9-90.7-58.3-21.3-7.2-43.6-12.1-65.1-18.7l-2.2-5-41.4-21.6 4.9-4.1 15.1-28.9h33c21.4 13 44.7 24.7 65.5 38.5 18.6 12.3 35.7 27.9 54.2 40.8 28.2 19.8 67.5 44.8 99 58 17.5 7.3 25.6 4.5 43.5.8 6-1.2 20.2-6.3 24.5-6.4 2.5 0 7.8 3.9 12.8 3.8 4.4 0 9.7-4.1 11.8-3.9 5.8.6 16.8 4.9 23.8 6.4s18.6 4.4 25.6 4.5c11.2.2 31.8-11.4 42.1-16.9 70-36.9 125.7-90.2 196.1-125.9l32.3.3c3 1.8 10.9 25.2 15.5 29.5 1 1 5.9 2.1 4.4 4h-.4Z" class="shading" data-original-prefix="shading" opacity=".2"/><path id="outline-eyes6" class="outline"  fill="#000" d="M696 1136c.7 5.7-1.4 11.4-2 17-1.4 1.2-21.5-7.8-24.8-8.7-13.8-4-26.1 4.1-24.1-17.7 2.4-26.3 17.9-67.1 30.7-90.3 4.9-8.8 24.5-40.3 33.1-42.9 3.1-.9 7.2 1.5 8.9.5.4-.3 3.7-6.5 5.2-8.3 78.3-95.7 168.6-146.9 294.5-148.6 132.9-1.8 222.6 47.8 306.4 147.6 1.4 1.7 5.8 9 6.2 9.3 2.4 1.4 7-1.2 9.8-.4 7.6 2.1 25.6 30.2 30.2 37.9 13.9 23.7 31.8 69 33.8 96.2 1.6 20.6-11.3 13.1-24.2 16.8-2.5.7-4.5 2.5-6.8 3.2-5.8 1.8-11.9 2.9-17.5 5.5l-3.5-17c.2-.3-.2-1.8.2-2.3 3.6-4.4 22.6-10.5 23.3-11.7 4.5-6.8-6.4-31.1-9.7-38.4-3.9-8.8-9.1-18.8-13.7-27.3-2-3.7-15.9-28.3-17.4-29.1-.5-.3-10.8-1.3-12.3-1.3-8.7 0-25.2 1.8-34 3.1-7.3 1.1-14.2 4-21.5 5-.4-1.8.9-2.5 2-3.5 10.3-10 25.8-16.8 38.1-24.1-2.6-12.8-10.1-23.8-18.6-33.4-37.8-43-100.8-73.6-152.2-97.8-64.6-30.5-162.4-29.5-226.7 1-47.5 22.5-138.9 67.2-163.2 114.8-1.5 3-6.7 13.2-4.5 15.5 9 5.4 19.5 10 28 16.1 2 1.4 13.1 9.4 11.1 11.4-7.1-1.7-14.2-3.9-21.5-5-8.8-1.3-24.5-3.1-33-3.1s-7.8 2-11.8 1.1c-9.3 14.8-18.8 29.9-26.6 45.6-4.4 8.9-14.4 29.9-15.1 38.9-.2 2.4-.6 9.7 1 11 1 .8 4.9 1.5 6.7 2.3 5.2 2.4 14.7 5.6 15.3 11.2h.2Z" class="outline" data-original-prefix="outline"/><path id="outline-eyes5" class="outline"  fill="#000" d="M1341 1142c2.8 5.1 2.2 12.1 3.3 18.2.6 3.1 4.6 17.2 4.5 18.1-.3 1.7-10.6 14.7-8.8 16.7 2.2 2.4 7.6-14.3 12-10.5 0 2 .2 4 0 6-.9 8-7.9 29.6-10.7 38.3-3.7 11.3-6.9 17.3-14.8 26.2-2.9 3.3-23.2 24.8-25.1 25.9-5.6 3.1-11.9 3.2-17.6 4.4-15.2 3.3-30.3 5.6-44.8 11.8-.2 1.8 2.2.9 3.2.7 5-.8 9-3.8 13.5-4.5 3.7-.6 10-1.1 13.8-1.2 3.2-.2 8-.4 11 0 5.7.7-3.1 3.3-4.2 3.8-11 5.4-26.6 14.2-38.1 16.9-19.5 4.5-69.6 7.3-88.5 3-7.3-1.6-22.2-17.8-29.8-23.2-3.2-2.3-11.1-7.6-14.4-8.6-4.2-1.2 1.3 9.2.5 10-14.9 1.2-22.3-6.1-30.5-17.1-.7-1-.3-2.6-.5-2.9 4.9-2.4 4.6-9.9 4-14.5-1.3-10.2-15.3-17.8-22-24.5 20.5 3.6 41 15.9 62.4 13.9 44.4-4.3 63.1-31.3 96.7-55.3 34.7-24.8 71.6-39.6 112.9-50.1 3.4-.9 9.1-.5 12.1-1.4Z" class="outline" data-original-prefix="outline"/><path id="outline-eyes4" class="outline"  fill="#000" d="M707 1142c4 1.2 11.2 1 16.2 2.3 37.9 9.8 74 24.5 106.1 46.9 34.5 24.2 55.2 53.3 100.3 57.7 20.5 2 42.9-9.6 62.4-14.9.5 2.2-1.2 2.2-2.3 3.2-10.7 9.9-22.4 13.2-19.7 31.2.5 3.4 2.3 3.4 2.9 4.6.5.9 1 2.9.5 4-.6 1.4-13 13.6-14.6 14.5-2 1-14.9 3.5-15.9 2.6l2-9c-2.5-2.4-17.2 8.6-19.9 10.6-6.5 4.9-19.3 18.9-25.8 20.2-20.4 4-67.9 1.8-88.5-3-12.1-2.8-26.8-11.3-38.1-16.9-1.1-.5-9.9-3.1-4.2-3.8 3-.4 7.8 0 11 0 3.8.2 10.1.7 13.8 1.2 4.6.7 8.5 3.7 13.5 4.5 1.1.2 3.5 1.1 3.2-.7-5.7-1.6-11.1-4.2-16.8-5.7-12.7-3.5-35.4-4.8-45.6-10.4-3.5-1.9-29.8-30.3-32.5-34.6-3.8-5.9-6.3-13.8-8.5-20.5-2.5-8.1-10.3-32.3-10.7-39.3-.2-3.1.9-3.6 4-2 1.5.7 5.9 8.5 7.4 10.6.4.5 1.1 3.7 2.6 1.9 1.6-1.9-9.6-16.9-9.8-18.6-.2-1.6 3.8-15.6 4.5-19.2 1-5.7 1.2-11.5 2.3-17.2z" class="outline" data-original-prefix="outline"/><path id="outline-eyes3" class="outline"  fill="#000" d="M998 1254c1.7-6.8 7.8-11.9 11.4-18.1 4.8-8.4 10-20.3 7.6-29.9 6 1.8 8.5 2.6 14.5 0-1.3 11.8 3.9 24 10.3 33.7 4.4 6.7 5.8 7.8 9.2 15.3-3.3 0-4 4.3-7 4-4-7.2-11-10.3-15.9-17.6-.9-1.3-.8-4.1-1.7-4.4-5.5-1.6-6 5.6-9.4 9.5-3.8 4.4-11.3 6.9-12 12.5-1.4 1.3-5.2-4.4-7-5" class="outline" data-original-prefix="outline"/><path id="outline-eyes2" class="outline"  fill="#000" d="M981 1184c-1.9.4-2.4-1-3.4-2.1-13.3-14.7-23-34.8-35.1-47.9-22.5-24.4-60.9-45.3-87.4-65.6-1.2-.9-9.5-7-8.1-8.4 16.5 4.3 29.6 16 44.3 24.2 19.2 10.7 39.3 20 58.6 30.4 5.3 6 8.9 13.4 12.2 20.8 7.2 15.8 12.7 32.5 18.8 48.7h.1Z" class="outline" data-original-prefix="outline"/><path id="outline-eyes1" class="outline"  fill="#000" d="M1202 1060c.4 1.8-.9 2.5-2 3.5-7.4 7.2-18.8 12.6-27.3 18.7-19.4 13.7-51 35.4-66.7 52.3-10.2 10.9-18.1 30.5-29.4 41.6l-8.5 8c6.1-16.2 11.6-32.9 18.8-48.7 2.4-5.2 7.3-16.6 11.2-19.8 22.4-12.8 46.4-23.4 68.7-36.3 11.5-6.6 21.7-16.7 35.3-19.2Z" class="outline" data-original-prefix="outline"/></g><g id="05_Right Ear" data-trait="cracked"><path id="fill-ear-rt" class="fill"  fill="#fff" d="M1722.4 186.9c.8.8 1.1 2.1 1.1 3.2l-8.1 121.8c-8.6 28.8-25.9 53-29.7 83.3s-3.9 64.1-9.3 93.7c-7.4 41.1-28.4 85.6-36.9 127.1l-66.8 103.2c-30.7 24.5-60.3 54-91.5 77.5-13.1 9.9-38.1 22.1-53.4 29.5-4.5 2.2-11.8 7-16.6 3.5s-8.7-32.4-11.9-39.1c-15.4 14.6-30.8 29.2-45 45-2.4 2.6-12.9 13.8-13.3 15.8-.5 7.8 4.3 26.8 1.3 33.2-2.3 5.1-22 16.9-22.5 21.5l15.9 43.8-51.9 35.7c-2.6 3-1.2-1.7-2.6 2.2-17.5-3.9-23.5-9.2-38.8-18.4-19.3-11.6-43.7-28-59.2-43.8-1.9-2-4.8-3.1-6.5-5.5-7-9.5-10.9-33.7-16.9-45 16.2-57.7 47.1-109 71.8-163.1 9.4-65.7 14-132.5 25.2-197.8l96.3-119.7 130.6-105.4L1705.6 178l16.7 8.8h.1Z" class="fill" data-original-prefix="fill"/><path id="outline-shading-ear-rt" class="outline"  fill="#000" d="M1670 478.5c0 .2-1.5 2-2 1-4.6-2.8-23.5-18.9-27.3-18.4-2.3.3-10.5 6.3-13.1 8-11.6 7.9-21.9 17.5-33.1 25.9-1.7 3.7-1.7 7.1-.4 10.8 6.7 1.4 18.8-4.7 17.7 6.4l-23.3 40.7c-2.5.4-1.5-1.8-1.2-3.2.8-4.7 8.2-23.6 7.7-26.2-.2-.8-1.2-1.4-2.2-1.4-3.3.2-8.7 4-12.6 3.9-.8.9 1.8 12 1.7 14.4-.2 7.7-7.3 19-10.3 26.5-3.3 8.5-8.4 19.1-6.5 28 1.4.2 2.7 0 4-.5 12-4.1 33.5-43.7 40.1-55.9 4.8-8.9 14.3-32.5 19.3-38.7.4-.5 1.2-1.4 1.5-1-12.8 55.3-34.4 111.3-63.2 160.3-7.3 12.4-22.6 38.5-31.8 48.2-6 6.3-23.1 17-31.1 21.9-27.2 17-57.6 30.4-89.9 33.6l14.9 35.4c2.5 3.2 21.7-5.9 25.5-7.5 28.7-12.7 69.6-35.6 94.6-54.4 5.6-4.2 8.5-11 6.6 2.6-10.7 7.5-19.9 16.9-30 25-10.6 8.5-24.1 19.3-35.1 26.9-19.5 13.4-44.2 22.7-64.3 35.7-2.6.7-6.3 1.4-8-1.1l-9.1-33.9-67.5 68.5c-1.5 3.5 7.6 16 5 21l-27.4 24.7c5 16.7 14.5 32 18.9 48.8l-1.1 2-44.3 28.7c-1.3.7-2.7 1.6-4.3 1.8-4.9.6-23-6.1-28.3-8.5-21.2-9.4-42.2-23.3-60.1-38-3.1-2.5-20-18.6-20-21s2.2-2.6 2.8-4.2c1.1-3.1 1.1-7.1 2.5-10.5 4.2-10.5 32.7-39 41.8-50.2 58.9-72.9 101.1-158.1 128.3-247.7 4.3-14 8.8-40.2 14.2-51.8 3-6.3 11.4-12.3 14.7-18.8 22.1.5 44.5 6.1 65.8 11.8.9 1.2-5.4 14.4-5.9 17.5-1.3 9.1.4 20.2.9 29.4l19-47c4.9 3.9 5 10.1 12.5 11 8.4 1 31.8-3.8 40.3-6.7 2.5-.8 6.8-1.9 4.7-5.3-17.2-2.1-36.8 9.9-52.5 1.3-.2-.9-.2-11 0-11.7.3-1.1 2.7-.2 3.9-2.2 4.3-7.1 4.3-42.4 5.2-52.9.8-9.6 2.2-19.4 3-29 .8-10.5-2.6-12.2 5-21 8.7-10.2 35.9-34.5 47.3-40.6 3.1-1.7 7.8-.6 6.7-4.8-3.6-.6-5.7.5-8.7 1.8-16.1 7.3-32.9 26.4-48 34-1.6.8-3.6 1.9-5.4.7-.6-.4-4.6-12.8-4.8-14.3-.5-3.8 5.9-11.6 8-15.5 2.2-4.1 11.5-21.6 10.7-25s-25.6-16.5-30.4-21.7c-1.9-2-10.4-14.8-11.1-17-.7-2.4-.4-4 1.1-6l40.4-26.6c22.6.2 42.9-1.7 64-10 10.6-4.2 30.2-16.4 39.8-18.2 11-2.1 25.7 6.5 35.6 10.5 15.2-9.6 31.4-23.8 47.6-31.3 3.1-1.4 4-2.6 6.5.6 3.2 4 0 3.9-1.2 6.7-3.4 7.9-5.5 16.3-8.8 24.2-12.1 29.2-28.7 57.7-38 88-2.3 7.4-3.4 17.4-6 24-4.6 11.8-18.9 25-23.5 36.5-1.6 4.1-6.1 25-6 29 0 .7-.3 1.6.5 1.5 22.9-20 44.9-41.2 69.1-60 3.1-2.4 6.8-5.6 10.5-7v18.5c0 2.6-32.8 27.9-37 32 10.4.7 16.9 7.4 23.1 14.9.5.6 1.9.5 1.9.6 0 5.1 1 17.5 0 21.5ZM1606 296c-2.4-.2-4.7 0-7.1.4-16.5 2.9-37.6 9.5-53.7 14.3-5 1.5-10.2 2.2-15.2 3.8-11.7 23.6-23.4 47.3-34 71.5l20.3-12.2c27.3-9.4 38.9-37.6 60.2-55.9 8.3-7.1 18.8-12.8 27.6-19.4 1.1-.8 2.5 0 1.9-2.6Zm-86 17-46 3.5c-1.7 1.4-8.4 4.7-8.8 6.2s2.6 12.1 3.7 14c2.2 4 14 11.6 18.5 14.5 2.2 1.4 9.4 6.9 11.6 5.6l21.1-43.9Zm-138.5 421v1c.7-.3.7-.7 0-1m-.5 2c-1.4-1.8-4.5 5-4.7 5.8-5.5 16.6-6.8 40.6-14.1 55.9-7.6 15.9-25.4 34.3-35 50-.6 1-1.9 3.1-1.7 4.3 13.1-10.1 27.2-19.4 38.9-31 2.6-18.2 9.1-35.8 12.3-53.7 1.8-10.3 1.9-21 4.3-31.2Zm2 67c3.7-2.6 12.4-12.4 13-16.6.5-3.8-4.9-11.6-6.5-15.4zm-48.1 77.9c.5-.8-7-16.5-9.4-15.9-9.2 11.1-19.3 21.5-28.5 32.5-5.4 6.5-22 25-22.9 32.1-.5 3.6.2 7.3 0 10.9-.8 8.8-1.8 17.7-3 26.5l39.5-35c1-6.2-8.3-23.1-6-27.9L1335 881Z" class="shading" data-original-prefix="shading" opacity=".2"/><path id="outline-ear-rt" class="outline"  fill="#000" d="M1204 941c-.6 2-3.1 0-4-.5-6-3.3-16.4-8.4-21-13-11.6-11.9-20.6-32.5-31.5-45.5-1-2.9-.7-7.3-.5-10.5 1-20.3 12.5-34.3 20.8-52.2 6.3-13.5 12.6-35.7 19.9-47 3.2-4.9 8.4-9.8 12-15 29.7-42.8 37.8-119.3 42.2-170.8 1.8-21.4.9-43.9 3-65 .7-7 2.4-6.2 5.4-10.6 32.8-49.1 70.5-98.1 110.1-141.9 13.9-15.4 33.5-38.4 49.2-50.8 52.6-41.5 136.1-85.3 198.3-110.6 29.7-12.1 85.4-35.4 115.8-38.3 8.5-.8 7.8 2.7 9.5 9.9 3.6 14.9 2.9 30.5 2.7 45.3-.4 32-1.4 78.8-8.3 109.7-3.7 16.4-15.8 23.2-22.2 37.8-10.4 23.8-20.5 86.5-15.4 111.4 3 14.6 5.8 10.4 2.4 27.6-12.4 64-44 134.2-79.1 188.9-30.9 48.2-70.1 80.8-118.5 110.5-28.7 17.6-59.7 34.8-91.9 44.6.3-14.2-.5-28.4 0-42.5 0-3 3.2-9.9-1-11-14.8 16.6-30.3 32.5-43.8 50.2-.6 2.2 2 8.2 2.8 10.8 1.5 4.5 9.2 20.3 7.6 23.5-1 2-28.2 11.4-31.4 16.7 6 20.3 14.5 39.6 22.7 59.1.5 4.8-7.5 12.2-11.2 14.3-2.2 1.2-4.5.9-6.9 2.1-5.5 2.6-9.7 9.7-15.6 12.4-22.6 10.3-50.5-2.5-71.7-12.3-4-1.9-11.3-4.7-12.3-9.2 2.4 1.1 5.6.7 8 1.5 26.9 9.2 36.4 9.3 61.7-4.3 3.1-1.7 18.6-11.5 19.2-13.9-5.6-15.9-10.9-32.1-19.7-46.6.2-2.7 11.1-11.8 13.8-14.2 2.5-2.2 16.3-11.8 16.9-12.7.6-1.1-1.1-6-1.7-7.5-1.8-4.9-9.1-13.1-7.8-17.3l32-33c2.3-18.2 9.3-35.8 12.3-53.7.9-5.2.5-11.6 1.4-16.6 6.7-39.1 32.5-73.7 53.7-106.4-3.1-10.5-18.5-34.2-29.3-19.2-7.7 10.7-16.6 48.7-17.6 62.4-.4 5 1.2 17.3-.9 20.8-.9 1.6-11.5 10.3-14.1 13.2-25 27.8-50.2 64.5-69.2 96.8-17.2 29.4-56.3 96-51.7 129.1.7 4.7 4.3 9.8 4.9 14.6-2.1 2.1-27.1-18.8-28.5-22-1.7-3.9.9-16.6 1.5-21.5.3-2.9-.4-6 0-8.9.7-4.5 15.4-22.3 19.2-27.8 39.8-58.6 57.4-124.9 103.3-180.7 11.8-14.4 20-26.2 25.8-44.2 5.6-17.5 15.4-63 12.5-80-.7-3.9-10.8-27.6-9.8-28.7l52 28c16.2-44.2 27.9-91.8 22.2-139.2 9.1-12.4 18-25 25.6-38.5 2.5-4.5 12.1-21.1 12.3-24.8s-4.6-8.1-7.6-10.5c-12.1-9.7-30.2-11.4-31.5-31-.7-.6-12.7 8.1-14.3 9.2-44 31.1-77.8 64.6-111.7 106.3-15.7 19.3-36.9 44.4-50.5 64.5-6.4 9.5-10.1 25.9-11.6 37.4-6.4 50-5.5 104.8-13.1 153.9-2.9 18.9-27.5 67.5-37 87-6.6 13.4-16.1 27.1-22.1 40-6.3 13.7-9 29.6-15.7 43.3-3.2 23.1 13.4 51.4 28.9 67.4v-.3Zm515-753c-30.2 9.5-58.8 22.3-87 36.4-25.9 13-53.6 27.8-78.6 42.4-19.8 11.5-38.5 24.8-58.3 36.2.7 1.8 5.9 1.1 7.5 1 23.2-1.4 56-9.1 77.1-18.9 4.3-2 15.9-9.7 18.9-10.1 11.8-1.7 21.1 15.3 28.8 13.8 1.7-.3 13.6-13.8 16.7-16.2 5.7-4.3 12.8-6.4 18.8-10.2 11-6.8 19-19 32.1-22.4l-22.5 39c-13.1 10-28 17.6-39.9 29.2-3 30.4 1.3 60.6 1.1 91-8 15.5-28.8 23.4-34.1 40.9-1.1 3.5-5.8 33.5-4.7 34.8 3.9-1.3 7.9-4.8 11-7.5 13.4-11.6 26.8-26.6 40-39 8.7-8.2 19.9-16.4 28.1-25 4.6-4.9 12.1-40.9 15.9-51.1 6.8-18.1 16.8-28.7 20.7-48.3 2.5-12.5 4.6-27.1 6.2-39.9 3.1-25.3 4.5-50.9 2.1-76.4v.3Zm-103 112c-5.5-.8-9.5-5.3-15.4-3.9-15.4 6.5-35.4 7-50.6 12.4s-41.3 48-47.9 63.1c-4 9.2-6.3 19.6-12.1 28.4 13.1-4.6 33.8-26 47.5-25 2.4.2 8.9 3.3 9.4 3 .7-.5 7.1-11.6 8.7-13.8 17.6-23.9 39.4-43.3 60.4-64.1Zm-96 13-46.6 3.9c-1.8.5-12.4 7-13 8.1-1.7 3.4 4.2 15.1 7 18 2.4 2.5 15.6 12.7 18.6 14.4 14.4 8.2 19.7-14.4 24.1-23.8 1.2-2.6 10.7-19.8 9.8-20.6Zm57 208c-2.3-22.7-1-46.6 3.5-69 1.9-9.6 5.7-27.6 10.3-35.7 6.1-10.7 27-21.4 29-32l-.8-63.3c-37 35.4-65 84.7-72.7 135.8-3.9 26-5.3 57.6 10.6 79.9v1.6c-21.4 26.5-33.1 58.8-41.6 91.5-2.1 7.9-9.6 50.2-12.3 52.7-19.4 17.7-41.7 34.1-65.3 46.7-2.2 1.2-14.6 7.8-15.7 6.8 3.2-7 7-13.5 9.7-20.8 6.7-17.3 8.5-31.1 7.3-49.8l-2-7.5c-5.5 12.1-11.2 24.3-17.5 36-5 9.3-22.1 34.4-24.1 42-2.9 11.3 9 27.8 13.7 38.3 6.8 15.3 12.3 30.7 12.8 47.7l83.9-48.6c76.6-56 124.6-136.5 149.8-227.2 6.8-24.3 13.8-49 12.3-74.5-7.5-3.4-20-16.1-28.3-14.5-3 .6-13 7.8-16.1 10-7.2 5.2-13.7 12.3-21 17-6 3.9-14.2 4.4-12.7 13.2 1.6 10 26.2 2 25.9 15.1-.2 7.4-23.2 33-26.9 41.5-1.9.2-.6-1.9-.3-2.8 2.2-6.7 14.8-29.3 13.2-34.6-2-6.5-20.6 4.2-24.9 4.4h.2Zm-37-135c-6.7-.9-12.1 3.8-17.3 7.2-8.9 5.7-34.4 22.6-40.6 29.4-3 3.2-12.7 33.4-13.8 39.2-3.7 19-2.9 40.5-7.4 59.7 0 4.8 11.4 18.6 16.1 20 4.2 1.2 19.5.8 24.5.5 2.6-.2 19.6-2.9 20.4-4.1 1.3-18.4.6-37.9-2-56.2-1.1-7.9-7.4-29.9-6.7-35.9.7-4.9 11.1-27.1 13.9-33.1 3.3-7 10-16.4 12.3-22.7.5-1.4.8-2.5.6-3.9Zm133 33-23 17.5c-2.2 2.8-6.4 4.6-6 8.5 9.5 1.2 16.7 8.1 25 12 .4-12.8 1.6-25.4 4-38m-151 128c-1.8-1.8-39.9 5.1-47.4 3.9-7-1.1-12.1-8.2-16.6-12.9-2 16.5-4.7 32.9-7.2 49.3-1.1 7.1-4.9 20.1-4.8 26.2 0 4.7 5.9 28.9 7.7 34.3 3.6 11.1 10.4 13.8 20.6 8 20.7-11.7 39.9-68.2 45-91 1.3-5.9 2-11.8 2.7-17.8m-133 209c-1.1 0-2-.2-3 .5-1.8 1.2-4.5 24.4-5.3 28.7-1.5 8.3-3.3 16.7-5.7 24.8 2.4 1.8 11.8-9.8 13.5-12 2.5-3.2 7.6-10 8.3-13.8 1.2-6.4-7.6-20.8-7.8-28.2" class="outline" data-original-prefix="outline"/></g><g id="06_Left Ear" data-trait="OG"><path id="fill-ear-lft1" class="fill"  fill="#fff" d="M326.7 182.1q1.65-.45 3.3.3l180.7 78.4c55.2 39.7 111.9 77.8 165.3 119.7l109 135.9c10.5 65.4 16 132 25.2 197.8 24.6 50.1 52.6 98.7 77.3 148.7 1.5 3.1 5.4 9.5 5.5 12.5.2 4.7-8.5 15.9-11.2 20.8-15.1 27.1-18.8 33.2-43.9 52.1-22.9 17.2-44.3 28.5-72.5 35.5-8 2-18.1 5.7-25.3.5l-82.9-79.1c-9.9-22-17.5-45.3-28.1-66.9l-154-109c-23.7-34.4-41.7-73.1-64.9-108.1-9.8-43.7-27.6-90.2-34.9-134.1-5.9-35.7-6.9-73.6-12.5-109.5-9.3-20.9-22.7-40-30.5-61.5-1-40.6-6.8-81.2-8.3-121.7-.1-3.4-1.1-11.4 2.8-12.4Z" class="fill" data-original-prefix="fill"/><path id="outline-shading-ear-lft1" class="outline"  fill="#000" d="M664 558v21.5c0 22.8 19.2 43.4 30.4 61.6 38.9 63.4 63.1 129 108.2 189.8 16.2 21.8 35 41.1 51.9 62.1 4.8 5.9 9.3 10.3 9.5 18.5.2 6.2-2 12.6-1.1 19l-.9 2.1-60.1 40.9c-13.7.2-28.1 9.9-40.7 12.4-1.5.3-2.8.5-4.2-.3l-76.6-51.4-69.8-109.7c-33.8-23.4-81.3-39.6-107.2-72.3-4.2-5.3-6.4-12.2-10.5-17.5.3-1.1 2.2-.4 3 0 7.1 2.9 21.5 16.6 29.2 21.8 23.5 15.5 51.4 30.4 77.3 41.7 17.3 7.5 35 10.9 52.9 16.1 7 15.4 12.9 31.5 20.2 46.8 8 16.6 27 35.1 40.2 48.8 19 20 39 39.1 59.5 57.5 1.5.2 1.8 0 1.4-1.4-1.9-7.7-7.7-31.2-11.1-36.9-4.7-7.9-16.1-19.2-22.2-27.8-25.1-34.9-42.3-72.5-64.4-108.6-7.4-12-9.8-16-22.8-22.2-38.1-18-78.4-19.1-114.3-41.7-26.9-17-34.3-26.3-51.1-52.9-25.7-40.5-46.4-86-61.2-131.8-4.2-12.9-10.9-32.4-12.7-45.3 0-.6-.3-1.6.5-1.5 14 25.4 25.6 52.8 42.1 76.9 5.6 8.2 12.9 19.9 23.4 21.1-.5-2.4 1.1-5.1.8-7.3-1.4-11-12.7-28.8-16.3-39.8-3.8-11.7 2.7-30.6 3.5-43.5 3.6-59-24.7-121.5-55.6-170.4-12.4-19.7-28.5-37.1-37.4-59.1h16.5c8.6 0 8.7 2.4 14.2 5.8 15.3 9.7 32.5 17.5 48 27 30.2 18.6 67.2 68.2 84.5 99.5 2.9 5.2 12 22.4 12.8 27.2.9 5.4-.9 10.1-1 14.9-.8 41.5 1.8 83.9 11.9 124.2 3.2 12.9 5.4 24.4 15.1 33.9 1.4 1.4 2.9 3.8 4.5 1.5l24.5-44.5 55-6.5z" class="shading" data-original-prefix="shading" opacity=".2"/><path id="outline-ear-lft2" class="outline"  fill="#000" d="M845 941c14.6-16.6 32-43.1 28.9-66.4-6.2-13.9-9.9-31.3-16.2-44.8-6.6-14.1-16.5-28.7-23.6-43.4-15.3-31.6-34.1-66.9-37.1-101.9-.8-27.8-4.4-55.4-7-83-2.5-25.8-1.8-68.6-16.2-89.8-15.1-22.3-37.4-49.1-54.9-70.1-40.4-48.8-81-84.4-134.1-118.9-62.7-40.8-134-84.4-202.2-114.8-5.5-2.4-50.7-20.8-52.7-18.8-2.9 37.8.8 78 8.3 115.2 2.9 14.2 5.3 15.9 11.2 27.8 19.4 39 29.1 89 31.5 132.5 1 17.6-.2 29.6 3.5 47.5 18.4 89.9 62.3 179.1 131.5 240.5 34.3 30.4 77.6 43.7 111.3 70.7 7.8 6.3 4 4.9 5.1 11.8 1.6 9.8 18.8 46.8 24.6 56.2 15.8 25.8 55.2 62.7 82.3 76.9 24.5 12.9 35.2 10.3 60.5 2.1 2.2-.7 5.3-.6 7.2-1.3-1 4.5-8.9 7.6-13 9.5-9.6 4.4-42.4 17.5-51.4 17.4-1.7 0-20.4-3.6-21.4-4.1s-1.2-2.3-2.2-3.3c-15.2-14.7-31.4-32.3-47-46-12-10.6-25.8-15.8-32.5-31.5-10.8-25.2-24.1-65.5-48.8-80.2-25.6-15.1-48.4-25.9-73-44-82.1-60.5-144-180.3-162.2-279.8-2.5-13.4.3-11.7 3.2-22.8 6-23.1-5.4-87.7-14.7-110.8-2-5.1-7-12.2-10.2-16.8-2.7-3.8-8.9-9.4-10.3-12.7-3.4-8-5.6-30.1-6.5-39.5-3.1-31.9-9.3-100.8-.5-129.5 1.8-5.8 2.2-6.4 8.7-5.7 12.1 1.1 31.8 7.4 43.8 11.3 83.1 27.2 164 67.2 237 115.1 21.8 14.3 36.8 25 55.1 43.9 52.6 54.4 98.4 114.5 141.4 176.6 2.3 4.6 2.2 21.8 2.6 28.4 3.6 65.9 7.8 160.8 46.2 215.8 2.9 4.1 7.4 7.9 10 12 6.8 10.6 12 30 17.6 42.4 10.2 22.5 26 41.8 21.6 68.3-12.2 14.7-20.7 38.7-36.8 49.2-5.3 3.5-12.5 7.3-18.7 8.8z" class="outline" data-original-prefix="outline"/><path id="outline-ear-lft1" class="outline"  fill="#000" d="M671 548c1 1.1-9.1 24.9-9.8 28.7-3.2 18.8 9.2 75.9 17.6 94 8.4 18.2 19.9 26.4 31 41 38.5 50.8 58.2 119.5 95.4 173.6 4.1 6 11.5 13.6 14.6 19.4 2.3 4.2 4.1 23.8 4.2 29.8 0 1.9.2 3.7-.6 5.5-1.3 3.2-26.3 24.1-28.5 22 .6-5.2 4-9.5 4.7-14.8 4.7-32.1-33.9-98.2-50.6-126.9-23.1-39.7-51.6-80.6-84.7-112.3.2-20.9-3.1-40.8-9.2-60.8-5-16.5-11.4-40-29.8-18.2-21.7 25.7-18.4 63-6 92 2.2 5.2 5.5 9.8 7.5 15-3.9.3-7.3-2.1-10.7-3.8-25.9-13-50.8-31.4-71.8-51.2-10.2-49.8-20.3-101.8-52.4-142.7 2.3-5.6 5.6-10.1 7.6-16 12.2-35.3 1.5-87.5-13.6-120.9-23.3-51.5-61.4-93-109.9-121.6l-22.3-39.7c3.2-2.9 26 18.3 29.7 20.8 6.2 4.2 14.6 6.7 20.3 10.7 9.4 6.7 22.5 22.7 31.5 31.5 33.4 32.3 57.8 54.7 80 96.9 3.8 7.2 20.1 40.7 20.3 46.5.3 7.9-5.4 25.4-6.6 34.3-3 21-3.8 46.7-2.2 67.7 1.8 24.6 22.8 84.2 40.4 101.6 27.7 27.2 29-13.4 34-31 2-7.1 9.3-32.9 12.5-37.5 2.9-4.3 22.7-15.4 28.3-18.7 2.8-1.7 27.5-16 28.7-14.8h.4Z" class="outline" data-original-prefix="outline"/></g><g id="07_Head" data-trait="sideways-hat"><path id="fill-head" class="fill"  fill="#fff" d="M1380 1143c-.8-21.8-12.9-36.1-31.3-46.2-55.3-30.1-188.6-18.9-252.2-11.8-43.3 4.9-87.7 12.7-129.7 24.3-12 3.3-23.8 8-35.7 10.6-.1-3.3-1.6-4.3-4.7-4.8-18.8-3-50.3 2.9-69.6 6.2-49.4 8.6-100.1 22.4-147.1 39.9-15.6 5.8-30.7 12.6-46.1 18.8-1.2-.2-1-5.3-5.1-6.1-6.9-1.3-18.3.5-25.5 1l-4.9-50.5c.2-9 23.3-2.2 25.7-10.2 1-3.5.4-19.1.2-23.8-.8-15.7-2.6-33.1-4-49-.5-5.3-3.1-14.4-2.8-19.1.4-7.7 19.7-40.4 24.7-49.1 24.8-43.2 52.5-89.7 83.2-128.8 20.5-26 26.7-33.6 58.4-45.6 34.7-13.1 71.7-22.8 107.8-31.2 3.2-1.5 4.8-9.6 7.9-13.1 9.3-10.6 51.9-18.5 66.2-24.4 9.2 1.8 23.8 11.7 32.1 12.8 23.3 2.9 46.6-7.9 69.8-7.8 39.8 18 82.7 31.2 122.1 49.9 20.4 9.7 27 16.6 41.1 33.9 13.8 17.1 30.6 38.1 43 56 1.8 2.5 3.6 8.9 6.3 9.7 2.5.7 16.6.5 19.6 0 9.8-1.8 28.7-11.4 40-15 62.2-20 131-27.9 189.7 6.8 38 22.5 50.2 50.1 51.1 93.9.9 40.2-57.8 79.9-88.1 99-37.5 23.5-93.4 56.3-134.2 71.8-2.5.9-4.9 2.2-7.7 1.8Z" class="fill" data-original-prefix="fill"/><path id="outline-shading-head5" class="outline"  fill="#000" d="M1600.9 997.9c-.3.3-2.1-.2-2.6.2s-3.1 9.8-4 11.5c-8.3 15.6-43.8 41.6-59.3 51.7-40.1 26.2-88.1 52.1-131.6 72.4-3.1 1.4-21.9 10.7-23.4 9.2-1.8-48.9-63.5-60.8-102.5-64-87.3-7.2-202.1 4-287.3 24.7-14.7 3.6-29.3 8.6-44.2 11.3l52.7-27.8c110.8-64 222.7-126.9 341.4-175.6 30.8-12.6 62.8-27.7 96.4-29.6 28.9-1.7 60 1.8 88 9.1 37.1 9.8 58.9 18.8 69.3 58.7 1.5 5.9 9.4 46 7.1 48.1Z" class="shading" data-original-prefix="shading" opacity=".2"/><path id="outline-shading-head4" class="outline"  fill="#000" d="m680.4 1173-48.3-8.1-4.2-38.4 26-14-1.7-102.7 47.3-68.7c1-.8 7.3-6.3 6.4-2.6-10.4 24.3-22.8 48-32.4 72.6-3 7.8-7.5 15.9-6.4 24.4l12.9 45.6 39-9.5c-4.1 2.9-8.3 5.9-12.7 8.3-7.4 4-13.3 6-20.6 11.4-5.6 4.1-16.5 11.6-15.5 19.1l11.3 45.8c15.3-6.6 30.7-12.8 46.2-18.8 30.6-11.8 61.7-23.6 92.7-34.3 29.9-10.3 60.2-19.7 91.4-25.1l2.1-53.9-136.5 27s-6.2.7-6.5-1l142-46.5c1-.8 1.7-8 2-10 2.6-20.6 2.5-43.5 6.3-63.7.5-2.4 4.3-15.6 5.2-16.8.8-1 7.1-2.4 7.5-2 3.1 14.9 3.8 30.2 6.3 45.2 3.5 21 9.1 56 15.7 75.3 1.6 4.7 4.3 8.9 6.9 13.1 2 3.3 12.8 16.1 13 17.1.2 1.2-.7 1.7-1.4 2.4-3.5 3.2-16.9 8.7-22.2 11.8-19.5 11.4-38 24.3-55.8 38.2l3.5 2-219.6 57Z" class="shading" data-original-prefix="shading" opacity=".2"/><path id="outline-shading-head3" class="outline"  fill="#000" d="M1290.6 857.4c4.4 5.5 8.3 12.8 13.2 18.3l-8.3 18.3-59.4 25c-.4-2.2-1.6-3.7-.5-6 1.2-2.6 13.9-13.5 17-17 12.1-13.7 24-30.8 27.5-49 1.4-.3 1.7.2 2.5 1 1.5 1.3 6.5 7.4 8.1 9.4Z" class="shading" data-original-prefix="shading" opacity=".2"/><path id="outline-shading-head2" class="outline"  fill="#000" d="m1019 739-80.6 20.9c-.7 0-1.9.3-2.3 0-.3-.3-2.9-7.2-2.9-7.6-.2-2.4 11.7-6.3 14.4-7.3 15.4-5.8 31.4-10 47.1-15l24.4 9Z" class="shading" data-original-prefix="shading" opacity=".2"/><path id="outline-shading-head1" class="outline"  fill="#000" d="M706.5 935c.7.3.7.7 0 1z" class="shading" data-original-prefix="shading" opacity=".2"/><path id="outline-head" class="outline"  fill="#000" d="M1319 873c32.9-13.5 67.2-24.9 102.6-29.9 77.7-10.9 187.1 5.3 199.2 99.5 4.6 35.4 2.6 57.9-21.4 85.4-40.2 46.1-142.9 98.6-199.8 124.2-5.4 2.4-19.2 9.5-24.1 8.8-8.3-1.2-8.3-18.8-11.1-25.9-13.1-33.9-74.2-43.4-106-45-90.8-4.6-207.2 8.8-294.3 34.7-8.4 2.5-30.9 12.3-37.7 11.2-6.3-1-7.3-8.8-8.2-9-1.4-.4-7.8 0-9.9 0-61.3 3.1-158.5 32.2-215.4 56.6-5.6 2.4-29.5 15.2-32.6 15.5-8.2.6-9.2-12-10.5-13-1.6-1.2-25.6 8.2-28.8.3l-6.2-64.9c.2-10.9 3.7-12.8 13.7-14.3 3.6-.6 12.5 1.1 13.4-3.6-2-17.6-2.3-35.4-4-53-2.8-29.7-7.8-30.9 6.5-59.5 20.5-41.1 52.2-91.6 78.7-129.3 17.3-24.6 38.5-56.4 66.1-68.9 37.6-17 82-26.8 122-36.8 3.7-10.7 7.4-14.3 17.3-18.9 11-5.1 59.4-21.9 69.4-20.7 11.2 1.3 31.6 14.5 39.5 14.6 18.5.4 44.8-12.4 64.9-8.9 42.8 18.2 89.2 32.8 130.9 53.1 26.3 12.8 36 31.8 53.2 53.8 11.1 14.2 24.5 28 32.4 44.1Zm-311-137c-14-4.5-29 3.9-42.8 6.7L947 749c9.2 0 18.2-2.5 27.2-4.3 9.6-1.9 21-4 30.2-6.8 1.1-.3 3.7-.4 3.6-1.9m286 148c-14.8-19.2-29.3-39-45-57.5-10.3-12.1-17.9-22.1-31.9-30-27.1-15.4-72.6-34.9-102.5-43.5-20.1-5.8-50.7-2.5-71.9.1-6.2.8-26 3.2-30.6 5.4-3.1 1.5-15.9 20.8-18.9 25.1-8.8 12.7-17.6 26.2-25.6 39.4-10.9 18-26.4 41.2-27.6 62.4-1.7 29.1 1 62.7 2.1 92 .9 23.3 1.8 46.7 3 70 .4 8.4 1.7 17 1 25.5 1.2.2 1.9-.1 3-.5 11.1-4.5 27.7-15 38.7-21.3 26-14.7 50.9-31.2 76.7-46.3 60.3-35.4 125.2-69.9 187.7-101.3 13.8-6.9 27.7-13.6 42-19.5ZM984 763c-40.1 6.6-79.9 15.3-119 26.5-17.1 4.9-40.4 11.1-56.5 17.5-24.4 9.6-46.3 46.2-61.3 67.7-24 34.4-48 71-68.4 107.6-16.3 29.4-21.6 36.6-18.8 72.2l13 112.5c24.3-10.1 49.1-19.2 74.2-27.3 29.4-9.5 60.8-19.3 90.5-27.4 21.6-5.9 51.8-9.6 71.2-16.8 1.3-.5 12.1-6.9 12.5-7.5l2.5-57c-2.2-2.2-44 5.1-50.2 6.3-64.1 12.5-127.4 36.5-188.8 58.3-1.2 0-6 0-5-2.1.8-1.8 17.8-16.3 20.3-17.7 6.9-3.8 20.2-8 28.2-10.8 63.6-22.9 129.7-37.1 196.4-48.1.3-33.5-1.4-66.9-.9-100.4.1-8.2-.3-17.3 0-25 .5-11.6 11.8-34.6 17.2-45.8 13.3-28 29.3-54.8 42.9-82.6Zm463.8 105.3c-66.2 1.5-119 24.5-177.2 52.8-110.6 54-216.9 117.5-326.3 173.7-2.2 1.2-12.7 7.4-13.2 8.8-.5 1.5 1.5 9.9 2.4 11.3.9 1.5 1.3.5 2.2.3 10.6-2.8 22.5-8.2 33.5-11.6 105.7-31.9 223.9-52.6 333.9-33.4 29.2 5.1 67.8 13.5 84 41 2.7 4.6 5.5 15.2 7.3 17.7.8 1.1 1.3 1.3 2.5.6 33.8-18.5 68.9-34.8 102.6-53.4 53.9-29.7 105-52.9 99.3-124.7-6-75.1-91.2-84.6-151.2-83.2ZM650 1162l-3.1-39.3c-1.1-3.3-8.6.5-11.8-.7l4 42c.7.6 10.7-1.6 11-2Z" class="outline" data-original-prefix="outline"/></g><g id="08_Mouthpiece" data-trait="gasmask"><path id="fill-gasmask-front2" class="fill"  fill="#fff" d="M1393.8 1467.3c74-7.2 53.9 96.6 40.5 139.5-13.4 43.1-34.9 84.1-72.6 110.4-41.7 29.2-101.4 53.8-121.7-12.8-27.5-90.5 58.2-227.9 153.7-237.2Zm43 96.5c5.1-18.7 8.5-55.2-3.8-71.2-16.6-21.6-42.5-18.9-65.8-11.3l-20.2 81.8c19.1 1.1 35.1 16.7 39 35l50.7-34.2h.1Zm-120.9 25.3-41.4-24.9c-26.7 30.4-34.8 75.3-31.5 114.8l68.9-32.1c.6-1-2.6-12.6-2.9-15.4-1.2-15.1 3.6-28 6.9-42.4m32.8-14.9c-26.5 4.2-50.2 51.7-28.2 70.8 26.9 23.3 74.3-36 50.5-63.5-6.1-7-13.2-8.7-22.2-7.3zm-28.6 158.7c1.3.6 2.5.9 3.9.7 14.8-2.5 48.8-31.9 59.5-43.6 3.4-3.7 19.5-24.1 19.5-27.5s-.7-1.9-1.4-2.6l-28.8-23.2c-1.3-.8-2.2-.9-3.7-.3-3.2 1.4-9.3 8.3-13.2 10.9-6.3 4.3-12 6.6-19.3 8.7-2.7.8-8.9.7-10.1 2.9l-6.4 73.9Z" class="fill" data-original-prefix="fill"/><path id="fill-gasmask-front1" class="fill"  fill="#fff" d="M638.7 1467.2c39.6-6.2 92.7 31.7 117.8 59.8 40.6 45.4 76.1 136.1 44.7 193.7-26.2 48-81.5 20-114.9-3.5-44-30.9-68.6-85.8-79.8-137.2-7.5-34.4-16-105.3 32.2-112.8m42.1 14c-23.3-7.4-48.4-10.3-65.3 10.8-13 16.2-9.1 52-4.6 71.3l50.6 34.7c5-18.1 19.9-33.9 39.5-35zM805 1679c3.3-39.5-4.8-84.3-31.5-114.8l-41.4 24.9c1.7 10.2 6.1 19.9 6.9 30.4.7 9.3-.7 17.9-3.1 26.8zm-117.3-104.8c-2.8.6-8.2 4.6-10.2 6.8-22.5 24.5 15.5 80.9 45.8 66.8s1.7-81.2-35.5-73.5Zm40.2 158.7-6.4-73.9c-1.2-2.2-7.5-2.1-10.1-2.9-7.3-2.2-13-4.4-19.3-8.7-3.8-2.6-9.9-9.5-13.2-10.9-1.4-.6-2.3-.6-3.7.3l-28.8 23.2c-.8.7-1.4 1.5-1.4 2.6 0 3.4 16.1 23.8 19.5 27.5 10.6 11.7 44.7 41.1 59.5 43.6 1 .2 3.6 0 3.9-.7Z" class="fill" data-original-prefix="fill"/><path id="fill-gasmask-grill10" class="fill"  fill="#fff" d="M1017 1488c.2 6.3 1.7 13.2 2 19.5 2.2 44.9.3 93.6 1 139 .2 11.5.2 22.3-2 33.6h-15.5c-3.2 0-2.3-19.7-2.5-22.5-2.6-50.6-3.4-102.3-4.1-152.9 0-5.8.9-10.9 1-16.6h20.1Z" class="fill" data-original-prefix="fill"/><path id="fill-gasmask-grill9" class="fill"  fill="#fff" d="M1051 1488c0 5.7 1.1 10.8 1 16.6-.7 50.7-1.4 102.3-4.1 152.9-.2 2.8.7 22.5-2.5 22.5h-15.5c-2.3-11.2-2.2-22.1-2.1-33.6.7-45.4-1.2-94.1 1-139 .3-6.2 1.8-13.2 2-19.5h20.2Z" class="fill" data-original-prefix="fill"/><path id="fill-gasmask-grill8" class="fill"  fill="#fff" d="M962 1488c.2 4.8-.3 9.7 0 14.6 1.7 32.6 1.5 65.3 2 98 .3 23 2.7 46.9 1.1 70-.2 2.2-.7 4.2-1.1 6.4l-12.9-.9c-2.3-12.3-1.4-25-2-37.5-2.2-44.8-4.7-90-4-135 0-1.8-.9-3.5-.9-5s2.6-9 3-9.3c1.1-.7 14.3-1.7 14.8-1.2Z" class="fill" data-original-prefix="fill"/><path id="fill-gasmask-grill7" class="fill"  fill="#fff" d="M1100.8 1489.2c.4.3 3 8.2 3 9.3.6 16.9-1.5 35-1.9 52-.9 42-1.3 83.8-5 125.5-8.5-1-13.2 6.1-14-5.4-1.5-23.1.7-47 1.1-70 .6-37.6.7-75.1 1.9-112.6.5-.5 13.8.5 14.8 1.2Z" class="fill" data-original-prefix="fill"/><path id="fill-gasmask-grill6" class="fill"  fill="#fff" d="M984.9 1488.1c3.3 2.9 1.9 34 2.1 40.4.8 29.8 2.7 60.1 3.1 89.9.2 14.9 1.2 33.6 0 48.1-.2 1.9-1.8 10.5-2.5 11.5-1.9 2.6-10.5 0-13.5 0-1.5-8.1.2-15.4 0-23.5-1.2-50.9-4.4-105.3-3.1-156 0-3.4 1.7-6.8 1-10.5 2.2.4 12.1-.6 12.9 0Z" class="fill" data-original-prefix="fill"/><path id="fill-gasmask-grill5" class="fill"  fill="#fff" d="M1076 1488c-.6 3.9 1 7.6 1 11.5.6 51.4-1.8 103.6-3.1 155-.2 8.1 1.5 15.4 0 23.5-3.5 0-11.8 3.1-13.8-.6-.8-1.6-2.1-8.6-2.2-10.8-2.6-30.9 1.3-68.6 2.1-100 .6-22-1.2-48.7.9-70.1 0-1.2 1.8-8.1 2.1-8.4.8-.7 10.7.3 12.9 0Z" class="fill" data-original-prefix="fill"/><path id="fill-gasmask-grill4" class="fill"  fill="#fff" d="M1128.9 1491.1c-.6 10.1-.5 20.3-.9 30.5-1.9 48-2.5 97-7.1 144.9 0 1.1-.9 6.2-1.1 6.4-.3.3-8.1 1.4-9.2 1.2-3.1-.7-2.8-29.2-2.7-33.6.3-23.8 2.4-48.1 3.1-71.9.7-22.2-1.1-48.5 1-70 .3-2.9 1.3-5.7 2.1-8.4z" class="fill" data-original-prefix="fill"/><path id="fill-gasmask-grill3" class="fill"  fill="#fff" d="M933.9 1490.1c1 3 1.9 6.1 2.2 9.3 1.8 21.7.3 46.9.9 69.1.7 23.8 2.8 48.1 3.1 71.9 0 11.2.5 22.6-2.2 33.4-.9.6-9.3-.6-9.7-1-.2-.2-1-5.3-1.1-6.4-5.2-55.3-4.6-111.4-8-166.9-.2-2.8 0-5.7 0-8.5z" class="fill" data-original-prefix="fill"/><path id="fill-gasmask-grill2" class="fill"  fill="#fff" d="M1117 1682c.8.7-8.2 15.3-9.7 15.8-55.3 1.2-110.5.9-165.8.2-3-.6-8.8-12.2-10.5-15.5 20.5 1.6 41 5.2 61.5 6.5 25 1.6 51.1 1.1 76-1 16.2-1.3 32.4-4.1 48.5-6" class="fill" data-original-prefix="fill"/><rect id="fill-gasmask-grill1" class="fill"  width="212" height="10" x="918" y="1472" class="st1"/><path id="fill-gasmask-mask4" class="fill"  fill="#fff" d="m1138 1570 1.6-110.1H1030c-.6-14.5-4.5-26.9 2-40.9 1.3-.9 7.7 6.1 9 7.5 4.5 4.8 9.1 10.6 13.4 15.6 3.3 2.6 6.6-.9 9.1-3.1 11-9.2 31.4-32 40.4-43.6 4.6-5.9 7.5-10.1 4.2-17.2-4.2-8.8-24.7-34.8-32.1-41.9-5.2-5-8-6.6-14.3-3.3-12.8 6.8-25.4 18.2-38 25.7-11.8-8-24.3-18.5-36.7-25.3s-8.3-3.1-14 1.9c-8 7-27.2 32.1-32.4 41.6-4.2 7.7-2.2 11.1 3 17.8 7.5 9.9 20.5 23.4 29.4 32.6 3.2 3.3 14.6 15.8 18.5 15.5 2.6-.2 17.3-19.2 21.5-22.6 1-.8 1.3-1.9 3-1.5 6.5 14 2.7 26.5 2 41H908.4l2.5 110-5.7-24.8c-9.3-29.7-22.8-55.6-42.3-79.7-7.4-9.2-19.9-17.2-18.5-30.6 15.8-23.7 33.8-46 53-67 23.9-26 45.5-46 76.8-63.2 6.5-3.6 26.4-14.5 32.4-15.6 9.2-1.7 32.4-.8 40.9 2.6 55.7 22.3 100.9 69.6 136.7 116.3 3.1 4.1 18.8 24.6 19.4 27.6 2.2 10.4-12.9 22.5-18.8 29.8-24 29.6-42.2 66.4-47 104.5z" class="fill" data-original-prefix="fill"/><path id="fill-gasmask-mask3" class="fill"  fill="#fff" d="M933.3 1704.7c2.7 2.3 6.6 3.1 10.1 3.4 52.1-3.4 109.6 4.4 161.1 0 3.6-.3 7.4-1 10.1-3.4 2-1.7 14.8-16.8 16.3-19.2 4-6.1 2.6-42.4 2.9-52.1l2-18.4c1.1 7.1.4 14.4 1 21.5.6 6.3 2.3 26.2 6 30 1.9 2 6.9 2.8 6.8 5.8l-18.4 53.7c-1.5 2.3-11 6.4-14.1 7.9-16.4 8.2-36.3 17.9-53.2 24.8-20.1 8.3-50.7 3.6-72.4 3l-74.3-34.7-19.3-54.7c0-3 4.9-3.8 6.8-5.8 5.4-5.7 5.4-33.3 6-42l2-9.5c1 17.8 0 36.8 1 54.5.2 4.1 1 12.8 3 16 1.5 2.3 14.4 17.4 16.3 19.2z" class="fill" data-original-prefix="fill"/><path id="fill-gasmask-mask2" class="fill"  fill="#fff" d="M895 1704c-.7.7-12.6-7.8-12.9-8.7-.8-2.6 4.5-15.2 3.9-19.3z" class="fill" data-original-prefix="fill"/><path id="fill-gasmask-mask1" class="fill"  fill="#fff" d="m1153 1704 9-28c-.6 4.1 4.7 16.8 3.9 19.3-.3.8-12.2 9.4-12.9 8.7" class="fill" data-original-prefix="fill"/><path id="fill-gasmask-pods4" class="fill"  fill="#fff" d="M889 1660c-.5.5-2.7.2-2-1.5-.5-34.9-1.3-69.4-12.3-102.7-12.9-39.2-41-74.3-71.2-101.8-6.5-5.9-15.5-11.6-21.5-17.5-1.1-1.1-2.3-1.7-2-3.5 12.6-4.9 23 4.7 32.5 12 56.5 44 84.7 111 83.6 182.5 0 4.8-4.3 29.8-7.1 32.5" class="fill" data-original-prefix="fill"/><path id="fill-gasmask-pods3" class="fill"  fill="#fff" d="M1268 1433c.4 1.8-.9 2.5-2 3.5-6 5.8-15 11.5-21.5 17.5-30.2 27.5-58.3 62.6-71.2 101.8-11 33.4-11.8 67.9-12.3 102.7.7 1.7-1.4 2-2 1.5-2.7-2.6-7-27.7-7.1-32.5-1.1-71.5 27.1-138.5 83.6-182.5 9.4-7.3 19.9-16.9 32.5-12" class="fill" data-original-prefix="fill"/><path id="fill-gasmask-pods2" class="fill"  fill="#fff" d="M671 1457c-.3-1.4 1-1.1 2-1.5 12.4-5.1 49.3-17.4 61.6-18.4s42 17.4 52.7 25.1c45.8 33.1 75.6 78.9 83.5 135.5 3.4 24.2 3.7 60.1-4.3 83.3-2.7 7.8-14.4 16.3-21 22-10.4 9-21.3 17.4-32 26 43.6-110.4-32.2-240.3-142.5-272" class="fill" data-original-prefix="fill"/><path id="fill-gasmask-pods1" class="fill"  fill="#fff" d="m1377 1456-33.7 13.8c-91.3 46.5-147.8 160-108.8 259.2-10.7-8.6-21.6-17-32-26-6.6-5.7-18.3-14.2-21-22-16.9-48.7-2.5-120.4 25.1-162.9 18.5-28.5 67.3-74.3 101.4-80.6 7.7-1.4 25.5 4.9 33.8 7.3 11.8 3.4 23.4 7.7 35.2 11.3Z" class="fill" data-original-prefix="fill"/><path id="fill-gasmask-filter8" class="fill"  fill="#fff" d="m1427.8 1555.8-36.2 24.2c-6.9-12-16-22.8-30.5-25.1l15.1-62.7c12.9-6.1 32.3-3.8 41.8 7.3 12.9 15.2 12.1 37.6 9.8 56.3" class="fill" data-original-prefix="fill"/><path id="fill-gasmask-filter7" class="fill"  fill="#fff" d="M1253 1659v-23.5c0-6.3 6-25 8.5-31.5 1.7-4.4 11.2-23.8 14.5-25.6q1.5-.9 3 0l24.9 14.2c-2.7 7.8-5.3 16.7-5.9 24.9-.6 7.6.8 15 .5 22.5l-45.5 18.9Z" class="fill" data-original-prefix="fill"/><path id="fill-gasmask-filter6" class="fill"  fill="#fff" d="M1333 1716c-.2-8.2.2-16.4 0-24.5 0-4.9-1.4-9.5-1.1-15 .9-14.6 3.5-9.7 13.7-14.3 7.3-3.3 16.4-12.1 22.6-14.4 1.1-.4 1.2-.8 2.6-.3 5.2 2.1 12.9 13.4 19.1 16 1.1.9.9 1.3.5 2.5-.7 1.9-12.7 15.5-15 18.1-8.2 8.7-18.5 18-28.4 24.6-1.9 1.3-12.9 8.6-14.1 7.4h.1Z" class="fill" data-original-prefix="fill"/><path id="fill-gasmask-filter5" class="fill"  fill="#fff" d="M1348.8 1583.3c9-1.3 18 1.6 20 11.5 3.6 17.8-26.8 57.9-44.2 40.2-14.9-15.3 4.9-48.8 24.2-51.6Z" class="fill" data-original-prefix="fill"/><path id="fill-gasmask-filter4" class="fill"  fill="#fff" d="m671.8 1492.2 15.3 62.2c-9.2 2.5-17.5 7.2-23.5 14.7-1.8 2.2-6.1 11.1-7.9 10.8l-35.5-24.1c-2.3-18.7-3.1-41.1 9.8-56.3 9.5-11.2 28.9-13.4 41.8-7.3" class="fill" data-original-prefix="fill"/><path id="fill-gasmask-filter3" class="fill"  fill="#fff" d="m795 1659-45.5-18.9c-.3-7.5 1.1-15 .5-22.5-.6-8.2-3.2-17.2-5.9-24.9l24.9-14.2q1.5-.75 3 0c3.3 1.8 12.8 21.2 14.5 25.6 2.5 6.5 8.5 25.2 8.5 31.5v23.5Z" class="fill" data-original-prefix="fill"/><path id="fill-gasmask-filter2" class="fill"  fill="#fff" d="M715 1716c-1.2 1.2-12.2-6.1-14.1-7.4-9.9-6.6-20.2-15.9-28.4-24.6-2.4-2.5-14.3-16.1-15-18.1-.4-1.2-.7-1.6.5-2.5 6.2-2.6 13.9-13.9 19.1-16 1.4-.6 1.5-.2 2.6.3 6.1 2.3 15.4 11.1 22.6 14.4 3 1.4 11.1 2.7 12.2 4.8 3.4 16.1-.9 32.6.5 49Z" class="fill" data-original-prefix="fill"/><path id="fill-gasmask-filter1" class="fill"  fill="#fff" d="M689.7 1583.2c16.7-3.8 35.6 14.9 38 30.5 4.2 26.8-16.9 32.7-34.2 15.2-6.5-6.6-15.9-24.2-14.5-33.3.7-4.8 5.9-11.3 10.7-12.4" class="fill" data-original-prefix="fill"/><path id="outline-shading-mouth2" class="outline"  fill="#000" d="m1012 1429-11 5c-1.3-1.4 7.3-34.7 9.5-37 3.4-3.7 5.1 2.8 6.2 3 1.3.3 13.4.3 14.6 0 1-.2 1.7-7.6 6.2-3.1s9.3 31.1 9.5 34.5c0 1.1.7 3.1-1.5 2.5-3.2-.9-6.1-4.4-9.5-5v34h-24v-34Z" class="shading" data-original-prefix="shading" opacity=".2"/><path id="outline-shading-mouth1" class="outline"  fill="#000" d="M892.7 1373.8c-20.7 32.8-39.6 47.4-18.2 88.3 1.8 3.4 17.4 28.8 19.1 29.1 1.2.2 2.1-.3 3-1 3.2-2.5 8.1-12.1 11.2-15.8.8-.9 1-2.6 2.7-2.3.8 0 2.5 14 6 14.1h213.1c5.2-.2 5.9-7.8 7.2-11.9.2-.8 0-3.1 1.8-2.2 2.7 1.4 11.2 19.5 14.9 18.9 4.7-.8 24.6-37.2 26.7-43.4 10.7-32.1-9.3-47-23.4-71.6-.4-.7-2.8-4.9-.6-4.9 0 1.5 1.1 2.5 2 3.5 16.5 18.6 32.1 37.9 48.5 56.5-.2 6.6 3.3 15-.5 20.5-4.9 7-15.8 14.4-21.5 21.5-8.2 10.2-13.6 24.8-18.4 36.6-4.3 10.5-8.9 20.9-12.1 31.8l20.9 16.4c.5 6.1-6.8 29.3-4.3 33.3 1.1 1.7 8.8 6.2 11 8 9.8 8.2 19.3 16.8 29.1 24.9 3.5 2.9 9.8 6.6 12.5 9.5 3.2 3.4 5 20.4 5.8 26.2 1.4 9.8 1.8 19.8 3.3 29.7 3.1 20.9 6.9 41.8 10.3 62.6l-70-50c-2.3 0-4.1 1-6 2-3.9 1.9-20.2 13.1-23 16s-3.9 10.5-6.2 12.1c-1.8 1.3-7.6 2.3-10.3 3.4-7.9 3.4-15.6 7.2-23.5 10.5 3.5-7.1 14.6-15.9 17-23 1.6-4.9-.7-10.3 1.6-14.9-.8-.7-9.8 5.8-12.6 5.9-1.8 0-3.8-1-5.9-1-40-.2-80-1.5-120.1-1-13.9.2-31.2 2.6-44.9 2-4.4-.2-8.4-5-12.6-5.9 1.9 4.9.2 10.2 1.5 15 1.8 6.7 13.2 15.2 15.5 20.5.5 1.3-.3 1.9-1.5 1.5l-30.9-13.1c-3.1-2.2-3.1-8.3-5.7-11.3-2-2.4-20.1-14.9-23.4-16.6-1.9-.9-3.7-2.1-6-2l-70.5 50c7.8-38 12-76.6 17.4-115.1 1.2-3.9 16.9-14.5 21-18 11.3-9.5 22.2-20 34.3-28.2l-4.6-33.1c1.5-3.3 20.7-15.1 20.9-16.4-3.6-11-8.1-21.7-12.6-32.4-4.7-11.3-9.9-25.6-17.5-35.5-4.2-5.4-19.4-17.2-21.2-21.8-.7-1.6-1.9-14.8-1.8-17.3 0-1.5 0-2.9 1.1-4l50-59c1.7-1.4 1.1 1.6.7 2.3h-.3Zm121.2 121.3c-.8-.7-9.8.2-11.8 0-1.3 9.4-6 18.7-7.7 27.9-.3 1.4 1 3.8 0 4-.8.2-6.1.2-6.4 0-1.2-1-6.4-29.3-8-30.5-2-1.4-10.1 0-13.1-.4l1 39c-1-.2-3.5.3-3.9 0-.8-.8-2.8-18.8-3.5-22-.5-2.2-4-16.3-4.6-16.8-.4-.3-4.4-.3-4.8 0-1.9 11.4-6.2 22.4-8.9 33.6-.4 1.7 0 6.1-.2 6.3s-5.6 0-5.9 0c-1.5-1.3-3.8-34.1-5.1-38.9-.6-.9-9.3 15.8-10.2 17.3-7.4 12.8-4.9 9.4-5.8 24.2-1.4 24.2-2.4 50.7-1.1 75 .7 12.2 3.5 25.2 4.5 37.5 2 2.3 7.3 2 9 4 1.2 1.3 2.8 7.6 4 10s0 2.4 2 1.9c1.9-1 5.2-17.6 6.6-18.9.3-.3 8.5-.4 8.8 0 .7.7 2.4 16.3 3.7 19.8.5 1.2.9 3.7 2.8 3.2 2.9-.7 8.5-21.9 12.2-22.8 1.8-.4 5.2.9 6.2 2.5 1.8 3.1 4.3 21.8 6.7 22.3 1.8-.3 3.4-1 4.2-2.7 2.1-4.1 4.2-26.4 5.2-27.3.3-.3 8.6.8 9 1.1 1.2 1.1 4.8 30 6.2 30.8.6.4 8.4.3 8.8 0l7.1-23.8c1.7 0 3.8-.4 5.4 0 1.2.2 6.7 23.1 7.7 24 .3.3 7.5.4 8.3.2 1.8-.5 5.5-29.9 6.7-31 .3-.3 8.6-1.4 8.9-1.1 1.1 1.1 2.8 24.2 5.6 27.9.6.9 3.7 3 4.5 1.5 2.4-3.7 4.8-21.7 6.1-23.2.6-.7 5.5-1.5 6.8-.7 2.4 1.5 8.7 18.6 10 22.5 2.3.2 2.8.2 3.8-1.7 1.6-3.1 3.4-21 4.8-21.3.8-.2 8 0 8.3.2.6.5 4.1 12 4.7 13.8.4 1.5.3 4.9.4 5.1 3.5 3.5 5.9-10.4 7.5-12s7.8-1.6 8.8-4.2c5.1-34 6-68.9 4.7-103.3-.2-6.3-.7-22.3-2.6-27.4-1-2.5-4-4.5-5.3-6.7-.7-1.3-8.2-17.6-9.2-16.3-1.7 4.8-3.6 37.6-5.1 38.9-.2.2-5.8.3-6 0-.2-.2.3-4.1 0-5.4-.4-1.7-1.6-3.1-2.1-4.9-1.1-4.1-5.8-28.6-6.9-29.6-.4-.4-4.3-.6-5 .5l-7.9 38.4h-4l1-39c-2.9.6-11.1-1-13.1.4-2.1 1.5-6.8 29.4-8 30.5-.7.6-4.9-.2-6.3 0l-7.6-32c-2.1.3-11.1-.6-11.9 0-1 .8-5 21.1-5.9 24.6-.3 1.4 0 5.1-.2 5.3-.3.3-6.4.2-7.4 0-1.5-.2-5.4-28.9-6.7-29.9l.2-.3ZM1122 1682c-29.2.9-58.2 3.4-87.4 5.1-27.3 1.5-57.3-2.1-84.9-3.4-7.3-.4-14.7-2.7-22.2-1.6-1.3.2-1.8-.5-1.5 1.5.7 4.7 9 15.9 13.8 17.2 14.3 3.9 32.1 2.3 46.7 2.2 28.7-.2 57.7.5 86 0 9.9-.2 27.5.7 36.6-2.4 3.9-1.4 15-16.6 12.9-18.5Z" class="shading" data-original-prefix="shading" opacity=".2"/><path id="outline-mouth9" class="outline"  fill="#000" d="M1213 1438c12.3-8.3 31.4-24.7 47.3-21.8 5.6 1.1 16.2 9.7 20.2 9.7s16.1-9.7 26.9-8.8c14.2 1.2 37.5 7.5 52.1 11 25.4 6 55.6 13.9 79.8 23.2 14.4 5.5 15.6 8 20.2 22.8 24.4 78-7.5 190.4-67 246-27.9 26.1-80.4 59.5-120 55-9.9-1.1-41.8-24.2-51.8-31.2-16.4-11.4-32.4-23.5-48.2-35.8l-26.2 17.3-4.1 11.4c-22.9 14.4-47.9 26.7-71.7 40.3-29.8 2.1-60 .5-90 .8-25.3-12.4-50.7-26.8-74.8-41.2l-4.1-11.4-26.2-17.3c-12.6 9.7-25.2 19.6-38.2 28.8-11 7.8-51.2 37-61.8 38.2-49.7 5.6-117.6-45.2-145.3-83.7-30.8-42.7-53-114.2-50.2-166.9.8-16 5.9-50.7 13.8-64.2 4.2-7.1 20.4-10.9 28.4-13.6 38.9-13 79.1-21.8 119.3-29.8 7.1-2 21.5 9 26 9s14.6-8.6 20.2-9.7c15.8-3 35 13.5 47.3 21.8-.6-5.2 2.2-8.8 4.6-12.9 11.9-20.9 38.4-53.2 55.4-70.6 3.9-4 9.4-7.1 13.5-11.5 7.4-7.8 13.6-19.5 21.5-26.5 14.7-13.2 47.3-29.7 66-37 7.8-3 24.5-9.8 32.2-8.3 21.1 4 74.9 31.4 90.7 46.2 7.1 6.7 13.4 18 20.5 25.5 24.6 26 50.3 50.6 68.9 82.1 2.4 4.1 5.2 7.9 4.6 12.9zm-75 132c4.9-38.1 23.1-74.8 47-104.5 5.9-7.2 20.9-19.4 18.8-29.8-.6-3.1-16.3-23.6-19.4-27.6-35.9-46.7-81.1-93.9-136.7-116.3-8.6-3.4-31.7-4.3-40.9-2.6-6 1.1-25.9 12-32.4 15.6-31.3 17.1-52.9 37.2-76.8 63.2-19.3 20.9-37.2 43.3-53 67-1.3 13.3 11.1 21.4 18.5 30.6 19.5 24.2 33 50 42.3 79.7l5.7 24.8-2.5-110.1h109.6c.6-14.5 4.5-26.9-2-40.9-1.7-.4-2 .7-3 1.5-4.3 3.3-19 22.3-21.5 22.6-3.8.3-15.3-12.2-18.5-15.5-8.8-9.2-21.8-22.7-29.4-32.6-5.2-6.8-7.2-10.2-3-17.8 5.2-9.5 24.4-34.6 32.4-41.6 5.6-5 7.8-5.3 14-1.9 12.4 6.8 24.9 17.3 36.7 25.3 12.6-7.5 25.2-18.9 38-25.7 6.3-3.3 9.1-1.7 14.3 3.3 7.4 7 27.9 33 32.1 41.9 3.3 7 .4 11.3-4.2 17.2-9.1 11.6-29.4 34.4-40.4 43.6-2.5 2.1-5.8 5.6-9.1 3.1-4.3-5-8.9-10.8-13.4-15.6-1.3-1.3-7.7-8.4-9-7.5-6.5 14-2.7 26.5-2 41h109.6l-1.6 110zm-249 90c2.7-2.6 7-27.7 7.1-32.5 1.1-71.5-27-138.5-83.6-182.5-9.4-7.3-19.9-16.9-32.5-12-.4 1.8.9 2.5 2 3.5 6 5.8 15 11.5 21.5 17.5 30.2 27.5 58.3 62.6 71.2 101.8 11 33.4 11.8 67.9 12.3 102.7-.7 1.7 1.5 2 2 1.5m379-227c-12.6-4.9-23 4.7-32.5 12-56.5 44-84.7 111-83.6 182.5 0 4.8 4.3 29.8 7.1 32.5.5.5 2.7.2 2-1.5.5-34.9 1.3-69.4 12.3-102.7 12.9-39.2 41-74.3 71.2-101.8 6.5-5.9 15.6-11.6 21.5-17.5s2.3-1.7 2-3.5m-597 24c110.3 31.7 186.1 161.6 142.5 272 10.7-8.6 21.6-17 32-26 6.6-5.7 18.3-14.2 21-22 8.1-23.2 7.7-59.1 4.3-83.3-7.9-56.5-37.7-102.4-83.5-135.5-10.7-7.7-40.1-26.1-52.7-25.1s-49.2 13.3-61.6 18.4c-1 .4-2.3 0-2 1.5m706-1c-11.8-3.6-23.4-7.8-35.2-11.3-8.3-2.4-26.2-8.7-33.8-7.3-34 6.3-82.9 52.1-101.4 80.6-27.6 42.6-42 114.3-25.1 162.9 2.7 7.8 14.4 16.3 21 22 10.4 9 21.3 17.4 32 26-39-99.2 17.5-212.7 108.8-259.2l33.7-13.8Zm-738.3 11.2c-48.2 7.5-39.8 78.4-32.2 112.8 11.2 51.4 35.8 106.3 79.8 137.2 33.4 23.4 88.7 51.4 114.9 3.5 31.5-57.6-4.1-148.3-44.7-193.7-25.1-28.1-78.2-65.9-117.8-59.8m755.1.1c-95.5 9.3-181.2 146.6-153.7 237.2 20.2 66.6 80 42 121.7 12.8 37.6-26.4 59.1-67.4 72.6-110.4 13.4-42.9 33.5-146.7-40.5-139.5ZM1130 1472H918v10h212zm-168 16c-.5-.5-13.8.5-14.8 1.2-.4.3-3 8.2-3 9.3s.9 3.2.9 5c-.7 45 1.8 90.2 4 135 .6 12.5-.3 25.2 2 37.5l12.9.9c.4-2.1 1-4.2 1.1-6.4 1.6-23.1-.7-47-1.1-70-.5-32.7-.3-65.4-2-98-.3-4.8.3-9.7 0-14.6Zm22.9.1c-.8-.7-10.7.3-12.9 0 .7 3.6-.9 7.1-1 10.5-1.3 50.7 1.8 105.1 3.1 156 .2 8.1-1.5 15.4 0 23.5 3 0 11.5 2.7 13.5 0 .8-1 2.3-9.6 2.5-11.5 1.2-14.5.2-33.2 0-48.1-.4-29.9-2.3-60.1-3.1-89.9-.2-6.4 1.2-37.6-2.1-40.4Zm32.1-.1h-20c0 5.7-1.1 10.8-1 16.6.7 50.7 1.4 102.3 4.1 152.9.2 2.8-.7 22.5 2.5 22.5h15.5c2.3-11.2 2.2-22.1 2-33.6-.7-45.4 1.2-94.1-1-139-.3-6.2-1.8-13.2-2-19.5Zm34 0h-20c-.2 6.3-1.7 13.2-2 19.5-2.2 44.9-.3 93.6-1 139-.2 11.5-.2 22.3 2.1 33.6h15.5c3.2 0 2.3-19.7 2.5-22.5 2.6-50.6 3.4-102.3 4.1-152.9 0-5.8-.9-10.9-1-16.6h-.2Zm25 0c-2.2.4-12.1-.6-12.9 0-.3.3-2 7.2-2.1 8.4-2.1 21.3-.4 48.1-.9 70.1-.8 31.4-4.6 69.1-2.1 100 .2 2.2 1.4 9.2 2.2 10.8 1.9 3.8 10.2.7 13.8.6 1.5-8.1-.2-15.4 0-23.5 1.3-51.4 3.7-103.6 3.1-155 0-3.9-1.6-7.5-1-11.5Zm24.8 1.2c-1.1-.7-14.3-1.7-14.8-1.2-1.3 37.5-1.4 75-1.9 112.6-.3 23-2.6 46.9-1.1 70 .8 11.5 5.5 4.4 14 5.4 3.7-41.7 4.1-83.5 5-125.5.4-16.9 2.4-35.1 1.9-52 0-1.1-2.6-9-3-9.3Zm-166.9.9-14.8.9c0 2.8-.3 5.7 0 8.5 3.5 55.5 2.8 111.7 8 166.9 0 1.1.9 6.2 1.1 6.4.4.4 8.8 1.6 9.7 1 2.7-10.8 2.3-22.2 2.2-33.4-.3-23.8-2.4-48.1-3.1-71.9-.7-22.2.8-47.4-.9-69.1-.3-3.2-1.1-6.3-2.2-9.3m195 1-14.8-.9c-.8 2.7-1.8 5.5-2.1 8.4-2.1 21.6-.3 47.9-1 70-.7 23.8-2.8 48.1-3.1 71.9 0 4.4-.4 32.9 2.7 33.6 1.1.2 8.9-.9 9.2-1.2s1-5.3 1.1-6.4c4.6-47.9 5.1-96.9 7.1-144.9.4-10.1.3-20.4.9-30.5m-195.6 213.6c-2-1.7-14.8-16.8-16.3-19.2-2-3.2-2.8-11.8-3-16-1.1-17.7 0-36.7-1-54.5l-2 9.5c-.6 8.7-.5 36.3-6 42-1.9 2-6.9 2.8-6.8 5.8l19.3 54.7 74.3 34.7c21.7.5 52.4 5.3 72.4-3 16.8-7 36.8-16.6 53.2-24.8 3.1-1.5 12.6-5.6 14.1-7.9l18.4-53.7c0-3-4.9-3.8-6.8-5.8-3.7-3.9-5.4-23.7-6-30-.6-7.1 0-14.4-1-21.5l-2 18.4c-.3 9.7 1 45.9-2.9 52.1-1.5 2.3-14.4 17.4-16.3 19.2-2.8 2.4-6.6 3.1-10.1 3.4-51.4 4.4-109-3.4-161.1 0-3.5-.3-7.4-1.1-10.1-3.4zm-38.3-.7-9-28c.6 4.1-4.7 16.8-3.9 19.3.3.8 12.2 9.4 12.9 8.7m258 0c.7.7 12.6-7.8 12.9-8.7.8-2.6-4.5-15.2-3.9-19.3zm-36-22c-16.1 1.9-32.3 4.7-48.5 6-24.9 2.1-51 2.6-76 1-20.6-1.3-41-4.9-61.5-6.5 1.7 3.3 7.5 14.9 10.5 15.5 55.4.7 110.5 1 165.8-.2 1.5-.5 10.4-15.1 9.7-15.8" class="outline" data-original-prefix="outline"/><path id="outline-mouth8" class="outline"  fill="#000" d="m1436.8 1563.8-50.7 34.2c-4-18.3-19.9-33.9-39-35l20.2-81.8c23.3-7.5 49.2-10.2 65.8 11.3 12.3 16 8.8 52.5 3.8 71.2h-.1Zm-9-8c2.3-18.7 3.1-41.1-9.8-56.3-9.5-11.1-28.8-13.4-41.8-7.3l-15.1 62.7c14.4 2.3 23.6 13.1 30.5 25.1z" class="outline" data-original-prefix="outline"/><path id="outline-mouth6" class="outline"  fill="#000" d="M1315.9 1589.1c-3.2 14.3-8.1 27.2-6.9 42.4.2 2.8 3.5 14.4 2.9 15.4L1243 1679c-3.3-39.5 4.8-84.4 31.5-114.8zM1253 1659l45.5-18.9c.3-7.5-1.1-15-.5-22.5.6-8.2 3.2-17.2 5.9-24.9l-24.9-14.2c-1.1-.5-2-.5-3 0-3.3 1.8-12.8 21.2-14.5 25.6-2.6 6.5-8.5 25.2-8.5 31.5v23.5Z" class="outline" data-original-prefix="outline"/><path id="outline-mouth61" class="outline"  fill="#000" d="m1320.1 1732.9 6.4-73.9c1.2-2.2 7.5-2.1 10.1-2.9 7.3-2.2 13-4.4 19.3-8.7 3.8-2.6 9.9-9.5 13.2-10.9 1.4-.6 2.3-.6 3.7.3l28.8 23.2c.8.7 1.4 1.5 1.4 2.6 0 3.4-16.1 23.8-19.5 27.5-10.6 11.7-44.7 41.1-59.5 43.6-1.4.2-2.6 0-3.9-.7Zm12.9-16.9c1.2 1.2 12.2-6.1 14.1-7.4 9.9-6.6 20.2-15.9 28.4-24.6 2.4-2.5 14.3-16.1 15-18.1.4-1.2.7-1.6-.5-2.5-6.2-2.6-13.9-13.9-19.1-16-1.4-.6-1.5-.2-2.6.3-6.2 2.4-15.3 11.1-22.6 14.4-10.2 4.6-12.8-.3-13.7 14.3-.3 5.5 1 10.1 1.1 15 .2 8.2-.2 16.4 0 24.5h-.1Z" class="outline" data-name="outline-mouth6" data-original-prefix="outline"/><path id="outline-mouth5" class="outline"  fill="#000" d="M1348.7 1574.2c9.1-1.4 16.2.2 22.2 7.3 23.8 27.5-23.6 86.8-50.5 63.5-21.9-19 1.7-66.6 28.2-70.8zm.1 9.1c-19.3 2.8-39.1 36.3-24.2 51.6 17.3 17.8 47.8-22.3 44.2-40.2-2-9.8-11-12.8-20-11.5Z" class="outline" data-original-prefix="outline"/><path id="outline-mouth4" class="outline"  fill="#000" d="M680.8 1481.2 701 1563c-19.6 1.1-34.5 16.9-39.5 35l-50.6-34.7c-4.5-19.3-8.4-55.2 4.6-71.3 16.9-21.1 42-18.2 65.3-10.8m-9 11c-12.9-6.1-32.3-3.9-41.8 7.3-12.9 15.2-12.1 37.6-9.8 56.3l35.5 24.1c1.8.3 6.2-8.6 7.9-10.8 6-7.5 14.3-12.2 23.5-14.7z" class="outline" data-original-prefix="outline"/><path id="outline-mouth3" class="outline"  fill="#000" d="m805 1679-69.1-32.7c2.3-8.9 3.8-17.5 3.1-26.8-.8-10.5-5.2-20.2-6.9-30.4l41.4-24.9c26.7 30.5 34.8 75.3 31.5 114.8m-10-20v-23.5c0-6.3-6-25-8.5-31.5-1.7-4.4-11.2-23.8-14.5-25.6q-1.5-.9-3 0l-24.9 14.2c2.7 7.8 5.3 16.7 5.9 24.9.6 7.6-.8 15-.5 22.5l45.5 18.9Z" class="outline" data-original-prefix="outline"/><path id="outline-mouth2" class="outline"  fill="#000" d="M727.9 1732.9c-.3.6-3 .8-3.9.7-14.8-2.5-48.8-31.9-59.5-43.6-3.4-3.7-19.5-24.1-19.5-27.5s.7-1.9 1.4-2.6l28.8-23.2c1.3-.8 2.2-.9 3.7-.3 3.2 1.4 9.3 8.3 13.2 10.9 6.3 4.3 12 6.6 19.3 8.7 2.7.8 8.9.7 10.1 2.9l6.4 73.9ZM715 1716c-1.4-16.4 2.9-32.9-.5-49-1-2.1-9.2-3.4-12.2-4.8-7.2-3.4-16.5-12.1-22.6-14.4-1.1-.4-1.2-.8-2.6-.3-5.2 2.1-12.9 13.4-19.1 16-1.1.9-.9 1.3-.5 2.5.7 1.9 12.7 15.5 15 18.1 8.2 8.7 18.5 18 28.4 24.6 1.9 1.3 12.9 8.6 14.1 7.4Z" class="outline" data-original-prefix="outline"/><path id="outline-mouth1" class="outline"  fill="#000" d="M687.7 1574.2c37.2-7.7 66 59.2 35.5 73.5s-68.2-42.3-45.8-66.8c2-2.2 7.4-6.2 10.2-6.8Zm2 9c-4.8 1.1-9.9 7.6-10.7 12.4-1.4 9.1 8.1 26.8 14.5 33.3 17.2 17.5 38.3 11.7 34.2-15.2-2.4-15.7-21.3-34.3-38-30.5" class="outline" data-original-prefix="outline"/></g></svg>