<?xml version="1.0" encoding="UTF-8"?>
<svg xmlns="http://www.w3.org/2000/svg" viewBox="0 0 2048 2048">
  <style>
      .outline { fill: #000000; }
      .fill { fill: #FFFFFF; }
      .shading { fill: #aaaaaa; opacity: 0.5; }
    </style>
  <g class="trait-group" data-category="background" id="background-red">
      <path id="color-red" class="color" d="M2048,4.5c-.1,679.6-.1,1359.2,0,2038.8,0,3.8-.8,4.6-4.6,4.6-679.6-.1-1359.2-.1-2038.8,0-3.8,0-4.6-.8-4.6-4.6C.2,1362.3.1,681.2.1,0h2043.3c3.8,0,4.6.8,4.6,4.6h0v-.1Z" style="fill: #af6e6e" fill="#af6e6e"/>
    </g><g class="trait-group" data-category="jaw" id="jaw-half-robo">
      <path id="fill-jaw" fill="#ffffff" d="m1382.8 1128.2 12.4 130.2 60.9 48.3-49.6 133.4c-1 1.4-2.4 1.1-3.9.9-13.9-1-32.8-8.5-47.4-10.7-1.8-.3-3.5-.4-5.2-.3 1.2 4.7-1.2 7.6-2.1 11.4-4.9 22.2-7.7 45-12.1 67.4l-57.2 29.3-1.4 1.6c-1.1 12 1.6 23.9.9 35.9-.3 5-1.3 14.9-2.3 19.7-.6 2.8-13.7 32.2-15 33.5s-16.1 8.9-16.7 8.3l-9.5-50-51 52c-7.7 5.7-20.7 9.3-27.5 15.5-14 12.7-24.7 36.5-41.4 47.6-5.5 3.6-58.7 25.2-65.4 26.6-2.4.5-46.7.7-49.3.2-6.2-1.1-59.9-22.7-65.6-26.3-14-8.8-29.1-36.3-42-48-6.7-6.1-19.9-9.6-27.5-15.4l-51-52-9.6 48.4c-.6.9-.9 1.7-2.2 1.5-.8 0-13.8-7.6-14.4-8.2-1.4-1.4-15.6-32.9-16-35.5l-.7-54.3-58.2-30.3-12.3-69.7c-16.4-1.1-33.5 3.9-49.5-1l-37.3-85.8c-.7-3.4 4-13 5.6-16.9 8-19 17.8-37.3 25.7-56.3 9.2-2.5 21.3 1.1 29.9-5.1 4-2.8-.2-18.8 0-23.9l-19-32.1-.3-2.2 27.6-63.5c1.4-9.9-3.2-21.4-1.1-31.1 1.3-6.2 9.7-21.7 13.2-27.9 54.6-98.4 184.4-157.8 290.2-180.8 48.2-10.5 90.3.5 136.5 15.4 98 31.8 198 94.6 250.7 185.3 3.2 5.5 3.8 13.3 10.7 14.8h-.7Z" class="fill" data-original-prefix="fill"/><path id="fill-jaw1" fill="#ffffff" d="M1265.7 1351.3c9.2 7.7-4.5 25.9-12.2 15.7s2.9-23.4 12.2-15.7" class="fill" data-name="fill-jaw" data-original-prefix="fill"/><path id="fill-jaw2" fill="#ffffff" d="M1314.6 1391.2c7.8-1.5 6.2 19.1-2.9 17.7-9.8-1.5-.6-17 2.9-17.7" class="fill" data-name="fill-jaw" data-original-prefix="fill"/><path id="shading-jaw" fill="#aaaaaa" d="M1377.3 1124.7c2.2 2.7 13.8 4 14.5 10l8.4 112.6c17.4 18.9 36.8 35.9 56.4 52.6l1.5 3.6-51 135.8c-1 1.6-3.7 1.7-5.4 1.6-14.4-.9-32.2-8.4-47.3-8.9-1.8 0-3.2-.2-4.4 1.3l-14.4 75.6-59.4 30.1c.4 11 2.6 23.6 2 34.5-.3 5.7-1.3 15.4-2.1 20.9-.5 3.1-13.4 31.4-15.4 33.6-3 3.2-11.6 6.2-15.5 9l-12-46.4-2.4-.6-46.1 47.9c-7.8 6.2-20 9.3-27.5 15.5-14.2 11.7-24.4 36.1-41.5 47.5-6.8 4.6-52.9 25.2-60.4 26.6-9.5 1.7-52.8 1.8-62.3.2-7.6-1.3-48.1-19.8-56.6-24.4-16.2-8.6-30.7-38.5-45.1-49.9-7.1-5.7-18.8-9.3-26.5-14.5l-48-49-8.5 47c-1.4 1.2-18.5-6.9-20.5-9-1.7-1.8-15-30.8-15.4-33.6-.7-4.4-.9-13-1.1-17.9-.5-12.2.6-24.4.5-36.6-18.8-11.7-39.4-20.3-58.6-31.4l-13.1-67.4-46.4.9-36.3-91.7-.2-2.3c6.7.3 9.7 6.8 15.7 10.8 19.1 12.8 34.2 19.3 57.7 16.1 20.6-2.8 26.4-11.2 48-1.7 16.1 7.1 19.4 16.7 31.2 25.8 13.2 10.2 17.5 3.6 25.9-7.1 6.9-8.8 25.8-41.6 27.4-51.6 1.7-10.7-3.8-11.2-13-10-8.6 1.1-48.4 15.1-51 14.6-1.7-.4-12.3-7.9-16.5-9.6-20.3-8.4-48.8-11.8-67.2-20.8-14.3-6.9-12.2-21.7-18-34.5l21.5-4.1c1.9.3 10.9 13 13.5 15.6 13.7 13.8 58.3 32.8 77.6 33.5 3.4 0 6-1 8.9-1.1h20.5l-34.7-16.8c-19.1-10.8-48.2-33.1-61.8-50.2-6.2-7.7-7.1-18.3-10.5-27.5-6-16.6-14.4-32-25-46 1.3-9 6.5-19.6 7.8-28.2 2.8-19.1 3.8-27.8 12.1-45.9 49-107.6 188.2-173.2 298.2-196.8 27.9-6 50-5.8 77.9 0 118 24.3 244.7 92.5 307.8 198.2 1.9 3.1 5.2 12.6 6.5 14h-.4ZM1326 1307c15.3-11.2 31.9-21.8 44.5-36 6.1-22.7 14.6-45.7 13.5-69.6l-2.1-29.5c-1.4.2-1.9 1.8-2.5 2.9-16.8 30.8-29.1 66.4-47 97l-62.3 38.7.4 3.3c5.9 15.3 32.8 49 33.4 63.6.2 4.3-2.2 10.7-.7 15.7 1.1 3.6 11 9.8 15.2 9.4l62.4-18.5c8.3 1.2 16.7.9 25.1.6l36.7-78.8.3-3.3c-14.1-10.8-29-21.4-44.3-30.7l-2.8 11.8c-13.3 5.6-27.2 16.2-40.4 21.1-6.7 2.5-16.4 2.8-23.8 3.2-1.2 0-5.6.7-5.5-1Zm-248 20c-5.1-10.6-9.9-23.3-16.6-32.9-6.5-9.4-23.8-30.4-31.9-38.1-4.2-4-7-3.9-11.1 0-7.7 7.4-27 30.2-32.9 39.1s-10.5 22.1-15.6 31.9zm200.7 70.7c1.4-1.6 8.8-25.5 9.1-28.5.4-4.4-3.5-11.7-5.6-15.9-3.8-7.3-18.5-32.7-23.6-37.4-5.7-5.3-8-1-14 1.1-11.8 4-23.6 7.8-35.5 11.5-1.3 1.1-1.1 1 0 2 3 2.6 6.7 4.5 9.4 7.6 6.8 8.1 12.2 22 18.6 30.9l3.1-12.4c.8-3.8 7.7-7.4 10.8-5.4 1.2.8 3.6 11.4 7.9 12.7 6.1 1.8 8.2-5 11-5.7 4.2-1 10.3 3.7 10.1 8.1-.5 11.3-14.6 20.3-25.1 18.6-1.1-.2-10.1-4.8-8.7-1.3 3.1 2.8 14.4 21.8 16.7 22.4 2 .5 14.5-6.5 16-8.2h-.2Zm-550.4 99c1.6 2 8.2 6.3 10.7 7.8 14.8 8.8 31.7 13.8 46.9 23.1 16.8 10.2 40.2 33.1 59.6 33.5 2.3 0 8.7-1.2 9.4-3.7.8-2.7-13.5-27.5-16.4-30.3-7.3-7.2-27.5-17.2-37.2-23.8-15.2-10.3-50.3-39.1-67.9-39.2-10.5 0-8.7 28.1-5.1 32.7Zm591.4-30.4c-6.1-6-24 4-30.4 7.6-16.3 9.1-30.8 21.3-46.2 31.8-9.3 6.4-25.4 13.9-33.1 20.9-3.1 2.8-16.2 24.5-16.9 28.2-1.1 5.3 6.2 6.5 10.3 6.3 16.8-1 25.6-11.2 38.2-19.8 8.3-5.7 17.3-12.1 26-17 11.7-6.6 47.1-19.2 52.7-29.3 2.4-4.3 2.8-25.2-.7-28.6ZM1126 1664c-12-2.7-20.7 6.6-31.6 7.9-5.7.7-12.2-1.2-16.6-.7-7.1.8-22.9 12.1-31.2 14.9-14.8 4.9-30.2 4.7-45.1 0-8.8-2.8-23.9-14.1-31.2-14.9-4.4-.5-10.9 1.4-16.6.7-11-1.3-19.9-11-31.6-7.4 0 7 23.7 23.4 30 27 12.5 7.1 59.7 26.8 72.5 26.6s59.8-19.7 72.2-26.9c3-1.8 33.6-23.3 29.3-27.2z" class="outline shading" data-original-prefix="shading" opacity="0.5" style="opacity: 0.5"/><path id="outline-jaw" fill="#000000" d="M1378 1122c.3-3.9.6-9.1 5.7-9.8 7.8-1.2 8.7 12 9.3 17.3 3.8 33.8 2.1 69.1 8.3 102.7 2.2 11.9 3.2 13.8 12.3 21.7 14.8 13 33.2 22.8 47.5 36.5 2.6 2.5 11.8 12.2 12 15.1l-66.1 156.3-46.9-24.9c-1.8 6.1-5.4 12.6-6.7 18.8-4.1 19.2 0 41.1-2.2 59.8-.4 3.4-10.5 17.5-13.3 18.7-6.4 3-16.2-1.8-24.7 3.3-23.8 14.4-17.9 48.6-27.2 68.8-7.8 17-37 48.2-52.9 58.1-1.6 1-2.9 1.9-4.9 1.6 1.1-14.8 3.1-34.9-3.9-48.6-.4-.8-.4-3.2-2.1-1.4-.7.7-3.6 13.8-6.6 17.9-5.8 7.9-20.7 8.9-29.4 12.6-16.7 7-14.3 32.7-27.7 43.3-19.3 15.2-61.2 32-85.1 38.9-10.8 3.1-38.9 11.3-48.7 11.3-15 0-63.4-15.1-78.8-21.2-11.1-4.4-55.3-26-60.6-34.4-6.9-11.1-8.5-31.6-21.5-37.6-14.5-6.6-26.4-2.4-33.9-20.1-1.1-2.5-2.5-10.3-2.8-10.7-1.3-1.6-1.8.4-2.2 1.3-6.9 12.5-5 34.9-3.8 48.7-2 .3-3.3-.6-4.9-1.6-15.7-9.8-48.9-44.4-54.2-61.8-6.2-20.6-5.3-52.1-25.9-65.1-8.2-5.2-18.3-.3-24.7-3.3-.9-.4-12.2-14.2-12.7-15.3-2.1-5.2-.2-29.6-.5-37.4-.4-9.1-2-18.5-3-27.5-4 1.6-7.6 4.7-11.9 5.6-2.8.6-5.6.7-8.5.3-4.7-.6-27.4-9.9-32.6-12.4-1.3-.7-2.7-1.2-3.5-2.5-2-33.7-22.2-63.7-44-88-2-4.4 2.1-14.5 3.7-19.2 6.2-17.8 15.6-36.4 25.7-52.3 3.2-5.1 14.2-22 17.9-25.1 5.5-4.4 9.8 3.3 14.6 6.6 1.6 1.1 12.7 7.8 13.5 7-2.9-7.2-9.4-11-13.8-17.7-4-6-15.9-26.4-15.8-32.6s5.4-17.7 6.5-25.3c.5-3 1.1-8.8 1.2-11.8.2-6.5-3-17.5 1.3-22.2 1.2-1.4 12.8-6.5 14.1-6.2.9.2 5 11.2 10.5 7.8 2.3-1.4 1-34.7 0-39.9.3-.3 7.6 1.8 8 2 1.8 1.1 7 8.1 9.8 9.7.5 8.4 3.4 20.7 1.1 28.7-2.8 10.1-17.5 14.8-21.2 22.8-1.2 2.6-6.4 25.9-6.7 29.3 0 1.2-.2 2.4.2 3.7 4.8 10.3 13.7 19.4 18.7 29.3s9 33.8 15.5 40c5.3 5.1 14.5 7.1 21 10.5 7.5 4.1 15.7 10.7 22.7 15.8-11.3-1.3-47.2-5.2-54.5-13-3.3-3.6-5.7-15.7-9.6-17.4-2.6-1.2-6.2-.2-9.2-.8-7-1.2-10.7-7.9-18.5-1.5-6.6 12.5-14.3 24.3-20.4 37.1-7.4 15.4-14.8 25.1-4.8 41.2 5.3 8.6 23.3 26.7 25.6 34.4 2.5 8.6-2.7 28 2.9 34.1 6 6.6 20.6 4.5 27.8.8 10.6-5.4 8.7-9.9 14.3-18.7 5.2-8.2 19.7-23.1 28.9-26.2s13.4 8.6 15.6 15.5c7.3 23.8-.2 34 22.5 51.5 11.6 8.9 33.3 20.1 47.8 17.9 8.5-1.2 21.1-6.6 27.2-12.8 7.2-7.5 8.8-24.6 24-14 15.8 11 30.3 30.1 46.6 41.4 20.5 14.3 77.5 32.5 102.5 34.6 37 3 105.5-17.1 134.5-40.5 11.5-9.3 21.6-20.6 33-30 4-3.3 11.6-11.3 17-8 .7.5 7.5 12.5 9.2 14.8 3.3 4.7 11.5 16.1 17.4 16.7 7.4.8 31.3-15.5 40.2-17.2 8.1-21.2 17.3-42.1 23.5-64 2.8-9.9 8.4-24.8 3.8-34.3-2.1-4.2-21.3-33.6-24-36-3-2.7-9.6-5-13.5-6.5-3.3-1.2-19.8-5.2-20.5-6-1.5-1.4.4-1.7 1.3-2.2 1.3-.7 11.6-5.7 12.3-5.8 2.6-.4 25.4 6.8 27.4 8.5s8.6 15.3 11 19c5 7.6 19.5 25.4 20.8 33.2.4 2.5.5 4.9-.2 7.3l-26.5 74.9c22.1-8.1 42.1-21.6 63.6-30.8 4.1-1.8 12.4-6.1 16.3-4.6 4.7 1.7 16.6 11.3 22.4 14.6 2.4 1.4 18.7 10.5 19.7 9.8l48.1-125.5c-.2-2.1-12.6-9.7-15.4-11.7-13.3-9.9-23-17.3-37.4-25.6-7.1-4.1-7.5-7.8-8.3-15.7-2.2-22.8-2.4-46.1-4-69-1.5-20.8-6.3-45.1-5-65.5h-.7Zm-649 280c-5.9.4-11.3 6.2-14.4 11.1-12.8 20.4-.6 26.3 1.3 45.5 1.3 13.2-3.2 33.5 4.7 44.3 5.3 7.3 21.6 10.7 30.1 14.9 3.6 1.8 23 13.2 24.8 15.2.4.4 3.3 5.3 3.3 5.6 0 .8-3.5 12.2-3.8 15.8-1.9 24 4.5 52.9 21 71l5 4.5c.9-4.6-1.1-9.2-1.1-13.5 0-12.5 8.2-24.3 10.1-36.5 23.5 5.4 36.4 28.6 51.4 45 11.3 12.4 23.8 14.5 34.1 23.9 6.5 5.9 11.9 15.9 17.5 22.5 14.6 17.4 20.2 23.3 41.3 32.7 29 13 50.6 21 83.2 18.9 16.8-1.1 61.8-19.2 76.4-28.6 16-10.4 26.2-34.2 40.1-45.9 10.6-9 21.7-10.9 32.5-22.5 15.6-16.6 28.5-40.5 52.5-46 .8 9.9 6.9 18.2 8.7 27.8 1.5 7.6.3 13.6.3 21.2 7.8-5.3 15.2-16.8 18.8-25.6 5.4-12.9 8.1-33.2 7.2-46.9-.2-3.4-3.8-17.5-3.5-18.4.6-1.7 3.6-5.7 5.2-6.9 4.5-3.4 17.3-10.6 22.7-13.3 11.7-5.9 31.5-8 33.6-23.4s-.7-31.7 3.8-48.2c1-3.6 5.3-8-1.4-5.4-30.7 11.8-63.4 35.5-93.6 46.4-10.1 3.6-23.8 2.7-32.8 7.2-6.8 3.5-11.5 12.3-16.4 17.6-16.2 17.4-41.8 25.6-65 28-69.4 7-135.6 6.9-205 0-21.7-2.1-46-9.9-62.5-24.5-5.9-5.2-10.7-15.4-19.3-15.2-3.9 0-8.2 3.3-11.2 3.7-5.5.6-22.8-12.9-28.7-16.2-15-8.4-31.4-14.8-46-24-2.8-1.8-16.7-11.4-17.8-13.2-2.8-4.9.2-12 0-17.1 0-10.4-4.3-21.6-7.1-31.5" class="outline" data-original-prefix="outline"/><path id="outline-jaw1" fill="#000000" d="M1253.7 1342.2c12.9-2.4 29.1 10.8 24 24-3.6 9.3-14.2 17-24.2 12.8-15.8-6.5-17-33.6.3-36.8zm12 9.1c-9.3-7.8-20.1 5.1-12.2 15.7s21.4-8 12.2-15.7" class="outline" data-name="outline-jaw" data-original-prefix="outline"/><path id="outline-jaw2" fill="#000000" d="M1313.7 1382.2c20.2-4.4 22.1 39.9-4.2 35.7-17.9-2.8-9.8-32.7 4.2-35.7m.9 9c-3.6.7-12.7 16.2-2.9 17.7 9.1 1.4 10.8-19.2 2.9-17.7" class="outline" data-name="outline-jaw" data-original-prefix="outline"/>
    </g><g class="trait-group" data-category="mouth" id="mouth-jaws">
      <path id="fill-mouth-main" fill="#ffffff" d="M1102 1287c.4.6-2.2 4.3 0 5.5 50.4 27.6 100.7 55.4 145.8 91.1-5.2 15.8-10.4 31.6-16.7 47.1-5.9 14.4-8.3 22.4-12.7 37.3-13 44.8-25.3 89.9-38.3 134.7-3.4 15.6 7.3 31.3 8.8 45.8.5 5.4-1.6 24.6-3.1 29.9-2.4 8.9-12.3 10.5-19.9 15.1-23.1 14.2-44 33.8-68.7 45.3-38.6 17.9-94.7 18.9-134.6 4.9-30.8-10.8-53.7-33.5-80.8-50.2-5.6-3.4-16.3-6.9-18.8-12.2-2.2-4.7-4.6-27.2-4.1-32.9 1.2-14.4 12.1-30.2 8.8-45.8-13.8-47.4-26.5-95.2-40.5-142.5-3.7-12.4-5.6-17.8-10.5-29.5-6.4-15.4-11.4-31.2-16.7-47.1 45.2-35.6 95.4-63.7 145.8-91.1 2.2-1.2-.5-4.8 0-5.5.2-.2 3.4-1.1 4.7-1.9 25.5-15.1 52.3-31 83.7-27.1 24.4 3.1 42.7 15.5 62.9 27.1 1.2.7 4.5 1.7 4.7 1.9h.2Z" class="fill" data-original-prefix="fill"/><path id="fill-mouth-teeth13" fill="#ffffff" d="m1042 1510-1.9 71.5c-.9 11.5-1.7 23.4-2.1 34.9-.2 7.7 1.3 20.2 0 27-.5 2.5-12.9 11.6-14.3 11.4-1.2-.2-13.2-8.9-13.7-11.4-.2-44.5-3.3-88.9-4-133.5l17.6 16.9 18.3-16.9Z" class="fill" data-original-prefix="fill"/><path id="fill-mouth-teeth12" fill="#ffffff" d="m1000 1637-20-15.5c-1.8-.5-2.8-4.4-3-4.5-.8-.5-3 3.8-5 3-.4-20.5-.2-41.1-1-61.5s-2.9-41.1-2.5-61.4l11-14c3 4.2 18.8 16.6 19.2 20.6.4 3.5-.9 11.2-.8 15.9.8 20.4 1.8 41.5 2.1 61.9.2 18.5-.2 37 0 55.5" class="fill" data-original-prefix="fill"/><path id="fill-mouth-teeth11" fill="#ffffff" d="M1076 1620c-2 .8-4.2-3.5-5-3-.2.2-1.2 4.1-3 4.5l-20 15.5c.2-18.5-.3-37 0-55.5.2-20.4 1.3-41.5 2.1-61.9.2-4.7-1.2-12.4-.8-15.9.4-4 16.2-16.4 19.2-20.6 2.1 3.9 9.5 10.8 11 14 1.8 3.8-1.3 28.2-1.5 34.4-.3 9-.7 18.1-1 27-.7 20.5-.6 41.1-1 61.5" class="fill" data-original-prefix="fill"/><path id="fill-mouth-teeth10" fill="#ffffff" d="M1114 1651c-3.8-.4-4.7-3.2-5-6.4-1.4-14.4 1.7-35 2.1-50 .6-21.9 0-43.7 2-65.5 3.3.2 4.2 1.9 7.1-.4 6.2-5.1 13.2-22.1 19.9-28.8s2.8-2 3-1.8l-9.1 120.4-20 32.6Z" class="fill" data-original-prefix="fill"/><path id="fill-mouth-teeth9" fill="#ffffff" d="M907.7 1499.3c7 6.2 13.8 23.9 20.3 29.2 2.9 2.4 3.8.6 7.1.4 1.5 10.5.6 21 1 31.5.7 20.9 1.5 42 2 63 .2 5.8 4.1 25-2.5 27.4-1.7.6-6.8-10-8.5-11.4l-12.9-21.1c-3.3-40.1-5.6-80.4-9-120.4 0 0 2.2 1 2.7 1.3h-.2Z" class="fill" data-original-prefix="fill"/><path id="fill-mouth-teeth8" fill="#ffffff" d="M903 1601c-7.1-6.3-5.5-23.9-18-13l-17-142c10.4 12.2 19 26.1 28 39.5 1.9 38.5 3.8 77.1 7 115.5" class="fill" data-original-prefix="fill"/><path id="fill-mouth-teeth7" fill="#ffffff" d="M1163 1588c-12.5-10.9-10.9 6.7-18 13l4-51.5 3.1-63.9c8.9-13.4 17.5-27.3 27.9-39.5l-17 142Z" class="fill" data-original-prefix="fill"/><path id="fill-mouth-teeth6" fill="#ffffff" d="M963 1507c-.7 40.2 2 80.1 2 120.3-1.9 1.4-17.9 15-19 13.7.9-38.3-2.3-76.2-2-114.5l15.4-18.6z" class="fill" data-original-prefix="fill"/><path id="fill-mouth-teeth5" fill="#ffffff" d="M1102 1641c-1.1 1.3-17.1-12.3-19-13.7.4-22.3.5-44.6 1-66.8 0-2.4 1-4.6 1.1-6.9.3-15.5-.3-31.1 0-46.5l3.6.9 15.4 18.6c.3 38.2-2.9 76.2-2 114.5Z" class="fill" data-original-prefix="fill"/><path id="fill-mouth-teeth4" fill="#ffffff" d="M875 1581c-1.5.2-1.3-1.7-1.7-2.8-3-8.8-6.1-18.6-8.6-27.4-10.7-37.7-11.6-78.6-17.8-117.3 0-3.9 3-6.9 5.6-9.5 3.4 3.5 5.8 6.6 6.4 11.6 1.2 10.1 1 21.5 2.1 31.9 3.8 35.2 11.2 72.2 14 107 .2 2.2 0 4.3 0 6.5" class="fill" data-original-prefix="fill"/><path id="fill-mouth-teeth3" fill="#ffffff" d="M1172 1580c6.3-40.6 11.8-81.6 16-122.5 1.2-11.5-1.6-25.4 7.5-33.5 2.6 2.6 5.7 5.5 5.6 9.5-7.6 47.5-8 99-26.1 144-.6 1.6-.8 2.9-3 2.5" class="fill" data-original-prefix="fill"/><path id="fill-mouth-teeth2" fill="#ffffff" d="m843 1439 4 53-5.7-15.8c-1-7.8-7.5-23.8-4.4-30.8.5-1.1 2.9-4.1 3.8-5.2.6-.7 0-1.9 2.3-1.3Z" class="fill" data-original-prefix="fill"/><path id="fill-mouth-teeth1" fill="#ffffff" d="M1207 1439c.3.3 4.7 7.3 4.8 7.7 1.3 4.9-3.4 23.5-5 29.5l-5.7 15.8 4-52.5c0-.9 1.9-.6 2-.5z" class="fill" data-original-prefix="fill"/><path id="shading-mouth4" fill="#aaaaaa" d="m900 1319-56.5 57-14 16c-1.9 4.1 3.2 15.8 2.5 21 4.2-1.8 14.7-13.4 18.4-13.1 4 .3 8.8 14.9 10.3 18.8 2.5 6.3 4.5 12.8 6.8 19.2 18.7 24.5 38.6 48.2 57.4 72.6 3.8 5 3.2 9.2 10.1 7 3.2-1 13.7-10.2 17-13 10.5-9 19.8-20 30.5-28.6l41.1 41 41.9-41c13.1 10.8 24.4 24.6 38 35 3.2 2.5 10.4 9 14.5 6.5l61.8-79.2c3.6-6.3 11.7-36.7 16.9-38.2 4.6-1.3 17.3 14.1 19.3 11.9-.8-5.2 4.4-15.8 2.5-20-20.7-25.2-46.1-46.1-68-70-.7-.7-2.7-2-2-3 34.5 16.7 65.1 39.8 96 62 2.5 5.1-7.2 33.5-9.8 40.2-2.7 7.3-6.2 13.8-9.2 20.8-3.2 7.3-3.5 21.2-14.5 14l-8.5 50-2.5 1c-.2-19.8 1.9-39.7 4-59.4-2-4.9-6.9-13.6-8.8-3.8-4 21.5-4.5 48.2-7.4 70.6-3.6 28-8.2 56-12 84-2 14.9-3.3 16.2 1.9 31.4 1.3 3.8 7.2 14.6 7.4 16.7s-6.3 26.7-7.6 29.5c-2.4 5.5-34.3 27-41.2 30.8-23.5 12.8-65.3 23.2-92 27-44.3 6.3-112.7-12.8-149.7-38-4.2-2.9-22.5-15.7-24.1-18.9-1.2-2.3-7.8-28.2-7.7-30.4 0-2.1 7-16.2 8.3-20.7 4-13.7 2.7-13.4.9-26.4-7.5-52.8-15.1-105.5-20.4-158.6-2.2-5.2-7.7 4.9-7.9 7.8 2.1 19.4 4 39 4.1 58.5h-3l-8-51c-11.6 7.2-11.3-6.6-14.5-14-5.7-13.3-11.5-25.2-15.5-39.5-1.5-5.2-6.1-18.6-2.5-22.6 31.2-21.3 60.9-45.2 95.5-60.9zm-34.5 137v1c.7-.3.7-.7 0-1m315.5 1c-3.8 9.4-17.3 19.9-21.1 28.4-3.4 7.8-1.6 20.7-3.9 29.1l-3 60c.6 3 10.1 7.9 13.4 8.4zm-286.2 118.8c-1.8-29.7-2.2-59.6-6.1-89.1-7.3-9.7-14.3-20.1-22.7-28.8l14 125c6 0 10-4.5 14.8-7.2ZM995 1627c-.8-15.5-.4-31.1-1-46.5-.7-20.6-1.2-43.5-3-63.9-.3-3.6-.4-13.4-4.5-13.5-2.5 0-20 10.7-20.5 13.5 2.4 20.6 1.2 41.4 1.9 62 .2 6.2.6 13.8 1.1 19.9s3 12.8 2 19.5l5.4-5c1.5 2.2 17 15.7 18.6 14m82-10c-.8-6.9 1.6-13.7 2.1-20.4 1.1-17.4.3-35.7.9-53.1.3-8.7 2-18.1 2-26.9s-1-2.1-2-3c-2.2-1.8-17.3-10.9-19.3-10.4-2.9.7-3.4 7.6-3.7 10.4-3.3 35.8-2.8 74-4 110 0 1.4 0 2.9-1 4 5.2.7 17.8-14.1 19.5-14.5 2.3-.5 2.5 4.7 5.4 4Zm-146 17c-1.9-32.1-.2-64.4-2-96.5l-26-32.5c2.8 32.1 2.9 64.2 5 96.4 6.9 11.3 14.5 22.3 23 32.5Zm187 0 22-32.5c1.9-32.2 2-64.3 5-96.4l-26 32.5c-2 25.3-.4 50.7-1 76-.2 5.9-1.4 11.5-1 18 0 1.1-.7 2.8 1 2.5Zm-175 2c.8.8 16.4-9.7 17.5-11 .7-.8 1.5-1.4 1.4-2.6-.7-33.9-2.5-67.6-4-101.5-3.4 2.4-16.3 10.2-17 13.5-.2 33.9 0 67.8 2 101.5Zm101-115c-4.9 2.7-10.4 10.7-15.7 11.8-11.9 2.5-16.1-5.4-24.3-11.8 1.3 37.5 2.3 74.9 2 112.5.8 4 14.2 9.4 17.7 12.4 3.7-2.5 17.6-8.6 18.3-12.4-.2-37.6.2-75.1 2-112.5m61 115c1.6-33.8 2.3-67.6 2-101.5-.7-3.7-13.7-10.5-17-13.5-1.8 33.8-3.7 67.5-4 101.5.2 2.9 18.2 14.4 19 13.5m-167.3 18.7c-1 .9-2.6 1.5-4 1.2-3.8-1-23-30.3-27.3-35.8L895 1607c-.4 4.4-1.3 8.8-2.5 13-1.6 5.4-8.4 19.9-8.6 23.5 0 2.9 4.5 19.8 5.8 23.3.7 1.9 1 3.9 2.9 5.1 29 14.8 52.4 35.8 84.2 44.8 31.1 8.9 64.2 8.8 95.2-.2 31.6-9.2 55.5-30.5 84.3-45.4.8-.4.9-1.2 1.2-2 1.2-3 6.7-24.2 6.5-26.5-.3-3.3-5.8-13.4-7.3-17.8-1.8-5.8-3.1-11.8-4.2-17.8-2.2 3.1-5.1 5.6-7.5 8.5-8.8 10.8-17.2 26.4-26.1 35.9-1.6 1.8-3.2 3.6-5.6 4.3l-43.7-28.7c-4.3 3.6-8.6 8.8-13.3 11.7-8.2 5.1-15 6.1-23.4 13.6-2.3 2.1-3 5.8-6.5 6.5-8.1 1.6-7.3-2.8-11.5-6.4-7.2-6.1-10.9-7.5-18.9-11.1-6.3-2.8-12.3-10-17.6-14.4-12.8 7.9-26.2 15.6-38.3 24.5-1.3.9-1.6 2.5-2.3 3.1v.2Z" class="outline shading" data-original-prefix="shading" opacity="0.5" style="opacity: 0.5"/><path id="shading-mouth3" fill="#aaaaaa" d="M1118 1345c-1.5 1.5-1.8-.6-2.3-1.3-1.8-2.3-6.1-7.1-7.1-8.8-1.8-3.2-.9-7.3-2.6-9.4-2-2.4-11.1-9.6-14.1-11.9-17.8-13.8-38.6-25.3-56-40-3.6-5.4 6-7.7 4.1-13.6.4-.4 8.3 1.9 9 2.5 1.9 1.6 0 5.2 2 7l68.4 49.6c2.9 2.8-.3 24.8-1.4 25.9" class="outline shading" data-original-prefix="shading" opacity="0.5" style="opacity: 0.5"/><path id="shading-mouth2" fill="#aaaaaa" d="M1008 1260c-2.1 5.5 7.8 8.5 4.1 13.6l-61.1 43.9c-10.3 7.3-11.1 16.5-18.7 26.2-.5.7-.7 2.7-2.3 1.3-1.1-1-5.1-24.3-1-26.5l68-49c2-1.9 0-5.2 2-7 1-.9 8.7-2.9 9-2.5" class="outline shading" data-original-prefix="shading" opacity="0.5" style="opacity: 0.5"/><path id="shading-mouth1" fill="#aaaaaa" d="M1011 1355c1.1 4.6-4.9 8.9-3.6 13 1.1 3.3 13.8 10.8 16.2 14.9 1.2.2 16.5-14.1 17-15.9 1-3.6-5.2-7.6-3.6-12 6.9-2.5 17.3 6.5 15.8 13.3-.8 3.8-7.8 10.3-10.8 13.2-6 5.9-6.9 4.1-10.8 12.2-1.9 3.9-5.9 3.9-9.8 3.3-5.8-.8-4.3-4.3-6.4-7.6-4.4-6.7-23.9-15.6-19.3-26.2 2.2-4.9 9.7-10.1 15.2-8.2Z" class="outline shading" data-original-prefix="shading" opacity="0.5" style="opacity: 0.5"/><path id="outline-mouth" fill="#000000" d="M1006 1260c.4-2.1 4.7-6.2 6.5-7 2.2-1 1.8 3.9 2.5 5l-.5 19c-9.8 6.8-19.7 13.6-29 21-10.5 8.4-26.4 21.1-35.5 30.4-3.6 3.7-.7 4.6 2.7 7.3 14.2 11.7 34.2 18.3 52.3 20.2 1.2 1.2-6.6 10.7-4.8 13.8l23.5 23.1c1.5.3 18.4-18.6 21.4-21.5.8-.8 2.6-1.3 2.8-1.6 1.8-3.1-6-12.7-4.8-13.8 18.1-1.9 38.1-8.5 52.3-20.2 3.3-2.8 6.3-3.7 2.7-7.3-9.1-9.4-25-22-35.6-30.4-9.3-7.4-19.2-14.2-29-21-1.1-1.8-.6-15.7-.5-19 0-1.1-.9-6 1.5-5 2.1.9 6.1 6.1 7.5 7-1.8 1-1 3.4-.5 5 3.8 10.3 55.3 44.8 67.4 54.6 1.8 1.5 8 6 8.6 7.4 2.3 5.4-.6 18.1-.5 24.5 0 4.3 3.4 17.4 1.1 20-1 1.1-12.4 6.6-15.3 8.7-15.1 10.7-26.8 28.3-34.7 44.8-1.5.4-1.7-.4-2.5-1-5.2-3.6-23.3-26.5-26.1-26.9-5.3 3.9-11.8 6.3-12.4 13.4-1.2 13 1 27.8 0 41.1l3.1 42.5 34.4-35.1 2.9-.9c13.6 15 26.1 31.3 40.1 46 1.3 1.4 9.3 10.1 10.5 9 3.5-11.2 11.6-21.6 18.2-31.3 19-27.8 40.6-53.8 59.3-81.7.8-.7.7-1.5 1.5-.4 7.1 9.4 13.4 20.9 20.5 30.4l17.6-43.4-157.1-108.6 2-3c36.8 19.5 75.4 39.4 110.9 61.6 21.2 13.3 40.5 29.5 61.9 42.6.6 1.1.2 2.9 0 4.2-.7 7.6-9.9 31.6-13.2 39.9s-7.1 16.1-11 24l-44.5 161.6c.4 12.4 9.3 27.7 9.8 39.7.3 6.8-1.7 25-3.2 31.9-.4 2.2-1.7 6.3-3 8-1.2 1.6-15.8 8.4-19.4 10.6-24.6 15-45.2 35.2-72.5 46.5-40.8 16.9-104 16.8-144.7-.3-27-11.3-47.4-31.4-71.8-46.2-3.6-2.2-18.2-9.1-19.4-10.6-1.3-1.7-2.6-5.8-3-8-1.4-6.9-3.5-25.1-3.2-31.9.6-12.2 9-27.1 9.8-39.7-13.1-46.2-25.7-92.7-39.3-138.8-2.2-7.3-3.2-16.5-5.7-23.3s-7.5-14.1-10.5-21.5c-5.5-13.7-9.1-28.1-14.2-41.9-.3-1.7 0-3.3 1.4-4.4 24.1-15.7 46.6-33.8 71.2-48.8 32.3-19.7 66.7-38.2 100.3-55.2l3 3-157.1 108.6 17.6 43.4c7.1-9.6 13.4-21 20.5-30.4.8-1.1.7-.3 1.5.4 18.8 27.9 40.3 53.9 59.3 81.7 6.6 9.7 14.7 20.2 18.2 31.3 1.2 1.1 9.2-7.6 10.5-9 14-14.6 26.5-30.9 40.1-46l2.9.9 34.4 35.1 3-42.5c-1-13.2 1.2-28.1 0-41.1-.7-7.1-7.1-9.5-12.4-13.4-2.8.5-21 23.4-26.1 26.9-.8.6-1 1.4-2.5 1-7.8-16.5-19.6-34.1-34.7-44.8-3-2.1-14.3-7.5-15.3-8.7-2.3-2.6 1-15.7 1.1-20 0-6.4-2.8-19.1-.5-24.5.6-1.5 6.8-5.9 8.6-7.4 11-9 62.9-44.3 66.1-52.9 1.1-2.8.4-4.5.8-6.7zm-131 321c0-2.1.2-4.3 0-6.5-2.8-34.8-10.2-71.8-14-107-1.1-10.4-.9-21.8-2.1-31.9-.6-5-3-8.1-6.4-11.6-2.6 2.6-5.7 5.5-5.6 9.5 6.2 38.7 7.2 79.6 17.8 117.3 2.5 8.9 5.6 18.7 8.6 27.4.4 1.1.2 3 1.7 2.8m297-1c2.2.4 2.4-1 3-2.5 18.1-45 18.6-96.5 26.1-144 0-3.9-3-6.9-5.6-9.5-9.1 8.1-6.3 22-7.5 33.5-4.2 40.9-9.7 81.9-16 122.5m-329-141c-2.3-.6-1.7.6-2.3 1.3-.9 1.1-3.3 4.1-3.8 5.2-3.1 7 3.3 23 4.4 30.8l5.7 15.8-4-53Zm364 0s-2.1-.4-2 .5l-4 52.5 5.7-15.8c1.6-5.9 6.4-24.5 5-29.5 0-.4-4.4-7.4-4.8-7.7zm-304 162c-3.2-38.4-5.1-76.9-7-115.5-8.9-13.4-17.5-27.3-28-39.5l17 142c12.5-10.9 10.9 6.7 18 13m260-13 17-142c-10.4 12.2-19 26.1-27.9 39.5l-3.1 63.9-4 51.5c7.1-6.3 5.5-23.9 18-13Zm-163 49c-.2-18.5.3-37 0-55.5-.2-20.4-1.3-41.5-2.1-61.9-.2-4.7 1.2-12.4.8-15.9-.5-4-16.2-16.4-19.2-20.6l-11 14c-.3 20.3 1.8 41.1 2.5 61.4s.6 41.1 1 61.5c2 .8 4.2-3.5 5-3 .2.2 1.2 4.1 3 4.5zm76-17c.4-20.5.2-41.1 1-61.5.3-8.9.7-18 1-27 .2-6.2 3.3-30.6 1.5-34.4-1.5-3.2-8.9-10.1-11-14-3 4.2-18.8 16.6-19.2 20.6-.4 3.5.9 11.2.8 15.9-.8 20.4-1.8 41.5-2.1 61.9-.2 18.5.2 37 0 55.5l20-15.5c1.8-.5 2.8-4.4 3-4.5.8-.5 3 3.8 5 3m-168.3-120.7c-.4-.4-2.6-1.5-2.7-1.3 3.4 40.1 5.8 80.3 9 120.4l12.9 21.1c1.7 1.4 6.8 12.1 8.5 11.4 6.6-2.4 2.7-21.7 2.5-27.4-.5-21-1.3-42.1-2-63-.4-10.5.5-21.1-1-31.5-3.3.2-4.2 1.9-7.1-.4-6.5-5.3-13.2-23-20.3-29.2h.2ZM1114 1651l20-32.6 9.1-120.4c-.2-.3-2.5 1.3-3 1.8-6.8 6.7-13.7 23.7-19.9 28.8-2.9 2.4-3.8.6-7.1.4-1.9 21.8-1.3 43.7-2 65.5-.4 15-3.5 35.6-2.1 50 .3 3.2 1.2 6 5 6.4Zm-151-144-3.6.9-15.4 18.6c-.3 38.2 2.9 76.2 2 114.5 1.1 1.3 17.1-12.3 19-13.7 0-40.2-2.7-80.1-2-120.3m139 134c-.9-38.3 2.3-76.2 2-114.5l-15.4-18.6-3.6-.9c-.3 15.5.4 31 0 46.5 0 2.4-1 4.6-1.1 6.9-.5 22.3-.6 44.6-1 66.8 1.9 1.4 17.9 15 19 13.7Zm-60-131-18.3 16.9-17.6-16.9c.7 44.6 3.8 88.9 4 133.5.4 2.5 12.5 11.2 13.7 11.4 1.4.2 13.8-8.9 14.3-11.4 1.3-6.8-.3-19.3 0-27 .4-11.5 1.2-23.4 2.1-34.9l1.9-71.5h-.1Zm-112.9 165.9-39.6-64.9c-2.7 4.3-15.7 16.7-16.5 20.5-.5 2.3 0 6.3 0 8.8.5 6.2 3.4 24.2 5.1 29.9 2.2 7.3 14 10.2 20.1 13.9 44.8 27.9 79.7 46.3 135.2 43.8 47.1-2.2 77.9-20 116.2-43.8 6.1-3.8 17.8-6.6 20.1-13.9 1.7-5.7 4.6-23.7 5.1-29.9.2-2.5.6-6.5 0-8.8-.7-3.8-13.8-16.2-16.5-20.5l-40.1 65.1-48.9-32.8-45.1 37.7-45.8-37.7c-6.8 2.2-46.8 34.1-49.4 32.6Z" data-original-prefix="outline" class="outline"/>
    </g><g class="trait-group" data-category="eyes" id="eyes-lennon">
      <path id="fill-eyes1" fill="#ffffff" d="M1337.4 1026.1c3.1 1.9 27.4 48.4 30.4 55.1 4.6 10.3 10.8 24.4 12.8 35.2 2.1 11.4-12.9 9.7-18.9 15.9 56.4 60.1 63.7 159.1 15.2 226.2-85.8 118.9-273.9 81.8-306.7-61.7-1.4-6-3.2-25.8-5-29s-14.2-10.6-17.5-13.5c-7.3-6.4-13-14.8-20.5-20.5-2.7 1.3-6.1-.6-8.4.4s-12.9 14.1-16 17c-6.6 6.1-14.2 11.2-20.9 17.1-3.1 29.1-11.3 56.4-26.7 81.3-64.6 104.6-220.3 106.5-288 4.2-44.8-67.5-36.8-162.7 18.6-221.6-4.4-4.5-20.1-6.7-20.1-14s2.6-3.6 3.6-5.5 1-6.9 2.1-9.9c7-20.2 26.5-59.6 39.4-76.4.7-.9 2.4-.4 3.1-1.3 17.8-23.5 37.1-50.1 58.4-70.4 144.8-137.8 344.4-143.2 493.5-8.5 23.4 21.2 42.9 45.9 62.4 70.6 4.9 6.3 2.4 5 9.3 9.2Z" class="fill" data-original-prefix="fill"/><path id="fill-eyes2" fill="#ffffff" d="M1225.8 1080.3c-134.6 8.8-201.3 164-125.2 272.6 71.9 102.5 225.4 92.8 284.9-16.9 63.4-116.9-25.8-264.5-159.7-255.7" class="fill" data-original-prefix="fill"/><path id="fill-eyes3" fill="#ffffff" d="M799.8 1080.3c-132.6 9.3-203.1 165.1-126.6 273 70.7 99.7 219.8 93.3 281.6-12 69.1-117.7-16.2-270.8-155-261" class="fill" data-original-prefix="fill"/><path id="shading-eyes8" fill="#aaaaaa" d="M942 857c-12.2 12.2-28.8 18.2-42.9 27.6-28.1 18.6-58.9 57.3-75.3 86.7-2.4 4.4-10.8 19.8-11.4 23.7-2.9 17.9 18.5 42 30.7 53.5 38.6 19.7 77.6 39.1 113.5 63.5 10.9 12.6 32.2 63.9 44.2 70.8 9.5 5.5 13.5-.6 18.8 13.2 1.1 2.8-.7 5.7 2.8 7.3 5.4 2.5 4.8-4 6.2-7.3.8-1.9 3.6-8.2 4.9-9.1 2.2-1.6 10.3-2.3 13.8-4.2 11.6-6.3 33.5-59.5 44.7-71.3 16.2-11.1 33.2-21.1 50.3-30.7 18-10 47.2-21.5 62.6-32.4 7.9-5.6 26-29.3 28.6-38.4 5.1-17.8-6.4-33.8-15.5-48.5-16.6-26.8-42.8-59.3-69.1-76.9-14.2-9.5-30.9-15.1-42.9-27.6 32.3 6.5 63 20.9 91.3 37.2 45 25.9 89.6 63.8 119.5 106.5 2.5 3.6 7.3 8.9 5.5 13.1-1.6 3.7-26.3 9.5-31.6 11.5-58 21.6-107.5 42.9-156.6 81.4-26.9 21-39.3 37.8-58.3 65.7-4.9 7.2-6.3 13.4-13.3 19.7-2.1 1.9-22 16.2-23.4 16.6-1.9.6-28.2.6-30.1 0-1.3-.4-19.7-13.4-21.9-15.1-8.5-7-9.6-13.4-15.3-21.7-18.6-27.2-30.8-43.5-56.9-64.1-49.5-39-98.9-60.6-157.6-82.4-5.5-2-29-7.5-31.3-10.6-2.9-4 2.2-9.9 4.6-13.5 27.2-39.6 72-78.2 113.1-102.9 30.2-18.1 63.5-34.2 98.3-41.2Z" class="outline shading" data-original-prefix="shading" opacity="0.5" style="opacity: 0.5"/><path id="shading-eyes7" fill="#aaaaaa" d="M982 1232.5c0-.5-1.4-1.5-1-2.5l30.7-7.8c6.6 2.7 10.5 5.2 17.9 2.8 2-.6 4.2-2.8 5.7-2.8 3.7 0 15.4 4.5 20.5 5.4 3.7.7 7.3 1.8 11.1 1.3 1.9-15.4 5.6-30.8 11.3-45.2 4.4-11.2 7-15.9 15.8-24.2 23.8-22.6 59.7-46.6 91.2-55.8 1.6-.5 18.8-5.4 18.8-3.2L1078.5 1318c-1.7 0-8.2-25-8.8-28.2-1.2-5.4-1.9-20.2-4.2-23.8-1.2-1.8-14.3-10.7-17.4-13.6-3.5-3.1-17.5-19.4-19-20-.4-.2-8.8-.4-9.2-.3-1.3.3-15.6 16.6-18.7 19.4-3.7 3.3-16.8 11.9-18.5 14.5-2.3 3.7-5.8 29.7-7.8 37.2-17.3 62.5-72.8 113.6-137.7 121.8l126-220c1.5-1.1 10 22.7 11 24.5l8 28.5c-.4-8.4.5-17.1 0-25.5z" class="outline shading" data-original-prefix="shading" opacity="0.5" style="opacity: 0.5"/><path id="shading-eyes6" fill="#aaaaaa" d="m1256 1427 127.5-222c1.7.8 11.6 27.3 12.8 31.2 2.4 7.9 10.7 36.7 10.8 43.3 0 7-3.7 21.2-5.8 28.3-14.5 48.4-55.6 91.7-103 109-14 5.1-27.7 7.5-42.2 10.2z" class="outline shading" data-original-prefix="shading" opacity="0.5" style="opacity: 0.5"/><path id="shading-eyes5" fill="#aaaaaa" d="m784 1100-131 226c-16.5-40.5-18.7-84.7-6.3-126.8 6.6-22.5 18-31.9 35.2-46.8 28.5-24.6 64.2-47.4 102-52.5Z" class="outline shading" data-original-prefix="shading" opacity="0.5" style="opacity: 0.5"/><path id="shading-eyes4" fill="#aaaaaa" d="m755 1419 160.4-280c7.5 6.8 15.3 13.5 21.5 21.5 2.2 2.8 5.4 5.6 3.6 9.5l-146 256-3 1.1-36.6-8.1Z" class="outline shading" data-original-prefix="shading" opacity="0.5" style="opacity: 0.5"/><path id="shading-eyes3" fill="#aaaaaa" d="M1214.9 1425.9c-12.3-2.1-25.9-4.3-37.5-8.8-1-.4-1.8.6-1.3-1.5l159.4-276.5c7.5 6.8 15.3 13.5 21.5 21.5 2.2 2.8 5.4 5.6 3.6 9.5L1215 1426Z" class="outline shading" data-original-prefix="shading" opacity="0.5" style="opacity: 0.5"/><path id="shading-eyes2" fill="#aaaaaa" d="M733 1096c-17.9 7.4-32.8 20.6-46.7 33.9L672 1124c-.5-3.2 3.5-2.5 4.9-4.6l15.1-28.9c12.8.7 31.8-5 41 5.5" class="outline shading" data-original-prefix="shading" opacity="0.5" style="opacity: 0.5"/><path id="shading-eyes1" fill="#aaaaaa" d="M1376 1124c-3.2-.2-12.4 6.4-14.3 5.9-1.5-.4-6.8-6.8-8.7-8.4-11.6-10.1-24.2-19.3-38-26 3.9-8.6 32.1-4.8 40.3-5.3 3.1 1.1 11.8 25.7 16.2 29.8 1.6 1.5 4.9 1.1 4.4 4Z" class="outline shading" data-original-prefix="shading" opacity="0.5" style="opacity: 0.5"/><path id="outline-eyes2" fill="#000000" d="M1330 995c5.5-2.7 6.2-3.9 11.9-.5 20.3 12.1 46.5 72.6 53.3 95.7 2.9 9.6 10.1 35.3 8.7 44.2-1.6 10.1-10 6.4-16.9 9.1-1.3.5-2.4 0-2 1.9 79.4 110.2 14.2 272.7-121.7 292.4-83.2 12-156.1-32-192.2-105.5-4.8-9.7-3.4-15.2-14.1-20.9-19.2-10.3-45.2-9.9-64.7-.7-1.6.8-8.2 4.5-9 5.5-2.1 2.5-8.4 20.2-11.1 25.4-46.5 88.6-156.8 124.6-246.2 76.8-98-52.4-127.9-183.7-63-274-5.9-4-15.6.3-17.8-8.2-2.1-8.1 4.7-33.2 7.3-42.3 6.6-23.4 17-48.3 30.1-68.9 4.2-6.7 21.1-31.8 28.1-32.8 1.9-.3 5.9 2.7 7.2 1.7.4-.3 3.5-6.5 5.1-8.4 77.7-95.1 168.5-146.8 293.5-148.6 127.6-1.8 228.7 47.7 307.4 147.6 2.4 3 5.7 6.6 6 10.5Zm-275 262c-.5-40.5 15.3-87.2 32.8-123.7 3.2-6.7 9.5-18.6 15.5-22.5 11.9-7.8 33.8-17.9 47.3-24.7 10.4-5.2 29.1-15.4 39.3-18.7 1-.3 1.9-.7 3-.5l-1 2.5-12 7.5c8.8-.9 17.1-4.2 25.8-5.7 52.3-9.1 104.6 4.6 145.7 37.7 2.7 2.2 15.1 14.5 16.2 14.8 8.2 2.4 8.7-4.4 8.3-10.4-.8-13.6-16-42.4-22.9-55.1-2.1-3.9-16.8-30.2-18.4-31.1-.5-.3-10.8-1.2-12.3-1.2-8.5 0-24.3 1.7-33 3s-16.2 4.3-24.5 6c-.6-2.6.8-1.8 1.9-2.6 12.1-9.8 26.3-18.3 40-25.6 1.1-1.9-5.2-15.9-6.7-18.5-19.8-34.7-109.2-96.5-146.9-111.1-83.7-32.4-179-33-262.2 1.3-36.3 14.9-123.6 75.6-142.8 109.2-1.6 2.8-7.6 15.4-7 17.6.8 3.2 9.2 6.1 12.2 7.9 10.1 6.4 21.4 13.4 29.7 21.8-8-1.4-15.4-4.8-23.5-6-8.7-1.3-24.5-3.1-33-3-3.5 0-8.3 1.7-12.3 1.2-9 15.2-18.6 30.2-26.4 46.1-4.4 8.9-14.1 29.1-14.8 38.2-.5 5.5-1.1 14.6 7.3 12.3 1.1-.3 13.6-12.7 16.2-14.8 41-33.1 93.5-46.8 145.7-37.7 8.4 1.5 16.4 4.4 24.8 5.7l-11-8.5 4.7.3c26.1 14 56 25.6 81.3 40.7 13.2 7.9 22.8 32.2 28.5 46.5 7.1 17.8 13.2 37.5 17.8 56.2 1.2 4.9 2.2 16.8 3.7 20.1.5 1 1.8.7 1.9.8 1.5 2.2-1.9 1.8-2 2.6-.2 1.1 1 3.3 1.1 4.9.2 5.5 0 11 0 16.5s.3 9.1 0 13.5c0 2-2.9 16.4-1.5 16.5 21.2-6 44.3-5.7 65.5 0-1.9-10-1.9-19.9-2-30m-255.2-176.7c-132.6 9.3-203.1 165.1-126.6 273 70.7 99.7 219.8 93.3 281.6-12 69.1-117.7-16.2-270.8-155-261m426 0c-134.6 8.8-201.3 164-125.2 272.6 71.9 102.5 225.4 92.8 284.9-16.9 63.4-116.9-25.8-264.5-159.7-255.7" class="outline" data-original-prefix="outline"/><path id="outline-eyes1" fill="#000000" d="M998 1254c.2-.4 0-2.2.9-3.5 9.2-12.9 21.3-27.4 18.1-44.5 6 1.8 8.5 2.6 14.5 0-1.3 11.9 3.9 23.9 10.3 33.7 3.2 5 8.9 9 9.2 15.3-2.3-.3-3 2.2-4.7 2.8-2.9 1-2.4-1.7-4.3-3.4-2.5-2.2-6.2-4-8.6-6.4s-7-12.1-8.9-12.1c-3.2 0-3.4 4.5-4.7 6.4-4.3 6.1-7.8 7.6-12.9 12.1-1.1 1-1.9 3.3-2.1 3.4-2.5 1.4-4.8-3-6.9-3.9h.1Z" class="outline" data-original-prefix="outline"/>
    </g><g class="trait-group" data-category="right ear" id="right ear-slasher">
      <path id="fill-ear-rt" fill="#ffffff" d="M1715.7 184.2c3.2-.7 6.5-.5 7.2 3.3 2.3 39.5-3.6 77.2-9 116-.7 4.7-.2 11.1-1.1 15.9-5 26.9-24.5 58.9-29.7 86.3-5.7 30.4-4.7 64.8-10.9 95.1-7.8 38.3-25.1 77.8-33.7 116.4l-71.9 122.1c-45.8 31.3-94.9 58.3-141.8 88.2l-35 81-84.6 77.3c-5.6 2.9-16.3-.8-22.4-2.4-27.7-7.2-48.3-18.1-70.9-35.1-16.5-12.5-27.2-20.9-37.6-39.4-6-10.5-10.9-22.9-14.5-34.5 26.8-59.3 58.7-116.4 86.8-175.2 4.9-58.7 6.7-117.8 11.4-176.5 36.5-47.5 77-92.5 114.8-139.2 47.2-35.9 96.4-69 144.9-103.1 66.1-31.9 127.9-72.1 197.8-96.2Z" class="fill" data-original-prefix="fill"/><path id="shading-ear-rt" fill="#aaaaaa" d="M1307 640c-2 .7-10.3 2.6-11.1 3.6-3 4.1 1.3 17.2-.5 18.5L1265 668l3-12c-.6-.6-5.7 2.2-6.5 3-4.2 4-11.7 27.7-13.5 29-.6 0-1.3-.6-1.5-1-.4-.8-1.4-13.2-1.5-15.5-.2-4.8-.7-24.1 1.2-27 .7-1.1 2.6-1.3 2.9-2.3 1.9-7 2-15.6 3.2-22.5 1.6-9.4 13.2-6.8 14.6-11.5 1.1-3.6-.9-13.2.6-15.4l21.9-5.8c5.3 2.7 1.3 8.1 1.7 12.4.1 1.4-.4 1.8 1.4 1.4 1.7-.4 13.1-3.4 13.6-3.9 1.4-1.6-3.9-10.5-1-12.5l29.5-8.5c1.8 0-2.5 12.6-1.5 14 1.9-1.2 11.2-2.1 11.9-3.1.9-1.3-3.8-11 2.7-14.8 2.2-1.3 22.3-5.8 23.3-5 .2.2.8 6.1 4.1 3.9 1.5-1 5.5-18.1 4-21 5.9-1.6 4.3 4.3 6.5 7 3 3.5 45.1 6.1 52.5 7.5 10.2 14.6 18 30.7 26 46.5.7.5 11.1-11.5 11.8-12.7 3.9-7.2 7.9-26.5 9.7-35.3 7.9-36.5 10.3-74.2 9.5-111.5 0-5.1-1.8-10.3-1.1-16 .8-6.8 8.7-15.8 8-21.9-.4-3.3-3.8-7.9-4-11.6-6.1.3-12.7 10.5-18.3 8.8-2.8-.8-4.9-11.5-6.2-14.8-.9-2.2-5.5-9.6-5.5-10.5 0-2.7 12.8-9.3 12.8-12 0-.6-6.3-8.8-6.8-9.1-3.8-2.3-12 15.4-17.4 14.6-.6 0-5.1-7.4-7.6-9.6-1.8-1.6-9.2-6-9.5-6.5-4-6.4 13.4-13.8 16.5-18.5-2.8-3.5-13.2-11.1-11.9-15.8 1-3.5 26.5-16.8 30.9-20.3 4.5-1.3 9.4 7.4 14.5 7.2 3.8-.2 10.8-11.4 15.7-10.5 2.4.5 14.6 15.6 14.8 17.4.4 4.2-11.5 11.5-12 14.1-.1.8 4.8 7.2 5.5 7.3 3.4-2.6 7-5.3 10.6-7.9.9-.6 1.1-2.1 1.7-2.5 6.8-4.2 15.7 18.9 20.4 17.4 1.2-.4 14.1-16.8 16.6-19.5 21.8-23.1 62.8-49 90.7-65.3 9.8-5.7 19.9-11.8 31.3-13.2 1.3 1.2-8.7 15.3-9.9 17.6-2.6 5.3-3.8 11.1-6.7 16.3-6.7 11.8-20.8 24.7-29.2 36.8-1.9 2.7-14.2 21.5-14.1 22.8 0 1 3.3 1.6 3.8 3.1 1.3 3.9-7.2 7.2 6.1 8.3-.2-4.4-1-7.1 4.4-6.9 3.4.1 18.8 2.4 21.7 3.4 3.3 1.1 4.9 3.4 3 6.5 14.6 3.2 23.9-12.5 35.7-16.8 1.2-.4 2.8-.8 2.3 1.3-4 6.7-7 14-9.7 21.3-2.1 5.5-7.4 26.5-9.8 29.2-1.9 2.2-9.2 4.2-12.2 4.8s-15.7.7-16.2 1.2c-.3.3 1 7-3.5 7-.9 0-1.7-1-2-1h-20c-3 0 0-7.6-.5-8-3.9.8-7.9-1-11.5-1-3.1 0-.9 5.3-1.5 7-4.9-.8-15.9-2.4-19.7 1.2-2.4 2.3-11.6 32.2-13 37.5-5.1 20.1-6.6 40.9-5.3 61.7.8 12.7 6.8 29.3 3.2 41.2-1.5 5-8.7 16.4-9 20-.3 2.8 4.6 2.9 4.9 5.8.3 3.5-4.6 7.5-4.1 11.5 7.5 2.8 4.3-1.9 8-5.5 1.7-1.7 4.1-1.7 6-3 10.2-7 33.2-60.6 41.5-74.5.7-1.1 1-2.8 2.5-3-5 26.1-14.2 51.1-23 76 2.3.4 12.5-1.2 13 1.5.4 2.1-4.9 7.9-5 10.5 3.2 2.8 26.6-7.1 30.3-6.7 1 0 2.7.9 3.1 1.8.2.3 2.5 7.2 2.5 7.6.3 3-4.9 6.8-6.2 9.7-3.3 7.1-1.7 16.4-2.2 23.8-5.8 1.6-11.4 3.5-17.3 4.7-2.8.5-19.2 1.2-19.2 3.8v24.5c-7-.7-30.7-5.7-36-2.5-1 .6-9.7 16.6-11.6 19.4-6.1 9.4-16.3 27.1-23.4 34.6-7.5 7.8-44.4 31.5-54.7 35.3-19.7 7.3-44.6 10.6-65.8 18.2-5.8 2-34.1 13-36.6 16.4s.3 7.5-.2 10c-.3 1.6-4.5 4.4-4.8 7.2-.8 8.5 7.3 1.2 10 2.9 1.2.7 5.8 7.8 7.5 9.6 2.6 2.6 4.6 5 8.8 4.8 11.3-.7 35.2-9.2 46.1-13.9 49.4-21.5 87.8-56.8 129.2-89.8 2.5-2 5.5-4.5 8.4-5.5-13.2 16.7-26.3 33.5-42 48-34.2 31.8-77.5 48.8-115.7 74.8-10.7 21.5-17.6 46-29.8 66.7-18.8 31.8-53.1 60.5-84.5 79.5-3.8 19.7-10.4 16.5-26.4 12.4-31.3-7.9-73-30.1-95.5-53.5-1-1-8.1-11.2-8.1-11.9 2.6-4.2 2.1-9.3 4.2-13.8 42.2-49.7 81.5-98.7 112.3-156.7 9.9-18.7 17.4-38.6 27-57 6.9-13.3 20.8-28.8 20.6-43.5 0-2.1-1-4-1-6 0-3 1.9-7 1-10.5l-10 1 4 19c-5.3-1.5-28.2 9.2-30.9 6.8-.1-.1-1.1-3.2-1.1-3.3v-14.5Zm33 225c-1.6-1.2-5.3 5.1-8.5 5-2.8 0-2.4-4.5-5.4-4-9.6 17.4-21 33.7-33.1 49.5-2.8 3.6-8.2 8.2-10.4 11.6-1.9 2.9-12.9 38.4-11.5 40 2.7-.8 5.8-3.6 8-5.5 23.5-19.5 44.2-43.8 65.5-65.5 2.4-5.2-7-12.2-7.5-17.6-.6-5.9 6.5-7.1 3-13.4Z" class="outline shading" data-original-prefix="shading" opacity="0.5" style="opacity: 0.5"/><path id="outline-ear-rt" fill="#000000" d="M1203 940c-.6 2-3 0-4-.5-7-3.3-16.8-8.4-22-14-11.1-12.2-18.6-30.8-29.5-43.5-1.1-2.6-.7-7.5-.5-10.5.9-20.2 13.6-36 21.8-54.2 5.9-12.8 10.2-27.3 16.3-39.7 4.8-9.8 13.9-18.2 19.9-28.1 11.7-19.3 21.4-51.9 25.7-74.3 1.4-7.1 1.9-22.4 4.2-27.8 1.5-3.5 9.8-6.1 10.9-10.1 1.5-5.1-5.6-11.7-7.1-16.6-1.8-6 2.6-25.5 3.2-33.2 1.9-23.7 1.4-48 4.6-71.4 14.2-19.8 28-39.9 42.6-59.4 37.5-50.2 83.1-93.7 131.8-133.2 4.5-3.6 17.7-15 22.7-15.2 3.5.7 18 4.5 20.3 3.3 4.7-2.4 5.9-16 7.9-20.1 2.2-4.7 51.2-32.9 59.4-37.6 54.4-30.8 126.9-64.9 186.9-82.1 2.7-.8 10.1-3.3 12.1-1.8 4.6 3.5 6.3 42.4 6.3 49.8 0 27-1.9 67.1-5.8 93.7-2.1 14.1-9.1 17.7-15.4 29.6-4.2 7.8-6.4 18.2-10.3 24.7-2.1 3.5-11.9 11.8-12.2 14.8-.5 4.5 4.4 7.1 5.6 9.5 1 2.2-4.4 22.1-5.2 26.8-4.1 23.3-4.6 41.4-3.3 64.7.9 16.8-2.9 40-6.3 56.7-1.8 8.8-6.6 31.2-10.8 38.2-2.1 3.4-10.1 8.5-13.4 11.6-2.1 2-8.3 7.7-9 10-2.9 9.3 5.7 16.5 4.4 23.3-.7 3.8-8.1 17.3-10.3 21.8-39.1 77.8-86.1 131.6-162.8 174.1-7.5 4.2-31.5 13.7-35.7 18.3-10.6 11.7-19.9 37.5-29.3 51.2l-26.8 14.7c-1.6 2.2-1.1 14.8-2 19-1.1 5.4-23.2 29.8-28.4 35.6-5.5 6.1-26.7 30-32 33-2.3 1.4-20.6 4.8-23.6 4.5-10.9-1-38.2-12.2-49-17.1-3.9-1.8-12.1-5.3-13-9.5 28.7 11.6 48.3 11.1 74.5-5 14.1-8.7 41.8-29.8 51-43 2-2.8 5.7-22.6 5.5-26.5 0-1.6-4.4-15.1-5.1-15.5-2.3-1.6-11.9 9.1-15 10l-6.9-16.3 13.7-11.2-6.4-12.6c-3.2-.5-11.4 8.8-13.9 11l-8.3-16.3c.5-2.7 10.9-8.4 12.4-10.6 1.5-2.4-6.6-13-8.1-16-2.2-.5-10.1 10.5-12.1 11-1.4.3-9.3-12.1-9.5-13.5-.4-4.1 10.7-8.6 11.1-13 .2-2.5-5.1-7.8-6.6-10.4-1.5 0-14.8 22.1-16.7 25.3-16.8 28.8-49.8 85.2-52.8 117.2-1 11 1.2 18.5 5 28.5-1.7 1.6-17.8-11.5-20-13.5-1.9-1.8-6.2-5.7-7.4-7.6-4.2-6.6 2.1-23.2.5-31.4 12.3-19.4 26.8-37.6 38.1-57.9 25-45.1 42.4-95 72.4-137.6 7.1-10.1 17-17.9 24.2-28.8 14.6-22 18.4-46.8 23.2-72.3l-16.9 2-.2 22.8-17.9 4.1v-24l-20.9 4 2 25-18 3c.1-6.8 0-13.8-1-20.5-.2-1.4.6-1.7-1.5-1.5s-20.4 7-21.1 8c-2.5 3.7 1.8 20.3.4 21.9-4.6.2-10.1 4-14.4 4.2-1.6 0-2.5-2.9-2.5-3.6v-15.5c-2.7 1.4-11.1 3.6-12.7 5.3-4.4 4.5-7.6 19-8.3 25.2-1.7 15.4-.6 29.8-6.2 44.8-8.4 22.2-22.3 50.5-32.9 72.1-6.5 13.3-16.1 27.1-22.1 40-2.9 6.3-14.6 36.8-15.6 42.4-3.9 23.1 12.7 50.9 27.8 67.3Zm516-752c-41.8 13.5-81.4 32.9-120 53.5-14.9 8-31.7 17.2-46.3 25.7-22.3 13-43.6 27.9-65.7 41.3-1.2 2.3-6.4 16.8-2.4 17.5 4.4-1.7 14.9-13.7 18.8-13.1.8.1 8.4 12 8.5 12.8.4 2.5-13.5 11.8-15.9 13.9l10.1 17.4c1.5.4 1.7-.4 2.5-1 2.3-1.6 13.1-12.8 14.1-12.9 1.4-.3 9.9 10.4 10.2 11.6 1.2 4.5-16.5 14.7-16.9 18.8-.5 4.6 12.7 27.1 12 34.5 2.3.5 1.6-.3 2.2-1.3 9.4-14.6 16.3-30.5 26.9-45 24-32.8 59-58.7 86.3-88.7 7.7-5.7 17.2-8.3 24.8-14.2 6.5-5 16.3-16.3 24.3-18.6 1.3-.4 3-.6 2.3 1.3-.8 2.2-6.1 8.3-7.8 11.2-4.2 7.1-10 20.9-14.7 26.3s-21.2 14.1-28.4 19.6c-21.3 16.2-41.4 36.5-56.1 58.9.3 1.4 12.6 4 14.3 3.6 1.9-.4 2.4-8.7 2.7-9 1.2-1.2 15.2 1.8 18 2l-3 11c3.3-.7 17.9 3.2 19.1 1.4l1.9-10.4 18 1-2 12c5.6-1.5 16.2 2.6 20.6 0 .8-.5 8.7-8.5 9.4-9.5 3.4-4.9 6.2-15.6 9.3-21.7 6.9-13.9 11.1-17 14.4-33.6 2.5-12.5 4.6-27.1 6.2-39.9 3.1-25.3 4.5-50.9 2.1-76.4Zm-431 407v15c3-.8 21.8-6.9 22.5-8 1.6-2.4-.5-12.8.6-14 .6-.7 14.6-3.5 16.9-4.1v12c.8.8 20.1-3.6 21.3-4.2 3.8-2 .3-11.3 1.8-13.7.7-1.1 14.4-3 16.9-4.1v15c6.6-1.2 13.3-1.1 20-1 1.6-14.2-7.1-26.5-10-40 .6-.6 11.1 5 12.7 5.8 7.7 4.1 40.8 22.5 44.2 27.8 3.4 5.4 9.4 26.3 11.4 33.6 3 10.6 4.7 26 8.5 35.5 4.3 10.4 12.5 9.2 20.5 4.1 22.7-14.5 44.9-81.9 46.7-108.3 2.6-36.2-3.5-85.1-11.5-120.5-1.5-6.6-8.6-31.7-12-36-1.3-1.6-.9-.7-2 0-2.7 1.8-8.5 9.6-11.9 9.1-.8-.1-7.5-11.5-9.5-12.7-.4-2.3 12.6-12 15-13.9 0-1-9.5-16.7-10.5-17.5-1.5-1.2-.8-.6-2 0-4.1 2.1-14.6 13.7-17.2 13.9-2.5-1.5-13.6-10.1-13.2-12.2s18.4-14 20.9-17.1c-10-15-20.4-5.9-31.3 1.7-43.7 30.5-78.2 65.2-111.7 106.3-19.5 23.9-38.5 48.9-55.8 74.2-6.2 26.4-10.2 56.5-11.2 83.8-.1 3.5.2 15.4 4.6 16.4.5.1 9-3.7 9.2-4.1 1.4-2.3-1.1-15.2.6-18.9l15.6-3.9Zm304-15h18c-1.2 5.5-2.8 11.1-3.8 16.7-.3 1.7-.4 1.3 1.3 1.3 4.4-.2 22.4-4.7 26.3-6.8 13.5-7.4 18.1-31 22-45 4.9-17.2 11.2-39.1 12.3-56.7 1.1-17.9-.2-35.9 2-54 1.5-13.1 5.1-26 7.8-38.9-.2-1-4.4-5.1-5.5-5.4-2.4-.7-19.8-.6-20.8.8-1.1 1.5-1.5 9.2-2.6 9.9-2.3 1.5-12.6-1.1-15.9-.9-1-2.8 2.6-9.8 0-11.6-2-1.4-15.1-.7-18.5-2.5l-2.6 12c-2.7-.3-16.6-.7-17-2.6l2.1-12.3c-5-.2-17.4-5.5-21.5-5.1-2 .2-6.7 9.4-8 12-19.7 38.2-34.2 101.9-13.7 141.7 1 2 3.7 3.3 3.1 5.6-5 6.9-26 36.3-24.9 43.2.5 3 10.2 6.7 13 8.5l2.9-14.6 17.1 1.6-2.6 19c7.7 3.3 16.1 2.2 24.1 4 1.5 0 1.7-.5 2.3-1.7 1.1-2.5 2.3-17.5 3.2-18.3Zm-33.9 40.1c-1.8 3.6-1.8 21.9-4 23.5-1.6 1.2-14.3-.8-16.4-1.8-1.2-.6-1.6-.7-1.7-2.2 0-5.1 5.1-20.2 3.8-23.9-1.8-1.1-17.1-10.4-17.9-9.7-1.9 9.1-5.4 17.8-7.7 26.8-1.9 7.6-8.3 46.4-10.8 49.2-1.2 1.4-3.2 1.4-4.2 2.3-18.3 18-38.8 32.6-61.6 44.9-2.9 1.6-11.6 6.5-14.2 6.8-3.6.5.3-3.7 1-5 15.5-29.8 22-63 4.6-93.7-6.2-10.9-18.5-27-28.2-9.8-12.5 22.2-15.1 55.6-17.5 80.5-18.4 17.5-34.1 37.6-48.5 58.5l10 17.5c1.6 1.1 11.7-10.3 14.5-11 1.6 3.6 9.8 11.2 8.1 15-1.6 3.5-11.4 8.1-11.5 11.5 0 1.3 7 13.4 7.9 14.1 1.5 1 1.5.2 2.6-.5 1.8-1.3 10.7-10.3 11.9-10 1.7 2.4 9.2 12.6 8.1 15-1.7 3.5-12.3 9.9-12.6 12.6-.2 1.5 5.5 13 6.2 13.3 4.2 2.4 13.7-13.7 17.8-8.2 1.5 2 7.2 12.1 5.9 14.2-2.5 1.8-14.2 9.8-14.7 11.9-.6 2.6 5 13.2 6.4 16.3 3.9.9 9.7-14 10.9-17 2.1-4.9 9.4-22 10.1-26 1.1-6.9-2.7-5.6 5.1-11.8 23.8-19 58.3-32.7 84.2-49.8 40.2-26.5 77-72.9 102.5-113.5 3.5-5.5 18.6-29.8 18.5-34.3 0-.7-.7-3.2-1.1-3.4-2.3-1.5-19.6 2.3-23.8.9l-2.1 22.9c-1 1.2-16.4 1.7-17.9.7-2.6-1.8 3.4-19.4 2.1-23.6l-25.9-2.9Z" class="outline" data-original-prefix="outline"/>
    </g><g class="trait-group" data-category="left ear" id="left ear-safety pins">
      <path id="fill-ear-lft1" fill="#ffffff" d="M842 941c-10.4 9.8-22.1 17.8-34.1 25.4-1.2.8-2.9.9-3.5 2.5-1 .2-2 .2-2.9.5-8.9 2.6-17.5 6.5-26.8 7.1-7.3.5-14.6 1.5-21.8-1-16.3-5.7-30-15.7-43.8-25.6-2.7-1.9-6.4-3.5-7.2-6.6-.5-1.9 2.2-4.6 3.4-6.9.3-.6.6-1.2.8-1.8 4.6-15.3 4.8-30.8 1.4-46.3-1.2-5.4-5.3-9.5-10.7-9.8-15.5-.8-31.1-1.1-42.6 12.5-.5-.8-1-1.5-1.4-2.2-9.2-17-16.3-35-22.9-53.2-.3-.8-.8-1.8-.5-2.4 1.9-4.3-1-6.6-3.8-8.7s-5.7-4-8.7-5.9c-20.3-13.1-41.3-25.1-62.5-36.6-20-10.9-37.7-25-53.9-41-7.6-7.5-14.3-15.8-21.1-24-37-44.3-67.3-92.3-82.7-148.6-.7-2.6-1.3-5-.4-7.8 5.2-15.6 10.7-31.1 16.4-46.4 8.3-22.2 18.1-43.9 24.5-66.8 1.9-6.7 3.3-13.5 1.8-20.7-2.5-12.3-14.5-18.1-25.6-12.1-6.6 3.6-10.6 9.5-13.7 16.1-5.6 12.1-9.3 24.9-13.9 37.3l-6.9 18.9c-1.1-1.8-1.1-3.4-1.1-5-.3-27.4-2.2-54.5-8.7-81.3-6.9-28-13.1-56.2-29.7-80.6-1.2-1.7-1.9-3.9-2.3-6-4.9-28.2-10-56.4-11.1-85.1-.6-13.6-.4-27.2.8-41.1 16.5 5.5 32.7 10.9 48.1 17.8 42.4 19.1 83.1 41.5 123.3 64.7 25.1 14.5 49.3 30.4 73.9 45.8 48.7 30.7 93.8 65.7 131.2 110 23.4 27.8 44.7 57.2 67.6 85.4 3.6 4.4 5.6 9.7 7.2 15.2 5.9 20.2 5.9 41.1 8.1 61.7 3.3 30.5 5.7 61 7.9 91.6 1.1 15.9 1.9 31.9 10 46.5 3.6 6.5 6.6 13.5 9.6 20.3 10.8 24.5 21.4 49.2 35.1 72.3 4.8 8.1 8.5 16.5 11.4 25.4 1.6 4.9 3.7 9.6 5.4 14.5 1.9 5.5 5 10.5 5.5 16.5 1 13.1-2.8 25-8.8 36.4-5.5 10.5-12.7 19.7-20.4 28.7v.4zM351.4 240.4c-.5 1.3.6 2.1 1.2 3 6.5 8.9 11.8 18.6 16.6 28.4 3 6.2 7.6 10.3 13.2 13.8 36.4 22.5 65.2 52.4 87.2 89.1 22.4 37.4 34 77.6 32.6 121.3-.4 13.4-3.3 26.5-10.8 38-1.9 2.9-2 4.5 0 7.3 10.9 14.8 20.3 30.4 26.6 47.9 9.5 26.7 16.9 54 21.6 82 .9 5.5 2.7 9.7 7.1 14 21.5 21 46.8 36.2 73.2 49.9 1.2.6 2.4 1.9 4.3.8-1.1-1.9-2.2-3.7-3.2-5.6-9.6-17.9-15.2-36.8-14.5-57.4.6-16.9 6.8-31.4 16.6-44.6 2.3-3.1 5.2-5.7 8.7-7.3 3.9-1.8 7.3-1.4 10.1 2.2 2.7 3.5 4.6 7.3 6.1 11.4 8.1 22.5 13.9 45.5 13.6 69.7 0 2.1.2 3.8 2 5.3 8.4 7 15.3 15.3 22.2 23.7 34.9 42.4 62.9 89.2 88.1 137.8 9.8 19 18.3 38.5 22.4 59.6 1.5 7.8 1.7 15.4-1.2 23.1-1 2.7-3.5 5.2-3.1 9.4 11-6.9 20.6-14.2 28.5-23.8 1.2-1.4.4-2.9.3-4.3-.5-6.8-1.4-13.6-1.7-20.4-.2-4.7-1.5-8.6-4.4-12.4-17.9-22.9-33.3-47.3-45.8-73.7-15.4-32.6-30.1-65.7-49.7-96.2-7.1-11.1-13.6-22.4-23-31.8-9.9-9.9-17.7-21.8-22.6-35.1-8.4-23-12.4-47-15.2-71.1-1.1-9.7-.6-19.1 3.6-28.3 2.5-5.6 3.9-11.7 6.9-18.8-19.7 10.5-37.8 20.3-54.8 32-1.9 1.3-3.4 3-4.1 5.4-5 16.4-11.1 32.4-14.6 49.2-1.1 5.2-2.1 10.5-3.6 15.6-2.9 9.4-10.4 12.1-18.8 7.2-5.3-3.1-9.4-7.3-13.1-12.1-7-9.1-11.4-19.5-16.2-29.8-14.1-30.5-21.5-62.4-20.3-96.3.7-21.7 3.7-43.1 8.1-64.2 1.2-5.7.6-10.5-1.6-15.8-14.3-34.9-31.6-67.9-57.4-95.9-21.1-23-44.9-43.2-66.6-65.6-3.9-4-8.3-7.1-13.3-9.5-6.1-2.9-12.5-5.6-17.3-10.8-5.9-6.3-13-10.8-20.3-15.3-1-.6-2-2-3.6-.8zm369 559.9c-1.7-20.7-11.8-38.1-31.2-49.2-20.9-12-47-1.6-55 21.2-11.1 31.5 11.5 65.7 44.7 67.5 25.2 1.4 39.9-18.9 41.5-39.5m-228.6-88.9c1.3 14.6 5.3 29.9 23.2 37.1 14.3 5.7 27.3 3.4 34.6-7.1 6.1-8.7 8.5-19 7.8-29.3-1.2-18-17.8-31.1-37.7-31.1s-28.1 11.4-28 30.5h.1Z" class="fill" data-original-prefix="fill"/><path id="fill-ear-lft-ring" fill="#ffffff" d="M618.1 994.2c-2.7 0-5.3-.2-7.9-1.1-11.2-4-21.3-10.1-30.1-18.1-4.2-3.9-6.4-8.6-5-14.8 2.7-12 4.3-24.2 7.9-36 3.3-10.8 8.7-20.4 17.2-28.2 6.6-6.1 13.1-12.4 19.4-18.7 1.8-1.8 2.6-2.3 4.1.4 6 10.9 6.6 11.3-2.3 20.1-11.5 11.4-18 24.9-20.4 40.6-.8 5.4 2.7 10.5 8.6 13.7 4.6 2.4 9.9 2 13.9-1.7 3.9-3.6 7.6-7.5 11.2-11.4 13-14 26.4-27.8 36-44.6 2.4-4.2 12.1-6.5 17.7-4.6 5.1 1.7 7.8 6.6 7.3 13.9-1 12.5-4.4 23.8-14.1 33-9.1 8.5-17 18.3-25.2 27.7-8.1 9.3-16.8 18-26.2 26-3.5 3-7.6 4-12 3.8z" class="fill" data-original-prefix="fill"/><path id="fill-ear-lft-fill-pin3" fill="#ffffff" d="M314 639.6c-17.1 0-29.8-10.3-35.8-29.2-4.1-12.7-.9-25 2.2-37.3 1.7-6.8 3.6-13.7 7.5-19.8 1.6-2.5 3-3.1 5.9-1.5 7.6 4.1 15.4 7.8 23.2 11.6 2 1 2.9 1.3 1.8 4.4-3 8.4-7.3 15.9-12.5 23-2.6 3.6-1.3 9 2.7 11 6.7 3.3 13.5 6.3 20.2 9.6 2.8 1.4 3.7.3 3.9-2.2.4-4 1.5-7.8 2.8-11.6.7-2 .5-3.1-1.8-3.5-2.7-.6-5.4-1.4-8.1-2.2-2.8-.8-3.8-2.3-1.9-5.1 2.8-4.1 6-7.9 9.5-11.5 1-1 2.1-1.7 3.6-1.1 9.9 3.8 19.8 7.6 29.7 11.3 1.8.7 2.7 1.8 2.5 3.7 0 1.2-.1 2.3-.3 3.5-3.8 24.7-29.9 47-55 47h-.1Z" class="fill" data-original-prefix="fill"/><path id="fill-ear-lft-fill-pin2" fill="#ffffff" d="M373.9 574.1c-4.5 0-7.9-2.1-11.4-3.3-2.6-.9-1.3-3.3-.7-5.2 5.1-15.3 11.4-30 17.2-45 11.3-29.5 22.5-59 35.1-88 .5-1.3.6-2.8 2.1-3.8 2.6-1.8 5.2-4.3 8.5-2 3.2 2.3 3.6 5.6 2.3 9.3-15.1 42.9-30.1 85.8-45.2 128.6-.6 1.7-1.3 3.4-2 5.1-1.1 3-3 4.7-5.9 4.2Z" class="fill" data-original-prefix="fill"/><path id="fill-ear-lft-fill-pin1" fill="#ffffff" d="M351.4 410.4c2.4 10.8 3.6 20.4 4.7 29.9.6 5-1.6 9.5-3.5 13.8-13.3 29.9-25.6 60.3-37.6 90.8-1.1 2.8-2 3.3-4.9 2.1-10.4-4.3-10.6-4.2-6.9-13.7 13-33 24-66.6 37.6-99.4 3.1-7.6 6.1-15.2 10.7-23.6h-.1Z" class="fill" data-original-prefix="fill"/><path id="fill-ear-lft-stud2" fill="#ffffff" d="M703 790.9c2.4 20-12 30.3-23.2 32.1-16.4 2.7-32.6-8.1-36.8-24.3-5-18.9 4.1-35.2 21.9-39.3 12.3-2.8 27.5 3.5 34.5 14 3.8 5.6 3.9 11.8 3.7 17.5z" class="fill" data-original-prefix="fill"/><path id="fill-ear-lft-stud1" fill="#ffffff" d="M503.1 714.6c-.2-4.2.4-7.9 1.8-11.5 3-7.4 8.7-11.2 16.6-11 18.9.4 31.4 18.3 23.8 33.9-4.6 9.5-13.9 14.1-24.2 12-10.4-2.1-17.5-10.3-18-20.8v-2.7Z" class="fill" data-original-prefix="fill"/><path id="shading-ear-lft1" fill="#aaaaaa" d="M481.2 598.8c3.2-4.3 2.5-8.1 1-11.9-3.9-9.8-7.4-19.9-11.9-29.5-3.6-7.6-4.4-15.1-2.8-23.1 3-15.4 4-30.9 3.8-46.5-.3-22.2-6.1-43.3-13.6-63.9-11.7-31.9-27.5-61.7-45.5-90.5-7.6-12.2-17.3-22.6-26.3-33.7-3.3-4-6.2-8.4-9.6-13.1 8.8-3.9 17.1-6 25.6-7.5 5-.9 8.8 2.5 12.5 5.2 18.5 13.6 35.9 28.5 54 42.4 27.2 21 49.3 46.1 66.8 75.6 8.5 14.2 17.8 28 26.9 41.9 3.2 4.8 5.1 10 5.7 15.7.9 9.6 2.5 19.2 2.4 28.7 0 23.2 12 41.6 22.4 60.8 1.7 3.1 3.9 2.6 6.7 1.8 14.7-4 29.7-7.1 44.7-9.6 17.5-3 17.4-3 29 10.9 3.5 4.2 5.6 8.7 6.9 14 24 95.8 62 185.4 120.6 265.5 16.1 22 33.8 42.6 52 62.9 3.3 3.7 6.6 7.5 8.7 12.1 2.3 4.8 2.2 9-1.1 13.9-18.7 27.3-44.3 45.7-75.1 56.2-14.6 5-30.6 5.7-45.9 8.3-3.6.6-5.4-2-7.6-4-13.6-12.2-27.1-24.5-40.6-36.7-5.5-4.9-5.8-5.1-10.9.4-10 10.6-19.9 21.3-29.3 32.5-4.5 5.4-10.1 9.5-15 14.5-5.2 5.3-11.3 8.1-19.4 6.1 1-2.2 3.1-2.7 4.9-3.7 9.8-5.7 19.2-12.3 26.3-21.1 10.6-13.2 21.6-26 32.9-38.5 9.4-10.4 9.1-21.3 3-32.9-3.4.4-4 3.4-5.4 5.5-4.1 6-8.3 12-12.1 18.2-10.3 16.4-25 28.2-40.8 38.8-4.9 3.3-9.6 4.1-14.9 1.1-2.3-1.3-4.7-2.5-7.2-3.5-9.2-3.8-15-9.6-12.9-20.5 1.2-6-2.9-8.5-7.5-9.8-3.9-1.1-4.5-2.9-3.3-6.5 2.9-8.5 5.9-16.7 12.9-23.1 7.8-7.1 15-15 22.6-22.5 6.2-6.2 6.7-6 11.2 1.8 1.2 2 2.4 4 3.3 6.1 1.7 4 1.5 7.7-1.6 11.1-2.5 2.7-4.5 5.8-7.2 8.2-8.8 7.6-12.1 18.1-15.5 28.4-2.3 7.1.9 13 7.5 16.3s5.8-.3 8.3-1.6c6.2-3.4 10.5-9.2 15.2-14.2 6.8-7.3 12.6-15.4 18.9-23.1 2.4-2.9 2.5-5.6 1-9-8.6-18.7-17-37.4-25.4-56.1-1.2-2.7-3.2-5.5-3.3-8.2-.3-8.2-5.5-12-11.8-15.7-36.2-20.9-71.9-42.7-105.8-67.2-11.9-8.6-18.5-19.6-18.8-34.3 0-2 0-4 .5-5.9.4-1.9.9-4.1 3.5-4.2 2 0 2.7 1.8 3.3 3.3 3.3 9.2 9.5 15.9 17.9 20.4 6.3 3.4 13 5.3 19.6.4 4.9-3.7 5.1-6.4-.4-9.5-18-10.1-29.6-26-40.5-42.8-28.4-43.7-49.3-90.8-65.4-140.2-.9-2.8-1.8-5.6-2.8-8.5-3 1-2.8 3.5-3.3 5.6-4.7 19.6-9.4 39.3-14.2 58.9-2 8.1-2.1 8.1-10.5 8.7-7.6.6-15.2 1.5-22.8 1.6-5.3 0-8.3 2.2-10.9 6.8-8.4 14.9-20.8 24.6-37.9 28-8.4 1.7-16.4 1.3-24-3.3-5.4-3.3-10.9-6.3-16.4-9.5-8.3-5-10-13.1-11.8-23.5 15.2 10.3 29 19 46.8 18.7-7.9-7-15.7-13.9-23.6-20.9-5-4.4-10-8.8-14.9-13.2-5.3-4.8-6.4-11.3-3.4-19.5 9.8 8.4 19.3 16.5 28.7 24.7 9.7 8.5 19.5 17 28.9 25.8 3.3 3 5.8 2.3 8.7 0 5-4 9.4-8.4 12.5-14.9-21.6-18.7-44.9-35.4-67.4-53 1-1.4 1.4-2.3 1.8-2.4 11.8-1.4 15.6-10 19.3-19.7 7.5-19.5 15.6-38.8 23.9-57.9 2.8-6.5 3.8-12.6 1-19.1-3.1-6.9-2.4-13.3.9-20 3.2-6.5 6-13.3 8.8-20 1-2.5 2.5-3.6 5.2-3.5 3.2.1 3.7 2.3 4 4.7 2.4 16.7 6 33-2.1 49.6-7.8 16.1-11.6 33.8-18.6 50.3-3.4 8-7.7 15.4-11.7 23-2.1 4.1-4.9 7.8-5.7 13.3 16.4 7.3 32.5 14.9 49 21.8 7.6 3.2 9.6 1.9 12.3-6.3 14-42.1 30.8-83.3 42.2-126.3.8-3.1 1.5-6.5 4.1-8.9 13 5.9 15.3 9 13.2 22.4-2.7 17.7-5.9 35.3-9.3 52.9-1.3 6.8-.9 12.7 2.6 19 10.4 18.9 20.2 38.1 32.9 55.6 4.3 5.9 8.8 11.7 16.7 14.3zm190.4 250.4c3.1 17.8 10 30.9 27.2 36.1 1.9.6 3.5 2.1 5.4 2.5 7.1 1.6 10.3 6.7 12.4 12.9 1.1 3.4 2.4 6.9 2.9 10.5.6 4.2 2.4 7.4 5.3 10.3 13.3 13.5 26.5 27 40.7 39.4 2.9 2.5 5.4 5.6 10 7.1-2.4-12.4-6-23.7-9.5-35-.8-2.6-2.6-4.6-4.4-6.5-12.8-14.4-23.8-30.2-33.9-46.5-6.3-10.1-12.4-20.4-18.6-30.5-1.5-2.5-2.6-5.5-6.7-3.2-9.4 5-19.4 6.2-30.7 2.9zM541 764.3c29 22.1 59.5 38.1 94.4 47.4.9-13.9 1.6-26.8 2.5-39.6.3-4.8-1.6-6.4-6.2-6.5-11-.4-21.5-3.7-31.9-6.8-12.4-3.7-24.3-8.7-35.7-14.8-2.8-1.5-4.8-1.8-6 1.9-2.8 8.1-8.4 14-17.1 18.5Zm102.6 21.8c-1.9 10.4 5.6 17.8 13.5 24.5 13.1 11.2 31.6 6.7 39.1-8.9 1.6-3.4 1.8-6.1-1-8.9-9.3-9.5-18.4-19.1-27.6-28.6-1.4-1.4-2.8-2.5-5.2-2.1-12.9 2-19.1 9.2-18.7 24Z" class="outline shading" data-original-prefix="shading" opacity="0.5" style="opacity: 0.5"/><path id="outline-ear-lft-outer" fill="#000000" d="M347.6 396.2c0-1.7-.4-3.4-.8-5.3-3.8-17.2-12-32-24-44.8-1.7-1.8-2.1-4.1-2.6-6.4-4.3-18.4-5.6-37.2-6.7-56-1.3-20.6-3-41.2-3.1-61.9 0-15.1-.7-30.4 3.6-45.2 2.2-7.5 2.8-8 10.5-6.5 17 3.4 33.7 7.8 50.1 13.8 45.8 16.9 91.4 34.4 134.8 57 44.3 23 86.6 49.3 127.4 77.9 9 6.3 15.6 15.4 23.3 23.3 50.6 51.8 94.2 109.2 135.5 168.5 3.7 5.3 5.3 10.3 5.4 16.5.9 49.6 6.6 98.7 14.3 147.6 3.5 22 11.2 42.9 19.4 63.4 4.3 10.7 11.1 20.1 18.8 28.7 3.9 4.3 6.7 9.1 8.7 14.5 7.8 20.6 16.8 40.6 26.9 60.2 5 9.7 5.5 20.8 9 31 1.6 4.7 1.1 8.3-2.1 12.6-7.8 10.6-14.2 22.2-22.1 32.7-8 10.8-18.8 18.6-31.7 23 7.7-8.9 14.9-18.2 20.4-28.7 5.9-11.4 9.8-23.3 8.8-36.4-.5-6-3.6-11-5.5-16.5-1.7-4.9-3.8-9.6-5.4-14.5-2.8-8.9-6.5-17.3-11.4-25.4-13.7-23.1-24.3-47.8-35.1-72.3-3-6.9-6-13.8-9.6-20.3-8.1-14.5-8.9-30.6-10-46.5-2.2-30.6-4.6-61.1-7.9-91.6-2.2-20.6-2.3-41.6-8.1-61.7-1.6-5.5-3.6-10.8-7.2-15.2-22.9-28.2-44.2-57.6-67.6-85.4-37.4-44.3-82.5-79.3-131.2-110-24.5-15.4-48.8-31.3-73.9-45.8-40.2-23.3-81-45.6-123.3-64.7-15.4-7-31.6-12.3-48.1-17.8-1.2 13.9-1.3 27.5-.8 41.1 1.2 28.7 6.2 56.9 11.1 85.1.4 2.1 1.1 4.3 2.3 6 16.5 24.5 22.8 52.6 29.7 80.6 6.6 26.8 8.4 53.9 8.7 81.3 0 1.6 0 3.2 1.1 5l6.9-18.9c4.6-12.5 8.3-25.3 13.9-37.3 3.1-6.6 7.1-12.5 13.7-16.1 11.1-6 23.1-.3 25.6 12.1 1.5 7.1.1 13.9-1.8 20.7-6.5 22.9-16.2 44.6-24.5 66.8-5.8 15.4-11.2 30.9-16.4 46.4-.9 2.7-.3 5.1.4 7.8 15.4 56.3 45.6 104.3 82.7 148.6 6.8 8.2 13.5 16.5 21.1 24 16.2 15.9 33.8 30 53.9 41 21.2 11.6 42.2 23.5 62.5 36.6 2.9 1.9 5.9 3.8 8.7 5.9s5.7 4.4 3.8 8.7c-.3.6.2 1.6.5 2.4 6.6 18.2 13.7 36.1 22.9 53.2.4.7.9 1.4 1.4 2.2 11.5-13.7 27.2-13.3 42.6-12.5 5.4.3 9.5 4.4 10.7 9.8 3.4 15.5 3.2 31-1.4 46.3-.2.6-.5 1.3-.8 1.8-1.2 2.3-3.9 5-3.4 6.9.8 3.1 4.5 4.7 7.2 6.6 13.8 9.9 27.5 19.9 43.8 25.6 7.2 2.5 14.5 1.5 21.8 1 9.4-.6 17.9-4.5 26.8-7.1.9-.3 1.9-.3 2.9-.5-3.1 5.3-8.8 7.2-13.9 9.1-13.1 4.9-25.7 10.8-39.2 14.9-11.3 3.4-21.3-.7-31.8-2.1-1.1 0-2.1-1.5-3.1-2.4-9.2-9-18.5-17.8-27.4-27-2.9-3-4.5-2.5-7.2 0-15 14.2-30.3 28.1-45.2 42.4-4 3.9-9 6.2-13.2 10-2.7 2.4-6.9 1.6-10.5.4-15.1-5.3-29-12.9-42.6-21.3-16.5-10.2-18.3-14.4-13.6-34.2 3.4-14.1 6.3-28.3 9.3-42.4 2.7-12.7 8.9-23.2 19.3-31.1 8.7-6.7 17.2-13.7 26-20.2 3.1-2.3 3.3-4 1.1-6.8-1.4-1.8-2.6-3.9-3.8-5.9-6.7-11.7-16.1-19.8-28.4-25.6-29.6-13.8-56.3-32.4-81.5-53-37.6-30.6-65.5-68.9-87.7-111.6-9.2-17.6-18.1-35.2-26.3-54-2.8 5-5.1 9.7-7.9 14-10.7 16.3-23.7 29.9-44.3 32.6-24.5 3.1-45.8-3.3-62.5-22.4-9.4-10.7-11.6-23.4-10.6-36.9 1.1-16.1 5.7-31.4 11.2-46.4 2.3-6.4 5.8-12.6 14.5-11.8 1.7.2 1.6-1.3 2-2.3 15.8-42.1 35.1-82.7 53.1-123.9l7.4-14.7zm5.5 94.9c-.8 1.7-1.6 3.5-2.4 5.2-8.3 18.3-16.6 36.6-25 54.9-1.1 2.4-.3 3.1 1.8 3.9 5.6 2 11.1 4 16.6 6.4 2.9 1.2 3.8 0 4.7-2.4 2.4-6 4.7-12.1 7.6-17.8 2.6-5 2.7-9.7 1.5-15.2zm265 503.1c4.5 0 8.5-.8 12-3.8 9.4-8 18.1-16.7 26.2-26 8.2-9.4 16.2-19.2 25.2-27.7 9.8-9.2 13.2-20.5 14.1-33 .6-7.3-2.2-12.2-7.3-13.9-5.6-1.9-15.3.4-17.7 4.6-9.6 16.8-23 30.5-36 44.6-3.6 3.9-7.3 7.8-11.2 11.4-4 3.7-9.3 4.1-13.9 1.7-6-3.1-9.4-8.3-8.6-13.7 2.3-15.7 8.9-29.3 20.4-40.6 8.9-8.8 8.3-9.2 2.3-20.1-1.5-2.7-2.3-2.2-4.1-.4-6.4 6.4-12.8 12.7-19.4 18.7-8.4 7.8-13.9 17.3-17.2 28.2-3.6 11.8-5.2 24-7.9 36-1.4 6.1.8 10.9 5 14.8 8.8 8 18.9 14.1 30.1 18.1 2.6.9 5.2 1.1 7.9 1.1zM314 639.6c25.1 0 51.2-22.3 55-47 .2-1.1.2-2.3.3-3.5.1-1.9-.7-3-2.5-3.7-9.9-3.7-19.8-7.5-29.7-11.3-1.5-.6-2.6.2-3.6 1.1-3.5 3.5-6.7 7.4-9.5 11.5-1.9 2.7-.9 4.2 1.9 5.1 2.7.8 5.3 1.6 8.1 2.2 2.3.5 2.5 1.5 1.8 3.5-1.3 3.8-2.5 7.6-2.8 11.6-.2 2.5-1.1 3.6-3.9 2.2-6.7-3.3-13.5-6.3-20.2-9.6-4-2-5.3-7.4-2.7-11 5.2-7.1 9.5-14.6 12.5-23 1.1-3.1.2-3.4-1.8-4.4-7.7-3.8-15.6-7.5-23.2-11.6-2.9-1.6-4.3-1-5.9 1.5-3.9 6.1-5.7 13-7.5 19.8-3.1 12.2-6.3 24.6-2.2 37.3 6 18.9 18.7 29.2 35.8 29.2h.1Zm59.9-65.5c2.8.5 4.7-1.2 5.9-4.2.7-1.7 1.4-3.4 2-5.1 15.1-42.9 30.1-85.8 45.2-128.6 1.3-3.7.9-7-2.3-9.3-3.3-2.3-5.8.2-8.5 2-1.4 1-1.5 2.5-2.1 3.8-12.6 29-23.8 58.5-35.1 88-5.8 15-12.1 29.8-17.2 45-.6 1.9-1.9 4.2.7 5.2 3.5 1.2 6.9 3.3 11.4 3.3Zm-22.5-163.7c-4.6 8.4-7.6 16.1-10.7 23.6-13.5 32.7-24.6 66.4-37.6 99.4-3.7 9.5-3.5 9.4 6.9 13.7 3 1.2 3.8.7 4.9-2.1 12.1-30.4 24.3-60.8 37.6-90.8 1.9-4.3 4.1-8.8 3.5-13.8-1.1-9.6-2.3-19.1-4.7-29.9h.1Zm282.7 491.5c-5.7 8-12.1 14.2-16.1 22.1-.9 1.8-1.2 3.6.8 4.8 1.7 1.1 3.5 1.2 5.1 0 1.1-1 2.2-2.1 2.9-3.4 1.9-3.6 4.5-6.7 7.6-9.2 2.9-2.4 3.5-5 1.8-8.3-.7-1.5-1.1-3.1-2.1-6" class="outline" data-original-prefix="outline"/><path id="outline-ear-lft-inner" fill="#000000" d="M351.4 240.4c1.5-1.1 2.5.2 3.6.8 7.2 4.5 14.4 9.1 20.3 15.3 4.8 5.1 11.1 7.8 17.3 10.8 5 2.4 9.4 5.4 13.3 9.5 21.7 22.3 45.5 42.6 66.6 65.6 25.8 28 43.1 61.1 57.4 95.9 2.2 5.3 2.8 10.1 1.6 15.8-4.4 21.2-7.3 42.5-8.1 64.2-1.2 33.9 6.2 65.7 20.3 96.3 4.7 10.3 9.2 20.7 16.2 29.8 3.7 4.8 7.9 9.1 13.1 12.1 8.5 4.9 15.9 2.2 18.8-7.2 1.6-5.1 2.6-10.3 3.6-15.6 3.5-16.8 9.6-32.9 14.6-49.2.7-2.4 2.2-4.1 4.1-5.4 17-11.8 35.1-21.6 54.8-32-3 7.1-4.4 13.2-6.9 18.8-4.1 9.2-4.7 18.7-3.6 28.3 2.8 24.2 6.8 48.2 15.2 71.1 4.9 13.3 12.7 25.1 22.6 35.1 9.5 9.5 15.9 20.8 23 31.8 19.6 30.5 34.3 63.6 49.7 96.2 12.5 26.4 27.8 50.8 45.8 73.7 2.9 3.7 4.3 7.6 4.4 12.4.3 6.8 1.2 13.6 1.7 20.4 0 1.4.9 2.9-.3 4.3-7.9 9.6-17.5 16.9-28.5 23.8-.5-4.3 2.1-6.7 3.1-9.4 2.9-7.7 2.8-15.3 1.2-23.1-4.2-21.1-12.6-40.7-22.4-59.6-25.2-48.6-53.2-95.4-88.1-137.8-6.9-8.4-13.8-16.7-22.2-23.7-1.8-1.5-2.1-3.2-2-5.3.3-24.2-5.4-47.2-13.6-69.7-1.5-4.1-3.4-7.9-6.1-11.4-2.8-3.7-6.2-4.1-10.1-2.2-3.6 1.6-6.4 4.2-8.7 7.3-9.8 13.2-16.1 27.8-16.6 44.6-.7 20.6 4.9 39.4 14.5 57.4 1 1.9 2.1 3.7 3.2 5.6-1.9 1.1-3.2-.2-4.3-.8-26.4-13.7-51.7-28.8-73.2-49.9-4.4-4.3-6.2-8.5-7.1-14-4.7-28-12.1-55.3-21.6-82-6.2-17.4-15.6-33.1-26.6-47.9-2-2.7-2-4.4 0-7.3 7.5-11.5 10.4-24.6 10.8-38 1.4-43.7-10.2-83.8-32.6-121.3-22-36.8-50.7-66.6-87.2-89.1-5.6-3.5-10.1-7.6-13.2-13.8-4.8-9.8-10.1-19.5-16.6-28.4-.6-.9-1.7-1.7-1.2-3z" class="outline" data-original-prefix="outline"/><path id="outline-ear-lft-ring2" fill="#000000" d="M720.4 800.3c-1.6 20.6-16.3 40.9-41.5 39.5-33.3-1.8-55.8-36-44.7-67.5 8-22.8 34.1-33.2 55-21.2 19.4 11.1 29.5 28.5 31.2 49.2m-17.4-9.4c.2-5.6 0-11.8-3.7-17.5-7-10.5-22.2-16.8-34.5-14-17.8 4.1-26.8 20.4-21.9 39.3 4.3 16.3 20.4 27 36.8 24.3 11.2-1.8 25.6-12.2 23.2-32.1z" class="outline" data-original-prefix="outline"/><path id="outline-ear-lft-ring" fill="#000000" d="M491.8 711.4c-.2-19.1 11.1-30.4 28-30.5 19.9 0 36.4 13.1 37.7 31.1.7 10.3-1.7 20.6-7.8 29.3-7.4 10.5-20.4 12.9-34.6 7.1-17.9-7.2-21.9-22.4-23.2-37.1h-.1Zm11.3 3.2v2.7c.5 10.5 7.6 18.7 18 20.8 10.3 2.1 19.6-2.5 24.2-12 7.6-15.6-4.9-33.5-23.8-33.9-7.9-.2-13.7 3.6-16.6 11-1.4 3.6-2.1 7.3-1.8 11.5Z" class="outline" data-original-prefix="outline"/>
    </g><g class="trait-group" data-category="head" id="head-horned">
      <path id="fill-head2" fill="#ffffff" d="M831 1028c-.5.6-13.6.2-15.4 0-5.5-.8-5.7-4-8.7-6.3-18.9-15.1-64-51.5-68.8-75.2-3-15 0-62.4 4.4-77.4 4.8-16.4 38.1-54.4 52.2-64.8 19.1-14.2 43.1-24.8 64.8-34.2-18.3 29.1-32.1 76.2-11.1 107.1 7.7 11.2 31.3 29 43.3 36.7 9.5 6.1 30.9 13.8 33.9 25.1 1.1 4.2.5 16.7-1.6 20.4-1.7 3-9 5.8-9.8 8.3-1.1 3.7 2.7 7.8-.3 13.7-3.1 6.2-8.2 7.7-12.4 11.6-11.3 10.6-11.2 17-28.1 24.9-3.8 1.8-21.8 8.7-24.6 8-3.9-1-14.9-11.7-17.6-3.1-.5 1.5 0 5.1-.2 5.3Z" class="fill" data-original-prefix="fill"/><path id="fill-head1" fill="#ffffff" d="M1217 1028c-.2-.2 0-3.5-.4-5-3.1-9.4-14 3.4-19.8 2.9s-24.6-8.7-30.1-12c-11.1-6.7-12.4-13.4-20.2-20.8-4.1-4-9.3-5.3-12.4-11.6-2.9-5.9.7-10.4-.3-13.7-.7-2.5-7.4-4.7-9.3-7.7-2.7-4.2-3.3-16.2-2.1-21 3-11.4 24.4-19 33.8-25.2 13.2-8.6 37.4-26.8 45.1-39.9 15.8-27.1 7.3-61.4-4.2-88.6l-9.2-15.3c20.9 8.6 43.2 18.8 61.7 31.8 15.1 10.5 50.9 49.9 55.8 67.2 4.4 15.7 7.2 62.3 4 78.1-4.5 22.7-53.5 63-71.6 78.4-3.2 2.7-19.9 3.7-20.9 2.6Z" class="fill" data-original-prefix="fill"/><path id="shading-head2" fill="#aaaaaa" d="M846 1004c0-3.5-3.2-6.2-3.9-9.6-.3-1.3.2-2 1.4-1.4 1.8.8 11.7 11.3 15.2 13.8 1.7 1.2 7.5 5.9 6.3.7-.7-2.8-5.8-6.4-7.8-9.2-1.6-2.2-15.2-22.4-14.2-23.3 6.5 1.1 10.8 10.1 16.8 12.7 7.3.4 21.2 8.2 27.7 7.3 2.7-.4 5.2-3.6 4.4-6.3-1-3.6-18.2-13.4-17.8-20.7l25 14.6c11.1.6 12.3-5 13.9-14.2.2-1.2-.8-2.6-.6-3.7.3-1.9 5.9-10.3 8.2-6.7 1.9 3.1 2.1 19.1.7 22.7-2 5.3-23.7 31.8-28.7 37.3-21.7 23.7-40.9 28.9-71.8 16.8-10.5-4.2-7.8-7-13.8-13.2-5.9-6.1-16.9-12.9-23.9-19.1-12.5-11.1-41.1-39.4-44.8-55.2-3.4-14.9 0-71.3 6.6-85 4.7-9.9 13.7-20 20.7-28.3 1.3.7 0 2.7-.2 3.8-7.5 29.1-19.5 55.9-10.8 87.2 9.4 33.8 40.4 47.4 63.5 70.5 8.5 4.6 18.2 8.8 27.9 8.6Z" class="outline shading" data-original-prefix="shading" opacity="0.5" style="opacity: 0.5"/><path id="shading-head1" fill="#aaaaaa" d="M1127 958c2.8-2.6 7.7 3.4 8.4 6 .5 1.9-.7 3.4-.4 5.3 1.2 8.3 3.7 14.2 13.2 13.5L1174 968c0 7.3-16.8 17-17.8 20.7-.8 2.7 1.7 5.9 4.4 6.3 2.3.3 25.3-6.4 28.2-7.8 3-1.5 14.4-13.9 16.3-12.2.9.8-11 18.2-12.2 20.3-1.1 3.1-12.3 11.8-9.8 14.7 1.3 1.5 19-13.8 20.5-16 2.1-.4 1.7 1 1.4 2.4-.5 3-3.3 4.4-2.9 7.5 9.5.4 18.3-4 26.7-7.8 22.1-21.8 52.3-36 63.3-66.7 10.7-29.8-1.2-64.4-9-93.5 1.9-.4 2.4.9 3.4 2.1 7.7 8.9 18.2 24.2 20.3 35.7 3 16.1 7 63.8 1.5 77.9s-31.5 40.4-43.7 51.3c-6.8 6-17.1 12.2-23 18-6.7 6.7-3.5 9.6-15 14-31.7 12.1-50.2 6.1-72.1-18-6.3-7-22.7-26.7-26.7-34.3-1.9-3.8-2.8-22.7-.8-24.7Z" class="outline shading" data-original-prefix="shading" opacity="0.5" style="opacity: 0.5"/><path id="outline-head2" fill="#000000" d="M864 1022c-.1 2.2 1.1 3-1.4 4.2-11.2 5.2-16 3.3-26.6-2.1-.4 12-4.7 9.3-14 7.5-24.7-4.6-47.3-26.8-64-45-23-25.1-27.2-34-26-69.1 1.1-33 1.3-52.6 22.1-78.9 24.3-30.8 45-47.5 80.6-64.4 5.1-2.4 41.4-17.9 43.3-16.1.5 1.7-.7 2-1.5 3-10.5 13.7-17.3 18.1-24.3 35.7-21.7 55.1-6.6 78.5 38.4 109.1 7.9 5.4 28.1 14.5 33.2 19.8s8.2 15 7.9 18.6c-.2 3.1-4.8 18-6.6 20.5-2.3 3.3-5.5 3.3-9.2 3.3-.2 2.6 2.5 4.3 2.7 6.6.9 8.3-9.1 18.4-17.7 17.4-.4-2.3-14.7-13.4-13-15 4.9 1 16.4 8.7 20.5 5 .6-.5 3.4-6.5 3.3-7.3-.6-4-14.9-16.8-18.8-19.7 5.5 0 17.5 5.6 22.4 3.9 2.2-.8 5-12.3 4.1-14.8-1-2.9-14.8-13.5-18.2-15.9-9.1-6.4-19.3-11.9-28.6-18.4-6.7-4.7-22.7-15.2-27.7-20.3-4.6-4.6-12.9-23-14.5-29.5-6-24.9 6.5-59.2 16.5-82-30.2 13.8-57.8 33.6-80 58.5-12.5 14.1-18.4 21.8-20.9 41.1-3.3 25-5.5 61.5 8.6 83.1 9 13.8 43.1 49.5 57.3 56.7 5 2.6 17.6 7.5 15-2.7-.2-.7-4.2-2.3-5-5.2-1-3.6 3.5.4 4.3.7 11.8 5.5 21 8.6 33.5 11.6 1.3.3 3 .4 4.2.2Z" class="outline" data-original-prefix="outline"/><path id="outline-head4" fill="#000000" d="m1155 1005 40-20c.8.8-2.8 5.1-3.5 6-5.1 6.2-12.5 12.1-18.5 17.5-.9 4.2 11.8 3.2 14 4-1.3 1.2-2.6 3.1-4.2 3.8-.7.3-7.3 1.7-7.8 1.8-4.4 0-17.6-3.8-19.5-8-.9-1.9-.2-4-.5-5Z" class="outline" data-original-prefix="outline"/><path id="outline-head3" fill="#000000" d="M892 1005c5.6 7.3-13.9 13-19 13-.4 0-6.8-1-7.3-1.2-1.7-.5-3.2-3.2-4.7-4.3 2.2-.8 14.9.2 14-4-6.5-5.6-13.3-11.6-19-18-1.9-2.1-4.2-5-5.5-7.5z" class="outline" data-original-prefix="outline"/><path id="outline-head1" fill="#000000" d="M1146 992c-.9-.8-6.1-.9-8.4-2.1-6.5-3.5-11-15.6-5.6-21.9-3 0-6.8 0-8.9-2.6-2.8-3.5-7.7-20.9-6.6-25.4 4.2-18.4 26.4-24.5 40.8-34.2 12.3-8.3 32.1-23 39.5-35.5 20.2-34.2-.8-88.3-28.8-112.8 24.7 6.4 48.6 17.4 70.7 30.3 23.5 13.8 52.3 42.3 66.1 65.9 9.5 16.2 10.9 48.6 11.2 67.8.4 20.3.6 30-11.2 46.9-10.6 15.1-44.2 49.8-60.1 57.9-3.8 1.9-25.7 7.5-29.2 6.8s-2.6-6.1-3.5-9c-10.4 5.1-16.3 7.8-27.3 1.8-2.4-1.3-1.2-1.8-.7-3.8 4.8.8 6.3-2.1 9.7-2.8 2.7-.6 5.4 0 8.3-.7 7.8-1.8 15.9-7.6 23.5-10.5.9 2.8-4.4 6.2-4.5 6.7-2.7 10.4 10.2 5.2 14.9 2.7 13.9-7.1 49.6-44.2 58.1-57.9 13-21.1 10.7-56.9 7.8-80.9-2.5-20.8-8.8-28.6-22.4-43.6-21.8-24.3-49-43.3-78.5-57 10 23.2 22.2 56.5 16.3 81.8-6.3 27.3-23.6 37.1-45 52-13.1 9.1-28 16.6-39.8 27.2-3.3 2.9-4.7 4.6-4.3 9.2.2 2.2 2.4 10 4.4 10.6 4.7 1.6 16.2-3.2 21.3-3.8l-18 18.6c2.7 16.8 13.7 5.9 24 3.8l-14 14.5Z" class="outline" data-original-prefix="outline"/>
    </g>
</svg>