<?xml version="1.0" encoding="UTF-8"?>
<?xml-stylesheet type="text/css" href="../styles/semantic.css" ?>
<svg xmlns="http://www.w3.org/2000/svg" viewBox="0 0 2048 2048">
  <g class="trait-group" data-category="background" id="background-scanlines">
      <defs>
    <pattern id="scanline-pattern" x="0" y="0" width="4" height="4" patternUnits="userSpaceOnUse">
      <rect width="4" height="2" fill="#333333" opacity="0.3"/>
      <rect y="2" width="4" height="2" fill="#333333" opacity="0.1"/>
    </pattern>
    <radialGradient id="crt-glow" cx="50%" cy="50%" r="50%" fx="50%" fy="50%">
      <stop offset="0%" style="stop-color:#666666;stop-opacity:0"/>
      <stop offset="80%" style="stop-color:#444444;stop-opacity:0.3"/>
      <stop offset="100%" style="stop-color:#222222;stop-opacity:0.6"/>
    </radialGradient>
  </defs>
  <rect id="color-scanline-bg" class="color" width="2048" height="2048" fill="#222222"/>
  <rect id="color-scanline-glow" class="color" width="2048" height="2048" fill="url(#crt-glow)"/>
  <rect id="color-scanline-pattern" class="color" width="2048" height="2048" fill="url(#scanline-pattern)"/>
    </g><g class="trait-group" data-category="jaw" id="jaw-half-robo">
      <path id="fill-jaw" fill="#ffffff" d="m1382.8 1128.2 12.4 130.2 60.9 48.3-49.6 133.4c-1 1.4-2.4 1.1-3.9.9-13.9-1-32.8-8.5-47.4-10.7-1.8-.3-3.5-.4-5.2-.3 1.2 4.7-1.2 7.6-2.1 11.4-4.9 22.2-7.7 45-12.1 67.4l-57.2 29.3-1.4 1.6c-1.1 12 1.6 23.9.9 35.9-.3 5-1.3 14.9-2.3 19.7-.6 2.8-13.7 32.2-15 33.5s-16.1 8.9-16.7 8.3l-9.5-50-51 52c-7.7 5.7-20.7 9.3-27.5 15.5-14 12.7-24.7 36.5-41.4 47.6-5.5 3.6-58.7 25.2-65.4 26.6-2.4.5-46.7.7-49.3.2-6.2-1.1-59.9-22.7-65.6-26.3-14-8.8-29.1-36.3-42-48-6.7-6.1-19.9-9.6-27.5-15.4l-51-52-9.6 48.4c-.6.9-.9 1.7-2.2 1.5-.8 0-13.8-7.6-14.4-8.2-1.4-1.4-15.6-32.9-16-35.5l-.7-54.3-58.2-30.3-12.3-69.7c-16.4-1.1-33.5 3.9-49.5-1l-37.3-85.8c-.7-3.4 4-13 5.6-16.9 8-19 17.8-37.3 25.7-56.3 9.2-2.5 21.3 1.1 29.9-5.1 4-2.8-.2-18.8 0-23.9l-19-32.1-.3-2.2 27.6-63.5c1.4-9.9-3.2-21.4-1.1-31.1 1.3-6.2 9.7-21.7 13.2-27.9 54.6-98.4 184.4-157.8 290.2-180.8 48.2-10.5 90.3.5 136.5 15.4 98 31.8 198 94.6 250.7 185.3 3.2 5.5 3.8 13.3 10.7 14.8h-.7Z" class="fill" data-original-prefix="fill"/><path id="fill-jaw1" fill="#ffffff" d="M1265.7 1351.3c9.2 7.7-4.5 25.9-12.2 15.7s2.9-23.4 12.2-15.7" class="fill" data-name="fill-jaw" data-original-prefix="fill"/><path id="fill-jaw2" fill="#ffffff" d="M1314.6 1391.2c7.8-1.5 6.2 19.1-2.9 17.7-9.8-1.5-.6-17 2.9-17.7" class="fill" data-name="fill-jaw" data-original-prefix="fill"/><path id="shading-jaw" fill="#aaaaaa" d="M1377.3 1124.7c2.2 2.7 13.8 4 14.5 10l8.4 112.6c17.4 18.9 36.8 35.9 56.4 52.6l1.5 3.6-51 135.8c-1 1.6-3.7 1.7-5.4 1.6-14.4-.9-32.2-8.4-47.3-8.9-1.8 0-3.2-.2-4.4 1.3l-14.4 75.6-59.4 30.1c.4 11 2.6 23.6 2 34.5-.3 5.7-1.3 15.4-2.1 20.9-.5 3.1-13.4 31.4-15.4 33.6-3 3.2-11.6 6.2-15.5 9l-12-46.4-2.4-.6-46.1 47.9c-7.8 6.2-20 9.3-27.5 15.5-14.2 11.7-24.4 36.1-41.5 47.5-6.8 4.6-52.9 25.2-60.4 26.6-9.5 1.7-52.8 1.8-62.3.2-7.6-1.3-48.1-19.8-56.6-24.4-16.2-8.6-30.7-38.5-45.1-49.9-7.1-5.7-18.8-9.3-26.5-14.5l-48-49-8.5 47c-1.4 1.2-18.5-6.9-20.5-9-1.7-1.8-15-30.8-15.4-33.6-.7-4.4-.9-13-1.1-17.9-.5-12.2.6-24.4.5-36.6-18.8-11.7-39.4-20.3-58.6-31.4l-13.1-67.4-46.4.9-36.3-91.7-.2-2.3c6.7.3 9.7 6.8 15.7 10.8 19.1 12.8 34.2 19.3 57.7 16.1 20.6-2.8 26.4-11.2 48-1.7 16.1 7.1 19.4 16.7 31.2 25.8 13.2 10.2 17.5 3.6 25.9-7.1 6.9-8.8 25.8-41.6 27.4-51.6 1.7-10.7-3.8-11.2-13-10-8.6 1.1-48.4 15.1-51 14.6-1.7-.4-12.3-7.9-16.5-9.6-20.3-8.4-48.8-11.8-67.2-20.8-14.3-6.9-12.2-21.7-18-34.5l21.5-4.1c1.9.3 10.9 13 13.5 15.6 13.7 13.8 58.3 32.8 77.6 33.5 3.4 0 6-1 8.9-1.1h20.5l-34.7-16.8c-19.1-10.8-48.2-33.1-61.8-50.2-6.2-7.7-7.1-18.3-10.5-27.5-6-16.6-14.4-32-25-46 1.3-9 6.5-19.6 7.8-28.2 2.8-19.1 3.8-27.8 12.1-45.9 49-107.6 188.2-173.2 298.2-196.8 27.9-6 50-5.8 77.9 0 118 24.3 244.7 92.5 307.8 198.2 1.9 3.1 5.2 12.6 6.5 14h-.4ZM1326 1307c15.3-11.2 31.9-21.8 44.5-36 6.1-22.7 14.6-45.7 13.5-69.6l-2.1-29.5c-1.4.2-1.9 1.8-2.5 2.9-16.8 30.8-29.1 66.4-47 97l-62.3 38.7.4 3.3c5.9 15.3 32.8 49 33.4 63.6.2 4.3-2.2 10.7-.7 15.7 1.1 3.6 11 9.8 15.2 9.4l62.4-18.5c8.3 1.2 16.7.9 25.1.6l36.7-78.8.3-3.3c-14.1-10.8-29-21.4-44.3-30.7l-2.8 11.8c-13.3 5.6-27.2 16.2-40.4 21.1-6.7 2.5-16.4 2.8-23.8 3.2-1.2 0-5.6.7-5.5-1Zm-248 20c-5.1-10.6-9.9-23.3-16.6-32.9-6.5-9.4-23.8-30.4-31.9-38.1-4.2-4-7-3.9-11.1 0-7.7 7.4-27 30.2-32.9 39.1s-10.5 22.1-15.6 31.9zm200.7 70.7c1.4-1.6 8.8-25.5 9.1-28.5.4-4.4-3.5-11.7-5.6-15.9-3.8-7.3-18.5-32.7-23.6-37.4-5.7-5.3-8-1-14 1.1-11.8 4-23.6 7.8-35.5 11.5-1.3 1.1-1.1 1 0 2 3 2.6 6.7 4.5 9.4 7.6 6.8 8.1 12.2 22 18.6 30.9l3.1-12.4c.8-3.8 7.7-7.4 10.8-5.4 1.2.8 3.6 11.4 7.9 12.7 6.1 1.8 8.2-5 11-5.7 4.2-1 10.3 3.7 10.1 8.1-.5 11.3-14.6 20.3-25.1 18.6-1.1-.2-10.1-4.8-8.7-1.3 3.1 2.8 14.4 21.8 16.7 22.4 2 .5 14.5-6.5 16-8.2h-.2Zm-550.4 99c1.6 2 8.2 6.3 10.7 7.8 14.8 8.8 31.7 13.8 46.9 23.1 16.8 10.2 40.2 33.1 59.6 33.5 2.3 0 8.7-1.2 9.4-3.7.8-2.7-13.5-27.5-16.4-30.3-7.3-7.2-27.5-17.2-37.2-23.8-15.2-10.3-50.3-39.1-67.9-39.2-10.5 0-8.7 28.1-5.1 32.7Zm591.4-30.4c-6.1-6-24 4-30.4 7.6-16.3 9.1-30.8 21.3-46.2 31.8-9.3 6.4-25.4 13.9-33.1 20.9-3.1 2.8-16.2 24.5-16.9 28.2-1.1 5.3 6.2 6.5 10.3 6.3 16.8-1 25.6-11.2 38.2-19.8 8.3-5.7 17.3-12.1 26-17 11.7-6.6 47.1-19.2 52.7-29.3 2.4-4.3 2.8-25.2-.7-28.6ZM1126 1664c-12-2.7-20.7 6.6-31.6 7.9-5.7.7-12.2-1.2-16.6-.7-7.1.8-22.9 12.1-31.2 14.9-14.8 4.9-30.2 4.7-45.1 0-8.8-2.8-23.9-14.1-31.2-14.9-4.4-.5-10.9 1.4-16.6.7-11-1.3-19.9-11-31.6-7.4 0 7 23.7 23.4 30 27 12.5 7.1 59.7 26.8 72.5 26.6s59.8-19.7 72.2-26.9c3-1.8 33.6-23.3 29.3-27.2z" class="outline shading" data-original-prefix="shading" opacity="0.5" style="opacity: 0.5"/><path id="outline-jaw" fill="#000000" d="M1378 1122c.3-3.9.6-9.1 5.7-9.8 7.8-1.2 8.7 12 9.3 17.3 3.8 33.8 2.1 69.1 8.3 102.7 2.2 11.9 3.2 13.8 12.3 21.7 14.8 13 33.2 22.8 47.5 36.5 2.6 2.5 11.8 12.2 12 15.1l-66.1 156.3-46.9-24.9c-1.8 6.1-5.4 12.6-6.7 18.8-4.1 19.2 0 41.1-2.2 59.8-.4 3.4-10.5 17.5-13.3 18.7-6.4 3-16.2-1.8-24.7 3.3-23.8 14.4-17.9 48.6-27.2 68.8-7.8 17-37 48.2-52.9 58.1-1.6 1-2.9 1.9-4.9 1.6 1.1-14.8 3.1-34.9-3.9-48.6-.4-.8-.4-3.2-2.1-1.4-.7.7-3.6 13.8-6.6 17.9-5.8 7.9-20.7 8.9-29.4 12.6-16.7 7-14.3 32.7-27.7 43.3-19.3 15.2-61.2 32-85.1 38.9-10.8 3.1-38.9 11.3-48.7 11.3-15 0-63.4-15.1-78.8-21.2-11.1-4.4-55.3-26-60.6-34.4-6.9-11.1-8.5-31.6-21.5-37.6-14.5-6.6-26.4-2.4-33.9-20.1-1.1-2.5-2.5-10.3-2.8-10.7-1.3-1.6-1.8.4-2.2 1.3-6.9 12.5-5 34.9-3.8 48.7-2 .3-3.3-.6-4.9-1.6-15.7-9.8-48.9-44.4-54.2-61.8-6.2-20.6-5.3-52.1-25.9-65.1-8.2-5.2-18.3-.3-24.7-3.3-.9-.4-12.2-14.2-12.7-15.3-2.1-5.2-.2-29.6-.5-37.4-.4-9.1-2-18.5-3-27.5-4 1.6-7.6 4.7-11.9 5.6-2.8.6-5.6.7-8.5.3-4.7-.6-27.4-9.9-32.6-12.4-1.3-.7-2.7-1.2-3.5-2.5-2-33.7-22.2-63.7-44-88-2-4.4 2.1-14.5 3.7-19.2 6.2-17.8 15.6-36.4 25.7-52.3 3.2-5.1 14.2-22 17.9-25.1 5.5-4.4 9.8 3.3 14.6 6.6 1.6 1.1 12.7 7.8 13.5 7-2.9-7.2-9.4-11-13.8-17.7-4-6-15.9-26.4-15.8-32.6s5.4-17.7 6.5-25.3c.5-3 1.1-8.8 1.2-11.8.2-6.5-3-17.5 1.3-22.2 1.2-1.4 12.8-6.5 14.1-6.2.9.2 5 11.2 10.5 7.8 2.3-1.4 1-34.7 0-39.9.3-.3 7.6 1.8 8 2 1.8 1.1 7 8.1 9.8 9.7.5 8.4 3.4 20.7 1.1 28.7-2.8 10.1-17.5 14.8-21.2 22.8-1.2 2.6-6.4 25.9-6.7 29.3 0 1.2-.2 2.4.2 3.7 4.8 10.3 13.7 19.4 18.7 29.3s9 33.8 15.5 40c5.3 5.1 14.5 7.1 21 10.5 7.5 4.1 15.7 10.7 22.7 15.8-11.3-1.3-47.2-5.2-54.5-13-3.3-3.6-5.7-15.7-9.6-17.4-2.6-1.2-6.2-.2-9.2-.8-7-1.2-10.7-7.9-18.5-1.5-6.6 12.5-14.3 24.3-20.4 37.1-7.4 15.4-14.8 25.1-4.8 41.2 5.3 8.6 23.3 26.7 25.6 34.4 2.5 8.6-2.7 28 2.9 34.1 6 6.6 20.6 4.5 27.8.8 10.6-5.4 8.7-9.9 14.3-18.7 5.2-8.2 19.7-23.1 28.9-26.2s13.4 8.6 15.6 15.5c7.3 23.8-.2 34 22.5 51.5 11.6 8.9 33.3 20.1 47.8 17.9 8.5-1.2 21.1-6.6 27.2-12.8 7.2-7.5 8.8-24.6 24-14 15.8 11 30.3 30.1 46.6 41.4 20.5 14.3 77.5 32.5 102.5 34.6 37 3 105.5-17.1 134.5-40.5 11.5-9.3 21.6-20.6 33-30 4-3.3 11.6-11.3 17-8 .7.5 7.5 12.5 9.2 14.8 3.3 4.7 11.5 16.1 17.4 16.7 7.4.8 31.3-15.5 40.2-17.2 8.1-21.2 17.3-42.1 23.5-64 2.8-9.9 8.4-24.8 3.8-34.3-2.1-4.2-21.3-33.6-24-36-3-2.7-9.6-5-13.5-6.5-3.3-1.2-19.8-5.2-20.5-6-1.5-1.4.4-1.7 1.3-2.2 1.3-.7 11.6-5.7 12.3-5.8 2.6-.4 25.4 6.8 27.4 8.5s8.6 15.3 11 19c5 7.6 19.5 25.4 20.8 33.2.4 2.5.5 4.9-.2 7.3l-26.5 74.9c22.1-8.1 42.1-21.6 63.6-30.8 4.1-1.8 12.4-6.1 16.3-4.6 4.7 1.7 16.6 11.3 22.4 14.6 2.4 1.4 18.7 10.5 19.7 9.8l48.1-125.5c-.2-2.1-12.6-9.7-15.4-11.7-13.3-9.9-23-17.3-37.4-25.6-7.1-4.1-7.5-7.8-8.3-15.7-2.2-22.8-2.4-46.1-4-69-1.5-20.8-6.3-45.1-5-65.5h-.7Zm-649 280c-5.9.4-11.3 6.2-14.4 11.1-12.8 20.4-.6 26.3 1.3 45.5 1.3 13.2-3.2 33.5 4.7 44.3 5.3 7.3 21.6 10.7 30.1 14.9 3.6 1.8 23 13.2 24.8 15.2.4.4 3.3 5.3 3.3 5.6 0 .8-3.5 12.2-3.8 15.8-1.9 24 4.5 52.9 21 71l5 4.5c.9-4.6-1.1-9.2-1.1-13.5 0-12.5 8.2-24.3 10.1-36.5 23.5 5.4 36.4 28.6 51.4 45 11.3 12.4 23.8 14.5 34.1 23.9 6.5 5.9 11.9 15.9 17.5 22.5 14.6 17.4 20.2 23.3 41.3 32.7 29 13 50.6 21 83.2 18.9 16.8-1.1 61.8-19.2 76.4-28.6 16-10.4 26.2-34.2 40.1-45.9 10.6-9 21.7-10.9 32.5-22.5 15.6-16.6 28.5-40.5 52.5-46 .8 9.9 6.9 18.2 8.7 27.8 1.5 7.6.3 13.6.3 21.2 7.8-5.3 15.2-16.8 18.8-25.6 5.4-12.9 8.1-33.2 7.2-46.9-.2-3.4-3.8-17.5-3.5-18.4.6-1.7 3.6-5.7 5.2-6.9 4.5-3.4 17.3-10.6 22.7-13.3 11.7-5.9 31.5-8 33.6-23.4s-.7-31.7 3.8-48.2c1-3.6 5.3-8-1.4-5.4-30.7 11.8-63.4 35.5-93.6 46.4-10.1 3.6-23.8 2.7-32.8 7.2-6.8 3.5-11.5 12.3-16.4 17.6-16.2 17.4-41.8 25.6-65 28-69.4 7-135.6 6.9-205 0-21.7-2.1-46-9.9-62.5-24.5-5.9-5.2-10.7-15.4-19.3-15.2-3.9 0-8.2 3.3-11.2 3.7-5.5.6-22.8-12.9-28.7-16.2-15-8.4-31.4-14.8-46-24-2.8-1.8-16.7-11.4-17.8-13.2-2.8-4.9.2-12 0-17.1 0-10.4-4.3-21.6-7.1-31.5" class="outline" data-original-prefix="outline"/><path id="outline-jaw1" fill="#000000" d="M1253.7 1342.2c12.9-2.4 29.1 10.8 24 24-3.6 9.3-14.2 17-24.2 12.8-15.8-6.5-17-33.6.3-36.8zm12 9.1c-9.3-7.8-20.1 5.1-12.2 15.7s21.4-8 12.2-15.7" class="outline" data-name="outline-jaw" data-original-prefix="outline"/><path id="outline-jaw2" fill="#000000" d="M1313.7 1382.2c20.2-4.4 22.1 39.9-4.2 35.7-17.9-2.8-9.8-32.7 4.2-35.7m.9 9c-3.6.7-12.7 16.2-2.9 17.7 9.1 1.4 10.8-19.2 2.9-17.7" class="outline" data-name="outline-jaw" data-original-prefix="outline"/>
    </g><g class="trait-group" data-category="mouth" id="mouth-jaws">
      <path id="fill-mouth-main" fill="#ffffff" d="M1102 1287c.4.6-2.2 4.3 0 5.5 50.4 27.6 100.7 55.4 145.8 91.1-5.2 15.8-10.4 31.6-16.7 47.1-5.9 14.4-8.3 22.4-12.7 37.3-13 44.8-25.3 89.9-38.3 134.7-3.4 15.6 7.3 31.3 8.8 45.8.5 5.4-1.6 24.6-3.1 29.9-2.4 8.9-12.3 10.5-19.9 15.1-23.1 14.2-44 33.8-68.7 45.3-38.6 17.9-94.7 18.9-134.6 4.9-30.8-10.8-53.7-33.5-80.8-50.2-5.6-3.4-16.3-6.9-18.8-12.2-2.2-4.7-4.6-27.2-4.1-32.9 1.2-14.4 12.1-30.2 8.8-45.8-13.8-47.4-26.5-95.2-40.5-142.5-3.7-12.4-5.6-17.8-10.5-29.5-6.4-15.4-11.4-31.2-16.7-47.1 45.2-35.6 95.4-63.7 145.8-91.1 2.2-1.2-.5-4.8 0-5.5.2-.2 3.4-1.1 4.7-1.9 25.5-15.1 52.3-31 83.7-27.1 24.4 3.1 42.7 15.5 62.9 27.1 1.2.7 4.5 1.7 4.7 1.9h.2Z" class="fill" data-original-prefix="fill"/><path id="fill-mouth-teeth13" fill="#ffffff" d="m1042 1510-1.9 71.5c-.9 11.5-1.7 23.4-2.1 34.9-.2 7.7 1.3 20.2 0 27-.5 2.5-12.9 11.6-14.3 11.4-1.2-.2-13.2-8.9-13.7-11.4-.2-44.5-3.3-88.9-4-133.5l17.6 16.9 18.3-16.9Z" class="fill" data-original-prefix="fill"/><path id="fill-mouth-teeth12" fill="#ffffff" d="m1000 1637-20-15.5c-1.8-.5-2.8-4.4-3-4.5-.8-.5-3 3.8-5 3-.4-20.5-.2-41.1-1-61.5s-2.9-41.1-2.5-61.4l11-14c3 4.2 18.8 16.6 19.2 20.6.4 3.5-.9 11.2-.8 15.9.8 20.4 1.8 41.5 2.1 61.9.2 18.5-.2 37 0 55.5" class="fill" data-original-prefix="fill"/><path id="fill-mouth-teeth11" fill="#ffffff" d="M1076 1620c-2 .8-4.2-3.5-5-3-.2.2-1.2 4.1-3 4.5l-20 15.5c.2-18.5-.3-37 0-55.5.2-20.4 1.3-41.5 2.1-61.9.2-4.7-1.2-12.4-.8-15.9.4-4 16.2-16.4 19.2-20.6 2.1 3.9 9.5 10.8 11 14 1.8 3.8-1.3 28.2-1.5 34.4-.3 9-.7 18.1-1 27-.7 20.5-.6 41.1-1 61.5" class="fill" data-original-prefix="fill"/><path id="fill-mouth-teeth10" fill="#ffffff" d="M1114 1651c-3.8-.4-4.7-3.2-5-6.4-1.4-14.4 1.7-35 2.1-50 .6-21.9 0-43.7 2-65.5 3.3.2 4.2 1.9 7.1-.4 6.2-5.1 13.2-22.1 19.9-28.8s2.8-2 3-1.8l-9.1 120.4-20 32.6Z" class="fill" data-original-prefix="fill"/><path id="fill-mouth-teeth9" fill="#ffffff" d="M907.7 1499.3c7 6.2 13.8 23.9 20.3 29.2 2.9 2.4 3.8.6 7.1.4 1.5 10.5.6 21 1 31.5.7 20.9 1.5 42 2 63 .2 5.8 4.1 25-2.5 27.4-1.7.6-6.8-10-8.5-11.4l-12.9-21.1c-3.3-40.1-5.6-80.4-9-120.4 0 0 2.2 1 2.7 1.3h-.2Z" class="fill" data-original-prefix="fill"/><path id="fill-mouth-teeth8" fill="#ffffff" d="M903 1601c-7.1-6.3-5.5-23.9-18-13l-17-142c10.4 12.2 19 26.1 28 39.5 1.9 38.5 3.8 77.1 7 115.5" class="fill" data-original-prefix="fill"/><path id="fill-mouth-teeth7" fill="#ffffff" d="M1163 1588c-12.5-10.9-10.9 6.7-18 13l4-51.5 3.1-63.9c8.9-13.4 17.5-27.3 27.9-39.5l-17 142Z" class="fill" data-original-prefix="fill"/><path id="fill-mouth-teeth6" fill="#ffffff" d="M963 1507c-.7 40.2 2 80.1 2 120.3-1.9 1.4-17.9 15-19 13.7.9-38.3-2.3-76.2-2-114.5l15.4-18.6z" class="fill" data-original-prefix="fill"/><path id="fill-mouth-teeth5" fill="#ffffff" d="M1102 1641c-1.1 1.3-17.1-12.3-19-13.7.4-22.3.5-44.6 1-66.8 0-2.4 1-4.6 1.1-6.9.3-15.5-.3-31.1 0-46.5l3.6.9 15.4 18.6c.3 38.2-2.9 76.2-2 114.5Z" class="fill" data-original-prefix="fill"/><path id="fill-mouth-teeth4" fill="#ffffff" d="M875 1581c-1.5.2-1.3-1.7-1.7-2.8-3-8.8-6.1-18.6-8.6-27.4-10.7-37.7-11.6-78.6-17.8-117.3 0-3.9 3-6.9 5.6-9.5 3.4 3.5 5.8 6.6 6.4 11.6 1.2 10.1 1 21.5 2.1 31.9 3.8 35.2 11.2 72.2 14 107 .2 2.2 0 4.3 0 6.5" class="fill" data-original-prefix="fill"/><path id="fill-mouth-teeth3" fill="#ffffff" d="M1172 1580c6.3-40.6 11.8-81.6 16-122.5 1.2-11.5-1.6-25.4 7.5-33.5 2.6 2.6 5.7 5.5 5.6 9.5-7.6 47.5-8 99-26.1 144-.6 1.6-.8 2.9-3 2.5" class="fill" data-original-prefix="fill"/><path id="fill-mouth-teeth2" fill="#ffffff" d="m843 1439 4 53-5.7-15.8c-1-7.8-7.5-23.8-4.4-30.8.5-1.1 2.9-4.1 3.8-5.2.6-.7 0-1.9 2.3-1.3Z" class="fill" data-original-prefix="fill"/><path id="fill-mouth-teeth1" fill="#ffffff" d="M1207 1439c.3.3 4.7 7.3 4.8 7.7 1.3 4.9-3.4 23.5-5 29.5l-5.7 15.8 4-52.5c0-.9 1.9-.6 2-.5z" class="fill" data-original-prefix="fill"/><path id="shading-mouth4" fill="#aaaaaa" d="m900 1319-56.5 57-14 16c-1.9 4.1 3.2 15.8 2.5 21 4.2-1.8 14.7-13.4 18.4-13.1 4 .3 8.8 14.9 10.3 18.8 2.5 6.3 4.5 12.8 6.8 19.2 18.7 24.5 38.6 48.2 57.4 72.6 3.8 5 3.2 9.2 10.1 7 3.2-1 13.7-10.2 17-13 10.5-9 19.8-20 30.5-28.6l41.1 41 41.9-41c13.1 10.8 24.4 24.6 38 35 3.2 2.5 10.4 9 14.5 6.5l61.8-79.2c3.6-6.3 11.7-36.7 16.9-38.2 4.6-1.3 17.3 14.1 19.3 11.9-.8-5.2 4.4-15.8 2.5-20-20.7-25.2-46.1-46.1-68-70-.7-.7-2.7-2-2-3 34.5 16.7 65.1 39.8 96 62 2.5 5.1-7.2 33.5-9.8 40.2-2.7 7.3-6.2 13.8-9.2 20.8-3.2 7.3-3.5 21.2-14.5 14l-8.5 50-2.5 1c-.2-19.8 1.9-39.7 4-59.4-2-4.9-6.9-13.6-8.8-3.8-4 21.5-4.5 48.2-7.4 70.6-3.6 28-8.2 56-12 84-2 14.9-3.3 16.2 1.9 31.4 1.3 3.8 7.2 14.6 7.4 16.7s-6.3 26.7-7.6 29.5c-2.4 5.5-34.3 27-41.2 30.8-23.5 12.8-65.3 23.2-92 27-44.3 6.3-112.7-12.8-149.7-38-4.2-2.9-22.5-15.7-24.1-18.9-1.2-2.3-7.8-28.2-7.7-30.4 0-2.1 7-16.2 8.3-20.7 4-13.7 2.7-13.4.9-26.4-7.5-52.8-15.1-105.5-20.4-158.6-2.2-5.2-7.7 4.9-7.9 7.8 2.1 19.4 4 39 4.1 58.5h-3l-8-51c-11.6 7.2-11.3-6.6-14.5-14-5.7-13.3-11.5-25.2-15.5-39.5-1.5-5.2-6.1-18.6-2.5-22.6 31.2-21.3 60.9-45.2 95.5-60.9zm-34.5 137v1c.7-.3.7-.7 0-1m315.5 1c-3.8 9.4-17.3 19.9-21.1 28.4-3.4 7.8-1.6 20.7-3.9 29.1l-3 60c.6 3 10.1 7.9 13.4 8.4zm-286.2 118.8c-1.8-29.7-2.2-59.6-6.1-89.1-7.3-9.7-14.3-20.1-22.7-28.8l14 125c6 0 10-4.5 14.8-7.2ZM995 1627c-.8-15.5-.4-31.1-1-46.5-.7-20.6-1.2-43.5-3-63.9-.3-3.6-.4-13.4-4.5-13.5-2.5 0-20 10.7-20.5 13.5 2.4 20.6 1.2 41.4 1.9 62 .2 6.2.6 13.8 1.1 19.9s3 12.8 2 19.5l5.4-5c1.5 2.2 17 15.7 18.6 14m82-10c-.8-6.9 1.6-13.7 2.1-20.4 1.1-17.4.3-35.7.9-53.1.3-8.7 2-18.1 2-26.9s-1-2.1-2-3c-2.2-1.8-17.3-10.9-19.3-10.4-2.9.7-3.4 7.6-3.7 10.4-3.3 35.8-2.8 74-4 110 0 1.4 0 2.9-1 4 5.2.7 17.8-14.1 19.5-14.5 2.3-.5 2.5 4.7 5.4 4Zm-146 17c-1.9-32.1-.2-64.4-2-96.5l-26-32.5c2.8 32.1 2.9 64.2 5 96.4 6.9 11.3 14.5 22.3 23 32.5Zm187 0 22-32.5c1.9-32.2 2-64.3 5-96.4l-26 32.5c-2 25.3-.4 50.7-1 76-.2 5.9-1.4 11.5-1 18 0 1.1-.7 2.8 1 2.5Zm-175 2c.8.8 16.4-9.7 17.5-11 .7-.8 1.5-1.4 1.4-2.6-.7-33.9-2.5-67.6-4-101.5-3.4 2.4-16.3 10.2-17 13.5-.2 33.9 0 67.8 2 101.5Zm101-115c-4.9 2.7-10.4 10.7-15.7 11.8-11.9 2.5-16.1-5.4-24.3-11.8 1.3 37.5 2.3 74.9 2 112.5.8 4 14.2 9.4 17.7 12.4 3.7-2.5 17.6-8.6 18.3-12.4-.2-37.6.2-75.1 2-112.5m61 115c1.6-33.8 2.3-67.6 2-101.5-.7-3.7-13.7-10.5-17-13.5-1.8 33.8-3.7 67.5-4 101.5.2 2.9 18.2 14.4 19 13.5m-167.3 18.7c-1 .9-2.6 1.5-4 1.2-3.8-1-23-30.3-27.3-35.8L895 1607c-.4 4.4-1.3 8.8-2.5 13-1.6 5.4-8.4 19.9-8.6 23.5 0 2.9 4.5 19.8 5.8 23.3.7 1.9 1 3.9 2.9 5.1 29 14.8 52.4 35.8 84.2 44.8 31.1 8.9 64.2 8.8 95.2-.2 31.6-9.2 55.5-30.5 84.3-45.4.8-.4.9-1.2 1.2-2 1.2-3 6.7-24.2 6.5-26.5-.3-3.3-5.8-13.4-7.3-17.8-1.8-5.8-3.1-11.8-4.2-17.8-2.2 3.1-5.1 5.6-7.5 8.5-8.8 10.8-17.2 26.4-26.1 35.9-1.6 1.8-3.2 3.6-5.6 4.3l-43.7-28.7c-4.3 3.6-8.6 8.8-13.3 11.7-8.2 5.1-15 6.1-23.4 13.6-2.3 2.1-3 5.8-6.5 6.5-8.1 1.6-7.3-2.8-11.5-6.4-7.2-6.1-10.9-7.5-18.9-11.1-6.3-2.8-12.3-10-17.6-14.4-12.8 7.9-26.2 15.6-38.3 24.5-1.3.9-1.6 2.5-2.3 3.1v.2Z" class="outline shading" data-original-prefix="shading" opacity="0.5" style="opacity: 0.5"/><path id="shading-mouth3" fill="#aaaaaa" d="M1118 1345c-1.5 1.5-1.8-.6-2.3-1.3-1.8-2.3-6.1-7.1-7.1-8.8-1.8-3.2-.9-7.3-2.6-9.4-2-2.4-11.1-9.6-14.1-11.9-17.8-13.8-38.6-25.3-56-40-3.6-5.4 6-7.7 4.1-13.6.4-.4 8.3 1.9 9 2.5 1.9 1.6 0 5.2 2 7l68.4 49.6c2.9 2.8-.3 24.8-1.4 25.9" class="outline shading" data-original-prefix="shading" opacity="0.5" style="opacity: 0.5"/><path id="shading-mouth2" fill="#aaaaaa" d="M1008 1260c-2.1 5.5 7.8 8.5 4.1 13.6l-61.1 43.9c-10.3 7.3-11.1 16.5-18.7 26.2-.5.7-.7 2.7-2.3 1.3-1.1-1-5.1-24.3-1-26.5l68-49c2-1.9 0-5.2 2-7 1-.9 8.7-2.9 9-2.5" class="outline shading" data-original-prefix="shading" opacity="0.5" style="opacity: 0.5"/><path id="shading-mouth1" fill="#aaaaaa" d="M1011 1355c1.1 4.6-4.9 8.9-3.6 13 1.1 3.3 13.8 10.8 16.2 14.9 1.2.2 16.5-14.1 17-15.9 1-3.6-5.2-7.6-3.6-12 6.9-2.5 17.3 6.5 15.8 13.3-.8 3.8-7.8 10.3-10.8 13.2-6 5.9-6.9 4.1-10.8 12.2-1.9 3.9-5.9 3.9-9.8 3.3-5.8-.8-4.3-4.3-6.4-7.6-4.4-6.7-23.9-15.6-19.3-26.2 2.2-4.9 9.7-10.1 15.2-8.2Z" class="outline shading" data-original-prefix="shading" opacity="0.5" style="opacity: 0.5"/><path id="outline-mouth" fill="#000000" d="M1006 1260c.4-2.1 4.7-6.2 6.5-7 2.2-1 1.8 3.9 2.5 5l-.5 19c-9.8 6.8-19.7 13.6-29 21-10.5 8.4-26.4 21.1-35.5 30.4-3.6 3.7-.7 4.6 2.7 7.3 14.2 11.7 34.2 18.3 52.3 20.2 1.2 1.2-6.6 10.7-4.8 13.8l23.5 23.1c1.5.3 18.4-18.6 21.4-21.5.8-.8 2.6-1.3 2.8-1.6 1.8-3.1-6-12.7-4.8-13.8 18.1-1.9 38.1-8.5 52.3-20.2 3.3-2.8 6.3-3.7 2.7-7.3-9.1-9.4-25-22-35.6-30.4-9.3-7.4-19.2-14.2-29-21-1.1-1.8-.6-15.7-.5-19 0-1.1-.9-6 1.5-5 2.1.9 6.1 6.1 7.5 7-1.8 1-1 3.4-.5 5 3.8 10.3 55.3 44.8 67.4 54.6 1.8 1.5 8 6 8.6 7.4 2.3 5.4-.6 18.1-.5 24.5 0 4.3 3.4 17.4 1.1 20-1 1.1-12.4 6.6-15.3 8.7-15.1 10.7-26.8 28.3-34.7 44.8-1.5.4-1.7-.4-2.5-1-5.2-3.6-23.3-26.5-26.1-26.9-5.3 3.9-11.8 6.3-12.4 13.4-1.2 13 1 27.8 0 41.1l3.1 42.5 34.4-35.1 2.9-.9c13.6 15 26.1 31.3 40.1 46 1.3 1.4 9.3 10.1 10.5 9 3.5-11.2 11.6-21.6 18.2-31.3 19-27.8 40.6-53.8 59.3-81.7.8-.7.7-1.5 1.5-.4 7.1 9.4 13.4 20.9 20.5 30.4l17.6-43.4-157.1-108.6 2-3c36.8 19.5 75.4 39.4 110.9 61.6 21.2 13.3 40.5 29.5 61.9 42.6.6 1.1.2 2.9 0 4.2-.7 7.6-9.9 31.6-13.2 39.9s-7.1 16.1-11 24l-44.5 161.6c.4 12.4 9.3 27.7 9.8 39.7.3 6.8-1.7 25-3.2 31.9-.4 2.2-1.7 6.3-3 8-1.2 1.6-15.8 8.4-19.4 10.6-24.6 15-45.2 35.2-72.5 46.5-40.8 16.9-104 16.8-144.7-.3-27-11.3-47.4-31.4-71.8-46.2-3.6-2.2-18.2-9.1-19.4-10.6-1.3-1.7-2.6-5.8-3-8-1.4-6.9-3.5-25.1-3.2-31.9.6-12.2 9-27.1 9.8-39.7-13.1-46.2-25.7-92.7-39.3-138.8-2.2-7.3-3.2-16.5-5.7-23.3s-7.5-14.1-10.5-21.5c-5.5-13.7-9.1-28.1-14.2-41.9-.3-1.7 0-3.3 1.4-4.4 24.1-15.7 46.6-33.8 71.2-48.8 32.3-19.7 66.7-38.2 100.3-55.2l3 3-157.1 108.6 17.6 43.4c7.1-9.6 13.4-21 20.5-30.4.8-1.1.7-.3 1.5.4 18.8 27.9 40.3 53.9 59.3 81.7 6.6 9.7 14.7 20.2 18.2 31.3 1.2 1.1 9.2-7.6 10.5-9 14-14.6 26.5-30.9 40.1-46l2.9.9 34.4 35.1 3-42.5c-1-13.2 1.2-28.1 0-41.1-.7-7.1-7.1-9.5-12.4-13.4-2.8.5-21 23.4-26.1 26.9-.8.6-1 1.4-2.5 1-7.8-16.5-19.6-34.1-34.7-44.8-3-2.1-14.3-7.5-15.3-8.7-2.3-2.6 1-15.7 1.1-20 0-6.4-2.8-19.1-.5-24.5.6-1.5 6.8-5.9 8.6-7.4 11-9 62.9-44.3 66.1-52.9 1.1-2.8.4-4.5.8-6.7zm-131 321c0-2.1.2-4.3 0-6.5-2.8-34.8-10.2-71.8-14-107-1.1-10.4-.9-21.8-2.1-31.9-.6-5-3-8.1-6.4-11.6-2.6 2.6-5.7 5.5-5.6 9.5 6.2 38.7 7.2 79.6 17.8 117.3 2.5 8.9 5.6 18.7 8.6 27.4.4 1.1.2 3 1.7 2.8m297-1c2.2.4 2.4-1 3-2.5 18.1-45 18.6-96.5 26.1-144 0-3.9-3-6.9-5.6-9.5-9.1 8.1-6.3 22-7.5 33.5-4.2 40.9-9.7 81.9-16 122.5m-329-141c-2.3-.6-1.7.6-2.3 1.3-.9 1.1-3.3 4.1-3.8 5.2-3.1 7 3.3 23 4.4 30.8l5.7 15.8-4-53Zm364 0s-2.1-.4-2 .5l-4 52.5 5.7-15.8c1.6-5.9 6.4-24.5 5-29.5 0-.4-4.4-7.4-4.8-7.7zm-304 162c-3.2-38.4-5.1-76.9-7-115.5-8.9-13.4-17.5-27.3-28-39.5l17 142c12.5-10.9 10.9 6.7 18 13m260-13 17-142c-10.4 12.2-19 26.1-27.9 39.5l-3.1 63.9-4 51.5c7.1-6.3 5.5-23.9 18-13Zm-163 49c-.2-18.5.3-37 0-55.5-.2-20.4-1.3-41.5-2.1-61.9-.2-4.7 1.2-12.4.8-15.9-.5-4-16.2-16.4-19.2-20.6l-11 14c-.3 20.3 1.8 41.1 2.5 61.4s.6 41.1 1 61.5c2 .8 4.2-3.5 5-3 .2.2 1.2 4.1 3 4.5zm76-17c.4-20.5.2-41.1 1-61.5.3-8.9.7-18 1-27 .2-6.2 3.3-30.6 1.5-34.4-1.5-3.2-8.9-10.1-11-14-3 4.2-18.8 16.6-19.2 20.6-.4 3.5.9 11.2.8 15.9-.8 20.4-1.8 41.5-2.1 61.9-.2 18.5.2 37 0 55.5l20-15.5c1.8-.5 2.8-4.4 3-4.5.8-.5 3 3.8 5 3m-168.3-120.7c-.4-.4-2.6-1.5-2.7-1.3 3.4 40.1 5.8 80.3 9 120.4l12.9 21.1c1.7 1.4 6.8 12.1 8.5 11.4 6.6-2.4 2.7-21.7 2.5-27.4-.5-21-1.3-42.1-2-63-.4-10.5.5-21.1-1-31.5-3.3.2-4.2 1.9-7.1-.4-6.5-5.3-13.2-23-20.3-29.2h.2ZM1114 1651l20-32.6 9.1-120.4c-.2-.3-2.5 1.3-3 1.8-6.8 6.7-13.7 23.7-19.9 28.8-2.9 2.4-3.8.6-7.1.4-1.9 21.8-1.3 43.7-2 65.5-.4 15-3.5 35.6-2.1 50 .3 3.2 1.2 6 5 6.4Zm-151-144-3.6.9-15.4 18.6c-.3 38.2 2.9 76.2 2 114.5 1.1 1.3 17.1-12.3 19-13.7 0-40.2-2.7-80.1-2-120.3m139 134c-.9-38.3 2.3-76.2 2-114.5l-15.4-18.6-3.6-.9c-.3 15.5.4 31 0 46.5 0 2.4-1 4.6-1.1 6.9-.5 22.3-.6 44.6-1 66.8 1.9 1.4 17.9 15 19 13.7Zm-60-131-18.3 16.9-17.6-16.9c.7 44.6 3.8 88.9 4 133.5.4 2.5 12.5 11.2 13.7 11.4 1.4.2 13.8-8.9 14.3-11.4 1.3-6.8-.3-19.3 0-27 .4-11.5 1.2-23.4 2.1-34.9l1.9-71.5h-.1Zm-112.9 165.9-39.6-64.9c-2.7 4.3-15.7 16.7-16.5 20.5-.5 2.3 0 6.3 0 8.8.5 6.2 3.4 24.2 5.1 29.9 2.2 7.3 14 10.2 20.1 13.9 44.8 27.9 79.7 46.3 135.2 43.8 47.1-2.2 77.9-20 116.2-43.8 6.1-3.8 17.8-6.6 20.1-13.9 1.7-5.7 4.6-23.7 5.1-29.9.2-2.5.6-6.5 0-8.8-.7-3.8-13.8-16.2-16.5-20.5l-40.1 65.1-48.9-32.8-45.1 37.7-45.8-37.7c-6.8 2.2-46.8 34.1-49.4 32.6Z" data-original-prefix="outline" class="outline"/>
    </g><g class="trait-group" data-category="eyes" id="eyes-starchild">
      <path id="fill-eyes1" fill="#ffffff" d="M1397.8 1136.8c-2 2-9.7 1-13 1.5-7.1 1.1-22.6 6.6-29.5 9.5-3 1.3-12.5 5.7-14.7 7.3-2.8 2.1-.6 13.2 1.3 15.4 2.1 2.4 13.1 3.5 16.6 3.5 16.5 0 61.7-4.5 75.8-11.2 6.5-3.1 14.3-11.3 20.2-15.8 9.6 20.3 19.3 40.7 27.2 61.7 2.4 6.5 7.7 18.1 8.8 24.2 1.9 10.4-6.3 43.1-8.8 55.2-3.3 16-7.3 31.8-10.7 47.8l-8.7-3.2-22.5-62c-2.6-4.4-6.8-6.9-12-5.5-23.6 11.4-47.3 22.9-71.1 33.9-3.4 1.6-7.3 1.3-9.7 4.2l11.1 113.6c-37.1-19.5-70.8-44.8-107.3-65.2-7.2-4-20.6-13.1-28.6-10.3-43.7 30.2-89.6 57-135 84.4l15.9-91.6c0-5.5 1.7-8.3-3.2-11.6-12.9-8.7-52.7-21.8-68.2-22.8-16.2-1.2-27.4 2.2-42.5 6.6-6.8 2-41.1 13.5-43.5 18.5-1 2.2-.6 6.8-.4 9.4l15.9 91.6c-45.4-27.4-91.3-54.3-135-84.4-8-2.8-21.5 6.3-28.6 10.3-36.5 20.4-70.2 45.7-107.3 65.2l11-113.6c-2.4-2.9-6.3-2.7-9.7-4.2-23.8-11-47.4-22.6-71.1-33.9-5.2-1.4-9.4 1.1-12 5.5l-22.5 62-8.7 3.2c-3.4-15.9-7.4-31.8-10.7-47.8-2.6-12.2-10.8-44.9-8.8-55.2 1.1-6.1 6.3-17.7 8.8-24.2 7.9-21 17.7-41.4 27.2-61.7 5.5 4.5 12.6 11.9 18.8 15.2 4.3 2.3 10.7 3.3 15.5 4.5 17 4 57.2 9.5 73.4 6 10.2-2.2 6.6-8.2 8.7-16.6-6.1-1.9-11.4-5.9-17.2-8.3-7.7-3.2-21.4-8-29.5-9.5-9.1-1.7-13.7 3.3-13.3-9.8.6-17.5 13.5-53.6 20.9-70.1 4.5-10.2 31-59 40.8-60 2.8-.3 6.6 2.3 10-.2 1.3-1 3.4-6 5-8 40.8-50.7 92.4-93.8 152-121 81.3-37 208.8-37.5 290-.3 59.1 27 110.6 69.4 151.3 119.7 1.6 2 5.5 8.8 6.4 9.5 3.7 2.7 8.8-.7 12.1.8 4.9 2.2 13.8 14.9 17.3 19.8 15.6 22.1 28.1 50.3 35.7 76.3 1.9 6.7 10.6 37.5 6.3 41.8h-.2Z" class="fill" data-original-prefix="fill"/><path id="fill-eyes6" fill="#ffffff" d="M935.4 1254.4c-4 3.9-18.4 16.2-18.4 20.9 7.6 25 14.5 50.2 20.5 75.6 3.6 15.3 9.2 34.6 11.2 49.8.4 2.8.3 5.5.2 8.2l-124.7-87.8-121.8 74.8c-2-1.2-1.7-3.5-1.6-5.5 8.5-40.5 19.1-80.6 28.9-120.8l-93.9-79.7 133-12.5 49.5-140.5 69.5 135.5c38 4.9 76 11.7 112 25-21.7 18.8-43.9 37.1-64.6 56.9h.2Z" class="fill" data-original-prefix="fill"/><path id="fill-eyes5" fill="#ffffff" d="m1412 1190-93.9 79.7 26.6 108.1c.3 3.2 4.7 17 .8 18.2l-121.8-74.8L1099 1409c0-2.8 0-5.5.2-8.2 2.1-15.1 7.6-34.5 11.2-49.8 6.1-25.9 13.7-51.4 20.3-77.2-1-4.1-23.1-23.9-27.8-28.3-17.8-16.6-36.6-32.1-55-48 36-13.3 73.9-20.1 112-25l69.5-135.5 49.5 140.5 133 12.5z" class="fill" data-original-prefix="fill"/><path id="fill-eyes4" fill="#ffffff" d="M1101.9 1310.9c-3.5 2.5-56.6-18.1-64.9-20.4-11.5-3.2-15.3-3-26.8.2-20.9 5.9-41.7 16.8-63.6 20.4-1.8-.4-6-26.6-7.4-30.5 6-7.7 11.3-11.8 20.1-15.8 11.5-5.3 56.6-22.7 67.1-21.7 9.8.9 63.7 20.6 71.7 26.4 1.3.9 10.6 10.4 10.7 11.2z" class="fill" data-original-prefix="fill"/><path id="fill-eyes3" fill="#ffffff" d="M1452 1162c1.5 1.1 11.9 31 13.3 35.2 4.8 14.9 8.1 30.2 11.5 45.5l-8.8 75.2c-3.6 0-5.3-5.3-6.3-8.2-5.1-15.5-7.4-34-12-50-.8-2.9-4.4-17.1-6.4-17.7-1.1-.4-2.3 0-3.4.4-32 12.5-61.7 30.3-93 44.5-.2-4.3-3.9-7.8 0-11.5 29.8-29.3 58.7-59.3 87-90l-2.3-1.6-34.7-7.9c10.3-1.1 39.2 2.7 46.6-4 1.7-1.5 6.6-11.4 8.4-10.1v.2Z" class="fill" data-original-prefix="fill"/><path id="fill-eyes2" fill="#ffffff" d="m651 1176-34.7 7.9-2.3 1.6c28.3 30.7 57.2 60.7 87 90 3.9 3.8.2 7.2 0 11.5l-73.6-36.9c-3.1-1.4-21-8.7-22.7-8.1-1.9.6-5.5 14.8-6.4 17.7-4.5 16.1-6.9 34.5-12 50-1 2.9-2.7 8.1-6.3 8.2l-8.8-75.2c3.3-15.3 6.7-30.6 11.5-45.5 1.4-4.2 11.8-34.1 13.3-35.2 1.8-1.4 7 9.1 8.9 10.6 7.7 6.2 35.8 2.2 46.1 3.4" class="fill" data-original-prefix="fill"/><g id="shading-eyes" fill="#aaaaaa" opacity="0.5"><path id="shading-eyes8" fill="#aaaaaa" d="M952 1412c-3.4 0-6.9.2-9.9-1.6-29.4-22.9-59.2-45.3-90.1-66.1l.5-7.3c10.1-30.2 20.6-60.2 30.6-90.4 6.9-20.7 12.8-46.5 21-66 1.1-2.6 3.1-8.2 6.4-8.4 4-.2 14.9 2.4 19.8 3.2 16.9 2.8 33.4 6.8 49.8 11.7.6-.5-6.4-12.7-7.4-14.1-17-26.6-32.4-45.3-57.2-64.8-10.3-8.1-21.9-17-32.7-24.3-16.6-11.1-34.7-19.4-51.7-29.8-8.8 19.9-18.2 39.5-27.2 59.3-24.5 54.5-47.9 109.7-69.6 165.4-7.2 18.3-13.2 38.3-20.8 56.2-1 2.4-2.2 5.1-4 7l16.1-71-92.6-76.7v-6.3c38.8-4 77.5-10.4 116.5-13.1 9.3-.6 20.3 3.7 20.5-10l-54.4-14.9c-1.3-.7 0-3.1-2.2-5-6.5-5.3-25.3-13.8-33.7-18.3-5.6-2.9-12.5-2.1-2.8-7.4l15.1-28.9h33l59 34.5 26.1-78.3-84.6-32.7c-1.9-4 2.8-9.6 5.1-12.9 25.7-37.5 68.9-75.6 107.5-99.5 31.7-19.6 67.1-37 103.9-44.6-15.8 14.7-36.6 21.7-53.5 35-22.9 18.1-50.5 53.7-64.7 79.3-2.4 4.4-10.8 19.8-11.4 23.7-2.9 17.9 18.5 42 30.7 53.5 38.6 19.7 77.6 39.1 113.5 63.5 14.2 19.2 24.9 49.2 40 66.9 6.4 7.4 14 4.9 18.4 8.6 4.6 3.9 4.1 16.1 8.6 16.5 4.2.4 3.6-4.8 5-8 6.1-14.4 8.5-7.4 18.7-13.3 12.1-7 33-58.2 44.2-70.8 16.3-11.4 33.5-21.5 50.9-31.1 18-10 47.2-21.4 62.6-32.4s35.4-40.1 27.9-59.8c-10.7-28.2-48.8-76.6-72.4-95.6-17.4-14-38.3-20.9-54.5-36 29.4 5.8 57.6 18.5 83.7 32.8 47.9 26.3 95.2 65.5 126.7 110.3 2.5 3.5 9 10.9 5.3 14.7-3.2 3.3-24.9 8.2-31 10.5-7.8 2.9-15.1 7.2-22.8 10.2-10.2 4-21.1 6.6-31.1 11.2-15 31.6-29.2 63.6-43.1 95.6-25.6 59-48.1 122.9-75.6 180.4-1.6 3.3-2.9 6.8-5.7 9.3l5.6-25.4c1.3-5 9.2-29 8.5-31.6-.4-1.5-9-10.5-10.3-10.8-2.1-.6-9.2 3.8-11.3 5.4-.5 2 5.7 5.6 6.5 7.5 2.7 6.3-6 29-6.6 36.9-3.3.5-6.5 0-9.7-.6-5.1-.9-45.4-13.2-46.7-15.3-.5-.7-.6-1.4-.3-2.3l16.8-42.3c0-3.6-13.8-6.1-17-7.4-2.4 5.5-16.1 44.5-18.1 45.9-.5.4-10.3-1.7-12.9 0l20-48.6c0-2.3-6.6-10.7-8.7-11.2h-8.5c-2.8.7-6.3 7.6-9.4 9.7-5.5 3.7-14.4 4.3-20.3 7.7l-28.8 61.5c-6 1.6-11.8 3.9-18.2 2.9-.6-7.9-9.3-30.6-6.6-36.9.9-2.1 7.7-5.5 6-8.1-.7-1-9.5-5.2-10.8-4.8-1.3.3-9.9 9.3-10.3 10.8-.7 2.7 7.2 26.6 8.5 31.6 7.9 30.2 14.6 60.6 22.1 90.9v14.5h.1Zm262-355c-28.9 12.4-55.2 30.3-79.9 49.6-25.3 19.8-38.2 35.3-55.9 62.1-1.4 2.1-11.2 17.3-10.2 18.3 28.9-8.9 59.1-13.1 89-17.5 19.5-37.2 38.7-74.7 57-112.5m-133 175-32.7-28.9c-3.2-.8-5.2 3.1-7.4 4.3-6.3 3.5-11.4.5-17.4.5s-9.6 2.6-15.2.3c-2.2-.9-5.4-5.2-7.8-5.2s-29.8 25.2-33.5 29c2.1.2 4.1 0 6.2-.3 10.1-1.2 31.8-9.3 39.3-8.8 3.3.2 5.7 3.1 11 3.2 5.9 0 6.5-2.1 10.3-2.9 4.5-.9 20.2 4.3 26.1 5.5 7 1.5 14.1 3.3 21.1 3.3" class="outline shading" data-original-prefix="shading" opacity="0.5" style="opacity: 0.5"/><path id="shading-eyes7" fill="#aaaaaa" d="M1376 1124c-.3.4-7.4 2.6-9 3.5-8.1 4.2-26.1 12.6-32.3 17.7-2.4 1.9-.9 4.2-2.2 5l-54.4 14.9c0 14.1 12.9 9.1 22.4 10.1 1.2 0 6.3.4 5.6 2.3-21.5 51.2-41 103.2-61.1 154.9-.7 1.3-1.2 3.7-3.2 3.5-3.6-.3-14-10-18-9.7-3.2.3-25.4 18.2-26.7 16.8.4-6 2.1-11.8 4-17.5 18.3-55.7 43.5-114.3 64.3-169.7 1-2.7 4.2-7.7 4.6-9.5 1.2-5.8-6.6-18.7-4.6-22.1 17.9-9 35.3-22.8 53.1-31.4 3.2-1.5 4.4-2.5 8.1-2.9 9.1-.9 20.3.3 29.6.5 2.2 1.4 11 23.6 14.1 27.9 1.6 2.1 7.2 3.8 5.8 5.6h-.1Z" class="outline shading" data-original-prefix="shading" opacity="0.5" style="opacity: 0.5"/><path id="shading-eyes6" fill="#aaaaaa" d="M1348.9 1398.9c-1.2.7-7.1.2-8.8-.4l-75-48.1 59.5-173.3 88.8 10c2.5.8 2.3 6.7.6 8.3l-91.8 76.1 27.8 115.8c0 2.1.2 10.5-1.2 11.4v.2Z" class="outline shading" data-original-prefix="shading" opacity="0.5" style="opacity: 0.5"/><path id="shading-eyes5" fill="#aaaaaa" d="M1471 1321c-5.7.9-9.1-.9-11.4-6.1-5.5-12.6-8.7-37.7-12.7-52.3-.6-2.3-4.2-16.1-4.9-16.6-.5-.4-3.5 1.5-4 1l23-71 8.5 23 9.5 37.5c.3 28.3-6.3 56.2-8 84.5" class="outline shading" data-original-prefix="shading" opacity="0.5" style="opacity: 0.5"/><path id="shading-eyes4" fill="#aaaaaa" d="M703.9 1288.9c-.9.6-6.7.3-8.1 0l-53.3-26.8 8.6-43 52.4 53.1c3.6 2.4 2.8 15.3.4 16.7" class="outline shading" data-original-prefix="shading" opacity="0.5" style="opacity: 0.5"/><path id="shading-eyes3" fill="#aaaaaa" d="M600.8 1159.2c.3.2 2.5 4.8 3.3 6.2 1.5 2.4 4.7 3.6 3.7 6.9l-33.1 90-3.7 7.7c.2-5.4-1.7-11.2-2-16.5-1.8-32.1 13.5-64.8 24.1-94.4.3-.3 7.1-.4 7.7 0Z" class="outline shading" data-original-prefix="shading" opacity="0.5" style="opacity: 0.5"/><path id="shading-eyes2" fill="#aaaaaa" d="M1344.2 1288.8c-2.3-1.4-2.4-10.1-1.7-12.9 2.2-8.3 29-28.5 35-36.9l-13.1 42.9c-3.6 3-16.1 9.4-20.2 6.9" class="outline shading" data-original-prefix="shading" opacity="0.5" style="opacity: 0.5"/><path id="shading-eyes1" fill="#aaaaaa" d="M827.9 1326.9c-4.2-1.3-5.4-.2-8.9 1.5-12.4 6.1-23.6 15.8-36 22 24.4-46.5 45.1-95.1 65.5-143.5 7.1-17 15.2-44.4 23.8-59.2 1.1-1.9 2.7-3.2 4.2-4.7 2.9 6.7 14.3 21.5 13.3 28.2-20.2 52-41.7 103.6-61.9 155.7" class="outline shading" data-original-prefix="shading" opacity="0.5" style="opacity: 0.5"/></g><g id="outline-eyes" fill="#000000"><path id="outline-eyes2" fill="#000000" d="M705 1154c.3-1.7 2-11.9 2.6-12.1 16 .9 31.1 7 46.2 11.9.8.2 1.6.2 2.3-.3 1.6-1.1 11.6-30.8 13.5-35.6 11.8-29.2 24-61.4 37.3-89.7 2.8-6 5.4-14.6 13.1-15.3l27 46.6c13.5 3.6 23.7 12.9 35.4 19.6 19 10.8 40.8 19.3 59.7 30.3 11.1 6.5 13.7 12.6 19.2 23.8 6.6 13.8 11.8 29.1 17 43.4l41.8 15.2-41 45.5 15-4.5-12 11c6.7-3.3 23.4-6.7 28.5-11s7.4-20.7 6.5-27c2.8-.4 4.7 2.1 7.5 2.1s4-1.8 6-2.1c3-.5.4 4.3.5 6.5 0 2.9 5.5 19.8 7.3 21.3l28.7 10.2-10-9 11 1.5-40-44.5 42.5-16c6-13.6 10.3-27.9 16.7-41.3 3.3-7.1 8.7-18.5 14.9-23.1 9.1-6.7 30.7-16.1 41.9-22.1 19-10.1 38.2-19.7 57.1-29.9l27.5-46.6c7.2 1.2 9.8 9.4 12.6 15.4 13.3 28.3 25.5 60.5 37.3 89.7 4.7 11.5 8.7 23.4 13 35 1 1.4 2.3 1 3.8.8 6.9-.9 18.8-6.6 26.5-8.5 6.4-1.6 12.9-3.3 19.7-3.3.7 4 1.9 8.1 2.6 12 .6 3.1-.2 12.5 3.7 13.8 1.3.4 9.1 1.3 10.8 1.3 16 0 58.4-4.6 72.5-10.6 5.8-2.4 21.9-18.9 25.5-18.6.8 0 1.5.4 2 1.1 10.5 24.8 22.5 49.1 31.5 74.5 1.8 5 6.4 15.7 6.7 20.3.6 9.9-6.7 38-9.1 49.4-3.8 18.9-8.5 37.6-12.6 56.4-3.1 2.2-14.4-2.6-17.1-5.3l-24.6-65.4-2.6-.7-79.6 37.3 12.8 113.1c0 3.1-2 4.9-5 3.9-4.1-1.3-15.6-9.1-20.3-11.8-31.6-18.4-62.1-40.4-94-58-6.2-3.4-12.2-7.4-19.2-8.7-45.9 31-93.3 59.6-140.7 88.1l-3.7.8 18-107c-9.4-3.2-17.9-8.6-27.5-12.1-10.3-3.7-32.8-10.9-43.2-11.8-14.5-1.3-52.9 11.3-66.8 18-4.1 2-7.8 5.7-12.6 5.9l17.9 99.6c-.2 1.8 1.6 7.8-1.4 7.4l-143-88.9c-7 1.3-13.1 5.3-19.2 8.7-31.9 17.6-62.4 39.6-94 58-4.7 2.8-16.2 10.4-20.3 11.8-3 1-5.1-.8-5-3.9l12.8-113.1-79.5-37.3-2.6.7-24.6 65.4c-2.7 2.7-14 7.5-17.1 5.3-4.1-18.8-8.8-37.5-12.6-56.4-2.3-11.4-9.7-39.5-9.1-49.4.3-4.6 5-15.2 6.7-20.3 9-25.4 21-49.7 31.5-74.5 1.2-1.4 3-1.4 4.5-.5 6.6 4.7 15.8 14.9 23 18 6.7 2.9 26.6 6.4 34.5 7.5 11.9 1.6 37.9 4.1 48.8 1.8 5.3-1.2 4-9.5 4.7-13.7zm230.4 100.4c20.7-19.8 42.9-38.2 64.6-56.9-36-13.3-74-20.1-112-25L818.5 1037 769 1177.5 636 1190l93.9 79.7c-9.8 40.2-20.4 80.3-28.9 120.8 0 2-.3 4.3 1.6 5.5l121.8-74.8 124.7 87.8c0-2.8 0-5.5-.2-8.2-2.1-15.1-7.6-34.5-11.2-49.8-6-25.4-12.9-50.6-20.5-75.6 0-4.7 14.3-17.1 18.4-20.9h-.2ZM1412 1190l-133-12.5-49.5-140.5-69.5 135.5c-38 4.9-76 11.7-112 25 18.4 15.9 37.2 31.4 55 48 4.8 4.4 26.8 24.2 27.8 28.3-6.7 25.8-14.2 51.3-20.3 77.2-3.6 15.3-9.2 34.6-11.2 49.8-.4 2.8-.3 5.5-.2 8.2l124.7-87.8 121.8 74.8c3.9-1.2-.5-15-.8-18.2l-26.6-108.1 93.9-79.7zm-442.6-17.3c-9.6-13.8-18.1-28.8-29.4-41.2l-42.7-34.3L850 1065c4.5 9.4 9.7 18.6 14.8 27.7 11.2 20 23.2 39.5 34.6 59.4 23.7 6.4 47.1 13.8 70.3 21.8zm109.6.3 69.6-20.9 49.4-86.6c-33.1 21.6-66 44.1-94.4 71.6zm-428 3c-10.3-1.2-38.4 2.7-46.1-3.4-1.8-1.5-7.1-11.9-8.9-10.6-1.5 1.1-11.9 31-13.3 35.2-4.8 14.9-8.1 30.2-11.5 45.5l8.8 75.2c3.6 0 5.3-5.3 6.3-8.2 5.1-15.5 7.4-34 12-50 .8-2.9 4.4-17.1 6.4-17.7 1.8-.6 19.6 6.7 22.7 8.1L701 1287c.2-4.3 3.9-7.8 0-11.5-29.8-29.3-58.7-59.3-87-90l2.3-1.6zm801-14c-1.8-1.3-6.8 8.5-8.4 10.1-7.3 6.7-36.3 2.9-46.6 4l34.7 7.9 2.3 1.6c-28.3 30.7-57.2 60.7-87 90-3.9 3.8-.2 7.2 0 11.5 31.3-14.2 61-32 93-44.5 1-.4 2.3-.8 3.4-.4 1.9.6 5.5 14.8 6.4 17.7 4.6 16.1 6.9 34.5 12 50 .9 2.9 2.7 8.1 6.3 8.2l8.8-75.2c-3.3-15.3-6.7-30.6-11.5-45.5-1.4-4.2-11.8-34.1-13.3-35.2v-.2Zm-350.1 148.9 6.9-30.3c-.2-.8-9.5-10.3-10.7-11.2-8-5.7-61.9-25.4-71.7-26.4-10.4-1-55.5 16.4-67.1 21.7-8.8 4.1-14.1 8.1-20.1 15.8 1.5 3.8 5.6 30.1 7.4 30.5 21.9-3.6 42.7-14.4 63.6-20.4 11.5-3.2 15.2-3.4 26.8-.2 8.3 2.3 61.4 22.9 64.9 20.5" class="outline" data-original-prefix="outline"/><path id="outline-eyes1" fill="#000000" d="M695 1149c-.5 3.2-1.4 5.1-5.4 4.7-3.2-.3-15.3-6.8-20.6-8.2-6.6-1.8-12.7-2.4-19.3-3.7-9-4.4-3-24.7-1.2-32.8 5.9-27.1 17.7-57.2 32.1-80.9 4.4-7.3 22.4-34.6 30.1-35.8 1.9-.3 5.9 2.7 7.2 1.7.3-.2.5-2.3 1.2-3.3 39.2-53 103.3-104.3 164.2-129.8s154.1-29.8 220.9-17.5c88.6 16.3 169.9 76.6 224.3 146.7.9 1.1 1.4 3.8 1.6 3.9 1.1.8 4.7-2.5 9.2-.7 10.6 4 28.1 32.6 33.9 43.1 9 16.4 17.2 36.5 22.5 54.5 2.8 9.6 10.8 38.7 7.5 47-2.6 6.6-9.8 4.4-14.6 5.4-10.5 2.1-20.7 5.9-30.3 10.7-4-.3-3.8-1.8-4.3-4.8-1-5-.9-10.9-1.6-16 7.3-4.7 15.2-8.3 23.4-11.1 1.2-15.8-7.3-32.2-14-46.2-3.5-7.3-7.7-15.2-11.7-22.3-2.6-4.6-12.2-22.3-15.1-24.9-1.4-1.2-1.7-1.3-3.5-1.5-4.7-.6-14.1-.2-19.1 0-16.1.8-32 3.5-47.5 8 11.2-12.3 27.1-20.9 42-28.1-3.7-19.6-19.7-36.2-34-49.5-46.6-43.4-138.5-93.1-201.7-101.3-80.3-10.4-144.1 5.6-214 43.7-32.5 17.7-93.8 58.5-110.9 91.1-1.5 3-6.6 13.3-4.5 15.5 9 5.4 19.4 10 28 16.1 1.2.9 14.6 11.2 13.1 12.4-21.8-6.9-45.1-8.9-68-7.5-3.8 1.8-26 44.1-29.2 50.8-4.8 10.3-15.4 32.2-12.9 43l22.9 10.8c.5 5.6 0 11.3-.7 16.8" class="outline" data-original-prefix="outline"/></g>
    </g><g class="trait-group" data-category="right ear" id="right ear-battle scars">
      <path id="fill-ear-rt" fill="#ffffff" d="M1711.8 182.1c1.9-.3 12.9 5.8 12.3 9.3l-7.1 128c-11.3 41.5-31.3 85.9-40.4 127.5-4.1 18.5-3.8 39.5-6.6 58.4-.2.8-.7 1.3-1.5 1.6-3.4 1.1-49-18.4-56.8-20.9-3.8-1.2-11.7-4.6-15.1-2.1-.5.4-5.2 8.2-5.3 8.8-.2 2.1 17.9 16.1 20.9 18.8 2.1 2 12.8 12.1 13.5 13.5 1.6 3.5.2 16.4.5 21.5.4 6.7.9 12.6 5 18 5.9 7.7 20.9 15.3 17.2 26.2-13.8 29.6-30.1 57.4-46.4 85.6-10.1 17.4-14.5 29.1-28.3 44.7-18.1 20.4-37.8 39.6-56.6 59.4l-98.9 53.1c-11 23.9-19.3 49.1-29.6 73.4l-92.6 78.5c-5.1 5.1-13.5.6-19.4-1.4-25.1-8.4-50.8-25.1-71.4-41.6-4.9-3.9-14.1-10.7-17.5-15.5-13.1-18.4-20.9-41.3-13.6-63.5 16.8-50.7 49.3-97.5 68.2-147.8 9.2-24.4 7.9-72.1 10.9-100.1 4.3-38.9 11.1-77.8 16.4-116.5l98.4-116.6 142.4-103.6z" class="fill" data-original-prefix="fill"/><path id="shading-ear-rt" fill="#aaaaaa" d="M1599 504.5c0 .5 1.6 1.4 2 2l-1.5.5c-11.4-10.3-23.7-19.4-37-26.9 2.9-11.5.3-23.1.5-34.6.1-10 6.8-25.9-6.9-29.5-.1 3.6-4 8.3-3.9 11.5 0 2.7 3.4 4.9 3.9 9 1.9 16.2-1.6 35.4-.8 51.8 1.7 10 14.9 14.3 22.3 19.7.6 9.7 4.3 21 4.5 30.5.4 13.2-15.2 34.4-17.3 48.8-.3 2.3.5 4.5.3 6.8 12.5-2.5 20.8-17.9 27.4-28.1 4.2-6.5 8.7-13.9 11.6-20.9 1.4.1 1.6 1.5 2 2.5 6.8 15 5 18.4-.3 32.8-12.6 34.1-31.8 70.9-51.7 101.3-15.4 23.6-23.1 31.8-47.1 46.9-29.3 18.5-61.8 33.1-96.9 36.1-9.9 13.4-11.6 31.3-12 47.5 60.5-12.3 110.8-49.8 157.5-88 2.2-1.8 11-10.5 12-11 1.2-.5 1.9.3 1.5 1.5-.6 1.6-10.5 13.3-12.5 15.5-39.7 44.6-83.4 59.4-130.8 91.2-1.9 1.3-8.9 5.9-9.8 7.3-.8 1.2-.3 8.4-1.2 11.8-1.4 5.5-5 11.6-6.7 17.3-3.5 12.1-6.4 42-14 50-1.1 1.1-2.9 1.8-4.1 3-25.2 25.5-52.1 49.3-77.4 74.6l-2.1.9c-16.9-4.5-37.5-4.8-53.9-10-17.7-5.6-57.5-34.9-67.4-50.6-4.1-6.5-7.5-10.1-5.5-18.1 2.3-9.3 35.9-44.2 44.3-54.7 68-84.5 112.9-185.4 139-290.5 1.5-.4 1.7.4 2.5 1 5.5 3.8 10.5 12.2 16.5 16-1-12.4-13.2-22.4-22-30.5-1.8-1.7-12.3-11.1-13.5-11.1l-93.5 64.7.9-12.3c2.8-.8 12.2-9.1 13.1-11.2.7-1.8-6.5-3.8-7.5-5.5l-7.3-4.7c1.2-7.4 0-15.5.8-22.8 1.5-13.2 15.9 1.6 21.7 5.3 3.3 2.1 13 8.8 16.3 7.8l22.4-13.7 24.1-42.9c12-8.8 13.1 0 18.9 7 7.3 8.8 19.1 16.3 26.6 25.4l65.9 13.1c2.2-1.1 14-25.1 15.9-29.2 8.8-19.7 7-29.3 9.2-49.9.8-7.3 1.6-14.8 2.9-22.1 21.8-35.3 43.5-70.9 70.5-102.5 28.3-33 60.7-53 97.2-75.8 1.3-.9 10.4-5.9 11.1-6 3.5-.5 11.5 10.6 14.8 12.9v1.1c-6 15-18 25.2-27.5 37.5-15.8 20.5-31.2 48.3-42.2 71.8-4.1 8.7-12.4 25.9-14.3 34.7-2.3 10.1 6.5 31.6 8.5 42.5l69.3 19.6c4 2.4-.3 9 .7 12.8-4.1 0-8.2.2-12.2-.3-4.9-.6-44.2-8.6-46.2-9.8-1.1-.6-1.2-2.2-2.3-2.9-2.4-1.3-6.5-1-9.2-1 1 6.7-1.4 17.4 0 23.5ZM1329 776h16.5c.4 0 2.3 1 2.5 1.8l9 36.6-26.8 49.9 4.4 5.7 27.5-41c0 1 1.6 7.9 3 7 0-3 4.2-5.6 4.8-7.7 1.6-5.6-6.3-30.1-8.5-37.1-1.3-3.9-4.8-16.5-7.2-18.8-2.1-2-16.6-4-19.6-3.5-1.9.4-6.3 6.3-5.5 7Zm-7.9 188.9c2.2 1.5 9.2-6.1 10-8.5l-6.5-41.5c-8.1-22.6-19.3-45.8-31.4-66.6-1.4-2.4-3-5.7-5.2-7.3l-5.9 13.3c7.1 13.7 19.3 26.2 22.4 41.7.3 1.5.7 2.9.5 4.5-.9 5.1-19.4 24.3-23.4 29.6L1272 966l41.5-38zM1375 911l6.6-9.5c-2.1-7.7-6-16.6-7.4-24.2-1.4-7.7-.6-17.4-3.8-25.2l-4.6 8.4 9.1 50.5Z" class="outline shading" data-original-prefix="shading" opacity="0.5" style="opacity: 0.5"/><path id="outline-ear-rt" fill="#000000" d="M1204 942c-4.2-.7-8.9-3.7-12.7-5.8-19.7-11.4-30-35.7-43.8-53.2-1-2.9-.7-7.3-.5-10.5 1.2-23.6 12.9-37.4 22.2-57.8 5.6-12.4 10.8-31.7 17.6-42.4 2.6-4 7.1-7.8 10-12 38.3-55 42.6-150 46.2-215.8.4-6.6.3-23.8 2.6-28.4 42.9-62.2 88.8-122.3 141.4-176.6 18.3-18.9 33.3-29.6 55.1-43.9 73-47.8 153.8-87.8 236.9-115.1 12-3.9 31.6-10.1 43.8-11.3 6.6-.6 7 0 8.7 5.7 8.6 28.2 2.7 75.6.4 105.5-1.2 16.8-1.1 48.6-7.5 63.5-1.4 3.3-7.7 8.9-10.3 12.7-12.7 18-18.2 41.5-21.9 63.1-2.9 16.7-5.6 39-4.3 55.8.7 8.6 6.2 16.7 6.1 24 0 7.3-4.1 16.3-5.1 23.5-23.2-9.5-47.1-16.6-72-20 2.6 4.6 17.7 13.8 18.8 17.7.8 2.6-.9 4.6-.8 6.8.3 5.9 2.8 28.5 5.1 32.9 1.3 2.5 10.2 10.6 12.9 13.1 2.7 2.6 16 12.8 16 15 0 2.4-9.9 24.1-11.8 28.2-38.7 86.3-81.2 144.4-162.7 194.3-12.3 7.5-25.2 12.8-37.2 19.8-24.8 14.6-38 54.9-48.8 80.2-6.7 15.7-20.4 20.9-32.5 31.5-14.9 13.1-28.1 28.9-42.4 42.6-21 20-57.1 3.6-79.6-6.5-6-2.7-9.7-4.2-13-9.5 7 .5 13 4.1 19.8 5.7 19.2 4.6 30.1 2.7 47.2-6.2 2.7-1.4 17.2-10.3 17.8-12.2-.4-11.3 1.1-23.7.2-34.9-1.1-14.1-12.9-36.3-19.5-49.5-2-3.9-16.2-31.9-18-32-13.4 22.8-27.1 46.5-35 72-3.4 11-6.9 23.7-5.2 35.2.7 5.1 3.8 9.7 4.7 14.8-1.7 1.6-17.8-11.5-20-13.5-4.4-4-9.2-7.6-9.1-14 .1-5.5 2.1-26 4.2-29.8 2.6-4.7 9.2-11.4 12.7-16.3 42.5-61.5 61.2-130.5 109.2-188.8 7.6-9.2 15.4-19.8 20.2-30.8 8.2-18.7 19.6-72.5 16.6-91.9-2.4-15.8-26.1-29.3-36.3-40.7-8.8 19.2-17 34.5-36.6 44.3-13.2 6.6-22.1 5.7-35.1 8.9-8.2 2-15.2 10.1-21.6 15.5-.7 10-2.3 19.9-3.2 29.8-1.9 22.5-1.6 46.7-5.1 68.9-3.1 19.4-25.6 63.3-35 83-14.2 29.4-31.4 55.9-39.8 88.2-2.7 21.7 14.3 52.9 29.9 67.4Zm514-753c-2-2-47.8 16.6-53.3 19.1-68.3 30.5-139.4 73.9-202.2 114.8-52.8 34.5-93.3 70-133.4 118.5-17.4 21.1-39.2 47.3-54.4 69.6-8.3 12.1-10.4 25.6-12.2 40 3.6 1.4 7.4 2.5 10.9 4.1 5.8 2.7 18.7 11.4 23.9 10.7 20-2.7 33.2-23.1 41.9-39.1 1.5-2.8 5.6-13.8 6.1-14.4 1.8-2.1 5.8-.9 8 0 7.4 3.1 20.5 23.4 27.8 30.2 15.8 15 36 25.7 53 39 4 12.5 8.9 24.9 12.5 37.5 2.2 7.8 5.6 31.3 10 36 12.5 13.5 30.2-11.7 35.7-21.4 33.7-58.5 35.6-122.7 20-187.2 22.7-73.6 76.6-122.2 130.4-173.4 5.9-4.6 13.1-6.7 19.4-10.6 11-6.8 19-19 32.1-22.4l-21.2 37.3c-5.8 7.2-14.8 10.5-22.2 15.9-33.3 24.1-60.4 53.8-79.9 90.1-1.4 2.6-8.8 16.7-8.8 18.2 0 3.5 13.2 8.9 14.8 13.2 2.1 17.7 1.2 36 5.7 53.3 1.3 5.1 2 9.5 8.1 10.9 7.5 1.7 17.7 1.9 25.7 3.4 16.7 3 33.1 7.2 49.8 9.7 1.8-18.7.9-37.8 3-56.5 2.7-23.8 11.5-60.6 20-83 6.8-18 16.8-28.7 20.7-48.3 7.5-37.2 11.2-77.4 8.3-115.2Zm-75.2 392.2c-8-6.2-17.7-13.9-18.8-24.7-.6-5.8 0-26.6-2.1-29.9-18.1-17.7-37.4-33.7-58.8-47.3 1.7-13.2.6-26.6.8-39.9.2-10.2 4.9-20.1-7.9-25.5-10.1 33.1-20.7 79-6.5 112 1.2 2.9 6.7 10.6 6.3 12.3-21.1 26.6-32.9 59-41.6 91.5-2.4 8.9-8.5 47.6-11.4 51.6-2.7 3.7-14.2 13.2-18.4 16.6-13.4 10.9-30.6 22-45.8 30.2-2.5 1.4-16.2 9.2-17.7 7.8 3.5-7.6 7.8-14.9 10.8-22.7 8-21.6 9.7-46.5.4-67.9-4.5-10.3-19.2-36.8-31-19.7-7.5 11-16 48.1-17.2 61.8-.5 5.9 1 14.3-.4 19.6-.8 2.7-14.5 12-14.6 15.4 5.2 11.5 11.1 23.1 19 33 1.9 2.3 7.7 6.6 8 9-2.9 11.6-6.2 23.2-7.9 35.1-2.7 19.7-1.9 45.1 2.1 64.6 1.1 5.3 3.6 11.1 6.2 15.8 4.2-8 7.9-16.3 11.2-24.8 1.9-4.8 7.1-16.1 7.8-20.2s-2.2-4.7 2.4-9.5c5.5-5.8 29.5-19.4 37.7-24.3 18-10.7 37.3-19.4 54.6-31.4 49.8-34.7 117.1-125 132-184 .3-1.3 1.3-3.3.5-4.6ZM1277 572l-16-9-3 28c1.7.5 2-.7 3-1.5 1.8-1.4 16.7-16.5 16-17.5m100 227c.6-8 2.7-15.3 1.9-23.4-1.3-13-12.8-29.9-23.2-37.5-1.1.2-13.4 15.4-14.1 17-.6 1.3-.7 2.5-.6 4 5.5 1.1 20.8-.5 24 3.5 5.1 6.3 7.4 26.5 9.9 35.1.4 1.5-.6 1.8 2 1.5Zm-43.3-30.9c-2.2.6-23.3 32.3-26.1 36.9-2 3.2-11.6 19.1-11.5 21.4l36.5 56.5 2.9-2.1 34-51c.4-2.2 1.3-5.2 1.2-7.3-.3-6.2-7.1-26.3-9.4-33.4-1.4-4.4-4.7-17.7-9-19-1.6-.5-17.7-2.3-18.6-2.1ZM1340 946c1.7.5 2-.7 3-1.5 7.1-5.5 26-24 32-31 3-3.4 5.2-7.5 7.8-11.2-7.5-17.2-9.7-35.7-10.8-54.3-1.2 0-1.6 1.4-2.2 2.3-10.4 16.4-20.2 35.2-28.1 52.9z" class="outline" data-original-prefix="outline"/>
    </g><g class="trait-group" data-category="left ear" id="left ear-robo">
      <path id="fill-ear-lft3" fill="#ffffff" d="M570 663c30.7-2.3 65-.8 92.7 13.8 19 10.1 47.5 28.1 59.5 45.5 28.1 40.4 54.9 112.1 71.8 159.2 4.9 13.7 18.7 48.9 16.7 61.8-4.1 27-52.7 38.8-73.5 24.5-66.3-95.2-146-190.2-258.2-231.3-74.9-128.8-125.1-279.4-146.9-427.1-5.3-35.8-9.6-72.1-9.2-108.3 5.5 4.3 9.9 9.8 15 14.5 28.6 26.4 60.4 52.7 87 81 18.7 19.8 26 39.1 36.4 63.6 41.9 98.6 78.9 194.5 108.1 297.9.5 1.7.5 3.3.5 5h.1Z" class="fill" data-original-prefix="fill"/><path id="fill-ear-lft2" fill="#ffffff" d="M647.7 372.1c1.9-.3 8.3 5.6 10.3 7.4 37.4 33.1 77.7 78.5 106.8 119.2 9.4 13.1 41.1 59.8 40.8 73.7 0 4.9-3.4 12.8-4.3 18.5-7 41.8-3.8 106.1 10 146.5 4.7 13.8 12.8 26.5 18.2 39.8s9.4 27.5 15 41c9.9 23.6 22 46.3 32.6 69.5 0 3.7-1.8 6.7-3.2 9.9-3.6 7.7-17.2 34.9-21.9 40.1-2.9 3.2-11.8 9.8-15.7 12.3-7.4 4.8-16.4 8.3-23.8 13.2l25.1-40c.9-3.2-6.4-20.6-8.1-25-17.9-44.5-42.2-92.2-63.6-135.4-9.3-18.7-24.7-55.8-39.9-68.1-6.9-5.6-16-9.6-23.4-14.6-16.3-11-32.1-22.8-48.8-33.2-15.6-3.3-49.2 4.2-60.7-8.3-3.6-3.9-9.1-16.2-11.5-21.5-8.5-19-15-39.8-22.8-59.2-13.1-32.5-26.6-64.9-39.6-97.5-.3-2.7 5-6.3 7.4-8.2 14.7-12.2 33.3-25 49.2-35.8q34.8-24 72-44.1v-.2Zm.1 12.1c-7.6.4-18.4 7-20.3 14.7-4.1 16 9.4 23.2 23.2 18.2 19.3-7 17.5-34-2.9-33Zm115.9 335c-14.2 2.4-10.1 26.4 1.3 31.3 26.3 11.2 27-36-1.3-31.3m53 82.1c-12.9-11-27.5 1.3-22.1 16.6 1.8 5.3 5 11.4 10.5 13.5 16.3 6.3 26.1-10.2 17.4-23.4-.5-.7-5.2-6.2-5.8-6.7m24 72.9c-11.1 2.3-9.9 16.7-5.9 24.5 5.3 10.3 20.4 15.4 27.7 4.2 8.6-13.2-6.5-31.9-21.7-28.7Z" class="fill" data-original-prefix="fill"/><path id="fill-ear-lft1" fill="#ffffff" d="M631.9 358.9c-34.3 21.6-67.6 45-99.8 69.7-5.7 4.4-11.9 10.5-17.6 14.4-.8.6-1 1.4-2.5 1-16.9-38.3-28.9-79.7-45.5-118-11.5-26.4-24-36.6-44.5-55.5-31.3-28.9-64.1-56.3-96-84.5 44.5 13.2 88.6 29.1 130.7 48.8 63.3 29.7 119.8 77.5 174.4 120.6zm-108.1 36.3c-25.4 2-19.5 44.4 6.1 28.2 14.1-8.9 10.3-29.5-6.1-28.2" class="fill" data-original-prefix="fill"/><path id="fill-ear-lft-rivet5" fill="#ffffff" d="M841.2 881.2c2.8-3.5 11.9 1.1 12.7 6.3 2.4 15.4-14.9 12.3-14.6 1.1 0-.9 1.6-7 1.9-7.4" class="fill" data-original-prefix="fill"/><path id="fill-ear-lft-rivet4" fill="#ffffff" d="M807.8 805.2c7.9-1.2 13.7 8.2 8.1 14.2-9.1 9.7-23.6-11.9-8.1-14.2" class="fill" data-original-prefix="fill"/><path id="fill-ear-lft-rivet3" fill="#ffffff" d="M775.7 740.7c-7.3 5.9-18.9-8.3-11.3-13.8 6.9-4.9 18.2 8.2 11.3 13.8" class="fill" data-original-prefix="fill"/><path id="fill-ear-lft-rivet2" fill="#ffffff" d="M642.7 396.2c9.6-2.9 13 8.7 4.3 11.3-13.4 4.1-9.8-9.7-4.3-11.3" class="fill" data-original-prefix="fill"/><path id="fill-ear-lft-rivet1" fill="#ffffff" d="M526.8 407.2c5.3 5.4-3.2 15.1-9.5 8.5-5.2-5.4 4.6-13.4 9.5-8.5" class="fill" data-original-prefix="fill"/><path id="shading-ear-lft" fill="#aaaaaa" d="M520.2 411.8c1 1 10.3 2.4 11.7 1.8 2.9-1.2 11.2-8.9 14.8-11.3 20.7-14.6 42.5-30.6 63.6-44.4 3.4-2.2 14.8-10.5 18-9.6 1.7.5 3.9 4 5.8 5.3 5.6 3.8 11.8 7.1 17.9 10.1-9.7 6.7-20.6 11.3-30.7 17.3-23.1 13.7-44.1 30.5-65.8 46.2-1 1-2.2 1.3-1 3 .5.8 9.5 5.2 11.4 6.6 9.3 6.3 18.7 14.4 27.6 21.4 64.9 51.8 125.8 108.5 191 160l13.5-72c3.7 4.8 9.3 14.3 10 20.5 1.2 10.6-2.4 17.3-3.9 27.1-6.6 44.4-3.3 107.4 13.4 149.3 4 10 9.9 19.2 14 29 6.2 15.1 10.8 31.3 17.3 46.7 9.6 22.6 21.7 44.1 31.2 66.8 0 2.9.2 5.7-.5 8.6-1.1 4.1-19.5 39.4-22.5 43.5s-11.6 10.9-16.1 13.9c-18.5 12.7-39.4 20.8-61.7 24.3-11.4 1.8-33.6 2.8-43.2-4.3-68.4-94.4-146-191.3-259.8-231.7-53.4-90.2-90.6-189.4-118-290.5-16.9-62.3-30.7-130.3-36.3-194.7-.6-6.8-4.1-53.6-2-55.5.3-.3 2.7.4 3.8-.2 1.3-.8.3-4.3 5.5-3.6 11.1 4.8 23.9 7.5 34.3 13.8 39.3 23.7 76 63.2 111.5 92.5l43.5 98.5c1.2 3.1-.6 9.5 1.7 11.8zm-166.9-64.1L454 420.5c-6.8-18-11-35.7-23-51-10.7-13.6-27.7-29.3-40.5-41.5-14.6-14-30.3-27-45-41-2.3-.4-1.4.8-1.2 2.2.2 2.2.6 4.8.9 7.1.9 6.8 6.2 48.9 8.1 51.4M361 390c3.9 19.7 7.5 39.7 12.5 58.9l113 77c-2.7-19-10-37.1-15.5-55.5-34.8-25.8-69.6-54.4-105.7-78.3-1.4-.9-2.5-2.5-4.3-2.2Zm419 301c-.6-8.2-1.3-16.3-1-24.5.2-6.2 4-24.3.6-28.5L548 464.1c5.7 24.5 12.9 48.7 20.3 72.7L780 691.1ZM414 535c22.5 61 50.5 119.7 78 178.5 59.4 35.6 120.6 68 179.5 104.5-14.2-28.7-30.4-57.6-50.1-82.9-10.8-13.8-24.4-25.9-37.9-37.1-8.9-7.3-27.4-18.5-34-26-5.7-6.3-9.6-21.7-15-30s-14.7-17.2-21.9-24.1c-27.7-26.8-60.8-53.8-91-78-1-.8-6.8-5.8-7.5-5Zm363 200c1.9-8.4-16.8-13.8-13.8-3.7 1.6 5.5 9.5 4.8 13.8 3.7m35.4 63.6c-8.4-13-12-37.6-19.6-51.9-12-12-9.5 1.3-11.8 9.7-1 3.6-4.2 8.7-7.6 10.4-2.6 1.3-8 .4-7.4 2.6l21 47.5c2.2 1.6 5-7.5 9.4-7 .6 0 .6 1.7 1.2 2 3.6 2.1 6.7-.4 8.3.4 2.4 1.2 6 10.7 12.4 6.5 9-6-3.4-16.2-6-20.3ZM826 833c-2.6-.5-1.5.5-2.1 1.4-6.3 10.5-13.2 16-25.9 10.6-1.3 1.5 7.8 21.9 9 25.5 2.5 7.1 8.9 32.3 12.9 36.1 8.8 8.3 9.2-13.4 12.1-15.5.5-.3 3.1 1 4.5 1 2.5 0 4.1-1.9 6-2 2.3-.2 4 1.4 6.1 1.7 1 0 3-1 3.3-.7.3.2.4 6.1 2.5 7 6.4-5.2 2.9-15.9-3.8-19.2-1.9-.9-4.3-.8-6.1-1.9-5.3-3.4-15.3-36.3-18.6-43.9Z" class="outline shading" data-original-prefix="shading" opacity="0.5" style="opacity: 0.5"/><path id="shading-ear-lft2" fill="#aaaaaa" d="M637.6 400.4c.2.1.4 1.1 1.2 1.5 9.2 4.4 15.6 1.7 25.2 3.1 3.5 11.4-13.5 27.2-24 24.5-9.5-2.4-16.7-15.4-14.8-24.8.2-1.1 3.1-6.8 3.8-7.3 2.2-1.4 6.5 1.9 8.6 3" class="outline shading" data-original-prefix="shading" opacity="0.5" style="opacity: 0.5"/><path id="outline-ear-lft" fill="#000000" d="M312.1 163.1c3-2.5 42.9 6.4 49.3 8C512.1 208 635.1 309.1 735.5 423c29.7 33.6 58 70.7 80.3 109.7 3.2 5.6 14 24 15 29 .6 2.9-5.2 26.5-5.8 32.8-6.3 64.6 7.8 142.2 38.8 199.2 6.2 11.4 30.5 45.7 32.1 54.9 1 5.9 3 30.9 1.6 35.5-12 18.1-24.5 59.3-41.2 71.8-5.8 4.3-43.1 24.1-49.8 26.2-16.7 5.4-37.4 4.2-54.2 10.9-13-2.5-25.8-7.7-38.7-11.1-2.9-1.9-3.6-6.4-5.5-9.5-43.9-76.1-140-177.5-221.2-212.8-5-2.2-18.4-5.6-21.3-7.7-3.2-2.2-15.1-21.6-17.8-26.2-64.6-112.1-114-265.2-131.7-393.3-6.6-47.5-13-106.2-7-153.7.7-5.2 2.1-10.4 3-15.5Zm319.8 195.8-.8-3.5c-54.6-43.1-111.1-90.9-174.4-120.6-42-19.7-86.2-35.6-130.7-48.8 31.9 28.2 64.8 55.6 96 84.5 20.5 18.9 33 29.2 44.5 55.5 16.7 38.2 28.6 79.6 45.5 118 1.5.4 1.7-.4 2.5-1 5.7-3.9 11.9-10 17.6-14.4 32.2-24.7 65.5-48.1 99.8-69.7M570 663c0-1.7 0-3.4-.5-5-29.2-103.4-66.1-199.3-108.1-297.9-10.4-24.5-17.8-43.7-36.4-63.6-26.6-28.2-58.4-54.6-87-81-5.1-4.7-9.5-10.2-15-14.5-.4 36.3 3.9 72.5 9.2 108.3 21.8 147.8 72 298.3 146.9 427.1 112.2 41.1 192 136.1 258.2 231.3 20.8 14.3 69.4 2.5 73.5-24.5 2-12.9-11.8-48.1-16.7-61.8-16.9-47.1-43.7-118.8-71.8-159.2-12.1-17.4-40.6-35.4-59.5-45.5-27.6-14.6-62-16.1-92.7-13.8h-.1Zm77.7-290.9q-37.2 20.1-72 44.1c-15.8 10.9-34.5 23.7-49.2 35.8-2.3 1.9-7.7 5.5-7.4 8.2 13 32.6 26.5 65 39.6 97.5 7.8 19.4 14.3 40.2 22.8 59.2 2.4 5.4 7.8 17.6 11.5 21.5 11.5 12.4 45.2 5 60.7 8.3 16.7 10.5 32.4 22.3 48.8 33.2 7.4 5 16.5 9 23.4 14.6 15.2 12.3 30.7 49.4 39.9 68.1 21.5 43.2 45.7 90.8 63.6 135.4 1.8 4.4 9 21.7 8.1 25l-25.1 40c7.5-4.8 16.5-8.3 23.8-13.2 3.9-2.5 12.8-9.1 15.7-12.3 4.7-5.2 18.3-32.4 21.9-40.1 1.5-3.2 3.2-6.2 3.2-9.9-10.6-23.3-22.7-45.9-32.6-69.5-5.6-13.5-9.6-27.7-15-41s-13.6-26-18.2-39.8c-13.7-40.3-17-104.6-10-146.5.9-5.6 4.2-13.5 4.3-18.5.3-13.9-31.5-60.6-40.8-73.7-29.1-40.7-69.4-86.1-106.8-119.2-2-1.7-8.4-7.6-10.3-7.4v.2Z" class="outline" data-original-prefix="outline"/><path id="outline-ear-lft5" fill="#000000" d="M840.7 874.2c15.3-3.2 30.3 15.5 21.7 28.7-7.3 11.2-22.3 6.1-27.7-4.2-4-7.8-5.2-22.2 5.9-24.5Zm.5 7c-.3.4-1.9 6.6-1.9 7.4-.3 11.2 17.1 14.3 14.6-1.1-.8-5.2-9.9-9.8-12.7-6.3" class="outline" data-original-prefix="outline"/><path id="outline-ear-lft4" fill="#000000" d="M816.7 801.3c.6.5 5.3 6 5.8 6.7 8.6 13.3-1.2 29.8-17.4 23.4-5.5-2.1-8.7-8.2-10.5-13.5-5.3-15.4 9.2-27.6 22.1-16.6m-8.9 3.9c-15.5 2.3-1 23.9 8.1 14.2 5.6-6-.2-15.3-8.1-14.2" class="outline" data-original-prefix="outline"/><path id="outline-ear-lft3" fill="#000000" d="M763.7 719.2c28.2-4.8 27.6 42.5 1.3 31.3-11.3-4.8-15.4-28.8-1.3-31.3m12 21.5c6.9-5.6-4.4-18.6-11.3-13.8-7.7 5.4 4 19.7 11.3 13.8" class="outline" data-original-prefix="outline"/><path id="outline-ear-lft2" fill="#000000" d="M647.8 384.2c20.4-1.1 22.2 26 2.9 33-13.9 5-27.3-2.3-23.2-18.2 2-7.7 12.7-14.3 20.3-14.7Zm-5.1 12c-5.4 1.6-9.1 15.5 4.3 11.3 8.6-2.6 5.3-14.2-4.3-11.3" class="outline" data-original-prefix="outline"/><path id="outline-ear-lft1" fill="#000000" d="M523.8 395.2c16.4-1.3 20.2 19.3 6.1 28.2-25.6 16.2-31.5-26.2-6.1-28.2m3 12c-4.8-4.9-14.7 3.1-9.5 8.5 6.3 6.6 14.8-3.1 9.5-8.5" class="outline" data-original-prefix="outline"/>
    </g><g class="trait-group" data-category="head" id="head-hawker">
      <path id="fill-head" fill="#ffffff" d="M914 448.5c.2 1.7 1.9 5.4 3 7 3.1 4.5 28.3 28.7 33.1 31.9 8.2 5.6 13.6-2.2 20-7.9 9.1-8.2 17.3-18.4 26.5-26.5 31.3-27.3 66.7-49.1 105.8-63.2 1.2-.5 2.2-1.1 3.7-.8l-35.8 89.7c.4 15.7-1 34.3.8 49.8 2.5 21.8 29.6-1.4 41-1.5v17.5c0 3.8 5.1 9.7 9.2 9.3 4.5-.4 26.5-16 27.7-14.8 0 1.3.3 2.5.8 3.7 3.7 8.1 12.2 30.9 16.8 36.2 1 1.2 3.3 2.4 4.8 3.2 4.7 2.6 27.9 12.7 32.4 13.6 8 1.5 39.6-9.4 41.3-7.8l3.2 103.3 23.7 47.2-22.9 64.2c0 15 11.8 11.2 21.9 9.4-1.9 13.3-3.9 26.8-6.5 40-2.1 10.7-6.9 38.7-11 47s-16.9 19.1-22.4 27.6c-10 15.5-15.4 36.8-25.2 52.8-27.2 16.6-51.5 37.2-77.6 55.4-15.3 10.7-39 28-55 36s-35.9 14.4-43.3 15.7c-33.2 6.1-48.3-16.5-75.4-26.7-14.2-5.4-32.8-7.1-47.7-12.3-8.8-3.1-35.8-15.2-42.5-20.5-8.3-6.4-16.9-21.4-25-29-20.6-19.5-33.7-20.2-49.7-48.3-13.9-24.3-25.8-48.8-27.8-77.2-1.5-21.4 1.6-43.9 10.5-63.5 3.9-8.6 13 7.3 18.8 7.8 5.7-4.6 13.6-7.8 13.7-16.3 0-3.5-2.7-15.5-4.3-18.8-5.3-10.9-23.2-24.2-28.6-34.4-5.1-9.5 2-32.8 3.7-44 4.2-28.8 6.6-53.7 6.2-82.9 0-3.5-2.9-21.3 3.4-21.4 4.9 0 12.4 6.9 17.9-.2 4.5-5.8 8.2-39.8 10.9-50 3.8-14.2 11-27.5 14.7-41.8 2.4-2.1 11.3 11.3 18.5 1l29-79c12-16 24.2-32.2 37.5-47v66.5z" class="fill" data-original-prefix="fill"/><path id="shading-head" fill="#aaaaaa" d="M1060 548c1.7 1.7 41.6-10.6 47.6-11.1 7.1.2 7.3 14.6 8.4 20.1 7.7.3 22.5-11.2 29.3-8.8s6.1 16.5 8.7 20.3c10.1 15.5 47.5 28.9 65 34 4 1.1 9.7 2.9 13.6 3.5 5.5.7 7.9-2.8 12.8 4.1 6.7 9.5 5.6 47.9 2.5 59.4-1 3.9-5.2 11.5-4.9 15 .2 2.9 8.7 17.9 10.5 22.6 8.2 21.5 11.5 48.8 5.2 71.2-3.2 11.4-9.8 21.3-12.7 32.8 10.1-3.2 19.9 1.5 21 12.5-4.8 16.4-5.1 38.3-11.2 53.8-10.4 26.4-29.4 47.3-38.1 76.9-2.3 7.8-4.1 25.3-7.7 30.3-1.9 2.6-7.7 7.2-10.5 9.5-11.6 9.7-39 29.5-52.5 34.5-8.8 3.3-13.8 2.6-21.5 9.5-4.9 4.5-3.6 8.8-7.1 13.9-5.7 8.3-17.4 21.5-26.4 25.6-28.3 12.7-55.1 25.5-86.3 12.3-1.5-.6-4.3-1.6-5.3-2.7-3.1-3.4-4.1-14.6-2.5-19.1-5.5 1.8-10.5 4.2-16.5 4.1-6.6-.2-14.2-3.7-21-4-7.7-.4-15.7 1.5-24 1-18.9-1.2-34.5-6-49.4-17.6-4.3-3.3-6.6-8.3-10.8-11.2-6-4.2-15-6.2-21-10-3.4-2.1-6.4-5.7-10-8-4.8-3.2-11.2-5-15.3-7.7-7.5-5-14.7-23.7-19.6-31.4-11-17.2-24.7-32.4-32.4-51.6-2.3-5.6-12.9-34.1-13-38-.2-13.3 10.3-1 14.3 1.7 2 1.3 15.5 7.9 16.7 6.8-2.6-7.1-6.1-15-6.9-22.6-1-9.1 1.3-18.7-1.4-27.6-2-6.4-7.5-11.9-10.2-17.8-1.6-3.5-7.4-19.6-8.1-23-.2-1.2-.5-2.2-.4-3.5 1.4-14.9 20.1 9.6 23 10.9s4-.7 5-3.1c2-5.2 8-28 8.1-33 .2-6.5-6.1-9.3-10-14-15.1-18-17.1-30.8-18.1-53.9-.3-8.7-.7-20.6 0-29.1.5-6.5 3.5-12.9 4-19 .8-8-1.3-16.6-1-25 .4-10.6 2.9-22 3.2-32.8.3-.9 9.9-8.5 11.1-9 2.8-1.1 5.1 1 6.2-.7 3.7-11 4.6-23.9 8.3-34.7 2.8-8.3 9.6-22.2 13.8-30.2 1.4-2.7 12.3-21 13.4-21.7 1.9-1.2 4 .3 5.4 1.6.9.9 11.7 17 12.1 18 1.7 4.8-3.8 8.5-6.3 12.6-10.2 17-24 56.3-23.2 75.8.9 22.1 6.1 45.8 7 68 0 3 .7 10.1-.9 12.1-5.3 6.9-10.3-9-11.6-12.6-2.2-6.2-6.4-25.7-10.6-29.4-1-1-2.4-1.7-3.9-1.6-2.7 12.6-4.9 25.6-6 38.5-.7 8-2.6 30.9-.2 37.2.6 1.7 2.7 3.7 3.7 5.3l35.3 34.6-13.5 50.2c-1.5 12.4-3.1 25.1-2.3 37.7 0 2.2 1 11.3 1.5 12.5.7 1.6 5 4.6 6.5 6.5 9 11.6 13.8 27.2 30 29.5-.9-10.5 2.3-20.8 6-30.5.9-2.4 1.8-6.1 4-7.5 0 7.9 13.2 48.4 18 51.5 1.8 1.2 4.5-2.3 5.6-3.5 6.6-7.9 9.6-20.1 11.5-30l11 24c.9-5.7-4.9-19-1.5-23 1.2-1.4 3.5-1.8 5-3 7-6.1 16.7-42.5 17.5-52.5.5-6.5-.5-13.3 0-19.9 1-10.5 8.4-18.7 5.4-29.7-3.8-6.7-9.9-40.4-13.6-44-.6-.5-2.7-.2-2 1.5l-10 49.5c-7.4-25.5-3.8-52.2-6-78.4-7-3.2-12.6-3-17.3-9.9-9.4-14-11.8-27-12.8-43.7l-13.8 44.7c.2 5.6-.7 14.7-7.7 15.3-14.2 1.4-8-26.9-9.8-35.4-.7-3.3-5-8.4-6.5-12.5-7.9-21-2.4-52.2 6-72.5.7-1.8 5.3-12.2 5.8-12.7 2.5-2.5 2.2 6.4 3 7 .3.2 5.3-3.1 7.9.6 1.8 2.5 1.6 22.5 4.6 22.4 9.5-13.2 18.2-27.8 31-38 4.7-3.8 11-8.9 11.5 1l9-5c-6.8 18.4-11.5 37.4-7 57 7.6-9.3 15.8-19 28-22 .9 4.2-1.1 8.7-1 12.4.2 12.9 9.2 50.9 17.5 60.6 1.8 2 3.7 3.6 6 5-1.7-15.5.2-30.7 2.5-46 2.7-.4 1.5.2 2 1.5 4 10.9 5.6 24.8 9 36.1.3 1.1.4 3.1 2 1.5s5.2-14.7 5.7-16.8c1.8-7.3 2-14.8 3.3-22.2 5.8 6.1 7.9 14.8 11 22.5.5 1.2-.8 1.9 2 1.5l7.2-29.4c.5-1.7 2.8-1.3 3.6-1.9 1.9-1.6-.8-5 5.5-3.5 13.5 3.1 28.3 22.4 38.2 31.8l16.5 14c-1.8-9-.2-18.2-1.3-27.2-1.5-12.5-10.2-25-11.7-37.8 1.9-.4 2.4 1.1 3.5 2 19.8 16.3 19 27.2 26.5 49.5.4 1.1.6 3.6 2 3.5 5.6-34.7 8.9-71.5-.9-105.6-1.5-1.1-29.9 5.8-34.6 5.6-1.4 0-5.3-1.4-6.2-2.3-1.5-1.6-1.9-17.8-2.5-22-1.6-10.5-6.3-22.9-6.8-33.2-1.1-25.2 16.3-73.1 32.5-92.6 2.9-3.4 6.8-6.4 9.5-10-2.5.5-5.3 1.7-7.5 3-15.8 8.7-40.1 25.4-54.4 36.6-8 6.3-36.3 32.5-41.1 39.9-2.1 3.3-3.5 9.1-5.8 13.2-5.2 9.2-12.6 18.7-16.7 28.4-4.9 11.5-6.3 24.2-10 36-2.7 0-1.1-35.7-1.5-39.6-.5-4.9-6-14.9-9-19-7.8-10.1-34.2-26.7-36.8-38.2-1.7-7.7-1.1-23.5 0-31.5.4-3 2.3-5.8 2.7-8.3 1.1-7.6-1.6-16.2 2.6-23.5 1.5.4 4.5-4 5.5-3s1.7 5.2 1.8 5.7c1.2 7.7-1.5 18.9-.7 27.8 2.3 26.6 22.1 40.4 41.5 55.5 2.4 0 33.9-24.6 38-28 20.5-17.5 34.6-31.1 58-46 10.7-6.8 29.9-19.5 42.1-20.9 8-.9 10.3 6.3 7.6 12.7-1 2.5-11.5 12.4-14.2 15.8-14 17.2-25 43.4-29.7 65.3-4.3 19.6 1.8 33.5 4.7 52.7.3 2.1-.2 4.4 0 6.5v.2Zm142 387c10.7-14.4 24-31.3 28.5-49 6.1-23.7-2.1-31.4-6.9-52.2-3.1-13.1 0-23.6-.6-36.4-.4-7.3-2.4-15.5-3-22.9 1.6-5.8 7.8-7.4 10.8-12.2 5.8-9.1 3.6-24.3 2-34.7-1.7-11.3-9-24.8-9-36.1s8.2-22.1 9.1-32c.5-5.1-1-29.1-3.5-32.4-1.6-2.2-10.5-2.7-14.2-3.8-25.2-7.4-51.9-15.2-66.7-38.3l-9.6-18.9c-2.7 13.4-3.8 26.7-1.9 40.4 2.8 19.9 11.7 37 15.6 56.4 2.8 13.9 3.7 29.3 6.7 43.3l1.5 1c3.3-7.2 8.8-21.9 14-27.5 2-2.2 19.8-11.7 21-10.5-4.5 9.7-12.4 16.6-10.9 28.4 1.7 13.3 21.8 23.1 22.9 33.1 1.5 12.9-1.9 28.8-10.9 38.3l-13.1 39.2c-2.3.5-1.6-.3-2.2-1.3-1.3-2-2.3-5.6-3-8-4.1-13.2-5.4-28.5-9-42-.3-.9-1.5-2.5-2.4-2.7-4.6-.7-17.5 27.5-23.4 30-.2-11.9-3.4-23.2-5.7-34.8-2.1-10.5-2.4-20.5-8.3-30.2-1.4 0-1.6 1.5-2 2.5-9.9 19.5-13.7 37.2-30.9 53.1-5.3 4.9-12.4 6.8-19.5 5.4-8.1-1.5-6.8-20.8-7.8-27.2 0-.9-.4-3-1.7-2.7-5.6 22.2-14.3 54.4 8.5 70 8.2 5.6 11.5.2 12.6 13.5 2.9 37-2.6 77.5-11.9 113.2-1.7 6.6-4.4 12.8-6.1 19.4 17-7.8 28.9-21.2 36.2-38.3l22.8-56.7c1.6.2 1.9 4.3 2 5.5 1.4 17.5-3.3 40.2-5 58-.7 7 .3 14.4-2 21.5l11.5-7c16.4-18.8 35.5-37.2 43.8-61.2 6.4-18.8 10.4-40.3 16.4-59.5 2.8-8.8 6-17.8 9.8-26.2 2.4 10-1.3 21.8-.5 31.5.9 10.7 8.4 22.3 5 35l-9 66.5zm-138.2-80.9c-16.2-6.2-28.6-25.6-32.6-41.9-3.1-12.9-1.8-26.8-6.8-39.2-8.4 13.9-22.1 21.9-34 32-11.1 9.4-28.7 25.5-30.4 40.6-.8 6.8 0 12.3-1.4 19.6-2.7 13.3-9.4 28.8-10.7 42.3-.6 6.5-.2 35.9 4 40 1.4 1.4 1.7.7 2.3-.8 2.4-5.7 1-14.4 1.8-20.3.2-1.4.6-3 2-1.5.4.4 2.4 9.3 2.7 10.8.8 3.9.7 8.6 1.6 12.4.2 1 .4 3 1.7 2.8-.2-4.9 2.8-9.9 3-14.5.2-3.8-1.2-7.1-1.1-11 .2-11.5 4-24.3 8.1-35 .6-1.5 1.4-5 3-5.5-1.4 28.1 1.9 55 8.3 82.2l3.7 7.8c-.2-7.3 1.9-15.4 2.1-22.5.3-12.2-.3-24.6 1-37 .7-7.1 3.7-13.6 5-20.5 1.7-.2.9 2.3 1 3.5.2 5.5.2 11.6 0 17.1 0 4.6-1.8 9.1-1 14 .6 4 7.5-1.4 9-3 7.1-7.7 12.3-22.9 19.2-30.8.9-1 1-2.1 2.8-1.7l-2.9 52.4c1.5 6.5 1.2 13.4 2 20 .2 1.5.5 6.1 1.9 6.6 14.8-38.5 28.9-77.8 34.9-118.8h-.2ZM915.5 914v1c.7-.3.7-.7 0-1" class="outline shading" data-original-prefix="shading" opacity="0.5" style="opacity: 0.5"/><path id="outline-head" fill="#000000" d="M1279.5 805c.4 0 1.8 1.5 1.3 2.3-8.8 26.2-11 55.3-18.1 81.9-7.3 26.9-40.6 46.1-46.3 77.7-.7 4 .4 11.6-2 14-1.4 1.5-11.7 5.3-14.8 7.2-13.8 8.2-27.9 20.9-41.8 30.2-17.5 11.8-34.4 21.5-51.4 34.6-5.6 4.3-11.2 10.9-17.2 14.8-12.6 8.1-53.4 24.4-67.9 25.2-28.3 1.6-36.5-13.9-57.2-25.8-15.4-8.9-27.8-5.4-43.3-9.7-10.1-2.8-20.3-10.5-30.4-13.6-4.5-1.4-11.1-1.4-14.8-3.2-4.2-2-12.3-15.5-16.2-19.8-4.5-5-11.3-11.2-16.5-15.5-11-9.1-32.7-20.3-41-29.3-5.4-5.8-27.5-42.5-31.2-50.5-19.5-43.1-11.7-88.6-13.8-133.2 0-2.9-5.3-26.2 3.5-19.5 7.1 8.9 12.8 20.4 20 29 1.6 1.8 3.7 2.8 5.5 4.5 3.9 3.9 4.4 10 10.4 2.5 10.6-13.2 0-30.3-9.4-40.5-6.5-6.9-18.7-12-19.9-22.1-2.3-18.3 7.5-45.1 9.8-64 3.3-27.9 1.4-53.6-.6-81.2-.3-5.1-2.2-15.3 5.1-14.2 2.8.4 15.7 14.3 19.1 9.1 1.7-2.6 1.9-21.9 2.6-26.4 1.5-10.8 4.3-24.1 7.4-34.6 3.9-13.3 10-25.7 18-37l11.9 11.1c6.2 3.3 4.1-4.4 4.8-8.3 8.9-47.4 27.5-82.9 59.2-118.8 2-2.3 14.6-16 16-16 .3 12-2.9 24.4-3.5 36.5-.8 16.3-2.7 43.6 8 56.1l31.6 27.5 1.3-.2c42.8-48.1 96.1-89.5 159.1-106.8.3 1.5-.3 2.4-.9 3.6-3.3 6.9-8.9 14.4-12.6 21.4-20.1 38.9-38.2 88.4-24.4 132 2.7 1.9 34.8-14.5 39.9-16l2 29c1.6 1.7 22.7-14 26.3-15.2 1.6-.5 3.1-1.5 4.8-.3 1.2.8 7.9 23.2 9.8 27.3 10.7 22.8 33.2 32.4 57.7 31.3 12.1-.5 23-7 34.5-10 5.8 24 5.6 48.9 5.1 73.5-.3 13.7-4.2 31.3-.5 44.5 3.5 12.4 10.4 23.6 16 35 2.7 5.4 4.3 7.5 2.5 13.6-4.8 16-17.9 37.2-20.6 52.4-.2 1.2-.6 4 1.1 4 4.9 0 18.5-1 22 0Zm-341 247c7.9 1.2 18.3-.9 26.5 0 1.5-4-1.5-4.8-1.9-5.8-6.7-17.2-15.5-33-19.6-51.2-6.1-26.9-9.1-62.8-10.5-90.5-.7-12.9 2.9-24.4 4-37 1.4-15.7 0-49.1 7.2-61.8 3-5.3 10.6-11.6 12.1-16.9 4.9-17-11.8-45.1-16.8-61.8-5.3-17.5-7-37.1-11-55-1.4-1.8-1.4-.3-2.3.7-11.9 12.7-17.1 31.3-13.2 48.3-2.4 3.3-17.8-7-19.8-9.6-3-3.9-12.1-28.2-12.1-32.9V664c-1.7.4-2.2 2.3-2.8 3.7-23.2 55.7-18.2 138.1-6.9 196.5 1.2 6.2 4.4 13.1 4.7 19.3 0 2-.2 1.6-2 1.5-3.8-11.8-9.7-23.4-13.3-35.2-12.2-40.2-17.2-102.7-9.2-143.8 1.1-5.6 6.9-21.7 6.5-25.5 0-1.3-7.8-13.5-9.2-16.9-8.8-21.6-8.8-50.7 4.2-70.7 2.6 0 0 3.9 0 4.5v27c0 5.2 6.9 22.2 10.6 26.4 3.9 4.5 2.8 1.4 4.6-1.2 13-18.9 21-42.5 40.8-55.7-2.6 12.1-8 23.7-10.7 35.8-4.7 20.9-6.4 40.6 1.7 60.7.5 1.2-.8 1.9 2 1.5 1.5-6.6 3.8-14.7 6.5-21s7.6-11.5 10-17c5.9-13.7 9.5-26 17.3-39.7.9-1.6 1.8-4.9 4.2-4.3-3.1 13.2-7 23.6-6 37.5.5 6.8 3 11.9 3.9 18.1 1.1 7.3 1 15.1 2.4 22.6 5.4 29 21.1 57.3 33.3 83.8 1.2.2 2-.5 3-1 4.2-2.1 17.7-24 20.6-29.4 18.3-34 8.2-75 10.9-112.2l-3-33.5c4.8 6.8 9.5 15.9 12.8 23.6 7.1 16.3 14.9 41 19.7 58.3 8 29.2 7.8 61.4 10.5 91.5.9 9.7 3.3 19.4 4 29 1.3 17.4-5.5 27.1 16.8 31.2 3.8.7 14.5 0 15.2 3.8-2.8 48.6-10.2 98.8-24.7 145.3-4.2 13.3-18.4 47.8-28.8 56.2-1.1.9-1.6 2.4-3.5 2 2.1-5.4 2.7-17.9 5-22.3.5-1 4.3-1 6.5-3.7 5.2-6.5 12.9-39.3 15.1-49 6.2-27.8 17.2-80.5 13.5-107.6-.6-4.6-9.8-9.2-13.5-12.5-19.1-17-12.2-27.6-13.5-50.5-2-34.6-3.8-76.4-12.3-109.7-1.7-6.9-3.5-14.3-8.2-19.8-.4 10.5 2 22.1 1.5 32.5-.7 15-3.2 35.8-5.1 50.9-1 7.7-5 27.4-7.8 34.2-1 2.3-2 2.8-3.8 4.2-18.9 14.8-52.5 17.4-53.2 48.8-.4 17.4 1.9 27.9-1.6 46.4-4.6 24.7-6.3 39.8-5.6 65.5.9 31.3 4 45.9 16.9 74.1 8.4 18.4 11.1 24.5 25.1 37.9 7.3 7 19.9 20.3 29.8 22.2 21.4 4.1 78.1-23.8 88.4-43.1 8.1-15.2 9.2-34.8 10.8-51.7 1.8.4 1.9 2 2 3.5 1.4 12.4-.9 27-1 39.5 14.1-14 26.6-30.5 37-47.5 24.7-40.3 43.8-86.4 50-133.5l3.9 8.5c-.9 7.6 4.4 14.8-2.5 20.4-4.9 20.9-8.7 42.3-15.2 62.8-6.1 19.2-18.6 34.2-28.4 51.6-1.7 3-12 21.1-10.8 22.7 10.5-5.5 18.1-14.9 27-22.5 6.4-5.5 17.8-11.7 22.4-18.5 6.4-9.4 12.2-27.4 18.4-38.6 8.1-14.6 25.1-34.5 30.6-48.4 3.6-9 7.8-31.5 9.3-41.7.9-5.7 1.4-11.5 1.3-17.2-2-2-23.7 5.3-28 4.5 1.7-7.6 4.4-15 6.6-22.5 5.2-18.5 15.1-45.9 13.4-64.5s-12.4-36.6-18.9-54c5.9-20.2 10.2-42.9 8.9-64-.2-2.4-1.1-12-2.6-12.4-.8-.2-12 3.5-15.1 3.8-26.3 2.5-67.9-15.1-80.1-39.7-1.5-3.1-5.5-17.2-6.2-17.8-1.2-.9-1.9-.4-3 0-2.7 1.2-11.7 8.9-12.1 11.9-1.5 11.1 1.9 37.2 4.3 48.8 2.7 12.6 9.2 22.8 13.2 34.8 7.3 21.7 7.9 45.4 13.8 67.2 1 3.7 4.7 12.1 8 5.5 2.2-4.5 3.2-16.8 5-23 3.9-12.8 12.2-29.8 24.7-35.8-.9 5.7-5.4 10.1-6.7 15.8-4.5 18.3 2.4 43.2 7.2 61.3 2.8 10.3 7.1 13.7 5.3 26.2-.7 4.8-7.6 25.5-9.7 30.3-.7 1.5-1 2.8-3.1 2.4-3.7-13.8-.7-26.8-1-40.5 0-4.2-.6-11.8-1.1-15.9-1.1-7.9-7-17.3-7.9-25.6-4.7 0-2.6 6.6-3.2 10.2-.5 2.5-2.1 8.9-3.3 10.7-1.9 2.8-5.8 2.9-7.9 5.1-1.4 1.5-7 19.5-10.6 16-5.3-32-9.2-64.2-16.7-95.8l-5.2-13.2c-.8 6.4-.3 14.2-1.1 20.4-2.8 21-14.9 80.6-26.4 96.6-3.9 5.3-7.3 6.7-13.9 6.1-15.3-1.4-7.4-11-7.4-21.5s-2.7-23.9-4.2-33.8c-2.8-17.6-6.7-35-12.8-51.7 1.1-1.2 4.7 3.2 5.4 4.1 6.5 8 11.9 23.9 15.1 33.9s5.1 25 9 34c.5 1.1 1.9 4.2 3.5 3 1.1-.8 5.2-14.1 5.9-16.6 11.8-42.3 12.9-76.2 9.1-119.9-1.8-20.2-5.1-40.5-8-60.5-14.3 4.2-27.2 12.9-43.1 9.6-2.8-1.9.2-21.6 0-26-.2-8.7-4.8-19-4.9-26.9-.5-24.5 10.3-62 23.1-82.9 1.7-2.8 12.5-15.8 10.8-17.7-10.1 1.9-16.2 9.1-24.1 14.4-47.2 31.4-86.6 63.6-116.1 112.9-4.7 7.9-9.4 16.1-12.8 24.7-1.8-.7-1.1-5.9-1-7.5.2-3.6.6-9.5 1.2-12.8 1.2-7 10-27.5 8.7-31.9-.3-.9-3.4-4.7-4.3-5.7-7.3-8.4-18.4-15.1-25.2-22.4s-11.2-28.7-11.4-39.2c0-4 2.3-22.7 1-24.5-2.9 1.1-4.2 3.2-5.9 5.5-20.7 28.3-33.7 70-34.1 104.9 0 10.3 1.4 21.3 2 31.5-2.3 2.1-19.7-10.6-22.5-13-2.5-2.2-7.2-10-10.9-8.9-.2 0-3.5 3.5-3.6 3.7-6.3 15.6-14.5 50.4-12 66.6.6 4 5 8.6 6.5 13.5 5.3 18.3 9.2 49.5 9.5 68.5.3 13.6-1.3 27-1.1 40.5-1.5.2-1.2-1.9-1.5-3-2.8-12.5-6-25.2-8.2-37.8-2.7-15.2-2.7-33.5-8.3-47.7-4.3-11.1-13.9-20.9-22-29.5 1.2 6.7.3 13.7 1.1 20.4 1.6 14 5.1 22.4 3.9 38.1-1.1 14.7-8.1 28.9-10.7 43.3-.9 4.8-2.8 19.4-2.3 23.8 1 8.5 11.6 16.2 16.5 22.5 5.5 7.2 9.8 16.5 15.6 23.4 1.4 1.7 6.9 5.8 7 6.2.8 3.2-5.2 20.5-6.3 25.5-3.4 15.1-8.4 57.3-2.9 70.6 1.1 2.6 7.4 7.7 8 10 1.3 4.3-.7 9.2-.6 12.8 1.2 29.9 30.4 88.8 50.8 111 1.9 2.1 7.2 7.6 9.5 8.5 2.1.8 1.6-2.2 1.5-3.5-1.2-18.6-4.4-39.1.2-57.7.2-1 .3-3 1.7-2.8 0 20.1-.8 45.7 10.2 63.3 8.5 13.6 28.5 26.4 44.3 28.7zM786.1 833c-4.5-8.1-9.7-16.2-16.1-23 1.2 13.3-1.4 27.4-1 40.5.7 24.1 6.2 65.7 23 84 1.3 1.4 5.5 5.6 6 2 1.3-10.1-1.9-21.2-4-31 0-.9 1.9-.6 2-.5.3.2 3.8 5.5 4.2 6.3 8.1 14.3 5.6 31.9 11.9 47.1 4 9.6 12.4 19.2 21.8 23.6-9.2-23.6-18.8-47.3-22.9-72.6-.6-3.4.5-7-.6-10.4-1.5-4.8-11.4-8-12.4-12.7 2.5-15.6-.5-31.2-.2-46.8 0-5.1 2-11 1-16.5-3.7 4.9-6.3 8.8-12.9 10z" class="outline" data-original-prefix="outline"/>
    </g>
</svg>