<?xml version="1.0" encoding="UTF-8"?>
<svg xmlns="http://www.w3.org/2000/svg" viewBox="0 0 2048 2048">
  <style>
      .outline { fill: #000000; }
      .fill { fill: #FFFFFF; }
      .shading { fill: #aaaaaa; opacity: 0.5; }
    </style>
  <g class="trait-group" data-category="background" id="background-yellow">
      <path class="color" id="color-yellow" d="M2048,0v2048H0V0h2048Z" style="fill: #ddb305" fill="#ddb305"/>
    </g><g class="trait-group" data-category="jaw" id="jaw-doom-raider-mask">
      <path id="fill-jaw-main" fill="#ffffff" d="m637.2 1237.2 8.7-.3c13.5-36.6 25-74.9 39.3-111.1 40.9-102.9 149.2-171.1 251.8-201.2 96.8-28.5 178.1-7.9 265 37 60.9 31.4 126.9 87.1 155.2 150.8 8.4 18.9 7.3 37.3 13.6 53.4 7.2 18.6 28.3 46.1 38.7 65.3 15.6 28.9 30.5 61.7 44.3 91.7 1.6 3.4 9.1 18.6 8.9 20.7-26.3 40.9-55.4 79.9-82.8 120.1-25.7 22.3-52.4 43.6-77.4 66.6-10 22.3-16.2 46.5-26.5 68.5-40.4 24.2-79.2 55.9-120 79-37.8 21.3-82.4 35.7-121 56l-20.5.4-115.6-51.4c-45.5-28.4-92.8-54.2-138-83l-27.6-71.4-61.4-52.6-83.8-134.3c-.6-1.5 0-2.8.2-4.3 1.6-6.1 8.7-18.8 11.7-25.3 11.6-25.2 25.5-49.3 37-74.5h.2Z" class="fill" data-original-prefix="fill"/><path id="fill-jaw5" fill="#ffffff" d="M1353 1472c.3 1.4.2 1.3-.6 2.1-2.5 2.4-7.8 5.4-10.8 7.9-10.1 8.4-42.1 34.1-47.4 43.6-10.7 19.7-16.2 47.3-25.4 68.1l-39.1 20.4-58.7 38.8c20.2-48.3 28.3-100.5 36-152 1.4-1.4 10.5 6 16 3.5 25.4-22.1 55.1-38.7 85.8-52.3 15.6 3.6 29.6 13.3 44.2 19.9" class="fill" data-original-prefix="fill"/><path id="fill-jaw4" fill="#ffffff" d="M1337 1303c17.3-4.2 26.8-13.8 38-26.5 10.3-11.7 19.5-24.5 29.5-36.5 15.8 21.7 28.9 48.5 38.3 73.7 2.3 6.1 7.3 19.2 8.1 25 .2 1.9 0 2.2-.7 3.8-2.5 5.3-11.1 14.5-14.9 20.1-9.7 14-20.1 28.6-29 43-9 14.6-18.7 37.6-28.8 50.2-3 3.8-10.2 4.3-11.3.4-.6-2.2 13.9-36.1 15.9-41.8 1.7-4.7 8.4-21.2 7.8-24.8-.8-4.6-9.6-20.7-12.3-25.8-9-16.6-20.8-33.7-32.1-48.9-1.3-1.7-9.7-10.6-8.4-12.1v.2Z" class="fill" data-original-prefix="fill"/><path id="fill-jaw3" fill="#ffffff" d="M711 1303c.7.8-1.9 4-2.6 4.9-11.5 16.1-23.2 30.5-33.2 47.8-3.8 6.6-16 27.9-17 34.1-.6 3.6 7.9 25.6 9.8 30.8 4.4 12 10 23.8 13.9 35.8-6.4 5.8-9.5 2.2-13.3-3.4-10.5-15.6-19.1-34.6-29.2-50.8-8.2-13.2-17.8-26.6-26.6-39.4-3.9-5.6-12.4-14.8-14.9-20.1-.8-1.6-1-1.9-.7-3.8.8-6.2 5.7-18.7 8.1-25 9.6-25.7 22.5-50.4 36.8-73.8l2.4 1.1c9 11.5 17.9 23.4 27.6 34.4 11.3 12.9 21.3 23.6 39 27.5Z" class="fill" data-original-prefix="fill"/><path id="fill-jaw2" fill="#ffffff" d="M841 1501c7.2 51.6 16.2 103.4 35.5 152-31.8-20.5-62-43.8-97-59l-26-69c-16-16.8-34-32.2-52-47-2.1-1.7-8-4.2-5.8-6.1 2-1.8 13.4-7.5 16.7-9.1 4.1-2.1 22.8-10.9 25.9-10.6 31.6 12.9 62 30.9 87.8 53.3 3 2 13.5-6.1 15-4.5z" class="fill" data-original-prefix="fill"/><path id="fill-jaw1" fill="#ffffff" d="M846 1457c-9.4 1.7-24.2 21.3-32.4 21.1-3.7 0-14.6-4.8-18.5-6.6-11.7-5.2-24.9-13.3-36-20.1-5.3-3.2-20.9-15.6-25.7-16.4-3-.5-12.8 1.8-16 2.9-4.2 1.4-26.5 13.6-28.4 12-2.2-17.5-17.1-36.8-12.1-54.5 4.5-16.1 33.4-52.4 45.5-65.5 2.4-2.6 13.9-14.7 16.1-15 1.6-.3 3 .2 4.5.5 12.5 2.5 27.7 8.8 40.7 12.3 27.9 7.4 55.9 13.4 84.6 16.9 22.7-11.5 45.5-22.8 69-32.8 48.7-20.8 80.7-34.3 134.2-15.8 36.9 12.8 73.1 31.7 108.1 48.7 44-5.4 86.9-16.7 128.9-30.3 4.5.4 28.7 29.4 32.9 34.7 9.2 11.7 19.5 25.6 26.1 38.9 4.6 9.2 6 13.9 3.4 24.5l-13.4 38.5c-8.4-3.8-18.3-10.2-27-13-2.9-1-13.4-3.3-16-2.9-4.8.8-25.2 16.2-31.3 19.8-10.7 6.4-24.5 14.6-36 19-3.2 1.2-10.8 4.4-13.8 4.3-6.3-.2-20.6-16.3-28.1-19.9-1-.5-2.2-1.8-3.3-.7-8.5 54.2-15.6 108.7-31.7 161.3-2.8 9.2-8.5 29.8-12.8 37.2-2.3 3.9-32.3 32.9-36.5 35.5-11.1 6.6-43 19.6-55.9 24.1-8.3 2.9-32.6 9.3-40.6 9.4-7.2 0-32.2-6.3-39.9-8.9-12.8-4.2-53.9-21.4-63-29-5.2-4.3-28.6-27.1-31.3-31.7-3.1-5.3-7.2-19.9-9.4-26.6-18.3-55.7-26-113.9-34.8-171.8Z" class="fill" data-original-prefix="fill"/><path id="shading-jaw1" fill="#aaaaaa" d="M1278 1304c.5 1.8 5.6-.4 6.8-.8 16.4-4.8 50.7-16.4 63.7-26.3 12.3-9.2 23.4-45.9 32.7-60.3 2.3-3.5 4.1-6.2 8.8-6.7 0 1.4 0 2.8-.2 4.3-1.8 8.2-7.7 21.7-11 30s-14.4 36.4-19.8 41.2c-3.5 3.1-22.8 10-19.5 16.5 1.1 2.2 11.8 12.2 14.5 15.6 10.3 12.7 18.4 26.9 27.7 40.4 25.3-5.7 50.8-12.9 73.8-24.9l1.1 4-73.1 127.9c-18.1 13.1-38.3 23.5-55.9 37.1l-50 98c-26.9 17.7-58.7 32.4-84.5 51.5-17.4 12.9-36.6 35-54.2 45.8-20.2 12.5-48.9 21.8-70.4 32.6l-92.5-.5c-20.4-12.1-46.2-19.8-66.3-31.7-19-11.3-39.6-35.5-59-49.1-25-17.6-54.1-32.4-80.5-48l-49.8-98.7c-17.4-13.3-37.2-23.2-54.4-36.6l-76-128 2.4-4.4c23.1 11.8 48.5 19.2 73.8 24.8 10.5-16.1 20.6-32.3 33.2-46.9 2.8-3.2 9-6.9 8.3-11.2-1.4-8.8-16.4-9.6-22-18.1-7.5-11.3-17.8-38.9-22.5-52.4-1-2.8-6.5-17.8-5.2-19.2 6.4.5 9.4 8.2 12.2 13.3 5.9 11.2 10.3 23.4 16.3 34.7 2.4 4.6 7.8 14.9 11.3 18 4.7 4 18.1 9.8 24.3 12.4 14.5 6.2 29.8 11.2 45 15.5-16.4-12.2-34.8-21.6-50-35.5-18.3-16.7-19.6-34.6-30.5-55.5-5.2-10.1-12.3-19.1-18.3-28.7-1.8-6.8 5.4-21.6 6.5-29 2.8-19.1 3.8-27.8 12.1-45.9 42.8-94 156.1-156.3 251.2-184.8 55.5-16.7 109-17.9 165-2 99 28.1 225.1 96.5 262.8 198.2 5.1 13.9 5.1 20.8 7.5 34.5 1.2 7.1 7.8 22.1 6.7 28.2-.6 3.4-14.5 22.1-17.5 27.5-11.3 21-13 40.9-31.5 57.5-15.3 13.8-35 25.6-53 35.5v.2Zm-200 23c-5.5-11.1-10.5-24.8-17.6-34.9-4.2-6.1-10.2-10.5-14.9-16.1-3.4-4-15.2-20.5-18.4-21.6-1.9-.6-4.4-.8-6.3-.2-2.4.7-15.7 18.7-18.7 22.3s-7.4 6.8-10.5 10.5c-9.4 11.2-15.1 26.9-21.5 40h108Zm-309.5-23v1c.7-.3.7-.7 0-1m68.5 40c-31.5-5.4-62.3-14.5-92.5-25-4.9-1.7-27.1-11.3-30-11s-12 13.5-14.3 16.7c-3.2 4.4-25.2 35.5-25.2 37.8s9.4 13.2 10.2 17.3c32.5 5.7 63.8 16 95.1 26 4.2-.8 6.5-2.9 9.2-5.8 9.8-10.1 18.8-24.6 28.5-35.5 4.9-5.5 14.2-12.6 18-18 .6-.8 1.4-1 1-2.5m525.8 35.8c.4-4.4 10.8-15.1 10.1-18.1-5.5-6.9-33.4-52.2-38.6-53.6-1.1-.3-2.2 0-3.3.3-38.7 15.6-78.8 28.3-119.9 35.6-.4 1.5.4 1.7 1 2.5 4.5 6.6 16.4 16.4 22.5 23.5 7.8 9 15.1 20.7 23 29 3 3.2 5.7 6 10.3 6.8 31.2-10.1 62.6-20.3 95.1-26zM720 1472c-.4 1.7.5 2 1.5 3 9 8.8 25.2 15.4 33.5 25.5s18.5 37.1 27.1 44.9c3 2.7 10.5 6 14.5 8.6 13.2 8.8 26.3 18.2 39.5 26.6l3.8-5.9-28.3-64.7c-11-6.6-68.3-43.6-76.8-42.8-1.4 0-14.3 4.2-14.8 4.8m608 0c-5.2-.6-13.1-5.9-18-4.6-24.8 13.7-50.3 26.3-73.5 42.6l-27.8 63.3c-1.3 2.2 2.5 8.4 5 7 9.7-7.4 19.7-14.5 29.8-21.3 5.5-3.7 18.6-10 22.5-13.5 8.1-7.4 18.5-33.8 26.1-43.9 7.6-10.3 25.5-17.8 34.5-26.5 1-.9 1.9-1.3 1.5-3Zm-194 173c-2.1-.2-3.8 0-5.7.8-24.5 9.4-50.2 38.1-77.1 42.9-17.9 3.2-50.3 3.7-67.2-3.2-20-8.2-44-31.6-64.3-39.7-1.5-.6-6.2-2.2-5.7.7 1.2 7.7 10.9 21 16 27 6.2 7.3 8.1 8.8 16.3 13.7 30.2 18.1 49.5 27.8 86.2 25.9 21.1-1.1 31-5.5 49.1-14.9 19.5-10.1 34-17.7 45.7-37.3 1.2-2 7.5-15 6.6-15.9z" class="outline shading" data-original-prefix="shading" opacity="0.5" style="opacity: 0.5"/><path id="outline-jaw1" fill="#000000" d="M685 1126c.2 0 1 1.5 2.2 2.2 4.7 2.7 8.7.5 9.7 8.4.6 5.1-2.7 26.3-4.4 31.4-2.8 8.6-17 13.5-21 21-1.2 2.3-7.8 31.1-7.5 33.3.4 3.4 9.5 19 11.8 23.3 4.4 8.2 15.3 29.4 20.7 35.3 9.5 10.3 60.5 26.3 75.9 31.1 29.2 9 59.3 17.4 90 18 29.3-10.7 57.9-23.1 87.2-33.8 16.6-6 42.9-17.7 59.8-17.3 21.9.5 35-1 56.2 5.8 39.5 12.7 77.8 29.4 116.4 44.6 46.7-.8 99.9-16.6 143.1-34.6 5.7-2.4 21.2-9 25.2-12.8 4.6-4.5 15-24.5 18.7-31.3 2.7-4.9 14.7-25.5 14.9-29.2 0-1.7-6.8-30.9-7.6-32.4-3.6-6.8-19-13.6-21.2-20.8-1.7-5.6-5-27.5-4.2-32.7 1-6.5 5.7-5.1 9.7-7.3 1.2-.7 2.1-2.1 2.2-2.2 2.3-1.2 6.9-4.1 9.1-2.6 2.4 1.7.2 26 1.4 30.6 6.9 5 22.7 5.9 26 14 1.1 9.9.5 20.6 1.6 30.4.3 2.9 1 10.8 2.2 12.8 1 1.8 3.1 2.2 4.3 3.7 26.6 31.1 46.5 67.2 61.9 105.1 2.3 5.6 7.6 17.3 8.3 22.7.2 1.4.3 2.7-.6 3.9-24.7 33.2-47.1 68.3-68 104-2.9 4.9-18.6 36-20.4 37.1-3.5 2-13.7-4.6-17.5-3.1-10.9 9.5-22.5 18.2-33.3 27.8-4.6 4-16.5 13.5-19.4 17.6-5 7.1-14.8 34.1-18.3 43.7-4.2 11.1-7.7 22.4-11.3 33.7-32.1 13.9-63.4 31.2-92.5 50.5-20.4 13.5-36.7 25.2-52.5 43.5-9.8 11.4-37.1 18.8-51.9 25.1-22.8 9.6-45.2 20.4-68.5 28.3l-111.2-45.6c-6.9-2.5-9.5-12.1-13.6-15.9-1-.9-2.9-1.1-4.2-2.3-38-35.4-88.6-61.7-135.5-83.5-7.9-26.5-18.8-52-29.6-77.4-17.4-15.7-35.2-31-53.5-45.5-3.5-1.2-13.5 6.1-17.5 2.5-26.4-48.4-54.7-96.1-87.7-140.3-.8-1.3-.8-2.5-.6-3.9.7-5.4 6.1-17.1 8.3-22.7 14-34.4 31.7-67.2 54.5-96.5 8.8-11.4 12.5-9.5 14-26 .9-9.8 0-20.6 1.5-30.5 4.2-7.9 25.3-7.7 26.5-16.5.5-3.9-1.1-7.1-1-10.1 0-5.3 2-11.7 1-17.5 3.8-.6 6.8 1.5 10 3h.2Zm26 177c-17.7-4-27.7-14.6-39-27.5-9.7-11-18.5-22.9-27.6-34.4l-2.4-1.1c-14.2 23.4-27.2 48-36.8 73.8-2.4 6.3-7.3 18.9-8.1 25-.2 1.9 0 2.2.7 3.8 2.5 5.3 11 14.5 14.9 20.1 8.8 12.8 18.4 26.2 26.6 39.4 10.1 16.2 18.6 35.2 29.2 50.8 3.8 5.6 6.9 9.3 13.3 3.4-3.9-12-9.5-23.8-13.9-35.8-1.9-5.2-10.4-27.1-9.8-30.8 1-6.2 13.2-27.5 17-34.1 10-17.3 21.8-31.7 33.2-47.8.7-.9 3.3-4.1 2.6-4.9Zm626 0c-1.3 1.4 7.1 10.4 8.4 12.1 11.3 15.2 23.1 32.3 32.1 48.9 2.8 5.1 11.5 21.2 12.3 25.8.6 3.5-6.1 20.1-7.8 24.8-2 5.7-16.5 39.7-15.9 41.8 1.1 3.9 8.3 3.4 11.3-.4 10.1-12.7 19.7-35.6 28.8-50.2 8.9-14.4 19.3-29 29-43 3.9-5.6 12.4-14.8 14.9-20.1.8-1.6 1-1.9.7-3.8-.8-5.8-5.8-19-8.1-25-9.4-25.2-22.5-52-38.3-73.7-10 12-19.2 24.7-29.5 36.5-11.2 12.7-20.7 22.3-38 26.5v-.2Zm-491 154c8.7 57.8 16.5 116.1 34.8 171.8 2.2 6.6 6.3 21.3 9.4 26.6 2.7 4.6 26.2 27.4 31.3 31.7 9.1 7.6 50.2 24.8 63 29 7.7 2.6 32.8 9 39.9 8.9 8-.2 32.3-6.6 40.6-9.4 12.9-4.5 44.9-17.4 55.9-24.1 4.2-2.5 34.2-31.6 36.5-35.5 4.4-7.4 10-28 12.8-37.2 16.2-52.6 23.2-107.1 31.7-161.3 1.1-1.1 2.3.2 3.3.7 7.5 3.5 21.8 19.7 28.1 19.9 3 0 10.6-3.1 13.8-4.3 11.5-4.4 25.3-12.6 36-19 6.1-3.6 26.4-19.1 31.3-19.8 2.6-.4 13 2 16 2.9 8.6 2.8 18.6 9.2 27 13l13.4-38.5c2.5-10.5 1.2-15.2-3.4-24.5-6.6-13.3-16.9-27.2-26.1-38.9-4.2-5.3-28.4-34.3-32.9-34.7-42 13.6-84.9 24.9-128.9 30.3-35-17-71.2-35.9-108.1-48.7-53.5-18.5-85.5-4.9-134.2 15.8-23.5 10-46.2 21.3-69 32.8-28.7-3.5-56.7-9.6-84.6-16.9-13-3.4-28.2-9.8-40.7-12.3-1.5-.3-2.9-.7-4.5-.5-2.1.3-13.7 12.4-16.1 15-12.1 13-41 49.3-45.5 65.5-5 17.8 9.9 37 12.1 54.5 1.9 1.6 24.2-10.6 28.4-12 3.2-1.1 13-3.4 16-2.9 4.8.8 20.3 13.2 25.7 16.4 11 6.7 24.3 14.8 36 20.1 3.9 1.8 14.8 6.5 18.5 6.6 8.2.2 23-19.4 32.4-21.1Zm-5 44c-1.5-1.6-11.9 6.6-15 4.5-25.7-22.4-56.2-40.4-87.8-53.3-3.1-.3-21.8 8.5-25.9 10.6-3.3 1.6-14.7 7.3-16.7 9.1-2.1 1.9 3.8 4.4 5.8 6.1 18 14.8 36 30.2 52 47l26 69c35 15.1 65.2 38.4 97 59-19.3-48.5-28.3-100.3-35.5-152zm512-29c-14.7-6.6-28.6-16.2-44.2-19.9-30.7 13.7-60.4 30.3-85.8 52.3-5.5 2.5-14.6-4.9-16-3.5-7.7 51.5-15.8 103.7-36 152l58.7-38.8 39.1-20.4c9.2-20.8 14.7-48.4 25.4-68.1 5.2-9.6 37.2-35.2 47.4-43.6 3.1-2.6 8.3-5.6 10.8-7.9.8-.8.9-.7.6-2.1" class="outline" data-original-prefix="outline"/>
    </g><g class="trait-group" data-category="mouth" id="mouth-scrappy">
      <path id="fill-muzzle" fill="#ffffff" d="M1038 1292s-.4 1.7.7 2c10.3 2.8 18 4.3 25.8 13 1.9 2.2 4.9 8.8 6.5 9.5 2.6 1.2 6.6 0 9.5.5 11.4 1.5 21.2 3.7 31.2 9.8 2.1 1.3 9.2 7.8 10.2 7.1.3-.3 0-1.7 0-1.9 2.4-1.8 32.7.6 38 1 5.2 4.2 13.2 5.5 19.2 8.3 13.7 6.4 22.5 16.1 29.9 29.1 8.4 14.6 7.7 17.8 3.1 33.4-2.5 8.5-4.8 21.8-16.3 20.2 1.5-15.5-14.8-32.4-26.5-41-3.2-2.4-11.3-7.2-6 0 10.8 14.7 20.2 14.8 21.5 37.5.6 10.3-8.4 32.9-15.4 40.5-.6.7-7.1 6.3-7.6 6.5-3 1.6-6.9-6.1-7.8-8.2-3.6-7.8-4.7-15.5-9.7-23.3-1.1-1.7-10.8-13.7-12.4-12.1 5.6 13 9 46.2-2.5 56-4.4 3.7-9.4 1.9-13.3 3.7-2.8 1.3-3 5.7-4.8 6.1s-7-3.1-9.4-3.5c-8.9-1.3-13.2 17-18.7 17.5-2.5.2-10.7-11.9-18.4-9.4-7 2.2-15.4 21.2-24.4 23.6-6.3-6-3.4-14-5.8-21.2-1.2-3.5-4.2-6.7-5.8-10.2-5.4-12.7-2.8-19.9-.2-32.2.6-3 0-5.9.9-9.1.2-.7 6.3-12.3 6.9-13.1 3.7-5.4 19.2-12.4 22.7-3.8.9 2.2 0 8.7 2.2 7.7 5.1-4.9 10.2-9.9 15.5-14.5 11.5-10 14.1-9.7 21.2-24.8 1.5-3.3 6.5-14.5 6.6-17.3 0-3.4-9.2-14.7-11.8-17.8-1.4-1.7-9.5-11.5-10.2-11.8-6.4-3.2-28-2.3-34.7.8-7.9 3.6-12.5 12-19 17-1 .8-1.3 1.9-3 1.5l.8-12.7c3.6-4.3 21.7-23.3 21.1-27.5-.4-2.6-11.3-13.4-12.9-11.7 4.4 12.8.7 8.7-7.3 12.2-1.2.5-2.9 2.7-3.2 2.7s-2-2.2-3.2-2.7c-3.4-1.5-9.7-.4-9.3-5.6 0-1.1 4.1-7.6.5-6.6-2.8.8-12 9.9-11.3 13.2 0 .6 4 7 4.8 8 1.5 2 5 5.9 7 8.3 3.2 3.9 9.7 7.6 9.9 13.1 0 1.6-.8 3.1-.8 4.8s2.6 8.1-2.5 3.6c-6.2-5.3-10.2-13.6-18.5-17.5-6.5-3-30.3-4.3-35.7-.2-.8.6-8.8 10.5-10.2 12.2-2.4 3-10.9 13.7-10.8 16.8.2 5.4 11.7 29 15.7 33.2 3 3.2 9.3 6.8 13 9.9 5 4.3 9.7 9.1 14.5 13.5l4.2-11.1c4.9-3.1 17.7 2.6 20.8 7.1 1 1.5 5.1 9.9 6 11.9 2.8 6.4 5.1 25.4 4.4 32.4-1.1 10-7.9 15-9.4 22.6-1.3 6.4 1.1 14.9-5.8 18.9-8.1-2.6-17.3-21.5-23.6-23.5-8.2-2.6-15.9 9.6-18.4 9.4-5.3-.4-8.7-14-13.9-16.1-6.9-2.8-11.5 2.7-14.1 2.1-1.8-.4-2-4.8-4.8-6.1-4.5-2-9.6.3-14.3-4.7-10.9-11.5-6.5-42.2-1.5-56.1-9.1 6.7-14.1 14.8-18.5 25-1.6 3.6-2 7.5-3.7 11.3-1 2.1-4.9 9.8-7.8 8.2-.4-.2-6.9-5.9-7.5-6.5-3.9-4.3-13.8-24.4-15-30-2.8-12.9 1.4-26.5 9.5-36.5 4.1-5.1 11.3-9 13-15.5-2.4-2.4-22.3 17.4-24.4 20.1-5.4 6.8-11 15.9-9.6 24.9-8.3.5-10.7-3.3-13.3-10.2-2.7-7.1-7.8-22.8-6.2-29.8 3.7-16.2 21.4-35.8 36.3-42.7 6.2-2.9 13.9-4.1 19.2-8.3 12.5-.8 24.5-2.3 37-1 0 0 .7 2.1.5 3 9.5-8.2 20.6-14.8 33.1-16.9 4.7-.8 14.8-.4 18.1-1.8 1.6-.7 5.2-7.7 7.2-9.9 8-8.4 15.2-9.7 25.4-12.5 1.1-.3.6-1.9.7-2 1.1-.7 25.9-.7 27 0v.2Z" class="fill" data-original-prefix="fill"/><path id="fill-teeth14" fill="#ffffff" d="M1039.1 1601.9c-.8-.5-7.2-15.4-7.9-17.6-4.2-13.6-7-37.9-1.5-51.1 5.8-13.9 10.8-1 20-5 1.9-.8 7.6-6.8 9.2-8.8 2.6-3 3.6-9.1 8-8 12.8 3.1 21.1 24.2 22 36.1 2.3 30.4-23.4 40.7-45.2 53.7-1.2.5-3.6 1.3-4.6.6Z" class="fill" data-original-prefix="fill"/><path id="fill-teeth13" fill="#ffffff" d="M1015.7 1527.3c10.2 8.9 6 44.1 2.3 56.2-1.9 6.4-6 12-8.1 18.3h-2.3c-12.1-7.1-26.3-12.4-36.1-22.9-9.1-9.8-12.3-17.9-11.5-31.5.8-11.8 9-32.3 21.2-35.9 4.8-1.4 5.7 4.5 8.2 7.4 1.8 2.1 8.3 8.8 10.5 9.5 6 1.9 12.5-4.1 15.8-1.3z" class="fill" data-original-prefix="fill"/><path id="fill-teeth12" fill="#ffffff" d="M904 1461c0 2.2-1.1 3.8-.8 6.2s7.4 22.5 8.8 24c3.7 4.1 11.1 2.3 15.9 2.9 4.9 13.5-4.3 23.9-8.6 35.6-2 5.3-8.4 33.1-12.8 34.3-3.3.8-11.7-18-12.8-21.2-6.8-20.9-8.8-51.8 1.8-71.7.6-1.2 7.1-11.6 8.4-10.1Z" class="fill" data-original-prefix="fill"/><path id="fill-teeth11" fill="#ffffff" d="M1144 1564c-1 .7-1.8-.4-2.4-1.1-5.8-5.8-8.7-24.8-11.8-33.2-4.3-11.7-13.8-21.9-8.6-35.6 18.6 2.9 18.2-8.8 23.1-22.4l2.2-9.8c10.2 11.1 15.2 27.6 14.6 42.5-.5 13.7-3.2 35.3-9.5 47.5-.8 1.5-6.9 11.6-7.5 12Z" class="fill" data-original-prefix="fill"/><path id="fill-teeth10" fill="#ffffff" d="M949 1569c5.5 22.1 11.4 45.4 9 68.5-.5 5-1.3 9.2-7 6.9-3.4-1.3-17.5-13.4-19.5-16.5-7.4-11.8.3-39.7 8-50.8 1.2-1.7 7-10.1 9.4-8.1Z" class="fill" data-original-prefix="fill"/><path id="fill-teeth9" fill="#ffffff" d="M1100 1569c3.4-2.9 13.3 14.1 14.5 17 4.8 11.7 9.3 33.5 1 44-2.1 2.7-18.5 16.5-20.9 15.9-1.9-.4-3.4-6.5-3.6-8.4-1-8.7 0-26 1-35 1.1-10.9 6.5-22.5 8-33.5" class="fill" data-original-prefix="fill"/><path id="fill-teeth8" fill="#ffffff" d="M1167 1547c.9-6.7-1-15-.6-21.3.3-6.3 3.7-14.6 3.6-21.2 0-5.7-4.8-19.5-4-24 .5-2.9 3.5-2.8 5.5-4.5 6.2-5.3 10.4-15.8 16.9-4.9 14.2 23.5-1 56.5-18.4 74.4-.9 1-1.3 1.9-3 1.5" class="fill" data-original-prefix="fill"/><path id="fill-teeth7" fill="#ffffff" d="M881.7 1478.3c3.3 2.9-2.8 21-2.8 26.2s2.6 12.6 3.1 18c.7 8 0 16.5-.5 24.5-1.8 0-11.7-13.3-13.3-15.7-11.2-16.8-20.3-43.7-7-61.7 6.2-8.4 9.7.9 14 4.7 2 1.9 5.7 3 6.6 3.9Z" class="fill" data-original-prefix="fill"/><path id="fill-teeth6" fill="#ffffff" d="M1018 1613v16.5c0 .9-10.8 13.2-11.9 14.1-6.3 4.8-8-2.6-10.6-5.5-5.5-6-17.9-.4-24.4-5.6-.9-.7-4.1-8.3-4.1-8.9v-24.5c12.3 3 28.7 18.5 41.4 16.9 3.5-.4 6.1-3 9.6-2.9Z" class="fill" data-original-prefix="fill"/><path id="fill-teeth5" fill="#ffffff" d="M1102.5 1494c3.3-.8 5.3 8.5 6.3 10.7 5 10.5 15.3 30.3 11.4 42.1-2.2 6.7-15.6 23.4-20.4 11-4-10.4-4.1-44.7-1.1-55.5.4-1.6 2.4-7.9 3.8-8.2Z" class="fill" data-original-prefix="fill"/><path id="fill-teeth4" fill="#ffffff" d="M917 1563c-1.6 13.5 2.8 27.4 2 40.5-.5 8.8-4.2 18.6-5.5 27.5-5.8-5.6-10.5-15.7-11.4-23.6-.6-5.2.7-25.8 2.4-30.3.6-1.6 10.5-16.2 12.4-14.1Z" class="fill" data-original-prefix="fill"/><path id="fill-teeth3" fill="#ffffff" d="M1135 1631c-.4-8.9-4.4-17.8-5.1-26.5-1-13.6 3.6-27.7 2-41.5 2.2-2.4 11.9 13 12.5 15 2 6.8 2.7 27.3 1.2 34.3-1.3 6.3-5.5 14.8-10.8 18.7z" class="fill" data-original-prefix="fill"/><path id="fill-teeth2" fill="#ffffff" d="M1154.1 1604.9c-3.4-2-5.1-22.3-3.9-26.2.8-2.6 8.9-5.2 10.2-8.8l5.1-10.9c3.8 3.4 5.1 7.2 4.3 12.2-.7 4.5-5.2 22.3-6.9 26.2-.9 2.2-6.1 9-8.8 7.5" class="fill" data-original-prefix="fill"/><path id="fill-teeth1" fill="#ffffff" d="M885 1559c.4.4.7 7.1 3 10.5 2.7 3.9 10.5 6.9 11 10-.8 4.7-.7 23-4 25.4-2.5 1.8-7.7-4.5-8.7-6.7-1.6-3.6-6.3-22.5-7-27-.6-3.9 2.5-15.6 5.8-12.3Z" class="fill" data-original-prefix="fill"/><path id="shading-mouth2" fill="#aaaaaa" d="M918 1443.5c.8 5.3 5.6 13.8 10.1 16.9 11.5 8.3 16.2-.3 22.4-9.4 2.5 5.4 3.4 11.5 6 17 1.4 2.8 5.7 12 7.5 5.5l4-11.5c1.6 7.5 6.3 15.4 11.5 21 4.3 4.7 18.8 15.4 24.6 9.6 2-2.1 8.3-17.9 10.8-22.2 1.2-2.2 7.8-13.8 9.7-13.3 1 .2 8.5 13.2 9.7 15.3 2.4 4.5 7.3 17.7 9.8 20.2 3.8 3.8 10.5.4 14.4-1.8 10.5-5.9 18.5-17.2 21.7-28.8l4.2 12.3c.3 1.2 1.9 2.4 2.8 1.7.6-.4 5.8-11.3 6.5-13 .8-2 2.8-12 4-12 6.8 10.7 12.9 18.4 24.5 7.5 8.6-8 9.3-23.8 7-34.5 3.5-3.1 21.1 16.1 26.6 16.9 9.1 1.4 17.6-11.8 19-19.9 3.5-20.5-12.9-39.2-30.9-46.2l-12.7-4.8c15.4 0 28.2 2.9 41.1 11.4 4.8 3.1 12.2 10.9 17.6 11.4 6.2.6 10.1-4.1 10-10-.4-19.3-25.8-38.1-39.7-48.8 15.4 2.4 34.6 11.8 45 23.5 7.8 8.8 19.1 25.1 19.1 37s-6.4 28.5-9.2 32.8c-3.3 5.3-11.7 5.4-13.4 10.6-.9 8.1-2.1 16.4-2.5 24.5-1.5 29 1.4 45.2-10.8 73.2-3.6 8.2-12.7 20.4-14.9 27.1-4.2 12.8-.7 26.4-9.1 38.9-3.2 4.8-8.4 6.7-11.2 10.8-1.7 2.5-2.4 6.1-4.2 8.8-4.5 6.7-14.6 23-21.6 8.9-1.6-3.3-1.3-12.9-6.7-6.2-1.4 1.7-1.9 4.4-3.5 6.5-3.7 4.7-17.7 19.6-23.5 19.5-2.2 0-4.5-4.1-6.6-5.4-7.9-5-21.1-6.3-29.2-1.4-7.3 4.4-9.5 13.6-18.1 6.8s-6.4-10.8-20.1-9c-5.6.7-11.4 12.6-16.9 12.1-2.8-.2-11.4-11.1-18.5-12.6-6.3-1.3-17.5.7-23 4.2-2.6 1.7-4.1 5.6-7.5 5.4-5.7-.3-19.8-15.8-23.6-20.5-1.2-1.5-4.4-10.6-7.1-6.9-2.5 3.4-.6 9.9-7.2 12.7-7 3-14.9-11.2-18.1-16.4-1.2-1.8-1.2-4.3-2.6-6.4-2-3-6.8-5.4-9.5-8.5-10.4-11.9-6.7-27.7-10.7-41.3-.8-2.6-5.6-8.5-7.3-11.7-18.4-35.7-16.4-45.6-18.4-84.6-.4-7.7-.6-20.7-2.2-27.8-1.5-6.2-11.1-6.1-14.2-11.8-3.4-6.1-9.3-29.6-8.6-36.4 1.2-10.3 16.2-31.2 24-38 10.5-9.2 26.2-16.5 40-18.5l-21.5 17c-7.2 6.4-26.8 32-14.8 39.9 9 5.9 16.7-4.5 23.7-9.1 12.7-8.4 25.3-11.8 40.7-11.8l-17.3 7.2c-18 9.4-33.1 32.7-22.1 52.8 1.7 3.1 8.6 10.4 12 11.1 9.1 1.7 20.7-15.4 29.5-18 .6 6.4-.9 14.3 0 20.5zm-37.1 40.6c-12.3-.5-17.1-20.2-22.8 1.5-3.4 13 1.2 26.4 9.4 36.5 1.5 1.8 12.7 13.1 13.9 12.9.8 0 2.5-2.3 2.8-3.2 2.9-7.1-3.2-12.2-4.2-19.2-1.5-9.8 0-18.7.9-28.4Zm301.8-8.9c-3.2.8-6.3 6-8.8 7.3-2.1 1.1-7.2 1-7.8 3.2-.5 1.7 3 10.8 2.9 14.8 0 3-1.5 13.9-2.2 16.8-.9 3.6-3.9 5.7-3.9 10.2s1.4 7.1 3.7 7.4c1.9.3 15-14.4 16.8-17 5.7-8.5 9-18.8 7.3-29.2-.5-3-4.4-14.5-8-13.6Zm-284.8 10c-4-2.3-6.5 9.9-6.8 12.5-1.2 10.5 3 38 8.7 47.1 1.9 3 5.4 6.9 9.2 7.3 3.7-15.6 12.6-29.2 21-42.5-2.3-.4-1.7-2.9-2.7-3.5-1.5-.9-7-1.9-9.7-3.1-4.7-2.2-12-7.7-15.6-11.4-1.2-1.2-3.8-6.2-4.2-6.3ZM1139 1552c8.3-2 11.9-12.2 13.9-19.6 3.1-12.1 6.1-33.4 1.1-44.8-3-6.9-5.8 1.7-8.3 4.1-3.9 3.8-11 9.3-16 11.6-2.5 1.1-7.8 1.8-9.1 2.7-.7.5-.5 1.8-1 2.7-.3.4-1.7.4-1.6.9 0 1 7.9 12.3 9.2 14.8 4.8 8.8 9.1 18 11.8 27.7Zm-197.7 5.7c8.1 8.1 9.5 0 10.5-7.3.8-5.6 2.7-20.6 1.7-25.4-3.6-17.2-21.3-15.9-21.6 3.6 0 6.8 4.6 24.3 9.4 29.2Zm161.5-44.5c-5 1.3-8.5 9.3-8.8 14.2-.2 4 2.4 28.5 3.8 31.3 2.5 5 7.5 0 9.8-2.7 6.8-8.3 11.6-30.7 4.5-39.5-2.7-3.3-4.8-4.4-9.2-3.3zM1023 1544c-.7-.7-.8-7-5.1-9.4-8.9-5-21.8-.8-32-4-10.4-3.3-9.4-13.1-16.1 1.8-2.9 6.4-9.1 24.4-6.3 30.7 1.1 2.4 17.8 15.6 21.2 17.8s18.2 11.7 21.1 10c3.1-5.6 9.3-9.5 12.6-14.9 1.8-2.8 4.1-11.5 4.6-11.9 1.6-1.7 1.7.5 2.1 1.4 1.6 3.6 2.1 6.8 4.5 10.5 3.3 5.2 9.2 9.3 12.4 14.6 3.1 1.9 15.5-5.9 18.9-8.1 4.5-2.9 22.9-17 23.9-21.1 2.2-9.7-6.6-28.3-10.9-37.2-4.9 1-7.8 5.2-12.7 6.7-9.2 2.8-28.2-1.6-33.7 6.3-.9 1.2-2.6 8.9-4.5 7zm-136 18c-.7-.6-3.5 0-4.5.9-6 6.2 2.4 31.6 14.6 27.6 4-1.3 3.8-9.4 2.8-12.9-1.1-3.9-7.2-4.1-9.8-7.2-2.1-2.5-2.7-8.2-3-8.5Zm274.1 0c-.3.3-.9 6-3 8.5-2.6 3.1-8.7 3.3-9.8 7.2-1 3.4-1.2 11.6 2.8 12.9 13.4 4.4 20.2-24.5 14.1-28.1-.9-.5-3.5-.9-4-.4Zm-216.4 7.2c-1.5.4-5.1 4.6-6 6.1-3.4 5.6-5.6 32.3-4.8 39.3 1.3 10.9 15.2 18 19.5 3.5 1.7-5.6 2.6-21.4 2.5-27.6 0-1.1-5.8-19.7-6.5-20.5-1.2-1.4-3.2-1.3-4.8-.8Zm153.3-.1c.2 6.6-5.4 14.7-6 20.6-.5 4.5 1 25.3 2.4 29.4 4.2 12.1 16.9 7.3 19.1-2.9 1.1-5.2 0-16.8-.6-22.6-1-9.7-1.7-25.5-14.9-24.5m-180 1.9c-20.5 3.8-17 28.7-9 43 4 2.9 10.4-17 10.7-19.8.9-7.5-2.9-15.5-1.8-23.2Zm218 43c2.5 1.8 7.2-9.1 7.7-10.8 3.9-12.8 1.6-30.1-13.7-32.2.5 7.4-2.8 16.2-1.9 23.4.3 2.7 6.4 18.5 7.9 19.6m-148.2 10.2c1.4.8 4.8 8.6 9.5 11 11.1 5.8 20.2-6.4 20.7-16.7.8-13.7-7.2-7.7-16.5-8.6-8.4-.8-15-4.8-21.8-9.2-5.5-3.5-13.6-14.6-14.7-1.4-.5 5.1 1.4 7.5 1.8 11.2s-2 5.9.5 10.7c4.8 9.3 18 1.3 20.7 2.8zm93.1-31.1c-2.1-1.5-19.7 12.7-23.9 14.4-2.3 1-7.9 2.3-10.5 2.5-10.5.9-18.8-5.4-16.4 11.4 1 7.3 7.9 15.8 16 15.1 9.4-.8 11.9-11.6 14.6-12.4 4-1.3 12.3 5.7 18.9-1.1 4.3-4.4 1.3-8.4 1.5-12.5 0-2.3 1.9-4.8 2-8.1 0-1.9-.8-8.5-2.2-9.4Z" class="outline shading" data-original-prefix="shading" opacity="0.5" style="opacity: 0.5"/><path id="shading-mouth1" fill="#aaaaaa" d="M1041 1343c6.1.5 12.7-1 17.5-5 1.5-1.3.9-3.7 2.8-2.9 10.1 7.9 37.9 17.4 43.8 28.2 3.6 6.5 4.6 17.5-1.8 22.6-5.6 4.5-20.8 10.8-28 15-4.9 2.8-9.7 6.6-14.7 9.3-7.4 4.1-25.5 14.5-32.6 16.4-2.9.8-5.2.8-8.1 0-14.5-3.8-42.2-22.5-56.3-30.7-6.2-3.6-21.2-9.1-23.2-15.8-5.5-18.4 15.7-28.3 28.7-35.4 2.3-1.2 15.5-8.6 16.5-8.7 2.9-.3 4.2 2.9 6.7 4.2 4.2 2.3 10 3.2 14.7 2.8-.3-5.1-3.3-11.3-1.8-16.3.5-1.6 12.5-13.9 14.5-14.4 3.9-1 8.2-.3 11.6 1.9 1 .7 10.8 11.1 11.2 11.8 2.1 5-1.2 11.8-1.5 17" class="outline shading" data-original-prefix="shading" opacity="0.5" style="opacity: 0.5"/><path id="outline-mouth3" fill="#000000" d="M889 1333c-5.3 4.2-13 5.4-19.2 8.3-14.9 6.9-32.6 26.5-36.3 42.7-1.6 7 3.5 22.7 6.2 29.8 2.6 6.9 5 10.8 13.3 10.2-1.4-9 4.2-18.1 9.6-24.9 2.1-2.6 22-22.5 24.4-20.1-1.7 6.5-8.8 10.4-13 15.5-8.1 10-12.3 23.6-9.5 36.5 1.2 5.6 11.1 25.8 15 30 .6.7 7.1 6.3 7.5 6.5 3 1.5 6.9-6.1 7.8-8.2 1.7-3.8 2.1-7.7 3.7-11.3 4.4-10.2 9.4-18.4 18.5-25-5.1 13.9-9.5 44.6 1.5 56.1 4.8 5 9.9 2.7 14.3 4.7 2.8 1.3 3 5.7 4.8 6.1 2.6.6 7.2-4.9 14.1-2.1 5.2 2.1 8.6 15.6 13.9 16.1 2.5.2 10.2-12 18.4-9.4 6.3 2 15.5 20.8 23.6 23.5 6.9-4 4.5-12.6 5.8-18.9 1.5-7.6 8.3-12.6 9.4-22.6.8-7-1.6-26-4.4-32.4-.9-2.1-5-10.5-6-11.9-3.1-4.5-15.9-10.2-20.8-7.1l-4.2 11.1c-4.8-4.4-9.5-9.2-14.5-13.5-3.7-3.2-10-6.8-13-9.9-4-4.2-15.5-27.8-15.7-33.2 0-3.1 8.4-13.8 10.8-16.8 1.4-1.8 9.5-11.6 10.2-12.2 5.4-4.1 29.2-2.8 35.7.2 8.4 3.8 12.4 12.1 18.5 17.5 5.2 4.5 2.5-1.7 2.5-3.6s.9-3.2.8-4.8c-.2-5.4-6.7-9.2-9.9-13.1-2-2.4-5.5-6.3-7-8.3-.8-1-4.7-7.3-4.8-8-.7-3.3 8.6-12.4 11.3-13.2 3.6-1-.5 5.5-.5 6.6-.4 5.2 5.9 4.1 9.3 5.6 1.2.5 3 2.7 3.2 2.7s2-2.2 3.2-2.7c8-3.5 11.7.6 7.3-12.2 1.6-1.7 12.5 9.1 12.9 11.7.6 4.2-17.5 23.2-21.1 27.5l-.8 12.7c1.7.4 2-.7 3-1.5 6.5-5 11.1-13.4 19-17 6.8-3.1 28.3-4.1 34.7-.8.7.3 8.8 10.1 10.2 11.8 2.6 3.1 11.9 14.4 11.8 17.8 0 2.8-5 14.1-6.6 17.3-7.1 15.2-9.7 14.8-21.2 24.8-5.3 4.6-10.4 9.6-15.5 14.5-2.2.9-1.4-5.6-2.2-7.7-3.4-8.6-19-1.6-22.7 3.8-.6.8-6.7 12.4-6.9 13.1-1 3.2-.3 6.1-.9 9.1-2.6 12.3-5.2 19.6.2 32.2 1.5 3.5 4.6 6.8 5.8 10.2 2.5 7.2-.5 15.2 5.8 21.2 9-2.3 17.4-21.3 24.4-23.6 7.7-2.4 15.9 9.6 18.4 9.4 5.6-.5 9.8-18.8 18.7-17.5 2.3.3 7.6 3.9 9.4 3.5s2-4.8 4.8-6.1c3.9-1.8 8.9 0 13.3-3.7 11.5-9.9 8.1-43 2.5-56 1.6-1.7 11.3 10.4 12.4 12.1 5.1 7.8 6.1 15.5 9.7 23.3 1 2.1 4.8 9.8 7.8 8.2.4-.2 6.9-5.8 7.6-6.5 7-7.6 16-30.2 15.4-40.5-1.3-22.7-10.7-22.7-21.5-37.5-5.3-7.2 2.8-2.4 6 0 11.8 8.6 28 25.5 26.5 41 11.4 1.6 13.7-11.7 16.3-20.2 4.6-15.6 5.3-18.8-3.1-33.4-7.4-13-16.3-22.7-29.9-29.1-6-2.8-14.1-4.1-19.2-8.3 9.3.7 19.7 2.8 29.2 5.3 7.4 1.9 14.4 3.9 20.7 8.3 3.2 9.3 27.6 34.6 28 42 .2 3.7-8.2 22.5-10 27.9-2.5 7.2-2.6 16-10 21-1.9 1.3-8.4 2-9 3.2-4.1 7.9-1.4 38-1.9 48.8-1.1 21.6-7.6 43.1-20.5 60.5-.9 1.2-2.6 1.5-3.6 2.7-4.3 5.6-2.8 18.6-4.3 26.5-1.2 6-5 13.1-5.6 18.4-.4 3.5 1.3 7.7.8 9.7s-10.7 8.6-13.2 9.9c-2.2 1.2-5.7 1.5-6.5 2-.6.4-5.4 10.9-7.2 13.3-2.1 2.7-11.1 11.3-14 12.1-4.1 1.2-7.9-10.3-9.9-13s-2.3 2.3-3.6 4.3c-4.3 6.7-25.1 26.6-32.4 28.6-1.7.5-3.3.7-5 .5-.4-5.9 3.2-9.9-1.5-15.1-8.2-9-20.9-.3-24.3 8.8-1.8 4.9-1.6 20-8.6 18.1-4.6-1.3-20-25.6-23.2-30.8-5.7 8.9-12.2 19.9-19.5 27.4-11.2 11.7-9.9-11-13.8-18.2-3.8-7.1-14-12-21.1-6.7-6.7 5-2.9 9.6-3.1 16.4-3.5 3.5-24.3-13.8-27.5-17-1.3-1.3-10.5-12.2-11-13-.7-1.4-.2-6.3-2.6-3.3-2.1 2.7-6.2 14.3-10.2 13.3s-12-10.2-13.7-12.4c-2.1-2.7-6.6-12.8-7.2-13.2-.8-.5-3.8-.6-5.8-1.7-2.3-1.2-11.9-7.4-13-9-2.1-3.2.4-6.9 0-11-.7-6.8-5.9-15.3-6.8-24.2-.5-5 .6-10.7-.6-15.4-1-4-8-10-10.7-14.3-15.3-24.4-17.6-52.1-17.9-80.2 0-5.4 3-18.2 0-22.8-.8-1.2-7.8-1.9-10.4-3.8-7.2-5.3-6.2-13-8.6-20.4-1.9-6-10.7-24.3-9.8-28.7.5-2.7 4.3-7.5 6-10.1 7-10.8 15.7-20.6 22.5-31.5 5.9-4.3 13.2-6 20.1-7.9 9.7-2.6 19.8-4.7 29.2-5.3h.2Zm15 128c-1.4-1.5-7.8 8.9-8.4 10.1-10.6 19.9-8.6 50.8-1.8 71.7 1.1 3.3 9.4 22.1 12.8 21.2 4.4-1.1 10.8-28.9 12.8-34.3 4.3-11.7 13.6-22.1 8.6-35.6-4.8-.6-12.2 1.2-15.9-2.9-1.4-1.5-8.5-21.7-8.8-24s.8-4 .8-6.2Zm240 103c.6-.4 6.8-10.5 7.5-12 6.3-12.1 9-33.7 9.5-47.5.6-14.9-4.3-31.4-14.6-42.5l-2.2 9.8c-4.9 13.6-4.6 25.2-23.1 22.4-5.2 13.7 4.3 23.9 8.6 35.6 3.1 8.4 6 27.5 11.8 33.2.7.7 1.4 1.8 2.4 1.1Zm-262.3-85.7c-1-.9-4.6-2-6.6-3.9-4.2-3.9-7.8-13.1-14-4.7-13.3 17.9-4.1 44.9 7 61.7 1.6 2.4 11.5 15.7 13.3 15.7.5-8 1.2-16.5.5-24.5-.4-5.4-3.1-12.3-3.1-18s6-23.3 2.8-26.2ZM1167 1547c1.7.4 2-.5 3-1.5 17.4-17.9 32.6-50.9 18.4-74.4-6.5-10.8-10.8-.4-16.9 4.9-2 1.7-5 1.6-5.5 4.5-.8 4.5 4 18.3 4 24s-3.3 14.8-3.6 21.2c-.3 6.3 1.6 14.6.6 21.3m-64.5-53c-1.4.3-3.3 6.6-3.8 8.2-3 10.7-2.9 45.1 1.1 55.5 4.8 12.4 18.2-4.3 20.4-11 3.9-11.7-6.4-31.5-11.4-42.1-1-2.2-3-11.4-6.3-10.7Zm-86.8 33.3c-3.2-2.8-9.7 3.2-15.8 1.3-2.1-.7-8.7-7.5-10.5-9.5-2.6-2.9-3.4-8.8-8.2-7.4-12.2 3.5-20.5 24.1-21.2 35.9-.9 13.6 2.4 21.7 11.5 31.5 9.8 10.4 24 15.7 36.1 23h2.3c2.1-6.4 6.2-12 8.1-18.4 3.7-12.2 7.9-47.3-2.3-56.2zm23.4 74.6c1.1.7 3.4 0 4.6-.6 21.8-13.1 47.5-23.3 45.2-53.7-.9-11.9-9.2-33-22-36.1-4.4-1.1-5.5 5-8 8-1.7 1.9-7.3 7.9-9.2 8.8-9.2 4-14.3-9-20 5-5.4 13.2-2.6 37.5 1.5 51.1.7 2.2 7.1 17.1 7.9 17.6ZM885 1559c-3.2-3.3-6.4 8.4-5.8 12.3.7 4.5 5.4 23.4 7 27 1 2.2 6.2 8.5 8.7 6.7 3.4-2.4 3.2-20.7 4-25.4-.5-3.1-8.3-6.1-11-10-2.3-3.5-2.6-10.1-3-10.5Zm269.1 45.9c2.7 1.5 7.8-5.3 8.8-7.5 1.7-3.8 6.1-21.6 6.9-26.2.8-5-.5-8.8-4.3-12.2l-5.1 10.9c-1.4 3.6-9.4 6.1-10.2 8.8-1.2 3.9.5 24.2 3.9 26.2M917 1563c-1.9-2.2-11.8 12.5-12.4 14.1-1.7 4.6-3 25.2-2.4 30.3.9 7.9 5.6 18 11.4 23.6 1.4-8.8 5-18.6 5.5-27.5.8-13.1-3.7-27.1-2-40.5Zm218 68c5.3-3.9 9.4-12.4 10.8-18.7 1.5-7 .8-27.4-1.2-34.3-.6-1.9-10.4-17.4-12.5-15 1.5 13.8-3.1 28-2 41.5.7 8.7 4.6 17.6 5.1 26.5zm-186-62c-2.4-2-8.2 6.4-9.4 8.1-7.7 11.1-15.4 39-8 50.8 2 3.2 16 15.2 19.5 16.5 5.6 2.2 6.5-1.9 7-6.9 2.4-23.1-3.5-46.4-9-68.5Zm151 0c-1.5 11-6.9 22.6-8 33.5-.9 9-2 26.3-1 35 .2 1.9 1.7 8 3.6 8.4 2.4.6 18.8-13.3 20.9-15.9 8.3-10.5 3.8-32.3-1-44-1.2-2.9-11-19.9-14.5-17m-82 44c-3.5 0-6.1 2.5-9.6 2.9-12.7 1.6-29.1-13.9-41.4-16.9v24.5c0 .6 3.2 8.2 4.1 8.9 6.5 5.2 18.9-.4 24.4 5.6 2.6 2.9 4.3 10.3 10.6 5.5 1.1-.8 11.9-13.1 11.9-14.1v-16.5Z" class="outline" data-original-prefix="outline"/><path id="outline-mouth2" fill="#000000" d="M1122 1332c-.2 0 .2 1.6 0 1.9-1 .8-8.1-5.8-10.2-7.1-10-6.1-19.8-8.3-31.2-9.8-2.9-.4-6.9.7-9.5-.5-1.5-.8-4.5-7.4-6.5-9.5-7.8-8.7-15.6-10.2-25.8-13-1.1-.3-.6-1.9-.7-2 3.1-3.8 16.2-9.3 20.8-9.8 7.9-.9 5.5 4.4 6.5 9.1 2.3 10.7 9.3 19.6 21.3 18.8 5.1-.3 5.6-4 7.9-4.1 1.4 0 6.6 2.9 8.2 3.8 9.4 5.2 15 12.5 19.3 22.2z" class="outline" data-original-prefix="outline"/><path id="outline-mouth1" fill="#000000" d="M1011 1292s.4 1.7-.7 2c-10.2 2.8-17.4 4.1-25.4 12.5-2 2.1-5.6 9.2-7.2 9.9-3.4 1.4-13.5 1-18.1 1.8-12.5 2.1-23.6 8.7-33.1 16.9.2-.9-.5-2.8-.5-3 .8-2.7 8.7-13.3 11-15.6 2.5-2.4 14.7-10.5 17.6-10.4 2.7 0 3 5.1 11.9 3.9 10-1.3 16.2-10.1 17.5-19.6.4-2.6-2.4-6.7 2.8-8.2 3.5-1 21.7 5.6 24.3 9.8Z" class="outline" data-original-prefix="outline"/>
    </g><g class="trait-group" data-category="eyes" id="eyes-half-robo-lefty">
      <g id="fill-eyes" fill="#ffffff"><path id="fill-eyes10" fill="#ffffff" d="M1340.2 1161.2c-1.8 3.2 2.5 12.1 1.8 16.2-.3 2.1-5.6 8-6.6 11.5-1.6 6.1-1.6 14.6 6.5 13-2.9 14.9-6.1 30.8-15.2 43.3-4.1 5.7-24.3 27.4-29.8 30.2-9.5 4.9-28.4 5.8-39.5 8.5-3.7.9-16.8 4.8-19.1 6.9-2.7 2.3-2 11.3 1.3 12 1.6.3 5.2-.9 5.3 1-8.5 2.7-18.7 4.8-27.6 5.9s-19.3 1.8-27.9 2.1c-8.3.3-33.7 0-40-4-10.6-6.8-26.7-27.9-39.9-29.1-6.9-.6-10.6.4-10.6 8.1-.6.7-10.6-4.7-11.9-5.6-11.9-7.5-40.3-29-48.5-39.5-5.2-6.6-3.8-13.2-15.1-12-7.3.8-7.4 9.4-12 14-1.5 1.5-18.9 12.9-20.1 13-1.9.2-3.7-1.2-5.4-.5-6.2 2.4-15.1 17.1-22.1 20-4.6 1.9-15 .6-17.5 2.5-8.4 12.7-14.5 27.7-22.6 40.4-5.8 9.2-8.7 11.7-19.6 14.4-15.5 3.9-33.9 4.3-49.7 8.1-53.2-18.6-106.5-37-159.2-57.1-1.9-1.6-2.8-26.6-3.2-31.3-3.3-31.2-7.2-62.5-10.2-93.8-.3-.9-.9-1.8-1.8-2.2-4.9-2.4-25.1 2.5-26 1.5.2-3.8-1.2-8.2-2.8-11.7-2.5-5.4-15.3-21.4-15.2-25.7 0-2.9 5.5-14.4 7.1-18 18.2-40.9 44.7-76.3 69-113.4 5.5-.4 9.2 3 15.3 1.8 4.1-.8 23.2-25.9 28-31 60.3-64.2 149.7-115.4 238-125 9.5-1 28.3-3.2 37-2.1 6.9.9 4.3 7.7 8.1 8.9l41.8 3.2c96.6 6.4 182.3 72.3 241.5 144.5 2.8 3.4 4.3 9.3 8.7 10.3 5.9 1.3 8.4-1.5 13.8 4.2 19.9 20.7 39.1 64.4 47 92 2.1 7.3 7.6 26.9 7.5 33.5-.1 8.9-14.8 5.9-22 7.9-13.5 3.8-24.8 15.9-36.8 22.7Z" class="fill" data-original-prefix="fill"/><path id="fill-eyes9" fill="#ffffff" d="m828 1222 66.3 32.1c4.8 3.5-5.7 11.7-9.1 13.7-32.1 19-64.9-12.6-57.3-45.8Z" class="fill" data-original-prefix="fill"/><path id="fill-eyes8" fill="#ffffff" d="M996.7 1072.7c-7.1 8.9-18 18.1-25.7 27.8-7 8.8-21.5 24.3-12.5 35.4 6.6 8.1 24.3 16.3 30.4 25.6 4.5 6.7-.7 8.7-2.8 14.3-4.9 13-9 38.6-11.1 52.9-.7 4.8-.5 16.1-1.8 19.1-.5 1.2-18.7 15.1-19.9 15.3-6 .9-37.9-16.9-45.1-20.9-33.2-18.2-65-39.3-97-59.4-2.4-2.9-4.8-25-5.3-30.2-1.2-12.4-3.9-40.7-.5-51.5.4-1.3 5.1-11.5 5.7-11.8 1.2-.8 7.1-.2 8.9.3 34.7 19.4 69.8 38.2 104.6 57.4 8.6 4.7 25.8 16.8 33.6 19.4 6.5 2.1 12.2-.5 18.7-.2.7-2.3-.6-1.7-1.3-2.3-6.7-5.9-13.4-8.7-20.6-13.3-40-25.6-80.3-50.6-122.4-72.6-1.1-.4-2.3-1.9-1.7-2.8.9-1.2 24-8.8 28.3-11.2s6.5-5.1 8.5-9.4c17-55.2 33.2-111.9 54.3-165.7 1.9-4.8 10.1-26.3 12.3-28.7 3.1-3.3 25.6-7.8 31.2-8.8 9.4-1.6 51.2-7.1 57.2-2.8 1.1.7 1 1.9 1.1 3 .2 8.6-3.3 22.7-4.1 32-3.3 38.2-4.3 76.8-6 115-.3 6.8.8 14.5 0 21-.4 3.8-15.5 51-17.3 53.2Zm-83-72c14.9-14.9-1.8-40-16.7-24.2-13.9 14.6 2.2 38.7 16.7 24.2m-87 112.5c-9.3 1.7-16.1 13.2-15.8 22.2 1 30.2 42 29.5 39-2.9-1.1-11.5-11.4-21.4-23.2-19.3" class="fill" data-original-prefix="fill"/><path id="fill-eyes7" fill="#ffffff" d="M719.3 1016.7c-1.3-1.1-2.3-5.5-4.4-2.2-1 1.6-1.9 7.9-2 10-.3 9.1 2.9 14 10.4 18.7 14.4 9.1 35.8 16.8 51.7 25.3 2.3 1.2 15.6 8.2 15.9 9.2-1.9 30.7-1 61.8 2.1 92.3l-49.3-29.2c-8.3-3.6-16.5-9.5-25.5-11.5-18.7-4.3-38.7 5.2-56.2 10.7-.3-7.3-7-15-5.5-22 1.7-7.9 11.7-26.9 15.7-35.4 12.3-25.9 26.6-50.8 39.8-76.2l5.3-.3c32.3 10.2 64.4 22.1 97.7 28.8l-10.1-7.4c-19.2-11.1-39-21-58.9-30.6 2.6-8 8-15.6 13.5-22 28.9-33.5 71.7-67.3 110.5-88.5 15.7-8.6 32.7-17.3 50-22-29.9 57.7-44.6 121.4-62.5 183.5-4.7 10.6-31.8 18.9-42.8 19.8-26.5-14.9-55.5-27.3-81.8-42.3-4.4-2.5-9.8-5.6-13.6-8.9Zm124.4-20.5c-16.7 3.5-29.8 42.7.5 37.5 8.5-1.4 15.5-11.5 17.7-19.3 3.6-12.9-5.5-20.9-18.2-18.2m-76.9 78c-23.6 1.9-25.1 46.6 4.5 41.6 21.8-3.8 18.6-43.4-4.5-41.6" class="fill" data-original-prefix="fill"/><path id="fill-eyes6" fill="#ffffff" d="M800 1304c-8.7 1.2-16.8 6-25.2 6.8-20.5-8.8-45.8-14.6-65.5-24.6-3.5-1.8-9.5-5.7-10.3-9.7-6.5-34.8-8.8-73.6-10-109 0-2.2-1-4.2-1-6.4 2.7 1.1 8.9-2.4 9.8.7 1 3.3-.2 10.7.2 14.8 2 24.8 8.2 51.2 13.5 75.5l42.8 27.2 45.7 24.8Z" class="fill" data-original-prefix="fill"/><path id="fill-eyes5" fill="#ffffff" d="m796 1318 21.4-6.9 31.3 11.7c6.8 1.4 17.5-3.8 24-6.6 20.2-8.8 40.2-20.7 58.3-33.2 1 1.2-8.7 14.2-10.2 16.3-6.7 9.4-14.7 22.2-25.5 26.5-13 5.1-28.9 6.8-42.5 10l-56.7-17.8Z" class="fill" data-original-prefix="fill"/><path id="fill-eyes4" fill="#ffffff" d="M827.7 1121.2c14.4-3.3 20.3 16.6 10.2 24.2-15 11.4-25.7-20.7-10.2-24.2" class="fill" data-original-prefix="fill"/><path id="fill-eyes3" fill="#ffffff" d="M903.7 979.2c9.3-2.7 14.3 12.6 2.3 16.4-10.5 3.4-9.1-14.4-2.3-16.4" class="fill" data-original-prefix="fill"/><path id="fill-eyes2" fill="#ffffff" d="M765.7 1083.2c17.2-3.9 13.5 24.8-.2 24.9-13.5 0-10.5-22.4.2-24.9" class="fill" data-original-prefix="fill"/><path id="fill-eyes1" fill="#ffffff" d="M837.2 1025.8c-5.2-5.2 1.9-18 8.5-19.5 18.3-4.2.2 28.3-8.5 19.5" class="fill" data-original-prefix="fill"/></g><g id="shading-eyes" fill="#aaaaaa" opacity="0.5"><path id="shading-eyes4" fill="#aaaaaa" d="M1032.8 847.2c1 1.6-2.5 28.8-2.8 33.3-.8 13.9-1.5 28.1-2.1 42-1.9 48.1 2.5 106.7-17.5 151.5-4.6 10.3-15.2 13.9-18.9 21.1-1 1.9-8.8 30.8-8.6 32.4 6.3 10.9 30.1 24.7 30.1 38 0 7.2-3.9 19.1-2.9 25.7 1.2 7.7 14.5 17.6 14.8 26.8 1.8.4 2-.5 2.8-1.7 1.6-2 1.3-5.2 3.2-6.3 1.1 2.2 1.9 10.6 3 11.5s12.8 3.9 15.4 4.6c19 5 35.7 9.7 54.3 2 80.1-33.2 142.3-100.3 220.1-137.9l32.3.3c1.7 1 10.7 21.9 13.2 25.8 2.7 4.1 2.7 3 5.7 5.3 3.7 2.8-5.2 4.4-7.9 5.9-8.1 4.2-26.1 12.6-32.3 17.7-2.4 1.9-.9 4.2-2.2 5-26.2 9.2-58.4 13.2-83 25.8-28.6 14.6-61.3 41.2-85.8 62.2-1.7 1.4-2.3 3.7-4.6 5.4-9.7 7.5-49.7 20.5-54 26-.8 1-.5 3-1.7 3.5-3.1 1.4-7.1.6-10.3 0 3.1 7.5-1 9.4-7.9 8.5-11.1-10-24.3-17.7-35.5-27.5-7.8-6.8-14.2-15.6-22.1-21.9-2.6 1.4-6.5-.7-8.5.4-1.9 1-7.5 9.4-9.6 11.4-14.2 14-31.4 24.6-46.4 37.6-2 1.2-4-.1-6-.5l2-2c-3.2-.5-8.5.8-11.3-.2-1.4-.5-12.2-12.6-15.3-14.7-13.4-8.9-36.6-16.5-52-25-25.1-14-49.7-31.6-74.4-46.6-21.2-12.8-55.6-36.6-79.5-39.5-1.8-.2-18.8.7-19.8 1.1-1.3.4-1.4 1.2-1.6 2.4-.8 4.3-.3 16.1 0 21 1.4 23.2 7.2 47.7 10.2 70.8 1.8 4.5 25.6 17.9 31.1 20.9 16.5 9.1 28.4 13.3 45.9 19.1 11.7 3.9 24.4 11.9 36.1 16.9 10 4.3 20.2 7.6 30.2 11.8 16.9-6.2 34.2-14.2 50.1-22.8 8-4.3 17.2-11.6 24.8-15.2 1.2-.6 2.1-1.3 3.6-.9-1.1 4.8-2.9 13.6-6.6 16.8-6.2 5.3-26.3 13.5-34.7 17.3-9.1 4.1-31.9 15.2-40.4 16.6-3.3.5-4.7 0-7.8-.7-13.2-3.5-28-13.4-41.2-17.9-6.7 1-15.1 6.6-21.8 6.7-4.8 0-9.7-4.3-14.5-4.8-1.3-1.7 11.6-7 12.7-7.8 3.7-2.4-.7-2.2-3.1-3.4-17.8-8.6-36.5-19.1-53.2-29.9-6.8-4.4-19.8-11.2-22.2-18.8-6.1-19-5.8-44.3-7.3-64.2-16 3.2-11.8.8-13-10.5-.3-3.2-1.9-17.2-2.9-18.8-2.3-3.7-13.3-.4-13.9-.8-.8-.5-9.2-13-11.2-15.4-6.2-7.3-13.1-14-19-21.5 20.2-6 40-13.6 60.2-19.3 9.3-2.6 20.4-6.8 30-5.5 3.6.5 16.9 5.8 18.1 5.6 3.1-.6 2.9-7.6 7.1-6.9.9.2 3.4 9 12.8 6.8 6-1.4 7.5-8.4 6.7-13.8l3 1c.2-7.1 6.7-1.9 8.8 2.8 4.4 9.9.8 22.3-8.7 27.7l35.6 24.4c5.7-1.4-3.3-7.8 3-10.9 9.4 6.7 18.5 17.8 24.9 1 1-2.7-.5-7.7 4-8.1s6 10.1 6.1 13.7c.1 9.6-5.2 18.4-13.6 22.8 15.8 12.1 32.6 23 49.7 33.3 15.2 9.2 62.2 37.6 77.8 37.2 2.8 0 21.3-3.2 22.6-4.5 3.6-15.8 4.5-31.9 6.1-47.9.5-4.9 3.5-11.7 1.7-16.9-.6-1.8-5.4-3.2-7.3-4.7-14.2-10.7-24.7-25.3-37.5-36.5-12.3-10.8-30.2-21.7-44.1-30.9-33.6-22.3-76.2-51.3-113.7-65.3-18-6.8-41.6-11.4-58-22-1-.6-2.6-1.1-2.3-2.6 39-53.1 91.3-94.8 150.6-123.4 7.2-3.5 23.6-11.7 30.5-13.5 3.8-1 10.3-1.8 11.6 3 1.2 4.2-8.4 19.7-10.6 25-4.8 11.8-8.7 26.1-12.5 38.5-13.2 42.5-23 85.9-34.7 128.8l86.4 47.9c3.8-3.5 7.6-7.2 11.2-10.9 6-6.3 19.1-19.9 23.3-26.7 2.8-4.5 14.9-35 15.9-40.1 3.9-20 2.6-48.5 4.2-69.8 3.1-39.6 7-79.3 13-118.5 1-1 13.4 4.5 13.8 5.2ZM903 883c-3-3.1-33.5 26.8-36.5 30-13.2 14.3-27.8 33.4-37.9 50.1-3.9 6.4-16.7 29.1-16.5 35.3.3 10 5.2 20 11.4 27.7 1.7-4 1.6-10.7 7.8-8.8 3.1 1 2.8 5.6 9.8 3.4s5.2-14.7 12.5-14.6c2.2 0 4.5 7.2 4.6 9.5 0 4.3-2.7 13.5-4.7 17.5l-8.4 11.1c7.6 3.6 10.9-7.8 13-13.4 10.6-28.3 16.7-60.9 25.7-90.3 5.9-19.2 12.7-38.2 19.3-57.2Z" class="outline shading" data-original-prefix="shading" opacity="0.5" style="opacity: 0.5"/><path id="shading-eyes3" fill="#aaaaaa" d="M1321.7 1014.8c-3.2 3.3-24.9 8.2-31 10.5-58.4 21.7-107.8 43.1-157.2 81.8-26.5 20.8-39 37.7-57.8 65.2-5.9 8.6-8.7 19.6-19.8 23.7l3.9-30.6c11.1-14.1 19.5-39.6 30.5-52.5 6.8-7.9 40.9-26.1 51.9-32.1 18-10 47.2-21.5 62.6-32.4 7.7-5.4 25.6-28.8 28.4-37.6 4.7-15.1-1.1-24.6-8.1-37.5-16.5-30.1-47.7-69.7-76.3-88.7-14.2-9.5-30.9-15.1-42.9-27.6 32.3 6.5 63 20.9 91.3 37.2 40.6 23.4 80.3 55.9 109.1 92.9 3.2 4 16.5 20.7 16.6 24.3 0 .9-.6 2.7-1.2 3.3Z" class="outline shading" data-original-prefix="shading" opacity="0.5" style="opacity: 0.5"/><path id="shading-eyes2" fill="#aaaaaa" d="M893 985c4.5-1.1 2.6 3.5 6.2 5.3 7.3 3.5 11.1-5.2 8.8-11.2 6.8-1.6 9.4 7.7 8.7 13.2-1.2 9.4-11.3 20.6-21.1 14.6-8.6-5.3-2.9-14.2-2.6-21.9" class="outline shading" data-original-prefix="shading" opacity="0.5" style="opacity: 0.5"/><path id="shading-eyes1" fill="#aaaaaa" d="M1105 856c.7.3-.6 1.7-2 1-.7-.3.6-1.7 2-1" class="outline shading" data-original-prefix="shading" opacity="0.5" style="opacity: 0.5"/></g><g id="outline-eyes" fill="#000000"><path id="outline-eyes8" fill="#000000" d="M996 1254c-.3 1-.3 1.5-.9 2.5-1.9 3-22.7 21.6-26.3 23.7-4.6 2.8-12.5 5.7-17.6 3.8-8.3 13.2-14.7 29.4-23.3 42.2-7.2 10.7-13.3 12.1-25.6 14.4-12.7 2.4-34.5 6.9-46.7 7.3-13.1.5-51.2-16.9-66-22.1-33.5-11.8-67.6-22.2-100-37l-13.5-126c-9 .6-17.9 2.7-26.9 1.9-1.8-15.3-13.3-26.2-20.1-39.4-1-5.6 3.6-14.7 5.8-20.1 18.3-44.7 48.5-83.3 74.6-123.4 3.6-2.7 10.7 3.6 14.2 3.9 2.4.2 23.9-26.8 27.8-30.8 68.5-71.8 162.6-122.5 263-127 3.8-.2 21.5-.6 23.5.5 3.1 1.7 3.7 8.1 4.1 8.4.7.7 17.6.8 20.4 1.1 44.3 4 88.7 10.4 127.8 32.2 52.8 29.4 98.2 69.2 136.7 115.3 1.4 1.7 5.6 8.7 6 9 2.5 1.6 4.6-2.2 8-1.2 6.9 2.2 22 24.7 26.4 31.7 16.2 25.5 34.7 71.5 37.5 101.5.4 4.2.7 12.7-3.9 14.9-4.2 2-14.8 1-21 3-7.1 2.3-16 9.5-22.6 11.4-2.5.8-1.2-3.4-1.5-5-.7-4.8-3.5-13.8-1.5-18 .8-1.7 11.6-6.7 14.2-7.8 2.8-1.3 9.1-2.1 9.3-5.6-1.1-6-.9-11.1-2.9-17.1-2.7-8.4-9.1-21.6-13.2-29.8-2.7-5.4-24-44.7-26.5-45.5-1.7-.5-10.6-1.2-12.9-1.2-8.5 0-24.3 1.8-33 3.1-3.3.5-19.8 5.8-20.5 5s.2-2.5 1-3.4c1.5-1.7 7.4-5.7 9.6-7.4 8.7-6.3 18.9-11.6 28.3-16.7 2.1-2.2-1.8-10-3.2-12.9-12.3-27-67.2-72.8-92.9-89.1-39.3-24.7-117-56.6-163.4-52.6-9 .8-8.6 1.7-10.2 9.8-10.5 52.7-5.8 110-8.4 163.6-2.2 8.1-4.8 16.2-6.6 24.4-2 9.2-2.3 21.4-4.5 29.5-.8 2.7-33.2 34.3-38.8 41.2-2.7 3.5-9 8.9-5.4 12.3 7 6.6 18.9 12.6 26.4 19.6 5.5 5.1 6.4 7.2 6 15-1.3 22.1-7.6 46.6-10 69-.6 5.8.8 11.8-1 17.5Zm.7-181.3c1.7-2.2 16.9-49.5 17.3-53.2.7-6.5-.3-14.3 0-21 1.7-38.1 2.7-76.8 6-115 .8-9.3 4.3-23.5 4.1-32 0-1.1 0-2.3-1-3-6.1-4.3-47.8 1.2-57.2 2.8-5.6 1-28.1 5.4-31.2 8.8-2.2 2.4-10.4 23.9-12.3 28.7-21.1 53.7-37.4 110.5-54.3 165.6-2.1 4.4-4.3 7-8.5 9.4s-27.4 10-28.3 11.2c-.7.9.6 2.5 1.7 2.8 42.2 21.9 82.5 46.9 122.4 72.6 7.2 4.7 14 7.4 20.6 13.3.7.6 1.9 0 1.3 2.3-6.5-.3-12.2 2.4-18.7.2-7.8-2.6-25-14.7-33.6-19.4-34.9-19.1-69.9-37.9-104.6-57.4-1.8-.5-7.7-1.1-8.9-.3-.6.3-5.2 10.5-5.7 11.8-3.4 10.8-.7 39.1.5 51.5.5 5.2 2.8 27.3 5.3 30.2 32.1 20.2 63.8 41.2 97 59.4 7.2 4 39.1 21.7 45.1 20.9 1.2-.2 19.4-14.1 19.9-15.3 1.3-3.1 1.1-14.3 1.8-19.1 2.1-14.3 6.2-39.9 11.1-52.9 2.1-5.6 7.2-7.6 2.8-14.3-6.2-9.3-23.8-17.4-30.4-25.6-9-11.1 5.5-26.6 12.5-35.4 7.7-9.7 18.6-18.9 25.7-27.8Zm-277.4-56c3.8 3.2 9.2 6.4 13.6 8.9 26.3 15 55.3 27.3 81.8 42.3 11-.9 38-9.2 42.8-19.8 17.9-62.1 32.6-125.8 62.5-183.5-17.3 4.6-34.3 13.4-50 22-38.8 21.2-81.6 55-110.5 88.5-5.5 6.4-10.8 14-13.5 22 19.9 9.6 39.8 19.5 58.9 30.6l10.1 7.4c-33.3-6.7-65.4-18.5-97.7-28.8l-5.3.3c-13.2 25.4-27.6 50.3-39.8 76.2-4 8.4-14 27.4-15.7 35.4-1.5 7 5.3 14.7 5.5 22 17.5-5.6 37.5-15 56.2-10.7 8.9 2.1 17.1 7.9 25.5 11.5l49.3 29.2c-3.1-30.5-4-61.7-2.1-92.3-.3-1-13.6-8-15.9-9.2-15.9-8.5-37.3-16.1-51.7-25.3-7.5-4.7-10.6-9.6-10.4-18.7 0-2.1 1-8.5 2-10 2.1-3.3 3.1 1.1 4.4 2.2ZM800 1304l-45.7-24.8-42.8-27.2c-5.3-24.3-11.5-50.7-13.5-75.5-.3-4.2.8-11.5-.2-14.8-.9-3-7.2.4-9.8-.7 0 2.2 1 4.2 1 6.4 1.2 35.4 3.5 74.2 10 109 .8 4 6.8 7.9 10.3 9.7 19.6 10.1 45 15.8 65.5 24.6 8.4-.8 16.6-5.6 25.2-6.8Zm28-82c-7.7 33.2 25.2 64.8 57.3 45.8 3.4-2 13.9-10.2 9.1-13.7l-66.3-32.1Zm-32 96 56.7 17.8c13.6-3.2 29.5-4.9 42.5-10 10.8-4.3 18.9-17.1 25.5-26.5 1.5-2.1 11.2-15.1 10.2-16.3-18.1 12.5-38.1 24.4-58.3 33.2-6.4 2.8-17.1 8-24 6.6l-31.3-11.7-21.4 6.9Z" class="outline" data-original-prefix="outline"/><path id="outline-eyes7" fill="#000000" d="M1076 1274c5.7-.5 4.6-14.6 3.5-18-1.9-6.5-14.5-14.8-19.7-19.3-1-.8-2.5 0-1.9-2.6 19.9 5.8 42.2 16.9 63.4 14.9 44.1-4.3 65.6-34.1 99.3-57.7 29.2-20.4 60.3-33.7 94.6-43.4 9.1-2.6 18.3-5.3 27.8-5.7.1 5.4 1 10.7 2 16 .6 3.4 4.9 19.3 4.8 20.3-.3 1.8-11.4 16.7-9.8 18.7 1.5 1.8 2.2-1.4 2.6-1.9.6-.8 9.8-15.9 10.4-10.6 0 2.3.2 4.6 0 6.9-1.2 8.6-7.7 28.3-10.7 37.3-3.5 10.5-6.5 16.8-13.8 25.2-2.9 3.4-23.5 25.2-25.6 26.4-10.2 6.1-34.9 7.3-47.9 11.1-5.1 1.5-9.7 4.5-15 5.5-.2 1.9 3.2 1 4.2.8 4.8-1 9.2-3.8 14.3-4.7 2.9-.5 23.4-1.9 24.4-1.1 1.6 1.3-.4 1.8-1.3 2.2-8.7 4.7-22.8 11.2-32.1 14.9-19.8 8-77.1 10.8-97.9 6.6-8.7-1.8-19-14.3-26.9-20.1-4.3-3.2-13.7-10.2-18.4-11.6-4-1.1 1.1 9 .5 10-.8.7-14.1-1.6-15.9-2.6s-12.9-12-14.1-13.9c-1-1.6-.7-3.1-.9-3.5Z" class="outline" data-original-prefix="outline"/><path id="outline-eyes6" fill="#000000" d="M999 1253c9.1-14.2 22.5-28.8 19-47 6.2 2.2 8.8 2.2 15 0-2.1 7.1.6 14.6 3.2 21.3 4.2 10.6 11.3 17.3 15.8 27.7-3.3 0-4 4.3-7 4-.3-5.3-7.6-7.7-11.1-11.5-2.9-3.1-3.7-6-5.7-9.3-1-1.6-4-2.1-5.2-1.1-.4.3-3.3 7.1-5.2 9.3-3.9 4.6-10.9 7-12 12.5-1.2 1.1-6.2-4.5-7-6Z" class="outline" data-original-prefix="outline"/><path id="outline-eyes5" fill="#000000" d="M1203 1060c1.4 1.4-6.9 7.5-8.1 8.4-27 20.7-64.8 41.2-87.9 66.1-11.7 12.6-20.2 32.4-33.8 46.2-1 1-1 2.8-3.2 2.3-.6-.7 2.6-9.6 3.2-11.2 4.5-12.4 18.8-50.9 28.2-57.8 19.4-10.7 39.9-20 59.2-30.8 14-7.9 26.5-19 42.3-23.2Z" class="outline" data-original-prefix="outline"/><path id="outline-eyes4" fill="#000000" d="M826.7 1113.2c11.8-2.1 22.2 7.8 23.2 19.3 3 32.4-38 33.1-39 2.9-.3-9.1 6.4-20.5 15.8-22.2m1 8c-15.5 3.5-4.8 35.6 10.2 24.2 10.1-7.6 4.2-27.5-10.2-24.2" class="outline" data-original-prefix="outline"/><path id="outline-eyes3" fill="#000000" d="M913.7 1000.7c-14.5 14.5-30.6-9.6-16.7-24.2 15-15.8 31.6 9.3 16.7 24.2m-10-21.5c-6.8 2-8.2 19.7 2.3 16.4 12-3.8 7-19.1-2.3-16.4" class="outline" data-original-prefix="outline"/><path id="outline-eyes2" fill="#000000" d="M766.8 1074.2c23.1-1.8 26.3 37.8 4.5 41.6-29.5 5.1-28.1-39.7-4.5-41.6m-1.1 9c-10.8 2.4-13.8 24.9-.2 24.9 13.7 0 17.4-28.8.2-24.9" class="outline" data-original-prefix="outline"/><path id="outline-eyes1" fill="#000000" d="M843.7 996.2c12.7-2.7 21.8 5.3 18.2 18.2-2.2 7.8-9.2 17.9-17.7 19.3-30.4 5.2-17.2-34.1-.5-37.5m-6.5 29.6c8.7 8.7 26.8-23.7 8.5-19.5-6.6 1.5-13.7 14.3-8.5 19.5" class="outline" data-original-prefix="outline"/></g>
    </g><g class="trait-group" data-category="right ear" id="right ear-metal plate">
      <defs/><path id="fill-ear-rt1" fill="#ffffff" d="M1377.6 547.4c2.3 6.6 3.6 12.4 6.1 17.5 6.5 13.5 4.8 27.4 2.5 41.2-3.2 19.5-6.4 39.1-13.2 57.9-3.3 9.2-8.5 17.3-13.9 25.3-1.5 2.2-2.5 2.9-4.8.7-20.6-19.9-41.3-39.8-62.1-59.5-10.2-9.7-16.3-22-23.4-33.9-7-11.7-8.5-23.2-6.9-36.4 1.4-12 3.7-23.6 6.4-35.3 1.1-4.8 3.4-9.1 6.4-12.9 24.1-29.8 46.5-60.9 71.6-90 35-40.6 76.6-73 121.4-101.8 24.5-15.7 49.1-31.4 74.2-46.2 41.6-24.6 84.1-47.6 128-67.7 15-6.9 30.7-11.9 46.3-17.4 3.4-1.2 3.1.7 3.2 2.7 1.1 18.7 1.2 37.3-.8 55.9-2.3 21.9-5.7 43.6-9.7 65.2-.5 2.6-1 5.3-2.5 7.5-16.6 24.4-23 52.5-29.7 80.6-5.6 23.6-8.8 47.5-8.3 71.8.4 23.5-5 45.9-11.3 68.2-8.9 31.8-17.7 63.7-33.7 92.8-26.5 48.2-58.6 92.2-101.2 127.8-14.8 12.4-31.7 21.5-48.6 30.5-16.8 8.9-32.5 19.7-48.8 29.3-2.9 1.7-4.5 4.1-5.6 7.2-6.8 20.2-14.8 40-25.4 58.5-6.8 12-14.3 24-25.1 33.3-5.2 4.5-9.8 9.5-14.7 14.3-17.3 16.9-36.3 31.5-59.2 39.8-7.1 2.6-15.4.2-20.9-4.7-10.4-9.3-19.3-20.2-28.2-31-1.3-1.6-1.2-2.7 0-4.2 14.7-20.3 21.8-43.9 28.4-67.6 2-7.3 5.3-13.9 10.4-19.7l94.2-106.8c7.9-8.9 8.4-16 1-24.7-1.9-2.2-1.1-3.2.6-4.2 3.8-2.3 4.3-5.7 4.3-9.8 0-24.3 6.1-47.4 14.7-70 .9-2.5 2.3-4.8 3.8-7 4-5.8 7.5-6.4 13.5-2.5 3.4 2.2 6 5.2 8.4 8.5 11.2 15.9 15.9 33.4 14.5 52.8-1.2 16.8-6.8 32.1-14.4 46.9-.8 1.6-1.8 3.2-2.7 4.8v1c2 .4 3.5-.8 5-1.6 24.5-12.7 47.8-27 68.4-45.7 6.6-6 10.3-12.3 11.7-21.3 4-26.6 11.6-52.3 20.6-77.6 6.3-17.8 15.8-33.7 27-48.8 1.9-2.6 1.9-4.2 0-6.9-7.6-11.5-10.5-24.6-10.9-38-1.5-44.6 10.6-85.5 33.7-123.5 21.9-36 50.4-65.2 86.2-87.4 5.4-3.4 9.9-7.3 12.8-13.4 5.3-10.9 11.4-21.4 18.4-31.2-1.1-1-1.8-1.1-2.6-.5-6.4 4.2-13.3 7.8-18.6 13.4-5.6 6-12.4 10.1-19.7 13.3-5.6 2.5-10.2 6-14.6 10.3-14.6 14.4-29.1 28.9-44.3 42.7-36.2 33.1-61.5 73.3-79.3 118.6-2 5.2-2.6 9.8-1.4 15.3 4.3 20.9 7.2 41.9 8 63.2 1.3 34.4-6 66.8-20.4 97.8-4.8 10.3-9.2 20.7-16.3 29.7-3.7 4.8-7.9 9-13.2 12-8.1 4.6-15.4 2-18.3-6.9-1.8-5.4-2.9-10.9-4-16.5-3.4-16.7-9.5-32.5-14.5-48.8-.7-2.4-2.2-4.1-4.1-5.5-17-11.8-35.1-21.6-54.3-31.8v.4Z" class="fill" data-original-prefix="fill"/><path id="fill-panel-ear-rt" fill="#ffffff" d="M1253.2 614.5c2.9 6.9 5.4 12.8 8.9 18.2 4.9 7.5 11.1 13.7 18.2 19 23.1 17.5 45.5 35.9 66.5 55.9 5 4.8 11.1 8.4 16.5 12.9 9.2 7.6 9.8 12.8 1.5 21.1-27.3 27.4-52.9 56.5-81.2 82.7-11.8 11-18.6 24-22.4 39.1-2.2 8.7-4.6 17.4-7 26-3.6 12.8-10.1 24.2-18.1 34.7-.8 1-2.1 2.1-2.1 3.3-.3 5.1-3.3 4.6-6.5 3.4-16.4-6.3-33.1-12.1-47.2-23.1-2.2-1.7-3.7-3.7-4.5-6.4-2.5-8.6-5-17.2-7.7-25.7-3.1-9.9-1.1-19.2 3.1-28.1 18.3-39 35.9-78.4 57.5-115.6 5.2-8.9 6.5-18.3 8.2-27.9 4.4-26.2 9.6-52.2 14.8-78.2.7-3.4 1-6.8 1.6-11.3zm-3.9 277.5c.3-11.1-6-17.9-17.1-18.3-10.9-.4-20.5 9.3-21 21.1-.4 10 8.2 20.1 17.4 20.5 10.5.5 20.3-10.7 20.7-23.3m84.1-129.6c8.2 0 15.9-6 18.6-14.7.9-2.7.8-5.6 1.2-8.3 1-6.6-1.5-11.7-6.9-15.3-5.3-3.4-11.1-4-16.4-.4-6.7 4.6-11 11-11.9 19.3-1.1 10.2 6.2 19.3 15.4 19.4" class="fill" data-original-prefix="fill"/><path id="fill-stud2-ear-rt" d="M1222.6 893.9c0-6.9 4.2-10.7 12-10.9 4.2 0 7.9 3.9 8 8.6 0 6-5.5 12.2-11 12.3-5 0-8.9-4.2-9-9.9Z" class="fill" data-original-prefix="fill" fill="#ffffff"/><path id="fill-stud1-ear-rt" fill="#ffffff" d="M1346.9 742.3c0 7.5-3.9 11.8-10.2 11-4.2-.5-7.1-2.6-7.9-7.1-.9-4.9-.5-9.6 2.6-13.8 3.6-5 10-4.6 13.1.7 1.6 2.8 2.5 5.8 2.4 9.1Z" class="fill" data-original-prefix="fill"/><path id="shading-ear-rt1" fill="#aaaaaa" d="M1234 709.1c0-8.2 2.4-16.1 3.1-24.2.2-2.8 2.5-2.8 4.3-3.3 11-3.2 22-6.3 33.5-9.7-3-3.7-6.5-5.6-9.7-7.8-9.1-6.1-14.1-14.8-16.7-25.1-.4-1.6-.4-3.3 0-4.9 3.2-21.4 6.5-42.8 9.8-64.2 0-.8.5-1.5 1-2.7 9.2 13.9 18.9 26.7 29.6 38.9 11.3 12.8 23.3 24.8 37 35 8.7 6.5 8.8 6.4 13.9-2.9 12.3-22.1 21.4-45.5 26.4-70.3 1.8-9.1 6.1-16.5 11.8-23.7 5.1-6.4 9.8-9 18.4-7.5 17.5 3.2 35.1 6.1 52.2 11 3.3 1 5.3.6 7.1-2.7 6-10.8 11.3-21.8 16.7-32.9 5.5-11.5 4.3-23.8 5.8-35.7 1-7.9 1.5-15.9 2.3-23.9.3-2.4.6-5 2-7.1 19.9-30.6 37.9-62.4 61.1-90.7 7.9-9.7 16.2-19.1 24.7-28.2 5.6-6 11.7-11.4 18.5-16 20.4-13.8 40.7-27.7 61.7-40.7 6.3-3.9 13.1-7.2 19.7-10.7 1.3-.7 13.8 1.7 14.7 2.8 1.1 1.3 0 2.5-.4 3.7-5.4 11.3-13 21.3-21.1 30.6-35.9 41.5-59.7 89.4-76.7 141.1-9.4 28.6-10.2 57.9-5 87.4 2 11.4 2.5 22.2-3.6 32.8-4.9 8.6-7.6 18.4-11 27.8-.2.6-.5 1.2-.7 1.9-.7 2.9-.3 6.2 1.6 7.9 1.7 1.5 4.3-.9 6.2-2.1 5.5-3.5 9.2-8.7 12.8-13.9 16.4-23.6 29.2-49.2 41.9-74.9.8-1.6 1.6-3.2 2.5-4.9 1.6 1.2.7 2.5.4 3.6-18.6 72.5-47.8 140.1-92 200.8-1.5 2-3 4.1-4.9 5.6-26.6 20.3-54.8 37.9-87.2 47.5-12.3 3.6-24.7 6.2-37.7 6.5-16.4.5-27.4 10.7-35.5 23.7-9.2 14.8-17.2 30.5-25.8 45.6-16.6 29.1-32.9 58.5-54.7 84.1-8.9 10.4-13.5 21.8-16.6 34.4-1.3 5.3-2.8 10.5-4.2 15.9 2.4 0 3.3-1.5 4.5-2.5 32.7-28.3 61.9-60.1 90.7-92.3 1.8-2 3-4.4 3.9-6.9 4.4-12.5 9.7-24.7 11.4-38.1.9-7.1 5.4-11.6 13.1-13.9 37.6-11.1 71.6-30.2 106.2-47.9 19.9-10.2 38.5-22.6 55.5-37.1 7.1-6 13.8-12.5 20.8-18.8-3.1 4-6 8-9.2 11.9-17.4 21.1-36.9 40-60.1 54.9-14.5 9.3-30 16.9-44.8 25.7-11.4 6.7-22.6 13.9-33.9 20.8-1.7 1-2.5 2.5-3.2 4.2-10.5 24.5-21.1 48.9-31.5 73.4-1.7 4.1-4.1 7.5-7.4 10.5-26.6 24-53.2 48-79.6 72.2-2.7 2.5-5 2.9-8.4 1.9-13-3.7-26-7.2-39.1-10.6-3.2-.8-5.2-2.2-6.5-5.3-4.4-10.5-12.9-17.6-21.5-24.4-4.1-3.2-7.5-7.3-11.9-9.7-9.8-5.4-20.1-10.1-31.5-10.8-2.6-.2-3.8-1.1-4.8-3.4-7.1-16.1-14.3-32.3-21.6-48.4-.7-1.6-1.1-3-.4-4.8 4.8-11 9.5-22 14.2-33 2 .4 1.4 1.9 1.5 2.8 3 17.7 12.1 33 19.3 49 2 4.4 4 8.8 6 13.1.9 1.8 1.8 3.8 4.1 3.9 2.4 0 3.2-2.3 3.3-3.8.7-9.5 7.6-14.6 13.6-20.8 14.3-14.7 25.5-32 36.9-49 14.1-21 27.9-42.2 42.8-62.8.6-.8 1-1.7 1.9-3.1-38 8.1-74.4 19.5-112.2 29.5 1.2-2.6 2-4.5 3-6.3 6.5-12.2 12.5-24.6 17.8-37.4 1.3-3.1 3.1-4.6 6.3-5.5 26.2-7.5 52.3-15.4 78.6-22.5 7.7-2.1 12.8-5.8 16.6-12.6 3.9-7.1 4.3-7-2.4-11.5-5.4-3.6-10-9.9-16.2-10.1-5.8-.2-11.9 3.8-17.8 5.9-13.8 5-27.5 9.9-41.3 14.9-1.2.4-2.4 1.2-3.8.7Zm-4.8 193.4c-2.3-7.7.9-13.2 7.1-17.3.8-.5 2-.8 1.4-2.1-.4-.9-1.4-.7-2.2-.7h-4c-5.4.2-8.8 4.9-9.9 12.7-.9 6.2 3.2 6.7 7.6 7.5Zm99.6-156.5c3.6-11.8 8.3-14 18.6-9.9 0-8.6-4-9.5-11.3-8.7-6.7.7-9.7 8.2-7.3 18.6" class="outline shading" data-original-prefix="shading" opacity="0.5" style="opacity: 0.5"/><path id="outline-ear-rt3" fill="#000000" d="M1735.4 208.8c1.6 15.9 0 30.4-1 44.8-1.6 25.4-2.3 50.9-6.5 76.1-1.4 8.3-3.6 15.7-9.6 22.4-8.9 9.8-14.3 21.7-17.9 34.7-7.3 26.5-11.5 53.4-12.3 80.8-.2 7.9.6 15.6 4.1 22.9 2.2 4.5 2.2 9.2 1.2 14.1-15.2 75.4-46.3 144.2-89.1 207.6-20.5 30.3-47 55.3-76.8 76.5-21.1 14.9-42.4 29.5-66.1 40.1-9.4 4.2-16.1 11.1-21.6 19.4-12.5 19.2-23.7 39-30.4 61.1-2.1 6.7-5.7 12.5-11.6 16.5-20.1 13.7-36.9 31.2-53.7 48.5-9 9.3-20.7 12.5-31.8 17.7-5.9 2.8-11.3 2.2-17.2.4-10.5-3.1-21.1-5.8-31.4-9.8-3.1-1.2-5.4-2.9-7.4-5.6-5.8-7.9-11.9-15.7-17.7-23.6-3.5-4.7-7.9-8-13-10.7-14.4-7.8-29.7-13.3-45.8-16.4-6.3-1.2-10.8-4.8-14.2-10.1-11.8-18.5-18.2-39-23.2-60.1-1-4.3.5-7.9 1.9-11.5 3.1-7.8 8.3-14.4 13.2-21.1 22.9-31.6 41.9-65.3 56.9-101.3 18.9-45.4 25.1-93 23.3-141.8-.2-5.4-.4-10.6 4.4-14.6 1.6-1.4 1.6-3.9 1.7-6.1.4-10.7 1.2-21.3 1.3-32 0-6.6 1.8-11.9 5.7-17.4 19.4-27.1 38.8-54.2 59.1-80.6 28.6-37.4 61-71.4 93.4-105.5 1.9-2 4.1-3.9 6.4-5.5 64.7-45.2 132.5-84.7 206.2-113.5 27.3-10.6 54.4-22.1 82.7-29.7 7.9-2.1 15.9-3.8 23.9-5.4 6.9-1.3 7.4-.7 9.5 5.9 3.5 11.2 3.1 22.7 3.3 32.7 0 .1 0 0 0 0Zm-357.8 338.6c19.2 10.2 37.3 20 54.3 31.8 1.9 1.3 3.4 3 4.1 5.5 4.9 16.2 11.1 32.1 14.5 48.8 1.1 5.5 2.2 11.1 4 16.5 2.9 8.8 10.2 11.4 18.3 6.9 5.3-3 9.5-7.2 13.2-12 7-9.1 11.5-19.5 16.3-29.7 14.4-31 21.7-63.4 20.4-97.8-.8-21.4-3.8-42.4-8-63.2-1.1-5.5-.6-10.2 1.4-15.3 17.8-45.3 43.1-85.5 79.3-118.6 15.1-13.8 29.6-28.3 44.3-42.7 4.3-4.3 9-7.8 14.6-10.3 7.3-3.3 14.1-7.4 19.7-13.3 5.3-5.6 12.2-9.2 18.6-13.4.8-.5 1.6-.4 2.6.5-7.1 9.8-13.1 20.3-18.4 31.2-3 6.1-7.4 10.1-12.8 13.4-35.8 22.1-64.4 51.4-86.2 87.4-23.1 38-35.3 78.9-33.7 123.5.5 13.4 3.4 26.5 10.9 38 1.8 2.7 1.8 4.3 0 6.9-11.1 15.1-20.7 31-27 48.8-8.9 25.3-16.5 51.1-20.6 77.6-1.4 9-5.1 15.3-11.7 21.3-20.6 18.7-43.9 32.9-68.4 45.7-1.5.8-3 2-5 1.6v-1l2.7-4.8c7.7-14.7 13.2-30 14.4-46.9 1.4-19.4-3.3-37-14.5-52.8-2.3-3.3-5-6.3-8.4-8.5-6-3.9-9.5-3.3-13.5 2.5-1.5 2.2-2.9 4.5-3.8 7-8.6 22.5-14.7 45.6-14.7 70s-.4 7.5-4.3 9.8c-1.7 1-2.4 2-.6 4.2 7.4 8.7 6.9 15.8-1 24.7l-94.2 106.8c-5.1 5.7-8.3 12.3-10.4 19.7-6.6 23.7-13.7 47.3-28.4 67.6-1.1 1.6-1.3 2.6 0 4.2 8.9 10.8 17.8 21.7 28.2 31 5.5 5 13.8 7.3 20.9 4.7 23-8.3 41.9-22.8 59.2-39.8 4.9-4.8 9.6-9.8 14.7-14.3 10.8-9.3 18.3-21.3 25.1-33.3 10.5-18.5 18.6-38.3 25.4-58.5 1.1-3.2 2.7-5.5 5.6-7.2 16.4-9.6 32-20.4 48.8-29.3 16.9-9 33.8-18.1 48.6-30.5 42.6-35.5 74.7-79.6 101.2-127.8 16-29.1 24.7-61 33.7-92.8 6.3-22.3 11.7-44.8 11.3-68.2-.4-24.3 2.7-48.1 8.3-71.8 6.7-28.1 13.1-56.2 29.7-80.6 1.5-2.2 2.1-4.9 2.5-7.5 4-21.6 7.4-43.3 9.7-65.2 1.9-18.6 1.8-37.3.8-55.9 0-2 .2-4-3.2-2.7-15.5 5.5-31.3 10.5-46.3 17.4-43.9 20.2-86.4 43.2-128 67.7-25.1 14.8-49.7 30.5-74.2 46.2-44.8 28.7-86.4 61.2-121.4 101.8-25 29.1-47.4 60.2-71.6 90-3 3.8-5.3 8.1-6.4 12.9-2.7 11.7-5 23.3-6.4 35.3-1.6 13.2 0 24.7 6.9 36.4 7.1 11.9 13.2 24.2 23.4 33.9 20.8 19.7 41.5 39.6 62.1 59.5 2.3 2.2 3.3 1.5 4.8-.7 5.4-8 10.6-16.2 13.9-25.3 6.8-18.7 10-38.3 13.2-57.9 2.2-13.8 3.9-27.7-2.5-41.2-2.5-5.2-3.8-10.9-6.1-17.5v-.4Zm-124.4 67.1c-.6 4.5-.9 7.9-1.6 11.3-5.3 26-10.4 52-14.8 78.2-1.6 9.6-3 19-8.2 27.9-21.7 37.3-39.3 76.6-57.5 115.6-4.2 8.9-6.2 18.2-3.1 28.1 2.7 8.5 5.3 17.1 7.7 25.7.8 2.7 2.3 4.7 4.5 6.4 14.1 11 30.8 16.8 47.2 23.1 3.1 1.2 6.2 1.7 6.5-3.4 0-1.1 1.3-2.2 2.1-3.3 8-10.6 14.5-21.9 18.1-34.7 2.4-8.6 4.8-17.3 7-26 3.8-15.1 10.6-28.1 22.4-39.1 28.4-26.3 54-55.3 81.2-82.7 8.3-8.3 7.7-13.5-1.5-21.1-5.4-4.5-11.5-8.1-16.5-12.9-21-20-43.4-38.4-66.5-55.9-7.1-5.4-13.3-11.6-18.2-19-3.5-5.4-6-11.3-8.9-18.2z" class="outline" data-original-prefix="outline"/><path id="outline-ear-rt2" fill="#000000" d="M1249.3 892c-.4 12.7-10.2 23.8-20.7 23.3-9.2-.4-17.7-10.5-17.4-20.5.4-11.9 10-21.5 21-21.1 11.1.4 17.4 7.1 17.1 18.3m-26.7 1.9c0 5.7 4 10 9 9.9 5.5 0 11-6.3 11-12.3s-3.7-8.7-8-8.6c-7.8.2-12 4-12 10.9Z" class="outline" data-original-prefix="outline"/><path id="outline-ear-rt1" fill="#000000" d="M1333.4 762.4c-9.2 0-16.5-9.1-15.4-19.4.9-8.3 5.2-14.7 11.9-19.3 5.3-3.6 11.1-3.1 16.4.4 5.4 3.5 8 8.6 6.9 15.3-.4 2.8-.3 5.6-1.2 8.3-2.8 8.6-10.4 14.7-18.6 14.7m13.5-20.1c0-3.3-.8-6.3-2.4-9.1-3.1-5.4-9.5-5.7-13.1-.7-3.1 4.2-3.4 8.9-2.6 13.8.8 4.4 3.6 6.6 7.9 7.1 6.4.7 10.2-3.5 10.2-11Z" class="outline" data-original-prefix="outline"/>
    </g><g class="trait-group" data-category="left ear" id="left ear-lop-eared">
      <path id="fill-ear-lft" fill="#ffffff" d="M594.7 816.3c-2-1.6-9.6-2.2-11.2-.3-1.2 1.5-7.1 22-8.7 26.3-5 13.4-11.3 26.2-16.5 39.5-4.5 11.3-6.1 33.4-24.5 26-7-2.8-24.8-26.8-30-34-16-22.3-30.6-47.2-45.8-70.2-39-59.2-74.4-111.4-98.8-179.2-9.6-26.8-15.4-43.5 1.9-68.6 23.3-33.7 61.6-64.8 95.5-87.5 28.2-18.9 84.4-32 118.3-39.7 24.1-5.5 52.8-14.8 76.3-6.3 34.6 12.6 112.7 57.7 134.2 86.9 11.9 16.2 14.4 48.2 16.6 68.4 4.4 40.2 2.4 79.8 10.5 119.5 5.7 28.4 15.5 63.5 25.3 90.7 9.5 26.8 26.4 56.8 33.6 83.4 2.7 9.8 2.8 21.2 5.4 31.2-20.8 30.1-50.2 57.8-83.8 73.1-4.5 2-23.1 9.9-26.7 10.3-8.6 1-32.2-11.5-40.2-16.4-30.9-19-65.2-41.9-82.2-74.8-5.7-10.9-9.1-24.8-15-35-4.8-8.3-17.4-24.5-23.9-32.1-1.8-2.2-8.6-9.9-10.3-11.2" class="fill" data-original-prefix="fill"/><path id="shading-ear-lft" fill="#aaaaaa" d="M354 607c25 10.2 48.3 24.2 72.6 35.9 13.7 6.6 30.3 16 45.8 13.1 5.7-1 44-29.1 51.4-34.6 19.1-14.1 38.4-29 55.6-45.4 2.4-2.2 16.9-16.4 17.3-17.8.2-.7-.8-13.9-1-14.6-.7-2.1-5.4-2.5-4.8-5.7l112.4-.9c3 1.7 3.4 7.8 3.7 11.3 2.7 38-6.9 75.6 4.2 112.8 21 70.3 74.6 151.5 121.2 207.8 7.2 8.7 29.7 30.3 31.3 39.7 1.2 7.2-.9 6.5-3.2 11.4-7.5 16.4-34.7 36.9-50.7 46.3-9 5.3-27.2 14.4-36.9 17.2-1.4.4-2.6.7-4 0-24.5-12.8-50.2-23.4-74.5-36.6-30.1-44.6-58.6-90.2-95.4-129.6-2.7-2.4-13.6-3.8-15.6-1.4l-48.6 89.4c-2.6 4.2-8.5-3.4-10.8-5.9-25-26.8-47.5-67.8-68-99-14.6-22.2-30.2-43.3-43.8-66.2-23.6-39.9-44.2-83.1-58.2-127.3Zm423 360c-4.3-10.8-5.6-28.6-11.1-38.3-4.3-7.6-16.3-19.5-22.2-27.8-12-16.6-23.4-35.5-33.8-53.2-13.5-23.1-33.6-71.9-57.8-82.2-8.1-3.4-11.8-1.6-19.5-2.5-6.2-.7-12.2-2.2-18.4-2.9l-17.1 35.8c6.1 2.2 12 5.3 18.2 7.4 10.5 3.6 38.2 7.9 44.8 14.2 7.1 6.7 12.3 40.6 19.5 52.5 6.6 11 30 33.7 39.9 44.1 14.9 15.5 36.1 38.7 53 51 1.3 1 2.7 2.2 4.5 2Z" class="outline shading" data-original-prefix="shading" opacity="0.5" style="opacity: 0.5"/><path id="outline-ear-lft" fill="#000000" d="M844 941c3.5-3.7 9.5-11.8 12.4-16.1 4.8-7.2 16.4-28.2 15.6-36.3-16.8-39-30.3-79.4-48.1-118-7.2-15.6-22.5-39.6-25.4-55.6-1-5.8 0-11.7-.5-17.5-3.3-45.1-7.7-135.4-25.5-174.5-3.3-7.2-25.2-24.6-32.6-30.4-33-26-70.9-45.4-110.4-59.7-68.6 7.7-172.2 32-218.5 86.6-11.6 13.7-35.4 43.8-42.8 59.2-2.8 5.7-1.1 5.2-1.1 9.9-.6 34.1 31 102.7 47.4 134.5 23.4 45.3 67.4 118.5 102.5 154.5 3 3.1 13.8 12.9 17.6 13.5 1.7.3 4.6-6.1 5.3-7.7 14.2-30 26.4-60.7 41-91 5.7-11.9 11.2-28.3 17.9-39.1 10.4-16.5 24.8-29.7 35.4-48.6 8.3-15 26.4-54.2 27.8-70.3.8-9.2-9.5-29.1-14.5-37.3-14.7-24.4-35.8-45.3-60.4-59.6-2.6-2.3 3.1-7.7 5.1-8.9 6.8-4.5 36.1-12.8 44.5-13.5 17.3-1.5 48.8 8.1 63.5 17.5 5 3.2 7.9 6.1 7 12.5-15-2.5-40.6-15.3-47.5 6-7.2 22.3 16.6 48.8 27.5 66.5l-7.8 55.7c4.9 9.7 11.4 18.4 18.3 26.7 10.7 12.9 16.5 19.9 25.3 34.7 27.2 45.4 45 96.6 73.8 140.2 5.2 7.8 23.4 29.6 24.3 36.7 1.1 8.3.3 18.2 1.9 26.7-1.8 3.8-26.4 25.2-28.8 22.7 1-5.6 4.4-10.8 5-16.5 2.2-21.2-16.5-60.3-26.5-79.5-23.8-45.9-52.8-93.3-86-133-5.4-6.5-16.8-16-20.5-22.5-1.2-2-1.5-4.3-2-6.5l-62 104c4.1 1.2 8.2 4.3 11.7 6.8 2.7 1.9 14.1 10 15.3 11.7 3 4.1 6.3 16.5 8.8 22.2 7.7 17.2 25.2 54.7 36.7 68.3 7.1 8.4 25.7 22.7 35 30 24.3 19.3 37.5 32 71 29 9.3-.8 17.4-5.9 26.5-6-10.1 6.5-41.4 22.8-52.5 23s-39.2-12.2-49.4-18.6c-13.5-8.5-21.1-19.2-32.6-29.4-11.3-10-27.4-17.4-33.7-31.3-7-15.8-10.7-29.5-19.7-45.3-6.6-11.7-14.4-24.6-24.7-33.3l-4.9 5.1c-15.5 20.1-21.9 45.4-27.1 69.9-3 14.1-5.4 28.6-5.5 43-2.8 3.2-28.5-20.2-31.5-23-80.1-74.1-140.5-192.9-177.2-294.8-2.9-8.2-11.2-27.8-12.1-35-1.2-10.5 17.8-49.1 23.6-59.9 8.7-16.2 21.8-38.5 33.7-52.3 17.9-20.8 63.6-38.8 89.5-49.5 41.3-17 119.9-46.1 163.2-35.2 14 3.5 51.2 30.2 65.3 39.7 21.7 14.6 45.1 30.3 65.4 46.6 5.8 4.7 23.5 19 26.2 24.8 4.2 9.2 1.4 36.4 1.9 48.1 2.4 62 10.9 128.3 38.9 184.1 5.6 11.2 13.7 22 19.1 32.9 6.1 12.4 10.3 26.9 16.3 39.7 9.2 20.1 20.9 33.1 21.8 56.2 0 2.2.4 4.4-.5 6.5-13.3 16.2-22 40.8-39.8 52.2-4.6 3-11.3 6.6-16.7 7.8Z" class="outline" data-original-prefix="outline"/>
    </g><g class="trait-group" data-category="head" id="head-speed-racer">
      <path id="fill-head4" fill="#ffffff" d="m1431 1409-41.1-257.4c-1.8-7.4-14.5-16-16.9-22.1 0-.3 4.9-1.9 3.8-5.8-.4-1.7-21.7-20.6-24.8-23.2-18.8-16-29.9-20.5-54-26-41.9-9.6-85.8-13.5-128.5-17.5-120.9-11.3-230.5-8.9-350.9 6.1-27.3 3.4-76.1 9.3-100 21-17.5 8.6-32 26.8-47.2 38.9-2 4.4 3.7 6.1 3.5 6.5-1.9 4.6-12.4 13.1-15.4 18.6-.9 1.6-1.7 3.1-2.1 4.9-12.7 80-23.7 160.5-37.7 240.3-.8 4.3-1.5 9.3-2.6 13.4-.2 1 .4 3.2-1.6 2.3-2.3-.9-17-21.4-19-25-12.1-21-8.6-47-7.5-70.6 4.7-99.7 18.6-254.8 66.9-342.1 40.5-73.3 137-143.2 216.4-167.6 99.8-30.7 187.3-31.9 288-4.5 83.2 22.7 179.3 87 225.2 160.8 54.4 87.5 68.8 250.9 73.6 353.4 1.9 39.8 5.1 61.6-23.5 92.6-1.2 1.3-2.5 3.2-4.5 3Z" class="fill" data-original-prefix="fill"/><path id="fill-head3" fill="#ffffff" d="m1347 1120-45.5-1c-157.8-13.8-319.8-16.5-478-7-40.9 2.4-81.4 9.1-122.5 8 2.1-3.2 5.5-5.6 8.5-7.9 21.1-16.9 28.9-18.3 55.3-23.7 162.6-33.2 356.7-33.2 519.2.2 22.8 4.7 31.3 5.8 49.9 20.1 4.5 3.5 9.6 6.9 13.1 11.4Z" class="fill" data-original-prefix="fill"/><path id="fill-head2" fill="#ffffff" d="M671.3 1155.3c.6-.8 2.5-1.3 3.7-2.8 2.9-3.4 15.6-21.8 17.7-22.4 2.3-.7 4.2.4 5.1 2.6l-53.1 300.5c0 9.8-15.7 3.6-16.7-1.8l42.2-273.8c0-.9.5-1.7 1-2.4Z" class="fill" data-original-prefix="fill"/><path id="fill-head1" fill="#ffffff" d="m1376.7 1155.3 43.3 273.2c1.8 7.6-14.9 14.6-16.8 5.7l-53.2-299.8c-1.1-3.2 1.5-4.7 4.5-4.4 4.3.4 16 23.1 22.2 25.3" class="fill" data-original-prefix="fill"/><path id="shading-head" fill="#aaaaaa" d="M613 1326c1.7-.9 2.1-5.1 2.5-7 13.6-59.4 24.3-119.5 39.4-178.6 10.4-12.2 24.2-21.3 36.1-31.9l23-1.5-1 3c9.8-.9 19.8-.3 29.5-.9 8.6-.6 17.3-2.3 26-3 146-12 294.7-16.2 441-6 41.9 2.9 83.5 9 125.5 10l-1-3 23 1.5c11.7 10.6 25 19.7 35.8 31.2 9.2 39 18.2 78.1 26.8 117.2 4.7 21.6 8 45.2 13.8 66.2.3 1 .2 3 1.7 2.8 1.8-4.6 4.6-7.2 5.1-12.4 2.1-21.1.6-53.2 0-75.1-1.9-66-11-137.1-24.3-201.7-2.2-10.7-8-27.4-8.7-37.3 0-.6-.3-1.7.5-1.5 1.3 1.4 2.8 2.6 4 4 5.5 6.1 21.8 23.2 24.6 29.5 4.1 9.3 7.8 27.3 10.2 37.8 18.4 77.2 26.7 163 29.6 242.4.7 20.3 4.6 54.1-3.5 72.4-4.6 10.4-19.7 26.4-27.9 35.1-2.1 2.2-11.3 9.4-12 11-2.4 5.7 2.8 12.2 1 15-1.1 1.7-28.4 12.9-32.5 14-.6-9.3-4.4-18.7-5.8-27.8-8.9-57.6-16.3-115.7-26.5-173.4-6.3-35.8-11.9-79.6-21-114-1.2-4.7-1.3-1.9-5.7-1.8-2.7-11.1.5-14.9-12.5-16-32.5-2.8-67-2.7-100-5-136.8-9.7-274.2-9.7-411 0-32.9 2.3-66.2 2.5-99 4.9-13.6 1-11.7 4.7-13.5 17-2.8.3-4.5-3.7-5.8-.3l-53.2 316.3-31.4-13.1c-3.7-2.6.2-6.8.5-10.4.5-7.7-7.8-11.4-12.6-16.4-7.8-8.2-22.2-23.4-27-33-9.3-18.8-5.2-53.4-4.4-74.5 2.9-79.1 11.2-164.6 29.5-241.6 2.5-10.6 6.7-30.7 11.1-39.9 2.5-5.1 17.2-21 21.9-26.1 2-2.1 4.1-4.3 6.5-6-13.7 58-23.7 117.1-29 176.5-1.7 19.4-3.4 39.5-4 58.9-.8 23.7-2.1 58.1 0 81.1.5 5.4 3.3 6.7 5.1 11.4zm27 101 49-293c-13.9 10.3-18.8 24.1-23.5 40-15.6 52.5-22.9 109.4-36.2 162.7l1.7 6.6c-.2 20.7-11.7 49.5-11 69.1.4 10.8 11.2 12.9 20 14.5Zm719-292 50.4 292c9.3-3 18.4-3.6 18.6-15.5.3-19.2-10.5-46.6-11-67-.7-28.3-9.3-60.2-15.5-88.5-5.5-25.5-11-53.1-18-78-3.9-14-7.2-25.9-17-37-.9-1-6.5-7.1-7.5-6" class="outline shading" data-original-prefix="shading" opacity="0.5" style="opacity: 0.5"/><path id="outline-head" fill="#000000" d="m1333.9 1132.1-85.4-3.1c-127.2-13-255.6-10.7-383-6-50.2 5-100.4 7.9-150.8 8.9l-1.4 2.8c-19.6 101.2-30.5 204.8-52.6 305.5-1 4.3-3.2 16.1-4.9 19.1-2 3.7-7.6 7.9-12.1 6.4l-34.3-15.8c-5.8-4.2 1.9-12.8 0-17-.5-1.2-15.8-14.6-18.6-17.5-14-14.8-24.5-27.6-26-49-3-44.4 2.7-103.2 7-148 7.7-79.3 22.7-178 55.1-250.9 42.8-96.1 180.8-182.4 281-204 60.5-13 159.1-13.6 220-2.4 104.8 19.3 249.4 107.4 293.3 207.7 43.6 99.6 57.2 242.1 60.5 350.5 1.4 44.7 7.8 61.2-24.5 95.5-2.8 3-18.5 16.8-19.1 18-1.8 4.1 5.8 12.8 0 17l-32.7 15.3c-5.6 2.7-12.2-2.2-14.3-7.3-5.6-13.3-7.9-40.9-10.8-56.2-1.6-8.2-3.9-16.4-5.4-24.6-14.8-81.5-26.5-163.6-41.4-245.1zM1431 1409c2 .2 3.3-1.7 4.5-3 28.6-30.9 25.4-52.8 23.5-92.6-4.9-102.5-19.3-265.9-73.6-353.4-45.9-73.8-142-138.1-225.2-160.8-100.7-27.5-188.2-26.2-288 4.5-79.4 24.4-175.9 94.3-216.4 167.6-48.3 87.3-62.2 242.4-66.9 342.1-1.1 23.6-4.6 49.6 7.5 70.6 2 3.5 16.7 24 19 25 2 .8 1.4-1.3 1.6-2.3 1-4.2 1.8-9.1 2.6-13.4 14-79.8 25-160.2 37.7-240.3.4-1.8 1.2-3.3 2.1-4.9 3-5.5 13.5-14 15.4-18.6.2-.4-5.5-2.1-3.5-6.5 15.1-12.1 29.7-30.3 47.2-38.9 23.9-11.7 72.7-17.6 100-21 120.4-15 230-17.5 350.9-6.1 42.7 4 86.7 7.9 128.5 17.5 24.1 5.5 35.2 10 54 26 3.1 2.7 24.4 21.6 24.8 23.2 1 3.9-4 5.4-3.8 5.8 2.4 6.1 15.1 14.7 16.9 22.1l41.1 257.4Zm-84-289c-3.6-4.5-8.6-7.9-13.1-11.4-18.6-14.4-27.1-15.4-49.9-20.1-162.6-33.4-356.6-33.4-519.2-.2-26.4 5.4-34.1 6.8-55.3 23.7-3 2.4-6.4 4.7-8.5 7.9 41.1 1 81.6-5.6 122.5-8 158.2-9.5 320.2-6.8 478 7l45.5 1Zm-675.7 35.3c-.6.7-.9 1.5-1 2.4l-42.2 273.8c1 5.4 16.7 11.6 16.7 1.8l53.1-300.5c-.9-2.2-2.8-3.2-5.1-2.6-2.2.6-14.8 18.9-17.7 22.4-1.2 1.4-3.1 2-3.7 2.8Zm705.4 0c-6.3-2.2-17.9-24.9-22.2-25.3-3-.3-5.5 1.2-4.5 4.4l53.2 299.8c1.9 8.9 18.6 1.9 16.8-5.7z" class="outline" data-original-prefix="outline"/>
    </g><g class="trait-group" data-category="mouthpiece" id="mouthpiece-stogie">
      <path id="fill-mouthbit-main" fill="#ffffff" d="M1380.7 1584.3c6.4 17.5 27.5 11.4 39.8 21.7 2.6 2.2 3.8 6.5 7.4 7.6 7.3 2.2 16.1-2.2 23.3-.3 3.3.8 5.8 5.4 9.3 6.7 10 3.7 17.2-4.4 22.2 7.8 11.5 28.1-14.7 83.3-38.4 100.1-2.3 1.6-8.2 6-10.7 5.9-4 0-3.9-8.3-9.3-9.5-2.5-.6-8-.5-10.7 0-5.3.7-10.5 6.8-15 1.9-2.1-2.3-3-8.8-6.2-9.8-1.7-.5-10.9-.5-12.6 0-2.3.7-2.3 3.4-2.8 3.7-2.4 1.4-29-11.6-38.3-9.8-2.5.5-3.7 2.9-7.1 3s-10.8-2.5-14.5-3.6c-37.1-10.8-76.4-26.1-111.4-42.6-8.9-4.2-8.6-6.4-13.7-14.3-17.2-5.8-34.2-12.1-51-19-1.7-.7-3.8-.5-5.7-1.3-2.2-.9-15.3-7.8-16.3-8.7-1.4-1.4-6-14-7-17-3.8-10.5-6.5-21.4-9.9-32 0-5.6 14.9-17 19.4-20.4 4.7-3.6 18.9-14.1 23.9-14.1 20.3 2.9 50.8 18.9 70.8 14.8 3.3-.7 7.5-4.5 10.7-5.3 8.2-2.2 45.6 4.8 56.2 6.8 33.6 6.3 65.2 17.2 97.5 28v-.2Z" class="fill" data-original-prefix="fill"/><path id="fill-mouthbit-label1" fill="#ffffff" d="m1373 1589-17.3 3.2c-35 17.2-52.7 54.8-41.2 92.8 2.2 7.2 6.6 12.9 7.5 20-30.3-10.7-62.6-20.2-91.7-33.8-15.9-7.4-27.6-12.4-33.6-30.4-9.2-27.7 3-62.2 26.8-78.8 7.4-5.2 21.2-2.8 29.9-1.8 40.5 4.5 81.1 16.3 119.6 28.9Zm-114.2-14.7c-22.6 2.6-45.1 28.1-42.8 51.2 2.4 23.4 37.9 43.7 56.5 26.5 7.2-6.7 20.9-36.6 21.5-46.4 1.3-20.4-15.7-33.6-35.2-31.3" class="fill" data-original-prefix="fill"/><path id="fill-mouthbit-label2" fill="#ffffff" d="M1258.8 1584.3c14.8-2 27.3 6.2 25.2 22.2-1.1 8-13.6 36.5-20 41-11.9 8.4-32.8-2.5-37.7-15.1-7.7-19.9 12.9-45.4 32.6-48Z" class="fill" data-original-prefix="fill"/><path id="fill-mouthbit-ember" fill="#ffffff" d="M1462.1 1632.9c1.6 1.1 7.6-6.6 12.4 0 1.3 1.8 3.2 9.2 3.4 11.6 1.7 16-14.6 63.2-30.3 69.4-2.1.8-6.8 2.1-9 2-4.2-.2-11.8-6.5-14.9-5.9-2.2.4-6.3 6.1-11.9 5.6-6.6-.6-5.5-8.4-9.8-10.3-3.1-1.3-9.9-.9-13.8-2.2-17.7-5.8-13.9-40.5-9.7-54.3 2.6-8.5 13.4-28.2 23-29 3.2-.3 5.5 1.1 8 1.1s6.7-2.3 8.8-1.8c1.8.4 4.2 4.6 6.3 5.7 5.7 3 8.2-1 13.3-2.4 9.3-2.5 15.1-1.7 21.4 5.6 1.1 1.3 2.4 4.7 2.7 4.9Zm-43.1-2.9c-15.4-5.5-26.8 18.2-28 30.5-.5 5.5 2.3 31 5.1 34.9 1.4 2 3.8 2.2 5.9 1.1 4.2-2.1 1-13.1.9-17-.2-6.4-.7-16.4.7-22.4 2.2-9.2 11.7-18.3 15.3-27.2Zm14 78v-27.5c0-8.9 8.2-26.1 13.6-33.4 1.5-2 9.4-9.9 9.4-10.6 0-7.4-15.8 4-18.1 6-12.8 11.4-17.8 31.3-14.7 47.8 1.2 6.4 4.1 14.2 9.8 17.8Z" class="fill" data-original-prefix="fill"/><path id="shading-mouthbit" fill="#aaaaaa" d="M1174 1617c-1.1-15.2 4.2-30 11.5-43 4-7.2 8.8-18.2 18.5-14-5.4 12.1-11.5 23.9-14.5 37-1.2 5.1-4 18.6-3.1 23 .2.8 6.6 13.2 7.2 13.9 5.8 6.6 32.4 17.7 41.5 21.5 26.7 11.3 54.5 20.6 82.4 28.6 1.1 0 6-3.7 6.4-4.7 1-2.9-1.1-17.5-.8-22.8.8-13.3 13.5-49.9 26.9-54.1 12-3.7-.3 9.9-1.8 12.2-11.1 16.8-16 35.4-12.9 55.6.4 2.7 2.5 13 4 14.5 1.7 1.8 27.2 11 28.8 9.8 2.9-2.2 1.7-18.6 2.1-23 1.1-12.1 5.9-26.5 12.1-36.9 2.6-4.4 7.1-13.1 12.8-11.7 1.8 1.8-7.8 14.2-9.2 17.3-3.5 7.9-5.9 19.6-6.8 28.2-.3 3.6-1.3 11.2 0 13.9 2.3 4.3 10.8 10.3 15.6 11.4 2.3.6 5.2-.3 7.3.7 1.2.6 3.2 4.5 4.9 6.1 8.2 7.1 16.2 1 25-1.5 1.5 5.1 0 8.4 4 12.5 5.6 5.8 12.2 4.5 19 7-7.4 7.9-14.8 15.6-26.3 9.3-1.3-.7-1.6-2.4-2.4-2.8-2.6-1.6-23.9-2.3-30.6-5.2-1.9-.8-1.5-3.3-4.2-3.8-1.6-.3-10.5-.3-11.9.2-1.6.5-1.7 2.8-2.7 3.4-2.9 2-29.1-11.4-38.5-9.5-2.4.5-2.8 2.8-6 3.1-7 .6-60.6-18.3-71-22.1-21-7.6-41-17.7-61.4-26.6-5.7-4.1-5.7-12.1-7-13-.5-.3-2.6.6-4.1.2-16.1-4.3-39.6-13.4-54.9-20.2-2.6-1.2-12.4-5.7-14-7-2.4-1.9-6.7-14.2-8.1-17.9-2.4-6.6-9.3-25.4-9.8-31.3-.2-2.6 1.9-5.1 3.4-7.2 4.2-5.6 29.7-25.5 36.1-26.9 11-2.3 27.1 6.2 37.8 8.7 2.2 11.4-19.1 3.5-26.1 4-8.4.6-24.9 14.3-28 22.1-2.6 6.4-2.8 13.5 2.6 18.4 3.7 3.4 44.2 24.5 45.9 22.6h.2Z" class="outline shading" data-original-prefix="shading" opacity="0.5" style="opacity: 0.5"/><path id="outline-mouthbit5" fill="#000000" d="M1258.8 1574.3c19.6-2.3 36.6 10.9 35.2 31.3-.6 9.9-14.3 39.8-21.5 46.4-18.5 17.2-54.1-3.1-56.5-26.5-2.4-23.1 20.2-48.6 42.8-51.2m0 10c-19.6 2.7-40.3 28.1-32.6 48 4.9 12.7 25.8 23.6 37.7 15.1 6.4-4.5 18.9-33 20-41 2.1-15.9-10.4-24.2-25.2-22.2Z" class="outline" data-original-prefix="outline"/><path id="outline-mouthbit4" fill="#000000" d="M1419 1630c-3.6 8.9-13.1 18-15.3 27.2-1.4 6-.9 15.9-.7 22.4 0 3.9 3.3 14.9-.9 17-2.2 1.1-4.5.9-5.9-1.1-2.8-3.9-5.6-29.4-5.1-34.9 1.2-12.3 12.6-36 28-30.5Z" class="outline" data-original-prefix="outline"/><path id="outline-mouthbit3" fill="#000000" d="M1433 1708c-5.7-3.6-8.6-11.4-9.8-17.8-3.1-16.4 2-36.3 14.7-47.8 2.2-2 18.1-13.4 18.1-6s-8 8.6-9.4 10.6c-5.4 7.3-13.6 24.5-13.6 33.4v27.5Z" class="outline" data-original-prefix="outline"/><path id="outline-mouthbit2" fill="#000000" d="M1387.9 1722c-2.6-1.7-4.3 3.2-6 4.4-4.1 3.1-11.1 0-15.8-1.2-5.5-1.5-18.9-7.8-22.9-8-2.5 0-4.5 3-7 3.5-5.1 1.2-14.8-2.1-20.1-3.5-41.4-11.5-81.7-28.9-120.9-46.1-5.2-2-5.6-7.9-7.8-11.2-1.7-2.4-36.6-13.8-42.7-16.3s-27.4-10.6-30.8-14.2c-3.7-3.9-11-27.5-13-34-1.9-6.2-7.5-20.8-5.2-26.3.9-2.2 7.6-9.2 9.7-11.3 10.4-10 24.3-19.1 37.2-25.7l66 16.7c4.3 0 10.3-6.1 14.9-6.9 5-.9 15.4.4 20.9.9 48.7 4.4 95.4 19.4 141.5 34.5 3.1 2.2 5.2 9.3 8.1 10.9 8.1 4.6 24 3.3 32.4 11.6 1.8 1.7 3.5 6.2 5.2 6.8 3.6 1.2 15.1-2.1 19.7-1.8 7 .4 10.9 8.4 16.6 9.6 8.1 1.7 13.7-7.1 19.9 5 15.9 30.8-10 93.7-36.4 113.4-4.5 3.3-13.4 9.1-19 8.9-7.2-.2-10.5-11.2-13.1-11.7-4.4-.9-13.3 9-22.7 4.6-5.7-2.7-8.1-12.3-8.8-12.7h.1ZM1195 1563c-18.1-2.2-36.1-7.2-53.9-9.5-4.4 4.2-24.4 16.5-25.9 21.2-1.9 6.3 2.1 30.1 5.9 35.7s48.4 18.8 56.9 23.6c-2.6-20.3 1.3-41.6 10.8-59.7 1-2 7.5-10 6.2-11.3m178 26c-38.5-12.5-79.2-24.4-119.6-28.9-8.7-1-22.5-3.3-29.9 1.8-23.8 16.6-36 51.1-26.8 78.8 6 18 17.7 22.9 33.6 30.4 29.1 13.6 61.3 23.2 91.7 33.8-.9-7.1-5.3-12.8-7.5-20-11.4-38 6.2-75.6 41.2-92.8l17.3-3.2Zm-6 119c-11.8-26.2-2.6-72.3 19.5-91 3.9-3.3 14.3-6.6 6.5-10.5-46.1-23.3-74.8 42.7-62.5 79.5 3.4 10.3 26.3 19.8 36.5 22m95.1-75.1c-.2-.2-1.6-3.6-2.7-4.9-6.3-7.3-12.2-8.1-21.4-5.6-5.1 1.4-7.7 5.4-13.3 2.4-2.2-1.1-4.5-5.3-6.3-5.7-2.2-.5-6 1.8-8.8 1.8s-4.8-1.3-8-1.1c-9.6.8-20.4 20.5-23 29-4.2 13.9-8 48.6 9.7 54.3 3.9 1.3 10.7.8 13.8 2.2 4.3 1.9 3.2 9.7 9.8 10.3 5.6.5 9.7-5.1 11.9-5.6 3.1-.6 10.6 5.7 14.9 5.9 2.2 0 6.9-1.2 9-2 15.8-6.2 32-53.4 30.3-69.4-.3-2.4-2.1-9.7-3.4-11.6-4.8-6.7-10.8 1.1-12.4 0Z" class="outline" data-original-prefix="outline"/><g id="outline-mouthbit1" fill="#000000"><path id="outline-mouthbit" fill="#000000" d="M1237.5 1606.4c-.1 0-.3-.2-.4-.3s-.2-.3-.3-.5-.1-.3-.1-.5v-.5s.2 0 .3-.1c.1 0 .3 0 .4-.1s.3 0 .5 0h1.7v-.1s-.1 0-.2-.1-.2 0-.3-.1c-.1 0-.3 0-.4-.1s-.3-.1-.5-.2c-.2 0-.3-.1-.5-.2s-.1 0-.2-.1v-.5c0-.2 0-.4.1-.5s.1-.3.2-.5c0-.1.1-.3.2-.4.1 0 .2-.1.3 0 .2 0 .4 0 .6.2.2 0 .5.2.7.3s.5.2.7.3.5.2.6.3.5.3.8.4.6.3.9.5.6.3.9.5.5.3.7.5c0 .1 0 .3-.1.4s-.1.3-.2.5c0 .2-.2.3-.3.5s-.2.3-.3.3h-.3c-.1 0-.2-.1-.3-.2 0 0-.2-.1-.3-.2 0 0-.2-.1-.3-.2-.1 0-.2-.1-.4-.2s-.1 0-.2 0h-.1v.2c0 .2 0 .2.1.3s.1.3.2.4c0 .1.1.3.2.4 0 .1.1.3.2.4s.1.3.2.5.1.3.1.5v.3l-.3.3c-.1 0-.3.2-.5.2s-.3 0-.5.1h-.5c0-.1-.1-.2-.2-.4 0-.1-.1-.3-.2-.5 0-.2-.1-.3-.2-.5 0-.2-.1-.3-.1-.5s0-.2-.1-.3v-.2h-.3c-.2 0-.4.1-.6.2-.2 0-.3.1-.5.2-.2 0-.3.1-.5.2s-.3 0-.5.1-.3 0-.5 0Z" class="outline" data-original-prefix="outline"/><path id="outline-mouthbit1" fill="#000000" d="M1240.8 1608.9c.1-.3.2-.4.4-.5.1 0 .3 0 .5.1.2 0 .4.2.5.3 0 0 .1.2 0 .4 0 .2 0 .4-.1.6 0 .2-.1.4-.3.7s-.2.5-.3.7l-.3.6c-.1.2-.1.3-.2.4-.1.3-.3.7-.5 1s-.5.6-.7.8-.6.4-.9.5c-.3 0-.7 0-1-.1s-.5-.3-.6-.6-.1-.6 0-.9v-.4l-.2.1-.3.3c-.2.3-.5.5-.8.6s-.6 0-.9 0-.2 0-.3-.1-.2-.1-.3-.2l-.3-.3c-.1-.1-.1-.3-.2-.5v-.8c0-.3 0-.6.1-.9 0-.3.2-.7.3-1s.3-.7.4-1 .1-.3.3-.5c0-.2.2-.3.3-.5l.4-.4c.1-.1.3-.2.4-.2h.5c.1 0 .3 0 .5.2.2 0 .4.2.6.3s.5.3.9.4.3.2.5.3l.6.3c.2.1.4.2.5.3.1 0 .3.1.3.1Zm-4.5 1v.9c0 .1 0 .1.2.2q.3.15.6 0c.2 0 .3-.3.5-.6s.1-.3 0-.5c0-.1-.2-.2-.4-.3s-.2 0-.3-.1-.2 0-.2 0-.1 0-.2.1c0 0 0 .1-.1.3Zm2.2 1v.6c0 .1 0 .2.1.3s.2.2.3.2h.5c.2 0 .3-.3.4-.5s0-.2.1-.3v-.2s0-.1-.1-.2-.2-.1-.3-.2c-.3-.1-.5-.1-.6-.1s-.2.2-.3.4Z" class="outline" data-name="outline-mouthbit" data-original-prefix="outline"/></g><g id="cigar-label"><path id="outline-mouthbit2" fill="#000000" d="M1277.4 1617c-.2.5-.5 1-.7 1.5-1.5 1.2-2.9 2.4-4.4 3.6-.5.4-1.1.9-1.1 1.7v6.4c-.2.5-.5 1-.7 1.5-.6.7-1.3 1.3-1.9 2-1 1-2 2-3.5 1.8h-1.8c-1.1 0-2.3.2-2.8 1.4-1.1 2.2-2.2 4.4-3.2 6.6-.4.7-.9 1.2-1.7 1.3-2.2.2-4.4.5-6.5.7l-4-1.9s-.1-.2-.2-.3c-2-1.7-3.2-3.7-3.4-6.4-.2-2.2 1-3.8 2-5.6.6-1 1.1-2 1.4-3.1.1-.4-.1-1.2-.4-1.5-.5-.4-1 0-1.5.3-.9.8-1.3 1.8-1.7 2.8-.3.6-.7.9-1.3.7s-.8-.7-.8-1.2c0-.4 0-.8.2-1.2.5-2 .9-4 1.5-6 .7-2.4 1.6-5.2 2.3-7.6 0-.1 0 .1 0 0l3.5-7.6.9-1.5c1.2-1.8 2.3-3.6 3.5-5.4 1.3-1.9 2.8-3.7 4.2-5.6.5-.7 1.2-.8 1.6-.4.6.4.6.8.2 1.7-.5 1-.9 2-.9 3.1 0 .6.2 1.2.8 1.2.5 0 1.2-.3 1.3-.6.7-1.4 1.4-2.9 1.9-4.4.8-3 2.9-4.7 5.8-5.3 1.3-.2 2.7 0 4.1-.1 1.3.6 2.7 1.2 4 1.9 1.2 1.8 2.4 3.6 3.7 5.5.4.6.5 1.3.2 2-.8 1.8-1.6 3.7-2.4 5.5-.2.5-.4.9-.6 1.3-.3.8-.4 1.5.1 2.2l1.8 2.4c.6.7 1.1 1.5.9 2.5-.2 1.4-.2 2.7-.3 4.1Zm-30.2-5.2c-.6 1.9-1.4 3.8-1.8 5.8-.7 3.2 0 6 2.8 8 1.9 1.3 3 1 3.8-.8.6-1.2 1-2.5 1.6-3.7.3-.5.7-1 1.1-1.4 2-1.7 3.3-3.9 3.3-6.6 0-2.2 1.2-3.9 2.1-5.7.7-1.3.9-2.6-.8-3.4-2.5-1.2-5.8-.4-7.9 1.7-1.8 1.8-2.9 4-4.2 6.1m25.7-10.9c1.1-2.3.8-4.1-.2-6-.6-1.1-1.4-2.1-2.8-2.5-3.2-.8-6.3.9-7.6 3.7-.9 2-.8 4.1.4 6 .6 1 1.3 1.9 2.4 2.3 3 1.1 6.5-.7 7.7-3.5Zm-17.4 37.7c.1-.5.3-1 .4-1.5.7-3.1-1.4-7.8-5.8-7.1-2.5.4-4.4 1.7-5.3 3.9-1 2.3-.6 4.7 1 6.7.5.7 1.2 1.4 2 1.6 3 .9 6.4-.7 7.7-3.6m17.6-23.1c.8-1.5.9-3.2.4-4.8s-1.4-3.1-3.2-3.6c-2.7-.7-5.6.6-7 3-1.4 2.5-1.2 5 .4 7.3.6.8 1.3 1.6 2.4 1.8 2.9.5 6-1.2 7-3.8Zm-6.4 13.8c1-1.9.9-3.9 0-5.8-.6-1.3-1.6-2.4-3.2-2.6h-1.9c-2.1.4-3.8 1.4-4.8 3.3-1.1 2.1-1.1 4.3 0 6.4.6 1.1 1.4 2.1 2.5 2.4 3 .8 6.2-.8 7.3-3.7Z" class="outline" data-name="outline-mouthbit" data-original-prefix="outline"/><path id="outline-mouthbit3" fill="#000000" d="M1245.4 1597.4c-1.1.6-2.3 1-3.4 1.6-.1 0-.4.2-.2.3l7.1-1.2-2.2-1.4c1.2-.6 2.6-.9 3.7-1.4 0 0 .5-.2.2-.3l-8 .7 2.7 1.8Z" class="outline" data-name="outline-mouthbit" data-original-prefix="outline"/><path id="outline-mouthbit4" fill="#000000" d="M1235 1619.9c-.4-1.3-1-2.5-1.3-3.7 0-.1-.2-.4 0-.4l3.9 5.8-2.1-.2c.4 1.3 1.2 2.5 1.6 3.8 0 .1.2.5 0 .5l-4.7-6z" class="outline" data-name="outline-mouthbit" data-original-prefix="outline"/></g>
    </g>
</svg>