<?xml version="1.0" encoding="UTF-8"?>
<svg xmlns="http://www.w3.org/2000/svg" viewBox="0 0 2048 2048">
<style>
  .outline { fill: #000000; }
  .fill { fill: #ffffff; }
  .shading { fill: #aaaaaa; opacity: 0.5; }
</style>




<g class="background"><path id="color-brown" fill="#564624" d="M2048 4.5q-.15 1019.4 0 2038.8c0 3.8-.8 4.6-4.6 4.6q-1019.4-.15-2038.8 0c-3.8 0-4.6-.8-4.6-4.6C.2 1362.3.1 681.2.1 0h2043.3c3.8 0 4.6.8 4.6 4.6z" data-original-style="transition:fill .3s ease" style="fill: #564624" class="color"/></g>
<g class="trait-group" data-category="jaw">
  </g><g class="trait-group" data-category="jaw"><!-- Generator: Adobe Illustrator 29.1.0, SVG Export Plug-In . SVG Version: 2.1.0 Build 142)  --></g><g class="trait-group" data-category="jaw">
  </g><g class="trait-group" data-category="jaw"><defs>
    
  </defs></g><g class="trait-group" data-category="jaw">
  </g><g class="trait-group" data-category="jaw"><path id="fill-jaw" class="fill" d="M1396.7,1438.7c-6.7,4.3-46.8-1.7-48.7.3l-12.2,69.8-57.2,29.3-1.4,1.6c-1.5,11.9,1.5,24.2.9,35.9-.3,4.9-1.3,15-2.3,19.7-.6,2.8-13.7,32.2-15,33.5s-16.1,8.9-16.7,8.3l-9.5-50-51,52c-7.7,5.7-20.7,9.3-27.5,15.5-14,12.7-25.2,37.4-42.1,47.9-5.4,3.3-61.3,25.7-66.7,26.3-13.8,1.7-33-3.3-47.7.2-17.7-10.3-50.1-16.2-66.1-26.9-14.3-9.6-28.3-35.6-41.4-47.6-6.7-6.1-19.9-9.6-27.5-15.4l-51-52-9.6,48.4c-.6.9-.9,1.7-2.2,1.5-.8,0-13.8-7.6-14.4-8.2-1.4-1.4-15.9-33.3-16.2-35.3l-.5-54.4-58.2-30.3-12.3-69.7c-8.1-1.2-45.1,3.9-49.5-1l-37.1-85-.5-3.4,31.5-70.6c5.3-1.6,29.1,0,31.3-6.7.8-2.3-.6-19.5-1.3-22.4-2.2-8.4-16.2-24-19.8-33.2-.7-1.7-1.2-3.1-.6-5,4.7-11.3,10.3-22.3,14.1-34,7.3-22.4,7.2-42.6,16.9-65.1,47.5-110.2,188.9-176,299.9-200.1,44.7-9.7,79.8-1.5,122.7,11.2,98,28.9,222.6,97.5,259,199,6.8,19,7,38.1,13.5,57.5,3.8,11.2,10.1,22.1,13.7,33.4,0,1.4-8.3,16.4-9.8,19.1-2.4,4.3-9.7,13.4-10.7,17.3-1.8,6.8-.6,15.6-2.3,22.5,9.9,7.9,21.3,4.2,32.4,6.5,9.6,23.9,23.5,46,31.4,70.6-9.8,26.3-22.2,51.8-33.2,77.7-1.3,3-1.7,9.3-5.1,11.4h0Z"/></g><g class="trait-group" data-category="jaw">
  </g><g class="trait-group" data-category="jaw"><path id="shading-jaw" class="shading" d="M1380.8,1185.8c-.2.4-2.1.7-2.8,1.7-8.6,10.8-16.2,26-21,39-4.2,11.4-5.1,22.7-13,32-18.8,22.4-51.8,45.5-78.3,57.7-5.4,2.5-12.5,3.7-16.7,7.8h20.5c2.7,0,5.1,1.2,7.9,1.1,18.1-.2,64.4-19.8,77.5-32.6,5.7-5.5,14.1-15.7,15-23.5,1.8,0,.7,2.4,1.5,4,3.1,5.9,15.5,5.2,21.5,6,.2,1.6-1.5.7-2.3,2.2-4.6,8.3-4.4,21.6-10.6,28.3-7.5,8.1-37.1,13.5-48.8,17.2-14.5,4.6-29.8,8.8-42,18.1l-52.8-14.8c-19.3-2.3-9.9,15.4-5.3,25.3,5.2,11.3,20.7,40,30.4,46.6,11.9,8.2,22.7-10.2,30-17,6.3-6,16.2-11.8,24.6-14.4,17.7-5.6,32.3,4.7,50.5,5.4,17.4.8,34.6-7.7,48.8-17.2,3.6-2.4,14.6-13.9,17.2-13.8,1.7,0,3.3,6.1,1.8,7.8-10.1,24.3-21.6,48-31.8,72.2-3.7,8.8-.8,14-13,15-9.3.7-15.8-1-24.2-1.8-4.8-.4-11.8,2.5-17.3-.2l-12.9,70.6-59,30.5c.4,11,2.6,23.6,2,34.5-.3,5.7-1.3,15.4-2.1,20.9-.5,3.1-13.4,31.4-15.4,33.6-3,3.2-11.6,6.2-15.5,9-.8-4.9-2.7-10.6-3-15.5-.6-11.2,2-11.3-2.7-23.2-.4-1.1-1.9-1-2.2-2-.8-2.2-.8-6.7-1.1-9.2l-2.3.2-50.2,51.8c-7.7,5.2-19.5,8.7-26.5,14.5-14.2,11.7-24.4,36.1-41.5,47.5-6.7,4.5-54.2,25.7-61.2,26.8-9.9,1.5-51.8,1.6-61.5,0-6.9-1.2-49.7-20.5-57.3-24.7-15.8-8.9-30.2-37.8-44.4-49.6-6.9-5.7-19-9.3-26.5-14.5l-51-52c-1,8.1-7.3,16-8.1,24-.6,6.2.6,14.6-.3,21.6-.2,1.7-3,1.8-2.1,4.4-.6.7-14.6-8.1-15.5-9-1.7-1.8-15-30.8-15.4-33.6-.7-4.4-.9-13-1.1-17.9-.5-12.2.6-24.4.5-36.6l-58.5-31.4-13-69.5-48.8-.2-38-86.6.9-6.2c8.2.4,11.8,8.2,18.6,12.7,25.3,16.9,38.4,19.8,68.5,13.9,17.1-3.4,19.1-7.5,37.2.4,15.9,7,19,16.2,30.6,25.4,9.6,7.6,13.6,7.9,22-1s31.8-49.1,32.1-60c.2-8.7-6.4-8.1-13.3-7.2-8.6,1.1-48.4,15.1-51,14.6-1.7-.4-12.3-7.9-16.5-9.6-20.3-8.4-48.8-11.8-67.2-20.8-14.9-7.3-11.3-20.9-17.7-33.2-.9-1.6-2.5-.6-2.3-2.2,6.3-.9,17,0,21-5.5,1-1.4.3-3.7,2-3.5,3,11.7,15.2,23.9,25.1,30.4,21.2,13.8,50.4,23.7,75.4,23.5h20.5l-34.7-16.8c-19.1-10.8-48.2-33.1-61.8-50.2-6.2-7.8-7.1-18.3-10.5-27.5-6-16.6-14.4-32-25-46,1.3-9,6.5-19.6,7.8-28.2,1.9-12.9,1.8-19.5,6.5-32.5,36.4-101.1,159.2-169,256.8-198.2,49.9-15,102.4-18.2,153.2-5.2,103.5,26.4,242.6,100.3,277.2,208.8,3.4,10.5,3,17.3,4.8,27.2.8,4.7,8.9,28.4,7.6,30.6l-.5-.2ZM1195.9,1382.1c-32.3-16.1-63.1-35.3-95.9-50.7-17.5-18.7-37.4-36.6-54.6-55.4-4.8-5.3-11.2-16-16-20-3-2.6-7.4-3-10.6-.6-4.5,3.4-12.7,16.4-17.4,21.6-16.7,18.6-36.8,35.6-53.6,54.4-32.9,15.3-64,34.2-96,51.2-.6,2.8,12.4,35,14.6,40.3,2.9,7.1,12.1,31.7,16,36.1,7.1,8,36.5,26.3,47,33,19.8,12.7,36.1,22.9,59.3,28.7,27.3,6.8,39.7,7.1,67,.6s43-16.6,65.7-31.3c10.4-6.8,35.9-22.5,43.4-30.6,4-4.4,12.7-27.4,15.6-34.4,2.1-5.1,16.8-41,15.5-42.9M728.3,1496.7c1.6,2,8.2,6.3,10.7,7.8,14.7,8.8,31.8,13.8,46.9,23.1,16.8,10.2,40.2,33.1,59.6,33.5,2.3,0,8.7-1.2,9.4-3.7s-13.6-27.6-16.4-30.3c-7.3-7.1-27.5-17.2-37.2-23.8-15.2-10.3-50.3-39.1-67.9-39.2-10.5,0-8.7,28.1-5.1,32.7h0ZM1319.7,1466.3c-5.9-5.9-24.1,4.1-30.4,7.6-16.2,8.9-31,21.4-46.2,31.8-12.7,8.7-30.1,15.7-38.6,28.4-2.2,3.4-10.8,17.7-11.4,20.7-1.1,5.3,6.2,6.5,10.3,6.3,16-.9,23.4-9.7,35.2-17.8,9.2-6.3,19.3-13.6,29-19,11.7-6.6,47.1-19.2,52.7-29.3,2.4-4.3,2.8-25.2-.7-28.6h0ZM1126,1664c-12-2.7-20.7,6.6-31.6,7.9-5.7.7-12.2-1.2-16.6-.7-7.1.8-22.9,12.1-31.2,14.9-14.8,4.9-30.2,4.7-45.1,0-8.8-2.8-23.9-14.1-31.2-14.9-4.4-.5-10.9,1.4-16.6.7-11-1.3-19.9-11-31.6-7.4,0,6.9,23.8,23.5,30,27,12.5,7.1,59.8,26.8,72.5,26.6s59.9-19.8,72.2-26.9c10.3-6,24.6-16.2,29.3-27.2h-.1Z"/></g><g class="trait-group" data-category="jaw">
  </g><g class="trait-group" data-category="jaw"><path id="outline-jaw" d="M676,1140c5.2-3.1,18.7-3.2,19.1,4.5,0,2.3-.8,11.2-1.1,14-.3,3-.9,8.4-2.1,10.9-2.5,4.9-17.3,13.6-20.1,19.9-1.2,2.6-6.4,25.9-6.7,29.3-.2,1.7,0,2.8.4,4.4,2.1,6.9,13.8,19.7,17.7,27.3,5.7,11,7.2,24.3,12,35s13.5,10.7,22.5,15.6,17.7,11.1,25.3,17.2c-3.1,0-6.3.2-9.4,0-7.7-.8-35.8-6.7-41.8-10-6.1-3.3-8.8-18.4-12.8-20.4-2.5-1.2-7,0-10.3-.7-6.7-1.2-9.9-7.8-17.5-1.5-6.7,12.4-14.3,24.3-20.4,37.1-7.4,15.4-14.8,25.1-4.8,41.2,5.2,8.4,23.4,27,25.6,34.4,2.5,8.4-2.4,27.4,2.4,33.6,5.4,6.9,20.6,5.2,27.7,1.7,11.1-5.5,9.2-10.1,14.9-19.1,5.3-8.3,20.9-24.3,30.4-26.7,7.7-1.9,12.3,10.3,14,16,4.9,15.9,2,31.2,13.9,44.1,1.1,1.2,9,8.5,10,7.5-.8-5.6,4.8-8.4,6.5-13,3-7.9-3.1-20.6-5-29-2.8-12.3-5.1-24.7-8-37-1-4.1-6.2-19.9-5.4-22.3,1.2-3.8,23.7-9.1,24.9-10.7.4-.5-2.9-8.7,0-12.6,1.3-1.8,8.8-6.8,11.1-8.9,3.9-3.5,23.1-22.9,25.7-23.4,4.4-.8,5.2,2.4,8,3.6,5.1,2.1,10.8,2.5,15.7,4.3,1.1.4,2.4.5,2.5,1.9-11.2,6.3-23.6,13-34.3,20.2-2.7,1.8-16.6,11.8-17.6,13.4-1.6,2.6-2.2,9.7-2.2,12.9l3,44.5c-9.8-13.1-8.1-31.3-10-47-2.5,1.9-15.3,3.5-15.9,5.6,4.5,18.6,8.6,38.8,15.1,56.7,7.3,20.1,19.2,40.4,27.7,60.3,11.1,7.8,27.2-5.8,33-15,5.6-8.7,8.1-23.6,22.5-13.5,11,7.7,22.9,21.4,33.5,30.5,48.3,41.3,92.1,59.6,157.4,50.3,40-5.7,69.7-25.7,99.7-51.3,6.2-5.3,32.4-31.5,37.5-32.5,11.9-2.2,14.8,13.8,21.4,21.5,7.4,8.7,17.4,14.2,29.1,12,4.4-.8,21.2-8.4,26.3-10.7,9.2-4.2,20.3-11.4,27.2-18.8,10.4-11.3,8.4-24,12-38,1.7-6.6,6.3-23.8,15.5-21.6,10.7,2.6,27.2,21,32.6,30.4,1.7,3,2.2,6.8,3.9,9.1,6.3,8.5,28.5,13.3,36,5.1,5.6-6.1.4-25.5,2.9-34.1s20.4-25.8,26-35c9.4-15.8.8-28.3-6.5-43.3-5.8-11.8-13.2-22.7-19.2-34.3-7.1-5.6-12.2.4-18.5,1.5-2.9.5-6.9-.4-9.3.7-3,1.4-6.8,14.4-9.5,17.5-1.4,1.6-7.6,4.3-9.9,5.1-8,2.8-25.7,6.6-34.3,7.7-3.4.4-6.8.2-10.2.2,6.6-5.5,15.7-12,23.3-16.2,11.5-6.3,19.8-5.1,25.5-19.5,3.9-9.8,5.3-20.7,10.3-30.7,3.9-7.7,16.9-22.6,18.7-29.4.4-1.7.2-2.8,0-4.5-.6-4.4-5.6-25.6-7.2-28.8-3.7-7.3-19-15.9-20.5-21.5-.8-3.2-2.6-24.3-1.6-26.4,2.1-4.5,12.7-3.4,16.5-1,.5,1.9,4.4,14,5,14.5,6.2,5.3,26.1,4.1,26.1,17s-1.7,15.9.2,26.7c1.7,9.8,9.7,22.5,6.4,31-2.3,6-12,20.9-15.9,27.1-3.6,5.6-8.1,10.6-11.8,16.2,8.8.3,18.9-17.9,26.1-12.1,3.4,2.8,13.7,18.6,16.7,23.3,5.1,7.9,10.9,17.6,15.1,25.9,3.9,7.8,17.4,38.8,16.1,45.8-.2,1.2-13,15.6-15.2,18.8-10,14.2-21.3,32.5-25.7,49.3-1.9,7.2-2.7,14.7-4,22-1,1.4-27.6,11.9-31.1,12.9-10,2.9-17.2,1.5-24.9-5.4-.9,8.8-2.6,17.7-3,26.5s1.7,33.1-.8,39.2c-.6,1.5-11.3,15-12.5,15.5-6.3,3-15.7-1.7-24.7,3.3-22.6,12.7-18.8,48.5-26.9,68.1-6,14.6-40.4,52.5-54.6,59.4-1.2.6-2,1.3-3.6.9,1.2-14.7,3-35.1-3.9-48.6-.4-.8-.4-3.2-2.1-1.4-.7.7-3.6,13.8-6.6,17.9-8.6,11.7-30.9,6.8-39.2,20.8-5.2,8.9-7.6,22.3-13.4,30.6s-48.5,28.9-59.6,33.4c-15.1,6.1-64.1,21.2-78.8,21.2s-63.4-15.1-78.8-21.2c-11.1-4.4-55.3-26-60.6-34.4-6.9-11.1-8.5-31.6-21.5-37.6-14.4-6.6-26.5-2.6-33.9-20.1-1.1-2.5-2.5-10.3-2.8-10.7-1.3-1.6-1.8.4-2.2,1.3-1,1.8-4.8,14.6-4.8,16.2v30c0,.3,1.4,1.4,1,2.5-1.7.2-3-.3-4.4-1.1-15.2-8.7-49.8-45.6-54.8-62.2-6.2-20.6-5.2-52.1-25.9-65.1-8.2-5.2-18.3-.3-24.7-3.3-.9-.4-12.2-14.2-12.7-15.3-2.1-5.2-.2-29.6-.5-37.4-.4-9.1-2-18.5-3-27.5-4,1.6-7.6,4.7-11.9,5.6-2.8.6-5.6.7-8.5.3l-35.7-14.3c-1.5-7.3-2.1-14.8-4-22-4.3-16.8-16.4-36.3-26.5-50.5-2.2-3-13.9-15.8-14.2-16.8-1.1-3.6.8-8.3,1.8-11.8,5-18.6,17.3-42.1,27.6-58.4,2.5-4,17.5-26.2,20.1-26.9,6.2-1.8,15.2,12.1,22.3,12.8.7-.7-9.3-13.3-10.4-15.1-4-6.2-14.5-22.3-16.8-28.2-2.7-7.1,5.4-22.1,6.9-30.5,1.9-10,.2-18.4,1.3-27.7,1.2-11,17.6-11.6,25.8-15.7,2.1-4.7,2-9.6,3.2-14.8h.4v-.2ZM799,1627.5v-20c0-3.5,9.1-26.6,11.7-27.4,6.9-2.2,27.9,17.6,32.8,22.9,7.6,8.1,14.7,20,23,27,10.5,8.8,23.6,12.8,33.5,23.6,22.2,24.2,21.6,36,55.1,50.9,29.5,13.1,59.4,23.9,92.4,17.4,12.7-2.5,58.9-21.3,68.9-29.1,12.4-9.6,23.1-31.8,35.2-42.8,9.6-8.8,25.5-14.6,34.6-23.4,6-5.9,12.7-15.8,18.4-22.6,2.8-3.3,8.4-7.2,10.3-10.7,4.4-8.2,10.5-40.4,10.3-49.8-.3-12.5-3.5-25.3-4.2-37.8-17.1-12.8-20.5-.4-31.4,9.3-16.5,14.9-41.1,22.8-63,25-69.4,7-135.6,7-205,0-22-2.2-46.4-9.9-63-25-7-6.3-10.5-15.9-22-15.1-3.7.3-6,3.1-8.5,3.7-4.9,1-22.9-12.7-28.3-15.8-18.4-10.2-46.1-20.5-61.1-34.9-6.9-6.6-2.4-11.8-2.5-19.5s-3.8-23.4-6.8-30.2c-.5-1.1.2-1.5-1.7-1.3-9.4,1.3-19,20.2-19.3,28.8-.2,6.3,6.7,18.5,7.6,26.9,1.5,13.9-4.4,40.4,8.8,49.2,12.8,8.6,39.9,13.7,50.8,26.2,5.7,6.6,1.5,7.9.7,14.6-3.6,29.6,1.4,55.9,20.9,78.9.5.6,3.9,4,2,1h-.2ZM1248,1630c19.4-21.2,26.1-39.8,25-68.5-.3-7.8-4-21.4,0-27.8,4-6.1,20.2-13.6,27.2-16.8,15.2-7.1,31-7,32.7-27.3,1.3-14.8-1.6-26.3,2.5-41.5,3.4-12.7,7.8-13.2,2.5-27.5-2.8-7.7-9.2-17.6-18-18.4-5.5,13.3-7.4,26.1-7,40.5,0,3,2.2,4.9,0,8.1-1.5,2.2-16.5,12.2-19.8,14.2-9.2,5.7-59,28.5-60.9,35.1-2.7,9.4,7.3,31.3,8.6,41.6l-10,40.5c2.4-1.4,5-2.6,7.9-1.9,6.7,16.4,13.1,31.6,9.1,49.9v-.2h.2ZM780,1448c-2-1.4-5.5,2.6-5.8,4.7-.9,5,7.2,15.1,12.8,15.2-.9-2.6-6.1-19.4-7-20h0Z" class="outline"/></g><g class="trait-group" data-category="jaw">
</g>
<g class="trait-group" data-category="mouth"><path id="fill-muzzle" fill="#fff" d="M1125 1622c-3.4-2.3-6.5 6.6-8 8.5-3.7 4.7-17.7 19.6-23.5 19.5-2 0-5.3-4.8-7.8-6.2-7.4-4.3-19.1-5.3-26.8-1.4-4.2 2.2-10.1 9.4-13.4 9.7-7.7.5-10.7-10.3-17-11.2-2.3-.3-9.7-.3-11.5.6-3.2 1.4-8.9 10.8-13.7 11.3-3.1.3-10.3-8.4-13.4-10.2-6.5-3.8-16.5-3-23.5-.6-4.3 1.5-10.5 8-12.8 7.8-5.8-.5-18.9-14.5-22.7-19.3-1.6-2-2.1-4.7-3.5-6.4-5.4-6.8-5.6 3.9-7.6 7.3-9.4 15.7-21-13.3-24.8-18.9-2.4-3.5-7.2-5.7-10-9-9.7-11.6-6.4-27.5-10.3-40.7-1.7-5.8-11.6-19.5-14.9-27.1-10-22.6-12.3-43.5-10.8-68.2-2.4-7.1.4-27.9-4.5-32.5-2.1-2-6.1-2.7-8.5-4.5-5.9-4.5-12.8-32.2-11.9-39.8 1.1-9.4 12.1-25.4 18.4-32.6 12.3-14.3 37.4-24.6 56-26 4.8-.4 28.1 1.1 29.5.5s5.1-5.4 7.1-6.9c8.7-6.5 17-9.5 27.7-11.3 3.7-.6 7.6.4 11-1 3.1-1.3 11.4-13.2 17.3-16.7 10.5-6.1 38.9-5.7 51.5-4.6 5.7.5 13.4 3.6 18 7 3.7 2.8 11.2 13.2 13.8 14.2 3.3 1.4 7.3.4 11 1 8.9 1.5 16.5 3.9 24.1 8.9 2.7 1.8 9.7 8.9 10.7 9.3 1.3.6 23.9-.9 28.5-.6 16.1 1.1 33.8 7.8 46.8 17.2 12.1 8.8 30.2 32.8 28.7 48.3-.4 4.3-7 26.5-9.2 29.8-3.6 5.6-10.6 4.5-13.7 10.3l-3.2 43.8c2 20.7-2.7 38.4-11.1 56.9-3.2 7-11.5 17.9-13.4 23.6-4.4 13-.9 27.8-9.6 40.4-2.9 4.2-8.2 6.2-10.8 10.2-1.6 2.3-2.2 5.7-3.8 8.2-2.8 4.2-10.6 16.7-16.2 14.9-7.1-2.2-6.8-12.8-8-13.6h-.2Z" class="fill" data-original-prefix="fill"/></g><g class="trait-group" data-category="mouth"><path id="fill-teeth16" fill="#fff" d="M995.3 1525.7c11 9.5 17.2-6.6 23.2 6.3 6.5 14.1 3.7 38.4-1 52.9-.7 2.1-7.1 16.9-8 17.1-1.2.3-3-.4-4.2-.9-12-5.1-31.7-18.1-39.1-28.9-10.6-15.5-6.4-42.9 6.8-55.8 1.3-1.3 9.1-5.6 10.4-5.3 1.5.3 9.4 12.3 12 14.5h-.1Z" class="fill" data-original-prefix="fill"/></g><g class="trait-group" data-category="mouth"><path id="fill-teeth15" fill="#fff" d="M1039.1 1601.9c-.8-.5-7.5-16.1-8.1-18.4-4.1-13.8-6.5-36.9-1.3-50.3 4.6-12 8.1-4.3 15.8-4.2 9.5.2 17.3-18.2 20.8-17.9 1.2 0 8.5 4.2 9.7 5.3 6.3 6.2 12.2 22.3 13 31 2.4 28-20.3 39.6-41.3 50.7-2 1.1-5.7 5.5-8.6 3.7Z" class="fill" data-original-prefix="fill"/></g><g class="trait-group" data-category="mouth"><path id="fill-teeth14" fill="#fff" d="M904 1461c0 2.2-1.1 3.8-.8 6.2.2 1.8 7.1 22 8 23.1 3.9 5.1 11.2 3.2 16.7 3.8 4.9 13.5-4.2 23.8-8.6 35.6-2 5.3-8.7 33.1-12.8 34.2-1.8.5-6.8-9.1-8.3-10.7-10.3-23.9-15.3-58.4-2.6-82.2.6-1.2 7.1-11.6 8.4-10.1Z" class="fill" data-original-prefix="fill"/></g><g class="trait-group" data-category="mouth"><path id="fill-teeth13" fill="#fff" d="M1144 1564c-2.1 1.4-6.1-7.1-6.8-8.7-3.2-7.9-4.4-17.4-7.5-25.5-4.3-11.6-13.6-22-8.6-35.6 4.8-.6 12.3 1.2 15.9-2.9 1.3-1.5 8.1-20.6 8.6-23.2.3-1.8-1.4-7 .9-6 6 2.7 13.7 26 14.4 32.6 1.4 13.9-2.9 45-9.3 57.4-.8 1.5-7 11.6-7.6 11.9" class="fill" data-original-prefix="fill"/></g><g class="trait-group" data-category="mouth"><path id="fill-teeth12" fill="#fff" d="M1093.1 1644.9c-2.9-1.8-2.4-28.5-2.1-33.4.7-10.5 5.2-31.2 8.9-41.1 1.1-2.8 2.4-1.4 4.2 0 12.2 9.6 21.1 44.8 12.8 57.9-1.9 3-15.6 14.9-18.9 16.1-1.3.5-3.8 1.1-4.8.4Z" class="fill" data-original-prefix="fill"/></g><g class="trait-group" data-category="mouth"><path id="fill-teeth11" fill="#fff" d="M949 1569c5.5 22 11.1 44.4 9 67.5-.5 5.2-.9 10.3-7 8-3.4-1.3-17.5-13.4-19.5-16.5-5.8-9.2-1.4-31.3 2.7-41.2 1.2-2.9 11.3-21 14.8-17.7Z" class="fill" data-original-prefix="fill"/></g><g class="trait-group" data-category="mouth"><path id="fill-teeth10" fill="#fff" d="M881.7 1478.3c3.1 2.8-2.7 21-2.8 26.2 0 5.9 2.6 12.4 3.1 18 .2 2.1.7 24.5-.5 24.5-1.5.2-2.1-1.1-2.9-2.1-15.6-18.9-34.8-51.8-17.4-75.3 6.5-8.8 10.5 2.1 14.9 5.8 1.8 1.5 4.9 2.1 5.7 2.8Z" class="fill" data-original-prefix="fill"/></g><g class="trait-group" data-category="mouth"><path id="fill-teeth9" fill="#fff" d="M1185.7 1467.3c1.9 1.6 7.8 13.7 8.2 16.2 3.2 20.7-9.8 47.3-23.9 61.9-.9 1-1.3 1.9-3 1.5.5-8-.7-16.6 0-24.5.4-5.4 3.1-12.3 3.1-18s-6.1-23.4-2.8-26.2c.6-.6 2.5-.6 3.8-1.7 3.4-3 10-13.1 14.7-9.3Z" class="fill" data-original-prefix="fill"/></g><g class="trait-group" data-category="mouth"><path id="fill-teeth8" fill="#fff" d="M1018 1613v16.5c0 .9-10.8 13.2-11.9 14.1-6.3 4.8-8-2.6-10.6-5.5-5.5-6-17.9-.4-24.4-5.6-1.2-.9-4.1-8.8-4.1-9.9v-22.5c12.9 1.7 28.3 17.5 41.4 15.9 3.5-.4 6.1-3 9.6-2.9Z" class="fill" data-original-prefix="fill"/></g><g class="trait-group" data-category="mouth"><path id="fill-teeth7" fill="#fff" d="M1031 1613c6.3 1.3 9.1 4 16.1 2.6 10.6-2.2 24.3-14.8 33.4-15.6 2-.2 1.4 0 1.2 1.3-.8 6.5 2.4 27.5-4.4 31.6-7 4.2-18.8-.3-23.4 4.6-2.1 2.2-3.6 8-8.4 7.6-1 0-14.6-13.5-14.6-14.6V1613z" class="fill" data-original-prefix="fill"/></g><g class="trait-group" data-category="mouth"><path id="fill-teeth6" fill="#fff" d="M1102.5 1494c3.3-.8 4.5 6.9 5.3 8.7 5.6 12.1 13 24.8 13.3 38.8.2 9-16 29.8-21.3 16.2-4-10.4-4.1-44.8-1.1-55.5.4-1.6 2.4-7.9 3.8-8.2" class="fill" data-original-prefix="fill"/></g><g class="trait-group" data-category="mouth"><path id="fill-teeth5" fill="#fff" d="M937.3 1559.7c-1.9-1.6-7.8-10.5-8.5-13-3.6-12.1 6-31.3 11.4-42 1.6-3.1 3.3-14.7 8-7.4 5.5 8.5 4.3 41.5 2.7 52.1-1.2 7.7-3.6 18.7-13.6 10.3" class="fill" data-original-prefix="fill"/></g><g class="trait-group" data-category="mouth"><path id="fill-teeth4" fill="#fff" d="M917 1563c-1.8 13.4 2.9 27.5 2 40.5-.6 9-4.4 18.4-5.5 27.5-6.2-6-10.5-16.1-11.4-24.6-.5-5.2.7-24.7 2.4-29.3.6-1.6 10.5-16.2 12.4-14.1Z" class="fill" data-original-prefix="fill"/></g><g class="trait-group" data-category="mouth"><path id="fill-teeth3" fill="#fff" d="M1135 1631c-.4-8.9-4.4-17.8-5.1-26.5-1-13.8 3.7-27.6 2-41.5 2.2-2.4 11.9 13 12.5 15 2 6.6 2.6 27.4 1.2 34.3-1.3 6.3-5.5 14.9-10.8 18.7z" class="fill" data-original-prefix="fill"/></g><g class="trait-group" data-category="mouth"><path id="fill-teeth2" fill="#fff" d="M1154.1 1604.9c-3.4-2-5.1-22.3-3.9-26.2.8-2.6 8.9-5.2 10.2-8.8l5.1-10.9c3.8 3.4 5.1 7.2 4.3 12.2-.7 4.2-5.4 22.7-6.9 26.2-.9 2.2-6.1 9-8.8 7.5" class="fill" data-original-prefix="fill"/></g><g class="trait-group" data-category="mouth"><path id="fill-teeth1" fill="#fff" d="M885 1559c-.3 3.7 1.7 9.4 4 12.2s9.5 5.2 10 8.3c-2 8.4 1.6 19.2-5.7 25.4-3.6-1.1-6-4-7.4-7.4s-6.5-23.6-6.9-27.1c-.5-4.2 1.2-10.6 5.9-11.4z" class="fill" data-original-prefix="fill"/></g><g class="trait-group" data-category="mouth"><path id="outline-shading-mouth2" fill="#000" d="M918 1443.5c.8 5.3 5.6 13.8 10.1 16.9 11.5 8.3 16.2-.3 22.4-9.4 2.5 5.4 3.4 11.5 6 17 1.4 2.8 5.7 12 7.5 5.5l4-11.5c1.6 7.5 6.3 15.4 11.5 21 4.3 4.7 18.8 15.4 24.6 9.6 2-2.1 8.3-17.9 10.8-22.2 1.2-2.2 7.8-13.8 9.7-13.3 1 .2 8.5 13.2 9.7 15.3 2.4 4.5 7.3 17.7 9.8 20.2 3.8 3.8 10.5.4 14.4-1.8 10.5-5.9 18.5-17.2 21.7-28.8l4.2 12.3c.3 1.2 1.9 2.4 2.8 1.7.6-.4 5.8-11.3 6.5-13 .8-2 2.8-12 4-12 6.8 10.7 12.9 18.4 24.5 7.5 8.6-8 9.3-23.8 7-34.5 3.5-3.1 21.1 16.1 26.6 16.9 9.1 1.4 17.6-11.8 19-19.9 3.5-20.5-12.9-39.2-30.9-46.2l-12.7-4.8c15.4 0 28.2 2.9 41.1 11.4 4.8 3.1 12.2 10.9 17.6 11.4 6.2.6 10.1-4.1 10-10-.4-19.3-25.8-38.1-39.7-48.8 15.4 2.4 34.6 11.8 45 23.5 7.8 8.8 19.1 25.1 19.1 37s-6.4 28.5-9.2 32.8c-3.3 5.3-11.7 5.4-13.4 10.6-.9 8.1-2.1 16.4-2.5 24.5-1.5 29 1.4 45.2-10.8 73.2-3.6 8.2-12.7 20.4-14.9 27.1-4.2 12.8-.7 26.4-9.1 38.9-3.2 4.8-8.4 6.7-11.2 10.8-1.7 2.5-2.4 6.1-4.2 8.8-4.5 6.7-14.6 23-21.6 8.9-1.6-3.3-1.3-12.9-6.7-6.2-1.4 1.7-1.9 4.4-3.5 6.5-3.7 4.7-17.7 19.6-23.5 19.5-2.2 0-4.5-4.1-6.6-5.4-7.9-5-21.1-6.3-29.2-1.4-7.3 4.4-9.5 13.6-18.1 6.8-8.6-6.7-6.4-10.8-20.1-9-5.6.7-11.4 12.6-16.9 12.1-2.8-.2-11.4-11.1-18.5-12.6-6.3-1.3-17.5.7-23 4.2-2.6 1.7-4.1 5.6-7.5 5.4-5.7-.3-19.8-15.8-23.6-20.5-1.2-1.5-4.4-10.6-7.1-6.9-2.5 3.4-.6 9.9-7.2 12.7-7 3-14.9-11.2-18.1-16.4-1.2-1.8-1.2-4.3-2.6-6.4-2-3-6.8-5.4-9.5-8.5-10.4-11.9-6.7-27.7-10.7-41.3-.8-2.6-5.6-8.5-7.3-11.7-18.4-35.7-16.4-45.6-18.4-84.6-.4-7.7-.6-20.7-2.2-27.8-1.5-6.2-11.1-6.1-14.2-11.8-3.4-6.1-9.3-29.6-8.6-36.4 1.2-10.3 16.2-31.2 24-38 10.5-9.2 26.2-16.5 40-18.5l-21.5 17c-7.2 6.4-26.8 32-14.8 39.9 9 5.9 16.7-4.5 23.7-9.1 12.7-8.4 25.3-11.8 40.7-11.8l-17.3 7.2c-18 9.4-33.1 32.7-22.1 52.8 1.7 3.1 8.6 10.4 12 11.1 9.1 1.7 20.7-15.4 29.5-18 .6 6.4-.9 14.3 0 20.5zm-37.1 40.6c-12.3-.5-17.1-20.2-22.8 1.5-3.4 13 1.2 26.4 9.4 36.5 1.5 1.8 12.7 13.1 13.9 12.9.8 0 2.5-2.3 2.8-3.2 2.9-7.1-3.2-12.2-4.2-19.2-1.5-9.8 0-18.7.9-28.4Zm301.8-8.9c-3.2.8-6.3 6-8.8 7.3-2.1 1.1-7.2 1-7.8 3.2-.5 1.7 3 10.8 2.9 14.8 0 3-1.5 13.9-2.2 16.8-.9 3.6-3.9 5.7-3.9 10.2s1.4 7.1 3.7 7.4c1.9.3 15-14.4 16.8-17 5.7-8.5 9-18.8 7.3-29.2-.5-3-4.4-14.5-8-13.6Zm-284.8 10c-4-2.3-6.5 9.9-6.8 12.5-1.2 10.5 3 38 8.7 47.1 1.9 3 5.4 6.9 9.2 7.3 3.7-15.6 12.6-29.2 21-42.5-2.3-.4-1.7-2.9-2.7-3.5-1.5-.9-7-1.9-9.7-3.1-4.7-2.2-12-7.7-15.6-11.4-1.2-1.2-3.8-6.2-4.2-6.3ZM1139 1552c8.3-2 11.9-12.2 13.9-19.6 3.1-12.1 6.1-33.4 1.1-44.8-3-6.9-5.8 1.7-8.3 4.1-3.9 3.8-11 9.3-16 11.6-2.5 1.1-7.8 1.8-9.1 2.7-.7.5-.5 1.8-1 2.7-.3.4-1.7.4-1.6.9 0 1 7.9 12.3 9.2 14.8 4.8 8.8 9.1 18 11.8 27.7Zm-197.7 5.7c8.1 8.1 9.5 0 10.5-7.3.8-5.6 2.7-20.6 1.7-25.4-3.6-17.2-21.3-15.9-21.6 3.6 0 6.8 4.6 24.3 9.4 29.2Zm161.5-44.5c-5 1.3-8.5 9.3-8.8 14.2-.2 4 2.4 28.5 3.8 31.3 2.5 5 7.5 0 9.8-2.7 6.8-8.3 11.6-30.7 4.5-39.5-2.7-3.3-4.8-4.4-9.2-3.3zM1023 1544c-.7-.7-.8-7-5.1-9.4-8.9-5-21.8-.8-32-4-10.4-3.3-9.4-13.1-16.1 1.8-2.9 6.4-9.1 24.4-6.3 30.7 1.1 2.4 17.8 15.6 21.2 17.8s18.2 11.7 21.1 10c3.1-5.6 9.3-9.5 12.6-14.9 1.8-2.8 4.1-11.5 4.6-11.9 1.6-1.7 1.7.5 2.1 1.4 1.6 3.6 2.1 6.8 4.5 10.5 3.3 5.2 9.2 9.3 12.4 14.6 3.1 1.9 15.5-5.9 18.9-8.1 4.5-2.9 22.9-17 23.9-21.1 2.2-9.7-6.6-28.3-10.9-37.2-4.9 1-7.8 5.2-12.7 6.7-9.2 2.8-28.2-1.6-33.7 6.3-.9 1.2-2.6 8.9-4.5 7zm-136 18c-.7-.6-3.5 0-4.5.9-6 6.2 2.4 31.6 14.6 27.6 4-1.3 3.8-9.4 2.8-12.9-1.1-3.9-7.2-4.1-9.8-7.2-2.1-2.5-2.7-8.2-3-8.5Zm274.1 0c-.3.3-.9 6-3 8.5-2.6 3.1-8.7 3.3-9.8 7.2-1 3.4-1.2 11.6 2.8 12.9 13.4 4.4 20.2-24.5 14.1-28.1-.9-.5-3.5-.9-4-.4Zm-216.4 7.2c-1.5.4-5.1 4.6-6 6.1-3.4 5.6-5.6 32.3-4.8 39.3 1.3 10.9 15.2 18 19.5 3.5 1.7-5.6 2.6-21.4 2.5-27.6 0-1.1-5.8-19.7-6.5-20.5-1.2-1.4-3.2-1.3-4.8-.8Zm153.3-.1c.2 6.6-5.4 14.7-6 20.6-.5 4.5 1 25.3 2.4 29.4 4.2 12.1 16.9 7.3 19.1-2.9 1.1-5.2 0-16.8-.6-22.6-1-9.7-1.7-25.5-14.9-24.5m-180 1.9c-20.5 3.8-17 28.7-9 43 4 2.9 10.4-17 10.7-19.8.9-7.5-2.9-15.5-1.8-23.2Zm218 43c2.5 1.8 7.2-9.1 7.7-10.8 3.9-12.8 1.6-30.1-13.7-32.2.5 7.4-2.8 16.2-1.9 23.4.3 2.7 6.4 18.5 7.9 19.6m-148.2 10.2c1.4.8 4.8 8.6 9.5 11 11.1 5.8 20.2-6.4 20.7-16.7.8-13.7-7.2-7.7-16.5-8.6-8.4-.8-15-4.8-21.8-9.2-5.5-3.5-13.6-14.6-14.7-1.4-.5 5.1 1.4 7.5 1.8 11.2s-2 5.9.5 10.7c4.8 9.3 18 1.3 20.7 2.8zm93.1-31.1c-2.1-1.5-19.7 12.7-23.9 14.4-2.3 1-7.9 2.3-10.5 2.5-10.5.9-18.8-5.4-16.4 11.4 1 7.3 7.9 15.8 16 15.1 9.4-.8 11.9-11.6 14.6-12.4 4-1.3 12.3 5.7 18.9-1.1 4.3-4.4 1.3-8.4 1.5-12.5 0-2.3 1.9-4.8 2-8.1 0-1.9-.8-8.5-2.2-9.4Z" class="outline" data-original-prefix="shading" opacity=".2"/></g><g class="trait-group" data-category="mouth"><path id="outline-shading-mouth1" fill="#000" d="M1041 1343c6.1.5 12.7-1 17.5-5 1.5-1.3.9-3.7 2.8-2.9 10.1 7.9 37.9 17.4 43.8 28.2 3.6 6.5 4.6 17.5-1.8 22.6-5.6 4.5-20.8 10.8-28 15-4.9 2.8-9.7 6.6-14.7 9.3-7.4 4.1-25.5 14.5-32.6 16.4-2.9.8-5.2.8-8.1 0-14.5-3.8-42.2-22.5-56.3-30.7-6.2-3.6-21.2-9.1-23.2-15.8-5.5-18.4 15.7-28.3 28.7-35.4 2.3-1.2 15.5-8.6 16.5-8.7 2.9-.3 4.2 2.9 6.7 4.2 4.2 2.3 10 3.2 14.7 2.8-.3-5.1-3.3-11.3-1.8-16.3.5-1.6 12.5-13.9 14.5-14.4 3.9-1 8.2-.3 11.6 1.9 1 .7 10.8 11.1 11.2 11.8 2.1 5-1.2 11.8-1.5 17" class="outline" data-original-prefix="shading" opacity=".2"/></g><g class="trait-group" data-category="mouth"><path id="outline-mouth3" fill="#000" d="M888 1333c-.7 1.9-2.2 2-3.8 2.7-12.3 5.2-24 8.3-33.2 18.8-6.6 7.6-18.9 26-18 36 .3 4 7.1 25.8 9.2 28.8 2.7 4 6.1 4.9 10.8 4.7-1.4-9 4.2-18.1 9.6-24.9 2.2-2.8 21.9-22.6 24.4-20.1-1.7 6.5-8.8 10.4-13 15.5-8.1 10-12.3 23.6-9.5 36.5 1.2 5.4 11.2 26 15 30 .6.7 7.1 6.3 7.5 6.5 2.4 1.2 5.6-3.8 6.5-5.5 2.5-4.3 3.1-9.7 5-14 4.4-10.2 9.3-18.3 18.5-25-5 13.9-9.5 44.6 1.5 56.1 4.6 4.8 11 2.5 15 5.1 2.1 1.3 2.5 5.4 4.2 5.8s7-3.1 9.4-3.5c9-1.4 12.6 16.9 18.7 17.4 2.5.2 10.2-12 18.4-9.4 5.5 1.8 19.2 24.8 24.4 23.6 5.8-5.9 3.6-12.3 5-19 1.5-7.6 8.3-12.6 9.4-22.6.8-7.2-1.7-26.6-4.7-33.1-1.1-2.3-5.5-10.7-6.8-12.2-3.4-4-15-9.2-19.8-6.1l-4.2 11.1c-4.8-4.4-9.5-9.2-14.5-13.5-3.7-3.2-10-6.8-13-9.9-4-4.2-15.6-27.9-15.7-33.2 0-6.8 17.5-22.4 21-29 5.4-4.1 29.2-2.8 35.7.2 8.4 3.8 12.4 12.1 18.5 17.5 5.2 4.5 2.5-1.7 2.5-3.6s.9-3.2.8-4.8c-.2-5.4-6.7-9.2-9.9-13.1-2-2.4-5.6-6.2-7-8.2-.9-1.3-4.9-7.8-5-8.8-.2-2.6 9.1-11.7 11.5-12.4 3.6-1-.5 5.5-.5 6.6-.4 5.2 5.9 4.1 9.3 5.6 1.2.5 3 2.7 3.2 2.7s2.4-2.7 3.8-3.2c7.8-3.2 11 1.2 6.8-11.7 1.6-1.7 12.5 9.1 12.9 11.7.6 4.5-17.6 23.1-21.1 27.5l-.8 12.7c1.7.4 2-.7 3-1.5 8.7-6.7 12.6-16.8 24.9-19.1 5.5-1 25.6-1.3 29.8 1.8 3.4 6.7 20.4 21.8 21 28.4.4 4.3-10.8 27.3-13.9 31.7s-9.8 7.6-13.8 11.2c-5.3 4.6-10.3 9.8-15.5 14.5-2.2.9-1.4-5.6-2.2-7.7-3.4-8.6-19-1.6-22.7 3.8-.7 1-7.1 13.9-7.3 14.7-2.7 12.8-5.5 27.3-.2 39.8 1.5 3.5 4.6 6.8 5.8 10.2 2.5 7.2-.5 15.2 5.8 21.2 9.4-2.8 19.1-24.9 27.9-24 5.2.5 13.2 10 14.9 9.8 5.8-.5 9.3-18.7 18.7-17.4 2.4.3 7.6 3.9 9.3 3.4s2-4.8 4.8-6.1c3.8-1.8 9.4-.4 13.3-3.7 11.5-9.7 8.1-43.1 2.5-56 1.6-1.7 11.3 10.4 12.4 12.1 5.1 7.8 6.1 15.5 9.7 23.3 1 2.1 4.8 9.8 7.8 8.2.4-.2 6.9-5.9 7.5-6.5 6.8-7.5 16-30.4 15.4-40.5-1.3-22.7-10.7-22.7-21.5-37.5-5.3-7.2 2.8-2.4 6 0 11.8 8.6 28 25.5 26.5 41 11.6 1.1 13.6-11.4 16.3-20.2 4.6-15.6 5.3-18.8-3.1-33.4-8.2-14.3-16.4-22.7-31.5-29.5-5.8-2.6-13.2-3.6-17.7-7.8 15.9 1.8 34.5 6.4 49 13.5 8.3 15 22.1 26.8 28.1 42.9l-15.2 44.9c-.9 3.7-13 4.8-13.8 5.8-.6.8-2.2 17.2-2.2 19.4-.2 31.7 2.4 50.4-13.1 79.9-2.6 5-12 16.3-12.6 19.4-.9 4.6 0 10.4-.5 15.5-.9 8.4-5.8 16.4-6.7 23.4-.4 3.5 1.3 7.7.8 9.7s-10.7 8.6-13.2 9.9c-2.2 1.2-5.7 1.5-6.5 2-.6.4-5.2 10.6-7.2 13.2-2.2 2.8-13.6 14.5-16.9 12.4-.6-.4-5.9-11.8-7.1-13.3-2.2-2.9-2.2 2.1-3.2 3.8-4.6 7.3-24.8 27-32.8 29.2-1.7.5-3.3.7-5 .5 1.1-8.2 2.6-16.6-8-18.6-9.7-1.8-16.2 7.5-18.5 15.6-1.2 4.3-1.2 16.7-7.8 14.9-4.3-1.2-20.3-25.6-23.2-30.8-5.5 8.6-11.5 19.1-18.5 26.5-1.8 1.9-6.9 7.7-9.3 3.3-2.8-5.3-2.5-14.6-5.5-20.5-3.8-7.2-14-11.7-21.2-6.8-6.6 4.6-2.9 10-3 16.5-3.4 3.4-23.5-12.8-26.5-15.9-1.5-1.5-11.4-13-11.9-14.1-.7-1.4-.2-6.3-2.6-3.3-2.1 2.6-6 14.4-10.2 13.3-2-.6-12-10.2-13.7-12.4-2.1-2.7-6.6-12.8-7.2-13.2-.8-.5-3.8-.6-5.8-1.7-2.5-1.4-11.8-7.1-13-9-2.3-3.8.4-6.7 0-10.8-1-7.2-5.8-15.5-6.7-24.4-.5-5 .6-10.7-.6-15.4-1-3.9-7.9-9.8-10.7-14.3-10.4-16.9-15.8-37.5-16.8-57.2-.8-15.6 1.6-31.1 0-46.5-18.8 0-17.3-14.5-21.7-27.8-2-5.8-9-19.6-8.1-24.5.6-3.1 5-9.2 7-12.1 2.9-4.3 18.7-27.3 20.9-29.1 1.7-1.4 8.5-4.5 10.7-5.3 9.6-3.2 28.2-7.1 38.2-8.3v-.7Zm16 128c-1.4-1.5-7.8 8.9-8.4 10.1-12.7 23.9-7.6 58.3 2.6 82.2 1.5 1.6 6.5 11.2 8.3 10.7 4.1-1.1 10.8-29 12.8-34.2 4.4-11.8 13.5-22.1 8.6-35.6-5.5-.6-12.8 1.4-16.7-3.8-.9-1.1-7.8-21.4-8-23.1-.2-2.4.8-4 .8-6.2Zm240 103c.6-.4 6.8-10.5 7.6-11.9 6.4-12.5 10.7-43.5 9.3-57.4-.7-6.6-8.4-30-14.4-32.6-2.3-1-.6 4.2-.9 6-.5 2.7-7.2 21.8-8.6 23.2-3.6 4.1-11.1 2.3-15.9 2.9-5 13.6 4.3 24 8.6 35.6 3 8.1 4.3 17.7 7.5 25.5.7 1.6 4.7 10.2 6.8 8.7m-262.3-85.7c-.8-.7-3.9-1.3-5.7-2.8-4.4-3.7-8.4-14.6-14.9-5.8-17.4 23.5 1.8 56.3 17.4 75.3.8.9 1.5 2.3 2.9 2.1 1.2 0 .7-22.5.5-24.5-.5-5.6-3.2-12.1-3.1-18 0-5.2 5.9-23.5 2.8-26.2Zm304-11c-4.6-3.9-11.2 6.2-14.7 9.3-1.3 1.1-3.1 1.1-3.8 1.7-3.3 2.9 2.8 21 2.8 26.2s-2.6 12.6-3.1 18c-.7 7.9.4 16.5 0 24.5 1.7.4 2-.5 3-1.5 14.2-14.6 27.2-41.2 23.9-61.9-.4-2.6-6.3-14.7-8.2-16.2Zm-83.2 26.7c-1.4.3-3.3 6.6-3.8 8.2-3 10.7-2.9 45.1 1.1 55.5 5.3 13.6 21.4-7.2 21.3-16.2-.2-14-7.6-26.7-13.3-38.8-.8-1.8-2-9.4-5.3-8.7m-165.2 65.7c10 8.3 12.4-2.6 13.6-10.3 1.6-10.6 2.8-43.6-2.7-52.1-4.7-7.3-6.5 4.3-8 7.4-5.3 10.7-15 29.9-11.4 42 .7 2.4 6.6 11.4 8.5 13m58-34c-2.6-2.2-10.5-14.2-12-14.5-1.3-.2-9.1 4.1-10.4 5.3-13.2 13-17.5 40.3-6.8 55.8 7.4 10.8 27.1 23.8 39.1 28.9 1.2.5 3 1.2 4.2.9.9-.2 7.4-15 8-17.1 4.7-14.6 7.5-38.8 1-52.9-5.9-13-12.1 3.2-23.2-6.3h.1Zm43.8 76.2c2.9 1.8 6.6-2.7 8.6-3.7 21.1-11.1 43.7-22.7 41.3-50.7-.7-8.7-6.7-24.8-13-31-1.2-1.1-8.4-5.2-9.7-5.3-3.5-.3-11.2 18.1-20.8 17.9-7.8-.2-11.2-7.8-15.8 4.2-5.2 13.4-2.8 36.6 1.3 50.3.7 2.3 7.3 17.8 8.1 18.4ZM885 1559c-5.2 1.1-6.5 7.6-5.8 12.2s5.4 23.4 7 27c1 2.2 6.2 8.5 8.7 6.7 3.4-2.4 3.2-20.7 4.1-25.4-.6-3-7.8-5.5-10-8.3s-4.3-8.6-4-12.2m269.1 45.9c2.7 1.5 7.8-5.3 8.8-7.5 1.5-3.4 6.2-22 6.9-26.2.8-5-.5-8.8-4.3-12.2l-5.1 10.9c-1.4 3.6-9.4 6.1-10.2 8.8-1.2 3.9.5 24.2 3.9 26.2M917 1563c-1.9-2.2-11.8 12.5-12.4 14.1-1.8 4.6-2.9 24.1-2.4 29.3.8 8.6 5.2 18.6 11.4 24.6 1.1-9 4.9-18.4 5.5-27.5.9-13-3.8-27.1-2-40.5Zm218 68c5.2-3.8 9.5-12.5 10.8-18.7 1.4-6.9.7-27.7-1.2-34.3-.6-1.9-10.4-17.4-12.5-15 1.7 13.9-3.1 27.7-2 41.5.7 8.7 4.6 17.6 5.1 26.5zm-186-62c-3.4-3.2-13.6 14.8-14.8 17.7-4 9.9-8.4 31.9-2.7 41.2 2 3.2 16 15.2 19.5 16.5 6 2.4 6.5-2.8 7-8 2.1-23.1-3.5-45.4-9-67.5Zm144.1 75.9c1.1.7 3.6 0 4.8-.4 3.2-1.2 16.9-13.1 18.9-16.1 8.3-13.1-.6-48.3-12.8-57.9-1.8-1.4-3.1-2.8-4.2 0-3.7 9.9-8.2 30.6-8.9 41.1-.3 4.8-.8 31.5 2.1 33.4ZM1018 1613c-3.5 0-6.1 2.5-9.6 2.9-13.1 1.6-28.5-14.2-41.4-15.9v22.5c0 1.1 2.9 9 4.1 9.9 6.5 5.2 18.9-.4 24.4 5.6 2.6 2.9 4.3 10.3 10.6 5.5 1.1-.8 11.9-13.1 11.9-14.1v-16.5Zm64-13c-13.3 1.4-27.9 17.6-41.4 15.9-3.5-.4-6.1-3-9.6-2.9v17.5c4.1 2.4 11.4 14.9 15.4 14.5 5.4-.5 6.1-8.2 10.5-9.6 5.4-1.7 16.2 1.1 21-3 1-.8 4-9.7 4-11v-21.5Z" class="outline" data-original-prefix="outline"/></g><g class="trait-group" data-category="mouth"><path id="outline-mouth2" fill="#000" d="M1011 1292c-6.2 1-21.6 9.8-26 14.5-2.9 3.1-3.9 7.2-7.2 9.8-18.9.8-35.9 5.2-50.3 17.8-.9-.2-.3-1.9-.5-2 1.1-8.8 19.3-26.2 27.4-25 3.5.5 2.6 4.8 10 4 10.8-1.2 17.8-10.7 19.4-20.7.4-2.5-1.9-5.2 1.2-6.7 4.7-2.2 21.7 4.7 26 8.5z" class="outline" data-original-prefix="outline"/></g><g class="trait-group" data-category="mouth"><path id="outline-mouth1" fill="#000" d="m1122 1332-.5 3c-10.9-11.7-25.5-16-41-18-2.9-.4-6.9.7-9.5-.5-1.5-.7-4.5-7.4-6.5-9.5-3.4-3.8-14.1-10.6-19-12s-4.7-.4-8.6-2.9c4.2-4.1 21-10.8 26-8.5 3.1 1.5.8 4.2 1.2 6.7 1.9 11.3 12.7 24.5 25 19.5 4-1.6 2.6-4.3 9.2-1.6 10.8 4.4 18.3 14 23.6 23.9h.1Z" class="outline" data-original-prefix="outline"/></g>
<g class="trait-group" data-category="eyes"><path id="fill-eyes-main" fill="#fff" d="M1439.9 1144.1c-3.6 27.9-12.3 55.1-13.9 83.3-.4 7.7.9 16.7 0 24.1-1.3 11-25.5 16.1-34.3 19.7-20.4 8.4-25.3 24-38.8 39.2-55.4 62.9-122.1 75.3-200.5 47.6-42.5-15.1-69.2-37-93.5-74.5-2.7-4.2-10-19.4-13.2-20.8-1.5-.7-2.6-.7-4.2-.8-8.5-.8-27.8-.9-36.1 0-7.2.8-12.1 14.7-16.1 20.9-24.3 37.6-50.5 59.6-93.2 74.8-78.4 28-145 15.9-200.8-46.7-10.3-11.5-17.5-27.2-30.6-35.4-9.5-6-36-11.4-41.4-19.6-3.1-4.8-1.1-21.7-1.5-28.5-1.6-28-10-55.2-14.1-82.8 12.5-7.9 28.7-4.6 42.2-10 6.4-39.3 19.8-78.9 42.1-111.9 3.6-5.3 14.5-21.6 20.4-22.6 3.2-.6 7.4 1 10-1 1.3-.9 3.8-6.5 5.5-8.5 62-76.9 146.3-134.5 246.6-145.4 143.8-15.7 254.6 34.3 344.3 144.4 1.6 2 5.5 8.8 6.4 9.5 2.9 2.2 8.7 0 13.2 1.8 4.2 1.8 12.2 13.5 15.2 17.8 24.3 34.2 38 74.7 45.1 115.9 13 5.5 28.4 2.6 41 9.5Z" class="fill" data-original-prefix="fill"/></g><g class="trait-group" data-category="eyes"><path id="fill-eyes-frame" fill="#fff" d="M1005 1154.9c17.3-2.1 33.8-.3 51 2.1 1.7-12.1-2.8-7.9-13.9-9.1 1.3-19.1 14.4-40 25.5-55.3 12-16.7 35.3-37.8 54-46.5 12.6-5.8 30.6-6.6 43.8-11.2 3.6-1.2 7.8-4.1 11.6-5.4 23.6-8.2 61.9-10.1 86-4.1 58.3 14.7 98.9 62.2 120.1 116.4 5.6.5 11.1-.4 16.7.8 3.4.8 18.4 8.5 19.7 11.3 1 2.1-2.9 19.4-3.4 23.6-3 24.6-3.8 49-3.1 73.8-7.1 0-16.5 8.3-21.8 9.4-4.1.8-10.8-1.4-13.3.1-1 .6-9 18.3-10.8 21.4-21.6 36.3-58.2 67.7-99.5 79-22.2 6.1-46.6 5.4-69.1 3.8-7.4-.5-65.6-21.8-73.2-26.1-18.3-10.4-47.1-38.2-57.1-56.8-1.2-2.1-6.6-13.6-6.7-14.9-.3-3.6 6.7-1.7 6.4-4.7-.2-1.6-5.5-11.2-6.6-11.5-25.2 5.7-51.5 4.9-76.7 0-1.6.4-4.3 8.6-5 11.5-.3 1.2 7.1 1.2 6.7 4.7-.1 1.4-5.6 12.2-6.7 14.3-9.7 18-39.5 47-57.1 57.4-29.7 17.4-98 32.4-131.4 25.5-52.6-10.9-98.3-53.4-119.4-101.8-5.3-1.4-10-.9-15-1.9-5.3-1.1-14.7-9.3-21.8-9.4.3-22 .3-43.9-2.1-65.8-.5-4.9-5.2-28.9-4.7-30.9.7-2.8 12.1-8.9 15.1-10 7.6-2.9 13.8-3.2 21.8-2.1 7-13.9 12-29.8 20.5-43 31.3-49 86-84 145.8-78.7 24.3 2.2 70 14.7 92.7 23.6 17.8 7 43.7 33.6 54.8 49.2 13.3 18.5 24.1 38.1 26.2 61.3" class="fill" data-original-prefix="fill"/></g><g class="trait-group" data-category="eyes"><path id="fill-eyes-lens2" fill="#fff" d="M1213.8 1080.3c114.8-12.2 132 184 38.6 222.6-13.9 5.7-36.9 5.7-51.2 1.5-103.1-30.7-92.3-212.9 12.6-224Z" class="fill" data-original-prefix="fill"/></g><g class="trait-group" data-category="eyes"><path id="fill-eyes-lens1" fill="#fff" d="M808.8 1080.3c122.5-14.7 144.8 173.1 56.5 216.5-113.8 56-166.4-113-102.3-188.3 10.1-11.9 29.9-26.4 45.8-28.2" class="fill" data-original-prefix="fill"/></g><g class="trait-group" data-category="eyes"><path id="fill-eyes-strap3" fill="#fff" d="M1057.8 1158.2c2.9 2.5.3 11.8.2 15.2-.4 15.7-.2 32.4 2.2 47.9.6 4 6.2 26.3 5.4 27.7-2.1 3.5-28.1 5.8-33 6-8.4.3-44.2-.7-49.6-5.5-1.1-1-.6-1.4-.6-2.5.3-5.9 3.3-13 4.3-18.8 3.1-18.2 3.8-36.3 3.3-54.7 0-3.9-2.6-11.3-.1-14.8 1.3-1.8 24.7-4.5 28.5-4.7 5.6-.2 36.2 1.7 39.3 4.3Z" class="fill" data-original-prefix="fill"/></g><g class="trait-group" data-category="eyes"><path id="fill-eyes-strap2" fill="#fff" d="M1412.9 1251.9c-7.4 1.2-14 5-20.9 7.6 14.5-36 14-79.1 5-116.5 5.2-.7 22.6 7.9 23 12.5-6.5 31.7-7.7 64.1-7.1 96.4" class="fill" data-original-prefix="fill"/></g><g class="trait-group" data-category="eyes"><path id="fill-eyes-strap1" fill="#fff" d="M651 1143c-9.4 38.1-8.8 79.9 4.5 117-6.2-4.2-13.6-6-20.6-8.6.9-32.2-.6-64.3-6.9-95.9.5-4.6 17.8-13.2 23-12.5" class="fill" data-original-prefix="fill"/></g><g class="trait-group" data-category="eyes"><g id="fill-eyes-rivet"><path id="fill-eyes-rivet16" fill="#fff" d="M1143.7 1309.2c5.9-1.8 13.9 1.8 14.4 8.3 1.2 16.7-23.9 10.6-19.9-2.8.4-1.2 4.3-5.1 5.5-5.5" class="fill" data-original-prefix="fill"/><path id="fill-eyes-rivet15" fill="#fff" d="M897.7 1309.2c7.5-1.6 13.8 3.3 12.1 11.1-.8 3.7-7.7 7.8-11.3 7.8-9.6 0-12.8-16.3-.8-18.8Z" class="fill" data-original-prefix="fill"/><path id="fill-eyes-rivet14" fill="#fff" d="M897.8 1060.2c4.2-.5 10.5 2.7 11.8 6.8 3 9.4-9.2 14.7-16.5 8.5-5.4-4.6-2.2-14.4 4.7-15.2Z" class="fill" data-original-prefix="fill"/><path id="fill-eyes-rivet13" fill="#fff" d="M1147.8 1060.2c11.2-1.3 14.3 15.9 1.7 17.8-14.2 2.1-15.3-16.2-1.7-17.8" class="fill" data-original-prefix="fill"/><path id="fill-eyes-rivet12" fill="#fff" d="M703.7 1095.2c12.2-2.7 9.9 15.8-2.7 19.4-10.2 2.9-7.2-17.1 2.7-19.4" class="fill" data-original-prefix="fill"/><path id="fill-eyes-rivet11" fill="#fff" d="M1339.7 1095.2c8.5-2.6 14.8 8.5 13.3 16.3-1.7 8.7-17.3-1.2-16.9-9.9 0-2.1 1.5-5.8 3.6-6.4" class="fill" data-original-prefix="fill"/><path id="fill-eyes-rivet10" fill="#fff" d="M1086.7 1182.2c10.6-3.1 13.4 21.9 7.6 23.7-10.1 3.2-17.9-20.7-7.6-23.7" class="fill" data-original-prefix="fill"/><path id="fill-eyes-rivet9" fill="#fff" d="M1373.7 1174.2c13.9-2.5 10.9 30.5-1.5 25.1-9.7-4.2-6.7-23.6 1.5-25.1" class="fill" data-original-prefix="fill"/><path id="fill-eyes-rivet8" fill="#fff" d="M1252.8 1335.2c12.9-1.9 15.1 10 4.8 16.8-14.4 9.4-21.8-14.3-4.8-16.8" class="fill" data-original-prefix="fill"/><path id="fill-eyes-rivet7" fill="#fff" d="M1248.7 1033.2c15-3.4 22.4 13.8 11.3 17.3-12.8 4.1-23.8-14.5-11.3-17.3" class="fill" data-original-prefix="fill"/><path id="fill-eyes-rivet6" fill="#fff" d="M1343.7 1271.2c15-4.5 11.4 13.4 1.3 18.3-14.8 7.3-8.6-16.2-1.3-18.3" class="fill" data-original-prefix="fill"/><path id="fill-eyes-rivet5" fill="#fff" d="M957.7 1182.2c9.5-2.8 10.8 14.5 3.8 20.8-14.2 12.8-13.2-18-3.8-20.8" class="fill" data-original-prefix="fill"/><path id="fill-eyes-rivet4" fill="#fff" d="M671.7 1174.2c9.8-1.8 14.6 19.5 4.6 24.7-11.8 6.2-16.2-22.6-4.6-24.7" class="fill" data-original-prefix="fill"/><path id="fill-eyes-rivet3" fill="#fff" d="M790.8 1335.2c15.5-2.5 19.6 17.8 6.6 18.7-10.4.7-20.6-16.5-6.6-18.7" class="fill" data-original-prefix="fill"/><path id="fill-eyes-rivet2" fill="#fff" d="M791.7 1033.2c16.6-3.4 17.2 14.3 2.3 17.3-14.3 2.9-14.8-14.7-2.3-17.3" class="fill" data-original-prefix="fill"/><path id="fill-eyes-rivet1" fill="#fff" d="M697.7 1271.2c5-1.1 7.8-.3 10.7 3.8s7 15.5-1 15.9c-8.8.4-19-17.7-9.7-19.8Z" class="fill" data-original-prefix="fill"/></g></g><g class="trait-group" data-category="eyes"><g id="shading-eyes"><path id="outline-shading-eyes3" fill="#000" d="M808 1053c18.3-1.1 35.8 1.8 52.7 8.8 3.3 1.4 17.8 9.9 19 10 4.5.4 1.7-8.7 7.9-9.8 4-.8 2.7 4.3 4.6 7.4 6.1 10.4 12.8-5.4 17.9-4 8.6 2.4 6.1 14.8 2.4 20.6l-7.4 6.5c28.5 27.2 36.6 68.5 37 106.5 2.1-.9.9-7.1 3.5-8 4.4-1.4 4.3 9.4 10 10 6.5.7 14.6-18.5 16.3-.4 1.5 15.9-12.5 29.1-26.5 18.1l-4.3-8.7c-4.9 51.2-39.2 110.9-92.8 121.7-50 10.1-98.3-9.1-130.2-47.7-.8 8.9-1 15.6-10 19.5 10.4 16.7 25.8 28 43 37 3.5 1.8 22.8 11.7 25 9.5.3-4.1-1.8-14.1 4.5-14.1 5.1 0 5.7 10.3 12.7 12.4 8.8 2.8 23.2-10.6 18.8 7.7 26.8 2 51.7-7.1 76-17-6.8-4.3-12.8-24.8.3-21.8 4.6 1.1 5.9 7 14 4.6 6.5-1.9 1.9-12.9 9.2-11.8 4.2.7 6.3 7.5 7 11 19-14.9 36.6-34.2 48.9-55.1 7.5-12.7 9-19 11.4-33.6 3.8-23.7 5.1-47.8 6.2-71.8 2.5-6.4 6.3-5.2 8.2.8s2.7 18.8 2.9 25.1c.6 18.9-2.3 38.9-5 57.5 10.6 2.5 22.5 7.2 33.5 7.1s22.2-4.7 32.5-7.1c-3.3-19.5-6-40.6-5.1-60.5.3-5.4 1.1-16.6 2.5-21.5 1.1-4.1 4.6-8.5 7.4-3.3 2.2 4.1 1.6 23.7 2.1 29.9 1.4 16.8 3.1 34.2 6.3 50.7 3.7 19.1 14.4 35.3 26.7 50.3 5.3 6.4 23.6 26.7 30 30 1 .5 1.9.6 3 .5-.4-4.3 5.5-12.7 9.9-9.9 1.2.8.7 10.2 5 11.4 9.2 2.6 9.2-2.9 13.8-4.3 13.3-4 8.2 16.9 1.3 21.8 24 10.2 49.4 19 76 17-4-16.7 6.7-7.3 13.5-6.9 12.4.7 11.8-11.5 16.2-12.9 9.3-2.8 5.1 14.9 6.8 14.8 17.2-6 36.8-15.3 50.5-27.5 2.4-2.2 16.5-17.3 16.9-19.1.5-2.1-3.9-3-5.5-4.4-4.7-4.2-3.3-10.4-4.5-16-30.8 36.8-75 55.6-123.4 48.9-58-8.1-95.3-69.3-99.6-123.9l-2.6 6.9c-12.8 15.4-29.9 2.7-28.3-15.3 1.7-18.2 9.8 1.1 16.3.4 5.4-.6 5.1-11.4 10-10 2.6.7 1.3 7.9 3.5 9-.2-13.7.7-27.6 3.5-41 4.7-22.4 11.9-41.6 26.6-59.4 1.4-1.7 6.5-5.9 7-7 .8-2.1-5.3-2.2-6-4.2-3.9-5.9-8.4-15.1-2-20.8 7.5-6.6 9.3 6.4 16.3 5.4 6.7-1 4.3-10.9 8.2-10.9 6.2.1 5.9 9.6 6.6 10 1.7 1.1 11.3-5.5 13.8-6.7 19.3-9.2 38.6-13.8 60.2-12.3-1.2-2.1-3.8-8.8-.4-9.9 3.7-1.2 8.4 6.9 17.4 4.4 7.6-2 6.5-12 8.6-12.6 9.1-2.3 9.4 10.2 8.1 16.3-.8 4-5 5.8-4.8 9.7 16.4 4.7 33.2 15.3 46 26.5 2.8 2.5 14.4 15.4 15.9 16 1.2.4 2.8-.7 4.3-.3 2.8.8 2.5 5 9.2 3.8 5.4-1 7.4-9.1 14.1-8.9 5.2.1 4.9 16.5 3.5 20.5-2.4 6.8-8.4 7.4-14.1 10 6.7 14.8 11.6 30.7 13 47 .2 2.3-.5 13 0 13.5.2.2 3.8-.3 5.3.2s2 2.3 4.2 2.8c6.5 1.3 11.1-3.3 11.4-9.6 0-1.8-2.5-5.9.6-5.4 5.4.9 4.1 12.2 6.6 13.9.4.3 7.1-1.3 8.9 0 .6-11.5-1.4-22.9-4.5-34-1.9-6.9-7.8-17.8-6.5-24.5.7-3.8 6.2-4.4 8.4-1.4 10.3 21.6 12.5 44.1 16.4 67.4 5.6 2.9 8.4-5.4 14.1-5.4-3.4 20.2-4.8 40.8-5.2 61.3l-25.5 15.5c-21.1 5.8-28.9 25.7-42.3 40.7-57.2 64.2-122.6 75.3-203 46.9-45.8-16.2-70.3-41.4-95.9-81.1-1.5-2.4-5.4-11.2-6.7-12.3-3.2-2.9-42.6-2.9-46.5-.5-1.2.7-5.8 10.6-7.2 12.8-29.8 46.4-57.8 70.8-111.8 86.2-76.3 21.7-135 6.9-187.5-52.5-10.5-11.8-18-28.2-32-36-3.1-1.8-6.9-2.4-9.9-4.1-8.4-4.9-16.3-10.7-25.2-14.8-1.4-20.7-2-41.5-5.5-62 5.8-.1 9.6 10.1 14.5 4 2.8-14.7 3.6-29.8 7.8-44.2 1.3-4.5 6-18.5 8.3-21.7.8-1.2 1.4-1.9 3-2.1 11.7-1.1 1.5 18.6.2 23.2-3.7 12.8-6.7 25.3-5.7 38.8 2.2-1.8 7.9.7 8.9 0 2.1-1.5.8-12.8 6.6-13.9 3-.6.4 2.8.5 4.5.2 2.8 2.3 8.8 5 10 6 2.7 9.2-3.1 14.9-2.6 1.5-10 1.5-20 3.6-29.9 2.2-10.5 6.2-20.7 10.6-30.4 0-.9-12.4-2.2-14.6-10.5-1-3.7-.8-17.5 2.5-19.6 5.2-3.3 11.8 8.8 16.6 9.3 4.1.5 6-4.1 8.1-4.6 1.5-.4 3.2.7 4.3.3 1.8-.6 5.9-7.1 7.9-9 15.2-14.4 33.7-27.6 54-33.5.1-3.2-3.1-4.8-4.1-7.4-1.5-3.9-2.4-16.9 2.8-18.4 8.5-2.6 4.3 10.6 14 12.6 9 1.8 23.1-14.2 16.3 5.2Zm438.2 27.1-121 126.6c.9 24.3 12.9 46.2 28.3 64.3l145.3-146.7c2.9-10.7-23.1-29.7-31.2-34.4-2.8-1.6-20-10.6-21.5-9.7Zm-500.6 171.3c4.3 9.2 10.6 22.6 17.5 30 .7.7.9 2 2.3 1.6l140.7-143.4c1-.8.8-1.4.5-2.5-1.7-6.4-11.2-21.1-15.6-26.5-5.1-6.1-18.8-18.2-26-21-1.1-.4-1.8-.9-2.9 0-41.2 43.5-82.6 86.8-125.1 129-2.2 3.8 1.1 14.3 2.3 18.8 1.7 6.2 4 9.3 6.3 14.2Zm563.1-103.3L1171 1284.4c-.6.6-1 1.2-1 2 0 3 16.3 13.6 19.6 13.4 1.8 0 11.3-10.2 13.5-12.4 38.4-39.5 73.4-82.6 112.5-121.6 1.2-3.5-2.4-19-6.8-17.9Zm-494.9 153.7c30.8-39.9 67.3-75 103.7-109.8 1.5-9.7.2-19.5-1.5-29l-133 132.5c5.3 1.6 26.9 8.6 30.8 6.3m549.1-26.9c8.2-18.5 14.7-37.6 19.1-57.4-12 7.4-17.7-1.5-24-10.5-2.6 20.2-6.8 41-16.5 59-1.2 2.3-10.2 15.3-9.5 16 5.6-.2 2.8 4.4 8.2 3.8 10.8-1.3 9.2-7.1 13.5-9.6 2.6-1.6 6.3-1 9.2-1.3M690 1208c-2.4-.6-1.6.4-2.2 1.3-5.5 7.9-11 15.7-21.3 7.7-.8-.2-.6.9-.5 1.5 1.2 8.4 6.1 23.6 9 32 1 3 9 23.6 10.2 24.3 1 .6 4.7 0 6.9.6 3.6 1.1 4.7 5.4 7.6 7.4 1.9 1.3 8.7 3.6 10.7 3.2.9-.2 2.2-5.2 5.7-4.1.6-.7-8-13.1-9.2-15.3-10-18.4-14.3-38-16.8-58.7Z" class="outline" data-original-prefix="shading" opacity=".2"/><path id="outline-shading-eyes2" fill="#000" d="M942 857c-15.8 14.7-36.6 21.7-53.5 35-24.9 19.7-63.7 69.6-74.7 99.3-3 8.1.3 14.4 1.2 22.7-11.2.4-23.2 1.8-34 4.5-4.8 1.2-19 7.4-21.5 7.4-3 0-26.1-7.4-29.8-9.1-9-4.1-3.1-10 .8-15.7 27.1-39.6 72.1-78.2 113.1-102.9 30.2-18.2 63.6-34.2 98.3-41.2Z" class="outline" data-original-prefix="shading" opacity=".2"/><path id="outline-shading-eyes1" fill="#000" d="M1321.7 1014.8c-.8.8-5.7 2.7-7.2 3.3-3.7 1.4-23.4 7.8-26 7.8s-17.3-6.3-22.3-7.5c-10.9-2.6-22.9-4.1-34.2-4.3 8.5-17.3-2.8-34.2-11.6-48.9-16.6-27.7-44.7-62.6-71.5-80.5-14.2-9.5-30.9-15.1-42.9-27.6 31.9 6.4 62.5 20.8 90.7 36.8 40.6 23.1 81 56.5 109.7 93.3 3.2 4 16.5 20.7 16.6 24.3 0 .9-.6 2.7-1.2 3.3Z" class="outline" data-original-prefix="shading" opacity=".2"/></g></g><g class="trait-group" data-category="eyes"><g id="outlines"><path id="outline-eyes11" fill="#000" d="M1330.1 993.9c1.4 1 4.2-1.5 5.6-1.7 8.1-.9 21.2 18.7 25.6 25 22.8 33.2 36.7 72.8 42.9 112.6 1 1.3 25.1 3.5 29.1 4.4 11 2.5 13.7 4.6 12.6 16.1-2.4 25.5-12.5 52.1-13.9 79.1-.4 7.2 1.7 25.4-1.5 30.5-5.8 9.2-28.7 14.1-38.4 18.6-14.9 6.9-26.7 29-38.5 41.5-21.4 22.7-53.2 45.5-83.7 53.3-59.5 15.2-143.1-6.7-187.8-48.8-16.6-15.6-28.4-36.6-40-56-1.4-.9-30-1-33.6-.5-1.3.2-1.8 0-3 1-1.7 1.5-7.1 12.8-9.1 15.9-27.8 44-60.8 69.2-111.4 83.6-75.5 21.4-135.9 9-190-48-12-12.6-24.1-35.1-39-42-8.8-4.1-36.5-10.7-39.5-20.5.8-24.6-2.5-47.2-6.8-71.2-1.9-10.7-9.1-35.1-7.6-44.2.2-1.1.4-2 1-3 4.3-6.7 33.7-7.3 41.8-9.7 5.2-35.2 17.2-71.3 35.7-101.8 5-8.3 14.3-22.5 20.9-29.1 1.3-1.3 7.8-6.6 9.3-6.8 2.4-.4 5.8 2.8 7.2 1.8.4-.3 3.5-6.5 5.1-8.4 78.7-96.5 169.8-147.5 296.5-148.6 130.2-1.2 229.8 51 308.9 153.1.9 1.1 1.4 3.8 1.6 3.9Zm-23.2 12.9c.9-1.6-3.8-12.9-5-15.2-18.3-36.2-111.1-99.9-149.4-114.6-95.6-36.8-210.4-32.7-298.4 21.6-30.7 18.9-92.7 62-108.3 93.7-1 2-4.8 10.7-4.8 12.2.1 2.4 19.5 14 21.6 14.2s17.2-5.3 21.3-6.2c86.6-19.4 202.6 33.5 229.3 121.7.8 2.7 1.4 9.4 2.6 11.2 1 1.4 13.3.2 16 .5 13.2-64.6 72.4-111.2 133.7-127.8 31.6-8.6 66.2-12.8 98.4-5.6 4.4 1 19.3 6.5 21.5 6.4 2.5-.1 16.9-11.3 21.3-12.1ZM913 1329c2-.2 3.9-.9 5.5-2 3.4-2.3 12.9-12.4 16-16 69.3-79.6 53.3-208.6-36.2-265.8-63.8-40.8-145.4-24.7-193.8 31.8-1.2 1.4-6.8 7.8-5.5 9 13.4-1.3 20.9 3.1 18.9 17.4-1.6 11.7-19.8 26.3-28.4 13.5-3.8-5.6-2.2-10.8-2-16.9-2.6 4-5.4 8.1-7.7 12.3-28.1 51.7-30.3 99.4-4.7 153 35.5 74.2 112.9 118.7 194.8 91.1 13-4.4 27.3-13.5 38-22-11.2 3.9-20.4 1.1-24.5-10.5-2.8-7.9-.4-9.5 1.5-17-.7-.7-9.4 5.7-11 6.5-98 54-202-48.1-178.7-149.7 18.1-79 102.7-132.2 178.7-90.3 1.5.8 10.3 7.2 11 6.5 0-3.8-2.9-6.7-3-10.5-.4-13.2 15.8-19.1 26.4-12.3 17.6 11.2 4.8 31.3-12.4 28.4-3.3-.6-6-2.6-8.9-4.1 20.6 17.2 36.8 39.6 44.5 65.5 7 23.6 7.9 57 3 81-6.2 30.9-23.4 57.5-47.5 77.5 3.8-2.1 7.8-4.6 12.4-4.5 12.8.2 22.6 14.8 15.5 26.3-.6.9-2.4.2-2 1.7Zm436-243c1.3-1.3-4.3-7.6-5.5-9-50.7-59.1-135.1-72.8-199.8-27.8-92.1 64-98.3 206.9-12.4 278.8.9.7.8 3.6 2.8 1.5-10-16 5.2-33.9 22.5-26.5 1.8.8 2.8 2.5 4.4 2.6-20.4-17.1-36.5-39.1-44.2-64.8-7.2-23.8-8.2-57.5-3.2-81.8 6.2-30.9 23.4-57.5 47.5-77.5-1.3-.4-2.3 1.6-3.7 2.3-19.4 9-37.6-14.9-17-27 11.4-6.7 27.5.8 25.5 14.4-.4 3-3 5.5-2.8 8.8.7.7 9.4-5.7 11-6.5 76-41.9 160.6 11.3 178.7 90.3 22.4 97.9-71.6 195.8-169.4 154.4l-20.3-11.2c3.5 8.9 4.3 16.2-2.5 24-5.9 6.8-13.8 5.7-21.5 3l21.3 14.2c120.6 61 245.5-57.5 228.5-181.5-3.3-24.1-15.9-45.5-27.9-66.2-1.8-1.2-.9.9-.8 1.8 5 30-28 21.1-30.2.3-1.5-14 6.1-17.7 19-16.5Zm-605-59c-7 .9-24.7-3.7-29.9.6-3 2.4-11.7 18.3-14.2 22.8-4.2 7.4-8.3 14.9-11.8 22.7 1.9.4 2.4-1.1 3.5-2 8.2-6.8 15.5-16 24-23s18.7-11.9 26.8-18.2c1.1-.9 2.1-1 1.7-2.8Zm617 49c-.7-6.3-4.8-13-7.8-18.7-2.6-5-15.2-27.3-18.2-29.8-5.4-4.4-23.8.5-30.9-.6-.4 1.8.6 2 1.7 2.8 3.8 3 9.5 5.4 13.6 8.4 15.4 10.9 28.9 24 41.7 37.8Zm-358 71c-1.2-19-13.2-38-24.2-53.3-9.6-13.4-22-26.9-35.5-36.5-3.6-2.5-16.9-10.9-13.3-6.7 28 24.7 49.6 59.6 57 96.5zm42 0h16c7.1-35.9 28.2-70 54.7-94.7.6-.6 5.6-4.6.8-2.3-19 10.1-34.8 26.3-47.3 43.7-11 15.3-23 34.3-24.2 53.3m-147.2-86.8c-6.9.8-10 10.6-4.7 15.2 7.2 6.2 19.5 1 16.5-8.5-1.3-4.1-7.6-7.2-11.8-6.8Zm250 0c-13.7 1.6-12.5 19.8 1.7 17.8 12.6-1.9 9.5-19-1.7-17.8M782 1077c-6.6 0-13.6 3.9-19.3 7.2-73.5 41.8-78.5 165.6-7.2 212.8 5.1 3.4 12.8 8.3 18.5 8.5-46.4-35.7-62.3-96.1-48.1-152.1 8.2-32.6 30-56.6 56.1-76.4m492 229c29.3-10.6 51.7-35.4 61.7-64.7 15.8-46.1 5.7-112.2-32.7-144.8-9.7-8.2-24.5-17.9-37-19.5 26.1 19.8 47.9 43.8 56.1 76.4 14.3 56.7-2.1 116-48.1 152.6m-465.2-225.7c-15.8 1.9-35.6 16.3-45.8 28.2-64.1 75.3-11.5 244.3 102.3 188.3 88.3-43.4 66-231.2-56.5-216.5m405 0c-104.9 11.1-115.7 193.3-12.6 224 14.3 4.3 37.3 4.3 51.2-1.5 93.4-38.6 76.2-234.8-38.6-222.6Zm-510.1 14.9c-9.9 2.2-12.9 22.2-2.7 19.4 12.6-3.5 14.9-22.1 2.7-19.4m636 0c-2.1.6-3.6 4.3-3.6 6.4-.4 8.7 15.2 18.5 16.9 9.9 1.5-7.8-4.8-18.9-13.3-16.3M651 1143c-5.2-.7-22.5 7.9-23 12.5 6.3 31.5 7.9 63.7 6.9 95.9 7 2.6 14.3 4.3 20.6 8.6-13.3-37-13.9-78.9-4.5-117m761.9 108.9c-.6-32.3.6-64.7 7.1-96.4-.4-4.6-17.8-13.2-23-12.5 9 37.4 9.5 80.5-5 116.5 6.9-2.6 13.4-6.4 20.9-7.6m-355.1-93.7c-3.1-2.6-33.7-4.5-39.3-4.3-3.8.2-27.2 2.9-28.5 4.7-2.5 3.5 0 10.9.1 14.8.5 18.5-.2 36.5-3.3 54.7-1 5.8-4 12.9-4.3 18.8 0 1.1-.6 1.5.6 2.5 5.4 4.9 41.2 5.9 49.6 5.5 5-.2 30.9-2.6 33-6 .8-1.3-4.8-23.6-5.4-27.7-2.3-15.5-2.6-32.2-2.2-47.9 0-3.4 2.8-12.7-.2-15.2ZM923 1335.5l9-5.5c18.9-12.6 35-28.1 46.2-48.3 1.2-2.3 7.7-14.1 6.4-15.7l-11.6-2.9c-3 11.1-8.6 21.2-14.6 30.9-7 11.4-18 25.6-27.4 35.1l-8 6.5Zm202 0-8-6.5c-9.4-9.5-20.4-23.7-27.4-35.1-6-9.7-11.6-19.8-14.6-30.9l-11.6 2.9c-1.2 1.6 5.2 13.4 6.4 15.7 11.1 20.1 27.3 35.9 46.2 48.3l9 5.5Zm-227.3-26.3c-12 2.5-8.9 18.8.8 18.8 3.6 0 10.4-4 11.3-7.8 1.8-7.7-4.5-12.6-12.1-11.1Zm246 0c-1.2.3-5.1 4.3-5.5 5.5-4.1 13.4 21.1 19.5 19.9 2.8-.5-6.5-8.5-10.1-14.4-8.3" class="outline" data-original-prefix="outline"/><path id="outline-eyes10" fill="#000" d="M1084.7 1174.2c20-4.6 29.1 31.7 12.8 39.8-21.9 11-33.3-35.2-12.8-39.8m2 8c-10.3 3-2.5 26.9 7.6 23.7 5.8-1.8 2.9-26.8-7.6-23.7" class="outline" data-original-prefix="outline"/><path id="outline-eyes9" fill="#000" d="M1368.7 1168.2c22.1-5 23.6 37.4 9.6 40.6-24.7 5.6-27.6-36.5-9.6-40.6m5 6c-8.2 1.5-11.2 20.8-1.5 25.1 12.4 5.4 15.4-27.6 1.5-25.1" class="outline" data-original-prefix="outline"/><path id="outline-eyes8" fill="#000" d="M1251.7 1329.2c7-1.4 15 .3 18.7 6.8 8.9 15.9-22 33.9-33.4 17.4-6.3-9.2 5.7-22.4 14.7-24.3Zm1.1 6c-17 2.5-9.7 26.2 4.8 16.8 10.3-6.8 8.2-18.7-4.8-16.8" class="outline" data-original-prefix="outline"/><path id="outline-eyes7" fill="#000" d="M1251.8 1027.2c13.2-.7 26.5 12.3 17.7 24.8-7 10-21.5 6.7-29-1.1-9.2-9.5-1.6-23.1 11.3-23.8Zm-3.1 6c-12.5 2.8-1.5 21.4 11.3 17.3 11.1-3.5 3.6-20.7-11.3-17.3" class="outline" data-original-prefix="outline"/><path id="outline-eyes6" fill="#000" d="M1346.8 1265.2c2.5-.4 3.7-.2 6.1.5 17.1 4.9 3.1 33.3-13.3 33.1-19.4-.2-8.7-31.2 7.3-33.6Zm-3.1 6c-7.2 2.1-13.4 25.6 1.3 18.3 10.1-5 13.7-22.8-1.3-18.3" class="outline" data-original-prefix="outline"/><path id="outline-eyes5" fill="#000" d="M955.7 1174.2c29.3-6.1 19.7 51-4.6 40.2-15.5-6.9-8.6-37.4 4.6-40.2m2 8c-9.4 2.8-10.4 33.6 3.8 20.8 7-6.3 5.8-23.7-3.8-20.8" class="outline" data-original-prefix="outline"/><path id="outline-eyes4" fill="#000" d="M672.7 1168.2c24.1-5 25 45.1-2.2 40.7-13.8-2.2-13.3-37.5 2.2-40.7m-1 6c-11.6 2.1-7.2 30.9 4.6 24.7 10-5.2 5.2-26.4-4.6-24.7" class="outline" data-original-prefix="outline"/><path id="outline-eyes3" fill="#000" d="M786.7 1329.2c6.2-1.1 10.4-.2 15.6 2.9 9.3 5.6 15.8 17.8 4.6 25.2-12.4 8.3-35.8-5.5-30-20 1.3-3.4 6.2-7.5 9.8-8.2Zm4.1 6c-14 2.3-3.8 19.5 6.6 18.7 13-.9 8.9-21.3-6.6-18.7" class="outline" data-original-prefix="outline"/><path id="outline-eyes2" fill="#000" d="M793.8 1027.2c11.4-.9 19.9 7.4 17 19.1-.9 3.7-9.4 9.9-13 11-25.8 7.6-30.4-27.9-3.9-30Zm-2.1 6c-12.5 2.6-12 20.3 2.3 17.3 14.9-3.1 14.2-20.8-2.3-17.3" class="outline" data-original-prefix="outline"/><path id="outline-eyes1" fill="#000" d="M696.8 1265.2c16.2-2.7 29.1 25.4 18.6 31.7-19 11.3-40.9-28-18.6-31.7m.9 6c-9.3 2.1.9 20.2 9.7 19.8 8-.4 4-11.7 1-15.9s-5.7-5-10.7-3.8Z" class="outline" data-original-prefix="outline"/></g></g>
<g class="trait-group" data-category="right ear"><path id="fill-ear-rt" fill="#fff" d="M1715.7 184.2c3.2-.7 6.5-.5 7.2 3.3 2.3 39.5-3.6 77.2-9 116-.7 4.7-.2 11.1-1.1 15.9-5 26.9-24.5 58.9-29.7 86.3-5.7 30.4-4.7 64.8-10.9 95.1-7.8 38.3-25.1 77.8-33.7 116.4l-71.9 122.1c-45.8 31.3-94.9 58.3-141.8 88.2l-35 81-84.6 77.3c-5.6 2.9-16.3-.8-22.4-2.4-27.7-7.2-48.3-18.1-70.9-35.1-16.5-12.5-27.2-20.9-37.6-39.4-6-10.5-10.9-22.9-14.5-34.5 26.8-59.3 58.7-116.4 86.8-175.2 4.9-58.7 6.7-117.8 11.4-176.5 36.5-47.5 77-92.5 114.8-139.2 47.2-35.9 96.4-69 144.9-103.1 66.1-31.9 127.9-72.1 197.8-96.2Z" class="fill" data-original-prefix="fill"/></g><g class="trait-group" data-category="right ear"><path id="outline-shading-ear-rt" fill="#000" d="M1670.9 280.1c2.8 3.9-18.7 26.3-21.9 30.5-38.8 50.2-75.5 128.6-72.1 193 .8 14.1 7.3 33 2.8 45.7-3.7 10.4-14 27.3-15.4 37.7-.4 2.9.9 5.2.6 8 10-1.2 15.8-10.8 21.2-18.3 17.3-24.1 30.1-53.1 43.5-79.5 1.1-2.2 1.5-2.2 1.2.2-.8 9.2-6.8 26.8-9.7 36.3-15.4 50.2-37.8 100.7-66.2 144.8-15.3 23.7-22.2 32.4-46.1 47.9-25.3 16.4-36 17.1-63.9 25.1-14.1 4.1-56 16.5-65.5 25.5-11.9 11.1-30.7 52.3-40.3 68.7-13.5 23-27.7 45.9-43.8 67.2-3.6 4.8-10.5 10.9-13.3 15.7-5.6 10-6.8 27-11.1 37.9 7.3-4.2 14.2-10.7 20.5-16.5 12.8-11.9 26.4-25.8 38.5-38.5 12.3-12.9 33.6-33.7 41.2-48.8 7.8-15.6 13.6-33 21.3-48.7 14.9-4.8 30.4-7.3 45.1-12.9 49.9-18.9 92.7-57.3 134-90 1.4-.3 1.9 0 1.5 1.5-.9 3.2-10.1 20.8-12.2 23.8-4.2 6-36.3 28.6-44.5 34.5-29 20.7-59.7 39.2-87.9 61.1-15.7 27-28.8 55.8-43.5 83.5l-80 71c-6.2 2.7-28.5-4.8-35.8-7.2-32.1-10.8-54.1-27.3-79.9-48.6-8.9-15.6-7.9-22.5 2.7-36.2 24.9-31.8 50.6-57.8 73.4-92.6 33.1-50.5 54.8-106.4 86.2-157.8 11.1-18.2 27.9-36.1 31.3-57.7 1.4-9.1 1-19.2 1.1-28.4l54 6.5c10.6 14.3 17.8 31 26.5 46.5.8-.4 10.6-11.5 11.3-12.7 4.2-7.8 8.8-30.6 10.8-40.2 5-24.6 7-49.5 8.5-74.5 1.9-20.4-5.1-39.9 3.1-58.9 17.4-40.4 50.1-78.2 81-109l66.7-44.4c3.2-.7 24.4 7.8 25.2 8.9Z" class="outline" data-original-prefix="shading" opacity=".2"/></g><g class="trait-group" data-category="right ear"><path id="outline-ear-rt2" fill="#000" d="m1695 240-22 38.5-26.1 18.2c-.8 3.6 6.6 23.8 8.6 28.3 1.6 3.6 9 14.4 9.3 15.8.5 2.3-2.4 5.9-3.8 7.7-2 2.6-31.5 31.6-33 29.5-2.1-6.5 4.9-10.6 6.4-15 1.1-3.1-.9-32-1.6-37.4-.1-1-.6-4.4-2.4-3.6s-12.5 12.2-14.5 14.5c-2.7 3.2-19.7 25.9-19.7 28l24.3 37.6c4.3.9 8.3-6.7 11.4-9.6 4.5-4.2 25.3-22.8 29.6-23.4 3-.5 6.4.2 9.4 0 .9.8-4.4 6.8-4.8 8.7-1.8 8.2-2.5 22.9-3.2 31.8-2.2 27.4-1.5 53.7-1 80.9.1 6.7 1 20.1-2.6 25.5-12.9 9.5-26.3 18.3-39.4 27.6-2.1 1.5-5 6.6-7.6 3.4-2.2-2.8-5.1-21-5.5-25.5-.2-2.3-1.1-11-.6-12.5.7-2.4 4.7-6.5 6.1-9 .9 1.7 2.3 8.5 4.9 8 .8-.2 12.4-10.6 12.6-11.5l1-83.5c-1.7-.4-2 .5-3 1.5-5.3 5.5-14.9 19.2-20.1 22.9-.9.7-10.5 4-10.9 3.6 0-4.8-3.8-10-6.6-13.9-1.8-2.5-24.8-30.3-26.4-29.1-8.2 17.3-13.6 35.5-17 54.4 5.5 4.7 46.2 18.4 47.8 21.3 2.8 4.9.8 11.9 1.1 16.8 2.2 30.3 7.3 60 13.4 89.7 1 4.8 7.8 30.4 6.5 32.6-.7 1.3-13.1 7.8-15.7 9.8-8.8 6.6-14.2 15.2-18.9 25-6.4 13.5-5.6 24.2-18.8 33.2-2.7 1.8-24.4 14.1-25.9 14.2-1.7.1-14.9-5.3-15.4-6-.6-1 0-2.5 1-3.5 2.5-2.6 16-7.1 16.1-10l-18.1-62.5c-1.9 8.1-4.6 15.9-6.5 24-3.1 12.9-4.5 28.7-8.2 40.8-1.7 5.5-8 7.6-11.3 12.7 5.4 4.5 17 9.4 21.4 14.4 3.1 3.5-4.4 5.2-6.3 6.6-30 22.8-47.7 53.1-72.6 79.5-3.3 3.5-12.5 8.7-13.6 10.4-1.7 2.7 0 5.7-1.8 8.2-.8 1.1-17 9.8-19.7 11.3-3.2 1.7-24.5 12.2-25.9 12.1-1.3 0-1.7-.6-2.4-1.5 2.9-4.7 2.3-11.4 1.9-16.8-1.9-22.1-9.7-52-14.9-74.1-.4-1.5.7-1.8-2-1.5l-39 100.5 39.7-29.4c.8-.2 13.8 5.3 14.3 5.9 1.9 2.1-3.2 2.3-4.1 3.6s-1.2 5.3-1.6 7.1c-3.7 18.6-4.5 39.3-5.3 58.2 8.7-6.8 17.8-12.7 27.5-18 .8 1.7.9 5.7.3 7.3-.4 1.3-11.9 10-13.9 12.1-4.5 4.7-8.8 12.6-13.4 16.5-2.8 2.3-17.5 11-20.8 12.2-7.5 2.8-6.9-8.9-6.8-13.8.3-10.5 1.1-21.5 2-32 .9-9.8 3.1-19.7 3.5-29.5l-23.5 18.5-1 2 16.6 62.5c-13.1 9.4-27 17.3-42.6 22-.7-5.5 7-4.9 6.9-10.3 0-5.4-5.8-22.1-7.7-28.4-4.1-13.9-8.8-27.7-13.8-41.2-9.1 16-17.5 33.8-22.4 51.6-2.8 10-5.6 21.2-3.8 31.7.6 3.8 4.1 8.9 4.8 12.2.3 1.5 0 1.8-1.5 1.5-3.8-.7-25.2-18.5-26.7-22.3-.8-1.8-.9-3.3-.8-5.2.1-5.6 1.3-20.7 2.3-25.8.8-3.8 25.3-35.9 29.8-43.2 29.6-48.1 48-108.9 82.2-153.8 11.1-14.6 22.6-22.7 31-41 8.4-18.1 20.8-75.1 17.6-94-.7-3.8-10.8-27.6-9.8-28.7 13.4 6.2 26.8 13.4 39.3 21.2 3.9 2.5 14.9 8.7 17.2 11.8 3 4 10.2 28.6 12 35 2.4 8.5 6.3 34.7 11.4 39.5 12.7 12 29.6-12.1 35.2-21.9 27.1-47.2 34.2-98.5 26.7-152-1.3-9.2-7-27.1-6.7-35.2.2-6 16.5-39.2 20.3-46.5 22.2-41.8 45.9-63.9 79.1-95.9 9.7-9.4 21.4-23.7 31.6-31.4 6.4-4.9 14.6-7.2 21.2-11.8 3.7-2.5 26.5-23.7 29.7-20.8Zm-93 184c1.3 1 7.3-6 5.5-7.9-3.3-5-29.7-37.9-33-37.1-1.8 2.2-4.6 4.9-3.1 8 10.8 11.4 23.2 23.2 30.5 37Zm44.8 62.8c1.1-2 0-37.3.2-43.3l5-55.5c-3.2 3.8-11.4 10.8-12.1 15.4-2.2 16.5.4 41.4 0 59.1 0 2.4-1 4.5-1.1 6.9-.2 7.5.2 15 0 22.5 1.2-1.1 7.4-4.6 7.8-5.2ZM1544 478v24.5c0 3.7 3.5 16 5 20 1.3 3.7 6.8 12.2 7 14.1.8 5.4-7.7 8.8-5.9 14.8 6.5 26.2 9.3 53.3 18.9 78.6.6.5 5.1-6.5 6-7.5 2.6-2.9 10-8.1 10.1-11-8.1-39.8-12.3-80.3-12.1-120.9-8.7-6.1-18.6-10.9-29-12.7Zm-7 93c-2.3-.4-1.6.1-2.2 1.3-2.2 3.9-7 16-6.7 20.1 7.7 21.5 10.8 48.2 19 69.1.4 1 .4 2.4 1.9 2.5.6-4.7 8.2-12.2 7.8-16.2-10.5-24.4-15.3-50.7-19.8-76.8m-138 123 3-1.5c7.8-13.2 23-26.8 30.5-39.5 1.9-3.3 1.9-4 .8-7.7-2.6-8.4-16.5-31.1-27.6-24.2-6.7 4.2-11.6 26-14.3 33.5l7.7 39.4Zm23 42c2.5-5.8 6-11.2 8.5-17 5.2-12.3 10-26.5 8-40-11.9 16-22.9 32.6-33.2 49.6 3 18.6 6.8 37.2 11.7 55.4 23.6-19.1 43.3-42.3 62.8-65.3-1.4-2.2-5.7-10.8-8.2-10.5-5.3 3.7-47.2 30.1-49.7 27.9Zm-21.2 78.9-21.3-102.8c-2.5 3.4-10.4 8.3-10.6 12.4 4.4 27.5 14.2 55.5 17 83.1.2 2.4-1.2 15.2 2 14 3.6-1.3 8.5-5.9 12.9-6.7m-79.3-28.9v1c.7-.3.7-.7 0-1m-.5 2c-2.1-.5-2.3 1.1-3.2 2.3-2.4 3.1-5 7.4-7.2 10.8-1.8 2.8-12.3 19.2-10.6 20.9l5.9 1zm-14 142c2.4.4 4.4-.5 3.8-3.2l-24.3-82.8c-2.4 2.1-3 5.2-2.3 8.2 8.1 25.7 18.2 51.2 22.8 77.8" class="outline" data-original-prefix="outline"/></g><g class="trait-group" data-category="right ear"><path id="outline-ear-rt1" fill="#000" d="M1204 941c-4.4-.4-9.8-3.6-13.7-5.8-20.9-12-28.2-35-42.8-53.2-1.1-2.6-.7-7.5-.5-10.5.9-20.4 13.5-35.9 21.8-54.2 6-13.1 11.8-33.9 18.9-45 2.6-4 7.1-7.8 10-12 45.7-65.6 39.8-168 48.8-244.2 35.7-51.4 72.9-101.7 114.9-148.1 13.5-14.9 32.5-37.2 47.6-49.4 43.2-34.6 113.6-72.6 164.2-95.8 39.4-18.1 93.7-41 135.7-50.3 4.3-1 18.4-4.8 21.4-2.6 1.3.9 4.2 14.2 4.5 16.7 4.6 32.3.3 83.6-2.9 116.9-.9 9.4-3.1 31.6-6.5 39.5s-15.6 18.9-20 29c-9.8 22.5-20.5 85.6-16.1 109 2.2 11.6 6.5 11.2 4.1 25-11.5 64.2-42.8 133.8-77.1 188.9-32.9 52.8-80.7 93.9-134.8 124.2-18.8 10.5-28.8 10.7-42.1 29.9-15.2 21.8-20.8 40.5-31.1 63.9-5.5 12.6-19.7 19.4-29.9 28-7.3 6.2-13 13.2-19.5 19.5-6 5.7-26.7 27.8-31.5 30.5-2.3 1.4-20.6 4.8-23.6 4.5-10.9-1-38.2-12.2-49-17.1-3.9-1.8-12.1-5.3-13-9.5 25.5 10.4 46.2 11.5 70.3-2.2 26.5-15 64-49.9 79.7-75.5 5.8-9.5 22.9-46.4 24.6-56.2 1.1-6.9-2.7-5.6 5.1-11.8 33.2-26.6 76.4-40 110.3-69.7 69.6-60.8 114.1-151.8 132.5-241.5 3.7-18 2.5-30 3.4-47.5 1.9-35.7 9.5-78.4 22-112 6.8-18.1 16.8-28.7 20.7-48.3 2.5-12.5 4.6-27.1 6.2-39.9 3.1-25.3 4.5-50.9 2.1-76.4-42 13.5-81.8 33.1-120.7 53.8-46.8 25-95.6 54.9-139.9 84.1-51.1 33.7-90.6 69.4-129.4 116.5-21 25.5-42.6 53.1-60.3 80.7-13.9 63.2-10.7 129.3-22.2 192.8-13.1 26.3-23.4 54.1-36.6 80.4-5.6 11.1-14.2 23.2-19.1 33.9-2.8 6.3-15 38-15.7 43.3-3.2 23.6 13.3 50.9 28.9 67.4Z" class="outline" data-original-prefix="outline"/></g>
<g class="trait-group" data-category="left ear"><path id="fill-ear-lft" fill="#fff" d="m286.8 111.2 30.8 44.7c91.6 62.6 192.9 110.5 287.1 168.9 36.5 22.6 69.5 60.6 103.8 87.2l81.6 106.4c7.4 63.7 12.1 127.8 18.4 191.6 22.2 52.3 49.9 102.3 72.6 154.5-2.6 11.7-1.7 25.5-4.1 36.9-.5 2.5-18.5 28.2-21.3 31.2-7.4 7.9-34.6 27.7-44.3 33.2-6.2 3.5-20.8 7.2-25 10.5-1 .7-2 3.8-3.3 5.2-4.8 5.2-17.7 6.9-24.5 9.5-26.5-4.8-55.6-5.8-81.7-11.3-8.7-1.8-26.7-11-33.3-10.8s-29.2 17.7-32.8 16.9c-2-.4-9.6-10.2-9.7-12.3-.5-9.1 6.7-23.6 7-33.2 0-1.5.3-2.8-.9-3.9L526.6 894c-.4-4.1-2-13 1.6-15.5l44-11c-13.1-9-30.1-13.4-43.3-21.7-7.4-4.7-24.1-17.9-29.5-24.5-2.1-2.5-10.7-19.2-10.2-21.7.2-1 16.2-11.1 17.8-11.5 10.3-2.1 29.3-.4 40.8-1.2 1.5-.1 2.9.8 2.5-1.5-30.5-23.6-59.2-49.4-88-75-23.8-43.2-46-87.2-69.5-130.5l-45.3-164.7-3.7-4.3-59.3-44.6c1.1-2.2 4.2-14.3 5.1-15.2 1.4-1.4 18.7-4.1 22.4-5.1.7-.2 3.3.4 2.4-1.6-.7-1.3-24.1-15.1-25.6-15.2l-51.4 8.7 2.5-24c9.2-6.5 18.2-20.8 28.7-24.3 4.1-1.4 27.9-5.3 28.8-7.2-10.6-4.4-23.8-16.5-34-20-4.7-1.6-34.7-3.3-35-5.1.2-5.7-.8-11.7 2-16.9l52-24.6c-7.8-23.2-19.6-45.2-27.9-68.3l12.1-36.5h20.7c0 .1 0 0 0 0Z" class="fill" data-original-prefix="fill"/></g><g class="trait-group" data-category="left ear"><path id="outline-shading-ear-lft" fill="#000" d="M349 234.5c0-.2-2.4-3.8.5-2.5 3.1 1.4 10.8 9.4 14.8 12.2 18.8 13.2 39.8 21 61.7 27.3 12.3 22.7 26.3 44.5 42 65-6.6 1.3-14.8 3.4-21.5 3.5-10.2.3-20.7-3.7-30.5-.5 3.5 4.6 7.5 10.5 11.5 14.5 10.9 10.9 36.9 14 51.5 19.5 5.8 2.1 12.1 19.2 16.8 24.2L519 431c-5.7-2.4-11.8-4.4-17.4-7.1-20.1-9.9-19.8-14.9-45.1-14.9-3 0-11 0-13.5.4-8.1 1.4-18.9 10.1-25 15.6 9.9 0 19.6-1.6 29.5-1 7.2.5 28.1 3.5 33 8 5.5 5 20.3 21.9 23.8 28.2 6.3 11.1 9.6 26.2 16.6 37.4-4.3.8-8.8.6-13 2-1 .4-2.7.3-2 2 .6 1.5 6.8 6.5 8.5 8.5 4.2 4.8 7.8 10.2 12 15 9 10.4 26 25.6 32.5 36.5 5.9 10 7.5 25.8 12.8 36.2 1.5 2.9 9.5 14.9 12.7 11.3l24.2-44.1 46.5-6c2.3-4.3 5.6-4.7 9.2-7.1 1.6-1 1.3-4 4.1-2.8 3.2 1.3 5 20.8 6 25 11 48.3 35 97.9 61.5 139.5 3.3 5.2 9.7 11.8 12.1 16.9 12.2 26.7 12.8 71.1 21 102 2.5 9.5 6.9 9.2-5 15.1-17.7 8.8-34.8 1.9-53-.5l12 15.4 41.9 23.1c-18.9 7.5-38.5 14.2-53 29 10.4-1.5 28.7-9.8 38.7-5.8 3.4 1.4 15.2 11.3 18.7 14.3 5 4.2 9.9 8.8 14.5 13.5-7.7 2.4-15 5.4-22 9.5-.5 2.6.4 1.5 1.4 2.1 26.8 13.6 54.1-.2 79.8-8.4 1-.3 3.2-1.5 3.8-.2-8.6 6.6-17.1 13.9-26.1 19.9-16.3 11-36.3 18.2-55.2 23.8-10.3 3.1-44.2 12.9-52.8 11.3-20.1-3.8-43.1-16-63.6-20.5-8.1-.8-25.8 13.6-34 16.8-1.1.1-18.3-10.9-18.8-11.8-1-1.7-.5-3.3 0-5 2.5-9.3 11.3-22.5 15-32 .5-1.3 2.1-5 1.5-5.9-11.9-4.4-22.8-10.9-34.2-16.3-8-3.8-45.1-18.6-48.2-24.8-1-2 .5-13.9 2.6-15.5l39-12c-23.1-15.5-52.1-22.6-70.5-44.5-4.7-5.5-14.4-18.7-8-25 10-9.7 25-7.3 37.9-9.1 1.2-.2 5.4-.5 4.6-2.4-12.7-14-24.3-29.1-36.5-43.5-32.5-38.5-64.1-77.8-97.4-115.7-21-73.9-38.8-148.9-61.7-222.3-7.5-8.2-57.2-35.8-59.2-42.7-4.1-13.8 17.1-14.6 26.3-17.3 1.5-.4 1.7.6 1.5-2l-27.7-14.8-42 9.5c-8-.7-11.1-7.3-7.3-14.1 2.1-3.7 24.1-30.2 27-32 6.8-4.2 22.8-5.1 31-7.5l-30.4-23.1c-6.4-2.8-25-1.5-28.5-7.5-2.4-4.2-.9-9.1 2.5-12.2 2.4-2.2 16-10.2 19.7-12.3s31.4-14.7 31.8-16.5c.3-1.3-.3-2.9-.9-4.1-6.5-15.1-21.2-31-27.8-46.2-1.9-4.4-1.7-7.6-1.3-12.4.5-5.9 5.7-36.4 8-40 6.1-9.8 17.4-.3 18.8 8.9 2.1 13.9 4.5 39 9.4 51.6 1.8 4.6 16.3 20 20.5 26.4 10 15.4 13 27.8 13.2 46.3-17.4-4.7-35.6-3.1-53 1l22.7 11.8c12.9 7.5 15.8 25.6 23.3 37.7l-22.2 6.7-13.8 6.8h24.5c7.8 0 16.4 4.9 21.5 10.5s28.6 36.4 29.9 42.1c.4 1.9 0 1.2-1.4 1.4-5 .6-10.9-.5-16 0l-20.5 3c3 .8 6 2.3 8.7 3.8 7.5 4.3 45.3 26.8 47.1 32.9 1.1 3.9.3 12.7 1.2 17.3 13.6-10 27.5-20 43-27l-13.7-6.8c-6-3.3-9.8-5.5-13.5-11.5-12.9-20.4-15-46.1-15.8-69.7 3.5-.7 2.9 5.7 4.6 7.1 3 2.3 19.8 4.7 24.3 4.4-7.3-7.3-14.5-14.9-22.5-21.5-7-5.8-20.9-13.1-26.1-18.4-1.9-2-4.5-8.4-5.4-11.1-1-3.3-3-11-3-14 0-5 .2-10.1 0-15ZM438 473c-5.1-3.9-12.9-6.3-19.2-8.3-7.8-2.4-15.8-4.2-23.8-5.7 2.5 11 11.1 19 6.5 31 11-7.7 23.1-14.3 36.5-17m45 123c2.2-2.2-12.4-40.4-14.8-45.7-5.8-12.6-9.4-15.7-21.2-22.8-15.3-9.1-31.5-12.6-48.9-15.6-1.4 1.7 7.5 27.4 9 31.5 8.6 24.6 18.2 46.1 31.6 68.4 3.8 6.3 14.5 24.8 18.9 29.1 1.7 1.7 13.8 8.4 16 9 2.1.6 1.6-1.1 1.3-2.3-15.8-29.3-30.1-59.8-39.8-91.7 8.6 7.1 15.7 16 24 23.5 3.6 3.2 16.5 14.9 20 16 1.3.4 2.6.6 4 .5Zm209 220-17.6-31.9c-14.1-19.8-48.2-22-70.8-28.2-24.4-6.6-48.3-15.4-72.1-23.9-1.7 1 .3 2.2 1 3 16.1 19.8 46.8 33.4 66.6 48.4.7.5 2.7.4 1.9 2.1-1.5 3.3-30.9 13.6-35.8 14.2L508 803c-1 .9 7.9 11.4 9 12.5 20.9 21.4 46.4 14.8 69.7 24.3 4.1 1.7 15.8 10.9 19.8 14.2 2.4 2 11.3 8.6 10.5 11.3-1.2 4.1-17.4 3.8-21.2 4.9-3.5.9-19.2 11.3-25.1 13.9-1.3.6-13.6 4.6-12.7 5.8 8.1 2.9 16.4 5.9 25 7.5 9.1 1.8 22.4 3.8 31.2 1.2 3.4-1 9.8-6.2 12.1-5.6.9.2 10.7 9.8 13.4 11.7 4 2.9 12.9 6.5 15.3 8.7.7.6 1.3.8 1 2-.2.7-9.2 7.1-11 9-6.2 6.5-11.6 16.3-11 25.5l7.4-6.1c7.2-1.5 14-4.8 21.6-3.9-1.5-18 2.9-34.8 5-52.5-.4-2.6-13.3-10.6-16.1-14-2.6-3.2-6.3-11.7-8.2-15.8-7.8-17.4-12.8-36.7-14.8-55.7 8.1 5.2 18 16.1 27.7 17.8 10.8 1.9 24.2-3.9 35.3-3.8Z" class="outline" data-original-prefix="shading" opacity=".2"/></g><g class="trait-group" data-category="left ear"><path id="outline-ear-lft1" fill="#000" d="M845 940c15.1-16.4 31.1-43.3 27.9-66.4-.7-5.1-13-37.3-15.7-43.3-5.6-12.2-14.8-25.4-21-38-16.8-33.9-36.5-72.4-40.1-109.9-2.7-27.6-4.4-55.4-7-83-2.3-23.9-2.1-67.3-15.2-86.8-14.8-22.1-37.6-49.2-54.8-70.1-38.5-46.8-78.2-82.7-128.8-116.2-55.4-36.5-116.1-73-175.5-102.6-33.4-16.6-69-28.7-100.2-48.8-14.6-9.4-23.2-20.3-31.6-35.4l-10.8-21.7c-2.1 16.2-6.7 32.5-2.3 48.8 2.8 10.4 10.9 16.5 17.3 24.7 8.5 11 16.4 20.6 20 34.5-12.7-2-27.3-2.9-39.8.7-10.5 3.1-21.4 14.7-29.2 22.3 9.9.9 26.7.7 35.6 5 6.8 3.2 34.8 28.9 37.7 35.3.7 1.6.9 3 .8 4.7-26.6 1.2-52.1 6-66 31 10-1.8 19.3-7.2 29.5-8 9-.7 29.8 2.6 37 8 8.4 6.3 16.2 17.6 24.5 24.5.4 2.3-1 1.4-2.5 1.5-14.8 1.1-32.1 1.4-43.5 12 26.9 4 48.8 23.7 66.8 42.7 4.1 22.5 17.7 47.5 21.8 69.2 2.2 11.6 1.5 24 3.7 36.3 15.5 83.3 58.6 170.3 119.2 229.8 18.5 18.2 42.4 29.7 63.3 44.7 1.7 1.2 10.9 8 11.3 8.7.9 1.7-1.2 1.6-2 1.9-11.4 5.2-45.4 15.2-57 13.1-7.2-1.3-15-6.4-21.9-8.5 3.6 7.9 8.4 20.7 15.7 25.8 5.6 4 18.5 8.7 25.4 11.6 15.3 6.5 33.4 11.3 48 18 1.7.8 8.5 4.7 9 6 .7 1.7-.7 1.4-1.2 1.8-5.4 3.8-19.8 15.4-24.7 17.2-8.2 3-24 4.2-32.5 2.5l-.5 2 40.8 24.7c20.5 4.6 41.4 5.2 62.2 3.3l-.2 3.8c-6.6 5.1-14.2 12.6-19.2 19.3-8.5 11.3-8 27.2-9.6 40.9l6-8.5 3.7-3.3c10.7.3 23.4-4 33.8-3.2 23.7 1.8 50.6 16.9 73.5 21.5 14.2 2.8 27.6-.8 41 4.5-18.5 6.2-37.3 16-57 10.5-18.3-5.1-33.5-13.3-53.5-14.5-33.3-2-35.2 9-58.1 27-5.5 4.3-6 3.8-8-3-3.6-12.3-5.7-53.9-1.3-65.3 1.5-3.8 5.1-6.1 6.8-9.7-10.2-.8-23.4 0-33.2-2.3-14.7-3.5-51-37.1-60-50-1.4-2-9-14.6-7.8-15.7 17.8 1.4 37 2.7 54-3.5-12.7-5.7-25.8-10.4-38-17-4-2.2-16.8-9-18.9-12.2-4.7-7.3-12.1-27-15.1-35.9-3.5-9.9-6.4-20.1-8-30.5 1-1 14.6 8.3 17 9.5 3 1.6 16.4 8.5 18.5 8.5h21c.2 0 1.8-1.7 1.5-2-2.7 0-4.7-1.3-6.9-2.6-43.8-25.2-70.2-46.5-94.6-91.4-24.1-44.4-53.6-102.6-60.4-152.7-4.4-32.9-2.2-58.5-14.4-90.6-14.9-39.4-49.7-70-91.8-76.8 9.5-11.5 23.7-17.3 36.6-23.9 1-.5 1.9.5 1.4-2.1-6.3-1.1-12.4-5.8-18.7-6.8-8.3-1.3-32.3 3.1-41.4 5.1-8.1 1.7-15.9 4.3-23.8 6.7-1.9-2 9.7-20.8 11.6-23.9 4.8-7.9 14.2-23.6 20.9-29.1 8.3-6.8 23.2-10.1 33.5-13-16.6-14.5-32.6-22.6-55.2-18.7-7.4 1.3-14.6 5.5-21.8 5.2-.2-2.7 9.3-14.4 11.6-17.4 5.7-7.3 20.1-26.8 26.4-31.6 6.3-4.9 17.4-9.1 25-11.5-3.1-9.3-13.5-15.9-16.5-25-4.6-13.9-2.7-48.4 1-63 1.7-6.5 22.7-55.9 26-56l10.7 37.2c15.8 44.4 67 65.8 107.1 83.9 19.7 8.9 40.7 16 60 25 11.5 5.3 21.6 12.7 32.6 18.4 31.6 16.4 61.5 31.3 91.9 50.1 29.9 18.4 57.7 35.6 82.1 60.9 52.6 54.4 98.4 114.5 141.4 176.6 2.3 4.6 2.2 21.8 2.6 28.4 3.2 59.8 8.3 159.1 41.6 209.4 4.3 6.5 10.8 12.5 14.6 18.4 6.6 10.1 12.1 30.3 17.6 42.4 9.9 21.9 26.8 42 22.6 67.3-11 12.4-18.7 31.5-29.5 43.5-4.7 5.3-15.4 10.9-22 14-1 .5-3.4 2.5-4 .5Z" class="outline" data-original-prefix="outline"/></g><g class="trait-group" data-category="left ear"><path id="outline-ear-lft2" fill="#000" d="M776 986c-16.3-8.5-36-13.2-54.5-12-5.1.3-10.8 4.9-10.5-2.4.5-12 4.3-24.6 11-34.5-1.3-1-16.5 1.5-19 2.5-3.8 1.5-19 15.5-21 13.5-1-12.9-4.9-32.3 0-44.4 1.6-3.9 11.7-18.1 10.8-21-.4-1.3-17.2-12.2-20.3-16.7-5.3-7.5-11.1-30.1-13.2-39.8-3.3-14.6-5.2-29.3-6.3-44.2l26.7 16.8c12.7 7.8 28.4 6.1 42.7 7.2 3.1-.4-6.2-30-7.2-32.8-11.2-33.2-21.9-41.8-45.8-65.2-9.2-9-5.2-8.3-6.5-19.5-2.2-19.3-5.5-41-13-59-6.8-16.5-13.6-20.2-26-5-24.9 30.4-16.1 76 3 107 0 1.1-2.2.3-3 0-3.9-1.3-10.1-5-14-7-24.2-12.9-48.4-29.9-66.8-50.2-9.8-40.4-16.5-95.3-44.6-127.4-23.7-27.1-55.9-44.6-90.5-54-.4-1.8.6-1.9 1.7-2.8 7.4-6.4 40.9-24.4 50.1-25.9 5.3-.9 9.4 1.3 13.8.8 1-.1 2.2.2 1.5-1.5-.5-1.2-7.4-9.3-8.6-10.4-3.5-2.9-12-5.8-16.6-7.4-21.8-7.8-44.9-10.7-67.8-13.7-.5-.7 5.1-7.6 6-8.5 5.6-5.6 45.7-33.4 51.5-33.6 4-.1 10.7 1.7 15 2.1 1.1 0 4.6.8 4.5-1-16.7-4.9-34.8-11.7-49.7-20.8-9.7-5.9-14.5-18.5-19.2-28.8-6.8-14.9-12.3-30.2-15.1-46.4 13.9 10.8 30.6 29.4 50 23.5-16.8-23.7-40.1-41.9-64.4-57.6-4.8-11.9-9.1-23.9-11.5-36.5-.1-3 1.1-.7 1.8.2 17.3 20.7 26.2 32.2 49.9 47.1 4.5 2.9 10.1 4.3 14.3 7.7 6.7 5.3 15 18.8 21 26 3 3.6 22.1 23.5 21.9 26-.2 2.2-10.2 3.2-12.5 3.5-9.1 1.1-27.1 2.5-35.2-.8-3.7-1.5-6.4-4.8-10.3-5.7 1.5 2.5 3 5 4.6 7.4 3.1 4.5 12.1 17 15.9 20.1 6.2 5.1 26.9 14.9 35.2 18.8 4.6 2.2 12.1 3.7 15.9 6.1s12.1 12.5 15.5 16.5c1.2 1.4 13.9 16.8 13 17.5-17.6-4-37.2-12.3-55.5-10-3.8.5-27.5 13.7-27.5 15.5.9 1.5 2.1 1.2 3.4 1.6 15.7 4.4 33 6.8 48.1 13.9 9.1 4.3 21.2 20.4 26.9 29.1 1.1 1.6 10.3 17.2 9.6 17.9-18.3-2-37.4-2-55.2 3.3l-8.8 3.7c22.6 4.2 44.9 13 62.5 28 7.8 6.6 30.6 31.9 30.6 41.5 0 2.6-1.2 5-1.1 8 .3 19.3 24.8 77.5 43.6 84.5 9 3.4 14.5.4 17.3-8.5 3.3-10.2 4.8-22.5 7.8-33.2 1.8-6.5 9.3-31.4 12.7-35.3 4.1-4.6 44-27.6 50.8-30.2 1.2-.5 2.3-1.1 3.7-.8-10.1 28.2-6 53.9 1.7 81.8 6.9 24.8 15.6 47.5 30 69 7.9 11.8 19.7 23.6 25.7 36.3 4.3 9.2 7.6 21.3 10.8 31.2 7.9 24.1 15.2 48.8 19.7 73.8h-37.5c-2.4 0-9.5-2-12.3-2.7-8.7-2.3-16.5-7-25.2-9.2 5.9 10.6 10.9 27 18 36.5 8.2 11 26.8 17.5 37 27 0 1.8-20.9 5.9-23.5 7.5-3 1.8-16.3 19-14.5 21 19-5.6 34.1-6.8 52.7.8 3 1.2 17.4 9.6 18.3 11.7s-1.5 1.3-2.5 1.5c-15.4 1.6-26.7 4-32.5 20h18.5c3.2 0 14.3 4.6 17.9 6.1 6.5 2.9 12.4 6.8 18.2 10.9 14.4-2 24.9-10.5 36.5-18-2.1 7.5-12.6 13.3-19.1 17.4-11 7-18.8 10.7-30.9 14.6Z" class="outline" data-original-prefix="outline"/></g>
<g class="trait-group" data-category="head"><path id="fill-head1" fill="#fff" d="M1025 353c30.8 112.9 59.6 226.5 87.3 340.2 11.4 46.6 27.1 99.2 35.2 145.8.9 5.3 2 12.3 1.5 17.6-1.3 13.5-23.1 32.1-33.6 40.4-3.5 2.8-14.3 8.8-16.1 10.9-2.2 2.8-3.8 9.9-5.6 13.4-5.5 11.2-11.3 19.1-20.3 27.7-8.4 7.9-14.1 6-12.3 20.2 2 15.6 13.6 38.7 13.8 53.3 0 5.5-6.2 17.9-9.2 22.8-20.3 32.5-63.3 32.5-83.6 0-2.7-4.3-7.9-14.5-8.8-19.3-2.1-12.4 11.4-42.3 13.3-56.8s-3.9-12.3-12.3-20.2c-9-8.6-14.8-16.5-20.3-27.7-1.8-3.6-3.3-10.7-5.6-13.4-1.9-2.4-16.8-11.4-21.1-14.9-8.7-7.2-29.1-25.9-29.6-37.5-.2-4 1.7-12.2 2.6-16.5 6.6-34.2 16.9-70.6 25.2-104.8 23.7-98 47.9-196.1 73.4-293.6 6.8-26 13.4-53 21.4-78.6.7-2.2 1.5-5.6 2.4-7.6.5-1.2-.5-1.8 2.1-1.4Z" class="fill" data-original-prefix="fill"/></g><g class="trait-group" data-category="head"><path id="outline-shading-head" fill="#000" d="M962 829c.5.3 3.9 9.8 3.9 10.5.2 6-5.8 20.7-6.6 28.3-1.5 14 6.4 44.4 13.6 56.9 3.4 6 9 12.4 16.1 13.3 4.8-8.1 7.8-21.3 12.9-28.7.9-1.3 1.1-2.7 3.2-2.3 2.5 3-10.2 39.3-11.7 45.8-4 17.4-2.6 28.8-3.3 45.7-.2 6.2-2.2 13.7-2.1 20 .3 50.3 76.2 51 72.1-7-.3-3.5-1.7-7.5-2-11-1.3-17.4.7-29-3.5-47.5-1.5-6.7-13.3-41.3-12.4-44.4.2-.8 1.5-1.8 2.4-1.6 1.7.4 12.4 27.3 14.6 31 10.8-2.1 16.3-13.1 20.1-22.3 4.6-11.1 10.9-36.3 9.6-47.9-.9-7.6-6.8-22-6.8-28.3 0-3.7 3.7-6.8 4.1-10.5 1.5-1.4 3.6 3.4 4.2 4.3 4.6 7.9 8.8 16.8 12.8 25 .2.9 1.9.8 2.5.7 1.1-.3 11.8-15.7 13.1-18 2-3.7 3.9-7.9 5.2-11.8s4.3-20.6 6.3-21.7c1-.6 2-.5 3-.5l13.8 55.8c.2 3.5-6.6 11.3-9.3 14.2-5.7 6.2-22 21.3-28.9 25.1-2 1.1-4.3.5-6.1 1.9-4.8 3.9-6.1 12.2-8.7 17.3-5.8 11.7-11.9 19.8-21.3 28.7-7.1 6.7-13.1 6.1-11.3 18.2s7.8 26.5 10.5 38.5c3.8 16.8 4.8 20.8-4.2 36.2-24.1 41.1-75.9 33.1-92-10-4-10.8-1.6-15.5.8-26.2 2.7-12.1 8.7-26.9 10.5-38.5.3-2.3.7-5.4 0-7.6-.5-1.6-16.8-15.8-19.8-19.2-5.9-6.8-9.8-13.3-13.7-21.3-1.8-3.5-1.8-7.7-4.7-11.3s-10.8-7.6-15-11c-11.8-9.6-23.8-20.1-32.4-32.7l13.8-58.2c1.1 0 2-.2 3 .5 1.7 1 4.7 17.4 6 21 4 12 11.2 22.2 19.5 31.5l15.7-29.3c.4-1.1 2-2.3 2.8-1.7Z" class="outline" data-original-prefix="shading" opacity=".2"/></g><g class="trait-group" data-category="head"><path id="outline-head1" fill="#000" d="M1025 331c11.2 34.9 20.4 70.4 29.7 105.8 35.2 134.1 66.7 269.3 100 404-.2 5.3 1.5 10.5 1.3 15.8-.4 14.5-18.5 31.1-29 40-5.1 4.3-19.1 12.7-22 16-2.7 3.1-5.2 13-7.5 17.5-7.2 13.8-18.8 23.8-30.4 33.7l14.9 58.8c-8.6 36.5-28.8 55.5-67.6 52.5-25.9-2-46.2-30-48.2-54.3l14.6-55.5c.2-3.9-8.4-8.4-11.3-11.2-6.9-6.5-14.6-15.7-19-24-2.1-4.1-5.2-15.1-7.5-17.5-2-2.1-10.9-6.7-14.5-9.5-14.8-11.8-37.2-30.2-36.6-50.5 31.5-138.6 65-277.3 101.1-414.9 7.8-29.9 15.4-60.9 24.7-90.3 1.3-4 3.2-11.7 5-15 .6-1.2 0-1.7 2.2-1.3Zm0 4c-2.4-.2-1.8-.3-2 1.5-.5 3.6-.5 7.8-1 11.5 2.5 0-.7-5.9 2.5-5 1.5.4-.8 5 1.5 5zm0 49c-2.6-.3-1.6 0-2 1.5-5.8 19.7-8 42.3-12.5 62.5-28.9 131.3-63.8 265.8-98 396-1 3.8-5.1 13.2-5.2 15.7-.4 8.3 25.9 38.3 34.2 39.4 2.2.3 1.2-.3 1.5-1.5 8.3-34.1 16.9-68.2 24.5-102.5 19.4-87.5 33.8-176.1 55.5-263 2.3-.4 1.6.1 2.2 1.3 1.9 3.4 3.2 11.5 4.3 15.7 19.5 79.2 32.3 161.4 49.8 241.2 8 36.4 17.9 72.3 25.7 108.8 2 2 15.9-10.4 18-12.5 4-4 16.1-19 16.9-24.1.8-5.5-3-12.8-4.4-18.4-31.6-124.7-64.5-249.5-93-375-6.4-28.2-11.9-56.6-17.5-85Zm0 219c-2.4-.6-2.2.9-2.7 2.8-3.6 13.8-5.6 30.1-8.6 44.4-18.5 87-37.8 173.9-58.6 260.4 4.3 17.3 15.2 33.1 30.4 42.4l38-109c2-.5 3.4 3.7 4 5 5.9 14.4 10.1 33.5 15.2 48.8 6.2 18.5 13.2 36.7 19.3 55.2 15-8.9 25.5-24.2 30.8-40.7-23.8-102.8-47-205.8-67.8-309.3m0 270c-2.6-.3-1.6 0-2 1.5-14.8 50.4-31.7 100.1-41 152 8.7 45 75.4 45 84.1 0-6.1-27.3-11.8-54.8-19.4-81.7-6.7-24.1-16.3-47.4-21.7-71.8" class="outline" data-original-prefix="outline"/></g><g class="trait-group" data-category="head"><path id="outline-head2" fill="#000" d="m1025 335 1 13c-2.3 0 0-4.6-1.5-5-3.2-.9 0 5.1-2.5 5 .5-3.7.5-7.9 1-11.5.2-1.8-.4-1.6 2-1.5" class="outline" data-original-prefix="outline"/></g></svg>