<?xml version="1.0" encoding="UTF-8"?>
<?xml-stylesheet type="text/css" href="../styles/semantic.css" ?>
<svg xmlns="http://www.w3.org/2000/svg" viewBox="0 0 2048 2048">
  <g class="trait-group" data-category="background" id="background-sunset-glow">
      <defs>
    <radialGradient id="sunset-glow-gradient" cx="50%" cy="50%" r="70%" fx="50%" fy="50%">
      <stop offset="0%" style="stop-color:#FFDAB9"/>
      <stop offset="100%" style="stop-color:#8B0000"/>
    </radialGradient>
  </defs>
  <path id="color-sunset-glow" class="color" d="M2048,0v2048H0V0h2048Z" fill="url(#sunset-glow-gradient)" style="fill: url(#sunset-glow-gradient)"/>
    </g><g class="trait-group" data-category="jaw" id="jaw-doom-raider-mask">
      <path id="fill-jaw-main" fill="#ffffff" d="m637.2 1237.2 8.7-.3c13.5-36.6 25-74.9 39.3-111.1 40.9-102.9 149.2-171.1 251.8-201.2 96.8-28.5 178.1-7.9 265 37 60.9 31.4 126.9 87.1 155.2 150.8 8.4 18.9 7.3 37.3 13.6 53.4 7.2 18.6 28.3 46.1 38.7 65.3 15.6 28.9 30.5 61.7 44.3 91.7 1.6 3.4 9.1 18.6 8.9 20.7-26.3 40.9-55.4 79.9-82.8 120.1-25.7 22.3-52.4 43.6-77.4 66.6-10 22.3-16.2 46.5-26.5 68.5-40.4 24.2-79.2 55.9-120 79-37.8 21.3-82.4 35.7-121 56l-20.5.4-115.6-51.4c-45.5-28.4-92.8-54.2-138-83l-27.6-71.4-61.4-52.6-83.8-134.3c-.6-1.5 0-2.8.2-4.3 1.6-6.1 8.7-18.8 11.7-25.3 11.6-25.2 25.5-49.3 37-74.5h.2Z" class="fill" data-original-prefix="fill"/><path id="fill-jaw5" fill="#ffffff" d="M1353 1472c.3 1.4.2 1.3-.6 2.1-2.5 2.4-7.8 5.4-10.8 7.9-10.1 8.4-42.1 34.1-47.4 43.6-10.7 19.7-16.2 47.3-25.4 68.1l-39.1 20.4-58.7 38.8c20.2-48.3 28.3-100.5 36-152 1.4-1.4 10.5 6 16 3.5 25.4-22.1 55.1-38.7 85.8-52.3 15.6 3.6 29.6 13.3 44.2 19.9" class="fill" data-original-prefix="fill"/><path id="fill-jaw4" fill="#ffffff" d="M1337 1303c17.3-4.2 26.8-13.8 38-26.5 10.3-11.7 19.5-24.5 29.5-36.5 15.8 21.7 28.9 48.5 38.3 73.7 2.3 6.1 7.3 19.2 8.1 25 .2 1.9 0 2.2-.7 3.8-2.5 5.3-11.1 14.5-14.9 20.1-9.7 14-20.1 28.6-29 43-9 14.6-18.7 37.6-28.8 50.2-3 3.8-10.2 4.3-11.3.4-.6-2.2 13.9-36.1 15.9-41.8 1.7-4.7 8.4-21.2 7.8-24.8-.8-4.6-9.6-20.7-12.3-25.8-9-16.6-20.8-33.7-32.1-48.9-1.3-1.7-9.7-10.6-8.4-12.1v.2Z" class="fill" data-original-prefix="fill"/><path id="fill-jaw3" fill="#ffffff" d="M711 1303c.7.8-1.9 4-2.6 4.9-11.5 16.1-23.2 30.5-33.2 47.8-3.8 6.6-16 27.9-17 34.1-.6 3.6 7.9 25.6 9.8 30.8 4.4 12 10 23.8 13.9 35.8-6.4 5.8-9.5 2.2-13.3-3.4-10.5-15.6-19.1-34.6-29.2-50.8-8.2-13.2-17.8-26.6-26.6-39.4-3.9-5.6-12.4-14.8-14.9-20.1-.8-1.6-1-1.9-.7-3.8.8-6.2 5.7-18.7 8.1-25 9.6-25.7 22.5-50.4 36.8-73.8l2.4 1.1c9 11.5 17.9 23.4 27.6 34.4 11.3 12.9 21.3 23.6 39 27.5Z" class="fill" data-original-prefix="fill"/><path id="fill-jaw2" fill="#ffffff" d="M841 1501c7.2 51.6 16.2 103.4 35.5 152-31.8-20.5-62-43.8-97-59l-26-69c-16-16.8-34-32.2-52-47-2.1-1.7-8-4.2-5.8-6.1 2-1.8 13.4-7.5 16.7-9.1 4.1-2.1 22.8-10.9 25.9-10.6 31.6 12.9 62 30.9 87.8 53.3 3 2 13.5-6.1 15-4.5z" class="fill" data-original-prefix="fill"/><path id="fill-jaw1" fill="#ffffff" d="M846 1457c-9.4 1.7-24.2 21.3-32.4 21.1-3.7 0-14.6-4.8-18.5-6.6-11.7-5.2-24.9-13.3-36-20.1-5.3-3.2-20.9-15.6-25.7-16.4-3-.5-12.8 1.8-16 2.9-4.2 1.4-26.5 13.6-28.4 12-2.2-17.5-17.1-36.8-12.1-54.5 4.5-16.1 33.4-52.4 45.5-65.5 2.4-2.6 13.9-14.7 16.1-15 1.6-.3 3 .2 4.5.5 12.5 2.5 27.7 8.8 40.7 12.3 27.9 7.4 55.9 13.4 84.6 16.9 22.7-11.5 45.5-22.8 69-32.8 48.7-20.8 80.7-34.3 134.2-15.8 36.9 12.8 73.1 31.7 108.1 48.7 44-5.4 86.9-16.7 128.9-30.3 4.5.4 28.7 29.4 32.9 34.7 9.2 11.7 19.5 25.6 26.1 38.9 4.6 9.2 6 13.9 3.4 24.5l-13.4 38.5c-8.4-3.8-18.3-10.2-27-13-2.9-1-13.4-3.3-16-2.9-4.8.8-25.2 16.2-31.3 19.8-10.7 6.4-24.5 14.6-36 19-3.2 1.2-10.8 4.4-13.8 4.3-6.3-.2-20.6-16.3-28.1-19.9-1-.5-2.2-1.8-3.3-.7-8.5 54.2-15.6 108.7-31.7 161.3-2.8 9.2-8.5 29.8-12.8 37.2-2.3 3.9-32.3 32.9-36.5 35.5-11.1 6.6-43 19.6-55.9 24.1-8.3 2.9-32.6 9.3-40.6 9.4-7.2 0-32.2-6.3-39.9-8.9-12.8-4.2-53.9-21.4-63-29-5.2-4.3-28.6-27.1-31.3-31.7-3.1-5.3-7.2-19.9-9.4-26.6-18.3-55.7-26-113.9-34.8-171.8Z" class="fill" data-original-prefix="fill"/><path id="shading-jaw1" fill="#aaaaaa" d="M1278 1304c.5 1.8 5.6-.4 6.8-.8 16.4-4.8 50.7-16.4 63.7-26.3 12.3-9.2 23.4-45.9 32.7-60.3 2.3-3.5 4.1-6.2 8.8-6.7 0 1.4 0 2.8-.2 4.3-1.8 8.2-7.7 21.7-11 30s-14.4 36.4-19.8 41.2c-3.5 3.1-22.8 10-19.5 16.5 1.1 2.2 11.8 12.2 14.5 15.6 10.3 12.7 18.4 26.9 27.7 40.4 25.3-5.7 50.8-12.9 73.8-24.9l1.1 4-73.1 127.9c-18.1 13.1-38.3 23.5-55.9 37.1l-50 98c-26.9 17.7-58.7 32.4-84.5 51.5-17.4 12.9-36.6 35-54.2 45.8-20.2 12.5-48.9 21.8-70.4 32.6l-92.5-.5c-20.4-12.1-46.2-19.8-66.3-31.7-19-11.3-39.6-35.5-59-49.1-25-17.6-54.1-32.4-80.5-48l-49.8-98.7c-17.4-13.3-37.2-23.2-54.4-36.6l-76-128 2.4-4.4c23.1 11.8 48.5 19.2 73.8 24.8 10.5-16.1 20.6-32.3 33.2-46.9 2.8-3.2 9-6.9 8.3-11.2-1.4-8.8-16.4-9.6-22-18.1-7.5-11.3-17.8-38.9-22.5-52.4-1-2.8-6.5-17.8-5.2-19.2 6.4.5 9.4 8.2 12.2 13.3 5.9 11.2 10.3 23.4 16.3 34.7 2.4 4.6 7.8 14.9 11.3 18 4.7 4 18.1 9.8 24.3 12.4 14.5 6.2 29.8 11.2 45 15.5-16.4-12.2-34.8-21.6-50-35.5-18.3-16.7-19.6-34.6-30.5-55.5-5.2-10.1-12.3-19.1-18.3-28.7-1.8-6.8 5.4-21.6 6.5-29 2.8-19.1 3.8-27.8 12.1-45.9 42.8-94 156.1-156.3 251.2-184.8 55.5-16.7 109-17.9 165-2 99 28.1 225.1 96.5 262.8 198.2 5.1 13.9 5.1 20.8 7.5 34.5 1.2 7.1 7.8 22.1 6.7 28.2-.6 3.4-14.5 22.1-17.5 27.5-11.3 21-13 40.9-31.5 57.5-15.3 13.8-35 25.6-53 35.5v.2Zm-200 23c-5.5-11.1-10.5-24.8-17.6-34.9-4.2-6.1-10.2-10.5-14.9-16.1-3.4-4-15.2-20.5-18.4-21.6-1.9-.6-4.4-.8-6.3-.2-2.4.7-15.7 18.7-18.7 22.3s-7.4 6.8-10.5 10.5c-9.4 11.2-15.1 26.9-21.5 40h108Zm-309.5-23v1c.7-.3.7-.7 0-1m68.5 40c-31.5-5.4-62.3-14.5-92.5-25-4.9-1.7-27.1-11.3-30-11s-12 13.5-14.3 16.7c-3.2 4.4-25.2 35.5-25.2 37.8s9.4 13.2 10.2 17.3c32.5 5.7 63.8 16 95.1 26 4.2-.8 6.5-2.9 9.2-5.8 9.8-10.1 18.8-24.6 28.5-35.5 4.9-5.5 14.2-12.6 18-18 .6-.8 1.4-1 1-2.5m525.8 35.8c.4-4.4 10.8-15.1 10.1-18.1-5.5-6.9-33.4-52.2-38.6-53.6-1.1-.3-2.2 0-3.3.3-38.7 15.6-78.8 28.3-119.9 35.6-.4 1.5.4 1.7 1 2.5 4.5 6.6 16.4 16.4 22.5 23.5 7.8 9 15.1 20.7 23 29 3 3.2 5.7 6 10.3 6.8 31.2-10.1 62.6-20.3 95.1-26zM720 1472c-.4 1.7.5 2 1.5 3 9 8.8 25.2 15.4 33.5 25.5s18.5 37.1 27.1 44.9c3 2.7 10.5 6 14.5 8.6 13.2 8.8 26.3 18.2 39.5 26.6l3.8-5.9-28.3-64.7c-11-6.6-68.3-43.6-76.8-42.8-1.4 0-14.3 4.2-14.8 4.8m608 0c-5.2-.6-13.1-5.9-18-4.6-24.8 13.7-50.3 26.3-73.5 42.6l-27.8 63.3c-1.3 2.2 2.5 8.4 5 7 9.7-7.4 19.7-14.5 29.8-21.3 5.5-3.7 18.6-10 22.5-13.5 8.1-7.4 18.5-33.8 26.1-43.9 7.6-10.3 25.5-17.8 34.5-26.5 1-.9 1.9-1.3 1.5-3Zm-194 173c-2.1-.2-3.8 0-5.7.8-24.5 9.4-50.2 38.1-77.1 42.9-17.9 3.2-50.3 3.7-67.2-3.2-20-8.2-44-31.6-64.3-39.7-1.5-.6-6.2-2.2-5.7.7 1.2 7.7 10.9 21 16 27 6.2 7.3 8.1 8.8 16.3 13.7 30.2 18.1 49.5 27.8 86.2 25.9 21.1-1.1 31-5.5 49.1-14.9 19.5-10.1 34-17.7 45.7-37.3 1.2-2 7.5-15 6.6-15.9z" class="outline shading" data-original-prefix="shading" opacity="0.5" style="opacity: 0.5"/><path id="outline-jaw1" fill="#000000" d="M685 1126c.2 0 1 1.5 2.2 2.2 4.7 2.7 8.7.5 9.7 8.4.6 5.1-2.7 26.3-4.4 31.4-2.8 8.6-17 13.5-21 21-1.2 2.3-7.8 31.1-7.5 33.3.4 3.4 9.5 19 11.8 23.3 4.4 8.2 15.3 29.4 20.7 35.3 9.5 10.3 60.5 26.3 75.9 31.1 29.2 9 59.3 17.4 90 18 29.3-10.7 57.9-23.1 87.2-33.8 16.6-6 42.9-17.7 59.8-17.3 21.9.5 35-1 56.2 5.8 39.5 12.7 77.8 29.4 116.4 44.6 46.7-.8 99.9-16.6 143.1-34.6 5.7-2.4 21.2-9 25.2-12.8 4.6-4.5 15-24.5 18.7-31.3 2.7-4.9 14.7-25.5 14.9-29.2 0-1.7-6.8-30.9-7.6-32.4-3.6-6.8-19-13.6-21.2-20.8-1.7-5.6-5-27.5-4.2-32.7 1-6.5 5.7-5.1 9.7-7.3 1.2-.7 2.1-2.1 2.2-2.2 2.3-1.2 6.9-4.1 9.1-2.6 2.4 1.7.2 26 1.4 30.6 6.9 5 22.7 5.9 26 14 1.1 9.9.5 20.6 1.6 30.4.3 2.9 1 10.8 2.2 12.8 1 1.8 3.1 2.2 4.3 3.7 26.6 31.1 46.5 67.2 61.9 105.1 2.3 5.6 7.6 17.3 8.3 22.7.2 1.4.3 2.7-.6 3.9-24.7 33.2-47.1 68.3-68 104-2.9 4.9-18.6 36-20.4 37.1-3.5 2-13.7-4.6-17.5-3.1-10.9 9.5-22.5 18.2-33.3 27.8-4.6 4-16.5 13.5-19.4 17.6-5 7.1-14.8 34.1-18.3 43.7-4.2 11.1-7.7 22.4-11.3 33.7-32.1 13.9-63.4 31.2-92.5 50.5-20.4 13.5-36.7 25.2-52.5 43.5-9.8 11.4-37.1 18.8-51.9 25.1-22.8 9.6-45.2 20.4-68.5 28.3l-111.2-45.6c-6.9-2.5-9.5-12.1-13.6-15.9-1-.9-2.9-1.1-4.2-2.3-38-35.4-88.6-61.7-135.5-83.5-7.9-26.5-18.8-52-29.6-77.4-17.4-15.7-35.2-31-53.5-45.5-3.5-1.2-13.5 6.1-17.5 2.5-26.4-48.4-54.7-96.1-87.7-140.3-.8-1.3-.8-2.5-.6-3.9.7-5.4 6.1-17.1 8.3-22.7 14-34.4 31.7-67.2 54.5-96.5 8.8-11.4 12.5-9.5 14-26 .9-9.8 0-20.6 1.5-30.5 4.2-7.9 25.3-7.7 26.5-16.5.5-3.9-1.1-7.1-1-10.1 0-5.3 2-11.7 1-17.5 3.8-.6 6.8 1.5 10 3h.2Zm26 177c-17.7-4-27.7-14.6-39-27.5-9.7-11-18.5-22.9-27.6-34.4l-2.4-1.1c-14.2 23.4-27.2 48-36.8 73.8-2.4 6.3-7.3 18.9-8.1 25-.2 1.9 0 2.2.7 3.8 2.5 5.3 11 14.5 14.9 20.1 8.8 12.8 18.4 26.2 26.6 39.4 10.1 16.2 18.6 35.2 29.2 50.8 3.8 5.6 6.9 9.3 13.3 3.4-3.9-12-9.5-23.8-13.9-35.8-1.9-5.2-10.4-27.1-9.8-30.8 1-6.2 13.2-27.5 17-34.1 10-17.3 21.8-31.7 33.2-47.8.7-.9 3.3-4.1 2.6-4.9Zm626 0c-1.3 1.4 7.1 10.4 8.4 12.1 11.3 15.2 23.1 32.3 32.1 48.9 2.8 5.1 11.5 21.2 12.3 25.8.6 3.5-6.1 20.1-7.8 24.8-2 5.7-16.5 39.7-15.9 41.8 1.1 3.9 8.3 3.4 11.3-.4 10.1-12.7 19.7-35.6 28.8-50.2 8.9-14.4 19.3-29 29-43 3.9-5.6 12.4-14.8 14.9-20.1.8-1.6 1-1.9.7-3.8-.8-5.8-5.8-19-8.1-25-9.4-25.2-22.5-52-38.3-73.7-10 12-19.2 24.7-29.5 36.5-11.2 12.7-20.7 22.3-38 26.5v-.2Zm-491 154c8.7 57.8 16.5 116.1 34.8 171.8 2.2 6.6 6.3 21.3 9.4 26.6 2.7 4.6 26.2 27.4 31.3 31.7 9.1 7.6 50.2 24.8 63 29 7.7 2.6 32.8 9 39.9 8.9 8-.2 32.3-6.6 40.6-9.4 12.9-4.5 44.9-17.4 55.9-24.1 4.2-2.5 34.2-31.6 36.5-35.5 4.4-7.4 10-28 12.8-37.2 16.2-52.6 23.2-107.1 31.7-161.3 1.1-1.1 2.3.2 3.3.7 7.5 3.5 21.8 19.7 28.1 19.9 3 0 10.6-3.1 13.8-4.3 11.5-4.4 25.3-12.6 36-19 6.1-3.6 26.4-19.1 31.3-19.8 2.6-.4 13 2 16 2.9 8.6 2.8 18.6 9.2 27 13l13.4-38.5c2.5-10.5 1.2-15.2-3.4-24.5-6.6-13.3-16.9-27.2-26.1-38.9-4.2-5.3-28.4-34.3-32.9-34.7-42 13.6-84.9 24.9-128.9 30.3-35-17-71.2-35.9-108.1-48.7-53.5-18.5-85.5-4.9-134.2 15.8-23.5 10-46.2 21.3-69 32.8-28.7-3.5-56.7-9.6-84.6-16.9-13-3.4-28.2-9.8-40.7-12.3-1.5-.3-2.9-.7-4.5-.5-2.1.3-13.7 12.4-16.1 15-12.1 13-41 49.3-45.5 65.5-5 17.8 9.9 37 12.1 54.5 1.9 1.6 24.2-10.6 28.4-12 3.2-1.1 13-3.4 16-2.9 4.8.8 20.3 13.2 25.7 16.4 11 6.7 24.3 14.8 36 20.1 3.9 1.8 14.8 6.5 18.5 6.6 8.2.2 23-19.4 32.4-21.1Zm-5 44c-1.5-1.6-11.9 6.6-15 4.5-25.7-22.4-56.2-40.4-87.8-53.3-3.1-.3-21.8 8.5-25.9 10.6-3.3 1.6-14.7 7.3-16.7 9.1-2.1 1.9 3.8 4.4 5.8 6.1 18 14.8 36 30.2 52 47l26 69c35 15.1 65.2 38.4 97 59-19.3-48.5-28.3-100.3-35.5-152zm512-29c-14.7-6.6-28.6-16.2-44.2-19.9-30.7 13.7-60.4 30.3-85.8 52.3-5.5 2.5-14.6-4.9-16-3.5-7.7 51.5-15.8 103.7-36 152l58.7-38.8 39.1-20.4c9.2-20.8 14.7-48.4 25.4-68.1 5.2-9.6 37.2-35.2 47.4-43.6 3.1-2.6 8.3-5.6 10.8-7.9.8-.8.9-.7.6-2.1" class="outline" data-original-prefix="outline"/>
    </g><g class="trait-group" data-category="mouth" id="mouth-cracked scrappy">
      <path id="fill-muzzle-1" fill="#ffffff" d="M1038 1292s-.4 1.7.7 2c10.3 2.8 18 4.3 25.8 13 1.9 2.2 4.9 8.8 6.5 9.5 2.6 1.2 6.6 0 9.5.5 11.4 1.5 21.2 3.7 31.2 9.8 2.1 1.3 9.2 7.8 10.2 7.1.3-.3 0-1.7 0-1.9 2.4-1.8 32.7.6 38 1 5.2 4.2 13.2 5.5 19.2 8.3 13.7 6.4 22.5 16.1 29.9 29.1 8.4 14.6 7.7 17.8 3.1 33.4-2.5 8.5-4.8 21.8-16.3 20.2 1.5-15.5-14.8-32.4-26.5-41-3.2-2.4-11.3-7.2-6 0 10.7 14.6 20.5 15 21.5 37.5.5 10.4-8.3 32.8-15.4 40.5-.6.7-7.1 6.3-7.6 6.5-3 1.6-6.8-6.1-7.8-8.2-3.7-7.7-4.8-15.6-9.7-23.3-1.1-1.7-10.8-13.7-12.4-12.1 5.6 13 9 46.2-2.5 56-4.4 3.7-9.4 1.9-13.3 3.7-2.8 1.3-3.1 5.8-4.8 6.2-.9.2-7.2-3.2-9.4-3.5-9.3-1.3-13.1 17-18.7 17.4-2.5.2-10.7-11.9-18.4-9.4-6.8 2.2-15.3 20.6-23.6 23.5-7.3-4.5-4.2-14-6.6-21.1-1.2-3.5-4.2-6.7-5.8-10.2-5.4-12.7-2.8-19.9-.2-32.2.7-3.3-.2-6.3 1.2-9.8.4-1 6-11.5 6.6-12.4 3.7-5.4 19.2-12.4 22.7-3.8.9 2.2 0 8.7 2.2 7.7 5.1-4.9 10.2-9.9 15.5-14.5 10.2-8.9 12.8-8.2 19.5-21.5 1.9-3.8 8.1-17.3 8.2-20.7.2-6.3-17.9-22.6-21-29-3.6-2.9-22.1-2.8-27.2-2.3-14.1 1.5-18 12.2-27.5 19.5-1 .8-1.3 1.9-3 1.5l.8-12.7c7.6-8.2 14.9-16.6 21.1-26 .7-3.3-8.6-12.4-11.3-13.2-3.6-1 .5 5.5.5 6.6.4 5.2-5.9 4.1-9.3 5.6-1.2.5-3 2.7-3.2 2.7s-2-2.2-3.2-2.7c-8-3.5-11.7.6-7.3-12.2-1.6-1.7-12.5 9.1-12.9 11.7-.2 1.6 3.6 7.8 4.8 9.5 1.5 2 5 5.9 7 8.3 3.2 3.9 9.7 7.7 9.9 13.1 0 1.6-.8 3.1-.8 4.8s2.6 8.1-2.5 3.6c-6.2-5.3-10.1-13.6-18.5-17.5-6.8-3.1-28.3-4.1-34.7-.8-.8.4-9.9 11.1-11.2 12.8-2.4 3-10.9 13.7-10.8 16.8.2 5.1 11.2 27.9 14.7 32.2 2.8 3.4 10.2 7.7 14 11 5 4.3 9.7 9.1 14.5 13.5 2.2.9 1.5-5.2 2-7 2.4-9.9 19.2-2.4 23 3.1.7.9 6.6 13.1 6.9 14.1 2.9 11 5.6 26.6 1.9 37.5-1.7 4.9-6.8 10.4-7.8 15.2-1.4 6.6 1 13.6-5 19-5.3 1.2-18.8-21.7-24.4-23.5-8.2-2.6-15.9 9.6-18.4 9.4-5.3-.4-8.7-14-13.9-16.1-6.9-2.8-11.5 2.7-14.1 2.1-1.8-.4-2-4.8-4.8-6.1-4.5-2-9.6.3-14.3-4.7-10.9-11.5-6.5-42.2-1.5-56.1-9.1 6.7-14.1 14.8-18.5 25-1.6 3.6-2 7.5-3.7 11.3-1 2.1-4.9 9.8-7.8 8.2-.4-.2-6.9-5.8-7.5-6.5-4-4.2-13.8-24.3-15-30-2.8-12.9 1.4-26.5 9.5-36.5 4.1-5.1 11.3-9 13-15.5-2.4-2.4-22.3 17.4-24.4 20.1-5.4 6.8-11 15.9-9.6 24.9-4.7.2-8.1-.7-10.8-4.7-1.8-2.7-8.8-24.3-9.2-27.8-1.1-10.9 10.9-28.8 18-37 10.5-12.2 24.5-14.2 38-21.5 12.5-.8 24.5-2.3 37-1 0 0 .7 2.1.5 3 9.5-8.2 20.6-14.8 33.1-16.9 4.7-.8 14.8-.4 18.1-1.8 1.6-.7 5.2-7.7 7.2-9.9 8-8.4 15.2-9.7 25.4-12.5 1.1-.3.6-1.9.7-2 1.1-.7 25.9-.7 27 0Z" class="fill" data-original-prefix="fill"/><path id="fill-teeth16" fill="#ffffff" d="M995.3 1525.7c11 9.5 17.2-6.6 23.2 6.3 6.5 14.1 3.7 38.4-1 52.9-.7 2.1-7.1 16.9-8 17.1-1.2.3-3-.4-4.2-.9-12-5.1-31.7-18.1-39.1-28.9-10.6-15.5-6.4-42.9 6.8-55.8 1.3-1.3 9.1-5.6 10.4-5.3 1.5.3 9.4 12.3 12 14.5h-.1Z" class="fill" data-original-prefix="fill"/><path id="fill-teeth15" fill="#ffffff" d="M1039.1 1601.9c-.8-.5-7.5-16.1-8.1-18.4-4.1-13.8-6.5-36.9-1.3-50.3 4.6-12 8.1-4.3 15.8-4.2 9.5.2 17.3-18.2 20.8-17.9 1.2 0 8.5 4.2 9.7 5.3 6.3 6.2 12.2 22.3 13 31 2.4 28-20.3 39.6-41.3 50.7-2 1.1-5.7 5.5-8.6 3.7Z" class="fill" data-original-prefix="fill"/><path id="fill-teeth14" fill="#ffffff" d="M904 1461c0 2.2-1.1 3.8-.8 6.2.2 1.8 7.1 22 8 23.1 3.9 5.1 11.2 3.2 16.7 3.8 4.9 13.5-4.2 23.8-8.6 35.6-2 5.3-8.7 33.1-12.8 34.2-1.8.5-6.8-9.1-8.3-10.7-10.3-23.9-15.3-58.4-2.6-82.2.6-1.2 7.1-11.6 8.4-10.1Z" class="fill" data-original-prefix="fill"/><path id="fill-teeth13" fill="#ffffff" d="M1144 1564c-2.1 1.4-6.1-7.1-6.8-8.7-3.2-7.9-4.4-17.4-7.5-25.5-4.3-11.6-13.6-22-8.6-35.6 4.8-.6 12.3 1.2 15.9-2.9 1.3-1.5 8.1-20.6 8.6-23.2.3-1.8-1.4-7 .9-6 6 2.7 13.7 26 14.4 32.6 1.4 13.9-2.9 45-9.3 57.4-.8 1.5-7 11.6-7.6 11.9" class="fill" data-original-prefix="fill"/><path id="fill-teeth12" fill="#ffffff" d="M1093.1 1644.9c-2.9-1.8-2.4-28.5-2.1-33.4.7-10.5 5.2-31.2 8.9-41.1 1.1-2.8 2.4-1.4 4.2 0 12.2 9.6 21.1 44.8 12.8 57.9-1.9 3-15.6 14.9-18.9 16.1-1.3.5-3.8 1.1-4.8.4Z" class="fill" data-original-prefix="fill"/><path id="fill-teeth11" fill="#ffffff" d="M949 1569c5.5 22 11.1 44.4 9 67.5-.5 5.2-.9 10.3-7 8-3.4-1.3-17.5-13.4-19.5-16.5-5.8-9.2-1.4-31.3 2.7-41.2 1.2-2.9 11.3-21 14.8-17.7Z" class="fill" data-original-prefix="fill"/><path id="fill-teeth10" fill="#ffffff" d="M881.7 1478.3c3.1 2.8-2.7 21-2.8 26.2 0 5.9 2.6 12.4 3.1 18 .2 2.1.7 24.5-.5 24.5-1.5.2-2.1-1.1-2.9-2.1-15.6-18.9-34.8-51.8-17.4-75.3 6.5-8.8 10.5 2.1 14.9 5.8 1.8 1.5 4.9 2.1 5.7 2.8Z" class="fill" data-original-prefix="fill"/><path id="fill-teeth9" fill="#ffffff" d="M1185.7 1467.3c1.9 1.6 7.8 13.7 8.2 16.2 3.2 20.7-9.8 47.3-23.9 61.9-.9 1-1.3 1.9-3 1.5.5-8-.7-16.6 0-24.5.4-5.4 3.1-12.3 3.1-18s-6.1-23.4-2.8-26.2c.6-.6 2.5-.6 3.8-1.7 3.4-3 10-13.1 14.7-9.3Z" class="fill" data-original-prefix="fill"/><path id="fill-teeth8" fill="#ffffff" d="M1018 1613v16.5c0 .9-10.8 13.2-11.9 14.1-6.3 4.8-8-2.6-10.6-5.5-5.5-6-17.9-.4-24.4-5.6-1.2-.9-4.1-8.8-4.1-9.9v-22.5c12.9 1.7 28.3 17.5 41.4 15.9 3.5-.4 6.1-3 9.6-2.9Z" class="fill" data-original-prefix="fill"/><path id="fill-teeth7" fill="#ffffff" d="M1031 1613c6.3 1.3 9.1 4 16.1 2.6 10.6-2.2 24.3-14.8 33.4-15.6 2-.2 1.4 0 1.2 1.3-.8 6.5 2.4 27.5-4.4 31.6-7 4.2-18.8-.3-23.4 4.6-2.1 2.2-3.6 8-8.4 7.6-1 0-14.6-13.5-14.6-14.6V1613z" class="fill" data-original-prefix="fill"/><path id="fill-teeth6" fill="#ffffff" d="M1102.5 1494c3.3-.8 4.5 6.9 5.3 8.7 5.6 12.1 13 24.8 13.3 38.8.2 9-16 29.8-21.3 16.2-4-10.4-4.1-44.8-1.1-55.5.4-1.6 2.4-7.9 3.8-8.2" class="fill" data-original-prefix="fill"/><path id="fill-teeth5" fill="#ffffff" d="M937.3 1559.7c-1.9-1.6-7.8-10.5-8.5-13-3.6-12.1 6-31.3 11.4-42 1.6-3.1 3.3-14.7 8-7.4 5.5 8.5 4.3 41.5 2.7 52.1-1.2 7.7-3.6 18.7-13.6 10.3" class="fill" data-original-prefix="fill"/><path id="fill-teeth4" fill="#ffffff" d="M917 1563c-1.8 13.4 2.9 27.5 2 40.5-.6 9-4.4 18.4-5.5 27.5-6.2-6-10.5-16.1-11.4-24.6-.5-5.2.7-24.7 2.4-29.3.6-1.6 10.5-16.2 12.4-14.1Z" class="fill" data-original-prefix="fill"/><path id="fill-teeth3" fill="#ffffff" d="M1135 1631c-.4-8.9-4.4-17.8-5.1-26.5-1-13.8 3.7-27.6 2-41.5 2.2-2.4 11.9 13 12.5 15 2 6.6 2.6 27.4 1.2 34.3-1.3 6.3-5.5 14.9-10.8 18.7z" class="fill" data-original-prefix="fill"/><path id="fill-teeth2" fill="#ffffff" d="M1154.1 1604.9c-3.4-2-5.1-22.3-3.9-26.2.8-2.6 8.9-5.2 10.2-8.8l5.1-10.9c3.8 3.4 5.1 7.2 4.3 12.2-.7 4.2-5.4 22.7-6.9 26.2-.9 2.2-6.1 9-8.8 7.5" class="fill" data-original-prefix="fill"/><path id="fill-teeth1" fill="#ffffff" d="M885 1559c-.3 3.7 1.7 9.4 4 12.2s9.5 5.2 10 8.3c-2 8.4 1.6 19.2-5.7 25.4-3.6-1.1-6-4-7.4-7.4s-6.5-23.6-6.9-27.1c-.5-4.2 1.2-10.6 5.9-11.4z" class="fill" data-original-prefix="fill"/><path id="shading-mouth2" fill="#aaaaaa" d="M918 1443.5c.8 5.3 5.6 13.8 10.1 16.9 11.5 8.3 16.2-.3 22.4-9.4 2.5 5.4 3.4 11.5 6 17 1.4 2.8 5.7 12 7.5 5.5l4-11.5c1.6 7.5 6.3 15.4 11.5 21 4.3 4.7 18.8 15.4 24.6 9.6 2-2.1 8.3-17.9 10.8-22.2 1.2-2.2 7.8-13.8 9.7-13.3 1 .2 8.5 13.2 9.7 15.3 2.4 4.5 7.3 17.7 9.8 20.2 3.8 3.8 10.5.4 14.4-1.8 10.5-5.9 18.5-17.2 21.7-28.8l4.2 12.3c.3 1.2 1.9 2.4 2.8 1.7.6-.4 5.8-11.3 6.5-13 .8-2 2.8-12 4-12 6.8 10.7 12.9 18.4 24.5 7.5 8.6-8 9.3-23.8 7-34.5 3.5-3.1 21.1 16.1 26.6 16.9 9.1 1.4 17.6-11.8 19-19.9 3.5-20.5-12.9-39.2-30.9-46.2l-12.7-4.8c15.4 0 28.2 2.9 41.1 11.4 4.8 3.1 12.2 10.9 17.6 11.4 6.2.6 10.1-4.1 10-10-.4-19.3-25.8-38.1-39.7-48.8 15.4 2.4 34.6 11.8 45 23.5 7.8 8.8 19.1 25.1 19.1 37s-6.4 28.5-9.2 32.8c-3.3 5.3-11.7 5.4-13.4 10.6-.9 8.1-2.1 16.4-2.5 24.5-1.5 29 1.4 45.2-10.8 73.2-3.6 8.2-12.7 20.4-14.9 27.1-4.2 12.8-.7 26.4-9.1 38.9-3.2 4.8-8.4 6.7-11.2 10.8-1.7 2.5-2.4 6.1-4.2 8.8-4.5 6.7-14.6 23-21.6 8.9-1.6-3.3-1.3-12.9-6.7-6.2-1.4 1.7-1.9 4.4-3.5 6.5-3.7 4.7-17.7 19.6-23.5 19.5-2.2 0-4.5-4.1-6.6-5.4-7.9-5-21.1-6.3-29.2-1.4-7.3 4.4-9.5 13.6-18.1 6.8s-6.4-10.8-20.1-9c-5.6.7-11.4 12.6-16.9 12.1-2.8-.2-11.4-11.1-18.5-12.6-6.3-1.3-17.5.7-23 4.2-2.6 1.7-4.1 5.6-7.5 5.4-5.7-.3-19.8-15.8-23.6-20.5-1.2-1.5-4.4-10.6-7.1-6.9-2.5 3.4-.6 9.9-7.2 12.7-7 3-14.9-11.2-18.1-16.4-1.2-1.8-1.2-4.3-2.6-6.4-2-3-6.8-5.4-9.5-8.5-10.4-11.9-6.7-27.7-10.7-41.3-.8-2.6-5.6-8.5-7.3-11.7-18.4-35.7-16.4-45.6-18.4-84.6-.4-7.7-.6-20.7-2.2-27.8-1.5-6.2-11.1-6.1-14.2-11.8-3.4-6.1-9.3-29.6-8.6-36.4 1.2-10.3 16.2-31.2 24-38 10.5-9.2 26.2-16.5 40-18.5l-21.5 17c-7.2 6.4-26.8 32-14.8 39.9 9 5.9 16.7-4.5 23.7-9.1 12.7-8.4 25.3-11.8 40.7-11.8l-17.3 7.2c-18 9.4-33.1 32.7-22.1 52.8 1.7 3.1 8.6 10.4 12 11.1 9.1 1.7 20.7-15.4 29.5-18 .6 6.4-.9 14.3 0 20.5zm-37.1 40.6c-12.3-.5-17.1-20.2-22.8 1.5-3.4 13 1.2 26.4 9.4 36.5 1.5 1.8 12.7 13.1 13.9 12.9.8 0 2.5-2.3 2.8-3.2 2.9-7.1-3.2-12.2-4.2-19.2-1.5-9.8 0-18.7.9-28.4Zm301.8-8.9c-3.2.8-6.3 6-8.8 7.3-2.1 1.1-7.2 1-7.8 3.2-.5 1.7 3 10.8 2.9 14.8 0 3-1.5 13.9-2.2 16.8-.9 3.6-3.9 5.7-3.9 10.2s1.4 7.1 3.7 7.4c1.9.3 15-14.4 16.8-17 5.7-8.5 9-18.8 7.3-29.2-.5-3-4.4-14.5-8-13.6Zm-284.8 10c-4-2.3-6.5 9.9-6.8 12.5-1.2 10.5 3 38 8.7 47.1 1.9 3 5.4 6.9 9.2 7.3 3.7-15.6 12.6-29.2 21-42.5-2.3-.4-1.7-2.9-2.7-3.5-1.5-.9-7-1.9-9.7-3.1-4.7-2.2-12-7.7-15.6-11.4-1.2-1.2-3.8-6.2-4.2-6.3ZM1139 1552c8.3-2 11.9-12.2 13.9-19.6 3.1-12.1 6.1-33.4 1.1-44.8-3-6.9-5.8 1.7-8.3 4.1-3.9 3.8-11 9.3-16 11.6-2.5 1.1-7.8 1.8-9.1 2.7-.7.5-.5 1.8-1 2.7-.3.4-1.7.4-1.6.9 0 1 7.9 12.3 9.2 14.8 4.8 8.8 9.1 18 11.8 27.7Zm-197.7 5.7c8.1 8.1 9.5 0 10.5-7.3.8-5.6 2.7-20.6 1.7-25.4-3.6-17.2-21.3-15.9-21.6 3.6 0 6.8 4.6 24.3 9.4 29.2Zm161.5-44.5c-5 1.3-8.5 9.3-8.8 14.2-.2 4 2.4 28.5 3.8 31.3 2.5 5 7.5 0 9.8-2.7 6.8-8.3 11.6-30.7 4.5-39.5-2.7-3.3-4.8-4.4-9.2-3.3zM1023 1544c-.7-.7-.8-7-5.1-9.4-8.9-5-21.8-.8-32-4-10.4-3.3-9.4-13.1-16.1 1.8-2.9 6.4-9.1 24.4-6.3 30.7 1.1 2.4 17.8 15.6 21.2 17.8s18.2 11.7 21.1 10c3.1-5.6 9.3-9.5 12.6-14.9 1.8-2.8 4.1-11.5 4.6-11.9 1.6-1.7 1.7.5 2.1 1.4 1.6 3.6 2.1 6.8 4.5 10.5 3.3 5.2 9.2 9.3 12.4 14.6 3.1 1.9 15.5-5.9 18.9-8.1 4.5-2.9 22.9-17 23.9-21.1 2.2-9.7-6.6-28.3-10.9-37.2-4.9 1-7.8 5.2-12.7 6.7-9.2 2.8-28.2-1.6-33.7 6.3-.9 1.2-2.6 8.9-4.5 7zm-136 18c-.7-.6-3.5 0-4.5.9-6 6.2 2.4 31.6 14.6 27.6 4-1.3 3.8-9.4 2.8-12.9-1.1-3.9-7.2-4.1-9.8-7.2-2.1-2.5-2.7-8.2-3-8.5Zm274.1 0c-.3.3-.9 6-3 8.5-2.6 3.1-8.7 3.3-9.8 7.2-1 3.4-1.2 11.6 2.8 12.9 13.4 4.4 20.2-24.5 14.1-28.1-.9-.5-3.5-.9-4-.4Zm-216.4 7.2c-1.5.4-5.1 4.6-6 6.1-3.4 5.6-5.6 32.3-4.8 39.3 1.3 10.9 15.2 18 19.5 3.5 1.7-5.6 2.6-21.4 2.5-27.6 0-1.1-5.8-19.7-6.5-20.5-1.2-1.4-3.2-1.3-4.8-.8Zm153.3-.1c.2 6.6-5.4 14.7-6 20.6-.5 4.5 1 25.3 2.4 29.4 4.2 12.1 16.9 7.3 19.1-2.9 1.1-5.2 0-16.8-.6-22.6-1-9.7-1.7-25.5-14.9-24.5m-180 1.9c-20.5 3.8-17 28.7-9 43 4 2.9 10.4-17 10.7-19.8.9-7.5-2.9-15.5-1.8-23.2Zm218 43c2.5 1.8 7.2-9.1 7.7-10.8 3.9-12.8 1.6-30.1-13.7-32.2.5 7.4-2.8 16.2-1.9 23.4.3 2.7 6.4 18.5 7.9 19.6m-148.2 10.2c1.4.8 4.8 8.6 9.5 11 11.1 5.8 20.2-6.4 20.7-16.7.8-13.7-7.2-7.7-16.5-8.6-8.4-.8-15-4.8-21.8-9.2-5.5-3.5-13.6-14.6-14.7-1.4-.5 5.1 1.4 7.5 1.8 11.2s-2 5.9.5 10.7c4.8 9.3 18 1.3 20.7 2.8zm93.1-31.1c-2.1-1.5-19.7 12.7-23.9 14.4-2.3 1-7.9 2.3-10.5 2.5-10.5.9-18.8-5.4-16.4 11.4 1 7.3 7.9 15.8 16 15.1 9.4-.8 11.9-11.6 14.6-12.4 4-1.3 12.3 5.7 18.9-1.1 4.3-4.4 1.3-8.4 1.5-12.5 0-2.3 1.9-4.8 2-8.1 0-1.9-.8-8.5-2.2-9.4Z" class="outline shading" data-original-prefix="shading" opacity="0.5" style="opacity: 0.5"/><path id="shading-mouth1" fill="#aaaaaa" d="M1041 1343c6.1.5 12.7-1 17.5-5 1.5-1.3.9-3.7 2.8-2.9 10.1 7.9 37.9 17.4 43.8 28.2 3.6 6.5 4.6 17.5-1.8 22.6-5.6 4.5-20.8 10.8-28 15-4.9 2.8-9.7 6.6-14.7 9.3-7.4 4.1-25.5 14.5-32.6 16.4-2.9.8-5.2.8-8.1 0-14.5-3.8-42.2-22.5-56.3-30.7-6.2-3.6-21.2-9.1-23.2-15.8-5.5-18.4 15.7-28.3 28.7-35.4 2.3-1.2 15.5-8.6 16.5-8.7 2.9-.3 4.2 2.9 6.7 4.2 4.2 2.3 10 3.2 14.7 2.8-.3-5.1-3.3-11.3-1.8-16.3.5-1.6 12.5-13.9 14.5-14.4 3.9-1 8.2-.3 11.6 1.9 1 .7 10.8 11.1 11.2 11.8 2.1 5-1.2 11.8-1.5 17" class="outline shading" data-original-prefix="shading" opacity="0.5" style="opacity: 0.5"/><path id="outline-mouth3" fill="#000000" d="M889 1333c-13.5 7.3-27.4 9.4-38 21.5-7.1 8.2-19.1 26.1-18 37 .3 3.5 7.3 25.1 9.2 27.8 2.7 4 6.1 4.9 10.8 4.7-1.4-9 4.2-18.1 9.6-24.9 2.1-2.6 22-22.5 24.4-20.1-1.7 6.5-8.8 10.4-13 15.5-8.1 10-12.3 23.6-9.5 36.5 1.2 5.7 11 25.8 15 30 .7.7 7.1 6.3 7.5 6.5 3 1.5 6.9-6.1 7.8-8.2 1.7-3.8 2.1-7.7 3.7-11.3 4.4-10.2 9.4-18.4 18.5-25-5.1 13.9-9.5 44.6 1.5 56.1 4.8 5 9.9 2.7 14.3 4.7 2.8 1.3 3 5.7 4.8 6.1 2.6.6 7.2-4.9 14.1-2.1 5.2 2.1 8.6 15.6 13.9 16.1 2.5.2 10.2-12 18.4-9.4 5.6 1.8 19.1 24.8 24.4 23.5 6.1-5.4 3.7-12.4 5-19 1-4.8 6.1-10.3 7.8-15.2 3.7-10.9 1-26.5-1.9-37.5-.3-1.1-6.2-13.2-6.9-14.1-3.8-5.5-20.6-13-23-3.1-.4 1.8.2 7.9-2 7-4.8-4.4-9.5-9.2-14.5-13.5-3.8-3.3-11.2-7.6-14-11-3.5-4.3-14.5-27.1-14.7-32.2 0-3.1 8.4-13.8 10.8-16.8 1.4-1.7 10.5-12.5 11.2-12.8 6.4-3.2 28-2.3 34.7.8 8.4 3.8 12.4 12.1 18.5 17.5 5.2 4.5 2.5-1.7 2.5-3.6s.9-3.2.8-4.8c-.2-5.4-6.7-9.2-9.9-13.1-2-2.4-5.5-6.3-7-8.3-1.2-1.7-5.1-7.9-4.8-9.5.4-2.6 11.3-13.4 12.9-11.7-4.4 12.8-.7 8.7 7.3 12.2 1.2.5 3 2.7 3.2 2.7s2-2.2 3.2-2.7c3.4-1.5 9.7-.4 9.3-5.6 0-1.1-4.1-7.6-.5-6.6 2.8.8 12.1 10 11.3 13.2-6.2 9.4-13.5 17.8-21.1 26l-.8 12.7c1.7.4 2-.7 3-1.5 9.5-7.3 13.4-18 27.5-19.5 5.1-.6 23.6-.6 27.2 2.3 3.2 6.4 21.2 22.7 21 29 0 3.4-6.3 16.9-8.2 20.7-6.8 13.3-9.3 12.6-19.5 21.5-5.3 4.6-10.4 9.6-15.5 14.5-2.2.9-1.4-5.6-2.2-7.7-3.4-8.6-19-1.6-22.7 3.8-.6.9-6.2 11.4-6.6 12.4-1.3 3.6-.5 6.5-1.2 9.8-2.6 12.3-5.2 19.6.2 32.2 1.5 3.5 4.6 6.8 5.8 10.2 2.4 7.1-.8 16.6 6.6 21.1 8.3-2.8 16.9-21.3 23.6-23.5 7.7-2.4 15.9 9.6 18.4 9.4 5.6-.5 9.4-18.8 18.7-17.4 2.2.3 8.4 3.7 9.4 3.5 1.7-.4 2-4.9 4.8-6.2 3.9-1.8 8.9 0 13.3-3.7 11.5-9.9 8.1-43 2.5-56 1.6-1.6 11.3 10.4 12.4 12.1 4.9 7.6 6.1 15.6 9.7 23.3 1 2.1 4.8 9.8 7.8 8.2.4-.2 6.9-5.8 7.6-6.5 7.1-7.7 15.9-30.1 15.4-40.5-1-22.4-10.8-22.9-21.5-37.5-5.3-7.2 2.8-2.4 6 0 11.8 8.6 28 25.5 26.5 41 11.4 1.6 13.7-11.7 16.3-20.2 4.6-15.6 5.3-18.8-3.1-33.4-7.4-13-16.3-22.7-29.9-29.1-6-2.8-14.1-4.1-19.2-8.3 9.3.7 19.7 2.8 29.2 5.3 7.4 1.9 14.4 3.9 20.7 8.3 3.2 9.3 27.6 34.6 28 42 .2 3.9-8.4 23-10.2 28.7-2.4 7.4-1.3 15.8-9 20-2.1 1.1-8.8 2.4-9.5 3-3.6 3.6-1.9 26-2.2 32.3-1.2 29.7-2.2 52.7-20.5 77.5-.9 1.2-2.6 1.5-3.6 2.7-4.3 5.6-2.8 18.6-4.3 26.5-1.1 6-5 13.1-5.6 18.4-.4 3.6 1.4 7.3.2 10.1-1 2.4-9.9 8-12.6 9.5-2.2 1.2-5.7 1.5-6.5 2-.6.4-5.4 10.9-7.2 13.3-2.1 2.7-11.1 11.3-14 12.1-4.1 1.2-7.9-10.3-9.9-13s-2.3 2.3-3.6 4.3c-4.3 6.7-25.1 26.6-32.4 28.6-1.7.5-3.3.7-5 .5-.2-6.5 3.6-11.9-3-16.5-7.6-5.2-17.7 0-21.5 7.4-4.2 8.3-1.8 29.9-14.4 16.5-7.1-7.5-13-17.8-18.5-26.4-2.8 5-19.9 30.6-24 31-5.8.6-5.9-11.5-7.2-15.8-2.5-8.5-10.5-17.7-20-14.4-12.1 4.1-4.7 16.7-6.3 18.2-6 1.1-9.7-4.5-15-5-1.3 6.3-5.2 11.9-5.1 18.5.2 11.2 13.9 23.7 10.9 33.8-.8 2.7-3.4 3.2-5.5 1.4-3.7-3.3-7.9-17.8-10.4-23.1-3.8-8-11.3-14.9-9.4-23.7 1-4.7 7.9-13.9 7.6-17.4-.5-5.3-12.8-12.5-12-18.6-1.2-.2-1.3-.3-2.1.6-2.1 2.7-6.2 14.3-10.2 13.3s-12-10.2-13.7-12.4c-2.1-2.7-6.6-12.8-7.2-13.2-.7-.5-4.2-.8-6.5-2-2.5-1.3-12.6-7.8-13.2-9.9s1.2-6.2.8-9.7c-.6-5.1-4.5-11.5-5.6-17.4-1.7-8.4.3-19.9-3.9-26.1-5.9-8.8-10.5-12.8-15.3-23.7-13.6-31.3-7.5-52.3-10.1-83.9-.8-9.9-3.8-5.3-10.8-9.3-8.2-4.6-6.8-13.1-9.3-20.7-1.9-5.9-9.7-21.8-10-26.1-.2-3.3 1.1-4.7 2.5-7.3 6.8-12.4 18.9-24.3 26.1-36.9 5.9-4.3 13.2-6 20.1-7.9 9.7-2.6 19.8-4.7 29.2-5.3Zm15 128c-1.4-1.5-7.8 8.9-8.4 10.1-10.6 19.9-8.6 50.8-1.8 71.7 1.1 3.3 9.4 22.1 12.8 21.2 4.4-1.1 10.8-28.9 12.8-34.3 4.3-11.7 13.6-22.1 8.6-35.6-4.8-.6-12.2 1.2-15.9-2.9-1.4-1.5-8.5-21.7-8.8-24s.8-4 .8-6.2Zm240 103c.6-.4 6.8-10.5 7.5-12 6.2-12 8.8-32.9 9.5-46.5.8-15.3-4.1-32.2-14.6-43.5l-2.2 9.8c-4.9 13.6-4.6 25.2-23.1 22.4-5.2 13.7 4.3 23.9 8.6 35.6 3.1 8.4 6 27.5 11.8 33.2.7.7 1.4 1.8 2.4 1.1Zm-262.3-85.7c-1-.9-4.6-2-6.6-3.9-4.2-3.9-7.8-13.1-14-4.7-13.3 17.9-4.1 44.9 7 61.7 1.6 2.4 11.5 15.7 13.3 15.7.5-8 1.2-16.5.5-24.5-.4-5.4-3.1-12.3-3.1-18s6-23.3 2.8-26.2ZM1167 1547c1.7.4 2-.5 3-1.5 17.5-18 32.6-50.9 18.4-74.4-6.5-10.8-10.8-.4-16.9 4.9-2 1.7-5 1.6-5.5 4.5-.8 4.5 4 18.3 4 24s-3.3 14.8-3.6 21.2 1.6 14.6.6 21.3m-219.1-51.9c-4.7-3.3-6.5 7.1-7.7 9.6-5.3 11-11.8 23-12.2 35.8-.2 7.6 10.5 26.2 19.1 21 3-1.8 4.7-18 5-22 .4-6.4.2-41.4-4.1-44.4Zm67.8 32.2c-3.2-2.8-9.7 3.2-15.8 1.3-2.1-.7-8.7-7.5-10.5-9.5-2.6-2.9-3.4-8.8-8.2-7.4-12.2 3.5-20.5 24.1-21.2 35.9-.9 13.6 2.4 21.7 11.5 31.5 9.8 10.4 24 15.7 36.1 23h2.3c2.1-6.4 6.2-12 8.1-18.4 3.7-12.2 7.9-47.3-2.3-56.2zm23.4 74.6c1.1.7 3.4 0 4.6-.7 5.6-2.4 20.1-11.1 25.2-14.8 13.4-9.8 21.4-21.7 20.1-38.9-.9-11.9-9.2-33-22-36.1-4.4-1.1-5.5 5-8 8-1.7 1.9-7.3 7.9-9.2 8.8-9.2 4-14.3-9-20 5-5.4 13.2-2.6 37.5 1.5 51.1.7 2.2 7.1 17.1 7.9 17.6ZM885 1559c-3.2-3.3-6.4 8.4-5.8 12.3.7 4.5 5.4 23.4 7 27 1 2.2 6.2 8.5 8.7 6.7 3.4-2.4 3.2-20.7 4-25.4-.5-3.1-8.3-6.1-11-10-2.3-3.5-2.6-10.1-3-10.5Zm32 4c-1.9-2.2-11.8 12.5-12.4 14.1-1.7 4.6-3 25.2-2.4 30.3.9 7.9 5.6 18 11.4 23.6 1.4-8.8 5-18.6 5.5-27.5.8-13.1-3.7-27.1-2-40.5Zm218 68c7.1-5.4 12.1-18.8 11.8-27.5 0-2.6-1.7-5.2-1.8-8-.3-5.4.8-12.5-.5-17.5-.6-2.3-10.4-17.3-12.5-15 1.5 13.8-3.1 28-2 41.5.7 8.7 4.6 17.6 5.1 26.5Zm-35-62c-2.8 14.2-8.1 27.9-9 42.5-.3 5.3-1.4 33.3 3.6 34.4 2.4.6 18.8-13.3 20.9-15.9 8.3-10.5 3.8-32.3-1-44-1.2-2.9-11-19.9-14.5-17m-82 44c-3.5 0-6.1 2.5-9.6 2.9-12.7 1.6-29.1-13.9-41.4-16.9v24.5c0 .6 3.2 8.2 4.1 8.9 6.5 5.2 18.9-.4 24.4 5.6 2.6 2.9 4.3 10.3 10.6 5.5 1.1-.8 11.9-13.1 11.9-14.1v-16.5Zm64-13c-13.2 1.2-27.8 17.6-41.4 15.9-3.5-.4-6.1-3-9.6-2.9v17.5c0 1.1 13 14.6 15.4 14.5 4.9-.3 5.1-4.7 7.1-7 5.5-6 18.3-.4 24.4-5.6 1-.9 4-9.7 4-11v-21.5Z" class="outline" data-original-prefix="outline"/><path id="outline-mouth2" fill="#000000" d="M1122 1332c-.2 0 .2 1.6 0 1.9-1 .8-8.1-5.8-10.2-7.1-10-6.1-19.8-8.3-31.2-9.8-2.9-.4-6.9.7-9.5-.5-1.5-.8-4.5-7.4-6.5-9.5-7.8-8.7-15.6-10.2-25.8-13-1.1-.3-.6-1.9-.7-2 3.1-3.8 16.2-9.3 20.8-9.8 7.9-.9 5.5 4.4 6.5 9.1 2.3 10.7 9.3 19.6 21.3 18.8 5.1-.3 5.6-4 7.9-4.1 1.4 0 6.6 2.9 8.2 3.8 9.4 5.2 15 12.5 19.3 22.2z" class="outline" data-original-prefix="outline"/><path id="outline-mouth1" fill="#000000" d="M1011 1292s.4 1.7-.7 2c-10.2 2.8-17.4 4.1-25.4 12.5-2 2.1-5.6 9.2-7.2 9.9-3.4 1.4-13.5 1-18.1 1.8-12.5 2.1-23.6 8.7-33.1 16.9.2-.9-.5-2.8-.5-3 .7-2.3 8.9-13.5 11-15.5 2.4-2.4 14.7-10.5 17.6-10.4s3 5.1 11.9 3.9c10-1.3 16.2-10.1 17.5-19.6.4-2.6-2.4-6.7 2.8-8.2 3.5-1 21.7 5.6 24.3 9.8Z" class="outline" data-original-prefix="outline"/>
    </g><g class="trait-group" data-category="eyes" id="eyes-lennon">
      <path id="fill-eyes1" fill="#ffffff" d="M1337.4 1026.1c3.1 1.9 27.4 48.4 30.4 55.1 4.6 10.3 10.8 24.4 12.8 35.2 2.1 11.4-12.9 9.7-18.9 15.9 56.4 60.1 63.7 159.1 15.2 226.2-85.8 118.9-273.9 81.8-306.7-61.7-1.4-6-3.2-25.8-5-29s-14.2-10.6-17.5-13.5c-7.3-6.4-13-14.8-20.5-20.5-2.7 1.3-6.1-.6-8.4.4s-12.9 14.1-16 17c-6.6 6.1-14.2 11.2-20.9 17.1-3.1 29.1-11.3 56.4-26.7 81.3-64.6 104.6-220.3 106.5-288 4.2-44.8-67.5-36.8-162.7 18.6-221.6-4.4-4.5-20.1-6.7-20.1-14s2.6-3.6 3.6-5.5 1-6.9 2.1-9.9c7-20.2 26.5-59.6 39.4-76.4.7-.9 2.4-.4 3.1-1.3 17.8-23.5 37.1-50.1 58.4-70.4 144.8-137.8 344.4-143.2 493.5-8.5 23.4 21.2 42.9 45.9 62.4 70.6 4.9 6.3 2.4 5 9.3 9.2Z" class="fill" data-original-prefix="fill"/><path id="fill-eyes2" fill="#ffffff" d="M1225.8 1080.3c-134.6 8.8-201.3 164-125.2 272.6 71.9 102.5 225.4 92.8 284.9-16.9 63.4-116.9-25.8-264.5-159.7-255.7" class="fill" data-original-prefix="fill"/><path id="fill-eyes3" fill="#ffffff" d="M799.8 1080.3c-132.6 9.3-203.1 165.1-126.6 273 70.7 99.7 219.8 93.3 281.6-12 69.1-117.7-16.2-270.8-155-261" class="fill" data-original-prefix="fill"/><path id="shading-eyes8" fill="#aaaaaa" d="M942 857c-12.2 12.2-28.8 18.2-42.9 27.6-28.1 18.6-58.9 57.3-75.3 86.7-2.4 4.4-10.8 19.8-11.4 23.7-2.9 17.9 18.5 42 30.7 53.5 38.6 19.7 77.6 39.1 113.5 63.5 10.9 12.6 32.2 63.9 44.2 70.8 9.5 5.5 13.5-.6 18.8 13.2 1.1 2.8-.7 5.7 2.8 7.3 5.4 2.5 4.8-4 6.2-7.3.8-1.9 3.6-8.2 4.9-9.1 2.2-1.6 10.3-2.3 13.8-4.2 11.6-6.3 33.5-59.5 44.7-71.3 16.2-11.1 33.2-21.1 50.3-30.7 18-10 47.2-21.5 62.6-32.4 7.9-5.6 26-29.3 28.6-38.4 5.1-17.8-6.4-33.8-15.5-48.5-16.6-26.8-42.8-59.3-69.1-76.9-14.2-9.5-30.9-15.1-42.9-27.6 32.3 6.5 63 20.9 91.3 37.2 45 25.9 89.6 63.8 119.5 106.5 2.5 3.6 7.3 8.9 5.5 13.1-1.6 3.7-26.3 9.5-31.6 11.5-58 21.6-107.5 42.9-156.6 81.4-26.9 21-39.3 37.8-58.3 65.7-4.9 7.2-6.3 13.4-13.3 19.7-2.1 1.9-22 16.2-23.4 16.6-1.9.6-28.2.6-30.1 0-1.3-.4-19.7-13.4-21.9-15.1-8.5-7-9.6-13.4-15.3-21.7-18.6-27.2-30.8-43.5-56.9-64.1-49.5-39-98.9-60.6-157.6-82.4-5.5-2-29-7.5-31.3-10.6-2.9-4 2.2-9.9 4.6-13.5 27.2-39.6 72-78.2 113.1-102.9 30.2-18.1 63.5-34.2 98.3-41.2Z" class="outline shading" data-original-prefix="shading" opacity="0.5" style="opacity: 0.5"/><path id="shading-eyes7" fill="#aaaaaa" d="M982 1232.5c0-.5-1.4-1.5-1-2.5l30.7-7.8c6.6 2.7 10.5 5.2 17.9 2.8 2-.6 4.2-2.8 5.7-2.8 3.7 0 15.4 4.5 20.5 5.4 3.7.7 7.3 1.8 11.1 1.3 1.9-15.4 5.6-30.8 11.3-45.2 4.4-11.2 7-15.9 15.8-24.2 23.8-22.6 59.7-46.6 91.2-55.8 1.6-.5 18.8-5.4 18.8-3.2L1078.5 1318c-1.7 0-8.2-25-8.8-28.2-1.2-5.4-1.9-20.2-4.2-23.8-1.2-1.8-14.3-10.7-17.4-13.6-3.5-3.1-17.5-19.4-19-20-.4-.2-8.8-.4-9.2-.3-1.3.3-15.6 16.6-18.7 19.4-3.7 3.3-16.8 11.9-18.5 14.5-2.3 3.7-5.8 29.7-7.8 37.2-17.3 62.5-72.8 113.6-137.7 121.8l126-220c1.5-1.1 10 22.7 11 24.5l8 28.5c-.4-8.4.5-17.1 0-25.5z" class="outline shading" data-original-prefix="shading" opacity="0.5" style="opacity: 0.5"/><path id="shading-eyes6" fill="#aaaaaa" d="m1256 1427 127.5-222c1.7.8 11.6 27.3 12.8 31.2 2.4 7.9 10.7 36.7 10.8 43.3 0 7-3.7 21.2-5.8 28.3-14.5 48.4-55.6 91.7-103 109-14 5.1-27.7 7.5-42.2 10.2z" class="outline shading" data-original-prefix="shading" opacity="0.5" style="opacity: 0.5"/><path id="shading-eyes5" fill="#aaaaaa" d="m784 1100-131 226c-16.5-40.5-18.7-84.7-6.3-126.8 6.6-22.5 18-31.9 35.2-46.8 28.5-24.6 64.2-47.4 102-52.5Z" class="outline shading" data-original-prefix="shading" opacity="0.5" style="opacity: 0.5"/><path id="shading-eyes4" fill="#aaaaaa" d="m755 1419 160.4-280c7.5 6.8 15.3 13.5 21.5 21.5 2.2 2.8 5.4 5.6 3.6 9.5l-146 256-3 1.1-36.6-8.1Z" class="outline shading" data-original-prefix="shading" opacity="0.5" style="opacity: 0.5"/><path id="shading-eyes3" fill="#aaaaaa" d="M1214.9 1425.9c-12.3-2.1-25.9-4.3-37.5-8.8-1-.4-1.8.6-1.3-1.5l159.4-276.5c7.5 6.8 15.3 13.5 21.5 21.5 2.2 2.8 5.4 5.6 3.6 9.5L1215 1426Z" class="outline shading" data-original-prefix="shading" opacity="0.5" style="opacity: 0.5"/><path id="shading-eyes2" fill="#aaaaaa" d="M733 1096c-17.9 7.4-32.8 20.6-46.7 33.9L672 1124c-.5-3.2 3.5-2.5 4.9-4.6l15.1-28.9c12.8.7 31.8-5 41 5.5" class="outline shading" data-original-prefix="shading" opacity="0.5" style="opacity: 0.5"/><path id="shading-eyes1" fill="#aaaaaa" d="M1376 1124c-3.2-.2-12.4 6.4-14.3 5.9-1.5-.4-6.8-6.8-8.7-8.4-11.6-10.1-24.2-19.3-38-26 3.9-8.6 32.1-4.8 40.3-5.3 3.1 1.1 11.8 25.7 16.2 29.8 1.6 1.5 4.9 1.1 4.4 4Z" class="outline shading" data-original-prefix="shading" opacity="0.5" style="opacity: 0.5"/><path id="outline-eyes2" fill="#000000" d="M1330 995c5.5-2.7 6.2-3.9 11.9-.5 20.3 12.1 46.5 72.6 53.3 95.7 2.9 9.6 10.1 35.3 8.7 44.2-1.6 10.1-10 6.4-16.9 9.1-1.3.5-2.4 0-2 1.9 79.4 110.2 14.2 272.7-121.7 292.4-83.2 12-156.1-32-192.2-105.5-4.8-9.7-3.4-15.2-14.1-20.9-19.2-10.3-45.2-9.9-64.7-.7-1.6.8-8.2 4.5-9 5.5-2.1 2.5-8.4 20.2-11.1 25.4-46.5 88.6-156.8 124.6-246.2 76.8-98-52.4-127.9-183.7-63-274-5.9-4-15.6.3-17.8-8.2-2.1-8.1 4.7-33.2 7.3-42.3 6.6-23.4 17-48.3 30.1-68.9 4.2-6.7 21.1-31.8 28.1-32.8 1.9-.3 5.9 2.7 7.2 1.7.4-.3 3.5-6.5 5.1-8.4 77.7-95.1 168.5-146.8 293.5-148.6 127.6-1.8 228.7 47.7 307.4 147.6 2.4 3 5.7 6.6 6 10.5Zm-275 262c-.5-40.5 15.3-87.2 32.8-123.7 3.2-6.7 9.5-18.6 15.5-22.5 11.9-7.8 33.8-17.9 47.3-24.7 10.4-5.2 29.1-15.4 39.3-18.7 1-.3 1.9-.7 3-.5l-1 2.5-12 7.5c8.8-.9 17.1-4.2 25.8-5.7 52.3-9.1 104.6 4.6 145.7 37.7 2.7 2.2 15.1 14.5 16.2 14.8 8.2 2.4 8.7-4.4 8.3-10.4-.8-13.6-16-42.4-22.9-55.1-2.1-3.9-16.8-30.2-18.4-31.1-.5-.3-10.8-1.2-12.3-1.2-8.5 0-24.3 1.7-33 3s-16.2 4.3-24.5 6c-.6-2.6.8-1.8 1.9-2.6 12.1-9.8 26.3-18.3 40-25.6 1.1-1.9-5.2-15.9-6.7-18.5-19.8-34.7-109.2-96.5-146.9-111.1-83.7-32.4-179-33-262.2 1.3-36.3 14.9-123.6 75.6-142.8 109.2-1.6 2.8-7.6 15.4-7 17.6.8 3.2 9.2 6.1 12.2 7.9 10.1 6.4 21.4 13.4 29.7 21.8-8-1.4-15.4-4.8-23.5-6-8.7-1.3-24.5-3.1-33-3-3.5 0-8.3 1.7-12.3 1.2-9 15.2-18.6 30.2-26.4 46.1-4.4 8.9-14.1 29.1-14.8 38.2-.5 5.5-1.1 14.6 7.3 12.3 1.1-.3 13.6-12.7 16.2-14.8 41-33.1 93.5-46.8 145.7-37.7 8.4 1.5 16.4 4.4 24.8 5.7l-11-8.5 4.7.3c26.1 14 56 25.6 81.3 40.7 13.2 7.9 22.8 32.2 28.5 46.5 7.1 17.8 13.2 37.5 17.8 56.2 1.2 4.9 2.2 16.8 3.7 20.1.5 1 1.8.7 1.9.8 1.5 2.2-1.9 1.8-2 2.6-.2 1.1 1 3.3 1.1 4.9.2 5.5 0 11 0 16.5s.3 9.1 0 13.5c0 2-2.9 16.4-1.5 16.5 21.2-6 44.3-5.7 65.5 0-1.9-10-1.9-19.9-2-30m-255.2-176.7c-132.6 9.3-203.1 165.1-126.6 273 70.7 99.7 219.8 93.3 281.6-12 69.1-117.7-16.2-270.8-155-261m426 0c-134.6 8.8-201.3 164-125.2 272.6 71.9 102.5 225.4 92.8 284.9-16.9 63.4-116.9-25.8-264.5-159.7-255.7" class="outline" data-original-prefix="outline"/><path id="outline-eyes1" fill="#000000" d="M998 1254c.2-.4 0-2.2.9-3.5 9.2-12.9 21.3-27.4 18.1-44.5 6 1.8 8.5 2.6 14.5 0-1.3 11.9 3.9 23.9 10.3 33.7 3.2 5 8.9 9 9.2 15.3-2.3-.3-3 2.2-4.7 2.8-2.9 1-2.4-1.7-4.3-3.4-2.5-2.2-6.2-4-8.6-6.4s-7-12.1-8.9-12.1c-3.2 0-3.4 4.5-4.7 6.4-4.3 6.1-7.8 7.6-12.9 12.1-1.1 1-1.9 3.3-2.1 3.4-2.5 1.4-4.8-3-6.9-3.9h.1Z" class="outline" data-original-prefix="outline"/>
    </g><g class="trait-group" data-category="right ear" id="right ear-cracked">
      <path id="fill-ear-rt" fill="#ffffff" d="M1722.4 186.9c.8.8 1.1 2.1 1.1 3.2l-8.1 121.8c-8.6 28.8-25.9 53-29.7 83.3s-3.9 64.1-9.3 93.7c-7.4 41.1-28.4 85.6-36.9 127.1l-66.8 103.2c-30.7 24.5-60.3 54-91.5 77.5-13.1 9.9-38.1 22.1-53.4 29.5-4.5 2.2-11.8 7-16.6 3.5s-8.7-32.4-11.9-39.1c-15.4 14.6-30.8 29.2-45 45-2.4 2.6-12.9 13.8-13.3 15.8-.5 7.8 4.3 26.8 1.3 33.2-2.3 5.1-22 16.9-22.5 21.5l15.9 43.8-51.9 35.7c-2.6 3-1.2-1.7-2.6 2.2-17.5-3.9-23.5-9.2-38.8-18.4-19.3-11.6-43.7-28-59.2-43.8-1.9-2-4.8-3.1-6.5-5.5-7-9.5-10.9-33.7-16.9-45 16.2-57.7 47.1-109 71.8-163.1 9.4-65.7 14-132.5 25.2-197.8l96.3-119.7 130.6-105.4L1705.6 178l16.7 8.8h.1Z" class="fill" data-original-prefix="fill"/><path id="shading-ear-rt" fill="#aaaaaa" d="M1670 478.5c0 .2-1.5 2-2 1-4.6-2.8-23.5-18.9-27.3-18.4-2.3.3-10.5 6.3-13.1 8-11.6 7.9-21.9 17.5-33.1 25.9-1.7 3.7-1.7 7.1-.4 10.8 6.7 1.4 18.8-4.7 17.7 6.4l-23.3 40.7c-2.5.4-1.5-1.8-1.2-3.2.8-4.7 8.2-23.6 7.7-26.2-.2-.8-1.2-1.4-2.2-1.4-3.3.2-8.7 4-12.6 3.9-.8.9 1.8 12 1.7 14.4-.2 7.7-7.3 19-10.3 26.5-3.3 8.5-8.4 19.1-6.5 28 1.4.2 2.7 0 4-.5 12-4.1 33.5-43.7 40.1-55.9 4.8-8.9 14.3-32.5 19.3-38.7.4-.5 1.2-1.4 1.5-1-12.8 55.3-34.4 111.3-63.2 160.3-7.3 12.4-22.6 38.5-31.8 48.2-6 6.3-23.1 17-31.1 21.9-27.2 17-57.6 30.4-89.9 33.6l14.9 35.4c2.5 3.2 21.7-5.9 25.5-7.5 28.7-12.7 69.6-35.6 94.6-54.4 5.6-4.2 8.5-11 6.6 2.6-10.7 7.5-19.9 16.9-30 25-10.6 8.5-24.1 19.3-35.1 26.9-19.5 13.4-44.2 22.7-64.3 35.7-2.6.7-6.3 1.4-8-1.1l-9.1-33.9-67.5 68.5c-1.5 3.5 7.6 16 5 21l-27.4 24.7c5 16.7 14.5 32 18.9 48.8l-1.1 2-44.3 28.7c-1.3.7-2.7 1.6-4.3 1.8-4.9.6-23-6.1-28.3-8.5-21.2-9.4-42.2-23.3-60.1-38-3.1-2.5-20-18.6-20-21s2.2-2.6 2.8-4.2c1.1-3.1 1.1-7.1 2.5-10.5 4.2-10.5 32.7-39 41.8-50.2 58.9-72.9 101.1-158.1 128.3-247.7 4.3-14 8.8-40.2 14.2-51.8 3-6.3 11.4-12.3 14.7-18.8 22.1.5 44.5 6.1 65.8 11.8.9 1.2-5.4 14.4-5.9 17.5-1.3 9.1.4 20.2.9 29.4l19-47c4.9 3.9 5 10.1 12.5 11 8.4 1 31.8-3.8 40.3-6.7 2.5-.8 6.8-1.9 4.7-5.3-17.2-2.1-36.8 9.9-52.5 1.3-.2-.9-.2-11 0-11.7.3-1.1 2.7-.2 3.9-2.2 4.3-7.1 4.3-42.4 5.2-52.9.8-9.6 2.2-19.4 3-29 .8-10.5-2.6-12.2 5-21 8.7-10.2 35.9-34.5 47.3-40.6 3.1-1.7 7.8-.6 6.7-4.8-3.6-.6-5.7.5-8.7 1.8-16.1 7.3-32.9 26.4-48 34-1.6.8-3.6 1.9-5.4.7-.6-.4-4.6-12.8-4.8-14.3-.5-3.8 5.9-11.6 8-15.5 2.2-4.1 11.5-21.6 10.7-25s-25.6-16.5-30.4-21.7c-1.9-2-10.4-14.8-11.1-17-.7-2.4-.4-4 1.1-6l40.4-26.6c22.6.2 42.9-1.7 64-10 10.6-4.2 30.2-16.4 39.8-18.2 11-2.1 25.7 6.5 35.6 10.5 15.2-9.6 31.4-23.8 47.6-31.3 3.1-1.4 4-2.6 6.5.6 3.2 4 0 3.9-1.2 6.7-3.4 7.9-5.5 16.3-8.8 24.2-12.1 29.2-28.7 57.7-38 88-2.3 7.4-3.4 17.4-6 24-4.6 11.8-18.9 25-23.5 36.5-1.6 4.1-6.1 25-6 29 0 .7-.3 1.6.5 1.5 22.9-20 44.9-41.2 69.1-60 3.1-2.4 6.8-5.6 10.5-7v18.5c0 2.6-32.8 27.9-37 32 10.4.7 16.9 7.4 23.1 14.9.5.6 1.9.5 1.9.6 0 5.1 1 17.5 0 21.5ZM1606 296c-2.4-.2-4.7 0-7.1.4-16.5 2.9-37.6 9.5-53.7 14.3-5 1.5-10.2 2.2-15.2 3.8-11.7 23.6-23.4 47.3-34 71.5l20.3-12.2c27.3-9.4 38.9-37.6 60.2-55.9 8.3-7.1 18.8-12.8 27.6-19.4 1.1-.8 2.5 0 1.9-2.6Zm-86 17-46 3.5c-1.7 1.4-8.4 4.7-8.8 6.2s2.6 12.1 3.7 14c2.2 4 14 11.6 18.5 14.5 2.2 1.4 9.4 6.9 11.6 5.6l21.1-43.9Zm-138.5 421v1c.7-.3.7-.7 0-1m-.5 2c-1.4-1.8-4.5 5-4.7 5.8-5.5 16.6-6.8 40.6-14.1 55.9-7.6 15.9-25.4 34.3-35 50-.6 1-1.9 3.1-1.7 4.3 13.1-10.1 27.2-19.4 38.9-31 2.6-18.2 9.1-35.8 12.3-53.7 1.8-10.3 1.9-21 4.3-31.2Zm2 67c3.7-2.6 12.4-12.4 13-16.6.5-3.8-4.9-11.6-6.5-15.4zm-48.1 77.9c.5-.8-7-16.5-9.4-15.9-9.2 11.1-19.3 21.5-28.5 32.5-5.4 6.5-22 25-22.9 32.1-.5 3.6.2 7.3 0 10.9-.8 8.8-1.8 17.7-3 26.5l39.5-35c1-6.2-8.3-23.1-6-27.9L1335 881Z" class="outline shading" data-original-prefix="shading" opacity="0.5" style="opacity: 0.5"/><path id="outline-ear-rt" fill="#000000" d="M1204 941c-.6 2-3.1 0-4-.5-6-3.3-16.4-8.4-21-13-11.6-11.9-20.6-32.5-31.5-45.5-1-2.9-.7-7.3-.5-10.5 1-20.3 12.5-34.3 20.8-52.2 6.3-13.5 12.6-35.7 19.9-47 3.2-4.9 8.4-9.8 12-15 29.7-42.8 37.8-119.3 42.2-170.8 1.8-21.4.9-43.9 3-65 .7-7 2.4-6.2 5.4-10.6 32.8-49.1 70.5-98.1 110.1-141.9 13.9-15.4 33.5-38.4 49.2-50.8 52.6-41.5 136.1-85.3 198.3-110.6 29.7-12.1 85.4-35.4 115.8-38.3 8.5-.8 7.8 2.7 9.5 9.9 3.6 14.9 2.9 30.5 2.7 45.3-.4 32-1.4 78.8-8.3 109.7-3.7 16.4-15.8 23.2-22.2 37.8-10.4 23.8-20.5 86.5-15.4 111.4 3 14.6 5.8 10.4 2.4 27.6-12.4 64-44 134.2-79.1 188.9-30.9 48.2-70.1 80.8-118.5 110.5-28.7 17.6-59.7 34.8-91.9 44.6.3-14.2-.5-28.4 0-42.5 0-3 3.2-9.9-1-11-14.8 16.6-30.3 32.5-43.8 50.2-.6 2.2 2 8.2 2.8 10.8 1.5 4.5 9.2 20.3 7.6 23.5-1 2-28.2 11.4-31.4 16.7 6 20.3 14.5 39.6 22.7 59.1.5 4.8-7.5 12.2-11.2 14.3-2.2 1.2-4.5.9-6.9 2.1-5.5 2.6-9.7 9.7-15.6 12.4-22.6 10.3-50.5-2.5-71.7-12.3-4-1.9-11.3-4.7-12.3-9.2 2.4 1.1 5.6.7 8 1.5 26.9 9.2 36.4 9.3 61.7-4.3 3.1-1.7 18.6-11.5 19.2-13.9-5.6-15.9-10.9-32.1-19.7-46.6.2-2.7 11.1-11.8 13.8-14.2 2.5-2.2 16.3-11.8 16.9-12.7.6-1.1-1.1-6-1.7-7.5-1.8-4.9-9.1-13.1-7.8-17.3l32-33c2.3-18.2 9.3-35.8 12.3-53.7.9-5.2.5-11.6 1.4-16.6 6.7-39.1 32.5-73.7 53.7-106.4-3.1-10.5-18.5-34.2-29.3-19.2-7.7 10.7-16.6 48.7-17.6 62.4-.4 5 1.2 17.3-.9 20.8-.9 1.6-11.5 10.3-14.1 13.2-25 27.8-50.2 64.5-69.2 96.8-17.2 29.4-56.3 96-51.7 129.1.7 4.7 4.3 9.8 4.9 14.6-2.1 2.1-27.1-18.8-28.5-22-1.7-3.9.9-16.6 1.5-21.5.3-2.9-.4-6 0-8.9.7-4.5 15.4-22.3 19.2-27.8 39.8-58.6 57.4-124.9 103.3-180.7 11.8-14.4 20-26.2 25.8-44.2 5.6-17.5 15.4-63 12.5-80-.7-3.9-10.8-27.6-9.8-28.7l52 28c16.2-44.2 27.9-91.8 22.2-139.2 9.1-12.4 18-25 25.6-38.5 2.5-4.5 12.1-21.1 12.3-24.8s-4.6-8.1-7.6-10.5c-12.1-9.7-30.2-11.4-31.5-31-.7-.6-12.7 8.1-14.3 9.2-44 31.1-77.8 64.6-111.7 106.3-15.7 19.3-36.9 44.4-50.5 64.5-6.4 9.5-10.1 25.9-11.6 37.4-6.4 50-5.5 104.8-13.1 153.9-2.9 18.9-27.5 67.5-37 87-6.6 13.4-16.1 27.1-22.1 40-6.3 13.7-9 29.6-15.7 43.3-3.2 23.1 13.4 51.4 28.9 67.4v-.3Zm515-753c-30.2 9.5-58.8 22.3-87 36.4-25.9 13-53.6 27.8-78.6 42.4-19.8 11.5-38.5 24.8-58.3 36.2.7 1.8 5.9 1.1 7.5 1 23.2-1.4 56-9.1 77.1-18.9 4.3-2 15.9-9.7 18.9-10.1 11.8-1.7 21.1 15.3 28.8 13.8 1.7-.3 13.6-13.8 16.7-16.2 5.7-4.3 12.8-6.4 18.8-10.2 11-6.8 19-19 32.1-22.4l-22.5 39c-13.1 10-28 17.6-39.9 29.2-3 30.4 1.3 60.6 1.1 91-8 15.5-28.8 23.4-34.1 40.9-1.1 3.5-5.8 33.5-4.7 34.8 3.9-1.3 7.9-4.8 11-7.5 13.4-11.6 26.8-26.6 40-39 8.7-8.2 19.9-16.4 28.1-25 4.6-4.9 12.1-40.9 15.9-51.1 6.8-18.1 16.8-28.7 20.7-48.3 2.5-12.5 4.6-27.1 6.2-39.9 3.1-25.3 4.5-50.9 2.1-76.4v.3Zm-103 112c-5.5-.8-9.5-5.3-15.4-3.9-15.4 6.5-35.4 7-50.6 12.4s-41.3 48-47.9 63.1c-4 9.2-6.3 19.6-12.1 28.4 13.1-4.6 33.8-26 47.5-25 2.4.2 8.9 3.3 9.4 3 .7-.5 7.1-11.6 8.7-13.8 17.6-23.9 39.4-43.3 60.4-64.1Zm-96 13-46.6 3.9c-1.8.5-12.4 7-13 8.1-1.7 3.4 4.2 15.1 7 18 2.4 2.5 15.6 12.7 18.6 14.4 14.4 8.2 19.7-14.4 24.1-23.8 1.2-2.6 10.7-19.8 9.8-20.6Zm57 208c-2.3-22.7-1-46.6 3.5-69 1.9-9.6 5.7-27.6 10.3-35.7 6.1-10.7 27-21.4 29-32l-.8-63.3c-37 35.4-65 84.7-72.7 135.8-3.9 26-5.3 57.6 10.6 79.9v1.6c-21.4 26.5-33.1 58.8-41.6 91.5-2.1 7.9-9.6 50.2-12.3 52.7-19.4 17.7-41.7 34.1-65.3 46.7-2.2 1.2-14.6 7.8-15.7 6.8 3.2-7 7-13.5 9.7-20.8 6.7-17.3 8.5-31.1 7.3-49.8l-2-7.5c-5.5 12.1-11.2 24.3-17.5 36-5 9.3-22.1 34.4-24.1 42-2.9 11.3 9 27.8 13.7 38.3 6.8 15.3 12.3 30.7 12.8 47.7l83.9-48.6c76.6-56 124.6-136.5 149.8-227.2 6.8-24.3 13.8-49 12.3-74.5-7.5-3.4-20-16.1-28.3-14.5-3 .6-13 7.8-16.1 10-7.2 5.2-13.7 12.3-21 17-6 3.9-14.2 4.4-12.7 13.2 1.6 10 26.2 2 25.9 15.1-.2 7.4-23.2 33-26.9 41.5-1.9.2-.6-1.9-.3-2.8 2.2-6.7 14.8-29.3 13.2-34.6-2-6.5-20.6 4.2-24.9 4.4h.2Zm-37-135c-6.7-.9-12.1 3.8-17.3 7.2-8.9 5.7-34.4 22.6-40.6 29.4-3 3.2-12.7 33.4-13.8 39.2-3.7 19-2.9 40.5-7.4 59.7 0 4.8 11.4 18.6 16.1 20 4.2 1.2 19.5.8 24.5.5 2.6-.2 19.6-2.9 20.4-4.1 1.3-18.4.6-37.9-2-56.2-1.1-7.9-7.4-29.9-6.7-35.9.7-4.9 11.1-27.1 13.9-33.1 3.3-7 10-16.4 12.3-22.7.5-1.4.8-2.5.6-3.9Zm133 33-23 17.5c-2.2 2.8-6.4 4.6-6 8.5 9.5 1.2 16.7 8.1 25 12 .4-12.8 1.6-25.4 4-38m-151 128c-1.8-1.8-39.9 5.1-47.4 3.9-7-1.1-12.1-8.2-16.6-12.9-2 16.5-4.7 32.9-7.2 49.3-1.1 7.1-4.9 20.1-4.8 26.2 0 4.7 5.9 28.9 7.7 34.3 3.6 11.1 10.4 13.8 20.6 8 20.7-11.7 39.9-68.2 45-91 1.3-5.9 2-11.8 2.7-17.8m-133 209c-1.1 0-2-.2-3 .5-1.8 1.2-4.5 24.4-5.3 28.7-1.5 8.3-3.3 16.7-5.7 24.8 2.4 1.8 11.8-9.8 13.5-12 2.5-3.2 7.6-10 8.3-13.8 1.2-6.4-7.6-20.8-7.8-28.2" class="outline" data-original-prefix="outline"/>
    </g><g class="trait-group" data-category="left ear" id="left ear-safety pins">
      <path id="fill-ear-lft1" fill="#ffffff" d="M842 941c-10.4 9.8-22.1 17.8-34.1 25.4-1.2.8-2.9.9-3.5 2.5-1 .2-2 .2-2.9.5-8.9 2.6-17.5 6.5-26.8 7.1-7.3.5-14.6 1.5-21.8-1-16.3-5.7-30-15.7-43.8-25.6-2.7-1.9-6.4-3.5-7.2-6.6-.5-1.9 2.2-4.6 3.4-6.9.3-.6.6-1.2.8-1.8 4.6-15.3 4.8-30.8 1.4-46.3-1.2-5.4-5.3-9.5-10.7-9.8-15.5-.8-31.1-1.1-42.6 12.5-.5-.8-1-1.5-1.4-2.2-9.2-17-16.3-35-22.9-53.2-.3-.8-.8-1.8-.5-2.4 1.9-4.3-1-6.6-3.8-8.7s-5.7-4-8.7-5.9c-20.3-13.1-41.3-25.1-62.5-36.6-20-10.9-37.7-25-53.9-41-7.6-7.5-14.3-15.8-21.1-24-37-44.3-67.3-92.3-82.7-148.6-.7-2.6-1.3-5-.4-7.8 5.2-15.6 10.7-31.1 16.4-46.4 8.3-22.2 18.1-43.9 24.5-66.8 1.9-6.7 3.3-13.5 1.8-20.7-2.5-12.3-14.5-18.1-25.6-12.1-6.6 3.6-10.6 9.5-13.7 16.1-5.6 12.1-9.3 24.9-13.9 37.3l-6.9 18.9c-1.1-1.8-1.1-3.4-1.1-5-.3-27.4-2.2-54.5-8.7-81.3-6.9-28-13.1-56.2-29.7-80.6-1.2-1.7-1.9-3.9-2.3-6-4.9-28.2-10-56.4-11.1-85.1-.6-13.6-.4-27.2.8-41.1 16.5 5.5 32.7 10.9 48.1 17.8 42.4 19.1 83.1 41.5 123.3 64.7 25.1 14.5 49.3 30.4 73.9 45.8 48.7 30.7 93.8 65.7 131.2 110 23.4 27.8 44.7 57.2 67.6 85.4 3.6 4.4 5.6 9.7 7.2 15.2 5.9 20.2 5.9 41.1 8.1 61.7 3.3 30.5 5.7 61 7.9 91.6 1.1 15.9 1.9 31.9 10 46.5 3.6 6.5 6.6 13.5 9.6 20.3 10.8 24.5 21.4 49.2 35.1 72.3 4.8 8.1 8.5 16.5 11.4 25.4 1.6 4.9 3.7 9.6 5.4 14.5 1.9 5.5 5 10.5 5.5 16.5 1 13.1-2.8 25-8.8 36.4-5.5 10.5-12.7 19.7-20.4 28.7v.4zM351.4 240.4c-.5 1.3.6 2.1 1.2 3 6.5 8.9 11.8 18.6 16.6 28.4 3 6.2 7.6 10.3 13.2 13.8 36.4 22.5 65.2 52.4 87.2 89.1 22.4 37.4 34 77.6 32.6 121.3-.4 13.4-3.3 26.5-10.8 38-1.9 2.9-2 4.5 0 7.3 10.9 14.8 20.3 30.4 26.6 47.9 9.5 26.7 16.9 54 21.6 82 .9 5.5 2.7 9.7 7.1 14 21.5 21 46.8 36.2 73.2 49.9 1.2.6 2.4 1.9 4.3.8-1.1-1.9-2.2-3.7-3.2-5.6-9.6-17.9-15.2-36.8-14.5-57.4.6-16.9 6.8-31.4 16.6-44.6 2.3-3.1 5.2-5.7 8.7-7.3 3.9-1.8 7.3-1.4 10.1 2.2 2.7 3.5 4.6 7.3 6.1 11.4 8.1 22.5 13.9 45.5 13.6 69.7 0 2.1.2 3.8 2 5.3 8.4 7 15.3 15.3 22.2 23.7 34.9 42.4 62.9 89.2 88.1 137.8 9.8 19 18.3 38.5 22.4 59.6 1.5 7.8 1.7 15.4-1.2 23.1-1 2.7-3.5 5.2-3.1 9.4 11-6.9 20.6-14.2 28.5-23.8 1.2-1.4.4-2.9.3-4.3-.5-6.8-1.4-13.6-1.7-20.4-.2-4.7-1.5-8.6-4.4-12.4-17.9-22.9-33.3-47.3-45.8-73.7-15.4-32.6-30.1-65.7-49.7-96.2-7.1-11.1-13.6-22.4-23-31.8-9.9-9.9-17.7-21.8-22.6-35.1-8.4-23-12.4-47-15.2-71.1-1.1-9.7-.6-19.1 3.6-28.3 2.5-5.6 3.9-11.7 6.9-18.8-19.7 10.5-37.8 20.3-54.8 32-1.9 1.3-3.4 3-4.1 5.4-5 16.4-11.1 32.4-14.6 49.2-1.1 5.2-2.1 10.5-3.6 15.6-2.9 9.4-10.4 12.1-18.8 7.2-5.3-3.1-9.4-7.3-13.1-12.1-7-9.1-11.4-19.5-16.2-29.8-14.1-30.5-21.5-62.4-20.3-96.3.7-21.7 3.7-43.1 8.1-64.2 1.2-5.7.6-10.5-1.6-15.8-14.3-34.9-31.6-67.9-57.4-95.9-21.1-23-44.9-43.2-66.6-65.6-3.9-4-8.3-7.1-13.3-9.5-6.1-2.9-12.5-5.6-17.3-10.8-5.9-6.3-13-10.8-20.3-15.3-1-.6-2-2-3.6-.8zm369 559.9c-1.7-20.7-11.8-38.1-31.2-49.2-20.9-12-47-1.6-55 21.2-11.1 31.5 11.5 65.7 44.7 67.5 25.2 1.4 39.9-18.9 41.5-39.5m-228.6-88.9c1.3 14.6 5.3 29.9 23.2 37.1 14.3 5.7 27.3 3.4 34.6-7.1 6.1-8.7 8.5-19 7.8-29.3-1.2-18-17.8-31.1-37.7-31.1s-28.1 11.4-28 30.5h.1Z" class="fill" data-original-prefix="fill"/><path id="fill-ear-lft-ring" fill="#ffffff" d="M618.1 994.2c-2.7 0-5.3-.2-7.9-1.1-11.2-4-21.3-10.1-30.1-18.1-4.2-3.9-6.4-8.6-5-14.8 2.7-12 4.3-24.2 7.9-36 3.3-10.8 8.7-20.4 17.2-28.2 6.6-6.1 13.1-12.4 19.4-18.7 1.8-1.8 2.6-2.3 4.1.4 6 10.9 6.6 11.3-2.3 20.1-11.5 11.4-18 24.9-20.4 40.6-.8 5.4 2.7 10.5 8.6 13.7 4.6 2.4 9.9 2 13.9-1.7 3.9-3.6 7.6-7.5 11.2-11.4 13-14 26.4-27.8 36-44.6 2.4-4.2 12.1-6.5 17.7-4.6 5.1 1.7 7.8 6.6 7.3 13.9-1 12.5-4.4 23.8-14.1 33-9.1 8.5-17 18.3-25.2 27.7-8.1 9.3-16.8 18-26.2 26-3.5 3-7.6 4-12 3.8z" class="fill" data-original-prefix="fill"/><path id="fill-ear-lft-fill-pin3" fill="#ffffff" d="M314 639.6c-17.1 0-29.8-10.3-35.8-29.2-4.1-12.7-.9-25 2.2-37.3 1.7-6.8 3.6-13.7 7.5-19.8 1.6-2.5 3-3.1 5.9-1.5 7.6 4.1 15.4 7.8 23.2 11.6 2 1 2.9 1.3 1.8 4.4-3 8.4-7.3 15.9-12.5 23-2.6 3.6-1.3 9 2.7 11 6.7 3.3 13.5 6.3 20.2 9.6 2.8 1.4 3.7.3 3.9-2.2.4-4 1.5-7.8 2.8-11.6.7-2 .5-3.1-1.8-3.5-2.7-.6-5.4-1.4-8.1-2.2-2.8-.8-3.8-2.3-1.9-5.1 2.8-4.1 6-7.9 9.5-11.5 1-1 2.1-1.7 3.6-1.1 9.9 3.8 19.8 7.6 29.7 11.3 1.8.7 2.7 1.8 2.5 3.7 0 1.2-.1 2.3-.3 3.5-3.8 24.7-29.9 47-55 47h-.1Z" class="fill" data-original-prefix="fill"/><path id="fill-ear-lft-fill-pin2" fill="#ffffff" d="M373.9 574.1c-4.5 0-7.9-2.1-11.4-3.3-2.6-.9-1.3-3.3-.7-5.2 5.1-15.3 11.4-30 17.2-45 11.3-29.5 22.5-59 35.1-88 .5-1.3.6-2.8 2.1-3.8 2.6-1.8 5.2-4.3 8.5-2 3.2 2.3 3.6 5.6 2.3 9.3-15.1 42.9-30.1 85.8-45.2 128.6-.6 1.7-1.3 3.4-2 5.1-1.1 3-3 4.7-5.9 4.2Z" class="fill" data-original-prefix="fill"/><path id="fill-ear-lft-fill-pin1" fill="#ffffff" d="M351.4 410.4c2.4 10.8 3.6 20.4 4.7 29.9.6 5-1.6 9.5-3.5 13.8-13.3 29.9-25.6 60.3-37.6 90.8-1.1 2.8-2 3.3-4.9 2.1-10.4-4.3-10.6-4.2-6.9-13.7 13-33 24-66.6 37.6-99.4 3.1-7.6 6.1-15.2 10.7-23.6h-.1Z" class="fill" data-original-prefix="fill"/><path id="fill-ear-lft-stud2" fill="#ffffff" d="M703 790.9c2.4 20-12 30.3-23.2 32.1-16.4 2.7-32.6-8.1-36.8-24.3-5-18.9 4.1-35.2 21.9-39.3 12.3-2.8 27.5 3.5 34.5 14 3.8 5.6 3.9 11.8 3.7 17.5z" class="fill" data-original-prefix="fill"/><path id="fill-ear-lft-stud1" fill="#ffffff" d="M503.1 714.6c-.2-4.2.4-7.9 1.8-11.5 3-7.4 8.7-11.2 16.6-11 18.9.4 31.4 18.3 23.8 33.9-4.6 9.5-13.9 14.1-24.2 12-10.4-2.1-17.5-10.3-18-20.8v-2.7Z" class="fill" data-original-prefix="fill"/><path id="shading-ear-lft1" fill="#aaaaaa" d="M481.2 598.8c3.2-4.3 2.5-8.1 1-11.9-3.9-9.8-7.4-19.9-11.9-29.5-3.6-7.6-4.4-15.1-2.8-23.1 3-15.4 4-30.9 3.8-46.5-.3-22.2-6.1-43.3-13.6-63.9-11.7-31.9-27.5-61.7-45.5-90.5-7.6-12.2-17.3-22.6-26.3-33.7-3.3-4-6.2-8.4-9.6-13.1 8.8-3.9 17.1-6 25.6-7.5 5-.9 8.8 2.5 12.5 5.2 18.5 13.6 35.9 28.5 54 42.4 27.2 21 49.3 46.1 66.8 75.6 8.5 14.2 17.8 28 26.9 41.9 3.2 4.8 5.1 10 5.7 15.7.9 9.6 2.5 19.2 2.4 28.7 0 23.2 12 41.6 22.4 60.8 1.7 3.1 3.9 2.6 6.7 1.8 14.7-4 29.7-7.1 44.7-9.6 17.5-3 17.4-3 29 10.9 3.5 4.2 5.6 8.7 6.9 14 24 95.8 62 185.4 120.6 265.5 16.1 22 33.8 42.6 52 62.9 3.3 3.7 6.6 7.5 8.7 12.1 2.3 4.8 2.2 9-1.1 13.9-18.7 27.3-44.3 45.7-75.1 56.2-14.6 5-30.6 5.7-45.9 8.3-3.6.6-5.4-2-7.6-4-13.6-12.2-27.1-24.5-40.6-36.7-5.5-4.9-5.8-5.1-10.9.4-10 10.6-19.9 21.3-29.3 32.5-4.5 5.4-10.1 9.5-15 14.5-5.2 5.3-11.3 8.1-19.4 6.1 1-2.2 3.1-2.7 4.9-3.7 9.8-5.7 19.2-12.3 26.3-21.1 10.6-13.2 21.6-26 32.9-38.5 9.4-10.4 9.1-21.3 3-32.9-3.4.4-4 3.4-5.4 5.5-4.1 6-8.3 12-12.1 18.2-10.3 16.4-25 28.2-40.8 38.8-4.9 3.3-9.6 4.1-14.9 1.1-2.3-1.3-4.7-2.5-7.2-3.5-9.2-3.8-15-9.6-12.9-20.5 1.2-6-2.9-8.5-7.5-9.8-3.9-1.1-4.5-2.9-3.3-6.5 2.9-8.5 5.9-16.7 12.9-23.1 7.8-7.1 15-15 22.6-22.5 6.2-6.2 6.7-6 11.2 1.8 1.2 2 2.4 4 3.3 6.1 1.7 4 1.5 7.7-1.6 11.1-2.5 2.7-4.5 5.8-7.2 8.2-8.8 7.6-12.1 18.1-15.5 28.4-2.3 7.1.9 13 7.5 16.3s5.8-.3 8.3-1.6c6.2-3.4 10.5-9.2 15.2-14.2 6.8-7.3 12.6-15.4 18.9-23.1 2.4-2.9 2.5-5.6 1-9-8.6-18.7-17-37.4-25.4-56.1-1.2-2.7-3.2-5.5-3.3-8.2-.3-8.2-5.5-12-11.8-15.7-36.2-20.9-71.9-42.7-105.8-67.2-11.9-8.6-18.5-19.6-18.8-34.3 0-2 0-4 .5-5.9.4-1.9.9-4.1 3.5-4.2 2 0 2.7 1.8 3.3 3.3 3.3 9.2 9.5 15.9 17.9 20.4 6.3 3.4 13 5.3 19.6.4 4.9-3.7 5.1-6.4-.4-9.5-18-10.1-29.6-26-40.5-42.8-28.4-43.7-49.3-90.8-65.4-140.2-.9-2.8-1.8-5.6-2.8-8.5-3 1-2.8 3.5-3.3 5.6-4.7 19.6-9.4 39.3-14.2 58.9-2 8.1-2.1 8.1-10.5 8.7-7.6.6-15.2 1.5-22.8 1.6-5.3 0-8.3 2.2-10.9 6.8-8.4 14.9-20.8 24.6-37.9 28-8.4 1.7-16.4 1.3-24-3.3-5.4-3.3-10.9-6.3-16.4-9.5-8.3-5-10-13.1-11.8-23.5 15.2 10.3 29 19 46.8 18.7-7.9-7-15.7-13.9-23.6-20.9-5-4.4-10-8.8-14.9-13.2-5.3-4.8-6.4-11.3-3.4-19.5 9.8 8.4 19.3 16.5 28.7 24.7 9.7 8.5 19.5 17 28.9 25.8 3.3 3 5.8 2.3 8.7 0 5-4 9.4-8.4 12.5-14.9-21.6-18.7-44.9-35.4-67.4-53 1-1.4 1.4-2.3 1.8-2.4 11.8-1.4 15.6-10 19.3-19.7 7.5-19.5 15.6-38.8 23.9-57.9 2.8-6.5 3.8-12.6 1-19.1-3.1-6.9-2.4-13.3.9-20 3.2-6.5 6-13.3 8.8-20 1-2.5 2.5-3.6 5.2-3.5 3.2.1 3.7 2.3 4 4.7 2.4 16.7 6 33-2.1 49.6-7.8 16.1-11.6 33.8-18.6 50.3-3.4 8-7.7 15.4-11.7 23-2.1 4.1-4.9 7.8-5.7 13.3 16.4 7.3 32.5 14.9 49 21.8 7.6 3.2 9.6 1.9 12.3-6.3 14-42.1 30.8-83.3 42.2-126.3.8-3.1 1.5-6.5 4.1-8.9 13 5.9 15.3 9 13.2 22.4-2.7 17.7-5.9 35.3-9.3 52.9-1.3 6.8-.9 12.7 2.6 19 10.4 18.9 20.2 38.1 32.9 55.6 4.3 5.9 8.8 11.7 16.7 14.3zm190.4 250.4c3.1 17.8 10 30.9 27.2 36.1 1.9.6 3.5 2.1 5.4 2.5 7.1 1.6 10.3 6.7 12.4 12.9 1.1 3.4 2.4 6.9 2.9 10.5.6 4.2 2.4 7.4 5.3 10.3 13.3 13.5 26.5 27 40.7 39.4 2.9 2.5 5.4 5.6 10 7.1-2.4-12.4-6-23.7-9.5-35-.8-2.6-2.6-4.6-4.4-6.5-12.8-14.4-23.8-30.2-33.9-46.5-6.3-10.1-12.4-20.4-18.6-30.5-1.5-2.5-2.6-5.5-6.7-3.2-9.4 5-19.4 6.2-30.7 2.9zM541 764.3c29 22.1 59.5 38.1 94.4 47.4.9-13.9 1.6-26.8 2.5-39.6.3-4.8-1.6-6.4-6.2-6.5-11-.4-21.5-3.7-31.9-6.8-12.4-3.7-24.3-8.7-35.7-14.8-2.8-1.5-4.8-1.8-6 1.9-2.8 8.1-8.4 14-17.1 18.5Zm102.6 21.8c-1.9 10.4 5.6 17.8 13.5 24.5 13.1 11.2 31.6 6.7 39.1-8.9 1.6-3.4 1.8-6.1-1-8.9-9.3-9.5-18.4-19.1-27.6-28.6-1.4-1.4-2.8-2.5-5.2-2.1-12.9 2-19.1 9.2-18.7 24Z" class="outline shading" data-original-prefix="shading" opacity="0.5" style="opacity: 0.5"/><path id="outline-ear-lft-outer" fill="#000000" d="M347.6 396.2c0-1.7-.4-3.4-.8-5.3-3.8-17.2-12-32-24-44.8-1.7-1.8-2.1-4.1-2.6-6.4-4.3-18.4-5.6-37.2-6.7-56-1.3-20.6-3-41.2-3.1-61.9 0-15.1-.7-30.4 3.6-45.2 2.2-7.5 2.8-8 10.5-6.5 17 3.4 33.7 7.8 50.1 13.8 45.8 16.9 91.4 34.4 134.8 57 44.3 23 86.6 49.3 127.4 77.9 9 6.3 15.6 15.4 23.3 23.3 50.6 51.8 94.2 109.2 135.5 168.5 3.7 5.3 5.3 10.3 5.4 16.5.9 49.6 6.6 98.7 14.3 147.6 3.5 22 11.2 42.9 19.4 63.4 4.3 10.7 11.1 20.1 18.8 28.7 3.9 4.3 6.7 9.1 8.7 14.5 7.8 20.6 16.8 40.6 26.9 60.2 5 9.7 5.5 20.8 9 31 1.6 4.7 1.1 8.3-2.1 12.6-7.8 10.6-14.2 22.2-22.1 32.7-8 10.8-18.8 18.6-31.7 23 7.7-8.9 14.9-18.2 20.4-28.7 5.9-11.4 9.8-23.3 8.8-36.4-.5-6-3.6-11-5.5-16.5-1.7-4.9-3.8-9.6-5.4-14.5-2.8-8.9-6.5-17.3-11.4-25.4-13.7-23.1-24.3-47.8-35.1-72.3-3-6.9-6-13.8-9.6-20.3-8.1-14.5-8.9-30.6-10-46.5-2.2-30.6-4.6-61.1-7.9-91.6-2.2-20.6-2.3-41.6-8.1-61.7-1.6-5.5-3.6-10.8-7.2-15.2-22.9-28.2-44.2-57.6-67.6-85.4-37.4-44.3-82.5-79.3-131.2-110-24.5-15.4-48.8-31.3-73.9-45.8-40.2-23.3-81-45.6-123.3-64.7-15.4-7-31.6-12.3-48.1-17.8-1.2 13.9-1.3 27.5-.8 41.1 1.2 28.7 6.2 56.9 11.1 85.1.4 2.1 1.1 4.3 2.3 6 16.5 24.5 22.8 52.6 29.7 80.6 6.6 26.8 8.4 53.9 8.7 81.3 0 1.6 0 3.2 1.1 5l6.9-18.9c4.6-12.5 8.3-25.3 13.9-37.3 3.1-6.6 7.1-12.5 13.7-16.1 11.1-6 23.1-.3 25.6 12.1 1.5 7.1.1 13.9-1.8 20.7-6.5 22.9-16.2 44.6-24.5 66.8-5.8 15.4-11.2 30.9-16.4 46.4-.9 2.7-.3 5.1.4 7.8 15.4 56.3 45.6 104.3 82.7 148.6 6.8 8.2 13.5 16.5 21.1 24 16.2 15.9 33.8 30 53.9 41 21.2 11.6 42.2 23.5 62.5 36.6 2.9 1.9 5.9 3.8 8.7 5.9s5.7 4.4 3.8 8.7c-.3.6.2 1.6.5 2.4 6.6 18.2 13.7 36.1 22.9 53.2.4.7.9 1.4 1.4 2.2 11.5-13.7 27.2-13.3 42.6-12.5 5.4.3 9.5 4.4 10.7 9.8 3.4 15.5 3.2 31-1.4 46.3-.2.6-.5 1.3-.8 1.8-1.2 2.3-3.9 5-3.4 6.9.8 3.1 4.5 4.7 7.2 6.6 13.8 9.9 27.5 19.9 43.8 25.6 7.2 2.5 14.5 1.5 21.8 1 9.4-.6 17.9-4.5 26.8-7.1.9-.3 1.9-.3 2.9-.5-3.1 5.3-8.8 7.2-13.9 9.1-13.1 4.9-25.7 10.8-39.2 14.9-11.3 3.4-21.3-.7-31.8-2.1-1.1 0-2.1-1.5-3.1-2.4-9.2-9-18.5-17.8-27.4-27-2.9-3-4.5-2.5-7.2 0-15 14.2-30.3 28.1-45.2 42.4-4 3.9-9 6.2-13.2 10-2.7 2.4-6.9 1.6-10.5.4-15.1-5.3-29-12.9-42.6-21.3-16.5-10.2-18.3-14.4-13.6-34.2 3.4-14.1 6.3-28.3 9.3-42.4 2.7-12.7 8.9-23.2 19.3-31.1 8.7-6.7 17.2-13.7 26-20.2 3.1-2.3 3.3-4 1.1-6.8-1.4-1.8-2.6-3.9-3.8-5.9-6.7-11.7-16.1-19.8-28.4-25.6-29.6-13.8-56.3-32.4-81.5-53-37.6-30.6-65.5-68.9-87.7-111.6-9.2-17.6-18.1-35.2-26.3-54-2.8 5-5.1 9.7-7.9 14-10.7 16.3-23.7 29.9-44.3 32.6-24.5 3.1-45.8-3.3-62.5-22.4-9.4-10.7-11.6-23.4-10.6-36.9 1.1-16.1 5.7-31.4 11.2-46.4 2.3-6.4 5.8-12.6 14.5-11.8 1.7.2 1.6-1.3 2-2.3 15.8-42.1 35.1-82.7 53.1-123.9l7.4-14.7zm5.5 94.9c-.8 1.7-1.6 3.5-2.4 5.2-8.3 18.3-16.6 36.6-25 54.9-1.1 2.4-.3 3.1 1.8 3.9 5.6 2 11.1 4 16.6 6.4 2.9 1.2 3.8 0 4.7-2.4 2.4-6 4.7-12.1 7.6-17.8 2.6-5 2.7-9.7 1.5-15.2zm265 503.1c4.5 0 8.5-.8 12-3.8 9.4-8 18.1-16.7 26.2-26 8.2-9.4 16.2-19.2 25.2-27.7 9.8-9.2 13.2-20.5 14.1-33 .6-7.3-2.2-12.2-7.3-13.9-5.6-1.9-15.3.4-17.7 4.6-9.6 16.8-23 30.5-36 44.6-3.6 3.9-7.3 7.8-11.2 11.4-4 3.7-9.3 4.1-13.9 1.7-6-3.1-9.4-8.3-8.6-13.7 2.3-15.7 8.9-29.3 20.4-40.6 8.9-8.8 8.3-9.2 2.3-20.1-1.5-2.7-2.3-2.2-4.1-.4-6.4 6.4-12.8 12.7-19.4 18.7-8.4 7.8-13.9 17.3-17.2 28.2-3.6 11.8-5.2 24-7.9 36-1.4 6.1.8 10.9 5 14.8 8.8 8 18.9 14.1 30.1 18.1 2.6.9 5.2 1.1 7.9 1.1zM314 639.6c25.1 0 51.2-22.3 55-47 .2-1.1.2-2.3.3-3.5.1-1.9-.7-3-2.5-3.7-9.9-3.7-19.8-7.5-29.7-11.3-1.5-.6-2.6.2-3.6 1.1-3.5 3.5-6.7 7.4-9.5 11.5-1.9 2.7-.9 4.2 1.9 5.1 2.7.8 5.3 1.6 8.1 2.2 2.3.5 2.5 1.5 1.8 3.5-1.3 3.8-2.5 7.6-2.8 11.6-.2 2.5-1.1 3.6-3.9 2.2-6.7-3.3-13.5-6.3-20.2-9.6-4-2-5.3-7.4-2.7-11 5.2-7.1 9.5-14.6 12.5-23 1.1-3.1.2-3.4-1.8-4.4-7.7-3.8-15.6-7.5-23.2-11.6-2.9-1.6-4.3-1-5.9 1.5-3.9 6.1-5.7 13-7.5 19.8-3.1 12.2-6.3 24.6-2.2 37.3 6 18.9 18.7 29.2 35.8 29.2h.1Zm59.9-65.5c2.8.5 4.7-1.2 5.9-4.2.7-1.7 1.4-3.4 2-5.1 15.1-42.9 30.1-85.8 45.2-128.6 1.3-3.7.9-7-2.3-9.3-3.3-2.3-5.8.2-8.5 2-1.4 1-1.5 2.5-2.1 3.8-12.6 29-23.8 58.5-35.1 88-5.8 15-12.1 29.8-17.2 45-.6 1.9-1.9 4.2.7 5.2 3.5 1.2 6.9 3.3 11.4 3.3Zm-22.5-163.7c-4.6 8.4-7.6 16.1-10.7 23.6-13.5 32.7-24.6 66.4-37.6 99.4-3.7 9.5-3.5 9.4 6.9 13.7 3 1.2 3.8.7 4.9-2.1 12.1-30.4 24.3-60.8 37.6-90.8 1.9-4.3 4.1-8.8 3.5-13.8-1.1-9.6-2.3-19.1-4.7-29.9h.1Zm282.7 491.5c-5.7 8-12.1 14.2-16.1 22.1-.9 1.8-1.2 3.6.8 4.8 1.7 1.1 3.5 1.2 5.1 0 1.1-1 2.2-2.1 2.9-3.4 1.9-3.6 4.5-6.7 7.6-9.2 2.9-2.4 3.5-5 1.8-8.3-.7-1.5-1.1-3.1-2.1-6" class="outline" data-original-prefix="outline"/><path id="outline-ear-lft-inner" fill="#000000" d="M351.4 240.4c1.5-1.1 2.5.2 3.6.8 7.2 4.5 14.4 9.1 20.3 15.3 4.8 5.1 11.1 7.8 17.3 10.8 5 2.4 9.4 5.4 13.3 9.5 21.7 22.3 45.5 42.6 66.6 65.6 25.8 28 43.1 61.1 57.4 95.9 2.2 5.3 2.8 10.1 1.6 15.8-4.4 21.2-7.3 42.5-8.1 64.2-1.2 33.9 6.2 65.7 20.3 96.3 4.7 10.3 9.2 20.7 16.2 29.8 3.7 4.8 7.9 9.1 13.1 12.1 8.5 4.9 15.9 2.2 18.8-7.2 1.6-5.1 2.6-10.3 3.6-15.6 3.5-16.8 9.6-32.9 14.6-49.2.7-2.4 2.2-4.1 4.1-5.4 17-11.8 35.1-21.6 54.8-32-3 7.1-4.4 13.2-6.9 18.8-4.1 9.2-4.7 18.7-3.6 28.3 2.8 24.2 6.8 48.2 15.2 71.1 4.9 13.3 12.7 25.1 22.6 35.1 9.5 9.5 15.9 20.8 23 31.8 19.6 30.5 34.3 63.6 49.7 96.2 12.5 26.4 27.8 50.8 45.8 73.7 2.9 3.7 4.3 7.6 4.4 12.4.3 6.8 1.2 13.6 1.7 20.4 0 1.4.9 2.9-.3 4.3-7.9 9.6-17.5 16.9-28.5 23.8-.5-4.3 2.1-6.7 3.1-9.4 2.9-7.7 2.8-15.3 1.2-23.1-4.2-21.1-12.6-40.7-22.4-59.6-25.2-48.6-53.2-95.4-88.1-137.8-6.9-8.4-13.8-16.7-22.2-23.7-1.8-1.5-2.1-3.2-2-5.3.3-24.2-5.4-47.2-13.6-69.7-1.5-4.1-3.4-7.9-6.1-11.4-2.8-3.7-6.2-4.1-10.1-2.2-3.6 1.6-6.4 4.2-8.7 7.3-9.8 13.2-16.1 27.8-16.6 44.6-.7 20.6 4.9 39.4 14.5 57.4 1 1.9 2.1 3.7 3.2 5.6-1.9 1.1-3.2-.2-4.3-.8-26.4-13.7-51.7-28.8-73.2-49.9-4.4-4.3-6.2-8.5-7.1-14-4.7-28-12.1-55.3-21.6-82-6.2-17.4-15.6-33.1-26.6-47.9-2-2.7-2-4.4 0-7.3 7.5-11.5 10.4-24.6 10.8-38 1.4-43.7-10.2-83.8-32.6-121.3-22-36.8-50.7-66.6-87.2-89.1-5.6-3.5-10.1-7.6-13.2-13.8-4.8-9.8-10.1-19.5-16.6-28.4-.6-.9-1.7-1.7-1.2-3z" class="outline" data-original-prefix="outline"/><path id="outline-ear-lft-ring2" fill="#000000" d="M720.4 800.3c-1.6 20.6-16.3 40.9-41.5 39.5-33.3-1.8-55.8-36-44.7-67.5 8-22.8 34.1-33.2 55-21.2 19.4 11.1 29.5 28.5 31.2 49.2m-17.4-9.4c.2-5.6 0-11.8-3.7-17.5-7-10.5-22.2-16.8-34.5-14-17.8 4.1-26.8 20.4-21.9 39.3 4.3 16.3 20.4 27 36.8 24.3 11.2-1.8 25.6-12.2 23.2-32.1z" class="outline" data-original-prefix="outline"/><path id="outline-ear-lft-ring" fill="#000000" d="M491.8 711.4c-.2-19.1 11.1-30.4 28-30.5 19.9 0 36.4 13.1 37.7 31.1.7 10.3-1.7 20.6-7.8 29.3-7.4 10.5-20.4 12.9-34.6 7.1-17.9-7.2-21.9-22.4-23.2-37.1h-.1Zm11.3 3.2v2.7c.5 10.5 7.6 18.7 18 20.8 10.3 2.1 19.6-2.5 24.2-12 7.6-15.6-4.9-33.5-23.8-33.9-7.9-.2-13.7 3.6-16.6 11-1.4 3.6-2.1 7.3-1.8 11.5Z" class="outline" data-original-prefix="outline"/>
    </g><g class="trait-group" data-category="head" id="head-slicked">
      <path id="fill-head" fill="#ffffff" d="M1184.8 747.2c1.7 1.6 7.1 11.9 9.4 15.1 15.6 21.3 37.6 44.5 59.5 59.5 2.8 1.9 17.6 9.9 18.1 10.9.8 1.6 2.1 11.4 2.2 13.8 1 17.8-4.1 34-12.8 49.2-.5 2.1-11.1 14.5-10.2 15.3 1 .9 3.1-.8 4-1.5 8.7-6.4 17.5-19.2 25.9-26.5 5.6 12.5 16.9 32.8 17.1 46.5.2 11.8-11.5 36.8-23.6 40.5-3.4 1 .8-5.5 1.3-6.7 1.5-4.3 4.3-11.3 4.3-15.8 0-5.3-2.9 1.3-3.2 1.8-3.7 5.3-6.8 10.1-12.5 13.5-17.3 5.9-62.4 43.2-77.7 43.1-7.3 0-16.7-4.3-24.6-2.9 5.1-5.7 11.2-12.7 9.5-21-13 11.3-26.8 21.6-41.6 30.4-10.1 6.1-24.4 16.9-36.3 8.5-4.9-3.5 2.7-5.8 5-8.2 5.1-5.4 17.4-29.3 20.5-37 3.6-8.8 6.2-19.1 6.3-28.7-5.2 4.1-6.4 10.8-9.7 16.3-11.5 18.9-35.2 43.6-54.5 54.5-51.1 29-102.9-11.5-129.1-54.5-3.3-5.5-4.5-12.2-9.7-16.3 0 9.5 2.8 19.8 6.3 28.7 3.1 7.6 15.4 31.6 20.5 37 2.4 2.5 9.9 4.8 5 8.2-13 9.2-33.2-6.2-44.3-13.5-11.8-7.7-23-16.2-33.6-25.4-1.6 8.3 4.4 15.2 9.5 21-7.9-1.4-17.3 2.9-24.6 2.9-15.3 0-60.4-37.1-77.7-43.1-1.9-1.8-4.4-3-6.2-4.8-2.2-2.2-7.3-11.8-8-12.1-.4-.1-2.5-.3-2.5.5l8 23.5c-12.1-2.4-20.7-20.2-23.5-31-4.7-18.2 8.2-39.9 15.5-56 8.4 7.3 17.2 20.1 25.9 26.5.9.7 3 2.4 4 1.5.9-.8-9.7-13.2-10.2-15.3-11.4-19.3-16.3-41.6-10.3-63.7 30.5-15.7 57.2-42.2 77.3-69.7 1.8-2.5 8.9-14.7 9.9-15.4 9.9-7.1 43 2.9 55.1 4.8 27.3 4.3 43.7-9.7 68-18.5 20.1-7.3 45.1-9.5 65.8-3.3 17.9 5.4 43 21.4 60.1 22.9 15.2 1.4 62.5-14.7 72.1-5.6ZM959 765c-.8-.8-5.9 2.8-6.9 3.6-6.7 5.1-36.1 44-37.6 51.4-2.6 12.6-.8 28.8-.4 41.5.4 11.9-.9 22.9 3 34.5l5.5-37c4.6-24.6 12.2-48.6 22.7-71.3l13.8-22.6Zm172 131c3.9-11.6 2.6-22.7 3-34.5.4-12.7 2.2-28.9-.4-41.5-1.5-7.3-30.9-46.3-37.6-51.4-1-.8-6.1-4.4-6.9-3.6l13.8 22.6c10.4 22.7 18.1 46.7 22.7 71.3l5.5 37Zm-224-97c-.8-.8-15.6 9.7-16.9 11.6-2.5 15.7-19.9 44.4-19.2 58.9.2 3.6 7.9 20.7 9.9 25.2 4.9 11 16.8 36.7 23.7 45.3 1.2 1.5 2.8 2.3 4.5 3-5.4-21.5-21.9-48.5-22.1-70.5-.1-23.9 12.5-51.2 20.1-73.5m232 144c1.7-.7 3.3-1.6 4.5-3 6.9-8.6 18.8-34.3 23.7-45.3 2-4.5 9.7-21.6 9.9-25.2.7-14.5-16.6-42.5-18.8-58.2-4.4-5.2-10.9-8.8-16.7-12.3l13.2 38.8c3.9 15.4 8.2 31.3 4.8 47.3l-20.5 58ZM831 816c-1.8-2-6.7 8.3-7.2 9.3-3.8 8.1-8.5 19.9-11.6 28.4-1.1 3-4.3 11.2-4.3 13.8 0 2.3 5.8 13.8 7.2 16.8s11.2 23 12.4 23.6c1.9.9 1.5-1.3 1.4-2.4-.7-9.1-5.9-20.4-6.8-30.2-1.8-19.6 5.2-40.3 8.9-59.4Zm388 92c2.1.4 2.3-1 3.2-2.3 7.1-10.5 12.2-26.6 17.8-38.2-4.6-13.7-9.8-29.1-15.9-42.2-1.4-3-3.4-8-6.7-9.3l8.5 46.5c1.4 15.7-4.8 30.3-7 45.5Z" class="fill" data-original-prefix="fill"/><path id="fill-head3" fill="#ffffff" d="M689 956c.1 0 .2 1.7 1 2.5 3.8 4 7.9 7.4 11 12 4.5 6.4 15.1 12 19.1 17.9.7 1 1.2 1.5.8 2.9-.8 3.2-14.6 6.3-18.4 9.7-7.2 6.3-27.7 38.1-32.3 47.7l-13.1 32.3c-2.2-18-6.1-36.4-7-54.5-1.5-29.2 10.6-35.5 27-56 3.1-3.9 6.9-10.6 10-13.8.7-.7 1.4-1.2 2.1-.6Z" class="fill" data-original-prefix="fill"/><path id="fill-head2" fill="#ffffff" d="M1361 956c7.8 14.4 21.4 25.8 30.2 39.3 7.2 11 7.4 18.2 6.8 31.2-.9 17.2-5.1 34.3-6 51.5-2.6.4-1.6-.2-2.1-1.4-4.9-11-8.1-22.3-14.1-32.9-4.3-7.5-25.9-39.3-31.4-43.6-4.2-3.2-20.5-5.6-16.4-11.7 6.9-6.8 14.4-12.9 21.1-19.9 3.2-3.3 6.3-8.2 9.5-11.5.8-.8.9-1.4 2.4-1.1Z" class="fill" data-original-prefix="fill"/><path id="shading-head" fill="#aaaaaa" d="M749 958.5c-.9-4.2-14.1-19.9-16.8-28.2s3.4-18.6 7.2-26.3c4.7-9.4 20.7-31.4 21.5-39.5.7-7.3 0-14 1.3-21.7 1.2-7.1 2-15.7 10.7-16.3-13 21.5-2.7 45.5 9.6 64.4 5.5 8.5 17.7 24.8 25.9 30.1 1.2.8 2 1.2 3.5 1-5.7-18.1-13.5-34.6-9.5-54 2.9-14.1 10.1-27.2 21.5-36-.2 3.8-5 7.6-5.8 10.7-1.9 7.7 1.9 19.8 2.7 27.8 1.1 11.2-2.1 25.3 8 33.5-.2-24.2 7.7-47.1 19.8-67.7l12.2-19.3c-16.5-3.4-33.5-5.2-50-8.5-3.5-.7-8.5-1.3-11.6-2.4-1.1-.4-1.7.5-1.4-1.6 10.3-10.4 20.9-20.5 30.5-31.5 10.4-12 30.3-45.4 46-45.8 13.3-.3 29.8 4.8 43 5.8 20.9 1.5 46.8-16.6 67.2-22.8 8.3-2.5 64.5-2.5 74.7-1.1 15.6 2.2 41.8 19.5 58.3 23.7 18 2 38-6 55.8-5.6 15.7.4 35.6 33.8 46 45.8 11.2 12.9 24 24.3 35.5 37-30.7 7.1-61.6 14-93 17 1.1 2.6-1.1 4.4-1.1 7.5 0 .7 2.8 11 3.1 11.5 0 0 1.5-1 2.4 0 .6.6 7.8 13.3 8.4 14.7 7.8 18.2-.1 61.2-6.6 80.2-1.6 4.6-4.8 8.5-5.3 13.2 1.5 1.5 23.5-3 26.5-5 4.1-2.7 18.9-23.5 22.3-28.7 12.1-18.8 19.6-40.9 18.7-63.4l-8.1-24.9c1.5 3.5 4.3 5.4 6.3 8.7 5.9 9.7 12.5 26.8 14.1 37.9 2.3 16.5-1.2 31.6-5.9 47.4 5.7-3.5 23.6-30 28.5-30 5.3 0 15.4 21.3 16.8 26.2 3.6 12.7-.9 24.3-7.1 35.5-1 1.7-4.8 5.6-4.8 6.8 0 .8 2.1 5.6 2.3 8.2 0 1.4-1.2 5.7-.6 6.3 2.4 2.4 3.6-2.8 4.1-3.4 8.1-8.6 13.7-5.5 19.8-18.3 7.7-16.4 10.4-38.5 10.2-56.4 1.4-1.9 11.2 21.6 10.9 25.4-.6 8.5-18 30.3-18 32.1V974s1.1-.2 1.6.4.3 1.6.4 1.6h15.5c1.4 0 20.4-13.1 23-15 8.7-6.7 16.1-15.2 25-21.8 1.3.9 2.8 1.8 3.9 2.9 8.9 8.8 43.7 58.8 47.3 69.7 4.3 12.9-1.6 27.3-5.5 40-5.7 18.7-12.9 37-19.8 55.2-5.6-14.1-10.2-28.5-16.6-42.3-8.4-18.2-25.9-53.8-44.6-61.4-2.4-1-11.3-2.9-12-3.5-3.1-2.2-6.5-20.5-12.7-21.8-11.4-2.2-16.3 2.4-25.7 5.3-5.5 1.7-13.9 4.2-19.4 4.6-7.8.5-18.2-2.6-25.4-.4s-29.9 19.7-39 25c-3 1.7-9.5 6.3-12.5 6.6-4.5.5-15.7-5.2-22-5.9-22.2-2.3-32.9 10.6-52 18.7-2.3 1-8.1 3.8-10 3.8-4.7.2-12.2-6-15.9-6.7-2.3-.4-9.6-.4-12 0-5.8.8-12.9 10-19 11-5.9 1-53 .8-57.2-.7-5.2-1.8-11.4-9.5-16.7-10.3-2.4-.3-9.7-.3-12 0-4.1.8-11.3 7.3-16.6 6.5-5.8-.8-23.7-10.8-30-14.1-13.3-6.8-14.2-10.2-31.4-8.4-6.5.7-18.2 6.6-22.9 5.7-2.8-.5-8.8-4.7-11.7-6.4-9.1-5.2-31.4-22.7-39-25s-17.7 1-25.4.4c-15.2-1.1-28.2-11.4-43.2-9.9-9.9 1-9.5 16.7-14.9 21.1-3.4 2.8-14.4 4.4-19.9 8.1-14.4 9.8-37.6 58.3-44.4 75.6-2.8 7.1-4.6 14.9-7.3 21.7-.4 1-.4 2.4-1.9 2.6-.5-5.7-4-11-6-16.5-4.6-12.3-9.4-26.2-13.2-38.8s-9.8-27.1-5.5-40c3.7-10.9 38.5-60.9 47.3-69.7 1.2-1.1 2.6-2 3.9-2.9 1.4 0 17.7 16 20.6 18.2s25.8 18.6 27.4 18.6h15.5s-.2-1.1.4-1.6 1.6-.3 1.6-.4c0-4.1.7-12.1 0-15.5ZM904 932c-3.5-22.2-6.3-42-.7-64.2 3.2-12.5 10.2-25.3 13.1-37 .6-2.4 1.3-7.3-1.8-7.8-5.9-1-12.9-.4-18.9-2.1-18.3 37.1-16.7 77.7 8.4 111.1Zm219.9-100.9c-21.8.4-43.6 2-65.4 1.9-38.8-.2-77.4-5.6-116-7-3.1-.1-6.5-.3-9.6.4-.8.6-1.8 7.5-1.9 9.1-1.7 20.1 2.8 45 7.3 64.7 3.7 16 10.3 31.1 19.2 44.8l.5-7.5c-2.7-32.3.2-69.9 18.5-97.5-2.2 52.9 15.6 107.2 52 146 .3-22.2-4.8-43.3 4.6-64.3 12.5-27.9 44.1-35.9 64.4-10.7 7.2 9 8.9 19 11 30 15.2-17.7 21-42.8 23.4-65.6.3-3.4 1.3-9.7 1.1-12.7-.2-2.6-7.7-30.6-9.1-31.5ZM1165 887c-.7-4 .9-7.7 1.1-11.5.9-17.1-4-30.8-9.5-46.5-1.7-2-14.6.7-18 1-3.1.3-6.3-.2-9.5 0-.4 1.9 1.6 3 1.7 4.6.2 2.1-1.2 4.3-.5 7.7 1.2 6.1 9.9 18.7 12.5 26.5 6.7 19.7 4.6 30.1 3.2 49.8-.2 3.8-1.3 11.6 3.5 7.5.5-.4 6.5-10 6.9-11.1 1.2-3 3.6-13 4.4-16.6 1-4.6.4-10.4 2.2-15.3l2 4Zm-352.5 36v1c.7-.3.7-.7 0-1" class="outline shading" data-original-prefix="shading" opacity="0.5" style="opacity: 0.5"/><path id="outline-head7" fill="#000000" d="M907 799c-7.6 22.3-20.2 49.6-20.1 73.5.1 22 16.7 49 22.1 70.5-1.7-.7-3.3-1.6-4.5-3-6.9-8.6-18.8-34.3-23.7-45.3-2-4.5-9.7-21.6-9.9-25.2-.7-14.4 16.7-43.2 19.2-58.9 1.2-2 16.1-12.5 16.9-11.6" class="outline" data-original-prefix="outline"/><path id="outline-head6" fill="#000000" d="m1139 943 20.5-58c3.4-15.9-.9-31.9-4.8-47.3l-13.2-38.8c5.8 3.5 12.3 7.1 16.7 12.3 2.2 15.7 19.5 43.8 18.8 58.2-.2 3.6-7.9 20.7-9.9 25.2-4.9 11-16.8 36.7-23.7 45.3-1.2 1.5-2.8 2.3-4.5 3Z" class="outline" data-original-prefix="outline"/><path id="outline-head5" fill="#000000" d="m959 765-13.8 22.6c-10.4 22.7-18.1 46.7-22.7 71.3l-5.5 37c-3.9-11.6-2.6-22.7-3-34.5-.4-12.7-2.2-28.9.4-41.5 1.5-7.3 31-46.3 37.6-51.4 1-.8 6.1-4.4 6.9-3.6Z" class="outline" data-original-prefix="outline"/><path id="outline-head4" fill="#000000" d="m1131 896-5.5-37c-4.6-24.6-12.2-48.6-22.7-71.3l-13.8-22.6c.8-.8 5.9 2.8 6.9 3.6 6.7 5.1 36.1 44 37.6 51.4 2.6 12.6.8 28.8.4 41.5-.4 11.9.9 22.9-3 34.5Z" class="outline" data-original-prefix="outline"/><path id="outline-head3" fill="#000000" d="M831 816c-3.7 19.1-10.7 39.7-8.9 59.4.9 9.8 6.1 21.1 6.8 30.2 0 1.1.5 3.3-1.4 2.4-1.2-.6-11-20.6-12.4-23.6s-7.2-14.6-7.2-16.8c0-2.6 3.2-10.8 4.3-13.8 3.1-8.5 7.8-20.3 11.6-28.4.5-1 5.4-11.3 7.2-9.3Z" class="outline" data-original-prefix="outline"/><path id="outline-head2" fill="#000000" d="M1219 908c2.3-15.2 8.4-29.8 7-45.5l-8.5-46.5c3.2 1.4 5.2 6.3 6.7 9.3 6.1 13 11.3 28.5 15.9 42.2-5.7 11.6-10.8 27.7-17.8 38.2-.9 1.3-1.1 2.7-3.2 2.3Z" class="outline" data-original-prefix="outline"/><path id="outline-head1" fill="#000000" d="M1308 967c20-7.7 33.4-24.5 49.5-37 2.2-1.7 6-5.3 8.8-4.9s15.6 15.7 18.1 18.9c9.9 12.4 31.4 41.7 37.8 55.2 14.7 31.2-11.1 77.2-20.7 107.6-.7 2.3 0 5.4-.9 7.1-1.3 2.1-15.8 8-18 5-1-1.3-4.5-15.8-5.7-19.3-8.6-24-21.3-50.2-35.7-71.3-5.4-7.8-8-12.1-17-16-2.9-1.2-13.5-3.8-14.7-4.8-2.6-2.1-7.7-19.7-10.9-20.7-12.6 5.3-26 9.3-39.8 10-4.1.2-15.7-1.4-17.8-.9-6.2 1.5-34.3 22.8-43.5 27.6-7.2 3.8-10.9 6.1-19.5 4.9s-17.8-7.6-26.3-6.8c-5.1.5-22.3 12.1-28.8 15.2-10.8 5.1-20.4 10.4-32.5 7.1-3.3-.9-13-6.3-14.7-6.3-2 0-13.2 10.1-18 10.9-5.3.9-10.1-.9-14.9-1-12-.2-24.1-.2-36.1 0-5.9.1-12.2 2.6-18.2.3-3.3-1.2-14.3-10.2-15.8-10.2-2.8 0-14.7 7.4-21.3 7.8-7.1.4-19.9-5.7-26.5-8.9-6.1-2.9-22.5-14.1-27.2-14.8-8.8-1.4-18.5 5.5-27.2 6.7-10.8 1.4-16.5-3.3-25.2-8.3-7.2-4.2-32.9-23.1-37.8-24.2-2.1-.5-13.7 1.1-17.8.9-13.6-.6-28.5-4.4-40.4-11-4.1 6.2-6.4 19.1-13 22.5-3.6 1.8-8.8 2.6-12.7 4.3-10.2 4.6-12.8 10.4-18.7 19.3-17.9 27-30.4 57.2-40.2 88-2.5.8-15.5-4.2-16.2-5.2-.6-.9 0-3.9-.6-5.9-9.7-27.9-33.2-74.3-24.2-103.2 4-12.9 35.2-56.3 45.2-67.8 2.4-2.8 11.1-12.9 14-12.9s24.7 20.4 29.6 24.3c2.5 2 26.7 18.9 27.9 17.6-2-7-7.7-12.8-11.2-19.3-10.3-19.3-8.6-28.6.7-47.7 4.1-8.5 20.8-32.1 22.3-37.7 1.4-5.3.5-16.6 1.2-22.8.7-5.5 1.9-11 3.8-16.2 27.3-18.8 50-41.4 71.2-66.8 9.4-11.3 21-32.6 35.2-36.8 16.3-4.8 43 3.4 60.2 4.3 17.5-6 36.2-17.3 53.6-22.5 10.7-3.2 75.1-3 88.4-1.4 16.3 2 42.4 19.2 59.2 23.9 17.2-.9 43.9-9.1 60.2-4.3 14.2 4.2 25.8 25.5 35.2 36.8 21.2 25.4 43.9 48 71.2 66.8 1.9 5.2 3.1 10.8 3.8 16.2.7 6.1-.2 17.4 1.2 22.8 1.5 5.6 18.2 29.3 22.3 37.7 9.3 19.1 10.9 28.4.7 47.7-1.4 2.7-12.4 18-11.2 19.3Zm-123.2-219.8c-9.6-9.1-56.9 7-72.1 5.6-17.1-1.5-42.2-17.5-60.1-22.9-20.7-6.2-45.7-4-65.8 3.3-24.3 8.8-40.7 22.8-68 18.5-12-1.9-45.2-11.9-55.1-4.8-1 .7-8 12.9-9.9 15.4-20.2 27.5-46.8 54-77.3 69.7-5.9 22.1-1.1 44.3 10.3 63.7.5 2.1 11.1 14.5 10.2 15.3-1 .9-3.1-.8-4-1.5-8.7-6.4-17.5-19.2-25.9-26.5-7.3 16.2-20.3 37.9-15.5 56 2.8 10.8 11.4 28.6 23.5 31l-8-23.5c0-.8 2-.7 2.5-.5.7.2 5.8 9.8 8 12.1 1.8 1.8 4.3 3 6.2 4.8 17.3 5.9 62.4 43.2 77.7 43.1 7.3 0 16.7-4.3 24.6-2.9-5.1-5.7-11.2-12.7-9.5-21 10.6 9.2 21.8 17.7 33.6 25.4 11.2 7.2 31.3 22.7 44.3 13.5 4.9-3.5-2.7-5.8-5-8.2-5.1-5.4-17.5-29.3-20.5-37-3.6-8.8-6.2-19.1-6.3-28.7 5.2 4.1 6.4 10.8 9.7 16.3 26.2 43 78 83.5 129.1 54.5 19.2-10.9 43-35.6 54.5-54.5 3.3-5.5 4.5-12.2 9.7-16.3 0 9.5-2.8 19.8-6.3 28.7-3.1 7.6-15.4 31.6-20.5 37-2.4 2.5-9.9 4.8-5 8.2 11.9 8.4 26.2-2.4 36.3-8.5 14.8-8.8 28.6-19.1 41.6-30.4 1.6 8.3-4.4 15.2-9.5 21 7.9-1.4 17.3 2.9 24.6 2.9 15.3 0 60.4-37.1 77.7-43.1 5.7-3.4 8.8-8.2 12.5-13.5.3-.4 3.2-7.1 3.2-1.8 0 4.4-2.7 11.4-4.3 15.8-.4 1.2-4.7 7.8-1.3 6.7 12.1-3.6 23.8-28.7 23.6-40.5-.2-13.7-11.5-34-17.1-46.5-8.4 7.3-17.2 20.1-25.9 26.5-.9.7-3 2.4-4 1.5-.9-.8 9.7-13.2 10.2-15.3 8.8-15.2 13.8-31.4 12.8-49.2-.1-2.4-1.3-12.2-2.2-13.8-.5-.9-15.3-9-18.1-10.9-21.9-15-43.9-38.2-59.5-59.5-2.3-3.2-7.7-13.5-9.4-15.1ZM689 956c-.7-.6-1.4 0-2.1.6-3.1 3.2-6.8 9.9-10 13.8-16.3 20.6-28.5 26.9-27 56 .9 18.1 4.9 36.5 7 54.5l13.1-32.3c4.6-9.5 25.1-41.3 32.3-47.7 3.8-3.3 17.6-6.4 18.4-9.7.4-1.4-.2-1.8-.8-2.9-4-6-14.6-11.5-19.1-17.9-3.1-4.6-7.2-8.1-11-12-.7-.8-.9-2.4-1-2.5Zm672 0c-1.5-.4-1.6.2-2.4 1.1-3.2 3.2-6.4 8.1-9.5 11.5-6.7 7-14.2 13.1-21.1 19.9-4.1 6.1 12.3 8.5 16.4 11.7 5.5 4.3 27.2 36 31.4 43.6 6.1 10.6 9.2 21.9 14.1 32.9.5 1.2-.5 1.8 2.1 1.4.9-17.2 5.1-34.3 6-51.5.7-13 .5-20.2-6.8-31.2-8.8-13.4-22.5-24.9-30.2-39.3Z" class="outline" data-original-prefix="outline"/>
    </g>
</svg>