<?xml version="1.0" encoding="UTF-8"?>
<?xml-stylesheet type="text/css" href="../styles/semantic.css" ?>
<svg xmlns="http://www.w3.org/2000/svg" viewBox="0 0 2048 2048">
  <g class="trait-group" data-category="background" id="background-purple-haze">
      <defs>
    <radialGradient id="purple-haze-gradient" cx="50%" cy="50%" r="70%" fx="50%" fy="50%">
      <stop offset="0%" style="stop-color:#E6E6FA"/>
      <stop offset="100%" style="stop-color:#4B0082"/>
    </radialGradient>
  </defs>
  <path id="color-purple-haze" class="color" d="M2048,0v2048H0V0h2048Z" fill="url(#purple-haze-gradient)"/>
    </g><g class="trait-group" data-category="jaw" id="jaw-OG-cracked">
      <!-- Generator: Adobe Illustrator 29.1.0, SVG Export Plug-In . SVG Version: 2.1.0 Build 142)  -->
  <defs>
    
  </defs>
  <path id="fill-jaw" class="fill" d="M1396.7,1438.7c-6.7,4.3-46.8-1.7-48.7.3l-12.2,69.8-57.2,29.3-1.4,1.6c-1.5,11.9,1.5,24.2.9,35.9-.3,4.9-1.3,15-2.3,19.7-.6,2.8-13.7,32.2-15,33.5s-16.1,8.9-16.7,8.3l-9.5-50-51,52c-7.7,5.7-20.7,9.3-27.5,15.5-14,12.7-25.2,37.4-42.1,47.9-5.4,3.3-61.3,25.7-66.7,26.3-13.8,1.7-33-3.3-47.7.2-17.7-10.3-50.1-16.2-66.1-26.9-14.3-9.6-28.3-35.6-41.4-47.6-6.7-6.1-19.9-9.6-27.5-15.4l-51-52-9.6,48.4c-.6.9-.9,1.7-2.2,1.5-.8,0-13.8-7.6-14.4-8.2-1.4-1.4-15.9-33.3-16.2-35.3l-.5-54.4-58.2-30.3-12.3-69.7c-8.1-1.2-45.1,3.9-49.5-1l-37.1-85-.5-3.4,31.5-70.6c5.3-1.6,29.1,0,31.3-6.7.8-2.3-.6-19.5-1.3-22.4-2.2-8.4-16.2-24-19.8-33.2-.7-1.7-1.2-3.1-.6-5,4.7-11.3,10.3-22.3,14.1-34,7.3-22.4,7.2-42.6,16.9-65.1,47.5-110.2,188.9-176,299.9-200.1,44.7-9.7,79.8-1.5,122.7,11.2,98,28.9,222.6,97.5,259,199,6.8,19,7,38.1,13.5,57.5,3.8,11.2,10.1,22.1,13.7,33.4,0,1.4-8.3,16.4-9.8,19.1-2.4,4.3-9.7,13.4-10.7,17.3-1.8,6.8-.6,15.6-2.3,22.5,9.9,7.9,21.3,4.2,32.4,6.5,9.6,23.9,23.5,46,31.4,70.6-9.8,26.3-22.2,51.8-33.2,77.7-1.3,3-1.7,9.3-5.1,11.4h0Z" fill="#ffffff"/>
  <path id="shading-jaw" class="shading" d="M1380.8,1185.8c-.2.4-2.1.7-2.8,1.7-8.6,10.8-16.2,26-21,39-4.2,11.4-5.1,22.7-13,32-18.8,22.4-51.8,45.5-78.3,57.7-5.4,2.5-12.5,3.7-16.7,7.8h20.5c2.7,0,5.1,1.2,7.9,1.1,18.1-.2,64.4-19.8,77.5-32.6,5.7-5.5,14.1-15.7,15-23.5,1.8,0,.7,2.4,1.5,4,3.1,5.9,15.5,5.2,21.5,6,.2,1.6-1.5.7-2.3,2.2-4.6,8.3-4.4,21.6-10.6,28.3-7.5,8.1-37.1,13.5-48.8,17.2-14.5,4.6-29.8,8.8-42,18.1l-52.8-14.8c-19.3-2.3-9.9,15.4-5.3,25.3,5.2,11.3,20.7,40,30.4,46.6,11.9,8.2,22.7-10.2,30-17,6.3-6,16.2-11.8,24.6-14.4,17.7-5.6,32.3,4.7,50.5,5.4,17.4.8,34.6-7.7,48.8-17.2,3.6-2.4,14.6-13.9,17.2-13.8,1.7,0,3.3,6.1,1.8,7.8-10.1,24.3-21.6,48-31.8,72.2-3.7,8.8-.8,14-13,15-9.3.7-15.8-1-24.2-1.8-4.8-.4-11.8,2.5-17.3-.2l-12.9,70.6-59,30.5c.4,11,2.6,23.6,2,34.5-.3,5.7-1.3,15.4-2.1,20.9-.5,3.1-13.4,31.4-15.4,33.6-3,3.2-11.6,6.2-15.5,9-.8-4.9-2.7-10.6-3-15.5-.6-11.2,2-11.3-2.7-23.2-.4-1.1-1.9-1-2.2-2-.8-2.2-.8-6.7-1.1-9.2l-2.3.2-50.2,51.8c-7.7,5.2-19.5,8.7-26.5,14.5-14.2,11.7-24.4,36.1-41.5,47.5-6.7,4.5-54.2,25.7-61.2,26.8-9.9,1.5-51.8,1.6-61.5,0-6.9-1.2-49.7-20.5-57.3-24.7-15.8-8.9-30.2-37.8-44.4-49.6-6.9-5.7-19-9.3-26.5-14.5l-51-52c-1,8.1-7.3,16-8.1,24-.6,6.2.6,14.6-.3,21.6-.2,1.7-3,1.8-2.1,4.4-.6.7-14.6-8.1-15.5-9-1.7-1.8-15-30.8-15.4-33.6-.7-4.4-.9-13-1.1-17.9-.5-12.2.6-24.4.5-36.6l-58.5-31.4-13-69.5-48.8-.2-38-86.6.9-6.2c8.2.4,11.8,8.2,18.6,12.7,25.3,16.9,38.4,19.8,68.5,13.9,17.1-3.4,19.1-7.5,37.2.4,15.9,7,19,16.2,30.6,25.4,9.6,7.6,13.6,7.9,22-1s31.8-49.1,32.1-60c.2-8.7-6.4-8.1-13.3-7.2-8.6,1.1-48.4,15.1-51,14.6-1.7-.4-12.3-7.9-16.5-9.6-20.3-8.4-48.8-11.8-67.2-20.8-14.9-7.3-11.3-20.9-17.7-33.2-.9-1.6-2.5-.6-2.3-2.2,6.3-.9,17,0,21-5.5,1-1.4.3-3.7,2-3.5,3,11.7,15.2,23.9,25.1,30.4,21.2,13.8,50.4,23.7,75.4,23.5h20.5l-34.7-16.8c-19.1-10.8-48.2-33.1-61.8-50.2-6.2-7.8-7.1-18.3-10.5-27.5-6-16.6-14.4-32-25-46,1.3-9,6.5-19.6,7.8-28.2,1.9-12.9,1.8-19.5,6.5-32.5,36.4-101.1,159.2-169,256.8-198.2,49.9-15,102.4-18.2,153.2-5.2,103.5,26.4,242.6,100.3,277.2,208.8,3.4,10.5,3,17.3,4.8,27.2.8,4.7,8.9,28.4,7.6,30.6l-.5-.2ZM1195.9,1382.1c-32.3-16.1-63.1-35.3-95.9-50.7-17.5-18.7-37.4-36.6-54.6-55.4-4.8-5.3-11.2-16-16-20-3-2.6-7.4-3-10.6-.6-4.5,3.4-12.7,16.4-17.4,21.6-16.7,18.6-36.8,35.6-53.6,54.4-32.9,15.3-64,34.2-96,51.2-.6,2.8,12.4,35,14.6,40.3,2.9,7.1,12.1,31.7,16,36.1,7.1,8,36.5,26.3,47,33,19.8,12.7,36.1,22.9,59.3,28.7,27.3,6.8,39.7,7.1,67,.6s43-16.6,65.7-31.3c10.4-6.8,35.9-22.5,43.4-30.6,4-4.4,12.7-27.4,15.6-34.4,2.1-5.1,16.8-41,15.5-42.9M728.3,1496.7c1.6,2,8.2,6.3,10.7,7.8,14.7,8.8,31.8,13.8,46.9,23.1,16.8,10.2,40.2,33.1,59.6,33.5,2.3,0,8.7-1.2,9.4-3.7s-13.6-27.6-16.4-30.3c-7.3-7.1-27.5-17.2-37.2-23.8-15.2-10.3-50.3-39.1-67.9-39.2-10.5,0-8.7,28.1-5.1,32.7h0ZM1319.7,1466.3c-5.9-5.9-24.1,4.1-30.4,7.6-16.2,8.9-31,21.4-46.2,31.8-12.7,8.7-30.1,15.7-38.6,28.4-2.2,3.4-10.8,17.7-11.4,20.7-1.1,5.3,6.2,6.5,10.3,6.3,16-.9,23.4-9.7,35.2-17.8,9.2-6.3,19.3-13.6,29-19,11.7-6.6,47.1-19.2,52.7-29.3,2.4-4.3,2.8-25.2-.7-28.6h0ZM1126,1664c-12-2.7-20.7,6.6-31.6,7.9-5.7.7-12.2-1.2-16.6-.7-7.1.8-22.9,12.1-31.2,14.9-14.8,4.9-30.2,4.7-45.1,0-8.8-2.8-23.9-14.1-31.2-14.9-4.4-.5-10.9,1.4-16.6.7-11-1.3-19.9-11-31.6-7.4,0,6.9,23.8,23.5,30,27,12.5,7.1,59.8,26.8,72.5,26.6s59.9-19.8,72.2-26.9c10.3-6,24.6-16.2,29.3-27.2h-.1Z" fill="#aaaaaa" style="opacity: 0.5" opacity="0.5"/>
  <path id="outline-jaw" d="M676,1140c5.2-3.1,18.7-3.2,19.1,4.5,0,2.3-.8,11.2-1.1,14-.3,3-.9,8.4-2.1,10.9-2.5,4.9-17.3,13.6-20.1,19.9-1.2,2.6-6.4,25.9-6.7,29.3-.2,1.7,0,2.8.4,4.4,2.1,6.9,13.8,19.7,17.7,27.3,5.7,11,7.2,24.3,12,35s13.5,10.7,22.5,15.6,17.7,11.1,25.3,17.2c-3.1,0-6.3.2-9.4,0-7.7-.8-35.8-6.7-41.8-10-6.1-3.3-8.8-18.4-12.8-20.4-2.5-1.2-7,0-10.3-.7-6.7-1.2-9.9-7.8-17.5-1.5-6.7,12.4-14.3,24.3-20.4,37.1-7.4,15.4-14.8,25.1-4.8,41.2,5.2,8.4,23.4,27,25.6,34.4,2.5,8.4-2.4,27.4,2.4,33.6,5.4,6.9,20.6,5.2,27.7,1.7,11.1-5.5,9.2-10.1,14.9-19.1,5.3-8.3,20.9-24.3,30.4-26.7,7.7-1.9,12.3,10.3,14,16,4.9,15.9,2,31.2,13.9,44.1,1.1,1.2,9,8.5,10,7.5-.8-5.6,4.8-8.4,6.5-13,3-7.9-3.1-20.6-5-29-2.8-12.3-5.1-24.7-8-37-1-4.1-6.2-19.9-5.4-22.3,1.2-3.8,23.7-9.1,24.9-10.7.4-.5-2.9-8.7,0-12.6,1.3-1.8,8.8-6.8,11.1-8.9,3.9-3.5,23.1-22.9,25.7-23.4,4.4-.8,5.2,2.4,8,3.6,5.1,2.1,10.8,2.5,15.7,4.3,1.1.4,2.4.5,2.5,1.9-11.2,6.3-23.6,13-34.3,20.2-2.7,1.8-16.6,11.8-17.6,13.4-1.6,2.6-2.2,9.7-2.2,12.9l3,44.5c-9.8-13.1-8.1-31.3-10-47-2.5,1.9-15.3,3.5-15.9,5.6,4.5,18.6,8.6,38.8,15.1,56.7,7.3,20.1,19.2,40.4,27.7,60.3,11.1,7.8,27.2-5.8,33-15,5.6-8.7,8.1-23.6,22.5-13.5,11,7.7,22.9,21.4,33.5,30.5,48.3,41.3,92.1,59.6,157.4,50.3,40-5.7,69.7-25.7,99.7-51.3,6.2-5.3,32.4-31.5,37.5-32.5,11.9-2.2,14.8,13.8,21.4,21.5,7.4,8.7,17.4,14.2,29.1,12,4.4-.8,21.2-8.4,26.3-10.7,9.2-4.2,20.3-11.4,27.2-18.8,10.4-11.3,8.4-24,12-38,1.7-6.6,6.3-23.8,15.5-21.6,10.7,2.6,27.2,21,32.6,30.4,1.7,3,2.2,6.8,3.9,9.1,6.3,8.5,28.5,13.3,36,5.1,5.6-6.1.4-25.5,2.9-34.1s20.4-25.8,26-35c9.4-15.8.8-28.3-6.5-43.3-5.8-11.8-13.2-22.7-19.2-34.3-7.1-5.6-12.2.4-18.5,1.5-2.9.5-6.9-.4-9.3.7-3,1.4-6.8,14.4-9.5,17.5-1.4,1.6-7.6,4.3-9.9,5.1-8,2.8-25.7,6.6-34.3,7.7-3.4.4-6.8.2-10.2.2,6.6-5.5,15.7-12,23.3-16.2,11.5-6.3,19.8-5.1,25.5-19.5,3.9-9.8,5.3-20.7,10.3-30.7,3.9-7.7,16.9-22.6,18.7-29.4.4-1.7.2-2.8,0-4.5-.6-4.4-5.6-25.6-7.2-28.8-3.7-7.3-19-15.9-20.5-21.5-.8-3.2-2.6-24.3-1.6-26.4,2.1-4.5,12.7-3.4,16.5-1,.5,1.9,4.4,14,5,14.5,6.2,5.3,26.1,4.1,26.1,17s-1.7,15.9.2,26.7c1.7,9.8,9.7,22.5,6.4,31-2.3,6-12,20.9-15.9,27.1-3.6,5.6-8.1,10.6-11.8,16.2,8.8.3,18.9-17.9,26.1-12.1,3.4,2.8,13.7,18.6,16.7,23.3,5.1,7.9,10.9,17.6,15.1,25.9,3.9,7.8,17.4,38.8,16.1,45.8-.2,1.2-13,15.6-15.2,18.8-10,14.2-21.3,32.5-25.7,49.3-1.9,7.2-2.7,14.7-4,22-1,1.4-27.6,11.9-31.1,12.9-10,2.9-17.2,1.5-24.9-5.4-.9,8.8-2.6,17.7-3,26.5s1.7,33.1-.8,39.2c-.6,1.5-11.3,15-12.5,15.5-6.3,3-15.7-1.7-24.7,3.3-22.6,12.7-18.8,48.5-26.9,68.1-6,14.6-40.4,52.5-54.6,59.4-1.2.6-2,1.3-3.6.9,1.2-14.7,3-35.1-3.9-48.6-.4-.8-.4-3.2-2.1-1.4-.7.7-3.6,13.8-6.6,17.9-8.6,11.7-30.9,6.8-39.2,20.8-5.2,8.9-7.6,22.3-13.4,30.6s-48.5,28.9-59.6,33.4c-15.1,6.1-64.1,21.2-78.8,21.2s-63.4-15.1-78.8-21.2c-11.1-4.4-55.3-26-60.6-34.4-6.9-11.1-8.5-31.6-21.5-37.6-14.4-6.6-26.5-2.6-33.9-20.1-1.1-2.5-2.5-10.3-2.8-10.7-1.3-1.6-1.8.4-2.2,1.3-1,1.8-4.8,14.6-4.8,16.2v30c0,.3,1.4,1.4,1,2.5-1.7.2-3-.3-4.4-1.1-15.2-8.7-49.8-45.6-54.8-62.2-6.2-20.6-5.2-52.1-25.9-65.1-8.2-5.2-18.3-.3-24.7-3.3-.9-.4-12.2-14.2-12.7-15.3-2.1-5.2-.2-29.6-.5-37.4-.4-9.1-2-18.5-3-27.5-4,1.6-7.6,4.7-11.9,5.6-2.8.6-5.6.7-8.5.3l-35.7-14.3c-1.5-7.3-2.1-14.8-4-22-4.3-16.8-16.4-36.3-26.5-50.5-2.2-3-13.9-15.8-14.2-16.8-1.1-3.6.8-8.3,1.8-11.8,5-18.6,17.3-42.1,27.6-58.4,2.5-4,17.5-26.2,20.1-26.9,6.2-1.8,15.2,12.1,22.3,12.8.7-.7-9.3-13.3-10.4-15.1-4-6.2-14.5-22.3-16.8-28.2-2.7-7.1,5.4-22.1,6.9-30.5,1.9-10,.2-18.4,1.3-27.7,1.2-11,17.6-11.6,25.8-15.7,2.1-4.7,2-9.6,3.2-14.8h.4v-.2ZM799,1627.5v-20c0-3.5,9.1-26.6,11.7-27.4,6.9-2.2,27.9,17.6,32.8,22.9,7.6,8.1,14.7,20,23,27,10.5,8.8,23.6,12.8,33.5,23.6,22.2,24.2,21.6,36,55.1,50.9,29.5,13.1,59.4,23.9,92.4,17.4,12.7-2.5,58.9-21.3,68.9-29.1,12.4-9.6,23.1-31.8,35.2-42.8,9.6-8.8,25.5-14.6,34.6-23.4,6-5.9,12.7-15.8,18.4-22.6,2.8-3.3,8.4-7.2,10.3-10.7,4.4-8.2,10.5-40.4,10.3-49.8-.3-12.5-3.5-25.3-4.2-37.8-17.1-12.8-20.5-.4-31.4,9.3-16.5,14.9-41.1,22.8-63,25-69.4,7-135.6,7-205,0-22-2.2-46.4-9.9-63-25-7-6.3-10.5-15.9-22-15.1-3.7.3-6,3.1-8.5,3.7-4.9,1-22.9-12.7-28.3-15.8-18.4-10.2-46.1-20.5-61.1-34.9-6.9-6.6-2.4-11.8-2.5-19.5s-3.8-23.4-6.8-30.2c-.5-1.1.2-1.5-1.7-1.3-9.4,1.3-19,20.2-19.3,28.8-.2,6.3,6.7,18.5,7.6,26.9,1.5,13.9-4.4,40.4,8.8,49.2,12.8,8.6,39.9,13.7,50.8,26.2,5.7,6.6,1.5,7.9.7,14.6-3.6,29.6,1.4,55.9,20.9,78.9.5.6,3.9,4,2,1h-.2ZM1248,1630c19.4-21.2,26.1-39.8,25-68.5-.3-7.8-4-21.4,0-27.8,4-6.1,20.2-13.6,27.2-16.8,15.2-7.1,31-7,32.7-27.3,1.3-14.8-1.6-26.3,2.5-41.5,3.4-12.7,7.8-13.2,2.5-27.5-2.8-7.7-9.2-17.6-18-18.4-5.5,13.3-7.4,26.1-7,40.5,0,3,2.2,4.9,0,8.1-1.5,2.2-16.5,12.2-19.8,14.2-9.2,5.7-59,28.5-60.9,35.1-2.7,9.4,7.3,31.3,8.6,41.6l-10,40.5c2.4-1.4,5-2.6,7.9-1.9,6.7,16.4,13.1,31.6,9.1,49.9v-.2h.2ZM780,1448c-2-1.4-5.5,2.6-5.8,4.7-.9,5,7.2,15.1,12.8,15.2-.9-2.6-6.1-19.4-7-20h0Z" class="outline" fill="#000000"/>
    </g><g class="trait-group" data-category="mouth" id="mouth-jaws">
      <path id="fill-mouth-main" fill="#ffffff" d="M1102 1287c.4.6-2.2 4.3 0 5.5 50.4 27.6 100.7 55.4 145.8 91.1-5.2 15.8-10.4 31.6-16.7 47.1-5.9 14.4-8.3 22.4-12.7 37.3-13 44.8-25.3 89.9-38.3 134.7-3.4 15.6 7.3 31.3 8.8 45.8.5 5.4-1.6 24.6-3.1 29.9-2.4 8.9-12.3 10.5-19.9 15.1-23.1 14.2-44 33.8-68.7 45.3-38.6 17.9-94.7 18.9-134.6 4.9-30.8-10.8-53.7-33.5-80.8-50.2-5.6-3.4-16.3-6.9-18.8-12.2-2.2-4.7-4.6-27.2-4.1-32.9 1.2-14.4 12.1-30.2 8.8-45.8-13.8-47.4-26.5-95.2-40.5-142.5-3.7-12.4-5.6-17.8-10.5-29.5-6.4-15.4-11.4-31.2-16.7-47.1 45.2-35.6 95.4-63.7 145.8-91.1 2.2-1.2-.5-4.8 0-5.5.2-.2 3.4-1.1 4.7-1.9 25.5-15.1 52.3-31 83.7-27.1 24.4 3.1 42.7 15.5 62.9 27.1 1.2.7 4.5 1.7 4.7 1.9h.2Z" class="fill" data-original-prefix="fill"/><path id="fill-mouth-teeth13" fill="#ffffff" d="m1042 1510-1.9 71.5c-.9 11.5-1.7 23.4-2.1 34.9-.2 7.7 1.3 20.2 0 27-.5 2.5-12.9 11.6-14.3 11.4-1.2-.2-13.2-8.9-13.7-11.4-.2-44.5-3.3-88.9-4-133.5l17.6 16.9 18.3-16.9Z" class="fill" data-original-prefix="fill"/><path id="fill-mouth-teeth12" fill="#ffffff" d="m1000 1637-20-15.5c-1.8-.5-2.8-4.4-3-4.5-.8-.5-3 3.8-5 3-.4-20.5-.2-41.1-1-61.5s-2.9-41.1-2.5-61.4l11-14c3 4.2 18.8 16.6 19.2 20.6.4 3.5-.9 11.2-.8 15.9.8 20.4 1.8 41.5 2.1 61.9.2 18.5-.2 37 0 55.5" class="fill" data-original-prefix="fill"/><path id="fill-mouth-teeth11" fill="#ffffff" d="M1076 1620c-2 .8-4.2-3.5-5-3-.2.2-1.2 4.1-3 4.5l-20 15.5c.2-18.5-.3-37 0-55.5.2-20.4 1.3-41.5 2.1-61.9.2-4.7-1.2-12.4-.8-15.9.4-4 16.2-16.4 19.2-20.6 2.1 3.9 9.5 10.8 11 14 1.8 3.8-1.3 28.2-1.5 34.4-.3 9-.7 18.1-1 27-.7 20.5-.6 41.1-1 61.5" class="fill" data-original-prefix="fill"/><path id="fill-mouth-teeth10" fill="#ffffff" d="M1114 1651c-3.8-.4-4.7-3.2-5-6.4-1.4-14.4 1.7-35 2.1-50 .6-21.9 0-43.7 2-65.5 3.3.2 4.2 1.9 7.1-.4 6.2-5.1 13.2-22.1 19.9-28.8s2.8-2 3-1.8l-9.1 120.4-20 32.6Z" class="fill" data-original-prefix="fill"/><path id="fill-mouth-teeth9" fill="#ffffff" d="M907.7 1499.3c7 6.2 13.8 23.9 20.3 29.2 2.9 2.4 3.8.6 7.1.4 1.5 10.5.6 21 1 31.5.7 20.9 1.5 42 2 63 .2 5.8 4.1 25-2.5 27.4-1.7.6-6.8-10-8.5-11.4l-12.9-21.1c-3.3-40.1-5.6-80.4-9-120.4 0 0 2.2 1 2.7 1.3h-.2Z" class="fill" data-original-prefix="fill"/><path id="fill-mouth-teeth8" fill="#ffffff" d="M903 1601c-7.1-6.3-5.5-23.9-18-13l-17-142c10.4 12.2 19 26.1 28 39.5 1.9 38.5 3.8 77.1 7 115.5" class="fill" data-original-prefix="fill"/><path id="fill-mouth-teeth7" fill="#ffffff" d="M1163 1588c-12.5-10.9-10.9 6.7-18 13l4-51.5 3.1-63.9c8.9-13.4 17.5-27.3 27.9-39.5l-17 142Z" class="fill" data-original-prefix="fill"/><path id="fill-mouth-teeth6" fill="#ffffff" d="M963 1507c-.7 40.2 2 80.1 2 120.3-1.9 1.4-17.9 15-19 13.7.9-38.3-2.3-76.2-2-114.5l15.4-18.6z" class="fill" data-original-prefix="fill"/><path id="fill-mouth-teeth5" fill="#ffffff" d="M1102 1641c-1.1 1.3-17.1-12.3-19-13.7.4-22.3.5-44.6 1-66.8 0-2.4 1-4.6 1.1-6.9.3-15.5-.3-31.1 0-46.5l3.6.9 15.4 18.6c.3 38.2-2.9 76.2-2 114.5Z" class="fill" data-original-prefix="fill"/><path id="fill-mouth-teeth4" fill="#ffffff" d="M875 1581c-1.5.2-1.3-1.7-1.7-2.8-3-8.8-6.1-18.6-8.6-27.4-10.7-37.7-11.6-78.6-17.8-117.3 0-3.9 3-6.9 5.6-9.5 3.4 3.5 5.8 6.6 6.4 11.6 1.2 10.1 1 21.5 2.1 31.9 3.8 35.2 11.2 72.2 14 107 .2 2.2 0 4.3 0 6.5" class="fill" data-original-prefix="fill"/><path id="fill-mouth-teeth3" fill="#ffffff" d="M1172 1580c6.3-40.6 11.8-81.6 16-122.5 1.2-11.5-1.6-25.4 7.5-33.5 2.6 2.6 5.7 5.5 5.6 9.5-7.6 47.5-8 99-26.1 144-.6 1.6-.8 2.9-3 2.5" class="fill" data-original-prefix="fill"/><path id="fill-mouth-teeth2" fill="#ffffff" d="m843 1439 4 53-5.7-15.8c-1-7.8-7.5-23.8-4.4-30.8.5-1.1 2.9-4.1 3.8-5.2.6-.7 0-1.9 2.3-1.3Z" class="fill" data-original-prefix="fill"/><path id="fill-mouth-teeth1" fill="#ffffff" d="M1207 1439c.3.3 4.7 7.3 4.8 7.7 1.3 4.9-3.4 23.5-5 29.5l-5.7 15.8 4-52.5c0-.9 1.9-.6 2-.5z" class="fill" data-original-prefix="fill"/><path id="shading-mouth4" fill="#aaaaaa" d="m900 1319-56.5 57-14 16c-1.9 4.1 3.2 15.8 2.5 21 4.2-1.8 14.7-13.4 18.4-13.1 4 .3 8.8 14.9 10.3 18.8 2.5 6.3 4.5 12.8 6.8 19.2 18.7 24.5 38.6 48.2 57.4 72.6 3.8 5 3.2 9.2 10.1 7 3.2-1 13.7-10.2 17-13 10.5-9 19.8-20 30.5-28.6l41.1 41 41.9-41c13.1 10.8 24.4 24.6 38 35 3.2 2.5 10.4 9 14.5 6.5l61.8-79.2c3.6-6.3 11.7-36.7 16.9-38.2 4.6-1.3 17.3 14.1 19.3 11.9-.8-5.2 4.4-15.8 2.5-20-20.7-25.2-46.1-46.1-68-70-.7-.7-2.7-2-2-3 34.5 16.7 65.1 39.8 96 62 2.5 5.1-7.2 33.5-9.8 40.2-2.7 7.3-6.2 13.8-9.2 20.8-3.2 7.3-3.5 21.2-14.5 14l-8.5 50-2.5 1c-.2-19.8 1.9-39.7 4-59.4-2-4.9-6.9-13.6-8.8-3.8-4 21.5-4.5 48.2-7.4 70.6-3.6 28-8.2 56-12 84-2 14.9-3.3 16.2 1.9 31.4 1.3 3.8 7.2 14.6 7.4 16.7s-6.3 26.7-7.6 29.5c-2.4 5.5-34.3 27-41.2 30.8-23.5 12.8-65.3 23.2-92 27-44.3 6.3-112.7-12.8-149.7-38-4.2-2.9-22.5-15.7-24.1-18.9-1.2-2.3-7.8-28.2-7.7-30.4 0-2.1 7-16.2 8.3-20.7 4-13.7 2.7-13.4.9-26.4-7.5-52.8-15.1-105.5-20.4-158.6-2.2-5.2-7.7 4.9-7.9 7.8 2.1 19.4 4 39 4.1 58.5h-3l-8-51c-11.6 7.2-11.3-6.6-14.5-14-5.7-13.3-11.5-25.2-15.5-39.5-1.5-5.2-6.1-18.6-2.5-22.6 31.2-21.3 60.9-45.2 95.5-60.9zm-34.5 137v1c.7-.3.7-.7 0-1m315.5 1c-3.8 9.4-17.3 19.9-21.1 28.4-3.4 7.8-1.6 20.7-3.9 29.1l-3 60c.6 3 10.1 7.9 13.4 8.4zm-286.2 118.8c-1.8-29.7-2.2-59.6-6.1-89.1-7.3-9.7-14.3-20.1-22.7-28.8l14 125c6 0 10-4.5 14.8-7.2ZM995 1627c-.8-15.5-.4-31.1-1-46.5-.7-20.6-1.2-43.5-3-63.9-.3-3.6-.4-13.4-4.5-13.5-2.5 0-20 10.7-20.5 13.5 2.4 20.6 1.2 41.4 1.9 62 .2 6.2.6 13.8 1.1 19.9s3 12.8 2 19.5l5.4-5c1.5 2.2 17 15.7 18.6 14m82-10c-.8-6.9 1.6-13.7 2.1-20.4 1.1-17.4.3-35.7.9-53.1.3-8.7 2-18.1 2-26.9s-1-2.1-2-3c-2.2-1.8-17.3-10.9-19.3-10.4-2.9.7-3.4 7.6-3.7 10.4-3.3 35.8-2.8 74-4 110 0 1.4 0 2.9-1 4 5.2.7 17.8-14.1 19.5-14.5 2.3-.5 2.5 4.7 5.4 4Zm-146 17c-1.9-32.1-.2-64.4-2-96.5l-26-32.5c2.8 32.1 2.9 64.2 5 96.4 6.9 11.3 14.5 22.3 23 32.5Zm187 0 22-32.5c1.9-32.2 2-64.3 5-96.4l-26 32.5c-2 25.3-.4 50.7-1 76-.2 5.9-1.4 11.5-1 18 0 1.1-.7 2.8 1 2.5Zm-175 2c.8.8 16.4-9.7 17.5-11 .7-.8 1.5-1.4 1.4-2.6-.7-33.9-2.5-67.6-4-101.5-3.4 2.4-16.3 10.2-17 13.5-.2 33.9 0 67.8 2 101.5Zm101-115c-4.9 2.7-10.4 10.7-15.7 11.8-11.9 2.5-16.1-5.4-24.3-11.8 1.3 37.5 2.3 74.9 2 112.5.8 4 14.2 9.4 17.7 12.4 3.7-2.5 17.6-8.6 18.3-12.4-.2-37.6.2-75.1 2-112.5m61 115c1.6-33.8 2.3-67.6 2-101.5-.7-3.7-13.7-10.5-17-13.5-1.8 33.8-3.7 67.5-4 101.5.2 2.9 18.2 14.4 19 13.5m-167.3 18.7c-1 .9-2.6 1.5-4 1.2-3.8-1-23-30.3-27.3-35.8L895 1607c-.4 4.4-1.3 8.8-2.5 13-1.6 5.4-8.4 19.9-8.6 23.5 0 2.9 4.5 19.8 5.8 23.3.7 1.9 1 3.9 2.9 5.1 29 14.8 52.4 35.8 84.2 44.8 31.1 8.9 64.2 8.8 95.2-.2 31.6-9.2 55.5-30.5 84.3-45.4.8-.4.9-1.2 1.2-2 1.2-3 6.7-24.2 6.5-26.5-.3-3.3-5.8-13.4-7.3-17.8-1.8-5.8-3.1-11.8-4.2-17.8-2.2 3.1-5.1 5.6-7.5 8.5-8.8 10.8-17.2 26.4-26.1 35.9-1.6 1.8-3.2 3.6-5.6 4.3l-43.7-28.7c-4.3 3.6-8.6 8.8-13.3 11.7-8.2 5.1-15 6.1-23.4 13.6-2.3 2.1-3 5.8-6.5 6.5-8.1 1.6-7.3-2.8-11.5-6.4-7.2-6.1-10.9-7.5-18.9-11.1-6.3-2.8-12.3-10-17.6-14.4-12.8 7.9-26.2 15.6-38.3 24.5-1.3.9-1.6 2.5-2.3 3.1v.2Z" class="outline shading" data-original-prefix="shading" opacity="0.5" style="opacity: 0.5"/><path id="shading-mouth3" fill="#aaaaaa" d="M1118 1345c-1.5 1.5-1.8-.6-2.3-1.3-1.8-2.3-6.1-7.1-7.1-8.8-1.8-3.2-.9-7.3-2.6-9.4-2-2.4-11.1-9.6-14.1-11.9-17.8-13.8-38.6-25.3-56-40-3.6-5.4 6-7.7 4.1-13.6.4-.4 8.3 1.9 9 2.5 1.9 1.6 0 5.2 2 7l68.4 49.6c2.9 2.8-.3 24.8-1.4 25.9" class="outline shading" data-original-prefix="shading" opacity="0.5" style="opacity: 0.5"/><path id="shading-mouth2" fill="#aaaaaa" d="M1008 1260c-2.1 5.5 7.8 8.5 4.1 13.6l-61.1 43.9c-10.3 7.3-11.1 16.5-18.7 26.2-.5.7-.7 2.7-2.3 1.3-1.1-1-5.1-24.3-1-26.5l68-49c2-1.9 0-5.2 2-7 1-.9 8.7-2.9 9-2.5" class="outline shading" data-original-prefix="shading" opacity="0.5" style="opacity: 0.5"/><path id="shading-mouth1" fill="#aaaaaa" d="M1011 1355c1.1 4.6-4.9 8.9-3.6 13 1.1 3.3 13.8 10.8 16.2 14.9 1.2.2 16.5-14.1 17-15.9 1-3.6-5.2-7.6-3.6-12 6.9-2.5 17.3 6.5 15.8 13.3-.8 3.8-7.8 10.3-10.8 13.2-6 5.9-6.9 4.1-10.8 12.2-1.9 3.9-5.9 3.9-9.8 3.3-5.8-.8-4.3-4.3-6.4-7.6-4.4-6.7-23.9-15.6-19.3-26.2 2.2-4.9 9.7-10.1 15.2-8.2Z" class="outline shading" data-original-prefix="shading" opacity="0.5" style="opacity: 0.5"/><path id="outline-mouth" fill="#000000" d="M1006 1260c.4-2.1 4.7-6.2 6.5-7 2.2-1 1.8 3.9 2.5 5l-.5 19c-9.8 6.8-19.7 13.6-29 21-10.5 8.4-26.4 21.1-35.5 30.4-3.6 3.7-.7 4.6 2.7 7.3 14.2 11.7 34.2 18.3 52.3 20.2 1.2 1.2-6.6 10.7-4.8 13.8l23.5 23.1c1.5.3 18.4-18.6 21.4-21.5.8-.8 2.6-1.3 2.8-1.6 1.8-3.1-6-12.7-4.8-13.8 18.1-1.9 38.1-8.5 52.3-20.2 3.3-2.8 6.3-3.7 2.7-7.3-9.1-9.4-25-22-35.6-30.4-9.3-7.4-19.2-14.2-29-21-1.1-1.8-.6-15.7-.5-19 0-1.1-.9-6 1.5-5 2.1.9 6.1 6.1 7.5 7-1.8 1-1 3.4-.5 5 3.8 10.3 55.3 44.8 67.4 54.6 1.8 1.5 8 6 8.6 7.4 2.3 5.4-.6 18.1-.5 24.5 0 4.3 3.4 17.4 1.1 20-1 1.1-12.4 6.6-15.3 8.7-15.1 10.7-26.8 28.3-34.7 44.8-1.5.4-1.7-.4-2.5-1-5.2-3.6-23.3-26.5-26.1-26.9-5.3 3.9-11.8 6.3-12.4 13.4-1.2 13 1 27.8 0 41.1l3.1 42.5 34.4-35.1 2.9-.9c13.6 15 26.1 31.3 40.1 46 1.3 1.4 9.3 10.1 10.5 9 3.5-11.2 11.6-21.6 18.2-31.3 19-27.8 40.6-53.8 59.3-81.7.8-.7.7-1.5 1.5-.4 7.1 9.4 13.4 20.9 20.5 30.4l17.6-43.4-157.1-108.6 2-3c36.8 19.5 75.4 39.4 110.9 61.6 21.2 13.3 40.5 29.5 61.9 42.6.6 1.1.2 2.9 0 4.2-.7 7.6-9.9 31.6-13.2 39.9s-7.1 16.1-11 24l-44.5 161.6c.4 12.4 9.3 27.7 9.8 39.7.3 6.8-1.7 25-3.2 31.9-.4 2.2-1.7 6.3-3 8-1.2 1.6-15.8 8.4-19.4 10.6-24.6 15-45.2 35.2-72.5 46.5-40.8 16.9-104 16.8-144.7-.3-27-11.3-47.4-31.4-71.8-46.2-3.6-2.2-18.2-9.1-19.4-10.6-1.3-1.7-2.6-5.8-3-8-1.4-6.9-3.5-25.1-3.2-31.9.6-12.2 9-27.1 9.8-39.7-13.1-46.2-25.7-92.7-39.3-138.8-2.2-7.3-3.2-16.5-5.7-23.3s-7.5-14.1-10.5-21.5c-5.5-13.7-9.1-28.1-14.2-41.9-.3-1.7 0-3.3 1.4-4.4 24.1-15.7 46.6-33.8 71.2-48.8 32.3-19.7 66.7-38.2 100.3-55.2l3 3-157.1 108.6 17.6 43.4c7.1-9.6 13.4-21 20.5-30.4.8-1.1.7-.3 1.5.4 18.8 27.9 40.3 53.9 59.3 81.7 6.6 9.7 14.7 20.2 18.2 31.3 1.2 1.1 9.2-7.6 10.5-9 14-14.6 26.5-30.9 40.1-46l2.9.9 34.4 35.1 3-42.5c-1-13.2 1.2-28.1 0-41.1-.7-7.1-7.1-9.5-12.4-13.4-2.8.5-21 23.4-26.1 26.9-.8.6-1 1.4-2.5 1-7.8-16.5-19.6-34.1-34.7-44.8-3-2.1-14.3-7.5-15.3-8.7-2.3-2.6 1-15.7 1.1-20 0-6.4-2.8-19.1-.5-24.5.6-1.5 6.8-5.9 8.6-7.4 11-9 62.9-44.3 66.1-52.9 1.1-2.8.4-4.5.8-6.7zm-131 321c0-2.1.2-4.3 0-6.5-2.8-34.8-10.2-71.8-14-107-1.1-10.4-.9-21.8-2.1-31.9-.6-5-3-8.1-6.4-11.6-2.6 2.6-5.7 5.5-5.6 9.5 6.2 38.7 7.2 79.6 17.8 117.3 2.5 8.9 5.6 18.7 8.6 27.4.4 1.1.2 3 1.7 2.8m297-1c2.2.4 2.4-1 3-2.5 18.1-45 18.6-96.5 26.1-144 0-3.9-3-6.9-5.6-9.5-9.1 8.1-6.3 22-7.5 33.5-4.2 40.9-9.7 81.9-16 122.5m-329-141c-2.3-.6-1.7.6-2.3 1.3-.9 1.1-3.3 4.1-3.8 5.2-3.1 7 3.3 23 4.4 30.8l5.7 15.8-4-53Zm364 0s-2.1-.4-2 .5l-4 52.5 5.7-15.8c1.6-5.9 6.4-24.5 5-29.5 0-.4-4.4-7.4-4.8-7.7zm-304 162c-3.2-38.4-5.1-76.9-7-115.5-8.9-13.4-17.5-27.3-28-39.5l17 142c12.5-10.9 10.9 6.7 18 13m260-13 17-142c-10.4 12.2-19 26.1-27.9 39.5l-3.1 63.9-4 51.5c7.1-6.3 5.5-23.9 18-13Zm-163 49c-.2-18.5.3-37 0-55.5-.2-20.4-1.3-41.5-2.1-61.9-.2-4.7 1.2-12.4.8-15.9-.5-4-16.2-16.4-19.2-20.6l-11 14c-.3 20.3 1.8 41.1 2.5 61.4s.6 41.1 1 61.5c2 .8 4.2-3.5 5-3 .2.2 1.2 4.1 3 4.5zm76-17c.4-20.5.2-41.1 1-61.5.3-8.9.7-18 1-27 .2-6.2 3.3-30.6 1.5-34.4-1.5-3.2-8.9-10.1-11-14-3 4.2-18.8 16.6-19.2 20.6-.4 3.5.9 11.2.8 15.9-.8 20.4-1.8 41.5-2.1 61.9-.2 18.5.2 37 0 55.5l20-15.5c1.8-.5 2.8-4.4 3-4.5.8-.5 3 3.8 5 3m-168.3-120.7c-.4-.4-2.6-1.5-2.7-1.3 3.4 40.1 5.8 80.3 9 120.4l12.9 21.1c1.7 1.4 6.8 12.1 8.5 11.4 6.6-2.4 2.7-21.7 2.5-27.4-.5-21-1.3-42.1-2-63-.4-10.5.5-21.1-1-31.5-3.3.2-4.2 1.9-7.1-.4-6.5-5.3-13.2-23-20.3-29.2h.2ZM1114 1651l20-32.6 9.1-120.4c-.2-.3-2.5 1.3-3 1.8-6.8 6.7-13.7 23.7-19.9 28.8-2.9 2.4-3.8.6-7.1.4-1.9 21.8-1.3 43.7-2 65.5-.4 15-3.5 35.6-2.1 50 .3 3.2 1.2 6 5 6.4Zm-151-144-3.6.9-15.4 18.6c-.3 38.2 2.9 76.2 2 114.5 1.1 1.3 17.1-12.3 19-13.7 0-40.2-2.7-80.1-2-120.3m139 134c-.9-38.3 2.3-76.2 2-114.5l-15.4-18.6-3.6-.9c-.3 15.5.4 31 0 46.5 0 2.4-1 4.6-1.1 6.9-.5 22.3-.6 44.6-1 66.8 1.9 1.4 17.9 15 19 13.7Zm-60-131-18.3 16.9-17.6-16.9c.7 44.6 3.8 88.9 4 133.5.4 2.5 12.5 11.2 13.7 11.4 1.4.2 13.8-8.9 14.3-11.4 1.3-6.8-.3-19.3 0-27 .4-11.5 1.2-23.4 2.1-34.9l1.9-71.5h-.1Zm-112.9 165.9-39.6-64.9c-2.7 4.3-15.7 16.7-16.5 20.5-.5 2.3 0 6.3 0 8.8.5 6.2 3.4 24.2 5.1 29.9 2.2 7.3 14 10.2 20.1 13.9 44.8 27.9 79.7 46.3 135.2 43.8 47.1-2.2 77.9-20 116.2-43.8 6.1-3.8 17.8-6.6 20.1-13.9 1.7-5.7 4.6-23.7 5.1-29.9.2-2.5.6-6.5 0-8.8-.7-3.8-13.8-16.2-16.5-20.5l-40.1 65.1-48.9-32.8-45.1 37.7-45.8-37.7c-6.8 2.2-46.8 34.1-49.4 32.6Z" data-original-prefix="outline" class="outline"/>
    </g><g class="trait-group" data-category="eyes" id="eyes-half-robo-righty">
      <defs/><g id="fill-eyes" class="fill" fill="#ffffff"><path id="fill-eyes1" d="m1054 1254-3-1c-9.1-14.2-22.5-28.8-19-47-6.2 2.2-8.8 2.2-15 0 2.1 7.1-.6 14.6-3.2 21.3-4.2 10.6-11.3 17.3-15.8 27.7-1 2.4-21.3 14.4-24 19-5.7-.5-4.6-14.6-3.5-18 1.9-6.5 14.5-14.8 19.7-19.3 1-.8 2.5 0 1.9-2.6-19.9 5.8-42.2 16.9-63.4 14.9-44-4.3-65.6-34.1-99.3-57.7-29.2-20.4-60.3-33.7-94.5-43.4-9.1-2.6-18.3-5.3-27.8-5.7 0 5.4-1 10.7-2 16l-11-7c.7-4.8 3.5-13.8 1.5-18-.8-1.7-11.6-6.7-14.2-7.8-2.8-1.3-9.1-2.1-9.3-5.6 1.1-6 .9-11.1 2.9-17.1 2.7-8.4 9.1-21.6 13.2-29.8 2.6-5.3 24-44.7 26.5-45.5 1.2-.4 10-1.2 11.8-1.2 8.8 0 25.1 1.7 34 3.1 3.3.5 19.8 5.8 20.5 5s-.2-2.5-1-3.4c-1.5-1.7-7.4-5.7-9.6-7.4-8.7-6.3-18.9-11.6-28.3-16.7-2.1-2.2 1.8-10 3.2-12.9 12.3-27 67.2-72.8 92.9-89.1 39.3-24.7 117-56.6 163.5-52.6 9 .8 8.5 1.7 10.2 9.8 10.6 53 3.3 103.7 7.3 155.7 1 12.7 6.9 28.2 9.5 41.5 1.2 6.3 1.2 14.7 2.7 20.3.8 2.7 33.2 34.3 38.8 41.2 2.7 3.5 9 8.9 5.4 12.3-7 6.6-18.9 12.6-26.4 19.6-5.5 5.1-6.4 7.2-6 15 1.3 22.1 7.6 46.6 10 69 .6 5.8-.8 11.8 1 17.5h-.2Zm-74-71c.6-.7-2.6-9.6-3.2-11.2-4.5-12.4-18.8-50.9-28.2-57.8-19.4-10.7-39.9-20-59.2-30.8-14-7.9-26.5-19-42.3-23.2-1.4 1.4 6.9 7.5 8.1 8.4 27 20.7 64.8 41.2 87.9 66.1 11.7 12.6 20.2 32.4 33.8 46.2 1 1 1 2.8 3.2 2.3Zm13.5 50v1c.7-.3.7-.7 0-1" class="fill" fill="#ffffff"/><path id="fill-eyes2" d="M1219 1075c.7.9-.6 2.5-1.7 2.8-42.2 21.9-82.5 46.9-122.4 72.6-7.2 4.7-14 7.4-20.6 13.3-.7.6-1.9 0-1.3 2.3 6.3-.4 12.5 2.6 18.7.2 42.8-22.6 85.2-50 128.2-71.8 5.4-2.8 12.1-7.1 18.3-5.5.7.2 5.7 10.6 6.2 12 3.4 10.8.7 39.2-.5 51.5-.5 5.2-2.8 27.3-5.3 30.2-35.1 21.9-70.1 45.5-106.7 64.8-6.2 3.2-31.2 16.8-36.3 15.3-1.1-.3-18.2-13.5-18.8-14.5-1.3-2.2-1.5-15.3-2.1-19.6-2.1-14.3-6.2-39.9-11.1-52.9-2.1-5.6-7.2-7.6-2.8-14.3 6.1-9.2 23.8-17.4 30.4-25.6 9-11.1-5.5-26.6-12.5-35.4-6.1-7.7-13-15.1-19.5-22.5-1.7-1.9-5.8-4.6-6.6-5.7-7-10.5-9.2-38.8-16.7-51-2-45.9-2.3-92-6.2-137.8-.9-10-3.6-21.4-4-31-.2-5.5 4.8-5.1 9.5-5.5 7.5-.6 18.4.3 26 1 8.6.8 49.3 7.1 54 12 2.2 2.4 10.4 23.9 12.3 28.7 21.1 53.7 37.4 110.5 54.3 165.6 2.1 4.4 4.3 7 8.6 9.4s27.4 10 28.3 11.2zm-82.7-74.3c14.5 14.5 30.6-9.6 16.7-24.2-15-15.8-31.6 9.3-16.7 24.2m80.4 112.5c-19.9 3.2-22.9 35.3-5.3 42.8 22.2 9.5 37.6-23.8 19.6-38.6-4.6-3.8-8.2-5.2-14.3-4.2" class="fill" fill="#ffffff"/><path id="fill-eyes3" d="M1304 997c-19.9 9.6-39.8 19.5-58.9 30.6l-10.1 7.4c33.3-6.7 65.4-18.5 97.7-28.8l5.3.3c13.2 25.4 27.6 50.3 39.8 76.2 4 8.4 14 27.4 15.7 35.4 1.5 7-5.3 14.7-5.5 22-15.1-5.3-30.3-11-46.5-12.1-31.4 4.4-56.7 28.5-84.5 42.1 3.1-30.5 4-61.7 2.1-92.3.3-1 13.6-8 15.9-9.2 12-6.4 49.8-21.7 56.9-29.1 5.5-5.7 6.8-17.4 3.6-24.4-2-4.4-3.5.5-5.2 2-3.5 2.9-8.6 5.9-12.6 8.2-26.4 15.2-55.8 27.5-82.4 42.7-11-.9-38.1-9.2-42.8-19.8-17.9-62.1-32.6-125.8-62.5-183.5 17.6 4.7 34.7 13.6 50.7 22.3 38.6 21.1 80.5 54.4 109.3 87.7 5.7 6.5 11.3 14.2 14 22.5zm-107.3-.8c-18.3 3.8-6.9 35.8 10.8 37.8s19.9-11.1 13.3-24.3c-4.6-9.4-13.2-15.7-24.1-13.4Zm84.1 78c-22 1.8-22.5 38.8-1.2 41.7 30.4 4.2 25.9-43.7 1.2-41.7" class="fill" fill="#ffffff"/><path id="fill-eyes4" d="M1362 1161c0 2.2-1 4.2-1 6.4-1.2 35.4-3.5 74.2-10 109-.8 4-6.8 7.9-10.3 9.7-19.6 10.1-45 15.8-65.4 24.6-8.4-.8-16.6-5.6-25.2-6.8l45.7-24.8 42.8-27.2c5.3-24.3 11.5-50.7 13.5-75.5.3-4.2-.8-11.5.2-14.8.9-3 7.2.4 9.8-.7Z" class="fill" fill="#ffffff"/><path id="fill-eyes5" d="M1222 1222c7.7 33.2-25.2 64.8-57.3 45.8-3.4-2-13.9-10.2-9.1-13.7l66.3-32.1Z" class="fill" fill="#ffffff"/><path id="fill-eyes6" d="M1254 1317c.3 1.4-1 1.1-2 1.5-17.2 7.2-37.3 10.2-54.7 17.3-13.6-3.2-29.5-4.9-42.5-10-10.8-4.3-18.9-17.1-25.5-26.5-1.5-2.1-11.2-15.1-10.2-16.3 18.1 12.5 38.1 24.4 58.3 33.2 6.4 2.8 17.1 8 24 6.6 7.6-1.8 24.6-11.4 31.3-11.7 5.5-.2 15 6.6 21.4 6h-.1Z" class="fill" fill="#ffffff"/><path id="fill-eyes7" d="M1215.7 1121.2c15.9-3.7 18.7 19.1 7.2 25.2-15.7 8.3-22.2-21.8-7.2-25.2" class="fill" fill="#ffffff"/><path id="fill-eyes8" d="M1142.7 979.2c10.6-2.2 13 20.8.6 16-8.1-3.1-8.9-14.3-.6-16" class="fill" fill="#ffffff"/><path id="fill-eyes9" d="M1278.7 1083.2c16.1-3.6 21.2 26.1 4.8 24.8-11-.8-15.1-22.5-4.8-24.8" class="fill" fill="#ffffff"/><path id="fill-eyes10" d="M1209.7 1009.3c5 5 8.1 19.1-2.1 17.7-5.7-.8-14.5-16-10.1-20 3-2.7 9.6-.2 12.2 2.4Z" class="fill" fill="#ffffff"/></g><g id="shading-eyes" class="shading" fill="#aaaaaa" style="opacity: 0.5" opacity="0.5"><path id="shading-eyes1" d="M1031 842c6 39.3 9.9 78.9 13 118.5 1.7 21.2.3 49.7 4.2 69.8 1 5.1 13.1 35.5 15.9 40.1 4.2 6.8 17.3 20.4 23.3 26.7 3.4 3.6 7.1 6.9 10.5 10.6l87-47.6c-11.8-42.8-21.5-86.3-34.7-128.8-3.8-12.4-7.7-26.7-12.5-38.5-2.2-5.3-11.8-20.8-10.6-25 1.4-4.8 7.8-4 11.6-3 6.9 1.8 23.3 10 30.5 13.5 59.3 28.6 111.6 70.3 150.6 123.4.4 1.6-1.3 2-2.3 2.6-16.3 10.7-39.9 15.3-57.9 22-37.4 14-80.1 43.1-113.7 65.3-13.9 9.2-31.8 20.1-44.1 30.9-12.8 11.2-23.3 25.8-37.5 36.5-1.9 1.5-6.7 2.9-7.3 4.7-1.8 5.3 1.2 12.1 1.7 16.9 1.6 16 2.5 32.2 6.1 47.9 1.3 1.3 19.8 4.4 22.6 4.5 15.6.3 62.5-28 77.8-37.2 17.1-10.3 33.8-21.2 49.7-33.3-8.3-4.4-13.7-13.2-13.6-22.8 0-3.6 1.4-14.1 6.1-13.7s3 5.4 4 8.1c6.4 16.8 15.5 5.7 24.9-1 6.3 3-2.7 9.4 3 10.9l35.6-24.4c-9.6-5.5-13.2-17.8-8.7-27.7 2.1-4.7 8.6-9.8 8.8-2.8l3-1c-.8 5.4.7 12.4 6.7 13.8 9.4 2.1 11.9-6.7 12.8-6.8 4.2-.7 4 6.3 7.1 6.9 1.2.2 14.5-5.1 18.1-5.6 9.6-1.3 20.7 2.9 30 5.5 20.3 5.7 40.1 13.2 60.2 19.3-5.9 7.6-12.8 14.2-19 21.5-2 2.4-10.3 14.9-11.2 15.4-.6.3-11.6-3-13.9.8-1 1.7-2.6 15.6-2.9 18.8-1.2 11.3 3 13.7-13 10.5-1.5 19.9-1.2 45.2-7.3 64.2-2.4 7.6-15.3 14.4-22.2 18.8-16.6 10.7-35.3 21.2-53.2 29.9-2.4 1.2-6.8 1-3.1 3.4 1.1.7 14 6.1 12.7 7.8-4.8.6-9.7 4.9-14.5 4.8-6.6 0-15.1-5.6-21.8-6.7-13.2 4.5-28 14.3-41.2 17.9-3.1.8-4.5 1.3-7.8.7-8.5-1.4-31.4-12.5-40.4-16.6-8.3-3.8-28.5-12.1-34.7-17.3-3.8-3.2-5.6-12.1-6.6-16.8 1.5-.4 2.3.3 3.6.9 7.6 3.6 16.8 10.9 24.8 15.2 15.9 8.6 33.2 16.6 50.1 22.8 10-4.2 20.3-7.5 30.2-11.8 11.7-5 24.3-13.1 36.1-16.9 17.5-5.8 29.4-10 45.9-19.1 5.5-3 29.2-16.5 31.1-20.9 3-23.1 8.9-47.6 10.2-70.8.3-4.9.8-16.7 0-21-.2-1.2-.3-1.9-1.6-2.4-1-.3-18-1.3-19.8-1.1-23.9 2.9-58.3 26.7-79.5 39.5-24.8 15-49.3 32.6-74.4 46.6-15.4 8.5-38.6 16.1-52 25-3.2 2.1-13.9 14.2-15.3 14.7-2.8 1-8.1-.4-11.3.2l2 2c-2 .4-4 1.7-6 .5-15-13-32.2-23.6-46.4-37.6-2.1-2-7.7-10.5-9.6-11.4-.4-.2-7.8-.5-8.5-.4-1.7.2-18.5 18.8-22.1 21.9-11.2 9.8-24.4 17.5-35.5 27.5-7 .9-11-.9-8-8.5-3.2.6-7.2 1.4-10.3 0-1.2-.5-.8-2.5-1.7-3.5-4.4-5.5-44.3-18.6-54-26-2.2-1.7-2.9-4-4.6-5.4-24.5-21-57.2-47.6-85.8-62.2-24.6-12.5-56.8-16.6-83-25.8-1.3-.7 0-3-2.2-5-6.2-5.1-24.3-13.4-32.3-17.7-2.8-1.4-11.6-3-8-5.9 3-2.3 3-1.2 5.7-5.3 2.5-3.9 11.5-24.8 13.2-25.8l32.3-.3c21.9 12.7 45.2 24.8 66.2 38.8 26.5 17.5 50.2 38.9 77.6 56.4 16.9 10.8 76.4 47.6 93.4 47.7 8.9 0 27.9-4.5 37.1-6.9 2.6-.7 14.2-3.6 15.4-4.6s1.9-9.3 3-11.5c1.8 1.1 1.6 4.3 3.2 6.3.9 1.1 1 2.1 2.8 1.7.3-9.2 13.6-19.1 14.8-26.8 1.1-6.6-2.9-18.5-2.9-25.7 0-13.3 23.8-27.1 30.1-38 .2-1.7-7.6-30.6-8.6-32.4-3.9-7.5-14.3-10.7-19.2-21.8-21.6-49.7-15.4-119.9-18.2-173.8l-3.9-52.3c4.7-1.4 8.6-5.5 13.8-5.2zm195 184c6.9-6.9 12.3-19.7 11.9-29.4-.2-3.6-10.3-22.9-12.8-27.2-10.6-18.7-27.1-40.5-41.7-56.3-3.2-3.4-33.5-33-36.5-30 6.5 19 13.3 38 19.3 57.2 7.4 24.2 12.7 49 20 73 1.8 5.9 8.9 30.3 14.4 31.6 1.1.3 4.9-.4 4.3-2.3 0-.3-4-2.8-5.4-4.6-3.8-4.8-8.2-17.5-7.7-23.4 0-1.2 2.8-8.2 3.7-8.5 7.2-2 6.8 12.4 13.3 14.5 7 2.2 6.6-2.4 9.8-3.4 5.8-1.8 6.7 4.4 7.3 8.8Z" class="shading" fill="#aaaaaa" style="opacity: 0.5" opacity="0.5"/><path id="shading-eyes2" d="M944 857c-12 12.5-28.8 18.1-42.9 27.6-28.5 19.1-59.8 58.6-76.3 88.7-7 12.8-12.9 22.3-8.1 37.5 2.8 8.8 20.7 32.2 28.4 37.6 15.4 10.9 44.6 22.4 62.6 32.4 10.9 6.1 45.1 24.2 51.9 32.1 11 12.9 19.5 38.4 30.5 52.5l3.9 30.6c-11.1-4.1-13.9-15.1-19.8-23.7-18.8-27.6-31.2-44.4-57.8-65.2-49.4-38.7-98.8-60.1-157.2-81.8-6.1-2.3-27.8-7.2-31-10.5-3.7-3.8 2.8-11.1 5.3-14.7 30-42.5 74.2-80 119.1-105.9 28.3-16.3 59-30.7 91.3-37.2Z" class="shading" fill="#aaaaaa" style="opacity: 0.5" opacity="0.5"/><path id="shading-eyes3" d="M1142 979c-2.3 6.1 1.4 14.8 8.8 11.2 3.7-1.8 1.7-6.3 6.2-5.3 0 7.2 5.6 15.4-1.5 21-10.3 8.2-22.1-5.1-22.6-15.6-.2-4.7 3.2-13.4 9-11.5v.2Z" class="shading" fill="#aaaaaa" style="opacity: 0.5" opacity="0.5"/><path id="shading-eyes4" d="M947 856c.7.3-.6 1.7-2 1-.7-.3.6-1.7 2-1" class="shading" fill="#aaaaaa" style="opacity: 0.5" opacity="0.5"/></g><g id="outline"><path id="outline-eyes" d="M694 1151c-.2 1.5 1.1 5.7-1.5 5-6.5-1.9-15.5-9.2-22.6-11.4-6.1-2-16.8-1-21-3-4.5-2.2-4.2-10.7-3.9-14.9 2.7-30 21.3-76 37.5-101.5 4.4-7 19.4-29.5 26.4-31.7 3.4-1.1 5.6 2.8 8 1.2.5-.3 4.6-7.4 6-9 38.5-46.1 83.9-85.9 136.7-115.3 39.2-21.8 83.5-28.2 127.8-32.2 2.8-.3 19.7-.3 20.5-1.1s.9-6.7 4-8.4c2-1.1 19.7-.7 23.5-.5 100.4 4.5 194.6 55.2 263 127 9.5 10 17.4 22.3 27.8 30.8 3.6-1 11.1-6.3 14.2-3.9 26.1 40.1 56.3 78.7 74.6 123.4 2.2 5.4 6.8 14.5 5.8 20.1-6.7 13.2-18.3 24.2-20.1 39.4-9 .8-17.9-1.3-26.9-1.9l-13.5 126c-32.4 14.9-66.4 25.2-100 37-14.8 5.2-52.9 22.5-66 22.1-12.2-.4-33.9-5-46.7-7.3-12.3-2.3-18.4-3.7-25.6-14.4-8.6-12.8-15.1-29-23.3-42.2-5.1 1.8-13-1-17.6-3.8-3.6-2.2-24.4-20.7-26.3-23.7-.7-1-.6-1.6-.9-2.5-1.8-5.7-.4-11.7-1-17.5-2.4-22.4-8.7-46.9-10-69-.4-7.8.5-9.9 6-15 7.5-7 19.3-13 26.4-19.6 3.6-3.4-2.7-8.9-5.4-12.3-5.5-7-38-38.5-38.8-41.2-1.5-5.6-1.5-14-2.7-20.3-2.6-13.2-8.5-28.7-9.5-41.5-4-52 3.2-102.7-7.3-155.7-1.6-8.1-1.2-9.1-10.2-9.8-46.5-4-124.2 27.9-163.5 52.6-25.8 16.2-80.6 62.1-92.9 89.1-1.3 2.9-5.3 10.6-3.2 12.9 9.5 5.1 19.6 10.4 28.3 16.7 2.2 1.6 8.2 5.7 9.6 7.4.8.9 1.8 2.7 1 3.4s-17.2-4.5-20.5-5c-8.9-1.4-25.2-3.1-34-3.1s-10.6.8-11.8 1.2c-2.5.8-23.9 40.1-26.5 45.5-4 8.2-10.4 21.4-13.2 29.8-1.9 6-1.8 11.1-2.9 17.1.2 3.5 6.5 4.2 9.3 5.6 2.5 1.2 13.3 6.2 14.2 7.8 2 4.2-.8 13.2-1.5 18zm525-76c-.9-1.2-24-8.8-28.3-11.2s-6.4-5.1-8.6-9.4c-17-55.2-33.2-111.9-54.3-165.7-1.9-4.8-10.1-26.3-12.3-28.7-4.6-4.9-45.4-11.2-54-12-7.6-.7-18.6-1.7-26-1-4.7.4-9.7 0-9.5 5.5.4 9.7 3.2 21.1 4 31 4 45.7 4.3 91.9 6.2 137.8 7.6 12.2 9.7 40.6 16.7 51 .7 1.1 4.9 3.8 6.6 5.7 6.5 7.4 13.4 14.8 19.5 22.5 6.9 8.8 21.5 24.3 12.5 35.4-6.6 8.1-24.3 16.3-30.4 25.6-4.5 6.7.6 8.6 2.8 14.3 4.9 13 8.9 38.6 11.1 52.9.6 4.3.8 17.4 2.1 19.6.6 1 17.7 14.2 18.8 14.5 5.1 1.5 30.1-12.1 36.3-15.3 36.6-19.3 71.6-42.9 106.7-64.8 2.4-2.9 4.8-25 5.3-30.2 1.2-12.3 3.9-40.7.5-51.5-.5-1.5-5.5-11.9-6.2-12-6.3-1.5-12.9 2.8-18.3 5.5-43 21.8-85.4 49.2-128.2 71.8-6.2 2.3-12.5-.7-18.7-.2-.7-2.3.6-1.7 1.3-2.3 6.7-5.9 13.4-8.7 20.6-13.3 40-25.6 80.3-50.6 122.4-72.6 1.1-.4 2.3-1.9 1.7-2.8h-.3Zm85-78c-2.7-8.3-8.3-16-14-22.5-28.9-33.2-70.8-66.5-109.3-87.7-15.9-8.7-33.1-17.6-50.7-22.3 29.9 57.7 44.6 121.4 62.5 183.5 4.7 10.6 31.8 18.9 42.8 19.8 26.6-15.1 56-27.5 82.4-42.7 4-2.3 9.1-5.2 12.6-8.2 1.8-1.5 3.2-6.4 5.2-2 3.2 7 1.9 18.7-3.6 24.4-7.1 7.3-44.9 22.7-56.9 29.1-2.3 1.2-15.6 8.2-15.9 9.2 1.9 30.7 1 61.8-2.1 92.3 27.8-13.6 53.1-37.7 84.5-42.1 16.2 1 31.4 6.8 46.5 12.1.3-7.3 7-15 5.5-22-1.7-7.9-11.7-26.9-15.7-35.4-12.3-25.9-26.6-50.8-39.8-76.2l-5.3-.3c-32.3 10.2-64.4 22.1-97.7 28.8l10.1-7.4c19.2-11.1 39-21 58.9-30.6zm58 164c-2.7 1.1-8.9-2.4-9.8.7-1 3.3.2 10.7-.2 14.8-2 24.8-8.2 51.2-13.5 75.5l-42.8 27.2-45.7 24.8c8.7 1.2 16.8 6 25.2 6.8 20.5-8.8 45.8-14.6 65.4-24.6 3.5-1.8 9.5-5.7 10.3-9.7 6.5-34.8 8.8-73.6 10-109 0-2.2 1-4.2 1-6.4Zm-140 61-66.3 32.1c-4.8 3.5 5.7 11.7 9.1 13.7 32.1 19 64.9-12.6 57.3-45.8Zm32 95c-6.4.6-15.9-6.2-21.4-6-6.7.3-23.7 9.9-31.3 11.7-6.8 1.4-17.5-3.8-24-6.6-20.2-8.8-40.2-20.7-58.3-33.2-1 1.2 8.7 14.2 10.2 16.3 6.7 9.4 14.7 22.2 25.5 26.5 13 5.1 28.9 6.8 42.5 10 17.4-7.1 37.5-10.1 54.7-17.3.9-.4 2.3 0 2-1.5h.1Z" class="outline" fill="#000000"/><path id="outline-eyes1" d="M705 1158c1-5.3 1.9-10.6 2-16 9.4.4 18.7 3.2 27.8 5.7 34.2 9.8 65.4 23.1 94.5 43.4 33.8 23.6 55.2 53.4 99.3 57.7 21.2 2 43.4-9.1 63.4-14.9.7 2.6-.9 1.8-1.9 2.6-5.2 4.6-17.8 12.9-19.7 19.3-1 3.5-2.2 17.5 3.5 18-.2.4 0 2-.9 3.5-1.2 1.9-12.3 12.9-14.1 13.9s-15.2 3.3-15.9 2.6c-.6-.9 4.6-11.1.5-10-4.8 1.3-14.1 8.4-18.4 11.6-7.9 5.9-18.1 18.3-26.9 20.1-20.8 4.2-78.1 1.4-97.9-6.6-9.2-3.7-23.3-10.2-32-14.9-.8-.5-2.9-.9-1.3-2.2 1-.8 21.5.6 24.4 1.1 5.2.8 9.5 3.6 14.3 4.7 1 .2 4.4 1.1 4.2-.8-5.2-1.1-9.9-4.1-15-5.5-13-3.8-37.7-5-48-11.1-2.1-1.3-22.7-23-25.6-26.4-7.2-8.4-10.3-14.7-13.8-25.2s-9.4-28.8-10.7-37.3c-.3-2.3 0-4.6 0-6.9.7-5.3 9.8 9.8 10.4 10.6.4.5 1.1 3.7 2.6 1.9 1.7-2-9.5-16.9-9.8-18.7-.2-1 4.1-17 4.8-20.3h.2Z" class="outline" fill="#000000"/><path id="outline-eyes2" d="M998 1255c4.5-10.4 11.6-17.2 15.8-27.7 2.7-6.7 5.3-14.1 3.2-21.3 6.2 2.2 8.8 2.2 15 0-3.5 18.2 9.9 32.8 19 47-.8 1.5-5.8 7.1-7 6-1.1-5.5-8.1-8-12-12.5-1.9-2.2-4.8-9-5.2-9.3-1.2-1-4.2-.5-5.2 1.1-2 3.3-2.8 6.2-5.7 9.3-3.5 3.7-10.7 6.2-11 11.5-3 .3-3.7-3.9-7-4Z" class="outline" fill="#000000"/><path id="outline-eyes3" d="M980 1183c-2.2.5-2.2-1.3-3.2-2.3-13.6-13.8-22.1-33.7-33.8-46.2-23.2-24.9-61-45.4-87.9-66.1-1.2-.9-9.5-7-8.1-8.4 15.8 4.1 28.3 15.3 42.3 23.2 19.3 10.8 39.8 20.1 59.2 30.8 9.5 6.9 23.8 45.3 28.2 57.8.6 1.7 3.9 10.5 3.2 11.2Z" class="outline" fill="#000000"/><path id="outline-eyes4" d="M1216.7 1113.2c6.1-1 9.7.5 14.3 4.2 18 14.8 2.6 48.1-19.6 38.6-17.6-7.6-14.6-39.6 5.3-42.8m-1 8c-14.9 3.4-8.4 33.6 7.2 25.2 11.5-6.2 8.7-28.9-7.2-25.2" class="outline" fill="#000000"/><path id="outline-eyes5" d="M1136.3 1000.7c-14.9-14.9 1.8-40 16.7-24.2 13.9 14.6-2.2 38.7-16.7 24.2m6.4-21.5c-8.4 1.8-7.5 12.9.6 16 12.4 4.8 10.1-18.3-.6-16" class="outline" fill="#000000"/><path id="outline-eyes6" d="M1280.8 1074.2c24.7-2 29.2 45.9-1.2 41.7-21.3-2.9-20.8-39.9 1.2-41.7m-2.1 9c-10.3 2.3-6.2 24 4.8 24.8 16.4 1.2 11.3-28.5-4.8-24.8" class="outline" fill="#000000"/><path id="outline-eyes7" d="M1196.7 996.2c10.9-2.2 19.5 4 24.1 13.4 6.5 13.2 3.8 26.2-13.3 24.3s-29.1-34-10.8-37.8Zm13 13.1c-2.6-2.6-9.2-5.1-12.2-2.4-4.4 4 4.4 19.2 10.1 20 10.2 1.4 7.1-12.7 2.1-17.7Z" class="outline" fill="#000000"/></g>
    </g><g class="trait-group" data-category="right ear" id="right ear-scruffy">
      <path id="fill-ear-rt" fill="#ffffff" d="m1784.9 111.1 8.9 47.1c-1.6 8.1-27.6 42.2-26.9 47.1l45.9 34.9c.9 1.7-1.2 17.6-2.8 19.3-2.4 2.5-13.3 4.9-17.3 6.6-7.9 3.5-15.2 8.1-23.2 11.8-.9.4-1.8-.6-1.4 1.6.2 1.2 9.2 9.4 11 11 5.3 4.7 30.2 23.1 31.6 27.5 1.1 3.6-8.8 16-12.3 16.8-14.9.1-29.9.5-44.8.3-8.6-.2-17.1-4.4-23.4 4.5l30 13c1.4 1.4 1.4 16.5.8 18.8-1.4 4.9-45.5 35.5-51.8 42.2-34.4 70.8-50.5 148.5-73.4 223.6l-71 103c-20.4 15.2-41.8 29.5-63.5 43-.3 2.4 0 1.6 1.4 2.1 4.4 1.6 23.6 7.5 27.3 7.6 5.6.2 14.7-5 20.8-5.5.9.2 9 14.3 9.4 15.6 1.3 4.9-6.8 20.9-10.3 25.3l-63.5 36.5c12.4 5.7 31.3 5.6 43.2 10.8 1.2.5 2.9 1.6 2.7 3.1l-34 41.1c-6.6 2.8-54.8 6.2-56.5 8.5-2.1 2.9 8.3 43.8 8.6 50.6-.2 1.7-11.9 10.9-13.7 11.3-4.6 1-27.2-11.6-33.8-11.8l-84 18.1c-13.7-4.9-41.2-5.1-52.8-12.2-4.3-2.6-3.2-5.8-4.9-7.6-1.9-2.1-19.5-7.9-24.1-10.4-7.4-4.1-17.6-12.1-24.6-17.4-16.5-12.4-27.2-21-37.6-39.4-3.5-6.2-15.6-31.6-15.6-37.5 0-4.5 9.9-22.1 12.6-27.5 22.8-45.2 48-89.3 70.1-134.9 4.2-64.6 5.7-129.1 11.6-193.4L1369 380.6l7.6-7.4c122.7-81.3 247.3-160.1 371.9-238.1 3.4-3.7 15.1-23 17-24 2.1-1 16.1 1.7 19.9.7Z" class="fill" data-original-prefix="fill"/><path id="shading-ear-rt" fill="#aaaaaa" d="m1766 307-13.8-6.8-22.2-6.7c8-13.4 11.1-32.6 26.3-39.7l19.7-9.8c-17.4-4.1-35.6-5.7-53-1-.6-20.3 4.4-33.7 15.6-49.9 4.2-6 15.7-17.8 17.9-23.1 5.5-13 6.2-36.7 10.1-51 1.5-5.2 12.7-3.7 17.4-4.1.5 7.8.8 15.6 1 23.5 0 1.9 1.1 3.9 1.1 6 0 19.1-14.5 35.6-20 52.8l48 36.1c1.3 1.8 1.4 17.3.9 20.1-.2 1.1-.5 1.9-1.6 2.4l-43.8 20.2c-4.3 3.3-.3 6.8 2.4 9.4 9.8 9.5 22.9 17.6 33 27v22.5c-11.8-2.5-23.4-6.9-35.5-8L1739 339l23.5 11 .3 18.4-51.9 26.4c-7.3 22.9-13.5 46.1-20.7 69-13.4 43-25.8 86-38.8 129.2-4.2 14.1-9.2 36-15.7 48.3-18 33.7-47.8 67.1-67.4 100.6l-60.4 42.6c7.8 1.9 20 7.9 27.6 8.4 3.8.3 7.8-2.3 9.7-1.8 3.7 1 8.6 12.2 13.6 13v1.2c-9 14.7-21.1 26.9-32.4 39.7l-38.5 20 30.5 9c0 6.9 2.6 20.9-2 26.1-4 4.5-13.7 13.2-18.5 17.5-7.8 6.8-9.7 8.6-20.5 9.5-5.4.4-40 .6-41.5 2 5 16.9 17.5 32.2 12 50.5-4.3 1.4-12.3 7.5-16.5 7.4-4.6 0-14.7-10.8-22-10.9-25.8 1.5-54.9 12.8-80 14-29.8 1.4-77.7-13.9-102.4-30.6-1.8-1.2-27.4-19.4-26.1-20.4 26.2 7.5 52.4 21.9 80 10.5.9-.4 4.7-1.2 4-3-1.7-4.3-16.7-7.7-21-10 4.9-5 10.1-10 15.5-14.5 3.7-3.1 16.2-13.3 20-14 11-1.9 23.7 4.4 34.4 5.9-.3-2.6-4.1-4.8-6.1-6.4-13.2-10.6-29.5-15.6-44.9-22.1l41.9-23 12.1-15.4c-18.8 2.5-37.2 9.9-55-.5-10.4-6.1-4.8-7.2-2.4-16.5 6.4-25.5 7.4-51.6 12.7-76.3 5.4-25 19.7-38.9 31.9-60.1 20.8-36.1 40.5-79.7 49.6-120.4.7-3.1 3.1-23.2 4.3-24.2 3-2.4 4.4 2.3 5.3 2.9 3.4 2.5 7.1 2.2 9.4 6.9l45.2 5.5c10.2 14.6 18 30.7 26 46.5 17-11.2 16.3-35 26.2-51.3l50.7-57.3c1.3-4.8-9.4-4-12.4-4.4-1.1-.1-2 .4-1.5-1.5.9-3 4.6-8.4 6.2-11.9 7.7-17.2 9.5-25 22.3-39.7 3.6-4.1 11.9-14 16.3-15.7 16.9-6.7 40.4-5 58.2-4.3-6.8-5.8-19.3-16.1-28.4-16s-20.9-.7-29.8 1.3c-7.8 1.7-13.8 7.7-20.7 11.3-7.1 3.7-14.6 6.5-22 9.5l37.5-56c13.4-6.5 35.6-8.6 47.9-16.1 6-3.7 13.3-13.7 17.6-19.4-9.8-3.1-20.4.8-30.5.5-6.7-.2-14.8-2.2-21.4-3.5 15.5-20.6 29.5-42.4 42-65 24.3-6.8 48-16.3 68-32 2.7-2.1 4.9-6 9-7.5v16.5c0 2.9-1.9 10.1-2.7 13.3-.9 3.3-2.7 8.6-4.7 11.3-4.3 5.7-24.6 17.4-32 24-6.2 5.4-11.5 11.9-17.5 17.5 4.7 0 21.1-2 24.4-4.4 1.7-1.2 1.1-7.9 4.6-7.1-1.1 23.3-2.8 47.9-15.2 68.3-6.9 11.4-16.4 13.7-27.8 19.2l43 27.5c.5-.7.5-14.8 1.2-17.3 1.5-5.2 28.4-21.8 34.5-25.5 6.8-4.2 13.7-8.6 21.3-11.2l-20.5-3-18.5-.5c1.9-2.6 2.9-5.7 4.6-8.4 4.7-7.4 27.5-38 33.7-41.3 2-1 12.3-3.8 14.2-3.8h24.5Zm-113 152c-1.3-1.2-31 7.9-35 9.5-2.5 1-6.4 2.4-8 4.5 13.3 2.8 25.5 9.3 36.5 17-4.8-11.8 3.8-20.1 6.5-31m-3 53c-20.3 3.1-39.5 8.1-56.3 20.2-8.7 6.2-10.6 10.6-14.9 20.1-6.2 13.7-10.5 29.2-14.8 43.7 3.7 3.3 23.5-15.3 27-18.5 7.4-6.8 14.1-14.6 21.5-21.5.8-.2.6.9.5 1.5-1.3 9.2-12.6 33.4-16.8 43.2-7.3 16.8-15.5 33.2-24.2 49.3 1.1.8 16.9-7.5 18.4-9.1 6.1-6 21.9-33.5 26.7-42.3 14.5-26.4 25.6-57.5 32.8-86.7Zm-203 272c.7-1 17.5-10 20.5-12 9-5.9 17.9-12 26.4-18.6 4.8-3.7 17.5-13.2 20.7-17.3 1-1.3 1.8-2.2 1.4-4.1-20.8 7.7-41.7 15.4-63 21.5-20.2 5.8-50.4 9.4-67.7 19.3-14.5 8.3-20.4 28.4-29.3 41.7-.3 2.2.2 1.2 1.5 1.4 8.2 1.6 26.3 5.1 33.7 3.8 10.1-1.7 19.3-12.7 27.7-17.8-2.3 19.8-7.5 39.6-15.8 57.7-1.7 3.8-4.8 10.8-7.2 13.8-3.5 4.4-15.8 10.5-16.1 15-.4 8.2 4.3 21.4 5.1 30 .6 6.9-.4 14.5 0 21.5 6.7-.2 20 2 25.1 6.4.5.5 3.5 6.1 3.9 3 1.1-8-6.8-21.1-12.5-26.5-2.3-2.2-11.4-6.6-8.5-9.4 1.6-1.6 9.9-5.1 12.9-7.1s14.7-13 15.7-13.2c2.2-.5 9 4.6 12.2 5.5 9.7 2.9 25.3 0 35.2-2.2 7.2-1.6 14.1-4 21-6.5-.1-1.4-1.5-1.6-2.4-2-6-2.8-13.2-4.7-19.2-7.8-3.8-2-13.4-9.2-16.1-9.9-4-1.1-25.5 0-20.3-7.8 2-3 11.7-10.3 15.2-12.8s10.7-8.4 14.2-9.8c20.4-8.3 44.5-4.1 64.6-19.4 2.1-1.5 9.2-9 10.1-11 1.3-3-6.4.3-7.6.4-13.9 1.2-57.3-12.4-71.1-18.7-1.9-.9-11.8-5-10.3-7.2Zm-111.5 130v1c.7-.3.7-.7 0-1" class="outline shading" data-original-prefix="shading" opacity="0.5" style="opacity: 0.5"/><path id="outline-ear-rt1" fill="#000000" d="M1203 940c-.6 2-3 0-4-.5-6.5-3.1-17.2-8.7-22-14-10.8-12.1-18.5-31.1-29.5-43.5-4.1-25.3 12.7-45.4 22.6-67.3 5.5-12.1 11.1-32.2 17.6-42.4 7.8-12.1 17.6-20.4 24.1-35 29.7-67 27.5-149.8 34.8-221.2 43-62.1 88.8-122.2 141.4-176.6 24.4-25.3 52.2-42.5 82.1-60.9 20.5-12.6 41.7-24.6 62.9-36.1 40.7-22.1 79.8-38.4 121.7-57.3s91.3-39.5 107.1-83.9l10.7-37.2c3.3.1 24.3 49.5 26 56 3.7 14.5 5.6 49 1 63-3 9.1-13.4 15.7-16.5 25 7.6 2.4 18.7 6.6 25 11.5 6.2 4.9 20.7 24.3 26.4 31.6 2.3 2.9 11.8 14.7 11.6 17.4-7.2.2-14.4-4-21.8-5.2-23-4-38.5 4-55.2 18.7 10.3 2.9 25.2 6.2 33.5 13 6.7 5.5 16.1 21.2 20.9 29.1 1.9 3.1 13.5 21.9 11.6 23.9-7.9-2.4-15.7-5-23.8-6.7-9.2-1.9-33.2-6.4-41.4-5.1-6.3 1-12.4 5.6-18.7 6.8-.5 2.6.4 1.5 1.4 2.1 12.9 6.6 27.1 12.4 36.6 23.9-42 6.7-76.8 37.4-91.8 76.8-12.2 32.2-10 57.7-14.4 90.6-6.7 50.1-36.2 108.2-60.3 152.6-24.4 44.9-50.8 66.2-94.6 91.4-2.2 1.3-4.2 2.7-6.9 2.6-.3.3 1.3 2 1.5 2h21c2.2 0 15.5-6.9 18.5-8.5 2.4-1.2 16-10.5 17-9.5-1.6 10.4-4.5 20.6-8 30.5-3.1 8.8-10.4 28.6-15.1 35.9-2 3.1-14.8 10-18.8 12.2-12.3 6.6-25.4 11.3-38 17 17 6.2 36.2 4.9 54 3.5 1.2 1.2-6.4 13.7-7.8 15.7-9 12.9-45.2 46.5-60 50-9.9 2.3-23 1.4-33.2 2.3 1.7 3.6 5.3 5.9 6.8 9.7 4.4 11.4 2.3 53-1.3 65.3-2 6.8-2.5 7.3-8 3-22.9-18-24.7-29-58.1-27-19.9 1.2-35.2 9.4-53.5 14.5-13.9 3.9-18.7 1.8-32-2-8.3-2.4-17-5.8-25-8.5 13.4-5.3 26.8-1.7 41-4.5 22.9-4.6 49.8-19.7 73.5-21.5 10.4-.8 23.1 3.5 33.8 3.2l3.7 3.3 6 8.5c-1.6-13.7-1.1-29.6-9.6-40.9-5-6.7-12.6-14.2-19.2-19.3l-.2-3.8c20.8 1.9 41.8 1.3 62.2-3.3l40.8-24.7-.5-2c-8.4 1.7-24.3.5-32.5-2.5-4.9-1.8-19.3-13.4-24.7-17.2-.5-.4-1.9 0-1.2-1.8.5-1.3 7.3-5.2 9-6 14.6-6.8 32.6-11.5 48-18 6.8-2.9 19.8-7.7 25.4-11.6 7.3-5.2 12.1-17.9 15.7-25.8-7 2.2-14.8 7.2-21.9 8.5-11.6 2.1-45.6-7.9-57-13.1-.8-.4-2.9-.2-2-1.9.4-.8 9.6-7.5 11.3-8.7 20.9-15.1 44.7-26.5 63.3-44.7 60.6-59.5 103.6-146.5 119.2-229.8 2.3-12.2 1.6-24.6 3.7-36.3 4.1-21.7 17.7-46.7 21.8-69.2 17.9-19.1 39.9-38.7 66.8-42.7-11.4-10.6-28.7-10.9-43.5-12-1.5-.1-2.9.8-2.5-1.5 8.3-6.9 16.1-18.1 24.5-24.5 7.1-5.4 27.9-8.7 37-8 10.2.8 19.5 6.2 29.5 8-13.9-25-39.4-29.8-66-31-.2-1.7 0-3.2.8-4.7 2.9-6.4 30.9-32.1 37.7-35.3 8.8-4.2 25.6-4 35.6-5-7.8-7.6-18.7-19.2-29.2-22.3-12.5-3.6-27.1-2.7-39.8-.7 3.6-13.9 11.5-23.5 20-34.5s14.4-14.3 17.3-24.7c4.4-16.3-.2-32.5-2.3-48.8l-10.8 21.7c-8.5 15.1-17 25.9-31.7 35.3-31.2 20.1-66.8 32.2-100.2 48.8-59.4 29.5-120.1 66-175.4 102.6-50.7 33.4-90.3 69.4-128.8 116.2-17.3 21-40 48-54.8 70.1-13.1 19.5-12.9 63-15.2 86.8-2.7 27.6-4.3 55.4-7 83-3.6 37.5-23.4 76-40.1 109.9-6.2 12.6-15.4 25.8-21.1 38-2.7 6-15 38.2-15.7 43.3-3.2 23.1 12.8 50 27.9 66.4Z" class="outline" data-original-prefix="outline"/><path id="outline-ear-rt2" fill="#000000" d="M1222 954c11.6 7.5 22.1 16 36.5 18 5.8-4.1 11.7-8 18.2-10.9 3.5-1.6 14.7-6.1 17.9-6.1h18.5c-5.8-16-17.1-18.4-32.5-20-1-.1-3.4.6-2.5-1.5s15.3-10.5 18.3-11.7c18.6-7.6 33.7-6.4 52.7-.8 1.8-2-11.4-19.2-14.5-21-2.6-1.6-23.6-5.7-23.5-7.5 10.1-9.5 28.8-16 37-27 7.1-9.5 12.1-25.9 18-36.5-8.7 2.2-16.6 6.9-25.2 9.2-2.8.8-9.9 2.7-12.3 2.7h-37.5c4.5-25 11.9-49.6 19.7-73.8 3.2-9.8 6.5-22 10.8-31.2 5.9-12.8 17.7-24.5 25.7-36.3 14.4-21.4 23.1-44.2 30.1-69 7.8-27.9 11.8-53.6 1.7-81.8 1.4-.3 2.5.3 3.7.8 6.9 2.5 46.7 25.5 50.8 30.2 3.4 3.9 10.9 28.8 12.7 35.3 3 10.7 4.5 23 7.8 33.2 2.9 8.8 8.3 11.8 17.3 8.5 18.8-7 43.3-65.2 43.6-84.5 0-3-1.1-5.3-1.1-8 0-9.6 22.9-34.8 30.6-41.5 17.6-15 39.8-23.8 62.5-28l-8.8-3.7c-17.8-5.3-36.9-5.3-55.2-3.3-.7-.7 8.5-16.3 9.6-17.9 5.7-8.7 17.7-24.8 26.9-29.1 15.1-7.1 32.4-9.5 48.1-13.9 1.3-.4 2.5-.1 3.4-1.6 0-1.9-23.7-15.1-27.5-15.5-18.4-2.2-37.9 6.1-55.5 10-.9-.7 11.8-16 13-17.5 3.4-4 11.6-14 15.5-16.5s11.2-3.9 15.9-6.1c8.2-3.9 29-13.7 35.2-18.8 3.7-3.1 12.8-15.6 15.9-20.1 1.6-2.4 3.1-4.9 4.6-7.4-3.9.9-6.6 4.2-10.3 5.7-8.1 3.3-26.1 2-35.2.8-2.3-.3-12.3-1.3-12.5-3.5-.2-2.5 19-22.5 21.9-26 6-7.2 14.3-20.6 21-26 4.3-3.4 9.8-4.8 14.3-7.7 23.7-14.9 32.6-26.5 49.9-47.1.7-.9 2-3.2 1.8-.2-2.5 12.6-6.8 24.6-11.6 36.5-24.3 15.6-47.6 33.8-64.4 57.6 19.3 5.9 36.1-12.7 50-23.5-2.8 16.2-8.4 31.5-15.1 46.4-4.7 10.3-9.5 22.9-19.2 28.8-14.9 9.1-32.9 16-49.7 20.8-.2 1.8 3.4 1.1 4.5 1 4.3-.3 11-2.2 15-2.1 5.8.2 45.9 28 51.5 33.6.8.8 6.5 7.8 6 8.5-22.8 3-46 6-67.8 13.7-4.5 1.6-13.1 4.5-16.6 7.4-1.3 1.1-8.2 9.2-8.6 10.4-.7 1.7.4 1.4 1.5 1.5 4.3.6 8.4-1.7 13.8-.8 9.1 1.5 42.7 19.6 50.1 25.9 1 .9 2.1 1 1.7 2.8-34.6 9.4-66.8 26.9-90.5 54-28.1 32.1-34.8 87-44.6 127.4-18.5 20.3-42.7 37.2-66.8 50.2-3.9 2.1-10.1 5.7-14 7-.9.3-3 1.1-3 0 19.1-31 27.9-76.5 3-107-12.4-15.2-19.2-11.5-26 5-7.4 18-10.7 39.7-13 59-1.3 11.2 2.7 10.5-6.5 19.5-23.9 23.4-34.6 32-45.8 65.2-.9 2.8-10.2 32.4-7.2 32.8 14.3-1.1 30 .6 42.7-7.2l26.7-16.8c-1.2 14.9-3 29.6-6.3 44.2-2.2 9.6-8 32.3-13.2 39.8-3.2 4.5-20 15.5-20.3 16.7-.8 2.8 9.2 17.1 10.8 21 5 12.1 1.2 31.5 0 44.4-2 2-17.3-12-21-13.5-2.5-1-17.7-3.5-19-2.5 6.7 9.9 10.5 22.5 11 34.5.3 7.3-5.4 2.7-10.5 2.4-18.5-1.1-38.2 3.5-54.5 12-12.1-4.2-19.7-7.5-30.9-14.6-6.4-4.1-17-9.9-19.1-17.4Z" class="outline" data-original-prefix="outline"/>
    </g><g class="trait-group" data-category="left ear" id="left ear-battle scars">
      <path id="fill-ear-lft" fill="#ffffff" d="M858.7 928.7c-3.7 4.2-14.8 12.9-19.8 16.7-14.6 11.5-32.7 23.6-49.5 31.5-5 2.3-21.9 9.8-26.4 8.7l-60.9-28.2c-24.2-30-45-62.9-68.1-93.9L621.5 828l-113.4-70.7-69.5-84.5-40.8-83.2c-.7-1.3-1-2.7-.8-4.2.9-6.5 16.1-17.9 19.8-24.3 2.3-12.4-1-25.8 3.4-37.7l34.9-31.1c1.7-2.2-3.1-10-6.6-9.6l-68.2 12-2.4-.4-46.8-181.2-8.1-119.8c.2-1.5 11.5-11.4 13-12.1 1.8-.8 4 .7 5.6 1.4 44.7 17.6 88.7 43.3 133.3 61.6l144.9 87.1c34.7 38.2 77.4 72.2 111.6 110.4 19.4 21.7 36.1 47.5 55.3 69.6 7.9 62.9 12.3 126.4 19.6 189.4l79.4 176.7c.6 2.9-1.4 5.4-2.7 7.9-4.2 8.6-19.1 36.9-24.5 43Z" class="fill" data-original-prefix="fill"/><path id="shading-ear-lft" fill="#aaaaaa" d="M594.1 547.9c22-5.9 44.3-10.2 66.9-13.5 7.1-9 19.6-17 26.6-25.4 5.8-7 6.8-15.9 18.9-7l23.5 42.5c4.3 2.7 21.4 14.9 25.3 14.3 2.1-.3 13.8-7.8 16.5-9.6 2.4-1.6 12.1-10 12.9-10.2 2.8-.5 4.1 5.4 4.4 7.4.8 6.7.3 15.6.6 22.6-1 2.9-8.3 5.5-11.3 7.7-.7.5-1.7-.2-1.2 1.7.2.6 8.7 9.2 9.5 9.6 1.5 1 3-.3 3.4 0s4.2 6.9 4.7 7.9c2.1 4.3 1.7 8-2.2 11l-91-69.8-1.5 2c-.6.4-1.6-1.7-2.5-1.7-2 0-27.4 24.3-30 27.7-2.9 3.7-4.2 7.6-5.5 12 2 .4 2.7-.5 4-1.4 5.7-4.2 10.8-12.5 16.9-16.5.5 2-1.8 2.4-1.8 4.3 0 3.2 4 15.7 5.1 19.9C712 681.5 760 779.2 824 857.7c8 9.7 37.9 40.7 40.3 49.7.9 3.3.4 13.9-.5 17.1-1.2 4.2-33.7 28.5-39.5 32.5-15.2 10.4-31.3 19.8-48.8 26l-39.5-7.4c-25.7-24.5-53.6-47.2-79.1-71.9-3-2.9-8.2-7.4-10.4-10.6-5.3-7.6-11.7-45.5-15.1-57.9-.6-2.2 1.2-3.9-1.4-6.6l-105.6-62.4-.5-6c29.4 9.8 56.5 27.9 84.6 39.8 13.2 5.6 27.2 8.1 40.9 12.1 2.3-6.6-5.6-44.9-9.5-47.5-35.8-2-69.1-17.3-99-36-25.8-16.2-32.8-24.5-49.1-49.9-16.6-25.8-31.6-54.3-43.5-82.5-3.2-7.5-12.3-27.3-11.3-34.2.8-5.2 5-11.1 4.8-16.8 2.3-.5 1.6.3 2.2 1.3 7.3 11.3 21.5 41.5 33.5 46.4 6.6 2.7 6-2.2 4.7-7.7-3.4-14.8-17.2-33.6-16.5-47.5.2-3.3 3.8-28 4.6-29.4 7.8-6.3 20.9-9.5 22.2-20.8.6-15.9-2.7-35.1-.8-50.8.4-3.5 3-5.9 3.1-9 0-3.6-3.2-7.7-3-11.5-1-.9-6.3 4.4-7 5.5-3.5 5.3-1 7.1-1 12 .2 15.8-.4 31.6.8 47.4-5.4.6-21.8 15.6-24.5 16.1-2.6.4-7.5-13.8-10.7-13.8l-59.2 11.8h-11.4c1-3.7-3.3-10.3.7-12.7l69.4-19.6 9-38c-12.9-38.6-33.1-79.6-58.1-112-12.6-16.3-30.2-31-33.9-52.4 3.3-.7 9-4.4 12.2-3.9 2 .3 6.5 4.6 9 6 23.8 13.1 49 29 71 45 38.5 28.1 75.4 83.9 100.1 124.9 9.4 15.6 9.7 19.1 11.6 37.4 2.6 24.6 1.1 32.6 12.2 55.8 3.7 7.7 8.6 14.7 12 22.6ZM719 776c-.4-2.2-3.5-6.6-5.5-7-3.7-.7-16.9 1-19.6 3.5-2.4 2.3-5.9 14.8-7.2 18.8-2.2 7-10.2 31.5-8.5 37.1.6 2.1 4.7 4.7 4.8 7.7l4-6.5 26.5 40.5 4.1-8-26.6-47.6 10.5-38.4H719Zm57 190c-3.3-10-4.9-26.8-9.8-35.7-2.6-4.8-10.8-12.4-14.6-17.4s-9.2-10-8.4-16.1c2.2-15.5 15.7-28.9 22.6-42.5l-6.3-13.3c-1.7.8-16.6 29.2-18.7 33.3-5.5 10.9-16.8 32.7-17.8 44.2-1 12.1.9 25.6 0 37.8l6 3.7 5.5-32zm-103-56 9-49.7-4-9.3c-1.6 0-1.6 3.4-1.8 4.7-1.3 7-1.2 14.9-2.4 21.6-1.4 7.7-5.3 16.6-7.4 24.3 0 1.3 5 10.2 6.6 8.5Z" class="outline shading" data-original-prefix="shading" opacity="0.5" style="opacity: 0.5"/><path id="outline-ear-lft" fill="#000000" d="M844 942c15.6-14.5 32.6-45.7 29.9-67.4-8.3-32.4-25.5-58.9-39.8-88.2-9.5-19.6-31.9-63.6-35-83-3.6-22.2-3.2-46.4-5.1-68.9-.9-9.9-2.5-19.8-3.2-29.8-6.3-5.3-13.4-13.5-21.5-15.5-13.1-3.2-22-2.3-35.1-8.9-19.6-9.8-27.8-25.2-36.6-44.3-10.1 11.4-33.8 25-36.3 40.7-3 19.5 8.4 73.2 16.6 91.9 4.8 11 12.6 21.6 20.2 30.8 48 58.3 66.6 127.3 109.2 188.8 3.4 5 10.1 11.7 12.7 16.3 2.1 3.9 4.1 24.3 4.2 29.8.2 6.4-4.7 10-9.1 14-2.2 2-18.3 15.1-20 13.5.9-5 4-9.7 4.7-14.8 1.7-11.6-1.8-24.2-5.2-35.2-7.9-25.5-21.5-49.2-35-72-1.8 0-16 28-18 32-6.6 13.1-18.4 35.3-19.5 49.5-.9 11.2.6 23.6.2 34.9.6 1.8 15.1 10.8 17.8 12.2 17.1 8.9 28 10.8 47.2 6.2 6.9-1.7 12.8-5.3 19.8-5.7-3.3 5.3-7 6.8-13 9.5-22.4 10.2-58.6 26.5-79.5 6.5-14.3-13.6-27.5-29.5-42.4-42.6-12-10.6-25.8-15.8-32.5-31.5-10.8-25.3-24-65.5-48.8-80.2-12-7-24.9-12.3-37.2-19.8-81.4-50-124-108-162.7-194.3-1.9-4.2-11.8-25.8-11.8-28.2 0-2.2 13.4-12.5 16-15 2.7-2.6 11.5-10.6 12.9-13.1 2.3-4.3 4.9-27 5.1-32.9.1-2.2-1.6-4.2-.9-6.8 1.1-4 16.2-13.1 18.8-17.7-24.9 3.4-48.8 10.4-72 20-1-7.2-5-16.4-5.1-23.5s5.4-15.4 6.1-24c1.3-16.7-1.4-39.1-4.3-55.8-3.8-21.6-9.2-45.2-21.9-63.1-2.7-3.8-8.9-9.4-10.3-12.7-6.4-15-6.2-46.8-7.5-63.5-2.2-29.9-8.2-77.3.5-105.5 1.8-5.8 2.2-6.4 8.7-5.7 12.1 1.1 31.8 7.4 43.8 11.3 83.1 27.2 164 67.2 237 115 21.8 14.3 36.8 25 55.1 43.9 52.6 54.4 98.4 114.5 141.4 176.6 2.3 4.6 2.2 21.8 2.6 28.4 3.6 65.9 7.8 160.8 46.2 215.8 2.9 4.1 7.4 7.9 10 12 6.8 10.6 12 30 17.6 42.4 9.2 20.5 21 34.3 22.2 57.8.2 3.2.5 7.5-.5 10.5-13.8 17.6-24.1 41.8-43.8 53.2-3.7 2.2-8.4 5.1-12.7 5.8ZM702.8 512.2c.5.6 4.5 11.7 6.1 14.4 7 12.8 14.2 25.5 27.2 32.8 3.5 2 12 6.2 15.6 6.5 4.3.3 17.8-8.4 23-10.8 3.5-1.6 7.3-2.7 11-4.1-1.8-14.4-3.9-27.9-12.2-40-21.1-30.9-52.7-69.2-77.9-97.1-58.5-64.7-137.8-110.4-212.8-153.2-45-25.7-91.8-52.4-141.2-68.8-1.9-.6-10.6-3.9-11.5-3-2.9 37.8.8 78 8.3 115.2 4 19.6 13.9 30.2 20.7 48.3 8.5 22.4 17.3 59.3 20 83 2.1 18.7 1.2 37.8 3 56.5 16.7-2.5 33.1-6.7 49.8-9.7 8-1.4 18.2-1.6 25.6-3.4 6.1-1.4 6.8-5.9 8.1-10.9 4.5-17.3 3.6-35.6 5.7-53.3 1.6-4.2 14.7-9.6 14.8-13.2 0-3-13.9-27.1-16.6-31.5-23.5-38.4-55.2-67.1-93-91L354 241.3c-.2-1.5 0-1.7 1.5-1.5 6.7 1 18.7 13.8 24 18 7.9 6.3 17.8 9.2 26 15 53.7 51.2 107.7 99.8 130.4 173.4-15.6 64.6-13.8 128.7 20 187.2 5.6 9.7 23.2 34.9 35.7 21.4 4.4-4.7 7.8-28.3 10-36 3.6-12.6 8.4-25 12.5-37.5 17-13.2 37.3-24 53-39 7.3-6.9 22.3-30.1 30.8-31.3 1.4-.2 4.1 0 5 1.1ZM492 414c-12.8 5.3-8.1 15.2-8 25.5.3 13.3-.8 26.7.8 39.9-21.4 13.6-40.7 29.6-58.8 47.3-2.1 3.3-1.5 24.1-2.1 29.9-1.2 11.2-11.1 18.3-19 25.2 9.9 37 29.1 70.7 51.2 101.6 22.3 31.2 49.9 64.5 81.5 86.5 17.3 12 36.6 20.7 54.6 31.4 8.3 4.9 32.2 18.5 37.7 24.3 4.6 4.8 1.7 5.4 2.4 9.5s5.9 15.5 7.8 20.2c3.3 8.4 7 16.7 11.2 24.8 2.7-4.7 5.1-10.5 6.2-15.8 4-19.5 4.9-44.9 2.1-64.6-1.7-11.9-5-23.5-7.9-35.1.2-2.4 6.1-6.7 8-9 7.9-9.9 13.8-21.5 19-33 0-3.4-13.8-12.7-14.5-15.4-1.5-5.3 0-13.7-.4-19.6-1.1-13.7-9.6-50.9-17.2-61.8-11.8-17.2-26.5 9.3-31 19.7-9.3 21.4-7.6 46.3.4 67.9 2.9 7.9 7.3 15.2 10.8 22.7-1.4 1.3-15.2-6.5-17.7-7.8-15.2-8.2-32.4-19.3-45.8-30.2-4.2-3.4-15.7-12.9-18.4-16.6-3-4-9.1-42.7-11.4-51.6-8.6-32.6-20.5-64.9-41.6-91.5-.3-1.7 5.1-9.4 6.3-12.3 14.2-33 3.6-78.9-6.5-112Zm298 177c-1.2-2.4-1.8-28.5-3.5-28l-15.5 9.5c1.2 2.6 13.2 14.9 16 17 1 .8 1.3 1.9 3 1.5m-83 168c.2-1.4 0-2.6-.5-4S694 738.9 693 738.4c-2-1-7.1 5-8.5 6.5-14.2 16.1-18.4 33-13.5 54 2.6.3 1.6 0 2-1.5 2.5-8.6 4.9-28.8 9.9-35.1 3.2-4 18.5-2.4 24-3.5Zm4.8 9.2c-5.4.2-17 .9-19.7 5.4-3.1 5.1-13 38.5-13.9 45.1-.4 3-.8 8.6.3 11.2l33.6 50.4 3.3 2.7 36.5-56.5c.2-4.3-21.2-36.1-25.1-41.8-2-2.8-10.6-16-12.5-16.5-1-.3-1.6 0-2.4 0ZM708 946l-1.7-42.8c-7.9-17.7-17.7-36.5-28.1-52.9-.6-.9-.9-2.2-2.2-2.3-1.2 18.6-3.3 37.2-10.8 54.3 2.6 3.7 4.8 7.8 7.8 11.2 6.1 7 24.9 25.5 32 31 1 .8 1.3 1.9 3 1.5" class="outline" data-original-prefix="outline"/>
    </g><g class="trait-group" data-category="head" id="head-caesar">
      <path id="fill-head" fill="#ffffff" d="M904 1072c-9-5.7-18.5-12-25.5-20-3.8-4.3-15.5-24.5-17.5-25.6-3.8-2-8.9 3.8-6.7 7.8 10.2 18.4 2.8 13.2-7.8 3.8-9.4-8.4-17-18-20.8-30.2-1.2-3.9-2.9-17.1-5.1-18.9-6.1-3.5-28.5-7.3-32-12-2.9-3.8-3.9-20.2-3.4-25.3 1.4-14.3 14.6-50.2 21.7-63.3 3.9-7.2 8.2-6 14.8-9.2 9.5-4.5 18.7-9.5 28.3-13.7 8.4-3.7 19.7-5.1 26-12 10.2-11.3 10.9-19.7 26.8-27.2 18.3-8.6 37.3-8 56.3-11.7 12.8-2.5 25.2-9.4 37.7-12.3 26.5-6.1 56.2-4.6 82 3.4 8.1 2.5 17.1 7.4 25 9 21 4.4 38.5 2.1 58.9 13.1 14.5 7.8 15.6 15 24.9 26.1s45.9 19.3 59.7 30.3c8 6.3 18.9 38.2 21.9 49.1 2.4 8.4 9.9 41.5 2.2 46.7-2.8 1.9-17.1 3.7-21.9 5.1-14.3 4.3-10 5.4-16.8 16.2-5.5 8.7-11.9 17.5-19.8 24.2-1.6 1.4-4.8 1.8-5.6 3.4-1 2-.2 5.4-.9 8.1-1.8 6.8-3.8 11.7-10.5 14.9-2.2-16.7-17.8 6.7-23 11.5-2.3 2.2-10 8.6-12.5 9.5s-.8-1.2-.7-1.7c.7-11.8 1.9-29.1-1-40.5-5.1-20.1-18 7.1-20.9 13.6-1.1 2.4-1.1 6.4-2.8 8.2-1.1 1.3-9.2 4.8-12 7-3.8 3-6 7.2-9.1 9.9-4.4 3.8-13.2 8.1-18.5 11.4-.9.6-1.7.7-1.4 2.1v-11.5c1.2-5.4 1-21.1-1.5-25.5-5-8.7-12.6 6.2-15.5 9.4-2.7 3-6.5 6.9-9.5 9.5-12.2 10.3-29.6 14.8-34.5 32l-7.5-12c-11.5-8.7-19.3-16.5-29-27-8.5-9.3-15.7-17-22 0-.5 1.3-2.5 8.7-2.5 9.5v15.5c-6.5-6.7-15.8-8.9-22.9-13.6-9.6-6.3-17.8-16.6-23.9-26.1-3.7-5.8-14.3-31.1-19.8-11.4-.2.9-1.4 7.1-1.4 7.6v32.5Z" class="fill" data-original-prefix="fill"/><path id="shading-head" fill="#aaaaaa" d="M1169 964.5c-.4 3.2-3.9 10.1-3.9 13 0 .9 5 15.6 5.7 17.2 4.2 8.8 13.4 14.4 22.2 7.8 2.3-1.7 9.1-9.3 10.2-11.8 3.7-8.4.2-19.1 1.8-27.2 1.8-9.7 21.6-.6 24.2 5.7l1.7 8.7c4-7.9 2.3-15.3 3-23.5 1.2-13.4 9.3-9.5 14-19 2.5-5.1 1-8.8 2.2-12.8 1.1-3.8 7.5-3.8 9.7 0 4 6.9 5.3 22.1 9.1 30 .1 3.3-4.8 9-7 11.9-11.3 14.8-24.6 28.3-37.5 41.5-14.1 14.5-32.3 35.2-47.5 47.5-3.6 2.9-6.2 5.6-9.4.4l-7.7-36.8c-1-.9-13.4 1.4-14.8 2.5-4.2 3.1-8.9 25.6-13.6 31.4-5.6 6.8-19.9 13.8-26.5 20.6-2.2 1.1-4.2.6-5.4-1.5-1.7-3.1-6.4-31.1-8.1-31l-7 3c-15.9 12.5-31.9 32.6-48 44-3.9 2.8-6.3 2.1-10-1-7.1-5.9-14.9-16.8-22.5-23.5-2.7-2.4-18.9-15.7-20.7-16.3-2.9-1-2.2 1.3-3.8 2.9-3.3 3.5-17.1 19.6-20.1 20-2.8.4-6.4-2.6-8.4-4.5-7-6.6-14.2-16-21-23-2.5-2.5-16.1-16.8-17.7-17.3-1.9-.6-4.2-.6-5.8.8-4.2 3.7-8.7 22.8-12.9 27.1-7.5 7.7-17.6-12.7-20.3-17.8-.6-1.1-1.1-4.1-1.3-4.2-.4-.3-5.5 1.1-7.4 1-4.3-.2-16.7-2.1-20.8-3.3-9.6-2.9-12.5-11.1-15.1-19.9-2-6.7-2-19-7.4-22.6-7.4-4.9-18.8-8.1-22.6-17.4-4.1-10.1 5.2-10.1 11.5-13.9 11-6.7 15.6-13.4 24.7-21.3 11.8-10.3 8.3-4 8 6-.7 20.6-.2 39.3 10.5 57.6 2.9 4.9 13.6 17.6 19.8 15.8 1.6-.5 4.4-4 5.5-5.5 7.6-10.2 14.5-28.1 21.2-39.6.6-1 2.4-1 2.9-2.4 1-3-.1-9.8.3-13.8 1.2-11.3 9.7-23.4 18.4-30.6 1.5-1.3 15.8-10.8 16.5-10l-17.8 35.8c2.5 16.3-.8 33.1 2.1 49.5 2.3 12.8 7.7 25.7 19.2 32.8 8-16.1 23.4-26.4 35.5-39.5 2.4-2.6 12.1-15.8 13.5-16.5 1.7-.8 1.6 1.2 1.9 2 3.3 8.8 5.5 18.1 9.4 26.7.9 2 8.2 18.2 11.3 13.7 2.5-3.7 6-15.9 8.8-21.1 1.7-3.3 4.3-9 7.7-10.3 2.5.6 11.8 31.5 16 35 3.6 2.9 6.3-.2 9.2-.8 2.3-.5 5.5.3 7.3-.7 1-.6 8.5-18.3 9.3-20.7 2.1-6.8 2.3-13.8 3.2-20.8 3.8 0 22.6 30.5 28.6 35.4 5.9 4.8 19.1 7.8 26.2 4.6 1.8-.8 4.5-9.8 5.1-12.2 4.8-19.8 6.2-47 2.2-66.8-.9-4.4-2.4-8.7-3.5-13 17.4 3.6 15.7 31.2 36 26-.5 5.2.6 11.4 0 16.5Z" class="outline shading" data-original-prefix="shading" opacity="0.5" style="opacity: 0.5"/><path id="outline-head1" fill="#000000" d="M1091.3 875.7c2.7 2 5.8 6.1 7.6 9 7.1 12 6.9 19.2 5.1 32.7-.8 5.8-2.6 11.9-3.9 17.6l-8.7-59.3Z" class="outline" data-original-prefix="outline"/><path id="outline-head3" fill="#000000" d="M974 880c-4.1 15.3-10 34.5-9 50.5.2 2.9 1.2 5.6 1.6 8.4.1.8 1 3.1-1.1 2.1-5.3-2.7-6-33.1-8.2-39.4 3.2-6.9 7.3-14.8 13.2-19.6 1.1-.9 1.6-2.4 3.5-2" class="outline" data-original-prefix="outline"/><path id="outline-head1-2" fill="#000000" d="M1211 1030c-.3.3 0 5.9-.5 8-1.9 8.6-8.2 18.7-17.5 18.9l.5-9c-10.2 9-19.4 21.9-31.2 28.8-1.1.7-8.9 5.3-8.2 1.8 2.4-11.9 3.9-21.7 2.9-34.2-.2-2-2.4-15.9-3-16.5-1.1-1-2.9.4-3.8 1.7-3.7 4.8-11.5 25.4-12.6 26.4-1.8 1.6-8.5 3.6-11.9 6.1-4.5 3.4-6.7 7.8-10.8 11.2-2.6 2.2-22.2 14.8-24.6 15.4-.8.2-1.5.3-2.3.2 2.9-13.8 4.4-28.3.5-42-7 10.1-15.2 18.7-25.2 25.8-5.5 3.9-14.3 7.6-18.9 12.1-5 4.9-8.5 13.9-12 20-3.8-6.3-6-13.4-11-19-4.8-5.4-13-9.3-18.5-14.5-4.5-4.2-13.8-16.9-18-19.1-1.8-.9-4.5 2.1-5.4 3.6-2.7 4.1-4.7 15.5-4.6 20.5 0 4.1 1.9 7.4 2.1 11 0 1.5.2 1.8-1.4 1.4-4.4-1-11.5-7.5-15.9-10.1-10.7-6.3-17.3-8.8-26.7-18.3-8.7-8.9-13.3-22.1-21.5-31.5-6.7 14.8-5.2 33.2-2.5 49-2.3 2.3-20.8-11.6-23.5-14-9.4-8.2-20.1-20.1-23.5-32l-1.9 7.4 2.9 13.6c-1.9 1.7-12.1-5.9-14-7.5-17.4-14.3-27.7-30.4-31-53-16.1-8.6-33.9-3.3-36-26-1.7-18.3 3.9-36 9.9-53 2.7-7.6 11-30 17.3-33.7 9.3-5.3 26.5-12.4 37-17 7.1-3.1 17.5-5.1 23.8-9.2 5.9-3.8 10.6-14.7 15.8-20.2 18.6-19.5 49.1-17.7 73.3-22.7 9.8-2 19.5-7.3 29-10 26.4-7.7 61.3-7.8 87.6 0 9.6 2.9 21.9 9.4 31 11 25.3 4.6 48.8 1.8 69.8 21.2 5.8 5.4 12 18.2 16.5 21.5 9.1 6.7 34.5 14.6 46.3 20.7 13.3 6.8 15.1 9.3 21.1 22.9 8.7 19.5 21.4 57.2 17.1 78-2.6 12.4-23.9 10.1-33.5 14.5-5.3 9.8-10.7 19.5-18 28-1.8 2-8.8 9.6-10.4 10.6s-4.3.8-4.5 1Zm32.2-64.3c2.2 2.1 13.7 1.7 15.3-.7 3.3-5.1-2.5-30.7-4.8-37.2-3.1-8.7-16.4-27.6-23.8-33.2-12.3-9.3-28.2-11.2-41.3-20.7-12.1-8.8-22.4-22.5-33.7-31.3-10.4-8.2-32.7-8.3-46.2-11.8-35.7-9.1-60-24.2-98.8-16.2-13.9 2.9-26.5 9.5-39.8 13.2-18.4 5.2-40.7 2.2-57.5 12.5-11.7 7.1-21.4 21-31.5 27.5-13.5 8.5-31.1 14.1-44.8 22.2-20.4 12.1-34.4 42.7-34.5 65.7 0 1.9-1.2 3.7-.8 6 .7 4.7 12.3 10.5 17 10.6.6-13.5 6.6-26.2 15-36.5 1.6-2 4.4-5.9 7-6.5-.6 9.6-4.2 18.9-5 28.5-1.3 16.4 1 54 13.2 65.8.9.9.8 2.2 2.8 1.7-2.8-15 6.6-31.7 18-41-2 18.7-.3 38.1 10.6 53.9 1.1 1.5 11.9 13.8 13.4 12.1-2.3-12.2 2.6-24.1 3.9-35.6 1.1-9.4 1.2-19.3 2.2-28.8 2.5-22.5 6.3-31.3-.6-54.6-4.6-15.5-12.4-20.8-7.6-38.5 4.1-15.2 12-24.2 28-26.4l-12.8 20.7c-4.8 12.7-3.7 24.5.3 37.3 1.3 4.1 7.5 19.7 11 21 2 .8 2.4-5.1 4-6 .6-1.2 6.1-16.5 8.5-14-8 22.2-12.6 48.8-11 72.5 1.1 16.3 6.8 20.5 14.2 33.8 2.1 3.8 3.6 9.5 5.8 13.2 1.6 2.6 18.7 20.5 20 19.5 1.9-7.7 3.3-17.7 8-24.3 1.7-2.4 4.2-2.7 6.1-7.2 5.7-13.8 5-32.7 14.7-45.3.7-.8 0-1.8 2.3-1.3 2.4 22.8-.2 44.2 16 62.5 4.4 5 12.9 9.5 16.8 14.2 4.5 5.3 7.7 14.4 8.2 21.3 2.8.4 1.5-.3 2-1.5 5.2-13.1 13.1-23.2 23.8-32.5 3.8-3.3 16.4-10.7 18.5-14.2 7-12 2.6-32.4 2.8-45.7l7.5 12c10 19.3 17.2 38.4 20.5 60 .9.6 13.7-13.9 15-15.5 5.4-6.9 17.1-23.9 19.3-31.7 4-14.2.7-27.5-1.2-41.4-1.5-10.9.7-6.8 5.8-11 3.1-2.6 13.7-27.6 14.6-32.4 3.7-17.8.5-40-8-56.1-1.9-3.6-5.3-6.3-7.1-9.9 22.3 3.8 26.5 26.3 32.5 44.5 0 1.2-2.7-.2-3.1 1.1-.7 2.5.4 9.2 0 12.8-1 8.8-6.1 28.2-9.2 36.8-1.9 5.3-7.6 11.9-7.8 17.3 4.7 23.8 14.6 46.9 14.1 71.5 2.6 2.9 20.5-19.5 21.8-21.7 12.1-19.2 12.1-48.5 10.2-70.3 5.2-.5 6.4 6.9 8.1 10.2.4.8 1.5.9 1.8 1.6 4.5 10.1 6.2 21.2 7.1 32.2l3.3-6.2c4-17.3 8.4-38.7.9-55.5-2.9-6.5-8.8-12.6-12.2-18.8 11.2 4 20.7 17.2 25 28 1.5 3.8 3.8 16 6.2 18.3Z" class="outline" data-original-prefix="outline"/>
    </g>
</svg>