<?xml version="1.0" encoding="UTF-8"?>
<svg xmlns="http://www.w3.org/2000/svg" viewBox="0 0 2048 2048">
  <style>
      .outline { fill: #000000; }
      .fill { fill: #FFFFFF; }
      .shading { fill: #aaaaaa; opacity: 0.5; }
    </style>
  <g class="trait-group" data-category="background" id="background-red">
      <path id="color-red" class="color" d="M2048,4.5c-.1,679.6-.1,1359.2,0,2038.8,0,3.8-.8,4.6-4.6,4.6-679.6-.1-1359.2-.1-2038.8,0-3.8,0-4.6-.8-4.6-4.6C.2,1362.3.1,681.2.1,0h2043.3c3.8,0,4.6.8,4.6,4.6h0v-.1Z" style="fill: #af6e6e" fill="#af6e6e"/>
    </g><g class="trait-group" data-category="jaw" id="jaw-half-robo">
      <path id="fill-jaw" fill="#ffffff" d="m1382.8 1128.2 12.4 130.2 60.9 48.3-49.6 133.4c-1 1.4-2.4 1.1-3.9.9-13.9-1-32.8-8.5-47.4-10.7-1.8-.3-3.5-.4-5.2-.3 1.2 4.7-1.2 7.6-2.1 11.4-4.9 22.2-7.7 45-12.1 67.4l-57.2 29.3-1.4 1.6c-1.1 12 1.6 23.9.9 35.9-.3 5-1.3 14.9-2.3 19.7-.6 2.8-13.7 32.2-15 33.5s-16.1 8.9-16.7 8.3l-9.5-50-51 52c-7.7 5.7-20.7 9.3-27.5 15.5-14 12.7-24.7 36.5-41.4 47.6-5.5 3.6-58.7 25.2-65.4 26.6-2.4.5-46.7.7-49.3.2-6.2-1.1-59.9-22.7-65.6-26.3-14-8.8-29.1-36.3-42-48-6.7-6.1-19.9-9.6-27.5-15.4l-51-52-9.6 48.4c-.6.9-.9 1.7-2.2 1.5-.8 0-13.8-7.6-14.4-8.2-1.4-1.4-15.6-32.9-16-35.5l-.7-54.3-58.2-30.3-12.3-69.7c-16.4-1.1-33.5 3.9-49.5-1l-37.3-85.8c-.7-3.4 4-13 5.6-16.9 8-19 17.8-37.3 25.7-56.3 9.2-2.5 21.3 1.1 29.9-5.1 4-2.8-.2-18.8 0-23.9l-19-32.1-.3-2.2 27.6-63.5c1.4-9.9-3.2-21.4-1.1-31.1 1.3-6.2 9.7-21.7 13.2-27.9 54.6-98.4 184.4-157.8 290.2-180.8 48.2-10.5 90.3.5 136.5 15.4 98 31.8 198 94.6 250.7 185.3 3.2 5.5 3.8 13.3 10.7 14.8h-.7Z" class="fill" data-original-prefix="fill"/><path id="fill-jaw1" fill="#ffffff" d="M1265.7 1351.3c9.2 7.7-4.5 25.9-12.2 15.7s2.9-23.4 12.2-15.7" class="fill" data-name="fill-jaw" data-original-prefix="fill"/><path id="fill-jaw2" fill="#ffffff" d="M1314.6 1391.2c7.8-1.5 6.2 19.1-2.9 17.7-9.8-1.5-.6-17 2.9-17.7" class="fill" data-name="fill-jaw" data-original-prefix="fill"/><path id="shading-jaw" fill="#aaaaaa" d="M1377.3 1124.7c2.2 2.7 13.8 4 14.5 10l8.4 112.6c17.4 18.9 36.8 35.9 56.4 52.6l1.5 3.6-51 135.8c-1 1.6-3.7 1.7-5.4 1.6-14.4-.9-32.2-8.4-47.3-8.9-1.8 0-3.2-.2-4.4 1.3l-14.4 75.6-59.4 30.1c.4 11 2.6 23.6 2 34.5-.3 5.7-1.3 15.4-2.1 20.9-.5 3.1-13.4 31.4-15.4 33.6-3 3.2-11.6 6.2-15.5 9l-12-46.4-2.4-.6-46.1 47.9c-7.8 6.2-20 9.3-27.5 15.5-14.2 11.7-24.4 36.1-41.5 47.5-6.8 4.6-52.9 25.2-60.4 26.6-9.5 1.7-52.8 1.8-62.3.2-7.6-1.3-48.1-19.8-56.6-24.4-16.2-8.6-30.7-38.5-45.1-49.9-7.1-5.7-18.8-9.3-26.5-14.5l-48-49-8.5 47c-1.4 1.2-18.5-6.9-20.5-9-1.7-1.8-15-30.8-15.4-33.6-.7-4.4-.9-13-1.1-17.9-.5-12.2.6-24.4.5-36.6-18.8-11.7-39.4-20.3-58.6-31.4l-13.1-67.4-46.4.9-36.3-91.7-.2-2.3c6.7.3 9.7 6.8 15.7 10.8 19.1 12.8 34.2 19.3 57.7 16.1 20.6-2.8 26.4-11.2 48-1.7 16.1 7.1 19.4 16.7 31.2 25.8 13.2 10.2 17.5 3.6 25.9-7.1 6.9-8.8 25.8-41.6 27.4-51.6 1.7-10.7-3.8-11.2-13-10-8.6 1.1-48.4 15.1-51 14.6-1.7-.4-12.3-7.9-16.5-9.6-20.3-8.4-48.8-11.8-67.2-20.8-14.3-6.9-12.2-21.7-18-34.5l21.5-4.1c1.9.3 10.9 13 13.5 15.6 13.7 13.8 58.3 32.8 77.6 33.5 3.4 0 6-1 8.9-1.1h20.5l-34.7-16.8c-19.1-10.8-48.2-33.1-61.8-50.2-6.2-7.7-7.1-18.3-10.5-27.5-6-16.6-14.4-32-25-46 1.3-9 6.5-19.6 7.8-28.2 2.8-19.1 3.8-27.8 12.1-45.9 49-107.6 188.2-173.2 298.2-196.8 27.9-6 50-5.8 77.9 0 118 24.3 244.7 92.5 307.8 198.2 1.9 3.1 5.2 12.6 6.5 14h-.4ZM1326 1307c15.3-11.2 31.9-21.8 44.5-36 6.1-22.7 14.6-45.7 13.5-69.6l-2.1-29.5c-1.4.2-1.9 1.8-2.5 2.9-16.8 30.8-29.1 66.4-47 97l-62.3 38.7.4 3.3c5.9 15.3 32.8 49 33.4 63.6.2 4.3-2.2 10.7-.7 15.7 1.1 3.6 11 9.8 15.2 9.4l62.4-18.5c8.3 1.2 16.7.9 25.1.6l36.7-78.8.3-3.3c-14.1-10.8-29-21.4-44.3-30.7l-2.8 11.8c-13.3 5.6-27.2 16.2-40.4 21.1-6.7 2.5-16.4 2.8-23.8 3.2-1.2 0-5.6.7-5.5-1Zm-248 20c-5.1-10.6-9.9-23.3-16.6-32.9-6.5-9.4-23.8-30.4-31.9-38.1-4.2-4-7-3.9-11.1 0-7.7 7.4-27 30.2-32.9 39.1s-10.5 22.1-15.6 31.9zm200.7 70.7c1.4-1.6 8.8-25.5 9.1-28.5.4-4.4-3.5-11.7-5.6-15.9-3.8-7.3-18.5-32.7-23.6-37.4-5.7-5.3-8-1-14 1.1-11.8 4-23.6 7.8-35.5 11.5-1.3 1.1-1.1 1 0 2 3 2.6 6.7 4.5 9.4 7.6 6.8 8.1 12.2 22 18.6 30.9l3.1-12.4c.8-3.8 7.7-7.4 10.8-5.4 1.2.8 3.6 11.4 7.9 12.7 6.1 1.8 8.2-5 11-5.7 4.2-1 10.3 3.7 10.1 8.1-.5 11.3-14.6 20.3-25.1 18.6-1.1-.2-10.1-4.8-8.7-1.3 3.1 2.8 14.4 21.8 16.7 22.4 2 .5 14.5-6.5 16-8.2h-.2Zm-550.4 99c1.6 2 8.2 6.3 10.7 7.8 14.8 8.8 31.7 13.8 46.9 23.1 16.8 10.2 40.2 33.1 59.6 33.5 2.3 0 8.7-1.2 9.4-3.7.8-2.7-13.5-27.5-16.4-30.3-7.3-7.2-27.5-17.2-37.2-23.8-15.2-10.3-50.3-39.1-67.9-39.2-10.5 0-8.7 28.1-5.1 32.7Zm591.4-30.4c-6.1-6-24 4-30.4 7.6-16.3 9.1-30.8 21.3-46.2 31.8-9.3 6.4-25.4 13.9-33.1 20.9-3.1 2.8-16.2 24.5-16.9 28.2-1.1 5.3 6.2 6.5 10.3 6.3 16.8-1 25.6-11.2 38.2-19.8 8.3-5.7 17.3-12.1 26-17 11.7-6.6 47.1-19.2 52.7-29.3 2.4-4.3 2.8-25.2-.7-28.6ZM1126 1664c-12-2.7-20.7 6.6-31.6 7.9-5.7.7-12.2-1.2-16.6-.7-7.1.8-22.9 12.1-31.2 14.9-14.8 4.9-30.2 4.7-45.1 0-8.8-2.8-23.9-14.1-31.2-14.9-4.4-.5-10.9 1.4-16.6.7-11-1.3-19.9-11-31.6-7.4 0 7 23.7 23.4 30 27 12.5 7.1 59.7 26.8 72.5 26.6s59.8-19.7 72.2-26.9c3-1.8 33.6-23.3 29.3-27.2z" class="outline shading" data-original-prefix="shading" opacity="0.5" style="opacity: 0.5"/><path id="outline-jaw" fill="#000000" d="M1378 1122c.3-3.9.6-9.1 5.7-9.8 7.8-1.2 8.7 12 9.3 17.3 3.8 33.8 2.1 69.1 8.3 102.7 2.2 11.9 3.2 13.8 12.3 21.7 14.8 13 33.2 22.8 47.5 36.5 2.6 2.5 11.8 12.2 12 15.1l-66.1 156.3-46.9-24.9c-1.8 6.1-5.4 12.6-6.7 18.8-4.1 19.2 0 41.1-2.2 59.8-.4 3.4-10.5 17.5-13.3 18.7-6.4 3-16.2-1.8-24.7 3.3-23.8 14.4-17.9 48.6-27.2 68.8-7.8 17-37 48.2-52.9 58.1-1.6 1-2.9 1.9-4.9 1.6 1.1-14.8 3.1-34.9-3.9-48.6-.4-.8-.4-3.2-2.1-1.4-.7.7-3.6 13.8-6.6 17.9-5.8 7.9-20.7 8.9-29.4 12.6-16.7 7-14.3 32.7-27.7 43.3-19.3 15.2-61.2 32-85.1 38.9-10.8 3.1-38.9 11.3-48.7 11.3-15 0-63.4-15.1-78.8-21.2-11.1-4.4-55.3-26-60.6-34.4-6.9-11.1-8.5-31.6-21.5-37.6-14.5-6.6-26.4-2.4-33.9-20.1-1.1-2.5-2.5-10.3-2.8-10.7-1.3-1.6-1.8.4-2.2 1.3-6.9 12.5-5 34.9-3.8 48.7-2 .3-3.3-.6-4.9-1.6-15.7-9.8-48.9-44.4-54.2-61.8-6.2-20.6-5.3-52.1-25.9-65.1-8.2-5.2-18.3-.3-24.7-3.3-.9-.4-12.2-14.2-12.7-15.3-2.1-5.2-.2-29.6-.5-37.4-.4-9.1-2-18.5-3-27.5-4 1.6-7.6 4.7-11.9 5.6-2.8.6-5.6.7-8.5.3-4.7-.6-27.4-9.9-32.6-12.4-1.3-.7-2.7-1.2-3.5-2.5-2-33.7-22.2-63.7-44-88-2-4.4 2.1-14.5 3.7-19.2 6.2-17.8 15.6-36.4 25.7-52.3 3.2-5.1 14.2-22 17.9-25.1 5.5-4.4 9.8 3.3 14.6 6.6 1.6 1.1 12.7 7.8 13.5 7-2.9-7.2-9.4-11-13.8-17.7-4-6-15.9-26.4-15.8-32.6s5.4-17.7 6.5-25.3c.5-3 1.1-8.8 1.2-11.8.2-6.5-3-17.5 1.3-22.2 1.2-1.4 12.8-6.5 14.1-6.2.9.2 5 11.2 10.5 7.8 2.3-1.4 1-34.7 0-39.9.3-.3 7.6 1.8 8 2 1.8 1.1 7 8.1 9.8 9.7.5 8.4 3.4 20.7 1.1 28.7-2.8 10.1-17.5 14.8-21.2 22.8-1.2 2.6-6.4 25.9-6.7 29.3 0 1.2-.2 2.4.2 3.7 4.8 10.3 13.7 19.4 18.7 29.3s9 33.8 15.5 40c5.3 5.1 14.5 7.1 21 10.5 7.5 4.1 15.7 10.7 22.7 15.8-11.3-1.3-47.2-5.2-54.5-13-3.3-3.6-5.7-15.7-9.6-17.4-2.6-1.2-6.2-.2-9.2-.8-7-1.2-10.7-7.9-18.5-1.5-6.6 12.5-14.3 24.3-20.4 37.1-7.4 15.4-14.8 25.1-4.8 41.2 5.3 8.6 23.3 26.7 25.6 34.4 2.5 8.6-2.7 28 2.9 34.1 6 6.6 20.6 4.5 27.8.8 10.6-5.4 8.7-9.9 14.3-18.7 5.2-8.2 19.7-23.1 28.9-26.2s13.4 8.6 15.6 15.5c7.3 23.8-.2 34 22.5 51.5 11.6 8.9 33.3 20.1 47.8 17.9 8.5-1.2 21.1-6.6 27.2-12.8 7.2-7.5 8.8-24.6 24-14 15.8 11 30.3 30.1 46.6 41.4 20.5 14.3 77.5 32.5 102.5 34.6 37 3 105.5-17.1 134.5-40.5 11.5-9.3 21.6-20.6 33-30 4-3.3 11.6-11.3 17-8 .7.5 7.5 12.5 9.2 14.8 3.3 4.7 11.5 16.1 17.4 16.7 7.4.8 31.3-15.5 40.2-17.2 8.1-21.2 17.3-42.1 23.5-64 2.8-9.9 8.4-24.8 3.8-34.3-2.1-4.2-21.3-33.6-24-36-3-2.7-9.6-5-13.5-6.5-3.3-1.2-19.8-5.2-20.5-6-1.5-1.4.4-1.7 1.3-2.2 1.3-.7 11.6-5.7 12.3-5.8 2.6-.4 25.4 6.8 27.4 8.5s8.6 15.3 11 19c5 7.6 19.5 25.4 20.8 33.2.4 2.5.5 4.9-.2 7.3l-26.5 74.9c22.1-8.1 42.1-21.6 63.6-30.8 4.1-1.8 12.4-6.1 16.3-4.6 4.7 1.7 16.6 11.3 22.4 14.6 2.4 1.4 18.7 10.5 19.7 9.8l48.1-125.5c-.2-2.1-12.6-9.7-15.4-11.7-13.3-9.9-23-17.3-37.4-25.6-7.1-4.1-7.5-7.8-8.3-15.7-2.2-22.8-2.4-46.1-4-69-1.5-20.8-6.3-45.1-5-65.5h-.7Zm-649 280c-5.9.4-11.3 6.2-14.4 11.1-12.8 20.4-.6 26.3 1.3 45.5 1.3 13.2-3.2 33.5 4.7 44.3 5.3 7.3 21.6 10.7 30.1 14.9 3.6 1.8 23 13.2 24.8 15.2.4.4 3.3 5.3 3.3 5.6 0 .8-3.5 12.2-3.8 15.8-1.9 24 4.5 52.9 21 71l5 4.5c.9-4.6-1.1-9.2-1.1-13.5 0-12.5 8.2-24.3 10.1-36.5 23.5 5.4 36.4 28.6 51.4 45 11.3 12.4 23.8 14.5 34.1 23.9 6.5 5.9 11.9 15.9 17.5 22.5 14.6 17.4 20.2 23.3 41.3 32.7 29 13 50.6 21 83.2 18.9 16.8-1.1 61.8-19.2 76.4-28.6 16-10.4 26.2-34.2 40.1-45.9 10.6-9 21.7-10.9 32.5-22.5 15.6-16.6 28.5-40.5 52.5-46 .8 9.9 6.9 18.2 8.7 27.8 1.5 7.6.3 13.6.3 21.2 7.8-5.3 15.2-16.8 18.8-25.6 5.4-12.9 8.1-33.2 7.2-46.9-.2-3.4-3.8-17.5-3.5-18.4.6-1.7 3.6-5.7 5.2-6.9 4.5-3.4 17.3-10.6 22.7-13.3 11.7-5.9 31.5-8 33.6-23.4s-.7-31.7 3.8-48.2c1-3.6 5.3-8-1.4-5.4-30.7 11.8-63.4 35.5-93.6 46.4-10.1 3.6-23.8 2.7-32.8 7.2-6.8 3.5-11.5 12.3-16.4 17.6-16.2 17.4-41.8 25.6-65 28-69.4 7-135.6 6.9-205 0-21.7-2.1-46-9.9-62.5-24.5-5.9-5.2-10.7-15.4-19.3-15.2-3.9 0-8.2 3.3-11.2 3.7-5.5.6-22.8-12.9-28.7-16.2-15-8.4-31.4-14.8-46-24-2.8-1.8-16.7-11.4-17.8-13.2-2.8-4.9.2-12 0-17.1 0-10.4-4.3-21.6-7.1-31.5" class="outline" data-original-prefix="outline"/><path id="outline-jaw1" fill="#000000" d="M1253.7 1342.2c12.9-2.4 29.1 10.8 24 24-3.6 9.3-14.2 17-24.2 12.8-15.8-6.5-17-33.6.3-36.8zm12 9.1c-9.3-7.8-20.1 5.1-12.2 15.7s21.4-8 12.2-15.7" class="outline" data-name="outline-jaw" data-original-prefix="outline"/><path id="outline-jaw2" fill="#000000" d="M1313.7 1382.2c20.2-4.4 22.1 39.9-4.2 35.7-17.9-2.8-9.8-32.7 4.2-35.7m.9 9c-3.6.7-12.7 16.2-2.9 17.7 9.1 1.4 10.8-19.2 2.9-17.7" class="outline" data-name="outline-jaw" data-original-prefix="outline"/>
    </g><g class="trait-group" data-category="mouth" id="mouth-OG">
      <path id="fill-muzzle" fill="#ffffff" d="M1125 1622c-3.4-2.3-6.5 6.6-8 8.5-3.7 4.7-17.7 19.6-23.5 19.5-2 0-5.3-4.8-7.8-6.2-7.4-4.3-19.1-5.3-26.8-1.4-4.2 2.2-10.1 9.4-13.4 9.7-7.7.5-10.7-10.3-17-11.2-2.3-.3-9.7-.3-11.5.6-3.2 1.4-8.9 10.8-13.7 11.3-3.1.3-10.3-8.4-13.4-10.2-6.5-3.8-16.5-3-23.5-.6-4.3 1.5-10.5 8-12.8 7.8-5.8-.5-18.9-14.5-22.7-19.3-1.6-2-2.1-4.7-3.5-6.4-5.4-6.8-5.6 3.9-7.6 7.3-9.4 15.7-21-13.3-24.8-18.9-2.4-3.5-7.2-5.7-10-9-9.7-11.6-6.4-27.5-10.3-40.7-1.7-5.8-11.6-19.5-14.9-27.1-10-22.6-12.3-43.5-10.8-68.2-2.4-7.1.4-27.9-4.5-32.5-2.1-2-6.1-2.7-8.5-4.5-5.9-4.5-12.8-32.2-11.9-39.8 1.1-9.4 12.1-25.4 18.4-32.6 12.3-14.3 37.4-24.6 56-26 4.8-.4 28.1 1.1 29.5.5s5.1-5.4 7.1-6.9c8.7-6.5 17-9.5 27.7-11.3 3.7-.6 7.6.4 11-1 3.1-1.3 11.4-13.2 17.3-16.7 10.5-6.1 38.9-5.7 51.5-4.6 5.7.5 13.4 3.6 18 7 3.7 2.8 11.2 13.2 13.8 14.2 3.3 1.4 7.3.4 11 1 8.9 1.5 16.5 3.9 24.1 8.9 2.7 1.8 9.7 8.9 10.7 9.3 1.3.6 23.9-.9 28.5-.6 16.1 1.1 33.8 7.8 46.8 17.2 12.1 8.8 30.2 32.8 28.7 48.3-.4 4.3-7 26.5-9.2 29.8-3.6 5.6-10.6 4.5-13.7 10.3l-3.2 43.8c2 20.7-2.7 38.4-11.1 56.9-3.2 7-11.5 17.9-13.4 23.6-4.4 13-.9 27.8-9.6 40.4-2.9 4.2-8.2 6.2-10.8 10.2-1.6 2.3-2.2 5.7-3.8 8.2-2.8 4.2-10.6 16.7-16.2 14.9-7.1-2.2-6.8-12.8-8-13.6h-.2Z" class="fill" data-original-prefix="fill"/><path id="fill-teeth16" fill="#ffffff" d="M995.3 1525.7c11 9.5 17.2-6.6 23.2 6.3 6.5 14.1 3.7 38.4-1 52.9-.7 2.1-7.1 16.9-8 17.1-1.2.3-3-.4-4.2-.9-12-5.1-31.7-18.1-39.1-28.9-10.6-15.5-6.4-42.9 6.8-55.8 1.3-1.3 9.1-5.6 10.4-5.3 1.5.3 9.4 12.3 12 14.5h-.1Z" class="fill" data-original-prefix="fill"/><path id="fill-teeth15" fill="#ffffff" d="M1039.1 1601.9c-.8-.5-7.5-16.1-8.1-18.4-4.1-13.8-6.5-36.9-1.3-50.3 4.6-12 8.1-4.3 15.8-4.2 9.5.2 17.3-18.2 20.8-17.9 1.2 0 8.5 4.2 9.7 5.3 6.3 6.2 12.2 22.3 13 31 2.4 28-20.3 39.6-41.3 50.7-2 1.1-5.7 5.5-8.6 3.7Z" class="fill" data-original-prefix="fill"/><path id="fill-teeth14" fill="#ffffff" d="M904 1461c0 2.2-1.1 3.8-.8 6.2.2 1.8 7.1 22 8 23.1 3.9 5.1 11.2 3.2 16.7 3.8 4.9 13.5-4.2 23.8-8.6 35.6-2 5.3-8.7 33.1-12.8 34.2-1.8.5-6.8-9.1-8.3-10.7-10.3-23.9-15.3-58.4-2.6-82.2.6-1.2 7.1-11.6 8.4-10.1Z" class="fill" data-original-prefix="fill"/><path id="fill-teeth13" fill="#ffffff" d="M1144 1564c-2.1 1.4-6.1-7.1-6.8-8.7-3.2-7.9-4.4-17.4-7.5-25.5-4.3-11.6-13.6-22-8.6-35.6 4.8-.6 12.3 1.2 15.9-2.9 1.3-1.5 8.1-20.6 8.6-23.2.3-1.8-1.4-7 .9-6 6 2.7 13.7 26 14.4 32.6 1.4 13.9-2.9 45-9.3 57.4-.8 1.5-7 11.6-7.6 11.9" class="fill" data-original-prefix="fill"/><path id="fill-teeth12" fill="#ffffff" d="M1093.1 1644.9c-2.9-1.8-2.4-28.5-2.1-33.4.7-10.5 5.2-31.2 8.9-41.1 1.1-2.8 2.4-1.4 4.2 0 12.2 9.6 21.1 44.8 12.8 57.9-1.9 3-15.6 14.9-18.9 16.1-1.3.5-3.8 1.1-4.8.4Z" class="fill" data-original-prefix="fill"/><path id="fill-teeth11" fill="#ffffff" d="M949 1569c5.5 22 11.1 44.4 9 67.5-.5 5.2-.9 10.3-7 8-3.4-1.3-17.5-13.4-19.5-16.5-5.8-9.2-1.4-31.3 2.7-41.2 1.2-2.9 11.3-21 14.8-17.7Z" class="fill" data-original-prefix="fill"/><path id="fill-teeth10" fill="#ffffff" d="M881.7 1478.3c3.1 2.8-2.7 21-2.8 26.2 0 5.9 2.6 12.4 3.1 18 .2 2.1.7 24.5-.5 24.5-1.5.2-2.1-1.1-2.9-2.1-15.6-18.9-34.8-51.8-17.4-75.3 6.5-8.8 10.5 2.1 14.9 5.8 1.8 1.5 4.9 2.1 5.7 2.8Z" class="fill" data-original-prefix="fill"/><path id="fill-teeth9" fill="#ffffff" d="M1185.7 1467.3c1.9 1.6 7.8 13.7 8.2 16.2 3.2 20.7-9.8 47.3-23.9 61.9-.9 1-1.3 1.9-3 1.5.5-8-.7-16.6 0-24.5.4-5.4 3.1-12.3 3.1-18s-6.1-23.4-2.8-26.2c.6-.6 2.5-.6 3.8-1.7 3.4-3 10-13.1 14.7-9.3Z" class="fill" data-original-prefix="fill"/><path id="fill-teeth8" fill="#ffffff" d="M1018 1613v16.5c0 .9-10.8 13.2-11.9 14.1-6.3 4.8-8-2.6-10.6-5.5-5.5-6-17.9-.4-24.4-5.6-1.2-.9-4.1-8.8-4.1-9.9v-22.5c12.9 1.7 28.3 17.5 41.4 15.9 3.5-.4 6.1-3 9.6-2.9Z" class="fill" data-original-prefix="fill"/><path id="fill-teeth7" fill="#ffffff" d="M1031 1613c6.3 1.3 9.1 4 16.1 2.6 10.6-2.2 24.3-14.8 33.4-15.6 2-.2 1.4 0 1.2 1.3-.8 6.5 2.4 27.5-4.4 31.6-7 4.2-18.8-.3-23.4 4.6-2.1 2.2-3.6 8-8.4 7.6-1 0-14.6-13.5-14.6-14.6V1613z" class="fill" data-original-prefix="fill"/><path id="fill-teeth6" fill="#ffffff" d="M1102.5 1494c3.3-.8 4.5 6.9 5.3 8.7 5.6 12.1 13 24.8 13.3 38.8.2 9-16 29.8-21.3 16.2-4-10.4-4.1-44.8-1.1-55.5.4-1.6 2.4-7.9 3.8-8.2" class="fill" data-original-prefix="fill"/><path id="fill-teeth5" fill="#ffffff" d="M937.3 1559.7c-1.9-1.6-7.8-10.5-8.5-13-3.6-12.1 6-31.3 11.4-42 1.6-3.1 3.3-14.7 8-7.4 5.5 8.5 4.3 41.5 2.7 52.1-1.2 7.7-3.6 18.7-13.6 10.3" class="fill" data-original-prefix="fill"/><path id="fill-teeth4" fill="#ffffff" d="M917 1563c-1.8 13.4 2.9 27.5 2 40.5-.6 9-4.4 18.4-5.5 27.5-6.2-6-10.5-16.1-11.4-24.6-.5-5.2.7-24.7 2.4-29.3.6-1.6 10.5-16.2 12.4-14.1Z" class="fill" data-original-prefix="fill"/><path id="fill-teeth3" fill="#ffffff" d="M1135 1631c-.4-8.9-4.4-17.8-5.1-26.5-1-13.8 3.7-27.6 2-41.5 2.2-2.4 11.9 13 12.5 15 2 6.6 2.6 27.4 1.2 34.3-1.3 6.3-5.5 14.9-10.8 18.7z" class="fill" data-original-prefix="fill"/><path id="fill-teeth2" fill="#ffffff" d="M1154.1 1604.9c-3.4-2-5.1-22.3-3.9-26.2.8-2.6 8.9-5.2 10.2-8.8l5.1-10.9c3.8 3.4 5.1 7.2 4.3 12.2-.7 4.2-5.4 22.7-6.9 26.2-.9 2.2-6.1 9-8.8 7.5" class="fill" data-original-prefix="fill"/><path id="fill-teeth1" fill="#ffffff" d="M885 1559c-.3 3.7 1.7 9.4 4 12.2s9.5 5.2 10 8.3c-2 8.4 1.6 19.2-5.7 25.4-3.6-1.1-6-4-7.4-7.4s-6.5-23.6-6.9-27.1c-.5-4.2 1.2-10.6 5.9-11.4z" class="fill" data-original-prefix="fill"/><path id="shading-mouth2" fill="#aaaaaa" d="M918 1443.5c.8 5.3 5.6 13.8 10.1 16.9 11.5 8.3 16.2-.3 22.4-9.4 2.5 5.4 3.4 11.5 6 17 1.4 2.8 5.7 12 7.5 5.5l4-11.5c1.6 7.5 6.3 15.4 11.5 21 4.3 4.7 18.8 15.4 24.6 9.6 2-2.1 8.3-17.9 10.8-22.2 1.2-2.2 7.8-13.8 9.7-13.3 1 .2 8.5 13.2 9.7 15.3 2.4 4.5 7.3 17.7 9.8 20.2 3.8 3.8 10.5.4 14.4-1.8 10.5-5.9 18.5-17.2 21.7-28.8l4.2 12.3c.3 1.2 1.9 2.4 2.8 1.7.6-.4 5.8-11.3 6.5-13 .8-2 2.8-12 4-12 6.8 10.7 12.9 18.4 24.5 7.5 8.6-8 9.3-23.8 7-34.5 3.5-3.1 21.1 16.1 26.6 16.9 9.1 1.4 17.6-11.8 19-19.9 3.5-20.5-12.9-39.2-30.9-46.2l-12.7-4.8c15.4 0 28.2 2.9 41.1 11.4 4.8 3.1 12.2 10.9 17.6 11.4 6.2.6 10.1-4.1 10-10-.4-19.3-25.8-38.1-39.7-48.8 15.4 2.4 34.6 11.8 45 23.5 7.8 8.8 19.1 25.1 19.1 37s-6.4 28.5-9.2 32.8c-3.3 5.3-11.7 5.4-13.4 10.6-.9 8.1-2.1 16.4-2.5 24.5-1.5 29 1.4 45.2-10.8 73.2-3.6 8.2-12.7 20.4-14.9 27.1-4.2 12.8-.7 26.4-9.1 38.9-3.2 4.8-8.4 6.7-11.2 10.8-1.7 2.5-2.4 6.1-4.2 8.8-4.5 6.7-14.6 23-21.6 8.9-1.6-3.3-1.3-12.9-6.7-6.2-1.4 1.7-1.9 4.4-3.5 6.5-3.7 4.7-17.7 19.6-23.5 19.5-2.2 0-4.5-4.1-6.6-5.4-7.9-5-21.1-6.3-29.2-1.4-7.3 4.4-9.5 13.6-18.1 6.8-8.6-6.7-6.4-10.8-20.1-9-5.6.7-11.4 12.6-16.9 12.1-2.8-.2-11.4-11.1-18.5-12.6-6.3-1.3-17.5.7-23 4.2-2.6 1.7-4.1 5.6-7.5 5.4-5.7-.3-19.8-15.8-23.6-20.5-1.2-1.5-4.4-10.6-7.1-6.9-2.5 3.4-.6 9.9-7.2 12.7-7 3-14.9-11.2-18.1-16.4-1.2-1.8-1.2-4.3-2.6-6.4-2-3-6.8-5.4-9.5-8.5-10.4-11.9-6.7-27.7-10.7-41.3-.8-2.6-5.6-8.5-7.3-11.7-18.4-35.7-16.4-45.6-18.4-84.6-.4-7.7-.6-20.7-2.2-27.8-1.5-6.2-11.1-6.1-14.2-11.8-3.4-6.1-9.3-29.6-8.6-36.4 1.2-10.3 16.2-31.2 24-38 10.5-9.2 26.2-16.5 40-18.5l-21.5 17c-7.2 6.4-26.8 32-14.8 39.9 9 5.9 16.7-4.5 23.7-9.1 12.7-8.4 25.3-11.8 40.7-11.8l-17.3 7.2c-18 9.4-33.1 32.7-22.1 52.8 1.7 3.1 8.6 10.4 12 11.1 9.1 1.7 20.7-15.4 29.5-18 .6 6.4-.9 14.3 0 20.5zm-37.1 40.6c-12.3-.5-17.1-20.2-22.8 1.5-3.4 13 1.2 26.4 9.4 36.5 1.5 1.8 12.7 13.1 13.9 12.9.8 0 2.5-2.3 2.8-3.2 2.9-7.1-3.2-12.2-4.2-19.2-1.5-9.8 0-18.7.9-28.4Zm301.8-8.9c-3.2.8-6.3 6-8.8 7.3-2.1 1.1-7.2 1-7.8 3.2-.5 1.7 3 10.8 2.9 14.8 0 3-1.5 13.9-2.2 16.8-.9 3.6-3.9 5.7-3.9 10.2s1.4 7.1 3.7 7.4c1.9.3 15-14.4 16.8-17 5.7-8.5 9-18.8 7.3-29.2-.5-3-4.4-14.5-8-13.6Zm-284.8 10c-4-2.3-6.5 9.9-6.8 12.5-1.2 10.5 3 38 8.7 47.1 1.9 3 5.4 6.9 9.2 7.3 3.7-15.6 12.6-29.2 21-42.5-2.3-.4-1.7-2.9-2.7-3.5-1.5-.9-7-1.9-9.7-3.1-4.7-2.2-12-7.7-15.6-11.4-1.2-1.2-3.8-6.2-4.2-6.3ZM1139 1552c8.3-2 11.9-12.2 13.9-19.6 3.1-12.1 6.1-33.4 1.1-44.8-3-6.9-5.8 1.7-8.3 4.1-3.9 3.8-11 9.3-16 11.6-2.5 1.1-7.8 1.8-9.1 2.7-.7.5-.5 1.8-1 2.7-.3.4-1.7.4-1.6.9 0 1 7.9 12.3 9.2 14.8 4.8 8.8 9.1 18 11.8 27.7Zm-197.7 5.7c8.1 8.1 9.5 0 10.5-7.3.8-5.6 2.7-20.6 1.7-25.4-3.6-17.2-21.3-15.9-21.6 3.6 0 6.8 4.6 24.3 9.4 29.2Zm161.5-44.5c-5 1.3-8.5 9.3-8.8 14.2-.2 4 2.4 28.5 3.8 31.3 2.5 5 7.5 0 9.8-2.7 6.8-8.3 11.6-30.7 4.5-39.5-2.7-3.3-4.8-4.4-9.2-3.3zM1023 1544c-.7-.7-.8-7-5.1-9.4-8.9-5-21.8-.8-32-4-10.4-3.3-9.4-13.1-16.1 1.8-2.9 6.4-9.1 24.4-6.3 30.7 1.1 2.4 17.8 15.6 21.2 17.8s18.2 11.7 21.1 10c3.1-5.6 9.3-9.5 12.6-14.9 1.8-2.8 4.1-11.5 4.6-11.9 1.6-1.7 1.7.5 2.1 1.4 1.6 3.6 2.1 6.8 4.5 10.5 3.3 5.2 9.2 9.3 12.4 14.6 3.1 1.9 15.5-5.9 18.9-8.1 4.5-2.9 22.9-17 23.9-21.1 2.2-9.7-6.6-28.3-10.9-37.2-4.9 1-7.8 5.2-12.7 6.7-9.2 2.8-28.2-1.6-33.7 6.3-.9 1.2-2.6 8.9-4.5 7zm-136 18c-.7-.6-3.5 0-4.5.9-6 6.2 2.4 31.6 14.6 27.6 4-1.3 3.8-9.4 2.8-12.9-1.1-3.9-7.2-4.1-9.8-7.2-2.1-2.5-2.7-8.2-3-8.5Zm274.1 0c-.3.3-.9 6-3 8.5-2.6 3.1-8.7 3.3-9.8 7.2-1 3.4-1.2 11.6 2.8 12.9 13.4 4.4 20.2-24.5 14.1-28.1-.9-.5-3.5-.9-4-.4Zm-216.4 7.2c-1.5.4-5.1 4.6-6 6.1-3.4 5.6-5.6 32.3-4.8 39.3 1.3 10.9 15.2 18 19.5 3.5 1.7-5.6 2.6-21.4 2.5-27.6 0-1.1-5.8-19.7-6.5-20.5-1.2-1.4-3.2-1.3-4.8-.8Zm153.3-.1c.2 6.6-5.4 14.7-6 20.6-.5 4.5 1 25.3 2.4 29.4 4.2 12.1 16.9 7.3 19.1-2.9 1.1-5.2 0-16.8-.6-22.6-1-9.7-1.7-25.5-14.9-24.5m-180 1.9c-20.5 3.8-17 28.7-9 43 4 2.9 10.4-17 10.7-19.8.9-7.5-2.9-15.5-1.8-23.2Zm218 43c2.5 1.8 7.2-9.1 7.7-10.8 3.9-12.8 1.6-30.1-13.7-32.2.5 7.4-2.8 16.2-1.9 23.4.3 2.7 6.4 18.5 7.9 19.6m-148.2 10.2c1.4.8 4.8 8.6 9.5 11 11.1 5.8 20.2-6.4 20.7-16.7.8-13.7-7.2-7.7-16.5-8.6-8.4-.8-15-4.8-21.8-9.2-5.5-3.5-13.6-14.6-14.7-1.4-.5 5.1 1.4 7.5 1.8 11.2s-2 5.9.5 10.7c4.8 9.3 18 1.3 20.7 2.8zm93.1-31.1c-2.1-1.5-19.7 12.7-23.9 14.4-2.3 1-7.9 2.3-10.5 2.5-10.5.9-18.8-5.4-16.4 11.4 1 7.3 7.9 15.8 16 15.1 9.4-.8 11.9-11.6 14.6-12.4 4-1.3 12.3 5.7 18.9-1.1 4.3-4.4 1.3-8.4 1.5-12.5 0-2.3 1.9-4.8 2-8.1 0-1.9-.8-8.5-2.2-9.4Z" class="outline shading" data-original-prefix="shading" opacity="0.5" style="opacity: 0.5"/><path id="shading-mouth1" fill="#aaaaaa" d="M1041 1343c6.1.5 12.7-1 17.5-5 1.5-1.3.9-3.7 2.8-2.9 10.1 7.9 37.9 17.4 43.8 28.2 3.6 6.5 4.6 17.5-1.8 22.6-5.6 4.5-20.8 10.8-28 15-4.9 2.8-9.7 6.6-14.7 9.3-7.4 4.1-25.5 14.5-32.6 16.4-2.9.8-5.2.8-8.1 0-14.5-3.8-42.2-22.5-56.3-30.7-6.2-3.6-21.2-9.1-23.2-15.8-5.5-18.4 15.7-28.3 28.7-35.4 2.3-1.2 15.5-8.6 16.5-8.7 2.9-.3 4.2 2.9 6.7 4.2 4.2 2.3 10 3.2 14.7 2.8-.3-5.1-3.3-11.3-1.8-16.3.5-1.6 12.5-13.9 14.5-14.4 3.9-1 8.2-.3 11.6 1.9 1 .7 10.8 11.1 11.2 11.8 2.1 5-1.2 11.8-1.5 17" class="outline shading" data-original-prefix="shading" opacity="0.5" style="opacity: 0.5"/><path id="outline-mouth3" fill="#000000" d="M888 1333c-.7 1.9-2.2 2-3.8 2.7-12.3 5.2-24 8.3-33.2 18.8-6.6 7.6-18.9 26-18 36 .3 4 7.1 25.8 9.2 28.8 2.7 4 6.1 4.9 10.8 4.7-1.4-9 4.2-18.1 9.6-24.9 2.2-2.8 21.9-22.6 24.4-20.1-1.7 6.5-8.8 10.4-13 15.5-8.1 10-12.3 23.6-9.5 36.5 1.2 5.4 11.2 26 15 30 .6.7 7.1 6.3 7.5 6.5 2.4 1.2 5.6-3.8 6.5-5.5 2.5-4.3 3.1-9.7 5-14 4.4-10.2 9.3-18.3 18.5-25-5 13.9-9.5 44.6 1.5 56.1 4.6 4.8 11 2.5 15 5.1 2.1 1.3 2.5 5.4 4.2 5.8s7-3.1 9.4-3.5c9-1.4 12.6 16.9 18.7 17.4 2.5.2 10.2-12 18.4-9.4 5.5 1.8 19.2 24.8 24.4 23.6 5.8-5.9 3.6-12.3 5-19 1.5-7.6 8.3-12.6 9.4-22.6.8-7.2-1.7-26.6-4.7-33.1-1.1-2.3-5.5-10.7-6.8-12.2-3.4-4-15-9.2-19.8-6.1l-4.2 11.1c-4.8-4.4-9.5-9.2-14.5-13.5-3.7-3.2-10-6.8-13-9.9-4-4.2-15.6-27.9-15.7-33.2 0-6.8 17.5-22.4 21-29 5.4-4.1 29.2-2.8 35.7.2 8.4 3.8 12.4 12.1 18.5 17.5 5.2 4.5 2.5-1.7 2.5-3.6s.9-3.2.8-4.8c-.2-5.4-6.7-9.2-9.9-13.1-2-2.4-5.6-6.2-7-8.2-.9-1.3-4.9-7.8-5-8.8-.2-2.6 9.1-11.7 11.5-12.4 3.6-1-.5 5.5-.5 6.6-.4 5.2 5.9 4.1 9.3 5.6 1.2.5 3 2.7 3.2 2.7s2.4-2.7 3.8-3.2c7.8-3.2 11 1.2 6.8-11.7 1.6-1.7 12.5 9.1 12.9 11.7.6 4.5-17.6 23.1-21.1 27.5l-.8 12.7c1.7.4 2-.7 3-1.5 8.7-6.7 12.6-16.8 24.9-19.1 5.5-1 25.6-1.3 29.8 1.8 3.4 6.7 20.4 21.8 21 28.4.4 4.3-10.8 27.3-13.9 31.7s-9.8 7.6-13.8 11.2c-5.3 4.6-10.3 9.8-15.5 14.5-2.2.9-1.4-5.6-2.2-7.7-3.4-8.6-19-1.6-22.7 3.8-.7 1-7.1 13.9-7.3 14.7-2.7 12.8-5.5 27.3-.2 39.8 1.5 3.5 4.6 6.8 5.8 10.2 2.5 7.2-.5 15.2 5.8 21.2 9.4-2.8 19.1-24.9 27.9-24 5.2.5 13.2 10 14.9 9.8 5.8-.5 9.3-18.7 18.7-17.4 2.4.3 7.6 3.9 9.3 3.4s2-4.8 4.8-6.1c3.8-1.8 9.4-.4 13.3-3.7 11.5-9.7 8.1-43.1 2.5-56 1.6-1.7 11.3 10.4 12.4 12.1 5.1 7.8 6.1 15.5 9.7 23.3 1 2.1 4.8 9.8 7.8 8.2.4-.2 6.9-5.9 7.5-6.5 6.8-7.5 16-30.4 15.4-40.5-1.3-22.7-10.7-22.7-21.5-37.5-5.3-7.2 2.8-2.4 6 0 11.8 8.6 28 25.5 26.5 41 11.6 1.1 13.6-11.4 16.3-20.2 4.6-15.6 5.3-18.8-3.1-33.4-8.2-14.3-16.4-22.7-31.5-29.5-5.8-2.6-13.2-3.6-17.7-7.8 15.9 1.8 34.5 6.4 49 13.5 8.3 15 22.1 26.8 28.1 42.9l-15.2 44.9c-.9 3.7-13 4.8-13.8 5.8-.6.8-2.2 17.2-2.2 19.4-.2 31.7 2.4 50.4-13.1 79.9-2.6 5-12 16.3-12.6 19.4-.9 4.6 0 10.4-.5 15.5-.9 8.4-5.8 16.4-6.7 23.4-.4 3.5 1.3 7.7.8 9.7s-10.7 8.6-13.2 9.9c-2.2 1.2-5.7 1.5-6.5 2-.6.4-5.2 10.6-7.2 13.2-2.2 2.8-13.6 14.5-16.9 12.4-.6-.4-5.9-11.8-7.1-13.3-2.2-2.9-2.2 2.1-3.2 3.8-4.6 7.3-24.8 27-32.8 29.2-1.7.5-3.3.7-5 .5 1.1-8.2 2.6-16.6-8-18.6-9.7-1.8-16.2 7.5-18.5 15.6-1.2 4.3-1.2 16.7-7.8 14.9-4.3-1.2-20.3-25.6-23.2-30.8-5.5 8.6-11.5 19.1-18.5 26.5-1.8 1.9-6.9 7.7-9.3 3.3-2.8-5.3-2.5-14.6-5.5-20.5-3.8-7.2-14-11.7-21.2-6.8-6.6 4.6-2.9 10-3 16.5-3.4 3.4-23.5-12.8-26.5-15.9-1.5-1.5-11.4-13-11.9-14.1-.7-1.4-.2-6.3-2.6-3.3-2.1 2.6-6 14.4-10.2 13.3-2-.6-12-10.2-13.7-12.4-2.1-2.7-6.6-12.8-7.2-13.2-.8-.5-3.8-.6-5.8-1.7-2.5-1.4-11.8-7.1-13-9-2.3-3.8.4-6.7 0-10.8-1-7.2-5.8-15.5-6.7-24.4-.5-5 .6-10.7-.6-15.4-1-3.9-7.9-9.8-10.7-14.3-10.4-16.9-15.8-37.5-16.8-57.2-.8-15.6 1.6-31.1 0-46.5-18.8 0-17.3-14.5-21.7-27.8-2-5.8-9-19.6-8.1-24.5.6-3.1 5-9.2 7-12.1 2.9-4.3 18.7-27.3 20.9-29.1 1.7-1.4 8.5-4.5 10.7-5.3 9.6-3.2 28.2-7.1 38.2-8.3v-.7Zm16 128c-1.4-1.5-7.8 8.9-8.4 10.1-12.7 23.9-7.6 58.3 2.6 82.2 1.5 1.6 6.5 11.2 8.3 10.7 4.1-1.1 10.8-29 12.8-34.2 4.4-11.8 13.5-22.1 8.6-35.6-5.5-.6-12.8 1.4-16.7-3.8-.9-1.1-7.8-21.4-8-23.1-.2-2.4.8-4 .8-6.2Zm240 103c.6-.4 6.8-10.5 7.6-11.9 6.4-12.5 10.7-43.5 9.3-57.4-.7-6.6-8.4-30-14.4-32.6-2.3-1-.6 4.2-.9 6-.5 2.7-7.2 21.8-8.6 23.2-3.6 4.1-11.1 2.3-15.9 2.9-5 13.6 4.3 24 8.6 35.6 3 8.1 4.3 17.7 7.5 25.5.7 1.6 4.7 10.2 6.8 8.7m-262.3-85.7c-.8-.7-3.9-1.3-5.7-2.8-4.4-3.7-8.4-14.6-14.9-5.8-17.4 23.5 1.8 56.3 17.4 75.3.8.9 1.5 2.3 2.9 2.1 1.2 0 .7-22.5.5-24.5-.5-5.6-3.2-12.1-3.1-18 0-5.2 5.9-23.5 2.8-26.2Zm304-11c-4.6-3.9-11.2 6.2-14.7 9.3-1.3 1.1-3.1 1.1-3.8 1.7-3.3 2.9 2.8 21 2.8 26.2s-2.6 12.6-3.1 18c-.7 7.9.4 16.5 0 24.5 1.7.4 2-.5 3-1.5 14.2-14.6 27.2-41.2 23.9-61.9-.4-2.6-6.3-14.7-8.2-16.2Zm-83.2 26.7c-1.4.3-3.3 6.6-3.8 8.2-3 10.7-2.9 45.1 1.1 55.5 5.3 13.6 21.4-7.2 21.3-16.2-.2-14-7.6-26.7-13.3-38.8-.8-1.8-2-9.4-5.3-8.7m-165.2 65.7c10 8.3 12.4-2.6 13.6-10.3 1.6-10.6 2.8-43.6-2.7-52.1-4.7-7.3-6.5 4.3-8 7.4-5.3 10.7-15 29.9-11.4 42 .7 2.4 6.6 11.4 8.5 13m58-34c-2.6-2.2-10.5-14.2-12-14.5-1.3-.2-9.1 4.1-10.4 5.3-13.2 13-17.5 40.3-6.8 55.8 7.4 10.8 27.1 23.8 39.1 28.9 1.2.5 3 1.2 4.2.9.9-.2 7.4-15 8-17.1 4.7-14.6 7.5-38.8 1-52.9-5.9-13-12.1 3.2-23.2-6.3h.1Zm43.8 76.2c2.9 1.8 6.6-2.7 8.6-3.7 21.1-11.1 43.7-22.7 41.3-50.7-.7-8.7-6.7-24.8-13-31-1.2-1.1-8.4-5.2-9.7-5.3-3.5-.3-11.2 18.1-20.8 17.9-7.8-.2-11.2-7.8-15.8 4.2-5.2 13.4-2.8 36.6 1.3 50.3.7 2.3 7.3 17.8 8.1 18.4ZM885 1559c-5.2 1.1-6.5 7.6-5.8 12.2s5.4 23.4 7 27c1 2.2 6.2 8.5 8.7 6.7 3.4-2.4 3.2-20.7 4.1-25.4-.6-3-7.8-5.5-10-8.3s-4.3-8.6-4-12.2m269.1 45.9c2.7 1.5 7.8-5.3 8.8-7.5 1.5-3.4 6.2-22 6.9-26.2.8-5-.5-8.8-4.3-12.2l-5.1 10.9c-1.4 3.6-9.4 6.1-10.2 8.8-1.2 3.9.5 24.2 3.9 26.2M917 1563c-1.9-2.2-11.8 12.5-12.4 14.1-1.8 4.6-2.9 24.1-2.4 29.3.8 8.6 5.2 18.6 11.4 24.6 1.1-9 4.9-18.4 5.5-27.5.9-13-3.8-27.1-2-40.5Zm218 68c5.2-3.8 9.5-12.5 10.8-18.7 1.4-6.9.7-27.7-1.2-34.3-.6-1.9-10.4-17.4-12.5-15 1.7 13.9-3.1 27.7-2 41.5.7 8.7 4.6 17.6 5.1 26.5zm-186-62c-3.4-3.2-13.6 14.8-14.8 17.7-4 9.9-8.4 31.9-2.7 41.2 2 3.2 16 15.2 19.5 16.5 6 2.4 6.5-2.8 7-8 2.1-23.1-3.5-45.4-9-67.5Zm144.1 75.9c1.1.7 3.6 0 4.8-.4 3.2-1.2 16.9-13.1 18.9-16.1 8.3-13.1-.6-48.3-12.8-57.9-1.8-1.4-3.1-2.8-4.2 0-3.7 9.9-8.2 30.6-8.9 41.1-.3 4.8-.8 31.5 2.1 33.4ZM1018 1613c-3.5 0-6.1 2.5-9.6 2.9-13.1 1.6-28.5-14.2-41.4-15.9v22.5c0 1.1 2.9 9 4.1 9.9 6.5 5.2 18.9-.4 24.4 5.6 2.6 2.9 4.3 10.3 10.6 5.5 1.1-.8 11.9-13.1 11.9-14.1v-16.5Zm64-13c-13.3 1.4-27.9 17.6-41.4 15.9-3.5-.4-6.1-3-9.6-2.9v17.5c4.1 2.4 11.4 14.9 15.4 14.5 5.4-.5 6.1-8.2 10.5-9.6 5.4-1.7 16.2 1.1 21-3 1-.8 4-9.7 4-11v-21.5Z" class="outline" data-original-prefix="outline"/><path id="outline-mouth2" fill="#000000" d="M1011 1292c-6.2 1-21.6 9.8-26 14.5-2.9 3.1-3.9 7.2-7.2 9.8-18.9.8-35.9 5.2-50.3 17.8-.9-.2-.3-1.9-.5-2 1.1-8.8 19.3-26.2 27.4-25 3.5.5 2.6 4.8 10 4 10.8-1.2 17.8-10.7 19.4-20.7.4-2.5-1.9-5.2 1.2-6.7 4.7-2.2 21.7 4.7 26 8.5z" class="outline" data-original-prefix="outline"/><path id="outline-mouth1" fill="#000000" d="m1122 1332-.5 3c-10.9-11.7-25.5-16-41-18-2.9-.4-6.9.7-9.5-.5-1.5-.7-4.5-7.4-6.5-9.5-3.4-3.8-14.1-10.6-19-12s-4.7-.4-8.6-2.9c4.2-4.1 21-10.8 26-8.5 3.1 1.5.8 4.2 1.2 6.7 1.9 11.3 12.7 24.5 25 19.5 4-1.6 2.6-4.3 9.2-1.6 10.8 4.4 18.3 14 23.6 23.9h.1Z" class="outline" data-original-prefix="outline"/>
    </g><g class="trait-group" data-category="eyes" id="eyes-wayfairer">
      <path id="fill-head4" fill="#ffffff" d="M1241.1 1390.9c-16.6.9-35.8.2-54.8-1.2-25.5-1.9-51.3-3-76.2-9.7-9.7-2.6-17.8-8-26-13.2-9.1-5.8-17.7-12.3-26.7-18.3-2.9-1.9-3.7-4.7-4.2-7.5-3.6-22.9-9-45.4-13.3-68.1-1-5-3.4-7.6-9-8.2-5-.5-9.9-.4-14.8.2-3.9.5-6.3 2.3-7.1 6.4-3.9 19.3-7.9 38.5-11.8 57.8-.8 4.1-1.2 8.2-2.1 12.2-.6 2.9-1.6 5.5-4.4 7.4-12.5 8.5-24.7 17.4-37.8 24.9-10.3 5.9-21.5 8.6-32.9 10.2-17.6 2.5-35.3 3.9-53 5.3-32.9 2.5-65.9 2.6-98.8 1.4-23.5-.8-46.8-5-69.9-9.2-7.5-1.3-14.9-2.9-22.4-4.2-2.1-.4-3.4-1-3.6-3.3-2-22.2-9-43.3-14.5-64.7-8.8-34.2-18.5-68.2-26-102.8-.2-1-.5-1.9-.5-2.9-.5-7.8-3.3-13.3-12.2-13.4-4 0-6.1-2.6-7.7-5.9-6.1-12.5-14-24-18.4-37.4-1.5-4.6.2-6.1 3.5-7.6 5.5-2.4 11.4-3.3 17.3-4.1 10.3-1.4 20.7-2.8 31-4.2 3.4-.4 4.9-2.2 5.7-5.7 5.8-27.8 14-54.7 27-80.1 7.5-14.5 16.7-27.9 26.7-40.7 2.8-3.6 6.4-6.2 11.6-5.4 3.9.6 6-1.3 8.3-4.6 5.8-8.2 12.3-16 18.8-23.7 6.9-8.2 14.3-15.7 22-23.1 24.1-23 50.4-43.2 79-60.3 19.3-11.5 39.5-21.2 60.4-28.9 13.9-5.1 28.8-7.4 43.3-10.4 34.1-7.1 68.7-6.6 103.2-5.8 22.5.5 44.8 3.8 66.7 9.2 4.7 1.1 9.4 1.9 14 3.2 21.8 6.1 42 15.8 61.8 26.5 18.3 9.9 35.5 21.5 52 34 18.6 14.1 36.2 29.3 51.9 46.4 10.1 10.9 20 22.1 28.2 34.6 2.1 3.1 5.4 2.8 8.1 2.6 6-.4 9.4 2.9 12.8 7.1 26.3 32.7 41.7 70.4 50.7 111 .2.8.5 1.6.7 2.4 2.6 13.9 1 10.2 15.1 12.7 12 2.2 24.3 2.8 36.1 6.2 1.4.4 2.8 1 4.1 1.7 2.6 1.4 3.6 2.9 2.4 6.4-4.8 14.6-13.2 27.5-20.3 40.9-1.9 3.6-6.3 3.5-9.7 3.8-4.7.5-6.6 3-7.4 7.2-5.4 28.8-13.4 56.9-20.7 85.2-6.7 25.9-14.5 51.5-19.7 77.8-.7 3.7-1.4 7.5-1.5 11.3 0 3.4-1.6 4.6-4.6 5.2-16.9 3.2-33.8 6.2-50.9 8.5-12.8 1.7-25.6 3.9-38.4 4.8-12.8.8-25.7 0-41.1 0Z" class="fill" data-original-prefix="fill"/><path id="fill-head3" fill="#ffffff" d="M1236.9 1160.8c28.5-1 56.9-1.5 85.4.2 18.3 1.1 36.4 3.8 54.4 6.9 3.3.6 2.7 2.2 2.6 4.6-3.4 53.6-16.5 105.2-31.8 156.4-3.7 12.4-3.9 12.1-16.8 13.2-27.4 2.4-54.6 5.7-82.1 7.2-34.5 1.9-68.9 1.8-103-4.4-10-1.8-19.8-4.2-29.7-6.6-19-4.5-26.9-18.5-31.9-35.9-8.3-28.9-10.6-58.8-15.8-88.2-1.7-9.5-3.2-19-5.3-28.4-.7-3.3 0-4.1 3-5 18.7-6.2 38.1-9.3 57.5-11.7 37.6-4.7 75.6-6.4 113.5-8.3" class="fill" data-original-prefix="fill"/><path id="fill-head2" fill="#ffffff" d="M811.3 1160.9c44.2 2.3 88.5 3.9 132.4 11.1 13.1 2.1 26.1 4.8 38.8 9 2.7.9 3.3 1.8 2.7 4.7-6 29.5-9.5 59.5-14.5 89.1-2.4 13.8-5.8 27.6-11.2 40.7-5.9 14-17.3 20.6-31.5 24.1-37.5 9.2-75.5 11.9-114 10.4-31-1.2-61.8-4.6-92.6-7.6-4.5-.4-9-.9-13.4-1.1-2.8 0-3.9-1.4-4.7-4-11.3-34.8-20-70.3-26.9-106.2-3.8-19.6-6.6-39.3-7.6-59.3-.2-3.1.9-3.5 3.4-4 23.8-4.4 47.7-7.2 71.9-7.7 22.3-.4 44.8-.5 67.2.8" class="fill" data-original-prefix="fill"/><path id="fill-head1" fill="#ffffff" d="M829.9 1133.2c35.9-.6 79.5.9 122.9 6 22.5 2.6 44.7 6.5 66.8 11.2 6.3 1.3 11.9-.7 17.7-1.8 36.1-7 72.5-11.7 109.3-13.8 52.5-3 104.9-1.3 157.3 1.9 37.4 2.3 74.7 5.2 111.8 10.2 6.2.8 12.5 1.3 18.5 3.6 2.9 1.1 3.6 2.5 2.2 5.2-3.7 7.2-7.2 14.5-10.9 21.8-1.4 2.7-3.5 4.2-6.9 3.7-2.7-.4-5.4-.2-7.8 1-1.8.9-3.4 2-3.6 4.3-3.1 26.8-10.7 52.7-17.5 78.8-8.6 33.2-17.8 66.2-26.6 99.3-.6 2.1-1.7 2.5-3.2 3.1-12.8 5.3-26.4 7.5-40 9.2-33.6 4.3-67.3 6.4-101.2 5.9-31.2-.5-62.2-2.3-93-7.8-11.7-2.1-21.7-8.1-31.8-13.7-7.4-4.1-14.8-8.3-22.2-12.4-5-2.7-7.7-7.3-9.5-12.4-7.5-20.8-13.3-42.1-18.2-63.6-2.9-12.5-2.7-12.6-15.8-13.5h-1.5c-18.2-1.2-19.6-.2-23.6 17.1-4.6 19.9-10.2 39.5-16.9 58.8-2.4 7.1-6.7 12.2-13.6 15.7-9.8 4.9-19.2 10.5-28.7 16.1-12.4 7.3-26.2 9.3-40.1 10.9-39.5 4.8-79 6.2-118.7 4.1-28.1-1.5-56-3.8-83.7-9.7-11.1-2.3-17.1-7.1-20.1-19.3-11.3-46.2-25-91.8-35.6-138.2-2-8.7-3.4-17.6-4.9-26.4-.8-5.1-3-7.8-8.6-7.2-6.7.7-9.7-2.4-12-7.8-2.5-5.7-5.3-11.4-8.3-16.9-2-3.7-.8-5.5 2.8-6.5 8-2.2 16.3-3.1 24.5-4.1 60.8-7.3 121.7-11.1 190.7-12.7Zm411.9 9.1c-68 1.2-106.2 5.4-157.7 14.6-11.3 2-22.6 3.9-33.4 7.8-4.7 1.7-7.2 4.8-6.7 9.8 1.1 9.7 2.1 19.5 3.7 29.1 3 17.5 6.7 34.9 9.5 52.4 4 24.8 7.3 49.6 17.9 72.8 1.2 2.6 2.7 4.8 4.8 6.8 17.3 16.1 38.6 22.4 61.2 25.2 27.2 3.4 54.7 3.8 82.1 3.8s55.6-.9 83.4-2.9c12.2-.9 24.5-1.8 36.5-4.8 6.1-1.5 10.5-4.6 12.1-11.1.6-2.4 1.9-4.6 2.7-6.9 14.4-41.4 23.8-84 31.7-127 2.7-14.3 4.2-28.9 4.4-43.5 0-2.8-.2-7-1.8-7.6-4.7-1.5-8.8-4.1-13.7-5.2-20.5-4.8-41.2-8.1-62.2-10.1-27.1-2.4-54.2-3.1-74.5-3.2m-428.8.2c-36.8-.4-73.5 1-109.9 6.8-15.4 2.4-31.2 3.9-45.5 11.4-1.4.8-2.3.5-2.8 2.6-1.4 6.4-.4 12.7 0 19.2 1.2 18.5 4.5 36.5 8.3 54.6 7.7 36.4 16.1 72.6 28.9 107.7 2.5 6.8 6.4 11 13.8 12.6 16.5 3.6 33.3 4.6 50 5.5 37 2 74.1 2.8 111.2 1.2 3.3 0 6.6-.7 10-.8 18.3-.3 36.4-2.4 54.2-7.2 14.7-4 27.1-11.6 38.3-21.6.7-.7 1.5-1.4 1.8-2.3 3-8.1 7.4-15.7 9.5-24.1 6-24.6 9.4-49.7 14.2-74.6 3.7-18.8 6.4-37.8 8.9-56.8.8-6-1-9.5-6.6-11.8-1.8-.8-3.7-1.4-5.7-1.9-21-5.2-42.3-8.9-63.7-11.9-38-5.4-76.3-8.4-114.9-8.6" class="fill" data-original-prefix="fill"/><path id="shading-head9" fill="#aaaaaa" d="M727 1159h16.4c-9-4.1-18.4-5.7-28.3-9.7 31.2-3.5 61.4-5.2 91.7-5.3 2.5 0 4.4.8 6.3 2.3 6.2 4.9 12.6 9.7 19 14.6-5.1-.2-10.4 1-15.6-.7-2.6-.8-4.2.2-5.5 2.7-29.1 60.2-64.6 117-95 176.6-.6 1.2.4 4.8-3.7 3.7-4.2-1.1-9.6 1.2-11.4-5.1-6.6-22.7-13.4-45.4-18.6-68.4-4-17.6-7.8-35.2-10.5-53.1-2.2-14.8-4.3-29.5-5-44.4-.2-4.3 1-5.9 5.6-6.4 10.2-1.1 20.3-3.2 30.4-4.7z" class="outline shading" data-original-prefix="shading" opacity="0.5" style="opacity: 0.5"/><path id="shading-head8" fill="#aaaaaa" d="M972.8 1140.1c-8.9-1.1-16.9-2.2-24.9-3.3-.7 0-1.5-.8-2-1.4-12.3-15.3-28.6-25.7-43.8-37.6-34.7-27.1-73.9-45.7-115.2-60.3-18.4-6.5-36-15.1-55-20.4-8.1-2.3-8.6-5-3.5-12.1C777 936.5 842 890.1 920.9 862.4c6.8-2.4 13.9-4 21.4-4.9-5.6 4-10.7 9.1-16.9 11.9-35.8 16.3-61.5 43.8-84 74.8-9.8 13.5-18.1 27.8-25.6 42.7-5.2 10.3-3.3 19.8 1.5 28.9 4.4 8.4 10.3 15.9 16.4 23.2 4.9 5.8 10.7 10.2 17.6 13.6 31.8 15.6 63 32.4 93.3 50.9 8.8 5.4 16 11.6 20.1 21.3 1.8 5.2 5 9.8 8.1 15.3" class="outline shading" data-original-prefix="shading" opacity="0.5" style="opacity: 0.5"/><path id="shading-head7" fill="#aaaaaa" d="M1075.1 1140.2c5.2-9.4 9.7-17.9 14.6-26.2 1.8-3.1 5.2-4.6 8.2-6.4 30.8-19.8 63.1-37.2 96-53.2 10.1-4.9 18.4-11.3 24.7-20.3 6.2-8.9 14.1-17 16-28.4 1.1-6.2.9-11.9-2.1-17.9-18.6-37.7-43.4-70.5-75.7-97.5-8.8-7.4-19-12.9-29.3-18-7.8-3.9-14.2-9.7-22.1-14.6 3.2-1.4 5.4.2 7.5.7 38.3 9.8 72.8 27.9 105.8 49.2 25 16.2 47.4 35.5 68.1 56.7 12.8 13.2 23.8 27.9 34.3 42.9 3.1 4.4 2.5 7.2-2.8 9.1-7.8 2.9-16 4.5-23.6 7.7-42.5 17.6-86.8 31.2-125.4 57.1-20.5 13.7-39.9 28.8-58.7 44.8-1.3 1.1-2.8 2.1-3.6 3.5-3.8 7.1-10.2 8.6-17.5 8.8-4.5 0-8.9 1.2-14.4 2" class="outline shading" data-original-prefix="shading" opacity="0.5" style="opacity: 0.5"/><path id="shading-head6" fill="#aaaaaa" d="M962.9 1159.2c7.7 0 15 2.6 22.5 3.9 1.6.3 2.2 1.8 3.1 3.1 3.8 5.6 6.2 12.2 11.8 16.6 1.3 1 .7 2.5.5 3.8-1.3 13.8-3.1 27.5-5.9 41-2.2 10.6-5.1 21-5.9 31.8-.2 2.6-2.1 3.8-4 4.8-11.4 5.9-13 17.2-15.1 28.1-1.1 6-3.1 11.5-5.6 17-2.5 5.6-4.8 11.3-6.2 17.3-.5 2.2-1.8 4.4-3.7 4.1-4-.7-6 2-8.6 3.8-11.3 7.9-24.3 11.1-38.4 15.2 4.2-7.9 7.7-14.7 11.4-21.5 20.8-38.4 41-77.2 61-116.1 4.4-8.7 3.8-18.5 6.3-27.6.4-1.4-.4-2.1-1.7-2.6-4.5-1.5-9-3-13.5-4.6-3.1-1.1-4.6 0-6.3 2.8-27.3 41.2-52.4 83.8-76.5 127-8 14.2-16.1 28.3-23.3 42.9-1.5 2.9-5.1 1.9-7.3 2-11 .6-22 .5-33 .2-4.7 0-2.1-3.1-1.1-4.8 6.2-11.2 12.6-22.3 18.9-33.4 26.7-46.8 53.4-93.6 79.2-140.9 4.2-7.8 5.7-8.4 14.6-7 11.5 1.8 22.9 3.5 35 5.3-3-4.7-5.6-8.5-8.2-12.2" class="outline shading" data-original-prefix="shading" opacity="0.5" style="opacity: 0.5"/><path id="shading-head5" fill="#aaaaaa" d="M1260.4 1349.9c10.7-23.1 21.3-46 31.9-68.9 17.3-37.8 34.7-75.5 50.3-114 1.3-3.1 2.4-5.7-2.6-6.3 8.9 1.2 17.8 2.4 26.6 3.7 2.7.4 5.4 1.6 8.1 1.5 5.1-.2 6.5 1.9 6.2 6.7-.7 12.3-2.3 24.4-3.9 36.6-2.1 16.8-5.7 33.4-9.3 49.9-5.2 24.2-11.6 48.2-19 71.9-4 12.7-4.2 12.4-17.6 13-12.9.6-25.8 2.6-38.7 3.7-10.4 1-21 2.7-32 2.2" class="outline shading" data-original-prefix="shading" opacity="0.5" style="opacity: 0.5"/><path id="shading-head4" fill="#aaaaaa" d="M1085.8 1158.3c-4.1 5.8-7.5 10.4-11.4 16 9.6-1.3 17.9-2.4 26.3-3.6l54-7.8 18.3-2.7c1.9-.3 3.7-.4 5 1.3 1.6 2-.5 3.1-1.1 4.3-28.2 51.7-56 103.5-83.5 155.5-.8 1.6-1.3 3.4-2.9 4.5-6-14.6-12-29.1-14.8-44.6-1.4-7.5-5.2-13.1-11.8-16.8-3.4-1.8-4.4-4.6-4.8-8.5-1-11.1-4-21.9-6.1-32.8-2.2-12.1-4.1-24.3-5.5-36.5-.2-2.1 0-3.5 1.8-5.2 4.4-4.1 7-9.7 10-14.8 1.4-2.3 3.1-3.7 5.8-4.2 6.3-1.1 12.8-2.4 20.7-4.1" class="outline shading" data-original-prefix="shading" opacity="0.5" style="opacity: 0.5"/><path id="shading-head3" fill="#aaaaaa" d="M1183.8 1350.9c34.2-62.8 66.7-126.4 96.6-192.2-22.4 2.6-44.1-.2-65.7 2.6 7-4.3 13-9.6 19.3-14.5 2.5-2 5-2.8 8.2-2.8 29.8.2 59.6 1.8 90.6 5.3-9.9 4-19.4 5.6-28.3 9.1 7.8 1.3 15.9-.5 25 2.5-3.7-.3-4.6 1.3-5.6 3.1-34.5 60.8-66.2 123-98 185.2-1.1 2.1-1.8 2.9-4.2 2.9h-29.5c-2.9 0-5.6-1.8-8.4-1.2" class="outline shading" data-original-prefix="shading" opacity="0.5" style="opacity: 0.5"/><path id="shading-head2" fill="#aaaaaa" d="M793.5 1132.4c-9.1.5-18.2 1-27.3 1.4-20.6.9-41.2 2.2-61.8 4.1-2.6.2-4.8-.2-7.1-1.5-8.4-4.5-16.9-8.8-25.6-13.2 8.9-5.1 11.1-14.6 14.6-22.8 3.5-8.1 8.1-10.3 16.7-10.7 14.6-.7 27.1 2.5 39.3 10.6 15.1 10 31 18.7 46.6 28.1 1.7 1 3.3 2.1 4.9 3.2 0 .2-.2.5-.3.8" class="outline shading" data-original-prefix="shading" opacity="0.5" style="opacity: 0.5"/><path id="shading-head1" fill="#aaaaaa" d="M1377.4 1122.9c-10.7 4.4-19.2 9.4-27.9 14-1.7.9-3.4 1.1-5.2 1-28.7-2.5-57.4-4.1-86.2-5.2-1.3 0-2.6-.3-3.9-.5.4-1.8 1.8-2.1 2.9-2.8 21-12.5 42.1-25 63.1-37.5 2.7-1.6 5.4-2.3 8.5-2.2 7.7.2 15.3.4 23 .2 3.6 0 5.4 1.2 6.8 4.4 2.6 5.8 5.5 11.4 8.3 17 2.2 4.5 3.6 9.7 10.6 11.6" class="outline shading" data-original-prefix="shading" opacity="0.5" style="opacity: 0.5"/><path id="outline-head3" fill="#000000" d="M1259.6 1396c-42.6-.3-73.6-1.4-104.4-4.3-16.6-1.6-33.5-2.4-49.6-7.7-8-2.6-15.2-6.8-22.1-11.4-10.2-6.6-20-13.8-30.1-20.5-3.8-2.5-4.3-6.3-4.9-9.9-3.6-21.7-8.5-43-12.7-64.6-1.4-7.3-6.4-10.5-13.8-9q-8.4 1.7-10 10.2c-4.2 21.4-8.5 42.7-12.5 64.1-.9 4.9-3.2 8.3-7.4 11.1-11.4 7.8-22.6 15.9-34.5 22.9-12.7 7.5-26.6 10.5-41.2 12.2-24.8 2.9-49.6 4.6-74.5 5.8-20.5.9-41 1-61.4.8-21.2-.2-42-3.1-62.9-6.3-14-2.1-27.8-5-41.7-7.1-5.4-.8-7.7-2.5-8.3-8.4-2.3-20.5-8.7-40.2-13.9-60.2-9.6-36.8-20.2-73.4-27.7-110.8-1-4.9-2.5-7.7-7.8-7.9-5.9-.2-9.4-3.5-12.1-8.8-6.8-13.2-13.6-26.3-19.3-40-2.2-5.3 1.7-9.6 7.8-12.2 6.8-2.9 14.2-3 21.4-4 8.7-1.1 17.4-2.5 26.2-3.7 2.5-.3 3.5-1.4 4.1-4 7-35.6 18.6-69.4 38.6-100 6.2-9.5 12-19.6 21.3-26.8 2.4-1.8 4.6-3.2 7.6-1.3 1.8 1.1 3.2.8 4.5-1.3 6.3-10 14.3-18.8 22.2-27.6 30.6-34.3 66.1-62.7 105.8-85.7 19.5-11.3 39.6-21.6 61.3-27.5 23.4-6.3 47.2-11.3 71.5-13.2 15.1-1.2 30.1-2 45.3-1.3 9.6.4 19.2-.2 28.9.2 24.4 1 48.2 5.2 71.9 10.5 39.8 8.7 74.3 28.5 107.4 51.1 23 15.7 44.2 33.7 63.6 53.7 12.2 12.7 24 25.8 33.8 40.6.9 1.4 2.1 2 3.3 1.3 7.8-4.5 12.3 1.7 15.8 6.1 22.8 28.4 38.5 60.6 47.9 95.8 2.3 8.7 4.9 17.3 6.1 26.2.4 2.6 2.1 3.2 4.1 3.5 11.2 1.5 22.4 2.7 33.6 4.4 6.8 1 13.7 2 19.1 7.3 2.5 2.4 2.6 4.7 1.5 7.6-5.8 15.1-13.5 29.3-21.1 43.5-2.2 4-5.7 5.1-9.5 5.4-5.8.4-7.8 3.3-8.8 8.8-4.8 25.7-11.9 50.8-18.5 76.1-7 26.9-14.8 53.5-20.8 80.6-1.2 5.3-2.2 10.8-2.5 16.2-.2 3.4-1.7 4.6-4.7 5.2-16.5 3-33 5.8-49.6 8.4-25.8 4-51.7 6.3-66.3 5.9M848 1061.5c8.3.8 14.9 5 21.3 9.3 23.8 16.1 50 27.8 75.2 41.3 3.2 1.7 6.4 3.2 8.2 6.2 2.6 4.5 6.7 4.8 11 5.3 14 1.6 28.1 3.4 42.1 4.8 7.4.8 14.8 3.1 22.3 1.9 19.4-2.9 38.9-4.9 58.4-7 4.1-.4 7.6-1.3 10-5.3 1.1-1.9 2.8-3.7 5.1-4.7 18.5-8.2 35.4-19.1 53.7-27.7 12.7-6 23.5-15.2 35.9-21.6 3-1.5 6-3.1 9.8-2.4-25.9 19-53.2 36.1-78 58.3 3.4-.2 5.6-.3 7.7-.5 30.2-2.5 60.5-3.7 90.9-4 41.7-.4 83.3.7 124.8 5.1 7.9.8 15.9 1.7 23.8 2.3 2.8.2 6 .2 6-4 0-6.5-.6-12.9-3.2-19.1-10.1-24-22-47-35.9-69.1-2.1-3.3-4.4-4.3-8-4.6-12.4-.8-24.6 1.5-36.8 2.4-6.8.5-13.4 2.1-20.1 3.8-1.5.4-3.3 2.6-4.3.8-1.1-2 1.6-2.9 2.9-4 10.2-8.5 21.6-15.1 33.3-21 2.9-1.5 3.2-2.9 2.3-5.6-3.3-10.3-8.7-19.3-15.9-27.3-17.7-19.7-38.3-35.8-60.1-50.9-35.4-24.6-74.2-42.3-114-57.9-24.6-9.6-50.8-12.4-76.9-13.4-40.9-1.5-80.9 2.3-119.4 18.3-30.3 12.6-60.2 25.6-87.9 43.4-27.5 17.6-53.8 36.4-75.5 61-6.5 7.3-11.3 15.6-14.8 24.7-1.3 3.5-1.4 5.7 2.8 7.7 12.3 5.9 24 13.1 34.6 21.8 1 .8 2.5 1.7 1.8 3.2-.5 1-1.7.4-2.7 0-19.8-6.1-40.2-7.1-60.7-6.9-2.7 0-4.1 1.4-5.5 3.6-11.2 17.8-21.6 36-30 55.3-4.5 10.3-10.3 20.2-9.7 32.2.2 4.2 1.5 5.8 5.5 5.5 1.3 0 2.7 0 4-.2 20.8-2.7 41.7-4.5 62.7-5.6 57-2.9 113.9-2.1 170.8 2.3 3 .2 6.1.4 10.4.7-24.8-22.2-52.1-39.3-77.9-58.5Zm-18.1 71.7c-69 1.7-129.9 5.5-190.7 12.8-8.2 1-16.5 1.9-24.5 4.1-3.6 1-4.8 2.8-2.8 6.5 3 5.5 5.8 11.2 8.3 16.9 2.4 5.3 5.4 8.5 12 7.8 5.6-.6 7.8 2.1 8.6 7.2 1.5 8.8 2.9 17.7 4.9 26.4 10.6 46.4 24.3 92 35.6 138.2 3 12.2 9 16.9 20.1 19.3 27.6 5.8 55.6 8.2 83.7 9.7 39.7 2.1 79.3.7 118.7-4.1 13.9-1.7 27.7-3.6 40.1-10.9 9.5-5.6 18.9-11.2 28.7-16.1 7-3.4 11.2-8.6 13.6-15.7 6.7-19.3 12.3-38.9 16.9-58.8 4-17.3 5.3-18.3 23.6-17.1h1.5c13.1.9 13 1 15.8 13.5 4.9 21.5 10.8 42.8 18.2 63.6 1.8 5 4.5 9.6 9.5 12.4 7.4 4.1 14.8 8.2 22.2 12.4 10.1 5.7 20.1 11.6 31.8 13.7 30.8 5.5 61.8 7.2 93 7.8 33.9.6 67.6-1.5 101.2-5.9 13.6-1.8 27.2-3.9 40-9.2 1.5-.6 2.6-1 3.2-3.1 8.8-33.1 18-66.1 26.6-99.3 6.7-26 14.3-51.9 17.5-78.8.3-2.3 1.9-3.4 3.6-4.3 2.4-1.2 5.2-1.4 7.8-1 3.3.5 5.5-.9 6.9-3.7 3.7-7.2 7.2-14.5 10.9-21.8 1.4-2.7.7-4.2-2.2-5.2-6-2.2-12.3-2.7-18.5-3.6-37.1-5-74.5-7.9-111.8-10.2-52.4-3.2-104.8-4.9-157.3-1.9-36.8 2.1-73.2 6.7-109.3 13.8-5.8 1.1-11.3 3.2-17.7 1.8-22.1-4.7-44.4-8.6-66.8-11.2-43.4-5.2-87-6.7-122.9-6.1Z" class="outline" data-original-prefix="outline"/><path id="outline-head2" fill="#000000" d="M1241.7 1142.4c20.4 0 47.5.8 74.5 3.4 21 2 41.7 5.3 62.2 10.1 4.8 1.1 9 3.7 13.7 5.2 1.6.5 1.8 4.8 1.8 7.6-.2 14.6-1.7 29.2-4.4 43.5-7.9 43-17.3 85.6-31.7 127-.8 2.3-2.1 4.5-2.7 6.9-1.6 6.4-6 9.6-12.1 11.1-12 2.9-24.3 3.9-36.5 4.8-27.8 2-55.6 2.9-83.4 2.9s-54.9-.4-82.1-3.8c-22.6-2.8-43.9-9.2-61.2-25.2-2.1-2-3.6-4.2-4.8-6.8-10.6-23.1-13.9-48-17.9-72.8-2.8-17.5-6.6-34.9-9.5-52.4-1.6-9.6-2.6-19.4-3.7-29.1-.6-5 2-8.1 6.7-9.8 10.8-3.9 22.2-5.8 33.4-7.8 51.6-9.5 89.8-13.7 157.7-14.8m-4.8 18.4c-37.9 1.9-75.9 3.6-113.6 8.4-19.4 2.5-38.8 5.6-57.5 11.7-2.9.9-3.7 1.7-3 5 2.1 9.4 3.6 18.9 5.3 28.4 5.2 29.4 7.5 59.3 15.8 88.2 5 17.4 12.9 31.4 31.9 35.9 9.9 2.3 19.7 4.8 29.7 6.6 34.1 6.1 68.5 6.2 103 4.4 27.4-1.5 54.7-4.8 82.1-7.2 13-1.2 13.1-.9 16.8-13.2 15.4-51.2 28.4-102.8 31.8-156.4.2-2.3.7-4-2.6-4.6-18.1-3.1-36.1-5.7-54.4-6.9-28.4-1.8-56.9-1.3-85.3-.3" class="outline" data-original-prefix="outline"/><path id="outline-head1" fill="#000000" d="M813 1142.5c38.5.2 76.9 3.2 115 8.5 21.4 3 42.7 6.6 63.7 11.9 1.9.5 3.8 1.1 5.7 1.9 5.7 2.3 7.4 5.8 6.6 11.8-2.5 19-5.2 38-8.9 56.8-4.9 24.8-8.2 50-14.2 74.6-2.1 8.4-6.5 16-9.5 24.1-.3.9-1.1 1.7-1.8 2.3-11.2 10-23.6 17.6-38.3 21.6-17.8 4.8-35.9 6.9-54.2 7.2-3.3 0-6.6.7-10 .8-37.1 1.6-74.2.8-111.2-1.2-16.7-.9-33.5-1.9-50-5.5-7.3-1.6-11.3-5.8-13.8-12.6-12.8-35.1-21.2-71.3-28.9-107.7-3.8-18-7.1-36.1-8.3-54.6-.4-6.4-1.4-12.7 0-19.2.4-2.1 1.3-1.8 2.8-2.6 14.3-7.5 30.1-8.9 45.5-11.4 36.3-5.7 73-7.1 109.8-6.7m-1.7 18.4c-22.5-1.3-45-1.2-67.5-.7-24.2.5-48.1 3.3-71.9 7.7-2.5.5-3.6.8-3.4 4 1 20 3.9 39.7 7.6 59.3 6.9 35.9 15.7 71.4 26.9 106.2.8 2.5 1.9 3.9 4.7 4 4.5.2 9 .6 13.4 1.1 30.8 3.1 61.6 6.4 92.6 7.6 38.4 1.5 76.5-1.2 114-10.4 14.3-3.5 25.7-10.1 31.5-24.1 5.5-13.1 8.9-26.9 11.2-40.7 5.1-29.7 8.5-59.6 14.5-89.1.6-3 0-3.9-2.7-4.7-12.7-4.2-25.7-6.9-38.8-9-43.5-7.3-87.8-8.9-132.1-11.2" class="outline" data-original-prefix="outline"/>
    </g><g class="trait-group" data-category="right ear" id="right ear-KBDS tattoo">
      <path id="fill-ear-rt" fill="#ffffff" d="M1715.7 184.2c3.2-.7 6.5-.5 7.2 3.3 2.3 39.5-3.6 77.2-9 116-.7 4.7-.2 11.1-1.1 15.9-5 26.9-24.5 58.9-29.7 86.3-5.7 30.4-4.7 64.8-10.9 95.1-7.8 38.3-25.1 77.8-33.7 116.4l-71.9 122.1c-45.8 31.3-94.9 58.3-141.8 88.2l-35 81-84.6 77.3c-5.6 2.9-16.3-.8-22.4-2.4-27.7-7.2-48.3-18.1-70.9-35.1-16.5-12.5-27.2-20.9-37.6-39.4-6-10.5-10.9-22.9-14.5-34.5 26.8-59.3 58.7-116.4 86.8-175.2 4.9-58.7 6.7-117.8 11.4-176.5 36.5-47.5 77-92.5 114.8-139.2 47.2-35.9 96.4-69 144.9-103.1 66.1-31.9 127.9-72.1 197.8-96.2Z" class="fill" data-original-prefix="fill"/><path id="shading-ear-rt" fill="#aaaaaa" d="M1670.9 280.1c2.8 3.9-18.7 26.3-21.9 30.5-38.8 50.2-75.5 128.6-72.1 193 .8 14.1 7.3 33 2.8 45.7-3.7 10.4-14 27.3-15.4 37.7-.4 2.9.9 5.2.6 8 10-1.2 15.8-10.8 21.2-18.3 17.3-24.1 30.1-53.1 43.5-79.5 1.1-2.2 1.5-2.2 1.2.2-.8 9.2-6.8 26.8-9.7 36.3-15.4 50.2-37.8 100.7-66.2 144.8-15.3 23.7-22.2 32.4-46.1 47.9-25.3 16.4-36 17.1-63.9 25.1-14.1 4.1-56 16.5-65.5 25.5-11.9 11.1-30.7 52.3-40.3 68.7-13.5 23-27.7 45.9-43.8 67.2-3.6 4.8-10.5 10.9-13.3 15.7-5.6 10-6.8 27-11.1 37.9 7.3-4.2 14.2-10.7 20.5-16.5 12.8-11.9 26.4-25.8 38.5-38.5 12.3-12.9 33.6-33.7 41.2-48.8 7.8-15.6 13.6-33 21.3-48.7 14.9-4.8 30.4-7.3 45.1-12.9 49.9-18.9 92.7-57.3 134-90 1.4-.3 1.9 0 1.5 1.5-.9 3.2-10.1 20.8-12.2 23.8-4.2 6-36.3 28.6-44.5 34.5-29 20.7-59.7 39.2-87.9 61.1-15.7 27-28.8 55.8-43.5 83.5l-80 71c-6.2 2.7-28.5-4.8-35.8-7.2-32.1-10.8-54.1-27.3-79.9-48.6-8.9-15.6-7.9-22.5 2.7-36.2 24.9-31.8 50.6-57.8 73.4-92.6 33.1-50.5 54.8-106.4 86.2-157.8 11.1-18.2 27.9-36.1 31.3-57.7 1.4-9.1 1-19.2 1.1-28.4l54 6.5c10.6 14.3 17.8 31 26.5 46.5.8-.4 10.6-11.5 11.3-12.7 4.2-7.8 8.8-30.6 10.8-40.2 5-24.6 7-49.5 8.5-74.5 1.9-20.4-5.1-39.9 3.1-58.9 17.4-40.4 50.1-78.2 81-109l66.7-44.4c3.2-.7 24.4 7.8 25.2 8.9Z" class="outline shading" data-original-prefix="shading" opacity="0.5" style="opacity: 0.5"/><path id="outline-ear-rt2" fill="#000000" d="m1695 240-22 38.5-26.1 18.2c-.8 3.6 6.6 23.8 8.6 28.3 1.6 3.6 9 14.4 9.3 15.8.5 2.3-2.4 5.9-3.8 7.7-2 2.6-31.5 31.6-33 29.5-2.1-6.5 4.9-10.6 6.4-15 1.1-3.1-.9-32-1.6-37.4-.1-1-.6-4.4-2.4-3.6s-12.5 12.2-14.5 14.5c-2.7 3.2-19.7 25.9-19.7 28l24.3 37.6c4.3.9 8.3-6.7 11.4-9.6 4.5-4.2 25.3-22.8 29.6-23.4 3-.5 6.4.2 9.4 0 .9.8-4.4 6.8-4.8 8.7-1.8 8.2-2.5 22.9-3.2 31.8-2.2 27.4-1.5 53.7-1 80.9.1 6.7 1 20.1-2.6 25.5-12.9 9.5-26.3 18.3-39.4 27.6-2.1 1.5-5 6.6-7.6 3.4-2.2-2.8-5.1-21-5.5-25.5-.2-2.3-1.1-11-.6-12.5.7-2.4 4.7-6.5 6.1-9 .9 1.7 2.3 8.5 4.9 8 .8-.2 12.4-10.6 12.6-11.5l1-83.5c-1.7-.4-2 .5-3 1.5-5.3 5.5-14.9 19.2-20.1 22.9-.9.7-10.5 4-10.9 3.6 0-4.8-3.8-10-6.6-13.9-1.8-2.5-24.8-30.3-26.4-29.1-8.2 17.3-13.6 35.5-17 54.4 5.5 4.7 46.2 18.4 47.8 21.3 2.8 4.9.8 11.9 1.1 16.8 2.2 30.3 7.3 60 13.4 89.7 1 4.8 7.8 30.4 6.5 32.6-.7 1.3-13.1 7.8-15.7 9.8-8.8 6.6-14.2 15.2-18.9 25-6.4 13.5-5.6 24.2-18.8 33.2-2.7 1.8-24.4 14.1-25.9 14.2-1.7.1-14.9-5.3-15.4-6-.6-1 0-2.5 1-3.5 2.5-2.6 16-7.1 16.1-10l-18.1-62.5c-1.9 8.1-4.6 15.9-6.5 24-3.1 12.9-4.5 28.7-8.2 40.8-1.7 5.5-8 7.6-11.3 12.7 5.4 4.5 17 9.4 21.4 14.4 3.1 3.5-4.4 5.2-6.3 6.6-30 22.8-47.7 53.1-72.6 79.5-3.3 3.5-12.5 8.7-13.6 10.4-1.7 2.7 0 5.7-1.8 8.2-.8 1.1-17 9.8-19.7 11.3-3.2 1.7-24.5 12.2-25.9 12.1-1.3 0-1.7-.6-2.4-1.5 2.9-4.7 2.3-11.4 1.9-16.8-1.9-22.1-9.7-52-14.9-74.1-.4-1.5.7-1.8-2-1.5l-39 100.5 39.7-29.4c.8-.2 13.8 5.3 14.3 5.9 1.9 2.1-3.2 2.3-4.1 3.6s-1.2 5.3-1.6 7.1c-3.7 18.6-4.5 39.3-5.3 58.2 8.7-6.8 17.8-12.7 27.5-18 .8 1.7.9 5.7.3 7.3-.4 1.3-11.9 10-13.9 12.1-4.5 4.7-8.8 12.6-13.4 16.5-2.8 2.3-17.5 11-20.8 12.2-7.5 2.8-6.9-8.9-6.8-13.8.3-10.5 1.1-21.5 2-32 .9-9.8 3.1-19.7 3.5-29.5l-23.5 18.5-1 2 16.6 62.5c-13.1 9.4-27 17.3-42.6 22-.7-5.5 7-4.9 6.9-10.3 0-5.4-5.8-22.1-7.7-28.4-4.1-13.9-8.8-27.7-13.8-41.2-9.1 16-17.5 33.8-22.4 51.6-2.8 10-5.6 21.2-3.8 31.7.6 3.8 4.1 8.9 4.8 12.2.3 1.5 0 1.8-1.5 1.5-3.8-.7-25.2-18.5-26.7-22.3-.8-1.8-.9-3.3-.8-5.2.1-5.6 1.3-20.7 2.3-25.8.8-3.8 25.3-35.9 29.8-43.2 29.6-48.1 48-108.9 82.2-153.8 11.1-14.6 22.6-22.7 31-41 8.4-18.1 20.8-75.1 17.6-94-.7-3.8-10.8-27.6-9.8-28.7 13.4 6.2 26.8 13.4 39.3 21.2 3.9 2.5 14.9 8.7 17.2 11.8 3 4 10.2 28.6 12 35 2.4 8.5 6.3 34.7 11.4 39.5 12.7 12 29.6-12.1 35.2-21.9 27.1-47.2 34.2-98.5 26.7-152-1.3-9.2-7-27.1-6.7-35.2.2-6 16.5-39.2 20.3-46.5 22.2-41.8 45.9-63.9 79.1-95.9 9.7-9.4 21.4-23.7 31.6-31.4 6.4-4.9 14.6-7.2 21.2-11.8 3.7-2.5 26.5-23.7 29.7-20.8Zm-93 184c1.3 1 7.3-6 5.5-7.9-3.3-5-29.7-37.9-33-37.1-1.8 2.2-4.6 4.9-3.1 8 10.8 11.4 23.2 23.2 30.5 37Zm44.8 62.8c1.1-2 0-37.3.2-43.3l5-55.5c-3.2 3.8-11.4 10.8-12.1 15.4-2.2 16.5.4 41.4 0 59.1 0 2.4-1 4.5-1.1 6.9-.2 7.5.2 15 0 22.5 1.2-1.1 7.4-4.6 7.8-5.2ZM1544 478v24.5c0 3.7 3.5 16 5 20 1.3 3.7 6.8 12.2 7 14.1.8 5.4-7.7 8.8-5.9 14.8 6.5 26.2 9.3 53.3 18.9 78.6.6.5 5.1-6.5 6-7.5 2.6-2.9 10-8.1 10.1-11-8.1-39.8-12.3-80.3-12.1-120.9-8.7-6.1-18.6-10.9-29-12.7Zm-7 93c-2.3-.4-1.6.1-2.2 1.3-2.2 3.9-7 16-6.7 20.1 7.7 21.5 10.8 48.2 19 69.1.4 1 .4 2.4 1.9 2.5.6-4.7 8.2-12.2 7.8-16.2-10.5-24.4-15.3-50.7-19.8-76.8m-138 123 3-1.5c7.8-13.2 23-26.8 30.5-39.5 1.9-3.3 1.9-4 .8-7.7-2.6-8.4-16.5-31.1-27.6-24.2-6.7 4.2-11.6 26-14.3 33.5l7.7 39.4Zm23 42c2.5-5.8 6-11.2 8.5-17 5.2-12.3 10-26.5 8-40-11.9 16-22.9 32.6-33.2 49.6 3 18.6 6.8 37.2 11.7 55.4 23.6-19.1 43.3-42.3 62.8-65.3-1.4-2.2-5.7-10.8-8.2-10.5-5.3 3.7-47.2 30.1-49.7 27.9Zm-21.2 78.9-21.3-102.8c-2.5 3.4-10.4 8.3-10.6 12.4 4.4 27.5 14.2 55.5 17 83.1.2 2.4-1.2 15.2 2 14 3.6-1.3 8.5-5.9 12.9-6.7m-79.3-28.9v1c.7-.3.7-.7 0-1m-.5 2c-2.1-.5-2.3 1.1-3.2 2.3-2.4 3.1-5 7.4-7.2 10.8-1.8 2.8-12.3 19.2-10.6 20.9l5.9 1zm-14 142c2.4.4 4.4-.5 3.8-3.2l-24.3-82.8c-2.4 2.1-3 5.2-2.3 8.2 8.1 25.7 18.2 51.2 22.8 77.8" class="outline" data-original-prefix="outline"/><path id="outline-ear-rt1" fill="#000000" d="M1204 941c-4.4-.4-9.8-3.6-13.7-5.8-20.9-12-28.2-35-42.8-53.2-1.1-2.6-.7-7.5-.5-10.5.9-20.4 13.5-35.9 21.8-54.2 6-13.1 11.8-33.9 18.9-45 2.6-4 7.1-7.8 10-12 45.7-65.6 39.8-168 48.8-244.2 35.7-51.4 72.9-101.7 114.9-148.1 13.5-14.9 32.5-37.2 47.6-49.4 43.2-34.6 113.6-72.6 164.2-95.8 39.4-18.1 93.7-41 135.7-50.3 4.3-1 18.4-4.8 21.4-2.6 1.3.9 4.2 14.2 4.5 16.7 4.6 32.3.3 83.6-2.9 116.9-.9 9.4-3.1 31.6-6.5 39.5s-15.6 18.9-20 29c-9.8 22.5-20.5 85.6-16.1 109 2.2 11.6 6.5 11.2 4.1 25-11.5 64.2-42.8 133.8-77.1 188.9-32.9 52.8-80.7 93.9-134.8 124.2-18.8 10.5-28.8 10.7-42.1 29.9-15.2 21.8-20.8 40.5-31.1 63.9-5.5 12.6-19.7 19.4-29.9 28-7.3 6.2-13 13.2-19.5 19.5-6 5.7-26.7 27.8-31.5 30.5-2.3 1.4-20.6 4.8-23.6 4.5-10.9-1-38.2-12.2-49-17.1-3.9-1.8-12.1-5.3-13-9.5 25.5 10.4 46.2 11.5 70.3-2.2 26.5-15 64-49.9 79.7-75.5 5.8-9.5 22.9-46.4 24.6-56.2 1.1-6.9-2.7-5.6 5.1-11.8 33.2-26.6 76.4-40 110.3-69.7 69.6-60.8 114.1-151.8 132.5-241.5 3.7-18 2.5-30 3.4-47.5 1.9-35.7 9.5-78.4 22-112 6.8-18.1 16.8-28.7 20.7-48.3 2.5-12.5 4.6-27.1 6.2-39.9 3.1-25.3 4.5-50.9 2.1-76.4-42 13.5-81.8 33.1-120.7 53.8-46.8 25-95.6 54.9-139.9 84.1-51.1 33.7-90.6 69.4-129.4 116.5-21 25.5-42.6 53.1-60.3 80.7-13.9 63.2-10.7 129.3-22.2 192.8-13.1 26.3-23.4 54.1-36.6 80.4-5.6 11.1-14.2 23.2-19.1 33.9-2.8 6.3-15 38-15.7 43.3-3.2 23.6 13.3 50.9 28.9 67.4Z" class="outline" data-original-prefix="outline"/>
    </g><g class="trait-group" data-category="left ear" id="left ear-hi-tek">
      <path id="fill-ear-lft" fill="#ffffff" d="M326.7 182.1q1.65-.45 3.3.3l180.7 78.4c55.2 39.7 111.9 77.7 165.3 119.7l109.1 135.9c10.5 65.4 16.1 132 25.2 197.8 24.6 50.1 52.6 98.7 77.3 148.7 1.5 3.1 5.4 9.5 5.5 12.5.2 4.7-8.5 15.9-11.2 20.8-15.1 27.1-18.8 33.2-43.9 52.1-22.9 17.2-44.3 28.5-72.5 35.5-8 2-18.1 5.7-25.4.5l-82.9-79.1c-9.9-22-17.5-45.3-28.1-66.9l-154-109c-23.7-34.4-41.7-73.1-64.9-108.1-9.8-43.7-27.6-90.2-34.9-134.1-5.9-35.7-6.9-73.6-12.5-109.5-9.3-20.9-22.7-40-30.5-61.5-1-40.6-6.8-81.2-8.3-121.7s-1.1-11.4 2.8-12.4Z" class="fill" data-original-prefix="fill"/><path id="shading-ear-lft" fill="#aaaaaa" d="M664 558v21.5c0 22.8 19.2 43.4 30.4 61.6 38.9 63.4 63.1 129 108.2 189.8 16.2 21.8 35 41.1 51.9 62.1 4.8 5.9 9.3 10.3 9.5 18.5s-1.9 12.6-1.1 19l-.9 2.1-60.1 40.9c-13.7 0-28.1 9.9-40.7 12.4-1.5.3-2.8.5-4.2-.3l-76.6-51.4-69.8-109.7c-33.8-23.4-81.3-39.6-107.2-72.3s-6.4-12.2-10.5-17.5c.3-1.1 2.2-.4 3 0 7.1 2.9 21.5 16.6 29.2 21.8 23.5 15.5 51.4 30.4 77.4 41.6 17.3 7.5 35 10.9 52.9 16.1 7 15.4 12.9 31.5 20.2 46.8 8 16.6 27 35.1 40.2 48.8 19 20 39 39.1 59.5 57.5 1.5.2 1.8 0 1.4-1.4-1.9-7.7-7.7-31.2-11.1-36.9-4.7-7.9-16.1-19.2-22.2-27.8-25.1-34.9-42.3-72.5-64.4-108.6-7.4-12-9.8-16-22.8-22.2-38.1-18-78.4-19.1-114.3-41.7-26.9-17-34.3-26.3-51.1-52.9-25.7-40.5-46.4-86-61.2-131.8-4.2-12.9-10.9-32.4-12.7-45.3s-.3-1.6.5-1.5c14 25.4 25.6 52.8 42.1 76.9s12.8 19.9 23.4 21.1c-.5-2.4 1.1-5.1.8-7.3-1.4-11-12.7-28.8-16.3-39.7-3.8-11.7 2.7-30.6 3.5-43.5 3.6-59-24.7-121.5-55.6-170.4-12.4-19.7-28.5-37.1-37.4-59.1h16.5c8.6 0 8.7 2.4 14.2 5.8 15.3 9.7 32.5 17.5 48 27 30.2 18.6 67.2 68.2 84.5 99.5 2.9 5.2 12 22.4 12.8 27.2s-.9 10.1-1 14.9c-.8 41.5 1.8 83.9 11.9 124.2 3.2 12.9 5.4 24.4 15.1 33.9 1.4 1.4 2.9 3.8 4.5 1.5l24.5-44.5 55-6.5v-.2Z" class="outline shading" data-original-prefix="shading" opacity="0.5" style="opacity: 0.5"/><path id="fill-led-lft7" fill="#ffffff" d="M669.7 841.5c9.8-2 9.4 10.6 2.5 11.7s-9.5-10.3-2.5-11.7" class="fill" data-original-prefix="fill"/><path id="fill-led-lft6" fill="#ffffff" d="M484.7 520.6c3.7 3.7 0 13.3-6.7 10.2-8.1-3.7.6-16.4 6.7-10.2" class="fill" data-original-prefix="fill"/><path id="fill-led-lft5" fill="#ffffff" d="M409.7 431.6c3.7 3.7 0 13.3-6.7 10.2-8.1-3.6.6-16.4 6.7-10.2" class="fill" data-original-prefix="fill"/><path id="fill-led-lft4" fill="#ffffff" d="M562.7 709.6c3.7 3.7 0 13.3-6.7 10.2-8.1-3.7.6-16.4 6.7-10.2" class="fill" data-original-prefix="fill"/><path id="fill-led-lft3" fill="#ffffff" d="M518.7 714.6c3.7 3.7 0 13.3-6.7 10.2-8.1-3.7.6-16.4 6.7-10.2" class="fill" data-original-prefix="fill"/><path id="fill-led-lft2" fill="#ffffff" d="M391.7 292.6c3.7 3.7 0 13.3-6.7 10.2-8.1-3.6.6-16.4 6.7-10.2" class="fill" data-original-prefix="fill"/><path id="fill-led-lft1" fill="#ffffff" d="M761.7 919.6c3.7 3.7 0 13.3-6.7 10.2-8.1-3.7.6-16.4 6.7-10.2" class="fill" data-original-prefix="fill"/><path id="outline-ear-lft" fill="#000000" d="M573 706.7c3.7 8.5 0 12.5-.8 20.5l20.6 31.4c2.5 4.2.9 9.1-1.1 13.1L568 787.5c8.4 5.5 17.7 9.5 26.3 14.7 5.7 3.4 35.9 21.9 37.7 25.3 1.7 3 .6 6.3 1.4 9.6 11.9 50.4 60.6 107 105.9 131.1 24.3 12.9 35.4 10.2 60.4 2.1 2.2-.7 5.3-.6 7.2-1.3 0 2-1.5 3.4-3 4.5-7.6 5.3-52.8 22.6-61.2 22.3-2.6 0-19.5-3.7-21.3-4.7-17-15.3-32.7-34.3-50-49-11.7-10-25.8-16.1-32-31-10.4-25.3-24.2-65.6-48.8-80.2-7.9-4.7-17.2-8.1-25.3-12.7-100.5-56.5-161.2-147.7-195.6-256.4-3.9-12.3-16.2-53.5-15.7-64.1.3-5.5 5.1-11.9 5.8-18.2 3-25.7-5.9-83.4-16.4-107.4-4.5-10.2-16.6-20.8-20-29-3.6-8.8-5.5-29.4-6.5-39.5-3.1-32.9-8.7-93.7-1.3-124.3 1.3-5.6 1.1-10.4 7.8-10.2 11.2.4 35 8 46.3 11.8 89.3 29.6 189.9 78.4 265.5 134.5 17.7 13.1 38 37 53.2 53.8 39.6 43.9 77.2 92.8 110.1 141.9 3 4.4 4.7 3.6 5.4 10.6 2.1 21.1 1.2 43.6 3 65 4.4 51.5 12.5 128.1 42.2 170.8 3.6 5.2 8.8 10.1 12 15 7.4 11.4 13.7 33.5 20 47 8.4 18 19.9 31.7 20.8 52.2.2 3.2.5 7.5-.5 10.5-14.5 18.3-21.9 41.3-42.8 53.2-3.3 1.9-9 5.7-12.7 4.8 14.9-17.2 31.2-42.5 27.9-66.4-6.7-13.7-9.4-29.6-15.7-43.3s-16.2-27.8-23-42c-15.9-32.7-35.5-69.7-38.1-105.9-.7-27.5-4.4-54.7-7-82-2.4-24.8-1.9-68-15.6-88.4-11.2-16.8-29-37.7-42-54-40.5-50.6-77-87.4-130.7-124.3-65.4-45-147.9-94.6-220.4-126.6-5.4-2.4-49.5-20.1-51.4-18.1-2.4 24.7-.9 49.7 2.1 74.4 1.8 14.4 5.2 46.1 11 58 6.3 13 13.2 22.2 18.1 36.9 1.3 3.9 6.6 26.5 7.7 27.3 1.2.9 1.8 0 2.8-.3 8-3.1 23.8-19.6 32.3-16.8 5.3 1.8 33.4 51.9 39.9 59.1l13-8-67.1-103.3c-17.5 2.5-29.9-17.9-17.2-31.1 1.8-1.9 6-2.9 5.4-4.6l-24-39.1c-.2-1.5 0-1.7 1.5-1.5 7 1 21.2 16 27.6 20.5 7 4.9 15.7 7.3 22.4 12.6 10.5 8.1 24.9 24.1 35 34 38.8 37.8 64.8 66.6 86.6 117.4 1.8 4.2 8.3 18.1 8.6 21.4.7 7.3-5.5 27.3-6.7 35.9-7.5 53.7-.2 104.7 26.7 152 5.5 9.8 22.6 33.8 35.2 21.9 5.1-4.9 9.1-31 11.5-39.5 2-7 8.6-30.1 12-35 2.2-3.2 13.2-9.4 17.2-11.8 12.6-7.8 25.9-15.1 39.3-21.2 1 1.1-9.1 24.9-9.8 28.7-3 17.8 8.2 69.7 15 87.5 5.4 14.1 13.7 25.2 23.2 36.8 45.9 55.8 63.5 122 103.3 180.7 4.2 6.2 18.6 23.1 19.2 28.8.3 2.6-.3 5.4 0 8 .6 4.9 3.1 17.6 1.5 21.5-1.4 3.2-26.3 24.1-28.5 22 3.8-9.9 6.1-17.6 5-28.5-3.2-32.9-38.5-93.3-56.2-122.8-1.9-3.2-13.6-22.1-15.5-22.6l-38.2 25.2 61.1 93.5c19.4-2.8 31.1 20.4 14.8 32.7-11.6 8.8-28.3-.2-28.7-14.2 0-4.8 2.8-8 3.2-12.3l-21.7-33.9c-9.8.7-22 19-31.3 8.8-3.5-3.8-11-19.9-13.6-21.4-1.5-.9-7.3-.7-11-2-19.8-7.5-12.8-38.1 10.4-34.4 8.2 1.3 14.7 10.2 14.5 18.3 0 3.7-3.9 9.2-3.7 10.9s10.5 17.7 12.3 17.7 14.2-8.5 14.3-9.5L675 812.4c-1.5-8.8 16.7-11.8 15.2-17.1l-80.6-123v18.5c0 4.7 5.3 19.7 7.2 24.8 2.8 7.2 6.7 13.8 9.8 20.7l-54-29.3zM389.8 293.2c-6.2-6.2-14.8 6.6-6.7 10.2 6.8 3.1 10.5-6.5 6.7-10.2m49.3 77.7c.8.6 2.7-.3 3.6-.7 1.6-.6 16.6-9 17.3-9.7.6-.7 1-1 1.1-2 .3-3.5-15.2-21.8-18.6-25.5-5.5-6.1-30.6-31.1-36.6-33.4-1-.4-1.8-.8-3-.5 1.4 4.4-3.9 8.4-2.5 11.9 12.6 18.5 24.3 37.7 37 56.1.8 1.1 1.5 3.7 1.6 3.9h.1Zm30.7-.7c-3-1.7-18.8 10-22.9 11.3 3.2 8.5 24.2 32.6 24.1 40 0 6.4-16.1 11.9-19.9 17l26.2 40.6c1.4 4.1.8 5.8-2.5 8.4-12.9 10.2-30.5 17.8-43.5 28.6-.8 1 0 1.8.3 2.7.8 2 12.7 20 13.9 20.2 3-2.3 12.7-6.9 14.5-9.3 2-2.8-.1-8.1 3.5-13.5 8.3-12.5 27-10.2 31.9 3.9l1.5 10c11.2-24.6 9.3-53.2 4.7-79.2-3.3-18.2-8.7-35.7-16.5-52.5-1.6-3.5-14-27.3-15.4-28.1ZM412 605l42.9-27.6c-11.2-20.1-25-38.9-37.3-58.4-1-2.2-.8-4.8 0-7 1.9-6 45.6-28.5 45.6-32.4s-9.5-16.4-10.5-16.5c-7.5 3.4-21.1 18-29.3 14.2-4.2-2-12-19.8-15.2-21.8-1.8-1.1-5-.2-7.3-.7-23.6-5.5-17.4-37.6 4.8-35.8 9.1.8 16.3 9.3 16.1 18.4 0 3.9-3.6 9.4-3.4 11 0 .9 9 14.8 9.8 15.2 1.5.8 6-2.6 7.5-3.6 2.1-1.3 9.4-5.6 9.5-7.5l-46.4-70.4-25.7 16.4-1 2c2.1 11.6 5.7 23.3 7 35 3.6 31.8.8 57.1 8.5 89.5 6.5 27.1 15.6 53.6 24.5 80zm-4.2-172.8c-6.2-6.2-14.8 6.6-6.7 10.2 6.8 3.1 10.5-6.5 6.7-10.2m75 89c-6.2-6.2-14.8 6.6-6.7 10.2 6.8 3.1 10.5-6.5 6.7-10.2m7.9 17.9c-1.2.3-2.4 2.4-4 3.1-2.1.9-6 1.9-8.2 1.9-4.5 0-9.9-4.1-11.8-3.9-.9 0-14.5 8.4-14.6 9.3l69.3 104.4c.9 0 14.7-9.1 15.2-9.9 1.9-3-12.8-47.3-15.3-53.8-5.5-14.5-12.2-28.2-21-41-1.7-2.4-6.7-10.9-9.5-10.2h-.1Zm-16.8 68.7c1-1.8-3.3-7.8-4.5-9.8-1.1-1.8-6.1-10.1-7.8-10l-42.7 27.4c-.7.5-1 1.2-1 2-.3 2.9 11.5 24 13.9 28.2 21.6 38.2 58.6 86.8 92.7 114.3 4.8 3.8 26.5 20.2 31 20.1s20.1-13.6 25.6-15.7c.2-1.6-2.7-5.7-3.7-7.3-1.8-3-14.4-23.2-15.6-23.9s-5.7 0-8.1-.4c-20.3-3.7-19.5-32.4-.2-35.7 1.5-.2 8.5.9 7.4-1.6s-7.1-6.1-9-8c-3.8-3.6-7.5-6.1-8.7-11.3-.6-2.6-2.5-18.5-3.3-19.2-10 3-20 19-28.8 5.3l-29.7-45.3c-5.6 4.3-14.4 7.9-19.5 12.5-.8.7-2.1 1.1-1.7 2.5l45.7 70.9c19.7-7 33.9 19.7 16.8 31.5-15.8 11-34.6-6.1-26.2-23.1-12.9-25.3-33.4-48.7-47.2-73.4-2.7-4.8-5.9-9.2-1.1-13.9l25.4-16.1zm161.8 12.4c-9.4 2.1-21.3 24.9-22.5 34l88.5 134.7c1.6.5 16.8-8.7 18.3-10.4 1-1.1 1-1 .6-2.5-.5-1.9-7.1-10.8-8.8-13.3-13.6-19.6-29.2-38.1-46.3-54.7-1.1-23.3-4.5-46.6-12.5-68.5-2.9-7.9-6.5-21.7-17.3-19.3m-74.9 90c-6.2-6.2-14.8 6.6-6.7 10.2 6.8 3.1 10.5-6.5 6.7-10.2m-44 5c-6.2-6.2-14.8 6.6-6.7 10.2 6.8 3.1 10.5-6.5 6.7-10.2m151 127c-7 1.4-4.1 12.7 2.5 11.7s7.3-13.6-2.5-11.7m92 78c-6.2-6.2-14.8 6.6-6.7 10.2 6.8 3.1 10.5-6.5 6.7-10.2" class="outline" data-original-prefix="outline"/>
    </g><g class="trait-group" data-category="head" id="head-bandaid">
      <path id="fill-head4" fill="#ffffff" d="M978.7 863.3c4.7 5.1 7.6 28.1 12 29.5 2.8.9 6.6-1.1 8.2 2.8 8.1 18.7 18.4 36.5 27 55 3.5 7.5 12.8 25.7 13.1 33 .2 8.1-18.8 11.8-19.9 20.4 7.3 2.8 18.4-6 23.6-1 2 1.9 10.3 16.7 12 20 7.7 15.6 16.8 45.3 9.7 61.7-7.4 17-37.9 29.7-55.6 27.2-14.9-2.1-33.5-27.8-40.8-40.2-2-3.4-11.6-21.8-11.8-24.3-.6-6.4 13-10.9 12-15.9-1.1-5.6-21.3 2.8-24.5 2.5-4.2-.4-14.2-18.1-16.7-22.3-3.8-6.5-7.4-13.5-10.7-20.3-4.4-9.2-17-35.7-14.9-44.7 3.2-14 47-35.8 60.1-41.9 4.9-2.3 11.9-4 16.4-6.6 3.3-1.9 3.4-3.7 0-5.3-5-2.3-22.8 2.5-28.8 4.4-17.2 5.4-32.6 14.4-47.8 23.7-1.4-1.4-2.5-23.3-2-26.5.4-2.1 4.8-7.7 6.4-9.6 7-8 17.2-14 26.8-18.2 11.1-4.8 36.9-13.6 46.3-3.5Zm-52 8.9c-7.1 1.4-4.7 10.6 1.5 9.7 6.8-1 5.4-11-1.5-9.7m28.1 6c-3.6-3.5-12.5-.7-9.3 5.8 3 6 14-1.2 9.3-5.8m-33 23.6c4.8-4.8-3.1-13.6-8.2-7.7-5 5.7 4.2 11.8 8.2 7.7m63.9 3.4c-5.6 1.1-18.5 7.8-24.4 10.6-8.5 4-44.9 22.2-47.1 29.9-1.5 5.1 7.7 33.1 10.3 39.3 3 7.1 7.8 15.5 12.1 21.9 5.8 8.8 6.3 14.5 17.8 9.9 8-3.2 16.3-8.9 24.3-12.7 11.1-5.3 30.8-12.2 40.1-18.9 6.3-4.5.3-15.4-2-21.5-7.1-19-17.5-36.7-24-56-1.2-3.2-4-3.1-7-2.5Zm38.1 118c-8.2.7-8.3 12.1-1 13.6 10.2 2.1 11.1-14.5 1-13.6m-40.1 21c-6.1 1.3-5.8 10.2-1 11.6 11.6 3.6 12.4-14 1-11.6m34 18.5c4.7-4.5.2-13.3-6.7-10.2-8.2 3.7.7 16 6.7 10.2m32 5c6.7-5.4-1.7-16.2-8.7-10.2-6.4 5.5 1.6 15.8 8.7 10.2m-47.4 12.5c-3.5 3.7-.9 12.4 5.8 11.3 12.8-2.1 2.8-20.5-5.8-11.3" class="fill" data-original-prefix="fill"/><path id="fill-head3" fill="#ffffff" d="m1053 974-38.9-81.4c23.5-13.8 51.1-24.2 77.9-13.1 19.4 8 32.3 37.7 30 58-.5 4-2.7 8.7-6.3 10.7-8.7 4.8-24.6 9.2-34.7 13.3-9.5 3.9-18.6 8.4-28 12.5m23.6-86.9c-4.7 1.6-1.4 12.3 4.4 10.5 7.3-2.3 3.4-13.2-4.4-10.5m-37.9 12.1c-4.8 1.4-3.7 11.9 3.6 9.7 5.9-1.8 3.7-11.8-3.6-9.7m27 12c-6.7 2-3.8 14 4.3 11.4 6.8-2.2 4.2-13.9-4.3-11.4m31 13c-7.1 1.1-6 11.7.8 11.8 7.6 0 6.8-12.9-.8-11.8m-39 15c-5.6 1.7-2.5 13.7 5.1 10.1 6.3-3 2.6-12.4-5.1-10.1" class="fill" data-original-prefix="fill"/><path id="fill-head2" fill="#ffffff" d="M921 1035c-16.3 5.7-27.9 21.7-46.5 20-15.3-1.4-31.3-14.3-38.7-27.3-12.1-21.3-4.1-32.8 12.7-46.6 4.3-3.6 33.7-24.7 36.9-24 3.1 6.3 4.2 13.7 6.5 20.5 3.9 11.3 9.1 22.6 14.8 33.2 4.5 8.2 10.3 15.9 14.2 24.3Zm-44.3-59.8c-8 2.1-1.6 16.5 5.3 8.3 4-4.7-.6-9.6-5.3-8.3m-33 21c-5.8 1.8-3.5 12.2 3.3 10.4 7.6-2.1 6.2-13.3-3.3-10.4m24 7c-4.9 1.4-5 9.1 0 10.6 10.3 3 9.9-13.4 0-10.6m28 9c-7.2 1.9-2.8 14.3 5.3 10.3 4.8-2.4 1.2-12.1-5.3-10.3m-32.5 27.6c5 5 13.6-4.2 7.3-8.8s-11.9 4.3-7.3 8.8" class="fill" data-original-prefix="fill"/><path id="fill-head1" fill="#ffffff" d="M1008.9 976.9c-16 7.4-30.3 19-46.2 26.3-3 1.4-12.3 5.6-15 4.7-1.6-.5-13.6-25.3-15.1-28.9-2.2-5-10.3-26.2-9.4-30.3.5-2.2 14-10.7 16.8-12.2 4.7-2.6 41.1-19.9 43.4-19.4 3.8 6.3 27.5 57.1 25.5 59.8" class="fill" data-original-prefix="fill"/><path id="shading-head3" fill="#aaaaaa" d="M1122.7 904.3c.3.2 4.6 6.2 4.8 6.7 1.2 3.3 1.1 25 .6 29.5s-9.9 13.9-13.5 16.5-53.2 21-58.3 21.8c-1.9.3-4.9-1.1-5.2-.8-.7.5-4.9 13.2-5.9 15.3l15.8 28.7c-7.1-3.5-21.6-15.3-29.4-14l-60.1 35c-2 13.1.6 25.2 6 37 2 4.4 10.8 16.9 11.4 19.7.5 2.3-2.2 4.7-1.8 7.2l-29.4-45.1c-1.4-3.1-5.4-20.2-7.2-20.8-3.2-1-10.9 4-12.9 3.7s-3.2-6.6-3.5-6.8c-2.6-1.9-49.1 26.9-56.7 28.8-5.3-3.2-34-11.6-36.4-14.4-2.3-2.7-5.3-14.3-6.9-18.3 15.2 14.5 23.1 19.3 43 9.5 4.2-2.1 26.2-15.3 28.1-18 .6-.9 1.1-1.7.9-2.9-.8-7.2-6.5-22.5-5.7-29 .2-1.2 8.2-15.1 9.3-15.5.6-.3 2.4-.5 2.5.5 5.7 11.4 12.6 23.2 20.5 33.3 2 2.5 10.3 12.6 12.4 13.6 4 1.8 17.8-2.9 22.5-4.5 21.9-7.5 40.9-21.1 60.3-33.2 1.3-21.7-8.6-41.8-11.8-62.8 4 1.3 12.9 1.2 16 2.5 1.2.5 2.9 3 3.8 4.2 3.1 3.9 15.4 25.6 17.8 26.1.9.2 5.1-.8 6.6-1.1 11.5-2 26.4-6.6 37.6-10.4 3.8-1.3 15.5-4.9 17.8-7.2 6.5-6.5 2.1-28.8-.5-37 .3-.3 7.1 1.9 7.7 2.3h-.2Z" class="outline shading" data-original-prefix="shading" opacity="0.5" style="opacity: 0.5"/><path id="shading-head2" fill="#aaaaaa" d="m992.9 925.1 25 53.3c-.3 1.1-9.1 6.1-10.9 7.1-14.5 8.3-34.4 19-49.7 25.3-3.5 1.5-8.7 4.5-12.4 2.7-1.5-.8-11.2-17.6-12-20-1.2-3.5-2.9-13.5 2.8-10.3 1.9 1.1 8.2 13.1 10.2 14.3 5.4 3 26.5-5.7 32.7-8.3 4-1.7 24.4-11.8 25.8-14.2 1.2-1.9.4-4.1 0-6-2-10.2-15.6-33.3-15.4-41.7 0-2.2 1.9-2.7 3.7-2.2z" class="outline shading" data-original-prefix="shading" opacity="0.5" style="opacity: 0.5"/><path id="shading-head1" fill="#aaaaaa" d="m899 888 4 23c25.3-12.2 52.8-19.4 80.3-25.2 2.4-.3 1.3-4.5 1.7-4.8.4-.4 3.6 0 4.5 1 .5.6 2.5 7.7 2.5 8.6l-91.5 33.5c-1.4 0-1.8-.5-2.3-1.7-.9-2.3-6.3-23.4-6.3-24.8 0-2.7 4.8-7.5 7.1-9.5Z" class="outline shading" data-original-prefix="shading" opacity="0.5" style="opacity: 0.5"/><path id="outline-bandaid20" fill="#000000" d="M1000 879c13.7-1.1 26.7-7.9 40.4-11.1 39.3-9.4 77.9-2.1 93.4 38.9 8.7 22.9 9.7 50.5-16.5 61-12.8 5.2-26.5 7-39.9 13.1-3 1.3-21 10.7-21.9 12.2-.5.8-.4 1.3 0 2 7.4 14.6 14.7 30.2 19.1 46 3 10.8 7.8 29.4 6.1 40.1-3.2 20.1-27.4 39.9-46.3 44.7-51 12.9-72-40-92.4-75.5-4.3.3-7.8-1-11.8-1.8-10.4 4.2-28.5 23.2-37.9 25.2-35.1 7.4-78.7-29.6-75.9-65.9 1.6-21.3 12-29.4 28.2-40.8 5.1-3.6 33.2-19 34.2-20.8.9-1.5.4-4.4 1.3-6.7 1.4-3.8 8.1-8.1 8.3-9.8.3-3.9-2.7-13.9-3.1-19-1.2-19.1 1-25.7 13.5-39.6 29.1-32.1 91.8-49.2 101.5 8zm-21.3-15.7c-9.4-10.1-35.2-1.3-46.3 3.5-9.7 4.2-19.8 10.2-26.8 18.2-1.6 1.8-6 7.5-6.4 9.6-.6 3.1.5 25 2 26.5 15.2-9.3 30.6-18.3 47.8-23.7 5.9-1.9 23.8-6.7 28.8-4.4 3.5 1.6 3.4 3.4 0 5.3-4.5 2.6-11.5 4.3-16.4 6.6-13.1 6.1-56.9 27.9-60.1 41.9-2 9 10.5 35.5 14.9 44.7 3.3 6.8 6.9 13.8 10.7 20.3 2.5 4.2 12.5 21.9 16.7 22.3 3.1.3 23.4-8.1 24.5-2.5 1 4.9-12.6 9.4-12 15.9.2 2.5 9.8 20.9 11.8 24.3 7.2 12.4 25.9 38.2 40.8 40.2 17.7 2.4 48.2-10.2 55.6-27.2 7.2-16.4-1.9-46.2-9.7-61.7-1.6-3.3-10-18.1-12-20-5.1-4.9-16.2 3.8-23.6 1 1.1-8.5 20.2-12.2 19.9-20.4-.2-7.2-9.6-25.5-13.1-33-8.6-18.5-18.9-36.2-27-55-1.6-4-5.4-2-8.2-2.8-4.4-1.4-7.3-24.4-12-29.5ZM1053 974c9.4-4 18.6-8.5 28-12.5 10.1-4.2 26-8.5 34.7-13.3 3.6-2 5.8-6.7 6.3-10.7 2.3-20.3-10.6-49.9-30-58-26.8-11.2-54.4-.7-77.9 13.1zm-132 61c-3.8-8.4-9.7-16.1-14.2-24.3-5.7-10.5-10.9-21.8-14.8-33.2-2.3-6.8-3.4-14.2-6.5-20.5-3.3-.7-32.6 20.4-36.9 24-16.8 13.9-24.8 25.4-12.7 46.6 7.4 13 23.4 25.9 38.7 27.3 18.5 1.7 30.1-14.3 46.5-20Z" class="outline" data-original-prefix="outline"/><path id="outline-bandaid19" fill="#000000" d="M985.7 905.2c3-.6 5.8-.7 7 2.5 6.5 19.3 16.9 37 24 56 2.2 6 8.3 16.9 2 21.5-9.2 6.7-29 13.6-40.1 18.9-8 3.8-16.3 9.5-24.3 12.7-11.4 4.5-12-1.1-17.8-9.9-4.2-6.5-9.1-14.8-12.1-21.9-2.6-6.2-11.8-34.2-10.3-39.3 2.3-7.7 38.6-25.9 47.1-29.9 5.9-2.8 18.8-9.5 24.4-10.6Zm23.2 71.7c1.9-2.6-21.7-53.4-25.5-59.8-2.3-.5-38.8 16.8-43.4 19.4-2.8 1.6-16.3 10-16.8 12.2-.9 4.1 7.2 25.2 9.4 30.3 1.5 3.6 13.6 28.4 15.1 28.9 2.7.8 12-3.3 15-4.7 16-7.3 30.2-18.9 46.2-26.3" class="outline" data-original-prefix="outline"/><path id="outline-bandaid18" fill="#000000" d="M1023.8 1023.2c10-.9 9.2 15.7-1 13.6-7.3-1.5-7.2-12.9 1-13.6" class="outline" data-original-prefix="outline"/><path id="outline-bandaid17" fill="#000000" d="M1002.3 1080.2c8.6-9.2 18.6 9.2 5.8 11.3-6.7 1.1-9.3-7.6-5.8-11.3" class="outline" data-original-prefix="outline"/><path id="outline-bandaid16" fill="#000000" d="M1049.7 1067.7c-7.1 5.7-15.1-4.6-8.7-10.2 7-6 15.3 4.8 8.7 10.2" class="outline" data-original-prefix="outline"/><path id="outline-bandaid15" fill="#000000" d="M983.7 1044.2c11.3-2.3 10.6 15.2-1 11.6-4.8-1.5-5.1-10.4 1-11.6" class="outline" data-original-prefix="outline"/><path id="outline-bandaid14" fill="#000000" d="M1017.7 1062.7c-6.1 5.8-14.9-6.6-6.7-10.2 6.9-3.1 11.5 5.7 6.7 10.2" class="outline" data-original-prefix="outline"/><path id="outline-bandaid13" fill="#000000" d="M921.8 901.8c-4 4.1-13.2-2-8.2-7.7 5.1-5.8 13 2.9 8.2 7.7" class="outline" data-original-prefix="outline"/><path id="outline-bandaid12" fill="#000000" d="M954.8 878.2c4.8 4.6-6.2 11.8-9.3 5.8-3.2-6.5 5.7-9.2 9.3-5.8" class="outline" data-original-prefix="outline"/><path id="outline-bandaid11" fill="#000000" d="M926.7 872.2c6.9-1.3 8.3 8.6 1.5 9.7-6.2 1-8.6-8.3-1.5-9.7" class="outline" data-original-prefix="outline"/><path id="outline-bandaid10" fill="#000000" d="M1065.7 911.2c8.5-2.5 11.1 9.2 4.3 11.4-8.1 2.6-11.1-9.4-4.3-11.4" class="outline" data-original-prefix="outline"/><path id="outline-bandaid9" fill="#000000" d="M1096.7 924.2c7.6-1.2 8.3 11.8.8 11.8s-7.8-10.7-.8-11.8" class="outline" data-original-prefix="outline"/><path id="outline-bandaid8" fill="#000000" d="M1057.7 939.2c7.6-2.3 11.4 7 5.1 10.1-7.5 3.6-10.7-8.4-5.1-10.1" class="outline" data-original-prefix="outline"/><path id="outline-bandaid7" fill="#000000" d="M1076.6 887.1c7.8-2.7 11.7 8.2 4.4 10.5-5.8 1.8-9.1-8.8-4.4-10.5" class="outline" data-original-prefix="outline"/><path id="outline-bandaid6" fill="#000000" d="M1038.7 899.2c7.3-2.2 9.5 7.9 3.6 9.7-7.3 2.2-8.4-8.2-3.6-9.7" class="outline" data-original-prefix="outline"/><path id="outline-bandaid5" fill="#000000" d="M867.7 1003.2c9.9-2.8 10.3 13.7 0 10.6-5-1.5-4.9-9.2 0-10.6" class="outline" data-original-prefix="outline"/><path id="outline-bandaid4" fill="#000000" d="M843.7 996.2c9.6-3 11 8.3 3.3 10.4-6.8 1.9-9.2-8.6-3.3-10.4" class="outline" data-original-prefix="outline"/><path id="outline-bandaid3" fill="#000000" d="M895.7 1012.2c6.5-1.8 10.1 8 5.3 10.3-8 4-12.4-8.4-5.3-10.3" class="outline" data-original-prefix="outline"/><path id="outline-bandaid2" fill="#000000" d="M863.2 1039.8c-4.5-4.6 1.3-13.2 7.3-8.8 6.3 4.6-2.3 13.9-7.3 8.8" class="outline" data-original-prefix="outline"/><path id="outline-bandaid1" fill="#000000" d="M876.7 975.2c4.7-1.2 9.2 3.7 5.3 8.3-6.9 8.2-13.2-6.2-5.3-8.3" class="outline" data-original-prefix="outline"/>
    </g><g class="trait-group" data-category="mouthpiece" id="mouthpiece-bearded 2">
      <path id="fill-mouthbit-main1" fill="#ffffff" d="M1250.4 1610h16.5c.9-5.6-1.9-10.6-2.7-15.8-1.8-11.1-2.1-24.7-7.1-34.9-1.9-3.9-3.6-5.9-8.6-4.2-1.9.6-1.4 6.2-5.5 0 2.4-17.1 0-34.8-6.1-50.8 8.1-.8 15.8 11.1 20 13 1.3.6 6.2 1 6.9.4.4-.3 2-8.1 2.1-9.4 1.4-14.6-30.9-59.9-43.8-59.8l-74.1-9.7c-7.1-1-54.5-2.4-56.8 1.2-2.4 3.8 4 13.9 5.4 17.8l-44-6c-10.1 1.9-18.5 7.9-27.2 12.8-9.6-3.8-17.4-11.3-27.9-12.8l-44.5 6c-.6-.6-36.4-19.8-50.9-18.9l-25.8-4.1c-12.2-.2-96.9 45.4-92.3 73.5 0 1.3 1.7 9.1 2.1 9.4.7.6 5.6.2 6.9-.4 4.4-2 11.8-14 20-13-6 14.4-7.2 29.7-7 45.1 0 4.3 2.9 6.7-2.9 9.5 0-4.4-3.6-5.1-7.4-3.8-5.7 2-7.9 25.7-8.8 31.2-.6 3.3-5 22.5-3.9 23.6h-.2 16.5c2.9 0 11.9-4.3 15-5.9 5.9 8 5.5 18.2-1.5 25.4-2.7 2.9-14 8.6-14.5 9.4-.6 1.1-.8 6.6-.4 7 .4.5 10.7 2 12.4 2.1 9.4.7 19.3-.2 28.5-2-7.8 25.2-11.3 57.3 6.5 79 1.2 1.5 9.6 10.1 10.5 10.5 8.4 3.7 7.1-3.1 9.5-8.5 3.7-8.4 9.2-18.5 17.5-23 2 6.6.4 13.6 1.1 20.4 1.9 19.2 14.6 38.6 28.9 51.1 4 3.6 12.2 11 17.4 9.6 2.2-.7 1.4-18.1 3.1-21.1 4.7 6.3 8.8 13.1 14 19 12.4 14.3 25.7 21.7 33.7 40.3 1 2.1 3.2 10.8 3.8 11.2 3.2 2.3 12.9-1.7 15.6-4.5 1.3 0 3.4 8.9 4.3 10.7 1.5 3.2 12.9 16.9 15.6 18.4s6.4 1.5 9.1 0c1.1-.7 10.2-10.9 11.4-12.6 4-5.5 5.6-10.6 8.5-16.5 3 2.8 12.1 7 15.6 4.5.8-.5 2.7-8.4 3.5-10.5 8.1-19.3 21.3-26.2 34-41 4.8-5.6 8.6-12 13-18 2-.5 2.3 5.4 2.4 6.6.6 6.2-2 17.4 8.1 12.9.6-.3 9.6-7.8 11-9 14.7-12.9 26.9-32.3 28.9-52.1.6-6.5-.9-13.2 1.1-19.4 7.7 4.7 14 14.7 17.5 23 .7 1.8 1.5 6.8 2.4 7.5 6.2 4.4 17.9-9.5 20.9-14.2 14-22.1 10.4-50.5 3.2-74.3 9.2 1.8 19 2.7 28.5 2 1.7 0 12-1.7 12.4-2.1s.3-6-.4-7c-.4-.6-6.2-3.1-7.8-4.2-12.7-8.8-15-15.9-9.7-30.8.7-.6 13.7 6 16.5 6zm-305.8-27.8c-1.5-.3-2.9-.6-4.4-.7.9-1.3 1.8-2.4 2.8-3.5.5 1.5 1 2.9 1.6 4.2m179 41.6c-.7 17.4-6.6 34.1-16.8 48.1-5.1-8.8-11.8-16.7-19.6-23.2-3.3-2.7-7.3-1.9-9.9.4-1.7.7-3 2.2-3.5 4.6-1.3 6.8-5.4 12-9.6 17.3-3.3 4.1-6.5 8.2-9.8 12.3-14.5-7.2-39 9.3-53.7-3.6-10.5-8.5-23.7-14.2-31.9-25-2.4-3.2-7.8-5.3-11-1.4-3.5 4.2-6.6 8.5-9.4 13.1-2.4-3.3-4.6-6.7-6.3-10.4-3-6.3-4.4-13.3-7.2-19.7-2.8-6.6-7.3-11.8-12.6-16.5 3.1 1.2 6.3 1.9 9.7 1.5.8-4.3-1.1-8.6-1.1-12.5s.7-8.6 2.2-13h.4c8.2-.9 15.5 2.7 22.9 5.7 7.5 3.1 15.2 5.7 23 7.9h.3c3.1 1.4 6.2 2.8 9.2 4.3 3.1 1.5 19.5 11.1 22.8 8.3 0 0 6.3-42 10.6-39.4 6.2 3.6 12.5 39.2 13.5 40.7s47.5-19.8 53.7-23.9c8-5.3 14.2-12.3 17.8-21.2 9.8 12.6 12.6 27.4 10.5 43 2.3.2 4.4 0 6.6-.6-.5.9-.9 2-.9 3.3h.1Zm9.9-6.3c-.2 0-.5-.2-.7-.2.3-.2.7-.3 1-.5 0 .2-.2.5-.3.7" class="fill" data-original-prefix="fill"/><path id="shading-moutbit" fill="#aaaaaa" d="M1246.3 1591.4v-.2c-3-11.7 7.6-19.1 7.7-30.8 1.2-11.6-4.3-22.9-2.7-34.4.8-5.6 4.3-10.1 7.9-14 12.5-12.2.2-30-5.7-42.5-8.2-12.9-4.5 1.2-4.9 8.2-4 15.5-18.9 9.2-18.3 33.2-3.9 15.5-22.8-23.8-26.8-27.5-3.8-5-5.8-6.7-6.5-6.6-1.2.2 19.2 36.4 21.4 50.5 2.3 10.8 3.5 44.8-14.7 12.5-31.2 9.1-23.6-26.5-35.8-30.3-3.5 1.8 0 7.7.3 10.9 2.2 7.8 4.6 18.7 4.2 28.5 0 5-1.7 19.7-9.2 14.7-2.7-1.5-12.4-28.2-15.6-27-.8.3 11.8 44.7-4.7 56.6-18.3 9.9-23.1-27.9-38.1-25.6-5.5.3-10 4.6-15 6.5-14.7 3.9-12.2-30.4-19.5-37.7-2.8-3.6 7.4 64.5-9.4 47.4-3.7-6.3-4.9-15.6-7.5-22.4-.3-.5-.6-1.3-1.1-.9-2.4 8.2.7 26.8-4.1 34.4-20.7-24.8-32.3-125.4 2.7-136 17.4.5 31.9 50.1 31.6 48.4-3.2-25-10.2-44.2-13.3-48.5 15.2-2.3 32.9 4.3 44.9 13.1 6.2 4 24.6 31.3 21.4 24.9-4-8-10.8-28.3-13.8-32.3-3.7-6-4.3-11.1 1.5-16 17-12.1 31.9 40.5 37.3 41.4s-12.8-29.7-20.5-39.2c-2.9-3.3-8.8-8.9-.6-8.5 9.1-1.2 34.8 34.2 32.8 25.9-7.8-31.7 25.4-19.9 38.5-6.1 4.6 3.7 8.7 21.8 21.7 25.3-9.6-6.4-15.4-27.7-19.2-31.5-1.3-1.8-4.3-3.5-4-5.7 1.8-1.7 6.6-1.1 8.2-2.7 2.1-3.2-5.9-4.3-8.1-4.9-12.9-3.2-25.7-4.3-38.9-2.6-9.4-.6-20-4.1-29.3-4.3-1.1-.3-.5-.6.4-1.3 7.6-4.7-6.3-4.2-9.5-3.4-10.5 2.6-21.7 2.9-31.6 7.3-6.3 3.1-8.9 8-14.8 10.3-4.6 1.8-9.8 2-14.8 1.7-34.6-3.1-77.9 1.5-112.5 1.9-23.9 2.5-34.9-20.8-57.5-17.3-6.8 1.3-13.9-.8-20.8-1.5-14.7-.9-42.4 10.2-64.7 23.9-17.5 11.4-41.8 26.4-33.6 49.1 3.3 7.2 12.7 10.9 14 19.7 2.5 10.5-2.6 20.9-2.8 31.3-1.8 14.4 19.5 32.1 1.1 41.8-17.1 9.1 8.7 8 15.2 7.3 15.7-3.3 22.9 2.7 37.5 5.5 7.4.6 16.6-.7 22 5.5 7.3 8.1-1 25.4 1.1 32.2 16.6-27.5 29.6-12.6 31.9-9.9-5 10.2-5.2 28.2-.8 36.1 3.9-.9 19.2-42.2 20.9-23.6.5 13-6.4 28.9-3.7 42.2.5.8 4.1-13.6 5-18.1 4.4-22.7 9.3 2.1 33.2-1.3 24 3.5 23.5 56.4 21.8 73 9.3-30.5-1.9-36.5 9.4-49.6 6.6-5.1 17.2-.3 23.7 5.2 7.9 7 9.9 18.1 12.7 27.7 4.7 17 5.9-19.2 8.9-22.4 3.9-12.4 23.5-16.7 28.3-3.1 5.7 13.8-2.6 31.5 1.9 45 1.6 2.6 7.3-29.5 8.5-42.8.5-27.5 4.7-29.8 31-31.8 18.7-6.3 17.3-19.3 30.6 3.3.7 1.1 1 1.6 1 1.3-.5-3.1-2.7-8.8-4.8-14.3-1.9-4.5-4.3-10.7-7.9-13.3-.2 0-.4-.2-.6-.3 1.2-1.9 2.3-3.9 2.9-6.2 1.2-4.1 1.5-9.3 6.1-10.9 1.5-.5 3.1-.6 4.7-.6 6.8 2.2 13.8 14.1 18.3 24.8 1.4-15.6-2.6-26-5.2-31.6 5.7-4.7 14.7-10.7 22.5-5.5 7.1 8.6 14.5 43.2 12.7 30.9-1.3-11.4-3.7-24.4-.5-35.3 2-7.7 10.8-6.2 17.5-6.5 10-1.3 18.4-6.5 28.2-6.3-1 4.8-.8 10 .2 14.2.9 3.2 4.4 13.5-2.6 9.3-3.7-2.2-6.5-6.8-10.5-8.5-1.8-.6-2.2 5.3-3.3 7.2-2.9 5-6.7 10.7-5.5 17.5.6 17.1 2.2 35.8-4.1 51.8-1-6.9-9.7-28.4-13.1-33 4 14.6 3.9 38.2 1.9 48.1-2.6-1.7-7.2-8.9-9.5-11.3-4.2-3.9-8.5-9.5-14.4-10.1-3.8.3-4.1 7.4-6.4 14.9-2.9 8.9-6.7 19.4-12.3 26.8 1-20.8-.4-26.5-2.5-34.8-2.6 10.2-3.8 45.7-18.5 55 1.1-6.5 4.7-49.2-.7-62.3-3.8 39.1-.6 66.9-36.4 89.5-5.3 3.6-21.6 2.7-22.6 4.3-2.4 4.7-2.1 10.7-3.9 15.8-7.6 19.5-9.9-12.3-11.4-18.4-1.7-12-5.1-22-5.3-19.7-1.1 21.9-8.6 56.3-15 71.5-5.1 11-7.3 9.2-6.4-2.1.4-15.7 2.7-39.3-1.4-46.3-5.2 5 .4 77.4-11.1 43.8-1.9-5.4.2-16-6.6-17.2-9.9-3.9-1.4-42-7.9-49.1-3.4 14.7 1.6 55.6-7.5 52.8-3.6-2.4-6.9-10-9.9-14.2-5.9-8.5-10.5-17.9-14-27.7-4.2-9.9-11.1-18.8-14.8-28.8-3.1-5.7-7.5-23.4-9.6-30.9-1.1 5 0 15.3.6 21.7 1.3 8 3.2 15.9 5.1 23.8 8 27.6-7.7 6.9-18.3 0-17.4-5.6-15.4-36-15.4-36s-6.7 7.2-6.5 22.3c-2.7.5-6.2-4.7-7.7-8.5-8-14.7 6.2-34.6-1.3-48.8-1.5 5.9-4.2 20.6-6.2 23.3-5.1 18.6-7.4-20.4-15.2-19.5-12.8-1-4.2-23.3-4.2-32-10.6 18.7-18.6 31-21.6 51.7-2.8 0-5.7-6.1-6.8-9.3-6.5-17.1-5.8-40.5-5.7-58.9 0-3-.3-6.4-1.9-8.7-4.6-5.3-11.6-2.4-19-2.3-6.3.8-23.2-1.2-22.3 6.5 5.4 6.3 20.7 3.2 30.4 3.8 15.9-1.9-15.4 49.5 18.5 83.2 3.5 3.3 9.1 7.8 13.4 3.9 3.5-2.4 15.6-34.4 20.8-16.5 2.6 25.1 13.1 47.5 33 63.7 19.7 15 13.5-12.8 23.3-5.8 14 15.4 31.2 30.9 40.5 49.2 6.3 14.4 8.3 11.6 21.3 15.2 9.1 6.4 13.4 24.2 26.5 23.4 11.9-1.6 15.9-17.3 24.3-23.5 3.3-2 7.4-.9 10.9-1.9 5.8-1.8 8.1-8.3 10.7-13.4 7.9-16.2 22.9-28.7 34.6-42.7 2.5-2.5 6.8-9.1 10.3-5.6 3.9 6.2 5.3 14 14.4 8 17.7-12.2 34.1-36.1 36-58.8.8-7.3 1.5-19.8 9.8-11.3 6.7 6.1 7.6 18.6 16.3 20.3 28.5-8.8 28.9-50 23.6-76-3-10.8 1.4-12 11.1-11.3 6.8-.3 28 2.9 23.8-7.8-3.1-5.7-9.9-9.6-12.7-15.5-2.2-3.5-2.2-8.3-1.9-12.9 6 .3 26.5 1.8 24.6-2.9-3.5-3.2-12.5-6-14.2-12.4h.5Zm-320.3-9.1c-3.8 6.6-9.5 17.5-14.5 7-2.4-5.4-2.8-12.5-3.8-18.1-1-6.4-2.5-11-7.9-5.3-2.6 2.8-5.2 6.7-8 9-16.6 12.5-14.1-34.9-10-46.9 1.1-5.9 9.6-21.6 5.9-25.8-13.1-6.1-21.4 69.9-55.7 45.4-14.1-18 11.5-50.5 21.4-63.9 3.6-4.4 9.5-12.7-.5-4.7-10.6 8.6-18.4 20.6-27.2 30.8-7.2 8.4-11.6 3.5-8.5-6.7 2.4-8.3 8.5-16.9 12.3-24.4 6.4-14-24.5 12-30.9 5.7-7-13.6 71.7-46.8 83.4-45.4.3.8-.4 1.7-.8 2.4-1.8 2.8-5.5 7.8-7 11.8-1.4 3.5-.8 4.6 1.8 2.9 6.5-4.7 14.7-12.1 22.6-12.6 15.2-.4 2.6 16.6-1.3 23-1.3 2.3-9.1 13-7 13 10.5-6.5 22.6-29.5 31.8-26.5 9.6 4.4 3.9 19.2.9 27.2-1.2 4.1-8.6 19.6-5.7 21.9 3.3 0 8.1-8.6 10.2-11.3 1.9-2.8 3.8-5.4 6-8 7.3-8.7 16.4-16.1 26.9-20.2 8.8-3.4-11.6 34.5-10.6 38.3 10.5-21.3 22.1-30.8 26.5-37.1 2.3-3.1 6.2-3.3 6.8-1-3.9 7.1-9 25.1-16.4 67.2 13.2-34.5 24-61.8 26.2-64 2.6-2.9 8.1-4.7 9.8-.4 1.6 3.8.5 8.5.7 12.7 0 2.2-3.4 14.7-.8 11.2 1.9-2.6 6.6-14.8 7.6-18 .5-1.2.7-3 2-3.6 15.3 8.9 5.4 127.2-8.5 126.8-39.3 10.7-17.8-51.5-12.3-77.4.2-1.8.2-2.7-.6-1.8-1.5 2.1-4 8.4-5.7 13.1-2.3 6-4.4 11.5-6.3 17.6-3 9.4-4.9 21-10.2 28.2-4.7 6.1-8.9 1.8-8.9-4.8-.4-6 2.3-13.9 2.8-19.4.5-11.2-27.2 19.7-28.8 21.8-2.8 3.2-5.2 6.7-7.4 10.4h-.2Zm146.3 79.6c-9 13.8-20.2 20.4-36.8 21.2-14.3 2-29.6.8-42-5.9-12.4-5.4-17-25-27.9-31.6-11.2-3.9-19.8 38.1-30.3 12.5-6.9-18.8-13.9-56.2 13.4-54.3 14.2 2.6 28.8 11.8 42.3 13.2 18.4 3.4 18.3-18.2 31.2-20.8 4.5.5 5.8 5.3 7.2 9.2 11 43.8 60.2-23 78.6-19.3 13.6 6.6 4.1 32.7 13.7 43.4-.5 7.2-2.7 14.1-6.5 20.3-1.7 2.7-3.5 5.2-4.7 8.1-.3.6-.5 1.1-.7 1.7-.9 1.5-1.7 3-2.4 4.7 0 .4-.2.7-.2 1-.2.4-.4.8-.7 1.2-15.4 6.9-12.3-35.7-34.1-4.7h-.1Zm-206 40.7c0-.4.2-1.3.2-1.8s0-.2 0 0c0 .4 0 1.5-.3 1.8Z" class="outline shading" data-original-prefix="shading" opacity="0.5" style="opacity: 0.5"/><path id="outline-mouthbit3" fill="#000000" d="M1155.3 1597.4c-8.9 5-25.4 14.5-34.9 18.7-.2-4.9.9-9.6.5-14.5-.5-6.4-3.7-15.5-6.8-21.2-1-1.9-7.7-13.3-10.2-9.7-1.9 2.8-3 8.5-6.1 12.7-4.4 6.1-8.1 9-14.6 12.5 0 0-2.3-48.1-23.8-84.1-.2 6 18.9 32.1 12.8 86.8-7.3 3.3-26.7 14.1-32.8 18.9-11.7-12.5-15.6-52.6-17.3-52.5-1.8 0-7.4 32.6-16.6 48.2-8.8-3.6-19.9-6.9-27.2-9.1-4.7-27.7 15.8-93.7 16-99.2-3.4 2.3-26.1 72.5-26.3 96.6-6.8-2-18.2-4.8-24.6-8.8 0-9.9-2-25.5 10-50.9-10.7 12-17.6 29.9-24.2 74.4-6.8-3.5-18-4.5-25.1-7.9 1.2-1.2-10.1-22.3 5.6-58.1-1.8-1.1-8 10.7-12.4 23.9-1.8 4.9-3.2 9.9-4 15.4-.6 3.6-.9 6.9-.7 9.7-5.2-3.5-10-7.6-13.7-12.9-10.5-14.8-12.6-31.2-6.7-48.3-16.7 9.3-34.6 41-18.7 67.8 3.8 6.5 1.7 0 1.4-1.4-3.1-12.8-5.5-14-.7-27.8l4.8-8.7c-.4 20.4 22.6 31.7 34.1 42.8 1.6 4.2.4 3.6 1.8 6.2 11.2 4.2 27.3 8.5 27.3 8.8.2 0 4.1 7.1 6.8 16.2.9 5.9 1.1 14.5 3.8 19.7.6 1.2 5.6 7 9.7 11.4-.4.7-3.1 36.5 3.2 48.3-3.1-23 5.7-48.2 4.9-49 3.1-8.3 6.7-16.4 13.5-22.4 3.3 15.6 20.9 30 29.4 35.4-.7.8.5 54 10 68.3 0 0-13.1-43-2-67.9 2.2-7.4 11.7 9 22 6.4 1.9-.5 3.6-.3 5.5 0 7 1.3 14.9-16.7 17.5-7.3 2.9 9.3 1.1 55.2 1.1 55.2 5-15.3 6.4-53.2 5.9-54 10-5.4 30.5-22.9 30.6-36.4 8.4 7.3 10.7 17.2 14.9 26.6.3.6-.2 2.2 1.6 1.4.5-.3 9.5-11.5 13-15.4 8.9 8.5 16.8 30.6 15.1 46.1 7.2-27.1-10.5-54.2-10.8-54.8 2.4-8.7 5-21 5.8-25.3 1 .5 22.5-11.1 40.6-25.9-5.3-25.7-21.2-78.6-30-88.2 1.3 13.6 22.3 55.1 17.6 85.2zm-52.3 61.5-14.5-19c-3.5-2.2-5.9-5.7-10.5-5-1.6 15.9-11.9 28.5-24 38-2.1-6.5-21.2 4.8-27.1 5.9-10.8-.3-29.5-14.2-33.4-5.8-9.8-8-16.1-15.2-21-27-1.9-4.6-1.1-12.9-7.5-10.5s-15.8 17.6-19.5 23.5l-8.6-28.4c5 .6 1.4.2 6.7.7-3.1-6.9-1.6-13.7.2-21.4 13.1 5.3 58.8 17.4 72 20.8 3.2-.7 3-24.4 5.6-33.5.6-1 9.1 34.7 9.1 34.7 6-.9 25.2-8.3 43-17.1 14.3-7.1 27.7-15.2 32.6-21.5 0 0 6.9 21.8-5.1 41.6 5.4-.4 4.6-.6 9.6-2.1l-7.5 26.1Z" class="outline" data-original-prefix="outline"/><path id="outline-moutbit2" fill="#000000" d="M1175.5 1538.1c17.5 33.9-3.8 51.1-4.7 59.1 10.5-9.6 18.6-20.1 18.4-29.3 3-2.2 5.8 20.8 4.5 38 11.3-3.8 16-46.9-18.2-67.8" class="outline" data-original-prefix="outline"/><path id="outline-mouthbit1" fill="#000000" d="M1282 1608.4c-11.7-16.8-8.3-42.2-19.4-61.6-2.2-3.8-8.1-9-8.6-9.9-.9-1.6-.6-11.4-2.2-14.3 3.6-.2 7 10.1 8.5 10.5 5.2 1.2 11.6-23.3 12.1-28.4.8-8.2-9-32.1-43-65.3-22.2-4.9-77.2-6.6-78.1-6.7 0 0-.2-1.6-1.5-2.4-3.8-2.5-43.7 3.7-59.6 7.7-3.7 1.4-7.4 3.3-6.3 8.9-17.1-1.1-27.9-11.9-45-5.5-3.5 1.3-12.3 7.1-14.7 7.3-3 .3-17.1-9.4-24.8-9.8-6-.4-32.8 7.9-35.5 8-5 1.9-9.4 5.7-10.7 2-.7-2.1-13-9.3-15.6-10.3-15.9-5.8-19.2-11.7-32.9-10.3-3.4 1.4-6.7 3.1-8.8 5.3-3.3-1.8-17.9-7.9-21.3-6.3-70.3 33.2-117 56.8-96.1 95.5 1.1 1.8 7.3 11.5 9.5 10 1.3-3.4 3.7-6.8 5.8-9.7.3-.5 1.6-3.2 2.2-1.8-1.6 4-1.1 10.2-2.2 13.8-.4 1.2-6.3 7.4-8 10.1-12.3 20.1-8.4 51.1-23.8 66.2-.9.8-1.5.9-1.1 2.4 14.4 3 29.6 8.9 44 3-2.3 8.1-9.4 13.2-16.6 16.8-3.1 1.6-10.6 3.4-12.7 5.1-.8.7-1 1.6-.6 2.1.6.8 15.3 8.4 17.3 9.2 9 3.7 22.2 4.6 31.7 2.8-4.1 16.3-6.9 36-.5 52 7.9 19.8 29.8 28.5 42 45l2-3 5.5-27.6c3.1 20.5 16.9 51.5 34.1 63 5.8 3.8 13.2 6.4 18.4 10.6 2.9 2.4 9 11.5 10 12 1.8.9 1.6-1.4 1.8-2.2.4-1.5 1.6-5.2 1.7-6.3h-.4c.5-5.2-.4-11.2 0-16.5 20.1 18.8 38.3 42 38 71 .9 1 9.6-7.4 11.1-8.4 1.2-.8 8.2-5.2 8.9-4.6-1.1 5.9 25.3 33.3 27.4 32.9 8.7-10.7 22.7-19.6 26.7-32.9 1.8-1.6 15.2 10.5 17 11.5 1.3.6 1.9.7 2.6-.5.6-.9 2.7-17 4-21 3.5-11 10.3-21.7 17.5-30.5 4.8-5.8 11.6-12.2 17-17.5v17.5c0 .3 1.4 4.3 1.7 5.3.3.8 0 3.1 1.8 2.2s7.7-10.4 11-13c3.8-2.9 8.5-4.1 12.4-6.6 20-12.8 34.4-30.6 39.1-54.4l5.9 17.6c0 1.2.4 1.9 1.6 1.4.7-.3 8.4-9.6 10.5-11.5 9.1-8.5 19.7-14.6 26.8-25.2 12-18 8.8-40.4 4.2-60.3 18.2 4 33.7-3.3 49-12 .5-2.2-.3-1.6-1.3-2.2-2.8-1.8-7-2.4-10.1-3.9-7.7-3.7-16.4-8.9-18.6-17.8 4.5 1 8.6 3 13.4 3s29.5-4.9 30.6-6c1.2-1.1-3.6-3.8-4.8-5.6Zm-31.1-3.7h-.2c-6.3-1-12.2-5.6-18.1-7.7-7.1 9.2-7.9 23.8 0 32.9 4.2 4.9 10.8 6.8 15.4 11.1-14.7 4.1-28.6 1.6-43-2 1.7 11.1 6.9 21.3 7.9 32.6 2.1 24.4-4.2 43.8-23.4 59.3-2.9-7.2-4.6-13.4-9.1-19.9-2.5-3.5-11.6-14-14.9-16.1-1.2-.7-1.9-1.2-3.5-.9 1.3 7.5.8 16.8 0 24.4-2.8 22.6-13.3 38.2-29.9 53.1l-12 9.5c-.5-4.9.6-10.8 0-15.5-.3-1.8-2.8-8.8-3.8-10.3-.6-1 0-1.8-2.2-1.3-4.8 13.2-14.5 23.1-24.3 32.8-8.3-24.3-4.3-48.5-7.4-74.2-.8-6.4-1.3 80.4.8 80.8-10.1 10.3-19.3 21.1-22.1 36.2-1.3 1-5-1.3-8.4-3.4 1.2-14.6 1.5-29.2.8-43.9-.3-6.4-10.6 46.4-10.1 47.1-.7 2.2-1.3 4.5-1.8 5.6-1.6 3.2-15.3 20.4-17.9 19.9-4.8-4.9-11.4-10.2-15.1-16-3.3-5.2-4-10.8-7.1-15.9-1.8-.4-11.9 8-15.4 7-.2-2.9-1-6-1.9-8.9v-.9c-1.6-27.9-36.2-79.3-32.8-73.8 10.1 16.8 17 35.1 20.5 54.2-7.6-8.5-16.8-15.7-24.2-24.6-5.7-6.9-10.2-14.5-15-22-5.9 8.1-3.7 17.8-5.5 27l-24-22.5c-14.9-18.3-20-41.4-17-64.5-1.4-1.2-11.1 4.6-12.5 6.1-3.1 3.3-2.9 1.7-5.3 6 0-16.9 3-24.8 3.5-34.1-5.6 9.4-11.1 43.5-9.9 49.7-1.2 3.1-2.2 6.2-2.8 9.2-25.6-19-27.6-46-20.7-75.2 1.3-5.6 4.7-10.7 3.7-16.8-14 4-27.7 5.8-42 2 8-5.8 19.4-11.5 20.9-22.6.5-3.8-1.9-21.4-6.4-21.4s-7.7 4.3-9.8 5.2c-7.2 2.9-12.9 3.3-20.7 2.8 7.1-16 3.8-34.4 13-50l9.3 16.7c-1.1-7.7-.8-19.1 1.4-36.1 1.8-13.5 5-27 10-39.5-11.2 2.3-21.8 8-29.3 16.7-11.6-31 78.7-73.7 92.8-76.5l9.6 4.5c-.5 0-14.6 15.1-18.4 34.4 12.6-27.5 25.6-30.7 32.5-34.5 0 0 .9-.4.9-.5l33.1 15c0 3.4-23 41.5-24.3 60.5 24.6-54.5 39.3-55.1 40-56.6 11.9-1.1 31.3-6.4 41.4-5.4 6.4.6 11.8 4.1 18.9 9 7.4 15.1 5.6 86.3 7.4 98.8 3-6.9 1.2-79.3 9.6-98.4 7-5.5 11.5-6.7 19.7-9.7 4.4 0 25.2 3.8 38.5 5.2.5.9 20.4 6.3 47 42.1.7-.4-1-3.3-3.9-7.6-14.9-27.2-28.1-36.2-29.7-35.5-1.7-2.6-2.9-5.4-2.5-8.8l41-9.3c2.5 1.7 27.1 25.4 33.5 40.1 3-1.8-5.9-26.5-11.6-34.2 26.1-.7 58.4 5.8 57 6.6 14.3 13 45.3 41.6 39 61.1-8.2-8.3-18.4-14.5-30-17 3 8.3 6 16.1 7.7 24.8 2.9 14.9 6.1 37.2 1.7 54.1 1.5-2 2.9-4 4.2-6.2l7.6-13.9c8.7 15.7 6.6 33.4 12 50-4.1-.2-8.2.4-12.3-.2v.2Z" class="outline" data-original-prefix="outline"/>
    </g>
</svg>