<?xml version="1.0" encoding="UTF-8"?>
<?xml-stylesheet type="text/css" href="../styles/semantic.css" ?>
<svg xmlns="http://www.w3.org/2000/svg" viewBox="0 0 2048 2048">
  <g class="trait-group" data-category="background" id="background-forest-mist">
      <defs>
    <radialGradient id="forest-mist-gradient" cx="50%" cy="50%" r="70%" fx="50%" fy="50%">
      <stop offset="0%" style="stop-color:#F0FFF0"/>
      <stop offset="100%" style="stop-color:#004B00"/>
    </radialGradient>
  </defs>
  <path id="color-forest-mist" class="color" d="M2048,0v2048H0V0h2048Z" fill="url(#forest-mist-gradient)"/>
    </g><g class="trait-group" data-category="jaw" id="jaw-robo">
      <path id="fill-jaw-robo1" fill="#ffffff" d="M1369.9 1062.1c.4.5 1 11.1 1.4 13.1 11.6 61.7 25.9 123 37.2 184.8 16.2 20.3 35.3 38.1 51.5 58.4l-70.1 149.9-2.3 1.6-31.6-1.9-7.8 59.7-101.2 128.8c-1.6 1.1-2.6-.6-3.6-1.6-11.2-11.1-20.8-28.6-32-40-1.3-1.3-2.6-3.5-4.8-2.9-3.4.9-32.4 51.8-38.3 57.8-25.8 9.8-49.6 24-74.7 35.3-8.9 4-63.2 23-65.1 25.9-.6 1-.4 2.8-.6 2.9-.2.2-3.1-.9-4.4-.9s-3.2 1.3-3.6.9c-.3-.3.7-2.4-2.3-4.2-13.4-8.1-38.6-14-54.4-20.6-28.2-11.8-54.4-28.3-83.3-38.7-6.3-5.8-35.3-57.4-38.7-58.4-2.2-.7-4.5 2.4-5.9 3.9-11.6 12.1-21.3 28.8-33.1 41l-1.9-.9-100.9-128.1c-3.2-19.9-5.4-39.9-7.5-60l-31.6 1.9-2.5-1.4-69.8-149.3c-.3-1.9 4.6-7.3 6.3-9.3 14.5-16.8 30.7-32.1 44.6-49.4 10.6-62 27.2-123.3 37.7-185.3.5-3.2-.7-11.9 2-13.3 104.8-21.7 209.7-42.7 314.5-64.3 7.3-1.5 24.9-7.3 30.5-7.5 4.2 0 24.8 6.2 31.1 7.5 105 21.6 210.1 42.9 315.1 64.4v.2z" class="fill" data-original-prefix="fill"/><path id="shading-jaw-main" fill="#aaaaaa" d="m1369.9 1062.1 28.1 145.4c-4.8-.6-19.2-17.4-22.3-16.4-3.4 1-21.1 37.8-20.7 42.4 12.3 15.8 24.8 31.6 35.4 48.6 3.7 5.9 15.5 24.5 15.6 30.5 0 4.7-10.7 25-13.5 30.5-4.5 8.7-9.8 16.9-14.5 25.5 17.3-8 33.9-18.4 49.3-29.7 4.1-3 10.3-7 13.7-10.3 2.3-2.2 12.4-16.5 13.5-16.5l5.5 6.4-65.1 139.9-6.5 11.5-32.3-1.9-7.8 59.7-101.2 128.8c-1.6 1.1-2.6-.6-3.6-1.6-11.1-11.1-20.8-29.2-31.9-40-.8-.8-1.6-2.1-2.9-1.9-7.3 1.3-32.3 48.3-39.7 55.4-30.9 14.9-60.7 32.4-91.6 47.4-12.8 6.2-33.2 17.2-46.8 18.2-23.7 1.7-37.4-7.3-57.9-17.2-31.4-15.1-61.6-32.8-93-48-8.2-6.6-32.8-54.4-40.3-55.8-2.8-.5-31.3 38.2-35.8 43-1 1.2-2 1.2-3.1 0l-100.9-128.1-7.5-60-31.6 1.9-2.5-1.4-69.8-149.3c-.3-3.1 3.7-7.8 6.8-5.8 1.9 1.2 8.8 11.9 11.5 14.6 2.9 2.9 7.8 6.2 11.2 8.8 4.5 3.4 49.2 33.3 51.3 31.2-7.3-15.4-17.3-29.8-23.8-45.6-1.2-2.9-3.2-6.7-3.2-9.9 0-5.3 10.4-22 13.7-27.4 11-18.2 24.3-34.9 37.4-51.6-4.2-15.2-12-29-20.1-42.3-.9-.5-2 0-2.9.4-6.3 3.4-12.9 13.3-20 16.5l28.1-145.9 45.8-9.7c48.2-55 116.4-93.5 184.8-118.2 72.2-26 130.6-31.5 205-8.5 77.7 24 155.9 65.5 210.3 126.7zM854 1330c-21-6.7-43.3-4.3-64.4-11.1-14-4.5-30.8-14.7-42.9-23.1-18.1-12.6-35.7-28.4-49.2-45.8-10.7 14.6-22.1 30.4-30.7 46.3-4.3 8-11.3 21.1-7.7 30.1l27.1 48.4c6.1 1.6 17.5-4.7 22.8-2.3 1.5.7 2.4 3.5 4.5 3.5s4.4-5.1 7-5.1 3.4 4.4 7 4.1 5.2-6.6 7.2-7c.5 0 8.2 2.7 8.6 2.9 4.7 2.4.3 18-3.2 21.4.3 1.5 14.2 9.3 16.4 9.6 2.9.5.2-2.4 1-4.9s6.5-6.3 8.8-5.9c5.4.9 6.3 10.2 14.7.3 1.9-2.2 0-4.1 4.5-4.6 8.5-1 5 8.4 7 14.1 12.4-17.2 20.2-37.4 32.1-54.9l29.4-16.1Zm507.8 44.8c8.8-17.7 20.1-34.4 28.2-52.3-.4-8.9-2.9-14.5-6.9-22.2-8.9-17.4-21.4-34.4-32.7-50.3-21.1 25.5-52 52.2-82.8 65.2-24.8 10.4-48.4 7.8-73.7 14.8l29.7 16.3c11.6 17.6 19.4 37.7 31.8 54.7.9-1.8 1-13.5 1.5-14s7.3-.2 7.8.2c1 .6 1.6 7.8 6.9 8.7 6.3 1.1 7.7-7.8 15.4-2.8 2.7 1.8 3.1 6 2.8 8.9 1.2 1.4 17.7-8.3 18-9.6.2-1-3.9-5.8-4.6-8.4-2.2-9.5-1.5-13.7 8.4-14.8 5.3-.6 2.8 2.2 5.5 4.5 4.6 4 7.8-2.7 10-2.6 2.7.2 5 4.9 7.2 4.9s3-2.8 4.5-3.5c5.2-2.4 16.6 3.8 22.8 2.3zM1078 1327c-5.5-11.1-10.5-24.8-17.6-34.9-4.2-6.1-10.2-10.5-14.9-16.1-3.4-4-15.2-20.5-18.4-21.6-1.9-.6-4.4-.8-6.3-.2-2.4.7-15.7 18.7-18.7 22.3s-7.4 6.8-10.5 10.5c-9.4 11.2-15.1 26.9-21.5 40h108Zm-353.8 172.8c24.8 5.4 50.2 7.7 75 13.6 17.3 4.1 20.3 3.6 29.6 19.4 5.3 8.9 9.2 18.7 14.2 27.8l17 14-29.2-80.8c-2.4-5.8-8-8-13.1-10.9-22.2-12.9-51.7-27.2-75.7-36.3-2.6-1-8.1-3.8-10.4-3.5-1 0-15.6 9.5-16.3 10.3-6.3 7.6 6.8 37.2 8.9 46.5Zm599.6 0c2.5-10.6 8.2-22.1 9.8-32.7.8-5.7 1.7-10.9-3-15.1-1.1-1-13.2-8.9-14-9-2.5-.3-19.4 7.2-23.2 8.8-20.7 8.8-45.7 20.5-65 32-5.6 3.4-8.8 4.9-11.8 11.2l-28.5 80 16.4-14.1c7.1-10.9 14.9-35.4 25.9-42.1 6.1-3.8 19.9-5.9 27.5-7.5 21.8-4.6 44.2-6.7 66-11.5zM908.5 1649v1c.7-.3.7-.7 0-1m229.5 1c-31 8.8-60.6 26.8-91 36.5-19.3 6.2-28.3 5.9-47.5-.4-28.3-9.3-56.5-25.5-85-35.1-1.2-.4-3.6-1.8-4.5-.5.8 2.1 2.7 4.2 4 6 4.9 6.3 18 23.3 23.5 27.5 7.2 5.5 27.9 14.6 37.1 18.9 5 2.3 20.9 10.5 24.9 11.1 9 1.4 36.3 1 46 0 7-.6 57.7-24.6 64.4-29.6 5.3-3.9 18.2-20.8 23-27 .8-1 5.8-6.8 5-7.5Z" class="outline shading" data-original-prefix="shading" opacity="0.5" style="opacity: 0.5"/><path id="outline-jaw" fill="#000000" d="M670 1105c2 .2 9.2 3.6 9.8 5.7 1 3.3-1.3 18.1-2 22.7-6 41.8-19.7 84.1-28.6 125.4-12.3 18.3-29.3 33.5-43.8 50.2-1.2 1.3-6.5 7.5-6.5 8.5l56 135.5c1.5.4 1.7-.4 2.5-1 7.1-4.9 23.9-23.3 30.5-30.5 1.5-1.6 9.9-11.2 10-12-17.6-32.9-42.5-63.1-49.8-100.8 17.2-28.9 35.3-57.4 56.9-83.2 6.2-7.4 21.8-27.5 32-26.1 4.7.6 8.6 4.8 6.4 9.5-23 21-44.9 44.7-62.7 70.3-3.2 4.6-15.2 22.2-15.6 26.5-.5 5.1 11.8 29.8 15 35.6 7 12.8 29.4 46.8 40.5 54.5 2.8 1.9 7 3.2 10 5 77.7 46.7 153.2 90.1 243.1 109.9 13.1 2.9 37.4 9.1 49.8 9.2 11.3 0 33.7-5.7 45.6-8.2 92.6-19.7 168.3-62.9 248.1-110.9 3.1-1.8 7.2-3.1 10-5 11.1-7.7 33.4-41.8 40.5-54.5 3.2-5.8 15.5-30.5 15-35.6-.4-3.9-10.7-19.3-13.6-23.5-18.3-27-40.8-51.3-64.7-73.3-2.5-9.2 6.9-10.8 13.8-7.8 10.7 4.6 40.4 44.2 48.5 55.5 11.9 16.7 22.3 34.6 33 52.1-7.3 37.7-32.2 67.9-49.8 100.8 0 .8 8.5 10.4 10 12 6.6 7.2 23.4 25.6 30.5 30.5.8.6 1 1.4 2.5 1l55.8-135.3c-15.4-20.6-35.6-37.7-50.1-58.9-8.6-41-22.6-83.1-28.6-124.4-.7-4.8-3.1-20-1.9-23.7.6-2.1 8-5.5 9.8-5.7 4.6-.4 10.8 5.1 11.9 9.6 8.1 44.1 13.6 92.9 27.6 135.4 9.1 27.6 33.8 39.8 52 60 4.9 5.4 6.6 7.2 4.8 14.8-2.1 8.6-9.2 23.2-12.8 32.2-16.7 41-35.5 81.7-54.5 121.5-2.5 2.1-18.6 9-21.4 8.6-4.6-.7-13.3-13.3-18.5-15-3.1 22.3-7.1 44.7-11.8 66.7-29.2 38.3-55.4 79-82.3 118.7-10.2 4.1-22.2 12.3-32.2 15.8-1.5.5-3 1.3-4.6.7l-24.6-43.9c-1.1.5-16.2 15.9-17.3 17.7-6.5 10.1-3.8 21-14.2 29.8-22.9 19.1-72.2 40.2-100.7 51.3-18.6 7.3-34.3 14.2-54.7 14.3-24 .2-49.5-11.4-71.5-20.6-23.2-9.8-67.3-29.4-85.5-45.5-10.3-9.1-7.3-19.2-13.7-29.3-1.1-1.7-16.2-17.1-17.3-17.7L812 1674c-1.6.6-3.1 0-4.6-.7-10.1-3.5-22-11.7-32.2-15.8-26.9-39.8-53.1-80.4-82.3-118.7-4.7-22-8.6-44.4-11.8-66.7-5.2 1.7-14 14.4-18.5 15-2.8.4-18.9-6.5-21.4-8.6-19-39.8-37.8-80.5-54.5-121.5-3.6-8.9-10.8-23.6-12.8-32.2-1.8-7.6 0-9.4 4.8-14.8 13.4-14.9 37.6-30.5 47.2-47.8 7.3-13.1 12.4-41.8 15.8-57.2 4.5-20.4 8.5-41.2 12.2-61.8 1.5-8.5 1.8-19.4 3.7-27.3 1.2-5 7.2-11.3 12.6-10.9zm664.9 411.9 14.2-77.4c-.2-3.8-5.4-5.5-8.1-8-2.9-2.7-5.4-5.9-8.6-8.3-82.7 31.3-155.3 82.7-242.3 103.3-57 13.5-94.2 11-150.2-4.8-69.9-19.7-131-59.2-197.1-87.9-6-2.6-20.1-9.4-25.7-10.4-2.8-.5-7.7 6-10 8.1-2.1 2-7.6 4.5-8.1 7l14.2 78.3c17.8 1.1 35.6 3.8 53.4 5.1 9.3.7 42.4-.4 47.8 3.9 8.5 20 14.6 41 23.2 61 2.8 6.5 6.2 15.2 9.9 21.1 5.4 8.7 15 14.9 20 23.1 5.6 9.2 8.1 23.6 15.5 31.5 5.1 5.5 21.6 15 28.8 19.2 31 18.4 83.7 44.6 119.8 42.2 30.1-1.9 87.2-31 113.4-47.6 5.2-3.3 16.2-9.8 20.1-13.9 7.2-7.5 10.4-24.2 16.1-32.9 2.7-4.1 8-7.8 11.3-11.7 8.3-9.7 11.9-17.5 16.9-29.1 9-20.6 15.3-42.4 24.2-63 14.6-5 32.2-2.8 47.8-4 17.8-1.3 35.6-4.1 53.4-5.1v.3ZM801 1649c5.8-16.3 16.4-30.6 24.8-45.6-4.3-11.7-7.5-23.9-12-35.6-2.2-5.8-7.4-19.7-10.9-24.1-10.8-13.6-69.6-12.5-86.9-16.6-.5 1.7.7 2 1.5 3 13.4 17.3 27.7 33.6 40.3 51.7 15.2 21.9 28.4 45.1 43.2 67.3Zm531-122c-17.3 4.1-76.1 3-86.9 16.6-3.5 4.4-8.6 18.3-10.9 24.1-4.5 11.7-7.7 23.9-12 35.6 8.4 15.1 18.9 29.3 24.8 45.6 14.7-22.2 27.9-45.4 43.2-67.3 12.6-18.1 26.9-34.3 40.3-51.7.8-1 1.9-1.3 1.5-3Z" class="outline" data-original-prefix="outline"/><path id="outline-jaw1" fill="#000000" d="M785.7 1376.3c8.1 7.2 8.5 18.5 4.1 27.9-5.2 10.9-19.3 10.7-26.7 2.3-15.1-17.3 3.6-47 22.7-30.2Zm-12 4.9c-10.7 1.7-7.7 23.9 4.7 21.8 10.2-1.7 4.4-23.3-4.7-21.8" class="outline" data-name="outline-jaw" data-original-prefix="outline"/><path id="outline-jaw2" fill="#000000" d="M1262.3 1376.3c22.7-20.1 40.5 23.7 16.9 34.4-21.7 9.8-31.5-21.5-16.9-34.4m10.4 4.9c-10.5 1.7-12.6 25.9 1.3 21.4 10.1-3.2 8.1-22.9-1.3-21.4" class="outline" data-name="outline-jaw" data-original-prefix="outline"/><path id="outline-jaw3" fill="#000000" d="M723.7 1356.2c15.6-2.8 28.9 19.5 15.8 29.8-10 7.8-24 0-26.8-11.2-1.8-7.1 3.5-17.2 11-18.6m9.1 22.6c6.5-6.5-8.3-22.1-11.4-7.8-1.5 7.3 7.1 12.1 11.4 7.8" class="outline" data-name="outline-jaw" data-original-prefix="outline"/><path id="outline-jaw4" fill="#000000" d="M1317.7 1356.2c14.2-2.9 23 13.6 14.3 25.3-12 16-34.6 4.8-27.5-13.5 1.7-4.3 8.7-10.8 13.2-11.8m-2.5 22.6c4.3 4.3 12.9-.5 11.4-7.8-3-14.3-17.9 1.3-11.4 7.8" class="outline" data-name="outline-jaw" data-original-prefix="outline"/>
    </g><g class="trait-group" data-category="mouth" id="mouth-jaws">
      <path id="fill-mouth-main" fill="#ffffff" d="M1102 1287c.4.6-2.2 4.3 0 5.5 50.4 27.6 100.7 55.4 145.8 91.1-5.2 15.8-10.4 31.6-16.7 47.1-5.9 14.4-8.3 22.4-12.7 37.3-13 44.8-25.3 89.9-38.3 134.7-3.4 15.6 7.3 31.3 8.8 45.8.5 5.4-1.6 24.6-3.1 29.9-2.4 8.9-12.3 10.5-19.9 15.1-23.1 14.2-44 33.8-68.7 45.3-38.6 17.9-94.7 18.9-134.6 4.9-30.8-10.8-53.7-33.5-80.8-50.2-5.6-3.4-16.3-6.9-18.8-12.2-2.2-4.7-4.6-27.2-4.1-32.9 1.2-14.4 12.1-30.2 8.8-45.8-13.8-47.4-26.5-95.2-40.5-142.5-3.7-12.4-5.6-17.8-10.5-29.5-6.4-15.4-11.4-31.2-16.7-47.1 45.2-35.6 95.4-63.7 145.8-91.1 2.2-1.2-.5-4.8 0-5.5.2-.2 3.4-1.1 4.7-1.9 25.5-15.1 52.3-31 83.7-27.1 24.4 3.1 42.7 15.5 62.9 27.1 1.2.7 4.5 1.7 4.7 1.9h.2Z" class="fill" data-original-prefix="fill"/><path id="fill-mouth-teeth13" fill="#ffffff" d="m1042 1510-1.9 71.5c-.9 11.5-1.7 23.4-2.1 34.9-.2 7.7 1.3 20.2 0 27-.5 2.5-12.9 11.6-14.3 11.4-1.2-.2-13.2-8.9-13.7-11.4-.2-44.5-3.3-88.9-4-133.5l17.6 16.9 18.3-16.9Z" class="fill" data-original-prefix="fill"/><path id="fill-mouth-teeth12" fill="#ffffff" d="m1000 1637-20-15.5c-1.8-.5-2.8-4.4-3-4.5-.8-.5-3 3.8-5 3-.4-20.5-.2-41.1-1-61.5s-2.9-41.1-2.5-61.4l11-14c3 4.2 18.8 16.6 19.2 20.6.4 3.5-.9 11.2-.8 15.9.8 20.4 1.8 41.5 2.1 61.9.2 18.5-.2 37 0 55.5" class="fill" data-original-prefix="fill"/><path id="fill-mouth-teeth11" fill="#ffffff" d="M1076 1620c-2 .8-4.2-3.5-5-3-.2.2-1.2 4.1-3 4.5l-20 15.5c.2-18.5-.3-37 0-55.5.2-20.4 1.3-41.5 2.1-61.9.2-4.7-1.2-12.4-.8-15.9.4-4 16.2-16.4 19.2-20.6 2.1 3.9 9.5 10.8 11 14 1.8 3.8-1.3 28.2-1.5 34.4-.3 9-.7 18.1-1 27-.7 20.5-.6 41.1-1 61.5" class="fill" data-original-prefix="fill"/><path id="fill-mouth-teeth10" fill="#ffffff" d="M1114 1651c-3.8-.4-4.7-3.2-5-6.4-1.4-14.4 1.7-35 2.1-50 .6-21.9 0-43.7 2-65.5 3.3.2 4.2 1.9 7.1-.4 6.2-5.1 13.2-22.1 19.9-28.8s2.8-2 3-1.8l-9.1 120.4-20 32.6Z" class="fill" data-original-prefix="fill"/><path id="fill-mouth-teeth9" fill="#ffffff" d="M907.7 1499.3c7 6.2 13.8 23.9 20.3 29.2 2.9 2.4 3.8.6 7.1.4 1.5 10.5.6 21 1 31.5.7 20.9 1.5 42 2 63 .2 5.8 4.1 25-2.5 27.4-1.7.6-6.8-10-8.5-11.4l-12.9-21.1c-3.3-40.1-5.6-80.4-9-120.4 0 0 2.2 1 2.7 1.3h-.2Z" class="fill" data-original-prefix="fill"/><path id="fill-mouth-teeth8" fill="#ffffff" d="M903 1601c-7.1-6.3-5.5-23.9-18-13l-17-142c10.4 12.2 19 26.1 28 39.5 1.9 38.5 3.8 77.1 7 115.5" class="fill" data-original-prefix="fill"/><path id="fill-mouth-teeth7" fill="#ffffff" d="M1163 1588c-12.5-10.9-10.9 6.7-18 13l4-51.5 3.1-63.9c8.9-13.4 17.5-27.3 27.9-39.5l-17 142Z" class="fill" data-original-prefix="fill"/><path id="fill-mouth-teeth6" fill="#ffffff" d="M963 1507c-.7 40.2 2 80.1 2 120.3-1.9 1.4-17.9 15-19 13.7.9-38.3-2.3-76.2-2-114.5l15.4-18.6z" class="fill" data-original-prefix="fill"/><path id="fill-mouth-teeth5" fill="#ffffff" d="M1102 1641c-1.1 1.3-17.1-12.3-19-13.7.4-22.3.5-44.6 1-66.8 0-2.4 1-4.6 1.1-6.9.3-15.5-.3-31.1 0-46.5l3.6.9 15.4 18.6c.3 38.2-2.9 76.2-2 114.5Z" class="fill" data-original-prefix="fill"/><path id="fill-mouth-teeth4" fill="#ffffff" d="M875 1581c-1.5.2-1.3-1.7-1.7-2.8-3-8.8-6.1-18.6-8.6-27.4-10.7-37.7-11.6-78.6-17.8-117.3 0-3.9 3-6.9 5.6-9.5 3.4 3.5 5.8 6.6 6.4 11.6 1.2 10.1 1 21.5 2.1 31.9 3.8 35.2 11.2 72.2 14 107 .2 2.2 0 4.3 0 6.5" class="fill" data-original-prefix="fill"/><path id="fill-mouth-teeth3" fill="#ffffff" d="M1172 1580c6.3-40.6 11.8-81.6 16-122.5 1.2-11.5-1.6-25.4 7.5-33.5 2.6 2.6 5.7 5.5 5.6 9.5-7.6 47.5-8 99-26.1 144-.6 1.6-.8 2.9-3 2.5" class="fill" data-original-prefix="fill"/><path id="fill-mouth-teeth2" fill="#ffffff" d="m843 1439 4 53-5.7-15.8c-1-7.8-7.5-23.8-4.4-30.8.5-1.1 2.9-4.1 3.8-5.2.6-.7 0-1.9 2.3-1.3Z" class="fill" data-original-prefix="fill"/><path id="fill-mouth-teeth1" fill="#ffffff" d="M1207 1439c.3.3 4.7 7.3 4.8 7.7 1.3 4.9-3.4 23.5-5 29.5l-5.7 15.8 4-52.5c0-.9 1.9-.6 2-.5z" class="fill" data-original-prefix="fill"/><path id="shading-mouth4" fill="#aaaaaa" d="m900 1319-56.5 57-14 16c-1.9 4.1 3.2 15.8 2.5 21 4.2-1.8 14.7-13.4 18.4-13.1 4 .3 8.8 14.9 10.3 18.8 2.5 6.3 4.5 12.8 6.8 19.2 18.7 24.5 38.6 48.2 57.4 72.6 3.8 5 3.2 9.2 10.1 7 3.2-1 13.7-10.2 17-13 10.5-9 19.8-20 30.5-28.6l41.1 41 41.9-41c13.1 10.8 24.4 24.6 38 35 3.2 2.5 10.4 9 14.5 6.5l61.8-79.2c3.6-6.3 11.7-36.7 16.9-38.2 4.6-1.3 17.3 14.1 19.3 11.9-.8-5.2 4.4-15.8 2.5-20-20.7-25.2-46.1-46.1-68-70-.7-.7-2.7-2-2-3 34.5 16.7 65.1 39.8 96 62 2.5 5.1-7.2 33.5-9.8 40.2-2.7 7.3-6.2 13.8-9.2 20.8-3.2 7.3-3.5 21.2-14.5 14l-8.5 50-2.5 1c-.2-19.8 1.9-39.7 4-59.4-2-4.9-6.9-13.6-8.8-3.8-4 21.5-4.5 48.2-7.4 70.6-3.6 28-8.2 56-12 84-2 14.9-3.3 16.2 1.9 31.4 1.3 3.8 7.2 14.6 7.4 16.7s-6.3 26.7-7.6 29.5c-2.4 5.5-34.3 27-41.2 30.8-23.5 12.8-65.3 23.2-92 27-44.3 6.3-112.7-12.8-149.7-38-4.2-2.9-22.5-15.7-24.1-18.9-1.2-2.3-7.8-28.2-7.7-30.4 0-2.1 7-16.2 8.3-20.7 4-13.7 2.7-13.4.9-26.4-7.5-52.8-15.1-105.5-20.4-158.6-2.2-5.2-7.7 4.9-7.9 7.8 2.1 19.4 4 39 4.1 58.5h-3l-8-51c-11.6 7.2-11.3-6.6-14.5-14-5.7-13.3-11.5-25.2-15.5-39.5-1.5-5.2-6.1-18.6-2.5-22.6 31.2-21.3 60.9-45.2 95.5-60.9zm-34.5 137v1c.7-.3.7-.7 0-1m315.5 1c-3.8 9.4-17.3 19.9-21.1 28.4-3.4 7.8-1.6 20.7-3.9 29.1l-3 60c.6 3 10.1 7.9 13.4 8.4zm-286.2 118.8c-1.8-29.7-2.2-59.6-6.1-89.1-7.3-9.7-14.3-20.1-22.7-28.8l14 125c6 0 10-4.5 14.8-7.2ZM995 1627c-.8-15.5-.4-31.1-1-46.5-.7-20.6-1.2-43.5-3-63.9-.3-3.6-.4-13.4-4.5-13.5-2.5 0-20 10.7-20.5 13.5 2.4 20.6 1.2 41.4 1.9 62 .2 6.2.6 13.8 1.1 19.9s3 12.8 2 19.5l5.4-5c1.5 2.2 17 15.7 18.6 14m82-10c-.8-6.9 1.6-13.7 2.1-20.4 1.1-17.4.3-35.7.9-53.1.3-8.7 2-18.1 2-26.9s-1-2.1-2-3c-2.2-1.8-17.3-10.9-19.3-10.4-2.9.7-3.4 7.6-3.7 10.4-3.3 35.8-2.8 74-4 110 0 1.4 0 2.9-1 4 5.2.7 17.8-14.1 19.5-14.5 2.3-.5 2.5 4.7 5.4 4Zm-146 17c-1.9-32.1-.2-64.4-2-96.5l-26-32.5c2.8 32.1 2.9 64.2 5 96.4 6.9 11.3 14.5 22.3 23 32.5Zm187 0 22-32.5c1.9-32.2 2-64.3 5-96.4l-26 32.5c-2 25.3-.4 50.7-1 76-.2 5.9-1.4 11.5-1 18 0 1.1-.7 2.8 1 2.5Zm-175 2c.8.8 16.4-9.7 17.5-11 .7-.8 1.5-1.4 1.4-2.6-.7-33.9-2.5-67.6-4-101.5-3.4 2.4-16.3 10.2-17 13.5-.2 33.9 0 67.8 2 101.5Zm101-115c-4.9 2.7-10.4 10.7-15.7 11.8-11.9 2.5-16.1-5.4-24.3-11.8 1.3 37.5 2.3 74.9 2 112.5.8 4 14.2 9.4 17.7 12.4 3.7-2.5 17.6-8.6 18.3-12.4-.2-37.6.2-75.1 2-112.5m61 115c1.6-33.8 2.3-67.6 2-101.5-.7-3.7-13.7-10.5-17-13.5-1.8 33.8-3.7 67.5-4 101.5.2 2.9 18.2 14.4 19 13.5m-167.3 18.7c-1 .9-2.6 1.5-4 1.2-3.8-1-23-30.3-27.3-35.8L895 1607c-.4 4.4-1.3 8.8-2.5 13-1.6 5.4-8.4 19.9-8.6 23.5 0 2.9 4.5 19.8 5.8 23.3.7 1.9 1 3.9 2.9 5.1 29 14.8 52.4 35.8 84.2 44.8 31.1 8.9 64.2 8.8 95.2-.2 31.6-9.2 55.5-30.5 84.3-45.4.8-.4.9-1.2 1.2-2 1.2-3 6.7-24.2 6.5-26.5-.3-3.3-5.8-13.4-7.3-17.8-1.8-5.8-3.1-11.8-4.2-17.8-2.2 3.1-5.1 5.6-7.5 8.5-8.8 10.8-17.2 26.4-26.1 35.9-1.6 1.8-3.2 3.6-5.6 4.3l-43.7-28.7c-4.3 3.6-8.6 8.8-13.3 11.7-8.2 5.1-15 6.1-23.4 13.6-2.3 2.1-3 5.8-6.5 6.5-8.1 1.6-7.3-2.8-11.5-6.4-7.2-6.1-10.9-7.5-18.9-11.1-6.3-2.8-12.3-10-17.6-14.4-12.8 7.9-26.2 15.6-38.3 24.5-1.3.9-1.6 2.5-2.3 3.1v.2Z" class="outline shading" data-original-prefix="shading" opacity="0.5" style="opacity: 0.5"/><path id="shading-mouth3" fill="#aaaaaa" d="M1118 1345c-1.5 1.5-1.8-.6-2.3-1.3-1.8-2.3-6.1-7.1-7.1-8.8-1.8-3.2-.9-7.3-2.6-9.4-2-2.4-11.1-9.6-14.1-11.9-17.8-13.8-38.6-25.3-56-40-3.6-5.4 6-7.7 4.1-13.6.4-.4 8.3 1.9 9 2.5 1.9 1.6 0 5.2 2 7l68.4 49.6c2.9 2.8-.3 24.8-1.4 25.9" class="outline shading" data-original-prefix="shading" opacity="0.5" style="opacity: 0.5"/><path id="shading-mouth2" fill="#aaaaaa" d="M1008 1260c-2.1 5.5 7.8 8.5 4.1 13.6l-61.1 43.9c-10.3 7.3-11.1 16.5-18.7 26.2-.5.7-.7 2.7-2.3 1.3-1.1-1-5.1-24.3-1-26.5l68-49c2-1.9 0-5.2 2-7 1-.9 8.7-2.9 9-2.5" class="outline shading" data-original-prefix="shading" opacity="0.5" style="opacity: 0.5"/><path id="shading-mouth1" fill="#aaaaaa" d="M1011 1355c1.1 4.6-4.9 8.9-3.6 13 1.1 3.3 13.8 10.8 16.2 14.9 1.2.2 16.5-14.1 17-15.9 1-3.6-5.2-7.6-3.6-12 6.9-2.5 17.3 6.5 15.8 13.3-.8 3.8-7.8 10.3-10.8 13.2-6 5.9-6.9 4.1-10.8 12.2-1.9 3.9-5.9 3.9-9.8 3.3-5.8-.8-4.3-4.3-6.4-7.6-4.4-6.7-23.9-15.6-19.3-26.2 2.2-4.9 9.7-10.1 15.2-8.2Z" class="outline shading" data-original-prefix="shading" opacity="0.5" style="opacity: 0.5"/><path id="outline-mouth" fill="#000000" d="M1006 1260c.4-2.1 4.7-6.2 6.5-7 2.2-1 1.8 3.9 2.5 5l-.5 19c-9.8 6.8-19.7 13.6-29 21-10.5 8.4-26.4 21.1-35.5 30.4-3.6 3.7-.7 4.6 2.7 7.3 14.2 11.7 34.2 18.3 52.3 20.2 1.2 1.2-6.6 10.7-4.8 13.8l23.5 23.1c1.5.3 18.4-18.6 21.4-21.5.8-.8 2.6-1.3 2.8-1.6 1.8-3.1-6-12.7-4.8-13.8 18.1-1.9 38.1-8.5 52.3-20.2 3.3-2.8 6.3-3.7 2.7-7.3-9.1-9.4-25-22-35.6-30.4-9.3-7.4-19.2-14.2-29-21-1.1-1.8-.6-15.7-.5-19 0-1.1-.9-6 1.5-5 2.1.9 6.1 6.1 7.5 7-1.8 1-1 3.4-.5 5 3.8 10.3 55.3 44.8 67.4 54.6 1.8 1.5 8 6 8.6 7.4 2.3 5.4-.6 18.1-.5 24.5 0 4.3 3.4 17.4 1.1 20-1 1.1-12.4 6.6-15.3 8.7-15.1 10.7-26.8 28.3-34.7 44.8-1.5.4-1.7-.4-2.5-1-5.2-3.6-23.3-26.5-26.1-26.9-5.3 3.9-11.8 6.3-12.4 13.4-1.2 13 1 27.8 0 41.1l3.1 42.5 34.4-35.1 2.9-.9c13.6 15 26.1 31.3 40.1 46 1.3 1.4 9.3 10.1 10.5 9 3.5-11.2 11.6-21.6 18.2-31.3 19-27.8 40.6-53.8 59.3-81.7.8-.7.7-1.5 1.5-.4 7.1 9.4 13.4 20.9 20.5 30.4l17.6-43.4-157.1-108.6 2-3c36.8 19.5 75.4 39.4 110.9 61.6 21.2 13.3 40.5 29.5 61.9 42.6.6 1.1.2 2.9 0 4.2-.7 7.6-9.9 31.6-13.2 39.9s-7.1 16.1-11 24l-44.5 161.6c.4 12.4 9.3 27.7 9.8 39.7.3 6.8-1.7 25-3.2 31.9-.4 2.2-1.7 6.3-3 8-1.2 1.6-15.8 8.4-19.4 10.6-24.6 15-45.2 35.2-72.5 46.5-40.8 16.9-104 16.8-144.7-.3-27-11.3-47.4-31.4-71.8-46.2-3.6-2.2-18.2-9.1-19.4-10.6-1.3-1.7-2.6-5.8-3-8-1.4-6.9-3.5-25.1-3.2-31.9.6-12.2 9-27.1 9.8-39.7-13.1-46.2-25.7-92.7-39.3-138.8-2.2-7.3-3.2-16.5-5.7-23.3s-7.5-14.1-10.5-21.5c-5.5-13.7-9.1-28.1-14.2-41.9-.3-1.7 0-3.3 1.4-4.4 24.1-15.7 46.6-33.8 71.2-48.8 32.3-19.7 66.7-38.2 100.3-55.2l3 3-157.1 108.6 17.6 43.4c7.1-9.6 13.4-21 20.5-30.4.8-1.1.7-.3 1.5.4 18.8 27.9 40.3 53.9 59.3 81.7 6.6 9.7 14.7 20.2 18.2 31.3 1.2 1.1 9.2-7.6 10.5-9 14-14.6 26.5-30.9 40.1-46l2.9.9 34.4 35.1 3-42.5c-1-13.2 1.2-28.1 0-41.1-.7-7.1-7.1-9.5-12.4-13.4-2.8.5-21 23.4-26.1 26.9-.8.6-1 1.4-2.5 1-7.8-16.5-19.6-34.1-34.7-44.8-3-2.1-14.3-7.5-15.3-8.7-2.3-2.6 1-15.7 1.1-20 0-6.4-2.8-19.1-.5-24.5.6-1.5 6.8-5.9 8.6-7.4 11-9 62.9-44.3 66.1-52.9 1.1-2.8.4-4.5.8-6.7zm-131 321c0-2.1.2-4.3 0-6.5-2.8-34.8-10.2-71.8-14-107-1.1-10.4-.9-21.8-2.1-31.9-.6-5-3-8.1-6.4-11.6-2.6 2.6-5.7 5.5-5.6 9.5 6.2 38.7 7.2 79.6 17.8 117.3 2.5 8.9 5.6 18.7 8.6 27.4.4 1.1.2 3 1.7 2.8m297-1c2.2.4 2.4-1 3-2.5 18.1-45 18.6-96.5 26.1-144 0-3.9-3-6.9-5.6-9.5-9.1 8.1-6.3 22-7.5 33.5-4.2 40.9-9.7 81.9-16 122.5m-329-141c-2.3-.6-1.7.6-2.3 1.3-.9 1.1-3.3 4.1-3.8 5.2-3.1 7 3.3 23 4.4 30.8l5.7 15.8-4-53Zm364 0s-2.1-.4-2 .5l-4 52.5 5.7-15.8c1.6-5.9 6.4-24.5 5-29.5 0-.4-4.4-7.4-4.8-7.7zm-304 162c-3.2-38.4-5.1-76.9-7-115.5-8.9-13.4-17.5-27.3-28-39.5l17 142c12.5-10.9 10.9 6.7 18 13m260-13 17-142c-10.4 12.2-19 26.1-27.9 39.5l-3.1 63.9-4 51.5c7.1-6.3 5.5-23.9 18-13Zm-163 49c-.2-18.5.3-37 0-55.5-.2-20.4-1.3-41.5-2.1-61.9-.2-4.7 1.2-12.4.8-15.9-.5-4-16.2-16.4-19.2-20.6l-11 14c-.3 20.3 1.8 41.1 2.5 61.4s.6 41.1 1 61.5c2 .8 4.2-3.5 5-3 .2.2 1.2 4.1 3 4.5zm76-17c.4-20.5.2-41.1 1-61.5.3-8.9.7-18 1-27 .2-6.2 3.3-30.6 1.5-34.4-1.5-3.2-8.9-10.1-11-14-3 4.2-18.8 16.6-19.2 20.6-.4 3.5.9 11.2.8 15.9-.8 20.4-1.8 41.5-2.1 61.9-.2 18.5.2 37 0 55.5l20-15.5c1.8-.5 2.8-4.4 3-4.5.8-.5 3 3.8 5 3m-168.3-120.7c-.4-.4-2.6-1.5-2.7-1.3 3.4 40.1 5.8 80.3 9 120.4l12.9 21.1c1.7 1.4 6.8 12.1 8.5 11.4 6.6-2.4 2.7-21.7 2.5-27.4-.5-21-1.3-42.1-2-63-.4-10.5.5-21.1-1-31.5-3.3.2-4.2 1.9-7.1-.4-6.5-5.3-13.2-23-20.3-29.2h.2ZM1114 1651l20-32.6 9.1-120.4c-.2-.3-2.5 1.3-3 1.8-6.8 6.7-13.7 23.7-19.9 28.8-2.9 2.4-3.8.6-7.1.4-1.9 21.8-1.3 43.7-2 65.5-.4 15-3.5 35.6-2.1 50 .3 3.2 1.2 6 5 6.4Zm-151-144-3.6.9-15.4 18.6c-.3 38.2 2.9 76.2 2 114.5 1.1 1.3 17.1-12.3 19-13.7 0-40.2-2.7-80.1-2-120.3m139 134c-.9-38.3 2.3-76.2 2-114.5l-15.4-18.6-3.6-.9c-.3 15.5.4 31 0 46.5 0 2.4-1 4.6-1.1 6.9-.5 22.3-.6 44.6-1 66.8 1.9 1.4 17.9 15 19 13.7Zm-60-131-18.3 16.9-17.6-16.9c.7 44.6 3.8 88.9 4 133.5.4 2.5 12.5 11.2 13.7 11.4 1.4.2 13.8-8.9 14.3-11.4 1.3-6.8-.3-19.3 0-27 .4-11.5 1.2-23.4 2.1-34.9l1.9-71.5h-.1Zm-112.9 165.9-39.6-64.9c-2.7 4.3-15.7 16.7-16.5 20.5-.5 2.3 0 6.3 0 8.8.5 6.2 3.4 24.2 5.1 29.9 2.2 7.3 14 10.2 20.1 13.9 44.8 27.9 79.7 46.3 135.2 43.8 47.1-2.2 77.9-20 116.2-43.8 6.1-3.8 17.8-6.6 20.1-13.9 1.7-5.7 4.6-23.7 5.1-29.9.2-2.5.6-6.5 0-8.8-.7-3.8-13.8-16.2-16.5-20.5l-40.1 65.1-48.9-32.8-45.1 37.7-45.8-37.7c-6.8 2.2-46.8 34.1-49.4 32.6Z" data-original-prefix="outline" class="outline"/>
    </g><g class="trait-group" data-category="eyes" id="eyes-robo">
      <path id="fill-eyes" fill="#ffffff" d="M1396 1159c-.9.9-21.4-3.8-26-1.5-.9.4-1.5 1.3-1.8 2.2l-13.4 125.1c-12.4 3.8-24.1 9.7-36.2 14.2-30.7 11.4-62.1 22.2-93 33-5.9 2.1-25.5 9.7-30.1 9.9-7.6.3-36.5-5.4-45.6-7.2-10.7-2.2-16-3.3-22.2-12.8-4.2-6.3-19.5-37.9-23-40-4.2-2.5-7.6 0-11.1 0-4.1 0-15.2-13.5-18.9-16.8-5.6-2.8-14.5-13.5-19.6-15.5-3.6-1.4-6.9.5-10.5-1.5-1.5-.9-7.3-6-8.4-7.6-5.4-7-3-11.3-15.5-9.5-5 .7-5.1 6.5-8.5 10.5-.9 1-8.3 7.7-9 8-2.8 1.3-5.9 0-9.6 1.4-7.2 3.1-17.4 15.4-23.5 20.4-1.5 1.2-13.1 9.8-13.9 10.1-3.8 1.3-8.8-.5-11.5 1.5-8.1 11.9-13.8 26.4-21.6 38.4-5.4 8.2-8.9 10.2-18.4 12.6-15.7 3.8-33.8 4.3-49.8 8.1-37.2-13.3-74.9-25.5-112.1-38.9-15.9-5.8-31.3-12.7-47.2-18.2l-13.5-125.1c-.3-.9-.9-1.8-1.8-2.2-4.6-2.3-25.1 2.4-26 1.5 2.1-11.2-18.1-29.5-18.1-37.5s6.5-17.1 8.2-20.9c17.7-39.6 44.2-73.5 67.3-109.7 2.8-2.5 10.5 2.1 16 1 4.2-.8 21.5-24 26-29 32-34.9 78.1-67.7 119.8-90.2 81-43.7 221.4-43.6 302.7-.3 41.5 22.1 88.1 55.4 120 90 6.5 7.1 12.2 15.6 18.5 22.5 4.7 5.1 6.4 8 14.1 7 3.4-.4 6.1-3.3 9.5-1.5 23.5 36.2 50.1 70.5 67.8 110.2 1.9 4.3 7.3 15.3 7.9 19.1.4 2.2.2 3-.6 5-4.3 11.1-17.4 20.8-17.2 34.3h-.2Z" class="fill" data-original-prefix="fill"/><path id="fill-eyes4" fill="#ffffff" d="M800 1304c-8.7 1.2-16.8 6-25.2 6.8-20.5-8.8-45.8-14.6-65.5-24.6-3.5-1.8-9.5-5.7-10.3-9.7-6.5-34.8-8.8-73.6-10-109 0-2.2-1-4.2-1-6.4 2.7 1.1 8.9-2.4 9.8.7 1 3.3-.2 10.7.2 14.8 2 24.8 8.2 51.2 13.5 75.5l42.8 27.2 45.7 24.8Z" class="fill" data-original-prefix="fill"/><path id="fill-eyes3" fill="#ffffff" d="M1362 1161c0 2.2-1 4.2-1 6.4-1.2 35.4-3.5 74.2-10 109-.8 4-6.8 7.9-10.3 9.7-19.6 10.1-45 15.8-65.4 24.6-8.4-.8-16.6-5.6-25.2-6.8l45.7-24.8 42.8-27.2c5.3-24.3 11.5-50.7 13.5-75.5.3-4.2-.8-11.5.2-14.8.9-3 7.2.4 9.8-.7Z" class="fill" data-original-prefix="fill"/><path id="fill-eyes2" fill="#ffffff" d="M796 1317c6.4.7 15.9-6.2 21.4-6 6.7.3 23.7 9.9 31.3 11.7 6.8 1.4 17.5-3.8 24-6.6 20.2-8.8 40.2-20.7 58.3-33.2 1 1.2-8.7 14.2-10.2 16.3-6.7 9.4-14.7 22.2-25.5 26.5-12.9 5.1-29 6.9-42.5 10-17.5-7.1-36.7-10-54.2-16.8-1-.4-2.4-.4-2.6-1.9" class="fill" data-original-prefix="fill"/><path id="fill-eyes1" fill="#ffffff" d="M1254 1317c-.2 1.6-1.5 1.5-2.6 1.9-17.5 6.9-36.7 9.8-54.2 16.8-13.6-3.1-29.6-4.9-42.5-10-10.8-4.3-18.9-17.1-25.5-26.5-1.5-2.1-11.2-15.1-10.2-16.3 18.1 12.5 38.1 24.4 58.3 33.2 6.4 2.8 17.1 8 24 6.6 7.6-1.8 24.6-11.4 31.3-11.7 5.5-.2 15 6.6 21.4 6" class="fill" data-original-prefix="fill"/><path id="fill-eyes-pupil2" fill="#ffffff" d="M1222 1222c7.6 33.3-24.8 65-57.3 45.8-3.4-2-13.9-10.2-9.1-13.7l66.3-32.1Z" class="fill" data-original-prefix="fill"/><path id="fill-eyes-pupil1" fill="#ffffff" d="m828 1222 66.3 32.1c4.8 3.5-5.7 11.7-9.1 13.7-32.5 19.2-64.8-12.5-57.3-45.8Z" class="fill" data-original-prefix="fill"/><path id="fill-eyes-rivet8" fill="#ffffff" d="M827.7 1121.2c14.4-3.3 20.3 16.6 10.2 24.2-15 11.4-25.7-20.7-10.2-24.2" class="fill" data-original-prefix="fill"/><path id="fill-eyes-rivet7" fill="#ffffff" d="M1215.7 1121.2c15.9-3.7 18.7 19.1 7.2 25.2-15.7 8.3-22.2-21.8-7.2-25.2" class="fill" data-original-prefix="fill"/><path id="fill-eyes-rivet6" fill="#ffffff" d="M903.7 979.2c9.3-2.7 14.3 12.6 2.3 16.4-10.5 3.4-9.1-14.4-2.3-16.4" class="fill" data-original-prefix="fill"/><path id="fill-eyes-rivet5" fill="#ffffff" d="M1142.7 979.2c10.6-2.2 13 20.8.6 16-8.1-3.1-8.9-14.3-.6-16" class="fill" data-original-prefix="fill"/><path id="fill-eyes-rivet4" fill="#ffffff" d="M765.7 1083.2c17.2-3.9 13.5 24.8-.2 24.9-13.5 0-10.5-22.4.2-24.9" class="fill" data-original-prefix="fill"/><path id="fill-eyes-rivet3" fill="#ffffff" d="M837.2 1025.8c-5.2-5.2 1.9-18 8.5-19.5 18.3-4.2.2 28.3-8.5 19.5" class="fill" data-original-prefix="fill"/><path id="fill-eyes-rivet2" fill="#ffffff" d="M1278.7 1083.2c16.1-3.6 21.2 26.1 4.8 24.8-11-.8-15.1-22.5-4.8-24.8" class="fill" data-original-prefix="fill"/><path id="fill-eyes-rivet1" fill="#ffffff" d="M1209.7 1009.3c5 5 8.1 19.1-2.1 17.7-5.7-.8-14.5-16-10.1-20 3-2.7 9.6-.2 12.2 2.4Z" class="fill" data-original-prefix="fill"/><path id="shading-eyes5" fill="#aaaaaa" d="m775 1119 36.5 25c3.7-.7-3.6-10 2.2-10.9 3.6-.6 17 22 24.9 1 1-2.5-.4-6.9 3.2-7.9 7.4-2.1 7.1 16.1 5.8 20.9-2.4 9-5.7 9.4-11.5 14.5-1.1 1-1.4.8 0 2 26.3 18.7 53.8 36.5 82.3 51.7 10 5.3 32.6 17.9 43.2 17.9s22.9-3.2 24-5.1c1.3-10.2 3-20.4 4.4-30.6 1.5-11.4-.6-21.5 8.6-30.4 1.2 7 1.7 14.2 2.8 21.2 1.7 10.6 2.9 33.7 18.7 25.8l1 12h6l1-12c12.1 6.1 14.7-5.5 16.7-14.8 2.3-10.6 2.7-21.6 4.8-32.2l6.2 9.8 6.4 52.1c.8 1 21.9 4.2 24.4 4.2 13.8 0 51.4-22.5 64.8-30.3 20.8-12.1 41.1-25.3 60.7-39.3 2.3-2.1-2.7-3-4-4.1-5.3-4.6-9.5-13.7-9-20.8.2-2.2 2.3-11.3 3.9-12.2 6.1-3.1 5.8 6.1 7.2 9.8 6.4 17.2 21.7-3.9 24.3-3.3 5 2-1.4 10.3 2.1 11 2.1.4 29.8-23.2 36-24l-6.3-6.7c-5.7-5.5-5.1-24.7 2.5-27.1 5.7-1.9 3.8 1.9 4.5 2.6s2.3 0 2.7.3c.6.6-1.4 10.8 6.9 12.7 9.2 2.1 11.2-6.8 13.8-6.8s3.9 6.9 5.1 7.1c1.5.2 14.5-5.3 18.1-5.8 10.8-1.6 23.6 3.5 34 6.5 19.2 5.5 38.1 12.4 57.2 18.3-4.6 5.8-10.2 10.9-15 16.5-3 3.6-12.1 16.8-14.5 18.5-3.1 2.2-10.8-.5-12.7 2.6-2.6 4.2-2.3 29.1-4.1 30.2-4.6.3-9.4.5-13.8-.9-.7 13.8-1.3 27.7-3.2 41.3-.8 6.1-3.4 24-6.8 28.2-2.6 3.1-13.1 9.3-17.1 11.9-17.1 11.1-37.2 22.6-55.6 31.5-2.7 1.3-6.5.7-3.1 3.4 4.1 3.2 11.6 3.2 12.7 8.7-5 .6-9 4.2-14.4 3.9-7-.4-15-5.4-21.9-6.8l-45.3 18.9c-5.5.4-26.8-9.2-33.2-11.9-7.9-3.4-44.2-19.3-47.6-24.4-1.1-1.7-5.6-13.8-4.8-14.7 1.5-.4 2.3.3 3.6.9 7.2 3.4 15.9 10.5 23.4 14.6 16.2 8.9 34.2 17.2 51.5 23.5 9.9-4.3 20.3-7.5 30.2-11.8 11.7-5.1 24.1-13 36.1-16.9 23.9-7.8 49.1-18.2 69.6-33.4 2.6-1.9 6.1-3.8 7.2-6.8 3.1-8.2 5-28.9 6.3-38.7 1.4-10.8 3.6-23.2 4.1-33.9.2-4.6.8-15 0-19-.2-1.2-.3-1.9-1.6-2.4-1-.3-18-1.3-19.8-1.1-25.5 3.1-66.6 31.5-89.5 45.5-31.2 19.1-58.7 37.9-91.7 54.3-16.8 8.3-22 9.6-36.9 22.1-1.1.9-1.6 2.9-2.5 3.5-2.6 1.6-10.5-.4-12 .5-.3.2 2.2 5.3-4.5 2-11.3-10.1-24.6-18-35.9-28.1-7.4-6.6-13.5-14.9-21.1-20.9-2.7 1.3-6.1-.6-8.4.4-2.7 1.2-7.2 8.9-9.6 11.4-14 14.1-31.6 24.4-46.4 37.6-2 1.2-4 0-6-.5l2-2c-3.2-.5-8.5.8-11.3-.2-1.4-.5-12.2-12.6-15.3-14.7-13.4-8.9-36.6-16.5-52-25-23.5-13.1-46.3-29.5-69.4-43.6-21.9-13.3-60-39.5-84.5-42.5-1.8-.2-18.8.7-19.8 1.1-1.3.4-1.4 1.2-1.6 2.4-.8 4.3-.3 16.1 0 21 1.4 23.2 7.2 47.7 10.2 70.8 1.8 4.5 25.6 17.9 31.1 20.9 16.5 9.1 28.4 13.3 45.9 19.1 11.7 3.9 24.4 11.9 36.1 16.9 10 4.3 20.2 7.6 30.2 11.8 16.9-6.2 34.2-14.2 50.1-22.8 8-4.3 17.2-11.6 24.8-15.2 1.2-.6 2.1-1.3 3.6-.9.7.6-3.8 13.2-4.8 14.7-2.9 4.7-38.1 20.3-45.5 23.4-6.6 2.8-28.5 12.9-34.2 12.9s-7.9-2.3-11.5-3.6c-11.8-4.4-23.1-10.6-34.8-15.3-6.7 1-15.1 6.6-21.8 6.7-4.8 0-9.7-4.3-14.5-4.8-1.3-1.7 11.6-7 12.7-7.8 3.7-2.4-.7-2.2-3.1-3.4-10.7-5.2-21-10.8-31.3-16.7-9.7-5.6-33.3-18.5-40.4-25.6-4.6-4.7-6.8-21.2-7.8-28.2-2-14-2.8-28.2-3.2-42.3-16 3.2-11.8.8-13-10.5-.3-3.2-1.9-17.2-2.9-18.8-2.3-3.7-13.3-.4-13.9-.8-.8-.5-9.2-13-11.2-15.4-6.1-7.2-12.7-14-19-21 19.9-6.8 40-14.1 60.2-19.8 9.3-2.6 20.5-6.8 30-5.5 3.6.5 16.9 5.8 18.1 5.6 3.1-.6 2.9-7.6 7.1-6.9.9.2 3.4 9 12.8 6.8 7.3-1.6 5.8-7.7 6.6-12.2.2-1.1 2.3-.2 2.9-.7.5-.4.3-6.5 6.2-1.3 8.3 7.2 4.7 27.9-6 31.6z" class="outline shading" data-original-prefix="shading" opacity="0.5" style="opacity: 0.5"/><path id="shading-eyes4" fill="#aaaaaa" d="M921.8 865.2c1.3 1.3 1.4 4.3 1.1 6-.8 4.6-8.3 15.9-10.6 21.5-8.1 20-14.7 45.3-20.7 66.3-9.6 33.5-16.9 67.6-26.5 101 16.2 7.7 32.1 16 47.7 24.8 9.5 5.4 41.2 22.6 46.2 29.8l16.2 30.3c-1.9.4-2.4-1.1-3.5-2-42.3-35.2-86-65.5-133.8-93.2-26.1-15.1-43.1-21.5-71.7-30.3-11.4-3.5-24.9-12-36-17 38-53.8 91.5-95.8 150.7-124.3 6-2.9 26.1-12.9 31.1-13.9 2.3-.5 8.4-.7 10 1zM903 883c-3-3.1-33.5 26.8-36.5 30-13.3 14.4-28.2 33.9-38.3 50.7-3.4 5.7-16.1 28.5-16.1 33.7 0 10.3 5.1 20.8 11.4 28.6 1.7-4 1.6-10.7 7.8-8.8 3.1 1 2.8 5.6 9.8 3.4 6.2-2 4.7-9.2 8.4-12.6 1.5-1.4 4.6-3.1 6-1 4.9 7.2.9 21.6-3.5 28.5l-7 8.5c7.6 3.6 10.9-7.8 13-13.4 6.7-17.8 10-36.6 15.2-54.8 9.1-31.2 18.5-62.3 29.7-92.8Z" class="outline shading" data-original-prefix="shading" opacity="0.5" style="opacity: 0.5"/><path id="shading-eyes3" fill="#aaaaaa" d="M1073 1145c-.5-1.9.7-2.8 1.4-4.1 3-6.1 7.9-14.7 11.5-20.5 8.7-14.2 32.7-26 47.5-34.5 16.2-9.2 32.8-18 49.7-25.8-12.7-44.8-22.6-90.3-36.7-134.8-5.8-18.1-10.8-36.7-21.1-53-1.8-8.2 4.2-9.5 11.1-8 5.4 1.1 26.7 11.8 33.1 14.9 58.3 28.6 111 70.2 148.6 123.4l-35.9 17c-26 4.8-51 18.1-73.7 31.3-47.4 27.7-89.6 57.4-131.8 92.2-1.1.9-1.6 2.4-3.5 2h-.2Zm152-119c1.9-5 5.9-8.7 7.8-13.7 1.3-3.5 3.2-12.3 3.1-15.8s-9.4-21-11.7-25.1c-11.2-20.2-28.9-43.6-44.7-60.3-3.1-3.2-31.6-30.8-34.5-28 10.5 29.6 19.9 59.6 28.7 89.8 5.9 20.3 9.6 41.8 17.5 61.5 1.8 4.5 5.1 13.9 11.2 9.8 2.6-1.7-1.1-2.3-1.9-3-6.1-6.1-11.3-17.8-10.6-26.5 0-1.7 2.2-8 3.7-8.4 7.5-2.3 6.2 16.9 17.8 15 3.2-.5 4.2-5.6 8.9-3.9 2.6.9 2.3 7.6 4.6 8.9v-.3Z" class="outline shading" data-original-prefix="shading" opacity="0.5" style="opacity: 0.5"/><path id="shading-eyes2" fill="#aaaaaa" d="M893 985c4.5-1.1 2.6 3.5 6.2 5.3 7.3 3.5 11.1-5.2 8.8-11.2 6.8-1.6 9.4 7.7 8.7 13.2-1.2 9.4-11.3 20.6-21.1 14.6-8.6-5.3-2.9-14.2-2.6-21.9" class="outline shading" data-original-prefix="shading" opacity="0.5" style="opacity: 0.5"/><path id="shading-eyes1" fill="#aaaaaa" d="M1139 979c-1.2 6.1 2.5 14.8 9.8 11.3 3.7-1.7 1.7-6.3 6.2-5.3 0 7.1 5.3 14.5-1 20.5-10.8 10.2-25.6-6.8-22.8-18.8.5-2.3 5-10.4 7.8-7.7" class="outline shading" data-original-prefix="shading" opacity="0.5" style="opacity: 0.5"/><path id="outline-eyes9" fill="#000000" d="M826.7 1113.2c23.5-3.8 32.1 31.9 13.2 42.2-16.7 9-31.2-8.2-28.7-24.7 1.1-7.2 8-16.3 15.5-17.5m1 8c-15.5 3.5-4.8 35.6 10.2 24.2 10.1-7.6 4.2-27.5-10.2-24.2" class="outline" data-original-prefix="outline"/><path id="outline-eyes8" fill="#000000" d="M1216.7 1113.2c27.5-4.4 29.8 43.9 2.7 44.8-23.8.8-27.1-40.9-2.7-44.8m-1 8c-14.9 3.4-8.4 33.6 7.2 25.2 11.5-6.2 8.7-28.9-7.2-25.2" class="outline" data-original-prefix="outline"/><path id="outline-eyes7" fill="#000000" d="M913.7 1000.7c-14.5 14.5-30.6-9.6-16.7-24.2 15-15.8 31.6 9.3 16.7 24.2m-10-21.5c-6.8 2-8.2 19.7 2.3 16.4 12-3.8 7-19.1-2.3-16.4" class="outline" data-original-prefix="outline"/><path id="outline-eyes6" fill="#000000" d="M1136.3 1000.7c-14.9-14.9 1.8-40 16.7-24.2 13.9 14.6-2.2 38.7-16.7 24.2m6.4-21.5c-8.4 1.8-7.5 12.9.6 16 12.4 4.8 10.1-18.3-.6-16" class="outline" data-original-prefix="outline"/><path id="outline-eyes5" fill="#000000" d="M766.8 1074.2c16.4-1.3 24.4 20.5 16 33.1-5.7 8.6-16.8 12.1-25.8 6.1-14.9-10-7.9-37.8 9.7-39.2Zm-1.1 9c-10.8 2.4-13.8 24.9-.2 24.9s17.4-28.8.2-24.9" class="outline" data-original-prefix="outline"/><path id="outline-eyes4" fill="#000000" d="M843.7 996.2c12.7-2.7 21.8 5.3 18.2 18.2-2.2 7.8-9.2 17.9-17.7 19.3-30.4 5.2-17.2-34.1-.5-37.5m-6.5 29.6c8.7 8.7 26.8-23.7 8.5-19.5-6.6 1.5-13.7 14.3-8.5 19.5" class="outline" data-original-prefix="outline"/><path id="outline-eyes3" fill="#000000" d="M1280.8 1074.2c24.7-2 29.2 45.9-1.2 41.7-21.3-2.9-20.8-39.9 1.2-41.7m-2.1 9c-10.3 2.3-6.2 24 4.8 24.8 16.4 1.2 11.3-28.5-4.8-24.8" class="outline" data-original-prefix="outline"/><path id="outline-eyes2" fill="#000000" d="M1196.7 996.2c10.9-2.2 19.5 4 24.1 13.4 6.5 13.2 3.8 26.2-13.3 24.3s-29.1-34-10.8-37.8Zm13 13.1c-2.6-2.6-9.2-5.1-12.2-2.4-4.4 4 4.4 19.2 10.1 20 10.2 1.4 7.1-12.7 2.1-17.7Z" class="outline" data-original-prefix="outline"/><path id="outline-eyes1" fill="#000000" d="M1050 1249c2.6 4.5-1.9 8.8-6 10-4-7.5-11.8-10.4-16.2-18.3-.6-1-1-3-1.3-3.3-3.8-3.4-7 6.3-9.5 9.1-3.8 4.4-11.3 6.9-12 12.5-1.3 1.2-6-4.9-7.5-6-2.7 3.9-6.1 7.2-9.5 10.5-6.8 6.5-21 20-28.5 24.5-5.8 3.4-8.8-.7-10.5.4-7.9 11.8-13.4 26.3-21.2 37.9-7.2 10.7-13.3 12.1-25.6 14.4-17 3.2-35.3 5.9-52.5 7.1-53.3-19.8-107.9-36.4-160.2-58.8L676 1163c-9 .6-17.9 2.7-26.9 1.9-1.2-4.2-1.9-10-3.7-13.8-3.3-6.9-12.4-16.4-15.5-23.5-2.9-6.7 2.2-15.8 4.9-22.2 18.3-44.5 48.3-82.8 74.2-122.9 3.8-3.9 10.9 3 14.7 3.4 3 .3 14.9-16.6 17.8-19.8 42.5-47.7 118-103.6 180.3-119.7 64.5-16.6 148.2-16.5 212.2 2.2 61.9 18.1 131.8 69.5 174.5 117.5 2.9 3.3 14.8 20.1 17.8 19.8 3.8-.3 10.9-7.3 14.7-3.4 24.3 37.3 51.1 72.5 69.8 113.2 3.3 7.1 12 24.3 9.6 31.3-2.2 6.5-13.1 18-16.2 24.8-1.6 3.6-2.2 9.2-3.4 13.1-9 .8-17.9-1.3-26.9-1.9l-13.5 126c-32.4 14.9-66.4 25.2-100 37-14.8 5.2-52.9 22.5-66 22.1-12.2-.4-33.9-5-46.7-7.3-12.3-2.3-18.4-3.7-25.6-14.4-7.9-11.7-14.3-26.8-21.2-39.3-2.9.2-5.3 2.9-8.3 2.7-7.2-.4-30.1-28.2-37.7-33.2-2.3-2.2-1.8-4.7-2-7.5-1.8-27.4-9.2-56.6-10.1-82.5-.2-5.3.4-9.8 5.1-12.9l43.8-27.2c5.4-1.5 1.3 7.3-.5 9.5-4.8 5.9-18.5 13.9-24.9 20.1-3.3 3.2-7.4 6.3-7.4 11.4 0 17.7 6.4 44.3 11.4 61.6 1.3 4.5 4.2 15.2 6.2 18.7.6 1 17.3 14.3 18.3 14.8 3.6 1.5 8.8-1.2 12.3-2.6 11-4.5 23.8-11.9 34.3-17.7 33.2-18.3 65-39.3 97.1-59.4 2.4-2.9 4.8-25.9 5.3-31.2 1.2-12.3 3.9-39.7.5-50.5-.4-1.3-5.1-11.5-5.7-11.8-1.2-.8-7.1-.2-8.9.3l-138.2 76.8c-6.2 2.3-12.4-.7-18.7-.2-.7-2.3.6-1.7 1.3-2.3 6.7-5.9 13.4-8.7 20.6-13.3 40-25.6 80.2-50.7 122.4-72.6 1.1-.4 2.3-1.9 1.7-2.8-.9-1.2-24-8.8-28.3-11.2s-6.4-5.1-8.6-9.4c-15.9-49.2-29.1-101.8-48.4-149.6-5.2-12.8-13.3-24.7-18.3-37.7-2.4-2.7-29.7-7.1-35.1-7.9-40.1-6-72.6-6-112.7 0-5.7.8-32.3 5-35.1 7.9-1.5 1.6-7.3 15-8.7 18.3-23.2 53.2-37.7 113.9-56 169.1-2.1 4.4-4.3 7-8.5 9.4s-27.4 10-28.3 11.2c-.7.9.6 2.5 1.7 2.8 42.2 21.9 82.5 47 122.4 72.6 7.2 4.7 14 7.4 20.6 13.3.7.6 1.9 0 1.3 2.3-6.7-.2-12 2.2-18.7.2-7.1-2.1-25.5-14.9-33.6-19.4-35.1-19.2-70.3-38.2-105.4-57.6-1.5-.3-7.2-.7-8.1 0-.5.3-5 9.9-5.4 11.1-4.2 12.6.3 61.5 3.5 75.9.5 2.2.8 4.6 2 6.5 32.1 20.1 63.8 41.1 97 59.4 7.5 4.2 36.8 20.6 43.3 20.8 2.7 0 20.9-13.2 21.7-15.2 1.2-2.9.2-6.1.9-9 3.5-14.9 8.3-29.3 11.3-44.7 1.3-6.9 1.4-15.1 2.7-21.3 1-4.6 4.9-5 .8-11.2-6.1-9.2-23.8-17.4-30.4-25.6-1.8-2.2-2.7-5.8-3.6-8.4h3l46.4 28.6c3 2.7 2.8 7.6 2.6 11.4-1.3 22.4-8.5 46.6-10 69-.3 4.5.2 9 0 13.5 1.4 0 1.9.3 3-.7 1.6-1.4 7.4-9.8 8.8-12 5.4-8.9 9.9-20.9 8.7-31.3 6 2.6 8.5 1.9 14.5 0-5 8.6 10.7 40.9 18 43zM916 872c-18.5 4.6-36.9 12.8-53.7 21.8-38.1 20.4-74.6 48.3-102.8 81.2-5.5 6.4-10.8 14-13.5 22 19.9 9.6 39.8 19.5 58.9 30.6l10.1 7.4c-33.3-6.7-65.4-18.5-97.7-28.8-2-.3-4.2-.9-5.8.8-12.8 25.4-27.2 50-39.3 75.7-4 8.4-14 27.4-15.7 35.4-1.5 7 5.3 14.7 5.5 22 17.5-5.6 37.5-15 56.2-10.7 8.9 2.1 17.1 7.9 25.5 11.5l49.3 29.2c-3.1-30.5-4-61.7-2.1-92.3-.3-1-13.6-8-15.9-9.2-12-6.4-49.8-21.7-56.9-29.1-5.5-5.7-6.8-17.4-3.6-24.4 2-4.4 3.5.5 5.2 2 3.5 2.9 8.5 5.9 12.5 8.2 26.4 15.2 55.8 27.5 82.4 42.7 11-.9 38-9.2 42.8-19.8 17.1-59.4 31.4-120.2 58.5-176v-.2Zm388 125c-2.6-8-8-15.6-13.5-22-22.6-26.2-50.8-48.8-80.2-66.8-24.3-14.9-50.7-29.1-78.3-36.2 1.9 3.4 3.1 9.3 5.1 12.4 7.7 12 11.8 20.1 16.9 34.1 15.5 42.2 25.6 86.5 38.5 129.5 4.7 10.6 31.8 18.9 42.8 19.8 26.6-15.1 56-27.5 82.4-42.7 4-2.3 9.1-5.2 12.6-8.2 1.8-1.5 3.2-6.4 5.2-2 3.2 7 1.9 18.7-3.6 24.4-7.1 7.3-44.9 22.7-56.9 29.1-2.3 1.2-15.6 8.2-15.9 9.2 1.9 30.7 1 61.8-2.1 92.3l51.3-30.2c7.7-3.4 15.2-8.6 23.5-10.5 18.7-4.3 38.7 5.2 56.2 10.7.3-7.3 7-15 5.5-22-1.7-7.9-11.7-26.9-15.7-35.4-12.3-25.9-26.6-50.8-39.8-76.2l-5.3-.3c-32.3 10.2-64.4 22.1-97.7 28.8l10.1-7.4c19.1-11.1 39.1-20.8 58.9-30.6zm-504 307-45.7-24.8-42.8-27.2c-5.3-24.3-11.5-50.7-13.5-75.5-.3-4.2.8-11.5-.2-14.8-.9-3-7.2.4-9.8-.7 0 2.2 1 4.2 1 6.4 1.2 35.4 3.5 74.2 10 109 .8 4 6.8 7.9 10.3 9.7 19.6 10.1 45 15.8 65.5 24.6 8.4-.8 16.6-5.6 25.2-6.8Zm562-143c-2.7 1.1-8.9-2.4-9.8.7-1 3.3.2 10.7-.2 14.8-2 24.8-8.2 51.2-13.5 75.5l-42.8 27.2-45.7 24.8c8.7 1.2 16.8 6 25.2 6.8 20.5-8.8 45.8-14.6 65.4-24.6 3.5-1.8 9.5-5.7 10.3-9.7 6.5-34.8 8.8-73.6 10-109 0-2.2 1-4.2 1-6.4Zm-534 61c-7.5 33.3 25 64.9 57.3 45.8 3.4-2 13.9-10.2 9.1-13.7l-66.3-32.1Zm394 0-66.3 32.1c-4.8 3.5 5.7 11.7 9.1 13.7 32.3 19.1 64.7-12.5 57.3-45.8Zm-224.5 29v1c.7-.3.7-.7 0-1M796 1317c.2 1.6 1.5 1.5 2.6 1.9 17.5 6.9 36.7 9.8 54.2 16.8 13.6-3.1 29.6-4.9 42.5-10 10.8-4.3 18.9-17.1 25.5-26.5 1.5-2.1 11.2-15.1 10.2-16.3-18.1 12.5-38.1 24.4-58.3 33.2-6.4 2.8-17.1 8-24 6.6-7.6-1.8-24.6-11.4-31.3-11.7-5.5-.2-15 6.6-21.4 6m458 0c-6.4.7-15.9-6.2-21.4-6-6.7.3-23.7 9.9-31.3 11.7-6.8 1.4-17.5-3.8-24-6.6-20.2-8.8-40.2-20.7-58.3-33.2-1 1.2 8.7 14.2 10.2 16.3 6.7 9.4 14.7 22.2 25.5 26.5 12.9 5.1 29 6.9 42.5 10 17.5-7.1 36.7-10 54.2-16.8 1-.4 2.4-.4 2.6-1.9" class="outline" data-original-prefix="outline"/>
    </g><g class="trait-group" data-category="right ear" id="right ear-safety pins">
      <path id="fill-ear-rt1" fill="#ffffff" d="M1241.6 968.9c-9.9-6-19-13.2-28.4-19.8-3.4-2.4-6.5-5-9.2-8.1-3.4-2.3-4.8-6.2-7.4-9.2-7.5-8.6-13-18.5-17.3-29.1-4.1-10.2-7.4-21.3-3.2-31.6 7.6-18.9 13-38.7 23.6-56.5 18.4-30.8 30.5-64.7 46.1-97 2.3-4.7 3.3-10.2 3.8-15.4 3.8-36.3 5.3-72.8 9.6-109 2.6-21.9 2.3-44.2 8.4-65.7 1.8-6.4 4.5-12.1 8.5-17.3 10.8-13.9 22-27.6 32.5-41.8 40.9-55.1 88.7-103 146.7-140 44.1-28.1 88-56.5 134.1-81.4 8.8-4.7 17.6-9.4 26.5-14 31.2-16.1 62.6-32 96.3-42.5 7.2-2.3 6.9-2.4 7.4 5.5 2.4 38.7-3.7 76.7-10.2 114.7-.9 5.4-3 10.2-5.9 14.7-5.4 8.4-10.3 17.2-13.3 26.8-12.2 38-22 76.5-21.9 116.9v19.1c-2.6-2.4-2.8-4.3-3.4-6-6.5-16.7-11.4-34-18.6-50.5-2.7-6.2-6.3-11.7-12-15.6-10.6-7.3-23.9-2.8-27.2 9.2-1 3.8-1.3 7.8-.8 11.9 1.3 10 4.6 19.4 8.1 28.7 11.6 31.4 24.8 62.3 34.8 94.3.8 2.5 1 4.7.3 7.3-17.5 64.7-54.4 118.2-98.4 167.3-3.5 3.9-6.9 8.5-12.2 10.5-.4-3 2.4-3.8 3.9-5.3 10.6-10.5 12.6-23.7 10.8-37.4-1.7-13-12.8-21.3-26.1-21.6-20.6-.4-37.1 12.4-39.1 30.8-.8 8.1 1.6 15.8 4.4 23.3 4.5 11.8 13.5 17.2 26.2 16.2 6-.5 11.8-1.9 16.8-5.5 1.1-.8 2-1 3.2-.6 0 3.1-2.6 4.2-4.3 5.8-13.1 12.2-27.5 22.7-43.2 31.2-22.6 12.2-44.7 25.1-66.2 39.1-4.6 3-11 5.3-8.7 13.2.2.6-.5 1.6-.8 2.3-6.2 16.9-12.8 33.6-21.2 49.6-.9 1.7-1.5 3.5-3.5 5-3.3-6.2-8.8-8.7-14.8-10.5-7.8-2.3-15.7-2.9-23.7-2.6-8.2.2-12.9 4.2-14.7 12.1-1.2 5.2-1.6 10.6-1.6 15.9 0 12.3 0 24.7 7.3 35.6 1.7 2.5-.5 3.3-1.7 4.3-10.1 8.1-20.7 15.8-32.1 22-8.2 4.5-16.6 8.7-26.6 9.2-14.7.7-27.9-4.8-41.7-8.2v-.3Zm453.4-728c-1.5-1.3-2.2-.8-2.9-.4-6.5 4.3-13.5 8-18.9 13.8-4.8 5.1-10.4 8.9-16.7 11.6-7.7 3.2-13.8 8.3-19.7 14.2-11.7 11.7-23.8 22.9-35.6 34.4-17.2 16.7-34.5 33.3-48.1 53.4-16 23.7-28.7 49.2-39.1 75.8-.8 2-.6 3.8-.3 5.8 2.7 16.2 6.6 32.2 7.7 48.7 1.2 18.5 1.6 36.9-.3 55.4-1.5 14.2-6.3 27.6-10.6 41-5.7 17.8-13.7 34.7-24.5 50-3.8 5.4-8.5 9.9-14.4 12.8-7.3 3.6-13.6 1.2-16.7-6.3-.8-1.8-1.4-3.8-1.7-5.7-3.8-20-10.2-39.3-16.4-58.6-1.3-3.9-3.4-6.7-6.7-8.9-16.1-10.7-32.9-20.1-50.1-29.1-.7-.3-1.4-1-2.2 0 .5 1.3 1.2 2.7 1.7 4 5.8 15 10.7 29.9 7.8 46.5-2.2 12.8-4.6 25.5-6.9 38.3-4.9 27.3-17 50.6-37.2 69.8-2.3 2.2-4.2 4.7-5.9 7.4-22.7 35-41.4 72.2-58.7 110.1-12.8 28.1-29 53.9-48.1 78.1-2 2.6-3.5 5.3-3.5 8.6 0 7.8-1 15.6-2 23.4-.3 2.3.2 4 1.7 5.8 7.3 8.3 16 15 25.3 21 .5.3 1.2.7 1.8 0 .5-.8.2-1.6-.2-2.3-4.7-8.2-6.2-17-4.6-26.3 3-17.2 8.7-33.6 16.5-49.1 21-42.2 43.8-83.5 71.9-121.5 13.8-18.8 27.5-37.7 45.1-53.3 1.8-1.6 1.9-3.3 1.9-5.4-.3-24.2 5.5-47.2 13.6-69.7 1.4-3.8 3-7.4 5.5-10.6 3.6-4.6 6.5-5.2 11.7-2.3 1.7 1 3.4 2.2 4.7 3.6 10.7 11.6 17.2 25.4 19 41 2.7 23.9-3.5 45.9-15.2 66.5-.6 1.1-2.2 2.1-1 4.2 3.5-1.7 7-3.2 10.3-5.1 23.9-13.3 47.3-27.3 66.8-47 3.1-3.1 5.5-5.8 6.2-10.1 4.6-29.7 12.5-58.6 22.7-86.8 6.1-16.9 15.6-32 26-46.5 1.2-1.6 3-3 1-5.6-6.6-8.8-9.3-19.2-10.8-29.8-4-27.8 0-55.2 8.9-81.3 19.7-58.5 55.9-104.7 108.2-137.9 3.9-2.5 8.8-4.4 11-8.4 7.1-12.6 13.7-25.5 21.9-37.2Zm-369.3 560.6c-.9 5 1.5 9.2 3.3 13.5 7.9 19.5 26.7 28.9 47.1 23.4 26.6-7.1 42.2-31.2 37.8-58.5-4.3-27.1-33-42.1-56.7-28.9-19.6 10.9-29.7 28.4-31.5 50.5" class="fill" data-original-prefix="fill"/><path id="fill-ear-rt-rill-ring" fill="#ffffff" d="M1427.6 994.5c-5.1 0-9-2-12.9-5.1-14.2-11.6-25.4-25.9-37.6-39.3-5.2-5.7-10.4-11.3-15.7-16.8-9.5-9.9-11.6-22.1-10.5-35.1.5-6.3 5.2-9.6 11.5-9.1 6.7.6 11.9 2.5 15.5 9.4 6.5 12.1 16.3 21.9 25.4 32 5.6 6.2 11.4 12.2 17.2 18.2 4.9 5 9.9 6.1 15.3 3.6 6.7-3.1 10.4-8.7 9-15.3-2.6-12.2-6-24.2-15.3-33.5-3.4-3.4-6.2-7.4-9.7-10.8-2.6-2.6-2.5-4.7-1.1-7.8 4.9-10.2 4.7-10.2 12.5-2.6 3.2 3.2 6.3 6.4 9.8 9.3 13.4 10.9 21.1 25 24.4 41.7 1.9 9.5 3.6 18.9 5.6 28.4.8 3.6.2 6.8-2 9.4-11 12.8-24.9 20.5-41.4 23.5Z" class="fill" data-original-prefix="fill"/><path id="fill-ear-rt-fill-pin3" fill="#ffffff" d="M1769.8 596.9c-1.3 26.7-19.5 50.4-52.3 40.3-21.5-6.6-33.6-22.3-40.1-42.9-2.1-6.7-1.2-7.6 5.3-10.2 8.5-3.3 16.9-6.8 25.5-9.7 2-.7 3.3-.3 4.4 1 3.1 3.6 6.2 7.4 9.2 11.1 2.2 2.8.9 4.6-2 5.3-3.4.8-7.9.9-9.5 3.3-1.6 2.6 1.3 6.4 2.1 9.8 1.7 7.7 1.7 7.6 9.1 4 5.1-2.5 10.3-4.6 15.4-7.1 4.3-2.1 5.7-7.5 2.8-11.3-5.6-7.3-9.6-15.4-13-23.9-.8-2.1 0-2.2 1.3-2.8 8.5-4.2 16.9-8.5 25.3-12.7s2.8-.8 3.7.7c1 1.5 2.1 3 2.8 4.6 5.8 13.2 8.7 27 9.9 40.3v.2Z" class="fill" data-original-prefix="fill"/><path id="fill-ear-rt-fill-pin2" fill="#ffffff" d="M1672.2 574c-4.8.8-5.7-3.2-6.9-6.6-9.5-26.9-18.9-53.8-28.4-80.8-5.8-16.6-11.7-33.2-17.5-49.8-.5-1.5-1.6-2.9-1.1-4.7.8-2.7 1.3-5.9 4.9-6.1 3.8-.2 6.5 1.7 8.1 5.2 7.7 16.9 14.3 34.2 21.1 51.5 10.1 25.9 20.1 51.8 30.1 77.7 3.7 9.7.9 13.4-10.2 13.5Z" class="fill" data-original-prefix="fill"/><path id="fill-ear-rt-fill-pin1" fill="#ffffff" d="M1694.7 410.3c6.4 12.8 11.3 24.7 15.8 36.7 11.7 30.9 23.1 61.9 34.7 92.8.5 1.4 1.2 2.7-.4 3.4-3.7 1.7-7.5 3.4-11.4 4.6-2 .6-1.9-1.9-2.4-3.1-9.3-22.5-18.4-45-27.7-67.4-3.8-9.2-7.8-18.3-11.7-27.4-1.7-4.1-2.2-8.3-1.5-12.7 1.3-8.5 2.1-17.1 4.5-26.9Z" class="fill" data-original-prefix="fill"/><path id="fill-ear-rt-stud2" fill="#ffffff" d="M1404.1 793c-.6 10.6-6.4 21.2-19 27.2-11.5 5.4-22.7 4.5-32.7-3.7-6-4.9-9.7-11.4-9.6-19.4 0-5.3-.3-10.7.7-15.9 2.3-11.9 15.2-21.5 28.7-22.2 19.7-.9 31.8 10.9 31.9 34" class="fill" data-original-prefix="fill"/><path id="fill-ear-rt-stud1" fill="#ffffff" d="M1543 714.6c0 18.3-17.1 29.5-32.7 21.5-9-4.6-13.9-15.9-11.1-25.8 3.1-11.3 18.7-20.5 30-17.8 8.8 2.1 13.8 10.1 13.8 22.1" class="fill" data-original-prefix="fill"/><path id="shading-ear-rt2" fill="#aaaaaa" d="M1362.6 945.6c-19 13.1-37.7 25.8-56 38.9-5.4 3.9-10.6 4.6-16.8 3.2-31.8-7.5-61-20.2-85.9-41.7-7.5-6.5-16.2-11.5-22-20-2.1-3.2-2.5-5.5-1.8-9.6 1.9-11 8.6-18.5 15.5-26.1 41.8-45.9 77.3-96.1 105.2-151.7 27-53.9 48.2-109.9 62.2-168.5 2.8-11.8 10.2-19.7 17.2-28.5 2.3-2.9 5.3-1.8 8.3-1.5 17.5 2 34.7 5.5 51.8 10 6.4 1.7 11.2-.4 14.5-6.2 1.1-2 2.1-4.1 3.3-6.1 10.6-17.7 16.8-36.7 16.5-57.5-.4-19.7 6.1-36.6 17.6-52.5 13.6-18.8 24.9-39.2 38.8-57.8 8.2-11 17.8-20.6 28.3-29.2 16.7-13.7 33.6-27.1 50-41.1 16.6-14 35.5-24.4 53.9-35.6 5.4-3.3 9.6 1.1 14.5.5.8 0 1.4 2 1 3.4-1 3.1-2 6.3-4 9-7.8 10.7-15.7 21.3-24.1 31.7-35.9 44.6-60.8 94.7-74.5 150.2-5.6 22.9-4.6 46.1-.6 69.2 2.1 11.8 2.1 22.7-3.8 33.6-4.2 7.8-6.6 16.6-9.9 24.9-.9 2.2-1.5 4.3-1.4 6.7.3 4.9 2 5.9 6.3 3.6 3.6-1.9 6.5-4.6 8.9-7.8 16.1-20.5 27.7-43.6 39.7-66.6 1.7-3.3.7-6.4 0-9.7-3.3-17.9-6.9-35.8-9.3-53.9-1-7.1.4-13.9 1.1-20.8.2-2.5.7-5.6 4.1-6.1 3.5-.5 6.8.2 8.7 3.4 1.3 2.2 2.2 4.8 2.9 7.3 11.6 42.9 28.4 84.1 42.2 126.3.3.9.7 1.9 1.1 2.8 3 7.4 1.4 13.4-4.9 17.9-5.4 3.9-10.8 7.8-16.2 11.5-6.8 4.6-7.9 4.3-9.9-3.5-3.7-14.5-7.1-29-10.6-43.5-1.6-6.7-3.1-13.5-4.8-20.7-3.9 2.9-3.8 7.3-4.9 10.8-17.9 54.9-42.2 106.6-75.2 154.1-7.5 10.8-17.2 18.1-27.4 25.6-2.6 1.9-7.6 2.5-6.9 7.3.6 4 7.9 7.8 13.1 7.1 7.9-1.1 14.5-4.5 18.8-11.6 2.6-4.2 5.2-8.5 8-12.6 1.1-1.6 2.6-3.3 4.9-2.7 2.2.6 2.7 2.8 2.9 4.8 1.1 11-.4 21.2-8.6 29.4-18.9 18.9-40.2 34.6-63.9 46.9-18.3 9.5-35.6 20.5-53.1 31.3-6.7 4.1-10.4 9.1-12.8 17.4-5.9 20.3-14.3 39.9-25.8 57.9-4.7 7.4-5.1 7.5 0 13.6 9.8 11.7 19.5 23.5 30.7 33.9 3 2.8 5.8 6.9 11 3.9 6.1-3.5 8.8-8.5 7.1-14.6-3-10.9-6.5-21.6-15.4-29.5-2.2-2-4.1-4.4-5.8-6.8-5.6-7.8-5.7-13.9-.7-21.8 2.2-3.4 6.6-4.9 9.3-2.1 13.1 13.8 30.4 24.2 36.4 43.8l1.8 5.7c1 3 .3 5.2-2.9 6.3-4.9 1.6-6.7 5.1-5.9 10 1.5 9.9-3.3 15.7-12 19.2-.3 0-.6.3-.9.5-10 7.2-18.5 5.6-28.7-1.5-18.5-12.9-31.8-29.9-43.6-48.5-2.1-3.3-4.3-6.6-6.5-10-6.1 6.8-7.8 18.2-4 25.6.3.6.6 1.2 1 1.7 15.7 18.3 29.9 38 47.8 54.5 6 5.5 13.2 9.6 21.1 13.9-10.2 3.2-16.8-.5-23.1-6.7-13.8-13.4-27.1-27.2-39.4-42.1-.8-1-1.9-1.8-3.5-3.2zm10.3-96.3c-11.4 3-21.8 2.3-31.5-3-2.8-1.5-4.3-.5-5.6 1.8-1.2 2-2.3 4-3.5 6-15.4 25.6-30.8 51.1-50.6 73.5-1.5 1.7-3.1 3.7-3.7 5.8-3.4 11.3-6.6 22.8-10.1 35.1 4.5-1.4 6.6-4 9.1-6 12.6-10.8 24.1-22.7 36-34.2 6.6-6.4 11.6-13 13-22.5 1.5-10.1 7.5-17.4 17.9-20.5 3.8-1.1 7.3-3.1 11-4.6 4.9-2 8.4-5.5 10.5-10.1 3-6.5 5.7-13.2 7.6-21.3zM1484 742.1c-2.8 1.3-5.2 2.4-7.5 3.6-20.6 10.1-42 17.8-65 19.9-4.7.4-5.7 2.4-4.1 6.4 4.4 11.2 4.4 22.6 1.8 34.1-.3 1.5-1.2 3.2 1 5.3 33.5-9.4 64.2-25.1 92.9-47.2-10.4-4.7-15.2-12.9-19-22.1zm-83.6 43.7c-1.3-8.2-2.6-17.7-11.4-23.8-4.1-2.8-7.4-3.3-11.2.8-9.2 9.9-18.6 19.7-28.2 29.2-3.9 3.8-3.5 7.1-1.1 11.3 5.8 10.1 17.3 15.8 27.4 13.2 12.7-3.2 24.6-17.5 24.5-30.6Z" class="outline shading" data-original-prefix="shading" opacity="0.5" style="opacity: 0.5"/><path id="shading-ear-rt1" fill="#aaaaaa" d="M1729.1 559.3c-16.1-24.2-22.9-52.5-34.6-78.7-6.8-15.3-10.7-30.3-8.7-47 .7-5.2.4-10.6.7-15.9 0-2.1.9-3.9 3.3-4.3 2.5-.4 4.6.2 5.7 2.8 4.4 10.4 8.7 20.8 13 31.2 1.6 3.8-.3 7.2-1.5 10.6-2 5.6-1.7 10.8.7 16.3 9.5 22.6 18.8 45.3 28.1 68 1.3 3.1 1.7 5.8 6.8 3.8 5.9-2.3 8.8 4.2 15 6.9-24.8 19.2-48.8 36.7-71.9 56 3.3 6.1 7.6 10.5 12.4 14.6 3.7 3.3 6.5 2.6 10.2-.7 15.2-13.8 30.8-27.3 46.2-40.9 2.7-2.4 5.2-5.1 8.6-6.6 5 10.4 4.9 11.6-2.9 18.5-10.2 9-20.5 17.9-30.7 26.9-2.4 2.1-4.7 4.4-8.6 8.1 18.6-1.5 32.1-9.6 46-17.9-2.1 9.3-3.8 18.5-13.6 23.3-3.3 1.6-6.3 3.7-9.5 5.5-17 9.4-36.9 6.6-51.3-6.7-8.9-8.2-16.1-17.5-20.8-28.6-2-4.6-3.1-9.5-.4-14.4 2.4-4.4 6.5-6.3 10.9-8 15.2-5.9 29.6-13.5 44.2-20.6.8-.4 1.5-1.3 2.7-2.5z" class="outline shading" data-original-prefix="shading" opacity="0.5" style="opacity: 0.5"/><path id="outline-outer-rt" fill="#000000" d="M1538.9 745.1c5.3-2 8.7-6.6 12.2-10.5 44.1-49.1 80.9-102.5 98.4-167.3.7-2.5.5-4.8-.3-7.3-10-32-23.2-62.9-34.8-94.3-3.4-9.3-6.8-18.7-8.1-28.7-.5-4.1-.3-8 .8-11.9 3.3-12.1 16.6-16.5 27.2-9.2 5.7 3.9 9.3 9.4 12 15.6 7.2 16.5 12.1 33.8 18.6 50.5.6 1.7.9 3.5 3.4 6v-19.1c0-40.3 9.7-78.8 21.9-116.9 3.1-9.6 7.9-18.3 13.3-26.8 2.9-4.5 4.9-9.3 5.9-14.7 6.5-37.9 12.6-75.9 10.2-114.7-.5-7.9-.3-7.8-7.4-5.5-33.7 10.6-65 26.4-96.3 42.5-8.9 4.6-17.7 9.3-26.5 14-46.1 24.9-90 53.2-134.1 81.4-58 37-105.9 84.9-146.7 140-10.5 14.2-21.7 27.9-32.5 41.8-4 5.2-6.7 10.9-8.5 17.3-6.1 21.5-5.9 43.8-8.4 65.7-4.3 36.2-5.8 72.7-9.6 109-.5 5.2-1.6 10.8-3.8 15.4-15.6 32.2-27.7 66.2-46.1 97-10.7 17.9-16 37.6-23.6 56.5-4.2 10.4-.9 21.5 3.2 31.6 4.3 10.5 9.8 20.4 17.3 29.1 2.6 3 4.1 6.8 7.4 9.2-2.9.3-5-1.7-7.2-2.9-11.8-6.6-21.9-14.8-29.1-26.6-6.2-10.2-12.6-20.5-20.1-29.8-1.4-1.7-.8-3.1-.5-4.6 4.4-18.1 8.9-36 18.3-52.5 7.7-13.4 12.7-28.2 18.4-42.7 2.2-5.6 5.1-10.7 9.2-15.3 15-16.5 22.2-36.8 29.1-57.5 9.2-27.3 12-55.6 15.7-83.8 4.4-34.1 6.9-68.3 7.6-102.6 0-4.8 2.6-8 5.2-11.5 14.5-20 28.9-40 43.3-60 30.6-42.6 66.1-81.1 102-119.2 7-7.4 14.7-14 23.1-19.7 61.8-42.3 126.4-79.5 196.3-106.7 29.8-11.6 59.2-24.3 90.5-31.8 6.3-1.5 12.7-2.7 19.1-3.9 3.6-.7 5.9.5 6.9 4.5 1.5 6.2 3 12.3 3.5 18.6 2 26.7 0 53.3-1.7 79.8-1.3 18.9-2.1 37.9-5.3 56.7-1.5 8.4-3.6 16.1-9.8 22.8-11.2 12-16.4 27.2-20 43-.5 2-.2 3.4 1.2 4.9 2.3 2.4 4 5.3 5.4 8.4 17.7 39.7 35.7 79.2 51.8 119.6.6 1.5 1.1 3.1 1.6 4.7.8 2.5 1.2 4 5.1 4.1 6.1.2 9.6 5.5 11.7 11 4.4 11.5 7.7 23.4 10 35.5 1.4 7.4 2.2 14.8 1.6 22.4-1.7 21.1-14.5 34.2-32.2 43-14.5 7.2-30.1 8.4-45.8 4.9-18.2-4.1-29.7-16.9-39.4-31.7-2.8-4.3-5-8.9-7.8-13.9-2.8 6.2-5.5 12-8.2 17.8-12.4 26.8-26.6 52.7-42.6 77.4-22.9 35.2-52.4 64.1-86.8 88.1-20.1 14-40.4 27.7-62.9 37.7-11.1 5-17.9 14-24.1 23.9-5.6 9-5.6 8.9 2.8 15.3 7.2 5.6 14.3 11.4 21.6 17.1 9.4 7.4 15.7 16.7 18.2 28.4 4 18.4 8.1 36.7 11.9 55.1 1.7 8-1.3 14.3-8.1 18.9-15.2 10.2-31 19.3-48.2 25.7-4.2 1.6-9 3.1-12.4.2-4.2-3.6-9.2-6-13.2-9.9-14.7-14.1-29.7-27.7-44.4-41.8-3.3-3.1-5.2-3.6-8.7 0-8.7 9.2-18 17.8-27 26.7-.7.7-1.4 1.8-2.3 1.9-9.9 1.4-19.4 5.8-29.9 2.8-17.2-4.9-33.5-11.9-49.7-19.4-2.5-1.2-4.4-3-5.9-5.2 13.7 3.4 27 8.9 41.7 8.2 9.9-.5 18.4-4.8 26.6-9.2 11.4-6.2 22-13.8 32.1-22 1.2-1 3.4-1.7 1.7-4.3-7.3-10.8-7.3-23.3-7.3-35.6s.3-10.6 1.6-15.9c1.8-7.9 6.5-11.8 14.7-12.1 8-.2 15.9.3 23.7 2.6 6.1 1.8 11.5 4.3 14.8 10.5 2-1.5 2.6-3.4 3.5-5 8.4-16 15-32.7 21.2-49.6.3-.8 1-1.7.8-2.3-2.3-7.8 4.1-10.2 8.7-13.2 21.5-14 43.7-26.9 66.2-39.1 15.8-8.5 30.1-19.1 43.2-31.2 1.7-1.6 4.4-2.7 4.3-5.8l-.3.4Zm155.2-244.7c-2.2 9.9-4.4 19.7-6.7 29.6-.6 2.5-.6 4.8.5 7.2 3.3 7.4 6.5 14.9 9.6 22.4.8 2.1 1.8 3.1 4 2.2 5.8-2.3 11.6-4.5 17.5-6.7 2-.8 2.3-1.7 1.4-3.7-8.4-18.4-16.8-36.8-25.2-55.3zm-266.5 494.1c16.5-2.9 30.4-10.6 41.4-23.5 2.2-2.6 2.8-5.8 2-9.4-2-9.4-3.7-18.9-5.6-28.4-3.3-16.7-11-30.8-24.4-41.7-3.5-2.8-6.6-6.1-9.8-9.3-7.8-7.7-7.6-7.6-12.5 2.6-1.5 3.1-1.6 5.3 1.1 7.8 3.5 3.3 6.3 7.3 9.7 10.8 9.3 9.3 12.7 21.3 15.3 33.5 1.4 6.6-2.3 12.1-9 15.3-5.4 2.5-10.4 1.4-15.3-3.6-5.8-6-11.6-12-17.2-18.2-9.1-10.1-18.9-19.9-25.4-32-3.7-6.9-8.9-8.8-15.5-9.4-6.3-.6-11 2.8-11.5 9.1-1.1 13 1 25.2 10.5 35.1 5.3 5.5 10.5 11.1 15.7 16.8 12.2 13.4 23.5 27.7 37.6 39.3 3.8 3.1 7.8 5 12.9 5.1Zm342.2-397.6c-1.1-13.2-4-27.1-9.9-40.3-.7-1.6-1.9-3.1-2.8-4.6-1-1.6-2.2-1.5-3.7-.7-8.4 4.3-16.9 8.5-25.3 12.7-1.1.6-2.1.7-1.3 2.8 3.4 8.5 7.4 16.6 13 23.9 2.9 3.8 1.6 9.2-2.8 11.3-5.1 2.5-10.3 4.6-15.4 7.1-7.4 3.6-7.4 3.7-9.1-4-.7-3.4-3.7-7.2-2.1-9.8 1.5-2.4 6.1-2.5 9.5-3.3 3-.7 4.3-2.5 2-5.3-3-3.8-6-7.5-9.2-11.1-1.1-1.3-2.4-1.7-4.4-1-8.7 2.9-17.1 6.3-25.5 9.7-6.5 2.6-7.4 3.5-5.3 10.2 6.5 20.6 18.6 36.4 40.1 42.9 32.8 10.1 51-13.7 52.3-40.3v-.2Zm-97.6-22.9c11.1 0 13.9-3.8 10.2-13.5-9.9-25.9-19.9-51.9-30.1-77.7-6.8-17.3-13.4-34.6-21.1-51.5-1.6-3.5-4.3-5.5-8.1-5.2-3.6.2-4.1 3.4-4.9 6.1-.5 1.8.5 3.2 1.1 4.7 5.8 16.6 11.7 33.2 17.5 49.8 9.5 26.9 18.9 53.9 28.4 80.8 1.2 3.4 2.2 7.4 6.9 6.6Zm22.5-163.7c-2.5 9.8-3.2 18.4-4.5 26.9-.7 4.4-.2 8.6 1.5 12.7 3.9 9.1 7.9 18.2 11.7 27.4 9.3 22.5 18.4 45 27.7 67.4.5 1.2.5 3.7 2.4 3.1 3.9-1.2 7.7-2.8 11.4-4.6 1.5-.7.9-2 .4-3.4-11.6-30.9-23-61.9-34.7-92.8-4.6-12-9.4-24-15.8-36.7Zm-283.2 491.4c-.3 5.3-5.1 8.8-1.3 12.8 3.6 3.9 7.3 7.7 10.1 12.3 1.5 2.5 4 3.9 6.8 2.1 3.1-1.9 1.4-4.4 0-6.5-4.2-7-9.7-13-15.7-20.7Z" class="outline" data-original-prefix="outline"/><path id="outline-inner-rt1" fill="#000000" d="M1695 240.9c-8.3 11.8-14.8 24.7-21.9 37.2-2.3 4-7.1 5.9-11 8.4-52.4 33.2-88.5 79.4-108.2 137.9-8.8 26.1-12.9 53.5-8.9 81.3 1.5 10.6 4.2 21 10.8 29.8 2 2.6 0 3.9-1 5.6-10.4 14.5-19.8 29.6-26 46.5-10.3 28.3-18.1 57.1-22.7 86.8-.7 4.3-3.1 7-6.2 10.1-19.5 19.7-42.8 33.7-66.8 47-3.3 1.8-6.8 3.4-10.3 5.1-1.2-2 .3-3 1-4.2 11.7-20.7 17.9-42.7 15.2-66.5-1.8-15.6-8.3-29.4-19-41-1.3-1.4-3-2.6-4.7-3.6-5.1-2.9-8.1-2.3-11.7 2.3-2.5 3.2-4.2 6.8-5.5 10.6-8.1 22.5-14 45.5-13.6 69.7 0 2 0 3.8-1.9 5.4-17.5 15.6-31.2 34.6-45.1 53.3-28.1 38.1-50.9 79.3-71.9 121.5-7.7 15.5-13.4 31.9-16.5 49.1-1.7 9.4-.2 18.1 4.6 26.3.4.7.7 1.5.2 2.3-.6.6-1.3.3-1.8 0-9.3-6-18-12.6-25.3-21-1.6-1.8-2.1-3.5-1.7-5.8 1-7.7 1.9-15.5 2-23.4 0-3.3 1.5-6 3.5-8.6 19-24.2 35.3-50 48.1-78.1 17.3-37.9 36-75.1 58.7-110.1 1.7-2.7 3.6-5.2 5.9-7.4 20.1-19.1 32.2-42.5 37.2-69.8 2.3-12.8 4.7-25.5 6.9-38.3 2.9-16.6-2-31.6-7.8-46.5-.5-1.4-1.2-2.7-1.7-4 .8-1.1 1.6-.5 2.2 0 17.1 8.9 34 18.3 50.1 29.1 3.3 2.2 5.4 5 6.7 8.9 6.2 19.3 12.6 38.6 16.4 58.6.4 1.9 1 3.9 1.7 5.7 3.1 7.5 9.4 9.9 16.7 6.3 6-2.9 10.7-7.4 14.4-12.8 10.8-15.4 18.8-32.3 24.5-50 4.3-13.4 9.2-26.8 10.6-41 1.9-18.5 1.6-36.9.3-55.4-1.1-16.5-5.1-32.5-7.7-48.7-.3-2-.5-3.8.3-5.8 10.4-26.6 23-52.1 39.1-75.8 13.6-20 30.9-36.6 48.1-53.4 11.8-11.5 23.9-22.7 35.6-34.4 5.8-5.8 12-10.9 19.7-14.2 6.3-2.7 12-6.5 16.7-11.6 5.4-5.8 12.4-9.5 18.9-13.8.7-.4 1.4-1 2.9.4Z" class="outline" data-original-prefix="outline"/><path id="outline-ring-rt1" fill="#000000" d="M1325.7 801.5c1.8-22.2 11.9-39.6 31.5-50.5 23.7-13.2 52.4 1.8 56.7 28.9 4.3 27.3-11.3 51.4-37.8 58.5-20.3 5.4-39.2-3.9-47.1-23.4-1.7-4.3-4.2-8.4-3.3-13.5m78.4-8.5c0-23.2-12.2-35-31.9-34-13.5.6-26.4 10.2-28.7 22.2-1 5.2-.6 10.6-.7 15.9 0 8.1 3.6 14.5 9.6 19.4 10 8.2 21.2 9.1 32.7 3.7 12.6-6 18.4-16.6 19-27.2" class="outline" data-original-prefix="outline"/><path id="outline-ring-rt" fill="#000000" d="M1539 745c-1.2-.4-2.2 0-3.2.6-5 3.7-10.7 5.1-16.8 5.5-12.7.9-21.6-4.4-26.2-16.2-2.8-7.4-5.3-15.2-4.4-23.3 1.9-18.4 18.4-31.2 39.1-30.8 13.2.2 24.3 8.6 26.1 21.6 1.8 13.7-.2 26.9-10.8 37.4-1.5 1.5-4.2 2.3-3.9 5.3h.1Zm4-30.4c0-12-4.9-20.1-13.8-22.1-11.4-2.7-26.9 6.5-30 17.8-2.8 9.9 2.1 21.2 11.1 25.8 15.6 8 32.6-3.2 32.7-21.5" class="outline" data-original-prefix="outline"/>
    </g><g class="trait-group" data-category="left ear" id="left ear-ringer">
      <defs/><path id="fill-ear-left" fill="#ffffff" d="M366.5 448c2.2-.7 1.7-6.1 1-8-14.8-50.5-33.9-100.1-45.5-151.5l-3-99c.6-3.5 14.7-7.2 18.4-7.5 72.6 34.3 145.7 67.7 217.5 103.6L702.5 405l86.3 108.7c9.7 62.8 14 126.7 22.2 189.8l75.7 173.9-26.9 52c-5.3 7.8-42.1 33.9-51.5 38.5-18.4 9-40.3 13.4-59.9 19.2l-3-1L638 882.5c-7.9-16.2-9.4-35.5-17.5-51.5L476 735.5l-73.2-131.3c-15.9 1.2-45.2 3-28.2 25.7 7.5 10.1 22.2 9.2 32.5 13.5 1.2 5.2 9.4 13.6 10.5 17.5 1 3.2-1.3 6.7-.6 10l-68.5-7-16.8-43.2-.2-4.8 23.8-45.7c3.4-2.8 29.6-6.2 36.2-8.3 1-.3 2-.2 2.4-1.4-4.9-19.1-12.3-39.6-14.7-59.2-.4-2.8.7-10.8-1-12-7.7-.7-15.3-2.8-23.1-2.4l5 37c-4.9.6-8.3 6.4-14 4.6l-46.8-15.7v-39.6l30.9-22.7c3.4 1 12.5-2.5 13.5-2.5 4.6 0 20 .9 23 0z" class="fill" data-original-prefix="fill"/><path id="fill-earing-lft2" fill="#ffffff" d="M404.9 643.2c1 .6 9.3 17.3 12.1 19.3.2.5-2.1 1.1-2.6 1.1-14.2.4-44-3.9-56-11.5-9.6-6-21-30.6-19.2-41.6 1.4-8.8 18.5-28.8 27.1-31.8 12.1-4.4 38.3-7.8 51.3-7.7 9.6 0 20.4 10.4 15.4 20.4s-17.7 8-23.7 9.3c-9 1.9-31.4 3.1-37.5 8.5-7.4 6.4-2 19.2 3.9 24.9 4.8 4.6 16.5 7.7 23.1 8.9 1.8.3 5.2-.4 6.2.3h-.1z" class="fill" data-original-prefix="fill"/><path id="fill-earing-lft1" fill="#ffffff" d="M360 523c-3.2 2.8-33.2-6.9-38.4-9.1-15.7-6.7-18.1-11-16.7-28.4 1.2-14.7 9.9-16.9 22.1-21.9 21.4-8.9 37.2-11.8 60.2-5.2 8.6 2.5 26.1 9.5 27.6 19.5.9 6.5-3.8 15-10.5 16.1-2.5.4-17.8-4.5-22.2-5.4-12.8-2.4-34.3-7.6-44.1 3-13 14.1 15 16.1 18.6 19.5 1.8 1.7 2.4 9.3 3.5 12h-.1Z" class="fill" data-original-prefix="fill"/><path id="shading-ear-lft" fill="#aaaaaa" d="m608.2 565.2 3.3-1.2 51.4-6c1.9 9.6.6 19.6 2.2 29.3 3.3 21 21.8 41.3 32.7 59.3 28.9 47.5 49 99.2 78.8 146.2 16.1 25.4 34.3 49.3 53.4 72.6 7.9 9.6 28.7 29.6 32.7 39.3 1.1 2.7 2.6 7.6 2.1 10.5-.3 1.4-7.6 14.6-8.8 16.2-3.6 4.9-14.8 12.8-20.1 16.9-22.1 17-43.7 28-70.9 35.1-4.6 1.2-16.1 4.8-20 3l-92-84.2c-10.8-23.6-17.5-49.5-29.5-72.3L510 764.4l-84.1-88.9c-25-3.4-50.4-5.3-75.4-8.6-1.3-.2-4-.6-4.7-1.5L326 606.8l30.8-40.3c3.9-2.9 10.3-.8 15.1-1.4 1.2-1.2-6.9-24-8-27.5-8.1-2.8-41.4-4.6-46.1-8.9-3.1-2.9-16.5-30.5-19.5-36.5s-7.8-14.2-7.5-16.5c0-.8.4-1.5 1.1-2l51.3-33.7c3.4-1.3 29.1-1.4 32.8-.3l43.5 26.5c1.2 1.1 1.6 2.4 2.2 3.8 1.2 3.2 5.4 18 5.4 20.8 0 5.9-7.2 8-6.9 10.8.3 3.3 9.1 19.4 11.3 23.7 8.1 15.8 29.4 56.7 42.6 66.4 2.6 2 5.4 4.1 8.9 3.6 1.8-8.1-2.3-16.5-5.2-24.2-2.8-7.3-11-21.9-11.7-28.4-.9-9.3 4.3-27.3 4.9-37.9 3.8-61-29.8-136-65.2-184.8-8.8-12.1-24.5-26.6-30.7-39.3-1-2.1-7.2-18.7-7-19.7.2-1.1 5.7-4.9 6.9-5.2 2-.5 12.8 7.7 15.7 9.4 30.1 17.6 70.1 41 93.8 66.2s51.7 62.1 64.7 92.3c5.3 12.5 4 11.2 3.8 24.1-.7 40.9 1.3 80.7 10.5 120.5 1.7 7.1 5.7 25.4 9 31 .8 1.3 7.7 9.2 8.9 10.1.9.6 1.4 1.7 2.6.5l24.2-44.3zm-292.1-82.3c3.4 2.2 5.5-3.1 7-4.3 12.8-10.8 63.5-.9 80.3 1.4 11.5-4.6 6.5-11.6-1.7-16.2-12.2-6.9-36.4-10.5-50.1-8.7-5 .7-31.9 10.7-35.1 13.9-2.2 2.2-1.9 12.9-.4 14q0-.1 0 0ZM419 503c-11.1 4.8-24.2.2-36 1l13 60 40-2zm5.8 70.2c-3.2-3.1-24.7-.7-30.1 0-9.5 1.1-25.8 3.3-33.8 8.2-5.4 3.3-19.9 21.7-21.4 27.6-2.8 10.8 1.6 22.4 14.5 20-1.1-8-2.6-17.2 2.2-24.3 8.9-13.2 46.4-4.8 62.3-16.7 3.8-2.8 11.1-10.1 6.3-14.8M450 595l-39.9 13.4c11.9 17 20.5 35.9 31.6 53.4 42.6 67.4 95.1 111.3 170.2 139.8 14.3 5.5 29.5 7.7 44 12.5 5.5 13.5 10.9 27.2 17 40.5 9.5 20.5 22.4 32.9 37.7 49.3 17.6 18.9 38.6 41.2 58.5 57.5 1 .8 7.3 6.2 8 5.5-3.9-10.9-5.5-27.1-10.2-37.3-2.9-6.1-17-20.7-22.2-27.8-24.6-34-42.1-71-63.4-106.6-13.9-23.2-19.7-24.2-44.7-33.3-22-8.1-50.6-11.8-70.2-19.8-11-4.5-43.7-25.5-52.2-33.8-7.1-6.9-18.4-25.8-24.1-34.9-15.6-24.8-29.5-51.1-40-78.5h-.1Zm-45 42c-3-8.1-6.1-16.4-11-23.6-2.7.8-19.3 4.8-20 5.6-.3.4 0 2.3.5 3 .8 1.3 24 13.2 26.8 14.2 1.2.5 2.3 1.1 3.7.8" class="outline shading" data-original-prefix="shading" opacity="0.5" style="opacity: 0.5"/><path id="outline-ear-lft2" fill="#000000" d="M671 548c1 1.1-8.8 24.7-9.5 28.9-3.2 18.8 9 75.7 17.4 93.7 8.3 17.9 19.9 26.5 31 41 35 45.5 53.4 108.2 84.2 156.9 4.4 7 27 36 27.8 40.2 1.2 5.8 2 19.4 2.3 25.8 0 1.9.2 3.7-.6 5.5-1.3 3.1-26.2 24.3-28.5 22 .6-4.8 4.2-9.9 4.9-14.6 4.5-32.7-34.7-99.9-51.7-129.1-19.1-32.7-44.8-69.8-70.1-97.9-2.4-2.7-12.2-10.8-13.1-12.2-2.1-3.5-.6-16.6-1-21.8-1-12.8-10.5-52.4-18-62-10.4-13.3-23.7 7.8-28.2 16.8-11.9 24-9.9 50.3-.3 74.7 2.7 6.9 6.7 13.2 9.5 20-2.9 0-5.5-1.3-8-2.5-17.1-8-40.7-23.6-55.4-35.6-4.2-3.4-15.7-12.9-18.4-16.6-3-4-9.1-42.7-11.4-51.6-8.6-32.6-20.5-64.9-41.6-91.5-.3-1.7 5.1-9.4 6.3-12.3 14.5-33.8 3.2-89.9-11.3-122.7-23.4-53-61.8-94-110.7-124.3l-22.5-39c3.3-3.1 26 18.4 29.7 20.8 6 4.1 14.7 6.7 20.3 10.7 9.2 6.5 21.7 22 30.5 30.5 33.1 32 57.7 54.3 80 96 4.4 8.1 20.6 40.5 21.3 47.8.7 7.6-5.5 27.2-6.7 35.9-7.6 53.4 0 102.9 25.7 150.1 5.5 10 23 36.2 36.2 23.9 4.9-4.5 9.1-31.2 11.5-39.5 2-7.1 8.6-30 12-35 3.1-4.5 28.4-18.6 34.8-22.2 2.3-1.3 20.8-11.7 21.7-10.8z" class="outline" data-original-prefix="outline"/><path id="outline-ear-lft1" fill="#000000" d="M846 940c15.1-16.5 31.1-43.1 27.9-66.4-6.7-13.7-9.4-29.6-15.7-43.3-5.9-12.9-15.5-26.6-22-40-10.6-21.5-23.7-48.6-32.3-70.7-9.2-23.4-7.5-61.4-9.8-87.2-1-11-2.9-22-4-33-2.3-24.6-2.1-67.2-15.6-87.4-14.6-21.8-37.5-48.9-54.5-69.5-41.4-50.3-82.8-86.1-137.5-121.6-42.3-27.4-87.4-55.5-131.9-79.1-38.8-20.7-78.7-40.2-120.7-53.8-3 38.2.9 78.6 8.3 116.2 3.3 16.9 7.6 19.5 14.6 33.4C367 366.1 372 402 378.4 433c1.5 4.2 10.7 6.3 14.6 8.4 13.7 7.3 26.9 14.3 34.4 28.6 6 11.4 4.6 18.9-3.4 28.5-12.5 14.9-22.7 12.7-40 7.5-1.6 1.8 9.7 42.2 12 47.5 20.4.6 40.3.8 51.9 20.1 6.5 10.9 4.8 15.8-1.8 25.8-7 10.7-14.9 15.8-28 16.5-1.5 1.5 7 17.2 8.5 20 24.3 45.7 71.1 106.9 114.2 135.8 26.6 17.9 62 31.7 86.6 51.4 7.8 6.3 4.2 5.9 6.1 13.9 12 50.8 60 106.1 105.3 130.7 23.2 12.6 44 11.2 68.3 1.2-1 4.5-8.9 7.6-13 9.5-19.5 8.8-52 23.1-72.4 12.4-3.2-1.7-21.8-20.6-26.2-24.8-8.6-8.3-15.6-17.1-25-25-10.3-8.7-24.4-15.4-30-28-10.2-23.4-16-42.1-31.1-63.9-13.3-19.2-23.3-19.4-42.1-29.9-55.3-31-107.1-75.3-138.5-131-19.2-.6-39.2-1.6-58-5.5-27.5-5.8-33.9-14.5-44.3-39.7-8.6-21.1-13.7-31.3-2.7-52.6 9-17.5 20.9-37 43.2-36.3l-2.1-10.9c-21.9-2.3-55.5-6.5-70.9-23.6-10.3-11.5-13-21.7-12.1-37 1.1-18.1 4.6-21.7 19.4-30.6 10-6 25.4-14.6 36-19 6.2-2.6 12.7-5.4 19.7-4.8 2-2-10.8-49.6-13.2-55.3-4.6-10.8-15.9-20.4-20-29-3.4-7.1-5.9-31.4-6.8-40.2-3.1-33.1-7.5-84.8-2.9-116.9.4-2.5 3.3-15.8 4.5-16.7 1.7-1.2 4.6-.9 6.6-.7 27.9 2.6 74.9 22.3 102 33 67.9 26.9 154.8 70.8 212.1 115.9 12 9.5 25.4 25.3 36.2 36.8 46.7 50.2 88 104.7 126.9 161.1 8.9 76.2 3.1 178.6 48.8 244.2 2.9 4.1 7.4 7.9 10 12 7.1 11.1 12.9 32 19 45 4.2 9.2 9.1 18.3 13.7 27.3 1.4 2.7 6.4 9.3 7 11 .8 2.6 2.6 22.5 2 24.6-10.1 12.6-17.6 27.8-27.4 40.6-7.7 10-14.2 13.1-25.3 18.7-1.2.6-3.1 2.7-4.1.4zM360 523c-1.1-2.7-1.7-10.3-3.5-12-3.5-3.4-31.6-5.5-18.6-19.5 9.8-10.5 31.3-5.4 44.1-3 4.5.9 19.7 5.8 22.2 5.4 6.7-1.1 11.5-9.6 10.5-16.1-1.5-10-18.9-17-27.6-19.5-23-6.5-38.7-3.7-60.2 5.2-12.2 5.1-20.9 7.2-22.1 21.9-1.4 17.4 1 21.7 16.7 28.4 5.1 2.2 35.1 11.9 38.4 9.1h.1Zm44.9 120.2c-1-.6-4.4 0-6.2-.3-6.6-1.2-18.3-4.3-23.1-8.9-5.9-5.6-11.3-18.5-3.9-24.9 6.2-5.3 28.5-6.5 37.5-8.5 6-1.3 21-4.1 23.7-9.3 5.1-10-5.8-20.4-15.4-20.4s-39.1 3.4-51.3 7.7c-8.6 3.1-25.8 23-27.1 31.8-1.7 11 9.6 35.6 19.2 41.6 12.1 7.5 41.8 11.8 56 11.5.6 0 2.8-.6 2.6-1.1-2.8-2-11.1-18.7-12.1-19.3h.1zM396 628c-1.1-6.4-1-9.6-8.2-8.7-13.6 1.6 1.6 10.2 8.2 8.7" class="outline" data-original-prefix="outline"/>
    </g><g class="trait-group" data-category="head" id="head-shaghawk">
      <path id="fill-head-shaghawk" fill="#ffffff" d="M1056 802c2.9 2.8 45.8-30.2 50.5-34 15-12.5 28.4-26.5 41.5-41l-30.4 90c-3.2 4.4-6.3 10.1-10 14-3.4 3.5-20.8 14.9-21.5 16.5s.7 1.4 1.3 1.7c3.1 1.8 6.8 3.1 10 5 12.2 7.2 30 21.3 31.7 36.3 1.8 15.9-2.5 34.3-2 50.5l-6.6-9.9c-7.3-9-15.8-11.6-26.9-13.1-14.6-2-30.7-2.4-45.5-3l45.5 100c-19.4-5.9-38.8-12.7-56.5-22.5-19.1-10.5-34.5-21.3-37.9-44.1-2.1-14-1.5-30.3-.1-44.4-1.6-1.5-23.5 14.2-26 16.5-1.8 1.6-3.9 6.4-6 5-1.3-.8-5.4-10-6-12-4-12.9 3.5-37.3 7.3-50.8 2.2-7.8 5.1-15.2 7.7-22.8-6.8-.2-13.6.3-20.4 1.1-4.1.5-19.8 4.2-21.9 3.7-3.6-.8-6.8-16.8-7.4-20.6-2.8-16.3-5.5-42.6-3.2-58.7 1.7-12.1 8.6-24.8 14.5-35.5 10.3-18.8 23.3-38.4 38-54 .7 6.2-2.9 12.5-4.2 18.8-1.2 5.9-6 30.3-5.3 34.6.4 2.5 13.4 25 15.8 29.2 3.3 5.9 6.7 11.8 10.7 17.3 13.5-24.3 21.5-51.3 33.6-76.3 10.2-21 19.8-37.9 37.4-53.6 16.9-15.1 37-28.2 55-42 1.3.6 0 2.6-.5 3.5-22.5 50.1-49 98.8-57.7 154.3-2.1 13.3-2.4 26.9-4.3 40.2Z" class="fill" data-original-prefix="fill"/><path id="shading-head4" fill="#aaaaaa" d="M971 914c10.3-7.4 21.9-13.5 34-17 1.9 12.8 3.9 26.3 7.8 38.8 11.5 36.8 48 59 79.3 77.7-3 .5-7-1.1-10-2-22.3-6.7-71.1-27.5-79.8-50.2-5.2-13.6-4.8-37.1-4.3-51.8 0-1.9.8-3.6 1-5.4-1.5-1.5-29.5 17.2-30.5 22-2.4.6-7.2-11-7.8-13.2-3.6-12.4 3.9-37 7.6-50 2.2-7.8 5.1-15.2 7.7-22.8-6.8-.2-13.6.3-20.4 1.1-5.6.7-16.8 4-21.2 3.8s-7.6-17.5-8.3-21.5c-2.8-16.9-5.3-42-3-58.8.6-4.3 1.6-8.5 2.9-12.6 4 1.9 1.1 6.5 1 9.5-.4 14.8 1.5 32.3 5.3 46.7.8 3 4.5 15.5 5.8 17.2 2.5 3.4 19.8 7.2 24.4 7.6 6 .5 24.9-3.1 22 7-4.3 8.3-8 17-11.3 25.7-2 5.4-7.5 18.1-8.1 23-.8 6.6 5.6 18.1 5.8 25.2Z" class="outline shading" data-original-prefix="shading" opacity="0.5" style="opacity: 0.5"/><path id="shading-head3" fill="#aaaaaa" d="M1130 777c.2 1.7 0 3.4-.4 5-2.9 13-11.5 37-20.1 46.9-2.3 2.7-23.2 19.6-25.1 19.9-1.7.3-11.4-5.8-8.9-8.8 10.3-10.6 21.4-20.7 31.1-32 8.4-9.9 15.2-21 23.5-31Z" class="outline shading" data-original-prefix="shading" opacity="0.5" style="opacity: 0.5"/><path id="shading-head2" fill="#aaaaaa" d="m1127 941-9.4-13c-6.9-6.7-14.9-8.6-24.2-9.8-10.1-1.4-22.7-2.4-32.9-3.1-3.7-.2-10.8 1-13 .7-1.2-.2-1.7-1.5-1.4-2.7 17.2.8 35.4-2.5 52.5-1 8.3.7 14.1 4.3 20 10 5.4 5.2 10.2 11 8.5 19Z" class="outline shading" data-original-prefix="shading" opacity="0.5" style="opacity: 0.5"/><path id="shading-head1" fill="#aaaaaa" d="M1093.5 1014c.7.3.7.7 0 1z" class="outline shading" data-original-prefix="shading" opacity="0.5" style="opacity: 0.5"/><path id="outline-head" fill="#000000" d="m1082 764 10-7.5c29.4-23.9 48.9-57.1 74.5-84.5 1.7-1.8 10.6-11.7 12.5-10-.3 2.6-1.5 5-1.9 7.6-5.9 43.9-17.1 89.3-32.1 130.9-6.6 18.4-10.6 35.8-32 41.5l22.5 16 13.5 12.7c.6 34.9-10.1 68.9-19 102.3-1.5 0-2.4.4-3.5-1-2-2.8-3.8-13.2-6.3-17.7-8.6-15.1-27.2-18.2-43.2-18.3-1.8 1.7 16.5 41.7 18.8 46.7 4.1 8.9 8.2 18.8 12.6 27.4 3.1 6.1 9.3 13.8 11.8 19.2.6 1.2 1 2.3.8 3.7-28 1.2-54.3-5.6-79.7-16.8-39.1-17.3-61.5-41.5-55.3-87.2-6.1 7.8-11 20.5-8 30.5-2.1 2.1-2-1-3-2-8.9-9.4-24.1-28.4-28.8-40.3-7.5-18.9.8-37 7.7-54.8-7-1.2-12.9 1.3-19.5 3.5-10.6 3.6-12 9.8-17.2-2.7-10.7-25.3-15.9-73.5-14.3-100.8s17.2-44.9 32.7-65.3c15.3-20.2 53.5-69.7 74-81 1.1-.6 3.4-2 4.4-.6-8.8 24.5-21.6 51.4-25.8 77.3-1.8 11.2-2.3 30.5 2.5 41 .6 1.3 0 1.6 2.2 1.3 3.1-16.5 10.1-33.2 16.8-48.7 20.6-47.6 36.5-60.2 79.3-87.7 26.5-17.1 54.8-31.4 83.4-44.6-10.1 16.1-21.3 31.7-30.7 48.3-27.8 49.1-50.9 105.9-59.8 161.7Zm-26 38c2.2-60 24.4-118.8 50.1-172.3 3.6-7.4 8.8-14.9 11.9-22.1.3-.8 2-3.8 0-3.5 0 2.5-3.3 2.7-5.4 4.2-31.1 21.9-60.5 43.3-78.8 77.2-16 29.6-25.6 62-41.3 91.7-4.2-7.1-8.6-14.1-12.7-21.3-2.5-4.4-13.4-23-13.8-26.3-.7-5.5 3.8-28.9 5.3-35.6 1.3-6 4.8-11.8 4.2-17.8-16.1 18.2-31 40.2-42 62-14.1 28-12.1 52.8-7.4 83.4.7 4.3 3.7 21.3 7.6 22.4s22.8-3.4 28.8-3.8c4.5-.3 9 .2 13.5 0-2.4 8.3-5.6 16.2-7.9 24.6-3.5 12.2-10.5 35.7-7.4 47.2.5 1.8 5.5 13.5 6.3 14.2 2 1.7 2.5-2.8 3.5-3.9 2.4-2.6 26.6-20.1 28.5-18-.3 8.9-1.3 17.6-1 26.5.8 27.2 4.5 39.3 27.3 54.7 19.8 13.3 44.8 22.6 67.7 28.8l-45-100c17.3 2.5 37.3 1.4 54.2 5.3 7.9 1.8 13 5.8 18.3 11.7l6.5 10 2.1-48.5c-1.8-20-26.1-36.9-43.4-43.4-2.4-1.9 1.5-2.6 3.1-3.8 30.1-22.9 29.2-30.2 41.3-64.7 5.9-17.1 11.4-34.3 17-51.5-26.7 28.1-55.6 56.2-91 73Z" class="outline" data-original-prefix="outline"/>
    </g><g class="trait-group" data-category="mouthpiece" id="mouthpiece-joint">
      <path id="fill-mouthbit-joint" fill="#ffffff" d="M1114.7 1563.2c2.6-.5 23.4.6 27.8.8 18.5 1.2 37.1 4.8 55.8 4.2 27.2 9.5 53.9 20.5 81.2 29.8 24.3 8.3 45.2 11.9 67.9 25.1 8.3 4.8 5.6 3.1 14.7 5.3 6.2 1.4 7.3 4.8 11.6 7.4 3.2 2 18.2 9.3 19.3 10.7 3.8 4.3-3.5 31.4-8.6 35.4-1.7 1.3-19.1 7.3-20.8 7.2s-5.4-4.1-10.3-4.8c-6.8-1-12.5-.9-19.8-2.2-16.8-3-29.9-6.6-47.9-7.1-10.6-.3-32.2 2.7-40.6.6-15.2-3.9-39.7-25-53.7-34.3-22.6-15.1-46.3-28.1-70.4-40.6-2.1-2-17-28.2-16.9-30.1 0-1.5 9-6.9 10.7-7.3Z" class="fill" data-original-prefix="fill"/><path id="fill-mouthbit-ember" fill="#ffffff" d="M1375 1655c.2 2.9-2.7 4.4-3.7 6.8-3.1 7.3-4.3 16.5 6.5 10.5 2.3-1.3 2.3-5.8 4.8-5.3 2.9.6 1.7 9.2-1.8 11.2-1.5.9-13.8 4.7-15.3 4.7-2.5 0-14.4-5.8-15.5-8.4-3.9-9.4.3-16.4 2.1-25.6l-5.1 3.4c0 4.8-7.3 8.4-8.2 10.8-1.4 3.6-.4 8-.7 11.8-9.8.7-22-11.2-19.2-20.7l8.2-14.3c-.8 7.8-6 24.3 6 25-2-5 2.9-14.5 6-18.5 2.3-2.9 20.8-15.1 22-9 0 .6-3.4 9.3-3.9 12.1-.4 2.6-1.4 12.3-.2 14 1.6 2.2 6.2.2 8-1.1 3.4-2.4 3.2-8.8 10.1-7.4z" class="fill" data-original-prefix="fill"/><path id="shading-mouthbit" fill="#aaaaaa" d="M1165 1566c-.5 2.4-5.8 0-6.9 1.1-.7.6-5.8 15.5-6 17.5-.5 5 2.8 17.9 5.8 21.7 1.6 2 21.1 11.4 25.4 13.9 11.6 6.9 23.1 14.1 34.2 21.8.5-6.6 0-9.9 3-16 1.6-3.3 14.8-25.9 16.5-27.5 1.3-1.3 2.1-1.8 4-1.5-4.3 20.5-20.3 27.6-8.9 50.4 6.5 12.9 17.3 11.8 30.5 13.5 8.1 1 16.3 1.5 24.4 2.1-6.1-12.6-12.1-21.2-5.5-35 .5-1 5-9.6 6.5-8-5.2 14.2-3.6 23.6 4.6 35.9 7.1 10.8 10.8 10.8 23.4 9.1-4.6-12.1 2.9-21.2 11-29.5 3.3-3.4 10.8-10.3 7.6-.4s-10.4 13.5-8.6 26.5c.5 3.9 7.4 7.7 10.9 8 2.7.2 6-3.4 9.1-2.1l37 15.6c-4.8.3-15.4 6.5-19.5 6-1.8-.2-5.4-4.1-10.3-4.8-6.8-1-12.5-.9-19.8-2.2-17.1-3-30.5-6.6-48.8-7.2-11.2-.3-28.3 2.5-38 1-3.1-.5-16.8-7.7-20.2-9.8-27-16-50.9-36.5-79.7-52.3-8.1-4.5-22-8.6-27.5-15.5-6.2-7.9-9.5-20.3-15.1-28.8l11.5-6.5zm-13 2c-6.6-.4-12.6.3-19 1.5-2.9.5-17.5 3.6-16.9 6.9.4 2.3 25.4 25.1 27.9 22.6-1.6-10.8.7-22.6 8-31" class="outline shading" data-original-prefix="shading" opacity="0.5" style="opacity: 0.5"/><path id="outline-mouthbit" fill="#000000" d="M1098.2 1565.2c.4-.7 13.6-7.1 14.4-7.1 1.8 0 3.8 1 5.9 1 21.9.3 41.4 2.3 63.1 3.9 12.9 1 16.9-.3 30 4 20.3 6.6 40.6 16 61 23 24.9 8.6 53.2 14 75.8 27.2 2.1 1.2 6.3 5.3 7.4 5.6 4.9 1.4 10.7.5 16.2 3.8 2.1 1.2 3.5 3.9 5.7 5.3 3.4 2.1 19.1 9.8 20.4 11.6 3.5 4.8-2.1 26.7-4.3 32.8-1.3 3.4-2.7 8.2-5.8 10.2-2.4 1.5-20.6 7.6-23.4 7.7-6.8.2-7.8-4.2-12.1-5-3.6-.7-8.2.4-12 0-12.5-1.4-23.8-6.4-36-8-18.3-2.3-36.7-.4-54.9 0-7.2.2-19-5.9-25.5-9.6-17.5-10.1-35.2-25.7-53.2-36.8-9.7-6-20.3-12.3-30.2-17.8-6.1-3.3-20.4-8.1-24.6-12.4-1.7-1.8-16.5-28.1-17.3-30.7-.6-2-1.6-7-.6-8.6Zm16.9.9c0 4.3-4 5.5-2.7 9.9.4 1.4 13.3 20.8 14.7 22.3 4.2 4.4 14.1 8.2 19.4 11.6-4.5-11.6-9.1-18.6-4.3-31.2 1.4-3.7 7.2-9.9 2.3-10.7-9-1.6-20.1-1.1-29.4-1.9M1237 1590c-12.7-2.7-26-11.5-38.3-14.2-5.8-1.2-12-1.1-18-2-5.3-.8-21.6-5.6-25.2-2.9-3.1 2.2-7.4 14.7-7.4 18.6-.3 28.5 28.7 37.2 48.3 48.7 6.6 3.9 12.4 9.2 19.2 12.8-11.3-23.6 9.2-42.9 21.5-61Zm49 16-37.8-11.8-3.7.8c-6.7 11.4-16.4 22.9-20.3 35.7-4.2 13.8 9.9 29.3 18.8 38.8 14.1-1.4 27.9-1.3 42-.5 2.6-2.4-10.6-20.4-11.5-24-3-11.8 6-29.3 12.5-39m50 19-43.9-15.9c-6.9 15.1-12.7 22-6.6 38.9 1 2.7 9.7 20.1 10.9 21.1 3.9 3 12.7 1.3 17.6 2.9-1.6-4.6-5.2-8.2-5-13.5 0-2.6 4-15 5.2-17.9 2.1-5.1 5.8-9.5 9.9-13.1l12-2.5Zm39 30c-6.8-1.4-6.7 5-10.1 7.4-1.8 1.3-6.4 3.3-8 1.1-1.2-1.6-.3-11.4.2-14 .5-2.7 4-11.4 3.9-12.1-1.2-6.2-19.7 6-22 9-3.1 4-8 13.5-6 18.5-12.1-.6-6.8-17.2-6-25l-8.2 14.3c-2.7 9.6 9.5 21.4 19.2 20.7.3-3.8-.7-8.1.7-11.8.9-2.4 8.4-6 8.2-10.8l5.1-3.4c-1.8 9.1-5.9 16.2-2.1 25.6 1.1 2.6 13 8.5 15.5 8.4 1.6 0 13.8-3.9 15.3-4.7 3.5-2 4.6-10.6 1.8-11.2-2.5-.5-2.5 4-4.8 5.3-10.8 5.9-9.6-3.3-6.5-10.5 1-2.3 3.9-3.8 3.7-6.8z" class="outline" data-original-prefix="outline"/>
    </g>
</svg>