<?xml version="1.0" encoding="UTF-8"?>
<?xml-stylesheet type="text/css" href="../styles/semantic.css" ?>
<svg xmlns="http://www.w3.org/2000/svg" viewBox="0 0 2048 2048">
  <g class="trait-group" data-category="background" id="background-brown">
      <path id="color-brown" fill="#564624" d="M2048 4.5q-.15 1019.4 0 2038.8c0 3.8-.8 4.6-4.6 4.6q-1019.4-.15-2038.8 0c-3.8 0-4.6-.8-4.6-4.6C.2 1362.3.1 681.2.1 0h2043.3c3.8 0 4.6.8 4.6 4.6z" data-original-style="transition:fill .3s ease" style="fill: #564624" class="color"/>
    </g><g class="trait-group" data-category="jaw" id="jaw-half-robo">
      <path id="fill-jaw" fill="#ffffff" d="m1382.8 1128.2 12.4 130.2 60.9 48.3-49.6 133.4c-1 1.4-2.4 1.1-3.9.9-13.9-1-32.8-8.5-47.4-10.7-1.8-.3-3.5-.4-5.2-.3 1.2 4.7-1.2 7.6-2.1 11.4-4.9 22.2-7.7 45-12.1 67.4l-57.2 29.3-1.4 1.6c-1.1 12 1.6 23.9.9 35.9-.3 5-1.3 14.9-2.3 19.7-.6 2.8-13.7 32.2-15 33.5s-16.1 8.9-16.7 8.3l-9.5-50-51 52c-7.7 5.7-20.7 9.3-27.5 15.5-14 12.7-24.7 36.5-41.4 47.6-5.5 3.6-58.7 25.2-65.4 26.6-2.4.5-46.7.7-49.3.2-6.2-1.1-59.9-22.7-65.6-26.3-14-8.8-29.1-36.3-42-48-6.7-6.1-19.9-9.6-27.5-15.4l-51-52-9.6 48.4c-.6.9-.9 1.7-2.2 1.5-.8 0-13.8-7.6-14.4-8.2-1.4-1.4-15.6-32.9-16-35.5l-.7-54.3-58.2-30.3-12.3-69.7c-16.4-1.1-33.5 3.9-49.5-1l-37.3-85.8c-.7-3.4 4-13 5.6-16.9 8-19 17.8-37.3 25.7-56.3 9.2-2.5 21.3 1.1 29.9-5.1 4-2.8-.2-18.8 0-23.9l-19-32.1-.3-2.2 27.6-63.5c1.4-9.9-3.2-21.4-1.1-31.1 1.3-6.2 9.7-21.7 13.2-27.9 54.6-98.4 184.4-157.8 290.2-180.8 48.2-10.5 90.3.5 136.5 15.4 98 31.8 198 94.6 250.7 185.3 3.2 5.5 3.8 13.3 10.7 14.8h-.7Z" class="fill" data-original-prefix="fill"/><path id="fill-jaw1" fill="#ffffff" d="M1265.7 1351.3c9.2 7.7-4.5 25.9-12.2 15.7s2.9-23.4 12.2-15.7" class="fill" data-name="fill-jaw" data-original-prefix="fill"/><path id="fill-jaw2" fill="#ffffff" d="M1314.6 1391.2c7.8-1.5 6.2 19.1-2.9 17.7-9.8-1.5-.6-17 2.9-17.7" class="fill" data-name="fill-jaw" data-original-prefix="fill"/><path id="shading-jaw" fill="#aaaaaa" d="M1377.3 1124.7c2.2 2.7 13.8 4 14.5 10l8.4 112.6c17.4 18.9 36.8 35.9 56.4 52.6l1.5 3.6-51 135.8c-1 1.6-3.7 1.7-5.4 1.6-14.4-.9-32.2-8.4-47.3-8.9-1.8 0-3.2-.2-4.4 1.3l-14.4 75.6-59.4 30.1c.4 11 2.6 23.6 2 34.5-.3 5.7-1.3 15.4-2.1 20.9-.5 3.1-13.4 31.4-15.4 33.6-3 3.2-11.6 6.2-15.5 9l-12-46.4-2.4-.6-46.1 47.9c-7.8 6.2-20 9.3-27.5 15.5-14.2 11.7-24.4 36.1-41.5 47.5-6.8 4.6-52.9 25.2-60.4 26.6-9.5 1.7-52.8 1.8-62.3.2-7.6-1.3-48.1-19.8-56.6-24.4-16.2-8.6-30.7-38.5-45.1-49.9-7.1-5.7-18.8-9.3-26.5-14.5l-48-49-8.5 47c-1.4 1.2-18.5-6.9-20.5-9-1.7-1.8-15-30.8-15.4-33.6-.7-4.4-.9-13-1.1-17.9-.5-12.2.6-24.4.5-36.6-18.8-11.7-39.4-20.3-58.6-31.4l-13.1-67.4-46.4.9-36.3-91.7-.2-2.3c6.7.3 9.7 6.8 15.7 10.8 19.1 12.8 34.2 19.3 57.7 16.1 20.6-2.8 26.4-11.2 48-1.7 16.1 7.1 19.4 16.7 31.2 25.8 13.2 10.2 17.5 3.6 25.9-7.1 6.9-8.8 25.8-41.6 27.4-51.6 1.7-10.7-3.8-11.2-13-10-8.6 1.1-48.4 15.1-51 14.6-1.7-.4-12.3-7.9-16.5-9.6-20.3-8.4-48.8-11.8-67.2-20.8-14.3-6.9-12.2-21.7-18-34.5l21.5-4.1c1.9.3 10.9 13 13.5 15.6 13.7 13.8 58.3 32.8 77.6 33.5 3.4 0 6-1 8.9-1.1h20.5l-34.7-16.8c-19.1-10.8-48.2-33.1-61.8-50.2-6.2-7.7-7.1-18.3-10.5-27.5-6-16.6-14.4-32-25-46 1.3-9 6.5-19.6 7.8-28.2 2.8-19.1 3.8-27.8 12.1-45.9 49-107.6 188.2-173.2 298.2-196.8 27.9-6 50-5.8 77.9 0 118 24.3 244.7 92.5 307.8 198.2 1.9 3.1 5.2 12.6 6.5 14h-.4ZM1326 1307c15.3-11.2 31.9-21.8 44.5-36 6.1-22.7 14.6-45.7 13.5-69.6l-2.1-29.5c-1.4.2-1.9 1.8-2.5 2.9-16.8 30.8-29.1 66.4-47 97l-62.3 38.7.4 3.3c5.9 15.3 32.8 49 33.4 63.6.2 4.3-2.2 10.7-.7 15.7 1.1 3.6 11 9.8 15.2 9.4l62.4-18.5c8.3 1.2 16.7.9 25.1.6l36.7-78.8.3-3.3c-14.1-10.8-29-21.4-44.3-30.7l-2.8 11.8c-13.3 5.6-27.2 16.2-40.4 21.1-6.7 2.5-16.4 2.8-23.8 3.2-1.2 0-5.6.7-5.5-1Zm-248 20c-5.1-10.6-9.9-23.3-16.6-32.9-6.5-9.4-23.8-30.4-31.9-38.1-4.2-4-7-3.9-11.1 0-7.7 7.4-27 30.2-32.9 39.1s-10.5 22.1-15.6 31.9zm200.7 70.7c1.4-1.6 8.8-25.5 9.1-28.5.4-4.4-3.5-11.7-5.6-15.9-3.8-7.3-18.5-32.7-23.6-37.4-5.7-5.3-8-1-14 1.1-11.8 4-23.6 7.8-35.5 11.5-1.3 1.1-1.1 1 0 2 3 2.6 6.7 4.5 9.4 7.6 6.8 8.1 12.2 22 18.6 30.9l3.1-12.4c.8-3.8 7.7-7.4 10.8-5.4 1.2.8 3.6 11.4 7.9 12.7 6.1 1.8 8.2-5 11-5.7 4.2-1 10.3 3.7 10.1 8.1-.5 11.3-14.6 20.3-25.1 18.6-1.1-.2-10.1-4.8-8.7-1.3 3.1 2.8 14.4 21.8 16.7 22.4 2 .5 14.5-6.5 16-8.2h-.2Zm-550.4 99c1.6 2 8.2 6.3 10.7 7.8 14.8 8.8 31.7 13.8 46.9 23.1 16.8 10.2 40.2 33.1 59.6 33.5 2.3 0 8.7-1.2 9.4-3.7.8-2.7-13.5-27.5-16.4-30.3-7.3-7.2-27.5-17.2-37.2-23.8-15.2-10.3-50.3-39.1-67.9-39.2-10.5 0-8.7 28.1-5.1 32.7Zm591.4-30.4c-6.1-6-24 4-30.4 7.6-16.3 9.1-30.8 21.3-46.2 31.8-9.3 6.4-25.4 13.9-33.1 20.9-3.1 2.8-16.2 24.5-16.9 28.2-1.1 5.3 6.2 6.5 10.3 6.3 16.8-1 25.6-11.2 38.2-19.8 8.3-5.7 17.3-12.1 26-17 11.7-6.6 47.1-19.2 52.7-29.3 2.4-4.3 2.8-25.2-.7-28.6ZM1126 1664c-12-2.7-20.7 6.6-31.6 7.9-5.7.7-12.2-1.2-16.6-.7-7.1.8-22.9 12.1-31.2 14.9-14.8 4.9-30.2 4.7-45.1 0-8.8-2.8-23.9-14.1-31.2-14.9-4.4-.5-10.9 1.4-16.6.7-11-1.3-19.9-11-31.6-7.4 0 7 23.7 23.4 30 27 12.5 7.1 59.7 26.8 72.5 26.6s59.8-19.7 72.2-26.9c3-1.8 33.6-23.3 29.3-27.2z" class="outline shading" data-original-prefix="shading" opacity="0.5" style="opacity: 0.5"/><path id="outline-jaw" fill="#000000" d="M1378 1122c.3-3.9.6-9.1 5.7-9.8 7.8-1.2 8.7 12 9.3 17.3 3.8 33.8 2.1 69.1 8.3 102.7 2.2 11.9 3.2 13.8 12.3 21.7 14.8 13 33.2 22.8 47.5 36.5 2.6 2.5 11.8 12.2 12 15.1l-66.1 156.3-46.9-24.9c-1.8 6.1-5.4 12.6-6.7 18.8-4.1 19.2 0 41.1-2.2 59.8-.4 3.4-10.5 17.5-13.3 18.7-6.4 3-16.2-1.8-24.7 3.3-23.8 14.4-17.9 48.6-27.2 68.8-7.8 17-37 48.2-52.9 58.1-1.6 1-2.9 1.9-4.9 1.6 1.1-14.8 3.1-34.9-3.9-48.6-.4-.8-.4-3.2-2.1-1.4-.7.7-3.6 13.8-6.6 17.9-5.8 7.9-20.7 8.9-29.4 12.6-16.7 7-14.3 32.7-27.7 43.3-19.3 15.2-61.2 32-85.1 38.9-10.8 3.1-38.9 11.3-48.7 11.3-15 0-63.4-15.1-78.8-21.2-11.1-4.4-55.3-26-60.6-34.4-6.9-11.1-8.5-31.6-21.5-37.6-14.5-6.6-26.4-2.4-33.9-20.1-1.1-2.5-2.5-10.3-2.8-10.7-1.3-1.6-1.8.4-2.2 1.3-6.9 12.5-5 34.9-3.8 48.7-2 .3-3.3-.6-4.9-1.6-15.7-9.8-48.9-44.4-54.2-61.8-6.2-20.6-5.3-52.1-25.9-65.1-8.2-5.2-18.3-.3-24.7-3.3-.9-.4-12.2-14.2-12.7-15.3-2.1-5.2-.2-29.6-.5-37.4-.4-9.1-2-18.5-3-27.5-4 1.6-7.6 4.7-11.9 5.6-2.8.6-5.6.7-8.5.3-4.7-.6-27.4-9.9-32.6-12.4-1.3-.7-2.7-1.2-3.5-2.5-2-33.7-22.2-63.7-44-88-2-4.4 2.1-14.5 3.7-19.2 6.2-17.8 15.6-36.4 25.7-52.3 3.2-5.1 14.2-22 17.9-25.1 5.5-4.4 9.8 3.3 14.6 6.6 1.6 1.1 12.7 7.8 13.5 7-2.9-7.2-9.4-11-13.8-17.7-4-6-15.9-26.4-15.8-32.6s5.4-17.7 6.5-25.3c.5-3 1.1-8.8 1.2-11.8.2-6.5-3-17.5 1.3-22.2 1.2-1.4 12.8-6.5 14.1-6.2.9.2 5 11.2 10.5 7.8 2.3-1.4 1-34.7 0-39.9.3-.3 7.6 1.8 8 2 1.8 1.1 7 8.1 9.8 9.7.5 8.4 3.4 20.7 1.1 28.7-2.8 10.1-17.5 14.8-21.2 22.8-1.2 2.6-6.4 25.9-6.7 29.3 0 1.2-.2 2.4.2 3.7 4.8 10.3 13.7 19.4 18.7 29.3s9 33.8 15.5 40c5.3 5.1 14.5 7.1 21 10.5 7.5 4.1 15.7 10.7 22.7 15.8-11.3-1.3-47.2-5.2-54.5-13-3.3-3.6-5.7-15.7-9.6-17.4-2.6-1.2-6.2-.2-9.2-.8-7-1.2-10.7-7.9-18.5-1.5-6.6 12.5-14.3 24.3-20.4 37.1-7.4 15.4-14.8 25.1-4.8 41.2 5.3 8.6 23.3 26.7 25.6 34.4 2.5 8.6-2.7 28 2.9 34.1 6 6.6 20.6 4.5 27.8.8 10.6-5.4 8.7-9.9 14.3-18.7 5.2-8.2 19.7-23.1 28.9-26.2s13.4 8.6 15.6 15.5c7.3 23.8-.2 34 22.5 51.5 11.6 8.9 33.3 20.1 47.8 17.9 8.5-1.2 21.1-6.6 27.2-12.8 7.2-7.5 8.8-24.6 24-14 15.8 11 30.3 30.1 46.6 41.4 20.5 14.3 77.5 32.5 102.5 34.6 37 3 105.5-17.1 134.5-40.5 11.5-9.3 21.6-20.6 33-30 4-3.3 11.6-11.3 17-8 .7.5 7.5 12.5 9.2 14.8 3.3 4.7 11.5 16.1 17.4 16.7 7.4.8 31.3-15.5 40.2-17.2 8.1-21.2 17.3-42.1 23.5-64 2.8-9.9 8.4-24.8 3.8-34.3-2.1-4.2-21.3-33.6-24-36-3-2.7-9.6-5-13.5-6.5-3.3-1.2-19.8-5.2-20.5-6-1.5-1.4.4-1.7 1.3-2.2 1.3-.7 11.6-5.7 12.3-5.8 2.6-.4 25.4 6.8 27.4 8.5s8.6 15.3 11 19c5 7.6 19.5 25.4 20.8 33.2.4 2.5.5 4.9-.2 7.3l-26.5 74.9c22.1-8.1 42.1-21.6 63.6-30.8 4.1-1.8 12.4-6.1 16.3-4.6 4.7 1.7 16.6 11.3 22.4 14.6 2.4 1.4 18.7 10.5 19.7 9.8l48.1-125.5c-.2-2.1-12.6-9.7-15.4-11.7-13.3-9.9-23-17.3-37.4-25.6-7.1-4.1-7.5-7.8-8.3-15.7-2.2-22.8-2.4-46.1-4-69-1.5-20.8-6.3-45.1-5-65.5h-.7Zm-649 280c-5.9.4-11.3 6.2-14.4 11.1-12.8 20.4-.6 26.3 1.3 45.5 1.3 13.2-3.2 33.5 4.7 44.3 5.3 7.3 21.6 10.7 30.1 14.9 3.6 1.8 23 13.2 24.8 15.2.4.4 3.3 5.3 3.3 5.6 0 .8-3.5 12.2-3.8 15.8-1.9 24 4.5 52.9 21 71l5 4.5c.9-4.6-1.1-9.2-1.1-13.5 0-12.5 8.2-24.3 10.1-36.5 23.5 5.4 36.4 28.6 51.4 45 11.3 12.4 23.8 14.5 34.1 23.9 6.5 5.9 11.9 15.9 17.5 22.5 14.6 17.4 20.2 23.3 41.3 32.7 29 13 50.6 21 83.2 18.9 16.8-1.1 61.8-19.2 76.4-28.6 16-10.4 26.2-34.2 40.1-45.9 10.6-9 21.7-10.9 32.5-22.5 15.6-16.6 28.5-40.5 52.5-46 .8 9.9 6.9 18.2 8.7 27.8 1.5 7.6.3 13.6.3 21.2 7.8-5.3 15.2-16.8 18.8-25.6 5.4-12.9 8.1-33.2 7.2-46.9-.2-3.4-3.8-17.5-3.5-18.4.6-1.7 3.6-5.7 5.2-6.9 4.5-3.4 17.3-10.6 22.7-13.3 11.7-5.9 31.5-8 33.6-23.4s-.7-31.7 3.8-48.2c1-3.6 5.3-8-1.4-5.4-30.7 11.8-63.4 35.5-93.6 46.4-10.1 3.6-23.8 2.7-32.8 7.2-6.8 3.5-11.5 12.3-16.4 17.6-16.2 17.4-41.8 25.6-65 28-69.4 7-135.6 6.9-205 0-21.7-2.1-46-9.9-62.5-24.5-5.9-5.2-10.7-15.4-19.3-15.2-3.9 0-8.2 3.3-11.2 3.7-5.5.6-22.8-12.9-28.7-16.2-15-8.4-31.4-14.8-46-24-2.8-1.8-16.7-11.4-17.8-13.2-2.8-4.9.2-12 0-17.1 0-10.4-4.3-21.6-7.1-31.5" class="outline" data-original-prefix="outline"/><path id="outline-jaw1" fill="#000000" d="M1253.7 1342.2c12.9-2.4 29.1 10.8 24 24-3.6 9.3-14.2 17-24.2 12.8-15.8-6.5-17-33.6.3-36.8zm12 9.1c-9.3-7.8-20.1 5.1-12.2 15.7s21.4-8 12.2-15.7" class="outline" data-name="outline-jaw" data-original-prefix="outline"/><path id="outline-jaw2" fill="#000000" d="M1313.7 1382.2c20.2-4.4 22.1 39.9-4.2 35.7-17.9-2.8-9.8-32.7 4.2-35.7m.9 9c-3.6.7-12.7 16.2-2.9 17.7 9.1 1.4 10.8-19.2 2.9-17.7" class="outline" data-name="outline-jaw" data-original-prefix="outline"/>
    </g><g class="trait-group" data-category="mouth" id="mouth-scrappy">
      <path id="fill-muzzle" fill="#ffffff" d="M1038 1292s-.4 1.7.7 2c10.3 2.8 18 4.3 25.8 13 1.9 2.2 4.9 8.8 6.5 9.5 2.6 1.2 6.6 0 9.5.5 11.4 1.5 21.2 3.7 31.2 9.8 2.1 1.3 9.2 7.8 10.2 7.1.3-.3 0-1.7 0-1.9 2.4-1.8 32.7.6 38 1 5.2 4.2 13.2 5.5 19.2 8.3 13.7 6.4 22.5 16.1 29.9 29.1 8.4 14.6 7.7 17.8 3.1 33.4-2.5 8.5-4.8 21.8-16.3 20.2 1.5-15.5-14.8-32.4-26.5-41-3.2-2.4-11.3-7.2-6 0 10.8 14.7 20.2 14.8 21.5 37.5.6 10.3-8.4 32.9-15.4 40.5-.6.7-7.1 6.3-7.6 6.5-3 1.6-6.9-6.1-7.8-8.2-3.6-7.8-4.7-15.5-9.7-23.3-1.1-1.7-10.8-13.7-12.4-12.1 5.6 13 9 46.2-2.5 56-4.4 3.7-9.4 1.9-13.3 3.7-2.8 1.3-3 5.7-4.8 6.1s-7-3.1-9.4-3.5c-8.9-1.3-13.2 17-18.7 17.5-2.5.2-10.7-11.9-18.4-9.4-7 2.2-15.4 21.2-24.4 23.6-6.3-6-3.4-14-5.8-21.2-1.2-3.5-4.2-6.7-5.8-10.2-5.4-12.7-2.8-19.9-.2-32.2.6-3 0-5.9.9-9.1.2-.7 6.3-12.3 6.9-13.1 3.7-5.4 19.2-12.4 22.7-3.8.9 2.2 0 8.7 2.2 7.7 5.1-4.9 10.2-9.9 15.5-14.5 11.5-10 14.1-9.7 21.2-24.8 1.5-3.3 6.5-14.5 6.6-17.3 0-3.4-9.2-14.7-11.8-17.8-1.4-1.7-9.5-11.5-10.2-11.8-6.4-3.2-28-2.3-34.7.8-7.9 3.6-12.5 12-19 17-1 .8-1.3 1.9-3 1.5l.8-12.7c3.6-4.3 21.7-23.3 21.1-27.5-.4-2.6-11.3-13.4-12.9-11.7 4.4 12.8.7 8.7-7.3 12.2-1.2.5-2.9 2.7-3.2 2.7s-2-2.2-3.2-2.7c-3.4-1.5-9.7-.4-9.3-5.6 0-1.1 4.1-7.6.5-6.6-2.8.8-12 9.9-11.3 13.2 0 .6 4 7 4.8 8 1.5 2 5 5.9 7 8.3 3.2 3.9 9.7 7.6 9.9 13.1 0 1.6-.8 3.1-.8 4.8s2.6 8.1-2.5 3.6c-6.2-5.3-10.2-13.6-18.5-17.5-6.5-3-30.3-4.3-35.7-.2-.8.6-8.8 10.5-10.2 12.2-2.4 3-10.9 13.7-10.8 16.8.2 5.4 11.7 29 15.7 33.2 3 3.2 9.3 6.8 13 9.9 5 4.3 9.7 9.1 14.5 13.5l4.2-11.1c4.9-3.1 17.7 2.6 20.8 7.1 1 1.5 5.1 9.9 6 11.9 2.8 6.4 5.1 25.4 4.4 32.4-1.1 10-7.9 15-9.4 22.6-1.3 6.4 1.1 14.9-5.8 18.9-8.1-2.6-17.3-21.5-23.6-23.5-8.2-2.6-15.9 9.6-18.4 9.4-5.3-.4-8.7-14-13.9-16.1-6.9-2.8-11.5 2.7-14.1 2.1-1.8-.4-2-4.8-4.8-6.1-4.5-2-9.6.3-14.3-4.7-10.9-11.5-6.5-42.2-1.5-56.1-9.1 6.7-14.1 14.8-18.5 25-1.6 3.6-2 7.5-3.7 11.3-1 2.1-4.9 9.8-7.8 8.2-.4-.2-6.9-5.9-7.5-6.5-3.9-4.3-13.8-24.4-15-30-2.8-12.9 1.4-26.5 9.5-36.5 4.1-5.1 11.3-9 13-15.5-2.4-2.4-22.3 17.4-24.4 20.1-5.4 6.8-11 15.9-9.6 24.9-8.3.5-10.7-3.3-13.3-10.2-2.7-7.1-7.8-22.8-6.2-29.8 3.7-16.2 21.4-35.8 36.3-42.7 6.2-2.9 13.9-4.1 19.2-8.3 12.5-.8 24.5-2.3 37-1 0 0 .7 2.1.5 3 9.5-8.2 20.6-14.8 33.1-16.9 4.7-.8 14.8-.4 18.1-1.8 1.6-.7 5.2-7.7 7.2-9.9 8-8.4 15.2-9.7 25.4-12.5 1.1-.3.6-1.9.7-2 1.1-.7 25.9-.7 27 0v.2Z" class="fill" data-original-prefix="fill"/><path id="fill-teeth14" fill="#ffffff" d="M1039.1 1601.9c-.8-.5-7.2-15.4-7.9-17.6-4.2-13.6-7-37.9-1.5-51.1 5.8-13.9 10.8-1 20-5 1.9-.8 7.6-6.8 9.2-8.8 2.6-3 3.6-9.1 8-8 12.8 3.1 21.1 24.2 22 36.1 2.3 30.4-23.4 40.7-45.2 53.7-1.2.5-3.6 1.3-4.6.6Z" class="fill" data-original-prefix="fill"/><path id="fill-teeth13" fill="#ffffff" d="M1015.7 1527.3c10.2 8.9 6 44.1 2.3 56.2-1.9 6.4-6 12-8.1 18.3h-2.3c-12.1-7.1-26.3-12.4-36.1-22.9-9.1-9.8-12.3-17.9-11.5-31.5.8-11.8 9-32.3 21.2-35.9 4.8-1.4 5.7 4.5 8.2 7.4 1.8 2.1 8.3 8.8 10.5 9.5 6 1.9 12.5-4.1 15.8-1.3z" class="fill" data-original-prefix="fill"/><path id="fill-teeth12" fill="#ffffff" d="M904 1461c0 2.2-1.1 3.8-.8 6.2s7.4 22.5 8.8 24c3.7 4.1 11.1 2.3 15.9 2.9 4.9 13.5-4.3 23.9-8.6 35.6-2 5.3-8.4 33.1-12.8 34.3-3.3.8-11.7-18-12.8-21.2-6.8-20.9-8.8-51.8 1.8-71.7.6-1.2 7.1-11.6 8.4-10.1Z" class="fill" data-original-prefix="fill"/><path id="fill-teeth11" fill="#ffffff" d="M1144 1564c-1 .7-1.8-.4-2.4-1.1-5.8-5.8-8.7-24.8-11.8-33.2-4.3-11.7-13.8-21.9-8.6-35.6 18.6 2.9 18.2-8.8 23.1-22.4l2.2-9.8c10.2 11.1 15.2 27.6 14.6 42.5-.5 13.7-3.2 35.3-9.5 47.5-.8 1.5-6.9 11.6-7.5 12Z" class="fill" data-original-prefix="fill"/><path id="fill-teeth10" fill="#ffffff" d="M949 1569c5.5 22.1 11.4 45.4 9 68.5-.5 5-1.3 9.2-7 6.9-3.4-1.3-17.5-13.4-19.5-16.5-7.4-11.8.3-39.7 8-50.8 1.2-1.7 7-10.1 9.4-8.1Z" class="fill" data-original-prefix="fill"/><path id="fill-teeth9" fill="#ffffff" d="M1100 1569c3.4-2.9 13.3 14.1 14.5 17 4.8 11.7 9.3 33.5 1 44-2.1 2.7-18.5 16.5-20.9 15.9-1.9-.4-3.4-6.5-3.6-8.4-1-8.7 0-26 1-35 1.1-10.9 6.5-22.5 8-33.5" class="fill" data-original-prefix="fill"/><path id="fill-teeth8" fill="#ffffff" d="M1167 1547c.9-6.7-1-15-.6-21.3.3-6.3 3.7-14.6 3.6-21.2 0-5.7-4.8-19.5-4-24 .5-2.9 3.5-2.8 5.5-4.5 6.2-5.3 10.4-15.8 16.9-4.9 14.2 23.5-1 56.5-18.4 74.4-.9 1-1.3 1.9-3 1.5" class="fill" data-original-prefix="fill"/><path id="fill-teeth7" fill="#ffffff" d="M881.7 1478.3c3.3 2.9-2.8 21-2.8 26.2s2.6 12.6 3.1 18c.7 8 0 16.5-.5 24.5-1.8 0-11.7-13.3-13.3-15.7-11.2-16.8-20.3-43.7-7-61.7 6.2-8.4 9.7.9 14 4.7 2 1.9 5.7 3 6.6 3.9Z" class="fill" data-original-prefix="fill"/><path id="fill-teeth6" fill="#ffffff" d="M1018 1613v16.5c0 .9-10.8 13.2-11.9 14.1-6.3 4.8-8-2.6-10.6-5.5-5.5-6-17.9-.4-24.4-5.6-.9-.7-4.1-8.3-4.1-8.9v-24.5c12.3 3 28.7 18.5 41.4 16.9 3.5-.4 6.1-3 9.6-2.9Z" class="fill" data-original-prefix="fill"/><path id="fill-teeth5" fill="#ffffff" d="M1102.5 1494c3.3-.8 5.3 8.5 6.3 10.7 5 10.5 15.3 30.3 11.4 42.1-2.2 6.7-15.6 23.4-20.4 11-4-10.4-4.1-44.7-1.1-55.5.4-1.6 2.4-7.9 3.8-8.2Z" class="fill" data-original-prefix="fill"/><path id="fill-teeth4" fill="#ffffff" d="M917 1563c-1.6 13.5 2.8 27.4 2 40.5-.5 8.8-4.2 18.6-5.5 27.5-5.8-5.6-10.5-15.7-11.4-23.6-.6-5.2.7-25.8 2.4-30.3.6-1.6 10.5-16.2 12.4-14.1Z" class="fill" data-original-prefix="fill"/><path id="fill-teeth3" fill="#ffffff" d="M1135 1631c-.4-8.9-4.4-17.8-5.1-26.5-1-13.6 3.6-27.7 2-41.5 2.2-2.4 11.9 13 12.5 15 2 6.8 2.7 27.3 1.2 34.3-1.3 6.3-5.5 14.8-10.8 18.7z" class="fill" data-original-prefix="fill"/><path id="fill-teeth2" fill="#ffffff" d="M1154.1 1604.9c-3.4-2-5.1-22.3-3.9-26.2.8-2.6 8.9-5.2 10.2-8.8l5.1-10.9c3.8 3.4 5.1 7.2 4.3 12.2-.7 4.5-5.2 22.3-6.9 26.2-.9 2.2-6.1 9-8.8 7.5" class="fill" data-original-prefix="fill"/><path id="fill-teeth1" fill="#ffffff" d="M885 1559c.4.4.7 7.1 3 10.5 2.7 3.9 10.5 6.9 11 10-.8 4.7-.7 23-4 25.4-2.5 1.8-7.7-4.5-8.7-6.7-1.6-3.6-6.3-22.5-7-27-.6-3.9 2.5-15.6 5.8-12.3Z" class="fill" data-original-prefix="fill"/><path id="shading-mouth2" fill="#aaaaaa" d="M918 1443.5c.8 5.3 5.6 13.8 10.1 16.9 11.5 8.3 16.2-.3 22.4-9.4 2.5 5.4 3.4 11.5 6 17 1.4 2.8 5.7 12 7.5 5.5l4-11.5c1.6 7.5 6.3 15.4 11.5 21 4.3 4.7 18.8 15.4 24.6 9.6 2-2.1 8.3-17.9 10.8-22.2 1.2-2.2 7.8-13.8 9.7-13.3 1 .2 8.5 13.2 9.7 15.3 2.4 4.5 7.3 17.7 9.8 20.2 3.8 3.8 10.5.4 14.4-1.8 10.5-5.9 18.5-17.2 21.7-28.8l4.2 12.3c.3 1.2 1.9 2.4 2.8 1.7.6-.4 5.8-11.3 6.5-13 .8-2 2.8-12 4-12 6.8 10.7 12.9 18.4 24.5 7.5 8.6-8 9.3-23.8 7-34.5 3.5-3.1 21.1 16.1 26.6 16.9 9.1 1.4 17.6-11.8 19-19.9 3.5-20.5-12.9-39.2-30.9-46.2l-12.7-4.8c15.4 0 28.2 2.9 41.1 11.4 4.8 3.1 12.2 10.9 17.6 11.4 6.2.6 10.1-4.1 10-10-.4-19.3-25.8-38.1-39.7-48.8 15.4 2.4 34.6 11.8 45 23.5 7.8 8.8 19.1 25.1 19.1 37s-6.4 28.5-9.2 32.8c-3.3 5.3-11.7 5.4-13.4 10.6-.9 8.1-2.1 16.4-2.5 24.5-1.5 29 1.4 45.2-10.8 73.2-3.6 8.2-12.7 20.4-14.9 27.1-4.2 12.8-.7 26.4-9.1 38.9-3.2 4.8-8.4 6.7-11.2 10.8-1.7 2.5-2.4 6.1-4.2 8.8-4.5 6.7-14.6 23-21.6 8.9-1.6-3.3-1.3-12.9-6.7-6.2-1.4 1.7-1.9 4.4-3.5 6.5-3.7 4.7-17.7 19.6-23.5 19.5-2.2 0-4.5-4.1-6.6-5.4-7.9-5-21.1-6.3-29.2-1.4-7.3 4.4-9.5 13.6-18.1 6.8s-6.4-10.8-20.1-9c-5.6.7-11.4 12.6-16.9 12.1-2.8-.2-11.4-11.1-18.5-12.6-6.3-1.3-17.5.7-23 4.2-2.6 1.7-4.1 5.6-7.5 5.4-5.7-.3-19.8-15.8-23.6-20.5-1.2-1.5-4.4-10.6-7.1-6.9-2.5 3.4-.6 9.9-7.2 12.7-7 3-14.9-11.2-18.1-16.4-1.2-1.8-1.2-4.3-2.6-6.4-2-3-6.8-5.4-9.5-8.5-10.4-11.9-6.7-27.7-10.7-41.3-.8-2.6-5.6-8.5-7.3-11.7-18.4-35.7-16.4-45.6-18.4-84.6-.4-7.7-.6-20.7-2.2-27.8-1.5-6.2-11.1-6.1-14.2-11.8-3.4-6.1-9.3-29.6-8.6-36.4 1.2-10.3 16.2-31.2 24-38 10.5-9.2 26.2-16.5 40-18.5l-21.5 17c-7.2 6.4-26.8 32-14.8 39.9 9 5.9 16.7-4.5 23.7-9.1 12.7-8.4 25.3-11.8 40.7-11.8l-17.3 7.2c-18 9.4-33.1 32.7-22.1 52.8 1.7 3.1 8.6 10.4 12 11.1 9.1 1.7 20.7-15.4 29.5-18 .6 6.4-.9 14.3 0 20.5zm-37.1 40.6c-12.3-.5-17.1-20.2-22.8 1.5-3.4 13 1.2 26.4 9.4 36.5 1.5 1.8 12.7 13.1 13.9 12.9.8 0 2.5-2.3 2.8-3.2 2.9-7.1-3.2-12.2-4.2-19.2-1.5-9.8 0-18.7.9-28.4Zm301.8-8.9c-3.2.8-6.3 6-8.8 7.3-2.1 1.1-7.2 1-7.8 3.2-.5 1.7 3 10.8 2.9 14.8 0 3-1.5 13.9-2.2 16.8-.9 3.6-3.9 5.7-3.9 10.2s1.4 7.1 3.7 7.4c1.9.3 15-14.4 16.8-17 5.7-8.5 9-18.8 7.3-29.2-.5-3-4.4-14.5-8-13.6Zm-284.8 10c-4-2.3-6.5 9.9-6.8 12.5-1.2 10.5 3 38 8.7 47.1 1.9 3 5.4 6.9 9.2 7.3 3.7-15.6 12.6-29.2 21-42.5-2.3-.4-1.7-2.9-2.7-3.5-1.5-.9-7-1.9-9.7-3.1-4.7-2.2-12-7.7-15.6-11.4-1.2-1.2-3.8-6.2-4.2-6.3ZM1139 1552c8.3-2 11.9-12.2 13.9-19.6 3.1-12.1 6.1-33.4 1.1-44.8-3-6.9-5.8 1.7-8.3 4.1-3.9 3.8-11 9.3-16 11.6-2.5 1.1-7.8 1.8-9.1 2.7-.7.5-.5 1.8-1 2.7-.3.4-1.7.4-1.6.9 0 1 7.9 12.3 9.2 14.8 4.8 8.8 9.1 18 11.8 27.7Zm-197.7 5.7c8.1 8.1 9.5 0 10.5-7.3.8-5.6 2.7-20.6 1.7-25.4-3.6-17.2-21.3-15.9-21.6 3.6 0 6.8 4.6 24.3 9.4 29.2Zm161.5-44.5c-5 1.3-8.5 9.3-8.8 14.2-.2 4 2.4 28.5 3.8 31.3 2.5 5 7.5 0 9.8-2.7 6.8-8.3 11.6-30.7 4.5-39.5-2.7-3.3-4.8-4.4-9.2-3.3zM1023 1544c-.7-.7-.8-7-5.1-9.4-8.9-5-21.8-.8-32-4-10.4-3.3-9.4-13.1-16.1 1.8-2.9 6.4-9.1 24.4-6.3 30.7 1.1 2.4 17.8 15.6 21.2 17.8s18.2 11.7 21.1 10c3.1-5.6 9.3-9.5 12.6-14.9 1.8-2.8 4.1-11.5 4.6-11.9 1.6-1.7 1.7.5 2.1 1.4 1.6 3.6 2.1 6.8 4.5 10.5 3.3 5.2 9.2 9.3 12.4 14.6 3.1 1.9 15.5-5.9 18.9-8.1 4.5-2.9 22.9-17 23.9-21.1 2.2-9.7-6.6-28.3-10.9-37.2-4.9 1-7.8 5.2-12.7 6.7-9.2 2.8-28.2-1.6-33.7 6.3-.9 1.2-2.6 8.9-4.5 7zm-136 18c-.7-.6-3.5 0-4.5.9-6 6.2 2.4 31.6 14.6 27.6 4-1.3 3.8-9.4 2.8-12.9-1.1-3.9-7.2-4.1-9.8-7.2-2.1-2.5-2.7-8.2-3-8.5Zm274.1 0c-.3.3-.9 6-3 8.5-2.6 3.1-8.7 3.3-9.8 7.2-1 3.4-1.2 11.6 2.8 12.9 13.4 4.4 20.2-24.5 14.1-28.1-.9-.5-3.5-.9-4-.4Zm-216.4 7.2c-1.5.4-5.1 4.6-6 6.1-3.4 5.6-5.6 32.3-4.8 39.3 1.3 10.9 15.2 18 19.5 3.5 1.7-5.6 2.6-21.4 2.5-27.6 0-1.1-5.8-19.7-6.5-20.5-1.2-1.4-3.2-1.3-4.8-.8Zm153.3-.1c.2 6.6-5.4 14.7-6 20.6-.5 4.5 1 25.3 2.4 29.4 4.2 12.1 16.9 7.3 19.1-2.9 1.1-5.2 0-16.8-.6-22.6-1-9.7-1.7-25.5-14.9-24.5m-180 1.9c-20.5 3.8-17 28.7-9 43 4 2.9 10.4-17 10.7-19.8.9-7.5-2.9-15.5-1.8-23.2Zm218 43c2.5 1.8 7.2-9.1 7.7-10.8 3.9-12.8 1.6-30.1-13.7-32.2.5 7.4-2.8 16.2-1.9 23.4.3 2.7 6.4 18.5 7.9 19.6m-148.2 10.2c1.4.8 4.8 8.6 9.5 11 11.1 5.8 20.2-6.4 20.7-16.7.8-13.7-7.2-7.7-16.5-8.6-8.4-.8-15-4.8-21.8-9.2-5.5-3.5-13.6-14.6-14.7-1.4-.5 5.1 1.4 7.5 1.8 11.2s-2 5.9.5 10.7c4.8 9.3 18 1.3 20.7 2.8zm93.1-31.1c-2.1-1.5-19.7 12.7-23.9 14.4-2.3 1-7.9 2.3-10.5 2.5-10.5.9-18.8-5.4-16.4 11.4 1 7.3 7.9 15.8 16 15.1 9.4-.8 11.9-11.6 14.6-12.4 4-1.3 12.3 5.7 18.9-1.1 4.3-4.4 1.3-8.4 1.5-12.5 0-2.3 1.9-4.8 2-8.1 0-1.9-.8-8.5-2.2-9.4Z" class="outline shading" data-original-prefix="shading" opacity="0.5" style="opacity: 0.5"/><path id="shading-mouth1" fill="#aaaaaa" d="M1041 1343c6.1.5 12.7-1 17.5-5 1.5-1.3.9-3.7 2.8-2.9 10.1 7.9 37.9 17.4 43.8 28.2 3.6 6.5 4.6 17.5-1.8 22.6-5.6 4.5-20.8 10.8-28 15-4.9 2.8-9.7 6.6-14.7 9.3-7.4 4.1-25.5 14.5-32.6 16.4-2.9.8-5.2.8-8.1 0-14.5-3.8-42.2-22.5-56.3-30.7-6.2-3.6-21.2-9.1-23.2-15.8-5.5-18.4 15.7-28.3 28.7-35.4 2.3-1.2 15.5-8.6 16.5-8.7 2.9-.3 4.2 2.9 6.7 4.2 4.2 2.3 10 3.2 14.7 2.8-.3-5.1-3.3-11.3-1.8-16.3.5-1.6 12.5-13.9 14.5-14.4 3.9-1 8.2-.3 11.6 1.9 1 .7 10.8 11.1 11.2 11.8 2.1 5-1.2 11.8-1.5 17" class="outline shading" data-original-prefix="shading" opacity="0.5" style="opacity: 0.5"/><path id="outline-mouth3" fill="#000000" d="M889 1333c-5.3 4.2-13 5.4-19.2 8.3-14.9 6.9-32.6 26.5-36.3 42.7-1.6 7 3.5 22.7 6.2 29.8 2.6 6.9 5 10.8 13.3 10.2-1.4-9 4.2-18.1 9.6-24.9 2.1-2.6 22-22.5 24.4-20.1-1.7 6.5-8.8 10.4-13 15.5-8.1 10-12.3 23.6-9.5 36.5 1.2 5.6 11.1 25.8 15 30 .6.7 7.1 6.3 7.5 6.5 3 1.5 6.9-6.1 7.8-8.2 1.7-3.8 2.1-7.7 3.7-11.3 4.4-10.2 9.4-18.4 18.5-25-5.1 13.9-9.5 44.6 1.5 56.1 4.8 5 9.9 2.7 14.3 4.7 2.8 1.3 3 5.7 4.8 6.1 2.6.6 7.2-4.9 14.1-2.1 5.2 2.1 8.6 15.6 13.9 16.1 2.5.2 10.2-12 18.4-9.4 6.3 2 15.5 20.8 23.6 23.5 6.9-4 4.5-12.6 5.8-18.9 1.5-7.6 8.3-12.6 9.4-22.6.8-7-1.6-26-4.4-32.4-.9-2.1-5-10.5-6-11.9-3.1-4.5-15.9-10.2-20.8-7.1l-4.2 11.1c-4.8-4.4-9.5-9.2-14.5-13.5-3.7-3.2-10-6.8-13-9.9-4-4.2-15.5-27.8-15.7-33.2 0-3.1 8.4-13.8 10.8-16.8 1.4-1.8 9.5-11.6 10.2-12.2 5.4-4.1 29.2-2.8 35.7.2 8.4 3.8 12.4 12.1 18.5 17.5 5.2 4.5 2.5-1.7 2.5-3.6s.9-3.2.8-4.8c-.2-5.4-6.7-9.2-9.9-13.1-2-2.4-5.5-6.3-7-8.3-.8-1-4.7-7.3-4.8-8-.7-3.3 8.6-12.4 11.3-13.2 3.6-1-.5 5.5-.5 6.6-.4 5.2 5.9 4.1 9.3 5.6 1.2.5 3 2.7 3.2 2.7s2-2.2 3.2-2.7c8-3.5 11.7.6 7.3-12.2 1.6-1.7 12.5 9.1 12.9 11.7.6 4.2-17.5 23.2-21.1 27.5l-.8 12.7c1.7.4 2-.7 3-1.5 6.5-5 11.1-13.4 19-17 6.8-3.1 28.3-4.1 34.7-.8.7.3 8.8 10.1 10.2 11.8 2.6 3.1 11.9 14.4 11.8 17.8 0 2.8-5 14.1-6.6 17.3-7.1 15.2-9.7 14.8-21.2 24.8-5.3 4.6-10.4 9.6-15.5 14.5-2.2.9-1.4-5.6-2.2-7.7-3.4-8.6-19-1.6-22.7 3.8-.6.8-6.7 12.4-6.9 13.1-1 3.2-.3 6.1-.9 9.1-2.6 12.3-5.2 19.6.2 32.2 1.5 3.5 4.6 6.8 5.8 10.2 2.5 7.2-.5 15.2 5.8 21.2 9-2.3 17.4-21.3 24.4-23.6 7.7-2.4 15.9 9.6 18.4 9.4 5.6-.5 9.8-18.8 18.7-17.5 2.3.3 7.6 3.9 9.4 3.5s2-4.8 4.8-6.1c3.9-1.8 8.9 0 13.3-3.7 11.5-9.9 8.1-43 2.5-56 1.6-1.7 11.3 10.4 12.4 12.1 5.1 7.8 6.1 15.5 9.7 23.3 1 2.1 4.8 9.8 7.8 8.2.4-.2 6.9-5.8 7.6-6.5 7-7.6 16-30.2 15.4-40.5-1.3-22.7-10.7-22.7-21.5-37.5-5.3-7.2 2.8-2.4 6 0 11.8 8.6 28 25.5 26.5 41 11.4 1.6 13.7-11.7 16.3-20.2 4.6-15.6 5.3-18.8-3.1-33.4-7.4-13-16.3-22.7-29.9-29.1-6-2.8-14.1-4.1-19.2-8.3 9.3.7 19.7 2.8 29.2 5.3 7.4 1.9 14.4 3.9 20.7 8.3 3.2 9.3 27.6 34.6 28 42 .2 3.7-8.2 22.5-10 27.9-2.5 7.2-2.6 16-10 21-1.9 1.3-8.4 2-9 3.2-4.1 7.9-1.4 38-1.9 48.8-1.1 21.6-7.6 43.1-20.5 60.5-.9 1.2-2.6 1.5-3.6 2.7-4.3 5.6-2.8 18.6-4.3 26.5-1.2 6-5 13.1-5.6 18.4-.4 3.5 1.3 7.7.8 9.7s-10.7 8.6-13.2 9.9c-2.2 1.2-5.7 1.5-6.5 2-.6.4-5.4 10.9-7.2 13.3-2.1 2.7-11.1 11.3-14 12.1-4.1 1.2-7.9-10.3-9.9-13s-2.3 2.3-3.6 4.3c-4.3 6.7-25.1 26.6-32.4 28.6-1.7.5-3.3.7-5 .5-.4-5.9 3.2-9.9-1.5-15.1-8.2-9-20.9-.3-24.3 8.8-1.8 4.9-1.6 20-8.6 18.1-4.6-1.3-20-25.6-23.2-30.8-5.7 8.9-12.2 19.9-19.5 27.4-11.2 11.7-9.9-11-13.8-18.2-3.8-7.1-14-12-21.1-6.7-6.7 5-2.9 9.6-3.1 16.4-3.5 3.5-24.3-13.8-27.5-17-1.3-1.3-10.5-12.2-11-13-.7-1.4-.2-6.3-2.6-3.3-2.1 2.7-6.2 14.3-10.2 13.3s-12-10.2-13.7-12.4c-2.1-2.7-6.6-12.8-7.2-13.2-.8-.5-3.8-.6-5.8-1.7-2.3-1.2-11.9-7.4-13-9-2.1-3.2.4-6.9 0-11-.7-6.8-5.9-15.3-6.8-24.2-.5-5 .6-10.7-.6-15.4-1-4-8-10-10.7-14.3-15.3-24.4-17.6-52.1-17.9-80.2 0-5.4 3-18.2 0-22.8-.8-1.2-7.8-1.9-10.4-3.8-7.2-5.3-6.2-13-8.6-20.4-1.9-6-10.7-24.3-9.8-28.7.5-2.7 4.3-7.5 6-10.1 7-10.8 15.7-20.6 22.5-31.5 5.9-4.3 13.2-6 20.1-7.9 9.7-2.6 19.8-4.7 29.2-5.3h.2Zm15 128c-1.4-1.5-7.8 8.9-8.4 10.1-10.6 19.9-8.6 50.8-1.8 71.7 1.1 3.3 9.4 22.1 12.8 21.2 4.4-1.1 10.8-28.9 12.8-34.3 4.3-11.7 13.6-22.1 8.6-35.6-4.8-.6-12.2 1.2-15.9-2.9-1.4-1.5-8.5-21.7-8.8-24s.8-4 .8-6.2Zm240 103c.6-.4 6.8-10.5 7.5-12 6.3-12.1 9-33.7 9.5-47.5.6-14.9-4.3-31.4-14.6-42.5l-2.2 9.8c-4.9 13.6-4.6 25.2-23.1 22.4-5.2 13.7 4.3 23.9 8.6 35.6 3.1 8.4 6 27.5 11.8 33.2.7.7 1.4 1.8 2.4 1.1Zm-262.3-85.7c-1-.9-4.6-2-6.6-3.9-4.2-3.9-7.8-13.1-14-4.7-13.3 17.9-4.1 44.9 7 61.7 1.6 2.4 11.5 15.7 13.3 15.7.5-8 1.2-16.5.5-24.5-.4-5.4-3.1-12.3-3.1-18s6-23.3 2.8-26.2ZM1167 1547c1.7.4 2-.5 3-1.5 17.4-17.9 32.6-50.9 18.4-74.4-6.5-10.8-10.8-.4-16.9 4.9-2 1.7-5 1.6-5.5 4.5-.8 4.5 4 18.3 4 24s-3.3 14.8-3.6 21.2c-.3 6.3 1.6 14.6.6 21.3m-64.5-53c-1.4.3-3.3 6.6-3.8 8.2-3 10.7-2.9 45.1 1.1 55.5 4.8 12.4 18.2-4.3 20.4-11 3.9-11.7-6.4-31.5-11.4-42.1-1-2.2-3-11.4-6.3-10.7Zm-86.8 33.3c-3.2-2.8-9.7 3.2-15.8 1.3-2.1-.7-8.7-7.5-10.5-9.5-2.6-2.9-3.4-8.8-8.2-7.4-12.2 3.5-20.5 24.1-21.2 35.9-.9 13.6 2.4 21.7 11.5 31.5 9.8 10.4 24 15.7 36.1 23h2.3c2.1-6.4 6.2-12 8.1-18.4 3.7-12.2 7.9-47.3-2.3-56.2zm23.4 74.6c1.1.7 3.4 0 4.6-.6 21.8-13.1 47.5-23.3 45.2-53.7-.9-11.9-9.2-33-22-36.1-4.4-1.1-5.5 5-8 8-1.7 1.9-7.3 7.9-9.2 8.8-9.2 4-14.3-9-20 5-5.4 13.2-2.6 37.5 1.5 51.1.7 2.2 7.1 17.1 7.9 17.6ZM885 1559c-3.2-3.3-6.4 8.4-5.8 12.3.7 4.5 5.4 23.4 7 27 1 2.2 6.2 8.5 8.7 6.7 3.4-2.4 3.2-20.7 4-25.4-.5-3.1-8.3-6.1-11-10-2.3-3.5-2.6-10.1-3-10.5Zm269.1 45.9c2.7 1.5 7.8-5.3 8.8-7.5 1.7-3.8 6.1-21.6 6.9-26.2.8-5-.5-8.8-4.3-12.2l-5.1 10.9c-1.4 3.6-9.4 6.1-10.2 8.8-1.2 3.9.5 24.2 3.9 26.2M917 1563c-1.9-2.2-11.8 12.5-12.4 14.1-1.7 4.6-3 25.2-2.4 30.3.9 7.9 5.6 18 11.4 23.6 1.4-8.8 5-18.6 5.5-27.5.8-13.1-3.7-27.1-2-40.5Zm218 68c5.3-3.9 9.4-12.4 10.8-18.7 1.5-7 .8-27.4-1.2-34.3-.6-1.9-10.4-17.4-12.5-15 1.5 13.8-3.1 28-2 41.5.7 8.7 4.6 17.6 5.1 26.5zm-186-62c-2.4-2-8.2 6.4-9.4 8.1-7.7 11.1-15.4 39-8 50.8 2 3.2 16 15.2 19.5 16.5 5.6 2.2 6.5-1.9 7-6.9 2.4-23.1-3.5-46.4-9-68.5Zm151 0c-1.5 11-6.9 22.6-8 33.5-.9 9-2 26.3-1 35 .2 1.9 1.7 8 3.6 8.4 2.4.6 18.8-13.3 20.9-15.9 8.3-10.5 3.8-32.3-1-44-1.2-2.9-11-19.9-14.5-17m-82 44c-3.5 0-6.1 2.5-9.6 2.9-12.7 1.6-29.1-13.9-41.4-16.9v24.5c0 .6 3.2 8.2 4.1 8.9 6.5 5.2 18.9-.4 24.4 5.6 2.6 2.9 4.3 10.3 10.6 5.5 1.1-.8 11.9-13.1 11.9-14.1v-16.5Z" class="outline" data-original-prefix="outline"/><path id="outline-mouth2" fill="#000000" d="M1122 1332c-.2 0 .2 1.6 0 1.9-1 .8-8.1-5.8-10.2-7.1-10-6.1-19.8-8.3-31.2-9.8-2.9-.4-6.9.7-9.5-.5-1.5-.8-4.5-7.4-6.5-9.5-7.8-8.7-15.6-10.2-25.8-13-1.1-.3-.6-1.9-.7-2 3.1-3.8 16.2-9.3 20.8-9.8 7.9-.9 5.5 4.4 6.5 9.1 2.3 10.7 9.3 19.6 21.3 18.8 5.1-.3 5.6-4 7.9-4.1 1.4 0 6.6 2.9 8.2 3.8 9.4 5.2 15 12.5 19.3 22.2z" class="outline" data-original-prefix="outline"/><path id="outline-mouth1" fill="#000000" d="M1011 1292s.4 1.7-.7 2c-10.2 2.8-17.4 4.1-25.4 12.5-2 2.1-5.6 9.2-7.2 9.9-3.4 1.4-13.5 1-18.1 1.8-12.5 2.1-23.6 8.7-33.1 16.9.2-.9-.5-2.8-.5-3 .8-2.7 8.7-13.3 11-15.6 2.5-2.4 14.7-10.5 17.6-10.4 2.7 0 3 5.1 11.9 3.9 10-1.3 16.2-10.1 17.5-19.6.4-2.6-2.4-6.7 2.8-8.2 3.5-1 21.7 5.6 24.3 9.8Z" class="outline" data-original-prefix="outline"/>
    </g><g class="trait-group" data-category="eyes" id="eyes-OG">
      <path id="fill-eyes" fill="#ffffff" d="M1337.7 1024.3c1.5.9 16.3 27.2 18.4 31.1 9.7 17.9 18.4 36.1 23.1 55.8.9 3.7 4.9 7.3-.6 11.5s-13.7 5.7-17.7 7.8c-9.3 4.9-18.6 9.9-27.5 15.5-1.2 42.7-11 81.2-47.2 106.8-43.1 30.5-110 44.9-161.5 32.9-13.7-3.2-24.1-9.2-39.1-3.9-11.8-10.4-26-18.9-37.7-29.3-7.2-6.4-13-14.8-20.5-20.5-2.7 1.3-6.1-.6-8.4.4s-13.7 15-17 18c-12.4 11.4-27.2 20.1-39.7 31.3-3.4.3-6.4-1.6-9.8-1.8-14-1.1-26.2 5.6-40.1 7.8-49.6 8.1-115.4-7.3-155.2-38.4-33-25.8-41.6-63-42.6-103.4-9.7-5.8-19.6-11.2-29.5-16.5s-18-6.5-18.9-12.2 2.6-4.6 3.6-7 .9-6.7 2.1-9.9c7.7-20.9 25.7-58.2 39.1-75.6s2.4-.4 3.1-1.3c18-23.8 37.3-50.3 58.9-70.8 140.3-133.5 334.8-143 483.5-16.5 25.5 21.7 43.5 44 64.5 69.5s10.4 15.7 12.5 17.5 3.2.6 4.2 1.3Z" class="fill" data-original-prefix="fill"/><path id="shading-eyes-2" fill="#aaaaaa" d="M942 857c-12.1 12.3-28.7 18.2-42.9 27.6-24 15.9-46.8 43.3-62.9 67.1-5.4 7.9-23 36-24 44-1.9 15 19 44.3 30.9 52.7 15.5 11 44.6 22.3 62.6 32.4 17.3 9.7 34.5 19.9 50.9 31.1 14.4 19.1 24.9 49.3 40 66.9 6.5 7.6 13.5 4.7 18 8 1.1.8 4.3 7.4 5 9 1.1 2.8-.7 5.7 2.8 7.3 5.7 2.7 5.9-8.1 8.2-12.3 4.5-8.3 14.1-3.9 20.9-12.1 14.5-17.4 24.2-46.5 37.8-64.2 6.2-8.1 34-23 44.2-28.8 11.7-6.7 23.8-13 35.7-19.3 21-11.2 34.9-13.8 50.4-33.6 11.6-14.8 20.3-27.2 12.4-46.3-11.6-28.4-47.4-74.4-71.4-93.6-17.2-13.8-38.5-21-54.5-36 32.2 6.5 62.4 20.5 90.7 36.8 43.8 25.2 91.8 64.7 120.1 106.9 2.5 3.7 7.4 8.7 5.5 13.1-1.7 4-26.2 9.5-31.6 11.5-55.7 20.6-105.3 41.9-152.6 78.4-29.2 22.5-41.7 38.5-62.3 68.7-4.9 7.2-6.3 13.4-13.3 19.7-2.1 1.9-22 16.2-23.4 16.6-1.9.6-28.2.6-30.1 0-1.3-.4-19.7-13.4-21.9-15.1-8.5-7-9.6-13.4-15.3-21.7-18.6-27.1-30.9-43.6-56.9-64.1-49.4-38.9-99.1-60.6-157.6-82.4-5.5-2-29-7.5-31.3-10.6-2.9-4 2.2-9.9 4.6-13.5 27.4-39.9 72.4-78.4 113.8-103.2 30.1-18 63.1-33.9 97.7-40.8z" class="outline shading" data-original-prefix="shading" opacity="0.5" style="opacity: 0.5"/><path id="shading-eyes-1" fill="#aaaaaa" d="M1376 1124c-.3.4-7.4 2.6-9 3.5-8.1 4.2-26.1 12.6-32.3 17.7-2.4 1.9-.9 4.2-2.2 5-26.3 9.1-58.4 13.3-83 25.8-28.2 14.3-61.1 41-85.2 61.8-16.4 14.2-30 16.1-47.8 26.2-9.8 5.6-17.8 14.5-27.8 19.3l-2.5-.6c-11.3-10.6-24.9-18.4-36.5-28.5-7.8-6.8-14.2-15.6-22.1-21.9-2.7 1.3-6.1-.6-8.4.4-1.4.6-15.2 16.5-18.6 19.5-11.8 10.6-25.7 18.9-37.5 29.5l-3.9 1.1c-11.7-6.7-22.5-15.3-34.3-21.8-10.7-5.8-26.2-10.7-35.6-17.4-5.4-3.9-11.8-11.6-17.6-16.4-25.2-20.7-60-47.9-90.7-58.3-21.3-7.2-43.6-12.1-65.1-18.7l-2.2-5-41.4-21.6 4.9-4.1 15.1-28.9h33c21.4 13 44.7 24.7 65.5 38.5 18.6 12.3 35.7 27.9 54.2 40.8 28.2 19.8 67.5 44.8 99 58 17.5 7.3 25.6 4.5 43.5.8 6-1.2 20.2-6.3 24.5-6.4 2.5 0 7.8 3.9 12.8 3.8 4.4 0 9.7-4.1 11.8-3.9 5.8.6 16.8 4.9 23.8 6.4s18.6 4.4 25.6 4.5c11.2.2 31.8-11.4 42.1-16.9 70-36.9 125.7-90.2 196.1-125.9l32.3.3c3 1.8 10.9 25.2 15.5 29.5 1 1 5.9 2.1 4.4 4h-.4Z" class="outline shading" data-original-prefix="shading" opacity="0.5" style="opacity: 0.5"/><path id="outline-eyes6" fill="#000000" d="M696 1136c.7 5.7-1.4 11.4-2 17-1.4 1.2-21.5-7.8-24.8-8.7-13.8-4-26.1 4.1-24.1-17.7 2.4-26.3 17.9-67.1 30.7-90.3 4.9-8.8 24.5-40.3 33.1-42.9 3.1-.9 7.2 1.5 8.9.5.4-.3 3.7-6.5 5.2-8.3 78.3-95.7 168.6-146.9 294.5-148.6 132.9-1.8 222.6 47.8 306.4 147.6 1.4 1.7 5.8 9 6.2 9.3 2.4 1.4 7-1.2 9.8-.4 7.6 2.1 25.6 30.2 30.2 37.9 13.9 23.7 31.8 69 33.8 96.2 1.6 20.6-11.3 13.1-24.2 16.8-2.5.7-4.5 2.5-6.8 3.2-5.8 1.8-11.9 2.9-17.5 5.5l-3.5-17c.2-.3-.2-1.8.2-2.3 3.6-4.4 22.6-10.5 23.3-11.7 4.5-6.8-6.4-31.1-9.7-38.4-3.9-8.8-9.1-18.8-13.7-27.3-2-3.7-15.9-28.3-17.4-29.1-.5-.3-10.8-1.3-12.3-1.3-8.7 0-25.2 1.8-34 3.1-7.3 1.1-14.2 4-21.5 5-.4-1.8.9-2.5 2-3.5 10.3-10 25.8-16.8 38.1-24.1-2.6-12.8-10.1-23.8-18.6-33.4-37.8-43-100.8-73.6-152.2-97.8-64.6-30.5-162.4-29.5-226.7 1-47.5 22.5-138.9 67.2-163.2 114.8-1.5 3-6.7 13.2-4.5 15.5 9 5.4 19.5 10 28 16.1 2 1.4 13.1 9.4 11.1 11.4-7.1-1.7-14.2-3.9-21.5-5-8.8-1.3-24.5-3.1-33-3.1s-7.8 2-11.8 1.1c-9.3 14.8-18.8 29.9-26.6 45.6-4.4 8.9-14.4 29.9-15.1 38.9-.2 2.4-.6 9.7 1 11 1 .8 4.9 1.5 6.7 2.3 5.2 2.4 14.7 5.6 15.3 11.2h.2Z" class="outline" data-original-prefix="outline"/><path id="outline-eyes5" fill="#000000" d="M1341 1142c2.8 5.1 2.2 12.1 3.3 18.2.6 3.1 4.6 17.2 4.5 18.1-.3 1.7-10.6 14.7-8.8 16.7 2.2 2.4 7.6-14.3 12-10.5 0 2 .2 4 0 6-.9 8-7.9 29.6-10.7 38.3-3.7 11.3-6.9 17.3-14.8 26.2-2.9 3.3-23.2 24.8-25.1 25.9-5.6 3.1-11.9 3.2-17.6 4.4-15.2 3.3-30.3 5.6-44.8 11.8-.2 1.8 2.2.9 3.2.7 5-.8 9-3.8 13.5-4.5 3.7-.6 10-1.1 13.8-1.2 3.2-.2 8-.4 11 0 5.7.7-3.1 3.3-4.2 3.8-11 5.4-26.6 14.2-38.1 16.9-19.5 4.5-69.6 7.3-88.5 3-7.3-1.6-22.2-17.8-29.8-23.2-3.2-2.3-11.1-7.6-14.4-8.6-4.2-1.2 1.3 9.2.5 10-14.9 1.2-22.3-6.1-30.5-17.1-.7-1-.3-2.6-.5-2.9 4.9-2.4 4.6-9.9 4-14.5-1.3-10.2-15.3-17.8-22-24.5 20.5 3.6 41 15.9 62.4 13.9 44.4-4.3 63.1-31.3 96.7-55.3 34.7-24.8 71.6-39.6 112.9-50.1 3.4-.9 9.1-.5 12.1-1.4Z" class="outline" data-original-prefix="outline"/><path id="outline-eyes4" fill="#000000" d="M707 1142c4 1.2 11.2 1 16.2 2.3 37.9 9.8 74 24.5 106.1 46.9 34.5 24.2 55.2 53.3 100.3 57.7 20.5 2 42.9-9.6 62.4-14.9.5 2.2-1.2 2.2-2.3 3.2-10.7 9.9-22.4 13.2-19.7 31.2.5 3.4 2.3 3.4 2.9 4.6.5.9 1 2.9.5 4-.6 1.4-13 13.6-14.6 14.5-2 1-14.9 3.5-15.9 2.6l2-9c-2.5-2.4-17.2 8.6-19.9 10.6-6.5 4.9-19.3 18.9-25.8 20.2-20.4 4-67.9 1.8-88.5-3-12.1-2.8-26.8-11.3-38.1-16.9-1.1-.5-9.9-3.1-4.2-3.8 3-.4 7.8 0 11 0 3.8.2 10.1.7 13.8 1.2 4.6.7 8.5 3.7 13.5 4.5 1.1.2 3.5 1.1 3.2-.7-5.7-1.6-11.1-4.2-16.8-5.7-12.7-3.5-35.4-4.8-45.6-10.4-3.5-1.9-29.8-30.3-32.5-34.6-3.8-5.9-6.3-13.8-8.5-20.5-2.5-8.1-10.3-32.3-10.7-39.3-.2-3.1.9-3.6 4-2 1.5.7 5.9 8.5 7.4 10.6.4.5 1.1 3.7 2.6 1.9 1.6-1.9-9.6-16.9-9.8-18.6-.2-1.6 3.8-15.6 4.5-19.2 1-5.7 1.2-11.5 2.3-17.2z" class="outline" data-original-prefix="outline"/><path id="outline-eyes3" fill="#000000" d="M998 1254c1.7-6.8 7.8-11.9 11.4-18.1 4.8-8.4 10-20.3 7.6-29.9 6 1.8 8.5 2.6 14.5 0-1.3 11.8 3.9 24 10.3 33.7 4.4 6.7 5.8 7.8 9.2 15.3-3.3 0-4 4.3-7 4-4-7.2-11-10.3-15.9-17.6-.9-1.3-.8-4.1-1.7-4.4-5.5-1.6-6 5.6-9.4 9.5-3.8 4.4-11.3 6.9-12 12.5-1.4 1.3-5.2-4.4-7-5" class="outline" data-original-prefix="outline"/><path id="outline-eyes2" fill="#000000" d="M981 1184c-1.9.4-2.4-1-3.4-2.1-13.3-14.7-23-34.8-35.1-47.9-22.5-24.4-60.9-45.3-87.4-65.6-1.2-.9-9.5-7-8.1-8.4 16.5 4.3 29.6 16 44.3 24.2 19.2 10.7 39.3 20 58.6 30.4 5.3 6 8.9 13.4 12.2 20.8 7.2 15.8 12.7 32.5 18.8 48.7h.1Z" class="outline" data-original-prefix="outline"/><path id="outline-eyes1" fill="#000000" d="M1202 1060c.4 1.8-.9 2.5-2 3.5-7.4 7.2-18.8 12.6-27.3 18.7-19.4 13.7-51 35.4-66.7 52.3-10.2 10.9-18.1 30.5-29.4 41.6l-8.5 8c6.1-16.2 11.6-32.9 18.8-48.7 2.4-5.2 7.3-16.6 11.2-19.8 22.4-12.8 46.4-23.4 68.7-36.3 11.5-6.6 21.7-16.7 35.3-19.2Z" class="outline" data-original-prefix="outline"/>
    </g><g class="trait-group" data-category="right ear" id="right ear-robo">
      <path id="fill-ear-rt1" fill="#ffffff" d="M1309.7 967.7c-21.5 15-73.7 1.5-73.8-28.2 0-17.4 19.3-64.4 26.3-82.8 15.6-40.9 37.9-99.1 62.5-134.5 12.2-17.5 47.1-40.3 66.9-49.1 25.2-11.2 58.3-12.1 85.4-10.1 0-1.7 0-3.4.4-5 29.2-103.4 66.2-199.3 108.1-297.9 10.4-24.5 17.8-43.7 36.4-63.6 26.6-28.2 58.4-54.6 87-81 5.1-4.7 9.5-10.2 15-14.5.4 36.3-3.9 72.5-9.2 108.3-21.8 147.8-72 298.3-146.9 427.1-112.2 41.1-191.9 136.1-258.2 231.3Z" class="fill" data-original-prefix="fill"/><path id="fill-ear-rt2" fill="#ffffff" d="M1288 747c-16.2 44.6-44.8 91.8-64.2 136.3-5.3 12.3-10.4 24.7-14.6 37.4-.2 2.1 4.6 10 6 12.5 5.6 9.8 12.7 20.5 19.8 29.2-8.1-3.9-16.8-7.8-24.3-12.7-3.9-2.5-12.8-9.1-15.7-12.3-4.7-5.3-17.9-31.7-21.5-39.5-1.1-2.4-2.8-5.2-3.3-7.8-.9-5.4 6.1-15.3 8.6-20.9 14.3-31.3 25.7-60.8 38.7-92.3 5.4-13.2 13.6-26 18.2-39.8 13.7-40.3 17-104.6 9.9-146.5-.9-5.6-4.2-13.5-4.3-18.5-.3-13.9 31.4-60.6 40.8-73.7 29.1-40.7 69.4-86.1 106.8-119.2 1.9-1.7 8.4-7.6 10.3-7.4q37.2 20.1 72 44.1c15.8 10.9 34.5 23.7 49.2 35.8 2.7 2.2 8.4 5.7 7.1 9-13 32.3-26.4 64.4-39.4 96.7-7.8 19.4-14.3 40.2-22.8 59.2-2.4 5.4-7.8 17.6-11.5 21.5-11 11.9-42.4 5.7-57.5 7.5-7 .8-39.4 25.6-47.8 31.2-9.3 6.3-20.9 11.6-29.2 18.8-11.1 9.6-18.8 27.5-25.3 40.7-1.2 2.5-2.7 8-4.1 9.7-.9 1.2-1.8.4-2.1.6 2.9-8 9.1-24-3.2-27.3-24.9-6.6-31.1 31.7-10.3 32.4 5.1.2 9.3-2.7 13.5-5Zm108.8-362.8c-16.1 1.3-18.6 20.6-6.3 29.8 13.7 10.2 34.5 3.9 28.7-15.7-2.3-8-14.4-14.7-22.4-14.1m-166.5 417.1c-.6.5-5.3 6-5.8 6.7-8.6 13.3 1.2 29.8 17.4 23.4 5.4-2.1 8.7-8.2 10.5-13.5 5.3-15.4-9.2-27.6-22.1-16.6m-32.6 72.9c-19.7 4.1-21.7 39.6 2.6 34.5 17.2-3.6 22.9-39.9-2.6-34.5" class="fill" data-original-prefix="fill"/><path id="fill-ear-rt3" fill="#ffffff" d="M1721 186c-31.9 28.2-64.8 55.6-96 84.5-20.5 18.9-33 29.2-44.4 55.5-16.7 38.2-28.6 79.6-45.5 118-1.5.4-1.7-.4-2.5-1-5.7-3.9-11.9-10-17.6-14.4-32.2-24.7-65.5-48.1-99.8-69.7l.8-3.5c16.1-12.9 31.8-26.3 48.2-38.8 39-29.7 81.9-61 126.2-81.8 42-19.7 86.2-35.6 130.7-48.8Zm-200.2 209.2c-4.4.3-8.9 3.1-11 7.1-8.3 15.9 17.4 32.4 26.2 21.2 9.4-11.9-.4-29.5-15.2-28.3" class="fill" data-original-prefix="fill"/><path id="fill-ear-rt-rivet5" fill="#ffffff" d="M1205.8 881.2c.3.4 1.9 6.6 1.9 7.4.3 11.2-17.1 14.3-14.6-1.1.8-5.2 9.9-9.8 12.7-6.3" class="fill" data-original-prefix="fill"/><path id="fill-ear-rt-rivet4" fill="#ffffff" d="M1235.7 805.2c13.9-2.8 12.2 15.8 1.7 16.8s-11.4-14.8-1.7-16.8" class="fill" data-original-prefix="fill"/><path id="fill-ear-rt-rivet3" fill="#ffffff" d="M1271.3 740.7c-6.9-5.6 4.4-18.6 11.3-13.8 7.7 5.4-4 19.7-11.3 13.8" class="fill" data-original-prefix="fill"/><path id="fill-ear-rt-rivet2" fill="#ffffff" d="M1398.7 396.2c10.5-3.1 16.5 14.9 2 11.6-6.3-1.5-8-9.8-2-11.6" class="fill" data-original-prefix="fill"/><path id="fill-ear-rt-rivet1" fill="#ffffff" d="M1529.7 415.7c-3.4 3.6-10.4 2.4-10.8-3.2-.8-12.8 17.9-4.2 10.8 3.2" class="fill" data-original-prefix="fill"/><path id="shading-ear-rt" fill="#aaaaaa" d="M1723.2 198.8c1.1.7 3.4 0 3.8.2 1 .9.2 23.2 0 26.5-3 78.4-22 167.1-43.5 242.5-27 94.6-62.5 187.2-112.8 271.8-109 38.4-182.4 127.3-248.3 217.2-6.9 9.3-10.1 16.1-22.2 18.8-16.7 3.7-51.9-3.1-68.2-9.2-8.7-3.3-32.8-19-39.1-26-4.2-4.7-24-40.7-25.5-46.5-.8-3.1-.6-6.3-.4-9.5 9.9-22.1 21.6-43.6 31.1-65.9 6.5-15.3 11.1-31.6 17.3-46.7 4.8-11.7 11.9-22.6 16.2-34.8 14.8-41.1 17.6-100.5 11.1-143.6-1.5-9.8-5.1-16.5-3.9-27.1.9-7.5 7.1-14.2 9-21.5l15 73c62-48.6 120.2-102.4 181.5-152 15.7-12.7 31.6-26.8 49.5-36l-1.5-3c-21.9-15.4-42.7-32.5-65.8-46.2-2.5-1.5-31.8-16.3-30.7-17.8 5.9-1.9 11.6-5.4 16.5-9 3.4-2.5 4.6-7.1 9.8-5.8 3.4.9 18.9 12.1 23.1 15 23.8 16.3 47.4 33.3 70.8 50.3 11.8.5 13.6-2.1 13.4-13.5 12.9-26.7 23-54.7 35.3-81.6 2.3-4.9 5.3-13.5 8.6-17.4 5.9-6.9 18.3-17 25.5-23.5 21.2-19 65.9-59.4 89.8-71.2 4-2 26.6-10.7 30-11.1 3.9-.4 3.4 3 4.5 3.6ZM1703 288c-.6-.8-7.1 4.7-8 5.5-23.5 20-52.6 47-73 70-15.3 17.2-21 36-28 57.5l101.1-74.4c3.3-19.4 6.6-39 7.9-58.5Zm-16 102c-.7-.8-10 6.2-11.3 7.2-33.3 23.5-66 47.9-98.2 72.8-6.6 18.3-12.6 37-16.4 56.1l113.7-77.3 12.3-58.7Zm-207.3 146.7c6.9-24.1 15-48 19.8-72.7l-233.4 175.2c2.2 17.2 3.6 34.5 1.9 51.8zM1634 535c-.7-.8-6.4 4.2-7.5 5-29.9 23.4-62.7 50.7-90.1 76.9-8.9 8.5-20.1 19.2-26 30-3.6 6.6-7.4 20-11.9 25.1-6.7 7.4-25.1 18.6-34 26-19.2 15.8-31.9 28.3-46.3 48.7-16 22.5-29.9 46.6-42.2 71.3l64.3-38.2 115.7-66.3c27.3-58.9 55.3-117.6 78-178.5m-357.3 190.2c-8.5 1.8-10.6 17-2.2 16.8 3.8 0 1.1-3.9 1.8-5 1-1.5 8.5-2.7 8.6-6.4 0-4-4.6-6.1-8.2-5.4m-12.8 16.9c-1.9-1.6-7.4 3-8.8 4.6l-18.8 51.1c-5.9 3.1-15 19.2-5.3 21.9 5.5 1.5 7.5-5.5 10.7-6.4 2.1-.6 4.5.2 6.6-.4 1.6-.5 2.3-2.8 4.2-2.8 3.3 0 6.4 8.5 8.5 7 5.3-16.9 14.6-32.2 20-49-15.5 3.6-14.1-23.4-17.1-26M1224 833c-1.7-1.8-1.7.7-2.1 1.4-3.7 7.3-13.8 39.5-18.6 42.4-3.4 2-12 2.6-11.3 9.7s10.4 3.4 13.5 3.6c2 .1 3.5 2 6 2 1.3 0 4.1-1.4 4.5-1.1 3.2 2.5 3.5 31.1 15.2 9.7l18.8-55.2c-2.7-.5-4.3 1.4-7.5 1.6-6.4.3-11.7-2.7-15.5-7.6-1.7-2.2-2.8-6.2-3-6.5" class="outline shading" data-original-prefix="shading" opacity="0.5" style="opacity: 0.5"/><path id="shading-ear-rt2" fill="#aaaaaa" d="M1384 405c2.6-.1 3.5 2.8 5.9 3.5 6.6 2.1 5.5-1.4 7.8-2.5 1.8-.9 7.7-3 9.9-3.8 1.5-.5 3.9.2 5.3-.7 2-1.3.8-9.2 6-4.1 10.2 10-1 33.1-14.4 32.5-10.8-.5-23.4-13.6-20.6-24.9Z" class="outline shading" data-original-prefix="shading" opacity="0.5" style="opacity: 0.5"/><path id="outline-ear-rt" fill="#000000" d="M1734.9 163.1c.9 5.1 2.3 10.3 3 15.5 6 47.5-.5 106.2-7 153.7-17.7 128.1-67.1 281.2-131.7 393.3-2.7 4.6-14.6 24-17.8 26.2-3 2.1-16.3 5.5-21.3 7.7-29.5 12.8-63.7 37.8-88.5 58.5-54.2 45.1-104.1 102.3-138.2 163.9-13 3.4-25.7 8.6-38.7 11.1-16.8-6.7-37.5-5.5-54.2-10.9-6.7-2.2-43.9-21.9-49.8-26.2-16.8-12.5-29.2-53.7-41.2-71.8-1.4-4.6.6-29.6 1.6-35.5 1.6-9.2 25.9-43.5 32.1-54.9 31-57 45.2-134.6 38.8-199.2-.6-6.2-6.4-29.9-5.8-32.8 1-5 11.8-23.5 15-29 22.3-39 50.6-76.1 80.3-109.7 100.4-113.9 223.3-215 374.1-251.9 6.5-1.6 46.4-10.5 49.3-8M1721 186c-44.5 13.2-88.6 29.1-130.7 48.8-44.4 20.8-87.2 52.1-126.2 81.8-16.4 12.5-32.1 25.9-48.2 38.8l-.8 3.5c34.3 21.6 67.6 45 99.8 69.7 5.7 4.4 11.9 10.5 17.6 14.4.8.6.9 1.4 2.5 1 16.9-38.3 28.9-79.7 45.5-118 11.5-26.4 24-36.6 44.4-55.5 31.3-28.9 64.1-56.3 96-84.5Zm-411.3 781.7c66.3-95.2 146-190.2 258.2-231.3 74.9-128.8 125.1-279.4 146.9-427.1 5.3-35.8 9.6-72.1 9.2-108.3-5.5 4.3-9.9 9.8-15 14.5-28.6 26.4-60.4 52.7-87 81-18.7 19.8-26 39.1-36.4 63.6-41.9 98.6-78.9 194.5-108.1 297.9-.5 1.7-.5 3.3-.4 5-27.1-2-60.2-1.1-85.4 10.1-19.7 8.8-54.7 31.7-66.9 49.1-24.6 35.4-46.9 93.6-62.5 134.5-7 18.3-26.4 65.3-26.3 82.8.1 29.7 52.3 43.2 73.8 28.2ZM1288 747c-4.2 2.4-8.4 5.2-13.5 5-20.8-.7-14.6-39 10.3-32.4 12.3 3.3 6.1 19.3 3.2 27.3.3-.2 1.2.5 2.1-.6 1.4-1.8 2.8-7.3 4.1-9.7 6.5-13.2 14.2-31.1 25.3-40.7 8.3-7.2 20-12.5 29.2-18.8 8.4-5.7 40.7-30.4 47.8-31.2 15.1-1.8 46.5 4.4 57.5-7.5 3.6-3.9 9.1-16.2 11.5-21.5 8.5-19 15-39.8 22.8-59.2 13-32.3 26.4-64.4 39.4-96.7 1.2-3.3-4.5-6.8-7.1-9-14.7-12.2-33.3-25-49.2-35.8q-34.8-24-72-44.1c-1.9-.3-8.3 5.6-10.3 7.4-37.4 33.1-77.7 78.5-106.8 119.2-9.4 13.1-41.1 59.8-40.8 73.7 0 4.9 3.4 12.8 4.3 18.5 7 41.8 3.8 106.1-9.9 146.5-4.7 13.8-12.8 26.5-18.2 39.8-13 31.6-24.4 61-38.7 92.3-2.5 5.6-9.5 15.5-8.6 20.9.4 2.5 2.2 5.4 3.3 7.8 3.6 7.8 16.8 34.2 21.5 39.5 2.9 3.2 11.8 9.8 15.7 12.3 7.5 4.9 16.2 8.8 24.3 12.7-7.1-8.7-14.2-19.4-19.8-29.2-1.5-2.6-6.2-10.4-6-12.5 4.2-12.7 9.3-25.2 14.6-37.4 19.4-44.6 48-91.7 64.2-136.3Zm-16.7-6.3c7.3 5.9 18.9-8.3 11.3-13.8-6.9-4.9-18.2 8.2-11.3 13.8" class="outline" data-original-prefix="outline"/><path id="outline-ear-rt4" fill="#000000" d="M1197.7 874.2c25.5-5.3 19.7 30.9 2.6 34.5-24.2 5.1-22.3-30.4-2.6-34.5m8.1 7c-2.8-3.5-11.9 1.1-12.7 6.3-2.4 15.4 14.9 12.3 14.6 1.1 0-.9-1.6-7-1.9-7.4" class="outline" data-original-prefix="outline"/><path id="outline-ear-rt3" fill="#000000" d="M1230.3 801.3c12.9-11 27.5 1.3 22.1 16.6-1.8 5.3-5.1 11.4-10.5 13.5-16.3 6.3-26.1-10.2-17.4-23.4.5-.7 5.2-6.2 5.8-6.7m5.4 3.9c-9.7 2-8.4 17.8 1.7 16.8s12.2-19.6-1.7-16.8" class="outline" data-original-prefix="outline"/><path id="outline-ear-rt2" fill="#000000" d="M1396.8 384.2c8-.6 20.1 6.1 22.4 14.1 5.8 19.6-15 25.9-28.7 15.7-12.3-9.2-9.8-28.5 6.3-29.8m1.9 12c-6 1.8-4.3 10.1 2 11.6 14.5 3.3 8.5-14.7-2-11.6" class="outline" data-original-prefix="outline"/><path id="outline-ear-rt1" fill="#000000" d="M1520.8 395.2c14.8-1.1 24.7 16.4 15.2 28.3-8.9 11.2-34.5-5.3-26.2-21.2 2.1-4 6.6-6.8 11-7.1m8.9 20.5c7.1-7.5-11.7-16-10.8-3.2.4 5.6 7.4 6.8 10.8 3.2" class="outline" data-original-prefix="outline"/>
    </g><g class="trait-group" data-category="left ear" id="left ear-stitches">
      <path id="fill-ear-lft" fill="#ffffff" d="M326.7 182.1q1.65-.45 3.3.3l180.7 78.4c55.2 39.7 111.9 77.8 165.3 119.7l109 135.9c10.5 65.4 16 132 25.2 197.8 24.6 50.1 52.6 98.7 77.3 148.7 1.5 3.1 5.4 9.5 5.5 12.5.2 4.7-8.5 15.9-11.2 20.8-15.1 27.1-18.8 33.2-43.9 52.1-22.9 17.2-44.3 28.5-72.5 35.5-8 2-18.1 5.7-25.3.5l-82.9-79.1c-9.9-22-17.5-45.3-28.1-66.9l-154-109c-23.7-34.4-41.7-73.1-64.9-108.1-9.8-43.7-27.6-90.2-34.9-134.1-5.9-35.7-6.9-73.6-12.5-109.5-9.3-20.9-22.7-40-30.5-61.5-1-40.6-6.8-81.2-8.3-121.7-.1-3.4-1.1-11.4 2.8-12.4Z" class="fill" data-original-prefix="fill"/><path id="shading-ear-lft" fill="#aaaaaa" d="M555 465c11.2-3.5 14.9 1.4 16 12 2.1 1.8 16.5-9.5 20-10l-10.9-17.4c.3-1 1.1-1.5 1.9-2.1 1.4-1.1 16.7-10.1 17.7-10.4 7.1-1.5 9.3 8.8 11.3 13.8 1.7 1.1 8.9-4.9 9-6.4.1-3.9-9.1-10.3-6.9-16.9 3.4-1.8 14.2-13.5 16.4-13.7 5.2-.5 9.4 12.1 13 12.1.6 0 10.1-6.6 10.4-7.1 2.5-3.6-12.6-10.2-12-16.4.3-2.7 13.2-13.6 14.7-17.6 9.8.2 13 9.4 17.9 16 2.9.7 12-11.5 19.7-7.7 5.8 2.9 4.3 9.1 4.8 9.7.2.2 2.8 0 4.5 1 2.5 1.4 5.3 6.7 5.5 9.6.7 9.6-11.2 13.9-10.9 16.8.3 3.6 12.4 11 9.4 15.7-.7 1.2-6.7 4.1-8.5 5.6-7.4 6.1-8.6 13.6-17.1 2.9-2.4-3-3-8.9-7-7-.5.2-7.6 5.7-8 6-2.9 3.5-1.9 6.5-.2 10.1 1.3 2.9 7.5 8.7 5.2 10.8-4 .8-18 10.8-20.4 10.6-3.8-.3-8.8-11.5-11.9-11-1.2.2-6.5 5.8-8.7 6.5-.6 3.6 9.5 10 8.1 15.7-4.1 1.4-20.1 16.7-23 14.6-.8-.5-3-9.5-7.1-11.4-4.6-2.1-12.3 7.2-16.9 8.6-1.3 1.9 7.2 8.7 5.5 12.9-10.2 6.3-23.7 23.3-30.5 4-3.5 2.2-7.2 2.5-7 7.4.4 11.8 9.9 54.8 15 65.1.9 1.8 10.2 12.8 11.6 13.4 8.9-15.4 16-32 26.5-46.5l54-6.5c0 9.4-.3 19 1.1 28.4 3.4 21.8 18.3 36.8 29.3 54.7 16.2 26.3 28.1 50.9 41.7 78.3 8.6 17.2 17.3 34.4 26.8 51.2 5.6 3 9.3-3.8 14.3-2.3 3.7 1.1 5.7 9.7 7.2 9.8 11.3-5.3-4-10.3-2.3-18.2.8-4.2 14-14.8 18.3-14.8s7.1 6.5 10 9.1c1.7 0 7.1-10.9 8.3-12.7.5-.8.7-2.8 2.2-1.3.7.6 6.2 13.5 7.5 16 2.1 3.9 8.9 12.6 8.5 16.4-.4 4.7-6.8 10.2-7.6 13.6-.6 2.6 1.2 8 .3 12.3-1.1 5.1-7.6 14.1-13.4 14.4-5.1.2-10.1-8.1-12.9-2.7-1.4 2.8 1.9 4.8 2.9 7.1 3.8 8.6-3.7 12.3-3.3 14.3.2 1.4 15.6 20.2 18 23.1 11.4 14.1 28.9 30.4 38.4 44.6 4.5 6.8 4.6 12.1 7.6 19.4l-8 11.9c-29.4 24.7-56.9 43.6-94.7 53.3-15.7 4-23.6 7.7-27.2-12.2-11.3-7.1-23.8-14.3-34-23-9.1-7.7-27.1-24.6-34.5-33.5-3.9-4.7-10.2-16.9-14-20-3.5-2.8-12.8-2.7-9.5-11.5-1-.7-3 1.2-3.9.5-.5-.3-4.4-9.3-4.6-10-.8-3 .8-4.7.4-7.2l-17.1-43.5c-30.8-21.7-67.7-36-97.2-59.3-22.1-17.6-40.3-39.2-57.5-61.5 2.9 1.1 6 3.6 8.5 5.5 33.3 26.6 65 55.6 102.5 76.5 25.3 14.1 50.5 23.2 79 29 2.7 1.1 4.3 11.6 5.1 12.3.7.5 4-.3 5.9.6 1.5.7 2.2 4.1 3.6 4.4 1.1.3 4.4-1.9 5-3 1.1-2.2-1.4-5-.4-6.8.3-.5 8.3-6.3 9.7-7.8 1-1 4-4.6 4-5.7 0-1.2-8.9-16.3-10.4-18.6-11.6-18-24.4-21.2-43.9-28.1-20.8-7.4-48.7-11.2-67.2-18.8-10.8-4.5-44.7-26.1-52.8-34.2-6.9-7-18.2-26-23.9-35.1-11.2-17.8-21.4-36.5-30.4-55.6-2.1-4.3-12.6-31-14.1-31.9-3.6-2.3-13.8 12-21.1 6.2-2.9-2.3-2.9-7.8-7.2-6.6-2.3.6-11.1 17.2-15.8 11.3-1.2-1.5-9.4-20.6-9.7-22.8-1.6-9.4 12.8-15.7 11.7-19.8-.4-1.6-4.3-4.3-4.6-7.3-.5-5.7 9.5-9.7 13.3-13.3 2-2 5.2-7.7 5.6-7.9 3.1-1.8 7.2 4.9 9.2 4.7 1.3-.1 12.6-8.9 13.2-9.9 2.8-4.5-8.1-12.4-3.6-17.5.8-.9 7.4-3.6 9.3-4.7 1.7-.9 5.6-4.5 6.4-4.6 3.8-.8 7.5 7.4 9 7.8 1.2.4 8.3-3.9 8.9-4.9 1.3-2-2.6-4-3.6-6.5-3.3-8.1 2.4-9 4.5-13.6 2.3-5-5.4-33.6-7.5-40.5-10.2-34.4-29.6-73.9-49-104-17.3-27-36.6-39.4-45.3-72.7-.5-1.9-.9-3.8-.7-5.8 2.1-.3 3.6.3 5.4 1.1 6.9 2.9 19.6 11.2 26.5 15.5 19.8 12.2 42.8 26.9 61.4 40.6 31 22.8 73.3 79 88.5 114.5 1.3 3 3.8 7.8 4.2 10.8.6 4.6-2.3 28.2-1 29.5Zm-79.2 95.2c-1-1-5.7-2.4-7.7-3.8s-5.5-6.5-7.5-6.5c-1.5 0-9.5 6-9.4 7.3 9.4 13.5 17 33.6 33.9 38.7.1-3.3 1.3-5.8.8-9.2-.3-2.1-9.1-25.5-10-26.5Zm248 306c-6-3.3-11.6 4.7-15.3 4.7-4.8 0-10-8.3-12-7.9-3.2.6 1.9 5.3 2.2 6.7 2 7.5-4.7 12.2-3.3 15.2 24.2 26.5 48.8 52.5 75.5 76.5l8 5.5c-1.5-7.4-3.3-14.8-5.5-22-5.3-17.5-6.1-16-16.5-29.5-12-15.7-23.2-32.1-33.2-49.3Z" class="outline shading" data-original-prefix="shading" opacity="0.5" style="opacity: 0.5"/><path id="outline-ear-lft" fill="#000000" d="M806 969c.3 2-2.7 3.5-4.1 4.4-13.5 8.6-43.4 19.9-59.4 20.7-7.5.4-15-.6-22.1-3-14.3-13.3-27.4-28.1-41.4-41.6-8.4-8-27.9-20-33.5-27.5-1.8-2.5-9.1-18-9.4-20.7-.5-4.7 5.6-10.5 3.3-15.3-1.9-4-10.7-2.9-13-5-1.7-1.5-7.6-16.5-9.7-20.3-7-12.7-13.1-22-25.8-29.2-43-24.6-77.7-42.6-113.5-78.5-34.8-34.8-72.6-95.9-90-142-4.4-11.8-.3-13 1.5-24.3-.4-1.7-10.4-4-12-5.2-5.6-4.2-20.7-65.1-22.6-75.4-2.6-14.5 3.6-16.6 4.6-29.5 2.6-36.6-7.3-92.6-28.2-122.9-8.1-11.7-8.8-10-11.5-25.5-6.1-34.9-11.1-107.2-6.2-141.6.4-2.5 3.3-15.8 4.5-16.7 1.7-1.2 4.6-.9 6.6-.7 37.4 3.5 114.5 37.1 150.5 53.6 50.8 23.2 121 61 164.2 95.8 21.4 17.2 40.6 44.2 60 64.1 2.5 5 .4 11.8 1.3 17.2 7 2.2 14.7 3.2 20.9 7.6 28.1 35.2 54.5 71.7 80.4 108.6 3.2 38.5 4.8 77.6 9.7 116.3 3.5 27.5 7.5 51.9 15.6 78.4 1.8 5.9 6.7 15.1 7.2 20.8s-3.3 15.2-1.8 19.8c1.1 3.3 10.8.8 13.7 1.8 11.1 29.6 25.4 58.1 41 85.5 3.1 5.5 9.6 13.2 11.7 18.3 1.9 4.7 3.5 20.4 2 25-12 13.8-21.3 38.6-35.9 49.1-5.5 3.9-12.2 6.2-17.5 10h-1v-2c2.9-4.8 7.7-9.1 10.8-13.7 9.7-14.4 18.5-34 16.1-51.8-.7-5.3-13.2-37.8-16-44-2.3-5-6.5-10-9-15-6.6-12.6-12.8-25.4-19.8-37.7l-7.9 5.1c-1.1 1.5 6.4 9.4 5.8 13.2-.3 1.7-7.3 10.5-8.9 11.2-6 2.7-7.8-11.7-9-12.5-1.4-1-12.8 7.4-13.5 9-1.7 3.7 8 13.6 7.6 18.3-2.6 1.2-10.6 9.9-12.5 9.6-3.3-.5-7.2-15.8-8.7-16.8-2-1.2-10.3 4.1-10.8 5.5-1 3.2 16.7 38.7 19.7 44 4.7 8.1 30.5 41.7 31.1 45.9.9 6.1 2 18.7 2.1 24.9s-4.7 9.9-9.1 14c-2.5 2.3-15.2 12.6-17.5 13.5-1.9.7-1.7-1-1.3-2.3 4.5-15.6 5.7-18.9 1.9-35.3-4.6-20.5-14.9-41.8-24.6-60.4-7.4-14.2-18-35.5-26.7-48.3-.5-.8-1.5-2.4-2.3-2.5l-6.4 4.4c-.6 2.5 7.8 9 6.8 12.7-.2.9-11.6 12.3-12.4 12.7-1.7.7-1.3-.7-1.7-1.2-1.7-2.4-7.4-13.3-9.3-13.7l-12.3 9.5c0 1.3 10.5 13 10.8 16.2.1 1.6-9.4 10.9-11.5 11.1-5.5.5-10.5-13.5-12.5-14.7-2.2-1.3-12.5 9.4-12.6 10.4-.3 3.6 12.2 14.7 8.8 19.1-.7 1-11.8 9.5-12.6 9.5-3.5 0-7.2-13.5-11.5-14.7-3.4-1-12.3 8-11.6 11.6.5 2.5 6.1 13.9 7.7 16.3 4 5.9 20.6 19.7 26.8 25.2 12.5 11 56.2 47.9 70.5 49.5 12.6 1.4 33.2-4.1 45.5-8ZM659 395c1.4-.3 1.6.2 2.5 1 2.9 2.5 10.6 15.3 13.2 15.9 1.8.5 10.5-7 10.2-8.3-24.3-25.1-52-47.5-80.6-67.5-47.7-33.2-104-67.4-155.3-94.7-38.6-20.6-78.3-39.9-120-53.5-3 38.2.9 78.6 8.3 116.2 3.8 19.1 12.7 27.5 19.5 44.5 13.1 33 21.4 79.3 23.3 114.7.5 8.6-.6 17.5 0 26.1 1.6 26.2 12.7 54.1 19 79.5 2.1-1.9 12.5-11 12.8-12.6.7-3.5-7.1-7.5-3.9-12.9.8-1.3 10.6-10.7 11.5-10.5 1.9 1 5.1 9.6 5.6 10 .4.3 1.7 0 2.3-.1 1-.3 13.8-11.6 15.7-13.3 9.6-9 2.1-7.2-.6-15.5-1.4-4.4 8.9-10.2 12-13l8.2 10.9c2.5-1.5 15.5-11.3 15.1-13.1-.9-3.1-7.4-9.7-6.7-13.3 3.2-.9 9.8-10.2 11.6-10.6 2.3-.5 7.5 10.7 8.5 13l12.8-8.2c-2.4-68.9-41.9-135-94.9-177.2-10.7-8.5-22.5-15.3-33.4-23.6l-22.5-39c3.2-2.9 26 18.3 29.7 20.8 7.1 4.8 15.5 7.3 22.3 12.7 40.8 40.7 81.6 73.9 109.2 125.8 4.4 8.2 19.1 37.7 19.8 45.3s-6.9 34.8-8 45.9c-.5 4.9-1.6 14.6-1 19 .2 1.5 0 2.5 1.6 3.4 3.7-3.2 24.5-12.5 26-15 1.7-2.6-8.9-12.9-7.5-14.9l15.4-8.1 7.6 13c1.4 1 23-13.9 26.5-15.9 1-1.6-6.9-10.8-6.4-13.4.3-1.8 11.2-8 13.2-9.6l8.2 12c2 .3 17.8-10.2 17.4-12.4-.4-2-9.2-9.6-8.8-12 .2-.9 11.5-10.8 12.3-10.6 2.8 1.7 8.6 13 11.1 13 7.6-4.1 14-10 20.5-15.5l-12.9-15.1c-.3-1.7 9.9-10.1 10-13.4Zm151 369c1.1.8 7.8-10.4 7.8-12.3-6.1-15.8-17-31.4-19.7-48.3-3.6-23.2-3-47.6-5.1-70.9-1.9-21.3-4.7-42.7-7-64-2-18.8-1.7-40.1-12.6-56.4-13.5-20.1-34.8-45.3-50.5-64.5-7-8.6-14.5-16.9-21.4-25.6-4.1-2.8-9.4 5.1-13.1 7-1 2.1 8.7 10.2 8.5 13.4-2.4 1.4-11.8 11-13.9 9.6-.1-.1-.5-2.3-1.2-3.3-2.4-3.2-5.2-6.2-7.4-9.7l-22.5 16 9 15.4c-2.4 1.2-11.1 9.2-12.6 9.5-2.4.6-7.3-12.3-10-13.9-2.8 1.8-18.5 10.8-18 13 .6 2.4 8.7 13.2 7.5 14.9-3 .4-14 9.4-15.9 8-.7-2.5-6.4-14.2-8.4-13.9l-25.7 14.9c-.7.9 6.7 11.4 6.9 13.7.2 2-12.5 9.1-15.2 8.2-2.5-.8-4.6-10-7.2-11.9l-36 22c-1 1.7-.7 10.9-.5 13.5 1.7 25.2 25.4 94.1 47.7 107.3 7.9 4.7 15.7 4.1 19.5-5.1s5.4-24.4 8.3-34.7c1.8-6.4 9-30.9 12-35 2.3-3.1 13.2-9.4 17.2-11.8 12.5-7.8 25.9-15 39.3-21.2 1 1.1-9.1 24.9-9.8 28.7-3 17.6 8 69.1 14.8 86.8 6.8 17.9 15.5 25 25.5 39.5 21.7 31.6 40.5 66.1 58.7 99.9 1.1.8 10.8-3.8 11.5-4.9 2.1-3.3-5.9-11.1-5.4-13.4.2-1.1 12.4-10.6 13.8-9.6.6.4 4.3 11.7 6.5 12.9 2-2.8 10.6-7.8 12-10 2.5-3.9-5.8-11.2-6.4-15.4 11.1-10.2 11.5-16.9 18.9 1.4Zm-261.3-79.7c-1-1-3-1-4.2-2.3-2.4-2.7-9.6-43.6-11.6-51.4-7.5-29.1-17-55.5-33.3-80.7-1.7-2.6-9-11.1-8.5-13.2.5-1.7 5-4.9 4.9-8.2 0-1.1-5-8.6-6-9.1-1.5-.8-14.9 8.4-15.1 9.2-.9 4.4 10.4 14.6 9.1 16.3-3.2-.1-14.8 9.8-16 9-1-2.1-7.7-13.3-9.5-13-2.6 3.6-21.8 16.3-22.5 18.6-1.2 4 8.7 11.8 6.5 15.3-.4.7-11.2 10.1-11.9 10-2.9-1.4-7.2-12.4-10-11.9-1.1.2-14.6 13.7-14.7 16.4 10.5 33 27.8 63.2 47.7 91.4 17.3 24.6 39 51.5 61.4 71.6 32.7 29.4 75.5 45.7 111.6 70.4 4.5 7.2 4.1 14.9 7.4 22.6 3 6.8 8.6 13.3 11.1 20.4 1.6 1.1 11.5-6.1 11.9-7.6.9-3.5-8.9-10.4-5.9-13.8.7-.8 13.6-8.7 14.4-8.6 1.8 1.7 5.1 8.7 6.6 9.6 2.5 1.6 10.2-6.9 13.1-8.2.6-3.9-8.4-9.1-5.1-12.9.7-.7 11-8.3 11.7-8.4 3.2-.5 5.7 8.5 8.8 8.9.7 0 10.7-7.5 11.1-8.1 2.2-3.5-6.4-8.3-5.4-12.3.2-.7 10.1-9.9 10.9-10.3 3.5-1.8 8.3 10.2 10.5 10.4 1.1 0 8.7-5.3 8.1-7.8-1.4-5.5-14.2-23.2-18.2-28.9-16.3-23-35.6-43.7-53.6-65.4-1.2-23.1-5.1-49.1-14.6-70.4-7.4-16.6-14.9-16.2-25.6-2.2-18.5 24.1-18.3 56.3-8.1 83.9 2.8 7.6 7.3 14.6 10.5 22-1.1 1-13.5-5.7-15.7-6.8-22.8-12.2-43.5-26.7-61.6-44.9Z" class="outline" data-original-prefix="outline"/>
    </g><g class="trait-group" data-category="head" id="head-ace-helmet">
      <path id="fill-head-helmet-main" fill="#ffffff" d="m640.8 1253.3-57.5 3.7c-3.4-.9-10.9-.2-15.5-1.2-14.7-3.5-12.5-10.9-17.7-21.3s-10.2-9.6-9.1-18c1.9-14.8 25.5-35.1 34.5-47.5s7.9-24.7 9.7-38.3c5.8-44.9 2.6-90.7 8-136C608.4 866.8 689.1 763 804.5 709c104.3-48.8 249.8-57.2 359.3-23.5 36.9 11.4 71.7 27.2 104.7 47.8 62.2 38.8 101.1 79 134.5 143.5 16.8 32.4 18.9 61 24 97 1.1 7.4.2 20.6 4.6 26.4 1.9 2.6 5.2 3.8 7 6 4.3 5.3 5.2 14.7 5.6 21.4.2 4 .6 14.2-.5 17.6-2.2 7.1-13.7 4.8-14.6 12.4l4.3 29.8c2.4 11.2 3.8 18.5 12.8 26.2 15.8 13.5 31.4 12.1 41.1 33.9 4.7 10.5 5.3 18.7-.3 29-9.6 17.6-29.9 16.1-47.3 16.7-10 .3-25-1.6-34.1 0l-51.2.3c-35.5-2.2-71.2-1.2-106.8-2.2-22.5-.6-40.2-4-63 0-6.6 1.1-15.8-2.2-24-2-40.3 1.2-80.7 6.3-121 10-16.3 1.5-29.9 1.3-46.7 4.3-65.9 11.6-132.7 18-199.2 26.8l-152.8 23.2v-.2Z" class="fill" data-original-prefix="fill"/><path id="outline-card1" fill="#000000" d="M1354.8 894.4c-4-1-17.2-6-25.9-9.3-4.1-1.6-7.4-2.8-8.8-3.3-3.2-.9-20.4-7.7-35.6-13.8-13.1-5.2-25.5-10.1-28.5-11-2.1-.7-4.2-1.8-6.4-3-2.3-1.2-4.7-2.5-7.2-3.3-3.5-1.1-7.5-.6-10.8 1.2-3.2 1.8-5.6 4.8-6.5 8.1-.7 2.2-1.3 4.2-1.8 6.2-1.9 6.6-3.5 11.7-5.9 18.3-2.1 5.8-9.9 25.2-17.5 43.9-5.5 13.6-10.6 26.4-13.5 33.7v.2c-3.1 10.7-7.9 23.1-13.1 34.1-2.6 6.6-4.9 13.6-7.2 20.4-3.4 10.3-7 21-11.5 29.9-1.4 3.4-2.8 6.1-4 8.4-2.3 4.6-4.4 8.6-5.6 14.4v.3c-.6 9 4.6 14.6 15.5 16.8 6.1 1.9 30.9 11.3 52.8 19.6 19 7.2 37 14 41.5 15.5.9.3 3.2 1.2 5.8 2.3 5.5 2.2 12.4 5 15.3 5.7 1 .2 2 .3 2.9.3s1.8 0 2.6-.2l4.5-1.8c3.5-2.2 6-6 7.2-11.2 3.1-10.9 8.6-23.3 13.4-34.3 2.1-4.8 4.1-9.3 5.6-13 9.1-23 34.4-89.4 39.6-106.4.8-2.4 1.3-4.1 1.7-5.7.7-2.3 1.2-4.1 2.3-7.1 2.2-6.5 5.3-13.1 8.4-19.4 2.6-5.3 5.2-10.8 7.3-16.4v-.3c3.2-15.4-11.5-18.5-16.3-19.5l-.2-.3z" class="outline" data-original-prefix="outline"/><path id="fill-head-card1" fill="#ffffff" d="M1349.8 899.1c3.4 1.3 7.1 1.7 10.3 3.5 3.8 2.2 4.6 7 2.9 10.8-2.7 6.4-5.9 12.8-8.8 19.1-5.7 11.9-8.9 24.3-13.3 36.6-2.1 5.5-24.8 63.9-33.1 88.1-6.8 19.6-17.4 37.6-22.7 57.6-1.1 4.7-6 8.4-10.8 6.3-2.8-1.1-5.5-2.9-8.3-4-7.1-2.5-95.3-35.6-106-38.6-16-3.5-8.3-13.2-3.8-23.3 8.3-17.1 14.2-36.7 21.1-54.6 3-7.6 6.5-15 9.4-22.7 3.3-9.1 6-18.3 10.1-27.2 6.6-13.5 28.8-71.7 32.8-87.5 2.1-8.4 8.7-9 15.4-4.7 3.6 2 7.8 3.9 11.8 4.9 0 0 86.7 33.3 93 35.6Z" class="fill" data-original-prefix="fill"/><path id="outline-head-card8" fill="#000000" d="M1228.4 897.5h1.2c1.1 0 2.4-1.2 2.9-2.1 0-.2.2 0 .2 0 0 .5.4 1.1.5 1.7.2.8.3 1.3.5 1.6.8 1.2 1.8 1.6 3.2 1.2 1.9-.6 2.8-2.7 2.4-4.6 0-.7-.3-1.2-.3-1.5-1.1-3.8-1.8-5.9-2.1-8.8h-.3c-1.1.9-2 1.7-2.7 2.2-1.4.9-3.3 2.1-5.7 3.7-.7.5-2.1 1.7-2.1 2.7 0 1.9.4 3.3 2.4 3.8v.2Z" class="outline" data-original-prefix="outline"/><path id="outline-head-card7" fill="#000000" d="M1232.5 896.8h-.2c-.9 1.2-1.8 2.4-3.3 3.1q-.75.3 0 .6c1.1.3 2.4.8 3.7 1.4.2 0 .3 0 .2-.2-.3-.9-.7-1.6-.6-2.6v-2.2h.2Z" class="outline" data-original-prefix="outline"/><path id="outline-head-card6" fill="#000000" d="M1243.6 885.3c-.4-.4-.4-2-.4-2.5q.45-8.7.6-16.8c0-.5 0-1-.2-1.5h-.3c-.2.2-.9 1-2.1 2.5-3.3 4.1-5.3 6.4-5.7 7.1 0 0-.6.7-1.7 2.1-.9 1.1-1.8 2.4-2.9 3.5s-1.1.6-1.8.7c-.7 0-.6 1.1 0 1.3 1.6.5 3.2 1.2 4.8 1.8h.2c.2 0 .3-.3.5-.7v-.2c-.8-.7-1.4-1.7-.5-2.7.2-.2.5-.4.7-.7q.3-.6.9-1.2l4.8 1.9v.2c0 .6 0 1.1-.2 1.7-.2 1.1.4 1.9-1.2 2.1-.5 0-.9.6-1 1 0 0 0 .3.2.3 1.2.5 2.5 1 4 1.5.5.2 1.3.8 1.8.3s0-1.1-.5-1.5h-.2zm-3.1-8.1-3.1-1.2v-.2l3.3-4.1h.2l-.2 5.5s0 .2-.2.2z" class="outline" data-original-prefix="outline"/><path id="outline-head-card5" fill="#000000" d="M1286.6 1080.4h-1.2c-1.1 0-2.4 1.2-2.9 2.1 0 .2-.2 0-.2 0 0-.5-.4-1.1-.5-1.7-.2-.8-.3-1.3-.5-1.6-.8-1.2-1.8-1.6-3.2-1.2-1.9.6-2.8 2.7-2.4 4.6 0 .7.3 1.2.3 1.5 1.1 3.8 1.8 5.9 2.1 8.8h.3c1.1-.9 2-1.7 2.7-2.2 1.4-.9 3.3-2.1 5.7-3.7.7-.5 2.1-1.7 2.1-2.7 0-1.9-.4-3.3-2.4-3.8v-.2Z" class="outline" data-original-prefix="outline"/><path id="outline-head-card4" fill="#000000" d="M1282.5 1081.1h.2c.9-1.2 1.8-2.4 3.3-3.1q.75-.3 0-.6c-1.1-.3-2.4-.8-3.7-1.4-.2 0-.3 0-.2.2.3.9.7 1.6.6 2.6v2.2h-.2z" class="outline" data-original-prefix="outline"/><path id="outline-head-card3" fill="#000000" d="M1271.4 1092.5c.4.4.4 2 .4 2.5q-.45 8.7-.6 16.8c0 .5 0 1 .2 1.5h.3c.2-.2.9-1 2.1-2.5 3.3-4.1 5.3-6.4 5.7-7.1 0 0 .6-.7 1.7-2.1.9-1.1 1.8-2.4 2.9-3.5s1.1-.6 1.8-.7c.7 0 .6-1.1 0-1.3-1.6-.5-3.2-1.2-4.8-1.8h-.2c-.2 0-.3.3-.5.7v.2c.8.7 1.4 1.7.5 2.7-.2.2-.5.4-.7.7q-.3.6-.9 1.2l-4.8-1.9v-.2c0-.6 0-1.1.2-1.7.2-1.1-.4-1.9 1.2-2.1.5 0 .9-.6 1-1 0 0 0-.3-.2-.3-1.2-.5-2.5-1-4-1.5-.5-.2-1.3-.8-1.8-.3s0 1.1.5 1.5h.2zm3.1 8.1 3.1 1.2v.2l-3.3 4.1h-.2l.2-5.5s0-.2.2-.2z" class="outline" data-original-prefix="outline"/><path id="outline-head-card2" fill="#000000" d="M1296.5 983.9c-2.9-12.2-5.9-17.5-13.5-52.6-27.2 19.9-41.8 25.8-50 30.7-16.2 9.3-46.3 27.5-37.7 50.1 13.9 21.3 42.1 9.8 55-.3-12.1 29.6-26.3 40.8-34.5 43.7-.6.2 9 4.2 15.6 10.6 8.3-1.7 19.2 2.2 18.9 1.6-4.2-7.8-5.3-29.3 3.4-54 2.3 19.7 31.8 45.5 47.3 28.3 12.2-10.7 1.3-42.5-4.5-58.1" class="outline" data-original-prefix="outline"/><path id="outline-head-card1-2" fill="#000000" d="M1305.4 1050.7c15.2-13.7 10.3-39.1 5.4-56.9-4.7-17.9-11.7-33.9-17.4-51.4-9.8-32.9 4.4-37.5-13.3-20.2-7.8 6.9-17.4 12.5-27.3 17.9-9.9 6-16.6 9.4-26.9 15.7-20.2 12-49.8 30.5-38.5 58.7 8.7 20.1 35.4 22.8 51.3 9.9-6.9 15.5-26.7 25.3-37 29.2-1.5.6-1.4 2.7 0 3.2 10.7 3.3 20.8 8.4 26.4 18.5 10.6-5.1 24.7-.3 31.3 2.6s3.1-1 2.3-2.5c-5.5-9.7-11.8-30-6.7-45.8 3.3 24.6 31.1 37.1 50.3 21.1Zm-51-31.6c-10.8 22.1 0 51.6-.3 52.6-4.5-1-12.7-4.1-23.4-2.3-7.3-8-16.3-12.1-20.2-14.2 3.3-1.4 24.3-7.8 35.8-39.3-17.4 16.8-43.1 12.9-52.7-1.3s-4.9-32.2 34.3-54.5c17-9.7 48.7-27.1 57-36 .6 13 17 56.6 20.5 68.5 11.2 38.3.5 56.4-14 59.2-14.6 2.8-33-9.8-36.9-32.8v.1Z" class="outline" data-original-prefix="outline"/><path id="fill-head-strap1" fill="#ffffff" d="M1393.2 1535.3c-.8-1.3-5.2-2.1-8.7-2.6l14.1-340.4-37-2-4.6 341.3c-2.2 0-4.3 0-6.4-.3l-3 42 3.5.5c0 16.8-10.7 235.4-12.6 250.7-2.4 0-6.1.3-8.5.6l-9.4 49.4 48.4 6.1 2.5-48.7c-1.9-.5-2.8-.4-4.7-.9l14.7-255.6 9.1.9c-1.6-6 4.2-38.3 2.6-41" class="fill" data-original-prefix="fill"/><path id="fill-head-strap5" fill="#ffffff" d="M763.9 1033.1c3.8 10.1 9 19.8 12.5 30 .9 2.6 3.9 11.1 3.1 12.9-1.5 3.5-41.5 17.7-47.5 21-.4-11.2-7.1-19.6-11-29.5-.9-2.4-4.4-10.9-3.5-12.5.4-.8 13.2-8.7 15.2-9.8 9.8-5.5 20.2-10 31.2-12.1" class="fill" data-original-prefix="fill"/><path id="fill-head-strap4" fill="#ffffff" d="M622.4 1822.4c-.3-10-7.8-464.7-4.8-500.7 1.8-21.9 5.4-43.7 7.3-65.6h-26.8c-8.9 49.6-13.9 101-15.5 151.3-3.5 111.6 3.9 385 3.5 408.1l-6.4.6c-.9 4.6-3.5 72.7-.2 75 1.3.9 49.6 1 52.5 1l-4.5-68.9-5.3-.8z" class="fill" data-original-prefix="fill"/><path id="fill-head-strap3" fill="#ffffff" d="M1437.7 1029.9c-3.9-52-198.9-3.7-244.1-15.3-29.2-12.2-20.3-22.7-60.3-23.2-109.3-1.5-250.9-1.7-353.7 32.6l20.4 53.9c134.2-69.8 288.3-27 430.8-23.6 37.3-7.8 200.4 6.6 206.9-24.4" class="fill" data-original-prefix="fill"/><path id="fill-head-strap2" fill="#ffffff" d="M603 1097c3.3-.9 82.6-32.6 91.6-35.8 3.8 7.5 23.8 41.9 22.7 43.4-5.5 1.2-114.3 38.4-119.9 40.8 1.2-10.2 5.5-48.3 5.5-48.3h.1Z" class="fill" data-original-prefix="fill"/><path id="fill-head-strap1-2" fill="#ffffff" d="M730.7 1111.9c-3.4 17-10.9 134.5-15.3 135.8-11.1 3.5-41.7 4.9-53.4 8.4 4.2-40.9 16.3-91.6 24.6-131.8 3.7-7.1 44.1-12.4 44.1-12.4" class="fill" data-original-prefix="fill"/><path id="shading-head2" fill="#aaaaaa" d="M632 1892c-11.5-1.4-9.3-12.6-11.5-21-2.5-10-6.2-21.9-13.5-29.4-1.8-1.9-8.6-6.5-10.8-7.4-8.5-3.5-27.6-2.3-19.4-17.8 1.7-3.2 9-14.5 11.2-16.8 3.5-3.6 9.9-8.2 13.8-11.2 5.1-3.9 7.5-9.2 8.2-15.8 1.6-14.6-.7-36.5-1-52.1-.9-49.9-2.2-100.1-3.1-149.9-.6-36.1 2.1-77.7-1-113-.6-7.2-4.9-26.7-7.8-33.2-3.5-7.9-17-18.7-17.2-26.8 6-45.8 12.3-91.5 11.1-137.9 1.4-7.3 22.8-6.5 28.3-5.3 8.1 1.8 3.8 12.6 3.7 18.2-3.3 141.5 0 282.7 2.1 424 .5 33.9.6 67.2 0 101 0 5.2-1.5 9.7.5 15.5 1.3 3.8 6.7 5.9 7.4 10.6 2.2 13.6-1.3 32.6 1.1 47l-2 21.5v-.2Z" class="outline shading" data-original-prefix="shading" opacity="0.5" style="opacity: 0.5"/><path id="shading-head2-2" fill="#aaaaaa" d="M1478.9 1163.6c-1-5-11.9-27.9-15-33-7.7-12.7-22-24.1-29.6-36.4-4.2-6.9-13.6-35-18.4-37.6-1.5-.8-4.6-1.3-6.4-1.6-27.9-5.3-59.7-5.7-87.8-10.2s-58.4-4.1-87.1-4.9c-27.4-.7-49.8 4.5-72.6-14.4-3.2-2.5-5.9-6.5-9.1-8.9-4.6-3.4-11.3-4.8-15.4-8.6-5.3-4.9-9.7-13.7-8.5-21l.2-.4h31.5c3.4 0 21.7 18 30 19l216.8-.2c2-.6 10.6-14 10.6-16.3-1.8-8.5-5.8-71-8.8-73.1-1.2-.8-12.5-.8-13.2.2-1.9 2.8-.6 22.8-.8 28-.2 4-.7 9.7-1.2 13.8-.4 3.6-3 8.8-5.8 11.2-6.2 5.2-24.3 8.6-37.4 13.3 1.6-3.5 6.6-21.5 7.8-27.8 1.2-6.1 3.5-13.6 6.1-19.1s7.5-15.2 6.2-21.4c-4.1-8-8.7-15.8-8-6.8 0 0-18.4 47.8-25.6 59.8-7.1 23.7-29.3 25.2-32 25.4-24.2 1.5-95.4 5.4-116.1-2.8-9-3.6-4.7-23.7-2.4-27.3-15.7-2.5-45.1-3-60.2-3.8-52-2.5-104.2-10.4-154.9-22.1-21-4.9-49.3-11.8-69.1-19.9-4-1.6-13.6-6.7-15.9-10.1-6.9-10-6.2-40.8-5.5-53.4.4-7.2 1.7-25.4 3.5-31.5 1.5-4.8 6.9-8.7 9.4-12.6 2-3.1 7-13.8.7-14.4-8.6-.8-9.1 8-12.5 13.3-7.3 11.4-15.9 22.5-26 31.4-.7.6-4.7 6-5.1 6.2-.9.4-2.3-1-2.7-.8-.2 0-1.1 2.7-2.5 4-10.1 9.7-35.1 26.4-47.3 32.9-9.3 4.9-21.2 8.5-31.7 8-5.4-.2-18-3.8-22.2-2.2s-28.3 18.6-32.8 22.3c-6.2 5.1-13.2 12.8-17.5 19.5l-10 10.5c.8-34 19.4-61.9 40-87.5 11-13.7 29.5-36.9 42.5-47.5 3.6-3 8.4-4.9 11.5-7.5 1.3-1.1 1.8-3.5 2-3.5.3-.2 2 1.3 2.7.8.8-.6 4-4.3 5.3-5.3 1-.6 2.9-.6 2.9-.6 1.9-2-1.7-4.7-5.2-3.8s-19.2 9.3-23.4 11.6c-91.7 49.9-126.6 153.8-141.2 250.8-.7 4.3-1.9 39.1-1.5 30.9 0-1 31.3 4 32.9 4 27.9 0 29.3 18.8 22.6 31.6-3.6 6.8-47.7 15.8-49.1 20.7-2.8 9.8-14.8 39.9-17.1 49.9 1.7 5.7-5.8 20.4-18.8 22.3-8.2 1.2-21.8.9-28.8 3.2-5.7 1.9-12.1 8.4-8.6 14.5 3.2 5.7 12.1 2.8 17.6 3.5l-2.3 20.1c3.6.2 79.6-10.2 85-7.9 5.8 0 10.7 13.9 16.1 13.7 12.7-.4 47.5-7.3 56.1-20 150.9-21.7 300.6-35.7 451.9-54.9l124 1c.5 1.6 27.5 4.4 59.4 6.5-.2.6-.3 1.3-.3 1.9 0 4.1 3.3 6.6 7 7 4.3.5 8.6.9 12.9 1.4.9 0 3.2 0 4 .4-.5 0 .3 3.3.3 3.2 1.2 7.8 0 16.5-.4 24.4-.6 17.2-1.6 34.4-2.5 51.5-5.9 80.3 6.7 170.4-15.5 243.2 27.3 13.8 18.6 15.2 16.9 44.2 1.6 10.1-6.1 7.6-12.6 11.2-1.8 30.4-3.2 70.9-5 105.9-5.5 44-3.7 89.8-11.8 133-6.5 4.5-3.3 17.3 5.7 15.8 1.9 9.1 7.1 26.7 1 35.3-11.9 1.5-21.4 19.1-3.1 16.9 42.3-15.1 3.5-61 13.5-89.7 8.3-83.5 5.5-168.9 27.8-244.3 4-15.7-1.8-29.2-14.9-37.7 18.9-74.1 5.3-156.8 12-233.9 1.2-21.1 2.3-42.3 2.9-63.4.2-7.8 1.2-17.8-3.8-24.4 28.4 1.3 55.1 1.8 65.9.3 12.5-2.2 20.1-12 17.7-24.8v-.2zm-779.4 49.3c5 26.2-18 23.4-21 27.7-1.4 1.8-19.3-9.1-9-21.6s-8.1-9-7.5-11.3l14.8-68c.7-1 37.6-11.6 38.6-10.6v13.5zm529-135.9c23.4.6 49.6 1 67.9 14l-1.8 5.5c-2.3 6.9-4 14.6-7.5 21-1 1.8-2.4 4.3-4.6 4.8-3.2.6-9.3-2.7-12.2-3.7-8.3-2.9-16.5-5.8-24.8-8.8-27.9-10.1-62.2-20.7-89.6-31.9 22.3.6 60.3-1.1 72.6-.9m-403-72c34.7-6.2 70.3-8.6 105-15 62-1.7 124.5-1 186.5-3-.7 4.9 1.1 10.9 1.1 14.5s-1.1 4.9-1.1 11 4.2 9.5-5.7 11.2c-5.7 1-9.6-.8-14.7-.8-22.7-.3-45.5 0-68 0-57.9.2-112.1 5.5-168.5 16.6-3.5.7-45.7 10.7-48.6 10.7-7.5-.2-7.3-16.1-10-21-2.1-3.8-8-6-10.4-9.6-1.7-2.5 30.6-14 34.5-14.7v.1Zm-97.6 103.6-20.8-60.9 67.3-30.6L800 1086l-69.3 25.9-2.7-3.3Zm297.6 38.5c-95.9 8.8-191.9 17.4-287.5 29l2.6-14.1c2.8-2 4.1 1.1 6.6.9s7.4-2.9 10.5-3.6c18.5-4.1 35.1-7.4 53.5-12.3 24.2-6.4 48-14.9 70.1-29.1 13.5-8.7 34.4-30.9 49.3-33.7 7.9-1.5 16-2.7 24-4 12.7-2.1 28.9-2.6 40.7-5.2 20.6-4.5 46.1-4.8 68.2-5.9 11.9-.6 57.7-3.5 66.2-.3 2.7 1 14.3 4.8 17.5 6.5-.3.5-.9 2-1.1 2.5-1.2 4 5.3 7.7 8.8 9.1 36.2 15.2 62.1 24.1 99.1 37.3 8.6 3.1 16.9 6.9 26 8 7.8 1 11 0 15.2-6.3 4.5-6.9 6.5-16.3 9-24 2.5-7.4 5.3-15.7 7.8-23.1 30 1.7 77.3 7.2 97.4 18.3 7.5 4.1 24.4 25.1 30.2 32.8.8 1 2 1.3 1.5 3-8.4.3-17-.3-25.5 0-130 4.5-260 6.3-389.9 14.1h-.2ZM1465 1175c-.8 1-16.9 3.7-19.5 3.9-38.9 3-83.1 1.3-122-2-1.7-.2-10-.8-10.4-1.1-.3-.3-.3-3-1-4.2-1.9-3-8.8-3.9-12.1-4.1l-30.9-8.5c8.1-.3 16.3.3 24.5 0 9.5-.3 20.4-1.9 29.9-2.1 40.5-.9 76.7 1.7 116.1 6 4.7.5 11.1-.3 15.7 1.3 1.5.6 10.6 9.6 9.7 10.8" class="outline shading" data-original-prefix="shading" opacity="0.5" style="opacity: 0.5"/><path id="outline-head-helmet-main" fill="#000000" d="M1490.6 1140.1c-11-19.9-26.3-18.9-41.4-31.7-12.2-10.4-9.9-35-14.1-49.7 6.2-4 13-4.7 14.8-13.4.9-4.6-.2-25.5-.9-30.7-.9-6.4-6.1-15.1-12.4-17.6-7.7-24.1-7.2-51.2-11.8-76.2-8-43.8-52.3-110.7-84.7-141.3C1231.6 677 1080 645.6 934.6 665c-198.5 26.5-342.2 165.6-350.5 369.5-1.5 35.4 2.2 86.5-8.1 119.9-6.6 21.7-39 39.3-40.8 63.2-.8 10.2 4.9 10.8 8.7 18 2.9 5.5 4.7 14.8 9.1 19.7 1 1.2 12 6.4 13.5 6.7h.5c4.4.8 10.8-.6 15.5 0-1.1 12.9-3.5 25.6-5 38.5-13.5 119.1-7.5 243.9-6 364 .4 34 .5 68 .9 102.1 0 13.3 2.5 27.6 1.1 41-.7 6.2-6 7.8-6 15.8-.2 18.1 0 37.9.8 56.1 0 3.8.5 12.8 1.2 15.8 1.7 8 11.6 8.4 18.2 8.8 9.4.6 21.7.4 31.1 0 3.8 0 12.8-.5 15.8-1.2 5.4-1.2 9.2-8.2 9.7-13.3 1.8-18.1 2.6-47 1-65-.2-1.9-.8-7.1-1.5-8.5-1.8-4-8.7-2.5-8.5-7.5-1.7-119.3-2.9-238.7-4-358-.5-54.1-1.8-104.2 3-158.1.4-4.8 1.7-31.6 2.9-33.1 1.2-1.2 2.8-1.2 4.3-1.7 7.8-2.4-.6-.3 10-2.2 0 0 9.9 11.5 18.3 10.2 9.4-1.5 44.9-10.3 54.3-12.1s2.6-11.7 4.2-11.9c70.7-10.3 147.8-17.8 218.4-26.8 80.3-10.2 151.3-21.2 233.2-20.9 53.5.2 114.6-1.3 167.1 5 2.4.3 5.3-2.2 6.2.7 0 0 2.5 230.9-2.9 307.9-.8 11.2-.9 7-8.2 9.8s-5.1 8.9-6.8 15.2l-2 50c1.1 5.8 8.1 2.1 8.1 13-.2 17.1-3.1 35.8-4.1 53-2.2 36.7-4.6 73.4-7 110-1.2 17.6-1.3 35.2-3.2 52.8-.7 2.3-5 1.9-6.8 3.2-2.4 1.8-3.6 16.1-4 20-1.2 10.4-3.7 30.3-3.1 40 .2 2.6.4 6 3.6 6.4 17 .7 34.1 4.3 51 5 7.5.3 10.7 1.6 12.4-6.6 2.3-11.2 5.2-38.1 5.2-47.9s-3.2-9.5-5.8-15.3c-2.8-6.2.3-20.4.7-27.7 2.3-44.1 5.2-88 8-132 1.2-19.2 1-38.8 3-58 1.2-10.8 8.3-3.4 12.8-11.2l5.3-58.8c.2-9.7-7.5-7.9-12.5-11.3-2.5-1.7 1.2-25.1 1.4-29.6 2.5-56.7.2-235.9 8.9-288.6l56.5-1c28.7-4.8 41.1-32.3 26.9-57.9m-60-110.3c1.6 12.3-4.8 7.6-14.2 8.3-62.1 4.2-126.7 6.2-189.1 7.9-16.9.5-34.8 2.5-51.8.9-15.9-1.5-13-6.4-23.1-13.9-6.9-5.2-12.1-4.7-20-6-.6-7.8-3.3-17.9-3.5-25.5 0-1.7-.4-4.7 1.7-5.4.7-.2 12.3.8 13.8 1 16.3 2.5 33.2 21.5 45.1 22.9 32.2 3.7 73.2-3 106-3 39.5 3.2 85-6.5 123.9-1.8 8.3 1 10.3 6.8 11.3 14.6zM682 829.5c78.7-93.9 189.1-138.3 310.5-144.5 139.8-7.1 298.2 48.8 374.9 171.1 27.3 43.5 38.5 89.7 41.6 140.9v-.2c-34.8 1.9-69.7.6-104.6 1-29.4.4-59.5 1.5-88.9 2.1-8.2.2-19.7 1.3-26.8-2.2-11.1-5.4-18.6-16.7-32.2-17.8-17.5-1.3-35.5 1.7-53 2.1-32 .8-64.2 1.3-96 2-48.7 1.1-96.6-1.3-144.9 6.1-39.6 6.1-79.9 16.2-116.7 31.8l-2-30.5c.5-30-2.5-59.8-5.5-89.5 4.4-4.5 9.1-11.5 13.5-15.6 7.1-6.7 19.9-15.9 28.1-21.9 35.3-25.8 74.7-44.8 113.5-64.5-9.2 17.5-21.2 33.8-30.7 51.3-7.3 13.4-13 27.5-19.8 41.2-.7 2.3 2.4 1.7 3.7 1.2 7.7-7.5 17.1-13.9 24.2-22.2 9.3-11 14.7-24.7 22.2-36.8 13.7-22 34-46.3 51.8-65.2 3.6-3.9 9.9-6.4 11-12.5-1.7-1.5-18.6 6.6-21.8 7.7-44 15.8-85.3 32.8-125.8 56.2-34.3 19.8-65.7 44.4-97.1 68.4l1.9 23.2c9 35.6 8.2 70.9 8.8 107.2 0 3.2 2.8 10.2-.6 12.5-1.9 1.2-6.8 2-9.5 3.2-5.5 2.4-12.5 5.3-18.6 9-1.6.7-3.1 1.5-4.7 2.3-10.3 5-20.4 10.1-30.5 15.4-6.7 3.5-13.3 7-19.9 10.6-6 1.9-12 3.8-17.9 5.6-4.4 1.1-8.8 2.3-12.9 4 4.2-101.3 6.3-170.9 74.9-252.7zm433.1 200.5c-45.5 1.2-91.2-1.5-136.6 0-38.4 1.2-74.9 5.9-111.7 16.3-20.5 5.8-41.1 13-60.3 21.7l-15.5-39.5c25.6-10.1 54.3-15.6 81.6-19.4 79.6-11.1 160.3-3.3 240.4-7.1l2 28Zm-335.6 46c-1.5 3.4-41.5 17.7-47.5 21-.4-11.2-7.1-19.7-11-29.5-.9-2.4-4.3-10.9-3.5-12.5s13.2-8.7 15.2-9.8c9.7-5.5 20.2-10 31.2-12.1 3.8 10.1 9 19.8 12.5 30 .9 2.6 3.9 11.1 3.1 12.9M607 1101.5c3.3-.9 6.6-1.8 9.8-2.9 13.1-1.6 24.8-7 36.5-12.9 8.7-4.4 30.7-14.7 39.7-17.9 3.8 7.5 18.7 31.1 17.6 32.6-5.5 1.2-27.7 3-31.5 6.5-3.5 1.5-7.1 3-10.7 4.4-6.2 1.5-12.4 3-18.5 4.6-10.2 2.7-20.3 6-30 10.1-5.6 2.3-11.2 4.6-16.8 7q1.8-15.3 3-30.9c.3-.2.7-.4 1-.6Zm18.8 725.6v56.8c-2.8 0-5.5 1-8.3 1.2-3.5.2-30.3-.6-31.6-1.5-3.4-2.3-1.7-39.5-1.9-46.1 0-4.3-1.8-8.9-1-13.5l43 3.1zM612 1427.4c1.5 40.5 1.1 81.6 2 122 2 83.8 2.8 167.3 5 251 0 3.4 2.2 6.7-.2 10.4-9-.8-18.7-.2-27.4-1.8-1.2-20.4 0-41.1-.4-61.6-2.3-111.4-4.5-224.3-1-335.9 1.6-50.3 4.7-101 13.6-150.6l15.4-.9c-1.9 21.9-7.2 43.6-9 65.5-3 35.9.7 66.7 2 101.9m33.4-195.4-70.4 10.9c.5-2.6-1.3-9.8 1.7-10.8l69.2-12c3.3-1-.5 11.9-.5 11.9m15.2-52.8c-1 4.1-4.4 19.9-5.9 22.1-3.2 4.7-24.2 7.7-30.4 8.6-16.4 2.4-33.4 2.6-49.8 5.2-3.4.5-18.2 6.8-14.1-2.1 1.3-2.8 9.3-13.4 11.7-16.4 5.5-7 24.7-23.7 26.4-30.6.9-5.7 1.7-3.3 2.4-8.8 6.7-2.4 13.1-4.6 19.8-7.2 8.1-3.1 16.3-5.7 24.6-8.1 8.6-2.4 17.3-5.6 26.1-7.6-3.9 17.6-6.7 27.4-10.8 44.8Zm60.2-17.9c-2.7 15.3-8 36.8-12.2 51.8-.9 3.2 2.3 18.5-.3 27.4-6.9 6.1-47.9 15.6-43.5 2.4 3.1-33.7 22.8-81.7 29.1-114.7 2.7-5.8 25.7-8.3 32.2-10.2-2.6 14.1-2.7 29.4-5.2 43.3ZM1366 1870l-38-4 3.9-38.6c12.2-1.6 24.3 1.9 36 4.7zm9.9-279-13 226c-3.7-1.6-18.2 0-19.6-1.9 1.3-12.3.9-25.2 1.6-37.6 2.8-51 6.3-102 10-153 .4-4.5.6-33 2.1-34.4l19 .9Zm15.1-15-43-3 3-42c9.9.6 20.7.2 30.5 1 2.6.2 11 1.2 12.1 3 1.6 2.6-4.2 35-2.6 41m-24-60 2-317h22l-10 317zm94.8-340.9c-5.3 3.3-27.5 2-35.1 2-85.5-.9-172.3-6.9-257.9-6-95.5 1-191.5 13.6-286 26-51.6 6.8-103.2 14.3-154.5 23l1-13 232-37c0-3 .5-3.2-2.5-3-67.8 5.1-135.8 12.5-202.9 23.2-8.6 1.3-14.1 3.6-22.7 4.8 1.5-7.2 10.2-49.1 10.9-63.6.2-5.2 1.1-12.1 2-17 29.2-11.2 57.6-24.5 87.2-34.8 56.1-19.5 96.7-26.6 156.3-28.7 43-1.5 97.6-4.3 139.9 0 11.9 1.3 11.3 7.5 17.5 14.5 7.8 8.8 19.5 4.7 29.4 4.5 79.3-1.3 158.4-7.2 237.6-10h.3l2 28.5c.8 22.8 16.2 38.2 32 52.5-32.1.5-64.3-.6-96.5 0-53.1.9-109.2 2.8-162 8-2.5.3-21.5-.4-20.5 4.5.6 2.5 11.8 1.3 14.5 1.5 81.2 5.4 167.8-.2 250 2 9.9.4 19.9 0 29.9 0 2.4 6.7 5.3 13.5-1.9 18.1" class="outline" data-original-prefix="outline"/>
    </g>
</svg>