<?xml version="1.0" encoding="UTF-8"?>
<svg xmlns="http://www.w3.org/2000/svg" viewBox="0 0 2048 2048">
  <style>
      .outline { fill: #000000; }
      .fill { fill: #FFFFFF; }
      .shading { fill: #aaaaaa; opacity: 0.5; }
    </style>
  <g class="trait-group" data-category="background" id="background-green">
      <path id="color-green" fill="#32992c" d="M2048 0v2048H0V0z" data-original-style="transition:fill .3s ease" style="fill: #32992c" class="color"/>
    </g><g class="trait-group" data-category="jaw" id="jaw-headphones">
      <!-- Generator: Adobe Illustrator 29.1.0, SVG Export Plug-In . SVG Version: 2.1.0 Build 142)  -->
  <defs>
    
  </defs>
  <path id="fill-jaw" class="fill" d="M1373,1278c10.5.4,29.1-5.9,35.2,5.3,10.7,19.6,15.9,50.4,25.7,71.3,3,11.9-8.8,18.7-13,27.9-.4.8-1.4,1.4-.5,2.6l79.1,40c2.3,3.8-3.6,14.2-1,19l36.2,79.6-11.5,32.7c5.5,8.9,13.4,16.8,17.8,26.1l-19.9,52.2,18.3,22.3v5l-61.4,99.3c-2.5,2.2-23.2-.7-28.1,1.2l-61.7,62.3c-16.4-2.9-31.7,11.1-47.8,14.2-20.1-2.5-44.6-14.1-64.1-15.9-10.5-1-30.4,5.3-39.3,2.3l-90-57.5,21.9-62.5c0-1.6-1.2-2-2.3-2.7-7.1-4.6-19-6.8-26.5-11.6l-4.2.3-89.9,35.1c-15.1,1.2-30.2,3.6-45.3,3.2l-100.2-35.8c-2,0-18,7.8-19.9,9.2-.9.7-1.7,1.1-1.7,2.4l16.9,58.3-.8,2.7-83,59.1c-5.8,1.8-14-4.8-20.5-3.6l-87,18.1c-2.7-.5-3.8-5.4-8-7-11.3-4.3-28.3-3.2-40-8l-58.5-66.5c-4.8-2.2-15.4,5.2-20.8,5.4l-69-103.7.3-3.2c2.8-4.1,19.4-20.2,19.5-23.5l-22-52.1c-.4-5.6,17.6-24.2,18-30,.3-5.4-11.4-19.6-9.8-26.7l40.1-104.5,64.6-33.4c1.9-3-12.3-33-10.7-39.1l34.7-65.1c10.3-3,21.4-3.8,32.1-5.7l-23.7-60.3c5.6-16,11.2-32,17-47.9,7.9-21.7,16.5-47.6,27.2-67.8,53.7-101.2,185.9-162.6,293.5-185.5,35.9-7.6,63.7-2.7,98.4,6.5,100.4,26.7,224,89.8,269.8,188.2,7.8,16.7,8.9,28,13.3,44.7,2,7.7,14.7,26.3,19.1,34.9,2,3.9,7.2,12.8,7.5,16.5.5,5.7-7.6,35.3-10,42-3.7,10.1-10.8,19.3-14,29.5v.2h0Z" fill="#ffffff"/>
  <path id="fill-jaw1" class="fill" d="M633.3,1439.3c-6.9,9.3-7.1,20.4-1.8,30.6,11.3,21.3,32.2,49,46.2,69.8,45.6,67.8,94.8,132.8,149.2,193.8,13.2,10.1,26.6-2.7,28.8-16.3,3.7-22.9-25.9-58.5-35.7-78.8-.8-4.2,2.4-17.5,4.7-21.2.5-.8.8-2.8,2.2-1.3.7.7,3.6,14.5,7.6,18.9,3,3.4,8.2,4.1,9.5,5.8,3.8,4.6,13.5,27,16.8,33.9,9,19.1,25.7,53.6,27.2,73.8.9,11.9-.8,14.4-8.1,23-14.7,17.3-47.5,38.8-70.5,40.5-10.1.8-13.3-3.5-20.5-9.5-62.4-51.2-122.3-130.8-164.4-199.6-24.2-39.6-64.6-113.9-68.5-159.6-.6-7.4-1.5-12.5,3.8-17.9,15-15.1,41-26.4,61.4-31.3,5.1,1.2,16.7,35.2,15.6,41.3-.5,3-2.7,2.6-3.7,3.9l.2.2Z" fill="#ffffff"/>
  <path id="fill-jaw2" class="fill" d="M1213.7,1635.7c5.1-5.1,6-14.3,8.8-20.7,4.6,6.1,6.2,14.9,6.3,22.3-9.9,20.1-39.1,55.6-36.8,78.2,1.2,11.9,10.8,24.5,24,21,5.4-1.4,17.2-16.5,21.5-21.5,66.6-77.1,124.4-160.8,179.7-246.3,3.9-7.6,3.9-17,.4-24.7-1.3-2.9-6.3-7-6.3-8.2,0-4.6,4-17.4,5.8-22.2,1.4-3.8,7.1-17.8,10.5-18.5,9-1.7,39.9,15,48.2,20.8,4.2,2.9,15.5,11,16.2,15.8,2.2,14.1-6.8,42.2-11.7,56.2-35.2,102.4-137.6,246-221.3,314.7-6.8,5.6-10.2,10-19.6,9.5-19.6-1-47.1-17.5-61.5-30.5-4-3.6-16.7-16.6-17.8-21.2-3.8-17.2,10.6-48.8,17.6-65,3.7-8.4,22.6-51,27.2-54.8,2.2-1.8,6.5-2.7,8.6-4.9h.2Z" fill="#ffffff"/>
  <path id="fill-jaw3" class="fill" d="M765,1818c-12.7,3.6-25.1,8.6-38,11.5-5.6,1.3-14,4.1-19,.9-64-61.2-119.5-138.6-156.9-219.1-10.1-21.7-30.2-68.4-26.7-91.4,2.5-16.7,12.8-35.6,17.6-51.9l12.2,36.2c40.7,100,105.4,197.4,177.2,277.8,8.7,9.8,26.1,24.2,32.5,33.5.6.8,1.4,1,1,2.5h.1Z" fill="#ffffff"/>
  <path id="fill-jaw4" class="fill" d="M1283,1818c-.4-1.5.4-1.7,1-2.5,6.5-9.3,23.8-23.7,32.5-33.5,71.9-80.4,136.5-177.8,177.2-277.8l12.2-36.2c4.7,16.4,15,35.2,17.6,51.9,3.5,23-16.6,69.7-26.7,91.4-37.4,80.5-92.9,157.9-156.9,219.1-4.9,3.1-13.4.3-19-.9-12.9-2.9-25.3-7.9-38-11.5h.1Z" fill="#ffffff"/>
  <path id="fill-jaw5" class="fill" d="M692.7,1454.6c.2,0,.6-3.3,2.3-1.6.7.7,2.8,16.2,3,18.5.8,11.3-2.3,39.3,1.5,47.6,1,2.3,9.7,13.2,11.6,14.3,5.2,3,7.5.4,12.4.6,35,1.2,30.9,51,40.4,72.7,4.6,10.5,40,56.8,49.9,59.1,1.1.3,2.2.3,3.3.2v-7c1.6.8,3.4,2.6,4.4,4.1,3.9,5.6,13,23.4,15.1,29.9,2.5,7.9,6.9,26.8-7.3,22.3-8.6-2.7-27.2-27.4-33.6-35.4-28.5-36-56.8-75.1-83.4-112.6-18.6-26.2-41.5-56.4-56.4-84.6-3.5-6.6-11.8-22.5-3.8-28.1,5.7-4,11.9,1.8,17.4,3.5,9.7,3.1,14.7,1.8,23.2-3.4h0Z" fill="#ffffff"/>
  <path id="fill-jaw6" class="fill" d="M1356,1453s-.4,1.3,1.2,2.3c8.1,4.8,13.3,5.6,22.3,2.7,5.3-1.7,11.2-7.2,16.4-3.5,8,5.7-.3,21.6-3.8,28.1-14.9,28.2-37.7,58.4-56.4,84.6-26.6,37.5-54.9,76.6-83.4,112.6-6.4,8-24.9,32.7-33.6,35.4-4.6,1.4-9.2.4-9.9-4.8-2.3-16.9,12.8-37.1,20.1-51.5,4.5-1.2-.3,7.2,3.5,7,3.3-.2,8.9-5.1,11.5-7.5,9.9-9.3,35.9-40.2,41.2-51.8,4.4-9.7,5.2-26.7,8.3-37.7,4.6-16.4,12.4-34.4,32.1-35,4.8-.2,7.2,2.4,12.4-.6,1.8-1.1,10.3-11.6,11.3-13.7,4.3-9,.9-37.2,1.8-49.2.2-3.1,1.9-14.7,3-16.9.5-1,1.5-.9,2-.6h0Z" fill="#ffffff"/>
  <path id="fill-jaw7" class="fill" d="M668.3,1813.7c1.2,1.3,4.2,1.7,3.6,4.3-11.8,2.6-22.5-6.2-30.5-13.9-47-45-85.8-115.1-111.6-174.4-4.2-9.6-9.4-20.7-12.6-30.4-3.7-11.4-6.2-20.8,3.2-30.2,17,38.9,33,78.5,53,116,25.2,47.2,59.3,88.9,94.9,128.6" fill="#ffffff"/>
  <path id="fill-jaw8" class="fill" d="M1376,1818c-.4-1.8.6-2,1.6-3,23.2-23.3,49.4-55.6,68.2-82.7,34.9-50.1,57.3-107.7,81.7-163.3,9.5,9.5,6.9,18.8,3.2,30.2-5.4,16.7-15.3,37-22.9,53.1-24.4,51.7-59.5,111.3-100.8,151.2-8.1,7.9-19,17.1-31,14.4h0Z" fill="#ffffff"/>
  <path id="fill-jaw9" class="fill" d="M586,1754c-8.8,4.2-11.8-.9-17.5-7-13.2-14.2-48.5-65.3-49.5-83.5-.4-6.5,3.1-11.1,7.5-15.4l25.3,49.7,34.2,56.3h0Z" fill="#ffffff"/>
  <path id="fill-jaw10" class="fill" d="M1462,1754l34.2-56.3,25.3-49.7c4.4,4.4,7.9,9,7.5,15.4-1,18.2-36.3,69.3-49.5,83.5-5.7,6.1-8.7,11.2-17.5,7h0Z" fill="#ffffff"/>
  <path id="fill-jaw11" class="fill" d="M853,1643c23.4,1.8,23.6,24.4,32.8,40.7.8,3.2-7.7,7.2-9.3,5.3l-23.5-46Z" fill="#ffffff"/>
  <path id="fill-jaw12" class="fill" d="M1194,1644l-22,46c-4.7-1.2-10.2-1.5-8.5-7s10.2-25.6,13.1-29.9c3.8-5.7,10.7-8.8,17.4-9.1" fill="#ffffff"/>
  <path id="shading-jaw" class="outline shading" d="M1380.8,1185.8c-.2.4-2.1.7-2.8,1.7-8.6,10.8-16.2,26-21,39-4.2,11.4-5.1,22.7-13,32-11.3,13.5-31,29.3-45.7,39.3-15.8,10.7-32,18-49.3,25.7,7.1.9,14.3.5,21.5.5,23.3,0,41.9-6.8,62.9-17.1,15.5-7.6,25.1-16.9,35.2-30.7l21.4,3.8c-4.2,14-3.4,28.4-18.5,35-23.4,10.3-52.3,12.2-75.8,25.2-1.8,1-5.5,4.4-6.4,4.7-1.8.4-30-9.3-35.1-10.6-25.9-6.6-37.1-9.7-23.1,21.1,5.3,11.7,19.9,38.8,29.8,46.2,12.3,9.1,22.9-9.5,30.5-16.5,6.2-5.9,17.1-12.2,25.3-14.7,16.8-5,32.3,4.9,49.7,5.7,17.6.8,34.4-7.6,48.8-17.2,3.6-2.4,14.6-13.9,17.2-13.8,3.3.2,2,7.1,1.3,9.2-5.4,16.2-16.1,32.7-21.4,49.2,10.4,8.1,27.3,20.2,27.5,35,.2,17.8-26.4,60-36.4,76.4-39.8,65.4-86.5,126.3-133.5,186.6,14,16.5,38.6,26.1,60,20,7.6-2.1,12.1-7.4,19-9.5-2.6,20.2-3.1,27.7,16.8,34.7,21.1,7.5,45.8,7.9,64-6.5l21.3-16.2-22,44.5,8,2.5c.2,1.1,0,1.9-.5,2.9-6.5,16.2-30.2,41.1-45.5,49.5-5.7,3.1-46.1,12.9-52.4,12.6l-84.3-18.7-15.5,3.5-71-30c-1.3-.4-1.8-1.4-2.6-2.4-2-2.6-13.5-23.8-14.4-26.6s-1.1-5.3-.8-8.2l24-61.5c-15.6,0-31.3-2.2-46.8-2.8-3,4.8-9.3,10.4-14.2,13.3-8.6,5.1-53.1,24.7-61.5,25.5-18.7,1.7-40.6-1-59.6-.5-17.3-8.6-39-15.2-55.8-24.2-6.6-3.5-10.2-10.9-16.6-14.4-15.1,1.1-30.3,2.9-45.5,3l23.3,59.2c1.1,3.4,1.1,7.1,0,10.5-.9,2.5-14.6,27.1-15.9,28.1l-72.1,30.9-15.5-3.6c-25.8,4.6-51.9,13.1-77.6,17.4-3.8.6-6.7,1.6-10.7,1.3-6.5-.4-39-8.3-45.2-10.8-7.3-3-27-19.4-32.3-25.7-2.9-3.4-15.8-22.7-16.8-26.2-.2-.8-.3-1.5-.2-2.3l8-2.5-23-46.5,18.7,15.8c19.2,17.3,52.4,17.8,74.6,6,15.5-8.2,9.7-18.1,9.7-32.8,23.9,20.9,59.5,13.2,78.9-9.6-42.1-53.6-83.6-108-120.3-165.4-14.8-23.2-36.2-55.1-45.3-80.7-7.2-20-3.9-28.9,11.8-42.8,2.3-2.1,10.8-6.9,11-9,.2-1.7-1-3.8-1.6-5.5-4.8-13.7-16.7-32.1-20-45-1.1-4.3-.6-8.4,4.5-6.5,4.7,1.8,9.6,8.8,14.8,12.3,25.4,16.9,38.3,19.8,68.5,13.9,5.4-1.1,13.6-4.6,18.3-4.7,11.5-.3,29.8,10.2,38,18,7,6.7,17.2,24.1,29,16.1,9.9-6.8,30-43.8,34.3-55.7,1.7-4.7,5.2-14.8-2.3-16.2-8.2-1.6-30.5,5.9-39.5,8.5-3.9,1.1-17,6.5-19.5,6.4-1,0-13.7-8.2-17.2-9.7-16.2-6.7-62.8-15.6-72.7-24.3-7.9-6.8-7-18.7-11.5-27.5,0-1.4.7-1.7,1.7-2.2,1.5-.8,18.7-5.3,19.7-5.1,14,22.3,36.7,32.7,60.6,41.3,16,5.8,21.6,6.6,38.4,6.5h20.5l-34-16.5c-15.7-8.8-60.2-41.6-66.8-57.2-2.5-5.8-3.6-13.7-5.9-20.1-6.1-16.9-14.4-32.5-25.3-46.8,1.3-9,6.5-19.6,7.8-28.2,2.8-19.1,3.8-27.8,12.1-45.9,42.8-94,156.1-156.3,251.2-184.8,49.9-15,102.4-18.1,153.2-5.2,102.2,25.9,235.9,97.2,274.5,201.5,5.1,13.9,5.1,20.8,7.5,34.5.8,4.8,8.8,28.4,7.6,30.6h-.2ZM1078,1327c-6.6-11.3-11.1-25.2-18.6-35.9-4.1-5.9-9.8-10.2-14.4-15.6-3.4-3.9-14.7-20-18-21-1.9-.6-4.4-.8-6.3-.2-2.4.7-15.8,18.7-18.7,22.3-4.5,5.4-9.5,9.1-13.8,15.2-7.4,10.5-12.7,23.7-18.2,35.3h108ZM728.3,1496.7c1.6,2,8.2,6.3,10.7,7.8,14.8,8.8,31.7,13.8,46.9,23.1,16.8,10.2,40.2,33.1,59.6,33.5,2.3,0,8.7-1.2,9.4-3.7.8-2.7-13.5-27.5-16.4-30.3-7.3-7.2-27.5-17.2-37.2-23.8-15.2-10.3-50.3-39.1-67.9-39.2-10.5,0-8.7,28.1-5.1,32.7h0ZM1319.7,1466.3c-5.9-5.9-24.1,4.1-30.4,7.6-16.2,8.9-31,21.4-46.2,31.8-12.7,8.7-30.1,15.7-38.6,28.4-2.2,3.4-10.8,17.7-11.4,20.7-1.1,5.3,6.2,6.5,10.3,6.3,16-.9,23.4-9.7,35.2-17.8,9.2-6.3,19.3-13.6,29-19,11.7-6.6,47.1-19.2,52.7-29.3,2.4-4.3,2.8-25.2-.7-28.6h0ZM1126,1664c-12-2.7-20.7,6.6-31.6,7.9-5.7.7-12.2-1.2-16.6-.7-7.1.8-22.9,12.1-31.2,14.9-14.8,4.9-30.2,4.7-45.1,0-8.8-2.8-23.9-14.1-31.2-14.9-4.4-.5-10.9,1.4-16.6.7-11-1.3-19.9-11-31.6-7.4,0,6.9,23.8,23.5,30,27,12.5,7.1,59.8,26.8,72.5,26.6s59.9-19.8,72.2-26.9c10.3-6,24.6-16.2,29.3-27.2h-.1Z" fill="#aaaaaa" style="opacity: 0.5" opacity="0.5"/>
  <path id="shading-jaw1" class="outline shading" d="M1478,1737c3.9.4,7.2-2.1,10.3-4.2s11.4-11.1,13.2-11.8c3.7-1.6-1.6,7.2-2.1,7.9-3.6,5.7-19.8,26.3-24.9,29.1-6.3,3.5-11.9.9-18.5,0-.5-3.4,1.9-6.1,3.6-8.9,9.7-16.6,23.4-37.9,34.6-53.4.7-1,1.5-2.4,2.8-2.7-1.2,6.4-3.2,12.7-5.8,18.7-1.4,3.3-14.2,24.3-13.2,25.3" fill="#aaaaaa" style="opacity: 0.5" opacity="0.5"/>
  <path id="shading-jaw2" class="outline shading" d="M592,1758c-7.2,1.1-12.2,3.5-19.2-.3-5-2.7-21.2-23.7-24.7-29.3-.5-.8-5.2-8.8-1.7-7.3,1.7.7,9.8,9.6,13.2,11.8,3.1,2.1,6.3,4.6,10.3,4.2-6.3-14.7-17.1-27.6-19-44l38.4,58.1,2.6,6.9h.1Z" fill="#aaaaaa" style="opacity: 0.5" opacity="0.5"/>
  <path id="outline-jaw" d="M681,1139c5.4-1,10.7-1.8,13.8,3.7-1.2,7.6,0,17.4-2,24.6-1.6,5.8-18,15.3-21,22-1.2,2.6-6.4,25.9-6.7,29.3-.2,1.7,0,2.8.4,4.4,2.2,7.2,14.4,20.5,18.4,28.6,5.2,10.5,6.7,23.5,11.3,33.7,5,11.1,15.6,11.8,25.1,16.9,7.5,4,16,10.6,22.7,15.8-3.1,0-6.3.3-9.4,0-8.2-1-26.7-5-34.4-7.6-2.1-.7-9.4-4-10.7-5.3-3.1-3.3-6.1-15.8-9.5-17.4-2.5-1.2-7,0-10.3-.7-6.7-1.2-9.9-7.8-17.5-1.5-6.6,12.4-14.3,24.3-20.4,37.1-7.4,15.4-14.8,25.1-4.8,41.2,5.2,8.4,23.4,27,25.6,34.4,2.5,8.6-2.7,28,2.9,34.1,6,6.6,20.6,4.5,27.8.8,10.6-5.4,8.7-9.9,14.3-18.7,5.3-8.3,20.9-24.3,30.4-26.7,7.7-1.9,12.3,10.3,14,16,3.6,11.6,3.2,28.2,9.1,37.9,10.7,17.3,45.3,33.7,65.3,34.7,9.3.4,15.2-5.5,21-12,3-3.3,13.4-19.9,14.5-20.5,1.8-1,4.3-.7,6.3-.3,6.1,1.3,31.8,27.4,38.7,33.3,29.5,25.3,59.4,44.7,98.7,50.3,60.9,8.7,105.3-6.9,151.3-45.3,11.4-9.5,21.6-20.6,33-30,4.3-3.6,12.1-11.6,18-8,1.1.7,11.4,17.1,14.5,20.5,12,13.2,17.2,13.9,34.7,9.7,15.2-3.7,44.3-19.1,52.6-32.4,5.1-8.2,5.1-21.6,7.5-31.5,1.7-6.7,6.2-24.7,15.7-22.4,10.7,2.6,27.2,21,32.6,30.4,1.7,3,2.2,6.8,3.9,9.1,6.4,8.6,29.4,13.6,36.5,4.5,4.8-6.2,0-25.2,2.4-33.6s20.4-25.8,26-35c9.4-15.7.8-28.4-6.5-43.3-5.8-11.7-13.3-22.7-19.2-34.3-7.1-5.6-12.2.4-18.5,1.5-2.9.5-6.9-.4-9.3.7-3,1.4-6.8,14.4-9.6,17.4-1.3,1.4-7.2,3.9-9.3,4.7-8,3-26.3,7-34.9,8.1-3.4.4-6.8.2-10.2.2,6.6-5.5,15.7-12,23.3-16.2,11.5-6.3,19.8-5.1,25.5-19.5,3.6-9.1,5-19.4,9.4-28.6,5.2-10.9,14.2-20.6,19.6-31.4.6-1.5.2-3,0-4.5-.6-4.4-5.6-25.6-7.2-28.8-3.5-6.8-19-16.2-20.3-20.7-.8-2.7-2.7-24.4-2-26.6,1.5-4.9,9.1-3.4,12.8-2.7,1.6.3,4.1,0,5.1,1.7,1.8,2.9,1.8,11.7,3.9,13.8,4.3,4.4,21.1,4.4,24.8,12.2,2.2,4.6,0,15.6.2,21.8.5,12.5,8.5,29.5,6.8,39.7-.7,4.2-13.9,26.4-17.1,30.9-1.5,2-12.2,12.4-10.6,13.9,7.4.6,18.3-14.1,23.5-14.1s9,8.6,11.3,11.8c14.6,19.9,29.3,46.5,36.9,70.1,1.2,3.8,4.5,12.8,2.8,16.2-.7,1.4-3.3,2.1-4.5,3.5-5,6-9.6,13-14,19.5,23.4,4.3,53.2,19.5,68,38.5,7.3,9.4,4.3,12.7,6.5,22.5,3.5,15.9,19.4,40.3,25.5,57.5,2.5,7,6.9,19.9,7.1,27,0,6-4.5,13-4.1,16.9s6.2,16.4,7.5,22.6c3,13.8,3.9,17.4-1.3,30.7-2,5.2-16.4,34.3-16,36.7,8.9,8.9,19.7,15,18.8,29.2-1,17.7-33.9,64-45.6,79.4-4.3,5.6-23.6,30.1-28.3,31.7-7.5,2.4-17.8-6.7-22.1-4.1-7.5,10.9-15.8,21.5-24.5,31.5-16.8,19.3-25.5,31.3-52.2,35.8-4.7.8-12.8.4-16.4,1.6-8.7,2.8-10.3,11.6-24.4,11.6s-49.3-7.9-58.8-14.2c-2.1-1.4-5.3-5.9-7.2-5.8-1.5,0-10.7,6.3-16.1,6.9-33.7,4-93.1-31.4-107.9-61.8-5.1-10.4-3.9-14.2-.5-24.6,4.8-14.4,12.7-27.7,18-41.9-5-.8-14.5-7.9-18.7-8.3-2.3-.2-34.8,17.4-40.8,19.8-18.6,7.5-44.8,14.4-64.5,18.5-11.3,2.3-15.7,2.3-27,0-36.4-7.4-71.7-19.8-104-38.1-3-.7-15.7,5.8-19.6,7.5-1.1.5-1.7-.7-1.4,1.6,5.8,13.5,13.4,27.1,18,41,3.4,10.4,4.6,14.2-.5,24.6-14.8,30.3-73.5,65.3-107,61.9-4.9-.5-16.9-7.1-17.8-6.9-1.4.3-4.4,4.4-6.4,5.7-9.7,6.5-46.9,14.3-58.8,14.2-14.1,0-15.7-8.9-24.4-11.6-7.3-2.3-20-1.5-29.5-4.5-17.1-5.4-34-26.7-45.5-40.5-6.4-7.7-12.3-15.8-18-24-4.9-3-15.5,8.3-24,3-2-1.3-5.7-5.5-7.6-7.4-8.4-8.9-17.6-21.2-24.9-31.1-10.5-14.3-36.3-51.6-39.2-67.8s8-22.5,18.4-32.7l-19.7-46.9c-.7-6.9.9-13.7,2.4-20.4,1.4-6.2,7.1-18.8,7.5-22.6.3-3.4-3.2-9-3.7-13.2-1-8.6,3.8-22.4,6.7-30.8,6.1-17.2,22-41.5,25.5-57.5,2-9.3-.8-12.9,6.1-21.9,14.5-19.3,45-34.8,68.4-39.1,1.1-1.2-8.5-13.6-10-15.5-3.5-4.4-8.3-5.6-8-12,.4-8.2,10.9-31.9,14.8-40.2,3.7-7.7,29.3-51.5,34.9-53.2,6.3-1.8,17.3,14.4,25.3,13.8,1.9-1.8-8.7-10.8-10-12.5-3.8-4.9-13.3-21.4-15.9-27.1-6.1-13.5,1.7-20.9,3.8-34,.5-3.2,1-8.6,1.2-11.8.2-6.5-2.4-17.4.6-22.3,3.3-5.3,21.2-7.6,24.1-10.5,2.7-2.7.9-10.5,3.2-14.1,1-1.6,3.5-1.4,5.1-1.7v-.2h0ZM633.3,1439.3c.9-1.2,3.1-.8,3.7-3.9,1.1-6.1-10.5-40.1-15.6-41.3-20.5,4.9-46.5,16.2-61.4,31.3-5.3,5.4-4.5,10.5-3.8,17.9,3.8,45.6,44.2,120,68.5,159.6,42.1,68.8,102,148.4,164.4,199.6,7.2,5.9,10.4,10.2,20.5,9.5,23-1.7,55.8-23.2,70.5-40.5,7.3-8.6,9-11.1,8.1-23-1.5-20.2-18.2-54.8-27.2-73.8-3.3-7-13-29.3-16.8-33.9-1.3-1.6-6.5-2.4-9.5-5.8-3.9-4.4-6.8-18.2-7.6-18.9-1.5-1.5-1.7.5-2.2,1.3-2.3,3.7-5.5,17-4.7,21.2,9.8,20.3,39.4,55.9,35.7,78.8-2.2,13.6-15.6,26.4-28.8,16.3-54.4-61-103.6-126.1-149.2-193.8-14-20.8-34.9-48.5-46.2-69.8-5.4-10.2-5.2-21.2,1.8-30.6l-.2-.2ZM1213.7,1635.7c-2.2,2.2-6.4,3.1-8.6,4.9-4.6,3.8-23.6,46.3-27.2,54.8-7,16.2-21.4,47.8-17.6,65,1,4.6,13.8,17.6,17.8,21.2,14.4,13,41.9,29.6,61.5,30.5,9.3.5,12.8-3.9,19.6-9.5,83.7-68.7,186.1-212.3,221.3-314.7,4.8-14,13.9-42.1,11.7-56.2-.8-4.8-12-12.8-16.2-15.8-8.3-5.8-39.2-22.5-48.2-20.8-3.5.7-9.2,14.7-10.5,18.5-1.8,4.8-5.8,17.7-5.8,22.2s5,5.3,6.3,8.2c3.5,7.7,3.6,17.1-.4,24.7-55.2,85.5-113,169.3-179.7,246.3-4.3,5-16.1,20.1-21.5,21.5-13.2,3.5-22.8-9.1-24-21-2.3-22.7,26.9-58.1,36.8-78.2,0-7.4-1.7-16.2-6.3-22.3-2.8,6.3-3.7,15.6-8.8,20.7h-.2ZM1249,1614.5c.5,5.3-.4,11.2,0,16.5,4.5-2.9,6.9-8.6,9.2-13.3,7.2-14.9,13.6-37.5,13.9-54.1,0-7.5-1.8-15.8-2-23.2,0-2.6,2.9-7.2,5-8.8,3.9-3.2,18.2-11.2,23.3-13.7,10.8-5.5,29.6-7.9,33-21,2.5-9.8.7-28.2,1.8-39.2,1-10.3,7.7-19.4,6.9-29.1-.6-6.2-5.2-16.1-9.4-20.6-1.5-1.6-8.7-7.2-10.5-5.9s-7.1,27.7-7.1,31.5,2.9,12.2,0,17.1c-1,1.8-14.9,11.5-17.8,13.2-13.5,8.5-30.5,17.7-44.6,25.4-9.2,5-19.2,9.5-28.4,14.7-3.1.5-6.8-3.6-10.8-3.9-11.7-.8-14.5,8.2-21.5,14.6-16.6,15.2-41.4,23.2-63.5,25.5-69.2,7.1-135.8,6.9-205,0-21.8-2.2-45.9-9.8-62.5-24.5-7.4-6.5-10.7-16.4-22.5-15.6-4,.3-7.4,4.3-10.5,3.7-12.5-7.1-25.7-12.8-38.3-19.8s-39.3-21.5-49.2-30.8c-6.9-6.6-2.4-12.5-2.5-20.4-.2-9.9-4.5-21.1-7.1-30.5-9.8,1.4-16.8,13.3-19.3,22.2-3.6,12.9,4.8,20.7,6.2,33.4s-2.5,31.6,2.7,42.3,22.8,13.3,32.7,18.3c4.5,2.3,19.2,10.6,22.6,13.4,1.8,1.5,2.7,3.4,3.6,5.4.2,9.9-2.1,19.6-1.6,29.6.8,16.7,8.6,44.3,17.5,58.5,1.4,2.3,3,4.7,5.5,6-.9-5.1-.4-9.2.3-14.2.9-6.6,4.7-25.1,7.5-30.5,1.2-2.3,3.7-3.5,4.3-6.2,23,6.3,35.4,28.6,50.3,44.9,11.3,12.4,23.8,14.5,34.1,23.9,6.5,5.9,11.9,15.9,17.5,22.5,14.4,17.2,20.4,23.3,41.3,32.7,28.8,12.9,50.9,21,83.2,18.9,16.7-1.1,61-18.9,75.8-28.2,16.1-10.1,26.5-33.3,40.2-45.8,10.2-9.3,22.2-11.3,33-23,9.6-10.3,17.3-22.5,28-32,5-4.5,21.2-18.9,26.3-9.3,2.2,9.9,7.3,19.6,8.2,29.8v-.4h.2ZM692.7,1454.6c-8.6,5.2-13.5,6.5-23.2,3.4-5.5-1.8-11.8-7.5-17.4-3.5-8,5.7.3,21.6,3.8,28.1,14.9,28.2,37.7,58.4,56.4,84.6,26.6,37.5,54.9,76.6,83.4,112.6,6.4,8,24.9,32.7,33.6,35.4,14.2,4.5,9.9-14.4,7.3-22.3-2.1-6.5-11.2-24.4-15.1-29.9-1-1.5-2.8-3.2-4.4-4.1v7c-1.1,0-2.2,0-3.3-.2-9.8-2.4-45.3-48.6-49.9-59.1-9.5-21.7-5.3-71.5-40.4-72.7-4.8-.2-7.2,2.4-12.4-.6-2-1.1-10.6-12.1-11.6-14.3-3.7-8.3-.7-36.3-1.5-47.6-.2-2.3-2.3-17.8-3-18.5-1.7-1.7-2.1,1.5-2.3,1.6h0ZM1356,1453c-.5-.3-1.5-.4-2,.6-1.1,2.2-2.8,13.8-3,16.9-.9,11.9,2.5,40.2-1.8,49.2-1,2.1-9.4,12.7-11.3,13.7-5.2,3-7.5.4-12.4.6-19.6.7-27.5,18.6-32.1,35-3.1,11-3.9,28-8.3,37.7-5.3,11.7-31.3,42.5-41.2,51.8-2.6,2.4-8.2,7.4-11.5,7.5-3.8.2,1-8.2-3.5-7-7.3,14.4-22.4,34.7-20.1,51.5.7,5.2,5.3,6.2,9.9,4.8,8.6-2.7,27.2-27.4,33.6-35.4,28.5-36,56.8-75.1,83.4-112.6,18.6-26.2,41.4-56.4,56.4-84.6,3.5-6.6,11.8-22.4,3.8-28.1-5.2-3.7-11.2,1.8-16.4,3.5-9,2.8-14.2,2.1-22.3-2.7-1.6-1-1.2-2.2-1.2-2.3h0ZM765,1818c.4-1.5-.4-1.7-1-2.5-6.5-9.3-23.8-23.7-32.5-33.5-71.9-80.4-136.5-177.8-177.2-277.8l-12.2-36.2c-4.7,16.4-15,35.2-17.6,51.9-3.5,23,16.6,69.7,26.7,91.4,37.4,80.5,92.9,157.9,156.9,219.1,5,3.1,13.4.3,19-.9,12.9-2.9,25.3-7.9,38-11.5h0ZM1283,1818c12.7,3.6,25.1,8.6,38,11.5,5.6,1.3,14,4.1,19,.9,64-61.2,119.5-138.6,156.9-219.1,10.1-21.7,30.2-68.4,26.7-91.4-2.6-16.7-12.8-35.6-17.6-51.9l-12.2,36.2c-40.7,100-105.4,197.4-177.2,277.8-8.7,9.8-26.1,24.2-32.5,33.5-.6.8-1.4,1-1,2.5h-.1ZM668.3,1813.7c-35.5-39.8-69.7-81.4-94.9-128.6-20-37.5-36-77.1-53-116-9.5,9.5-7,18.8-3.2,30.2,3.2,9.8,8.4,20.9,12.6,30.4,25.8,59.3,64.7,129.4,111.6,174.4,8,7.7,18.8,16.6,30.5,13.9.5-2.7-2.5-3-3.6-4.3M1376,1818c12,2.7,22.9-6.6,31-14.4,41.3-39.9,76.4-99.4,100.8-151.2,7.6-16.1,17.4-36.4,22.9-53.1,3.7-11.4,6.2-20.8-3.2-30.2-24.4,55.6-46.8,113.2-81.7,163.3-18.9,27.1-45,59.4-68.2,82.7-.9,1-2,1.2-1.6,3h0ZM853,1643l23.5,46c1.7,1.9,10.1-2.1,9.3-5.3-9.3-16.3-9.5-39-32.8-40.7M1194,1644c-6.8.3-13.6,3.4-17.4,9.1-2.9,4.3-11.5,24.6-13.1,29.9s3.8,5.8,8.5,7l22-46ZM586,1754l-34.2-56.3-25.3-49.7c-4.4,4.4-7.9,9-7.5,15.4,1,18.2,36.3,69.3,49.5,83.5,5.7,6.1,8.7,11.2,17.5,7h0ZM1462,1754c8.8,4.2,11.8-.9,17.5-7,13.2-14.2,48.5-65.3,49.5-83.5.4-6.5-3.1-11.1-7.5-15.4l-25.3,49.7-34.2,56.3h0Z" class="outline" fill="#000000"/>
    </g><g class="trait-group" data-category="mouth" id="mouth-cracked scrappy">
      <path id="fill-muzzle-1" fill="#ffffff" d="M1038 1292s-.4 1.7.7 2c10.3 2.8 18 4.3 25.8 13 1.9 2.2 4.9 8.8 6.5 9.5 2.6 1.2 6.6 0 9.5.5 11.4 1.5 21.2 3.7 31.2 9.8 2.1 1.3 9.2 7.8 10.2 7.1.3-.3 0-1.7 0-1.9 2.4-1.8 32.7.6 38 1 5.2 4.2 13.2 5.5 19.2 8.3 13.7 6.4 22.5 16.1 29.9 29.1 8.4 14.6 7.7 17.8 3.1 33.4-2.5 8.5-4.8 21.8-16.3 20.2 1.5-15.5-14.8-32.4-26.5-41-3.2-2.4-11.3-7.2-6 0 10.7 14.6 20.5 15 21.5 37.5.5 10.4-8.3 32.8-15.4 40.5-.6.7-7.1 6.3-7.6 6.5-3 1.6-6.8-6.1-7.8-8.2-3.7-7.7-4.8-15.6-9.7-23.3-1.1-1.7-10.8-13.7-12.4-12.1 5.6 13 9 46.2-2.5 56-4.4 3.7-9.4 1.9-13.3 3.7-2.8 1.3-3.1 5.8-4.8 6.2-.9.2-7.2-3.2-9.4-3.5-9.3-1.3-13.1 17-18.7 17.4-2.5.2-10.7-11.9-18.4-9.4-6.8 2.2-15.3 20.6-23.6 23.5-7.3-4.5-4.2-14-6.6-21.1-1.2-3.5-4.2-6.7-5.8-10.2-5.4-12.7-2.8-19.9-.2-32.2.7-3.3-.2-6.3 1.2-9.8.4-1 6-11.5 6.6-12.4 3.7-5.4 19.2-12.4 22.7-3.8.9 2.2 0 8.7 2.2 7.7 5.1-4.9 10.2-9.9 15.5-14.5 10.2-8.9 12.8-8.2 19.5-21.5 1.9-3.8 8.1-17.3 8.2-20.7.2-6.3-17.9-22.6-21-29-3.6-2.9-22.1-2.8-27.2-2.3-14.1 1.5-18 12.2-27.5 19.5-1 .8-1.3 1.9-3 1.5l.8-12.7c7.6-8.2 14.9-16.6 21.1-26 .7-3.3-8.6-12.4-11.3-13.2-3.6-1 .5 5.5.5 6.6.4 5.2-5.9 4.1-9.3 5.6-1.2.5-3 2.7-3.2 2.7s-2-2.2-3.2-2.7c-8-3.5-11.7.6-7.3-12.2-1.6-1.7-12.5 9.1-12.9 11.7-.2 1.6 3.6 7.8 4.8 9.5 1.5 2 5 5.9 7 8.3 3.2 3.9 9.7 7.7 9.9 13.1 0 1.6-.8 3.1-.8 4.8s2.6 8.1-2.5 3.6c-6.2-5.3-10.1-13.6-18.5-17.5-6.8-3.1-28.3-4.1-34.7-.8-.8.4-9.9 11.1-11.2 12.8-2.4 3-10.9 13.7-10.8 16.8.2 5.1 11.2 27.9 14.7 32.2 2.8 3.4 10.2 7.7 14 11 5 4.3 9.7 9.1 14.5 13.5 2.2.9 1.5-5.2 2-7 2.4-9.9 19.2-2.4 23 3.1.7.9 6.6 13.1 6.9 14.1 2.9 11 5.6 26.6 1.9 37.5-1.7 4.9-6.8 10.4-7.8 15.2-1.4 6.6 1 13.6-5 19-5.3 1.2-18.8-21.7-24.4-23.5-8.2-2.6-15.9 9.6-18.4 9.4-5.3-.4-8.7-14-13.9-16.1-6.9-2.8-11.5 2.7-14.1 2.1-1.8-.4-2-4.8-4.8-6.1-4.5-2-9.6.3-14.3-4.7-10.9-11.5-6.5-42.2-1.5-56.1-9.1 6.7-14.1 14.8-18.5 25-1.6 3.6-2 7.5-3.7 11.3-1 2.1-4.9 9.8-7.8 8.2-.4-.2-6.9-5.8-7.5-6.5-4-4.2-13.8-24.3-15-30-2.8-12.9 1.4-26.5 9.5-36.5 4.1-5.1 11.3-9 13-15.5-2.4-2.4-22.3 17.4-24.4 20.1-5.4 6.8-11 15.9-9.6 24.9-4.7.2-8.1-.7-10.8-4.7-1.8-2.7-8.8-24.3-9.2-27.8-1.1-10.9 10.9-28.8 18-37 10.5-12.2 24.5-14.2 38-21.5 12.5-.8 24.5-2.3 37-1 0 0 .7 2.1.5 3 9.5-8.2 20.6-14.8 33.1-16.9 4.7-.8 14.8-.4 18.1-1.8 1.6-.7 5.2-7.7 7.2-9.9 8-8.4 15.2-9.7 25.4-12.5 1.1-.3.6-1.9.7-2 1.1-.7 25.9-.7 27 0Z" class="fill" data-original-prefix="fill"/><path id="fill-teeth16" fill="#ffffff" d="M995.3 1525.7c11 9.5 17.2-6.6 23.2 6.3 6.5 14.1 3.7 38.4-1 52.9-.7 2.1-7.1 16.9-8 17.1-1.2.3-3-.4-4.2-.9-12-5.1-31.7-18.1-39.1-28.9-10.6-15.5-6.4-42.9 6.8-55.8 1.3-1.3 9.1-5.6 10.4-5.3 1.5.3 9.4 12.3 12 14.5h-.1Z" class="fill" data-original-prefix="fill"/><path id="fill-teeth15" fill="#ffffff" d="M1039.1 1601.9c-.8-.5-7.5-16.1-8.1-18.4-4.1-13.8-6.5-36.9-1.3-50.3 4.6-12 8.1-4.3 15.8-4.2 9.5.2 17.3-18.2 20.8-17.9 1.2 0 8.5 4.2 9.7 5.3 6.3 6.2 12.2 22.3 13 31 2.4 28-20.3 39.6-41.3 50.7-2 1.1-5.7 5.5-8.6 3.7Z" class="fill" data-original-prefix="fill"/><path id="fill-teeth14" fill="#ffffff" d="M904 1461c0 2.2-1.1 3.8-.8 6.2.2 1.8 7.1 22 8 23.1 3.9 5.1 11.2 3.2 16.7 3.8 4.9 13.5-4.2 23.8-8.6 35.6-2 5.3-8.7 33.1-12.8 34.2-1.8.5-6.8-9.1-8.3-10.7-10.3-23.9-15.3-58.4-2.6-82.2.6-1.2 7.1-11.6 8.4-10.1Z" class="fill" data-original-prefix="fill"/><path id="fill-teeth13" fill="#ffffff" d="M1144 1564c-2.1 1.4-6.1-7.1-6.8-8.7-3.2-7.9-4.4-17.4-7.5-25.5-4.3-11.6-13.6-22-8.6-35.6 4.8-.6 12.3 1.2 15.9-2.9 1.3-1.5 8.1-20.6 8.6-23.2.3-1.8-1.4-7 .9-6 6 2.7 13.7 26 14.4 32.6 1.4 13.9-2.9 45-9.3 57.4-.8 1.5-7 11.6-7.6 11.9" class="fill" data-original-prefix="fill"/><path id="fill-teeth12" fill="#ffffff" d="M1093.1 1644.9c-2.9-1.8-2.4-28.5-2.1-33.4.7-10.5 5.2-31.2 8.9-41.1 1.1-2.8 2.4-1.4 4.2 0 12.2 9.6 21.1 44.8 12.8 57.9-1.9 3-15.6 14.9-18.9 16.1-1.3.5-3.8 1.1-4.8.4Z" class="fill" data-original-prefix="fill"/><path id="fill-teeth11" fill="#ffffff" d="M949 1569c5.5 22 11.1 44.4 9 67.5-.5 5.2-.9 10.3-7 8-3.4-1.3-17.5-13.4-19.5-16.5-5.8-9.2-1.4-31.3 2.7-41.2 1.2-2.9 11.3-21 14.8-17.7Z" class="fill" data-original-prefix="fill"/><path id="fill-teeth10" fill="#ffffff" d="M881.7 1478.3c3.1 2.8-2.7 21-2.8 26.2 0 5.9 2.6 12.4 3.1 18 .2 2.1.7 24.5-.5 24.5-1.5.2-2.1-1.1-2.9-2.1-15.6-18.9-34.8-51.8-17.4-75.3 6.5-8.8 10.5 2.1 14.9 5.8 1.8 1.5 4.9 2.1 5.7 2.8Z" class="fill" data-original-prefix="fill"/><path id="fill-teeth9" fill="#ffffff" d="M1185.7 1467.3c1.9 1.6 7.8 13.7 8.2 16.2 3.2 20.7-9.8 47.3-23.9 61.9-.9 1-1.3 1.9-3 1.5.5-8-.7-16.6 0-24.5.4-5.4 3.1-12.3 3.1-18s-6.1-23.4-2.8-26.2c.6-.6 2.5-.6 3.8-1.7 3.4-3 10-13.1 14.7-9.3Z" class="fill" data-original-prefix="fill"/><path id="fill-teeth8" fill="#ffffff" d="M1018 1613v16.5c0 .9-10.8 13.2-11.9 14.1-6.3 4.8-8-2.6-10.6-5.5-5.5-6-17.9-.4-24.4-5.6-1.2-.9-4.1-8.8-4.1-9.9v-22.5c12.9 1.7 28.3 17.5 41.4 15.9 3.5-.4 6.1-3 9.6-2.9Z" class="fill" data-original-prefix="fill"/><path id="fill-teeth7" fill="#ffffff" d="M1031 1613c6.3 1.3 9.1 4 16.1 2.6 10.6-2.2 24.3-14.8 33.4-15.6 2-.2 1.4 0 1.2 1.3-.8 6.5 2.4 27.5-4.4 31.6-7 4.2-18.8-.3-23.4 4.6-2.1 2.2-3.6 8-8.4 7.6-1 0-14.6-13.5-14.6-14.6V1613z" class="fill" data-original-prefix="fill"/><path id="fill-teeth6" fill="#ffffff" d="M1102.5 1494c3.3-.8 4.5 6.9 5.3 8.7 5.6 12.1 13 24.8 13.3 38.8.2 9-16 29.8-21.3 16.2-4-10.4-4.1-44.8-1.1-55.5.4-1.6 2.4-7.9 3.8-8.2" class="fill" data-original-prefix="fill"/><path id="fill-teeth5" fill="#ffffff" d="M937.3 1559.7c-1.9-1.6-7.8-10.5-8.5-13-3.6-12.1 6-31.3 11.4-42 1.6-3.1 3.3-14.7 8-7.4 5.5 8.5 4.3 41.5 2.7 52.1-1.2 7.7-3.6 18.7-13.6 10.3" class="fill" data-original-prefix="fill"/><path id="fill-teeth4" fill="#ffffff" d="M917 1563c-1.8 13.4 2.9 27.5 2 40.5-.6 9-4.4 18.4-5.5 27.5-6.2-6-10.5-16.1-11.4-24.6-.5-5.2.7-24.7 2.4-29.3.6-1.6 10.5-16.2 12.4-14.1Z" class="fill" data-original-prefix="fill"/><path id="fill-teeth3" fill="#ffffff" d="M1135 1631c-.4-8.9-4.4-17.8-5.1-26.5-1-13.8 3.7-27.6 2-41.5 2.2-2.4 11.9 13 12.5 15 2 6.6 2.6 27.4 1.2 34.3-1.3 6.3-5.5 14.9-10.8 18.7z" class="fill" data-original-prefix="fill"/><path id="fill-teeth2" fill="#ffffff" d="M1154.1 1604.9c-3.4-2-5.1-22.3-3.9-26.2.8-2.6 8.9-5.2 10.2-8.8l5.1-10.9c3.8 3.4 5.1 7.2 4.3 12.2-.7 4.2-5.4 22.7-6.9 26.2-.9 2.2-6.1 9-8.8 7.5" class="fill" data-original-prefix="fill"/><path id="fill-teeth1" fill="#ffffff" d="M885 1559c-.3 3.7 1.7 9.4 4 12.2s9.5 5.2 10 8.3c-2 8.4 1.6 19.2-5.7 25.4-3.6-1.1-6-4-7.4-7.4s-6.5-23.6-6.9-27.1c-.5-4.2 1.2-10.6 5.9-11.4z" class="fill" data-original-prefix="fill"/><path id="shading-mouth2" fill="#aaaaaa" d="M918 1443.5c.8 5.3 5.6 13.8 10.1 16.9 11.5 8.3 16.2-.3 22.4-9.4 2.5 5.4 3.4 11.5 6 17 1.4 2.8 5.7 12 7.5 5.5l4-11.5c1.6 7.5 6.3 15.4 11.5 21 4.3 4.7 18.8 15.4 24.6 9.6 2-2.1 8.3-17.9 10.8-22.2 1.2-2.2 7.8-13.8 9.7-13.3 1 .2 8.5 13.2 9.7 15.3 2.4 4.5 7.3 17.7 9.8 20.2 3.8 3.8 10.5.4 14.4-1.8 10.5-5.9 18.5-17.2 21.7-28.8l4.2 12.3c.3 1.2 1.9 2.4 2.8 1.7.6-.4 5.8-11.3 6.5-13 .8-2 2.8-12 4-12 6.8 10.7 12.9 18.4 24.5 7.5 8.6-8 9.3-23.8 7-34.5 3.5-3.1 21.1 16.1 26.6 16.9 9.1 1.4 17.6-11.8 19-19.9 3.5-20.5-12.9-39.2-30.9-46.2l-12.7-4.8c15.4 0 28.2 2.9 41.1 11.4 4.8 3.1 12.2 10.9 17.6 11.4 6.2.6 10.1-4.1 10-10-.4-19.3-25.8-38.1-39.7-48.8 15.4 2.4 34.6 11.8 45 23.5 7.8 8.8 19.1 25.1 19.1 37s-6.4 28.5-9.2 32.8c-3.3 5.3-11.7 5.4-13.4 10.6-.9 8.1-2.1 16.4-2.5 24.5-1.5 29 1.4 45.2-10.8 73.2-3.6 8.2-12.7 20.4-14.9 27.1-4.2 12.8-.7 26.4-9.1 38.9-3.2 4.8-8.4 6.7-11.2 10.8-1.7 2.5-2.4 6.1-4.2 8.8-4.5 6.7-14.6 23-21.6 8.9-1.6-3.3-1.3-12.9-6.7-6.2-1.4 1.7-1.9 4.4-3.5 6.5-3.7 4.7-17.7 19.6-23.5 19.5-2.2 0-4.5-4.1-6.6-5.4-7.9-5-21.1-6.3-29.2-1.4-7.3 4.4-9.5 13.6-18.1 6.8s-6.4-10.8-20.1-9c-5.6.7-11.4 12.6-16.9 12.1-2.8-.2-11.4-11.1-18.5-12.6-6.3-1.3-17.5.7-23 4.2-2.6 1.7-4.1 5.6-7.5 5.4-5.7-.3-19.8-15.8-23.6-20.5-1.2-1.5-4.4-10.6-7.1-6.9-2.5 3.4-.6 9.9-7.2 12.7-7 3-14.9-11.2-18.1-16.4-1.2-1.8-1.2-4.3-2.6-6.4-2-3-6.8-5.4-9.5-8.5-10.4-11.9-6.7-27.7-10.7-41.3-.8-2.6-5.6-8.5-7.3-11.7-18.4-35.7-16.4-45.6-18.4-84.6-.4-7.7-.6-20.7-2.2-27.8-1.5-6.2-11.1-6.1-14.2-11.8-3.4-6.1-9.3-29.6-8.6-36.4 1.2-10.3 16.2-31.2 24-38 10.5-9.2 26.2-16.5 40-18.5l-21.5 17c-7.2 6.4-26.8 32-14.8 39.9 9 5.9 16.7-4.5 23.7-9.1 12.7-8.4 25.3-11.8 40.7-11.8l-17.3 7.2c-18 9.4-33.1 32.7-22.1 52.8 1.7 3.1 8.6 10.4 12 11.1 9.1 1.7 20.7-15.4 29.5-18 .6 6.4-.9 14.3 0 20.5zm-37.1 40.6c-12.3-.5-17.1-20.2-22.8 1.5-3.4 13 1.2 26.4 9.4 36.5 1.5 1.8 12.7 13.1 13.9 12.9.8 0 2.5-2.3 2.8-3.2 2.9-7.1-3.2-12.2-4.2-19.2-1.5-9.8 0-18.7.9-28.4Zm301.8-8.9c-3.2.8-6.3 6-8.8 7.3-2.1 1.1-7.2 1-7.8 3.2-.5 1.7 3 10.8 2.9 14.8 0 3-1.5 13.9-2.2 16.8-.9 3.6-3.9 5.7-3.9 10.2s1.4 7.1 3.7 7.4c1.9.3 15-14.4 16.8-17 5.7-8.5 9-18.8 7.3-29.2-.5-3-4.4-14.5-8-13.6Zm-284.8 10c-4-2.3-6.5 9.9-6.8 12.5-1.2 10.5 3 38 8.7 47.1 1.9 3 5.4 6.9 9.2 7.3 3.7-15.6 12.6-29.2 21-42.5-2.3-.4-1.7-2.9-2.7-3.5-1.5-.9-7-1.9-9.7-3.1-4.7-2.2-12-7.7-15.6-11.4-1.2-1.2-3.8-6.2-4.2-6.3ZM1139 1552c8.3-2 11.9-12.2 13.9-19.6 3.1-12.1 6.1-33.4 1.1-44.8-3-6.9-5.8 1.7-8.3 4.1-3.9 3.8-11 9.3-16 11.6-2.5 1.1-7.8 1.8-9.1 2.7-.7.5-.5 1.8-1 2.7-.3.4-1.7.4-1.6.9 0 1 7.9 12.3 9.2 14.8 4.8 8.8 9.1 18 11.8 27.7Zm-197.7 5.7c8.1 8.1 9.5 0 10.5-7.3.8-5.6 2.7-20.6 1.7-25.4-3.6-17.2-21.3-15.9-21.6 3.6 0 6.8 4.6 24.3 9.4 29.2Zm161.5-44.5c-5 1.3-8.5 9.3-8.8 14.2-.2 4 2.4 28.5 3.8 31.3 2.5 5 7.5 0 9.8-2.7 6.8-8.3 11.6-30.7 4.5-39.5-2.7-3.3-4.8-4.4-9.2-3.3zM1023 1544c-.7-.7-.8-7-5.1-9.4-8.9-5-21.8-.8-32-4-10.4-3.3-9.4-13.1-16.1 1.8-2.9 6.4-9.1 24.4-6.3 30.7 1.1 2.4 17.8 15.6 21.2 17.8s18.2 11.7 21.1 10c3.1-5.6 9.3-9.5 12.6-14.9 1.8-2.8 4.1-11.5 4.6-11.9 1.6-1.7 1.7.5 2.1 1.4 1.6 3.6 2.1 6.8 4.5 10.5 3.3 5.2 9.2 9.3 12.4 14.6 3.1 1.9 15.5-5.9 18.9-8.1 4.5-2.9 22.9-17 23.9-21.1 2.2-9.7-6.6-28.3-10.9-37.2-4.9 1-7.8 5.2-12.7 6.7-9.2 2.8-28.2-1.6-33.7 6.3-.9 1.2-2.6 8.9-4.5 7zm-136 18c-.7-.6-3.5 0-4.5.9-6 6.2 2.4 31.6 14.6 27.6 4-1.3 3.8-9.4 2.8-12.9-1.1-3.9-7.2-4.1-9.8-7.2-2.1-2.5-2.7-8.2-3-8.5Zm274.1 0c-.3.3-.9 6-3 8.5-2.6 3.1-8.7 3.3-9.8 7.2-1 3.4-1.2 11.6 2.8 12.9 13.4 4.4 20.2-24.5 14.1-28.1-.9-.5-3.5-.9-4-.4Zm-216.4 7.2c-1.5.4-5.1 4.6-6 6.1-3.4 5.6-5.6 32.3-4.8 39.3 1.3 10.9 15.2 18 19.5 3.5 1.7-5.6 2.6-21.4 2.5-27.6 0-1.1-5.8-19.7-6.5-20.5-1.2-1.4-3.2-1.3-4.8-.8Zm153.3-.1c.2 6.6-5.4 14.7-6 20.6-.5 4.5 1 25.3 2.4 29.4 4.2 12.1 16.9 7.3 19.1-2.9 1.1-5.2 0-16.8-.6-22.6-1-9.7-1.7-25.5-14.9-24.5m-180 1.9c-20.5 3.8-17 28.7-9 43 4 2.9 10.4-17 10.7-19.8.9-7.5-2.9-15.5-1.8-23.2Zm218 43c2.5 1.8 7.2-9.1 7.7-10.8 3.9-12.8 1.6-30.1-13.7-32.2.5 7.4-2.8 16.2-1.9 23.4.3 2.7 6.4 18.5 7.9 19.6m-148.2 10.2c1.4.8 4.8 8.6 9.5 11 11.1 5.8 20.2-6.4 20.7-16.7.8-13.7-7.2-7.7-16.5-8.6-8.4-.8-15-4.8-21.8-9.2-5.5-3.5-13.6-14.6-14.7-1.4-.5 5.1 1.4 7.5 1.8 11.2s-2 5.9.5 10.7c4.8 9.3 18 1.3 20.7 2.8zm93.1-31.1c-2.1-1.5-19.7 12.7-23.9 14.4-2.3 1-7.9 2.3-10.5 2.5-10.5.9-18.8-5.4-16.4 11.4 1 7.3 7.9 15.8 16 15.1 9.4-.8 11.9-11.6 14.6-12.4 4-1.3 12.3 5.7 18.9-1.1 4.3-4.4 1.3-8.4 1.5-12.5 0-2.3 1.9-4.8 2-8.1 0-1.9-.8-8.5-2.2-9.4Z" class="outline shading" data-original-prefix="shading" opacity="0.5" style="opacity: 0.5"/><path id="shading-mouth1" fill="#aaaaaa" d="M1041 1343c6.1.5 12.7-1 17.5-5 1.5-1.3.9-3.7 2.8-2.9 10.1 7.9 37.9 17.4 43.8 28.2 3.6 6.5 4.6 17.5-1.8 22.6-5.6 4.5-20.8 10.8-28 15-4.9 2.8-9.7 6.6-14.7 9.3-7.4 4.1-25.5 14.5-32.6 16.4-2.9.8-5.2.8-8.1 0-14.5-3.8-42.2-22.5-56.3-30.7-6.2-3.6-21.2-9.1-23.2-15.8-5.5-18.4 15.7-28.3 28.7-35.4 2.3-1.2 15.5-8.6 16.5-8.7 2.9-.3 4.2 2.9 6.7 4.2 4.2 2.3 10 3.2 14.7 2.8-.3-5.1-3.3-11.3-1.8-16.3.5-1.6 12.5-13.9 14.5-14.4 3.9-1 8.2-.3 11.6 1.9 1 .7 10.8 11.1 11.2 11.8 2.1 5-1.2 11.8-1.5 17" class="outline shading" data-original-prefix="shading" opacity="0.5" style="opacity: 0.5"/><path id="outline-mouth3" fill="#000000" d="M889 1333c-13.5 7.3-27.4 9.4-38 21.5-7.1 8.2-19.1 26.1-18 37 .3 3.5 7.3 25.1 9.2 27.8 2.7 4 6.1 4.9 10.8 4.7-1.4-9 4.2-18.1 9.6-24.9 2.1-2.6 22-22.5 24.4-20.1-1.7 6.5-8.8 10.4-13 15.5-8.1 10-12.3 23.6-9.5 36.5 1.2 5.7 11 25.8 15 30 .7.7 7.1 6.3 7.5 6.5 3 1.5 6.9-6.1 7.8-8.2 1.7-3.8 2.1-7.7 3.7-11.3 4.4-10.2 9.4-18.4 18.5-25-5.1 13.9-9.5 44.6 1.5 56.1 4.8 5 9.9 2.7 14.3 4.7 2.8 1.3 3 5.7 4.8 6.1 2.6.6 7.2-4.9 14.1-2.1 5.2 2.1 8.6 15.6 13.9 16.1 2.5.2 10.2-12 18.4-9.4 5.6 1.8 19.1 24.8 24.4 23.5 6.1-5.4 3.7-12.4 5-19 1-4.8 6.1-10.3 7.8-15.2 3.7-10.9 1-26.5-1.9-37.5-.3-1.1-6.2-13.2-6.9-14.1-3.8-5.5-20.6-13-23-3.1-.4 1.8.2 7.9-2 7-4.8-4.4-9.5-9.2-14.5-13.5-3.8-3.3-11.2-7.6-14-11-3.5-4.3-14.5-27.1-14.7-32.2 0-3.1 8.4-13.8 10.8-16.8 1.4-1.7 10.5-12.5 11.2-12.8 6.4-3.2 28-2.3 34.7.8 8.4 3.8 12.4 12.1 18.5 17.5 5.2 4.5 2.5-1.7 2.5-3.6s.9-3.2.8-4.8c-.2-5.4-6.7-9.2-9.9-13.1-2-2.4-5.5-6.3-7-8.3-1.2-1.7-5.1-7.9-4.8-9.5.4-2.6 11.3-13.4 12.9-11.7-4.4 12.8-.7 8.7 7.3 12.2 1.2.5 3 2.7 3.2 2.7s2-2.2 3.2-2.7c3.4-1.5 9.7-.4 9.3-5.6 0-1.1-4.1-7.6-.5-6.6 2.8.8 12.1 10 11.3 13.2-6.2 9.4-13.5 17.8-21.1 26l-.8 12.7c1.7.4 2-.7 3-1.5 9.5-7.3 13.4-18 27.5-19.5 5.1-.6 23.6-.6 27.2 2.3 3.2 6.4 21.2 22.7 21 29 0 3.4-6.3 16.9-8.2 20.7-6.8 13.3-9.3 12.6-19.5 21.5-5.3 4.6-10.4 9.6-15.5 14.5-2.2.9-1.4-5.6-2.2-7.7-3.4-8.6-19-1.6-22.7 3.8-.6.9-6.2 11.4-6.6 12.4-1.3 3.6-.5 6.5-1.2 9.8-2.6 12.3-5.2 19.6.2 32.2 1.5 3.5 4.6 6.8 5.8 10.2 2.4 7.1-.8 16.6 6.6 21.1 8.3-2.8 16.9-21.3 23.6-23.5 7.7-2.4 15.9 9.6 18.4 9.4 5.6-.5 9.4-18.8 18.7-17.4 2.2.3 8.4 3.7 9.4 3.5 1.7-.4 2-4.9 4.8-6.2 3.9-1.8 8.9 0 13.3-3.7 11.5-9.9 8.1-43 2.5-56 1.6-1.6 11.3 10.4 12.4 12.1 4.9 7.6 6.1 15.6 9.7 23.3 1 2.1 4.8 9.8 7.8 8.2.4-.2 6.9-5.8 7.6-6.5 7.1-7.7 15.9-30.1 15.4-40.5-1-22.4-10.8-22.9-21.5-37.5-5.3-7.2 2.8-2.4 6 0 11.8 8.6 28 25.5 26.5 41 11.4 1.6 13.7-11.7 16.3-20.2 4.6-15.6 5.3-18.8-3.1-33.4-7.4-13-16.3-22.7-29.9-29.1-6-2.8-14.1-4.1-19.2-8.3 9.3.7 19.7 2.8 29.2 5.3 7.4 1.9 14.4 3.9 20.7 8.3 3.2 9.3 27.6 34.6 28 42 .2 3.9-8.4 23-10.2 28.7-2.4 7.4-1.3 15.8-9 20-2.1 1.1-8.8 2.4-9.5 3-3.6 3.6-1.9 26-2.2 32.3-1.2 29.7-2.2 52.7-20.5 77.5-.9 1.2-2.6 1.5-3.6 2.7-4.3 5.6-2.8 18.6-4.3 26.5-1.1 6-5 13.1-5.6 18.4-.4 3.6 1.4 7.3.2 10.1-1 2.4-9.9 8-12.6 9.5-2.2 1.2-5.7 1.5-6.5 2-.6.4-5.4 10.9-7.2 13.3-2.1 2.7-11.1 11.3-14 12.1-4.1 1.2-7.9-10.3-9.9-13s-2.3 2.3-3.6 4.3c-4.3 6.7-25.1 26.6-32.4 28.6-1.7.5-3.3.7-5 .5-.2-6.5 3.6-11.9-3-16.5-7.6-5.2-17.7 0-21.5 7.4-4.2 8.3-1.8 29.9-14.4 16.5-7.1-7.5-13-17.8-18.5-26.4-2.8 5-19.9 30.6-24 31-5.8.6-5.9-11.5-7.2-15.8-2.5-8.5-10.5-17.7-20-14.4-12.1 4.1-4.7 16.7-6.3 18.2-6 1.1-9.7-4.5-15-5-1.3 6.3-5.2 11.9-5.1 18.5.2 11.2 13.9 23.7 10.9 33.8-.8 2.7-3.4 3.2-5.5 1.4-3.7-3.3-7.9-17.8-10.4-23.1-3.8-8-11.3-14.9-9.4-23.7 1-4.7 7.9-13.9 7.6-17.4-.5-5.3-12.8-12.5-12-18.6-1.2-.2-1.3-.3-2.1.6-2.1 2.7-6.2 14.3-10.2 13.3s-12-10.2-13.7-12.4c-2.1-2.7-6.6-12.8-7.2-13.2-.7-.5-4.2-.8-6.5-2-2.5-1.3-12.6-7.8-13.2-9.9s1.2-6.2.8-9.7c-.6-5.1-4.5-11.5-5.6-17.4-1.7-8.4.3-19.9-3.9-26.1-5.9-8.8-10.5-12.8-15.3-23.7-13.6-31.3-7.5-52.3-10.1-83.9-.8-9.9-3.8-5.3-10.8-9.3-8.2-4.6-6.8-13.1-9.3-20.7-1.9-5.9-9.7-21.8-10-26.1-.2-3.3 1.1-4.7 2.5-7.3 6.8-12.4 18.9-24.3 26.1-36.9 5.9-4.3 13.2-6 20.1-7.9 9.7-2.6 19.8-4.7 29.2-5.3Zm15 128c-1.4-1.5-7.8 8.9-8.4 10.1-10.6 19.9-8.6 50.8-1.8 71.7 1.1 3.3 9.4 22.1 12.8 21.2 4.4-1.1 10.8-28.9 12.8-34.3 4.3-11.7 13.6-22.1 8.6-35.6-4.8-.6-12.2 1.2-15.9-2.9-1.4-1.5-8.5-21.7-8.8-24s.8-4 .8-6.2Zm240 103c.6-.4 6.8-10.5 7.5-12 6.2-12 8.8-32.9 9.5-46.5.8-15.3-4.1-32.2-14.6-43.5l-2.2 9.8c-4.9 13.6-4.6 25.2-23.1 22.4-5.2 13.7 4.3 23.9 8.6 35.6 3.1 8.4 6 27.5 11.8 33.2.7.7 1.4 1.8 2.4 1.1Zm-262.3-85.7c-1-.9-4.6-2-6.6-3.9-4.2-3.9-7.8-13.1-14-4.7-13.3 17.9-4.1 44.9 7 61.7 1.6 2.4 11.5 15.7 13.3 15.7.5-8 1.2-16.5.5-24.5-.4-5.4-3.1-12.3-3.1-18s6-23.3 2.8-26.2ZM1167 1547c1.7.4 2-.5 3-1.5 17.5-18 32.6-50.9 18.4-74.4-6.5-10.8-10.8-.4-16.9 4.9-2 1.7-5 1.6-5.5 4.5-.8 4.5 4 18.3 4 24s-3.3 14.8-3.6 21.2 1.6 14.6.6 21.3m-219.1-51.9c-4.7-3.3-6.5 7.1-7.7 9.6-5.3 11-11.8 23-12.2 35.8-.2 7.6 10.5 26.2 19.1 21 3-1.8 4.7-18 5-22 .4-6.4.2-41.4-4.1-44.4Zm67.8 32.2c-3.2-2.8-9.7 3.2-15.8 1.3-2.1-.7-8.7-7.5-10.5-9.5-2.6-2.9-3.4-8.8-8.2-7.4-12.2 3.5-20.5 24.1-21.2 35.9-.9 13.6 2.4 21.7 11.5 31.5 9.8 10.4 24 15.7 36.1 23h2.3c2.1-6.4 6.2-12 8.1-18.4 3.7-12.2 7.9-47.3-2.3-56.2zm23.4 74.6c1.1.7 3.4 0 4.6-.7 5.6-2.4 20.1-11.1 25.2-14.8 13.4-9.8 21.4-21.7 20.1-38.9-.9-11.9-9.2-33-22-36.1-4.4-1.1-5.5 5-8 8-1.7 1.9-7.3 7.9-9.2 8.8-9.2 4-14.3-9-20 5-5.4 13.2-2.6 37.5 1.5 51.1.7 2.2 7.1 17.1 7.9 17.6ZM885 1559c-3.2-3.3-6.4 8.4-5.8 12.3.7 4.5 5.4 23.4 7 27 1 2.2 6.2 8.5 8.7 6.7 3.4-2.4 3.2-20.7 4-25.4-.5-3.1-8.3-6.1-11-10-2.3-3.5-2.6-10.1-3-10.5Zm32 4c-1.9-2.2-11.8 12.5-12.4 14.1-1.7 4.6-3 25.2-2.4 30.3.9 7.9 5.6 18 11.4 23.6 1.4-8.8 5-18.6 5.5-27.5.8-13.1-3.7-27.1-2-40.5Zm218 68c7.1-5.4 12.1-18.8 11.8-27.5 0-2.6-1.7-5.2-1.8-8-.3-5.4.8-12.5-.5-17.5-.6-2.3-10.4-17.3-12.5-15 1.5 13.8-3.1 28-2 41.5.7 8.7 4.6 17.6 5.1 26.5Zm-35-62c-2.8 14.2-8.1 27.9-9 42.5-.3 5.3-1.4 33.3 3.6 34.4 2.4.6 18.8-13.3 20.9-15.9 8.3-10.5 3.8-32.3-1-44-1.2-2.9-11-19.9-14.5-17m-82 44c-3.5 0-6.1 2.5-9.6 2.9-12.7 1.6-29.1-13.9-41.4-16.9v24.5c0 .6 3.2 8.2 4.1 8.9 6.5 5.2 18.9-.4 24.4 5.6 2.6 2.9 4.3 10.3 10.6 5.5 1.1-.8 11.9-13.1 11.9-14.1v-16.5Zm64-13c-13.2 1.2-27.8 17.6-41.4 15.9-3.5-.4-6.1-3-9.6-2.9v17.5c0 1.1 13 14.6 15.4 14.5 4.9-.3 5.1-4.7 7.1-7 5.5-6 18.3-.4 24.4-5.6 1-.9 4-9.7 4-11v-21.5Z" class="outline" data-original-prefix="outline"/><path id="outline-mouth2" fill="#000000" d="M1122 1332c-.2 0 .2 1.6 0 1.9-1 .8-8.1-5.8-10.2-7.1-10-6.1-19.8-8.3-31.2-9.8-2.9-.4-6.9.7-9.5-.5-1.5-.8-4.5-7.4-6.5-9.5-7.8-8.7-15.6-10.2-25.8-13-1.1-.3-.6-1.9-.7-2 3.1-3.8 16.2-9.3 20.8-9.8 7.9-.9 5.5 4.4 6.5 9.1 2.3 10.7 9.3 19.6 21.3 18.8 5.1-.3 5.6-4 7.9-4.1 1.4 0 6.6 2.9 8.2 3.8 9.4 5.2 15 12.5 19.3 22.2z" class="outline" data-original-prefix="outline"/><path id="outline-mouth1" fill="#000000" d="M1011 1292s.4 1.7-.7 2c-10.2 2.8-17.4 4.1-25.4 12.5-2 2.1-5.6 9.2-7.2 9.9-3.4 1.4-13.5 1-18.1 1.8-12.5 2.1-23.6 8.7-33.1 16.9.2-.9-.5-2.8-.5-3 .7-2.3 8.9-13.5 11-15.5 2.4-2.4 14.7-10.5 17.6-10.4s3 5.1 11.9 3.9c10-1.3 16.2-10.1 17.5-19.6.4-2.6-2.4-6.7 2.8-8.2 3.5-1 21.7 5.6 24.3 9.8Z" class="outline" data-original-prefix="outline"/>
    </g><g class="trait-group" data-category="eyes" id="eyes-OG-bandaid-glare">
      <path id="fill-skull" fill="#ffffff" d="M696 1136c-.3-2.4 0-2.8-2-4.5-3.8-3.1-19.7-8.2-21.1-10-.9-1.1 0-9.9.2-12 1.5-9.1 10.6-28 15-37 7.5-15.3 16.9-29.8 25.4-44.6 2.9-2.6 22.1-1.3 27-1 6 .4 15 1.2 20.9 2.1 3.1.5 18.9 5.6 19.6 4.9s-.2-2.5-1-3.4c-1.5-1.7-7.4-5.7-9.6-7.4-8.9-6.4-18.8-11.3-28.3-16.7-2.1-2.2 1.8-10 3.2-12.9 18.8-41 87.4-78.6 126.5-98.5 24-12.2 48.7-26 74.6-32.4 60.6-14.9 133.1-14.5 190.1 12.4 45.2 21.3 98.3 47.1 135.2 80.8 14.7 13.4 32 30.7 35.3 50.9-12.1 6.7-28 14-37.9 23.6-1.1 1.1-2.3 1.7-2 3.5 7.2-1.2 14.2-3.9 21.5-5 9-1.4 25.1-3.1 34-3.1s10.1.7 11.8 1.1c2.6.6 24.2 41 26.9 46.3 5.6 11.3 17.1 35.2 14.8 47.2-.6 3.1-5.1 3.1-7.7 4.3-3.1 1.4-11.1 4.9-13.3 6.7-1.7 1.4-1.8 3.3-2 3.5-3.4 2.5-8.7 4.1-12 7l-19.9 2.9c-6.4-28.3-15.3-59.3-32.3-83.2-3.2-4.5-11.1-14.8-15.3-17.7-9.4-6.6-26.9-7.8-35.5-13.5-6.2-4.1-19.1-22.3-26-29-19.1-18.4-34.9-29.3-62.4-18.3-13.1 5.2-37.8 24.8-39.6 39.5-.7 6.1 3.7 18.8 5.7 25.2 5.1 16.5 12.8 32.3 18.3 48.6-.7 3.3-34.2 15.6-39.1 23.2-4.4 6.8-9.2 18.8-12.5 26.5-5.1 12-9.6 24.6-13.5 37 3.8-2.9 7-6.8 10-10.5 9.2-11.4 16.7-25.8 25.5-36.5 6.3-7.6 25.6-22.8 34.1-28.9s10.2-5 16.9 3c15.1 18.1 36.9 56.7 46.4 78.6 1.3 3 4.9 10 4 12.7-13.4 9.6-26 22.4-39.6 31.5-14.1 9.4-30 14.5-46.9 16.1-21.3 2-41.9-10.2-62.4-13.9 11.3 10.2 27.4 18.1 20.9 36.4-.5 1.5-.8 3.1-2.9 2.6-2.9-4.8-22.3-15.4-24-19-3.5-7.5-4.8-8.6-9.2-15.3-6.5-9.9-11.7-21.7-10.3-33.7-6 2.7-8.5 1.9-14.5 0 2.4 9.8-3.1 22.9-8.2 31.3-3.3 5.6-9.6 10.4-10.8 16.7l-25 19c-.2-.3-2.3.8-2.9-3.6-2.5-19.3 7.7-22 20-32.8 1-.8 2.5 0 1.9-2.6-19.9 5.8-42.2 16.9-63.4 14.9-44-4.3-65.6-34.1-99.3-57.7-32.9-23-68.4-36.7-107.1-46.9-4.7-1.2-11.5-1.2-15.2-2.3-2.8-.8-7.3-5.8-11-6Zm284 47c1.8-2-16.4-44.5-18.8-49.7-3.2-6.7-6.3-13.3-11.2-18.8-19.9-10.8-40.9-20.3-60.6-31.4-14-7.9-26.5-19-42.3-23.2-1.4 1.4 6.9 7.5 8.1 8.4 26.9 20.6 64.8 41.2 87.9 66.1 11.7 12.6 20.2 32.4 33.8 46.2 1 1 1 2.8 3.2 2.3h-.1Zm13.5 50v1c.7-.3.7-.7 0-1" class="fill" data-original-prefix="fill"/><path id="fill-bandaid2" fill="#ffffff" d="M1227.3 1043.7c4.2 4.2 19 3.9 25.9 5.6 10.1 2.5 15 5.5 21.8 13.2 13.3 15.2 24.8 38.7 29.7 58.3 1.5 6.1 4.9 20 4.3 25.7-.7 7.3-7.5 10.7-13 14-15.9 9.4-48.1 24.5-65.5 30.5-3.6 1.3-10.7 4.9-13.4 1.4-14.5-27-27.9-54.6-44.9-80.1-2.5-3.7-12.1-14.8-12.3-17.8 0-1.3.5-3.2 1.4-4.2l52.2-34.3 1.5-4c-2.1-2.1-31.4 12.5-35.7 14.8-8.1 4.4-21.1 14.6-28.6 17.4-5.7 2.1-7.7-4.4-10.5-8.9-6.3-10.2-16.9-34-16.2-45.8s17.8-26.6 27.4-31.7c29.9-16 43.9 5.7 61.6 26.7 4.5 5.3 10 14.8 14.4 19.1h-.1Zm-53.6-35.5c-4 1.2-3.8 8.2.8 8.9 7.9 1.1 7.1-11.2-.8-8.9m-34.5 19c-3.9 3.9 1.1 12.3 7.3 7.8s-2.8-12.4-7.3-7.8m32.5 4c-3.9 1.2-3.9 8 .8 8.8 9.5 1.6 6.8-11.1-.8-8.8m31.1 13.6c3.8-3.8-2.4-11.5-7.3-7.8-6.2 4.6 2.4 12.7 7.3 7.8m-39.6 19c3.1 3.1 9.2 1.4 8.8-4.2-.6-9.8-14.9-1.8-8.8 4.2m61.1 110.9c6.8 5.5 33.6-5 41.4-8.5 8.6-3.9 29.9-14.7 31.9-24.1 3.1-14.6-13-47.2-21.3-59.8-4.1-6.2-13.8-21-21.6-20.2-13.5 1.4-59 26.9-67.1 37.9-3.3 4.4-3.2 6-1 11.1 4.5 10.4 14.6 26 20.7 36.2 3.1 5.1 13.8 24.8 17.1 27.4Z" class="fill" data-original-prefix="fill"/><path id="fill-bandaid1" fill="#ffffff" d="M1252.8 1072.2c1.2 0 2.2-.4 3.5 0 3.3.9 18.5 24.7 20.9 29.2 4.2 7.8 13.2 27.6 11.8 36.1-1.5 9.1-26.3 20.4-34.4 23.6-4.2 1.7-21.7 7.9-24.8 6.8-1.9-.6-14.8-22.6-16.8-26.2-2.7-4.7-18.1-33.2-17.7-35.9.2-1.3 1.4-2.8 2.3-3.8 7.2-8.1 44.8-28.6 55.3-29.7h-.1Z" class="fill" data-original-prefix="fill"/><path id="shading-eyes" fill="#aaaaaa" d="m929 867-29.9 17.6c-30.3 20-71.8 72.2-84.9 106.1-7.7 19.8 15.6 44.8 28.9 57.8 38.7 19.6 77.6 39.1 113.5 63.5 14.3 19.1 24.9 49.3 40 66.9 6.5 7.6 13.5 4.7 18 8 1.1.8 4.3 7.4 5 9 1.1 3-.8 7.2 4.1 7.8 4.3.5 3.4-4.4 4.9-7.7.8-1.9 3.6-8.2 4.9-9.1 2.2-1.6 10.3-2.3 13.8-4.2 10.7-5.8 33.6-58 43.2-69.8 15-11.9 32.4-20.3 48.5-30.5-7.7-10.2-13.6-22.5-17.2-34.7-.9-2.9-3.4-11.1-3.5-13.5 0-3.7 9.2-13.4 11.2-17.3 3.1 20.7 8.2 42.3 22 58.8l54-27.8c15.3-16.7 36.6-36 26.7-60.7-12.6-31.4-53-81.9-80.9-101.1l-32.3-19.2h22.5c4.4 0 41.6 19.2 48.2 22.8 47 25.9 92 62.9 123.7 106.3 2.8 3.8 12.4 14.4 8.3 18.7-3.2 3.3-25.6 8.5-31.7 10.8-36.2 13.6-77.5 29.7-110.7 49.3-2.6 1.5-18.5 11.3-19.1 12.4-3.5 6.1 7.2 13.2 10.8 17.3 10.8 12.8 19.2 28.1 27.2 42.8 1.4 2.5 7.2 16 7.9 16.6.8.6 5.6-.6 5.8-.9.4-.6-.2-2.2-.4-3-1.6-6.5-10.4-24.4-13.7-31.3-.9-1.9-8.6-14-7.8-14.6l8.8.2c7.3 13.8 15.4 28 26.8 38.8 29.8-25.1 64.3-43.3 97.9-62.9l32.4.5c4 2.4 10.3 24.6 15.6 29.4 1 1 5.9 2.1 4.4 4-.3.4-7.4 2.6-9 3.5-8.2 4.3-25.9 12.5-32.3 17.7-2.7 2.2-.5 5-3.2 6.8L1093.3 1287c-14.5-10.8-30.2-21-43.8-32.8-7.8-6.8-14.2-15.6-22.1-21.9-2.7 1.3-6.1-.6-8.4.4-1.5.7-16 17.3-19.6 20.5-8.4 7.5-27.4 23-36.6 28.4-2.1 1.2-4.3 3.2-6.9 2.2l-240-133.1c-1.4-1.6-.5-3.7-2.6-5.4-6.6-5.3-25.2-13.8-33.7-18.3-1.4-.7-7.4-2.5-7.7-2.8-1.4-1.9 3.7-3.1 4.9-4.6 3.6-4.4 11.6-27.2 15.1-28.9h33c21.4 12.9 44.7 24.7 65.5 38.5 18.6 12.3 35.7 27.9 54.2 40.8 28.2 19.8 67.5 44.8 99 58 17.4 7.3 25.6 4.6 43.5.8 6.2-1.3 19.7-6.3 24.5-6.4 2.5 0 7.8 3.9 12.8 3.8 4.6 0 9.2-3.9 11-4 2.1 0 11.4 3.5 14.7 4.3 10 2.3 27.5 6.9 37.3 6.7 11.2-.2 38.4-15.9 49.2-21.9 20.6-11.3 40.6-23.9 59.9-37.2l-49.9-76.9c-9.6 7.8-19.8 14.8-29.1 22.9-16.3 14.2-29.5 34.3-41.8 52.2-4.9 7.2-6.3 13.4-13.3 19.7-2.1 1.9-22 16.2-23.4 16.6-1.9.6-28.2.6-30.1 0-1.3-.4-19.7-13.4-21.9-15.1-8.5-7-9.6-13.4-15.3-21.7-18.6-27.2-30.8-43.5-56.9-64.1-49.5-39-98.9-60.6-157.6-82.4-5.5-2-29-7.4-31.3-10.6-1.7-2.4-1-4.6.2-7 4.8-9.4 21.7-29.2 29.3-37.7 33.5-37 80.1-70.5 125.2-91.8 3.3-1.6 24.3-11.1 25.9-11.1H929Z" class="outline shading" data-original-prefix="shading" opacity="0.5" style="opacity: 0.5"/><path id="outline-eyes12" fill="#000000" d="M1075 1274c2.1.5 2.3-1.1 2.9-2.6 6.6-18.3-9.6-26.2-20.9-36.4 20.4 3.6 41.1 15.9 62.4 13.9 16.9-1.6 32.9-6.7 46.9-16.1 13.6-9.1 26.2-21.9 39.6-31.5.9-2.7-2.7-9.7-4-12.7-9.5-21.9-31.3-60.5-46.4-78.6-6.7-8-8.7-9-16.9-3s-27.8 21.3-34.1 28.9c-8.8 10.7-16.3 25.1-25.5 36.5-3 3.7-6.1 7.6-10 10.5 3.9-12.4 8.4-25 13.5-37 3.3-7.7 8.1-19.8 12.5-26.5 4.9-7.6 38.4-19.9 39.1-23.2-5.5-16.2-13.2-32-18.3-48.6-2-6.4-6.4-19.1-5.7-25.2 1.8-14.7 26.5-34.2 39.6-39.5 27.5-11 43.2 0 62.4 18.3 6.9 6.7 19.9 24.9 26 29 8.6 5.7 26 7 35.5 13.5 4.2 2.9 12.1 13.2 15.3 17.7 16.9 23.9 25.9 54.9 32.3 83.2l19.9-2.9c2.8 5.2 2.2 12.1 3.3 18.2.8 4.3 4.4 14.4 4.5 17.5 0 1.8-10.3 15.7-8.8 17.3 2.2 2.4 7.6-14.3 12-10.5 0 2 .2 4 0 6-.9 8.1-7.9 29.6-10.7 38.3-3.2 9.6-6.2 16.4-12.8 24.2-3 3.5-24.9 26.6-27.1 27.9-11.1 6.1-35 7-48.8 11.2-4.6 1.4-8.8 4-13.6 4.9-.2 1.8 2.2.9 3.2.7 4.8-.8 8.7-3.8 13.5-4.5 3.7-.6 9.9-1.1 13.8-1.2 3.2-.2 8-.4 11 0 5.7.7-3.1 3.3-4.2 3.8-9.5 4.7-20.6 11.1-30.3 14.7-19.3 7-76.2 9.8-96.2 5.3-7.3-1.7-22.2-17.8-29.8-23.2-2.9-2-11.6-7.8-14.4-8.6-4.2-1.2 1.3 9.2.5 10-14.9 1.2-22.3-6.1-30.5-17.1-.7-1-.3-2.6-.5-2.9zm152.3-230.3c-4.4-4.3-9.9-13.8-14.4-19.1-17.8-21-31.7-42.7-61.6-26.7-9.6 5.1-26.8 20.2-27.4 31.7s9.9 35.6 16.2 45.8c2.8 4.5 4.8 11.1 10.5 8.9 7.6-2.8 20.5-13 28.6-17.4 4.2-2.3 33.6-16.9 35.7-14.8l-1.5 4-52.2 34.3c-.8 1-1.4 2.9-1.4 4.2.2 2.9 9.8 14.1 12.3 17.8 17 25.5 30.4 53.1 44.9 80.1 2.7 3.5 9.8 0 13.4-1.4 17.4-6 49.6-21.1 65.5-30.5 5.6-3.3 12.3-6.7 13-14 .6-5.7-2.8-19.7-4.3-25.7-5-19.6-16.4-43.1-29.7-58.3-6.8-7.7-11.7-10.7-21.8-13.2-6.9-1.7-21.6-1.5-25.9-5.6h.1Z" class="outline" data-original-prefix="outline"/><path id="outline-eyes11" fill="#000000" d="M696 1136c.4 3.7-.6 12.1-1.9 15.6-.4 1.2.6 1.6-1.5 1.4-7.9-1.7-16.8-6.9-24.1-8.9-12.6-3.4-24.6 3.3-23.5-15.6 1.7-29.3 21.8-78.4 37.6-103.4 4.3-6.9 19.5-29.6 26.4-31.7 3.1-.9 7.2 1.5 8.9.5.4-.3 3.7-6.5 5.2-8.3 54.7-66.9 129.4-124 216-141 63.4-12.5 145.8-10.7 207.5 9.5 61.9 20.2 144.3 82.1 181.3 135.7 1.3 1.9 2 5.1 2.2 5.3.4.4 7.2-2.1 9.3-1.8 1.3.2 8.1 5.5 9.2 6.8 24.3 25.9 52.8 92.5 55.3 127.7.4 5.4.4 11-4.6 14.2-15.5.2-29.3 6.3-43.8 11.2-1.1 0-3.2-16.1-2.5-18 .2 0 .3-2.1 2-3.5 2.2-1.8 10.2-5.3 13.3-6.7 2.6-1.2 7.1-1.2 7.7-4.3 2.3-12-9.3-35.8-14.8-47.2-2.6-5.4-24.3-45.8-26.9-46.3-1.8-.4-9.7-1.1-11.8-1.1-8.9 0-25 1.7-34 3.1-7.3 1.1-14.3 3.8-21.5 5-.4-1.8.9-2.5 2-3.5 9.9-9.6 25.8-16.9 37.9-23.6-3.3-20.2-20.7-37.5-35.3-50.9-36.9-33.7-90-59.5-135.2-80.8-57-26.9-129.6-27.3-190.1-12.4-25.9 6.4-50.6 20.2-74.6 32.4-39.1 19.9-107.7 57.5-126.5 98.5-1.3 2.9-5.3 10.6-3.2 12.9 9.5 5.4 19.4 10.3 28.3 16.7 2.3 1.6 8.2 5.6 9.6 7.4.8.9 1.8 2.7 1 3.4s-16.5-4.4-19.6-4.9c-5.9-.9-14.8-1.7-20.9-2.1-4.9-.3-24.1-1.6-27 1-8.5 14.8-17.8 29.3-25.4 44.6-4.4 9-13.5 27.8-15 37-.3 2.1-1.1 10.9-.2 12 1.4 1.7 17.2 6.9 21.1 10 2.1 1.7 1.8 2.1 2 4.5v-.4z" class="outline" data-original-prefix="outline"/><path id="outline-eyes10" fill="#000000" d="M707 1142c3.7 1.1 10.5 1.1 15.2 2.3 38.7 10.2 74.2 23.9 107.1 46.9 33.7 23.6 55.2 53.4 99.3 57.7 21.2 2.1 43.4-9.1 63.4-14.9.7 2.6-.9 1.8-1.9 2.6-12.3 10.8-22.5 13.5-20 32.8.6 4.4 2.7 3.3 2.9 3.6.4.5.9 3.1.5 4-.5 1.1-13.2 13.7-14.6 14.5-1.8 1-15.2 3.3-15.9 2.6-.2-2.8 1.7-4.6 2-7.5.2-1.5.6-2.8-1.4-2.4-4.5.9-14.5 8.5-18.5 11.5-5.8 4.3-16 15.7-20.7 18.3-10.6 5.9-66.5 3-80.8 1-20-2.8-35.2-11.2-52.9-20.1-.8-.4-7.6-2.1-2.2-2.8 2.3-.3 5.6 0 8 0 4.6.2 11.4.6 15.8 1.2 4.8.7 9.5 3.7 14.5 4.5 1.1.2 3.5 1.1 3.2-.7-20-9.2-42.5-9.1-62.9-16.6-9.1-11.9-23-21.4-31.3-33.7-5.7-8.5-17.6-45.9-18.8-56.2-.2-2 0-4 0-6 .7-5.3 9.8 9.8 10.4 10.6.4.5 1.1 3.7 2.6 1.9 1.7-2-9.5-16.9-9.8-18.7-.2-1 3.9-15 4.4-18.2 1.1-6.1 1.3-12.2 2.3-18.2z" class="outline" data-original-prefix="outline"/><path id="outline-eyes9" fill="#000000" d="M998 1254c1.2-6.3 7.5-11.1 10.8-16.7 5.1-8.5 10.6-21.5 8.2-31.3 6 1.8 8.5 2.6 14.5 0-1.4 12 3.8 23.9 10.3 33.7 4.4 6.7 5.8 7.8 9.2 15.3-3.3 0-4 4.3-7 4-.9-5.7-7.9-7.8-12-12.5-1.2-1.4-2.9-3.6-3.9-5.1-.9-1.3-.8-4.1-1.7-4.4-5.5-1.6-6 5.6-9.4 9.5-3.8 4.4-11.3 6.9-12 12.5-1.4 1.3-5.2-4.4-7-5" class="outline" data-original-prefix="outline"/><path id="outline-eyes8" fill="#000000" d="M980 1183c-2.2.5-2.2-1.3-3.2-2.3-13.6-13.8-22.1-33.7-33.8-46.2-23.1-24.8-61-45.4-87.9-66.1-1.2-.9-9.5-7-8.1-8.4 15.8 4.1 28.3 15.3 42.3 23.2 19.7 11.1 40.7 20.6 60.6 31.4 4.9 5.5 8.1 12.1 11.2 18.8 2.5 5.2 20.6 47.7 18.8 49.7h.1Z" class="outline" data-original-prefix="outline"/><path id="outline-eyes7" fill="#000000" d="M993.5 1233c.7.3.7.7 0 1z" class="outline" data-original-prefix="outline"/><path id="outline-eyes6" fill="#000000" d="M1224.3 1174.7c-3.3-2.6-14-22.3-17.1-27.4-6.1-10.3-16.2-25.9-20.7-36.2-2.2-5-2.3-6.6 1-11.1 8.2-11 53.7-36.6 67.1-37.9 7.8-.8 17.5 14 21.6 20.2 8.3 12.6 24.4 45.2 21.3 59.8-2 9.4-23.2 20.2-31.9 24.1-7.8 3.5-34.6 14-41.4 8.5Zm28.5-102.5c-10.6 1.2-48.1 21.7-55.3 29.7-.9 1-2.1 2.5-2.3 3.8-.4 2.8 15 31.2 17.7 35.9 2.1 3.6 15 25.5 16.8 26.2 3.2 1.1 20.6-5.2 24.8-6.8 8.2-3.2 32.9-14.5 34.4-23.6 1.4-8.5-7.6-28.3-11.8-36.1-2.4-4.5-17.6-28.2-20.9-29.2-1.3-.4-2.2 0-3.5 0h.1Z" class="outline" data-original-prefix="outline"/><path id="outline-eyes5" fill="#000000" d="M1139.2 1027.2c4.5-4.5 13.7 3.2 7.3 7.8s-11.2-3.9-7.3-7.8" class="outline" data-original-prefix="outline"/><path id="outline-eyes4" fill="#000000" d="M1202.8 1044.8c-4.9 4.9-13.5-3.2-7.3-7.8 4.9-3.6 11.2 4.1 7.3 7.8" class="outline" data-original-prefix="outline"/><path id="outline-eyes3" fill="#000000" d="M1163.2 1063.8c-6.1-6.1 8.3-14.1 8.8-4.2.3 5.7-5.8 7.3-8.8 4.2" class="outline" data-original-prefix="outline"/><path id="outline-eyes2" fill="#000000" d="M1171.7 1031.2c7.6-2.3 10.4 10.4.8 8.8-4.7-.8-4.8-7.7-.8-8.8" class="outline" data-original-prefix="outline"/><path id="outline-eyes1" fill="#000000" d="M1173.7 1008.2c7.9-2.3 8.8 10 .8 8.9-4.6-.7-4.9-7.7-.8-8.9" class="outline" data-original-prefix="outline"/><path id="fill-pupil-rt" fill="#ffffff" d="M1163.8 1250.1c.2 0 .8 2.1 1.6 2.9 8.5 8.8 16.3 15.8 29.2 11.2 9.7-3.5 18.3-14 18.2-24.6 0-3.7-4.3-17.1-3.4-18.6.5-.8 5.9-4.1 6.9-3.9 1.7.3 5.4 7 6.1 8.9 10.5 25.7-9.3 56.5-37.7 53.7-13.3-1.3-29.2-10-33.7-23 .5-2.1 11.2-7.5 12.8-6.6" class="fill" data-original-prefix="fill"/><path id="fill-pupil-lft" fill="#ffffff" d="M884.2 1250.1c1.6-.9 12.2 4.5 12.8 6.6-4.5 13-20.4 21.7-33.7 23-28.4 2.8-48.2-28-37.7-53.7.7-1.8 4.5-8.7 6.1-8.9.4 0 6.7 3.5 6.9 3.9.9 1.4-3.4 15-3.5 18.6 0 10.6 8.5 21.1 18.2 24.6 13 4.6 20.8-2.4 29.2-11.2.8-.8 1.4-2.7 1.6-2.9z" class="fill" data-original-prefix="fill"/>
    </g><g class="trait-group" data-category="right ear" id="right ear-robo">
      <path id="fill-ear-rt1" fill="#ffffff" d="M1309.7 967.7c-21.5 15-73.7 1.5-73.8-28.2 0-17.4 19.3-64.4 26.3-82.8 15.6-40.9 37.9-99.1 62.5-134.5 12.2-17.5 47.1-40.3 66.9-49.1 25.2-11.2 58.3-12.1 85.4-10.1 0-1.7 0-3.4.4-5 29.2-103.4 66.2-199.3 108.1-297.9 10.4-24.5 17.8-43.7 36.4-63.6 26.6-28.2 58.4-54.6 87-81 5.1-4.7 9.5-10.2 15-14.5.4 36.3-3.9 72.5-9.2 108.3-21.8 147.8-72 298.3-146.9 427.1-112.2 41.1-191.9 136.1-258.2 231.3Z" class="fill" data-original-prefix="fill"/><path id="fill-ear-rt2" fill="#ffffff" d="M1288 747c-16.2 44.6-44.8 91.8-64.2 136.3-5.3 12.3-10.4 24.7-14.6 37.4-.2 2.1 4.6 10 6 12.5 5.6 9.8 12.7 20.5 19.8 29.2-8.1-3.9-16.8-7.8-24.3-12.7-3.9-2.5-12.8-9.1-15.7-12.3-4.7-5.3-17.9-31.7-21.5-39.5-1.1-2.4-2.8-5.2-3.3-7.8-.9-5.4 6.1-15.3 8.6-20.9 14.3-31.3 25.7-60.8 38.7-92.3 5.4-13.2 13.6-26 18.2-39.8 13.7-40.3 17-104.6 9.9-146.5-.9-5.6-4.2-13.5-4.3-18.5-.3-13.9 31.4-60.6 40.8-73.7 29.1-40.7 69.4-86.1 106.8-119.2 1.9-1.7 8.4-7.6 10.3-7.4q37.2 20.1 72 44.1c15.8 10.9 34.5 23.7 49.2 35.8 2.7 2.2 8.4 5.7 7.1 9-13 32.3-26.4 64.4-39.4 96.7-7.8 19.4-14.3 40.2-22.8 59.2-2.4 5.4-7.8 17.6-11.5 21.5-11 11.9-42.4 5.7-57.5 7.5-7 .8-39.4 25.6-47.8 31.2-9.3 6.3-20.9 11.6-29.2 18.8-11.1 9.6-18.8 27.5-25.3 40.7-1.2 2.5-2.7 8-4.1 9.7-.9 1.2-1.8.4-2.1.6 2.9-8 9.1-24-3.2-27.3-24.9-6.6-31.1 31.7-10.3 32.4 5.1.2 9.3-2.7 13.5-5Zm108.8-362.8c-16.1 1.3-18.6 20.6-6.3 29.8 13.7 10.2 34.5 3.9 28.7-15.7-2.3-8-14.4-14.7-22.4-14.1m-166.5 417.1c-.6.5-5.3 6-5.8 6.7-8.6 13.3 1.2 29.8 17.4 23.4 5.4-2.1 8.7-8.2 10.5-13.5 5.3-15.4-9.2-27.6-22.1-16.6m-32.6 72.9c-19.7 4.1-21.7 39.6 2.6 34.5 17.2-3.6 22.9-39.9-2.6-34.5" class="fill" data-original-prefix="fill"/><path id="fill-ear-rt3" fill="#ffffff" d="M1721 186c-31.9 28.2-64.8 55.6-96 84.5-20.5 18.9-33 29.2-44.4 55.5-16.7 38.2-28.6 79.6-45.5 118-1.5.4-1.7-.4-2.5-1-5.7-3.9-11.9-10-17.6-14.4-32.2-24.7-65.5-48.1-99.8-69.7l.8-3.5c16.1-12.9 31.8-26.3 48.2-38.8 39-29.7 81.9-61 126.2-81.8 42-19.7 86.2-35.6 130.7-48.8Zm-200.2 209.2c-4.4.3-8.9 3.1-11 7.1-8.3 15.9 17.4 32.4 26.2 21.2 9.4-11.9-.4-29.5-15.2-28.3" class="fill" data-original-prefix="fill"/><path id="fill-ear-rt-rivet5" fill="#ffffff" d="M1205.8 881.2c.3.4 1.9 6.6 1.9 7.4.3 11.2-17.1 14.3-14.6-1.1.8-5.2 9.9-9.8 12.7-6.3" class="fill" data-original-prefix="fill"/><path id="fill-ear-rt-rivet4" fill="#ffffff" d="M1235.7 805.2c13.9-2.8 12.2 15.8 1.7 16.8s-11.4-14.8-1.7-16.8" class="fill" data-original-prefix="fill"/><path id="fill-ear-rt-rivet3" fill="#ffffff" d="M1271.3 740.7c-6.9-5.6 4.4-18.6 11.3-13.8 7.7 5.4-4 19.7-11.3 13.8" class="fill" data-original-prefix="fill"/><path id="fill-ear-rt-rivet2" fill="#ffffff" d="M1398.7 396.2c10.5-3.1 16.5 14.9 2 11.6-6.3-1.5-8-9.8-2-11.6" class="fill" data-original-prefix="fill"/><path id="fill-ear-rt-rivet1" fill="#ffffff" d="M1529.7 415.7c-3.4 3.6-10.4 2.4-10.8-3.2-.8-12.8 17.9-4.2 10.8 3.2" class="fill" data-original-prefix="fill"/><path id="shading-ear-rt" fill="#aaaaaa" d="M1723.2 198.8c1.1.7 3.4 0 3.8.2 1 .9.2 23.2 0 26.5-3 78.4-22 167.1-43.5 242.5-27 94.6-62.5 187.2-112.8 271.8-109 38.4-182.4 127.3-248.3 217.2-6.9 9.3-10.1 16.1-22.2 18.8-16.7 3.7-51.9-3.1-68.2-9.2-8.7-3.3-32.8-19-39.1-26-4.2-4.7-24-40.7-25.5-46.5-.8-3.1-.6-6.3-.4-9.5 9.9-22.1 21.6-43.6 31.1-65.9 6.5-15.3 11.1-31.6 17.3-46.7 4.8-11.7 11.9-22.6 16.2-34.8 14.8-41.1 17.6-100.5 11.1-143.6-1.5-9.8-5.1-16.5-3.9-27.1.9-7.5 7.1-14.2 9-21.5l15 73c62-48.6 120.2-102.4 181.5-152 15.7-12.7 31.6-26.8 49.5-36l-1.5-3c-21.9-15.4-42.7-32.5-65.8-46.2-2.5-1.5-31.8-16.3-30.7-17.8 5.9-1.9 11.6-5.4 16.5-9 3.4-2.5 4.6-7.1 9.8-5.8 3.4.9 18.9 12.1 23.1 15 23.8 16.3 47.4 33.3 70.8 50.3 11.8.5 13.6-2.1 13.4-13.5 12.9-26.7 23-54.7 35.3-81.6 2.3-4.9 5.3-13.5 8.6-17.4 5.9-6.9 18.3-17 25.5-23.5 21.2-19 65.9-59.4 89.8-71.2 4-2 26.6-10.7 30-11.1 3.9-.4 3.4 3 4.5 3.6ZM1703 288c-.6-.8-7.1 4.7-8 5.5-23.5 20-52.6 47-73 70-15.3 17.2-21 36-28 57.5l101.1-74.4c3.3-19.4 6.6-39 7.9-58.5Zm-16 102c-.7-.8-10 6.2-11.3 7.2-33.3 23.5-66 47.9-98.2 72.8-6.6 18.3-12.6 37-16.4 56.1l113.7-77.3 12.3-58.7Zm-207.3 146.7c6.9-24.1 15-48 19.8-72.7l-233.4 175.2c2.2 17.2 3.6 34.5 1.9 51.8zM1634 535c-.7-.8-6.4 4.2-7.5 5-29.9 23.4-62.7 50.7-90.1 76.9-8.9 8.5-20.1 19.2-26 30-3.6 6.6-7.4 20-11.9 25.1-6.7 7.4-25.1 18.6-34 26-19.2 15.8-31.9 28.3-46.3 48.7-16 22.5-29.9 46.6-42.2 71.3l64.3-38.2 115.7-66.3c27.3-58.9 55.3-117.6 78-178.5m-357.3 190.2c-8.5 1.8-10.6 17-2.2 16.8 3.8 0 1.1-3.9 1.8-5 1-1.5 8.5-2.7 8.6-6.4 0-4-4.6-6.1-8.2-5.4m-12.8 16.9c-1.9-1.6-7.4 3-8.8 4.6l-18.8 51.1c-5.9 3.1-15 19.2-5.3 21.9 5.5 1.5 7.5-5.5 10.7-6.4 2.1-.6 4.5.2 6.6-.4 1.6-.5 2.3-2.8 4.2-2.8 3.3 0 6.4 8.5 8.5 7 5.3-16.9 14.6-32.2 20-49-15.5 3.6-14.1-23.4-17.1-26M1224 833c-1.7-1.8-1.7.7-2.1 1.4-3.7 7.3-13.8 39.5-18.6 42.4-3.4 2-12 2.6-11.3 9.7s10.4 3.4 13.5 3.6c2 .1 3.5 2 6 2 1.3 0 4.1-1.4 4.5-1.1 3.2 2.5 3.5 31.1 15.2 9.7l18.8-55.2c-2.7-.5-4.3 1.4-7.5 1.6-6.4.3-11.7-2.7-15.5-7.6-1.7-2.2-2.8-6.2-3-6.5" class="outline shading" data-original-prefix="shading" opacity="0.5" style="opacity: 0.5"/><path id="shading-ear-rt2" fill="#aaaaaa" d="M1384 405c2.6-.1 3.5 2.8 5.9 3.5 6.6 2.1 5.5-1.4 7.8-2.5 1.8-.9 7.7-3 9.9-3.8 1.5-.5 3.9.2 5.3-.7 2-1.3.8-9.2 6-4.1 10.2 10-1 33.1-14.4 32.5-10.8-.5-23.4-13.6-20.6-24.9Z" class="outline shading" data-original-prefix="shading" opacity="0.5" style="opacity: 0.5"/><path id="outline-ear-rt" fill="#000000" d="M1734.9 163.1c.9 5.1 2.3 10.3 3 15.5 6 47.5-.5 106.2-7 153.7-17.7 128.1-67.1 281.2-131.7 393.3-2.7 4.6-14.6 24-17.8 26.2-3 2.1-16.3 5.5-21.3 7.7-29.5 12.8-63.7 37.8-88.5 58.5-54.2 45.1-104.1 102.3-138.2 163.9-13 3.4-25.7 8.6-38.7 11.1-16.8-6.7-37.5-5.5-54.2-10.9-6.7-2.2-43.9-21.9-49.8-26.2-16.8-12.5-29.2-53.7-41.2-71.8-1.4-4.6.6-29.6 1.6-35.5 1.6-9.2 25.9-43.5 32.1-54.9 31-57 45.2-134.6 38.8-199.2-.6-6.2-6.4-29.9-5.8-32.8 1-5 11.8-23.5 15-29 22.3-39 50.6-76.1 80.3-109.7 100.4-113.9 223.3-215 374.1-251.9 6.5-1.6 46.4-10.5 49.3-8M1721 186c-44.5 13.2-88.6 29.1-130.7 48.8-44.4 20.8-87.2 52.1-126.2 81.8-16.4 12.5-32.1 25.9-48.2 38.8l-.8 3.5c34.3 21.6 67.6 45 99.8 69.7 5.7 4.4 11.9 10.5 17.6 14.4.8.6.9 1.4 2.5 1 16.9-38.3 28.9-79.7 45.5-118 11.5-26.4 24-36.6 44.4-55.5 31.3-28.9 64.1-56.3 96-84.5Zm-411.3 781.7c66.3-95.2 146-190.2 258.2-231.3 74.9-128.8 125.1-279.4 146.9-427.1 5.3-35.8 9.6-72.1 9.2-108.3-5.5 4.3-9.9 9.8-15 14.5-28.6 26.4-60.4 52.7-87 81-18.7 19.8-26 39.1-36.4 63.6-41.9 98.6-78.9 194.5-108.1 297.9-.5 1.7-.5 3.3-.4 5-27.1-2-60.2-1.1-85.4 10.1-19.7 8.8-54.7 31.7-66.9 49.1-24.6 35.4-46.9 93.6-62.5 134.5-7 18.3-26.4 65.3-26.3 82.8.1 29.7 52.3 43.2 73.8 28.2ZM1288 747c-4.2 2.4-8.4 5.2-13.5 5-20.8-.7-14.6-39 10.3-32.4 12.3 3.3 6.1 19.3 3.2 27.3.3-.2 1.2.5 2.1-.6 1.4-1.8 2.8-7.3 4.1-9.7 6.5-13.2 14.2-31.1 25.3-40.7 8.3-7.2 20-12.5 29.2-18.8 8.4-5.7 40.7-30.4 47.8-31.2 15.1-1.8 46.5 4.4 57.5-7.5 3.6-3.9 9.1-16.2 11.5-21.5 8.5-19 15-39.8 22.8-59.2 13-32.3 26.4-64.4 39.4-96.7 1.2-3.3-4.5-6.8-7.1-9-14.7-12.2-33.3-25-49.2-35.8q-34.8-24-72-44.1c-1.9-.3-8.3 5.6-10.3 7.4-37.4 33.1-77.7 78.5-106.8 119.2-9.4 13.1-41.1 59.8-40.8 73.7 0 4.9 3.4 12.8 4.3 18.5 7 41.8 3.8 106.1-9.9 146.5-4.7 13.8-12.8 26.5-18.2 39.8-13 31.6-24.4 61-38.7 92.3-2.5 5.6-9.5 15.5-8.6 20.9.4 2.5 2.2 5.4 3.3 7.8 3.6 7.8 16.8 34.2 21.5 39.5 2.9 3.2 11.8 9.8 15.7 12.3 7.5 4.9 16.2 8.8 24.3 12.7-7.1-8.7-14.2-19.4-19.8-29.2-1.5-2.6-6.2-10.4-6-12.5 4.2-12.7 9.3-25.2 14.6-37.4 19.4-44.6 48-91.7 64.2-136.3Zm-16.7-6.3c7.3 5.9 18.9-8.3 11.3-13.8-6.9-4.9-18.2 8.2-11.3 13.8" class="outline" data-original-prefix="outline"/><path id="outline-ear-rt4" fill="#000000" d="M1197.7 874.2c25.5-5.3 19.7 30.9 2.6 34.5-24.2 5.1-22.3-30.4-2.6-34.5m8.1 7c-2.8-3.5-11.9 1.1-12.7 6.3-2.4 15.4 14.9 12.3 14.6 1.1 0-.9-1.6-7-1.9-7.4" class="outline" data-original-prefix="outline"/><path id="outline-ear-rt3" fill="#000000" d="M1230.3 801.3c12.9-11 27.5 1.3 22.1 16.6-1.8 5.3-5.1 11.4-10.5 13.5-16.3 6.3-26.1-10.2-17.4-23.4.5-.7 5.2-6.2 5.8-6.7m5.4 3.9c-9.7 2-8.4 17.8 1.7 16.8s12.2-19.6-1.7-16.8" class="outline" data-original-prefix="outline"/><path id="outline-ear-rt2" fill="#000000" d="M1396.8 384.2c8-.6 20.1 6.1 22.4 14.1 5.8 19.6-15 25.9-28.7 15.7-12.3-9.2-9.8-28.5 6.3-29.8m1.9 12c-6 1.8-4.3 10.1 2 11.6 14.5 3.3 8.5-14.7-2-11.6" class="outline" data-original-prefix="outline"/><path id="outline-ear-rt1" fill="#000000" d="M1520.8 395.2c14.8-1.1 24.7 16.4 15.2 28.3-8.9 11.2-34.5-5.3-26.2-21.2 2.1-4 6.6-6.8 11-7.1m8.9 20.5c7.1-7.5-11.7-16-10.8-3.2.4 5.6 7.4 6.8 10.8 3.2" class="outline" data-original-prefix="outline"/>
    </g><g class="trait-group" data-category="left ear" id="left ear-battle scars">
      <path id="fill-ear-lft" fill="#ffffff" d="M858.7 928.7c-3.7 4.2-14.8 12.9-19.8 16.7-14.6 11.5-32.7 23.6-49.5 31.5-5 2.3-21.9 9.8-26.4 8.7l-60.9-28.2c-24.2-30-45-62.9-68.1-93.9L621.5 828l-113.4-70.7-69.5-84.5-40.8-83.2c-.7-1.3-1-2.7-.8-4.2.9-6.5 16.1-17.9 19.8-24.3 2.3-12.4-1-25.8 3.4-37.7l34.9-31.1c1.7-2.2-3.1-10-6.6-9.6l-68.2 12-2.4-.4-46.8-181.2-8.1-119.8c.2-1.5 11.5-11.4 13-12.1 1.8-.8 4 .7 5.6 1.4 44.7 17.6 88.7 43.3 133.3 61.6l144.9 87.1c34.7 38.2 77.4 72.2 111.6 110.4 19.4 21.7 36.1 47.5 55.3 69.6 7.9 62.9 12.3 126.4 19.6 189.4l79.4 176.7c.6 2.9-1.4 5.4-2.7 7.9-4.2 8.6-19.1 36.9-24.5 43Z" class="fill" data-original-prefix="fill"/><path id="shading-ear-lft" fill="#aaaaaa" d="M594.1 547.9c22-5.9 44.3-10.2 66.9-13.5 7.1-9 19.6-17 26.6-25.4 5.8-7 6.8-15.9 18.9-7l23.5 42.5c4.3 2.7 21.4 14.9 25.3 14.3 2.1-.3 13.8-7.8 16.5-9.6 2.4-1.6 12.1-10 12.9-10.2 2.8-.5 4.1 5.4 4.4 7.4.8 6.7.3 15.6.6 22.6-1 2.9-8.3 5.5-11.3 7.7-.7.5-1.7-.2-1.2 1.7.2.6 8.7 9.2 9.5 9.6 1.5 1 3-.3 3.4 0s4.2 6.9 4.7 7.9c2.1 4.3 1.7 8-2.2 11l-91-69.8-1.5 2c-.6.4-1.6-1.7-2.5-1.7-2 0-27.4 24.3-30 27.7-2.9 3.7-4.2 7.6-5.5 12 2 .4 2.7-.5 4-1.4 5.7-4.2 10.8-12.5 16.9-16.5.5 2-1.8 2.4-1.8 4.3 0 3.2 4 15.7 5.1 19.9C712 681.5 760 779.2 824 857.7c8 9.7 37.9 40.7 40.3 49.7.9 3.3.4 13.9-.5 17.1-1.2 4.2-33.7 28.5-39.5 32.5-15.2 10.4-31.3 19.8-48.8 26l-39.5-7.4c-25.7-24.5-53.6-47.2-79.1-71.9-3-2.9-8.2-7.4-10.4-10.6-5.3-7.6-11.7-45.5-15.1-57.9-.6-2.2 1.2-3.9-1.4-6.6l-105.6-62.4-.5-6c29.4 9.8 56.5 27.9 84.6 39.8 13.2 5.6 27.2 8.1 40.9 12.1 2.3-6.6-5.6-44.9-9.5-47.5-35.8-2-69.1-17.3-99-36-25.8-16.2-32.8-24.5-49.1-49.9-16.6-25.8-31.6-54.3-43.5-82.5-3.2-7.5-12.3-27.3-11.3-34.2.8-5.2 5-11.1 4.8-16.8 2.3-.5 1.6.3 2.2 1.3 7.3 11.3 21.5 41.5 33.5 46.4 6.6 2.7 6-2.2 4.7-7.7-3.4-14.8-17.2-33.6-16.5-47.5.2-3.3 3.8-28 4.6-29.4 7.8-6.3 20.9-9.5 22.2-20.8.6-15.9-2.7-35.1-.8-50.8.4-3.5 3-5.9 3.1-9 0-3.6-3.2-7.7-3-11.5-1-.9-6.3 4.4-7 5.5-3.5 5.3-1 7.1-1 12 .2 15.8-.4 31.6.8 47.4-5.4.6-21.8 15.6-24.5 16.1-2.6.4-7.5-13.8-10.7-13.8l-59.2 11.8h-11.4c1-3.7-3.3-10.3.7-12.7l69.4-19.6 9-38c-12.9-38.6-33.1-79.6-58.1-112-12.6-16.3-30.2-31-33.9-52.4 3.3-.7 9-4.4 12.2-3.9 2 .3 6.5 4.6 9 6 23.8 13.1 49 29 71 45 38.5 28.1 75.4 83.9 100.1 124.9 9.4 15.6 9.7 19.1 11.6 37.4 2.6 24.6 1.1 32.6 12.2 55.8 3.7 7.7 8.6 14.7 12 22.6ZM719 776c-.4-2.2-3.5-6.6-5.5-7-3.7-.7-16.9 1-19.6 3.5-2.4 2.3-5.9 14.8-7.2 18.8-2.2 7-10.2 31.5-8.5 37.1.6 2.1 4.7 4.7 4.8 7.7l4-6.5 26.5 40.5 4.1-8-26.6-47.6 10.5-38.4H719Zm57 190c-3.3-10-4.9-26.8-9.8-35.7-2.6-4.8-10.8-12.4-14.6-17.4s-9.2-10-8.4-16.1c2.2-15.5 15.7-28.9 22.6-42.5l-6.3-13.3c-1.7.8-16.6 29.2-18.7 33.3-5.5 10.9-16.8 32.7-17.8 44.2-1 12.1.9 25.6 0 37.8l6 3.7 5.5-32zm-103-56 9-49.7-4-9.3c-1.6 0-1.6 3.4-1.8 4.7-1.3 7-1.2 14.9-2.4 21.6-1.4 7.7-5.3 16.6-7.4 24.3 0 1.3 5 10.2 6.6 8.5Z" class="outline shading" data-original-prefix="shading" opacity="0.5" style="opacity: 0.5"/><path id="outline-ear-lft" fill="#000000" d="M844 942c15.6-14.5 32.6-45.7 29.9-67.4-8.3-32.4-25.5-58.9-39.8-88.2-9.5-19.6-31.9-63.6-35-83-3.6-22.2-3.2-46.4-5.1-68.9-.9-9.9-2.5-19.8-3.2-29.8-6.3-5.3-13.4-13.5-21.5-15.5-13.1-3.2-22-2.3-35.1-8.9-19.6-9.8-27.8-25.2-36.6-44.3-10.1 11.4-33.8 25-36.3 40.7-3 19.5 8.4 73.2 16.6 91.9 4.8 11 12.6 21.6 20.2 30.8 48 58.3 66.6 127.3 109.2 188.8 3.4 5 10.1 11.7 12.7 16.3 2.1 3.9 4.1 24.3 4.2 29.8.2 6.4-4.7 10-9.1 14-2.2 2-18.3 15.1-20 13.5.9-5 4-9.7 4.7-14.8 1.7-11.6-1.8-24.2-5.2-35.2-7.9-25.5-21.5-49.2-35-72-1.8 0-16 28-18 32-6.6 13.1-18.4 35.3-19.5 49.5-.9 11.2.6 23.6.2 34.9.6 1.8 15.1 10.8 17.8 12.2 17.1 8.9 28 10.8 47.2 6.2 6.9-1.7 12.8-5.3 19.8-5.7-3.3 5.3-7 6.8-13 9.5-22.4 10.2-58.6 26.5-79.5 6.5-14.3-13.6-27.5-29.5-42.4-42.6-12-10.6-25.8-15.8-32.5-31.5-10.8-25.3-24-65.5-48.8-80.2-12-7-24.9-12.3-37.2-19.8-81.4-50-124-108-162.7-194.3-1.9-4.2-11.8-25.8-11.8-28.2 0-2.2 13.4-12.5 16-15 2.7-2.6 11.5-10.6 12.9-13.1 2.3-4.3 4.9-27 5.1-32.9.1-2.2-1.6-4.2-.9-6.8 1.1-4 16.2-13.1 18.8-17.7-24.9 3.4-48.8 10.4-72 20-1-7.2-5-16.4-5.1-23.5s5.4-15.4 6.1-24c1.3-16.7-1.4-39.1-4.3-55.8-3.8-21.6-9.2-45.2-21.9-63.1-2.7-3.8-8.9-9.4-10.3-12.7-6.4-15-6.2-46.8-7.5-63.5-2.2-29.9-8.2-77.3.5-105.5 1.8-5.8 2.2-6.4 8.7-5.7 12.1 1.1 31.8 7.4 43.8 11.3 83.1 27.2 164 67.2 237 115 21.8 14.3 36.8 25 55.1 43.9 52.6 54.4 98.4 114.5 141.4 176.6 2.3 4.6 2.2 21.8 2.6 28.4 3.6 65.9 7.8 160.8 46.2 215.8 2.9 4.1 7.4 7.9 10 12 6.8 10.6 12 30 17.6 42.4 9.2 20.5 21 34.3 22.2 57.8.2 3.2.5 7.5-.5 10.5-13.8 17.6-24.1 41.8-43.8 53.2-3.7 2.2-8.4 5.1-12.7 5.8ZM702.8 512.2c.5.6 4.5 11.7 6.1 14.4 7 12.8 14.2 25.5 27.2 32.8 3.5 2 12 6.2 15.6 6.5 4.3.3 17.8-8.4 23-10.8 3.5-1.6 7.3-2.7 11-4.1-1.8-14.4-3.9-27.9-12.2-40-21.1-30.9-52.7-69.2-77.9-97.1-58.5-64.7-137.8-110.4-212.8-153.2-45-25.7-91.8-52.4-141.2-68.8-1.9-.6-10.6-3.9-11.5-3-2.9 37.8.8 78 8.3 115.2 4 19.6 13.9 30.2 20.7 48.3 8.5 22.4 17.3 59.3 20 83 2.1 18.7 1.2 37.8 3 56.5 16.7-2.5 33.1-6.7 49.8-9.7 8-1.4 18.2-1.6 25.6-3.4 6.1-1.4 6.8-5.9 8.1-10.9 4.5-17.3 3.6-35.6 5.7-53.3 1.6-4.2 14.7-9.6 14.8-13.2 0-3-13.9-27.1-16.6-31.5-23.5-38.4-55.2-67.1-93-91L354 241.3c-.2-1.5 0-1.7 1.5-1.5 6.7 1 18.7 13.8 24 18 7.9 6.3 17.8 9.2 26 15 53.7 51.2 107.7 99.8 130.4 173.4-15.6 64.6-13.8 128.7 20 187.2 5.6 9.7 23.2 34.9 35.7 21.4 4.4-4.7 7.8-28.3 10-36 3.6-12.6 8.4-25 12.5-37.5 17-13.2 37.3-24 53-39 7.3-6.9 22.3-30.1 30.8-31.3 1.4-.2 4.1 0 5 1.1ZM492 414c-12.8 5.3-8.1 15.2-8 25.5.3 13.3-.8 26.7.8 39.9-21.4 13.6-40.7 29.6-58.8 47.3-2.1 3.3-1.5 24.1-2.1 29.9-1.2 11.2-11.1 18.3-19 25.2 9.9 37 29.1 70.7 51.2 101.6 22.3 31.2 49.9 64.5 81.5 86.5 17.3 12 36.6 20.7 54.6 31.4 8.3 4.9 32.2 18.5 37.7 24.3 4.6 4.8 1.7 5.4 2.4 9.5s5.9 15.5 7.8 20.2c3.3 8.4 7 16.7 11.2 24.8 2.7-4.7 5.1-10.5 6.2-15.8 4-19.5 4.9-44.9 2.1-64.6-1.7-11.9-5-23.5-7.9-35.1.2-2.4 6.1-6.7 8-9 7.9-9.9 13.8-21.5 19-33 0-3.4-13.8-12.7-14.5-15.4-1.5-5.3 0-13.7-.4-19.6-1.1-13.7-9.6-50.9-17.2-61.8-11.8-17.2-26.5 9.3-31 19.7-9.3 21.4-7.6 46.3.4 67.9 2.9 7.9 7.3 15.2 10.8 22.7-1.4 1.3-15.2-6.5-17.7-7.8-15.2-8.2-32.4-19.3-45.8-30.2-4.2-3.4-15.7-12.9-18.4-16.6-3-4-9.1-42.7-11.4-51.6-8.6-32.6-20.5-64.9-41.6-91.5-.3-1.7 5.1-9.4 6.3-12.3 14.2-33 3.6-78.9-6.5-112Zm298 177c-1.2-2.4-1.8-28.5-3.5-28l-15.5 9.5c1.2 2.6 13.2 14.9 16 17 1 .8 1.3 1.9 3 1.5m-83 168c.2-1.4 0-2.6-.5-4S694 738.9 693 738.4c-2-1-7.1 5-8.5 6.5-14.2 16.1-18.4 33-13.5 54 2.6.3 1.6 0 2-1.5 2.5-8.6 4.9-28.8 9.9-35.1 3.2-4 18.5-2.4 24-3.5Zm4.8 9.2c-5.4.2-17 .9-19.7 5.4-3.1 5.1-13 38.5-13.9 45.1-.4 3-.8 8.6.3 11.2l33.6 50.4 3.3 2.7 36.5-56.5c.2-4.3-21.2-36.1-25.1-41.8-2-2.8-10.6-16-12.5-16.5-1-.3-1.6 0-2.4 0ZM708 946l-1.7-42.8c-7.9-17.7-17.7-36.5-28.1-52.9-.6-.9-.9-2.2-2.2-2.3-1.2 18.6-3.3 37.2-10.8 54.3 2.6 3.7 4.8 7.8 7.8 11.2 6.1 7 24.9 25.5 32 31 1 .8 1.3 1.9 3 1.5" class="outline" data-original-prefix="outline"/>
    </g><g class="trait-group" data-category="head" id="head-speed-racer">
      <path id="fill-head4" fill="#ffffff" d="m1431 1409-41.1-257.4c-1.8-7.4-14.5-16-16.9-22.1 0-.3 4.9-1.9 3.8-5.8-.4-1.7-21.7-20.6-24.8-23.2-18.8-16-29.9-20.5-54-26-41.9-9.6-85.8-13.5-128.5-17.5-120.9-11.3-230.5-8.9-350.9 6.1-27.3 3.4-76.1 9.3-100 21-17.5 8.6-32 26.8-47.2 38.9-2 4.4 3.7 6.1 3.5 6.5-1.9 4.6-12.4 13.1-15.4 18.6-.9 1.6-1.7 3.1-2.1 4.9-12.7 80-23.7 160.5-37.7 240.3-.8 4.3-1.5 9.3-2.6 13.4-.2 1 .4 3.2-1.6 2.3-2.3-.9-17-21.4-19-25-12.1-21-8.6-47-7.5-70.6 4.7-99.7 18.6-254.8 66.9-342.1 40.5-73.3 137-143.2 216.4-167.6 99.8-30.7 187.3-31.9 288-4.5 83.2 22.7 179.3 87 225.2 160.8 54.4 87.5 68.8 250.9 73.6 353.4 1.9 39.8 5.1 61.6-23.5 92.6-1.2 1.3-2.5 3.2-4.5 3Z" class="fill" data-original-prefix="fill"/><path id="fill-head3" fill="#ffffff" d="m1347 1120-45.5-1c-157.8-13.8-319.8-16.5-478-7-40.9 2.4-81.4 9.1-122.5 8 2.1-3.2 5.5-5.6 8.5-7.9 21.1-16.9 28.9-18.3 55.3-23.7 162.6-33.2 356.7-33.2 519.2.2 22.8 4.7 31.3 5.8 49.9 20.1 4.5 3.5 9.6 6.9 13.1 11.4Z" class="fill" data-original-prefix="fill"/><path id="fill-head2" fill="#ffffff" d="M671.3 1155.3c.6-.8 2.5-1.3 3.7-2.8 2.9-3.4 15.6-21.8 17.7-22.4 2.3-.7 4.2.4 5.1 2.6l-53.1 300.5c0 9.8-15.7 3.6-16.7-1.8l42.2-273.8c0-.9.5-1.7 1-2.4Z" class="fill" data-original-prefix="fill"/><path id="fill-head1" fill="#ffffff" d="m1376.7 1155.3 43.3 273.2c1.8 7.6-14.9 14.6-16.8 5.7l-53.2-299.8c-1.1-3.2 1.5-4.7 4.5-4.4 4.3.4 16 23.1 22.2 25.3" class="fill" data-original-prefix="fill"/><path id="shading-head" fill="#aaaaaa" d="M613 1326c1.7-.9 2.1-5.1 2.5-7 13.6-59.4 24.3-119.5 39.4-178.6 10.4-12.2 24.2-21.3 36.1-31.9l23-1.5-1 3c9.8-.9 19.8-.3 29.5-.9 8.6-.6 17.3-2.3 26-3 146-12 294.7-16.2 441-6 41.9 2.9 83.5 9 125.5 10l-1-3 23 1.5c11.7 10.6 25 19.7 35.8 31.2 9.2 39 18.2 78.1 26.8 117.2 4.7 21.6 8 45.2 13.8 66.2.3 1 .2 3 1.7 2.8 1.8-4.6 4.6-7.2 5.1-12.4 2.1-21.1.6-53.2 0-75.1-1.9-66-11-137.1-24.3-201.7-2.2-10.7-8-27.4-8.7-37.3 0-.6-.3-1.7.5-1.5 1.3 1.4 2.8 2.6 4 4 5.5 6.1 21.8 23.2 24.6 29.5 4.1 9.3 7.8 27.3 10.2 37.8 18.4 77.2 26.7 163 29.6 242.4.7 20.3 4.6 54.1-3.5 72.4-4.6 10.4-19.7 26.4-27.9 35.1-2.1 2.2-11.3 9.4-12 11-2.4 5.7 2.8 12.2 1 15-1.1 1.7-28.4 12.9-32.5 14-.6-9.3-4.4-18.7-5.8-27.8-8.9-57.6-16.3-115.7-26.5-173.4-6.3-35.8-11.9-79.6-21-114-1.2-4.7-1.3-1.9-5.7-1.8-2.7-11.1.5-14.9-12.5-16-32.5-2.8-67-2.7-100-5-136.8-9.7-274.2-9.7-411 0-32.9 2.3-66.2 2.5-99 4.9-13.6 1-11.7 4.7-13.5 17-2.8.3-4.5-3.7-5.8-.3l-53.2 316.3-31.4-13.1c-3.7-2.6.2-6.8.5-10.4.5-7.7-7.8-11.4-12.6-16.4-7.8-8.2-22.2-23.4-27-33-9.3-18.8-5.2-53.4-4.4-74.5 2.9-79.1 11.2-164.6 29.5-241.6 2.5-10.6 6.7-30.7 11.1-39.9 2.5-5.1 17.2-21 21.9-26.1 2-2.1 4.1-4.3 6.5-6-13.7 58-23.7 117.1-29 176.5-1.7 19.4-3.4 39.5-4 58.9-.8 23.7-2.1 58.1 0 81.1.5 5.4 3.3 6.7 5.1 11.4zm27 101 49-293c-13.9 10.3-18.8 24.1-23.5 40-15.6 52.5-22.9 109.4-36.2 162.7l1.7 6.6c-.2 20.7-11.7 49.5-11 69.1.4 10.8 11.2 12.9 20 14.5Zm719-292 50.4 292c9.3-3 18.4-3.6 18.6-15.5.3-19.2-10.5-46.6-11-67-.7-28.3-9.3-60.2-15.5-88.5-5.5-25.5-11-53.1-18-78-3.9-14-7.2-25.9-17-37-.9-1-6.5-7.1-7.5-6" class="outline shading" data-original-prefix="shading" opacity="0.5" style="opacity: 0.5"/><path id="outline-head" fill="#000000" d="m1333.9 1132.1-85.4-3.1c-127.2-13-255.6-10.7-383-6-50.2 5-100.4 7.9-150.8 8.9l-1.4 2.8c-19.6 101.2-30.5 204.8-52.6 305.5-1 4.3-3.2 16.1-4.9 19.1-2 3.7-7.6 7.9-12.1 6.4l-34.3-15.8c-5.8-4.2 1.9-12.8 0-17-.5-1.2-15.8-14.6-18.6-17.5-14-14.8-24.5-27.6-26-49-3-44.4 2.7-103.2 7-148 7.7-79.3 22.7-178 55.1-250.9 42.8-96.1 180.8-182.4 281-204 60.5-13 159.1-13.6 220-2.4 104.8 19.3 249.4 107.4 293.3 207.7 43.6 99.6 57.2 242.1 60.5 350.5 1.4 44.7 7.8 61.2-24.5 95.5-2.8 3-18.5 16.8-19.1 18-1.8 4.1 5.8 12.8 0 17l-32.7 15.3c-5.6 2.7-12.2-2.2-14.3-7.3-5.6-13.3-7.9-40.9-10.8-56.2-1.6-8.2-3.9-16.4-5.4-24.6-14.8-81.5-26.5-163.6-41.4-245.1zM1431 1409c2 .2 3.3-1.7 4.5-3 28.6-30.9 25.4-52.8 23.5-92.6-4.9-102.5-19.3-265.9-73.6-353.4-45.9-73.8-142-138.1-225.2-160.8-100.7-27.5-188.2-26.2-288 4.5-79.4 24.4-175.9 94.3-216.4 167.6-48.3 87.3-62.2 242.4-66.9 342.1-1.1 23.6-4.6 49.6 7.5 70.6 2 3.5 16.7 24 19 25 2 .8 1.4-1.3 1.6-2.3 1-4.2 1.8-9.1 2.6-13.4 14-79.8 25-160.2 37.7-240.3.4-1.8 1.2-3.3 2.1-4.9 3-5.5 13.5-14 15.4-18.6.2-.4-5.5-2.1-3.5-6.5 15.1-12.1 29.7-30.3 47.2-38.9 23.9-11.7 72.7-17.6 100-21 120.4-15 230-17.5 350.9-6.1 42.7 4 86.7 7.9 128.5 17.5 24.1 5.5 35.2 10 54 26 3.1 2.7 24.4 21.6 24.8 23.2 1 3.9-4 5.4-3.8 5.8 2.4 6.1 15.1 14.7 16.9 22.1l41.1 257.4Zm-84-289c-3.6-4.5-8.6-7.9-13.1-11.4-18.6-14.4-27.1-15.4-49.9-20.1-162.6-33.4-356.6-33.4-519.2-.2-26.4 5.4-34.1 6.8-55.3 23.7-3 2.4-6.4 4.7-8.5 7.9 41.1 1 81.6-5.6 122.5-8 158.2-9.5 320.2-6.8 478 7l45.5 1Zm-675.7 35.3c-.6.7-.9 1.5-1 2.4l-42.2 273.8c1 5.4 16.7 11.6 16.7 1.8l53.1-300.5c-.9-2.2-2.8-3.2-5.1-2.6-2.2.6-14.8 18.9-17.7 22.4-1.2 1.4-3.1 2-3.7 2.8Zm705.4 0c-6.3-2.2-17.9-24.9-22.2-25.3-3-.3-5.5 1.2-4.5 4.4l53.2 299.8c1.9 8.9 18.6 1.9 16.8-5.7z" class="outline" data-original-prefix="outline"/>
    </g>
</svg>