<?xml version="1.0" encoding="UTF-8"?>
<svg xmlns="http://www.w3.org/2000/svg" viewBox="0 0 2048 2048">
<style>
  .outline { fill: #000000; }
  .fill { fill: #ffffff; }
  .shading { fill: #aaaaaa; opacity: 0.5; }
</style>




<g class="background"><defs><radialGradient id="radial-gradient" cx="1024" cy="-181" r="1024" fx="1024" fy="-181" gradientTransform="translate(0 1204)" gradientUnits="userSpaceOnUse"><stop offset="0" stop-color="#505151"/><stop offset="1" stop-color="#202733"/></radialGradient></defs></g><g class="background"><path id="gradient-jean" fill="url(#radial-gradient)" d="M2048 3.6v2038.8c0 3.8-.8 4.6-4.6 4.6H4.6c-3.8 0-4.6-.8-4.6-4.6C.1 1361.3 0 680.2 0-1h2043.4c3.8 0 4.6.8 4.6 4.6" class="gradient" style="fill: url(#radial-gradient)"/></g>
<g class="trait-group" data-category="jaw">
  </g><g class="trait-group" data-category="jaw"><!-- Generator: Adobe Illustrator 29.1.0, SVG Export Plug-In . SVG Version: 2.1.0 Build 142)  --></g><g class="trait-group" data-category="jaw">
  </g><g class="trait-group" data-category="jaw"><defs>
    
  </defs></g><g class="trait-group" data-category="jaw">
  </g><g class="trait-group" data-category="jaw"><path id="fill-jaw" class="fill" d="M1396.7,1438.7c-6.7,4.3-46.8-1.7-48.7.3l-12.2,69.8-57.2,29.3-1.4,1.6c-1.5,11.9,1.5,24.2.9,35.9-.3,4.9-1.3,15-2.3,19.7-.6,2.8-13.7,32.2-15,33.5s-16.1,8.9-16.7,8.3l-9.5-50-51,52c-7.7,5.7-20.7,9.3-27.5,15.5-14,12.7-25.2,37.4-42.1,47.9-5.4,3.3-61.3,25.7-66.7,26.3-13.8,1.7-33-3.3-47.7.2-17.7-10.3-50.1-16.2-66.1-26.9-14.3-9.6-28.3-35.6-41.4-47.6-6.7-6.1-19.9-9.6-27.5-15.4l-51-52-9.6,48.4c-.6.9-.9,1.7-2.2,1.5-.8,0-13.8-7.6-14.4-8.2-1.4-1.4-15.9-33.3-16.2-35.3l-.5-54.4-58.2-30.3-12.3-69.7c-8.1-1.2-45.1,3.9-49.5-1l-37.1-85-.5-3.4,31.5-70.6c5.3-1.6,29.1,0,31.3-6.7.8-2.3-.6-19.5-1.3-22.4-2.2-8.4-16.2-24-19.8-33.2-.7-1.7-1.2-3.1-.6-5,4.7-11.3,10.3-22.3,14.1-34,7.3-22.4,7.2-42.6,16.9-65.1,47.5-110.2,188.9-176,299.9-200.1,44.7-9.7,79.8-1.5,122.7,11.2,98,28.9,222.6,97.5,259,199,6.8,19,7,38.1,13.5,57.5,3.8,11.2,10.1,22.1,13.7,33.4,0,1.4-8.3,16.4-9.8,19.1-2.4,4.3-9.7,13.4-10.7,17.3-1.8,6.8-.6,15.6-2.3,22.5,9.9,7.9,21.3,4.2,32.4,6.5,9.6,23.9,23.5,46,31.4,70.6-9.8,26.3-22.2,51.8-33.2,77.7-1.3,3-1.7,9.3-5.1,11.4h0Z" fill="#FFFFFF"/></g><g class="trait-group" data-category="jaw">
  </g><g class="trait-group" data-category="jaw"><path id="shading-jaw" class="shading" d="M1380.8,1185.8c-.2.4-2.1.7-2.8,1.7-8.6,10.8-16.2,26-21,39-4.2,11.4-5.1,22.7-13,32-18.8,22.4-51.8,45.5-78.3,57.7-5.4,2.5-12.5,3.7-16.7,7.8h20.5c2.7,0,5.1,1.2,7.9,1.1,18.1-.2,64.4-19.8,77.5-32.6,5.7-5.5,14.1-15.7,15-23.5,1.8,0,.7,2.4,1.5,4,3.1,5.9,15.5,5.2,21.5,6,.2,1.6-1.5.7-2.3,2.2-4.6,8.3-4.4,21.6-10.6,28.3-7.5,8.1-37.1,13.5-48.8,17.2-14.5,4.6-29.8,8.8-42,18.1l-52.8-14.8c-19.3-2.3-9.9,15.4-5.3,25.3,5.2,11.3,20.7,40,30.4,46.6,11.9,8.2,22.7-10.2,30-17,6.3-6,16.2-11.8,24.6-14.4,17.7-5.6,32.3,4.7,50.5,5.4,17.4.8,34.6-7.7,48.8-17.2,3.6-2.4,14.6-13.9,17.2-13.8,1.7,0,3.3,6.1,1.8,7.8-10.1,24.3-21.6,48-31.8,72.2-3.7,8.8-.8,14-13,15-9.3.7-15.8-1-24.2-1.8-4.8-.4-11.8,2.5-17.3-.2l-12.9,70.6-59,30.5c.4,11,2.6,23.6,2,34.5-.3,5.7-1.3,15.4-2.1,20.9-.5,3.1-13.4,31.4-15.4,33.6-3,3.2-11.6,6.2-15.5,9-.8-4.9-2.7-10.6-3-15.5-.6-11.2,2-11.3-2.7-23.2-.4-1.1-1.9-1-2.2-2-.8-2.2-.8-6.7-1.1-9.2l-2.3.2-50.2,51.8c-7.7,5.2-19.5,8.7-26.5,14.5-14.2,11.7-24.4,36.1-41.5,47.5-6.7,4.5-54.2,25.7-61.2,26.8-9.9,1.5-51.8,1.6-61.5,0-6.9-1.2-49.7-20.5-57.3-24.7-15.8-8.9-30.2-37.8-44.4-49.6-6.9-5.7-19-9.3-26.5-14.5l-51-52c-1,8.1-7.3,16-8.1,24-.6,6.2.6,14.6-.3,21.6-.2,1.7-3,1.8-2.1,4.4-.6.7-14.6-8.1-15.5-9-1.7-1.8-15-30.8-15.4-33.6-.7-4.4-.9-13-1.1-17.9-.5-12.2.6-24.4.5-36.6l-58.5-31.4-13-69.5-48.8-.2-38-86.6.9-6.2c8.2.4,11.8,8.2,18.6,12.7,25.3,16.9,38.4,19.8,68.5,13.9,17.1-3.4,19.1-7.5,37.2.4,15.9,7,19,16.2,30.6,25.4,9.6,7.6,13.6,7.9,22-1s31.8-49.1,32.1-60c.2-8.7-6.4-8.1-13.3-7.2-8.6,1.1-48.4,15.1-51,14.6-1.7-.4-12.3-7.9-16.5-9.6-20.3-8.4-48.8-11.8-67.2-20.8-14.9-7.3-11.3-20.9-17.7-33.2-.9-1.6-2.5-.6-2.3-2.2,6.3-.9,17,0,21-5.5,1-1.4.3-3.7,2-3.5,3,11.7,15.2,23.9,25.1,30.4,21.2,13.8,50.4,23.7,75.4,23.5h20.5l-34.7-16.8c-19.1-10.8-48.2-33.1-61.8-50.2-6.2-7.8-7.1-18.3-10.5-27.5-6-16.6-14.4-32-25-46,1.3-9,6.5-19.6,7.8-28.2,1.9-12.9,1.8-19.5,6.5-32.5,36.4-101.1,159.2-169,256.8-198.2,49.9-15,102.4-18.2,153.2-5.2,103.5,26.4,242.6,100.3,277.2,208.8,3.4,10.5,3,17.3,4.8,27.2.8,4.7,8.9,28.4,7.6,30.6l-.5-.2ZM1195.9,1382.1c-32.3-16.1-63.1-35.3-95.9-50.7-17.5-18.7-37.4-36.6-54.6-55.4-4.8-5.3-11.2-16-16-20-3-2.6-7.4-3-10.6-.6-4.5,3.4-12.7,16.4-17.4,21.6-16.7,18.6-36.8,35.6-53.6,54.4-32.9,15.3-64,34.2-96,51.2-.6,2.8,12.4,35,14.6,40.3,2.9,7.1,12.1,31.7,16,36.1,7.1,8,36.5,26.3,47,33,19.8,12.7,36.1,22.9,59.3,28.7,27.3,6.8,39.7,7.1,67,.6s43-16.6,65.7-31.3c10.4-6.8,35.9-22.5,43.4-30.6,4-4.4,12.7-27.4,15.6-34.4,2.1-5.1,16.8-41,15.5-42.9M728.3,1496.7c1.6,2,8.2,6.3,10.7,7.8,14.7,8.8,31.8,13.8,46.9,23.1,16.8,10.2,40.2,33.1,59.6,33.5,2.3,0,8.7-1.2,9.4-3.7s-13.6-27.6-16.4-30.3c-7.3-7.1-27.5-17.2-37.2-23.8-15.2-10.3-50.3-39.1-67.9-39.2-10.5,0-8.7,28.1-5.1,32.7h0ZM1319.7,1466.3c-5.9-5.9-24.1,4.1-30.4,7.6-16.2,8.9-31,21.4-46.2,31.8-12.7,8.7-30.1,15.7-38.6,28.4-2.2,3.4-10.8,17.7-11.4,20.7-1.1,5.3,6.2,6.5,10.3,6.3,16-.9,23.4-9.7,35.2-17.8,9.2-6.3,19.3-13.6,29-19,11.7-6.6,47.1-19.2,52.7-29.3,2.4-4.3,2.8-25.2-.7-28.6h0ZM1126,1664c-12-2.7-20.7,6.6-31.6,7.9-5.7.7-12.2-1.2-16.6-.7-7.1.8-22.9,12.1-31.2,14.9-14.8,4.9-30.2,4.7-45.1,0-8.8-2.8-23.9-14.1-31.2-14.9-4.4-.5-10.9,1.4-16.6.7-11-1.3-19.9-11-31.6-7.4,0,6.9,23.8,23.5,30,27,12.5,7.1,59.8,26.8,72.5,26.6s59.9-19.8,72.2-26.9c10.3-6,24.6-16.2,29.3-27.2h-.1Z" fill="#AAAAAA" style="opacity: 0.5"/></g><g class="trait-group" data-category="jaw">
  </g><g class="trait-group" data-category="jaw"><path id="outline-jaw" d="M676,1140c5.3-3,18.5-3.6,19.1,4.5-2,7,0,18.6-3.2,24.9s-17.1,12.9-20.3,20.7c-1.1,2.6-6.2,25.4-6.5,28.5,0,1.3-.2,2.3.2,3.6,1.8,6.8,14.7,21.7,18.7,29.4,5,9.8,6.5,20.8,10.3,30.7,5.7,14.4,14.5,13.4,26.1,19.9,7.6,4.3,16,10.2,22.7,15.8-3.8,0-7.5.2-11.2-.2-8.4-1.1-30.6-5.8-38-8.9-9.8-4.2-8.9-17-13.8-20.2-2.7-1.8-8.7-1.2-12-2-6-1.4-9.7-6.6-16.7-1.3-6,11.6-13.4,22.6-19.2,34.3-7.3,15-16,27.5-6.5,43.3,5.5,9.2,23.4,26.5,26,35,2.4,7.9-2.3,28.2,2.4,33.6,7.5,8.5,28.6,4.4,35.5-3.6,2-2.4,2.5-6.3,4-9,6.3-10.9,19-25.2,30.7-30.3,12.2-5.3,16.1,11.4,18.4,20.3,3.6,14.2,1.3,26.5,12,38,6.7,7.3,18.2,14.5,27.2,18.8,4.7,2.2,21.2,9.9,25.3,10.7,12.8,2.4,25.4-6.5,32.6-16.5,2-2.8,2.8-6.3,4.7-9.3,9-14.8,16.3-6.2,25.8,1.8,11,9.2,20.9,19.8,32,29,45.8,38.3,90.7,54.1,151.4,45.3,58.2-8.4,83.7-40.7,125.7-75.3,2.2-1.8,8.8-7.7,10.8-8.2,12.1-3.2,14.2,10.5,19.7,17.8,5.7,7.4,15.3,15.6,25,16,7,.3,27.7-8.7,34.9-12.2,10.9-5.3,28.8-17.6,32.4-29.6,2.2-7.6,2.6-17.3,4.6-25.4,2.3-9,6.1-26.7,18.6-21.2,9.4,4.1,22,16.8,27.5,25.5,5.6,8.9,3.9,13.8,14.9,19.1,7.3,3.5,20.9,5,27.1-1.3,5.8-5.8.5-25.5,3-34,2.6-8.8,20.8-26.2,26.4-35.6,8.1-13.8,2.8-20.8-3-33.7-6.7-15-15.5-28.9-23.1-43.4-6.9-5.2-11.2-.2-17.5,1.5-3,.8-8.4,0-11.2,1.8s-5.1,12.8-8.6,16.4c-2.4,2.4-6.7,4-9.9,5.1-7.8,2.7-25.9,6.9-34.1,7.9-3.4.4-7,0-10.4,0,6.2-5.6,14.7-11.2,22.1-15.4,10.5-5.9,20.2-6.1,25.7-18.3,4.2-9.5,5.8-20.9,10.4-30.6,4.3-9,17.4-23.9,19.4-31.6.4-1.7.5-2.5.2-4.2-.6-4.5-5.3-24.5-6.9-28.2-3.4-7.8-19.2-16-20.8-22.2-.9-3.4-2.7-24.1-1.6-26.4,2.2-4.5,13.6-3.5,17.5-1,.8,2.8,2.9,13.6,4.2,14.8,4,3.5,21.3,4.8,24.5,11,2.5,4.8,0,15.5.2,21.8,0,2.9.8,7.8,1.3,10.7,1.5,8.6,9.7,23.3,7,30.5-2.3,5.9-12.8,22-16.8,28.2-3.3,5.1-7.9,9.5-10.4,15.1.7.7,9.7-4.6,10.9-5.6,5.4-4.1,7.6-12.1,14.6-5.5,4.7,4.4,13.6,18.5,17.5,24.5,10.1,15.9,19.6,34.4,25.7,52.3,1.6,4.7,5.8,14.8,3.7,19.2-.7,1.6-9.2,9.8-11.3,12.7-16.3,21.9-31.2,47.4-32.7,75.3-.8,1.3-2.2,1.8-3.5,2.5-5.7,2.8-27.3,11.7-32.6,12.4-3,.4-6.5.3-9.5-.3-4.5-.9-7-4.1-10.9-5.6-1.1,9.1-2.6,18.4-3,27.5-.4,7.8,1.5,32.2-.6,37.4-.4,1.1-11.8,14.9-12.7,15.3-3.8,1.8-11.7.3-16.3.7-13.5,1.3-21.2,15.2-25.2,26.8-4.6,13.3-5.2,27.9-9.2,40.8-5.8,19.3-37.7,50-54.2,61.8-.9.6-4.2,3.4-4.9,2.6,1-15.3,2.8-31.2-2.6-46-.3-.9-1.8-5.7-3.4-4-.6.6-3.5,12.5-6.2,16.3-8.3,11.9-29.2,7.9-37.8,19.2-9.5,12.3-7.6,28.7-22.1,38.9-32,22.4-79.6,38.4-117.7,46.3-12.4,2.6-16.8,2.3-29-.4-35-7.6-67.9-18.6-99.2-35.8-5.1-2.8-20.9-11.4-23.8-15.2-6.2-8-8.6-25.8-15.6-34.4-9.6-11.7-30.7-5.5-39.2-21.8-1.5-2.8-3.8-12.7-4.3-13.2-1.8-1.8-3.8,4.8-4,5.4-4.5,13.8-3.1,29.3-2,43.5-1.7,1.8-16.8-10.7-19-12.5-15.1-12.7-36.9-37.3-41.5-56.5s-7.6-59.5-33-62c-4.4-.4-13.1,1-16.5-.5-.9-.4-12.1-14.4-12.5-15.5-2.6-7.5-.2-27.3-.6-36.4s-2.3-19.1-3-28.5c-.4-.5-9.5,5.3-11.7,5.8-13.3,2.8-32.2-10.6-45.1-13.9-.7-27.4-14.8-51.6-30.3-73.2-2.2-3.1-4.5-6.2-6.8-9.2-4.1-5.2-7.9-4.8-6.9-12.9,1.3-10.6,13.1-35.4,18.4-45.6,3.6-6.8,26.1-44.2,31.2-45.8,7.3-2.2,13.1,11.5,21.3,11.8l-25.5-40.9c-4-9.3,4.3-21.7,6.2-31.8s.2-19.2,1.3-28.7,18.5-11,25.8-14.7c2.6-2.8,1-6.8,1.5-9,.4-1.9,1.3-3.7,1.8-5.8h-.5ZM799,1627.5v-20c0-3.1,8.8-25.7,11-27,4.3-2.7,20.4,9.8,24,13,12,10.5,20.7,26.3,32,36,8.5,7.4,21.1,12,29.5,19.5,10.9,9.6,20.1,26.5,30.5,37.5,11,11.7,29.8,18.4,44.7,24.3,25.1,9.9,38.9,14.1,66.8,12.3,16.1-1,62.3-19.4,76.4-28.6,13.7-8.9,25-32.9,37.6-44.4,9.3-8.6,24.5-14.2,33.6-22.4,10.1-9.2,18.3-23.6,29.4-33.6,3.6-3.3,19.9-16.8,24.4-13.8.8.6,6.9,16.7,7.6,18.9.5,1.7,2.5,8.4,2.5,9.5v17c0,.6-1.6,2-1,3.5,10.4-10.7,20.8-25.9,23.6-40.9,2.4-12.9,1.4-27.4.4-40.5-.3-4-2.6-6.9-.8-10.8,3.7-8.5,20.8-15.9,29.2-19.9s24.7-7.7,29.1-15.9c4.6-8.5,2.6-32.2,3.7-43.3,1-10.3,7.7-19.4,6.9-29.1-.6-6.6-5.4-16.3-10-21-1.5-1.5-8.2-6.7-10-5.5-1.8,1.3-7.1,27.7-7.1,31.5,0,7.3,4.4,13.6-2.4,19.5-17.3,15-41.2,23.8-61.1,34.9-5.5,3.1-23.5,16.8-28.6,16-2.7-.4-5.4-3.6-9.2-3.9-11.7-.8-14.9,8.5-22,15-16.4,14.9-41.2,22.8-63,25-69.3,7-135.6,7.1-205,0-22-2.2-45.8-9.7-62.5-24.5-7.2-6.4-10.9-16.4-22.5-15.6-3.7.2-7.5,4-9.8,3.8-5.4-.5-21.2-12.7-27-15.9-13.4-7.4-27.8-13.2-41-21-4.6-2.7-22.9-14-23.7-18.3-1-5.2,1.1-10.4,1.1-15s-5.6-31.3-7.6-31.5c-7.7-.9-16.7,15.1-18.5,21.5-4.1,14,4.6,20.6,5.9,34.2,1.4,13.7-4.1,40.6,8.8,49.2s39.9,13.7,50.8,26.2c5.6,6.4,1.4,8.6.7,15.6-3.2,29.7,1.3,54.7,20.9,77.8.5.6,3.9,4,2,1l-.3-.3Z" class="outline" fill="#000000"/></g><g class="trait-group" data-category="jaw">
</g>
<g class="trait-group" data-category="mouth"><path id="fill-muzzle-1" fill="#fff" d="M1038 1292s-.4 1.7.7 2c10.3 2.8 18 4.3 25.8 13 1.9 2.2 4.9 8.8 6.5 9.5 2.6 1.2 6.6 0 9.5.5 11.4 1.5 21.2 3.7 31.2 9.8 2.1 1.3 9.2 7.8 10.2 7.1.3-.3 0-1.7 0-1.9 2.4-1.8 32.7.6 38 1 5.2 4.2 13.2 5.5 19.2 8.3 13.7 6.4 22.5 16.1 29.9 29.1 8.4 14.6 7.7 17.8 3.1 33.4-2.5 8.5-4.8 21.8-16.3 20.2 1.5-15.5-14.8-32.4-26.5-41-3.2-2.4-11.3-7.2-6 0 10.7 14.6 20.5 15 21.5 37.5.5 10.4-8.3 32.8-15.4 40.5-.6.7-7.1 6.3-7.6 6.5-3 1.6-6.8-6.1-7.8-8.2-3.7-7.7-4.8-15.6-9.7-23.3-1.1-1.7-10.8-13.7-12.4-12.1 5.6 13 9 46.2-2.5 56-4.4 3.7-9.4 1.9-13.3 3.7-2.8 1.3-3.1 5.8-4.8 6.2-.9.2-7.2-3.2-9.4-3.5-9.3-1.3-13.1 17-18.7 17.4-2.5.2-10.7-11.9-18.4-9.4-6.8 2.2-15.3 20.6-23.6 23.5-7.3-4.5-4.2-14-6.6-21.1-1.2-3.5-4.2-6.7-5.8-10.2-5.4-12.7-2.8-19.9-.2-32.2.7-3.3-.2-6.3 1.2-9.8.4-1 6-11.5 6.6-12.4 3.7-5.4 19.2-12.4 22.7-3.8.9 2.2 0 8.7 2.2 7.7 5.1-4.9 10.2-9.9 15.5-14.5 10.2-8.9 12.8-8.2 19.5-21.5 1.9-3.8 8.1-17.3 8.2-20.7.2-6.3-17.9-22.6-21-29-3.6-2.9-22.1-2.8-27.2-2.3-14.1 1.5-18 12.2-27.5 19.5-1 .8-1.3 1.9-3 1.5l.8-12.7c7.6-8.2 14.9-16.6 21.1-26 .7-3.3-8.6-12.4-11.3-13.2-3.6-1 .5 5.5.5 6.6.4 5.2-5.9 4.1-9.3 5.6-1.2.5-3 2.7-3.2 2.7s-2-2.2-3.2-2.7c-8-3.5-11.7.6-7.3-12.2-1.6-1.7-12.5 9.1-12.9 11.7-.2 1.6 3.6 7.8 4.8 9.5 1.5 2 5 5.9 7 8.3 3.2 3.9 9.7 7.7 9.9 13.1 0 1.6-.8 3.1-.8 4.8s2.6 8.1-2.5 3.6c-6.2-5.3-10.1-13.6-18.5-17.5-6.8-3.1-28.3-4.1-34.7-.8-.8.4-9.9 11.1-11.2 12.8-2.4 3-10.9 13.7-10.8 16.8.2 5.1 11.2 27.9 14.7 32.2 2.8 3.4 10.2 7.7 14 11 5 4.3 9.7 9.1 14.5 13.5 2.2.9 1.5-5.2 2-7 2.4-9.9 19.2-2.4 23 3.1.7.9 6.6 13.1 6.9 14.1 2.9 11 5.6 26.6 1.9 37.5-1.7 4.9-6.8 10.4-7.8 15.2-1.4 6.6 1 13.6-5 19-5.3 1.2-18.8-21.7-24.4-23.5-8.2-2.6-15.9 9.6-18.4 9.4-5.3-.4-8.7-14-13.9-16.1-6.9-2.8-11.5 2.7-14.1 2.1-1.8-.4-2-4.8-4.8-6.1-4.5-2-9.6.3-14.3-4.7-10.9-11.5-6.5-42.2-1.5-56.1-9.1 6.7-14.1 14.8-18.5 25-1.6 3.6-2 7.5-3.7 11.3-1 2.1-4.9 9.8-7.8 8.2-.4-.2-6.9-5.8-7.5-6.5-4-4.2-13.8-24.3-15-30-2.8-12.9 1.4-26.5 9.5-36.5 4.1-5.1 11.3-9 13-15.5-2.4-2.4-22.3 17.4-24.4 20.1-5.4 6.8-11 15.9-9.6 24.9-4.7.2-8.1-.7-10.8-4.7-1.8-2.7-8.8-24.3-9.2-27.8-1.1-10.9 10.9-28.8 18-37 10.5-12.2 24.5-14.2 38-21.5 12.5-.8 24.5-2.3 37-1 0 0 .7 2.1.5 3 9.5-8.2 20.6-14.8 33.1-16.9 4.7-.8 14.8-.4 18.1-1.8 1.6-.7 5.2-7.7 7.2-9.9 8-8.4 15.2-9.7 25.4-12.5 1.1-.3.6-1.9.7-2 1.1-.7 25.9-.7 27 0Z" class="fill" data-original-prefix="fill"/></g><g class="trait-group" data-category="mouth"><path id="fill-teeth16" fill="#fff" d="M995.3 1525.7c11 9.5 17.2-6.6 23.2 6.3 6.5 14.1 3.7 38.4-1 52.9-.7 2.1-7.1 16.9-8 17.1-1.2.3-3-.4-4.2-.9-12-5.1-31.7-18.1-39.1-28.9-10.6-15.5-6.4-42.9 6.8-55.8 1.3-1.3 9.1-5.6 10.4-5.3 1.5.3 9.4 12.3 12 14.5h-.1Z" class="fill" data-original-prefix="fill"/></g><g class="trait-group" data-category="mouth"><path id="fill-teeth15" fill="#fff" d="M1039.1 1601.9c-.8-.5-7.5-16.1-8.1-18.4-4.1-13.8-6.5-36.9-1.3-50.3 4.6-12 8.1-4.3 15.8-4.2 9.5.2 17.3-18.2 20.8-17.9 1.2 0 8.5 4.2 9.7 5.3 6.3 6.2 12.2 22.3 13 31 2.4 28-20.3 39.6-41.3 50.7-2 1.1-5.7 5.5-8.6 3.7Z" class="fill" data-original-prefix="fill"/></g><g class="trait-group" data-category="mouth"><path id="fill-teeth14" fill="#fff" d="M904 1461c0 2.2-1.1 3.8-.8 6.2.2 1.8 7.1 22 8 23.1 3.9 5.1 11.2 3.2 16.7 3.8 4.9 13.5-4.2 23.8-8.6 35.6-2 5.3-8.7 33.1-12.8 34.2-1.8.5-6.8-9.1-8.3-10.7-10.3-23.9-15.3-58.4-2.6-82.2.6-1.2 7.1-11.6 8.4-10.1Z" class="fill" data-original-prefix="fill"/></g><g class="trait-group" data-category="mouth"><path id="fill-teeth13" fill="#fff" d="M1144 1564c-2.1 1.4-6.1-7.1-6.8-8.7-3.2-7.9-4.4-17.4-7.5-25.5-4.3-11.6-13.6-22-8.6-35.6 4.8-.6 12.3 1.2 15.9-2.9 1.3-1.5 8.1-20.6 8.6-23.2.3-1.8-1.4-7 .9-6 6 2.7 13.7 26 14.4 32.6 1.4 13.9-2.9 45-9.3 57.4-.8 1.5-7 11.6-7.6 11.9" class="fill" data-original-prefix="fill"/></g><g class="trait-group" data-category="mouth"><path id="fill-teeth12" fill="#fff" d="M1093.1 1644.9c-2.9-1.8-2.4-28.5-2.1-33.4.7-10.5 5.2-31.2 8.9-41.1 1.1-2.8 2.4-1.4 4.2 0 12.2 9.6 21.1 44.8 12.8 57.9-1.9 3-15.6 14.9-18.9 16.1-1.3.5-3.8 1.1-4.8.4Z" class="fill" data-original-prefix="fill"/></g><g class="trait-group" data-category="mouth"><path id="fill-teeth11" fill="#fff" d="M949 1569c5.5 22 11.1 44.4 9 67.5-.5 5.2-.9 10.3-7 8-3.4-1.3-17.5-13.4-19.5-16.5-5.8-9.2-1.4-31.3 2.7-41.2 1.2-2.9 11.3-21 14.8-17.7Z" class="fill" data-original-prefix="fill"/></g><g class="trait-group" data-category="mouth"><path id="fill-teeth10" fill="#fff" d="M881.7 1478.3c3.1 2.8-2.7 21-2.8 26.2 0 5.9 2.6 12.4 3.1 18 .2 2.1.7 24.5-.5 24.5-1.5.2-2.1-1.1-2.9-2.1-15.6-18.9-34.8-51.8-17.4-75.3 6.5-8.8 10.5 2.1 14.9 5.8 1.8 1.5 4.9 2.1 5.7 2.8Z" class="fill" data-original-prefix="fill"/></g><g class="trait-group" data-category="mouth"><path id="fill-teeth9" fill="#fff" d="M1185.7 1467.3c1.9 1.6 7.8 13.7 8.2 16.2 3.2 20.7-9.8 47.3-23.9 61.9-.9 1-1.3 1.9-3 1.5.5-8-.7-16.6 0-24.5.4-5.4 3.1-12.3 3.1-18s-6.1-23.4-2.8-26.2c.6-.6 2.5-.6 3.8-1.7 3.4-3 10-13.1 14.7-9.3Z" class="fill" data-original-prefix="fill"/></g><g class="trait-group" data-category="mouth"><path id="fill-teeth8" fill="#fff" d="M1018 1613v16.5c0 .9-10.8 13.2-11.9 14.1-6.3 4.8-8-2.6-10.6-5.5-5.5-6-17.9-.4-24.4-5.6-1.2-.9-4.1-8.8-4.1-9.9v-22.5c12.9 1.7 28.3 17.5 41.4 15.9 3.5-.4 6.1-3 9.6-2.9Z" class="fill" data-original-prefix="fill"/></g><g class="trait-group" data-category="mouth"><path id="fill-teeth7" fill="#fff" d="M1031 1613c6.3 1.3 9.1 4 16.1 2.6 10.6-2.2 24.3-14.8 33.4-15.6 2-.2 1.4 0 1.2 1.3-.8 6.5 2.4 27.5-4.4 31.6-7 4.2-18.8-.3-23.4 4.6-2.1 2.2-3.6 8-8.4 7.6-1 0-14.6-13.5-14.6-14.6V1613z" class="fill" data-original-prefix="fill"/></g><g class="trait-group" data-category="mouth"><path id="fill-teeth6" fill="#fff" d="M1102.5 1494c3.3-.8 4.5 6.9 5.3 8.7 5.6 12.1 13 24.8 13.3 38.8.2 9-16 29.8-21.3 16.2-4-10.4-4.1-44.8-1.1-55.5.4-1.6 2.4-7.9 3.8-8.2" class="fill" data-original-prefix="fill"/></g><g class="trait-group" data-category="mouth"><path id="fill-teeth5" fill="#fff" d="M937.3 1559.7c-1.9-1.6-7.8-10.5-8.5-13-3.6-12.1 6-31.3 11.4-42 1.6-3.1 3.3-14.7 8-7.4 5.5 8.5 4.3 41.5 2.7 52.1-1.2 7.7-3.6 18.7-13.6 10.3" class="fill" data-original-prefix="fill"/></g><g class="trait-group" data-category="mouth"><path id="fill-teeth4" fill="#fff" d="M917 1563c-1.8 13.4 2.9 27.5 2 40.5-.6 9-4.4 18.4-5.5 27.5-6.2-6-10.5-16.1-11.4-24.6-.5-5.2.7-24.7 2.4-29.3.6-1.6 10.5-16.2 12.4-14.1Z" class="fill" data-original-prefix="fill"/></g><g class="trait-group" data-category="mouth"><path id="fill-teeth3" fill="#fff" d="M1135 1631c-.4-8.9-4.4-17.8-5.1-26.5-1-13.8 3.7-27.6 2-41.5 2.2-2.4 11.9 13 12.5 15 2 6.6 2.6 27.4 1.2 34.3-1.3 6.3-5.5 14.9-10.8 18.7z" class="fill" data-original-prefix="fill"/></g><g class="trait-group" data-category="mouth"><path id="fill-teeth2" fill="#fff" d="M1154.1 1604.9c-3.4-2-5.1-22.3-3.9-26.2.8-2.6 8.9-5.2 10.2-8.8l5.1-10.9c3.8 3.4 5.1 7.2 4.3 12.2-.7 4.2-5.4 22.7-6.9 26.2-.9 2.2-6.1 9-8.8 7.5" class="fill" data-original-prefix="fill"/></g><g class="trait-group" data-category="mouth"><path id="fill-teeth1" fill="#fff" d="M885 1559c-.3 3.7 1.7 9.4 4 12.2s9.5 5.2 10 8.3c-2 8.4 1.6 19.2-5.7 25.4-3.6-1.1-6-4-7.4-7.4s-6.5-23.6-6.9-27.1c-.5-4.2 1.2-10.6 5.9-11.4z" class="fill" data-original-prefix="fill"/></g><g class="trait-group" data-category="mouth"><path id="outline-shading-mouth2" fill="#000" d="M918 1443.5c.8 5.3 5.6 13.8 10.1 16.9 11.5 8.3 16.2-.3 22.4-9.4 2.5 5.4 3.4 11.5 6 17 1.4 2.8 5.7 12 7.5 5.5l4-11.5c1.6 7.5 6.3 15.4 11.5 21 4.3 4.7 18.8 15.4 24.6 9.6 2-2.1 8.3-17.9 10.8-22.2 1.2-2.2 7.8-13.8 9.7-13.3 1 .2 8.5 13.2 9.7 15.3 2.4 4.5 7.3 17.7 9.8 20.2 3.8 3.8 10.5.4 14.4-1.8 10.5-5.9 18.5-17.2 21.7-28.8l4.2 12.3c.3 1.2 1.9 2.4 2.8 1.7.6-.4 5.8-11.3 6.5-13 .8-2 2.8-12 4-12 6.8 10.7 12.9 18.4 24.5 7.5 8.6-8 9.3-23.8 7-34.5 3.5-3.1 21.1 16.1 26.6 16.9 9.1 1.4 17.6-11.8 19-19.9 3.5-20.5-12.9-39.2-30.9-46.2l-12.7-4.8c15.4 0 28.2 2.9 41.1 11.4 4.8 3.1 12.2 10.9 17.6 11.4 6.2.6 10.1-4.1 10-10-.4-19.3-25.8-38.1-39.7-48.8 15.4 2.4 34.6 11.8 45 23.5 7.8 8.8 19.1 25.1 19.1 37s-6.4 28.5-9.2 32.8c-3.3 5.3-11.7 5.4-13.4 10.6-.9 8.1-2.1 16.4-2.5 24.5-1.5 29 1.4 45.2-10.8 73.2-3.6 8.2-12.7 20.4-14.9 27.1-4.2 12.8-.7 26.4-9.1 38.9-3.2 4.8-8.4 6.7-11.2 10.8-1.7 2.5-2.4 6.1-4.2 8.8-4.5 6.7-14.6 23-21.6 8.9-1.6-3.3-1.3-12.9-6.7-6.2-1.4 1.7-1.9 4.4-3.5 6.5-3.7 4.7-17.7 19.6-23.5 19.5-2.2 0-4.5-4.1-6.6-5.4-7.9-5-21.1-6.3-29.2-1.4-7.3 4.4-9.5 13.6-18.1 6.8s-6.4-10.8-20.1-9c-5.6.7-11.4 12.6-16.9 12.1-2.8-.2-11.4-11.1-18.5-12.6-6.3-1.3-17.5.7-23 4.2-2.6 1.7-4.1 5.6-7.5 5.4-5.7-.3-19.8-15.8-23.6-20.5-1.2-1.5-4.4-10.6-7.1-6.9-2.5 3.4-.6 9.9-7.2 12.7-7 3-14.9-11.2-18.1-16.4-1.2-1.8-1.2-4.3-2.6-6.4-2-3-6.8-5.4-9.5-8.5-10.4-11.9-6.7-27.7-10.7-41.3-.8-2.6-5.6-8.5-7.3-11.7-18.4-35.7-16.4-45.6-18.4-84.6-.4-7.7-.6-20.7-2.2-27.8-1.5-6.2-11.1-6.1-14.2-11.8-3.4-6.1-9.3-29.6-8.6-36.4 1.2-10.3 16.2-31.2 24-38 10.5-9.2 26.2-16.5 40-18.5l-21.5 17c-7.2 6.4-26.8 32-14.8 39.9 9 5.9 16.7-4.5 23.7-9.1 12.7-8.4 25.3-11.8 40.7-11.8l-17.3 7.2c-18 9.4-33.1 32.7-22.1 52.8 1.7 3.1 8.6 10.4 12 11.1 9.1 1.7 20.7-15.4 29.5-18 .6 6.4-.9 14.3 0 20.5zm-37.1 40.6c-12.3-.5-17.1-20.2-22.8 1.5-3.4 13 1.2 26.4 9.4 36.5 1.5 1.8 12.7 13.1 13.9 12.9.8 0 2.5-2.3 2.8-3.2 2.9-7.1-3.2-12.2-4.2-19.2-1.5-9.8 0-18.7.9-28.4Zm301.8-8.9c-3.2.8-6.3 6-8.8 7.3-2.1 1.1-7.2 1-7.8 3.2-.5 1.7 3 10.8 2.9 14.8 0 3-1.5 13.9-2.2 16.8-.9 3.6-3.9 5.7-3.9 10.2s1.4 7.1 3.7 7.4c1.9.3 15-14.4 16.8-17 5.7-8.5 9-18.8 7.3-29.2-.5-3-4.4-14.5-8-13.6Zm-284.8 10c-4-2.3-6.5 9.9-6.8 12.5-1.2 10.5 3 38 8.7 47.1 1.9 3 5.4 6.9 9.2 7.3 3.7-15.6 12.6-29.2 21-42.5-2.3-.4-1.7-2.9-2.7-3.5-1.5-.9-7-1.9-9.7-3.1-4.7-2.2-12-7.7-15.6-11.4-1.2-1.2-3.8-6.2-4.2-6.3ZM1139 1552c8.3-2 11.9-12.2 13.9-19.6 3.1-12.1 6.1-33.4 1.1-44.8-3-6.9-5.8 1.7-8.3 4.1-3.9 3.8-11 9.3-16 11.6-2.5 1.1-7.8 1.8-9.1 2.7-.7.5-.5 1.8-1 2.7-.3.4-1.7.4-1.6.9 0 1 7.9 12.3 9.2 14.8 4.8 8.8 9.1 18 11.8 27.7Zm-197.7 5.7c8.1 8.1 9.5 0 10.5-7.3.8-5.6 2.7-20.6 1.7-25.4-3.6-17.2-21.3-15.9-21.6 3.6 0 6.8 4.6 24.3 9.4 29.2Zm161.5-44.5c-5 1.3-8.5 9.3-8.8 14.2-.2 4 2.4 28.5 3.8 31.3 2.5 5 7.5 0 9.8-2.7 6.8-8.3 11.6-30.7 4.5-39.5-2.7-3.3-4.8-4.4-9.2-3.3zM1023 1544c-.7-.7-.8-7-5.1-9.4-8.9-5-21.8-.8-32-4-10.4-3.3-9.4-13.1-16.1 1.8-2.9 6.4-9.1 24.4-6.3 30.7 1.1 2.4 17.8 15.6 21.2 17.8s18.2 11.7 21.1 10c3.1-5.6 9.3-9.5 12.6-14.9 1.8-2.8 4.1-11.5 4.6-11.9 1.6-1.7 1.7.5 2.1 1.4 1.6 3.6 2.1 6.8 4.5 10.5 3.3 5.2 9.2 9.3 12.4 14.6 3.1 1.9 15.5-5.9 18.9-8.1 4.5-2.9 22.9-17 23.9-21.1 2.2-9.7-6.6-28.3-10.9-37.2-4.9 1-7.8 5.2-12.7 6.7-9.2 2.8-28.2-1.6-33.7 6.3-.9 1.2-2.6 8.9-4.5 7zm-136 18c-.7-.6-3.5 0-4.5.9-6 6.2 2.4 31.6 14.6 27.6 4-1.3 3.8-9.4 2.8-12.9-1.1-3.9-7.2-4.1-9.8-7.2-2.1-2.5-2.7-8.2-3-8.5Zm274.1 0c-.3.3-.9 6-3 8.5-2.6 3.1-8.7 3.3-9.8 7.2-1 3.4-1.2 11.6 2.8 12.9 13.4 4.4 20.2-24.5 14.1-28.1-.9-.5-3.5-.9-4-.4Zm-216.4 7.2c-1.5.4-5.1 4.6-6 6.1-3.4 5.6-5.6 32.3-4.8 39.3 1.3 10.9 15.2 18 19.5 3.5 1.7-5.6 2.6-21.4 2.5-27.6 0-1.1-5.8-19.7-6.5-20.5-1.2-1.4-3.2-1.3-4.8-.8Zm153.3-.1c.2 6.6-5.4 14.7-6 20.6-.5 4.5 1 25.3 2.4 29.4 4.2 12.1 16.9 7.3 19.1-2.9 1.1-5.2 0-16.8-.6-22.6-1-9.7-1.7-25.5-14.9-24.5m-180 1.9c-20.5 3.8-17 28.7-9 43 4 2.9 10.4-17 10.7-19.8.9-7.5-2.9-15.5-1.8-23.2Zm218 43c2.5 1.8 7.2-9.1 7.7-10.8 3.9-12.8 1.6-30.1-13.7-32.2.5 7.4-2.8 16.2-1.9 23.4.3 2.7 6.4 18.5 7.9 19.6m-148.2 10.2c1.4.8 4.8 8.6 9.5 11 11.1 5.8 20.2-6.4 20.7-16.7.8-13.7-7.2-7.7-16.5-8.6-8.4-.8-15-4.8-21.8-9.2-5.5-3.5-13.6-14.6-14.7-1.4-.5 5.1 1.4 7.5 1.8 11.2s-2 5.9.5 10.7c4.8 9.3 18 1.3 20.7 2.8zm93.1-31.1c-2.1-1.5-19.7 12.7-23.9 14.4-2.3 1-7.9 2.3-10.5 2.5-10.5.9-18.8-5.4-16.4 11.4 1 7.3 7.9 15.8 16 15.1 9.4-.8 11.9-11.6 14.6-12.4 4-1.3 12.3 5.7 18.9-1.1 4.3-4.4 1.3-8.4 1.5-12.5 0-2.3 1.9-4.8 2-8.1 0-1.9-.8-8.5-2.2-9.4Z" class="outline" data-original-prefix="shading" opacity=".2"/></g><g class="trait-group" data-category="mouth"><path id="outline-shading-mouth1" fill="#000" d="M1041 1343c6.1.5 12.7-1 17.5-5 1.5-1.3.9-3.7 2.8-2.9 10.1 7.9 37.9 17.4 43.8 28.2 3.6 6.5 4.6 17.5-1.8 22.6-5.6 4.5-20.8 10.8-28 15-4.9 2.8-9.7 6.6-14.7 9.3-7.4 4.1-25.5 14.5-32.6 16.4-2.9.8-5.2.8-8.1 0-14.5-3.8-42.2-22.5-56.3-30.7-6.2-3.6-21.2-9.1-23.2-15.8-5.5-18.4 15.7-28.3 28.7-35.4 2.3-1.2 15.5-8.6 16.5-8.7 2.9-.3 4.2 2.9 6.7 4.2 4.2 2.3 10 3.2 14.7 2.8-.3-5.1-3.3-11.3-1.8-16.3.5-1.6 12.5-13.9 14.5-14.4 3.9-1 8.2-.3 11.6 1.9 1 .7 10.8 11.1 11.2 11.8 2.1 5-1.2 11.8-1.5 17" class="outline" data-original-prefix="shading" opacity=".2"/></g><g class="trait-group" data-category="mouth"><path id="outline-mouth3" fill="#000" d="M889 1333c-13.5 7.3-27.4 9.4-38 21.5-7.1 8.2-19.1 26.1-18 37 .3 3.5 7.3 25.1 9.2 27.8 2.7 4 6.1 4.9 10.8 4.7-1.4-9 4.2-18.1 9.6-24.9 2.1-2.6 22-22.5 24.4-20.1-1.7 6.5-8.8 10.4-13 15.5-8.1 10-12.3 23.6-9.5 36.5 1.2 5.7 11 25.8 15 30 .7.7 7.1 6.3 7.5 6.5 3 1.5 6.9-6.1 7.8-8.2 1.7-3.8 2.1-7.7 3.7-11.3 4.4-10.2 9.4-18.4 18.5-25-5.1 13.9-9.5 44.6 1.5 56.1 4.8 5 9.9 2.7 14.3 4.7 2.8 1.3 3 5.7 4.8 6.1 2.6.6 7.2-4.9 14.1-2.1 5.2 2.1 8.6 15.6 13.9 16.1 2.5.2 10.2-12 18.4-9.4 5.6 1.8 19.1 24.8 24.4 23.5 6.1-5.4 3.7-12.4 5-19 1-4.8 6.1-10.3 7.8-15.2 3.7-10.9 1-26.5-1.9-37.5-.3-1.1-6.2-13.2-6.9-14.1-3.8-5.5-20.6-13-23-3.1-.4 1.8.2 7.9-2 7-4.8-4.4-9.5-9.2-14.5-13.5-3.8-3.3-11.2-7.6-14-11-3.5-4.3-14.5-27.1-14.7-32.2 0-3.1 8.4-13.8 10.8-16.8 1.4-1.7 10.5-12.5 11.2-12.8 6.4-3.2 28-2.3 34.7.8 8.4 3.8 12.4 12.1 18.5 17.5 5.2 4.5 2.5-1.7 2.5-3.6s.9-3.2.8-4.8c-.2-5.4-6.7-9.2-9.9-13.1-2-2.4-5.5-6.3-7-8.3-1.2-1.7-5.1-7.9-4.8-9.5.4-2.6 11.3-13.4 12.9-11.7-4.4 12.8-.7 8.7 7.3 12.2 1.2.5 3 2.7 3.2 2.7s2-2.2 3.2-2.7c3.4-1.5 9.7-.4 9.3-5.6 0-1.1-4.1-7.6-.5-6.6 2.8.8 12.1 10 11.3 13.2-6.2 9.4-13.5 17.8-21.1 26l-.8 12.7c1.7.4 2-.7 3-1.5 9.5-7.3 13.4-18 27.5-19.5 5.1-.6 23.6-.6 27.2 2.3 3.2 6.4 21.2 22.7 21 29 0 3.4-6.3 16.9-8.2 20.7-6.8 13.3-9.3 12.6-19.5 21.5-5.3 4.6-10.4 9.6-15.5 14.5-2.2.9-1.4-5.6-2.2-7.7-3.4-8.6-19-1.6-22.7 3.8-.6.9-6.2 11.4-6.6 12.4-1.3 3.6-.5 6.5-1.2 9.8-2.6 12.3-5.2 19.6.2 32.2 1.5 3.5 4.6 6.8 5.8 10.2 2.4 7.1-.8 16.6 6.6 21.1 8.3-2.8 16.9-21.3 23.6-23.5 7.7-2.4 15.9 9.6 18.4 9.4 5.6-.5 9.4-18.8 18.7-17.4 2.2.3 8.4 3.7 9.4 3.5 1.7-.4 2-4.9 4.8-6.2 3.9-1.8 8.9 0 13.3-3.7 11.5-9.9 8.1-43 2.5-56 1.6-1.6 11.3 10.4 12.4 12.1 4.9 7.6 6.1 15.6 9.7 23.3 1 2.1 4.8 9.8 7.8 8.2.4-.2 6.9-5.8 7.6-6.5 7.1-7.7 15.9-30.1 15.4-40.5-1-22.4-10.8-22.9-21.5-37.5-5.3-7.2 2.8-2.4 6 0 11.8 8.6 28 25.5 26.5 41 11.4 1.6 13.7-11.7 16.3-20.2 4.6-15.6 5.3-18.8-3.1-33.4-7.4-13-16.3-22.7-29.9-29.1-6-2.8-14.1-4.1-19.2-8.3 9.3.7 19.7 2.8 29.2 5.3 7.4 1.9 14.4 3.9 20.7 8.3 3.2 9.3 27.6 34.6 28 42 .2 3.9-8.4 23-10.2 28.7-2.4 7.4-1.3 15.8-9 20-2.1 1.1-8.8 2.4-9.5 3-3.6 3.6-1.9 26-2.2 32.3-1.2 29.7-2.2 52.7-20.5 77.5-.9 1.2-2.6 1.5-3.6 2.7-4.3 5.6-2.8 18.6-4.3 26.5-1.1 6-5 13.1-5.6 18.4-.4 3.6 1.4 7.3.2 10.1-1 2.4-9.9 8-12.6 9.5-2.2 1.2-5.7 1.5-6.5 2-.6.4-5.4 10.9-7.2 13.3-2.1 2.7-11.1 11.3-14 12.1-4.1 1.2-7.9-10.3-9.9-13s-2.3 2.3-3.6 4.3c-4.3 6.7-25.1 26.6-32.4 28.6-1.7.5-3.3.7-5 .5-.2-6.5 3.6-11.9-3-16.5-7.6-5.2-17.7 0-21.5 7.4-4.2 8.3-1.8 29.9-14.4 16.5-7.1-7.5-13-17.8-18.5-26.4-2.8 5-19.9 30.6-24 31-5.8.6-5.9-11.5-7.2-15.8-2.5-8.5-10.5-17.7-20-14.4-12.1 4.1-4.7 16.7-6.3 18.2-6 1.1-9.7-4.5-15-5-1.3 6.3-5.2 11.9-5.1 18.5.2 11.2 13.9 23.7 10.9 33.8-.8 2.7-3.4 3.2-5.5 1.4-3.7-3.3-7.9-17.8-10.4-23.1-3.8-8-11.3-14.9-9.4-23.7 1-4.7 7.9-13.9 7.6-17.4-.5-5.3-12.8-12.5-12-18.6-1.2-.2-1.3-.3-2.1.6-2.1 2.7-6.2 14.3-10.2 13.3s-12-10.2-13.7-12.4c-2.1-2.7-6.6-12.8-7.2-13.2-.7-.5-4.2-.8-6.5-2-2.5-1.3-12.6-7.8-13.2-9.9s1.2-6.2.8-9.7c-.6-5.1-4.5-11.5-5.6-17.4-1.7-8.4.3-19.9-3.9-26.1-5.9-8.8-10.5-12.8-15.3-23.7-13.6-31.3-7.5-52.3-10.1-83.9-.8-9.9-3.8-5.3-10.8-9.3-8.2-4.6-6.8-13.1-9.3-20.7-1.9-5.9-9.7-21.8-10-26.1-.2-3.3 1.1-4.7 2.5-7.3 6.8-12.4 18.9-24.3 26.1-36.9 5.9-4.3 13.2-6 20.1-7.9 9.7-2.6 19.8-4.7 29.2-5.3Zm15 128c-1.4-1.5-7.8 8.9-8.4 10.1-10.6 19.9-8.6 50.8-1.8 71.7 1.1 3.3 9.4 22.1 12.8 21.2 4.4-1.1 10.8-28.9 12.8-34.3 4.3-11.7 13.6-22.1 8.6-35.6-4.8-.6-12.2 1.2-15.9-2.9-1.4-1.5-8.5-21.7-8.8-24s.8-4 .8-6.2Zm240 103c.6-.4 6.8-10.5 7.5-12 6.2-12 8.8-32.9 9.5-46.5.8-15.3-4.1-32.2-14.6-43.5l-2.2 9.8c-4.9 13.6-4.6 25.2-23.1 22.4-5.2 13.7 4.3 23.9 8.6 35.6 3.1 8.4 6 27.5 11.8 33.2.7.7 1.4 1.8 2.4 1.1Zm-262.3-85.7c-1-.9-4.6-2-6.6-3.9-4.2-3.9-7.8-13.1-14-4.7-13.3 17.9-4.1 44.9 7 61.7 1.6 2.4 11.5 15.7 13.3 15.7.5-8 1.2-16.5.5-24.5-.4-5.4-3.1-12.3-3.1-18s6-23.3 2.8-26.2ZM1167 1547c1.7.4 2-.5 3-1.5 17.5-18 32.6-50.9 18.4-74.4-6.5-10.8-10.8-.4-16.9 4.9-2 1.7-5 1.6-5.5 4.5-.8 4.5 4 18.3 4 24s-3.3 14.8-3.6 21.2 1.6 14.6.6 21.3m-219.1-51.9c-4.7-3.3-6.5 7.1-7.7 9.6-5.3 11-11.8 23-12.2 35.8-.2 7.6 10.5 26.2 19.1 21 3-1.8 4.7-18 5-22 .4-6.4.2-41.4-4.1-44.4Zm67.8 32.2c-3.2-2.8-9.7 3.2-15.8 1.3-2.1-.7-8.7-7.5-10.5-9.5-2.6-2.9-3.4-8.8-8.2-7.4-12.2 3.5-20.5 24.1-21.2 35.9-.9 13.6 2.4 21.7 11.5 31.5 9.8 10.4 24 15.7 36.1 23h2.3c2.1-6.4 6.2-12 8.1-18.4 3.7-12.2 7.9-47.3-2.3-56.2zm23.4 74.6c1.1.7 3.4 0 4.6-.7 5.6-2.4 20.1-11.1 25.2-14.8 13.4-9.8 21.4-21.7 20.1-38.9-.9-11.9-9.2-33-22-36.1-4.4-1.1-5.5 5-8 8-1.7 1.9-7.3 7.9-9.2 8.8-9.2 4-14.3-9-20 5-5.4 13.2-2.6 37.5 1.5 51.1.7 2.2 7.1 17.1 7.9 17.6ZM885 1559c-3.2-3.3-6.4 8.4-5.8 12.3.7 4.5 5.4 23.4 7 27 1 2.2 6.2 8.5 8.7 6.7 3.4-2.4 3.2-20.7 4-25.4-.5-3.1-8.3-6.1-11-10-2.3-3.5-2.6-10.1-3-10.5Zm32 4c-1.9-2.2-11.8 12.5-12.4 14.1-1.7 4.6-3 25.2-2.4 30.3.9 7.9 5.6 18 11.4 23.6 1.4-8.8 5-18.6 5.5-27.5.8-13.1-3.7-27.1-2-40.5Zm218 68c7.1-5.4 12.1-18.8 11.8-27.5 0-2.6-1.7-5.2-1.8-8-.3-5.4.8-12.5-.5-17.5-.6-2.3-10.4-17.3-12.5-15 1.5 13.8-3.1 28-2 41.5.7 8.7 4.6 17.6 5.1 26.5Zm-35-62c-2.8 14.2-8.1 27.9-9 42.5-.3 5.3-1.4 33.3 3.6 34.4 2.4.6 18.8-13.3 20.9-15.9 8.3-10.5 3.8-32.3-1-44-1.2-2.9-11-19.9-14.5-17m-82 44c-3.5 0-6.1 2.5-9.6 2.9-12.7 1.6-29.1-13.9-41.4-16.9v24.5c0 .6 3.2 8.2 4.1 8.9 6.5 5.2 18.9-.4 24.4 5.6 2.6 2.9 4.3 10.3 10.6 5.5 1.1-.8 11.9-13.1 11.9-14.1v-16.5Zm64-13c-13.2 1.2-27.8 17.6-41.4 15.9-3.5-.4-6.1-3-9.6-2.9v17.5c0 1.1 13 14.6 15.4 14.5 4.9-.3 5.1-4.7 7.1-7 5.5-6 18.3-.4 24.4-5.6 1-.9 4-9.7 4-11v-21.5Z" class="outline" data-original-prefix="outline"/></g><g class="trait-group" data-category="mouth"><path id="outline-mouth2" fill="#000" d="M1122 1332c-.2 0 .2 1.6 0 1.9-1 .8-8.1-5.8-10.2-7.1-10-6.1-19.8-8.3-31.2-9.8-2.9-.4-6.9.7-9.5-.5-1.5-.8-4.5-7.4-6.5-9.5-7.8-8.7-15.6-10.2-25.8-13-1.1-.3-.6-1.9-.7-2 3.1-3.8 16.2-9.3 20.8-9.8 7.9-.9 5.5 4.4 6.5 9.1 2.3 10.7 9.3 19.6 21.3 18.8 5.1-.3 5.6-4 7.9-4.1 1.4 0 6.6 2.9 8.2 3.8 9.4 5.2 15 12.5 19.3 22.2z" class="outline" data-original-prefix="outline"/></g><g class="trait-group" data-category="mouth"><path id="outline-mouth1" fill="#000" d="M1011 1292s.4 1.7-.7 2c-10.2 2.8-17.4 4.1-25.4 12.5-2 2.1-5.6 9.2-7.2 9.9-3.4 1.4-13.5 1-18.1 1.8-12.5 2.1-23.6 8.7-33.1 16.9.2-.9-.5-2.8-.5-3 .7-2.3 8.9-13.5 11-15.5 2.4-2.4 14.7-10.5 17.6-10.4s3 5.1 11.9 3.9c10-1.3 16.2-10.1 17.5-19.6.4-2.6-2.4-6.7 2.8-8.2 3.5-1 21.7 5.6 24.3 9.8Z" class="outline" data-original-prefix="outline"/></g>
<g class="trait-group" data-category="eyes"><path id="fill-eyes" fill="#fff" d="M1396 1159c-.9.9-21.4-3.8-26-1.5-.9.4-1.5 1.3-1.8 2.2l-13.4 125.1c-12.4 3.8-24.1 9.7-36.2 14.2-30.7 11.4-62.1 22.2-93 33-5.9 2.1-25.5 9.7-30.1 9.9-7.6.3-36.5-5.4-45.6-7.2-10.7-2.2-16-3.3-22.2-12.8-4.2-6.3-19.5-37.9-23-40-4.2-2.5-7.6 0-11.1 0-4.1 0-15.2-13.5-18.9-16.8-5.6-2.8-14.5-13.5-19.6-15.5-3.6-1.4-6.9.5-10.5-1.5-1.5-.9-7.3-6-8.4-7.6-5.4-7-3-11.3-15.5-9.5-5 .7-5.1 6.5-8.5 10.5-.9 1-8.3 7.7-9 8-2.8 1.3-5.9 0-9.6 1.4-7.2 3.1-17.4 15.4-23.5 20.4-1.5 1.2-13.1 9.8-13.9 10.1-3.8 1.3-8.8-.5-11.5 1.5-8.1 11.9-13.8 26.4-21.6 38.4-5.4 8.2-8.9 10.2-18.4 12.6-15.7 3.8-33.8 4.3-49.8 8.1-37.2-13.3-74.9-25.5-112.1-38.9-15.9-5.8-31.3-12.7-47.2-18.2l-13.5-125.1c-.3-.9-.9-1.8-1.8-2.2-4.6-2.3-25.1 2.4-26 1.5 2.1-11.2-18.1-29.5-18.1-37.5s6.5-17.1 8.2-20.9c17.7-39.6 44.2-73.5 67.3-109.7 2.8-2.5 10.5 2.1 16 1 4.2-.8 21.5-24 26-29 32-34.9 78.1-67.7 119.8-90.2 81-43.7 221.4-43.6 302.7-.3 41.5 22.1 88.1 55.4 120 90 6.5 7.1 12.2 15.6 18.5 22.5 4.7 5.1 6.4 8 14.1 7 3.4-.4 6.1-3.3 9.5-1.5 23.5 36.2 50.1 70.5 67.8 110.2 1.9 4.3 7.3 15.3 7.9 19.1.4 2.2.2 3-.6 5-4.3 11.1-17.4 20.8-17.2 34.3h-.2Z" class="fill" data-original-prefix="fill"/></g><g class="trait-group" data-category="eyes"><path id="fill-eyes4" fill="#fff" d="M800 1304c-8.7 1.2-16.8 6-25.2 6.8-20.5-8.8-45.8-14.6-65.5-24.6-3.5-1.8-9.5-5.7-10.3-9.7-6.5-34.8-8.8-73.6-10-109 0-2.2-1-4.2-1-6.4 2.7 1.1 8.9-2.4 9.8.7 1 3.3-.2 10.7.2 14.8 2 24.8 8.2 51.2 13.5 75.5l42.8 27.2 45.7 24.8Z" class="fill" data-original-prefix="fill"/></g><g class="trait-group" data-category="eyes"><path id="fill-eyes3" fill="#fff" d="M1362 1161c0 2.2-1 4.2-1 6.4-1.2 35.4-3.5 74.2-10 109-.8 4-6.8 7.9-10.3 9.7-19.6 10.1-45 15.8-65.4 24.6-8.4-.8-16.6-5.6-25.2-6.8l45.7-24.8 42.8-27.2c5.3-24.3 11.5-50.7 13.5-75.5.3-4.2-.8-11.5.2-14.8.9-3 7.2.4 9.8-.7Z" class="fill" data-original-prefix="fill"/></g><g class="trait-group" data-category="eyes"><path id="fill-eyes2" fill="#fff" d="M796 1317c6.4.7 15.9-6.2 21.4-6 6.7.3 23.7 9.9 31.3 11.7 6.8 1.4 17.5-3.8 24-6.6 20.2-8.8 40.2-20.7 58.3-33.2 1 1.2-8.7 14.2-10.2 16.3-6.7 9.4-14.7 22.2-25.5 26.5-12.9 5.1-29 6.9-42.5 10-17.5-7.1-36.7-10-54.2-16.8-1-.4-2.4-.4-2.6-1.9" class="fill" data-original-prefix="fill"/></g><g class="trait-group" data-category="eyes"><path id="fill-eyes1" fill="#fff" d="M1254 1317c-.2 1.6-1.5 1.5-2.6 1.9-17.5 6.9-36.7 9.8-54.2 16.8-13.6-3.1-29.6-4.9-42.5-10-10.8-4.3-18.9-17.1-25.5-26.5-1.5-2.1-11.2-15.1-10.2-16.3 18.1 12.5 38.1 24.4 58.3 33.2 6.4 2.8 17.1 8 24 6.6 7.6-1.8 24.6-11.4 31.3-11.7 5.5-.2 15 6.6 21.4 6" class="fill" data-original-prefix="fill"/></g><g class="trait-group" data-category="eyes"><path id="fill-eyes-pupil2" fill="#fff" d="M1222 1222c7.6 33.3-24.8 65-57.3 45.8-3.4-2-13.9-10.2-9.1-13.7l66.3-32.1Z" class="fill" data-original-prefix="fill"/></g><g class="trait-group" data-category="eyes"><path id="fill-eyes-pupil1" fill="#fff" d="m828 1222 66.3 32.1c4.8 3.5-5.7 11.7-9.1 13.7-32.5 19.2-64.8-12.5-57.3-45.8Z" class="fill" data-original-prefix="fill"/></g><g class="trait-group" data-category="eyes"><path id="fill-eyes-rivet8" fill="#fff" d="M827.7 1121.2c14.4-3.3 20.3 16.6 10.2 24.2-15 11.4-25.7-20.7-10.2-24.2" class="fill" data-original-prefix="fill"/></g><g class="trait-group" data-category="eyes"><path id="fill-eyes-rivet7" fill="#fff" d="M1215.7 1121.2c15.9-3.7 18.7 19.1 7.2 25.2-15.7 8.3-22.2-21.8-7.2-25.2" class="fill" data-original-prefix="fill"/></g><g class="trait-group" data-category="eyes"><path id="fill-eyes-rivet6" fill="#fff" d="M903.7 979.2c9.3-2.7 14.3 12.6 2.3 16.4-10.5 3.4-9.1-14.4-2.3-16.4" class="fill" data-original-prefix="fill"/></g><g class="trait-group" data-category="eyes"><path id="fill-eyes-rivet5" fill="#fff" d="M1142.7 979.2c10.6-2.2 13 20.8.6 16-8.1-3.1-8.9-14.3-.6-16" class="fill" data-original-prefix="fill"/></g><g class="trait-group" data-category="eyes"><path id="fill-eyes-rivet4" fill="#fff" d="M765.7 1083.2c17.2-3.9 13.5 24.8-.2 24.9-13.5 0-10.5-22.4.2-24.9" class="fill" data-original-prefix="fill"/></g><g class="trait-group" data-category="eyes"><path id="fill-eyes-rivet3" fill="#fff" d="M837.2 1025.8c-5.2-5.2 1.9-18 8.5-19.5 18.3-4.2.2 28.3-8.5 19.5" class="fill" data-original-prefix="fill"/></g><g class="trait-group" data-category="eyes"><path id="fill-eyes-rivet2" fill="#fff" d="M1278.7 1083.2c16.1-3.6 21.2 26.1 4.8 24.8-11-.8-15.1-22.5-4.8-24.8" class="fill" data-original-prefix="fill"/></g><g class="trait-group" data-category="eyes"><path id="fill-eyes-rivet1" fill="#fff" d="M1209.7 1009.3c5 5 8.1 19.1-2.1 17.7-5.7-.8-14.5-16-10.1-20 3-2.7 9.6-.2 12.2 2.4Z" class="fill" data-original-prefix="fill"/></g><g class="trait-group" data-category="eyes"><path id="outline-shading-eyes5" fill="#000" d="m775 1119 36.5 25c3.7-.7-3.6-10 2.2-10.9 3.6-.6 17 22 24.9 1 1-2.5-.4-6.9 3.2-7.9 7.4-2.1 7.1 16.1 5.8 20.9-2.4 9-5.7 9.4-11.5 14.5-1.1 1-1.4.8 0 2 26.3 18.7 53.8 36.5 82.3 51.7 10 5.3 32.6 17.9 43.2 17.9s22.9-3.2 24-5.1c1.3-10.2 3-20.4 4.4-30.6 1.5-11.4-.6-21.5 8.6-30.4 1.2 7 1.7 14.2 2.8 21.2 1.7 10.6 2.9 33.7 18.7 25.8l1 12h6l1-12c12.1 6.1 14.7-5.5 16.7-14.8 2.3-10.6 2.7-21.6 4.8-32.2l6.2 9.8 6.4 52.1c.8 1 21.9 4.2 24.4 4.2 13.8 0 51.4-22.5 64.8-30.3 20.8-12.1 41.1-25.3 60.7-39.3 2.3-2.1-2.7-3-4-4.1-5.3-4.6-9.5-13.7-9-20.8.2-2.2 2.3-11.3 3.9-12.2 6.1-3.1 5.8 6.1 7.2 9.8 6.4 17.2 21.7-3.9 24.3-3.3 5 2-1.4 10.3 2.1 11 2.1.4 29.8-23.2 36-24l-6.3-6.7c-5.7-5.5-5.1-24.7 2.5-27.1 5.7-1.9 3.8 1.9 4.5 2.6s2.3 0 2.7.3c.6.6-1.4 10.8 6.9 12.7 9.2 2.1 11.2-6.8 13.8-6.8s3.9 6.9 5.1 7.1c1.5.2 14.5-5.3 18.1-5.8 10.8-1.6 23.6 3.5 34 6.5 19.2 5.5 38.1 12.4 57.2 18.3-4.6 5.8-10.2 10.9-15 16.5-3 3.6-12.1 16.8-14.5 18.5-3.1 2.2-10.8-.5-12.7 2.6-2.6 4.2-2.3 29.1-4.1 30.2-4.6.3-9.4.5-13.8-.9-.7 13.8-1.3 27.7-3.2 41.3-.8 6.1-3.4 24-6.8 28.2-2.6 3.1-13.1 9.3-17.1 11.9-17.1 11.1-37.2 22.6-55.6 31.5-2.7 1.3-6.5.7-3.1 3.4 4.1 3.2 11.6 3.2 12.7 8.7-5 .6-9 4.2-14.4 3.9-7-.4-15-5.4-21.9-6.8l-45.3 18.9c-5.5.4-26.8-9.2-33.2-11.9-7.9-3.4-44.2-19.3-47.6-24.4-1.1-1.7-5.6-13.8-4.8-14.7 1.5-.4 2.3.3 3.6.9 7.2 3.4 15.9 10.5 23.4 14.6 16.2 8.9 34.2 17.2 51.5 23.5 9.9-4.3 20.3-7.5 30.2-11.8 11.7-5.1 24.1-13 36.1-16.9 23.9-7.8 49.1-18.2 69.6-33.4 2.6-1.9 6.1-3.8 7.2-6.8 3.1-8.2 5-28.9 6.3-38.7 1.4-10.8 3.6-23.2 4.1-33.9.2-4.6.8-15 0-19-.2-1.2-.3-1.9-1.6-2.4-1-.3-18-1.3-19.8-1.1-25.5 3.1-66.6 31.5-89.5 45.5-31.2 19.1-58.7 37.9-91.7 54.3-16.8 8.3-22 9.6-36.9 22.1-1.1.9-1.6 2.9-2.5 3.5-2.6 1.6-10.5-.4-12 .5-.3.2 2.2 5.3-4.5 2-11.3-10.1-24.6-18-35.9-28.1-7.4-6.6-13.5-14.9-21.1-20.9-2.7 1.3-6.1-.6-8.4.4-2.7 1.2-7.2 8.9-9.6 11.4-14 14.1-31.6 24.4-46.4 37.6-2 1.2-4 0-6-.5l2-2c-3.2-.5-8.5.8-11.3-.2-1.4-.5-12.2-12.6-15.3-14.7-13.4-8.9-36.6-16.5-52-25-23.5-13.1-46.3-29.5-69.4-43.6-21.9-13.3-60-39.5-84.5-42.5-1.8-.2-18.8.7-19.8 1.1-1.3.4-1.4 1.2-1.6 2.4-.8 4.3-.3 16.1 0 21 1.4 23.2 7.2 47.7 10.2 70.8 1.8 4.5 25.6 17.9 31.1 20.9 16.5 9.1 28.4 13.3 45.9 19.1 11.7 3.9 24.4 11.9 36.1 16.9 10 4.3 20.2 7.6 30.2 11.8 16.9-6.2 34.2-14.2 50.1-22.8 8-4.3 17.2-11.6 24.8-15.2 1.2-.6 2.1-1.3 3.6-.9.7.6-3.8 13.2-4.8 14.7-2.9 4.7-38.1 20.3-45.5 23.4-6.6 2.8-28.5 12.9-34.2 12.9s-7.9-2.3-11.5-3.6c-11.8-4.4-23.1-10.6-34.8-15.3-6.7 1-15.1 6.6-21.8 6.7-4.8 0-9.7-4.3-14.5-4.8-1.3-1.7 11.6-7 12.7-7.8 3.7-2.4-.7-2.2-3.1-3.4-10.7-5.2-21-10.8-31.3-16.7-9.7-5.6-33.3-18.5-40.4-25.6-4.6-4.7-6.8-21.2-7.8-28.2-2-14-2.8-28.2-3.2-42.3-16 3.2-11.8.8-13-10.5-.3-3.2-1.9-17.2-2.9-18.8-2.3-3.7-13.3-.4-13.9-.8-.8-.5-9.2-13-11.2-15.4-6.1-7.2-12.7-14-19-21 19.9-6.8 40-14.1 60.2-19.8 9.3-2.6 20.5-6.8 30-5.5 3.6.5 16.9 5.8 18.1 5.6 3.1-.6 2.9-7.6 7.1-6.9.9.2 3.4 9 12.8 6.8 7.3-1.6 5.8-7.7 6.6-12.2.2-1.1 2.3-.2 2.9-.7.5-.4.3-6.5 6.2-1.3 8.3 7.2 4.7 27.9-6 31.6z" class="outline" data-original-prefix="shading" opacity=".2"/></g><g class="trait-group" data-category="eyes"><path id="outline-shading-eyes4" fill="#000" d="M921.8 865.2c1.3 1.3 1.4 4.3 1.1 6-.8 4.6-8.3 15.9-10.6 21.5-8.1 20-14.7 45.3-20.7 66.3-9.6 33.5-16.9 67.6-26.5 101 16.2 7.7 32.1 16 47.7 24.8 9.5 5.4 41.2 22.6 46.2 29.8l16.2 30.3c-1.9.4-2.4-1.1-3.5-2-42.3-35.2-86-65.5-133.8-93.2-26.1-15.1-43.1-21.5-71.7-30.3-11.4-3.5-24.9-12-36-17 38-53.8 91.5-95.8 150.7-124.3 6-2.9 26.1-12.9 31.1-13.9 2.3-.5 8.4-.7 10 1zM903 883c-3-3.1-33.5 26.8-36.5 30-13.3 14.4-28.2 33.9-38.3 50.7-3.4 5.7-16.1 28.5-16.1 33.7 0 10.3 5.1 20.8 11.4 28.6 1.7-4 1.6-10.7 7.8-8.8 3.1 1 2.8 5.6 9.8 3.4 6.2-2 4.7-9.2 8.4-12.6 1.5-1.4 4.6-3.1 6-1 4.9 7.2.9 21.6-3.5 28.5l-7 8.5c7.6 3.6 10.9-7.8 13-13.4 6.7-17.8 10-36.6 15.2-54.8 9.1-31.2 18.5-62.3 29.7-92.8Z" class="outline" data-original-prefix="shading" opacity=".2"/></g><g class="trait-group" data-category="eyes"><path id="outline-shading-eyes3" fill="#000" d="M1073 1145c-.5-1.9.7-2.8 1.4-4.1 3-6.1 7.9-14.7 11.5-20.5 8.7-14.2 32.7-26 47.5-34.5 16.2-9.2 32.8-18 49.7-25.8-12.7-44.8-22.6-90.3-36.7-134.8-5.8-18.1-10.8-36.7-21.1-53-1.8-8.2 4.2-9.5 11.1-8 5.4 1.1 26.7 11.8 33.1 14.9 58.3 28.6 111 70.2 148.6 123.4l-35.9 17c-26 4.8-51 18.1-73.7 31.3-47.4 27.7-89.6 57.4-131.8 92.2-1.1.9-1.6 2.4-3.5 2h-.2Zm152-119c1.9-5 5.9-8.7 7.8-13.7 1.3-3.5 3.2-12.3 3.1-15.8s-9.4-21-11.7-25.1c-11.2-20.2-28.9-43.6-44.7-60.3-3.1-3.2-31.6-30.8-34.5-28 10.5 29.6 19.9 59.6 28.7 89.8 5.9 20.3 9.6 41.8 17.5 61.5 1.8 4.5 5.1 13.9 11.2 9.8 2.6-1.7-1.1-2.3-1.9-3-6.1-6.1-11.3-17.8-10.6-26.5 0-1.7 2.2-8 3.7-8.4 7.5-2.3 6.2 16.9 17.8 15 3.2-.5 4.2-5.6 8.9-3.9 2.6.9 2.3 7.6 4.6 8.9v-.3Z" class="outline" data-original-prefix="shading" opacity=".2"/></g><g class="trait-group" data-category="eyes"><path id="outline-shading-eyes2" fill="#000" d="M893 985c4.5-1.1 2.6 3.5 6.2 5.3 7.3 3.5 11.1-5.2 8.8-11.2 6.8-1.6 9.4 7.7 8.7 13.2-1.2 9.4-11.3 20.6-21.1 14.6-8.6-5.3-2.9-14.2-2.6-21.9" class="outline" data-original-prefix="shading" opacity=".2"/></g><g class="trait-group" data-category="eyes"><path id="outline-shading-eyes1" fill="#000" d="M1139 979c-1.2 6.1 2.5 14.8 9.8 11.3 3.7-1.7 1.7-6.3 6.2-5.3 0 7.1 5.3 14.5-1 20.5-10.8 10.2-25.6-6.8-22.8-18.8.5-2.3 5-10.4 7.8-7.7" class="outline" data-original-prefix="shading" opacity=".2"/></g><g class="trait-group" data-category="eyes"><path id="outline-eyes9" fill="#000" d="M826.7 1113.2c23.5-3.8 32.1 31.9 13.2 42.2-16.7 9-31.2-8.2-28.7-24.7 1.1-7.2 8-16.3 15.5-17.5m1 8c-15.5 3.5-4.8 35.6 10.2 24.2 10.1-7.6 4.2-27.5-10.2-24.2" class="outline" data-original-prefix="outline"/></g><g class="trait-group" data-category="eyes"><path id="outline-eyes8" fill="#000" d="M1216.7 1113.2c27.5-4.4 29.8 43.9 2.7 44.8-23.8.8-27.1-40.9-2.7-44.8m-1 8c-14.9 3.4-8.4 33.6 7.2 25.2 11.5-6.2 8.7-28.9-7.2-25.2" class="outline" data-original-prefix="outline"/></g><g class="trait-group" data-category="eyes"><path id="outline-eyes7" fill="#000" d="M913.7 1000.7c-14.5 14.5-30.6-9.6-16.7-24.2 15-15.8 31.6 9.3 16.7 24.2m-10-21.5c-6.8 2-8.2 19.7 2.3 16.4 12-3.8 7-19.1-2.3-16.4" class="outline" data-original-prefix="outline"/></g><g class="trait-group" data-category="eyes"><path id="outline-eyes6" fill="#000" d="M1136.3 1000.7c-14.9-14.9 1.8-40 16.7-24.2 13.9 14.6-2.2 38.7-16.7 24.2m6.4-21.5c-8.4 1.8-7.5 12.9.6 16 12.4 4.8 10.1-18.3-.6-16" class="outline" data-original-prefix="outline"/></g><g class="trait-group" data-category="eyes"><path id="outline-eyes5" fill="#000" d="M766.8 1074.2c16.4-1.3 24.4 20.5 16 33.1-5.7 8.6-16.8 12.1-25.8 6.1-14.9-10-7.9-37.8 9.7-39.2Zm-1.1 9c-10.8 2.4-13.8 24.9-.2 24.9s17.4-28.8.2-24.9" class="outline" data-original-prefix="outline"/></g><g class="trait-group" data-category="eyes"><path id="outline-eyes4" fill="#000" d="M843.7 996.2c12.7-2.7 21.8 5.3 18.2 18.2-2.2 7.8-9.2 17.9-17.7 19.3-30.4 5.2-17.2-34.1-.5-37.5m-6.5 29.6c8.7 8.7 26.8-23.7 8.5-19.5-6.6 1.5-13.7 14.3-8.5 19.5" class="outline" data-original-prefix="outline"/></g><g class="trait-group" data-category="eyes"><path id="outline-eyes3" fill="#000" d="M1280.8 1074.2c24.7-2 29.2 45.9-1.2 41.7-21.3-2.9-20.8-39.9 1.2-41.7m-2.1 9c-10.3 2.3-6.2 24 4.8 24.8 16.4 1.2 11.3-28.5-4.8-24.8" class="outline" data-original-prefix="outline"/></g><g class="trait-group" data-category="eyes"><path id="outline-eyes2" fill="#000" d="M1196.7 996.2c10.9-2.2 19.5 4 24.1 13.4 6.5 13.2 3.8 26.2-13.3 24.3s-29.1-34-10.8-37.8Zm13 13.1c-2.6-2.6-9.2-5.1-12.2-2.4-4.4 4 4.4 19.2 10.1 20 10.2 1.4 7.1-12.7 2.1-17.7Z" class="outline" data-original-prefix="outline"/></g><g class="trait-group" data-category="eyes"><path id="outline-eyes1" fill="#000" d="M1050 1249c2.6 4.5-1.9 8.8-6 10-4-7.5-11.8-10.4-16.2-18.3-.6-1-1-3-1.3-3.3-3.8-3.4-7 6.3-9.5 9.1-3.8 4.4-11.3 6.9-12 12.5-1.3 1.2-6-4.9-7.5-6-2.7 3.9-6.1 7.2-9.5 10.5-6.8 6.5-21 20-28.5 24.5-5.8 3.4-8.8-.7-10.5.4-7.9 11.8-13.4 26.3-21.2 37.9-7.2 10.7-13.3 12.1-25.6 14.4-17 3.2-35.3 5.9-52.5 7.1-53.3-19.8-107.9-36.4-160.2-58.8L676 1163c-9 .6-17.9 2.7-26.9 1.9-1.2-4.2-1.9-10-3.7-13.8-3.3-6.9-12.4-16.4-15.5-23.5-2.9-6.7 2.2-15.8 4.9-22.2 18.3-44.5 48.3-82.8 74.2-122.9 3.8-3.9 10.9 3 14.7 3.4 3 .3 14.9-16.6 17.8-19.8 42.5-47.7 118-103.6 180.3-119.7 64.5-16.6 148.2-16.5 212.2 2.2 61.9 18.1 131.8 69.5 174.5 117.5 2.9 3.3 14.8 20.1 17.8 19.8 3.8-.3 10.9-7.3 14.7-3.4 24.3 37.3 51.1 72.5 69.8 113.2 3.3 7.1 12 24.3 9.6 31.3-2.2 6.5-13.1 18-16.2 24.8-1.6 3.6-2.2 9.2-3.4 13.1-9 .8-17.9-1.3-26.9-1.9l-13.5 126c-32.4 14.9-66.4 25.2-100 37-14.8 5.2-52.9 22.5-66 22.1-12.2-.4-33.9-5-46.7-7.3-12.3-2.3-18.4-3.7-25.6-14.4-7.9-11.7-14.3-26.8-21.2-39.3-2.9.2-5.3 2.9-8.3 2.7-7.2-.4-30.1-28.2-37.7-33.2-2.3-2.2-1.8-4.7-2-7.5-1.8-27.4-9.2-56.6-10.1-82.5-.2-5.3.4-9.8 5.1-12.9l43.8-27.2c5.4-1.5 1.3 7.3-.5 9.5-4.8 5.9-18.5 13.9-24.9 20.1-3.3 3.2-7.4 6.3-7.4 11.4 0 17.7 6.4 44.3 11.4 61.6 1.3 4.5 4.2 15.2 6.2 18.7.6 1 17.3 14.3 18.3 14.8 3.6 1.5 8.8-1.2 12.3-2.6 11-4.5 23.8-11.9 34.3-17.7 33.2-18.3 65-39.3 97.1-59.4 2.4-2.9 4.8-25.9 5.3-31.2 1.2-12.3 3.9-39.7.5-50.5-.4-1.3-5.1-11.5-5.7-11.8-1.2-.8-7.1-.2-8.9.3l-138.2 76.8c-6.2 2.3-12.4-.7-18.7-.2-.7-2.3.6-1.7 1.3-2.3 6.7-5.9 13.4-8.7 20.6-13.3 40-25.6 80.2-50.7 122.4-72.6 1.1-.4 2.3-1.9 1.7-2.8-.9-1.2-24-8.8-28.3-11.2s-6.4-5.1-8.6-9.4c-15.9-49.2-29.1-101.8-48.4-149.6-5.2-12.8-13.3-24.7-18.3-37.7-2.4-2.7-29.7-7.1-35.1-7.9-40.1-6-72.6-6-112.7 0-5.7.8-32.3 5-35.1 7.9-1.5 1.6-7.3 15-8.7 18.3-23.2 53.2-37.7 113.9-56 169.1-2.1 4.4-4.3 7-8.5 9.4s-27.4 10-28.3 11.2c-.7.9.6 2.5 1.7 2.8 42.2 21.9 82.5 47 122.4 72.6 7.2 4.7 14 7.4 20.6 13.3.7.6 1.9 0 1.3 2.3-6.7-.2-12 2.2-18.7.2-7.1-2.1-25.5-14.9-33.6-19.4-35.1-19.2-70.3-38.2-105.4-57.6-1.5-.3-7.2-.7-8.1 0-.5.3-5 9.9-5.4 11.1-4.2 12.6.3 61.5 3.5 75.9.5 2.2.8 4.6 2 6.5 32.1 20.1 63.8 41.1 97 59.4 7.5 4.2 36.8 20.6 43.3 20.8 2.7 0 20.9-13.2 21.7-15.2 1.2-2.9.2-6.1.9-9 3.5-14.9 8.3-29.3 11.3-44.7 1.3-6.9 1.4-15.1 2.7-21.3 1-4.6 4.9-5 .8-11.2-6.1-9.2-23.8-17.4-30.4-25.6-1.8-2.2-2.7-5.8-3.6-8.4h3l46.4 28.6c3 2.7 2.8 7.6 2.6 11.4-1.3 22.4-8.5 46.6-10 69-.3 4.5.2 9 0 13.5 1.4 0 1.9.3 3-.7 1.6-1.4 7.4-9.8 8.8-12 5.4-8.9 9.9-20.9 8.7-31.3 6 2.6 8.5 1.9 14.5 0-5 8.6 10.7 40.9 18 43zM916 872c-18.5 4.6-36.9 12.8-53.7 21.8-38.1 20.4-74.6 48.3-102.8 81.2-5.5 6.4-10.8 14-13.5 22 19.9 9.6 39.8 19.5 58.9 30.6l10.1 7.4c-33.3-6.7-65.4-18.5-97.7-28.8-2-.3-4.2-.9-5.8.8-12.8 25.4-27.2 50-39.3 75.7-4 8.4-14 27.4-15.7 35.4-1.5 7 5.3 14.7 5.5 22 17.5-5.6 37.5-15 56.2-10.7 8.9 2.1 17.1 7.9 25.5 11.5l49.3 29.2c-3.1-30.5-4-61.7-2.1-92.3-.3-1-13.6-8-15.9-9.2-12-6.4-49.8-21.7-56.9-29.1-5.5-5.7-6.8-17.4-3.6-24.4 2-4.4 3.5.5 5.2 2 3.5 2.9 8.5 5.9 12.5 8.2 26.4 15.2 55.8 27.5 82.4 42.7 11-.9 38-9.2 42.8-19.8 17.1-59.4 31.4-120.2 58.5-176v-.2Zm388 125c-2.6-8-8-15.6-13.5-22-22.6-26.2-50.8-48.8-80.2-66.8-24.3-14.9-50.7-29.1-78.3-36.2 1.9 3.4 3.1 9.3 5.1 12.4 7.7 12 11.8 20.1 16.9 34.1 15.5 42.2 25.6 86.5 38.5 129.5 4.7 10.6 31.8 18.9 42.8 19.8 26.6-15.1 56-27.5 82.4-42.7 4-2.3 9.1-5.2 12.6-8.2 1.8-1.5 3.2-6.4 5.2-2 3.2 7 1.9 18.7-3.6 24.4-7.1 7.3-44.9 22.7-56.9 29.1-2.3 1.2-15.6 8.2-15.9 9.2 1.9 30.7 1 61.8-2.1 92.3l51.3-30.2c7.7-3.4 15.2-8.6 23.5-10.5 18.7-4.3 38.7 5.2 56.2 10.7.3-7.3 7-15 5.5-22-1.7-7.9-11.7-26.9-15.7-35.4-12.3-25.9-26.6-50.8-39.8-76.2l-5.3-.3c-32.3 10.2-64.4 22.1-97.7 28.8l10.1-7.4c19.1-11.1 39.1-20.8 58.9-30.6zm-504 307-45.7-24.8-42.8-27.2c-5.3-24.3-11.5-50.7-13.5-75.5-.3-4.2.8-11.5-.2-14.8-.9-3-7.2.4-9.8-.7 0 2.2 1 4.2 1 6.4 1.2 35.4 3.5 74.2 10 109 .8 4 6.8 7.9 10.3 9.7 19.6 10.1 45 15.8 65.5 24.6 8.4-.8 16.6-5.6 25.2-6.8Zm562-143c-2.7 1.1-8.9-2.4-9.8.7-1 3.3.2 10.7-.2 14.8-2 24.8-8.2 51.2-13.5 75.5l-42.8 27.2-45.7 24.8c8.7 1.2 16.8 6 25.2 6.8 20.5-8.8 45.8-14.6 65.4-24.6 3.5-1.8 9.5-5.7 10.3-9.7 6.5-34.8 8.8-73.6 10-109 0-2.2 1-4.2 1-6.4Zm-534 61c-7.5 33.3 25 64.9 57.3 45.8 3.4-2 13.9-10.2 9.1-13.7l-66.3-32.1Zm394 0-66.3 32.1c-4.8 3.5 5.7 11.7 9.1 13.7 32.3 19.1 64.7-12.5 57.3-45.8Zm-224.5 29v1c.7-.3.7-.7 0-1M796 1317c.2 1.6 1.5 1.5 2.6 1.9 17.5 6.9 36.7 9.8 54.2 16.8 13.6-3.1 29.6-4.9 42.5-10 10.8-4.3 18.9-17.1 25.5-26.5 1.5-2.1 11.2-15.1 10.2-16.3-18.1 12.5-38.1 24.4-58.3 33.2-6.4 2.8-17.1 8-24 6.6-7.6-1.8-24.6-11.4-31.3-11.7-5.5-.2-15 6.6-21.4 6m458 0c-6.4.7-15.9-6.2-21.4-6-6.7.3-23.7 9.9-31.3 11.7-6.8 1.4-17.5-3.8-24-6.6-20.2-8.8-40.2-20.7-58.3-33.2-1 1.2 8.7 14.2 10.2 16.3 6.7 9.4 14.7 22.2 25.5 26.5 12.9 5.1 29 6.9 42.5 10 17.5-7.1 36.7-10 54.2-16.8 1-.4 2.4-.4 2.6-1.9" class="outline" data-original-prefix="outline"/></g>
<g class="trait-group" data-category="right ear"><path id="fill-ear-rt1" fill="#fff" d="M1309.7 967.7c-21.5 15-73.7 1.5-73.8-28.2 0-17.4 19.3-64.4 26.3-82.8 15.6-40.9 37.9-99.1 62.5-134.5 12.2-17.5 47.1-40.3 66.9-49.1 25.2-11.2 58.3-12.1 85.4-10.1 0-1.7 0-3.4.4-5 29.2-103.4 66.2-199.3 108.1-297.9 10.4-24.5 17.8-43.7 36.4-63.6 26.6-28.2 58.4-54.6 87-81 5.1-4.7 9.5-10.2 15-14.5.4 36.3-3.9 72.5-9.2 108.3-21.8 147.8-72 298.3-146.9 427.1-112.2 41.1-191.9 136.1-258.2 231.3Z" class="fill" data-original-prefix="fill"/></g><g class="trait-group" data-category="right ear"><path id="fill-ear-rt2" fill="#fff" d="M1288 747c-16.2 44.6-44.8 91.8-64.2 136.3-5.3 12.3-10.4 24.7-14.6 37.4-.2 2.1 4.6 10 6 12.5 5.6 9.8 12.7 20.5 19.8 29.2-8.1-3.9-16.8-7.8-24.3-12.7-3.9-2.5-12.8-9.1-15.7-12.3-4.7-5.3-17.9-31.7-21.5-39.5-1.1-2.4-2.8-5.2-3.3-7.8-.9-5.4 6.1-15.3 8.6-20.9 14.3-31.3 25.7-60.8 38.7-92.3 5.4-13.2 13.6-26 18.2-39.8 13.7-40.3 17-104.6 9.9-146.5-.9-5.6-4.2-13.5-4.3-18.5-.3-13.9 31.4-60.6 40.8-73.7 29.1-40.7 69.4-86.1 106.8-119.2 1.9-1.7 8.4-7.6 10.3-7.4q37.2 20.1 72 44.1c15.8 10.9 34.5 23.7 49.2 35.8 2.7 2.2 8.4 5.7 7.1 9-13 32.3-26.4 64.4-39.4 96.7-7.8 19.4-14.3 40.2-22.8 59.2-2.4 5.4-7.8 17.6-11.5 21.5-11 11.9-42.4 5.7-57.5 7.5-7 .8-39.4 25.6-47.8 31.2-9.3 6.3-20.9 11.6-29.2 18.8-11.1 9.6-18.8 27.5-25.3 40.7-1.2 2.5-2.7 8-4.1 9.7-.9 1.2-1.8.4-2.1.6 2.9-8 9.1-24-3.2-27.3-24.9-6.6-31.1 31.7-10.3 32.4 5.1.2 9.3-2.7 13.5-5Zm108.8-362.8c-16.1 1.3-18.6 20.6-6.3 29.8 13.7 10.2 34.5 3.9 28.7-15.7-2.3-8-14.4-14.7-22.4-14.1m-166.5 417.1c-.6.5-5.3 6-5.8 6.7-8.6 13.3 1.2 29.8 17.4 23.4 5.4-2.1 8.7-8.2 10.5-13.5 5.3-15.4-9.2-27.6-22.1-16.6m-32.6 72.9c-19.7 4.1-21.7 39.6 2.6 34.5 17.2-3.6 22.9-39.9-2.6-34.5" class="fill" data-original-prefix="fill"/></g><g class="trait-group" data-category="right ear"><path id="fill-ear-rt3" fill="#fff" d="M1721 186c-31.9 28.2-64.8 55.6-96 84.5-20.5 18.9-33 29.2-44.4 55.5-16.7 38.2-28.6 79.6-45.5 118-1.5.4-1.7-.4-2.5-1-5.7-3.9-11.9-10-17.6-14.4-32.2-24.7-65.5-48.1-99.8-69.7l.8-3.5c16.1-12.9 31.8-26.3 48.2-38.8 39-29.7 81.9-61 126.2-81.8 42-19.7 86.2-35.6 130.7-48.8Zm-200.2 209.2c-4.4.3-8.9 3.1-11 7.1-8.3 15.9 17.4 32.4 26.2 21.2 9.4-11.9-.4-29.5-15.2-28.3" class="fill" data-original-prefix="fill"/></g><g class="trait-group" data-category="right ear"><path id="fill-ear-rt-rivet5" fill="#fff" d="M1205.8 881.2c.3.4 1.9 6.6 1.9 7.4.3 11.2-17.1 14.3-14.6-1.1.8-5.2 9.9-9.8 12.7-6.3" class="fill" data-original-prefix="fill"/></g><g class="trait-group" data-category="right ear"><path id="fill-ear-rt-rivet4" fill="#fff" d="M1235.7 805.2c13.9-2.8 12.2 15.8 1.7 16.8s-11.4-14.8-1.7-16.8" class="fill" data-original-prefix="fill"/></g><g class="trait-group" data-category="right ear"><path id="fill-ear-rt-rivet3" fill="#fff" d="M1271.3 740.7c-6.9-5.6 4.4-18.6 11.3-13.8 7.7 5.4-4 19.7-11.3 13.8" class="fill" data-original-prefix="fill"/></g><g class="trait-group" data-category="right ear"><path id="fill-ear-rt-rivet2" fill="#fff" d="M1398.7 396.2c10.5-3.1 16.5 14.9 2 11.6-6.3-1.5-8-9.8-2-11.6" class="fill" data-original-prefix="fill"/></g><g class="trait-group" data-category="right ear"><path id="fill-ear-rt-rivet1" fill="#fff" d="M1529.7 415.7c-3.4 3.6-10.4 2.4-10.8-3.2-.8-12.8 17.9-4.2 10.8 3.2" class="fill" data-original-prefix="fill"/></g><g class="trait-group" data-category="right ear"><path id="outline-shading-ear-rt" fill="#000" d="M1723.2 198.8c1.1.7 3.4 0 3.8.2 1 .9.2 23.2 0 26.5-3 78.4-22 167.1-43.5 242.5-27 94.6-62.5 187.2-112.8 271.8-109 38.4-182.4 127.3-248.3 217.2-6.9 9.3-10.1 16.1-22.2 18.8-16.7 3.7-51.9-3.1-68.2-9.2-8.7-3.3-32.8-19-39.1-26-4.2-4.7-24-40.7-25.5-46.5-.8-3.1-.6-6.3-.4-9.5 9.9-22.1 21.6-43.6 31.1-65.9 6.5-15.3 11.1-31.6 17.3-46.7 4.8-11.7 11.9-22.6 16.2-34.8 14.8-41.1 17.6-100.5 11.1-143.6-1.5-9.8-5.1-16.5-3.9-27.1.9-7.5 7.1-14.2 9-21.5l15 73c62-48.6 120.2-102.4 181.5-152 15.7-12.7 31.6-26.8 49.5-36l-1.5-3c-21.9-15.4-42.7-32.5-65.8-46.2-2.5-1.5-31.8-16.3-30.7-17.8 5.9-1.9 11.6-5.4 16.5-9 3.4-2.5 4.6-7.1 9.8-5.8 3.4.9 18.9 12.1 23.1 15 23.8 16.3 47.4 33.3 70.8 50.3 11.8.5 13.6-2.1 13.4-13.5 12.9-26.7 23-54.7 35.3-81.6 2.3-4.9 5.3-13.5 8.6-17.4 5.9-6.9 18.3-17 25.5-23.5 21.2-19 65.9-59.4 89.8-71.2 4-2 26.6-10.7 30-11.1 3.9-.4 3.4 3 4.5 3.6ZM1703 288c-.6-.8-7.1 4.7-8 5.5-23.5 20-52.6 47-73 70-15.3 17.2-21 36-28 57.5l101.1-74.4c3.3-19.4 6.6-39 7.9-58.5Zm-16 102c-.7-.8-10 6.2-11.3 7.2-33.3 23.5-66 47.9-98.2 72.8-6.6 18.3-12.6 37-16.4 56.1l113.7-77.3 12.3-58.7Zm-207.3 146.7c6.9-24.1 15-48 19.8-72.7l-233.4 175.2c2.2 17.2 3.6 34.5 1.9 51.8zM1634 535c-.7-.8-6.4 4.2-7.5 5-29.9 23.4-62.7 50.7-90.1 76.9-8.9 8.5-20.1 19.2-26 30-3.6 6.6-7.4 20-11.9 25.1-6.7 7.4-25.1 18.6-34 26-19.2 15.8-31.9 28.3-46.3 48.7-16 22.5-29.9 46.6-42.2 71.3l64.3-38.2 115.7-66.3c27.3-58.9 55.3-117.6 78-178.5m-357.3 190.2c-8.5 1.8-10.6 17-2.2 16.8 3.8 0 1.1-3.9 1.8-5 1-1.5 8.5-2.7 8.6-6.4 0-4-4.6-6.1-8.2-5.4m-12.8 16.9c-1.9-1.6-7.4 3-8.8 4.6l-18.8 51.1c-5.9 3.1-15 19.2-5.3 21.9 5.5 1.5 7.5-5.5 10.7-6.4 2.1-.6 4.5.2 6.6-.4 1.6-.5 2.3-2.8 4.2-2.8 3.3 0 6.4 8.5 8.5 7 5.3-16.9 14.6-32.2 20-49-15.5 3.6-14.1-23.4-17.1-26M1224 833c-1.7-1.8-1.7.7-2.1 1.4-3.7 7.3-13.8 39.5-18.6 42.4-3.4 2-12 2.6-11.3 9.7s10.4 3.4 13.5 3.6c2 .1 3.5 2 6 2 1.3 0 4.1-1.4 4.5-1.1 3.2 2.5 3.5 31.1 15.2 9.7l18.8-55.2c-2.7-.5-4.3 1.4-7.5 1.6-6.4.3-11.7-2.7-15.5-7.6-1.7-2.2-2.8-6.2-3-6.5" class="outline" data-original-prefix="shading" opacity=".2"/></g><g class="trait-group" data-category="right ear"><path id="outline-shading-ear-rt2" fill="#000" d="M1384 405c2.6-.1 3.5 2.8 5.9 3.5 6.6 2.1 5.5-1.4 7.8-2.5 1.8-.9 7.7-3 9.9-3.8 1.5-.5 3.9.2 5.3-.7 2-1.3.8-9.2 6-4.1 10.2 10-1 33.1-14.4 32.5-10.8-.5-23.4-13.6-20.6-24.9Z" class="outline" data-original-prefix="shading" opacity=".2"/></g><g class="trait-group" data-category="right ear"><path id="outline-ear-rt" fill="#000" d="M1734.9 163.1c.9 5.1 2.3 10.3 3 15.5 6 47.5-.5 106.2-7 153.7-17.7 128.1-67.1 281.2-131.7 393.3-2.7 4.6-14.6 24-17.8 26.2-3 2.1-16.3 5.5-21.3 7.7-29.5 12.8-63.7 37.8-88.5 58.5-54.2 45.1-104.1 102.3-138.2 163.9-13 3.4-25.7 8.6-38.7 11.1-16.8-6.7-37.5-5.5-54.2-10.9-6.7-2.2-43.9-21.9-49.8-26.2-16.8-12.5-29.2-53.7-41.2-71.8-1.4-4.6.6-29.6 1.6-35.5 1.6-9.2 25.9-43.5 32.1-54.9 31-57 45.2-134.6 38.8-199.2-.6-6.2-6.4-29.9-5.8-32.8 1-5 11.8-23.5 15-29 22.3-39 50.6-76.1 80.3-109.7 100.4-113.9 223.3-215 374.1-251.9 6.5-1.6 46.4-10.5 49.3-8M1721 186c-44.5 13.2-88.6 29.1-130.7 48.8-44.4 20.8-87.2 52.1-126.2 81.8-16.4 12.5-32.1 25.9-48.2 38.8l-.8 3.5c34.3 21.6 67.6 45 99.8 69.7 5.7 4.4 11.9 10.5 17.6 14.4.8.6.9 1.4 2.5 1 16.9-38.3 28.9-79.7 45.5-118 11.5-26.4 24-36.6 44.4-55.5 31.3-28.9 64.1-56.3 96-84.5Zm-411.3 781.7c66.3-95.2 146-190.2 258.2-231.3 74.9-128.8 125.1-279.4 146.9-427.1 5.3-35.8 9.6-72.1 9.2-108.3-5.5 4.3-9.9 9.8-15 14.5-28.6 26.4-60.4 52.7-87 81-18.7 19.8-26 39.1-36.4 63.6-41.9 98.6-78.9 194.5-108.1 297.9-.5 1.7-.5 3.3-.4 5-27.1-2-60.2-1.1-85.4 10.1-19.7 8.8-54.7 31.7-66.9 49.1-24.6 35.4-46.9 93.6-62.5 134.5-7 18.3-26.4 65.3-26.3 82.8.1 29.7 52.3 43.2 73.8 28.2ZM1288 747c-4.2 2.4-8.4 5.2-13.5 5-20.8-.7-14.6-39 10.3-32.4 12.3 3.3 6.1 19.3 3.2 27.3.3-.2 1.2.5 2.1-.6 1.4-1.8 2.8-7.3 4.1-9.7 6.5-13.2 14.2-31.1 25.3-40.7 8.3-7.2 20-12.5 29.2-18.8 8.4-5.7 40.7-30.4 47.8-31.2 15.1-1.8 46.5 4.4 57.5-7.5 3.6-3.9 9.1-16.2 11.5-21.5 8.5-19 15-39.8 22.8-59.2 13-32.3 26.4-64.4 39.4-96.7 1.2-3.3-4.5-6.8-7.1-9-14.7-12.2-33.3-25-49.2-35.8q-34.8-24-72-44.1c-1.9-.3-8.3 5.6-10.3 7.4-37.4 33.1-77.7 78.5-106.8 119.2-9.4 13.1-41.1 59.8-40.8 73.7 0 4.9 3.4 12.8 4.3 18.5 7 41.8 3.8 106.1-9.9 146.5-4.7 13.8-12.8 26.5-18.2 39.8-13 31.6-24.4 61-38.7 92.3-2.5 5.6-9.5 15.5-8.6 20.9.4 2.5 2.2 5.4 3.3 7.8 3.6 7.8 16.8 34.2 21.5 39.5 2.9 3.2 11.8 9.8 15.7 12.3 7.5 4.9 16.2 8.8 24.3 12.7-7.1-8.7-14.2-19.4-19.8-29.2-1.5-2.6-6.2-10.4-6-12.5 4.2-12.7 9.3-25.2 14.6-37.4 19.4-44.6 48-91.7 64.2-136.3Zm-16.7-6.3c7.3 5.9 18.9-8.3 11.3-13.8-6.9-4.9-18.2 8.2-11.3 13.8" class="outline" data-original-prefix="outline"/></g><g class="trait-group" data-category="right ear"><path id="outline-ear-rt4" fill="#000" d="M1197.7 874.2c25.5-5.3 19.7 30.9 2.6 34.5-24.2 5.1-22.3-30.4-2.6-34.5m8.1 7c-2.8-3.5-11.9 1.1-12.7 6.3-2.4 15.4 14.9 12.3 14.6 1.1 0-.9-1.6-7-1.9-7.4" class="outline" data-original-prefix="outline"/></g><g class="trait-group" data-category="right ear"><path id="outline-ear-rt3" fill="#000" d="M1230.3 801.3c12.9-11 27.5 1.3 22.1 16.6-1.8 5.3-5.1 11.4-10.5 13.5-16.3 6.3-26.1-10.2-17.4-23.4.5-.7 5.2-6.2 5.8-6.7m5.4 3.9c-9.7 2-8.4 17.8 1.7 16.8s12.2-19.6-1.7-16.8" class="outline" data-original-prefix="outline"/></g><g class="trait-group" data-category="right ear"><path id="outline-ear-rt2" fill="#000" d="M1396.8 384.2c8-.6 20.1 6.1 22.4 14.1 5.8 19.6-15 25.9-28.7 15.7-12.3-9.2-9.8-28.5 6.3-29.8m1.9 12c-6 1.8-4.3 10.1 2 11.6 14.5 3.3 8.5-14.7-2-11.6" class="outline" data-original-prefix="outline"/></g><g class="trait-group" data-category="right ear"><path id="outline-ear-rt1" fill="#000" d="M1520.8 395.2c14.8-1.1 24.7 16.4 15.2 28.3-8.9 11.2-34.5-5.3-26.2-21.2 2.1-4 6.6-6.8 11-7.1m8.9 20.5c7.1-7.5-11.7-16-10.8-3.2.4 5.6 7.4 6.8 10.8 3.2" class="outline" data-original-prefix="outline"/></g>
<g class="trait-group" data-category="left ear"><path id="fill-ear-lft" fill="#fff" d="m286.8 111.2 30.8 44.7c91.6 62.6 192.9 110.5 287.1 168.9 36.5 22.6 69.5 60.6 103.8 87.2l81.6 106.4c7.4 63.7 12.1 127.8 18.4 191.6 22.2 52.3 49.9 102.3 72.6 154.5-2.6 11.7-1.7 25.5-4.1 36.9-.5 2.5-18.5 28.2-21.3 31.2-7.4 7.9-34.6 27.7-44.3 33.2-6.2 3.5-20.8 7.2-25 10.5-1 .7-2 3.8-3.3 5.2-4.8 5.2-17.7 6.9-24.5 9.5-26.5-4.8-55.6-5.8-81.7-11.3-8.7-1.8-26.7-11-33.3-10.8s-29.2 17.7-32.8 16.9c-2-.4-9.6-10.2-9.7-12.3-.5-9.1 6.7-23.6 7-33.2 0-1.5.3-2.8-.9-3.9L526.6 894c-.4-4.1-2-13 1.6-15.5l44-11c-13.1-9-30.1-13.4-43.3-21.7-7.4-4.7-24.1-17.9-29.5-24.5-2.1-2.5-10.7-19.2-10.2-21.7.2-1 16.2-11.1 17.8-11.5 10.3-2.1 29.3-.4 40.8-1.2 1.5-.1 2.9.8 2.5-1.5-30.5-23.6-59.2-49.4-88-75-23.8-43.2-46-87.2-69.5-130.5l-45.3-164.7-3.7-4.3-59.3-44.6c1.1-2.2 4.2-14.3 5.1-15.2 1.4-1.4 18.7-4.1 22.4-5.1.7-.2 3.3.4 2.4-1.6-.7-1.3-24.1-15.1-25.6-15.2l-51.4 8.7 2.5-24c9.2-6.5 18.2-20.8 28.7-24.3 4.1-1.4 27.9-5.3 28.8-7.2-10.6-4.4-23.8-16.5-34-20-4.7-1.6-34.7-3.3-35-5.1.2-5.7-.8-11.7 2-16.9l52-24.6c-7.8-23.2-19.6-45.2-27.9-68.3l12.1-36.5h20.7c0 .1 0 0 0 0Z" class="fill" data-original-prefix="fill"/></g><g class="trait-group" data-category="left ear"><path id="outline-shading-ear-lft" fill="#000" d="M349 234.5c0-.2-2.4-3.8.5-2.5 3.1 1.4 10.8 9.4 14.8 12.2 18.8 13.2 39.8 21 61.7 27.3 12.3 22.7 26.3 44.5 42 65-6.6 1.3-14.8 3.4-21.5 3.5-10.2.3-20.7-3.7-30.5-.5 3.5 4.6 7.5 10.5 11.5 14.5 10.9 10.9 36.9 14 51.5 19.5 5.8 2.1 12.1 19.2 16.8 24.2L519 431c-5.7-2.4-11.8-4.4-17.4-7.1-20.1-9.9-19.8-14.9-45.1-14.9-3 0-11 0-13.5.4-8.1 1.4-18.9 10.1-25 15.6 9.9 0 19.6-1.6 29.5-1 7.2.5 28.1 3.5 33 8 5.5 5 20.3 21.9 23.8 28.2 6.3 11.1 9.6 26.2 16.6 37.4-4.3.8-8.8.6-13 2-1 .4-2.7.3-2 2 .6 1.5 6.8 6.5 8.5 8.5 4.2 4.8 7.8 10.2 12 15 9 10.4 26 25.6 32.5 36.5 5.9 10 7.5 25.8 12.8 36.2 1.5 2.9 9.5 14.9 12.7 11.3l24.2-44.1 46.5-6c2.3-4.3 5.6-4.7 9.2-7.1 1.6-1 1.3-4 4.1-2.8 3.2 1.3 5 20.8 6 25 11 48.3 35 97.9 61.5 139.5 3.3 5.2 9.7 11.8 12.1 16.9 12.2 26.7 12.8 71.1 21 102 2.5 9.5 6.9 9.2-5 15.1-17.7 8.8-34.8 1.9-53-.5l12 15.4 41.9 23.1c-18.9 7.5-38.5 14.2-53 29 10.4-1.5 28.7-9.8 38.7-5.8 3.4 1.4 15.2 11.3 18.7 14.3 5 4.2 9.9 8.8 14.5 13.5-7.7 2.4-15 5.4-22 9.5-.5 2.6.4 1.5 1.4 2.1 26.8 13.6 54.1-.2 79.8-8.4 1-.3 3.2-1.5 3.8-.2-8.6 6.6-17.1 13.9-26.1 19.9-16.3 11-36.3 18.2-55.2 23.8-10.3 3.1-44.2 12.9-52.8 11.3-20.1-3.8-43.1-16-63.6-20.5-8.1-.8-25.8 13.6-34 16.8-1.1.1-18.3-10.9-18.8-11.8-1-1.7-.5-3.3 0-5 2.5-9.3 11.3-22.5 15-32 .5-1.3 2.1-5 1.5-5.9-11.9-4.4-22.8-10.9-34.2-16.3-8-3.8-45.1-18.6-48.2-24.8-1-2 .5-13.9 2.6-15.5l39-12c-23.1-15.5-52.1-22.6-70.5-44.5-4.7-5.5-14.4-18.7-8-25 10-9.7 25-7.3 37.9-9.1 1.2-.2 5.4-.5 4.6-2.4-12.7-14-24.3-29.1-36.5-43.5-32.5-38.5-64.1-77.8-97.4-115.7-21-73.9-38.8-148.9-61.7-222.3-7.5-8.2-57.2-35.8-59.2-42.7-4.1-13.8 17.1-14.6 26.3-17.3 1.5-.4 1.7.6 1.5-2l-27.7-14.8-42 9.5c-8-.7-11.1-7.3-7.3-14.1 2.1-3.7 24.1-30.2 27-32 6.8-4.2 22.8-5.1 31-7.5l-30.4-23.1c-6.4-2.8-25-1.5-28.5-7.5-2.4-4.2-.9-9.1 2.5-12.2 2.4-2.2 16-10.2 19.7-12.3s31.4-14.7 31.8-16.5c.3-1.3-.3-2.9-.9-4.1-6.5-15.1-21.2-31-27.8-46.2-1.9-4.4-1.7-7.6-1.3-12.4.5-5.9 5.7-36.4 8-40 6.1-9.8 17.4-.3 18.8 8.9 2.1 13.9 4.5 39 9.4 51.6 1.8 4.6 16.3 20 20.5 26.4 10 15.4 13 27.8 13.2 46.3-17.4-4.7-35.6-3.1-53 1l22.7 11.8c12.9 7.5 15.8 25.6 23.3 37.7l-22.2 6.7-13.8 6.8h24.5c7.8 0 16.4 4.9 21.5 10.5s28.6 36.4 29.9 42.1c.4 1.9 0 1.2-1.4 1.4-5 .6-10.9-.5-16 0l-20.5 3c3 .8 6 2.3 8.7 3.8 7.5 4.3 45.3 26.8 47.1 32.9 1.1 3.9.3 12.7 1.2 17.3 13.6-10 27.5-20 43-27l-13.7-6.8c-6-3.3-9.8-5.5-13.5-11.5-12.9-20.4-15-46.1-15.8-69.7 3.5-.7 2.9 5.7 4.6 7.1 3 2.3 19.8 4.7 24.3 4.4-7.3-7.3-14.5-14.9-22.5-21.5-7-5.8-20.9-13.1-26.1-18.4-1.9-2-4.5-8.4-5.4-11.1-1-3.3-3-11-3-14 0-5 .2-10.1 0-15ZM438 473c-5.1-3.9-12.9-6.3-19.2-8.3-7.8-2.4-15.8-4.2-23.8-5.7 2.5 11 11.1 19 6.5 31 11-7.7 23.1-14.3 36.5-17m45 123c2.2-2.2-12.4-40.4-14.8-45.7-5.8-12.6-9.4-15.7-21.2-22.8-15.3-9.1-31.5-12.6-48.9-15.6-1.4 1.7 7.5 27.4 9 31.5 8.6 24.6 18.2 46.1 31.6 68.4 3.8 6.3 14.5 24.8 18.9 29.1 1.7 1.7 13.8 8.4 16 9 2.1.6 1.6-1.1 1.3-2.3-15.8-29.3-30.1-59.8-39.8-91.7 8.6 7.1 15.7 16 24 23.5 3.6 3.2 16.5 14.9 20 16 1.3.4 2.6.6 4 .5Zm209 220-17.6-31.9c-14.1-19.8-48.2-22-70.8-28.2-24.4-6.6-48.3-15.4-72.1-23.9-1.7 1 .3 2.2 1 3 16.1 19.8 46.8 33.4 66.6 48.4.7.5 2.7.4 1.9 2.1-1.5 3.3-30.9 13.6-35.8 14.2L508 803c-1 .9 7.9 11.4 9 12.5 20.9 21.4 46.4 14.8 69.7 24.3 4.1 1.7 15.8 10.9 19.8 14.2 2.4 2 11.3 8.6 10.5 11.3-1.2 4.1-17.4 3.8-21.2 4.9-3.5.9-19.2 11.3-25.1 13.9-1.3.6-13.6 4.6-12.7 5.8 8.1 2.9 16.4 5.9 25 7.5 9.1 1.8 22.4 3.8 31.2 1.2 3.4-1 9.8-6.2 12.1-5.6.9.2 10.7 9.8 13.4 11.7 4 2.9 12.9 6.5 15.3 8.7.7.6 1.3.8 1 2-.2.7-9.2 7.1-11 9-6.2 6.5-11.6 16.3-11 25.5l7.4-6.1c7.2-1.5 14-4.8 21.6-3.9-1.5-18 2.9-34.8 5-52.5-.4-2.6-13.3-10.6-16.1-14-2.6-3.2-6.3-11.7-8.2-15.8-7.8-17.4-12.8-36.7-14.8-55.7 8.1 5.2 18 16.1 27.7 17.8 10.8 1.9 24.2-3.9 35.3-3.8Z" class="outline" data-original-prefix="shading" opacity=".2"/></g><g class="trait-group" data-category="left ear"><path id="outline-ear-lft1" fill="#000" d="M845 940c15.1-16.4 31.1-43.3 27.9-66.4-.7-5.1-13-37.3-15.7-43.3-5.6-12.2-14.8-25.4-21-38-16.8-33.9-36.5-72.4-40.1-109.9-2.7-27.6-4.4-55.4-7-83-2.3-23.9-2.1-67.3-15.2-86.8-14.8-22.1-37.6-49.2-54.8-70.1-38.5-46.8-78.2-82.7-128.8-116.2-55.4-36.5-116.1-73-175.5-102.6-33.4-16.6-69-28.7-100.2-48.8-14.6-9.4-23.2-20.3-31.6-35.4l-10.8-21.7c-2.1 16.2-6.7 32.5-2.3 48.8 2.8 10.4 10.9 16.5 17.3 24.7 8.5 11 16.4 20.6 20 34.5-12.7-2-27.3-2.9-39.8.7-10.5 3.1-21.4 14.7-29.2 22.3 9.9.9 26.7.7 35.6 5 6.8 3.2 34.8 28.9 37.7 35.3.7 1.6.9 3 .8 4.7-26.6 1.2-52.1 6-66 31 10-1.8 19.3-7.2 29.5-8 9-.7 29.8 2.6 37 8 8.4 6.3 16.2 17.6 24.5 24.5.4 2.3-1 1.4-2.5 1.5-14.8 1.1-32.1 1.4-43.5 12 26.9 4 48.8 23.7 66.8 42.7 4.1 22.5 17.7 47.5 21.8 69.2 2.2 11.6 1.5 24 3.7 36.3 15.5 83.3 58.6 170.3 119.2 229.8 18.5 18.2 42.4 29.7 63.3 44.7 1.7 1.2 10.9 8 11.3 8.7.9 1.7-1.2 1.6-2 1.9-11.4 5.2-45.4 15.2-57 13.1-7.2-1.3-15-6.4-21.9-8.5 3.6 7.9 8.4 20.7 15.7 25.8 5.6 4 18.5 8.7 25.4 11.6 15.3 6.5 33.4 11.3 48 18 1.7.8 8.5 4.7 9 6 .7 1.7-.7 1.4-1.2 1.8-5.4 3.8-19.8 15.4-24.7 17.2-8.2 3-24 4.2-32.5 2.5l-.5 2 40.8 24.7c20.5 4.6 41.4 5.2 62.2 3.3l-.2 3.8c-6.6 5.1-14.2 12.6-19.2 19.3-8.5 11.3-8 27.2-9.6 40.9l6-8.5 3.7-3.3c10.7.3 23.4-4 33.8-3.2 23.7 1.8 50.6 16.9 73.5 21.5 14.2 2.8 27.6-.8 41 4.5-18.5 6.2-37.3 16-57 10.5-18.3-5.1-33.5-13.3-53.5-14.5-33.3-2-35.2 9-58.1 27-5.5 4.3-6 3.8-8-3-3.6-12.3-5.7-53.9-1.3-65.3 1.5-3.8 5.1-6.1 6.8-9.7-10.2-.8-23.4 0-33.2-2.3-14.7-3.5-51-37.1-60-50-1.4-2-9-14.6-7.8-15.7 17.8 1.4 37 2.7 54-3.5-12.7-5.7-25.8-10.4-38-17-4-2.2-16.8-9-18.9-12.2-4.7-7.3-12.1-27-15.1-35.9-3.5-9.9-6.4-20.1-8-30.5 1-1 14.6 8.3 17 9.5 3 1.6 16.4 8.5 18.5 8.5h21c.2 0 1.8-1.7 1.5-2-2.7 0-4.7-1.3-6.9-2.6-43.8-25.2-70.2-46.5-94.6-91.4-24.1-44.4-53.6-102.6-60.4-152.7-4.4-32.9-2.2-58.5-14.4-90.6-14.9-39.4-49.7-70-91.8-76.8 9.5-11.5 23.7-17.3 36.6-23.9 1-.5 1.9.5 1.4-2.1-6.3-1.1-12.4-5.8-18.7-6.8-8.3-1.3-32.3 3.1-41.4 5.1-8.1 1.7-15.9 4.3-23.8 6.7-1.9-2 9.7-20.8 11.6-23.9 4.8-7.9 14.2-23.6 20.9-29.1 8.3-6.8 23.2-10.1 33.5-13-16.6-14.5-32.6-22.6-55.2-18.7-7.4 1.3-14.6 5.5-21.8 5.2-.2-2.7 9.3-14.4 11.6-17.4 5.7-7.3 20.1-26.8 26.4-31.6 6.3-4.9 17.4-9.1 25-11.5-3.1-9.3-13.5-15.9-16.5-25-4.6-13.9-2.7-48.4 1-63 1.7-6.5 22.7-55.9 26-56l10.7 37.2c15.8 44.4 67 65.8 107.1 83.9 19.7 8.9 40.7 16 60 25 11.5 5.3 21.6 12.7 32.6 18.4 31.6 16.4 61.5 31.3 91.9 50.1 29.9 18.4 57.7 35.6 82.1 60.9 52.6 54.4 98.4 114.5 141.4 176.6 2.3 4.6 2.2 21.8 2.6 28.4 3.2 59.8 8.3 159.1 41.6 209.4 4.3 6.5 10.8 12.5 14.6 18.4 6.6 10.1 12.1 30.3 17.6 42.4 9.9 21.9 26.8 42 22.6 67.3-11 12.4-18.7 31.5-29.5 43.5-4.7 5.3-15.4 10.9-22 14-1 .5-3.4 2.5-4 .5Z" class="outline" data-original-prefix="outline"/></g><g class="trait-group" data-category="left ear"><path id="outline-ear-lft2" fill="#000" d="M776 986c-16.3-8.5-36-13.2-54.5-12-5.1.3-10.8 4.9-10.5-2.4.5-12 4.3-24.6 11-34.5-1.3-1-16.5 1.5-19 2.5-3.8 1.5-19 15.5-21 13.5-1-12.9-4.9-32.3 0-44.4 1.6-3.9 11.7-18.1 10.8-21-.4-1.3-17.2-12.2-20.3-16.7-5.3-7.5-11.1-30.1-13.2-39.8-3.3-14.6-5.2-29.3-6.3-44.2l26.7 16.8c12.7 7.8 28.4 6.1 42.7 7.2 3.1-.4-6.2-30-7.2-32.8-11.2-33.2-21.9-41.8-45.8-65.2-9.2-9-5.2-8.3-6.5-19.5-2.2-19.3-5.5-41-13-59-6.8-16.5-13.6-20.2-26-5-24.9 30.4-16.1 76 3 107 0 1.1-2.2.3-3 0-3.9-1.3-10.1-5-14-7-24.2-12.9-48.4-29.9-66.8-50.2-9.8-40.4-16.5-95.3-44.6-127.4-23.7-27.1-55.9-44.6-90.5-54-.4-1.8.6-1.9 1.7-2.8 7.4-6.4 40.9-24.4 50.1-25.9 5.3-.9 9.4 1.3 13.8.8 1-.1 2.2.2 1.5-1.5-.5-1.2-7.4-9.3-8.6-10.4-3.5-2.9-12-5.8-16.6-7.4-21.8-7.8-44.9-10.7-67.8-13.7-.5-.7 5.1-7.6 6-8.5 5.6-5.6 45.7-33.4 51.5-33.6 4-.1 10.7 1.7 15 2.1 1.1 0 4.6.8 4.5-1-16.7-4.9-34.8-11.7-49.7-20.8-9.7-5.9-14.5-18.5-19.2-28.8-6.8-14.9-12.3-30.2-15.1-46.4 13.9 10.8 30.6 29.4 50 23.5-16.8-23.7-40.1-41.9-64.4-57.6-4.8-11.9-9.1-23.9-11.5-36.5-.1-3 1.1-.7 1.8.2 17.3 20.7 26.2 32.2 49.9 47.1 4.5 2.9 10.1 4.3 14.3 7.7 6.7 5.3 15 18.8 21 26 3 3.6 22.1 23.5 21.9 26-.2 2.2-10.2 3.2-12.5 3.5-9.1 1.1-27.1 2.5-35.2-.8-3.7-1.5-6.4-4.8-10.3-5.7 1.5 2.5 3 5 4.6 7.4 3.1 4.5 12.1 17 15.9 20.1 6.2 5.1 26.9 14.9 35.2 18.8 4.6 2.2 12.1 3.7 15.9 6.1s12.1 12.5 15.5 16.5c1.2 1.4 13.9 16.8 13 17.5-17.6-4-37.2-12.3-55.5-10-3.8.5-27.5 13.7-27.5 15.5.9 1.5 2.1 1.2 3.4 1.6 15.7 4.4 33 6.8 48.1 13.9 9.1 4.3 21.2 20.4 26.9 29.1 1.1 1.6 10.3 17.2 9.6 17.9-18.3-2-37.4-2-55.2 3.3l-8.8 3.7c22.6 4.2 44.9 13 62.5 28 7.8 6.6 30.6 31.9 30.6 41.5 0 2.6-1.2 5-1.1 8 .3 19.3 24.8 77.5 43.6 84.5 9 3.4 14.5.4 17.3-8.5 3.3-10.2 4.8-22.5 7.8-33.2 1.8-6.5 9.3-31.4 12.7-35.3 4.1-4.6 44-27.6 50.8-30.2 1.2-.5 2.3-1.1 3.7-.8-10.1 28.2-6 53.9 1.7 81.8 6.9 24.8 15.6 47.5 30 69 7.9 11.8 19.7 23.6 25.7 36.3 4.3 9.2 7.6 21.3 10.8 31.2 7.9 24.1 15.2 48.8 19.7 73.8h-37.5c-2.4 0-9.5-2-12.3-2.7-8.7-2.3-16.5-7-25.2-9.2 5.9 10.6 10.9 27 18 36.5 8.2 11 26.8 17.5 37 27 0 1.8-20.9 5.9-23.5 7.5-3 1.8-16.3 19-14.5 21 19-5.6 34.1-6.8 52.7.8 3 1.2 17.4 9.6 18.3 11.7s-1.5 1.3-2.5 1.5c-15.4 1.6-26.7 4-32.5 20h18.5c3.2 0 14.3 4.6 17.9 6.1 6.5 2.9 12.4 6.8 18.2 10.9 14.4-2 24.9-10.5 36.5-18-2.1 7.5-12.6 13.3-19.1 17.4-11 7-18.8 10.7-30.9 14.6Z" class="outline" data-original-prefix="outline"/></g>
<g class="trait-group" data-category="head"><path id="fill-head-main" fill="#fff" d="M836.8 804.9c41.5-.7 96.7 18.9 126.9 47.6 14.5 13.9 27.6 31.2 35 50 2 1.7 4.5 1.8 7 2 8.8.7 24.3.7 33.1 0 1.9-.2 4.9-.4 6.4-1.6 1-.8 9.2-18.7 11.6-22.4 28.4-43.3 83-70.4 133.9-75.1 48.8-4.5 92.3 18.3 124 54 4.6 5.2 16.5 23.7 20 26 4.8 3.2 20.4 5.8 27.2 8.8s9.9 4.7 12 12c8 27.8 10.1 60.2 17.8 89.2 2 7.5 6.9 17.8 8.3 24.8 2.5 12.7-16.1 9.6-23.3 10.3-7.9.8-32 2.9-37.9 6.1-4.8 2.6-4.7 7.6-6.7 11.3-19.9 36.3-50.9 68.1-91.4 80.6-82.6 25.5-158.9-29.6-190-104-1.9-4.5-7.6-24.1-9.4-25.6-4.2-3.5-32.1-3.3-37-.8-1.1.5-1.8 1.6-2.5 2.5-6.5 21.9-16.6 45.4-30.2 63.8-66.3 90.5-184.2 97.1-248.6.8-3.6-5.4-14.2-26.9-17.4-28.6-4.4-2.4-21.2-4.4-27-5-8.1-.9-17.9-.2-25.4-1.6-2.9-.5-7.9-2.2-8.8-5.3-1-3.4 7.1-24.6 8.5-30.1 7.7-29.1 10-60.2 17.6-88.4 1.8-6.6 4.7-8.5 10.7-11.3 7.2-3.3 23.4-6 28.5-9.5 3.6-2.5 15.3-20.7 20-26 26.7-30 66.1-54 107.2-54.6Z" class="fill" data-original-prefix="fill"/></g><g class="trait-group" data-category="head"><g id="glare"><path id="fill-head-glare4" fill="#fff" d="M1248.6 880c7.2 4.9 13.2 12.8 17.6 20.3 3.8 6.4 14.3 29.3 12.4 35.7l-86.6 135.5c-5.1 4.5-22.4-3.7-28-7.1-4-2.5-19.8-15.2-18.9-19.7 33.1-55.7 66-111.7 103.5-164.7" class="fill" data-original-prefix="fill"/><path id="fill-head-glare3" fill="#fff" d="M909.6 898c1.7-.4 3.5 3.5 4.2 4.7 5.6 8.8 17.6 41.1 14.7 50.2-21.9 40.3-45.3 79.8-68.9 119.1-13.2 3.3-26.6-.3-38.4-6.7-3-1.6-19.4-12.4-19-14.7l107.5-152.7Z" class="fill" data-original-prefix="fill"/><path id="fill-head-glare2" fill="#fff" d="M890.9 876.1c.8 1.2-.2 3.2-.8 4.5-4.3 8.8-15.6 23.5-21.6 32.4-24.9 36.9-51.2 72.9-76.6 109.4-1.7 1.1-5.7 9.3-7.3 8.7-1.9-.7-10.7-14.5-7.4-17.4l94.4-145.6c1.4-1.8 3.6-.1 5.4.5 1.6.6 13.5 6.9 13.9 7.6Z" class="fill" data-original-prefix="fill"/><path id="fill-head-glare1" fill="#fff" d="M1128 1020c-2-6.8-10.7-23.3-8.2-29.7 27.7-43.3 56.7-85.7 86.7-127.3 1.6-3.1 15.7-.7 17.5.5 1.6 1.1.9 1.8.2 3.2z" class="fill" data-original-prefix="fill"/></g></g><g class="trait-group" data-category="head"><path id="fill-head-strap4" fill="#fff" d="M1351 1024c12.7-36.1 16.8-74.6 5.3-111.8-1.5-4.8-5.1-10.6-6.3-14.7-.4-1.5.1-1.7 1.5-1.5 3.3.5 17.3 8.4 18.3 11.7l15.2 106.7c-.3 1.7-.9 3.7-2.7 4.4-7.9 2.9-22.7 1.5-31.3 5.2" class="fill" data-original-prefix="fill"/></g><g class="trait-group" data-category="head"><path id="fill-head-strap3" fill="#fff" d="M696 896c-13.3 30.5-16.4 65.4-9.5 98 2 9.6 6.4 18.8 8.3 27.7.2.9.7 2.3-.3 2.3-4.8-2.7-30.1-3.8-32-6-.5-.6-1.1-2.7-1.1-3.7 3.4-30.8 8.9-61.4 13.5-92 .6-4 .4-11.3 1.3-14.7 1.1-3.9 18.6-12.9 19.8-11.7Z" class="fill" data-original-prefix="fill"/></g><g class="trait-group" data-category="head"><path id="fill-head-strap2" fill="#fff" d="M1049 984c.5.5.2 6.9-1.4 8.1-3.3 2.5-34.2 2.4-40.1 1.9-7.6-.7-11.9-.9-10.5-10 13.7-.8 28.9-2 42.5-1 1.4 0 9.1.7 9.5 1" class="fill" data-original-prefix="fill"/></g><g class="trait-group" data-category="head"><path id="fill-head-strap1" fill="#fff" d="M1058.9 913.1c-2 20.2-7 40.3-5.9 60.9-19.7-3-40.2-3-60 0 1.1-20.6-3.9-40.7-5.9-60.9 8.6-5.7 68.4-5.1 71.7 0Z" class="fill" data-original-prefix="fill"/></g><g class="trait-group" data-category="head"><g id="bevels"><path id="fill-head-bevel6" fill="#fff" d="m1209 1081 23.3-7.1c63.6-27.3 84.6-112 51.7-170.4 2.9-1 6.5 6.1 8.2 8.8 20.5 34.7 21.1 83 .2 117.6-16.3 27-51.1 51.4-83.4 51.1" class="fill" data-original-prefix="fill"/><path id="fill-head-bevel5" fill="#fff" d="M989 899c-3.1-.3-8.3 3.4-10.5 1-1.7-1.8-7.7-17-10-21.1-8.4-15-19.6-27.8-31.5-40 4.6.2 8.9 4.3 12.5 7 17 13.1 32.9 32.6 39.5 53Z" class="fill" data-original-prefix="fill"/><path id="fill-head-bevel4" fill="#fff" d="M1108 839c.4 1.9-1.1 2.4-2 3.5-4.2 5-9.6 9.7-14 15-10.3 12.8-18.3 27.3-24.5 42.5-2.2 2.3-7.4-1.4-10.5-1 6.7-20.5 22.5-39.8 39.5-53 1.5-1.1 10.4-8.1 11.5-7" class="fill" data-original-prefix="fill"/><path id="fill-head-bevel3" fill="#fff" d="M1055 1001c4.5 23.1 17.2 43.6 29 63.5l12 17.5c-1.9.4-2.4-1.1-3.5-2-14.7-12.3-40.4-53.6-42.4-72.6-.5-5-.7-6.2 4.9-6.4" class="fill" data-original-prefix="fill"/><path id="fill-head-bevel2" fill="#fff" d="M995.8 1002.2c1.3 2.2-1.7 12.6-2.6 15.6-5 16.8-26.4 51-39.8 62.2-1.1.9-1.6 2.4-3.5 2l12-17.5c11.8-19.9 24.5-40.5 29-63.5.3-.3 4.5.6 4.8 1.2Z" class="fill" data-original-prefix="fill"/><path id="fill-head-bevel1" fill="#fff" d="M837 1080c-76.4-12.6-107.9-98.3-80.5-166 1.4-3.5 4.9-7.4 4-11-30.9 41.2-30.2 103.6 4.5 142.5 14.7 16.4 45.9 36.4 68.5 35.5 1.2 0 3.7.8 3.5-1" class="fill" data-original-prefix="fill"/></g></g><g class="trait-group" data-category="head"><g id="shading-layers" class="st3"><path id="outline-shading-head7" fill="#000" d="M1107 1067c2.1 0 .3-3.3 1.4-5 .8-1.3 7.1-2.6 8.4-1.8s1.7 8.6 6.9 9.7c6.3 1.3 7.1-5.8 10.6-4.8 6.8 6.3 5.6 16.8.3 23.6-.9 1.2-4.8 1.8-2.6 3.8 8.1 7.1 27.1 15.8 37.4 19.6 12.1 4.4 25.6 8.2 38.5 8-1.1-5.1-6.9-11.6.9-13.6 7.1-1.7 9.2 3.3 15.5 3.6 7.9.4 9.9-5.8 17.5-3 1.5 1.5-2.9 7.5.5 7 5.7-.8 20.6-7.8 26.2-10.8 10.3-5.5 18.6-13.1 27.3-20.7-8-2.2-9.9-8.1-8.9-15.9.2-1.2 2.6-9.2 3.1-9.4s8.4-.4 9.2-.2c.7.2 3.1 11.4 11.7 3.6 2.5-2.3 3.4-8.7 7.4-5.6 1.3 1-.2 7.1 2.1 7.1.3 0 5.8-5.9 4.5-1.5-.3 1.1-5.4 8.9-6.6 10.4-29.7 42.2-80.7 69.1-132.8 62.9-67.3-7.9-116.3-61.2-139.1-121.9-1.3-3.5-1.7-10.3-4.1-13-2.6-2.9-19.5-3.3-24-3.1-3.3.1-13.1 1-14.9 3.1-3.3 8.8-5.7 18-9.3 26.6-27.3 64.1-92.7 117.2-165.5 108.2-45-5.5-85.3-35.8-107.6-74.4 2.9-2 4.9 1.2 7 2.5-1-3 .8-8.8 4.5-8 1 .2 3.2 8.4 9.2 9s6-5.8 7-6.1c8.1-2.2 10.8 1.9 11.9 9 1.3 8.6 0 13.6-8.5 16.6 15.2 15.1 33.4 25.6 54 31.5-.9-5.3 0-9.1 6.3-7.8 1.4.3 3.6 2.8 5.7 3.3 9.7 2.7 11.8-3.9 18.5-3.6 10.2.5 6.6 8.2 2.5 14 28.2-.4 54.7-13.1 78-28-6.4-4.6-9.2-12.2-7.5-20.1 2.9-13.7 8.3-2.9 11.3-2.1 8.2 2.3 7.9-7.8 10.2-9.4 1.6-1.1 7.6 0 8.6 1.5 1.1 1.7-.6 4.9 1.5 5 11.6-17 20.8-34.6 29.2-53.3 3.2-7.2 9-27.5 14.9-31.1l22.6-6.4c13.5.5 27.9-1.8 40.9 1.8 2.1.6 3.7 2.4 5.2 2.8 5.3 1.4 8.5-1.1 12.7 5.3 6.8 10.3 13.5 34.1 20 47 6 11.8 13.6 22.7 20.5 34Z" class="outline" data-original-prefix="shading" opacity=".2"/><path id="outline-shading-head6" fill="#000" d="M898 854c.6-.5 1-6.8 6.7-6.8 4.2 0 3.8 11.7 14.9 6.9 3.1-1.3 4.6-5.3 6.1-5.9 4.8-1.8 5.4 2.2 5.4 6.3 0 5.4-2.4 11.2-6.7 14.4-1.7 1.2-3.7.3-3.4 2.6.3 2.1 4.3 5 5.9 7.2 21.1 29.2 27.9 53.6 20.9 89.6-.2 1-1 5.8-2.2 5.8-6.6-9.8-6.7-20.8-9.4-31.6-13.8-56.6-57.7-95.9-118.3-81.1-53.5 13.1-64.8 100.7-51.5 144.9 9.8 32.6 37.1 56.7 68.5 68.5 2.4.9 17.4 3.5 12.6 7.3-3.3 2.6-15.5 2.3-19.9 1.9-15.3-1.4-42.8-15.4-54.5-25.5-5.1-4.4-9.3-11-14.1-14.9-9.7-7.9-14.4-3.7-22.1-16.9-6.8-11.8-9.4-25.5-12.3-38.7-1.1-2.1-4.3 2.9-6.5 3.6-10.3 3.2-17.6-8.2-18.1-17.1-.8-15.7 8.7-2.1 11.4-2.5 2.9-.5 4.3-7.3 3.6-9.9l8 1c1.3-16 3.9-32.1 9.2-47.2 1.2-3.4 3.8-7.5 4.7-10.3s-3.1-.4-4.5-.4c-7.6-.1-12.3-9-10.8-15.8.4-1.6 4.9-11.8 5.9-12.2 1.4-.6 3 4 4.5 5.5 7.1 7.4 8.8 1.1 12.7.6 1.5-.2 2.7 2.9 5.3 1.4 1.3-.7 8.9-11.1 11.5-13.6 12.1-11.8 29-23 45.5-27-4.3-3.8-7-19.7-.5-21 9.2-1.8 7.8 6.1 13.1 6.7s6.4-6.3 11.4-5.4c7.8 1.5 5 9.5 2.5 14.6 16.3-3 34.3 1.1 49.5 7.6 2.3 1 14.3 8 15 7.5Z" class="outline" data-original-prefix="shading" opacity=".2"/><path id="outline-shading-head5" fill="#000" d="M1241 844c16.9 4.1 34.2 15.9 46.5 28 1.9 1.9 9.9 12.6 11.2 12.9 2.1.5 3.3-2 4.6-1.8 3.3.5 5.9 6.6 12.2 0 1.8-1.9 3.2-8.2 5.9-5 .4.5 4.1 8.8 4.3 9.7 1.7 8.1-1.3 16.3-10.4 17.2-1.4.1-5.3-2.3-4.4.5 1.1 3.3 3.8 7.4 5 11 5 15 7.3 30.9 9 46.5l8-1c-.2 2.5-.2 9.1 2.7 9.9 3.1.9 6.9-5.8 9.8-4.9 6.6 5.2-1.7 22.4-7.5 24.4-7 2.4-8-.5-12.5-3.5-.8-.6-1-1.7-2 0-1.9 3.2-4.3 19.2-6.2 24.8-1.7 4.9-4.1 10.7-6.9 15.1-5.7 9.2-8.1 7.7-16.4 12.6-8.4 4.9-12.2 12.4-19.5 18.5-10.8 9.1-39.2 23.4-53.1 24.9-3.7.4-19.6.7-21.3-1.9-2.8-4.2 11-6.3 13.9-7.5 44-17 70.5-51.4 73.1-98.9 2-37-12.1-100.9-52.8-113.3-55.3-16.8-99.3 14.6-118 65.5-3.9 10.7-4.2 19.1-6.7 29.3-1.3 5.5-5.3 11.3-6.6 16.9-1.3 1-2.7-4.6-2.9-5.6-5.9-30.8-2.3-53.8 14.5-80.3 1.7-2.7 13.2-17 12.4-18.1-8 .9-13-19.3-8.9-21.9 4.5-2.8 6.6 4.2 9.5 5.7 10.4 5.4 12-6.7 15.7-6.7 5.7 0 6.2 6.4 6.7 6.8.8.6 14.3-7.3 17-8.5 15.1-6.2 30.7-8.2 47-7.5-2.1-3-3.4-9.5-.6-12 6.7-6 9.2 4.4 14.9 3.8 5.3-.6 5.1-10.3 14.4-6 4.9 2.3 2.1 16.7-1.8 20.2Z" class="outline" data-original-prefix="shading" opacity=".2"/><path id="outline-shading-head4" fill="#000" d="M697 938c-1.4 11.4-1.3 23.1 0 34.5 2 17.6 10.2 36.8 11.9 53.1 1.1 10.8-1.6 11.1-10.9 8.9-7.5-1.7-12-5.9-20.5-6.5-1.1 0-2.7-.6-2.5 1l7.5 3c-7.8-3.1-33.3.9-37-7-2.4-5.3 5.2-17.8 5.5-24 10.2 3.7 20.1 5.5 31 6-.5-7.6-2.8-15.8-3-23.5-.3-9.5.8-23.2 2.5-32.6 2.2-12 2.4-12.6 15.5-13Z" class="outline" data-original-prefix="shading" opacity=".2"/><path id="outline-shading-head3" fill="#000" d="M1363.8 940.2c1.1 1.1 4.1 18.4 4.3 21.2 1 14.4.6 31.7-3 45.5 10.1-.4 19.8-2 29.4-4.9.9.2 1.1.9 1.4 1.6.5 1 4.7 13.7 5 15 3.1 15.9-23.2 10.2-32.8 12.3l5-2c.3-1.6-1.4-1.1-2.5-1-3.5.2-8.9 1.6-12.3 2.7-1.1.3-1 1.9-2 2.2-2.5.8-13.3 2.7-15.6 2.1-1-.2-2.7-4.9-2.5-6.3 5.2-23.3 13.7-48.2 13.8-72.2 0-6.2-1.7-12.3-1.1-18.5.5-.5 11.8 1.2 12.8 2.2Z" class="outline" data-original-prefix="shading" opacity=".2"/><path id="outline-shading-head2" fill="#000" d="M976.6 956.5c3 9 6.2 20.1-2.7 26-12.7 8.5-23.4-4.5-23.8-17.1 0-2.5 1.9-15.9 5.4-11.3 2.5 3.3 2.5 9 9.1 9.9 8.1 1.2 5.8-5.1 12-7.5" class="outline" data-original-prefix="shading" opacity=".2"/><path id="outline-shading-head1" fill="#000" d="M1095 953c.5.3 2.9 9.9 2.9 11.4 0 12.6-10.9 26.7-23.8 18-6.5-4.3-7.8-11.4-7-18.8 0-.9 1.7-7.3 1.9-7.6 1.6-1.7 3 3.4 4.1 4.4 6 6 13.1 4.4 17.8-2.1.7-.9 1.9-7 4.1-5.3" class="outline" data-original-prefix="shading" opacity=".2"/></g></g><g class="trait-group" data-category="head"><path id="outline-head1" fill="#000" d="M956.7 833.3c4.3 3.1 13.3 12 17.3 16.1 13.3 13.6 25.6 29.4 32.1 47.4l33.2.2c7.8-19.2 21.3-36.7 36.1-51.1 36.6-35.7 106.4-55.2 156.7-46.7 36.4 6.2 71.2 31.8 94.3 59.7 3.4 4.1 11 16.7 13.9 19 3.5 2.7 22.3 6.6 28.5 9.5 14.6 6.7 13.7 18.1 16.5 32.5 4.5 23.2 7.7 46.3 13.8 69.2 2.5 9.2 8.3 21.7 9.4 30.5 2.9 21.4-23.6 16.7-38.1 18.4-8.6 1-17.1 2.8-25.6 4.4-5.4 8.1-9.2 17.1-14.6 25.4-67.5 103.7-202.5 95-268.2-5.6-11.3-17.2-20.5-38.2-25.4-58.1-1.5-1.8-26.2-1.8-27.6 0-3.7 16.3-10.8 32.9-19 47.5-62.5 111.2-208.1 124.6-277.2 11.8-4.3-7-7.4-14.4-12-21-8.5-1.8-17-3.4-25.6-4.4s-21.7-.3-29.6-2.4c-4.5-1.2-8.8-7.6-8.8-12.2-.1-8.7 8.2-27.7 10.8-37.3 7.3-27.4 9-58 16.6-84.4 2.2-7.5 4.9-10.7 12-14 6.5-3 25.4-6.8 29.2-9.8 1.9-1.5 4.2-6.6 6.1-8.9 53.2-67.4 112.2-87.6 195.9-60.1 12.2 4 38.8 16.9 49.2 24.4ZM697 962c1.2-11.4 13.1-16.4 21.4-7.9l5.6 9.9c2.2-40.7 21.1-79.4 55.1-102.4 36.1-24.5 82.9-25 119.2-.4 1.6 1.1 2 1.4 3.3 2.5-3.8-5.2-7.5-10.9-3-19.6 4.3-8.3 12-10.6 20.7-7.3-.4-1.1-1.7-1.8-2.2-2.3-3.3-3.1-11.8-7.7-16-10-24.6-13.3-51.3-15.3-79-14.5 2.7.8 4.4 2 6.3 3.1 17.2 10.3-6.8 38.2-22.8 25.8-9-6.9-4-19.7 3.6-25.5-6 1-14.5 4.7-20.8 7.4-20 8.6-38 22.4-52.3 38.7-.9 1-6.7 7.8-6 8.5 14.7-4.1 23 5.3 17 19.5-5.7 13.3-25.5 17.7-26.8-.3-.2-2.3 2-6.5-.2-7.2-16 25.8-22.8 51.7-24 82-.3 6.7.2 7.6 1 14 2 16.8 5 29.6 11 45.5 4.3 11.5 9.7 23.6 17 33.5-1.7-7.7 5.4-12.6 12.4-11.9 3.9.4 6.9 3.8 10.6 3.4-14.3-21.6-23.3-46.3-24-72.5l-4.5 8c-7.2 9.7-18.7 4.3-21.5-6-1-3.5-1.4-10.3-1-14Zm527.5-151.1c-34.5-1.4-70.6 2.5-97.5 25.6 8.7-1.7 14.6-2 19.6 6.3 3.4 5.7 4.2 11 .6 16.9-1.2 2-1.6 2.6-2.8 3.7 11.2-5.3 21-12.9 33.1-16.4 75.6-21.9 142.3 43.4 144.4 116.9 0 0 .8-6.3 5.6-9.9 3-2.3 18.6-3.6 21.3 6.5 1.2 4.4 0 15.3-1.4 17.5s-3.1 5.7-7.8 8.2c-4.2 2.2-9.8-.7-12-2.2-3.7-2.7-5.8-10-5.8-10-1.2 25.9-9.3 52.7-25.3 73.2 2.3-1.2 7.7-3.8 11.9-4.2 7.6-.7 13.1 4.4 12.9 11.9 10.3-16.3 18.2-35.1 23.2-53.8 11.3-42.2 3.9-84.3-18.7-121.2.2 1.2.4 4.9.3 7.3-1.3 17.8-21.1 13.6-27 1-4.7-10.1-2.4-21.4 10.2-21.8 1.4 0 4.8.3 7.2 1-20.6-25.1-48.4-46.7-80.7-53.4 2.1 1.3 3.3 2.5 5 4.5 4.3 5.2 6.2 12 2 18-11.7 16.6-43.8-5.5-26.5-22.5 4.3-4.2 8-3.1 8-3.1Zm-408.8 9.3c-8.3 1.9-10.7 17.5 3.6 14.5 11-2.3 10.6-17.8-3.6-14.5m407 0c-2.1.6-3.6 4.4-3.7 6.4-.3 8.9 17.7 12.3 18 2.9.2-7.5-7.8-11.3-14.4-9.3ZM989 899c-6.7-20.4-22.5-39.9-39.5-53-3.6-2.8-7.9-6.8-12.5-7 11.9 12.2 23.1 25 31.5 40 2.2 4 8.3 19.2 10 21.1 2.2 2.4 7.4-1.4 10.5-1Zm123.6-63.9c-1.1-1.1-14.6 9.8-16.1 11-17 13.2-32.8 32.5-39.5 53 3.1-.3 8.3 3.4 10.5 1 6.2-15.2 14.2-29.7 24.5-42.5 4.3-5.4 8.8-10.3 13.4-15 1-1 7.6-5.6 7.2-7.5M926.9 842c-.7-.5-.8-.7-2.9-1.5 7.9 10.1 3.2 24.2-9.8 26.3-3.8.6-8 .7-10.2-.3 46.2 37.9 53.6 106.1 26.7 157.7-29.5 56.5-97.7 84.9-154.6 48.2L757 1058c1.3 5.7 1.9 10.5-2.5 15s-8.7 3.8-14.5 3.4c12.5 15.8 28.9 28.1 47 37.1 68.1 33.8 141.1-9 174.6-70.5 34.3-63.2 24.8-151-31.5-198.6-1.3-1.1-2.1-1.7-3.1-2.5Zm214.4 23.9c-17.4 4.5-29.1-10.1-19.8-25.8-2.6 1.8-3.6 2.8-5.6 4.4-44.2 37.3-59.7 100.2-47.5 155.6 17.9 81.3 106.4 154.9 189.9 113.8 18.3-9 35-21.3 47.6-37.4-5.8.4-10 1.3-14.5-3.4s-2.8-10.9-1.4-16.6c-1.2.6-3 2.3-4 3-29.8 23.1-52.3 35.2-92 27-95-19.7-127.7-154.1-55.2-218 .7-.6.8-1.3 2.6-2.7Zm-232.6-22.7c-2.6.6-4.6 3.3-5.3 5.8-2.8 10.4 14.8 16 18.2 5 2.1-6.7-7-12.1-12.9-10.8m224 0c-12.9 2.5-9.9 19.2 2.5 16.6 11.1-2.3 9.4-18.9-2.5-16.6M1128 1020l96.2-153.3c.7-1.4 1.4-2.1-.2-3.2-1.8-1.3-15.9-3.7-17.5-.5-30 41.7-59 84.1-86.7 127.3-2.4 6.5 6.3 22.9 8.2 29.7M890.9 876.1c-.4-.7-12.3-7-13.9-7.6-1.8-.7-4-2.3-5.4-.5l-94.4 145.6c-3.3 2.9 5.5 16.6 7.4 17.4 1.6.6 5.6-7.5 7.3-8.7 25.5-36.5 51.8-72.5 76.6-109.4 6-8.9 17.4-23.6 21.6-32.4.6-1.2 1.6-3.2.8-4.5Zm-154.1-.9c-10.1 1.3-13.9 20.8-2.7 17.4 9.5-2.9 12.1-18.6 2.7-17.4m569.9-.1c-10 2.8 3.2 22.6 10.4 17.4 5-3.6-1.6-19.8-10.4-17.4m-58.1 4.9c-37.4 53-70.3 109-103.5 164.7-.9 4.5 14.9 17.2 18.9 19.7 5.5 3.4 22.8 11.7 28 7.1l86.6-135.5c1.9-6.4-8.7-29.3-12.4-35.7-4.4-7.5-10.3-15.4-17.6-20.3M696 896c-1.2-1.2-18.7 7.8-19.8 11.7-.9 3.3-.7 10.6-1.3 14.7-4.6 30.7-10.1 61.2-13.5 92 0 .9.6 3 1.1 3.7 1.9 2.2 27.2 3.3 32 6 1 0 .5-1.5.3-2.3-2-8.9-6.3-18.1-8.3-27.7-6.9-32.6-3.8-67.5 9.5-98Zm655 128c8.7-3.7 23.4-2.2 31.3-5.2 1.8-.7 2.4-2.7 2.7-4.4l-15.2-106.7c-.9-3.3-15-11.2-18.3-11.7-1.4-.2-1.9 0-1.5 1.5 1.2 4.1 4.8 10 6.3 14.7 11.5 37.2 7.4 75.7-5.3 111.8M909.6 898l-107.5 152.7c-.4 2.3 16 13 19 14.7 11.8 6.3 25.2 9.9 38.4 6.7 23.7-39.3 47.1-78.7 68.9-119.1 3-9.1-9-41.5-14.7-50.2-.8-1.2-2.5-5-4.2-4.7ZM837 1080c-76.4-12.6-107.9-98.3-80.5-166 1.4-3.5 4.9-7.4 4-11-30.9 41.2-30.2 103.6 4.5 142.5 14.7 16.4 45.9 36.4 68.5 35.5 1.2 0 3.7.8 3.5-1m372 1c32.3.3 67.1-24.1 83.4-51.1 20.9-34.6 20.2-82.9-.2-117.6-1.6-2.8-5.3-9.9-8.2-8.8 32.9 58.4 11.9 143-51.7 170.4zm-150.1-167.9c-3.3-5.1-63.1-5.7-71.7 0 1.9 20.2 7 40.3 5.9 60.9 19.7-3 40.3-3 60 0-1.2-20.6 3.9-40.7 5.9-60.9Zm-352.2 45c-7.2 2-6.6 21.2 2.7 19.9 8.5-1.2 6-22.3-2.7-19.9m630 0c-7.4 2-7.1 20 .8 20 9.7 0 8.2-22.4-.8-20M1049 984c-.3-.3-8-.9-9.5-1-13.7-1-28.9.2-42.5 1-1.4 9.1 2.9 9.3 10.5 10 5.9.5 36.7.7 40.1-1.9 1.6-1.2 1.9-7.6 1.4-8.1m-53.2 18.2c-.3-.5-4.5-1.5-4.8-1.2-4.5 23-17.2 43.6-29 63.5l-12 17.5c1.9.4 2.4-1.1 3.5-2 13.4-11.2 34.8-45.4 39.8-62.2.9-3 3.9-13.5 2.6-15.6Zm59.2-1.2c-5.6.2-5.4 1.4-4.9 6.4 2 19 27.6 60.3 42.4 72.6 1.1.9 1.6 2.4 3.5 2l-12-17.5c-11.8-19.9-24.5-40.5-29-63.5m-309.2 66.8c5.5-5.7-4.9-22.8-13.3-16.8-7.8 5.6 8.1 22.3 13.3 16.8m554.4 0c5.3 5.5 21.2-11.2 13.3-16.8-8.4-6-18.8 11.1-13.3 16.8" class="outline" data-original-prefix="outline"/></g><g class="trait-group" data-category="head"><path id="outline-head7" fill="#000" d="M1225.8 1092.2c20.1-.7 24.1 21.8 5.4 27.5-8.5 2.6-18.5 2.4-24.2-5.2-9.2-12.4 7.6-21.8 18.8-22.2Zm-11.5 19.5c6.5 7.8 22.4 2.5 19.5-7-2.6-8.3-27.2-2.3-19.5 7" class="outline" data-original-prefix="outline"/></g><g class="trait-group" data-category="head"><path id="outline-head6" fill="#000" d="M1111.3 1053.3c13.8-14.5 39.8 19.2 24.2 29.7-13.6 9-34.8-18.5-24.2-29.7m9.4 6.9c-9 1.9-.6 15.6 6.8 15.9 10.5.4 5.2-18.4-6.8-15.9" class="outline" data-original-prefix="outline"/></g><g class="trait-group" data-category="head"><path id="outline-head5" fill="#000" d="M1083.7 943.3c18.9-.5 19.2 36.3-1.1 35.7-19.7-.6-18.1-35.1 1.1-35.7m-1 8.9c-9.4 1.9-9.5 19.8-.3 19.9 11.2.2 9.4-21.8.3-19.9" class="outline" data-original-prefix="outline"/></g><g class="trait-group" data-category="head"><path id="outline-head4" fill="#000" d="M817.8 1092.2c11.5-.6 31 9.1 21.2 22.3-6 8.1-17.7 8-26.4 4.4-15.6-6.4-11.8-25.7 5.2-26.7m13.9 19.5c7.7-9.3-17-15.3-19.5-7-2.9 9.5 12.9 15 19.5 7" class="outline" data-original-prefix="outline"/></g><g class="trait-group" data-category="head"><path id="outline-head3" fill="#000" d="M934.7 1053.3c10.7 11.2-10.6 38.7-24.2 29.7-15.7-10.4 10.4-44.1 24.2-29.7m-14 6.9c-10.6 2.3-10.7 21 1.7 14.7 8-4.2 10.3-17.3-1.7-14.7" class="outline" data-original-prefix="outline"/></g><g class="trait-group" data-category="head"><path id="outline-head2" fill="#000" d="M961.7 943.3c19.6-.6 22 35.1 1.8 35.7-19.9.6-20.2-35.2-1.8-35.7m-1 8.9c-7.1 1.9-7.1 21.5 3.7 19.9s5.9-22.5-3.7-19.9" class="outline" data-original-prefix="outline"/></g><g class="trait-group" data-category="head"><g id="rivets"><path id="fill-head-rivet16" fill="#fff" d="M1132.7 843.2c11.9-2.3 13.7 14.2 2.5 16.6-12.5 2.6-15.4-14-2.5-16.6" class="fill" data-original-prefix="fill"/><path id="fill-head-rivet15" fill="#fff" d="M908.7 843.2c5.8-1.3 14.9 4.2 12.9 10.8-3.4 11-20.9 5.4-18.2-5 .7-2.5 2.7-5.2 5.3-5.8" class="fill" data-original-prefix="fill"/><path id="fill-head-rivet14" fill="#fff" d="M1300.2 1067.8c-5.5-5.7 4.9-22.8 13.3-16.8 7.8 5.6-8.1 22.3-13.3 16.8" class="fill" data-original-prefix="fill"/><path id="fill-head-rivet13" fill="#fff" d="M745.8 1067.8c-5.3 5.5-21.2-11.2-13.3-16.8 8.4-6 18.8 11.1 13.3 16.8" class="fill" data-original-prefix="fill"/><path id="fill-head-rivet12" fill="#fff" d="M815.7 820.2c14.1-3.2 14.5 12.3 3.6 14.5-14.3 3-11.9-12.7-3.6-14.5" class="fill" data-original-prefix="fill"/><path id="fill-head-rivet11" fill="#fff" d="M1222.7 820.2c6.6-2 14.6 1.8 14.4 9.3-.3 9.4-18.3 6-18-2.9 0-2 1.6-5.8 3.7-6.4Z" class="fill" data-original-prefix="fill"/><path id="fill-head-rivet10" fill="#fff" d="M706.7 958.1c8.7-2.4 11.2 18.7 2.7 19.9-9.4 1.3-9.9-18-2.7-19.9" class="fill" data-original-prefix="fill"/><path id="fill-head-rivet9" fill="#fff" d="M1336.7 958.1c9-2.4 10.5 19.9.8 20-7.9 0-8.2-17.9-.8-20" class="fill" data-original-prefix="fill"/><path id="fill-head-rivet8" fill="#fff" d="M736.8 875.2c9.4-1.2 6.7 14.5-2.7 17.4-11.2 3.4-7.4-16.1 2.7-17.4" class="fill" data-original-prefix="fill"/><path id="fill-head-rivet7" fill="#fff" d="M1306.7 875.1c8.7-2.4 15.4 13.8 10.4 17.4-7.2 5.2-20.3-14.7-10.4-17.4" class="fill" data-original-prefix="fill"/><path id="fill-head-rivet6" fill="#fff" d="M1214.3 1111.7c-7.7-9.3 17-15.3 19.5-7 2.9 9.6-13 14.8-19.5 7" class="fill" data-original-prefix="fill"/><path id="fill-head-rivet5" fill="#fff" d="M1120.7 1060.2c12-2.6 17.3 16.3 6.8 15.9-7.4-.3-15.8-13.9-6.8-15.9" class="fill" data-original-prefix="fill"/><path id="fill-head-rivet4" fill="#fff" d="M1082.7 952.2c9.2-1.8 10.9 20.1-.3 19.9-9.2-.1-9.1-18.1.3-19.9" class="fill" data-original-prefix="fill"/><path id="fill-head-rivet3" fill="#fff" d="M831.7 1111.7c-6.6 8-22.4 2.5-19.5-7 2.5-8.3 27.2-2.3 19.5 7" class="fill" data-original-prefix="fill"/><path id="fill-head-rivet2" fill="#fff" d="M920.7 1060.2c11.9-2.6 9.7 10.5 1.7 14.7-12.3 6.3-12.3-12.3-1.7-14.7" class="fill" data-original-prefix="fill"/><path id="fill-head-rivet1" fill="#fff" d="M960.7 952.2c9.7-2.6 14 18.4 3.7 19.9-10.8 1.6-10.8-18-3.7-19.9" class="fill" data-original-prefix="fill"/></g></g></svg>