<?xml version="1.0" encoding="UTF-8"?>
<svg xmlns="http://www.w3.org/2000/svg" viewBox="0 0 2048 2048">
  <style>
      .outline { fill: #000000; }
      .fill { fill: #FFFFFF; }
      .shading { fill: #aaaaaa; opacity: 0.5; }
    </style>
  <g class="trait-group" data-category="background" id="background-blue">
      <path id="color-blue" fill="#2f5496" d="M2048 0v2048H0V0z" class="color" style="fill: #2f5496"/>
    </g><g class="trait-group" data-category="jaw" id="jaw-robo">
      <path id="fill-jaw-robo1" fill="#ffffff" d="M1369.9 1062.1c.4.5 1 11.1 1.4 13.1 11.6 61.7 25.9 123 37.2 184.8 16.2 20.3 35.3 38.1 51.5 58.4l-70.1 149.9-2.3 1.6-31.6-1.9-7.8 59.7-101.2 128.8c-1.6 1.1-2.6-.6-3.6-1.6-11.2-11.1-20.8-28.6-32-40-1.3-1.3-2.6-3.5-4.8-2.9-3.4.9-32.4 51.8-38.3 57.8-25.8 9.8-49.6 24-74.7 35.3-8.9 4-63.2 23-65.1 25.9-.6 1-.4 2.8-.6 2.9-.2.2-3.1-.9-4.4-.9s-3.2 1.3-3.6.9c-.3-.3.7-2.4-2.3-4.2-13.4-8.1-38.6-14-54.4-20.6-28.2-11.8-54.4-28.3-83.3-38.7-6.3-5.8-35.3-57.4-38.7-58.4-2.2-.7-4.5 2.4-5.9 3.9-11.6 12.1-21.3 28.8-33.1 41l-1.9-.9-100.9-128.1c-3.2-19.9-5.4-39.9-7.5-60l-31.6 1.9-2.5-1.4-69.8-149.3c-.3-1.9 4.6-7.3 6.3-9.3 14.5-16.8 30.7-32.1 44.6-49.4 10.6-62 27.2-123.3 37.7-185.3.5-3.2-.7-11.9 2-13.3 104.8-21.7 209.7-42.7 314.5-64.3 7.3-1.5 24.9-7.3 30.5-7.5 4.2 0 24.8 6.2 31.1 7.5 105 21.6 210.1 42.9 315.1 64.4v.2z" class="fill" data-original-prefix="fill"/><path id="shading-jaw-main" fill="#aaaaaa" d="m1369.9 1062.1 28.1 145.4c-4.8-.6-19.2-17.4-22.3-16.4-3.4 1-21.1 37.8-20.7 42.4 12.3 15.8 24.8 31.6 35.4 48.6 3.7 5.9 15.5 24.5 15.6 30.5 0 4.7-10.7 25-13.5 30.5-4.5 8.7-9.8 16.9-14.5 25.5 17.3-8 33.9-18.4 49.3-29.7 4.1-3 10.3-7 13.7-10.3 2.3-2.2 12.4-16.5 13.5-16.5l5.5 6.4-65.1 139.9-6.5 11.5-32.3-1.9-7.8 59.7-101.2 128.8c-1.6 1.1-2.6-.6-3.6-1.6-11.1-11.1-20.8-29.2-31.9-40-.8-.8-1.6-2.1-2.9-1.9-7.3 1.3-32.3 48.3-39.7 55.4-30.9 14.9-60.7 32.4-91.6 47.4-12.8 6.2-33.2 17.2-46.8 18.2-23.7 1.7-37.4-7.3-57.9-17.2-31.4-15.1-61.6-32.8-93-48-8.2-6.6-32.8-54.4-40.3-55.8-2.8-.5-31.3 38.2-35.8 43-1 1.2-2 1.2-3.1 0l-100.9-128.1-7.5-60-31.6 1.9-2.5-1.4-69.8-149.3c-.3-3.1 3.7-7.8 6.8-5.8 1.9 1.2 8.8 11.9 11.5 14.6 2.9 2.9 7.8 6.2 11.2 8.8 4.5 3.4 49.2 33.3 51.3 31.2-7.3-15.4-17.3-29.8-23.8-45.6-1.2-2.9-3.2-6.7-3.2-9.9 0-5.3 10.4-22 13.7-27.4 11-18.2 24.3-34.9 37.4-51.6-4.2-15.2-12-29-20.1-42.3-.9-.5-2 0-2.9.4-6.3 3.4-12.9 13.3-20 16.5l28.1-145.9 45.8-9.7c48.2-55 116.4-93.5 184.8-118.2 72.2-26 130.6-31.5 205-8.5 77.7 24 155.9 65.5 210.3 126.7zM854 1330c-21-6.7-43.3-4.3-64.4-11.1-14-4.5-30.8-14.7-42.9-23.1-18.1-12.6-35.7-28.4-49.2-45.8-10.7 14.6-22.1 30.4-30.7 46.3-4.3 8-11.3 21.1-7.7 30.1l27.1 48.4c6.1 1.6 17.5-4.7 22.8-2.3 1.5.7 2.4 3.5 4.5 3.5s4.4-5.1 7-5.1 3.4 4.4 7 4.1 5.2-6.6 7.2-7c.5 0 8.2 2.7 8.6 2.9 4.7 2.4.3 18-3.2 21.4.3 1.5 14.2 9.3 16.4 9.6 2.9.5.2-2.4 1-4.9s6.5-6.3 8.8-5.9c5.4.9 6.3 10.2 14.7.3 1.9-2.2 0-4.1 4.5-4.6 8.5-1 5 8.4 7 14.1 12.4-17.2 20.2-37.4 32.1-54.9l29.4-16.1Zm507.8 44.8c8.8-17.7 20.1-34.4 28.2-52.3-.4-8.9-2.9-14.5-6.9-22.2-8.9-17.4-21.4-34.4-32.7-50.3-21.1 25.5-52 52.2-82.8 65.2-24.8 10.4-48.4 7.8-73.7 14.8l29.7 16.3c11.6 17.6 19.4 37.7 31.8 54.7.9-1.8 1-13.5 1.5-14s7.3-.2 7.8.2c1 .6 1.6 7.8 6.9 8.7 6.3 1.1 7.7-7.8 15.4-2.8 2.7 1.8 3.1 6 2.8 8.9 1.2 1.4 17.7-8.3 18-9.6.2-1-3.9-5.8-4.6-8.4-2.2-9.5-1.5-13.7 8.4-14.8 5.3-.6 2.8 2.2 5.5 4.5 4.6 4 7.8-2.7 10-2.6 2.7.2 5 4.9 7.2 4.9s3-2.8 4.5-3.5c5.2-2.4 16.6 3.8 22.8 2.3zM1078 1327c-5.5-11.1-10.5-24.8-17.6-34.9-4.2-6.1-10.2-10.5-14.9-16.1-3.4-4-15.2-20.5-18.4-21.6-1.9-.6-4.4-.8-6.3-.2-2.4.7-15.7 18.7-18.7 22.3s-7.4 6.8-10.5 10.5c-9.4 11.2-15.1 26.9-21.5 40h108Zm-353.8 172.8c24.8 5.4 50.2 7.7 75 13.6 17.3 4.1 20.3 3.6 29.6 19.4 5.3 8.9 9.2 18.7 14.2 27.8l17 14-29.2-80.8c-2.4-5.8-8-8-13.1-10.9-22.2-12.9-51.7-27.2-75.7-36.3-2.6-1-8.1-3.8-10.4-3.5-1 0-15.6 9.5-16.3 10.3-6.3 7.6 6.8 37.2 8.9 46.5Zm599.6 0c2.5-10.6 8.2-22.1 9.8-32.7.8-5.7 1.7-10.9-3-15.1-1.1-1-13.2-8.9-14-9-2.5-.3-19.4 7.2-23.2 8.8-20.7 8.8-45.7 20.5-65 32-5.6 3.4-8.8 4.9-11.8 11.2l-28.5 80 16.4-14.1c7.1-10.9 14.9-35.4 25.9-42.1 6.1-3.8 19.9-5.9 27.5-7.5 21.8-4.6 44.2-6.7 66-11.5zM908.5 1649v1c.7-.3.7-.7 0-1m229.5 1c-31 8.8-60.6 26.8-91 36.5-19.3 6.2-28.3 5.9-47.5-.4-28.3-9.3-56.5-25.5-85-35.1-1.2-.4-3.6-1.8-4.5-.5.8 2.1 2.7 4.2 4 6 4.9 6.3 18 23.3 23.5 27.5 7.2 5.5 27.9 14.6 37.1 18.9 5 2.3 20.9 10.5 24.9 11.1 9 1.4 36.3 1 46 0 7-.6 57.7-24.6 64.4-29.6 5.3-3.9 18.2-20.8 23-27 .8-1 5.8-6.8 5-7.5Z" class="outline shading" data-original-prefix="shading" opacity="0.5" style="opacity: 0.5"/><path id="outline-jaw" fill="#000000" d="M670 1105c2 .2 9.2 3.6 9.8 5.7 1 3.3-1.3 18.1-2 22.7-6 41.8-19.7 84.1-28.6 125.4-12.3 18.3-29.3 33.5-43.8 50.2-1.2 1.3-6.5 7.5-6.5 8.5l56 135.5c1.5.4 1.7-.4 2.5-1 7.1-4.9 23.9-23.3 30.5-30.5 1.5-1.6 9.9-11.2 10-12-17.6-32.9-42.5-63.1-49.8-100.8 17.2-28.9 35.3-57.4 56.9-83.2 6.2-7.4 21.8-27.5 32-26.1 4.7.6 8.6 4.8 6.4 9.5-23 21-44.9 44.7-62.7 70.3-3.2 4.6-15.2 22.2-15.6 26.5-.5 5.1 11.8 29.8 15 35.6 7 12.8 29.4 46.8 40.5 54.5 2.8 1.9 7 3.2 10 5 77.7 46.7 153.2 90.1 243.1 109.9 13.1 2.9 37.4 9.1 49.8 9.2 11.3 0 33.7-5.7 45.6-8.2 92.6-19.7 168.3-62.9 248.1-110.9 3.1-1.8 7.2-3.1 10-5 11.1-7.7 33.4-41.8 40.5-54.5 3.2-5.8 15.5-30.5 15-35.6-.4-3.9-10.7-19.3-13.6-23.5-18.3-27-40.8-51.3-64.7-73.3-2.5-9.2 6.9-10.8 13.8-7.8 10.7 4.6 40.4 44.2 48.5 55.5 11.9 16.7 22.3 34.6 33 52.1-7.3 37.7-32.2 67.9-49.8 100.8 0 .8 8.5 10.4 10 12 6.6 7.2 23.4 25.6 30.5 30.5.8.6 1 1.4 2.5 1l55.8-135.3c-15.4-20.6-35.6-37.7-50.1-58.9-8.6-41-22.6-83.1-28.6-124.4-.7-4.8-3.1-20-1.9-23.7.6-2.1 8-5.5 9.8-5.7 4.6-.4 10.8 5.1 11.9 9.6 8.1 44.1 13.6 92.9 27.6 135.4 9.1 27.6 33.8 39.8 52 60 4.9 5.4 6.6 7.2 4.8 14.8-2.1 8.6-9.2 23.2-12.8 32.2-16.7 41-35.5 81.7-54.5 121.5-2.5 2.1-18.6 9-21.4 8.6-4.6-.7-13.3-13.3-18.5-15-3.1 22.3-7.1 44.7-11.8 66.7-29.2 38.3-55.4 79-82.3 118.7-10.2 4.1-22.2 12.3-32.2 15.8-1.5.5-3 1.3-4.6.7l-24.6-43.9c-1.1.5-16.2 15.9-17.3 17.7-6.5 10.1-3.8 21-14.2 29.8-22.9 19.1-72.2 40.2-100.7 51.3-18.6 7.3-34.3 14.2-54.7 14.3-24 .2-49.5-11.4-71.5-20.6-23.2-9.8-67.3-29.4-85.5-45.5-10.3-9.1-7.3-19.2-13.7-29.3-1.1-1.7-16.2-17.1-17.3-17.7L812 1674c-1.6.6-3.1 0-4.6-.7-10.1-3.5-22-11.7-32.2-15.8-26.9-39.8-53.1-80.4-82.3-118.7-4.7-22-8.6-44.4-11.8-66.7-5.2 1.7-14 14.4-18.5 15-2.8.4-18.9-6.5-21.4-8.6-19-39.8-37.8-80.5-54.5-121.5-3.6-8.9-10.8-23.6-12.8-32.2-1.8-7.6 0-9.4 4.8-14.8 13.4-14.9 37.6-30.5 47.2-47.8 7.3-13.1 12.4-41.8 15.8-57.2 4.5-20.4 8.5-41.2 12.2-61.8 1.5-8.5 1.8-19.4 3.7-27.3 1.2-5 7.2-11.3 12.6-10.9zm664.9 411.9 14.2-77.4c-.2-3.8-5.4-5.5-8.1-8-2.9-2.7-5.4-5.9-8.6-8.3-82.7 31.3-155.3 82.7-242.3 103.3-57 13.5-94.2 11-150.2-4.8-69.9-19.7-131-59.2-197.1-87.9-6-2.6-20.1-9.4-25.7-10.4-2.8-.5-7.7 6-10 8.1-2.1 2-7.6 4.5-8.1 7l14.2 78.3c17.8 1.1 35.6 3.8 53.4 5.1 9.3.7 42.4-.4 47.8 3.9 8.5 20 14.6 41 23.2 61 2.8 6.5 6.2 15.2 9.9 21.1 5.4 8.7 15 14.9 20 23.1 5.6 9.2 8.1 23.6 15.5 31.5 5.1 5.5 21.6 15 28.8 19.2 31 18.4 83.7 44.6 119.8 42.2 30.1-1.9 87.2-31 113.4-47.6 5.2-3.3 16.2-9.8 20.1-13.9 7.2-7.5 10.4-24.2 16.1-32.9 2.7-4.1 8-7.8 11.3-11.7 8.3-9.7 11.9-17.5 16.9-29.1 9-20.6 15.3-42.4 24.2-63 14.6-5 32.2-2.8 47.8-4 17.8-1.3 35.6-4.1 53.4-5.1v.3ZM801 1649c5.8-16.3 16.4-30.6 24.8-45.6-4.3-11.7-7.5-23.9-12-35.6-2.2-5.8-7.4-19.7-10.9-24.1-10.8-13.6-69.6-12.5-86.9-16.6-.5 1.7.7 2 1.5 3 13.4 17.3 27.7 33.6 40.3 51.7 15.2 21.9 28.4 45.1 43.2 67.3Zm531-122c-17.3 4.1-76.1 3-86.9 16.6-3.5 4.4-8.6 18.3-10.9 24.1-4.5 11.7-7.7 23.9-12 35.6 8.4 15.1 18.9 29.3 24.8 45.6 14.7-22.2 27.9-45.4 43.2-67.3 12.6-18.1 26.9-34.3 40.3-51.7.8-1 1.9-1.3 1.5-3Z" class="outline" data-original-prefix="outline"/><path id="outline-jaw1" fill="#000000" d="M785.7 1376.3c8.1 7.2 8.5 18.5 4.1 27.9-5.2 10.9-19.3 10.7-26.7 2.3-15.1-17.3 3.6-47 22.7-30.2Zm-12 4.9c-10.7 1.7-7.7 23.9 4.7 21.8 10.2-1.7 4.4-23.3-4.7-21.8" class="outline" data-name="outline-jaw" data-original-prefix="outline"/><path id="outline-jaw2" fill="#000000" d="M1262.3 1376.3c22.7-20.1 40.5 23.7 16.9 34.4-21.7 9.8-31.5-21.5-16.9-34.4m10.4 4.9c-10.5 1.7-12.6 25.9 1.3 21.4 10.1-3.2 8.1-22.9-1.3-21.4" class="outline" data-name="outline-jaw" data-original-prefix="outline"/><path id="outline-jaw3" fill="#000000" d="M723.7 1356.2c15.6-2.8 28.9 19.5 15.8 29.8-10 7.8-24 0-26.8-11.2-1.8-7.1 3.5-17.2 11-18.6m9.1 22.6c6.5-6.5-8.3-22.1-11.4-7.8-1.5 7.3 7.1 12.1 11.4 7.8" class="outline" data-name="outline-jaw" data-original-prefix="outline"/><path id="outline-jaw4" fill="#000000" d="M1317.7 1356.2c14.2-2.9 23 13.6 14.3 25.3-12 16-34.6 4.8-27.5-13.5 1.7-4.3 8.7-10.8 13.2-11.8m-2.5 22.6c4.3 4.3 12.9-.5 11.4-7.8-3-14.3-17.9 1.3-11.4 7.8" class="outline" data-name="outline-jaw" data-original-prefix="outline"/>
    </g><g class="trait-group" data-category="mouth" id="mouth-OG">
      <path id="fill-muzzle" fill="#ffffff" d="M1125 1622c-3.4-2.3-6.5 6.6-8 8.5-3.7 4.7-17.7 19.6-23.5 19.5-2 0-5.3-4.8-7.8-6.2-7.4-4.3-19.1-5.3-26.8-1.4-4.2 2.2-10.1 9.4-13.4 9.7-7.7.5-10.7-10.3-17-11.2-2.3-.3-9.7-.3-11.5.6-3.2 1.4-8.9 10.8-13.7 11.3-3.1.3-10.3-8.4-13.4-10.2-6.5-3.8-16.5-3-23.5-.6-4.3 1.5-10.5 8-12.8 7.8-5.8-.5-18.9-14.5-22.7-19.3-1.6-2-2.1-4.7-3.5-6.4-5.4-6.8-5.6 3.9-7.6 7.3-9.4 15.7-21-13.3-24.8-18.9-2.4-3.5-7.2-5.7-10-9-9.7-11.6-6.4-27.5-10.3-40.7-1.7-5.8-11.6-19.5-14.9-27.1-10-22.6-12.3-43.5-10.8-68.2-2.4-7.1.4-27.9-4.5-32.5-2.1-2-6.1-2.7-8.5-4.5-5.9-4.5-12.8-32.2-11.9-39.8 1.1-9.4 12.1-25.4 18.4-32.6 12.3-14.3 37.4-24.6 56-26 4.8-.4 28.1 1.1 29.5.5s5.1-5.4 7.1-6.9c8.7-6.5 17-9.5 27.7-11.3 3.7-.6 7.6.4 11-1 3.1-1.3 11.4-13.2 17.3-16.7 10.5-6.1 38.9-5.7 51.5-4.6 5.7.5 13.4 3.6 18 7 3.7 2.8 11.2 13.2 13.8 14.2 3.3 1.4 7.3.4 11 1 8.9 1.5 16.5 3.9 24.1 8.9 2.7 1.8 9.7 8.9 10.7 9.3 1.3.6 23.9-.9 28.5-.6 16.1 1.1 33.8 7.8 46.8 17.2 12.1 8.8 30.2 32.8 28.7 48.3-.4 4.3-7 26.5-9.2 29.8-3.6 5.6-10.6 4.5-13.7 10.3l-3.2 43.8c2 20.7-2.7 38.4-11.1 56.9-3.2 7-11.5 17.9-13.4 23.6-4.4 13-.9 27.8-9.6 40.4-2.9 4.2-8.2 6.2-10.8 10.2-1.6 2.3-2.2 5.7-3.8 8.2-2.8 4.2-10.6 16.7-16.2 14.9-7.1-2.2-6.8-12.8-8-13.6h-.2Z" class="fill" data-original-prefix="fill"/><path id="fill-teeth16" fill="#ffffff" d="M995.3 1525.7c11 9.5 17.2-6.6 23.2 6.3 6.5 14.1 3.7 38.4-1 52.9-.7 2.1-7.1 16.9-8 17.1-1.2.3-3-.4-4.2-.9-12-5.1-31.7-18.1-39.1-28.9-10.6-15.5-6.4-42.9 6.8-55.8 1.3-1.3 9.1-5.6 10.4-5.3 1.5.3 9.4 12.3 12 14.5h-.1Z" class="fill" data-original-prefix="fill"/><path id="fill-teeth15" fill="#ffffff" d="M1039.1 1601.9c-.8-.5-7.5-16.1-8.1-18.4-4.1-13.8-6.5-36.9-1.3-50.3 4.6-12 8.1-4.3 15.8-4.2 9.5.2 17.3-18.2 20.8-17.9 1.2 0 8.5 4.2 9.7 5.3 6.3 6.2 12.2 22.3 13 31 2.4 28-20.3 39.6-41.3 50.7-2 1.1-5.7 5.5-8.6 3.7Z" class="fill" data-original-prefix="fill"/><path id="fill-teeth14" fill="#ffffff" d="M904 1461c0 2.2-1.1 3.8-.8 6.2.2 1.8 7.1 22 8 23.1 3.9 5.1 11.2 3.2 16.7 3.8 4.9 13.5-4.2 23.8-8.6 35.6-2 5.3-8.7 33.1-12.8 34.2-1.8.5-6.8-9.1-8.3-10.7-10.3-23.9-15.3-58.4-2.6-82.2.6-1.2 7.1-11.6 8.4-10.1Z" class="fill" data-original-prefix="fill"/><path id="fill-teeth13" fill="#ffffff" d="M1144 1564c-2.1 1.4-6.1-7.1-6.8-8.7-3.2-7.9-4.4-17.4-7.5-25.5-4.3-11.6-13.6-22-8.6-35.6 4.8-.6 12.3 1.2 15.9-2.9 1.3-1.5 8.1-20.6 8.6-23.2.3-1.8-1.4-7 .9-6 6 2.7 13.7 26 14.4 32.6 1.4 13.9-2.9 45-9.3 57.4-.8 1.5-7 11.6-7.6 11.9" class="fill" data-original-prefix="fill"/><path id="fill-teeth12" fill="#ffffff" d="M1093.1 1644.9c-2.9-1.8-2.4-28.5-2.1-33.4.7-10.5 5.2-31.2 8.9-41.1 1.1-2.8 2.4-1.4 4.2 0 12.2 9.6 21.1 44.8 12.8 57.9-1.9 3-15.6 14.9-18.9 16.1-1.3.5-3.8 1.1-4.8.4Z" class="fill" data-original-prefix="fill"/><path id="fill-teeth11" fill="#ffffff" d="M949 1569c5.5 22 11.1 44.4 9 67.5-.5 5.2-.9 10.3-7 8-3.4-1.3-17.5-13.4-19.5-16.5-5.8-9.2-1.4-31.3 2.7-41.2 1.2-2.9 11.3-21 14.8-17.7Z" class="fill" data-original-prefix="fill"/><path id="fill-teeth10" fill="#ffffff" d="M881.7 1478.3c3.1 2.8-2.7 21-2.8 26.2 0 5.9 2.6 12.4 3.1 18 .2 2.1.7 24.5-.5 24.5-1.5.2-2.1-1.1-2.9-2.1-15.6-18.9-34.8-51.8-17.4-75.3 6.5-8.8 10.5 2.1 14.9 5.8 1.8 1.5 4.9 2.1 5.7 2.8Z" class="fill" data-original-prefix="fill"/><path id="fill-teeth9" fill="#ffffff" d="M1185.7 1467.3c1.9 1.6 7.8 13.7 8.2 16.2 3.2 20.7-9.8 47.3-23.9 61.9-.9 1-1.3 1.9-3 1.5.5-8-.7-16.6 0-24.5.4-5.4 3.1-12.3 3.1-18s-6.1-23.4-2.8-26.2c.6-.6 2.5-.6 3.8-1.7 3.4-3 10-13.1 14.7-9.3Z" class="fill" data-original-prefix="fill"/><path id="fill-teeth8" fill="#ffffff" d="M1018 1613v16.5c0 .9-10.8 13.2-11.9 14.1-6.3 4.8-8-2.6-10.6-5.5-5.5-6-17.9-.4-24.4-5.6-1.2-.9-4.1-8.8-4.1-9.9v-22.5c12.9 1.7 28.3 17.5 41.4 15.9 3.5-.4 6.1-3 9.6-2.9Z" class="fill" data-original-prefix="fill"/><path id="fill-teeth7" fill="#ffffff" d="M1031 1613c6.3 1.3 9.1 4 16.1 2.6 10.6-2.2 24.3-14.8 33.4-15.6 2-.2 1.4 0 1.2 1.3-.8 6.5 2.4 27.5-4.4 31.6-7 4.2-18.8-.3-23.4 4.6-2.1 2.2-3.6 8-8.4 7.6-1 0-14.6-13.5-14.6-14.6V1613z" class="fill" data-original-prefix="fill"/><path id="fill-teeth6" fill="#ffffff" d="M1102.5 1494c3.3-.8 4.5 6.9 5.3 8.7 5.6 12.1 13 24.8 13.3 38.8.2 9-16 29.8-21.3 16.2-4-10.4-4.1-44.8-1.1-55.5.4-1.6 2.4-7.9 3.8-8.2" class="fill" data-original-prefix="fill"/><path id="fill-teeth5" fill="#ffffff" d="M937.3 1559.7c-1.9-1.6-7.8-10.5-8.5-13-3.6-12.1 6-31.3 11.4-42 1.6-3.1 3.3-14.7 8-7.4 5.5 8.5 4.3 41.5 2.7 52.1-1.2 7.7-3.6 18.7-13.6 10.3" class="fill" data-original-prefix="fill"/><path id="fill-teeth4" fill="#ffffff" d="M917 1563c-1.8 13.4 2.9 27.5 2 40.5-.6 9-4.4 18.4-5.5 27.5-6.2-6-10.5-16.1-11.4-24.6-.5-5.2.7-24.7 2.4-29.3.6-1.6 10.5-16.2 12.4-14.1Z" class="fill" data-original-prefix="fill"/><path id="fill-teeth3" fill="#ffffff" d="M1135 1631c-.4-8.9-4.4-17.8-5.1-26.5-1-13.8 3.7-27.6 2-41.5 2.2-2.4 11.9 13 12.5 15 2 6.6 2.6 27.4 1.2 34.3-1.3 6.3-5.5 14.9-10.8 18.7z" class="fill" data-original-prefix="fill"/><path id="fill-teeth2" fill="#ffffff" d="M1154.1 1604.9c-3.4-2-5.1-22.3-3.9-26.2.8-2.6 8.9-5.2 10.2-8.8l5.1-10.9c3.8 3.4 5.1 7.2 4.3 12.2-.7 4.2-5.4 22.7-6.9 26.2-.9 2.2-6.1 9-8.8 7.5" class="fill" data-original-prefix="fill"/><path id="fill-teeth1" fill="#ffffff" d="M885 1559c-.3 3.7 1.7 9.4 4 12.2s9.5 5.2 10 8.3c-2 8.4 1.6 19.2-5.7 25.4-3.6-1.1-6-4-7.4-7.4s-6.5-23.6-6.9-27.1c-.5-4.2 1.2-10.6 5.9-11.4z" class="fill" data-original-prefix="fill"/><path id="shading-mouth2" fill="#aaaaaa" d="M918 1443.5c.8 5.3 5.6 13.8 10.1 16.9 11.5 8.3 16.2-.3 22.4-9.4 2.5 5.4 3.4 11.5 6 17 1.4 2.8 5.7 12 7.5 5.5l4-11.5c1.6 7.5 6.3 15.4 11.5 21 4.3 4.7 18.8 15.4 24.6 9.6 2-2.1 8.3-17.9 10.8-22.2 1.2-2.2 7.8-13.8 9.7-13.3 1 .2 8.5 13.2 9.7 15.3 2.4 4.5 7.3 17.7 9.8 20.2 3.8 3.8 10.5.4 14.4-1.8 10.5-5.9 18.5-17.2 21.7-28.8l4.2 12.3c.3 1.2 1.9 2.4 2.8 1.7.6-.4 5.8-11.3 6.5-13 .8-2 2.8-12 4-12 6.8 10.7 12.9 18.4 24.5 7.5 8.6-8 9.3-23.8 7-34.5 3.5-3.1 21.1 16.1 26.6 16.9 9.1 1.4 17.6-11.8 19-19.9 3.5-20.5-12.9-39.2-30.9-46.2l-12.7-4.8c15.4 0 28.2 2.9 41.1 11.4 4.8 3.1 12.2 10.9 17.6 11.4 6.2.6 10.1-4.1 10-10-.4-19.3-25.8-38.1-39.7-48.8 15.4 2.4 34.6 11.8 45 23.5 7.8 8.8 19.1 25.1 19.1 37s-6.4 28.5-9.2 32.8c-3.3 5.3-11.7 5.4-13.4 10.6-.9 8.1-2.1 16.4-2.5 24.5-1.5 29 1.4 45.2-10.8 73.2-3.6 8.2-12.7 20.4-14.9 27.1-4.2 12.8-.7 26.4-9.1 38.9-3.2 4.8-8.4 6.7-11.2 10.8-1.7 2.5-2.4 6.1-4.2 8.8-4.5 6.7-14.6 23-21.6 8.9-1.6-3.3-1.3-12.9-6.7-6.2-1.4 1.7-1.9 4.4-3.5 6.5-3.7 4.7-17.7 19.6-23.5 19.5-2.2 0-4.5-4.1-6.6-5.4-7.9-5-21.1-6.3-29.2-1.4-7.3 4.4-9.5 13.6-18.1 6.8-8.6-6.7-6.4-10.8-20.1-9-5.6.7-11.4 12.6-16.9 12.1-2.8-.2-11.4-11.1-18.5-12.6-6.3-1.3-17.5.7-23 4.2-2.6 1.7-4.1 5.6-7.5 5.4-5.7-.3-19.8-15.8-23.6-20.5-1.2-1.5-4.4-10.6-7.1-6.9-2.5 3.4-.6 9.9-7.2 12.7-7 3-14.9-11.2-18.1-16.4-1.2-1.8-1.2-4.3-2.6-6.4-2-3-6.8-5.4-9.5-8.5-10.4-11.9-6.7-27.7-10.7-41.3-.8-2.6-5.6-8.5-7.3-11.7-18.4-35.7-16.4-45.6-18.4-84.6-.4-7.7-.6-20.7-2.2-27.8-1.5-6.2-11.1-6.1-14.2-11.8-3.4-6.1-9.3-29.6-8.6-36.4 1.2-10.3 16.2-31.2 24-38 10.5-9.2 26.2-16.5 40-18.5l-21.5 17c-7.2 6.4-26.8 32-14.8 39.9 9 5.9 16.7-4.5 23.7-9.1 12.7-8.4 25.3-11.8 40.7-11.8l-17.3 7.2c-18 9.4-33.1 32.7-22.1 52.8 1.7 3.1 8.6 10.4 12 11.1 9.1 1.7 20.7-15.4 29.5-18 .6 6.4-.9 14.3 0 20.5zm-37.1 40.6c-12.3-.5-17.1-20.2-22.8 1.5-3.4 13 1.2 26.4 9.4 36.5 1.5 1.8 12.7 13.1 13.9 12.9.8 0 2.5-2.3 2.8-3.2 2.9-7.1-3.2-12.2-4.2-19.2-1.5-9.8 0-18.7.9-28.4Zm301.8-8.9c-3.2.8-6.3 6-8.8 7.3-2.1 1.1-7.2 1-7.8 3.2-.5 1.7 3 10.8 2.9 14.8 0 3-1.5 13.9-2.2 16.8-.9 3.6-3.9 5.7-3.9 10.2s1.4 7.1 3.7 7.4c1.9.3 15-14.4 16.8-17 5.7-8.5 9-18.8 7.3-29.2-.5-3-4.4-14.5-8-13.6Zm-284.8 10c-4-2.3-6.5 9.9-6.8 12.5-1.2 10.5 3 38 8.7 47.1 1.9 3 5.4 6.9 9.2 7.3 3.7-15.6 12.6-29.2 21-42.5-2.3-.4-1.7-2.9-2.7-3.5-1.5-.9-7-1.9-9.7-3.1-4.7-2.2-12-7.7-15.6-11.4-1.2-1.2-3.8-6.2-4.2-6.3ZM1139 1552c8.3-2 11.9-12.2 13.9-19.6 3.1-12.1 6.1-33.4 1.1-44.8-3-6.9-5.8 1.7-8.3 4.1-3.9 3.8-11 9.3-16 11.6-2.5 1.1-7.8 1.8-9.1 2.7-.7.5-.5 1.8-1 2.7-.3.4-1.7.4-1.6.9 0 1 7.9 12.3 9.2 14.8 4.8 8.8 9.1 18 11.8 27.7Zm-197.7 5.7c8.1 8.1 9.5 0 10.5-7.3.8-5.6 2.7-20.6 1.7-25.4-3.6-17.2-21.3-15.9-21.6 3.6 0 6.8 4.6 24.3 9.4 29.2Zm161.5-44.5c-5 1.3-8.5 9.3-8.8 14.2-.2 4 2.4 28.5 3.8 31.3 2.5 5 7.5 0 9.8-2.7 6.8-8.3 11.6-30.7 4.5-39.5-2.7-3.3-4.8-4.4-9.2-3.3zM1023 1544c-.7-.7-.8-7-5.1-9.4-8.9-5-21.8-.8-32-4-10.4-3.3-9.4-13.1-16.1 1.8-2.9 6.4-9.1 24.4-6.3 30.7 1.1 2.4 17.8 15.6 21.2 17.8s18.2 11.7 21.1 10c3.1-5.6 9.3-9.5 12.6-14.9 1.8-2.8 4.1-11.5 4.6-11.9 1.6-1.7 1.7.5 2.1 1.4 1.6 3.6 2.1 6.8 4.5 10.5 3.3 5.2 9.2 9.3 12.4 14.6 3.1 1.9 15.5-5.9 18.9-8.1 4.5-2.9 22.9-17 23.9-21.1 2.2-9.7-6.6-28.3-10.9-37.2-4.9 1-7.8 5.2-12.7 6.7-9.2 2.8-28.2-1.6-33.7 6.3-.9 1.2-2.6 8.9-4.5 7zm-136 18c-.7-.6-3.5 0-4.5.9-6 6.2 2.4 31.6 14.6 27.6 4-1.3 3.8-9.4 2.8-12.9-1.1-3.9-7.2-4.1-9.8-7.2-2.1-2.5-2.7-8.2-3-8.5Zm274.1 0c-.3.3-.9 6-3 8.5-2.6 3.1-8.7 3.3-9.8 7.2-1 3.4-1.2 11.6 2.8 12.9 13.4 4.4 20.2-24.5 14.1-28.1-.9-.5-3.5-.9-4-.4Zm-216.4 7.2c-1.5.4-5.1 4.6-6 6.1-3.4 5.6-5.6 32.3-4.8 39.3 1.3 10.9 15.2 18 19.5 3.5 1.7-5.6 2.6-21.4 2.5-27.6 0-1.1-5.8-19.7-6.5-20.5-1.2-1.4-3.2-1.3-4.8-.8Zm153.3-.1c.2 6.6-5.4 14.7-6 20.6-.5 4.5 1 25.3 2.4 29.4 4.2 12.1 16.9 7.3 19.1-2.9 1.1-5.2 0-16.8-.6-22.6-1-9.7-1.7-25.5-14.9-24.5m-180 1.9c-20.5 3.8-17 28.7-9 43 4 2.9 10.4-17 10.7-19.8.9-7.5-2.9-15.5-1.8-23.2Zm218 43c2.5 1.8 7.2-9.1 7.7-10.8 3.9-12.8 1.6-30.1-13.7-32.2.5 7.4-2.8 16.2-1.9 23.4.3 2.7 6.4 18.5 7.9 19.6m-148.2 10.2c1.4.8 4.8 8.6 9.5 11 11.1 5.8 20.2-6.4 20.7-16.7.8-13.7-7.2-7.7-16.5-8.6-8.4-.8-15-4.8-21.8-9.2-5.5-3.5-13.6-14.6-14.7-1.4-.5 5.1 1.4 7.5 1.8 11.2s-2 5.9.5 10.7c4.8 9.3 18 1.3 20.7 2.8zm93.1-31.1c-2.1-1.5-19.7 12.7-23.9 14.4-2.3 1-7.9 2.3-10.5 2.5-10.5.9-18.8-5.4-16.4 11.4 1 7.3 7.9 15.8 16 15.1 9.4-.8 11.9-11.6 14.6-12.4 4-1.3 12.3 5.7 18.9-1.1 4.3-4.4 1.3-8.4 1.5-12.5 0-2.3 1.9-4.8 2-8.1 0-1.9-.8-8.5-2.2-9.4Z" class="outline shading" data-original-prefix="shading" opacity="0.5" style="opacity: 0.5"/><path id="shading-mouth1" fill="#aaaaaa" d="M1041 1343c6.1.5 12.7-1 17.5-5 1.5-1.3.9-3.7 2.8-2.9 10.1 7.9 37.9 17.4 43.8 28.2 3.6 6.5 4.6 17.5-1.8 22.6-5.6 4.5-20.8 10.8-28 15-4.9 2.8-9.7 6.6-14.7 9.3-7.4 4.1-25.5 14.5-32.6 16.4-2.9.8-5.2.8-8.1 0-14.5-3.8-42.2-22.5-56.3-30.7-6.2-3.6-21.2-9.1-23.2-15.8-5.5-18.4 15.7-28.3 28.7-35.4 2.3-1.2 15.5-8.6 16.5-8.7 2.9-.3 4.2 2.9 6.7 4.2 4.2 2.3 10 3.2 14.7 2.8-.3-5.1-3.3-11.3-1.8-16.3.5-1.6 12.5-13.9 14.5-14.4 3.9-1 8.2-.3 11.6 1.9 1 .7 10.8 11.1 11.2 11.8 2.1 5-1.2 11.8-1.5 17" class="outline shading" data-original-prefix="shading" opacity="0.5" style="opacity: 0.5"/><path id="outline-mouth3" fill="#000000" d="M888 1333c-.7 1.9-2.2 2-3.8 2.7-12.3 5.2-24 8.3-33.2 18.8-6.6 7.6-18.9 26-18 36 .3 4 7.1 25.8 9.2 28.8 2.7 4 6.1 4.9 10.8 4.7-1.4-9 4.2-18.1 9.6-24.9 2.2-2.8 21.9-22.6 24.4-20.1-1.7 6.5-8.8 10.4-13 15.5-8.1 10-12.3 23.6-9.5 36.5 1.2 5.4 11.2 26 15 30 .6.7 7.1 6.3 7.5 6.5 2.4 1.2 5.6-3.8 6.5-5.5 2.5-4.3 3.1-9.7 5-14 4.4-10.2 9.3-18.3 18.5-25-5 13.9-9.5 44.6 1.5 56.1 4.6 4.8 11 2.5 15 5.1 2.1 1.3 2.5 5.4 4.2 5.8s7-3.1 9.4-3.5c9-1.4 12.6 16.9 18.7 17.4 2.5.2 10.2-12 18.4-9.4 5.5 1.8 19.2 24.8 24.4 23.6 5.8-5.9 3.6-12.3 5-19 1.5-7.6 8.3-12.6 9.4-22.6.8-7.2-1.7-26.6-4.7-33.1-1.1-2.3-5.5-10.7-6.8-12.2-3.4-4-15-9.2-19.8-6.1l-4.2 11.1c-4.8-4.4-9.5-9.2-14.5-13.5-3.7-3.2-10-6.8-13-9.9-4-4.2-15.6-27.9-15.7-33.2 0-6.8 17.5-22.4 21-29 5.4-4.1 29.2-2.8 35.7.2 8.4 3.8 12.4 12.1 18.5 17.5 5.2 4.5 2.5-1.7 2.5-3.6s.9-3.2.8-4.8c-.2-5.4-6.7-9.2-9.9-13.1-2-2.4-5.6-6.2-7-8.2-.9-1.3-4.9-7.8-5-8.8-.2-2.6 9.1-11.7 11.5-12.4 3.6-1-.5 5.5-.5 6.6-.4 5.2 5.9 4.1 9.3 5.6 1.2.5 3 2.7 3.2 2.7s2.4-2.7 3.8-3.2c7.8-3.2 11 1.2 6.8-11.7 1.6-1.7 12.5 9.1 12.9 11.7.6 4.5-17.6 23.1-21.1 27.5l-.8 12.7c1.7.4 2-.7 3-1.5 8.7-6.7 12.6-16.8 24.9-19.1 5.5-1 25.6-1.3 29.8 1.8 3.4 6.7 20.4 21.8 21 28.4.4 4.3-10.8 27.3-13.9 31.7s-9.8 7.6-13.8 11.2c-5.3 4.6-10.3 9.8-15.5 14.5-2.2.9-1.4-5.6-2.2-7.7-3.4-8.6-19-1.6-22.7 3.8-.7 1-7.1 13.9-7.3 14.7-2.7 12.8-5.5 27.3-.2 39.8 1.5 3.5 4.6 6.8 5.8 10.2 2.5 7.2-.5 15.2 5.8 21.2 9.4-2.8 19.1-24.9 27.9-24 5.2.5 13.2 10 14.9 9.8 5.8-.5 9.3-18.7 18.7-17.4 2.4.3 7.6 3.9 9.3 3.4s2-4.8 4.8-6.1c3.8-1.8 9.4-.4 13.3-3.7 11.5-9.7 8.1-43.1 2.5-56 1.6-1.7 11.3 10.4 12.4 12.1 5.1 7.8 6.1 15.5 9.7 23.3 1 2.1 4.8 9.8 7.8 8.2.4-.2 6.9-5.9 7.5-6.5 6.8-7.5 16-30.4 15.4-40.5-1.3-22.7-10.7-22.7-21.5-37.5-5.3-7.2 2.8-2.4 6 0 11.8 8.6 28 25.5 26.5 41 11.6 1.1 13.6-11.4 16.3-20.2 4.6-15.6 5.3-18.8-3.1-33.4-8.2-14.3-16.4-22.7-31.5-29.5-5.8-2.6-13.2-3.6-17.7-7.8 15.9 1.8 34.5 6.4 49 13.5 8.3 15 22.1 26.8 28.1 42.9l-15.2 44.9c-.9 3.7-13 4.8-13.8 5.8-.6.8-2.2 17.2-2.2 19.4-.2 31.7 2.4 50.4-13.1 79.9-2.6 5-12 16.3-12.6 19.4-.9 4.6 0 10.4-.5 15.5-.9 8.4-5.8 16.4-6.7 23.4-.4 3.5 1.3 7.7.8 9.7s-10.7 8.6-13.2 9.9c-2.2 1.2-5.7 1.5-6.5 2-.6.4-5.2 10.6-7.2 13.2-2.2 2.8-13.6 14.5-16.9 12.4-.6-.4-5.9-11.8-7.1-13.3-2.2-2.9-2.2 2.1-3.2 3.8-4.6 7.3-24.8 27-32.8 29.2-1.7.5-3.3.7-5 .5 1.1-8.2 2.6-16.6-8-18.6-9.7-1.8-16.2 7.5-18.5 15.6-1.2 4.3-1.2 16.7-7.8 14.9-4.3-1.2-20.3-25.6-23.2-30.8-5.5 8.6-11.5 19.1-18.5 26.5-1.8 1.9-6.9 7.7-9.3 3.3-2.8-5.3-2.5-14.6-5.5-20.5-3.8-7.2-14-11.7-21.2-6.8-6.6 4.6-2.9 10-3 16.5-3.4 3.4-23.5-12.8-26.5-15.9-1.5-1.5-11.4-13-11.9-14.1-.7-1.4-.2-6.3-2.6-3.3-2.1 2.6-6 14.4-10.2 13.3-2-.6-12-10.2-13.7-12.4-2.1-2.7-6.6-12.8-7.2-13.2-.8-.5-3.8-.6-5.8-1.7-2.5-1.4-11.8-7.1-13-9-2.3-3.8.4-6.7 0-10.8-1-7.2-5.8-15.5-6.7-24.4-.5-5 .6-10.7-.6-15.4-1-3.9-7.9-9.8-10.7-14.3-10.4-16.9-15.8-37.5-16.8-57.2-.8-15.6 1.6-31.1 0-46.5-18.8 0-17.3-14.5-21.7-27.8-2-5.8-9-19.6-8.1-24.5.6-3.1 5-9.2 7-12.1 2.9-4.3 18.7-27.3 20.9-29.1 1.7-1.4 8.5-4.5 10.7-5.3 9.6-3.2 28.2-7.1 38.2-8.3v-.7Zm16 128c-1.4-1.5-7.8 8.9-8.4 10.1-12.7 23.9-7.6 58.3 2.6 82.2 1.5 1.6 6.5 11.2 8.3 10.7 4.1-1.1 10.8-29 12.8-34.2 4.4-11.8 13.5-22.1 8.6-35.6-5.5-.6-12.8 1.4-16.7-3.8-.9-1.1-7.8-21.4-8-23.1-.2-2.4.8-4 .8-6.2Zm240 103c.6-.4 6.8-10.5 7.6-11.9 6.4-12.5 10.7-43.5 9.3-57.4-.7-6.6-8.4-30-14.4-32.6-2.3-1-.6 4.2-.9 6-.5 2.7-7.2 21.8-8.6 23.2-3.6 4.1-11.1 2.3-15.9 2.9-5 13.6 4.3 24 8.6 35.6 3 8.1 4.3 17.7 7.5 25.5.7 1.6 4.7 10.2 6.8 8.7m-262.3-85.7c-.8-.7-3.9-1.3-5.7-2.8-4.4-3.7-8.4-14.6-14.9-5.8-17.4 23.5 1.8 56.3 17.4 75.3.8.9 1.5 2.3 2.9 2.1 1.2 0 .7-22.5.5-24.5-.5-5.6-3.2-12.1-3.1-18 0-5.2 5.9-23.5 2.8-26.2Zm304-11c-4.6-3.9-11.2 6.2-14.7 9.3-1.3 1.1-3.1 1.1-3.8 1.7-3.3 2.9 2.8 21 2.8 26.2s-2.6 12.6-3.1 18c-.7 7.9.4 16.5 0 24.5 1.7.4 2-.5 3-1.5 14.2-14.6 27.2-41.2 23.9-61.9-.4-2.6-6.3-14.7-8.2-16.2Zm-83.2 26.7c-1.4.3-3.3 6.6-3.8 8.2-3 10.7-2.9 45.1 1.1 55.5 5.3 13.6 21.4-7.2 21.3-16.2-.2-14-7.6-26.7-13.3-38.8-.8-1.8-2-9.4-5.3-8.7m-165.2 65.7c10 8.3 12.4-2.6 13.6-10.3 1.6-10.6 2.8-43.6-2.7-52.1-4.7-7.3-6.5 4.3-8 7.4-5.3 10.7-15 29.9-11.4 42 .7 2.4 6.6 11.4 8.5 13m58-34c-2.6-2.2-10.5-14.2-12-14.5-1.3-.2-9.1 4.1-10.4 5.3-13.2 13-17.5 40.3-6.8 55.8 7.4 10.8 27.1 23.8 39.1 28.9 1.2.5 3 1.2 4.2.9.9-.2 7.4-15 8-17.1 4.7-14.6 7.5-38.8 1-52.9-5.9-13-12.1 3.2-23.2-6.3h.1Zm43.8 76.2c2.9 1.8 6.6-2.7 8.6-3.7 21.1-11.1 43.7-22.7 41.3-50.7-.7-8.7-6.7-24.8-13-31-1.2-1.1-8.4-5.2-9.7-5.3-3.5-.3-11.2 18.1-20.8 17.9-7.8-.2-11.2-7.8-15.8 4.2-5.2 13.4-2.8 36.6 1.3 50.3.7 2.3 7.3 17.8 8.1 18.4ZM885 1559c-5.2 1.1-6.5 7.6-5.8 12.2s5.4 23.4 7 27c1 2.2 6.2 8.5 8.7 6.7 3.4-2.4 3.2-20.7 4.1-25.4-.6-3-7.8-5.5-10-8.3s-4.3-8.6-4-12.2m269.1 45.9c2.7 1.5 7.8-5.3 8.8-7.5 1.5-3.4 6.2-22 6.9-26.2.8-5-.5-8.8-4.3-12.2l-5.1 10.9c-1.4 3.6-9.4 6.1-10.2 8.8-1.2 3.9.5 24.2 3.9 26.2M917 1563c-1.9-2.2-11.8 12.5-12.4 14.1-1.8 4.6-2.9 24.1-2.4 29.3.8 8.6 5.2 18.6 11.4 24.6 1.1-9 4.9-18.4 5.5-27.5.9-13-3.8-27.1-2-40.5Zm218 68c5.2-3.8 9.5-12.5 10.8-18.7 1.4-6.9.7-27.7-1.2-34.3-.6-1.9-10.4-17.4-12.5-15 1.7 13.9-3.1 27.7-2 41.5.7 8.7 4.6 17.6 5.1 26.5zm-186-62c-3.4-3.2-13.6 14.8-14.8 17.7-4 9.9-8.4 31.9-2.7 41.2 2 3.2 16 15.2 19.5 16.5 6 2.4 6.5-2.8 7-8 2.1-23.1-3.5-45.4-9-67.5Zm144.1 75.9c1.1.7 3.6 0 4.8-.4 3.2-1.2 16.9-13.1 18.9-16.1 8.3-13.1-.6-48.3-12.8-57.9-1.8-1.4-3.1-2.8-4.2 0-3.7 9.9-8.2 30.6-8.9 41.1-.3 4.8-.8 31.5 2.1 33.4ZM1018 1613c-3.5 0-6.1 2.5-9.6 2.9-13.1 1.6-28.5-14.2-41.4-15.9v22.5c0 1.1 2.9 9 4.1 9.9 6.5 5.2 18.9-.4 24.4 5.6 2.6 2.9 4.3 10.3 10.6 5.5 1.1-.8 11.9-13.1 11.9-14.1v-16.5Zm64-13c-13.3 1.4-27.9 17.6-41.4 15.9-3.5-.4-6.1-3-9.6-2.9v17.5c4.1 2.4 11.4 14.9 15.4 14.5 5.4-.5 6.1-8.2 10.5-9.6 5.4-1.7 16.2 1.1 21-3 1-.8 4-9.7 4-11v-21.5Z" class="outline" data-original-prefix="outline"/><path id="outline-mouth2" fill="#000000" d="M1011 1292c-6.2 1-21.6 9.8-26 14.5-2.9 3.1-3.9 7.2-7.2 9.8-18.9.8-35.9 5.2-50.3 17.8-.9-.2-.3-1.9-.5-2 1.1-8.8 19.3-26.2 27.4-25 3.5.5 2.6 4.8 10 4 10.8-1.2 17.8-10.7 19.4-20.7.4-2.5-1.9-5.2 1.2-6.7 4.7-2.2 21.7 4.7 26 8.5z" class="outline" data-original-prefix="outline"/><path id="outline-mouth1" fill="#000000" d="m1122 1332-.5 3c-10.9-11.7-25.5-16-41-18-2.9-.4-6.9.7-9.5-.5-1.5-.7-4.5-7.4-6.5-9.5-3.4-3.8-14.1-10.6-19-12s-4.7-.4-8.6-2.9c4.2-4.1 21-10.8 26-8.5 3.1 1.5.8 4.2 1.2 6.7 1.9 11.3 12.7 24.5 25 19.5 4-1.6 2.6-4.3 9.2-1.6 10.8 4.4 18.3 14 23.6 23.9h.1Z" class="outline" data-original-prefix="outline"/>
    </g><g class="trait-group" data-category="eyes" id="eyes-robo">
      <path id="fill-eyes" fill="#ffffff" d="M1396 1159c-.9.9-21.4-3.8-26-1.5-.9.4-1.5 1.3-1.8 2.2l-13.4 125.1c-12.4 3.8-24.1 9.7-36.2 14.2-30.7 11.4-62.1 22.2-93 33-5.9 2.1-25.5 9.7-30.1 9.9-7.6.3-36.5-5.4-45.6-7.2-10.7-2.2-16-3.3-22.2-12.8-4.2-6.3-19.5-37.9-23-40-4.2-2.5-7.6 0-11.1 0-4.1 0-15.2-13.5-18.9-16.8-5.6-2.8-14.5-13.5-19.6-15.5-3.6-1.4-6.9.5-10.5-1.5-1.5-.9-7.3-6-8.4-7.6-5.4-7-3-11.3-15.5-9.5-5 .7-5.1 6.5-8.5 10.5-.9 1-8.3 7.7-9 8-2.8 1.3-5.9 0-9.6 1.4-7.2 3.1-17.4 15.4-23.5 20.4-1.5 1.2-13.1 9.8-13.9 10.1-3.8 1.3-8.8-.5-11.5 1.5-8.1 11.9-13.8 26.4-21.6 38.4-5.4 8.2-8.9 10.2-18.4 12.6-15.7 3.8-33.8 4.3-49.8 8.1-37.2-13.3-74.9-25.5-112.1-38.9-15.9-5.8-31.3-12.7-47.2-18.2l-13.5-125.1c-.3-.9-.9-1.8-1.8-2.2-4.6-2.3-25.1 2.4-26 1.5 2.1-11.2-18.1-29.5-18.1-37.5s6.5-17.1 8.2-20.9c17.7-39.6 44.2-73.5 67.3-109.7 2.8-2.5 10.5 2.1 16 1 4.2-.8 21.5-24 26-29 32-34.9 78.1-67.7 119.8-90.2 81-43.7 221.4-43.6 302.7-.3 41.5 22.1 88.1 55.4 120 90 6.5 7.1 12.2 15.6 18.5 22.5 4.7 5.1 6.4 8 14.1 7 3.4-.4 6.1-3.3 9.5-1.5 23.5 36.2 50.1 70.5 67.8 110.2 1.9 4.3 7.3 15.3 7.9 19.1.4 2.2.2 3-.6 5-4.3 11.1-17.4 20.8-17.2 34.3h-.2Z" class="fill" data-original-prefix="fill"/><path id="fill-eyes4" fill="#ffffff" d="M800 1304c-8.7 1.2-16.8 6-25.2 6.8-20.5-8.8-45.8-14.6-65.5-24.6-3.5-1.8-9.5-5.7-10.3-9.7-6.5-34.8-8.8-73.6-10-109 0-2.2-1-4.2-1-6.4 2.7 1.1 8.9-2.4 9.8.7 1 3.3-.2 10.7.2 14.8 2 24.8 8.2 51.2 13.5 75.5l42.8 27.2 45.7 24.8Z" class="fill" data-original-prefix="fill"/><path id="fill-eyes3" fill="#ffffff" d="M1362 1161c0 2.2-1 4.2-1 6.4-1.2 35.4-3.5 74.2-10 109-.8 4-6.8 7.9-10.3 9.7-19.6 10.1-45 15.8-65.4 24.6-8.4-.8-16.6-5.6-25.2-6.8l45.7-24.8 42.8-27.2c5.3-24.3 11.5-50.7 13.5-75.5.3-4.2-.8-11.5.2-14.8.9-3 7.2.4 9.8-.7Z" class="fill" data-original-prefix="fill"/><path id="fill-eyes2" fill="#ffffff" d="M796 1317c6.4.7 15.9-6.2 21.4-6 6.7.3 23.7 9.9 31.3 11.7 6.8 1.4 17.5-3.8 24-6.6 20.2-8.8 40.2-20.7 58.3-33.2 1 1.2-8.7 14.2-10.2 16.3-6.7 9.4-14.7 22.2-25.5 26.5-12.9 5.1-29 6.9-42.5 10-17.5-7.1-36.7-10-54.2-16.8-1-.4-2.4-.4-2.6-1.9" class="fill" data-original-prefix="fill"/><path id="fill-eyes1" fill="#ffffff" d="M1254 1317c-.2 1.6-1.5 1.5-2.6 1.9-17.5 6.9-36.7 9.8-54.2 16.8-13.6-3.1-29.6-4.9-42.5-10-10.8-4.3-18.9-17.1-25.5-26.5-1.5-2.1-11.2-15.1-10.2-16.3 18.1 12.5 38.1 24.4 58.3 33.2 6.4 2.8 17.1 8 24 6.6 7.6-1.8 24.6-11.4 31.3-11.7 5.5-.2 15 6.6 21.4 6" class="fill" data-original-prefix="fill"/><path id="fill-eyes-pupil2" fill="#ffffff" d="M1222 1222c7.6 33.3-24.8 65-57.3 45.8-3.4-2-13.9-10.2-9.1-13.7l66.3-32.1Z" class="fill" data-original-prefix="fill"/><path id="fill-eyes-pupil1" fill="#ffffff" d="m828 1222 66.3 32.1c4.8 3.5-5.7 11.7-9.1 13.7-32.5 19.2-64.8-12.5-57.3-45.8Z" class="fill" data-original-prefix="fill"/><path id="fill-eyes-rivet8" fill="#ffffff" d="M827.7 1121.2c14.4-3.3 20.3 16.6 10.2 24.2-15 11.4-25.7-20.7-10.2-24.2" class="fill" data-original-prefix="fill"/><path id="fill-eyes-rivet7" fill="#ffffff" d="M1215.7 1121.2c15.9-3.7 18.7 19.1 7.2 25.2-15.7 8.3-22.2-21.8-7.2-25.2" class="fill" data-original-prefix="fill"/><path id="fill-eyes-rivet6" fill="#ffffff" d="M903.7 979.2c9.3-2.7 14.3 12.6 2.3 16.4-10.5 3.4-9.1-14.4-2.3-16.4" class="fill" data-original-prefix="fill"/><path id="fill-eyes-rivet5" fill="#ffffff" d="M1142.7 979.2c10.6-2.2 13 20.8.6 16-8.1-3.1-8.9-14.3-.6-16" class="fill" data-original-prefix="fill"/><path id="fill-eyes-rivet4" fill="#ffffff" d="M765.7 1083.2c17.2-3.9 13.5 24.8-.2 24.9-13.5 0-10.5-22.4.2-24.9" class="fill" data-original-prefix="fill"/><path id="fill-eyes-rivet3" fill="#ffffff" d="M837.2 1025.8c-5.2-5.2 1.9-18 8.5-19.5 18.3-4.2.2 28.3-8.5 19.5" class="fill" data-original-prefix="fill"/><path id="fill-eyes-rivet2" fill="#ffffff" d="M1278.7 1083.2c16.1-3.6 21.2 26.1 4.8 24.8-11-.8-15.1-22.5-4.8-24.8" class="fill" data-original-prefix="fill"/><path id="fill-eyes-rivet1" fill="#ffffff" d="M1209.7 1009.3c5 5 8.1 19.1-2.1 17.7-5.7-.8-14.5-16-10.1-20 3-2.7 9.6-.2 12.2 2.4Z" class="fill" data-original-prefix="fill"/><path id="shading-eyes5" fill="#aaaaaa" d="m775 1119 36.5 25c3.7-.7-3.6-10 2.2-10.9 3.6-.6 17 22 24.9 1 1-2.5-.4-6.9 3.2-7.9 7.4-2.1 7.1 16.1 5.8 20.9-2.4 9-5.7 9.4-11.5 14.5-1.1 1-1.4.8 0 2 26.3 18.7 53.8 36.5 82.3 51.7 10 5.3 32.6 17.9 43.2 17.9s22.9-3.2 24-5.1c1.3-10.2 3-20.4 4.4-30.6 1.5-11.4-.6-21.5 8.6-30.4 1.2 7 1.7 14.2 2.8 21.2 1.7 10.6 2.9 33.7 18.7 25.8l1 12h6l1-12c12.1 6.1 14.7-5.5 16.7-14.8 2.3-10.6 2.7-21.6 4.8-32.2l6.2 9.8 6.4 52.1c.8 1 21.9 4.2 24.4 4.2 13.8 0 51.4-22.5 64.8-30.3 20.8-12.1 41.1-25.3 60.7-39.3 2.3-2.1-2.7-3-4-4.1-5.3-4.6-9.5-13.7-9-20.8.2-2.2 2.3-11.3 3.9-12.2 6.1-3.1 5.8 6.1 7.2 9.8 6.4 17.2 21.7-3.9 24.3-3.3 5 2-1.4 10.3 2.1 11 2.1.4 29.8-23.2 36-24l-6.3-6.7c-5.7-5.5-5.1-24.7 2.5-27.1 5.7-1.9 3.8 1.9 4.5 2.6s2.3 0 2.7.3c.6.6-1.4 10.8 6.9 12.7 9.2 2.1 11.2-6.8 13.8-6.8s3.9 6.9 5.1 7.1c1.5.2 14.5-5.3 18.1-5.8 10.8-1.6 23.6 3.5 34 6.5 19.2 5.5 38.1 12.4 57.2 18.3-4.6 5.8-10.2 10.9-15 16.5-3 3.6-12.1 16.8-14.5 18.5-3.1 2.2-10.8-.5-12.7 2.6-2.6 4.2-2.3 29.1-4.1 30.2-4.6.3-9.4.5-13.8-.9-.7 13.8-1.3 27.7-3.2 41.3-.8 6.1-3.4 24-6.8 28.2-2.6 3.1-13.1 9.3-17.1 11.9-17.1 11.1-37.2 22.6-55.6 31.5-2.7 1.3-6.5.7-3.1 3.4 4.1 3.2 11.6 3.2 12.7 8.7-5 .6-9 4.2-14.4 3.9-7-.4-15-5.4-21.9-6.8l-45.3 18.9c-5.5.4-26.8-9.2-33.2-11.9-7.9-3.4-44.2-19.3-47.6-24.4-1.1-1.7-5.6-13.8-4.8-14.7 1.5-.4 2.3.3 3.6.9 7.2 3.4 15.9 10.5 23.4 14.6 16.2 8.9 34.2 17.2 51.5 23.5 9.9-4.3 20.3-7.5 30.2-11.8 11.7-5.1 24.1-13 36.1-16.9 23.9-7.8 49.1-18.2 69.6-33.4 2.6-1.9 6.1-3.8 7.2-6.8 3.1-8.2 5-28.9 6.3-38.7 1.4-10.8 3.6-23.2 4.1-33.9.2-4.6.8-15 0-19-.2-1.2-.3-1.9-1.6-2.4-1-.3-18-1.3-19.8-1.1-25.5 3.1-66.6 31.5-89.5 45.5-31.2 19.1-58.7 37.9-91.7 54.3-16.8 8.3-22 9.6-36.9 22.1-1.1.9-1.6 2.9-2.5 3.5-2.6 1.6-10.5-.4-12 .5-.3.2 2.2 5.3-4.5 2-11.3-10.1-24.6-18-35.9-28.1-7.4-6.6-13.5-14.9-21.1-20.9-2.7 1.3-6.1-.6-8.4.4-2.7 1.2-7.2 8.9-9.6 11.4-14 14.1-31.6 24.4-46.4 37.6-2 1.2-4 0-6-.5l2-2c-3.2-.5-8.5.8-11.3-.2-1.4-.5-12.2-12.6-15.3-14.7-13.4-8.9-36.6-16.5-52-25-23.5-13.1-46.3-29.5-69.4-43.6-21.9-13.3-60-39.5-84.5-42.5-1.8-.2-18.8.7-19.8 1.1-1.3.4-1.4 1.2-1.6 2.4-.8 4.3-.3 16.1 0 21 1.4 23.2 7.2 47.7 10.2 70.8 1.8 4.5 25.6 17.9 31.1 20.9 16.5 9.1 28.4 13.3 45.9 19.1 11.7 3.9 24.4 11.9 36.1 16.9 10 4.3 20.2 7.6 30.2 11.8 16.9-6.2 34.2-14.2 50.1-22.8 8-4.3 17.2-11.6 24.8-15.2 1.2-.6 2.1-1.3 3.6-.9.7.6-3.8 13.2-4.8 14.7-2.9 4.7-38.1 20.3-45.5 23.4-6.6 2.8-28.5 12.9-34.2 12.9s-7.9-2.3-11.5-3.6c-11.8-4.4-23.1-10.6-34.8-15.3-6.7 1-15.1 6.6-21.8 6.7-4.8 0-9.7-4.3-14.5-4.8-1.3-1.7 11.6-7 12.7-7.8 3.7-2.4-.7-2.2-3.1-3.4-10.7-5.2-21-10.8-31.3-16.7-9.7-5.6-33.3-18.5-40.4-25.6-4.6-4.7-6.8-21.2-7.8-28.2-2-14-2.8-28.2-3.2-42.3-16 3.2-11.8.8-13-10.5-.3-3.2-1.9-17.2-2.9-18.8-2.3-3.7-13.3-.4-13.9-.8-.8-.5-9.2-13-11.2-15.4-6.1-7.2-12.7-14-19-21 19.9-6.8 40-14.1 60.2-19.8 9.3-2.6 20.5-6.8 30-5.5 3.6.5 16.9 5.8 18.1 5.6 3.1-.6 2.9-7.6 7.1-6.9.9.2 3.4 9 12.8 6.8 7.3-1.6 5.8-7.7 6.6-12.2.2-1.1 2.3-.2 2.9-.7.5-.4.3-6.5 6.2-1.3 8.3 7.2 4.7 27.9-6 31.6z" class="outline shading" data-original-prefix="shading" opacity="0.5" style="opacity: 0.5"/><path id="shading-eyes4" fill="#aaaaaa" d="M921.8 865.2c1.3 1.3 1.4 4.3 1.1 6-.8 4.6-8.3 15.9-10.6 21.5-8.1 20-14.7 45.3-20.7 66.3-9.6 33.5-16.9 67.6-26.5 101 16.2 7.7 32.1 16 47.7 24.8 9.5 5.4 41.2 22.6 46.2 29.8l16.2 30.3c-1.9.4-2.4-1.1-3.5-2-42.3-35.2-86-65.5-133.8-93.2-26.1-15.1-43.1-21.5-71.7-30.3-11.4-3.5-24.9-12-36-17 38-53.8 91.5-95.8 150.7-124.3 6-2.9 26.1-12.9 31.1-13.9 2.3-.5 8.4-.7 10 1zM903 883c-3-3.1-33.5 26.8-36.5 30-13.3 14.4-28.2 33.9-38.3 50.7-3.4 5.7-16.1 28.5-16.1 33.7 0 10.3 5.1 20.8 11.4 28.6 1.7-4 1.6-10.7 7.8-8.8 3.1 1 2.8 5.6 9.8 3.4 6.2-2 4.7-9.2 8.4-12.6 1.5-1.4 4.6-3.1 6-1 4.9 7.2.9 21.6-3.5 28.5l-7 8.5c7.6 3.6 10.9-7.8 13-13.4 6.7-17.8 10-36.6 15.2-54.8 9.1-31.2 18.5-62.3 29.7-92.8Z" class="outline shading" data-original-prefix="shading" opacity="0.5" style="opacity: 0.5"/><path id="shading-eyes3" fill="#aaaaaa" d="M1073 1145c-.5-1.9.7-2.8 1.4-4.1 3-6.1 7.9-14.7 11.5-20.5 8.7-14.2 32.7-26 47.5-34.5 16.2-9.2 32.8-18 49.7-25.8-12.7-44.8-22.6-90.3-36.7-134.8-5.8-18.1-10.8-36.7-21.1-53-1.8-8.2 4.2-9.5 11.1-8 5.4 1.1 26.7 11.8 33.1 14.9 58.3 28.6 111 70.2 148.6 123.4l-35.9 17c-26 4.8-51 18.1-73.7 31.3-47.4 27.7-89.6 57.4-131.8 92.2-1.1.9-1.6 2.4-3.5 2h-.2Zm152-119c1.9-5 5.9-8.7 7.8-13.7 1.3-3.5 3.2-12.3 3.1-15.8s-9.4-21-11.7-25.1c-11.2-20.2-28.9-43.6-44.7-60.3-3.1-3.2-31.6-30.8-34.5-28 10.5 29.6 19.9 59.6 28.7 89.8 5.9 20.3 9.6 41.8 17.5 61.5 1.8 4.5 5.1 13.9 11.2 9.8 2.6-1.7-1.1-2.3-1.9-3-6.1-6.1-11.3-17.8-10.6-26.5 0-1.7 2.2-8 3.7-8.4 7.5-2.3 6.2 16.9 17.8 15 3.2-.5 4.2-5.6 8.9-3.9 2.6.9 2.3 7.6 4.6 8.9v-.3Z" class="outline shading" data-original-prefix="shading" opacity="0.5" style="opacity: 0.5"/><path id="shading-eyes2" fill="#aaaaaa" d="M893 985c4.5-1.1 2.6 3.5 6.2 5.3 7.3 3.5 11.1-5.2 8.8-11.2 6.8-1.6 9.4 7.7 8.7 13.2-1.2 9.4-11.3 20.6-21.1 14.6-8.6-5.3-2.9-14.2-2.6-21.9" class="outline shading" data-original-prefix="shading" opacity="0.5" style="opacity: 0.5"/><path id="shading-eyes1" fill="#aaaaaa" d="M1139 979c-1.2 6.1 2.5 14.8 9.8 11.3 3.7-1.7 1.7-6.3 6.2-5.3 0 7.1 5.3 14.5-1 20.5-10.8 10.2-25.6-6.8-22.8-18.8.5-2.3 5-10.4 7.8-7.7" class="outline shading" data-original-prefix="shading" opacity="0.5" style="opacity: 0.5"/><path id="outline-eyes9" fill="#000000" d="M826.7 1113.2c23.5-3.8 32.1 31.9 13.2 42.2-16.7 9-31.2-8.2-28.7-24.7 1.1-7.2 8-16.3 15.5-17.5m1 8c-15.5 3.5-4.8 35.6 10.2 24.2 10.1-7.6 4.2-27.5-10.2-24.2" class="outline" data-original-prefix="outline"/><path id="outline-eyes8" fill="#000000" d="M1216.7 1113.2c27.5-4.4 29.8 43.9 2.7 44.8-23.8.8-27.1-40.9-2.7-44.8m-1 8c-14.9 3.4-8.4 33.6 7.2 25.2 11.5-6.2 8.7-28.9-7.2-25.2" class="outline" data-original-prefix="outline"/><path id="outline-eyes7" fill="#000000" d="M913.7 1000.7c-14.5 14.5-30.6-9.6-16.7-24.2 15-15.8 31.6 9.3 16.7 24.2m-10-21.5c-6.8 2-8.2 19.7 2.3 16.4 12-3.8 7-19.1-2.3-16.4" class="outline" data-original-prefix="outline"/><path id="outline-eyes6" fill="#000000" d="M1136.3 1000.7c-14.9-14.9 1.8-40 16.7-24.2 13.9 14.6-2.2 38.7-16.7 24.2m6.4-21.5c-8.4 1.8-7.5 12.9.6 16 12.4 4.8 10.1-18.3-.6-16" class="outline" data-original-prefix="outline"/><path id="outline-eyes5" fill="#000000" d="M766.8 1074.2c16.4-1.3 24.4 20.5 16 33.1-5.7 8.6-16.8 12.1-25.8 6.1-14.9-10-7.9-37.8 9.7-39.2Zm-1.1 9c-10.8 2.4-13.8 24.9-.2 24.9s17.4-28.8.2-24.9" class="outline" data-original-prefix="outline"/><path id="outline-eyes4" fill="#000000" d="M843.7 996.2c12.7-2.7 21.8 5.3 18.2 18.2-2.2 7.8-9.2 17.9-17.7 19.3-30.4 5.2-17.2-34.1-.5-37.5m-6.5 29.6c8.7 8.7 26.8-23.7 8.5-19.5-6.6 1.5-13.7 14.3-8.5 19.5" class="outline" data-original-prefix="outline"/><path id="outline-eyes3" fill="#000000" d="M1280.8 1074.2c24.7-2 29.2 45.9-1.2 41.7-21.3-2.9-20.8-39.9 1.2-41.7m-2.1 9c-10.3 2.3-6.2 24 4.8 24.8 16.4 1.2 11.3-28.5-4.8-24.8" class="outline" data-original-prefix="outline"/><path id="outline-eyes2" fill="#000000" d="M1196.7 996.2c10.9-2.2 19.5 4 24.1 13.4 6.5 13.2 3.8 26.2-13.3 24.3s-29.1-34-10.8-37.8Zm13 13.1c-2.6-2.6-9.2-5.1-12.2-2.4-4.4 4 4.4 19.2 10.1 20 10.2 1.4 7.1-12.7 2.1-17.7Z" class="outline" data-original-prefix="outline"/><path id="outline-eyes1" fill="#000000" d="M1050 1249c2.6 4.5-1.9 8.8-6 10-4-7.5-11.8-10.4-16.2-18.3-.6-1-1-3-1.3-3.3-3.8-3.4-7 6.3-9.5 9.1-3.8 4.4-11.3 6.9-12 12.5-1.3 1.2-6-4.9-7.5-6-2.7 3.9-6.1 7.2-9.5 10.5-6.8 6.5-21 20-28.5 24.5-5.8 3.4-8.8-.7-10.5.4-7.9 11.8-13.4 26.3-21.2 37.9-7.2 10.7-13.3 12.1-25.6 14.4-17 3.2-35.3 5.9-52.5 7.1-53.3-19.8-107.9-36.4-160.2-58.8L676 1163c-9 .6-17.9 2.7-26.9 1.9-1.2-4.2-1.9-10-3.7-13.8-3.3-6.9-12.4-16.4-15.5-23.5-2.9-6.7 2.2-15.8 4.9-22.2 18.3-44.5 48.3-82.8 74.2-122.9 3.8-3.9 10.9 3 14.7 3.4 3 .3 14.9-16.6 17.8-19.8 42.5-47.7 118-103.6 180.3-119.7 64.5-16.6 148.2-16.5 212.2 2.2 61.9 18.1 131.8 69.5 174.5 117.5 2.9 3.3 14.8 20.1 17.8 19.8 3.8-.3 10.9-7.3 14.7-3.4 24.3 37.3 51.1 72.5 69.8 113.2 3.3 7.1 12 24.3 9.6 31.3-2.2 6.5-13.1 18-16.2 24.8-1.6 3.6-2.2 9.2-3.4 13.1-9 .8-17.9-1.3-26.9-1.9l-13.5 126c-32.4 14.9-66.4 25.2-100 37-14.8 5.2-52.9 22.5-66 22.1-12.2-.4-33.9-5-46.7-7.3-12.3-2.3-18.4-3.7-25.6-14.4-7.9-11.7-14.3-26.8-21.2-39.3-2.9.2-5.3 2.9-8.3 2.7-7.2-.4-30.1-28.2-37.7-33.2-2.3-2.2-1.8-4.7-2-7.5-1.8-27.4-9.2-56.6-10.1-82.5-.2-5.3.4-9.8 5.1-12.9l43.8-27.2c5.4-1.5 1.3 7.3-.5 9.5-4.8 5.9-18.5 13.9-24.9 20.1-3.3 3.2-7.4 6.3-7.4 11.4 0 17.7 6.4 44.3 11.4 61.6 1.3 4.5 4.2 15.2 6.2 18.7.6 1 17.3 14.3 18.3 14.8 3.6 1.5 8.8-1.2 12.3-2.6 11-4.5 23.8-11.9 34.3-17.7 33.2-18.3 65-39.3 97.1-59.4 2.4-2.9 4.8-25.9 5.3-31.2 1.2-12.3 3.9-39.7.5-50.5-.4-1.3-5.1-11.5-5.7-11.8-1.2-.8-7.1-.2-8.9.3l-138.2 76.8c-6.2 2.3-12.4-.7-18.7-.2-.7-2.3.6-1.7 1.3-2.3 6.7-5.9 13.4-8.7 20.6-13.3 40-25.6 80.2-50.7 122.4-72.6 1.1-.4 2.3-1.9 1.7-2.8-.9-1.2-24-8.8-28.3-11.2s-6.4-5.1-8.6-9.4c-15.9-49.2-29.1-101.8-48.4-149.6-5.2-12.8-13.3-24.7-18.3-37.7-2.4-2.7-29.7-7.1-35.1-7.9-40.1-6-72.6-6-112.7 0-5.7.8-32.3 5-35.1 7.9-1.5 1.6-7.3 15-8.7 18.3-23.2 53.2-37.7 113.9-56 169.1-2.1 4.4-4.3 7-8.5 9.4s-27.4 10-28.3 11.2c-.7.9.6 2.5 1.7 2.8 42.2 21.9 82.5 47 122.4 72.6 7.2 4.7 14 7.4 20.6 13.3.7.6 1.9 0 1.3 2.3-6.7-.2-12 2.2-18.7.2-7.1-2.1-25.5-14.9-33.6-19.4-35.1-19.2-70.3-38.2-105.4-57.6-1.5-.3-7.2-.7-8.1 0-.5.3-5 9.9-5.4 11.1-4.2 12.6.3 61.5 3.5 75.9.5 2.2.8 4.6 2 6.5 32.1 20.1 63.8 41.1 97 59.4 7.5 4.2 36.8 20.6 43.3 20.8 2.7 0 20.9-13.2 21.7-15.2 1.2-2.9.2-6.1.9-9 3.5-14.9 8.3-29.3 11.3-44.7 1.3-6.9 1.4-15.1 2.7-21.3 1-4.6 4.9-5 .8-11.2-6.1-9.2-23.8-17.4-30.4-25.6-1.8-2.2-2.7-5.8-3.6-8.4h3l46.4 28.6c3 2.7 2.8 7.6 2.6 11.4-1.3 22.4-8.5 46.6-10 69-.3 4.5.2 9 0 13.5 1.4 0 1.9.3 3-.7 1.6-1.4 7.4-9.8 8.8-12 5.4-8.9 9.9-20.9 8.7-31.3 6 2.6 8.5 1.9 14.5 0-5 8.6 10.7 40.9 18 43zM916 872c-18.5 4.6-36.9 12.8-53.7 21.8-38.1 20.4-74.6 48.3-102.8 81.2-5.5 6.4-10.8 14-13.5 22 19.9 9.6 39.8 19.5 58.9 30.6l10.1 7.4c-33.3-6.7-65.4-18.5-97.7-28.8-2-.3-4.2-.9-5.8.8-12.8 25.4-27.2 50-39.3 75.7-4 8.4-14 27.4-15.7 35.4-1.5 7 5.3 14.7 5.5 22 17.5-5.6 37.5-15 56.2-10.7 8.9 2.1 17.1 7.9 25.5 11.5l49.3 29.2c-3.1-30.5-4-61.7-2.1-92.3-.3-1-13.6-8-15.9-9.2-12-6.4-49.8-21.7-56.9-29.1-5.5-5.7-6.8-17.4-3.6-24.4 2-4.4 3.5.5 5.2 2 3.5 2.9 8.5 5.9 12.5 8.2 26.4 15.2 55.8 27.5 82.4 42.7 11-.9 38-9.2 42.8-19.8 17.1-59.4 31.4-120.2 58.5-176v-.2Zm388 125c-2.6-8-8-15.6-13.5-22-22.6-26.2-50.8-48.8-80.2-66.8-24.3-14.9-50.7-29.1-78.3-36.2 1.9 3.4 3.1 9.3 5.1 12.4 7.7 12 11.8 20.1 16.9 34.1 15.5 42.2 25.6 86.5 38.5 129.5 4.7 10.6 31.8 18.9 42.8 19.8 26.6-15.1 56-27.5 82.4-42.7 4-2.3 9.1-5.2 12.6-8.2 1.8-1.5 3.2-6.4 5.2-2 3.2 7 1.9 18.7-3.6 24.4-7.1 7.3-44.9 22.7-56.9 29.1-2.3 1.2-15.6 8.2-15.9 9.2 1.9 30.7 1 61.8-2.1 92.3l51.3-30.2c7.7-3.4 15.2-8.6 23.5-10.5 18.7-4.3 38.7 5.2 56.2 10.7.3-7.3 7-15 5.5-22-1.7-7.9-11.7-26.9-15.7-35.4-12.3-25.9-26.6-50.8-39.8-76.2l-5.3-.3c-32.3 10.2-64.4 22.1-97.7 28.8l10.1-7.4c19.1-11.1 39.1-20.8 58.9-30.6zm-504 307-45.7-24.8-42.8-27.2c-5.3-24.3-11.5-50.7-13.5-75.5-.3-4.2.8-11.5-.2-14.8-.9-3-7.2.4-9.8-.7 0 2.2 1 4.2 1 6.4 1.2 35.4 3.5 74.2 10 109 .8 4 6.8 7.9 10.3 9.7 19.6 10.1 45 15.8 65.5 24.6 8.4-.8 16.6-5.6 25.2-6.8Zm562-143c-2.7 1.1-8.9-2.4-9.8.7-1 3.3.2 10.7-.2 14.8-2 24.8-8.2 51.2-13.5 75.5l-42.8 27.2-45.7 24.8c8.7 1.2 16.8 6 25.2 6.8 20.5-8.8 45.8-14.6 65.4-24.6 3.5-1.8 9.5-5.7 10.3-9.7 6.5-34.8 8.8-73.6 10-109 0-2.2 1-4.2 1-6.4Zm-534 61c-7.5 33.3 25 64.9 57.3 45.8 3.4-2 13.9-10.2 9.1-13.7l-66.3-32.1Zm394 0-66.3 32.1c-4.8 3.5 5.7 11.7 9.1 13.7 32.3 19.1 64.7-12.5 57.3-45.8Zm-224.5 29v1c.7-.3.7-.7 0-1M796 1317c.2 1.6 1.5 1.5 2.6 1.9 17.5 6.9 36.7 9.8 54.2 16.8 13.6-3.1 29.6-4.9 42.5-10 10.8-4.3 18.9-17.1 25.5-26.5 1.5-2.1 11.2-15.1 10.2-16.3-18.1 12.5-38.1 24.4-58.3 33.2-6.4 2.8-17.1 8-24 6.6-7.6-1.8-24.6-11.4-31.3-11.7-5.5-.2-15 6.6-21.4 6m458 0c-6.4.7-15.9-6.2-21.4-6-6.7.3-23.7 9.9-31.3 11.7-6.8 1.4-17.5-3.8-24-6.6-20.2-8.8-40.2-20.7-58.3-33.2-1 1.2 8.7 14.2 10.2 16.3 6.7 9.4 14.7 22.2 25.5 26.5 12.9 5.1 29 6.9 42.5 10 17.5-7.1 36.7-10 54.2-16.8 1-.4 2.4-.4 2.6-1.9" class="outline" data-original-prefix="outline"/>
    </g><g class="trait-group" data-category="right ear" id="right ear-KBDS tattoo">
      <path id="fill-ear-rt" fill="#ffffff" d="M1715.7 184.2c3.2-.7 6.5-.5 7.2 3.3 2.3 39.5-3.6 77.2-9 116-.7 4.7-.2 11.1-1.1 15.9-5 26.9-24.5 58.9-29.7 86.3-5.7 30.4-4.7 64.8-10.9 95.1-7.8 38.3-25.1 77.8-33.7 116.4l-71.9 122.1c-45.8 31.3-94.9 58.3-141.8 88.2l-35 81-84.6 77.3c-5.6 2.9-16.3-.8-22.4-2.4-27.7-7.2-48.3-18.1-70.9-35.1-16.5-12.5-27.2-20.9-37.6-39.4-6-10.5-10.9-22.9-14.5-34.5 26.8-59.3 58.7-116.4 86.8-175.2 4.9-58.7 6.7-117.8 11.4-176.5 36.5-47.5 77-92.5 114.8-139.2 47.2-35.9 96.4-69 144.9-103.1 66.1-31.9 127.9-72.1 197.8-96.2Z" class="fill" data-original-prefix="fill"/><path id="shading-ear-rt" fill="#aaaaaa" d="M1670.9 280.1c2.8 3.9-18.7 26.3-21.9 30.5-38.8 50.2-75.5 128.6-72.1 193 .8 14.1 7.3 33 2.8 45.7-3.7 10.4-14 27.3-15.4 37.7-.4 2.9.9 5.2.6 8 10-1.2 15.8-10.8 21.2-18.3 17.3-24.1 30.1-53.1 43.5-79.5 1.1-2.2 1.5-2.2 1.2.2-.8 9.2-6.8 26.8-9.7 36.3-15.4 50.2-37.8 100.7-66.2 144.8-15.3 23.7-22.2 32.4-46.1 47.9-25.3 16.4-36 17.1-63.9 25.1-14.1 4.1-56 16.5-65.5 25.5-11.9 11.1-30.7 52.3-40.3 68.7-13.5 23-27.7 45.9-43.8 67.2-3.6 4.8-10.5 10.9-13.3 15.7-5.6 10-6.8 27-11.1 37.9 7.3-4.2 14.2-10.7 20.5-16.5 12.8-11.9 26.4-25.8 38.5-38.5 12.3-12.9 33.6-33.7 41.2-48.8 7.8-15.6 13.6-33 21.3-48.7 14.9-4.8 30.4-7.3 45.1-12.9 49.9-18.9 92.7-57.3 134-90 1.4-.3 1.9 0 1.5 1.5-.9 3.2-10.1 20.8-12.2 23.8-4.2 6-36.3 28.6-44.5 34.5-29 20.7-59.7 39.2-87.9 61.1-15.7 27-28.8 55.8-43.5 83.5l-80 71c-6.2 2.7-28.5-4.8-35.8-7.2-32.1-10.8-54.1-27.3-79.9-48.6-8.9-15.6-7.9-22.5 2.7-36.2 24.9-31.8 50.6-57.8 73.4-92.6 33.1-50.5 54.8-106.4 86.2-157.8 11.1-18.2 27.9-36.1 31.3-57.7 1.4-9.1 1-19.2 1.1-28.4l54 6.5c10.6 14.3 17.8 31 26.5 46.5.8-.4 10.6-11.5 11.3-12.7 4.2-7.8 8.8-30.6 10.8-40.2 5-24.6 7-49.5 8.5-74.5 1.9-20.4-5.1-39.9 3.1-58.9 17.4-40.4 50.1-78.2 81-109l66.7-44.4c3.2-.7 24.4 7.8 25.2 8.9Z" class="outline shading" data-original-prefix="shading" opacity="0.5" style="opacity: 0.5"/><path id="outline-ear-rt2" fill="#000000" d="m1695 240-22 38.5-26.1 18.2c-.8 3.6 6.6 23.8 8.6 28.3 1.6 3.6 9 14.4 9.3 15.8.5 2.3-2.4 5.9-3.8 7.7-2 2.6-31.5 31.6-33 29.5-2.1-6.5 4.9-10.6 6.4-15 1.1-3.1-.9-32-1.6-37.4-.1-1-.6-4.4-2.4-3.6s-12.5 12.2-14.5 14.5c-2.7 3.2-19.7 25.9-19.7 28l24.3 37.6c4.3.9 8.3-6.7 11.4-9.6 4.5-4.2 25.3-22.8 29.6-23.4 3-.5 6.4.2 9.4 0 .9.8-4.4 6.8-4.8 8.7-1.8 8.2-2.5 22.9-3.2 31.8-2.2 27.4-1.5 53.7-1 80.9.1 6.7 1 20.1-2.6 25.5-12.9 9.5-26.3 18.3-39.4 27.6-2.1 1.5-5 6.6-7.6 3.4-2.2-2.8-5.1-21-5.5-25.5-.2-2.3-1.1-11-.6-12.5.7-2.4 4.7-6.5 6.1-9 .9 1.7 2.3 8.5 4.9 8 .8-.2 12.4-10.6 12.6-11.5l1-83.5c-1.7-.4-2 .5-3 1.5-5.3 5.5-14.9 19.2-20.1 22.9-.9.7-10.5 4-10.9 3.6 0-4.8-3.8-10-6.6-13.9-1.8-2.5-24.8-30.3-26.4-29.1-8.2 17.3-13.6 35.5-17 54.4 5.5 4.7 46.2 18.4 47.8 21.3 2.8 4.9.8 11.9 1.1 16.8 2.2 30.3 7.3 60 13.4 89.7 1 4.8 7.8 30.4 6.5 32.6-.7 1.3-13.1 7.8-15.7 9.8-8.8 6.6-14.2 15.2-18.9 25-6.4 13.5-5.6 24.2-18.8 33.2-2.7 1.8-24.4 14.1-25.9 14.2-1.7.1-14.9-5.3-15.4-6-.6-1 0-2.5 1-3.5 2.5-2.6 16-7.1 16.1-10l-18.1-62.5c-1.9 8.1-4.6 15.9-6.5 24-3.1 12.9-4.5 28.7-8.2 40.8-1.7 5.5-8 7.6-11.3 12.7 5.4 4.5 17 9.4 21.4 14.4 3.1 3.5-4.4 5.2-6.3 6.6-30 22.8-47.7 53.1-72.6 79.5-3.3 3.5-12.5 8.7-13.6 10.4-1.7 2.7 0 5.7-1.8 8.2-.8 1.1-17 9.8-19.7 11.3-3.2 1.7-24.5 12.2-25.9 12.1-1.3 0-1.7-.6-2.4-1.5 2.9-4.7 2.3-11.4 1.9-16.8-1.9-22.1-9.7-52-14.9-74.1-.4-1.5.7-1.8-2-1.5l-39 100.5 39.7-29.4c.8-.2 13.8 5.3 14.3 5.9 1.9 2.1-3.2 2.3-4.1 3.6s-1.2 5.3-1.6 7.1c-3.7 18.6-4.5 39.3-5.3 58.2 8.7-6.8 17.8-12.7 27.5-18 .8 1.7.9 5.7.3 7.3-.4 1.3-11.9 10-13.9 12.1-4.5 4.7-8.8 12.6-13.4 16.5-2.8 2.3-17.5 11-20.8 12.2-7.5 2.8-6.9-8.9-6.8-13.8.3-10.5 1.1-21.5 2-32 .9-9.8 3.1-19.7 3.5-29.5l-23.5 18.5-1 2 16.6 62.5c-13.1 9.4-27 17.3-42.6 22-.7-5.5 7-4.9 6.9-10.3 0-5.4-5.8-22.1-7.7-28.4-4.1-13.9-8.8-27.7-13.8-41.2-9.1 16-17.5 33.8-22.4 51.6-2.8 10-5.6 21.2-3.8 31.7.6 3.8 4.1 8.9 4.8 12.2.3 1.5 0 1.8-1.5 1.5-3.8-.7-25.2-18.5-26.7-22.3-.8-1.8-.9-3.3-.8-5.2.1-5.6 1.3-20.7 2.3-25.8.8-3.8 25.3-35.9 29.8-43.2 29.6-48.1 48-108.9 82.2-153.8 11.1-14.6 22.6-22.7 31-41 8.4-18.1 20.8-75.1 17.6-94-.7-3.8-10.8-27.6-9.8-28.7 13.4 6.2 26.8 13.4 39.3 21.2 3.9 2.5 14.9 8.7 17.2 11.8 3 4 10.2 28.6 12 35 2.4 8.5 6.3 34.7 11.4 39.5 12.7 12 29.6-12.1 35.2-21.9 27.1-47.2 34.2-98.5 26.7-152-1.3-9.2-7-27.1-6.7-35.2.2-6 16.5-39.2 20.3-46.5 22.2-41.8 45.9-63.9 79.1-95.9 9.7-9.4 21.4-23.7 31.6-31.4 6.4-4.9 14.6-7.2 21.2-11.8 3.7-2.5 26.5-23.7 29.7-20.8Zm-93 184c1.3 1 7.3-6 5.5-7.9-3.3-5-29.7-37.9-33-37.1-1.8 2.2-4.6 4.9-3.1 8 10.8 11.4 23.2 23.2 30.5 37Zm44.8 62.8c1.1-2 0-37.3.2-43.3l5-55.5c-3.2 3.8-11.4 10.8-12.1 15.4-2.2 16.5.4 41.4 0 59.1 0 2.4-1 4.5-1.1 6.9-.2 7.5.2 15 0 22.5 1.2-1.1 7.4-4.6 7.8-5.2ZM1544 478v24.5c0 3.7 3.5 16 5 20 1.3 3.7 6.8 12.2 7 14.1.8 5.4-7.7 8.8-5.9 14.8 6.5 26.2 9.3 53.3 18.9 78.6.6.5 5.1-6.5 6-7.5 2.6-2.9 10-8.1 10.1-11-8.1-39.8-12.3-80.3-12.1-120.9-8.7-6.1-18.6-10.9-29-12.7Zm-7 93c-2.3-.4-1.6.1-2.2 1.3-2.2 3.9-7 16-6.7 20.1 7.7 21.5 10.8 48.2 19 69.1.4 1 .4 2.4 1.9 2.5.6-4.7 8.2-12.2 7.8-16.2-10.5-24.4-15.3-50.7-19.8-76.8m-138 123 3-1.5c7.8-13.2 23-26.8 30.5-39.5 1.9-3.3 1.9-4 .8-7.7-2.6-8.4-16.5-31.1-27.6-24.2-6.7 4.2-11.6 26-14.3 33.5l7.7 39.4Zm23 42c2.5-5.8 6-11.2 8.5-17 5.2-12.3 10-26.5 8-40-11.9 16-22.9 32.6-33.2 49.6 3 18.6 6.8 37.2 11.7 55.4 23.6-19.1 43.3-42.3 62.8-65.3-1.4-2.2-5.7-10.8-8.2-10.5-5.3 3.7-47.2 30.1-49.7 27.9Zm-21.2 78.9-21.3-102.8c-2.5 3.4-10.4 8.3-10.6 12.4 4.4 27.5 14.2 55.5 17 83.1.2 2.4-1.2 15.2 2 14 3.6-1.3 8.5-5.9 12.9-6.7m-79.3-28.9v1c.7-.3.7-.7 0-1m-.5 2c-2.1-.5-2.3 1.1-3.2 2.3-2.4 3.1-5 7.4-7.2 10.8-1.8 2.8-12.3 19.2-10.6 20.9l5.9 1zm-14 142c2.4.4 4.4-.5 3.8-3.2l-24.3-82.8c-2.4 2.1-3 5.2-2.3 8.2 8.1 25.7 18.2 51.2 22.8 77.8" class="outline" data-original-prefix="outline"/><path id="outline-ear-rt1" fill="#000000" d="M1204 941c-4.4-.4-9.8-3.6-13.7-5.8-20.9-12-28.2-35-42.8-53.2-1.1-2.6-.7-7.5-.5-10.5.9-20.4 13.5-35.9 21.8-54.2 6-13.1 11.8-33.9 18.9-45 2.6-4 7.1-7.8 10-12 45.7-65.6 39.8-168 48.8-244.2 35.7-51.4 72.9-101.7 114.9-148.1 13.5-14.9 32.5-37.2 47.6-49.4 43.2-34.6 113.6-72.6 164.2-95.8 39.4-18.1 93.7-41 135.7-50.3 4.3-1 18.4-4.8 21.4-2.6 1.3.9 4.2 14.2 4.5 16.7 4.6 32.3.3 83.6-2.9 116.9-.9 9.4-3.1 31.6-6.5 39.5s-15.6 18.9-20 29c-9.8 22.5-20.5 85.6-16.1 109 2.2 11.6 6.5 11.2 4.1 25-11.5 64.2-42.8 133.8-77.1 188.9-32.9 52.8-80.7 93.9-134.8 124.2-18.8 10.5-28.8 10.7-42.1 29.9-15.2 21.8-20.8 40.5-31.1 63.9-5.5 12.6-19.7 19.4-29.9 28-7.3 6.2-13 13.2-19.5 19.5-6 5.7-26.7 27.8-31.5 30.5-2.3 1.4-20.6 4.8-23.6 4.5-10.9-1-38.2-12.2-49-17.1-3.9-1.8-12.1-5.3-13-9.5 25.5 10.4 46.2 11.5 70.3-2.2 26.5-15 64-49.9 79.7-75.5 5.8-9.5 22.9-46.4 24.6-56.2 1.1-6.9-2.7-5.6 5.1-11.8 33.2-26.6 76.4-40 110.3-69.7 69.6-60.8 114.1-151.8 132.5-241.5 3.7-18 2.5-30 3.4-47.5 1.9-35.7 9.5-78.4 22-112 6.8-18.1 16.8-28.7 20.7-48.3 2.5-12.5 4.6-27.1 6.2-39.9 3.1-25.3 4.5-50.9 2.1-76.4-42 13.5-81.8 33.1-120.7 53.8-46.8 25-95.6 54.9-139.9 84.1-51.1 33.7-90.6 69.4-129.4 116.5-21 25.5-42.6 53.1-60.3 80.7-13.9 63.2-10.7 129.3-22.2 192.8-13.1 26.3-23.4 54.1-36.6 80.4-5.6 11.1-14.2 23.2-19.1 33.9-2.8 6.3-15 38-15.7 43.3-3.2 23.6 13.3 50.9 28.9 67.4Z" class="outline" data-original-prefix="outline"/>
    </g><g class="trait-group" data-category="left ear" id="left ear-lop-eared">
      <path id="fill-ear-lft" fill="#ffffff" d="M594.7 816.3c-2-1.6-9.6-2.2-11.2-.3-1.2 1.5-7.1 22-8.7 26.3-5 13.4-11.3 26.2-16.5 39.5-4.5 11.3-6.1 33.4-24.5 26-7-2.8-24.8-26.8-30-34-16-22.3-30.6-47.2-45.8-70.2-39-59.2-74.4-111.4-98.8-179.2-9.6-26.8-15.4-43.5 1.9-68.6 23.3-33.7 61.6-64.8 95.5-87.5 28.2-18.9 84.4-32 118.3-39.7 24.1-5.5 52.8-14.8 76.3-6.3 34.6 12.6 112.7 57.7 134.2 86.9 11.9 16.2 14.4 48.2 16.6 68.4 4.4 40.2 2.4 79.8 10.5 119.5 5.7 28.4 15.5 63.5 25.3 90.7 9.5 26.8 26.4 56.8 33.6 83.4 2.7 9.8 2.8 21.2 5.4 31.2-20.8 30.1-50.2 57.8-83.8 73.1-4.5 2-23.1 9.9-26.7 10.3-8.6 1-32.2-11.5-40.2-16.4-30.9-19-65.2-41.9-82.2-74.8-5.7-10.9-9.1-24.8-15-35-4.8-8.3-17.4-24.5-23.9-32.1-1.8-2.2-8.6-9.9-10.3-11.2" class="fill" data-original-prefix="fill"/><path id="shading-ear-lft" fill="#aaaaaa" d="M354 607c25 10.2 48.3 24.2 72.6 35.9 13.7 6.6 30.3 16 45.8 13.1 5.7-1 44-29.1 51.4-34.6 19.1-14.1 38.4-29 55.6-45.4 2.4-2.2 16.9-16.4 17.3-17.8.2-.7-.8-13.9-1-14.6-.7-2.1-5.4-2.5-4.8-5.7l112.4-.9c3 1.7 3.4 7.8 3.7 11.3 2.7 38-6.9 75.6 4.2 112.8 21 70.3 74.6 151.5 121.2 207.8 7.2 8.7 29.7 30.3 31.3 39.7 1.2 7.2-.9 6.5-3.2 11.4-7.5 16.4-34.7 36.9-50.7 46.3-9 5.3-27.2 14.4-36.9 17.2-1.4.4-2.6.7-4 0-24.5-12.8-50.2-23.4-74.5-36.6-30.1-44.6-58.6-90.2-95.4-129.6-2.7-2.4-13.6-3.8-15.6-1.4l-48.6 89.4c-2.6 4.2-8.5-3.4-10.8-5.9-25-26.8-47.5-67.8-68-99-14.6-22.2-30.2-43.3-43.8-66.2-23.6-39.9-44.2-83.1-58.2-127.3Zm423 360c-4.3-10.8-5.6-28.6-11.1-38.3-4.3-7.6-16.3-19.5-22.2-27.8-12-16.6-23.4-35.5-33.8-53.2-13.5-23.1-33.6-71.9-57.8-82.2-8.1-3.4-11.8-1.6-19.5-2.5-6.2-.7-12.2-2.2-18.4-2.9l-17.1 35.8c6.1 2.2 12 5.3 18.2 7.4 10.5 3.6 38.2 7.9 44.8 14.2 7.1 6.7 12.3 40.6 19.5 52.5 6.6 11 30 33.7 39.9 44.1 14.9 15.5 36.1 38.7 53 51 1.3 1 2.7 2.2 4.5 2Z" class="outline shading" data-original-prefix="shading" opacity="0.5" style="opacity: 0.5"/><path id="outline-ear-lft" fill="#000000" d="M844 941c3.5-3.7 9.5-11.8 12.4-16.1 4.8-7.2 16.4-28.2 15.6-36.3-16.8-39-30.3-79.4-48.1-118-7.2-15.6-22.5-39.6-25.4-55.6-1-5.8 0-11.7-.5-17.5-3.3-45.1-7.7-135.4-25.5-174.5-3.3-7.2-25.2-24.6-32.6-30.4-33-26-70.9-45.4-110.4-59.7-68.6 7.7-172.2 32-218.5 86.6-11.6 13.7-35.4 43.8-42.8 59.2-2.8 5.7-1.1 5.2-1.1 9.9-.6 34.1 31 102.7 47.4 134.5 23.4 45.3 67.4 118.5 102.5 154.5 3 3.1 13.8 12.9 17.6 13.5 1.7.3 4.6-6.1 5.3-7.7 14.2-30 26.4-60.7 41-91 5.7-11.9 11.2-28.3 17.9-39.1 10.4-16.5 24.8-29.7 35.4-48.6 8.3-15 26.4-54.2 27.8-70.3.8-9.2-9.5-29.1-14.5-37.3-14.7-24.4-35.8-45.3-60.4-59.6-2.6-2.3 3.1-7.7 5.1-8.9 6.8-4.5 36.1-12.8 44.5-13.5 17.3-1.5 48.8 8.1 63.5 17.5 5 3.2 7.9 6.1 7 12.5-15-2.5-40.6-15.3-47.5 6-7.2 22.3 16.6 48.8 27.5 66.5l-7.8 55.7c4.9 9.7 11.4 18.4 18.3 26.7 10.7 12.9 16.5 19.9 25.3 34.7 27.2 45.4 45 96.6 73.8 140.2 5.2 7.8 23.4 29.6 24.3 36.7 1.1 8.3.3 18.2 1.9 26.7-1.8 3.8-26.4 25.2-28.8 22.7 1-5.6 4.4-10.8 5-16.5 2.2-21.2-16.5-60.3-26.5-79.5-23.8-45.9-52.8-93.3-86-133-5.4-6.5-16.8-16-20.5-22.5-1.2-2-1.5-4.3-2-6.5l-62 104c4.1 1.2 8.2 4.3 11.7 6.8 2.7 1.9 14.1 10 15.3 11.7 3 4.1 6.3 16.5 8.8 22.2 7.7 17.2 25.2 54.7 36.7 68.3 7.1 8.4 25.7 22.7 35 30 24.3 19.3 37.5 32 71 29 9.3-.8 17.4-5.9 26.5-6-10.1 6.5-41.4 22.8-52.5 23s-39.2-12.2-49.4-18.6c-13.5-8.5-21.1-19.2-32.6-29.4-11.3-10-27.4-17.4-33.7-31.3-7-15.8-10.7-29.5-19.7-45.3-6.6-11.7-14.4-24.6-24.7-33.3l-4.9 5.1c-15.5 20.1-21.9 45.4-27.1 69.9-3 14.1-5.4 28.6-5.5 43-2.8 3.2-28.5-20.2-31.5-23-80.1-74.1-140.5-192.9-177.2-294.8-2.9-8.2-11.2-27.8-12.1-35-1.2-10.5 17.8-49.1 23.6-59.9 8.7-16.2 21.8-38.5 33.7-52.3 17.9-20.8 63.6-38.8 89.5-49.5 41.3-17 119.9-46.1 163.2-35.2 14 3.5 51.2 30.2 65.3 39.7 21.7 14.6 45.1 30.3 65.4 46.6 5.8 4.7 23.5 19 26.2 24.8 4.2 9.2 1.4 36.4 1.9 48.1 2.4 62 10.9 128.3 38.9 184.1 5.6 11.2 13.7 22 19.1 32.9 6.1 12.4 10.3 26.9 16.3 39.7 9.2 20.1 20.9 33.1 21.8 56.2 0 2.2.4 4.4-.5 6.5-13.3 16.2-22 40.8-39.8 52.2-4.6 3-11.3 6.6-16.7 7.8Z" class="outline" data-original-prefix="outline"/>
    </g><g class="trait-group" data-category="head" id="head-small-hawk">
      <path id="fill-head" fill="#ffffff" d="m1072.2 581.1 29.6 24.9c2.4.8 2.6-2.9 3.5-4.7 2-3.8 4.4-7.6 6.5-11.3l24 20.2c2.9 3 6.4 9.4 8 13.1s1.6 6.9 2.8 9.7 1.3 1.7 2 1.9c7.7 2.7 11.4-8.4 14-12.4s.7-1.3 1.3-.7l13.7 17.4 1.6 24c5.1 0 10.2.2 15.3-.6l2.1 13.3-64.5 203.8-.2 3.1c4.4.5 7.9-2.6 12.3-2.3 2 3.9 3.2 6.9 1 11.1l-74.8 199.5c-1.7 2-8.8-3.2-11.6-1.2s-5.4 7.1-6.6 8.9c-1.9 2.8-5.7 11-7.6 12.7s-2.3.6-3.7 1.9c-6.9 6.5-11.2 18.7-15.9 26.2s-.3 1.9-1.5.8-2.7-6.7-3.5-8.1c-2.6-4.7-8.6-15.3-12.5-19s-3.2-1.3-4-2.1c-1.2-1.2-4.4-8-5.8-10.1s-6.6-10.3-8-11.3c-2.3-1.6-7.9 1.5-10.8 1.7l-1-.9c-22.6-63.2-47.5-125.8-70.2-189s-5.5-12.8-5.6-15.7 1.4-4.5 2.1-5.2c1-1.1 9.9 2.2 12.2 2.5s1.1.2.9-.7l-63.9-201.3c-2.9-6.1 0-12.4.7-18.7 5 .7 10.1.6 15.3.6l1.6-24c.3-1.3 12.1-16.2 13.7-17.4s.6 0 .9.5c2.4 3.9 7.4 16 14.8 12.4s3.3-8.8 4.3-11.3c5.5-13.1 18.4-21.8 29.8-31.6s1.2-2.9 2.6-1.4l9 16.3 29.1-25.6c1.8-.6.4 2.4 2.5 3.3s4.3.5 5.8 0c5.1-1.7 17.4-14.9 21.6-15.6 12.7-1 25.5-1 38.3 0 4.3.8 16.6 13.9 21.6 15.6s8 .4 7.3-3.2z" class="fill" data-original-prefix="fill"/><path id="shading-head" fill="#aaaaaa" d="M996.4 1037c1.4 0 1.4-2.4 1.5-3.3.6-7.9-1.4-15.7-.7-23.5l8.4 22c2.8 8 1.7 16.4 2.5 24.7 2.1 19.9 9.8 41.6 15.3 61.3.3 1-.5 1 1.5.9 3.8-19.3 11.9-37.9 14.6-57.4 1.2-9 .9-18.3 2.4-27.2l9.2-24.9c0 7.4-.6 14.9-.7 22.3 0 1.9-2 4.9.7 6.2 1.4-5.1 4.4-9.9 6.3-14.9 18.3-49.6 25.5-102 35.4-153.2.2-1 .3-3.6 1.3-4 3.1 9.8 3.3 20 4.4 30.1.4 4.2 2.3 9.5 2.3 13.7 0 11.8-5.5 28.3-6.6 41.1-.5 6.1-.8 12.1 0 18.2 10.7-10.6 18.9-23 26.9-35.1l1.5 5.1c4 15.2-10.4 27.6-14.7 40.9-2.3 7.1-2.5 14.3-4.5 21.3-2 7.1-6.3 14.2-7.6 21.4l-2.9-.6-22 65.6c-2.1 3-8.9-3-11.9-.8l-14.1 21.6c-10.1 5.4-12.6 18.2-18.4 26.1-1.3 1.7-2.1 2.4-3.8.4-3.3-6-6.1-12.3-10-18-2.4-3.6-4.8-7.1-9.2-9.1l-13.5-21.1c-3.2-2.3-9.8 4.2-12.1.4-8.1-21.5-14.4-43.6-21.7-65.3h-2.8c-1.7-7.4-5.6-14.3-7.7-21.4-1.9-6.4-2.1-13.4-4.2-19.8-5.1-15.4-18-24.9-15-43 0-.9.4-3.6 1.4-3.9 7.9 12.1 16.1 24.6 26.9 35.1 0-7.9 0-15.7-.7-23.5-1.1-11.1-5.8-25.1-5.9-35.7 0-4.6 1.7-9.2 2.3-13.7.7-6.5 1-24.5 4-29.5 0-.3.9-.8 1.1-.6.6 5 1.3 10.1 2.3 15.1 9.5 47.6 16.5 96.1 33.5 142.2 1.7 4.5 4.9 8.7 5.7 13.5h-.2zm2.2.6c.5-.8-.4-1.6-.7-1.2-.5.8.4 1.6.7 1.2" class="outline shading" data-original-prefix="shading" opacity="0.5" style="opacity: 0.5"/><path id="outline-head6" fill="#000000" d="M903.3 738.8c1.6-.5 6.7-5.2 8-4.2l5.8 26.2c3.3-10.1 10.5-21 18.3-29.3.5-.5 3.3-4.2 4.2-3.4.9 11 3.9 22 9.1 32.1 1.1-2.8 1.9-5.7 3.6-8.3.5-.8 3.4-4.9 4.7-4.2 9.8 18.6 30.2 36.6 55 41.6 14.8 3 25.8.7 38.9-5 18.5-8 31.6-21.2 40-36.6 1.4-.8 3.9 3 4.5 3.7l4.2 8.5c4.7-10.2 8-20.9 8.7-31.8.9-.8 3.7 2.9 4.2 3.4 5.7 6.2 10.5 13.7 14.8 20.6l4.2 8.7 5.1-26.2c1.3-1 6.4 3.7 8 4.2l20.1-46.4c2.2-3.5 6.4 2.9 6.8 4.6.4 2.1-5.7 18.6-7 22-4.7 13.3-10.5 26.2-15.5 39.4-1.8 1.4-3.8-5.2-5.1-5.4-2.1 11.4-5.7 23.2-14.9 32.1-1.5-6.7-2.8-13.5-5.2-20.1-1.7-4.4-4.4-10.7-6.7-14.8-.3-.5-.3-1.8-1.5-.8s-4.9 14.6-6.4 17.7c-2.8 5.8-7.7 10.5-11.8 15.7l-1.5-.3c-.2-4.9-1.5-10.4-3.6-14.9-.3-.6-1.6-4.3-2.9-3.3-11.1 17.5-30.5 31.3-54 36.5-12.3 2.7-18.9 1.5-30.6-2.1-20.4-6.2-36.4-18.7-46.4-34.4-1.3-1-2.6 2.7-2.9 3.3-2.2 4.5-3.4 10-3.6 14.9l-1.5.3c-4.1-5.2-8.9-9.8-11.8-15.7-1.5-3-5.2-16.7-6.4-17.7s-1.2.3-1.5.8c-2.3 4.2-5 10.4-6.7 14.8-2.5 6.5-3.8 13.3-5.2 20.1-9.2-9-12.8-20.7-14.9-32.1-1.3 0-3.3 6.7-5.1 5.4-5.7-14.8-12.2-29.5-17.2-44.5s-5.5-14.4-5.2-16.5c0-1.6 4.3-8.2 6.5-5.4l20.4 46.7Z" class="outline" data-original-prefix="outline"/><path id="outline-head5" fill="#000000" d="m1003.7 1064.9-5.5-8.9c-25.2-52.5-38-108.4-44.7-164.6-.4-3.9-1.7-10.8-1.5-14.3.2-3.1 3-7.6 3-11z" class="outline" data-original-prefix="outline"/><path id="outline-head4" fill="#000000" d="M1045.2 1064.9c-1.2 0-.8-2.1-.7-2.7 0-1.7.6-4 .9-5.8 3.7-17.6 10.3-36.2 14.8-53.9 9.3-36.8 17.5-73.8 25.3-110.8l7.6-25.6c0 3.4 2.8 7.9 3 11 .9 12.9-5.1 37.3-7.4 51.1-3.6 21.5-7.3 43.1-13.9 64.2-7.7 24.5-18 49.1-29.6 72.5" class="outline" data-original-prefix="outline"/><path id="outline-head3" fill="#000000" d="M971 807.8c4.1 19.6 7.5 39.5 11.9 59 4.1 18.6 11.7 36.6 10 55.8-1.2.2-1.5-.2-2-1-.9-1.5-2.2-5.8-2.9-7.7-4-11.2-6.3-22.9-9.7-34.3-6.4-21.1-15.7-41.3-12.3-63.7.4-2.4 1.1-8.5 5.1-8Z" class="outline" data-original-prefix="outline"/><path id="outline-head2" fill="#000000" d="M1055.4 922.7c-1.7-19.2 5.8-37.3 10-55.8 4.4-19.5 7.6-39.2 11.9-58.7 3.4-1.6 4.6 4.6 4.9 6.7 3.7 24-5.3 42.4-12.1 64.8-3.5 11.4-5.7 23.1-9.7 34.3-.7 2-2 6.2-2.8 7.7-.5.8-.8 1.2-2 1z" class="outline" data-original-prefix="outline"/><path id="outline-head1" fill="#000000" d="m1068.5 578.7 3.6-11.5 1.5-.4 25.1 26.2c3.5-5.2 6.6-11.1 7.6-17 .3-2-.2-4 0-5.9.3-2 2.8.2 3.9 1 13.4 10.2 26.7 27.1 33.5 41 2.8 5.7 4.5 11.7 7.3 17.3 7.6-7.2 10.8-17 14.2-25.9.3-.8-.4-1.1 1.5-.9 10.8 15.3 20.5 31.2 20.4 49.4 4.3-2.6 7.3-6.2 10.5-9.6l6.3-8.9c.9 7.6 2.6 15.2 2.2 22.9-.7 13.7-4.1 30.2-6.7 43.9-10.8 58.2-32.2 113.6-55.1 169.1 1.1 1.1.9.7 2 .4 7.6-2.2 17-10.1 23.1-14.4 0 4.1-2.1 9-3.6 13.1-9 24.6-22 49.2-32.4 73.5-19.1 44.7-33.9 90.2-51.4 135.3-2 5.1-5.5 15.8-8.4 19.9-1.3 1.9-6.1-.5-8.6-1.1-.9-.2-5.6-1.1-5.8-.9.2 7-2.1 13.9-3.6 20.8l-10.9-4.8c-3.3 5.8-7.8 11-11.1 16.8-2.9 5.2-4.5 10.6-7 15.7-.3.6-1.8 4.1-3.1 3.2-4.7-12.7-11.6-24.3-19.6-35.7L993 1116c-1.5-6.9-3.9-13.8-3.6-20.8-.2-.2-4.9.7-5.8.9-2.5.5-7.3 3-8.6 1.1-2.9-4.1-6.4-14.9-8.4-19.9-17.5-45.1-32.4-90.6-51.4-135.3-10.4-24.3-23.4-48.9-32.4-73.5-1.5-4.1-3.6-9-3.6-13.1 6.2 4.3 15.5 12.2 23.1 14.4 1.1.3.9.7 2-.4-23-55.5-44.4-110.9-55.1-169.1-3.7-19.9-8.7-43.1-5.1-62.9 0-1 .3-3.6 1.3-3.9 3.3 7.1 8.9 13.6 16 18.4 0-18.2 9.5-34.1 20.4-49.4 1.9-.2 1.2 0 1.5.9 2.5 7 6.9 19.3 12.8 24.6.4.4 1.1 1.5 1.7 1 5.5-16.5 14-31.7 26.9-45.2 3.6-3.8 9.2-9.5 13.5-12.7 6-4.6 3.4 1.1 4 4.9.9 6 4.1 11.8 7.6 17l25.1-26.2 1.5.4c.5 3.7 2.3 7.1 3.6 10.7 0 .5-.3 1.3 1.1.8 1.2-.4 7.6-5.1 9.1-6.2 3.8-2.8 9.5-9.2 14.3-9.8 8.7-1.1 21.6-1.1 30.6-.7 2.6 0 9 .5 11.1 1 3.1.8 14.7 11.3 18.7 13.9.7.4 3.5 2.3 4 1.8zm0 18.4c-.2-.2-1.5-4.4-2.3-5.6-3-4.8-12-14.6-17.8-17-2.9-1.1-17.9-2.4-21.7-2.5-4.9 0-23 1-26.8 2.5-5.8 2.3-14.8 12.1-17.8 17-.7 1.2-2 5.4-2.3 5.6-1 .9-1.2-.2-1.6-.8-1-1.5-3.4-10.4-6-9.9-2.3.4-25.1 25.9-29.9 28.5l-10.2-20.8c-14.5 15.3-23.5 35.4-28.7 54.2-4.4-4.8-10.8-8.2-15.6-12.5-2.5-2.3-4.6-5-6.8-7.6-.4-.5 0-1.1-1.6-.8-5.7 18.3-1.8 38 .7 56.5L859 667.8c5.8 29 13.5 57.8 22.2 86.3 13.3 43.6 28 89.9 44.4 132.7 1.5 3.8 4.4 7.7 4.4 11.3l-20.7-11c14.1 28.6 25.3 58.2 36 87.8 6.7 18.5 13.2 37.1 19.1 55.8 5.6 17.9 9.8 36.1 16.2 53.7 2.4 0 12-5.5 13.1-4.8 1.7 6.4 4.8 12.5 8 18.4 1.7 1 7.5-4.8 10.2-4.2l11.6 38.7c1.5 1.1 2.5-2.9 2.7-3.5 3.1-7.9 6-17.7 8.4-25.8.9-3.1 1.5-6.2 2-9.4 2.6-.7 8.4 5.1 10.1 4.2 3.2-6 6.3-12 8.1-18.4 1.1-.8 10.7 4.7 13.1 4.8 6.4-17.7 10.6-35.8 16.2-53.7s12.4-37.3 19.1-55.8c10.7-29.6 21.9-59.2 36-87.8l-20.7 11c0-3.6 2.9-7.5 4.4-11.3 16.4-42.8 31.1-89.2 44.4-132.7 8.4-27.6 17.3-57.3 22.2-85.4 0-.4.2-1-.4-.9-1.2 1.3-19.9 17-20.7 16.1 2.5-18.5 6.4-38.3.7-56.5-1.7-.4-1.2.2-1.6.8-2.2 2.6-4.1 5.3-6.8 7.6-4.9 4.3-11.3 7.7-15.6 12.5-5.2-18.8-14.3-38.9-28.7-54.2l-10.2 20.8c-4.8-2.6-27.6-28.2-29.9-28.5-2.5-.5-4.9 8.5-6 9.9-.4.5-.6 1.6-1.6.8z" class="outline" data-original-prefix="outline"/>
    </g>
</svg>