<?xml version="1.0" encoding="UTF-8"?>
<?xml-stylesheet type="text/css" href="styles/collection.css"?>
<svg xmlns="http://www.w3.org/2000/svg" viewBox="0 0 2048 2048"><g id="01_background" data-trait="yellow"><path id="bg" d="M2048,0v2048H0V0h2048Z" style="fill: #ddb305;"/></g><g id="02_Jaw" data-trait="doom-raider-mask"><path id="fill-jaw-main" class="fill"  fill="#fff" d="m637.2 1237.2 8.7-.3c13.5-36.6 25-74.9 39.3-111.1 40.9-102.9 149.2-171.1 251.8-201.2 96.8-28.5 178.1-7.9 265 37 60.9 31.4 126.9 87.1 155.2 150.8 8.4 18.9 7.3 37.3 13.6 53.4 7.2 18.6 28.3 46.1 38.7 65.3 15.6 28.9 30.5 61.7 44.3 91.7 1.6 3.4 9.1 18.6 8.9 20.7-26.3 40.9-55.4 79.9-82.8 120.1-25.7 22.3-52.4 43.6-77.4 66.6-10 22.3-16.2 46.5-26.5 68.5-40.4 24.2-79.2 55.9-120 79-37.8 21.3-82.4 35.7-121 56l-20.5.4-115.6-51.4c-45.5-28.4-92.8-54.2-138-83l-27.6-71.4-61.4-52.6-83.8-134.3c-.6-1.5 0-2.8.2-4.3 1.6-6.1 8.7-18.8 11.7-25.3 11.6-25.2 25.5-49.3 37-74.5h.2Z" class="fill" data-original-prefix="fill"/><path id="fill-jaw5" class="fill"  fill="#fff" d="M1353 1472c.3 1.4.2 1.3-.6 2.1-2.5 2.4-7.8 5.4-10.8 7.9-10.1 8.4-42.1 34.1-47.4 43.6-10.7 19.7-16.2 47.3-25.4 68.1l-39.1 20.4-58.7 38.8c20.2-48.3 28.3-100.5 36-152 1.4-1.4 10.5 6 16 3.5 25.4-22.1 55.1-38.7 85.8-52.3 15.6 3.6 29.6 13.3 44.2 19.9" class="fill" data-original-prefix="fill"/><path id="fill-jaw4" class="fill"  fill="#fff" d="M1337 1303c17.3-4.2 26.8-13.8 38-26.5 10.3-11.7 19.5-24.5 29.5-36.5 15.8 21.7 28.9 48.5 38.3 73.7 2.3 6.1 7.3 19.2 8.1 25 .2 1.9 0 2.2-.7 3.8-2.5 5.3-11.1 14.5-14.9 20.1-9.7 14-20.1 28.6-29 43-9 14.6-18.7 37.6-28.8 50.2-3 3.8-10.2 4.3-11.3.4-.6-2.2 13.9-36.1 15.9-41.8 1.7-4.7 8.4-21.2 7.8-24.8-.8-4.6-9.6-20.7-12.3-25.8-9-16.6-20.8-33.7-32.1-48.9-1.3-1.7-9.7-10.6-8.4-12.1v.2Z" class="fill" data-original-prefix="fill"/><path id="fill-jaw3" class="fill"  fill="#fff" d="M711 1303c.7.8-1.9 4-2.6 4.9-11.5 16.1-23.2 30.5-33.2 47.8-3.8 6.6-16 27.9-17 34.1-.6 3.6 7.9 25.6 9.8 30.8 4.4 12 10 23.8 13.9 35.8-6.4 5.8-9.5 2.2-13.3-3.4-10.5-15.6-19.1-34.6-29.2-50.8-8.2-13.2-17.8-26.6-26.6-39.4-3.9-5.6-12.4-14.8-14.9-20.1-.8-1.6-1-1.9-.7-3.8.8-6.2 5.7-18.7 8.1-25 9.6-25.7 22.5-50.4 36.8-73.8l2.4 1.1c9 11.5 17.9 23.4 27.6 34.4 11.3 12.9 21.3 23.6 39 27.5Z" class="fill" data-original-prefix="fill"/><path id="fill-jaw2" class="fill"  fill="#fff" d="M841 1501c7.2 51.6 16.2 103.4 35.5 152-31.8-20.5-62-43.8-97-59l-26-69c-16-16.8-34-32.2-52-47-2.1-1.7-8-4.2-5.8-6.1 2-1.8 13.4-7.5 16.7-9.1 4.1-2.1 22.8-10.9 25.9-10.6 31.6 12.9 62 30.9 87.8 53.3 3 2 13.5-6.1 15-4.5z" class="fill" data-original-prefix="fill"/><path id="fill-jaw1" class="fill"  fill="#fff" d="M846 1457c-9.4 1.7-24.2 21.3-32.4 21.1-3.7 0-14.6-4.8-18.5-6.6-11.7-5.2-24.9-13.3-36-20.1-5.3-3.2-20.9-15.6-25.7-16.4-3-.5-12.8 1.8-16 2.9-4.2 1.4-26.5 13.6-28.4 12-2.2-17.5-17.1-36.8-12.1-54.5 4.5-16.1 33.4-52.4 45.5-65.5 2.4-2.6 13.9-14.7 16.1-15 1.6-.3 3 .2 4.5.5 12.5 2.5 27.7 8.8 40.7 12.3 27.9 7.4 55.9 13.4 84.6 16.9 22.7-11.5 45.5-22.8 69-32.8 48.7-20.8 80.7-34.3 134.2-15.8 36.9 12.8 73.1 31.7 108.1 48.7 44-5.4 86.9-16.7 128.9-30.3 4.5.4 28.7 29.4 32.9 34.7 9.2 11.7 19.5 25.6 26.1 38.9 4.6 9.2 6 13.9 3.4 24.5l-13.4 38.5c-8.4-3.8-18.3-10.2-27-13-2.9-1-13.4-3.3-16-2.9-4.8.8-25.2 16.2-31.3 19.8-10.7 6.4-24.5 14.6-36 19-3.2 1.2-10.8 4.4-13.8 4.3-6.3-.2-20.6-16.3-28.1-19.9-1-.5-2.2-1.8-3.3-.7-8.5 54.2-15.6 108.7-31.7 161.3-2.8 9.2-8.5 29.8-12.8 37.2-2.3 3.9-32.3 32.9-36.5 35.5-11.1 6.6-43 19.6-55.9 24.1-8.3 2.9-32.6 9.3-40.6 9.4-7.2 0-32.2-6.3-39.9-8.9-12.8-4.2-53.9-21.4-63-29-5.2-4.3-28.6-27.1-31.3-31.7-3.1-5.3-7.2-19.9-9.4-26.6-18.3-55.7-26-113.9-34.8-171.8Z" class="fill" data-original-prefix="fill"/><path id="outline-shading-jaw1" class="outline"  fill="#000" d="M1278 1304c.5 1.8 5.6-.4 6.8-.8 16.4-4.8 50.7-16.4 63.7-26.3 12.3-9.2 23.4-45.9 32.7-60.3 2.3-3.5 4.1-6.2 8.8-6.7 0 1.4 0 2.8-.2 4.3-1.8 8.2-7.7 21.7-11 30s-14.4 36.4-19.8 41.2c-3.5 3.1-22.8 10-19.5 16.5 1.1 2.2 11.8 12.2 14.5 15.6 10.3 12.7 18.4 26.9 27.7 40.4 25.3-5.7 50.8-12.9 73.8-24.9l1.1 4-73.1 127.9c-18.1 13.1-38.3 23.5-55.9 37.1l-50 98c-26.9 17.7-58.7 32.4-84.5 51.5-17.4 12.9-36.6 35-54.2 45.8-20.2 12.5-48.9 21.8-70.4 32.6l-92.5-.5c-20.4-12.1-46.2-19.8-66.3-31.7-19-11.3-39.6-35.5-59-49.1-25-17.6-54.1-32.4-80.5-48l-49.8-98.7c-17.4-13.3-37.2-23.2-54.4-36.6l-76-128 2.4-4.4c23.1 11.8 48.5 19.2 73.8 24.8 10.5-16.1 20.6-32.3 33.2-46.9 2.8-3.2 9-6.9 8.3-11.2-1.4-8.8-16.4-9.6-22-18.1-7.5-11.3-17.8-38.9-22.5-52.4-1-2.8-6.5-17.8-5.2-19.2 6.4.5 9.4 8.2 12.2 13.3 5.9 11.2 10.3 23.4 16.3 34.7 2.4 4.6 7.8 14.9 11.3 18 4.7 4 18.1 9.8 24.3 12.4 14.5 6.2 29.8 11.2 45 15.5-16.4-12.2-34.8-21.6-50-35.5-18.3-16.7-19.6-34.6-30.5-55.5-5.2-10.1-12.3-19.1-18.3-28.7-1.8-6.8 5.4-21.6 6.5-29 2.8-19.1 3.8-27.8 12.1-45.9 42.8-94 156.1-156.3 251.2-184.8 55.5-16.7 109-17.9 165-2 99 28.1 225.1 96.5 262.8 198.2 5.1 13.9 5.1 20.8 7.5 34.5 1.2 7.1 7.8 22.1 6.7 28.2-.6 3.4-14.5 22.1-17.5 27.5-11.3 21-13 40.9-31.5 57.5-15.3 13.8-35 25.6-53 35.5v.2Zm-200 23c-5.5-11.1-10.5-24.8-17.6-34.9-4.2-6.1-10.2-10.5-14.9-16.1-3.4-4-15.2-20.5-18.4-21.6-1.9-.6-4.4-.8-6.3-.2-2.4.7-15.7 18.7-18.7 22.3s-7.4 6.8-10.5 10.5c-9.4 11.2-15.1 26.9-21.5 40h108Zm-309.5-23v1c.7-.3.7-.7 0-1m68.5 40c-31.5-5.4-62.3-14.5-92.5-25-4.9-1.7-27.1-11.3-30-11s-12 13.5-14.3 16.7c-3.2 4.4-25.2 35.5-25.2 37.8s9.4 13.2 10.2 17.3c32.5 5.7 63.8 16 95.1 26 4.2-.8 6.5-2.9 9.2-5.8 9.8-10.1 18.8-24.6 28.5-35.5 4.9-5.5 14.2-12.6 18-18 .6-.8 1.4-1 1-2.5m525.8 35.8c.4-4.4 10.8-15.1 10.1-18.1-5.5-6.9-33.4-52.2-38.6-53.6-1.1-.3-2.2 0-3.3.3-38.7 15.6-78.8 28.3-119.9 35.6-.4 1.5.4 1.7 1 2.5 4.5 6.6 16.4 16.4 22.5 23.5 7.8 9 15.1 20.7 23 29 3 3.2 5.7 6 10.3 6.8 31.2-10.1 62.6-20.3 95.1-26zM720 1472c-.4 1.7.5 2 1.5 3 9 8.8 25.2 15.4 33.5 25.5s18.5 37.1 27.1 44.9c3 2.7 10.5 6 14.5 8.6 13.2 8.8 26.3 18.2 39.5 26.6l3.8-5.9-28.3-64.7c-11-6.6-68.3-43.6-76.8-42.8-1.4 0-14.3 4.2-14.8 4.8m608 0c-5.2-.6-13.1-5.9-18-4.6-24.8 13.7-50.3 26.3-73.5 42.6l-27.8 63.3c-1.3 2.2 2.5 8.4 5 7 9.7-7.4 19.7-14.5 29.8-21.3 5.5-3.7 18.6-10 22.5-13.5 8.1-7.4 18.5-33.8 26.1-43.9 7.6-10.3 25.5-17.8 34.5-26.5 1-.9 1.9-1.3 1.5-3Zm-194 173c-2.1-.2-3.8 0-5.7.8-24.5 9.4-50.2 38.1-77.1 42.9-17.9 3.2-50.3 3.7-67.2-3.2-20-8.2-44-31.6-64.3-39.7-1.5-.6-6.2-2.2-5.7.7 1.2 7.7 10.9 21 16 27 6.2 7.3 8.1 8.8 16.3 13.7 30.2 18.1 49.5 27.8 86.2 25.9 21.1-1.1 31-5.5 49.1-14.9 19.5-10.1 34-17.7 45.7-37.3 1.2-2 7.5-15 6.6-15.9z" class="shading" data-original-prefix="shading" opacity=".2"/><path id="outline-jaw1" class="outline"  fill="#000" d="M685 1126c.2 0 1 1.5 2.2 2.2 4.7 2.7 8.7.5 9.7 8.4.6 5.1-2.7 26.3-4.4 31.4-2.8 8.6-17 13.5-21 21-1.2 2.3-7.8 31.1-7.5 33.3.4 3.4 9.5 19 11.8 23.3 4.4 8.2 15.3 29.4 20.7 35.3 9.5 10.3 60.5 26.3 75.9 31.1 29.2 9 59.3 17.4 90 18 29.3-10.7 57.9-23.1 87.2-33.8 16.6-6 42.9-17.7 59.8-17.3 21.9.5 35-1 56.2 5.8 39.5 12.7 77.8 29.4 116.4 44.6 46.7-.8 99.9-16.6 143.1-34.6 5.7-2.4 21.2-9 25.2-12.8 4.6-4.5 15-24.5 18.7-31.3 2.7-4.9 14.7-25.5 14.9-29.2 0-1.7-6.8-30.9-7.6-32.4-3.6-6.8-19-13.6-21.2-20.8-1.7-5.6-5-27.5-4.2-32.7 1-6.5 5.7-5.1 9.7-7.3 1.2-.7 2.1-2.1 2.2-2.2 2.3-1.2 6.9-4.1 9.1-2.6 2.4 1.7.2 26 1.4 30.6 6.9 5 22.7 5.9 26 14 1.1 9.9.5 20.6 1.6 30.4.3 2.9 1 10.8 2.2 12.8 1 1.8 3.1 2.2 4.3 3.7 26.6 31.1 46.5 67.2 61.9 105.1 2.3 5.6 7.6 17.3 8.3 22.7.2 1.4.3 2.7-.6 3.9-24.7 33.2-47.1 68.3-68 104-2.9 4.9-18.6 36-20.4 37.1-3.5 2-13.7-4.6-17.5-3.1-10.9 9.5-22.5 18.2-33.3 27.8-4.6 4-16.5 13.5-19.4 17.6-5 7.1-14.8 34.1-18.3 43.7-4.2 11.1-7.7 22.4-11.3 33.7-32.1 13.9-63.4 31.2-92.5 50.5-20.4 13.5-36.7 25.2-52.5 43.5-9.8 11.4-37.1 18.8-51.9 25.1-22.8 9.6-45.2 20.4-68.5 28.3l-111.2-45.6c-6.9-2.5-9.5-12.1-13.6-15.9-1-.9-2.9-1.1-4.2-2.3-38-35.4-88.6-61.7-135.5-83.5-7.9-26.5-18.8-52-29.6-77.4-17.4-15.7-35.2-31-53.5-45.5-3.5-1.2-13.5 6.1-17.5 2.5-26.4-48.4-54.7-96.1-87.7-140.3-.8-1.3-.8-2.5-.6-3.9.7-5.4 6.1-17.1 8.3-22.7 14-34.4 31.7-67.2 54.5-96.5 8.8-11.4 12.5-9.5 14-26 .9-9.8 0-20.6 1.5-30.5 4.2-7.9 25.3-7.7 26.5-16.5.5-3.9-1.1-7.1-1-10.1 0-5.3 2-11.7 1-17.5 3.8-.6 6.8 1.5 10 3h.2Zm26 177c-17.7-4-27.7-14.6-39-27.5-9.7-11-18.5-22.9-27.6-34.4l-2.4-1.1c-14.2 23.4-27.2 48-36.8 73.8-2.4 6.3-7.3 18.9-8.1 25-.2 1.9 0 2.2.7 3.8 2.5 5.3 11 14.5 14.9 20.1 8.8 12.8 18.4 26.2 26.6 39.4 10.1 16.2 18.6 35.2 29.2 50.8 3.8 5.6 6.9 9.3 13.3 3.4-3.9-12-9.5-23.8-13.9-35.8-1.9-5.2-10.4-27.1-9.8-30.8 1-6.2 13.2-27.5 17-34.1 10-17.3 21.8-31.7 33.2-47.8.7-.9 3.3-4.1 2.6-4.9Zm626 0c-1.3 1.4 7.1 10.4 8.4 12.1 11.3 15.2 23.1 32.3 32.1 48.9 2.8 5.1 11.5 21.2 12.3 25.8.6 3.5-6.1 20.1-7.8 24.8-2 5.7-16.5 39.7-15.9 41.8 1.1 3.9 8.3 3.4 11.3-.4 10.1-12.7 19.7-35.6 28.8-50.2 8.9-14.4 19.3-29 29-43 3.9-5.6 12.4-14.8 14.9-20.1.8-1.6 1-1.9.7-3.8-.8-5.8-5.8-19-8.1-25-9.4-25.2-22.5-52-38.3-73.7-10 12-19.2 24.7-29.5 36.5-11.2 12.7-20.7 22.3-38 26.5v-.2Zm-491 154c8.7 57.8 16.5 116.1 34.8 171.8 2.2 6.6 6.3 21.3 9.4 26.6 2.7 4.6 26.2 27.4 31.3 31.7 9.1 7.6 50.2 24.8 63 29 7.7 2.6 32.8 9 39.9 8.9 8-.2 32.3-6.6 40.6-9.4 12.9-4.5 44.9-17.4 55.9-24.1 4.2-2.5 34.2-31.6 36.5-35.5 4.4-7.4 10-28 12.8-37.2 16.2-52.6 23.2-107.1 31.7-161.3 1.1-1.1 2.3.2 3.3.7 7.5 3.5 21.8 19.7 28.1 19.9 3 0 10.6-3.1 13.8-4.3 11.5-4.4 25.3-12.6 36-19 6.1-3.6 26.4-19.1 31.3-19.8 2.6-.4 13 2 16 2.9 8.6 2.8 18.6 9.2 27 13l13.4-38.5c2.5-10.5 1.2-15.2-3.4-24.5-6.6-13.3-16.9-27.2-26.1-38.9-4.2-5.3-28.4-34.3-32.9-34.7-42 13.6-84.9 24.9-128.9 30.3-35-17-71.2-35.9-108.1-48.7-53.5-18.5-85.5-4.9-134.2 15.8-23.5 10-46.2 21.3-69 32.8-28.7-3.5-56.7-9.6-84.6-16.9-13-3.4-28.2-9.8-40.7-12.3-1.5-.3-2.9-.7-4.5-.5-2.1.3-13.7 12.4-16.1 15-12.1 13-41 49.3-45.5 65.5-5 17.8 9.9 37 12.1 54.5 1.9 1.6 24.2-10.6 28.4-12 3.2-1.1 13-3.4 16-2.9 4.8.8 20.3 13.2 25.7 16.4 11 6.7 24.3 14.8 36 20.1 3.9 1.8 14.8 6.5 18.5 6.6 8.2.2 23-19.4 32.4-21.1Zm-5 44c-1.5-1.6-11.9 6.6-15 4.5-25.7-22.4-56.2-40.4-87.8-53.3-3.1-.3-21.8 8.5-25.9 10.6-3.3 1.6-14.7 7.3-16.7 9.1-2.1 1.9 3.8 4.4 5.8 6.1 18 14.8 36 30.2 52 47l26 69c35 15.1 65.2 38.4 97 59-19.3-48.5-28.3-100.3-35.5-152zm512-29c-14.7-6.6-28.6-16.2-44.2-19.9-30.7 13.7-60.4 30.3-85.8 52.3-5.5 2.5-14.6-4.9-16-3.5-7.7 51.5-15.8 103.7-36 152l58.7-38.8 39.1-20.4c9.2-20.8 14.7-48.4 25.4-68.1 5.2-9.6 37.2-35.2 47.4-43.6 3.1-2.6 8.3-5.6 10.8-7.9.8-.8.9-.7.6-2.1" class="outline" data-original-prefix="outline"/></g><g id="03_Mouth" data-trait="jaws"><path id="fill-mouth-main" class="fill"  fill="#fff" d="M1102 1287c.4.6-2.2 4.3 0 5.5 50.4 27.6 100.7 55.4 145.8 91.1-5.2 15.8-10.4 31.6-16.7 47.1-5.9 14.4-8.3 22.4-12.7 37.3-13 44.8-25.3 89.9-38.3 134.7-3.4 15.6 7.3 31.3 8.8 45.8.5 5.4-1.6 24.6-3.1 29.9-2.4 8.9-12.3 10.5-19.9 15.1-23.1 14.2-44 33.8-68.7 45.3-38.6 17.9-94.7 18.9-134.6 4.9-30.8-10.8-53.7-33.5-80.8-50.2-5.6-3.4-16.3-6.9-18.8-12.2-2.2-4.7-4.6-27.2-4.1-32.9 1.2-14.4 12.1-30.2 8.8-45.8-13.8-47.4-26.5-95.2-40.5-142.5-3.7-12.4-5.6-17.8-10.5-29.5-6.4-15.4-11.4-31.2-16.7-47.1 45.2-35.6 95.4-63.7 145.8-91.1 2.2-1.2-.5-4.8 0-5.5.2-.2 3.4-1.1 4.7-1.9 25.5-15.1 52.3-31 83.7-27.1 24.4 3.1 42.7 15.5 62.9 27.1 1.2.7 4.5 1.7 4.7 1.9h.2Z" class="fill" data-original-prefix="fill"/><path id="fill-mouth-teeth13" class="fill"  fill="#fff" d="m1042 1510-1.9 71.5c-.9 11.5-1.7 23.4-2.1 34.9-.2 7.7 1.3 20.2 0 27-.5 2.5-12.9 11.6-14.3 11.4-1.2-.2-13.2-8.9-13.7-11.4-.2-44.5-3.3-88.9-4-133.5l17.6 16.9 18.3-16.9Z" class="fill" data-original-prefix="fill"/><path id="fill-mouth-teeth12" class="fill"  fill="#fff" d="m1000 1637-20-15.5c-1.8-.5-2.8-4.4-3-4.5-.8-.5-3 3.8-5 3-.4-20.5-.2-41.1-1-61.5s-2.9-41.1-2.5-61.4l11-14c3 4.2 18.8 16.6 19.2 20.6.4 3.5-.9 11.2-.8 15.9.8 20.4 1.8 41.5 2.1 61.9.2 18.5-.2 37 0 55.5" class="fill" data-original-prefix="fill"/><path id="fill-mouth-teeth11" class="fill"  fill="#fff" d="M1076 1620c-2 .8-4.2-3.5-5-3-.2.2-1.2 4.1-3 4.5l-20 15.5c.2-18.5-.3-37 0-55.5.2-20.4 1.3-41.5 2.1-61.9.2-4.7-1.2-12.4-.8-15.9.4-4 16.2-16.4 19.2-20.6 2.1 3.9 9.5 10.8 11 14 1.8 3.8-1.3 28.2-1.5 34.4-.3 9-.7 18.1-1 27-.7 20.5-.6 41.1-1 61.5" class="fill" data-original-prefix="fill"/><path id="fill-mouth-teeth10" class="fill"  fill="#fff" d="M1114 1651c-3.8-.4-4.7-3.2-5-6.4-1.4-14.4 1.7-35 2.1-50 .6-21.9 0-43.7 2-65.5 3.3.2 4.2 1.9 7.1-.4 6.2-5.1 13.2-22.1 19.9-28.8s2.8-2 3-1.8l-9.1 120.4-20 32.6Z" class="fill" data-original-prefix="fill"/><path id="fill-mouth-teeth9" class="fill"  fill="#fff" d="M907.7 1499.3c7 6.2 13.8 23.9 20.3 29.2 2.9 2.4 3.8.6 7.1.4 1.5 10.5.6 21 1 31.5.7 20.9 1.5 42 2 63 .2 5.8 4.1 25-2.5 27.4-1.7.6-6.8-10-8.5-11.4l-12.9-21.1c-3.3-40.1-5.6-80.4-9-120.4 0 0 2.2 1 2.7 1.3h-.2Z" class="fill" data-original-prefix="fill"/><path id="fill-mouth-teeth8" class="fill"  fill="#fff" d="M903 1601c-7.1-6.3-5.5-23.9-18-13l-17-142c10.4 12.2 19 26.1 28 39.5 1.9 38.5 3.8 77.1 7 115.5" class="fill" data-original-prefix="fill"/><path id="fill-mouth-teeth7" class="fill"  fill="#fff" d="M1163 1588c-12.5-10.9-10.9 6.7-18 13l4-51.5 3.1-63.9c8.9-13.4 17.5-27.3 27.9-39.5l-17 142Z" class="fill" data-original-prefix="fill"/><path id="fill-mouth-teeth6" class="fill"  fill="#fff" d="M963 1507c-.7 40.2 2 80.1 2 120.3-1.9 1.4-17.9 15-19 13.7.9-38.3-2.3-76.2-2-114.5l15.4-18.6z" class="fill" data-original-prefix="fill"/><path id="fill-mouth-teeth5" class="fill"  fill="#fff" d="M1102 1641c-1.1 1.3-17.1-12.3-19-13.7.4-22.3.5-44.6 1-66.8 0-2.4 1-4.6 1.1-6.9.3-15.5-.3-31.1 0-46.5l3.6.9 15.4 18.6c.3 38.2-2.9 76.2-2 114.5Z" class="fill" data-original-prefix="fill"/><path id="fill-mouth-teeth4" class="fill"  fill="#fff" d="M875 1581c-1.5.2-1.3-1.7-1.7-2.8-3-8.8-6.1-18.6-8.6-27.4-10.7-37.7-11.6-78.6-17.8-117.3 0-3.9 3-6.9 5.6-9.5 3.4 3.5 5.8 6.6 6.4 11.6 1.2 10.1 1 21.5 2.1 31.9 3.8 35.2 11.2 72.2 14 107 .2 2.2 0 4.3 0 6.5" class="fill" data-original-prefix="fill"/><path id="fill-mouth-teeth3" class="fill"  fill="#fff" d="M1172 1580c6.3-40.6 11.8-81.6 16-122.5 1.2-11.5-1.6-25.4 7.5-33.5 2.6 2.6 5.7 5.5 5.6 9.5-7.6 47.5-8 99-26.1 144-.6 1.6-.8 2.9-3 2.5" class="fill" data-original-prefix="fill"/><path id="fill-mouth-teeth2" class="fill"  fill="#fff" d="m843 1439 4 53-5.7-15.8c-1-7.8-7.5-23.8-4.4-30.8.5-1.1 2.9-4.1 3.8-5.2.6-.7 0-1.9 2.3-1.3Z" class="fill" data-original-prefix="fill"/><path id="fill-mouth-teeth1" class="fill"  fill="#fff" d="M1207 1439c.3.3 4.7 7.3 4.8 7.7 1.3 4.9-3.4 23.5-5 29.5l-5.7 15.8 4-52.5c0-.9 1.9-.6 2-.5z" class="fill" data-original-prefix="fill"/><path id="outline-shading-mouth4" class="outline"  fill="#000" d="m900 1319-56.5 57-14 16c-1.9 4.1 3.2 15.8 2.5 21 4.2-1.8 14.7-13.4 18.4-13.1 4 .3 8.8 14.9 10.3 18.8 2.5 6.3 4.5 12.8 6.8 19.2 18.7 24.5 38.6 48.2 57.4 72.6 3.8 5 3.2 9.2 10.1 7 3.2-1 13.7-10.2 17-13 10.5-9 19.8-20 30.5-28.6l41.1 41 41.9-41c13.1 10.8 24.4 24.6 38 35 3.2 2.5 10.4 9 14.5 6.5l61.8-79.2c3.6-6.3 11.7-36.7 16.9-38.2 4.6-1.3 17.3 14.1 19.3 11.9-.8-5.2 4.4-15.8 2.5-20-20.7-25.2-46.1-46.1-68-70-.7-.7-2.7-2-2-3 34.5 16.7 65.1 39.8 96 62 2.5 5.1-7.2 33.5-9.8 40.2-2.7 7.3-6.2 13.8-9.2 20.8-3.2 7.3-3.5 21.2-14.5 14l-8.5 50-2.5 1c-.2-19.8 1.9-39.7 4-59.4-2-4.9-6.9-13.6-8.8-3.8-4 21.5-4.5 48.2-7.4 70.6-3.6 28-8.2 56-12 84-2 14.9-3.3 16.2 1.9 31.4 1.3 3.8 7.2 14.6 7.4 16.7s-6.3 26.7-7.6 29.5c-2.4 5.5-34.3 27-41.2 30.8-23.5 12.8-65.3 23.2-92 27-44.3 6.3-112.7-12.8-149.7-38-4.2-2.9-22.5-15.7-24.1-18.9-1.2-2.3-7.8-28.2-7.7-30.4 0-2.1 7-16.2 8.3-20.7 4-13.7 2.7-13.4.9-26.4-7.5-52.8-15.1-105.5-20.4-158.6-2.2-5.2-7.7 4.9-7.9 7.8 2.1 19.4 4 39 4.1 58.5h-3l-8-51c-11.6 7.2-11.3-6.6-14.5-14-5.7-13.3-11.5-25.2-15.5-39.5-1.5-5.2-6.1-18.6-2.5-22.6 31.2-21.3 60.9-45.2 95.5-60.9zm-34.5 137v1c.7-.3.7-.7 0-1m315.5 1c-3.8 9.4-17.3 19.9-21.1 28.4-3.4 7.8-1.6 20.7-3.9 29.1l-3 60c.6 3 10.1 7.9 13.4 8.4zm-286.2 118.8c-1.8-29.7-2.2-59.6-6.1-89.1-7.3-9.7-14.3-20.1-22.7-28.8l14 125c6 0 10-4.5 14.8-7.2ZM995 1627c-.8-15.5-.4-31.1-1-46.5-.7-20.6-1.2-43.5-3-63.9-.3-3.6-.4-13.4-4.5-13.5-2.5 0-20 10.7-20.5 13.5 2.4 20.6 1.2 41.4 1.9 62 .2 6.2.6 13.8 1.1 19.9s3 12.8 2 19.5l5.4-5c1.5 2.2 17 15.7 18.6 14m82-10c-.8-6.9 1.6-13.7 2.1-20.4 1.1-17.4.3-35.7.9-53.1.3-8.7 2-18.1 2-26.9s-1-2.1-2-3c-2.2-1.8-17.3-10.9-19.3-10.4-2.9.7-3.4 7.6-3.7 10.4-3.3 35.8-2.8 74-4 110 0 1.4 0 2.9-1 4 5.2.7 17.8-14.1 19.5-14.5 2.3-.5 2.5 4.7 5.4 4Zm-146 17c-1.9-32.1-.2-64.4-2-96.5l-26-32.5c2.8 32.1 2.9 64.2 5 96.4 6.9 11.3 14.5 22.3 23 32.5Zm187 0 22-32.5c1.9-32.2 2-64.3 5-96.4l-26 32.5c-2 25.3-.4 50.7-1 76-.2 5.9-1.4 11.5-1 18 0 1.1-.7 2.8 1 2.5Zm-175 2c.8.8 16.4-9.7 17.5-11 .7-.8 1.5-1.4 1.4-2.6-.7-33.9-2.5-67.6-4-101.5-3.4 2.4-16.3 10.2-17 13.5-.2 33.9 0 67.8 2 101.5Zm101-115c-4.9 2.7-10.4 10.7-15.7 11.8-11.9 2.5-16.1-5.4-24.3-11.8 1.3 37.5 2.3 74.9 2 112.5.8 4 14.2 9.4 17.7 12.4 3.7-2.5 17.6-8.6 18.3-12.4-.2-37.6.2-75.1 2-112.5m61 115c1.6-33.8 2.3-67.6 2-101.5-.7-3.7-13.7-10.5-17-13.5-1.8 33.8-3.7 67.5-4 101.5.2 2.9 18.2 14.4 19 13.5m-167.3 18.7c-1 .9-2.6 1.5-4 1.2-3.8-1-23-30.3-27.3-35.8L895 1607c-.4 4.4-1.3 8.8-2.5 13-1.6 5.4-8.4 19.9-8.6 23.5 0 2.9 4.5 19.8 5.8 23.3.7 1.9 1 3.9 2.9 5.1 29 14.8 52.4 35.8 84.2 44.8 31.1 8.9 64.2 8.8 95.2-.2 31.6-9.2 55.5-30.5 84.3-45.4.8-.4.9-1.2 1.2-2 1.2-3 6.7-24.2 6.5-26.5-.3-3.3-5.8-13.4-7.3-17.8-1.8-5.8-3.1-11.8-4.2-17.8-2.2 3.1-5.1 5.6-7.5 8.5-8.8 10.8-17.2 26.4-26.1 35.9-1.6 1.8-3.2 3.6-5.6 4.3l-43.7-28.7c-4.3 3.6-8.6 8.8-13.3 11.7-8.2 5.1-15 6.1-23.4 13.6-2.3 2.1-3 5.8-6.5 6.5-8.1 1.6-7.3-2.8-11.5-6.4-7.2-6.1-10.9-7.5-18.9-11.1-6.3-2.8-12.3-10-17.6-14.4-12.8 7.9-26.2 15.6-38.3 24.5-1.3.9-1.6 2.5-2.3 3.1v.2Z" class="shading" data-original-prefix="shading" opacity=".2"/><path id="outline-shading-mouth3" class="outline"  fill="#000" d="M1118 1345c-1.5 1.5-1.8-.6-2.3-1.3-1.8-2.3-6.1-7.1-7.1-8.8-1.8-3.2-.9-7.3-2.6-9.4-2-2.4-11.1-9.6-14.1-11.9-17.8-13.8-38.6-25.3-56-40-3.6-5.4 6-7.7 4.1-13.6.4-.4 8.3 1.9 9 2.5 1.9 1.6 0 5.2 2 7l68.4 49.6c2.9 2.8-.3 24.8-1.4 25.9" class="shading" data-original-prefix="shading" opacity=".2"/><path id="outline-shading-mouth2" class="outline"  fill="#000" d="M1008 1260c-2.1 5.5 7.8 8.5 4.1 13.6l-61.1 43.9c-10.3 7.3-11.1 16.5-18.7 26.2-.5.7-.7 2.7-2.3 1.3-1.1-1-5.1-24.3-1-26.5l68-49c2-1.9 0-5.2 2-7 1-.9 8.7-2.9 9-2.5" class="shading" data-original-prefix="shading" opacity=".2"/><path id="outline-shading-mouth1" class="outline"  fill="#000" d="M1011 1355c1.1 4.6-4.9 8.9-3.6 13 1.1 3.3 13.8 10.8 16.2 14.9 1.2.2 16.5-14.1 17-15.9 1-3.6-5.2-7.6-3.6-12 6.9-2.5 17.3 6.5 15.8 13.3-.8 3.8-7.8 10.3-10.8 13.2-6 5.9-6.9 4.1-10.8 12.2-1.9 3.9-5.9 3.9-9.8 3.3-5.8-.8-4.3-4.3-6.4-7.6-4.4-6.7-23.9-15.6-19.3-26.2 2.2-4.9 9.7-10.1 15.2-8.2Z" class="shading" data-original-prefix="shading" opacity=".2"/><path id="outline-mouth" class="outline"  fill="#000" d="M1006 1260c.4-2.1 4.7-6.2 6.5-7 2.2-1 1.8 3.9 2.5 5l-.5 19c-9.8 6.8-19.7 13.6-29 21-10.5 8.4-26.4 21.1-35.5 30.4-3.6 3.7-.7 4.6 2.7 7.3 14.2 11.7 34.2 18.3 52.3 20.2 1.2 1.2-6.6 10.7-4.8 13.8l23.5 23.1c1.5.3 18.4-18.6 21.4-21.5.8-.8 2.6-1.3 2.8-1.6 1.8-3.1-6-12.7-4.8-13.8 18.1-1.9 38.1-8.5 52.3-20.2 3.3-2.8 6.3-3.7 2.7-7.3-9.1-9.4-25-22-35.6-30.4-9.3-7.4-19.2-14.2-29-21-1.1-1.8-.6-15.7-.5-19 0-1.1-.9-6 1.5-5 2.1.9 6.1 6.1 7.5 7-1.8 1-1 3.4-.5 5 3.8 10.3 55.3 44.8 67.4 54.6 1.8 1.5 8 6 8.6 7.4 2.3 5.4-.6 18.1-.5 24.5 0 4.3 3.4 17.4 1.1 20-1 1.1-12.4 6.6-15.3 8.7-15.1 10.7-26.8 28.3-34.7 44.8-1.5.4-1.7-.4-2.5-1-5.2-3.6-23.3-26.5-26.1-26.9-5.3 3.9-11.8 6.3-12.4 13.4-1.2 13 1 27.8 0 41.1l3.1 42.5 34.4-35.1 2.9-.9c13.6 15 26.1 31.3 40.1 46 1.3 1.4 9.3 10.1 10.5 9 3.5-11.2 11.6-21.6 18.2-31.3 19-27.8 40.6-53.8 59.3-81.7.8-.7.7-1.5 1.5-.4 7.1 9.4 13.4 20.9 20.5 30.4l17.6-43.4-157.1-108.6 2-3c36.8 19.5 75.4 39.4 110.9 61.6 21.2 13.3 40.5 29.5 61.9 42.6.6 1.1.2 2.9 0 4.2-.7 7.6-9.9 31.6-13.2 39.9s-7.1 16.1-11 24l-44.5 161.6c.4 12.4 9.3 27.7 9.8 39.7.3 6.8-1.7 25-3.2 31.9-.4 2.2-1.7 6.3-3 8-1.2 1.6-15.8 8.4-19.4 10.6-24.6 15-45.2 35.2-72.5 46.5-40.8 16.9-104 16.8-144.7-.3-27-11.3-47.4-31.4-71.8-46.2-3.6-2.2-18.2-9.1-19.4-10.6-1.3-1.7-2.6-5.8-3-8-1.4-6.9-3.5-25.1-3.2-31.9.6-12.2 9-27.1 9.8-39.7-13.1-46.2-25.7-92.7-39.3-138.8-2.2-7.3-3.2-16.5-5.7-23.3s-7.5-14.1-10.5-21.5c-5.5-13.7-9.1-28.1-14.2-41.9-.3-1.7 0-3.3 1.4-4.4 24.1-15.7 46.6-33.8 71.2-48.8 32.3-19.7 66.7-38.2 100.3-55.2l3 3-157.1 108.6 17.6 43.4c7.1-9.6 13.4-21 20.5-30.4.8-1.1.7-.3 1.5.4 18.8 27.9 40.3 53.9 59.3 81.7 6.6 9.7 14.7 20.2 18.2 31.3 1.2 1.1 9.2-7.6 10.5-9 14-14.6 26.5-30.9 40.1-46l2.9.9 34.4 35.1 3-42.5c-1-13.2 1.2-28.1 0-41.1-.7-7.1-7.1-9.5-12.4-13.4-2.8.5-21 23.4-26.1 26.9-.8.6-1 1.4-2.5 1-7.8-16.5-19.6-34.1-34.7-44.8-3-2.1-14.3-7.5-15.3-8.7-2.3-2.6 1-15.7 1.1-20 0-6.4-2.8-19.1-.5-24.5.6-1.5 6.8-5.9 8.6-7.4 11-9 62.9-44.3 66.1-52.9 1.1-2.8.4-4.5.8-6.7zm-131 321c0-2.1.2-4.3 0-6.5-2.8-34.8-10.2-71.8-14-107-1.1-10.4-.9-21.8-2.1-31.9-.6-5-3-8.1-6.4-11.6-2.6 2.6-5.7 5.5-5.6 9.5 6.2 38.7 7.2 79.6 17.8 117.3 2.5 8.9 5.6 18.7 8.6 27.4.4 1.1.2 3 1.7 2.8m297-1c2.2.4 2.4-1 3-2.5 18.1-45 18.6-96.5 26.1-144 0-3.9-3-6.9-5.6-9.5-9.1 8.1-6.3 22-7.5 33.5-4.2 40.9-9.7 81.9-16 122.5m-329-141c-2.3-.6-1.7.6-2.3 1.3-.9 1.1-3.3 4.1-3.8 5.2-3.1 7 3.3 23 4.4 30.8l5.7 15.8-4-53Zm364 0s-2.1-.4-2 .5l-4 52.5 5.7-15.8c1.6-5.9 6.4-24.5 5-29.5 0-.4-4.4-7.4-4.8-7.7zm-304 162c-3.2-38.4-5.1-76.9-7-115.5-8.9-13.4-17.5-27.3-28-39.5l17 142c12.5-10.9 10.9 6.7 18 13m260-13 17-142c-10.4 12.2-19 26.1-27.9 39.5l-3.1 63.9-4 51.5c7.1-6.3 5.5-23.9 18-13Zm-163 49c-.2-18.5.3-37 0-55.5-.2-20.4-1.3-41.5-2.1-61.9-.2-4.7 1.2-12.4.8-15.9-.5-4-16.2-16.4-19.2-20.6l-11 14c-.3 20.3 1.8 41.1 2.5 61.4s.6 41.1 1 61.5c2 .8 4.2-3.5 5-3 .2.2 1.2 4.1 3 4.5zm76-17c.4-20.5.2-41.1 1-61.5.3-8.9.7-18 1-27 .2-6.2 3.3-30.6 1.5-34.4-1.5-3.2-8.9-10.1-11-14-3 4.2-18.8 16.6-19.2 20.6-.4 3.5.9 11.2.8 15.9-.8 20.4-1.8 41.5-2.1 61.9-.2 18.5.2 37 0 55.5l20-15.5c1.8-.5 2.8-4.4 3-4.5.8-.5 3 3.8 5 3m-168.3-120.7c-.4-.4-2.6-1.5-2.7-1.3 3.4 40.1 5.8 80.3 9 120.4l12.9 21.1c1.7 1.4 6.8 12.1 8.5 11.4 6.6-2.4 2.7-21.7 2.5-27.4-.5-21-1.3-42.1-2-63-.4-10.5.5-21.1-1-31.5-3.3.2-4.2 1.9-7.1-.4-6.5-5.3-13.2-23-20.3-29.2h.2ZM1114 1651l20-32.6 9.1-120.4c-.2-.3-2.5 1.3-3 1.8-6.8 6.7-13.7 23.7-19.9 28.8-2.9 2.4-3.8.6-7.1.4-1.9 21.8-1.3 43.7-2 65.5-.4 15-3.5 35.6-2.1 50 .3 3.2 1.2 6 5 6.4Zm-151-144-3.6.9-15.4 18.6c-.3 38.2 2.9 76.2 2 114.5 1.1 1.3 17.1-12.3 19-13.7 0-40.2-2.7-80.1-2-120.3m139 134c-.9-38.3 2.3-76.2 2-114.5l-15.4-18.6-3.6-.9c-.3 15.5.4 31 0 46.5 0 2.4-1 4.6-1.1 6.9-.5 22.3-.6 44.6-1 66.8 1.9 1.4 17.9 15 19 13.7Zm-60-131-18.3 16.9-17.6-16.9c.7 44.6 3.8 88.9 4 133.5.4 2.5 12.5 11.2 13.7 11.4 1.4.2 13.8-8.9 14.3-11.4 1.3-6.8-.3-19.3 0-27 .4-11.5 1.2-23.4 2.1-34.9l1.9-71.5h-.1Zm-112.9 165.9-39.6-64.9c-2.7 4.3-15.7 16.7-16.5 20.5-.5 2.3 0 6.3 0 8.8.5 6.2 3.4 24.2 5.1 29.9 2.2 7.3 14 10.2 20.1 13.9 44.8 27.9 79.7 46.3 135.2 43.8 47.1-2.2 77.9-20 116.2-43.8 6.1-3.8 17.8-6.6 20.1-13.9 1.7-5.7 4.6-23.7 5.1-29.9.2-2.5.6-6.5 0-8.8-.7-3.8-13.8-16.2-16.5-20.5l-40.1 65.1-48.9-32.8-45.1 37.7-45.8-37.7c-6.8 2.2-46.8 34.1-49.4 32.6Z" data-original-prefix="outline"/></g><g id="04_Eyes" data-trait="starchild"><path id="fill-eyes1" class="fill"  fill="#fff" d="M1397.8 1136.8c-2 2-9.7 1-13 1.5-7.1 1.1-22.6 6.6-29.5 9.5-3 1.3-12.5 5.7-14.7 7.3-2.8 2.1-.6 13.2 1.3 15.4 2.1 2.4 13.1 3.5 16.6 3.5 16.5 0 61.7-4.5 75.8-11.2 6.5-3.1 14.3-11.3 20.2-15.8 9.6 20.3 19.3 40.7 27.2 61.7 2.4 6.5 7.7 18.1 8.8 24.2 1.9 10.4-6.3 43.1-8.8 55.2-3.3 16-7.3 31.8-10.7 47.8l-8.7-3.2-22.5-62c-2.6-4.4-6.8-6.9-12-5.5-23.6 11.4-47.3 22.9-71.1 33.9-3.4 1.6-7.3 1.3-9.7 4.2l11.1 113.6c-37.1-19.5-70.8-44.8-107.3-65.2-7.2-4-20.6-13.1-28.6-10.3-43.7 30.2-89.6 57-135 84.4l15.9-91.6c0-5.5 1.7-8.3-3.2-11.6-12.9-8.7-52.7-21.8-68.2-22.8-16.2-1.2-27.4 2.2-42.5 6.6-6.8 2-41.1 13.5-43.5 18.5-1 2.2-.6 6.8-.4 9.4l15.9 91.6c-45.4-27.4-91.3-54.3-135-84.4-8-2.8-21.5 6.3-28.6 10.3-36.5 20.4-70.2 45.7-107.3 65.2l11-113.6c-2.4-2.9-6.3-2.7-9.7-4.2-23.8-11-47.4-22.6-71.1-33.9-5.2-1.4-9.4 1.1-12 5.5l-22.5 62-8.7 3.2c-3.4-15.9-7.4-31.8-10.7-47.8-2.6-12.2-10.8-44.9-8.8-55.2 1.1-6.1 6.3-17.7 8.8-24.2 7.9-21 17.7-41.4 27.2-61.7 5.5 4.5 12.6 11.9 18.8 15.2 4.3 2.3 10.7 3.3 15.5 4.5 17 4 57.2 9.5 73.4 6 10.2-2.2 6.6-8.2 8.7-16.6-6.1-1.9-11.4-5.9-17.2-8.3-7.7-3.2-21.4-8-29.5-9.5-9.1-1.7-13.7 3.3-13.3-9.8.6-17.5 13.5-53.6 20.9-70.1 4.5-10.2 31-59 40.8-60 2.8-.3 6.6 2.3 10-.2 1.3-1 3.4-6 5-8 40.8-50.7 92.4-93.8 152-121 81.3-37 208.8-37.5 290-.3 59.1 27 110.6 69.4 151.3 119.7 1.6 2 5.5 8.8 6.4 9.5 3.7 2.7 8.8-.7 12.1.8 4.9 2.2 13.8 14.9 17.3 19.8 15.6 22.1 28.1 50.3 35.7 76.3 1.9 6.7 10.6 37.5 6.3 41.8h-.2Z" class="fill" data-original-prefix="fill"/><path id="fill-eyes6" class="fill"  fill="#fff" d="M935.4 1254.4c-4 3.9-18.4 16.2-18.4 20.9 7.6 25 14.5 50.2 20.5 75.6 3.6 15.3 9.2 34.6 11.2 49.8.4 2.8.3 5.5.2 8.2l-124.7-87.8-121.8 74.8c-2-1.2-1.7-3.5-1.6-5.5 8.5-40.5 19.1-80.6 28.9-120.8l-93.9-79.7 133-12.5 49.5-140.5 69.5 135.5c38 4.9 76 11.7 112 25-21.7 18.8-43.9 37.1-64.6 56.9h.2Z" class="fill" data-original-prefix="fill"/><path id="fill-eyes5" class="fill"  fill="#fff" d="m1412 1190-93.9 79.7 26.6 108.1c.3 3.2 4.7 17 .8 18.2l-121.8-74.8L1099 1409c0-2.8 0-5.5.2-8.2 2.1-15.1 7.6-34.5 11.2-49.8 6.1-25.9 13.7-51.4 20.3-77.2-1-4.1-23.1-23.9-27.8-28.3-17.8-16.6-36.6-32.1-55-48 36-13.3 73.9-20.1 112-25l69.5-135.5 49.5 140.5 133 12.5z" class="fill" data-original-prefix="fill"/><path id="fill-eyes4" class="fill"  fill="#fff" d="M1101.9 1310.9c-3.5 2.5-56.6-18.1-64.9-20.4-11.5-3.2-15.3-3-26.8.2-20.9 5.9-41.7 16.8-63.6 20.4-1.8-.4-6-26.6-7.4-30.5 6-7.7 11.3-11.8 20.1-15.8 11.5-5.3 56.6-22.7 67.1-21.7 9.8.9 63.7 20.6 71.7 26.4 1.3.9 10.6 10.4 10.7 11.2z" class="fill" data-original-prefix="fill"/><path id="fill-eyes3" class="fill"  fill="#fff" d="M1452 1162c1.5 1.1 11.9 31 13.3 35.2 4.8 14.9 8.1 30.2 11.5 45.5l-8.8 75.2c-3.6 0-5.3-5.3-6.3-8.2-5.1-15.5-7.4-34-12-50-.8-2.9-4.4-17.1-6.4-17.7-1.1-.4-2.3 0-3.4.4-32 12.5-61.7 30.3-93 44.5-.2-4.3-3.9-7.8 0-11.5 29.8-29.3 58.7-59.3 87-90l-2.3-1.6-34.7-7.9c10.3-1.1 39.2 2.7 46.6-4 1.7-1.5 6.6-11.4 8.4-10.1v.2Z" class="fill" data-original-prefix="fill"/><path id="fill-eyes2" class="fill"  fill="#fff" d="m651 1176-34.7 7.9-2.3 1.6c28.3 30.7 57.2 60.7 87 90 3.9 3.8.2 7.2 0 11.5l-73.6-36.9c-3.1-1.4-21-8.7-22.7-8.1-1.9.6-5.5 14.8-6.4 17.7-4.5 16.1-6.9 34.5-12 50-1 2.9-2.7 8.1-6.3 8.2l-8.8-75.2c3.3-15.3 6.7-30.6 11.5-45.5 1.4-4.2 11.8-34.1 13.3-35.2 1.8-1.4 7 9.1 8.9 10.6 7.7 6.2 35.8 2.2 46.1 3.4" class="fill" data-original-prefix="fill"/><g id="shading-eyes" class="shading" ><path id="outline-shading-eyes8" class="outline"  fill="#000" d="M952 1412c-3.4 0-6.9.2-9.9-1.6-29.4-22.9-59.2-45.3-90.1-66.1l.5-7.3c10.1-30.2 20.6-60.2 30.6-90.4 6.9-20.7 12.8-46.5 21-66 1.1-2.6 3.1-8.2 6.4-8.4 4-.2 14.9 2.4 19.8 3.2 16.9 2.8 33.4 6.8 49.8 11.7.6-.5-6.4-12.7-7.4-14.1-17-26.6-32.4-45.3-57.2-64.8-10.3-8.1-21.9-17-32.7-24.3-16.6-11.1-34.7-19.4-51.7-29.8-8.8 19.9-18.2 39.5-27.2 59.3-24.5 54.5-47.9 109.7-69.6 165.4-7.2 18.3-13.2 38.3-20.8 56.2-1 2.4-2.2 5.1-4 7l16.1-71-92.6-76.7v-6.3c38.8-4 77.5-10.4 116.5-13.1 9.3-.6 20.3 3.7 20.5-10l-54.4-14.9c-1.3-.7 0-3.1-2.2-5-6.5-5.3-25.3-13.8-33.7-18.3-5.6-2.9-12.5-2.1-2.8-7.4l15.1-28.9h33l59 34.5 26.1-78.3-84.6-32.7c-1.9-4 2.8-9.6 5.1-12.9 25.7-37.5 68.9-75.6 107.5-99.5 31.7-19.6 67.1-37 103.9-44.6-15.8 14.7-36.6 21.7-53.5 35-22.9 18.1-50.5 53.7-64.7 79.3-2.4 4.4-10.8 19.8-11.4 23.7-2.9 17.9 18.5 42 30.7 53.5 38.6 19.7 77.6 39.1 113.5 63.5 14.2 19.2 24.9 49.2 40 66.9 6.4 7.4 14 4.9 18.4 8.6 4.6 3.9 4.1 16.1 8.6 16.5 4.2.4 3.6-4.8 5-8 6.1-14.4 8.5-7.4 18.7-13.3 12.1-7 33-58.2 44.2-70.8 16.3-11.4 33.5-21.5 50.9-31.1 18-10 47.2-21.4 62.6-32.4s35.4-40.1 27.9-59.8c-10.7-28.2-48.8-76.6-72.4-95.6-17.4-14-38.3-20.9-54.5-36 29.4 5.8 57.6 18.5 83.7 32.8 47.9 26.3 95.2 65.5 126.7 110.3 2.5 3.5 9 10.9 5.3 14.7-3.2 3.3-24.9 8.2-31 10.5-7.8 2.9-15.1 7.2-22.8 10.2-10.2 4-21.1 6.6-31.1 11.2-15 31.6-29.2 63.6-43.1 95.6-25.6 59-48.1 122.9-75.6 180.4-1.6 3.3-2.9 6.8-5.7 9.3l5.6-25.4c1.3-5 9.2-29 8.5-31.6-.4-1.5-9-10.5-10.3-10.8-2.1-.6-9.2 3.8-11.3 5.4-.5 2 5.7 5.6 6.5 7.5 2.7 6.3-6 29-6.6 36.9-3.3.5-6.5 0-9.7-.6-5.1-.9-45.4-13.2-46.7-15.3-.5-.7-.6-1.4-.3-2.3l16.8-42.3c0-3.6-13.8-6.1-17-7.4-2.4 5.5-16.1 44.5-18.1 45.9-.5.4-10.3-1.7-12.9 0l20-48.6c0-2.3-6.6-10.7-8.7-11.2h-8.5c-2.8.7-6.3 7.6-9.4 9.7-5.5 3.7-14.4 4.3-20.3 7.7l-28.8 61.5c-6 1.6-11.8 3.9-18.2 2.9-.6-7.9-9.3-30.6-6.6-36.9.9-2.1 7.7-5.5 6-8.1-.7-1-9.5-5.2-10.8-4.8-1.3.3-9.9 9.3-10.3 10.8-.7 2.7 7.2 26.6 8.5 31.6 7.9 30.2 14.6 60.6 22.1 90.9v14.5h.1Zm262-355c-28.9 12.4-55.2 30.3-79.9 49.6-25.3 19.8-38.2 35.3-55.9 62.1-1.4 2.1-11.2 17.3-10.2 18.3 28.9-8.9 59.1-13.1 89-17.5 19.5-37.2 38.7-74.7 57-112.5m-133 175-32.7-28.9c-3.2-.8-5.2 3.1-7.4 4.3-6.3 3.5-11.4.5-17.4.5s-9.6 2.6-15.2.3c-2.2-.9-5.4-5.2-7.8-5.2s-29.8 25.2-33.5 29c2.1.2 4.1 0 6.2-.3 10.1-1.2 31.8-9.3 39.3-8.8 3.3.2 5.7 3.1 11 3.2 5.9 0 6.5-2.1 10.3-2.9 4.5-.9 20.2 4.3 26.1 5.5 7 1.5 14.1 3.3 21.1 3.3" class="shading" data-original-prefix="shading" opacity=".2"/><path id="outline-shading-eyes7" class="outline"  fill="#000" d="M1376 1124c-.3.4-7.4 2.6-9 3.5-8.1 4.2-26.1 12.6-32.3 17.7-2.4 1.9-.9 4.2-2.2 5l-54.4 14.9c0 14.1 12.9 9.1 22.4 10.1 1.2 0 6.3.4 5.6 2.3-21.5 51.2-41 103.2-61.1 154.9-.7 1.3-1.2 3.7-3.2 3.5-3.6-.3-14-10-18-9.7-3.2.3-25.4 18.2-26.7 16.8.4-6 2.1-11.8 4-17.5 18.3-55.7 43.5-114.3 64.3-169.7 1-2.7 4.2-7.7 4.6-9.5 1.2-5.8-6.6-18.7-4.6-22.1 17.9-9 35.3-22.8 53.1-31.4 3.2-1.5 4.4-2.5 8.1-2.9 9.1-.9 20.3.3 29.6.5 2.2 1.4 11 23.6 14.1 27.9 1.6 2.1 7.2 3.8 5.8 5.6h-.1Z" class="shading" data-original-prefix="shading" opacity=".2"/><path id="outline-shading-eyes6" class="outline"  fill="#000" d="M1348.9 1398.9c-1.2.7-7.1.2-8.8-.4l-75-48.1 59.5-173.3 88.8 10c2.5.8 2.3 6.7.6 8.3l-91.8 76.1 27.8 115.8c0 2.1.2 10.5-1.2 11.4v.2Z" class="shading" data-original-prefix="shading" opacity=".2"/><path id="outline-shading-eyes5" class="outline"  fill="#000" d="M1471 1321c-5.7.9-9.1-.9-11.4-6.1-5.5-12.6-8.7-37.7-12.7-52.3-.6-2.3-4.2-16.1-4.9-16.6-.5-.4-3.5 1.5-4 1l23-71 8.5 23 9.5 37.5c.3 28.3-6.3 56.2-8 84.5" class="shading" data-original-prefix="shading" opacity=".2"/><path id="outline-shading-eyes4" class="outline"  fill="#000" d="M703.9 1288.9c-.9.6-6.7.3-8.1 0l-53.3-26.8 8.6-43 52.4 53.1c3.6 2.4 2.8 15.3.4 16.7" class="shading" data-original-prefix="shading" opacity=".2"/><path id="outline-shading-eyes3" class="outline"  fill="#000" d="M600.8 1159.2c.3.2 2.5 4.8 3.3 6.2 1.5 2.4 4.7 3.6 3.7 6.9l-33.1 90-3.7 7.7c.2-5.4-1.7-11.2-2-16.5-1.8-32.1 13.5-64.8 24.1-94.4.3-.3 7.1-.4 7.7 0Z" class="shading" data-original-prefix="shading" opacity=".2"/><path id="outline-shading-eyes2" class="outline"  fill="#000" d="M1344.2 1288.8c-2.3-1.4-2.4-10.1-1.7-12.9 2.2-8.3 29-28.5 35-36.9l-13.1 42.9c-3.6 3-16.1 9.4-20.2 6.9" class="shading" data-original-prefix="shading" opacity=".2"/><path id="outline-shading-eyes1" class="outline"  fill="#000" d="M827.9 1326.9c-4.2-1.3-5.4-.2-8.9 1.5-12.4 6.1-23.6 15.8-36 22 24.4-46.5 45.1-95.1 65.5-143.5 7.1-17 15.2-44.4 23.8-59.2 1.1-1.9 2.7-3.2 4.2-4.7 2.9 6.7 14.3 21.5 13.3 28.2-20.2 52-41.7 103.6-61.9 155.7" class="shading" data-original-prefix="shading" opacity=".2"/></g><g id="outline-eyes" class="outline" ><path id="outline-eyes2" class="outline"  fill="#000" d="M705 1154c.3-1.7 2-11.9 2.6-12.1 16 .9 31.1 7 46.2 11.9.8.2 1.6.2 2.3-.3 1.6-1.1 11.6-30.8 13.5-35.6 11.8-29.2 24-61.4 37.3-89.7 2.8-6 5.4-14.6 13.1-15.3l27 46.6c13.5 3.6 23.7 12.9 35.4 19.6 19 10.8 40.8 19.3 59.7 30.3 11.1 6.5 13.7 12.6 19.2 23.8 6.6 13.8 11.8 29.1 17 43.4l41.8 15.2-41 45.5 15-4.5-12 11c6.7-3.3 23.4-6.7 28.5-11s7.4-20.7 6.5-27c2.8-.4 4.7 2.1 7.5 2.1s4-1.8 6-2.1c3-.5.4 4.3.5 6.5 0 2.9 5.5 19.8 7.3 21.3l28.7 10.2-10-9 11 1.5-40-44.5 42.5-16c6-13.6 10.3-27.9 16.7-41.3 3.3-7.1 8.7-18.5 14.9-23.1 9.1-6.7 30.7-16.1 41.9-22.1 19-10.1 38.2-19.7 57.1-29.9l27.5-46.6c7.2 1.2 9.8 9.4 12.6 15.4 13.3 28.3 25.5 60.5 37.3 89.7 4.7 11.5 8.7 23.4 13 35 1 1.4 2.3 1 3.8.8 6.9-.9 18.8-6.6 26.5-8.5 6.4-1.6 12.9-3.3 19.7-3.3.7 4 1.9 8.1 2.6 12 .6 3.1-.2 12.5 3.7 13.8 1.3.4 9.1 1.3 10.8 1.3 16 0 58.4-4.6 72.5-10.6 5.8-2.4 21.9-18.9 25.5-18.6.8 0 1.5.4 2 1.1 10.5 24.8 22.5 49.1 31.5 74.5 1.8 5 6.4 15.7 6.7 20.3.6 9.9-6.7 38-9.1 49.4-3.8 18.9-8.5 37.6-12.6 56.4-3.1 2.2-14.4-2.6-17.1-5.3l-24.6-65.4-2.6-.7-79.6 37.3 12.8 113.1c0 3.1-2 4.9-5 3.9-4.1-1.3-15.6-9.1-20.3-11.8-31.6-18.4-62.1-40.4-94-58-6.2-3.4-12.2-7.4-19.2-8.7-45.9 31-93.3 59.6-140.7 88.1l-3.7.8 18-107c-9.4-3.2-17.9-8.6-27.5-12.1-10.3-3.7-32.8-10.9-43.2-11.8-14.5-1.3-52.9 11.3-66.8 18-4.1 2-7.8 5.7-12.6 5.9l17.9 99.6c-.2 1.8 1.6 7.8-1.4 7.4l-143-88.9c-7 1.3-13.1 5.3-19.2 8.7-31.9 17.6-62.4 39.6-94 58-4.7 2.8-16.2 10.4-20.3 11.8-3 1-5.1-.8-5-3.9l12.8-113.1-79.5-37.3-2.6.7-24.6 65.4c-2.7 2.7-14 7.5-17.1 5.3-4.1-18.8-8.8-37.5-12.6-56.4-2.3-11.4-9.7-39.5-9.1-49.4.3-4.6 5-15.2 6.7-20.3 9-25.4 21-49.7 31.5-74.5 1.2-1.4 3-1.4 4.5-.5 6.6 4.7 15.8 14.9 23 18 6.7 2.9 26.6 6.4 34.5 7.5 11.9 1.6 37.9 4.1 48.8 1.8 5.3-1.2 4-9.5 4.7-13.7zm230.4 100.4c20.7-19.8 42.9-38.2 64.6-56.9-36-13.3-74-20.1-112-25L818.5 1037 769 1177.5 636 1190l93.9 79.7c-9.8 40.2-20.4 80.3-28.9 120.8 0 2-.3 4.3 1.6 5.5l121.8-74.8 124.7 87.8c0-2.8 0-5.5-.2-8.2-2.1-15.1-7.6-34.5-11.2-49.8-6-25.4-12.9-50.6-20.5-75.6 0-4.7 14.3-17.1 18.4-20.9h-.2ZM1412 1190l-133-12.5-49.5-140.5-69.5 135.5c-38 4.9-76 11.7-112 25 18.4 15.9 37.2 31.4 55 48 4.8 4.4 26.8 24.2 27.8 28.3-6.7 25.8-14.2 51.3-20.3 77.2-3.6 15.3-9.2 34.6-11.2 49.8-.4 2.8-.3 5.5-.2 8.2l124.7-87.8 121.8 74.8c3.9-1.2-.5-15-.8-18.2l-26.6-108.1 93.9-79.7zm-442.6-17.3c-9.6-13.8-18.1-28.8-29.4-41.2l-42.7-34.3L850 1065c4.5 9.4 9.7 18.6 14.8 27.7 11.2 20 23.2 39.5 34.6 59.4 23.7 6.4 47.1 13.8 70.3 21.8zm109.6.3 69.6-20.9 49.4-86.6c-33.1 21.6-66 44.1-94.4 71.6zm-428 3c-10.3-1.2-38.4 2.7-46.1-3.4-1.8-1.5-7.1-11.9-8.9-10.6-1.5 1.1-11.9 31-13.3 35.2-4.8 14.9-8.1 30.2-11.5 45.5l8.8 75.2c3.6 0 5.3-5.3 6.3-8.2 5.1-15.5 7.4-34 12-50 .8-2.9 4.4-17.1 6.4-17.7 1.8-.6 19.6 6.7 22.7 8.1L701 1287c.2-4.3 3.9-7.8 0-11.5-29.8-29.3-58.7-59.3-87-90l2.3-1.6zm801-14c-1.8-1.3-6.8 8.5-8.4 10.1-7.3 6.7-36.3 2.9-46.6 4l34.7 7.9 2.3 1.6c-28.3 30.7-57.2 60.7-87 90-3.9 3.8-.2 7.2 0 11.5 31.3-14.2 61-32 93-44.5 1-.4 2.3-.8 3.4-.4 1.9.6 5.5 14.8 6.4 17.7 4.6 16.1 6.9 34.5 12 50 .9 2.9 2.7 8.1 6.3 8.2l8.8-75.2c-3.3-15.3-6.7-30.6-11.5-45.5-1.4-4.2-11.8-34.1-13.3-35.2v-.2Zm-350.1 148.9 6.9-30.3c-.2-.8-9.5-10.3-10.7-11.2-8-5.7-61.9-25.4-71.7-26.4-10.4-1-55.5 16.4-67.1 21.7-8.8 4.1-14.1 8.1-20.1 15.8 1.5 3.8 5.6 30.1 7.4 30.5 21.9-3.6 42.7-14.4 63.6-20.4 11.5-3.2 15.2-3.4 26.8-.2 8.3 2.3 61.4 22.9 64.9 20.5" class="outline" data-original-prefix="outline"/><path id="outline-eyes1" class="outline"  fill="#000" d="M695 1149c-.5 3.2-1.4 5.1-5.4 4.7-3.2-.3-15.3-6.8-20.6-8.2-6.6-1.8-12.7-2.4-19.3-3.7-9-4.4-3-24.7-1.2-32.8 5.9-27.1 17.7-57.2 32.1-80.9 4.4-7.3 22.4-34.6 30.1-35.8 1.9-.3 5.9 2.7 7.2 1.7.3-.2.5-2.3 1.2-3.3 39.2-53 103.3-104.3 164.2-129.8s154.1-29.8 220.9-17.5c88.6 16.3 169.9 76.6 224.3 146.7.9 1.1 1.4 3.8 1.6 3.9 1.1.8 4.7-2.5 9.2-.7 10.6 4 28.1 32.6 33.9 43.1 9 16.4 17.2 36.5 22.5 54.5 2.8 9.6 10.8 38.7 7.5 47-2.6 6.6-9.8 4.4-14.6 5.4-10.5 2.1-20.7 5.9-30.3 10.7-4-.3-3.8-1.8-4.3-4.8-1-5-.9-10.9-1.6-16 7.3-4.7 15.2-8.3 23.4-11.1 1.2-15.8-7.3-32.2-14-46.2-3.5-7.3-7.7-15.2-11.7-22.3-2.6-4.6-12.2-22.3-15.1-24.9-1.4-1.2-1.7-1.3-3.5-1.5-4.7-.6-14.1-.2-19.1 0-16.1.8-32 3.5-47.5 8 11.2-12.3 27.1-20.9 42-28.1-3.7-19.6-19.7-36.2-34-49.5-46.6-43.4-138.5-93.1-201.7-101.3-80.3-10.4-144.1 5.6-214 43.7-32.5 17.7-93.8 58.5-110.9 91.1-1.5 3-6.6 13.3-4.5 15.5 9 5.4 19.4 10 28 16.1 1.2.9 14.6 11.2 13.1 12.4-21.8-6.9-45.1-8.9-68-7.5-3.8 1.8-26 44.1-29.2 50.8-4.8 10.3-15.4 32.2-12.9 43l22.9 10.8c.5 5.6 0 11.3-.7 16.8" class="outline" data-original-prefix="outline"/></g></g><g id="05_Right Ear" data-trait="metal plate"><defs></defs><path id="fill-ear-rt1" class="fill"  fill="#fff" d="M1377.6 547.4c2.3 6.6 3.6 12.4 6.1 17.5 6.5 13.5 4.8 27.4 2.5 41.2-3.2 19.5-6.4 39.1-13.2 57.9-3.3 9.2-8.5 17.3-13.9 25.3-1.5 2.2-2.5 2.9-4.8.7-20.6-19.9-41.3-39.8-62.1-59.5-10.2-9.7-16.3-22-23.4-33.9-7-11.7-8.5-23.2-6.9-36.4 1.4-12 3.7-23.6 6.4-35.3 1.1-4.8 3.4-9.1 6.4-12.9 24.1-29.8 46.5-60.9 71.6-90 35-40.6 76.6-73 121.4-101.8 24.5-15.7 49.1-31.4 74.2-46.2 41.6-24.6 84.1-47.6 128-67.7 15-6.9 30.7-11.9 46.3-17.4 3.4-1.2 3.1.7 3.2 2.7 1.1 18.7 1.2 37.3-.8 55.9-2.3 21.9-5.7 43.6-9.7 65.2-.5 2.6-1 5.3-2.5 7.5-16.6 24.4-23 52.5-29.7 80.6-5.6 23.6-8.8 47.5-8.3 71.8.4 23.5-5 45.9-11.3 68.2-8.9 31.8-17.7 63.7-33.7 92.8-26.5 48.2-58.6 92.2-101.2 127.8-14.8 12.4-31.7 21.5-48.6 30.5-16.8 8.9-32.5 19.7-48.8 29.3-2.9 1.7-4.5 4.1-5.6 7.2-6.8 20.2-14.8 40-25.4 58.5-6.8 12-14.3 24-25.1 33.3-5.2 4.5-9.8 9.5-14.7 14.3-17.3 16.9-36.3 31.5-59.2 39.8-7.1 2.6-15.4.2-20.9-4.7-10.4-9.3-19.3-20.2-28.2-31-1.3-1.6-1.2-2.7 0-4.2 14.7-20.3 21.8-43.9 28.4-67.6 2-7.3 5.3-13.9 10.4-19.7l94.2-106.8c7.9-8.9 8.4-16 1-24.7-1.9-2.2-1.1-3.2.6-4.2 3.8-2.3 4.3-5.7 4.3-9.8 0-24.3 6.1-47.4 14.7-70 .9-2.5 2.3-4.8 3.8-7 4-5.8 7.5-6.4 13.5-2.5 3.4 2.2 6 5.2 8.4 8.5 11.2 15.9 15.9 33.4 14.5 52.8-1.2 16.8-6.8 32.1-14.4 46.9-.8 1.6-1.8 3.2-2.7 4.8v1c2 .4 3.5-.8 5-1.6 24.5-12.7 47.8-27 68.4-45.7 6.6-6 10.3-12.3 11.7-21.3 4-26.6 11.6-52.3 20.6-77.6 6.3-17.8 15.8-33.7 27-48.8 1.9-2.6 1.9-4.2 0-6.9-7.6-11.5-10.5-24.6-10.9-38-1.5-44.6 10.6-85.5 33.7-123.5 21.9-36 50.4-65.2 86.2-87.4 5.4-3.4 9.9-7.3 12.8-13.4 5.3-10.9 11.4-21.4 18.4-31.2-1.1-1-1.8-1.1-2.6-.5-6.4 4.2-13.3 7.8-18.6 13.4-5.6 6-12.4 10.1-19.7 13.3-5.6 2.5-10.2 6-14.6 10.3-14.6 14.4-29.1 28.9-44.3 42.7-36.2 33.1-61.5 73.3-79.3 118.6-2 5.2-2.6 9.8-1.4 15.3 4.3 20.9 7.2 41.9 8 63.2 1.3 34.4-6 66.8-20.4 97.8-4.8 10.3-9.2 20.7-16.3 29.7-3.7 4.8-7.9 9-13.2 12-8.1 4.6-15.4 2-18.3-6.9-1.8-5.4-2.9-10.9-4-16.5-3.4-16.7-9.5-32.5-14.5-48.8-.7-2.4-2.2-4.1-4.1-5.5-17-11.8-35.1-21.6-54.3-31.8v.4Z" class="fill" data-original-prefix="fill"/><path id="fill-panel-ear-rt" class="fill"  fill="#fff" d="M1253.2 614.5c2.9 6.9 5.4 12.8 8.9 18.2 4.9 7.5 11.1 13.7 18.2 19 23.1 17.5 45.5 35.9 66.5 55.9 5 4.8 11.1 8.4 16.5 12.9 9.2 7.6 9.8 12.8 1.5 21.1-27.3 27.4-52.9 56.5-81.2 82.7-11.8 11-18.6 24-22.4 39.1-2.2 8.7-4.6 17.4-7 26-3.6 12.8-10.1 24.2-18.1 34.7-.8 1-2.1 2.1-2.1 3.3-.3 5.1-3.3 4.6-6.5 3.4-16.4-6.3-33.1-12.1-47.2-23.1-2.2-1.7-3.7-3.7-4.5-6.4-2.5-8.6-5-17.2-7.7-25.7-3.1-9.9-1.1-19.2 3.1-28.1 18.3-39 35.9-78.4 57.5-115.6 5.2-8.9 6.5-18.3 8.2-27.9 4.4-26.2 9.6-52.2 14.8-78.2.7-3.4 1-6.8 1.6-11.3zm-3.9 277.5c.3-11.1-6-17.9-17.1-18.3-10.9-.4-20.5 9.3-21 21.1-.4 10 8.2 20.1 17.4 20.5 10.5.5 20.3-10.7 20.7-23.3m84.1-129.6c8.2 0 15.9-6 18.6-14.7.9-2.7.8-5.6 1.2-8.3 1-6.6-1.5-11.7-6.9-15.3-5.3-3.4-11.1-4-16.4-.4-6.7 4.6-11 11-11.9 19.3-1.1 10.2 6.2 19.3 15.4 19.4" class="fill" data-original-prefix="fill"/><path id="fill-stud2-ear-rt" class="fill"  d="M1222.6 893.9c0-6.9 4.2-10.7 12-10.9 4.2 0 7.9 3.9 8 8.6 0 6-5.5 12.2-11 12.3-5 0-8.9-4.2-9-9.9Z" class="fill" data-original-prefix="fill"/><path id="fill-stud1-ear-rt" class="fill"  fill="#fff" d="M1346.9 742.3c0 7.5-3.9 11.8-10.2 11-4.2-.5-7.1-2.6-7.9-7.1-.9-4.9-.5-9.6 2.6-13.8 3.6-5 10-4.6 13.1.7 1.6 2.8 2.5 5.8 2.4 9.1Z" class="fill" data-original-prefix="fill"/><path id="outline-shading-ear-rt1" class="outline"  fill="#000" d="M1234 709.1c0-8.2 2.4-16.1 3.1-24.2.2-2.8 2.5-2.8 4.3-3.3 11-3.2 22-6.3 33.5-9.7-3-3.7-6.5-5.6-9.7-7.8-9.1-6.1-14.1-14.8-16.7-25.1-.4-1.6-.4-3.3 0-4.9 3.2-21.4 6.5-42.8 9.8-64.2 0-.8.5-1.5 1-2.7 9.2 13.9 18.9 26.7 29.6 38.9 11.3 12.8 23.3 24.8 37 35 8.7 6.5 8.8 6.4 13.9-2.9 12.3-22.1 21.4-45.5 26.4-70.3 1.8-9.1 6.1-16.5 11.8-23.7 5.1-6.4 9.8-9 18.4-7.5 17.5 3.2 35.1 6.1 52.2 11 3.3 1 5.3.6 7.1-2.7 6-10.8 11.3-21.8 16.7-32.9 5.5-11.5 4.3-23.8 5.8-35.7 1-7.9 1.5-15.9 2.3-23.9.3-2.4.6-5 2-7.1 19.9-30.6 37.9-62.4 61.1-90.7 7.9-9.7 16.2-19.1 24.7-28.2 5.6-6 11.7-11.4 18.5-16 20.4-13.8 40.7-27.7 61.7-40.7 6.3-3.9 13.1-7.2 19.7-10.7 1.3-.7 13.8 1.7 14.7 2.8 1.1 1.3 0 2.5-.4 3.7-5.4 11.3-13 21.3-21.1 30.6-35.9 41.5-59.7 89.4-76.7 141.1-9.4 28.6-10.2 57.9-5 87.4 2 11.4 2.5 22.2-3.6 32.8-4.9 8.6-7.6 18.4-11 27.8-.2.6-.5 1.2-.7 1.9-.7 2.9-.3 6.2 1.6 7.9 1.7 1.5 4.3-.9 6.2-2.1 5.5-3.5 9.2-8.7 12.8-13.9 16.4-23.6 29.2-49.2 41.9-74.9.8-1.6 1.6-3.2 2.5-4.9 1.6 1.2.7 2.5.4 3.6-18.6 72.5-47.8 140.1-92 200.8-1.5 2-3 4.1-4.9 5.6-26.6 20.3-54.8 37.9-87.2 47.5-12.3 3.6-24.7 6.2-37.7 6.5-16.4.5-27.4 10.7-35.5 23.7-9.2 14.8-17.2 30.5-25.8 45.6-16.6 29.1-32.9 58.5-54.7 84.1-8.9 10.4-13.5 21.8-16.6 34.4-1.3 5.3-2.8 10.5-4.2 15.9 2.4 0 3.3-1.5 4.5-2.5 32.7-28.3 61.9-60.1 90.7-92.3 1.8-2 3-4.4 3.9-6.9 4.4-12.5 9.7-24.7 11.4-38.1.9-7.1 5.4-11.6 13.1-13.9 37.6-11.1 71.6-30.2 106.2-47.9 19.9-10.2 38.5-22.6 55.5-37.1 7.1-6 13.8-12.5 20.8-18.8-3.1 4-6 8-9.2 11.9-17.4 21.1-36.9 40-60.1 54.9-14.5 9.3-30 16.9-44.8 25.7-11.4 6.7-22.6 13.9-33.9 20.8-1.7 1-2.5 2.5-3.2 4.2-10.5 24.5-21.1 48.9-31.5 73.4-1.7 4.1-4.1 7.5-7.4 10.5-26.6 24-53.2 48-79.6 72.2-2.7 2.5-5 2.9-8.4 1.9-13-3.7-26-7.2-39.1-10.6-3.2-.8-5.2-2.2-6.5-5.3-4.4-10.5-12.9-17.6-21.5-24.4-4.1-3.2-7.5-7.3-11.9-9.7-9.8-5.4-20.1-10.1-31.5-10.8-2.6-.2-3.8-1.1-4.8-3.4-7.1-16.1-14.3-32.3-21.6-48.4-.7-1.6-1.1-3-.4-4.8 4.8-11 9.5-22 14.2-33 2 .4 1.4 1.9 1.5 2.8 3 17.7 12.1 33 19.3 49 2 4.4 4 8.8 6 13.1.9 1.8 1.8 3.8 4.1 3.9 2.4 0 3.2-2.3 3.3-3.8.7-9.5 7.6-14.6 13.6-20.8 14.3-14.7 25.5-32 36.9-49 14.1-21 27.9-42.2 42.8-62.8.6-.8 1-1.7 1.9-3.1-38 8.1-74.4 19.5-112.2 29.5 1.2-2.6 2-4.5 3-6.3 6.5-12.2 12.5-24.6 17.8-37.4 1.3-3.1 3.1-4.6 6.3-5.5 26.2-7.5 52.3-15.4 78.6-22.5 7.7-2.1 12.8-5.8 16.6-12.6 3.9-7.1 4.3-7-2.4-11.5-5.4-3.6-10-9.9-16.2-10.1-5.8-.2-11.9 3.8-17.8 5.9-13.8 5-27.5 9.9-41.3 14.9-1.2.4-2.4 1.2-3.8.7Zm-4.8 193.4c-2.3-7.7.9-13.2 7.1-17.3.8-.5 2-.8 1.4-2.1-.4-.9-1.4-.7-2.2-.7h-4c-5.4.2-8.8 4.9-9.9 12.7-.9 6.2 3.2 6.7 7.6 7.5Zm99.6-156.5c3.6-11.8 8.3-14 18.6-9.9 0-8.6-4-9.5-11.3-8.7-6.7.7-9.7 8.2-7.3 18.6" class="shading" data-original-prefix="shading" opacity=".2"/><path id="outline-ear-rt3" class="outline"  fill="#000" d="M1735.4 208.8c1.6 15.9 0 30.4-1 44.8-1.6 25.4-2.3 50.9-6.5 76.1-1.4 8.3-3.6 15.7-9.6 22.4-8.9 9.8-14.3 21.7-17.9 34.7-7.3 26.5-11.5 53.4-12.3 80.8-.2 7.9.6 15.6 4.1 22.9 2.2 4.5 2.2 9.2 1.2 14.1-15.2 75.4-46.3 144.2-89.1 207.6-20.5 30.3-47 55.3-76.8 76.5-21.1 14.9-42.4 29.5-66.1 40.1-9.4 4.2-16.1 11.1-21.6 19.4-12.5 19.2-23.7 39-30.4 61.1-2.1 6.7-5.7 12.5-11.6 16.5-20.1 13.7-36.9 31.2-53.7 48.5-9 9.3-20.7 12.5-31.8 17.7-5.9 2.8-11.3 2.2-17.2.4-10.5-3.1-21.1-5.8-31.4-9.8-3.1-1.2-5.4-2.9-7.4-5.6-5.8-7.9-11.9-15.7-17.7-23.6-3.5-4.7-7.9-8-13-10.7-14.4-7.8-29.7-13.3-45.8-16.4-6.3-1.2-10.8-4.8-14.2-10.1-11.8-18.5-18.2-39-23.2-60.1-1-4.3.5-7.9 1.9-11.5 3.1-7.8 8.3-14.4 13.2-21.1 22.9-31.6 41.9-65.3 56.9-101.3 18.9-45.4 25.1-93 23.3-141.8-.2-5.4-.4-10.6 4.4-14.6 1.6-1.4 1.6-3.9 1.7-6.1.4-10.7 1.2-21.3 1.3-32 0-6.6 1.8-11.9 5.7-17.4 19.4-27.1 38.8-54.2 59.1-80.6 28.6-37.4 61-71.4 93.4-105.5 1.9-2 4.1-3.9 6.4-5.5 64.7-45.2 132.5-84.7 206.2-113.5 27.3-10.6 54.4-22.1 82.7-29.7 7.9-2.1 15.9-3.8 23.9-5.4 6.9-1.3 7.4-.7 9.5 5.9 3.5 11.2 3.1 22.7 3.3 32.7 0 .1 0 0 0 0Zm-357.8 338.6c19.2 10.2 37.3 20 54.3 31.8 1.9 1.3 3.4 3 4.1 5.5 4.9 16.2 11.1 32.1 14.5 48.8 1.1 5.5 2.2 11.1 4 16.5 2.9 8.8 10.2 11.4 18.3 6.9 5.3-3 9.5-7.2 13.2-12 7-9.1 11.5-19.5 16.3-29.7 14.4-31 21.7-63.4 20.4-97.8-.8-21.4-3.8-42.4-8-63.2-1.1-5.5-.6-10.2 1.4-15.3 17.8-45.3 43.1-85.5 79.3-118.6 15.1-13.8 29.6-28.3 44.3-42.7 4.3-4.3 9-7.8 14.6-10.3 7.3-3.3 14.1-7.4 19.7-13.3 5.3-5.6 12.2-9.2 18.6-13.4.8-.5 1.6-.4 2.6.5-7.1 9.8-13.1 20.3-18.4 31.2-3 6.1-7.4 10.1-12.8 13.4-35.8 22.1-64.4 51.4-86.2 87.4-23.1 38-35.3 78.9-33.7 123.5.5 13.4 3.4 26.5 10.9 38 1.8 2.7 1.8 4.3 0 6.9-11.1 15.1-20.7 31-27 48.8-8.9 25.3-16.5 51.1-20.6 77.6-1.4 9-5.1 15.3-11.7 21.3-20.6 18.7-43.9 32.9-68.4 45.7-1.5.8-3 2-5 1.6v-1l2.7-4.8c7.7-14.7 13.2-30 14.4-46.9 1.4-19.4-3.3-37-14.5-52.8-2.3-3.3-5-6.3-8.4-8.5-6-3.9-9.5-3.3-13.5 2.5-1.5 2.2-2.9 4.5-3.8 7-8.6 22.5-14.7 45.6-14.7 70s-.4 7.5-4.3 9.8c-1.7 1-2.4 2-.6 4.2 7.4 8.7 6.9 15.8-1 24.7l-94.2 106.8c-5.1 5.7-8.3 12.3-10.4 19.7-6.6 23.7-13.7 47.3-28.4 67.6-1.1 1.6-1.3 2.6 0 4.2 8.9 10.8 17.8 21.7 28.2 31 5.5 5 13.8 7.3 20.9 4.7 23-8.3 41.9-22.8 59.2-39.8 4.9-4.8 9.6-9.8 14.7-14.3 10.8-9.3 18.3-21.3 25.1-33.3 10.5-18.5 18.6-38.3 25.4-58.5 1.1-3.2 2.7-5.5 5.6-7.2 16.4-9.6 32-20.4 48.8-29.3 16.9-9 33.8-18.1 48.6-30.5 42.6-35.5 74.7-79.6 101.2-127.8 16-29.1 24.7-61 33.7-92.8 6.3-22.3 11.7-44.8 11.3-68.2-.4-24.3 2.7-48.1 8.3-71.8 6.7-28.1 13.1-56.2 29.7-80.6 1.5-2.2 2.1-4.9 2.5-7.5 4-21.6 7.4-43.3 9.7-65.2 1.9-18.6 1.8-37.3.8-55.9 0-2 .2-4-3.2-2.7-15.5 5.5-31.3 10.5-46.3 17.4-43.9 20.2-86.4 43.2-128 67.7-25.1 14.8-49.7 30.5-74.2 46.2-44.8 28.7-86.4 61.2-121.4 101.8-25 29.1-47.4 60.2-71.6 90-3 3.8-5.3 8.1-6.4 12.9-2.7 11.7-5 23.3-6.4 35.3-1.6 13.2 0 24.7 6.9 36.4 7.1 11.9 13.2 24.2 23.4 33.9 20.8 19.7 41.5 39.6 62.1 59.5 2.3 2.2 3.3 1.5 4.8-.7 5.4-8 10.6-16.2 13.9-25.3 6.8-18.7 10-38.3 13.2-57.9 2.2-13.8 3.9-27.7-2.5-41.2-2.5-5.2-3.8-10.9-6.1-17.5v-.4Zm-124.4 67.1c-.6 4.5-.9 7.9-1.6 11.3-5.3 26-10.4 52-14.8 78.2-1.6 9.6-3 19-8.2 27.9-21.7 37.3-39.3 76.6-57.5 115.6-4.2 8.9-6.2 18.2-3.1 28.1 2.7 8.5 5.3 17.1 7.7 25.7.8 2.7 2.3 4.7 4.5 6.4 14.1 11 30.8 16.8 47.2 23.1 3.1 1.2 6.2 1.7 6.5-3.4 0-1.1 1.3-2.2 2.1-3.3 8-10.6 14.5-21.9 18.1-34.7 2.4-8.6 4.8-17.3 7-26 3.8-15.1 10.6-28.1 22.4-39.1 28.4-26.3 54-55.3 81.2-82.7 8.3-8.3 7.7-13.5-1.5-21.1-5.4-4.5-11.5-8.1-16.5-12.9-21-20-43.4-38.4-66.5-55.9-7.1-5.4-13.3-11.6-18.2-19-3.5-5.4-6-11.3-8.9-18.2z" class="outline" data-original-prefix="outline"/><path id="outline-ear-rt2" class="outline"  fill="#000" d="M1249.3 892c-.4 12.7-10.2 23.8-20.7 23.3-9.2-.4-17.7-10.5-17.4-20.5.4-11.9 10-21.5 21-21.1 11.1.4 17.4 7.1 17.1 18.3m-26.7 1.9c0 5.7 4 10 9 9.9 5.5 0 11-6.3 11-12.3s-3.7-8.7-8-8.6c-7.8.2-12 4-12 10.9Z" class="outline" data-original-prefix="outline"/><path id="outline-ear-rt1" class="outline"  fill="#000" d="M1333.4 762.4c-9.2 0-16.5-9.1-15.4-19.4.9-8.3 5.2-14.7 11.9-19.3 5.3-3.6 11.1-3.1 16.4.4 5.4 3.5 8 8.6 6.9 15.3-.4 2.8-.3 5.6-1.2 8.3-2.8 8.6-10.4 14.7-18.6 14.7m13.5-20.1c0-3.3-.8-6.3-2.4-9.1-3.1-5.4-9.5-5.7-13.1-.7-3.1 4.2-3.4 8.9-2.6 13.8.8 4.4 3.6 6.6 7.9 7.1 6.4.7 10.2-3.5 10.2-11Z" class="outline" data-original-prefix="outline"/></g><g id="06_Left Ear" data-trait="lop-eared"><path id="fill-ear-lft" class="fill"  fill="#fff" d="M594.7 816.3c-2-1.6-9.6-2.2-11.2-.3-1.2 1.5-7.1 22-8.7 26.3-5 13.4-11.3 26.2-16.5 39.5-4.5 11.3-6.1 33.4-24.5 26-7-2.8-24.8-26.8-30-34-16-22.3-30.6-47.2-45.8-70.2-39-59.2-74.4-111.4-98.8-179.2-9.6-26.8-15.4-43.5 1.9-68.6 23.3-33.7 61.6-64.8 95.5-87.5 28.2-18.9 84.4-32 118.3-39.7 24.1-5.5 52.8-14.8 76.3-6.3 34.6 12.6 112.7 57.7 134.2 86.9 11.9 16.2 14.4 48.2 16.6 68.4 4.4 40.2 2.4 79.8 10.5 119.5 5.7 28.4 15.5 63.5 25.3 90.7 9.5 26.8 26.4 56.8 33.6 83.4 2.7 9.8 2.8 21.2 5.4 31.2-20.8 30.1-50.2 57.8-83.8 73.1-4.5 2-23.1 9.9-26.7 10.3-8.6 1-32.2-11.5-40.2-16.4-30.9-19-65.2-41.9-82.2-74.8-5.7-10.9-9.1-24.8-15-35-4.8-8.3-17.4-24.5-23.9-32.1-1.8-2.2-8.6-9.9-10.3-11.2" class="fill" data-original-prefix="fill"/><path id="outline-shading-ear-lft" class="outline"  fill="#000" d="M354 607c25 10.2 48.3 24.2 72.6 35.9 13.7 6.6 30.3 16 45.8 13.1 5.7-1 44-29.1 51.4-34.6 19.1-14.1 38.4-29 55.6-45.4 2.4-2.2 16.9-16.4 17.3-17.8.2-.7-.8-13.9-1-14.6-.7-2.1-5.4-2.5-4.8-5.7l112.4-.9c3 1.7 3.4 7.8 3.7 11.3 2.7 38-6.9 75.6 4.2 112.8 21 70.3 74.6 151.5 121.2 207.8 7.2 8.7 29.7 30.3 31.3 39.7 1.2 7.2-.9 6.5-3.2 11.4-7.5 16.4-34.7 36.9-50.7 46.3-9 5.3-27.2 14.4-36.9 17.2-1.4.4-2.6.7-4 0-24.5-12.8-50.2-23.4-74.5-36.6-30.1-44.6-58.6-90.2-95.4-129.6-2.7-2.4-13.6-3.8-15.6-1.4l-48.6 89.4c-2.6 4.2-8.5-3.4-10.8-5.9-25-26.8-47.5-67.8-68-99-14.6-22.2-30.2-43.3-43.8-66.2-23.6-39.9-44.2-83.1-58.2-127.3Zm423 360c-4.3-10.8-5.6-28.6-11.1-38.3-4.3-7.6-16.3-19.5-22.2-27.8-12-16.6-23.4-35.5-33.8-53.2-13.5-23.1-33.6-71.9-57.8-82.2-8.1-3.4-11.8-1.6-19.5-2.5-6.2-.7-12.2-2.2-18.4-2.9l-17.1 35.8c6.1 2.2 12 5.3 18.2 7.4 10.5 3.6 38.2 7.9 44.8 14.2 7.1 6.7 12.3 40.6 19.5 52.5 6.6 11 30 33.7 39.9 44.1 14.9 15.5 36.1 38.7 53 51 1.3 1 2.7 2.2 4.5 2Z" class="shading" data-original-prefix="shading" opacity=".2"/><path id="outline-ear-lft" class="outline"  fill="#000" d="M844 941c3.5-3.7 9.5-11.8 12.4-16.1 4.8-7.2 16.4-28.2 15.6-36.3-16.8-39-30.3-79.4-48.1-118-7.2-15.6-22.5-39.6-25.4-55.6-1-5.8 0-11.7-.5-17.5-3.3-45.1-7.7-135.4-25.5-174.5-3.3-7.2-25.2-24.6-32.6-30.4-33-26-70.9-45.4-110.4-59.7-68.6 7.7-172.2 32-218.5 86.6-11.6 13.7-35.4 43.8-42.8 59.2-2.8 5.7-1.1 5.2-1.1 9.9-.6 34.1 31 102.7 47.4 134.5 23.4 45.3 67.4 118.5 102.5 154.5 3 3.1 13.8 12.9 17.6 13.5 1.7.3 4.6-6.1 5.3-7.7 14.2-30 26.4-60.7 41-91 5.7-11.9 11.2-28.3 17.9-39.1 10.4-16.5 24.8-29.7 35.4-48.6 8.3-15 26.4-54.2 27.8-70.3.8-9.2-9.5-29.1-14.5-37.3-14.7-24.4-35.8-45.3-60.4-59.6-2.6-2.3 3.1-7.7 5.1-8.9 6.8-4.5 36.1-12.8 44.5-13.5 17.3-1.5 48.8 8.1 63.5 17.5 5 3.2 7.9 6.1 7 12.5-15-2.5-40.6-15.3-47.5 6-7.2 22.3 16.6 48.8 27.5 66.5l-7.8 55.7c4.9 9.7 11.4 18.4 18.3 26.7 10.7 12.9 16.5 19.9 25.3 34.7 27.2 45.4 45 96.6 73.8 140.2 5.2 7.8 23.4 29.6 24.3 36.7 1.1 8.3.3 18.2 1.9 26.7-1.8 3.8-26.4 25.2-28.8 22.7 1-5.6 4.4-10.8 5-16.5 2.2-21.2-16.5-60.3-26.5-79.5-23.8-45.9-52.8-93.3-86-133-5.4-6.5-16.8-16-20.5-22.5-1.2-2-1.5-4.3-2-6.5l-62 104c4.1 1.2 8.2 4.3 11.7 6.8 2.7 1.9 14.1 10 15.3 11.7 3 4.1 6.3 16.5 8.8 22.2 7.7 17.2 25.2 54.7 36.7 68.3 7.1 8.4 25.7 22.7 35 30 24.3 19.3 37.5 32 71 29 9.3-.8 17.4-5.9 26.5-6-10.1 6.5-41.4 22.8-52.5 23s-39.2-12.2-49.4-18.6c-13.5-8.5-21.1-19.2-32.6-29.4-11.3-10-27.4-17.4-33.7-31.3-7-15.8-10.7-29.5-19.7-45.3-6.6-11.7-14.4-24.6-24.7-33.3l-4.9 5.1c-15.5 20.1-21.9 45.4-27.1 69.9-3 14.1-5.4 28.6-5.5 43-2.8 3.2-28.5-20.2-31.5-23-80.1-74.1-140.5-192.9-177.2-294.8-2.9-8.2-11.2-27.8-12.1-35-1.2-10.5 17.8-49.1 23.6-59.9 8.7-16.2 21.8-38.5 33.7-52.3 17.9-20.8 63.6-38.8 89.5-49.5 41.3-17 119.9-46.1 163.2-35.2 14 3.5 51.2 30.2 65.3 39.7 21.7 14.6 45.1 30.3 65.4 46.6 5.8 4.7 23.5 19 26.2 24.8 4.2 9.2 1.4 36.4 1.9 48.1 2.4 62 10.9 128.3 38.9 184.1 5.6 11.2 13.7 22 19.1 32.9 6.1 12.4 10.3 26.9 16.3 39.7 9.2 20.1 20.9 33.1 21.8 56.2 0 2.2.4 4.4-.5 6.5-13.3 16.2-22 40.8-39.8 52.2-4.6 3-11.3 6.6-16.7 7.8Z" class="outline" data-original-prefix="outline"/></g><g id="07_Head" data-trait="palerider"><path id="fill-head2" class="fill"  fill="#fff" d="M647.3 900.2c5.1-1.5 10-4.9 14.8-6.7s12.8-1.7 15.4-6.6c12.3-56.2 28.7-111.2 47.5-165.5 6.9-19.8 15.6-49.3 24.8-67.2 6.2-12 28-23.5 38.2-32.9 2.5-.8 8.3 1.9 11.7 2.5 61 9.8 123.3 10.3 184.9 11.1 86.4 1.1 179.2 2.4 264.7-11.2 2.7-.4 7.5-2.7 9.3-2.7 4 .2 34.3 26.2 38.7 31.2 29.5 76.2 55.7 153.9 73.1 233.9 2.6 5.9 11.5 5.5 16.5 7.5 2.5 1 12.7 5.8 13.8 7.2 5 6.6 5.3 32 8.6 41.4.8 2.3 1.9 4.1 4.4 4.5 7.1 1.3 18.4 1.5 26 2 76.9 4.8 154.1-.8 231 2 21 .7 69.6 3.8 86.8 14.2 7.7 4.6 16.6 22.6 15.7 31.3-1.9 18.2-40.6 51.5-55.1 62.9-77.2 60.6-145.9 90.2-239.1 118.9-163 50.1-333.5 87.8-505.3 79.8-129.1-6.1-257.3-36-380.5-72.5-102.6-30.4-178.7-59.5-263.5-126.5-14.6-11.6-55.7-46-55.2-65.3.1-3.4 7.9-20.6 10.2-23.6 7-9.1 31.9-13.3 43.1-14.9 84.2-11.8 174.1.2 258.9-5.1 15.2-2.6 33-.4 47.9-3.1 2-.3 3.5-1.9 4.2-3.8 3.5-9 3.6-26.1 6.4-36.6.5-1.9.9-4.2 2.1-6.2" class="fill" data-original-prefix="fill"/><path id="fill-head1" class="fill"  fill="#fff" d="M669.8 911.2c.4.3.8 2 1.7 2.8 195.6 157.5 495.1 165.7 694 9 2.7-2.2 12-11.6 14.1-12 2.6-.5 10-.8 11.3 1.7 1 2 3 15.8 3.2 18.8.5 7.3 1 23.1.1 30-.7 5.5-16.2 18.7-21 23-173.8 150.7-512.9 150.7-690.5 6.5-5.2-4.2-26.4-22.2-28-27-1.4-4.1-1.7-14.8-1.6-19.5.1-7.2 1.6-23.7 3.7-30.3.4-1.2.6-2.6 2-3 1-.5 10.2-.5 11 0" class="fill" data-original-prefix="fill"/><g id="shading-head-hat" class="shading" ><path id="outline-shading-head3" class="outline"  fill="#000" d="M296 963c2.1 6.4 3 12.4 5.9 18.7 26 56 138.2 122.2 193.8 148.2 76.5 35.7 162.6 52.8 245.2 68.8 71.4 13.8 145.2 27.6 217.7 34.3 117.7 11 238.4-12.8 353.7-35.3 90.8-17.7 180.2-36.3 262.8-79.2 48.3-25.1 155.9-90.1 173.4-142.5 2-6.1.1-15.8 8.2-11.2 6.9 3.9 15 16.1 12.5 23.9-13.5 42.9-84.6 94.4-121.7 118.3-54 34.8-110.7 53.5-171.8 72.2-196.9 60.5-387 97-594.1 70.6-124.4-15.8-265.7-51.5-383.4-94.6-67.8-24.8-173-86.5-210.6-149.3-2.6-4.3-9-15-9.5-19.5-.9-7.3 9.3-22.9 17.9-23.4" class="shading" data-original-prefix="shading" opacity=".2"/><path id="outline-shading-head2" class="outline"  fill="#000" d="M677 912c-3.2 6.4-5.9 13-7.5 20-1.3 5.3-4.8 23.5-2.5 27.6 42.6 45.2 97.8 78.9 151.4 109.6 3.9 2.2 18.3 8.8 20.2 10.8 1.6 1.8 2.3 3.7.5 5.6-2 1.4-7-1.7-9-2.6 2.4 8.3-9.8 6.4-15.4 5.9-23.4-2.3-56.5-17.1-78.3-26.7-42.4-18.7-84-40.1-121.1-67.9-86.6-15.8-174.3-25-261.2-38.8l-9-2.5 30.5-2c69-1 138.1-.2 207.1-.9 3.9 0 7.4-1.4 12-1.1 13.6.9 30.5 10.1 44.5 12 2-15.9 5.6-55.4 19.1-65.5 5.4-4 16.8-3.4 19.5-9.5 12-55.9 28.7-110.6 47.5-164.5 6.9-19.8 15.6-49.3 24.8-67.2 4.8-9.2 18.1-16.9 26.2-23.3.4 4.7-.6 9.2-1.7 13.8-6.4 26-20.2 56-28.5 82.5-14.8 46.8-33.9 107.9-37.6 156.4-.2 2.2-.5 4.2.4 6.3s14.2 13.7 17 16c30.3 24.9 73.9 46.3 109.8 62.2 59.9 26.5 123.9 41.5 185.8 62.2 2.3 2.7.2 4.7-2.7 5.3-97.8-5.4-193-33.1-276.3-84.3-17.2-10.6-36.6-27.1-55.3-32.7-5.6-1.4-6.8-2.6-10.2-6.7" class="shading" data-original-prefix="shading" opacity=".2"/><path id="outline-shading-head1" class="outline"  fill="#000" d="M1409.1 961c1.9 1.3 37.1-11.5 44.4-12 13.9-.9 32.6 1.9 47 2.1 63.7.9 127.5-3 191 1l11.5 2c-89.6 14.6-180.1 24-269.5 40.1-29.3 21.3-60.6 39.1-93.2 54.8-28.2 13.6-75.8 36.6-106.1 39.9-5.8.6-18.7 2.8-16.2-5.7-4.7 3.1-13.4 5.2-8.5-3.1 60.6-34.4 123.5-69.2 171.6-120.4 2.2-3.8-1.2-20.6-2.4-25.7-1.8-8.1-4.3-14.4-7.7-21.8-4.3 7.5-11 5.5-16.7 7.8-12.3 4.9-35.5 23.8-48.3 31.7-83.4 51.3-178.7 78.5-276.5 84.5-2.7-.1-4.6-3.5-2.5-5.5 61.8-20.8 125.9-35.7 185.8-62.2 36.1-16 80.7-38 110.8-63.2 2.8-2.4 14.9-12.7 16-15 .9-2 .5-3.4.4-5.3-1-18.8-7.7-49.1-12.2-67.9-6.5-27.1-15.2-55.9-23.4-82.5-8.9-28.6-21.9-58-29.8-86.2-1.6-5.6-3.1-11.1-2.5-17 6.9 5.9 21.2 14.2 25.5 22 8.2 15 16.4 43.3 22.5 60.5 20.1 56.5 37.6 113.9 50.5 172.5 2.7 6.2 14.2 5.7 19.4 9.5 6.2 4.6 11.7 21.9 13.6 29.4 2.8 11.5 3.4 23.7 5.5 35.7" class="shading" data-original-prefix="shading" opacity=".2"/></g><g id="outline-head-hat" class="outline" ><path id="outline-head-hat2" class="outline"  fill="#000" d="M1378.2 881.8c5 2.3 10.6 2.8 15.8 4.7 2 .8 9.2 4.1 10.9 5.1 5.8 3.4 6.5 14 7.8 20.2 1.8 9 2.9 18.2 4.3 27.2l45.4 3c80.1 4.6 163.3-3.9 243 3 31.8 2.7 65 3.6 75 39 7.3 26-18.9 50.6-36.5 66.5-108.6 98.5-257.3 139.9-397 174-240.8 58.7-441.2 54-680.2-8.8-130.8-34.4-259.4-71.6-361.8-164.2-25.8-23.3-52.3-48.2-30.2-84.2 10.8-17.6 48.5-20.6 67.7-22.3 72.6-6.2 150.5-.8 224-3 21.5-.7 43-1.1 64.5-3 2.2-11.9 3.1-25.8 6.1-37.4 2.7-10.4 4.5-8.7 12.6-12.4 1.5-.7 2.7-2.1 4.3-2.7 5.2-1.9 10.8-2.4 15.8-4.7 17.1-80.8 44-159.1 73.5-236 2.6-4.4 31.1-27.7 36.4-30.6 9.5-5.2 15.3-.8 24.1.6 56.5 8.7 112.8 10.1 169.8 11.2 89.9 1.7 181.6 2.4 270.7-11.2 7-1.1 12.6-4.7 20.8-2.3 3.6 1.1 30.4 22.7 34.4 26.6 2.7 2.7 3.9 3.8 5.7 7.3 7 13.6 13.4 35.2 18.8 50.2 21.7 60.2 40.5 121.5 54.3 184.2m-90.5-220.5c-2.3-2.7-33.4-24-36.1-24.4-102.4 4-204.5 7.8-307 5-50-1.3-99.8-4.2-149.8-4.8-3.2.9-34.2 23.4-35.8 26.2-7.4 12.8-16 42.8-21 58-19 58-34.9 117.2-47.8 176.8 82.7 63.6 187.2 105.6 291.4 116.7 76.2 8.1 155.6-7.3 226.7-34.2 53.3-20.1 104.9-47.1 149.6-82.4-15.5-68-33.3-137.2-56.8-202.8-2.4-6.4-10.2-30.3-13.4-34.1M669.8 911.2c-.8-.5-10-.5-11.2-.1-1.4.5-1.6 1.8-2 3-2.1 6.6-3.6 23.1-3.7 30.3-.1 4.7.2 15.4 1.6 19.5 1.6 4.8 22.8 22.8 28 27 177.6 144.3 516.7 144.2 690.5-6.5 4.9-4.2 20.3-17.4 21-23 .9-6.9.5-22.7-.1-30-.2-3-2.2-16.9-3.2-18.8-1.3-2.4-8.7-2.2-11.3-1.7-2.1.4-11.3 9.8-14.1 12-198.9 156.7-498.4 148.5-694-9-.8-.7-1.1-2.4-1.5-2.7M625 965c-40 .4-79.8-.6-119.5-2-48.2-1.6-162.7-14.1-202.1 9.8-21.1 12.8-13.6 28.5-.4 43.7 17.7 20.3 40.3 32.2 61.8 47.3 23.4 16.4 43.7 32.3 69.2 45.8 115.3 60.9 250.1 91.7 377.8 114.2 89.6 15.8 180.7 29.4 271.7 21.3 61.9-5.5 124.6-15.8 185.7-27.3 116.3-21.9 237.4-52 342.8-107.2 25.4-13.3 45.1-28.6 68.3-44.7 21.5-15 44.7-27.6 62.8-47.2 10.7-11.7 22.1-26.1 8.5-40.6-20.6-22.1-98.8-19.6-128.1-19-46.6 1-93.3 5.1-139.9 6.1-20.2.4-40.4-.4-60.6 0-.2 8.8.8 14.4-5 21.5-12.5 15.2-41.9 34.4-59.1 45-71.3 43.8-150.2 72.1-233.6 82.4-158.8 19.8-329.9-4.1-461.7-99-8.5-6.1-36.8-27.3-38.4-36.6-.4-2.2.2-13-.2-13.5" class="outline" data-original-prefix="outline"/><path id="outline-head-hat1" class="outline"  fill="#000" d="M769 677c.1.1.3 1.7 1 2.5 18.2 19.6 37 41.6 59.1 56.9 18.6 12.9 36.2 10.9 57.4 13.6 47.4 5.9 95.5 11.7 143 11 44.8-.7 87.7-5.5 132-11 38.4-4.8 44.1-1.3 74.5-27.5 15.9-13.7 30.2-29.3 43.5-45.5 2.1-.4 1.4.8 1.8 2.2 2.1 6.9 2.2 14.3 3.7 21.3-.2 1.9-15.8 17.9-18.5 20.5-7.1 6.9-33.2 31.4-40.5 34.5-16.7 7.1-55.5 11.8-74.7 14.3-96.5 13-203.8 11.5-299.4-7.3-8.2-1.6-23.8-3.9-30.7-7.3-10-4.9-42-35.3-50.3-44.7-1.1-1.3-7.2-8-7.5-8.5-1.1-2.3 1.7-17.9 2.7-21.3.4-1.2.9-5.4 2.9-3.7" class="outline" data-original-prefix="outline"/></g></g><g id="08_Mouthpiece" data-trait="gasmask"><path id="fill-gasmask-front2" class="fill"  fill="#fff" d="M1393.8 1467.3c74-7.2 53.9 96.6 40.5 139.5-13.4 43.1-34.9 84.1-72.6 110.4-41.7 29.2-101.4 53.8-121.7-12.8-27.5-90.5 58.2-227.9 153.7-237.2Zm43 96.5c5.1-18.7 8.5-55.2-3.8-71.2-16.6-21.6-42.5-18.9-65.8-11.3l-20.2 81.8c19.1 1.1 35.1 16.7 39 35l50.7-34.2h.1Zm-120.9 25.3-41.4-24.9c-26.7 30.4-34.8 75.3-31.5 114.8l68.9-32.1c.6-1-2.6-12.6-2.9-15.4-1.2-15.1 3.6-28 6.9-42.4m32.8-14.9c-26.5 4.2-50.2 51.7-28.2 70.8 26.9 23.3 74.3-36 50.5-63.5-6.1-7-13.2-8.7-22.2-7.3zm-28.6 158.7c1.3.6 2.5.9 3.9.7 14.8-2.5 48.8-31.9 59.5-43.6 3.4-3.7 19.5-24.1 19.5-27.5s-.7-1.9-1.4-2.6l-28.8-23.2c-1.3-.8-2.2-.9-3.7-.3-3.2 1.4-9.3 8.3-13.2 10.9-6.3 4.3-12 6.6-19.3 8.7-2.7.8-8.9.7-10.1 2.9l-6.4 73.9Z" class="fill" data-original-prefix="fill"/><path id="fill-gasmask-front1" class="fill"  fill="#fff" d="M638.7 1467.2c39.6-6.2 92.7 31.7 117.8 59.8 40.6 45.4 76.1 136.1 44.7 193.7-26.2 48-81.5 20-114.9-3.5-44-30.9-68.6-85.8-79.8-137.2-7.5-34.4-16-105.3 32.2-112.8m42.1 14c-23.3-7.4-48.4-10.3-65.3 10.8-13 16.2-9.1 52-4.6 71.3l50.6 34.7c5-18.1 19.9-33.9 39.5-35zM805 1679c3.3-39.5-4.8-84.3-31.5-114.8l-41.4 24.9c1.7 10.2 6.1 19.9 6.9 30.4.7 9.3-.7 17.9-3.1 26.8zm-117.3-104.8c-2.8.6-8.2 4.6-10.2 6.8-22.5 24.5 15.5 80.9 45.8 66.8s1.7-81.2-35.5-73.5Zm40.2 158.7-6.4-73.9c-1.2-2.2-7.5-2.1-10.1-2.9-7.3-2.2-13-4.4-19.3-8.7-3.8-2.6-9.9-9.5-13.2-10.9-1.4-.6-2.3-.6-3.7.3l-28.8 23.2c-.8.7-1.4 1.5-1.4 2.6 0 3.4 16.1 23.8 19.5 27.5 10.6 11.7 44.7 41.1 59.5 43.6 1 .2 3.6 0 3.9-.7Z" class="fill" data-original-prefix="fill"/><path id="fill-gasmask-grill10" class="fill"  fill="#fff" d="M1017 1488c.2 6.3 1.7 13.2 2 19.5 2.2 44.9.3 93.6 1 139 .2 11.5.2 22.3-2 33.6h-15.5c-3.2 0-2.3-19.7-2.5-22.5-2.6-50.6-3.4-102.3-4.1-152.9 0-5.8.9-10.9 1-16.6h20.1Z" class="fill" data-original-prefix="fill"/><path id="fill-gasmask-grill9" class="fill"  fill="#fff" d="M1051 1488c0 5.7 1.1 10.8 1 16.6-.7 50.7-1.4 102.3-4.1 152.9-.2 2.8.7 22.5-2.5 22.5h-15.5c-2.3-11.2-2.2-22.1-2.1-33.6.7-45.4-1.2-94.1 1-139 .3-6.2 1.8-13.2 2-19.5h20.2Z" class="fill" data-original-prefix="fill"/><path id="fill-gasmask-grill8" class="fill"  fill="#fff" d="M962 1488c.2 4.8-.3 9.7 0 14.6 1.7 32.6 1.5 65.3 2 98 .3 23 2.7 46.9 1.1 70-.2 2.2-.7 4.2-1.1 6.4l-12.9-.9c-2.3-12.3-1.4-25-2-37.5-2.2-44.8-4.7-90-4-135 0-1.8-.9-3.5-.9-5s2.6-9 3-9.3c1.1-.7 14.3-1.7 14.8-1.2Z" class="fill" data-original-prefix="fill"/><path id="fill-gasmask-grill7" class="fill"  fill="#fff" d="M1100.8 1489.2c.4.3 3 8.2 3 9.3.6 16.9-1.5 35-1.9 52-.9 42-1.3 83.8-5 125.5-8.5-1-13.2 6.1-14-5.4-1.5-23.1.7-47 1.1-70 .6-37.6.7-75.1 1.9-112.6.5-.5 13.8.5 14.8 1.2Z" class="fill" data-original-prefix="fill"/><path id="fill-gasmask-grill6" class="fill"  fill="#fff" d="M984.9 1488.1c3.3 2.9 1.9 34 2.1 40.4.8 29.8 2.7 60.1 3.1 89.9.2 14.9 1.2 33.6 0 48.1-.2 1.9-1.8 10.5-2.5 11.5-1.9 2.6-10.5 0-13.5 0-1.5-8.1.2-15.4 0-23.5-1.2-50.9-4.4-105.3-3.1-156 0-3.4 1.7-6.8 1-10.5 2.2.4 12.1-.6 12.9 0Z" class="fill" data-original-prefix="fill"/><path id="fill-gasmask-grill5" class="fill"  fill="#fff" d="M1076 1488c-.6 3.9 1 7.6 1 11.5.6 51.4-1.8 103.6-3.1 155-.2 8.1 1.5 15.4 0 23.5-3.5 0-11.8 3.1-13.8-.6-.8-1.6-2.1-8.6-2.2-10.8-2.6-30.9 1.3-68.6 2.1-100 .6-22-1.2-48.7.9-70.1 0-1.2 1.8-8.1 2.1-8.4.8-.7 10.7.3 12.9 0Z" class="fill" data-original-prefix="fill"/><path id="fill-gasmask-grill4" class="fill"  fill="#fff" d="M1128.9 1491.1c-.6 10.1-.5 20.3-.9 30.5-1.9 48-2.5 97-7.1 144.9 0 1.1-.9 6.2-1.1 6.4-.3.3-8.1 1.4-9.2 1.2-3.1-.7-2.8-29.2-2.7-33.6.3-23.8 2.4-48.1 3.1-71.9.7-22.2-1.1-48.5 1-70 .3-2.9 1.3-5.7 2.1-8.4z" class="fill" data-original-prefix="fill"/><path id="fill-gasmask-grill3" class="fill"  fill="#fff" d="M933.9 1490.1c1 3 1.9 6.1 2.2 9.3 1.8 21.7.3 46.9.9 69.1.7 23.8 2.8 48.1 3.1 71.9 0 11.2.5 22.6-2.2 33.4-.9.6-9.3-.6-9.7-1-.2-.2-1-5.3-1.1-6.4-5.2-55.3-4.6-111.4-8-166.9-.2-2.8 0-5.7 0-8.5z" class="fill" data-original-prefix="fill"/><path id="fill-gasmask-grill2" class="fill"  fill="#fff" d="M1117 1682c.8.7-8.2 15.3-9.7 15.8-55.3 1.2-110.5.9-165.8.2-3-.6-8.8-12.2-10.5-15.5 20.5 1.6 41 5.2 61.5 6.5 25 1.6 51.1 1.1 76-1 16.2-1.3 32.4-4.1 48.5-6" class="fill" data-original-prefix="fill"/><rect id="fill-gasmask-grill1" class="fill"  width="212" height="10" x="918" y="1472" class="st1"/><path id="fill-gasmask-mask4" class="fill"  fill="#fff" d="m1138 1570 1.6-110.1H1030c-.6-14.5-4.5-26.9 2-40.9 1.3-.9 7.7 6.1 9 7.5 4.5 4.8 9.1 10.6 13.4 15.6 3.3 2.6 6.6-.9 9.1-3.1 11-9.2 31.4-32 40.4-43.6 4.6-5.9 7.5-10.1 4.2-17.2-4.2-8.8-24.7-34.8-32.1-41.9-5.2-5-8-6.6-14.3-3.3-12.8 6.8-25.4 18.2-38 25.7-11.8-8-24.3-18.5-36.7-25.3s-8.3-3.1-14 1.9c-8 7-27.2 32.1-32.4 41.6-4.2 7.7-2.2 11.1 3 17.8 7.5 9.9 20.5 23.4 29.4 32.6 3.2 3.3 14.6 15.8 18.5 15.5 2.6-.2 17.3-19.2 21.5-22.6 1-.8 1.3-1.9 3-1.5 6.5 14 2.7 26.5 2 41H908.4l2.5 110-5.7-24.8c-9.3-29.7-22.8-55.6-42.3-79.7-7.4-9.2-19.9-17.2-18.5-30.6 15.8-23.7 33.8-46 53-67 23.9-26 45.5-46 76.8-63.2 6.5-3.6 26.4-14.5 32.4-15.6 9.2-1.7 32.4-.8 40.9 2.6 55.7 22.3 100.9 69.6 136.7 116.3 3.1 4.1 18.8 24.6 19.4 27.6 2.2 10.4-12.9 22.5-18.8 29.8-24 29.6-42.2 66.4-47 104.5z" class="fill" data-original-prefix="fill"/><path id="fill-gasmask-mask3" class="fill"  fill="#fff" d="M933.3 1704.7c2.7 2.3 6.6 3.1 10.1 3.4 52.1-3.4 109.6 4.4 161.1 0 3.6-.3 7.4-1 10.1-3.4 2-1.7 14.8-16.8 16.3-19.2 4-6.1 2.6-42.4 2.9-52.1l2-18.4c1.1 7.1.4 14.4 1 21.5.6 6.3 2.3 26.2 6 30 1.9 2 6.9 2.8 6.8 5.8l-18.4 53.7c-1.5 2.3-11 6.4-14.1 7.9-16.4 8.2-36.3 17.9-53.2 24.8-20.1 8.3-50.7 3.6-72.4 3l-74.3-34.7-19.3-54.7c0-3 4.9-3.8 6.8-5.8 5.4-5.7 5.4-33.3 6-42l2-9.5c1 17.8 0 36.8 1 54.5.2 4.1 1 12.8 3 16 1.5 2.3 14.4 17.4 16.3 19.2z" class="fill" data-original-prefix="fill"/><path id="fill-gasmask-mask2" class="fill"  fill="#fff" d="M895 1704c-.7.7-12.6-7.8-12.9-8.7-.8-2.6 4.5-15.2 3.9-19.3z" class="fill" data-original-prefix="fill"/><path id="fill-gasmask-mask1" class="fill"  fill="#fff" d="m1153 1704 9-28c-.6 4.1 4.7 16.8 3.9 19.3-.3.8-12.2 9.4-12.9 8.7" class="fill" data-original-prefix="fill"/><path id="fill-gasmask-pods4" class="fill"  fill="#fff" d="M889 1660c-.5.5-2.7.2-2-1.5-.5-34.9-1.3-69.4-12.3-102.7-12.9-39.2-41-74.3-71.2-101.8-6.5-5.9-15.5-11.6-21.5-17.5-1.1-1.1-2.3-1.7-2-3.5 12.6-4.9 23 4.7 32.5 12 56.5 44 84.7 111 83.6 182.5 0 4.8-4.3 29.8-7.1 32.5" class="fill" data-original-prefix="fill"/><path id="fill-gasmask-pods3" class="fill"  fill="#fff" d="M1268 1433c.4 1.8-.9 2.5-2 3.5-6 5.8-15 11.5-21.5 17.5-30.2 27.5-58.3 62.6-71.2 101.8-11 33.4-11.8 67.9-12.3 102.7.7 1.7-1.4 2-2 1.5-2.7-2.6-7-27.7-7.1-32.5-1.1-71.5 27.1-138.5 83.6-182.5 9.4-7.3 19.9-16.9 32.5-12" class="fill" data-original-prefix="fill"/><path id="fill-gasmask-pods2" class="fill"  fill="#fff" d="M671 1457c-.3-1.4 1-1.1 2-1.5 12.4-5.1 49.3-17.4 61.6-18.4s42 17.4 52.7 25.1c45.8 33.1 75.6 78.9 83.5 135.5 3.4 24.2 3.7 60.1-4.3 83.3-2.7 7.8-14.4 16.3-21 22-10.4 9-21.3 17.4-32 26 43.6-110.4-32.2-240.3-142.5-272" class="fill" data-original-prefix="fill"/><path id="fill-gasmask-pods1" class="fill"  fill="#fff" d="m1377 1456-33.7 13.8c-91.3 46.5-147.8 160-108.8 259.2-10.7-8.6-21.6-17-32-26-6.6-5.7-18.3-14.2-21-22-16.9-48.7-2.5-120.4 25.1-162.9 18.5-28.5 67.3-74.3 101.4-80.6 7.7-1.4 25.5 4.9 33.8 7.3 11.8 3.4 23.4 7.7 35.2 11.3Z" class="fill" data-original-prefix="fill"/><path id="fill-gasmask-filter8" class="fill"  fill="#fff" d="m1427.8 1555.8-36.2 24.2c-6.9-12-16-22.8-30.5-25.1l15.1-62.7c12.9-6.1 32.3-3.8 41.8 7.3 12.9 15.2 12.1 37.6 9.8 56.3" class="fill" data-original-prefix="fill"/><path id="fill-gasmask-filter7" class="fill"  fill="#fff" d="M1253 1659v-23.5c0-6.3 6-25 8.5-31.5 1.7-4.4 11.2-23.8 14.5-25.6q1.5-.9 3 0l24.9 14.2c-2.7 7.8-5.3 16.7-5.9 24.9-.6 7.6.8 15 .5 22.5l-45.5 18.9Z" class="fill" data-original-prefix="fill"/><path id="fill-gasmask-filter6" class="fill"  fill="#fff" d="M1333 1716c-.2-8.2.2-16.4 0-24.5 0-4.9-1.4-9.5-1.1-15 .9-14.6 3.5-9.7 13.7-14.3 7.3-3.3 16.4-12.1 22.6-14.4 1.1-.4 1.2-.8 2.6-.3 5.2 2.1 12.9 13.4 19.1 16 1.1.9.9 1.3.5 2.5-.7 1.9-12.7 15.5-15 18.1-8.2 8.7-18.5 18-28.4 24.6-1.9 1.3-12.9 8.6-14.1 7.4h.1Z" class="fill" data-original-prefix="fill"/><path id="fill-gasmask-filter5" class="fill"  fill="#fff" d="M1348.8 1583.3c9-1.3 18 1.6 20 11.5 3.6 17.8-26.8 57.9-44.2 40.2-14.9-15.3 4.9-48.8 24.2-51.6Z" class="fill" data-original-prefix="fill"/><path id="fill-gasmask-filter4" class="fill"  fill="#fff" d="m671.8 1492.2 15.3 62.2c-9.2 2.5-17.5 7.2-23.5 14.7-1.8 2.2-6.1 11.1-7.9 10.8l-35.5-24.1c-2.3-18.7-3.1-41.1 9.8-56.3 9.5-11.2 28.9-13.4 41.8-7.3" class="fill" data-original-prefix="fill"/><path id="fill-gasmask-filter3" class="fill"  fill="#fff" d="m795 1659-45.5-18.9c-.3-7.5 1.1-15 .5-22.5-.6-8.2-3.2-17.2-5.9-24.9l24.9-14.2q1.5-.75 3 0c3.3 1.8 12.8 21.2 14.5 25.6 2.5 6.5 8.5 25.2 8.5 31.5v23.5Z" class="fill" data-original-prefix="fill"/><path id="fill-gasmask-filter2" class="fill"  fill="#fff" d="M715 1716c-1.2 1.2-12.2-6.1-14.1-7.4-9.9-6.6-20.2-15.9-28.4-24.6-2.4-2.5-14.3-16.1-15-18.1-.4-1.2-.7-1.6.5-2.5 6.2-2.6 13.9-13.9 19.1-16 1.4-.6 1.5-.2 2.6.3 6.1 2.3 15.4 11.1 22.6 14.4 3 1.4 11.1 2.7 12.2 4.8 3.4 16.1-.9 32.6.5 49Z" class="fill" data-original-prefix="fill"/><path id="fill-gasmask-filter1" class="fill"  fill="#fff" d="M689.7 1583.2c16.7-3.8 35.6 14.9 38 30.5 4.2 26.8-16.9 32.7-34.2 15.2-6.5-6.6-15.9-24.2-14.5-33.3.7-4.8 5.9-11.3 10.7-12.4" class="fill" data-original-prefix="fill"/><path id="outline-shading-mouth2" class="outline"  fill="#000" d="m1012 1429-11 5c-1.3-1.4 7.3-34.7 9.5-37 3.4-3.7 5.1 2.8 6.2 3 1.3.3 13.4.3 14.6 0 1-.2 1.7-7.6 6.2-3.1s9.3 31.1 9.5 34.5c0 1.1.7 3.1-1.5 2.5-3.2-.9-6.1-4.4-9.5-5v34h-24v-34Z" class="shading" data-original-prefix="shading" opacity=".2"/><path id="outline-shading-mouth1" class="outline"  fill="#000" d="M892.7 1373.8c-20.7 32.8-39.6 47.4-18.2 88.3 1.8 3.4 17.4 28.8 19.1 29.1 1.2.2 2.1-.3 3-1 3.2-2.5 8.1-12.1 11.2-15.8.8-.9 1-2.6 2.7-2.3.8 0 2.5 14 6 14.1h213.1c5.2-.2 5.9-7.8 7.2-11.9.2-.8 0-3.1 1.8-2.2 2.7 1.4 11.2 19.5 14.9 18.9 4.7-.8 24.6-37.2 26.7-43.4 10.7-32.1-9.3-47-23.4-71.6-.4-.7-2.8-4.9-.6-4.9 0 1.5 1.1 2.5 2 3.5 16.5 18.6 32.1 37.9 48.5 56.5-.2 6.6 3.3 15-.5 20.5-4.9 7-15.8 14.4-21.5 21.5-8.2 10.2-13.6 24.8-18.4 36.6-4.3 10.5-8.9 20.9-12.1 31.8l20.9 16.4c.5 6.1-6.8 29.3-4.3 33.3 1.1 1.7 8.8 6.2 11 8 9.8 8.2 19.3 16.8 29.1 24.9 3.5 2.9 9.8 6.6 12.5 9.5 3.2 3.4 5 20.4 5.8 26.2 1.4 9.8 1.8 19.8 3.3 29.7 3.1 20.9 6.9 41.8 10.3 62.6l-70-50c-2.3 0-4.1 1-6 2-3.9 1.9-20.2 13.1-23 16s-3.9 10.5-6.2 12.1c-1.8 1.3-7.6 2.3-10.3 3.4-7.9 3.4-15.6 7.2-23.5 10.5 3.5-7.1 14.6-15.9 17-23 1.6-4.9-.7-10.3 1.6-14.9-.8-.7-9.8 5.8-12.6 5.9-1.8 0-3.8-1-5.9-1-40-.2-80-1.5-120.1-1-13.9.2-31.2 2.6-44.9 2-4.4-.2-8.4-5-12.6-5.9 1.9 4.9.2 10.2 1.5 15 1.8 6.7 13.2 15.2 15.5 20.5.5 1.3-.3 1.9-1.5 1.5l-30.9-13.1c-3.1-2.2-3.1-8.3-5.7-11.3-2-2.4-20.1-14.9-23.4-16.6-1.9-.9-3.7-2.1-6-2l-70.5 50c7.8-38 12-76.6 17.4-115.1 1.2-3.9 16.9-14.5 21-18 11.3-9.5 22.2-20 34.3-28.2l-4.6-33.1c1.5-3.3 20.7-15.1 20.9-16.4-3.6-11-8.1-21.7-12.6-32.4-4.7-11.3-9.9-25.6-17.5-35.5-4.2-5.4-19.4-17.2-21.2-21.8-.7-1.6-1.9-14.8-1.8-17.3 0-1.5 0-2.9 1.1-4l50-59c1.7-1.4 1.1 1.6.7 2.3h-.3Zm121.2 121.3c-.8-.7-9.8.2-11.8 0-1.3 9.4-6 18.7-7.7 27.9-.3 1.4 1 3.8 0 4-.8.2-6.1.2-6.4 0-1.2-1-6.4-29.3-8-30.5-2-1.4-10.1 0-13.1-.4l1 39c-1-.2-3.5.3-3.9 0-.8-.8-2.8-18.8-3.5-22-.5-2.2-4-16.3-4.6-16.8-.4-.3-4.4-.3-4.8 0-1.9 11.4-6.2 22.4-8.9 33.6-.4 1.7 0 6.1-.2 6.3s-5.6 0-5.9 0c-1.5-1.3-3.8-34.1-5.1-38.9-.6-.9-9.3 15.8-10.2 17.3-7.4 12.8-4.9 9.4-5.8 24.2-1.4 24.2-2.4 50.7-1.1 75 .7 12.2 3.5 25.2 4.5 37.5 2 2.3 7.3 2 9 4 1.2 1.3 2.8 7.6 4 10s0 2.4 2 1.9c1.9-1 5.2-17.6 6.6-18.9.3-.3 8.5-.4 8.8 0 .7.7 2.4 16.3 3.7 19.8.5 1.2.9 3.7 2.8 3.2 2.9-.7 8.5-21.9 12.2-22.8 1.8-.4 5.2.9 6.2 2.5 1.8 3.1 4.3 21.8 6.7 22.3 1.8-.3 3.4-1 4.2-2.7 2.1-4.1 4.2-26.4 5.2-27.3.3-.3 8.6.8 9 1.1 1.2 1.1 4.8 30 6.2 30.8.6.4 8.4.3 8.8 0l7.1-23.8c1.7 0 3.8-.4 5.4 0 1.2.2 6.7 23.1 7.7 24 .3.3 7.5.4 8.3.2 1.8-.5 5.5-29.9 6.7-31 .3-.3 8.6-1.4 8.9-1.1 1.1 1.1 2.8 24.2 5.6 27.9.6.9 3.7 3 4.5 1.5 2.4-3.7 4.8-21.7 6.1-23.2.6-.7 5.5-1.5 6.8-.7 2.4 1.5 8.7 18.6 10 22.5 2.3.2 2.8.2 3.8-1.7 1.6-3.1 3.4-21 4.8-21.3.8-.2 8 0 8.3.2.6.5 4.1 12 4.7 13.8.4 1.5.3 4.9.4 5.1 3.5 3.5 5.9-10.4 7.5-12s7.8-1.6 8.8-4.2c5.1-34 6-68.9 4.7-103.3-.2-6.3-.7-22.3-2.6-27.4-1-2.5-4-4.5-5.3-6.7-.7-1.3-8.2-17.6-9.2-16.3-1.7 4.8-3.6 37.6-5.1 38.9-.2.2-5.8.3-6 0-.2-.2.3-4.1 0-5.4-.4-1.7-1.6-3.1-2.1-4.9-1.1-4.1-5.8-28.6-6.9-29.6-.4-.4-4.3-.6-5 .5l-7.9 38.4h-4l1-39c-2.9.6-11.1-1-13.1.4-2.1 1.5-6.8 29.4-8 30.5-.7.6-4.9-.2-6.3 0l-7.6-32c-2.1.3-11.1-.6-11.9 0-1 .8-5 21.1-5.9 24.6-.3 1.4 0 5.1-.2 5.3-.3.3-6.4.2-7.4 0-1.5-.2-5.4-28.9-6.7-29.9l.2-.3ZM1122 1682c-29.2.9-58.2 3.4-87.4 5.1-27.3 1.5-57.3-2.1-84.9-3.4-7.3-.4-14.7-2.7-22.2-1.6-1.3.2-1.8-.5-1.5 1.5.7 4.7 9 15.9 13.8 17.2 14.3 3.9 32.1 2.3 46.7 2.2 28.7-.2 57.7.5 86 0 9.9-.2 27.5.7 36.6-2.4 3.9-1.4 15-16.6 12.9-18.5Z" class="shading" data-original-prefix="shading" opacity=".2"/><path id="outline-mouth9" class="outline"  fill="#000" d="M1213 1438c12.3-8.3 31.4-24.7 47.3-21.8 5.6 1.1 16.2 9.7 20.2 9.7s16.1-9.7 26.9-8.8c14.2 1.2 37.5 7.5 52.1 11 25.4 6 55.6 13.9 79.8 23.2 14.4 5.5 15.6 8 20.2 22.8 24.4 78-7.5 190.4-67 246-27.9 26.1-80.4 59.5-120 55-9.9-1.1-41.8-24.2-51.8-31.2-16.4-11.4-32.4-23.5-48.2-35.8l-26.2 17.3-4.1 11.4c-22.9 14.4-47.9 26.7-71.7 40.3-29.8 2.1-60 .5-90 .8-25.3-12.4-50.7-26.8-74.8-41.2l-4.1-11.4-26.2-17.3c-12.6 9.7-25.2 19.6-38.2 28.8-11 7.8-51.2 37-61.8 38.2-49.7 5.6-117.6-45.2-145.3-83.7-30.8-42.7-53-114.2-50.2-166.9.8-16 5.9-50.7 13.8-64.2 4.2-7.1 20.4-10.9 28.4-13.6 38.9-13 79.1-21.8 119.3-29.8 7.1-2 21.5 9 26 9s14.6-8.6 20.2-9.7c15.8-3 35 13.5 47.3 21.8-.6-5.2 2.2-8.8 4.6-12.9 11.9-20.9 38.4-53.2 55.4-70.6 3.9-4 9.4-7.1 13.5-11.5 7.4-7.8 13.6-19.5 21.5-26.5 14.7-13.2 47.3-29.7 66-37 7.8-3 24.5-9.8 32.2-8.3 21.1 4 74.9 31.4 90.7 46.2 7.1 6.7 13.4 18 20.5 25.5 24.6 26 50.3 50.6 68.9 82.1 2.4 4.1 5.2 7.9 4.6 12.9zm-75 132c4.9-38.1 23.1-74.8 47-104.5 5.9-7.2 20.9-19.4 18.8-29.8-.6-3.1-16.3-23.6-19.4-27.6-35.9-46.7-81.1-93.9-136.7-116.3-8.6-3.4-31.7-4.3-40.9-2.6-6 1.1-25.9 12-32.4 15.6-31.3 17.1-52.9 37.2-76.8 63.2-19.3 20.9-37.2 43.3-53 67-1.3 13.3 11.1 21.4 18.5 30.6 19.5 24.2 33 50 42.3 79.7l5.7 24.8-2.5-110.1h109.6c.6-14.5 4.5-26.9-2-40.9-1.7-.4-2 .7-3 1.5-4.3 3.3-19 22.3-21.5 22.6-3.8.3-15.3-12.2-18.5-15.5-8.8-9.2-21.8-22.7-29.4-32.6-5.2-6.8-7.2-10.2-3-17.8 5.2-9.5 24.4-34.6 32.4-41.6 5.6-5 7.8-5.3 14-1.9 12.4 6.8 24.9 17.3 36.7 25.3 12.6-7.5 25.2-18.9 38-25.7 6.3-3.3 9.1-1.7 14.3 3.3 7.4 7 27.9 33 32.1 41.9 3.3 7 .4 11.3-4.2 17.2-9.1 11.6-29.4 34.4-40.4 43.6-2.5 2.1-5.8 5.6-9.1 3.1-4.3-5-8.9-10.8-13.4-15.6-1.3-1.3-7.7-8.4-9-7.5-6.5 14-2.7 26.5-2 41h109.6l-1.6 110zm-249 90c2.7-2.6 7-27.7 7.1-32.5 1.1-71.5-27-138.5-83.6-182.5-9.4-7.3-19.9-16.9-32.5-12-.4 1.8.9 2.5 2 3.5 6 5.8 15 11.5 21.5 17.5 30.2 27.5 58.3 62.6 71.2 101.8 11 33.4 11.8 67.9 12.3 102.7-.7 1.7 1.5 2 2 1.5m379-227c-12.6-4.9-23 4.7-32.5 12-56.5 44-84.7 111-83.6 182.5 0 4.8 4.3 29.8 7.1 32.5.5.5 2.7.2 2-1.5.5-34.9 1.3-69.4 12.3-102.7 12.9-39.2 41-74.3 71.2-101.8 6.5-5.9 15.6-11.6 21.5-17.5s2.3-1.7 2-3.5m-597 24c110.3 31.7 186.1 161.6 142.5 272 10.7-8.6 21.6-17 32-26 6.6-5.7 18.3-14.2 21-22 8.1-23.2 7.7-59.1 4.3-83.3-7.9-56.5-37.7-102.4-83.5-135.5-10.7-7.7-40.1-26.1-52.7-25.1s-49.2 13.3-61.6 18.4c-1 .4-2.3 0-2 1.5m706-1c-11.8-3.6-23.4-7.8-35.2-11.3-8.3-2.4-26.2-8.7-33.8-7.3-34 6.3-82.9 52.1-101.4 80.6-27.6 42.6-42 114.3-25.1 162.9 2.7 7.8 14.4 16.3 21 22 10.4 9 21.3 17.4 32 26-39-99.2 17.5-212.7 108.8-259.2l33.7-13.8Zm-738.3 11.2c-48.2 7.5-39.8 78.4-32.2 112.8 11.2 51.4 35.8 106.3 79.8 137.2 33.4 23.4 88.7 51.4 114.9 3.5 31.5-57.6-4.1-148.3-44.7-193.7-25.1-28.1-78.2-65.9-117.8-59.8m755.1.1c-95.5 9.3-181.2 146.6-153.7 237.2 20.2 66.6 80 42 121.7 12.8 37.6-26.4 59.1-67.4 72.6-110.4 13.4-42.9 33.5-146.7-40.5-139.5ZM1130 1472H918v10h212zm-168 16c-.5-.5-13.8.5-14.8 1.2-.4.3-3 8.2-3 9.3s.9 3.2.9 5c-.7 45 1.8 90.2 4 135 .6 12.5-.3 25.2 2 37.5l12.9.9c.4-2.1 1-4.2 1.1-6.4 1.6-23.1-.7-47-1.1-70-.5-32.7-.3-65.4-2-98-.3-4.8.3-9.7 0-14.6Zm22.9.1c-.8-.7-10.7.3-12.9 0 .7 3.6-.9 7.1-1 10.5-1.3 50.7 1.8 105.1 3.1 156 .2 8.1-1.5 15.4 0 23.5 3 0 11.5 2.7 13.5 0 .8-1 2.3-9.6 2.5-11.5 1.2-14.5.2-33.2 0-48.1-.4-29.9-2.3-60.1-3.1-89.9-.2-6.4 1.2-37.6-2.1-40.4Zm32.1-.1h-20c0 5.7-1.1 10.8-1 16.6.7 50.7 1.4 102.3 4.1 152.9.2 2.8-.7 22.5 2.5 22.5h15.5c2.3-11.2 2.2-22.1 2-33.6-.7-45.4 1.2-94.1-1-139-.3-6.2-1.8-13.2-2-19.5Zm34 0h-20c-.2 6.3-1.7 13.2-2 19.5-2.2 44.9-.3 93.6-1 139-.2 11.5-.2 22.3 2.1 33.6h15.5c3.2 0 2.3-19.7 2.5-22.5 2.6-50.6 3.4-102.3 4.1-152.9 0-5.8-.9-10.9-1-16.6h-.2Zm25 0c-2.2.4-12.1-.6-12.9 0-.3.3-2 7.2-2.1 8.4-2.1 21.3-.4 48.1-.9 70.1-.8 31.4-4.6 69.1-2.1 100 .2 2.2 1.4 9.2 2.2 10.8 1.9 3.8 10.2.7 13.8.6 1.5-8.1-.2-15.4 0-23.5 1.3-51.4 3.7-103.6 3.1-155 0-3.9-1.6-7.5-1-11.5Zm24.8 1.2c-1.1-.7-14.3-1.7-14.8-1.2-1.3 37.5-1.4 75-1.9 112.6-.3 23-2.6 46.9-1.1 70 .8 11.5 5.5 4.4 14 5.4 3.7-41.7 4.1-83.5 5-125.5.4-16.9 2.4-35.1 1.9-52 0-1.1-2.6-9-3-9.3Zm-166.9.9-14.8.9c0 2.8-.3 5.7 0 8.5 3.5 55.5 2.8 111.7 8 166.9 0 1.1.9 6.2 1.1 6.4.4.4 8.8 1.6 9.7 1 2.7-10.8 2.3-22.2 2.2-33.4-.3-23.8-2.4-48.1-3.1-71.9-.7-22.2.8-47.4-.9-69.1-.3-3.2-1.1-6.3-2.2-9.3m195 1-14.8-.9c-.8 2.7-1.8 5.5-2.1 8.4-2.1 21.6-.3 47.9-1 70-.7 23.8-2.8 48.1-3.1 71.9 0 4.4-.4 32.9 2.7 33.6 1.1.2 8.9-.9 9.2-1.2s1-5.3 1.1-6.4c4.6-47.9 5.1-96.9 7.1-144.9.4-10.1.3-20.4.9-30.5m-195.6 213.6c-2-1.7-14.8-16.8-16.3-19.2-2-3.2-2.8-11.8-3-16-1.1-17.7 0-36.7-1-54.5l-2 9.5c-.6 8.7-.5 36.3-6 42-1.9 2-6.9 2.8-6.8 5.8l19.3 54.7 74.3 34.7c21.7.5 52.4 5.3 72.4-3 16.8-7 36.8-16.6 53.2-24.8 3.1-1.5 12.6-5.6 14.1-7.9l18.4-53.7c0-3-4.9-3.8-6.8-5.8-3.7-3.9-5.4-23.7-6-30-.6-7.1 0-14.4-1-21.5l-2 18.4c-.3 9.7 1 45.9-2.9 52.1-1.5 2.3-14.4 17.4-16.3 19.2-2.8 2.4-6.6 3.1-10.1 3.4-51.4 4.4-109-3.4-161.1 0-3.5-.3-7.4-1.1-10.1-3.4zm-38.3-.7-9-28c.6 4.1-4.7 16.8-3.9 19.3.3.8 12.2 9.4 12.9 8.7m258 0c.7.7 12.6-7.8 12.9-8.7.8-2.6-4.5-15.2-3.9-19.3zm-36-22c-16.1 1.9-32.3 4.7-48.5 6-24.9 2.1-51 2.6-76 1-20.6-1.3-41-4.9-61.5-6.5 1.7 3.3 7.5 14.9 10.5 15.5 55.4.7 110.5 1 165.8-.2 1.5-.5 10.4-15.1 9.7-15.8" class="outline" data-original-prefix="outline"/><path id="outline-mouth8" class="outline"  fill="#000" d="m1436.8 1563.8-50.7 34.2c-4-18.3-19.9-33.9-39-35l20.2-81.8c23.3-7.5 49.2-10.2 65.8 11.3 12.3 16 8.8 52.5 3.8 71.2h-.1Zm-9-8c2.3-18.7 3.1-41.1-9.8-56.3-9.5-11.1-28.8-13.4-41.8-7.3l-15.1 62.7c14.4 2.3 23.6 13.1 30.5 25.1z" class="outline" data-original-prefix="outline"/><path id="outline-mouth6" class="outline"  fill="#000" d="M1315.9 1589.1c-3.2 14.3-8.1 27.2-6.9 42.4.2 2.8 3.5 14.4 2.9 15.4L1243 1679c-3.3-39.5 4.8-84.4 31.5-114.8zM1253 1659l45.5-18.9c.3-7.5-1.1-15-.5-22.5.6-8.2 3.2-17.2 5.9-24.9l-24.9-14.2c-1.1-.5-2-.5-3 0-3.3 1.8-12.8 21.2-14.5 25.6-2.6 6.5-8.5 25.2-8.5 31.5v23.5Z" class="outline" data-original-prefix="outline"/><path id="outline-mouth61" class="outline"  fill="#000" d="m1320.1 1732.9 6.4-73.9c1.2-2.2 7.5-2.1 10.1-2.9 7.3-2.2 13-4.4 19.3-8.7 3.8-2.6 9.9-9.5 13.2-10.9 1.4-.6 2.3-.6 3.7.3l28.8 23.2c.8.7 1.4 1.5 1.4 2.6 0 3.4-16.1 23.8-19.5 27.5-10.6 11.7-44.7 41.1-59.5 43.6-1.4.2-2.6 0-3.9-.7Zm12.9-16.9c1.2 1.2 12.2-6.1 14.1-7.4 9.9-6.6 20.2-15.9 28.4-24.6 2.4-2.5 14.3-16.1 15-18.1.4-1.2.7-1.6-.5-2.5-6.2-2.6-13.9-13.9-19.1-16-1.4-.6-1.5-.2-2.6.3-6.2 2.4-15.3 11.1-22.6 14.4-10.2 4.6-12.8-.3-13.7 14.3-.3 5.5 1 10.1 1.1 15 .2 8.2-.2 16.4 0 24.5h-.1Z" class="outline" data-name="outline-mouth6" data-original-prefix="outline"/><path id="outline-mouth5" class="outline"  fill="#000" d="M1348.7 1574.2c9.1-1.4 16.2.2 22.2 7.3 23.8 27.5-23.6 86.8-50.5 63.5-21.9-19 1.7-66.6 28.2-70.8zm.1 9.1c-19.3 2.8-39.1 36.3-24.2 51.6 17.3 17.8 47.8-22.3 44.2-40.2-2-9.8-11-12.8-20-11.5Z" class="outline" data-original-prefix="outline"/><path id="outline-mouth4" class="outline"  fill="#000" d="M680.8 1481.2 701 1563c-19.6 1.1-34.5 16.9-39.5 35l-50.6-34.7c-4.5-19.3-8.4-55.2 4.6-71.3 16.9-21.1 42-18.2 65.3-10.8m-9 11c-12.9-6.1-32.3-3.9-41.8 7.3-12.9 15.2-12.1 37.6-9.8 56.3l35.5 24.1c1.8.3 6.2-8.6 7.9-10.8 6-7.5 14.3-12.2 23.5-14.7z" class="outline" data-original-prefix="outline"/><path id="outline-mouth3" class="outline"  fill="#000" d="m805 1679-69.1-32.7c2.3-8.9 3.8-17.5 3.1-26.8-.8-10.5-5.2-20.2-6.9-30.4l41.4-24.9c26.7 30.5 34.8 75.3 31.5 114.8m-10-20v-23.5c0-6.3-6-25-8.5-31.5-1.7-4.4-11.2-23.8-14.5-25.6q-1.5-.9-3 0l-24.9 14.2c2.7 7.8 5.3 16.7 5.9 24.9.6 7.6-.8 15-.5 22.5l45.5 18.9Z" class="outline" data-original-prefix="outline"/><path id="outline-mouth2" class="outline"  fill="#000" d="M727.9 1732.9c-.3.6-3 .8-3.9.7-14.8-2.5-48.8-31.9-59.5-43.6-3.4-3.7-19.5-24.1-19.5-27.5s.7-1.9 1.4-2.6l28.8-23.2c1.3-.8 2.2-.9 3.7-.3 3.2 1.4 9.3 8.3 13.2 10.9 6.3 4.3 12 6.6 19.3 8.7 2.7.8 8.9.7 10.1 2.9l6.4 73.9ZM715 1716c-1.4-16.4 2.9-32.9-.5-49-1-2.1-9.2-3.4-12.2-4.8-7.2-3.4-16.5-12.1-22.6-14.4-1.1-.4-1.2-.8-2.6-.3-5.2 2.1-12.9 13.4-19.1 16-1.1.9-.9 1.3-.5 2.5.7 1.9 12.7 15.5 15 18.1 8.2 8.7 18.5 18 28.4 24.6 1.9 1.3 12.9 8.6 14.1 7.4Z" class="outline" data-original-prefix="outline"/><path id="outline-mouth1" class="outline"  fill="#000" d="M687.7 1574.2c37.2-7.7 66 59.2 35.5 73.5s-68.2-42.3-45.8-66.8c2-2.2 7.4-6.2 10.2-6.8Zm2 9c-4.8 1.1-9.9 7.6-10.7 12.4-1.4 9.1 8.1 26.8 14.5 33.3 17.2 17.5 38.3 11.7 34.2-15.2-2.4-15.7-21.3-34.3-38-30.5" class="outline" data-original-prefix="outline"/></g></svg>