<?xml version="1.0" encoding="UTF-8"?>
<svg xmlns="http://www.w3.org/2000/svg" viewBox="0 0 2048 2048">
<style>
  .outline { fill: #000000; }
  .fill { fill: #ffffff; }
  .shading { fill: #aaaaaa; opacity: 0.5; }
</style>




<g class="background"><path id="color-brown" fill="#564624" d="M2048 4.5q-.15 1019.4 0 2038.8c0 3.8-.8 4.6-4.6 4.6q-1019.4-.15-2038.8 0c-3.8 0-4.6-.8-4.6-4.6C.2 1362.3.1 681.2.1 0h2043.3c3.8 0 4.6.8 4.6 4.6z" data-original-style="transition:fill .3s ease" style="fill: #564624" class="color"/></g>
<g class="trait-group" data-category="jaw"><path id="fill-jaw" fill="#fff" d="m1382.8 1128.2 12.4 130.2 60.9 48.3-49.6 133.4c-1 1.4-2.4 1.1-3.9.9-13.9-1-32.8-8.5-47.4-10.7-1.8-.3-3.5-.4-5.2-.3 1.2 4.7-1.2 7.6-2.1 11.4-4.9 22.2-7.7 45-12.1 67.4l-57.2 29.3-1.4 1.6c-1.1 12 1.6 23.9.9 35.9-.3 5-1.3 14.9-2.3 19.7-.6 2.8-13.7 32.2-15 33.5s-16.1 8.9-16.7 8.3l-9.5-50-51 52c-7.7 5.7-20.7 9.3-27.5 15.5-14 12.7-24.7 36.5-41.4 47.6-5.5 3.6-58.7 25.2-65.4 26.6-2.4.5-46.7.7-49.3.2-6.2-1.1-59.9-22.7-65.6-26.3-14-8.8-29.1-36.3-42-48-6.7-6.1-19.9-9.6-27.5-15.4l-51-52-9.6 48.4c-.6.9-.9 1.7-2.2 1.5-.8 0-13.8-7.6-14.4-8.2-1.4-1.4-15.6-32.9-16-35.5l-.7-54.3-58.2-30.3-12.3-69.7c-16.4-1.1-33.5 3.9-49.5-1l-37.3-85.8c-.7-3.4 4-13 5.6-16.9 8-19 17.8-37.3 25.7-56.3 9.2-2.5 21.3 1.1 29.9-5.1 4-2.8-.2-18.8 0-23.9l-19-32.1-.3-2.2 27.6-63.5c1.4-9.9-3.2-21.4-1.1-31.1 1.3-6.2 9.7-21.7 13.2-27.9 54.6-98.4 184.4-157.8 290.2-180.8 48.2-10.5 90.3.5 136.5 15.4 98 31.8 198 94.6 250.7 185.3 3.2 5.5 3.8 13.3 10.7 14.8h-.7Z" class="fill" data-original-prefix="fill"/></g><g class="trait-group" data-category="jaw"><path id="fill-jaw1" fill="#fff" d="M1265.7 1351.3c9.2 7.7-4.5 25.9-12.2 15.7s2.9-23.4 12.2-15.7" class="fill" data-name="fill-jaw" data-original-prefix="fill"/></g><g class="trait-group" data-category="jaw"><path id="fill-jaw2" fill="#fff" d="M1314.6 1391.2c7.8-1.5 6.2 19.1-2.9 17.7-9.8-1.5-.6-17 2.9-17.7" class="fill" data-name="fill-jaw" data-original-prefix="fill"/></g><g class="trait-group" data-category="jaw"><path id="outline-shading-jaw" fill="#000" d="M1377.3 1124.7c2.2 2.7 13.8 4 14.5 10l8.4 112.6c17.4 18.9 36.8 35.9 56.4 52.6l1.5 3.6-51 135.8c-1 1.6-3.7 1.7-5.4 1.6-14.4-.9-32.2-8.4-47.3-8.9-1.8 0-3.2-.2-4.4 1.3l-14.4 75.6-59.4 30.1c.4 11 2.6 23.6 2 34.5-.3 5.7-1.3 15.4-2.1 20.9-.5 3.1-13.4 31.4-15.4 33.6-3 3.2-11.6 6.2-15.5 9l-12-46.4-2.4-.6-46.1 47.9c-7.8 6.2-20 9.3-27.5 15.5-14.2 11.7-24.4 36.1-41.5 47.5-6.8 4.6-52.9 25.2-60.4 26.6-9.5 1.7-52.8 1.8-62.3.2-7.6-1.3-48.1-19.8-56.6-24.4-16.2-8.6-30.7-38.5-45.1-49.9-7.1-5.7-18.8-9.3-26.5-14.5l-48-49-8.5 47c-1.4 1.2-18.5-6.9-20.5-9-1.7-1.8-15-30.8-15.4-33.6-.7-4.4-.9-13-1.1-17.9-.5-12.2.6-24.4.5-36.6-18.8-11.7-39.4-20.3-58.6-31.4l-13.1-67.4-46.4.9-36.3-91.7-.2-2.3c6.7.3 9.7 6.8 15.7 10.8 19.1 12.8 34.2 19.3 57.7 16.1 20.6-2.8 26.4-11.2 48-1.7 16.1 7.1 19.4 16.7 31.2 25.8 13.2 10.2 17.5 3.6 25.9-7.1 6.9-8.8 25.8-41.6 27.4-51.6 1.7-10.7-3.8-11.2-13-10-8.6 1.1-48.4 15.1-51 14.6-1.7-.4-12.3-7.9-16.5-9.6-20.3-8.4-48.8-11.8-67.2-20.8-14.3-6.9-12.2-21.7-18-34.5l21.5-4.1c1.9.3 10.9 13 13.5 15.6 13.7 13.8 58.3 32.8 77.6 33.5 3.4 0 6-1 8.9-1.1h20.5l-34.7-16.8c-19.1-10.8-48.2-33.1-61.8-50.2-6.2-7.7-7.1-18.3-10.5-27.5-6-16.6-14.4-32-25-46 1.3-9 6.5-19.6 7.8-28.2 2.8-19.1 3.8-27.8 12.1-45.9 49-107.6 188.2-173.2 298.2-196.8 27.9-6 50-5.8 77.9 0 118 24.3 244.7 92.5 307.8 198.2 1.9 3.1 5.2 12.6 6.5 14h-.4ZM1326 1307c15.3-11.2 31.9-21.8 44.5-36 6.1-22.7 14.6-45.7 13.5-69.6l-2.1-29.5c-1.4.2-1.9 1.8-2.5 2.9-16.8 30.8-29.1 66.4-47 97l-62.3 38.7.4 3.3c5.9 15.3 32.8 49 33.4 63.6.2 4.3-2.2 10.7-.7 15.7 1.1 3.6 11 9.8 15.2 9.4l62.4-18.5c8.3 1.2 16.7.9 25.1.6l36.7-78.8.3-3.3c-14.1-10.8-29-21.4-44.3-30.7l-2.8 11.8c-13.3 5.6-27.2 16.2-40.4 21.1-6.7 2.5-16.4 2.8-23.8 3.2-1.2 0-5.6.7-5.5-1Zm-248 20c-5.1-10.6-9.9-23.3-16.6-32.9-6.5-9.4-23.8-30.4-31.9-38.1-4.2-4-7-3.9-11.1 0-7.7 7.4-27 30.2-32.9 39.1s-10.5 22.1-15.6 31.9zm200.7 70.7c1.4-1.6 8.8-25.5 9.1-28.5.4-4.4-3.5-11.7-5.6-15.9-3.8-7.3-18.5-32.7-23.6-37.4-5.7-5.3-8-1-14 1.1-11.8 4-23.6 7.8-35.5 11.5-1.3 1.1-1.1 1 0 2 3 2.6 6.7 4.5 9.4 7.6 6.8 8.1 12.2 22 18.6 30.9l3.1-12.4c.8-3.8 7.7-7.4 10.8-5.4 1.2.8 3.6 11.4 7.9 12.7 6.1 1.8 8.2-5 11-5.7 4.2-1 10.3 3.7 10.1 8.1-.5 11.3-14.6 20.3-25.1 18.6-1.1-.2-10.1-4.8-8.7-1.3 3.1 2.8 14.4 21.8 16.7 22.4 2 .5 14.5-6.5 16-8.2h-.2Zm-550.4 99c1.6 2 8.2 6.3 10.7 7.8 14.8 8.8 31.7 13.8 46.9 23.1 16.8 10.2 40.2 33.1 59.6 33.5 2.3 0 8.7-1.2 9.4-3.7.8-2.7-13.5-27.5-16.4-30.3-7.3-7.2-27.5-17.2-37.2-23.8-15.2-10.3-50.3-39.1-67.9-39.2-10.5 0-8.7 28.1-5.1 32.7Zm591.4-30.4c-6.1-6-24 4-30.4 7.6-16.3 9.1-30.8 21.3-46.2 31.8-9.3 6.4-25.4 13.9-33.1 20.9-3.1 2.8-16.2 24.5-16.9 28.2-1.1 5.3 6.2 6.5 10.3 6.3 16.8-1 25.6-11.2 38.2-19.8 8.3-5.7 17.3-12.1 26-17 11.7-6.6 47.1-19.2 52.7-29.3 2.4-4.3 2.8-25.2-.7-28.6ZM1126 1664c-12-2.7-20.7 6.6-31.6 7.9-5.7.7-12.2-1.2-16.6-.7-7.1.8-22.9 12.1-31.2 14.9-14.8 4.9-30.2 4.7-45.1 0-8.8-2.8-23.9-14.1-31.2-14.9-4.4-.5-10.9 1.4-16.6.7-11-1.3-19.9-11-31.6-7.4 0 7 23.7 23.4 30 27 12.5 7.1 59.7 26.8 72.5 26.6s59.8-19.7 72.2-26.9c3-1.8 33.6-23.3 29.3-27.2z" class="outline" data-original-prefix="shading" opacity=".2"/></g><g class="trait-group" data-category="jaw"><path id="outline-jaw" fill="#000" d="M1378 1122c.3-3.9.6-9.1 5.7-9.8 7.8-1.2 8.7 12 9.3 17.3 3.8 33.8 2.1 69.1 8.3 102.7 2.2 11.9 3.2 13.8 12.3 21.7 14.8 13 33.2 22.8 47.5 36.5 2.6 2.5 11.8 12.2 12 15.1l-66.1 156.3-46.9-24.9c-1.8 6.1-5.4 12.6-6.7 18.8-4.1 19.2 0 41.1-2.2 59.8-.4 3.4-10.5 17.5-13.3 18.7-6.4 3-16.2-1.8-24.7 3.3-23.8 14.4-17.9 48.6-27.2 68.8-7.8 17-37 48.2-52.9 58.1-1.6 1-2.9 1.9-4.9 1.6 1.1-14.8 3.1-34.9-3.9-48.6-.4-.8-.4-3.2-2.1-1.4-.7.7-3.6 13.8-6.6 17.9-5.8 7.9-20.7 8.9-29.4 12.6-16.7 7-14.3 32.7-27.7 43.3-19.3 15.2-61.2 32-85.1 38.9-10.8 3.1-38.9 11.3-48.7 11.3-15 0-63.4-15.1-78.8-21.2-11.1-4.4-55.3-26-60.6-34.4-6.9-11.1-8.5-31.6-21.5-37.6-14.5-6.6-26.4-2.4-33.9-20.1-1.1-2.5-2.5-10.3-2.8-10.7-1.3-1.6-1.8.4-2.2 1.3-6.9 12.5-5 34.9-3.8 48.7-2 .3-3.3-.6-4.9-1.6-15.7-9.8-48.9-44.4-54.2-61.8-6.2-20.6-5.3-52.1-25.9-65.1-8.2-5.2-18.3-.3-24.7-3.3-.9-.4-12.2-14.2-12.7-15.3-2.1-5.2-.2-29.6-.5-37.4-.4-9.1-2-18.5-3-27.5-4 1.6-7.6 4.7-11.9 5.6-2.8.6-5.6.7-8.5.3-4.7-.6-27.4-9.9-32.6-12.4-1.3-.7-2.7-1.2-3.5-2.5-2-33.7-22.2-63.7-44-88-2-4.4 2.1-14.5 3.7-19.2 6.2-17.8 15.6-36.4 25.7-52.3 3.2-5.1 14.2-22 17.9-25.1 5.5-4.4 9.8 3.3 14.6 6.6 1.6 1.1 12.7 7.8 13.5 7-2.9-7.2-9.4-11-13.8-17.7-4-6-15.9-26.4-15.8-32.6s5.4-17.7 6.5-25.3c.5-3 1.1-8.8 1.2-11.8.2-6.5-3-17.5 1.3-22.2 1.2-1.4 12.8-6.5 14.1-6.2.9.2 5 11.2 10.5 7.8 2.3-1.4 1-34.7 0-39.9.3-.3 7.6 1.8 8 2 1.8 1.1 7 8.1 9.8 9.7.5 8.4 3.4 20.7 1.1 28.7-2.8 10.1-17.5 14.8-21.2 22.8-1.2 2.6-6.4 25.9-6.7 29.3 0 1.2-.2 2.4.2 3.7 4.8 10.3 13.7 19.4 18.7 29.3s9 33.8 15.5 40c5.3 5.1 14.5 7.1 21 10.5 7.5 4.1 15.7 10.7 22.7 15.8-11.3-1.3-47.2-5.2-54.5-13-3.3-3.6-5.7-15.7-9.6-17.4-2.6-1.2-6.2-.2-9.2-.8-7-1.2-10.7-7.9-18.5-1.5-6.6 12.5-14.3 24.3-20.4 37.1-7.4 15.4-14.8 25.1-4.8 41.2 5.3 8.6 23.3 26.7 25.6 34.4 2.5 8.6-2.7 28 2.9 34.1 6 6.6 20.6 4.5 27.8.8 10.6-5.4 8.7-9.9 14.3-18.7 5.2-8.2 19.7-23.1 28.9-26.2s13.4 8.6 15.6 15.5c7.3 23.8-.2 34 22.5 51.5 11.6 8.9 33.3 20.1 47.8 17.9 8.5-1.2 21.1-6.6 27.2-12.8 7.2-7.5 8.8-24.6 24-14 15.8 11 30.3 30.1 46.6 41.4 20.5 14.3 77.5 32.5 102.5 34.6 37 3 105.5-17.1 134.5-40.5 11.5-9.3 21.6-20.6 33-30 4-3.3 11.6-11.3 17-8 .7.5 7.5 12.5 9.2 14.8 3.3 4.7 11.5 16.1 17.4 16.7 7.4.8 31.3-15.5 40.2-17.2 8.1-21.2 17.3-42.1 23.5-64 2.8-9.9 8.4-24.8 3.8-34.3-2.1-4.2-21.3-33.6-24-36-3-2.7-9.6-5-13.5-6.5-3.3-1.2-19.8-5.2-20.5-6-1.5-1.4.4-1.7 1.3-2.2 1.3-.7 11.6-5.7 12.3-5.8 2.6-.4 25.4 6.8 27.4 8.5s8.6 15.3 11 19c5 7.6 19.5 25.4 20.8 33.2.4 2.5.5 4.9-.2 7.3l-26.5 74.9c22.1-8.1 42.1-21.6 63.6-30.8 4.1-1.8 12.4-6.1 16.3-4.6 4.7 1.7 16.6 11.3 22.4 14.6 2.4 1.4 18.7 10.5 19.7 9.8l48.1-125.5c-.2-2.1-12.6-9.7-15.4-11.7-13.3-9.9-23-17.3-37.4-25.6-7.1-4.1-7.5-7.8-8.3-15.7-2.2-22.8-2.4-46.1-4-69-1.5-20.8-6.3-45.1-5-65.5h-.7Zm-649 280c-5.9.4-11.3 6.2-14.4 11.1-12.8 20.4-.6 26.3 1.3 45.5 1.3 13.2-3.2 33.5 4.7 44.3 5.3 7.3 21.6 10.7 30.1 14.9 3.6 1.8 23 13.2 24.8 15.2.4.4 3.3 5.3 3.3 5.6 0 .8-3.5 12.2-3.8 15.8-1.9 24 4.5 52.9 21 71l5 4.5c.9-4.6-1.1-9.2-1.1-13.5 0-12.5 8.2-24.3 10.1-36.5 23.5 5.4 36.4 28.6 51.4 45 11.3 12.4 23.8 14.5 34.1 23.9 6.5 5.9 11.9 15.9 17.5 22.5 14.6 17.4 20.2 23.3 41.3 32.7 29 13 50.6 21 83.2 18.9 16.8-1.1 61.8-19.2 76.4-28.6 16-10.4 26.2-34.2 40.1-45.9 10.6-9 21.7-10.9 32.5-22.5 15.6-16.6 28.5-40.5 52.5-46 .8 9.9 6.9 18.2 8.7 27.8 1.5 7.6.3 13.6.3 21.2 7.8-5.3 15.2-16.8 18.8-25.6 5.4-12.9 8.1-33.2 7.2-46.9-.2-3.4-3.8-17.5-3.5-18.4.6-1.7 3.6-5.7 5.2-6.9 4.5-3.4 17.3-10.6 22.7-13.3 11.7-5.9 31.5-8 33.6-23.4s-.7-31.7 3.8-48.2c1-3.6 5.3-8-1.4-5.4-30.7 11.8-63.4 35.5-93.6 46.4-10.1 3.6-23.8 2.7-32.8 7.2-6.8 3.5-11.5 12.3-16.4 17.6-16.2 17.4-41.8 25.6-65 28-69.4 7-135.6 6.9-205 0-21.7-2.1-46-9.9-62.5-24.5-5.9-5.2-10.7-15.4-19.3-15.2-3.9 0-8.2 3.3-11.2 3.7-5.5.6-22.8-12.9-28.7-16.2-15-8.4-31.4-14.8-46-24-2.8-1.8-16.7-11.4-17.8-13.2-2.8-4.9.2-12 0-17.1 0-10.4-4.3-21.6-7.1-31.5" class="outline" data-original-prefix="outline"/></g><g class="trait-group" data-category="jaw"><path id="outline-jaw1" fill="#000" d="M1253.7 1342.2c12.9-2.4 29.1 10.8 24 24-3.6 9.3-14.2 17-24.2 12.8-15.8-6.5-17-33.6.3-36.8zm12 9.1c-9.3-7.8-20.1 5.1-12.2 15.7s21.4-8 12.2-15.7" class="outline" data-name="outline-jaw" data-original-prefix="outline"/></g><g class="trait-group" data-category="jaw"><path id="outline-jaw2" fill="#000" d="M1313.7 1382.2c20.2-4.4 22.1 39.9-4.2 35.7-17.9-2.8-9.8-32.7 4.2-35.7m.9 9c-3.6.7-12.7 16.2-2.9 17.7 9.1 1.4 10.8-19.2 2.9-17.7" class="outline" data-name="outline-jaw" data-original-prefix="outline"/></g>
<g class="trait-group" data-category="mouth"><path id="fill-muzzle-1" fill="#fff" d="M1038 1292s-.4 1.7.7 2c10.3 2.8 18 4.3 25.8 13 1.9 2.2 4.9 8.8 6.5 9.5 2.6 1.2 6.6 0 9.5.5 11.4 1.5 21.2 3.7 31.2 9.8 2.1 1.3 9.2 7.8 10.2 7.1.3-.3 0-1.7 0-1.9 2.4-1.8 32.7.6 38 1 5.2 4.2 13.2 5.5 19.2 8.3 13.7 6.4 22.5 16.1 29.9 29.1 8.4 14.6 7.7 17.8 3.1 33.4-2.5 8.5-4.8 21.8-16.3 20.2 1.5-15.5-14.8-32.4-26.5-41-3.2-2.4-11.3-7.2-6 0 10.7 14.6 20.5 15 21.5 37.5.5 10.4-8.3 32.8-15.4 40.5-.6.7-7.1 6.3-7.6 6.5-3 1.6-6.8-6.1-7.8-8.2-3.7-7.7-4.8-15.6-9.7-23.3-1.1-1.7-10.8-13.7-12.4-12.1 5.6 13 9 46.2-2.5 56-4.4 3.7-9.4 1.9-13.3 3.7-2.8 1.3-3.1 5.8-4.8 6.2-.9.2-7.2-3.2-9.4-3.5-9.3-1.3-13.1 17-18.7 17.4-2.5.2-10.7-11.9-18.4-9.4-6.8 2.2-15.3 20.6-23.6 23.5-7.3-4.5-4.2-14-6.6-21.1-1.2-3.5-4.2-6.7-5.8-10.2-5.4-12.7-2.8-19.9-.2-32.2.7-3.3-.2-6.3 1.2-9.8.4-1 6-11.5 6.6-12.4 3.7-5.4 19.2-12.4 22.7-3.8.9 2.2 0 8.7 2.2 7.7 5.1-4.9 10.2-9.9 15.5-14.5 10.2-8.9 12.8-8.2 19.5-21.5 1.9-3.8 8.1-17.3 8.2-20.7.2-6.3-17.9-22.6-21-29-3.6-2.9-22.1-2.8-27.2-2.3-14.1 1.5-18 12.2-27.5 19.5-1 .8-1.3 1.9-3 1.5l.8-12.7c7.6-8.2 14.9-16.6 21.1-26 .7-3.3-8.6-12.4-11.3-13.2-3.6-1 .5 5.5.5 6.6.4 5.2-5.9 4.1-9.3 5.6-1.2.5-3 2.7-3.2 2.7s-2-2.2-3.2-2.7c-8-3.5-11.7.6-7.3-12.2-1.6-1.7-12.5 9.1-12.9 11.7-.2 1.6 3.6 7.8 4.8 9.5 1.5 2 5 5.9 7 8.3 3.2 3.9 9.7 7.7 9.9 13.1 0 1.6-.8 3.1-.8 4.8s2.6 8.1-2.5 3.6c-6.2-5.3-10.1-13.6-18.5-17.5-6.8-3.1-28.3-4.1-34.7-.8-.8.4-9.9 11.1-11.2 12.8-2.4 3-10.9 13.7-10.8 16.8.2 5.1 11.2 27.9 14.7 32.2 2.8 3.4 10.2 7.7 14 11 5 4.3 9.7 9.1 14.5 13.5 2.2.9 1.5-5.2 2-7 2.4-9.9 19.2-2.4 23 3.1.7.9 6.6 13.1 6.9 14.1 2.9 11 5.6 26.6 1.9 37.5-1.7 4.9-6.8 10.4-7.8 15.2-1.4 6.6 1 13.6-5 19-5.3 1.2-18.8-21.7-24.4-23.5-8.2-2.6-15.9 9.6-18.4 9.4-5.3-.4-8.7-14-13.9-16.1-6.9-2.8-11.5 2.7-14.1 2.1-1.8-.4-2-4.8-4.8-6.1-4.5-2-9.6.3-14.3-4.7-10.9-11.5-6.5-42.2-1.5-56.1-9.1 6.7-14.1 14.8-18.5 25-1.6 3.6-2 7.5-3.7 11.3-1 2.1-4.9 9.8-7.8 8.2-.4-.2-6.9-5.8-7.5-6.5-4-4.2-13.8-24.3-15-30-2.8-12.9 1.4-26.5 9.5-36.5 4.1-5.1 11.3-9 13-15.5-2.4-2.4-22.3 17.4-24.4 20.1-5.4 6.8-11 15.9-9.6 24.9-4.7.2-8.1-.7-10.8-4.7-1.8-2.7-8.8-24.3-9.2-27.8-1.1-10.9 10.9-28.8 18-37 10.5-12.2 24.5-14.2 38-21.5 12.5-.8 24.5-2.3 37-1 0 0 .7 2.1.5 3 9.5-8.2 20.6-14.8 33.1-16.9 4.7-.8 14.8-.4 18.1-1.8 1.6-.7 5.2-7.7 7.2-9.9 8-8.4 15.2-9.7 25.4-12.5 1.1-.3.6-1.9.7-2 1.1-.7 25.9-.7 27 0Z" class="fill" data-original-prefix="fill"/></g><g class="trait-group" data-category="mouth"><path id="fill-teeth16" fill="#fff" d="M995.3 1525.7c11 9.5 17.2-6.6 23.2 6.3 6.5 14.1 3.7 38.4-1 52.9-.7 2.1-7.1 16.9-8 17.1-1.2.3-3-.4-4.2-.9-12-5.1-31.7-18.1-39.1-28.9-10.6-15.5-6.4-42.9 6.8-55.8 1.3-1.3 9.1-5.6 10.4-5.3 1.5.3 9.4 12.3 12 14.5h-.1Z" class="fill" data-original-prefix="fill"/></g><g class="trait-group" data-category="mouth"><path id="fill-teeth15" fill="#fff" d="M1039.1 1601.9c-.8-.5-7.5-16.1-8.1-18.4-4.1-13.8-6.5-36.9-1.3-50.3 4.6-12 8.1-4.3 15.8-4.2 9.5.2 17.3-18.2 20.8-17.9 1.2 0 8.5 4.2 9.7 5.3 6.3 6.2 12.2 22.3 13 31 2.4 28-20.3 39.6-41.3 50.7-2 1.1-5.7 5.5-8.6 3.7Z" class="fill" data-original-prefix="fill"/></g><g class="trait-group" data-category="mouth"><path id="fill-teeth14" fill="#fff" d="M904 1461c0 2.2-1.1 3.8-.8 6.2.2 1.8 7.1 22 8 23.1 3.9 5.1 11.2 3.2 16.7 3.8 4.9 13.5-4.2 23.8-8.6 35.6-2 5.3-8.7 33.1-12.8 34.2-1.8.5-6.8-9.1-8.3-10.7-10.3-23.9-15.3-58.4-2.6-82.2.6-1.2 7.1-11.6 8.4-10.1Z" class="fill" data-original-prefix="fill"/></g><g class="trait-group" data-category="mouth"><path id="fill-teeth13" fill="#fff" d="M1144 1564c-2.1 1.4-6.1-7.1-6.8-8.7-3.2-7.9-4.4-17.4-7.5-25.5-4.3-11.6-13.6-22-8.6-35.6 4.8-.6 12.3 1.2 15.9-2.9 1.3-1.5 8.1-20.6 8.6-23.2.3-1.8-1.4-7 .9-6 6 2.7 13.7 26 14.4 32.6 1.4 13.9-2.9 45-9.3 57.4-.8 1.5-7 11.6-7.6 11.9" class="fill" data-original-prefix="fill"/></g><g class="trait-group" data-category="mouth"><path id="fill-teeth12" fill="#fff" d="M1093.1 1644.9c-2.9-1.8-2.4-28.5-2.1-33.4.7-10.5 5.2-31.2 8.9-41.1 1.1-2.8 2.4-1.4 4.2 0 12.2 9.6 21.1 44.8 12.8 57.9-1.9 3-15.6 14.9-18.9 16.1-1.3.5-3.8 1.1-4.8.4Z" class="fill" data-original-prefix="fill"/></g><g class="trait-group" data-category="mouth"><path id="fill-teeth11" fill="#fff" d="M949 1569c5.5 22 11.1 44.4 9 67.5-.5 5.2-.9 10.3-7 8-3.4-1.3-17.5-13.4-19.5-16.5-5.8-9.2-1.4-31.3 2.7-41.2 1.2-2.9 11.3-21 14.8-17.7Z" class="fill" data-original-prefix="fill"/></g><g class="trait-group" data-category="mouth"><path id="fill-teeth10" fill="#fff" d="M881.7 1478.3c3.1 2.8-2.7 21-2.8 26.2 0 5.9 2.6 12.4 3.1 18 .2 2.1.7 24.5-.5 24.5-1.5.2-2.1-1.1-2.9-2.1-15.6-18.9-34.8-51.8-17.4-75.3 6.5-8.8 10.5 2.1 14.9 5.8 1.8 1.5 4.9 2.1 5.7 2.8Z" class="fill" data-original-prefix="fill"/></g><g class="trait-group" data-category="mouth"><path id="fill-teeth9" fill="#fff" d="M1185.7 1467.3c1.9 1.6 7.8 13.7 8.2 16.2 3.2 20.7-9.8 47.3-23.9 61.9-.9 1-1.3 1.9-3 1.5.5-8-.7-16.6 0-24.5.4-5.4 3.1-12.3 3.1-18s-6.1-23.4-2.8-26.2c.6-.6 2.5-.6 3.8-1.7 3.4-3 10-13.1 14.7-9.3Z" class="fill" data-original-prefix="fill"/></g><g class="trait-group" data-category="mouth"><path id="fill-teeth8" fill="#fff" d="M1018 1613v16.5c0 .9-10.8 13.2-11.9 14.1-6.3 4.8-8-2.6-10.6-5.5-5.5-6-17.9-.4-24.4-5.6-1.2-.9-4.1-8.8-4.1-9.9v-22.5c12.9 1.7 28.3 17.5 41.4 15.9 3.5-.4 6.1-3 9.6-2.9Z" class="fill" data-original-prefix="fill"/></g><g class="trait-group" data-category="mouth"><path id="fill-teeth7" fill="#fff" d="M1031 1613c6.3 1.3 9.1 4 16.1 2.6 10.6-2.2 24.3-14.8 33.4-15.6 2-.2 1.4 0 1.2 1.3-.8 6.5 2.4 27.5-4.4 31.6-7 4.2-18.8-.3-23.4 4.6-2.1 2.2-3.6 8-8.4 7.6-1 0-14.6-13.5-14.6-14.6V1613z" class="fill" data-original-prefix="fill"/></g><g class="trait-group" data-category="mouth"><path id="fill-teeth6" fill="#fff" d="M1102.5 1494c3.3-.8 4.5 6.9 5.3 8.7 5.6 12.1 13 24.8 13.3 38.8.2 9-16 29.8-21.3 16.2-4-10.4-4.1-44.8-1.1-55.5.4-1.6 2.4-7.9 3.8-8.2" class="fill" data-original-prefix="fill"/></g><g class="trait-group" data-category="mouth"><path id="fill-teeth5" fill="#fff" d="M937.3 1559.7c-1.9-1.6-7.8-10.5-8.5-13-3.6-12.1 6-31.3 11.4-42 1.6-3.1 3.3-14.7 8-7.4 5.5 8.5 4.3 41.5 2.7 52.1-1.2 7.7-3.6 18.7-13.6 10.3" class="fill" data-original-prefix="fill"/></g><g class="trait-group" data-category="mouth"><path id="fill-teeth4" fill="#fff" d="M917 1563c-1.8 13.4 2.9 27.5 2 40.5-.6 9-4.4 18.4-5.5 27.5-6.2-6-10.5-16.1-11.4-24.6-.5-5.2.7-24.7 2.4-29.3.6-1.6 10.5-16.2 12.4-14.1Z" class="fill" data-original-prefix="fill"/></g><g class="trait-group" data-category="mouth"><path id="fill-teeth3" fill="#fff" d="M1135 1631c-.4-8.9-4.4-17.8-5.1-26.5-1-13.8 3.7-27.6 2-41.5 2.2-2.4 11.9 13 12.5 15 2 6.6 2.6 27.4 1.2 34.3-1.3 6.3-5.5 14.9-10.8 18.7z" class="fill" data-original-prefix="fill"/></g><g class="trait-group" data-category="mouth"><path id="fill-teeth2" fill="#fff" d="M1154.1 1604.9c-3.4-2-5.1-22.3-3.9-26.2.8-2.6 8.9-5.2 10.2-8.8l5.1-10.9c3.8 3.4 5.1 7.2 4.3 12.2-.7 4.2-5.4 22.7-6.9 26.2-.9 2.2-6.1 9-8.8 7.5" class="fill" data-original-prefix="fill"/></g><g class="trait-group" data-category="mouth"><path id="fill-teeth1" fill="#fff" d="M885 1559c-.3 3.7 1.7 9.4 4 12.2s9.5 5.2 10 8.3c-2 8.4 1.6 19.2-5.7 25.4-3.6-1.1-6-4-7.4-7.4s-6.5-23.6-6.9-27.1c-.5-4.2 1.2-10.6 5.9-11.4z" class="fill" data-original-prefix="fill"/></g><g class="trait-group" data-category="mouth"><path id="outline-shading-mouth2" fill="#000" d="M918 1443.5c.8 5.3 5.6 13.8 10.1 16.9 11.5 8.3 16.2-.3 22.4-9.4 2.5 5.4 3.4 11.5 6 17 1.4 2.8 5.7 12 7.5 5.5l4-11.5c1.6 7.5 6.3 15.4 11.5 21 4.3 4.7 18.8 15.4 24.6 9.6 2-2.1 8.3-17.9 10.8-22.2 1.2-2.2 7.8-13.8 9.7-13.3 1 .2 8.5 13.2 9.7 15.3 2.4 4.5 7.3 17.7 9.8 20.2 3.8 3.8 10.5.4 14.4-1.8 10.5-5.9 18.5-17.2 21.7-28.8l4.2 12.3c.3 1.2 1.9 2.4 2.8 1.7.6-.4 5.8-11.3 6.5-13 .8-2 2.8-12 4-12 6.8 10.7 12.9 18.4 24.5 7.5 8.6-8 9.3-23.8 7-34.5 3.5-3.1 21.1 16.1 26.6 16.9 9.1 1.4 17.6-11.8 19-19.9 3.5-20.5-12.9-39.2-30.9-46.2l-12.7-4.8c15.4 0 28.2 2.9 41.1 11.4 4.8 3.1 12.2 10.9 17.6 11.4 6.2.6 10.1-4.1 10-10-.4-19.3-25.8-38.1-39.7-48.8 15.4 2.4 34.6 11.8 45 23.5 7.8 8.8 19.1 25.1 19.1 37s-6.4 28.5-9.2 32.8c-3.3 5.3-11.7 5.4-13.4 10.6-.9 8.1-2.1 16.4-2.5 24.5-1.5 29 1.4 45.2-10.8 73.2-3.6 8.2-12.7 20.4-14.9 27.1-4.2 12.8-.7 26.4-9.1 38.9-3.2 4.8-8.4 6.7-11.2 10.8-1.7 2.5-2.4 6.1-4.2 8.8-4.5 6.7-14.6 23-21.6 8.9-1.6-3.3-1.3-12.9-6.7-6.2-1.4 1.7-1.9 4.4-3.5 6.5-3.7 4.7-17.7 19.6-23.5 19.5-2.2 0-4.5-4.1-6.6-5.4-7.9-5-21.1-6.3-29.2-1.4-7.3 4.4-9.5 13.6-18.1 6.8s-6.4-10.8-20.1-9c-5.6.7-11.4 12.6-16.9 12.1-2.8-.2-11.4-11.1-18.5-12.6-6.3-1.3-17.5.7-23 4.2-2.6 1.7-4.1 5.6-7.5 5.4-5.7-.3-19.8-15.8-23.6-20.5-1.2-1.5-4.4-10.6-7.1-6.9-2.5 3.4-.6 9.9-7.2 12.7-7 3-14.9-11.2-18.1-16.4-1.2-1.8-1.2-4.3-2.6-6.4-2-3-6.8-5.4-9.5-8.5-10.4-11.9-6.7-27.7-10.7-41.3-.8-2.6-5.6-8.5-7.3-11.7-18.4-35.7-16.4-45.6-18.4-84.6-.4-7.7-.6-20.7-2.2-27.8-1.5-6.2-11.1-6.1-14.2-11.8-3.4-6.1-9.3-29.6-8.6-36.4 1.2-10.3 16.2-31.2 24-38 10.5-9.2 26.2-16.5 40-18.5l-21.5 17c-7.2 6.4-26.8 32-14.8 39.9 9 5.9 16.7-4.5 23.7-9.1 12.7-8.4 25.3-11.8 40.7-11.8l-17.3 7.2c-18 9.4-33.1 32.7-22.1 52.8 1.7 3.1 8.6 10.4 12 11.1 9.1 1.7 20.7-15.4 29.5-18 .6 6.4-.9 14.3 0 20.5zm-37.1 40.6c-12.3-.5-17.1-20.2-22.8 1.5-3.4 13 1.2 26.4 9.4 36.5 1.5 1.8 12.7 13.1 13.9 12.9.8 0 2.5-2.3 2.8-3.2 2.9-7.1-3.2-12.2-4.2-19.2-1.5-9.8 0-18.7.9-28.4Zm301.8-8.9c-3.2.8-6.3 6-8.8 7.3-2.1 1.1-7.2 1-7.8 3.2-.5 1.7 3 10.8 2.9 14.8 0 3-1.5 13.9-2.2 16.8-.9 3.6-3.9 5.7-3.9 10.2s1.4 7.1 3.7 7.4c1.9.3 15-14.4 16.8-17 5.7-8.5 9-18.8 7.3-29.2-.5-3-4.4-14.5-8-13.6Zm-284.8 10c-4-2.3-6.5 9.9-6.8 12.5-1.2 10.5 3 38 8.7 47.1 1.9 3 5.4 6.9 9.2 7.3 3.7-15.6 12.6-29.2 21-42.5-2.3-.4-1.7-2.9-2.7-3.5-1.5-.9-7-1.9-9.7-3.1-4.7-2.2-12-7.7-15.6-11.4-1.2-1.2-3.8-6.2-4.2-6.3ZM1139 1552c8.3-2 11.9-12.2 13.9-19.6 3.1-12.1 6.1-33.4 1.1-44.8-3-6.9-5.8 1.7-8.3 4.1-3.9 3.8-11 9.3-16 11.6-2.5 1.1-7.8 1.8-9.1 2.7-.7.5-.5 1.8-1 2.7-.3.4-1.7.4-1.6.9 0 1 7.9 12.3 9.2 14.8 4.8 8.8 9.1 18 11.8 27.7Zm-197.7 5.7c8.1 8.1 9.5 0 10.5-7.3.8-5.6 2.7-20.6 1.7-25.4-3.6-17.2-21.3-15.9-21.6 3.6 0 6.8 4.6 24.3 9.4 29.2Zm161.5-44.5c-5 1.3-8.5 9.3-8.8 14.2-.2 4 2.4 28.5 3.8 31.3 2.5 5 7.5 0 9.8-2.7 6.8-8.3 11.6-30.7 4.5-39.5-2.7-3.3-4.8-4.4-9.2-3.3zM1023 1544c-.7-.7-.8-7-5.1-9.4-8.9-5-21.8-.8-32-4-10.4-3.3-9.4-13.1-16.1 1.8-2.9 6.4-9.1 24.4-6.3 30.7 1.1 2.4 17.8 15.6 21.2 17.8s18.2 11.7 21.1 10c3.1-5.6 9.3-9.5 12.6-14.9 1.8-2.8 4.1-11.5 4.6-11.9 1.6-1.7 1.7.5 2.1 1.4 1.6 3.6 2.1 6.8 4.5 10.5 3.3 5.2 9.2 9.3 12.4 14.6 3.1 1.9 15.5-5.9 18.9-8.1 4.5-2.9 22.9-17 23.9-21.1 2.2-9.7-6.6-28.3-10.9-37.2-4.9 1-7.8 5.2-12.7 6.7-9.2 2.8-28.2-1.6-33.7 6.3-.9 1.2-2.6 8.9-4.5 7zm-136 18c-.7-.6-3.5 0-4.5.9-6 6.2 2.4 31.6 14.6 27.6 4-1.3 3.8-9.4 2.8-12.9-1.1-3.9-7.2-4.1-9.8-7.2-2.1-2.5-2.7-8.2-3-8.5Zm274.1 0c-.3.3-.9 6-3 8.5-2.6 3.1-8.7 3.3-9.8 7.2-1 3.4-1.2 11.6 2.8 12.9 13.4 4.4 20.2-24.5 14.1-28.1-.9-.5-3.5-.9-4-.4Zm-216.4 7.2c-1.5.4-5.1 4.6-6 6.1-3.4 5.6-5.6 32.3-4.8 39.3 1.3 10.9 15.2 18 19.5 3.5 1.7-5.6 2.6-21.4 2.5-27.6 0-1.1-5.8-19.7-6.5-20.5-1.2-1.4-3.2-1.3-4.8-.8Zm153.3-.1c.2 6.6-5.4 14.7-6 20.6-.5 4.5 1 25.3 2.4 29.4 4.2 12.1 16.9 7.3 19.1-2.9 1.1-5.2 0-16.8-.6-22.6-1-9.7-1.7-25.5-14.9-24.5m-180 1.9c-20.5 3.8-17 28.7-9 43 4 2.9 10.4-17 10.7-19.8.9-7.5-2.9-15.5-1.8-23.2Zm218 43c2.5 1.8 7.2-9.1 7.7-10.8 3.9-12.8 1.6-30.1-13.7-32.2.5 7.4-2.8 16.2-1.9 23.4.3 2.7 6.4 18.5 7.9 19.6m-148.2 10.2c1.4.8 4.8 8.6 9.5 11 11.1 5.8 20.2-6.4 20.7-16.7.8-13.7-7.2-7.7-16.5-8.6-8.4-.8-15-4.8-21.8-9.2-5.5-3.5-13.6-14.6-14.7-1.4-.5 5.1 1.4 7.5 1.8 11.2s-2 5.9.5 10.7c4.8 9.3 18 1.3 20.7 2.8zm93.1-31.1c-2.1-1.5-19.7 12.7-23.9 14.4-2.3 1-7.9 2.3-10.5 2.5-10.5.9-18.8-5.4-16.4 11.4 1 7.3 7.9 15.8 16 15.1 9.4-.8 11.9-11.6 14.6-12.4 4-1.3 12.3 5.7 18.9-1.1 4.3-4.4 1.3-8.4 1.5-12.5 0-2.3 1.9-4.8 2-8.1 0-1.9-.8-8.5-2.2-9.4Z" class="outline" data-original-prefix="shading" opacity=".2"/></g><g class="trait-group" data-category="mouth"><path id="outline-shading-mouth1" fill="#000" d="M1041 1343c6.1.5 12.7-1 17.5-5 1.5-1.3.9-3.7 2.8-2.9 10.1 7.9 37.9 17.4 43.8 28.2 3.6 6.5 4.6 17.5-1.8 22.6-5.6 4.5-20.8 10.8-28 15-4.9 2.8-9.7 6.6-14.7 9.3-7.4 4.1-25.5 14.5-32.6 16.4-2.9.8-5.2.8-8.1 0-14.5-3.8-42.2-22.5-56.3-30.7-6.2-3.6-21.2-9.1-23.2-15.8-5.5-18.4 15.7-28.3 28.7-35.4 2.3-1.2 15.5-8.6 16.5-8.7 2.9-.3 4.2 2.9 6.7 4.2 4.2 2.3 10 3.2 14.7 2.8-.3-5.1-3.3-11.3-1.8-16.3.5-1.6 12.5-13.9 14.5-14.4 3.9-1 8.2-.3 11.6 1.9 1 .7 10.8 11.1 11.2 11.8 2.1 5-1.2 11.8-1.5 17" class="outline" data-original-prefix="shading" opacity=".2"/></g><g class="trait-group" data-category="mouth"><path id="outline-mouth3" fill="#000" d="M889 1333c-13.5 7.3-27.4 9.4-38 21.5-7.1 8.2-19.1 26.1-18 37 .3 3.5 7.3 25.1 9.2 27.8 2.7 4 6.1 4.9 10.8 4.7-1.4-9 4.2-18.1 9.6-24.9 2.1-2.6 22-22.5 24.4-20.1-1.7 6.5-8.8 10.4-13 15.5-8.1 10-12.3 23.6-9.5 36.5 1.2 5.7 11 25.8 15 30 .7.7 7.1 6.3 7.5 6.5 3 1.5 6.9-6.1 7.8-8.2 1.7-3.8 2.1-7.7 3.7-11.3 4.4-10.2 9.4-18.4 18.5-25-5.1 13.9-9.5 44.6 1.5 56.1 4.8 5 9.9 2.7 14.3 4.7 2.8 1.3 3 5.7 4.8 6.1 2.6.6 7.2-4.9 14.1-2.1 5.2 2.1 8.6 15.6 13.9 16.1 2.5.2 10.2-12 18.4-9.4 5.6 1.8 19.1 24.8 24.4 23.5 6.1-5.4 3.7-12.4 5-19 1-4.8 6.1-10.3 7.8-15.2 3.7-10.9 1-26.5-1.9-37.5-.3-1.1-6.2-13.2-6.9-14.1-3.8-5.5-20.6-13-23-3.1-.4 1.8.2 7.9-2 7-4.8-4.4-9.5-9.2-14.5-13.5-3.8-3.3-11.2-7.6-14-11-3.5-4.3-14.5-27.1-14.7-32.2 0-3.1 8.4-13.8 10.8-16.8 1.4-1.7 10.5-12.5 11.2-12.8 6.4-3.2 28-2.3 34.7.8 8.4 3.8 12.4 12.1 18.5 17.5 5.2 4.5 2.5-1.7 2.5-3.6s.9-3.2.8-4.8c-.2-5.4-6.7-9.2-9.9-13.1-2-2.4-5.5-6.3-7-8.3-1.2-1.7-5.1-7.9-4.8-9.5.4-2.6 11.3-13.4 12.9-11.7-4.4 12.8-.7 8.7 7.3 12.2 1.2.5 3 2.7 3.2 2.7s2-2.2 3.2-2.7c3.4-1.5 9.7-.4 9.3-5.6 0-1.1-4.1-7.6-.5-6.6 2.8.8 12.1 10 11.3 13.2-6.2 9.4-13.5 17.8-21.1 26l-.8 12.7c1.7.4 2-.7 3-1.5 9.5-7.3 13.4-18 27.5-19.5 5.1-.6 23.6-.6 27.2 2.3 3.2 6.4 21.2 22.7 21 29 0 3.4-6.3 16.9-8.2 20.7-6.8 13.3-9.3 12.6-19.5 21.5-5.3 4.6-10.4 9.6-15.5 14.5-2.2.9-1.4-5.6-2.2-7.7-3.4-8.6-19-1.6-22.7 3.8-.6.9-6.2 11.4-6.6 12.4-1.3 3.6-.5 6.5-1.2 9.8-2.6 12.3-5.2 19.6.2 32.2 1.5 3.5 4.6 6.8 5.8 10.2 2.4 7.1-.8 16.6 6.6 21.1 8.3-2.8 16.9-21.3 23.6-23.5 7.7-2.4 15.9 9.6 18.4 9.4 5.6-.5 9.4-18.8 18.7-17.4 2.2.3 8.4 3.7 9.4 3.5 1.7-.4 2-4.9 4.8-6.2 3.9-1.8 8.9 0 13.3-3.7 11.5-9.9 8.1-43 2.5-56 1.6-1.6 11.3 10.4 12.4 12.1 4.9 7.6 6.1 15.6 9.7 23.3 1 2.1 4.8 9.8 7.8 8.2.4-.2 6.9-5.8 7.6-6.5 7.1-7.7 15.9-30.1 15.4-40.5-1-22.4-10.8-22.9-21.5-37.5-5.3-7.2 2.8-2.4 6 0 11.8 8.6 28 25.5 26.5 41 11.4 1.6 13.7-11.7 16.3-20.2 4.6-15.6 5.3-18.8-3.1-33.4-7.4-13-16.3-22.7-29.9-29.1-6-2.8-14.1-4.1-19.2-8.3 9.3.7 19.7 2.8 29.2 5.3 7.4 1.9 14.4 3.9 20.7 8.3 3.2 9.3 27.6 34.6 28 42 .2 3.9-8.4 23-10.2 28.7-2.4 7.4-1.3 15.8-9 20-2.1 1.1-8.8 2.4-9.5 3-3.6 3.6-1.9 26-2.2 32.3-1.2 29.7-2.2 52.7-20.5 77.5-.9 1.2-2.6 1.5-3.6 2.7-4.3 5.6-2.8 18.6-4.3 26.5-1.1 6-5 13.1-5.6 18.4-.4 3.6 1.4 7.3.2 10.1-1 2.4-9.9 8-12.6 9.5-2.2 1.2-5.7 1.5-6.5 2-.6.4-5.4 10.9-7.2 13.3-2.1 2.7-11.1 11.3-14 12.1-4.1 1.2-7.9-10.3-9.9-13s-2.3 2.3-3.6 4.3c-4.3 6.7-25.1 26.6-32.4 28.6-1.7.5-3.3.7-5 .5-.2-6.5 3.6-11.9-3-16.5-7.6-5.2-17.7 0-21.5 7.4-4.2 8.3-1.8 29.9-14.4 16.5-7.1-7.5-13-17.8-18.5-26.4-2.8 5-19.9 30.6-24 31-5.8.6-5.9-11.5-7.2-15.8-2.5-8.5-10.5-17.7-20-14.4-12.1 4.1-4.7 16.7-6.3 18.2-6 1.1-9.7-4.5-15-5-1.3 6.3-5.2 11.9-5.1 18.5.2 11.2 13.9 23.7 10.9 33.8-.8 2.7-3.4 3.2-5.5 1.4-3.7-3.3-7.9-17.8-10.4-23.1-3.8-8-11.3-14.9-9.4-23.7 1-4.7 7.9-13.9 7.6-17.4-.5-5.3-12.8-12.5-12-18.6-1.2-.2-1.3-.3-2.1.6-2.1 2.7-6.2 14.3-10.2 13.3s-12-10.2-13.7-12.4c-2.1-2.7-6.6-12.8-7.2-13.2-.7-.5-4.2-.8-6.5-2-2.5-1.3-12.6-7.8-13.2-9.9s1.2-6.2.8-9.7c-.6-5.1-4.5-11.5-5.6-17.4-1.7-8.4.3-19.9-3.9-26.1-5.9-8.8-10.5-12.8-15.3-23.7-13.6-31.3-7.5-52.3-10.1-83.9-.8-9.9-3.8-5.3-10.8-9.3-8.2-4.6-6.8-13.1-9.3-20.7-1.9-5.9-9.7-21.8-10-26.1-.2-3.3 1.1-4.7 2.5-7.3 6.8-12.4 18.9-24.3 26.1-36.9 5.9-4.3 13.2-6 20.1-7.9 9.7-2.6 19.8-4.7 29.2-5.3Zm15 128c-1.4-1.5-7.8 8.9-8.4 10.1-10.6 19.9-8.6 50.8-1.8 71.7 1.1 3.3 9.4 22.1 12.8 21.2 4.4-1.1 10.8-28.9 12.8-34.3 4.3-11.7 13.6-22.1 8.6-35.6-4.8-.6-12.2 1.2-15.9-2.9-1.4-1.5-8.5-21.7-8.8-24s.8-4 .8-6.2Zm240 103c.6-.4 6.8-10.5 7.5-12 6.2-12 8.8-32.9 9.5-46.5.8-15.3-4.1-32.2-14.6-43.5l-2.2 9.8c-4.9 13.6-4.6 25.2-23.1 22.4-5.2 13.7 4.3 23.9 8.6 35.6 3.1 8.4 6 27.5 11.8 33.2.7.7 1.4 1.8 2.4 1.1Zm-262.3-85.7c-1-.9-4.6-2-6.6-3.9-4.2-3.9-7.8-13.1-14-4.7-13.3 17.9-4.1 44.9 7 61.7 1.6 2.4 11.5 15.7 13.3 15.7.5-8 1.2-16.5.5-24.5-.4-5.4-3.1-12.3-3.1-18s6-23.3 2.8-26.2ZM1167 1547c1.7.4 2-.5 3-1.5 17.5-18 32.6-50.9 18.4-74.4-6.5-10.8-10.8-.4-16.9 4.9-2 1.7-5 1.6-5.5 4.5-.8 4.5 4 18.3 4 24s-3.3 14.8-3.6 21.2 1.6 14.6.6 21.3m-219.1-51.9c-4.7-3.3-6.5 7.1-7.7 9.6-5.3 11-11.8 23-12.2 35.8-.2 7.6 10.5 26.2 19.1 21 3-1.8 4.7-18 5-22 .4-6.4.2-41.4-4.1-44.4Zm67.8 32.2c-3.2-2.8-9.7 3.2-15.8 1.3-2.1-.7-8.7-7.5-10.5-9.5-2.6-2.9-3.4-8.8-8.2-7.4-12.2 3.5-20.5 24.1-21.2 35.9-.9 13.6 2.4 21.7 11.5 31.5 9.8 10.4 24 15.7 36.1 23h2.3c2.1-6.4 6.2-12 8.1-18.4 3.7-12.2 7.9-47.3-2.3-56.2zm23.4 74.6c1.1.7 3.4 0 4.6-.7 5.6-2.4 20.1-11.1 25.2-14.8 13.4-9.8 21.4-21.7 20.1-38.9-.9-11.9-9.2-33-22-36.1-4.4-1.1-5.5 5-8 8-1.7 1.9-7.3 7.9-9.2 8.8-9.2 4-14.3-9-20 5-5.4 13.2-2.6 37.5 1.5 51.1.7 2.2 7.1 17.1 7.9 17.6ZM885 1559c-3.2-3.3-6.4 8.4-5.8 12.3.7 4.5 5.4 23.4 7 27 1 2.2 6.2 8.5 8.7 6.7 3.4-2.4 3.2-20.7 4-25.4-.5-3.1-8.3-6.1-11-10-2.3-3.5-2.6-10.1-3-10.5Zm32 4c-1.9-2.2-11.8 12.5-12.4 14.1-1.7 4.6-3 25.2-2.4 30.3.9 7.9 5.6 18 11.4 23.6 1.4-8.8 5-18.6 5.5-27.5.8-13.1-3.7-27.1-2-40.5Zm218 68c7.1-5.4 12.1-18.8 11.8-27.5 0-2.6-1.7-5.2-1.8-8-.3-5.4.8-12.5-.5-17.5-.6-2.3-10.4-17.3-12.5-15 1.5 13.8-3.1 28-2 41.5.7 8.7 4.6 17.6 5.1 26.5Zm-35-62c-2.8 14.2-8.1 27.9-9 42.5-.3 5.3-1.4 33.3 3.6 34.4 2.4.6 18.8-13.3 20.9-15.9 8.3-10.5 3.8-32.3-1-44-1.2-2.9-11-19.9-14.5-17m-82 44c-3.5 0-6.1 2.5-9.6 2.9-12.7 1.6-29.1-13.9-41.4-16.9v24.5c0 .6 3.2 8.2 4.1 8.9 6.5 5.2 18.9-.4 24.4 5.6 2.6 2.9 4.3 10.3 10.6 5.5 1.1-.8 11.9-13.1 11.9-14.1v-16.5Zm64-13c-13.2 1.2-27.8 17.6-41.4 15.9-3.5-.4-6.1-3-9.6-2.9v17.5c0 1.1 13 14.6 15.4 14.5 4.9-.3 5.1-4.7 7.1-7 5.5-6 18.3-.4 24.4-5.6 1-.9 4-9.7 4-11v-21.5Z" class="outline" data-original-prefix="outline"/></g><g class="trait-group" data-category="mouth"><path id="outline-mouth2" fill="#000" d="M1122 1332c-.2 0 .2 1.6 0 1.9-1 .8-8.1-5.8-10.2-7.1-10-6.1-19.8-8.3-31.2-9.8-2.9-.4-6.9.7-9.5-.5-1.5-.8-4.5-7.4-6.5-9.5-7.8-8.7-15.6-10.2-25.8-13-1.1-.3-.6-1.9-.7-2 3.1-3.8 16.2-9.3 20.8-9.8 7.9-.9 5.5 4.4 6.5 9.1 2.3 10.7 9.3 19.6 21.3 18.8 5.1-.3 5.6-4 7.9-4.1 1.4 0 6.6 2.9 8.2 3.8 9.4 5.2 15 12.5 19.3 22.2z" class="outline" data-original-prefix="outline"/></g><g class="trait-group" data-category="mouth"><path id="outline-mouth1" fill="#000" d="M1011 1292s.4 1.7-.7 2c-10.2 2.8-17.4 4.1-25.4 12.5-2 2.1-5.6 9.2-7.2 9.9-3.4 1.4-13.5 1-18.1 1.8-12.5 2.1-23.6 8.7-33.1 16.9.2-.9-.5-2.8-.5-3 .7-2.3 8.9-13.5 11-15.5 2.4-2.4 14.7-10.5 17.6-10.4s3 5.1 11.9 3.9c10-1.3 16.2-10.1 17.5-19.6.4-2.6-2.4-6.7 2.8-8.2 3.5-1 21.7 5.6 24.3 9.8Z" class="outline" data-original-prefix="outline"/></g>
<g class="trait-group" data-category="eyes"><path id="fill-eyes-main" fill="#fff" d="M1361.3 1155.3c-16.2 35.9-23.5 77.5-53.9 104.6-33.7 14.7-68.7 37.1-105.9 40.1-27.2 2.2-65.2-2.3-88.8-17.2-3.3-2.1-11.1-10.2-12.4-10.6-6.8-2-20.1 1.7-27.2-.8-3.8-1.3-18.1-15.8-22.5-19.5-1.3-1.1-3.5-.9-5.1-1.9-4.9-3.4-11.3-14.1-17-15-12.5-2-17.4 7.9-26 14.9-3.5 2.9-25.2 20.2-27.2 20.8-6.7 1.9-20-1.5-26.6.4-2 .6-6.9 6.9-9.2 8.8-27.4 21.4-102.9 23.8-135.2 13.2l-70.8-40.2c-3.6-3-5.2-7.6-7.3-11.7-13.1-25.7-24.6-61.7-39-85.1-5-8.2-12.9-17.2-18.4-25.6-1.7-2.6-8.7-12.1-8.7-14.2 15.3-32.9 31.3-65.5 48.5-97.4 31-29 57.4-63.1 92.1-87.9 32.1-22.9 74.1-43 110-59 71.6-32 163.7-29.7 234.4 3.3 34.4 16.1 71.1 33.5 102.3 55.7 39.6 28.2 71.6 69.8 106.4 103.6l35.2 93.9c.2 2.7-2.6 4.6-4.5 6.4-7.3 7.1-15.5 13.7-23.2 20.3Z" class="fill" data-original-prefix="fill"/></g><g class="trait-group" data-category="eyes"><path id="outline-shading-eyes2" fill="#000" d="M942 857c-12.1 12.3-28.7 18.2-42.9 27.6-24 15.9-46.8 43.3-62.9 67.1-5.4 7.9-23 36-24 44-1.9 15 19 44.3 30.9 52.7 15.5 11 44.6 22.3 62.6 32.4s34.5 19.9 50.9 31.1c14.4 19.1 24.9 49.3 40 66.9 6.5 7.6 13.5 4.7 18 8 1.1.8 4.3 7.4 5 9 1.1 2.8-.7 5.7 2.8 7.3 5.7 2.7 5.9-8.1 8.2-12.3 4.5-8.3 14.1-3.9 20.9-12.1 14.5-17.4 24.2-46.5 37.8-64.2 6.2-8.1 34-23 44.2-28.8 11.7-6.7 23.8-13 35.7-19.3 21-11.2 34.9-13.8 50.4-33.6 11.6-14.8 20.3-27.2 12.4-46.3-11.6-28.4-47.4-74.4-71.4-93.6-17.2-13.8-38.5-21-54.5-36 32.2 6.5 62.4 20.5 90.7 36.8 43.8 25.2 91.8 64.7 120.1 106.9 2.5 3.7 7.4 8.7 5.5 13.1-1.7 4-26.2 9.5-31.6 11.5-55.7 20.6-105.3 41.9-152.6 78.4-29.2 22.5-41.7 38.5-62.3 68.7-4.9 7.2-6.3 13.4-13.3 19.7-2.6 2.4-21.3 15.7-23.6 16.4-7.4 2.2-21.8-.9-30.1.5-8.1-8-20.7-12.5-27.7-21.3-3.8-4.8-5.7-10.7-9.2-15.8-18.6-27.1-30.9-43.6-56.9-64.1-49.4-38.9-99.1-60.6-157.6-82.4-5.5-2-29-7.5-31.3-10.6-2.9-4 2.2-9.9 4.6-13.5 27.4-39.9 72.4-78.4 113.8-103.2 30.1-18 63.1-33.9 97.7-40.8z" class="outline" data-original-prefix="shading" opacity=".2"/></g><g class="trait-group" data-category="eyes"><path id="outline-shading-eyes-1" fill="#000" d="M1376 1124c-.3.4-7.4 2.6-9 3.5-8.1 4.2-26.1 12.6-32.3 17.7-2.4 1.9-.9 4.2-2.2 5-26.3 9.1-58.4 13.3-83 25.8-28.2 14.3-61.1 41-85.2 61.8-16.4 14.2-30 16.1-47.8 26.2-9.8 5.6-17.8 14.5-27.8 19.3l-2.5-.6c-11.3-10.6-24.9-18.4-36.5-28.5-7.8-6.8-14.2-15.6-22.1-21.9-2.7 1.3-6.1-.6-8.4.4-1.4.6-15.2 16.5-18.6 19.5-11.8 10.6-25.7 18.9-37.5 29.5l-3.9 1.1c-11.7-6.7-22.5-15.3-34.3-21.8-10.7-5.8-26.2-10.7-35.6-17.4-5.4-3.9-11.8-11.6-17.6-16.4-25.2-20.7-60-47.9-90.7-58.3-21.3-7.2-43.6-12.1-65.1-18.7l-2.2-5-41.4-21.6 4.9-4.1 15.1-28.9h33c21.4 13 44.7 24.7 65.5 38.5 18.6 12.3 35.7 27.9 54.2 40.8 28.2 19.8 67.5 44.8 99 58 17.5 7.3 25.6 4.5 43.5.8 6-1.2 20.2-6.3 24.5-6.4 2.5 0 7.8 3.9 12.8 3.8 4.4 0 9.7-4.1 11.8-3.9 5.8.6 16.8 4.9 23.8 6.4s18.6 4.4 25.6 4.5c11.2.2 31.8-11.4 42.1-16.9 70-36.9 125.7-90.2 196.1-125.9l32.3.3c3 1.8 10.9 25.2 15.5 29.5 1 1 5.9 2.1 4.4 4h-.4Z" class="outline" data-original-prefix="shading" opacity=".2"/></g><g class="trait-group" data-category="eyes"><path id="outline-eyes6" fill="#000" d="M682 1149c-4.5-1.5-13-4.9-17-5.6-13.1-2.2-21.7 2.4-19.9-16.8 2.7-29.6 21.5-76.3 37.5-101.5 4.3-6.8 19.7-29.8 26.4-31.7 3.3-1 6.2 2.3 8 1.2.7-.5 5.6-8.3 7-10 41.8-51.3 96-96.5 157.3-122.7 63.8-27.3 154.2-30.7 221.9-18.5 88.4 15.9 169.4 75.2 223.8 145.2 1.6 2 2.8 6.1 3.1 6.4 1.6 1.4 6.8-2.5 9.9-1.5 6.9 2.1 22 24.8 26.4 31.7 16.2 25.6 34.2 70.7 37.3 100.7 2 19.4-5.1 15.4-19 17.5-3.9.6-10.4 3.4-14.8 4.7-5 1.6-10.1 3.2-15 5-.7-6.8-2.7-13.4-2-20.3 2.5-2.8 21.9-9.6 22.6-10.6 4.4-6.7-6.2-30.5-9.4-37.7-8.8-19.9-20.3-38.5-31.4-57.1-8.6-1-16.7-.8-25.3-.2-14.4.9-28.6 3.5-42.5 7-.4-1.8.9-2.5 2-3.5 10.2-9.8 25.5-17 37.9-23.6-.8-12.8-10.5-25-18.8-34.4-37.4-42.1-98-72-148.3-95.7-65.5-30.8-166.9-33.6-231.7.6-5.7 3-5.8 3.8-12 6-41.7 15.4-129.9 68.1-150.2 107.8-1.6 3.1-6.2 12.6-3.8 15.2 12.4 7.2 27.7 14 38 24 1.1 1 2.3 1.8 2 3.5-13.9-3.4-28.1-6-42.5-7-8.6-.6-16.7-.8-25.3.2-11.1 18.6-22.5 37.2-31.4 57.1-3.2 7.2-13.8 31.1-9.4 37.7.7 1 20.1 7.8 22.6 10.6.6 6.9-1.3 13.5-2 20.3-.7.7-10.2-3.4-12-4" class="outline" data-original-prefix="outline"/></g><g class="trait-group" data-category="eyes"><path id="outline-eyes5" fill="#000" d="M998 1254c.2-.4 0-2.3.9-3.5 9.8-13 20.4-27.3 18.6-44.5 6 2.6 8.5 1.9 14.5 0-2.2 7.2 1.4 18.2 4.5 25 2.1 4.7 11.1 18 14.5 22-.8 1.4-5.5 7-7 6-4-7.5-11.8-10.4-16.2-18.3-1.4-2.5.7-4.5-4.3-3.8-1.7.2-1.1.2-1.8 1.3-2 3.3-2.8 6.2-5.7 9.3-3.5 3.7-10.7 6.2-11 11.5-1.4 1.3-5.2-4.4-7-5" class="outline" data-original-prefix="outline"/></g><g class="trait-group" data-category="eyes"><path id="outline-eyes4" fill="#000" d="M698 1184c3.4-.8 9.7 15.4 12 13 .3-5.1-8.7-15.5-9-18.5-.2-2.5 4.1-19.5 4.8-24.1.6-4.1 1.3-8.2 1.2-12.3 11.9.6 23.5 4.2 34.8 7.7 32.6 10.2 59.5 21.8 87.5 41.4 34.3 24 55.6 53.6 100.3 57.7 13.8 1.3 28-3.6 41.1-7.6 6.8-2.1 13.4-5.7 20.2-6.3-10 11.3-23.4 14.5-21 32.6.4 3.1 1.9 3.1 2 3.4.6 1.5 2.2 4.8 1.6 6-1.9 3.8-10.7 9.8-13.2 13.9-5.5 1.9-11.5 3.3-17.4 3.1-.8-.8 4.8-11.2.5-10-6.4 1.8-19 11.9-24.5 16.5-4.8 3.9-12.8 13.4-18.2 14.8-10.9 2.8-23.7 0-33.6 2.4-9 2.2-26.2 13.9-34.8 19.2-1.4.8-1.1 1-1.9 2.2-1.3-4.6 12.6-19.7 12.5-21.5-.3-5.8-12.8 5-14 6-4.2 3.6-18.5 18.4-20.2 22.8-.3.9-1.8 7.6-1.8 8.2v49.5l-15-36.5c-2.7-9.1-6.7-18.3-5.9-27.9.8-8.6 5.1-17.9 5.9-26.6l-17.2 28.3c-7.4 24.8 2.1 51.6 4.2 76.7l-18.8-35.6c-2.4-9.4-11.8-22.8-13-31.9-2-14.5.8-33.7 0-48.9-.4-7.9-2.5-16.5-3-24.5-2.4 2-7.4 8.6-7.9 11.6-1.2 7.3 2.6 14.3 3.5 21.4-5.6-5.5-15.6-21.1-16.5-28.5s1.5-19-.2-25.8c-.7-2.6-6.2-7.7-8.2-10.8-4.8-7.5-17.8-50.2-17.6-58.5 0-1.3 1-2.3 1.1-2.4z" class="outline" data-original-prefix="outline"/></g><g class="trait-group" data-category="eyes"><path id="outline-eyes3" fill="#000" d="M1076 1272c.6-.9 2.4.3 3-5.5 1.6-17.3-11.3-21.3-22-31.5 11 1.8 21.2 6.6 32 9.5 62.4 16.6 85.8-22 130.7-53.3 28.1-19.6 54.9-31.2 87.6-41.4 11.3-3.5 22.8-7.2 34.8-7.7 0 4.1.5 8.3 1.2 12.3.7 4.6 5.1 21.6 4.8 24.1-.2 1.9-11 17.5-10 18.5 6.6-1.3 7.2-11 13-13 0 .2 1.1 1.2 1.1 2.4 0 8.7-12.7 50.7-17.6 58.5-2 3.1-7.5 8.2-8.2 10.8-1.7 6.7.7 18.3-.2 25.8s-10.9 23-16.5 28.5c3.1-12.7 7.3-23.4-4.5-33-.6 8-2.6 16.5-3.1 24.5-.8 15.3 1.9 34.4 0 48.9-1.2 9.1-10.6 22.5-13.1 31.9l-18.8 35.6c2-25.1 11.6-51.9 4.2-76.7l-17.2-28.3c.7 8.7 5.1 18 5.9 26.6.9 9.6-3.2 18.8-5.9 27.9l-15 36.5v-49.5c0-.6-1.4-7.4-1.8-8.2-1.7-4.4-16-19.2-20.2-22.8-1.2-1-13.7-11.8-14-6 0 1.2 10.9 15.3 12.5 19.4.4.9 1.1 2.3-.6 2 .3-1.4-.4-1.6-1.4-2.2-8.6-5.3-25.8-17-34.8-19.2-9.7-2.3-21.8 0-32.1-1.9-6.8-1.3-19.3-15.2-25.8-20.2-4.2-3.2-13.7-10.3-18.4-11.6-4.2-1.2 1.3 9.2.5 10-5.7.3-11.3-1.2-16.7-2.8-2.5-3.5-12.5-11-13.8-14.3-.3-.7.3-4.7.5-5v.4Z" class="outline" data-original-prefix="outline"/></g><g class="trait-group" data-category="eyes"><path id="outline-eyes2" fill="#000" d="m981 1184-8.5-8c-11.5-11.2-19.5-31.1-29.9-42.1-8.7-9.1-25.2-21.3-35.7-29.3-17.2-13.3-42.5-27.1-57.4-40.6-1.2-1.1-2.9-2-2.5-4 13.6 2.5 23.9 12.5 35.3 19.2 22.3 12.9 46.3 23.5 68.7 36.3 3.9 3.2 8.8 14.6 11.2 19.8 7.2 15.8 12.7 32.4 18.8 48.7" class="outline" data-original-prefix="outline"/></g><g class="trait-group" data-category="eyes"><path id="outline-eyes1" fill="#000" d="M1202 1060c.3 2-1.3 2.8-2.5 4-14.8 13.6-40.2 27.3-57.4 40.6-10.4 8.1-26.9 20.2-35.7 29.3-10.4 10.9-18.5 30.9-29.9 42.1l-8.5 8c6.1-16.2 11.6-32.9 18.8-48.7 2.4-5.2 7.3-16.6 11.2-19.8 22.4-12.8 46.4-23.4 68.7-36.3 11.5-6.6 21.7-16.7 35.3-19.2" class="outline" data-original-prefix="outline"/></g>
<g class="trait-group" data-category="right ear"><path id="fill-ear-rt1" fill="#fff" d="M1241.6 968.9c-9.9-6-19-13.2-28.4-19.8-3.4-2.4-6.5-5-9.2-8.1-3.4-2.3-4.8-6.2-7.4-9.2-7.5-8.6-13-18.5-17.3-29.1-4.1-10.2-7.4-21.3-3.2-31.6 7.6-18.9 13-38.7 23.6-56.5 18.4-30.8 30.5-64.7 46.1-97 2.3-4.7 3.3-10.2 3.8-15.4 3.8-36.3 5.3-72.8 9.6-109 2.6-21.9 2.3-44.2 8.4-65.7 1.8-6.4 4.5-12.1 8.5-17.3 10.8-13.9 22-27.6 32.5-41.8 40.9-55.1 88.7-103 146.7-140 44.1-28.1 88-56.5 134.1-81.4 8.8-4.7 17.6-9.4 26.5-14 31.2-16.1 62.6-32 96.3-42.5 7.2-2.3 6.9-2.4 7.4 5.5 2.4 38.7-3.7 76.7-10.2 114.7-.9 5.4-3 10.2-5.9 14.7-5.4 8.4-10.3 17.2-13.3 26.8-12.2 38-22 76.5-21.9 116.9v19.1c-2.6-2.4-2.8-4.3-3.4-6-6.5-16.7-11.4-34-18.6-50.5-2.7-6.2-6.3-11.7-12-15.6-10.6-7.3-23.9-2.8-27.2 9.2-1 3.8-1.3 7.8-.8 11.9 1.3 10 4.6 19.4 8.1 28.7 11.6 31.4 24.8 62.3 34.8 94.3.8 2.5 1 4.7.3 7.3-17.5 64.7-54.4 118.2-98.4 167.3-3.5 3.9-6.9 8.5-12.2 10.5-.4-3 2.4-3.8 3.9-5.3 10.6-10.5 12.6-23.7 10.8-37.4-1.7-13-12.8-21.3-26.1-21.6-20.6-.4-37.1 12.4-39.1 30.8-.8 8.1 1.6 15.8 4.4 23.3 4.5 11.8 13.5 17.2 26.2 16.2 6-.5 11.8-1.9 16.8-5.5 1.1-.8 2-1 3.2-.6 0 3.1-2.6 4.2-4.3 5.8-13.1 12.2-27.5 22.7-43.2 31.2-22.6 12.2-44.7 25.1-66.2 39.1-4.6 3-11 5.3-8.7 13.2.2.6-.5 1.6-.8 2.3-6.2 16.9-12.8 33.6-21.2 49.6-.9 1.7-1.5 3.5-3.5 5-3.3-6.2-8.8-8.7-14.8-10.5-7.8-2.3-15.7-2.9-23.7-2.6-8.2.2-12.9 4.2-14.7 12.1-1.2 5.2-1.6 10.6-1.6 15.9 0 12.3 0 24.7 7.3 35.6 1.7 2.5-.5 3.3-1.7 4.3-10.1 8.1-20.7 15.8-32.1 22-8.2 4.5-16.6 8.7-26.6 9.2-14.7.7-27.9-4.8-41.7-8.2v-.3Zm453.4-728c-1.5-1.3-2.2-.8-2.9-.4-6.5 4.3-13.5 8-18.9 13.8-4.8 5.1-10.4 8.9-16.7 11.6-7.7 3.2-13.8 8.3-19.7 14.2-11.7 11.7-23.8 22.9-35.6 34.4-17.2 16.7-34.5 33.3-48.1 53.4-16 23.7-28.7 49.2-39.1 75.8-.8 2-.6 3.8-.3 5.8 2.7 16.2 6.6 32.2 7.7 48.7 1.2 18.5 1.6 36.9-.3 55.4-1.5 14.2-6.3 27.6-10.6 41-5.7 17.8-13.7 34.7-24.5 50-3.8 5.4-8.5 9.9-14.4 12.8-7.3 3.6-13.6 1.2-16.7-6.3-.8-1.8-1.4-3.8-1.7-5.7-3.8-20-10.2-39.3-16.4-58.6-1.3-3.9-3.4-6.7-6.7-8.9-16.1-10.7-32.9-20.1-50.1-29.1-.7-.3-1.4-1-2.2 0 .5 1.3 1.2 2.7 1.7 4 5.8 15 10.7 29.9 7.8 46.5-2.2 12.8-4.6 25.5-6.9 38.3-4.9 27.3-17 50.6-37.2 69.8-2.3 2.2-4.2 4.7-5.9 7.4-22.7 35-41.4 72.2-58.7 110.1-12.8 28.1-29 53.9-48.1 78.1-2 2.6-3.5 5.3-3.5 8.6 0 7.8-1 15.6-2 23.4-.3 2.3.2 4 1.7 5.8 7.3 8.3 16 15 25.3 21 .5.3 1.2.7 1.8 0 .5-.8.2-1.6-.2-2.3-4.7-8.2-6.2-17-4.6-26.3 3-17.2 8.7-33.6 16.5-49.1 21-42.2 43.8-83.5 71.9-121.5 13.8-18.8 27.5-37.7 45.1-53.3 1.8-1.6 1.9-3.3 1.9-5.4-.3-24.2 5.5-47.2 13.6-69.7 1.4-3.8 3-7.4 5.5-10.6 3.6-4.6 6.5-5.2 11.7-2.3 1.7 1 3.4 2.2 4.7 3.6 10.7 11.6 17.2 25.4 19 41 2.7 23.9-3.5 45.9-15.2 66.5-.6 1.1-2.2 2.1-1 4.2 3.5-1.7 7-3.2 10.3-5.1 23.9-13.3 47.3-27.3 66.8-47 3.1-3.1 5.5-5.8 6.2-10.1 4.6-29.7 12.5-58.6 22.7-86.8 6.1-16.9 15.6-32 26-46.5 1.2-1.6 3-3 1-5.6-6.6-8.8-9.3-19.2-10.8-29.8-4-27.8 0-55.2 8.9-81.3 19.7-58.5 55.9-104.7 108.2-137.9 3.9-2.5 8.8-4.4 11-8.4 7.1-12.6 13.7-25.5 21.9-37.2Zm-369.3 560.6c-.9 5 1.5 9.2 3.3 13.5 7.9 19.5 26.7 28.9 47.1 23.4 26.6-7.1 42.2-31.2 37.8-58.5-4.3-27.1-33-42.1-56.7-28.9-19.6 10.9-29.7 28.4-31.5 50.5" class="fill" data-original-prefix="fill"/></g><g class="trait-group" data-category="right ear"><path id="fill-ear-rt-rill-ring" fill="#fff" d="M1427.6 994.5c-5.1 0-9-2-12.9-5.1-14.2-11.6-25.4-25.9-37.6-39.3-5.2-5.7-10.4-11.3-15.7-16.8-9.5-9.9-11.6-22.1-10.5-35.1.5-6.3 5.2-9.6 11.5-9.1 6.7.6 11.9 2.5 15.5 9.4 6.5 12.1 16.3 21.9 25.4 32 5.6 6.2 11.4 12.2 17.2 18.2 4.9 5 9.9 6.1 15.3 3.6 6.7-3.1 10.4-8.7 9-15.3-2.6-12.2-6-24.2-15.3-33.5-3.4-3.4-6.2-7.4-9.7-10.8-2.6-2.6-2.5-4.7-1.1-7.8 4.9-10.2 4.7-10.2 12.5-2.6 3.2 3.2 6.3 6.4 9.8 9.3 13.4 10.9 21.1 25 24.4 41.7 1.9 9.5 3.6 18.9 5.6 28.4.8 3.6.2 6.8-2 9.4-11 12.8-24.9 20.5-41.4 23.5Z" class="fill" data-original-prefix="fill"/></g><g class="trait-group" data-category="right ear"><path id="fill-ear-rt-fill-pin3" fill="#fff" d="M1769.8 596.9c-1.3 26.7-19.5 50.4-52.3 40.3-21.5-6.6-33.6-22.3-40.1-42.9-2.1-6.7-1.2-7.6 5.3-10.2 8.5-3.3 16.9-6.8 25.5-9.7 2-.7 3.3-.3 4.4 1 3.1 3.6 6.2 7.4 9.2 11.1 2.2 2.8.9 4.6-2 5.3-3.4.8-7.9.9-9.5 3.3-1.6 2.6 1.3 6.4 2.1 9.8 1.7 7.7 1.7 7.6 9.1 4 5.1-2.5 10.3-4.6 15.4-7.1 4.3-2.1 5.7-7.5 2.8-11.3-5.6-7.3-9.6-15.4-13-23.9-.8-2.1 0-2.2 1.3-2.8 8.5-4.2 16.9-8.5 25.3-12.7s2.8-.8 3.7.7c1 1.5 2.1 3 2.8 4.6 5.8 13.2 8.7 27 9.9 40.3v.2Z" class="fill" data-original-prefix="fill"/></g><g class="trait-group" data-category="right ear"><path id="fill-ear-rt-fill-pin2" fill="#fff" d="M1672.2 574c-4.8.8-5.7-3.2-6.9-6.6-9.5-26.9-18.9-53.8-28.4-80.8-5.8-16.6-11.7-33.2-17.5-49.8-.5-1.5-1.6-2.9-1.1-4.7.8-2.7 1.3-5.9 4.9-6.1 3.8-.2 6.5 1.7 8.1 5.2 7.7 16.9 14.3 34.2 21.1 51.5 10.1 25.9 20.1 51.8 30.1 77.7 3.7 9.7.9 13.4-10.2 13.5Z" class="fill" data-original-prefix="fill"/></g><g class="trait-group" data-category="right ear"><path id="fill-ear-rt-fill-pin1" fill="#fff" d="M1694.7 410.3c6.4 12.8 11.3 24.7 15.8 36.7 11.7 30.9 23.1 61.9 34.7 92.8.5 1.4 1.2 2.7-.4 3.4-3.7 1.7-7.5 3.4-11.4 4.6-2 .6-1.9-1.9-2.4-3.1-9.3-22.5-18.4-45-27.7-67.4-3.8-9.2-7.8-18.3-11.7-27.4-1.7-4.1-2.2-8.3-1.5-12.7 1.3-8.5 2.1-17.1 4.5-26.9Z" class="fill" data-original-prefix="fill"/></g><g class="trait-group" data-category="right ear"><path id="fill-ear-rt-stud2" fill="#fff" d="M1404.1 793c-.6 10.6-6.4 21.2-19 27.2-11.5 5.4-22.7 4.5-32.7-3.7-6-4.9-9.7-11.4-9.6-19.4 0-5.3-.3-10.7.7-15.9 2.3-11.9 15.2-21.5 28.7-22.2 19.7-.9 31.8 10.9 31.9 34" class="fill" data-original-prefix="fill"/></g><g class="trait-group" data-category="right ear"><path id="fill-ear-rt-stud1" fill="#fff" d="M1543 714.6c0 18.3-17.1 29.5-32.7 21.5-9-4.6-13.9-15.9-11.1-25.8 3.1-11.3 18.7-20.5 30-17.8 8.8 2.1 13.8 10.1 13.8 22.1" class="fill" data-original-prefix="fill"/></g><g class="trait-group" data-category="right ear"><path id="outline-shading-ear-rt2" fill="#000" d="M1362.6 945.6c-19 13.1-37.7 25.8-56 38.9-5.4 3.9-10.6 4.6-16.8 3.2-31.8-7.5-61-20.2-85.9-41.7-7.5-6.5-16.2-11.5-22-20-2.1-3.2-2.5-5.5-1.8-9.6 1.9-11 8.6-18.5 15.5-26.1 41.8-45.9 77.3-96.1 105.2-151.7 27-53.9 48.2-109.9 62.2-168.5 2.8-11.8 10.2-19.7 17.2-28.5 2.3-2.9 5.3-1.8 8.3-1.5 17.5 2 34.7 5.5 51.8 10 6.4 1.7 11.2-.4 14.5-6.2 1.1-2 2.1-4.1 3.3-6.1 10.6-17.7 16.8-36.7 16.5-57.5-.4-19.7 6.1-36.6 17.6-52.5 13.6-18.8 24.9-39.2 38.8-57.8 8.2-11 17.8-20.6 28.3-29.2 16.7-13.7 33.6-27.1 50-41.1 16.6-14 35.5-24.4 53.9-35.6 5.4-3.3 9.6 1.1 14.5.5.8 0 1.4 2 1 3.4-1 3.1-2 6.3-4 9-7.8 10.7-15.7 21.3-24.1 31.7-35.9 44.6-60.8 94.7-74.5 150.2-5.6 22.9-4.6 46.1-.6 69.2 2.1 11.8 2.1 22.7-3.8 33.6-4.2 7.8-6.6 16.6-9.9 24.9-.9 2.2-1.5 4.3-1.4 6.7.3 4.9 2 5.9 6.3 3.6 3.6-1.9 6.5-4.6 8.9-7.8 16.1-20.5 27.7-43.6 39.7-66.6 1.7-3.3.7-6.4 0-9.7-3.3-17.9-6.9-35.8-9.3-53.9-1-7.1.4-13.9 1.1-20.8.2-2.5.7-5.6 4.1-6.1 3.5-.5 6.8.2 8.7 3.4 1.3 2.2 2.2 4.8 2.9 7.3 11.6 42.9 28.4 84.1 42.2 126.3.3.9.7 1.9 1.1 2.8 3 7.4 1.4 13.4-4.9 17.9-5.4 3.9-10.8 7.8-16.2 11.5-6.8 4.6-7.9 4.3-9.9-3.5-3.7-14.5-7.1-29-10.6-43.5-1.6-6.7-3.1-13.5-4.8-20.7-3.9 2.9-3.8 7.3-4.9 10.8-17.9 54.9-42.2 106.6-75.2 154.1-7.5 10.8-17.2 18.1-27.4 25.6-2.6 1.9-7.6 2.5-6.9 7.3.6 4 7.9 7.8 13.1 7.1 7.9-1.1 14.5-4.5 18.8-11.6 2.6-4.2 5.2-8.5 8-12.6 1.1-1.6 2.6-3.3 4.9-2.7 2.2.6 2.7 2.8 2.9 4.8 1.1 11-.4 21.2-8.6 29.4-18.9 18.9-40.2 34.6-63.9 46.9-18.3 9.5-35.6 20.5-53.1 31.3-6.7 4.1-10.4 9.1-12.8 17.4-5.9 20.3-14.3 39.9-25.8 57.9-4.7 7.4-5.1 7.5 0 13.6 9.8 11.7 19.5 23.5 30.7 33.9 3 2.8 5.8 6.9 11 3.9 6.1-3.5 8.8-8.5 7.1-14.6-3-10.9-6.5-21.6-15.4-29.5-2.2-2-4.1-4.4-5.8-6.8-5.6-7.8-5.7-13.9-.7-21.8 2.2-3.4 6.6-4.9 9.3-2.1 13.1 13.8 30.4 24.2 36.4 43.8l1.8 5.7c1 3 .3 5.2-2.9 6.3-4.9 1.6-6.7 5.1-5.9 10 1.5 9.9-3.3 15.7-12 19.2-.3 0-.6.3-.9.5-10 7.2-18.5 5.6-28.7-1.5-18.5-12.9-31.8-29.9-43.6-48.5-2.1-3.3-4.3-6.6-6.5-10-6.1 6.8-7.8 18.2-4 25.6.3.6.6 1.2 1 1.7 15.7 18.3 29.9 38 47.8 54.5 6 5.5 13.2 9.6 21.1 13.9-10.2 3.2-16.8-.5-23.1-6.7-13.8-13.4-27.1-27.2-39.4-42.1-.8-1-1.9-1.8-3.5-3.2zm10.3-96.3c-11.4 3-21.8 2.3-31.5-3-2.8-1.5-4.3-.5-5.6 1.8-1.2 2-2.3 4-3.5 6-15.4 25.6-30.8 51.1-50.6 73.5-1.5 1.7-3.1 3.7-3.7 5.8-3.4 11.3-6.6 22.8-10.1 35.1 4.5-1.4 6.6-4 9.1-6 12.6-10.8 24.1-22.7 36-34.2 6.6-6.4 11.6-13 13-22.5 1.5-10.1 7.5-17.4 17.9-20.5 3.8-1.1 7.3-3.1 11-4.6 4.9-2 8.4-5.5 10.5-10.1 3-6.5 5.7-13.2 7.6-21.3zM1484 742.1c-2.8 1.3-5.2 2.4-7.5 3.6-20.6 10.1-42 17.8-65 19.9-4.7.4-5.7 2.4-4.1 6.4 4.4 11.2 4.4 22.6 1.8 34.1-.3 1.5-1.2 3.2 1 5.3 33.5-9.4 64.2-25.1 92.9-47.2-10.4-4.7-15.2-12.9-19-22.1zm-83.6 43.7c-1.3-8.2-2.6-17.7-11.4-23.8-4.1-2.8-7.4-3.3-11.2.8-9.2 9.9-18.6 19.7-28.2 29.2-3.9 3.8-3.5 7.1-1.1 11.3 5.8 10.1 17.3 15.8 27.4 13.2 12.7-3.2 24.6-17.5 24.5-30.6Z" class="outline" data-original-prefix="shading" opacity=".2"/></g><g class="trait-group" data-category="right ear"><path id="outline-shading-ear-rt1" fill="#000" d="M1729.1 559.3c-16.1-24.2-22.9-52.5-34.6-78.7-6.8-15.3-10.7-30.3-8.7-47 .7-5.2.4-10.6.7-15.9 0-2.1.9-3.9 3.3-4.3 2.5-.4 4.6.2 5.7 2.8 4.4 10.4 8.7 20.8 13 31.2 1.6 3.8-.3 7.2-1.5 10.6-2 5.6-1.7 10.8.7 16.3 9.5 22.6 18.8 45.3 28.1 68 1.3 3.1 1.7 5.8 6.8 3.8 5.9-2.3 8.8 4.2 15 6.9-24.8 19.2-48.8 36.7-71.9 56 3.3 6.1 7.6 10.5 12.4 14.6 3.7 3.3 6.5 2.6 10.2-.7 15.2-13.8 30.8-27.3 46.2-40.9 2.7-2.4 5.2-5.1 8.6-6.6 5 10.4 4.9 11.6-2.9 18.5-10.2 9-20.5 17.9-30.7 26.9-2.4 2.1-4.7 4.4-8.6 8.1 18.6-1.5 32.1-9.6 46-17.9-2.1 9.3-3.8 18.5-13.6 23.3-3.3 1.6-6.3 3.7-9.5 5.5-17 9.4-36.9 6.6-51.3-6.7-8.9-8.2-16.1-17.5-20.8-28.6-2-4.6-3.1-9.5-.4-14.4 2.4-4.4 6.5-6.3 10.9-8 15.2-5.9 29.6-13.5 44.2-20.6.8-.4 1.5-1.3 2.7-2.5z" class="outline" data-original-prefix="shading" opacity=".2"/></g><g class="trait-group" data-category="right ear"><path id="outline-outer-rt" fill="#000" d="M1538.9 745.1c5.3-2 8.7-6.6 12.2-10.5 44.1-49.1 80.9-102.5 98.4-167.3.7-2.5.5-4.8-.3-7.3-10-32-23.2-62.9-34.8-94.3-3.4-9.3-6.8-18.7-8.1-28.7-.5-4.1-.3-8 .8-11.9 3.3-12.1 16.6-16.5 27.2-9.2 5.7 3.9 9.3 9.4 12 15.6 7.2 16.5 12.1 33.8 18.6 50.5.6 1.7.9 3.5 3.4 6v-19.1c0-40.3 9.7-78.8 21.9-116.9 3.1-9.6 7.9-18.3 13.3-26.8 2.9-4.5 4.9-9.3 5.9-14.7 6.5-37.9 12.6-75.9 10.2-114.7-.5-7.9-.3-7.8-7.4-5.5-33.7 10.6-65 26.4-96.3 42.5-8.9 4.6-17.7 9.3-26.5 14-46.1 24.9-90 53.2-134.1 81.4-58 37-105.9 84.9-146.7 140-10.5 14.2-21.7 27.9-32.5 41.8-4 5.2-6.7 10.9-8.5 17.3-6.1 21.5-5.9 43.8-8.4 65.7-4.3 36.2-5.8 72.7-9.6 109-.5 5.2-1.6 10.8-3.8 15.4-15.6 32.2-27.7 66.2-46.1 97-10.7 17.9-16 37.6-23.6 56.5-4.2 10.4-.9 21.5 3.2 31.6 4.3 10.5 9.8 20.4 17.3 29.1 2.6 3 4.1 6.8 7.4 9.2-2.9.3-5-1.7-7.2-2.9-11.8-6.6-21.9-14.8-29.1-26.6-6.2-10.2-12.6-20.5-20.1-29.8-1.4-1.7-.8-3.1-.5-4.6 4.4-18.1 8.9-36 18.3-52.5 7.7-13.4 12.7-28.2 18.4-42.7 2.2-5.6 5.1-10.7 9.2-15.3 15-16.5 22.2-36.8 29.1-57.5 9.2-27.3 12-55.6 15.7-83.8 4.4-34.1 6.9-68.3 7.6-102.6 0-4.8 2.6-8 5.2-11.5 14.5-20 28.9-40 43.3-60 30.6-42.6 66.1-81.1 102-119.2 7-7.4 14.7-14 23.1-19.7 61.8-42.3 126.4-79.5 196.3-106.7 29.8-11.6 59.2-24.3 90.5-31.8 6.3-1.5 12.7-2.7 19.1-3.9 3.6-.7 5.9.5 6.9 4.5 1.5 6.2 3 12.3 3.5 18.6 2 26.7 0 53.3-1.7 79.8-1.3 18.9-2.1 37.9-5.3 56.7-1.5 8.4-3.6 16.1-9.8 22.8-11.2 12-16.4 27.2-20 43-.5 2-.2 3.4 1.2 4.9 2.3 2.4 4 5.3 5.4 8.4 17.7 39.7 35.7 79.2 51.8 119.6.6 1.5 1.1 3.1 1.6 4.7.8 2.5 1.2 4 5.1 4.1 6.1.2 9.6 5.5 11.7 11 4.4 11.5 7.7 23.4 10 35.5 1.4 7.4 2.2 14.8 1.6 22.4-1.7 21.1-14.5 34.2-32.2 43-14.5 7.2-30.1 8.4-45.8 4.9-18.2-4.1-29.7-16.9-39.4-31.7-2.8-4.3-5-8.9-7.8-13.9-2.8 6.2-5.5 12-8.2 17.8-12.4 26.8-26.6 52.7-42.6 77.4-22.9 35.2-52.4 64.1-86.8 88.1-20.1 14-40.4 27.7-62.9 37.7-11.1 5-17.9 14-24.1 23.9-5.6 9-5.6 8.9 2.8 15.3 7.2 5.6 14.3 11.4 21.6 17.1 9.4 7.4 15.7 16.7 18.2 28.4 4 18.4 8.1 36.7 11.9 55.1 1.7 8-1.3 14.3-8.1 18.9-15.2 10.2-31 19.3-48.2 25.7-4.2 1.6-9 3.1-12.4.2-4.2-3.6-9.2-6-13.2-9.9-14.7-14.1-29.7-27.7-44.4-41.8-3.3-3.1-5.2-3.6-8.7 0-8.7 9.2-18 17.8-27 26.7-.7.7-1.4 1.8-2.3 1.9-9.9 1.4-19.4 5.8-29.9 2.8-17.2-4.9-33.5-11.9-49.7-19.4-2.5-1.2-4.4-3-5.9-5.2 13.7 3.4 27 8.9 41.7 8.2 9.9-.5 18.4-4.8 26.6-9.2 11.4-6.2 22-13.8 32.1-22 1.2-1 3.4-1.7 1.7-4.3-7.3-10.8-7.3-23.3-7.3-35.6s.3-10.6 1.6-15.9c1.8-7.9 6.5-11.8 14.7-12.1 8-.2 15.9.3 23.7 2.6 6.1 1.8 11.5 4.3 14.8 10.5 2-1.5 2.6-3.4 3.5-5 8.4-16 15-32.7 21.2-49.6.3-.8 1-1.7.8-2.3-2.3-7.8 4.1-10.2 8.7-13.2 21.5-14 43.7-26.9 66.2-39.1 15.8-8.5 30.1-19.1 43.2-31.2 1.7-1.6 4.4-2.7 4.3-5.8l-.3.4Zm155.2-244.7c-2.2 9.9-4.4 19.7-6.7 29.6-.6 2.5-.6 4.8.5 7.2 3.3 7.4 6.5 14.9 9.6 22.4.8 2.1 1.8 3.1 4 2.2 5.8-2.3 11.6-4.5 17.5-6.7 2-.8 2.3-1.7 1.4-3.7-8.4-18.4-16.8-36.8-25.2-55.3zm-266.5 494.1c16.5-2.9 30.4-10.6 41.4-23.5 2.2-2.6 2.8-5.8 2-9.4-2-9.4-3.7-18.9-5.6-28.4-3.3-16.7-11-30.8-24.4-41.7-3.5-2.8-6.6-6.1-9.8-9.3-7.8-7.7-7.6-7.6-12.5 2.6-1.5 3.1-1.6 5.3 1.1 7.8 3.5 3.3 6.3 7.3 9.7 10.8 9.3 9.3 12.7 21.3 15.3 33.5 1.4 6.6-2.3 12.1-9 15.3-5.4 2.5-10.4 1.4-15.3-3.6-5.8-6-11.6-12-17.2-18.2-9.1-10.1-18.9-19.9-25.4-32-3.7-6.9-8.9-8.8-15.5-9.4-6.3-.6-11 2.8-11.5 9.1-1.1 13 1 25.2 10.5 35.1 5.3 5.5 10.5 11.1 15.7 16.8 12.2 13.4 23.5 27.7 37.6 39.3 3.8 3.1 7.8 5 12.9 5.1Zm342.2-397.6c-1.1-13.2-4-27.1-9.9-40.3-.7-1.6-1.9-3.1-2.8-4.6-1-1.6-2.2-1.5-3.7-.7-8.4 4.3-16.9 8.5-25.3 12.7-1.1.6-2.1.7-1.3 2.8 3.4 8.5 7.4 16.6 13 23.9 2.9 3.8 1.6 9.2-2.8 11.3-5.1 2.5-10.3 4.6-15.4 7.1-7.4 3.6-7.4 3.7-9.1-4-.7-3.4-3.7-7.2-2.1-9.8 1.5-2.4 6.1-2.5 9.5-3.3 3-.7 4.3-2.5 2-5.3-3-3.8-6-7.5-9.2-11.1-1.1-1.3-2.4-1.7-4.4-1-8.7 2.9-17.1 6.3-25.5 9.7-6.5 2.6-7.4 3.5-5.3 10.2 6.5 20.6 18.6 36.4 40.1 42.9 32.8 10.1 51-13.7 52.3-40.3v-.2Zm-97.6-22.9c11.1 0 13.9-3.8 10.2-13.5-9.9-25.9-19.9-51.9-30.1-77.7-6.8-17.3-13.4-34.6-21.1-51.5-1.6-3.5-4.3-5.5-8.1-5.2-3.6.2-4.1 3.4-4.9 6.1-.5 1.8.5 3.2 1.1 4.7 5.8 16.6 11.7 33.2 17.5 49.8 9.5 26.9 18.9 53.9 28.4 80.8 1.2 3.4 2.2 7.4 6.9 6.6Zm22.5-163.7c-2.5 9.8-3.2 18.4-4.5 26.9-.7 4.4-.2 8.6 1.5 12.7 3.9 9.1 7.9 18.2 11.7 27.4 9.3 22.5 18.4 45 27.7 67.4.5 1.2.5 3.7 2.4 3.1 3.9-1.2 7.7-2.8 11.4-4.6 1.5-.7.9-2 .4-3.4-11.6-30.9-23-61.9-34.7-92.8-4.6-12-9.4-24-15.8-36.7Zm-283.2 491.4c-.3 5.3-5.1 8.8-1.3 12.8 3.6 3.9 7.3 7.7 10.1 12.3 1.5 2.5 4 3.9 6.8 2.1 3.1-1.9 1.4-4.4 0-6.5-4.2-7-9.7-13-15.7-20.7Z" class="outline" data-original-prefix="outline"/></g><g class="trait-group" data-category="right ear"><path id="outline-inner-rt1" fill="#000" d="M1695 240.9c-8.3 11.8-14.8 24.7-21.9 37.2-2.3 4-7.1 5.9-11 8.4-52.4 33.2-88.5 79.4-108.2 137.9-8.8 26.1-12.9 53.5-8.9 81.3 1.5 10.6 4.2 21 10.8 29.8 2 2.6 0 3.9-1 5.6-10.4 14.5-19.8 29.6-26 46.5-10.3 28.3-18.1 57.1-22.7 86.8-.7 4.3-3.1 7-6.2 10.1-19.5 19.7-42.8 33.7-66.8 47-3.3 1.8-6.8 3.4-10.3 5.1-1.2-2 .3-3 1-4.2 11.7-20.7 17.9-42.7 15.2-66.5-1.8-15.6-8.3-29.4-19-41-1.3-1.4-3-2.6-4.7-3.6-5.1-2.9-8.1-2.3-11.7 2.3-2.5 3.2-4.2 6.8-5.5 10.6-8.1 22.5-14 45.5-13.6 69.7 0 2 0 3.8-1.9 5.4-17.5 15.6-31.2 34.6-45.1 53.3-28.1 38.1-50.9 79.3-71.9 121.5-7.7 15.5-13.4 31.9-16.5 49.1-1.7 9.4-.2 18.1 4.6 26.3.4.7.7 1.5.2 2.3-.6.6-1.3.3-1.8 0-9.3-6-18-12.6-25.3-21-1.6-1.8-2.1-3.5-1.7-5.8 1-7.7 1.9-15.5 2-23.4 0-3.3 1.5-6 3.5-8.6 19-24.2 35.3-50 48.1-78.1 17.3-37.9 36-75.1 58.7-110.1 1.7-2.7 3.6-5.2 5.9-7.4 20.1-19.1 32.2-42.5 37.2-69.8 2.3-12.8 4.7-25.5 6.9-38.3 2.9-16.6-2-31.6-7.8-46.5-.5-1.4-1.2-2.7-1.7-4 .8-1.1 1.6-.5 2.2 0 17.1 8.9 34 18.3 50.1 29.1 3.3 2.2 5.4 5 6.7 8.9 6.2 19.3 12.6 38.6 16.4 58.6.4 1.9 1 3.9 1.7 5.7 3.1 7.5 9.4 9.9 16.7 6.3 6-2.9 10.7-7.4 14.4-12.8 10.8-15.4 18.8-32.3 24.5-50 4.3-13.4 9.2-26.8 10.6-41 1.9-18.5 1.6-36.9.3-55.4-1.1-16.5-5.1-32.5-7.7-48.7-.3-2-.5-3.8.3-5.8 10.4-26.6 23-52.1 39.1-75.8 13.6-20 30.9-36.6 48.1-53.4 11.8-11.5 23.9-22.7 35.6-34.4 5.8-5.8 12-10.9 19.7-14.2 6.3-2.7 12-6.5 16.7-11.6 5.4-5.8 12.4-9.5 18.9-13.8.7-.4 1.4-1 2.9.4Z" class="outline" data-original-prefix="outline"/></g><g class="trait-group" data-category="right ear"><path id="outline-ring-rt1" fill="#000" d="M1325.7 801.5c1.8-22.2 11.9-39.6 31.5-50.5 23.7-13.2 52.4 1.8 56.7 28.9 4.3 27.3-11.3 51.4-37.8 58.5-20.3 5.4-39.2-3.9-47.1-23.4-1.7-4.3-4.2-8.4-3.3-13.5m78.4-8.5c0-23.2-12.2-35-31.9-34-13.5.6-26.4 10.2-28.7 22.2-1 5.2-.6 10.6-.7 15.9 0 8.1 3.6 14.5 9.6 19.4 10 8.2 21.2 9.1 32.7 3.7 12.6-6 18.4-16.6 19-27.2" class="outline" data-original-prefix="outline"/></g><g class="trait-group" data-category="right ear"><path id="outline-ring-rt" fill="#000" d="M1539 745c-1.2-.4-2.2 0-3.2.6-5 3.7-10.7 5.1-16.8 5.5-12.7.9-21.6-4.4-26.2-16.2-2.8-7.4-5.3-15.2-4.4-23.3 1.9-18.4 18.4-31.2 39.1-30.8 13.2.2 24.3 8.6 26.1 21.6 1.8 13.7-.2 26.9-10.8 37.4-1.5 1.5-4.2 2.3-3.9 5.3h.1Zm4-30.4c0-12-4.9-20.1-13.8-22.1-11.4-2.7-26.9 6.5-30 17.8-2.8 9.9 2.1 21.2 11.1 25.8 15.6 8 32.6-3.2 32.7-21.5" class="outline" data-original-prefix="outline"/></g>
<g class="trait-group" data-category="left ear"><path id="fill-ear-lft3" fill="#fff" d="M570 663c30.7-2.3 65-.8 92.7 13.8 19 10.1 47.5 28.1 59.5 45.5 28.1 40.4 54.9 112.1 71.8 159.2 4.9 13.7 18.7 48.9 16.7 61.8-4.1 27-52.7 38.8-73.5 24.5-66.3-95.2-146-190.2-258.2-231.3-74.9-128.8-125.1-279.4-146.9-427.1-5.3-35.8-9.6-72.1-9.2-108.3 5.5 4.3 9.9 9.8 15 14.5 28.6 26.4 60.4 52.7 87 81 18.7 19.8 26 39.1 36.4 63.6 41.9 98.6 78.9 194.5 108.1 297.9.5 1.7.5 3.3.5 5h.1Z" class="fill" data-original-prefix="fill"/></g><g class="trait-group" data-category="left ear"><path id="fill-ear-lft2" fill="#fff" d="M647.7 372.1c1.9-.3 8.3 5.6 10.3 7.4 37.4 33.1 77.7 78.5 106.8 119.2 9.4 13.1 41.1 59.8 40.8 73.7 0 4.9-3.4 12.8-4.3 18.5-7 41.8-3.8 106.1 10 146.5 4.7 13.8 12.8 26.5 18.2 39.8s9.4 27.5 15 41c9.9 23.6 22 46.3 32.6 69.5 0 3.7-1.8 6.7-3.2 9.9-3.6 7.7-17.2 34.9-21.9 40.1-2.9 3.2-11.8 9.8-15.7 12.3-7.4 4.8-16.4 8.3-23.8 13.2l25.1-40c.9-3.2-6.4-20.6-8.1-25-17.9-44.5-42.2-92.2-63.6-135.4-9.3-18.7-24.7-55.8-39.9-68.1-6.9-5.6-16-9.6-23.4-14.6-16.3-11-32.1-22.8-48.8-33.2-15.6-3.3-49.2 4.2-60.7-8.3-3.6-3.9-9.1-16.2-11.5-21.5-8.5-19-15-39.8-22.8-59.2-13.1-32.5-26.6-64.9-39.6-97.5-.3-2.7 5-6.3 7.4-8.2 14.7-12.2 33.3-25 49.2-35.8q34.8-24 72-44.1v-.2Zm.1 12.1c-7.6.4-18.4 7-20.3 14.7-4.1 16 9.4 23.2 23.2 18.2 19.3-7 17.5-34-2.9-33Zm115.9 335c-14.2 2.4-10.1 26.4 1.3 31.3 26.3 11.2 27-36-1.3-31.3m53 82.1c-12.9-11-27.5 1.3-22.1 16.6 1.8 5.3 5 11.4 10.5 13.5 16.3 6.3 26.1-10.2 17.4-23.4-.5-.7-5.2-6.2-5.8-6.7m24 72.9c-11.1 2.3-9.9 16.7-5.9 24.5 5.3 10.3 20.4 15.4 27.7 4.2 8.6-13.2-6.5-31.9-21.7-28.7Z" class="fill" data-original-prefix="fill"/></g><g class="trait-group" data-category="left ear"><path id="fill-ear-lft1" fill="#fff" d="M631.9 358.9c-34.3 21.6-67.6 45-99.8 69.7-5.7 4.4-11.9 10.5-17.6 14.4-.8.6-1 1.4-2.5 1-16.9-38.3-28.9-79.7-45.5-118-11.5-26.4-24-36.6-44.5-55.5-31.3-28.9-64.1-56.3-96-84.5 44.5 13.2 88.6 29.1 130.7 48.8 63.3 29.7 119.8 77.5 174.4 120.6zm-108.1 36.3c-25.4 2-19.5 44.4 6.1 28.2 14.1-8.9 10.3-29.5-6.1-28.2" class="fill" data-original-prefix="fill"/></g><g class="trait-group" data-category="left ear"><path id="fill-ear-lft-rivet5" fill="#fff" d="M841.2 881.2c2.8-3.5 11.9 1.1 12.7 6.3 2.4 15.4-14.9 12.3-14.6 1.1 0-.9 1.6-7 1.9-7.4" class="fill" data-original-prefix="fill"/></g><g class="trait-group" data-category="left ear"><path id="fill-ear-lft-rivet4" fill="#fff" d="M807.8 805.2c7.9-1.2 13.7 8.2 8.1 14.2-9.1 9.7-23.6-11.9-8.1-14.2" class="fill" data-original-prefix="fill"/></g><g class="trait-group" data-category="left ear"><path id="fill-ear-lft-rivet3" fill="#fff" d="M775.7 740.7c-7.3 5.9-18.9-8.3-11.3-13.8 6.9-4.9 18.2 8.2 11.3 13.8" class="fill" data-original-prefix="fill"/></g><g class="trait-group" data-category="left ear"><path id="fill-ear-lft-rivet2" fill="#fff" d="M642.7 396.2c9.6-2.9 13 8.7 4.3 11.3-13.4 4.1-9.8-9.7-4.3-11.3" class="fill" data-original-prefix="fill"/></g><g class="trait-group" data-category="left ear"><path id="fill-ear-lft-rivet1" fill="#fff" d="M526.8 407.2c5.3 5.4-3.2 15.1-9.5 8.5-5.2-5.4 4.6-13.4 9.5-8.5" class="fill" data-original-prefix="fill"/></g><g class="trait-group" data-category="left ear"><path id="outline-shading-ear-lft" fill="#000" d="M520.2 411.8c1 1 10.3 2.4 11.7 1.8 2.9-1.2 11.2-8.9 14.8-11.3 20.7-14.6 42.5-30.6 63.6-44.4 3.4-2.2 14.8-10.5 18-9.6 1.7.5 3.9 4 5.8 5.3 5.6 3.8 11.8 7.1 17.9 10.1-9.7 6.7-20.6 11.3-30.7 17.3-23.1 13.7-44.1 30.5-65.8 46.2-1 1-2.2 1.3-1 3 .5.8 9.5 5.2 11.4 6.6 9.3 6.3 18.7 14.4 27.6 21.4 64.9 51.8 125.8 108.5 191 160l13.5-72c3.7 4.8 9.3 14.3 10 20.5 1.2 10.6-2.4 17.3-3.9 27.1-6.6 44.4-3.3 107.4 13.4 149.3 4 10 9.9 19.2 14 29 6.2 15.1 10.8 31.3 17.3 46.7 9.6 22.6 21.7 44.1 31.2 66.8 0 2.9.2 5.7-.5 8.6-1.1 4.1-19.5 39.4-22.5 43.5s-11.6 10.9-16.1 13.9c-18.5 12.7-39.4 20.8-61.7 24.3-11.4 1.8-33.6 2.8-43.2-4.3-68.4-94.4-146-191.3-259.8-231.7-53.4-90.2-90.6-189.4-118-290.5-16.9-62.3-30.7-130.3-36.3-194.7-.6-6.8-4.1-53.6-2-55.5.3-.3 2.7.4 3.8-.2 1.3-.8.3-4.3 5.5-3.6 11.1 4.8 23.9 7.5 34.3 13.8 39.3 23.7 76 63.2 111.5 92.5l43.5 98.5c1.2 3.1-.6 9.5 1.7 11.8zm-166.9-64.1L454 420.5c-6.8-18-11-35.7-23-51-10.7-13.6-27.7-29.3-40.5-41.5-14.6-14-30.3-27-45-41-2.3-.4-1.4.8-1.2 2.2.2 2.2.6 4.8.9 7.1.9 6.8 6.2 48.9 8.1 51.4M361 390c3.9 19.7 7.5 39.7 12.5 58.9l113 77c-2.7-19-10-37.1-15.5-55.5-34.8-25.8-69.6-54.4-105.7-78.3-1.4-.9-2.5-2.5-4.3-2.2Zm419 301c-.6-8.2-1.3-16.3-1-24.5.2-6.2 4-24.3.6-28.5L548 464.1c5.7 24.5 12.9 48.7 20.3 72.7L780 691.1ZM414 535c22.5 61 50.5 119.7 78 178.5 59.4 35.6 120.6 68 179.5 104.5-14.2-28.7-30.4-57.6-50.1-82.9-10.8-13.8-24.4-25.9-37.9-37.1-8.9-7.3-27.4-18.5-34-26-5.7-6.3-9.6-21.7-15-30s-14.7-17.2-21.9-24.1c-27.7-26.8-60.8-53.8-91-78-1-.8-6.8-5.8-7.5-5Zm363 200c1.9-8.4-16.8-13.8-13.8-3.7 1.6 5.5 9.5 4.8 13.8 3.7m35.4 63.6c-8.4-13-12-37.6-19.6-51.9-12-12-9.5 1.3-11.8 9.7-1 3.6-4.2 8.7-7.6 10.4-2.6 1.3-8 .4-7.4 2.6l21 47.5c2.2 1.6 5-7.5 9.4-7 .6 0 .6 1.7 1.2 2 3.6 2.1 6.7-.4 8.3.4 2.4 1.2 6 10.7 12.4 6.5 9-6-3.4-16.2-6-20.3ZM826 833c-2.6-.5-1.5.5-2.1 1.4-6.3 10.5-13.2 16-25.9 10.6-1.3 1.5 7.8 21.9 9 25.5 2.5 7.1 8.9 32.3 12.9 36.1 8.8 8.3 9.2-13.4 12.1-15.5.5-.3 3.1 1 4.5 1 2.5 0 4.1-1.9 6-2 2.3-.2 4 1.4 6.1 1.7 1 0 3-1 3.3-.7.3.2.4 6.1 2.5 7 6.4-5.2 2.9-15.9-3.8-19.2-1.9-.9-4.3-.8-6.1-1.9-5.3-3.4-15.3-36.3-18.6-43.9Z" class="outline" data-original-prefix="shading" opacity=".2"/></g><g class="trait-group" data-category="left ear"><path id="outline-shading-ear-lft2" fill="#000" d="M637.6 400.4c.2.1.4 1.1 1.2 1.5 9.2 4.4 15.6 1.7 25.2 3.1 3.5 11.4-13.5 27.2-24 24.5-9.5-2.4-16.7-15.4-14.8-24.8.2-1.1 3.1-6.8 3.8-7.3 2.2-1.4 6.5 1.9 8.6 3" class="outline" data-original-prefix="shading" opacity=".2"/></g><g class="trait-group" data-category="left ear"><path id="outline-ear-lft" fill="#000" d="M312.1 163.1c3-2.5 42.9 6.4 49.3 8C512.1 208 635.1 309.1 735.5 423c29.7 33.6 58 70.7 80.3 109.7 3.2 5.6 14 24 15 29 .6 2.9-5.2 26.5-5.8 32.8-6.3 64.6 7.8 142.2 38.8 199.2 6.2 11.4 30.5 45.7 32.1 54.9 1 5.9 3 30.9 1.6 35.5-12 18.1-24.5 59.3-41.2 71.8-5.8 4.3-43.1 24.1-49.8 26.2-16.7 5.4-37.4 4.2-54.2 10.9-13-2.5-25.8-7.7-38.7-11.1-2.9-1.9-3.6-6.4-5.5-9.5-43.9-76.1-140-177.5-221.2-212.8-5-2.2-18.4-5.6-21.3-7.7-3.2-2.2-15.1-21.6-17.8-26.2-64.6-112.1-114-265.2-131.7-393.3-6.6-47.5-13-106.2-7-153.7.7-5.2 2.1-10.4 3-15.5Zm319.8 195.8-.8-3.5c-54.6-43.1-111.1-90.9-174.4-120.6-42-19.7-86.2-35.6-130.7-48.8 31.9 28.2 64.8 55.6 96 84.5 20.5 18.9 33 29.2 44.5 55.5 16.7 38.2 28.6 79.6 45.5 118 1.5.4 1.7-.4 2.5-1 5.7-3.9 11.9-10 17.6-14.4 32.2-24.7 65.5-48.1 99.8-69.7M570 663c0-1.7 0-3.4-.5-5-29.2-103.4-66.1-199.3-108.1-297.9-10.4-24.5-17.8-43.7-36.4-63.6-26.6-28.2-58.4-54.6-87-81-5.1-4.7-9.5-10.2-15-14.5-.4 36.3 3.9 72.5 9.2 108.3 21.8 147.8 72 298.3 146.9 427.1 112.2 41.1 192 136.1 258.2 231.3 20.8 14.3 69.4 2.5 73.5-24.5 2-12.9-11.8-48.1-16.7-61.8-16.9-47.1-43.7-118.8-71.8-159.2-12.1-17.4-40.6-35.4-59.5-45.5-27.6-14.6-62-16.1-92.7-13.8h-.1Zm77.7-290.9q-37.2 20.1-72 44.1c-15.8 10.9-34.5 23.7-49.2 35.8-2.3 1.9-7.7 5.5-7.4 8.2 13 32.6 26.5 65 39.6 97.5 7.8 19.4 14.3 40.2 22.8 59.2 2.4 5.4 7.8 17.6 11.5 21.5 11.5 12.4 45.2 5 60.7 8.3 16.7 10.5 32.4 22.3 48.8 33.2 7.4 5 16.5 9 23.4 14.6 15.2 12.3 30.7 49.4 39.9 68.1 21.5 43.2 45.7 90.8 63.6 135.4 1.8 4.4 9 21.7 8.1 25l-25.1 40c7.5-4.8 16.5-8.3 23.8-13.2 3.9-2.5 12.8-9.1 15.7-12.3 4.7-5.2 18.3-32.4 21.9-40.1 1.5-3.2 3.2-6.2 3.2-9.9-10.6-23.3-22.7-45.9-32.6-69.5-5.6-13.5-9.6-27.7-15-41s-13.6-26-18.2-39.8c-13.7-40.3-17-104.6-10-146.5.9-5.6 4.2-13.5 4.3-18.5.3-13.9-31.5-60.6-40.8-73.7-29.1-40.7-69.4-86.1-106.8-119.2-2-1.7-8.4-7.6-10.3-7.4v.2Z" class="outline" data-original-prefix="outline"/></g><g class="trait-group" data-category="left ear"><path id="outline-ear-lft5" fill="#000" d="M840.7 874.2c15.3-3.2 30.3 15.5 21.7 28.7-7.3 11.2-22.3 6.1-27.7-4.2-4-7.8-5.2-22.2 5.9-24.5Zm.5 7c-.3.4-1.9 6.6-1.9 7.4-.3 11.2 17.1 14.3 14.6-1.1-.8-5.2-9.9-9.8-12.7-6.3" class="outline" data-original-prefix="outline"/></g><g class="trait-group" data-category="left ear"><path id="outline-ear-lft4" fill="#000" d="M816.7 801.3c.6.5 5.3 6 5.8 6.7 8.6 13.3-1.2 29.8-17.4 23.4-5.5-2.1-8.7-8.2-10.5-13.5-5.3-15.4 9.2-27.6 22.1-16.6m-8.9 3.9c-15.5 2.3-1 23.9 8.1 14.2 5.6-6-.2-15.3-8.1-14.2" class="outline" data-original-prefix="outline"/></g><g class="trait-group" data-category="left ear"><path id="outline-ear-lft3" fill="#000" d="M763.7 719.2c28.2-4.8 27.6 42.5 1.3 31.3-11.3-4.8-15.4-28.8-1.3-31.3m12 21.5c6.9-5.6-4.4-18.6-11.3-13.8-7.7 5.4 4 19.7 11.3 13.8" class="outline" data-original-prefix="outline"/></g><g class="trait-group" data-category="left ear"><path id="outline-ear-lft2" fill="#000" d="M647.8 384.2c20.4-1.1 22.2 26 2.9 33-13.9 5-27.3-2.3-23.2-18.2 2-7.7 12.7-14.3 20.3-14.7Zm-5.1 12c-5.4 1.6-9.1 15.5 4.3 11.3 8.6-2.6 5.3-14.2-4.3-11.3" class="outline" data-original-prefix="outline"/></g><g class="trait-group" data-category="left ear"><path id="outline-ear-lft1" fill="#000" d="M523.8 395.2c16.4-1.3 20.2 19.3 6.1 28.2-25.6 16.2-31.5-26.2-6.1-28.2m3 12c-4.8-4.9-14.7 3.1-9.5 8.5 6.3 6.6 14.8-3.1 9.5-8.5" class="outline" data-original-prefix="outline"/></g>
<g class="trait-group" data-category="head"><path id="fill-head" fill="#fff" d="M914 448.5c.2 1.7 1.9 5.4 3 7 3.1 4.5 28.3 28.7 33.1 31.9 8.2 5.6 13.6-2.2 20-7.9 9.1-8.2 17.3-18.4 26.5-26.5 31.3-27.3 66.7-49.1 105.8-63.2 1.2-.5 2.2-1.1 3.7-.8l-35.8 89.7c.4 15.7-1 34.3.8 49.8 2.5 21.8 29.6-1.4 41-1.5v17.5c0 3.8 5.1 9.7 9.2 9.3 4.5-.4 26.5-16 27.7-14.8 0 1.3.3 2.5.8 3.7 3.7 8.1 12.2 30.9 16.8 36.2 1 1.2 3.3 2.4 4.8 3.2 4.7 2.6 27.9 12.7 32.4 13.6 8 1.5 39.6-9.4 41.3-7.8l3.2 103.3 23.7 47.2-22.9 64.2c0 15 11.8 11.2 21.9 9.4-1.9 13.3-3.9 26.8-6.5 40-2.1 10.7-6.9 38.7-11 47s-16.9 19.1-22.4 27.6c-10 15.5-15.4 36.8-25.2 52.8-27.2 16.6-51.5 37.2-77.6 55.4-15.3 10.7-39 28-55 36s-35.9 14.4-43.3 15.7c-33.2 6.1-48.3-16.5-75.4-26.7-14.2-5.4-32.8-7.1-47.7-12.3-8.8-3.1-35.8-15.2-42.5-20.5-8.3-6.4-16.9-21.4-25-29-20.6-19.5-33.7-20.2-49.7-48.3-13.9-24.3-25.8-48.8-27.8-77.2-1.5-21.4 1.6-43.9 10.5-63.5 3.9-8.6 13 7.3 18.8 7.8 5.7-4.6 13.6-7.8 13.7-16.3 0-3.5-2.7-15.5-4.3-18.8-5.3-10.9-23.2-24.2-28.6-34.4-5.1-9.5 2-32.8 3.7-44 4.2-28.8 6.6-53.7 6.2-82.9 0-3.5-2.9-21.3 3.4-21.4 4.9 0 12.4 6.9 17.9-.2 4.5-5.8 8.2-39.8 10.9-50 3.8-14.2 11-27.5 14.7-41.8 2.4-2.1 11.3 11.3 18.5 1l29-79c12-16 24.2-32.2 37.5-47v66.5z" class="fill" data-original-prefix="fill"/></g><g class="trait-group" data-category="head"><path id="outline-shading-head" fill="#000" d="M1060 548c1.7 1.7 41.6-10.6 47.6-11.1 7.1.2 7.3 14.6 8.4 20.1 7.7.3 22.5-11.2 29.3-8.8s6.1 16.5 8.7 20.3c10.1 15.5 47.5 28.9 65 34 4 1.1 9.7 2.9 13.6 3.5 5.5.7 7.9-2.8 12.8 4.1 6.7 9.5 5.6 47.9 2.5 59.4-1 3.9-5.2 11.5-4.9 15 .2 2.9 8.7 17.9 10.5 22.6 8.2 21.5 11.5 48.8 5.2 71.2-3.2 11.4-9.8 21.3-12.7 32.8 10.1-3.2 19.9 1.5 21 12.5-4.8 16.4-5.1 38.3-11.2 53.8-10.4 26.4-29.4 47.3-38.1 76.9-2.3 7.8-4.1 25.3-7.7 30.3-1.9 2.6-7.7 7.2-10.5 9.5-11.6 9.7-39 29.5-52.5 34.5-8.8 3.3-13.8 2.6-21.5 9.5-4.9 4.5-3.6 8.8-7.1 13.9-5.7 8.3-17.4 21.5-26.4 25.6-28.3 12.7-55.1 25.5-86.3 12.3-1.5-.6-4.3-1.6-5.3-2.7-3.1-3.4-4.1-14.6-2.5-19.1-5.5 1.8-10.5 4.2-16.5 4.1-6.6-.2-14.2-3.7-21-4-7.7-.4-15.7 1.5-24 1-18.9-1.2-34.5-6-49.4-17.6-4.3-3.3-6.6-8.3-10.8-11.2-6-4.2-15-6.2-21-10-3.4-2.1-6.4-5.7-10-8-4.8-3.2-11.2-5-15.3-7.7-7.5-5-14.7-23.7-19.6-31.4-11-17.2-24.7-32.4-32.4-51.6-2.3-5.6-12.9-34.1-13-38-.2-13.3 10.3-1 14.3 1.7 2 1.3 15.5 7.9 16.7 6.8-2.6-7.1-6.1-15-6.9-22.6-1-9.1 1.3-18.7-1.4-27.6-2-6.4-7.5-11.9-10.2-17.8-1.6-3.5-7.4-19.6-8.1-23-.2-1.2-.5-2.2-.4-3.5 1.4-14.9 20.1 9.6 23 10.9s4-.7 5-3.1c2-5.2 8-28 8.1-33 .2-6.5-6.1-9.3-10-14-15.1-18-17.1-30.8-18.1-53.9-.3-8.7-.7-20.6 0-29.1.5-6.5 3.5-12.9 4-19 .8-8-1.3-16.6-1-25 .4-10.6 2.9-22 3.2-32.8.3-.9 9.9-8.5 11.1-9 2.8-1.1 5.1 1 6.2-.7 3.7-11 4.6-23.9 8.3-34.7 2.8-8.3 9.6-22.2 13.8-30.2 1.4-2.7 12.3-21 13.4-21.7 1.9-1.2 4 .3 5.4 1.6.9.9 11.7 17 12.1 18 1.7 4.8-3.8 8.5-6.3 12.6-10.2 17-24 56.3-23.2 75.8.9 22.1 6.1 45.8 7 68 0 3 .7 10.1-.9 12.1-5.3 6.9-10.3-9-11.6-12.6-2.2-6.2-6.4-25.7-10.6-29.4-1-1-2.4-1.7-3.9-1.6-2.7 12.6-4.9 25.6-6 38.5-.7 8-2.6 30.9-.2 37.2.6 1.7 2.7 3.7 3.7 5.3l35.3 34.6-13.5 50.2c-1.5 12.4-3.1 25.1-2.3 37.7 0 2.2 1 11.3 1.5 12.5.7 1.6 5 4.6 6.5 6.5 9 11.6 13.8 27.2 30 29.5-.9-10.5 2.3-20.8 6-30.5.9-2.4 1.8-6.1 4-7.5 0 7.9 13.2 48.4 18 51.5 1.8 1.2 4.5-2.3 5.6-3.5 6.6-7.9 9.6-20.1 11.5-30l11 24c.9-5.7-4.9-19-1.5-23 1.2-1.4 3.5-1.8 5-3 7-6.1 16.7-42.5 17.5-52.5.5-6.5-.5-13.3 0-19.9 1-10.5 8.4-18.7 5.4-29.7-3.8-6.7-9.9-40.4-13.6-44-.6-.5-2.7-.2-2 1.5l-10 49.5c-7.4-25.5-3.8-52.2-6-78.4-7-3.2-12.6-3-17.3-9.9-9.4-14-11.8-27-12.8-43.7l-13.8 44.7c.2 5.6-.7 14.7-7.7 15.3-14.2 1.4-8-26.9-9.8-35.4-.7-3.3-5-8.4-6.5-12.5-7.9-21-2.4-52.2 6-72.5.7-1.8 5.3-12.2 5.8-12.7 2.5-2.5 2.2 6.4 3 7 .3.2 5.3-3.1 7.9.6 1.8 2.5 1.6 22.5 4.6 22.4 9.5-13.2 18.2-27.8 31-38 4.7-3.8 11-8.9 11.5 1l9-5c-6.8 18.4-11.5 37.4-7 57 7.6-9.3 15.8-19 28-22 .9 4.2-1.1 8.7-1 12.4.2 12.9 9.2 50.9 17.5 60.6 1.8 2 3.7 3.6 6 5-1.7-15.5.2-30.7 2.5-46 2.7-.4 1.5.2 2 1.5 4 10.9 5.6 24.8 9 36.1.3 1.1.4 3.1 2 1.5s5.2-14.7 5.7-16.8c1.8-7.3 2-14.8 3.3-22.2 5.8 6.1 7.9 14.8 11 22.5.5 1.2-.8 1.9 2 1.5l7.2-29.4c.5-1.7 2.8-1.3 3.6-1.9 1.9-1.6-.8-5 5.5-3.5 13.5 3.1 28.3 22.4 38.2 31.8l16.5 14c-1.8-9-.2-18.2-1.3-27.2-1.5-12.5-10.2-25-11.7-37.8 1.9-.4 2.4 1.1 3.5 2 19.8 16.3 19 27.2 26.5 49.5.4 1.1.6 3.6 2 3.5 5.6-34.7 8.9-71.5-.9-105.6-1.5-1.1-29.9 5.8-34.6 5.6-1.4 0-5.3-1.4-6.2-2.3-1.5-1.6-1.9-17.8-2.5-22-1.6-10.5-6.3-22.9-6.8-33.2-1.1-25.2 16.3-73.1 32.5-92.6 2.9-3.4 6.8-6.4 9.5-10-2.5.5-5.3 1.7-7.5 3-15.8 8.7-40.1 25.4-54.4 36.6-8 6.3-36.3 32.5-41.1 39.9-2.1 3.3-3.5 9.1-5.8 13.2-5.2 9.2-12.6 18.7-16.7 28.4-4.9 11.5-6.3 24.2-10 36-2.7 0-1.1-35.7-1.5-39.6-.5-4.9-6-14.9-9-19-7.8-10.1-34.2-26.7-36.8-38.2-1.7-7.7-1.1-23.5 0-31.5.4-3 2.3-5.8 2.7-8.3 1.1-7.6-1.6-16.2 2.6-23.5 1.5.4 4.5-4 5.5-3s1.7 5.2 1.8 5.7c1.2 7.7-1.5 18.9-.7 27.8 2.3 26.6 22.1 40.4 41.5 55.5 2.4 0 33.9-24.6 38-28 20.5-17.5 34.6-31.1 58-46 10.7-6.8 29.9-19.5 42.1-20.9 8-.9 10.3 6.3 7.6 12.7-1 2.5-11.5 12.4-14.2 15.8-14 17.2-25 43.4-29.7 65.3-4.3 19.6 1.8 33.5 4.7 52.7.3 2.1-.2 4.4 0 6.5v.2Zm142 387c10.7-14.4 24-31.3 28.5-49 6.1-23.7-2.1-31.4-6.9-52.2-3.1-13.1 0-23.6-.6-36.4-.4-7.3-2.4-15.5-3-22.9 1.6-5.8 7.8-7.4 10.8-12.2 5.8-9.1 3.6-24.3 2-34.7-1.7-11.3-9-24.8-9-36.1s8.2-22.1 9.1-32c.5-5.1-1-29.1-3.5-32.4-1.6-2.2-10.5-2.7-14.2-3.8-25.2-7.4-51.9-15.2-66.7-38.3l-9.6-18.9c-2.7 13.4-3.8 26.7-1.9 40.4 2.8 19.9 11.7 37 15.6 56.4 2.8 13.9 3.7 29.3 6.7 43.3l1.5 1c3.3-7.2 8.8-21.9 14-27.5 2-2.2 19.8-11.7 21-10.5-4.5 9.7-12.4 16.6-10.9 28.4 1.7 13.3 21.8 23.1 22.9 33.1 1.5 12.9-1.9 28.8-10.9 38.3l-13.1 39.2c-2.3.5-1.6-.3-2.2-1.3-1.3-2-2.3-5.6-3-8-4.1-13.2-5.4-28.5-9-42-.3-.9-1.5-2.5-2.4-2.7-4.6-.7-17.5 27.5-23.4 30-.2-11.9-3.4-23.2-5.7-34.8-2.1-10.5-2.4-20.5-8.3-30.2-1.4 0-1.6 1.5-2 2.5-9.9 19.5-13.7 37.2-30.9 53.1-5.3 4.9-12.4 6.8-19.5 5.4-8.1-1.5-6.8-20.8-7.8-27.2 0-.9-.4-3-1.7-2.7-5.6 22.2-14.3 54.4 8.5 70 8.2 5.6 11.5.2 12.6 13.5 2.9 37-2.6 77.5-11.9 113.2-1.7 6.6-4.4 12.8-6.1 19.4 17-7.8 28.9-21.2 36.2-38.3l22.8-56.7c1.6.2 1.9 4.3 2 5.5 1.4 17.5-3.3 40.2-5 58-.7 7 .3 14.4-2 21.5l11.5-7c16.4-18.8 35.5-37.2 43.8-61.2 6.4-18.8 10.4-40.3 16.4-59.5 2.8-8.8 6-17.8 9.8-26.2 2.4 10-1.3 21.8-.5 31.5.9 10.7 8.4 22.3 5 35l-9 66.5zm-138.2-80.9c-16.2-6.2-28.6-25.6-32.6-41.9-3.1-12.9-1.8-26.8-6.8-39.2-8.4 13.9-22.1 21.9-34 32-11.1 9.4-28.7 25.5-30.4 40.6-.8 6.8 0 12.3-1.4 19.6-2.7 13.3-9.4 28.8-10.7 42.3-.6 6.5-.2 35.9 4 40 1.4 1.4 1.7.7 2.3-.8 2.4-5.7 1-14.4 1.8-20.3.2-1.4.6-3 2-1.5.4.4 2.4 9.3 2.7 10.8.8 3.9.7 8.6 1.6 12.4.2 1 .4 3 1.7 2.8-.2-4.9 2.8-9.9 3-14.5.2-3.8-1.2-7.1-1.1-11 .2-11.5 4-24.3 8.1-35 .6-1.5 1.4-5 3-5.5-1.4 28.1 1.9 55 8.3 82.2l3.7 7.8c-.2-7.3 1.9-15.4 2.1-22.5.3-12.2-.3-24.6 1-37 .7-7.1 3.7-13.6 5-20.5 1.7-.2.9 2.3 1 3.5.2 5.5.2 11.6 0 17.1 0 4.6-1.8 9.1-1 14 .6 4 7.5-1.4 9-3 7.1-7.7 12.3-22.9 19.2-30.8.9-1 1-2.1 2.8-1.7l-2.9 52.4c1.5 6.5 1.2 13.4 2 20 .2 1.5.5 6.1 1.9 6.6 14.8-38.5 28.9-77.8 34.9-118.8h-.2ZM915.5 914v1c.7-.3.7-.7 0-1" class="outline" data-original-prefix="shading" opacity=".2"/></g><g class="trait-group" data-category="head"><path id="outline-head" fill="#000" d="M1279.5 805c.4 0 1.8 1.5 1.3 2.3-8.8 26.2-11 55.3-18.1 81.9-7.3 26.9-40.6 46.1-46.3 77.7-.7 4 .4 11.6-2 14-1.4 1.5-11.7 5.3-14.8 7.2-13.8 8.2-27.9 20.9-41.8 30.2-17.5 11.8-34.4 21.5-51.4 34.6-5.6 4.3-11.2 10.9-17.2 14.8-12.6 8.1-53.4 24.4-67.9 25.2-28.3 1.6-36.5-13.9-57.2-25.8-15.4-8.9-27.8-5.4-43.3-9.7-10.1-2.8-20.3-10.5-30.4-13.6-4.5-1.4-11.1-1.4-14.8-3.2-4.2-2-12.3-15.5-16.2-19.8-4.5-5-11.3-11.2-16.5-15.5-11-9.1-32.7-20.3-41-29.3-5.4-5.8-27.5-42.5-31.2-50.5-19.5-43.1-11.7-88.6-13.8-133.2 0-2.9-5.3-26.2 3.5-19.5 7.1 8.9 12.8 20.4 20 29 1.6 1.8 3.7 2.8 5.5 4.5 3.9 3.9 4.4 10 10.4 2.5 10.6-13.2 0-30.3-9.4-40.5-6.5-6.9-18.7-12-19.9-22.1-2.3-18.3 7.5-45.1 9.8-64 3.3-27.9 1.4-53.6-.6-81.2-.3-5.1-2.2-15.3 5.1-14.2 2.8.4 15.7 14.3 19.1 9.1 1.7-2.6 1.9-21.9 2.6-26.4 1.5-10.8 4.3-24.1 7.4-34.6 3.9-13.3 10-25.7 18-37l11.9 11.1c6.2 3.3 4.1-4.4 4.8-8.3 8.9-47.4 27.5-82.9 59.2-118.8 2-2.3 14.6-16 16-16 .3 12-2.9 24.4-3.5 36.5-.8 16.3-2.7 43.6 8 56.1l31.6 27.5 1.3-.2c42.8-48.1 96.1-89.5 159.1-106.8.3 1.5-.3 2.4-.9 3.6-3.3 6.9-8.9 14.4-12.6 21.4-20.1 38.9-38.2 88.4-24.4 132 2.7 1.9 34.8-14.5 39.9-16l2 29c1.6 1.7 22.7-14 26.3-15.2 1.6-.5 3.1-1.5 4.8-.3 1.2.8 7.9 23.2 9.8 27.3 10.7 22.8 33.2 32.4 57.7 31.3 12.1-.5 23-7 34.5-10 5.8 24 5.6 48.9 5.1 73.5-.3 13.7-4.2 31.3-.5 44.5 3.5 12.4 10.4 23.6 16 35 2.7 5.4 4.3 7.5 2.5 13.6-4.8 16-17.9 37.2-20.6 52.4-.2 1.2-.6 4 1.1 4 4.9 0 18.5-1 22 0Zm-341 247c7.9 1.2 18.3-.9 26.5 0 1.5-4-1.5-4.8-1.9-5.8-6.7-17.2-15.5-33-19.6-51.2-6.1-26.9-9.1-62.8-10.5-90.5-.7-12.9 2.9-24.4 4-37 1.4-15.7 0-49.1 7.2-61.8 3-5.3 10.6-11.6 12.1-16.9 4.9-17-11.8-45.1-16.8-61.8-5.3-17.5-7-37.1-11-55-1.4-1.8-1.4-.3-2.3.7-11.9 12.7-17.1 31.3-13.2 48.3-2.4 3.3-17.8-7-19.8-9.6-3-3.9-12.1-28.2-12.1-32.9V664c-1.7.4-2.2 2.3-2.8 3.7-23.2 55.7-18.2 138.1-6.9 196.5 1.2 6.2 4.4 13.1 4.7 19.3 0 2-.2 1.6-2 1.5-3.8-11.8-9.7-23.4-13.3-35.2-12.2-40.2-17.2-102.7-9.2-143.8 1.1-5.6 6.9-21.7 6.5-25.5 0-1.3-7.8-13.5-9.2-16.9-8.8-21.6-8.8-50.7 4.2-70.7 2.6 0 0 3.9 0 4.5v27c0 5.2 6.9 22.2 10.6 26.4 3.9 4.5 2.8 1.4 4.6-1.2 13-18.9 21-42.5 40.8-55.7-2.6 12.1-8 23.7-10.7 35.8-4.7 20.9-6.4 40.6 1.7 60.7.5 1.2-.8 1.9 2 1.5 1.5-6.6 3.8-14.7 6.5-21s7.6-11.5 10-17c5.9-13.7 9.5-26 17.3-39.7.9-1.6 1.8-4.9 4.2-4.3-3.1 13.2-7 23.6-6 37.5.5 6.8 3 11.9 3.9 18.1 1.1 7.3 1 15.1 2.4 22.6 5.4 29 21.1 57.3 33.3 83.8 1.2.2 2-.5 3-1 4.2-2.1 17.7-24 20.6-29.4 18.3-34 8.2-75 10.9-112.2l-3-33.5c4.8 6.8 9.5 15.9 12.8 23.6 7.1 16.3 14.9 41 19.7 58.3 8 29.2 7.8 61.4 10.5 91.5.9 9.7 3.3 19.4 4 29 1.3 17.4-5.5 27.1 16.8 31.2 3.8.7 14.5 0 15.2 3.8-2.8 48.6-10.2 98.8-24.7 145.3-4.2 13.3-18.4 47.8-28.8 56.2-1.1.9-1.6 2.4-3.5 2 2.1-5.4 2.7-17.9 5-22.3.5-1 4.3-1 6.5-3.7 5.2-6.5 12.9-39.3 15.1-49 6.2-27.8 17.2-80.5 13.5-107.6-.6-4.6-9.8-9.2-13.5-12.5-19.1-17-12.2-27.6-13.5-50.5-2-34.6-3.8-76.4-12.3-109.7-1.7-6.9-3.5-14.3-8.2-19.8-.4 10.5 2 22.1 1.5 32.5-.7 15-3.2 35.8-5.1 50.9-1 7.7-5 27.4-7.8 34.2-1 2.3-2 2.8-3.8 4.2-18.9 14.8-52.5 17.4-53.2 48.8-.4 17.4 1.9 27.9-1.6 46.4-4.6 24.7-6.3 39.8-5.6 65.5.9 31.3 4 45.9 16.9 74.1 8.4 18.4 11.1 24.5 25.1 37.9 7.3 7 19.9 20.3 29.8 22.2 21.4 4.1 78.1-23.8 88.4-43.1 8.1-15.2 9.2-34.8 10.8-51.7 1.8.4 1.9 2 2 3.5 1.4 12.4-.9 27-1 39.5 14.1-14 26.6-30.5 37-47.5 24.7-40.3 43.8-86.4 50-133.5l3.9 8.5c-.9 7.6 4.4 14.8-2.5 20.4-4.9 20.9-8.7 42.3-15.2 62.8-6.1 19.2-18.6 34.2-28.4 51.6-1.7 3-12 21.1-10.8 22.7 10.5-5.5 18.1-14.9 27-22.5 6.4-5.5 17.8-11.7 22.4-18.5 6.4-9.4 12.2-27.4 18.4-38.6 8.1-14.6 25.1-34.5 30.6-48.4 3.6-9 7.8-31.5 9.3-41.7.9-5.7 1.4-11.5 1.3-17.2-2-2-23.7 5.3-28 4.5 1.7-7.6 4.4-15 6.6-22.5 5.2-18.5 15.1-45.9 13.4-64.5s-12.4-36.6-18.9-54c5.9-20.2 10.2-42.9 8.9-64-.2-2.4-1.1-12-2.6-12.4-.8-.2-12 3.5-15.1 3.8-26.3 2.5-67.9-15.1-80.1-39.7-1.5-3.1-5.5-17.2-6.2-17.8-1.2-.9-1.9-.4-3 0-2.7 1.2-11.7 8.9-12.1 11.9-1.5 11.1 1.9 37.2 4.3 48.8 2.7 12.6 9.2 22.8 13.2 34.8 7.3 21.7 7.9 45.4 13.8 67.2 1 3.7 4.7 12.1 8 5.5 2.2-4.5 3.2-16.8 5-23 3.9-12.8 12.2-29.8 24.7-35.8-.9 5.7-5.4 10.1-6.7 15.8-4.5 18.3 2.4 43.2 7.2 61.3 2.8 10.3 7.1 13.7 5.3 26.2-.7 4.8-7.6 25.5-9.7 30.3-.7 1.5-1 2.8-3.1 2.4-3.7-13.8-.7-26.8-1-40.5 0-4.2-.6-11.8-1.1-15.9-1.1-7.9-7-17.3-7.9-25.6-4.7 0-2.6 6.6-3.2 10.2-.5 2.5-2.1 8.9-3.3 10.7-1.9 2.8-5.8 2.9-7.9 5.1-1.4 1.5-7 19.5-10.6 16-5.3-32-9.2-64.2-16.7-95.8l-5.2-13.2c-.8 6.4-.3 14.2-1.1 20.4-2.8 21-14.9 80.6-26.4 96.6-3.9 5.3-7.3 6.7-13.9 6.1-15.3-1.4-7.4-11-7.4-21.5s-2.7-23.9-4.2-33.8c-2.8-17.6-6.7-35-12.8-51.7 1.1-1.2 4.7 3.2 5.4 4.1 6.5 8 11.9 23.9 15.1 33.9s5.1 25 9 34c.5 1.1 1.9 4.2 3.5 3 1.1-.8 5.2-14.1 5.9-16.6 11.8-42.3 12.9-76.2 9.1-119.9-1.8-20.2-5.1-40.5-8-60.5-14.3 4.2-27.2 12.9-43.1 9.6-2.8-1.9.2-21.6 0-26-.2-8.7-4.8-19-4.9-26.9-.5-24.5 10.3-62 23.1-82.9 1.7-2.8 12.5-15.8 10.8-17.7-10.1 1.9-16.2 9.1-24.1 14.4-47.2 31.4-86.6 63.6-116.1 112.9-4.7 7.9-9.4 16.1-12.8 24.7-1.8-.7-1.1-5.9-1-7.5.2-3.6.6-9.5 1.2-12.8 1.2-7 10-27.5 8.7-31.9-.3-.9-3.4-4.7-4.3-5.7-7.3-8.4-18.4-15.1-25.2-22.4s-11.2-28.7-11.4-39.2c0-4 2.3-22.7 1-24.5-2.9 1.1-4.2 3.2-5.9 5.5-20.7 28.3-33.7 70-34.1 104.9 0 10.3 1.4 21.3 2 31.5-2.3 2.1-19.7-10.6-22.5-13-2.5-2.2-7.2-10-10.9-8.9-.2 0-3.5 3.5-3.6 3.7-6.3 15.6-14.5 50.4-12 66.6.6 4 5 8.6 6.5 13.5 5.3 18.3 9.2 49.5 9.5 68.5.3 13.6-1.3 27-1.1 40.5-1.5.2-1.2-1.9-1.5-3-2.8-12.5-6-25.2-8.2-37.8-2.7-15.2-2.7-33.5-8.3-47.7-4.3-11.1-13.9-20.9-22-29.5 1.2 6.7.3 13.7 1.1 20.4 1.6 14 5.1 22.4 3.9 38.1-1.1 14.7-8.1 28.9-10.7 43.3-.9 4.8-2.8 19.4-2.3 23.8 1 8.5 11.6 16.2 16.5 22.5 5.5 7.2 9.8 16.5 15.6 23.4 1.4 1.7 6.9 5.8 7 6.2.8 3.2-5.2 20.5-6.3 25.5-3.4 15.1-8.4 57.3-2.9 70.6 1.1 2.6 7.4 7.7 8 10 1.3 4.3-.7 9.2-.6 12.8 1.2 29.9 30.4 88.8 50.8 111 1.9 2.1 7.2 7.6 9.5 8.5 2.1.8 1.6-2.2 1.5-3.5-1.2-18.6-4.4-39.1.2-57.7.2-1 .3-3 1.7-2.8 0 20.1-.8 45.7 10.2 63.3 8.5 13.6 28.5 26.4 44.3 28.7zM786.1 833c-4.5-8.1-9.7-16.2-16.1-23 1.2 13.3-1.4 27.4-1 40.5.7 24.1 6.2 65.7 23 84 1.3 1.4 5.5 5.6 6 2 1.3-10.1-1.9-21.2-4-31 0-.9 1.9-.6 2-.5.3.2 3.8 5.5 4.2 6.3 8.1 14.3 5.6 31.9 11.9 47.1 4 9.6 12.4 19.2 21.8 23.6-9.2-23.6-18.8-47.3-22.9-72.6-.6-3.4.5-7-.6-10.4-1.5-4.8-11.4-8-12.4-12.7 2.5-15.6-.5-31.2-.2-46.8 0-5.1 2-11 1-16.5-3.7 4.9-6.3 8.8-12.9 10z" class="outline" data-original-prefix="outline"/></g>
<g class="trait-group" data-category="mouthpiece"><path id="fill-mouthbit-main" fill="#fff" d="M1380.7 1584.3c6.4 17.5 27.5 11.4 39.8 21.7 2.6 2.2 3.8 6.5 7.4 7.6 7.3 2.2 16.1-2.2 23.3-.3 3.3.8 5.8 5.4 9.3 6.7 10 3.7 17.2-4.4 22.2 7.8 11.5 28.1-14.7 83.3-38.4 100.1-2.3 1.6-8.2 6-10.7 5.9-4 0-3.9-8.3-9.3-9.5-2.5-.6-8-.5-10.7 0-5.3.7-10.5 6.8-15 1.9-2.1-2.3-3-8.8-6.2-9.8-1.7-.5-10.9-.5-12.6 0-2.3.7-2.3 3.4-2.8 3.7-2.4 1.4-29-11.6-38.3-9.8-2.5.5-3.7 2.9-7.1 3s-10.8-2.5-14.5-3.6c-37.1-10.8-76.4-26.1-111.4-42.6-8.9-4.2-8.6-6.4-13.7-14.3-17.2-5.8-34.2-12.1-51-19-1.7-.7-3.8-.5-5.7-1.3-2.2-.9-15.3-7.8-16.3-8.7-1.4-1.4-6-14-7-17-3.8-10.5-6.5-21.4-9.9-32 0-5.6 14.9-17 19.4-20.4 4.7-3.6 18.9-14.1 23.9-14.1 20.3 2.9 50.8 18.9 70.8 14.8 3.3-.7 7.5-4.5 10.7-5.3 8.2-2.2 45.6 4.8 56.2 6.8 33.6 6.3 65.2 17.2 97.5 28v-.2Z" class="fill" data-original-prefix="fill"/></g><g class="trait-group" data-category="mouthpiece"><path id="fill-mouthbit-label1" fill="#fff" d="m1373 1589-17.3 3.2c-35 17.2-52.7 54.8-41.2 92.8 2.2 7.2 6.6 12.9 7.5 20-30.3-10.7-62.6-20.2-91.7-33.8-15.9-7.4-27.6-12.4-33.6-30.4-9.2-27.7 3-62.2 26.8-78.8 7.4-5.2 21.2-2.8 29.9-1.8 40.5 4.5 81.1 16.3 119.6 28.9Zm-114.2-14.7c-22.6 2.6-45.1 28.1-42.8 51.2 2.4 23.4 37.9 43.7 56.5 26.5 7.2-6.7 20.9-36.6 21.5-46.4 1.3-20.4-15.7-33.6-35.2-31.3" class="fill" data-original-prefix="fill"/></g><g class="trait-group" data-category="mouthpiece"><path id="fill-mouthbit-label2" fill="#fff" d="M1258.8 1584.3c14.8-2 27.3 6.2 25.2 22.2-1.1 8-13.6 36.5-20 41-11.9 8.4-32.8-2.5-37.7-15.1-7.7-19.9 12.9-45.4 32.6-48Z" class="fill" data-original-prefix="fill"/></g><g class="trait-group" data-category="mouthpiece"><path id="fill-mouthbit-ember" fill="#fff" d="M1462.1 1632.9c1.6 1.1 7.6-6.6 12.4 0 1.3 1.8 3.2 9.2 3.4 11.6 1.7 16-14.6 63.2-30.3 69.4-2.1.8-6.8 2.1-9 2-4.2-.2-11.8-6.5-14.9-5.9-2.2.4-6.3 6.1-11.9 5.6-6.6-.6-5.5-8.4-9.8-10.3-3.1-1.3-9.9-.9-13.8-2.2-17.7-5.8-13.9-40.5-9.7-54.3 2.6-8.5 13.4-28.2 23-29 3.2-.3 5.5 1.1 8 1.1s6.7-2.3 8.8-1.8c1.8.4 4.2 4.6 6.3 5.7 5.7 3 8.2-1 13.3-2.4 9.3-2.5 15.1-1.7 21.4 5.6 1.1 1.3 2.4 4.7 2.7 4.9Zm-43.1-2.9c-15.4-5.5-26.8 18.2-28 30.5-.5 5.5 2.3 31 5.1 34.9 1.4 2 3.8 2.2 5.9 1.1 4.2-2.1 1-13.1.9-17-.2-6.4-.7-16.4.7-22.4 2.2-9.2 11.7-18.3 15.3-27.2Zm14 78v-27.5c0-8.9 8.2-26.1 13.6-33.4 1.5-2 9.4-9.9 9.4-10.6 0-7.4-15.8 4-18.1 6-12.8 11.4-17.8 31.3-14.7 47.8 1.2 6.4 4.1 14.2 9.8 17.8Z" class="fill" data-original-prefix="fill"/></g><g class="trait-group" data-category="mouthpiece"><path id="outline-shading-mouthbit" fill="#000" d="M1174 1617c-1.1-15.2 4.2-30 11.5-43 4-7.2 8.8-18.2 18.5-14-5.4 12.1-11.5 23.9-14.5 37-1.2 5.1-4 18.6-3.1 23 .2.8 6.6 13.2 7.2 13.9 5.8 6.6 32.4 17.7 41.5 21.5 26.7 11.3 54.5 20.6 82.4 28.6 1.1 0 6-3.7 6.4-4.7 1-2.9-1.1-17.5-.8-22.8.8-13.3 13.5-49.9 26.9-54.1 12-3.7-.3 9.9-1.8 12.2-11.1 16.8-16 35.4-12.9 55.6.4 2.7 2.5 13 4 14.5 1.7 1.8 27.2 11 28.8 9.8 2.9-2.2 1.7-18.6 2.1-23 1.1-12.1 5.9-26.5 12.1-36.9 2.6-4.4 7.1-13.1 12.8-11.7 1.8 1.8-7.8 14.2-9.2 17.3-3.5 7.9-5.9 19.6-6.8 28.2-.3 3.6-1.3 11.2 0 13.9 2.3 4.3 10.8 10.3 15.6 11.4 2.3.6 5.2-.3 7.3.7 1.2.6 3.2 4.5 4.9 6.1 8.2 7.1 16.2 1 25-1.5 1.5 5.1 0 8.4 4 12.5 5.6 5.8 12.2 4.5 19 7-7.4 7.9-14.8 15.6-26.3 9.3-1.3-.7-1.6-2.4-2.4-2.8-2.6-1.6-23.9-2.3-30.6-5.2-1.9-.8-1.5-3.3-4.2-3.8-1.6-.3-10.5-.3-11.9.2-1.6.5-1.7 2.8-2.7 3.4-2.9 2-29.1-11.4-38.5-9.5-2.4.5-2.8 2.8-6 3.1-7 .6-60.6-18.3-71-22.1-21-7.6-41-17.7-61.4-26.6-5.7-4.1-5.7-12.1-7-13-.5-.3-2.6.6-4.1.2-16.1-4.3-39.6-13.4-54.9-20.2-2.6-1.2-12.4-5.7-14-7-2.4-1.9-6.7-14.2-8.1-17.9-2.4-6.6-9.3-25.4-9.8-31.3-.2-2.6 1.9-5.1 3.4-7.2 4.2-5.6 29.7-25.5 36.1-26.9 11-2.3 27.1 6.2 37.8 8.7 2.2 11.4-19.1 3.5-26.1 4-8.4.6-24.9 14.3-28 22.1-2.6 6.4-2.8 13.5 2.6 18.4 3.7 3.4 44.2 24.5 45.9 22.6h.2Z" class="outline" data-original-prefix="shading" opacity=".2"/></g><g class="trait-group" data-category="mouthpiece"><path id="outline-mouthbit5" fill="#000" d="M1258.8 1574.3c19.6-2.3 36.6 10.9 35.2 31.3-.6 9.9-14.3 39.8-21.5 46.4-18.5 17.2-54.1-3.1-56.5-26.5-2.4-23.1 20.2-48.6 42.8-51.2m0 10c-19.6 2.7-40.3 28.1-32.6 48 4.9 12.7 25.8 23.6 37.7 15.1 6.4-4.5 18.9-33 20-41 2.1-15.9-10.4-24.2-25.2-22.2Z" class="outline" data-original-prefix="outline"/></g><g class="trait-group" data-category="mouthpiece"><path id="outline-mouthbit4" fill="#000" d="M1419 1630c-3.6 8.9-13.1 18-15.3 27.2-1.4 6-.9 15.9-.7 22.4 0 3.9 3.3 14.9-.9 17-2.2 1.1-4.5.9-5.9-1.1-2.8-3.9-5.6-29.4-5.1-34.9 1.2-12.3 12.6-36 28-30.5Z" class="outline" data-original-prefix="outline"/></g><g class="trait-group" data-category="mouthpiece"><path id="outline-mouthbit3" fill="#000" d="M1433 1708c-5.7-3.6-8.6-11.4-9.8-17.8-3.1-16.4 2-36.3 14.7-47.8 2.2-2 18.1-13.4 18.1-6s-8 8.6-9.4 10.6c-5.4 7.3-13.6 24.5-13.6 33.4v27.5Z" class="outline" data-original-prefix="outline"/></g><g class="trait-group" data-category="mouthpiece"><path id="outline-mouthbit2" fill="#000" d="M1387.9 1722c-2.6-1.7-4.3 3.2-6 4.4-4.1 3.1-11.1 0-15.8-1.2-5.5-1.5-18.9-7.8-22.9-8-2.5 0-4.5 3-7 3.5-5.1 1.2-14.8-2.1-20.1-3.5-41.4-11.5-81.7-28.9-120.9-46.1-5.2-2-5.6-7.9-7.8-11.2-1.7-2.4-36.6-13.8-42.7-16.3s-27.4-10.6-30.8-14.2c-3.7-3.9-11-27.5-13-34-1.9-6.2-7.5-20.8-5.2-26.3.9-2.2 7.6-9.2 9.7-11.3 10.4-10 24.3-19.1 37.2-25.7l66 16.7c4.3 0 10.3-6.1 14.9-6.9 5-.9 15.4.4 20.9.9 48.7 4.4 95.4 19.4 141.5 34.5 3.1 2.2 5.2 9.3 8.1 10.9 8.1 4.6 24 3.3 32.4 11.6 1.8 1.7 3.5 6.2 5.2 6.8 3.6 1.2 15.1-2.1 19.7-1.8 7 .4 10.9 8.4 16.6 9.6 8.1 1.7 13.7-7.1 19.9 5 15.9 30.8-10 93.7-36.4 113.4-4.5 3.3-13.4 9.1-19 8.9-7.2-.2-10.5-11.2-13.1-11.7-4.4-.9-13.3 9-22.7 4.6-5.7-2.7-8.1-12.3-8.8-12.7h.1ZM1195 1563c-18.1-2.2-36.1-7.2-53.9-9.5-4.4 4.2-24.4 16.5-25.9 21.2-1.9 6.3 2.1 30.1 5.9 35.7s48.4 18.8 56.9 23.6c-2.6-20.3 1.3-41.6 10.8-59.7 1-2 7.5-10 6.2-11.3m178 26c-38.5-12.5-79.2-24.4-119.6-28.9-8.7-1-22.5-3.3-29.9 1.8-23.8 16.6-36 51.1-26.8 78.8 6 18 17.7 22.9 33.6 30.4 29.1 13.6 61.3 23.2 91.7 33.8-.9-7.1-5.3-12.8-7.5-20-11.4-38 6.2-75.6 41.2-92.8l17.3-3.2Zm-6 119c-11.8-26.2-2.6-72.3 19.5-91 3.9-3.3 14.3-6.6 6.5-10.5-46.1-23.3-74.8 42.7-62.5 79.5 3.4 10.3 26.3 19.8 36.5 22m95.1-75.1c-.2-.2-1.6-3.6-2.7-4.9-6.3-7.3-12.2-8.1-21.4-5.6-5.1 1.4-7.7 5.4-13.3 2.4-2.2-1.1-4.5-5.3-6.3-5.7-2.2-.5-6 1.8-8.8 1.8s-4.8-1.3-8-1.1c-9.6.8-20.4 20.5-23 29-4.2 13.9-8 48.6 9.7 54.3 3.9 1.3 10.7.8 13.8 2.2 4.3 1.9 3.2 9.7 9.8 10.3 5.6.5 9.7-5.1 11.9-5.6 3.1-.6 10.6 5.7 14.9 5.9 2.2 0 6.9-1.2 9-2 15.8-6.2 32-53.4 30.3-69.4-.3-2.4-2.1-9.7-3.4-11.6-4.8-6.7-10.8 1.1-12.4 0Z" class="outline" data-original-prefix="outline"/></g><g class="trait-group" data-category="mouthpiece"><g id="outline-mouthbit1"><path id="outline-mouthbit" fill="#000" d="M1237.5 1606.4c-.1 0-.3-.2-.4-.3s-.2-.3-.3-.5-.1-.3-.1-.5v-.5s.2 0 .3-.1c.1 0 .3 0 .4-.1s.3 0 .5 0h1.7v-.1s-.1 0-.2-.1-.2 0-.3-.1c-.1 0-.3 0-.4-.1s-.3-.1-.5-.2c-.2 0-.3-.1-.5-.2s-.1 0-.2-.1v-.5c0-.2 0-.4.1-.5s.1-.3.2-.5c0-.1.1-.3.2-.4.1 0 .2-.1.3 0 .2 0 .4 0 .6.2.2 0 .5.2.7.3s.5.2.7.3.5.2.6.3.5.3.8.4.6.3.9.5.6.3.9.5.5.3.7.5c0 .1 0 .3-.1.4s-.1.3-.2.5c0 .2-.2.3-.3.5s-.2.3-.3.3h-.3c-.1 0-.2-.1-.3-.2 0 0-.2-.1-.3-.2 0 0-.2-.1-.3-.2-.1 0-.2-.1-.4-.2s-.1 0-.2 0h-.1v.2c0 .2 0 .2.1.3s.1.3.2.4c0 .1.1.3.2.4 0 .1.1.3.2.4s.1.3.2.5.1.3.1.5v.3l-.3.3c-.1 0-.3.2-.5.2s-.3 0-.5.1h-.5c0-.1-.1-.2-.2-.4 0-.1-.1-.3-.2-.5 0-.2-.1-.3-.2-.5 0-.2-.1-.3-.1-.5s0-.2-.1-.3v-.2h-.3c-.2 0-.4.1-.6.2-.2 0-.3.1-.5.2-.2 0-.3.1-.5.2s-.3 0-.5.1-.3 0-.5 0Z" class="outline" data-original-prefix="outline"/><path id="outline-mouthbit1" fill="#000" d="M1240.8 1608.9c.1-.3.2-.4.4-.5.1 0 .3 0 .5.1.2 0 .4.2.5.3 0 0 .1.2 0 .4 0 .2 0 .4-.1.6 0 .2-.1.4-.3.7s-.2.5-.3.7l-.3.6c-.1.2-.1.3-.2.4-.1.3-.3.7-.5 1s-.5.6-.7.8-.6.4-.9.5c-.3 0-.7 0-1-.1s-.5-.3-.6-.6-.1-.6 0-.9v-.4l-.2.1-.3.3c-.2.3-.5.5-.8.6s-.6 0-.9 0-.2 0-.3-.1-.2-.1-.3-.2l-.3-.3c-.1-.1-.1-.3-.2-.5v-.8c0-.3 0-.6.1-.9 0-.3.2-.7.3-1s.3-.7.4-1 .1-.3.3-.5c0-.2.2-.3.3-.5l.4-.4c.1-.1.3-.2.4-.2h.5c.1 0 .3 0 .5.2.2 0 .4.2.6.3s.5.3.9.4.3.2.5.3l.6.3c.2.1.4.2.5.3.1 0 .3.1.3.1Zm-4.5 1v.9c0 .1 0 .1.2.2q.3.15.6 0c.2 0 .3-.3.5-.6s.1-.3 0-.5c0-.1-.2-.2-.4-.3s-.2 0-.3-.1-.2 0-.2 0-.1 0-.2.1c0 0 0 .1-.1.3Zm2.2 1v.6c0 .1 0 .2.1.3s.2.2.3.2h.5c.2 0 .3-.3.4-.5s0-.2.1-.3v-.2s0-.1-.1-.2-.2-.1-.3-.2c-.3-.1-.5-.1-.6-.1s-.2.2-.3.4Z" class="outline" data-name="outline-mouthbit" data-original-prefix="outline"/></g></g><g class="trait-group" data-category="mouthpiece"><g id="cigar-label"><path id="outline-mouthbit2" fill="#000" d="M1277.4 1617c-.2.5-.5 1-.7 1.5-1.5 1.2-2.9 2.4-4.4 3.6-.5.4-1.1.9-1.1 1.7v6.4c-.2.5-.5 1-.7 1.5-.6.7-1.3 1.3-1.9 2-1 1-2 2-3.5 1.8h-1.8c-1.1 0-2.3.2-2.8 1.4-1.1 2.2-2.2 4.4-3.2 6.6-.4.7-.9 1.2-1.7 1.3-2.2.2-4.4.5-6.5.7l-4-1.9s-.1-.2-.2-.3c-2-1.7-3.2-3.7-3.4-6.4-.2-2.2 1-3.8 2-5.6.6-1 1.1-2 1.4-3.1.1-.4-.1-1.2-.4-1.5-.5-.4-1 0-1.5.3-.9.8-1.3 1.8-1.7 2.8-.3.6-.7.9-1.3.7s-.8-.7-.8-1.2c0-.4 0-.8.2-1.2.5-2 .9-4 1.5-6 .7-2.4 1.6-5.2 2.3-7.6 0-.1 0 .1 0 0l3.5-7.6.9-1.5c1.2-1.8 2.3-3.6 3.5-5.4 1.3-1.9 2.8-3.7 4.2-5.6.5-.7 1.2-.8 1.6-.4.6.4.6.8.2 1.7-.5 1-.9 2-.9 3.1 0 .6.2 1.2.8 1.2.5 0 1.2-.3 1.3-.6.7-1.4 1.4-2.9 1.9-4.4.8-3 2.9-4.7 5.8-5.3 1.3-.2 2.7 0 4.1-.1 1.3.6 2.7 1.2 4 1.9 1.2 1.8 2.4 3.6 3.7 5.5.4.6.5 1.3.2 2-.8 1.8-1.6 3.7-2.4 5.5-.2.5-.4.9-.6 1.3-.3.8-.4 1.5.1 2.2l1.8 2.4c.6.7 1.1 1.5.9 2.5-.2 1.4-.2 2.7-.3 4.1Zm-30.2-5.2c-.6 1.9-1.4 3.8-1.8 5.8-.7 3.2 0 6 2.8 8 1.9 1.3 3 1 3.8-.8.6-1.2 1-2.5 1.6-3.7.3-.5.7-1 1.1-1.4 2-1.7 3.3-3.9 3.3-6.6 0-2.2 1.2-3.9 2.1-5.7.7-1.3.9-2.6-.8-3.4-2.5-1.2-5.8-.4-7.9 1.7-1.8 1.8-2.9 4-4.2 6.1m25.7-10.9c1.1-2.3.8-4.1-.2-6-.6-1.1-1.4-2.1-2.8-2.5-3.2-.8-6.3.9-7.6 3.7-.9 2-.8 4.1.4 6 .6 1 1.3 1.9 2.4 2.3 3 1.1 6.5-.7 7.7-3.5Zm-17.4 37.7c.1-.5.3-1 .4-1.5.7-3.1-1.4-7.8-5.8-7.1-2.5.4-4.4 1.7-5.3 3.9-1 2.3-.6 4.7 1 6.7.5.7 1.2 1.4 2 1.6 3 .9 6.4-.7 7.7-3.6m17.6-23.1c.8-1.5.9-3.2.4-4.8s-1.4-3.1-3.2-3.6c-2.7-.7-5.6.6-7 3-1.4 2.5-1.2 5 .4 7.3.6.8 1.3 1.6 2.4 1.8 2.9.5 6-1.2 7-3.8Zm-6.4 13.8c1-1.9.9-3.9 0-5.8-.6-1.3-1.6-2.4-3.2-2.6h-1.9c-2.1.4-3.8 1.4-4.8 3.3-1.1 2.1-1.1 4.3 0 6.4.6 1.1 1.4 2.1 2.5 2.4 3 .8 6.2-.8 7.3-3.7Z" class="outline" data-name="outline-mouthbit" data-original-prefix="outline"/><path id="outline-mouthbit3" fill="#000" d="M1245.4 1597.4c-1.1.6-2.3 1-3.4 1.6-.1 0-.4.2-.2.3l7.1-1.2-2.2-1.4c1.2-.6 2.6-.9 3.7-1.4 0 0 .5-.2.2-.3l-8 .7 2.7 1.8Z" class="outline" data-name="outline-mouthbit" data-original-prefix="outline"/><path id="outline-mouthbit4" fill="#000" d="M1235 1619.9c-.4-1.3-1-2.5-1.3-3.7 0-.1-.2-.4 0-.4l3.9 5.8-2.1-.2c.4 1.3 1.2 2.5 1.6 3.8 0 .1.2.5 0 .5l-4.7-6z" class="outline" data-name="outline-mouthbit" data-original-prefix="outline"/></g></g></svg>