<?xml version="1.0" encoding="UTF-8"?>
<?xml-stylesheet type="text/css" href="../styles/semantic.css" ?>
<svg xmlns="http://www.w3.org/2000/svg" viewBox="0 0 2048 2048">
  <g class="trait-group" data-category="background" id="background-yellow">
      <path class="color" id="color-yellow" d="M2048,0v2048H0V0h2048Z" style="fill: #ddb305" fill="#ddb305"/>
    </g><g class="trait-group" data-category="jaw" id="jaw-headphones">
      <!-- Generator: Adobe Illustrator 29.1.0, SVG Export Plug-In . SVG Version: 2.1.0 Build 142)  -->
  <defs>
    
  </defs>
  <path id="fill-jaw" class="fill" d="M1373,1278c10.5.4,29.1-5.9,35.2,5.3,10.7,19.6,15.9,50.4,25.7,71.3,3,11.9-8.8,18.7-13,27.9-.4.8-1.4,1.4-.5,2.6l79.1,40c2.3,3.8-3.6,14.2-1,19l36.2,79.6-11.5,32.7c5.5,8.9,13.4,16.8,17.8,26.1l-19.9,52.2,18.3,22.3v5l-61.4,99.3c-2.5,2.2-23.2-.7-28.1,1.2l-61.7,62.3c-16.4-2.9-31.7,11.1-47.8,14.2-20.1-2.5-44.6-14.1-64.1-15.9-10.5-1-30.4,5.3-39.3,2.3l-90-57.5,21.9-62.5c0-1.6-1.2-2-2.3-2.7-7.1-4.6-19-6.8-26.5-11.6l-4.2.3-89.9,35.1c-15.1,1.2-30.2,3.6-45.3,3.2l-100.2-35.8c-2,0-18,7.8-19.9,9.2-.9.7-1.7,1.1-1.7,2.4l16.9,58.3-.8,2.7-83,59.1c-5.8,1.8-14-4.8-20.5-3.6l-87,18.1c-2.7-.5-3.8-5.4-8-7-11.3-4.3-28.3-3.2-40-8l-58.5-66.5c-4.8-2.2-15.4,5.2-20.8,5.4l-69-103.7.3-3.2c2.8-4.1,19.4-20.2,19.5-23.5l-22-52.1c-.4-5.6,17.6-24.2,18-30,.3-5.4-11.4-19.6-9.8-26.7l40.1-104.5,64.6-33.4c1.9-3-12.3-33-10.7-39.1l34.7-65.1c10.3-3,21.4-3.8,32.1-5.7l-23.7-60.3c5.6-16,11.2-32,17-47.9,7.9-21.7,16.5-47.6,27.2-67.8,53.7-101.2,185.9-162.6,293.5-185.5,35.9-7.6,63.7-2.7,98.4,6.5,100.4,26.7,224,89.8,269.8,188.2,7.8,16.7,8.9,28,13.3,44.7,2,7.7,14.7,26.3,19.1,34.9,2,3.9,7.2,12.8,7.5,16.5.5,5.7-7.6,35.3-10,42-3.7,10.1-10.8,19.3-14,29.5v.2h0Z" fill="#ffffff"/>
  <path id="fill-jaw1" class="fill" d="M633.3,1439.3c-6.9,9.3-7.1,20.4-1.8,30.6,11.3,21.3,32.2,49,46.2,69.8,45.6,67.8,94.8,132.8,149.2,193.8,13.2,10.1,26.6-2.7,28.8-16.3,3.7-22.9-25.9-58.5-35.7-78.8-.8-4.2,2.4-17.5,4.7-21.2.5-.8.8-2.8,2.2-1.3.7.7,3.6,14.5,7.6,18.9,3,3.4,8.2,4.1,9.5,5.8,3.8,4.6,13.5,27,16.8,33.9,9,19.1,25.7,53.6,27.2,73.8.9,11.9-.8,14.4-8.1,23-14.7,17.3-47.5,38.8-70.5,40.5-10.1.8-13.3-3.5-20.5-9.5-62.4-51.2-122.3-130.8-164.4-199.6-24.2-39.6-64.6-113.9-68.5-159.6-.6-7.4-1.5-12.5,3.8-17.9,15-15.1,41-26.4,61.4-31.3,5.1,1.2,16.7,35.2,15.6,41.3-.5,3-2.7,2.6-3.7,3.9l.2.2Z" fill="#ffffff"/>
  <path id="fill-jaw2" class="fill" d="M1213.7,1635.7c5.1-5.1,6-14.3,8.8-20.7,4.6,6.1,6.2,14.9,6.3,22.3-9.9,20.1-39.1,55.6-36.8,78.2,1.2,11.9,10.8,24.5,24,21,5.4-1.4,17.2-16.5,21.5-21.5,66.6-77.1,124.4-160.8,179.7-246.3,3.9-7.6,3.9-17,.4-24.7-1.3-2.9-6.3-7-6.3-8.2,0-4.6,4-17.4,5.8-22.2,1.4-3.8,7.1-17.8,10.5-18.5,9-1.7,39.9,15,48.2,20.8,4.2,2.9,15.5,11,16.2,15.8,2.2,14.1-6.8,42.2-11.7,56.2-35.2,102.4-137.6,246-221.3,314.7-6.8,5.6-10.2,10-19.6,9.5-19.6-1-47.1-17.5-61.5-30.5-4-3.6-16.7-16.6-17.8-21.2-3.8-17.2,10.6-48.8,17.6-65,3.7-8.4,22.6-51,27.2-54.8,2.2-1.8,6.5-2.7,8.6-4.9h.2Z" fill="#ffffff"/>
  <path id="fill-jaw3" class="fill" d="M765,1818c-12.7,3.6-25.1,8.6-38,11.5-5.6,1.3-14,4.1-19,.9-64-61.2-119.5-138.6-156.9-219.1-10.1-21.7-30.2-68.4-26.7-91.4,2.5-16.7,12.8-35.6,17.6-51.9l12.2,36.2c40.7,100,105.4,197.4,177.2,277.8,8.7,9.8,26.1,24.2,32.5,33.5.6.8,1.4,1,1,2.5h.1Z" fill="#ffffff"/>
  <path id="fill-jaw4" class="fill" d="M1283,1818c-.4-1.5.4-1.7,1-2.5,6.5-9.3,23.8-23.7,32.5-33.5,71.9-80.4,136.5-177.8,177.2-277.8l12.2-36.2c4.7,16.4,15,35.2,17.6,51.9,3.5,23-16.6,69.7-26.7,91.4-37.4,80.5-92.9,157.9-156.9,219.1-4.9,3.1-13.4.3-19-.9-12.9-2.9-25.3-7.9-38-11.5h.1Z" fill="#ffffff"/>
  <path id="fill-jaw5" class="fill" d="M692.7,1454.6c.2,0,.6-3.3,2.3-1.6.7.7,2.8,16.2,3,18.5.8,11.3-2.3,39.3,1.5,47.6,1,2.3,9.7,13.2,11.6,14.3,5.2,3,7.5.4,12.4.6,35,1.2,30.9,51,40.4,72.7,4.6,10.5,40,56.8,49.9,59.1,1.1.3,2.2.3,3.3.2v-7c1.6.8,3.4,2.6,4.4,4.1,3.9,5.6,13,23.4,15.1,29.9,2.5,7.9,6.9,26.8-7.3,22.3-8.6-2.7-27.2-27.4-33.6-35.4-28.5-36-56.8-75.1-83.4-112.6-18.6-26.2-41.5-56.4-56.4-84.6-3.5-6.6-11.8-22.5-3.8-28.1,5.7-4,11.9,1.8,17.4,3.5,9.7,3.1,14.7,1.8,23.2-3.4h0Z" fill="#ffffff"/>
  <path id="fill-jaw6" class="fill" d="M1356,1453s-.4,1.3,1.2,2.3c8.1,4.8,13.3,5.6,22.3,2.7,5.3-1.7,11.2-7.2,16.4-3.5,8,5.7-.3,21.6-3.8,28.1-14.9,28.2-37.7,58.4-56.4,84.6-26.6,37.5-54.9,76.6-83.4,112.6-6.4,8-24.9,32.7-33.6,35.4-4.6,1.4-9.2.4-9.9-4.8-2.3-16.9,12.8-37.1,20.1-51.5,4.5-1.2-.3,7.2,3.5,7,3.3-.2,8.9-5.1,11.5-7.5,9.9-9.3,35.9-40.2,41.2-51.8,4.4-9.7,5.2-26.7,8.3-37.7,4.6-16.4,12.4-34.4,32.1-35,4.8-.2,7.2,2.4,12.4-.6,1.8-1.1,10.3-11.6,11.3-13.7,4.3-9,.9-37.2,1.8-49.2.2-3.1,1.9-14.7,3-16.9.5-1,1.5-.9,2-.6h0Z" fill="#ffffff"/>
  <path id="fill-jaw7" class="fill" d="M668.3,1813.7c1.2,1.3,4.2,1.7,3.6,4.3-11.8,2.6-22.5-6.2-30.5-13.9-47-45-85.8-115.1-111.6-174.4-4.2-9.6-9.4-20.7-12.6-30.4-3.7-11.4-6.2-20.8,3.2-30.2,17,38.9,33,78.5,53,116,25.2,47.2,59.3,88.9,94.9,128.6" fill="#ffffff"/>
  <path id="fill-jaw8" class="fill" d="M1376,1818c-.4-1.8.6-2,1.6-3,23.2-23.3,49.4-55.6,68.2-82.7,34.9-50.1,57.3-107.7,81.7-163.3,9.5,9.5,6.9,18.8,3.2,30.2-5.4,16.7-15.3,37-22.9,53.1-24.4,51.7-59.5,111.3-100.8,151.2-8.1,7.9-19,17.1-31,14.4h0Z" fill="#ffffff"/>
  <path id="fill-jaw9" class="fill" d="M586,1754c-8.8,4.2-11.8-.9-17.5-7-13.2-14.2-48.5-65.3-49.5-83.5-.4-6.5,3.1-11.1,7.5-15.4l25.3,49.7,34.2,56.3h0Z" fill="#ffffff"/>
  <path id="fill-jaw10" class="fill" d="M1462,1754l34.2-56.3,25.3-49.7c4.4,4.4,7.9,9,7.5,15.4-1,18.2-36.3,69.3-49.5,83.5-5.7,6.1-8.7,11.2-17.5,7h0Z" fill="#ffffff"/>
  <path id="fill-jaw11" class="fill" d="M853,1643c23.4,1.8,23.6,24.4,32.8,40.7.8,3.2-7.7,7.2-9.3,5.3l-23.5-46Z" fill="#ffffff"/>
  <path id="fill-jaw12" class="fill" d="M1194,1644l-22,46c-4.7-1.2-10.2-1.5-8.5-7s10.2-25.6,13.1-29.9c3.8-5.7,10.7-8.8,17.4-9.1" fill="#ffffff"/>
  <path id="shading-jaw" class="outline shading" d="M1380.8,1185.8c-.2.4-2.1.7-2.8,1.7-8.6,10.8-16.2,26-21,39-4.2,11.4-5.1,22.7-13,32-11.3,13.5-31,29.3-45.7,39.3-15.8,10.7-32,18-49.3,25.7,7.1.9,14.3.5,21.5.5,23.3,0,41.9-6.8,62.9-17.1,15.5-7.6,25.1-16.9,35.2-30.7l21.4,3.8c-4.2,14-3.4,28.4-18.5,35-23.4,10.3-52.3,12.2-75.8,25.2-1.8,1-5.5,4.4-6.4,4.7-1.8.4-30-9.3-35.1-10.6-25.9-6.6-37.1-9.7-23.1,21.1,5.3,11.7,19.9,38.8,29.8,46.2,12.3,9.1,22.9-9.5,30.5-16.5,6.2-5.9,17.1-12.2,25.3-14.7,16.8-5,32.3,4.9,49.7,5.7,17.6.8,34.4-7.6,48.8-17.2,3.6-2.4,14.6-13.9,17.2-13.8,3.3.2,2,7.1,1.3,9.2-5.4,16.2-16.1,32.7-21.4,49.2,10.4,8.1,27.3,20.2,27.5,35,.2,17.8-26.4,60-36.4,76.4-39.8,65.4-86.5,126.3-133.5,186.6,14,16.5,38.6,26.1,60,20,7.6-2.1,12.1-7.4,19-9.5-2.6,20.2-3.1,27.7,16.8,34.7,21.1,7.5,45.8,7.9,64-6.5l21.3-16.2-22,44.5,8,2.5c.2,1.1,0,1.9-.5,2.9-6.5,16.2-30.2,41.1-45.5,49.5-5.7,3.1-46.1,12.9-52.4,12.6l-84.3-18.7-15.5,3.5-71-30c-1.3-.4-1.8-1.4-2.6-2.4-2-2.6-13.5-23.8-14.4-26.6s-1.1-5.3-.8-8.2l24-61.5c-15.6,0-31.3-2.2-46.8-2.8-3,4.8-9.3,10.4-14.2,13.3-8.6,5.1-53.1,24.7-61.5,25.5-18.7,1.7-40.6-1-59.6-.5-17.3-8.6-39-15.2-55.8-24.2-6.6-3.5-10.2-10.9-16.6-14.4-15.1,1.1-30.3,2.9-45.5,3l23.3,59.2c1.1,3.4,1.1,7.1,0,10.5-.9,2.5-14.6,27.1-15.9,28.1l-72.1,30.9-15.5-3.6c-25.8,4.6-51.9,13.1-77.6,17.4-3.8.6-6.7,1.6-10.7,1.3-6.5-.4-39-8.3-45.2-10.8-7.3-3-27-19.4-32.3-25.7-2.9-3.4-15.8-22.7-16.8-26.2-.2-.8-.3-1.5-.2-2.3l8-2.5-23-46.5,18.7,15.8c19.2,17.3,52.4,17.8,74.6,6,15.5-8.2,9.7-18.1,9.7-32.8,23.9,20.9,59.5,13.2,78.9-9.6-42.1-53.6-83.6-108-120.3-165.4-14.8-23.2-36.2-55.1-45.3-80.7-7.2-20-3.9-28.9,11.8-42.8,2.3-2.1,10.8-6.9,11-9,.2-1.7-1-3.8-1.6-5.5-4.8-13.7-16.7-32.1-20-45-1.1-4.3-.6-8.4,4.5-6.5,4.7,1.8,9.6,8.8,14.8,12.3,25.4,16.9,38.3,19.8,68.5,13.9,5.4-1.1,13.6-4.6,18.3-4.7,11.5-.3,29.8,10.2,38,18,7,6.7,17.2,24.1,29,16.1,9.9-6.8,30-43.8,34.3-55.7,1.7-4.7,5.2-14.8-2.3-16.2-8.2-1.6-30.5,5.9-39.5,8.5-3.9,1.1-17,6.5-19.5,6.4-1,0-13.7-8.2-17.2-9.7-16.2-6.7-62.8-15.6-72.7-24.3-7.9-6.8-7-18.7-11.5-27.5,0-1.4.7-1.7,1.7-2.2,1.5-.8,18.7-5.3,19.7-5.1,14,22.3,36.7,32.7,60.6,41.3,16,5.8,21.6,6.6,38.4,6.5h20.5l-34-16.5c-15.7-8.8-60.2-41.6-66.8-57.2-2.5-5.8-3.6-13.7-5.9-20.1-6.1-16.9-14.4-32.5-25.3-46.8,1.3-9,6.5-19.6,7.8-28.2,2.8-19.1,3.8-27.8,12.1-45.9,42.8-94,156.1-156.3,251.2-184.8,49.9-15,102.4-18.1,153.2-5.2,102.2,25.9,235.9,97.2,274.5,201.5,5.1,13.9,5.1,20.8,7.5,34.5.8,4.8,8.8,28.4,7.6,30.6h-.2ZM1078,1327c-6.6-11.3-11.1-25.2-18.6-35.9-4.1-5.9-9.8-10.2-14.4-15.6-3.4-3.9-14.7-20-18-21-1.9-.6-4.4-.8-6.3-.2-2.4.7-15.8,18.7-18.7,22.3-4.5,5.4-9.5,9.1-13.8,15.2-7.4,10.5-12.7,23.7-18.2,35.3h108ZM728.3,1496.7c1.6,2,8.2,6.3,10.7,7.8,14.8,8.8,31.7,13.8,46.9,23.1,16.8,10.2,40.2,33.1,59.6,33.5,2.3,0,8.7-1.2,9.4-3.7.8-2.7-13.5-27.5-16.4-30.3-7.3-7.2-27.5-17.2-37.2-23.8-15.2-10.3-50.3-39.1-67.9-39.2-10.5,0-8.7,28.1-5.1,32.7h0ZM1319.7,1466.3c-5.9-5.9-24.1,4.1-30.4,7.6-16.2,8.9-31,21.4-46.2,31.8-12.7,8.7-30.1,15.7-38.6,28.4-2.2,3.4-10.8,17.7-11.4,20.7-1.1,5.3,6.2,6.5,10.3,6.3,16-.9,23.4-9.7,35.2-17.8,9.2-6.3,19.3-13.6,29-19,11.7-6.6,47.1-19.2,52.7-29.3,2.4-4.3,2.8-25.2-.7-28.6h0ZM1126,1664c-12-2.7-20.7,6.6-31.6,7.9-5.7.7-12.2-1.2-16.6-.7-7.1.8-22.9,12.1-31.2,14.9-14.8,4.9-30.2,4.7-45.1,0-8.8-2.8-23.9-14.1-31.2-14.9-4.4-.5-10.9,1.4-16.6.7-11-1.3-19.9-11-31.6-7.4,0,6.9,23.8,23.5,30,27,12.5,7.1,59.8,26.8,72.5,26.6s59.9-19.8,72.2-26.9c10.3-6,24.6-16.2,29.3-27.2h-.1Z" fill="#aaaaaa" style="opacity: 0.5" opacity="0.5"/>
  <path id="shading-jaw1" class="outline shading" d="M1478,1737c3.9.4,7.2-2.1,10.3-4.2s11.4-11.1,13.2-11.8c3.7-1.6-1.6,7.2-2.1,7.9-3.6,5.7-19.8,26.3-24.9,29.1-6.3,3.5-11.9.9-18.5,0-.5-3.4,1.9-6.1,3.6-8.9,9.7-16.6,23.4-37.9,34.6-53.4.7-1,1.5-2.4,2.8-2.7-1.2,6.4-3.2,12.7-5.8,18.7-1.4,3.3-14.2,24.3-13.2,25.3" fill="#aaaaaa" style="opacity: 0.5" opacity="0.5"/>
  <path id="shading-jaw2" class="outline shading" d="M592,1758c-7.2,1.1-12.2,3.5-19.2-.3-5-2.7-21.2-23.7-24.7-29.3-.5-.8-5.2-8.8-1.7-7.3,1.7.7,9.8,9.6,13.2,11.8,3.1,2.1,6.3,4.6,10.3,4.2-6.3-14.7-17.1-27.6-19-44l38.4,58.1,2.6,6.9h.1Z" fill="#aaaaaa" style="opacity: 0.5" opacity="0.5"/>
  <path id="outline-jaw" d="M681,1139c5.4-1,10.7-1.8,13.8,3.7-1.2,7.6,0,17.4-2,24.6-1.6,5.8-18,15.3-21,22-1.2,2.6-6.4,25.9-6.7,29.3-.2,1.7,0,2.8.4,4.4,2.2,7.2,14.4,20.5,18.4,28.6,5.2,10.5,6.7,23.5,11.3,33.7,5,11.1,15.6,11.8,25.1,16.9,7.5,4,16,10.6,22.7,15.8-3.1,0-6.3.3-9.4,0-8.2-1-26.7-5-34.4-7.6-2.1-.7-9.4-4-10.7-5.3-3.1-3.3-6.1-15.8-9.5-17.4-2.5-1.2-7,0-10.3-.7-6.7-1.2-9.9-7.8-17.5-1.5-6.6,12.4-14.3,24.3-20.4,37.1-7.4,15.4-14.8,25.1-4.8,41.2,5.2,8.4,23.4,27,25.6,34.4,2.5,8.6-2.7,28,2.9,34.1,6,6.6,20.6,4.5,27.8.8,10.6-5.4,8.7-9.9,14.3-18.7,5.3-8.3,20.9-24.3,30.4-26.7,7.7-1.9,12.3,10.3,14,16,3.6,11.6,3.2,28.2,9.1,37.9,10.7,17.3,45.3,33.7,65.3,34.7,9.3.4,15.2-5.5,21-12,3-3.3,13.4-19.9,14.5-20.5,1.8-1,4.3-.7,6.3-.3,6.1,1.3,31.8,27.4,38.7,33.3,29.5,25.3,59.4,44.7,98.7,50.3,60.9,8.7,105.3-6.9,151.3-45.3,11.4-9.5,21.6-20.6,33-30,4.3-3.6,12.1-11.6,18-8,1.1.7,11.4,17.1,14.5,20.5,12,13.2,17.2,13.9,34.7,9.7,15.2-3.7,44.3-19.1,52.6-32.4,5.1-8.2,5.1-21.6,7.5-31.5,1.7-6.7,6.2-24.7,15.7-22.4,10.7,2.6,27.2,21,32.6,30.4,1.7,3,2.2,6.8,3.9,9.1,6.4,8.6,29.4,13.6,36.5,4.5,4.8-6.2,0-25.2,2.4-33.6s20.4-25.8,26-35c9.4-15.7.8-28.4-6.5-43.3-5.8-11.7-13.3-22.7-19.2-34.3-7.1-5.6-12.2.4-18.5,1.5-2.9.5-6.9-.4-9.3.7-3,1.4-6.8,14.4-9.6,17.4-1.3,1.4-7.2,3.9-9.3,4.7-8,3-26.3,7-34.9,8.1-3.4.4-6.8.2-10.2.2,6.6-5.5,15.7-12,23.3-16.2,11.5-6.3,19.8-5.1,25.5-19.5,3.6-9.1,5-19.4,9.4-28.6,5.2-10.9,14.2-20.6,19.6-31.4.6-1.5.2-3,0-4.5-.6-4.4-5.6-25.6-7.2-28.8-3.5-6.8-19-16.2-20.3-20.7-.8-2.7-2.7-24.4-2-26.6,1.5-4.9,9.1-3.4,12.8-2.7,1.6.3,4.1,0,5.1,1.7,1.8,2.9,1.8,11.7,3.9,13.8,4.3,4.4,21.1,4.4,24.8,12.2,2.2,4.6,0,15.6.2,21.8.5,12.5,8.5,29.5,6.8,39.7-.7,4.2-13.9,26.4-17.1,30.9-1.5,2-12.2,12.4-10.6,13.9,7.4.6,18.3-14.1,23.5-14.1s9,8.6,11.3,11.8c14.6,19.9,29.3,46.5,36.9,70.1,1.2,3.8,4.5,12.8,2.8,16.2-.7,1.4-3.3,2.1-4.5,3.5-5,6-9.6,13-14,19.5,23.4,4.3,53.2,19.5,68,38.5,7.3,9.4,4.3,12.7,6.5,22.5,3.5,15.9,19.4,40.3,25.5,57.5,2.5,7,6.9,19.9,7.1,27,0,6-4.5,13-4.1,16.9s6.2,16.4,7.5,22.6c3,13.8,3.9,17.4-1.3,30.7-2,5.2-16.4,34.3-16,36.7,8.9,8.9,19.7,15,18.8,29.2-1,17.7-33.9,64-45.6,79.4-4.3,5.6-23.6,30.1-28.3,31.7-7.5,2.4-17.8-6.7-22.1-4.1-7.5,10.9-15.8,21.5-24.5,31.5-16.8,19.3-25.5,31.3-52.2,35.8-4.7.8-12.8.4-16.4,1.6-8.7,2.8-10.3,11.6-24.4,11.6s-49.3-7.9-58.8-14.2c-2.1-1.4-5.3-5.9-7.2-5.8-1.5,0-10.7,6.3-16.1,6.9-33.7,4-93.1-31.4-107.9-61.8-5.1-10.4-3.9-14.2-.5-24.6,4.8-14.4,12.7-27.7,18-41.9-5-.8-14.5-7.9-18.7-8.3-2.3-.2-34.8,17.4-40.8,19.8-18.6,7.5-44.8,14.4-64.5,18.5-11.3,2.3-15.7,2.3-27,0-36.4-7.4-71.7-19.8-104-38.1-3-.7-15.7,5.8-19.6,7.5-1.1.5-1.7-.7-1.4,1.6,5.8,13.5,13.4,27.1,18,41,3.4,10.4,4.6,14.2-.5,24.6-14.8,30.3-73.5,65.3-107,61.9-4.9-.5-16.9-7.1-17.8-6.9-1.4.3-4.4,4.4-6.4,5.7-9.7,6.5-46.9,14.3-58.8,14.2-14.1,0-15.7-8.9-24.4-11.6-7.3-2.3-20-1.5-29.5-4.5-17.1-5.4-34-26.7-45.5-40.5-6.4-7.7-12.3-15.8-18-24-4.9-3-15.5,8.3-24,3-2-1.3-5.7-5.5-7.6-7.4-8.4-8.9-17.6-21.2-24.9-31.1-10.5-14.3-36.3-51.6-39.2-67.8s8-22.5,18.4-32.7l-19.7-46.9c-.7-6.9.9-13.7,2.4-20.4,1.4-6.2,7.1-18.8,7.5-22.6.3-3.4-3.2-9-3.7-13.2-1-8.6,3.8-22.4,6.7-30.8,6.1-17.2,22-41.5,25.5-57.5,2-9.3-.8-12.9,6.1-21.9,14.5-19.3,45-34.8,68.4-39.1,1.1-1.2-8.5-13.6-10-15.5-3.5-4.4-8.3-5.6-8-12,.4-8.2,10.9-31.9,14.8-40.2,3.7-7.7,29.3-51.5,34.9-53.2,6.3-1.8,17.3,14.4,25.3,13.8,1.9-1.8-8.7-10.8-10-12.5-3.8-4.9-13.3-21.4-15.9-27.1-6.1-13.5,1.7-20.9,3.8-34,.5-3.2,1-8.6,1.2-11.8.2-6.5-2.4-17.4.6-22.3,3.3-5.3,21.2-7.6,24.1-10.5,2.7-2.7.9-10.5,3.2-14.1,1-1.6,3.5-1.4,5.1-1.7v-.2h0ZM633.3,1439.3c.9-1.2,3.1-.8,3.7-3.9,1.1-6.1-10.5-40.1-15.6-41.3-20.5,4.9-46.5,16.2-61.4,31.3-5.3,5.4-4.5,10.5-3.8,17.9,3.8,45.6,44.2,120,68.5,159.6,42.1,68.8,102,148.4,164.4,199.6,7.2,5.9,10.4,10.2,20.5,9.5,23-1.7,55.8-23.2,70.5-40.5,7.3-8.6,9-11.1,8.1-23-1.5-20.2-18.2-54.8-27.2-73.8-3.3-7-13-29.3-16.8-33.9-1.3-1.6-6.5-2.4-9.5-5.8-3.9-4.4-6.8-18.2-7.6-18.9-1.5-1.5-1.7.5-2.2,1.3-2.3,3.7-5.5,17-4.7,21.2,9.8,20.3,39.4,55.9,35.7,78.8-2.2,13.6-15.6,26.4-28.8,16.3-54.4-61-103.6-126.1-149.2-193.8-14-20.8-34.9-48.5-46.2-69.8-5.4-10.2-5.2-21.2,1.8-30.6l-.2-.2ZM1213.7,1635.7c-2.2,2.2-6.4,3.1-8.6,4.9-4.6,3.8-23.6,46.3-27.2,54.8-7,16.2-21.4,47.8-17.6,65,1,4.6,13.8,17.6,17.8,21.2,14.4,13,41.9,29.6,61.5,30.5,9.3.5,12.8-3.9,19.6-9.5,83.7-68.7,186.1-212.3,221.3-314.7,4.8-14,13.9-42.1,11.7-56.2-.8-4.8-12-12.8-16.2-15.8-8.3-5.8-39.2-22.5-48.2-20.8-3.5.7-9.2,14.7-10.5,18.5-1.8,4.8-5.8,17.7-5.8,22.2s5,5.3,6.3,8.2c3.5,7.7,3.6,17.1-.4,24.7-55.2,85.5-113,169.3-179.7,246.3-4.3,5-16.1,20.1-21.5,21.5-13.2,3.5-22.8-9.1-24-21-2.3-22.7,26.9-58.1,36.8-78.2,0-7.4-1.7-16.2-6.3-22.3-2.8,6.3-3.7,15.6-8.8,20.7h-.2ZM1249,1614.5c.5,5.3-.4,11.2,0,16.5,4.5-2.9,6.9-8.6,9.2-13.3,7.2-14.9,13.6-37.5,13.9-54.1,0-7.5-1.8-15.8-2-23.2,0-2.6,2.9-7.2,5-8.8,3.9-3.2,18.2-11.2,23.3-13.7,10.8-5.5,29.6-7.9,33-21,2.5-9.8.7-28.2,1.8-39.2,1-10.3,7.7-19.4,6.9-29.1-.6-6.2-5.2-16.1-9.4-20.6-1.5-1.6-8.7-7.2-10.5-5.9s-7.1,27.7-7.1,31.5,2.9,12.2,0,17.1c-1,1.8-14.9,11.5-17.8,13.2-13.5,8.5-30.5,17.7-44.6,25.4-9.2,5-19.2,9.5-28.4,14.7-3.1.5-6.8-3.6-10.8-3.9-11.7-.8-14.5,8.2-21.5,14.6-16.6,15.2-41.4,23.2-63.5,25.5-69.2,7.1-135.8,6.9-205,0-21.8-2.2-45.9-9.8-62.5-24.5-7.4-6.5-10.7-16.4-22.5-15.6-4,.3-7.4,4.3-10.5,3.7-12.5-7.1-25.7-12.8-38.3-19.8s-39.3-21.5-49.2-30.8c-6.9-6.6-2.4-12.5-2.5-20.4-.2-9.9-4.5-21.1-7.1-30.5-9.8,1.4-16.8,13.3-19.3,22.2-3.6,12.9,4.8,20.7,6.2,33.4s-2.5,31.6,2.7,42.3,22.8,13.3,32.7,18.3c4.5,2.3,19.2,10.6,22.6,13.4,1.8,1.5,2.7,3.4,3.6,5.4.2,9.9-2.1,19.6-1.6,29.6.8,16.7,8.6,44.3,17.5,58.5,1.4,2.3,3,4.7,5.5,6-.9-5.1-.4-9.2.3-14.2.9-6.6,4.7-25.1,7.5-30.5,1.2-2.3,3.7-3.5,4.3-6.2,23,6.3,35.4,28.6,50.3,44.9,11.3,12.4,23.8,14.5,34.1,23.9,6.5,5.9,11.9,15.9,17.5,22.5,14.4,17.2,20.4,23.3,41.3,32.7,28.8,12.9,50.9,21,83.2,18.9,16.7-1.1,61-18.9,75.8-28.2,16.1-10.1,26.5-33.3,40.2-45.8,10.2-9.3,22.2-11.3,33-23,9.6-10.3,17.3-22.5,28-32,5-4.5,21.2-18.9,26.3-9.3,2.2,9.9,7.3,19.6,8.2,29.8v-.4h.2ZM692.7,1454.6c-8.6,5.2-13.5,6.5-23.2,3.4-5.5-1.8-11.8-7.5-17.4-3.5-8,5.7.3,21.6,3.8,28.1,14.9,28.2,37.7,58.4,56.4,84.6,26.6,37.5,54.9,76.6,83.4,112.6,6.4,8,24.9,32.7,33.6,35.4,14.2,4.5,9.9-14.4,7.3-22.3-2.1-6.5-11.2-24.4-15.1-29.9-1-1.5-2.8-3.2-4.4-4.1v7c-1.1,0-2.2,0-3.3-.2-9.8-2.4-45.3-48.6-49.9-59.1-9.5-21.7-5.3-71.5-40.4-72.7-4.8-.2-7.2,2.4-12.4-.6-2-1.1-10.6-12.1-11.6-14.3-3.7-8.3-.7-36.3-1.5-47.6-.2-2.3-2.3-17.8-3-18.5-1.7-1.7-2.1,1.5-2.3,1.6h0ZM1356,1453c-.5-.3-1.5-.4-2,.6-1.1,2.2-2.8,13.8-3,16.9-.9,11.9,2.5,40.2-1.8,49.2-1,2.1-9.4,12.7-11.3,13.7-5.2,3-7.5.4-12.4.6-19.6.7-27.5,18.6-32.1,35-3.1,11-3.9,28-8.3,37.7-5.3,11.7-31.3,42.5-41.2,51.8-2.6,2.4-8.2,7.4-11.5,7.5-3.8.2,1-8.2-3.5-7-7.3,14.4-22.4,34.7-20.1,51.5.7,5.2,5.3,6.2,9.9,4.8,8.6-2.7,27.2-27.4,33.6-35.4,28.5-36,56.8-75.1,83.4-112.6,18.6-26.2,41.4-56.4,56.4-84.6,3.5-6.6,11.8-22.4,3.8-28.1-5.2-3.7-11.2,1.8-16.4,3.5-9,2.8-14.2,2.1-22.3-2.7-1.6-1-1.2-2.2-1.2-2.3h0ZM765,1818c.4-1.5-.4-1.7-1-2.5-6.5-9.3-23.8-23.7-32.5-33.5-71.9-80.4-136.5-177.8-177.2-277.8l-12.2-36.2c-4.7,16.4-15,35.2-17.6,51.9-3.5,23,16.6,69.7,26.7,91.4,37.4,80.5,92.9,157.9,156.9,219.1,5,3.1,13.4.3,19-.9,12.9-2.9,25.3-7.9,38-11.5h0ZM1283,1818c12.7,3.6,25.1,8.6,38,11.5,5.6,1.3,14,4.1,19,.9,64-61.2,119.5-138.6,156.9-219.1,10.1-21.7,30.2-68.4,26.7-91.4-2.6-16.7-12.8-35.6-17.6-51.9l-12.2,36.2c-40.7,100-105.4,197.4-177.2,277.8-8.7,9.8-26.1,24.2-32.5,33.5-.6.8-1.4,1-1,2.5h-.1ZM668.3,1813.7c-35.5-39.8-69.7-81.4-94.9-128.6-20-37.5-36-77.1-53-116-9.5,9.5-7,18.8-3.2,30.2,3.2,9.8,8.4,20.9,12.6,30.4,25.8,59.3,64.7,129.4,111.6,174.4,8,7.7,18.8,16.6,30.5,13.9.5-2.7-2.5-3-3.6-4.3M1376,1818c12,2.7,22.9-6.6,31-14.4,41.3-39.9,76.4-99.4,100.8-151.2,7.6-16.1,17.4-36.4,22.9-53.1,3.7-11.4,6.2-20.8-3.2-30.2-24.4,55.6-46.8,113.2-81.7,163.3-18.9,27.1-45,59.4-68.2,82.7-.9,1-2,1.2-1.6,3h0ZM853,1643l23.5,46c1.7,1.9,10.1-2.1,9.3-5.3-9.3-16.3-9.5-39-32.8-40.7M1194,1644c-6.8.3-13.6,3.4-17.4,9.1-2.9,4.3-11.5,24.6-13.1,29.9s3.8,5.8,8.5,7l22-46ZM586,1754l-34.2-56.3-25.3-49.7c-4.4,4.4-7.9,9-7.5,15.4,1,18.2,36.3,69.3,49.5,83.5,5.7,6.1,8.7,11.2,17.5,7h0ZM1462,1754c8.8,4.2,11.8-.9,17.5-7,13.2-14.2,48.5-65.3,49.5-83.5.4-6.5-3.1-11.1-7.5-15.4l-25.3,49.7-34.2,56.3h0Z" class="outline" fill="#000000"/>
    </g><g class="trait-group" data-category="mouth" id="mouth-scrappy">
      <path id="fill-muzzle" fill="#ffffff" d="M1038 1292s-.4 1.7.7 2c10.3 2.8 18 4.3 25.8 13 1.9 2.2 4.9 8.8 6.5 9.5 2.6 1.2 6.6 0 9.5.5 11.4 1.5 21.2 3.7 31.2 9.8 2.1 1.3 9.2 7.8 10.2 7.1.3-.3 0-1.7 0-1.9 2.4-1.8 32.7.6 38 1 5.2 4.2 13.2 5.5 19.2 8.3 13.7 6.4 22.5 16.1 29.9 29.1 8.4 14.6 7.7 17.8 3.1 33.4-2.5 8.5-4.8 21.8-16.3 20.2 1.5-15.5-14.8-32.4-26.5-41-3.2-2.4-11.3-7.2-6 0 10.8 14.7 20.2 14.8 21.5 37.5.6 10.3-8.4 32.9-15.4 40.5-.6.7-7.1 6.3-7.6 6.5-3 1.6-6.9-6.1-7.8-8.2-3.6-7.8-4.7-15.5-9.7-23.3-1.1-1.7-10.8-13.7-12.4-12.1 5.6 13 9 46.2-2.5 56-4.4 3.7-9.4 1.9-13.3 3.7-2.8 1.3-3 5.7-4.8 6.1s-7-3.1-9.4-3.5c-8.9-1.3-13.2 17-18.7 17.5-2.5.2-10.7-11.9-18.4-9.4-7 2.2-15.4 21.2-24.4 23.6-6.3-6-3.4-14-5.8-21.2-1.2-3.5-4.2-6.7-5.8-10.2-5.4-12.7-2.8-19.9-.2-32.2.6-3 0-5.9.9-9.1.2-.7 6.3-12.3 6.9-13.1 3.7-5.4 19.2-12.4 22.7-3.8.9 2.2 0 8.7 2.2 7.7 5.1-4.9 10.2-9.9 15.5-14.5 11.5-10 14.1-9.7 21.2-24.8 1.5-3.3 6.5-14.5 6.6-17.3 0-3.4-9.2-14.7-11.8-17.8-1.4-1.7-9.5-11.5-10.2-11.8-6.4-3.2-28-2.3-34.7.8-7.9 3.6-12.5 12-19 17-1 .8-1.3 1.9-3 1.5l.8-12.7c3.6-4.3 21.7-23.3 21.1-27.5-.4-2.6-11.3-13.4-12.9-11.7 4.4 12.8.7 8.7-7.3 12.2-1.2.5-2.9 2.7-3.2 2.7s-2-2.2-3.2-2.7c-3.4-1.5-9.7-.4-9.3-5.6 0-1.1 4.1-7.6.5-6.6-2.8.8-12 9.9-11.3 13.2 0 .6 4 7 4.8 8 1.5 2 5 5.9 7 8.3 3.2 3.9 9.7 7.6 9.9 13.1 0 1.6-.8 3.1-.8 4.8s2.6 8.1-2.5 3.6c-6.2-5.3-10.2-13.6-18.5-17.5-6.5-3-30.3-4.3-35.7-.2-.8.6-8.8 10.5-10.2 12.2-2.4 3-10.9 13.7-10.8 16.8.2 5.4 11.7 29 15.7 33.2 3 3.2 9.3 6.8 13 9.9 5 4.3 9.7 9.1 14.5 13.5l4.2-11.1c4.9-3.1 17.7 2.6 20.8 7.1 1 1.5 5.1 9.9 6 11.9 2.8 6.4 5.1 25.4 4.4 32.4-1.1 10-7.9 15-9.4 22.6-1.3 6.4 1.1 14.9-5.8 18.9-8.1-2.6-17.3-21.5-23.6-23.5-8.2-2.6-15.9 9.6-18.4 9.4-5.3-.4-8.7-14-13.9-16.1-6.9-2.8-11.5 2.7-14.1 2.1-1.8-.4-2-4.8-4.8-6.1-4.5-2-9.6.3-14.3-4.7-10.9-11.5-6.5-42.2-1.5-56.1-9.1 6.7-14.1 14.8-18.5 25-1.6 3.6-2 7.5-3.7 11.3-1 2.1-4.9 9.8-7.8 8.2-.4-.2-6.9-5.9-7.5-6.5-3.9-4.3-13.8-24.4-15-30-2.8-12.9 1.4-26.5 9.5-36.5 4.1-5.1 11.3-9 13-15.5-2.4-2.4-22.3 17.4-24.4 20.1-5.4 6.8-11 15.9-9.6 24.9-8.3.5-10.7-3.3-13.3-10.2-2.7-7.1-7.8-22.8-6.2-29.8 3.7-16.2 21.4-35.8 36.3-42.7 6.2-2.9 13.9-4.1 19.2-8.3 12.5-.8 24.5-2.3 37-1 0 0 .7 2.1.5 3 9.5-8.2 20.6-14.8 33.1-16.9 4.7-.8 14.8-.4 18.1-1.8 1.6-.7 5.2-7.7 7.2-9.9 8-8.4 15.2-9.7 25.4-12.5 1.1-.3.6-1.9.7-2 1.1-.7 25.9-.7 27 0v.2Z" class="fill" data-original-prefix="fill"/><path id="fill-teeth14" fill="#ffffff" d="M1039.1 1601.9c-.8-.5-7.2-15.4-7.9-17.6-4.2-13.6-7-37.9-1.5-51.1 5.8-13.9 10.8-1 20-5 1.9-.8 7.6-6.8 9.2-8.8 2.6-3 3.6-9.1 8-8 12.8 3.1 21.1 24.2 22 36.1 2.3 30.4-23.4 40.7-45.2 53.7-1.2.5-3.6 1.3-4.6.6Z" class="fill" data-original-prefix="fill"/><path id="fill-teeth13" fill="#ffffff" d="M1015.7 1527.3c10.2 8.9 6 44.1 2.3 56.2-1.9 6.4-6 12-8.1 18.3h-2.3c-12.1-7.1-26.3-12.4-36.1-22.9-9.1-9.8-12.3-17.9-11.5-31.5.8-11.8 9-32.3 21.2-35.9 4.8-1.4 5.7 4.5 8.2 7.4 1.8 2.1 8.3 8.8 10.5 9.5 6 1.9 12.5-4.1 15.8-1.3z" class="fill" data-original-prefix="fill"/><path id="fill-teeth12" fill="#ffffff" d="M904 1461c0 2.2-1.1 3.8-.8 6.2s7.4 22.5 8.8 24c3.7 4.1 11.1 2.3 15.9 2.9 4.9 13.5-4.3 23.9-8.6 35.6-2 5.3-8.4 33.1-12.8 34.3-3.3.8-11.7-18-12.8-21.2-6.8-20.9-8.8-51.8 1.8-71.7.6-1.2 7.1-11.6 8.4-10.1Z" class="fill" data-original-prefix="fill"/><path id="fill-teeth11" fill="#ffffff" d="M1144 1564c-1 .7-1.8-.4-2.4-1.1-5.8-5.8-8.7-24.8-11.8-33.2-4.3-11.7-13.8-21.9-8.6-35.6 18.6 2.9 18.2-8.8 23.1-22.4l2.2-9.8c10.2 11.1 15.2 27.6 14.6 42.5-.5 13.7-3.2 35.3-9.5 47.5-.8 1.5-6.9 11.6-7.5 12Z" class="fill" data-original-prefix="fill"/><path id="fill-teeth10" fill="#ffffff" d="M949 1569c5.5 22.1 11.4 45.4 9 68.5-.5 5-1.3 9.2-7 6.9-3.4-1.3-17.5-13.4-19.5-16.5-7.4-11.8.3-39.7 8-50.8 1.2-1.7 7-10.1 9.4-8.1Z" class="fill" data-original-prefix="fill"/><path id="fill-teeth9" fill="#ffffff" d="M1100 1569c3.4-2.9 13.3 14.1 14.5 17 4.8 11.7 9.3 33.5 1 44-2.1 2.7-18.5 16.5-20.9 15.9-1.9-.4-3.4-6.5-3.6-8.4-1-8.7 0-26 1-35 1.1-10.9 6.5-22.5 8-33.5" class="fill" data-original-prefix="fill"/><path id="fill-teeth8" fill="#ffffff" d="M1167 1547c.9-6.7-1-15-.6-21.3.3-6.3 3.7-14.6 3.6-21.2 0-5.7-4.8-19.5-4-24 .5-2.9 3.5-2.8 5.5-4.5 6.2-5.3 10.4-15.8 16.9-4.9 14.2 23.5-1 56.5-18.4 74.4-.9 1-1.3 1.9-3 1.5" class="fill" data-original-prefix="fill"/><path id="fill-teeth7" fill="#ffffff" d="M881.7 1478.3c3.3 2.9-2.8 21-2.8 26.2s2.6 12.6 3.1 18c.7 8 0 16.5-.5 24.5-1.8 0-11.7-13.3-13.3-15.7-11.2-16.8-20.3-43.7-7-61.7 6.2-8.4 9.7.9 14 4.7 2 1.9 5.7 3 6.6 3.9Z" class="fill" data-original-prefix="fill"/><path id="fill-teeth6" fill="#ffffff" d="M1018 1613v16.5c0 .9-10.8 13.2-11.9 14.1-6.3 4.8-8-2.6-10.6-5.5-5.5-6-17.9-.4-24.4-5.6-.9-.7-4.1-8.3-4.1-8.9v-24.5c12.3 3 28.7 18.5 41.4 16.9 3.5-.4 6.1-3 9.6-2.9Z" class="fill" data-original-prefix="fill"/><path id="fill-teeth5" fill="#ffffff" d="M1102.5 1494c3.3-.8 5.3 8.5 6.3 10.7 5 10.5 15.3 30.3 11.4 42.1-2.2 6.7-15.6 23.4-20.4 11-4-10.4-4.1-44.7-1.1-55.5.4-1.6 2.4-7.9 3.8-8.2Z" class="fill" data-original-prefix="fill"/><path id="fill-teeth4" fill="#ffffff" d="M917 1563c-1.6 13.5 2.8 27.4 2 40.5-.5 8.8-4.2 18.6-5.5 27.5-5.8-5.6-10.5-15.7-11.4-23.6-.6-5.2.7-25.8 2.4-30.3.6-1.6 10.5-16.2 12.4-14.1Z" class="fill" data-original-prefix="fill"/><path id="fill-teeth3" fill="#ffffff" d="M1135 1631c-.4-8.9-4.4-17.8-5.1-26.5-1-13.6 3.6-27.7 2-41.5 2.2-2.4 11.9 13 12.5 15 2 6.8 2.7 27.3 1.2 34.3-1.3 6.3-5.5 14.8-10.8 18.7z" class="fill" data-original-prefix="fill"/><path id="fill-teeth2" fill="#ffffff" d="M1154.1 1604.9c-3.4-2-5.1-22.3-3.9-26.2.8-2.6 8.9-5.2 10.2-8.8l5.1-10.9c3.8 3.4 5.1 7.2 4.3 12.2-.7 4.5-5.2 22.3-6.9 26.2-.9 2.2-6.1 9-8.8 7.5" class="fill" data-original-prefix="fill"/><path id="fill-teeth1" fill="#ffffff" d="M885 1559c.4.4.7 7.1 3 10.5 2.7 3.9 10.5 6.9 11 10-.8 4.7-.7 23-4 25.4-2.5 1.8-7.7-4.5-8.7-6.7-1.6-3.6-6.3-22.5-7-27-.6-3.9 2.5-15.6 5.8-12.3Z" class="fill" data-original-prefix="fill"/><path id="shading-mouth2" fill="#aaaaaa" d="M918 1443.5c.8 5.3 5.6 13.8 10.1 16.9 11.5 8.3 16.2-.3 22.4-9.4 2.5 5.4 3.4 11.5 6 17 1.4 2.8 5.7 12 7.5 5.5l4-11.5c1.6 7.5 6.3 15.4 11.5 21 4.3 4.7 18.8 15.4 24.6 9.6 2-2.1 8.3-17.9 10.8-22.2 1.2-2.2 7.8-13.8 9.7-13.3 1 .2 8.5 13.2 9.7 15.3 2.4 4.5 7.3 17.7 9.8 20.2 3.8 3.8 10.5.4 14.4-1.8 10.5-5.9 18.5-17.2 21.7-28.8l4.2 12.3c.3 1.2 1.9 2.4 2.8 1.7.6-.4 5.8-11.3 6.5-13 .8-2 2.8-12 4-12 6.8 10.7 12.9 18.4 24.5 7.5 8.6-8 9.3-23.8 7-34.5 3.5-3.1 21.1 16.1 26.6 16.9 9.1 1.4 17.6-11.8 19-19.9 3.5-20.5-12.9-39.2-30.9-46.2l-12.7-4.8c15.4 0 28.2 2.9 41.1 11.4 4.8 3.1 12.2 10.9 17.6 11.4 6.2.6 10.1-4.1 10-10-.4-19.3-25.8-38.1-39.7-48.8 15.4 2.4 34.6 11.8 45 23.5 7.8 8.8 19.1 25.1 19.1 37s-6.4 28.5-9.2 32.8c-3.3 5.3-11.7 5.4-13.4 10.6-.9 8.1-2.1 16.4-2.5 24.5-1.5 29 1.4 45.2-10.8 73.2-3.6 8.2-12.7 20.4-14.9 27.1-4.2 12.8-.7 26.4-9.1 38.9-3.2 4.8-8.4 6.7-11.2 10.8-1.7 2.5-2.4 6.1-4.2 8.8-4.5 6.7-14.6 23-21.6 8.9-1.6-3.3-1.3-12.9-6.7-6.2-1.4 1.7-1.9 4.4-3.5 6.5-3.7 4.7-17.7 19.6-23.5 19.5-2.2 0-4.5-4.1-6.6-5.4-7.9-5-21.1-6.3-29.2-1.4-7.3 4.4-9.5 13.6-18.1 6.8s-6.4-10.8-20.1-9c-5.6.7-11.4 12.6-16.9 12.1-2.8-.2-11.4-11.1-18.5-12.6-6.3-1.3-17.5.7-23 4.2-2.6 1.7-4.1 5.6-7.5 5.4-5.7-.3-19.8-15.8-23.6-20.5-1.2-1.5-4.4-10.6-7.1-6.9-2.5 3.4-.6 9.9-7.2 12.7-7 3-14.9-11.2-18.1-16.4-1.2-1.8-1.2-4.3-2.6-6.4-2-3-6.8-5.4-9.5-8.5-10.4-11.9-6.7-27.7-10.7-41.3-.8-2.6-5.6-8.5-7.3-11.7-18.4-35.7-16.4-45.6-18.4-84.6-.4-7.7-.6-20.7-2.2-27.8-1.5-6.2-11.1-6.1-14.2-11.8-3.4-6.1-9.3-29.6-8.6-36.4 1.2-10.3 16.2-31.2 24-38 10.5-9.2 26.2-16.5 40-18.5l-21.5 17c-7.2 6.4-26.8 32-14.8 39.9 9 5.9 16.7-4.5 23.7-9.1 12.7-8.4 25.3-11.8 40.7-11.8l-17.3 7.2c-18 9.4-33.1 32.7-22.1 52.8 1.7 3.1 8.6 10.4 12 11.1 9.1 1.7 20.7-15.4 29.5-18 .6 6.4-.9 14.3 0 20.5zm-37.1 40.6c-12.3-.5-17.1-20.2-22.8 1.5-3.4 13 1.2 26.4 9.4 36.5 1.5 1.8 12.7 13.1 13.9 12.9.8 0 2.5-2.3 2.8-3.2 2.9-7.1-3.2-12.2-4.2-19.2-1.5-9.8 0-18.7.9-28.4Zm301.8-8.9c-3.2.8-6.3 6-8.8 7.3-2.1 1.1-7.2 1-7.8 3.2-.5 1.7 3 10.8 2.9 14.8 0 3-1.5 13.9-2.2 16.8-.9 3.6-3.9 5.7-3.9 10.2s1.4 7.1 3.7 7.4c1.9.3 15-14.4 16.8-17 5.7-8.5 9-18.8 7.3-29.2-.5-3-4.4-14.5-8-13.6Zm-284.8 10c-4-2.3-6.5 9.9-6.8 12.5-1.2 10.5 3 38 8.7 47.1 1.9 3 5.4 6.9 9.2 7.3 3.7-15.6 12.6-29.2 21-42.5-2.3-.4-1.7-2.9-2.7-3.5-1.5-.9-7-1.9-9.7-3.1-4.7-2.2-12-7.7-15.6-11.4-1.2-1.2-3.8-6.2-4.2-6.3ZM1139 1552c8.3-2 11.9-12.2 13.9-19.6 3.1-12.1 6.1-33.4 1.1-44.8-3-6.9-5.8 1.7-8.3 4.1-3.9 3.8-11 9.3-16 11.6-2.5 1.1-7.8 1.8-9.1 2.7-.7.5-.5 1.8-1 2.7-.3.4-1.7.4-1.6.9 0 1 7.9 12.3 9.2 14.8 4.8 8.8 9.1 18 11.8 27.7Zm-197.7 5.7c8.1 8.1 9.5 0 10.5-7.3.8-5.6 2.7-20.6 1.7-25.4-3.6-17.2-21.3-15.9-21.6 3.6 0 6.8 4.6 24.3 9.4 29.2Zm161.5-44.5c-5 1.3-8.5 9.3-8.8 14.2-.2 4 2.4 28.5 3.8 31.3 2.5 5 7.5 0 9.8-2.7 6.8-8.3 11.6-30.7 4.5-39.5-2.7-3.3-4.8-4.4-9.2-3.3zM1023 1544c-.7-.7-.8-7-5.1-9.4-8.9-5-21.8-.8-32-4-10.4-3.3-9.4-13.1-16.1 1.8-2.9 6.4-9.1 24.4-6.3 30.7 1.1 2.4 17.8 15.6 21.2 17.8s18.2 11.7 21.1 10c3.1-5.6 9.3-9.5 12.6-14.9 1.8-2.8 4.1-11.5 4.6-11.9 1.6-1.7 1.7.5 2.1 1.4 1.6 3.6 2.1 6.8 4.5 10.5 3.3 5.2 9.2 9.3 12.4 14.6 3.1 1.9 15.5-5.9 18.9-8.1 4.5-2.9 22.9-17 23.9-21.1 2.2-9.7-6.6-28.3-10.9-37.2-4.9 1-7.8 5.2-12.7 6.7-9.2 2.8-28.2-1.6-33.7 6.3-.9 1.2-2.6 8.9-4.5 7zm-136 18c-.7-.6-3.5 0-4.5.9-6 6.2 2.4 31.6 14.6 27.6 4-1.3 3.8-9.4 2.8-12.9-1.1-3.9-7.2-4.1-9.8-7.2-2.1-2.5-2.7-8.2-3-8.5Zm274.1 0c-.3.3-.9 6-3 8.5-2.6 3.1-8.7 3.3-9.8 7.2-1 3.4-1.2 11.6 2.8 12.9 13.4 4.4 20.2-24.5 14.1-28.1-.9-.5-3.5-.9-4-.4Zm-216.4 7.2c-1.5.4-5.1 4.6-6 6.1-3.4 5.6-5.6 32.3-4.8 39.3 1.3 10.9 15.2 18 19.5 3.5 1.7-5.6 2.6-21.4 2.5-27.6 0-1.1-5.8-19.7-6.5-20.5-1.2-1.4-3.2-1.3-4.8-.8Zm153.3-.1c.2 6.6-5.4 14.7-6 20.6-.5 4.5 1 25.3 2.4 29.4 4.2 12.1 16.9 7.3 19.1-2.9 1.1-5.2 0-16.8-.6-22.6-1-9.7-1.7-25.5-14.9-24.5m-180 1.9c-20.5 3.8-17 28.7-9 43 4 2.9 10.4-17 10.7-19.8.9-7.5-2.9-15.5-1.8-23.2Zm218 43c2.5 1.8 7.2-9.1 7.7-10.8 3.9-12.8 1.6-30.1-13.7-32.2.5 7.4-2.8 16.2-1.9 23.4.3 2.7 6.4 18.5 7.9 19.6m-148.2 10.2c1.4.8 4.8 8.6 9.5 11 11.1 5.8 20.2-6.4 20.7-16.7.8-13.7-7.2-7.7-16.5-8.6-8.4-.8-15-4.8-21.8-9.2-5.5-3.5-13.6-14.6-14.7-1.4-.5 5.1 1.4 7.5 1.8 11.2s-2 5.9.5 10.7c4.8 9.3 18 1.3 20.7 2.8zm93.1-31.1c-2.1-1.5-19.7 12.7-23.9 14.4-2.3 1-7.9 2.3-10.5 2.5-10.5.9-18.8-5.4-16.4 11.4 1 7.3 7.9 15.8 16 15.1 9.4-.8 11.9-11.6 14.6-12.4 4-1.3 12.3 5.7 18.9-1.1 4.3-4.4 1.3-8.4 1.5-12.5 0-2.3 1.9-4.8 2-8.1 0-1.9-.8-8.5-2.2-9.4Z" class="outline shading" data-original-prefix="shading" opacity="0.5" style="opacity: 0.5"/><path id="shading-mouth1" fill="#aaaaaa" d="M1041 1343c6.1.5 12.7-1 17.5-5 1.5-1.3.9-3.7 2.8-2.9 10.1 7.9 37.9 17.4 43.8 28.2 3.6 6.5 4.6 17.5-1.8 22.6-5.6 4.5-20.8 10.8-28 15-4.9 2.8-9.7 6.6-14.7 9.3-7.4 4.1-25.5 14.5-32.6 16.4-2.9.8-5.2.8-8.1 0-14.5-3.8-42.2-22.5-56.3-30.7-6.2-3.6-21.2-9.1-23.2-15.8-5.5-18.4 15.7-28.3 28.7-35.4 2.3-1.2 15.5-8.6 16.5-8.7 2.9-.3 4.2 2.9 6.7 4.2 4.2 2.3 10 3.2 14.7 2.8-.3-5.1-3.3-11.3-1.8-16.3.5-1.6 12.5-13.9 14.5-14.4 3.9-1 8.2-.3 11.6 1.9 1 .7 10.8 11.1 11.2 11.8 2.1 5-1.2 11.8-1.5 17" class="outline shading" data-original-prefix="shading" opacity="0.5" style="opacity: 0.5"/><path id="outline-mouth3" fill="#000000" d="M889 1333c-5.3 4.2-13 5.4-19.2 8.3-14.9 6.9-32.6 26.5-36.3 42.7-1.6 7 3.5 22.7 6.2 29.8 2.6 6.9 5 10.8 13.3 10.2-1.4-9 4.2-18.1 9.6-24.9 2.1-2.6 22-22.5 24.4-20.1-1.7 6.5-8.8 10.4-13 15.5-8.1 10-12.3 23.6-9.5 36.5 1.2 5.6 11.1 25.8 15 30 .6.7 7.1 6.3 7.5 6.5 3 1.5 6.9-6.1 7.8-8.2 1.7-3.8 2.1-7.7 3.7-11.3 4.4-10.2 9.4-18.4 18.5-25-5.1 13.9-9.5 44.6 1.5 56.1 4.8 5 9.9 2.7 14.3 4.7 2.8 1.3 3 5.7 4.8 6.1 2.6.6 7.2-4.9 14.1-2.1 5.2 2.1 8.6 15.6 13.9 16.1 2.5.2 10.2-12 18.4-9.4 6.3 2 15.5 20.8 23.6 23.5 6.9-4 4.5-12.6 5.8-18.9 1.5-7.6 8.3-12.6 9.4-22.6.8-7-1.6-26-4.4-32.4-.9-2.1-5-10.5-6-11.9-3.1-4.5-15.9-10.2-20.8-7.1l-4.2 11.1c-4.8-4.4-9.5-9.2-14.5-13.5-3.7-3.2-10-6.8-13-9.9-4-4.2-15.5-27.8-15.7-33.2 0-3.1 8.4-13.8 10.8-16.8 1.4-1.8 9.5-11.6 10.2-12.2 5.4-4.1 29.2-2.8 35.7.2 8.4 3.8 12.4 12.1 18.5 17.5 5.2 4.5 2.5-1.7 2.5-3.6s.9-3.2.8-4.8c-.2-5.4-6.7-9.2-9.9-13.1-2-2.4-5.5-6.3-7-8.3-.8-1-4.7-7.3-4.8-8-.7-3.3 8.6-12.4 11.3-13.2 3.6-1-.5 5.5-.5 6.6-.4 5.2 5.9 4.1 9.3 5.6 1.2.5 3 2.7 3.2 2.7s2-2.2 3.2-2.7c8-3.5 11.7.6 7.3-12.2 1.6-1.7 12.5 9.1 12.9 11.7.6 4.2-17.5 23.2-21.1 27.5l-.8 12.7c1.7.4 2-.7 3-1.5 6.5-5 11.1-13.4 19-17 6.8-3.1 28.3-4.1 34.7-.8.7.3 8.8 10.1 10.2 11.8 2.6 3.1 11.9 14.4 11.8 17.8 0 2.8-5 14.1-6.6 17.3-7.1 15.2-9.7 14.8-21.2 24.8-5.3 4.6-10.4 9.6-15.5 14.5-2.2.9-1.4-5.6-2.2-7.7-3.4-8.6-19-1.6-22.7 3.8-.6.8-6.7 12.4-6.9 13.1-1 3.2-.3 6.1-.9 9.1-2.6 12.3-5.2 19.6.2 32.2 1.5 3.5 4.6 6.8 5.8 10.2 2.5 7.2-.5 15.2 5.8 21.2 9-2.3 17.4-21.3 24.4-23.6 7.7-2.4 15.9 9.6 18.4 9.4 5.6-.5 9.8-18.8 18.7-17.5 2.3.3 7.6 3.9 9.4 3.5s2-4.8 4.8-6.1c3.9-1.8 8.9 0 13.3-3.7 11.5-9.9 8.1-43 2.5-56 1.6-1.7 11.3 10.4 12.4 12.1 5.1 7.8 6.1 15.5 9.7 23.3 1 2.1 4.8 9.8 7.8 8.2.4-.2 6.9-5.8 7.6-6.5 7-7.6 16-30.2 15.4-40.5-1.3-22.7-10.7-22.7-21.5-37.5-5.3-7.2 2.8-2.4 6 0 11.8 8.6 28 25.5 26.5 41 11.4 1.6 13.7-11.7 16.3-20.2 4.6-15.6 5.3-18.8-3.1-33.4-7.4-13-16.3-22.7-29.9-29.1-6-2.8-14.1-4.1-19.2-8.3 9.3.7 19.7 2.8 29.2 5.3 7.4 1.9 14.4 3.9 20.7 8.3 3.2 9.3 27.6 34.6 28 42 .2 3.7-8.2 22.5-10 27.9-2.5 7.2-2.6 16-10 21-1.9 1.3-8.4 2-9 3.2-4.1 7.9-1.4 38-1.9 48.8-1.1 21.6-7.6 43.1-20.5 60.5-.9 1.2-2.6 1.5-3.6 2.7-4.3 5.6-2.8 18.6-4.3 26.5-1.2 6-5 13.1-5.6 18.4-.4 3.5 1.3 7.7.8 9.7s-10.7 8.6-13.2 9.9c-2.2 1.2-5.7 1.5-6.5 2-.6.4-5.4 10.9-7.2 13.3-2.1 2.7-11.1 11.3-14 12.1-4.1 1.2-7.9-10.3-9.9-13s-2.3 2.3-3.6 4.3c-4.3 6.7-25.1 26.6-32.4 28.6-1.7.5-3.3.7-5 .5-.4-5.9 3.2-9.9-1.5-15.1-8.2-9-20.9-.3-24.3 8.8-1.8 4.9-1.6 20-8.6 18.1-4.6-1.3-20-25.6-23.2-30.8-5.7 8.9-12.2 19.9-19.5 27.4-11.2 11.7-9.9-11-13.8-18.2-3.8-7.1-14-12-21.1-6.7-6.7 5-2.9 9.6-3.1 16.4-3.5 3.5-24.3-13.8-27.5-17-1.3-1.3-10.5-12.2-11-13-.7-1.4-.2-6.3-2.6-3.3-2.1 2.7-6.2 14.3-10.2 13.3s-12-10.2-13.7-12.4c-2.1-2.7-6.6-12.8-7.2-13.2-.8-.5-3.8-.6-5.8-1.7-2.3-1.2-11.9-7.4-13-9-2.1-3.2.4-6.9 0-11-.7-6.8-5.9-15.3-6.8-24.2-.5-5 .6-10.7-.6-15.4-1-4-8-10-10.7-14.3-15.3-24.4-17.6-52.1-17.9-80.2 0-5.4 3-18.2 0-22.8-.8-1.2-7.8-1.9-10.4-3.8-7.2-5.3-6.2-13-8.6-20.4-1.9-6-10.7-24.3-9.8-28.7.5-2.7 4.3-7.5 6-10.1 7-10.8 15.7-20.6 22.5-31.5 5.9-4.3 13.2-6 20.1-7.9 9.7-2.6 19.8-4.7 29.2-5.3h.2Zm15 128c-1.4-1.5-7.8 8.9-8.4 10.1-10.6 19.9-8.6 50.8-1.8 71.7 1.1 3.3 9.4 22.1 12.8 21.2 4.4-1.1 10.8-28.9 12.8-34.3 4.3-11.7 13.6-22.1 8.6-35.6-4.8-.6-12.2 1.2-15.9-2.9-1.4-1.5-8.5-21.7-8.8-24s.8-4 .8-6.2Zm240 103c.6-.4 6.8-10.5 7.5-12 6.3-12.1 9-33.7 9.5-47.5.6-14.9-4.3-31.4-14.6-42.5l-2.2 9.8c-4.9 13.6-4.6 25.2-23.1 22.4-5.2 13.7 4.3 23.9 8.6 35.6 3.1 8.4 6 27.5 11.8 33.2.7.7 1.4 1.8 2.4 1.1Zm-262.3-85.7c-1-.9-4.6-2-6.6-3.9-4.2-3.9-7.8-13.1-14-4.7-13.3 17.9-4.1 44.9 7 61.7 1.6 2.4 11.5 15.7 13.3 15.7.5-8 1.2-16.5.5-24.5-.4-5.4-3.1-12.3-3.1-18s6-23.3 2.8-26.2ZM1167 1547c1.7.4 2-.5 3-1.5 17.4-17.9 32.6-50.9 18.4-74.4-6.5-10.8-10.8-.4-16.9 4.9-2 1.7-5 1.6-5.5 4.5-.8 4.5 4 18.3 4 24s-3.3 14.8-3.6 21.2c-.3 6.3 1.6 14.6.6 21.3m-64.5-53c-1.4.3-3.3 6.6-3.8 8.2-3 10.7-2.9 45.1 1.1 55.5 4.8 12.4 18.2-4.3 20.4-11 3.9-11.7-6.4-31.5-11.4-42.1-1-2.2-3-11.4-6.3-10.7Zm-86.8 33.3c-3.2-2.8-9.7 3.2-15.8 1.3-2.1-.7-8.7-7.5-10.5-9.5-2.6-2.9-3.4-8.8-8.2-7.4-12.2 3.5-20.5 24.1-21.2 35.9-.9 13.6 2.4 21.7 11.5 31.5 9.8 10.4 24 15.7 36.1 23h2.3c2.1-6.4 6.2-12 8.1-18.4 3.7-12.2 7.9-47.3-2.3-56.2zm23.4 74.6c1.1.7 3.4 0 4.6-.6 21.8-13.1 47.5-23.3 45.2-53.7-.9-11.9-9.2-33-22-36.1-4.4-1.1-5.5 5-8 8-1.7 1.9-7.3 7.9-9.2 8.8-9.2 4-14.3-9-20 5-5.4 13.2-2.6 37.5 1.5 51.1.7 2.2 7.1 17.1 7.9 17.6ZM885 1559c-3.2-3.3-6.4 8.4-5.8 12.3.7 4.5 5.4 23.4 7 27 1 2.2 6.2 8.5 8.7 6.7 3.4-2.4 3.2-20.7 4-25.4-.5-3.1-8.3-6.1-11-10-2.3-3.5-2.6-10.1-3-10.5Zm269.1 45.9c2.7 1.5 7.8-5.3 8.8-7.5 1.7-3.8 6.1-21.6 6.9-26.2.8-5-.5-8.8-4.3-12.2l-5.1 10.9c-1.4 3.6-9.4 6.1-10.2 8.8-1.2 3.9.5 24.2 3.9 26.2M917 1563c-1.9-2.2-11.8 12.5-12.4 14.1-1.7 4.6-3 25.2-2.4 30.3.9 7.9 5.6 18 11.4 23.6 1.4-8.8 5-18.6 5.5-27.5.8-13.1-3.7-27.1-2-40.5Zm218 68c5.3-3.9 9.4-12.4 10.8-18.7 1.5-7 .8-27.4-1.2-34.3-.6-1.9-10.4-17.4-12.5-15 1.5 13.8-3.1 28-2 41.5.7 8.7 4.6 17.6 5.1 26.5zm-186-62c-2.4-2-8.2 6.4-9.4 8.1-7.7 11.1-15.4 39-8 50.8 2 3.2 16 15.2 19.5 16.5 5.6 2.2 6.5-1.9 7-6.9 2.4-23.1-3.5-46.4-9-68.5Zm151 0c-1.5 11-6.9 22.6-8 33.5-.9 9-2 26.3-1 35 .2 1.9 1.7 8 3.6 8.4 2.4.6 18.8-13.3 20.9-15.9 8.3-10.5 3.8-32.3-1-44-1.2-2.9-11-19.9-14.5-17m-82 44c-3.5 0-6.1 2.5-9.6 2.9-12.7 1.6-29.1-13.9-41.4-16.9v24.5c0 .6 3.2 8.2 4.1 8.9 6.5 5.2 18.9-.4 24.4 5.6 2.6 2.9 4.3 10.3 10.6 5.5 1.1-.8 11.9-13.1 11.9-14.1v-16.5Z" class="outline" data-original-prefix="outline"/><path id="outline-mouth2" fill="#000000" d="M1122 1332c-.2 0 .2 1.6 0 1.9-1 .8-8.1-5.8-10.2-7.1-10-6.1-19.8-8.3-31.2-9.8-2.9-.4-6.9.7-9.5-.5-1.5-.8-4.5-7.4-6.5-9.5-7.8-8.7-15.6-10.2-25.8-13-1.1-.3-.6-1.9-.7-2 3.1-3.8 16.2-9.3 20.8-9.8 7.9-.9 5.5 4.4 6.5 9.1 2.3 10.7 9.3 19.6 21.3 18.8 5.1-.3 5.6-4 7.9-4.1 1.4 0 6.6 2.9 8.2 3.8 9.4 5.2 15 12.5 19.3 22.2z" class="outline" data-original-prefix="outline"/><path id="outline-mouth1" fill="#000000" d="M1011 1292s.4 1.7-.7 2c-10.2 2.8-17.4 4.1-25.4 12.5-2 2.1-5.6 9.2-7.2 9.9-3.4 1.4-13.5 1-18.1 1.8-12.5 2.1-23.6 8.7-33.1 16.9.2-.9-.5-2.8-.5-3 .8-2.7 8.7-13.3 11-15.6 2.5-2.4 14.7-10.5 17.6-10.4 2.7 0 3 5.1 11.9 3.9 10-1.3 16.2-10.1 17.5-19.6.4-2.6-2.4-6.7 2.8-8.2 3.5-1 21.7 5.6 24.3 9.8Z" class="outline" data-original-prefix="outline"/>
    </g><g class="trait-group" data-category="eyes" id="eyes-wayfairer">
      <path id="fill-head4" fill="#ffffff" d="M1241.1 1390.9c-16.6.9-35.8.2-54.8-1.2-25.5-1.9-51.3-3-76.2-9.7-9.7-2.6-17.8-8-26-13.2-9.1-5.8-17.7-12.3-26.7-18.3-2.9-1.9-3.7-4.7-4.2-7.5-3.6-22.9-9-45.4-13.3-68.1-1-5-3.4-7.6-9-8.2-5-.5-9.9-.4-14.8.2-3.9.5-6.3 2.3-7.1 6.4-3.9 19.3-7.9 38.5-11.8 57.8-.8 4.1-1.2 8.2-2.1 12.2-.6 2.9-1.6 5.5-4.4 7.4-12.5 8.5-24.7 17.4-37.8 24.9-10.3 5.9-21.5 8.6-32.9 10.2-17.6 2.5-35.3 3.9-53 5.3-32.9 2.5-65.9 2.6-98.8 1.4-23.5-.8-46.8-5-69.9-9.2-7.5-1.3-14.9-2.9-22.4-4.2-2.1-.4-3.4-1-3.6-3.3-2-22.2-9-43.3-14.5-64.7-8.8-34.2-18.5-68.2-26-102.8-.2-1-.5-1.9-.5-2.9-.5-7.8-3.3-13.3-12.2-13.4-4 0-6.1-2.6-7.7-5.9-6.1-12.5-14-24-18.4-37.4-1.5-4.6.2-6.1 3.5-7.6 5.5-2.4 11.4-3.3 17.3-4.1 10.3-1.4 20.7-2.8 31-4.2 3.4-.4 4.9-2.2 5.7-5.7 5.8-27.8 14-54.7 27-80.1 7.5-14.5 16.7-27.9 26.7-40.7 2.8-3.6 6.4-6.2 11.6-5.4 3.9.6 6-1.3 8.3-4.6 5.8-8.2 12.3-16 18.8-23.7 6.9-8.2 14.3-15.7 22-23.1 24.1-23 50.4-43.2 79-60.3 19.3-11.5 39.5-21.2 60.4-28.9 13.9-5.1 28.8-7.4 43.3-10.4 34.1-7.1 68.7-6.6 103.2-5.8 22.5.5 44.8 3.8 66.7 9.2 4.7 1.1 9.4 1.9 14 3.2 21.8 6.1 42 15.8 61.8 26.5 18.3 9.9 35.5 21.5 52 34 18.6 14.1 36.2 29.3 51.9 46.4 10.1 10.9 20 22.1 28.2 34.6 2.1 3.1 5.4 2.8 8.1 2.6 6-.4 9.4 2.9 12.8 7.1 26.3 32.7 41.7 70.4 50.7 111 .2.8.5 1.6.7 2.4 2.6 13.9 1 10.2 15.1 12.7 12 2.2 24.3 2.8 36.1 6.2 1.4.4 2.8 1 4.1 1.7 2.6 1.4 3.6 2.9 2.4 6.4-4.8 14.6-13.2 27.5-20.3 40.9-1.9 3.6-6.3 3.5-9.7 3.8-4.7.5-6.6 3-7.4 7.2-5.4 28.8-13.4 56.9-20.7 85.2-6.7 25.9-14.5 51.5-19.7 77.8-.7 3.7-1.4 7.5-1.5 11.3 0 3.4-1.6 4.6-4.6 5.2-16.9 3.2-33.8 6.2-50.9 8.5-12.8 1.7-25.6 3.9-38.4 4.8-12.8.8-25.7 0-41.1 0Z" class="fill" data-original-prefix="fill"/><path id="fill-head3" fill="#ffffff" d="M1236.9 1160.8c28.5-1 56.9-1.5 85.4.2 18.3 1.1 36.4 3.8 54.4 6.9 3.3.6 2.7 2.2 2.6 4.6-3.4 53.6-16.5 105.2-31.8 156.4-3.7 12.4-3.9 12.1-16.8 13.2-27.4 2.4-54.6 5.7-82.1 7.2-34.5 1.9-68.9 1.8-103-4.4-10-1.8-19.8-4.2-29.7-6.6-19-4.5-26.9-18.5-31.9-35.9-8.3-28.9-10.6-58.8-15.8-88.2-1.7-9.5-3.2-19-5.3-28.4-.7-3.3 0-4.1 3-5 18.7-6.2 38.1-9.3 57.5-11.7 37.6-4.7 75.6-6.4 113.5-8.3" class="fill" data-original-prefix="fill"/><path id="fill-head2" fill="#ffffff" d="M811.3 1160.9c44.2 2.3 88.5 3.9 132.4 11.1 13.1 2.1 26.1 4.8 38.8 9 2.7.9 3.3 1.8 2.7 4.7-6 29.5-9.5 59.5-14.5 89.1-2.4 13.8-5.8 27.6-11.2 40.7-5.9 14-17.3 20.6-31.5 24.1-37.5 9.2-75.5 11.9-114 10.4-31-1.2-61.8-4.6-92.6-7.6-4.5-.4-9-.9-13.4-1.1-2.8 0-3.9-1.4-4.7-4-11.3-34.8-20-70.3-26.9-106.2-3.8-19.6-6.6-39.3-7.6-59.3-.2-3.1.9-3.5 3.4-4 23.8-4.4 47.7-7.2 71.9-7.7 22.3-.4 44.8-.5 67.2.8" class="fill" data-original-prefix="fill"/><path id="fill-head1" fill="#ffffff" d="M829.9 1133.2c35.9-.6 79.5.9 122.9 6 22.5 2.6 44.7 6.5 66.8 11.2 6.3 1.3 11.9-.7 17.7-1.8 36.1-7 72.5-11.7 109.3-13.8 52.5-3 104.9-1.3 157.3 1.9 37.4 2.3 74.7 5.2 111.8 10.2 6.2.8 12.5 1.3 18.5 3.6 2.9 1.1 3.6 2.5 2.2 5.2-3.7 7.2-7.2 14.5-10.9 21.8-1.4 2.7-3.5 4.2-6.9 3.7-2.7-.4-5.4-.2-7.8 1-1.8.9-3.4 2-3.6 4.3-3.1 26.8-10.7 52.7-17.5 78.8-8.6 33.2-17.8 66.2-26.6 99.3-.6 2.1-1.7 2.5-3.2 3.1-12.8 5.3-26.4 7.5-40 9.2-33.6 4.3-67.3 6.4-101.2 5.9-31.2-.5-62.2-2.3-93-7.8-11.7-2.1-21.7-8.1-31.8-13.7-7.4-4.1-14.8-8.3-22.2-12.4-5-2.7-7.7-7.3-9.5-12.4-7.5-20.8-13.3-42.1-18.2-63.6-2.9-12.5-2.7-12.6-15.8-13.5h-1.5c-18.2-1.2-19.6-.2-23.6 17.1-4.6 19.9-10.2 39.5-16.9 58.8-2.4 7.1-6.7 12.2-13.6 15.7-9.8 4.9-19.2 10.5-28.7 16.1-12.4 7.3-26.2 9.3-40.1 10.9-39.5 4.8-79 6.2-118.7 4.1-28.1-1.5-56-3.8-83.7-9.7-11.1-2.3-17.1-7.1-20.1-19.3-11.3-46.2-25-91.8-35.6-138.2-2-8.7-3.4-17.6-4.9-26.4-.8-5.1-3-7.8-8.6-7.2-6.7.7-9.7-2.4-12-7.8-2.5-5.7-5.3-11.4-8.3-16.9-2-3.7-.8-5.5 2.8-6.5 8-2.2 16.3-3.1 24.5-4.1 60.8-7.3 121.7-11.1 190.7-12.7Zm411.9 9.1c-68 1.2-106.2 5.4-157.7 14.6-11.3 2-22.6 3.9-33.4 7.8-4.7 1.7-7.2 4.8-6.7 9.8 1.1 9.7 2.1 19.5 3.7 29.1 3 17.5 6.7 34.9 9.5 52.4 4 24.8 7.3 49.6 17.9 72.8 1.2 2.6 2.7 4.8 4.8 6.8 17.3 16.1 38.6 22.4 61.2 25.2 27.2 3.4 54.7 3.8 82.1 3.8s55.6-.9 83.4-2.9c12.2-.9 24.5-1.8 36.5-4.8 6.1-1.5 10.5-4.6 12.1-11.1.6-2.4 1.9-4.6 2.7-6.9 14.4-41.4 23.8-84 31.7-127 2.7-14.3 4.2-28.9 4.4-43.5 0-2.8-.2-7-1.8-7.6-4.7-1.5-8.8-4.1-13.7-5.2-20.5-4.8-41.2-8.1-62.2-10.1-27.1-2.4-54.2-3.1-74.5-3.2m-428.8.2c-36.8-.4-73.5 1-109.9 6.8-15.4 2.4-31.2 3.9-45.5 11.4-1.4.8-2.3.5-2.8 2.6-1.4 6.4-.4 12.7 0 19.2 1.2 18.5 4.5 36.5 8.3 54.6 7.7 36.4 16.1 72.6 28.9 107.7 2.5 6.8 6.4 11 13.8 12.6 16.5 3.6 33.3 4.6 50 5.5 37 2 74.1 2.8 111.2 1.2 3.3 0 6.6-.7 10-.8 18.3-.3 36.4-2.4 54.2-7.2 14.7-4 27.1-11.6 38.3-21.6.7-.7 1.5-1.4 1.8-2.3 3-8.1 7.4-15.7 9.5-24.1 6-24.6 9.4-49.7 14.2-74.6 3.7-18.8 6.4-37.8 8.9-56.8.8-6-1-9.5-6.6-11.8-1.8-.8-3.7-1.4-5.7-1.9-21-5.2-42.3-8.9-63.7-11.9-38-5.4-76.3-8.4-114.9-8.6" class="fill" data-original-prefix="fill"/><path id="shading-head9" fill="#aaaaaa" d="M727 1159h16.4c-9-4.1-18.4-5.7-28.3-9.7 31.2-3.5 61.4-5.2 91.7-5.3 2.5 0 4.4.8 6.3 2.3 6.2 4.9 12.6 9.7 19 14.6-5.1-.2-10.4 1-15.6-.7-2.6-.8-4.2.2-5.5 2.7-29.1 60.2-64.6 117-95 176.6-.6 1.2.4 4.8-3.7 3.7-4.2-1.1-9.6 1.2-11.4-5.1-6.6-22.7-13.4-45.4-18.6-68.4-4-17.6-7.8-35.2-10.5-53.1-2.2-14.8-4.3-29.5-5-44.4-.2-4.3 1-5.9 5.6-6.4 10.2-1.1 20.3-3.2 30.4-4.7z" class="outline shading" data-original-prefix="shading" opacity="0.5" style="opacity: 0.5"/><path id="shading-head8" fill="#aaaaaa" d="M972.8 1140.1c-8.9-1.1-16.9-2.2-24.9-3.3-.7 0-1.5-.8-2-1.4-12.3-15.3-28.6-25.7-43.8-37.6-34.7-27.1-73.9-45.7-115.2-60.3-18.4-6.5-36-15.1-55-20.4-8.1-2.3-8.6-5-3.5-12.1C777 936.5 842 890.1 920.9 862.4c6.8-2.4 13.9-4 21.4-4.9-5.6 4-10.7 9.1-16.9 11.9-35.8 16.3-61.5 43.8-84 74.8-9.8 13.5-18.1 27.8-25.6 42.7-5.2 10.3-3.3 19.8 1.5 28.9 4.4 8.4 10.3 15.9 16.4 23.2 4.9 5.8 10.7 10.2 17.6 13.6 31.8 15.6 63 32.4 93.3 50.9 8.8 5.4 16 11.6 20.1 21.3 1.8 5.2 5 9.8 8.1 15.3" class="outline shading" data-original-prefix="shading" opacity="0.5" style="opacity: 0.5"/><path id="shading-head7" fill="#aaaaaa" d="M1075.1 1140.2c5.2-9.4 9.7-17.9 14.6-26.2 1.8-3.1 5.2-4.6 8.2-6.4 30.8-19.8 63.1-37.2 96-53.2 10.1-4.9 18.4-11.3 24.7-20.3 6.2-8.9 14.1-17 16-28.4 1.1-6.2.9-11.9-2.1-17.9-18.6-37.7-43.4-70.5-75.7-97.5-8.8-7.4-19-12.9-29.3-18-7.8-3.9-14.2-9.7-22.1-14.6 3.2-1.4 5.4.2 7.5.7 38.3 9.8 72.8 27.9 105.8 49.2 25 16.2 47.4 35.5 68.1 56.7 12.8 13.2 23.8 27.9 34.3 42.9 3.1 4.4 2.5 7.2-2.8 9.1-7.8 2.9-16 4.5-23.6 7.7-42.5 17.6-86.8 31.2-125.4 57.1-20.5 13.7-39.9 28.8-58.7 44.8-1.3 1.1-2.8 2.1-3.6 3.5-3.8 7.1-10.2 8.6-17.5 8.8-4.5 0-8.9 1.2-14.4 2" class="outline shading" data-original-prefix="shading" opacity="0.5" style="opacity: 0.5"/><path id="shading-head6" fill="#aaaaaa" d="M962.9 1159.2c7.7 0 15 2.6 22.5 3.9 1.6.3 2.2 1.8 3.1 3.1 3.8 5.6 6.2 12.2 11.8 16.6 1.3 1 .7 2.5.5 3.8-1.3 13.8-3.1 27.5-5.9 41-2.2 10.6-5.1 21-5.9 31.8-.2 2.6-2.1 3.8-4 4.8-11.4 5.9-13 17.2-15.1 28.1-1.1 6-3.1 11.5-5.6 17-2.5 5.6-4.8 11.3-6.2 17.3-.5 2.2-1.8 4.4-3.7 4.1-4-.7-6 2-8.6 3.8-11.3 7.9-24.3 11.1-38.4 15.2 4.2-7.9 7.7-14.7 11.4-21.5 20.8-38.4 41-77.2 61-116.1 4.4-8.7 3.8-18.5 6.3-27.6.4-1.4-.4-2.1-1.7-2.6-4.5-1.5-9-3-13.5-4.6-3.1-1.1-4.6 0-6.3 2.8-27.3 41.2-52.4 83.8-76.5 127-8 14.2-16.1 28.3-23.3 42.9-1.5 2.9-5.1 1.9-7.3 2-11 .6-22 .5-33 .2-4.7 0-2.1-3.1-1.1-4.8 6.2-11.2 12.6-22.3 18.9-33.4 26.7-46.8 53.4-93.6 79.2-140.9 4.2-7.8 5.7-8.4 14.6-7 11.5 1.8 22.9 3.5 35 5.3-3-4.7-5.6-8.5-8.2-12.2" class="outline shading" data-original-prefix="shading" opacity="0.5" style="opacity: 0.5"/><path id="shading-head5" fill="#aaaaaa" d="M1260.4 1349.9c10.7-23.1 21.3-46 31.9-68.9 17.3-37.8 34.7-75.5 50.3-114 1.3-3.1 2.4-5.7-2.6-6.3 8.9 1.2 17.8 2.4 26.6 3.7 2.7.4 5.4 1.6 8.1 1.5 5.1-.2 6.5 1.9 6.2 6.7-.7 12.3-2.3 24.4-3.9 36.6-2.1 16.8-5.7 33.4-9.3 49.9-5.2 24.2-11.6 48.2-19 71.9-4 12.7-4.2 12.4-17.6 13-12.9.6-25.8 2.6-38.7 3.7-10.4 1-21 2.7-32 2.2" class="outline shading" data-original-prefix="shading" opacity="0.5" style="opacity: 0.5"/><path id="shading-head4" fill="#aaaaaa" d="M1085.8 1158.3c-4.1 5.8-7.5 10.4-11.4 16 9.6-1.3 17.9-2.4 26.3-3.6l54-7.8 18.3-2.7c1.9-.3 3.7-.4 5 1.3 1.6 2-.5 3.1-1.1 4.3-28.2 51.7-56 103.5-83.5 155.5-.8 1.6-1.3 3.4-2.9 4.5-6-14.6-12-29.1-14.8-44.6-1.4-7.5-5.2-13.1-11.8-16.8-3.4-1.8-4.4-4.6-4.8-8.5-1-11.1-4-21.9-6.1-32.8-2.2-12.1-4.1-24.3-5.5-36.5-.2-2.1 0-3.5 1.8-5.2 4.4-4.1 7-9.7 10-14.8 1.4-2.3 3.1-3.7 5.8-4.2 6.3-1.1 12.8-2.4 20.7-4.1" class="outline shading" data-original-prefix="shading" opacity="0.5" style="opacity: 0.5"/><path id="shading-head3" fill="#aaaaaa" d="M1183.8 1350.9c34.2-62.8 66.7-126.4 96.6-192.2-22.4 2.6-44.1-.2-65.7 2.6 7-4.3 13-9.6 19.3-14.5 2.5-2 5-2.8 8.2-2.8 29.8.2 59.6 1.8 90.6 5.3-9.9 4-19.4 5.6-28.3 9.1 7.8 1.3 15.9-.5 25 2.5-3.7-.3-4.6 1.3-5.6 3.1-34.5 60.8-66.2 123-98 185.2-1.1 2.1-1.8 2.9-4.2 2.9h-29.5c-2.9 0-5.6-1.8-8.4-1.2" class="outline shading" data-original-prefix="shading" opacity="0.5" style="opacity: 0.5"/><path id="shading-head2" fill="#aaaaaa" d="M793.5 1132.4c-9.1.5-18.2 1-27.3 1.4-20.6.9-41.2 2.2-61.8 4.1-2.6.2-4.8-.2-7.1-1.5-8.4-4.5-16.9-8.8-25.6-13.2 8.9-5.1 11.1-14.6 14.6-22.8 3.5-8.1 8.1-10.3 16.7-10.7 14.6-.7 27.1 2.5 39.3 10.6 15.1 10 31 18.7 46.6 28.1 1.7 1 3.3 2.1 4.9 3.2 0 .2-.2.5-.3.8" class="outline shading" data-original-prefix="shading" opacity="0.5" style="opacity: 0.5"/><path id="shading-head1" fill="#aaaaaa" d="M1377.4 1122.9c-10.7 4.4-19.2 9.4-27.9 14-1.7.9-3.4 1.1-5.2 1-28.7-2.5-57.4-4.1-86.2-5.2-1.3 0-2.6-.3-3.9-.5.4-1.8 1.8-2.1 2.9-2.8 21-12.5 42.1-25 63.1-37.5 2.7-1.6 5.4-2.3 8.5-2.2 7.7.2 15.3.4 23 .2 3.6 0 5.4 1.2 6.8 4.4 2.6 5.8 5.5 11.4 8.3 17 2.2 4.5 3.6 9.7 10.6 11.6" class="outline shading" data-original-prefix="shading" opacity="0.5" style="opacity: 0.5"/><path id="outline-head3" fill="#000000" d="M1259.6 1396c-42.6-.3-73.6-1.4-104.4-4.3-16.6-1.6-33.5-2.4-49.6-7.7-8-2.6-15.2-6.8-22.1-11.4-10.2-6.6-20-13.8-30.1-20.5-3.8-2.5-4.3-6.3-4.9-9.9-3.6-21.7-8.5-43-12.7-64.6-1.4-7.3-6.4-10.5-13.8-9q-8.4 1.7-10 10.2c-4.2 21.4-8.5 42.7-12.5 64.1-.9 4.9-3.2 8.3-7.4 11.1-11.4 7.8-22.6 15.9-34.5 22.9-12.7 7.5-26.6 10.5-41.2 12.2-24.8 2.9-49.6 4.6-74.5 5.8-20.5.9-41 1-61.4.8-21.2-.2-42-3.1-62.9-6.3-14-2.1-27.8-5-41.7-7.1-5.4-.8-7.7-2.5-8.3-8.4-2.3-20.5-8.7-40.2-13.9-60.2-9.6-36.8-20.2-73.4-27.7-110.8-1-4.9-2.5-7.7-7.8-7.9-5.9-.2-9.4-3.5-12.1-8.8-6.8-13.2-13.6-26.3-19.3-40-2.2-5.3 1.7-9.6 7.8-12.2 6.8-2.9 14.2-3 21.4-4 8.7-1.1 17.4-2.5 26.2-3.7 2.5-.3 3.5-1.4 4.1-4 7-35.6 18.6-69.4 38.6-100 6.2-9.5 12-19.6 21.3-26.8 2.4-1.8 4.6-3.2 7.6-1.3 1.8 1.1 3.2.8 4.5-1.3 6.3-10 14.3-18.8 22.2-27.6 30.6-34.3 66.1-62.7 105.8-85.7 19.5-11.3 39.6-21.6 61.3-27.5 23.4-6.3 47.2-11.3 71.5-13.2 15.1-1.2 30.1-2 45.3-1.3 9.6.4 19.2-.2 28.9.2 24.4 1 48.2 5.2 71.9 10.5 39.8 8.7 74.3 28.5 107.4 51.1 23 15.7 44.2 33.7 63.6 53.7 12.2 12.7 24 25.8 33.8 40.6.9 1.4 2.1 2 3.3 1.3 7.8-4.5 12.3 1.7 15.8 6.1 22.8 28.4 38.5 60.6 47.9 95.8 2.3 8.7 4.9 17.3 6.1 26.2.4 2.6 2.1 3.2 4.1 3.5 11.2 1.5 22.4 2.7 33.6 4.4 6.8 1 13.7 2 19.1 7.3 2.5 2.4 2.6 4.7 1.5 7.6-5.8 15.1-13.5 29.3-21.1 43.5-2.2 4-5.7 5.1-9.5 5.4-5.8.4-7.8 3.3-8.8 8.8-4.8 25.7-11.9 50.8-18.5 76.1-7 26.9-14.8 53.5-20.8 80.6-1.2 5.3-2.2 10.8-2.5 16.2-.2 3.4-1.7 4.6-4.7 5.2-16.5 3-33 5.8-49.6 8.4-25.8 4-51.7 6.3-66.3 5.9M848 1061.5c8.3.8 14.9 5 21.3 9.3 23.8 16.1 50 27.8 75.2 41.3 3.2 1.7 6.4 3.2 8.2 6.2 2.6 4.5 6.7 4.8 11 5.3 14 1.6 28.1 3.4 42.1 4.8 7.4.8 14.8 3.1 22.3 1.9 19.4-2.9 38.9-4.9 58.4-7 4.1-.4 7.6-1.3 10-5.3 1.1-1.9 2.8-3.7 5.1-4.7 18.5-8.2 35.4-19.1 53.7-27.7 12.7-6 23.5-15.2 35.9-21.6 3-1.5 6-3.1 9.8-2.4-25.9 19-53.2 36.1-78 58.3 3.4-.2 5.6-.3 7.7-.5 30.2-2.5 60.5-3.7 90.9-4 41.7-.4 83.3.7 124.8 5.1 7.9.8 15.9 1.7 23.8 2.3 2.8.2 6 .2 6-4 0-6.5-.6-12.9-3.2-19.1-10.1-24-22-47-35.9-69.1-2.1-3.3-4.4-4.3-8-4.6-12.4-.8-24.6 1.5-36.8 2.4-6.8.5-13.4 2.1-20.1 3.8-1.5.4-3.3 2.6-4.3.8-1.1-2 1.6-2.9 2.9-4 10.2-8.5 21.6-15.1 33.3-21 2.9-1.5 3.2-2.9 2.3-5.6-3.3-10.3-8.7-19.3-15.9-27.3-17.7-19.7-38.3-35.8-60.1-50.9-35.4-24.6-74.2-42.3-114-57.9-24.6-9.6-50.8-12.4-76.9-13.4-40.9-1.5-80.9 2.3-119.4 18.3-30.3 12.6-60.2 25.6-87.9 43.4-27.5 17.6-53.8 36.4-75.5 61-6.5 7.3-11.3 15.6-14.8 24.7-1.3 3.5-1.4 5.7 2.8 7.7 12.3 5.9 24 13.1 34.6 21.8 1 .8 2.5 1.7 1.8 3.2-.5 1-1.7.4-2.7 0-19.8-6.1-40.2-7.1-60.7-6.9-2.7 0-4.1 1.4-5.5 3.6-11.2 17.8-21.6 36-30 55.3-4.5 10.3-10.3 20.2-9.7 32.2.2 4.2 1.5 5.8 5.5 5.5 1.3 0 2.7 0 4-.2 20.8-2.7 41.7-4.5 62.7-5.6 57-2.9 113.9-2.1 170.8 2.3 3 .2 6.1.4 10.4.7-24.8-22.2-52.1-39.3-77.9-58.5Zm-18.1 71.7c-69 1.7-129.9 5.5-190.7 12.8-8.2 1-16.5 1.9-24.5 4.1-3.6 1-4.8 2.8-2.8 6.5 3 5.5 5.8 11.2 8.3 16.9 2.4 5.3 5.4 8.5 12 7.8 5.6-.6 7.8 2.1 8.6 7.2 1.5 8.8 2.9 17.7 4.9 26.4 10.6 46.4 24.3 92 35.6 138.2 3 12.2 9 16.9 20.1 19.3 27.6 5.8 55.6 8.2 83.7 9.7 39.7 2.1 79.3.7 118.7-4.1 13.9-1.7 27.7-3.6 40.1-10.9 9.5-5.6 18.9-11.2 28.7-16.1 7-3.4 11.2-8.6 13.6-15.7 6.7-19.3 12.3-38.9 16.9-58.8 4-17.3 5.3-18.3 23.6-17.1h1.5c13.1.9 13 1 15.8 13.5 4.9 21.5 10.8 42.8 18.2 63.6 1.8 5 4.5 9.6 9.5 12.4 7.4 4.1 14.8 8.2 22.2 12.4 10.1 5.7 20.1 11.6 31.8 13.7 30.8 5.5 61.8 7.2 93 7.8 33.9.6 67.6-1.5 101.2-5.9 13.6-1.8 27.2-3.9 40-9.2 1.5-.6 2.6-1 3.2-3.1 8.8-33.1 18-66.1 26.6-99.3 6.7-26 14.3-51.9 17.5-78.8.3-2.3 1.9-3.4 3.6-4.3 2.4-1.2 5.2-1.4 7.8-1 3.3.5 5.5-.9 6.9-3.7 3.7-7.2 7.2-14.5 10.9-21.8 1.4-2.7.7-4.2-2.2-5.2-6-2.2-12.3-2.7-18.5-3.6-37.1-5-74.5-7.9-111.8-10.2-52.4-3.2-104.8-4.9-157.3-1.9-36.8 2.1-73.2 6.7-109.3 13.8-5.8 1.1-11.3 3.2-17.7 1.8-22.1-4.7-44.4-8.6-66.8-11.2-43.4-5.2-87-6.7-122.9-6.1Z" class="outline" data-original-prefix="outline"/><path id="outline-head2" fill="#000000" d="M1241.7 1142.4c20.4 0 47.5.8 74.5 3.4 21 2 41.7 5.3 62.2 10.1 4.8 1.1 9 3.7 13.7 5.2 1.6.5 1.8 4.8 1.8 7.6-.2 14.6-1.7 29.2-4.4 43.5-7.9 43-17.3 85.6-31.7 127-.8 2.3-2.1 4.5-2.7 6.9-1.6 6.4-6 9.6-12.1 11.1-12 2.9-24.3 3.9-36.5 4.8-27.8 2-55.6 2.9-83.4 2.9s-54.9-.4-82.1-3.8c-22.6-2.8-43.9-9.2-61.2-25.2-2.1-2-3.6-4.2-4.8-6.8-10.6-23.1-13.9-48-17.9-72.8-2.8-17.5-6.6-34.9-9.5-52.4-1.6-9.6-2.6-19.4-3.7-29.1-.6-5 2-8.1 6.7-9.8 10.8-3.9 22.2-5.8 33.4-7.8 51.6-9.5 89.8-13.7 157.7-14.8m-4.8 18.4c-37.9 1.9-75.9 3.6-113.6 8.4-19.4 2.5-38.8 5.6-57.5 11.7-2.9.9-3.7 1.7-3 5 2.1 9.4 3.6 18.9 5.3 28.4 5.2 29.4 7.5 59.3 15.8 88.2 5 17.4 12.9 31.4 31.9 35.9 9.9 2.3 19.7 4.8 29.7 6.6 34.1 6.1 68.5 6.2 103 4.4 27.4-1.5 54.7-4.8 82.1-7.2 13-1.2 13.1-.9 16.8-13.2 15.4-51.2 28.4-102.8 31.8-156.4.2-2.3.7-4-2.6-4.6-18.1-3.1-36.1-5.7-54.4-6.9-28.4-1.8-56.9-1.3-85.3-.3" class="outline" data-original-prefix="outline"/><path id="outline-head1" fill="#000000" d="M813 1142.5c38.5.2 76.9 3.2 115 8.5 21.4 3 42.7 6.6 63.7 11.9 1.9.5 3.8 1.1 5.7 1.9 5.7 2.3 7.4 5.8 6.6 11.8-2.5 19-5.2 38-8.9 56.8-4.9 24.8-8.2 50-14.2 74.6-2.1 8.4-6.5 16-9.5 24.1-.3.9-1.1 1.7-1.8 2.3-11.2 10-23.6 17.6-38.3 21.6-17.8 4.8-35.9 6.9-54.2 7.2-3.3 0-6.6.7-10 .8-37.1 1.6-74.2.8-111.2-1.2-16.7-.9-33.5-1.9-50-5.5-7.3-1.6-11.3-5.8-13.8-12.6-12.8-35.1-21.2-71.3-28.9-107.7-3.8-18-7.1-36.1-8.3-54.6-.4-6.4-1.4-12.7 0-19.2.4-2.1 1.3-1.8 2.8-2.6 14.3-7.5 30.1-8.9 45.5-11.4 36.3-5.7 73-7.1 109.8-6.7m-1.7 18.4c-22.5-1.3-45-1.2-67.5-.7-24.2.5-48.1 3.3-71.9 7.7-2.5.5-3.6.8-3.4 4 1 20 3.9 39.7 7.6 59.3 6.9 35.9 15.7 71.4 26.9 106.2.8 2.5 1.9 3.9 4.7 4 4.5.2 9 .6 13.4 1.1 30.8 3.1 61.6 6.4 92.6 7.6 38.4 1.5 76.5-1.2 114-10.4 14.3-3.5 25.7-10.1 31.5-24.1 5.5-13.1 8.9-26.9 11.2-40.7 5.1-29.7 8.5-59.6 14.5-89.1.6-3 0-3.9-2.7-4.7-12.7-4.2-25.7-6.9-38.8-9-43.5-7.3-87.8-8.9-132.1-11.2" class="outline" data-original-prefix="outline"/>
    </g><g class="trait-group" data-category="right ear" id="right ear-robo">
      <path id="fill-ear-rt1" fill="#ffffff" d="M1309.7 967.7c-21.5 15-73.7 1.5-73.8-28.2 0-17.4 19.3-64.4 26.3-82.8 15.6-40.9 37.9-99.1 62.5-134.5 12.2-17.5 47.1-40.3 66.9-49.1 25.2-11.2 58.3-12.1 85.4-10.1 0-1.7 0-3.4.4-5 29.2-103.4 66.2-199.3 108.1-297.9 10.4-24.5 17.8-43.7 36.4-63.6 26.6-28.2 58.4-54.6 87-81 5.1-4.7 9.5-10.2 15-14.5.4 36.3-3.9 72.5-9.2 108.3-21.8 147.8-72 298.3-146.9 427.1-112.2 41.1-191.9 136.1-258.2 231.3Z" class="fill" data-original-prefix="fill"/><path id="fill-ear-rt2" fill="#ffffff" d="M1288 747c-16.2 44.6-44.8 91.8-64.2 136.3-5.3 12.3-10.4 24.7-14.6 37.4-.2 2.1 4.6 10 6 12.5 5.6 9.8 12.7 20.5 19.8 29.2-8.1-3.9-16.8-7.8-24.3-12.7-3.9-2.5-12.8-9.1-15.7-12.3-4.7-5.3-17.9-31.7-21.5-39.5-1.1-2.4-2.8-5.2-3.3-7.8-.9-5.4 6.1-15.3 8.6-20.9 14.3-31.3 25.7-60.8 38.7-92.3 5.4-13.2 13.6-26 18.2-39.8 13.7-40.3 17-104.6 9.9-146.5-.9-5.6-4.2-13.5-4.3-18.5-.3-13.9 31.4-60.6 40.8-73.7 29.1-40.7 69.4-86.1 106.8-119.2 1.9-1.7 8.4-7.6 10.3-7.4q37.2 20.1 72 44.1c15.8 10.9 34.5 23.7 49.2 35.8 2.7 2.2 8.4 5.7 7.1 9-13 32.3-26.4 64.4-39.4 96.7-7.8 19.4-14.3 40.2-22.8 59.2-2.4 5.4-7.8 17.6-11.5 21.5-11 11.9-42.4 5.7-57.5 7.5-7 .8-39.4 25.6-47.8 31.2-9.3 6.3-20.9 11.6-29.2 18.8-11.1 9.6-18.8 27.5-25.3 40.7-1.2 2.5-2.7 8-4.1 9.7-.9 1.2-1.8.4-2.1.6 2.9-8 9.1-24-3.2-27.3-24.9-6.6-31.1 31.7-10.3 32.4 5.1.2 9.3-2.7 13.5-5Zm108.8-362.8c-16.1 1.3-18.6 20.6-6.3 29.8 13.7 10.2 34.5 3.9 28.7-15.7-2.3-8-14.4-14.7-22.4-14.1m-166.5 417.1c-.6.5-5.3 6-5.8 6.7-8.6 13.3 1.2 29.8 17.4 23.4 5.4-2.1 8.7-8.2 10.5-13.5 5.3-15.4-9.2-27.6-22.1-16.6m-32.6 72.9c-19.7 4.1-21.7 39.6 2.6 34.5 17.2-3.6 22.9-39.9-2.6-34.5" class="fill" data-original-prefix="fill"/><path id="fill-ear-rt3" fill="#ffffff" d="M1721 186c-31.9 28.2-64.8 55.6-96 84.5-20.5 18.9-33 29.2-44.4 55.5-16.7 38.2-28.6 79.6-45.5 118-1.5.4-1.7-.4-2.5-1-5.7-3.9-11.9-10-17.6-14.4-32.2-24.7-65.5-48.1-99.8-69.7l.8-3.5c16.1-12.9 31.8-26.3 48.2-38.8 39-29.7 81.9-61 126.2-81.8 42-19.7 86.2-35.6 130.7-48.8Zm-200.2 209.2c-4.4.3-8.9 3.1-11 7.1-8.3 15.9 17.4 32.4 26.2 21.2 9.4-11.9-.4-29.5-15.2-28.3" class="fill" data-original-prefix="fill"/><path id="fill-ear-rt-rivet5" fill="#ffffff" d="M1205.8 881.2c.3.4 1.9 6.6 1.9 7.4.3 11.2-17.1 14.3-14.6-1.1.8-5.2 9.9-9.8 12.7-6.3" class="fill" data-original-prefix="fill"/><path id="fill-ear-rt-rivet4" fill="#ffffff" d="M1235.7 805.2c13.9-2.8 12.2 15.8 1.7 16.8s-11.4-14.8-1.7-16.8" class="fill" data-original-prefix="fill"/><path id="fill-ear-rt-rivet3" fill="#ffffff" d="M1271.3 740.7c-6.9-5.6 4.4-18.6 11.3-13.8 7.7 5.4-4 19.7-11.3 13.8" class="fill" data-original-prefix="fill"/><path id="fill-ear-rt-rivet2" fill="#ffffff" d="M1398.7 396.2c10.5-3.1 16.5 14.9 2 11.6-6.3-1.5-8-9.8-2-11.6" class="fill" data-original-prefix="fill"/><path id="fill-ear-rt-rivet1" fill="#ffffff" d="M1529.7 415.7c-3.4 3.6-10.4 2.4-10.8-3.2-.8-12.8 17.9-4.2 10.8 3.2" class="fill" data-original-prefix="fill"/><path id="shading-ear-rt" fill="#aaaaaa" d="M1723.2 198.8c1.1.7 3.4 0 3.8.2 1 .9.2 23.2 0 26.5-3 78.4-22 167.1-43.5 242.5-27 94.6-62.5 187.2-112.8 271.8-109 38.4-182.4 127.3-248.3 217.2-6.9 9.3-10.1 16.1-22.2 18.8-16.7 3.7-51.9-3.1-68.2-9.2-8.7-3.3-32.8-19-39.1-26-4.2-4.7-24-40.7-25.5-46.5-.8-3.1-.6-6.3-.4-9.5 9.9-22.1 21.6-43.6 31.1-65.9 6.5-15.3 11.1-31.6 17.3-46.7 4.8-11.7 11.9-22.6 16.2-34.8 14.8-41.1 17.6-100.5 11.1-143.6-1.5-9.8-5.1-16.5-3.9-27.1.9-7.5 7.1-14.2 9-21.5l15 73c62-48.6 120.2-102.4 181.5-152 15.7-12.7 31.6-26.8 49.5-36l-1.5-3c-21.9-15.4-42.7-32.5-65.8-46.2-2.5-1.5-31.8-16.3-30.7-17.8 5.9-1.9 11.6-5.4 16.5-9 3.4-2.5 4.6-7.1 9.8-5.8 3.4.9 18.9 12.1 23.1 15 23.8 16.3 47.4 33.3 70.8 50.3 11.8.5 13.6-2.1 13.4-13.5 12.9-26.7 23-54.7 35.3-81.6 2.3-4.9 5.3-13.5 8.6-17.4 5.9-6.9 18.3-17 25.5-23.5 21.2-19 65.9-59.4 89.8-71.2 4-2 26.6-10.7 30-11.1 3.9-.4 3.4 3 4.5 3.6ZM1703 288c-.6-.8-7.1 4.7-8 5.5-23.5 20-52.6 47-73 70-15.3 17.2-21 36-28 57.5l101.1-74.4c3.3-19.4 6.6-39 7.9-58.5Zm-16 102c-.7-.8-10 6.2-11.3 7.2-33.3 23.5-66 47.9-98.2 72.8-6.6 18.3-12.6 37-16.4 56.1l113.7-77.3 12.3-58.7Zm-207.3 146.7c6.9-24.1 15-48 19.8-72.7l-233.4 175.2c2.2 17.2 3.6 34.5 1.9 51.8zM1634 535c-.7-.8-6.4 4.2-7.5 5-29.9 23.4-62.7 50.7-90.1 76.9-8.9 8.5-20.1 19.2-26 30-3.6 6.6-7.4 20-11.9 25.1-6.7 7.4-25.1 18.6-34 26-19.2 15.8-31.9 28.3-46.3 48.7-16 22.5-29.9 46.6-42.2 71.3l64.3-38.2 115.7-66.3c27.3-58.9 55.3-117.6 78-178.5m-357.3 190.2c-8.5 1.8-10.6 17-2.2 16.8 3.8 0 1.1-3.9 1.8-5 1-1.5 8.5-2.7 8.6-6.4 0-4-4.6-6.1-8.2-5.4m-12.8 16.9c-1.9-1.6-7.4 3-8.8 4.6l-18.8 51.1c-5.9 3.1-15 19.2-5.3 21.9 5.5 1.5 7.5-5.5 10.7-6.4 2.1-.6 4.5.2 6.6-.4 1.6-.5 2.3-2.8 4.2-2.8 3.3 0 6.4 8.5 8.5 7 5.3-16.9 14.6-32.2 20-49-15.5 3.6-14.1-23.4-17.1-26M1224 833c-1.7-1.8-1.7.7-2.1 1.4-3.7 7.3-13.8 39.5-18.6 42.4-3.4 2-12 2.6-11.3 9.7s10.4 3.4 13.5 3.6c2 .1 3.5 2 6 2 1.3 0 4.1-1.4 4.5-1.1 3.2 2.5 3.5 31.1 15.2 9.7l18.8-55.2c-2.7-.5-4.3 1.4-7.5 1.6-6.4.3-11.7-2.7-15.5-7.6-1.7-2.2-2.8-6.2-3-6.5" class="outline shading" data-original-prefix="shading" opacity="0.5" style="opacity: 0.5"/><path id="shading-ear-rt2" fill="#aaaaaa" d="M1384 405c2.6-.1 3.5 2.8 5.9 3.5 6.6 2.1 5.5-1.4 7.8-2.5 1.8-.9 7.7-3 9.9-3.8 1.5-.5 3.9.2 5.3-.7 2-1.3.8-9.2 6-4.1 10.2 10-1 33.1-14.4 32.5-10.8-.5-23.4-13.6-20.6-24.9Z" class="outline shading" data-original-prefix="shading" opacity="0.5" style="opacity: 0.5"/><path id="outline-ear-rt" fill="#000000" d="M1734.9 163.1c.9 5.1 2.3 10.3 3 15.5 6 47.5-.5 106.2-7 153.7-17.7 128.1-67.1 281.2-131.7 393.3-2.7 4.6-14.6 24-17.8 26.2-3 2.1-16.3 5.5-21.3 7.7-29.5 12.8-63.7 37.8-88.5 58.5-54.2 45.1-104.1 102.3-138.2 163.9-13 3.4-25.7 8.6-38.7 11.1-16.8-6.7-37.5-5.5-54.2-10.9-6.7-2.2-43.9-21.9-49.8-26.2-16.8-12.5-29.2-53.7-41.2-71.8-1.4-4.6.6-29.6 1.6-35.5 1.6-9.2 25.9-43.5 32.1-54.9 31-57 45.2-134.6 38.8-199.2-.6-6.2-6.4-29.9-5.8-32.8 1-5 11.8-23.5 15-29 22.3-39 50.6-76.1 80.3-109.7 100.4-113.9 223.3-215 374.1-251.9 6.5-1.6 46.4-10.5 49.3-8M1721 186c-44.5 13.2-88.6 29.1-130.7 48.8-44.4 20.8-87.2 52.1-126.2 81.8-16.4 12.5-32.1 25.9-48.2 38.8l-.8 3.5c34.3 21.6 67.6 45 99.8 69.7 5.7 4.4 11.9 10.5 17.6 14.4.8.6.9 1.4 2.5 1 16.9-38.3 28.9-79.7 45.5-118 11.5-26.4 24-36.6 44.4-55.5 31.3-28.9 64.1-56.3 96-84.5Zm-411.3 781.7c66.3-95.2 146-190.2 258.2-231.3 74.9-128.8 125.1-279.4 146.9-427.1 5.3-35.8 9.6-72.1 9.2-108.3-5.5 4.3-9.9 9.8-15 14.5-28.6 26.4-60.4 52.7-87 81-18.7 19.8-26 39.1-36.4 63.6-41.9 98.6-78.9 194.5-108.1 297.9-.5 1.7-.5 3.3-.4 5-27.1-2-60.2-1.1-85.4 10.1-19.7 8.8-54.7 31.7-66.9 49.1-24.6 35.4-46.9 93.6-62.5 134.5-7 18.3-26.4 65.3-26.3 82.8.1 29.7 52.3 43.2 73.8 28.2ZM1288 747c-4.2 2.4-8.4 5.2-13.5 5-20.8-.7-14.6-39 10.3-32.4 12.3 3.3 6.1 19.3 3.2 27.3.3-.2 1.2.5 2.1-.6 1.4-1.8 2.8-7.3 4.1-9.7 6.5-13.2 14.2-31.1 25.3-40.7 8.3-7.2 20-12.5 29.2-18.8 8.4-5.7 40.7-30.4 47.8-31.2 15.1-1.8 46.5 4.4 57.5-7.5 3.6-3.9 9.1-16.2 11.5-21.5 8.5-19 15-39.8 22.8-59.2 13-32.3 26.4-64.4 39.4-96.7 1.2-3.3-4.5-6.8-7.1-9-14.7-12.2-33.3-25-49.2-35.8q-34.8-24-72-44.1c-1.9-.3-8.3 5.6-10.3 7.4-37.4 33.1-77.7 78.5-106.8 119.2-9.4 13.1-41.1 59.8-40.8 73.7 0 4.9 3.4 12.8 4.3 18.5 7 41.8 3.8 106.1-9.9 146.5-4.7 13.8-12.8 26.5-18.2 39.8-13 31.6-24.4 61-38.7 92.3-2.5 5.6-9.5 15.5-8.6 20.9.4 2.5 2.2 5.4 3.3 7.8 3.6 7.8 16.8 34.2 21.5 39.5 2.9 3.2 11.8 9.8 15.7 12.3 7.5 4.9 16.2 8.8 24.3 12.7-7.1-8.7-14.2-19.4-19.8-29.2-1.5-2.6-6.2-10.4-6-12.5 4.2-12.7 9.3-25.2 14.6-37.4 19.4-44.6 48-91.7 64.2-136.3Zm-16.7-6.3c7.3 5.9 18.9-8.3 11.3-13.8-6.9-4.9-18.2 8.2-11.3 13.8" class="outline" data-original-prefix="outline"/><path id="outline-ear-rt4" fill="#000000" d="M1197.7 874.2c25.5-5.3 19.7 30.9 2.6 34.5-24.2 5.1-22.3-30.4-2.6-34.5m8.1 7c-2.8-3.5-11.9 1.1-12.7 6.3-2.4 15.4 14.9 12.3 14.6 1.1 0-.9-1.6-7-1.9-7.4" class="outline" data-original-prefix="outline"/><path id="outline-ear-rt3" fill="#000000" d="M1230.3 801.3c12.9-11 27.5 1.3 22.1 16.6-1.8 5.3-5.1 11.4-10.5 13.5-16.3 6.3-26.1-10.2-17.4-23.4.5-.7 5.2-6.2 5.8-6.7m5.4 3.9c-9.7 2-8.4 17.8 1.7 16.8s12.2-19.6-1.7-16.8" class="outline" data-original-prefix="outline"/><path id="outline-ear-rt2" fill="#000000" d="M1396.8 384.2c8-.6 20.1 6.1 22.4 14.1 5.8 19.6-15 25.9-28.7 15.7-12.3-9.2-9.8-28.5 6.3-29.8m1.9 12c-6 1.8-4.3 10.1 2 11.6 14.5 3.3 8.5-14.7-2-11.6" class="outline" data-original-prefix="outline"/><path id="outline-ear-rt1" fill="#000000" d="M1520.8 395.2c14.8-1.1 24.7 16.4 15.2 28.3-8.9 11.2-34.5-5.3-26.2-21.2 2.1-4 6.6-6.8 11-7.1m8.9 20.5c7.1-7.5-11.7-16-10.8-3.2.4 5.6 7.4 6.8 10.8 3.2" class="outline" data-original-prefix="outline"/>
    </g><g class="trait-group" data-category="left ear" id="left ear-stitches">
      <path id="fill-ear-lft" fill="#ffffff" d="M326.7 182.1q1.65-.45 3.3.3l180.7 78.4c55.2 39.7 111.9 77.8 165.3 119.7l109 135.9c10.5 65.4 16 132 25.2 197.8 24.6 50.1 52.6 98.7 77.3 148.7 1.5 3.1 5.4 9.5 5.5 12.5.2 4.7-8.5 15.9-11.2 20.8-15.1 27.1-18.8 33.2-43.9 52.1-22.9 17.2-44.3 28.5-72.5 35.5-8 2-18.1 5.7-25.3.5l-82.9-79.1c-9.9-22-17.5-45.3-28.1-66.9l-154-109c-23.7-34.4-41.7-73.1-64.9-108.1-9.8-43.7-27.6-90.2-34.9-134.1-5.9-35.7-6.9-73.6-12.5-109.5-9.3-20.9-22.7-40-30.5-61.5-1-40.6-6.8-81.2-8.3-121.7-.1-3.4-1.1-11.4 2.8-12.4Z" class="fill" data-original-prefix="fill"/><path id="shading-ear-lft" fill="#aaaaaa" d="M555 465c11.2-3.5 14.9 1.4 16 12 2.1 1.8 16.5-9.5 20-10l-10.9-17.4c.3-1 1.1-1.5 1.9-2.1 1.4-1.1 16.7-10.1 17.7-10.4 7.1-1.5 9.3 8.8 11.3 13.8 1.7 1.1 8.9-4.9 9-6.4.1-3.9-9.1-10.3-6.9-16.9 3.4-1.8 14.2-13.5 16.4-13.7 5.2-.5 9.4 12.1 13 12.1.6 0 10.1-6.6 10.4-7.1 2.5-3.6-12.6-10.2-12-16.4.3-2.7 13.2-13.6 14.7-17.6 9.8.2 13 9.4 17.9 16 2.9.7 12-11.5 19.7-7.7 5.8 2.9 4.3 9.1 4.8 9.7.2.2 2.8 0 4.5 1 2.5 1.4 5.3 6.7 5.5 9.6.7 9.6-11.2 13.9-10.9 16.8.3 3.6 12.4 11 9.4 15.7-.7 1.2-6.7 4.1-8.5 5.6-7.4 6.1-8.6 13.6-17.1 2.9-2.4-3-3-8.9-7-7-.5.2-7.6 5.7-8 6-2.9 3.5-1.9 6.5-.2 10.1 1.3 2.9 7.5 8.7 5.2 10.8-4 .8-18 10.8-20.4 10.6-3.8-.3-8.8-11.5-11.9-11-1.2.2-6.5 5.8-8.7 6.5-.6 3.6 9.5 10 8.1 15.7-4.1 1.4-20.1 16.7-23 14.6-.8-.5-3-9.5-7.1-11.4-4.6-2.1-12.3 7.2-16.9 8.6-1.3 1.9 7.2 8.7 5.5 12.9-10.2 6.3-23.7 23.3-30.5 4-3.5 2.2-7.2 2.5-7 7.4.4 11.8 9.9 54.8 15 65.1.9 1.8 10.2 12.8 11.6 13.4 8.9-15.4 16-32 26.5-46.5l54-6.5c0 9.4-.3 19 1.1 28.4 3.4 21.8 18.3 36.8 29.3 54.7 16.2 26.3 28.1 50.9 41.7 78.3 8.6 17.2 17.3 34.4 26.8 51.2 5.6 3 9.3-3.8 14.3-2.3 3.7 1.1 5.7 9.7 7.2 9.8 11.3-5.3-4-10.3-2.3-18.2.8-4.2 14-14.8 18.3-14.8s7.1 6.5 10 9.1c1.7 0 7.1-10.9 8.3-12.7.5-.8.7-2.8 2.2-1.3.7.6 6.2 13.5 7.5 16 2.1 3.9 8.9 12.6 8.5 16.4-.4 4.7-6.8 10.2-7.6 13.6-.6 2.6 1.2 8 .3 12.3-1.1 5.1-7.6 14.1-13.4 14.4-5.1.2-10.1-8.1-12.9-2.7-1.4 2.8 1.9 4.8 2.9 7.1 3.8 8.6-3.7 12.3-3.3 14.3.2 1.4 15.6 20.2 18 23.1 11.4 14.1 28.9 30.4 38.4 44.6 4.5 6.8 4.6 12.1 7.6 19.4l-8 11.9c-29.4 24.7-56.9 43.6-94.7 53.3-15.7 4-23.6 7.7-27.2-12.2-11.3-7.1-23.8-14.3-34-23-9.1-7.7-27.1-24.6-34.5-33.5-3.9-4.7-10.2-16.9-14-20-3.5-2.8-12.8-2.7-9.5-11.5-1-.7-3 1.2-3.9.5-.5-.3-4.4-9.3-4.6-10-.8-3 .8-4.7.4-7.2l-17.1-43.5c-30.8-21.7-67.7-36-97.2-59.3-22.1-17.6-40.3-39.2-57.5-61.5 2.9 1.1 6 3.6 8.5 5.5 33.3 26.6 65 55.6 102.5 76.5 25.3 14.1 50.5 23.2 79 29 2.7 1.1 4.3 11.6 5.1 12.3.7.5 4-.3 5.9.6 1.5.7 2.2 4.1 3.6 4.4 1.1.3 4.4-1.9 5-3 1.1-2.2-1.4-5-.4-6.8.3-.5 8.3-6.3 9.7-7.8 1-1 4-4.6 4-5.7 0-1.2-8.9-16.3-10.4-18.6-11.6-18-24.4-21.2-43.9-28.1-20.8-7.4-48.7-11.2-67.2-18.8-10.8-4.5-44.7-26.1-52.8-34.2-6.9-7-18.2-26-23.9-35.1-11.2-17.8-21.4-36.5-30.4-55.6-2.1-4.3-12.6-31-14.1-31.9-3.6-2.3-13.8 12-21.1 6.2-2.9-2.3-2.9-7.8-7.2-6.6-2.3.6-11.1 17.2-15.8 11.3-1.2-1.5-9.4-20.6-9.7-22.8-1.6-9.4 12.8-15.7 11.7-19.8-.4-1.6-4.3-4.3-4.6-7.3-.5-5.7 9.5-9.7 13.3-13.3 2-2 5.2-7.7 5.6-7.9 3.1-1.8 7.2 4.9 9.2 4.7 1.3-.1 12.6-8.9 13.2-9.9 2.8-4.5-8.1-12.4-3.6-17.5.8-.9 7.4-3.6 9.3-4.7 1.7-.9 5.6-4.5 6.4-4.6 3.8-.8 7.5 7.4 9 7.8 1.2.4 8.3-3.9 8.9-4.9 1.3-2-2.6-4-3.6-6.5-3.3-8.1 2.4-9 4.5-13.6 2.3-5-5.4-33.6-7.5-40.5-10.2-34.4-29.6-73.9-49-104-17.3-27-36.6-39.4-45.3-72.7-.5-1.9-.9-3.8-.7-5.8 2.1-.3 3.6.3 5.4 1.1 6.9 2.9 19.6 11.2 26.5 15.5 19.8 12.2 42.8 26.9 61.4 40.6 31 22.8 73.3 79 88.5 114.5 1.3 3 3.8 7.8 4.2 10.8.6 4.6-2.3 28.2-1 29.5Zm-79.2 95.2c-1-1-5.7-2.4-7.7-3.8s-5.5-6.5-7.5-6.5c-1.5 0-9.5 6-9.4 7.3 9.4 13.5 17 33.6 33.9 38.7.1-3.3 1.3-5.8.8-9.2-.3-2.1-9.1-25.5-10-26.5Zm248 306c-6-3.3-11.6 4.7-15.3 4.7-4.8 0-10-8.3-12-7.9-3.2.6 1.9 5.3 2.2 6.7 2 7.5-4.7 12.2-3.3 15.2 24.2 26.5 48.8 52.5 75.5 76.5l8 5.5c-1.5-7.4-3.3-14.8-5.5-22-5.3-17.5-6.1-16-16.5-29.5-12-15.7-23.2-32.1-33.2-49.3Z" class="outline shading" data-original-prefix="shading" opacity="0.5" style="opacity: 0.5"/><path id="outline-ear-lft" fill="#000000" d="M806 969c.3 2-2.7 3.5-4.1 4.4-13.5 8.6-43.4 19.9-59.4 20.7-7.5.4-15-.6-22.1-3-14.3-13.3-27.4-28.1-41.4-41.6-8.4-8-27.9-20-33.5-27.5-1.8-2.5-9.1-18-9.4-20.7-.5-4.7 5.6-10.5 3.3-15.3-1.9-4-10.7-2.9-13-5-1.7-1.5-7.6-16.5-9.7-20.3-7-12.7-13.1-22-25.8-29.2-43-24.6-77.7-42.6-113.5-78.5-34.8-34.8-72.6-95.9-90-142-4.4-11.8-.3-13 1.5-24.3-.4-1.7-10.4-4-12-5.2-5.6-4.2-20.7-65.1-22.6-75.4-2.6-14.5 3.6-16.6 4.6-29.5 2.6-36.6-7.3-92.6-28.2-122.9-8.1-11.7-8.8-10-11.5-25.5-6.1-34.9-11.1-107.2-6.2-141.6.4-2.5 3.3-15.8 4.5-16.7 1.7-1.2 4.6-.9 6.6-.7 37.4 3.5 114.5 37.1 150.5 53.6 50.8 23.2 121 61 164.2 95.8 21.4 17.2 40.6 44.2 60 64.1 2.5 5 .4 11.8 1.3 17.2 7 2.2 14.7 3.2 20.9 7.6 28.1 35.2 54.5 71.7 80.4 108.6 3.2 38.5 4.8 77.6 9.7 116.3 3.5 27.5 7.5 51.9 15.6 78.4 1.8 5.9 6.7 15.1 7.2 20.8s-3.3 15.2-1.8 19.8c1.1 3.3 10.8.8 13.7 1.8 11.1 29.6 25.4 58.1 41 85.5 3.1 5.5 9.6 13.2 11.7 18.3 1.9 4.7 3.5 20.4 2 25-12 13.8-21.3 38.6-35.9 49.1-5.5 3.9-12.2 6.2-17.5 10h-1v-2c2.9-4.8 7.7-9.1 10.8-13.7 9.7-14.4 18.5-34 16.1-51.8-.7-5.3-13.2-37.8-16-44-2.3-5-6.5-10-9-15-6.6-12.6-12.8-25.4-19.8-37.7l-7.9 5.1c-1.1 1.5 6.4 9.4 5.8 13.2-.3 1.7-7.3 10.5-8.9 11.2-6 2.7-7.8-11.7-9-12.5-1.4-1-12.8 7.4-13.5 9-1.7 3.7 8 13.6 7.6 18.3-2.6 1.2-10.6 9.9-12.5 9.6-3.3-.5-7.2-15.8-8.7-16.8-2-1.2-10.3 4.1-10.8 5.5-1 3.2 16.7 38.7 19.7 44 4.7 8.1 30.5 41.7 31.1 45.9.9 6.1 2 18.7 2.1 24.9s-4.7 9.9-9.1 14c-2.5 2.3-15.2 12.6-17.5 13.5-1.9.7-1.7-1-1.3-2.3 4.5-15.6 5.7-18.9 1.9-35.3-4.6-20.5-14.9-41.8-24.6-60.4-7.4-14.2-18-35.5-26.7-48.3-.5-.8-1.5-2.4-2.3-2.5l-6.4 4.4c-.6 2.5 7.8 9 6.8 12.7-.2.9-11.6 12.3-12.4 12.7-1.7.7-1.3-.7-1.7-1.2-1.7-2.4-7.4-13.3-9.3-13.7l-12.3 9.5c0 1.3 10.5 13 10.8 16.2.1 1.6-9.4 10.9-11.5 11.1-5.5.5-10.5-13.5-12.5-14.7-2.2-1.3-12.5 9.4-12.6 10.4-.3 3.6 12.2 14.7 8.8 19.1-.7 1-11.8 9.5-12.6 9.5-3.5 0-7.2-13.5-11.5-14.7-3.4-1-12.3 8-11.6 11.6.5 2.5 6.1 13.9 7.7 16.3 4 5.9 20.6 19.7 26.8 25.2 12.5 11 56.2 47.9 70.5 49.5 12.6 1.4 33.2-4.1 45.5-8ZM659 395c1.4-.3 1.6.2 2.5 1 2.9 2.5 10.6 15.3 13.2 15.9 1.8.5 10.5-7 10.2-8.3-24.3-25.1-52-47.5-80.6-67.5-47.7-33.2-104-67.4-155.3-94.7-38.6-20.6-78.3-39.9-120-53.5-3 38.2.9 78.6 8.3 116.2 3.8 19.1 12.7 27.5 19.5 44.5 13.1 33 21.4 79.3 23.3 114.7.5 8.6-.6 17.5 0 26.1 1.6 26.2 12.7 54.1 19 79.5 2.1-1.9 12.5-11 12.8-12.6.7-3.5-7.1-7.5-3.9-12.9.8-1.3 10.6-10.7 11.5-10.5 1.9 1 5.1 9.6 5.6 10 .4.3 1.7 0 2.3-.1 1-.3 13.8-11.6 15.7-13.3 9.6-9 2.1-7.2-.6-15.5-1.4-4.4 8.9-10.2 12-13l8.2 10.9c2.5-1.5 15.5-11.3 15.1-13.1-.9-3.1-7.4-9.7-6.7-13.3 3.2-.9 9.8-10.2 11.6-10.6 2.3-.5 7.5 10.7 8.5 13l12.8-8.2c-2.4-68.9-41.9-135-94.9-177.2-10.7-8.5-22.5-15.3-33.4-23.6l-22.5-39c3.2-2.9 26 18.3 29.7 20.8 7.1 4.8 15.5 7.3 22.3 12.7 40.8 40.7 81.6 73.9 109.2 125.8 4.4 8.2 19.1 37.7 19.8 45.3s-6.9 34.8-8 45.9c-.5 4.9-1.6 14.6-1 19 .2 1.5 0 2.5 1.6 3.4 3.7-3.2 24.5-12.5 26-15 1.7-2.6-8.9-12.9-7.5-14.9l15.4-8.1 7.6 13c1.4 1 23-13.9 26.5-15.9 1-1.6-6.9-10.8-6.4-13.4.3-1.8 11.2-8 13.2-9.6l8.2 12c2 .3 17.8-10.2 17.4-12.4-.4-2-9.2-9.6-8.8-12 .2-.9 11.5-10.8 12.3-10.6 2.8 1.7 8.6 13 11.1 13 7.6-4.1 14-10 20.5-15.5l-12.9-15.1c-.3-1.7 9.9-10.1 10-13.4Zm151 369c1.1.8 7.8-10.4 7.8-12.3-6.1-15.8-17-31.4-19.7-48.3-3.6-23.2-3-47.6-5.1-70.9-1.9-21.3-4.7-42.7-7-64-2-18.8-1.7-40.1-12.6-56.4-13.5-20.1-34.8-45.3-50.5-64.5-7-8.6-14.5-16.9-21.4-25.6-4.1-2.8-9.4 5.1-13.1 7-1 2.1 8.7 10.2 8.5 13.4-2.4 1.4-11.8 11-13.9 9.6-.1-.1-.5-2.3-1.2-3.3-2.4-3.2-5.2-6.2-7.4-9.7l-22.5 16 9 15.4c-2.4 1.2-11.1 9.2-12.6 9.5-2.4.6-7.3-12.3-10-13.9-2.8 1.8-18.5 10.8-18 13 .6 2.4 8.7 13.2 7.5 14.9-3 .4-14 9.4-15.9 8-.7-2.5-6.4-14.2-8.4-13.9l-25.7 14.9c-.7.9 6.7 11.4 6.9 13.7.2 2-12.5 9.1-15.2 8.2-2.5-.8-4.6-10-7.2-11.9l-36 22c-1 1.7-.7 10.9-.5 13.5 1.7 25.2 25.4 94.1 47.7 107.3 7.9 4.7 15.7 4.1 19.5-5.1s5.4-24.4 8.3-34.7c1.8-6.4 9-30.9 12-35 2.3-3.1 13.2-9.4 17.2-11.8 12.5-7.8 25.9-15 39.3-21.2 1 1.1-9.1 24.9-9.8 28.7-3 17.6 8 69.1 14.8 86.8 6.8 17.9 15.5 25 25.5 39.5 21.7 31.6 40.5 66.1 58.7 99.9 1.1.8 10.8-3.8 11.5-4.9 2.1-3.3-5.9-11.1-5.4-13.4.2-1.1 12.4-10.6 13.8-9.6.6.4 4.3 11.7 6.5 12.9 2-2.8 10.6-7.8 12-10 2.5-3.9-5.8-11.2-6.4-15.4 11.1-10.2 11.5-16.9 18.9 1.4Zm-261.3-79.7c-1-1-3-1-4.2-2.3-2.4-2.7-9.6-43.6-11.6-51.4-7.5-29.1-17-55.5-33.3-80.7-1.7-2.6-9-11.1-8.5-13.2.5-1.7 5-4.9 4.9-8.2 0-1.1-5-8.6-6-9.1-1.5-.8-14.9 8.4-15.1 9.2-.9 4.4 10.4 14.6 9.1 16.3-3.2-.1-14.8 9.8-16 9-1-2.1-7.7-13.3-9.5-13-2.6 3.6-21.8 16.3-22.5 18.6-1.2 4 8.7 11.8 6.5 15.3-.4.7-11.2 10.1-11.9 10-2.9-1.4-7.2-12.4-10-11.9-1.1.2-14.6 13.7-14.7 16.4 10.5 33 27.8 63.2 47.7 91.4 17.3 24.6 39 51.5 61.4 71.6 32.7 29.4 75.5 45.7 111.6 70.4 4.5 7.2 4.1 14.9 7.4 22.6 3 6.8 8.6 13.3 11.1 20.4 1.6 1.1 11.5-6.1 11.9-7.6.9-3.5-8.9-10.4-5.9-13.8.7-.8 13.6-8.7 14.4-8.6 1.8 1.7 5.1 8.7 6.6 9.6 2.5 1.6 10.2-6.9 13.1-8.2.6-3.9-8.4-9.1-5.1-12.9.7-.7 11-8.3 11.7-8.4 3.2-.5 5.7 8.5 8.8 8.9.7 0 10.7-7.5 11.1-8.1 2.2-3.5-6.4-8.3-5.4-12.3.2-.7 10.1-9.9 10.9-10.3 3.5-1.8 8.3 10.2 10.5 10.4 1.1 0 8.7-5.3 8.1-7.8-1.4-5.5-14.2-23.2-18.2-28.9-16.3-23-35.6-43.7-53.6-65.4-1.2-23.1-5.1-49.1-14.6-70.4-7.4-16.6-14.9-16.2-25.6-2.2-18.5 24.1-18.3 56.3-8.1 83.9 2.8 7.6 7.3 14.6 10.5 22-1.1 1-13.5-5.7-15.7-6.8-22.8-12.2-43.5-26.7-61.6-44.9Z" class="outline" data-original-prefix="outline"/>
    </g><g class="trait-group" data-category="head" id="head-slicked">
      <path id="fill-head" fill="#ffffff" d="M1184.8 747.2c1.7 1.6 7.1 11.9 9.4 15.1 15.6 21.3 37.6 44.5 59.5 59.5 2.8 1.9 17.6 9.9 18.1 10.9.8 1.6 2.1 11.4 2.2 13.8 1 17.8-4.1 34-12.8 49.2-.5 2.1-11.1 14.5-10.2 15.3 1 .9 3.1-.8 4-1.5 8.7-6.4 17.5-19.2 25.9-26.5 5.6 12.5 16.9 32.8 17.1 46.5.2 11.8-11.5 36.8-23.6 40.5-3.4 1 .8-5.5 1.3-6.7 1.5-4.3 4.3-11.3 4.3-15.8 0-5.3-2.9 1.3-3.2 1.8-3.7 5.3-6.8 10.1-12.5 13.5-17.3 5.9-62.4 43.2-77.7 43.1-7.3 0-16.7-4.3-24.6-2.9 5.1-5.7 11.2-12.7 9.5-21-13 11.3-26.8 21.6-41.6 30.4-10.1 6.1-24.4 16.9-36.3 8.5-4.9-3.5 2.7-5.8 5-8.2 5.1-5.4 17.4-29.3 20.5-37 3.6-8.8 6.2-19.1 6.3-28.7-5.2 4.1-6.4 10.8-9.7 16.3-11.5 18.9-35.2 43.6-54.5 54.5-51.1 29-102.9-11.5-129.1-54.5-3.3-5.5-4.5-12.2-9.7-16.3 0 9.5 2.8 19.8 6.3 28.7 3.1 7.6 15.4 31.6 20.5 37 2.4 2.5 9.9 4.8 5 8.2-13 9.2-33.2-6.2-44.3-13.5-11.8-7.7-23-16.2-33.6-25.4-1.6 8.3 4.4 15.2 9.5 21-7.9-1.4-17.3 2.9-24.6 2.9-15.3 0-60.4-37.1-77.7-43.1-1.9-1.8-4.4-3-6.2-4.8-2.2-2.2-7.3-11.8-8-12.1-.4-.1-2.5-.3-2.5.5l8 23.5c-12.1-2.4-20.7-20.2-23.5-31-4.7-18.2 8.2-39.9 15.5-56 8.4 7.3 17.2 20.1 25.9 26.5.9.7 3 2.4 4 1.5.9-.8-9.7-13.2-10.2-15.3-11.4-19.3-16.3-41.6-10.3-63.7 30.5-15.7 57.2-42.2 77.3-69.7 1.8-2.5 8.9-14.7 9.9-15.4 9.9-7.1 43 2.9 55.1 4.8 27.3 4.3 43.7-9.7 68-18.5 20.1-7.3 45.1-9.5 65.8-3.3 17.9 5.4 43 21.4 60.1 22.9 15.2 1.4 62.5-14.7 72.1-5.6ZM959 765c-.8-.8-5.9 2.8-6.9 3.6-6.7 5.1-36.1 44-37.6 51.4-2.6 12.6-.8 28.8-.4 41.5.4 11.9-.9 22.9 3 34.5l5.5-37c4.6-24.6 12.2-48.6 22.7-71.3l13.8-22.6Zm172 131c3.9-11.6 2.6-22.7 3-34.5.4-12.7 2.2-28.9-.4-41.5-1.5-7.3-30.9-46.3-37.6-51.4-1-.8-6.1-4.4-6.9-3.6l13.8 22.6c10.4 22.7 18.1 46.7 22.7 71.3l5.5 37Zm-224-97c-.8-.8-15.6 9.7-16.9 11.6-2.5 15.7-19.9 44.4-19.2 58.9.2 3.6 7.9 20.7 9.9 25.2 4.9 11 16.8 36.7 23.7 45.3 1.2 1.5 2.8 2.3 4.5 3-5.4-21.5-21.9-48.5-22.1-70.5-.1-23.9 12.5-51.2 20.1-73.5m232 144c1.7-.7 3.3-1.6 4.5-3 6.9-8.6 18.8-34.3 23.7-45.3 2-4.5 9.7-21.6 9.9-25.2.7-14.5-16.6-42.5-18.8-58.2-4.4-5.2-10.9-8.8-16.7-12.3l13.2 38.8c3.9 15.4 8.2 31.3 4.8 47.3l-20.5 58ZM831 816c-1.8-2-6.7 8.3-7.2 9.3-3.8 8.1-8.5 19.9-11.6 28.4-1.1 3-4.3 11.2-4.3 13.8 0 2.3 5.8 13.8 7.2 16.8s11.2 23 12.4 23.6c1.9.9 1.5-1.3 1.4-2.4-.7-9.1-5.9-20.4-6.8-30.2-1.8-19.6 5.2-40.3 8.9-59.4Zm388 92c2.1.4 2.3-1 3.2-2.3 7.1-10.5 12.2-26.6 17.8-38.2-4.6-13.7-9.8-29.1-15.9-42.2-1.4-3-3.4-8-6.7-9.3l8.5 46.5c1.4 15.7-4.8 30.3-7 45.5Z" class="fill" data-original-prefix="fill"/><path id="fill-head3" fill="#ffffff" d="M689 956c.1 0 .2 1.7 1 2.5 3.8 4 7.9 7.4 11 12 4.5 6.4 15.1 12 19.1 17.9.7 1 1.2 1.5.8 2.9-.8 3.2-14.6 6.3-18.4 9.7-7.2 6.3-27.7 38.1-32.3 47.7l-13.1 32.3c-2.2-18-6.1-36.4-7-54.5-1.5-29.2 10.6-35.5 27-56 3.1-3.9 6.9-10.6 10-13.8.7-.7 1.4-1.2 2.1-.6Z" class="fill" data-original-prefix="fill"/><path id="fill-head2" fill="#ffffff" d="M1361 956c7.8 14.4 21.4 25.8 30.2 39.3 7.2 11 7.4 18.2 6.8 31.2-.9 17.2-5.1 34.3-6 51.5-2.6.4-1.6-.2-2.1-1.4-4.9-11-8.1-22.3-14.1-32.9-4.3-7.5-25.9-39.3-31.4-43.6-4.2-3.2-20.5-5.6-16.4-11.7 6.9-6.8 14.4-12.9 21.1-19.9 3.2-3.3 6.3-8.2 9.5-11.5.8-.8.9-1.4 2.4-1.1Z" class="fill" data-original-prefix="fill"/><path id="shading-head" fill="#aaaaaa" d="M749 958.5c-.9-4.2-14.1-19.9-16.8-28.2s3.4-18.6 7.2-26.3c4.7-9.4 20.7-31.4 21.5-39.5.7-7.3 0-14 1.3-21.7 1.2-7.1 2-15.7 10.7-16.3-13 21.5-2.7 45.5 9.6 64.4 5.5 8.5 17.7 24.8 25.9 30.1 1.2.8 2 1.2 3.5 1-5.7-18.1-13.5-34.6-9.5-54 2.9-14.1 10.1-27.2 21.5-36-.2 3.8-5 7.6-5.8 10.7-1.9 7.7 1.9 19.8 2.7 27.8 1.1 11.2-2.1 25.3 8 33.5-.2-24.2 7.7-47.1 19.8-67.7l12.2-19.3c-16.5-3.4-33.5-5.2-50-8.5-3.5-.7-8.5-1.3-11.6-2.4-1.1-.4-1.7.5-1.4-1.6 10.3-10.4 20.9-20.5 30.5-31.5 10.4-12 30.3-45.4 46-45.8 13.3-.3 29.8 4.8 43 5.8 20.9 1.5 46.8-16.6 67.2-22.8 8.3-2.5 64.5-2.5 74.7-1.1 15.6 2.2 41.8 19.5 58.3 23.7 18 2 38-6 55.8-5.6 15.7.4 35.6 33.8 46 45.8 11.2 12.9 24 24.3 35.5 37-30.7 7.1-61.6 14-93 17 1.1 2.6-1.1 4.4-1.1 7.5 0 .7 2.8 11 3.1 11.5 0 0 1.5-1 2.4 0 .6.6 7.8 13.3 8.4 14.7 7.8 18.2-.1 61.2-6.6 80.2-1.6 4.6-4.8 8.5-5.3 13.2 1.5 1.5 23.5-3 26.5-5 4.1-2.7 18.9-23.5 22.3-28.7 12.1-18.8 19.6-40.9 18.7-63.4l-8.1-24.9c1.5 3.5 4.3 5.4 6.3 8.7 5.9 9.7 12.5 26.8 14.1 37.9 2.3 16.5-1.2 31.6-5.9 47.4 5.7-3.5 23.6-30 28.5-30 5.3 0 15.4 21.3 16.8 26.2 3.6 12.7-.9 24.3-7.1 35.5-1 1.7-4.8 5.6-4.8 6.8 0 .8 2.1 5.6 2.3 8.2 0 1.4-1.2 5.7-.6 6.3 2.4 2.4 3.6-2.8 4.1-3.4 8.1-8.6 13.7-5.5 19.8-18.3 7.7-16.4 10.4-38.5 10.2-56.4 1.4-1.9 11.2 21.6 10.9 25.4-.6 8.5-18 30.3-18 32.1V974s1.1-.2 1.6.4.3 1.6.4 1.6h15.5c1.4 0 20.4-13.1 23-15 8.7-6.7 16.1-15.2 25-21.8 1.3.9 2.8 1.8 3.9 2.9 8.9 8.8 43.7 58.8 47.3 69.7 4.3 12.9-1.6 27.3-5.5 40-5.7 18.7-12.9 37-19.8 55.2-5.6-14.1-10.2-28.5-16.6-42.3-8.4-18.2-25.9-53.8-44.6-61.4-2.4-1-11.3-2.9-12-3.5-3.1-2.2-6.5-20.5-12.7-21.8-11.4-2.2-16.3 2.4-25.7 5.3-5.5 1.7-13.9 4.2-19.4 4.6-7.8.5-18.2-2.6-25.4-.4s-29.9 19.7-39 25c-3 1.7-9.5 6.3-12.5 6.6-4.5.5-15.7-5.2-22-5.9-22.2-2.3-32.9 10.6-52 18.7-2.3 1-8.1 3.8-10 3.8-4.7.2-12.2-6-15.9-6.7-2.3-.4-9.6-.4-12 0-5.8.8-12.9 10-19 11-5.9 1-53 .8-57.2-.7-5.2-1.8-11.4-9.5-16.7-10.3-2.4-.3-9.7-.3-12 0-4.1.8-11.3 7.3-16.6 6.5-5.8-.8-23.7-10.8-30-14.1-13.3-6.8-14.2-10.2-31.4-8.4-6.5.7-18.2 6.6-22.9 5.7-2.8-.5-8.8-4.7-11.7-6.4-9.1-5.2-31.4-22.7-39-25s-17.7 1-25.4.4c-15.2-1.1-28.2-11.4-43.2-9.9-9.9 1-9.5 16.7-14.9 21.1-3.4 2.8-14.4 4.4-19.9 8.1-14.4 9.8-37.6 58.3-44.4 75.6-2.8 7.1-4.6 14.9-7.3 21.7-.4 1-.4 2.4-1.9 2.6-.5-5.7-4-11-6-16.5-4.6-12.3-9.4-26.2-13.2-38.8s-9.8-27.1-5.5-40c3.7-10.9 38.5-60.9 47.3-69.7 1.2-1.1 2.6-2 3.9-2.9 1.4 0 17.7 16 20.6 18.2s25.8 18.6 27.4 18.6h15.5s-.2-1.1.4-1.6 1.6-.3 1.6-.4c0-4.1.7-12.1 0-15.5ZM904 932c-3.5-22.2-6.3-42-.7-64.2 3.2-12.5 10.2-25.3 13.1-37 .6-2.4 1.3-7.3-1.8-7.8-5.9-1-12.9-.4-18.9-2.1-18.3 37.1-16.7 77.7 8.4 111.1Zm219.9-100.9c-21.8.4-43.6 2-65.4 1.9-38.8-.2-77.4-5.6-116-7-3.1-.1-6.5-.3-9.6.4-.8.6-1.8 7.5-1.9 9.1-1.7 20.1 2.8 45 7.3 64.7 3.7 16 10.3 31.1 19.2 44.8l.5-7.5c-2.7-32.3.2-69.9 18.5-97.5-2.2 52.9 15.6 107.2 52 146 .3-22.2-4.8-43.3 4.6-64.3 12.5-27.9 44.1-35.9 64.4-10.7 7.2 9 8.9 19 11 30 15.2-17.7 21-42.8 23.4-65.6.3-3.4 1.3-9.7 1.1-12.7-.2-2.6-7.7-30.6-9.1-31.5ZM1165 887c-.7-4 .9-7.7 1.1-11.5.9-17.1-4-30.8-9.5-46.5-1.7-2-14.6.7-18 1-3.1.3-6.3-.2-9.5 0-.4 1.9 1.6 3 1.7 4.6.2 2.1-1.2 4.3-.5 7.7 1.2 6.1 9.9 18.7 12.5 26.5 6.7 19.7 4.6 30.1 3.2 49.8-.2 3.8-1.3 11.6 3.5 7.5.5-.4 6.5-10 6.9-11.1 1.2-3 3.6-13 4.4-16.6 1-4.6.4-10.4 2.2-15.3l2 4Zm-352.5 36v1c.7-.3.7-.7 0-1" class="outline shading" data-original-prefix="shading" opacity="0.5" style="opacity: 0.5"/><path id="outline-head7" fill="#000000" d="M907 799c-7.6 22.3-20.2 49.6-20.1 73.5.1 22 16.7 49 22.1 70.5-1.7-.7-3.3-1.6-4.5-3-6.9-8.6-18.8-34.3-23.7-45.3-2-4.5-9.7-21.6-9.9-25.2-.7-14.4 16.7-43.2 19.2-58.9 1.2-2 16.1-12.5 16.9-11.6" class="outline" data-original-prefix="outline"/><path id="outline-head6" fill="#000000" d="m1139 943 20.5-58c3.4-15.9-.9-31.9-4.8-47.3l-13.2-38.8c5.8 3.5 12.3 7.1 16.7 12.3 2.2 15.7 19.5 43.8 18.8 58.2-.2 3.6-7.9 20.7-9.9 25.2-4.9 11-16.8 36.7-23.7 45.3-1.2 1.5-2.8 2.3-4.5 3Z" class="outline" data-original-prefix="outline"/><path id="outline-head5" fill="#000000" d="m959 765-13.8 22.6c-10.4 22.7-18.1 46.7-22.7 71.3l-5.5 37c-3.9-11.6-2.6-22.7-3-34.5-.4-12.7-2.2-28.9.4-41.5 1.5-7.3 31-46.3 37.6-51.4 1-.8 6.1-4.4 6.9-3.6Z" class="outline" data-original-prefix="outline"/><path id="outline-head4" fill="#000000" d="m1131 896-5.5-37c-4.6-24.6-12.2-48.6-22.7-71.3l-13.8-22.6c.8-.8 5.9 2.8 6.9 3.6 6.7 5.1 36.1 44 37.6 51.4 2.6 12.6.8 28.8.4 41.5-.4 11.9.9 22.9-3 34.5Z" class="outline" data-original-prefix="outline"/><path id="outline-head3" fill="#000000" d="M831 816c-3.7 19.1-10.7 39.7-8.9 59.4.9 9.8 6.1 21.1 6.8 30.2 0 1.1.5 3.3-1.4 2.4-1.2-.6-11-20.6-12.4-23.6s-7.2-14.6-7.2-16.8c0-2.6 3.2-10.8 4.3-13.8 3.1-8.5 7.8-20.3 11.6-28.4.5-1 5.4-11.3 7.2-9.3Z" class="outline" data-original-prefix="outline"/><path id="outline-head2" fill="#000000" d="M1219 908c2.3-15.2 8.4-29.8 7-45.5l-8.5-46.5c3.2 1.4 5.2 6.3 6.7 9.3 6.1 13 11.3 28.5 15.9 42.2-5.7 11.6-10.8 27.7-17.8 38.2-.9 1.3-1.1 2.7-3.2 2.3Z" class="outline" data-original-prefix="outline"/><path id="outline-head1" fill="#000000" d="M1308 967c20-7.7 33.4-24.5 49.5-37 2.2-1.7 6-5.3 8.8-4.9s15.6 15.7 18.1 18.9c9.9 12.4 31.4 41.7 37.8 55.2 14.7 31.2-11.1 77.2-20.7 107.6-.7 2.3 0 5.4-.9 7.1-1.3 2.1-15.8 8-18 5-1-1.3-4.5-15.8-5.7-19.3-8.6-24-21.3-50.2-35.7-71.3-5.4-7.8-8-12.1-17-16-2.9-1.2-13.5-3.8-14.7-4.8-2.6-2.1-7.7-19.7-10.9-20.7-12.6 5.3-26 9.3-39.8 10-4.1.2-15.7-1.4-17.8-.9-6.2 1.5-34.3 22.8-43.5 27.6-7.2 3.8-10.9 6.1-19.5 4.9s-17.8-7.6-26.3-6.8c-5.1.5-22.3 12.1-28.8 15.2-10.8 5.1-20.4 10.4-32.5 7.1-3.3-.9-13-6.3-14.7-6.3-2 0-13.2 10.1-18 10.9-5.3.9-10.1-.9-14.9-1-12-.2-24.1-.2-36.1 0-5.9.1-12.2 2.6-18.2.3-3.3-1.2-14.3-10.2-15.8-10.2-2.8 0-14.7 7.4-21.3 7.8-7.1.4-19.9-5.7-26.5-8.9-6.1-2.9-22.5-14.1-27.2-14.8-8.8-1.4-18.5 5.5-27.2 6.7-10.8 1.4-16.5-3.3-25.2-8.3-7.2-4.2-32.9-23.1-37.8-24.2-2.1-.5-13.7 1.1-17.8.9-13.6-.6-28.5-4.4-40.4-11-4.1 6.2-6.4 19.1-13 22.5-3.6 1.8-8.8 2.6-12.7 4.3-10.2 4.6-12.8 10.4-18.7 19.3-17.9 27-30.4 57.2-40.2 88-2.5.8-15.5-4.2-16.2-5.2-.6-.9 0-3.9-.6-5.9-9.7-27.9-33.2-74.3-24.2-103.2 4-12.9 35.2-56.3 45.2-67.8 2.4-2.8 11.1-12.9 14-12.9s24.7 20.4 29.6 24.3c2.5 2 26.7 18.9 27.9 17.6-2-7-7.7-12.8-11.2-19.3-10.3-19.3-8.6-28.6.7-47.7 4.1-8.5 20.8-32.1 22.3-37.7 1.4-5.3.5-16.6 1.2-22.8.7-5.5 1.9-11 3.8-16.2 27.3-18.8 50-41.4 71.2-66.8 9.4-11.3 21-32.6 35.2-36.8 16.3-4.8 43 3.4 60.2 4.3 17.5-6 36.2-17.3 53.6-22.5 10.7-3.2 75.1-3 88.4-1.4 16.3 2 42.4 19.2 59.2 23.9 17.2-.9 43.9-9.1 60.2-4.3 14.2 4.2 25.8 25.5 35.2 36.8 21.2 25.4 43.9 48 71.2 66.8 1.9 5.2 3.1 10.8 3.8 16.2.7 6.1-.2 17.4 1.2 22.8 1.5 5.6 18.2 29.3 22.3 37.7 9.3 19.1 10.9 28.4.7 47.7-1.4 2.7-12.4 18-11.2 19.3Zm-123.2-219.8c-9.6-9.1-56.9 7-72.1 5.6-17.1-1.5-42.2-17.5-60.1-22.9-20.7-6.2-45.7-4-65.8 3.3-24.3 8.8-40.7 22.8-68 18.5-12-1.9-45.2-11.9-55.1-4.8-1 .7-8 12.9-9.9 15.4-20.2 27.5-46.8 54-77.3 69.7-5.9 22.1-1.1 44.3 10.3 63.7.5 2.1 11.1 14.5 10.2 15.3-1 .9-3.1-.8-4-1.5-8.7-6.4-17.5-19.2-25.9-26.5-7.3 16.2-20.3 37.9-15.5 56 2.8 10.8 11.4 28.6 23.5 31l-8-23.5c0-.8 2-.7 2.5-.5.7.2 5.8 9.8 8 12.1 1.8 1.8 4.3 3 6.2 4.8 17.3 5.9 62.4 43.2 77.7 43.1 7.3 0 16.7-4.3 24.6-2.9-5.1-5.7-11.2-12.7-9.5-21 10.6 9.2 21.8 17.7 33.6 25.4 11.2 7.2 31.3 22.7 44.3 13.5 4.9-3.5-2.7-5.8-5-8.2-5.1-5.4-17.5-29.3-20.5-37-3.6-8.8-6.2-19.1-6.3-28.7 5.2 4.1 6.4 10.8 9.7 16.3 26.2 43 78 83.5 129.1 54.5 19.2-10.9 43-35.6 54.5-54.5 3.3-5.5 4.5-12.2 9.7-16.3 0 9.5-2.8 19.8-6.3 28.7-3.1 7.6-15.4 31.6-20.5 37-2.4 2.5-9.9 4.8-5 8.2 11.9 8.4 26.2-2.4 36.3-8.5 14.8-8.8 28.6-19.1 41.6-30.4 1.6 8.3-4.4 15.2-9.5 21 7.9-1.4 17.3 2.9 24.6 2.9 15.3 0 60.4-37.1 77.7-43.1 5.7-3.4 8.8-8.2 12.5-13.5.3-.4 3.2-7.1 3.2-1.8 0 4.4-2.7 11.4-4.3 15.8-.4 1.2-4.7 7.8-1.3 6.7 12.1-3.6 23.8-28.7 23.6-40.5-.2-13.7-11.5-34-17.1-46.5-8.4 7.3-17.2 20.1-25.9 26.5-.9.7-3 2.4-4 1.5-.9-.8 9.7-13.2 10.2-15.3 8.8-15.2 13.8-31.4 12.8-49.2-.1-2.4-1.3-12.2-2.2-13.8-.5-.9-15.3-9-18.1-10.9-21.9-15-43.9-38.2-59.5-59.5-2.3-3.2-7.7-13.5-9.4-15.1ZM689 956c-.7-.6-1.4 0-2.1.6-3.1 3.2-6.8 9.9-10 13.8-16.3 20.6-28.5 26.9-27 56 .9 18.1 4.9 36.5 7 54.5l13.1-32.3c4.6-9.5 25.1-41.3 32.3-47.7 3.8-3.3 17.6-6.4 18.4-9.7.4-1.4-.2-1.8-.8-2.9-4-6-14.6-11.5-19.1-17.9-3.1-4.6-7.2-8.1-11-12-.7-.8-.9-2.4-1-2.5Zm672 0c-1.5-.4-1.6.2-2.4 1.1-3.2 3.2-6.4 8.1-9.5 11.5-6.7 7-14.2 13.1-21.1 19.9-4.1 6.1 12.3 8.5 16.4 11.7 5.5 4.3 27.2 36 31.4 43.6 6.1 10.6 9.2 21.9 14.1 32.9.5 1.2-.5 1.8 2.1 1.4.9-17.2 5.1-34.3 6-51.5.7-13 .5-20.2-6.8-31.2-8.8-13.4-22.5-24.9-30.2-39.3Z" class="outline" data-original-prefix="outline"/>
    </g><g class="trait-group" data-category="mouthpiece" id="mouthpiece-outlaw">
      <path id="fill-mouth" fill="#ffffff" d="M1416 1417c.2 1.4-.2 2.7-.4 4-3.4 15.2-13.8 40.9-19.5 56.5-2.8 7.7-7.8 24.3-14.1 28.9-4.8 3.5-11.3 5.3-16.4 9.6-11 9.3-23.4 41-29.7 55.3-1.7 3.7-6.9 19.1-8.3 20.7-.7.8-.8.7-1.8.7-7.4.3-25.8-6.2-31.8-1.4-4.7 3.7-7.2 14.7-9.8 20.2-9.1 19.9-18.9 42.4-29.7 61.3-7.7 13.5-11.3 12.8-22.4 21.6-29.5 23.2-58.4 50.4-86.1 75.9-41.4 38.2-81.3 78-121.6 117.4-11.3-9.3-21.2-20.7-31.8-30.9-52.9-51.4-109.8-108.8-167-154.9-12.8-10.3-23.5-14.1-32-29-10.8-18.9-20.5-41.4-29.7-61.3-2.5-5.6-5.1-16.5-9.8-20.2-6-4.8-24.4 1.6-31.8 1.4-.9 0-1.1 0-1.8-.7-1.5-1.6-6.7-17-8.3-20.7-6.3-14.3-18.7-46-29.7-55.3-5.1-4.3-11.7-6.1-16.4-9.6-6.2-4.6-11.3-21.2-14.1-28.9-7.1-19.5-12.9-39.5-20-59l.5-1.5c8.2 1.2 16.7 2.4 25 3 36.7 2.7 73.4 3.8 109.7-2.3 7.6-1.3 24-3.8 30.4-6.6 11.7-5.2 27.1-32.1 42.8-41.2 21.7-12.6 48-22.2 70.3-34.7 26.7-14.9 52.4-33.8 79.1-48.9 22.5-4.7 45.9-4.7 68.5 0 26.7 15.2 52.3 34 79.1 48.9 22.3 12.4 48.7 22 70.3 34.7 15.7 9.2 31.1 36 42.8 41.2 6.4 2.9 22.8 5.3 30.4 6.6 44.6 7.6 90.4 4.4 135.2-.7Z" class="fill" data-original-prefix="fill"/><path id="shading-mouth3" fill="#aaaaaa" d="M1387.1 1420.1c8.7-.5 18.8-3.1 27.3-3.2 2.4 0 1.7 1.4 1.3 3.3-2.8 14.3-14.3 42.3-19.8 57.3-2.8 7.7-7.8 24.3-14.1 28.9-4.8 3.5-11.3 5.3-16.4 9.6-2.6 2.2-7.6 9.9-8.2 10.1-2.4.5-27.8-14.6-33-16.9-27.8-12.6-44.8-5.6-72.1 3.6-67.3 22.5-132.8 50.7-199.2 75.8-19.4 1.2-43.9 4.1-62.6-1.5-50.5-15.3-101.2-44.7-153-58-26.6-9.6-71.8-32.6-99.5-25.5-16.7 4.3-29.8 16.6-44.1 21.9-1.1.4-2.1.9-3.3.6-.6 0-5.5-7.8-8.2-10.1-5.1-4.3-11.7-6.1-16.4-9.6-6.2-4.6-11.3-21.2-14.1-28.9-7.1-19.5-12.9-39.5-20-59-.4-2.1 1-1.7 2.5-1.5 4.4.4 24 2.1 26 4 5.3 9.7 38.6 78.1 44.2 79.9 2.9.9 25.1-8.8 30.5-10.2 13.1-3.3 42.5 1.5 57.1 3.4 28.3 3.7 46.8 7.3 73 18.1 48.1 19.8 95.2 42.9 146.7 52.3 18.2 3.3 49.9-5.4 68.5-10.5 43.5-11.9 88.1-42.8 132.3-52.7 24.3-5.4 68.3-12.8 92.6-12.2 8.4.2 33.8 13.1 37.9 11.8 5-1.6 37.1-67.5 42.9-77.2.6-1.1.5-2.4.9-3.5h.3Z" class="outline shading" data-original-prefix="shading" opacity="0.5" style="opacity: 0.5"/><path id="shading-mouth2" fill="#aaaaaa" d="M960.8 1425.3c17.2-1.1 35.4-.2 52.8-.3 37.9-.2 73-1 110.7 5.3 45.8 7.7 95.1 21.4 140 34 1.8.5 11.8 3 11.8 4.2-1 1.5-2.6 1.4-4.1 1.8-47.4 13.6-118.1-22.6-168.3-25.4-35-2-73-.3-108 0-20.4.2-42.9-1.5-62.9 1.1-45.6 6-112.9 36.7-156.5 24.2-1.5-.4-3.1-.3-4.1-1.8 0-1.2 10-3.7 11.8-4.2 53.4-15 122.2-35.5 177-39h-.2Z" class="outline shading" data-original-prefix="shading" opacity="0.5" style="opacity: 0.5"/><path id="shading-mouth1" fill="#aaaaaa" d="M1227.4 1689.4c-.3.2-1 3.8-1.2.3 9.4-22 13.5-45.6 16.8-69.2.3-2.2.2-1.3-1-1-2.6.7-6.2 1.4-8.5 2.5-4.8 2.3-18.2 19.9-22.9 25.1-29.8 32.3-60.9 60.8-96.8 86.2l-3.7.3c11.4-16.1 30.5-32.6 25-54.5-9.4 2.8-17.3 8.7-25.3 14.2-31.2 21.6-58 49.7-86 74.7-27.4-25.4-54.6-53.4-85.3-74.7-7.9-5.5-16-11.3-25.3-14.2-5.6 22 13.5 38.4 25 54.5-3.1 1.6-6.8-1.9-9.3-3.7-17.2-11.8-42.2-32.9-57.7-47.3-19.7-18.3-36.9-41-55.7-60.3l-9.8-3.2c.8 24.6 8.3 48.7 16 72-3.5-3.4-7.9-6.2-11.5-9.5-6.1-5.4-20.1-18.5-24.4-24.6-7.1-10-16.8-33.6-22.3-45.7-3.1-6.8-4.6-14.2-9.3-20.2 9.5-2.2 19.9-9.2 29.5-10 14-1.2 46 16.5 59.5 23.5 62.5 32.3 121.8 70.8 180.5 109.5 54.4-35.1 108.8-70.4 165.8-101.1 13.2-7.1 26.7-14.4 40.3-20.7 11.3-5.2 24-12.6 36.6-10.9 4.1.6 21.5 6.9 25.1 8.9.9.5 2 .8 1.6 2.1-3.7 5.9-5.4 12.6-8.2 18.9-5.2 11.8-15.4 36.1-22.3 45.7-4.3 6-17.5 18.2-23.4 23.6-3.5 3.2-7.8 6.1-11.6 8.9h-.2Z" class="outline shading" data-original-prefix="shading" opacity="0.5" style="opacity: 0.5"/><path id="outline-mouth5" fill="#000000" d="M1389.4 1512.4c-5.6 5-11.3 6.2-16.8 10.7-9.6 7.8-21.2 36.9-26.7 49.3-4.3 9.7-8.2 19.6-12 29.5-1.4.5-2.9.2-4.3.2-7.8-.5-18.9-4.2-26.1-4-6.1 0-10 15.8-12.3 20.7-8.3 18.5-17.2 39.5-27 57-10.7 19-18.7 20.5-34.7 33.3-69.6 56-132 124-197.6 184.4-4.2 3.9-5.8 10.9-12.5 4.5-67.2-64.3-133.5-135.4-206.6-193.4-14.9-11.8-19-11-29.1-28.9-9.8-17.5-18.7-38.5-27-57-2.3-5.1-6.2-20.6-12.3-20.7-7.1-.2-18.3 3.6-26.1 4-1.4 0-2.9.3-4.3-.2-3.8-9.9-7.7-19.8-12-29.5-5.6-12.7-17.2-41.9-27.3-49.7-8.1-6.3-16.5-6.4-22.1-16.9-13.1-24.5-18.1-59.8-30.6-85.4-1.1-7.7.2-11 8.2-11.3 17-.6 39.9 4.4 58 5.1 23.3.9 46.8.3 69.7-3.4 8.6-1.4 26.3-4.1 33.6-7.4 10.4-4.6 25.8-30.5 39.7-39.3 20.2-12.9 48.4-22.7 70.2-34.8 29.5-16.3 56.6-37.6 86.9-52.1 17.2-3.3 63.7-4.5 78.7 3.1 26.3 13.3 52.7 34.4 79 49 21.3 11.8 61.7 26.2 78.2 40.8 8.3 7.3 23.1 29.2 30.9 33.1 10.2 4.9 47.7 10.2 60 11 33.9 2.1 65.2-3.9 98.1-5 9.3-.3 13.9.3 12.3 11.3-10 24.1-16.5 49.7-26 74-3.1 7.8-4 12.4-10.4 18.1h.3Zm-2.4-74.4c-17.5-.2-35 1.6-52.6 1-22.5-.7-67.4-4.6-88-12-15.1-5.5-34-33.6-49.2-43.8-22.2-15.1-52.1-28.3-76-42-22.3-12.8-44.1-26.5-66.1-39.9-20.2-1.9-43-2.5-63.1.3-21.7 13.3-43.3 26.8-65.5 39.6-23.9 13.7-53.8 27-76 42-13.7 9.3-25 25.5-37.7 36.3-11.8 10-24.8 10.9-39.7 13.3-36.9 6-73.5 7.2-110.9 5.2l-1.5 1.5 21.6 60.4c4.6 4.2 10.9 5.5 15.8 9.2 8.5 6.4 16.8 27.2 21.5 37.5 5.1 10.9 9.7 22.1 14.2 33.3 21.5-3.1 45.5-13.6 67.4-10.9 5.9.7 21.3 11 27.4 14.6 49.5 29.2 99.3 60.8 146.8 93.2 12.5 8.5 24.6 18.8 37.4 26.6 2.7 1.6 8.9 5.8 11.4 5.7 2.2 0 12.5-7.1 15.2-8.9 59.9-39 117.6-80.2 179.4-116.6 6.1-3.6 21.5-13.9 27.4-14.6 21.9-2.7 46 7.9 67.4 10.9 4.5-11.2 9.2-22.4 14.2-33.3 4.8-10.2 13.1-31.1 21.5-37.5 3.5-2.6 14.3-6.7 15.8-9.2 1.6-2.8 3.3-11.3 4.8-15.2 2-5.4 18.5-45 16.8-46.8h.3Zm-110 155c-8.8-.9-17.5-4.1-26.4-2.9-6.5.9-19.3 8.1-25.6 11.4-69 36.1-135.2 77.9-197.6 124.4-2.2 1.5-4.6 1.5-6.8 0-62.4-46.5-128.6-88.3-197.6-124.4-6.3-3.3-19.1-10.5-25.6-11.4-8.8-1.2-17.9 1.6-26.4 3.4 17.3 26.8 28.9 56.9 46.5 83.5 68.9 48.7 128.4 107.7 186.6 168.4l20.5 23.5c5.6-8.3 12.6-16.2 19.5-23.5 57.7-61.5 118-119.1 186.6-168.4 11.9-17.2 20.2-36.6 29.9-55.1l16.5-29Z" class="outline" data-original-prefix="outline"/><path id="outline-mouth4" fill="#000000" d="M1216 1501c-5 15.8-22.6 23.3-36.6 29.8-40.8 19.1-98.2 39.1-142.3 47.7-23.9 4.6-68.5-10.7-92.5-18.5-28.4-9.3-67.8-22.8-93.2-37.8-5.7-3.3-18.1-13-19.3-19.7-.3-1.6 0-1.7 1.5-1.5 8.4 1.1 19.7 1.4 27.4 3.6 6.7 1.9 15.6 7.6 22.5 10.5 24.7 10.3 49.9 20.1 75.2 28.8 27.3 9.5 56 22.4 85.3 15.2 33.6-8.3 75.7-25.6 108.2-38.8 10.6-4.3 25.3-12.9 35.2-15.8 8.9-2.6 19.7-1.7 28.8-3.7z" class="outline" data-original-prefix="outline"/><path id="outline-mouth3" fill="#000000" d="M1244 1474c-7.2-1-14.4 1.8-21.4.9-10.3-1.3-24.4-6.4-35.4-8.6-106.4-21.2-198.4-23.4-305.4-4-17.9 3.2-39.7 10.4-56.4 12.6-7 .9-14.3-1.9-21.4-.9 1.7-3.3 5.7-4.4 9-5.5 23.4-8 58-14.9 82.8-20.2 93.1-20 173.4-18.6 266.2 2.2 22.1 5 51.2 10.8 72.2 17.8 3.5 1.2 7.9 2.2 9.8 5.7" class="outline" data-original-prefix="outline"/><path id="outline-mouth2" fill="#000000" d="M978 1773c-2 2-12.7-7.2-14.5-9-33.9-33.8-65.2-78.9-96.7-115.3l-2.8-5.7c1.1-1.1 27.5 9.2 29.4 11.1 23.5 34.2 49.9 66.4 73.4 100.6 1.4 2 12.1 17.4 11.2 18.3" class="outline" data-original-prefix="outline"/><path id="outline-mouth1" fill="#000000" d="m1184 1643-2.8 5.7c-31.6 36.4-62.8 81.5-96.7 115.3-3.6 3.6-9.3 8.6-14.5 9-.9-.9 9.8-16.3 11.2-18.3 23.5-34.2 49.9-66.4 73.4-100.6 1.9-1.8 28.3-12.2 29.4-11.1" class="outline" data-original-prefix="outline"/>
    </g>
</svg>