<?xml version="1.0" encoding="UTF-8"?>
<?xml-stylesheet type="text/css" href="styles/collection.css"?>
<svg xmlns="http://www.w3.org/2000/svg" viewBox="0 0 2048 2048"><g id="01_background" data-trait="blue"><path id="color-blue" fill="#2f5496" d="M2048 0v2048H0V0z"/></g><g id="02_Jaw" data-trait="OG-cracked"><defs>
    
  </defs>
  <path id="fill-jaw" class="fill"  class="st0" d="M1396.7,1438.7c-6.7,4.3-46.8-1.7-48.7.3l-12.2,69.8-57.2,29.3-1.4,1.6c-1.5,11.9,1.5,24.2.9,35.9-.3,4.9-1.3,15-2.3,19.7-.6,2.8-13.7,32.2-15,33.5s-16.1,8.9-16.7,8.3l-9.5-50-51,52c-7.7,5.7-20.7,9.3-27.5,15.5-14,12.7-25.2,37.4-42.1,47.9-5.4,3.3-61.3,25.7-66.7,26.3-13.8,1.7-33-3.3-47.7.2-17.7-10.3-50.1-16.2-66.1-26.9-14.3-9.6-28.3-35.6-41.4-47.6-6.7-6.1-19.9-9.6-27.5-15.4l-51-52-9.6,48.4c-.6.9-.9,1.7-2.2,1.5-.8,0-13.8-7.6-14.4-8.2-1.4-1.4-15.9-33.3-16.2-35.3l-.5-54.4-58.2-30.3-12.3-69.7c-8.1-1.2-45.1,3.9-49.5-1l-37.1-85-.5-3.4,31.5-70.6c5.3-1.6,29.1,0,31.3-6.7.8-2.3-.6-19.5-1.3-22.4-2.2-8.4-16.2-24-19.8-33.2-.7-1.7-1.2-3.1-.6-5,4.7-11.3,10.3-22.3,14.1-34,7.3-22.4,7.2-42.6,16.9-65.1,47.5-110.2,188.9-176,299.9-200.1,44.7-9.7,79.8-1.5,122.7,11.2,98,28.9,222.6,97.5,259,199,6.8,19,7,38.1,13.5,57.5,3.8,11.2,10.1,22.1,13.7,33.4,0,1.4-8.3,16.4-9.8,19.1-2.4,4.3-9.7,13.4-10.7,17.3-1.8,6.8-.6,15.6-2.3,22.5,9.9,7.9,21.3,4.2,32.4,6.5,9.6,23.9,23.5,46,31.4,70.6-9.8,26.3-22.2,51.8-33.2,77.7-1.3,3-1.7,9.3-5.1,11.4h0Z"/>
  <path id="shading-jaw" class="shading"  class="st1" d="M1380.8,1185.8c-.2.4-2.1.7-2.8,1.7-8.6,10.8-16.2,26-21,39-4.2,11.4-5.1,22.7-13,32-18.8,22.4-51.8,45.5-78.3,57.7-5.4,2.5-12.5,3.7-16.7,7.8h20.5c2.7,0,5.1,1.2,7.9,1.1,18.1-.2,64.4-19.8,77.5-32.6,5.7-5.5,14.1-15.7,15-23.5,1.8,0,.7,2.4,1.5,4,3.1,5.9,15.5,5.2,21.5,6,.2,1.6-1.5.7-2.3,2.2-4.6,8.3-4.4,21.6-10.6,28.3-7.5,8.1-37.1,13.5-48.8,17.2-14.5,4.6-29.8,8.8-42,18.1l-52.8-14.8c-19.3-2.3-9.9,15.4-5.3,25.3,5.2,11.3,20.7,40,30.4,46.6,11.9,8.2,22.7-10.2,30-17,6.3-6,16.2-11.8,24.6-14.4,17.7-5.6,32.3,4.7,50.5,5.4,17.4.8,34.6-7.7,48.8-17.2,3.6-2.4,14.6-13.9,17.2-13.8,1.7,0,3.3,6.1,1.8,7.8-10.1,24.3-21.6,48-31.8,72.2-3.7,8.8-.8,14-13,15-9.3.7-15.8-1-24.2-1.8-4.8-.4-11.8,2.5-17.3-.2l-12.9,70.6-59,30.5c.4,11,2.6,23.6,2,34.5-.3,5.7-1.3,15.4-2.1,20.9-.5,3.1-13.4,31.4-15.4,33.6-3,3.2-11.6,6.2-15.5,9-.8-4.9-2.7-10.6-3-15.5-.6-11.2,2-11.3-2.7-23.2-.4-1.1-1.9-1-2.2-2-.8-2.2-.8-6.7-1.1-9.2l-2.3.2-50.2,51.8c-7.7,5.2-19.5,8.7-26.5,14.5-14.2,11.7-24.4,36.1-41.5,47.5-6.7,4.5-54.2,25.7-61.2,26.8-9.9,1.5-51.8,1.6-61.5,0-6.9-1.2-49.7-20.5-57.3-24.7-15.8-8.9-30.2-37.8-44.4-49.6-6.9-5.7-19-9.3-26.5-14.5l-51-52c-1,8.1-7.3,16-8.1,24-.6,6.2.6,14.6-.3,21.6-.2,1.7-3,1.8-2.1,4.4-.6.7-14.6-8.1-15.5-9-1.7-1.8-15-30.8-15.4-33.6-.7-4.4-.9-13-1.1-17.9-.5-12.2.6-24.4.5-36.6l-58.5-31.4-13-69.5-48.8-.2-38-86.6.9-6.2c8.2.4,11.8,8.2,18.6,12.7,25.3,16.9,38.4,19.8,68.5,13.9,17.1-3.4,19.1-7.5,37.2.4,15.9,7,19,16.2,30.6,25.4,9.6,7.6,13.6,7.9,22-1s31.8-49.1,32.1-60c.2-8.7-6.4-8.1-13.3-7.2-8.6,1.1-48.4,15.1-51,14.6-1.7-.4-12.3-7.9-16.5-9.6-20.3-8.4-48.8-11.8-67.2-20.8-14.9-7.3-11.3-20.9-17.7-33.2-.9-1.6-2.5-.6-2.3-2.2,6.3-.9,17,0,21-5.5,1-1.4.3-3.7,2-3.5,3,11.7,15.2,23.9,25.1,30.4,21.2,13.8,50.4,23.7,75.4,23.5h20.5l-34.7-16.8c-19.1-10.8-48.2-33.1-61.8-50.2-6.2-7.8-7.1-18.3-10.5-27.5-6-16.6-14.4-32-25-46,1.3-9,6.5-19.6,7.8-28.2,1.9-12.9,1.8-19.5,6.5-32.5,36.4-101.1,159.2-169,256.8-198.2,49.9-15,102.4-18.2,153.2-5.2,103.5,26.4,242.6,100.3,277.2,208.8,3.4,10.5,3,17.3,4.8,27.2.8,4.7,8.9,28.4,7.6,30.6l-.5-.2ZM1195.9,1382.1c-32.3-16.1-63.1-35.3-95.9-50.7-17.5-18.7-37.4-36.6-54.6-55.4-4.8-5.3-11.2-16-16-20-3-2.6-7.4-3-10.6-.6-4.5,3.4-12.7,16.4-17.4,21.6-16.7,18.6-36.8,35.6-53.6,54.4-32.9,15.3-64,34.2-96,51.2-.6,2.8,12.4,35,14.6,40.3,2.9,7.1,12.1,31.7,16,36.1,7.1,8,36.5,26.3,47,33,19.8,12.7,36.1,22.9,59.3,28.7,27.3,6.8,39.7,7.1,67,.6s43-16.6,65.7-31.3c10.4-6.8,35.9-22.5,43.4-30.6,4-4.4,12.7-27.4,15.6-34.4,2.1-5.1,16.8-41,15.5-42.9M728.3,1496.7c1.6,2,8.2,6.3,10.7,7.8,14.7,8.8,31.8,13.8,46.9,23.1,16.8,10.2,40.2,33.1,59.6,33.5,2.3,0,8.7-1.2,9.4-3.7s-13.6-27.6-16.4-30.3c-7.3-7.1-27.5-17.2-37.2-23.8-15.2-10.3-50.3-39.1-67.9-39.2-10.5,0-8.7,28.1-5.1,32.7h0ZM1319.7,1466.3c-5.9-5.9-24.1,4.1-30.4,7.6-16.2,8.9-31,21.4-46.2,31.8-12.7,8.7-30.1,15.7-38.6,28.4-2.2,3.4-10.8,17.7-11.4,20.7-1.1,5.3,6.2,6.5,10.3,6.3,16-.9,23.4-9.7,35.2-17.8,9.2-6.3,19.3-13.6,29-19,11.7-6.6,47.1-19.2,52.7-29.3,2.4-4.3,2.8-25.2-.7-28.6h0ZM1126,1664c-12-2.7-20.7,6.6-31.6,7.9-5.7.7-12.2-1.2-16.6-.7-7.1.8-22.9,12.1-31.2,14.9-14.8,4.9-30.2,4.7-45.1,0-8.8-2.8-23.9-14.1-31.2-14.9-4.4-.5-10.9,1.4-16.6.7-11-1.3-19.9-11-31.6-7.4,0,6.9,23.8,23.5,30,27,12.5,7.1,59.8,26.8,72.5,26.6s59.9-19.8,72.2-26.9c10.3-6,24.6-16.2,29.3-27.2h-.1Z"/>
  <path id="outline-jaw" class="outline"  d="M676,1140c5.2-3.1,18.7-3.2,19.1,4.5,0,2.3-.8,11.2-1.1,14-.3,3-.9,8.4-2.1,10.9-2.5,4.9-17.3,13.6-20.1,19.9-1.2,2.6-6.4,25.9-6.7,29.3-.2,1.7,0,2.8.4,4.4,2.1,6.9,13.8,19.7,17.7,27.3,5.7,11,7.2,24.3,12,35s13.5,10.7,22.5,15.6,17.7,11.1,25.3,17.2c-3.1,0-6.3.2-9.4,0-7.7-.8-35.8-6.7-41.8-10-6.1-3.3-8.8-18.4-12.8-20.4-2.5-1.2-7,0-10.3-.7-6.7-1.2-9.9-7.8-17.5-1.5-6.7,12.4-14.3,24.3-20.4,37.1-7.4,15.4-14.8,25.1-4.8,41.2,5.2,8.4,23.4,27,25.6,34.4,2.5,8.4-2.4,27.4,2.4,33.6,5.4,6.9,20.6,5.2,27.7,1.7,11.1-5.5,9.2-10.1,14.9-19.1,5.3-8.3,20.9-24.3,30.4-26.7,7.7-1.9,12.3,10.3,14,16,4.9,15.9,2,31.2,13.9,44.1,1.1,1.2,9,8.5,10,7.5-.8-5.6,4.8-8.4,6.5-13,3-7.9-3.1-20.6-5-29-2.8-12.3-5.1-24.7-8-37-1-4.1-6.2-19.9-5.4-22.3,1.2-3.8,23.7-9.1,24.9-10.7.4-.5-2.9-8.7,0-12.6,1.3-1.8,8.8-6.8,11.1-8.9,3.9-3.5,23.1-22.9,25.7-23.4,4.4-.8,5.2,2.4,8,3.6,5.1,2.1,10.8,2.5,15.7,4.3,1.1.4,2.4.5,2.5,1.9-11.2,6.3-23.6,13-34.3,20.2-2.7,1.8-16.6,11.8-17.6,13.4-1.6,2.6-2.2,9.7-2.2,12.9l3,44.5c-9.8-13.1-8.1-31.3-10-47-2.5,1.9-15.3,3.5-15.9,5.6,4.5,18.6,8.6,38.8,15.1,56.7,7.3,20.1,19.2,40.4,27.7,60.3,11.1,7.8,27.2-5.8,33-15,5.6-8.7,8.1-23.6,22.5-13.5,11,7.7,22.9,21.4,33.5,30.5,48.3,41.3,92.1,59.6,157.4,50.3,40-5.7,69.7-25.7,99.7-51.3,6.2-5.3,32.4-31.5,37.5-32.5,11.9-2.2,14.8,13.8,21.4,21.5,7.4,8.7,17.4,14.2,29.1,12,4.4-.8,21.2-8.4,26.3-10.7,9.2-4.2,20.3-11.4,27.2-18.8,10.4-11.3,8.4-24,12-38,1.7-6.6,6.3-23.8,15.5-21.6,10.7,2.6,27.2,21,32.6,30.4,1.7,3,2.2,6.8,3.9,9.1,6.3,8.5,28.5,13.3,36,5.1,5.6-6.1.4-25.5,2.9-34.1s20.4-25.8,26-35c9.4-15.8.8-28.3-6.5-43.3-5.8-11.8-13.2-22.7-19.2-34.3-7.1-5.6-12.2.4-18.5,1.5-2.9.5-6.9-.4-9.3.7-3,1.4-6.8,14.4-9.5,17.5-1.4,1.6-7.6,4.3-9.9,5.1-8,2.8-25.7,6.6-34.3,7.7-3.4.4-6.8.2-10.2.2,6.6-5.5,15.7-12,23.3-16.2,11.5-6.3,19.8-5.1,25.5-19.5,3.9-9.8,5.3-20.7,10.3-30.7,3.9-7.7,16.9-22.6,18.7-29.4.4-1.7.2-2.8,0-4.5-.6-4.4-5.6-25.6-7.2-28.8-3.7-7.3-19-15.9-20.5-21.5-.8-3.2-2.6-24.3-1.6-26.4,2.1-4.5,12.7-3.4,16.5-1,.5,1.9,4.4,14,5,14.5,6.2,5.3,26.1,4.1,26.1,17s-1.7,15.9.2,26.7c1.7,9.8,9.7,22.5,6.4,31-2.3,6-12,20.9-15.9,27.1-3.6,5.6-8.1,10.6-11.8,16.2,8.8.3,18.9-17.9,26.1-12.1,3.4,2.8,13.7,18.6,16.7,23.3,5.1,7.9,10.9,17.6,15.1,25.9,3.9,7.8,17.4,38.8,16.1,45.8-.2,1.2-13,15.6-15.2,18.8-10,14.2-21.3,32.5-25.7,49.3-1.9,7.2-2.7,14.7-4,22-1,1.4-27.6,11.9-31.1,12.9-10,2.9-17.2,1.5-24.9-5.4-.9,8.8-2.6,17.7-3,26.5s1.7,33.1-.8,39.2c-.6,1.5-11.3,15-12.5,15.5-6.3,3-15.7-1.7-24.7,3.3-22.6,12.7-18.8,48.5-26.9,68.1-6,14.6-40.4,52.5-54.6,59.4-1.2.6-2,1.3-3.6.9,1.2-14.7,3-35.1-3.9-48.6-.4-.8-.4-3.2-2.1-1.4-.7.7-3.6,13.8-6.6,17.9-8.6,11.7-30.9,6.8-39.2,20.8-5.2,8.9-7.6,22.3-13.4,30.6s-48.5,28.9-59.6,33.4c-15.1,6.1-64.1,21.2-78.8,21.2s-63.4-15.1-78.8-21.2c-11.1-4.4-55.3-26-60.6-34.4-6.9-11.1-8.5-31.6-21.5-37.6-14.4-6.6-26.5-2.6-33.9-20.1-1.1-2.5-2.5-10.3-2.8-10.7-1.3-1.6-1.8.4-2.2,1.3-1,1.8-4.8,14.6-4.8,16.2v30c0,.3,1.4,1.4,1,2.5-1.7.2-3-.3-4.4-1.1-15.2-8.7-49.8-45.6-54.8-62.2-6.2-20.6-5.2-52.1-25.9-65.1-8.2-5.2-18.3-.3-24.7-3.3-.9-.4-12.2-14.2-12.7-15.3-2.1-5.2-.2-29.6-.5-37.4-.4-9.1-2-18.5-3-27.5-4,1.6-7.6,4.7-11.9,5.6-2.8.6-5.6.7-8.5.3l-35.7-14.3c-1.5-7.3-2.1-14.8-4-22-4.3-16.8-16.4-36.3-26.5-50.5-2.2-3-13.9-15.8-14.2-16.8-1.1-3.6.8-8.3,1.8-11.8,5-18.6,17.3-42.1,27.6-58.4,2.5-4,17.5-26.2,20.1-26.9,6.2-1.8,15.2,12.1,22.3,12.8.7-.7-9.3-13.3-10.4-15.1-4-6.2-14.5-22.3-16.8-28.2-2.7-7.1,5.4-22.1,6.9-30.5,1.9-10,.2-18.4,1.3-27.7,1.2-11,17.6-11.6,25.8-15.7,2.1-4.7,2-9.6,3.2-14.8h.4v-.2ZM799,1627.5v-20c0-3.5,9.1-26.6,11.7-27.4,6.9-2.2,27.9,17.6,32.8,22.9,7.6,8.1,14.7,20,23,27,10.5,8.8,23.6,12.8,33.5,23.6,22.2,24.2,21.6,36,55.1,50.9,29.5,13.1,59.4,23.9,92.4,17.4,12.7-2.5,58.9-21.3,68.9-29.1,12.4-9.6,23.1-31.8,35.2-42.8,9.6-8.8,25.5-14.6,34.6-23.4,6-5.9,12.7-15.8,18.4-22.6,2.8-3.3,8.4-7.2,10.3-10.7,4.4-8.2,10.5-40.4,10.3-49.8-.3-12.5-3.5-25.3-4.2-37.8-17.1-12.8-20.5-.4-31.4,9.3-16.5,14.9-41.1,22.8-63,25-69.4,7-135.6,7-205,0-22-2.2-46.4-9.9-63-25-7-6.3-10.5-15.9-22-15.1-3.7.3-6,3.1-8.5,3.7-4.9,1-22.9-12.7-28.3-15.8-18.4-10.2-46.1-20.5-61.1-34.9-6.9-6.6-2.4-11.8-2.5-19.5s-3.8-23.4-6.8-30.2c-.5-1.1.2-1.5-1.7-1.3-9.4,1.3-19,20.2-19.3,28.8-.2,6.3,6.7,18.5,7.6,26.9,1.5,13.9-4.4,40.4,8.8,49.2,12.8,8.6,39.9,13.7,50.8,26.2,5.7,6.6,1.5,7.9.7,14.6-3.6,29.6,1.4,55.9,20.9,78.9.5.6,3.9,4,2,1h-.2ZM1248,1630c19.4-21.2,26.1-39.8,25-68.5-.3-7.8-4-21.4,0-27.8,4-6.1,20.2-13.6,27.2-16.8,15.2-7.1,31-7,32.7-27.3,1.3-14.8-1.6-26.3,2.5-41.5,3.4-12.7,7.8-13.2,2.5-27.5-2.8-7.7-9.2-17.6-18-18.4-5.5,13.3-7.4,26.1-7,40.5,0,3,2.2,4.9,0,8.1-1.5,2.2-16.5,12.2-19.8,14.2-9.2,5.7-59,28.5-60.9,35.1-2.7,9.4,7.3,31.3,8.6,41.6l-10,40.5c2.4-1.4,5-2.6,7.9-1.9,6.7,16.4,13.1,31.6,9.1,49.9v-.2h.2ZM780,1448c-2-1.4-5.5,2.6-5.8,4.7-.9,5,7.2,15.1,12.8,15.2-.9-2.6-6.1-19.4-7-20h0Z"/></g><g id="03_Mouth" data-trait="jaws"><path id="fill-mouth-main" class="fill"  fill="#fff" d="M1102 1287c.4.6-2.2 4.3 0 5.5 50.4 27.6 100.7 55.4 145.8 91.1-5.2 15.8-10.4 31.6-16.7 47.1-5.9 14.4-8.3 22.4-12.7 37.3-13 44.8-25.3 89.9-38.3 134.7-3.4 15.6 7.3 31.3 8.8 45.8.5 5.4-1.6 24.6-3.1 29.9-2.4 8.9-12.3 10.5-19.9 15.1-23.1 14.2-44 33.8-68.7 45.3-38.6 17.9-94.7 18.9-134.6 4.9-30.8-10.8-53.7-33.5-80.8-50.2-5.6-3.4-16.3-6.9-18.8-12.2-2.2-4.7-4.6-27.2-4.1-32.9 1.2-14.4 12.1-30.2 8.8-45.8-13.8-47.4-26.5-95.2-40.5-142.5-3.7-12.4-5.6-17.8-10.5-29.5-6.4-15.4-11.4-31.2-16.7-47.1 45.2-35.6 95.4-63.7 145.8-91.1 2.2-1.2-.5-4.8 0-5.5.2-.2 3.4-1.1 4.7-1.9 25.5-15.1 52.3-31 83.7-27.1 24.4 3.1 42.7 15.5 62.9 27.1 1.2.7 4.5 1.7 4.7 1.9h.2Z" class="fill" data-original-prefix="fill"/><path id="fill-mouth-teeth13" class="fill"  fill="#fff" d="m1042 1510-1.9 71.5c-.9 11.5-1.7 23.4-2.1 34.9-.2 7.7 1.3 20.2 0 27-.5 2.5-12.9 11.6-14.3 11.4-1.2-.2-13.2-8.9-13.7-11.4-.2-44.5-3.3-88.9-4-133.5l17.6 16.9 18.3-16.9Z" class="fill" data-original-prefix="fill"/><path id="fill-mouth-teeth12" class="fill"  fill="#fff" d="m1000 1637-20-15.5c-1.8-.5-2.8-4.4-3-4.5-.8-.5-3 3.8-5 3-.4-20.5-.2-41.1-1-61.5s-2.9-41.1-2.5-61.4l11-14c3 4.2 18.8 16.6 19.2 20.6.4 3.5-.9 11.2-.8 15.9.8 20.4 1.8 41.5 2.1 61.9.2 18.5-.2 37 0 55.5" class="fill" data-original-prefix="fill"/><path id="fill-mouth-teeth11" class="fill"  fill="#fff" d="M1076 1620c-2 .8-4.2-3.5-5-3-.2.2-1.2 4.1-3 4.5l-20 15.5c.2-18.5-.3-37 0-55.5.2-20.4 1.3-41.5 2.1-61.9.2-4.7-1.2-12.4-.8-15.9.4-4 16.2-16.4 19.2-20.6 2.1 3.9 9.5 10.8 11 14 1.8 3.8-1.3 28.2-1.5 34.4-.3 9-.7 18.1-1 27-.7 20.5-.6 41.1-1 61.5" class="fill" data-original-prefix="fill"/><path id="fill-mouth-teeth10" class="fill"  fill="#fff" d="M1114 1651c-3.8-.4-4.7-3.2-5-6.4-1.4-14.4 1.7-35 2.1-50 .6-21.9 0-43.7 2-65.5 3.3.2 4.2 1.9 7.1-.4 6.2-5.1 13.2-22.1 19.9-28.8s2.8-2 3-1.8l-9.1 120.4-20 32.6Z" class="fill" data-original-prefix="fill"/><path id="fill-mouth-teeth9" class="fill"  fill="#fff" d="M907.7 1499.3c7 6.2 13.8 23.9 20.3 29.2 2.9 2.4 3.8.6 7.1.4 1.5 10.5.6 21 1 31.5.7 20.9 1.5 42 2 63 .2 5.8 4.1 25-2.5 27.4-1.7.6-6.8-10-8.5-11.4l-12.9-21.1c-3.3-40.1-5.6-80.4-9-120.4 0 0 2.2 1 2.7 1.3h-.2Z" class="fill" data-original-prefix="fill"/><path id="fill-mouth-teeth8" class="fill"  fill="#fff" d="M903 1601c-7.1-6.3-5.5-23.9-18-13l-17-142c10.4 12.2 19 26.1 28 39.5 1.9 38.5 3.8 77.1 7 115.5" class="fill" data-original-prefix="fill"/><path id="fill-mouth-teeth7" class="fill"  fill="#fff" d="M1163 1588c-12.5-10.9-10.9 6.7-18 13l4-51.5 3.1-63.9c8.9-13.4 17.5-27.3 27.9-39.5l-17 142Z" class="fill" data-original-prefix="fill"/><path id="fill-mouth-teeth6" class="fill"  fill="#fff" d="M963 1507c-.7 40.2 2 80.1 2 120.3-1.9 1.4-17.9 15-19 13.7.9-38.3-2.3-76.2-2-114.5l15.4-18.6z" class="fill" data-original-prefix="fill"/><path id="fill-mouth-teeth5" class="fill"  fill="#fff" d="M1102 1641c-1.1 1.3-17.1-12.3-19-13.7.4-22.3.5-44.6 1-66.8 0-2.4 1-4.6 1.1-6.9.3-15.5-.3-31.1 0-46.5l3.6.9 15.4 18.6c.3 38.2-2.9 76.2-2 114.5Z" class="fill" data-original-prefix="fill"/><path id="fill-mouth-teeth4" class="fill"  fill="#fff" d="M875 1581c-1.5.2-1.3-1.7-1.7-2.8-3-8.8-6.1-18.6-8.6-27.4-10.7-37.7-11.6-78.6-17.8-117.3 0-3.9 3-6.9 5.6-9.5 3.4 3.5 5.8 6.6 6.4 11.6 1.2 10.1 1 21.5 2.1 31.9 3.8 35.2 11.2 72.2 14 107 .2 2.2 0 4.3 0 6.5" class="fill" data-original-prefix="fill"/><path id="fill-mouth-teeth3" class="fill"  fill="#fff" d="M1172 1580c6.3-40.6 11.8-81.6 16-122.5 1.2-11.5-1.6-25.4 7.5-33.5 2.6 2.6 5.7 5.5 5.6 9.5-7.6 47.5-8 99-26.1 144-.6 1.6-.8 2.9-3 2.5" class="fill" data-original-prefix="fill"/><path id="fill-mouth-teeth2" class="fill"  fill="#fff" d="m843 1439 4 53-5.7-15.8c-1-7.8-7.5-23.8-4.4-30.8.5-1.1 2.9-4.1 3.8-5.2.6-.7 0-1.9 2.3-1.3Z" class="fill" data-original-prefix="fill"/><path id="fill-mouth-teeth1" class="fill"  fill="#fff" d="M1207 1439c.3.3 4.7 7.3 4.8 7.7 1.3 4.9-3.4 23.5-5 29.5l-5.7 15.8 4-52.5c0-.9 1.9-.6 2-.5z" class="fill" data-original-prefix="fill"/><path id="outline-shading-mouth4" class="outline"  fill="#000" d="m900 1319-56.5 57-14 16c-1.9 4.1 3.2 15.8 2.5 21 4.2-1.8 14.7-13.4 18.4-13.1 4 .3 8.8 14.9 10.3 18.8 2.5 6.3 4.5 12.8 6.8 19.2 18.7 24.5 38.6 48.2 57.4 72.6 3.8 5 3.2 9.2 10.1 7 3.2-1 13.7-10.2 17-13 10.5-9 19.8-20 30.5-28.6l41.1 41 41.9-41c13.1 10.8 24.4 24.6 38 35 3.2 2.5 10.4 9 14.5 6.5l61.8-79.2c3.6-6.3 11.7-36.7 16.9-38.2 4.6-1.3 17.3 14.1 19.3 11.9-.8-5.2 4.4-15.8 2.5-20-20.7-25.2-46.1-46.1-68-70-.7-.7-2.7-2-2-3 34.5 16.7 65.1 39.8 96 62 2.5 5.1-7.2 33.5-9.8 40.2-2.7 7.3-6.2 13.8-9.2 20.8-3.2 7.3-3.5 21.2-14.5 14l-8.5 50-2.5 1c-.2-19.8 1.9-39.7 4-59.4-2-4.9-6.9-13.6-8.8-3.8-4 21.5-4.5 48.2-7.4 70.6-3.6 28-8.2 56-12 84-2 14.9-3.3 16.2 1.9 31.4 1.3 3.8 7.2 14.6 7.4 16.7s-6.3 26.7-7.6 29.5c-2.4 5.5-34.3 27-41.2 30.8-23.5 12.8-65.3 23.2-92 27-44.3 6.3-112.7-12.8-149.7-38-4.2-2.9-22.5-15.7-24.1-18.9-1.2-2.3-7.8-28.2-7.7-30.4 0-2.1 7-16.2 8.3-20.7 4-13.7 2.7-13.4.9-26.4-7.5-52.8-15.1-105.5-20.4-158.6-2.2-5.2-7.7 4.9-7.9 7.8 2.1 19.4 4 39 4.1 58.5h-3l-8-51c-11.6 7.2-11.3-6.6-14.5-14-5.7-13.3-11.5-25.2-15.5-39.5-1.5-5.2-6.1-18.6-2.5-22.6 31.2-21.3 60.9-45.2 95.5-60.9zm-34.5 137v1c.7-.3.7-.7 0-1m315.5 1c-3.8 9.4-17.3 19.9-21.1 28.4-3.4 7.8-1.6 20.7-3.9 29.1l-3 60c.6 3 10.1 7.9 13.4 8.4zm-286.2 118.8c-1.8-29.7-2.2-59.6-6.1-89.1-7.3-9.7-14.3-20.1-22.7-28.8l14 125c6 0 10-4.5 14.8-7.2ZM995 1627c-.8-15.5-.4-31.1-1-46.5-.7-20.6-1.2-43.5-3-63.9-.3-3.6-.4-13.4-4.5-13.5-2.5 0-20 10.7-20.5 13.5 2.4 20.6 1.2 41.4 1.9 62 .2 6.2.6 13.8 1.1 19.9s3 12.8 2 19.5l5.4-5c1.5 2.2 17 15.7 18.6 14m82-10c-.8-6.9 1.6-13.7 2.1-20.4 1.1-17.4.3-35.7.9-53.1.3-8.7 2-18.1 2-26.9s-1-2.1-2-3c-2.2-1.8-17.3-10.9-19.3-10.4-2.9.7-3.4 7.6-3.7 10.4-3.3 35.8-2.8 74-4 110 0 1.4 0 2.9-1 4 5.2.7 17.8-14.1 19.5-14.5 2.3-.5 2.5 4.7 5.4 4Zm-146 17c-1.9-32.1-.2-64.4-2-96.5l-26-32.5c2.8 32.1 2.9 64.2 5 96.4 6.9 11.3 14.5 22.3 23 32.5Zm187 0 22-32.5c1.9-32.2 2-64.3 5-96.4l-26 32.5c-2 25.3-.4 50.7-1 76-.2 5.9-1.4 11.5-1 18 0 1.1-.7 2.8 1 2.5Zm-175 2c.8.8 16.4-9.7 17.5-11 .7-.8 1.5-1.4 1.4-2.6-.7-33.9-2.5-67.6-4-101.5-3.4 2.4-16.3 10.2-17 13.5-.2 33.9 0 67.8 2 101.5Zm101-115c-4.9 2.7-10.4 10.7-15.7 11.8-11.9 2.5-16.1-5.4-24.3-11.8 1.3 37.5 2.3 74.9 2 112.5.8 4 14.2 9.4 17.7 12.4 3.7-2.5 17.6-8.6 18.3-12.4-.2-37.6.2-75.1 2-112.5m61 115c1.6-33.8 2.3-67.6 2-101.5-.7-3.7-13.7-10.5-17-13.5-1.8 33.8-3.7 67.5-4 101.5.2 2.9 18.2 14.4 19 13.5m-167.3 18.7c-1 .9-2.6 1.5-4 1.2-3.8-1-23-30.3-27.3-35.8L895 1607c-.4 4.4-1.3 8.8-2.5 13-1.6 5.4-8.4 19.9-8.6 23.5 0 2.9 4.5 19.8 5.8 23.3.7 1.9 1 3.9 2.9 5.1 29 14.8 52.4 35.8 84.2 44.8 31.1 8.9 64.2 8.8 95.2-.2 31.6-9.2 55.5-30.5 84.3-45.4.8-.4.9-1.2 1.2-2 1.2-3 6.7-24.2 6.5-26.5-.3-3.3-5.8-13.4-7.3-17.8-1.8-5.8-3.1-11.8-4.2-17.8-2.2 3.1-5.1 5.6-7.5 8.5-8.8 10.8-17.2 26.4-26.1 35.9-1.6 1.8-3.2 3.6-5.6 4.3l-43.7-28.7c-4.3 3.6-8.6 8.8-13.3 11.7-8.2 5.1-15 6.1-23.4 13.6-2.3 2.1-3 5.8-6.5 6.5-8.1 1.6-7.3-2.8-11.5-6.4-7.2-6.1-10.9-7.5-18.9-11.1-6.3-2.8-12.3-10-17.6-14.4-12.8 7.9-26.2 15.6-38.3 24.5-1.3.9-1.6 2.5-2.3 3.1v.2Z" class="shading" data-original-prefix="shading" opacity=".2"/><path id="outline-shading-mouth3" class="outline"  fill="#000" d="M1118 1345c-1.5 1.5-1.8-.6-2.3-1.3-1.8-2.3-6.1-7.1-7.1-8.8-1.8-3.2-.9-7.3-2.6-9.4-2-2.4-11.1-9.6-14.1-11.9-17.8-13.8-38.6-25.3-56-40-3.6-5.4 6-7.7 4.1-13.6.4-.4 8.3 1.9 9 2.5 1.9 1.6 0 5.2 2 7l68.4 49.6c2.9 2.8-.3 24.8-1.4 25.9" class="shading" data-original-prefix="shading" opacity=".2"/><path id="outline-shading-mouth2" class="outline"  fill="#000" d="M1008 1260c-2.1 5.5 7.8 8.5 4.1 13.6l-61.1 43.9c-10.3 7.3-11.1 16.5-18.7 26.2-.5.7-.7 2.7-2.3 1.3-1.1-1-5.1-24.3-1-26.5l68-49c2-1.9 0-5.2 2-7 1-.9 8.7-2.9 9-2.5" class="shading" data-original-prefix="shading" opacity=".2"/><path id="outline-shading-mouth1" class="outline"  fill="#000" d="M1011 1355c1.1 4.6-4.9 8.9-3.6 13 1.1 3.3 13.8 10.8 16.2 14.9 1.2.2 16.5-14.1 17-15.9 1-3.6-5.2-7.6-3.6-12 6.9-2.5 17.3 6.5 15.8 13.3-.8 3.8-7.8 10.3-10.8 13.2-6 5.9-6.9 4.1-10.8 12.2-1.9 3.9-5.9 3.9-9.8 3.3-5.8-.8-4.3-4.3-6.4-7.6-4.4-6.7-23.9-15.6-19.3-26.2 2.2-4.9 9.7-10.1 15.2-8.2Z" class="shading" data-original-prefix="shading" opacity=".2"/><path id="outline-mouth" class="outline"  fill="#000" d="M1006 1260c.4-2.1 4.7-6.2 6.5-7 2.2-1 1.8 3.9 2.5 5l-.5 19c-9.8 6.8-19.7 13.6-29 21-10.5 8.4-26.4 21.1-35.5 30.4-3.6 3.7-.7 4.6 2.7 7.3 14.2 11.7 34.2 18.3 52.3 20.2 1.2 1.2-6.6 10.7-4.8 13.8l23.5 23.1c1.5.3 18.4-18.6 21.4-21.5.8-.8 2.6-1.3 2.8-1.6 1.8-3.1-6-12.7-4.8-13.8 18.1-1.9 38.1-8.5 52.3-20.2 3.3-2.8 6.3-3.7 2.7-7.3-9.1-9.4-25-22-35.6-30.4-9.3-7.4-19.2-14.2-29-21-1.1-1.8-.6-15.7-.5-19 0-1.1-.9-6 1.5-5 2.1.9 6.1 6.1 7.5 7-1.8 1-1 3.4-.5 5 3.8 10.3 55.3 44.8 67.4 54.6 1.8 1.5 8 6 8.6 7.4 2.3 5.4-.6 18.1-.5 24.5 0 4.3 3.4 17.4 1.1 20-1 1.1-12.4 6.6-15.3 8.7-15.1 10.7-26.8 28.3-34.7 44.8-1.5.4-1.7-.4-2.5-1-5.2-3.6-23.3-26.5-26.1-26.9-5.3 3.9-11.8 6.3-12.4 13.4-1.2 13 1 27.8 0 41.1l3.1 42.5 34.4-35.1 2.9-.9c13.6 15 26.1 31.3 40.1 46 1.3 1.4 9.3 10.1 10.5 9 3.5-11.2 11.6-21.6 18.2-31.3 19-27.8 40.6-53.8 59.3-81.7.8-.7.7-1.5 1.5-.4 7.1 9.4 13.4 20.9 20.5 30.4l17.6-43.4-157.1-108.6 2-3c36.8 19.5 75.4 39.4 110.9 61.6 21.2 13.3 40.5 29.5 61.9 42.6.6 1.1.2 2.9 0 4.2-.7 7.6-9.9 31.6-13.2 39.9s-7.1 16.1-11 24l-44.5 161.6c.4 12.4 9.3 27.7 9.8 39.7.3 6.8-1.7 25-3.2 31.9-.4 2.2-1.7 6.3-3 8-1.2 1.6-15.8 8.4-19.4 10.6-24.6 15-45.2 35.2-72.5 46.5-40.8 16.9-104 16.8-144.7-.3-27-11.3-47.4-31.4-71.8-46.2-3.6-2.2-18.2-9.1-19.4-10.6-1.3-1.7-2.6-5.8-3-8-1.4-6.9-3.5-25.1-3.2-31.9.6-12.2 9-27.1 9.8-39.7-13.1-46.2-25.7-92.7-39.3-138.8-2.2-7.3-3.2-16.5-5.7-23.3s-7.5-14.1-10.5-21.5c-5.5-13.7-9.1-28.1-14.2-41.9-.3-1.7 0-3.3 1.4-4.4 24.1-15.7 46.6-33.8 71.2-48.8 32.3-19.7 66.7-38.2 100.3-55.2l3 3-157.1 108.6 17.6 43.4c7.1-9.6 13.4-21 20.5-30.4.8-1.1.7-.3 1.5.4 18.8 27.9 40.3 53.9 59.3 81.7 6.6 9.7 14.7 20.2 18.2 31.3 1.2 1.1 9.2-7.6 10.5-9 14-14.6 26.5-30.9 40.1-46l2.9.9 34.4 35.1 3-42.5c-1-13.2 1.2-28.1 0-41.1-.7-7.1-7.1-9.5-12.4-13.4-2.8.5-21 23.4-26.1 26.9-.8.6-1 1.4-2.5 1-7.8-16.5-19.6-34.1-34.7-44.8-3-2.1-14.3-7.5-15.3-8.7-2.3-2.6 1-15.7 1.1-20 0-6.4-2.8-19.1-.5-24.5.6-1.5 6.8-5.9 8.6-7.4 11-9 62.9-44.3 66.1-52.9 1.1-2.8.4-4.5.8-6.7zm-131 321c0-2.1.2-4.3 0-6.5-2.8-34.8-10.2-71.8-14-107-1.1-10.4-.9-21.8-2.1-31.9-.6-5-3-8.1-6.4-11.6-2.6 2.6-5.7 5.5-5.6 9.5 6.2 38.7 7.2 79.6 17.8 117.3 2.5 8.9 5.6 18.7 8.6 27.4.4 1.1.2 3 1.7 2.8m297-1c2.2.4 2.4-1 3-2.5 18.1-45 18.6-96.5 26.1-144 0-3.9-3-6.9-5.6-9.5-9.1 8.1-6.3 22-7.5 33.5-4.2 40.9-9.7 81.9-16 122.5m-329-141c-2.3-.6-1.7.6-2.3 1.3-.9 1.1-3.3 4.1-3.8 5.2-3.1 7 3.3 23 4.4 30.8l5.7 15.8-4-53Zm364 0s-2.1-.4-2 .5l-4 52.5 5.7-15.8c1.6-5.9 6.4-24.5 5-29.5 0-.4-4.4-7.4-4.8-7.7zm-304 162c-3.2-38.4-5.1-76.9-7-115.5-8.9-13.4-17.5-27.3-28-39.5l17 142c12.5-10.9 10.9 6.7 18 13m260-13 17-142c-10.4 12.2-19 26.1-27.9 39.5l-3.1 63.9-4 51.5c7.1-6.3 5.5-23.9 18-13Zm-163 49c-.2-18.5.3-37 0-55.5-.2-20.4-1.3-41.5-2.1-61.9-.2-4.7 1.2-12.4.8-15.9-.5-4-16.2-16.4-19.2-20.6l-11 14c-.3 20.3 1.8 41.1 2.5 61.4s.6 41.1 1 61.5c2 .8 4.2-3.5 5-3 .2.2 1.2 4.1 3 4.5zm76-17c.4-20.5.2-41.1 1-61.5.3-8.9.7-18 1-27 .2-6.2 3.3-30.6 1.5-34.4-1.5-3.2-8.9-10.1-11-14-3 4.2-18.8 16.6-19.2 20.6-.4 3.5.9 11.2.8 15.9-.8 20.4-1.8 41.5-2.1 61.9-.2 18.5.2 37 0 55.5l20-15.5c1.8-.5 2.8-4.4 3-4.5.8-.5 3 3.8 5 3m-168.3-120.7c-.4-.4-2.6-1.5-2.7-1.3 3.4 40.1 5.8 80.3 9 120.4l12.9 21.1c1.7 1.4 6.8 12.1 8.5 11.4 6.6-2.4 2.7-21.7 2.5-27.4-.5-21-1.3-42.1-2-63-.4-10.5.5-21.1-1-31.5-3.3.2-4.2 1.9-7.1-.4-6.5-5.3-13.2-23-20.3-29.2h.2ZM1114 1651l20-32.6 9.1-120.4c-.2-.3-2.5 1.3-3 1.8-6.8 6.7-13.7 23.7-19.9 28.8-2.9 2.4-3.8.6-7.1.4-1.9 21.8-1.3 43.7-2 65.5-.4 15-3.5 35.6-2.1 50 .3 3.2 1.2 6 5 6.4Zm-151-144-3.6.9-15.4 18.6c-.3 38.2 2.9 76.2 2 114.5 1.1 1.3 17.1-12.3 19-13.7 0-40.2-2.7-80.1-2-120.3m139 134c-.9-38.3 2.3-76.2 2-114.5l-15.4-18.6-3.6-.9c-.3 15.5.4 31 0 46.5 0 2.4-1 4.6-1.1 6.9-.5 22.3-.6 44.6-1 66.8 1.9 1.4 17.9 15 19 13.7Zm-60-131-18.3 16.9-17.6-16.9c.7 44.6 3.8 88.9 4 133.5.4 2.5 12.5 11.2 13.7 11.4 1.4.2 13.8-8.9 14.3-11.4 1.3-6.8-.3-19.3 0-27 .4-11.5 1.2-23.4 2.1-34.9l1.9-71.5h-.1Zm-112.9 165.9-39.6-64.9c-2.7 4.3-15.7 16.7-16.5 20.5-.5 2.3 0 6.3 0 8.8.5 6.2 3.4 24.2 5.1 29.9 2.2 7.3 14 10.2 20.1 13.9 44.8 27.9 79.7 46.3 135.2 43.8 47.1-2.2 77.9-20 116.2-43.8 6.1-3.8 17.8-6.6 20.1-13.9 1.7-5.7 4.6-23.7 5.1-29.9.2-2.5.6-6.5 0-8.8-.7-3.8-13.8-16.2-16.5-20.5l-40.1 65.1-48.9-32.8-45.1 37.7-45.8-37.7c-6.8 2.2-46.8 34.1-49.4 32.6Z" data-original-prefix="outline"/></g><g id="04_Eyes" data-trait="wayfairer"><path id="fill-head4" class="fill"  fill="#fff" d="M1241.1 1390.9c-16.6.9-35.8.2-54.8-1.2-25.5-1.9-51.3-3-76.2-9.7-9.7-2.6-17.8-8-26-13.2-9.1-5.8-17.7-12.3-26.7-18.3-2.9-1.9-3.7-4.7-4.2-7.5-3.6-22.9-9-45.4-13.3-68.1-1-5-3.4-7.6-9-8.2-5-.5-9.9-.4-14.8.2-3.9.5-6.3 2.3-7.1 6.4-3.9 19.3-7.9 38.5-11.8 57.8-.8 4.1-1.2 8.2-2.1 12.2-.6 2.9-1.6 5.5-4.4 7.4-12.5 8.5-24.7 17.4-37.8 24.9-10.3 5.9-21.5 8.6-32.9 10.2-17.6 2.5-35.3 3.9-53 5.3-32.9 2.5-65.9 2.6-98.8 1.4-23.5-.8-46.8-5-69.9-9.2-7.5-1.3-14.9-2.9-22.4-4.2-2.1-.4-3.4-1-3.6-3.3-2-22.2-9-43.3-14.5-64.7-8.8-34.2-18.5-68.2-26-102.8-.2-1-.5-1.9-.5-2.9-.5-7.8-3.3-13.3-12.2-13.4-4 0-6.1-2.6-7.7-5.9-6.1-12.5-14-24-18.4-37.4-1.5-4.6.2-6.1 3.5-7.6 5.5-2.4 11.4-3.3 17.3-4.1 10.3-1.4 20.7-2.8 31-4.2 3.4-.4 4.9-2.2 5.7-5.7 5.8-27.8 14-54.7 27-80.1 7.5-14.5 16.7-27.9 26.7-40.7 2.8-3.6 6.4-6.2 11.6-5.4 3.9.6 6-1.3 8.3-4.6 5.8-8.2 12.3-16 18.8-23.7 6.9-8.2 14.3-15.7 22-23.1 24.1-23 50.4-43.2 79-60.3 19.3-11.5 39.5-21.2 60.4-28.9 13.9-5.1 28.8-7.4 43.3-10.4 34.1-7.1 68.7-6.6 103.2-5.8 22.5.5 44.8 3.8 66.7 9.2 4.7 1.1 9.4 1.9 14 3.2 21.8 6.1 42 15.8 61.8 26.5 18.3 9.9 35.5 21.5 52 34 18.6 14.1 36.2 29.3 51.9 46.4 10.1 10.9 20 22.1 28.2 34.6 2.1 3.1 5.4 2.8 8.1 2.6 6-.4 9.4 2.9 12.8 7.1 26.3 32.7 41.7 70.4 50.7 111 .2.8.5 1.6.7 2.4 2.6 13.9 1 10.2 15.1 12.7 12 2.2 24.3 2.8 36.1 6.2 1.4.4 2.8 1 4.1 1.7 2.6 1.4 3.6 2.9 2.4 6.4-4.8 14.6-13.2 27.5-20.3 40.9-1.9 3.6-6.3 3.5-9.7 3.8-4.7.5-6.6 3-7.4 7.2-5.4 28.8-13.4 56.9-20.7 85.2-6.7 25.9-14.5 51.5-19.7 77.8-.7 3.7-1.4 7.5-1.5 11.3 0 3.4-1.6 4.6-4.6 5.2-16.9 3.2-33.8 6.2-50.9 8.5-12.8 1.7-25.6 3.9-38.4 4.8-12.8.8-25.7 0-41.1 0Z" class="fill" data-original-prefix="fill"/><path id="fill-head3" class="fill"  fill="#fff" d="M1236.9 1160.8c28.5-1 56.9-1.5 85.4.2 18.3 1.1 36.4 3.8 54.4 6.9 3.3.6 2.7 2.2 2.6 4.6-3.4 53.6-16.5 105.2-31.8 156.4-3.7 12.4-3.9 12.1-16.8 13.2-27.4 2.4-54.6 5.7-82.1 7.2-34.5 1.9-68.9 1.8-103-4.4-10-1.8-19.8-4.2-29.7-6.6-19-4.5-26.9-18.5-31.9-35.9-8.3-28.9-10.6-58.8-15.8-88.2-1.7-9.5-3.2-19-5.3-28.4-.7-3.3 0-4.1 3-5 18.7-6.2 38.1-9.3 57.5-11.7 37.6-4.7 75.6-6.4 113.5-8.3" class="fill" data-original-prefix="fill"/><path id="fill-head2" class="fill"  fill="#fff" d="M811.3 1160.9c44.2 2.3 88.5 3.9 132.4 11.1 13.1 2.1 26.1 4.8 38.8 9 2.7.9 3.3 1.8 2.7 4.7-6 29.5-9.5 59.5-14.5 89.1-2.4 13.8-5.8 27.6-11.2 40.7-5.9 14-17.3 20.6-31.5 24.1-37.5 9.2-75.5 11.9-114 10.4-31-1.2-61.8-4.6-92.6-7.6-4.5-.4-9-.9-13.4-1.1-2.8 0-3.9-1.4-4.7-4-11.3-34.8-20-70.3-26.9-106.2-3.8-19.6-6.6-39.3-7.6-59.3-.2-3.1.9-3.5 3.4-4 23.8-4.4 47.7-7.2 71.9-7.7 22.3-.4 44.8-.5 67.2.8" class="fill" data-original-prefix="fill"/><path id="fill-head1" class="fill"  fill="#fff" d="M829.9 1133.2c35.9-.6 79.5.9 122.9 6 22.5 2.6 44.7 6.5 66.8 11.2 6.3 1.3 11.9-.7 17.7-1.8 36.1-7 72.5-11.7 109.3-13.8 52.5-3 104.9-1.3 157.3 1.9 37.4 2.3 74.7 5.2 111.8 10.2 6.2.8 12.5 1.3 18.5 3.6 2.9 1.1 3.6 2.5 2.2 5.2-3.7 7.2-7.2 14.5-10.9 21.8-1.4 2.7-3.5 4.2-6.9 3.7-2.7-.4-5.4-.2-7.8 1-1.8.9-3.4 2-3.6 4.3-3.1 26.8-10.7 52.7-17.5 78.8-8.6 33.2-17.8 66.2-26.6 99.3-.6 2.1-1.7 2.5-3.2 3.1-12.8 5.3-26.4 7.5-40 9.2-33.6 4.3-67.3 6.4-101.2 5.9-31.2-.5-62.2-2.3-93-7.8-11.7-2.1-21.7-8.1-31.8-13.7-7.4-4.1-14.8-8.3-22.2-12.4-5-2.7-7.7-7.3-9.5-12.4-7.5-20.8-13.3-42.1-18.2-63.6-2.9-12.5-2.7-12.6-15.8-13.5h-1.5c-18.2-1.2-19.6-.2-23.6 17.1-4.6 19.9-10.2 39.5-16.9 58.8-2.4 7.1-6.7 12.2-13.6 15.7-9.8 4.9-19.2 10.5-28.7 16.1-12.4 7.3-26.2 9.3-40.1 10.9-39.5 4.8-79 6.2-118.7 4.1-28.1-1.5-56-3.8-83.7-9.7-11.1-2.3-17.1-7.1-20.1-19.3-11.3-46.2-25-91.8-35.6-138.2-2-8.7-3.4-17.6-4.9-26.4-.8-5.1-3-7.8-8.6-7.2-6.7.7-9.7-2.4-12-7.8-2.5-5.7-5.3-11.4-8.3-16.9-2-3.7-.8-5.5 2.8-6.5 8-2.2 16.3-3.1 24.5-4.1 60.8-7.3 121.7-11.1 190.7-12.7Zm411.9 9.1c-68 1.2-106.2 5.4-157.7 14.6-11.3 2-22.6 3.9-33.4 7.8-4.7 1.7-7.2 4.8-6.7 9.8 1.1 9.7 2.1 19.5 3.7 29.1 3 17.5 6.7 34.9 9.5 52.4 4 24.8 7.3 49.6 17.9 72.8 1.2 2.6 2.7 4.8 4.8 6.8 17.3 16.1 38.6 22.4 61.2 25.2 27.2 3.4 54.7 3.8 82.1 3.8s55.6-.9 83.4-2.9c12.2-.9 24.5-1.8 36.5-4.8 6.1-1.5 10.5-4.6 12.1-11.1.6-2.4 1.9-4.6 2.7-6.9 14.4-41.4 23.8-84 31.7-127 2.7-14.3 4.2-28.9 4.4-43.5 0-2.8-.2-7-1.8-7.6-4.7-1.5-8.8-4.1-13.7-5.2-20.5-4.8-41.2-8.1-62.2-10.1-27.1-2.4-54.2-3.1-74.5-3.2m-428.8.2c-36.8-.4-73.5 1-109.9 6.8-15.4 2.4-31.2 3.9-45.5 11.4-1.4.8-2.3.5-2.8 2.6-1.4 6.4-.4 12.7 0 19.2 1.2 18.5 4.5 36.5 8.3 54.6 7.7 36.4 16.1 72.6 28.9 107.7 2.5 6.8 6.4 11 13.8 12.6 16.5 3.6 33.3 4.6 50 5.5 37 2 74.1 2.8 111.2 1.2 3.3 0 6.6-.7 10-.8 18.3-.3 36.4-2.4 54.2-7.2 14.7-4 27.1-11.6 38.3-21.6.7-.7 1.5-1.4 1.8-2.3 3-8.1 7.4-15.7 9.5-24.1 6-24.6 9.4-49.7 14.2-74.6 3.7-18.8 6.4-37.8 8.9-56.8.8-6-1-9.5-6.6-11.8-1.8-.8-3.7-1.4-5.7-1.9-21-5.2-42.3-8.9-63.7-11.9-38-5.4-76.3-8.4-114.9-8.6" class="fill" data-original-prefix="fill"/><path id="outline-shading-head9" class="outline"  fill="#000" d="M727 1159h16.4c-9-4.1-18.4-5.7-28.3-9.7 31.2-3.5 61.4-5.2 91.7-5.3 2.5 0 4.4.8 6.3 2.3 6.2 4.9 12.6 9.7 19 14.6-5.1-.2-10.4 1-15.6-.7-2.6-.8-4.2.2-5.5 2.7-29.1 60.2-64.6 117-95 176.6-.6 1.2.4 4.8-3.7 3.7-4.2-1.1-9.6 1.2-11.4-5.1-6.6-22.7-13.4-45.4-18.6-68.4-4-17.6-7.8-35.2-10.5-53.1-2.2-14.8-4.3-29.5-5-44.4-.2-4.3 1-5.9 5.6-6.4 10.2-1.1 20.3-3.2 30.4-4.7z" class="shading" data-original-prefix="shading" opacity=".2"/><path id="outline-shading-head8" class="outline"  fill="#000" d="M972.8 1140.1c-8.9-1.1-16.9-2.2-24.9-3.3-.7 0-1.5-.8-2-1.4-12.3-15.3-28.6-25.7-43.8-37.6-34.7-27.1-73.9-45.7-115.2-60.3-18.4-6.5-36-15.1-55-20.4-8.1-2.3-8.6-5-3.5-12.1C777 936.5 842 890.1 920.9 862.4c6.8-2.4 13.9-4 21.4-4.9-5.6 4-10.7 9.1-16.9 11.9-35.8 16.3-61.5 43.8-84 74.8-9.8 13.5-18.1 27.8-25.6 42.7-5.2 10.3-3.3 19.8 1.5 28.9 4.4 8.4 10.3 15.9 16.4 23.2 4.9 5.8 10.7 10.2 17.6 13.6 31.8 15.6 63 32.4 93.3 50.9 8.8 5.4 16 11.6 20.1 21.3 1.8 5.2 5 9.8 8.1 15.3" class="shading" data-original-prefix="shading" opacity=".2"/><path id="outline-shading-head7" class="outline"  fill="#000" d="M1075.1 1140.2c5.2-9.4 9.7-17.9 14.6-26.2 1.8-3.1 5.2-4.6 8.2-6.4 30.8-19.8 63.1-37.2 96-53.2 10.1-4.9 18.4-11.3 24.7-20.3 6.2-8.9 14.1-17 16-28.4 1.1-6.2.9-11.9-2.1-17.9-18.6-37.7-43.4-70.5-75.7-97.5-8.8-7.4-19-12.9-29.3-18-7.8-3.9-14.2-9.7-22.1-14.6 3.2-1.4 5.4.2 7.5.7 38.3 9.8 72.8 27.9 105.8 49.2 25 16.2 47.4 35.5 68.1 56.7 12.8 13.2 23.8 27.9 34.3 42.9 3.1 4.4 2.5 7.2-2.8 9.1-7.8 2.9-16 4.5-23.6 7.7-42.5 17.6-86.8 31.2-125.4 57.1-20.5 13.7-39.9 28.8-58.7 44.8-1.3 1.1-2.8 2.1-3.6 3.5-3.8 7.1-10.2 8.6-17.5 8.8-4.5 0-8.9 1.2-14.4 2" class="shading" data-original-prefix="shading" opacity=".2"/><path id="outline-shading-head6" class="outline"  fill="#000" d="M962.9 1159.2c7.7 0 15 2.6 22.5 3.9 1.6.3 2.2 1.8 3.1 3.1 3.8 5.6 6.2 12.2 11.8 16.6 1.3 1 .7 2.5.5 3.8-1.3 13.8-3.1 27.5-5.9 41-2.2 10.6-5.1 21-5.9 31.8-.2 2.6-2.1 3.8-4 4.8-11.4 5.9-13 17.2-15.1 28.1-1.1 6-3.1 11.5-5.6 17-2.5 5.6-4.8 11.3-6.2 17.3-.5 2.2-1.8 4.4-3.7 4.1-4-.7-6 2-8.6 3.8-11.3 7.9-24.3 11.1-38.4 15.2 4.2-7.9 7.7-14.7 11.4-21.5 20.8-38.4 41-77.2 61-116.1 4.4-8.7 3.8-18.5 6.3-27.6.4-1.4-.4-2.1-1.7-2.6-4.5-1.5-9-3-13.5-4.6-3.1-1.1-4.6 0-6.3 2.8-27.3 41.2-52.4 83.8-76.5 127-8 14.2-16.1 28.3-23.3 42.9-1.5 2.9-5.1 1.9-7.3 2-11 .6-22 .5-33 .2-4.7 0-2.1-3.1-1.1-4.8 6.2-11.2 12.6-22.3 18.9-33.4 26.7-46.8 53.4-93.6 79.2-140.9 4.2-7.8 5.7-8.4 14.6-7 11.5 1.8 22.9 3.5 35 5.3-3-4.7-5.6-8.5-8.2-12.2" class="shading" data-original-prefix="shading" opacity=".2"/><path id="outline-shading-head5" class="outline"  fill="#000" d="M1260.4 1349.9c10.7-23.1 21.3-46 31.9-68.9 17.3-37.8 34.7-75.5 50.3-114 1.3-3.1 2.4-5.7-2.6-6.3 8.9 1.2 17.8 2.4 26.6 3.7 2.7.4 5.4 1.6 8.1 1.5 5.1-.2 6.5 1.9 6.2 6.7-.7 12.3-2.3 24.4-3.9 36.6-2.1 16.8-5.7 33.4-9.3 49.9-5.2 24.2-11.6 48.2-19 71.9-4 12.7-4.2 12.4-17.6 13-12.9.6-25.8 2.6-38.7 3.7-10.4 1-21 2.7-32 2.2" class="shading" data-original-prefix="shading" opacity=".2"/><path id="outline-shading-head4" class="outline"  fill="#000" d="M1085.8 1158.3c-4.1 5.8-7.5 10.4-11.4 16 9.6-1.3 17.9-2.4 26.3-3.6l54-7.8 18.3-2.7c1.9-.3 3.7-.4 5 1.3 1.6 2-.5 3.1-1.1 4.3-28.2 51.7-56 103.5-83.5 155.5-.8 1.6-1.3 3.4-2.9 4.5-6-14.6-12-29.1-14.8-44.6-1.4-7.5-5.2-13.1-11.8-16.8-3.4-1.8-4.4-4.6-4.8-8.5-1-11.1-4-21.9-6.1-32.8-2.2-12.1-4.1-24.3-5.5-36.5-.2-2.1 0-3.5 1.8-5.2 4.4-4.1 7-9.7 10-14.8 1.4-2.3 3.1-3.7 5.8-4.2 6.3-1.1 12.8-2.4 20.7-4.1" class="shading" data-original-prefix="shading" opacity=".2"/><path id="outline-shading-head3" class="outline"  fill="#000" d="M1183.8 1350.9c34.2-62.8 66.7-126.4 96.6-192.2-22.4 2.6-44.1-.2-65.7 2.6 7-4.3 13-9.6 19.3-14.5 2.5-2 5-2.8 8.2-2.8 29.8.2 59.6 1.8 90.6 5.3-9.9 4-19.4 5.6-28.3 9.1 7.8 1.3 15.9-.5 25 2.5-3.7-.3-4.6 1.3-5.6 3.1-34.5 60.8-66.2 123-98 185.2-1.1 2.1-1.8 2.9-4.2 2.9h-29.5c-2.9 0-5.6-1.8-8.4-1.2" class="shading" data-original-prefix="shading" opacity=".2"/><path id="outline-shading-head2" class="outline"  fill="#000" d="M793.5 1132.4c-9.1.5-18.2 1-27.3 1.4-20.6.9-41.2 2.2-61.8 4.1-2.6.2-4.8-.2-7.1-1.5-8.4-4.5-16.9-8.8-25.6-13.2 8.9-5.1 11.1-14.6 14.6-22.8 3.5-8.1 8.1-10.3 16.7-10.7 14.6-.7 27.1 2.5 39.3 10.6 15.1 10 31 18.7 46.6 28.1 1.7 1 3.3 2.1 4.9 3.2 0 .2-.2.5-.3.8" class="shading" data-original-prefix="shading" opacity=".2"/><path id="outline-shading-head1" class="outline"  fill="#000" d="M1377.4 1122.9c-10.7 4.4-19.2 9.4-27.9 14-1.7.9-3.4 1.1-5.2 1-28.7-2.5-57.4-4.1-86.2-5.2-1.3 0-2.6-.3-3.9-.5.4-1.8 1.8-2.1 2.9-2.8 21-12.5 42.1-25 63.1-37.5 2.7-1.6 5.4-2.3 8.5-2.2 7.7.2 15.3.4 23 .2 3.6 0 5.4 1.2 6.8 4.4 2.6 5.8 5.5 11.4 8.3 17 2.2 4.5 3.6 9.7 10.6 11.6" class="shading" data-original-prefix="shading" opacity=".2"/><path id="outline-head3" class="outline"  fill="#000" d="M1259.6 1396c-42.6-.3-73.6-1.4-104.4-4.3-16.6-1.6-33.5-2.4-49.6-7.7-8-2.6-15.2-6.8-22.1-11.4-10.2-6.6-20-13.8-30.1-20.5-3.8-2.5-4.3-6.3-4.9-9.9-3.6-21.7-8.5-43-12.7-64.6-1.4-7.3-6.4-10.5-13.8-9q-8.4 1.7-10 10.2c-4.2 21.4-8.5 42.7-12.5 64.1-.9 4.9-3.2 8.3-7.4 11.1-11.4 7.8-22.6 15.9-34.5 22.9-12.7 7.5-26.6 10.5-41.2 12.2-24.8 2.9-49.6 4.6-74.5 5.8-20.5.9-41 1-61.4.8-21.2-.2-42-3.1-62.9-6.3-14-2.1-27.8-5-41.7-7.1-5.4-.8-7.7-2.5-8.3-8.4-2.3-20.5-8.7-40.2-13.9-60.2-9.6-36.8-20.2-73.4-27.7-110.8-1-4.9-2.5-7.7-7.8-7.9-5.9-.2-9.4-3.5-12.1-8.8-6.8-13.2-13.6-26.3-19.3-40-2.2-5.3 1.7-9.6 7.8-12.2 6.8-2.9 14.2-3 21.4-4 8.7-1.1 17.4-2.5 26.2-3.7 2.5-.3 3.5-1.4 4.1-4 7-35.6 18.6-69.4 38.6-100 6.2-9.5 12-19.6 21.3-26.8 2.4-1.8 4.6-3.2 7.6-1.3 1.8 1.1 3.2.8 4.5-1.3 6.3-10 14.3-18.8 22.2-27.6 30.6-34.3 66.1-62.7 105.8-85.7 19.5-11.3 39.6-21.6 61.3-27.5 23.4-6.3 47.2-11.3 71.5-13.2 15.1-1.2 30.1-2 45.3-1.3 9.6.4 19.2-.2 28.9.2 24.4 1 48.2 5.2 71.9 10.5 39.8 8.7 74.3 28.5 107.4 51.1 23 15.7 44.2 33.7 63.6 53.7 12.2 12.7 24 25.8 33.8 40.6.9 1.4 2.1 2 3.3 1.3 7.8-4.5 12.3 1.7 15.8 6.1 22.8 28.4 38.5 60.6 47.9 95.8 2.3 8.7 4.9 17.3 6.1 26.2.4 2.6 2.1 3.2 4.1 3.5 11.2 1.5 22.4 2.7 33.6 4.4 6.8 1 13.7 2 19.1 7.3 2.5 2.4 2.6 4.7 1.5 7.6-5.8 15.1-13.5 29.3-21.1 43.5-2.2 4-5.7 5.1-9.5 5.4-5.8.4-7.8 3.3-8.8 8.8-4.8 25.7-11.9 50.8-18.5 76.1-7 26.9-14.8 53.5-20.8 80.6-1.2 5.3-2.2 10.8-2.5 16.2-.2 3.4-1.7 4.6-4.7 5.2-16.5 3-33 5.8-49.6 8.4-25.8 4-51.7 6.3-66.3 5.9M848 1061.5c8.3.8 14.9 5 21.3 9.3 23.8 16.1 50 27.8 75.2 41.3 3.2 1.7 6.4 3.2 8.2 6.2 2.6 4.5 6.7 4.8 11 5.3 14 1.6 28.1 3.4 42.1 4.8 7.4.8 14.8 3.1 22.3 1.9 19.4-2.9 38.9-4.9 58.4-7 4.1-.4 7.6-1.3 10-5.3 1.1-1.9 2.8-3.7 5.1-4.7 18.5-8.2 35.4-19.1 53.7-27.7 12.7-6 23.5-15.2 35.9-21.6 3-1.5 6-3.1 9.8-2.4-25.9 19-53.2 36.1-78 58.3 3.4-.2 5.6-.3 7.7-.5 30.2-2.5 60.5-3.7 90.9-4 41.7-.4 83.3.7 124.8 5.1 7.9.8 15.9 1.7 23.8 2.3 2.8.2 6 .2 6-4 0-6.5-.6-12.9-3.2-19.1-10.1-24-22-47-35.9-69.1-2.1-3.3-4.4-4.3-8-4.6-12.4-.8-24.6 1.5-36.8 2.4-6.8.5-13.4 2.1-20.1 3.8-1.5.4-3.3 2.6-4.3.8-1.1-2 1.6-2.9 2.9-4 10.2-8.5 21.6-15.1 33.3-21 2.9-1.5 3.2-2.9 2.3-5.6-3.3-10.3-8.7-19.3-15.9-27.3-17.7-19.7-38.3-35.8-60.1-50.9-35.4-24.6-74.2-42.3-114-57.9-24.6-9.6-50.8-12.4-76.9-13.4-40.9-1.5-80.9 2.3-119.4 18.3-30.3 12.6-60.2 25.6-87.9 43.4-27.5 17.6-53.8 36.4-75.5 61-6.5 7.3-11.3 15.6-14.8 24.7-1.3 3.5-1.4 5.7 2.8 7.7 12.3 5.9 24 13.1 34.6 21.8 1 .8 2.5 1.7 1.8 3.2-.5 1-1.7.4-2.7 0-19.8-6.1-40.2-7.1-60.7-6.9-2.7 0-4.1 1.4-5.5 3.6-11.2 17.8-21.6 36-30 55.3-4.5 10.3-10.3 20.2-9.7 32.2.2 4.2 1.5 5.8 5.5 5.5 1.3 0 2.7 0 4-.2 20.8-2.7 41.7-4.5 62.7-5.6 57-2.9 113.9-2.1 170.8 2.3 3 .2 6.1.4 10.4.7-24.8-22.2-52.1-39.3-77.9-58.5Zm-18.1 71.7c-69 1.7-129.9 5.5-190.7 12.8-8.2 1-16.5 1.9-24.5 4.1-3.6 1-4.8 2.8-2.8 6.5 3 5.5 5.8 11.2 8.3 16.9 2.4 5.3 5.4 8.5 12 7.8 5.6-.6 7.8 2.1 8.6 7.2 1.5 8.8 2.9 17.7 4.9 26.4 10.6 46.4 24.3 92 35.6 138.2 3 12.2 9 16.9 20.1 19.3 27.6 5.8 55.6 8.2 83.7 9.7 39.7 2.1 79.3.7 118.7-4.1 13.9-1.7 27.7-3.6 40.1-10.9 9.5-5.6 18.9-11.2 28.7-16.1 7-3.4 11.2-8.6 13.6-15.7 6.7-19.3 12.3-38.9 16.9-58.8 4-17.3 5.3-18.3 23.6-17.1h1.5c13.1.9 13 1 15.8 13.5 4.9 21.5 10.8 42.8 18.2 63.6 1.8 5 4.5 9.6 9.5 12.4 7.4 4.1 14.8 8.2 22.2 12.4 10.1 5.7 20.1 11.6 31.8 13.7 30.8 5.5 61.8 7.2 93 7.8 33.9.6 67.6-1.5 101.2-5.9 13.6-1.8 27.2-3.9 40-9.2 1.5-.6 2.6-1 3.2-3.1 8.8-33.1 18-66.1 26.6-99.3 6.7-26 14.3-51.9 17.5-78.8.3-2.3 1.9-3.4 3.6-4.3 2.4-1.2 5.2-1.4 7.8-1 3.3.5 5.5-.9 6.9-3.7 3.7-7.2 7.2-14.5 10.9-21.8 1.4-2.7.7-4.2-2.2-5.2-6-2.2-12.3-2.7-18.5-3.6-37.1-5-74.5-7.9-111.8-10.2-52.4-3.2-104.8-4.9-157.3-1.9-36.8 2.1-73.2 6.7-109.3 13.8-5.8 1.1-11.3 3.2-17.7 1.8-22.1-4.7-44.4-8.6-66.8-11.2-43.4-5.2-87-6.7-122.9-6.1Z" class="outline" data-original-prefix="outline"/><path id="outline-head2" class="outline"  fill="#000" d="M1241.7 1142.4c20.4 0 47.5.8 74.5 3.4 21 2 41.7 5.3 62.2 10.1 4.8 1.1 9 3.7 13.7 5.2 1.6.5 1.8 4.8 1.8 7.6-.2 14.6-1.7 29.2-4.4 43.5-7.9 43-17.3 85.6-31.7 127-.8 2.3-2.1 4.5-2.7 6.9-1.6 6.4-6 9.6-12.1 11.1-12 2.9-24.3 3.9-36.5 4.8-27.8 2-55.6 2.9-83.4 2.9s-54.9-.4-82.1-3.8c-22.6-2.8-43.9-9.2-61.2-25.2-2.1-2-3.6-4.2-4.8-6.8-10.6-23.1-13.9-48-17.9-72.8-2.8-17.5-6.6-34.9-9.5-52.4-1.6-9.6-2.6-19.4-3.7-29.1-.6-5 2-8.1 6.7-9.8 10.8-3.9 22.2-5.8 33.4-7.8 51.6-9.5 89.8-13.7 157.7-14.8m-4.8 18.4c-37.9 1.9-75.9 3.6-113.6 8.4-19.4 2.5-38.8 5.6-57.5 11.7-2.9.9-3.7 1.7-3 5 2.1 9.4 3.6 18.9 5.3 28.4 5.2 29.4 7.5 59.3 15.8 88.2 5 17.4 12.9 31.4 31.9 35.9 9.9 2.3 19.7 4.8 29.7 6.6 34.1 6.1 68.5 6.2 103 4.4 27.4-1.5 54.7-4.8 82.1-7.2 13-1.2 13.1-.9 16.8-13.2 15.4-51.2 28.4-102.8 31.8-156.4.2-2.3.7-4-2.6-4.6-18.1-3.1-36.1-5.7-54.4-6.9-28.4-1.8-56.9-1.3-85.3-.3" class="outline" data-original-prefix="outline"/><path id="outline-head1" class="outline"  fill="#000" d="M813 1142.5c38.5.2 76.9 3.2 115 8.5 21.4 3 42.7 6.6 63.7 11.9 1.9.5 3.8 1.1 5.7 1.9 5.7 2.3 7.4 5.8 6.6 11.8-2.5 19-5.2 38-8.9 56.8-4.9 24.8-8.2 50-14.2 74.6-2.1 8.4-6.5 16-9.5 24.1-.3.9-1.1 1.7-1.8 2.3-11.2 10-23.6 17.6-38.3 21.6-17.8 4.8-35.9 6.9-54.2 7.2-3.3 0-6.6.7-10 .8-37.1 1.6-74.2.8-111.2-1.2-16.7-.9-33.5-1.9-50-5.5-7.3-1.6-11.3-5.8-13.8-12.6-12.8-35.1-21.2-71.3-28.9-107.7-3.8-18-7.1-36.1-8.3-54.6-.4-6.4-1.4-12.7 0-19.2.4-2.1 1.3-1.8 2.8-2.6 14.3-7.5 30.1-8.9 45.5-11.4 36.3-5.7 73-7.1 109.8-6.7m-1.7 18.4c-22.5-1.3-45-1.2-67.5-.7-24.2.5-48.1 3.3-71.9 7.7-2.5.5-3.6.8-3.4 4 1 20 3.9 39.7 7.6 59.3 6.9 35.9 15.7 71.4 26.9 106.2.8 2.5 1.9 3.9 4.7 4 4.5.2 9 .6 13.4 1.1 30.8 3.1 61.6 6.4 92.6 7.6 38.4 1.5 76.5-1.2 114-10.4 14.3-3.5 25.7-10.1 31.5-24.1 5.5-13.1 8.9-26.9 11.2-40.7 5.1-29.7 8.5-59.6 14.5-89.1.6-3 0-3.9-2.7-4.7-12.7-4.2-25.7-6.9-38.8-9-43.5-7.3-87.8-8.9-132.1-11.2" class="outline" data-original-prefix="outline"/></g><g id="05_Right Ear" data-trait="cracked"><path id="fill-ear-rt" class="fill"  fill="#fff" d="M1722.4 186.9c.8.8 1.1 2.1 1.1 3.2l-8.1 121.8c-8.6 28.8-25.9 53-29.7 83.3s-3.9 64.1-9.3 93.7c-7.4 41.1-28.4 85.6-36.9 127.1l-66.8 103.2c-30.7 24.5-60.3 54-91.5 77.5-13.1 9.9-38.1 22.1-53.4 29.5-4.5 2.2-11.8 7-16.6 3.5s-8.7-32.4-11.9-39.1c-15.4 14.6-30.8 29.2-45 45-2.4 2.6-12.9 13.8-13.3 15.8-.5 7.8 4.3 26.8 1.3 33.2-2.3 5.1-22 16.9-22.5 21.5l15.9 43.8-51.9 35.7c-2.6 3-1.2-1.7-2.6 2.2-17.5-3.9-23.5-9.2-38.8-18.4-19.3-11.6-43.7-28-59.2-43.8-1.9-2-4.8-3.1-6.5-5.5-7-9.5-10.9-33.7-16.9-45 16.2-57.7 47.1-109 71.8-163.1 9.4-65.7 14-132.5 25.2-197.8l96.3-119.7 130.6-105.4L1705.6 178l16.7 8.8h.1Z" class="fill" data-original-prefix="fill"/><path id="outline-shading-ear-rt" class="outline"  fill="#000" d="M1670 478.5c0 .2-1.5 2-2 1-4.6-2.8-23.5-18.9-27.3-18.4-2.3.3-10.5 6.3-13.1 8-11.6 7.9-21.9 17.5-33.1 25.9-1.7 3.7-1.7 7.1-.4 10.8 6.7 1.4 18.8-4.7 17.7 6.4l-23.3 40.7c-2.5.4-1.5-1.8-1.2-3.2.8-4.7 8.2-23.6 7.7-26.2-.2-.8-1.2-1.4-2.2-1.4-3.3.2-8.7 4-12.6 3.9-.8.9 1.8 12 1.7 14.4-.2 7.7-7.3 19-10.3 26.5-3.3 8.5-8.4 19.1-6.5 28 1.4.2 2.7 0 4-.5 12-4.1 33.5-43.7 40.1-55.9 4.8-8.9 14.3-32.5 19.3-38.7.4-.5 1.2-1.4 1.5-1-12.8 55.3-34.4 111.3-63.2 160.3-7.3 12.4-22.6 38.5-31.8 48.2-6 6.3-23.1 17-31.1 21.9-27.2 17-57.6 30.4-89.9 33.6l14.9 35.4c2.5 3.2 21.7-5.9 25.5-7.5 28.7-12.7 69.6-35.6 94.6-54.4 5.6-4.2 8.5-11 6.6 2.6-10.7 7.5-19.9 16.9-30 25-10.6 8.5-24.1 19.3-35.1 26.9-19.5 13.4-44.2 22.7-64.3 35.7-2.6.7-6.3 1.4-8-1.1l-9.1-33.9-67.5 68.5c-1.5 3.5 7.6 16 5 21l-27.4 24.7c5 16.7 14.5 32 18.9 48.8l-1.1 2-44.3 28.7c-1.3.7-2.7 1.6-4.3 1.8-4.9.6-23-6.1-28.3-8.5-21.2-9.4-42.2-23.3-60.1-38-3.1-2.5-20-18.6-20-21s2.2-2.6 2.8-4.2c1.1-3.1 1.1-7.1 2.5-10.5 4.2-10.5 32.7-39 41.8-50.2 58.9-72.9 101.1-158.1 128.3-247.7 4.3-14 8.8-40.2 14.2-51.8 3-6.3 11.4-12.3 14.7-18.8 22.1.5 44.5 6.1 65.8 11.8.9 1.2-5.4 14.4-5.9 17.5-1.3 9.1.4 20.2.9 29.4l19-47c4.9 3.9 5 10.1 12.5 11 8.4 1 31.8-3.8 40.3-6.7 2.5-.8 6.8-1.9 4.7-5.3-17.2-2.1-36.8 9.9-52.5 1.3-.2-.9-.2-11 0-11.7.3-1.1 2.7-.2 3.9-2.2 4.3-7.1 4.3-42.4 5.2-52.9.8-9.6 2.2-19.4 3-29 .8-10.5-2.6-12.2 5-21 8.7-10.2 35.9-34.5 47.3-40.6 3.1-1.7 7.8-.6 6.7-4.8-3.6-.6-5.7.5-8.7 1.8-16.1 7.3-32.9 26.4-48 34-1.6.8-3.6 1.9-5.4.7-.6-.4-4.6-12.8-4.8-14.3-.5-3.8 5.9-11.6 8-15.5 2.2-4.1 11.5-21.6 10.7-25s-25.6-16.5-30.4-21.7c-1.9-2-10.4-14.8-11.1-17-.7-2.4-.4-4 1.1-6l40.4-26.6c22.6.2 42.9-1.7 64-10 10.6-4.2 30.2-16.4 39.8-18.2 11-2.1 25.7 6.5 35.6 10.5 15.2-9.6 31.4-23.8 47.6-31.3 3.1-1.4 4-2.6 6.5.6 3.2 4 0 3.9-1.2 6.7-3.4 7.9-5.5 16.3-8.8 24.2-12.1 29.2-28.7 57.7-38 88-2.3 7.4-3.4 17.4-6 24-4.6 11.8-18.9 25-23.5 36.5-1.6 4.1-6.1 25-6 29 0 .7-.3 1.6.5 1.5 22.9-20 44.9-41.2 69.1-60 3.1-2.4 6.8-5.6 10.5-7v18.5c0 2.6-32.8 27.9-37 32 10.4.7 16.9 7.4 23.1 14.9.5.6 1.9.5 1.9.6 0 5.1 1 17.5 0 21.5ZM1606 296c-2.4-.2-4.7 0-7.1.4-16.5 2.9-37.6 9.5-53.7 14.3-5 1.5-10.2 2.2-15.2 3.8-11.7 23.6-23.4 47.3-34 71.5l20.3-12.2c27.3-9.4 38.9-37.6 60.2-55.9 8.3-7.1 18.8-12.8 27.6-19.4 1.1-.8 2.5 0 1.9-2.6Zm-86 17-46 3.5c-1.7 1.4-8.4 4.7-8.8 6.2s2.6 12.1 3.7 14c2.2 4 14 11.6 18.5 14.5 2.2 1.4 9.4 6.9 11.6 5.6l21.1-43.9Zm-138.5 421v1c.7-.3.7-.7 0-1m-.5 2c-1.4-1.8-4.5 5-4.7 5.8-5.5 16.6-6.8 40.6-14.1 55.9-7.6 15.9-25.4 34.3-35 50-.6 1-1.9 3.1-1.7 4.3 13.1-10.1 27.2-19.4 38.9-31 2.6-18.2 9.1-35.8 12.3-53.7 1.8-10.3 1.9-21 4.3-31.2Zm2 67c3.7-2.6 12.4-12.4 13-16.6.5-3.8-4.9-11.6-6.5-15.4zm-48.1 77.9c.5-.8-7-16.5-9.4-15.9-9.2 11.1-19.3 21.5-28.5 32.5-5.4 6.5-22 25-22.9 32.1-.5 3.6.2 7.3 0 10.9-.8 8.8-1.8 17.7-3 26.5l39.5-35c1-6.2-8.3-23.1-6-27.9L1335 881Z" class="shading" data-original-prefix="shading" opacity=".2"/><path id="outline-ear-rt" class="outline"  fill="#000" d="M1204 941c-.6 2-3.1 0-4-.5-6-3.3-16.4-8.4-21-13-11.6-11.9-20.6-32.5-31.5-45.5-1-2.9-.7-7.3-.5-10.5 1-20.3 12.5-34.3 20.8-52.2 6.3-13.5 12.6-35.7 19.9-47 3.2-4.9 8.4-9.8 12-15 29.7-42.8 37.8-119.3 42.2-170.8 1.8-21.4.9-43.9 3-65 .7-7 2.4-6.2 5.4-10.6 32.8-49.1 70.5-98.1 110.1-141.9 13.9-15.4 33.5-38.4 49.2-50.8 52.6-41.5 136.1-85.3 198.3-110.6 29.7-12.1 85.4-35.4 115.8-38.3 8.5-.8 7.8 2.7 9.5 9.9 3.6 14.9 2.9 30.5 2.7 45.3-.4 32-1.4 78.8-8.3 109.7-3.7 16.4-15.8 23.2-22.2 37.8-10.4 23.8-20.5 86.5-15.4 111.4 3 14.6 5.8 10.4 2.4 27.6-12.4 64-44 134.2-79.1 188.9-30.9 48.2-70.1 80.8-118.5 110.5-28.7 17.6-59.7 34.8-91.9 44.6.3-14.2-.5-28.4 0-42.5 0-3 3.2-9.9-1-11-14.8 16.6-30.3 32.5-43.8 50.2-.6 2.2 2 8.2 2.8 10.8 1.5 4.5 9.2 20.3 7.6 23.5-1 2-28.2 11.4-31.4 16.7 6 20.3 14.5 39.6 22.7 59.1.5 4.8-7.5 12.2-11.2 14.3-2.2 1.2-4.5.9-6.9 2.1-5.5 2.6-9.7 9.7-15.6 12.4-22.6 10.3-50.5-2.5-71.7-12.3-4-1.9-11.3-4.7-12.3-9.2 2.4 1.1 5.6.7 8 1.5 26.9 9.2 36.4 9.3 61.7-4.3 3.1-1.7 18.6-11.5 19.2-13.9-5.6-15.9-10.9-32.1-19.7-46.6.2-2.7 11.1-11.8 13.8-14.2 2.5-2.2 16.3-11.8 16.9-12.7.6-1.1-1.1-6-1.7-7.5-1.8-4.9-9.1-13.1-7.8-17.3l32-33c2.3-18.2 9.3-35.8 12.3-53.7.9-5.2.5-11.6 1.4-16.6 6.7-39.1 32.5-73.7 53.7-106.4-3.1-10.5-18.5-34.2-29.3-19.2-7.7 10.7-16.6 48.7-17.6 62.4-.4 5 1.2 17.3-.9 20.8-.9 1.6-11.5 10.3-14.1 13.2-25 27.8-50.2 64.5-69.2 96.8-17.2 29.4-56.3 96-51.7 129.1.7 4.7 4.3 9.8 4.9 14.6-2.1 2.1-27.1-18.8-28.5-22-1.7-3.9.9-16.6 1.5-21.5.3-2.9-.4-6 0-8.9.7-4.5 15.4-22.3 19.2-27.8 39.8-58.6 57.4-124.9 103.3-180.7 11.8-14.4 20-26.2 25.8-44.2 5.6-17.5 15.4-63 12.5-80-.7-3.9-10.8-27.6-9.8-28.7l52 28c16.2-44.2 27.9-91.8 22.2-139.2 9.1-12.4 18-25 25.6-38.5 2.5-4.5 12.1-21.1 12.3-24.8s-4.6-8.1-7.6-10.5c-12.1-9.7-30.2-11.4-31.5-31-.7-.6-12.7 8.1-14.3 9.2-44 31.1-77.8 64.6-111.7 106.3-15.7 19.3-36.9 44.4-50.5 64.5-6.4 9.5-10.1 25.9-11.6 37.4-6.4 50-5.5 104.8-13.1 153.9-2.9 18.9-27.5 67.5-37 87-6.6 13.4-16.1 27.1-22.1 40-6.3 13.7-9 29.6-15.7 43.3-3.2 23.1 13.4 51.4 28.9 67.4v-.3Zm515-753c-30.2 9.5-58.8 22.3-87 36.4-25.9 13-53.6 27.8-78.6 42.4-19.8 11.5-38.5 24.8-58.3 36.2.7 1.8 5.9 1.1 7.5 1 23.2-1.4 56-9.1 77.1-18.9 4.3-2 15.9-9.7 18.9-10.1 11.8-1.7 21.1 15.3 28.8 13.8 1.7-.3 13.6-13.8 16.7-16.2 5.7-4.3 12.8-6.4 18.8-10.2 11-6.8 19-19 32.1-22.4l-22.5 39c-13.1 10-28 17.6-39.9 29.2-3 30.4 1.3 60.6 1.1 91-8 15.5-28.8 23.4-34.1 40.9-1.1 3.5-5.8 33.5-4.7 34.8 3.9-1.3 7.9-4.8 11-7.5 13.4-11.6 26.8-26.6 40-39 8.7-8.2 19.9-16.4 28.1-25 4.6-4.9 12.1-40.9 15.9-51.1 6.8-18.1 16.8-28.7 20.7-48.3 2.5-12.5 4.6-27.1 6.2-39.9 3.1-25.3 4.5-50.9 2.1-76.4v.3Zm-103 112c-5.5-.8-9.5-5.3-15.4-3.9-15.4 6.5-35.4 7-50.6 12.4s-41.3 48-47.9 63.1c-4 9.2-6.3 19.6-12.1 28.4 13.1-4.6 33.8-26 47.5-25 2.4.2 8.9 3.3 9.4 3 .7-.5 7.1-11.6 8.7-13.8 17.6-23.9 39.4-43.3 60.4-64.1Zm-96 13-46.6 3.9c-1.8.5-12.4 7-13 8.1-1.7 3.4 4.2 15.1 7 18 2.4 2.5 15.6 12.7 18.6 14.4 14.4 8.2 19.7-14.4 24.1-23.8 1.2-2.6 10.7-19.8 9.8-20.6Zm57 208c-2.3-22.7-1-46.6 3.5-69 1.9-9.6 5.7-27.6 10.3-35.7 6.1-10.7 27-21.4 29-32l-.8-63.3c-37 35.4-65 84.7-72.7 135.8-3.9 26-5.3 57.6 10.6 79.9v1.6c-21.4 26.5-33.1 58.8-41.6 91.5-2.1 7.9-9.6 50.2-12.3 52.7-19.4 17.7-41.7 34.1-65.3 46.7-2.2 1.2-14.6 7.8-15.7 6.8 3.2-7 7-13.5 9.7-20.8 6.7-17.3 8.5-31.1 7.3-49.8l-2-7.5c-5.5 12.1-11.2 24.3-17.5 36-5 9.3-22.1 34.4-24.1 42-2.9 11.3 9 27.8 13.7 38.3 6.8 15.3 12.3 30.7 12.8 47.7l83.9-48.6c76.6-56 124.6-136.5 149.8-227.2 6.8-24.3 13.8-49 12.3-74.5-7.5-3.4-20-16.1-28.3-14.5-3 .6-13 7.8-16.1 10-7.2 5.2-13.7 12.3-21 17-6 3.9-14.2 4.4-12.7 13.2 1.6 10 26.2 2 25.9 15.1-.2 7.4-23.2 33-26.9 41.5-1.9.2-.6-1.9-.3-2.8 2.2-6.7 14.8-29.3 13.2-34.6-2-6.5-20.6 4.2-24.9 4.4h.2Zm-37-135c-6.7-.9-12.1 3.8-17.3 7.2-8.9 5.7-34.4 22.6-40.6 29.4-3 3.2-12.7 33.4-13.8 39.2-3.7 19-2.9 40.5-7.4 59.7 0 4.8 11.4 18.6 16.1 20 4.2 1.2 19.5.8 24.5.5 2.6-.2 19.6-2.9 20.4-4.1 1.3-18.4.6-37.9-2-56.2-1.1-7.9-7.4-29.9-6.7-35.9.7-4.9 11.1-27.1 13.9-33.1 3.3-7 10-16.4 12.3-22.7.5-1.4.8-2.5.6-3.9Zm133 33-23 17.5c-2.2 2.8-6.4 4.6-6 8.5 9.5 1.2 16.7 8.1 25 12 .4-12.8 1.6-25.4 4-38m-151 128c-1.8-1.8-39.9 5.1-47.4 3.9-7-1.1-12.1-8.2-16.6-12.9-2 16.5-4.7 32.9-7.2 49.3-1.1 7.1-4.9 20.1-4.8 26.2 0 4.7 5.9 28.9 7.7 34.3 3.6 11.1 10.4 13.8 20.6 8 20.7-11.7 39.9-68.2 45-91 1.3-5.9 2-11.8 2.7-17.8m-133 209c-1.1 0-2-.2-3 .5-1.8 1.2-4.5 24.4-5.3 28.7-1.5 8.3-3.3 16.7-5.7 24.8 2.4 1.8 11.8-9.8 13.5-12 2.5-3.2 7.6-10 8.3-13.8 1.2-6.4-7.6-20.8-7.8-28.2" class="outline" data-original-prefix="outline"/></g><g id="06_Left Ear" data-trait="slasher"><path id="fill-ear-lft" class="fill"  fill="#fff" d="M326.7 182.1q1.65-.45 3.3.3l180.7 78.4c55.2 39.7 111.9 77.8 165.3 119.7l109 135.9c10.5 65.4 16 132 25.2 197.8 24.6 50.1 52.6 98.7 77.3 148.7 1.5 3.1 5.4 9.5 5.5 12.5.2 4.7-8.5 15.9-11.2 20.8-15.1 27.1-18.8 33.2-43.9 52.1-22.9 17.2-44.3 28.5-72.5 35.5-8 2-18.1 5.7-25.3.5l-82.9-79.1c-9.9-22-17.5-45.3-28.1-66.9l-154-109c-23.7-34.4-41.7-73.1-64.9-108.1-9.8-43.7-27.6-90.2-34.9-134.1-5.9-35.7-6.9-73.6-12.5-109.5-9.3-20.9-22.7-40-30.5-61.5-1-40.6-6.8-81.2-8.3-121.7-.1-3.4-1.1-11.4 2.8-12.4Z" class="fill" data-original-prefix="fill"/><path id="outline-shading-ear-lft" class="outline"  fill="#000" d="M740 656.5c-.2.6-2.2 2.5-3.3 2.3-8.8-3.8-18.2-6.7-27.7-7.9l2.9-18.9c-2.2.6-8.4-3.2-9 .4-.5 3.2.2 7.5 0 11-.1 2.3-1.1 4.4-1.1 7 0 7.5 18.1 33.6 22.6 42.5 8.8 17.2 15.8 35.7 24.9 53.1 31 58.9 70.5 108.5 113.3 158.7 2.1 4.5 1.6 9.6 4.2 13.8l-8.1 11.9c-29.4 24.7-56.9 43.6-94.7 53.3-12.1 3.1-23.3 8.5-26.8-7.7-.3-1.5.8-3.6.6-4-.2-.3-4.4-1.7-5.9-2.7-29-18.5-62-46.6-79.6-76.4-12.3-20.8-19.5-45.2-30-67-31.6-23.3-70.3-37.8-100.9-62.1-22.3-17.7-40.8-39.6-57.5-62.5l49.1 39.9c36.5 27.8 75.8 55.8 121.1 66.9 4.2 1 15.1 4.3 18.4 2.8 1.8-.8 4.9-4.8 6.4-6.6 1.1-1.3 4.8-7.2 5.2-7.4 1.5-.8 8.7 3.8 9.7.2 1.4-4.7-3.1-6.9-3.7-10.1-.8-3.9 2.4-5.9-1.1-9.8-4.5-5-29-13.8-36.5-16.5-28.4-10-58-13-83.8-28.2-26.3-15.4-36.9-25-53.7-50.3-2.6-4-16.5-28.1-18-29-1.6-1-14.6-.7-17.5-.5-3.5.3-15 3.5-16.9 2.9-3.8-1.2-.6-14-.6-17.4s-.9-8.1-1.2-8.4c-.7-.7-15.5-1.9-18.1-2.4-6.4-1.2-12.4-3.4-18.8-4.7 2-8.2 1.4-19.1-3.2-26.3-1.3-2.1-4.6-4-4.9-6.2-.4-3.5 2.4-2.8 2.9-3.6.4-.6-2.4-4.4 1.8-5.6 5.9-1.8 23.5 7.3 31.3 5.8.5-2.6-5.3-9.2-5-10.5.5-2.7 10.7-1.1 13-1.5-8.8-26.7-18.8-53.2-24-81l22.8 44.7c4 7.5 17.9 33.6 23.1 37.9 2 1.7 4.7 1.7 5.8 2.7 2.7 2.5 0 7.7 8.2 5.8 1.1-1-5.2-9.4-4.9-11.4.4-1.8 3.6-2.4 4.4-3.6 1.9-3.1-5.6-15.1-7-19-5.6-15.1 1.7-35 2.5-51.4 1.2-23.5-2.8-46-9.8-68.3-1-3.1-7.9-23.5-8.9-24.3-5.5-4.3-15.6 0-18.7-1-3.5-1.1.3-7-3.2-7s-6.9 1.8-10.5 1c4.2 11.6-11 7.8-18.5 8-2.2 0-6.3 2.6-7.4-.6-.5-1.4.1-5.1-.1-5.4-.6-.6-13.3-.7-16.2-1.2-6.1-1.2-11.8-2.6-14.5-8.5-4.6-9.9-7.1-24.7-11.5-35.5-1.4-3.3-4.1-8.8-5.8-12.1-.5-1-1.8-.4-2-1.2 3.5-.2 7.9 3.2 10.9 5.1 5.8 3.6 14.4 11.7 20.6 12.4 1.2.1 7.2.3 7.5 0s-.3-3.1.1-4.4c1.2-3.8 21.1-3.4 25.4-5.7 4.4-.3 3.5 3.7 3.5 7 1.2-.2 7.7-.7 8-1 .8-.8-1.5-5.5-.9-7.4.7-2.1 4.4 0 2.1-5.3-10.9-25.6-39.7-48.8-53.6-73.4-3.5-6.2-2.7-12.6-5.6-18.9.9-.8 15.4 4.7 17.7 5.8 13.7 6.7 30 18.3 43.2 26.8 22.4 14.3 43.8 27.4 62.1 46.9 2.5 2.7 15.3 19.2 16.5 19.5 3.3.8 12.8-18 18-18 3.3 0 12.2 12.6 15.3 10.9.3-.2 3.6-5.5 3.7-5.8 1.6-4.8-9.7-10.6-11.7-14.5 0-1 10.6-15.5 11.6-16.5 7.3-6.6 13.8 7.7 19.1 8.8 2.9.6 10.8-7.6 14.7-7.6l30.2 18.8c6.2 6.6-11.4 13.4-10.6 18.5.3 2.1 19.7 10.9 16.6 16.6-1.7 3.1-16.4 11-18.1 17-5.2-.6-12.1-14-15.9-14-2.1 0-7.9 7.5-7.4 9.4.7 2.6 13 9.1 12.8 11-5.7 4.7-7.3 20.9-10.4 24.7-3.9 4.7-14.4-7-19-7.9-1 0-5.4 11-5.4 12.4 0 3.4 8.1 15.2 8.9 20.1.9 5.7-.9 10.8-1 15.9-.8 37.5 1.5 75.1 9.3 111.7 3.4 15.8 6.3 33.6 17.7 45.3 1.1 1.2 2.2 2.8 4 2.5 7.4-15.6 15.5-31 25-45.5l52.3-6.5c1.9-.6 1.7-9.4 6.2-8 2.8.8.3 6.5.7 9.2.2 1.4 4 10.8 4.8 11.3 2.7 1.8 3.5-2.9 4.2-3.4 1.1-.7 21.1 3.8 23.1 5 5.1 2.9 1.2 13.5 3.3 14.9.5.3 11 3.3 11.4 2.9-.2-1.5-3.2-14-1.5-14 7.8 2.5 15.6 5.3 23.4 7.6 2.5.7 7.1-.4 7.1 2.9 0 1.7-3.9 8.1-1.9 10.4.5.5 13.2 3.8 13.9 3.1-1.7-19.9 3.8-11.3 16-8.5 2.3.5 7.6 0 8.6 1.4 1.6 3.5-.8 14.7.6 16.9 1.1 1.8 10.9 1.9 13.1 7.4l4.8 25c.3 1.1 2.2 1.2 2.9 2.3 3.6 5.6.2 35.3-.9 43.4-6.1-5.8-9.5-24.4-15-29.5-1.3-1.2-5-2.7-6.9-3.1l3 12.5-31-6c2.7-12.5 4.3-20.4-11-22-.8 4.4 1.1 12.7 0 16.5Zm-18.1 210.6c-2.5-1.5-4.3 2.9-6.4 2.9-2.3 0-6.2-7.7-9.1-2-1.1 2.2 2.7 4.5 3.3 6.7 2.3 8.6-7.1 12.5-7.3 20.2 21.9 21.6 42.8 47 66.5 66.5.9.8 6.3 5.2 7 4.5 0-3.8-1.4-7.5-2.3-11.2-1.5-5.9-5.2-21.7-7.9-26.1-4-6.8-15.2-17.8-20.7-25.3-5.1-6.9-9.9-14.2-14.6-21.4-1.4-2.2-8-14.4-8.7-14.8Z" class="shading" data-original-prefix="shading" opacity=".2"/><path id="outline-ear-lft" class="outline"  fill="#000" d="M805 969c-1 4.2-9.1 7.7-13 9.5-10.8 5-38.1 16.1-49 17.1-3 .3-21.2-3.2-23.6-4.5-5.2-3-26.4-26.9-32-33-5.2-5.8-27.3-30.2-28.4-35.6-.9-4.3-.4-16.8-2-19l-26.8-14.7c-9.4-13.7-18.7-39.5-29.3-51.2-4.2-4.6-28.2-14.2-35.7-18.3-76.8-42.5-123.8-96.3-162.9-174.1-2.2-4.4-9.6-18-10.3-21.8-1.3-6.8 7.3-14 4.4-23.3-.7-2.3-6.9-8-9-10-3.3-3.1-11.3-8.2-13.4-11.6-4.3-7-9-29.3-10.8-38.2-3.4-16.7-7.2-39.9-6.3-56.7 1.2-23.3.8-41.3-3.3-64.7-.8-4.6-6.2-24.5-5.2-26.8 1.1-2.4 6-5 5.5-9.5-.3-3.1-10.1-11.3-12.2-14.8-3.9-6.6-6.1-16.9-10.3-24.7-6.3-11.9-13.3-15.5-15.4-29.6-3.9-26.6-5.8-66.7-5.8-93.7 0-7.3 1.6-46.2 6.3-49.8 2-1.5 9.4 1.1 12.1 1.8 70 20 155.2 61.5 217.1 99.9 4.9 3.1 28.8 17.4 30.3 20.7 1.6 3.5 3.2 16.1 6.7 18.2 5.9 3.6 22.2-6.7 29 1.1 37.1 34.2 81 66.8 114.6 104.4 27 30.2 49.1 67.9 73.9 100.1 3.2 23.4 2.7 47.6 4.6 71.4.7 9 4.2 21.8 4 30 0 5.2-8.5 14.2-6.8 19.7 1.2 4.2 6.7 6.1 8.8 8.3 2.6 2.8 4.3 24 5.4 29.6 4.3 22.4 13.9 55 25.7 74.3 6 9.9 15 18.3 19.9 28.1 6.1 12.4 10.4 26.9 16.3 39.7 8.3 18.1 20.9 33.9 21.8 54.2.1 3 .5 7.8-.5 10.5-10.9 12.7-18.4 31.3-29.5 43.5-5.6 6.2-15 10.5-22 14.5h-2s-.9-.4-1-1c13.7-19.8 31.3-39.5 26.8-66.3-1-5.6-12.7-36.1-15.6-42.4-5.6-12.2-14.8-25.3-21-38-11-22.2-25.3-51.4-33.9-74.1-5.7-14.9-4.5-29.3-6.2-44.8-.7-6.3-3.8-20.8-8.3-25.2-1.7-1.7-10-3.9-12.7-5.3v15.5c0 .7-.8 3.6-2.5 3.6-4.4-.1-9.8-3.9-14.4-4.2-1.4-1.6 2.9-18.3.4-21.9-.6-.9-19-7.7-21.1-8-2-.3-1.3 0-1.5 1.5-.9 6.8-1.1 13.7-1 20.5l-18-3 2-25-21-4v24l-17.9-4.1-.2-22.8-16.9-2c4.7 25.4 8.6 50.4 23.2 72.3 7.3 11 17.5 19.1 24.6 29.4 37.1 53.6 56.5 116.8 93.4 170.6 3.5 5.1 16.1 19.8 16.8 24.2-1.5 8.2 4.7 24.8.5 31.4-1.2 1.9-5.5 5.8-7.4 7.6-2.2 2-18.3 15.1-20 13.5 1.4-6.6 5.4-12.5 5.6-19.3 1.1-32.7-36.3-97-53.5-126.3-1.9-3.2-15.2-25.4-16.7-25.3-1.4 2.6-6.8 7.9-6.6 10.4.4 4.4 11.5 8.8 11.1 13-.1 1.5-8 13.9-9.5 13.5-2-.5-9.8-11.5-12-11-1.5 3-9.6 13.7-8.1 16s11.9 7.9 12.4 10.6l-8.3 16.3c-2.5-2.3-10.7-11.6-13.9-11l-6.2 12c-.3 2 11.9 8.8 13.5 11.7l-6.9 16.3c-3.1-.9-12.7-11.6-15-10-.6.4-4.8 13.4-4.8 14.5 0 2.3 3.7 22.8 4.5 25.4 1.4 4.5 24.3 25.5 29.4 29.6 12.2 9.7 31.8 22.9 46.6 27.4 14.4 4.3 36.2-2.2 50.3-6.8ZM543.2 313.1c3.3-2 15.4 11.6 19.3 12.9 3.9-.8-1.1-15.9-2.9-18-36.7-23-73.3-46.1-111.5-66.5-38.6-20.6-78.2-40-120-53.5-2.6 32.2.3 64.5 5.1 96.4 1.8 11.4 3.5 27.6 8.3 37.7 2.5 5.2 6.5 10.4 9.2 15.8 3 6 5.2 14.5 8.2 19.8.7 1.2 11.2 11.6 12.1 12 3.5 1.6 14.2-1.9 19-.5l-2-12 18-1 1.9 10.4c1.2 1.8 15.8-2.2 19.1-1.4l-3-11c2.8-.2 16.7-3.2 18-2 .3.3.8 8.6 2.7 9s14.7-1.8 14.3-4.5c-.2-1.6-16.9-21.8-19.4-24.6-18.9-20.9-41.7-37.5-65-53l-22.5-39c13 3.4 21.1 15.6 32.1 22.4 6.3 3.9 13.5 6 19.4 10.6 43.8 41.5 80.5 75.3 110.7 128.3 1.1 1.9 3.6 9.9 4.9 5.3 0-6.8 12.4-28.8 11.9-33.1s-18.1-14.3-16.9-18.8c.3-1.3 8.8-11.9 10.2-11.6 1 .2 11.8 11.3 14.1 12.9.8.6 1 1.4 2.5 1l10.1-17.4-16-13.2c1.3-1.8 7.4-12.8 8-13.2ZM679 589v-15c2.5 1.1 16.2 3.1 16.9 4.1 1.5 2.4-2 11.7 1.8 13.7 1.2.6 20.5 5 21.3 4.2v-12c2.3.6 16.3 3.4 16.9 4.1 1 1.2-1 11.6.6 14 .7 1 19.5 7.1 22.5 8v-15l15.9 4.1c1.1 3.5-1 16.6.3 18.7.3.4 8.8 4.2 9.2 4.1 4.3-1 4.7-12.9 4.6-16.4-.5-12.2-2.7-24.8-4-37-1.9-18.2-1.7-39.9-12.2-55.8-13.3-20.2-35.2-45.9-50.8-65.1-25.1-30.9-50.5-58.4-81.5-83.5-6.3-5.1-39.9-31.4-44.9-32.1-9.5-1.3-11.1.7-16.5 7.5 2.5 3.1 20.6 15.1 20.9 17.1s-10.7 10.7-13.2 12.2c-2.6-.2-13.1-11.9-17.2-13.9-1.2-.6-.6-1.2-2 0-1 .8-10.6 16.5-10.5 17.5 2.4 1.9 15.4 11.6 15 13.9-2 1.3-8.7 12.6-9.5 12.7-3.4.5-9.3-7.3-11.9-9.1-1.1-.7-.7-1.6-2 0-3.5 4.3-10.5 29.4-12 36-8.3 36.7-15.9 94.1-10.2 131.2 3.7 24.3 24.5 84.2 45.4 97.6 8 5.1 16.2 6.2 20.5-4.1 3.9-9.4 5.6-24.9 8.5-35.5 2-7.3 8-28.2 11.4-33.6s36.5-23.7 44.2-27.8c1.6-.8 12.1-6.4 12.7-5.8-2.9 13.5-11.6 25.8-10 40 6.7-.1 13.4-.2 20 1Zm-242-9h18c1.8 4.8 1.4 14.3 3.2 18.3.6 1.3.8 1.6 2.3 1.7 8-1.8 16.5-.6 24.1-4l-2.6-19 17.1-1.6L502 590c2.9-1.8 12.6-5.5 13-8.5s-5.1-12.9-6.9-16.1c-5-9.4-11.9-18.4-18.1-27 1.8-4.6 4.9-8.7 6.9-13.8 14.5-37 1.3-96.9-16.5-131.6-1-1.9-6.5-12.5-7-13-.7-.6-1-.9-2-1-4-.5-16.4 4.8-21.5 5.1l2 12.3c-.4 1.9-14.4 2.3-17 2.6l-2.6-12c-3.5 1.7-16.5 1.1-18.5 2.5-2.5 1.7 1 8.7 0 11.6-3.3-.2-13.6 2.4-15.9.9-1.1-.7-1.5-8.4-2.6-9.9-1-1.4-17.5-1.5-19.8-.8-1.6.5-5.5 4.7-5.7 6.4 2.5 15.4 6.6 30.4 8 46 3 32.6 1.1 54.6 9.3 87.7 4.3 17.3 11 50.8 26.8 60.2 3.3 2 21.5 6.4 25.5 6.5 1.6 0 1.6.4 1.3-1.3-1-5.6-2.6-11.2-3.8-16.7Zm88 26c-2.8 1.5-17.4 8.3-17.9 9.7l3.5 25.4c-1.1 1.5-15.9 3.8-17.7 2.5-2.5-1.8-2-23.2-4.6-23.7l-25.4 3.1c-1.2 4.2 4.2 20.8 2.6 23.1-1.5 2-15.3.9-18.5-.2l-2.1-22.9c-6 1.7-17.4-2.2-22.3-1-1.1.3-1.7 3.5-1.7 4.6 0 5.6 13.8 27.3 17.6 33.4 24.3 38.7 60.1 84.3 97.7 110.3 12.7 8.8 92.4 51 94.5 58.5.7 2.5.1 5.8.9 9.1 1.6 6.8 9 25.1 12.5 31.5 2.1 3.9 3.4 7.9 8.8 7.7-.6-4.4 5.7-11.7 4.9-15.3-.5-2.1-12.1-10-14.7-11.9-1.2-2.1 4.5-12.2 5.9-14.2 4-5.5 13.6 10.7 17.8 8.2.6-.4 6.3-11.8 6.2-13.3-.3-2.7-10.9-9.1-12.6-12.6-1.2-2.3 6.4-12.6 8.1-15 1.2-.3 10.1 8.8 11.9 10 1 .7 1.1 1.5 2.6.5 1-.6 8-12.7 8-14.1 0-3.4-9.9-8-11.5-11.5-1.7-3.8 6.4-11.4 8-15 2.7.7 12.9 12.2 14.5 11 .2-4.6 10.8-14.6 9.9-18.3-14.9-20.2-30-40.5-48.3-57.7-2.2-25.1-4.9-55.6-16.5-78.5-5.7-11.2-11.6-13.3-21-3.7-27.5 28.3-20.1 73.5-3.5 105.2.7 1.3 4.6 5.5 1 5-2.6-.4-11.2-5.3-14.2-6.8-22.8-12.2-43.3-26.9-61.6-44.9-1-1-3-1-4.2-2.3-2.5-2.8-8.9-41.6-10.8-49.2-2.3-9-5.8-17.7-7.7-26.8Z" class="outline" data-original-prefix="outline"/></g><g id="07_Head" data-trait="dreads"><path id="fill-head" class="fill"  fill="#fff" d="M1438.3 1700.3c-.2 0-2.2 2.2-2.2 2.4-1.8 9.4 3.2 21.3 3.9 30.8 1.9 23.4-5.3 52.9-7 77-1.1 16.2.6 36.3-2.3 51.7-2 10.9-16.9 26.5-22.9 37.1-4.5 7.9-12.2 30.3-17.3 34.7-8.5 7.3-25.6 4.3-32.5-3.8-5.7-6.7-10.3-25.2-11.7-34-5.1-32.7 10.5-59.7 6.7-92.7-.9-7.8-10.5-7.6-13.1-2-8.3 17.9-12.2 40.1-19.5 58.5-1.1 1.2-2.1 2.7-3.5 3.5-4.1 2.4-21.2 9.7-25.5 10.5-3.2.6-9.3-1.2-10.9 2.1-2.3 4.7 2.3 16.2 3.2 21.8 4.4 27.6 6.4 46.2-14.2 67.2-5.1 5.2-10.4 9.8-17 4-4.8-4.2-24.1-31.7-26.3-37.7-3.7-10.2-.4-19.2-1.2-29.8-.6-7.7-1.3-12.2-10.5-10.4-2.3.4-13.6 12.3-16 15-3 3.2-16.5 18.8-17.2 21.8-.7 2.7-.4 7.8-.3 10.8.6 16.9 8.8 37.9-11.7 46.2-7.5 3-14.9 5-21.3-1.2-5.7-5.6-4-17-16.3-13.3-2.7.8-14.3 24.5-19.8 29.2-3.6 3.1-24.2 10.1-28.3 9.3-5.1-.9-3.9-18.8-3.7-23.3 1-21.9 11-55.3-4.9-74-2.9-3.4-11-4.2-12.8.3-3.1 7.6-3.9 26.4-3.2 34.7.5 6.1 3.9 14.4 4 19 .2 5.3-2.2 17.9-3.4 23.7-1.6 8.1-6.9 24.9-11.8 31.2-5.7 7.3-21.5-10.1-25.4-14.4-4.7-5.2-8-15-17.5-10.5-1.4.7-10.8 21.5-16 26.1-14.6 13-20.5-12.5-25.5-21.6-8.2-14.9-18.5-28.2-27-42.9-1.8-3.4-11.2-2.7-12.2.2-1.1 3.6 0 8.8-.6 13-1.4 8.3-23 42.7-30.4 46.6-4.2 2.2-7 0-10.7-2.1-3.3-1.9-17-14.3-17.4-17.4l1.8-24.8c-1.2-29.7 2.3-46.2-14.2-71.9-15.6-24.2-8.4-55.3-11.9-82.1-.5-3.9-7.3-21.4-10.6-22.4-11.1-3.3-11.7 5.2-9.9 13.9.9 4.5 5.1 9 6.1 12.9 2.5 9.6-5 46.3-5.6 59.5-.7 15.2-.7 33.9 0 49.1.3 6.6 4.5 29.9 1.9 33.9s-15.5 6.6-19.9 5.1c-3.9-1.3-20.8-20.9-25.5-25.5-7-6.8-22.2-16.9-25.2-25.8-3.4-9.9-1-26.3-2.3-36.7-.8-6.2-7.4-7.6-11.6-4.5-.7.5-8.7 13.2-9 14-3.8 12.3 4 30.8 4.4 43.3-4.4 4-7.4 18.8-13.3 18.8s-30.8-23.1-36-29.1c-19.9-22.6-18.7-54.5-36.7-81.3-5.7-8.6-32.5-38-32.6-45.2 0-2.5 1.5-6.2 1.8-9 1.2-13.5 3.9-38.3 2-50.9-.8-5.1-4.8-5.5-9.4-4.5-3 .6-10.8 13-12.7 16.3-16 27.4-18.1 59-16.9 90.2.5 12.7 5.8 18.9-5 29.9-4.2 4.4-19.8 12.9-25.7 13.2-11.8.6-10.3-16.1-11.5-23.1-5.1-30-20.3-56.1-24.6-86.4-1.4-9.8 8.3-40.6 10.4-53.1 3.5-20.4 3.5-37.6 10.6-57.4 15.2-42.8 32.3-75.8 34.7-123.3.5-9.4 3.3-23.6-10.9-18.9-19 6.2-31.9 40-40.9 56.1-11.8 21.2-11.9 14.2-29.9 25.1-13.8 8.4-14.9 17.7-21.5 30.6-5.1 10-9.3 10.4-16.9 17.1-3.9 3.5-18.8 19.3-23 18.1-2-.6-5-4-6.4-5.7-8.1-9.5-20.4-25.7-19.6-38.4 1.5-24.2 28.4-79.9 41.6-101.4 6.6-10.8 22.5-28.1 26.6-37.4 3.9-8.8 6.3-20.9 10.3-30.7 4-9.5 13.2-23.1 15.5-31.5 4.7-16.7 5-41.8 9.3-60.7 9.5-42.2 36.5-73 59.1-108.9 4.3-6.8 18.3-26.9 20.1-32.9.7-2.4 1-6.8 0-9s-11.8-12.1-14.5-15.6-6.8-8.6-7.1-13c-.3-4.7 5.8-18.1 8.2-22.9 4.6-9.1 11.8-14.4 10.9-25.1-.9-10.6-6.1-14.3-.2-26.2 2-3.9 8.7-9.3 9.2-11.8 2.4-12.3-10.9-11.3-14.7-19.2-5.2-10.7 5.2-32.5 13.8-39.8 8.7-7.3 20.7-7.8 29.5-14.5 5-15.5 3.9-34.5 8.4-49.6 3.3-11.1 14.1-18.2 22.7-25.3 39.7-32.9 86.7-69.6 130.6-96.4 36-22 73-20.6 114.4-22.6 24.7-1.2 31.1.4 55.3-7.7 18.1-6.1 17.8-8.2 38.2-3.8 12.2 2.6 24.6 10.2 36.5 9.5 28.4-1.6 42.8-12.1 73.3-2.2 5.7 1.8 14.5 7.5 18.8 8.2 20.4 3.2 49.5-3.7 71-2 32.4 2.6 56.9 22.2 84.8 35.2 17.9 8.4 39.6 11.6 54.7 24.3 27.2 23 55.4 62.8 69.5 95.5 7 16.3 11.3 37.6 18.7 52.4 5.2 10.3 17.9 20.9 21.7 32.3.6 1.8-.2 4.1.7 6.3 2.3 5.2 24.5 8.7 29.3 16.7 2.1 3.4 3.9 13.7 4.8 18.2 1.3 6 1.9 12.1 2.8 18.2 6.6 5.4 20.6 8.8 23.1 18 1.9 7.3-5.2 15.5-2 23 1.1 2.5 21.5 16.8 25.5 20.5 1.7 1.6 6.5 5.9 7.2 7.8 2.5 6-3.9 31.1-5.1 39.4-1.5 11-3.1 44.5-9.6 51.4-5.4 5.8-12.1 2.1-9.3 15.2.8 3.6 9 14.6 11.6 18.4 1.7 2.6 7.2 8.2 7.8 10.2.9 2.8-.9 14.9-.6 19.6 1.1 22 7.3 29.1 20 45s8.5 41.5 16.1 59.9c4.8 11.5 17.6 30.4 25.1 40.9 13.5 19 48.6 52.6 53.9 72.1s6.8 49 2.4 68.7c-3 13.7-10.5 17.1-23.5 20.5-21.3 5.5-20.9-10.1-27.8-24.2-19.6-40.2-53.5-73-85.6-103.4-4.6-7.1-3.1-23.5-5.4-26.6-1.8-2.2-10.2-2.3-11.6.6l-2.5 29.5c-1.5 20.1 7 37.6 10.7 57.3 3.1 16.8 2.6 36 5.8 51.2 1.6 7.6 11.3 24.9 15.4 32.6 9.8 18.8 21.3 36.7 32.2 54.9-2.6 10.6-4.6 21.3-5.9 32.1-4.7 41.6 3.3 82.3-34.7 112.3-3.5 2.8-11.6 9-14.9 4-3.8-9.9-11.5-20.1-15.4-29.6-3.6-8.7 1.3-26.6 1.9-36.9 1.7-33.3-2.7-60.1-16.8-90.2-2.8-6-8.8-18.6-12.7-23.3-2.2-2.7-7-2.7-10.2-1.7zm-406.2-514.4c-2.8-1.7-2.3-17.6-2.2-21.4 1.1-24.4 7.1-49.3 4.1-74-.7-5.5-5.5-13.2-6.8-19.2-1.9-9.2-2.1-24.9-2.3-34.7-.4-17.7 2.8-39.5 1.1-56-.8-7.3-6-13.8-14-10-3.8 1.8-14.9 33.6-15 39 0 2 .2 3.6.5 5.6 3.8 20.3 19.8 44.4 18.6 66.5s-17.6 46.9-19.9 68.1c-1.7 15.4 1.7 33 0 49.9-1.9 18.4-11 34.6-7.5 52.5 1.2 6.3 5 14.8 5.5 20.6.6 8.4-13.2 10.5-19.7 8.6-11.1-3.3-27.6-22.4-29.2-33.8-2.5-17.8-2-28.8-8.4-46.6-2.7-7.4-13.4-26.8-13.7-32.3-.4-9.3 5.5-31 6.8-42.1.8-6.5 3.2-21.2 2.1-26.8-.8-4.4-7.9-4.5-11-3-1.2.6-11.7 16.9-13.4 19.6-8.5 13.1-15.9 29.8-25.2 41.8-17.9 23.1-64.6 33.9-91.9 43.1-9.8 3.3-25.2 10.9-34.4 12.6-4 .7-7.6 0-11.3.7-1.7.3-10.7 3.7-11.2 4.8-2.7 5.4 6 26.1 8 33 3.9 13.4 9.9 26.4 5 40-8.3 22.7-21.5 38.2-23.5 64.5-.9 12.6 3 22.6 3 33s-4.4 17.1-5 25c-1 13.2-.2 32.8 2.3 45.7 3 15.4 12.6 30.6 16.2 45.8 1.6 6.6 1.2 14.5 2.7 20.3 1 3.6 12.2 17.1 15 23.1 9.9 21.1 6.7 47.9 18.6 70.4 3.4 6.3 16.6 25.1 23.2 26.8 17.3 4.6 11-9.9 12-21 .7-7.2 4.2-18 7.8-24.2.5-.9-.3-1.7 1.6-1.2 8.5 2.4 9.1 11.9 13.6 17.4 9.3 11.2 20 14.9 32.1 20.9 16.4 8.1 12 15.6 20 27.1 13.9 19.9 65.1 49.8 88 58 10.8 3.8 46.2 12.8 56.3 11.3 37.7-5.9 101.9-32.7 124.6-64.4 9.1-12.7 12.7-25.2 28.5-32.5 6.4-3 20.2-5.2 24.7-9.3 7.6-6.8 8.3-25.3 19.6-28.4 1.9-.5 1.1.3 1.6 1.2 2.9 5 6.8 16.8 7.5 22.5 1.6 12.4-5.7 28.4 13.8 22.3 24.4-7.6 30.5-61.2 36.9-82.1 1.8-5.8 9-23.2 13.5-26.5 4.1-3 17.8-5.4 19.7-10.3 1.7-4.1 1.4-12.2 1.3-16.8-.2-12.7-3.1-28.5-2-40.9 1.7-20.5 8.1-44.1 10.8-65.2 2.3-17.5 6.4-45 4.2-61.9-.2-1.7-.4-3-2-4l-63-5c-29.3-21-67.3-26.6-97.3-45.7-13-8.3-15-16.2-21.6-29.4-13.6-27.8-23.8-54.2-41.9-80.1-6.2-8.9-15.1-15.4-16.2-26.8-.7-7 .5-14.9 0-22-.8-11.4-1.9-27.9-4.1-38.9-1-5.2-11-4.6-12.5-1.6-1.7 9.8-2.5 20.4-5 30-3.4 13.3-12.8 24-19 36-3.5 6.8-10.8 27.7-16.5 30.5-1.1.5-2.9 1-3.8.4l-.2-.5Zm258.6 58.8c.7-2.2.7-6.7-.2-8.7-.6-1.4-14.8-15.1-17-17-19.3-16.6-55.4-27.8-68.3-48.7-8.8-14.2-11.9-31.2-20.6-45.4-7.9-13-18.3-24.8-26.1-37.9-21.6-5.8-8.1 18.4-5.3 28.3 8.9 31.4 22.5 68.5 45.2 92.8 18 19.3 26.6 13 45.6 23.4 6 3.3 10.9 10.7 16.2 12.8 4.8 1.9 23.1 3.7 28 2.7.2 0 2.4-2.1 2.4-2.2h.1Z" class="fill" data-original-prefix="fill"/><path id="outline-shading-head" class="outline"  fill="#000" d="M1393 1007c.2 0 2.1-.4 2 .6 5.4 12.2 6.4 27.7 12.8 39.1 5.2 9.4 13.8 16.8 20.2 25.3-11.4 0-22.9-7.3-32.7-12.8-17.4-9.9-21-15.2-34.3-28.7-5.9-6-22.2-19.6-25.9-25.1s-8.5-24.8-11.6-32.4c-8.3-20-25.2-33.5-41.5-47.5-15.6-13.4-19.7-16-40-21-10.9-2.7-23.6-3.7-34-7-17.5-5.5-59-40.2-69.4-55.6-4.4-6.5-4.3-8.5 3.9-9 2.2 0 5.5-.3 7.5.5 2.2 1 11.1 11.3 14 14 10.4 9.4 23.6 21.3 35.3 28.7 20.8 13.2 49.9 10.2 71.6 21.4 10.5 5.5 51.5 42.6 58.6 52.5 11 15.5 13.3 44.5 25.6 56.5 12 11.7 21.5 16.8 35.6 4.5 1.6-1.4 2.3-3.9 2.5-4z" class="shading" data-original-prefix="shading" opacity=".2"/><path id="outline-shading-head1" class="outline"  fill="#000" d="M788.5 985c16.9-1.9 66.1-31.6 81.8-42.2 6.1-4.1 11.8-10.3 18-14 17.4-10.4 44.8-18.2 64-28 9-4.6 35.8-20.4 42-27 1.3-1.4 5.1-7.9 5.5-9.7.7-3.6-3.7-5.5-1-8.8 1.1-1.3 10.2-3.3 13.4-5.6 8.3-5.7 7.6-13.2 4.7-21.8l33-4c1.1 1.1-7 12.7-4.9 15.9 24.8 4.5 47.1 14.9 65.9 31.6 8.1 7.2 20 22.7 28.9 27.1 12.1 5.9 44.2 6.2 59.3 8.7 19.2 3.3 21 5.4 33.3 19.7 14.5 16.9 23 31.5 41.8 45.2 12.5 9.1 27.2 14.9 37.8 26.2 13.6 14.7 23.8 34.5 37.5 49.5 8 8.8 17.3 14.2 26 22 13.3 11.9 23.8 26.9 37.1 38.9 13.8 6.9 29.4 7.6 44.3 10.2.6-7.8-.4-14.7-3-22 .5-.5 7.1 1.5 7.8 2.2 1.9 2.3 3 23.5 5.7 29.8 3.6 8.3 22.6 16.4 23.4 19.6 1.1 4.5-6.8 13.4-2.4 22.4 1.9 3.8 11.4 12.6 15 16 2 1.9 7.6 5.3 8.5 7.5.7 1.6-.5 1.3-1.2 1.7-3.7 1.7-12.3 1.8-14.8 4.3-3.1 3 1.5 21.4 3.8 25.3 1.9 3.2 9 7.4 11.7 11.3 1.2 1.8 5.5 10.5 5.6 12.5-2.6 6.8-3.4 33.2-6.6 37.5-1.5 2-11 3.4-12.1 5-.6.8.9 4.3.2 7.1-2.7 10.8-20.3 24.2-28.3 31.7l-6.3 55.7c-.2 18.3 18.6 31.3 29.1 45 14.5 19.1 19 50 25.2 72.8 38 36.1 78.5 77.9 95.1 128.9 1.8 5.5 6.5 19.4 6.7 24.4.2 5.8-14.7 6.1-18.8 3.1-3.1-8.7-6.7-17.3-11.1-25.4-16-29.8-43.9-59.3-68.2-82.8-7.9-7.7-19.8-13.9-22.6-25.4-1-4.2-1.1-17.6-2.9-20.1-1.7-2.2-6.8 0-8.4-1.1-1-.7-6.1-19.9-7.4-23.1-4.5-11.5-20.2-38.8-28.7-47.3-1.2-1.1-2.3-3.2-4.1-2-1 .7-7.4 11.5-8.5 13.5-9.8 17.8-16.2 38.5-19.5 58.5 7.7 45.6 13.7 91.7 19.7 137.4 15.5 23.6 36 46.7 49.8 71.2s9.8 67.1 12.6 95.4c.3 3.4 2.2 18.4 3.5 20.5 1 1.6 5.9 2.8 7.3 1.9 3.4-6.2 7.4-15.3 11.7-20.8 1.1-1.4 2.4-3.3 4.4-3.1 0 6.6 7.3 17.5 6.8 23.2-1.2 14.2-20.3 41-32.3 48.8-3.1 2-7.6 5.7-11.1 3.1-1.2-.9-12.9-23.8-14.2-26.8-6.2-15.3-.9-28.1-.2-43.7 1.3-31.1-3.8-60.8-17.2-88.9-1.6-3.2-11.6-21.5-13.3-22.8-1.5-1.2-10 0-11.1 2.1-2.8 5.8 2.9 22.5 3.5 29.5 1.3 14.6-1.8 29.5-3 44l-2 .5c-11.6-22.1-21.2-42.6-24.9-67.6-.7-4.6-1.9-26.1-3.4-28.1-1-1.4-10.1-4.4-12.2-2.3-3.6 14.3-10 28.1-13.9 42.3-7.1 26.3 5.6 54.9 1 81-4.5 25.5-16.8 56.4-23.5 82.5-2.5 9.9-5.1 20-6.3 30.2-.2.3-1.2-.5-1.5-1-1.6-2.9-5-20.6-5.4-24.6-1.8-20.4 4.3-33.8 6.9-52.9 4.6-34.7 6.4-70.1 10-105 1.2-11.6 4.2-24.7 5-36 1-15.1-4.8-35.5-2.9-49.9 2-14.5 12.4-38.6 16.6-54.4 3.3-12.2 7.7-27.5 9.2-39.8 1.9-15.9-2.1-31.4-1.9-46.9.4-28.8 8-56.9 11.9-85.2 1.1-7.9 3.2-26.2 1.7-33.4-.7-3.3-7.9-18.6-10.1-20.9s-12-3-14.4-1.6c-1.5.9-8.8 13.7-9.9 16.1-6.5 14.9-2.7 27.3-5.4 42.6-2.2 12.3-8.2 25.2-11.4 37.6-12.7 47.8-16.1 100.7-25.6 149.4-1.3 6.8-4.6 13.3-5.6 20.4-4.4 29.1-.4 58.9-10.3 87.7-7.6 21.9-21.2 43.2-24.6 66.4-4.3 29.1 7.5 60.1 18.9 86.4-3.6.8-7.1 3.1-10.7 3.8-3.2.6-9.2-.6-11.3 1.7-1.2 1.3-.2 3.7-2 3.5-14.9-33.6-26.3-70-18.5-107 3.3-15.6 11.8-28.8 15.2-42.8 3.2-13.2 3.7-29.7 2.3-43.2-1.8-2-19.1 9.3-19.8 11.7-.8 2.5-.8 11.6-1.4 15.6-6.4 36.8-17.4 66.5-28.7 101.3-1.8 5.6-5.1 12.8-3.5 18.6 1.3 4.6 8.5 15.9 11 22 5.5 13.4 14.2 38.5 15.5 52.5 1.3 14.7-2.9 23 4.8 37.2 4.3 7.9 9 11.9 17.2 15.8-4.8 5.8-11.3 15-19.3 9.3-5.1-3.6-25.5-32.4-27.4-38.6-3.6-11.9 1.7-25.5-2.5-37.5-.6-1.8-2.8-2.8-3.8-5.2-2.3-5.1-3.7-13.3-5.9-19.1-3.2-8.3-12.9-26.6-13.1-34-.2-8.1 9.1-23.2 12.5-31.5 3.1-7.6 11.2-26.6 8-34-2.6-6-12.5-2.2-16.8.2-11.3 6.3-28.7 30.3-35.1 41.9-7.2 13.1-6.4 32.8-8.9 48.1-2.7 17-7.6 33.7-10.4 50.6-4.2 25.2-3.9 49 .7 74.2-5.6-.2-8.2-13.2-11-14.5-3.3-1.6-9.7.8-10.5-.5-5.1-22-12.5-44.8-13.5-67.6-1-22.5 10.8-38.6 12.9-58.1 1.7-16.6-4.5-33.1 1.9-49.1 4.9-12.1 18.9-27 12.4-41.1-2.8-6-15.9 1.2-19.9 3.6-8.9 5.2-36.1 29.3-39.8 38.2-2.8 6.6-7 37-6.2 44.2 6.5 31.4 19.5 62.6 26.2 93.8 3 14.1 2.1 23.2.3 37.4-1.3 10.6-4 21.1-5.3 31.7-1.6 4.6-16.5 8.6-18.3 2.2-1.1-3.7-.5-20-.2-24.8 1.4-23.8 10.1-46.1-4.8-68.2-2.2-3.2-9-5.5-11.7-2.3-3.1 3.6-4.8 29.9-4.5 35.5s6.2 25.2 2.8 28.4c-1.1 1.1-3.9-2.1-2.8 5.6.3 1.8 1.6 3.1 1.7 4.8l-2.7 8.7c-4.9-14.8-12.7-28.6-18.5-43-2.1-5.1-7.2-16.6-7.6-21.5-1-14.7 7.2-33.1 5.9-49.8-1.2-15.3-9.5-37.6-8.9-51.1.7-13.3 4.9-26.6 5-40-11.1-15.1-23-12.6-36.5-2.5-12 9.1-14.1 10.2-10 25 2.8 10.4 8.2 21.2 13.3 30.7 4.7 8.8 11.3 13.8 11.2 24.8-.3 34.1-12.7 70.9-6.3 105.7-5.3 9-12 46.1-17.8 51.2-3.9 3.4-7 4.2-11.3 1.4-5.6-3.7-17.1-30.5-22.2-38.7-3.8-6.1-8.4-11.6-12.4-17.6-1.9-2.8-4.3-8.9-5.9-10.8-1.2-1.4-4.4-1.1-5-1.8-.3-.5-1-9.9-1.9-12.6-7.6-23.1-29-45.4-32.2-70.8-1.8-13.8.6-38.7-3.5-50.5-1.8-5.1-24-42.3-27.5-45.5-8.2-7.3-17.6-5.4-18.9 6.1-.9 7.8 3.9 18.3 5.4 26.3 3.5 17.8 3.6 34.5.3 52.4l-5.8 29.7c0-7.4-4-15.9-4.9-22.6-2.6-19.5 2.5-41.4-4.9-60.1-1-2.4-4.7-10.5-6.9-11.2-1.6-.5-9.7 1.3-10.2 2-.4.6.5 7.4-2.1 4.9-1.3-1.3-6.2-17.1-7.8-20.7-3.5-7.9-5.8-11.4-11.7-17.3s-5.7-8.8-8-5.1c-2.1 13.2-1.5 27.8-5.5 40.5-4.1 13.1-17.1 26.5-22.2 39.8-8 20.7-3.2 40.2-1.8 61.2.6 9.7.5 19.8 1 29.5-15.3-9.7-10.7-28.1-12-43.5-.8-9.5-2-11.2-12-9.5.7-10.4-1-22.2 0-32.5 1.4-14.1 12.7-26.2 18.3-38.7l10.5-65.1c-5.4-15.1-19.2-27.5-26-41-9.8-19.4-16.9-44.7-23.5-65.5-3.8-11.9-11.7-26.5-10-39.5 2.9-22.2 16.5-48.5 20.3-70.7.6-3.6-.2-9.6.9-12.1.4-.8 9.7-7.4 11.5-7 .7.7 1.7 17 2.5 20 1 3.7 9.2 12.7 11.7 17.3 12.8 23.3 9.5 51.8 21.3 75.7 3.7 7.5 15.7 23.8 23.3 26.7 2.6 1 7.5.2 7.2 3.3 7.9-4.7 4-12.1 4.4-19.3.4-8.1 4.4-21.3 8.4-28.4.5-.9-.3-1.7 1.6-1.2 8.5 2.4 9.1 11.9 13.6 17.4 10.6 12.7 21.8 15.1 34.7 22.3 14.4 8.1 10.9 16.8 18.8 27.2 16.3 21.4 67.8 50.7 93.5 58.5 9.3 2.8 27.6 7.7 36.7 9.3 8.9 1.5 11.7-.8 19-2.5 37.1-8.2 83.6-25.3 110.8-53.2 12.5-12.8 17.2-32.3 34.8-41.2 6.4-3.3 20.8-5.2 25.6-9.4s7.3-16.7 11.6-22.4c1.2-1.6 8.6-8.1 9.7-4.8 1.3 8.1 6.5 14.3 7.5 22.5s-.6 20.5 1.5 22c.4.3 5.4 1.2 6.3 1.2 28.5-.7 36-59.6 42-80 1.9-6.4 9.5-25.8 14.5-29.5 3.9-2.9 18.1-5.6 19.8-10.2 1.3-3.7 1.3-11.7 1.3-15.8-.2-13.7-3.1-28.2-2-41.9 2.5-33.4 13.2-68.4 15-103 .2-4.2.7-23.4-.2-25.9-.7-1.9-5.4-2.3-7.4-2.6-16-2.3-32.9-1.5-49-3-11.9-1.1-26.2-12-37.8-17.2-22.8-10.2-54.8-18.2-74-34-12.1-9.9-21.7-40.3-28.8-55.2-12.3-25.7-24.2-42-40.3-64.7-7.1-10-3.8-21.1-4.6-32.4-3-44.6-11.7-88.5-16.6-132.6l6.6-19.9c6 5.8 5.3 16.2 7.7 23.8 3.5 11.2 9.3 21.9 12.8 34.2 9.5 33 11.1 66.2 22.5 98.5 11.2 31.8 27.9 63.8 45.2 92.8 8.2 13.7 16.1 29.6 29.1 38.9 58.4 41.9 150.6 53 218.9 33.5 22.8-6.5 33.4-13.4 48.3-31.7 2.6-3.2 12.8-16.1 12.3-19.3-.2-1.4-6.4-16.8-7.1-17.5-.9-.8-5.8-2.4-7.1-2.1-15.3 13.2-27.7 32.6-49.2 35.8-36.4 0-50.8 17.8-87.8 1.9-6.7-2.8-35.7-17.8-37.5-23.5-.7-2.1.2-4.7-.2-6.8s-13.8-15.2-16.5-17.5c-20.4-17.6-54.3-27.4-68.9-49.1-9.7-14.4-11.9-31-20.6-45.4-3-5-23.9-36.4-26.5-38.5-1.7-1.4-3.9-.7-6.1-1.9-22.5-12.8-31.7-93-42.7-119.3-4.7-11.2-17.6-25-20.5-33.5-1.7-5-2-14.9-1.8-20.2 10.1 11.6 20 23.4 29.5 35.5 8.4 10.8 18.3 21.3 22.6 34.5 5.1 15.7 6.6 33.6 11.6 49.5 5.7 18.4 20.9 37.9 32.5 53.5 9.3 12.5 24.5 27.6 32.2 39.8 4.8 7.6 5.7 21 10.2 27.8 6.3 9.8 32.5 31.1 42.5 39.5 18.2 15.2 43.3 35.6 63.6 47.4 5 2.9 12.9 7.9 17.4 1.6 9.2-12.8-20.6-26.7-27.9-33-11.6-9.9-21.7-31.2-29.1-44.9-10.6-20-19.6-40.9-30-61-6.8-8-15.6-9.5-24.5-12.5-3.3-1.1-35.5-50.6-40.2-57.8-3.4-5.3-7.5-10.3-9.8-16.2-6.6-16.9-4.2-33.8-14.8-50.2-11.6-18-25.8-25.8-39.7-40.3-18.8-19.5-30.8-46.6-55.1-58.9-3.9-1.9-22.5-9.9-25.3-8.7-2 .9-10.9 6.2-12.4 7.7-3.8 3.6-6 13.1-5.4 18.1.3 2.6 2.5 6.1 2.6 7.5 0 1.9-2.8 3.3-2.6 5.7.2 2 4.6 7.9 6 10 1.9 2.8 10.6 11.1 5.9 14.2-3.1 2.1-8.7-2.4-11.6 6.4-5.8 17.5 10.1 59.2 11.5 79.5 1.4 19.7-5.6 37.6-1.5 57.5 1.3 6.2 4.1 12.3 5.2 18.8 5.5 30.8-14.2 64.3-19.7 94.2-1.7.2-.9-2.3-1-3.5-1.1-27.8 7.7-57.1 2.8-85.8-1.3-7.4-6-14.4-6.8-23.2-1.8-21.3-.6-42.8 0-63.9.2-5.9 1-27.3-4.2-30.3-.9-.5-7.9-.5-9.1 0-2.5.8-10 20.1-10.7 23.8l-2-4c1.6 6.3-1.9 11.5-2.8 16.7-1.8 11.3 8.6 24.8 9.7 36.3-7.2-8.8-14.3-21.5-18-32.5-13.6-40.3 23.3-60.8 26.9-93.1.3-3.1 1.5-12.4-3.2-11.2-20.7 14-38.6 32.1-57.2 48.8-1.8 3.9 2.2 22.7 2.5 28.5.7 17-9.7 32.8-12.6 49.2 1.8 22.9 14.3 52.8 14.7 74.9.3 16.3-11.6 37.4-12.1 51-.5 14.4 11.3 36.1 12.9 50.1 1.4 12.1-3.2 29.3 1.6 39.4 5 10.5 13.7 17.8 25.2 19.9 4.4.8 7-1.2 6.4 6.5-.4 4.5-10.5 8.5-14.5 8.4-7 0-18.5-9.7-23-14.8-16.8-19-10.1-32.7-15.8-55.2-3-11.8-17.1-36.6-17.7-44.4-.6-9 5.5-32.1 6.8-43 .6-5.1 4.1-26.6.2-28.9-1.3-.8-5.9-.8-7.5-.5-2.2.4-5 5.4-6.5 7.5-12 17-21 38.5-33.6 54.4-18.8 23.7-62.9 33.8-90.9 43.1-12.9 4.3-27 11.2-40.1 13.9-3.4.7-16.2.6-17.9 4.1-2.8 5.7 3.3 16.1 5 22 2.6 8.8 10.9 33.9 10.5 41.4-.5 10.6-14.2 32.2-18.5 43.6-8.1 21.3-6.5 30.8-6.4 52.5 0 1.4-.8 11-1.1 11.5-1.5 2-1.7-.7-2.1-1.4-6.7-13.3-12.1-31-10.8-45.9s8.2-29.6 9.8-43.2c2.1-18.7-14.5-48.5-33.4-53.5-10.5-2.8-15.3 15.2-18.2 22.8-5.1 13.2-16.8 44.9-16.3 57.8.7 16.2 18.7 59.8 26.5 75.5 4.3 8.6 9.7 13.6 11.4 23.6 5.7 33.1-1.6 44.8-7.4 75.3-2.4 12.6-4.4 22.4-2.2 35.2 1.3 7.3 4.6 15.2 5.4 22.6 1.2 11.7-7 20.1-8.5 31-2.2 15.8 1.9 37.7 5 53.4 2.9 14.4 8.9 45.3 14.2 57.8 2.4 5.7 13.3 15 17.3 21.7 12.3 20.2 6.2 57.5 3 80.7-1.6 11.7-8.2 36-7.5 46 .5 6.3 12.8 34.3 16.8 40 1 1.5 3.3 2 3.8 3.3.4 1.2-1 7.1-1 9.9 0 3.7 4.1 23.3 3 24.5-24.7-5.4-38.5-36.3-46.5-58-7.1-19.3-4.9-28.8-5.5-48.5-.7-25.5-1.6-51.2-1.1-76.9-6.8-12.1-16.7-21.2-21-35-2.9-9.3-2.3-17.7-4.3-26.7-5.9-28-19.1-53.8-14.5-84 2.6-17.1 14.7-45.4 14.8-60.3 0-11.2-4.5-30-6-42.1-.8-6 0-19.4-4.1-22.9-6.9-5.9-11.1 3.4-13.9 9.2-10.9 22.7-7.5 34.7-7.1 57.8.2 10.6-1.9 21.6-2.1 32-.2 9.4 2 20.2 1 29.1-.7 5.8-4.3 11.2-5.6 16.4-4.3 17.9 3.8 49.4 4.6 69.5.8 21.2-1.9 42.3-1 63.5l-1.1-10.4c-5.3-16.2-15.9 1.2-20.3 8.5-18.4 30.4-20 65.4-17.8 100.2l-16.8 19.7c-2.3-15.4-5.6-30.9-7-46.5-3.9-44.5 3.8-46.9 22.5-82.5 8.8-16.7 17.8-40.5 18.5-59.5.5-15.8-5.9-33-5-50 .9-18.2 8.3-40.7 8.1-57.9-.3-28.9-15.9-69.4-9.6-97.5 5.4-24.2 27.7-66.5 24.5-90.4-.6-4.6-5.7-12.3-10.7-9.4-1.2.7-13.3 19.7-15 22.5-2.7 4.5-11.1 18.8-12 23-1.5 7.2 2.5 26.9 2.8 35.7.6 15.5-1.4 25.2-5.1 40-1 3.9-6.1 23.7-7.4 25.6-.8 1.1-7.1-.9-10.5.5-12.5 5.1-23 21.3-29.2 32.8-5.2 9.6-12.5 29.7-19.3 36.7-6.6 6.8-21.1 9.6-29.1 16.9-10.8 9.9-11.3 24.4-19.1 32.9-4.2 4.6-23.6 21.3-28.9 25.1-3.2 2.3-4.9 3.8-8.4 1.5-3.9-2.5-18.7-23.3-20.9-28.1-7.2-15.4.6-30.6 5.4-45.4 1.7 7.7 6.7 26.1 14.5 29.5 4.9 2.1 15-3.9 18.5-7.5 5.7-5.8 10.1-21.4 17.5-29.5 8.3-9.1 21.9-16.6 30.5-25.5 6.7-6.9 14.4-18.7 20.3-26.7 11.8-16 22.9-32.6 34-49 1.5-28.3-9.9-61.8-5.5-89.6 2.8-18.3 31.9-45 37.1-66.9 1.3-5.5 3.7-26.5-.7-29.6-3.2-2.3-18.5-4.4-23.2-5.3-1.3-.2-1.8.7-1.5-1.4 14.7-23.9 29.8-47.7 43.2-72.3 5.1-1 12.2-1 17.1-2.4 10.1-3 14.8-27 8-34.8-2.4-2.7-14.1-9.5-18-11.8-5.9-3.5-12.2-6.4-18.2-9.8-.9-2.8 4.9-14.2 5-18.9.2-10.7-5.1-26.9-3-37.9.8-4.3 6.8-3.9 5-13-.6-3.2-11.5-8.2-14-12-6.5-9.8 3-30.1 10-38 8.6-9.7 27.4-11.8 31.5-16.5 3.6-4.1 6.3-35.5 7.8-43.2 2.3-11.7 4-15.2 12.7-23.3 7.1-6.6 16-12.9 24-18-3.4 7.6 1.5 19.1 10 20.1l110.5-62.6 1.5 1.5-15.1 21.9c-29 16.6-57.6 34.2-84.7 53.8-3.4 17.5 20.2 31.1 34.5 23 9.1-5.2 23.5-33.8 30.9-43.1s30.2-20.8 41.4-26.6c26.2-13.6 54.6-25.8 83-33.5l-30.1 28.4c-23.6 13.8-47.5 27.1-69 44-1.4 2.5-3.4 17.6-.4 17.6 4.7 0 10.5.5 15 0zm-161.3 49.2c-.5.6-.2 3.1-1 4.5-2.3 4.5-12 14.4-9.7 19.3.8 1.8 16.3 12 19.2 13.8 15.6 9.7 25.6 16.3 44.8 15.2 59.7-3.5 92.7-22.1 144.2-46.8 38.4-18.5 67.5-29.7 97.4-62.6 3.6-4 5.7-10.5 9.1-14.9 6-7.8 20.7-17.1 28.8-24.2 12.3-10.8 25.7-25 38.5-34.5 3.2-2.3 6.5-.9 7.5-6.5.4-2.2.8-8.6-1.6-9.3-.6-.2-9.8-.8-10.3-.6-2.3.8-14.2 10.9-17.7 13.3-26.2 18-50.8 29.9-77.6 45.4-29.9 17.3-51 36.9-85.8 48.2-8.5 2.8-18.8 3.8-26.5 6.5-8.8 3.1-22.3 12.6-32.1 16.9-12.8 5.7-30.6 12.9-43.8 17.2-17.8 5.8-36.1-2-54-3.1-4-.2-27.7.2-29.4 2.2m855.6 112c-1.6-1.4-18.1-1.8-22.1-2.4-18.2-2.5-38.9-5.6-56.7-9.3-9-1.9-56.2-30.6-64.5-37.5-19.2-16.3-35.3-41.5-53.6-57.4-8.9-7.7-24.2-13.6-34.2-20.8-7.9-5.7-15.8-15.6-21.1-23.9-5.6-8.6-15.4-32.6-21.1-38-.9-.8-15.4-9.5-16.3-9.7-2.8-.7-7.4 0-8.8 2.8-1.6 2.9 4.8 8.7 6.4 11.7 7.7 14.2 10.2 35.9 17.3 51.7 21.8 48.3 56.6 47.3 90.9 76.1 13.4 11.3 14.6 27.5 23.6 38.4 16.5 20.1 78.2 41.3 103.9 42.1 17.8.5 36.6-5.7 54.4-6.2.9-3.8 5.2-14.8 1.9-17.6m-254.2-198.1c-1.9.3-4.8 4.8-3.2 6.9 9.9 16 18 41.3 35.2 50.8 4.9 2.7 11.1 3.6 15.8 7.2 6.9 5.1 13.2 17.4 20 24 8.8 8.6 20.2 13.3 28.5 22.5 2.8 3.1 6.7 10.2 9.5 12.5 3.3 2.7 5.6-3.5 5.3-6.3-.2-1.5-4-10.5-4.9-12.1-5.3-8.9-32.2-44.9-39.5-50.5-17.3-13.3-33.4-18.8-49.8-36.2-2.5-2.7-15-19.2-16.8-18.9ZM917 1038c-25 4.5-37 26.2-52.5 43-16.3 17.8-20.2 15.8-42 22-9.4 2.7-21 7.8-29.9 12.1-18.4 9-41.8 29-62.1 28.9-26.3 0-48.1-8.4-68.1-25.1-5.1.4-11 1.8-16 2-10.5.6-23.6-3.2-28.5 9 35.2 15.9 68.7 35.1 102 54.5 19.4 6.1 38.2-1.8 56.8-7.2 13.4-3.9 61.3-18 69.8-25.2 10.1-8.6 25.4-28.2 33.9-39.1 5.8-7.6 34.9-48.2 35.7-54.3s.2-14.2 1-20.5h-.1Zm-218.9 75.1c-4.1 2.4 4.4 8.2 7.1 9.2 6.6 2.4 22 3.6 29.3 3.8 8.6.2 44.9-22.1 56.1-26.9 10.2-4.4 47.7-15.5 50.9-26.1.7-2.3.9-9.1.2-11.3-1-3.4-5.3-2.9-8.1-2.5-6.4 1-26.5 8.8-33.3 11.7-28.6 12.3-55.7 31.4-85.1 40.9-2.7.4-16.5.8-17.3 1.2zm580.9-3.1 33 58.5c17.8 17.3 36.4 33.3 57.7 46.3 5.6 3.4 30.6 18.1 35 19 8.8 1.8 14.2-.3 20.7-5.8 4.9-4.2 15.8-15.9 8.4-21.4-21.7-5.8-40.3-17.8-60.2-26.8-25-11.2-53.7-15.4-70.2-39.8l-24.5-30Zm-471 542c.7-1.4-.6-2.7-1-2-.7 1.4.6 2.7 1 2m150.7 140.3c-3.2-3.9-20-8.3-25.2-8.3s-9 .9-9.4 1.2c-1 .6-1.3 5.8-1.1 7.3.8 5.8 11 9.9 12.7 19.3 3.2 16.8 1.4 37.2 4.7 54.3 22.5 20.4 18 49.8 21.6 77.4.5 4.1.9 10.1 2.3 13.7 3.7 9.7 17.7 21.5 22.6 31.2l2.1.6 13-24.5c-2.8-21.3-1.7-48.3-9.8-68.1-13.2-32.4-25.8-45.3-31-83-.6-4.4-.6-18.9-2.4-21.1Z" class="shading" data-name="shading-head" data-original-prefix="shading" opacity=".2"/><path id="outline-head" class="outline"  fill="#000" d="M1442.1 1074.9c.6.7 13.6 4.9 16.2 6.2 11.3 5.6 12.7 6.5 16.2 18.8 2.4 8.7 3.6 17.9 4.7 26.8 21.1 8.1 28.9 19.4 21 42 10.7 8.1 35.2 21.5 34.8 36.5-.3 10-5.2 26.4-6.8 37.3-1.9 13.3-2.2 32.9-6 45-2.1 6.6-6.4 11.5-13.1 13.4-2.4 3.4 21.3 28.6 20 35.5-3.9 21.5 2 39.2 14.9 56 2.1 2.7 5.6 4.9 7.4 7.6 6.7 9.9 7.1 40.6 12.4 54.6 6.4 17.1 26.5 44.1 38.2 58.8 15.9 19.9 37.4 36.7 42.5 62.5 3.5 17.9 7.1 67.4-4.5 81.5-3.9 4.8-20.5 10.5-26.8 11.2-5.5.6-12 .2-16.9-2.5-7.2-4-14.5-26.3-19.1-34.9-19.5-35.8-51.1-64.9-80-93l-2.9-7.1-3.3-21.2-2.1 28.4c1.7 25 10.7 47.6 13.9 73.2 1.2 9.7.7 21.5 2.4 30.6 1.2 6.8 14.2 30.2 18.2 37.8 9.3 17.4 20.9 33.9 29.5 51.5-1.6 15.3-5.7 30.5-7 46-3.4 38.9 3.2 63.6-25 96-8 9.2-25.9 26.3-36.2 11.2-2.7-4-13.5-25.4-15-30-3.9-11.5 1.6-27.9 2.2-40.2 2.3-41.3-8.8-76-30.5-110.6.4 9.2 3.8 18.3 4.5 27.5 1.9 25.5-5.1 54.3-7 80-1.2 17.3 0 36.9-2.3 53.7-1.5 10.8-18.9 29.9-24.9 41.1-10.9 20.3-11.4 44.8-42.9 37.2-23.2-5.5-28.7-34.3-30-55-1.8-28.4 9.2-52.2 8-82.1 0-1.2.8-3.7-1-3.5l-18 56.5c-.7 2.1-1.6 4.2-3 6-2.6 3.3-18.1 10.7-22.7 12.3-5.4 1.9-10.5 2.7-16.3 2.2 5 18.3 8 41.3 5.7 60.2-.7 5.9-2.4 9.6-5.5 14.5-6.4 10.3-21.6 30.2-35.2 21.7-6-3.7-29.9-36.5-31.6-43.4-2.9-11.9 2.1-25.2-1.9-37.1-4.6 6.3-10.9 11.2-16 17-2.5 2.9-13.3 15.5-14 18-1.8 5.7 1.2 17.2 1.6 23.6.9 19.7-1.3 33.2-22.8 38.2-17.3 4-23.3-1.9-30.7-16.7-6.7 9.3-12.2 24.5-22.2 30.8-5.3 3.4-22.6 8-28.8 7.9-10.7 0-10.2-8.8-10.6-17.2-.7-17 3.2-32.6 4.1-49.1.7-12.6-2.5-24.4-10-34.5-1.5 10.9-3.9 20.2-2.9 31.4.6 6.6 4.4 14.7 4.5 20.3 0 8.8-4.8 33.8-8.2 42.3-1.7 4.4-8.1 18.9-12.2 19.8-18 4.1-30.4-16.2-40.3-27.8-4 13.4-17.9 39.6-35.4 29.9-7.6-4.2-14.8-24.3-19.5-32.5-7.1-12.5-16.8-23.5-23.2-36.3-1.6-.3-.9 1.3-1 2.5-.9 18.1-9.5 31.4-20.2 45.8-6.5 8.8-13.6 18.8-25.8 14.2-5.9-2.2-24.6-18-25.1-24-.4-4.7 1.9-13.7 2.1-19 .8-21.8 1.8-49.8-9.2-68.8-2.6-4.5-8-9.9-9.5-14.5-7.8-23.9-4.2-51.4-7.3-75.7-1-7.8-6.5-14.4-8.9-21.6-1.7 0 0 5.4.3 6.2 3.8 12.5 7.8 12.6 6.7 28.3-2.3 33.7-7.8 61.9-6 97.1.5 9.2 5.9 32.1.9 38.8-4.4 5.9-21.8 8.8-28.5 5.8-6.2-2.7-23.3-23-29.8-29.2-14-13.6-21.8-13.2-24.5-35.5-1.3-10.5-.7-21 0-31.5l-10.8 17.7c.7 5.5 1.2 11 2.1 16.5 1 6.1 5.7 18.9 4.2 23.9-.3.9-8.7 15.9-9.7 17.3-6 8.5-13.4 6.1-21.2 1.5-12.7-7.5-38.6-33.7-43.7-47.3-9.3-24.9-9.8-41.5-26.1-64.9-7.6-10.9-23.6-26.4-28.7-37.3-4.4-9.4 0-19 .9-28.9 1-12.8 1-25.7 1-38.5-24.1 26.9-28.5 64.7-27 99.5.4 9.4 4.6 17.5.2 27.1-7.2 16-46.6 36.7-52.9 10.6-2.5-10.3-2.4-21.1-5.5-32.5s-9.1-22.6-12.5-33.6c-1.6-5.2-9.4-38.1-9.2-41.6.5-10.7 8.3-32.1 10.6-44.4 3.9-20.3 4.1-43.4 10.6-62.4 4.9-14.4 12.6-28.6 17.8-43.2 10.4-29.3 17.8-61.4 18-92.5-8 4.3-14.5 9.4-19.8 16.7-10.3 14.2-20.9 47.3-33.9 56.2-7.3 4.9-16.8 6.9-23.9 13.1-9.1 8.1-11.1 20.7-17.5 30.5l-34.1 29.9c-8.2 3.8-13.9.8-19.3-5.5-18.5-21.5-24.8-33.4-17.1-61.9 8.4-31.1 27.6-71.7 45.7-98.3 5.1-7.6 14.6-17.2 18.4-24.6s6.4-20.2 10-29c4.4-10.9 12.6-22.7 16.3-32.7s5-38.2 7.5-51.5c5-25.7 9.9-39.3 23.3-61.7 18.5-30.8 40.7-59.4 58-91-9.8-14.4-26.2-21.9-20.9-41.8 1.9-7.1 6.6-16.3 10.1-22.9 1.5-2.8 7.6-10.6 8-12.1.8-2.6-2.6-12.5-2.9-16.7-.7-12.2 2.8-21 12-29-4.3-4.6-11.8-6.4-14.5-12.5-6-13.6 3.7-39.1 14.5-48.5 8-7 19.2-8.8 28.5-13.5 7.8-22.8.9-47.8 19.5-65.5 19.8-19 50.7-40.9 73.1-57.9 24-18.1 75.7-58.4 103.1-64.9 25.5-6 57-5.3 83.4-6.6 15.5-.8 28.3-.4 43.2-4.8 25.3-7.3 26.8-13.9 56.2-7.8 7.7 1.6 24.9 9.4 29.5 9.6 9.6.4 26.5-4.8 37.1-6 15.8-1.8 27.2-1.1 42.4 3.4 6.1 1.8 16.3 7.8 20.6 8.4 21.4 3.3 50-4.7 71.8-1.8 37.4 4.9 65.2 28.1 99.4 41.6 17.2 6.8 26.9 7.3 41.8 20.2 31.8 27.6 59.2 69.6 74.2 108.8 4.4 11.6 8.2 29.6 13.5 39.5s18.8 21.5 21.5 32.5c.4 1.7 0 5.6.3 6.2v.2Zm-424.4-233.6c-4.2-5-16.9-6.2-23.3-7.2-7.8-1.2-18.1-2.7-25.9-3.1-17.8-1-38.4 9.7-55.7 15.3-22.1 7.1-42 10.6-62.3 22.7-30.7 18.5-60.2 41.8-90.6 61.4-18.2 11.8-69.1 38.1-80.3 51.7-8.9 10.8-15.8 25.4-25.6 35.9 18.6 1.8 37.3 9.3 56 4.5 12.4-13.3 24.1-25.9 33.2-41.8s6.2-14.9 22.9-26.1c34-22.8 85.6-55.7 122.6-71.4 14.6-6.2 30.4-9.2 45.3-15.7 19.3-8.3 36.3-22.3 58.5-20.5 10.9.9 22.8 4.9 33.5 7-4-3-5.7-9.6-8.3-12.7m437.1 260.9c-18.9-9.8-40.5-15.7-59.4-25.1-14.3-7.1-24.8-27.1-35.3-39.7-9.1-10.9-16.7-18.7-27.9-27.1-6.1-4.5-18.5-31.4-22.2-39.8-1.6-3.6-1.8-8-3.8-11.2-2.9-4.5-34.4-31.9-39.5-34.5-5.7-2.9-11.9-3.1-17.5-5.5s-11.6-7.4-18-10c-14.1-5.7-28.6-8.3-43-15-22.7-10.6-40.7-28.7-62.3-40.7-7.3-4.1-30.4-15.5-37.7-17.3-5.6-1.5-23-.8-29.6-.5s-13.8 2.2-20.5 2l1 13c5.7-.4 10.2-1.6 16-.5 10.3 1.9 44.8 20.5 53.4 27.6 17.1 13.9 14.9 25.8 40.7 32.3 18.1 4.5 34.7-1.3 51.3.7 12.8 1.6 33.9 33.2 42.5 43.5 16.2 19.2 37.5 24.7 56 41s28.5 38.4 44 57c13.6 16.2 31.1 30.2 45 46 6.7 7.7 12.8 16.2 18 25 6.9 1.6 57.7 13.6 60 11.5zM859 848c-13 1.4-26 3.6-38.6 6.9-33.6 8.7-59.1 29.3-86.3 49.7-22.6 17-56.9 41.4-75.6 61.4-12.2 13-18.4 32.6-20.5 50 1 1.2 4.8-3.3 5.4-4.1 9.2-11.1 16.2-26.5 24.8-38.2 6.3-8.6 12.2-11.6 20.9-17.1 51.1-32.4 103.4-62.9 152.4-98.6zm289 1c10.9 9.7 24.5 16.5 36.3 25.1 1.7 1.3 2.4 3.5 4.2 4.8 17.3 13.5 44.9 18.9 66 21 13.9 1.4 23.8 14.8 34 23 8.2 6.6 29 20 33 28 9 18.2 15.6 44.8 28 61 5.8 7.6 32.5 34.4 40 40 6.3 4.7 17 7.8 24.5 10.5-4.2-10.9-13-19.2-18.8-29.2-8.8-15.2-10.6-32.2-17.7-48.3-10.4-23.2-48.6-78.4-71.5-88.5-20.9-9.2-36.1-10.1-57.5-23.5-25.4-15.9-27.6-20.7-60-23l-40.5-1Zm-138 11c-10-.5-19.3-2.3-29.4-.9-13.6 1.9-43.5 22.1-57.6 29.4-41.3 21.4-84.7 36.6-123.9 62.1-25.7 16.7-34.4 30.2-53.6 52.4-3.8 4.4-9.7 7.7-12.5 13.5 17.2-.8 29-12.9 43.3-19.7 10.4-4.9 22.3-7.3 33-12 15.7-6.7 33.5-17 48.3-25.7s34.5-24.8 48.7-31.3c5.1-2.3 11.5-3 16.9-5.1C955.9 910.3 989 888 1010 860m35.8 1.2c-1.9.2-19.2 6.9-21.1 8-3.6 2.2.9 5.2 3.4 7.2 16.4 13 43.5 21.4 61.2 33.8 10.3 7.2 37.9 61.5 41.2 74.8 1.7 7 1.5 14.1 2.8 21.2 5.3 29.4 23.4 62.9 40.9 87.1 8.2 11.4 22.3 23.3 28.6 34.4 4.3 7.4 6.2 17.1 10 25 8 16.7 27.6 27.7 41.7 39.3s28.7 23.4 42.5 35.5c13.9 12.1 25.6 27.6 42 36 9 4.6 10.7 5.5 21.1 3 1.9-.4 15.1-4.8 15.6-5.5 1.2-1.8-6.2-19.3-8-21.1-3-3-14.6-7.7-19.5-11.5-5.2-4.1-9.7-9.5-15.2-13.8-8.3-6.5-18.9-11.9-26.8-18.2s-16.8-33.6-22.6-44.4c-18.3-34.9-37.7-45.4-64.5-70.5-11.8-11-10.9-21.9-18.2-34.8-5-8.8-14.3-14.4-18-23-5.8-13.4-3.5-29.2-5.9-43.1-1.3-7.3-14.5-25.3-19.9-31.1-5.1-5.4-12.4-9.3-18-15-15.5-15.8-36.7-47-55-58-6-3.7-32.4-16-38.2-15.3Zm-36.1 19c-5.7.8-24.4 20.1-30.3 24.8-17.6 14.3-32.8 19.1-50.8 30.2-5.2 3.2-10.2 8.2-15.4 11.6-21.1 14.3-73.9 51.9-96.9 55.1-33.3 4.5-30.5 1.8-58.5 20.5-16 10.7-50.3 19.8-69.4 18.6-20.8-1.4-40.6-11.5-61.5-5.5-10.9 3.1-37.8 14.9-43.4 24.6-4 6.9 4.2 16.8 9.5 21.3 24.2 21 97.5 22.4 128.1 17.3 27.5-4.6 45.5-23.1 69.4-34.6 31.2-15 74.4-24 100.8-45.2 6.7-5.4 40.4-37.2 43-43 1.3-2.8.5-9.2 2-14 4.2-12.4 37.6-40.8 49-50 4.7-3.8 13.2-11.4 18.2-13.8 4.6-2.2 9.8-1 11.1-5.9s2.2-13.2-5-12.1h.1ZM1028 891c.2 2.1-.4 4.5 0 6.5.8 4.4 21.3 17.8 26 22 22.6 20.3 31.3 61.7 35 91 1.3 10.6.7 22.6 3.1 32.9 1.5 6.4 5.4 13.8 7.4 20.6 7.9 27.2 10.9 57.7 11.9 86.1 17.9 33.3 33.4 68 52 101 12.3 21.8 15.9 22.8 37.5 34.5 13.8 7.5 59.4 31.4 72.5 32.5 9 .8 19-.8 28 0 20.1 1.7 40.3 9.1 61 9.1s53.7-7.5 61.4-10.7c4.7-1.9 31.7-21.7 37-26 6.4-5.3 23.5-28.9 23.8-36.7.3-10.7-11.4-27.7-18.2-35.7-9.6-11.3-11.9-13.8-15.8 3.2-2.2 9.3-1.8 14.4-1.8 23.4s-5.4 13.1-9.6 16.2c-6.3 4.7-33 11.9-40.9 11.3-2.5-.2-5.1-2-5.8-1.9-.9 0-12.1 6.2-15.7 7.3-33.3 10.6-34.2 3.1-61-11-5.3-2.8-22.4-11.8-27-13-10.6-2.7-23.3 1.3-35.7-3.3-5.8-2.2-10.6-7.8-16.3-10.7-12-6.2-22.7-7.7-34.1-16.9-19.3-15.9-44.6-57.1-52-81-2.5-7.9-2.5-16-4.7-23.3s-7.4-13.2-9.1-20.9c-2.2-9.8-2.4-20.9-4.6-31.4-4.1-19.7-14.3-42.2-17.2-60.8-1.4-8.8.6-16.8-2.2-25.8-2.8-9.4-10.8-15.2-15.7-23.3-13.2-21.4-10.2-33.5-34.3-48.7-4.1-2.6-32.8-18.6-35.3-16.2zm-18.3 18.2c-10.1 2.1-47.4 38.3-52.9 48.1-8.2 14.7-3.8 24.3-6.1 38.9-1.6 10.4-9.4 23.8-10.7 34.3-3.4 26.8 5.4 36.4 10.6 59.2 4.4 19.3-7.6 46.2-10.4 66-3.2 22.2 3.5 26.1 9 45.5 2.9 10.2 5.3 22.7 5.6 33.4.2 5.7-2.1 11.9-.4 18.4 1.8 6.9 23.4 27.9 24.6 15.4.3-3.4-6.5-15.7-7.1-21.9-1.3-14.4 4.8-31.7 6-46.1s-2-34-1-50c1.6-23.5 15.6-41.4 16-62 .3-12-5.3-44.5-8.3-56.8-3.5-13.9-9.8-14.8-3.6-31.1 10.1-26.3 36-51.8 38.7-82.3.7-8.2-1.3-11-10.2-9.2zM1034 1181c1.4 0 3 .3 4.3-.2 2.7-.9 7.4-21.3 9.2-25.8 4.5-11.7 14.3-24.3 17.6-35.4 2.3-7.5 6.7-30.9 6.7-38.2s-4.9-14.3-4.9-20.9 5-20.2 5.9-29.1c3.2-33.5-6.7-91.9-38-110.8-2.6-1.5-3.9-2.9-4.9 1-2.9 12.2-6 28.1-2.3 40.2 4.5 14.9 8.9 16.2 8.3 34.7-.8 25.1-5.2 47.1-.7 72.7 1.5 8.7 6 17.1 6.7 25.3s.9 25.8 0 34c-.5 4.7-3.1 10.1-3.9 15.1-1.9 12.4-2.8 24.9-4.1 37.4zm343-74c.4-1.9-1-2.4-2.1-3.4-15.9-14.4-35-32.1-47.7-49.3-12.6-16.9-21.9-35.4-38.2-49.8-11.3-10-24.6-15.1-35.5-23.5-4.9-3.8-8.2-10.1-12.5-14.5-15.4-16.1-33.8-38.9-58-37.5 8.4 7.3 19.6 12.1 27.4 20.1 13.5 13.8 23.4 37.9 33.8 54.2 9.6 15 16.2 11.6 30.2 18.8 13 6.7 17.9 21.5 28.1 29.9 5.2 4.3 13.3 7.4 19 12 11.8 9.6 20.1 19.8 33.6 29.4 2.3 1.6 20.9 14.5 21.9 13.6m-204.3-159.7c4 3.4 15.5 18.1 17.5 23 5.4 13.2 2.1 30.6 6.3 42.7.5 1.5 7.9 9.1 10 12 5.1 7.4 9.8 16.9 14.1 24.9 4.7 8.7 2.2 8.4 11.8 14.2 16.5 9.9 35.3 12.9 50.1 25.9 5.4 4.7 8.4 10.6 13 15s12.5 7.1 16.5 12.5c5.3 7.1 8 23.5 15.5 28.5 3.8 2.5 16.5 5 22 7 6.9 2.5 15 5.5 21.7 8.3 10.7 4.5 29.5 16.4 39.4 17.6 18.9 2.3 37.9 0 56.9 0 6.8-2.4 19.8-22.9 12.9-27.9-4.9-3.7-33.4-5.9-41.6-7.4-29.7-5.3-40.9-7.4-66.7-23.3-21.8-13.4-35.3-25.7-54.2-41.8-4.6-3.9-11.8-7.5-16.9-12.1-10.2-8.8-24-27.4-34-34-5-3.3-13-5.6-18.7-9.3-10.3-6.9-15-16.2-21.7-26.3-11.7-17.6-26.8-42-45.6-52.4-8.1-4.5-17-7.8-25.5-11.5 2.3 8.3 11.7 9.7 17.2 14.3ZM1021 1069c-.8-9.5-.7-19-1-28.5 0-1.9-1-3.8-1-6-.3-11.6 3.2-49.9-.8-57.2-.4-.7-1.5-2.8-2.2-2.3-2.3 6.7-5.7 12.9-8 19.5-1.2 3.3-5 13.3-4.9 15.9.4 8.8 10.9 26 12.2 35.8zm-426 43c-.5 5.3 1 11.5 3.3 16.2 4.5 9.2 10.3 6.7 18.4 9.6 17.2 6 54.8 27.2 69.6 38.4 9.6 7.2 15.3 15.8 27.5 19.5 4.9 1.5 36.5 6.6 40.2 5.8 9.4-1.8 30-12.4 40.8-16.3 20.8-7.4 43.1-12.4 62.2-23.8 19.5-11.7 27.1-32.1 39.9-50.1 9.5-13.4 19.8-26.1 31.8-37.3-.6-15.1-.6-30.3-.5-45.5 0-5.8-1.4-8.6.6-15.3 2.1-7 8.9-12.5 8.3-20.2l-32 32.5c-15.9 28.8-31 55.8-56.5 77.5-14 11.9-29.9 14.7-46.4 21.6-35.1 14.6-52.5 27.9-93.3 21.2-20.1-3.3-45.1-14.1-56.4-31.6-5.9.6-12.2-1.1-17.8-1.2-13.4-.2-26.1 2.8-39.5-.9h-.2Zm279-65-72.7 28.8c-21.5 9.4-39.2 25.8-61.8 33.2-22.9 7.5-46.8 5.5-70.5 6.5 11.5 9.2 27.2 14.9 41.8 17.2 38 5.9 43.5-9.1 73.8-23.6 12.8-6.1 27.6-10 39.9-16.1 11.3-5.6 39-32.2 47.5-42.5.9-1.1 2.4-1.6 2-3.5m208 45c-1.4 12.3-2.5 26.8-7.2 38.3-4 9.9-12.3 20-17.4 29.6-3.5 6.7-6.7 17.8-10 23-2.6 4.1-9.7 11-14.7 9.8-11.2-2.6-9-19.4-8.7-28.3.9-24.2 7.8-49.2 3.3-73.3l-5.3-14.2c.5 20.8-9.4 39.8-15.3 59.2-6.2 20.6-3.3 27.2-3.7 47.3-.2 12.2-2 26.5-4.5 38.5-1.1 5.3-5.2 15.2-5.4 19.6-.8 15.6 19.8 37.8-4.5 45.5-14.2 4.5-25.4-2-35.1-12.1-19.7-20.6-12.2-34.6-18.8-59.2-3.6-13.5-10.6-24.4-15.2-36.8-5.3-14.3 2.3-38.8 4.3-54.6.9-7.4 1.7-14.9 2.1-22.4-17.8 19.1-27.1 52.4-46.5 69-30.3 25.8-84.5 31.7-120.4 48.6-7.4 0-13.1 1.3-20 3.5 4.6 17.6 17.7 44.6 16 62.5-1.7 18.1-20.9 42.4-24.7 65.3-2.8 17.2 2.2 25.4 1.7 39.7-.6 17.4-6.7 29.2-5 50 1.9 25 13.5 40.3 18.5 62.5 1.4 6.4.8 14.8 3 20 4.7 11.3 15 18.8 18.8 34.2 7.3 29.6 5.1 52.5 27.2 77.8 2.6 2.9 6.9 5.6 10.5 7 1.2-5.8-.4-11.2 0-17.4.5-5.7 5.9-26.7 9.9-30.1 4.5-3.8 13 .8 16.5 4.4 3.2 3.4 4.4 9.9 7.4 13.6 11.2 13.5 22.9 14.5 35.4 22.6 11.7 7.6 10.5 13.5 15.9 24.1 9.5 18.4 68 51.7 88.2 58.8 14.3 5 29.8 6 44.1 11 40.1-6.5 86.1-23.9 116.5-51.5 15.6-14.2 19.8-35.7 39.8-45.2 6.4-3.1 20.5-5.3 24.7-9.3 4.6-4.3 7-16.9 12.1-22.9 3.7-4.4 11.2-9.6 16.8-6 4.4 2.8 10 25.9 10.5 31.5s-1.1 10.9 0 16.4c14.4-4.7 20.7-18.6 25.7-31.8 7-18.5 12.9-66.6 27.3-77.7 3-2.3 19.7-8.1 20-9.2l-2.1-56.9c7.6-40.5 14.3-81.3 16-122.5l-63-4.5c-11.1-5.9-21.8-12.6-33.3-17.7-26.4-11.6-67.5-20.3-82.2-46.8-16.9-30.5-26.7-62.1-47.3-91.7-7.3-10.4-16-16.2-17.2-29.8-1.6-17 .5-35.6-3.2-52.8l-1.8-8.6Zm318 162c1.1 1.1 21-1.6 23.8-2.6 1.3-.5 12.2-6.8 12.6-7.4 1.2-1.8 2.7-10.9 3.2-13.8 1.4-7 5.8-32.4 1.8-37.2-3.2-3.7-24-1.7-30-2-22.5-1.2-34.8-13.9-54.8-22.2-10.6-4.4-33.5-8.3-39.5-16.5-14.9-20.3-17.6-38.7-39.8-55.2-7.7-5.7-17.4-13.5-27.3-12.2 17.3 15.7 33.1 33.1 45.8 52.7 18.7 29 25.3 51.3 54.3 73.7 13.2 10.2 41.7 20 48.1 34.9 1.1 2.5 1.9 4.9 1.9 7.6v.2Zm-114-12c-7.9-9.5-16.8-18.5-27.1-25.4-15.6-10.5-35-18.1-49.4-30.6-15.6-13.5-19.3-35.9-28.4-53.6l-29.2-42.3c0 2.6.9 5.3 1.7 7.8 10.5 33.9 23.8 76 47.8 103.2 17.3 19.7 23.4 14 43.5 23.5 7.5 3.6 13.1 11.2 18.3 13.7 6 2.9 16.1 1.6 22.7 3.8Zm-617-41c-21.4-23.2-50.2-37.7-78.5-51-1.7 0-15.1 28.8-15.4 30.8-.5 3.3 11.3 18.2 14.5 20.1 5.7 3.3 22 3.5 28.9 3.2 4.7-.2 10.4-1.8 15-2 11.8-.5 23.8 1.1 35.5-1Zm814 86c.7.7 16.5-2.8 18.8-3.7 4.2-1.6 4.4-4.8 5.1-8.9 2.5-15.8 4.5-39.8 5.1-55.9 0-3.2.4-7.9 0-10.9-1.2-8.1-16.7-16.6-21.4-23.6-5.9 7.1-13.4 11.4-21.5 15.5 5.4 6.3 13.6 12 17.8 19.2 2.8 4.8 3.3 10.1 5.4 14.6 1.6 3.5 7.1 9.1 7.5 12.5 1.4 10.6-13.2 31.1-16.8 41.3Zm-759 594c5.7-13.8 2.9-29.9 6.7-43.8 5.8-21.3 23.8-39.9 28.8-64.2 3-14.5 2.4-61.5-3.3-74.7-2.7-6.1-8-11.5-10.9-17.1-7.4-14.3-24.4-66.5-25.3-81.7-1-16.9 6.7-32.5 8-49 2.4-30.6-4.3-43.2-11.5-70.5-7-26.8-1.2-57.5-3.5-85.5-.5-5.9-2.8-11.4-3.7-17.3-6-36.5 17.3-62.4 25.6-95.6l-14.4-58.7-29.9-7.7c-3.3 2.5-22.8 7.1-23.5 9.4-.8 9.4.6 19.5-.2 28.8-.4 4.5-2.5 9.2-2.9 13.1-.5 4.8.4 9.8-.3 14.7-1.4 9.5-10.4 25-14 35-6.8 19.1-7.6 21.7-.2 40.7 11.4 29.4 27.4 57.8 35 89-2 24.9-12.7 52.7-10.5 77.5.6 6.8 3.5 14.2 3.8 21.1 1.2 21.4-12 46-10.8 68.9.8 16.5 18.1 83.1 26.5 96.4 7.1 11.2 18.5 19.1 22.1 32.9 3.4 12.8 3.1 35.2 2.3 48.7-.9 15.8-8.4 40.3-7.9 53.9.2 4.7 7.8 28.7 10.5 32.5.5.7 2.9 3.4 3.4 3.1h.1Zm-91-661c-11.1 1.8-22.8 1.6-33.5 4-6 11.5-12.4 22.8-19.1 33.9-17.3 28.5-38.5 56.7-54.8 85.2-13.5 23.4-9.9 47.6-13.7 73.3-2.5 16.8-12.6 30.7-19 45.9-3.4 8-4.9 16.2-8.1 23.9-5.9 14.6-19.7 27.3-28.6 40.4-13.2 19.5-32.4 66.5-38.5 89.5-3.8 14.3.2 19.5 9.9 29.7.8 0 10.9-9 12.4-10.4 11.2-10.7 9-11.2 14.8-24.2 8.2-18.5 35.7-32.8 49.1-48.8 8.9-10.7 13.4-23.7 21.2-34.8 9.6-13.6 33.5-29.1 32.8-47.2-.9-25-15.9-54.4-8.5-79.5 4.6-15.6 20.5-30.2 29.3-43.7 6.2-9.6 6.6-14.3 7.2-25.8.9-17.5-4-38.3 3.1-53.9 9.4-20.9 29.1-40.4 43.9-57.6h.1Zm-79 645c12.2-.8 12.5-15.8 12.8-25.5.5-19.3-1.7-33.6 2.5-53.7 6-29.1 26.4-44.9 36.5-71.6 6.4-16.9 5.7-22.8 3-40.5-1.7-10.7-8.4-29.3-8.5-38.3-.2-10.9 5.2-28.4 6.7-40.1 1.8-14.6 3.1-33.2 2.1-47.9-1.3-19-11.3-47.9-6.7-65.7 9.4-36.6 30.5-72.8 27.8-112.3-.5-6.5-5.8-14.6-6.8-21.3-4.5-31.3 22.6-60 21.8-89.8-.2-6.8-2.1-20.5-3.9-27.1-.4-1.3 0-2.5-1.6-3.4-5.3 9.4-13.8 19-18.4 28.6-3.5 7.4-10.6 28.5-11.7 36.3-2.9 20.4 3.7 48.5-3.7 67.3-8.5 21.6-34.8 34.4-32.6 61.1 2.8 34.9 13.9 69.2 14.9 106.1 1.3 48.5-14.2 75.1-29.1 118-4.1 11.9-13.8 38.4-15.5 49.5-.9 5.6 0 11-.6 16.4-2 18.5-8.7 37.2-9.9 56.1-1.7 26.6 8.7 49.2 15.8 74.3 2.1 7.6 4.2 15.4 5.3 23.2zm925.8-564.8c-3.5-.4-7-.6-10.2 1s-28.1 23.4-28.5 25.5c3.9 8.1 5.7 17.1 6.7 26 1.4 11.7 0 30.2 2.6 40.4 1.8 6.9 13.7 25 18.1 31.9 16.1 25.3 30.2 37.6 39.1 67.9 4.9 16.6 2.5 22 14.8 36.2 24.2 28.1 50.2 53.3 71.9 84.1 6.2 8.7 10.9 19.1 15.1 28.9 5.3 3.6 10.8.3 16.4 0 4.6-28.2 2.7-59.3-14.1-83.2-25.1-35.8-53.7-56-68.8-99.2-6.2-17.6-8-38.8-17.2-54.8-5.8-10.3-17.9-22.4-22.3-32.7-7-16-7.1-37.9-14-55-2.6-6.3-6.7-10.9-9.6-16.9Zm-57.9 32.9c-.5-.3-9.9 3.1-11.9 2.9.8 10.2 9.8 17.2 11.6 26.9 2.8 15.4-4.3 34.6-7.3 49.8-4.2 21.7-9.3 43.9-12.1 65.9-.9 7.1-3.6 23.5-3 29.6.8 7.3 8 22.4 10.3 30.8 4.6 16.2 7.9 33.7 9.5 50.5 1.3 14.7-.5 37.1 2.7 50.3s24.1 39.8 31.7 52.3c21.6 35 38.2 67 39.6 109.4.4 12-3.5 30.6-1.9 40.9.5 3.3 4.9 12.2 6.7 15.3.3.6 0 2 1.7 1.3 2.3-1 12.7-13.8 14.3-16.7 2.2-3.8 3.8-7.9 4.7-12.3 6.1-29.2 4.4-63.7 9.4-93.4-17.8-37.7-43.9-75.6-54.7-116.4-5.5-20.9 1.5-35.3-3-53-.6-2.4-2.2-4.6-2.8-7.2-3.7-14.9 1.7-34.2 2.5-49.5 1.4-25.4-16.3-80.3-28.8-103.2-1.5-2.8-5.7-6.2-6-7-2.6-6.8-1.8-28-3.5-37.5-.9-5.2-6.2-27.2-9.8-29.7zm-26.1 6.1c-1.7-.5-3.5-.2-5.2 0-7.8.7-17.1 3.9-25.1 3.9s-18.4-3-19.5-2c6.4 29.3 1.8 60.1-4.5 89-3.3 15.2-11.7 35.6-13.4 49.6-1.8 13.9 2 33.5.9 48.9-.7 10.3-4.5 20.3-5.9 30.1-1.2 8.2-1.1 17.2-2.4 25.6-2.3 15-7.8 30.1-8.8 45.2-1.1 18 0 29.4-4.2 47.8-8.8 37.4-25.9 71.8-39.7 107.4l7.9 63.7c3.3 2.9 22.2 7 24.1 4.1 1.1-1.6 3.1-11.2 4.4-14.4 17-41.4 37.4-82 51.2-124.8 7.4-23 2.2-33.1 4.4-54.6 1.8-17.4 14.3-35.9 15.9-53.1 3.5-38.5-1.2-77.9 4.2-117.8 4.7-35.4 21.6-66.2 23.8-102.2 1-16.3-.7-31.6-8.2-46.3Zm-687.5 551.5c-10.3-11.6-13.9-60.2-13.3-76.2.5-13.7 4-27.2 3-41-.5-7.3-4.8-29.9-7.8-36.2-2.8-6-11.8-13.8-15.8-20.2-9.5-15.1-24.9-83.7-26.2-102.8-1.6-23.4 11-42.5 12.9-63.9 1.5-17.2-2.1-31.6-3-47.9-.7-12.3 2.1-25.2 1.1-37.1-.7-8.2-6-24-8.8-32.2s-6.5-17.2-10.8-25.2c-1.9.9-8.2 32.2-9.2 36.8-5.2 25.4-9.8 49.5-7.3 75.7 1 11.1 4.5 23.1 5 34 .9 21.9-10.8 49.3-7.8 71.8 5.4 40.6 23.2 81.2 21.8 124.2-.4 12.6-5.9 26.1-6.9 38.1-.6 7.5 1.3 10.1 4.4 16.4 11.3 23.4 30.8 41.3 40.3 65.7 5.8 15.1 7.2 29.3 16.8 43.2 2.6 3.7 19.1 24 23.4 21.1.8-3.9 4.3-6.7 4.8-10.7.8-5.8-3.6-10.8-5.6-16-1.4-3.8-2.1-9.7-3.5-12.6-1.2-2.5-5.8-3.1-7.5-5M1314 1540c-22.2 10.3-21.1 38.6-26.5 59-4.9 18.6-24.7 37.5-37.3 51.7-8.5 58.2-13.2 117.3-28.9 174.1 6.5 29.3 17.9 57.6 20.8 87.7.6 6-.7 10.7 1 17 .9 3.3 10 19.8 12.6 20.4 2.4.6 14.4-5.1 15.1-7.6 1.1-3.7.5-25.6.2-30.8-1-17-3.6-43.3-7.5-59.5-5.6-22.9-10.4-41.2-11.5-65.5-1-21.6 5.2-26.9 13.2-44.8 11.5-26 27.9-60.8 29.8-89.2.8-11.8-1.2-25.3 0-36.9.8-6.6 4.6-13.2 6.4-19.6 5-18.4 9.3-37.2 12.5-56Zm-567 10c1.2 13.7-6.7 27.5-7.9 40.6-1.6 17.3 9.5 57.3 17 73.7 8.7 18.9 15.3 19.5 16.8 43.2 1.8 27.6 2.8 83.4-9.5 107.5-1.9 3.7-8.7 13-8.5 16.4.2 2.2 5.5 11.8 6.7 15.3 7.4 20.4 4.7 30.5 6.3 50.7 1.3 16.8 10.4 29.5 21 42 4.2 5 13.3 16 15 3.1 1.7-12.4.2-28.3 1-41 1-18.3 8.5-66 4.5-80.6-1.1-4-7-11.9-9-17-8.5-21.4-1.8-42.2-.5-64.4 1.2-19.3 3.5-50.5 1.8-68.9-.3-3.3-2.9-18.8-4-21-2.3-4.5-18.3-19-23.3-25.7-16.8-22.6-15.1-40-23.1-65.9l-4.5-8zm634 368c3.5-14.1 9.6-28.7 17.6-40.9 4.8-7.3 11.4-13.4 16.2-20.8 1.7-24.2 1.2-48.6 3.2-72.8 1-12.5 4.4-25.7 5-38 1-19.5-5.9-38.7-7-58.1-.5-8 1.3-19.8 0-26.9-.6-3.1-7.7-12.8-9.4-17.6-5.2-14.5-3.4-36.7-4.5-52.5-1-13.5-3.1-27-4-40.5l-2 11.4c-1.3 16.1 1 36.4-1 52-1.4 11-11 26.5-13.4 39.6-2.7 14.4-1.9 29.7-4.8 44.2-1.6 8.3-6.7 18.1-7.6 25.4-3 22.7 1.7 52 2.9 74.9 1.4 28.2-12.5 51.2-13 77-.3 12 5.8 27 6.8 39.3 1.7 3.6 11.5 3.5 15.2 4.2h-.2Zm-554-303c-1.4-1.4-1.7.4-2.2 1.3-7.5 13.6-5.6 34.8-4.8 49.7l-8-4 8 55.5c0 17.2-2 29.8 5.2 45.8 11.2 25 28.9 40.2 30.8 70.2.7 10.2-1.6 20.3-1 30 1.3 22.7 26.3 36.6 32.3 57.7 5.3 18.7-1.3 38.8-2.3 57.3-.4 7.1-.2 12.3 5.9 17.1 3.3 2.6 5.7.8 8.1-2.1 7-8.2 8.8-34 11.5-45.5 2.2-9.5 6-18.6 7.8-28.2 3.5-17.8-5-29.5-9-46.6-4.4-18.7-5.5-39.1-11.6-57.4-2.7-8-8.5-15.3-12.2-22.8-7.3-14.5-16.1-35.3-16.4-51.7 0-4.6 6.6-19.4 8.4-25.3 3.1-10.3 6.1-20.8 8.3-31.3-6.5-10.1-9.5-33.1-21.1-37.9-12.8-5.3-27.2-3.3-33.9-18.1-1.3-2.8-3.3-13.2-3.8-13.7m397 2c-1.7-1.6-1.7.5-2.1 1.4-3.3 7.3-3.4 14.8-11.2 19.8-2.4 1.5-11.2 4-11.6 5.4 1.9 20.1.6 40.6.9 60.9 0 9.2 2 19.3 1 28.9-.8 8.1-10.1 24-14.6 31.4-4.8 7.9-30.3 39.8-31.2 43.8-1.7 7.5-.4 20.6-1.2 28.8-.8 7.2-4.1 14-4.9 20.1-.6 4.5.4 9.4 0 13.9-1.6 14.8-8.9 46.9-6.5 59.6.8 4.3 3.8 12.2 5.3 16.7 1 2.9 8.3 22.5 9.3 23.2.5.4 8.5-2.1 8-4.5.8-14.6-2.3-29.4-1-44 1.5-17.2 13-20.5 22.6-31.4 21.3-24.3 11.6-45.1 20-72 4.2-13.3 15-28.5 18.2-42.8 5.2-23.1 4.7-51.8 6.3-75.7.3-4.8 4.3-35 3-36.5l-5 2c.3-10.1 1.3-19.4 0-29.5-.4-2.9-3.7-18.3-5-19.5zm-127 377c3.8-.2 6.2-2.3 8.4-5.1 14.2-17.5 10.7-32.1 12.6-52.4 1.7-17.8 6-45.5 10.3-62.7 3.2-12.7 11.3-20 12.6-34.4 1.9-20.8-6.9-28.2 5.9-48.1 10.1-15.7 22.1-26.1 29.4-44.6 4.7-11.9 3.5-45 2.9-59.2-.5-10.1-2.3-20.4-3.1-30.5-5.7 6.8-7.1 17.9-12.2 25.3-5.6 8.3-17.2 14.4-25.8 19.2-25.2 13.9-52.2 24.3-80.4 30.6q-1.2.3-1.5 1.5c-1.4 4.1.2 25.2.9 30.9 1.5 13.2 8.6 31.7 8.9 43.1.2 7-2.1 15.6-1.9 22.9.5 14.4 6.3 30.4 8 45.1.2 2.2-.9 4.1-.8 5.8.4 4.8 20.1 34.4 23.6 42.3 9.2 20.7 2.9 35.6 2.1 56.8-.2 4.5.2 9.1 0 13.5Zm-142.1-272.9c-20.7-5.7-38.7-17.9-57.9-27.1-3.7 17.6-14.4 33.1-13 51.5 2.1 27.2 14.9 36.5 29 56 6.2 8.6 3.8 17.2 5 27 .8 6.6 2.3 24.7 4.2 29.8.4 1 10.9 11 12.8 13.2 10.4 12.6 9.8 16.9 11 33 1.3 17.4-.9 36.9 8.6 52.4L986 2003c10.2-16.9 15-33.7 13-53.5-1.5-15.6-9.2-56.6-14.2-70.8-3.2-9.1-12-18.5-15.9-28.1-9.9-24.4-8.8-50.6-10.8-76.2-.8-10.4-3.6-21.8-4-32-.3-7.4 1.5-14.1.9-21.4Zm88.1 14.9c-22.8 8.4-43.7-3.7-66-7 .8 5.3-.8 10.5-1 15.5-1.4 29.5-2.8 71.8 11.9 98.2 3.2 5.8 10.9 14 11.9 20.1 1 5.6-.2 12 .2 17.8 1.6 18.6 8.6 36.4 12.5 54.5 3.4 15.8 4.6 30.2 2.7 46.3 8.8 7.5 14.3 18.2 23.3 25.7l9.3-38.5c0-7-9.1-19.5-9.6-25.2 0-1.6 3.8-8.1 4.5-11.1 5.3-21 7.1-47.2 5.2-68.7-1.6-19-8.5-34.6-3.7-53.7 2.5-10 5.4-12.6 4.7-24.3-1-16-6.3-33.1-6-49.5Z" class="outline" data-original-prefix="outline"/></g></svg>