<?xml version="1.0" encoding="UTF-8"?>
<svg xmlns="http://www.w3.org/2000/svg" viewBox="0 0 2048 2048">
  <style>
      .outline { fill: #000000; }
      .fill { fill: #FFFFFF; }
      .shading { fill: #aaaaaa; opacity: 0.5; }
    </style>
  <g class="trait-group" data-category="background" id="background-red">
      <path id="color-red" class="color" d="M2048,4.5c-.1,679.6-.1,1359.2,0,2038.8,0,3.8-.8,4.6-4.6,4.6-679.6-.1-1359.2-.1-2038.8,0-3.8,0-4.6-.8-4.6-4.6C.2,1362.3.1,681.2.1,0h2043.3c3.8,0,4.6.8,4.6,4.6h0v-.1Z" style="fill: #af6e6e" fill="#af6e6e"/>
    </g><g class="trait-group" data-category="jaw" id="jaw-OG-cracked">
      <!-- Generator: Adobe Illustrator 29.1.0, SVG Export Plug-In . SVG Version: 2.1.0 Build 142)  -->
  <defs>
    
  </defs>
  <path id="fill-jaw" class="fill" d="M1396.7,1438.7c-6.7,4.3-46.8-1.7-48.7.3l-12.2,69.8-57.2,29.3-1.4,1.6c-1.5,11.9,1.5,24.2.9,35.9-.3,4.9-1.3,15-2.3,19.7-.6,2.8-13.7,32.2-15,33.5s-16.1,8.9-16.7,8.3l-9.5-50-51,52c-7.7,5.7-20.7,9.3-27.5,15.5-14,12.7-25.2,37.4-42.1,47.9-5.4,3.3-61.3,25.7-66.7,26.3-13.8,1.7-33-3.3-47.7.2-17.7-10.3-50.1-16.2-66.1-26.9-14.3-9.6-28.3-35.6-41.4-47.6-6.7-6.1-19.9-9.6-27.5-15.4l-51-52-9.6,48.4c-.6.9-.9,1.7-2.2,1.5-.8,0-13.8-7.6-14.4-8.2-1.4-1.4-15.9-33.3-16.2-35.3l-.5-54.4-58.2-30.3-12.3-69.7c-8.1-1.2-45.1,3.9-49.5-1l-37.1-85-.5-3.4,31.5-70.6c5.3-1.6,29.1,0,31.3-6.7.8-2.3-.6-19.5-1.3-22.4-2.2-8.4-16.2-24-19.8-33.2-.7-1.7-1.2-3.1-.6-5,4.7-11.3,10.3-22.3,14.1-34,7.3-22.4,7.2-42.6,16.9-65.1,47.5-110.2,188.9-176,299.9-200.1,44.7-9.7,79.8-1.5,122.7,11.2,98,28.9,222.6,97.5,259,199,6.8,19,7,38.1,13.5,57.5,3.8,11.2,10.1,22.1,13.7,33.4,0,1.4-8.3,16.4-9.8,19.1-2.4,4.3-9.7,13.4-10.7,17.3-1.8,6.8-.6,15.6-2.3,22.5,9.9,7.9,21.3,4.2,32.4,6.5,9.6,23.9,23.5,46,31.4,70.6-9.8,26.3-22.2,51.8-33.2,77.7-1.3,3-1.7,9.3-5.1,11.4h0Z" fill="#ffffff"/>
  <path id="shading-jaw" class="shading" d="M1380.8,1185.8c-.2.4-2.1.7-2.8,1.7-8.6,10.8-16.2,26-21,39-4.2,11.4-5.1,22.7-13,32-18.8,22.4-51.8,45.5-78.3,57.7-5.4,2.5-12.5,3.7-16.7,7.8h20.5c2.7,0,5.1,1.2,7.9,1.1,18.1-.2,64.4-19.8,77.5-32.6,5.7-5.5,14.1-15.7,15-23.5,1.8,0,.7,2.4,1.5,4,3.1,5.9,15.5,5.2,21.5,6,.2,1.6-1.5.7-2.3,2.2-4.6,8.3-4.4,21.6-10.6,28.3-7.5,8.1-37.1,13.5-48.8,17.2-14.5,4.6-29.8,8.8-42,18.1l-52.8-14.8c-19.3-2.3-9.9,15.4-5.3,25.3,5.2,11.3,20.7,40,30.4,46.6,11.9,8.2,22.7-10.2,30-17,6.3-6,16.2-11.8,24.6-14.4,17.7-5.6,32.3,4.7,50.5,5.4,17.4.8,34.6-7.7,48.8-17.2,3.6-2.4,14.6-13.9,17.2-13.8,1.7,0,3.3,6.1,1.8,7.8-10.1,24.3-21.6,48-31.8,72.2-3.7,8.8-.8,14-13,15-9.3.7-15.8-1-24.2-1.8-4.8-.4-11.8,2.5-17.3-.2l-12.9,70.6-59,30.5c.4,11,2.6,23.6,2,34.5-.3,5.7-1.3,15.4-2.1,20.9-.5,3.1-13.4,31.4-15.4,33.6-3,3.2-11.6,6.2-15.5,9-.8-4.9-2.7-10.6-3-15.5-.6-11.2,2-11.3-2.7-23.2-.4-1.1-1.9-1-2.2-2-.8-2.2-.8-6.7-1.1-9.2l-2.3.2-50.2,51.8c-7.7,5.2-19.5,8.7-26.5,14.5-14.2,11.7-24.4,36.1-41.5,47.5-6.7,4.5-54.2,25.7-61.2,26.8-9.9,1.5-51.8,1.6-61.5,0-6.9-1.2-49.7-20.5-57.3-24.7-15.8-8.9-30.2-37.8-44.4-49.6-6.9-5.7-19-9.3-26.5-14.5l-51-52c-1,8.1-7.3,16-8.1,24-.6,6.2.6,14.6-.3,21.6-.2,1.7-3,1.8-2.1,4.4-.6.7-14.6-8.1-15.5-9-1.7-1.8-15-30.8-15.4-33.6-.7-4.4-.9-13-1.1-17.9-.5-12.2.6-24.4.5-36.6l-58.5-31.4-13-69.5-48.8-.2-38-86.6.9-6.2c8.2.4,11.8,8.2,18.6,12.7,25.3,16.9,38.4,19.8,68.5,13.9,17.1-3.4,19.1-7.5,37.2.4,15.9,7,19,16.2,30.6,25.4,9.6,7.6,13.6,7.9,22-1s31.8-49.1,32.1-60c.2-8.7-6.4-8.1-13.3-7.2-8.6,1.1-48.4,15.1-51,14.6-1.7-.4-12.3-7.9-16.5-9.6-20.3-8.4-48.8-11.8-67.2-20.8-14.9-7.3-11.3-20.9-17.7-33.2-.9-1.6-2.5-.6-2.3-2.2,6.3-.9,17,0,21-5.5,1-1.4.3-3.7,2-3.5,3,11.7,15.2,23.9,25.1,30.4,21.2,13.8,50.4,23.7,75.4,23.5h20.5l-34.7-16.8c-19.1-10.8-48.2-33.1-61.8-50.2-6.2-7.8-7.1-18.3-10.5-27.5-6-16.6-14.4-32-25-46,1.3-9,6.5-19.6,7.8-28.2,1.9-12.9,1.8-19.5,6.5-32.5,36.4-101.1,159.2-169,256.8-198.2,49.9-15,102.4-18.2,153.2-5.2,103.5,26.4,242.6,100.3,277.2,208.8,3.4,10.5,3,17.3,4.8,27.2.8,4.7,8.9,28.4,7.6,30.6l-.5-.2ZM1195.9,1382.1c-32.3-16.1-63.1-35.3-95.9-50.7-17.5-18.7-37.4-36.6-54.6-55.4-4.8-5.3-11.2-16-16-20-3-2.6-7.4-3-10.6-.6-4.5,3.4-12.7,16.4-17.4,21.6-16.7,18.6-36.8,35.6-53.6,54.4-32.9,15.3-64,34.2-96,51.2-.6,2.8,12.4,35,14.6,40.3,2.9,7.1,12.1,31.7,16,36.1,7.1,8,36.5,26.3,47,33,19.8,12.7,36.1,22.9,59.3,28.7,27.3,6.8,39.7,7.1,67,.6s43-16.6,65.7-31.3c10.4-6.8,35.9-22.5,43.4-30.6,4-4.4,12.7-27.4,15.6-34.4,2.1-5.1,16.8-41,15.5-42.9M728.3,1496.7c1.6,2,8.2,6.3,10.7,7.8,14.7,8.8,31.8,13.8,46.9,23.1,16.8,10.2,40.2,33.1,59.6,33.5,2.3,0,8.7-1.2,9.4-3.7s-13.6-27.6-16.4-30.3c-7.3-7.1-27.5-17.2-37.2-23.8-15.2-10.3-50.3-39.1-67.9-39.2-10.5,0-8.7,28.1-5.1,32.7h0ZM1319.7,1466.3c-5.9-5.9-24.1,4.1-30.4,7.6-16.2,8.9-31,21.4-46.2,31.8-12.7,8.7-30.1,15.7-38.6,28.4-2.2,3.4-10.8,17.7-11.4,20.7-1.1,5.3,6.2,6.5,10.3,6.3,16-.9,23.4-9.7,35.2-17.8,9.2-6.3,19.3-13.6,29-19,11.7-6.6,47.1-19.2,52.7-29.3,2.4-4.3,2.8-25.2-.7-28.6h0ZM1126,1664c-12-2.7-20.7,6.6-31.6,7.9-5.7.7-12.2-1.2-16.6-.7-7.1.8-22.9,12.1-31.2,14.9-14.8,4.9-30.2,4.7-45.1,0-8.8-2.8-23.9-14.1-31.2-14.9-4.4-.5-10.9,1.4-16.6.7-11-1.3-19.9-11-31.6-7.4,0,6.9,23.8,23.5,30,27,12.5,7.1,59.8,26.8,72.5,26.6s59.9-19.8,72.2-26.9c10.3-6,24.6-16.2,29.3-27.2h-.1Z" fill="#aaaaaa" style="opacity: 0.5" opacity="0.5"/>
  <path id="outline-jaw" d="M676,1140c5.2-3.1,18.7-3.2,19.1,4.5,0,2.3-.8,11.2-1.1,14-.3,3-.9,8.4-2.1,10.9-2.5,4.9-17.3,13.6-20.1,19.9-1.2,2.6-6.4,25.9-6.7,29.3-.2,1.7,0,2.8.4,4.4,2.1,6.9,13.8,19.7,17.7,27.3,5.7,11,7.2,24.3,12,35s13.5,10.7,22.5,15.6,17.7,11.1,25.3,17.2c-3.1,0-6.3.2-9.4,0-7.7-.8-35.8-6.7-41.8-10-6.1-3.3-8.8-18.4-12.8-20.4-2.5-1.2-7,0-10.3-.7-6.7-1.2-9.9-7.8-17.5-1.5-6.7,12.4-14.3,24.3-20.4,37.1-7.4,15.4-14.8,25.1-4.8,41.2,5.2,8.4,23.4,27,25.6,34.4,2.5,8.4-2.4,27.4,2.4,33.6,5.4,6.9,20.6,5.2,27.7,1.7,11.1-5.5,9.2-10.1,14.9-19.1,5.3-8.3,20.9-24.3,30.4-26.7,7.7-1.9,12.3,10.3,14,16,4.9,15.9,2,31.2,13.9,44.1,1.1,1.2,9,8.5,10,7.5-.8-5.6,4.8-8.4,6.5-13,3-7.9-3.1-20.6-5-29-2.8-12.3-5.1-24.7-8-37-1-4.1-6.2-19.9-5.4-22.3,1.2-3.8,23.7-9.1,24.9-10.7.4-.5-2.9-8.7,0-12.6,1.3-1.8,8.8-6.8,11.1-8.9,3.9-3.5,23.1-22.9,25.7-23.4,4.4-.8,5.2,2.4,8,3.6,5.1,2.1,10.8,2.5,15.7,4.3,1.1.4,2.4.5,2.5,1.9-11.2,6.3-23.6,13-34.3,20.2-2.7,1.8-16.6,11.8-17.6,13.4-1.6,2.6-2.2,9.7-2.2,12.9l3,44.5c-9.8-13.1-8.1-31.3-10-47-2.5,1.9-15.3,3.5-15.9,5.6,4.5,18.6,8.6,38.8,15.1,56.7,7.3,20.1,19.2,40.4,27.7,60.3,11.1,7.8,27.2-5.8,33-15,5.6-8.7,8.1-23.6,22.5-13.5,11,7.7,22.9,21.4,33.5,30.5,48.3,41.3,92.1,59.6,157.4,50.3,40-5.7,69.7-25.7,99.7-51.3,6.2-5.3,32.4-31.5,37.5-32.5,11.9-2.2,14.8,13.8,21.4,21.5,7.4,8.7,17.4,14.2,29.1,12,4.4-.8,21.2-8.4,26.3-10.7,9.2-4.2,20.3-11.4,27.2-18.8,10.4-11.3,8.4-24,12-38,1.7-6.6,6.3-23.8,15.5-21.6,10.7,2.6,27.2,21,32.6,30.4,1.7,3,2.2,6.8,3.9,9.1,6.3,8.5,28.5,13.3,36,5.1,5.6-6.1.4-25.5,2.9-34.1s20.4-25.8,26-35c9.4-15.8.8-28.3-6.5-43.3-5.8-11.8-13.2-22.7-19.2-34.3-7.1-5.6-12.2.4-18.5,1.5-2.9.5-6.9-.4-9.3.7-3,1.4-6.8,14.4-9.5,17.5-1.4,1.6-7.6,4.3-9.9,5.1-8,2.8-25.7,6.6-34.3,7.7-3.4.4-6.8.2-10.2.2,6.6-5.5,15.7-12,23.3-16.2,11.5-6.3,19.8-5.1,25.5-19.5,3.9-9.8,5.3-20.7,10.3-30.7,3.9-7.7,16.9-22.6,18.7-29.4.4-1.7.2-2.8,0-4.5-.6-4.4-5.6-25.6-7.2-28.8-3.7-7.3-19-15.9-20.5-21.5-.8-3.2-2.6-24.3-1.6-26.4,2.1-4.5,12.7-3.4,16.5-1,.5,1.9,4.4,14,5,14.5,6.2,5.3,26.1,4.1,26.1,17s-1.7,15.9.2,26.7c1.7,9.8,9.7,22.5,6.4,31-2.3,6-12,20.9-15.9,27.1-3.6,5.6-8.1,10.6-11.8,16.2,8.8.3,18.9-17.9,26.1-12.1,3.4,2.8,13.7,18.6,16.7,23.3,5.1,7.9,10.9,17.6,15.1,25.9,3.9,7.8,17.4,38.8,16.1,45.8-.2,1.2-13,15.6-15.2,18.8-10,14.2-21.3,32.5-25.7,49.3-1.9,7.2-2.7,14.7-4,22-1,1.4-27.6,11.9-31.1,12.9-10,2.9-17.2,1.5-24.9-5.4-.9,8.8-2.6,17.7-3,26.5s1.7,33.1-.8,39.2c-.6,1.5-11.3,15-12.5,15.5-6.3,3-15.7-1.7-24.7,3.3-22.6,12.7-18.8,48.5-26.9,68.1-6,14.6-40.4,52.5-54.6,59.4-1.2.6-2,1.3-3.6.9,1.2-14.7,3-35.1-3.9-48.6-.4-.8-.4-3.2-2.1-1.4-.7.7-3.6,13.8-6.6,17.9-8.6,11.7-30.9,6.8-39.2,20.8-5.2,8.9-7.6,22.3-13.4,30.6s-48.5,28.9-59.6,33.4c-15.1,6.1-64.1,21.2-78.8,21.2s-63.4-15.1-78.8-21.2c-11.1-4.4-55.3-26-60.6-34.4-6.9-11.1-8.5-31.6-21.5-37.6-14.4-6.6-26.5-2.6-33.9-20.1-1.1-2.5-2.5-10.3-2.8-10.7-1.3-1.6-1.8.4-2.2,1.3-1,1.8-4.8,14.6-4.8,16.2v30c0,.3,1.4,1.4,1,2.5-1.7.2-3-.3-4.4-1.1-15.2-8.7-49.8-45.6-54.8-62.2-6.2-20.6-5.2-52.1-25.9-65.1-8.2-5.2-18.3-.3-24.7-3.3-.9-.4-12.2-14.2-12.7-15.3-2.1-5.2-.2-29.6-.5-37.4-.4-9.1-2-18.5-3-27.5-4,1.6-7.6,4.7-11.9,5.6-2.8.6-5.6.7-8.5.3l-35.7-14.3c-1.5-7.3-2.1-14.8-4-22-4.3-16.8-16.4-36.3-26.5-50.5-2.2-3-13.9-15.8-14.2-16.8-1.1-3.6.8-8.3,1.8-11.8,5-18.6,17.3-42.1,27.6-58.4,2.5-4,17.5-26.2,20.1-26.9,6.2-1.8,15.2,12.1,22.3,12.8.7-.7-9.3-13.3-10.4-15.1-4-6.2-14.5-22.3-16.8-28.2-2.7-7.1,5.4-22.1,6.9-30.5,1.9-10,.2-18.4,1.3-27.7,1.2-11,17.6-11.6,25.8-15.7,2.1-4.7,2-9.6,3.2-14.8h.4v-.2ZM799,1627.5v-20c0-3.5,9.1-26.6,11.7-27.4,6.9-2.2,27.9,17.6,32.8,22.9,7.6,8.1,14.7,20,23,27,10.5,8.8,23.6,12.8,33.5,23.6,22.2,24.2,21.6,36,55.1,50.9,29.5,13.1,59.4,23.9,92.4,17.4,12.7-2.5,58.9-21.3,68.9-29.1,12.4-9.6,23.1-31.8,35.2-42.8,9.6-8.8,25.5-14.6,34.6-23.4,6-5.9,12.7-15.8,18.4-22.6,2.8-3.3,8.4-7.2,10.3-10.7,4.4-8.2,10.5-40.4,10.3-49.8-.3-12.5-3.5-25.3-4.2-37.8-17.1-12.8-20.5-.4-31.4,9.3-16.5,14.9-41.1,22.8-63,25-69.4,7-135.6,7-205,0-22-2.2-46.4-9.9-63-25-7-6.3-10.5-15.9-22-15.1-3.7.3-6,3.1-8.5,3.7-4.9,1-22.9-12.7-28.3-15.8-18.4-10.2-46.1-20.5-61.1-34.9-6.9-6.6-2.4-11.8-2.5-19.5s-3.8-23.4-6.8-30.2c-.5-1.1.2-1.5-1.7-1.3-9.4,1.3-19,20.2-19.3,28.8-.2,6.3,6.7,18.5,7.6,26.9,1.5,13.9-4.4,40.4,8.8,49.2,12.8,8.6,39.9,13.7,50.8,26.2,5.7,6.6,1.5,7.9.7,14.6-3.6,29.6,1.4,55.9,20.9,78.9.5.6,3.9,4,2,1h-.2ZM1248,1630c19.4-21.2,26.1-39.8,25-68.5-.3-7.8-4-21.4,0-27.8,4-6.1,20.2-13.6,27.2-16.8,15.2-7.1,31-7,32.7-27.3,1.3-14.8-1.6-26.3,2.5-41.5,3.4-12.7,7.8-13.2,2.5-27.5-2.8-7.7-9.2-17.6-18-18.4-5.5,13.3-7.4,26.1-7,40.5,0,3,2.2,4.9,0,8.1-1.5,2.2-16.5,12.2-19.8,14.2-9.2,5.7-59,28.5-60.9,35.1-2.7,9.4,7.3,31.3,8.6,41.6l-10,40.5c2.4-1.4,5-2.6,7.9-1.9,6.7,16.4,13.1,31.6,9.1,49.9v-.2h.2ZM780,1448c-2-1.4-5.5,2.6-5.8,4.7-.9,5,7.2,15.1,12.8,15.2-.9-2.6-6.1-19.4-7-20h0Z" class="outline" fill="#000000"/>
    </g><g class="trait-group" data-category="mouth" id="mouth-OG">
      <path id="fill-muzzle" fill="#ffffff" d="M1125 1622c-3.4-2.3-6.5 6.6-8 8.5-3.7 4.7-17.7 19.6-23.5 19.5-2 0-5.3-4.8-7.8-6.2-7.4-4.3-19.1-5.3-26.8-1.4-4.2 2.2-10.1 9.4-13.4 9.7-7.7.5-10.7-10.3-17-11.2-2.3-.3-9.7-.3-11.5.6-3.2 1.4-8.9 10.8-13.7 11.3-3.1.3-10.3-8.4-13.4-10.2-6.5-3.8-16.5-3-23.5-.6-4.3 1.5-10.5 8-12.8 7.8-5.8-.5-18.9-14.5-22.7-19.3-1.6-2-2.1-4.7-3.5-6.4-5.4-6.8-5.6 3.9-7.6 7.3-9.4 15.7-21-13.3-24.8-18.9-2.4-3.5-7.2-5.7-10-9-9.7-11.6-6.4-27.5-10.3-40.7-1.7-5.8-11.6-19.5-14.9-27.1-10-22.6-12.3-43.5-10.8-68.2-2.4-7.1.4-27.9-4.5-32.5-2.1-2-6.1-2.7-8.5-4.5-5.9-4.5-12.8-32.2-11.9-39.8 1.1-9.4 12.1-25.4 18.4-32.6 12.3-14.3 37.4-24.6 56-26 4.8-.4 28.1 1.1 29.5.5s5.1-5.4 7.1-6.9c8.7-6.5 17-9.5 27.7-11.3 3.7-.6 7.6.4 11-1 3.1-1.3 11.4-13.2 17.3-16.7 10.5-6.1 38.9-5.7 51.5-4.6 5.7.5 13.4 3.6 18 7 3.7 2.8 11.2 13.2 13.8 14.2 3.3 1.4 7.3.4 11 1 8.9 1.5 16.5 3.9 24.1 8.9 2.7 1.8 9.7 8.9 10.7 9.3 1.3.6 23.9-.9 28.5-.6 16.1 1.1 33.8 7.8 46.8 17.2 12.1 8.8 30.2 32.8 28.7 48.3-.4 4.3-7 26.5-9.2 29.8-3.6 5.6-10.6 4.5-13.7 10.3l-3.2 43.8c2 20.7-2.7 38.4-11.1 56.9-3.2 7-11.5 17.9-13.4 23.6-4.4 13-.9 27.8-9.6 40.4-2.9 4.2-8.2 6.2-10.8 10.2-1.6 2.3-2.2 5.7-3.8 8.2-2.8 4.2-10.6 16.7-16.2 14.9-7.1-2.2-6.8-12.8-8-13.6h-.2Z" class="fill" data-original-prefix="fill"/><path id="fill-teeth16" fill="#ffffff" d="M995.3 1525.7c11 9.5 17.2-6.6 23.2 6.3 6.5 14.1 3.7 38.4-1 52.9-.7 2.1-7.1 16.9-8 17.1-1.2.3-3-.4-4.2-.9-12-5.1-31.7-18.1-39.1-28.9-10.6-15.5-6.4-42.9 6.8-55.8 1.3-1.3 9.1-5.6 10.4-5.3 1.5.3 9.4 12.3 12 14.5h-.1Z" class="fill" data-original-prefix="fill"/><path id="fill-teeth15" fill="#ffffff" d="M1039.1 1601.9c-.8-.5-7.5-16.1-8.1-18.4-4.1-13.8-6.5-36.9-1.3-50.3 4.6-12 8.1-4.3 15.8-4.2 9.5.2 17.3-18.2 20.8-17.9 1.2 0 8.5 4.2 9.7 5.3 6.3 6.2 12.2 22.3 13 31 2.4 28-20.3 39.6-41.3 50.7-2 1.1-5.7 5.5-8.6 3.7Z" class="fill" data-original-prefix="fill"/><path id="fill-teeth14" fill="#ffffff" d="M904 1461c0 2.2-1.1 3.8-.8 6.2.2 1.8 7.1 22 8 23.1 3.9 5.1 11.2 3.2 16.7 3.8 4.9 13.5-4.2 23.8-8.6 35.6-2 5.3-8.7 33.1-12.8 34.2-1.8.5-6.8-9.1-8.3-10.7-10.3-23.9-15.3-58.4-2.6-82.2.6-1.2 7.1-11.6 8.4-10.1Z" class="fill" data-original-prefix="fill"/><path id="fill-teeth13" fill="#ffffff" d="M1144 1564c-2.1 1.4-6.1-7.1-6.8-8.7-3.2-7.9-4.4-17.4-7.5-25.5-4.3-11.6-13.6-22-8.6-35.6 4.8-.6 12.3 1.2 15.9-2.9 1.3-1.5 8.1-20.6 8.6-23.2.3-1.8-1.4-7 .9-6 6 2.7 13.7 26 14.4 32.6 1.4 13.9-2.9 45-9.3 57.4-.8 1.5-7 11.6-7.6 11.9" class="fill" data-original-prefix="fill"/><path id="fill-teeth12" fill="#ffffff" d="M1093.1 1644.9c-2.9-1.8-2.4-28.5-2.1-33.4.7-10.5 5.2-31.2 8.9-41.1 1.1-2.8 2.4-1.4 4.2 0 12.2 9.6 21.1 44.8 12.8 57.9-1.9 3-15.6 14.9-18.9 16.1-1.3.5-3.8 1.1-4.8.4Z" class="fill" data-original-prefix="fill"/><path id="fill-teeth11" fill="#ffffff" d="M949 1569c5.5 22 11.1 44.4 9 67.5-.5 5.2-.9 10.3-7 8-3.4-1.3-17.5-13.4-19.5-16.5-5.8-9.2-1.4-31.3 2.7-41.2 1.2-2.9 11.3-21 14.8-17.7Z" class="fill" data-original-prefix="fill"/><path id="fill-teeth10" fill="#ffffff" d="M881.7 1478.3c3.1 2.8-2.7 21-2.8 26.2 0 5.9 2.6 12.4 3.1 18 .2 2.1.7 24.5-.5 24.5-1.5.2-2.1-1.1-2.9-2.1-15.6-18.9-34.8-51.8-17.4-75.3 6.5-8.8 10.5 2.1 14.9 5.8 1.8 1.5 4.9 2.1 5.7 2.8Z" class="fill" data-original-prefix="fill"/><path id="fill-teeth9" fill="#ffffff" d="M1185.7 1467.3c1.9 1.6 7.8 13.7 8.2 16.2 3.2 20.7-9.8 47.3-23.9 61.9-.9 1-1.3 1.9-3 1.5.5-8-.7-16.6 0-24.5.4-5.4 3.1-12.3 3.1-18s-6.1-23.4-2.8-26.2c.6-.6 2.5-.6 3.8-1.7 3.4-3 10-13.1 14.7-9.3Z" class="fill" data-original-prefix="fill"/><path id="fill-teeth8" fill="#ffffff" d="M1018 1613v16.5c0 .9-10.8 13.2-11.9 14.1-6.3 4.8-8-2.6-10.6-5.5-5.5-6-17.9-.4-24.4-5.6-1.2-.9-4.1-8.8-4.1-9.9v-22.5c12.9 1.7 28.3 17.5 41.4 15.9 3.5-.4 6.1-3 9.6-2.9Z" class="fill" data-original-prefix="fill"/><path id="fill-teeth7" fill="#ffffff" d="M1031 1613c6.3 1.3 9.1 4 16.1 2.6 10.6-2.2 24.3-14.8 33.4-15.6 2-.2 1.4 0 1.2 1.3-.8 6.5 2.4 27.5-4.4 31.6-7 4.2-18.8-.3-23.4 4.6-2.1 2.2-3.6 8-8.4 7.6-1 0-14.6-13.5-14.6-14.6V1613z" class="fill" data-original-prefix="fill"/><path id="fill-teeth6" fill="#ffffff" d="M1102.5 1494c3.3-.8 4.5 6.9 5.3 8.7 5.6 12.1 13 24.8 13.3 38.8.2 9-16 29.8-21.3 16.2-4-10.4-4.1-44.8-1.1-55.5.4-1.6 2.4-7.9 3.8-8.2" class="fill" data-original-prefix="fill"/><path id="fill-teeth5" fill="#ffffff" d="M937.3 1559.7c-1.9-1.6-7.8-10.5-8.5-13-3.6-12.1 6-31.3 11.4-42 1.6-3.1 3.3-14.7 8-7.4 5.5 8.5 4.3 41.5 2.7 52.1-1.2 7.7-3.6 18.7-13.6 10.3" class="fill" data-original-prefix="fill"/><path id="fill-teeth4" fill="#ffffff" d="M917 1563c-1.8 13.4 2.9 27.5 2 40.5-.6 9-4.4 18.4-5.5 27.5-6.2-6-10.5-16.1-11.4-24.6-.5-5.2.7-24.7 2.4-29.3.6-1.6 10.5-16.2 12.4-14.1Z" class="fill" data-original-prefix="fill"/><path id="fill-teeth3" fill="#ffffff" d="M1135 1631c-.4-8.9-4.4-17.8-5.1-26.5-1-13.8 3.7-27.6 2-41.5 2.2-2.4 11.9 13 12.5 15 2 6.6 2.6 27.4 1.2 34.3-1.3 6.3-5.5 14.9-10.8 18.7z" class="fill" data-original-prefix="fill"/><path id="fill-teeth2" fill="#ffffff" d="M1154.1 1604.9c-3.4-2-5.1-22.3-3.9-26.2.8-2.6 8.9-5.2 10.2-8.8l5.1-10.9c3.8 3.4 5.1 7.2 4.3 12.2-.7 4.2-5.4 22.7-6.9 26.2-.9 2.2-6.1 9-8.8 7.5" class="fill" data-original-prefix="fill"/><path id="fill-teeth1" fill="#ffffff" d="M885 1559c-.3 3.7 1.7 9.4 4 12.2s9.5 5.2 10 8.3c-2 8.4 1.6 19.2-5.7 25.4-3.6-1.1-6-4-7.4-7.4s-6.5-23.6-6.9-27.1c-.5-4.2 1.2-10.6 5.9-11.4z" class="fill" data-original-prefix="fill"/><path id="shading-mouth2" fill="#aaaaaa" d="M918 1443.5c.8 5.3 5.6 13.8 10.1 16.9 11.5 8.3 16.2-.3 22.4-9.4 2.5 5.4 3.4 11.5 6 17 1.4 2.8 5.7 12 7.5 5.5l4-11.5c1.6 7.5 6.3 15.4 11.5 21 4.3 4.7 18.8 15.4 24.6 9.6 2-2.1 8.3-17.9 10.8-22.2 1.2-2.2 7.8-13.8 9.7-13.3 1 .2 8.5 13.2 9.7 15.3 2.4 4.5 7.3 17.7 9.8 20.2 3.8 3.8 10.5.4 14.4-1.8 10.5-5.9 18.5-17.2 21.7-28.8l4.2 12.3c.3 1.2 1.9 2.4 2.8 1.7.6-.4 5.8-11.3 6.5-13 .8-2 2.8-12 4-12 6.8 10.7 12.9 18.4 24.5 7.5 8.6-8 9.3-23.8 7-34.5 3.5-3.1 21.1 16.1 26.6 16.9 9.1 1.4 17.6-11.8 19-19.9 3.5-20.5-12.9-39.2-30.9-46.2l-12.7-4.8c15.4 0 28.2 2.9 41.1 11.4 4.8 3.1 12.2 10.9 17.6 11.4 6.2.6 10.1-4.1 10-10-.4-19.3-25.8-38.1-39.7-48.8 15.4 2.4 34.6 11.8 45 23.5 7.8 8.8 19.1 25.1 19.1 37s-6.4 28.5-9.2 32.8c-3.3 5.3-11.7 5.4-13.4 10.6-.9 8.1-2.1 16.4-2.5 24.5-1.5 29 1.4 45.2-10.8 73.2-3.6 8.2-12.7 20.4-14.9 27.1-4.2 12.8-.7 26.4-9.1 38.9-3.2 4.8-8.4 6.7-11.2 10.8-1.7 2.5-2.4 6.1-4.2 8.8-4.5 6.7-14.6 23-21.6 8.9-1.6-3.3-1.3-12.9-6.7-6.2-1.4 1.7-1.9 4.4-3.5 6.5-3.7 4.7-17.7 19.6-23.5 19.5-2.2 0-4.5-4.1-6.6-5.4-7.9-5-21.1-6.3-29.2-1.4-7.3 4.4-9.5 13.6-18.1 6.8-8.6-6.7-6.4-10.8-20.1-9-5.6.7-11.4 12.6-16.9 12.1-2.8-.2-11.4-11.1-18.5-12.6-6.3-1.3-17.5.7-23 4.2-2.6 1.7-4.1 5.6-7.5 5.4-5.7-.3-19.8-15.8-23.6-20.5-1.2-1.5-4.4-10.6-7.1-6.9-2.5 3.4-.6 9.9-7.2 12.7-7 3-14.9-11.2-18.1-16.4-1.2-1.8-1.2-4.3-2.6-6.4-2-3-6.8-5.4-9.5-8.5-10.4-11.9-6.7-27.7-10.7-41.3-.8-2.6-5.6-8.5-7.3-11.7-18.4-35.7-16.4-45.6-18.4-84.6-.4-7.7-.6-20.7-2.2-27.8-1.5-6.2-11.1-6.1-14.2-11.8-3.4-6.1-9.3-29.6-8.6-36.4 1.2-10.3 16.2-31.2 24-38 10.5-9.2 26.2-16.5 40-18.5l-21.5 17c-7.2 6.4-26.8 32-14.8 39.9 9 5.9 16.7-4.5 23.7-9.1 12.7-8.4 25.3-11.8 40.7-11.8l-17.3 7.2c-18 9.4-33.1 32.7-22.1 52.8 1.7 3.1 8.6 10.4 12 11.1 9.1 1.7 20.7-15.4 29.5-18 .6 6.4-.9 14.3 0 20.5zm-37.1 40.6c-12.3-.5-17.1-20.2-22.8 1.5-3.4 13 1.2 26.4 9.4 36.5 1.5 1.8 12.7 13.1 13.9 12.9.8 0 2.5-2.3 2.8-3.2 2.9-7.1-3.2-12.2-4.2-19.2-1.5-9.8 0-18.7.9-28.4Zm301.8-8.9c-3.2.8-6.3 6-8.8 7.3-2.1 1.1-7.2 1-7.8 3.2-.5 1.7 3 10.8 2.9 14.8 0 3-1.5 13.9-2.2 16.8-.9 3.6-3.9 5.7-3.9 10.2s1.4 7.1 3.7 7.4c1.9.3 15-14.4 16.8-17 5.7-8.5 9-18.8 7.3-29.2-.5-3-4.4-14.5-8-13.6Zm-284.8 10c-4-2.3-6.5 9.9-6.8 12.5-1.2 10.5 3 38 8.7 47.1 1.9 3 5.4 6.9 9.2 7.3 3.7-15.6 12.6-29.2 21-42.5-2.3-.4-1.7-2.9-2.7-3.5-1.5-.9-7-1.9-9.7-3.1-4.7-2.2-12-7.7-15.6-11.4-1.2-1.2-3.8-6.2-4.2-6.3ZM1139 1552c8.3-2 11.9-12.2 13.9-19.6 3.1-12.1 6.1-33.4 1.1-44.8-3-6.9-5.8 1.7-8.3 4.1-3.9 3.8-11 9.3-16 11.6-2.5 1.1-7.8 1.8-9.1 2.7-.7.5-.5 1.8-1 2.7-.3.4-1.7.4-1.6.9 0 1 7.9 12.3 9.2 14.8 4.8 8.8 9.1 18 11.8 27.7Zm-197.7 5.7c8.1 8.1 9.5 0 10.5-7.3.8-5.6 2.7-20.6 1.7-25.4-3.6-17.2-21.3-15.9-21.6 3.6 0 6.8 4.6 24.3 9.4 29.2Zm161.5-44.5c-5 1.3-8.5 9.3-8.8 14.2-.2 4 2.4 28.5 3.8 31.3 2.5 5 7.5 0 9.8-2.7 6.8-8.3 11.6-30.7 4.5-39.5-2.7-3.3-4.8-4.4-9.2-3.3zM1023 1544c-.7-.7-.8-7-5.1-9.4-8.9-5-21.8-.8-32-4-10.4-3.3-9.4-13.1-16.1 1.8-2.9 6.4-9.1 24.4-6.3 30.7 1.1 2.4 17.8 15.6 21.2 17.8s18.2 11.7 21.1 10c3.1-5.6 9.3-9.5 12.6-14.9 1.8-2.8 4.1-11.5 4.6-11.9 1.6-1.7 1.7.5 2.1 1.4 1.6 3.6 2.1 6.8 4.5 10.5 3.3 5.2 9.2 9.3 12.4 14.6 3.1 1.9 15.5-5.9 18.9-8.1 4.5-2.9 22.9-17 23.9-21.1 2.2-9.7-6.6-28.3-10.9-37.2-4.9 1-7.8 5.2-12.7 6.7-9.2 2.8-28.2-1.6-33.7 6.3-.9 1.2-2.6 8.9-4.5 7zm-136 18c-.7-.6-3.5 0-4.5.9-6 6.2 2.4 31.6 14.6 27.6 4-1.3 3.8-9.4 2.8-12.9-1.1-3.9-7.2-4.1-9.8-7.2-2.1-2.5-2.7-8.2-3-8.5Zm274.1 0c-.3.3-.9 6-3 8.5-2.6 3.1-8.7 3.3-9.8 7.2-1 3.4-1.2 11.6 2.8 12.9 13.4 4.4 20.2-24.5 14.1-28.1-.9-.5-3.5-.9-4-.4Zm-216.4 7.2c-1.5.4-5.1 4.6-6 6.1-3.4 5.6-5.6 32.3-4.8 39.3 1.3 10.9 15.2 18 19.5 3.5 1.7-5.6 2.6-21.4 2.5-27.6 0-1.1-5.8-19.7-6.5-20.5-1.2-1.4-3.2-1.3-4.8-.8Zm153.3-.1c.2 6.6-5.4 14.7-6 20.6-.5 4.5 1 25.3 2.4 29.4 4.2 12.1 16.9 7.3 19.1-2.9 1.1-5.2 0-16.8-.6-22.6-1-9.7-1.7-25.5-14.9-24.5m-180 1.9c-20.5 3.8-17 28.7-9 43 4 2.9 10.4-17 10.7-19.8.9-7.5-2.9-15.5-1.8-23.2Zm218 43c2.5 1.8 7.2-9.1 7.7-10.8 3.9-12.8 1.6-30.1-13.7-32.2.5 7.4-2.8 16.2-1.9 23.4.3 2.7 6.4 18.5 7.9 19.6m-148.2 10.2c1.4.8 4.8 8.6 9.5 11 11.1 5.8 20.2-6.4 20.7-16.7.8-13.7-7.2-7.7-16.5-8.6-8.4-.8-15-4.8-21.8-9.2-5.5-3.5-13.6-14.6-14.7-1.4-.5 5.1 1.4 7.5 1.8 11.2s-2 5.9.5 10.7c4.8 9.3 18 1.3 20.7 2.8zm93.1-31.1c-2.1-1.5-19.7 12.7-23.9 14.4-2.3 1-7.9 2.3-10.5 2.5-10.5.9-18.8-5.4-16.4 11.4 1 7.3 7.9 15.8 16 15.1 9.4-.8 11.9-11.6 14.6-12.4 4-1.3 12.3 5.7 18.9-1.1 4.3-4.4 1.3-8.4 1.5-12.5 0-2.3 1.9-4.8 2-8.1 0-1.9-.8-8.5-2.2-9.4Z" class="outline shading" data-original-prefix="shading" opacity="0.5" style="opacity: 0.5"/><path id="shading-mouth1" fill="#aaaaaa" d="M1041 1343c6.1.5 12.7-1 17.5-5 1.5-1.3.9-3.7 2.8-2.9 10.1 7.9 37.9 17.4 43.8 28.2 3.6 6.5 4.6 17.5-1.8 22.6-5.6 4.5-20.8 10.8-28 15-4.9 2.8-9.7 6.6-14.7 9.3-7.4 4.1-25.5 14.5-32.6 16.4-2.9.8-5.2.8-8.1 0-14.5-3.8-42.2-22.5-56.3-30.7-6.2-3.6-21.2-9.1-23.2-15.8-5.5-18.4 15.7-28.3 28.7-35.4 2.3-1.2 15.5-8.6 16.5-8.7 2.9-.3 4.2 2.9 6.7 4.2 4.2 2.3 10 3.2 14.7 2.8-.3-5.1-3.3-11.3-1.8-16.3.5-1.6 12.5-13.9 14.5-14.4 3.9-1 8.2-.3 11.6 1.9 1 .7 10.8 11.1 11.2 11.8 2.1 5-1.2 11.8-1.5 17" class="outline shading" data-original-prefix="shading" opacity="0.5" style="opacity: 0.5"/><path id="outline-mouth3" fill="#000000" d="M888 1333c-.7 1.9-2.2 2-3.8 2.7-12.3 5.2-24 8.3-33.2 18.8-6.6 7.6-18.9 26-18 36 .3 4 7.1 25.8 9.2 28.8 2.7 4 6.1 4.9 10.8 4.7-1.4-9 4.2-18.1 9.6-24.9 2.2-2.8 21.9-22.6 24.4-20.1-1.7 6.5-8.8 10.4-13 15.5-8.1 10-12.3 23.6-9.5 36.5 1.2 5.4 11.2 26 15 30 .6.7 7.1 6.3 7.5 6.5 2.4 1.2 5.6-3.8 6.5-5.5 2.5-4.3 3.1-9.7 5-14 4.4-10.2 9.3-18.3 18.5-25-5 13.9-9.5 44.6 1.5 56.1 4.6 4.8 11 2.5 15 5.1 2.1 1.3 2.5 5.4 4.2 5.8s7-3.1 9.4-3.5c9-1.4 12.6 16.9 18.7 17.4 2.5.2 10.2-12 18.4-9.4 5.5 1.8 19.2 24.8 24.4 23.6 5.8-5.9 3.6-12.3 5-19 1.5-7.6 8.3-12.6 9.4-22.6.8-7.2-1.7-26.6-4.7-33.1-1.1-2.3-5.5-10.7-6.8-12.2-3.4-4-15-9.2-19.8-6.1l-4.2 11.1c-4.8-4.4-9.5-9.2-14.5-13.5-3.7-3.2-10-6.8-13-9.9-4-4.2-15.6-27.9-15.7-33.2 0-6.8 17.5-22.4 21-29 5.4-4.1 29.2-2.8 35.7.2 8.4 3.8 12.4 12.1 18.5 17.5 5.2 4.5 2.5-1.7 2.5-3.6s.9-3.2.8-4.8c-.2-5.4-6.7-9.2-9.9-13.1-2-2.4-5.6-6.2-7-8.2-.9-1.3-4.9-7.8-5-8.8-.2-2.6 9.1-11.7 11.5-12.4 3.6-1-.5 5.5-.5 6.6-.4 5.2 5.9 4.1 9.3 5.6 1.2.5 3 2.7 3.2 2.7s2.4-2.7 3.8-3.2c7.8-3.2 11 1.2 6.8-11.7 1.6-1.7 12.5 9.1 12.9 11.7.6 4.5-17.6 23.1-21.1 27.5l-.8 12.7c1.7.4 2-.7 3-1.5 8.7-6.7 12.6-16.8 24.9-19.1 5.5-1 25.6-1.3 29.8 1.8 3.4 6.7 20.4 21.8 21 28.4.4 4.3-10.8 27.3-13.9 31.7s-9.8 7.6-13.8 11.2c-5.3 4.6-10.3 9.8-15.5 14.5-2.2.9-1.4-5.6-2.2-7.7-3.4-8.6-19-1.6-22.7 3.8-.7 1-7.1 13.9-7.3 14.7-2.7 12.8-5.5 27.3-.2 39.8 1.5 3.5 4.6 6.8 5.8 10.2 2.5 7.2-.5 15.2 5.8 21.2 9.4-2.8 19.1-24.9 27.9-24 5.2.5 13.2 10 14.9 9.8 5.8-.5 9.3-18.7 18.7-17.4 2.4.3 7.6 3.9 9.3 3.4s2-4.8 4.8-6.1c3.8-1.8 9.4-.4 13.3-3.7 11.5-9.7 8.1-43.1 2.5-56 1.6-1.7 11.3 10.4 12.4 12.1 5.1 7.8 6.1 15.5 9.7 23.3 1 2.1 4.8 9.8 7.8 8.2.4-.2 6.9-5.9 7.5-6.5 6.8-7.5 16-30.4 15.4-40.5-1.3-22.7-10.7-22.7-21.5-37.5-5.3-7.2 2.8-2.4 6 0 11.8 8.6 28 25.5 26.5 41 11.6 1.1 13.6-11.4 16.3-20.2 4.6-15.6 5.3-18.8-3.1-33.4-8.2-14.3-16.4-22.7-31.5-29.5-5.8-2.6-13.2-3.6-17.7-7.8 15.9 1.8 34.5 6.4 49 13.5 8.3 15 22.1 26.8 28.1 42.9l-15.2 44.9c-.9 3.7-13 4.8-13.8 5.8-.6.8-2.2 17.2-2.2 19.4-.2 31.7 2.4 50.4-13.1 79.9-2.6 5-12 16.3-12.6 19.4-.9 4.6 0 10.4-.5 15.5-.9 8.4-5.8 16.4-6.7 23.4-.4 3.5 1.3 7.7.8 9.7s-10.7 8.6-13.2 9.9c-2.2 1.2-5.7 1.5-6.5 2-.6.4-5.2 10.6-7.2 13.2-2.2 2.8-13.6 14.5-16.9 12.4-.6-.4-5.9-11.8-7.1-13.3-2.2-2.9-2.2 2.1-3.2 3.8-4.6 7.3-24.8 27-32.8 29.2-1.7.5-3.3.7-5 .5 1.1-8.2 2.6-16.6-8-18.6-9.7-1.8-16.2 7.5-18.5 15.6-1.2 4.3-1.2 16.7-7.8 14.9-4.3-1.2-20.3-25.6-23.2-30.8-5.5 8.6-11.5 19.1-18.5 26.5-1.8 1.9-6.9 7.7-9.3 3.3-2.8-5.3-2.5-14.6-5.5-20.5-3.8-7.2-14-11.7-21.2-6.8-6.6 4.6-2.9 10-3 16.5-3.4 3.4-23.5-12.8-26.5-15.9-1.5-1.5-11.4-13-11.9-14.1-.7-1.4-.2-6.3-2.6-3.3-2.1 2.6-6 14.4-10.2 13.3-2-.6-12-10.2-13.7-12.4-2.1-2.7-6.6-12.8-7.2-13.2-.8-.5-3.8-.6-5.8-1.7-2.5-1.4-11.8-7.1-13-9-2.3-3.8.4-6.7 0-10.8-1-7.2-5.8-15.5-6.7-24.4-.5-5 .6-10.7-.6-15.4-1-3.9-7.9-9.8-10.7-14.3-10.4-16.9-15.8-37.5-16.8-57.2-.8-15.6 1.6-31.1 0-46.5-18.8 0-17.3-14.5-21.7-27.8-2-5.8-9-19.6-8.1-24.5.6-3.1 5-9.2 7-12.1 2.9-4.3 18.7-27.3 20.9-29.1 1.7-1.4 8.5-4.5 10.7-5.3 9.6-3.2 28.2-7.1 38.2-8.3v-.7Zm16 128c-1.4-1.5-7.8 8.9-8.4 10.1-12.7 23.9-7.6 58.3 2.6 82.2 1.5 1.6 6.5 11.2 8.3 10.7 4.1-1.1 10.8-29 12.8-34.2 4.4-11.8 13.5-22.1 8.6-35.6-5.5-.6-12.8 1.4-16.7-3.8-.9-1.1-7.8-21.4-8-23.1-.2-2.4.8-4 .8-6.2Zm240 103c.6-.4 6.8-10.5 7.6-11.9 6.4-12.5 10.7-43.5 9.3-57.4-.7-6.6-8.4-30-14.4-32.6-2.3-1-.6 4.2-.9 6-.5 2.7-7.2 21.8-8.6 23.2-3.6 4.1-11.1 2.3-15.9 2.9-5 13.6 4.3 24 8.6 35.6 3 8.1 4.3 17.7 7.5 25.5.7 1.6 4.7 10.2 6.8 8.7m-262.3-85.7c-.8-.7-3.9-1.3-5.7-2.8-4.4-3.7-8.4-14.6-14.9-5.8-17.4 23.5 1.8 56.3 17.4 75.3.8.9 1.5 2.3 2.9 2.1 1.2 0 .7-22.5.5-24.5-.5-5.6-3.2-12.1-3.1-18 0-5.2 5.9-23.5 2.8-26.2Zm304-11c-4.6-3.9-11.2 6.2-14.7 9.3-1.3 1.1-3.1 1.1-3.8 1.7-3.3 2.9 2.8 21 2.8 26.2s-2.6 12.6-3.1 18c-.7 7.9.4 16.5 0 24.5 1.7.4 2-.5 3-1.5 14.2-14.6 27.2-41.2 23.9-61.9-.4-2.6-6.3-14.7-8.2-16.2Zm-83.2 26.7c-1.4.3-3.3 6.6-3.8 8.2-3 10.7-2.9 45.1 1.1 55.5 5.3 13.6 21.4-7.2 21.3-16.2-.2-14-7.6-26.7-13.3-38.8-.8-1.8-2-9.4-5.3-8.7m-165.2 65.7c10 8.3 12.4-2.6 13.6-10.3 1.6-10.6 2.8-43.6-2.7-52.1-4.7-7.3-6.5 4.3-8 7.4-5.3 10.7-15 29.9-11.4 42 .7 2.4 6.6 11.4 8.5 13m58-34c-2.6-2.2-10.5-14.2-12-14.5-1.3-.2-9.1 4.1-10.4 5.3-13.2 13-17.5 40.3-6.8 55.8 7.4 10.8 27.1 23.8 39.1 28.9 1.2.5 3 1.2 4.2.9.9-.2 7.4-15 8-17.1 4.7-14.6 7.5-38.8 1-52.9-5.9-13-12.1 3.2-23.2-6.3h.1Zm43.8 76.2c2.9 1.8 6.6-2.7 8.6-3.7 21.1-11.1 43.7-22.7 41.3-50.7-.7-8.7-6.7-24.8-13-31-1.2-1.1-8.4-5.2-9.7-5.3-3.5-.3-11.2 18.1-20.8 17.9-7.8-.2-11.2-7.8-15.8 4.2-5.2 13.4-2.8 36.6 1.3 50.3.7 2.3 7.3 17.8 8.1 18.4ZM885 1559c-5.2 1.1-6.5 7.6-5.8 12.2s5.4 23.4 7 27c1 2.2 6.2 8.5 8.7 6.7 3.4-2.4 3.2-20.7 4.1-25.4-.6-3-7.8-5.5-10-8.3s-4.3-8.6-4-12.2m269.1 45.9c2.7 1.5 7.8-5.3 8.8-7.5 1.5-3.4 6.2-22 6.9-26.2.8-5-.5-8.8-4.3-12.2l-5.1 10.9c-1.4 3.6-9.4 6.1-10.2 8.8-1.2 3.9.5 24.2 3.9 26.2M917 1563c-1.9-2.2-11.8 12.5-12.4 14.1-1.8 4.6-2.9 24.1-2.4 29.3.8 8.6 5.2 18.6 11.4 24.6 1.1-9 4.9-18.4 5.5-27.5.9-13-3.8-27.1-2-40.5Zm218 68c5.2-3.8 9.5-12.5 10.8-18.7 1.4-6.9.7-27.7-1.2-34.3-.6-1.9-10.4-17.4-12.5-15 1.7 13.9-3.1 27.7-2 41.5.7 8.7 4.6 17.6 5.1 26.5zm-186-62c-3.4-3.2-13.6 14.8-14.8 17.7-4 9.9-8.4 31.9-2.7 41.2 2 3.2 16 15.2 19.5 16.5 6 2.4 6.5-2.8 7-8 2.1-23.1-3.5-45.4-9-67.5Zm144.1 75.9c1.1.7 3.6 0 4.8-.4 3.2-1.2 16.9-13.1 18.9-16.1 8.3-13.1-.6-48.3-12.8-57.9-1.8-1.4-3.1-2.8-4.2 0-3.7 9.9-8.2 30.6-8.9 41.1-.3 4.8-.8 31.5 2.1 33.4ZM1018 1613c-3.5 0-6.1 2.5-9.6 2.9-13.1 1.6-28.5-14.2-41.4-15.9v22.5c0 1.1 2.9 9 4.1 9.9 6.5 5.2 18.9-.4 24.4 5.6 2.6 2.9 4.3 10.3 10.6 5.5 1.1-.8 11.9-13.1 11.9-14.1v-16.5Zm64-13c-13.3 1.4-27.9 17.6-41.4 15.9-3.5-.4-6.1-3-9.6-2.9v17.5c4.1 2.4 11.4 14.9 15.4 14.5 5.4-.5 6.1-8.2 10.5-9.6 5.4-1.7 16.2 1.1 21-3 1-.8 4-9.7 4-11v-21.5Z" class="outline" data-original-prefix="outline"/><path id="outline-mouth2" fill="#000000" d="M1011 1292c-6.2 1-21.6 9.8-26 14.5-2.9 3.1-3.9 7.2-7.2 9.8-18.9.8-35.9 5.2-50.3 17.8-.9-.2-.3-1.9-.5-2 1.1-8.8 19.3-26.2 27.4-25 3.5.5 2.6 4.8 10 4 10.8-1.2 17.8-10.7 19.4-20.7.4-2.5-1.9-5.2 1.2-6.7 4.7-2.2 21.7 4.7 26 8.5z" class="outline" data-original-prefix="outline"/><path id="outline-mouth1" fill="#000000" d="m1122 1332-.5 3c-10.9-11.7-25.5-16-41-18-2.9-.4-6.9.7-9.5-.5-1.5-.7-4.5-7.4-6.5-9.5-3.4-3.8-14.1-10.6-19-12s-4.7-.4-8.6-2.9c4.2-4.1 21-10.8 26-8.5 3.1 1.5.8 4.2 1.2 6.7 1.9 11.3 12.7 24.5 25 19.5 4-1.6 2.6-4.3 9.2-1.6 10.8 4.4 18.3 14 23.6 23.9h.1Z" class="outline" data-original-prefix="outline"/>
    </g><g class="trait-group" data-category="eyes" id="eyes-half-robo-lefty">
      <g id="fill-eyes" fill="#ffffff"><path id="fill-eyes10" fill="#ffffff" d="M1340.2 1161.2c-1.8 3.2 2.5 12.1 1.8 16.2-.3 2.1-5.6 8-6.6 11.5-1.6 6.1-1.6 14.6 6.5 13-2.9 14.9-6.1 30.8-15.2 43.3-4.1 5.7-24.3 27.4-29.8 30.2-9.5 4.9-28.4 5.8-39.5 8.5-3.7.9-16.8 4.8-19.1 6.9-2.7 2.3-2 11.3 1.3 12 1.6.3 5.2-.9 5.3 1-8.5 2.7-18.7 4.8-27.6 5.9s-19.3 1.8-27.9 2.1c-8.3.3-33.7 0-40-4-10.6-6.8-26.7-27.9-39.9-29.1-6.9-.6-10.6.4-10.6 8.1-.6.7-10.6-4.7-11.9-5.6-11.9-7.5-40.3-29-48.5-39.5-5.2-6.6-3.8-13.2-15.1-12-7.3.8-7.4 9.4-12 14-1.5 1.5-18.9 12.9-20.1 13-1.9.2-3.7-1.2-5.4-.5-6.2 2.4-15.1 17.1-22.1 20-4.6 1.9-15 .6-17.5 2.5-8.4 12.7-14.5 27.7-22.6 40.4-5.8 9.2-8.7 11.7-19.6 14.4-15.5 3.9-33.9 4.3-49.7 8.1-53.2-18.6-106.5-37-159.2-57.1-1.9-1.6-2.8-26.6-3.2-31.3-3.3-31.2-7.2-62.5-10.2-93.8-.3-.9-.9-1.8-1.8-2.2-4.9-2.4-25.1 2.5-26 1.5.2-3.8-1.2-8.2-2.8-11.7-2.5-5.4-15.3-21.4-15.2-25.7 0-2.9 5.5-14.4 7.1-18 18.2-40.9 44.7-76.3 69-113.4 5.5-.4 9.2 3 15.3 1.8 4.1-.8 23.2-25.9 28-31 60.3-64.2 149.7-115.4 238-125 9.5-1 28.3-3.2 37-2.1 6.9.9 4.3 7.7 8.1 8.9l41.8 3.2c96.6 6.4 182.3 72.3 241.5 144.5 2.8 3.4 4.3 9.3 8.7 10.3 5.9 1.3 8.4-1.5 13.8 4.2 19.9 20.7 39.1 64.4 47 92 2.1 7.3 7.6 26.9 7.5 33.5-.1 8.9-14.8 5.9-22 7.9-13.5 3.8-24.8 15.9-36.8 22.7Z" class="fill" data-original-prefix="fill"/><path id="fill-eyes9" fill="#ffffff" d="m828 1222 66.3 32.1c4.8 3.5-5.7 11.7-9.1 13.7-32.1 19-64.9-12.6-57.3-45.8Z" class="fill" data-original-prefix="fill"/><path id="fill-eyes8" fill="#ffffff" d="M996.7 1072.7c-7.1 8.9-18 18.1-25.7 27.8-7 8.8-21.5 24.3-12.5 35.4 6.6 8.1 24.3 16.3 30.4 25.6 4.5 6.7-.7 8.7-2.8 14.3-4.9 13-9 38.6-11.1 52.9-.7 4.8-.5 16.1-1.8 19.1-.5 1.2-18.7 15.1-19.9 15.3-6 .9-37.9-16.9-45.1-20.9-33.2-18.2-65-39.3-97-59.4-2.4-2.9-4.8-25-5.3-30.2-1.2-12.4-3.9-40.7-.5-51.5.4-1.3 5.1-11.5 5.7-11.8 1.2-.8 7.1-.2 8.9.3 34.7 19.4 69.8 38.2 104.6 57.4 8.6 4.7 25.8 16.8 33.6 19.4 6.5 2.1 12.2-.5 18.7-.2.7-2.3-.6-1.7-1.3-2.3-6.7-5.9-13.4-8.7-20.6-13.3-40-25.6-80.3-50.6-122.4-72.6-1.1-.4-2.3-1.9-1.7-2.8.9-1.2 24-8.8 28.3-11.2s6.5-5.1 8.5-9.4c17-55.2 33.2-111.9 54.3-165.7 1.9-4.8 10.1-26.3 12.3-28.7 3.1-3.3 25.6-7.8 31.2-8.8 9.4-1.6 51.2-7.1 57.2-2.8 1.1.7 1 1.9 1.1 3 .2 8.6-3.3 22.7-4.1 32-3.3 38.2-4.3 76.8-6 115-.3 6.8.8 14.5 0 21-.4 3.8-15.5 51-17.3 53.2Zm-83-72c14.9-14.9-1.8-40-16.7-24.2-13.9 14.6 2.2 38.7 16.7 24.2m-87 112.5c-9.3 1.7-16.1 13.2-15.8 22.2 1 30.2 42 29.5 39-2.9-1.1-11.5-11.4-21.4-23.2-19.3" class="fill" data-original-prefix="fill"/><path id="fill-eyes7" fill="#ffffff" d="M719.3 1016.7c-1.3-1.1-2.3-5.5-4.4-2.2-1 1.6-1.9 7.9-2 10-.3 9.1 2.9 14 10.4 18.7 14.4 9.1 35.8 16.8 51.7 25.3 2.3 1.2 15.6 8.2 15.9 9.2-1.9 30.7-1 61.8 2.1 92.3l-49.3-29.2c-8.3-3.6-16.5-9.5-25.5-11.5-18.7-4.3-38.7 5.2-56.2 10.7-.3-7.3-7-15-5.5-22 1.7-7.9 11.7-26.9 15.7-35.4 12.3-25.9 26.6-50.8 39.8-76.2l5.3-.3c32.3 10.2 64.4 22.1 97.7 28.8l-10.1-7.4c-19.2-11.1-39-21-58.9-30.6 2.6-8 8-15.6 13.5-22 28.9-33.5 71.7-67.3 110.5-88.5 15.7-8.6 32.7-17.3 50-22-29.9 57.7-44.6 121.4-62.5 183.5-4.7 10.6-31.8 18.9-42.8 19.8-26.5-14.9-55.5-27.3-81.8-42.3-4.4-2.5-9.8-5.6-13.6-8.9Zm124.4-20.5c-16.7 3.5-29.8 42.7.5 37.5 8.5-1.4 15.5-11.5 17.7-19.3 3.6-12.9-5.5-20.9-18.2-18.2m-76.9 78c-23.6 1.9-25.1 46.6 4.5 41.6 21.8-3.8 18.6-43.4-4.5-41.6" class="fill" data-original-prefix="fill"/><path id="fill-eyes6" fill="#ffffff" d="M800 1304c-8.7 1.2-16.8 6-25.2 6.8-20.5-8.8-45.8-14.6-65.5-24.6-3.5-1.8-9.5-5.7-10.3-9.7-6.5-34.8-8.8-73.6-10-109 0-2.2-1-4.2-1-6.4 2.7 1.1 8.9-2.4 9.8.7 1 3.3-.2 10.7.2 14.8 2 24.8 8.2 51.2 13.5 75.5l42.8 27.2 45.7 24.8Z" class="fill" data-original-prefix="fill"/><path id="fill-eyes5" fill="#ffffff" d="m796 1318 21.4-6.9 31.3 11.7c6.8 1.4 17.5-3.8 24-6.6 20.2-8.8 40.2-20.7 58.3-33.2 1 1.2-8.7 14.2-10.2 16.3-6.7 9.4-14.7 22.2-25.5 26.5-13 5.1-28.9 6.8-42.5 10l-56.7-17.8Z" class="fill" data-original-prefix="fill"/><path id="fill-eyes4" fill="#ffffff" d="M827.7 1121.2c14.4-3.3 20.3 16.6 10.2 24.2-15 11.4-25.7-20.7-10.2-24.2" class="fill" data-original-prefix="fill"/><path id="fill-eyes3" fill="#ffffff" d="M903.7 979.2c9.3-2.7 14.3 12.6 2.3 16.4-10.5 3.4-9.1-14.4-2.3-16.4" class="fill" data-original-prefix="fill"/><path id="fill-eyes2" fill="#ffffff" d="M765.7 1083.2c17.2-3.9 13.5 24.8-.2 24.9-13.5 0-10.5-22.4.2-24.9" class="fill" data-original-prefix="fill"/><path id="fill-eyes1" fill="#ffffff" d="M837.2 1025.8c-5.2-5.2 1.9-18 8.5-19.5 18.3-4.2.2 28.3-8.5 19.5" class="fill" data-original-prefix="fill"/></g><g id="shading-eyes" fill="#aaaaaa" opacity="0.5"><path id="shading-eyes4" fill="#aaaaaa" d="M1032.8 847.2c1 1.6-2.5 28.8-2.8 33.3-.8 13.9-1.5 28.1-2.1 42-1.9 48.1 2.5 106.7-17.5 151.5-4.6 10.3-15.2 13.9-18.9 21.1-1 1.9-8.8 30.8-8.6 32.4 6.3 10.9 30.1 24.7 30.1 38 0 7.2-3.9 19.1-2.9 25.7 1.2 7.7 14.5 17.6 14.8 26.8 1.8.4 2-.5 2.8-1.7 1.6-2 1.3-5.2 3.2-6.3 1.1 2.2 1.9 10.6 3 11.5s12.8 3.9 15.4 4.6c19 5 35.7 9.7 54.3 2 80.1-33.2 142.3-100.3 220.1-137.9l32.3.3c1.7 1 10.7 21.9 13.2 25.8 2.7 4.1 2.7 3 5.7 5.3 3.7 2.8-5.2 4.4-7.9 5.9-8.1 4.2-26.1 12.6-32.3 17.7-2.4 1.9-.9 4.2-2.2 5-26.2 9.2-58.4 13.2-83 25.8-28.6 14.6-61.3 41.2-85.8 62.2-1.7 1.4-2.3 3.7-4.6 5.4-9.7 7.5-49.7 20.5-54 26-.8 1-.5 3-1.7 3.5-3.1 1.4-7.1.6-10.3 0 3.1 7.5-1 9.4-7.9 8.5-11.1-10-24.3-17.7-35.5-27.5-7.8-6.8-14.2-15.6-22.1-21.9-2.6 1.4-6.5-.7-8.5.4-1.9 1-7.5 9.4-9.6 11.4-14.2 14-31.4 24.6-46.4 37.6-2 1.2-4-.1-6-.5l2-2c-3.2-.5-8.5.8-11.3-.2-1.4-.5-12.2-12.6-15.3-14.7-13.4-8.9-36.6-16.5-52-25-25.1-14-49.7-31.6-74.4-46.6-21.2-12.8-55.6-36.6-79.5-39.5-1.8-.2-18.8.7-19.8 1.1-1.3.4-1.4 1.2-1.6 2.4-.8 4.3-.3 16.1 0 21 1.4 23.2 7.2 47.7 10.2 70.8 1.8 4.5 25.6 17.9 31.1 20.9 16.5 9.1 28.4 13.3 45.9 19.1 11.7 3.9 24.4 11.9 36.1 16.9 10 4.3 20.2 7.6 30.2 11.8 16.9-6.2 34.2-14.2 50.1-22.8 8-4.3 17.2-11.6 24.8-15.2 1.2-.6 2.1-1.3 3.6-.9-1.1 4.8-2.9 13.6-6.6 16.8-6.2 5.3-26.3 13.5-34.7 17.3-9.1 4.1-31.9 15.2-40.4 16.6-3.3.5-4.7 0-7.8-.7-13.2-3.5-28-13.4-41.2-17.9-6.7 1-15.1 6.6-21.8 6.7-4.8 0-9.7-4.3-14.5-4.8-1.3-1.7 11.6-7 12.7-7.8 3.7-2.4-.7-2.2-3.1-3.4-17.8-8.6-36.5-19.1-53.2-29.9-6.8-4.4-19.8-11.2-22.2-18.8-6.1-19-5.8-44.3-7.3-64.2-16 3.2-11.8.8-13-10.5-.3-3.2-1.9-17.2-2.9-18.8-2.3-3.7-13.3-.4-13.9-.8-.8-.5-9.2-13-11.2-15.4-6.2-7.3-13.1-14-19-21.5 20.2-6 40-13.6 60.2-19.3 9.3-2.6 20.4-6.8 30-5.5 3.6.5 16.9 5.8 18.1 5.6 3.1-.6 2.9-7.6 7.1-6.9.9.2 3.4 9 12.8 6.8 6-1.4 7.5-8.4 6.7-13.8l3 1c.2-7.1 6.7-1.9 8.8 2.8 4.4 9.9.8 22.3-8.7 27.7l35.6 24.4c5.7-1.4-3.3-7.8 3-10.9 9.4 6.7 18.5 17.8 24.9 1 1-2.7-.5-7.7 4-8.1s6 10.1 6.1 13.7c.1 9.6-5.2 18.4-13.6 22.8 15.8 12.1 32.6 23 49.7 33.3 15.2 9.2 62.2 37.6 77.8 37.2 2.8 0 21.3-3.2 22.6-4.5 3.6-15.8 4.5-31.9 6.1-47.9.5-4.9 3.5-11.7 1.7-16.9-.6-1.8-5.4-3.2-7.3-4.7-14.2-10.7-24.7-25.3-37.5-36.5-12.3-10.8-30.2-21.7-44.1-30.9-33.6-22.3-76.2-51.3-113.7-65.3-18-6.8-41.6-11.4-58-22-1-.6-2.6-1.1-2.3-2.6 39-53.1 91.3-94.8 150.6-123.4 7.2-3.5 23.6-11.7 30.5-13.5 3.8-1 10.3-1.8 11.6 3 1.2 4.2-8.4 19.7-10.6 25-4.8 11.8-8.7 26.1-12.5 38.5-13.2 42.5-23 85.9-34.7 128.8l86.4 47.9c3.8-3.5 7.6-7.2 11.2-10.9 6-6.3 19.1-19.9 23.3-26.7 2.8-4.5 14.9-35 15.9-40.1 3.9-20 2.6-48.5 4.2-69.8 3.1-39.6 7-79.3 13-118.5 1-1 13.4 4.5 13.8 5.2ZM903 883c-3-3.1-33.5 26.8-36.5 30-13.2 14.3-27.8 33.4-37.9 50.1-3.9 6.4-16.7 29.1-16.5 35.3.3 10 5.2 20 11.4 27.7 1.7-4 1.6-10.7 7.8-8.8 3.1 1 2.8 5.6 9.8 3.4s5.2-14.7 12.5-14.6c2.2 0 4.5 7.2 4.6 9.5 0 4.3-2.7 13.5-4.7 17.5l-8.4 11.1c7.6 3.6 10.9-7.8 13-13.4 10.6-28.3 16.7-60.9 25.7-90.3 5.9-19.2 12.7-38.2 19.3-57.2Z" class="outline shading" data-original-prefix="shading" opacity="0.5" style="opacity: 0.5"/><path id="shading-eyes3" fill="#aaaaaa" d="M1321.7 1014.8c-3.2 3.3-24.9 8.2-31 10.5-58.4 21.7-107.8 43.1-157.2 81.8-26.5 20.8-39 37.7-57.8 65.2-5.9 8.6-8.7 19.6-19.8 23.7l3.9-30.6c11.1-14.1 19.5-39.6 30.5-52.5 6.8-7.9 40.9-26.1 51.9-32.1 18-10 47.2-21.5 62.6-32.4 7.7-5.4 25.6-28.8 28.4-37.6 4.7-15.1-1.1-24.6-8.1-37.5-16.5-30.1-47.7-69.7-76.3-88.7-14.2-9.5-30.9-15.1-42.9-27.6 32.3 6.5 63 20.9 91.3 37.2 40.6 23.4 80.3 55.9 109.1 92.9 3.2 4 16.5 20.7 16.6 24.3 0 .9-.6 2.7-1.2 3.3Z" class="outline shading" data-original-prefix="shading" opacity="0.5" style="opacity: 0.5"/><path id="shading-eyes2" fill="#aaaaaa" d="M893 985c4.5-1.1 2.6 3.5 6.2 5.3 7.3 3.5 11.1-5.2 8.8-11.2 6.8-1.6 9.4 7.7 8.7 13.2-1.2 9.4-11.3 20.6-21.1 14.6-8.6-5.3-2.9-14.2-2.6-21.9" class="outline shading" data-original-prefix="shading" opacity="0.5" style="opacity: 0.5"/><path id="shading-eyes1" fill="#aaaaaa" d="M1105 856c.7.3-.6 1.7-2 1-.7-.3.6-1.7 2-1" class="outline shading" data-original-prefix="shading" opacity="0.5" style="opacity: 0.5"/></g><g id="outline-eyes" fill="#000000"><path id="outline-eyes8" fill="#000000" d="M996 1254c-.3 1-.3 1.5-.9 2.5-1.9 3-22.7 21.6-26.3 23.7-4.6 2.8-12.5 5.7-17.6 3.8-8.3 13.2-14.7 29.4-23.3 42.2-7.2 10.7-13.3 12.1-25.6 14.4-12.7 2.4-34.5 6.9-46.7 7.3-13.1.5-51.2-16.9-66-22.1-33.5-11.8-67.6-22.2-100-37l-13.5-126c-9 .6-17.9 2.7-26.9 1.9-1.8-15.3-13.3-26.2-20.1-39.4-1-5.6 3.6-14.7 5.8-20.1 18.3-44.7 48.5-83.3 74.6-123.4 3.6-2.7 10.7 3.6 14.2 3.9 2.4.2 23.9-26.8 27.8-30.8 68.5-71.8 162.6-122.5 263-127 3.8-.2 21.5-.6 23.5.5 3.1 1.7 3.7 8.1 4.1 8.4.7.7 17.6.8 20.4 1.1 44.3 4 88.7 10.4 127.8 32.2 52.8 29.4 98.2 69.2 136.7 115.3 1.4 1.7 5.6 8.7 6 9 2.5 1.6 4.6-2.2 8-1.2 6.9 2.2 22 24.7 26.4 31.7 16.2 25.5 34.7 71.5 37.5 101.5.4 4.2.7 12.7-3.9 14.9-4.2 2-14.8 1-21 3-7.1 2.3-16 9.5-22.6 11.4-2.5.8-1.2-3.4-1.5-5-.7-4.8-3.5-13.8-1.5-18 .8-1.7 11.6-6.7 14.2-7.8 2.8-1.3 9.1-2.1 9.3-5.6-1.1-6-.9-11.1-2.9-17.1-2.7-8.4-9.1-21.6-13.2-29.8-2.7-5.4-24-44.7-26.5-45.5-1.7-.5-10.6-1.2-12.9-1.2-8.5 0-24.3 1.8-33 3.1-3.3.5-19.8 5.8-20.5 5s.2-2.5 1-3.4c1.5-1.7 7.4-5.7 9.6-7.4 8.7-6.3 18.9-11.6 28.3-16.7 2.1-2.2-1.8-10-3.2-12.9-12.3-27-67.2-72.8-92.9-89.1-39.3-24.7-117-56.6-163.4-52.6-9 .8-8.6 1.7-10.2 9.8-10.5 52.7-5.8 110-8.4 163.6-2.2 8.1-4.8 16.2-6.6 24.4-2 9.2-2.3 21.4-4.5 29.5-.8 2.7-33.2 34.3-38.8 41.2-2.7 3.5-9 8.9-5.4 12.3 7 6.6 18.9 12.6 26.4 19.6 5.5 5.1 6.4 7.2 6 15-1.3 22.1-7.6 46.6-10 69-.6 5.8.8 11.8-1 17.5Zm.7-181.3c1.7-2.2 16.9-49.5 17.3-53.2.7-6.5-.3-14.3 0-21 1.7-38.1 2.7-76.8 6-115 .8-9.3 4.3-23.5 4.1-32 0-1.1 0-2.3-1-3-6.1-4.3-47.8 1.2-57.2 2.8-5.6 1-28.1 5.4-31.2 8.8-2.2 2.4-10.4 23.9-12.3 28.7-21.1 53.7-37.4 110.5-54.3 165.6-2.1 4.4-4.3 7-8.5 9.4s-27.4 10-28.3 11.2c-.7.9.6 2.5 1.7 2.8 42.2 21.9 82.5 46.9 122.4 72.6 7.2 4.7 14 7.4 20.6 13.3.7.6 1.9 0 1.3 2.3-6.5-.3-12.2 2.4-18.7.2-7.8-2.6-25-14.7-33.6-19.4-34.9-19.1-69.9-37.9-104.6-57.4-1.8-.5-7.7-1.1-8.9-.3-.6.3-5.2 10.5-5.7 11.8-3.4 10.8-.7 39.1.5 51.5.5 5.2 2.8 27.3 5.3 30.2 32.1 20.2 63.8 41.2 97 59.4 7.2 4 39.1 21.7 45.1 20.9 1.2-.2 19.4-14.1 19.9-15.3 1.3-3.1 1.1-14.3 1.8-19.1 2.1-14.3 6.2-39.9 11.1-52.9 2.1-5.6 7.2-7.6 2.8-14.3-6.2-9.3-23.8-17.4-30.4-25.6-9-11.1 5.5-26.6 12.5-35.4 7.7-9.7 18.6-18.9 25.7-27.8Zm-277.4-56c3.8 3.2 9.2 6.4 13.6 8.9 26.3 15 55.3 27.3 81.8 42.3 11-.9 38-9.2 42.8-19.8 17.9-62.1 32.6-125.8 62.5-183.5-17.3 4.6-34.3 13.4-50 22-38.8 21.2-81.6 55-110.5 88.5-5.5 6.4-10.8 14-13.5 22 19.9 9.6 39.8 19.5 58.9 30.6l10.1 7.4c-33.3-6.7-65.4-18.5-97.7-28.8l-5.3.3c-13.2 25.4-27.6 50.3-39.8 76.2-4 8.4-14 27.4-15.7 35.4-1.5 7 5.3 14.7 5.5 22 17.5-5.6 37.5-15 56.2-10.7 8.9 2.1 17.1 7.9 25.5 11.5l49.3 29.2c-3.1-30.5-4-61.7-2.1-92.3-.3-1-13.6-8-15.9-9.2-15.9-8.5-37.3-16.1-51.7-25.3-7.5-4.7-10.6-9.6-10.4-18.7 0-2.1 1-8.5 2-10 2.1-3.3 3.1 1.1 4.4 2.2ZM800 1304l-45.7-24.8-42.8-27.2c-5.3-24.3-11.5-50.7-13.5-75.5-.3-4.2.8-11.5-.2-14.8-.9-3-7.2.4-9.8-.7 0 2.2 1 4.2 1 6.4 1.2 35.4 3.5 74.2 10 109 .8 4 6.8 7.9 10.3 9.7 19.6 10.1 45 15.8 65.5 24.6 8.4-.8 16.6-5.6 25.2-6.8Zm28-82c-7.7 33.2 25.2 64.8 57.3 45.8 3.4-2 13.9-10.2 9.1-13.7l-66.3-32.1Zm-32 96 56.7 17.8c13.6-3.2 29.5-4.9 42.5-10 10.8-4.3 18.9-17.1 25.5-26.5 1.5-2.1 11.2-15.1 10.2-16.3-18.1 12.5-38.1 24.4-58.3 33.2-6.4 2.8-17.1 8-24 6.6l-31.3-11.7-21.4 6.9Z" class="outline" data-original-prefix="outline"/><path id="outline-eyes7" fill="#000000" d="M1076 1274c5.7-.5 4.6-14.6 3.5-18-1.9-6.5-14.5-14.8-19.7-19.3-1-.8-2.5 0-1.9-2.6 19.9 5.8 42.2 16.9 63.4 14.9 44.1-4.3 65.6-34.1 99.3-57.7 29.2-20.4 60.3-33.7 94.6-43.4 9.1-2.6 18.3-5.3 27.8-5.7.1 5.4 1 10.7 2 16 .6 3.4 4.9 19.3 4.8 20.3-.3 1.8-11.4 16.7-9.8 18.7 1.5 1.8 2.2-1.4 2.6-1.9.6-.8 9.8-15.9 10.4-10.6 0 2.3.2 4.6 0 6.9-1.2 8.6-7.7 28.3-10.7 37.3-3.5 10.5-6.5 16.8-13.8 25.2-2.9 3.4-23.5 25.2-25.6 26.4-10.2 6.1-34.9 7.3-47.9 11.1-5.1 1.5-9.7 4.5-15 5.5-.2 1.9 3.2 1 4.2.8 4.8-1 9.2-3.8 14.3-4.7 2.9-.5 23.4-1.9 24.4-1.1 1.6 1.3-.4 1.8-1.3 2.2-8.7 4.7-22.8 11.2-32.1 14.9-19.8 8-77.1 10.8-97.9 6.6-8.7-1.8-19-14.3-26.9-20.1-4.3-3.2-13.7-10.2-18.4-11.6-4-1.1 1.1 9 .5 10-.8.7-14.1-1.6-15.9-2.6s-12.9-12-14.1-13.9c-1-1.6-.7-3.1-.9-3.5Z" class="outline" data-original-prefix="outline"/><path id="outline-eyes6" fill="#000000" d="M999 1253c9.1-14.2 22.5-28.8 19-47 6.2 2.2 8.8 2.2 15 0-2.1 7.1.6 14.6 3.2 21.3 4.2 10.6 11.3 17.3 15.8 27.7-3.3 0-4 4.3-7 4-.3-5.3-7.6-7.7-11.1-11.5-2.9-3.1-3.7-6-5.7-9.3-1-1.6-4-2.1-5.2-1.1-.4.3-3.3 7.1-5.2 9.3-3.9 4.6-10.9 7-12 12.5-1.2 1.1-6.2-4.5-7-6Z" class="outline" data-original-prefix="outline"/><path id="outline-eyes5" fill="#000000" d="M1203 1060c1.4 1.4-6.9 7.5-8.1 8.4-27 20.7-64.8 41.2-87.9 66.1-11.7 12.6-20.2 32.4-33.8 46.2-1 1-1 2.8-3.2 2.3-.6-.7 2.6-9.6 3.2-11.2 4.5-12.4 18.8-50.9 28.2-57.8 19.4-10.7 39.9-20 59.2-30.8 14-7.9 26.5-19 42.3-23.2Z" class="outline" data-original-prefix="outline"/><path id="outline-eyes4" fill="#000000" d="M826.7 1113.2c11.8-2.1 22.2 7.8 23.2 19.3 3 32.4-38 33.1-39 2.9-.3-9.1 6.4-20.5 15.8-22.2m1 8c-15.5 3.5-4.8 35.6 10.2 24.2 10.1-7.6 4.2-27.5-10.2-24.2" class="outline" data-original-prefix="outline"/><path id="outline-eyes3" fill="#000000" d="M913.7 1000.7c-14.5 14.5-30.6-9.6-16.7-24.2 15-15.8 31.6 9.3 16.7 24.2m-10-21.5c-6.8 2-8.2 19.7 2.3 16.4 12-3.8 7-19.1-2.3-16.4" class="outline" data-original-prefix="outline"/><path id="outline-eyes2" fill="#000000" d="M766.8 1074.2c23.1-1.8 26.3 37.8 4.5 41.6-29.5 5.1-28.1-39.7-4.5-41.6m-1.1 9c-10.8 2.4-13.8 24.9-.2 24.9 13.7 0 17.4-28.8.2-24.9" class="outline" data-original-prefix="outline"/><path id="outline-eyes1" fill="#000000" d="M843.7 996.2c12.7-2.7 21.8 5.3 18.2 18.2-2.2 7.8-9.2 17.9-17.7 19.3-30.4 5.2-17.2-34.1-.5-37.5m-6.5 29.6c8.7 8.7 26.8-23.7 8.5-19.5-6.6 1.5-13.7 14.3-8.5 19.5" class="outline" data-original-prefix="outline"/></g>
    </g><g class="trait-group" data-category="right ear" id="right ear-robo">
      <path id="fill-ear-rt1" fill="#ffffff" d="M1309.7 967.7c-21.5 15-73.7 1.5-73.8-28.2 0-17.4 19.3-64.4 26.3-82.8 15.6-40.9 37.9-99.1 62.5-134.5 12.2-17.5 47.1-40.3 66.9-49.1 25.2-11.2 58.3-12.1 85.4-10.1 0-1.7 0-3.4.4-5 29.2-103.4 66.2-199.3 108.1-297.9 10.4-24.5 17.8-43.7 36.4-63.6 26.6-28.2 58.4-54.6 87-81 5.1-4.7 9.5-10.2 15-14.5.4 36.3-3.9 72.5-9.2 108.3-21.8 147.8-72 298.3-146.9 427.1-112.2 41.1-191.9 136.1-258.2 231.3Z" class="fill" data-original-prefix="fill"/><path id="fill-ear-rt2" fill="#ffffff" d="M1288 747c-16.2 44.6-44.8 91.8-64.2 136.3-5.3 12.3-10.4 24.7-14.6 37.4-.2 2.1 4.6 10 6 12.5 5.6 9.8 12.7 20.5 19.8 29.2-8.1-3.9-16.8-7.8-24.3-12.7-3.9-2.5-12.8-9.1-15.7-12.3-4.7-5.3-17.9-31.7-21.5-39.5-1.1-2.4-2.8-5.2-3.3-7.8-.9-5.4 6.1-15.3 8.6-20.9 14.3-31.3 25.7-60.8 38.7-92.3 5.4-13.2 13.6-26 18.2-39.8 13.7-40.3 17-104.6 9.9-146.5-.9-5.6-4.2-13.5-4.3-18.5-.3-13.9 31.4-60.6 40.8-73.7 29.1-40.7 69.4-86.1 106.8-119.2 1.9-1.7 8.4-7.6 10.3-7.4q37.2 20.1 72 44.1c15.8 10.9 34.5 23.7 49.2 35.8 2.7 2.2 8.4 5.7 7.1 9-13 32.3-26.4 64.4-39.4 96.7-7.8 19.4-14.3 40.2-22.8 59.2-2.4 5.4-7.8 17.6-11.5 21.5-11 11.9-42.4 5.7-57.5 7.5-7 .8-39.4 25.6-47.8 31.2-9.3 6.3-20.9 11.6-29.2 18.8-11.1 9.6-18.8 27.5-25.3 40.7-1.2 2.5-2.7 8-4.1 9.7-.9 1.2-1.8.4-2.1.6 2.9-8 9.1-24-3.2-27.3-24.9-6.6-31.1 31.7-10.3 32.4 5.1.2 9.3-2.7 13.5-5Zm108.8-362.8c-16.1 1.3-18.6 20.6-6.3 29.8 13.7 10.2 34.5 3.9 28.7-15.7-2.3-8-14.4-14.7-22.4-14.1m-166.5 417.1c-.6.5-5.3 6-5.8 6.7-8.6 13.3 1.2 29.8 17.4 23.4 5.4-2.1 8.7-8.2 10.5-13.5 5.3-15.4-9.2-27.6-22.1-16.6m-32.6 72.9c-19.7 4.1-21.7 39.6 2.6 34.5 17.2-3.6 22.9-39.9-2.6-34.5" class="fill" data-original-prefix="fill"/><path id="fill-ear-rt3" fill="#ffffff" d="M1721 186c-31.9 28.2-64.8 55.6-96 84.5-20.5 18.9-33 29.2-44.4 55.5-16.7 38.2-28.6 79.6-45.5 118-1.5.4-1.7-.4-2.5-1-5.7-3.9-11.9-10-17.6-14.4-32.2-24.7-65.5-48.1-99.8-69.7l.8-3.5c16.1-12.9 31.8-26.3 48.2-38.8 39-29.7 81.9-61 126.2-81.8 42-19.7 86.2-35.6 130.7-48.8Zm-200.2 209.2c-4.4.3-8.9 3.1-11 7.1-8.3 15.9 17.4 32.4 26.2 21.2 9.4-11.9-.4-29.5-15.2-28.3" class="fill" data-original-prefix="fill"/><path id="fill-ear-rt-rivet5" fill="#ffffff" d="M1205.8 881.2c.3.4 1.9 6.6 1.9 7.4.3 11.2-17.1 14.3-14.6-1.1.8-5.2 9.9-9.8 12.7-6.3" class="fill" data-original-prefix="fill"/><path id="fill-ear-rt-rivet4" fill="#ffffff" d="M1235.7 805.2c13.9-2.8 12.2 15.8 1.7 16.8s-11.4-14.8-1.7-16.8" class="fill" data-original-prefix="fill"/><path id="fill-ear-rt-rivet3" fill="#ffffff" d="M1271.3 740.7c-6.9-5.6 4.4-18.6 11.3-13.8 7.7 5.4-4 19.7-11.3 13.8" class="fill" data-original-prefix="fill"/><path id="fill-ear-rt-rivet2" fill="#ffffff" d="M1398.7 396.2c10.5-3.1 16.5 14.9 2 11.6-6.3-1.5-8-9.8-2-11.6" class="fill" data-original-prefix="fill"/><path id="fill-ear-rt-rivet1" fill="#ffffff" d="M1529.7 415.7c-3.4 3.6-10.4 2.4-10.8-3.2-.8-12.8 17.9-4.2 10.8 3.2" class="fill" data-original-prefix="fill"/><path id="shading-ear-rt" fill="#aaaaaa" d="M1723.2 198.8c1.1.7 3.4 0 3.8.2 1 .9.2 23.2 0 26.5-3 78.4-22 167.1-43.5 242.5-27 94.6-62.5 187.2-112.8 271.8-109 38.4-182.4 127.3-248.3 217.2-6.9 9.3-10.1 16.1-22.2 18.8-16.7 3.7-51.9-3.1-68.2-9.2-8.7-3.3-32.8-19-39.1-26-4.2-4.7-24-40.7-25.5-46.5-.8-3.1-.6-6.3-.4-9.5 9.9-22.1 21.6-43.6 31.1-65.9 6.5-15.3 11.1-31.6 17.3-46.7 4.8-11.7 11.9-22.6 16.2-34.8 14.8-41.1 17.6-100.5 11.1-143.6-1.5-9.8-5.1-16.5-3.9-27.1.9-7.5 7.1-14.2 9-21.5l15 73c62-48.6 120.2-102.4 181.5-152 15.7-12.7 31.6-26.8 49.5-36l-1.5-3c-21.9-15.4-42.7-32.5-65.8-46.2-2.5-1.5-31.8-16.3-30.7-17.8 5.9-1.9 11.6-5.4 16.5-9 3.4-2.5 4.6-7.1 9.8-5.8 3.4.9 18.9 12.1 23.1 15 23.8 16.3 47.4 33.3 70.8 50.3 11.8.5 13.6-2.1 13.4-13.5 12.9-26.7 23-54.7 35.3-81.6 2.3-4.9 5.3-13.5 8.6-17.4 5.9-6.9 18.3-17 25.5-23.5 21.2-19 65.9-59.4 89.8-71.2 4-2 26.6-10.7 30-11.1 3.9-.4 3.4 3 4.5 3.6ZM1703 288c-.6-.8-7.1 4.7-8 5.5-23.5 20-52.6 47-73 70-15.3 17.2-21 36-28 57.5l101.1-74.4c3.3-19.4 6.6-39 7.9-58.5Zm-16 102c-.7-.8-10 6.2-11.3 7.2-33.3 23.5-66 47.9-98.2 72.8-6.6 18.3-12.6 37-16.4 56.1l113.7-77.3 12.3-58.7Zm-207.3 146.7c6.9-24.1 15-48 19.8-72.7l-233.4 175.2c2.2 17.2 3.6 34.5 1.9 51.8zM1634 535c-.7-.8-6.4 4.2-7.5 5-29.9 23.4-62.7 50.7-90.1 76.9-8.9 8.5-20.1 19.2-26 30-3.6 6.6-7.4 20-11.9 25.1-6.7 7.4-25.1 18.6-34 26-19.2 15.8-31.9 28.3-46.3 48.7-16 22.5-29.9 46.6-42.2 71.3l64.3-38.2 115.7-66.3c27.3-58.9 55.3-117.6 78-178.5m-357.3 190.2c-8.5 1.8-10.6 17-2.2 16.8 3.8 0 1.1-3.9 1.8-5 1-1.5 8.5-2.7 8.6-6.4 0-4-4.6-6.1-8.2-5.4m-12.8 16.9c-1.9-1.6-7.4 3-8.8 4.6l-18.8 51.1c-5.9 3.1-15 19.2-5.3 21.9 5.5 1.5 7.5-5.5 10.7-6.4 2.1-.6 4.5.2 6.6-.4 1.6-.5 2.3-2.8 4.2-2.8 3.3 0 6.4 8.5 8.5 7 5.3-16.9 14.6-32.2 20-49-15.5 3.6-14.1-23.4-17.1-26M1224 833c-1.7-1.8-1.7.7-2.1 1.4-3.7 7.3-13.8 39.5-18.6 42.4-3.4 2-12 2.6-11.3 9.7s10.4 3.4 13.5 3.6c2 .1 3.5 2 6 2 1.3 0 4.1-1.4 4.5-1.1 3.2 2.5 3.5 31.1 15.2 9.7l18.8-55.2c-2.7-.5-4.3 1.4-7.5 1.6-6.4.3-11.7-2.7-15.5-7.6-1.7-2.2-2.8-6.2-3-6.5" class="outline shading" data-original-prefix="shading" opacity="0.5" style="opacity: 0.5"/><path id="shading-ear-rt2" fill="#aaaaaa" d="M1384 405c2.6-.1 3.5 2.8 5.9 3.5 6.6 2.1 5.5-1.4 7.8-2.5 1.8-.9 7.7-3 9.9-3.8 1.5-.5 3.9.2 5.3-.7 2-1.3.8-9.2 6-4.1 10.2 10-1 33.1-14.4 32.5-10.8-.5-23.4-13.6-20.6-24.9Z" class="outline shading" data-original-prefix="shading" opacity="0.5" style="opacity: 0.5"/><path id="outline-ear-rt" fill="#000000" d="M1734.9 163.1c.9 5.1 2.3 10.3 3 15.5 6 47.5-.5 106.2-7 153.7-17.7 128.1-67.1 281.2-131.7 393.3-2.7 4.6-14.6 24-17.8 26.2-3 2.1-16.3 5.5-21.3 7.7-29.5 12.8-63.7 37.8-88.5 58.5-54.2 45.1-104.1 102.3-138.2 163.9-13 3.4-25.7 8.6-38.7 11.1-16.8-6.7-37.5-5.5-54.2-10.9-6.7-2.2-43.9-21.9-49.8-26.2-16.8-12.5-29.2-53.7-41.2-71.8-1.4-4.6.6-29.6 1.6-35.5 1.6-9.2 25.9-43.5 32.1-54.9 31-57 45.2-134.6 38.8-199.2-.6-6.2-6.4-29.9-5.8-32.8 1-5 11.8-23.5 15-29 22.3-39 50.6-76.1 80.3-109.7 100.4-113.9 223.3-215 374.1-251.9 6.5-1.6 46.4-10.5 49.3-8M1721 186c-44.5 13.2-88.6 29.1-130.7 48.8-44.4 20.8-87.2 52.1-126.2 81.8-16.4 12.5-32.1 25.9-48.2 38.8l-.8 3.5c34.3 21.6 67.6 45 99.8 69.7 5.7 4.4 11.9 10.5 17.6 14.4.8.6.9 1.4 2.5 1 16.9-38.3 28.9-79.7 45.5-118 11.5-26.4 24-36.6 44.4-55.5 31.3-28.9 64.1-56.3 96-84.5Zm-411.3 781.7c66.3-95.2 146-190.2 258.2-231.3 74.9-128.8 125.1-279.4 146.9-427.1 5.3-35.8 9.6-72.1 9.2-108.3-5.5 4.3-9.9 9.8-15 14.5-28.6 26.4-60.4 52.7-87 81-18.7 19.8-26 39.1-36.4 63.6-41.9 98.6-78.9 194.5-108.1 297.9-.5 1.7-.5 3.3-.4 5-27.1-2-60.2-1.1-85.4 10.1-19.7 8.8-54.7 31.7-66.9 49.1-24.6 35.4-46.9 93.6-62.5 134.5-7 18.3-26.4 65.3-26.3 82.8.1 29.7 52.3 43.2 73.8 28.2ZM1288 747c-4.2 2.4-8.4 5.2-13.5 5-20.8-.7-14.6-39 10.3-32.4 12.3 3.3 6.1 19.3 3.2 27.3.3-.2 1.2.5 2.1-.6 1.4-1.8 2.8-7.3 4.1-9.7 6.5-13.2 14.2-31.1 25.3-40.7 8.3-7.2 20-12.5 29.2-18.8 8.4-5.7 40.7-30.4 47.8-31.2 15.1-1.8 46.5 4.4 57.5-7.5 3.6-3.9 9.1-16.2 11.5-21.5 8.5-19 15-39.8 22.8-59.2 13-32.3 26.4-64.4 39.4-96.7 1.2-3.3-4.5-6.8-7.1-9-14.7-12.2-33.3-25-49.2-35.8q-34.8-24-72-44.1c-1.9-.3-8.3 5.6-10.3 7.4-37.4 33.1-77.7 78.5-106.8 119.2-9.4 13.1-41.1 59.8-40.8 73.7 0 4.9 3.4 12.8 4.3 18.5 7 41.8 3.8 106.1-9.9 146.5-4.7 13.8-12.8 26.5-18.2 39.8-13 31.6-24.4 61-38.7 92.3-2.5 5.6-9.5 15.5-8.6 20.9.4 2.5 2.2 5.4 3.3 7.8 3.6 7.8 16.8 34.2 21.5 39.5 2.9 3.2 11.8 9.8 15.7 12.3 7.5 4.9 16.2 8.8 24.3 12.7-7.1-8.7-14.2-19.4-19.8-29.2-1.5-2.6-6.2-10.4-6-12.5 4.2-12.7 9.3-25.2 14.6-37.4 19.4-44.6 48-91.7 64.2-136.3Zm-16.7-6.3c7.3 5.9 18.9-8.3 11.3-13.8-6.9-4.9-18.2 8.2-11.3 13.8" class="outline" data-original-prefix="outline"/><path id="outline-ear-rt4" fill="#000000" d="M1197.7 874.2c25.5-5.3 19.7 30.9 2.6 34.5-24.2 5.1-22.3-30.4-2.6-34.5m8.1 7c-2.8-3.5-11.9 1.1-12.7 6.3-2.4 15.4 14.9 12.3 14.6 1.1 0-.9-1.6-7-1.9-7.4" class="outline" data-original-prefix="outline"/><path id="outline-ear-rt3" fill="#000000" d="M1230.3 801.3c12.9-11 27.5 1.3 22.1 16.6-1.8 5.3-5.1 11.4-10.5 13.5-16.3 6.3-26.1-10.2-17.4-23.4.5-.7 5.2-6.2 5.8-6.7m5.4 3.9c-9.7 2-8.4 17.8 1.7 16.8s12.2-19.6-1.7-16.8" class="outline" data-original-prefix="outline"/><path id="outline-ear-rt2" fill="#000000" d="M1396.8 384.2c8-.6 20.1 6.1 22.4 14.1 5.8 19.6-15 25.9-28.7 15.7-12.3-9.2-9.8-28.5 6.3-29.8m1.9 12c-6 1.8-4.3 10.1 2 11.6 14.5 3.3 8.5-14.7-2-11.6" class="outline" data-original-prefix="outline"/><path id="outline-ear-rt1" fill="#000000" d="M1520.8 395.2c14.8-1.1 24.7 16.4 15.2 28.3-8.9 11.2-34.5-5.3-26.2-21.2 2.1-4 6.6-6.8 11-7.1m8.9 20.5c7.1-7.5-11.7-16-10.8-3.2.4 5.6 7.4 6.8 10.8 3.2" class="outline" data-original-prefix="outline"/>
    </g><g class="trait-group" data-category="left ear" id="left ear-robo">
      <path id="fill-ear-lft3" fill="#ffffff" d="M570 663c30.7-2.3 65-.8 92.7 13.8 19 10.1 47.5 28.1 59.5 45.5 28.1 40.4 54.9 112.1 71.8 159.2 4.9 13.7 18.7 48.9 16.7 61.8-4.1 27-52.7 38.8-73.5 24.5-66.3-95.2-146-190.2-258.2-231.3-74.9-128.8-125.1-279.4-146.9-427.1-5.3-35.8-9.6-72.1-9.2-108.3 5.5 4.3 9.9 9.8 15 14.5 28.6 26.4 60.4 52.7 87 81 18.7 19.8 26 39.1 36.4 63.6 41.9 98.6 78.9 194.5 108.1 297.9.5 1.7.5 3.3.5 5h.1Z" class="fill" data-original-prefix="fill"/><path id="fill-ear-lft2" fill="#ffffff" d="M647.7 372.1c1.9-.3 8.3 5.6 10.3 7.4 37.4 33.1 77.7 78.5 106.8 119.2 9.4 13.1 41.1 59.8 40.8 73.7 0 4.9-3.4 12.8-4.3 18.5-7 41.8-3.8 106.1 10 146.5 4.7 13.8 12.8 26.5 18.2 39.8s9.4 27.5 15 41c9.9 23.6 22 46.3 32.6 69.5 0 3.7-1.8 6.7-3.2 9.9-3.6 7.7-17.2 34.9-21.9 40.1-2.9 3.2-11.8 9.8-15.7 12.3-7.4 4.8-16.4 8.3-23.8 13.2l25.1-40c.9-3.2-6.4-20.6-8.1-25-17.9-44.5-42.2-92.2-63.6-135.4-9.3-18.7-24.7-55.8-39.9-68.1-6.9-5.6-16-9.6-23.4-14.6-16.3-11-32.1-22.8-48.8-33.2-15.6-3.3-49.2 4.2-60.7-8.3-3.6-3.9-9.1-16.2-11.5-21.5-8.5-19-15-39.8-22.8-59.2-13.1-32.5-26.6-64.9-39.6-97.5-.3-2.7 5-6.3 7.4-8.2 14.7-12.2 33.3-25 49.2-35.8q34.8-24 72-44.1v-.2Zm.1 12.1c-7.6.4-18.4 7-20.3 14.7-4.1 16 9.4 23.2 23.2 18.2 19.3-7 17.5-34-2.9-33Zm115.9 335c-14.2 2.4-10.1 26.4 1.3 31.3 26.3 11.2 27-36-1.3-31.3m53 82.1c-12.9-11-27.5 1.3-22.1 16.6 1.8 5.3 5 11.4 10.5 13.5 16.3 6.3 26.1-10.2 17.4-23.4-.5-.7-5.2-6.2-5.8-6.7m24 72.9c-11.1 2.3-9.9 16.7-5.9 24.5 5.3 10.3 20.4 15.4 27.7 4.2 8.6-13.2-6.5-31.9-21.7-28.7Z" class="fill" data-original-prefix="fill"/><path id="fill-ear-lft1" fill="#ffffff" d="M631.9 358.9c-34.3 21.6-67.6 45-99.8 69.7-5.7 4.4-11.9 10.5-17.6 14.4-.8.6-1 1.4-2.5 1-16.9-38.3-28.9-79.7-45.5-118-11.5-26.4-24-36.6-44.5-55.5-31.3-28.9-64.1-56.3-96-84.5 44.5 13.2 88.6 29.1 130.7 48.8 63.3 29.7 119.8 77.5 174.4 120.6zm-108.1 36.3c-25.4 2-19.5 44.4 6.1 28.2 14.1-8.9 10.3-29.5-6.1-28.2" class="fill" data-original-prefix="fill"/><path id="fill-ear-lft-rivet5" fill="#ffffff" d="M841.2 881.2c2.8-3.5 11.9 1.1 12.7 6.3 2.4 15.4-14.9 12.3-14.6 1.1 0-.9 1.6-7 1.9-7.4" class="fill" data-original-prefix="fill"/><path id="fill-ear-lft-rivet4" fill="#ffffff" d="M807.8 805.2c7.9-1.2 13.7 8.2 8.1 14.2-9.1 9.7-23.6-11.9-8.1-14.2" class="fill" data-original-prefix="fill"/><path id="fill-ear-lft-rivet3" fill="#ffffff" d="M775.7 740.7c-7.3 5.9-18.9-8.3-11.3-13.8 6.9-4.9 18.2 8.2 11.3 13.8" class="fill" data-original-prefix="fill"/><path id="fill-ear-lft-rivet2" fill="#ffffff" d="M642.7 396.2c9.6-2.9 13 8.7 4.3 11.3-13.4 4.1-9.8-9.7-4.3-11.3" class="fill" data-original-prefix="fill"/><path id="fill-ear-lft-rivet1" fill="#ffffff" d="M526.8 407.2c5.3 5.4-3.2 15.1-9.5 8.5-5.2-5.4 4.6-13.4 9.5-8.5" class="fill" data-original-prefix="fill"/><path id="shading-ear-lft" fill="#aaaaaa" d="M520.2 411.8c1 1 10.3 2.4 11.7 1.8 2.9-1.2 11.2-8.9 14.8-11.3 20.7-14.6 42.5-30.6 63.6-44.4 3.4-2.2 14.8-10.5 18-9.6 1.7.5 3.9 4 5.8 5.3 5.6 3.8 11.8 7.1 17.9 10.1-9.7 6.7-20.6 11.3-30.7 17.3-23.1 13.7-44.1 30.5-65.8 46.2-1 1-2.2 1.3-1 3 .5.8 9.5 5.2 11.4 6.6 9.3 6.3 18.7 14.4 27.6 21.4 64.9 51.8 125.8 108.5 191 160l13.5-72c3.7 4.8 9.3 14.3 10 20.5 1.2 10.6-2.4 17.3-3.9 27.1-6.6 44.4-3.3 107.4 13.4 149.3 4 10 9.9 19.2 14 29 6.2 15.1 10.8 31.3 17.3 46.7 9.6 22.6 21.7 44.1 31.2 66.8 0 2.9.2 5.7-.5 8.6-1.1 4.1-19.5 39.4-22.5 43.5s-11.6 10.9-16.1 13.9c-18.5 12.7-39.4 20.8-61.7 24.3-11.4 1.8-33.6 2.8-43.2-4.3-68.4-94.4-146-191.3-259.8-231.7-53.4-90.2-90.6-189.4-118-290.5-16.9-62.3-30.7-130.3-36.3-194.7-.6-6.8-4.1-53.6-2-55.5.3-.3 2.7.4 3.8-.2 1.3-.8.3-4.3 5.5-3.6 11.1 4.8 23.9 7.5 34.3 13.8 39.3 23.7 76 63.2 111.5 92.5l43.5 98.5c1.2 3.1-.6 9.5 1.7 11.8zm-166.9-64.1L454 420.5c-6.8-18-11-35.7-23-51-10.7-13.6-27.7-29.3-40.5-41.5-14.6-14-30.3-27-45-41-2.3-.4-1.4.8-1.2 2.2.2 2.2.6 4.8.9 7.1.9 6.8 6.2 48.9 8.1 51.4M361 390c3.9 19.7 7.5 39.7 12.5 58.9l113 77c-2.7-19-10-37.1-15.5-55.5-34.8-25.8-69.6-54.4-105.7-78.3-1.4-.9-2.5-2.5-4.3-2.2Zm419 301c-.6-8.2-1.3-16.3-1-24.5.2-6.2 4-24.3.6-28.5L548 464.1c5.7 24.5 12.9 48.7 20.3 72.7L780 691.1ZM414 535c22.5 61 50.5 119.7 78 178.5 59.4 35.6 120.6 68 179.5 104.5-14.2-28.7-30.4-57.6-50.1-82.9-10.8-13.8-24.4-25.9-37.9-37.1-8.9-7.3-27.4-18.5-34-26-5.7-6.3-9.6-21.7-15-30s-14.7-17.2-21.9-24.1c-27.7-26.8-60.8-53.8-91-78-1-.8-6.8-5.8-7.5-5Zm363 200c1.9-8.4-16.8-13.8-13.8-3.7 1.6 5.5 9.5 4.8 13.8 3.7m35.4 63.6c-8.4-13-12-37.6-19.6-51.9-12-12-9.5 1.3-11.8 9.7-1 3.6-4.2 8.7-7.6 10.4-2.6 1.3-8 .4-7.4 2.6l21 47.5c2.2 1.6 5-7.5 9.4-7 .6 0 .6 1.7 1.2 2 3.6 2.1 6.7-.4 8.3.4 2.4 1.2 6 10.7 12.4 6.5 9-6-3.4-16.2-6-20.3ZM826 833c-2.6-.5-1.5.5-2.1 1.4-6.3 10.5-13.2 16-25.9 10.6-1.3 1.5 7.8 21.9 9 25.5 2.5 7.1 8.9 32.3 12.9 36.1 8.8 8.3 9.2-13.4 12.1-15.5.5-.3 3.1 1 4.5 1 2.5 0 4.1-1.9 6-2 2.3-.2 4 1.4 6.1 1.7 1 0 3-1 3.3-.7.3.2.4 6.1 2.5 7 6.4-5.2 2.9-15.9-3.8-19.2-1.9-.9-4.3-.8-6.1-1.9-5.3-3.4-15.3-36.3-18.6-43.9Z" class="outline shading" data-original-prefix="shading" opacity="0.5" style="opacity: 0.5"/><path id="shading-ear-lft2" fill="#aaaaaa" d="M637.6 400.4c.2.1.4 1.1 1.2 1.5 9.2 4.4 15.6 1.7 25.2 3.1 3.5 11.4-13.5 27.2-24 24.5-9.5-2.4-16.7-15.4-14.8-24.8.2-1.1 3.1-6.8 3.8-7.3 2.2-1.4 6.5 1.9 8.6 3" class="outline shading" data-original-prefix="shading" opacity="0.5" style="opacity: 0.5"/><path id="outline-ear-lft" fill="#000000" d="M312.1 163.1c3-2.5 42.9 6.4 49.3 8C512.1 208 635.1 309.1 735.5 423c29.7 33.6 58 70.7 80.3 109.7 3.2 5.6 14 24 15 29 .6 2.9-5.2 26.5-5.8 32.8-6.3 64.6 7.8 142.2 38.8 199.2 6.2 11.4 30.5 45.7 32.1 54.9 1 5.9 3 30.9 1.6 35.5-12 18.1-24.5 59.3-41.2 71.8-5.8 4.3-43.1 24.1-49.8 26.2-16.7 5.4-37.4 4.2-54.2 10.9-13-2.5-25.8-7.7-38.7-11.1-2.9-1.9-3.6-6.4-5.5-9.5-43.9-76.1-140-177.5-221.2-212.8-5-2.2-18.4-5.6-21.3-7.7-3.2-2.2-15.1-21.6-17.8-26.2-64.6-112.1-114-265.2-131.7-393.3-6.6-47.5-13-106.2-7-153.7.7-5.2 2.1-10.4 3-15.5Zm319.8 195.8-.8-3.5c-54.6-43.1-111.1-90.9-174.4-120.6-42-19.7-86.2-35.6-130.7-48.8 31.9 28.2 64.8 55.6 96 84.5 20.5 18.9 33 29.2 44.5 55.5 16.7 38.2 28.6 79.6 45.5 118 1.5.4 1.7-.4 2.5-1 5.7-3.9 11.9-10 17.6-14.4 32.2-24.7 65.5-48.1 99.8-69.7M570 663c0-1.7 0-3.4-.5-5-29.2-103.4-66.1-199.3-108.1-297.9-10.4-24.5-17.8-43.7-36.4-63.6-26.6-28.2-58.4-54.6-87-81-5.1-4.7-9.5-10.2-15-14.5-.4 36.3 3.9 72.5 9.2 108.3 21.8 147.8 72 298.3 146.9 427.1 112.2 41.1 192 136.1 258.2 231.3 20.8 14.3 69.4 2.5 73.5-24.5 2-12.9-11.8-48.1-16.7-61.8-16.9-47.1-43.7-118.8-71.8-159.2-12.1-17.4-40.6-35.4-59.5-45.5-27.6-14.6-62-16.1-92.7-13.8h-.1Zm77.7-290.9q-37.2 20.1-72 44.1c-15.8 10.9-34.5 23.7-49.2 35.8-2.3 1.9-7.7 5.5-7.4 8.2 13 32.6 26.5 65 39.6 97.5 7.8 19.4 14.3 40.2 22.8 59.2 2.4 5.4 7.8 17.6 11.5 21.5 11.5 12.4 45.2 5 60.7 8.3 16.7 10.5 32.4 22.3 48.8 33.2 7.4 5 16.5 9 23.4 14.6 15.2 12.3 30.7 49.4 39.9 68.1 21.5 43.2 45.7 90.8 63.6 135.4 1.8 4.4 9 21.7 8.1 25l-25.1 40c7.5-4.8 16.5-8.3 23.8-13.2 3.9-2.5 12.8-9.1 15.7-12.3 4.7-5.2 18.3-32.4 21.9-40.1 1.5-3.2 3.2-6.2 3.2-9.9-10.6-23.3-22.7-45.9-32.6-69.5-5.6-13.5-9.6-27.7-15-41s-13.6-26-18.2-39.8c-13.7-40.3-17-104.6-10-146.5.9-5.6 4.2-13.5 4.3-18.5.3-13.9-31.5-60.6-40.8-73.7-29.1-40.7-69.4-86.1-106.8-119.2-2-1.7-8.4-7.6-10.3-7.4v.2Z" class="outline" data-original-prefix="outline"/><path id="outline-ear-lft5" fill="#000000" d="M840.7 874.2c15.3-3.2 30.3 15.5 21.7 28.7-7.3 11.2-22.3 6.1-27.7-4.2-4-7.8-5.2-22.2 5.9-24.5Zm.5 7c-.3.4-1.9 6.6-1.9 7.4-.3 11.2 17.1 14.3 14.6-1.1-.8-5.2-9.9-9.8-12.7-6.3" class="outline" data-original-prefix="outline"/><path id="outline-ear-lft4" fill="#000000" d="M816.7 801.3c.6.5 5.3 6 5.8 6.7 8.6 13.3-1.2 29.8-17.4 23.4-5.5-2.1-8.7-8.2-10.5-13.5-5.3-15.4 9.2-27.6 22.1-16.6m-8.9 3.9c-15.5 2.3-1 23.9 8.1 14.2 5.6-6-.2-15.3-8.1-14.2" class="outline" data-original-prefix="outline"/><path id="outline-ear-lft3" fill="#000000" d="M763.7 719.2c28.2-4.8 27.6 42.5 1.3 31.3-11.3-4.8-15.4-28.8-1.3-31.3m12 21.5c6.9-5.6-4.4-18.6-11.3-13.8-7.7 5.4 4 19.7 11.3 13.8" class="outline" data-original-prefix="outline"/><path id="outline-ear-lft2" fill="#000000" d="M647.8 384.2c20.4-1.1 22.2 26 2.9 33-13.9 5-27.3-2.3-23.2-18.2 2-7.7 12.7-14.3 20.3-14.7Zm-5.1 12c-5.4 1.6-9.1 15.5 4.3 11.3 8.6-2.6 5.3-14.2-4.3-11.3" class="outline" data-original-prefix="outline"/><path id="outline-ear-lft1" fill="#000000" d="M523.8 395.2c16.4-1.3 20.2 19.3 6.1 28.2-25.6 16.2-31.5-26.2-6.1-28.2m3 12c-4.8-4.9-14.7 3.1-9.5 8.5 6.3 6.6 14.8-3.1 9.5-8.5" class="outline" data-original-prefix="outline"/>
    </g><g class="trait-group" data-category="head" id="head-rocker-hat">
      <path id="fill-head" fill="#ffffff" d="M1479 1181c-1.4 1.6 9 18 10.5 21 3.6 7 12.4 22.2 14 29 .7 3 .5 6 .5 9-2.7 0-5.4.5-8-.5-4.8-1.9-21.6-15.1-26.9-19.1-7.9-5.9-23.4-21.4-31.2-24.8-1.3-.6-2.5-.7-3.9-.5 8.3 32.3 19.6 64.1 31 95.5 21.7 60.1 41 115.2 78.2 167.8 5.9 8.3 16.7 17 15.8 27.7-8.5.9-16.7-3.7-24.4-7.1-9.6-4.3-19.7-11.1-28.9-15.1-1.2-.5-2.3-1.1-3.7-.8 8.1 21.2 19.5 39.8 22.9 62.6 3 20.1 2.8 40.7 4.1 60.9 2.7 39.8 5.6 79.6 6 119.5l-7.1-.6c-10.9-25.4-21.8-50.9-34-75.7-11.6-23.7-23.7-48.3-39.9-69.1l-21-23.5 5 54.4c1.7 44.5-1.8 66.9-18.6 107.5-16.6 40-38.3 82.9-58.9 121.1-1.4 2.5-9.6 17.9-10.5 18.5-1.8 1.1-4.9.3-7 .5-.6-17.2 1.2-34.3 1.1-51.6-.3-45.6-3.2-92.7-12.5-137.5l-3.5-11c-3 27.8-7.2 55.7-13.5 83-6.6 28.7-12 43.5-30.1 66.9-13.3 17.2-36.3 42.3-52.9 56.1-3.1 2.6-21.7 15.8-24.4 16.6-2.3.7-4.7.5-7.1.5-1.8-1.8 5.1-37.9 5.9-43.7 4-30.8 8.8-86.1-4.7-114-1.6-3.4-4.5-7.2-6.7-10.3-3.6 20.9-5.7 37.6-17.1 55.9-23.8 38.1-64.8 67.2-99.8 94.2l-7.6.9c-.2-16.6 3-33-3.6-48.9l-42.9-46.1-42.3 46.7c-6 15.8-3.1 31.8-3.2 48.3h-3.5c-4.4-.2-17-10.3-21.4-13.6-28.8-21.5-78-63.5-90.8-97.2-4.8-12.7-5.9-27-8.2-40.3-2.6 2.3-5.3 6.6-6.8 9.7-13.9 27.9-9 83.7-5 114.7.7 5.7 7.7 41.9 5.9 43.7-3.2.3-5.4 0-8.3-1.2-20.7-8.8-61.6-53.3-76-71.9-18.1-23.3-23.5-38.2-30.1-66.9-6.3-27.3-10.5-55.2-13.5-83l-3.5 11c-9.3 44.7-12.2 91.8-12.5 137.5 0 17.2 1.6 34.3 1 51.6-2.5-.2-5.5.8-7.5-1-19.2-36.6-39.1-73.1-56.3-110.7-12.5-27.3-29.4-62.8-31.2-92.8-1.9-32.1 1.9-65.7 5-97.5l-21 23.5c-16.2 20.8-28.3 45.4-39.9 69.1-12.2 24.8-23.2 50.3-34 75.7l-7.1.6 2-67.5c4.5-37 2.6-76.2 8.1-112.9 3.4-22.8 14.8-41.4 22.9-62.6-1.4-.3-2.5.2-3.7.8-9.3 4-19.3 10.8-28.9 15.1-7.7 3.4-15.8 8-24.4 7.1 0-2.1-.3-4.2.2-6.3 1-4.2 27.3-37.9 32.2-45.8 28.4-45.5 48.6-106.4 66.6-157.4 9.5-26.8 19.1-53.9 26-81.5-2.2-.4-3.4.4-5.2 1.3-9.1 4.9-20.6 17-29.4 23.6-4.8 3.6-25.9 19.2-30 20-1.7.3-3.7 0-5.5 0-.9-5.8.8-9.6 2.8-14.7 3.4-8.5 9.3-19 13.7-27.3 1.3-2.5 9.9-15.4 8.5-17-46-14.2-91.3-31.7-134.4-53.2-37.6-18.7-78.1-46.9-112-72-19.6-14.6-40.6-31.4-47-56-2.5-9.7.1-7.9 2.1-15.5s.4-12.5 7.7-19.3c26-24.1 118-17.8 153-17 57.1 1.4 112.8 4.5 170 1 7.6-.5 18.8-.7 26-2 2.5-.5 3.7-2.3 4.5-4.5 2.4-6.9 4.5-40.2 6.2-42.2 6.3-.6 11.4-4.5 16.8-6.7 4.7-1.8 13.5-1.7 15.7-7.3 18.1-80 40.5-159.4 69.9-236l40.3-28.9c6.6.8 12.9 2.9 19.5 3.6 24 2.5 52.3 2.1 77 3 115.7 4.6 228.4 3.6 344.1-3 4.3-.2 8.6.3 12.9 0s15-3.9 17.2-3.8c2.4 0 36.3 24.3 39.5 27.4 5.3 5.3 14.2 33 17.2 41.8 22.3 63.7 39.5 130.3 55 196 2.6 5.8 11.5 5.6 16.5 7.5 4.8 1.9 10.6 5.4 15.7 7.3 4.2 12.7 2.4 29.1 6.6 41.4.6 1.8 1.2 3 2.9 4 23.7 2.9 47.6 2.8 71.5 3.5 69.6 1.9 139.3-6.2 209-3 20.9 1 70.6 5.5 77 30 .7 2.6 0 5 .7 7.3 1.1 4.6 3.4 6.2 2.8 12.2-3.5 33.5-53.4 62.1-78.3 79.7-19.6 13.8-38.6 28.7-59.7 40.3-48.9 26.6-103.2 47.4-156.2 64.2Zm-733 45-3 .7c-18.6 25.8-37.7 51.7-53.1 79.7-6.8 12.4-18.1 33-20.6 46.4-3 16.2 3.2 50 6 67.5 2.1 13 6.3 25.7 6.7 38.8 7.3.6 4-.3 5.2-4.3 1.2-3.7 6.9-4.7 10.2-3.8 1.4.4 3.5 23.2 3.7 26.5.5 10.3-2.2 32 1.9 40.1.9 1.8 8.7 12 10.1 12.9 4.2 2.8 12.3 1.1 17.4 1.6 10.9 1.1 18.6 10.9 22.7 20.3 5.9 13.7 6.9 27.6 10.3 41.7 4.2 17.6 17.4 30 28 44l24 20.9c2.3-12.7.5-25.4 4-38 1.4-5 2.3-9.1 8.9-6.8 1.3.4 5.5 13.1 7.8 16.2 6.7 9.1 19.9 9.7 29.5 13.5 15.9 6.3 14.1 30.9 26.3 41.7 10.3 9.1 43.9 25.3 57.5 30.5 14.8 5.7 59.6 19.6 74.1 20 9.2.2 35.5-7.4 45.7-10.3 23.7-6.8 68.1-23.8 86.7-39.3 10.8-9 12.4-32.7 22.2-39.8 7.9-5.8 24.2-6.6 31.4-12.6 5.6-4.6 8.7-19.3 9.6-19.9.6-.4 7-.4 7.7 0 1.6 1 4.9 17.4 5.2 20.3.6 7-1.1 15.3 1 22 .3 1.1-.7 1.8 1.5 1.4 14.9-11.8 28.5-25 39.3-40.7 14.7-21.3 11-34.1 18.5-56.5 3.3-9.8 11.1-25.3 21.9-28.1 5.7-1.5 17.4.3 21.8-2.2.8-.4 10.2-12.7 10.5-13.5.8-2.4 1.4-13 1.6-16.4.7-14.5-1.2-32.7 2.2-46.8.9-3.8 4.4-3.6 8-2.5 5.4 1.6-.9 10.2 7.7 7.8.4-13.1 4.6-25.8 6.7-38.8 2.8-17.1 8.9-50.7 6.2-66.6-2.7-15.6-16.6-40.1-24.7-54.3-14.6-25.7-32.5-49.4-49.7-73.3-4.1-1.3-2.2 5.4-2.5 8.5-2.7 28.2-7 60.9-21.5 85.5-3.1 5.2-3.4 6.9-10.5 6-.2-28-.2-59.8-13.1-85.4-1.2-2.4-2.2-4.8-5.4-4.7-43.7 8-87.7 14.9-132 19.1-65.3 6.2-125.7 6.2-191 0-44.6-4.2-88.9-11.3-133-19-2.7.4-3.7 3.1-4.7 5.3-12.5 26.3-13.3 56-12.8 84.7-6.4.6-6.8.2-9.8-4.7-12.7-20.4-16.9-45.4-20.1-68.9-1.2-8.7-2.2-17.6-2.2-26.4" class="fill" data-original-prefix="fill"/><path id="fill-head1" fill="#ffffff" d="M1479 1181c-1.4 1.6 9 18 10.5 21 3.6 7 12.4 22.2 14 29 .7 3 .5 6 .5 9-2.7 0-5.4.5-8-.5-4.8-1.9-21.6-15.1-26.9-19.1-7.9-5.9-23.4-21.4-31.2-24.8-1.3-.6-2.5-.7-3.9-.5 8.3 32.3 19.6 64.1 31 95.5 21.7 60.1 41 115.2 78.2 167.8 5.9 8.3 16.7 17 15.8 27.7-8.5.9-16.7-3.7-24.4-7.1-9.6-4.3-19.7-11.1-28.9-15.1-1.2-.5-2.3-1.1-3.7-.8 8.1 21.2 19.5 39.8 22.9 62.6 3 20.1 2.8 40.7 4.1 60.9 2.7 39.8 5.6 79.6 6 119.5l-7.1-.6c-10.9-25.4-21.8-50.9-34-75.7-11.6-23.7-23.7-48.3-39.9-69.1l-21-23.5 5 54.4c1.7 44.5-1.8 66.9-18.6 107.5-16.6 40-38.3 82.9-58.9 121.1-1.4 2.5-9.6 17.9-10.5 18.5-1.8 1.1-4.9.3-7 .5-.6-17.2 1.2-34.3 1.1-51.6-.3-45.6-3.2-92.7-12.5-137.5l-3.5-11c-3 27.8-7.2 55.7-13.5 83-6.6 28.7-12 43.5-30.1 66.9-13.3 17.2-36.3 42.3-52.9 56.1-3.1 2.6-21.7 15.8-24.4 16.6-2.3.7-4.7.5-7.1.5-1.8-1.8 5.1-37.9 5.9-43.7 4-30.8 8.8-86.1-4.7-114-1.6-3.4-4.5-7.2-6.7-10.3-3.6 20.9-5.7 37.6-17.1 55.9-23.8 38.1-64.8 67.2-99.8 94.2l-7.6.9c-.2-16.6 3-33-3.6-48.9l-42.9-46.1-42.3 46.7c-6 15.8-3.1 31.8-3.2 48.3h-3.5c-4.4-.2-17-10.3-21.4-13.6-28.8-21.5-78-63.5-90.8-97.2-4.8-12.7-5.9-27-8.2-40.3-2.6 2.3-5.3 6.6-6.8 9.7-13.9 27.9-9 83.7-5 114.7.7 5.7 7.7 41.9 5.9 43.7-3.2.3-5.4 0-8.3-1.2-20.7-8.8-61.6-53.3-76-71.9-18.1-23.3-23.5-38.2-30.1-66.9-6.3-27.3-10.5-55.2-13.5-83l-3.5 11c-9.3 44.7-12.2 91.8-12.5 137.5 0 17.2 1.6 34.3 1 51.6-2.5-.2-5.5.8-7.5-1-19.2-36.6-39.1-73.1-56.3-110.7-12.5-27.3-29.4-62.8-31.2-92.8-1.9-32.1 1.9-65.7 5-97.5l-21 23.5c-16.2 20.8-28.3 45.4-39.9 69.1-12.2 24.8-23.2 50.3-34 75.7l-7.1.6 2-67.5c4.5-37 2.6-76.2 8.1-112.9 3.4-22.8 14.8-41.4 22.9-62.6-1.4-.3-2.5.2-3.7.8-9.3 4-19.3 10.8-28.9 15.1-7.7 3.4-15.8 8-24.4 7.1 0-2.1-.3-4.2.2-6.3 1-4.2 27.3-37.9 32.2-45.8 28.4-45.5 48.6-106.4 66.6-157.4 9.5-26.8 19.1-53.9 26-81.5-2.2-.4-3.4.4-5.2 1.3-9.1 4.9-20.6 17-29.4 23.6-4.8 3.6-25.9 19.2-30 20-1.7.3-3.7 0-5.5 0-.9-5.8.8-9.6 2.8-14.7 3.4-8.5 9.3-19 13.7-27.3 1.3-2.5 9.9-15.4 8.5-17-14.1-4.3-28.1-9-42.1-14 0 0 278.3 95.7 511.9 83.4 209.5-11 348.6-47.2 438.2-76.1l1.7 6.4zm-733 45-3 .7c-18.6 25.8-37.7 51.7-53.1 79.7-6.8 12.4-18.1 33-20.6 46.4-3 16.2 3.2 50 6 67.5 2.1 13 6.3 25.7 6.7 38.8 7.3.6 4-.3 5.2-4.3 1.2-3.7 6.9-4.7 10.2-3.8 1.4.4 3.5 23.2 3.7 26.5.5 10.3-2.2 32 1.9 40.1.9 1.8 8.7 12 10.1 12.9 4.2 2.8 12.3 1.1 17.4 1.6 10.9 1.1 18.6 10.9 22.7 20.3 5.9 13.7 6.9 27.6 10.3 41.7 4.2 17.6 17.4 30 28 44l24 20.9c2.3-12.7.5-25.4 4-38 1.4-5 2.3-9.1 8.9-6.8 1.3.4 5.5 13.1 7.8 16.2 6.7 9.1 19.9 9.7 29.5 13.5 15.9 6.3 14.1 30.9 26.3 41.7 10.3 9.1 43.9 25.3 57.5 30.5 14.8 5.7 59.6 19.6 74.1 20 9.2.2 35.5-7.4 45.7-10.3 23.7-6.8 68.1-23.8 86.7-39.3 10.8-9 12.4-32.7 22.2-39.8 7.9-5.8 24.2-6.6 31.4-12.6 5.6-4.6 8.7-19.3 9.6-19.9.6-.4 7-.4 7.7 0 1.6 1 4.9 17.4 5.2 20.3.6 7-1.1 15.3 1 22 .3 1.1-.7 1.8 1.5 1.4 14.9-11.8 28.5-25 39.3-40.7 14.7-21.3 11-34.1 18.5-56.5 3.3-9.8 11.1-25.3 21.9-28.1 5.7-1.5 17.4.3 21.8-2.2.8-.4 10.2-12.7 10.5-13.5.8-2.4 1.4-13 1.6-16.4.7-14.5-1.2-32.7 2.2-46.8.9-3.8 4.4-3.6 8-2.5 5.4 1.6-.9 10.2 7.7 7.8.4-13.1 4.6-25.8 6.7-38.8 2.8-17.1 8.9-50.7 6.2-66.6-2.7-15.6-16.6-40.1-24.7-54.3-14.6-25.7-32.5-49.4-49.7-73.3-4.1-1.3-2.2 5.4-2.5 8.5-2.7 28.2-7 60.9-21.5 85.5-3.1 5.2-3.4 6.9-10.5 6-.2-28-.2-59.8-13.1-85.4-1.2-2.4-2.2-4.8-5.4-4.7-43.7 8-87.7 14.9-132 19.1-65.3 6.2-125.7 6.2-191 0-44.6-4.2-88.9-11.3-133-19-2.7.4-3.7 3.1-4.7 5.3-12.5 26.3-13.3 56-12.8 84.7-6.4.6-6.8.2-9.8-4.7-12.7-20.4-16.9-45.4-20.1-68.9-1.2-8.7-2.2-17.6-2.2-26.4" class="fill" data-original-prefix="fill"/><path id="fill-head2" fill="#ffffff" d="M669.8 911.2c.4.3.8 2 1.7 2.8 195.8 157.6 494.8 165.6 694 9 2.7-2.2 12.2-11.6 14.1-11.9 2.6-.5 10-.8 11.3 1.7 1 2 3 15.8 3.2 18.8.5 7.3 1 23.1 0 30-.8 5.6-16.6 19.2-21.6 23.4-174 150.2-512.5 150.2-690 6-5.2-4.2-26.4-22.2-28-27-1.4-4.1-1.7-14.8-1.6-19.5 0-7.2 1.6-23.7 3.7-30.3.4-1.2.6-2.6 2-3 1.1-.5 10.3-.5 11.1 0Z" class="fill" data-original-prefix="fill"/><g id="shading-head" class="shading" fill="#aaaaaa" style="opacity: 0.5" opacity="0.5"><path id="shading-head2" fill="#aaaaaa" d="M637 1445.5c1.1-8.1 8.5-17.7 11-25.5 4 0 4.1 4.9 5.8 7.7 4.8 7.8 9.9 12.1 18.2 16.3-5.9-22.3-18.5-43.1-12.2-66.8 7.6-28.7 40.8-82.9 57.1-109.9 1.7-2.8 4.9-9.1 7.1-10.9 3.4-2.8 8.8-3.8 6.3 2.3-15 32.1-41.3 65.1-52.7 98.3-2.7 7.8-.5 13.2-1.6 20.4-.5 3.1-2.6 6.1-2.9 10.1-.8 8.9 2.8 14.3 3.9 22.1 1.5 10.3 1.2 29.7 5.3 38.7 3.6 7.9 14.6-4.1 17.5 4.5 2 5.8 1.7 18.7 2.4 25.6 1.1 11.2 2.1 22.7 4 33 1.6 8.5 1.4 14.3 10.5 18.5 11.2 5.2 18.5.9 27.8 13.2 18.3 24.2 16.6 60.8 40.1 86.9 9.4 10.5 18.4 14.6 28.5 22.5.9.7 1.5 2.4 2.5.5 3.2-5.8-2.6-9.3-2.6-12.5 0-4.9 4.7-3.8 5.1-5.2.5-1.5 1.2-8.1 1-9.8-.3-3.6-2.7-5.3-2-9.9.3-2.1 6.3-11.9 8.4-11.5 6.6 7.9 10.3 20.2 17.6 27.5 9.3 9.4 24.5 10.9 34 22 8.7 10.2 12.7 29.8 22.7 36.3 17.1 11.2 40.1 18.7 57.3 30.7 6.2 1.7 12.3 3.8 18.6 5.4 10.4 2.8 38.7 11 47.9 11.2 8.6.2 39.6-8.6 49.7-11.4 17.1-4.6 38.6-11 54.5-18.5 4.8-2.3 19.6-9.9 23.3-12.7 4.9-3.7 12.4-23 15.3-29.7.9-2.1.7-4.4 1.6-6.4 7.4-16.6 33.6-12 43.4-29.6 2.1-3.9 8.5-24 11.3-24.7 2-.5 8.2 9.5 8.5 11.6.7 5.3-3.3 9.3-3.8 13.1 0 .7.6 7 .8 7.2.5.5 6.5-1.2 7 3.6.5 5.6-5.2 5.2-5.9 7.1-1.2 3.3.2 8.9.4 12.4 2.4-2.7 7.1-9.4 9.9-11.1 2.7-1.6 4.9-1.1 8.5-3.5 14-9.7 31.8-33.1 38.1-48.9 6.4-16 9.5-48.2 23-58 10.2-7.3 27.8-3.6 31.7-18.3.8-3.1.8-11.6 1.7-13.3 1.6-2.7 6.8-.5 7.5-4.5 2.6-13.2-7.2-34.2-2-48 3.2-8.4 14.4.8 17.4-4.6 4-7 4.4-30.4 5.7-39.3 1-7 4.4-13.6 3.9-21.1-.3-3.9-2.5-7.6-2.9-11.1-.9-7.3 1-12.7-1.6-20.4-11.4-33.2-37.7-66.2-52.7-98.3-2.5-5.9 2.7-5.2 6.2-2.2 1.5 1.3 3.2 4.7 4.5 6.5 11 16.3 23.1 39.6 32.8 57.2 8 14.7 27.3 48.9 28.8 64.2 1.9 19.4-9.1 41.8-15 60 5.7-2.2 12.9-7.6 16.4-12.6 1.3-1.8 5.9-13.9 8.6-11.9 1.2.8 11 24.2 11 26.5v23.5c14.9-10.9 38.1-38.8 39.9-57.6.6-6-2.1-11.6-.4-17.4 3.2 2.3 6.2 10.2 8.9 12.1 2.5 1.8 7.1-.3 6.6 4.4-.3 3.1-3.8 3-4.1 4.2-2.1 9-1.5 22.2-3.1 31.7-2.7 16.3-23.5 39.8-34.4 52.6-5.2 6.1-27.4 32-32.8 34.2-1.9.8-4.9.4-5.6.9-1.1.7-5.6 20.3-7.9 24.6-1.7 3.2-16.1 19.8-18.6 19.3-6.7-10.7-9.9-25.2-17.7-35.3-.6-.8-1.6-2.6-2.8-1.7-1.4 1-6.3 28.9-7.8 33.8-6.5 21.8-18.9 35.7-33.8 52.2-13.8 15.4-28.9 29.8-43 45-2.3.4-1.4-1-1.5-2.5-.2-3.4.6-7.2-.5-10.5-8.5 9.2-18.2 17.4-29.5 23l-1-34c-12.9 3.3-25.6 7.8-37.7 13.3l-13.8 30.7c-44.8 26.2-96.8 40.5-146 57-40.7-13.1-84.2-25.8-123.1-43.8-4.7-2.2-20.6-9.5-23.4-12.6-4-4.5-8.3-21-12.4-27.6-1.2-1.9-1.7-3-3.6-4.4-3.3-2.5-29-11.5-33.7-12.4-.7 0-1.5-.4-2.2-.2.3 1.2-1 2.9-1 3.5v30.5c-11-5.3-19.9-13.7-29.5-21-1.1 2.5-.3 5.8-.5 8.5 0 1.5.8 2.9-1.5 2.5-10.4-10.6-20.9-21.1-31-32-16-17.2-34.8-35.6-43.2-57.8-5-13.3-7-27.4-10.3-41.2-1.7-1.6-7.4 8.9-8.2 10.3-4.8 8.6-7.4 18.2-12.4 26.7-3.3.7-17.7-17.5-19.6-21.3s-7-21.8-8-22.5c-.7-.5-3-.2-4.5-1-6.8-3.5-27.5-27-33.8-34.2-7.1-8.1-14.3-16.6-20.9-25.1-3.1-4.1-16.5-21.2-17.4-24.6-1.5-5.6 2.1-5.6 2.8-8.8.5-2.8.2-8.9 0-12 0-2.5-.6-12.2-1-13.8s-5.4-1.7-3.9-6c.3-1 14-12.4 15.9-14.7.9 5.5-1.2 11.1-.9 16.3 1 16.9 22.3 42.1 33.9 54.2 1.6 1.6 3.6 4.4 6 4.5.5-7.7-1.3-17.1-.3-24.5z" class="outline shading" data-original-prefix="shading" opacity="0.5" style="opacity: 0.5"/><path id="shading-head3" fill="#aaaaaa" d="M614 1535c.5 10.4 2.5 20.9 4.3 31.2 1.1 6.2 3.9 13.8 4.6 19.4 1.6 12.3.3 28.2 1.1 40.9 1.7 26.6 4.8 40.2 15.8 64.2 13.7 29.6 32.5 56.5 49.2 84.3 1.5 0 1.4-3.5 1.7-4.8 3.3-17.3 5.2-34.7 8.8-52.2 2.4-11.6 5.5-30 9.4-40.6.4-1 .6-3 2.1-1.4.4.4 2.3 9.5 3 11.5 7.6 22 18.3 41.3 28.3 62.2 23.2 18.4 47.5 35.6 73.4 50.1l2.3.2c3.4-28.8 8.9-57.8 19-85 6.7 2 11.3 7.2 18.6 7.9 1.5.2 3.7-1.2 4.2-.8 1.1.7 9.8 12.9 12.1 15.4 9.7 10.5 22.5 22.3 33.5 31.4 18.8 15.6 39.6 28.5 61.2 39.9 1.6.2 1.9-1.1 2.5-2.2 4.2-7.6 5.9-18.8 10.3-26.7l38-18-12.1 15.9c-7 2.1-4.2 3.1-6.6 7.4s-8.3 8.1-10.2 12.8c-6.5 16.2-.6 40.8.3 57.8-7.8-2.3-15.4-5-22.5-9-15.9-9-35.8-24.2-50.4-35.6-14.2-11.1-44.2-34.5-53.1-48.9-4-6.5-4.4-17-12-21.5-4.3 11.9 2.6 22.2 3.9 32.6 2.8 22 2.4 46.2 5.2 68.8 1.8 14 3.6 27.5 8.9 40.6-.9.8-17.4-7.4-19.9-8.6-10.3-5.3-29.1-13.9-37.6-20.4-11.6-8.8-25.7-24.2-36-35-17.3-18.1-33.9-37.1-48.9-57.1-9.5-3.9-9.3 2.5-10.4 9.7-4.5 29.6-4.1 60.6-6.6 90.4-31-36.4-55-78.2-75.9-121.1-17.9-36.8-41.5-90.5-40.7-131.4 0-3.8 2.5-8.3 0-11.9-1.8-2.6-7.6-2.4-9.4.5-22.8 36.4-40 75.9-60.4 113.6-3 5.6-8.4 16.1-12.3 20.7-.9 1-1 2.1-2.8 1.7l-3.5-157c1.3-2.7 5.9-2.6 8.1-1.1 1.5 1.1 5.3 14.2 5.5 16.6.4 4.6-1.5 10.5-1.1 16 .5 7.6 4.2 16.3 8.2 22.8.8 1.2 3.1 5.8 4.8 4.7 13.1-21.8 27-43.7 43-63.5 7.5-9.3 27.9-32.3 38-37 1.2-.4 1.9-.6 3.1-.4" class="outline shading" data-original-prefix="shading" opacity="0.5" style="opacity: 0.5"/><path id="shading-head4" fill="#aaaaaa" d="M677 912c-3.2 6.4-5.8 13-7.5 20-1.3 5.5-5 23.3-2.5 27.6 42.6 45.2 97.7 78.8 151.4 109.6 3.8 2.2 18.4 8.8 20.2 10.8 6.1 6.5-4.5 6.9-8.5 3.1 0 2.8.8 5.4-2.5 6-21 3.9-70.7-17.8-91.2-26.8-42.4-18.7-83.9-40.2-121.1-67.9-86.6-15.8-174.3-25-261.2-38.8l-9-2.5 30.5-2c57.7-2.3 115.4.9 173.1 0 14.1-.2 32.2-2.9 46-2.1 7.4.4 42.7 13.5 44.4 12 2.2-15.7 5.6-55.5 19.1-65.4 5.2-3.8 16.8-3.4 19.5-9.5 12.4-55.8 28.7-110.6 47.5-164.5 6.9-19.8 15.6-49.3 24.8-67.2 4.8-9.2 18.1-16.9 26.2-23.3.4 4.7-.6 9.2-1.7 13.8-6.4 26-20.2 56-28.5 82.5-14.8 46.8-33.9 107.8-37.6 156.4-.2 2.2-.5 4.2.4 6.3s14.2 13.7 17 16c30.4 25 73.7 46.2 109.8 62.2 59.9 26.6 123.9 41.5 185.8 62.2 2.3 2.7.2 4.7-2.7 5.3-97.8-5.5-193-33.1-276.3-84.3-12.8-7.9-36.2-26.8-48.3-31.7-6.1-2.4-12.8-.3-17.1-7.9Z" class="outline shading" data-original-prefix="shading" opacity="0.5" style="opacity: 0.5"/><path id="shading-head5" fill="#aaaaaa" d="M1409.1 961c1.9 1.3 37.1-11.6 44.4-12 13.8-.8 31.8 1.9 46 2.1 63.7.9 127.5-3 191 1l12.5 2c-89.6 14.6-180.1 24-269.5 40.1-45.6 32.2-97.1 59.5-149.3 79.7-14.4 5.6-34.8 13.3-50 15-5.8.6-18.7 2.8-16.2-5.7-4.7 3.1-13.4 5.2-8.5-3.1 60.6-34.3 123.5-69.2 171.6-120.4 2.2-3.8-1.2-20.6-2.4-25.7-1.8-8.1-4.3-14.4-7.7-21.8-4.5 7.4-10.6 5.6-16.7 7.8-10.1 3.7-34.4 22.9-45.4 29.6-84.7 52.2-179.5 80.8-279.3 86.3-2.9-.6-5-2.6-2.7-5.3 61.8-20.8 125.9-35.7 185.8-62.2 34.6-15.3 75.5-35.5 105.2-58.8 3.8-3 20.2-16.3 21.6-19.4s-1.9-19.5-2.6-24.3c-7.4-49.5-22.2-99.8-37.6-147.4-7.2-22.2-16.9-44.5-23.6-66.5-2.1-6.7-4.3-13.6-3.7-20.8 6.9 5.9 21.2 14.2 25.5 22 8.2 15 16.4 43.3 22.5 60.5 20 56.5 37.3 114 50.5 172.5 2.8 6.3 14.8 5.6 20 10 5.6 4.7 11.2 21.8 13 29 2.9 11.6 3.5 23.8 5.6 35.8" class="outline shading" data-original-prefix="shading" opacity="0.5" style="opacity: 0.5"/><path id="shading-head6" fill="#aaaaaa" d="M1582 1500c-16.8-.8-32-7.1-46.7-14.8-17.8-9.3-36.1-21.2-48.3-37.2 11.8 4.1 23.8 7.7 35.5 12 10.1 3.7 40.6 13.8 46.5 20.5 3 3.4 9.7 12.2 12.1 15.9.7 1.3 1.2 2 .9 3.6" class="outline shading" data-original-prefix="shading" opacity="0.5" style="opacity: 0.5"/><path id="shading-head7" fill="#aaaaaa" d="m560 1448-14.3 18.7c-1.7 1.7-21.4 17.2-22.7 17.8-2.6 1.2-5.6 0-8.3.7-7.7 1.8-17 7.9-25.5 10.5s-17.4 3.9-26.2 4.8c6.3-5 9.9-13.1 15-19 6.9-7.9 35.5-17.2 46.7-21.3s23.8-7.5 35.3-12.2" class="outline shading" data-original-prefix="shading" opacity="0.5" style="opacity: 0.5"/><path id="shading-head8" fill="#aaaaaa" d="M1518 1636c1.5 1.2 4.5-4.7 5.4-6.1 4.7-7.5 7.6-15.4 7.7-24.4 0-4.5-1.6-8.5-1.1-13.1.2-1.9 2.7-12.2 3.3-13.7 2-4.6 8.1-5.6 10.5-1.1-.2 20.9-.2 41.9-.8 62.8-.7 23.4-.7 47.7-2 71-.2 3-1.4 15.8-2.6 17.4-.9 1.2-1.2 1.3-2.5.6-1.1-.6-8.9-14.4-10.1-16.9-11.5-21.7-21.6-44.1-33.3-65.7-7.6-14.1-17.6-34.8-26.7-47.3-2.4-3.4-5.6-5.2-9.8-3.2s-1 10.5-.9 14c1.3 60.2-55.3 160.1-87.2 211.8-8.7 14.1-18.9 26.8-29.3 39.7-2.3-30.1-2-60.5-6.6-90.4-1.1-7.2-.9-13.6-10.4-9.7-15 20-31.6 39-48.9 57.1-10.3 10.8-24.4 26.1-36 35-8.5 6.5-27.3 15.1-37.6 20.4-2.5 1.3-19 9.4-19.9 8.6 5.3-13.1 7.1-26.7 8.9-40.6 2.9-22.8 2.3-47.8 5.2-69.8.7-5.5 4.4-11.9 4.9-18.1.4-4.8-.8-8.8-1-13.5-2.3-.6-1.7.5-2.3 1.3-5.4 6.9-5.9 14.2-9.7 20.2-9.1 14.6-38.7 37.7-53.1 48.9-14.6 11.4-34.5 26.6-50.4 35.6-7.1 4-14.7 6.7-22.5 9 .9-17 6.7-41.6.3-57.8-1.9-4.8-7.9-8.6-10.2-12.8s.4-5.4-6.6-7.4l-12.1-15.9 38.3 18.2c3.5 7.7 5.5 16.9 9.1 24.4.6 1.3 1.6 4.5 3.5 4.2 21.8-11.8 43.1-24.9 62.1-40.9 9.5-8.1 21-18.4 29.6-27.4 2.7-2.8 13.6-17.2 15-18.1.9-.5 3.7.6 6 .2 6.3-1.1 11-5.9 17-7.6 9.8 25.7 14.2 53.1 18.3 80.2.2 1.4.2 5.4 2.2 4.8 12.7-7 25.2-14.6 37.2-22.8 7.5-5.1 32.3-21.9 37-27.5 2.3-2.8 4.2-10.7 6.1-14.4 3.7-7 7.9-13.3 11.3-20.7 5.2-11.3 9.8-23.6 12.8-35.7 1.3-.3 1.1 1 1.5 2 4 11.3 5.7 23.5 9 35l13.5 66c4.8-9.3 13.1-17.3 18.2-26.3 10.1-17.9 20.8-43.7 29-63 9.3-21.9 15.6-35.6 16.8-60.2 1.1-22.9.7-38.3 4.7-61.3 2.1-12 4.1-24.1 5.3-36.2 1.2-1.4 18.3 12.8 20 14.5 25.4 24.1 45.1 57.3 63.9 86.7" class="outline shading" data-original-prefix="shading" opacity="0.5" style="opacity: 0.5"/><g><path d="M745 1257v.1-.2Z" class="fill" fill="#ffffff"/><path d="M1756.5 964.7c-8.2-4.6-6.2 5.1-8.2 11.2-17.3 52-123.5 116.4-171.4 141.5-88.9 46.6-187.8 65.6-285.8 84.2-109.9 20.8-220.5 41.8-332.7 31.3-72.5-6.7-146.2-20.4-217.7-34.3-122.9-23.9-220.4-46.5-327.3-114.7-42.3-26.9-102-67-116-117-.3-1.1-1.2-4.2-2.8-3.8-8.1 1.9-18 16.4-16.5 24.1.3 1.4 1.9 4.8 2.6 6.4 27.1 60.8 131.8 125.4 191.5 151.5 38.1 16.6 89.8 36.8 88.5 43.2-1.5 7.2-3.9 13.8-7.3 20.3-1.7 3.2-1.9 6.3-1 9.1-5.4 6.3-9 13.4-8.4 22.3 1.8 0 3.8.3 5.5 0 3-.5 21.1-13.3 24.9-16.1 5.6-4.1 11-8.5 16.3-13 5.5 2.2 11.1 4.2 16.7 6.1l-23.3 73c1.5-.2 1.8-1.9 2.5-3 6.8-11.4 19.7-37.2 23.5-49.5 1.8-5.8 3.1-11.9 4.3-18.2 19.3 6.2 39 11 58.8 15.2 34.1 7.1 68.5 13.1 102.7 19.6-6 11.7-10.9 23.8-11.9 36.9-1.4 1.7-6.3-7.7-6.8-8.7-4.2-8.1-6-18.2-12.1-25.2v15.2c0 13.9 19.5 53 28.6 64.4.9 1.1 6.2 8.5 7.4 7.1.8-26.8-.4-54 6.3-80.2 2.4-9.7 6.4-18.5 9.7-27.8 121.8 24.6 245.9 29.6 369.3 13.9 28.1-3.6 55.9-9.1 84-12.9 10 18.3 13.7 39.1 15.7 59.6l1.5 47.5c19.6-22.3 35.1-54 35.5-84-2-.4-2.4.9-3.2 2.3-3.7 6.2-5.2 16.7-8.6 23.4l-6.2 10.3c-1.1-14.1-5.7-27.1-11.8-39.5 52.5-9.7 104.4-22.4 155.4-38.1 1.6-.3 3.3-.6 4.9-.9 1.8 8.9 3.4 17.4 4 19.5 3.7 12.3 17.1 38.6 23.9 50.1.6 1.1 1 2.8 2.5 3l-23.7-74.1q7.2-1.8 14.1-4.5c.8-.3 1.5-.6 2.3-.9 5.5 4.5 11 9.1 16.7 13.3 4.1 3.1 18.9 14.3 22.3 15.7 2.6 1 5.3.5 8 .5.9-17.8-14.4-28.2-26.7-39.3 2.8-1.3 5.7-2.4 8.7-3.4 6.2-1.9 10.1-8.3 8.4-14.8-.9-3.2-3.2-5.9-6.2-7.5 27.6-8.3 55.6-16.5 81.8-27.6 61.6-25.9 160-86.1 192.6-145.4 1.8-3.2 7.6-13.5 7.6-16.5.3-6.3-7.9-17.6-13.4-20.7Z" class="fill" fill="#ffffff"/></g></g><path id="outline-head" fill="#000000" d="M769 677s.3 1.7 1 2.5c17.5 18.9 34.3 38.4 55.1 53.9 21.8 16.2 36 13.4 61.4 16.6 44.2 5.5 87.2 10.4 132 11 47.6.7 95.6-5.1 143-11 37.1-4.7 43.8-1.1 73.5-26.5 16.3-13.9 30.9-30 44.5-46.5 2.1-.4 1.4.8 1.8 2.2 2.1 6.9 2.2 14.3 3.7 21.3-11.7 14.4-25.8 27.8-40 40-15.1 13-18.4 15.3-38.2 19.8-106.9 24.5-246.6 23.5-354 2.4-8.3-1.6-24.4-4-31.5-7.5-4.3-2.1-13.2-10.2-17.3-13.7-14.2-12.1-28-25.6-40.5-39.5-.9-2 1.9-19.1 2.8-22.2.3-1 .8-4.4 2.7-2.8" class="outline" data-original-prefix="outline"/><path id="outline-head1" fill="#000000" d="M1780.4 984c-10-35.3-43.3-36.3-75-39-79.7-6.9-162.9 1.6-243-3l-45.4-3c-1.5-9-2.6-18.3-4.3-27.2-1.2-6.2-2-16.8-7.8-20.2-1.7-1-8.9-4.3-10.9-5.1-5.2-1.9-10.8-2.4-15.8-4.7-12.4-56.8-29.1-112.5-48.4-167.2-7-20.2-15.6-48.7-24.8-67.2-1.7-3.5-3-4.7-5.7-7.3-4-3.9-30.8-25.5-34.4-26.6-8.3-2.5-14.4 1.3-21.7 2.4-89.5 13.5-181.5 12.9-271.8 11.1-56.3-1.1-112-2.6-167.8-11.2-8-1.2-13.8-5.4-22.8-1.3-4.4 2-35.7 27.6-37.7 31.3-29.3 77-56.3 155.3-73.4 236.1-5 2.3-10.6 2.8-15.8 4.7-1.6.6-2.8 2-4.3 2.7-8.1 3.7-9.9 2-12.6 12.4-3 11.7-3.7 25.4-6.1 37.4-21.5 1.9-43 2.3-64.5 3-78.2 2.3-166.7-5.2-242.9 5.1-20.7 2.8-41.5 5.2-51.5 25.5-16.7 34 9 57.4 32.8 78.9 45.2 40.7 109.1 79.1 165.1 102.9 25.3 10.7 51.9 18.2 78 26.5.3.5-.9 3.1-2.4 6-7.6 12.4-11.9 23.3-18.9 39.4-6.7 14.7-13.1 29.6-18.8 44.7-6.8 16.9-12.7 33-11.4 34.5 1.9.4 2.4-1.1 3.5-2 6.6-5.4 12.5-13.2 19-19 17-14.9 39-32.1 57-46 2.3-1.8 8.2-7.4 8.4-3.5-5.8 18.8-11.9 37.6-18.5 56.1-.5 1.3-1 2.6-1.4 3.8-6.3 17.6-13.2 35.2-20.6 52.8-12.9 30.4-27.3 60.1-43.7 88.8-7.5 12.9-16 27.5-24.4 39.6s-17 22.5-29.8 30.2h2.1c-.8.6-1.7 1.1-2.6 1.7 25.7.4 50.6-6.2 73.6-17.3-4.7 9-11.2 17.2-14.9 26.8-.2.6-.4 1.1-.6 1.7l-.3.5c-8.2 26.1-4.2 54.3-3.8 81.2.6 36.5 1.8 72.7 3 109 .5 15.2.3 30.4 1 45.5l85-153c-4.1 30.1 5.9 59.5 16.3 87.2 24.8 66.5 61.2 132.7 107.7 186.3l2 .5v-1.8c1.2 0 .6-1.3.7-2.6 1.5-21.2 0-43.3 2-65 .9-10.9 2.8-21.6 4-32.5l1.3-8.2c10.4 16.5 24.1 31.6 37.5 46 12.4 13.2 39.4 42.9 53.5 51.5 13.4 8.2 34.1 17.6 48.7 24.3 3.2 1.5 12.1 6 14.8 6.2 1.6 0 1.8.2 1.4-1.4v-.5h.2c1.5 0-5-14.1-5.5-15.5-8.7-24.4-11.1-57.8-13-84-.6-8.3-.9-16.8-1-25.1 15.6 19.1 35.1 34.7 54.5 49.7 23.9 18.5 49.6 39.4 79.4 46.6v-1.9h.4c.7-17-3.9-34-2.6-51.2 1.3-7.5 4.3-14.5 10.6-20.5l22.5-25.5c7.5 10.8 17.8 20.1 25.5 30.5 13.2 17.9 5 41.5 4 61.9 0 2-1 6.7 1.5 6.6 4.3-.2 15.5-5.2 19.9-7.2 19.7-8.9 41.3-26.1 58.5-39.5 19.6-15.2 39.4-31 55.1-50.4-1.6 27.8-3 56.8-7.1 84.4-.2 1.4-.4 2.9-.7 4.3-1.3 6.5-2.9 12.7-4.8 18.4-2.7 6.5-6.1 13.2-7.3 18.5-.4 1.6 0 1.5 1.4 1.4 2.7-.2 11.7-4.7 14.8-6.2 14.3-6.5 43.9-19.8 55.1-28.9 25.3-20.6 48.5-51.1 71.5-74.5l14-18.5c1 14.6 3.8 29 5 43.5 1.8 21.3.5 43.2 2 64 0 1.5-.8 2.9 1.5 2.5 27-30.1 49-63.3 68-99 14.9-27.8 29.2-58.2 40.2-87.8 5.9-15.8 11.7-32.2 14.8-49 2.4-12.1 3.5-24.3 2.3-36.7l84.1 151.4v-2.5l.4.8c.8-17.1.5-34.3 1-51.5 1.1-36 2.4-71.9 3-108 .4-24.6 4.6-53.1-4.2-76.7-3.6-9.3-9.9-17.4-14.5-26.2 22.5 10.7 47 17.1 72.2 16.7-.9-.5-1.7-1.1-2.6-1.7h3.1c-12.8-7.7-21.3-18.1-29.8-30.2-8.6-12.1-17-26.6-24.4-39.6-36.6-63.8-63.3-132.7-84.7-203.1 1.3 0 2.2.9 3.3 1.6 21 13.6 40.8 36.8 62.6 50.4l22.5 21.5-.6-1.8c.2.2.4.4.6.7-12.2-43.7-32.5-84.6-52.5-125 29.9-8.7 60.2-18.1 88.7-30.8 51.5-22.9 105.9-56.6 148.8-93.2 19.4-16.5 51.9-44.8 44-72.9l.4.6ZM738 721.3c5-15.2 13.6-45.2 21-58 1.6-2.8 32.6-25.3 35.8-26.2 50 .5 99.8 3.5 149.8 4.8 102.5 2.8 204.6-1 307-5 2.7.4 33.8 21.7 36.1 24.4 2.9 3.5 10.2 25.3 12.3 31.1 10.2 28 19.1 57.9 27.5 86.5 11.6 39.4 22 79.1 30.4 119.3-44.7 35.3-96.3 62.3-149.6 82.4-71.2 26.9-150.4 42.3-226.7 34.2-104.2-11.1-208.8-53.1-291.4-116.7 12.9-59.6 28.8-118.8 47.8-176.8m-85.1 223.1c0-7.2 1.6-23.7 3.7-30.3.4-1.2.6-2.5 2-3 1.2-.4 10.4-.4 11.2 0 .4.3.8 2 1.5 2.7 195.8 157.7 494.8 165.6 694 9 2.8-2.1 12.3-11.6 14.1-11.9 2.6-.5 10-.7 11.3 1.7 1 1.9 3 15.8 3.2 18.8.6 7.3 1 23.1 0 30-.8 5.6-16.6 19.1-21.6 23.4-174 150.2-512.4 150.2-689.9 6-5.2-4.2-26.4-22.2-28-27-1.4-4.1-1.7-14.8-1.6-19.5Zm824.4 243.8c2.1 4.8 4.2 9.7 5.3 11.7 3.7 6.8 16.7 30.7 17.8 37l-25.7-17.1-27.7-22.3zm-47.4 14.3c7.4 28.2 20.2 60.7 29.5 86.6 17.3 48.4 35.7 103.9 62.6 147.4 9.8 15.9 21.4 30.5 32.3 45.6l-60.1-27.2.9 2.4-1.7-.8 23.5 54c4 22.7 6.7 46.2 8.7 69.8.2 3.3.3 6.7.6 10 .7 10.4 1.5 20.9 2.2 31.3.9 16.2 1.5 32.4 2.1 48.3.4 10.6 0 21.3.7 31.9l-24.6-54.5c-5.8-42.8-11.9-86.4-32.6-124.9-.5-.9-8-14.7-8.5-9.5 8 34.1 19.5 67.6 25.6 102.3-15.9-31.8-33.2-62.7-60.9-86.4v1.7c-.4-.3-.9-.4-1.6-.2l6 64.5c.4 15 .6 29.8-1 44.4-1.7 11.8-4.6 23.9-9.2 37.2l-5.8 13.9c-3.9-18.2-3.3-37-8.5-55l-18.6-41.9c-10-2.8-4.3 11.9-2.8 17.3 4.9 16.7 12.3 31.3 14.8 49.2 2 14.9 4.3 46.6 2.1 60.8-.4 2.6-4.7 10.8-6.1 13.9-1 2.1-2 4.3-3 6.4-15.7 32.3-33.2 64-49.2 95.7-1.8.2-1-2.3-1-3.5-1-27.5 1.1-55.4 0-83.1-1.5-37.1-4.1-91.1-17.8-125.3-.6-1.5.6-2.7-2.2-2.2v.2c0-.2 0-.4-.2-.6-4.2 39.2-8.9 79.2-19.8 117.2-1.4 4.8-3 9.5-4.9 13.9-10.3 23.7-26.8 42.4-45.1 61.7-16.1 17-33.3 32.6-53.5 44.5 3.7-22 7.8-44.2 9.5-66.5 1.8-24.3 3.1-62.1-5-85-3.2-9.1-9.2-17.9-15-25.5 0 .7-.2 1.4-.3 2.1 0-.2-.2-.3-.4-.5-1.8 11.9-2.9 24.1-5.7 35.8-1.7 7.1-4.2 13.7-7.3 19.9-9.3 17.3-25.2 35.2-41.5 50.8-1-27.8 1.1-56.6-9.5-83 9-5.8 26.3-12.1 33.5-19.6 7.2-7.4 10.3-28.5 17.1-35.9 7.6-8.2 27.3-6.3 36.4-17.6 1-1.2 1.9-3.1 2.8-5.3.4-.7.8-1.4 1.2-2.2 1-2.1 1.9-6.8 3.2-9.2 1.7-1.2 3.6 4.9 3.9 5.6 4.4 13.6 3.3 29.5 2 43.5 1.5.4 2.3-.3 3.6-.9 3.4-1.6 16-12.4 19.4-15.6 10.7-9.7 29.1-31.2 34.9-44.1.2-.5.3-1.1.5-1.7.6-1.5 1.1-3 1.6-4.7h.5c1.9.5 2.3 34.6 2.5 38.5 0 2.4 1 4.6 1.1 6.9.7 21.1-.6 42.4 0 63.5h3c.5-7.5 2.2-15 3-22.5 3-26.9 5.9-61.3 3-88-1-9.5-5.6-21.8-6-30 0-.9.6-4 1.4-6.9.7-2 1.4-3.9 2.2-5.9 1.6 0 3.2 5.9 3.5 6.7 9.2 24.5 10.8 52.6 12 78.5h3c1.7-17.3 3.2-35.1 2-52.5-1.1-16.3-6.8-32.5-7.9-48.8 6.2-7 18.3-1.5 25.6-4.4 3.1-1.3 8.9-8.8 12.1-14.8 1.5-2.6 2.7-5.3 2.9-7.6 1.8-19-2.5-39.7 2.5-58.8 9 2.5-.7 24.4.8 25.9l11.4-4.1 21.6-11.9c-2.4 24-7.3 48-14.5 71l-6.6 13.2c-1.5 2.7-3 5.3-4.3 8.1h.2l-.8 1.6c24.4-3.5 45.2-26.7 61.5-44 10.4-11 30.9-32.5 41.3-50.8 1.3-2.3 2.4-4.5 3.4-6.6 0-.3.2-.6.3-.8 0-.2.2-.5.3-.7.7-1.6 1.2-3.2 1.6-4.8 2.7-9.8 1.9-19.9-1.1-34-.9-4-1.6-6.2-2.8-8-5-20.3-13-41.5-18.7-56.5-5.3-13.9-13-35.5-20.3-47.8-.8-1.3.2-2.5-2.5-2 3 24.6 14 46.8 21.3 70.2 6.7 21.8 17.1 53.1 9.1 75.5-3.7 7.9-9.5 15.3-14.2 21.5l-2.7 3.6c-1.9 2.2-3.7 4.2-5.4 6.1 1-7.5 5.1-17 5-24.5 0-9.3-5.8-22.7-6.5-32.5l-2.5-8v38.5c0 4.5-6.8 25.6-8.7 31.3-3 8.7-6.2 16.3-10.6 23-5.4 5.6-11.1 10.8-16.9 15.6 4.8-11.5 6.9-23.5 8.8-35.7 2.1-12.9 4.7-29.9 5.2-42.8.3-5.8 1.9-15.1-6.5-12.6l-30.5 26.1c4.3-26.6 10.3-53.7 13-80.5 3.4-34.3-9.4-53.9-25.8-82.2-12.8-22-27.8-42.5-42.2-63.3l115.8-29.4zm-455.2 639.7c-9.5-7.6-19.9-14.3-29.5-21.9-7-5.5-15.2-12.2-23.6-19.8-2.3-12.7-1.9-36.4-1.2-49.5.7-13.9 5.2-27.6 3.1-41.5l26.9 12.1c2 20.4-1.1 42.1 4.6 61.9.7 2.4 3 10 5 11 1.9.9 1.5-1.6 1.5-2.5 0-3.9-1.7-8.9-2-13-1.5-17.8-.3-36 2.5-53.5 14.4 4.4 29.1 8.9 43.9 12.1 14.2 3.1 19.4 3.6 33.8.6 15.3-3.2 30.4-8.8 45.8-11.7 1.6 16.7 2.9 33.7 2 50.5-.2 4.5-1.9 9.5-2.1 13.9 0 1.4-.8 4 1.5 3.5 12.5-21.9 7-48.7 9.6-72.9 4.4.6 25.8-12.1 26.9-11.1-2.1 14.1 2.4 29 3.1 43.4.7 15.9 0 33-2.3 48.8-7.5 6.6-14.7 12.5-21.1 17.5-9.9 7.8-20.6 14.7-30.4 22.6 1.8-16.2 2.7-33-2.3-48.7-12.6-13.7-24.9-27.8-37.7-41.3-1.4-1.4-7.6-8.1-8.9-7.9L978 1794c-.2.6-.3 1.1-.5 1.7-5.1 14.9-4.3 30.8-2.8 46.3zm321.9-592.1c-1.2 9.6-2.9 18.9-4.5 26.6-3.2 15.2-8.4 31.9-17.4 44.8q-.75.9-1.5 1.5c.5-24.5-.2-49.6-8.4-72.8.2-2.6.7-5.6.8-8.4 9.3-3 22.8-3.7 32.6-5.8-.4 4.7-.9 9.4-1.4 14.1zm-48.2-5c.7 1.4 1.4 2.7 2 4.1 2.6 7.2 5.2 14.5 6.9 22 4.9 22.2 4.8 45 4.6 67.3v6.8c-.2 4.4-.4 8.8-.6 13.3 2 .5 1.9-.8 2.8-1.7 3.3-3.2 6.9-7.5 10.7-12.5 8.4-9.8 15.6-21.5 21.1-34 6.7-13.3 11.3-26.6 11.3-36.4v-2.1c.8-5.2 1.3-10.4 1.4-15.5.3.4.5 1 .8 1.4 14.5 23.1 31.6 54.4 44.2 78.8 8.9 17.2 13.7 28.5 13.7 48.4s-1 5.2-1.1 7.9c-.6 18-1.5 35.2-5.5 52.7-8.2-2.9-12.8-1.5-15.4 2.2-1 .9-1.9 2-2.6 3.5-.2 2.1-.3 4.2-.5 6.2 0 .8-.2 1.7-.3 2.6-1.5 15-3.9 29.8-5.6 44.7-.5 3.9 0 8.4-.7 12.6-4.3 11.8-14.3 7.2-26.2 13.1-6.4 3.1-11.5 10.2-15.7 18.6-8.5 16-13.7 38.3-18.6 50.5-.2.5-.4.9-.6 1.3-7.6 17.2-17.7 31-34.3 41.7v-.4c0-9.2-.8-21.3-4.3-29.8-.9-2.1-7.7-12.7-9.2-13.8-1.7-1.2-3.9-1.3-5.9-.7-.7.2-1.6 1.1-2.6 2.4-.7.7-1.7 2.2-3 4.3-5.1 8-11.7 20.7-16.1 24.6-7.6 6.7-16.2 6.9-23.7 11.3-5.3 3.1-9.7 9.8-13.7 17-4.6 7.8-7.9 15.5-14.2 22.3-17.6 16.5-72.5 38.1-92.7 44.1-7.1 2.1-23.8 7.5-30.4 7.6-7.7 0-31.1-7.5-39.6-10.2-20.6-6.7-74.9-29.1-87.6-45.4-7.3-9.3-14.6-29.7-24.5-35.5-7.5-4.4-16.1-4.6-23.7-11.3-6.1-5.4-18-30.2-21.7-31.3-4.8-1.5-9.6 4.2-12.9 10.3-1.3 2.1-2.3 4.2-2.9 5.8-3.7 9.2-2.5 19.4-5 27.7-1.9-.7-7.6-5.7-8.5-6.5-13.3-11.9-19.9-21.9-26.7-39.3s-14.9-55.9-31.9-65.1c-11.4-6.2-25.7-.9-28.2-17.8-2.1-13.9-3.4-29.6-5.1-43.9s3-30.2-19-23.5c-2.4-12.7-5-25.6-6-38.5 0-1.6-.2-3.3-.3-5 0-3.1-.2-6.1-.3-9.2 0-.8 0-1.6-.3-2.4-.2-5.8-.3-11.6 0-16.4 0-2.2.4-4.4.7-6.5 1.5-7.9 4.2-14.9 8-22.8 3.8-7.5 8.4-14.8 12.5-22.5 9.8-18.4 20-36.5 29.9-54.8 2-3.4 4.1-6.7 6-9.8.6-.9.9-2.2 2.2-2.3v18.5c0 23.4 26.6 66.5 43.2 82.8.9.9.8 2.2 2.8 1.7v-2.6h.7c-.5-24.4-1.4-50.4 2.6-75 1.9-10.7 4.7-21.4 8.8-31.7.9-1.7 2-3 3-3.2 23.4 3.3 46.6 7.8 70.1 10.9 125.4 16.5 253.8 12.6 377.8-11.7h-.1Zm-469.7 19.3c-3.9 19.7-5.1 38.1-4.4 58.1-2.9-2.5-5.1-7-6.8-10.4-3.1-6.2-5.6-12.7-7.7-19.4-2.9-15.6-5.1-40.5-6.4-55.8l27.6 5.8c-.4 7.9-.4 11.7-2.4 21.9v-.2Zm-86.9 30.9c-5.8 10.1-11.2 19.1-15.5 28-5.5 10.7-9.6 20.7-10.8 27.9-3 18 2.1 47.2 5 65.8 2.1 13.4 5.5 26.8 7.5 40.2l-29.5-25.2c-4-1.2-5.7.3-6.4 2.7-1.7 2.6-.9 7.6-.7 11.3.5 12.9 3.1 29.9 5.2 42.8 1.8 11.2 3.7 22.2 7.6 32.7-6.5-5.5-12.8-11.6-18.8-18-3.8-6.6-6.6-14-9.3-22.3-1.8-5.7-7.7-23.5-7.7-28.3v-39.5l-2.5 8c-.8 10-6.1 23-6.5 32.6-.3 7.4 3.5 16.3 4.4 23.9-2.1-2.7-4.1-5.4-6.1-8-5.7-7.6-17.6-22.8-17.6-32.4v-20.8c1.8-14 6.2-28 10.1-41 7.6-25.4 19.8-49.5 22.3-76.2l-12.5 27c-12.9 30.6-36.6 88.2-33.6 120.5 1.8 19.5 33.7 52.8 47.5 67.5 16.3 17.3 37.1 40.5 61.5 44l-.7-1.4h1.3c-2.7-6-6.6-11.3-9.2-17.3-9.7-22.4-13.1-50.4-16.5-74.6l20.7 11.4 11.4 4.1c0-.7 0-1.3-.2-2l.9.3c-.4-6.8-3.9-14-3.2-21 1.2-1.6 3.7-4.2 4.4-3.3.8.9 2.8 20.6 3 23.5.5 9.2-1.8 35.9.8 42.2.8 2 11.5 14.7 13.5 15.5 7.4 3 17.8-2.1 24.8 3.4-1.4 13.3-5.3 26.9-6.9 40-2.7 20.8-1.8 41.6.9 62.4h3c.5-19.9 2-40.6 6.5-60 1.9-8.4 4.5-19.2 9.5-26 .6 3.7 4.2 7.6 4 11.4-.2 2.2-2.8 8.3-3.5 11.5-6.6 33.2-4.7 65.9-1.5 99.5.4 4 2.8 30.4 4 31.5.2.2 2.2 0 3 0 .7-37.6-2.2-75.9 4.5-113 2.6 14.8 14.6 30.3 24.5 41.5 6.5 7.3 23.6 23.8 31.6 28.4 1.4.8 2.7 1.4 4.4 1.1 0-.8-.2-1.6-.3-2.5.3-14.6-2.1-29.6 3.2-43.6 0-.2.2-.5.3-.8.7-1.6 1.7-3.1 2.7-2.1s2.8 9.9 4.1 12.4c8.9 17.3 29.3 11.7 38.5 21 7.4 7.4 10.3 28.4 17.8 36.7 4.5 4.9 32 17.6 32.3 19.4-10.3 26-8.3 54.3-9.2 81.7-19.1-18.4-37.5-39.8-44.6-58.5-5.8-15.5-6.1-32.4-9.7-48.3-5.9 8.5-11.2 16.8-14.7 26.2-2.8 7.4-4.6 15.4-5.5 23.9-4.9 44.8 3.8 83.1 9.6 126.4v.5h-.5c-19.7-12.9-36.3-27.4-52.5-44.5-22.1-23.3-41.7-45.8-50.7-77.3-10.6-36.9-15.8-77-19.3-115.2h-1.2v-.2.2c-1.1 0-.4 1.1-.9 2.3-4 10-7 21.7-9.4 34.1-2.9 13.6-4.9 27.5-6.1 40.9-1.7 18-2.2 35.9-2.4 53.7-.4 11-.3 22.1 0 33.1 0 16 0 32.1-.5 48.2v1.9h-.4c-17.9-34.3-36.4-68.5-52.9-103.6-2.3-4.8-4.7-9.9-7.1-15.1-1.6-15.3.3-45.2 2.4-59.1 2.8-18.2 10.7-33.5 15.4-50.6 1.5-5.4 6.2-17.3-3.4-14.9l-19.2 43.3c-4.7 17.3-4.4 35.2-7.8 52.7-4-10-7.6-19.9-10.2-29.4-10.7-38.8-3.4-79.7-.9-119.4.3-3.5.7-6.9.9-10.3h-.4v-1.4c-15.3 13.1-27.4 28.3-37.9 44.8-2.7 4-5 7.8-6.9 11l-2.2 4.2c-4.7 8.2-9 16.7-13.3 25.2l-3.3 6.3 26.5-108c-3.4-.3-5.5 5.3-7 8-23 40-27.8 87.5-34.8 132.2l-23 51.2c1.2-11.8.6-23.7 1-35.5.9-26 3.3-52 5-78 1.3-20.5 1-41.5 4.1-61.9 2-13.4 6.8-25.9 12.3-38.2 3.2-7.1 6.5-14.1 9.7-21.2 2.1-4.7 4.1-9.4 6-14.2l-62.4 28.2c11.1-15.5 23-30.5 33.1-46.7 4.5-7.3 8.7-14.9 12.8-22.7q6.9-12.6 12.6-26.1c1.8-4.4 3.7-8.8 5.5-13.3 11.8-28.4 21.9-58 31.7-85.3 9.3-25.9 22.1-58.6 29.6-86.8l117 29.8c-14.4 20.8-29.5 41.3-42.2 63.3v-.2Zm-117.9-75.9L546 1238l13.1-27.1c4.7-8.8 9.3-16.8 12.6-22.4l29.3 8.5zm11 13.2v-1c.2 0 .3.2.4.3 0 .2 0 .3-.2.5 0 0-.2 0-.3.2Zm1095.4-166.7c-23.3 16.1-42.9 31.4-68.3 44.7-105.4 55.2-226.5 85.3-342.8 107.2-61.1 11.5-123.8 21.8-185.7 27.3-91 8.1-182.1-5.5-271.7-21.3-127.8-22.5-262.4-53.3-377.8-114.2-25.5-13.5-45.8-29.4-69.2-45.8-21.5-15.1-44.1-27-61.8-47.3-13.2-15.2-20.7-30.9.4-43.7 39.4-23.9 153.9-11.4 202.1-9.8 39.7 1.4 79.5 2.4 119.5 2 .4.5-.2 11.3.2 13.4 1.6 9.3 29.9 30.5 38.4 36.6 131.8 94.9 302.9 118.8 461.7 99 83.4-10.3 162.3-38.6 233.6-82.4 17.2-10.6 46.6-29.8 59.1-45 5.8-7.1 4.8-12.7 5-21.5l96.6-1c57.2-1 119.8-9.8 176.9-4 17.4 1.8 62.1 8.9 61.6 32.5-.5 25.5-58.4 59.8-77.8 73.3" class="outline" data-original-prefix="outline"/>
    </g>
</svg>