<?xml version="1.0" encoding="UTF-8"?>
<?xml-stylesheet type="text/css" href="styles/collection.css"?>
<svg xmlns="http://www.w3.org/2000/svg" viewBox="0 0 2048 2048"><g id="01_background" data-trait="blue"><path id="color-blue" fill="#2f5496" d="M2048 0v2048H0V0z"/></g><g id="02_Jaw" data-trait="headphones"><defs>
    
  </defs>
  <path id="fill-jaw" class="fill"  class="st2" d="M1373,1278c10.5.4,29.1-5.9,35.2,5.3,10.7,19.6,15.9,50.4,25.7,71.3,3,11.9-8.8,18.7-13,27.9-.4.8-1.4,1.4-.5,2.6l79.1,40c2.3,3.8-3.6,14.2-1,19l36.2,79.6-11.5,32.7c5.5,8.9,13.4,16.8,17.8,26.1l-19.9,52.2,18.3,22.3v5l-61.4,99.3c-2.5,2.2-23.2-.7-28.1,1.2l-61.7,62.3c-16.4-2.9-31.7,11.1-47.8,14.2-20.1-2.5-44.6-14.1-64.1-15.9-10.5-1-30.4,5.3-39.3,2.3l-90-57.5,21.9-62.5c0-1.6-1.2-2-2.3-2.7-7.1-4.6-19-6.8-26.5-11.6l-4.2.3-89.9,35.1c-15.1,1.2-30.2,3.6-45.3,3.2l-100.2-35.8c-2,0-18,7.8-19.9,9.2-.9.7-1.7,1.1-1.7,2.4l16.9,58.3-.8,2.7-83,59.1c-5.8,1.8-14-4.8-20.5-3.6l-87,18.1c-2.7-.5-3.8-5.4-8-7-11.3-4.3-28.3-3.2-40-8l-58.5-66.5c-4.8-2.2-15.4,5.2-20.8,5.4l-69-103.7.3-3.2c2.8-4.1,19.4-20.2,19.5-23.5l-22-52.1c-.4-5.6,17.6-24.2,18-30,.3-5.4-11.4-19.6-9.8-26.7l40.1-104.5,64.6-33.4c1.9-3-12.3-33-10.7-39.1l34.7-65.1c10.3-3,21.4-3.8,32.1-5.7l-23.7-60.3c5.6-16,11.2-32,17-47.9,7.9-21.7,16.5-47.6,27.2-67.8,53.7-101.2,185.9-162.6,293.5-185.5,35.9-7.6,63.7-2.7,98.4,6.5,100.4,26.7,224,89.8,269.8,188.2,7.8,16.7,8.9,28,13.3,44.7,2,7.7,14.7,26.3,19.1,34.9,2,3.9,7.2,12.8,7.5,16.5.5,5.7-7.6,35.3-10,42-3.7,10.1-10.8,19.3-14,29.5v.2h0Z"/>
  <path id="fill-jaw1" class="fill"  class="st2" d="M633.3,1439.3c-6.9,9.3-7.1,20.4-1.8,30.6,11.3,21.3,32.2,49,46.2,69.8,45.6,67.8,94.8,132.8,149.2,193.8,13.2,10.1,26.6-2.7,28.8-16.3,3.7-22.9-25.9-58.5-35.7-78.8-.8-4.2,2.4-17.5,4.7-21.2.5-.8.8-2.8,2.2-1.3.7.7,3.6,14.5,7.6,18.9,3,3.4,8.2,4.1,9.5,5.8,3.8,4.6,13.5,27,16.8,33.9,9,19.1,25.7,53.6,27.2,73.8.9,11.9-.8,14.4-8.1,23-14.7,17.3-47.5,38.8-70.5,40.5-10.1.8-13.3-3.5-20.5-9.5-62.4-51.2-122.3-130.8-164.4-199.6-24.2-39.6-64.6-113.9-68.5-159.6-.6-7.4-1.5-12.5,3.8-17.9,15-15.1,41-26.4,61.4-31.3,5.1,1.2,16.7,35.2,15.6,41.3-.5,3-2.7,2.6-3.7,3.9l.2.2Z"/>
  <path id="fill-jaw2" class="fill"  class="st2" d="M1213.7,1635.7c5.1-5.1,6-14.3,8.8-20.7,4.6,6.1,6.2,14.9,6.3,22.3-9.9,20.1-39.1,55.6-36.8,78.2,1.2,11.9,10.8,24.5,24,21,5.4-1.4,17.2-16.5,21.5-21.5,66.6-77.1,124.4-160.8,179.7-246.3,3.9-7.6,3.9-17,.4-24.7-1.3-2.9-6.3-7-6.3-8.2,0-4.6,4-17.4,5.8-22.2,1.4-3.8,7.1-17.8,10.5-18.5,9-1.7,39.9,15,48.2,20.8,4.2,2.9,15.5,11,16.2,15.8,2.2,14.1-6.8,42.2-11.7,56.2-35.2,102.4-137.6,246-221.3,314.7-6.8,5.6-10.2,10-19.6,9.5-19.6-1-47.1-17.5-61.5-30.5-4-3.6-16.7-16.6-17.8-21.2-3.8-17.2,10.6-48.8,17.6-65,3.7-8.4,22.6-51,27.2-54.8,2.2-1.8,6.5-2.7,8.6-4.9h.2Z"/>
  <path id="fill-jaw3" class="fill"  class="st2" d="M765,1818c-12.7,3.6-25.1,8.6-38,11.5-5.6,1.3-14,4.1-19,.9-64-61.2-119.5-138.6-156.9-219.1-10.1-21.7-30.2-68.4-26.7-91.4,2.5-16.7,12.8-35.6,17.6-51.9l12.2,36.2c40.7,100,105.4,197.4,177.2,277.8,8.7,9.8,26.1,24.2,32.5,33.5.6.8,1.4,1,1,2.5h.1Z"/>
  <path id="fill-jaw4" class="fill"  class="st2" d="M1283,1818c-.4-1.5.4-1.7,1-2.5,6.5-9.3,23.8-23.7,32.5-33.5,71.9-80.4,136.5-177.8,177.2-277.8l12.2-36.2c4.7,16.4,15,35.2,17.6,51.9,3.5,23-16.6,69.7-26.7,91.4-37.4,80.5-92.9,157.9-156.9,219.1-4.9,3.1-13.4.3-19-.9-12.9-2.9-25.3-7.9-38-11.5h.1Z"/>
  <path id="fill-jaw5" class="fill"  class="st2" d="M692.7,1454.6c.2,0,.6-3.3,2.3-1.6.7.7,2.8,16.2,3,18.5.8,11.3-2.3,39.3,1.5,47.6,1,2.3,9.7,13.2,11.6,14.3,5.2,3,7.5.4,12.4.6,35,1.2,30.9,51,40.4,72.7,4.6,10.5,40,56.8,49.9,59.1,1.1.3,2.2.3,3.3.2v-7c1.6.8,3.4,2.6,4.4,4.1,3.9,5.6,13,23.4,15.1,29.9,2.5,7.9,6.9,26.8-7.3,22.3-8.6-2.7-27.2-27.4-33.6-35.4-28.5-36-56.8-75.1-83.4-112.6-18.6-26.2-41.5-56.4-56.4-84.6-3.5-6.6-11.8-22.5-3.8-28.1,5.7-4,11.9,1.8,17.4,3.5,9.7,3.1,14.7,1.8,23.2-3.4h0Z"/>
  <path id="fill-jaw6" class="fill"  class="st2" d="M1356,1453s-.4,1.3,1.2,2.3c8.1,4.8,13.3,5.6,22.3,2.7,5.3-1.7,11.2-7.2,16.4-3.5,8,5.7-.3,21.6-3.8,28.1-14.9,28.2-37.7,58.4-56.4,84.6-26.6,37.5-54.9,76.6-83.4,112.6-6.4,8-24.9,32.7-33.6,35.4-4.6,1.4-9.2.4-9.9-4.8-2.3-16.9,12.8-37.1,20.1-51.5,4.5-1.2-.3,7.2,3.5,7,3.3-.2,8.9-5.1,11.5-7.5,9.9-9.3,35.9-40.2,41.2-51.8,4.4-9.7,5.2-26.7,8.3-37.7,4.6-16.4,12.4-34.4,32.1-35,4.8-.2,7.2,2.4,12.4-.6,1.8-1.1,10.3-11.6,11.3-13.7,4.3-9,.9-37.2,1.8-49.2.2-3.1,1.9-14.7,3-16.9.5-1,1.5-.9,2-.6h0Z"/>
  <path id="fill-jaw7" class="fill"  class="st2" d="M668.3,1813.7c1.2,1.3,4.2,1.7,3.6,4.3-11.8,2.6-22.5-6.2-30.5-13.9-47-45-85.8-115.1-111.6-174.4-4.2-9.6-9.4-20.7-12.6-30.4-3.7-11.4-6.2-20.8,3.2-30.2,17,38.9,33,78.5,53,116,25.2,47.2,59.3,88.9,94.9,128.6"/>
  <path id="fill-jaw8" class="fill"  class="st2" d="M1376,1818c-.4-1.8.6-2,1.6-3,23.2-23.3,49.4-55.6,68.2-82.7,34.9-50.1,57.3-107.7,81.7-163.3,9.5,9.5,6.9,18.8,3.2,30.2-5.4,16.7-15.3,37-22.9,53.1-24.4,51.7-59.5,111.3-100.8,151.2-8.1,7.9-19,17.1-31,14.4h0Z"/>
  <path id="fill-jaw9" class="fill"  class="st2" d="M586,1754c-8.8,4.2-11.8-.9-17.5-7-13.2-14.2-48.5-65.3-49.5-83.5-.4-6.5,3.1-11.1,7.5-15.4l25.3,49.7,34.2,56.3h0Z"/>
  <path id="fill-jaw10" class="fill"  class="st2" d="M1462,1754l34.2-56.3,25.3-49.7c4.4,4.4,7.9,9,7.5,15.4-1,18.2-36.3,69.3-49.5,83.5-5.7,6.1-8.7,11.2-17.5,7h0Z"/>
  <path id="fill-jaw11" class="fill"  class="st2" d="M853,1643c23.4,1.8,23.6,24.4,32.8,40.7.8,3.2-7.7,7.2-9.3,5.3l-23.5-46Z"/>
  <path id="fill-jaw12" class="fill"  class="st2" d="M1194,1644l-22,46c-4.7-1.2-10.2-1.5-8.5-7s10.2-25.6,13.1-29.9c3.8-5.7,10.7-8.8,17.4-9.1"/>
  <path id="outline-shading-jaw" class="outline"  class="st1" d="M1380.8,1185.8c-.2.4-2.1.7-2.8,1.7-8.6,10.8-16.2,26-21,39-4.2,11.4-5.1,22.7-13,32-11.3,13.5-31,29.3-45.7,39.3-15.8,10.7-32,18-49.3,25.7,7.1.9,14.3.5,21.5.5,23.3,0,41.9-6.8,62.9-17.1,15.5-7.6,25.1-16.9,35.2-30.7l21.4,3.8c-4.2,14-3.4,28.4-18.5,35-23.4,10.3-52.3,12.2-75.8,25.2-1.8,1-5.5,4.4-6.4,4.7-1.8.4-30-9.3-35.1-10.6-25.9-6.6-37.1-9.7-23.1,21.1,5.3,11.7,19.9,38.8,29.8,46.2,12.3,9.1,22.9-9.5,30.5-16.5,6.2-5.9,17.1-12.2,25.3-14.7,16.8-5,32.3,4.9,49.7,5.7,17.6.8,34.4-7.6,48.8-17.2,3.6-2.4,14.6-13.9,17.2-13.8,3.3.2,2,7.1,1.3,9.2-5.4,16.2-16.1,32.7-21.4,49.2,10.4,8.1,27.3,20.2,27.5,35,.2,17.8-26.4,60-36.4,76.4-39.8,65.4-86.5,126.3-133.5,186.6,14,16.5,38.6,26.1,60,20,7.6-2.1,12.1-7.4,19-9.5-2.6,20.2-3.1,27.7,16.8,34.7,21.1,7.5,45.8,7.9,64-6.5l21.3-16.2-22,44.5,8,2.5c.2,1.1,0,1.9-.5,2.9-6.5,16.2-30.2,41.1-45.5,49.5-5.7,3.1-46.1,12.9-52.4,12.6l-84.3-18.7-15.5,3.5-71-30c-1.3-.4-1.8-1.4-2.6-2.4-2-2.6-13.5-23.8-14.4-26.6s-1.1-5.3-.8-8.2l24-61.5c-15.6,0-31.3-2.2-46.8-2.8-3,4.8-9.3,10.4-14.2,13.3-8.6,5.1-53.1,24.7-61.5,25.5-18.7,1.7-40.6-1-59.6-.5-17.3-8.6-39-15.2-55.8-24.2-6.6-3.5-10.2-10.9-16.6-14.4-15.1,1.1-30.3,2.9-45.5,3l23.3,59.2c1.1,3.4,1.1,7.1,0,10.5-.9,2.5-14.6,27.1-15.9,28.1l-72.1,30.9-15.5-3.6c-25.8,4.6-51.9,13.1-77.6,17.4-3.8.6-6.7,1.6-10.7,1.3-6.5-.4-39-8.3-45.2-10.8-7.3-3-27-19.4-32.3-25.7-2.9-3.4-15.8-22.7-16.8-26.2-.2-.8-.3-1.5-.2-2.3l8-2.5-23-46.5,18.7,15.8c19.2,17.3,52.4,17.8,74.6,6,15.5-8.2,9.7-18.1,9.7-32.8,23.9,20.9,59.5,13.2,78.9-9.6-42.1-53.6-83.6-108-120.3-165.4-14.8-23.2-36.2-55.1-45.3-80.7-7.2-20-3.9-28.9,11.8-42.8,2.3-2.1,10.8-6.9,11-9,.2-1.7-1-3.8-1.6-5.5-4.8-13.7-16.7-32.1-20-45-1.1-4.3-.6-8.4,4.5-6.5,4.7,1.8,9.6,8.8,14.8,12.3,25.4,16.9,38.3,19.8,68.5,13.9,5.4-1.1,13.6-4.6,18.3-4.7,11.5-.3,29.8,10.2,38,18,7,6.7,17.2,24.1,29,16.1,9.9-6.8,30-43.8,34.3-55.7,1.7-4.7,5.2-14.8-2.3-16.2-8.2-1.6-30.5,5.9-39.5,8.5-3.9,1.1-17,6.5-19.5,6.4-1,0-13.7-8.2-17.2-9.7-16.2-6.7-62.8-15.6-72.7-24.3-7.9-6.8-7-18.7-11.5-27.5,0-1.4.7-1.7,1.7-2.2,1.5-.8,18.7-5.3,19.7-5.1,14,22.3,36.7,32.7,60.6,41.3,16,5.8,21.6,6.6,38.4,6.5h20.5l-34-16.5c-15.7-8.8-60.2-41.6-66.8-57.2-2.5-5.8-3.6-13.7-5.9-20.1-6.1-16.9-14.4-32.5-25.3-46.8,1.3-9,6.5-19.6,7.8-28.2,2.8-19.1,3.8-27.8,12.1-45.9,42.8-94,156.1-156.3,251.2-184.8,49.9-15,102.4-18.1,153.2-5.2,102.2,25.9,235.9,97.2,274.5,201.5,5.1,13.9,5.1,20.8,7.5,34.5.8,4.8,8.8,28.4,7.6,30.6h-.2ZM1078,1327c-6.6-11.3-11.1-25.2-18.6-35.9-4.1-5.9-9.8-10.2-14.4-15.6-3.4-3.9-14.7-20-18-21-1.9-.6-4.4-.8-6.3-.2-2.4.7-15.8,18.7-18.7,22.3-4.5,5.4-9.5,9.1-13.8,15.2-7.4,10.5-12.7,23.7-18.2,35.3h108ZM728.3,1496.7c1.6,2,8.2,6.3,10.7,7.8,14.8,8.8,31.7,13.8,46.9,23.1,16.8,10.2,40.2,33.1,59.6,33.5,2.3,0,8.7-1.2,9.4-3.7.8-2.7-13.5-27.5-16.4-30.3-7.3-7.2-27.5-17.2-37.2-23.8-15.2-10.3-50.3-39.1-67.9-39.2-10.5,0-8.7,28.1-5.1,32.7h0ZM1319.7,1466.3c-5.9-5.9-24.1,4.1-30.4,7.6-16.2,8.9-31,21.4-46.2,31.8-12.7,8.7-30.1,15.7-38.6,28.4-2.2,3.4-10.8,17.7-11.4,20.7-1.1,5.3,6.2,6.5,10.3,6.3,16-.9,23.4-9.7,35.2-17.8,9.2-6.3,19.3-13.6,29-19,11.7-6.6,47.1-19.2,52.7-29.3,2.4-4.3,2.8-25.2-.7-28.6h0ZM1126,1664c-12-2.7-20.7,6.6-31.6,7.9-5.7.7-12.2-1.2-16.6-.7-7.1.8-22.9,12.1-31.2,14.9-14.8,4.9-30.2,4.7-45.1,0-8.8-2.8-23.9-14.1-31.2-14.9-4.4-.5-10.9,1.4-16.6.7-11-1.3-19.9-11-31.6-7.4,0,6.9,23.8,23.5,30,27,12.5,7.1,59.8,26.8,72.5,26.6s59.9-19.8,72.2-26.9c10.3-6,24.6-16.2,29.3-27.2h-.1Z"/>
  <path id="outline-shading-jaw1" class="outline"  class="st0" d="M1478,1737c3.9.4,7.2-2.1,10.3-4.2s11.4-11.1,13.2-11.8c3.7-1.6-1.6,7.2-2.1,7.9-3.6,5.7-19.8,26.3-24.9,29.1-6.3,3.5-11.9.9-18.5,0-.5-3.4,1.9-6.1,3.6-8.9,9.7-16.6,23.4-37.9,34.6-53.4.7-1,1.5-2.4,2.8-2.7-1.2,6.4-3.2,12.7-5.8,18.7-1.4,3.3-14.2,24.3-13.2,25.3"/>
  <path id="outline-shading-jaw2" class="outline"  class="st0" d="M592,1758c-7.2,1.1-12.2,3.5-19.2-.3-5-2.7-21.2-23.7-24.7-29.3-.5-.8-5.2-8.8-1.7-7.3,1.7.7,9.8,9.6,13.2,11.8,3.1,2.1,6.3,4.6,10.3,4.2-6.3-14.7-17.1-27.6-19-44l38.4,58.1,2.6,6.9h.1Z"/>
  <path id="outline-jaw" class="outline"  d="M681,1139c5.4-1,10.7-1.8,13.8,3.7-1.2,7.6,0,17.4-2,24.6-1.6,5.8-18,15.3-21,22-1.2,2.6-6.4,25.9-6.7,29.3-.2,1.7,0,2.8.4,4.4,2.2,7.2,14.4,20.5,18.4,28.6,5.2,10.5,6.7,23.5,11.3,33.7,5,11.1,15.6,11.8,25.1,16.9,7.5,4,16,10.6,22.7,15.8-3.1,0-6.3.3-9.4,0-8.2-1-26.7-5-34.4-7.6-2.1-.7-9.4-4-10.7-5.3-3.1-3.3-6.1-15.8-9.5-17.4-2.5-1.2-7,0-10.3-.7-6.7-1.2-9.9-7.8-17.5-1.5-6.6,12.4-14.3,24.3-20.4,37.1-7.4,15.4-14.8,25.1-4.8,41.2,5.2,8.4,23.4,27,25.6,34.4,2.5,8.6-2.7,28,2.9,34.1,6,6.6,20.6,4.5,27.8.8,10.6-5.4,8.7-9.9,14.3-18.7,5.3-8.3,20.9-24.3,30.4-26.7,7.7-1.9,12.3,10.3,14,16,3.6,11.6,3.2,28.2,9.1,37.9,10.7,17.3,45.3,33.7,65.3,34.7,9.3.4,15.2-5.5,21-12,3-3.3,13.4-19.9,14.5-20.5,1.8-1,4.3-.7,6.3-.3,6.1,1.3,31.8,27.4,38.7,33.3,29.5,25.3,59.4,44.7,98.7,50.3,60.9,8.7,105.3-6.9,151.3-45.3,11.4-9.5,21.6-20.6,33-30,4.3-3.6,12.1-11.6,18-8,1.1.7,11.4,17.1,14.5,20.5,12,13.2,17.2,13.9,34.7,9.7,15.2-3.7,44.3-19.1,52.6-32.4,5.1-8.2,5.1-21.6,7.5-31.5,1.7-6.7,6.2-24.7,15.7-22.4,10.7,2.6,27.2,21,32.6,30.4,1.7,3,2.2,6.8,3.9,9.1,6.4,8.6,29.4,13.6,36.5,4.5,4.8-6.2,0-25.2,2.4-33.6s20.4-25.8,26-35c9.4-15.7.8-28.4-6.5-43.3-5.8-11.7-13.3-22.7-19.2-34.3-7.1-5.6-12.2.4-18.5,1.5-2.9.5-6.9-.4-9.3.7-3,1.4-6.8,14.4-9.6,17.4-1.3,1.4-7.2,3.9-9.3,4.7-8,3-26.3,7-34.9,8.1-3.4.4-6.8.2-10.2.2,6.6-5.5,15.7-12,23.3-16.2,11.5-6.3,19.8-5.1,25.5-19.5,3.6-9.1,5-19.4,9.4-28.6,5.2-10.9,14.2-20.6,19.6-31.4.6-1.5.2-3,0-4.5-.6-4.4-5.6-25.6-7.2-28.8-3.5-6.8-19-16.2-20.3-20.7-.8-2.7-2.7-24.4-2-26.6,1.5-4.9,9.1-3.4,12.8-2.7,1.6.3,4.1,0,5.1,1.7,1.8,2.9,1.8,11.7,3.9,13.8,4.3,4.4,21.1,4.4,24.8,12.2,2.2,4.6,0,15.6.2,21.8.5,12.5,8.5,29.5,6.8,39.7-.7,4.2-13.9,26.4-17.1,30.9-1.5,2-12.2,12.4-10.6,13.9,7.4.6,18.3-14.1,23.5-14.1s9,8.6,11.3,11.8c14.6,19.9,29.3,46.5,36.9,70.1,1.2,3.8,4.5,12.8,2.8,16.2-.7,1.4-3.3,2.1-4.5,3.5-5,6-9.6,13-14,19.5,23.4,4.3,53.2,19.5,68,38.5,7.3,9.4,4.3,12.7,6.5,22.5,3.5,15.9,19.4,40.3,25.5,57.5,2.5,7,6.9,19.9,7.1,27,0,6-4.5,13-4.1,16.9s6.2,16.4,7.5,22.6c3,13.8,3.9,17.4-1.3,30.7-2,5.2-16.4,34.3-16,36.7,8.9,8.9,19.7,15,18.8,29.2-1,17.7-33.9,64-45.6,79.4-4.3,5.6-23.6,30.1-28.3,31.7-7.5,2.4-17.8-6.7-22.1-4.1-7.5,10.9-15.8,21.5-24.5,31.5-16.8,19.3-25.5,31.3-52.2,35.8-4.7.8-12.8.4-16.4,1.6-8.7,2.8-10.3,11.6-24.4,11.6s-49.3-7.9-58.8-14.2c-2.1-1.4-5.3-5.9-7.2-5.8-1.5,0-10.7,6.3-16.1,6.9-33.7,4-93.1-31.4-107.9-61.8-5.1-10.4-3.9-14.2-.5-24.6,4.8-14.4,12.7-27.7,18-41.9-5-.8-14.5-7.9-18.7-8.3-2.3-.2-34.8,17.4-40.8,19.8-18.6,7.5-44.8,14.4-64.5,18.5-11.3,2.3-15.7,2.3-27,0-36.4-7.4-71.7-19.8-104-38.1-3-.7-15.7,5.8-19.6,7.5-1.1.5-1.7-.7-1.4,1.6,5.8,13.5,13.4,27.1,18,41,3.4,10.4,4.6,14.2-.5,24.6-14.8,30.3-73.5,65.3-107,61.9-4.9-.5-16.9-7.1-17.8-6.9-1.4.3-4.4,4.4-6.4,5.7-9.7,6.5-46.9,14.3-58.8,14.2-14.1,0-15.7-8.9-24.4-11.6-7.3-2.3-20-1.5-29.5-4.5-17.1-5.4-34-26.7-45.5-40.5-6.4-7.7-12.3-15.8-18-24-4.9-3-15.5,8.3-24,3-2-1.3-5.7-5.5-7.6-7.4-8.4-8.9-17.6-21.2-24.9-31.1-10.5-14.3-36.3-51.6-39.2-67.8s8-22.5,18.4-32.7l-19.7-46.9c-.7-6.9.9-13.7,2.4-20.4,1.4-6.2,7.1-18.8,7.5-22.6.3-3.4-3.2-9-3.7-13.2-1-8.6,3.8-22.4,6.7-30.8,6.1-17.2,22-41.5,25.5-57.5,2-9.3-.8-12.9,6.1-21.9,14.5-19.3,45-34.8,68.4-39.1,1.1-1.2-8.5-13.6-10-15.5-3.5-4.4-8.3-5.6-8-12,.4-8.2,10.9-31.9,14.8-40.2,3.7-7.7,29.3-51.5,34.9-53.2,6.3-1.8,17.3,14.4,25.3,13.8,1.9-1.8-8.7-10.8-10-12.5-3.8-4.9-13.3-21.4-15.9-27.1-6.1-13.5,1.7-20.9,3.8-34,.5-3.2,1-8.6,1.2-11.8.2-6.5-2.4-17.4.6-22.3,3.3-5.3,21.2-7.6,24.1-10.5,2.7-2.7.9-10.5,3.2-14.1,1-1.6,3.5-1.4,5.1-1.7v-.2h0ZM633.3,1439.3c.9-1.2,3.1-.8,3.7-3.9,1.1-6.1-10.5-40.1-15.6-41.3-20.5,4.9-46.5,16.2-61.4,31.3-5.3,5.4-4.5,10.5-3.8,17.9,3.8,45.6,44.2,120,68.5,159.6,42.1,68.8,102,148.4,164.4,199.6,7.2,5.9,10.4,10.2,20.5,9.5,23-1.7,55.8-23.2,70.5-40.5,7.3-8.6,9-11.1,8.1-23-1.5-20.2-18.2-54.8-27.2-73.8-3.3-7-13-29.3-16.8-33.9-1.3-1.6-6.5-2.4-9.5-5.8-3.9-4.4-6.8-18.2-7.6-18.9-1.5-1.5-1.7.5-2.2,1.3-2.3,3.7-5.5,17-4.7,21.2,9.8,20.3,39.4,55.9,35.7,78.8-2.2,13.6-15.6,26.4-28.8,16.3-54.4-61-103.6-126.1-149.2-193.8-14-20.8-34.9-48.5-46.2-69.8-5.4-10.2-5.2-21.2,1.8-30.6l-.2-.2ZM1213.7,1635.7c-2.2,2.2-6.4,3.1-8.6,4.9-4.6,3.8-23.6,46.3-27.2,54.8-7,16.2-21.4,47.8-17.6,65,1,4.6,13.8,17.6,17.8,21.2,14.4,13,41.9,29.6,61.5,30.5,9.3.5,12.8-3.9,19.6-9.5,83.7-68.7,186.1-212.3,221.3-314.7,4.8-14,13.9-42.1,11.7-56.2-.8-4.8-12-12.8-16.2-15.8-8.3-5.8-39.2-22.5-48.2-20.8-3.5.7-9.2,14.7-10.5,18.5-1.8,4.8-5.8,17.7-5.8,22.2s5,5.3,6.3,8.2c3.5,7.7,3.6,17.1-.4,24.7-55.2,85.5-113,169.3-179.7,246.3-4.3,5-16.1,20.1-21.5,21.5-13.2,3.5-22.8-9.1-24-21-2.3-22.7,26.9-58.1,36.8-78.2,0-7.4-1.7-16.2-6.3-22.3-2.8,6.3-3.7,15.6-8.8,20.7h-.2ZM1249,1614.5c.5,5.3-.4,11.2,0,16.5,4.5-2.9,6.9-8.6,9.2-13.3,7.2-14.9,13.6-37.5,13.9-54.1,0-7.5-1.8-15.8-2-23.2,0-2.6,2.9-7.2,5-8.8,3.9-3.2,18.2-11.2,23.3-13.7,10.8-5.5,29.6-7.9,33-21,2.5-9.8.7-28.2,1.8-39.2,1-10.3,7.7-19.4,6.9-29.1-.6-6.2-5.2-16.1-9.4-20.6-1.5-1.6-8.7-7.2-10.5-5.9s-7.1,27.7-7.1,31.5,2.9,12.2,0,17.1c-1,1.8-14.9,11.5-17.8,13.2-13.5,8.5-30.5,17.7-44.6,25.4-9.2,5-19.2,9.5-28.4,14.7-3.1.5-6.8-3.6-10.8-3.9-11.7-.8-14.5,8.2-21.5,14.6-16.6,15.2-41.4,23.2-63.5,25.5-69.2,7.1-135.8,6.9-205,0-21.8-2.2-45.9-9.8-62.5-24.5-7.4-6.5-10.7-16.4-22.5-15.6-4,.3-7.4,4.3-10.5,3.7-12.5-7.1-25.7-12.8-38.3-19.8s-39.3-21.5-49.2-30.8c-6.9-6.6-2.4-12.5-2.5-20.4-.2-9.9-4.5-21.1-7.1-30.5-9.8,1.4-16.8,13.3-19.3,22.2-3.6,12.9,4.8,20.7,6.2,33.4s-2.5,31.6,2.7,42.3,22.8,13.3,32.7,18.3c4.5,2.3,19.2,10.6,22.6,13.4,1.8,1.5,2.7,3.4,3.6,5.4.2,9.9-2.1,19.6-1.6,29.6.8,16.7,8.6,44.3,17.5,58.5,1.4,2.3,3,4.7,5.5,6-.9-5.1-.4-9.2.3-14.2.9-6.6,4.7-25.1,7.5-30.5,1.2-2.3,3.7-3.5,4.3-6.2,23,6.3,35.4,28.6,50.3,44.9,11.3,12.4,23.8,14.5,34.1,23.9,6.5,5.9,11.9,15.9,17.5,22.5,14.4,17.2,20.4,23.3,41.3,32.7,28.8,12.9,50.9,21,83.2,18.9,16.7-1.1,61-18.9,75.8-28.2,16.1-10.1,26.5-33.3,40.2-45.8,10.2-9.3,22.2-11.3,33-23,9.6-10.3,17.3-22.5,28-32,5-4.5,21.2-18.9,26.3-9.3,2.2,9.9,7.3,19.6,8.2,29.8v-.4h.2ZM692.7,1454.6c-8.6,5.2-13.5,6.5-23.2,3.4-5.5-1.8-11.8-7.5-17.4-3.5-8,5.7.3,21.6,3.8,28.1,14.9,28.2,37.7,58.4,56.4,84.6,26.6,37.5,54.9,76.6,83.4,112.6,6.4,8,24.9,32.7,33.6,35.4,14.2,4.5,9.9-14.4,7.3-22.3-2.1-6.5-11.2-24.4-15.1-29.9-1-1.5-2.8-3.2-4.4-4.1v7c-1.1,0-2.2,0-3.3-.2-9.8-2.4-45.3-48.6-49.9-59.1-9.5-21.7-5.3-71.5-40.4-72.7-4.8-.2-7.2,2.4-12.4-.6-2-1.1-10.6-12.1-11.6-14.3-3.7-8.3-.7-36.3-1.5-47.6-.2-2.3-2.3-17.8-3-18.5-1.7-1.7-2.1,1.5-2.3,1.6h0ZM1356,1453c-.5-.3-1.5-.4-2,.6-1.1,2.2-2.8,13.8-3,16.9-.9,11.9,2.5,40.2-1.8,49.2-1,2.1-9.4,12.7-11.3,13.7-5.2,3-7.5.4-12.4.6-19.6.7-27.5,18.6-32.1,35-3.1,11-3.9,28-8.3,37.7-5.3,11.7-31.3,42.5-41.2,51.8-2.6,2.4-8.2,7.4-11.5,7.5-3.8.2,1-8.2-3.5-7-7.3,14.4-22.4,34.7-20.1,51.5.7,5.2,5.3,6.2,9.9,4.8,8.6-2.7,27.2-27.4,33.6-35.4,28.5-36,56.8-75.1,83.4-112.6,18.6-26.2,41.4-56.4,56.4-84.6,3.5-6.6,11.8-22.4,3.8-28.1-5.2-3.7-11.2,1.8-16.4,3.5-9,2.8-14.2,2.1-22.3-2.7-1.6-1-1.2-2.2-1.2-2.3h0ZM765,1818c.4-1.5-.4-1.7-1-2.5-6.5-9.3-23.8-23.7-32.5-33.5-71.9-80.4-136.5-177.8-177.2-277.8l-12.2-36.2c-4.7,16.4-15,35.2-17.6,51.9-3.5,23,16.6,69.7,26.7,91.4,37.4,80.5,92.9,157.9,156.9,219.1,5,3.1,13.4.3,19-.9,12.9-2.9,25.3-7.9,38-11.5h0ZM1283,1818c12.7,3.6,25.1,8.6,38,11.5,5.6,1.3,14,4.1,19,.9,64-61.2,119.5-138.6,156.9-219.1,10.1-21.7,30.2-68.4,26.7-91.4-2.6-16.7-12.8-35.6-17.6-51.9l-12.2,36.2c-40.7,100-105.4,197.4-177.2,277.8-8.7,9.8-26.1,24.2-32.5,33.5-.6.8-1.4,1-1,2.5h-.1ZM668.3,1813.7c-35.5-39.8-69.7-81.4-94.9-128.6-20-37.5-36-77.1-53-116-9.5,9.5-7,18.8-3.2,30.2,3.2,9.8,8.4,20.9,12.6,30.4,25.8,59.3,64.7,129.4,111.6,174.4,8,7.7,18.8,16.6,30.5,13.9.5-2.7-2.5-3-3.6-4.3M1376,1818c12,2.7,22.9-6.6,31-14.4,41.3-39.9,76.4-99.4,100.8-151.2,7.6-16.1,17.4-36.4,22.9-53.1,3.7-11.4,6.2-20.8-3.2-30.2-24.4,55.6-46.8,113.2-81.7,163.3-18.9,27.1-45,59.4-68.2,82.7-.9,1-2,1.2-1.6,3h0ZM853,1643l23.5,46c1.7,1.9,10.1-2.1,9.3-5.3-9.3-16.3-9.5-39-32.8-40.7M1194,1644c-6.8.3-13.6,3.4-17.4,9.1-2.9,4.3-11.5,24.6-13.1,29.9s3.8,5.8,8.5,7l22-46ZM586,1754l-34.2-56.3-25.3-49.7c-4.4,4.4-7.9,9-7.5,15.4,1,18.2,36.3,69.3,49.5,83.5,5.7,6.1,8.7,11.2,17.5,7h0ZM1462,1754c8.8,4.2,11.8-.9,17.5-7,13.2-14.2,48.5-65.3,49.5-83.5.4-6.5-3.1-11.1-7.5-15.4l-25.3,49.7-34.2,56.3h0Z"/></g><g id="03_Mouth" data-trait="scrappy"><path id="fill-muzzle" class="fill"  fill="#fff" d="M1038 1292s-.4 1.7.7 2c10.3 2.8 18 4.3 25.8 13 1.9 2.2 4.9 8.8 6.5 9.5 2.6 1.2 6.6 0 9.5.5 11.4 1.5 21.2 3.7 31.2 9.8 2.1 1.3 9.2 7.8 10.2 7.1.3-.3 0-1.7 0-1.9 2.4-1.8 32.7.6 38 1 5.2 4.2 13.2 5.5 19.2 8.3 13.7 6.4 22.5 16.1 29.9 29.1 8.4 14.6 7.7 17.8 3.1 33.4-2.5 8.5-4.8 21.8-16.3 20.2 1.5-15.5-14.8-32.4-26.5-41-3.2-2.4-11.3-7.2-6 0 10.8 14.7 20.2 14.8 21.5 37.5.6 10.3-8.4 32.9-15.4 40.5-.6.7-7.1 6.3-7.6 6.5-3 1.6-6.9-6.1-7.8-8.2-3.6-7.8-4.7-15.5-9.7-23.3-1.1-1.7-10.8-13.7-12.4-12.1 5.6 13 9 46.2-2.5 56-4.4 3.7-9.4 1.9-13.3 3.7-2.8 1.3-3 5.7-4.8 6.1s-7-3.1-9.4-3.5c-8.9-1.3-13.2 17-18.7 17.5-2.5.2-10.7-11.9-18.4-9.4-7 2.2-15.4 21.2-24.4 23.6-6.3-6-3.4-14-5.8-21.2-1.2-3.5-4.2-6.7-5.8-10.2-5.4-12.7-2.8-19.9-.2-32.2.6-3 0-5.9.9-9.1.2-.7 6.3-12.3 6.9-13.1 3.7-5.4 19.2-12.4 22.7-3.8.9 2.2 0 8.7 2.2 7.7 5.1-4.9 10.2-9.9 15.5-14.5 11.5-10 14.1-9.7 21.2-24.8 1.5-3.3 6.5-14.5 6.6-17.3 0-3.4-9.2-14.7-11.8-17.8-1.4-1.7-9.5-11.5-10.2-11.8-6.4-3.2-28-2.3-34.7.8-7.9 3.6-12.5 12-19 17-1 .8-1.3 1.9-3 1.5l.8-12.7c3.6-4.3 21.7-23.3 21.1-27.5-.4-2.6-11.3-13.4-12.9-11.7 4.4 12.8.7 8.7-7.3 12.2-1.2.5-2.9 2.7-3.2 2.7s-2-2.2-3.2-2.7c-3.4-1.5-9.7-.4-9.3-5.6 0-1.1 4.1-7.6.5-6.6-2.8.8-12 9.9-11.3 13.2 0 .6 4 7 4.8 8 1.5 2 5 5.9 7 8.3 3.2 3.9 9.7 7.6 9.9 13.1 0 1.6-.8 3.1-.8 4.8s2.6 8.1-2.5 3.6c-6.2-5.3-10.2-13.6-18.5-17.5-6.5-3-30.3-4.3-35.7-.2-.8.6-8.8 10.5-10.2 12.2-2.4 3-10.9 13.7-10.8 16.8.2 5.4 11.7 29 15.7 33.2 3 3.2 9.3 6.8 13 9.9 5 4.3 9.7 9.1 14.5 13.5l4.2-11.1c4.9-3.1 17.7 2.6 20.8 7.1 1 1.5 5.1 9.9 6 11.9 2.8 6.4 5.1 25.4 4.4 32.4-1.1 10-7.9 15-9.4 22.6-1.3 6.4 1.1 14.9-5.8 18.9-8.1-2.6-17.3-21.5-23.6-23.5-8.2-2.6-15.9 9.6-18.4 9.4-5.3-.4-8.7-14-13.9-16.1-6.9-2.8-11.5 2.7-14.1 2.1-1.8-.4-2-4.8-4.8-6.1-4.5-2-9.6.3-14.3-4.7-10.9-11.5-6.5-42.2-1.5-56.1-9.1 6.7-14.1 14.8-18.5 25-1.6 3.6-2 7.5-3.7 11.3-1 2.1-4.9 9.8-7.8 8.2-.4-.2-6.9-5.9-7.5-6.5-3.9-4.3-13.8-24.4-15-30-2.8-12.9 1.4-26.5 9.5-36.5 4.1-5.1 11.3-9 13-15.5-2.4-2.4-22.3 17.4-24.4 20.1-5.4 6.8-11 15.9-9.6 24.9-8.3.5-10.7-3.3-13.3-10.2-2.7-7.1-7.8-22.8-6.2-29.8 3.7-16.2 21.4-35.8 36.3-42.7 6.2-2.9 13.9-4.1 19.2-8.3 12.5-.8 24.5-2.3 37-1 0 0 .7 2.1.5 3 9.5-8.2 20.6-14.8 33.1-16.9 4.7-.8 14.8-.4 18.1-1.8 1.6-.7 5.2-7.7 7.2-9.9 8-8.4 15.2-9.7 25.4-12.5 1.1-.3.6-1.9.7-2 1.1-.7 25.9-.7 27 0v.2Z" class="fill" data-original-prefix="fill"/><path id="fill-teeth14" class="fill"  fill="#fff" d="M1039.1 1601.9c-.8-.5-7.2-15.4-7.9-17.6-4.2-13.6-7-37.9-1.5-51.1 5.8-13.9 10.8-1 20-5 1.9-.8 7.6-6.8 9.2-8.8 2.6-3 3.6-9.1 8-8 12.8 3.1 21.1 24.2 22 36.1 2.3 30.4-23.4 40.7-45.2 53.7-1.2.5-3.6 1.3-4.6.6Z" class="fill" data-original-prefix="fill"/><path id="fill-teeth13" class="fill"  fill="#fff" d="M1015.7 1527.3c10.2 8.9 6 44.1 2.3 56.2-1.9 6.4-6 12-8.1 18.3h-2.3c-12.1-7.1-26.3-12.4-36.1-22.9-9.1-9.8-12.3-17.9-11.5-31.5.8-11.8 9-32.3 21.2-35.9 4.8-1.4 5.7 4.5 8.2 7.4 1.8 2.1 8.3 8.8 10.5 9.5 6 1.9 12.5-4.1 15.8-1.3z" class="fill" data-original-prefix="fill"/><path id="fill-teeth12" class="fill"  fill="#fff" d="M904 1461c0 2.2-1.1 3.8-.8 6.2s7.4 22.5 8.8 24c3.7 4.1 11.1 2.3 15.9 2.9 4.9 13.5-4.3 23.9-8.6 35.6-2 5.3-8.4 33.1-12.8 34.3-3.3.8-11.7-18-12.8-21.2-6.8-20.9-8.8-51.8 1.8-71.7.6-1.2 7.1-11.6 8.4-10.1Z" class="fill" data-original-prefix="fill"/><path id="fill-teeth11" class="fill"  fill="#fff" d="M1144 1564c-1 .7-1.8-.4-2.4-1.1-5.8-5.8-8.7-24.8-11.8-33.2-4.3-11.7-13.8-21.9-8.6-35.6 18.6 2.9 18.2-8.8 23.1-22.4l2.2-9.8c10.2 11.1 15.2 27.6 14.6 42.5-.5 13.7-3.2 35.3-9.5 47.5-.8 1.5-6.9 11.6-7.5 12Z" class="fill" data-original-prefix="fill"/><path id="fill-teeth10" class="fill"  fill="#fff" d="M949 1569c5.5 22.1 11.4 45.4 9 68.5-.5 5-1.3 9.2-7 6.9-3.4-1.3-17.5-13.4-19.5-16.5-7.4-11.8.3-39.7 8-50.8 1.2-1.7 7-10.1 9.4-8.1Z" class="fill" data-original-prefix="fill"/><path id="fill-teeth9" class="fill"  fill="#fff" d="M1100 1569c3.4-2.9 13.3 14.1 14.5 17 4.8 11.7 9.3 33.5 1 44-2.1 2.7-18.5 16.5-20.9 15.9-1.9-.4-3.4-6.5-3.6-8.4-1-8.7 0-26 1-35 1.1-10.9 6.5-22.5 8-33.5" class="fill" data-original-prefix="fill"/><path id="fill-teeth8" class="fill"  fill="#fff" d="M1167 1547c.9-6.7-1-15-.6-21.3.3-6.3 3.7-14.6 3.6-21.2 0-5.7-4.8-19.5-4-24 .5-2.9 3.5-2.8 5.5-4.5 6.2-5.3 10.4-15.8 16.9-4.9 14.2 23.5-1 56.5-18.4 74.4-.9 1-1.3 1.9-3 1.5" class="fill" data-original-prefix="fill"/><path id="fill-teeth7" class="fill"  fill="#fff" d="M881.7 1478.3c3.3 2.9-2.8 21-2.8 26.2s2.6 12.6 3.1 18c.7 8 0 16.5-.5 24.5-1.8 0-11.7-13.3-13.3-15.7-11.2-16.8-20.3-43.7-7-61.7 6.2-8.4 9.7.9 14 4.7 2 1.9 5.7 3 6.6 3.9Z" class="fill" data-original-prefix="fill"/><path id="fill-teeth6" class="fill"  fill="#fff" d="M1018 1613v16.5c0 .9-10.8 13.2-11.9 14.1-6.3 4.8-8-2.6-10.6-5.5-5.5-6-17.9-.4-24.4-5.6-.9-.7-4.1-8.3-4.1-8.9v-24.5c12.3 3 28.7 18.5 41.4 16.9 3.5-.4 6.1-3 9.6-2.9Z" class="fill" data-original-prefix="fill"/><path id="fill-teeth5" class="fill"  fill="#fff" d="M1102.5 1494c3.3-.8 5.3 8.5 6.3 10.7 5 10.5 15.3 30.3 11.4 42.1-2.2 6.7-15.6 23.4-20.4 11-4-10.4-4.1-44.7-1.1-55.5.4-1.6 2.4-7.9 3.8-8.2Z" class="fill" data-original-prefix="fill"/><path id="fill-teeth4" class="fill"  fill="#fff" d="M917 1563c-1.6 13.5 2.8 27.4 2 40.5-.5 8.8-4.2 18.6-5.5 27.5-5.8-5.6-10.5-15.7-11.4-23.6-.6-5.2.7-25.8 2.4-30.3.6-1.6 10.5-16.2 12.4-14.1Z" class="fill" data-original-prefix="fill"/><path id="fill-teeth3" class="fill"  fill="#fff" d="M1135 1631c-.4-8.9-4.4-17.8-5.1-26.5-1-13.6 3.6-27.7 2-41.5 2.2-2.4 11.9 13 12.5 15 2 6.8 2.7 27.3 1.2 34.3-1.3 6.3-5.5 14.8-10.8 18.7z" class="fill" data-original-prefix="fill"/><path id="fill-teeth2" class="fill"  fill="#fff" d="M1154.1 1604.9c-3.4-2-5.1-22.3-3.9-26.2.8-2.6 8.9-5.2 10.2-8.8l5.1-10.9c3.8 3.4 5.1 7.2 4.3 12.2-.7 4.5-5.2 22.3-6.9 26.2-.9 2.2-6.1 9-8.8 7.5" class="fill" data-original-prefix="fill"/><path id="fill-teeth1" class="fill"  fill="#fff" d="M885 1559c.4.4.7 7.1 3 10.5 2.7 3.9 10.5 6.9 11 10-.8 4.7-.7 23-4 25.4-2.5 1.8-7.7-4.5-8.7-6.7-1.6-3.6-6.3-22.5-7-27-.6-3.9 2.5-15.6 5.8-12.3Z" class="fill" data-original-prefix="fill"/><path id="outline-shading-mouth2" class="outline"  fill="#000" d="M918 1443.5c.8 5.3 5.6 13.8 10.1 16.9 11.5 8.3 16.2-.3 22.4-9.4 2.5 5.4 3.4 11.5 6 17 1.4 2.8 5.7 12 7.5 5.5l4-11.5c1.6 7.5 6.3 15.4 11.5 21 4.3 4.7 18.8 15.4 24.6 9.6 2-2.1 8.3-17.9 10.8-22.2 1.2-2.2 7.8-13.8 9.7-13.3 1 .2 8.5 13.2 9.7 15.3 2.4 4.5 7.3 17.7 9.8 20.2 3.8 3.8 10.5.4 14.4-1.8 10.5-5.9 18.5-17.2 21.7-28.8l4.2 12.3c.3 1.2 1.9 2.4 2.8 1.7.6-.4 5.8-11.3 6.5-13 .8-2 2.8-12 4-12 6.8 10.7 12.9 18.4 24.5 7.5 8.6-8 9.3-23.8 7-34.5 3.5-3.1 21.1 16.1 26.6 16.9 9.1 1.4 17.6-11.8 19-19.9 3.5-20.5-12.9-39.2-30.9-46.2l-12.7-4.8c15.4 0 28.2 2.9 41.1 11.4 4.8 3.1 12.2 10.9 17.6 11.4 6.2.6 10.1-4.1 10-10-.4-19.3-25.8-38.1-39.7-48.8 15.4 2.4 34.6 11.8 45 23.5 7.8 8.8 19.1 25.1 19.1 37s-6.4 28.5-9.2 32.8c-3.3 5.3-11.7 5.4-13.4 10.6-.9 8.1-2.1 16.4-2.5 24.5-1.5 29 1.4 45.2-10.8 73.2-3.6 8.2-12.7 20.4-14.9 27.1-4.2 12.8-.7 26.4-9.1 38.9-3.2 4.8-8.4 6.7-11.2 10.8-1.7 2.5-2.4 6.1-4.2 8.8-4.5 6.7-14.6 23-21.6 8.9-1.6-3.3-1.3-12.9-6.7-6.2-1.4 1.7-1.9 4.4-3.5 6.5-3.7 4.7-17.7 19.6-23.5 19.5-2.2 0-4.5-4.1-6.6-5.4-7.9-5-21.1-6.3-29.2-1.4-7.3 4.4-9.5 13.6-18.1 6.8s-6.4-10.8-20.1-9c-5.6.7-11.4 12.6-16.9 12.1-2.8-.2-11.4-11.1-18.5-12.6-6.3-1.3-17.5.7-23 4.2-2.6 1.7-4.1 5.6-7.5 5.4-5.7-.3-19.8-15.8-23.6-20.5-1.2-1.5-4.4-10.6-7.1-6.9-2.5 3.4-.6 9.9-7.2 12.7-7 3-14.9-11.2-18.1-16.4-1.2-1.8-1.2-4.3-2.6-6.4-2-3-6.8-5.4-9.5-8.5-10.4-11.9-6.7-27.7-10.7-41.3-.8-2.6-5.6-8.5-7.3-11.7-18.4-35.7-16.4-45.6-18.4-84.6-.4-7.7-.6-20.7-2.2-27.8-1.5-6.2-11.1-6.1-14.2-11.8-3.4-6.1-9.3-29.6-8.6-36.4 1.2-10.3 16.2-31.2 24-38 10.5-9.2 26.2-16.5 40-18.5l-21.5 17c-7.2 6.4-26.8 32-14.8 39.9 9 5.9 16.7-4.5 23.7-9.1 12.7-8.4 25.3-11.8 40.7-11.8l-17.3 7.2c-18 9.4-33.1 32.7-22.1 52.8 1.7 3.1 8.6 10.4 12 11.1 9.1 1.7 20.7-15.4 29.5-18 .6 6.4-.9 14.3 0 20.5zm-37.1 40.6c-12.3-.5-17.1-20.2-22.8 1.5-3.4 13 1.2 26.4 9.4 36.5 1.5 1.8 12.7 13.1 13.9 12.9.8 0 2.5-2.3 2.8-3.2 2.9-7.1-3.2-12.2-4.2-19.2-1.5-9.8 0-18.7.9-28.4Zm301.8-8.9c-3.2.8-6.3 6-8.8 7.3-2.1 1.1-7.2 1-7.8 3.2-.5 1.7 3 10.8 2.9 14.8 0 3-1.5 13.9-2.2 16.8-.9 3.6-3.9 5.7-3.9 10.2s1.4 7.1 3.7 7.4c1.9.3 15-14.4 16.8-17 5.7-8.5 9-18.8 7.3-29.2-.5-3-4.4-14.5-8-13.6Zm-284.8 10c-4-2.3-6.5 9.9-6.8 12.5-1.2 10.5 3 38 8.7 47.1 1.9 3 5.4 6.9 9.2 7.3 3.7-15.6 12.6-29.2 21-42.5-2.3-.4-1.7-2.9-2.7-3.5-1.5-.9-7-1.9-9.7-3.1-4.7-2.2-12-7.7-15.6-11.4-1.2-1.2-3.8-6.2-4.2-6.3ZM1139 1552c8.3-2 11.9-12.2 13.9-19.6 3.1-12.1 6.1-33.4 1.1-44.8-3-6.9-5.8 1.7-8.3 4.1-3.9 3.8-11 9.3-16 11.6-2.5 1.1-7.8 1.8-9.1 2.7-.7.5-.5 1.8-1 2.7-.3.4-1.7.4-1.6.9 0 1 7.9 12.3 9.2 14.8 4.8 8.8 9.1 18 11.8 27.7Zm-197.7 5.7c8.1 8.1 9.5 0 10.5-7.3.8-5.6 2.7-20.6 1.7-25.4-3.6-17.2-21.3-15.9-21.6 3.6 0 6.8 4.6 24.3 9.4 29.2Zm161.5-44.5c-5 1.3-8.5 9.3-8.8 14.2-.2 4 2.4 28.5 3.8 31.3 2.5 5 7.5 0 9.8-2.7 6.8-8.3 11.6-30.7 4.5-39.5-2.7-3.3-4.8-4.4-9.2-3.3zM1023 1544c-.7-.7-.8-7-5.1-9.4-8.9-5-21.8-.8-32-4-10.4-3.3-9.4-13.1-16.1 1.8-2.9 6.4-9.1 24.4-6.3 30.7 1.1 2.4 17.8 15.6 21.2 17.8s18.2 11.7 21.1 10c3.1-5.6 9.3-9.5 12.6-14.9 1.8-2.8 4.1-11.5 4.6-11.9 1.6-1.7 1.7.5 2.1 1.4 1.6 3.6 2.1 6.8 4.5 10.5 3.3 5.2 9.2 9.3 12.4 14.6 3.1 1.9 15.5-5.9 18.9-8.1 4.5-2.9 22.9-17 23.9-21.1 2.2-9.7-6.6-28.3-10.9-37.2-4.9 1-7.8 5.2-12.7 6.7-9.2 2.8-28.2-1.6-33.7 6.3-.9 1.2-2.6 8.9-4.5 7zm-136 18c-.7-.6-3.5 0-4.5.9-6 6.2 2.4 31.6 14.6 27.6 4-1.3 3.8-9.4 2.8-12.9-1.1-3.9-7.2-4.1-9.8-7.2-2.1-2.5-2.7-8.2-3-8.5Zm274.1 0c-.3.3-.9 6-3 8.5-2.6 3.1-8.7 3.3-9.8 7.2-1 3.4-1.2 11.6 2.8 12.9 13.4 4.4 20.2-24.5 14.1-28.1-.9-.5-3.5-.9-4-.4Zm-216.4 7.2c-1.5.4-5.1 4.6-6 6.1-3.4 5.6-5.6 32.3-4.8 39.3 1.3 10.9 15.2 18 19.5 3.5 1.7-5.6 2.6-21.4 2.5-27.6 0-1.1-5.8-19.7-6.5-20.5-1.2-1.4-3.2-1.3-4.8-.8Zm153.3-.1c.2 6.6-5.4 14.7-6 20.6-.5 4.5 1 25.3 2.4 29.4 4.2 12.1 16.9 7.3 19.1-2.9 1.1-5.2 0-16.8-.6-22.6-1-9.7-1.7-25.5-14.9-24.5m-180 1.9c-20.5 3.8-17 28.7-9 43 4 2.9 10.4-17 10.7-19.8.9-7.5-2.9-15.5-1.8-23.2Zm218 43c2.5 1.8 7.2-9.1 7.7-10.8 3.9-12.8 1.6-30.1-13.7-32.2.5 7.4-2.8 16.2-1.9 23.4.3 2.7 6.4 18.5 7.9 19.6m-148.2 10.2c1.4.8 4.8 8.6 9.5 11 11.1 5.8 20.2-6.4 20.7-16.7.8-13.7-7.2-7.7-16.5-8.6-8.4-.8-15-4.8-21.8-9.2-5.5-3.5-13.6-14.6-14.7-1.4-.5 5.1 1.4 7.5 1.8 11.2s-2 5.9.5 10.7c4.8 9.3 18 1.3 20.7 2.8zm93.1-31.1c-2.1-1.5-19.7 12.7-23.9 14.4-2.3 1-7.9 2.3-10.5 2.5-10.5.9-18.8-5.4-16.4 11.4 1 7.3 7.9 15.8 16 15.1 9.4-.8 11.9-11.6 14.6-12.4 4-1.3 12.3 5.7 18.9-1.1 4.3-4.4 1.3-8.4 1.5-12.5 0-2.3 1.9-4.8 2-8.1 0-1.9-.8-8.5-2.2-9.4Z" class="shading" data-original-prefix="shading" opacity=".2"/><path id="outline-shading-mouth1" class="outline"  fill="#000" d="M1041 1343c6.1.5 12.7-1 17.5-5 1.5-1.3.9-3.7 2.8-2.9 10.1 7.9 37.9 17.4 43.8 28.2 3.6 6.5 4.6 17.5-1.8 22.6-5.6 4.5-20.8 10.8-28 15-4.9 2.8-9.7 6.6-14.7 9.3-7.4 4.1-25.5 14.5-32.6 16.4-2.9.8-5.2.8-8.1 0-14.5-3.8-42.2-22.5-56.3-30.7-6.2-3.6-21.2-9.1-23.2-15.8-5.5-18.4 15.7-28.3 28.7-35.4 2.3-1.2 15.5-8.6 16.5-8.7 2.9-.3 4.2 2.9 6.7 4.2 4.2 2.3 10 3.2 14.7 2.8-.3-5.1-3.3-11.3-1.8-16.3.5-1.6 12.5-13.9 14.5-14.4 3.9-1 8.2-.3 11.6 1.9 1 .7 10.8 11.1 11.2 11.8 2.1 5-1.2 11.8-1.5 17" class="shading" data-original-prefix="shading" opacity=".2"/><path id="outline-mouth3" class="outline"  fill="#000" d="M889 1333c-5.3 4.2-13 5.4-19.2 8.3-14.9 6.9-32.6 26.5-36.3 42.7-1.6 7 3.5 22.7 6.2 29.8 2.6 6.9 5 10.8 13.3 10.2-1.4-9 4.2-18.1 9.6-24.9 2.1-2.6 22-22.5 24.4-20.1-1.7 6.5-8.8 10.4-13 15.5-8.1 10-12.3 23.6-9.5 36.5 1.2 5.6 11.1 25.8 15 30 .6.7 7.1 6.3 7.5 6.5 3 1.5 6.9-6.1 7.8-8.2 1.7-3.8 2.1-7.7 3.7-11.3 4.4-10.2 9.4-18.4 18.5-25-5.1 13.9-9.5 44.6 1.5 56.1 4.8 5 9.9 2.7 14.3 4.7 2.8 1.3 3 5.7 4.8 6.1 2.6.6 7.2-4.9 14.1-2.1 5.2 2.1 8.6 15.6 13.9 16.1 2.5.2 10.2-12 18.4-9.4 6.3 2 15.5 20.8 23.6 23.5 6.9-4 4.5-12.6 5.8-18.9 1.5-7.6 8.3-12.6 9.4-22.6.8-7-1.6-26-4.4-32.4-.9-2.1-5-10.5-6-11.9-3.1-4.5-15.9-10.2-20.8-7.1l-4.2 11.1c-4.8-4.4-9.5-9.2-14.5-13.5-3.7-3.2-10-6.8-13-9.9-4-4.2-15.5-27.8-15.7-33.2 0-3.1 8.4-13.8 10.8-16.8 1.4-1.8 9.5-11.6 10.2-12.2 5.4-4.1 29.2-2.8 35.7.2 8.4 3.8 12.4 12.1 18.5 17.5 5.2 4.5 2.5-1.7 2.5-3.6s.9-3.2.8-4.8c-.2-5.4-6.7-9.2-9.9-13.1-2-2.4-5.5-6.3-7-8.3-.8-1-4.7-7.3-4.8-8-.7-3.3 8.6-12.4 11.3-13.2 3.6-1-.5 5.5-.5 6.6-.4 5.2 5.9 4.1 9.3 5.6 1.2.5 3 2.7 3.2 2.7s2-2.2 3.2-2.7c8-3.5 11.7.6 7.3-12.2 1.6-1.7 12.5 9.1 12.9 11.7.6 4.2-17.5 23.2-21.1 27.5l-.8 12.7c1.7.4 2-.7 3-1.5 6.5-5 11.1-13.4 19-17 6.8-3.1 28.3-4.1 34.7-.8.7.3 8.8 10.1 10.2 11.8 2.6 3.1 11.9 14.4 11.8 17.8 0 2.8-5 14.1-6.6 17.3-7.1 15.2-9.7 14.8-21.2 24.8-5.3 4.6-10.4 9.6-15.5 14.5-2.2.9-1.4-5.6-2.2-7.7-3.4-8.6-19-1.6-22.7 3.8-.6.8-6.7 12.4-6.9 13.1-1 3.2-.3 6.1-.9 9.1-2.6 12.3-5.2 19.6.2 32.2 1.5 3.5 4.6 6.8 5.8 10.2 2.5 7.2-.5 15.2 5.8 21.2 9-2.3 17.4-21.3 24.4-23.6 7.7-2.4 15.9 9.6 18.4 9.4 5.6-.5 9.8-18.8 18.7-17.5 2.3.3 7.6 3.9 9.4 3.5s2-4.8 4.8-6.1c3.9-1.8 8.9 0 13.3-3.7 11.5-9.9 8.1-43 2.5-56 1.6-1.7 11.3 10.4 12.4 12.1 5.1 7.8 6.1 15.5 9.7 23.3 1 2.1 4.8 9.8 7.8 8.2.4-.2 6.9-5.8 7.6-6.5 7-7.6 16-30.2 15.4-40.5-1.3-22.7-10.7-22.7-21.5-37.5-5.3-7.2 2.8-2.4 6 0 11.8 8.6 28 25.5 26.5 41 11.4 1.6 13.7-11.7 16.3-20.2 4.6-15.6 5.3-18.8-3.1-33.4-7.4-13-16.3-22.7-29.9-29.1-6-2.8-14.1-4.1-19.2-8.3 9.3.7 19.7 2.8 29.2 5.3 7.4 1.9 14.4 3.9 20.7 8.3 3.2 9.3 27.6 34.6 28 42 .2 3.7-8.2 22.5-10 27.9-2.5 7.2-2.6 16-10 21-1.9 1.3-8.4 2-9 3.2-4.1 7.9-1.4 38-1.9 48.8-1.1 21.6-7.6 43.1-20.5 60.5-.9 1.2-2.6 1.5-3.6 2.7-4.3 5.6-2.8 18.6-4.3 26.5-1.2 6-5 13.1-5.6 18.4-.4 3.5 1.3 7.7.8 9.7s-10.7 8.6-13.2 9.9c-2.2 1.2-5.7 1.5-6.5 2-.6.4-5.4 10.9-7.2 13.3-2.1 2.7-11.1 11.3-14 12.1-4.1 1.2-7.9-10.3-9.9-13s-2.3 2.3-3.6 4.3c-4.3 6.7-25.1 26.6-32.4 28.6-1.7.5-3.3.7-5 .5-.4-5.9 3.2-9.9-1.5-15.1-8.2-9-20.9-.3-24.3 8.8-1.8 4.9-1.6 20-8.6 18.1-4.6-1.3-20-25.6-23.2-30.8-5.7 8.9-12.2 19.9-19.5 27.4-11.2 11.7-9.9-11-13.8-18.2-3.8-7.1-14-12-21.1-6.7-6.7 5-2.9 9.6-3.1 16.4-3.5 3.5-24.3-13.8-27.5-17-1.3-1.3-10.5-12.2-11-13-.7-1.4-.2-6.3-2.6-3.3-2.1 2.7-6.2 14.3-10.2 13.3s-12-10.2-13.7-12.4c-2.1-2.7-6.6-12.8-7.2-13.2-.8-.5-3.8-.6-5.8-1.7-2.3-1.2-11.9-7.4-13-9-2.1-3.2.4-6.9 0-11-.7-6.8-5.9-15.3-6.8-24.2-.5-5 .6-10.7-.6-15.4-1-4-8-10-10.7-14.3-15.3-24.4-17.6-52.1-17.9-80.2 0-5.4 3-18.2 0-22.8-.8-1.2-7.8-1.9-10.4-3.8-7.2-5.3-6.2-13-8.6-20.4-1.9-6-10.7-24.3-9.8-28.7.5-2.7 4.3-7.5 6-10.1 7-10.8 15.7-20.6 22.5-31.5 5.9-4.3 13.2-6 20.1-7.9 9.7-2.6 19.8-4.7 29.2-5.3h.2Zm15 128c-1.4-1.5-7.8 8.9-8.4 10.1-10.6 19.9-8.6 50.8-1.8 71.7 1.1 3.3 9.4 22.1 12.8 21.2 4.4-1.1 10.8-28.9 12.8-34.3 4.3-11.7 13.6-22.1 8.6-35.6-4.8-.6-12.2 1.2-15.9-2.9-1.4-1.5-8.5-21.7-8.8-24s.8-4 .8-6.2Zm240 103c.6-.4 6.8-10.5 7.5-12 6.3-12.1 9-33.7 9.5-47.5.6-14.9-4.3-31.4-14.6-42.5l-2.2 9.8c-4.9 13.6-4.6 25.2-23.1 22.4-5.2 13.7 4.3 23.9 8.6 35.6 3.1 8.4 6 27.5 11.8 33.2.7.7 1.4 1.8 2.4 1.1Zm-262.3-85.7c-1-.9-4.6-2-6.6-3.9-4.2-3.9-7.8-13.1-14-4.7-13.3 17.9-4.1 44.9 7 61.7 1.6 2.4 11.5 15.7 13.3 15.7.5-8 1.2-16.5.5-24.5-.4-5.4-3.1-12.3-3.1-18s6-23.3 2.8-26.2ZM1167 1547c1.7.4 2-.5 3-1.5 17.4-17.9 32.6-50.9 18.4-74.4-6.5-10.8-10.8-.4-16.9 4.9-2 1.7-5 1.6-5.5 4.5-.8 4.5 4 18.3 4 24s-3.3 14.8-3.6 21.2c-.3 6.3 1.6 14.6.6 21.3m-64.5-53c-1.4.3-3.3 6.6-3.8 8.2-3 10.7-2.9 45.1 1.1 55.5 4.8 12.4 18.2-4.3 20.4-11 3.9-11.7-6.4-31.5-11.4-42.1-1-2.2-3-11.4-6.3-10.7Zm-86.8 33.3c-3.2-2.8-9.7 3.2-15.8 1.3-2.1-.7-8.7-7.5-10.5-9.5-2.6-2.9-3.4-8.8-8.2-7.4-12.2 3.5-20.5 24.1-21.2 35.9-.9 13.6 2.4 21.7 11.5 31.5 9.8 10.4 24 15.7 36.1 23h2.3c2.1-6.4 6.2-12 8.1-18.4 3.7-12.2 7.9-47.3-2.3-56.2zm23.4 74.6c1.1.7 3.4 0 4.6-.6 21.8-13.1 47.5-23.3 45.2-53.7-.9-11.9-9.2-33-22-36.1-4.4-1.1-5.5 5-8 8-1.7 1.9-7.3 7.9-9.2 8.8-9.2 4-14.3-9-20 5-5.4 13.2-2.6 37.5 1.5 51.1.7 2.2 7.1 17.1 7.9 17.6ZM885 1559c-3.2-3.3-6.4 8.4-5.8 12.3.7 4.5 5.4 23.4 7 27 1 2.2 6.2 8.5 8.7 6.7 3.4-2.4 3.2-20.7 4-25.4-.5-3.1-8.3-6.1-11-10-2.3-3.5-2.6-10.1-3-10.5Zm269.1 45.9c2.7 1.5 7.8-5.3 8.8-7.5 1.7-3.8 6.1-21.6 6.9-26.2.8-5-.5-8.8-4.3-12.2l-5.1 10.9c-1.4 3.6-9.4 6.1-10.2 8.8-1.2 3.9.5 24.2 3.9 26.2M917 1563c-1.9-2.2-11.8 12.5-12.4 14.1-1.7 4.6-3 25.2-2.4 30.3.9 7.9 5.6 18 11.4 23.6 1.4-8.8 5-18.6 5.5-27.5.8-13.1-3.7-27.1-2-40.5Zm218 68c5.3-3.9 9.4-12.4 10.8-18.7 1.5-7 .8-27.4-1.2-34.3-.6-1.9-10.4-17.4-12.5-15 1.5 13.8-3.1 28-2 41.5.7 8.7 4.6 17.6 5.1 26.5zm-186-62c-2.4-2-8.2 6.4-9.4 8.1-7.7 11.1-15.4 39-8 50.8 2 3.2 16 15.2 19.5 16.5 5.6 2.2 6.5-1.9 7-6.9 2.4-23.1-3.5-46.4-9-68.5Zm151 0c-1.5 11-6.9 22.6-8 33.5-.9 9-2 26.3-1 35 .2 1.9 1.7 8 3.6 8.4 2.4.6 18.8-13.3 20.9-15.9 8.3-10.5 3.8-32.3-1-44-1.2-2.9-11-19.9-14.5-17m-82 44c-3.5 0-6.1 2.5-9.6 2.9-12.7 1.6-29.1-13.9-41.4-16.9v24.5c0 .6 3.2 8.2 4.1 8.9 6.5 5.2 18.9-.4 24.4 5.6 2.6 2.9 4.3 10.3 10.6 5.5 1.1-.8 11.9-13.1 11.9-14.1v-16.5Z" class="outline" data-original-prefix="outline"/><path id="outline-mouth2" class="outline"  fill="#000" d="M1122 1332c-.2 0 .2 1.6 0 1.9-1 .8-8.1-5.8-10.2-7.1-10-6.1-19.8-8.3-31.2-9.8-2.9-.4-6.9.7-9.5-.5-1.5-.8-4.5-7.4-6.5-9.5-7.8-8.7-15.6-10.2-25.8-13-1.1-.3-.6-1.9-.7-2 3.1-3.8 16.2-9.3 20.8-9.8 7.9-.9 5.5 4.4 6.5 9.1 2.3 10.7 9.3 19.6 21.3 18.8 5.1-.3 5.6-4 7.9-4.1 1.4 0 6.6 2.9 8.2 3.8 9.4 5.2 15 12.5 19.3 22.2z" class="outline" data-original-prefix="outline"/><path id="outline-mouth1" class="outline"  fill="#000" d="M1011 1292s.4 1.7-.7 2c-10.2 2.8-17.4 4.1-25.4 12.5-2 2.1-5.6 9.2-7.2 9.9-3.4 1.4-13.5 1-18.1 1.8-12.5 2.1-23.6 8.7-33.1 16.9.2-.9-.5-2.8-.5-3 .8-2.7 8.7-13.3 11-15.6 2.5-2.4 14.7-10.5 17.6-10.4 2.7 0 3 5.1 11.9 3.9 10-1.3 16.2-10.1 17.5-19.6.4-2.6-2.4-6.7 2.8-8.2 3.5-1 21.7 5.6 24.3 9.8Z" class="outline" data-original-prefix="outline"/></g><g id="04_Eyes" data-trait="trooper"><path id="fill-eyes-main" class="fill"  fill="#fff" d="M1244.8 1350.8c-1.7.9-10.6-4.2-12.8-5.3-49.4-24.9-96.9-53.8-146.3-78.7-5-3-9.1 2.8-13.3 3.2-5.4.6-7.4-4.2-10.9-7-4-3.1-20.3-13.3-21.3-16.7-1.3-4.6.1-16.1-.2-21.8-.5-9.4-1.8-18.9-2.1-28.4-3.6-1.5-27.3-1.9-28 .5l-2.5 50.4c-6.1 6.4-14 10.7-21 16.1-3.7 2.8-5.2 7.3-10.9 6.9-4.5-.3-8.3-5-12.9-3.8-53 28.3-105.4 57.9-159.1 84.9-18.6-17.6-34-38.1-51.1-57.1-18.7-20.7-39.5-40.6-57.5-61.5-9.3-10.7-9.6-34.2-12.3-48.7-.7-3.6-3.1-18.6-4.6-20.4-2.8-3.4-10.3-.4-13.6-.6-2.4 0-12.6-5.9-15.2-7.6-5.7-3.7-32.3-26.1-33.8-31.2-1.2-4 1.5-10.3 2.8-14.3 10.6-31.8 38.3-80.4 63.7-102.3 3.2-2.7 15.8-12.3 19-13.1 3.7-.9 10.7 2.2 15 0 3.3-1.6 5.2-10 6.8-13.2 3.3-6.7 23.3-24.8 30.2-30.8 33.5-29.6 95-72.8 135.7-90.3 16.8-7.2 25.7-4.2 42.9-5.1 60.2-3 124.7-3 184.9 0 8.4.4 17.7-.8 26 0 20.9 1.9 79.8 41.3 99.2 54.8 26.6 18.4 46.8 35.8 70.3 57.7 4.4 4.1 8.8 5.1 11.9 11.1 1.8 3.6 4.4 14.1 8.1 15.9 4.3 2.1 11.3-1 15 0 3.3.8 15.9 10.4 19 13.1 25.4 21.9 53.6 71.1 64 103 2.1 6.4 4.9 10.7.5 16.5-6.1 8.2-36.8 34.5-46.2 35.8-3.6.5-11.4-3-14.4.6-1.5 1.8-3.9 16.8-4.6 20.4-2.7 14.4-3.1 37.9-12.3 48.7-18 20.9-38.9 40.8-57.5 61.5-12.9 14.3-24.7 30-38 44-4.1 4.4-8.9 8.1-12.7 12.8Z" class="fill" data-original-prefix="fill"/><path id="fill-eyes-pupil2" class="fill"  fill="#fff" d="m806.6 1195 77 43c2 3.2-8.3 13.8-11.2 15.8-24.4 17.7-59.4-.3-67.6-27.1-2.8-9.1-3.2-23.5 1.8-31.8Z" class="fill" data-original-prefix="fill"/><path id="fill-eyes-pupil1" class="fill"  fill="#fff" d="M1240.7 1195.1c2.7-.2 4.1 8.2 4.3 10.4 3.7 37.4-37.1 71.7-69.3 48.3-2.9-2.1-13.3-12.6-11.2-15.8z" class="fill" data-original-prefix="fill"/><g id="fill-eyes" class="fill" ><path id="fill-eyes4" class="fill"  fill="#fff" d="M797 1335c-.2.3-3.4-1.9-4-2.5-25.8-20.9-59.2-59.8-81.5-85.5-5-5.8-16.9-18.1-19.9-24.1-4.6-9.4-10-58.9-10.6-71.4-.3-7.5.8-13.4 3-20.5 1.6 0 1.6 3.4 1.8 4.7 4.7 23.4 6.7 47.5 10.9 71.1 31.3 34.2 66.7 64 101.3 94.7 2.2 2.5 0 5.4 0 8.1-.2 8.6-.5 17-1 25.5Z" class="fill" data-original-prefix="fill"/><path id="fill-eyes3" class="fill"  fill="#fff" d="M1251 1335c-.5-8.5-.8-16.9-1-25.5 0-2.7-2.3-5.5 0-8.1 34.6-30.7 70-60.5 101.3-94.7 4.2-23.5 6.2-47.6 10.9-71.1.2-1.3.2-4.7 1.8-4.7 2.2 7.1 3.3 13 3 20.5-.6 12.5-6 62-10.6 71.4-2.9 6-14.9 18.3-19.9 24.1-22.3 25.8-55.7 64.6-81.5 85.5-.6.5-3.8 2.8-4 2.5Z" class="fill" data-original-prefix="fill"/><path id="fill-eyes2" class="fill"  fill="#fff" d="m1241 1310-3 31c-2.2 2.2-34-13.2-39-15-.3-1.7 2.4-1.1 3.5-1 3.9.2 8.3 1.9 12 2 10.8.5 16.9-13.2 26.5-17" class="fill" data-original-prefix="fill"/><path id="fill-eyes1" class="fill"  fill="#fff" d="M848 1325c-.2 1.5-1.9 1.9-3 2.5-3.9 2.3-33.2 15.2-35 13.5l-3-31c.6-.7 6.6 4.3 7.5 5 2.9 2.4 10.5 10.6 13.5 11.5 6.2 1.9 13.6-2.2 20.1-1.5Z" class="fill" data-original-prefix="fill"/></g><g id="shading-eyes" class="shading"  class="st2"><path id="outline-shading-eyes5" class="outline"  fill="#000" d="M1222.1 1045.9c.7.5 4.8 0 6.9.6 3.4 1 8.2 3.7 12 5s15.5 3.2 16.8 6.2l5.2 89.3c40.5-18.7 80.1-39.2 119.6-60 7.6-1.1 20.2 10.6 26.7 15.2 7.9 5.6 30.9 14.8 10.7 22.2l-34.4 37.7c-9 1.3-16.5-4.6-17.6 8.9-1.4.3-2.4-.3-3.6-.9-8.4-4.1-19.3-14.6-28.1-19.9-1.8-1.1-11.3-6.2-12.6-6-36.9 21.7-75.9 39.4-113.8 59.3-32.1 16.9-63.5 35.2-95.3 52.7-4.7 2.6-16.9 7.2-20.1 9.9-2 1.7-1.4 3.8-1.6 3.9-.6.6-7-3-9.5-3.1-4.9-.2-6.5 2.5-10.1 3.1-6.6 1-6.3-2.4-10.5-5.4-4.5-3.2-21.4-14.1-22.7-18.3-1.7-5.7 1-16.7-1.2-23.3 2.3-2.4 14.3 11.6 18.2 9.8 65.4-24 127.8-55.2 190.8-84.4-2.7-21-2.3-42.9-5.2-63.8-.8-5.6-2.4-20.7-7.9-23.1-1.9-.8-4.2-.2-6-1-9.4-3.8-18.4-11-26.7-16.8-12.4-27.3-20.8-56.4-38.4-81-7.7-10.7-19.2-22.9-28.3-32.7-19.1-20.7-39.9-40.2-59.5-60.5 0-.8 14.1-5.9 15.9-5 17.9 17.1 37.2 32.8 55.1 50 15.8 15.2 24.5 24.4 35.2 43.8s20.8 42.3 30 63c1.5 3.4 8.9 23.8 9.9 24.5Z" class="shading" data-original-prefix="shading" opacity=".2"/><path id="outline-shading-eyes4" class="outline"  fill="#000" d="M812.2 1061.2c-.5.3-3.9 5.9-4.3 7.2-5.2 26.4-5.7 53.6-7.8 80.4 62.9 28.6 124.8 59.9 189.8 83.7 4.7 2.7 15.4-10.6 17.5-10.6 2.9 0 .6 7.1.5 8.5-.2 4.4.7 11 0 15-.9 4.7-18.3 15.8-22.9 19.1s-3.7 6.4-11.3 5.2c-3.1-.5-7.1-3.7-9.2-3.7s-8.6 4.8-9.5 3.9c-.2-.2.4-2.2-1.6-3.9-3.2-2.7-15.4-7.3-20.1-9.9-32.5-17.8-64.5-36.4-97.3-53.7-36.9-19.5-75.2-36.6-111-58.1-2.7-.7-10.4 4.1-13.3 5.8-8.5 5.1-21 16.6-28.7 20.3-5.4 2.5-2.7-6.1-6-8-3.8-2.2-11.3 1.4-14.5-.4-9.4-9.9-17.9-20.8-27.5-30.6-1.9-2-5.6-6.2-7.5-7.5-3.5-2.3-9.6-1.6-7.1-9 1.1-3.4 12.9-9 16.5-11.5 4.9-3.4 19.3-15.3 23.8-16.2 3-.6 4.8 0 7.5 1.1 9.6 3.8 22 12.3 31.7 17.3 28.1 14.3 56.4 28.2 85 41.5l5.5-90 29.2-10.8 6.2-.3c12.2-30 25.4-61.1 41-89.5 10.5-19.2 20.6-28.9 36.2-43.8 17.2-16.5 35.7-31.7 53-48 .7-.5 1.4-.4 2.2-.3.7 0 12.2 4 12.8 4.3 1.2.7 1.1 1.2 0 2-20 20.6-41.1 40.3-60.5 61.5-17.2 18.8-32.3 36.3-43.3 59.7-7.7 16.3-13 34.6-21.1 50.9-7.8 7.3-17.9 14.2-28 18-2 .7-4.6 0-5.8.7Z" class="shading" data-original-prefix="shading" opacity=".2"/><path id="outline-shading-eyes3" class="outline"  fill="#000" d="M1035 1195h-22c.1-4.6 2.5-12.1 2-16.4-.6-5.1-16.3-23.1-5.3-26.4 9.2-2.8 11.3 10.5 14.7 9.8 2.6-.6 7.8-16.3 15.7-8.5 7.1 7.1-5.5 17.5-6.8 23.3-1.1 4.8 1.3 13.1 1.8 18.3Z" class="shading" data-original-prefix="shading" opacity=".2"/><path id="outline-shading-eyes2" class="outline"  fill="#000" d="M1252.7 1292.3c5.5 4.6 7.4 40.3 3.4 45.3-2.8 3.4-8.4.5-8.6-3.5.3-12.3-3.7-25.5-2.4-37.6.5-4.6 3.7-7.5 7.7-4.2Z" class="shading" data-original-prefix="shading" opacity=".2"/><path id="outline-shading-eyes1" class="outline"  fill="#000" d="M798.8 1337.8c-3 3-6.9.9-8.1-2.9-1.8-5.8-.8-27.6.6-34.1 2.1-9.8 10.7-14.7 11.8-2.3.4 4.5-2.5 37.5-4.3 39.3" class="shading" data-original-prefix="shading" opacity=".2"/></g><path id="outline-eyes" class="outline"  fill="#000" d="M1017 1195c-.5 10.1-1.6 20.3-2 30.5-.3 6.5 1.3 20.7-.2 25.8s-27 19.7-31.4 25.6c-8.6 4.4-16.5-3.5-24.4-3.4-27.3 15.9-54.9 33.6-82.9 48.1-18.8 9.7-40.2 16.8-58.7 26.3-13.8 7.1-14.2 15.1-28.8.2-20.2-20.6-39.5-45.4-59-67-15.8-17.6-34.4-34.1-47.4-53.6l-10.1-60.4-3.5 9c-7.8-6.2-17-9.1-25.2-14.8-6.9-4.8-31.6-25.8-34.7-32.3-3.6-7.6 1.9-20.4 4.7-28.2 11.1-30.9 34.9-72.7 58.7-95.3 5.7-5.4 22.1-18.8 29.7-19.1 2.4 0 8.1 2.2 9.2 1.5 1.9-1.1 5.9-15.2 10.6-19.9 34.2-33.8 74.5-63.2 115.6-88.4 16.2-9.9 48.3-30.6 66.4-31.6 6.3-.3 11.9 1.2 18.1 1.1 19-.3 38.2-3.2 58-3.1 29.2.2 58.7.2 87.9 0 20.2-.1 39.6 2.8 59 3.1 6.2 0 11.6-1.4 18-1 16.6 1 41.1 16.5 55.8 25.2 43.8 25.8 80.9 53.4 117.7 88.3 4.6 4.4 8.8 5.2 12.4 11.6 1.4 2.6 5.1 13.8 6.8 14.8 1.1.7 6.8-1.6 9.2-1.5 5 .2 13 5.7 17.1 8.7 30.3 21.9 58.7 70.9 71.3 105.7 2.6 7.2 8 20.4 5 27.5-2.9 6.7-28 28.2-35 33-8.2 5.6-17.7 8.3-25.2 14.8l-3.5-9-10.1 60.4c-13.4 19.3-31.6 35.9-47.4 53.6-19.5 21.7-38.8 46.5-59 67-14.6 14.9-15 6.9-28.8-.2-19.2-9.9-41.1-17.1-60.7-27.3-27.4-14.2-54.4-31.3-80.9-47.1-3.8-1.6-6.7 2.1-10 3.1-14.3 4.4-14-.3-23.5-7.5-4.4-3.3-21.1-13.8-22.3-17.7-1.5-5.1.1-19.3-.2-25.8-.5-10.1-1.5-20.3-2-30.5-.7-12.4-2.2-24.9-1.8-37.3 22.2-18.9 47.2-35.4 71.9-51.1 33.5-21.3 68.1-41.5 103.9-58.6-14.6-29-28-59.3-45.6-86.9-11-17.2-22.3-29.9-36.9-44.1-13.2-12.9-34.4-33.7-49-44-2.1-1.5-4.3-2.9-7-3-26.9 2-57.6-2.6-84.1 0-3.6.3-5 1-8 3-9.8 6.8-23.3 20.1-32.5 28.5-20.3 18.6-38.5 36.2-53.4 59.6-17.6 27.6-30.9 57.7-45.6 86.9 30.3 14.2 59.4 31.1 87.9 48.6 30.3 18.7 60.7 38.3 87.9 61.1.4 12.4-1.1 24.9-1.8 37.3Zm-57-324c-11.2.3-22.4-.4-33.5 0-7.4.2-21.1.2-27.7 1.3-6.1 1-31.1 15.9-38 20-41.7 24.4-85.3 59.8-114.7 98.3-1.7 2.3-5.3 6.6-3.6 9.5l93.5 43c4.2-10.8 9.1-21.8 14.2-32.4 18.2-37.8 32.8-68 63.3-97.7 15-14.5 31.5-27.5 46.5-42m252 172 92.4-42.1c2.7-1.6 1.6-4 .4-6.3-2.6-5-18.1-22-22.8-27.2-29.2-31.6-64.9-58.6-102.4-79.6-5.8-3.2-25.4-14.8-30.4-15.6-6.6-1.1-20.3-1.1-27.7-1.3-11.2-.3-22.4.3-33.5 0 15 14.5 31.6 27.4 46.5 42 30.5 29.7 45.1 59.8 63.3 97.7 5.1 10.5 10 21.6 14.2 32.4m-392 6c-32.5-16.1-65.9-30.7-101-40.5-4.4-1.2-16.6-5.4-20.3-4.3-4.6 1.3-34.5 51.4-38.9 59.1-9.6 17-19.2 34.4-25.7 52.9l35.3 44.7c1.2-.7.2-2.9 0-4-1.3-9.2-3.9-20.8-6.2-29.8-2-7.9-4.2-17.2-9.3-23.7 5.6-.3 12.2 3.1 17.7 5.3 9 3.7 17.9 8.2 26.7 12.3 30.9 14.6 60.6 31.7 91.6 45.8 1.4-21.5 4.2-43 6-64.5 1-11.3 0-29.9 3.1-39.9 2.8-9.1 11.8-9.3 19.5-11.5 1.5-.4 1.7.6 1.5-2Zm558 112c4.3-5.8 36.4-42.5 35.8-46.3-.3-1.9-5.7-13.3-7-16.1-9.9-21.8-24.5-46.3-37.4-66.6-2.8-4.3-16.2-25.5-18.8-27.2-3.6-2.2-9 .2-13 1.1-37.9 9-74.6 26.2-109.6 42.9-.3 2.6 0 1.6 1.4 2 7.6 2.2 16.7 2.4 19.5 11.5 3.1 10.1 2.1 28.7 3.1 39.9 1.8 21.5 4.6 43 6 64.5 31.1-14.2 60.8-31.3 91.6-45.8 8.8-4.1 17.7-8.6 26.7-12.3 5.4-2.2 12.1-5.7 17.7-5.3-10.4 16.7-11.9 38.5-16 57.5Zm-383.3 87.7 15.2-82.4-.9-2.9c-36.4-25-73.2-49.3-111.4-71.6-16.9-9.8-35.2-20.7-52.7-29.3-3-1.5-8.2-4.8-11.3-4.1-1.7.4-12 5.8-13.4 7-5.7 4.7-8.1 16.6-9.8 23.7-6.6 27.2-10.3 55.1-13.4 82.9 59.8 29.5 117.8 62.7 177.9 91.7 1.1.6 1.9.4 3 0 3.5-1.6 11.7-13 16.8-14.8Zm233-183.4c-1.4-1.2-11.7-6.6-13.4-7-3.2-.7-8.4 2.7-11.3 4.1-17.4 8.6-35.8 19.5-52.7 29.3-38.2 22.2-75 46.6-111.4 71.6l-.9 2.9 14.6 81.4c4.7 2.4 13.9 14.2 17.4 15.8 1.1.5 1.9.6 3 0 60.1-29.1 118-62.2 177.9-91.7-3-27.8-6.8-55.7-13.4-82.9-1.7-7.1-4.1-19-9.8-23.7ZM797 1335c.5-8.5.8-16.9 1-25.5 0-2.7 2.3-5.5 0-8.1-34.6-30.7-70-60.5-101.3-94.7-4.2-23.5-6.2-47.6-10.9-71.1-.2-1.3-.2-4.7-1.8-4.7-2.2 7.1-3.3 13-3 20.5.5 12.5 6 62 10.6 71.4 3 6 14.9 18.3 19.9 24.1 22.3 25.8 55.7 64.6 81.5 85.5.6.5 3.8 2.8 4 2.5Zm454 0c.2.3 3.4-1.9 4-2.5 25.8-20.9 59.2-59.8 81.5-85.5 5-5.8 16.9-18.1 19.9-24.1 4.6-9.4 10-58.9 10.6-71.4.3-7.5-.8-13.4-3-20.5-1.6 0-1.6 3.4-1.8 4.7-4.7 23.4-6.7 47.5-10.9 71.1-31.3 34.2-66.7 64-101.3 94.7-2.2 2.5 0 5.4 0 8.1.2 8.6.5 17 1 25.5Zm-444.4-140c-5 8.2-4.7 22.6-1.8 31.8 8.2 26.7 43.2 44.7 67.6 27.1 2.9-2.1 13.3-12.6 11.2-15.8l-77-43Zm434.1.1-76.2 42.9c-2.1 3.2 8.3 13.8 11.2 15.8 32.3 23.3 73-10.9 69.3-48.3-.2-2.1-1.6-10.7-4.3-10.4M848 1325c-6.4-.7-13.9 3.5-20.1 1.5-2.9-.9-10.5-9.1-13.5-11.5-.9-.8-6.8-5.8-7.5-5l3 31c1.8 1.7 31.1-11.2 35-13.5 1.1-.7 2.8-1 3-2.5Zm393-15c-9.5 3.8-15.7 17.5-26.5 17-3.7-.2-8.1-1.8-12-2-1.1 0-3.8-.7-3.5 1 5 1.8 36.8 17.2 39 15z" data-original-prefix="outline"/></g><g id="05_Right Ear" data-trait="notched"><path id="fill-ear-rt" class="fill"  fill="#fff" d="m1650 375 21.9 15.6 9 8.1-5 97.7-42.3 137.7-32.6 49.4c-4 5.2-19.7-5.3-21.9-3.4-1.9 4.5-4.9 23.3-7.3 25.7-2.6 2.6-18.8 1.2-20.3 3.2l-16.4 57.6-102.1 56.9c-16.8 32-30.5 65.7-47.1 97.9l-82.3 65.8c-1.2.6-2.3.6-3.6.5-13.8-1-49.3-14.2-62-21-20.5-10.9-39.7-31.3-58.7-43.8l-24.5-38-.8-3.1 89.8-173.3c3.8-62 6.1-123.8 10.4-185.6l129.3-162.7 4.6-4.4 317.4-175.6c3.6 1.1 16.9 6.5 17.5 9.6-.8 28-.3 56.1-1 84.1-.3 14.4-1 29.4-2.3 43.7l-30.2 44.8-39.5 13Z" class="fill" data-original-prefix="fill"/><path id="outline-shading-ear-rt" class="outline"  fill="#000" d="M1626 352c14.1-.8 29.3-5.4 42-11.5 5.1-2.4 20.9-11.1 24.4-14.5 2.2-2.1 5-7.4 6.7-10.3 7-12.2 12.5-27 15.8-40.7l2 12.5 2 26-18.3 45.3-51.7 15.3 38.1 26.6-17.1 63.4-5.2-47.8c-22.4-10.8-37.5-32-47.3-54.2-25.9 44.1-43.9 92.3-40.5 144.5.9 13.4 7.2 30.2 2.8 42.8-1.1 3-3.1 5.7-4.2 8.8-4.4 11.9-9 24.3-10.5 37 11.2-3.5 17.1-11.9 23.4-21.1 15.8-23 25.2-48.7 39.1-71.9.7-1.1 1-2.8 2.5-3-7.2 32.9-18.2 66.1-31.5 97-8.3 19.2-18.2 36.5-30.5 53.5 8 .8 16.2 1.2 24 3s14.4 5.3 22 7.5c.2 1.2-.1 1.9-.5 3-.5 1.2-8.3 14.5-9 15.1-1.1 1-1.3.9-2.7.8-4.3-.4-23.8-8-25.7-6.8l-6.1 34.9c-6.7-.6-13.1-3.6-19.9-2.9l-30.3 81.2-2.7 5.3c-23.4 14.2-49.2 24.2-72.9 38.1l-56.3 89.7c-28.3 25.6-60 47.5-90.6 70.5-2.2.5-26.2-8.4-30.5-10.1-24.5-9.4-50.7-23.9-69.8-42.2-5.5-5.3-9.2-12.1-14.5-17.5-2.4-5 7.2-9.4 10.5-12.5 16.1-14.9 33.6-36.1 45.4-54.6 8.5-13.3 11.7-27.5 19.1-41.9 6.3-12.4 13.9-24.3 20.5-36.5 1.2-1.2 1.7-.2 2.6.5 3.4 2.8 6.9 8.3 10.5 11 1.9-11.8 7-21.1 8-33.5.3-3.4-.7-15.7.2-17.3.2-.4 6.5-4.5 7.8-5.7 30.4-28.4 51.9-61.2 61.9-102.1 6-24.3 5.7-48.7 8.1-73.4 6.3-.8 9.8 3 14.6 5.9l46.4 5.6c10.4 14.5 17.6 31.1 26.5 46.5 1-.5 10.5-11.3 11.3-12.7 3.9-7.3 8-27.2 9.9-36.1 8.5-39.9 9.6-76.2 8.3-116.7-.5-15 6.8-27.9 14.2-40.8 14-24.6 34.9-52 54.3-72.7 20.2-21.6 59.5-47.5 85.6-62.4 12.5-7.1 26.5-12.1 39.9-17.1-5.4 12.2-7.1 27.9-12.2 39.8-1.8 4.3-22.4 23-27.8 29.2s-17.7 20.6-21.1 27c-.6 1.2-1.4 1.9-1 3.5Zm-100 343c8.2-17.6 20.3-35.7 18.5-56-3.5 4-8.1 7.5-11.5 11.5-10.1 12.3-18.6 29.3-29.1 42-19.6 23.7-65.6 56.1-93.3 69.7-23.2 11.4-28 6.6-42.8 31.2-23.8 39.3-42.5 79.3-70.4 116.6-4.2 5.7-12.9 13.5-15.8 19.2-1.6 3.1-11.9 36.4-10.6 37.9 2.5-.7 5.5-3.3 7.5-5 18.6-15.8 38.6-36.6 55.6-54.5 13.9-14.7 30.5-30.8 39.2-48.8 6.9-14.5 12.7-29.7 19.1-44.4 10.6-4.1 21.9-5.5 32.8-8.8 30.4-9.2 59.4-27.7 85-46l24.9-69.1c-.7-4.9-7.2 6.4-8.9 4.6Zm29-27c-1.6-1.2-8.4 9.1-10 10.5l17 12.5c.9-1-5.8-22.1-7-23m-19.5 19v1c.7-.3.7-.7 0-1" class="shading" data-original-prefix="shading" opacity=".2"/><path id="outline-ear-rt1" class="outline"  fill="#000" d="M1201 939c-.3-.2-3.9-.4-6.1-1.5-5.2-2.6-14.2-7.8-17.9-12.1-10.7-12-18.5-31.2-29.5-43.5l-.5-8.4c16.4-32.2 27-70 43.1-101.9 3.4-6.7 8.3-11.6 12.3-17.7 33.7-52.8 38.3-147.5 41.6-209.4.3-6.6.3-23.8 2.6-28.4 43.1-62.1 88.8-122.2 141.4-176.6 28.8-29.8 67.6-52.7 103.3-73.6 60.1-35.2 146-76.2 213.7-92.3 4.6-1.1 22.4-5.8 25.4-3.6.9.7 4.3 15.2 4.6 17.6 4.2 31.6-.3 71.9-3 104-2.3 27.6-.5 58.1-28.7 73.3-11.7 6.3-27.1 10-40.3 10.2 2.8 7 32.7 20 33.8 23.7 1 3.4-2.8 14.6-3.5 19.1-2.8 16.4-7.3 47.9-4.1 63.5 2.3 11.1 6.7 11.3 4.3 24.8-9 50.9-31.8 106.5-56 152-6.3 11.9-15 28.7-22.7 39.3-.7 1-1.6 2.9-3.2 2.6-.8-.2-10.3-8.1-13.3-9.8-5.4-3-12-6.7-18.3-6.1-.6 10.1-4.2 19.3-7.1 28.8-4.9 1.7-12.1-4.2-16.2-2.8-7.2 2.4-20 65.1-23.2 74.8-17.8 12.3-35.5 25-54.4 35.6-7.7 4.3-18.5 8-25.4 12.6-13.4 9.2-31.7 44.4-38.1 59.9-2.8 6.6-4.4 14.5-7.3 20.7-5.8 12.5-26.4 24-37.2 33.8-15 13.5-28.6 29.7-43.4 43.6-2.3 1.4-20.6 4.8-23.6 4.5-10.6-1-50.2-16.6-59.3-22.8-1.5-1-2.6-1.8-2.7-3.8 43.4 18.1 71.5 7.3 103.5-23 37.3-35.2 63.7-79.8 83-127 30-21.5 65.3-34.7 93.9-58.1l24.6-68.4c2.8-4.9 15.1 2.6 17-.2 1.4-2 1.1-11.9.8-14.8-.6-5.5-3.4-10.4-4.9-15.6 6-1.5 12.3-.7 18.5 0 5.2.6 21.3 5.3 24 5 2.2-.3 4.5-5.1 5.9-7.1 25.9-38.6 51.8-112.7 58.3-158.7 3-21.1.8-44.1 3.3-65.7 1.1-9.4 3.8-18.5 5.1-27.9-13.4-6.9-30.2-20.9-36.2-35-5.1-11.8-.3-8.6 7.6-9.8 10.4-1.6 37.7-7.5 46-13 6.1-4 15.7-31.8 17.3-39.7 4.1-19.3 7.6-44 9.3-63.7 1.7-19.2 1.6-39.3 0-58.5-42 13.6-81.8 33.1-120.7 53.8-46.8 25-95.5 55-139.9 84.1-50.9 33.5-90.8 69.5-129.4 116.5-17.3 21-40 48-54.8 70.2-12.9 19.2-12.9 62.2-15.2 85.8-2.7 28-4.3 56-7 84-4.6 47.8-19.1 64.4-38.8 105.2-13.1 27.1-21.6 51.4-31.4 79.6-4.4 12.8-8.7 12.1-5.1 27.6 3 12.5 15.9 34.5 24.3 44.2.1.1 1.5.5 3 2-3.5 1.1-2.8-1.9-3-2Z" class="outline" data-original-prefix="outline"/><path id="outline-ear-rt2" class="outline"  fill="#000" d="M1422 736c3-6.8 6.8-13.1 9.5-20 11-27.9 12.1-62.7-8-87-11.8-14.3-18.7-10.9-25.3 4.8-9.2 21.9-12.2 46.7-15.1 69.7-.2 1.2 1.5 2.8.4 4.5-1.2 1.9-8.6 4.6-10.9 6.2-44.3 30.1-57.7 77.8-79.2 122.8-1.1 2.4-2.3 6.1-5.5 6-1.1-5.6-2.3-11.7-4.5-17-.4-.9-2.9-7.8-4.5-6-.9 1-4.3 22.4-4.8 25.7-1.4 8.6-1.6 19.5-3.4 27.6-1.7 7.9-11.5 24.5-14.8 34.2-4 11.8-8.6 27.5-6.9 39.9.7 4.7 4.3 9.8 4.9 14.6-1.4 1.4-11.6-6.6-13.4-8-5.6-4.3-10.8-9.2-15.3-14.7l2.3-31.3c4.5-10.8 24.3-28.9 27.1-38.9 6.5-23.9 7.8-59.2 22.3-80.7.6-.9 1.7-3.3 3.2-2.3 1.8 1.3 6.8 18.1 11.8 12.7 10.6-26.4 25.4-52.7 40.8-76.7 11.4-17.8 27.6-30.6 37-50 8.8-18.1 21.6-77 17.8-95.9-.8-4-10.4-27.1-9.3-28.1 7.5 2.8 14.7 6.9 21.7 10.8 6.4 3.6 31.7 17.7 34.8 22.2 3.4 5 10 27.9 12 35 2.3 8.3 6.6 35 11.4 39.5 13.2 12.3 30.8-13.9 36.2-23.9 26-47.4 33.3-96.7 25.7-150.1-1.2-8.7-7.4-28.3-6.7-35.9.4-4.2 10.1-25.1 12.6-30.4 28.3-60.6 71.1-97.4 118.2-142.9 14.6-8 29.1-16.2 44.5-22.4-5.6 8.8-9.5 21.8-16.5 29.5-4.7 5.2-14.4 9.3-20.4 13.6-39.6 28.8-70 65.2-89.9 110.1-14.5 32.8-25.8 88.9-11.3 122.7 1.2 2.9 6.7 10.6 6.3 12.3-21.1 26.7-33 58.8-41.6 91.5-3.1 12-4.9 31.6-9.1 41.9-1.4 3.4-10.3 13.4-13.2 16.8-13.6 15.6-28.5 25.4-46.3 35.7-3.1 1.8-22.9 13.5-24.7 11.8Z" class="outline" data-original-prefix="outline"/></g><g id="06_Left Ear" data-trait="lop-eared"><path id="fill-ear-lft" class="fill"  fill="#fff" d="M594.7 816.3c-2-1.6-9.6-2.2-11.2-.3-1.2 1.5-7.1 22-8.7 26.3-5 13.4-11.3 26.2-16.5 39.5-4.5 11.3-6.1 33.4-24.5 26-7-2.8-24.8-26.8-30-34-16-22.3-30.6-47.2-45.8-70.2-39-59.2-74.4-111.4-98.8-179.2-9.6-26.8-15.4-43.5 1.9-68.6 23.3-33.7 61.6-64.8 95.5-87.5 28.2-18.9 84.4-32 118.3-39.7 24.1-5.5 52.8-14.8 76.3-6.3 34.6 12.6 112.7 57.7 134.2 86.9 11.9 16.2 14.4 48.2 16.6 68.4 4.4 40.2 2.4 79.8 10.5 119.5 5.7 28.4 15.5 63.5 25.3 90.7 9.5 26.8 26.4 56.8 33.6 83.4 2.7 9.8 2.8 21.2 5.4 31.2-20.8 30.1-50.2 57.8-83.8 73.1-4.5 2-23.1 9.9-26.7 10.3-8.6 1-32.2-11.5-40.2-16.4-30.9-19-65.2-41.9-82.2-74.8-5.7-10.9-9.1-24.8-15-35-4.8-8.3-17.4-24.5-23.9-32.1-1.8-2.2-8.6-9.9-10.3-11.2" class="fill" data-original-prefix="fill"/><path id="outline-shading-ear-lft" class="outline"  fill="#000" d="M354 607c25 10.2 48.3 24.2 72.6 35.9 13.7 6.6 30.3 16 45.8 13.1 5.7-1 44-29.1 51.4-34.6 19.1-14.1 38.4-29 55.6-45.4 2.4-2.2 16.9-16.4 17.3-17.8.2-.7-.8-13.9-1-14.6-.7-2.1-5.4-2.5-4.8-5.7l112.4-.9c3 1.7 3.4 7.8 3.7 11.3 2.7 38-6.9 75.6 4.2 112.8 21 70.3 74.6 151.5 121.2 207.8 7.2 8.7 29.7 30.3 31.3 39.7 1.2 7.2-.9 6.5-3.2 11.4-7.5 16.4-34.7 36.9-50.7 46.3-9 5.3-27.2 14.4-36.9 17.2-1.4.4-2.6.7-4 0-24.5-12.8-50.2-23.4-74.5-36.6-30.1-44.6-58.6-90.2-95.4-129.6-2.7-2.4-13.6-3.8-15.6-1.4l-48.6 89.4c-2.6 4.2-8.5-3.4-10.8-5.9-25-26.8-47.5-67.8-68-99-14.6-22.2-30.2-43.3-43.8-66.2-23.6-39.9-44.2-83.1-58.2-127.3Zm423 360c-4.3-10.8-5.6-28.6-11.1-38.3-4.3-7.6-16.3-19.5-22.2-27.8-12-16.6-23.4-35.5-33.8-53.2-13.5-23.1-33.6-71.9-57.8-82.2-8.1-3.4-11.8-1.6-19.5-2.5-6.2-.7-12.2-2.2-18.4-2.9l-17.1 35.8c6.1 2.2 12 5.3 18.2 7.4 10.5 3.6 38.2 7.9 44.8 14.2 7.1 6.7 12.3 40.6 19.5 52.5 6.6 11 30 33.7 39.9 44.1 14.9 15.5 36.1 38.7 53 51 1.3 1 2.7 2.2 4.5 2Z" class="shading" data-original-prefix="shading" opacity=".2"/><path id="outline-ear-lft" class="outline"  fill="#000" d="M844 941c3.5-3.7 9.5-11.8 12.4-16.1 4.8-7.2 16.4-28.2 15.6-36.3-16.8-39-30.3-79.4-48.1-118-7.2-15.6-22.5-39.6-25.4-55.6-1-5.8 0-11.7-.5-17.5-3.3-45.1-7.7-135.4-25.5-174.5-3.3-7.2-25.2-24.6-32.6-30.4-33-26-70.9-45.4-110.4-59.7-68.6 7.7-172.2 32-218.5 86.6-11.6 13.7-35.4 43.8-42.8 59.2-2.8 5.7-1.1 5.2-1.1 9.9-.6 34.1 31 102.7 47.4 134.5 23.4 45.3 67.4 118.5 102.5 154.5 3 3.1 13.8 12.9 17.6 13.5 1.7.3 4.6-6.1 5.3-7.7 14.2-30 26.4-60.7 41-91 5.7-11.9 11.2-28.3 17.9-39.1 10.4-16.5 24.8-29.7 35.4-48.6 8.3-15 26.4-54.2 27.8-70.3.8-9.2-9.5-29.1-14.5-37.3-14.7-24.4-35.8-45.3-60.4-59.6-2.6-2.3 3.1-7.7 5.1-8.9 6.8-4.5 36.1-12.8 44.5-13.5 17.3-1.5 48.8 8.1 63.5 17.5 5 3.2 7.9 6.1 7 12.5-15-2.5-40.6-15.3-47.5 6-7.2 22.3 16.6 48.8 27.5 66.5l-7.8 55.7c4.9 9.7 11.4 18.4 18.3 26.7 10.7 12.9 16.5 19.9 25.3 34.7 27.2 45.4 45 96.6 73.8 140.2 5.2 7.8 23.4 29.6 24.3 36.7 1.1 8.3.3 18.2 1.9 26.7-1.8 3.8-26.4 25.2-28.8 22.7 1-5.6 4.4-10.8 5-16.5 2.2-21.2-16.5-60.3-26.5-79.5-23.8-45.9-52.8-93.3-86-133-5.4-6.5-16.8-16-20.5-22.5-1.2-2-1.5-4.3-2-6.5l-62 104c4.1 1.2 8.2 4.3 11.7 6.8 2.7 1.9 14.1 10 15.3 11.7 3 4.1 6.3 16.5 8.8 22.2 7.7 17.2 25.2 54.7 36.7 68.3 7.1 8.4 25.7 22.7 35 30 24.3 19.3 37.5 32 71 29 9.3-.8 17.4-5.9 26.5-6-10.1 6.5-41.4 22.8-52.5 23s-39.2-12.2-49.4-18.6c-13.5-8.5-21.1-19.2-32.6-29.4-11.3-10-27.4-17.4-33.7-31.3-7-15.8-10.7-29.5-19.7-45.3-6.6-11.7-14.4-24.6-24.7-33.3l-4.9 5.1c-15.5 20.1-21.9 45.4-27.1 69.9-3 14.1-5.4 28.6-5.5 43-2.8 3.2-28.5-20.2-31.5-23-80.1-74.1-140.5-192.9-177.2-294.8-2.9-8.2-11.2-27.8-12.1-35-1.2-10.5 17.8-49.1 23.6-59.9 8.7-16.2 21.8-38.5 33.7-52.3 17.9-20.8 63.6-38.8 89.5-49.5 41.3-17 119.9-46.1 163.2-35.2 14 3.5 51.2 30.2 65.3 39.7 21.7 14.6 45.1 30.3 65.4 46.6 5.8 4.7 23.5 19 26.2 24.8 4.2 9.2 1.4 36.4 1.9 48.1 2.4 62 10.9 128.3 38.9 184.1 5.6 11.2 13.7 22 19.1 32.9 6.1 12.4 10.3 26.9 16.3 39.7 9.2 20.1 20.9 33.1 21.8 56.2 0 2.2.4 4.4-.5 6.5-13.3 16.2-22 40.8-39.8 52.2-4.6 3-11.3 6.6-16.7 7.8Z" class="outline" data-original-prefix="outline"/></g><g id="07_Head" data-trait="shaghawk"><path id="fill-head-shaghawk" class="fill"  fill="#fff" d="M1056 802c2.9 2.8 45.8-30.2 50.5-34 15-12.5 28.4-26.5 41.5-41l-30.4 90c-3.2 4.4-6.3 10.1-10 14-3.4 3.5-20.8 14.9-21.5 16.5s.7 1.4 1.3 1.7c3.1 1.8 6.8 3.1 10 5 12.2 7.2 30 21.3 31.7 36.3 1.8 15.9-2.5 34.3-2 50.5l-6.6-9.9c-7.3-9-15.8-11.6-26.9-13.1-14.6-2-30.7-2.4-45.5-3l45.5 100c-19.4-5.9-38.8-12.7-56.5-22.5-19.1-10.5-34.5-21.3-37.9-44.1-2.1-14-1.5-30.3-.1-44.4-1.6-1.5-23.5 14.2-26 16.5-1.8 1.6-3.9 6.4-6 5-1.3-.8-5.4-10-6-12-4-12.9 3.5-37.3 7.3-50.8 2.2-7.8 5.1-15.2 7.7-22.8-6.8-.2-13.6.3-20.4 1.1-4.1.5-19.8 4.2-21.9 3.7-3.6-.8-6.8-16.8-7.4-20.6-2.8-16.3-5.5-42.6-3.2-58.7 1.7-12.1 8.6-24.8 14.5-35.5 10.3-18.8 23.3-38.4 38-54 .7 6.2-2.9 12.5-4.2 18.8-1.2 5.9-6 30.3-5.3 34.6.4 2.5 13.4 25 15.8 29.2 3.3 5.9 6.7 11.8 10.7 17.3 13.5-24.3 21.5-51.3 33.6-76.3 10.2-21 19.8-37.9 37.4-53.6 16.9-15.1 37-28.2 55-42 1.3.6 0 2.6-.5 3.5-22.5 50.1-49 98.8-57.7 154.3-2.1 13.3-2.4 26.9-4.3 40.2Z" class="fill" data-original-prefix="fill"/><path id="outline-shading-head4" class="outline"  fill="#000" d="M971 914c10.3-7.4 21.9-13.5 34-17 1.9 12.8 3.9 26.3 7.8 38.8 11.5 36.8 48 59 79.3 77.7-3 .5-7-1.1-10-2-22.3-6.7-71.1-27.5-79.8-50.2-5.2-13.6-4.8-37.1-4.3-51.8 0-1.9.8-3.6 1-5.4-1.5-1.5-29.5 17.2-30.5 22-2.4.6-7.2-11-7.8-13.2-3.6-12.4 3.9-37 7.6-50 2.2-7.8 5.1-15.2 7.7-22.8-6.8-.2-13.6.3-20.4 1.1-5.6.7-16.8 4-21.2 3.8s-7.6-17.5-8.3-21.5c-2.8-16.9-5.3-42-3-58.8.6-4.3 1.6-8.5 2.9-12.6 4 1.9 1.1 6.5 1 9.5-.4 14.8 1.5 32.3 5.3 46.7.8 3 4.5 15.5 5.8 17.2 2.5 3.4 19.8 7.2 24.4 7.6 6 .5 24.9-3.1 22 7-4.3 8.3-8 17-11.3 25.7-2 5.4-7.5 18.1-8.1 23-.8 6.6 5.6 18.1 5.8 25.2Z" class="shading" data-original-prefix="shading" opacity=".2"/><path id="outline-shading-head3" class="outline"  fill="#000" d="M1130 777c.2 1.7 0 3.4-.4 5-2.9 13-11.5 37-20.1 46.9-2.3 2.7-23.2 19.6-25.1 19.9-1.7.3-11.4-5.8-8.9-8.8 10.3-10.6 21.4-20.7 31.1-32 8.4-9.9 15.2-21 23.5-31Z" class="shading" data-original-prefix="shading" opacity=".2"/><path id="outline-shading-head2" class="outline"  fill="#000" d="m1127 941-9.4-13c-6.9-6.7-14.9-8.6-24.2-9.8-10.1-1.4-22.7-2.4-32.9-3.1-3.7-.2-10.8 1-13 .7-1.2-.2-1.7-1.5-1.4-2.7 17.2.8 35.4-2.5 52.5-1 8.3.7 14.1 4.3 20 10 5.4 5.2 10.2 11 8.5 19Z" class="shading" data-original-prefix="shading" opacity=".2"/><path id="outline-shading-head1" class="outline"  fill="#000" d="M1093.5 1014c.7.3.7.7 0 1z" class="shading" data-original-prefix="shading" opacity=".2"/><path id="outline-head" class="outline"  fill="#000" d="m1082 764 10-7.5c29.4-23.9 48.9-57.1 74.5-84.5 1.7-1.8 10.6-11.7 12.5-10-.3 2.6-1.5 5-1.9 7.6-5.9 43.9-17.1 89.3-32.1 130.9-6.6 18.4-10.6 35.8-32 41.5l22.5 16 13.5 12.7c.6 34.9-10.1 68.9-19 102.3-1.5 0-2.4.4-3.5-1-2-2.8-3.8-13.2-6.3-17.7-8.6-15.1-27.2-18.2-43.2-18.3-1.8 1.7 16.5 41.7 18.8 46.7 4.1 8.9 8.2 18.8 12.6 27.4 3.1 6.1 9.3 13.8 11.8 19.2.6 1.2 1 2.3.8 3.7-28 1.2-54.3-5.6-79.7-16.8-39.1-17.3-61.5-41.5-55.3-87.2-6.1 7.8-11 20.5-8 30.5-2.1 2.1-2-1-3-2-8.9-9.4-24.1-28.4-28.8-40.3-7.5-18.9.8-37 7.7-54.8-7-1.2-12.9 1.3-19.5 3.5-10.6 3.6-12 9.8-17.2-2.7-10.7-25.3-15.9-73.5-14.3-100.8s17.2-44.9 32.7-65.3c15.3-20.2 53.5-69.7 74-81 1.1-.6 3.4-2 4.4-.6-8.8 24.5-21.6 51.4-25.8 77.3-1.8 11.2-2.3 30.5 2.5 41 .6 1.3 0 1.6 2.2 1.3 3.1-16.5 10.1-33.2 16.8-48.7 20.6-47.6 36.5-60.2 79.3-87.7 26.5-17.1 54.8-31.4 83.4-44.6-10.1 16.1-21.3 31.7-30.7 48.3-27.8 49.1-50.9 105.9-59.8 161.7Zm-26 38c2.2-60 24.4-118.8 50.1-172.3 3.6-7.4 8.8-14.9 11.9-22.1.3-.8 2-3.8 0-3.5 0 2.5-3.3 2.7-5.4 4.2-31.1 21.9-60.5 43.3-78.8 77.2-16 29.6-25.6 62-41.3 91.7-4.2-7.1-8.6-14.1-12.7-21.3-2.5-4.4-13.4-23-13.8-26.3-.7-5.5 3.8-28.9 5.3-35.6 1.3-6 4.8-11.8 4.2-17.8-16.1 18.2-31 40.2-42 62-14.1 28-12.1 52.8-7.4 83.4.7 4.3 3.7 21.3 7.6 22.4s22.8-3.4 28.8-3.8c4.5-.3 9 .2 13.5 0-2.4 8.3-5.6 16.2-7.9 24.6-3.5 12.2-10.5 35.7-7.4 47.2.5 1.8 5.5 13.5 6.3 14.2 2 1.7 2.5-2.8 3.5-3.9 2.4-2.6 26.6-20.1 28.5-18-.3 8.9-1.3 17.6-1 26.5.8 27.2 4.5 39.3 27.3 54.7 19.8 13.3 44.8 22.6 67.7 28.8l-45-100c17.3 2.5 37.3 1.4 54.2 5.3 7.9 1.8 13 5.8 18.3 11.7l6.5 10 2.1-48.5c-1.8-20-26.1-36.9-43.4-43.4-2.4-1.9 1.5-2.6 3.1-3.8 30.1-22.9 29.2-30.2 41.3-64.7 5.9-17.1 11.4-34.3 17-51.5-26.7 28.1-55.6 56.2-91 73Z" class="outline" data-original-prefix="outline"/></g></svg>