<?xml version="1.0" encoding="UTF-8"?>
<svg xmlns="http://www.w3.org/2000/svg" viewBox="0 0 2048 2048">
<style>
  .outline { fill: #000000; }
  .fill { fill: #ffffff; }
  .shading { fill: #aaaaaa; opacity: 0.5; }
</style>




<g class="background"><path id="color-brown" fill="#564624" d="M2048 4.5q-.15 1019.4 0 2038.8c0 3.8-.8 4.6-4.6 4.6q-1019.4-.15-2038.8 0c-3.8 0-4.6-.8-4.6-4.6C.2 1362.3.1 681.2.1 0h2043.3c3.8 0 4.6.8 4.6 4.6z" data-original-style="transition:fill .3s ease" style="fill: #564624" class="color"/></g>
<g class="trait-group" data-category="jaw">
  </g><g class="trait-group" data-category="jaw"><!-- Generator: Adobe Illustrator 29.1.0, SVG Export Plug-In . SVG Version: 2.1.0 Build 142)  --></g><g class="trait-group" data-category="jaw">
  </g><g class="trait-group" data-category="jaw"><defs>
    
  </defs></g><g class="trait-group" data-category="jaw">
  </g><g class="trait-group" data-category="jaw"><path id="fill-jaw" class="fill" d="M1396.7,1438.7c-6.7,4.3-46.8-1.7-48.7.3l-12.2,69.8-57.2,29.3-1.4,1.6c-1.5,11.9,1.5,24.2.9,35.9-.3,4.9-1.3,15-2.3,19.7-.6,2.8-13.7,32.2-15,33.5s-16.1,8.9-16.7,8.3l-9.5-50-51,52c-7.7,5.7-20.7,9.3-27.5,15.5-14,12.7-25.2,37.4-42.1,47.9-5.4,3.3-61.3,25.7-66.7,26.3-13.8,1.7-33-3.3-47.7.2-17.7-10.3-50.1-16.2-66.1-26.9-14.3-9.6-28.3-35.6-41.4-47.6-6.7-6.1-19.9-9.6-27.5-15.4l-51-52-9.6,48.4c-.6.9-.9,1.7-2.2,1.5-.8,0-13.8-7.6-14.4-8.2-1.4-1.4-15.9-33.3-16.2-35.3l-.5-54.4-58.2-30.3-12.3-69.7c-8.1-1.2-45.1,3.9-49.5-1l-37.1-85-.5-3.4,31.5-70.6c5.3-1.6,29.1,0,31.3-6.7.8-2.3-.6-19.5-1.3-22.4-2.2-8.4-16.2-24-19.8-33.2-.7-1.7-1.2-3.1-.6-5,4.7-11.3,10.3-22.3,14.1-34,7.3-22.4,7.2-42.6,16.9-65.1,47.5-110.2,188.9-176,299.9-200.1,44.7-9.7,79.8-1.5,122.7,11.2,98,28.9,222.6,97.5,259,199,6.8,19,7,38.1,13.5,57.5,3.8,11.2,10.1,22.1,13.7,33.4,0,1.4-8.3,16.4-9.8,19.1-2.4,4.3-9.7,13.4-10.7,17.3-1.8,6.8-.6,15.6-2.3,22.5,9.9,7.9,21.3,4.2,32.4,6.5,9.6,23.9,23.5,46,31.4,70.6-9.8,26.3-22.2,51.8-33.2,77.7-1.3,3-1.7,9.3-5.1,11.4h0Z"/></g><g class="trait-group" data-category="jaw">
  </g><g class="trait-group" data-category="jaw"><path id="shading-jaw" class="shading" d="M1380.8,1185.8c-.2.4-2.1.7-2.8,1.7-8.6,10.8-16.2,26-21,39-4.2,11.4-5.1,22.7-13,32-18.8,22.4-51.8,45.5-78.3,57.7-5.4,2.5-12.5,3.7-16.7,7.8h20.5c2.7,0,5.1,1.2,7.9,1.1,18.1-.2,64.4-19.8,77.5-32.6,5.7-5.5,14.1-15.7,15-23.5,1.8,0,.7,2.4,1.5,4,3.1,5.9,15.5,5.2,21.5,6,.2,1.6-1.5.7-2.3,2.2-4.6,8.3-4.4,21.6-10.6,28.3-7.5,8.1-37.1,13.5-48.8,17.2-14.5,4.6-29.8,8.8-42,18.1l-52.8-14.8c-19.3-2.3-9.9,15.4-5.3,25.3,5.2,11.3,20.7,40,30.4,46.6,11.9,8.2,22.7-10.2,30-17,6.3-6,16.2-11.8,24.6-14.4,17.7-5.6,32.3,4.7,50.5,5.4,17.4.8,34.6-7.7,48.8-17.2,3.6-2.4,14.6-13.9,17.2-13.8,1.7,0,3.3,6.1,1.8,7.8-10.1,24.3-21.6,48-31.8,72.2-3.7,8.8-.8,14-13,15-9.3.7-15.8-1-24.2-1.8-4.8-.4-11.8,2.5-17.3-.2l-12.9,70.6-59,30.5c.4,11,2.6,23.6,2,34.5-.3,5.7-1.3,15.4-2.1,20.9-.5,3.1-13.4,31.4-15.4,33.6-3,3.2-11.6,6.2-15.5,9-.8-4.9-2.7-10.6-3-15.5-.6-11.2,2-11.3-2.7-23.2-.4-1.1-1.9-1-2.2-2-.8-2.2-.8-6.7-1.1-9.2l-2.3.2-50.2,51.8c-7.7,5.2-19.5,8.7-26.5,14.5-14.2,11.7-24.4,36.1-41.5,47.5-6.7,4.5-54.2,25.7-61.2,26.8-9.9,1.5-51.8,1.6-61.5,0-6.9-1.2-49.7-20.5-57.3-24.7-15.8-8.9-30.2-37.8-44.4-49.6-6.9-5.7-19-9.3-26.5-14.5l-51-52c-1,8.1-7.3,16-8.1,24-.6,6.2.6,14.6-.3,21.6-.2,1.7-3,1.8-2.1,4.4-.6.7-14.6-8.1-15.5-9-1.7-1.8-15-30.8-15.4-33.6-.7-4.4-.9-13-1.1-17.9-.5-12.2.6-24.4.5-36.6l-58.5-31.4-13-69.5-48.8-.2-38-86.6.9-6.2c8.2.4,11.8,8.2,18.6,12.7,25.3,16.9,38.4,19.8,68.5,13.9,17.1-3.4,19.1-7.5,37.2.4,15.9,7,19,16.2,30.6,25.4,9.6,7.6,13.6,7.9,22-1s31.8-49.1,32.1-60c.2-8.7-6.4-8.1-13.3-7.2-8.6,1.1-48.4,15.1-51,14.6-1.7-.4-12.3-7.9-16.5-9.6-20.3-8.4-48.8-11.8-67.2-20.8-14.9-7.3-11.3-20.9-17.7-33.2-.9-1.6-2.5-.6-2.3-2.2,6.3-.9,17,0,21-5.5,1-1.4.3-3.7,2-3.5,3,11.7,15.2,23.9,25.1,30.4,21.2,13.8,50.4,23.7,75.4,23.5h20.5l-34.7-16.8c-19.1-10.8-48.2-33.1-61.8-50.2-6.2-7.8-7.1-18.3-10.5-27.5-6-16.6-14.4-32-25-46,1.3-9,6.5-19.6,7.8-28.2,1.9-12.9,1.8-19.5,6.5-32.5,36.4-101.1,159.2-169,256.8-198.2,49.9-15,102.4-18.2,153.2-5.2,103.5,26.4,242.6,100.3,277.2,208.8,3.4,10.5,3,17.3,4.8,27.2.8,4.7,8.9,28.4,7.6,30.6l-.5-.2ZM1195.9,1382.1c-32.3-16.1-63.1-35.3-95.9-50.7-17.5-18.7-37.4-36.6-54.6-55.4-4.8-5.3-11.2-16-16-20-3-2.6-7.4-3-10.6-.6-4.5,3.4-12.7,16.4-17.4,21.6-16.7,18.6-36.8,35.6-53.6,54.4-32.9,15.3-64,34.2-96,51.2-.6,2.8,12.4,35,14.6,40.3,2.9,7.1,12.1,31.7,16,36.1,7.1,8,36.5,26.3,47,33,19.8,12.7,36.1,22.9,59.3,28.7,27.3,6.8,39.7,7.1,67,.6s43-16.6,65.7-31.3c10.4-6.8,35.9-22.5,43.4-30.6,4-4.4,12.7-27.4,15.6-34.4,2.1-5.1,16.8-41,15.5-42.9M728.3,1496.7c1.6,2,8.2,6.3,10.7,7.8,14.7,8.8,31.8,13.8,46.9,23.1,16.8,10.2,40.2,33.1,59.6,33.5,2.3,0,8.7-1.2,9.4-3.7s-13.6-27.6-16.4-30.3c-7.3-7.1-27.5-17.2-37.2-23.8-15.2-10.3-50.3-39.1-67.9-39.2-10.5,0-8.7,28.1-5.1,32.7h0ZM1319.7,1466.3c-5.9-5.9-24.1,4.1-30.4,7.6-16.2,8.9-31,21.4-46.2,31.8-12.7,8.7-30.1,15.7-38.6,28.4-2.2,3.4-10.8,17.7-11.4,20.7-1.1,5.3,6.2,6.5,10.3,6.3,16-.9,23.4-9.7,35.2-17.8,9.2-6.3,19.3-13.6,29-19,11.7-6.6,47.1-19.2,52.7-29.3,2.4-4.3,2.8-25.2-.7-28.6h0ZM1126,1664c-12-2.7-20.7,6.6-31.6,7.9-5.7.7-12.2-1.2-16.6-.7-7.1.8-22.9,12.1-31.2,14.9-14.8,4.9-30.2,4.7-45.1,0-8.8-2.8-23.9-14.1-31.2-14.9-4.4-.5-10.9,1.4-16.6.7-11-1.3-19.9-11-31.6-7.4,0,6.9,23.8,23.5,30,27,12.5,7.1,59.8,26.8,72.5,26.6s59.9-19.8,72.2-26.9c10.3-6,24.6-16.2,29.3-27.2h-.1Z"/></g><g class="trait-group" data-category="jaw">
  </g><g class="trait-group" data-category="jaw"><path id="outline-jaw" d="M676,1140c5.2-3.1,18.7-3.2,19.1,4.5,0,2.3-.8,11.2-1.1,14-.3,3-.9,8.4-2.1,10.9-2.5,4.9-17.3,13.6-20.1,19.9-1.2,2.6-6.4,25.9-6.7,29.3-.2,1.7,0,2.8.4,4.4,2.1,6.9,13.8,19.7,17.7,27.3,5.7,11,7.2,24.3,12,35s13.5,10.7,22.5,15.6,17.7,11.1,25.3,17.2c-3.1,0-6.3.2-9.4,0-7.7-.8-35.8-6.7-41.8-10-6.1-3.3-8.8-18.4-12.8-20.4-2.5-1.2-7,0-10.3-.7-6.7-1.2-9.9-7.8-17.5-1.5-6.7,12.4-14.3,24.3-20.4,37.1-7.4,15.4-14.8,25.1-4.8,41.2,5.2,8.4,23.4,27,25.6,34.4,2.5,8.4-2.4,27.4,2.4,33.6,5.4,6.9,20.6,5.2,27.7,1.7,11.1-5.5,9.2-10.1,14.9-19.1,5.3-8.3,20.9-24.3,30.4-26.7,7.7-1.9,12.3,10.3,14,16,4.9,15.9,2,31.2,13.9,44.1,1.1,1.2,9,8.5,10,7.5-.8-5.6,4.8-8.4,6.5-13,3-7.9-3.1-20.6-5-29-2.8-12.3-5.1-24.7-8-37-1-4.1-6.2-19.9-5.4-22.3,1.2-3.8,23.7-9.1,24.9-10.7.4-.5-2.9-8.7,0-12.6,1.3-1.8,8.8-6.8,11.1-8.9,3.9-3.5,23.1-22.9,25.7-23.4,4.4-.8,5.2,2.4,8,3.6,5.1,2.1,10.8,2.5,15.7,4.3,1.1.4,2.4.5,2.5,1.9-11.2,6.3-23.6,13-34.3,20.2-2.7,1.8-16.6,11.8-17.6,13.4-1.6,2.6-2.2,9.7-2.2,12.9l3,44.5c-9.8-13.1-8.1-31.3-10-47-2.5,1.9-15.3,3.5-15.9,5.6,4.5,18.6,8.6,38.8,15.1,56.7,7.3,20.1,19.2,40.4,27.7,60.3,11.1,7.8,27.2-5.8,33-15,5.6-8.7,8.1-23.6,22.5-13.5,11,7.7,22.9,21.4,33.5,30.5,48.3,41.3,92.1,59.6,157.4,50.3,40-5.7,69.7-25.7,99.7-51.3,6.2-5.3,32.4-31.5,37.5-32.5,11.9-2.2,14.8,13.8,21.4,21.5,7.4,8.7,17.4,14.2,29.1,12,4.4-.8,21.2-8.4,26.3-10.7,9.2-4.2,20.3-11.4,27.2-18.8,10.4-11.3,8.4-24,12-38,1.7-6.6,6.3-23.8,15.5-21.6,10.7,2.6,27.2,21,32.6,30.4,1.7,3,2.2,6.8,3.9,9.1,6.3,8.5,28.5,13.3,36,5.1,5.6-6.1.4-25.5,2.9-34.1s20.4-25.8,26-35c9.4-15.8.8-28.3-6.5-43.3-5.8-11.8-13.2-22.7-19.2-34.3-7.1-5.6-12.2.4-18.5,1.5-2.9.5-6.9-.4-9.3.7-3,1.4-6.8,14.4-9.5,17.5-1.4,1.6-7.6,4.3-9.9,5.1-8,2.8-25.7,6.6-34.3,7.7-3.4.4-6.8.2-10.2.2,6.6-5.5,15.7-12,23.3-16.2,11.5-6.3,19.8-5.1,25.5-19.5,3.9-9.8,5.3-20.7,10.3-30.7,3.9-7.7,16.9-22.6,18.7-29.4.4-1.7.2-2.8,0-4.5-.6-4.4-5.6-25.6-7.2-28.8-3.7-7.3-19-15.9-20.5-21.5-.8-3.2-2.6-24.3-1.6-26.4,2.1-4.5,12.7-3.4,16.5-1,.5,1.9,4.4,14,5,14.5,6.2,5.3,26.1,4.1,26.1,17s-1.7,15.9.2,26.7c1.7,9.8,9.7,22.5,6.4,31-2.3,6-12,20.9-15.9,27.1-3.6,5.6-8.1,10.6-11.8,16.2,8.8.3,18.9-17.9,26.1-12.1,3.4,2.8,13.7,18.6,16.7,23.3,5.1,7.9,10.9,17.6,15.1,25.9,3.9,7.8,17.4,38.8,16.1,45.8-.2,1.2-13,15.6-15.2,18.8-10,14.2-21.3,32.5-25.7,49.3-1.9,7.2-2.7,14.7-4,22-1,1.4-27.6,11.9-31.1,12.9-10,2.9-17.2,1.5-24.9-5.4-.9,8.8-2.6,17.7-3,26.5s1.7,33.1-.8,39.2c-.6,1.5-11.3,15-12.5,15.5-6.3,3-15.7-1.7-24.7,3.3-22.6,12.7-18.8,48.5-26.9,68.1-6,14.6-40.4,52.5-54.6,59.4-1.2.6-2,1.3-3.6.9,1.2-14.7,3-35.1-3.9-48.6-.4-.8-.4-3.2-2.1-1.4-.7.7-3.6,13.8-6.6,17.9-8.6,11.7-30.9,6.8-39.2,20.8-5.2,8.9-7.6,22.3-13.4,30.6s-48.5,28.9-59.6,33.4c-15.1,6.1-64.1,21.2-78.8,21.2s-63.4-15.1-78.8-21.2c-11.1-4.4-55.3-26-60.6-34.4-6.9-11.1-8.5-31.6-21.5-37.6-14.4-6.6-26.5-2.6-33.9-20.1-1.1-2.5-2.5-10.3-2.8-10.7-1.3-1.6-1.8.4-2.2,1.3-1,1.8-4.8,14.6-4.8,16.2v30c0,.3,1.4,1.4,1,2.5-1.7.2-3-.3-4.4-1.1-15.2-8.7-49.8-45.6-54.8-62.2-6.2-20.6-5.2-52.1-25.9-65.1-8.2-5.2-18.3-.3-24.7-3.3-.9-.4-12.2-14.2-12.7-15.3-2.1-5.2-.2-29.6-.5-37.4-.4-9.1-2-18.5-3-27.5-4,1.6-7.6,4.7-11.9,5.6-2.8.6-5.6.7-8.5.3l-35.7-14.3c-1.5-7.3-2.1-14.8-4-22-4.3-16.8-16.4-36.3-26.5-50.5-2.2-3-13.9-15.8-14.2-16.8-1.1-3.6.8-8.3,1.8-11.8,5-18.6,17.3-42.1,27.6-58.4,2.5-4,17.5-26.2,20.1-26.9,6.2-1.8,15.2,12.1,22.3,12.8.7-.7-9.3-13.3-10.4-15.1-4-6.2-14.5-22.3-16.8-28.2-2.7-7.1,5.4-22.1,6.9-30.5,1.9-10,.2-18.4,1.3-27.7,1.2-11,17.6-11.6,25.8-15.7,2.1-4.7,2-9.6,3.2-14.8h.4v-.2ZM799,1627.5v-20c0-3.5,9.1-26.6,11.7-27.4,6.9-2.2,27.9,17.6,32.8,22.9,7.6,8.1,14.7,20,23,27,10.5,8.8,23.6,12.8,33.5,23.6,22.2,24.2,21.6,36,55.1,50.9,29.5,13.1,59.4,23.9,92.4,17.4,12.7-2.5,58.9-21.3,68.9-29.1,12.4-9.6,23.1-31.8,35.2-42.8,9.6-8.8,25.5-14.6,34.6-23.4,6-5.9,12.7-15.8,18.4-22.6,2.8-3.3,8.4-7.2,10.3-10.7,4.4-8.2,10.5-40.4,10.3-49.8-.3-12.5-3.5-25.3-4.2-37.8-17.1-12.8-20.5-.4-31.4,9.3-16.5,14.9-41.1,22.8-63,25-69.4,7-135.6,7-205,0-22-2.2-46.4-9.9-63-25-7-6.3-10.5-15.9-22-15.1-3.7.3-6,3.1-8.5,3.7-4.9,1-22.9-12.7-28.3-15.8-18.4-10.2-46.1-20.5-61.1-34.9-6.9-6.6-2.4-11.8-2.5-19.5s-3.8-23.4-6.8-30.2c-.5-1.1.2-1.5-1.7-1.3-9.4,1.3-19,20.2-19.3,28.8-.2,6.3,6.7,18.5,7.6,26.9,1.5,13.9-4.4,40.4,8.8,49.2,12.8,8.6,39.9,13.7,50.8,26.2,5.7,6.6,1.5,7.9.7,14.6-3.6,29.6,1.4,55.9,20.9,78.9.5.6,3.9,4,2,1h-.2ZM1248,1630c19.4-21.2,26.1-39.8,25-68.5-.3-7.8-4-21.4,0-27.8,4-6.1,20.2-13.6,27.2-16.8,15.2-7.1,31-7,32.7-27.3,1.3-14.8-1.6-26.3,2.5-41.5,3.4-12.7,7.8-13.2,2.5-27.5-2.8-7.7-9.2-17.6-18-18.4-5.5,13.3-7.4,26.1-7,40.5,0,3,2.2,4.9,0,8.1-1.5,2.2-16.5,12.2-19.8,14.2-9.2,5.7-59,28.5-60.9,35.1-2.7,9.4,7.3,31.3,8.6,41.6l-10,40.5c2.4-1.4,5-2.6,7.9-1.9,6.7,16.4,13.1,31.6,9.1,49.9v-.2h.2ZM780,1448c-2-1.4-5.5,2.6-5.8,4.7-.9,5,7.2,15.1,12.8,15.2-.9-2.6-6.1-19.4-7-20h0Z" class="outline"/></g><g class="trait-group" data-category="jaw">
</g>
<g class="trait-group" data-category="mouth"><path id="fill-muzzle" fill="#fff" d="M1038 1292s-.4 1.7.7 2c10.3 2.8 18 4.3 25.8 13 1.9 2.2 4.9 8.8 6.5 9.5 2.6 1.2 6.6 0 9.5.5 11.4 1.5 21.2 3.7 31.2 9.8 2.1 1.3 9.2 7.8 10.2 7.1.3-.3 0-1.7 0-1.9 2.4-1.8 32.7.6 38 1 5.2 4.2 13.2 5.5 19.2 8.3 13.7 6.4 22.5 16.1 29.9 29.1 8.4 14.6 7.7 17.8 3.1 33.4-2.5 8.5-4.8 21.8-16.3 20.2 1.5-15.5-14.8-32.4-26.5-41-3.2-2.4-11.3-7.2-6 0 10.8 14.7 20.2 14.8 21.5 37.5.6 10.3-8.4 32.9-15.4 40.5-.6.7-7.1 6.3-7.6 6.5-3 1.6-6.9-6.1-7.8-8.2-3.6-7.8-4.7-15.5-9.7-23.3-1.1-1.7-10.8-13.7-12.4-12.1 5.6 13 9 46.2-2.5 56-4.4 3.7-9.4 1.9-13.3 3.7-2.8 1.3-3 5.7-4.8 6.1s-7-3.1-9.4-3.5c-8.9-1.3-13.2 17-18.7 17.5-2.5.2-10.7-11.9-18.4-9.4-7 2.2-15.4 21.2-24.4 23.6-6.3-6-3.4-14-5.8-21.2-1.2-3.5-4.2-6.7-5.8-10.2-5.4-12.7-2.8-19.9-.2-32.2.6-3 0-5.9.9-9.1.2-.7 6.3-12.3 6.9-13.1 3.7-5.4 19.2-12.4 22.7-3.8.9 2.2 0 8.7 2.2 7.7 5.1-4.9 10.2-9.9 15.5-14.5 11.5-10 14.1-9.7 21.2-24.8 1.5-3.3 6.5-14.5 6.6-17.3 0-3.4-9.2-14.7-11.8-17.8-1.4-1.7-9.5-11.5-10.2-11.8-6.4-3.2-28-2.3-34.7.8-7.9 3.6-12.5 12-19 17-1 .8-1.3 1.9-3 1.5l.8-12.7c3.6-4.3 21.7-23.3 21.1-27.5-.4-2.6-11.3-13.4-12.9-11.7 4.4 12.8.7 8.7-7.3 12.2-1.2.5-2.9 2.7-3.2 2.7s-2-2.2-3.2-2.7c-3.4-1.5-9.7-.4-9.3-5.6 0-1.1 4.1-7.6.5-6.6-2.8.8-12 9.9-11.3 13.2 0 .6 4 7 4.8 8 1.5 2 5 5.9 7 8.3 3.2 3.9 9.7 7.6 9.9 13.1 0 1.6-.8 3.1-.8 4.8s2.6 8.1-2.5 3.6c-6.2-5.3-10.2-13.6-18.5-17.5-6.5-3-30.3-4.3-35.7-.2-.8.6-8.8 10.5-10.2 12.2-2.4 3-10.9 13.7-10.8 16.8.2 5.4 11.7 29 15.7 33.2 3 3.2 9.3 6.8 13 9.9 5 4.3 9.7 9.1 14.5 13.5l4.2-11.1c4.9-3.1 17.7 2.6 20.8 7.1 1 1.5 5.1 9.9 6 11.9 2.8 6.4 5.1 25.4 4.4 32.4-1.1 10-7.9 15-9.4 22.6-1.3 6.4 1.1 14.9-5.8 18.9-8.1-2.6-17.3-21.5-23.6-23.5-8.2-2.6-15.9 9.6-18.4 9.4-5.3-.4-8.7-14-13.9-16.1-6.9-2.8-11.5 2.7-14.1 2.1-1.8-.4-2-4.8-4.8-6.1-4.5-2-9.6.3-14.3-4.7-10.9-11.5-6.5-42.2-1.5-56.1-9.1 6.7-14.1 14.8-18.5 25-1.6 3.6-2 7.5-3.7 11.3-1 2.1-4.9 9.8-7.8 8.2-.4-.2-6.9-5.9-7.5-6.5-3.9-4.3-13.8-24.4-15-30-2.8-12.9 1.4-26.5 9.5-36.5 4.1-5.1 11.3-9 13-15.5-2.4-2.4-22.3 17.4-24.4 20.1-5.4 6.8-11 15.9-9.6 24.9-8.3.5-10.7-3.3-13.3-10.2-2.7-7.1-7.8-22.8-6.2-29.8 3.7-16.2 21.4-35.8 36.3-42.7 6.2-2.9 13.9-4.1 19.2-8.3 12.5-.8 24.5-2.3 37-1 0 0 .7 2.1.5 3 9.5-8.2 20.6-14.8 33.1-16.9 4.7-.8 14.8-.4 18.1-1.8 1.6-.7 5.2-7.7 7.2-9.9 8-8.4 15.2-9.7 25.4-12.5 1.1-.3.6-1.9.7-2 1.1-.7 25.9-.7 27 0v.2Z" class="fill" data-original-prefix="fill"/></g><g class="trait-group" data-category="mouth"><path id="fill-teeth14" fill="#fff" d="M1039.1 1601.9c-.8-.5-7.2-15.4-7.9-17.6-4.2-13.6-7-37.9-1.5-51.1 5.8-13.9 10.8-1 20-5 1.9-.8 7.6-6.8 9.2-8.8 2.6-3 3.6-9.1 8-8 12.8 3.1 21.1 24.2 22 36.1 2.3 30.4-23.4 40.7-45.2 53.7-1.2.5-3.6 1.3-4.6.6Z" class="fill" data-original-prefix="fill"/></g><g class="trait-group" data-category="mouth"><path id="fill-teeth13" fill="#fff" d="M1015.7 1527.3c10.2 8.9 6 44.1 2.3 56.2-1.9 6.4-6 12-8.1 18.3h-2.3c-12.1-7.1-26.3-12.4-36.1-22.9-9.1-9.8-12.3-17.9-11.5-31.5.8-11.8 9-32.3 21.2-35.9 4.8-1.4 5.7 4.5 8.2 7.4 1.8 2.1 8.3 8.8 10.5 9.5 6 1.9 12.5-4.1 15.8-1.3z" class="fill" data-original-prefix="fill"/></g><g class="trait-group" data-category="mouth"><path id="fill-teeth12" fill="#fff" d="M904 1461c0 2.2-1.1 3.8-.8 6.2s7.4 22.5 8.8 24c3.7 4.1 11.1 2.3 15.9 2.9 4.9 13.5-4.3 23.9-8.6 35.6-2 5.3-8.4 33.1-12.8 34.3-3.3.8-11.7-18-12.8-21.2-6.8-20.9-8.8-51.8 1.8-71.7.6-1.2 7.1-11.6 8.4-10.1Z" class="fill" data-original-prefix="fill"/></g><g class="trait-group" data-category="mouth"><path id="fill-teeth11" fill="#fff" d="M1144 1564c-1 .7-1.8-.4-2.4-1.1-5.8-5.8-8.7-24.8-11.8-33.2-4.3-11.7-13.8-21.9-8.6-35.6 18.6 2.9 18.2-8.8 23.1-22.4l2.2-9.8c10.2 11.1 15.2 27.6 14.6 42.5-.5 13.7-3.2 35.3-9.5 47.5-.8 1.5-6.9 11.6-7.5 12Z" class="fill" data-original-prefix="fill"/></g><g class="trait-group" data-category="mouth"><path id="fill-teeth10" fill="#fff" d="M949 1569c5.5 22.1 11.4 45.4 9 68.5-.5 5-1.3 9.2-7 6.9-3.4-1.3-17.5-13.4-19.5-16.5-7.4-11.8.3-39.7 8-50.8 1.2-1.7 7-10.1 9.4-8.1Z" class="fill" data-original-prefix="fill"/></g><g class="trait-group" data-category="mouth"><path id="fill-teeth9" fill="#fff" d="M1100 1569c3.4-2.9 13.3 14.1 14.5 17 4.8 11.7 9.3 33.5 1 44-2.1 2.7-18.5 16.5-20.9 15.9-1.9-.4-3.4-6.5-3.6-8.4-1-8.7 0-26 1-35 1.1-10.9 6.5-22.5 8-33.5" class="fill" data-original-prefix="fill"/></g><g class="trait-group" data-category="mouth"><path id="fill-teeth8" fill="#fff" d="M1167 1547c.9-6.7-1-15-.6-21.3.3-6.3 3.7-14.6 3.6-21.2 0-5.7-4.8-19.5-4-24 .5-2.9 3.5-2.8 5.5-4.5 6.2-5.3 10.4-15.8 16.9-4.9 14.2 23.5-1 56.5-18.4 74.4-.9 1-1.3 1.9-3 1.5" class="fill" data-original-prefix="fill"/></g><g class="trait-group" data-category="mouth"><path id="fill-teeth7" fill="#fff" d="M881.7 1478.3c3.3 2.9-2.8 21-2.8 26.2s2.6 12.6 3.1 18c.7 8 0 16.5-.5 24.5-1.8 0-11.7-13.3-13.3-15.7-11.2-16.8-20.3-43.7-7-61.7 6.2-8.4 9.7.9 14 4.7 2 1.9 5.7 3 6.6 3.9Z" class="fill" data-original-prefix="fill"/></g><g class="trait-group" data-category="mouth"><path id="fill-teeth6" fill="#fff" d="M1018 1613v16.5c0 .9-10.8 13.2-11.9 14.1-6.3 4.8-8-2.6-10.6-5.5-5.5-6-17.9-.4-24.4-5.6-.9-.7-4.1-8.3-4.1-8.9v-24.5c12.3 3 28.7 18.5 41.4 16.9 3.5-.4 6.1-3 9.6-2.9Z" class="fill" data-original-prefix="fill"/></g><g class="trait-group" data-category="mouth"><path id="fill-teeth5" fill="#fff" d="M1102.5 1494c3.3-.8 5.3 8.5 6.3 10.7 5 10.5 15.3 30.3 11.4 42.1-2.2 6.7-15.6 23.4-20.4 11-4-10.4-4.1-44.7-1.1-55.5.4-1.6 2.4-7.9 3.8-8.2Z" class="fill" data-original-prefix="fill"/></g><g class="trait-group" data-category="mouth"><path id="fill-teeth4" fill="#fff" d="M917 1563c-1.6 13.5 2.8 27.4 2 40.5-.5 8.8-4.2 18.6-5.5 27.5-5.8-5.6-10.5-15.7-11.4-23.6-.6-5.2.7-25.8 2.4-30.3.6-1.6 10.5-16.2 12.4-14.1Z" class="fill" data-original-prefix="fill"/></g><g class="trait-group" data-category="mouth"><path id="fill-teeth3" fill="#fff" d="M1135 1631c-.4-8.9-4.4-17.8-5.1-26.5-1-13.6 3.6-27.7 2-41.5 2.2-2.4 11.9 13 12.5 15 2 6.8 2.7 27.3 1.2 34.3-1.3 6.3-5.5 14.8-10.8 18.7z" class="fill" data-original-prefix="fill"/></g><g class="trait-group" data-category="mouth"><path id="fill-teeth2" fill="#fff" d="M1154.1 1604.9c-3.4-2-5.1-22.3-3.9-26.2.8-2.6 8.9-5.2 10.2-8.8l5.1-10.9c3.8 3.4 5.1 7.2 4.3 12.2-.7 4.5-5.2 22.3-6.9 26.2-.9 2.2-6.1 9-8.8 7.5" class="fill" data-original-prefix="fill"/></g><g class="trait-group" data-category="mouth"><path id="fill-teeth1" fill="#fff" d="M885 1559c.4.4.7 7.1 3 10.5 2.7 3.9 10.5 6.9 11 10-.8 4.7-.7 23-4 25.4-2.5 1.8-7.7-4.5-8.7-6.7-1.6-3.6-6.3-22.5-7-27-.6-3.9 2.5-15.6 5.8-12.3Z" class="fill" data-original-prefix="fill"/></g><g class="trait-group" data-category="mouth"><path id="outline-shading-mouth2" fill="#000" d="M918 1443.5c.8 5.3 5.6 13.8 10.1 16.9 11.5 8.3 16.2-.3 22.4-9.4 2.5 5.4 3.4 11.5 6 17 1.4 2.8 5.7 12 7.5 5.5l4-11.5c1.6 7.5 6.3 15.4 11.5 21 4.3 4.7 18.8 15.4 24.6 9.6 2-2.1 8.3-17.9 10.8-22.2 1.2-2.2 7.8-13.8 9.7-13.3 1 .2 8.5 13.2 9.7 15.3 2.4 4.5 7.3 17.7 9.8 20.2 3.8 3.8 10.5.4 14.4-1.8 10.5-5.9 18.5-17.2 21.7-28.8l4.2 12.3c.3 1.2 1.9 2.4 2.8 1.7.6-.4 5.8-11.3 6.5-13 .8-2 2.8-12 4-12 6.8 10.7 12.9 18.4 24.5 7.5 8.6-8 9.3-23.8 7-34.5 3.5-3.1 21.1 16.1 26.6 16.9 9.1 1.4 17.6-11.8 19-19.9 3.5-20.5-12.9-39.2-30.9-46.2l-12.7-4.8c15.4 0 28.2 2.9 41.1 11.4 4.8 3.1 12.2 10.9 17.6 11.4 6.2.6 10.1-4.1 10-10-.4-19.3-25.8-38.1-39.7-48.8 15.4 2.4 34.6 11.8 45 23.5 7.8 8.8 19.1 25.1 19.1 37s-6.4 28.5-9.2 32.8c-3.3 5.3-11.7 5.4-13.4 10.6-.9 8.1-2.1 16.4-2.5 24.5-1.5 29 1.4 45.2-10.8 73.2-3.6 8.2-12.7 20.4-14.9 27.1-4.2 12.8-.7 26.4-9.1 38.9-3.2 4.8-8.4 6.7-11.2 10.8-1.7 2.5-2.4 6.1-4.2 8.8-4.5 6.7-14.6 23-21.6 8.9-1.6-3.3-1.3-12.9-6.7-6.2-1.4 1.7-1.9 4.4-3.5 6.5-3.7 4.7-17.7 19.6-23.5 19.5-2.2 0-4.5-4.1-6.6-5.4-7.9-5-21.1-6.3-29.2-1.4-7.3 4.4-9.5 13.6-18.1 6.8s-6.4-10.8-20.1-9c-5.6.7-11.4 12.6-16.9 12.1-2.8-.2-11.4-11.1-18.5-12.6-6.3-1.3-17.5.7-23 4.2-2.6 1.7-4.1 5.6-7.5 5.4-5.7-.3-19.8-15.8-23.6-20.5-1.2-1.5-4.4-10.6-7.1-6.9-2.5 3.4-.6 9.9-7.2 12.7-7 3-14.9-11.2-18.1-16.4-1.2-1.8-1.2-4.3-2.6-6.4-2-3-6.8-5.4-9.5-8.5-10.4-11.9-6.7-27.7-10.7-41.3-.8-2.6-5.6-8.5-7.3-11.7-18.4-35.7-16.4-45.6-18.4-84.6-.4-7.7-.6-20.7-2.2-27.8-1.5-6.2-11.1-6.1-14.2-11.8-3.4-6.1-9.3-29.6-8.6-36.4 1.2-10.3 16.2-31.2 24-38 10.5-9.2 26.2-16.5 40-18.5l-21.5 17c-7.2 6.4-26.8 32-14.8 39.9 9 5.9 16.7-4.5 23.7-9.1 12.7-8.4 25.3-11.8 40.7-11.8l-17.3 7.2c-18 9.4-33.1 32.7-22.1 52.8 1.7 3.1 8.6 10.4 12 11.1 9.1 1.7 20.7-15.4 29.5-18 .6 6.4-.9 14.3 0 20.5zm-37.1 40.6c-12.3-.5-17.1-20.2-22.8 1.5-3.4 13 1.2 26.4 9.4 36.5 1.5 1.8 12.7 13.1 13.9 12.9.8 0 2.5-2.3 2.8-3.2 2.9-7.1-3.2-12.2-4.2-19.2-1.5-9.8 0-18.7.9-28.4Zm301.8-8.9c-3.2.8-6.3 6-8.8 7.3-2.1 1.1-7.2 1-7.8 3.2-.5 1.7 3 10.8 2.9 14.8 0 3-1.5 13.9-2.2 16.8-.9 3.6-3.9 5.7-3.9 10.2s1.4 7.1 3.7 7.4c1.9.3 15-14.4 16.8-17 5.7-8.5 9-18.8 7.3-29.2-.5-3-4.4-14.5-8-13.6Zm-284.8 10c-4-2.3-6.5 9.9-6.8 12.5-1.2 10.5 3 38 8.7 47.1 1.9 3 5.4 6.9 9.2 7.3 3.7-15.6 12.6-29.2 21-42.5-2.3-.4-1.7-2.9-2.7-3.5-1.5-.9-7-1.9-9.7-3.1-4.7-2.2-12-7.7-15.6-11.4-1.2-1.2-3.8-6.2-4.2-6.3ZM1139 1552c8.3-2 11.9-12.2 13.9-19.6 3.1-12.1 6.1-33.4 1.1-44.8-3-6.9-5.8 1.7-8.3 4.1-3.9 3.8-11 9.3-16 11.6-2.5 1.1-7.8 1.8-9.1 2.7-.7.5-.5 1.8-1 2.7-.3.4-1.7.4-1.6.9 0 1 7.9 12.3 9.2 14.8 4.8 8.8 9.1 18 11.8 27.7Zm-197.7 5.7c8.1 8.1 9.5 0 10.5-7.3.8-5.6 2.7-20.6 1.7-25.4-3.6-17.2-21.3-15.9-21.6 3.6 0 6.8 4.6 24.3 9.4 29.2Zm161.5-44.5c-5 1.3-8.5 9.3-8.8 14.2-.2 4 2.4 28.5 3.8 31.3 2.5 5 7.5 0 9.8-2.7 6.8-8.3 11.6-30.7 4.5-39.5-2.7-3.3-4.8-4.4-9.2-3.3zM1023 1544c-.7-.7-.8-7-5.1-9.4-8.9-5-21.8-.8-32-4-10.4-3.3-9.4-13.1-16.1 1.8-2.9 6.4-9.1 24.4-6.3 30.7 1.1 2.4 17.8 15.6 21.2 17.8s18.2 11.7 21.1 10c3.1-5.6 9.3-9.5 12.6-14.9 1.8-2.8 4.1-11.5 4.6-11.9 1.6-1.7 1.7.5 2.1 1.4 1.6 3.6 2.1 6.8 4.5 10.5 3.3 5.2 9.2 9.3 12.4 14.6 3.1 1.9 15.5-5.9 18.9-8.1 4.5-2.9 22.9-17 23.9-21.1 2.2-9.7-6.6-28.3-10.9-37.2-4.9 1-7.8 5.2-12.7 6.7-9.2 2.8-28.2-1.6-33.7 6.3-.9 1.2-2.6 8.9-4.5 7zm-136 18c-.7-.6-3.5 0-4.5.9-6 6.2 2.4 31.6 14.6 27.6 4-1.3 3.8-9.4 2.8-12.9-1.1-3.9-7.2-4.1-9.8-7.2-2.1-2.5-2.7-8.2-3-8.5Zm274.1 0c-.3.3-.9 6-3 8.5-2.6 3.1-8.7 3.3-9.8 7.2-1 3.4-1.2 11.6 2.8 12.9 13.4 4.4 20.2-24.5 14.1-28.1-.9-.5-3.5-.9-4-.4Zm-216.4 7.2c-1.5.4-5.1 4.6-6 6.1-3.4 5.6-5.6 32.3-4.8 39.3 1.3 10.9 15.2 18 19.5 3.5 1.7-5.6 2.6-21.4 2.5-27.6 0-1.1-5.8-19.7-6.5-20.5-1.2-1.4-3.2-1.3-4.8-.8Zm153.3-.1c.2 6.6-5.4 14.7-6 20.6-.5 4.5 1 25.3 2.4 29.4 4.2 12.1 16.9 7.3 19.1-2.9 1.1-5.2 0-16.8-.6-22.6-1-9.7-1.7-25.5-14.9-24.5m-180 1.9c-20.5 3.8-17 28.7-9 43 4 2.9 10.4-17 10.7-19.8.9-7.5-2.9-15.5-1.8-23.2Zm218 43c2.5 1.8 7.2-9.1 7.7-10.8 3.9-12.8 1.6-30.1-13.7-32.2.5 7.4-2.8 16.2-1.9 23.4.3 2.7 6.4 18.5 7.9 19.6m-148.2 10.2c1.4.8 4.8 8.6 9.5 11 11.1 5.8 20.2-6.4 20.7-16.7.8-13.7-7.2-7.7-16.5-8.6-8.4-.8-15-4.8-21.8-9.2-5.5-3.5-13.6-14.6-14.7-1.4-.5 5.1 1.4 7.5 1.8 11.2s-2 5.9.5 10.7c4.8 9.3 18 1.3 20.7 2.8zm93.1-31.1c-2.1-1.5-19.7 12.7-23.9 14.4-2.3 1-7.9 2.3-10.5 2.5-10.5.9-18.8-5.4-16.4 11.4 1 7.3 7.9 15.8 16 15.1 9.4-.8 11.9-11.6 14.6-12.4 4-1.3 12.3 5.7 18.9-1.1 4.3-4.4 1.3-8.4 1.5-12.5 0-2.3 1.9-4.8 2-8.1 0-1.9-.8-8.5-2.2-9.4Z" class="outline" data-original-prefix="shading" opacity=".2"/></g><g class="trait-group" data-category="mouth"><path id="outline-shading-mouth1" fill="#000" d="M1041 1343c6.1.5 12.7-1 17.5-5 1.5-1.3.9-3.7 2.8-2.9 10.1 7.9 37.9 17.4 43.8 28.2 3.6 6.5 4.6 17.5-1.8 22.6-5.6 4.5-20.8 10.8-28 15-4.9 2.8-9.7 6.6-14.7 9.3-7.4 4.1-25.5 14.5-32.6 16.4-2.9.8-5.2.8-8.1 0-14.5-3.8-42.2-22.5-56.3-30.7-6.2-3.6-21.2-9.1-23.2-15.8-5.5-18.4 15.7-28.3 28.7-35.4 2.3-1.2 15.5-8.6 16.5-8.7 2.9-.3 4.2 2.9 6.7 4.2 4.2 2.3 10 3.2 14.7 2.8-.3-5.1-3.3-11.3-1.8-16.3.5-1.6 12.5-13.9 14.5-14.4 3.9-1 8.2-.3 11.6 1.9 1 .7 10.8 11.1 11.2 11.8 2.1 5-1.2 11.8-1.5 17" class="outline" data-original-prefix="shading" opacity=".2"/></g><g class="trait-group" data-category="mouth"><path id="outline-mouth3" fill="#000" d="M889 1333c-5.3 4.2-13 5.4-19.2 8.3-14.9 6.9-32.6 26.5-36.3 42.7-1.6 7 3.5 22.7 6.2 29.8 2.6 6.9 5 10.8 13.3 10.2-1.4-9 4.2-18.1 9.6-24.9 2.1-2.6 22-22.5 24.4-20.1-1.7 6.5-8.8 10.4-13 15.5-8.1 10-12.3 23.6-9.5 36.5 1.2 5.6 11.1 25.8 15 30 .6.7 7.1 6.3 7.5 6.5 3 1.5 6.9-6.1 7.8-8.2 1.7-3.8 2.1-7.7 3.7-11.3 4.4-10.2 9.4-18.4 18.5-25-5.1 13.9-9.5 44.6 1.5 56.1 4.8 5 9.9 2.7 14.3 4.7 2.8 1.3 3 5.7 4.8 6.1 2.6.6 7.2-4.9 14.1-2.1 5.2 2.1 8.6 15.6 13.9 16.1 2.5.2 10.2-12 18.4-9.4 6.3 2 15.5 20.8 23.6 23.5 6.9-4 4.5-12.6 5.8-18.9 1.5-7.6 8.3-12.6 9.4-22.6.8-7-1.6-26-4.4-32.4-.9-2.1-5-10.5-6-11.9-3.1-4.5-15.9-10.2-20.8-7.1l-4.2 11.1c-4.8-4.4-9.5-9.2-14.5-13.5-3.7-3.2-10-6.8-13-9.9-4-4.2-15.5-27.8-15.7-33.2 0-3.1 8.4-13.8 10.8-16.8 1.4-1.8 9.5-11.6 10.2-12.2 5.4-4.1 29.2-2.8 35.7.2 8.4 3.8 12.4 12.1 18.5 17.5 5.2 4.5 2.5-1.7 2.5-3.6s.9-3.2.8-4.8c-.2-5.4-6.7-9.2-9.9-13.1-2-2.4-5.5-6.3-7-8.3-.8-1-4.7-7.3-4.8-8-.7-3.3 8.6-12.4 11.3-13.2 3.6-1-.5 5.5-.5 6.6-.4 5.2 5.9 4.1 9.3 5.6 1.2.5 3 2.7 3.2 2.7s2-2.2 3.2-2.7c8-3.5 11.7.6 7.3-12.2 1.6-1.7 12.5 9.1 12.9 11.7.6 4.2-17.5 23.2-21.1 27.5l-.8 12.7c1.7.4 2-.7 3-1.5 6.5-5 11.1-13.4 19-17 6.8-3.1 28.3-4.1 34.7-.8.7.3 8.8 10.1 10.2 11.8 2.6 3.1 11.9 14.4 11.8 17.8 0 2.8-5 14.1-6.6 17.3-7.1 15.2-9.7 14.8-21.2 24.8-5.3 4.6-10.4 9.6-15.5 14.5-2.2.9-1.4-5.6-2.2-7.7-3.4-8.6-19-1.6-22.7 3.8-.6.8-6.7 12.4-6.9 13.1-1 3.2-.3 6.1-.9 9.1-2.6 12.3-5.2 19.6.2 32.2 1.5 3.5 4.6 6.8 5.8 10.2 2.5 7.2-.5 15.2 5.8 21.2 9-2.3 17.4-21.3 24.4-23.6 7.7-2.4 15.9 9.6 18.4 9.4 5.6-.5 9.8-18.8 18.7-17.5 2.3.3 7.6 3.9 9.4 3.5s2-4.8 4.8-6.1c3.9-1.8 8.9 0 13.3-3.7 11.5-9.9 8.1-43 2.5-56 1.6-1.7 11.3 10.4 12.4 12.1 5.1 7.8 6.1 15.5 9.7 23.3 1 2.1 4.8 9.8 7.8 8.2.4-.2 6.9-5.8 7.6-6.5 7-7.6 16-30.2 15.4-40.5-1.3-22.7-10.7-22.7-21.5-37.5-5.3-7.2 2.8-2.4 6 0 11.8 8.6 28 25.5 26.5 41 11.4 1.6 13.7-11.7 16.3-20.2 4.6-15.6 5.3-18.8-3.1-33.4-7.4-13-16.3-22.7-29.9-29.1-6-2.8-14.1-4.1-19.2-8.3 9.3.7 19.7 2.8 29.2 5.3 7.4 1.9 14.4 3.9 20.7 8.3 3.2 9.3 27.6 34.6 28 42 .2 3.7-8.2 22.5-10 27.9-2.5 7.2-2.6 16-10 21-1.9 1.3-8.4 2-9 3.2-4.1 7.9-1.4 38-1.9 48.8-1.1 21.6-7.6 43.1-20.5 60.5-.9 1.2-2.6 1.5-3.6 2.7-4.3 5.6-2.8 18.6-4.3 26.5-1.2 6-5 13.1-5.6 18.4-.4 3.5 1.3 7.7.8 9.7s-10.7 8.6-13.2 9.9c-2.2 1.2-5.7 1.5-6.5 2-.6.4-5.4 10.9-7.2 13.3-2.1 2.7-11.1 11.3-14 12.1-4.1 1.2-7.9-10.3-9.9-13s-2.3 2.3-3.6 4.3c-4.3 6.7-25.1 26.6-32.4 28.6-1.7.5-3.3.7-5 .5-.4-5.9 3.2-9.9-1.5-15.1-8.2-9-20.9-.3-24.3 8.8-1.8 4.9-1.6 20-8.6 18.1-4.6-1.3-20-25.6-23.2-30.8-5.7 8.9-12.2 19.9-19.5 27.4-11.2 11.7-9.9-11-13.8-18.2-3.8-7.1-14-12-21.1-6.7-6.7 5-2.9 9.6-3.1 16.4-3.5 3.5-24.3-13.8-27.5-17-1.3-1.3-10.5-12.2-11-13-.7-1.4-.2-6.3-2.6-3.3-2.1 2.7-6.2 14.3-10.2 13.3s-12-10.2-13.7-12.4c-2.1-2.7-6.6-12.8-7.2-13.2-.8-.5-3.8-.6-5.8-1.7-2.3-1.2-11.9-7.4-13-9-2.1-3.2.4-6.9 0-11-.7-6.8-5.9-15.3-6.8-24.2-.5-5 .6-10.7-.6-15.4-1-4-8-10-10.7-14.3-15.3-24.4-17.6-52.1-17.9-80.2 0-5.4 3-18.2 0-22.8-.8-1.2-7.8-1.9-10.4-3.8-7.2-5.3-6.2-13-8.6-20.4-1.9-6-10.7-24.3-9.8-28.7.5-2.7 4.3-7.5 6-10.1 7-10.8 15.7-20.6 22.5-31.5 5.9-4.3 13.2-6 20.1-7.9 9.7-2.6 19.8-4.7 29.2-5.3h.2Zm15 128c-1.4-1.5-7.8 8.9-8.4 10.1-10.6 19.9-8.6 50.8-1.8 71.7 1.1 3.3 9.4 22.1 12.8 21.2 4.4-1.1 10.8-28.9 12.8-34.3 4.3-11.7 13.6-22.1 8.6-35.6-4.8-.6-12.2 1.2-15.9-2.9-1.4-1.5-8.5-21.7-8.8-24s.8-4 .8-6.2Zm240 103c.6-.4 6.8-10.5 7.5-12 6.3-12.1 9-33.7 9.5-47.5.6-14.9-4.3-31.4-14.6-42.5l-2.2 9.8c-4.9 13.6-4.6 25.2-23.1 22.4-5.2 13.7 4.3 23.9 8.6 35.6 3.1 8.4 6 27.5 11.8 33.2.7.7 1.4 1.8 2.4 1.1Zm-262.3-85.7c-1-.9-4.6-2-6.6-3.9-4.2-3.9-7.8-13.1-14-4.7-13.3 17.9-4.1 44.9 7 61.7 1.6 2.4 11.5 15.7 13.3 15.7.5-8 1.2-16.5.5-24.5-.4-5.4-3.1-12.3-3.1-18s6-23.3 2.8-26.2ZM1167 1547c1.7.4 2-.5 3-1.5 17.4-17.9 32.6-50.9 18.4-74.4-6.5-10.8-10.8-.4-16.9 4.9-2 1.7-5 1.6-5.5 4.5-.8 4.5 4 18.3 4 24s-3.3 14.8-3.6 21.2c-.3 6.3 1.6 14.6.6 21.3m-64.5-53c-1.4.3-3.3 6.6-3.8 8.2-3 10.7-2.9 45.1 1.1 55.5 4.8 12.4 18.2-4.3 20.4-11 3.9-11.7-6.4-31.5-11.4-42.1-1-2.2-3-11.4-6.3-10.7Zm-86.8 33.3c-3.2-2.8-9.7 3.2-15.8 1.3-2.1-.7-8.7-7.5-10.5-9.5-2.6-2.9-3.4-8.8-8.2-7.4-12.2 3.5-20.5 24.1-21.2 35.9-.9 13.6 2.4 21.7 11.5 31.5 9.8 10.4 24 15.7 36.1 23h2.3c2.1-6.4 6.2-12 8.1-18.4 3.7-12.2 7.9-47.3-2.3-56.2zm23.4 74.6c1.1.7 3.4 0 4.6-.6 21.8-13.1 47.5-23.3 45.2-53.7-.9-11.9-9.2-33-22-36.1-4.4-1.1-5.5 5-8 8-1.7 1.9-7.3 7.9-9.2 8.8-9.2 4-14.3-9-20 5-5.4 13.2-2.6 37.5 1.5 51.1.7 2.2 7.1 17.1 7.9 17.6ZM885 1559c-3.2-3.3-6.4 8.4-5.8 12.3.7 4.5 5.4 23.4 7 27 1 2.2 6.2 8.5 8.7 6.7 3.4-2.4 3.2-20.7 4-25.4-.5-3.1-8.3-6.1-11-10-2.3-3.5-2.6-10.1-3-10.5Zm269.1 45.9c2.7 1.5 7.8-5.3 8.8-7.5 1.7-3.8 6.1-21.6 6.9-26.2.8-5-.5-8.8-4.3-12.2l-5.1 10.9c-1.4 3.6-9.4 6.1-10.2 8.8-1.2 3.9.5 24.2 3.9 26.2M917 1563c-1.9-2.2-11.8 12.5-12.4 14.1-1.7 4.6-3 25.2-2.4 30.3.9 7.9 5.6 18 11.4 23.6 1.4-8.8 5-18.6 5.5-27.5.8-13.1-3.7-27.1-2-40.5Zm218 68c5.3-3.9 9.4-12.4 10.8-18.7 1.5-7 .8-27.4-1.2-34.3-.6-1.9-10.4-17.4-12.5-15 1.5 13.8-3.1 28-2 41.5.7 8.7 4.6 17.6 5.1 26.5zm-186-62c-2.4-2-8.2 6.4-9.4 8.1-7.7 11.1-15.4 39-8 50.8 2 3.2 16 15.2 19.5 16.5 5.6 2.2 6.5-1.9 7-6.9 2.4-23.1-3.5-46.4-9-68.5Zm151 0c-1.5 11-6.9 22.6-8 33.5-.9 9-2 26.3-1 35 .2 1.9 1.7 8 3.6 8.4 2.4.6 18.8-13.3 20.9-15.9 8.3-10.5 3.8-32.3-1-44-1.2-2.9-11-19.9-14.5-17m-82 44c-3.5 0-6.1 2.5-9.6 2.9-12.7 1.6-29.1-13.9-41.4-16.9v24.5c0 .6 3.2 8.2 4.1 8.9 6.5 5.2 18.9-.4 24.4 5.6 2.6 2.9 4.3 10.3 10.6 5.5 1.1-.8 11.9-13.1 11.9-14.1v-16.5Z" class="outline" data-original-prefix="outline"/></g><g class="trait-group" data-category="mouth"><path id="outline-mouth2" fill="#000" d="M1122 1332c-.2 0 .2 1.6 0 1.9-1 .8-8.1-5.8-10.2-7.1-10-6.1-19.8-8.3-31.2-9.8-2.9-.4-6.9.7-9.5-.5-1.5-.8-4.5-7.4-6.5-9.5-7.8-8.7-15.6-10.2-25.8-13-1.1-.3-.6-1.9-.7-2 3.1-3.8 16.2-9.3 20.8-9.8 7.9-.9 5.5 4.4 6.5 9.1 2.3 10.7 9.3 19.6 21.3 18.8 5.1-.3 5.6-4 7.9-4.1 1.4 0 6.6 2.9 8.2 3.8 9.4 5.2 15 12.5 19.3 22.2z" class="outline" data-original-prefix="outline"/></g><g class="trait-group" data-category="mouth"><path id="outline-mouth1" fill="#000" d="M1011 1292s.4 1.7-.7 2c-10.2 2.8-17.4 4.1-25.4 12.5-2 2.1-5.6 9.2-7.2 9.9-3.4 1.4-13.5 1-18.1 1.8-12.5 2.1-23.6 8.7-33.1 16.9.2-.9-.5-2.8-.5-3 .8-2.7 8.7-13.3 11-15.6 2.5-2.4 14.7-10.5 17.6-10.4 2.7 0 3 5.1 11.9 3.9 10-1.3 16.2-10.1 17.5-19.6.4-2.6-2.4-6.7 2.8-8.2 3.5-1 21.7 5.6 24.3 9.8Z" class="outline" data-original-prefix="outline"/></g>
<g class="trait-group" data-category="eyes"><g id="eyes-goggles"><path id="fill-eyes-skull" fill="#fff" d="M1337.7 1024.3c1.5.9 16.3 27.2 18.4 31.1 9.7 17.9 18.4 36.1 23.1 55.8.9 3.7 4.9 7.3-.6 11.5s-13.7 5.7-17.7 7.8c-9.3 4.9-18.6 9.9-27.5 15.5-1.2 42.7-11 81.2-47.2 106.8-43.1 30.5-110 44.9-161.5 32.9-13.7-3.2-24.1-9.2-39.1-3.9-11.8-10.4-26-18.9-37.7-29.3-7.2-6.4-13-14.8-20.5-20.5-2.7 1.3-6.1-.6-8.4.4s-13.7 15-17 18c-12.4 11.4-27.2 20.1-39.7 31.3-3.4.3-6.4-1.6-9.8-1.8-14-1.1-26.2 5.6-40.1 7.8-49.6 8.1-115.4-7.3-155.2-38.4-33-25.8-41.6-63-42.6-103.4-9.7-5.8-19.6-11.2-29.5-16.5s-18-6.5-18.9-12.2 2.6-4.6 3.6-7 .9-6.7 2.1-9.9c7.7-20.9 25.7-58.2 39.1-75.6s2.4-.4 3.1-1.3c18-23.8 37.3-50.3 58.9-70.8 140.3-133.5 334.8-143 483.5-16.5 25.5 21.7 43.5 44 64.5 69.5s10.4 15.7 12.5 17.5 3.2.6 4.2 1.3Z" class="fill" data-original-prefix="fill"/><path id="outline-eyes6" fill="#000" d="M696 1136c.7 5.7-1.4 11.4-2 17-1.4 1.2-21.5-7.8-24.8-8.7-13.8-4-26.1 4.1-24.1-17.7 2.4-26.3 17.9-67.1 30.7-90.3 4.9-8.8 24.5-40.3 33.1-42.9 3.1-.9 7.2 1.5 8.9.5.4-.3 3.7-6.5 5.2-8.3 78.3-95.7 168.6-146.9 294.5-148.6 132.9-1.8 222.6 47.8 306.4 147.6 1.4 1.7 5.8 9 6.2 9.3 2.4 1.4 7-1.2 9.8-.4 7.6 2.1 25.6 30.2 30.2 37.9 13.9 23.7 31.8 69 33.8 96.2 1.6 20.6-11.3 13.1-24.2 16.8-2.5.7-4.5 2.5-6.8 3.2-5.8 1.8-11.9 2.9-17.5 5.5l-3.5-17c.2-.3-.2-1.8.2-2.3 3.6-4.4 22.6-10.5 23.3-11.7 4.5-6.8-6.4-31.1-9.7-38.4-3.9-8.8-9.1-18.8-13.7-27.3-2-3.7-15.9-28.3-17.4-29.1-.5-.3-10.8-1.3-12.3-1.3-8.7 0-25.2 1.8-34 3.1-7.3 1.1-14.2 4-21.5 5-.4-1.8.9-2.5 2-3.5 10.3-10 25.8-16.8 38.1-24.1-2.6-12.8-10.1-23.8-18.6-33.4-37.8-43-100.8-73.6-152.2-97.8-64.6-30.5-162.4-29.5-226.7 1-47.5 22.5-138.9 67.2-163.2 114.8-1.5 3-6.7 13.2-4.5 15.5 9 5.4 19.5 10 28 16.1 2 1.4 13.1 9.4 11.1 11.4-7.1-1.7-14.2-3.9-21.5-5-8.8-1.3-24.5-3.1-33-3.1s-7.8 2-11.8 1.1c-9.3 14.8-18.8 29.9-26.6 45.6-4.4 8.9-14.4 29.9-15.1 38.9-.2 2.4-.6 9.7 1 11 1 .8 4.9 1.5 6.7 2.3 5.2 2.4 14.7 5.6 15.3 11.2h.2Z" class="outline" data-original-prefix="outline"/><path id="outline-eyes5" fill="#000" d="M981 1184c-1.9.4-2.4-1-3.4-2.1-13.3-14.7-23-34.8-35.1-47.9-22.5-24.4-60.9-45.3-87.4-65.6-1.2-.9-9.5-7-8.1-8.4 16.5 4.3 29.6 16 44.3 24.2 19.2 10.7 39.3 20 58.6 30.4 5.3 6 8.9 13.4 12.2 20.8 7.2 15.8 12.7 32.5 18.8 48.7Z" class="outline" data-original-prefix="outline"/><path id="outline-eyes4" fill="#000" d="M1202 1060c.4 1.8-.9 2.5-2 3.5-7.4 7.2-18.8 12.6-27.3 18.7-19.4 13.7-51 35.4-66.7 52.3-10.2 10.9-18.1 30.5-29.4 41.6l-8.5 8c6.1-16.2 11.6-32.9 18.8-48.7 2.4-5.2 7.3-16.6 11.2-19.8 22.4-12.8 46.4-23.4 68.7-36.3 11.5-6.6 21.7-16.7 35.3-19.2Z" class="outline" data-original-prefix="outline"/><path id="fill-eye-lens2" fill="#fff" d="M825.8 1080.2c12 .1 33 9.8 43.5 16 68.6 40.5 84.8 127.1 44.1 193.7-76.9 126.1-228.1 32.8-206.1-98.1 9.2-54.6 60.3-112.1 118.5-111.6" class="fill" data-original-prefix="fill"/><path id="fill-eye-lens1" fill="#fff" d="M1219.8 1080.2c40-2 88.2 33.9 106.4 68.1 21.9 41.4 22.5 93.8 1 135.3-36.3 70.1-124.4 91.4-178.1 26.8-49.9-60-50.7-147.2 10-200 13-11.3 43.7-29.4 60.8-30.3Z" class="fill" data-original-prefix="fill"/><path id="fill-eyes-rims" fill="#fff" d="M1443.4 1122.6c-15.3-2.5-30.1 1.3-45.4.6-11.1-.5-19.7-6.1-27.2-13.8-8.1-8.3-14.7-17.8-22.2-26.6-8.7-10.1-19.1-18.7-30.8-25.2-25.3-14.1-54.4-19-83-19.1-15.4 0-30.8 1.2-46.1 2.8-15.4 1.6-31 3-45.9 7.4-29.3 8.6-51.5 29.5-72.1 51.1-1.6.6-2.8 1.5-3.8 2.7-32.6.2-65.3-.3-97.9-1.5-.4-.8-.8-1.7-1.3-2.5-4.5-7-11.8-13-17.9-18.6-13-12-27.2-22.9-42.1-32.5-1.7-1.1-3.3-1.6-4.9-1.7-.7-.1-1.4-.2-2.1-.2q-50.7-.9-101.4-.3c-2.6 0-4.7.9-6.3 2.2-20.3 1.5-40.2 6.9-58.7 15.6-4.5 1.8-9 3.9-13.4 6.2-28 14.7-46 39-61.2 65.7-1.4-3.5-4.5-6.4-9.3-6.7-8.5-.5-17.1-.5-25.7.1-7.7.6-16.7 1-20.9 8.6-4 7.2 0 16.6.8 24.3.7 7.6.8 15.3.8 22.9.2 15.2-.3 32.1 4.7 46.6 4.6 13.3 19.9 13.5 33 11.2 3.2 24.9 8 49.3 20.1 71.7 21.5 39.6 60.8 69.1 104.3 80.2 22.9 5.8 46.5 6.2 69.7 1.5 13.9-2.8 27.4-7.3 40.7-12.3 13.6-5.1 27.5-10.1 40.5-16.6 24.8-12.4 43.4-32.7 55.3-57.5 10.6-22 16.5-45.7 20.7-69.7 18.7-2.9 37.9-3.1 56.7-.4 4 31 10 62.5 30.3 87.3 11.6 14.1 27.6 23.6 43.4 32.3 16.2 8.8 32.1 18.5 48.6 26.7 16.9 8.3 34.2 14.2 53 16.2 17 1.8 34.5.2 51.1-4 33.3-8.4 63.5-27.7 85.7-53.9 23.8-28.1 39.2-62.5 46-98.6 8.7-.6 17.3-1.3 26-1.9 5.9-.4 10.2-4.5 10.5-10.5 1.8-33.2 3.5-66.5 5.2-99.7.2-4.2-3.4-9.4-7.7-10.1Zm-541.8 195.8c-18.4 19.1-42.6 31.7-68.8 36.1-14.2 2.3-28.8 1.8-43-1.3-.8-1.4-2.1-2.6-3.8-3.5-31.8-16.3-58.5-40.6-77.7-70.4-.6-1.4-1.2-2.9-1.8-4.3-4.6-16.8-8.3-33.9-11.1-51.1v-3.4c.2-7 .6-13.9 1.1-20.8.4-5.7.8-11.5 1.2-17.2 11.8-42.8 44.9-79.7 87.9-93 5.8-1.8 7.9-6.4 7.4-10.9 36.8-4.6 75.8 5.9 104.7 29.2 14.9 12.1 27.1 27.2 35.9 44.2 0 .6-.1 1.2 0 1.8 0 .6.1 1.1.2 1.7 6.3 55.2 9.2 119.9-32.2 163Zm449.7-119.5c-.6 18.5-1.8 37.6-5.7 56-.6.9-1 1.8-1.4 2.8-7.6 22.3-19 43-33.4 61.5-11.4 9.9-24.6 18.2-37.8 25.1-14.8 4.9-30.8 7-46.4 6.5-16.3-.5-32.2-3.8-47.8-8.6-.8-1.5-2.1-2.7-3.7-3.4-6.9-3.3-11.9-8.6-17-14.1-4.9-5.3-9.7-10.7-14.4-16.3-9.2-11-17.8-22.7-24.5-35.4-6.6-12.5-11-26.1-12.4-40.2-1.4-14-1.4-28.2-4.4-41.9 1-5.1 2.2-10.1 3.7-15 5.2-17.8 13.2-36 24.1-51.8 13.3-13.7 27.4-26.8 43.2-37.1l21.3-11.1c.7 0 1.5-.2 2.3-.4 32.7-9.2 67.4-1.7 94.9 17.8 27.9 19.7 43.2 49.7 54.9 80.9l1.8 4.8c1.1 5.8 2.1 11.7 3 17.6-.2.8-.3 1.6-.4 2.4Zm21.6-13.6c-.4-1.4-.9-2.9-1.4-4.3.6 1.4 1.2 2.8 1.8 4.1-.2 0-.3.2-.5.2Z" class="fill" data-original-prefix="fill"/><g id="eyes-shading"><path id="outline-shading-eyes-9" fill="#000" d="M828 1341c30.3-58.6 59.5-117.8 86.6-178 1.4-2.2-5.1-12.5-6.1-13-1.6-.8-1.4.8-1.8 1.2-3.3 4.6-6.5 10.5-9.5 15.4-33.5 54.8-63.1 112.1-93.2 168.8-2.2 2.3-11.1-1.5-14.3-2.8-2.4-1-11.8-4.9-11.8-7.2l111.9-197.3c1-4-6.4-8.8-9.5-11.1-16.1-12-46.8-25.6-66.9-26.2-5.7-.2-6.7 3.5-9.5 7.5-11.7 17.3-22.5 38.9-32.5 57.5-18 33.7-35.5 67.9-50.5 103-1.7 1.2-4.2-10.7-4.5-12-6.3-28.1-5-57.3 3.3-84.8 3.1-10.4 8.7-19.5 13.3-29.2-1.1-1.2-9 7.3-10 8.5-25.8 29.8-29.6 76.5-18 113 19.8 62.7 60.6 106.8 131.4 97.3 35.1-4.7 61.4-30.6 80-59 3.7-5.6 19.1-35.9 22.3-36.8 9.1-2.6 3 15.1 1.8 18.8-14.2 44.2-63 92.9-110.9 96.1-146.7 9.8-214.5-185-101-273 34.5-26.8 62.1-29.6 105-26 26.1 2.2 68.2 30.1 85 50 11.3 13.4 24.8 43.2 26.4 60.6 2.1 22.3-6 49-12.6 70.2-9.5 30.6-31.5 65-61.3 78.7-4.2 1.9-25.1 9.5-28.5 9.5h-14.5Z" class="outline" data-original-prefix="shading" opacity=".2"/><path id="outline-shading-eyes-8" fill="#000" d="M1341 1197c-1.8.3-1.1 5.2-1 6.5.6 11.1 1.4 19.5 0 30.8-2.5 19.2-21.3 61.8-35.4 74.6-17.5 15.9-43.2 27.4-66.5 31 12.9-34.5 27.5-68.4 40.7-102.8 11.3-29.3 22-58.8 32.8-88.2 1.1-2.2-6.8-12.6-7.6-12l-91.1 201.4c-3.7 5.2-20.8-2.8-25.9-4.4l100-214.5c0-2.7-14.6-12.5-17.7-14.3-18.9-11.2-43.3-16.8-64.9-11.3l-79.4 169.1c-5.7-10.8-9.1-22.4-12.5-34-14.3-48.2 27.2-121 71.5-142.5 16.4-8 29.6-9.2 47.6-9.5 9.8-.2 18.8-1.7 28.1-1.9 18.6-.3 36.5 6.9 51.7 17.1 123.7 83 58.4 289-92.9 278.9-47.9-3.2-96.3-51.2-110.7-95.3-1.2-3.7-8-26.1 2.8-18.8 3.1 2 15.4 27.3 19 33 27.3 43.3 61.9 69.2 115.8 61.9 50.8-6.9 77.9-43.2 94.4-88.6 5.9-16.3 5.7-25.4 4.2-42.7-.7-7.8-2.7-15.6-3-23.5" class="outline" data-original-prefix="shading" opacity=".2"/><path id="outline-shading-eyes-5" fill="#000" d="M1054.8 1224.8c3.2-20.6 5.1-40.3 11.2-60.3 1.8-5.7 9-27.1 12-30.8 2.4-3 8.5-2 7.7 2.3-.6 3.2-6.6 11.7-8.4 16.7-4.3 12.2-6.8 28.8-8.2 41.8-1.2 11.4-.4 25.1-2.1 35.9-1.8 11.2-15.3 6.7-22.4 6.5-13.3-.3-26.8-.2-40.1 0-7.5.1-19.2 4.6-23.2-4.7-2.3-28.3-1.8-60.2-13.5-86.5-1.2-2.8-4.6-6.5-5.3-8.8-1.1-3.4 1.7-5.7 4.9-4.9 4.1 1.1 12.1 24.3 13.7 29.3 6.5 20.4 9.3 41.3 11.4 62.6 20 5.7 41.9 4.7 62.3.7Z" class="outline" data-original-prefix="shading" opacity=".2"/><path id="outline-shading-eyes-4" fill="#000" d="M1441 1235c-10.6 2-20.9 11.1-31.9 6.9 2.3-38.8-3.8-78.8-22.2-113.3 10.7-6.8 10.5-5 16.2 4.8 15 25.6 19.6 58.4 20.8 87.7.6.7 14.2-5.2 17-4v18Z" class="outline" data-original-prefix="shading" opacity=".2"/><path id="outline-shading-eyes-3" fill="#000" d="M607 1217c2.8-1.2 16.4 4.7 17 4 .8-29.6 6.1-63.3 21.5-89 3.8-6.4 5.4-10.6 12.9-4.9 4.2 3.2-3.1 12.5-4.8 16.9-10.1 24.9-16.3 57.6-15.5 84.5.1 3.9 2.4 8.6.5 12.5-3.4 6.9-26.1-5-31.5-6.5-1.6-1.4 1.1-14.1 0-17.5Z" class="outline" data-original-prefix="shading" opacity=".2"/><path id="outline-shading-eyes-2" fill="#000" d="M1107 1341c-1.4.2-2.5-.2-3.7-.8-2.4-1.1-19.6-12.4-21.8-14.2-10.3-8.9-29.2-64.3-27.4-77.5 1-7 15.4-5 16.4-3.6 1.2 1.8 1.9 14.4 2.8 18.2 3.5 15.5 15.4 41.6 23.2 55.8 1.8 3.4 9.8 13.9 10.3 15.7.6 2 .1 4.2.2 6.3Z" class="outline" data-original-prefix="shading" opacity=".2"/><path id="outline-shading-eyes-1" fill="#000" d="M941 1341c0-2.4-.3-4.6.5-6.9 1.2-3.6 10.3-15.7 13-21 6.7-13.2 16.9-35.9 20-50 .8-3.8 1.7-16.3 3-18 1.5-2 16.1-3.6 16.6 5.5.7 12.7-17.4 65.6-26.6 74.5-2.2 2.2-19.8 13.6-22.9 15.1-1.2.6-2 1.3-3.6.9Z" class="outline" data-original-prefix="shading" opacity=".2"/></g><path id="outline-eyes3" fill="#000" d="M1389 1103c26.4 8.4 53.8 8.7 81 13.1-14.7 46.7-12.2 96.5-11.4 144.9-14.6 6.7-31.3-1.8-46.6-.6-7.1 30.3-16.5 61.3-35.9 86-75.1 95.1-181.4 76.1-270.7 13.8-32.9-22.9-39.4-35.2-52.5-72.5-4.8-13.6-9.9-27.4-11.8-41.7-11.4-1.1-22.5-1.1-33.9 0-1.9 14.7-7.3 29.3-12.3 43.2-12.9 36.2-19.5 48.2-51.4 70.6-89 62.5-195.6 82-270.8-12.8-19.7-24.9-29.3-56-36.4-86.6-14.2-.9-29.1 5.5-43.3 2.3-5.5-1.2-2.7-3.7-2.7-7.2 0-35.7 1.4-73.6-4.3-108.8-1.7-10.5-5-20.5-7.7-30.7 27.2-4.7 55.5-4.5 82-13.1 17.8-5.8 14.4-7.8 25.5-20 20.9-23.1 42.8-35.2 71.5-46.4 26.5-10.4 34.6-8.6 62.5-7.5 21.7.8 43.5 1.5 65 4 19 2.2 39.5 3.8 54.5 16.5 15.6 13.1 28.3 31 42 46 28.6 2.2 57.4 2.2 86 0 15.5-15.7 34.3-45.4 54.8-54.2 23.2-10 86.7-12.5 113.7-13.3 16.3-.5 29.3-1 44.8 4.3 31.5 10.8 59.8 25.9 82.3 50.7 12 13.2 7.3 13.9 26.5 20Zm-593.2-54.7c-108 7.2-173.1 129.2-138.8 227.2 25.9 74 84.1 126 166.5 120.5 56.3-3.8 119-56.1 137.5-108.5 39.4-111.4-40.5-247.6-165.2-239.2m437 0c-115.5 7.8-182.9 134.3-145.8 239.2 18.7 52.7 81.8 105.1 138.5 108.5 82 4.9 139.7-46.7 165.6-120.5 36.8-105.2-40.8-235.1-158.2-227.2ZM882 1053c33.2 12.8 54.5 43.2 74.5 71 2.3-3.1 11.6-9.7 11.3-13.3-.6-6.8-26.5-34.7-32.8-40.2-16.1-14.2-27.1-16.8-48.5-18.5-1.1 0-4.7-.8-4.5 1m284-1c-13.5 1.8-29.8 1.6-41.3 9.2-8.5 5.6-45.3 41.4-44.5 50.2.3 3.3 9.1 9.7 11.3 12.6 16.1-22.9 32.9-45.6 56.2-61.8zm-194 77h104c-2.4-6.9-8-12.7-11.7-19-27.1-.7-54-1.1-81.1.2-.7 2.7-12.5 17.6-11.2 18.8m-323 3-45 6c1.3 6.3 3.5 12.5 4.7 18.8 3.1 16.1 4.6 33.3 5.3 49.7.3 5.9-1.3 21.8.1 25.9.8 2.2 15.5 6.3 18.4 6.6s.5-4.3.4-6.4c-1.2-35.1 1.4-68.2 16-100.5Zm795 6-45-6c14.8 33.6 18.8 70.6 15 107 3.5-.7 18.8-3.7 19.8-6.7 1.4-4.1-.2-20 .1-25.9.8-16.4 2.3-33.6 5.3-49.7 1.2-6.3 3.4-12.5 4.7-18.8Zm-457 95h74c0-10.9-.1-20.2 1.5-31 3.3-22.6 11.9-44.1 17.5-66-5.9 2.7-12.6 0-18.4 0-29.5-.3-59.5 1.8-89.1 1.1-1.7 0-2.9-.3-4.4-1.1 5.6 21.9 14.2 43.3 17.5 66 1.6 10.8 1.5 20.2 1.5 31Zm2 13c-2.1.2-7.4-.8-8.6.9-.7 1-3.1 19.4-3.9 23.1-5.3 23.4-15.1 44.9-29.5 64 2 .5 2.7-.7 4-1.4 3.4-2 11.8-7.9 14.4-10.6 4.8-4.7 12.8-27.6 15-35 4-13.3 6.4-27.3 8.5-41Zm111 88c1.1-1.2-9.2-14.6-10.5-17-8.2-14.2-14.3-31.1-18-47-.8-3.7-3.3-22.1-3.9-23.1-1.2-1.8-6.4-.7-8.6-.9 2.2 13.7 4.5 27.7 8.5 41 2.2 7.4 10.2 30.3 15 35z" class="outline" data-original-prefix="outline"/><path id="outline-eyes2" fill="#000" d="M791.8 1064.3c75.4-6.2 152.2 54.7 157.2 131.2 4.3 66.6-6.2 126.6-67.7 162.3-85.2 49.4-185-7.6-209.8-96.8-24.3-87.4 23.4-188.8 120.3-196.7m34 15.9c-58.3-.5-109.4 57-118.5 111.6-22 130.9 129.2 224.2 206.1 98.1 40.7-66.7 24.5-153.3-44.1-193.7-10.5-6.2-31.5-15.8-43.5-16M763 1084c-16.4 3.7-31.9 14.1-44 25.5-72.4 68-52 193.5 33.3 240.7 61.6 34.1 135.2 13.3 170.5-46.9 4.6-7.8 10.1-18.4 11.2-27.3-2.8-.6-1.6.8-2.3 2.1-31.8 59.3-83.5 103.3-154.4 72-101.6-44.9-112.9-205.9-16.3-263.7 1.3-.8 2.5.2 2-2.5Z" class="outline" data-original-prefix="outline"/><path id="outline-eyes1" fill="#000" d="M1229.8 1064.3c74.4-6.3 136.7 43.9 149.9 116.5 20.8 114.3-79.9 232.9-197 185-73.2-29.9-88.4-97.7-83.7-170.3 4.2-64.8 66.5-125.8 130.8-131.2m-10 15.9c-17.1.9-47.8 19-60.8 30.3-60.6 52.8-59.9 139.9-10 200 53.7 64.6 141.8 43.3 178.1-26.8 21.5-41.5 20.9-94-1-135.3-18.1-34.2-66.3-70.1-106.4-68.1ZM1113 1276c28.1 84.7 123.3 118.2 197.3 64.8 76.8-55.4 86.6-178.6 10.2-238.8-10.1-8-23.8-16.1-36.5-18 5.6 4.3 11.9 7.6 17.5 12 75.4 59.2 66.8 190.6-11.6 243.4-69.8 47.1-143.4 7.8-173.9-62.7z" class="outline" data-original-prefix="outline"/></g></g>
<g class="trait-group" data-category="right ear"><path id="fill-ear-rt" fill="#fff" d="M1715.7 184.2c3.2-.7 6.5-.5 7.2 3.3 2.3 39.5-3.6 77.2-9 116-.7 4.7-.2 11.1-1.1 15.9-5 26.9-24.5 58.9-29.7 86.3-5.7 30.4-4.7 64.8-10.9 95.1-7.8 38.3-25.1 77.8-33.7 116.4l-71.9 122.1c-45.8 31.3-94.9 58.3-141.8 88.2l-35 81-84.6 77.3c-5.6 2.9-16.3-.8-22.4-2.4-27.7-7.2-48.3-18.1-70.9-35.1-16.5-12.5-27.2-20.9-37.6-39.4-6-10.5-10.9-22.9-14.5-34.5 26.8-59.3 58.7-116.4 86.8-175.2 4.9-58.7 6.7-117.8 11.4-176.5 36.5-47.5 77-92.5 114.8-139.2 47.2-35.9 96.4-69 144.9-103.1 66.1-31.9 127.9-72.1 197.8-96.2Z" class="fill" data-original-prefix="fill"/></g><g class="trait-group" data-category="right ear"><path id="outline-shading-ear-rt" fill="#000" d="M1680 253c.3 2-.2 3.9-.7 5.8-8.7 33.2-28 45.7-45.3 72.7-19.4 30.1-38.8 69.6-49 104-2 6.9-9.8 35.5-7.5 40.5 2.1 4.5 7.8 5.5 4.6 13.6-1 2.4-4.9 4.5-3.6 6.5.6 1 7.7 5.3 8.9 4.9 1.4-.4 5.2-8.5 9-7.8.7.1 4.7 3.7 6.3 4.6 1.9 1 8.5 3.8 9.3 4.7 4.5 5.1-6.4 13-3.6 17.5.6 1 12 9.8 13.2 9.9 2 .2 6.1-6.5 9.2-4.7.4.2 3.6 5.9 5.6 7.9 2.9 2.8 10.2 6.5 12 9 4.3 6.3-4.2 10-3.3 13.2.6 2.3 7.8 6.8 9.2 10 3.6 8.6-7.3 23.2-9.3 31.7-3.3 2.3-12.5-11.7-13.6-12-4.4-1.2-4.3 4.3-7.2 6.6-7.3 5.9-17.5-8.4-21.1-6.2-1.5.9-12.1 27.6-14.1 31.9-9.1 19-19.2 37.7-30.4 55.6-5.7 9.1-17 28.1-23.9 35.1-6.1 6.2-22.6 16.5-30.6 21.4-27.1 16.9-48.1 18.1-77.4 27.6-11.9 3.8-40.5 13.1-48.4 21.5-2.4 2.5-5.1 6.9-7.1 10-1.6 2.4-10.7 17.9-10.8 19.2 0 1.1 3 4.7 3.9 5.7 1.4 1.5 9.4 7.2 9.7 7.8 1 1.8-1.5 4.6-.4 6.8.5 1 3.8 3.2 5 3 1.4-.3 2-3.7 3.6-4.4 1.9-.9 5.3 0 5.9-.6.9-.7 2.4-11.2 5.1-12.3 28.4-5.8 53.7-14.9 79-29 37.5-20.9 69.2-49.9 102.5-76.5 2.5-2 5.5-4.5 8.4-5.5-22 29.2-47 56.2-78.1 75.9-14.3 9-29.7 16.2-44.2 24.8-6.6 3.9-30.4 17.4-34.2 21.8-1.5 1.7-16.3 37.7-17.1 41.1-.5 2.3 1.5 2.8 1.6 4.5 0 1.2-9.7 20.6-10.5 21.5-2.1 2.2-4.8 1.4-6.9 3.1-3.9 3.1-10.1 15.3-14 20-7.4 8.9-25.4 25.8-34.5 33.5-10.2 8.6-22.7 15.9-34 23-3.5 20.4-12.3 16.1-28 12-37.5-9.7-64.7-28.6-93.9-53.1l-8.1-11.9c3-7.3 3-12.6 7.6-19.4 9.5-14.2 27-30.5 38.4-44.6 2.4-3 17.7-21.7 17.9-23.1.3-1.9-7.2-5.6-3.3-14.3 1-2.3 4.4-4.3 2.9-7.1-2.8-5.4-7.8 3-12.9 2.7-5.8-.3-12.4-9.3-13.4-14.4-.9-4.3 1-9.7.3-12.3-.9-3.7-7.9-10-8.4-15.7-.4-5 15.1-25 15.8-32.2 2.3-.5 1.6.3 2.2 1.3 1.3 2.1 7.3 14.7 9.3 14.7 2.9-2.6 5.6-9 10-9.1s17.5 10.7 18.3 14.8c1.6 7.9-13.7 13-2.3 18.2 1.5-.1 3.5-8.7 7.2-9.8 5-1.4 8.7 5.3 14.3 2.3 9.5-16.8 18.2-33.9 26.8-51.2 13.7-27.4 25.6-51.9 41.7-78.3 11-17.9 25.9-32.9 29.3-54.7 1.5-9.4 1.1-18.9 1.1-28.4l54 6.5c10.4 14.5 17.6 31.1 26.5 46.5 1.4-.6 10.7-11.6 11.6-13.4 5.1-10.3 14.6-53.4 15-65.1.2-4.9-3.5-5.2-7-7.4-6.9 19.2-20.4 2.3-30.6-4-1.7-4.1 6.7-11 5.4-12.9-4.3-1.4-11.9-10-15.9-8.7-5.6 1.7-6.9 10.7-8.1 11.5-2.9 2-18.9-13.2-23-14.6-1.4-5.8 8.7-12.1 8.1-15.7-2.2-.7-7.6-6.3-8.7-6.5-3.1-.5-8.1 10.6-11.9 11-2.5.2-16.4-9.8-20.4-10.6-2.4-2.1 3.8-7.9 5.2-10.8 1.7-3.7 2.7-6.7-.2-10.1-.3-.4-7.5-5.8-8-6-4-1.9-4.6 4-7 7-8.5 10.6-9.7 3.2-17.1-2.9-1.8-1.5-7.7-4.4-8.5-5.6-3-4.7 9.1-12 9.4-15.7.3-3.5-17-9.2-8.7-22.7 3.1-5.1 7.3-4.3 7.8-4.7.6-.6-1-6.8 4.8-9.7 7.7-3.8 16.8 8.4 19.7 7.7 4.9-6.5 8.5-16.6 18.4-15.8 1.2 4.4 13.9 14.4 14.2 17.4.6 6.1-14.5 12.8-11.9 16.4.5.6 10.2 7.3 11.2 7 2.7-.7 7-11.6 11.2-12 2.9-.3 13.6 11.7 17.3 13.7 2.4 6.9-8.8 14.5-6.4 18.3.6 1 7.2 5.8 8.5 5 2.6-6.1 4.3-16.4 12.8-13.2 1.5.6 17.4 10.3 17.8 11.2 1.5 2.9-10.3 13.6-10.6 18 3.5.5 17.9 11.8 20 10 1.1-10.6 4.8-15.5 16-12 1.3-1.4-1.8-26-.8-31.3s9.6-20.9 12.6-26.4c17.6-31.6 51.4-76.3 80.4-97.5 18.6-13.5 41.2-28.1 60.8-40.2 6.9-4.3 19.7-12.6 26.5-15.5 1.8-.8 3.3-1.4 5.4-1.1Zm-115 343c11.1-2.5 18.4-14.1 24.4-23.1 1.7-2.6 8.7-13 9.2-14.9.7-2.5-7.9-8.8-10.6-7.6-1.5.7-4.1 4.6-6.1 6s-7.1 2.9-8 4.2c-1 1.4-9.4 24.1-9.7 26.1-.5 3.5.7 5.9.8 9.2Zm-294 371c.7.7 7-4.7 8-5.5 9.3-7.7 17-17 26.5-24.5l49-52c1.4-3-5.2-7.8-3.3-15.2.4-1.4 5.5-6.1 2.2-6.7-1.9-.4-7.2 7.9-12 7.9-3.7 0-9.3-8-15.3-4.7-10 17.1-21.2 33.5-33.2 49.3-10.3 13.5-11.2 12-16.5 29.5-2.2 7.2-4 14.6-5.5 22Z" class="outline" data-original-prefix="shading" opacity=".2"/></g><g class="trait-group" data-category="right ear"><path id="outline-ear-rt" fill="#000" d="M1202 940c-.7 2.2-2.8-.3-3.7-.8-7.5-4.1-15.4-7.3-21.3-13.7-11-12.2-18.8-30.7-29.5-43.5-1.6-4.6 0-20.2 2-25 2.1-5.1 8.5-12.8 11.7-18.3 15.6-27.4 29.9-56 41-85.5 2.9-1 12.6 1.5 13.7-1.8 1.5-4.5-2.4-14.2-1.8-19.8.6-5.7 5.4-14.9 7.2-20.8 19.1-62.7 19.6-130.1 25.3-194.7 25.9-36.9 52.3-73.4 80.4-108.6 6.1-4.5 13.9-5.4 20.9-7.6.9-5.5-1.2-12.2 1.3-17.2 19.4-19.9 38.5-46.9 59.9-64.1 43.3-34.7 113.5-72.5 164.2-95.8 36-16.5 113.1-50.1 150.5-53.6 2-.2 4.9-.6 6.6.7 1.3.9 4.2 14.2 4.5 16.7 5 34.4 0 106.7-6.2 141.6-2.7 15.4-3.5 13.8-11.5 25.5-20.9 30.2-30.9 86.3-28.2 122.9.9 12.8 7.2 15 4.6 29.5-1.9 10.4-16.9 71.2-22.6 75.4-1.6 1.2-11.6 3.5-12 5.2 1.8 11.3 6 12.6 1.6 24.3-17.4 46.2-55.1 107.3-90 142-35.9 35.8-70.5 53.9-113.6 78.5-12.7 7.2-18.8 16.5-25.8 29.2-2.1 3.8-8 18.8-9.7 20.3-2.4 2.1-11.1 1-13 5-2.3 4.8 3.8 10.5 3.3 15.3-.2 2.6-7.5 18.1-9.4 20.7-5.5 7.6-25 19.5-33.4 27.5-14.1 13.5-27.2 28.2-41.4 41.6-7.1 2.4-14.6 3.4-22.1 3-15.9-.8-45.9-12-59.4-20.7-1.4-.9-4.4-2.4-4.1-4.4 10.7 4 34.4 9.2 45.5 8 14.3-1.5 58-38.5 70.5-49.5 6.3-5.5 22.8-19.3 26.8-25.2 1.7-2.4 7.2-13.8 7.7-16.3.7-3.6-8.2-12.5-11.6-11.6-4.2 1.2-7.9 14.7-11.5 14.7-.8 0-11.9-8.5-12.6-9.5-3.3-4.3 9.1-15.5 8.8-19.1 0-.9-10.3-11.7-12.6-10.4-1.9 1.1-7 15.2-12.5 14.7-2.1-.2-11.6-9.5-11.5-11.1.3-3.2 10.8-14.9 10.8-16.2l-12.3-9.5c-2 .4-7.6 11.3-9.3 13.7-.4.5 0 1.9-1.7 1.2-.8-.3-12.2-11.8-12.4-12.7-1-3.7 7.4-10.2 6.8-12.7l-6.4-4.4c-.8 0-1.8 1.7-2.3 2.5-8.7 12.8-19.3 34.1-26.7 48.3-9.7 18.5-20 39.9-24.6 60.4-3.7 16.5-2.6 19.7 1.9 35.3.4 1.3.6 3-1.3 2.3-2.3-.9-15-11.2-17.5-13.5-4.4-4.1-9.2-7.6-9.1-14 .1-6.2 1.2-18.8 2.1-24.9.6-4.2 26.4-37.8 31.1-45.9 3-5.3 20.7-40.8 19.7-44-.4-1.5-8.8-6.8-10.8-5.5-1.6 1-5.4 16.3-8.7 16.8-1.9.3-9.9-8.4-12.4-9.6-.4-4.7 9.3-14.6 7.6-18.3-.7-1.6-12.1-10-13.5-9-1.2.8-3 15.2-9 12.5-1.6-.7-8.6-9.6-8.9-11.2-.6-3.7 6.8-11.7 5.8-13.2l-7.9-5.1c-7.1 12.3-13.3 25.1-19.8 37.7-2.6 5-6.7 10-9.1 15-2.8 6.2-15.3 38.7-16 44-3 22 12.8 50.5 26.9 66.4Zm517-752c-41.7 13.6-81.4 32.9-120 53.5-44.4 23.7-89.6 51.7-131.9 79.1-37.3 24.2-73.8 51.1-104 83.8 2.3 1.6 7.9 8.1 10.2 7.5 2.6-.7 10.3-13.4 13.2-15.9 2.9-2.6 2.2 0 3.5 1.5s9.1 10.1 8.9 10.9l-12.9 15.1c6.4 5.6 12.9 11.5 20.5 15.5 2.5 0 8.2-11.3 11.1-13 .8-.2 12.1 9.7 12.3 10.6.4 2.4-8.4 10-8.8 12-.4 2.2 15.3 12.7 17.4 12.4l8.2-12c2 1.6 12.9 7.8 13.2 9.6.5 2.6-7.4 11.7-6.4 13.4 3.4 2 25.1 16.9 26.5 15.9l7.6-13 15.4 8.1c1.4 2-9.2 12.3-7.5 14.9 1.6 2.4 22.4 11.8 26.1 15 1.5-.9 1.4-2 1.6-3.5.5-4.4-.6-14.2-1.1-19-1.1-11.1-8.7-37.9-7.9-45.9.7-7.6 15.4-37.1 19.8-45.3 27.6-51.9 68.3-85.1 109.2-125.8 6.8-5.4 15.2-7.9 22.3-12.7 3.7-2.5 26.5-23.7 29.7-20.8l-22.5 39c-10.9 8.2-22.7 15-33.4 23.6-53 42.2-92.5 108.3-94.9 177.2l12.8 8.2c1-2.3 6.2-13.5 8.4-13 1.8.4 8.4 9.7 11.6 10.6.8 3.6-5.8 10.1-6.7 13.3-.5 1.7 12.6 11.5 15.1 13.1l8.2-10.9c3 2.8 13.4 8.5 12 13-2.7 8.2-10.2 6.5-.6 15.5 1.8 1.8 14.7 13 15.7 13.3.6.2 1.9.4 2.3.1.5-.3 3.7-9 5.6-10 .9-.2 10.8 9.2 11.5 10.5 3.2 5.4-4.6 9.4-3.9 12.9.3 1.7 10.8 10.8 12.8 12.6 6.3-25.4 17.4-53.3 19.1-79.5.5-8.5-.5-17.5 0-26.1 1.9-35.4 10.1-81.8 23.3-114.7 6.8-17 15.7-25.4 19.5-44.5 7.4-37.6 11.2-78 8.3-116.2Zm-354.1 264c-2.1 1.5-11.5-8.1-13.9-9.6-.2-3.3 9.6-11.3 8.5-13.4-3.7-1.9-9.1-9.8-13.1-7-6.9 8.8-14.4 17-21.4 25.6-15.7 19.2-37 44.4-50.5 64.5-10.9 16.3-10.6 37.7-12.6 56.4-2.3 21.3-5.1 42.7-7 64-2.3 25.7-.7 63-9.5 86.5-2.1 5.5-15.5 30.3-15.3 33.3.1 1.4 6 11.1 7.3 11.7 1.6-1.9 5.1-10.7 6.5-11.5 3.5-2.2 9.3 8.7 12.9 10.2-.6 4.2-8.8 11.5-6.4 15.4 1.4 2.2 10 7.2 12 10 2.3-1.3 5.9-12.5 6.6-12.9 1.4-1 13.6 8.5 13.8 9.6.5 2.3-7.5 10.1-5.4 13.4.7 1.1 10.4 5.7 11.5 4.9 14.9-28.1 30.2-56.2 47.7-82.8 12.2-18.5 28.6-36 36.4-56.6 6.7-17.6 17.7-69.2 14.8-86.8-.7-3.8-10.8-27.6-9.8-28.7 13.4 6.2 26.8 13.4 39.3 21.2 3.9 2.5 14.9 8.7 17.2 11.8 3 4 10.2 28.6 12 35 5 17.7 6.7 61.6 34.5 34.5 18.2-17.7 39.5-77.9 41-103 .2-3.1.6-11.1-1.1-13l-35.5-21.5c-2.6 1.8-4.7 11.1-7.2 11.9-2.7.9-15.4-6.2-15.2-8.2.2-2.3 7.6-12.8 6.9-13.7l-25.7-14.9c-2-.3-7.7 11.4-8.4 13.9-1.9 1.4-12.9-7.6-15.9-8l7.5-15.9-18-12c-2 .5-6.7 12.3-8.5 13.5-1.1.7-1 .5-2 0-1.1-.6-11.8-8.4-12-9.1l9-15.4-22.5-16c-2.1 3.4-4.9 6.4-7.4 9.7-.7 1-1 3.2-1.2 3.3Zm207.9 76.2c-.4-.7-12.7-9-13.5-9-1.7-.2-6.9 7.2-7.2 8.6-.8 3.8 4.2 7 4.7 9s-6.8 10.6-8.5 13.2c-28.1 43.5-30.1 78.6-42.7 126.3-2 7.6-3.2 4.8-6.4 8.1-12.1 12.1-23.3 21.3-37.8 30.7-4.2 2.7-37.6 22.8-39.5 21 3.2-7.4 7.6-14.4 10.5-22 10.2-27.5 10.4-59.8-8.1-83.9-10.7-14-18.2-14.4-25.6 2.2-9.5 21.3-13.4 47.3-14.6 70.4-18.3 22-37.9 43.1-54.4 66.6-3.9 5.6-16 22.3-17.4 27.7-.7 2.6 7.1 7.9 8.1 7.8 2.1-.2 7-12.2 10.5-10.4.7.4 10.7 9.5 10.9 10.3 1 4-7.7 8.8-5.4 12.3.4.6 10.4 8.1 11.1 8.1 3.1-.4 5.6-9.4 8.8-8.9.7.1 11 7.6 11.7 8.4 3.3 3.8-5.6 9-5.1 12.9 2.8 1.2 10.5 9.8 13.1 8.2 1.4-.9 4.7-8 6.6-9.6.8 0 13.7 7.8 14.4 8.6 3 3.3-6.8 10.3-5.9 13.8.4 1.5 10.3 8.7 11.9 7.6 2.3-7.8 9.4-15 12.4-22.1 2.9-6.6 3-14.4 6.1-21 27.2-18.9 59-32.5 86.3-50.7 50.5-33.6 111.1-115.8 131-173 1.1-3.1 3.9-8.7 3.1-11.5-.3-1-13.4-14.5-14.5-14.7-2.8-.5-7.2 10.6-10 11.9-1.6-1.1-12.1-9.8-12.3-10.6-1.1-3.5 8.8-11.6 6.5-15.3l-22.1-18c-1.7-.4-8.5 10.8-9.5 13-5.4-2-10.1-7.4-16-9-1.4-1.8 11.1-12.9 8.8-16.8Z" class="outline" data-original-prefix="outline"/></g>
<g class="trait-group" data-category="left ear"><path id="fill-ear-lft" fill="#fff" d="M594.7 816.3c-2-1.6-9.6-2.2-11.2-.3-1.2 1.5-7.1 22-8.7 26.3-5 13.4-11.3 26.2-16.5 39.5-4.5 11.3-6.1 33.4-24.5 26-7-2.8-24.8-26.8-30-34-16-22.3-30.6-47.2-45.8-70.2-39-59.2-74.4-111.4-98.8-179.2-9.6-26.8-15.4-43.5 1.9-68.6 23.3-33.7 61.6-64.8 95.5-87.5 28.2-18.9 84.4-32 118.3-39.7 24.1-5.5 52.8-14.8 76.3-6.3 34.6 12.6 112.7 57.7 134.2 86.9 11.9 16.2 14.4 48.2 16.6 68.4 4.4 40.2 2.4 79.8 10.5 119.5 5.7 28.4 15.5 63.5 25.3 90.7 9.5 26.8 26.4 56.8 33.6 83.4 2.7 9.8 2.8 21.2 5.4 31.2-20.8 30.1-50.2 57.8-83.8 73.1-4.5 2-23.1 9.9-26.7 10.3-8.6 1-32.2-11.5-40.2-16.4-30.9-19-65.2-41.9-82.2-74.8-5.7-10.9-9.1-24.8-15-35-4.8-8.3-17.4-24.5-23.9-32.1-1.8-2.2-8.6-9.9-10.3-11.2" class="fill" data-original-prefix="fill"/></g><g class="trait-group" data-category="left ear"><path id="outline-shading-ear-lft" fill="#000" d="M354 607c25 10.2 48.3 24.2 72.6 35.9 13.7 6.6 30.3 16 45.8 13.1 5.7-1 44-29.1 51.4-34.6 19.1-14.1 38.4-29 55.6-45.4 2.4-2.2 16.9-16.4 17.3-17.8.2-.7-.8-13.9-1-14.6-.7-2.1-5.4-2.5-4.8-5.7l112.4-.9c3 1.7 3.4 7.8 3.7 11.3 2.7 38-6.9 75.6 4.2 112.8 21 70.3 74.6 151.5 121.2 207.8 7.2 8.7 29.7 30.3 31.3 39.7 1.2 7.2-.9 6.5-3.2 11.4-7.5 16.4-34.7 36.9-50.7 46.3-9 5.3-27.2 14.4-36.9 17.2-1.4.4-2.6.7-4 0-24.5-12.8-50.2-23.4-74.5-36.6-30.1-44.6-58.6-90.2-95.4-129.6-2.7-2.4-13.6-3.8-15.6-1.4l-48.6 89.4c-2.6 4.2-8.5-3.4-10.8-5.9-25-26.8-47.5-67.8-68-99-14.6-22.2-30.2-43.3-43.8-66.2-23.6-39.9-44.2-83.1-58.2-127.3Zm423 360c-4.3-10.8-5.6-28.6-11.1-38.3-4.3-7.6-16.3-19.5-22.2-27.8-12-16.6-23.4-35.5-33.8-53.2-13.5-23.1-33.6-71.9-57.8-82.2-8.1-3.4-11.8-1.6-19.5-2.5-6.2-.7-12.2-2.2-18.4-2.9l-17.1 35.8c6.1 2.2 12 5.3 18.2 7.4 10.5 3.6 38.2 7.9 44.8 14.2 7.1 6.7 12.3 40.6 19.5 52.5 6.6 11 30 33.7 39.9 44.1 14.9 15.5 36.1 38.7 53 51 1.3 1 2.7 2.2 4.5 2Z" class="outline" data-original-prefix="shading" opacity=".2"/></g><g class="trait-group" data-category="left ear"><path id="outline-ear-lft" fill="#000" d="M844 941c3.5-3.7 9.5-11.8 12.4-16.1 4.8-7.2 16.4-28.2 15.6-36.3-16.8-39-30.3-79.4-48.1-118-7.2-15.6-22.5-39.6-25.4-55.6-1-5.8 0-11.7-.5-17.5-3.3-45.1-7.7-135.4-25.5-174.5-3.3-7.2-25.2-24.6-32.6-30.4-33-26-70.9-45.4-110.4-59.7-68.6 7.7-172.2 32-218.5 86.6-11.6 13.7-35.4 43.8-42.8 59.2-2.8 5.7-1.1 5.2-1.1 9.9-.6 34.1 31 102.7 47.4 134.5 23.4 45.3 67.4 118.5 102.5 154.5 3 3.1 13.8 12.9 17.6 13.5 1.7.3 4.6-6.1 5.3-7.7 14.2-30 26.4-60.7 41-91 5.7-11.9 11.2-28.3 17.9-39.1 10.4-16.5 24.8-29.7 35.4-48.6 8.3-15 26.4-54.2 27.8-70.3.8-9.2-9.5-29.1-14.5-37.3-14.7-24.4-35.8-45.3-60.4-59.6-2.6-2.3 3.1-7.7 5.1-8.9 6.8-4.5 36.1-12.8 44.5-13.5 17.3-1.5 48.8 8.1 63.5 17.5 5 3.2 7.9 6.1 7 12.5-15-2.5-40.6-15.3-47.5 6-7.2 22.3 16.6 48.8 27.5 66.5l-7.8 55.7c4.9 9.7 11.4 18.4 18.3 26.7 10.7 12.9 16.5 19.9 25.3 34.7 27.2 45.4 45 96.6 73.8 140.2 5.2 7.8 23.4 29.6 24.3 36.7 1.1 8.3.3 18.2 1.9 26.7-1.8 3.8-26.4 25.2-28.8 22.7 1-5.6 4.4-10.8 5-16.5 2.2-21.2-16.5-60.3-26.5-79.5-23.8-45.9-52.8-93.3-86-133-5.4-6.5-16.8-16-20.5-22.5-1.2-2-1.5-4.3-2-6.5l-62 104c4.1 1.2 8.2 4.3 11.7 6.8 2.7 1.9 14.1 10 15.3 11.7 3 4.1 6.3 16.5 8.8 22.2 7.7 17.2 25.2 54.7 36.7 68.3 7.1 8.4 25.7 22.7 35 30 24.3 19.3 37.5 32 71 29 9.3-.8 17.4-5.9 26.5-6-10.1 6.5-41.4 22.8-52.5 23s-39.2-12.2-49.4-18.6c-13.5-8.5-21.1-19.2-32.6-29.4-11.3-10-27.4-17.4-33.7-31.3-7-15.8-10.7-29.5-19.7-45.3-6.6-11.7-14.4-24.6-24.7-33.3l-4.9 5.1c-15.5 20.1-21.9 45.4-27.1 69.9-3 14.1-5.4 28.6-5.5 43-2.8 3.2-28.5-20.2-31.5-23-80.1-74.1-140.5-192.9-177.2-294.8-2.9-8.2-11.2-27.8-12.1-35-1.2-10.5 17.8-49.1 23.6-59.9 8.7-16.2 21.8-38.5 33.7-52.3 17.9-20.8 63.6-38.8 89.5-49.5 41.3-17 119.9-46.1 163.2-35.2 14 3.5 51.2 30.2 65.3 39.7 21.7 14.6 45.1 30.3 65.4 46.6 5.8 4.7 23.5 19 26.2 24.8 4.2 9.2 1.4 36.4 1.9 48.1 2.4 62 10.9 128.3 38.9 184.1 5.6 11.2 13.7 22 19.1 32.9 6.1 12.4 10.3 26.9 16.3 39.7 9.2 20.1 20.9 33.1 21.8 56.2 0 2.2.4 4.4-.5 6.5-13.3 16.2-22 40.8-39.8 52.2-4.6 3-11.3 6.6-16.7 7.8Z" class="outline" data-original-prefix="outline"/></g>
<g class="trait-group" data-category="head"><path id="fill-hawk5" fill="#fff" d="M953.9 788.3c1.7-4.3 3.6-8.3 7.3-12 2.6 4.6 5.7 8.6 8.8 12.7 10.4 13.2 24.9 22.2 43.5 26.4 10.4 2.4 20.5.9 30.3-2.6 19.4-6.9 32.1-19.2 41.4-34.3.4-.7.8-1.3 1.2-1.9 3.4 2.9 4.7 5.1 7.4 12.4 4.2-10.3 7.6-20.2 8.4-31.3 8.9 10 16.6 19.7 20.9 31.3 1.4-1.8 1-3.6 1.6-5.1.5-1.6.6-3.2.9-4.9.9-4.2 1.8-8.5 2.6-12.7.3-1.9 1.2-1.8 2.8-.7 1.4 1 3 1.9 4.4 2.9 7-12.6 11.7-25.8 17.1-38.7.5-1.2.9-2.4 1.6-3.6.8-1.5 2.2-2.1 3.5-.6 2 2.3 3.5 4.5 2.4 7.7-6.3 17.6-12.5 35.2-20.2 52.5-.1.3-.3.7-.8 1.5-1.3-2.1-2.4-3.7-3.8-5.9-2.6 10.8-5 21.3-14.2 30-1.6-11.8-5.7-22.6-11.7-33-1.6 1.3-2.2 2.9-2.6 4.6-2.8 11.4-7.6 19.5-15.8 26.4-.6-3-1-5.9-1.8-8.8-.7-3-2.1-5.7-4-9.1-2.4 3.9-5.4 7-8.2 10.2-12.3 14-29.2 22.1-49.7 25.5-4.4.7-8.7-.1-12.9-1-22.2-4.9-38.5-16-50.1-31.9-.5-.8-.7-1.7-2-2.3-3.3 5.5-4.9 11.2-5.3 17.7-6.7-6.1-11.5-12.6-14.2-20.1-1.3-3.7-1.3-7.8-4.5-11.4-5.9 10.6-10.2 21.4-11.7 33.3-9.2-8.8-11.6-19.2-14.2-30-1.3 2-2.4 3.7-3.9 6-2.8-6.8-5.5-13-8.1-19.3-4.9-12.1-9.1-24.3-13.1-36.5-.5-1.5 1.9-6 3.5-6.6 1.9-.7 2.4.6 2.8 1.5 1.7 3.8 3.2 7.6 4.7 11.4 4 10.3 8.3 20.4 13.7 30.6 2.1-1.3 4.2-2.6 6.6-4.1 2.7 8.2 3.2 16.5 5.5 25.2 4.4-12.1 12.2-21.7 21.1-31.8.8 11.1 4.2 20.9 8.5 30.6v-.2Z" class="fill" data-original-prefix="fill"/></g><g class="trait-group" data-category="head"><path id="fill-hawk4" fill="#fff" d="M960.1 886.7c8.3 24.7 12.1 49.8 17.9 74.6 7.8 33.6 15.9 67.1 25.7 100.3.6 2 .9 4.1 1.4 6.5-2.8-1.1-3.4-3.1-4.2-4.8-6.7-14.4-12.5-29.1-18.2-43.8-7.9-20.5-12.9-41.5-16.2-62.7-2.5-15.6-5.2-31.2-7.8-46.9-.7-4.5-1.6-8.9-1.4-13.4 0-3.2 1.7-6.3 2.8-9.7Z" class="fill" data-original-prefix="fill"/></g><g class="trait-group" data-category="head"><path id="fill-hawk3" fill="#fff" d="M1087.7 887.1c2.4 5.7 3 11.5 2.2 17.4-2.6 17.5-5.9 34.9-8.4 52.3-4.5 30.6-14.4 60.1-26.8 89.1-2.6 5.9-5.2 11.9-7.8 17.8-.7 1.7-1.6 3.4-4.1 4.9.5-2.5.7-4.5 1.3-6.5 10.8-36.5 19.6-73.2 28-110 4.9-21.6 8.3-43.6 15.8-64.9Z" class="fill" data-original-prefix="fill"/></g><g class="trait-group" data-category="head"><path id="fill-hawk2" fill="#fff" d="M974.4 832.4c2.3 10.8 4.9 21.5 6.7 32.2 3 17.7 8.2 35 12.2 52.5 1.5 6.5 1.8 13.1 1.6 19.7 0 .6.7 1.7-.7 1.8-1 0-1-.9-1.3-1.7-4.9-12.7-7.3-25.8-11.5-38.6-3.4-10-7.6-19.9-9.6-30.2-2-10.2-2.8-20.4-1-30.7.5-3.3 1.3-4.1 3.7-5.1Z" class="fill" data-original-prefix="fill"/></g><g class="trait-group" data-category="head"><path id="fill-hawk1" fill="#fff" d="M1073.3 832.5c2-.1 2.5 1 2.9 2.1 1 2.6 1.6 5.3 1.7 8.1.6 13.1-.8 26-5.5 38.6-5.9 15.6-10.2 31.7-14.8 47.6-.8 2.8-1.9 5.4-2.8 8.2-.2.7-.3 1.7-1.3 1.6-1.3-.1-.7-1.2-.7-1.8-.5-12.1 2.1-23.9 5.5-35.6 4.4-15 6.9-30.3 10-45.6 1.3-6.7 2.9-13.3 4.4-19.9.2-1.1.4-2.1.5-3.2Z" class="fill" data-original-prefix="fill"/></g><g class="trait-group" data-category="head"><path id="outline-hawk" fill="#000" d="M1056.5 1098.5c-.8 5.8-1.9 11.5-3.5 17-.7 2.4-1.3 2-3.4.9-6.5-3.5-6.4-3.4-10.4 1.8-5.5 7.2-9.4 15-12.6 23-.6 1.6-1.1 4.1-2.9 4.1-2 0-2.2-2.6-2.8-4.2-3.2-9.3-8.8-17.6-14.8-25.8-1.1-1.5-2.5-2.4-4.7-.9-1.7 1.2-3.8 1.9-5.9 3-2.1-3.2-2.2-7-3.2-10.5-.7-2.4-.7-4.8-.7-7.2 0-1.2-.4-1.7-2-1.3-3 .8-6.2 1.4-9.2 2.2-1.2.3-1.7.6-2.3-.8-2.1-4.8-4.5-9.6-6.1-14.5-2.2-6.8-5.1-13.3-7.3-20.1-4.1-12.2-9.2-24.2-13.4-36.4-3.9-11.4-8.4-22.7-12.9-33.9-8.3-20.9-17.2-41.7-26.4-62.3-6.1-13.7-12.7-27.2-18-41-1.6-4-2.7-8.2-4.2-12.2-.3-.8-.3-1.4 0-2.5 5.2 3.9 10.1 7.5 15.8 10.5 1.4.7 2.8 1.5 4.2 2.1.8.3 1.6 1.3 2.6.4s0-1.4-.3-2c-4-10.3-8.3-20.6-12.3-30.9-7.3-18.6-14.3-37.3-20.6-56.2-4.7-14.2-8.7-28.5-12.1-42.9-3.8-16.1-6-32.3-9-48.5-.7-4.2-2-8.5-2.2-12.7-.3-5.4-.5-10.8.3-16.4.4-2.8 1.5-5.6 1.1-8.6 4.4 5.8 8.6 11.6 15.2 16.6 1-17.1 9.2-31.7 20.4-45.9 2 6.7 5.1 12.6 8.4 18.5 1 1.9 2.7 3.3 3.8 5.1.3.4.7 1.3 1.7 1 .8-.3 1.1-.8 1.3-1.5 2.1-9.6 7.1-18.4 12.9-26.8 6.9-10.1 15.9-18.8 26.2-27.3.2 1.4.4 2.4.5 3.4.3 5.9 2.5 11.3 5.7 16.5 2 3.2 2.4 3.2 4.9.2 5.7-6.9 11.9-13.5 18.7-19.8.7-.6 1.3-1.2 2.5-2.3.4 4.2 2.9 7.4 4 11 2.4-.8 4.2-2.1 6-3.5 4-3.1 8.1-6.1 12-9.3 1.6-1.3 3.4-2 5.6-2.1 11.5-.7 22.8-.7 34.3 0 2.2.1 4 .8 5.6 2.1 3.8 3.2 8 6.2 12 9.3 1.8 1.3 3.6 2.6 6 3.5 1-3.6 3.7-6.7 3.9-10.4 1.4-.2 1.7.7 2.2 1.2 7 6.4 13.5 13.3 19.3 20.5 2.2 2.7 2.8 2.6 4.6-.2 3.9-6.2 6-12.8 5.9-20 .7.4 1.1.6 1.3.8 16.9 13.9 30.1 29.7 36.9 48.7.5 1.2.8 2.5 1.1 3.7.2.9.1 2 1.4 2.3 1.4.3 1.8-.9 2.3-1.7 4.7-5.9 7.8-12.4 10.4-19.2.4-1 .7-2.1 1.3-3.7 1.5 2.1 2.6 3.7 3.7 5.3 6.3 8.4 11.1 17.1 13.6 26.8.9 3.7 1.5 7.5 2.2 11.3.1.6-.4 1.4.6 1.7.9.2 1.3-.6 1.8-1 4.2-3.5 7.8-7.3 10.4-11.8.6-1 1.2-2 2.6-3 .5 3.6 1.1 7.3 1.6 10.9 1.1 11.2-1.4 22.2-2.9 33.3-1.8 12.8-4.3 25.5-7.1 38.2-4.1 18.5-9.4 36.8-15.6 54.9-7.5 21.5-15.7 42.8-24.3 64-2.1 5.2-4.1 10.4-6.3 15.6-.2.5-.3.8 0 1.3.7.7 1.2 0 1.7-.2 5.7-2.4 10.6-5.5 15.4-9 1.8-1.3 3.6-2.7 6-3.6-2.4 8.2-5.5 16.1-8.9 23.9-6.7 15.1-13.5 30.1-20.2 45.2-11.9 26.7-22.5 53.6-32.6 80.8-7.9 21.4-15.2 43-23.7 64.3-1.1 2.8-2.3 5.5-3.4 8.2-.6 1.4-1.2 2-3.4 1.2-3-1.1-6.3-1.9-9.8-2.1v-.1ZM953.9 788.3c-4.2-9.7-7.6-19.5-8.5-30.6-8.9 10.2-16.7 19.8-21.1 31.8-2.4-8.8-2.8-17-5.5-25.2-2.4 1.5-4.5 2.8-6.6 4.1-5.4-10.1-9.8-20.3-13.7-30.6-1.5-3.8-3.1-7.6-4.7-11.4-.4-.9-.9-2.3-2.8-1.5-1.6.6-4 5.1-3.5 6.6 4 12.3 8.3 24.5 13.1 36.5 2.5 6.3 5.2 12.5 8.1 19.3 1.5-2.3 2.6-4 3.9-6 2.6 10.8 4.9 21.3 14.2 30 1.5-11.9 5.7-22.6 11.7-33.3 3.2 3.6 3.2 7.7 4.5 11.4 2.6 7.5 7.4 14 14.2 20.1.3-6.5 2-12.2 5.3-17.7 1.3.5 1.5 1.5 2 2.3 11.7 16 27.9 27.1 50.1 31.9 4.2.9 8.4 1.8 12.9 1 20.6-3.4 37.4-11.5 49.7-25.5 2.8-3.2 5.8-6.4 8.2-10.2 1.9 3.3 3.2 6.1 4 9.1.7 2.9 1.1 5.8 1.8 8.8 8.2-6.8 13.1-14.9 15.8-26.4.4-1.7 1.1-3.2 2.6-4.6 5.9 10.5 10 21.2 11.7 33 9.2-8.8 11.5-19.2 14.2-30 1.3 2.1 2.4 3.9 3.8 5.9.5-.9.6-1.2.8-1.5 7.7-17.2 14-34.9 20.2-52.5 1.1-3.2-.4-5.5-2.4-7.7-1.3-1.5-2.7-.9-3.5.6-.6 1.2-1.1 2.4-1.6 3.6-5.4 12.9-10.1 26.1-17.1 38.7-1.5-1-3-1.9-4.4-2.9-1.6-1.1-2.4-1.1-2.8.7-.8 4.2-1.8 8.5-2.6 12.7-.3 1.7-.4 3.3-.9 4.9s-.1 3.4-1.6 5.1c-4.2-11.6-12-21.2-20.9-31.3-.8 11.2-4.2 21-8.4 31.3-2.8-7.4-4.1-9.5-7.4-12.4-.4.7-.8 1.3-1.2 1.9-9.3 15-22 27.3-41.4 34.3-9.8 3.5-19.8 5-30.3 2.6-18.6-4.2-33-13.2-43.5-26.4-3.2-4.1-6.3-8.2-8.8-12.7-3.7 3.7-5.7 7.7-7.3 12v.2Zm6.2 98.4c-1 3.5-2.6 6.6-2.8 9.7-.1 4.5.7 8.9 1.4 13.4 2.5 15.6 5.3 31.2 7.8 46.9 3.4 21.3 8.4 42.2 16.2 62.7 5.7 14.8 11.5 29.4 18.2 43.8.8 1.8 1.5 3.7 4.2 4.8-.5-2.4-.8-4.5-1.4-6.5-9.8-33.2-17.9-66.7-25.7-100.3-5.8-24.8-9.6-49.9-17.9-74.6Zm127.6.4c-7.5 21.3-10.9 43.2-15.8 64.9-8.4 36.8-17.1 73.6-28 110-.6 1.9-.8 4-1.3 6.5 2.5-1.5 3.4-3.2 4.1-4.9 2.6-5.9 5.3-11.8 7.8-17.8 12.4-29 22.2-58.4 26.8-89.1 2.6-17.5 5.9-34.9 8.4-52.3.9-5.9.3-11.7-2.2-17.4Zm-113.3-54.7c-2.4.9-3.2 1.8-3.7 5.1-1.8 10.2-1 20.5 1 30.7 2 10.3 6.3 20.2 9.6 30.2 4.2 12.8 6.7 25.9 11.5 38.6.3.7.3 1.7 1.3 1.7 1.4 0 .7-1.2.7-1.8.2-6.6-.1-13.2-1.6-19.7-4-17.5-9.2-34.8-12.2-52.5-1.8-10.7-4.4-21.4-6.7-32.2Zm98.9.1c-.2 1.1-.3 2.2-.5 3.2-1.5 6.6-3 13.3-4.4 19.9-3.1 15.3-5.6 30.6-10 45.6-3.4 11.7-6 23.5-5.5 35.6 0 .6-.6 1.7.7 1.8 1.1.1 1.1-.9 1.3-1.6.9-2.8 2-5.4 2.8-8.2 4.6-15.9 8.9-31.9 14.8-47.6 4.7-12.6 6.1-25.4 5.5-38.6-.1-2.8-.7-5.5-1.7-8.1-.5-1.2-1-2.3-2.9-2.1Z" data-original-prefix="outline" class="outline"/></g>
<g class="trait-group" data-category="mouthpiece"><path id="fill-head-main" fill="#fff" d="M1321.1 1646.9c-1.9-1.3 1.4-12.7-10.7-8s-5.8 16-6.7 22.3c-1.6 11.1-1.8 20.2-2.8 31.2-1.4 16.2-8.9 17.5-17 28s-3.1 21.9-4 33.1-6.8 21.8-11.4 31.6-2.1 8.1-4.1 9.9c-5.5 5.1-12.7-11.2-15.5-12.5-9.9-4.5-9 9-10.5 14.5-3.7 13.5-13.2 20-24.6 27.4-2.1 1.4-8.4 5.2-10.4 5.6s-1.6-6.7-1.5-8.6c.4-7.5 1.3-15.3 1.9-22.8-.7-3.2-6.2-3.3-8.9-2.2l-14.7 29.3c-1.8 9.5-2.7 19.3-4.5 28.5s-3.9 9.9-7.8 13.2c-9.7 8.1-26.5 14.5-38.9 15.1 6.7-13.8 9.3-27.6 8-43s-2.9-22.3-11-18c-6.4 3.3-2 28.8-10.3 38.2s-16.2 10-21.4 22.1c-5 11.6-1.6 28.2.7 40.2-8.7-.6-20-5.2-26.5-11s-11.1-17.9-15.4-27.6c-3.3-2.7-7.3-2.1-9.3 1.9-6.5 12.9-7.6 27.7-4.3 41.8s6.7 9.6-3 10.9c-6 .8-20.1-4.2-24.9-7.9s-9.2-15.9-11.2-20.8-1.7-11-5-12-7.8.9-8.4 5.3c-1.2 8.9-.2 24.5 0 34.1s2.4 6.2-1.5 6.5-30.7-14.5-34-17.1c-10.5-8.1-8.4-19.9-14.1-30.9-6.9-13.3-18.3-11.2-22.9-30.1s.5-8.1-2.4-9.6c-11.4-5.6-20.9 23.2-21.9 31.1s-1.4 11.1-2.2 16.8.6 15 0 15.6c-15.2-2.3-24-15-30.9-27.6s-3.9-6.9-4.9-9.1c-3.8-8.2-6-17.1-9.7-25.3-2.8-1.7-6-1.6-8 1.1-3.1 4.3-3.9 16.4-5.6 21.9-2.4 2.1-10.6-10.8-11.8-12.7-4.6-7.4-10.8-20.4-12.1-28.9s1.2-19.5 0-27.9-8.5-17.1-10.7-24.3 1.5-20.9-10.3-14.8l-16 33.5c-1.4.3-1.6-.2-2.5-1s-5.9-6.7-6.9-8.1c-15.1-21.1-7.5-47.7-10-72-5.5-10-20.9-14.7-22.5-26.5s-1.3-18.8-2.1-27.9-1.2-9.5-2.2-11.8c-1.8-4.1-13.4-9.4-17.4-13.1s-6.8-7.7-7.4-12.1c-2-17.6-.6-25.2-10.3-41.7s-10-11.6-10.7-17.4 6.7-20.2 8.5-26.4c5-16.9 9.1-37.2 4.4-54.4-2.2-7.9-7.8-15.2-9.9-22.1s.7-28 1-33.1c.9-13.3 9.8-51.4 21.1-58.9s36.2-15.2 44.4-14.6 6.6 4.6 11.5 5.6c11 2.4 29.6-9.8 40.1-14 17.1-6.8 31.2-7.8 48.2-11.8 10.9-2.6 21.7-8.8 33.6-11.4s29.8-1.2 42.3-3.7 34.1-14 47.4-18.6c4.9-1.7 14.9-5.6 19.5-4.5 8.7 2.1 22 12.2 29.5 12.6s25.4-10.8 37.1-12c9-.9 29.4 8.3 38.4 12.4 6.3 2.8 14.6 9.3 20.8 10.2 16.3 2.5 33.5-2 50.6 2.4 8.6 2.2 19.7 9.6 28.2 9.9s10.8-1.8 15.9-2.1c37.1-1.8 68.8 9.1 98.5 30.6 2 1.4 4.6 5.2 6.1 5.9 2.9 1.3 7.9.2 11.4.6 13.6 1.7 29.6 16.2 34.1 28.9 6.5 18.3-.9 37.3 8.7 54.3 1 1.9 5.4 6 5.6 7.3.5 2.3-2.8 5.7-3.6 8.1-7.6 24.7-6.2 49.7.2 74.3 1.7 6.4 6.5 15.5 7.3 21.7s-11.3 21.7-13.9 29.7c-1.2 3.8-2.1 10-2.8 14.2-1.2 7.2 1.2 13.2-6.8 18.2s-15.1 7.8-20.7 10.3-9.8 5-11.6 3.8z" class="fill" data-original-prefix="fill"/></g><g class="trait-group" data-category="mouthpiece"><path id="fill-head-tooth2" fill="#fff" d="M1016.7 1562.4c-6.6-7.1-18.2-5.6-24.7 1.1-4.4 4.6-8.1 16-9 22.1-.5 3.7.7 6.9 3.5 9.4 5 4.6 27.6 10.9 33 6 2.8-2.6 3.5-16.8 2.9-20.8-.3-1.9-4.6-16.6-5.8-17.8Z" class="fill" data-original-prefix="fill"/></g><g class="trait-group" data-category="mouthpiece"><path id="fill-head-tooth1" fill="#fff" d="M1046.6 1560.4c-7.5-4.7-18.3-2.9-20.4 6.3-1.8 7.8-2 33.3 8.5 35.1 1.4.2 6-.5 7.5-.9.3 0 5.1-1.8 6-2.2 6.9-2.7 11.2-5.1 9.7-13.2-.2-1.3-.6-3.2-.8-4.2-1.4-5.8-5.2-17.5-10.5-20.9" class="fill" data-original-prefix="fill"/></g><g class="trait-group" data-category="mouthpiece"><path id="outline-shading-head" fill="#000" d="M1013.6 1363.4c1.5 1.2 6.4 6.8 7.8 6.5 10.7-10.4 21.7-19.7 38-17.8 11.9 1.3 51.9 22.4 59.6 31.7 6.8 8.2 12.8 23.2 1.9 30.7-11.4 2.9-23.6 5.6-34.7 9.3-14.2 4.7-25.8 9-36.2 19.8-6.9 7.2-19.1 21.1-21.5 30.5-3.5 13.6 1.3 34.7 10.7 45.4 2.6 3 6.6 4.1 8.6 5.9 7.5 7.1 19.7 33.8 24.9 43.6 4.6 3.6 8.4 13 14.9 13.1 4.2 0 8.2-5.5 10-9.1 5.7-11.5 11.3-44.7 9.1-57-1-5.5-5.1-10-6.4-13.8s-7.8-21.7-7.9-24 1.4-2.8 1.6-3.9c.3-1.8-2-4.4 1.3-5.3-.7 5.7 3 5.7 5 8.5 18.4 24.8 23.8 47.2 30.2 76.8 1 4.5 3.1 10.4 3.7 13.4 1.1 5.1-1.6 7.4 5.1 10.7 8.5 4.1 16.5-4 21.7-10 7.9-9 18.2-22.7 19.2-34.9 1.8-21.7-19.8-51.4-6.9-71.7 3.9-6.1 10.9 2.4 13.2 6.5 9.5 17.6 20.5 37.8 22.7 58.3 1.1 10.2-1.4 22.8.3 32.7.8 4.4 4.5 9.6 5.7 14.3 1.7 6.6 1.8 13.8 4.6 20.4l8.4-11.8c8.2-17.1 1.7-27.3 2.1-43.7.5-22.9 8.4-38.4 11.8-59.2 1.8-11.5 1.6-23.9 3.4-35.6.8-5.4 3.4-10.6 3.9-16.1 1.1-11.9-3.3-25.5-10.4-35.1-2.2-3-7.3-4.3-6.6-9.4 11.7-2.6 20.8-1.9 32.2 1.1 12.1 3.1 26.4 6.6 38.8 10.4 4.2 1.3 8.2 5.5 12 3-1.2-5.8-6.2-10.2-5-16.4 7.3-2 17 1.4 23.9 4.5 9.1 4.1 11.2 9 15.5 17.5 6.5 12.6 17.5 56.8 16.5 70.5-.7 8.4-3.1 14.6-3 24s1.1 22.4 2 32c1.1 11.3 8.8 44.8 6 53.1-1 2.9-3.9 6-5.2 8.8-4.3 9.5-15 34.2-22.8 40.2-7.3 5.6-30.4 7-39.9 10.6l-9.7 57.8c-1.4 8.3-15 18.2-17.1 24.9-1.7 5.3 0 16.3-.4 22.6-.6 10.6-4 23.8-8.6 33.4-2.2 4.6-4.5 7.8-10.2 5.3-5.4-2.4-6-14.1-14.5-7.3-3.5 2.8-8.1 20-12.3 25-1 1.2-10.5 8.6-11.8 9.2-14.2 6.2-11.8-17.2-17.1-22.1-1.2-1.1-8.3-2.4-9.6-1.6l-26.7 72.3c-1.3 2-17.6 10.8-19.9 11.1-1.5.2-4-.5-5.2-1.4-5.3-4 1.7-25.8 1-32.9-.6-6.2-6.2-12.2-7.1-18.4-.7-.6-12 1.4-12.7 2.1-2.1 2-.5 12.1-1.8 15.7-2.9 8.6-22.1 26.6-27 37-3.2 6.9-5.6 31.1-12.2 32.9-1.9.5-3.1-.2-4.7-1-5.7-3-19.3-19.7-25.7-25.4-1.1-1-.2-3.3-2.9-2.5l-15.5 43c-7.4 11.3-12.1 3.1-16.7-4.3-7.2-11.8-13.7-24.7-14.8-38.7-2.2.9-6.5 1.1-8.3 2-2.1 1.1-6.5 44.8-9.1 49.9-7.3 11.6-19.3-4.2-24.6-9.9-9.9-10.7-16.1-24.6-24.8-36.6-2.7-3.7-18.2-27.6-19.8-28.2-1.2-.4-10.5-.4-11.2 0-2.1 1.3-16.2 37.2-19.3 42.2-3.7 5.9-9.3 6.7-13.3.6l-17.7-41.8c-1.2-1-25.9.4-30.4 0-2-.2-3.6-.5-5-2.1l-22.5-111-23.5 44.9c-7.5 6.5-11.4 2.6-13.2-5.7-3-13.9-5.1-58.5-10.8-67.2-2.2-3.3-5.7-5.7-8.2-9.8-6.9-10.9-11.3-26-12.1-38.9-.2-2.5 1.6-4.7.7-7.7s-9.8-10.7-12.2-13.8c-12.7-16.3-14.6-34.7-20.3-53.7-3-9.8-9.9-21.3-9.2-31.6 1.2-15.2 11-39.5 10.7-53.2-.2-11.5-13.1-33.9-13.7-46.9 4.9-20.2 6.3-42.7 11.4-62.7.9-3.4 1.1-5.6 4-8 5.2-4.3 21.6-12.1 28.5-15.5 7.5-3.7 21.8-13.8 24 1.1 1.2 8-5.3 13.4-3.9 21.4 1.1 1.1 25-10.2 29-7.5 3.3 2.2-.5 2.5-1.1 3.2-3.4 4.8-8.4 8.8-12 14.8s-6.9 12.8-5.8 19.8c1 6.3 9.7 15.5 12.2 21.8 8.6 22-10.3 49.9.4 68.6 4.7 8.4 15.7 14.1 22.7 20.3 8.9 8 15.2 17.6 22.5 27 7.7-14.6 4.3-25.3-2.5-39-6.7-13.5-16.6-28.1-21.7-42.3-5.7-16.1 3.1-29 2.2-44.2-.4-7.3-5.2-14.4-5.1-22 .2-14.9 13.3-28.3 24.8-36.3 4.3-3.1 9-6.3 14.3-7.2-2.2 10.5-8.1 20.5-7 31.6.6 6.7 5.5 11.2 6.1 17.9 1.2 11.9-5.7 21.9-5 34 .4 7.7 4.5 13.4 7 20.5l12-19.5c2.5-2 14.5-16.2 17-14.5 2.8 9.4-.5 19.1-1 28.5-1.5 32.9-2.5 52.9 19.6 79.4 3.9 4.7 12.2 11.2 18.8 8.9 2.7-.9 4.3-19.7 5.4-23.6 2.9-10.8 18.6-36.7 26.8-44.2 3.5-3.2 15.9-10.4 16.4-1.6.3 6.3-5.8 22.3-6.8 30.2-1 7.2-2.4 23.8-1.9 30.6 0 1.6 1.3 5.4 2.1 7 2.3 5.4 12.6 16.5 18.8 15.3 14.6-2.8 23.2-27.1 30.4-38.2 13.4-20.9 29-25.5 21.1-56.4-4-15.8-10.6-18.7-19.5-29.5-5.1-6.2-9.6-14.3-16-20.1-9.7-8.7-42.3-11.4-56.3-15.8-10.6-3.3-14.1-17.9-6.8-26.3 7.7-8.8 40.8-26.8 52.4-31.6 24.4-10.2 33.8-10 54.3 6.6zM806 1714.5c.8 2.9 0 14 0 18 0 13 10 27.4 11.9 40.1.8 5.2.3 11.1 1.3 16.7 1.8 9.1 7.6 17.3 7.8 26.7 1.9-1.4 3.8-5.8 4.5-8 3.9-11.5 1.7-14.1.4-24.5-.7-5.7 1.9-4.2 2-5 .5-2.3-1.7-1-2-2.1-2.4-8.8 6.3-20.5 11-27.1.9-1.3 1.1-3.3 2-4.5 1.6-2 8.5-9.3 10.9-7.6.6.4 3.8 11.4 4.3 13.2 3.3 12 9 36.4 7.7 48.1-.4 3.2-3.8 11.5-3.7 12.9.7 7.1 3.9 16.4 3.8 24.1l7.5 23.6 14.5-22.2c9.8-6.7 10.4-20.6 15.3-31 3.2-6.9 8.6-12.3 11.2-19.8 2.2-6.4 3.7-14.2 3.5-21 8-1.9 5 5.5 6 10.5 1.2 5.7 5.3 13.6 6 19 1.9 15.6-3 40.6.2 54.8 1 4.2 9.5 14.6 12.4 18.6 3.3 4.5 7.1 8.3 10.3 13.7 4.2 7 7.3 15.4 11.5 22.5 3.6 0 11-28.2 11.4-32.6 1.8-17.5-11-34.4-4.4-52.4 7.5-16.3 9.1-33.1 8.5-51 5.3-.9 3.2 1.2 5 3.5 5.3 6.9 16.3 23 17.8 31.2 1.4 7.6.4 17.9 1.4 25.6 1.7 14.6 7.4 29.3 10.4 43.6 1.5 7.3 1.6 14.8 3.5 22 1.3-.6 2.3-4.3 2.7-5.8 1.9-6.2 2.7-13.4 4.6-19.4 3-9.9 8.7-17.6 12.2-26.8 7.8-20.4 4.1-40.9 6.5-61.5 1.5-13.4 10.1 8.8 10.9 10.2 6.1 11.3 21.2 31 21.2 43.8v35.5l7.1-10.2c5.7-6.3 15.5-15.4 17.5-23.7 4.6-18.9 2.6-30.1 1.4-48.5-.9-15 3-28.7 2.1-43.2-.2-3.4 3.7-4.5 5.8-3.2.6.4 4.6 10.6 5.8 12.7 10.1 18.3 22.6 37.2 30.6 56.4 3.2 7.8 5 16 8.3 23.7 1.9-14.1 11.3-24.6 16.7-37.3 4.9-11.8 8.9-24.2 6.7-37.1l-4.9-24.6c1.8 0 3.5-.2 5.3.2 4 .9 22.4 15.2 26.3 18.7 7.8 7.3 16.5 19.2 17.5 30l1-3.5c-1.2-12.5 2.8-25-1-37.1-1.7-5.4-3.7-11.1-5.5-16.5-1.1-3.1-8.1-10.1-4.6-12.5 3-2.1 6.5 2.1 9.1 3.1 10.9 4.1 19.5 7.4 26.2 17.8l11.8 24.7c4.6-12.2-4.2-21.3-4.1-32.5 0-9.3 3.2-19.8 4.1-29 .9-9.5.8-19.9 1-29.5 6.7-1.5 7.4 5.3 10.9 8.7l2.1 9.3c5.8-20.5-3.1-41.3 14.5-57 12.6-11.2 23.7-14.4 38.2-20.8 7.4-3.2 19.3-19.1 22.5-26.5 8.7-20.3-1.1-26.5-3.9-44.5-1.3-8.4-1.8-21.3-1.3-29.7.7-9.9 5.7-24.8 5-33.9-.9-10.3-9.8-24.5-11.5-35.6-1.1-7-.3-34.2-6.4-37.6-1-.6-1.9-.6-3-.5-1.8 13.2 6.2 21.2 5 34.5-1.4 14.5-9.6 16.9-16.9 27.1-5.9 8.2 0 11.6 1 19.9 1.3 10.7-3.8 22.8-2 35 1.1 7.3 9.4 18.5 10.7 25.3 2.1 11.1-2.2 27.2-7.4 37.1-5.5 10.5-12.6 14.6-20.4 22.9-7.9 8.4-32.2 26.6-43.8 29-4.6.9-9.4 0-14.3.7-11.4 2-31.7 14.9-32.5 27.5-2.4 2.9-8.8 24.5-10 25-.4.2-2.5.4-2.5-.5 1.5-9-2.2-15.5-4.1-23.7l-3.9-5.8c-.8 3.3-2.2 7.9-3.6 10.9-4.1 8.5-10.4 16.8-13.7 26.3-3.9 2.2-14.7 22.4-16.4 22.8-8.1 1.7-7.4-2.1-11.8-4.9s-10.4-4.9-14.2-8.3c-3.6-3.2-10.3-13.8-13-15.8-3.7-2.6-11.2-3.6-15.4-5.3-6.3-2.6-12.1-6.9-16.8-11.5-1.2-1.2-4.9-6.8-5.3-7-1.7-1-5.9.5-8.5-.5-2.2-.9-8.2-9.6-10.2-11.3-.8-.7-9-5.4-9.6-5.4-2.4 0-1.2 8.4-1.5 10.5-.7 5.8-1.3 17-2.4 21.6s-6.4 8.4-8.4 11.8c-3.9 6.7-6 14.9-8.9 21.9-1.4 3.4-6.7 8.5-8.1 12.1-3.3 7.9-3.2 17.5-5.1 25.8-.3 1.4.9 2.8-1.5 2.4-4-.6-6.2-9.8-8.5-13.2-1.6-2.3-4.9-3.2-5.7-4.1-7.5-8.4-16.7-20.6-20.6-31.8-2.1-6-3.3-20.9-10.3-22.8-1.8-.5-11.6 7.3-13.7 9.1-3.2 2.7-6.6 7.4-8.7 9.3-.4.3-7.2 3.9-7.9 4.1-11.6 3.3-14.3-6.9-19.6-13.5-2.9-3.6-6.3-6.3-9-9.4-1.1-1.3-1.3-3.9-2.7-5.3-2.3-2.2-9-3.2-11.7-6.3l-5.8 16.7c0 6.7-2.1 13.3-4.3 19.7-.5 1.4-2.5 7.5-2.8 8-2.6 3.9-7.5-8-7.8-10.2-3.2-17.7 1.7-31.2-8.5-48.5-4.9-8.3-10.6-1.3-14.2-1.7-.3 0-.9-4-2.5-2.1-.4.4.7 2.7-.5 3.1-1.7.5-9.5-.8-11.7-1.4-8.5-2.3-18.8-9.8-25.4-15.1-1.9-1.5-5-5.6-7.3-6.2-3.2-.9-14.7 1.3-20.3.3-12-2-18.8-15.8-25.8-24.2-4.8-5.8-16.8-16.9-17.9-24.1-1.8-11.3 1.5-24.8-1.2-36.8-1.6-7.2-6.3-12.9-6.9-21.1-2-24.2 15.2-39.5 1.2-64.2-4.7-8.2-13.3-14.8-14.2-24.8-1.5-16.8 9.6-33.2 15-48.5-1-1-22.6 11.2-24.4 14.1-6.3 9.6-7.2 29.8-8.6 41.4-.2 2-1.7 3.5-2 6-2.7 25.3 20.5 50.3 14.9 73.9-2.8 11.8-8.8 24.1-10.7 35.3-1 5.9-1.4 10.7 0 16.5.8 3.3 9.8 19.1 12 21.5 3.8 4.1 16.3 7.6 21.7 12.8 9.7 9.2 13.5 24.3 14.8 37.2.3 3.2 1.5 19.9 0 21.4-.5.5-4.5-.6-5.8.2-2.3 1.4-2.8 14.5-2.1 17.1.2.7 1.7.6 1.9 1.4.3 1.4-.2 3.2.3 4.6 4.4 11.8 19.7 15.3 22.3 26.7 2.3 10.3-1.5 23.6 1.5 34l7-15.5c4.6-5.1 19.4-25.6 27-22 .4.2 1.9 1.7 2 2h-.4Zm495.6-292.1c-5.6-3.3-15.3-3.6-20.9-.3-.9.5-8.9 11.1-9.2 12-1.8 4.4-5.2 21.3-5.6 26.4-.9 11.3 2.9 22.3 1.9 32.9-1.3 13.1-11.6 26-12.9 39.1-1.6 16.7 3.1 30.8 10.6 45.4 2.1 4 3.3 6.2 7.8 3.9 7.2-3.7 15-14.2 18.5-21.5 1.1-2.2 3.9-8.9 4-11.1s0-4-.8-6c-5-13.4-13.2-26.3-11.1-41.8.6-4.1 3.1-7.8 3-13.1 0-12-4.5-26.5-3.1-38 .9-7.7 9.7-8.4 14.7-11.9 4.5-3.2 9.5-12.3 3-16.2v.2Zm-310.1 166.1c2.7 3 8.5 5.8 12.4 7.1 1 .3 9 2.3 9.5 2.3 11.4.4 8.8-25.9 1.6-28.4-2.9-1-10.2-1.8-13.1-1-6.2 1.8-15.4 14.3-10.4 20m56.1.1c2.7-4.1 3.4-6.2 1.1-10.8-3.4-6.8-13.6-14.1-19.1-5.8-2.3 3.4-1.7 16.4 0 20 3.1 6.8 14.8 1.6 18.1-3.4Z" class="outline" data-original-prefix="shading" opacity=".2"/></g><g class="trait-group" data-category="mouthpiece"><path id="outline-head1" fill="#000" d="M947.6 1927.8c-9.8-7.3-7.2-17.6-11.5-27.5-5.1-12-22.7-18-24.1-29.9-.5-4.2 2-16.4-5.1-11-.6.5-6.4 7.5-6.9 8.3-5.7 9.8-8.1 26.4-9 37.8-.2 3.1.6 15.2-.2 16.3-.3.5-3.4 1.2-4.3 1.2-4.3 0-15.6-7.2-19.2-10.4-9.4-8.4-20.4-31.7-24.8-43.8-1-2.6-2.3-15.3-5.3-9.1-1.6 3.2-3.2 10.3-4 14-.9 4 .4 16.4-7.5 10.2-10.1-7.9-22.7-32.8-23.8-45.5-.8-8.8.9-20.4-1.3-28.7-1.1-4.3-10.8-22-10.8-23.3v-16.5c-1.8-.4-2 .5-2.8 1.7-5.3 8.4-8.9 21.7-14 30.9-1.3 2.4-2.7 5.9-5.8 6.3-5 .7-5.1-3.6-7.5-6.2-14-15.6-16-33.4-14.9-54.3.2-3.7 2.2-8.4 2-12 0-.8-2-11.2-2.2-11.9-1.3-3.9-18.1-14-20.5-20.4-2.1-5.6-.7-9.3-1.3-14.7-1.1-9.7-2.8-19.4-3.8-29.1-5.5-6.4-23.8-14.7-25.1-24-1-7.2.2-15.8-1.5-23.4-3-13.3-13.9-25.8-20.6-37.4-.8-6.7 6.5-20.5 8.6-27.5 7.7-25.7 10.1-42.4-.3-67.7-1.6-3.8-5.8-8.6-6.3-12.8s1.7-8.8 2-13c2.1-25.8 1-38.6 11.7-63.3 7.7-17.8 13-17.6 30.1-23.9 1.9-.7 4.5-1.7 6-2.2 8.1-2.7 15.8-6.5 24.7-5 5 .8 6.5 6.5 14.4 5.3 10-1.5 25.5-11.3 36-15.1 15.6-5.7 28.8-7 44.3-10.7 19.5-4.7 33.3-13.3 55.4-14.6 5.6-.3 12.8 1.3 17.6.7 9.7-1.3 35.3-14.4 46.7-18.4 5.2-1.8 16.9-6.2 21.8-6.3 9.6-.3 24.7 11.1 34 14 8-3.1 16.4-7.8 24.5-10.3 2.3-.7 12.8-3.6 14.4-3.5 4.6.3 20.4 6.4 25.6 8.5 7.6 3 26.3 14.3 31.8 15.2 12.6 2.2 31.7 0 45.6 1.4 9.4.9 23.1 11 31.3 11.6 3.1.2 10.8-2.4 14.9-2.7 34.8-2.6 74.1 8.7 101.7 30 2.9 2.2 6.4 8.6 6.9 8.9 1.3.9 4.6-2.9 7.3-2.9s20.1 5.4 21.3 8.6c2 5.3.9 1.9 4.8 5.4 5.4 4.8 13.6 14.7 15.2 21.8 3.2 13.4 0 28.5 2.5 41.5 1.3 6.9 8.2 11.9 9.8 18.2-2.1 8.9-6.2 17.2-7.8 26.2-4.6 26.6 4.1 54.9 12.9 79.7 0 4-5.2 11.5-7.6 14.6-1.3 4.5-4.7 8.4-6.4 12.6-4.1 10.5-1.5 21.4-6.6 31.4-2.2 4.3-21.7 13.4-27.2 15.8-3 1.3-8 4-11 4.1-5.7.2-3.9-8.9-5.4-9.9-.4-.3-6.6.9-7.1 1.6-1.5 2.1-.6 7.1-1 9.8-1.5 9-3.8 18.3-4.8 27.2-.9 7.3.4 18.7-2.2 25.6-1.7 4.6-5.9 7.7-8.9 11.2-1.5 1.8-10.3 11.7-10.5 12.5-1.1 4 .9 16 .6 21.6-.8 15.4-6.3 30-13.7 43.3-7.1 12.9-8.5 4.6-17.2-.6-3.2-2.9-4.5-4.9-4.2-9.7 0-1-2.1-.8-2.5-.6-1.7.7-4.5 20-6.8 24.2-3.2 6.1-16.2 15.8-22.3 19.7-1.7 1.1-13.2 8-14 8-2.6 0-3.2-3.4-3.5-5.5-.6-4.9 2.2-32.4 1-33.5h-3c1 8.8-6.2 15.7-9.8 22.7-7.2 14-4.8 29.7-9.9 43.1-1.8 4.7-4.6 6.5-8.6 9.4-12.1 8.9-27.6 14.8-42.7 14.8.6-10.2 6.2-19 7-29.5.8-10.3 1-26.6-6-34.5-1.7 3.8-.5 7.7-1.1 11.4-.7 4.5-1.3 9.3-2.1 13.9-2.3 14.3-3.9 12.8-13.6 21.6-.6.6-2.2.5-2.9 1.3-12.2 11.6-13.3 24.9-11.3 41.2 1.1 9 9.1 15.4-7.4 13.4-20.4-2.5-34.3-22.2-37.7-41.4-.2-1.3-.4-3.3-1.9-1.5l-5.9 12.8c-3.3 8.9-2.5 24.4 0 33.5l6 20.2c-32 1.4-45.4-22.8-54.3-46.7-.4-1-.5-3.6-2.2-2.7-1.8 1.2-1.4 2.7-1.6 4.4l2.8 47.9-46.1-23.6zm95.2-482.6c-2.3 1.6-11.3 2.7-14.5 6.1-1.4 1.5-6.1 11-6.3 13.2-1.3 9.9-.7 39 1.5 48.6 1 4.3 7.4 19.6 12 20 3.8.3 6.7-3.1 11.2 2.3 5.5 6.8 12.7 24.8 17.9 33.6 1.8 3.1 6.7 8.4 8.7 12.3 3.7 7.3 2.7 14.9 3.9 22 1 5.7 6.6 12.8 8.3 19.7 2.1 8.6 2.3 18.8 7.1 26.9 1.2 2.1 11.8 15.5 14.4 13.1-.8-5.3-7.9-13.3-7.9-18.3 0-11.4 5-26.6 5.9-38.2.6-7.9-1-17.3 0-24.9.7-5.4 5.1-13.2 5.9-18.1 2.5-16.1-1.7-35-6.5-50.4-3.5-11.2-12.7-28.3-14.4-38.6-.4-2.4 0-5 0-7.4l1.5 1c4.4 12.4 12.3 23.3 17.6 35.2s14.1 45.7 13.9 59.3c-.2 10.8-5.5 19.4-6.8 29.3-1.2 9.5-3.9 23.9-4.3 32.8-.7 15.4 9.4 41.1 21.5 50.5 1.9 1.5 5.5 2.9 7.5 4.4 2.3 1.7 4.7 5 7 6.9.6.5 1.4 1.1 2 .6 1.7-1.6 6.8-19.2 9.1-23.2 3.7-6.4 6.1-5.9 7.8-15.4 3-17 5.8-23.6 14.3-38.7 2.2-3.9 11.5-16.3 11.9-19.1.3-2.3.2-6.7 0-9-.9-7-6.4-17.9-6.6-24.2 0-4.9 2.3-11.5 2.7-16.8 1.1-15.8-2.5-33.9-9.1-47.7-4.4-9.1-5.4-9.9-5.9-21.3 0-1.6-.4-14.5 2.9-8.9 1.9 3.2 2.7 7.5 4.2 10.8 6.3 13.6 15.4 26 17.8 41.2 2.3 13.8-.4 28.1 1.2 41.8.9 8.1 5.5 15.5 5.9 24.1.6 11.8-6.6 29.2-3.8 38.8 1.1 3.7 10 11.1 13.8 9.3 1.9-1 3.3-9.6 4.5-12.6 7.8-18.8 19.4-32.8 15.4-55.4-1-6-5.8-13.3-6.7-20.3-3.1-24.6 15.5-34.3 15.7-52.8 0-11.7-3.1-22.5-.9-34.9 1.2-6.5 10-16.7 10.8-23.2 1.4-11.2-3.3-23.5-3.9-34.4 6.4.2 12.8-.4 19.2.3 13.3 1.4 30.8 7.1 43 11 1.6.5 4.6 4.2 3.7-.7-1.2-6.7-5.2-10.2-7.8-15.4-2.3-4.6-6.9-16.9-10.6-19.2-2-1.2-6.5-2.4-9.3-3.7-19.5-8.7-39.5-17.8-61.7-19.3-6.8-.4-13.7.3-20.5 0-.5 4.7 4.3 6.8 7 9.7 1.7 1.9 2.6 2.5 3.6 3.6 1.6 1.6 10.1 10.5 10.3 11.2.4 1.5 0 1.6-1.5 1.5-1.1 0-16.6-6.5-18.2-7.3-3.1-1.7-8.8-7.6-12.2-9.5-6.1-3.6-15.8-6.9-22.3-9.4-11.2-4.2-20.7-7.2-32.8-7.7-2.3 2.1 15.4 14.8 17.6 17.4 2.1 2.4 6 7.6 6.7 10.8.2 1 1.7 2.4-.8 1.8-3.8-.9-5.8-5.5-8.3-6.9-8.6-4.9-22.1-7.9-31.5-12.2-14.8-6.7-27.8-16.7-43.4-23.6-8.1-3.6-19.8-10.7-28.5-9s-23.5 10.4-28.8 17.2c-.9 1.2-2.7 6.5-3.6 6.6-3.3.3-3.1-2.9-4.4-4.5-3.4-4.2-7.9-7.5-12.4-10.1-6.7-4-19.3-10.5-26.9-9.2-14.8 2.7-50.3 22.3-63.5 31.4-11.1 7.6-19.2 17.1-28.3 26.8-.2.3-2.6 5.4-3 2-.3-2.2 1.7-6 2.8-8.2 3.4-6.7 10.2-16.1 14.7-22.3 1.4-2 6.1-2.9 4-7-6.2 1.8-12.8.3-18.8 1.2-24.2 4-54.8 20.1-67 41-.9 1.5-5.7 10.7-6 11.9-3.5 15.3 5.1 20.7 5.4 33.3 0 6.6-4.2 14.6-5 21.1-1.8 15.7 4 27.1 11.5 39.8.7 1.2 6.6 13.4 9.4 10.6 0-2.4-.2-4.8.2-7.3 3.4-17.1 10.8-31 20.5-44.5 1.8-2.4 3.8-5.6 6.2-7.2 0 1.8.2 3.6-.2 5.3-2.4 10.2-8.9 22.7-11.5 33.5-6.7 27.8-3.2 71.7 4 99.5 4.4 17.3 6.8 19.5 19.5 30.7 9.5 8.4 23.5 16.4 30.9 26.4 2.3 3.1 1.4 11.5 5.1 16.5 5.6-14.3 15.2-30.7 11.1-52.2-2.2-11.4-7-22.3-7.9-35.1-2.5-36.6 11-50.6 25.5-80.5 2.4-5 4-11.3 6.3-15.7.5-1 2.2-3.4 3.2-2.3.8.9-3.2 10.6-3.8 12.7-6.8 27.6-23.5 68.1-16.9 95.5 1.2 5.1 4.6 11.2 5.7 16.3 3.1 14.7 7.4 39.2 9 54.1.8 7.9 0 11.8 1.9 20.1.5 1.9 0 5.6 1.8 9.1.3.6 8.8-10.3 10-11.8 3.6-4.4 8.8-12.3 10.2-17.8 4-15.8 3-34.4 6.3-49.7 1.8-8.5 6.2-22.6 9-31.1 2.1-6.3 13.1-31.6 19.5-32.3 2.5-.3 10.1 2.7 11.2-.9.7-2.2 1.9-11.9 2.1-14.9 1.7-18.7 3.3-46.7-7.3-62.6-3.8-5.7-9.8-5.2-14.9-7.9s-9.1-6.8-12.6-8.6c-2-1-6-2.9-8-3.2-5-.5-15 7.3-17.1 5.7-.4-.3-.4-2.4-1.1-3.2-5.4-6.4-8.4-12.4-17-15.2-2.9-.9-13.1-1.9-14.8-3.8-.5-.5-.5-2.2-1.3-3.2-4.2-5.4-10.4-10.9-5-18.1 6.5-8.7 25.5-21.6 35.3-26.6 5.9-3 23.8-11.3 29.5-12.6 13.9-3.2 27.1 9.7 35.2 19.5 2.1 2.5 4.4 8.8 7.5 8.2 4.8-6.9 11.5-16.8 18.6-21.5 4.4-2.8 13.1-7.5 18.1-6.3s22.6 9.9 28.1 12.9c7.3 3.9 19.6 11.5 25.3 17.2.9.9 8.5 10 8.8 10.7 3.3 7.2-5.2 20.6-12.4 22.5-6.1 1.6-9.2.4-15.8 4.1-2.2 1.3-4.7 5.1-5.6 5.9-1.5 1.4-8.8 9-9.5 9.3-6.9 2.8-7.5-2.7-13.4-4.2-8.8-2.3-11.3 1.4-16.6 6.3l-3.5 3.2h.6ZM798 1723v27.5c0 2.6 5.5 9.7 6.7 13.3 2.7 7.8 2.2 17.4 4.6 25.4 4.8 16 8.5 14.7 8.7 34.2 0 10.5-1.9 22.8 4.6 31.5l7.4-14.6c5.7-13.1 13.2-35.8 12.1-49.9-.4-5.4-3.5-14.7-2.8-19.8.2-1.8 8.4-15.5 9.8-16.2.8-.4 2.6-.8 3-.5.3.2 1.8 5.8 2 6.6 1.3 8.6 4.5 23.9 4.1 32-.6 11.4-6.5 24.6-7.8 36.2s8.5 41.7 13.4 53.1c2.7 6.3 4.9 8.5 9 13.5 1 1.3.4 3.5 3.3 4.2 1.1.2 2-.6 2-1v-19c0-2 6.7-17 8.2-19.8 5-9 14.9-16.9 19-25s4-18.5 7.6-26.4c.6-1.3 8.6-14.1 10.2-12.3 1 18.1-2.7 37.6-1 55.5.2 2.6 2.2 10.5 3.1 12.7 2.7 6 18.6 16 21.6 21.6 4.2 7.7 4 16.7 6.4 24.6 2.1 7.1 1.6 7.5 7.3 10.7.9.5 5 3 5.8 3.4 3.2 1.7 8 5.2 12 7.8l-2.2-24.9c0-10.8 9-24.9 10-37 .7-9.1-1.6-18-2-26.9-.7-16.7.8-33.5 5-49.6 3.2-.7 1.5 2.1 2.5 3.9 7.8 13.5 4.4 16.2 5.4 30.6.7 10 4.8 16.3 7 25.1 5.2 21.4.9 47.1 15.1 65.2 1 1.2 6 9.6 7.9 3.6 1.5-4.7 0-17.9 1.4-24.6 1.1-5 5.4-14.1 7.5-19.5 2.7-6.9 7.9-16.6 10.5-23.5 4.4-11.8 7.5-21.4 6.8-34.2 0-2.5-3.1-12.1-.9-13.5.6-.4 2.3-.3 3 .6 2.3 2.9 5.5 11.4 7.6 15.2 1.4 2.6 5.8 7.9 6.2 9.9 1 5.1-4.2 17.4-4.8 23.8-1 11.7-.6 28.2 5.5 38.4 1.7 2.8 7 9.3 10.4 9.1v-14.5c0-15.9 13.2-25.1 23-34.1 10.6-9.8 6.7-13.5 8.1-25.8 1.4-12.5 6.4-19.1 4.8-34-.5-4.8-3.7-11.7-3.8-16.2 0-2.8 1.5-14.7 5.8-12.3 1 .6 4.1 11.8 5.2 14.2 8 16.9 23.9 40 24 59.1 0 8.9-3.5 18.4-4.1 27 0 1.6-.2 1.7 1.5 1.5 4.3-4 18.8-11.5 20-16.9 1-4.3.8-9.5 1.8-14.2 4.3-20.1 14.9-33.2 19.4-52.6 3-13.1 2.2-22.1.3-35.2 5.1 0 6.4 4.4 10 7.5 4.3 3.8 13.7 10.1 15.5 15.5 1.6 4.6 2.2 20.6 2.5 26.5.3 4.5-.2 9 0 13.5l6.4-6.1c8-11.3 6.4-16.7 8.9-29.1 3.2-15.9 6.8-22 2.6-39.2-.7-2.9-6.9-14 3.3-8.6 8.9 4.8 11.6 25.3 15.3 33.9 2.2 5.2 6.8 9.8 9 15 4.4-2.9 3.3-8.4 4.6-12.2.3-.8 1.7-.6 1.9-1.5 4.4-15.4 1.8-16.8 0-30.8-.5-4.1.2-8.6 0-12.7 2.9-2 4-5.3 6.4-7.8 3-3 13.4-9.8 14.7-13.3 4.4-12.3 2.3-30.3 5.7-43.2-4.1-.9.4-11 1.8-14.2.6-1.3 2.1-1.2 2.6-2.5.6-1.4.3-3.7.9-4.6.2-.3 5.2-2.7 6.7-3.8 3.3-2.6 17.1-16.8 21.2-10.7 2.1 3.2-2.8 11 2.4 11.4 3.9.3 16.3-9.3 20.3-11.3 1.4-12.7 3.2-23 9-34.5 4.4-8.6 9.5-9.4 6.1-20.8-4.4-14.7-10.7-37.7-11-53.1-.2-13.2 7.4-32.8 6.9-44-.3-7.4-8.7-19.1-9.8-28.1-1.3-11.6 3.1-25.2-1-36-3.9-10.1-11.3-13.7-20.3-18.5-.5-.3-.7-1.4-1.1-1.6-1.4-.7-5.2-1.7-6.7-.8 9.8 14.4 15 39.4 4.4 54.4-3.3 4.6-18.6 17.7-19.4 21.6-.6 3-.3 11.6 0 14.9s2.6 7.3 2.7 10.1c.3 8.4-4.4 17.3-2.8 28 1.4 9.3 12.8 24.4 13 33.1 0 3.7-3.1 15.7-4.4 19.7-.9 2.9-4.2 12.2-5.8 14.2-3.3 4.1-8.2 1.7-10.6 3.9-1.3 1.2-4 9.7-6 12.5-4.7 6.8-11.1 7.9-17.6 11.3-9.7 5-25.5 15-35.3 17.7-1.9.5-3.3 1-3.3-1.3 0-4.3 3.4-6.1 4-10 .7-4.3.6-11.6-1.4-15.4-5.3 6.9-17.9 39.7-25.2 41.8-5.6 1.7-7.8-3.1-12.4-5.2-12.6-5.7-13.8-1.1-9.9-19.1l-2-.5c-2.7 7.9-8.7 15.3-11.3 23.2-2.5 7.6-.8 13.9-3.8 21.2-1.7 4.1-6.5 8-8.3 11.7-4.4 8.9-6.4 17.4-13.6 25.4-3.2 3.6-3.1-.5-6.1-2.9-9-7.2-18.7-9.5-26.9-19.1-1.9-2.2-1.8-6.7-6.4-6.5-3.3.2-4.9 2.5-9.8 1.8-25.4-3.6-23.7-38.2-34.9-54.1-8.5-12.1-21.4-3.6-32.3-3.6s-16.2.4-26 1c-8 .5-14.3-2.5-21.9 2.1-5.5 3.3-10.1 13.7-11.2 19.8-2.5 14.3-1.5 16-11 29.9-1.7 2.4-4.1 4.6-6.1 6.5-6.4 6-17.8 17.6-19.8 17.8s-4.8-4.2-7.7-13.2c-4-12.5-2.2-19.7-5-31.4-3.1-13.1-4.8-1.2-6.7 3.1-.9 2-3.1 6.6-4.5 8-1.2 1.1-5.3 5.2-7.9 10-1-.2-9.2-10.2-9.8-11.1-1.5-2.1-3.1-7.9-5-10.8-4.2-6.6-13.1-10.7-19.2-15.8-9-7.6-27.9-23.6-31.8-34.5-6.9-19.3-6.7-46.5-12.5-66.4-3.1-10.4-9.6-10.4-12.9-17.1-4.3-8.9-16.4-35.3-16.5-43.6-.3-13.6 3.6-30.5 2-43.9-1-8.2-8.4-13.7-5.8-24.8 1.3-5.8 12.7-22.8 16.8-27.9 4.5-5.6 11.7-9.8 16-15.8l-31.6 9.8c-8.5 3.9-19.4 6-28 11.6-4 2.6-18.3 18.3-19.9 22.7-.8 2.3.7 3.9.4 6.2-.4 2.5-3.9 7.7-4.7 11.4-3.5 14.3 1.9 14 7.8 24.2 1.8 3.1 8.6 15.2 9 17.7 2.6 16.5-5.2 36-4 53 .7 9.4 6.9 20.5 7.1 28 .3 14.7-5.7 25.4-.7 41.6 2.9 9.3 13.8 19.8 14.7 28.3.7 6.7-6-2.7-7.4-4.1-4.8-4.6-11.3-10.7-15.6-16.1-13.2-16.7-3.6-26-6.1-43.6-1.3-9.1-7.1-18.9-7-29.1 0-7.1 3.1-16.3 4-23 1.7-12.6 4.9-25.7-.5-37.3-3.6-7.7-13.9-19.2-16.6-26.4-3.1-8.2 2.4-16.8 2.5-25l13.3-26.8-.6-4c-6.2 1.8-12.7 2.8-18.8 4.7-6.2 1.9-14.1 4.8-19 8.3-.9.6-2.2.5-3 1.3-.4.4-5.8 9.8-6 10.4-4.2 11.3-4 27.7-5.3 39.7-.5 4.2-2.6 9.3-2.9 14.1-.8 13.6 3.8 19.4 7.7 31.3.8 2.3 2 5.3 2.4 6.6 6.3 21.2-1.2 47.1-7.5 67.8-.8 2.5-2.9 4.7-3.6 7.5-3 11 10.9 24.6 14.6 35.2 3.2 9 2.7 28.5 7.7 33.8 1.3 1.4 7.9 6.6 9.6 5.3 1.9-1.5 2.6-19.9 3.1-23.4.5-3.3 5.8-.9 7.3.5 2.6 2.3 7.6 11.1 9.9 14.4.8 1.2 2.7 1.6 3.2 2.8l4.7 18.8c-1.2 1.2-7.5-3.7-9.2-4.3l-7.8-6.7c-.4 8.5 3.3 17.1 4 25.5.8 9.5-1.9 20.8 2.6 29.4 2.5 4.8 11.2 9.6 15.4 13.6 5.2 4.8 5.8 7.7 6 15 .2 4.8-1.1 8.7-1.1 13 0 6.1 1.5 46.9 4.1 48.5 3.4 2.1 5-6.6 6.2-9.2 1.5-3.1 3.5-5.9 4.9-9.1 5.7-13.1 8.1-29.1 16.5-39.6 1.6-2 5-4.7 7.3-6.1zm505.4-279.6c11.8-10.6 12.9-24.8-4.2-30.1-7.1-2.2-23.7-5.1-30.5-3.1-7 2-3.6 12.8-3.6 17.3 0 12.2-8.8 24.3-10.1 36-.8 7.6 1.4 11.7 2 18 1.6 15.7-7.3 25.4-11.5 39.5-5.7 19.2 2.3 32.9 5.4 51.6.4 2.3-.2 4.7 0 6.9 1.3 9.2 3.9 18.1 3 27.5l23.5-12c11-12.8 23.7-22.5 25.4-40.6 1.8-19.6-12.4-33.7-10.8-51.8.5-5.3 3.9-14.7 3.9-19.1s-1.8-13.9-2.3-16.8c-.6-3.5-5-10-4.8-12.2.3-3.6 9.5-6.6 12.4-8.7 1-.7 1.3-1.8 2-2.4Zm-286.7 119c-6.6-7.1-18.2-5.6-24.7 1.1-4.4 4.6-8.1 16-9 22.1-.5 3.7.7 6.9 3.5 9.4 5 4.6 27.6 10.9 33 6 2.8-2.6 3.5-16.8 2.9-20.8-.3-1.9-4.6-16.6-5.8-17.8Zm29.9-2c-7.5-4.7-18.3-2.9-20.4 6.3-1.8 7.8-2 33.3 8.5 35.1 1.4.2 6-.5 7.5-.9.3 0 5.1-1.8 6-2.2 6.9-2.7 11.2-5.1 9.7-13.2-.2-1.3-.6-3.2-.8-4.2-1.4-5.8-5.2-17.5-10.5-20.9m-130.9 96.3c-1.2 1.1-6.2 10-8.8 14.8-3.3-4.4-8.3-15.1-8.9-16" class="outline" data-original-prefix="outline"/></g><g class="trait-group" data-category="mouthpiece"><path id="outline-head2" fill="#000" d="M794.8 1553.3c2.1 1.6 3.2 8.4 4.3 10.7 3.2 7.3 5.9 13.1 10.9 18.2 12.8 13.4 13.8 15 18.3 33 1.5 4.1 2.7 9.5 6.6 12 2.8 1.2 4.6 3.3 6.8 5.5 2.1 1.8 4.8 2.9 6.7 4.8 1.8 1.5 5.1 26.1 4.3 23.7-3.1-9.2-8.8-16.9-10.7-17.3-3.4-.9-5.9-2.4-9.4-4-3.5-1.8-6.8-3.3-9.6-5.6-9.5-8.6-6.3-21.4-18.7-29.4-2.5-1.7-5.3-2.2-6 1.3-1.1 4.9.7 9.3 2.5 13.9 1.2 3.1 10 21 7.7 19.2-9.2-7-24.2-30-22.1-39.1.8-3.4 2.6-6.4 3.9-9.6.5-1.1.9-2.2 1.1-3.3 2.5-8.8 4.4-19.7-.5-28.1-2.2-3.8 1.4-24.1 3.1-23.5l.9 17.6Z" class="outline" data-original-prefix="outline"/></g><g class="trait-group" data-category="mouthpiece"><path id="outline-head3" fill="#000" d="M1032 1652c.4.5 2.7 11.2 2.9 12.6 2.2 21.7-12.5 32.1-21.3 49.5-1.2 2.4-4.2 12.4-4.7 12.8-.4.3-2.5 0-3.2 0-2.2-.8-13.7-12.6-15.2-14.8-5.1-7.6-13.2-32.6-14.3-41.7-.3-2.4-1-7.2 3.1-6.1 2.9.8 6.5 10.1 7.8 13 4.3 9.6 5.7 18.3 12.2 29 10.2 16.6 6.9 6.1 11.2-4 3.9-9.2 15.9-18.3 17.3-27.7 1.1-7.1-1.4-13.8 2-21 .4-.8.6-3.3 2.1-1.4Z" class="outline" data-original-prefix="outline"/></g></svg>