<?xml version="1.0" encoding="UTF-8"?>
<?xml-stylesheet type="text/css" href="../styles/semantic.css" ?>
<svg xmlns="http://www.w3.org/2000/svg" viewBox="0 0 2048 2048">
  <g class="trait-group" data-category="background" id="background-forest-mist">
      <defs>
    <radialGradient id="forest-mist-gradient" cx="50%" cy="50%" r="70%" fx="50%" fy="50%">
      <stop offset="0%" style="stop-color:#F0FFF0"/>
      <stop offset="100%" style="stop-color:#004B00"/>
    </radialGradient>
  </defs>
  <path id="color-forest-mist" class="color" d="M2048,0v2048H0V0h2048Z" fill="url(#forest-mist-gradient)" style="fill: url(#forest-mist-gradient)"/>
    </g><g class="trait-group" data-category="jaw" id="jaw-robo">
      <path id="fill-jaw-robo1" fill="#ffffff" d="M1369.9 1062.1c.4.5 1 11.1 1.4 13.1 11.6 61.7 25.9 123 37.2 184.8 16.2 20.3 35.3 38.1 51.5 58.4l-70.1 149.9-2.3 1.6-31.6-1.9-7.8 59.7-101.2 128.8c-1.6 1.1-2.6-.6-3.6-1.6-11.2-11.1-20.8-28.6-32-40-1.3-1.3-2.6-3.5-4.8-2.9-3.4.9-32.4 51.8-38.3 57.8-25.8 9.8-49.6 24-74.7 35.3-8.9 4-63.2 23-65.1 25.9-.6 1-.4 2.8-.6 2.9-.2.2-3.1-.9-4.4-.9s-3.2 1.3-3.6.9c-.3-.3.7-2.4-2.3-4.2-13.4-8.1-38.6-14-54.4-20.6-28.2-11.8-54.4-28.3-83.3-38.7-6.3-5.8-35.3-57.4-38.7-58.4-2.2-.7-4.5 2.4-5.9 3.9-11.6 12.1-21.3 28.8-33.1 41l-1.9-.9-100.9-128.1c-3.2-19.9-5.4-39.9-7.5-60l-31.6 1.9-2.5-1.4-69.8-149.3c-.3-1.9 4.6-7.3 6.3-9.3 14.5-16.8 30.7-32.1 44.6-49.4 10.6-62 27.2-123.3 37.7-185.3.5-3.2-.7-11.9 2-13.3 104.8-21.7 209.7-42.7 314.5-64.3 7.3-1.5 24.9-7.3 30.5-7.5 4.2 0 24.8 6.2 31.1 7.5 105 21.6 210.1 42.9 315.1 64.4v.2z" class="fill" data-original-prefix="fill"/><path id="shading-jaw-main" fill="#aaaaaa" d="m1369.9 1062.1 28.1 145.4c-4.8-.6-19.2-17.4-22.3-16.4-3.4 1-21.1 37.8-20.7 42.4 12.3 15.8 24.8 31.6 35.4 48.6 3.7 5.9 15.5 24.5 15.6 30.5 0 4.7-10.7 25-13.5 30.5-4.5 8.7-9.8 16.9-14.5 25.5 17.3-8 33.9-18.4 49.3-29.7 4.1-3 10.3-7 13.7-10.3 2.3-2.2 12.4-16.5 13.5-16.5l5.5 6.4-65.1 139.9-6.5 11.5-32.3-1.9-7.8 59.7-101.2 128.8c-1.6 1.1-2.6-.6-3.6-1.6-11.1-11.1-20.8-29.2-31.9-40-.8-.8-1.6-2.1-2.9-1.9-7.3 1.3-32.3 48.3-39.7 55.4-30.9 14.9-60.7 32.4-91.6 47.4-12.8 6.2-33.2 17.2-46.8 18.2-23.7 1.7-37.4-7.3-57.9-17.2-31.4-15.1-61.6-32.8-93-48-8.2-6.6-32.8-54.4-40.3-55.8-2.8-.5-31.3 38.2-35.8 43-1 1.2-2 1.2-3.1 0l-100.9-128.1-7.5-60-31.6 1.9-2.5-1.4-69.8-149.3c-.3-3.1 3.7-7.8 6.8-5.8 1.9 1.2 8.8 11.9 11.5 14.6 2.9 2.9 7.8 6.2 11.2 8.8 4.5 3.4 49.2 33.3 51.3 31.2-7.3-15.4-17.3-29.8-23.8-45.6-1.2-2.9-3.2-6.7-3.2-9.9 0-5.3 10.4-22 13.7-27.4 11-18.2 24.3-34.9 37.4-51.6-4.2-15.2-12-29-20.1-42.3-.9-.5-2 0-2.9.4-6.3 3.4-12.9 13.3-20 16.5l28.1-145.9 45.8-9.7c48.2-55 116.4-93.5 184.8-118.2 72.2-26 130.6-31.5 205-8.5 77.7 24 155.9 65.5 210.3 126.7zM854 1330c-21-6.7-43.3-4.3-64.4-11.1-14-4.5-30.8-14.7-42.9-23.1-18.1-12.6-35.7-28.4-49.2-45.8-10.7 14.6-22.1 30.4-30.7 46.3-4.3 8-11.3 21.1-7.7 30.1l27.1 48.4c6.1 1.6 17.5-4.7 22.8-2.3 1.5.7 2.4 3.5 4.5 3.5s4.4-5.1 7-5.1 3.4 4.4 7 4.1 5.2-6.6 7.2-7c.5 0 8.2 2.7 8.6 2.9 4.7 2.4.3 18-3.2 21.4.3 1.5 14.2 9.3 16.4 9.6 2.9.5.2-2.4 1-4.9s6.5-6.3 8.8-5.9c5.4.9 6.3 10.2 14.7.3 1.9-2.2 0-4.1 4.5-4.6 8.5-1 5 8.4 7 14.1 12.4-17.2 20.2-37.4 32.1-54.9l29.4-16.1Zm507.8 44.8c8.8-17.7 20.1-34.4 28.2-52.3-.4-8.9-2.9-14.5-6.9-22.2-8.9-17.4-21.4-34.4-32.7-50.3-21.1 25.5-52 52.2-82.8 65.2-24.8 10.4-48.4 7.8-73.7 14.8l29.7 16.3c11.6 17.6 19.4 37.7 31.8 54.7.9-1.8 1-13.5 1.5-14s7.3-.2 7.8.2c1 .6 1.6 7.8 6.9 8.7 6.3 1.1 7.7-7.8 15.4-2.8 2.7 1.8 3.1 6 2.8 8.9 1.2 1.4 17.7-8.3 18-9.6.2-1-3.9-5.8-4.6-8.4-2.2-9.5-1.5-13.7 8.4-14.8 5.3-.6 2.8 2.2 5.5 4.5 4.6 4 7.8-2.7 10-2.6 2.7.2 5 4.9 7.2 4.9s3-2.8 4.5-3.5c5.2-2.4 16.6 3.8 22.8 2.3zM1078 1327c-5.5-11.1-10.5-24.8-17.6-34.9-4.2-6.1-10.2-10.5-14.9-16.1-3.4-4-15.2-20.5-18.4-21.6-1.9-.6-4.4-.8-6.3-.2-2.4.7-15.7 18.7-18.7 22.3s-7.4 6.8-10.5 10.5c-9.4 11.2-15.1 26.9-21.5 40h108Zm-353.8 172.8c24.8 5.4 50.2 7.7 75 13.6 17.3 4.1 20.3 3.6 29.6 19.4 5.3 8.9 9.2 18.7 14.2 27.8l17 14-29.2-80.8c-2.4-5.8-8-8-13.1-10.9-22.2-12.9-51.7-27.2-75.7-36.3-2.6-1-8.1-3.8-10.4-3.5-1 0-15.6 9.5-16.3 10.3-6.3 7.6 6.8 37.2 8.9 46.5Zm599.6 0c2.5-10.6 8.2-22.1 9.8-32.7.8-5.7 1.7-10.9-3-15.1-1.1-1-13.2-8.9-14-9-2.5-.3-19.4 7.2-23.2 8.8-20.7 8.8-45.7 20.5-65 32-5.6 3.4-8.8 4.9-11.8 11.2l-28.5 80 16.4-14.1c7.1-10.9 14.9-35.4 25.9-42.1 6.1-3.8 19.9-5.9 27.5-7.5 21.8-4.6 44.2-6.7 66-11.5zM908.5 1649v1c.7-.3.7-.7 0-1m229.5 1c-31 8.8-60.6 26.8-91 36.5-19.3 6.2-28.3 5.9-47.5-.4-28.3-9.3-56.5-25.5-85-35.1-1.2-.4-3.6-1.8-4.5-.5.8 2.1 2.7 4.2 4 6 4.9 6.3 18 23.3 23.5 27.5 7.2 5.5 27.9 14.6 37.1 18.9 5 2.3 20.9 10.5 24.9 11.1 9 1.4 36.3 1 46 0 7-.6 57.7-24.6 64.4-29.6 5.3-3.9 18.2-20.8 23-27 .8-1 5.8-6.8 5-7.5Z" class="outline shading" data-original-prefix="shading" opacity="0.5" style="opacity: 0.5"/><path id="outline-jaw" fill="#000000" d="M670 1105c2 .2 9.2 3.6 9.8 5.7 1 3.3-1.3 18.1-2 22.7-6 41.8-19.7 84.1-28.6 125.4-12.3 18.3-29.3 33.5-43.8 50.2-1.2 1.3-6.5 7.5-6.5 8.5l56 135.5c1.5.4 1.7-.4 2.5-1 7.1-4.9 23.9-23.3 30.5-30.5 1.5-1.6 9.9-11.2 10-12-17.6-32.9-42.5-63.1-49.8-100.8 17.2-28.9 35.3-57.4 56.9-83.2 6.2-7.4 21.8-27.5 32-26.1 4.7.6 8.6 4.8 6.4 9.5-23 21-44.9 44.7-62.7 70.3-3.2 4.6-15.2 22.2-15.6 26.5-.5 5.1 11.8 29.8 15 35.6 7 12.8 29.4 46.8 40.5 54.5 2.8 1.9 7 3.2 10 5 77.7 46.7 153.2 90.1 243.1 109.9 13.1 2.9 37.4 9.1 49.8 9.2 11.3 0 33.7-5.7 45.6-8.2 92.6-19.7 168.3-62.9 248.1-110.9 3.1-1.8 7.2-3.1 10-5 11.1-7.7 33.4-41.8 40.5-54.5 3.2-5.8 15.5-30.5 15-35.6-.4-3.9-10.7-19.3-13.6-23.5-18.3-27-40.8-51.3-64.7-73.3-2.5-9.2 6.9-10.8 13.8-7.8 10.7 4.6 40.4 44.2 48.5 55.5 11.9 16.7 22.3 34.6 33 52.1-7.3 37.7-32.2 67.9-49.8 100.8 0 .8 8.5 10.4 10 12 6.6 7.2 23.4 25.6 30.5 30.5.8.6 1 1.4 2.5 1l55.8-135.3c-15.4-20.6-35.6-37.7-50.1-58.9-8.6-41-22.6-83.1-28.6-124.4-.7-4.8-3.1-20-1.9-23.7.6-2.1 8-5.5 9.8-5.7 4.6-.4 10.8 5.1 11.9 9.6 8.1 44.1 13.6 92.9 27.6 135.4 9.1 27.6 33.8 39.8 52 60 4.9 5.4 6.6 7.2 4.8 14.8-2.1 8.6-9.2 23.2-12.8 32.2-16.7 41-35.5 81.7-54.5 121.5-2.5 2.1-18.6 9-21.4 8.6-4.6-.7-13.3-13.3-18.5-15-3.1 22.3-7.1 44.7-11.8 66.7-29.2 38.3-55.4 79-82.3 118.7-10.2 4.1-22.2 12.3-32.2 15.8-1.5.5-3 1.3-4.6.7l-24.6-43.9c-1.1.5-16.2 15.9-17.3 17.7-6.5 10.1-3.8 21-14.2 29.8-22.9 19.1-72.2 40.2-100.7 51.3-18.6 7.3-34.3 14.2-54.7 14.3-24 .2-49.5-11.4-71.5-20.6-23.2-9.8-67.3-29.4-85.5-45.5-10.3-9.1-7.3-19.2-13.7-29.3-1.1-1.7-16.2-17.1-17.3-17.7L812 1674c-1.6.6-3.1 0-4.6-.7-10.1-3.5-22-11.7-32.2-15.8-26.9-39.8-53.1-80.4-82.3-118.7-4.7-22-8.6-44.4-11.8-66.7-5.2 1.7-14 14.4-18.5 15-2.8.4-18.9-6.5-21.4-8.6-19-39.8-37.8-80.5-54.5-121.5-3.6-8.9-10.8-23.6-12.8-32.2-1.8-7.6 0-9.4 4.8-14.8 13.4-14.9 37.6-30.5 47.2-47.8 7.3-13.1 12.4-41.8 15.8-57.2 4.5-20.4 8.5-41.2 12.2-61.8 1.5-8.5 1.8-19.4 3.7-27.3 1.2-5 7.2-11.3 12.6-10.9zm664.9 411.9 14.2-77.4c-.2-3.8-5.4-5.5-8.1-8-2.9-2.7-5.4-5.9-8.6-8.3-82.7 31.3-155.3 82.7-242.3 103.3-57 13.5-94.2 11-150.2-4.8-69.9-19.7-131-59.2-197.1-87.9-6-2.6-20.1-9.4-25.7-10.4-2.8-.5-7.7 6-10 8.1-2.1 2-7.6 4.5-8.1 7l14.2 78.3c17.8 1.1 35.6 3.8 53.4 5.1 9.3.7 42.4-.4 47.8 3.9 8.5 20 14.6 41 23.2 61 2.8 6.5 6.2 15.2 9.9 21.1 5.4 8.7 15 14.9 20 23.1 5.6 9.2 8.1 23.6 15.5 31.5 5.1 5.5 21.6 15 28.8 19.2 31 18.4 83.7 44.6 119.8 42.2 30.1-1.9 87.2-31 113.4-47.6 5.2-3.3 16.2-9.8 20.1-13.9 7.2-7.5 10.4-24.2 16.1-32.9 2.7-4.1 8-7.8 11.3-11.7 8.3-9.7 11.9-17.5 16.9-29.1 9-20.6 15.3-42.4 24.2-63 14.6-5 32.2-2.8 47.8-4 17.8-1.3 35.6-4.1 53.4-5.1v.3ZM801 1649c5.8-16.3 16.4-30.6 24.8-45.6-4.3-11.7-7.5-23.9-12-35.6-2.2-5.8-7.4-19.7-10.9-24.1-10.8-13.6-69.6-12.5-86.9-16.6-.5 1.7.7 2 1.5 3 13.4 17.3 27.7 33.6 40.3 51.7 15.2 21.9 28.4 45.1 43.2 67.3Zm531-122c-17.3 4.1-76.1 3-86.9 16.6-3.5 4.4-8.6 18.3-10.9 24.1-4.5 11.7-7.7 23.9-12 35.6 8.4 15.1 18.9 29.3 24.8 45.6 14.7-22.2 27.9-45.4 43.2-67.3 12.6-18.1 26.9-34.3 40.3-51.7.8-1 1.9-1.3 1.5-3Z" class="outline" data-original-prefix="outline"/><path id="outline-jaw1" fill="#000000" d="M785.7 1376.3c8.1 7.2 8.5 18.5 4.1 27.9-5.2 10.9-19.3 10.7-26.7 2.3-15.1-17.3 3.6-47 22.7-30.2Zm-12 4.9c-10.7 1.7-7.7 23.9 4.7 21.8 10.2-1.7 4.4-23.3-4.7-21.8" class="outline" data-name="outline-jaw" data-original-prefix="outline"/><path id="outline-jaw2" fill="#000000" d="M1262.3 1376.3c22.7-20.1 40.5 23.7 16.9 34.4-21.7 9.8-31.5-21.5-16.9-34.4m10.4 4.9c-10.5 1.7-12.6 25.9 1.3 21.4 10.1-3.2 8.1-22.9-1.3-21.4" class="outline" data-name="outline-jaw" data-original-prefix="outline"/><path id="outline-jaw3" fill="#000000" d="M723.7 1356.2c15.6-2.8 28.9 19.5 15.8 29.8-10 7.8-24 0-26.8-11.2-1.8-7.1 3.5-17.2 11-18.6m9.1 22.6c6.5-6.5-8.3-22.1-11.4-7.8-1.5 7.3 7.1 12.1 11.4 7.8" class="outline" data-name="outline-jaw" data-original-prefix="outline"/><path id="outline-jaw4" fill="#000000" d="M1317.7 1356.2c14.2-2.9 23 13.6 14.3 25.3-12 16-34.6 4.8-27.5-13.5 1.7-4.3 8.7-10.8 13.2-11.8m-2.5 22.6c4.3 4.3 12.9-.5 11.4-7.8-3-14.3-17.9 1.3-11.4 7.8" class="outline" data-name="outline-jaw" data-original-prefix="outline"/>
    </g><g class="trait-group" data-category="mouth" id="mouth-OG">
      <path id="fill-muzzle" fill="#ffffff" d="M1125 1622c-3.4-2.3-6.5 6.6-8 8.5-3.7 4.7-17.7 19.6-23.5 19.5-2 0-5.3-4.8-7.8-6.2-7.4-4.3-19.1-5.3-26.8-1.4-4.2 2.2-10.1 9.4-13.4 9.7-7.7.5-10.7-10.3-17-11.2-2.3-.3-9.7-.3-11.5.6-3.2 1.4-8.9 10.8-13.7 11.3-3.1.3-10.3-8.4-13.4-10.2-6.5-3.8-16.5-3-23.5-.6-4.3 1.5-10.5 8-12.8 7.8-5.8-.5-18.9-14.5-22.7-19.3-1.6-2-2.1-4.7-3.5-6.4-5.4-6.8-5.6 3.9-7.6 7.3-9.4 15.7-21-13.3-24.8-18.9-2.4-3.5-7.2-5.7-10-9-9.7-11.6-6.4-27.5-10.3-40.7-1.7-5.8-11.6-19.5-14.9-27.1-10-22.6-12.3-43.5-10.8-68.2-2.4-7.1.4-27.9-4.5-32.5-2.1-2-6.1-2.7-8.5-4.5-5.9-4.5-12.8-32.2-11.9-39.8 1.1-9.4 12.1-25.4 18.4-32.6 12.3-14.3 37.4-24.6 56-26 4.8-.4 28.1 1.1 29.5.5s5.1-5.4 7.1-6.9c8.7-6.5 17-9.5 27.7-11.3 3.7-.6 7.6.4 11-1 3.1-1.3 11.4-13.2 17.3-16.7 10.5-6.1 38.9-5.7 51.5-4.6 5.7.5 13.4 3.6 18 7 3.7 2.8 11.2 13.2 13.8 14.2 3.3 1.4 7.3.4 11 1 8.9 1.5 16.5 3.9 24.1 8.9 2.7 1.8 9.7 8.9 10.7 9.3 1.3.6 23.9-.9 28.5-.6 16.1 1.1 33.8 7.8 46.8 17.2 12.1 8.8 30.2 32.8 28.7 48.3-.4 4.3-7 26.5-9.2 29.8-3.6 5.6-10.6 4.5-13.7 10.3l-3.2 43.8c2 20.7-2.7 38.4-11.1 56.9-3.2 7-11.5 17.9-13.4 23.6-4.4 13-.9 27.8-9.6 40.4-2.9 4.2-8.2 6.2-10.8 10.2-1.6 2.3-2.2 5.7-3.8 8.2-2.8 4.2-10.6 16.7-16.2 14.9-7.1-2.2-6.8-12.8-8-13.6h-.2Z" class="fill" data-original-prefix="fill"/><path id="fill-teeth16" fill="#ffffff" d="M995.3 1525.7c11 9.5 17.2-6.6 23.2 6.3 6.5 14.1 3.7 38.4-1 52.9-.7 2.1-7.1 16.9-8 17.1-1.2.3-3-.4-4.2-.9-12-5.1-31.7-18.1-39.1-28.9-10.6-15.5-6.4-42.9 6.8-55.8 1.3-1.3 9.1-5.6 10.4-5.3 1.5.3 9.4 12.3 12 14.5h-.1Z" class="fill" data-original-prefix="fill"/><path id="fill-teeth15" fill="#ffffff" d="M1039.1 1601.9c-.8-.5-7.5-16.1-8.1-18.4-4.1-13.8-6.5-36.9-1.3-50.3 4.6-12 8.1-4.3 15.8-4.2 9.5.2 17.3-18.2 20.8-17.9 1.2 0 8.5 4.2 9.7 5.3 6.3 6.2 12.2 22.3 13 31 2.4 28-20.3 39.6-41.3 50.7-2 1.1-5.7 5.5-8.6 3.7Z" class="fill" data-original-prefix="fill"/><path id="fill-teeth14" fill="#ffffff" d="M904 1461c0 2.2-1.1 3.8-.8 6.2.2 1.8 7.1 22 8 23.1 3.9 5.1 11.2 3.2 16.7 3.8 4.9 13.5-4.2 23.8-8.6 35.6-2 5.3-8.7 33.1-12.8 34.2-1.8.5-6.8-9.1-8.3-10.7-10.3-23.9-15.3-58.4-2.6-82.2.6-1.2 7.1-11.6 8.4-10.1Z" class="fill" data-original-prefix="fill"/><path id="fill-teeth13" fill="#ffffff" d="M1144 1564c-2.1 1.4-6.1-7.1-6.8-8.7-3.2-7.9-4.4-17.4-7.5-25.5-4.3-11.6-13.6-22-8.6-35.6 4.8-.6 12.3 1.2 15.9-2.9 1.3-1.5 8.1-20.6 8.6-23.2.3-1.8-1.4-7 .9-6 6 2.7 13.7 26 14.4 32.6 1.4 13.9-2.9 45-9.3 57.4-.8 1.5-7 11.6-7.6 11.9" class="fill" data-original-prefix="fill"/><path id="fill-teeth12" fill="#ffffff" d="M1093.1 1644.9c-2.9-1.8-2.4-28.5-2.1-33.4.7-10.5 5.2-31.2 8.9-41.1 1.1-2.8 2.4-1.4 4.2 0 12.2 9.6 21.1 44.8 12.8 57.9-1.9 3-15.6 14.9-18.9 16.1-1.3.5-3.8 1.1-4.8.4Z" class="fill" data-original-prefix="fill"/><path id="fill-teeth11" fill="#ffffff" d="M949 1569c5.5 22 11.1 44.4 9 67.5-.5 5.2-.9 10.3-7 8-3.4-1.3-17.5-13.4-19.5-16.5-5.8-9.2-1.4-31.3 2.7-41.2 1.2-2.9 11.3-21 14.8-17.7Z" class="fill" data-original-prefix="fill"/><path id="fill-teeth10" fill="#ffffff" d="M881.7 1478.3c3.1 2.8-2.7 21-2.8 26.2 0 5.9 2.6 12.4 3.1 18 .2 2.1.7 24.5-.5 24.5-1.5.2-2.1-1.1-2.9-2.1-15.6-18.9-34.8-51.8-17.4-75.3 6.5-8.8 10.5 2.1 14.9 5.8 1.8 1.5 4.9 2.1 5.7 2.8Z" class="fill" data-original-prefix="fill"/><path id="fill-teeth9" fill="#ffffff" d="M1185.7 1467.3c1.9 1.6 7.8 13.7 8.2 16.2 3.2 20.7-9.8 47.3-23.9 61.9-.9 1-1.3 1.9-3 1.5.5-8-.7-16.6 0-24.5.4-5.4 3.1-12.3 3.1-18s-6.1-23.4-2.8-26.2c.6-.6 2.5-.6 3.8-1.7 3.4-3 10-13.1 14.7-9.3Z" class="fill" data-original-prefix="fill"/><path id="fill-teeth8" fill="#ffffff" d="M1018 1613v16.5c0 .9-10.8 13.2-11.9 14.1-6.3 4.8-8-2.6-10.6-5.5-5.5-6-17.9-.4-24.4-5.6-1.2-.9-4.1-8.8-4.1-9.9v-22.5c12.9 1.7 28.3 17.5 41.4 15.9 3.5-.4 6.1-3 9.6-2.9Z" class="fill" data-original-prefix="fill"/><path id="fill-teeth7" fill="#ffffff" d="M1031 1613c6.3 1.3 9.1 4 16.1 2.6 10.6-2.2 24.3-14.8 33.4-15.6 2-.2 1.4 0 1.2 1.3-.8 6.5 2.4 27.5-4.4 31.6-7 4.2-18.8-.3-23.4 4.6-2.1 2.2-3.6 8-8.4 7.6-1 0-14.6-13.5-14.6-14.6V1613z" class="fill" data-original-prefix="fill"/><path id="fill-teeth6" fill="#ffffff" d="M1102.5 1494c3.3-.8 4.5 6.9 5.3 8.7 5.6 12.1 13 24.8 13.3 38.8.2 9-16 29.8-21.3 16.2-4-10.4-4.1-44.8-1.1-55.5.4-1.6 2.4-7.9 3.8-8.2" class="fill" data-original-prefix="fill"/><path id="fill-teeth5" fill="#ffffff" d="M937.3 1559.7c-1.9-1.6-7.8-10.5-8.5-13-3.6-12.1 6-31.3 11.4-42 1.6-3.1 3.3-14.7 8-7.4 5.5 8.5 4.3 41.5 2.7 52.1-1.2 7.7-3.6 18.7-13.6 10.3" class="fill" data-original-prefix="fill"/><path id="fill-teeth4" fill="#ffffff" d="M917 1563c-1.8 13.4 2.9 27.5 2 40.5-.6 9-4.4 18.4-5.5 27.5-6.2-6-10.5-16.1-11.4-24.6-.5-5.2.7-24.7 2.4-29.3.6-1.6 10.5-16.2 12.4-14.1Z" class="fill" data-original-prefix="fill"/><path id="fill-teeth3" fill="#ffffff" d="M1135 1631c-.4-8.9-4.4-17.8-5.1-26.5-1-13.8 3.7-27.6 2-41.5 2.2-2.4 11.9 13 12.5 15 2 6.6 2.6 27.4 1.2 34.3-1.3 6.3-5.5 14.9-10.8 18.7z" class="fill" data-original-prefix="fill"/><path id="fill-teeth2" fill="#ffffff" d="M1154.1 1604.9c-3.4-2-5.1-22.3-3.9-26.2.8-2.6 8.9-5.2 10.2-8.8l5.1-10.9c3.8 3.4 5.1 7.2 4.3 12.2-.7 4.2-5.4 22.7-6.9 26.2-.9 2.2-6.1 9-8.8 7.5" class="fill" data-original-prefix="fill"/><path id="fill-teeth1" fill="#ffffff" d="M885 1559c-.3 3.7 1.7 9.4 4 12.2s9.5 5.2 10 8.3c-2 8.4 1.6 19.2-5.7 25.4-3.6-1.1-6-4-7.4-7.4s-6.5-23.6-6.9-27.1c-.5-4.2 1.2-10.6 5.9-11.4z" class="fill" data-original-prefix="fill"/><path id="shading-mouth2" fill="#aaaaaa" d="M918 1443.5c.8 5.3 5.6 13.8 10.1 16.9 11.5 8.3 16.2-.3 22.4-9.4 2.5 5.4 3.4 11.5 6 17 1.4 2.8 5.7 12 7.5 5.5l4-11.5c1.6 7.5 6.3 15.4 11.5 21 4.3 4.7 18.8 15.4 24.6 9.6 2-2.1 8.3-17.9 10.8-22.2 1.2-2.2 7.8-13.8 9.7-13.3 1 .2 8.5 13.2 9.7 15.3 2.4 4.5 7.3 17.7 9.8 20.2 3.8 3.8 10.5.4 14.4-1.8 10.5-5.9 18.5-17.2 21.7-28.8l4.2 12.3c.3 1.2 1.9 2.4 2.8 1.7.6-.4 5.8-11.3 6.5-13 .8-2 2.8-12 4-12 6.8 10.7 12.9 18.4 24.5 7.5 8.6-8 9.3-23.8 7-34.5 3.5-3.1 21.1 16.1 26.6 16.9 9.1 1.4 17.6-11.8 19-19.9 3.5-20.5-12.9-39.2-30.9-46.2l-12.7-4.8c15.4 0 28.2 2.9 41.1 11.4 4.8 3.1 12.2 10.9 17.6 11.4 6.2.6 10.1-4.1 10-10-.4-19.3-25.8-38.1-39.7-48.8 15.4 2.4 34.6 11.8 45 23.5 7.8 8.8 19.1 25.1 19.1 37s-6.4 28.5-9.2 32.8c-3.3 5.3-11.7 5.4-13.4 10.6-.9 8.1-2.1 16.4-2.5 24.5-1.5 29 1.4 45.2-10.8 73.2-3.6 8.2-12.7 20.4-14.9 27.1-4.2 12.8-.7 26.4-9.1 38.9-3.2 4.8-8.4 6.7-11.2 10.8-1.7 2.5-2.4 6.1-4.2 8.8-4.5 6.7-14.6 23-21.6 8.9-1.6-3.3-1.3-12.9-6.7-6.2-1.4 1.7-1.9 4.4-3.5 6.5-3.7 4.7-17.7 19.6-23.5 19.5-2.2 0-4.5-4.1-6.6-5.4-7.9-5-21.1-6.3-29.2-1.4-7.3 4.4-9.5 13.6-18.1 6.8-8.6-6.7-6.4-10.8-20.1-9-5.6.7-11.4 12.6-16.9 12.1-2.8-.2-11.4-11.1-18.5-12.6-6.3-1.3-17.5.7-23 4.2-2.6 1.7-4.1 5.6-7.5 5.4-5.7-.3-19.8-15.8-23.6-20.5-1.2-1.5-4.4-10.6-7.1-6.9-2.5 3.4-.6 9.9-7.2 12.7-7 3-14.9-11.2-18.1-16.4-1.2-1.8-1.2-4.3-2.6-6.4-2-3-6.8-5.4-9.5-8.5-10.4-11.9-6.7-27.7-10.7-41.3-.8-2.6-5.6-8.5-7.3-11.7-18.4-35.7-16.4-45.6-18.4-84.6-.4-7.7-.6-20.7-2.2-27.8-1.5-6.2-11.1-6.1-14.2-11.8-3.4-6.1-9.3-29.6-8.6-36.4 1.2-10.3 16.2-31.2 24-38 10.5-9.2 26.2-16.5 40-18.5l-21.5 17c-7.2 6.4-26.8 32-14.8 39.9 9 5.9 16.7-4.5 23.7-9.1 12.7-8.4 25.3-11.8 40.7-11.8l-17.3 7.2c-18 9.4-33.1 32.7-22.1 52.8 1.7 3.1 8.6 10.4 12 11.1 9.1 1.7 20.7-15.4 29.5-18 .6 6.4-.9 14.3 0 20.5zm-37.1 40.6c-12.3-.5-17.1-20.2-22.8 1.5-3.4 13 1.2 26.4 9.4 36.5 1.5 1.8 12.7 13.1 13.9 12.9.8 0 2.5-2.3 2.8-3.2 2.9-7.1-3.2-12.2-4.2-19.2-1.5-9.8 0-18.7.9-28.4Zm301.8-8.9c-3.2.8-6.3 6-8.8 7.3-2.1 1.1-7.2 1-7.8 3.2-.5 1.7 3 10.8 2.9 14.8 0 3-1.5 13.9-2.2 16.8-.9 3.6-3.9 5.7-3.9 10.2s1.4 7.1 3.7 7.4c1.9.3 15-14.4 16.8-17 5.7-8.5 9-18.8 7.3-29.2-.5-3-4.4-14.5-8-13.6Zm-284.8 10c-4-2.3-6.5 9.9-6.8 12.5-1.2 10.5 3 38 8.7 47.1 1.9 3 5.4 6.9 9.2 7.3 3.7-15.6 12.6-29.2 21-42.5-2.3-.4-1.7-2.9-2.7-3.5-1.5-.9-7-1.9-9.7-3.1-4.7-2.2-12-7.7-15.6-11.4-1.2-1.2-3.8-6.2-4.2-6.3ZM1139 1552c8.3-2 11.9-12.2 13.9-19.6 3.1-12.1 6.1-33.4 1.1-44.8-3-6.9-5.8 1.7-8.3 4.1-3.9 3.8-11 9.3-16 11.6-2.5 1.1-7.8 1.8-9.1 2.7-.7.5-.5 1.8-1 2.7-.3.4-1.7.4-1.6.9 0 1 7.9 12.3 9.2 14.8 4.8 8.8 9.1 18 11.8 27.7Zm-197.7 5.7c8.1 8.1 9.5 0 10.5-7.3.8-5.6 2.7-20.6 1.7-25.4-3.6-17.2-21.3-15.9-21.6 3.6 0 6.8 4.6 24.3 9.4 29.2Zm161.5-44.5c-5 1.3-8.5 9.3-8.8 14.2-.2 4 2.4 28.5 3.8 31.3 2.5 5 7.5 0 9.8-2.7 6.8-8.3 11.6-30.7 4.5-39.5-2.7-3.3-4.8-4.4-9.2-3.3zM1023 1544c-.7-.7-.8-7-5.1-9.4-8.9-5-21.8-.8-32-4-10.4-3.3-9.4-13.1-16.1 1.8-2.9 6.4-9.1 24.4-6.3 30.7 1.1 2.4 17.8 15.6 21.2 17.8s18.2 11.7 21.1 10c3.1-5.6 9.3-9.5 12.6-14.9 1.8-2.8 4.1-11.5 4.6-11.9 1.6-1.7 1.7.5 2.1 1.4 1.6 3.6 2.1 6.8 4.5 10.5 3.3 5.2 9.2 9.3 12.4 14.6 3.1 1.9 15.5-5.9 18.9-8.1 4.5-2.9 22.9-17 23.9-21.1 2.2-9.7-6.6-28.3-10.9-37.2-4.9 1-7.8 5.2-12.7 6.7-9.2 2.8-28.2-1.6-33.7 6.3-.9 1.2-2.6 8.9-4.5 7zm-136 18c-.7-.6-3.5 0-4.5.9-6 6.2 2.4 31.6 14.6 27.6 4-1.3 3.8-9.4 2.8-12.9-1.1-3.9-7.2-4.1-9.8-7.2-2.1-2.5-2.7-8.2-3-8.5Zm274.1 0c-.3.3-.9 6-3 8.5-2.6 3.1-8.7 3.3-9.8 7.2-1 3.4-1.2 11.6 2.8 12.9 13.4 4.4 20.2-24.5 14.1-28.1-.9-.5-3.5-.9-4-.4Zm-216.4 7.2c-1.5.4-5.1 4.6-6 6.1-3.4 5.6-5.6 32.3-4.8 39.3 1.3 10.9 15.2 18 19.5 3.5 1.7-5.6 2.6-21.4 2.5-27.6 0-1.1-5.8-19.7-6.5-20.5-1.2-1.4-3.2-1.3-4.8-.8Zm153.3-.1c.2 6.6-5.4 14.7-6 20.6-.5 4.5 1 25.3 2.4 29.4 4.2 12.1 16.9 7.3 19.1-2.9 1.1-5.2 0-16.8-.6-22.6-1-9.7-1.7-25.5-14.9-24.5m-180 1.9c-20.5 3.8-17 28.7-9 43 4 2.9 10.4-17 10.7-19.8.9-7.5-2.9-15.5-1.8-23.2Zm218 43c2.5 1.8 7.2-9.1 7.7-10.8 3.9-12.8 1.6-30.1-13.7-32.2.5 7.4-2.8 16.2-1.9 23.4.3 2.7 6.4 18.5 7.9 19.6m-148.2 10.2c1.4.8 4.8 8.6 9.5 11 11.1 5.8 20.2-6.4 20.7-16.7.8-13.7-7.2-7.7-16.5-8.6-8.4-.8-15-4.8-21.8-9.2-5.5-3.5-13.6-14.6-14.7-1.4-.5 5.1 1.4 7.5 1.8 11.2s-2 5.9.5 10.7c4.8 9.3 18 1.3 20.7 2.8zm93.1-31.1c-2.1-1.5-19.7 12.7-23.9 14.4-2.3 1-7.9 2.3-10.5 2.5-10.5.9-18.8-5.4-16.4 11.4 1 7.3 7.9 15.8 16 15.1 9.4-.8 11.9-11.6 14.6-12.4 4-1.3 12.3 5.7 18.9-1.1 4.3-4.4 1.3-8.4 1.5-12.5 0-2.3 1.9-4.8 2-8.1 0-1.9-.8-8.5-2.2-9.4Z" class="outline shading" data-original-prefix="shading" opacity="0.5" style="opacity: 0.5"/><path id="shading-mouth1" fill="#aaaaaa" d="M1041 1343c6.1.5 12.7-1 17.5-5 1.5-1.3.9-3.7 2.8-2.9 10.1 7.9 37.9 17.4 43.8 28.2 3.6 6.5 4.6 17.5-1.8 22.6-5.6 4.5-20.8 10.8-28 15-4.9 2.8-9.7 6.6-14.7 9.3-7.4 4.1-25.5 14.5-32.6 16.4-2.9.8-5.2.8-8.1 0-14.5-3.8-42.2-22.5-56.3-30.7-6.2-3.6-21.2-9.1-23.2-15.8-5.5-18.4 15.7-28.3 28.7-35.4 2.3-1.2 15.5-8.6 16.5-8.7 2.9-.3 4.2 2.9 6.7 4.2 4.2 2.3 10 3.2 14.7 2.8-.3-5.1-3.3-11.3-1.8-16.3.5-1.6 12.5-13.9 14.5-14.4 3.9-1 8.2-.3 11.6 1.9 1 .7 10.8 11.1 11.2 11.8 2.1 5-1.2 11.8-1.5 17" class="outline shading" data-original-prefix="shading" opacity="0.5" style="opacity: 0.5"/><path id="outline-mouth3" fill="#000000" d="M888 1333c-.7 1.9-2.2 2-3.8 2.7-12.3 5.2-24 8.3-33.2 18.8-6.6 7.6-18.9 26-18 36 .3 4 7.1 25.8 9.2 28.8 2.7 4 6.1 4.9 10.8 4.7-1.4-9 4.2-18.1 9.6-24.9 2.2-2.8 21.9-22.6 24.4-20.1-1.7 6.5-8.8 10.4-13 15.5-8.1 10-12.3 23.6-9.5 36.5 1.2 5.4 11.2 26 15 30 .6.7 7.1 6.3 7.5 6.5 2.4 1.2 5.6-3.8 6.5-5.5 2.5-4.3 3.1-9.7 5-14 4.4-10.2 9.3-18.3 18.5-25-5 13.9-9.5 44.6 1.5 56.1 4.6 4.8 11 2.5 15 5.1 2.1 1.3 2.5 5.4 4.2 5.8s7-3.1 9.4-3.5c9-1.4 12.6 16.9 18.7 17.4 2.5.2 10.2-12 18.4-9.4 5.5 1.8 19.2 24.8 24.4 23.6 5.8-5.9 3.6-12.3 5-19 1.5-7.6 8.3-12.6 9.4-22.6.8-7.2-1.7-26.6-4.7-33.1-1.1-2.3-5.5-10.7-6.8-12.2-3.4-4-15-9.2-19.8-6.1l-4.2 11.1c-4.8-4.4-9.5-9.2-14.5-13.5-3.7-3.2-10-6.8-13-9.9-4-4.2-15.6-27.9-15.7-33.2 0-6.8 17.5-22.4 21-29 5.4-4.1 29.2-2.8 35.7.2 8.4 3.8 12.4 12.1 18.5 17.5 5.2 4.5 2.5-1.7 2.5-3.6s.9-3.2.8-4.8c-.2-5.4-6.7-9.2-9.9-13.1-2-2.4-5.6-6.2-7-8.2-.9-1.3-4.9-7.8-5-8.8-.2-2.6 9.1-11.7 11.5-12.4 3.6-1-.5 5.5-.5 6.6-.4 5.2 5.9 4.1 9.3 5.6 1.2.5 3 2.7 3.2 2.7s2.4-2.7 3.8-3.2c7.8-3.2 11 1.2 6.8-11.7 1.6-1.7 12.5 9.1 12.9 11.7.6 4.5-17.6 23.1-21.1 27.5l-.8 12.7c1.7.4 2-.7 3-1.5 8.7-6.7 12.6-16.8 24.9-19.1 5.5-1 25.6-1.3 29.8 1.8 3.4 6.7 20.4 21.8 21 28.4.4 4.3-10.8 27.3-13.9 31.7s-9.8 7.6-13.8 11.2c-5.3 4.6-10.3 9.8-15.5 14.5-2.2.9-1.4-5.6-2.2-7.7-3.4-8.6-19-1.6-22.7 3.8-.7 1-7.1 13.9-7.3 14.7-2.7 12.8-5.5 27.3-.2 39.8 1.5 3.5 4.6 6.8 5.8 10.2 2.5 7.2-.5 15.2 5.8 21.2 9.4-2.8 19.1-24.9 27.9-24 5.2.5 13.2 10 14.9 9.8 5.8-.5 9.3-18.7 18.7-17.4 2.4.3 7.6 3.9 9.3 3.4s2-4.8 4.8-6.1c3.8-1.8 9.4-.4 13.3-3.7 11.5-9.7 8.1-43.1 2.5-56 1.6-1.7 11.3 10.4 12.4 12.1 5.1 7.8 6.1 15.5 9.7 23.3 1 2.1 4.8 9.8 7.8 8.2.4-.2 6.9-5.9 7.5-6.5 6.8-7.5 16-30.4 15.4-40.5-1.3-22.7-10.7-22.7-21.5-37.5-5.3-7.2 2.8-2.4 6 0 11.8 8.6 28 25.5 26.5 41 11.6 1.1 13.6-11.4 16.3-20.2 4.6-15.6 5.3-18.8-3.1-33.4-8.2-14.3-16.4-22.7-31.5-29.5-5.8-2.6-13.2-3.6-17.7-7.8 15.9 1.8 34.5 6.4 49 13.5 8.3 15 22.1 26.8 28.1 42.9l-15.2 44.9c-.9 3.7-13 4.8-13.8 5.8-.6.8-2.2 17.2-2.2 19.4-.2 31.7 2.4 50.4-13.1 79.9-2.6 5-12 16.3-12.6 19.4-.9 4.6 0 10.4-.5 15.5-.9 8.4-5.8 16.4-6.7 23.4-.4 3.5 1.3 7.7.8 9.7s-10.7 8.6-13.2 9.9c-2.2 1.2-5.7 1.5-6.5 2-.6.4-5.2 10.6-7.2 13.2-2.2 2.8-13.6 14.5-16.9 12.4-.6-.4-5.9-11.8-7.1-13.3-2.2-2.9-2.2 2.1-3.2 3.8-4.6 7.3-24.8 27-32.8 29.2-1.7.5-3.3.7-5 .5 1.1-8.2 2.6-16.6-8-18.6-9.7-1.8-16.2 7.5-18.5 15.6-1.2 4.3-1.2 16.7-7.8 14.9-4.3-1.2-20.3-25.6-23.2-30.8-5.5 8.6-11.5 19.1-18.5 26.5-1.8 1.9-6.9 7.7-9.3 3.3-2.8-5.3-2.5-14.6-5.5-20.5-3.8-7.2-14-11.7-21.2-6.8-6.6 4.6-2.9 10-3 16.5-3.4 3.4-23.5-12.8-26.5-15.9-1.5-1.5-11.4-13-11.9-14.1-.7-1.4-.2-6.3-2.6-3.3-2.1 2.6-6 14.4-10.2 13.3-2-.6-12-10.2-13.7-12.4-2.1-2.7-6.6-12.8-7.2-13.2-.8-.5-3.8-.6-5.8-1.7-2.5-1.4-11.8-7.1-13-9-2.3-3.8.4-6.7 0-10.8-1-7.2-5.8-15.5-6.7-24.4-.5-5 .6-10.7-.6-15.4-1-3.9-7.9-9.8-10.7-14.3-10.4-16.9-15.8-37.5-16.8-57.2-.8-15.6 1.6-31.1 0-46.5-18.8 0-17.3-14.5-21.7-27.8-2-5.8-9-19.6-8.1-24.5.6-3.1 5-9.2 7-12.1 2.9-4.3 18.7-27.3 20.9-29.1 1.7-1.4 8.5-4.5 10.7-5.3 9.6-3.2 28.2-7.1 38.2-8.3v-.7Zm16 128c-1.4-1.5-7.8 8.9-8.4 10.1-12.7 23.9-7.6 58.3 2.6 82.2 1.5 1.6 6.5 11.2 8.3 10.7 4.1-1.1 10.8-29 12.8-34.2 4.4-11.8 13.5-22.1 8.6-35.6-5.5-.6-12.8 1.4-16.7-3.8-.9-1.1-7.8-21.4-8-23.1-.2-2.4.8-4 .8-6.2Zm240 103c.6-.4 6.8-10.5 7.6-11.9 6.4-12.5 10.7-43.5 9.3-57.4-.7-6.6-8.4-30-14.4-32.6-2.3-1-.6 4.2-.9 6-.5 2.7-7.2 21.8-8.6 23.2-3.6 4.1-11.1 2.3-15.9 2.9-5 13.6 4.3 24 8.6 35.6 3 8.1 4.3 17.7 7.5 25.5.7 1.6 4.7 10.2 6.8 8.7m-262.3-85.7c-.8-.7-3.9-1.3-5.7-2.8-4.4-3.7-8.4-14.6-14.9-5.8-17.4 23.5 1.8 56.3 17.4 75.3.8.9 1.5 2.3 2.9 2.1 1.2 0 .7-22.5.5-24.5-.5-5.6-3.2-12.1-3.1-18 0-5.2 5.9-23.5 2.8-26.2Zm304-11c-4.6-3.9-11.2 6.2-14.7 9.3-1.3 1.1-3.1 1.1-3.8 1.7-3.3 2.9 2.8 21 2.8 26.2s-2.6 12.6-3.1 18c-.7 7.9.4 16.5 0 24.5 1.7.4 2-.5 3-1.5 14.2-14.6 27.2-41.2 23.9-61.9-.4-2.6-6.3-14.7-8.2-16.2Zm-83.2 26.7c-1.4.3-3.3 6.6-3.8 8.2-3 10.7-2.9 45.1 1.1 55.5 5.3 13.6 21.4-7.2 21.3-16.2-.2-14-7.6-26.7-13.3-38.8-.8-1.8-2-9.4-5.3-8.7m-165.2 65.7c10 8.3 12.4-2.6 13.6-10.3 1.6-10.6 2.8-43.6-2.7-52.1-4.7-7.3-6.5 4.3-8 7.4-5.3 10.7-15 29.9-11.4 42 .7 2.4 6.6 11.4 8.5 13m58-34c-2.6-2.2-10.5-14.2-12-14.5-1.3-.2-9.1 4.1-10.4 5.3-13.2 13-17.5 40.3-6.8 55.8 7.4 10.8 27.1 23.8 39.1 28.9 1.2.5 3 1.2 4.2.9.9-.2 7.4-15 8-17.1 4.7-14.6 7.5-38.8 1-52.9-5.9-13-12.1 3.2-23.2-6.3h.1Zm43.8 76.2c2.9 1.8 6.6-2.7 8.6-3.7 21.1-11.1 43.7-22.7 41.3-50.7-.7-8.7-6.7-24.8-13-31-1.2-1.1-8.4-5.2-9.7-5.3-3.5-.3-11.2 18.1-20.8 17.9-7.8-.2-11.2-7.8-15.8 4.2-5.2 13.4-2.8 36.6 1.3 50.3.7 2.3 7.3 17.8 8.1 18.4ZM885 1559c-5.2 1.1-6.5 7.6-5.8 12.2s5.4 23.4 7 27c1 2.2 6.2 8.5 8.7 6.7 3.4-2.4 3.2-20.7 4.1-25.4-.6-3-7.8-5.5-10-8.3s-4.3-8.6-4-12.2m269.1 45.9c2.7 1.5 7.8-5.3 8.8-7.5 1.5-3.4 6.2-22 6.9-26.2.8-5-.5-8.8-4.3-12.2l-5.1 10.9c-1.4 3.6-9.4 6.1-10.2 8.8-1.2 3.9.5 24.2 3.9 26.2M917 1563c-1.9-2.2-11.8 12.5-12.4 14.1-1.8 4.6-2.9 24.1-2.4 29.3.8 8.6 5.2 18.6 11.4 24.6 1.1-9 4.9-18.4 5.5-27.5.9-13-3.8-27.1-2-40.5Zm218 68c5.2-3.8 9.5-12.5 10.8-18.7 1.4-6.9.7-27.7-1.2-34.3-.6-1.9-10.4-17.4-12.5-15 1.7 13.9-3.1 27.7-2 41.5.7 8.7 4.6 17.6 5.1 26.5zm-186-62c-3.4-3.2-13.6 14.8-14.8 17.7-4 9.9-8.4 31.9-2.7 41.2 2 3.2 16 15.2 19.5 16.5 6 2.4 6.5-2.8 7-8 2.1-23.1-3.5-45.4-9-67.5Zm144.1 75.9c1.1.7 3.6 0 4.8-.4 3.2-1.2 16.9-13.1 18.9-16.1 8.3-13.1-.6-48.3-12.8-57.9-1.8-1.4-3.1-2.8-4.2 0-3.7 9.9-8.2 30.6-8.9 41.1-.3 4.8-.8 31.5 2.1 33.4ZM1018 1613c-3.5 0-6.1 2.5-9.6 2.9-13.1 1.6-28.5-14.2-41.4-15.9v22.5c0 1.1 2.9 9 4.1 9.9 6.5 5.2 18.9-.4 24.4 5.6 2.6 2.9 4.3 10.3 10.6 5.5 1.1-.8 11.9-13.1 11.9-14.1v-16.5Zm64-13c-13.3 1.4-27.9 17.6-41.4 15.9-3.5-.4-6.1-3-9.6-2.9v17.5c4.1 2.4 11.4 14.9 15.4 14.5 5.4-.5 6.1-8.2 10.5-9.6 5.4-1.7 16.2 1.1 21-3 1-.8 4-9.7 4-11v-21.5Z" class="outline" data-original-prefix="outline"/><path id="outline-mouth2" fill="#000000" d="M1011 1292c-6.2 1-21.6 9.8-26 14.5-2.9 3.1-3.9 7.2-7.2 9.8-18.9.8-35.9 5.2-50.3 17.8-.9-.2-.3-1.9-.5-2 1.1-8.8 19.3-26.2 27.4-25 3.5.5 2.6 4.8 10 4 10.8-1.2 17.8-10.7 19.4-20.7.4-2.5-1.9-5.2 1.2-6.7 4.7-2.2 21.7 4.7 26 8.5z" class="outline" data-original-prefix="outline"/><path id="outline-mouth1" fill="#000000" d="m1122 1332-.5 3c-10.9-11.7-25.5-16-41-18-2.9-.4-6.9.7-9.5-.5-1.5-.7-4.5-7.4-6.5-9.5-3.4-3.8-14.1-10.6-19-12s-4.7-.4-8.6-2.9c4.2-4.1 21-10.8 26-8.5 3.1 1.5.8 4.2 1.2 6.7 1.9 11.3 12.7 24.5 25 19.5 4-1.6 2.6-4.3 9.2-1.6 10.8 4.4 18.3 14 23.6 23.9h.1Z" class="outline" data-original-prefix="outline"/>
    </g><g class="trait-group" data-category="eyes" id="eyes-trooper">
      <path id="fill-eyes-main" fill="#ffffff" d="M1244.8 1350.8c-1.7.9-10.6-4.2-12.8-5.3-49.4-24.9-96.9-53.8-146.3-78.7-5-3-9.1 2.8-13.3 3.2-5.4.6-7.4-4.2-10.9-7-4-3.1-20.3-13.3-21.3-16.7-1.3-4.6.1-16.1-.2-21.8-.5-9.4-1.8-18.9-2.1-28.4-3.6-1.5-27.3-1.9-28 .5l-2.5 50.4c-6.1 6.4-14 10.7-21 16.1-3.7 2.8-5.2 7.3-10.9 6.9-4.5-.3-8.3-5-12.9-3.8-53 28.3-105.4 57.9-159.1 84.9-18.6-17.6-34-38.1-51.1-57.1-18.7-20.7-39.5-40.6-57.5-61.5-9.3-10.7-9.6-34.2-12.3-48.7-.7-3.6-3.1-18.6-4.6-20.4-2.8-3.4-10.3-.4-13.6-.6-2.4 0-12.6-5.9-15.2-7.6-5.7-3.7-32.3-26.1-33.8-31.2-1.2-4 1.5-10.3 2.8-14.3 10.6-31.8 38.3-80.4 63.7-102.3 3.2-2.7 15.8-12.3 19-13.1 3.7-.9 10.7 2.2 15 0 3.3-1.6 5.2-10 6.8-13.2 3.3-6.7 23.3-24.8 30.2-30.8 33.5-29.6 95-72.8 135.7-90.3 16.8-7.2 25.7-4.2 42.9-5.1 60.2-3 124.7-3 184.9 0 8.4.4 17.7-.8 26 0 20.9 1.9 79.8 41.3 99.2 54.8 26.6 18.4 46.8 35.8 70.3 57.7 4.4 4.1 8.8 5.1 11.9 11.1 1.8 3.6 4.4 14.1 8.1 15.9 4.3 2.1 11.3-1 15 0 3.3.8 15.9 10.4 19 13.1 25.4 21.9 53.6 71.1 64 103 2.1 6.4 4.9 10.7.5 16.5-6.1 8.2-36.8 34.5-46.2 35.8-3.6.5-11.4-3-14.4.6-1.5 1.8-3.9 16.8-4.6 20.4-2.7 14.4-3.1 37.9-12.3 48.7-18 20.9-38.9 40.8-57.5 61.5-12.9 14.3-24.7 30-38 44-4.1 4.4-8.9 8.1-12.7 12.8Z" class="fill" data-original-prefix="fill"/><path id="fill-eyes-pupil2" fill="#ffffff" d="m806.6 1195 77 43c2 3.2-8.3 13.8-11.2 15.8-24.4 17.7-59.4-.3-67.6-27.1-2.8-9.1-3.2-23.5 1.8-31.8Z" class="fill" data-original-prefix="fill"/><path id="fill-eyes-pupil1" fill="#ffffff" d="M1240.7 1195.1c2.7-.2 4.1 8.2 4.3 10.4 3.7 37.4-37.1 71.7-69.3 48.3-2.9-2.1-13.3-12.6-11.2-15.8z" class="fill" data-original-prefix="fill"/><g id="fill-eyes" fill="#ffffff"><path id="fill-eyes4" fill="#ffffff" d="M797 1335c-.2.3-3.4-1.9-4-2.5-25.8-20.9-59.2-59.8-81.5-85.5-5-5.8-16.9-18.1-19.9-24.1-4.6-9.4-10-58.9-10.6-71.4-.3-7.5.8-13.4 3-20.5 1.6 0 1.6 3.4 1.8 4.7 4.7 23.4 6.7 47.5 10.9 71.1 31.3 34.2 66.7 64 101.3 94.7 2.2 2.5 0 5.4 0 8.1-.2 8.6-.5 17-1 25.5Z" class="fill" data-original-prefix="fill"/><path id="fill-eyes3" fill="#ffffff" d="M1251 1335c-.5-8.5-.8-16.9-1-25.5 0-2.7-2.3-5.5 0-8.1 34.6-30.7 70-60.5 101.3-94.7 4.2-23.5 6.2-47.6 10.9-71.1.2-1.3.2-4.7 1.8-4.7 2.2 7.1 3.3 13 3 20.5-.6 12.5-6 62-10.6 71.4-2.9 6-14.9 18.3-19.9 24.1-22.3 25.8-55.7 64.6-81.5 85.5-.6.5-3.8 2.8-4 2.5Z" class="fill" data-original-prefix="fill"/><path id="fill-eyes2" fill="#ffffff" d="m1241 1310-3 31c-2.2 2.2-34-13.2-39-15-.3-1.7 2.4-1.1 3.5-1 3.9.2 8.3 1.9 12 2 10.8.5 16.9-13.2 26.5-17" class="fill" data-original-prefix="fill"/><path id="fill-eyes1" fill="#ffffff" d="M848 1325c-.2 1.5-1.9 1.9-3 2.5-3.9 2.3-33.2 15.2-35 13.5l-3-31c.6-.7 6.6 4.3 7.5 5 2.9 2.4 10.5 10.6 13.5 11.5 6.2 1.9 13.6-2.2 20.1-1.5Z" class="fill" data-original-prefix="fill"/></g><g id="shading-eyes" fill="#aaaaaa" opacity="0.5"><path id="shading-eyes5" fill="#aaaaaa" d="M1222.1 1045.9c.7.5 4.8 0 6.9.6 3.4 1 8.2 3.7 12 5s15.5 3.2 16.8 6.2l5.2 89.3c40.5-18.7 80.1-39.2 119.6-60 7.6-1.1 20.2 10.6 26.7 15.2 7.9 5.6 30.9 14.8 10.7 22.2l-34.4 37.7c-9 1.3-16.5-4.6-17.6 8.9-1.4.3-2.4-.3-3.6-.9-8.4-4.1-19.3-14.6-28.1-19.9-1.8-1.1-11.3-6.2-12.6-6-36.9 21.7-75.9 39.4-113.8 59.3-32.1 16.9-63.5 35.2-95.3 52.7-4.7 2.6-16.9 7.2-20.1 9.9-2 1.7-1.4 3.8-1.6 3.9-.6.6-7-3-9.5-3.1-4.9-.2-6.5 2.5-10.1 3.1-6.6 1-6.3-2.4-10.5-5.4-4.5-3.2-21.4-14.1-22.7-18.3-1.7-5.7 1-16.7-1.2-23.3 2.3-2.4 14.3 11.6 18.2 9.8 65.4-24 127.8-55.2 190.8-84.4-2.7-21-2.3-42.9-5.2-63.8-.8-5.6-2.4-20.7-7.9-23.1-1.9-.8-4.2-.2-6-1-9.4-3.8-18.4-11-26.7-16.8-12.4-27.3-20.8-56.4-38.4-81-7.7-10.7-19.2-22.9-28.3-32.7-19.1-20.7-39.9-40.2-59.5-60.5 0-.8 14.1-5.9 15.9-5 17.9 17.1 37.2 32.8 55.1 50 15.8 15.2 24.5 24.4 35.2 43.8s20.8 42.3 30 63c1.5 3.4 8.9 23.8 9.9 24.5Z" class="outline shading" data-original-prefix="shading" opacity="0.5" style="opacity: 0.5"/><path id="shading-eyes4" fill="#aaaaaa" d="M812.2 1061.2c-.5.3-3.9 5.9-4.3 7.2-5.2 26.4-5.7 53.6-7.8 80.4 62.9 28.6 124.8 59.9 189.8 83.7 4.7 2.7 15.4-10.6 17.5-10.6 2.9 0 .6 7.1.5 8.5-.2 4.4.7 11 0 15-.9 4.7-18.3 15.8-22.9 19.1s-3.7 6.4-11.3 5.2c-3.1-.5-7.1-3.7-9.2-3.7s-8.6 4.8-9.5 3.9c-.2-.2.4-2.2-1.6-3.9-3.2-2.7-15.4-7.3-20.1-9.9-32.5-17.8-64.5-36.4-97.3-53.7-36.9-19.5-75.2-36.6-111-58.1-2.7-.7-10.4 4.1-13.3 5.8-8.5 5.1-21 16.6-28.7 20.3-5.4 2.5-2.7-6.1-6-8-3.8-2.2-11.3 1.4-14.5-.4-9.4-9.9-17.9-20.8-27.5-30.6-1.9-2-5.6-6.2-7.5-7.5-3.5-2.3-9.6-1.6-7.1-9 1.1-3.4 12.9-9 16.5-11.5 4.9-3.4 19.3-15.3 23.8-16.2 3-.6 4.8 0 7.5 1.1 9.6 3.8 22 12.3 31.7 17.3 28.1 14.3 56.4 28.2 85 41.5l5.5-90 29.2-10.8 6.2-.3c12.2-30 25.4-61.1 41-89.5 10.5-19.2 20.6-28.9 36.2-43.8 17.2-16.5 35.7-31.7 53-48 .7-.5 1.4-.4 2.2-.3.7 0 12.2 4 12.8 4.3 1.2.7 1.1 1.2 0 2-20 20.6-41.1 40.3-60.5 61.5-17.2 18.8-32.3 36.3-43.3 59.7-7.7 16.3-13 34.6-21.1 50.9-7.8 7.3-17.9 14.2-28 18-2 .7-4.6 0-5.8.7Z" class="outline shading" data-original-prefix="shading" opacity="0.5" style="opacity: 0.5"/><path id="shading-eyes3" fill="#aaaaaa" d="M1035 1195h-22c.1-4.6 2.5-12.1 2-16.4-.6-5.1-16.3-23.1-5.3-26.4 9.2-2.8 11.3 10.5 14.7 9.8 2.6-.6 7.8-16.3 15.7-8.5 7.1 7.1-5.5 17.5-6.8 23.3-1.1 4.8 1.3 13.1 1.8 18.3Z" class="outline shading" data-original-prefix="shading" opacity="0.5" style="opacity: 0.5"/><path id="shading-eyes2" fill="#aaaaaa" d="M1252.7 1292.3c5.5 4.6 7.4 40.3 3.4 45.3-2.8 3.4-8.4.5-8.6-3.5.3-12.3-3.7-25.5-2.4-37.6.5-4.6 3.7-7.5 7.7-4.2Z" class="outline shading" data-original-prefix="shading" opacity="0.5" style="opacity: 0.5"/><path id="shading-eyes1" fill="#aaaaaa" d="M798.8 1337.8c-3 3-6.9.9-8.1-2.9-1.8-5.8-.8-27.6.6-34.1 2.1-9.8 10.7-14.7 11.8-2.3.4 4.5-2.5 37.5-4.3 39.3" class="outline shading" data-original-prefix="shading" opacity="0.5" style="opacity: 0.5"/></g><path id="outline-eyes" fill="#000000" d="M1017 1195c-.5 10.1-1.6 20.3-2 30.5-.3 6.5 1.3 20.7-.2 25.8s-27 19.7-31.4 25.6c-8.6 4.4-16.5-3.5-24.4-3.4-27.3 15.9-54.9 33.6-82.9 48.1-18.8 9.7-40.2 16.8-58.7 26.3-13.8 7.1-14.2 15.1-28.8.2-20.2-20.6-39.5-45.4-59-67-15.8-17.6-34.4-34.1-47.4-53.6l-10.1-60.4-3.5 9c-7.8-6.2-17-9.1-25.2-14.8-6.9-4.8-31.6-25.8-34.7-32.3-3.6-7.6 1.9-20.4 4.7-28.2 11.1-30.9 34.9-72.7 58.7-95.3 5.7-5.4 22.1-18.8 29.7-19.1 2.4 0 8.1 2.2 9.2 1.5 1.9-1.1 5.9-15.2 10.6-19.9 34.2-33.8 74.5-63.2 115.6-88.4 16.2-9.9 48.3-30.6 66.4-31.6 6.3-.3 11.9 1.2 18.1 1.1 19-.3 38.2-3.2 58-3.1 29.2.2 58.7.2 87.9 0 20.2-.1 39.6 2.8 59 3.1 6.2 0 11.6-1.4 18-1 16.6 1 41.1 16.5 55.8 25.2 43.8 25.8 80.9 53.4 117.7 88.3 4.6 4.4 8.8 5.2 12.4 11.6 1.4 2.6 5.1 13.8 6.8 14.8 1.1.7 6.8-1.6 9.2-1.5 5 .2 13 5.7 17.1 8.7 30.3 21.9 58.7 70.9 71.3 105.7 2.6 7.2 8 20.4 5 27.5-2.9 6.7-28 28.2-35 33-8.2 5.6-17.7 8.3-25.2 14.8l-3.5-9-10.1 60.4c-13.4 19.3-31.6 35.9-47.4 53.6-19.5 21.7-38.8 46.5-59 67-14.6 14.9-15 6.9-28.8-.2-19.2-9.9-41.1-17.1-60.7-27.3-27.4-14.2-54.4-31.3-80.9-47.1-3.8-1.6-6.7 2.1-10 3.1-14.3 4.4-14-.3-23.5-7.5-4.4-3.3-21.1-13.8-22.3-17.7-1.5-5.1.1-19.3-.2-25.8-.5-10.1-1.5-20.3-2-30.5-.7-12.4-2.2-24.9-1.8-37.3 22.2-18.9 47.2-35.4 71.9-51.1 33.5-21.3 68.1-41.5 103.9-58.6-14.6-29-28-59.3-45.6-86.9-11-17.2-22.3-29.9-36.9-44.1-13.2-12.9-34.4-33.7-49-44-2.1-1.5-4.3-2.9-7-3-26.9 2-57.6-2.6-84.1 0-3.6.3-5 1-8 3-9.8 6.8-23.3 20.1-32.5 28.5-20.3 18.6-38.5 36.2-53.4 59.6-17.6 27.6-30.9 57.7-45.6 86.9 30.3 14.2 59.4 31.1 87.9 48.6 30.3 18.7 60.7 38.3 87.9 61.1.4 12.4-1.1 24.9-1.8 37.3Zm-57-324c-11.2.3-22.4-.4-33.5 0-7.4.2-21.1.2-27.7 1.3-6.1 1-31.1 15.9-38 20-41.7 24.4-85.3 59.8-114.7 98.3-1.7 2.3-5.3 6.6-3.6 9.5l93.5 43c4.2-10.8 9.1-21.8 14.2-32.4 18.2-37.8 32.8-68 63.3-97.7 15-14.5 31.5-27.5 46.5-42m252 172 92.4-42.1c2.7-1.6 1.6-4 .4-6.3-2.6-5-18.1-22-22.8-27.2-29.2-31.6-64.9-58.6-102.4-79.6-5.8-3.2-25.4-14.8-30.4-15.6-6.6-1.1-20.3-1.1-27.7-1.3-11.2-.3-22.4.3-33.5 0 15 14.5 31.6 27.4 46.5 42 30.5 29.7 45.1 59.8 63.3 97.7 5.1 10.5 10 21.6 14.2 32.4m-392 6c-32.5-16.1-65.9-30.7-101-40.5-4.4-1.2-16.6-5.4-20.3-4.3-4.6 1.3-34.5 51.4-38.9 59.1-9.6 17-19.2 34.4-25.7 52.9l35.3 44.7c1.2-.7.2-2.9 0-4-1.3-9.2-3.9-20.8-6.2-29.8-2-7.9-4.2-17.2-9.3-23.7 5.6-.3 12.2 3.1 17.7 5.3 9 3.7 17.9 8.2 26.7 12.3 30.9 14.6 60.6 31.7 91.6 45.8 1.4-21.5 4.2-43 6-64.5 1-11.3 0-29.9 3.1-39.9 2.8-9.1 11.8-9.3 19.5-11.5 1.5-.4 1.7.6 1.5-2Zm558 112c4.3-5.8 36.4-42.5 35.8-46.3-.3-1.9-5.7-13.3-7-16.1-9.9-21.8-24.5-46.3-37.4-66.6-2.8-4.3-16.2-25.5-18.8-27.2-3.6-2.2-9 .2-13 1.1-37.9 9-74.6 26.2-109.6 42.9-.3 2.6 0 1.6 1.4 2 7.6 2.2 16.7 2.4 19.5 11.5 3.1 10.1 2.1 28.7 3.1 39.9 1.8 21.5 4.6 43 6 64.5 31.1-14.2 60.8-31.3 91.6-45.8 8.8-4.1 17.7-8.6 26.7-12.3 5.4-2.2 12.1-5.7 17.7-5.3-10.4 16.7-11.9 38.5-16 57.5Zm-383.3 87.7 15.2-82.4-.9-2.9c-36.4-25-73.2-49.3-111.4-71.6-16.9-9.8-35.2-20.7-52.7-29.3-3-1.5-8.2-4.8-11.3-4.1-1.7.4-12 5.8-13.4 7-5.7 4.7-8.1 16.6-9.8 23.7-6.6 27.2-10.3 55.1-13.4 82.9 59.8 29.5 117.8 62.7 177.9 91.7 1.1.6 1.9.4 3 0 3.5-1.6 11.7-13 16.8-14.8Zm233-183.4c-1.4-1.2-11.7-6.6-13.4-7-3.2-.7-8.4 2.7-11.3 4.1-17.4 8.6-35.8 19.5-52.7 29.3-38.2 22.2-75 46.6-111.4 71.6l-.9 2.9 14.6 81.4c4.7 2.4 13.9 14.2 17.4 15.8 1.1.5 1.9.6 3 0 60.1-29.1 118-62.2 177.9-91.7-3-27.8-6.8-55.7-13.4-82.9-1.7-7.1-4.1-19-9.8-23.7ZM797 1335c.5-8.5.8-16.9 1-25.5 0-2.7 2.3-5.5 0-8.1-34.6-30.7-70-60.5-101.3-94.7-4.2-23.5-6.2-47.6-10.9-71.1-.2-1.3-.2-4.7-1.8-4.7-2.2 7.1-3.3 13-3 20.5.5 12.5 6 62 10.6 71.4 3 6 14.9 18.3 19.9 24.1 22.3 25.8 55.7 64.6 81.5 85.5.6.5 3.8 2.8 4 2.5Zm454 0c.2.3 3.4-1.9 4-2.5 25.8-20.9 59.2-59.8 81.5-85.5 5-5.8 16.9-18.1 19.9-24.1 4.6-9.4 10-58.9 10.6-71.4.3-7.5-.8-13.4-3-20.5-1.6 0-1.6 3.4-1.8 4.7-4.7 23.4-6.7 47.5-10.9 71.1-31.3 34.2-66.7 64-101.3 94.7-2.2 2.5 0 5.4 0 8.1.2 8.6.5 17 1 25.5Zm-444.4-140c-5 8.2-4.7 22.6-1.8 31.8 8.2 26.7 43.2 44.7 67.6 27.1 2.9-2.1 13.3-12.6 11.2-15.8l-77-43Zm434.1.1-76.2 42.9c-2.1 3.2 8.3 13.8 11.2 15.8 32.3 23.3 73-10.9 69.3-48.3-.2-2.1-1.6-10.7-4.3-10.4M848 1325c-6.4-.7-13.9 3.5-20.1 1.5-2.9-.9-10.5-9.1-13.5-11.5-.9-.8-6.8-5.8-7.5-5l3 31c1.8 1.7 31.1-11.2 35-13.5 1.1-.7 2.8-1 3-2.5Zm393-15c-9.5 3.8-15.7 17.5-26.5 17-3.7-.2-8.1-1.8-12-2-1.1 0-3.8-.7-3.5 1 5 1.8 36.8 17.2 39 15z" data-original-prefix="outline" class="outline"/>
    </g><g class="trait-group" data-category="right ear" id="right ear-KBDS tattoo">
      <path id="fill-ear-rt" fill="#ffffff" d="M1715.7 184.2c3.2-.7 6.5-.5 7.2 3.3 2.3 39.5-3.6 77.2-9 116-.7 4.7-.2 11.1-1.1 15.9-5 26.9-24.5 58.9-29.7 86.3-5.7 30.4-4.7 64.8-10.9 95.1-7.8 38.3-25.1 77.8-33.7 116.4l-71.9 122.1c-45.8 31.3-94.9 58.3-141.8 88.2l-35 81-84.6 77.3c-5.6 2.9-16.3-.8-22.4-2.4-27.7-7.2-48.3-18.1-70.9-35.1-16.5-12.5-27.2-20.9-37.6-39.4-6-10.5-10.9-22.9-14.5-34.5 26.8-59.3 58.7-116.4 86.8-175.2 4.9-58.7 6.7-117.8 11.4-176.5 36.5-47.5 77-92.5 114.8-139.2 47.2-35.9 96.4-69 144.9-103.1 66.1-31.9 127.9-72.1 197.8-96.2Z" class="fill" data-original-prefix="fill"/><path id="shading-ear-rt" fill="#aaaaaa" d="M1670.9 280.1c2.8 3.9-18.7 26.3-21.9 30.5-38.8 50.2-75.5 128.6-72.1 193 .8 14.1 7.3 33 2.8 45.7-3.7 10.4-14 27.3-15.4 37.7-.4 2.9.9 5.2.6 8 10-1.2 15.8-10.8 21.2-18.3 17.3-24.1 30.1-53.1 43.5-79.5 1.1-2.2 1.5-2.2 1.2.2-.8 9.2-6.8 26.8-9.7 36.3-15.4 50.2-37.8 100.7-66.2 144.8-15.3 23.7-22.2 32.4-46.1 47.9-25.3 16.4-36 17.1-63.9 25.1-14.1 4.1-56 16.5-65.5 25.5-11.9 11.1-30.7 52.3-40.3 68.7-13.5 23-27.7 45.9-43.8 67.2-3.6 4.8-10.5 10.9-13.3 15.7-5.6 10-6.8 27-11.1 37.9 7.3-4.2 14.2-10.7 20.5-16.5 12.8-11.9 26.4-25.8 38.5-38.5 12.3-12.9 33.6-33.7 41.2-48.8 7.8-15.6 13.6-33 21.3-48.7 14.9-4.8 30.4-7.3 45.1-12.9 49.9-18.9 92.7-57.3 134-90 1.4-.3 1.9 0 1.5 1.5-.9 3.2-10.1 20.8-12.2 23.8-4.2 6-36.3 28.6-44.5 34.5-29 20.7-59.7 39.2-87.9 61.1-15.7 27-28.8 55.8-43.5 83.5l-80 71c-6.2 2.7-28.5-4.8-35.8-7.2-32.1-10.8-54.1-27.3-79.9-48.6-8.9-15.6-7.9-22.5 2.7-36.2 24.9-31.8 50.6-57.8 73.4-92.6 33.1-50.5 54.8-106.4 86.2-157.8 11.1-18.2 27.9-36.1 31.3-57.7 1.4-9.1 1-19.2 1.1-28.4l54 6.5c10.6 14.3 17.8 31 26.5 46.5.8-.4 10.6-11.5 11.3-12.7 4.2-7.8 8.8-30.6 10.8-40.2 5-24.6 7-49.5 8.5-74.5 1.9-20.4-5.1-39.9 3.1-58.9 17.4-40.4 50.1-78.2 81-109l66.7-44.4c3.2-.7 24.4 7.8 25.2 8.9Z" class="outline shading" data-original-prefix="shading" opacity="0.5" style="opacity: 0.5"/><path id="outline-ear-rt2" fill="#000000" d="m1695 240-22 38.5-26.1 18.2c-.8 3.6 6.6 23.8 8.6 28.3 1.6 3.6 9 14.4 9.3 15.8.5 2.3-2.4 5.9-3.8 7.7-2 2.6-31.5 31.6-33 29.5-2.1-6.5 4.9-10.6 6.4-15 1.1-3.1-.9-32-1.6-37.4-.1-1-.6-4.4-2.4-3.6s-12.5 12.2-14.5 14.5c-2.7 3.2-19.7 25.9-19.7 28l24.3 37.6c4.3.9 8.3-6.7 11.4-9.6 4.5-4.2 25.3-22.8 29.6-23.4 3-.5 6.4.2 9.4 0 .9.8-4.4 6.8-4.8 8.7-1.8 8.2-2.5 22.9-3.2 31.8-2.2 27.4-1.5 53.7-1 80.9.1 6.7 1 20.1-2.6 25.5-12.9 9.5-26.3 18.3-39.4 27.6-2.1 1.5-5 6.6-7.6 3.4-2.2-2.8-5.1-21-5.5-25.5-.2-2.3-1.1-11-.6-12.5.7-2.4 4.7-6.5 6.1-9 .9 1.7 2.3 8.5 4.9 8 .8-.2 12.4-10.6 12.6-11.5l1-83.5c-1.7-.4-2 .5-3 1.5-5.3 5.5-14.9 19.2-20.1 22.9-.9.7-10.5 4-10.9 3.6 0-4.8-3.8-10-6.6-13.9-1.8-2.5-24.8-30.3-26.4-29.1-8.2 17.3-13.6 35.5-17 54.4 5.5 4.7 46.2 18.4 47.8 21.3 2.8 4.9.8 11.9 1.1 16.8 2.2 30.3 7.3 60 13.4 89.7 1 4.8 7.8 30.4 6.5 32.6-.7 1.3-13.1 7.8-15.7 9.8-8.8 6.6-14.2 15.2-18.9 25-6.4 13.5-5.6 24.2-18.8 33.2-2.7 1.8-24.4 14.1-25.9 14.2-1.7.1-14.9-5.3-15.4-6-.6-1 0-2.5 1-3.5 2.5-2.6 16-7.1 16.1-10l-18.1-62.5c-1.9 8.1-4.6 15.9-6.5 24-3.1 12.9-4.5 28.7-8.2 40.8-1.7 5.5-8 7.6-11.3 12.7 5.4 4.5 17 9.4 21.4 14.4 3.1 3.5-4.4 5.2-6.3 6.6-30 22.8-47.7 53.1-72.6 79.5-3.3 3.5-12.5 8.7-13.6 10.4-1.7 2.7 0 5.7-1.8 8.2-.8 1.1-17 9.8-19.7 11.3-3.2 1.7-24.5 12.2-25.9 12.1-1.3 0-1.7-.6-2.4-1.5 2.9-4.7 2.3-11.4 1.9-16.8-1.9-22.1-9.7-52-14.9-74.1-.4-1.5.7-1.8-2-1.5l-39 100.5 39.7-29.4c.8-.2 13.8 5.3 14.3 5.9 1.9 2.1-3.2 2.3-4.1 3.6s-1.2 5.3-1.6 7.1c-3.7 18.6-4.5 39.3-5.3 58.2 8.7-6.8 17.8-12.7 27.5-18 .8 1.7.9 5.7.3 7.3-.4 1.3-11.9 10-13.9 12.1-4.5 4.7-8.8 12.6-13.4 16.5-2.8 2.3-17.5 11-20.8 12.2-7.5 2.8-6.9-8.9-6.8-13.8.3-10.5 1.1-21.5 2-32 .9-9.8 3.1-19.7 3.5-29.5l-23.5 18.5-1 2 16.6 62.5c-13.1 9.4-27 17.3-42.6 22-.7-5.5 7-4.9 6.9-10.3 0-5.4-5.8-22.1-7.7-28.4-4.1-13.9-8.8-27.7-13.8-41.2-9.1 16-17.5 33.8-22.4 51.6-2.8 10-5.6 21.2-3.8 31.7.6 3.8 4.1 8.9 4.8 12.2.3 1.5 0 1.8-1.5 1.5-3.8-.7-25.2-18.5-26.7-22.3-.8-1.8-.9-3.3-.8-5.2.1-5.6 1.3-20.7 2.3-25.8.8-3.8 25.3-35.9 29.8-43.2 29.6-48.1 48-108.9 82.2-153.8 11.1-14.6 22.6-22.7 31-41 8.4-18.1 20.8-75.1 17.6-94-.7-3.8-10.8-27.6-9.8-28.7 13.4 6.2 26.8 13.4 39.3 21.2 3.9 2.5 14.9 8.7 17.2 11.8 3 4 10.2 28.6 12 35 2.4 8.5 6.3 34.7 11.4 39.5 12.7 12 29.6-12.1 35.2-21.9 27.1-47.2 34.2-98.5 26.7-152-1.3-9.2-7-27.1-6.7-35.2.2-6 16.5-39.2 20.3-46.5 22.2-41.8 45.9-63.9 79.1-95.9 9.7-9.4 21.4-23.7 31.6-31.4 6.4-4.9 14.6-7.2 21.2-11.8 3.7-2.5 26.5-23.7 29.7-20.8Zm-93 184c1.3 1 7.3-6 5.5-7.9-3.3-5-29.7-37.9-33-37.1-1.8 2.2-4.6 4.9-3.1 8 10.8 11.4 23.2 23.2 30.5 37Zm44.8 62.8c1.1-2 0-37.3.2-43.3l5-55.5c-3.2 3.8-11.4 10.8-12.1 15.4-2.2 16.5.4 41.4 0 59.1 0 2.4-1 4.5-1.1 6.9-.2 7.5.2 15 0 22.5 1.2-1.1 7.4-4.6 7.8-5.2ZM1544 478v24.5c0 3.7 3.5 16 5 20 1.3 3.7 6.8 12.2 7 14.1.8 5.4-7.7 8.8-5.9 14.8 6.5 26.2 9.3 53.3 18.9 78.6.6.5 5.1-6.5 6-7.5 2.6-2.9 10-8.1 10.1-11-8.1-39.8-12.3-80.3-12.1-120.9-8.7-6.1-18.6-10.9-29-12.7Zm-7 93c-2.3-.4-1.6.1-2.2 1.3-2.2 3.9-7 16-6.7 20.1 7.7 21.5 10.8 48.2 19 69.1.4 1 .4 2.4 1.9 2.5.6-4.7 8.2-12.2 7.8-16.2-10.5-24.4-15.3-50.7-19.8-76.8m-138 123 3-1.5c7.8-13.2 23-26.8 30.5-39.5 1.9-3.3 1.9-4 .8-7.7-2.6-8.4-16.5-31.1-27.6-24.2-6.7 4.2-11.6 26-14.3 33.5l7.7 39.4Zm23 42c2.5-5.8 6-11.2 8.5-17 5.2-12.3 10-26.5 8-40-11.9 16-22.9 32.6-33.2 49.6 3 18.6 6.8 37.2 11.7 55.4 23.6-19.1 43.3-42.3 62.8-65.3-1.4-2.2-5.7-10.8-8.2-10.5-5.3 3.7-47.2 30.1-49.7 27.9Zm-21.2 78.9-21.3-102.8c-2.5 3.4-10.4 8.3-10.6 12.4 4.4 27.5 14.2 55.5 17 83.1.2 2.4-1.2 15.2 2 14 3.6-1.3 8.5-5.9 12.9-6.7m-79.3-28.9v1c.7-.3.7-.7 0-1m-.5 2c-2.1-.5-2.3 1.1-3.2 2.3-2.4 3.1-5 7.4-7.2 10.8-1.8 2.8-12.3 19.2-10.6 20.9l5.9 1zm-14 142c2.4.4 4.4-.5 3.8-3.2l-24.3-82.8c-2.4 2.1-3 5.2-2.3 8.2 8.1 25.7 18.2 51.2 22.8 77.8" class="outline" data-original-prefix="outline"/><path id="outline-ear-rt1" fill="#000000" d="M1204 941c-4.4-.4-9.8-3.6-13.7-5.8-20.9-12-28.2-35-42.8-53.2-1.1-2.6-.7-7.5-.5-10.5.9-20.4 13.5-35.9 21.8-54.2 6-13.1 11.8-33.9 18.9-45 2.6-4 7.1-7.8 10-12 45.7-65.6 39.8-168 48.8-244.2 35.7-51.4 72.9-101.7 114.9-148.1 13.5-14.9 32.5-37.2 47.6-49.4 43.2-34.6 113.6-72.6 164.2-95.8 39.4-18.1 93.7-41 135.7-50.3 4.3-1 18.4-4.8 21.4-2.6 1.3.9 4.2 14.2 4.5 16.7 4.6 32.3.3 83.6-2.9 116.9-.9 9.4-3.1 31.6-6.5 39.5s-15.6 18.9-20 29c-9.8 22.5-20.5 85.6-16.1 109 2.2 11.6 6.5 11.2 4.1 25-11.5 64.2-42.8 133.8-77.1 188.9-32.9 52.8-80.7 93.9-134.8 124.2-18.8 10.5-28.8 10.7-42.1 29.9-15.2 21.8-20.8 40.5-31.1 63.9-5.5 12.6-19.7 19.4-29.9 28-7.3 6.2-13 13.2-19.5 19.5-6 5.7-26.7 27.8-31.5 30.5-2.3 1.4-20.6 4.8-23.6 4.5-10.9-1-38.2-12.2-49-17.1-3.9-1.8-12.1-5.3-13-9.5 25.5 10.4 46.2 11.5 70.3-2.2 26.5-15 64-49.9 79.7-75.5 5.8-9.5 22.9-46.4 24.6-56.2 1.1-6.9-2.7-5.6 5.1-11.8 33.2-26.6 76.4-40 110.3-69.7 69.6-60.8 114.1-151.8 132.5-241.5 3.7-18 2.5-30 3.4-47.5 1.9-35.7 9.5-78.4 22-112 6.8-18.1 16.8-28.7 20.7-48.3 2.5-12.5 4.6-27.1 6.2-39.9 3.1-25.3 4.5-50.9 2.1-76.4-42 13.5-81.8 33.1-120.7 53.8-46.8 25-95.6 54.9-139.9 84.1-51.1 33.7-90.6 69.4-129.4 116.5-21 25.5-42.6 53.1-60.3 80.7-13.9 63.2-10.7 129.3-22.2 192.8-13.1 26.3-23.4 54.1-36.6 80.4-5.6 11.1-14.2 23.2-19.1 33.9-2.8 6.3-15 38-15.7 43.3-3.2 23.6 13.3 50.9 28.9 67.4Z" class="outline" data-original-prefix="outline"/>
    </g><g class="trait-group" data-category="left ear" id="left ear-battle scars">
      <path id="fill-ear-lft" fill="#ffffff" d="M858.7 928.7c-3.7 4.2-14.8 12.9-19.8 16.7-14.6 11.5-32.7 23.6-49.5 31.5-5 2.3-21.9 9.8-26.4 8.7l-60.9-28.2c-24.2-30-45-62.9-68.1-93.9L621.5 828l-113.4-70.7-69.5-84.5-40.8-83.2c-.7-1.3-1-2.7-.8-4.2.9-6.5 16.1-17.9 19.8-24.3 2.3-12.4-1-25.8 3.4-37.7l34.9-31.1c1.7-2.2-3.1-10-6.6-9.6l-68.2 12-2.4-.4-46.8-181.2-8.1-119.8c.2-1.5 11.5-11.4 13-12.1 1.8-.8 4 .7 5.6 1.4 44.7 17.6 88.7 43.3 133.3 61.6l144.9 87.1c34.7 38.2 77.4 72.2 111.6 110.4 19.4 21.7 36.1 47.5 55.3 69.6 7.9 62.9 12.3 126.4 19.6 189.4l79.4 176.7c.6 2.9-1.4 5.4-2.7 7.9-4.2 8.6-19.1 36.9-24.5 43Z" class="fill" data-original-prefix="fill"/><path id="shading-ear-lft" fill="#aaaaaa" d="M594.1 547.9c22-5.9 44.3-10.2 66.9-13.5 7.1-9 19.6-17 26.6-25.4 5.8-7 6.8-15.9 18.9-7l23.5 42.5c4.3 2.7 21.4 14.9 25.3 14.3 2.1-.3 13.8-7.8 16.5-9.6 2.4-1.6 12.1-10 12.9-10.2 2.8-.5 4.1 5.4 4.4 7.4.8 6.7.3 15.6.6 22.6-1 2.9-8.3 5.5-11.3 7.7-.7.5-1.7-.2-1.2 1.7.2.6 8.7 9.2 9.5 9.6 1.5 1 3-.3 3.4 0s4.2 6.9 4.7 7.9c2.1 4.3 1.7 8-2.2 11l-91-69.8-1.5 2c-.6.4-1.6-1.7-2.5-1.7-2 0-27.4 24.3-30 27.7-2.9 3.7-4.2 7.6-5.5 12 2 .4 2.7-.5 4-1.4 5.7-4.2 10.8-12.5 16.9-16.5.5 2-1.8 2.4-1.8 4.3 0 3.2 4 15.7 5.1 19.9C712 681.5 760 779.2 824 857.7c8 9.7 37.9 40.7 40.3 49.7.9 3.3.4 13.9-.5 17.1-1.2 4.2-33.7 28.5-39.5 32.5-15.2 10.4-31.3 19.8-48.8 26l-39.5-7.4c-25.7-24.5-53.6-47.2-79.1-71.9-3-2.9-8.2-7.4-10.4-10.6-5.3-7.6-11.7-45.5-15.1-57.9-.6-2.2 1.2-3.9-1.4-6.6l-105.6-62.4-.5-6c29.4 9.8 56.5 27.9 84.6 39.8 13.2 5.6 27.2 8.1 40.9 12.1 2.3-6.6-5.6-44.9-9.5-47.5-35.8-2-69.1-17.3-99-36-25.8-16.2-32.8-24.5-49.1-49.9-16.6-25.8-31.6-54.3-43.5-82.5-3.2-7.5-12.3-27.3-11.3-34.2.8-5.2 5-11.1 4.8-16.8 2.3-.5 1.6.3 2.2 1.3 7.3 11.3 21.5 41.5 33.5 46.4 6.6 2.7 6-2.2 4.7-7.7-3.4-14.8-17.2-33.6-16.5-47.5.2-3.3 3.8-28 4.6-29.4 7.8-6.3 20.9-9.5 22.2-20.8.6-15.9-2.7-35.1-.8-50.8.4-3.5 3-5.9 3.1-9 0-3.6-3.2-7.7-3-11.5-1-.9-6.3 4.4-7 5.5-3.5 5.3-1 7.1-1 12 .2 15.8-.4 31.6.8 47.4-5.4.6-21.8 15.6-24.5 16.1-2.6.4-7.5-13.8-10.7-13.8l-59.2 11.8h-11.4c1-3.7-3.3-10.3.7-12.7l69.4-19.6 9-38c-12.9-38.6-33.1-79.6-58.1-112-12.6-16.3-30.2-31-33.9-52.4 3.3-.7 9-4.4 12.2-3.9 2 .3 6.5 4.6 9 6 23.8 13.1 49 29 71 45 38.5 28.1 75.4 83.9 100.1 124.9 9.4 15.6 9.7 19.1 11.6 37.4 2.6 24.6 1.1 32.6 12.2 55.8 3.7 7.7 8.6 14.7 12 22.6ZM719 776c-.4-2.2-3.5-6.6-5.5-7-3.7-.7-16.9 1-19.6 3.5-2.4 2.3-5.9 14.8-7.2 18.8-2.2 7-10.2 31.5-8.5 37.1.6 2.1 4.7 4.7 4.8 7.7l4-6.5 26.5 40.5 4.1-8-26.6-47.6 10.5-38.4H719Zm57 190c-3.3-10-4.9-26.8-9.8-35.7-2.6-4.8-10.8-12.4-14.6-17.4s-9.2-10-8.4-16.1c2.2-15.5 15.7-28.9 22.6-42.5l-6.3-13.3c-1.7.8-16.6 29.2-18.7 33.3-5.5 10.9-16.8 32.7-17.8 44.2-1 12.1.9 25.6 0 37.8l6 3.7 5.5-32zm-103-56 9-49.7-4-9.3c-1.6 0-1.6 3.4-1.8 4.7-1.3 7-1.2 14.9-2.4 21.6-1.4 7.7-5.3 16.6-7.4 24.3 0 1.3 5 10.2 6.6 8.5Z" class="outline shading" data-original-prefix="shading" opacity="0.5" style="opacity: 0.5"/><path id="outline-ear-lft" fill="#000000" d="M844 942c15.6-14.5 32.6-45.7 29.9-67.4-8.3-32.4-25.5-58.9-39.8-88.2-9.5-19.6-31.9-63.6-35-83-3.6-22.2-3.2-46.4-5.1-68.9-.9-9.9-2.5-19.8-3.2-29.8-6.3-5.3-13.4-13.5-21.5-15.5-13.1-3.2-22-2.3-35.1-8.9-19.6-9.8-27.8-25.2-36.6-44.3-10.1 11.4-33.8 25-36.3 40.7-3 19.5 8.4 73.2 16.6 91.9 4.8 11 12.6 21.6 20.2 30.8 48 58.3 66.6 127.3 109.2 188.8 3.4 5 10.1 11.7 12.7 16.3 2.1 3.9 4.1 24.3 4.2 29.8.2 6.4-4.7 10-9.1 14-2.2 2-18.3 15.1-20 13.5.9-5 4-9.7 4.7-14.8 1.7-11.6-1.8-24.2-5.2-35.2-7.9-25.5-21.5-49.2-35-72-1.8 0-16 28-18 32-6.6 13.1-18.4 35.3-19.5 49.5-.9 11.2.6 23.6.2 34.9.6 1.8 15.1 10.8 17.8 12.2 17.1 8.9 28 10.8 47.2 6.2 6.9-1.7 12.8-5.3 19.8-5.7-3.3 5.3-7 6.8-13 9.5-22.4 10.2-58.6 26.5-79.5 6.5-14.3-13.6-27.5-29.5-42.4-42.6-12-10.6-25.8-15.8-32.5-31.5-10.8-25.3-24-65.5-48.8-80.2-12-7-24.9-12.3-37.2-19.8-81.4-50-124-108-162.7-194.3-1.9-4.2-11.8-25.8-11.8-28.2 0-2.2 13.4-12.5 16-15 2.7-2.6 11.5-10.6 12.9-13.1 2.3-4.3 4.9-27 5.1-32.9.1-2.2-1.6-4.2-.9-6.8 1.1-4 16.2-13.1 18.8-17.7-24.9 3.4-48.8 10.4-72 20-1-7.2-5-16.4-5.1-23.5s5.4-15.4 6.1-24c1.3-16.7-1.4-39.1-4.3-55.8-3.8-21.6-9.2-45.2-21.9-63.1-2.7-3.8-8.9-9.4-10.3-12.7-6.4-15-6.2-46.8-7.5-63.5-2.2-29.9-8.2-77.3.5-105.5 1.8-5.8 2.2-6.4 8.7-5.7 12.1 1.1 31.8 7.4 43.8 11.3 83.1 27.2 164 67.2 237 115 21.8 14.3 36.8 25 55.1 43.9 52.6 54.4 98.4 114.5 141.4 176.6 2.3 4.6 2.2 21.8 2.6 28.4 3.6 65.9 7.8 160.8 46.2 215.8 2.9 4.1 7.4 7.9 10 12 6.8 10.6 12 30 17.6 42.4 9.2 20.5 21 34.3 22.2 57.8.2 3.2.5 7.5-.5 10.5-13.8 17.6-24.1 41.8-43.8 53.2-3.7 2.2-8.4 5.1-12.7 5.8ZM702.8 512.2c.5.6 4.5 11.7 6.1 14.4 7 12.8 14.2 25.5 27.2 32.8 3.5 2 12 6.2 15.6 6.5 4.3.3 17.8-8.4 23-10.8 3.5-1.6 7.3-2.7 11-4.1-1.8-14.4-3.9-27.9-12.2-40-21.1-30.9-52.7-69.2-77.9-97.1-58.5-64.7-137.8-110.4-212.8-153.2-45-25.7-91.8-52.4-141.2-68.8-1.9-.6-10.6-3.9-11.5-3-2.9 37.8.8 78 8.3 115.2 4 19.6 13.9 30.2 20.7 48.3 8.5 22.4 17.3 59.3 20 83 2.1 18.7 1.2 37.8 3 56.5 16.7-2.5 33.1-6.7 49.8-9.7 8-1.4 18.2-1.6 25.6-3.4 6.1-1.4 6.8-5.9 8.1-10.9 4.5-17.3 3.6-35.6 5.7-53.3 1.6-4.2 14.7-9.6 14.8-13.2 0-3-13.9-27.1-16.6-31.5-23.5-38.4-55.2-67.1-93-91L354 241.3c-.2-1.5 0-1.7 1.5-1.5 6.7 1 18.7 13.8 24 18 7.9 6.3 17.8 9.2 26 15 53.7 51.2 107.7 99.8 130.4 173.4-15.6 64.6-13.8 128.7 20 187.2 5.6 9.7 23.2 34.9 35.7 21.4 4.4-4.7 7.8-28.3 10-36 3.6-12.6 8.4-25 12.5-37.5 17-13.2 37.3-24 53-39 7.3-6.9 22.3-30.1 30.8-31.3 1.4-.2 4.1 0 5 1.1ZM492 414c-12.8 5.3-8.1 15.2-8 25.5.3 13.3-.8 26.7.8 39.9-21.4 13.6-40.7 29.6-58.8 47.3-2.1 3.3-1.5 24.1-2.1 29.9-1.2 11.2-11.1 18.3-19 25.2 9.9 37 29.1 70.7 51.2 101.6 22.3 31.2 49.9 64.5 81.5 86.5 17.3 12 36.6 20.7 54.6 31.4 8.3 4.9 32.2 18.5 37.7 24.3 4.6 4.8 1.7 5.4 2.4 9.5s5.9 15.5 7.8 20.2c3.3 8.4 7 16.7 11.2 24.8 2.7-4.7 5.1-10.5 6.2-15.8 4-19.5 4.9-44.9 2.1-64.6-1.7-11.9-5-23.5-7.9-35.1.2-2.4 6.1-6.7 8-9 7.9-9.9 13.8-21.5 19-33 0-3.4-13.8-12.7-14.5-15.4-1.5-5.3 0-13.7-.4-19.6-1.1-13.7-9.6-50.9-17.2-61.8-11.8-17.2-26.5 9.3-31 19.7-9.3 21.4-7.6 46.3.4 67.9 2.9 7.9 7.3 15.2 10.8 22.7-1.4 1.3-15.2-6.5-17.7-7.8-15.2-8.2-32.4-19.3-45.8-30.2-4.2-3.4-15.7-12.9-18.4-16.6-3-4-9.1-42.7-11.4-51.6-8.6-32.6-20.5-64.9-41.6-91.5-.3-1.7 5.1-9.4 6.3-12.3 14.2-33 3.6-78.9-6.5-112Zm298 177c-1.2-2.4-1.8-28.5-3.5-28l-15.5 9.5c1.2 2.6 13.2 14.9 16 17 1 .8 1.3 1.9 3 1.5m-83 168c.2-1.4 0-2.6-.5-4S694 738.9 693 738.4c-2-1-7.1 5-8.5 6.5-14.2 16.1-18.4 33-13.5 54 2.6.3 1.6 0 2-1.5 2.5-8.6 4.9-28.8 9.9-35.1 3.2-4 18.5-2.4 24-3.5Zm4.8 9.2c-5.4.2-17 .9-19.7 5.4-3.1 5.1-13 38.5-13.9 45.1-.4 3-.8 8.6.3 11.2l33.6 50.4 3.3 2.7 36.5-56.5c.2-4.3-21.2-36.1-25.1-41.8-2-2.8-10.6-16-12.5-16.5-1-.3-1.6 0-2.4 0ZM708 946l-1.7-42.8c-7.9-17.7-17.7-36.5-28.1-52.9-.6-.9-.9-2.2-2.2-2.3-1.2 18.6-3.3 37.2-10.8 54.3 2.6 3.7 4.8 7.8 7.8 11.2 6.1 7 24.9 25.5 32 31 1 .8 1.3 1.9 3 1.5" class="outline" data-original-prefix="outline"/>
    </g><g class="trait-group" data-category="head" id="head-rocker-hat">
      <path id="fill-head" fill="#ffffff" d="M1479 1181c-1.4 1.6 9 18 10.5 21 3.6 7 12.4 22.2 14 29 .7 3 .5 6 .5 9-2.7 0-5.4.5-8-.5-4.8-1.9-21.6-15.1-26.9-19.1-7.9-5.9-23.4-21.4-31.2-24.8-1.3-.6-2.5-.7-3.9-.5 8.3 32.3 19.6 64.1 31 95.5 21.7 60.1 41 115.2 78.2 167.8 5.9 8.3 16.7 17 15.8 27.7-8.5.9-16.7-3.7-24.4-7.1-9.6-4.3-19.7-11.1-28.9-15.1-1.2-.5-2.3-1.1-3.7-.8 8.1 21.2 19.5 39.8 22.9 62.6 3 20.1 2.8 40.7 4.1 60.9 2.7 39.8 5.6 79.6 6 119.5l-7.1-.6c-10.9-25.4-21.8-50.9-34-75.7-11.6-23.7-23.7-48.3-39.9-69.1l-21-23.5 5 54.4c1.7 44.5-1.8 66.9-18.6 107.5-16.6 40-38.3 82.9-58.9 121.1-1.4 2.5-9.6 17.9-10.5 18.5-1.8 1.1-4.9.3-7 .5-.6-17.2 1.2-34.3 1.1-51.6-.3-45.6-3.2-92.7-12.5-137.5l-3.5-11c-3 27.8-7.2 55.7-13.5 83-6.6 28.7-12 43.5-30.1 66.9-13.3 17.2-36.3 42.3-52.9 56.1-3.1 2.6-21.7 15.8-24.4 16.6-2.3.7-4.7.5-7.1.5-1.8-1.8 5.1-37.9 5.9-43.7 4-30.8 8.8-86.1-4.7-114-1.6-3.4-4.5-7.2-6.7-10.3-3.6 20.9-5.7 37.6-17.1 55.9-23.8 38.1-64.8 67.2-99.8 94.2l-7.6.9c-.2-16.6 3-33-3.6-48.9l-42.9-46.1-42.3 46.7c-6 15.8-3.1 31.8-3.2 48.3h-3.5c-4.4-.2-17-10.3-21.4-13.6-28.8-21.5-78-63.5-90.8-97.2-4.8-12.7-5.9-27-8.2-40.3-2.6 2.3-5.3 6.6-6.8 9.7-13.9 27.9-9 83.7-5 114.7.7 5.7 7.7 41.9 5.9 43.7-3.2.3-5.4 0-8.3-1.2-20.7-8.8-61.6-53.3-76-71.9-18.1-23.3-23.5-38.2-30.1-66.9-6.3-27.3-10.5-55.2-13.5-83l-3.5 11c-9.3 44.7-12.2 91.8-12.5 137.5 0 17.2 1.6 34.3 1 51.6-2.5-.2-5.5.8-7.5-1-19.2-36.6-39.1-73.1-56.3-110.7-12.5-27.3-29.4-62.8-31.2-92.8-1.9-32.1 1.9-65.7 5-97.5l-21 23.5c-16.2 20.8-28.3 45.4-39.9 69.1-12.2 24.8-23.2 50.3-34 75.7l-7.1.6 2-67.5c4.5-37 2.6-76.2 8.1-112.9 3.4-22.8 14.8-41.4 22.9-62.6-1.4-.3-2.5.2-3.7.8-9.3 4-19.3 10.8-28.9 15.1-7.7 3.4-15.8 8-24.4 7.1 0-2.1-.3-4.2.2-6.3 1-4.2 27.3-37.9 32.2-45.8 28.4-45.5 48.6-106.4 66.6-157.4 9.5-26.8 19.1-53.9 26-81.5-2.2-.4-3.4.4-5.2 1.3-9.1 4.9-20.6 17-29.4 23.6-4.8 3.6-25.9 19.2-30 20-1.7.3-3.7 0-5.5 0-.9-5.8.8-9.6 2.8-14.7 3.4-8.5 9.3-19 13.7-27.3 1.3-2.5 9.9-15.4 8.5-17-46-14.2-91.3-31.7-134.4-53.2-37.6-18.7-78.1-46.9-112-72-19.6-14.6-40.6-31.4-47-56-2.5-9.7.1-7.9 2.1-15.5s.4-12.5 7.7-19.3c26-24.1 118-17.8 153-17 57.1 1.4 112.8 4.5 170 1 7.6-.5 18.8-.7 26-2 2.5-.5 3.7-2.3 4.5-4.5 2.4-6.9 4.5-40.2 6.2-42.2 6.3-.6 11.4-4.5 16.8-6.7 4.7-1.8 13.5-1.7 15.7-7.3 18.1-80 40.5-159.4 69.9-236l40.3-28.9c6.6.8 12.9 2.9 19.5 3.6 24 2.5 52.3 2.1 77 3 115.7 4.6 228.4 3.6 344.1-3 4.3-.2 8.6.3 12.9 0s15-3.9 17.2-3.8c2.4 0 36.3 24.3 39.5 27.4 5.3 5.3 14.2 33 17.2 41.8 22.3 63.7 39.5 130.3 55 196 2.6 5.8 11.5 5.6 16.5 7.5 4.8 1.9 10.6 5.4 15.7 7.3 4.2 12.7 2.4 29.1 6.6 41.4.6 1.8 1.2 3 2.9 4 23.7 2.9 47.6 2.8 71.5 3.5 69.6 1.9 139.3-6.2 209-3 20.9 1 70.6 5.5 77 30 .7 2.6 0 5 .7 7.3 1.1 4.6 3.4 6.2 2.8 12.2-3.5 33.5-53.4 62.1-78.3 79.7-19.6 13.8-38.6 28.7-59.7 40.3-48.9 26.6-103.2 47.4-156.2 64.2Zm-733 45-3 .7c-18.6 25.8-37.7 51.7-53.1 79.7-6.8 12.4-18.1 33-20.6 46.4-3 16.2 3.2 50 6 67.5 2.1 13 6.3 25.7 6.7 38.8 7.3.6 4-.3 5.2-4.3 1.2-3.7 6.9-4.7 10.2-3.8 1.4.4 3.5 23.2 3.7 26.5.5 10.3-2.2 32 1.9 40.1.9 1.8 8.7 12 10.1 12.9 4.2 2.8 12.3 1.1 17.4 1.6 10.9 1.1 18.6 10.9 22.7 20.3 5.9 13.7 6.9 27.6 10.3 41.7 4.2 17.6 17.4 30 28 44l24 20.9c2.3-12.7.5-25.4 4-38 1.4-5 2.3-9.1 8.9-6.8 1.3.4 5.5 13.1 7.8 16.2 6.7 9.1 19.9 9.7 29.5 13.5 15.9 6.3 14.1 30.9 26.3 41.7 10.3 9.1 43.9 25.3 57.5 30.5 14.8 5.7 59.6 19.6 74.1 20 9.2.2 35.5-7.4 45.7-10.3 23.7-6.8 68.1-23.8 86.7-39.3 10.8-9 12.4-32.7 22.2-39.8 7.9-5.8 24.2-6.6 31.4-12.6 5.6-4.6 8.7-19.3 9.6-19.9.6-.4 7-.4 7.7 0 1.6 1 4.9 17.4 5.2 20.3.6 7-1.1 15.3 1 22 .3 1.1-.7 1.8 1.5 1.4 14.9-11.8 28.5-25 39.3-40.7 14.7-21.3 11-34.1 18.5-56.5 3.3-9.8 11.1-25.3 21.9-28.1 5.7-1.5 17.4.3 21.8-2.2.8-.4 10.2-12.7 10.5-13.5.8-2.4 1.4-13 1.6-16.4.7-14.5-1.2-32.7 2.2-46.8.9-3.8 4.4-3.6 8-2.5 5.4 1.6-.9 10.2 7.7 7.8.4-13.1 4.6-25.8 6.7-38.8 2.8-17.1 8.9-50.7 6.2-66.6-2.7-15.6-16.6-40.1-24.7-54.3-14.6-25.7-32.5-49.4-49.7-73.3-4.1-1.3-2.2 5.4-2.5 8.5-2.7 28.2-7 60.9-21.5 85.5-3.1 5.2-3.4 6.9-10.5 6-.2-28-.2-59.8-13.1-85.4-1.2-2.4-2.2-4.8-5.4-4.7-43.7 8-87.7 14.9-132 19.1-65.3 6.2-125.7 6.2-191 0-44.6-4.2-88.9-11.3-133-19-2.7.4-3.7 3.1-4.7 5.3-12.5 26.3-13.3 56-12.8 84.7-6.4.6-6.8.2-9.8-4.7-12.7-20.4-16.9-45.4-20.1-68.9-1.2-8.7-2.2-17.6-2.2-26.4" class="fill" data-original-prefix="fill"/><path id="fill-head1" fill="#ffffff" d="M1479 1181c-1.4 1.6 9 18 10.5 21 3.6 7 12.4 22.2 14 29 .7 3 .5 6 .5 9-2.7 0-5.4.5-8-.5-4.8-1.9-21.6-15.1-26.9-19.1-7.9-5.9-23.4-21.4-31.2-24.8-1.3-.6-2.5-.7-3.9-.5 8.3 32.3 19.6 64.1 31 95.5 21.7 60.1 41 115.2 78.2 167.8 5.9 8.3 16.7 17 15.8 27.7-8.5.9-16.7-3.7-24.4-7.1-9.6-4.3-19.7-11.1-28.9-15.1-1.2-.5-2.3-1.1-3.7-.8 8.1 21.2 19.5 39.8 22.9 62.6 3 20.1 2.8 40.7 4.1 60.9 2.7 39.8 5.6 79.6 6 119.5l-7.1-.6c-10.9-25.4-21.8-50.9-34-75.7-11.6-23.7-23.7-48.3-39.9-69.1l-21-23.5 5 54.4c1.7 44.5-1.8 66.9-18.6 107.5-16.6 40-38.3 82.9-58.9 121.1-1.4 2.5-9.6 17.9-10.5 18.5-1.8 1.1-4.9.3-7 .5-.6-17.2 1.2-34.3 1.1-51.6-.3-45.6-3.2-92.7-12.5-137.5l-3.5-11c-3 27.8-7.2 55.7-13.5 83-6.6 28.7-12 43.5-30.1 66.9-13.3 17.2-36.3 42.3-52.9 56.1-3.1 2.6-21.7 15.8-24.4 16.6-2.3.7-4.7.5-7.1.5-1.8-1.8 5.1-37.9 5.9-43.7 4-30.8 8.8-86.1-4.7-114-1.6-3.4-4.5-7.2-6.7-10.3-3.6 20.9-5.7 37.6-17.1 55.9-23.8 38.1-64.8 67.2-99.8 94.2l-7.6.9c-.2-16.6 3-33-3.6-48.9l-42.9-46.1-42.3 46.7c-6 15.8-3.1 31.8-3.2 48.3h-3.5c-4.4-.2-17-10.3-21.4-13.6-28.8-21.5-78-63.5-90.8-97.2-4.8-12.7-5.9-27-8.2-40.3-2.6 2.3-5.3 6.6-6.8 9.7-13.9 27.9-9 83.7-5 114.7.7 5.7 7.7 41.9 5.9 43.7-3.2.3-5.4 0-8.3-1.2-20.7-8.8-61.6-53.3-76-71.9-18.1-23.3-23.5-38.2-30.1-66.9-6.3-27.3-10.5-55.2-13.5-83l-3.5 11c-9.3 44.7-12.2 91.8-12.5 137.5 0 17.2 1.6 34.3 1 51.6-2.5-.2-5.5.8-7.5-1-19.2-36.6-39.1-73.1-56.3-110.7-12.5-27.3-29.4-62.8-31.2-92.8-1.9-32.1 1.9-65.7 5-97.5l-21 23.5c-16.2 20.8-28.3 45.4-39.9 69.1-12.2 24.8-23.2 50.3-34 75.7l-7.1.6 2-67.5c4.5-37 2.6-76.2 8.1-112.9 3.4-22.8 14.8-41.4 22.9-62.6-1.4-.3-2.5.2-3.7.8-9.3 4-19.3 10.8-28.9 15.1-7.7 3.4-15.8 8-24.4 7.1 0-2.1-.3-4.2.2-6.3 1-4.2 27.3-37.9 32.2-45.8 28.4-45.5 48.6-106.4 66.6-157.4 9.5-26.8 19.1-53.9 26-81.5-2.2-.4-3.4.4-5.2 1.3-9.1 4.9-20.6 17-29.4 23.6-4.8 3.6-25.9 19.2-30 20-1.7.3-3.7 0-5.5 0-.9-5.8.8-9.6 2.8-14.7 3.4-8.5 9.3-19 13.7-27.3 1.3-2.5 9.9-15.4 8.5-17-14.1-4.3-28.1-9-42.1-14 0 0 278.3 95.7 511.9 83.4 209.5-11 348.6-47.2 438.2-76.1l1.7 6.4zm-733 45-3 .7c-18.6 25.8-37.7 51.7-53.1 79.7-6.8 12.4-18.1 33-20.6 46.4-3 16.2 3.2 50 6 67.5 2.1 13 6.3 25.7 6.7 38.8 7.3.6 4-.3 5.2-4.3 1.2-3.7 6.9-4.7 10.2-3.8 1.4.4 3.5 23.2 3.7 26.5.5 10.3-2.2 32 1.9 40.1.9 1.8 8.7 12 10.1 12.9 4.2 2.8 12.3 1.1 17.4 1.6 10.9 1.1 18.6 10.9 22.7 20.3 5.9 13.7 6.9 27.6 10.3 41.7 4.2 17.6 17.4 30 28 44l24 20.9c2.3-12.7.5-25.4 4-38 1.4-5 2.3-9.1 8.9-6.8 1.3.4 5.5 13.1 7.8 16.2 6.7 9.1 19.9 9.7 29.5 13.5 15.9 6.3 14.1 30.9 26.3 41.7 10.3 9.1 43.9 25.3 57.5 30.5 14.8 5.7 59.6 19.6 74.1 20 9.2.2 35.5-7.4 45.7-10.3 23.7-6.8 68.1-23.8 86.7-39.3 10.8-9 12.4-32.7 22.2-39.8 7.9-5.8 24.2-6.6 31.4-12.6 5.6-4.6 8.7-19.3 9.6-19.9.6-.4 7-.4 7.7 0 1.6 1 4.9 17.4 5.2 20.3.6 7-1.1 15.3 1 22 .3 1.1-.7 1.8 1.5 1.4 14.9-11.8 28.5-25 39.3-40.7 14.7-21.3 11-34.1 18.5-56.5 3.3-9.8 11.1-25.3 21.9-28.1 5.7-1.5 17.4.3 21.8-2.2.8-.4 10.2-12.7 10.5-13.5.8-2.4 1.4-13 1.6-16.4.7-14.5-1.2-32.7 2.2-46.8.9-3.8 4.4-3.6 8-2.5 5.4 1.6-.9 10.2 7.7 7.8.4-13.1 4.6-25.8 6.7-38.8 2.8-17.1 8.9-50.7 6.2-66.6-2.7-15.6-16.6-40.1-24.7-54.3-14.6-25.7-32.5-49.4-49.7-73.3-4.1-1.3-2.2 5.4-2.5 8.5-2.7 28.2-7 60.9-21.5 85.5-3.1 5.2-3.4 6.9-10.5 6-.2-28-.2-59.8-13.1-85.4-1.2-2.4-2.2-4.8-5.4-4.7-43.7 8-87.7 14.9-132 19.1-65.3 6.2-125.7 6.2-191 0-44.6-4.2-88.9-11.3-133-19-2.7.4-3.7 3.1-4.7 5.3-12.5 26.3-13.3 56-12.8 84.7-6.4.6-6.8.2-9.8-4.7-12.7-20.4-16.9-45.4-20.1-68.9-1.2-8.7-2.2-17.6-2.2-26.4" class="fill" data-original-prefix="fill"/><path id="fill-head2" fill="#ffffff" d="M669.8 911.2c.4.3.8 2 1.7 2.8 195.8 157.6 494.8 165.6 694 9 2.7-2.2 12.2-11.6 14.1-11.9 2.6-.5 10-.8 11.3 1.7 1 2 3 15.8 3.2 18.8.5 7.3 1 23.1 0 30-.8 5.6-16.6 19.2-21.6 23.4-174 150.2-512.5 150.2-690 6-5.2-4.2-26.4-22.2-28-27-1.4-4.1-1.7-14.8-1.6-19.5 0-7.2 1.6-23.7 3.7-30.3.4-1.2.6-2.6 2-3 1.1-.5 10.3-.5 11.1 0Z" class="fill" data-original-prefix="fill"/><g id="shading-head" class="shading" fill="#aaaaaa" style="opacity: 0.5" opacity="0.5"><path id="shading-head2" fill="#aaaaaa" d="M637 1445.5c1.1-8.1 8.5-17.7 11-25.5 4 0 4.1 4.9 5.8 7.7 4.8 7.8 9.9 12.1 18.2 16.3-5.9-22.3-18.5-43.1-12.2-66.8 7.6-28.7 40.8-82.9 57.1-109.9 1.7-2.8 4.9-9.1 7.1-10.9 3.4-2.8 8.8-3.8 6.3 2.3-15 32.1-41.3 65.1-52.7 98.3-2.7 7.8-.5 13.2-1.6 20.4-.5 3.1-2.6 6.1-2.9 10.1-.8 8.9 2.8 14.3 3.9 22.1 1.5 10.3 1.2 29.7 5.3 38.7 3.6 7.9 14.6-4.1 17.5 4.5 2 5.8 1.7 18.7 2.4 25.6 1.1 11.2 2.1 22.7 4 33 1.6 8.5 1.4 14.3 10.5 18.5 11.2 5.2 18.5.9 27.8 13.2 18.3 24.2 16.6 60.8 40.1 86.9 9.4 10.5 18.4 14.6 28.5 22.5.9.7 1.5 2.4 2.5.5 3.2-5.8-2.6-9.3-2.6-12.5 0-4.9 4.7-3.8 5.1-5.2.5-1.5 1.2-8.1 1-9.8-.3-3.6-2.7-5.3-2-9.9.3-2.1 6.3-11.9 8.4-11.5 6.6 7.9 10.3 20.2 17.6 27.5 9.3 9.4 24.5 10.9 34 22 8.7 10.2 12.7 29.8 22.7 36.3 17.1 11.2 40.1 18.7 57.3 30.7 6.2 1.7 12.3 3.8 18.6 5.4 10.4 2.8 38.7 11 47.9 11.2 8.6.2 39.6-8.6 49.7-11.4 17.1-4.6 38.6-11 54.5-18.5 4.8-2.3 19.6-9.9 23.3-12.7 4.9-3.7 12.4-23 15.3-29.7.9-2.1.7-4.4 1.6-6.4 7.4-16.6 33.6-12 43.4-29.6 2.1-3.9 8.5-24 11.3-24.7 2-.5 8.2 9.5 8.5 11.6.7 5.3-3.3 9.3-3.8 13.1 0 .7.6 7 .8 7.2.5.5 6.5-1.2 7 3.6.5 5.6-5.2 5.2-5.9 7.1-1.2 3.3.2 8.9.4 12.4 2.4-2.7 7.1-9.4 9.9-11.1 2.7-1.6 4.9-1.1 8.5-3.5 14-9.7 31.8-33.1 38.1-48.9 6.4-16 9.5-48.2 23-58 10.2-7.3 27.8-3.6 31.7-18.3.8-3.1.8-11.6 1.7-13.3 1.6-2.7 6.8-.5 7.5-4.5 2.6-13.2-7.2-34.2-2-48 3.2-8.4 14.4.8 17.4-4.6 4-7 4.4-30.4 5.7-39.3 1-7 4.4-13.6 3.9-21.1-.3-3.9-2.5-7.6-2.9-11.1-.9-7.3 1-12.7-1.6-20.4-11.4-33.2-37.7-66.2-52.7-98.3-2.5-5.9 2.7-5.2 6.2-2.2 1.5 1.3 3.2 4.7 4.5 6.5 11 16.3 23.1 39.6 32.8 57.2 8 14.7 27.3 48.9 28.8 64.2 1.9 19.4-9.1 41.8-15 60 5.7-2.2 12.9-7.6 16.4-12.6 1.3-1.8 5.9-13.9 8.6-11.9 1.2.8 11 24.2 11 26.5v23.5c14.9-10.9 38.1-38.8 39.9-57.6.6-6-2.1-11.6-.4-17.4 3.2 2.3 6.2 10.2 8.9 12.1 2.5 1.8 7.1-.3 6.6 4.4-.3 3.1-3.8 3-4.1 4.2-2.1 9-1.5 22.2-3.1 31.7-2.7 16.3-23.5 39.8-34.4 52.6-5.2 6.1-27.4 32-32.8 34.2-1.9.8-4.9.4-5.6.9-1.1.7-5.6 20.3-7.9 24.6-1.7 3.2-16.1 19.8-18.6 19.3-6.7-10.7-9.9-25.2-17.7-35.3-.6-.8-1.6-2.6-2.8-1.7-1.4 1-6.3 28.9-7.8 33.8-6.5 21.8-18.9 35.7-33.8 52.2-13.8 15.4-28.9 29.8-43 45-2.3.4-1.4-1-1.5-2.5-.2-3.4.6-7.2-.5-10.5-8.5 9.2-18.2 17.4-29.5 23l-1-34c-12.9 3.3-25.6 7.8-37.7 13.3l-13.8 30.7c-44.8 26.2-96.8 40.5-146 57-40.7-13.1-84.2-25.8-123.1-43.8-4.7-2.2-20.6-9.5-23.4-12.6-4-4.5-8.3-21-12.4-27.6-1.2-1.9-1.7-3-3.6-4.4-3.3-2.5-29-11.5-33.7-12.4-.7 0-1.5-.4-2.2-.2.3 1.2-1 2.9-1 3.5v30.5c-11-5.3-19.9-13.7-29.5-21-1.1 2.5-.3 5.8-.5 8.5 0 1.5.8 2.9-1.5 2.5-10.4-10.6-20.9-21.1-31-32-16-17.2-34.8-35.6-43.2-57.8-5-13.3-7-27.4-10.3-41.2-1.7-1.6-7.4 8.9-8.2 10.3-4.8 8.6-7.4 18.2-12.4 26.7-3.3.7-17.7-17.5-19.6-21.3s-7-21.8-8-22.5c-.7-.5-3-.2-4.5-1-6.8-3.5-27.5-27-33.8-34.2-7.1-8.1-14.3-16.6-20.9-25.1-3.1-4.1-16.5-21.2-17.4-24.6-1.5-5.6 2.1-5.6 2.8-8.8.5-2.8.2-8.9 0-12 0-2.5-.6-12.2-1-13.8s-5.4-1.7-3.9-6c.3-1 14-12.4 15.9-14.7.9 5.5-1.2 11.1-.9 16.3 1 16.9 22.3 42.1 33.9 54.2 1.6 1.6 3.6 4.4 6 4.5.5-7.7-1.3-17.1-.3-24.5z" class="outline shading" data-original-prefix="shading" opacity="0.5" style="opacity: 0.5"/><path id="shading-head3" fill="#aaaaaa" d="M614 1535c.5 10.4 2.5 20.9 4.3 31.2 1.1 6.2 3.9 13.8 4.6 19.4 1.6 12.3.3 28.2 1.1 40.9 1.7 26.6 4.8 40.2 15.8 64.2 13.7 29.6 32.5 56.5 49.2 84.3 1.5 0 1.4-3.5 1.7-4.8 3.3-17.3 5.2-34.7 8.8-52.2 2.4-11.6 5.5-30 9.4-40.6.4-1 .6-3 2.1-1.4.4.4 2.3 9.5 3 11.5 7.6 22 18.3 41.3 28.3 62.2 23.2 18.4 47.5 35.6 73.4 50.1l2.3.2c3.4-28.8 8.9-57.8 19-85 6.7 2 11.3 7.2 18.6 7.9 1.5.2 3.7-1.2 4.2-.8 1.1.7 9.8 12.9 12.1 15.4 9.7 10.5 22.5 22.3 33.5 31.4 18.8 15.6 39.6 28.5 61.2 39.9 1.6.2 1.9-1.1 2.5-2.2 4.2-7.6 5.9-18.8 10.3-26.7l38-18-12.1 15.9c-7 2.1-4.2 3.1-6.6 7.4s-8.3 8.1-10.2 12.8c-6.5 16.2-.6 40.8.3 57.8-7.8-2.3-15.4-5-22.5-9-15.9-9-35.8-24.2-50.4-35.6-14.2-11.1-44.2-34.5-53.1-48.9-4-6.5-4.4-17-12-21.5-4.3 11.9 2.6 22.2 3.9 32.6 2.8 22 2.4 46.2 5.2 68.8 1.8 14 3.6 27.5 8.9 40.6-.9.8-17.4-7.4-19.9-8.6-10.3-5.3-29.1-13.9-37.6-20.4-11.6-8.8-25.7-24.2-36-35-17.3-18.1-33.9-37.1-48.9-57.1-9.5-3.9-9.3 2.5-10.4 9.7-4.5 29.6-4.1 60.6-6.6 90.4-31-36.4-55-78.2-75.9-121.1-17.9-36.8-41.5-90.5-40.7-131.4 0-3.8 2.5-8.3 0-11.9-1.8-2.6-7.6-2.4-9.4.5-22.8 36.4-40 75.9-60.4 113.6-3 5.6-8.4 16.1-12.3 20.7-.9 1-1 2.1-2.8 1.7l-3.5-157c1.3-2.7 5.9-2.6 8.1-1.1 1.5 1.1 5.3 14.2 5.5 16.6.4 4.6-1.5 10.5-1.1 16 .5 7.6 4.2 16.3 8.2 22.8.8 1.2 3.1 5.8 4.8 4.7 13.1-21.8 27-43.7 43-63.5 7.5-9.3 27.9-32.3 38-37 1.2-.4 1.9-.6 3.1-.4" class="outline shading" data-original-prefix="shading" opacity="0.5" style="opacity: 0.5"/><path id="shading-head4" fill="#aaaaaa" d="M677 912c-3.2 6.4-5.8 13-7.5 20-1.3 5.5-5 23.3-2.5 27.6 42.6 45.2 97.7 78.8 151.4 109.6 3.8 2.2 18.4 8.8 20.2 10.8 6.1 6.5-4.5 6.9-8.5 3.1 0 2.8.8 5.4-2.5 6-21 3.9-70.7-17.8-91.2-26.8-42.4-18.7-83.9-40.2-121.1-67.9-86.6-15.8-174.3-25-261.2-38.8l-9-2.5 30.5-2c57.7-2.3 115.4.9 173.1 0 14.1-.2 32.2-2.9 46-2.1 7.4.4 42.7 13.5 44.4 12 2.2-15.7 5.6-55.5 19.1-65.4 5.2-3.8 16.8-3.4 19.5-9.5 12.4-55.8 28.7-110.6 47.5-164.5 6.9-19.8 15.6-49.3 24.8-67.2 4.8-9.2 18.1-16.9 26.2-23.3.4 4.7-.6 9.2-1.7 13.8-6.4 26-20.2 56-28.5 82.5-14.8 46.8-33.9 107.8-37.6 156.4-.2 2.2-.5 4.2.4 6.3s14.2 13.7 17 16c30.4 25 73.7 46.2 109.8 62.2 59.9 26.6 123.9 41.5 185.8 62.2 2.3 2.7.2 4.7-2.7 5.3-97.8-5.5-193-33.1-276.3-84.3-12.8-7.9-36.2-26.8-48.3-31.7-6.1-2.4-12.8-.3-17.1-7.9Z" class="outline shading" data-original-prefix="shading" opacity="0.5" style="opacity: 0.5"/><path id="shading-head5" fill="#aaaaaa" d="M1409.1 961c1.9 1.3 37.1-11.6 44.4-12 13.8-.8 31.8 1.9 46 2.1 63.7.9 127.5-3 191 1l12.5 2c-89.6 14.6-180.1 24-269.5 40.1-45.6 32.2-97.1 59.5-149.3 79.7-14.4 5.6-34.8 13.3-50 15-5.8.6-18.7 2.8-16.2-5.7-4.7 3.1-13.4 5.2-8.5-3.1 60.6-34.3 123.5-69.2 171.6-120.4 2.2-3.8-1.2-20.6-2.4-25.7-1.8-8.1-4.3-14.4-7.7-21.8-4.5 7.4-10.6 5.6-16.7 7.8-10.1 3.7-34.4 22.9-45.4 29.6-84.7 52.2-179.5 80.8-279.3 86.3-2.9-.6-5-2.6-2.7-5.3 61.8-20.8 125.9-35.7 185.8-62.2 34.6-15.3 75.5-35.5 105.2-58.8 3.8-3 20.2-16.3 21.6-19.4s-1.9-19.5-2.6-24.3c-7.4-49.5-22.2-99.8-37.6-147.4-7.2-22.2-16.9-44.5-23.6-66.5-2.1-6.7-4.3-13.6-3.7-20.8 6.9 5.9 21.2 14.2 25.5 22 8.2 15 16.4 43.3 22.5 60.5 20 56.5 37.3 114 50.5 172.5 2.8 6.3 14.8 5.6 20 10 5.6 4.7 11.2 21.8 13 29 2.9 11.6 3.5 23.8 5.6 35.8" class="outline shading" data-original-prefix="shading" opacity="0.5" style="opacity: 0.5"/><path id="shading-head6" fill="#aaaaaa" d="M1582 1500c-16.8-.8-32-7.1-46.7-14.8-17.8-9.3-36.1-21.2-48.3-37.2 11.8 4.1 23.8 7.7 35.5 12 10.1 3.7 40.6 13.8 46.5 20.5 3 3.4 9.7 12.2 12.1 15.9.7 1.3 1.2 2 .9 3.6" class="outline shading" data-original-prefix="shading" opacity="0.5" style="opacity: 0.5"/><path id="shading-head7" fill="#aaaaaa" d="m560 1448-14.3 18.7c-1.7 1.7-21.4 17.2-22.7 17.8-2.6 1.2-5.6 0-8.3.7-7.7 1.8-17 7.9-25.5 10.5s-17.4 3.9-26.2 4.8c6.3-5 9.9-13.1 15-19 6.9-7.9 35.5-17.2 46.7-21.3s23.8-7.5 35.3-12.2" class="outline shading" data-original-prefix="shading" opacity="0.5" style="opacity: 0.5"/><path id="shading-head8" fill="#aaaaaa" d="M1518 1636c1.5 1.2 4.5-4.7 5.4-6.1 4.7-7.5 7.6-15.4 7.7-24.4 0-4.5-1.6-8.5-1.1-13.1.2-1.9 2.7-12.2 3.3-13.7 2-4.6 8.1-5.6 10.5-1.1-.2 20.9-.2 41.9-.8 62.8-.7 23.4-.7 47.7-2 71-.2 3-1.4 15.8-2.6 17.4-.9 1.2-1.2 1.3-2.5.6-1.1-.6-8.9-14.4-10.1-16.9-11.5-21.7-21.6-44.1-33.3-65.7-7.6-14.1-17.6-34.8-26.7-47.3-2.4-3.4-5.6-5.2-9.8-3.2s-1 10.5-.9 14c1.3 60.2-55.3 160.1-87.2 211.8-8.7 14.1-18.9 26.8-29.3 39.7-2.3-30.1-2-60.5-6.6-90.4-1.1-7.2-.9-13.6-10.4-9.7-15 20-31.6 39-48.9 57.1-10.3 10.8-24.4 26.1-36 35-8.5 6.5-27.3 15.1-37.6 20.4-2.5 1.3-19 9.4-19.9 8.6 5.3-13.1 7.1-26.7 8.9-40.6 2.9-22.8 2.3-47.8 5.2-69.8.7-5.5 4.4-11.9 4.9-18.1.4-4.8-.8-8.8-1-13.5-2.3-.6-1.7.5-2.3 1.3-5.4 6.9-5.9 14.2-9.7 20.2-9.1 14.6-38.7 37.7-53.1 48.9-14.6 11.4-34.5 26.6-50.4 35.6-7.1 4-14.7 6.7-22.5 9 .9-17 6.7-41.6.3-57.8-1.9-4.8-7.9-8.6-10.2-12.8s.4-5.4-6.6-7.4l-12.1-15.9 38.3 18.2c3.5 7.7 5.5 16.9 9.1 24.4.6 1.3 1.6 4.5 3.5 4.2 21.8-11.8 43.1-24.9 62.1-40.9 9.5-8.1 21-18.4 29.6-27.4 2.7-2.8 13.6-17.2 15-18.1.9-.5 3.7.6 6 .2 6.3-1.1 11-5.9 17-7.6 9.8 25.7 14.2 53.1 18.3 80.2.2 1.4.2 5.4 2.2 4.8 12.7-7 25.2-14.6 37.2-22.8 7.5-5.1 32.3-21.9 37-27.5 2.3-2.8 4.2-10.7 6.1-14.4 3.7-7 7.9-13.3 11.3-20.7 5.2-11.3 9.8-23.6 12.8-35.7 1.3-.3 1.1 1 1.5 2 4 11.3 5.7 23.5 9 35l13.5 66c4.8-9.3 13.1-17.3 18.2-26.3 10.1-17.9 20.8-43.7 29-63 9.3-21.9 15.6-35.6 16.8-60.2 1.1-22.9.7-38.3 4.7-61.3 2.1-12 4.1-24.1 5.3-36.2 1.2-1.4 18.3 12.8 20 14.5 25.4 24.1 45.1 57.3 63.9 86.7" class="outline shading" data-original-prefix="shading" opacity="0.5" style="opacity: 0.5"/><g><path d="M745 1257v.1-.2Z" class="fill" fill="#ffffff"/><path d="M1756.5 964.7c-8.2-4.6-6.2 5.1-8.2 11.2-17.3 52-123.5 116.4-171.4 141.5-88.9 46.6-187.8 65.6-285.8 84.2-109.9 20.8-220.5 41.8-332.7 31.3-72.5-6.7-146.2-20.4-217.7-34.3-122.9-23.9-220.4-46.5-327.3-114.7-42.3-26.9-102-67-116-117-.3-1.1-1.2-4.2-2.8-3.8-8.1 1.9-18 16.4-16.5 24.1.3 1.4 1.9 4.8 2.6 6.4 27.1 60.8 131.8 125.4 191.5 151.5 38.1 16.6 89.8 36.8 88.5 43.2-1.5 7.2-3.9 13.8-7.3 20.3-1.7 3.2-1.9 6.3-1 9.1-5.4 6.3-9 13.4-8.4 22.3 1.8 0 3.8.3 5.5 0 3-.5 21.1-13.3 24.9-16.1 5.6-4.1 11-8.5 16.3-13 5.5 2.2 11.1 4.2 16.7 6.1l-23.3 73c1.5-.2 1.8-1.9 2.5-3 6.8-11.4 19.7-37.2 23.5-49.5 1.8-5.8 3.1-11.9 4.3-18.2 19.3 6.2 39 11 58.8 15.2 34.1 7.1 68.5 13.1 102.7 19.6-6 11.7-10.9 23.8-11.9 36.9-1.4 1.7-6.3-7.7-6.8-8.7-4.2-8.1-6-18.2-12.1-25.2v15.2c0 13.9 19.5 53 28.6 64.4.9 1.1 6.2 8.5 7.4 7.1.8-26.8-.4-54 6.3-80.2 2.4-9.7 6.4-18.5 9.7-27.8 121.8 24.6 245.9 29.6 369.3 13.9 28.1-3.6 55.9-9.1 84-12.9 10 18.3 13.7 39.1 15.7 59.6l1.5 47.5c19.6-22.3 35.1-54 35.5-84-2-.4-2.4.9-3.2 2.3-3.7 6.2-5.2 16.7-8.6 23.4l-6.2 10.3c-1.1-14.1-5.7-27.1-11.8-39.5 52.5-9.7 104.4-22.4 155.4-38.1 1.6-.3 3.3-.6 4.9-.9 1.8 8.9 3.4 17.4 4 19.5 3.7 12.3 17.1 38.6 23.9 50.1.6 1.1 1 2.8 2.5 3l-23.7-74.1q7.2-1.8 14.1-4.5c.8-.3 1.5-.6 2.3-.9 5.5 4.5 11 9.1 16.7 13.3 4.1 3.1 18.9 14.3 22.3 15.7 2.6 1 5.3.5 8 .5.9-17.8-14.4-28.2-26.7-39.3 2.8-1.3 5.7-2.4 8.7-3.4 6.2-1.9 10.1-8.3 8.4-14.8-.9-3.2-3.2-5.9-6.2-7.5 27.6-8.3 55.6-16.5 81.8-27.6 61.6-25.9 160-86.1 192.6-145.4 1.8-3.2 7.6-13.5 7.6-16.5.3-6.3-7.9-17.6-13.4-20.7Z" class="fill" fill="#ffffff"/></g></g><path id="outline-head" fill="#000000" d="M769 677s.3 1.7 1 2.5c17.5 18.9 34.3 38.4 55.1 53.9 21.8 16.2 36 13.4 61.4 16.6 44.2 5.5 87.2 10.4 132 11 47.6.7 95.6-5.1 143-11 37.1-4.7 43.8-1.1 73.5-26.5 16.3-13.9 30.9-30 44.5-46.5 2.1-.4 1.4.8 1.8 2.2 2.1 6.9 2.2 14.3 3.7 21.3-11.7 14.4-25.8 27.8-40 40-15.1 13-18.4 15.3-38.2 19.8-106.9 24.5-246.6 23.5-354 2.4-8.3-1.6-24.4-4-31.5-7.5-4.3-2.1-13.2-10.2-17.3-13.7-14.2-12.1-28-25.6-40.5-39.5-.9-2 1.9-19.1 2.8-22.2.3-1 .8-4.4 2.7-2.8" class="outline" data-original-prefix="outline"/><path id="outline-head1" fill="#000000" d="M1780.4 984c-10-35.3-43.3-36.3-75-39-79.7-6.9-162.9 1.6-243-3l-45.4-3c-1.5-9-2.6-18.3-4.3-27.2-1.2-6.2-2-16.8-7.8-20.2-1.7-1-8.9-4.3-10.9-5.1-5.2-1.9-10.8-2.4-15.8-4.7-12.4-56.8-29.1-112.5-48.4-167.2-7-20.2-15.6-48.7-24.8-67.2-1.7-3.5-3-4.7-5.7-7.3-4-3.9-30.8-25.5-34.4-26.6-8.3-2.5-14.4 1.3-21.7 2.4-89.5 13.5-181.5 12.9-271.8 11.1-56.3-1.1-112-2.6-167.8-11.2-8-1.2-13.8-5.4-22.8-1.3-4.4 2-35.7 27.6-37.7 31.3-29.3 77-56.3 155.3-73.4 236.1-5 2.3-10.6 2.8-15.8 4.7-1.6.6-2.8 2-4.3 2.7-8.1 3.7-9.9 2-12.6 12.4-3 11.7-3.7 25.4-6.1 37.4-21.5 1.9-43 2.3-64.5 3-78.2 2.3-166.7-5.2-242.9 5.1-20.7 2.8-41.5 5.2-51.5 25.5-16.7 34 9 57.4 32.8 78.9 45.2 40.7 109.1 79.1 165.1 102.9 25.3 10.7 51.9 18.2 78 26.5.3.5-.9 3.1-2.4 6-7.6 12.4-11.9 23.3-18.9 39.4-6.7 14.7-13.1 29.6-18.8 44.7-6.8 16.9-12.7 33-11.4 34.5 1.9.4 2.4-1.1 3.5-2 6.6-5.4 12.5-13.2 19-19 17-14.9 39-32.1 57-46 2.3-1.8 8.2-7.4 8.4-3.5-5.8 18.8-11.9 37.6-18.5 56.1-.5 1.3-1 2.6-1.4 3.8-6.3 17.6-13.2 35.2-20.6 52.8-12.9 30.4-27.3 60.1-43.7 88.8-7.5 12.9-16 27.5-24.4 39.6s-17 22.5-29.8 30.2h2.1c-.8.6-1.7 1.1-2.6 1.7 25.7.4 50.6-6.2 73.6-17.3-4.7 9-11.2 17.2-14.9 26.8-.2.6-.4 1.1-.6 1.7l-.3.5c-8.2 26.1-4.2 54.3-3.8 81.2.6 36.5 1.8 72.7 3 109 .5 15.2.3 30.4 1 45.5l85-153c-4.1 30.1 5.9 59.5 16.3 87.2 24.8 66.5 61.2 132.7 107.7 186.3l2 .5v-1.8c1.2 0 .6-1.3.7-2.6 1.5-21.2 0-43.3 2-65 .9-10.9 2.8-21.6 4-32.5l1.3-8.2c10.4 16.5 24.1 31.6 37.5 46 12.4 13.2 39.4 42.9 53.5 51.5 13.4 8.2 34.1 17.6 48.7 24.3 3.2 1.5 12.1 6 14.8 6.2 1.6 0 1.8.2 1.4-1.4v-.5h.2c1.5 0-5-14.1-5.5-15.5-8.7-24.4-11.1-57.8-13-84-.6-8.3-.9-16.8-1-25.1 15.6 19.1 35.1 34.7 54.5 49.7 23.9 18.5 49.6 39.4 79.4 46.6v-1.9h.4c.7-17-3.9-34-2.6-51.2 1.3-7.5 4.3-14.5 10.6-20.5l22.5-25.5c7.5 10.8 17.8 20.1 25.5 30.5 13.2 17.9 5 41.5 4 61.9 0 2-1 6.7 1.5 6.6 4.3-.2 15.5-5.2 19.9-7.2 19.7-8.9 41.3-26.1 58.5-39.5 19.6-15.2 39.4-31 55.1-50.4-1.6 27.8-3 56.8-7.1 84.4-.2 1.4-.4 2.9-.7 4.3-1.3 6.5-2.9 12.7-4.8 18.4-2.7 6.5-6.1 13.2-7.3 18.5-.4 1.6 0 1.5 1.4 1.4 2.7-.2 11.7-4.7 14.8-6.2 14.3-6.5 43.9-19.8 55.1-28.9 25.3-20.6 48.5-51.1 71.5-74.5l14-18.5c1 14.6 3.8 29 5 43.5 1.8 21.3.5 43.2 2 64 0 1.5-.8 2.9 1.5 2.5 27-30.1 49-63.3 68-99 14.9-27.8 29.2-58.2 40.2-87.8 5.9-15.8 11.7-32.2 14.8-49 2.4-12.1 3.5-24.3 2.3-36.7l84.1 151.4v-2.5l.4.8c.8-17.1.5-34.3 1-51.5 1.1-36 2.4-71.9 3-108 .4-24.6 4.6-53.1-4.2-76.7-3.6-9.3-9.9-17.4-14.5-26.2 22.5 10.7 47 17.1 72.2 16.7-.9-.5-1.7-1.1-2.6-1.7h3.1c-12.8-7.7-21.3-18.1-29.8-30.2-8.6-12.1-17-26.6-24.4-39.6-36.6-63.8-63.3-132.7-84.7-203.1 1.3 0 2.2.9 3.3 1.6 21 13.6 40.8 36.8 62.6 50.4l22.5 21.5-.6-1.8c.2.2.4.4.6.7-12.2-43.7-32.5-84.6-52.5-125 29.9-8.7 60.2-18.1 88.7-30.8 51.5-22.9 105.9-56.6 148.8-93.2 19.4-16.5 51.9-44.8 44-72.9l.4.6ZM738 721.3c5-15.2 13.6-45.2 21-58 1.6-2.8 32.6-25.3 35.8-26.2 50 .5 99.8 3.5 149.8 4.8 102.5 2.8 204.6-1 307-5 2.7.4 33.8 21.7 36.1 24.4 2.9 3.5 10.2 25.3 12.3 31.1 10.2 28 19.1 57.9 27.5 86.5 11.6 39.4 22 79.1 30.4 119.3-44.7 35.3-96.3 62.3-149.6 82.4-71.2 26.9-150.4 42.3-226.7 34.2-104.2-11.1-208.8-53.1-291.4-116.7 12.9-59.6 28.8-118.8 47.8-176.8m-85.1 223.1c0-7.2 1.6-23.7 3.7-30.3.4-1.2.6-2.5 2-3 1.2-.4 10.4-.4 11.2 0 .4.3.8 2 1.5 2.7 195.8 157.7 494.8 165.6 694 9 2.8-2.1 12.3-11.6 14.1-11.9 2.6-.5 10-.7 11.3 1.7 1 1.9 3 15.8 3.2 18.8.6 7.3 1 23.1 0 30-.8 5.6-16.6 19.1-21.6 23.4-174 150.2-512.4 150.2-689.9 6-5.2-4.2-26.4-22.2-28-27-1.4-4.1-1.7-14.8-1.6-19.5Zm824.4 243.8c2.1 4.8 4.2 9.7 5.3 11.7 3.7 6.8 16.7 30.7 17.8 37l-25.7-17.1-27.7-22.3zm-47.4 14.3c7.4 28.2 20.2 60.7 29.5 86.6 17.3 48.4 35.7 103.9 62.6 147.4 9.8 15.9 21.4 30.5 32.3 45.6l-60.1-27.2.9 2.4-1.7-.8 23.5 54c4 22.7 6.7 46.2 8.7 69.8.2 3.3.3 6.7.6 10 .7 10.4 1.5 20.9 2.2 31.3.9 16.2 1.5 32.4 2.1 48.3.4 10.6 0 21.3.7 31.9l-24.6-54.5c-5.8-42.8-11.9-86.4-32.6-124.9-.5-.9-8-14.7-8.5-9.5 8 34.1 19.5 67.6 25.6 102.3-15.9-31.8-33.2-62.7-60.9-86.4v1.7c-.4-.3-.9-.4-1.6-.2l6 64.5c.4 15 .6 29.8-1 44.4-1.7 11.8-4.6 23.9-9.2 37.2l-5.8 13.9c-3.9-18.2-3.3-37-8.5-55l-18.6-41.9c-10-2.8-4.3 11.9-2.8 17.3 4.9 16.7 12.3 31.3 14.8 49.2 2 14.9 4.3 46.6 2.1 60.8-.4 2.6-4.7 10.8-6.1 13.9-1 2.1-2 4.3-3 6.4-15.7 32.3-33.2 64-49.2 95.7-1.8.2-1-2.3-1-3.5-1-27.5 1.1-55.4 0-83.1-1.5-37.1-4.1-91.1-17.8-125.3-.6-1.5.6-2.7-2.2-2.2v.2c0-.2 0-.4-.2-.6-4.2 39.2-8.9 79.2-19.8 117.2-1.4 4.8-3 9.5-4.9 13.9-10.3 23.7-26.8 42.4-45.1 61.7-16.1 17-33.3 32.6-53.5 44.5 3.7-22 7.8-44.2 9.5-66.5 1.8-24.3 3.1-62.1-5-85-3.2-9.1-9.2-17.9-15-25.5 0 .7-.2 1.4-.3 2.1 0-.2-.2-.3-.4-.5-1.8 11.9-2.9 24.1-5.7 35.8-1.7 7.1-4.2 13.7-7.3 19.9-9.3 17.3-25.2 35.2-41.5 50.8-1-27.8 1.1-56.6-9.5-83 9-5.8 26.3-12.1 33.5-19.6 7.2-7.4 10.3-28.5 17.1-35.9 7.6-8.2 27.3-6.3 36.4-17.6 1-1.2 1.9-3.1 2.8-5.3.4-.7.8-1.4 1.2-2.2 1-2.1 1.9-6.8 3.2-9.2 1.7-1.2 3.6 4.9 3.9 5.6 4.4 13.6 3.3 29.5 2 43.5 1.5.4 2.3-.3 3.6-.9 3.4-1.6 16-12.4 19.4-15.6 10.7-9.7 29.1-31.2 34.9-44.1.2-.5.3-1.1.5-1.7.6-1.5 1.1-3 1.6-4.7h.5c1.9.5 2.3 34.6 2.5 38.5 0 2.4 1 4.6 1.1 6.9.7 21.1-.6 42.4 0 63.5h3c.5-7.5 2.2-15 3-22.5 3-26.9 5.9-61.3 3-88-1-9.5-5.6-21.8-6-30 0-.9.6-4 1.4-6.9.7-2 1.4-3.9 2.2-5.9 1.6 0 3.2 5.9 3.5 6.7 9.2 24.5 10.8 52.6 12 78.5h3c1.7-17.3 3.2-35.1 2-52.5-1.1-16.3-6.8-32.5-7.9-48.8 6.2-7 18.3-1.5 25.6-4.4 3.1-1.3 8.9-8.8 12.1-14.8 1.5-2.6 2.7-5.3 2.9-7.6 1.8-19-2.5-39.7 2.5-58.8 9 2.5-.7 24.4.8 25.9l11.4-4.1 21.6-11.9c-2.4 24-7.3 48-14.5 71l-6.6 13.2c-1.5 2.7-3 5.3-4.3 8.1h.2l-.8 1.6c24.4-3.5 45.2-26.7 61.5-44 10.4-11 30.9-32.5 41.3-50.8 1.3-2.3 2.4-4.5 3.4-6.6 0-.3.2-.6.3-.8 0-.2.2-.5.3-.7.7-1.6 1.2-3.2 1.6-4.8 2.7-9.8 1.9-19.9-1.1-34-.9-4-1.6-6.2-2.8-8-5-20.3-13-41.5-18.7-56.5-5.3-13.9-13-35.5-20.3-47.8-.8-1.3.2-2.5-2.5-2 3 24.6 14 46.8 21.3 70.2 6.7 21.8 17.1 53.1 9.1 75.5-3.7 7.9-9.5 15.3-14.2 21.5l-2.7 3.6c-1.9 2.2-3.7 4.2-5.4 6.1 1-7.5 5.1-17 5-24.5 0-9.3-5.8-22.7-6.5-32.5l-2.5-8v38.5c0 4.5-6.8 25.6-8.7 31.3-3 8.7-6.2 16.3-10.6 23-5.4 5.6-11.1 10.8-16.9 15.6 4.8-11.5 6.9-23.5 8.8-35.7 2.1-12.9 4.7-29.9 5.2-42.8.3-5.8 1.9-15.1-6.5-12.6l-30.5 26.1c4.3-26.6 10.3-53.7 13-80.5 3.4-34.3-9.4-53.9-25.8-82.2-12.8-22-27.8-42.5-42.2-63.3l115.8-29.4zm-455.2 639.7c-9.5-7.6-19.9-14.3-29.5-21.9-7-5.5-15.2-12.2-23.6-19.8-2.3-12.7-1.9-36.4-1.2-49.5.7-13.9 5.2-27.6 3.1-41.5l26.9 12.1c2 20.4-1.1 42.1 4.6 61.9.7 2.4 3 10 5 11 1.9.9 1.5-1.6 1.5-2.5 0-3.9-1.7-8.9-2-13-1.5-17.8-.3-36 2.5-53.5 14.4 4.4 29.1 8.9 43.9 12.1 14.2 3.1 19.4 3.6 33.8.6 15.3-3.2 30.4-8.8 45.8-11.7 1.6 16.7 2.9 33.7 2 50.5-.2 4.5-1.9 9.5-2.1 13.9 0 1.4-.8 4 1.5 3.5 12.5-21.9 7-48.7 9.6-72.9 4.4.6 25.8-12.1 26.9-11.1-2.1 14.1 2.4 29 3.1 43.4.7 15.9 0 33-2.3 48.8-7.5 6.6-14.7 12.5-21.1 17.5-9.9 7.8-20.6 14.7-30.4 22.6 1.8-16.2 2.7-33-2.3-48.7-12.6-13.7-24.9-27.8-37.7-41.3-1.4-1.4-7.6-8.1-8.9-7.9L978 1794c-.2.6-.3 1.1-.5 1.7-5.1 14.9-4.3 30.8-2.8 46.3zm321.9-592.1c-1.2 9.6-2.9 18.9-4.5 26.6-3.2 15.2-8.4 31.9-17.4 44.8q-.75.9-1.5 1.5c.5-24.5-.2-49.6-8.4-72.8.2-2.6.7-5.6.8-8.4 9.3-3 22.8-3.7 32.6-5.8-.4 4.7-.9 9.4-1.4 14.1zm-48.2-5c.7 1.4 1.4 2.7 2 4.1 2.6 7.2 5.2 14.5 6.9 22 4.9 22.2 4.8 45 4.6 67.3v6.8c-.2 4.4-.4 8.8-.6 13.3 2 .5 1.9-.8 2.8-1.7 3.3-3.2 6.9-7.5 10.7-12.5 8.4-9.8 15.6-21.5 21.1-34 6.7-13.3 11.3-26.6 11.3-36.4v-2.1c.8-5.2 1.3-10.4 1.4-15.5.3.4.5 1 .8 1.4 14.5 23.1 31.6 54.4 44.2 78.8 8.9 17.2 13.7 28.5 13.7 48.4s-1 5.2-1.1 7.9c-.6 18-1.5 35.2-5.5 52.7-8.2-2.9-12.8-1.5-15.4 2.2-1 .9-1.9 2-2.6 3.5-.2 2.1-.3 4.2-.5 6.2 0 .8-.2 1.7-.3 2.6-1.5 15-3.9 29.8-5.6 44.7-.5 3.9 0 8.4-.7 12.6-4.3 11.8-14.3 7.2-26.2 13.1-6.4 3.1-11.5 10.2-15.7 18.6-8.5 16-13.7 38.3-18.6 50.5-.2.5-.4.9-.6 1.3-7.6 17.2-17.7 31-34.3 41.7v-.4c0-9.2-.8-21.3-4.3-29.8-.9-2.1-7.7-12.7-9.2-13.8-1.7-1.2-3.9-1.3-5.9-.7-.7.2-1.6 1.1-2.6 2.4-.7.7-1.7 2.2-3 4.3-5.1 8-11.7 20.7-16.1 24.6-7.6 6.7-16.2 6.9-23.7 11.3-5.3 3.1-9.7 9.8-13.7 17-4.6 7.8-7.9 15.5-14.2 22.3-17.6 16.5-72.5 38.1-92.7 44.1-7.1 2.1-23.8 7.5-30.4 7.6-7.7 0-31.1-7.5-39.6-10.2-20.6-6.7-74.9-29.1-87.6-45.4-7.3-9.3-14.6-29.7-24.5-35.5-7.5-4.4-16.1-4.6-23.7-11.3-6.1-5.4-18-30.2-21.7-31.3-4.8-1.5-9.6 4.2-12.9 10.3-1.3 2.1-2.3 4.2-2.9 5.8-3.7 9.2-2.5 19.4-5 27.7-1.9-.7-7.6-5.7-8.5-6.5-13.3-11.9-19.9-21.9-26.7-39.3s-14.9-55.9-31.9-65.1c-11.4-6.2-25.7-.9-28.2-17.8-2.1-13.9-3.4-29.6-5.1-43.9s3-30.2-19-23.5c-2.4-12.7-5-25.6-6-38.5 0-1.6-.2-3.3-.3-5 0-3.1-.2-6.1-.3-9.2 0-.8 0-1.6-.3-2.4-.2-5.8-.3-11.6 0-16.4 0-2.2.4-4.4.7-6.5 1.5-7.9 4.2-14.9 8-22.8 3.8-7.5 8.4-14.8 12.5-22.5 9.8-18.4 20-36.5 29.9-54.8 2-3.4 4.1-6.7 6-9.8.6-.9.9-2.2 2.2-2.3v18.5c0 23.4 26.6 66.5 43.2 82.8.9.9.8 2.2 2.8 1.7v-2.6h.7c-.5-24.4-1.4-50.4 2.6-75 1.9-10.7 4.7-21.4 8.8-31.7.9-1.7 2-3 3-3.2 23.4 3.3 46.6 7.8 70.1 10.9 125.4 16.5 253.8 12.6 377.8-11.7h-.1Zm-469.7 19.3c-3.9 19.7-5.1 38.1-4.4 58.1-2.9-2.5-5.1-7-6.8-10.4-3.1-6.2-5.6-12.7-7.7-19.4-2.9-15.6-5.1-40.5-6.4-55.8l27.6 5.8c-.4 7.9-.4 11.7-2.4 21.9v-.2Zm-86.9 30.9c-5.8 10.1-11.2 19.1-15.5 28-5.5 10.7-9.6 20.7-10.8 27.9-3 18 2.1 47.2 5 65.8 2.1 13.4 5.5 26.8 7.5 40.2l-29.5-25.2c-4-1.2-5.7.3-6.4 2.7-1.7 2.6-.9 7.6-.7 11.3.5 12.9 3.1 29.9 5.2 42.8 1.8 11.2 3.7 22.2 7.6 32.7-6.5-5.5-12.8-11.6-18.8-18-3.8-6.6-6.6-14-9.3-22.3-1.8-5.7-7.7-23.5-7.7-28.3v-39.5l-2.5 8c-.8 10-6.1 23-6.5 32.6-.3 7.4 3.5 16.3 4.4 23.9-2.1-2.7-4.1-5.4-6.1-8-5.7-7.6-17.6-22.8-17.6-32.4v-20.8c1.8-14 6.2-28 10.1-41 7.6-25.4 19.8-49.5 22.3-76.2l-12.5 27c-12.9 30.6-36.6 88.2-33.6 120.5 1.8 19.5 33.7 52.8 47.5 67.5 16.3 17.3 37.1 40.5 61.5 44l-.7-1.4h1.3c-2.7-6-6.6-11.3-9.2-17.3-9.7-22.4-13.1-50.4-16.5-74.6l20.7 11.4 11.4 4.1c0-.7 0-1.3-.2-2l.9.3c-.4-6.8-3.9-14-3.2-21 1.2-1.6 3.7-4.2 4.4-3.3.8.9 2.8 20.6 3 23.5.5 9.2-1.8 35.9.8 42.2.8 2 11.5 14.7 13.5 15.5 7.4 3 17.8-2.1 24.8 3.4-1.4 13.3-5.3 26.9-6.9 40-2.7 20.8-1.8 41.6.9 62.4h3c.5-19.9 2-40.6 6.5-60 1.9-8.4 4.5-19.2 9.5-26 .6 3.7 4.2 7.6 4 11.4-.2 2.2-2.8 8.3-3.5 11.5-6.6 33.2-4.7 65.9-1.5 99.5.4 4 2.8 30.4 4 31.5.2.2 2.2 0 3 0 .7-37.6-2.2-75.9 4.5-113 2.6 14.8 14.6 30.3 24.5 41.5 6.5 7.3 23.6 23.8 31.6 28.4 1.4.8 2.7 1.4 4.4 1.1 0-.8-.2-1.6-.3-2.5.3-14.6-2.1-29.6 3.2-43.6 0-.2.2-.5.3-.8.7-1.6 1.7-3.1 2.7-2.1s2.8 9.9 4.1 12.4c8.9 17.3 29.3 11.7 38.5 21 7.4 7.4 10.3 28.4 17.8 36.7 4.5 4.9 32 17.6 32.3 19.4-10.3 26-8.3 54.3-9.2 81.7-19.1-18.4-37.5-39.8-44.6-58.5-5.8-15.5-6.1-32.4-9.7-48.3-5.9 8.5-11.2 16.8-14.7 26.2-2.8 7.4-4.6 15.4-5.5 23.9-4.9 44.8 3.8 83.1 9.6 126.4v.5h-.5c-19.7-12.9-36.3-27.4-52.5-44.5-22.1-23.3-41.7-45.8-50.7-77.3-10.6-36.9-15.8-77-19.3-115.2h-1.2v-.2.2c-1.1 0-.4 1.1-.9 2.3-4 10-7 21.7-9.4 34.1-2.9 13.6-4.9 27.5-6.1 40.9-1.7 18-2.2 35.9-2.4 53.7-.4 11-.3 22.1 0 33.1 0 16 0 32.1-.5 48.2v1.9h-.4c-17.9-34.3-36.4-68.5-52.9-103.6-2.3-4.8-4.7-9.9-7.1-15.1-1.6-15.3.3-45.2 2.4-59.1 2.8-18.2 10.7-33.5 15.4-50.6 1.5-5.4 6.2-17.3-3.4-14.9l-19.2 43.3c-4.7 17.3-4.4 35.2-7.8 52.7-4-10-7.6-19.9-10.2-29.4-10.7-38.8-3.4-79.7-.9-119.4.3-3.5.7-6.9.9-10.3h-.4v-1.4c-15.3 13.1-27.4 28.3-37.9 44.8-2.7 4-5 7.8-6.9 11l-2.2 4.2c-4.7 8.2-9 16.7-13.3 25.2l-3.3 6.3 26.5-108c-3.4-.3-5.5 5.3-7 8-23 40-27.8 87.5-34.8 132.2l-23 51.2c1.2-11.8.6-23.7 1-35.5.9-26 3.3-52 5-78 1.3-20.5 1-41.5 4.1-61.9 2-13.4 6.8-25.9 12.3-38.2 3.2-7.1 6.5-14.1 9.7-21.2 2.1-4.7 4.1-9.4 6-14.2l-62.4 28.2c11.1-15.5 23-30.5 33.1-46.7 4.5-7.3 8.7-14.9 12.8-22.7q6.9-12.6 12.6-26.1c1.8-4.4 3.7-8.8 5.5-13.3 11.8-28.4 21.9-58 31.7-85.3 9.3-25.9 22.1-58.6 29.6-86.8l117 29.8c-14.4 20.8-29.5 41.3-42.2 63.3v-.2Zm-117.9-75.9L546 1238l13.1-27.1c4.7-8.8 9.3-16.8 12.6-22.4l29.3 8.5zm11 13.2v-1c.2 0 .3.2.4.3 0 .2 0 .3-.2.5 0 0-.2 0-.3.2Zm1095.4-166.7c-23.3 16.1-42.9 31.4-68.3 44.7-105.4 55.2-226.5 85.3-342.8 107.2-61.1 11.5-123.8 21.8-185.7 27.3-91 8.1-182.1-5.5-271.7-21.3-127.8-22.5-262.4-53.3-377.8-114.2-25.5-13.5-45.8-29.4-69.2-45.8-21.5-15.1-44.1-27-61.8-47.3-13.2-15.2-20.7-30.9.4-43.7 39.4-23.9 153.9-11.4 202.1-9.8 39.7 1.4 79.5 2.4 119.5 2 .4.5-.2 11.3.2 13.4 1.6 9.3 29.9 30.5 38.4 36.6 131.8 94.9 302.9 118.8 461.7 99 83.4-10.3 162.3-38.6 233.6-82.4 17.2-10.6 46.6-29.8 59.1-45 5.8-7.1 4.8-12.7 5-21.5l96.6-1c57.2-1 119.8-9.8 176.9-4 17.4 1.8 62.1 8.9 61.6 32.5-.5 25.5-58.4 59.8-77.8 73.3" class="outline" data-original-prefix="outline"/>
    </g><g class="trait-group" data-category="mouthpiece" id="mouthpiece-outlaw">
      <path id="fill-mouth" fill="#ffffff" d="M1416 1417c.2 1.4-.2 2.7-.4 4-3.4 15.2-13.8 40.9-19.5 56.5-2.8 7.7-7.8 24.3-14.1 28.9-4.8 3.5-11.3 5.3-16.4 9.6-11 9.3-23.4 41-29.7 55.3-1.7 3.7-6.9 19.1-8.3 20.7-.7.8-.8.7-1.8.7-7.4.3-25.8-6.2-31.8-1.4-4.7 3.7-7.2 14.7-9.8 20.2-9.1 19.9-18.9 42.4-29.7 61.3-7.7 13.5-11.3 12.8-22.4 21.6-29.5 23.2-58.4 50.4-86.1 75.9-41.4 38.2-81.3 78-121.6 117.4-11.3-9.3-21.2-20.7-31.8-30.9-52.9-51.4-109.8-108.8-167-154.9-12.8-10.3-23.5-14.1-32-29-10.8-18.9-20.5-41.4-29.7-61.3-2.5-5.6-5.1-16.5-9.8-20.2-6-4.8-24.4 1.6-31.8 1.4-.9 0-1.1 0-1.8-.7-1.5-1.6-6.7-17-8.3-20.7-6.3-14.3-18.7-46-29.7-55.3-5.1-4.3-11.7-6.1-16.4-9.6-6.2-4.6-11.3-21.2-14.1-28.9-7.1-19.5-12.9-39.5-20-59l.5-1.5c8.2 1.2 16.7 2.4 25 3 36.7 2.7 73.4 3.8 109.7-2.3 7.6-1.3 24-3.8 30.4-6.6 11.7-5.2 27.1-32.1 42.8-41.2 21.7-12.6 48-22.2 70.3-34.7 26.7-14.9 52.4-33.8 79.1-48.9 22.5-4.7 45.9-4.7 68.5 0 26.7 15.2 52.3 34 79.1 48.9 22.3 12.4 48.7 22 70.3 34.7 15.7 9.2 31.1 36 42.8 41.2 6.4 2.9 22.8 5.3 30.4 6.6 44.6 7.6 90.4 4.4 135.2-.7Z" class="fill" data-original-prefix="fill"/><path id="shading-mouth3" fill="#aaaaaa" d="M1387.1 1420.1c8.7-.5 18.8-3.1 27.3-3.2 2.4 0 1.7 1.4 1.3 3.3-2.8 14.3-14.3 42.3-19.8 57.3-2.8 7.7-7.8 24.3-14.1 28.9-4.8 3.5-11.3 5.3-16.4 9.6-2.6 2.2-7.6 9.9-8.2 10.1-2.4.5-27.8-14.6-33-16.9-27.8-12.6-44.8-5.6-72.1 3.6-67.3 22.5-132.8 50.7-199.2 75.8-19.4 1.2-43.9 4.1-62.6-1.5-50.5-15.3-101.2-44.7-153-58-26.6-9.6-71.8-32.6-99.5-25.5-16.7 4.3-29.8 16.6-44.1 21.9-1.1.4-2.1.9-3.3.6-.6 0-5.5-7.8-8.2-10.1-5.1-4.3-11.7-6.1-16.4-9.6-6.2-4.6-11.3-21.2-14.1-28.9-7.1-19.5-12.9-39.5-20-59-.4-2.1 1-1.7 2.5-1.5 4.4.4 24 2.1 26 4 5.3 9.7 38.6 78.1 44.2 79.9 2.9.9 25.1-8.8 30.5-10.2 13.1-3.3 42.5 1.5 57.1 3.4 28.3 3.7 46.8 7.3 73 18.1 48.1 19.8 95.2 42.9 146.7 52.3 18.2 3.3 49.9-5.4 68.5-10.5 43.5-11.9 88.1-42.8 132.3-52.7 24.3-5.4 68.3-12.8 92.6-12.2 8.4.2 33.8 13.1 37.9 11.8 5-1.6 37.1-67.5 42.9-77.2.6-1.1.5-2.4.9-3.5h.3Z" class="outline shading" data-original-prefix="shading" opacity="0.5" style="opacity: 0.5"/><path id="shading-mouth2" fill="#aaaaaa" d="M960.8 1425.3c17.2-1.1 35.4-.2 52.8-.3 37.9-.2 73-1 110.7 5.3 45.8 7.7 95.1 21.4 140 34 1.8.5 11.8 3 11.8 4.2-1 1.5-2.6 1.4-4.1 1.8-47.4 13.6-118.1-22.6-168.3-25.4-35-2-73-.3-108 0-20.4.2-42.9-1.5-62.9 1.1-45.6 6-112.9 36.7-156.5 24.2-1.5-.4-3.1-.3-4.1-1.8 0-1.2 10-3.7 11.8-4.2 53.4-15 122.2-35.5 177-39h-.2Z" class="outline shading" data-original-prefix="shading" opacity="0.5" style="opacity: 0.5"/><path id="shading-mouth1" fill="#aaaaaa" d="M1227.4 1689.4c-.3.2-1 3.8-1.2.3 9.4-22 13.5-45.6 16.8-69.2.3-2.2.2-1.3-1-1-2.6.7-6.2 1.4-8.5 2.5-4.8 2.3-18.2 19.9-22.9 25.1-29.8 32.3-60.9 60.8-96.8 86.2l-3.7.3c11.4-16.1 30.5-32.6 25-54.5-9.4 2.8-17.3 8.7-25.3 14.2-31.2 21.6-58 49.7-86 74.7-27.4-25.4-54.6-53.4-85.3-74.7-7.9-5.5-16-11.3-25.3-14.2-5.6 22 13.5 38.4 25 54.5-3.1 1.6-6.8-1.9-9.3-3.7-17.2-11.8-42.2-32.9-57.7-47.3-19.7-18.3-36.9-41-55.7-60.3l-9.8-3.2c.8 24.6 8.3 48.7 16 72-3.5-3.4-7.9-6.2-11.5-9.5-6.1-5.4-20.1-18.5-24.4-24.6-7.1-10-16.8-33.6-22.3-45.7-3.1-6.8-4.6-14.2-9.3-20.2 9.5-2.2 19.9-9.2 29.5-10 14-1.2 46 16.5 59.5 23.5 62.5 32.3 121.8 70.8 180.5 109.5 54.4-35.1 108.8-70.4 165.8-101.1 13.2-7.1 26.7-14.4 40.3-20.7 11.3-5.2 24-12.6 36.6-10.9 4.1.6 21.5 6.9 25.1 8.9.9.5 2 .8 1.6 2.1-3.7 5.9-5.4 12.6-8.2 18.9-5.2 11.8-15.4 36.1-22.3 45.7-4.3 6-17.5 18.2-23.4 23.6-3.5 3.2-7.8 6.1-11.6 8.9h-.2Z" class="outline shading" data-original-prefix="shading" opacity="0.5" style="opacity: 0.5"/><path id="outline-mouth5" fill="#000000" d="M1389.4 1512.4c-5.6 5-11.3 6.2-16.8 10.7-9.6 7.8-21.2 36.9-26.7 49.3-4.3 9.7-8.2 19.6-12 29.5-1.4.5-2.9.2-4.3.2-7.8-.5-18.9-4.2-26.1-4-6.1 0-10 15.8-12.3 20.7-8.3 18.5-17.2 39.5-27 57-10.7 19-18.7 20.5-34.7 33.3-69.6 56-132 124-197.6 184.4-4.2 3.9-5.8 10.9-12.5 4.5-67.2-64.3-133.5-135.4-206.6-193.4-14.9-11.8-19-11-29.1-28.9-9.8-17.5-18.7-38.5-27-57-2.3-5.1-6.2-20.6-12.3-20.7-7.1-.2-18.3 3.6-26.1 4-1.4 0-2.9.3-4.3-.2-3.8-9.9-7.7-19.8-12-29.5-5.6-12.7-17.2-41.9-27.3-49.7-8.1-6.3-16.5-6.4-22.1-16.9-13.1-24.5-18.1-59.8-30.6-85.4-1.1-7.7.2-11 8.2-11.3 17-.6 39.9 4.4 58 5.1 23.3.9 46.8.3 69.7-3.4 8.6-1.4 26.3-4.1 33.6-7.4 10.4-4.6 25.8-30.5 39.7-39.3 20.2-12.9 48.4-22.7 70.2-34.8 29.5-16.3 56.6-37.6 86.9-52.1 17.2-3.3 63.7-4.5 78.7 3.1 26.3 13.3 52.7 34.4 79 49 21.3 11.8 61.7 26.2 78.2 40.8 8.3 7.3 23.1 29.2 30.9 33.1 10.2 4.9 47.7 10.2 60 11 33.9 2.1 65.2-3.9 98.1-5 9.3-.3 13.9.3 12.3 11.3-10 24.1-16.5 49.7-26 74-3.1 7.8-4 12.4-10.4 18.1h.3Zm-2.4-74.4c-17.5-.2-35 1.6-52.6 1-22.5-.7-67.4-4.6-88-12-15.1-5.5-34-33.6-49.2-43.8-22.2-15.1-52.1-28.3-76-42-22.3-12.8-44.1-26.5-66.1-39.9-20.2-1.9-43-2.5-63.1.3-21.7 13.3-43.3 26.8-65.5 39.6-23.9 13.7-53.8 27-76 42-13.7 9.3-25 25.5-37.7 36.3-11.8 10-24.8 10.9-39.7 13.3-36.9 6-73.5 7.2-110.9 5.2l-1.5 1.5 21.6 60.4c4.6 4.2 10.9 5.5 15.8 9.2 8.5 6.4 16.8 27.2 21.5 37.5 5.1 10.9 9.7 22.1 14.2 33.3 21.5-3.1 45.5-13.6 67.4-10.9 5.9.7 21.3 11 27.4 14.6 49.5 29.2 99.3 60.8 146.8 93.2 12.5 8.5 24.6 18.8 37.4 26.6 2.7 1.6 8.9 5.8 11.4 5.7 2.2 0 12.5-7.1 15.2-8.9 59.9-39 117.6-80.2 179.4-116.6 6.1-3.6 21.5-13.9 27.4-14.6 21.9-2.7 46 7.9 67.4 10.9 4.5-11.2 9.2-22.4 14.2-33.3 4.8-10.2 13.1-31.1 21.5-37.5 3.5-2.6 14.3-6.7 15.8-9.2 1.6-2.8 3.3-11.3 4.8-15.2 2-5.4 18.5-45 16.8-46.8h.3Zm-110 155c-8.8-.9-17.5-4.1-26.4-2.9-6.5.9-19.3 8.1-25.6 11.4-69 36.1-135.2 77.9-197.6 124.4-2.2 1.5-4.6 1.5-6.8 0-62.4-46.5-128.6-88.3-197.6-124.4-6.3-3.3-19.1-10.5-25.6-11.4-8.8-1.2-17.9 1.6-26.4 3.4 17.3 26.8 28.9 56.9 46.5 83.5 68.9 48.7 128.4 107.7 186.6 168.4l20.5 23.5c5.6-8.3 12.6-16.2 19.5-23.5 57.7-61.5 118-119.1 186.6-168.4 11.9-17.2 20.2-36.6 29.9-55.1l16.5-29Z" class="outline" data-original-prefix="outline"/><path id="outline-mouth4" fill="#000000" d="M1216 1501c-5 15.8-22.6 23.3-36.6 29.8-40.8 19.1-98.2 39.1-142.3 47.7-23.9 4.6-68.5-10.7-92.5-18.5-28.4-9.3-67.8-22.8-93.2-37.8-5.7-3.3-18.1-13-19.3-19.7-.3-1.6 0-1.7 1.5-1.5 8.4 1.1 19.7 1.4 27.4 3.6 6.7 1.9 15.6 7.6 22.5 10.5 24.7 10.3 49.9 20.1 75.2 28.8 27.3 9.5 56 22.4 85.3 15.2 33.6-8.3 75.7-25.6 108.2-38.8 10.6-4.3 25.3-12.9 35.2-15.8 8.9-2.6 19.7-1.7 28.8-3.7z" class="outline" data-original-prefix="outline"/><path id="outline-mouth3" fill="#000000" d="M1244 1474c-7.2-1-14.4 1.8-21.4.9-10.3-1.3-24.4-6.4-35.4-8.6-106.4-21.2-198.4-23.4-305.4-4-17.9 3.2-39.7 10.4-56.4 12.6-7 .9-14.3-1.9-21.4-.9 1.7-3.3 5.7-4.4 9-5.5 23.4-8 58-14.9 82.8-20.2 93.1-20 173.4-18.6 266.2 2.2 22.1 5 51.2 10.8 72.2 17.8 3.5 1.2 7.9 2.2 9.8 5.7" class="outline" data-original-prefix="outline"/><path id="outline-mouth2" fill="#000000" d="M978 1773c-2 2-12.7-7.2-14.5-9-33.9-33.8-65.2-78.9-96.7-115.3l-2.8-5.7c1.1-1.1 27.5 9.2 29.4 11.1 23.5 34.2 49.9 66.4 73.4 100.6 1.4 2 12.1 17.4 11.2 18.3" class="outline" data-original-prefix="outline"/><path id="outline-mouth1" fill="#000000" d="m1184 1643-2.8 5.7c-31.6 36.4-62.8 81.5-96.7 115.3-3.6 3.6-9.3 8.6-14.5 9-.9-.9 9.8-16.3 11.2-18.3 23.5-34.2 49.9-66.4 73.4-100.6 1.9-1.8 28.3-12.2 29.4-11.1" class="outline" data-original-prefix="outline"/>
    </g>
</svg>