<?xml version="1.0" encoding="UTF-8"?>
<?xml-stylesheet type="text/css" href="../styles/semantic.css" ?>
<svg xmlns="http://www.w3.org/2000/svg" viewBox="0 0 2048 2048">
  <g class="trait-group" data-category="background" id="background-dots">
      <defs>
    <pattern id="dots-pattern" x="0" y="0" width="60" height="60" patternUnits="userSpaceOnUse">
      <circle cx="30" cy="30" r="15" fill="#444444"/>
      <circle cx="0" cy="0" r="15" fill="#444444"/>
      <circle cx="60" cy="0" r="15" fill="#444444"/>
      <circle cx="0" cy="60" r="15" fill="#444444"/>
      <circle cx="60" cy="60" r="15" fill="#444444"/>
    </pattern>
  </defs>
  <rect id="color-dots-bg" class="color" width="2048" height="2048" fill="#666666"/>
  <rect id="color-dots-pattern" class="color" width="2048" height="2048" fill="url(#dots-pattern)"/>
    </g><g class="trait-group" data-category="jaw" id="jaw-OG-cracked">
      <!-- Generator: Adobe Illustrator 29.1.0, SVG Export Plug-In . SVG Version: 2.1.0 Build 142)  -->
  <defs>
    
  </defs>
  <path id="fill-jaw" class="fill" d="M1396.7,1438.7c-6.7,4.3-46.8-1.7-48.7.3l-12.2,69.8-57.2,29.3-1.4,1.6c-1.5,11.9,1.5,24.2.9,35.9-.3,4.9-1.3,15-2.3,19.7-.6,2.8-13.7,32.2-15,33.5s-16.1,8.9-16.7,8.3l-9.5-50-51,52c-7.7,5.7-20.7,9.3-27.5,15.5-14,12.7-25.2,37.4-42.1,47.9-5.4,3.3-61.3,25.7-66.7,26.3-13.8,1.7-33-3.3-47.7.2-17.7-10.3-50.1-16.2-66.1-26.9-14.3-9.6-28.3-35.6-41.4-47.6-6.7-6.1-19.9-9.6-27.5-15.4l-51-52-9.6,48.4c-.6.9-.9,1.7-2.2,1.5-.8,0-13.8-7.6-14.4-8.2-1.4-1.4-15.9-33.3-16.2-35.3l-.5-54.4-58.2-30.3-12.3-69.7c-8.1-1.2-45.1,3.9-49.5-1l-37.1-85-.5-3.4,31.5-70.6c5.3-1.6,29.1,0,31.3-6.7.8-2.3-.6-19.5-1.3-22.4-2.2-8.4-16.2-24-19.8-33.2-.7-1.7-1.2-3.1-.6-5,4.7-11.3,10.3-22.3,14.1-34,7.3-22.4,7.2-42.6,16.9-65.1,47.5-110.2,188.9-176,299.9-200.1,44.7-9.7,79.8-1.5,122.7,11.2,98,28.9,222.6,97.5,259,199,6.8,19,7,38.1,13.5,57.5,3.8,11.2,10.1,22.1,13.7,33.4,0,1.4-8.3,16.4-9.8,19.1-2.4,4.3-9.7,13.4-10.7,17.3-1.8,6.8-.6,15.6-2.3,22.5,9.9,7.9,21.3,4.2,32.4,6.5,9.6,23.9,23.5,46,31.4,70.6-9.8,26.3-22.2,51.8-33.2,77.7-1.3,3-1.7,9.3-5.1,11.4h0Z" fill="#ffffff"/>
  <path id="shading-jaw" class="shading" d="M1380.8,1185.8c-.2.4-2.1.7-2.8,1.7-8.6,10.8-16.2,26-21,39-4.2,11.4-5.1,22.7-13,32-18.8,22.4-51.8,45.5-78.3,57.7-5.4,2.5-12.5,3.7-16.7,7.8h20.5c2.7,0,5.1,1.2,7.9,1.1,18.1-.2,64.4-19.8,77.5-32.6,5.7-5.5,14.1-15.7,15-23.5,1.8,0,.7,2.4,1.5,4,3.1,5.9,15.5,5.2,21.5,6,.2,1.6-1.5.7-2.3,2.2-4.6,8.3-4.4,21.6-10.6,28.3-7.5,8.1-37.1,13.5-48.8,17.2-14.5,4.6-29.8,8.8-42,18.1l-52.8-14.8c-19.3-2.3-9.9,15.4-5.3,25.3,5.2,11.3,20.7,40,30.4,46.6,11.9,8.2,22.7-10.2,30-17,6.3-6,16.2-11.8,24.6-14.4,17.7-5.6,32.3,4.7,50.5,5.4,17.4.8,34.6-7.7,48.8-17.2,3.6-2.4,14.6-13.9,17.2-13.8,1.7,0,3.3,6.1,1.8,7.8-10.1,24.3-21.6,48-31.8,72.2-3.7,8.8-.8,14-13,15-9.3.7-15.8-1-24.2-1.8-4.8-.4-11.8,2.5-17.3-.2l-12.9,70.6-59,30.5c.4,11,2.6,23.6,2,34.5-.3,5.7-1.3,15.4-2.1,20.9-.5,3.1-13.4,31.4-15.4,33.6-3,3.2-11.6,6.2-15.5,9-.8-4.9-2.7-10.6-3-15.5-.6-11.2,2-11.3-2.7-23.2-.4-1.1-1.9-1-2.2-2-.8-2.2-.8-6.7-1.1-9.2l-2.3.2-50.2,51.8c-7.7,5.2-19.5,8.7-26.5,14.5-14.2,11.7-24.4,36.1-41.5,47.5-6.7,4.5-54.2,25.7-61.2,26.8-9.9,1.5-51.8,1.6-61.5,0-6.9-1.2-49.7-20.5-57.3-24.7-15.8-8.9-30.2-37.8-44.4-49.6-6.9-5.7-19-9.3-26.5-14.5l-51-52c-1,8.1-7.3,16-8.1,24-.6,6.2.6,14.6-.3,21.6-.2,1.7-3,1.8-2.1,4.4-.6.7-14.6-8.1-15.5-9-1.7-1.8-15-30.8-15.4-33.6-.7-4.4-.9-13-1.1-17.9-.5-12.2.6-24.4.5-36.6l-58.5-31.4-13-69.5-48.8-.2-38-86.6.9-6.2c8.2.4,11.8,8.2,18.6,12.7,25.3,16.9,38.4,19.8,68.5,13.9,17.1-3.4,19.1-7.5,37.2.4,15.9,7,19,16.2,30.6,25.4,9.6,7.6,13.6,7.9,22-1s31.8-49.1,32.1-60c.2-8.7-6.4-8.1-13.3-7.2-8.6,1.1-48.4,15.1-51,14.6-1.7-.4-12.3-7.9-16.5-9.6-20.3-8.4-48.8-11.8-67.2-20.8-14.9-7.3-11.3-20.9-17.7-33.2-.9-1.6-2.5-.6-2.3-2.2,6.3-.9,17,0,21-5.5,1-1.4.3-3.7,2-3.5,3,11.7,15.2,23.9,25.1,30.4,21.2,13.8,50.4,23.7,75.4,23.5h20.5l-34.7-16.8c-19.1-10.8-48.2-33.1-61.8-50.2-6.2-7.8-7.1-18.3-10.5-27.5-6-16.6-14.4-32-25-46,1.3-9,6.5-19.6,7.8-28.2,1.9-12.9,1.8-19.5,6.5-32.5,36.4-101.1,159.2-169,256.8-198.2,49.9-15,102.4-18.2,153.2-5.2,103.5,26.4,242.6,100.3,277.2,208.8,3.4,10.5,3,17.3,4.8,27.2.8,4.7,8.9,28.4,7.6,30.6l-.5-.2ZM1195.9,1382.1c-32.3-16.1-63.1-35.3-95.9-50.7-17.5-18.7-37.4-36.6-54.6-55.4-4.8-5.3-11.2-16-16-20-3-2.6-7.4-3-10.6-.6-4.5,3.4-12.7,16.4-17.4,21.6-16.7,18.6-36.8,35.6-53.6,54.4-32.9,15.3-64,34.2-96,51.2-.6,2.8,12.4,35,14.6,40.3,2.9,7.1,12.1,31.7,16,36.1,7.1,8,36.5,26.3,47,33,19.8,12.7,36.1,22.9,59.3,28.7,27.3,6.8,39.7,7.1,67,.6s43-16.6,65.7-31.3c10.4-6.8,35.9-22.5,43.4-30.6,4-4.4,12.7-27.4,15.6-34.4,2.1-5.1,16.8-41,15.5-42.9M728.3,1496.7c1.6,2,8.2,6.3,10.7,7.8,14.7,8.8,31.8,13.8,46.9,23.1,16.8,10.2,40.2,33.1,59.6,33.5,2.3,0,8.7-1.2,9.4-3.7s-13.6-27.6-16.4-30.3c-7.3-7.1-27.5-17.2-37.2-23.8-15.2-10.3-50.3-39.1-67.9-39.2-10.5,0-8.7,28.1-5.1,32.7h0ZM1319.7,1466.3c-5.9-5.9-24.1,4.1-30.4,7.6-16.2,8.9-31,21.4-46.2,31.8-12.7,8.7-30.1,15.7-38.6,28.4-2.2,3.4-10.8,17.7-11.4,20.7-1.1,5.3,6.2,6.5,10.3,6.3,16-.9,23.4-9.7,35.2-17.8,9.2-6.3,19.3-13.6,29-19,11.7-6.6,47.1-19.2,52.7-29.3,2.4-4.3,2.8-25.2-.7-28.6h0ZM1126,1664c-12-2.7-20.7,6.6-31.6,7.9-5.7.7-12.2-1.2-16.6-.7-7.1.8-22.9,12.1-31.2,14.9-14.8,4.9-30.2,4.7-45.1,0-8.8-2.8-23.9-14.1-31.2-14.9-4.4-.5-10.9,1.4-16.6.7-11-1.3-19.9-11-31.6-7.4,0,6.9,23.8,23.5,30,27,12.5,7.1,59.8,26.8,72.5,26.6s59.9-19.8,72.2-26.9c10.3-6,24.6-16.2,29.3-27.2h-.1Z" fill="#aaaaaa" style="opacity: 0.5" opacity="0.5"/>
  <path id="outline-jaw" d="M676,1140c5.2-3.1,18.7-3.2,19.1,4.5,0,2.3-.8,11.2-1.1,14-.3,3-.9,8.4-2.1,10.9-2.5,4.9-17.3,13.6-20.1,19.9-1.2,2.6-6.4,25.9-6.7,29.3-.2,1.7,0,2.8.4,4.4,2.1,6.9,13.8,19.7,17.7,27.3,5.7,11,7.2,24.3,12,35s13.5,10.7,22.5,15.6,17.7,11.1,25.3,17.2c-3.1,0-6.3.2-9.4,0-7.7-.8-35.8-6.7-41.8-10-6.1-3.3-8.8-18.4-12.8-20.4-2.5-1.2-7,0-10.3-.7-6.7-1.2-9.9-7.8-17.5-1.5-6.7,12.4-14.3,24.3-20.4,37.1-7.4,15.4-14.8,25.1-4.8,41.2,5.2,8.4,23.4,27,25.6,34.4,2.5,8.4-2.4,27.4,2.4,33.6,5.4,6.9,20.6,5.2,27.7,1.7,11.1-5.5,9.2-10.1,14.9-19.1,5.3-8.3,20.9-24.3,30.4-26.7,7.7-1.9,12.3,10.3,14,16,4.9,15.9,2,31.2,13.9,44.1,1.1,1.2,9,8.5,10,7.5-.8-5.6,4.8-8.4,6.5-13,3-7.9-3.1-20.6-5-29-2.8-12.3-5.1-24.7-8-37-1-4.1-6.2-19.9-5.4-22.3,1.2-3.8,23.7-9.1,24.9-10.7.4-.5-2.9-8.7,0-12.6,1.3-1.8,8.8-6.8,11.1-8.9,3.9-3.5,23.1-22.9,25.7-23.4,4.4-.8,5.2,2.4,8,3.6,5.1,2.1,10.8,2.5,15.7,4.3,1.1.4,2.4.5,2.5,1.9-11.2,6.3-23.6,13-34.3,20.2-2.7,1.8-16.6,11.8-17.6,13.4-1.6,2.6-2.2,9.7-2.2,12.9l3,44.5c-9.8-13.1-8.1-31.3-10-47-2.5,1.9-15.3,3.5-15.9,5.6,4.5,18.6,8.6,38.8,15.1,56.7,7.3,20.1,19.2,40.4,27.7,60.3,11.1,7.8,27.2-5.8,33-15,5.6-8.7,8.1-23.6,22.5-13.5,11,7.7,22.9,21.4,33.5,30.5,48.3,41.3,92.1,59.6,157.4,50.3,40-5.7,69.7-25.7,99.7-51.3,6.2-5.3,32.4-31.5,37.5-32.5,11.9-2.2,14.8,13.8,21.4,21.5,7.4,8.7,17.4,14.2,29.1,12,4.4-.8,21.2-8.4,26.3-10.7,9.2-4.2,20.3-11.4,27.2-18.8,10.4-11.3,8.4-24,12-38,1.7-6.6,6.3-23.8,15.5-21.6,10.7,2.6,27.2,21,32.6,30.4,1.7,3,2.2,6.8,3.9,9.1,6.3,8.5,28.5,13.3,36,5.1,5.6-6.1.4-25.5,2.9-34.1s20.4-25.8,26-35c9.4-15.8.8-28.3-6.5-43.3-5.8-11.8-13.2-22.7-19.2-34.3-7.1-5.6-12.2.4-18.5,1.5-2.9.5-6.9-.4-9.3.7-3,1.4-6.8,14.4-9.5,17.5-1.4,1.6-7.6,4.3-9.9,5.1-8,2.8-25.7,6.6-34.3,7.7-3.4.4-6.8.2-10.2.2,6.6-5.5,15.7-12,23.3-16.2,11.5-6.3,19.8-5.1,25.5-19.5,3.9-9.8,5.3-20.7,10.3-30.7,3.9-7.7,16.9-22.6,18.7-29.4.4-1.7.2-2.8,0-4.5-.6-4.4-5.6-25.6-7.2-28.8-3.7-7.3-19-15.9-20.5-21.5-.8-3.2-2.6-24.3-1.6-26.4,2.1-4.5,12.7-3.4,16.5-1,.5,1.9,4.4,14,5,14.5,6.2,5.3,26.1,4.1,26.1,17s-1.7,15.9.2,26.7c1.7,9.8,9.7,22.5,6.4,31-2.3,6-12,20.9-15.9,27.1-3.6,5.6-8.1,10.6-11.8,16.2,8.8.3,18.9-17.9,26.1-12.1,3.4,2.8,13.7,18.6,16.7,23.3,5.1,7.9,10.9,17.6,15.1,25.9,3.9,7.8,17.4,38.8,16.1,45.8-.2,1.2-13,15.6-15.2,18.8-10,14.2-21.3,32.5-25.7,49.3-1.9,7.2-2.7,14.7-4,22-1,1.4-27.6,11.9-31.1,12.9-10,2.9-17.2,1.5-24.9-5.4-.9,8.8-2.6,17.7-3,26.5s1.7,33.1-.8,39.2c-.6,1.5-11.3,15-12.5,15.5-6.3,3-15.7-1.7-24.7,3.3-22.6,12.7-18.8,48.5-26.9,68.1-6,14.6-40.4,52.5-54.6,59.4-1.2.6-2,1.3-3.6.9,1.2-14.7,3-35.1-3.9-48.6-.4-.8-.4-3.2-2.1-1.4-.7.7-3.6,13.8-6.6,17.9-8.6,11.7-30.9,6.8-39.2,20.8-5.2,8.9-7.6,22.3-13.4,30.6s-48.5,28.9-59.6,33.4c-15.1,6.1-64.1,21.2-78.8,21.2s-63.4-15.1-78.8-21.2c-11.1-4.4-55.3-26-60.6-34.4-6.9-11.1-8.5-31.6-21.5-37.6-14.4-6.6-26.5-2.6-33.9-20.1-1.1-2.5-2.5-10.3-2.8-10.7-1.3-1.6-1.8.4-2.2,1.3-1,1.8-4.8,14.6-4.8,16.2v30c0,.3,1.4,1.4,1,2.5-1.7.2-3-.3-4.4-1.1-15.2-8.7-49.8-45.6-54.8-62.2-6.2-20.6-5.2-52.1-25.9-65.1-8.2-5.2-18.3-.3-24.7-3.3-.9-.4-12.2-14.2-12.7-15.3-2.1-5.2-.2-29.6-.5-37.4-.4-9.1-2-18.5-3-27.5-4,1.6-7.6,4.7-11.9,5.6-2.8.6-5.6.7-8.5.3l-35.7-14.3c-1.5-7.3-2.1-14.8-4-22-4.3-16.8-16.4-36.3-26.5-50.5-2.2-3-13.9-15.8-14.2-16.8-1.1-3.6.8-8.3,1.8-11.8,5-18.6,17.3-42.1,27.6-58.4,2.5-4,17.5-26.2,20.1-26.9,6.2-1.8,15.2,12.1,22.3,12.8.7-.7-9.3-13.3-10.4-15.1-4-6.2-14.5-22.3-16.8-28.2-2.7-7.1,5.4-22.1,6.9-30.5,1.9-10,.2-18.4,1.3-27.7,1.2-11,17.6-11.6,25.8-15.7,2.1-4.7,2-9.6,3.2-14.8h.4v-.2ZM799,1627.5v-20c0-3.5,9.1-26.6,11.7-27.4,6.9-2.2,27.9,17.6,32.8,22.9,7.6,8.1,14.7,20,23,27,10.5,8.8,23.6,12.8,33.5,23.6,22.2,24.2,21.6,36,55.1,50.9,29.5,13.1,59.4,23.9,92.4,17.4,12.7-2.5,58.9-21.3,68.9-29.1,12.4-9.6,23.1-31.8,35.2-42.8,9.6-8.8,25.5-14.6,34.6-23.4,6-5.9,12.7-15.8,18.4-22.6,2.8-3.3,8.4-7.2,10.3-10.7,4.4-8.2,10.5-40.4,10.3-49.8-.3-12.5-3.5-25.3-4.2-37.8-17.1-12.8-20.5-.4-31.4,9.3-16.5,14.9-41.1,22.8-63,25-69.4,7-135.6,7-205,0-22-2.2-46.4-9.9-63-25-7-6.3-10.5-15.9-22-15.1-3.7.3-6,3.1-8.5,3.7-4.9,1-22.9-12.7-28.3-15.8-18.4-10.2-46.1-20.5-61.1-34.9-6.9-6.6-2.4-11.8-2.5-19.5s-3.8-23.4-6.8-30.2c-.5-1.1.2-1.5-1.7-1.3-9.4,1.3-19,20.2-19.3,28.8-.2,6.3,6.7,18.5,7.6,26.9,1.5,13.9-4.4,40.4,8.8,49.2,12.8,8.6,39.9,13.7,50.8,26.2,5.7,6.6,1.5,7.9.7,14.6-3.6,29.6,1.4,55.9,20.9,78.9.5.6,3.9,4,2,1h-.2ZM1248,1630c19.4-21.2,26.1-39.8,25-68.5-.3-7.8-4-21.4,0-27.8,4-6.1,20.2-13.6,27.2-16.8,15.2-7.1,31-7,32.7-27.3,1.3-14.8-1.6-26.3,2.5-41.5,3.4-12.7,7.8-13.2,2.5-27.5-2.8-7.7-9.2-17.6-18-18.4-5.5,13.3-7.4,26.1-7,40.5,0,3,2.2,4.9,0,8.1-1.5,2.2-16.5,12.2-19.8,14.2-9.2,5.7-59,28.5-60.9,35.1-2.7,9.4,7.3,31.3,8.6,41.6l-10,40.5c2.4-1.4,5-2.6,7.9-1.9,6.7,16.4,13.1,31.6,9.1,49.9v-.2h.2ZM780,1448c-2-1.4-5.5,2.6-5.8,4.7-.9,5,7.2,15.1,12.8,15.2-.9-2.6-6.1-19.4-7-20h0Z" class="outline" fill="#000000"/>
    </g><g class="trait-group" data-category="mouth" id="mouth-cracked scrappy">
      <path id="fill-muzzle-1" fill="#ffffff" d="M1038 1292s-.4 1.7.7 2c10.3 2.8 18 4.3 25.8 13 1.9 2.2 4.9 8.8 6.5 9.5 2.6 1.2 6.6 0 9.5.5 11.4 1.5 21.2 3.7 31.2 9.8 2.1 1.3 9.2 7.8 10.2 7.1.3-.3 0-1.7 0-1.9 2.4-1.8 32.7.6 38 1 5.2 4.2 13.2 5.5 19.2 8.3 13.7 6.4 22.5 16.1 29.9 29.1 8.4 14.6 7.7 17.8 3.1 33.4-2.5 8.5-4.8 21.8-16.3 20.2 1.5-15.5-14.8-32.4-26.5-41-3.2-2.4-11.3-7.2-6 0 10.7 14.6 20.5 15 21.5 37.5.5 10.4-8.3 32.8-15.4 40.5-.6.7-7.1 6.3-7.6 6.5-3 1.6-6.8-6.1-7.8-8.2-3.7-7.7-4.8-15.6-9.7-23.3-1.1-1.7-10.8-13.7-12.4-12.1 5.6 13 9 46.2-2.5 56-4.4 3.7-9.4 1.9-13.3 3.7-2.8 1.3-3.1 5.8-4.8 6.2-.9.2-7.2-3.2-9.4-3.5-9.3-1.3-13.1 17-18.7 17.4-2.5.2-10.7-11.9-18.4-9.4-6.8 2.2-15.3 20.6-23.6 23.5-7.3-4.5-4.2-14-6.6-21.1-1.2-3.5-4.2-6.7-5.8-10.2-5.4-12.7-2.8-19.9-.2-32.2.7-3.3-.2-6.3 1.2-9.8.4-1 6-11.5 6.6-12.4 3.7-5.4 19.2-12.4 22.7-3.8.9 2.2 0 8.7 2.2 7.7 5.1-4.9 10.2-9.9 15.5-14.5 10.2-8.9 12.8-8.2 19.5-21.5 1.9-3.8 8.1-17.3 8.2-20.7.2-6.3-17.9-22.6-21-29-3.6-2.9-22.1-2.8-27.2-2.3-14.1 1.5-18 12.2-27.5 19.5-1 .8-1.3 1.9-3 1.5l.8-12.7c7.6-8.2 14.9-16.6 21.1-26 .7-3.3-8.6-12.4-11.3-13.2-3.6-1 .5 5.5.5 6.6.4 5.2-5.9 4.1-9.3 5.6-1.2.5-3 2.7-3.2 2.7s-2-2.2-3.2-2.7c-8-3.5-11.7.6-7.3-12.2-1.6-1.7-12.5 9.1-12.9 11.7-.2 1.6 3.6 7.8 4.8 9.5 1.5 2 5 5.9 7 8.3 3.2 3.9 9.7 7.7 9.9 13.1 0 1.6-.8 3.1-.8 4.8s2.6 8.1-2.5 3.6c-6.2-5.3-10.1-13.6-18.5-17.5-6.8-3.1-28.3-4.1-34.7-.8-.8.4-9.9 11.1-11.2 12.8-2.4 3-10.9 13.7-10.8 16.8.2 5.1 11.2 27.9 14.7 32.2 2.8 3.4 10.2 7.7 14 11 5 4.3 9.7 9.1 14.5 13.5 2.2.9 1.5-5.2 2-7 2.4-9.9 19.2-2.4 23 3.1.7.9 6.6 13.1 6.9 14.1 2.9 11 5.6 26.6 1.9 37.5-1.7 4.9-6.8 10.4-7.8 15.2-1.4 6.6 1 13.6-5 19-5.3 1.2-18.8-21.7-24.4-23.5-8.2-2.6-15.9 9.6-18.4 9.4-5.3-.4-8.7-14-13.9-16.1-6.9-2.8-11.5 2.7-14.1 2.1-1.8-.4-2-4.8-4.8-6.1-4.5-2-9.6.3-14.3-4.7-10.9-11.5-6.5-42.2-1.5-56.1-9.1 6.7-14.1 14.8-18.5 25-1.6 3.6-2 7.5-3.7 11.3-1 2.1-4.9 9.8-7.8 8.2-.4-.2-6.9-5.8-7.5-6.5-4-4.2-13.8-24.3-15-30-2.8-12.9 1.4-26.5 9.5-36.5 4.1-5.1 11.3-9 13-15.5-2.4-2.4-22.3 17.4-24.4 20.1-5.4 6.8-11 15.9-9.6 24.9-4.7.2-8.1-.7-10.8-4.7-1.8-2.7-8.8-24.3-9.2-27.8-1.1-10.9 10.9-28.8 18-37 10.5-12.2 24.5-14.2 38-21.5 12.5-.8 24.5-2.3 37-1 0 0 .7 2.1.5 3 9.5-8.2 20.6-14.8 33.1-16.9 4.7-.8 14.8-.4 18.1-1.8 1.6-.7 5.2-7.7 7.2-9.9 8-8.4 15.2-9.7 25.4-12.5 1.1-.3.6-1.9.7-2 1.1-.7 25.9-.7 27 0Z" class="fill" data-original-prefix="fill"/><path id="fill-teeth16" fill="#ffffff" d="M995.3 1525.7c11 9.5 17.2-6.6 23.2 6.3 6.5 14.1 3.7 38.4-1 52.9-.7 2.1-7.1 16.9-8 17.1-1.2.3-3-.4-4.2-.9-12-5.1-31.7-18.1-39.1-28.9-10.6-15.5-6.4-42.9 6.8-55.8 1.3-1.3 9.1-5.6 10.4-5.3 1.5.3 9.4 12.3 12 14.5h-.1Z" class="fill" data-original-prefix="fill"/><path id="fill-teeth15" fill="#ffffff" d="M1039.1 1601.9c-.8-.5-7.5-16.1-8.1-18.4-4.1-13.8-6.5-36.9-1.3-50.3 4.6-12 8.1-4.3 15.8-4.2 9.5.2 17.3-18.2 20.8-17.9 1.2 0 8.5 4.2 9.7 5.3 6.3 6.2 12.2 22.3 13 31 2.4 28-20.3 39.6-41.3 50.7-2 1.1-5.7 5.5-8.6 3.7Z" class="fill" data-original-prefix="fill"/><path id="fill-teeth14" fill="#ffffff" d="M904 1461c0 2.2-1.1 3.8-.8 6.2.2 1.8 7.1 22 8 23.1 3.9 5.1 11.2 3.2 16.7 3.8 4.9 13.5-4.2 23.8-8.6 35.6-2 5.3-8.7 33.1-12.8 34.2-1.8.5-6.8-9.1-8.3-10.7-10.3-23.9-15.3-58.4-2.6-82.2.6-1.2 7.1-11.6 8.4-10.1Z" class="fill" data-original-prefix="fill"/><path id="fill-teeth13" fill="#ffffff" d="M1144 1564c-2.1 1.4-6.1-7.1-6.8-8.7-3.2-7.9-4.4-17.4-7.5-25.5-4.3-11.6-13.6-22-8.6-35.6 4.8-.6 12.3 1.2 15.9-2.9 1.3-1.5 8.1-20.6 8.6-23.2.3-1.8-1.4-7 .9-6 6 2.7 13.7 26 14.4 32.6 1.4 13.9-2.9 45-9.3 57.4-.8 1.5-7 11.6-7.6 11.9" class="fill" data-original-prefix="fill"/><path id="fill-teeth12" fill="#ffffff" d="M1093.1 1644.9c-2.9-1.8-2.4-28.5-2.1-33.4.7-10.5 5.2-31.2 8.9-41.1 1.1-2.8 2.4-1.4 4.2 0 12.2 9.6 21.1 44.8 12.8 57.9-1.9 3-15.6 14.9-18.9 16.1-1.3.5-3.8 1.1-4.8.4Z" class="fill" data-original-prefix="fill"/><path id="fill-teeth11" fill="#ffffff" d="M949 1569c5.5 22 11.1 44.4 9 67.5-.5 5.2-.9 10.3-7 8-3.4-1.3-17.5-13.4-19.5-16.5-5.8-9.2-1.4-31.3 2.7-41.2 1.2-2.9 11.3-21 14.8-17.7Z" class="fill" data-original-prefix="fill"/><path id="fill-teeth10" fill="#ffffff" d="M881.7 1478.3c3.1 2.8-2.7 21-2.8 26.2 0 5.9 2.6 12.4 3.1 18 .2 2.1.7 24.5-.5 24.5-1.5.2-2.1-1.1-2.9-2.1-15.6-18.9-34.8-51.8-17.4-75.3 6.5-8.8 10.5 2.1 14.9 5.8 1.8 1.5 4.9 2.1 5.7 2.8Z" class="fill" data-original-prefix="fill"/><path id="fill-teeth9" fill="#ffffff" d="M1185.7 1467.3c1.9 1.6 7.8 13.7 8.2 16.2 3.2 20.7-9.8 47.3-23.9 61.9-.9 1-1.3 1.9-3 1.5.5-8-.7-16.6 0-24.5.4-5.4 3.1-12.3 3.1-18s-6.1-23.4-2.8-26.2c.6-.6 2.5-.6 3.8-1.7 3.4-3 10-13.1 14.7-9.3Z" class="fill" data-original-prefix="fill"/><path id="fill-teeth8" fill="#ffffff" d="M1018 1613v16.5c0 .9-10.8 13.2-11.9 14.1-6.3 4.8-8-2.6-10.6-5.5-5.5-6-17.9-.4-24.4-5.6-1.2-.9-4.1-8.8-4.1-9.9v-22.5c12.9 1.7 28.3 17.5 41.4 15.9 3.5-.4 6.1-3 9.6-2.9Z" class="fill" data-original-prefix="fill"/><path id="fill-teeth7" fill="#ffffff" d="M1031 1613c6.3 1.3 9.1 4 16.1 2.6 10.6-2.2 24.3-14.8 33.4-15.6 2-.2 1.4 0 1.2 1.3-.8 6.5 2.4 27.5-4.4 31.6-7 4.2-18.8-.3-23.4 4.6-2.1 2.2-3.6 8-8.4 7.6-1 0-14.6-13.5-14.6-14.6V1613z" class="fill" data-original-prefix="fill"/><path id="fill-teeth6" fill="#ffffff" d="M1102.5 1494c3.3-.8 4.5 6.9 5.3 8.7 5.6 12.1 13 24.8 13.3 38.8.2 9-16 29.8-21.3 16.2-4-10.4-4.1-44.8-1.1-55.5.4-1.6 2.4-7.9 3.8-8.2" class="fill" data-original-prefix="fill"/><path id="fill-teeth5" fill="#ffffff" d="M937.3 1559.7c-1.9-1.6-7.8-10.5-8.5-13-3.6-12.1 6-31.3 11.4-42 1.6-3.1 3.3-14.7 8-7.4 5.5 8.5 4.3 41.5 2.7 52.1-1.2 7.7-3.6 18.7-13.6 10.3" class="fill" data-original-prefix="fill"/><path id="fill-teeth4" fill="#ffffff" d="M917 1563c-1.8 13.4 2.9 27.5 2 40.5-.6 9-4.4 18.4-5.5 27.5-6.2-6-10.5-16.1-11.4-24.6-.5-5.2.7-24.7 2.4-29.3.6-1.6 10.5-16.2 12.4-14.1Z" class="fill" data-original-prefix="fill"/><path id="fill-teeth3" fill="#ffffff" d="M1135 1631c-.4-8.9-4.4-17.8-5.1-26.5-1-13.8 3.7-27.6 2-41.5 2.2-2.4 11.9 13 12.5 15 2 6.6 2.6 27.4 1.2 34.3-1.3 6.3-5.5 14.9-10.8 18.7z" class="fill" data-original-prefix="fill"/><path id="fill-teeth2" fill="#ffffff" d="M1154.1 1604.9c-3.4-2-5.1-22.3-3.9-26.2.8-2.6 8.9-5.2 10.2-8.8l5.1-10.9c3.8 3.4 5.1 7.2 4.3 12.2-.7 4.2-5.4 22.7-6.9 26.2-.9 2.2-6.1 9-8.8 7.5" class="fill" data-original-prefix="fill"/><path id="fill-teeth1" fill="#ffffff" d="M885 1559c-.3 3.7 1.7 9.4 4 12.2s9.5 5.2 10 8.3c-2 8.4 1.6 19.2-5.7 25.4-3.6-1.1-6-4-7.4-7.4s-6.5-23.6-6.9-27.1c-.5-4.2 1.2-10.6 5.9-11.4z" class="fill" data-original-prefix="fill"/><path id="shading-mouth2" fill="#aaaaaa" d="M918 1443.5c.8 5.3 5.6 13.8 10.1 16.9 11.5 8.3 16.2-.3 22.4-9.4 2.5 5.4 3.4 11.5 6 17 1.4 2.8 5.7 12 7.5 5.5l4-11.5c1.6 7.5 6.3 15.4 11.5 21 4.3 4.7 18.8 15.4 24.6 9.6 2-2.1 8.3-17.9 10.8-22.2 1.2-2.2 7.8-13.8 9.7-13.3 1 .2 8.5 13.2 9.7 15.3 2.4 4.5 7.3 17.7 9.8 20.2 3.8 3.8 10.5.4 14.4-1.8 10.5-5.9 18.5-17.2 21.7-28.8l4.2 12.3c.3 1.2 1.9 2.4 2.8 1.7.6-.4 5.8-11.3 6.5-13 .8-2 2.8-12 4-12 6.8 10.7 12.9 18.4 24.5 7.5 8.6-8 9.3-23.8 7-34.5 3.5-3.1 21.1 16.1 26.6 16.9 9.1 1.4 17.6-11.8 19-19.9 3.5-20.5-12.9-39.2-30.9-46.2l-12.7-4.8c15.4 0 28.2 2.9 41.1 11.4 4.8 3.1 12.2 10.9 17.6 11.4 6.2.6 10.1-4.1 10-10-.4-19.3-25.8-38.1-39.7-48.8 15.4 2.4 34.6 11.8 45 23.5 7.8 8.8 19.1 25.1 19.1 37s-6.4 28.5-9.2 32.8c-3.3 5.3-11.7 5.4-13.4 10.6-.9 8.1-2.1 16.4-2.5 24.5-1.5 29 1.4 45.2-10.8 73.2-3.6 8.2-12.7 20.4-14.9 27.1-4.2 12.8-.7 26.4-9.1 38.9-3.2 4.8-8.4 6.7-11.2 10.8-1.7 2.5-2.4 6.1-4.2 8.8-4.5 6.7-14.6 23-21.6 8.9-1.6-3.3-1.3-12.9-6.7-6.2-1.4 1.7-1.9 4.4-3.5 6.5-3.7 4.7-17.7 19.6-23.5 19.5-2.2 0-4.5-4.1-6.6-5.4-7.9-5-21.1-6.3-29.2-1.4-7.3 4.4-9.5 13.6-18.1 6.8s-6.4-10.8-20.1-9c-5.6.7-11.4 12.6-16.9 12.1-2.8-.2-11.4-11.1-18.5-12.6-6.3-1.3-17.5.7-23 4.2-2.6 1.7-4.1 5.6-7.5 5.4-5.7-.3-19.8-15.8-23.6-20.5-1.2-1.5-4.4-10.6-7.1-6.9-2.5 3.4-.6 9.9-7.2 12.7-7 3-14.9-11.2-18.1-16.4-1.2-1.8-1.2-4.3-2.6-6.4-2-3-6.8-5.4-9.5-8.5-10.4-11.9-6.7-27.7-10.7-41.3-.8-2.6-5.6-8.5-7.3-11.7-18.4-35.7-16.4-45.6-18.4-84.6-.4-7.7-.6-20.7-2.2-27.8-1.5-6.2-11.1-6.1-14.2-11.8-3.4-6.1-9.3-29.6-8.6-36.4 1.2-10.3 16.2-31.2 24-38 10.5-9.2 26.2-16.5 40-18.5l-21.5 17c-7.2 6.4-26.8 32-14.8 39.9 9 5.9 16.7-4.5 23.7-9.1 12.7-8.4 25.3-11.8 40.7-11.8l-17.3 7.2c-18 9.4-33.1 32.7-22.1 52.8 1.7 3.1 8.6 10.4 12 11.1 9.1 1.7 20.7-15.4 29.5-18 .6 6.4-.9 14.3 0 20.5zm-37.1 40.6c-12.3-.5-17.1-20.2-22.8 1.5-3.4 13 1.2 26.4 9.4 36.5 1.5 1.8 12.7 13.1 13.9 12.9.8 0 2.5-2.3 2.8-3.2 2.9-7.1-3.2-12.2-4.2-19.2-1.5-9.8 0-18.7.9-28.4Zm301.8-8.9c-3.2.8-6.3 6-8.8 7.3-2.1 1.1-7.2 1-7.8 3.2-.5 1.7 3 10.8 2.9 14.8 0 3-1.5 13.9-2.2 16.8-.9 3.6-3.9 5.7-3.9 10.2s1.4 7.1 3.7 7.4c1.9.3 15-14.4 16.8-17 5.7-8.5 9-18.8 7.3-29.2-.5-3-4.4-14.5-8-13.6Zm-284.8 10c-4-2.3-6.5 9.9-6.8 12.5-1.2 10.5 3 38 8.7 47.1 1.9 3 5.4 6.9 9.2 7.3 3.7-15.6 12.6-29.2 21-42.5-2.3-.4-1.7-2.9-2.7-3.5-1.5-.9-7-1.9-9.7-3.1-4.7-2.2-12-7.7-15.6-11.4-1.2-1.2-3.8-6.2-4.2-6.3ZM1139 1552c8.3-2 11.9-12.2 13.9-19.6 3.1-12.1 6.1-33.4 1.1-44.8-3-6.9-5.8 1.7-8.3 4.1-3.9 3.8-11 9.3-16 11.6-2.5 1.1-7.8 1.8-9.1 2.7-.7.5-.5 1.8-1 2.7-.3.4-1.7.4-1.6.9 0 1 7.9 12.3 9.2 14.8 4.8 8.8 9.1 18 11.8 27.7Zm-197.7 5.7c8.1 8.1 9.5 0 10.5-7.3.8-5.6 2.7-20.6 1.7-25.4-3.6-17.2-21.3-15.9-21.6 3.6 0 6.8 4.6 24.3 9.4 29.2Zm161.5-44.5c-5 1.3-8.5 9.3-8.8 14.2-.2 4 2.4 28.5 3.8 31.3 2.5 5 7.5 0 9.8-2.7 6.8-8.3 11.6-30.7 4.5-39.5-2.7-3.3-4.8-4.4-9.2-3.3zM1023 1544c-.7-.7-.8-7-5.1-9.4-8.9-5-21.8-.8-32-4-10.4-3.3-9.4-13.1-16.1 1.8-2.9 6.4-9.1 24.4-6.3 30.7 1.1 2.4 17.8 15.6 21.2 17.8s18.2 11.7 21.1 10c3.1-5.6 9.3-9.5 12.6-14.9 1.8-2.8 4.1-11.5 4.6-11.9 1.6-1.7 1.7.5 2.1 1.4 1.6 3.6 2.1 6.8 4.5 10.5 3.3 5.2 9.2 9.3 12.4 14.6 3.1 1.9 15.5-5.9 18.9-8.1 4.5-2.9 22.9-17 23.9-21.1 2.2-9.7-6.6-28.3-10.9-37.2-4.9 1-7.8 5.2-12.7 6.7-9.2 2.8-28.2-1.6-33.7 6.3-.9 1.2-2.6 8.9-4.5 7zm-136 18c-.7-.6-3.5 0-4.5.9-6 6.2 2.4 31.6 14.6 27.6 4-1.3 3.8-9.4 2.8-12.9-1.1-3.9-7.2-4.1-9.8-7.2-2.1-2.5-2.7-8.2-3-8.5Zm274.1 0c-.3.3-.9 6-3 8.5-2.6 3.1-8.7 3.3-9.8 7.2-1 3.4-1.2 11.6 2.8 12.9 13.4 4.4 20.2-24.5 14.1-28.1-.9-.5-3.5-.9-4-.4Zm-216.4 7.2c-1.5.4-5.1 4.6-6 6.1-3.4 5.6-5.6 32.3-4.8 39.3 1.3 10.9 15.2 18 19.5 3.5 1.7-5.6 2.6-21.4 2.5-27.6 0-1.1-5.8-19.7-6.5-20.5-1.2-1.4-3.2-1.3-4.8-.8Zm153.3-.1c.2 6.6-5.4 14.7-6 20.6-.5 4.5 1 25.3 2.4 29.4 4.2 12.1 16.9 7.3 19.1-2.9 1.1-5.2 0-16.8-.6-22.6-1-9.7-1.7-25.5-14.9-24.5m-180 1.9c-20.5 3.8-17 28.7-9 43 4 2.9 10.4-17 10.7-19.8.9-7.5-2.9-15.5-1.8-23.2Zm218 43c2.5 1.8 7.2-9.1 7.7-10.8 3.9-12.8 1.6-30.1-13.7-32.2.5 7.4-2.8 16.2-1.9 23.4.3 2.7 6.4 18.5 7.9 19.6m-148.2 10.2c1.4.8 4.8 8.6 9.5 11 11.1 5.8 20.2-6.4 20.7-16.7.8-13.7-7.2-7.7-16.5-8.6-8.4-.8-15-4.8-21.8-9.2-5.5-3.5-13.6-14.6-14.7-1.4-.5 5.1 1.4 7.5 1.8 11.2s-2 5.9.5 10.7c4.8 9.3 18 1.3 20.7 2.8zm93.1-31.1c-2.1-1.5-19.7 12.7-23.9 14.4-2.3 1-7.9 2.3-10.5 2.5-10.5.9-18.8-5.4-16.4 11.4 1 7.3 7.9 15.8 16 15.1 9.4-.8 11.9-11.6 14.6-12.4 4-1.3 12.3 5.7 18.9-1.1 4.3-4.4 1.3-8.4 1.5-12.5 0-2.3 1.9-4.8 2-8.1 0-1.9-.8-8.5-2.2-9.4Z" class="outline shading" data-original-prefix="shading" opacity="0.5" style="opacity: 0.5"/><path id="shading-mouth1" fill="#aaaaaa" d="M1041 1343c6.1.5 12.7-1 17.5-5 1.5-1.3.9-3.7 2.8-2.9 10.1 7.9 37.9 17.4 43.8 28.2 3.6 6.5 4.6 17.5-1.8 22.6-5.6 4.5-20.8 10.8-28 15-4.9 2.8-9.7 6.6-14.7 9.3-7.4 4.1-25.5 14.5-32.6 16.4-2.9.8-5.2.8-8.1 0-14.5-3.8-42.2-22.5-56.3-30.7-6.2-3.6-21.2-9.1-23.2-15.8-5.5-18.4 15.7-28.3 28.7-35.4 2.3-1.2 15.5-8.6 16.5-8.7 2.9-.3 4.2 2.9 6.7 4.2 4.2 2.3 10 3.2 14.7 2.8-.3-5.1-3.3-11.3-1.8-16.3.5-1.6 12.5-13.9 14.5-14.4 3.9-1 8.2-.3 11.6 1.9 1 .7 10.8 11.1 11.2 11.8 2.1 5-1.2 11.8-1.5 17" class="outline shading" data-original-prefix="shading" opacity="0.5" style="opacity: 0.5"/><path id="outline-mouth3" fill="#000000" d="M889 1333c-13.5 7.3-27.4 9.4-38 21.5-7.1 8.2-19.1 26.1-18 37 .3 3.5 7.3 25.1 9.2 27.8 2.7 4 6.1 4.9 10.8 4.7-1.4-9 4.2-18.1 9.6-24.9 2.1-2.6 22-22.5 24.4-20.1-1.7 6.5-8.8 10.4-13 15.5-8.1 10-12.3 23.6-9.5 36.5 1.2 5.7 11 25.8 15 30 .7.7 7.1 6.3 7.5 6.5 3 1.5 6.9-6.1 7.8-8.2 1.7-3.8 2.1-7.7 3.7-11.3 4.4-10.2 9.4-18.4 18.5-25-5.1 13.9-9.5 44.6 1.5 56.1 4.8 5 9.9 2.7 14.3 4.7 2.8 1.3 3 5.7 4.8 6.1 2.6.6 7.2-4.9 14.1-2.1 5.2 2.1 8.6 15.6 13.9 16.1 2.5.2 10.2-12 18.4-9.4 5.6 1.8 19.1 24.8 24.4 23.5 6.1-5.4 3.7-12.4 5-19 1-4.8 6.1-10.3 7.8-15.2 3.7-10.9 1-26.5-1.9-37.5-.3-1.1-6.2-13.2-6.9-14.1-3.8-5.5-20.6-13-23-3.1-.4 1.8.2 7.9-2 7-4.8-4.4-9.5-9.2-14.5-13.5-3.8-3.3-11.2-7.6-14-11-3.5-4.3-14.5-27.1-14.7-32.2 0-3.1 8.4-13.8 10.8-16.8 1.4-1.7 10.5-12.5 11.2-12.8 6.4-3.2 28-2.3 34.7.8 8.4 3.8 12.4 12.1 18.5 17.5 5.2 4.5 2.5-1.7 2.5-3.6s.9-3.2.8-4.8c-.2-5.4-6.7-9.2-9.9-13.1-2-2.4-5.5-6.3-7-8.3-1.2-1.7-5.1-7.9-4.8-9.5.4-2.6 11.3-13.4 12.9-11.7-4.4 12.8-.7 8.7 7.3 12.2 1.2.5 3 2.7 3.2 2.7s2-2.2 3.2-2.7c3.4-1.5 9.7-.4 9.3-5.6 0-1.1-4.1-7.6-.5-6.6 2.8.8 12.1 10 11.3 13.2-6.2 9.4-13.5 17.8-21.1 26l-.8 12.7c1.7.4 2-.7 3-1.5 9.5-7.3 13.4-18 27.5-19.5 5.1-.6 23.6-.6 27.2 2.3 3.2 6.4 21.2 22.7 21 29 0 3.4-6.3 16.9-8.2 20.7-6.8 13.3-9.3 12.6-19.5 21.5-5.3 4.6-10.4 9.6-15.5 14.5-2.2.9-1.4-5.6-2.2-7.7-3.4-8.6-19-1.6-22.7 3.8-.6.9-6.2 11.4-6.6 12.4-1.3 3.6-.5 6.5-1.2 9.8-2.6 12.3-5.2 19.6.2 32.2 1.5 3.5 4.6 6.8 5.8 10.2 2.4 7.1-.8 16.6 6.6 21.1 8.3-2.8 16.9-21.3 23.6-23.5 7.7-2.4 15.9 9.6 18.4 9.4 5.6-.5 9.4-18.8 18.7-17.4 2.2.3 8.4 3.7 9.4 3.5 1.7-.4 2-4.9 4.8-6.2 3.9-1.8 8.9 0 13.3-3.7 11.5-9.9 8.1-43 2.5-56 1.6-1.6 11.3 10.4 12.4 12.1 4.9 7.6 6.1 15.6 9.7 23.3 1 2.1 4.8 9.8 7.8 8.2.4-.2 6.9-5.8 7.6-6.5 7.1-7.7 15.9-30.1 15.4-40.5-1-22.4-10.8-22.9-21.5-37.5-5.3-7.2 2.8-2.4 6 0 11.8 8.6 28 25.5 26.5 41 11.4 1.6 13.7-11.7 16.3-20.2 4.6-15.6 5.3-18.8-3.1-33.4-7.4-13-16.3-22.7-29.9-29.1-6-2.8-14.1-4.1-19.2-8.3 9.3.7 19.7 2.8 29.2 5.3 7.4 1.9 14.4 3.9 20.7 8.3 3.2 9.3 27.6 34.6 28 42 .2 3.9-8.4 23-10.2 28.7-2.4 7.4-1.3 15.8-9 20-2.1 1.1-8.8 2.4-9.5 3-3.6 3.6-1.9 26-2.2 32.3-1.2 29.7-2.2 52.7-20.5 77.5-.9 1.2-2.6 1.5-3.6 2.7-4.3 5.6-2.8 18.6-4.3 26.5-1.1 6-5 13.1-5.6 18.4-.4 3.6 1.4 7.3.2 10.1-1 2.4-9.9 8-12.6 9.5-2.2 1.2-5.7 1.5-6.5 2-.6.4-5.4 10.9-7.2 13.3-2.1 2.7-11.1 11.3-14 12.1-4.1 1.2-7.9-10.3-9.9-13s-2.3 2.3-3.6 4.3c-4.3 6.7-25.1 26.6-32.4 28.6-1.7.5-3.3.7-5 .5-.2-6.5 3.6-11.9-3-16.5-7.6-5.2-17.7 0-21.5 7.4-4.2 8.3-1.8 29.9-14.4 16.5-7.1-7.5-13-17.8-18.5-26.4-2.8 5-19.9 30.6-24 31-5.8.6-5.9-11.5-7.2-15.8-2.5-8.5-10.5-17.7-20-14.4-12.1 4.1-4.7 16.7-6.3 18.2-6 1.1-9.7-4.5-15-5-1.3 6.3-5.2 11.9-5.1 18.5.2 11.2 13.9 23.7 10.9 33.8-.8 2.7-3.4 3.2-5.5 1.4-3.7-3.3-7.9-17.8-10.4-23.1-3.8-8-11.3-14.9-9.4-23.7 1-4.7 7.9-13.9 7.6-17.4-.5-5.3-12.8-12.5-12-18.6-1.2-.2-1.3-.3-2.1.6-2.1 2.7-6.2 14.3-10.2 13.3s-12-10.2-13.7-12.4c-2.1-2.7-6.6-12.8-7.2-13.2-.7-.5-4.2-.8-6.5-2-2.5-1.3-12.6-7.8-13.2-9.9s1.2-6.2.8-9.7c-.6-5.1-4.5-11.5-5.6-17.4-1.7-8.4.3-19.9-3.9-26.1-5.9-8.8-10.5-12.8-15.3-23.7-13.6-31.3-7.5-52.3-10.1-83.9-.8-9.9-3.8-5.3-10.8-9.3-8.2-4.6-6.8-13.1-9.3-20.7-1.9-5.9-9.7-21.8-10-26.1-.2-3.3 1.1-4.7 2.5-7.3 6.8-12.4 18.9-24.3 26.1-36.9 5.9-4.3 13.2-6 20.1-7.9 9.7-2.6 19.8-4.7 29.2-5.3Zm15 128c-1.4-1.5-7.8 8.9-8.4 10.1-10.6 19.9-8.6 50.8-1.8 71.7 1.1 3.3 9.4 22.1 12.8 21.2 4.4-1.1 10.8-28.9 12.8-34.3 4.3-11.7 13.6-22.1 8.6-35.6-4.8-.6-12.2 1.2-15.9-2.9-1.4-1.5-8.5-21.7-8.8-24s.8-4 .8-6.2Zm240 103c.6-.4 6.8-10.5 7.5-12 6.2-12 8.8-32.9 9.5-46.5.8-15.3-4.1-32.2-14.6-43.5l-2.2 9.8c-4.9 13.6-4.6 25.2-23.1 22.4-5.2 13.7 4.3 23.9 8.6 35.6 3.1 8.4 6 27.5 11.8 33.2.7.7 1.4 1.8 2.4 1.1Zm-262.3-85.7c-1-.9-4.6-2-6.6-3.9-4.2-3.9-7.8-13.1-14-4.7-13.3 17.9-4.1 44.9 7 61.7 1.6 2.4 11.5 15.7 13.3 15.7.5-8 1.2-16.5.5-24.5-.4-5.4-3.1-12.3-3.1-18s6-23.3 2.8-26.2ZM1167 1547c1.7.4 2-.5 3-1.5 17.5-18 32.6-50.9 18.4-74.4-6.5-10.8-10.8-.4-16.9 4.9-2 1.7-5 1.6-5.5 4.5-.8 4.5 4 18.3 4 24s-3.3 14.8-3.6 21.2 1.6 14.6.6 21.3m-219.1-51.9c-4.7-3.3-6.5 7.1-7.7 9.6-5.3 11-11.8 23-12.2 35.8-.2 7.6 10.5 26.2 19.1 21 3-1.8 4.7-18 5-22 .4-6.4.2-41.4-4.1-44.4Zm67.8 32.2c-3.2-2.8-9.7 3.2-15.8 1.3-2.1-.7-8.7-7.5-10.5-9.5-2.6-2.9-3.4-8.8-8.2-7.4-12.2 3.5-20.5 24.1-21.2 35.9-.9 13.6 2.4 21.7 11.5 31.5 9.8 10.4 24 15.7 36.1 23h2.3c2.1-6.4 6.2-12 8.1-18.4 3.7-12.2 7.9-47.3-2.3-56.2zm23.4 74.6c1.1.7 3.4 0 4.6-.7 5.6-2.4 20.1-11.1 25.2-14.8 13.4-9.8 21.4-21.7 20.1-38.9-.9-11.9-9.2-33-22-36.1-4.4-1.1-5.5 5-8 8-1.7 1.9-7.3 7.9-9.2 8.8-9.2 4-14.3-9-20 5-5.4 13.2-2.6 37.5 1.5 51.1.7 2.2 7.1 17.1 7.9 17.6ZM885 1559c-3.2-3.3-6.4 8.4-5.8 12.3.7 4.5 5.4 23.4 7 27 1 2.2 6.2 8.5 8.7 6.7 3.4-2.4 3.2-20.7 4-25.4-.5-3.1-8.3-6.1-11-10-2.3-3.5-2.6-10.1-3-10.5Zm32 4c-1.9-2.2-11.8 12.5-12.4 14.1-1.7 4.6-3 25.2-2.4 30.3.9 7.9 5.6 18 11.4 23.6 1.4-8.8 5-18.6 5.5-27.5.8-13.1-3.7-27.1-2-40.5Zm218 68c7.1-5.4 12.1-18.8 11.8-27.5 0-2.6-1.7-5.2-1.8-8-.3-5.4.8-12.5-.5-17.5-.6-2.3-10.4-17.3-12.5-15 1.5 13.8-3.1 28-2 41.5.7 8.7 4.6 17.6 5.1 26.5Zm-35-62c-2.8 14.2-8.1 27.9-9 42.5-.3 5.3-1.4 33.3 3.6 34.4 2.4.6 18.8-13.3 20.9-15.9 8.3-10.5 3.8-32.3-1-44-1.2-2.9-11-19.9-14.5-17m-82 44c-3.5 0-6.1 2.5-9.6 2.9-12.7 1.6-29.1-13.9-41.4-16.9v24.5c0 .6 3.2 8.2 4.1 8.9 6.5 5.2 18.9-.4 24.4 5.6 2.6 2.9 4.3 10.3 10.6 5.5 1.1-.8 11.9-13.1 11.9-14.1v-16.5Zm64-13c-13.2 1.2-27.8 17.6-41.4 15.9-3.5-.4-6.1-3-9.6-2.9v17.5c0 1.1 13 14.6 15.4 14.5 4.9-.3 5.1-4.7 7.1-7 5.5-6 18.3-.4 24.4-5.6 1-.9 4-9.7 4-11v-21.5Z" class="outline" data-original-prefix="outline"/><path id="outline-mouth2" fill="#000000" d="M1122 1332c-.2 0 .2 1.6 0 1.9-1 .8-8.1-5.8-10.2-7.1-10-6.1-19.8-8.3-31.2-9.8-2.9-.4-6.9.7-9.5-.5-1.5-.8-4.5-7.4-6.5-9.5-7.8-8.7-15.6-10.2-25.8-13-1.1-.3-.6-1.9-.7-2 3.1-3.8 16.2-9.3 20.8-9.8 7.9-.9 5.5 4.4 6.5 9.1 2.3 10.7 9.3 19.6 21.3 18.8 5.1-.3 5.6-4 7.9-4.1 1.4 0 6.6 2.9 8.2 3.8 9.4 5.2 15 12.5 19.3 22.2z" class="outline" data-original-prefix="outline"/><path id="outline-mouth1" fill="#000000" d="M1011 1292s.4 1.7-.7 2c-10.2 2.8-17.4 4.1-25.4 12.5-2 2.1-5.6 9.2-7.2 9.9-3.4 1.4-13.5 1-18.1 1.8-12.5 2.1-23.6 8.7-33.1 16.9.2-.9-.5-2.8-.5-3 .7-2.3 8.9-13.5 11-15.5 2.4-2.4 14.7-10.5 17.6-10.4s3 5.1 11.9 3.9c10-1.3 16.2-10.1 17.5-19.6.4-2.6-2.4-6.7 2.8-8.2 3.5-1 21.7 5.6 24.3 9.8Z" class="outline" data-original-prefix="outline"/>
    </g><g class="trait-group" data-category="eyes" id="eyes-navigators">
      <defs/><path id="fill-eyes-skull" d="M1306.9 1006.8c-13.7 7.2-27.9 15.8-40 25.6-1.1.8-2.5 0-1.9 2.6 8.3-1.5 16.1-4.8 24.5-6 8.7-1.3 24.5-3.1 33-3 1.5 0 11.8.9 12.3 1.2 1.6.9 16.3 27.2 18.4 31.1 4 7.3 8.2 15.7 11.7 23.3 5.7 12.5 12.7 26.1 11 40.2l-22.1 10.1c-1.5.7-1 3.8-2.3 4.1-2.7.6-23.7-3.6-28.9-4.1-42.8-4.2-88.2-4.2-130.9-4.1-26.6 0-52.9 1.3-79.5 1 20-19.2 44-35.8 67.1-51.4 3.6-2.4 8.7-4.4 11.8-7.2.9-.7 3.3-2.2 1.6-3.4-31 12.5-59.9 29.4-89.8 44.2-6.6 4.5-8.7 12.7-13.4 18.8-35.1.4-70.6 2.2-105.8 1-7.7-.2-15.8-1.8-23.8-1.2-2.3-.7-8-12.4-10.7-15.3-5-5.3-39.4-22.2-48.3-26.7-6.6-3.3-38.7-19.5-43.2-19.8-.6 0-1.7-.3-1.5.5 27.3 19 56.1 37.2 80 60.5-26.2.3-52.3-.9-78.5-1-35.6 0-73.3-.2-108.9 2.1-17.6 1.1-35.1 3.8-52.5 6 0-1.1.4-2.9-.2-3.8-1-1.7-20.3-8.5-22.7-10.8-1.8-13.2 4.5-25.3 9.7-37 8.9-19.9 20.2-38.5 31.4-57.1 4 .5 8.8-1.2 12.3-1.2 8.5 0 24.3 1.7 33 3 8.1 1.2 15.5 4.5 23.5 6-4.9-5.7-11.8-10.2-18.1-14.4s-15.7-8.2-20.8-12.2c-1.3-1-2.9-2.1-3-3.9 0-1.5 4.1-10.8 5.1-12.9 16-32.3 84.7-79.8 116.5-98.5 93.2-54.7 233.8-53.4 326.2 2.4 32.8 19.8 104.9 69 116.8 105.2.4 1.3 1.7 5.2 1.2 6.1z" class="fill" fill="#ffffff"/><g id="fill-eyes" class="fill" fill="#ffffff"><path id="fill-eyes8" d="M795.8 1140.3c28.3-.6 57.5 2 85.6 5.8 25.3 3.5 69.5 10.7 89.6 26.4 21.9 17.2 39.3 55.5 26.2 82.1-8.5 17.3-25.9 40.5-37.3 56.7-15.4 21.8-38.8 56.7-61.8 69.2-93.1 50.5-204 10.9-245.9-85.2-9.4-21.7-8.6-30.5-6.1-53.8 2.3-21.5 7.7-50.4 15.5-70.5 4.3-11 8.3-14.3 19.2-18.8 27-11.1 84.5-11.3 115.1-11.9Zm-12 10c-21.1.7-46.5 1.4-67.3 3.7-72.2 8.1-73 112.8-44.3 161.3 30.4 51.4 104.8 87.8 163.8 75.2 63.1-13.5 90.4-48.9 125.8-98.2 20.8-28.9 43.3-56.4 21-92.6-17.3-28.1-49.2-39.4-80.4-43.6-38.3-5.1-79.9-7.1-118.6-5.8" class="fill" fill="#ffffff"/><path id="fill-eyes7" d="M1225.8 1140.3c33.5-1.6 79.3.8 112.7 4.7 13.6 1.6 38.9 7.4 45.7 20.3 11.3 21.3 19.6 78.7 19.9 103.2 0 11.4-11.7 35.1-17.6 45.5-45.4 80.7-143.3 110.1-227.2 71.2-21.8-10.1-29.6-19.5-44.3-37.7-19.3-23.8-51-66-64.2-92.8s4.1-64.4 25.7-81.7c27.9-22.4 112.8-31 149.3-32.7m-9 10c-10.3.4-21 .9-31.3 1.7-43.4 3.4-96.5 7.3-121 49-21.1 35.9 1.3 62.9 21.7 91.3 35.5 49.4 63.2 85.2 126.6 98.4 59.2 12.3 134-24.8 163.7-76.7 27.8-48.5 26.8-151.9-45-160-35.3-4-79.1-5-114.7-3.7" class="fill" fill="#ffffff"/><path id="fill-eyes6" d="m1139 1141-33.2 8.3-21.2 6.8c-38.8-3.2-84.1 4.1-122 0-5.6-.6-14.2-5.1-20.3-6.7-11-3-22.1-5.5-33.2-7.8l230-.5h-.1Z" class="fill" fill="#ffffff"/><path id="fill-eyes5" d="M637.9 1218.1c.7 1-2 23.1-3 23.7-4.5-.6-16.9.2-19.5-2.8s-2-22.4 1.6-24.6c2.3-1.4 17.2 3.1 20.9 3.7" class="fill" fill="#ffffff"/><path id="fill-eyes4" d="M1413.1 1241.9c-1.2-.8-3-20.5-3-23.7.6-.9 19.8-4.3 20.9-3.7 2.9 1.8 3.9 20.2 2.5 23.5-2 4.6-15.5 3.2-20.3 3.9Z" class="fill" fill="#ffffff"/><path id="fill-eyes3" d="m1042 1205-3.6 13.1c-10.1-3.1-19.1-2.3-29.3-.2-.5-3.6-3-7.9-3.1-11.4 0-2.3 0-1.2 1.5-1.5 11.2-2.3 23.2-.8 34.5 0" class="fill" fill="#ffffff"/><path id="fill-eyes2" d="M730.8 1163.3c30.7-2.5 65.6 3.5 96.7 1.7 46 3.6 120.3-1 147.3 45.7 17.8 30.8-18.3 78.3-38.3 101.3-39 44.9-89.2 83.1-152.5 67.5-74.3-18.3-123.1-70.5-118-150.1 2.5-39.8 25.2-62.9 64.8-66.2Z" class="fill" fill="#ffffff"/><path id="fill-eyes1" d="M1298.8 1163.3c46.4-.5 79.7 13.8 83.2 65.2 4 57.5-21.2 106.9-72.3 133.7-82.6 43.2-141.7 15-198.2-50.2-21.2-24.4-57.9-72.4-36.3-104.3 28.6-42.2 94.3-39.8 139.3-41.7 27.9-1.2 56.3-2.4 84.3-2.7" class="fill" fill="#ffffff"/></g><path id="outline-eyes15" d="M1371.5 1187c15.8 20.8 15.5 53.3 12.4 78.3-3.5 28.1-20.7 62.2-42.4 80.6-29.5 25.1-78.3 42.7-117 40.1-4.8-.3-30.8-5.2-33-8-1.1-1.5-.2-1.6.5-2.6 2.9-4.1 8-9.4 11.5-13.5 52.6-61.5 109.8-118.9 168-175Z" class="outline" fill="#000000"/><path id="outline-eyes14" d="M983 1229c.3.3 4.8-.2 6 0-.9 16.8-8 28.2-16.8 41.7-38.5 59.1-94.4 120.9-171.8 115.3-2.8-.2-19-2.7-19.5-4.6 55.7-67.3 117-129.7 180-190 3-1.4 7 3.8 9 6 5.4 5.9 11.3 15.4 12.7 23.3.3 1.9 0 8 .2 8.3z" class="outline" fill="#000000"/><path id="shading-eyes13" d="M948.5 1139c-.8-.2-9-11.1-11.5-13.5-50.3-47.6-115.6-76.4-179.7-100.3-5.5-2-29-7.5-31.3-10.6-2.9-4 2.2-9.9 4.6-13.5 27.2-39.6 72-78.2 113.1-102.9 30.2-18.1 63.6-34.2 98.3-41.2-12 12.1-28.8 18.2-42.9 27.6-25.7 17-51.7 48.9-68.1 74.9-3.8 6.1-18.6 31.3-18.8 37-.7 18.9 17.8 39 30.3 51.5 39.3 21 81 39.4 116.3 66.7L972 1139c-6.1-1.1-18.3 1.5-23.5 0" class="shading" fill="#aaaaaa" style="opacity: 0.5" opacity="0.5"/><path id="shading-eyes12" d="m1076 1139 13.2-24.3c35.2-27.4 77.1-45.7 116.3-66.7 7.5-5.6 25.1-28.4 27.8-37.2 4.8-15.3-1-24.5-8.1-37.5-16.5-30.1-47.7-69.7-76.3-88.7-14.2-9.5-31-15.2-42.9-27.6 31.9 6.4 62.5 20.8 90.7 36.8 45.1 25.7 89.8 63.8 119.7 106.3 2.5 3.5 9 10.9 5.3 14.7-3.2 3.3-24.9 8.2-31 10.5-61.1 22.6-111 44.7-162.2 85.8-10.5 8.4-21.5 16.6-29 28H1076Z" class="shading" fill="#aaaaaa" style="opacity: 0.5" opacity="0.5"/><path id="outline-eyes11" d="M834 1163c-8.3-1.4-9-.6-15 4.5-35 29.6-73.6 71.6-106 105-8.7 9-23.2 28.2-32.5 34.5-.8.6-1 1.4-2.5 1-2.5-7.6-7.4-14.1-9.7-21.8-6.7-21.9-8.3-63.1-.2-84.6 13.7-36 45.5-43.2 80.9-41.6l-10-3 9.5-2c21.9 1.2 50.7-5.5 71.9-2 3.9.7 11 6.7 13.5 9.9Z" class="outline" fill="#000000"/><path id="outline-eyes10" d="m1309 1156-17.5 5c-20.2-.4-40.3.8-60.5 1.5-46.6 43.1-90.8 88.6-134.7 134.4-2.1.6-2.6-.7-3.7-2-6.2-6.7-24.5-34.5-28-42.9-3-7.2-4.7-15.2-5.5-23 9 1.1 5.1-1.7 6.2-8.3 9.6-53.8 105.4-58.7 147.1-57.9 14.6-14.7 31.6-8.7 50.2-9.8l46.4 3.1Z" class="outline" fill="#000000"/><path id="outline-eyes9" d="M943 1178c1 1.3-6.1 7.7-7.5 9-13.4 12.8-27.7 25-41 37.9-48.2 46.9-93.4 96.9-136.5 148.6-2.6 1.6-23.9-7.9-25.5-10.5-.8-1.2-.5-1.7.5-2.6 35.6-35.7 70.3-72.3 106.5-107.5 25.7-25 55.1-55.1 82.5-77.5 1.3-1 3.8-3.3 5.3-3.3 3.9 0 11.5 4.9 15.7 5.8Z" class="outline" fill="#000000"/><path id="outline-eyes8" d="M1341.6 1164.2c1.9-.2 11.9 4.6 13.7 5.9 1.1.8 2.4 1.3 1.2 2.9-66.7 59.6-128.7 124.4-186 193.1-.6.5-1.2.9-2 .9-1.3 0-18.5-11-19.6-12.4-1.2-1.5-1.4-2.6 0-4.1 51.6-52.4 103-105.1 157-155 4.3-4 33.3-31 35.7-31.2Z" class="outline" fill="#000000"/><path id="shading-eyes7" d="M801 1138c-30.9-.6-61.5 2.8-92.4 3.9l-35.3-17.7c-4.1-1.8 2.4-3.2 3.6-4.8l15.1-28.9c12.1 0 26.8-3 37.7 2.3 18.4 9 42.8 24.4 60.2 35.8 1.3.9 12.9 7.8 11.1 9.4" class="shading" fill="#aaaaaa" style="opacity: 0.5" opacity="0.5"/><path id="shading-eyes6" d="M1376 1124c-.3.4-6.9 2.3-8.4 3.1-5.9 3.1-23.2 14-28.2 14.8-10.7 1.7-33.8-2.4-45.9-3-7.3-.4-14.8-.7-22-1-8.2-.3-16.4.3-24.5 0-1.8-1.7 9.8-8.6 11.1-9.4 16.7-10.8 35.9-22.1 53.2-31.8 3.3-1.9 9.9-6.2 13.2-6.8 3.2-.5 30.1-.4 31.4.4 5.4 6.6 10 24.3 15.5 29.5 1 1 5.9 2.1 4.4 4z" class="shading" fill="#aaaaaa" style="opacity: 0.5" opacity="0.5"/><path id="shading-eyes5" d="M1085 1159c-2.1 6.6-7.9 8-12.5 12-2.6 2.3-5.8 5.4-8 8-5.4 6.1-10.8 18.1-15.6 22.4-4.3 4-3.8.8-6.5.6-5.1-.4-10.4 0-15.5-1.1-.7-.6 3.8-11.5 5.4-13.1 3.6-3.3 12.5-2.7 17.6-7.4 4.1-3.7 11.5-20.5 13.9-22.1 2.8-1.8 16.5 1.9 21 .5z" class="shading" fill="#aaaaaa" style="opacity: 0.5" opacity="0.5"/><path id="shading-eyes4" d="M1020 1201c-4.4 1.1-8.9.7-13.4 1.1-3.4.3-3.2 3.3-7.5-.6-4.7-4.3-10.2-16.4-15.6-22.4-2.3-2.6-5.4-5.6-8-8-4.3-3.9-10.9-5.7-12.5-12 4.5 1.4 18.2-2.3 21-.5 2.6 1.6 9.8 19.1 14.9 23.1 4.4 3.3 13.5 3.5 16.1 5.9 1.5 1.4 6.4 12 4.9 13.5Z" class="shading" fill="#aaaaaa" style="opacity: 0.5" opacity="0.5"/><path id="shading-eyes3" d="M1045 1248c-1.7.4-2-.7-3-1.5-5.3-4-9.4-10.7-14.5-14.5-2.7 1.4-6.1-.6-8.5.5-1.5.7-14.2 17.6-16 15.5-.6-3.2 1-6.3 1-9.4s-1.4-12.4-.6-13.6c.6-.8 7.9-2.9 9.1-2.8 2.1 0 7.1 3.7 11 3.8 4.7 0 9.2-3.8 11.9-3.8s8.2 2.1 8.5 2.4c2.2 1.6 0 7.1 0 10 0 4.8 1 8.9 1 13.5Z" class="shading" fill="#aaaaaa" style="opacity: 0.5" opacity="0.5"/><path id="shading-eyes2" d="M945 856c.7.3-.6 1.7-2 1-.7-.3.6-1.7 2-1" class="shading" fill="#aaaaaa" style="opacity: 0.5" opacity="0.5"/><path id="shading-eyes1" d="M1105 856c.7.3-.6 1.7-2 1-.7-.3.6-1.7 2-1" class="shading" fill="#aaaaaa" style="opacity: 0.5" opacity="0.5"/><g id="outline-eyes" class="outline" fill="#000000"><path id="outline-eyes1" d="M783.8 1150.3c38.7-1.3 80.2.7 118.6 5.8 31.2 4.2 63.2 15.5 80.4 43.6 22.3 36.3-.2 63.7-21 92.6-35.4 49.2-62.7 84.7-125.8 98.2-59.1 12.6-133.4-23.8-163.8-75.2-28.7-48.5-27.8-153.2 44.3-161.3 20.8-2.3 46.1-3 67.3-3.7m-53 13c-39.6 3.2-62.3 26.4-64.8 66.2-5.1 79.5 43.7 131.7 118 150.1 63.3 15.6 113.5-22.6 152.5-67.5 20-23 56.1-70.5 38.3-101.3-27-46.8-101.2-42.2-147.3-45.7-31.1 1.8-66-4.2-96.7-1.7Z" class="outline" fill="#000000"/><path id="outline-eyes2" d="M1216.8 1150.3c35.6-1.3 79.4-.2 114.7 3.7 71.8 8.1 72.9 111.5 45 160-29.7 51.8-104.5 88.9-163.7 76.7-63.4-13.2-91.2-49-126.6-98.4-20.4-28.4-42.8-55.5-21.7-91.3 24.6-41.7 77.6-45.6 121-49 10.3-.8 20.9-1.3 31.3-1.7m82 13c-28 .3-56.4 1.5-84.3 2.7-45 1.9-110.7-.5-139.3 41.7-21.6 31.9 15.2 79.9 36.3 104.3 56.5 65.1 115.6 93.3 198.2 50.2 51.2-26.7 76.3-76.2 72.3-133.7-3.5-51.4-36.8-65.7-83.2-65.2" class="outline" fill="#000000"/><path id="outline-eyes3" d="M1330.1 993.9c1.1.8 5.5-3.3 11.9.6 17.4 10.7 40.7 59.5 47.8 79.2 4.6 12.8 16.5 49.5 14 61.5-1.8 8.7-9.9 7.3-16.8 8.2 18.8 13.2 15.7 40.6 22 60.5 6.6-1.3 15-5.8 21.6-5.9 1.7 0 8.3 2.1 9.1 3.2 1.1 1.4 5.5 20.4 6 23.5 1.2 8.1 3.7 24-6 27.4-3.5 1.2-23.8 3.9-24.7 4.8 2.4 15.6-3.5 33.5-9.6 47.9-33 77.8-114.3 114.1-195.9 108-24.3-1.8-73.4-21.1-90-39-30-32.3-64.7-86.5-85.7-125.3-2-3.8-5.9-6.9-6.9-11.6-5.6-2-5.9 3.6-8.6 7.6-27.5 40.9-52.2 84.6-84.3 122.7-18.6 22.1-43.4 32-70.8 40.2-46.9 14.1-119.7.8-159.5-27.9-29.6-21.3-56.5-55.8-66.9-91.1-3.2-10.7-6-20.5-3.8-31.7-16.2-5-32.7 1.1-32-21.6 0-4.6 5.2-31.5 7.3-34.2.8-1 7.4-3.2 9.1-3.2 6.6 0 15 4.6 21.6 5.9 6.3-19.9 3.2-47.4 22-60.5-21.1.6-16.5-13.9-13.7-28.7 6.8-35.9 27.2-85 51.3-112.7 2.4-2.7 10.4-10.5 13.7-9.9 1.4.2 4.3 2.8 5.7 1.8.4-.3 3.5-6.5 5.1-8.4 78.4-96 169.4-147.3 295.5-148.6 130.6-1.4 230.4 50.6 309.9 153.1.9 1.1 1.4 3.8 1.6 3.9zm-23.2 12.9c.5-.9-.7-4.8-1.2-6.1-11.9-36.2-84-85.4-116.8-105.2-92.4-55.8-233-57.1-326.2-2.4-31.9 18.7-100.5 66.1-116.5 98.5-1 2.1-5.2 11.4-5.1 12.9 0 1.8 1.8 2.9 3 3.9 5.2 3.9 14.7 8.1 20.8 12.2s13.2 8.7 18.1 14.4c-8-1.4-15.4-4.8-23.5-6-8.7-1.3-24.5-3.1-33-3-3.5 0-8.3 1.7-12.3 1.2-11.2 18.6-22.5 37.2-31.4 57.1-5.2 11.7-11.5 23.8-9.7 37 2.4 2.3 21.7 9.2 22.7 10.8.6.9 0 2.7.2 3.8 17.4-2.2 35-4.9 52.5-6 35.7-2.3 73.3-2.2 108.9-2.1 26.2 0 52.3 1.3 78.5 1-23.9-23.3-52.7-41.5-80-60.5 0-.8.9-.6 1.5-.5 4.5.3 36.6 16.6 43.2 19.8 8.9 4.5 43.4 21.3 48.3 26.7 2.7 2.9 8.3 14.6 10.7 15.3 8-.5 16.1 1 23.8 1.2 35.2 1.1 70.7-.6 105.8-1 4.7-6.1 6.7-14.3 13.4-18.8 29.9-14.8 58.8-31.6 89.8-44.2 1.7 1.2-.7 2.7-1.6 3.4-3.2 2.7-8.2 4.7-11.8 7.2-23.1 15.6-47.1 32.2-67.1 51.4 26.6.3 52.9-.9 79.5-1 42.7-.2 88.1 0 130.9 4.1 5.1.5 26.1 4.7 28.9 4.1 1.3-.3.8-3.5 2.3-4.1l22.1-10.1c1.7-14.1-5.3-27.7-11-40.2-3.4-7.6-7.7-16-11.7-23.3-2.1-3.9-16.8-30.2-18.4-31.1-.5-.3-10.8-1.2-12.3-1.2-8.5 0-24.3 1.7-33 3-8.4 1.2-16.2 4.5-24.5 6-.6-2.6.8-1.8 1.9-2.6 12.1-9.8 26.3-18.3 40-25.6zm-511.1 133.5c-30.6.6-88.1.8-115.1 11.9-10.9 4.5-14.9 7.8-19.2 18.8-7.9 20.1-13.2 48.9-15.5 70.5-2.5 23.3-3.3 32.2 6.1 53.8 41.8 96 152.8 135.7 245.9 85.2 23-12.5 46.4-47.5 61.8-69.2 11.5-16.2 28.8-39.4 37.3-56.7 13.1-26.6-4.3-64.9-26.2-82.1-20.1-15.8-64.3-23-89.6-26.4-28.1-3.8-57.2-6.4-85.6-5.8zm430 0c-36.4 1.7-121.3 10.3-149.3 32.7-21.6 17.3-38.7 55.3-25.7 81.7s44.9 69 64.2 92.8c14.7 18.2 22.5 27.6 44.3 37.7 83.9 38.9 181.8 9.5 227.2-71.2 5.9-10.4 17.7-34.1 17.6-45.5-.2-24.5-8.6-81.9-19.9-103.2-6.8-12.9-32.1-18.7-45.7-20.3-33.4-3.9-79.2-6.3-112.7-4.7m-86.8.7-230 .5c11.1 2.2 22.3 4.8 33.2 7.8 6.1 1.7 14.7 6.1 20.3 6.7 38 4.2 83.3-3.2 122 0l21.2-6.8 33.2-8.3h.1Zm-74 26h-82c4.9 2.9 14.9 21 18 22.5 1.3.7 7.5 1.4 9.5 1.5 5.9.4 33.5.6 37.1-2 4.4-3.1 11.4-18.2 17.4-22.1Zm-23 38c-11.3-.8-23.3-2.3-34.5 0-1.4.3-1.6-.8-1.5 1.5.2 3.5 2.6 7.8 3.1 11.4 10.2-2.2 19.2-2.9 29.3.2zm-404.1 13.1c-3.7-.6-18.6-5.1-20.9-3.7-3.6 2.2-4.2 21.6-1.6 24.6s14.9 2.2 19.5 2.8c1-.6 3.7-22.7 3-23.7m775.2 23.8c4.8-.7 18.3.7 20.3-3.9 1.4-3.3.4-21.8-2.5-23.5-1.1-.6-20.3 2.8-20.9 3.7 0 3.2 1.8 22.9 3 23.7Z" class="outline" fill="#000000"/></g>
    </g><g class="trait-group" data-category="right ear" id="right ear-OG">
      <path id="fill-ear-rt1" fill="#ffffff" d="M1715.7 184.2c3.2-.7 6.5-.5 7.2 3.3 2.3 39.5-3.6 77.2-9 116-.7 4.7-.2 11.1-1.1 15.9-5 26.9-24.5 58.9-29.7 86.3-5.7 30.4-4.7 64.8-10.9 95.1-7.8 38.3-25.1 77.8-33.7 116.4l-71.9 122.1c-45.8 31.3-94.9 58.3-141.8 88.2l-35 81-84.6 77.3c-5.6 2.9-16.3-.8-22.4-2.4-27.7-7.2-48.3-18.1-70.9-35.1-16.5-12.5-27.2-20.9-37.6-39.4-6-10.5-10.9-22.9-14.5-34.5 26.8-59.3 58.7-116.4 86.8-175.2 4.9-58.7 6.7-117.8 11.4-176.5 36.5-47.5 77-92.5 114.8-139.2 47.2-35.9 96.4-69 144.9-103.1 66.1-31.9 127.9-72.1 197.8-96.2z" class="fill" data-original-prefix="fill"/><path id="shading-ear-rt1" fill="#aaaaaa" d="M1670.9 280.1c2.8 3.9-18.7 26.3-21.9 30.5-38.8 50.2-75.5 128.6-72.1 193 .8 14.1 7.3 33 2.8 45.7-3.7 10.4-14 27.3-15.4 37.7-.4 2.9.9 5.2.6 8 10-1.2 15.8-10.8 21.2-18.3 17.3-24.1 30.1-53.1 43.5-79.5 1.1-2.2 1.5-2.2 1.2.2-.8 9.2-6.8 26.8-9.7 36.3-15.4 50.2-37.8 100.7-66.2 144.8-15.3 23.7-22.2 32.4-46.1 47.9-25.3 16.4-36 17.1-63.9 25.1-14.1 4.1-56 16.5-65.5 25.5-11.9 11.1-30.7 52.3-40.3 68.7-13.5 23-27.7 45.9-43.8 67.2-3.6 4.8-10.5 10.9-13.3 15.7-5.6 10-6.8 27-11.1 37.9 7.3-4.2 14.2-10.7 20.5-16.5 12.8-11.9 26.4-25.8 38.5-38.5s33.6-33.7 41.2-48.8c7.8-15.6 13.6-33 21.3-48.7 14.9-4.8 30.4-7.3 45.1-12.9 49.9-18.9 92.7-57.3 134-90 1.4-.3 1.9 0 1.5 1.5-.9 3.2-10.1 20.8-12.2 23.8-4.2 6-36.3 28.6-44.5 34.5-29 20.7-59.7 39.2-87.9 61.1-15.7 27-28.8 55.8-43.5 83.5l-80 71c-6.2 2.7-28.5-4.8-35.8-7.2-32.1-10.8-54.1-27.3-79.9-48.6-8.9-15.6-7.9-22.5 2.7-36.2 24.9-31.8 50.6-57.8 73.4-92.6 33.1-50.5 54.8-106.4 86.2-157.8 11.1-18.2 27.9-36.1 31.3-57.7 1.4-9.1 1-19.2 1.1-28.4l54 6.5c10.6 14.3 17.8 31 26.5 46.5.8-.4 10.6-11.5 11.3-12.7 4.2-7.8 8.8-30.6 10.8-40.2 5-24.6 7-49.5 8.5-74.5 1.9-20.4-5.1-39.9 3.1-58.9 17.4-40.4 50.1-78.2 81-109l66.7-44.4c3.2-.7 24.4 7.8 25.2 8.9Z" class="outline shading" data-original-prefix="shading" opacity="0.5" style="opacity: 0.5"/><path id="outline-ear-rt2" fill="#000000" d="M1204 941c-.6 2-3.1 0-4-.5-7.8-4.3-18.2-9.3-23.9-16-10.4-12.2-18.1-29.9-28.5-42.5-1-3-.7-7.3-.5-10.5.9-20.4 12.5-34.1 20.8-52.2 6.3-13.5 12.6-35.7 19.9-47 2.7-4.1 7.2-7.8 10-12 31.9-46.3 39.4-118.5 44.2-173.8 1.8-21.4.9-43.9 3-65 .7-7 2.4-6.2 5.4-10.6 39.7-59.4 85.7-117.4 135.1-168.9 20.3-21.2 36.1-32.5 60.6-48.4 72-46.8 150.7-85.5 232.4-112.6 12.3-4.1 26.8-8.2 39.5-10.5 12.2-2.1 12.3-3.8 15.3 8.7 7.3 30.4 1.8 91.6-1.3 124.3-.9 9.8-3 31.1-6.5 39.5-3.3 7.9-15.6 18.9-20 29-10.5 24-19.4 81.7-16.4 107.4.7 6.2 5.5 13.1 5.9 18.2.7 9.9-12.8 55.2-16.7 67.2-35.3 109.6-95.4 197.5-196.6 254.4-11.5 6.5-25.5 10.6-34.7 20.3-19.6 20.7-27.1 49.3-38.8 74.2-6.1 12.9-28.9 26-40.2 36.8-2.7 2.6-4.6 5.8-7 8-6.6 6.3-28 29.3-33.5 32.5-2.3 1.4-20.6 4.8-23.6 4.5-9.8-.9-50.7-16.5-58.9-22.1-1.6-1.1-2.9-2.4-3-4.5 7.7 2.8 23.6 7.2 31.6 7.9 22.6 2 43.2-12 60.7-25.1 35.1-26.1 71-71.5 81.2-114.8 1.9-8-1.7-7.6 6.1-13.9 33.8-27 77.5-40.2 111.3-70.7 68.7-61.7 111.2-146.9 130.5-236.5 6-27.8 3.2-52.9 6.5-80.5 3.3-27.4 13.9-73.5 26.1-97.9 5.5-11 10.8-15.4 13.6-28.4 3-14.4 5.4-31.2 7.2-45.8 3-24.6 4.6-49.6 2.1-74.4-1.9-1.9-45.3 15.5-50.7 17.8-67.7 29.8-139.1 73.4-201.2 113.8-57.2 37.1-99 74-142.1 126.9-15.7 19.3-36.9 44.4-50.5 64.5-13.7 20.4-13.2 63.6-15.6 88.4-3.2 33-4.2 70.9-9.1 102.9-2.9 18.7-26.7 65.7-36 85-6.8 14.1-16.8 28.5-23.1 42-6.3 13.7-9 29.6-15.7 43.3-3.2 23.3 13.4 51.1 28.9 67.4z" class="outline" data-original-prefix="outline"/><path id="outline-ear-rt1" fill="#000000" d="m1695 240-22.5 39c-48.8 30.2-87.3 71.4-110.7 124.3-14.5 32.8-25.8 88.9-11.3 122.7 1.2 2.9 6.7 10.6 6.3 12.3-21.1 26.6-32.9 59-41.6 91.5-2.4 8.9-8.5 47.6-11.4 51.6-2.7 3.7-14.2 13.2-18.4 16.6-14.8 12-38.3 27.6-55.4 35.6-2.5 1.2-5.2 2.5-8 2.5 2.8-6.9 6.8-13.1 9.5-20 11-27.9 12.1-62.7-8-87-19.2-23.2-26.3 5.7-31 22-5.4 18.8-8 37.1-8.2 56.8-42.8 42.2-76.4 95.5-104.5 148.6-12.4 23.3-33.8 63.7-30.8 90.2.6 5.4 4.2 10.1 5 15.5-2.3 2.3-27.8-19.3-28.8-22.7-.6-2-.3-4.7-.2-6.8.2-5.2 1.3-20.2 2.5-24.5s15.1-20.8 18.8-26.2c34-50.1 53.3-108 86.4-159.6 11.5-18 28.4-31.6 37.6-51.4 8.3-18 20.8-76 17.2-94.5-.8-4-10.4-27.1-9.3-28.1 7.5 2.8 14.7 6.9 21.7 10.8 6 3.4 32.8 18.5 35.4 22.6 3.1 5 9.5 27.5 11.5 34.5 2.3 8.3 6.6 35 11.4 39.5 13.2 12.3 30.8-13.9 36.2-23.9 25.8-47.2 33.3-96.7 25.7-150.1-1.2-8.7-7.4-28.3-6.7-35.9s16.9-39.6 21.3-47.8c22.4-41.7 46.9-64 80.1-96 8.8-8.5 21.4-24 30.5-30.5 5.6-4 14.3-6.6 20.3-10.7 3.7-2.5 26.2-24 29.7-20.8h-.3Z" class="outline" data-original-prefix="outline"/>
    </g><g class="trait-group" data-category="left ear" id="left ear-lop-eared">
      <path id="fill-ear-lft" fill="#ffffff" d="M594.7 816.3c-2-1.6-9.6-2.2-11.2-.3-1.2 1.5-7.1 22-8.7 26.3-5 13.4-11.3 26.2-16.5 39.5-4.5 11.3-6.1 33.4-24.5 26-7-2.8-24.8-26.8-30-34-16-22.3-30.6-47.2-45.8-70.2-39-59.2-74.4-111.4-98.8-179.2-9.6-26.8-15.4-43.5 1.9-68.6 23.3-33.7 61.6-64.8 95.5-87.5 28.2-18.9 84.4-32 118.3-39.7 24.1-5.5 52.8-14.8 76.3-6.3 34.6 12.6 112.7 57.7 134.2 86.9 11.9 16.2 14.4 48.2 16.6 68.4 4.4 40.2 2.4 79.8 10.5 119.5 5.7 28.4 15.5 63.5 25.3 90.7 9.5 26.8 26.4 56.8 33.6 83.4 2.7 9.8 2.8 21.2 5.4 31.2-20.8 30.1-50.2 57.8-83.8 73.1-4.5 2-23.1 9.9-26.7 10.3-8.6 1-32.2-11.5-40.2-16.4-30.9-19-65.2-41.9-82.2-74.8-5.7-10.9-9.1-24.8-15-35-4.8-8.3-17.4-24.5-23.9-32.1-1.8-2.2-8.6-9.9-10.3-11.2" class="fill" data-original-prefix="fill"/><path id="shading-ear-lft" fill="#aaaaaa" d="M354 607c25 10.2 48.3 24.2 72.6 35.9 13.7 6.6 30.3 16 45.8 13.1 5.7-1 44-29.1 51.4-34.6 19.1-14.1 38.4-29 55.6-45.4 2.4-2.2 16.9-16.4 17.3-17.8.2-.7-.8-13.9-1-14.6-.7-2.1-5.4-2.5-4.8-5.7l112.4-.9c3 1.7 3.4 7.8 3.7 11.3 2.7 38-6.9 75.6 4.2 112.8 21 70.3 74.6 151.5 121.2 207.8 7.2 8.7 29.7 30.3 31.3 39.7 1.2 7.2-.9 6.5-3.2 11.4-7.5 16.4-34.7 36.9-50.7 46.3-9 5.3-27.2 14.4-36.9 17.2-1.4.4-2.6.7-4 0-24.5-12.8-50.2-23.4-74.5-36.6-30.1-44.6-58.6-90.2-95.4-129.6-2.7-2.4-13.6-3.8-15.6-1.4l-48.6 89.4c-2.6 4.2-8.5-3.4-10.8-5.9-25-26.8-47.5-67.8-68-99-14.6-22.2-30.2-43.3-43.8-66.2-23.6-39.9-44.2-83.1-58.2-127.3Zm423 360c-4.3-10.8-5.6-28.6-11.1-38.3-4.3-7.6-16.3-19.5-22.2-27.8-12-16.6-23.4-35.5-33.8-53.2-13.5-23.1-33.6-71.9-57.8-82.2-8.1-3.4-11.8-1.6-19.5-2.5-6.2-.7-12.2-2.2-18.4-2.9l-17.1 35.8c6.1 2.2 12 5.3 18.2 7.4 10.5 3.6 38.2 7.9 44.8 14.2 7.1 6.7 12.3 40.6 19.5 52.5 6.6 11 30 33.7 39.9 44.1 14.9 15.5 36.1 38.7 53 51 1.3 1 2.7 2.2 4.5 2Z" class="outline shading" data-original-prefix="shading" opacity="0.5" style="opacity: 0.5"/><path id="outline-ear-lft" fill="#000000" d="M844 941c3.5-3.7 9.5-11.8 12.4-16.1 4.8-7.2 16.4-28.2 15.6-36.3-16.8-39-30.3-79.4-48.1-118-7.2-15.6-22.5-39.6-25.4-55.6-1-5.8 0-11.7-.5-17.5-3.3-45.1-7.7-135.4-25.5-174.5-3.3-7.2-25.2-24.6-32.6-30.4-33-26-70.9-45.4-110.4-59.7-68.6 7.7-172.2 32-218.5 86.6-11.6 13.7-35.4 43.8-42.8 59.2-2.8 5.7-1.1 5.2-1.1 9.9-.6 34.1 31 102.7 47.4 134.5 23.4 45.3 67.4 118.5 102.5 154.5 3 3.1 13.8 12.9 17.6 13.5 1.7.3 4.6-6.1 5.3-7.7 14.2-30 26.4-60.7 41-91 5.7-11.9 11.2-28.3 17.9-39.1 10.4-16.5 24.8-29.7 35.4-48.6 8.3-15 26.4-54.2 27.8-70.3.8-9.2-9.5-29.1-14.5-37.3-14.7-24.4-35.8-45.3-60.4-59.6-2.6-2.3 3.1-7.7 5.1-8.9 6.8-4.5 36.1-12.8 44.5-13.5 17.3-1.5 48.8 8.1 63.5 17.5 5 3.2 7.9 6.1 7 12.5-15-2.5-40.6-15.3-47.5 6-7.2 22.3 16.6 48.8 27.5 66.5l-7.8 55.7c4.9 9.7 11.4 18.4 18.3 26.7 10.7 12.9 16.5 19.9 25.3 34.7 27.2 45.4 45 96.6 73.8 140.2 5.2 7.8 23.4 29.6 24.3 36.7 1.1 8.3.3 18.2 1.9 26.7-1.8 3.8-26.4 25.2-28.8 22.7 1-5.6 4.4-10.8 5-16.5 2.2-21.2-16.5-60.3-26.5-79.5-23.8-45.9-52.8-93.3-86-133-5.4-6.5-16.8-16-20.5-22.5-1.2-2-1.5-4.3-2-6.5l-62 104c4.1 1.2 8.2 4.3 11.7 6.8 2.7 1.9 14.1 10 15.3 11.7 3 4.1 6.3 16.5 8.8 22.2 7.7 17.2 25.2 54.7 36.7 68.3 7.1 8.4 25.7 22.7 35 30 24.3 19.3 37.5 32 71 29 9.3-.8 17.4-5.9 26.5-6-10.1 6.5-41.4 22.8-52.5 23s-39.2-12.2-49.4-18.6c-13.5-8.5-21.1-19.2-32.6-29.4-11.3-10-27.4-17.4-33.7-31.3-7-15.8-10.7-29.5-19.7-45.3-6.6-11.7-14.4-24.6-24.7-33.3l-4.9 5.1c-15.5 20.1-21.9 45.4-27.1 69.9-3 14.1-5.4 28.6-5.5 43-2.8 3.2-28.5-20.2-31.5-23-80.1-74.1-140.5-192.9-177.2-294.8-2.9-8.2-11.2-27.8-12.1-35-1.2-10.5 17.8-49.1 23.6-59.9 8.7-16.2 21.8-38.5 33.7-52.3 17.9-20.8 63.6-38.8 89.5-49.5 41.3-17 119.9-46.1 163.2-35.2 14 3.5 51.2 30.2 65.3 39.7 21.7 14.6 45.1 30.3 65.4 46.6 5.8 4.7 23.5 19 26.2 24.8 4.2 9.2 1.4 36.4 1.9 48.1 2.4 62 10.9 128.3 38.9 184.1 5.6 11.2 13.7 22 19.1 32.9 6.1 12.4 10.3 26.9 16.3 39.7 9.2 20.1 20.9 33.1 21.8 56.2 0 2.2.4 4.4-.5 6.5-13.3 16.2-22 40.8-39.8 52.2-4.6 3-11.3 6.6-16.7 7.8Z" class="outline" data-original-prefix="outline"/>
    </g><g class="trait-group" data-category="head" id="head-beanie">
      <path id="fill-head" fill="#ffffff" d="M1437.8 997.2c1.5 10.8 6.9 23.4 7.3 34.2.8 24.7-7.3 53.7-7 79 4.1 17.6 17.2 38.4 20.4 55.5 1.8 9.5-2.1 8.7-9.3 11.8-36.2 15.4-75.3 27.4-112 42l-247.8 31.2c-46.9.5-94.5 3.1-141.1-1.8-79.7-8.4-159-20.8-238.6-29.4L593 1175.4c-2.4-.8-4.1-2.8-4.8-5.2l21.8-60.9c-1-23-5.6-46.1-6.9-68.9-.9-15.1 4-28.8 7.2-43.2l35.2-12.3 140.9-201.6 237.4-102.1L1261.6 784l140.5 200.5 35.8 12.7z" class="fill" data-original-prefix="fill"/><path id="shading-head2" fill="#aaaaaa" d="M1445 1131c1.4 0 1.6 1.5 2 2.4 5 11 7.3 23.4 12.8 34.3.4 2.3-.4 4.9-1.8 6.7l-118 45-251.5 31.5c-127.5 8.3-252.8-17.6-379-31.1l-117.6-44.4c-2.7-.9-4-3.3-4-6l13-37.5c2.2-2.1 8.8 12.9 10 14.2 4.1 4.8 17.7 7.8 23 5.3 2.8-1.4 9.9-20.3 10.7-24.3 1.7-7.9 4.8-65.4 9.8-66.3 2-.3 6.8 2.8 7.2 4.7-1.2 9.6-3.1 19.3-3.8 28.9-1.4 20-1.9 59.6 7.8 77.2 4.1 7.4 25.4 16.1 33.6 15.3 4.3-.4 11.1-7 13.4-10.7 3.9-6.3 12.4-35 14-43 3.1-16.3.8-43 6.3-57.7 1.4-3.8 8.3-9 11-12.5-.7 5.9-2.2 11.7-2.9 17.6-3 26.8-2.7 57.8-1.2 84.9.3 4.8 1.1 14.2 2.5 18.4 3.1 8.8 16.9 15.6 25.2 18.8 31.8 12.2 67.1 10.4 73.2-29.4 4.2-27.3 4.2-57.3 7.1-84.9 0-.8.8-4.7 1.5-4.5l12.3 8.6c-.4 4.7-1.7 10.3-1.9 14.9-1 27.3-.9 73.8 5.3 99.8 2 8.5 6.2 11.3 14.3 13.7 8.7 2.6 38.3 6.9 46.8 5.9 11.9-1.3 15.8-6.3 20.1-16.9 4.5-11.4 7.5-37.7 8.5-50.5.4-4.7-1.5-28.5 2.6-29.5 1.2-.3 8.5 4.9 10.5 5.7 0 18.3 4.2 36 6.8 54 2.2 14.9-1 29.1 16.1 36.9 10.9 5 50.9 5.2 62.3 1.3 20.9-7.2 17.3-21.9 19.8-39.2s6.8-35 6.8-53c2.1-.9 8.9-6 10.5-5.6 4.2.9 2.2 25.6 2.6 30.4 1.1 13.9 4.1 40.9 10 53 4.2 8.7 7.9 12 17.8 13.2 8.9 1.1 46.4-4.1 54.1-8.4 3.6-2 5.1-3.4 6.6-7.4 2.8-7.5 5.1-29.8 5.6-38.4.6-11.4.9-23.6 1-35 .2-15 .2-30-1.9-44.9.6-2.4 10.2-6.4 12.4-8.7.9 1.4 1.3 3.8 1.5 5.5 2.5 27.3 2.8 58.1 7.1 84.9 6.3 39.2 42.9 40.3 73.9 28.1 12-4.7 24.2-11.2 25.9-25.1 2.7-22 2.2-51.8 1.1-73.9-.7-13.3-1-26.4-4-39.5l9 8.5c6.5 9.2 5.7 47.2 8.2 60.8 1.7 9.2 11.3 41.9 17.2 47.8 1.9 1.9 8.5 6 11 6 9.3 0 29.3-8 33.3-16.8 10.1-21.8 8.2-60.9 6.2-84.8-.4-5.2-3.1-14.7-2.9-19.1 0-2.6 4.4-5.1 6.4-6.4 11.6 25 4.3 54.3 15 80 3.9 9.3 4.2 12.7 15 12.1 14.6-.8 16.6-9.7 22.5-21h.3Z" class="outline shading" data-original-prefix="shading" opacity="0.5" style="opacity: 0.5"/><path id="shading-head1" fill="#aaaaaa" d="M725 872c-4.2 11.7-10.6 23.8-16.8 34.7-11.1 19.3-26.7 35.9-30 58.7 13.6 16.9 36.4 22.8 56.6 28.3 44.4 12.1 85.4 14.8 130.7 19.3 31.2 3.1 60.2 7.8 92 7 14.2-.4 29.8-3 43.9-3.1 47.7-.3 95.4 5.3 143 1 49.8-4.5 105.1-9.1 153.5-20.5 16.5-3.9 61.4-15.2 70-30 2.1-3.5-.7-12.9-2.3-16.8-6.1-14.7-19.9-32.4-27.9-47.1-5.7-10.4-11.2-21.6-15.3-32.7 21.9 30.7 44.6 61 65.7 92.3 2.3 3.4 10.2 13.9 11.2 16.8 1.1 3.2-.8 15.4-3.1 16.8-44.6 13.7-90.6 23.3-137 29-34.2 4.2-68.6 5.7-102.9 9.1-23.4 2.4-64.2 11.7-85.9 8.9-23.6-3-40.1-6.2-65.1-4.9-13 .7-25.8 5.4-38 5-28-.9-57.9-7.2-86-10-75.5-7.5-150.5-11.2-223.5-34.5-10.8-3.5-8-7.3-10.8-17.2 19.7-29 39.6-58 60-86.6 5.7-8 11.4-16.2 17.8-23.7z" class="outline shading" data-original-prefix="shading" opacity="0.5" style="opacity: 0.5"/><path id="outline-head" fill="#000000" d="M1419 977c.3.3 5.4-.9 8-.6 8.8 1.1 22.6 9.4 26.8 17.2 9.9 18.3-.8 66.7-1.8 88.9-1.4 28.6 11.8 44.2 14.7 70.3 4.2 36.4-21.6 42.9-50.2 53.2-5.9 2.1-13.7 3.2-18.8 5.2-2.3.9-7.4 5.6-10.7 7.3-12.6 6.5-41.4 13.3-55.5 13.5-7.8 0-16-3.1-23.9-2-4.7.7-11.8 4.4-17.2 5.8-20.1 5.4-49.4 12.5-69.9 13.1-5.7.2-12-1.3-16.9-1-9.1.7-21.7 7.2-31.6 9.5-20.7 4.7-48.5 6.7-69.5 4.4-7.1-.7-17.7-4.7-23.1-4.9-3.9-.2-16.5 4.5-22.9 5-10.4.8-21.1-1.1-31-1.1s-22.6 1.9-34.1 1.1c-6.4-.5-19-5.2-22.9-5-5.4.2-16 4.2-23.1 4.9-21.2 2.2-48.7.2-69.5-4.5-10.1-2.3-23.2-9-32.7-9.4-4.7-.2-10.4 1.1-15.9 1-20.5-.7-49.7-7.8-69.9-13.1-5.3-1.4-12.5-5.2-17.2-5.8-8.2-1.2-16.6 2.1-24.9 1.9-15.4-.4-42.9-7.1-56.5-14.5-3-1.6-6.7-5.5-8.7-6.3-5.9-2.3-15-3.8-21.8-6.2-32.7-12-53.5-18.7-46-59 4.2-22.9 14.6-36.9 13.5-61.5-1-23.3-11.2-67.8-3.2-88.2 4.5-11.5 23.9-22.8 36.2-19.3 3.2-19.5 15.7-35.6 29-49.5 8.2-8.6 19.3-16.5 26.4-25.6 12.4-15.7 22.3-42.7 34.2-60.8 34.8-53.2 95-94.9 154.2-116.8 15.7-5.8 31.4-9 47-14 28.4-9 54.3-34.1 84.2-40.8 44.7-10 71.2 15.1 107.3 33.7 18 9.2 40 12.6 59.4 19.6 66.6 23.8 128.4 67.8 165 129 9.4 15.7 17.9 38.5 29.2 51.8 16.3 19.3 37.1 31 48.2 55.8 1.4 3.2 5.1 17 5.8 17.7zm-397.2-285.7c-42.5.9-56.7 31.7-92 43-76 24.3-154.6 67.7-196.9 138.1-4.3 7.2-7.6 15.4-12.4 22.6-12.9 19.2-31.5 36.4-44.4 55.6-3.2 4.8-17 28.9-17 33s4.8 3 8.5 3.6c18.8 3.1 37.2 9.2 55.4 14.6 5.2 1.5 12.2 5.3 17 6 8.8 1.4 19.5-1 28.8-.8 21.8.4 45.2 5.8 66.5 10.5 10.8 2.4 12 3.6 23.5 3.5 28.2-.2 58 1 85.8 5.3 3.7.6 10.1 3.5 13.1 3.4 6.8 0 20-6 29.2-6.7 22.8-1.7 53.1-1.8 75.9 0 8 .7 23.7 6.9 29 6.6 2.7-.2 8.6-2.8 12.5-3.4 27.8-4.5 57.6-5.6 85.7-5.4 12.7 0 16.2-2 28.3-4.7 20.1-4.3 42.1-9.1 62.6-9.4 8.6 0 17.7 1.9 25.9.9 14-1.6 38.8-12.8 54.4-16.6 9.2-2.3 18.4-3.9 27.8-5.2 1.4-1.9-.6-5.8-1.4-7.7-12.1-31.4-39.1-54.1-58-81-8.2-11.6-13.4-24.9-21.4-36.6-35.5-52.3-111.6-102-171.3-121.7-23.3-7.7-27.2-5.8-48.1-20.9-21.1-15.2-39.1-27.4-66.7-26.8h-.3zm-401.1 312.9c-6.3 1.3-8.2 6.6-8.7 12.3-2.9 28.7 7.5 63.2 5 92-1 12-7.7 25-8.9 37.1-.7 7.1 0 22.3 4.9 27.9 2.5 2.9 19.8 12.7 23.5 12.4 5.9-.4 11-13.4 11.5-18.5 4.5-44.7 3-90 4-135-1.3-6.8-2.3-20.4-8-25-4.2-3.3-18.1-4.4-23.2-3.3Zm793.1.1c-14.7 2-16.1 13.6-17.6 26.4-2 16.7.6 32.4.9 48.8.5 30.3-.5 58.7 3.1 88.9.6 5.1 5.7 17.2 11.4 17.6 3.3.2 21.2-9.8 23.5-12.4 2.7-3.1 4.7-12.8 5-17 1.3-17.1-7.7-32-9.1-48-1.7-19.7 2.9-41.3 4-61.1.5-8.2 1.8-23.3.9-30.9-1.7-13.5-10.3-14-22.1-12.3m-741.1 11.9c-4.3 1.3-6.4 17.2-7.2 21.8-7.2 38.6-13.1 103.3-6.2 141.3 1.3 7.5 8.2 17.7 15.1 20.9s29 7.2 36.2 5.8c2.5-.5 7.8-6.3 8.3-8.7 2.5-11.1 1.9-27.6 3.3-39.7 2.6-21.6 7.8-43.9 9.9-65.1 1.2-11.8-.3-20.5-1-32-.6-10.2 2.1-18.7-4.2-27.8-7.2-10.5-16.8-7.2-27.1-8.9-7.2-1.2-20.4-9.6-27-7.6Zm697.1 0c-6.7 1-15 6.5-21.5 7.5-10.6 1.7-20.4-1.4-27.7 9.3-6.1 8.9-3 17.7-3.6 27.4-.7 12.4-2.3 20-1 33 3.6 34.2 12.5 68.9 13.2 103.8 5.1 12 15.4 9 26 7.4 18.3-2.8 29.7-7.7 33.7-27.3 6.6-31.9 1-83.7-2.9-116.9-1.1-9.6-4-32.4-7.5-40.5-1.7-4-4.7-4.4-8.8-3.8h.1Zm-619.5 20.1c-5.9 6-4 16.1-5.6 23.9-6.6 32.2-7 58.6-8.8 91.2-.6 11.5-3.5 20.7-1.5 32.6.5 2.9 2.1 5.8 2.5 8.5.6 4.7-1.8 12.1 2.8 14.2 22.2 10.1 62.6 17.3 86.8 15.3 4.1-.3 9.2-.8 11-5 2.3-5.4 6.4-20.6 7.3-26.7 2-12.4.5-24.2 1-35.9 1.7-33 9.7-70.4-1.7-102.2-.3-1-5.2-10-5.7-10.3-2.2-1.7-10.2-3.2-13.3-3.7-17.7-2.9-43.5-4.6-61.7-5.3-4.8-.2-9.6-.3-13.2 3.4zm532.5-3c-16.9.6-52.2 2.2-67.4 6.6-7.2 2.1-9.5 5.9-11.9 13.1-10 30.5-4.2 55.8-2.5 86.5.9 17.3-.9 36.4 2.4 53.6 1.1 5.5 4.8 19.2 6.8 24.2 1.3 3.3 7.1 4.4 10.3 4.7 22 2.2 50.2-3.1 71.2-9.7 3.7-1.2 14.6-4.4 17.2-5.8 3.6-2 1.6-10.7 2.1-14.9 1-8.3 3.4-12.1 3-22.1-1.4-35.2-3.7-75.2-10.7-109.3-1.4-6.6-.4-15.3-3.4-20.6-4.5-7.7-9.5-6.6-17.1-6.3m-286 10c-4.1.4-14.5 2.1-17.8 4.2-.5.3-7.8 8.4-8.1 8.9-5.6 9.8-6.4 38.6-6 50.1 1.1 32.7 2.8 65.4 5 98 .8 10.9-3.1 22.4 6.5 30.5 5.7 4.8 11.7 3.2 18 4 21.7 2.7 45.2 3.1 66.9 0 20.3-3 15.2-21.2 16.6-36.4 3-32.2 3.8-64.7 5-97 .5-12.9-.6-35.8-5.3-47.8-.2-.6-8.2-9.8-8.8-10.2-10.3-6.9-31.9-3.5-43.4-3.5s-18.5-1.7-28.8-.8zm-38 15.9c-18.6-11.4-40.8-14-62.4-13.2-6.5.2-17.8.8-23.9 2.1-7.8 1.6-10 10.7-10.5 17.4-1.3 15 .7 31.8 0 47-1 21.5-5 43.4-5.1 64.9 0 10.7 2.8 21.9 3 32.1 0 5.9-4.1 14.9 2.6 19.4 13.6 2.5 27.3 5.5 41 7 11.7 1.3 37.1 3.5 47.6-.2 1.8-.6 3.2-1 4-3l3.6-173.6h.1Zm130.4 0 3.3 173.8c1 1.6 2.6 2.2 4.3 2.7 11.2 3.7 35.4 1.5 47.6.2 13.7-1.5 27.4-4.5 41-7 6.6-3.6 2.5-14.5 2.5-20.4 0-8.4 3.1-19.2 3.2-28 .2-21.5-4.1-43.5-5.1-65-.7-15.7 1.1-32.5 0-48-.4-6.3-2.3-17.5-9.8-19.2-5.4-1.3-16.9-2-22.8-2.2-22.1-1-45.4 1.3-64.4 13.2h.2Z" class="outline" data-original-prefix="outline"/>
    </g><g class="trait-group" data-category="mouthpiece" id="mouthpiece-bearded 2">
      <path id="fill-mouthbit-main1" fill="#ffffff" d="M1250.4 1610h16.5c.9-5.6-1.9-10.6-2.7-15.8-1.8-11.1-2.1-24.7-7.1-34.9-1.9-3.9-3.6-5.9-8.6-4.2-1.9.6-1.4 6.2-5.5 0 2.4-17.1 0-34.8-6.1-50.8 8.1-.8 15.8 11.1 20 13 1.3.6 6.2 1 6.9.4.4-.3 2-8.1 2.1-9.4 1.4-14.6-30.9-59.9-43.8-59.8l-74.1-9.7c-7.1-1-54.5-2.4-56.8 1.2-2.4 3.8 4 13.9 5.4 17.8l-44-6c-10.1 1.9-18.5 7.9-27.2 12.8-9.6-3.8-17.4-11.3-27.9-12.8l-44.5 6c-.6-.6-36.4-19.8-50.9-18.9l-25.8-4.1c-12.2-.2-96.9 45.4-92.3 73.5 0 1.3 1.7 9.1 2.1 9.4.7.6 5.6.2 6.9-.4 4.4-2 11.8-14 20-13-6 14.4-7.2 29.7-7 45.1 0 4.3 2.9 6.7-2.9 9.5 0-4.4-3.6-5.1-7.4-3.8-5.7 2-7.9 25.7-8.8 31.2-.6 3.3-5 22.5-3.9 23.6h-.2 16.5c2.9 0 11.9-4.3 15-5.9 5.9 8 5.5 18.2-1.5 25.4-2.7 2.9-14 8.6-14.5 9.4-.6 1.1-.8 6.6-.4 7 .4.5 10.7 2 12.4 2.1 9.4.7 19.3-.2 28.5-2-7.8 25.2-11.3 57.3 6.5 79 1.2 1.5 9.6 10.1 10.5 10.5 8.4 3.7 7.1-3.1 9.5-8.5 3.7-8.4 9.2-18.5 17.5-23 2 6.6.4 13.6 1.1 20.4 1.9 19.2 14.6 38.6 28.9 51.1 4 3.6 12.2 11 17.4 9.6 2.2-.7 1.4-18.1 3.1-21.1 4.7 6.3 8.8 13.1 14 19 12.4 14.3 25.7 21.7 33.7 40.3 1 2.1 3.2 10.8 3.8 11.2 3.2 2.3 12.9-1.7 15.6-4.5 1.3 0 3.4 8.9 4.3 10.7 1.5 3.2 12.9 16.9 15.6 18.4s6.4 1.5 9.1 0c1.1-.7 10.2-10.9 11.4-12.6 4-5.5 5.6-10.6 8.5-16.5 3 2.8 12.1 7 15.6 4.5.8-.5 2.7-8.4 3.5-10.5 8.1-19.3 21.3-26.2 34-41 4.8-5.6 8.6-12 13-18 2-.5 2.3 5.4 2.4 6.6.6 6.2-2 17.4 8.1 12.9.6-.3 9.6-7.8 11-9 14.7-12.9 26.9-32.3 28.9-52.1.6-6.5-.9-13.2 1.1-19.4 7.7 4.7 14 14.7 17.5 23 .7 1.8 1.5 6.8 2.4 7.5 6.2 4.4 17.9-9.5 20.9-14.2 14-22.1 10.4-50.5 3.2-74.3 9.2 1.8 19 2.7 28.5 2 1.7 0 12-1.7 12.4-2.1s.3-6-.4-7c-.4-.6-6.2-3.1-7.8-4.2-12.7-8.8-15-15.9-9.7-30.8.7-.6 13.7 6 16.5 6zm-305.8-27.8c-1.5-.3-2.9-.6-4.4-.7.9-1.3 1.8-2.4 2.8-3.5.5 1.5 1 2.9 1.6 4.2m179 41.6c-.7 17.4-6.6 34.1-16.8 48.1-5.1-8.8-11.8-16.7-19.6-23.2-3.3-2.7-7.3-1.9-9.9.4-1.7.7-3 2.2-3.5 4.6-1.3 6.8-5.4 12-9.6 17.3-3.3 4.1-6.5 8.2-9.8 12.3-14.5-7.2-39 9.3-53.7-3.6-10.5-8.5-23.7-14.2-31.9-25-2.4-3.2-7.8-5.3-11-1.4-3.5 4.2-6.6 8.5-9.4 13.1-2.4-3.3-4.6-6.7-6.3-10.4-3-6.3-4.4-13.3-7.2-19.7-2.8-6.6-7.3-11.8-12.6-16.5 3.1 1.2 6.3 1.9 9.7 1.5.8-4.3-1.1-8.6-1.1-12.5s.7-8.6 2.2-13h.4c8.2-.9 15.5 2.7 22.9 5.7 7.5 3.1 15.2 5.7 23 7.9h.3c3.1 1.4 6.2 2.8 9.2 4.3 3.1 1.5 19.5 11.1 22.8 8.3 0 0 6.3-42 10.6-39.4 6.2 3.6 12.5 39.2 13.5 40.7s47.5-19.8 53.7-23.9c8-5.3 14.2-12.3 17.8-21.2 9.8 12.6 12.6 27.4 10.5 43 2.3.2 4.4 0 6.6-.6-.5.9-.9 2-.9 3.3h.1Zm9.9-6.3c-.2 0-.5-.2-.7-.2.3-.2.7-.3 1-.5 0 .2-.2.5-.3.7" class="fill" data-original-prefix="fill"/><path id="shading-moutbit" fill="#aaaaaa" d="M1246.3 1591.4v-.2c-3-11.7 7.6-19.1 7.7-30.8 1.2-11.6-4.3-22.9-2.7-34.4.8-5.6 4.3-10.1 7.9-14 12.5-12.2.2-30-5.7-42.5-8.2-12.9-4.5 1.2-4.9 8.2-4 15.5-18.9 9.2-18.3 33.2-3.9 15.5-22.8-23.8-26.8-27.5-3.8-5-5.8-6.7-6.5-6.6-1.2.2 19.2 36.4 21.4 50.5 2.3 10.8 3.5 44.8-14.7 12.5-31.2 9.1-23.6-26.5-35.8-30.3-3.5 1.8 0 7.7.3 10.9 2.2 7.8 4.6 18.7 4.2 28.5 0 5-1.7 19.7-9.2 14.7-2.7-1.5-12.4-28.2-15.6-27-.8.3 11.8 44.7-4.7 56.6-18.3 9.9-23.1-27.9-38.1-25.6-5.5.3-10 4.6-15 6.5-14.7 3.9-12.2-30.4-19.5-37.7-2.8-3.6 7.4 64.5-9.4 47.4-3.7-6.3-4.9-15.6-7.5-22.4-.3-.5-.6-1.3-1.1-.9-2.4 8.2.7 26.8-4.1 34.4-20.7-24.8-32.3-125.4 2.7-136 17.4.5 31.9 50.1 31.6 48.4-3.2-25-10.2-44.2-13.3-48.5 15.2-2.3 32.9 4.3 44.9 13.1 6.2 4 24.6 31.3 21.4 24.9-4-8-10.8-28.3-13.8-32.3-3.7-6-4.3-11.1 1.5-16 17-12.1 31.9 40.5 37.3 41.4s-12.8-29.7-20.5-39.2c-2.9-3.3-8.8-8.9-.6-8.5 9.1-1.2 34.8 34.2 32.8 25.9-7.8-31.7 25.4-19.9 38.5-6.1 4.6 3.7 8.7 21.8 21.7 25.3-9.6-6.4-15.4-27.7-19.2-31.5-1.3-1.8-4.3-3.5-4-5.7 1.8-1.7 6.6-1.1 8.2-2.7 2.1-3.2-5.9-4.3-8.1-4.9-12.9-3.2-25.7-4.3-38.9-2.6-9.4-.6-20-4.1-29.3-4.3-1.1-.3-.5-.6.4-1.3 7.6-4.7-6.3-4.2-9.5-3.4-10.5 2.6-21.7 2.9-31.6 7.3-6.3 3.1-8.9 8-14.8 10.3-4.6 1.8-9.8 2-14.8 1.7-34.6-3.1-77.9 1.5-112.5 1.9-23.9 2.5-34.9-20.8-57.5-17.3-6.8 1.3-13.9-.8-20.8-1.5-14.7-.9-42.4 10.2-64.7 23.9-17.5 11.4-41.8 26.4-33.6 49.1 3.3 7.2 12.7 10.9 14 19.7 2.5 10.5-2.6 20.9-2.8 31.3-1.8 14.4 19.5 32.1 1.1 41.8-17.1 9.1 8.7 8 15.2 7.3 15.7-3.3 22.9 2.7 37.5 5.5 7.4.6 16.6-.7 22 5.5 7.3 8.1-1 25.4 1.1 32.2 16.6-27.5 29.6-12.6 31.9-9.9-5 10.2-5.2 28.2-.8 36.1 3.9-.9 19.2-42.2 20.9-23.6.5 13-6.4 28.9-3.7 42.2.5.8 4.1-13.6 5-18.1 4.4-22.7 9.3 2.1 33.2-1.3 24 3.5 23.5 56.4 21.8 73 9.3-30.5-1.9-36.5 9.4-49.6 6.6-5.1 17.2-.3 23.7 5.2 7.9 7 9.9 18.1 12.7 27.7 4.7 17 5.9-19.2 8.9-22.4 3.9-12.4 23.5-16.7 28.3-3.1 5.7 13.8-2.6 31.5 1.9 45 1.6 2.6 7.3-29.5 8.5-42.8.5-27.5 4.7-29.8 31-31.8 18.7-6.3 17.3-19.3 30.6 3.3.7 1.1 1 1.6 1 1.3-.5-3.1-2.7-8.8-4.8-14.3-1.9-4.5-4.3-10.7-7.9-13.3-.2 0-.4-.2-.6-.3 1.2-1.9 2.3-3.9 2.9-6.2 1.2-4.1 1.5-9.3 6.1-10.9 1.5-.5 3.1-.6 4.7-.6 6.8 2.2 13.8 14.1 18.3 24.8 1.4-15.6-2.6-26-5.2-31.6 5.7-4.7 14.7-10.7 22.5-5.5 7.1 8.6 14.5 43.2 12.7 30.9-1.3-11.4-3.7-24.4-.5-35.3 2-7.7 10.8-6.2 17.5-6.5 10-1.3 18.4-6.5 28.2-6.3-1 4.8-.8 10 .2 14.2.9 3.2 4.4 13.5-2.6 9.3-3.7-2.2-6.5-6.8-10.5-8.5-1.8-.6-2.2 5.3-3.3 7.2-2.9 5-6.7 10.7-5.5 17.5.6 17.1 2.2 35.8-4.1 51.8-1-6.9-9.7-28.4-13.1-33 4 14.6 3.9 38.2 1.9 48.1-2.6-1.7-7.2-8.9-9.5-11.3-4.2-3.9-8.5-9.5-14.4-10.1-3.8.3-4.1 7.4-6.4 14.9-2.9 8.9-6.7 19.4-12.3 26.8 1-20.8-.4-26.5-2.5-34.8-2.6 10.2-3.8 45.7-18.5 55 1.1-6.5 4.7-49.2-.7-62.3-3.8 39.1-.6 66.9-36.4 89.5-5.3 3.6-21.6 2.7-22.6 4.3-2.4 4.7-2.1 10.7-3.9 15.8-7.6 19.5-9.9-12.3-11.4-18.4-1.7-12-5.1-22-5.3-19.7-1.1 21.9-8.6 56.3-15 71.5-5.1 11-7.3 9.2-6.4-2.1.4-15.7 2.7-39.3-1.4-46.3-5.2 5 .4 77.4-11.1 43.8-1.9-5.4.2-16-6.6-17.2-9.9-3.9-1.4-42-7.9-49.1-3.4 14.7 1.6 55.6-7.5 52.8-3.6-2.4-6.9-10-9.9-14.2-5.9-8.5-10.5-17.9-14-27.7-4.2-9.9-11.1-18.8-14.8-28.8-3.1-5.7-7.5-23.4-9.6-30.9-1.1 5 0 15.3.6 21.7 1.3 8 3.2 15.9 5.1 23.8 8 27.6-7.7 6.9-18.3 0-17.4-5.6-15.4-36-15.4-36s-6.7 7.2-6.5 22.3c-2.7.5-6.2-4.7-7.7-8.5-8-14.7 6.2-34.6-1.3-48.8-1.5 5.9-4.2 20.6-6.2 23.3-5.1 18.6-7.4-20.4-15.2-19.5-12.8-1-4.2-23.3-4.2-32-10.6 18.7-18.6 31-21.6 51.7-2.8 0-5.7-6.1-6.8-9.3-6.5-17.1-5.8-40.5-5.7-58.9 0-3-.3-6.4-1.9-8.7-4.6-5.3-11.6-2.4-19-2.3-6.3.8-23.2-1.2-22.3 6.5 5.4 6.3 20.7 3.2 30.4 3.8 15.9-1.9-15.4 49.5 18.5 83.2 3.5 3.3 9.1 7.8 13.4 3.9 3.5-2.4 15.6-34.4 20.8-16.5 2.6 25.1 13.1 47.5 33 63.7 19.7 15 13.5-12.8 23.3-5.8 14 15.4 31.2 30.9 40.5 49.2 6.3 14.4 8.3 11.6 21.3 15.2 9.1 6.4 13.4 24.2 26.5 23.4 11.9-1.6 15.9-17.3 24.3-23.5 3.3-2 7.4-.9 10.9-1.9 5.8-1.8 8.1-8.3 10.7-13.4 7.9-16.2 22.9-28.7 34.6-42.7 2.5-2.5 6.8-9.1 10.3-5.6 3.9 6.2 5.3 14 14.4 8 17.7-12.2 34.1-36.1 36-58.8.8-7.3 1.5-19.8 9.8-11.3 6.7 6.1 7.6 18.6 16.3 20.3 28.5-8.8 28.9-50 23.6-76-3-10.8 1.4-12 11.1-11.3 6.8-.3 28 2.9 23.8-7.8-3.1-5.7-9.9-9.6-12.7-15.5-2.2-3.5-2.2-8.3-1.9-12.9 6 .3 26.5 1.8 24.6-2.9-3.5-3.2-12.5-6-14.2-12.4h.5Zm-320.3-9.1c-3.8 6.6-9.5 17.5-14.5 7-2.4-5.4-2.8-12.5-3.8-18.1-1-6.4-2.5-11-7.9-5.3-2.6 2.8-5.2 6.7-8 9-16.6 12.5-14.1-34.9-10-46.9 1.1-5.9 9.6-21.6 5.9-25.8-13.1-6.1-21.4 69.9-55.7 45.4-14.1-18 11.5-50.5 21.4-63.9 3.6-4.4 9.5-12.7-.5-4.7-10.6 8.6-18.4 20.6-27.2 30.8-7.2 8.4-11.6 3.5-8.5-6.7 2.4-8.3 8.5-16.9 12.3-24.4 6.4-14-24.5 12-30.9 5.7-7-13.6 71.7-46.8 83.4-45.4.3.8-.4 1.7-.8 2.4-1.8 2.8-5.5 7.8-7 11.8-1.4 3.5-.8 4.6 1.8 2.9 6.5-4.7 14.7-12.1 22.6-12.6 15.2-.4 2.6 16.6-1.3 23-1.3 2.3-9.1 13-7 13 10.5-6.5 22.6-29.5 31.8-26.5 9.6 4.4 3.9 19.2.9 27.2-1.2 4.1-8.6 19.6-5.7 21.9 3.3 0 8.1-8.6 10.2-11.3 1.9-2.8 3.8-5.4 6-8 7.3-8.7 16.4-16.1 26.9-20.2 8.8-3.4-11.6 34.5-10.6 38.3 10.5-21.3 22.1-30.8 26.5-37.1 2.3-3.1 6.2-3.3 6.8-1-3.9 7.1-9 25.1-16.4 67.2 13.2-34.5 24-61.8 26.2-64 2.6-2.9 8.1-4.7 9.8-.4 1.6 3.8.5 8.5.7 12.7 0 2.2-3.4 14.7-.8 11.2 1.9-2.6 6.6-14.8 7.6-18 .5-1.2.7-3 2-3.6 15.3 8.9 5.4 127.2-8.5 126.8-39.3 10.7-17.8-51.5-12.3-77.4.2-1.8.2-2.7-.6-1.8-1.5 2.1-4 8.4-5.7 13.1-2.3 6-4.4 11.5-6.3 17.6-3 9.4-4.9 21-10.2 28.2-4.7 6.1-8.9 1.8-8.9-4.8-.4-6 2.3-13.9 2.8-19.4.5-11.2-27.2 19.7-28.8 21.8-2.8 3.2-5.2 6.7-7.4 10.4h-.2Zm146.3 79.6c-9 13.8-20.2 20.4-36.8 21.2-14.3 2-29.6.8-42-5.9-12.4-5.4-17-25-27.9-31.6-11.2-3.9-19.8 38.1-30.3 12.5-6.9-18.8-13.9-56.2 13.4-54.3 14.2 2.6 28.8 11.8 42.3 13.2 18.4 3.4 18.3-18.2 31.2-20.8 4.5.5 5.8 5.3 7.2 9.2 11 43.8 60.2-23 78.6-19.3 13.6 6.6 4.1 32.7 13.7 43.4-.5 7.2-2.7 14.1-6.5 20.3-1.7 2.7-3.5 5.2-4.7 8.1-.3.6-.5 1.1-.7 1.7-.9 1.5-1.7 3-2.4 4.7 0 .4-.2.7-.2 1-.2.4-.4.8-.7 1.2-15.4 6.9-12.3-35.7-34.1-4.7h-.1Zm-206 40.7c0-.4.2-1.3.2-1.8s0-.2 0 0c0 .4 0 1.5-.3 1.8Z" class="outline shading" data-original-prefix="shading" opacity="0.5" style="opacity: 0.5"/><path id="outline-mouthbit3" fill="#000000" d="M1155.3 1597.4c-8.9 5-25.4 14.5-34.9 18.7-.2-4.9.9-9.6.5-14.5-.5-6.4-3.7-15.5-6.8-21.2-1-1.9-7.7-13.3-10.2-9.7-1.9 2.8-3 8.5-6.1 12.7-4.4 6.1-8.1 9-14.6 12.5 0 0-2.3-48.1-23.8-84.1-.2 6 18.9 32.1 12.8 86.8-7.3 3.3-26.7 14.1-32.8 18.9-11.7-12.5-15.6-52.6-17.3-52.5-1.8 0-7.4 32.6-16.6 48.2-8.8-3.6-19.9-6.9-27.2-9.1-4.7-27.7 15.8-93.7 16-99.2-3.4 2.3-26.1 72.5-26.3 96.6-6.8-2-18.2-4.8-24.6-8.8 0-9.9-2-25.5 10-50.9-10.7 12-17.6 29.9-24.2 74.4-6.8-3.5-18-4.5-25.1-7.9 1.2-1.2-10.1-22.3 5.6-58.1-1.8-1.1-8 10.7-12.4 23.9-1.8 4.9-3.2 9.9-4 15.4-.6 3.6-.9 6.9-.7 9.7-5.2-3.5-10-7.6-13.7-12.9-10.5-14.8-12.6-31.2-6.7-48.3-16.7 9.3-34.6 41-18.7 67.8 3.8 6.5 1.7 0 1.4-1.4-3.1-12.8-5.5-14-.7-27.8l4.8-8.7c-.4 20.4 22.6 31.7 34.1 42.8 1.6 4.2.4 3.6 1.8 6.2 11.2 4.2 27.3 8.5 27.3 8.8.2 0 4.1 7.1 6.8 16.2.9 5.9 1.1 14.5 3.8 19.7.6 1.2 5.6 7 9.7 11.4-.4.7-3.1 36.5 3.2 48.3-3.1-23 5.7-48.2 4.9-49 3.1-8.3 6.7-16.4 13.5-22.4 3.3 15.6 20.9 30 29.4 35.4-.7.8.5 54 10 68.3 0 0-13.1-43-2-67.9 2.2-7.4 11.7 9 22 6.4 1.9-.5 3.6-.3 5.5 0 7 1.3 14.9-16.7 17.5-7.3 2.9 9.3 1.1 55.2 1.1 55.2 5-15.3 6.4-53.2 5.9-54 10-5.4 30.5-22.9 30.6-36.4 8.4 7.3 10.7 17.2 14.9 26.6.3.6-.2 2.2 1.6 1.4.5-.3 9.5-11.5 13-15.4 8.9 8.5 16.8 30.6 15.1 46.1 7.2-27.1-10.5-54.2-10.8-54.8 2.4-8.7 5-21 5.8-25.3 1 .5 22.5-11.1 40.6-25.9-5.3-25.7-21.2-78.6-30-88.2 1.3 13.6 22.3 55.1 17.6 85.2zm-52.3 61.5-14.5-19c-3.5-2.2-5.9-5.7-10.5-5-1.6 15.9-11.9 28.5-24 38-2.1-6.5-21.2 4.8-27.1 5.9-10.8-.3-29.5-14.2-33.4-5.8-9.8-8-16.1-15.2-21-27-1.9-4.6-1.1-12.9-7.5-10.5s-15.8 17.6-19.5 23.5l-8.6-28.4c5 .6 1.4.2 6.7.7-3.1-6.9-1.6-13.7.2-21.4 13.1 5.3 58.8 17.4 72 20.8 3.2-.7 3-24.4 5.6-33.5.6-1 9.1 34.7 9.1 34.7 6-.9 25.2-8.3 43-17.1 14.3-7.1 27.7-15.2 32.6-21.5 0 0 6.9 21.8-5.1 41.6 5.4-.4 4.6-.6 9.6-2.1l-7.5 26.1Z" class="outline" data-original-prefix="outline"/><path id="outline-moutbit2" fill="#000000" d="M1175.5 1538.1c17.5 33.9-3.8 51.1-4.7 59.1 10.5-9.6 18.6-20.1 18.4-29.3 3-2.2 5.8 20.8 4.5 38 11.3-3.8 16-46.9-18.2-67.8" class="outline" data-original-prefix="outline"/><path id="outline-mouthbit1" fill="#000000" d="M1282 1608.4c-11.7-16.8-8.3-42.2-19.4-61.6-2.2-3.8-8.1-9-8.6-9.9-.9-1.6-.6-11.4-2.2-14.3 3.6-.2 7 10.1 8.5 10.5 5.2 1.2 11.6-23.3 12.1-28.4.8-8.2-9-32.1-43-65.3-22.2-4.9-77.2-6.6-78.1-6.7 0 0-.2-1.6-1.5-2.4-3.8-2.5-43.7 3.7-59.6 7.7-3.7 1.4-7.4 3.3-6.3 8.9-17.1-1.1-27.9-11.9-45-5.5-3.5 1.3-12.3 7.1-14.7 7.3-3 .3-17.1-9.4-24.8-9.8-6-.4-32.8 7.9-35.5 8-5 1.9-9.4 5.7-10.7 2-.7-2.1-13-9.3-15.6-10.3-15.9-5.8-19.2-11.7-32.9-10.3-3.4 1.4-6.7 3.1-8.8 5.3-3.3-1.8-17.9-7.9-21.3-6.3-70.3 33.2-117 56.8-96.1 95.5 1.1 1.8 7.3 11.5 9.5 10 1.3-3.4 3.7-6.8 5.8-9.7.3-.5 1.6-3.2 2.2-1.8-1.6 4-1.1 10.2-2.2 13.8-.4 1.2-6.3 7.4-8 10.1-12.3 20.1-8.4 51.1-23.8 66.2-.9.8-1.5.9-1.1 2.4 14.4 3 29.6 8.9 44 3-2.3 8.1-9.4 13.2-16.6 16.8-3.1 1.6-10.6 3.4-12.7 5.1-.8.7-1 1.6-.6 2.1.6.8 15.3 8.4 17.3 9.2 9 3.7 22.2 4.6 31.7 2.8-4.1 16.3-6.9 36-.5 52 7.9 19.8 29.8 28.5 42 45l2-3 5.5-27.6c3.1 20.5 16.9 51.5 34.1 63 5.8 3.8 13.2 6.4 18.4 10.6 2.9 2.4 9 11.5 10 12 1.8.9 1.6-1.4 1.8-2.2.4-1.5 1.6-5.2 1.7-6.3h-.4c.5-5.2-.4-11.2 0-16.5 20.1 18.8 38.3 42 38 71 .9 1 9.6-7.4 11.1-8.4 1.2-.8 8.2-5.2 8.9-4.6-1.1 5.9 25.3 33.3 27.4 32.9 8.7-10.7 22.7-19.6 26.7-32.9 1.8-1.6 15.2 10.5 17 11.5 1.3.6 1.9.7 2.6-.5.6-.9 2.7-17 4-21 3.5-11 10.3-21.7 17.5-30.5 4.8-5.8 11.6-12.2 17-17.5v17.5c0 .3 1.4 4.3 1.7 5.3.3.8 0 3.1 1.8 2.2s7.7-10.4 11-13c3.8-2.9 8.5-4.1 12.4-6.6 20-12.8 34.4-30.6 39.1-54.4l5.9 17.6c0 1.2.4 1.9 1.6 1.4.7-.3 8.4-9.6 10.5-11.5 9.1-8.5 19.7-14.6 26.8-25.2 12-18 8.8-40.4 4.2-60.3 18.2 4 33.7-3.3 49-12 .5-2.2-.3-1.6-1.3-2.2-2.8-1.8-7-2.4-10.1-3.9-7.7-3.7-16.4-8.9-18.6-17.8 4.5 1 8.6 3 13.4 3s29.5-4.9 30.6-6c1.2-1.1-3.6-3.8-4.8-5.6Zm-31.1-3.7h-.2c-6.3-1-12.2-5.6-18.1-7.7-7.1 9.2-7.9 23.8 0 32.9 4.2 4.9 10.8 6.8 15.4 11.1-14.7 4.1-28.6 1.6-43-2 1.7 11.1 6.9 21.3 7.9 32.6 2.1 24.4-4.2 43.8-23.4 59.3-2.9-7.2-4.6-13.4-9.1-19.9-2.5-3.5-11.6-14-14.9-16.1-1.2-.7-1.9-1.2-3.5-.9 1.3 7.5.8 16.8 0 24.4-2.8 22.6-13.3 38.2-29.9 53.1l-12 9.5c-.5-4.9.6-10.8 0-15.5-.3-1.8-2.8-8.8-3.8-10.3-.6-1 0-1.8-2.2-1.3-4.8 13.2-14.5 23.1-24.3 32.8-8.3-24.3-4.3-48.5-7.4-74.2-.8-6.4-1.3 80.4.8 80.8-10.1 10.3-19.3 21.1-22.1 36.2-1.3 1-5-1.3-8.4-3.4 1.2-14.6 1.5-29.2.8-43.9-.3-6.4-10.6 46.4-10.1 47.1-.7 2.2-1.3 4.5-1.8 5.6-1.6 3.2-15.3 20.4-17.9 19.9-4.8-4.9-11.4-10.2-15.1-16-3.3-5.2-4-10.8-7.1-15.9-1.8-.4-11.9 8-15.4 7-.2-2.9-1-6-1.9-8.9v-.9c-1.6-27.9-36.2-79.3-32.8-73.8 10.1 16.8 17 35.1 20.5 54.2-7.6-8.5-16.8-15.7-24.2-24.6-5.7-6.9-10.2-14.5-15-22-5.9 8.1-3.7 17.8-5.5 27l-24-22.5c-14.9-18.3-20-41.4-17-64.5-1.4-1.2-11.1 4.6-12.5 6.1-3.1 3.3-2.9 1.7-5.3 6 0-16.9 3-24.8 3.5-34.1-5.6 9.4-11.1 43.5-9.9 49.7-1.2 3.1-2.2 6.2-2.8 9.2-25.6-19-27.6-46-20.7-75.2 1.3-5.6 4.7-10.7 3.7-16.8-14 4-27.7 5.8-42 2 8-5.8 19.4-11.5 20.9-22.6.5-3.8-1.9-21.4-6.4-21.4s-7.7 4.3-9.8 5.2c-7.2 2.9-12.9 3.3-20.7 2.8 7.1-16 3.8-34.4 13-50l9.3 16.7c-1.1-7.7-.8-19.1 1.4-36.1 1.8-13.5 5-27 10-39.5-11.2 2.3-21.8 8-29.3 16.7-11.6-31 78.7-73.7 92.8-76.5l9.6 4.5c-.5 0-14.6 15.1-18.4 34.4 12.6-27.5 25.6-30.7 32.5-34.5 0 0 .9-.4.9-.5l33.1 15c0 3.4-23 41.5-24.3 60.5 24.6-54.5 39.3-55.1 40-56.6 11.9-1.1 31.3-6.4 41.4-5.4 6.4.6 11.8 4.1 18.9 9 7.4 15.1 5.6 86.3 7.4 98.8 3-6.9 1.2-79.3 9.6-98.4 7-5.5 11.5-6.7 19.7-9.7 4.4 0 25.2 3.8 38.5 5.2.5.9 20.4 6.3 47 42.1.7-.4-1-3.3-3.9-7.6-14.9-27.2-28.1-36.2-29.7-35.5-1.7-2.6-2.9-5.4-2.5-8.8l41-9.3c2.5 1.7 27.1 25.4 33.5 40.1 3-1.8-5.9-26.5-11.6-34.2 26.1-.7 58.4 5.8 57 6.6 14.3 13 45.3 41.6 39 61.1-8.2-8.3-18.4-14.5-30-17 3 8.3 6 16.1 7.7 24.8 2.9 14.9 6.1 37.2 1.7 54.1 1.5-2 2.9-4 4.2-6.2l7.6-13.9c8.7 15.7 6.6 33.4 12 50-4.1-.2-8.2.4-12.3-.2v.2Z" class="outline" data-original-prefix="outline"/>
    </g>
</svg>