<?xml version="1.0" encoding="UTF-8"?>
<svg xmlns="http://www.w3.org/2000/svg" viewBox="0 0 2048 2048">
  <style>
      .outline { fill: #000000; }
      .fill { fill: #FFFFFF; }
      .shading { fill: #aaaaaa; opacity: 0.5; }
    </style>
  <g class="trait-group" data-category="background" id="background-red">
      <path id="color-red" class="color" d="M2048,4.5c-.1,679.6-.1,1359.2,0,2038.8,0,3.8-.8,4.6-4.6,4.6-679.6-.1-1359.2-.1-2038.8,0-3.8,0-4.6-.8-4.6-4.6C.2,1362.3.1,681.2.1,0h2043.3c3.8,0,4.6.8,4.6,4.6h0v-.1Z" style="fill: #af6e6e" fill="#af6e6e"/>
    </g><g class="trait-group" data-category="jaw" id="jaw-half-robo">
      <path id="fill-jaw" fill="#ffffff" d="m1382.8 1128.2 12.4 130.2 60.9 48.3-49.6 133.4c-1 1.4-2.4 1.1-3.9.9-13.9-1-32.8-8.5-47.4-10.7-1.8-.3-3.5-.4-5.2-.3 1.2 4.7-1.2 7.6-2.1 11.4-4.9 22.2-7.7 45-12.1 67.4l-57.2 29.3-1.4 1.6c-1.1 12 1.6 23.9.9 35.9-.3 5-1.3 14.9-2.3 19.7-.6 2.8-13.7 32.2-15 33.5s-16.1 8.9-16.7 8.3l-9.5-50-51 52c-7.7 5.7-20.7 9.3-27.5 15.5-14 12.7-24.7 36.5-41.4 47.6-5.5 3.6-58.7 25.2-65.4 26.6-2.4.5-46.7.7-49.3.2-6.2-1.1-59.9-22.7-65.6-26.3-14-8.8-29.1-36.3-42-48-6.7-6.1-19.9-9.6-27.5-15.4l-51-52-9.6 48.4c-.6.9-.9 1.7-2.2 1.5-.8 0-13.8-7.6-14.4-8.2-1.4-1.4-15.6-32.9-16-35.5l-.7-54.3-58.2-30.3-12.3-69.7c-16.4-1.1-33.5 3.9-49.5-1l-37.3-85.8c-.7-3.4 4-13 5.6-16.9 8-19 17.8-37.3 25.7-56.3 9.2-2.5 21.3 1.1 29.9-5.1 4-2.8-.2-18.8 0-23.9l-19-32.1-.3-2.2 27.6-63.5c1.4-9.9-3.2-21.4-1.1-31.1 1.3-6.2 9.7-21.7 13.2-27.9 54.6-98.4 184.4-157.8 290.2-180.8 48.2-10.5 90.3.5 136.5 15.4 98 31.8 198 94.6 250.7 185.3 3.2 5.5 3.8 13.3 10.7 14.8h-.7Z" class="fill" data-original-prefix="fill"/><path id="fill-jaw1" fill="#ffffff" d="M1265.7 1351.3c9.2 7.7-4.5 25.9-12.2 15.7s2.9-23.4 12.2-15.7" class="fill" data-name="fill-jaw" data-original-prefix="fill"/><path id="fill-jaw2" fill="#ffffff" d="M1314.6 1391.2c7.8-1.5 6.2 19.1-2.9 17.7-9.8-1.5-.6-17 2.9-17.7" class="fill" data-name="fill-jaw" data-original-prefix="fill"/><path id="shading-jaw" fill="#aaaaaa" d="M1377.3 1124.7c2.2 2.7 13.8 4 14.5 10l8.4 112.6c17.4 18.9 36.8 35.9 56.4 52.6l1.5 3.6-51 135.8c-1 1.6-3.7 1.7-5.4 1.6-14.4-.9-32.2-8.4-47.3-8.9-1.8 0-3.2-.2-4.4 1.3l-14.4 75.6-59.4 30.1c.4 11 2.6 23.6 2 34.5-.3 5.7-1.3 15.4-2.1 20.9-.5 3.1-13.4 31.4-15.4 33.6-3 3.2-11.6 6.2-15.5 9l-12-46.4-2.4-.6-46.1 47.9c-7.8 6.2-20 9.3-27.5 15.5-14.2 11.7-24.4 36.1-41.5 47.5-6.8 4.6-52.9 25.2-60.4 26.6-9.5 1.7-52.8 1.8-62.3.2-7.6-1.3-48.1-19.8-56.6-24.4-16.2-8.6-30.7-38.5-45.1-49.9-7.1-5.7-18.8-9.3-26.5-14.5l-48-49-8.5 47c-1.4 1.2-18.5-6.9-20.5-9-1.7-1.8-15-30.8-15.4-33.6-.7-4.4-.9-13-1.1-17.9-.5-12.2.6-24.4.5-36.6-18.8-11.7-39.4-20.3-58.6-31.4l-13.1-67.4-46.4.9-36.3-91.7-.2-2.3c6.7.3 9.7 6.8 15.7 10.8 19.1 12.8 34.2 19.3 57.7 16.1 20.6-2.8 26.4-11.2 48-1.7 16.1 7.1 19.4 16.7 31.2 25.8 13.2 10.2 17.5 3.6 25.9-7.1 6.9-8.8 25.8-41.6 27.4-51.6 1.7-10.7-3.8-11.2-13-10-8.6 1.1-48.4 15.1-51 14.6-1.7-.4-12.3-7.9-16.5-9.6-20.3-8.4-48.8-11.8-67.2-20.8-14.3-6.9-12.2-21.7-18-34.5l21.5-4.1c1.9.3 10.9 13 13.5 15.6 13.7 13.8 58.3 32.8 77.6 33.5 3.4 0 6-1 8.9-1.1h20.5l-34.7-16.8c-19.1-10.8-48.2-33.1-61.8-50.2-6.2-7.7-7.1-18.3-10.5-27.5-6-16.6-14.4-32-25-46 1.3-9 6.5-19.6 7.8-28.2 2.8-19.1 3.8-27.8 12.1-45.9 49-107.6 188.2-173.2 298.2-196.8 27.9-6 50-5.8 77.9 0 118 24.3 244.7 92.5 307.8 198.2 1.9 3.1 5.2 12.6 6.5 14h-.4ZM1326 1307c15.3-11.2 31.9-21.8 44.5-36 6.1-22.7 14.6-45.7 13.5-69.6l-2.1-29.5c-1.4.2-1.9 1.8-2.5 2.9-16.8 30.8-29.1 66.4-47 97l-62.3 38.7.4 3.3c5.9 15.3 32.8 49 33.4 63.6.2 4.3-2.2 10.7-.7 15.7 1.1 3.6 11 9.8 15.2 9.4l62.4-18.5c8.3 1.2 16.7.9 25.1.6l36.7-78.8.3-3.3c-14.1-10.8-29-21.4-44.3-30.7l-2.8 11.8c-13.3 5.6-27.2 16.2-40.4 21.1-6.7 2.5-16.4 2.8-23.8 3.2-1.2 0-5.6.7-5.5-1Zm-248 20c-5.1-10.6-9.9-23.3-16.6-32.9-6.5-9.4-23.8-30.4-31.9-38.1-4.2-4-7-3.9-11.1 0-7.7 7.4-27 30.2-32.9 39.1s-10.5 22.1-15.6 31.9zm200.7 70.7c1.4-1.6 8.8-25.5 9.1-28.5.4-4.4-3.5-11.7-5.6-15.9-3.8-7.3-18.5-32.7-23.6-37.4-5.7-5.3-8-1-14 1.1-11.8 4-23.6 7.8-35.5 11.5-1.3 1.1-1.1 1 0 2 3 2.6 6.7 4.5 9.4 7.6 6.8 8.1 12.2 22 18.6 30.9l3.1-12.4c.8-3.8 7.7-7.4 10.8-5.4 1.2.8 3.6 11.4 7.9 12.7 6.1 1.8 8.2-5 11-5.7 4.2-1 10.3 3.7 10.1 8.1-.5 11.3-14.6 20.3-25.1 18.6-1.1-.2-10.1-4.8-8.7-1.3 3.1 2.8 14.4 21.8 16.7 22.4 2 .5 14.5-6.5 16-8.2h-.2Zm-550.4 99c1.6 2 8.2 6.3 10.7 7.8 14.8 8.8 31.7 13.8 46.9 23.1 16.8 10.2 40.2 33.1 59.6 33.5 2.3 0 8.7-1.2 9.4-3.7.8-2.7-13.5-27.5-16.4-30.3-7.3-7.2-27.5-17.2-37.2-23.8-15.2-10.3-50.3-39.1-67.9-39.2-10.5 0-8.7 28.1-5.1 32.7Zm591.4-30.4c-6.1-6-24 4-30.4 7.6-16.3 9.1-30.8 21.3-46.2 31.8-9.3 6.4-25.4 13.9-33.1 20.9-3.1 2.8-16.2 24.5-16.9 28.2-1.1 5.3 6.2 6.5 10.3 6.3 16.8-1 25.6-11.2 38.2-19.8 8.3-5.7 17.3-12.1 26-17 11.7-6.6 47.1-19.2 52.7-29.3 2.4-4.3 2.8-25.2-.7-28.6ZM1126 1664c-12-2.7-20.7 6.6-31.6 7.9-5.7.7-12.2-1.2-16.6-.7-7.1.8-22.9 12.1-31.2 14.9-14.8 4.9-30.2 4.7-45.1 0-8.8-2.8-23.9-14.1-31.2-14.9-4.4-.5-10.9 1.4-16.6.7-11-1.3-19.9-11-31.6-7.4 0 7 23.7 23.4 30 27 12.5 7.1 59.7 26.8 72.5 26.6s59.8-19.7 72.2-26.9c3-1.8 33.6-23.3 29.3-27.2z" class="outline shading" data-original-prefix="shading" opacity="0.5" style="opacity: 0.5"/><path id="outline-jaw" fill="#000000" d="M1378 1122c.3-3.9.6-9.1 5.7-9.8 7.8-1.2 8.7 12 9.3 17.3 3.8 33.8 2.1 69.1 8.3 102.7 2.2 11.9 3.2 13.8 12.3 21.7 14.8 13 33.2 22.8 47.5 36.5 2.6 2.5 11.8 12.2 12 15.1l-66.1 156.3-46.9-24.9c-1.8 6.1-5.4 12.6-6.7 18.8-4.1 19.2 0 41.1-2.2 59.8-.4 3.4-10.5 17.5-13.3 18.7-6.4 3-16.2-1.8-24.7 3.3-23.8 14.4-17.9 48.6-27.2 68.8-7.8 17-37 48.2-52.9 58.1-1.6 1-2.9 1.9-4.9 1.6 1.1-14.8 3.1-34.9-3.9-48.6-.4-.8-.4-3.2-2.1-1.4-.7.7-3.6 13.8-6.6 17.9-5.8 7.9-20.7 8.9-29.4 12.6-16.7 7-14.3 32.7-27.7 43.3-19.3 15.2-61.2 32-85.1 38.9-10.8 3.1-38.9 11.3-48.7 11.3-15 0-63.4-15.1-78.8-21.2-11.1-4.4-55.3-26-60.6-34.4-6.9-11.1-8.5-31.6-21.5-37.6-14.5-6.6-26.4-2.4-33.9-20.1-1.1-2.5-2.5-10.3-2.8-10.7-1.3-1.6-1.8.4-2.2 1.3-6.9 12.5-5 34.9-3.8 48.7-2 .3-3.3-.6-4.9-1.6-15.7-9.8-48.9-44.4-54.2-61.8-6.2-20.6-5.3-52.1-25.9-65.1-8.2-5.2-18.3-.3-24.7-3.3-.9-.4-12.2-14.2-12.7-15.3-2.1-5.2-.2-29.6-.5-37.4-.4-9.1-2-18.5-3-27.5-4 1.6-7.6 4.7-11.9 5.6-2.8.6-5.6.7-8.5.3-4.7-.6-27.4-9.9-32.6-12.4-1.3-.7-2.7-1.2-3.5-2.5-2-33.7-22.2-63.7-44-88-2-4.4 2.1-14.5 3.7-19.2 6.2-17.8 15.6-36.4 25.7-52.3 3.2-5.1 14.2-22 17.9-25.1 5.5-4.4 9.8 3.3 14.6 6.6 1.6 1.1 12.7 7.8 13.5 7-2.9-7.2-9.4-11-13.8-17.7-4-6-15.9-26.4-15.8-32.6s5.4-17.7 6.5-25.3c.5-3 1.1-8.8 1.2-11.8.2-6.5-3-17.5 1.3-22.2 1.2-1.4 12.8-6.5 14.1-6.2.9.2 5 11.2 10.5 7.8 2.3-1.4 1-34.7 0-39.9.3-.3 7.6 1.8 8 2 1.8 1.1 7 8.1 9.8 9.7.5 8.4 3.4 20.7 1.1 28.7-2.8 10.1-17.5 14.8-21.2 22.8-1.2 2.6-6.4 25.9-6.7 29.3 0 1.2-.2 2.4.2 3.7 4.8 10.3 13.7 19.4 18.7 29.3s9 33.8 15.5 40c5.3 5.1 14.5 7.1 21 10.5 7.5 4.1 15.7 10.7 22.7 15.8-11.3-1.3-47.2-5.2-54.5-13-3.3-3.6-5.7-15.7-9.6-17.4-2.6-1.2-6.2-.2-9.2-.8-7-1.2-10.7-7.9-18.5-1.5-6.6 12.5-14.3 24.3-20.4 37.1-7.4 15.4-14.8 25.1-4.8 41.2 5.3 8.6 23.3 26.7 25.6 34.4 2.5 8.6-2.7 28 2.9 34.1 6 6.6 20.6 4.5 27.8.8 10.6-5.4 8.7-9.9 14.3-18.7 5.2-8.2 19.7-23.1 28.9-26.2s13.4 8.6 15.6 15.5c7.3 23.8-.2 34 22.5 51.5 11.6 8.9 33.3 20.1 47.8 17.9 8.5-1.2 21.1-6.6 27.2-12.8 7.2-7.5 8.8-24.6 24-14 15.8 11 30.3 30.1 46.6 41.4 20.5 14.3 77.5 32.5 102.5 34.6 37 3 105.5-17.1 134.5-40.5 11.5-9.3 21.6-20.6 33-30 4-3.3 11.6-11.3 17-8 .7.5 7.5 12.5 9.2 14.8 3.3 4.7 11.5 16.1 17.4 16.7 7.4.8 31.3-15.5 40.2-17.2 8.1-21.2 17.3-42.1 23.5-64 2.8-9.9 8.4-24.8 3.8-34.3-2.1-4.2-21.3-33.6-24-36-3-2.7-9.6-5-13.5-6.5-3.3-1.2-19.8-5.2-20.5-6-1.5-1.4.4-1.7 1.3-2.2 1.3-.7 11.6-5.7 12.3-5.8 2.6-.4 25.4 6.8 27.4 8.5s8.6 15.3 11 19c5 7.6 19.5 25.4 20.8 33.2.4 2.5.5 4.9-.2 7.3l-26.5 74.9c22.1-8.1 42.1-21.6 63.6-30.8 4.1-1.8 12.4-6.1 16.3-4.6 4.7 1.7 16.6 11.3 22.4 14.6 2.4 1.4 18.7 10.5 19.7 9.8l48.1-125.5c-.2-2.1-12.6-9.7-15.4-11.7-13.3-9.9-23-17.3-37.4-25.6-7.1-4.1-7.5-7.8-8.3-15.7-2.2-22.8-2.4-46.1-4-69-1.5-20.8-6.3-45.1-5-65.5h-.7Zm-649 280c-5.9.4-11.3 6.2-14.4 11.1-12.8 20.4-.6 26.3 1.3 45.5 1.3 13.2-3.2 33.5 4.7 44.3 5.3 7.3 21.6 10.7 30.1 14.9 3.6 1.8 23 13.2 24.8 15.2.4.4 3.3 5.3 3.3 5.6 0 .8-3.5 12.2-3.8 15.8-1.9 24 4.5 52.9 21 71l5 4.5c.9-4.6-1.1-9.2-1.1-13.5 0-12.5 8.2-24.3 10.1-36.5 23.5 5.4 36.4 28.6 51.4 45 11.3 12.4 23.8 14.5 34.1 23.9 6.5 5.9 11.9 15.9 17.5 22.5 14.6 17.4 20.2 23.3 41.3 32.7 29 13 50.6 21 83.2 18.9 16.8-1.1 61.8-19.2 76.4-28.6 16-10.4 26.2-34.2 40.1-45.9 10.6-9 21.7-10.9 32.5-22.5 15.6-16.6 28.5-40.5 52.5-46 .8 9.9 6.9 18.2 8.7 27.8 1.5 7.6.3 13.6.3 21.2 7.8-5.3 15.2-16.8 18.8-25.6 5.4-12.9 8.1-33.2 7.2-46.9-.2-3.4-3.8-17.5-3.5-18.4.6-1.7 3.6-5.7 5.2-6.9 4.5-3.4 17.3-10.6 22.7-13.3 11.7-5.9 31.5-8 33.6-23.4s-.7-31.7 3.8-48.2c1-3.6 5.3-8-1.4-5.4-30.7 11.8-63.4 35.5-93.6 46.4-10.1 3.6-23.8 2.7-32.8 7.2-6.8 3.5-11.5 12.3-16.4 17.6-16.2 17.4-41.8 25.6-65 28-69.4 7-135.6 6.9-205 0-21.7-2.1-46-9.9-62.5-24.5-5.9-5.2-10.7-15.4-19.3-15.2-3.9 0-8.2 3.3-11.2 3.7-5.5.6-22.8-12.9-28.7-16.2-15-8.4-31.4-14.8-46-24-2.8-1.8-16.7-11.4-17.8-13.2-2.8-4.9.2-12 0-17.1 0-10.4-4.3-21.6-7.1-31.5" class="outline" data-original-prefix="outline"/><path id="outline-jaw1" fill="#000000" d="M1253.7 1342.2c12.9-2.4 29.1 10.8 24 24-3.6 9.3-14.2 17-24.2 12.8-15.8-6.5-17-33.6.3-36.8zm12 9.1c-9.3-7.8-20.1 5.1-12.2 15.7s21.4-8 12.2-15.7" class="outline" data-name="outline-jaw" data-original-prefix="outline"/><path id="outline-jaw2" fill="#000000" d="M1313.7 1382.2c20.2-4.4 22.1 39.9-4.2 35.7-17.9-2.8-9.8-32.7 4.2-35.7m.9 9c-3.6.7-12.7 16.2-2.9 17.7 9.1 1.4 10.8-19.2 2.9-17.7" class="outline" data-name="outline-jaw" data-original-prefix="outline"/>
    </g><g class="trait-group" data-category="mouth" id="mouth-scrappy">
      <path id="fill-muzzle" fill="#ffffff" d="M1038 1292s-.4 1.7.7 2c10.3 2.8 18 4.3 25.8 13 1.9 2.2 4.9 8.8 6.5 9.5 2.6 1.2 6.6 0 9.5.5 11.4 1.5 21.2 3.7 31.2 9.8 2.1 1.3 9.2 7.8 10.2 7.1.3-.3 0-1.7 0-1.9 2.4-1.8 32.7.6 38 1 5.2 4.2 13.2 5.5 19.2 8.3 13.7 6.4 22.5 16.1 29.9 29.1 8.4 14.6 7.7 17.8 3.1 33.4-2.5 8.5-4.8 21.8-16.3 20.2 1.5-15.5-14.8-32.4-26.5-41-3.2-2.4-11.3-7.2-6 0 10.8 14.7 20.2 14.8 21.5 37.5.6 10.3-8.4 32.9-15.4 40.5-.6.7-7.1 6.3-7.6 6.5-3 1.6-6.9-6.1-7.8-8.2-3.6-7.8-4.7-15.5-9.7-23.3-1.1-1.7-10.8-13.7-12.4-12.1 5.6 13 9 46.2-2.5 56-4.4 3.7-9.4 1.9-13.3 3.7-2.8 1.3-3 5.7-4.8 6.1s-7-3.1-9.4-3.5c-8.9-1.3-13.2 17-18.7 17.5-2.5.2-10.7-11.9-18.4-9.4-7 2.2-15.4 21.2-24.4 23.6-6.3-6-3.4-14-5.8-21.2-1.2-3.5-4.2-6.7-5.8-10.2-5.4-12.7-2.8-19.9-.2-32.2.6-3 0-5.9.9-9.1.2-.7 6.3-12.3 6.9-13.1 3.7-5.4 19.2-12.4 22.7-3.8.9 2.2 0 8.7 2.2 7.7 5.1-4.9 10.2-9.9 15.5-14.5 11.5-10 14.1-9.7 21.2-24.8 1.5-3.3 6.5-14.5 6.6-17.3 0-3.4-9.2-14.7-11.8-17.8-1.4-1.7-9.5-11.5-10.2-11.8-6.4-3.2-28-2.3-34.7.8-7.9 3.6-12.5 12-19 17-1 .8-1.3 1.9-3 1.5l.8-12.7c3.6-4.3 21.7-23.3 21.1-27.5-.4-2.6-11.3-13.4-12.9-11.7 4.4 12.8.7 8.7-7.3 12.2-1.2.5-2.9 2.7-3.2 2.7s-2-2.2-3.2-2.7c-3.4-1.5-9.7-.4-9.3-5.6 0-1.1 4.1-7.6.5-6.6-2.8.8-12 9.9-11.3 13.2 0 .6 4 7 4.8 8 1.5 2 5 5.9 7 8.3 3.2 3.9 9.7 7.6 9.9 13.1 0 1.6-.8 3.1-.8 4.8s2.6 8.1-2.5 3.6c-6.2-5.3-10.2-13.6-18.5-17.5-6.5-3-30.3-4.3-35.7-.2-.8.6-8.8 10.5-10.2 12.2-2.4 3-10.9 13.7-10.8 16.8.2 5.4 11.7 29 15.7 33.2 3 3.2 9.3 6.8 13 9.9 5 4.3 9.7 9.1 14.5 13.5l4.2-11.1c4.9-3.1 17.7 2.6 20.8 7.1 1 1.5 5.1 9.9 6 11.9 2.8 6.4 5.1 25.4 4.4 32.4-1.1 10-7.9 15-9.4 22.6-1.3 6.4 1.1 14.9-5.8 18.9-8.1-2.6-17.3-21.5-23.6-23.5-8.2-2.6-15.9 9.6-18.4 9.4-5.3-.4-8.7-14-13.9-16.1-6.9-2.8-11.5 2.7-14.1 2.1-1.8-.4-2-4.8-4.8-6.1-4.5-2-9.6.3-14.3-4.7-10.9-11.5-6.5-42.2-1.5-56.1-9.1 6.7-14.1 14.8-18.5 25-1.6 3.6-2 7.5-3.7 11.3-1 2.1-4.9 9.8-7.8 8.2-.4-.2-6.9-5.9-7.5-6.5-3.9-4.3-13.8-24.4-15-30-2.8-12.9 1.4-26.5 9.5-36.5 4.1-5.1 11.3-9 13-15.5-2.4-2.4-22.3 17.4-24.4 20.1-5.4 6.8-11 15.9-9.6 24.9-8.3.5-10.7-3.3-13.3-10.2-2.7-7.1-7.8-22.8-6.2-29.8 3.7-16.2 21.4-35.8 36.3-42.7 6.2-2.9 13.9-4.1 19.2-8.3 12.5-.8 24.5-2.3 37-1 0 0 .7 2.1.5 3 9.5-8.2 20.6-14.8 33.1-16.9 4.7-.8 14.8-.4 18.1-1.8 1.6-.7 5.2-7.7 7.2-9.9 8-8.4 15.2-9.7 25.4-12.5 1.1-.3.6-1.9.7-2 1.1-.7 25.9-.7 27 0v.2Z" class="fill" data-original-prefix="fill"/><path id="fill-teeth14" fill="#ffffff" d="M1039.1 1601.9c-.8-.5-7.2-15.4-7.9-17.6-4.2-13.6-7-37.9-1.5-51.1 5.8-13.9 10.8-1 20-5 1.9-.8 7.6-6.8 9.2-8.8 2.6-3 3.6-9.1 8-8 12.8 3.1 21.1 24.2 22 36.1 2.3 30.4-23.4 40.7-45.2 53.7-1.2.5-3.6 1.3-4.6.6Z" class="fill" data-original-prefix="fill"/><path id="fill-teeth13" fill="#ffffff" d="M1015.7 1527.3c10.2 8.9 6 44.1 2.3 56.2-1.9 6.4-6 12-8.1 18.3h-2.3c-12.1-7.1-26.3-12.4-36.1-22.9-9.1-9.8-12.3-17.9-11.5-31.5.8-11.8 9-32.3 21.2-35.9 4.8-1.4 5.7 4.5 8.2 7.4 1.8 2.1 8.3 8.8 10.5 9.5 6 1.9 12.5-4.1 15.8-1.3z" class="fill" data-original-prefix="fill"/><path id="fill-teeth12" fill="#ffffff" d="M904 1461c0 2.2-1.1 3.8-.8 6.2s7.4 22.5 8.8 24c3.7 4.1 11.1 2.3 15.9 2.9 4.9 13.5-4.3 23.9-8.6 35.6-2 5.3-8.4 33.1-12.8 34.3-3.3.8-11.7-18-12.8-21.2-6.8-20.9-8.8-51.8 1.8-71.7.6-1.2 7.1-11.6 8.4-10.1Z" class="fill" data-original-prefix="fill"/><path id="fill-teeth11" fill="#ffffff" d="M1144 1564c-1 .7-1.8-.4-2.4-1.1-5.8-5.8-8.7-24.8-11.8-33.2-4.3-11.7-13.8-21.9-8.6-35.6 18.6 2.9 18.2-8.8 23.1-22.4l2.2-9.8c10.2 11.1 15.2 27.6 14.6 42.5-.5 13.7-3.2 35.3-9.5 47.5-.8 1.5-6.9 11.6-7.5 12Z" class="fill" data-original-prefix="fill"/><path id="fill-teeth10" fill="#ffffff" d="M949 1569c5.5 22.1 11.4 45.4 9 68.5-.5 5-1.3 9.2-7 6.9-3.4-1.3-17.5-13.4-19.5-16.5-7.4-11.8.3-39.7 8-50.8 1.2-1.7 7-10.1 9.4-8.1Z" class="fill" data-original-prefix="fill"/><path id="fill-teeth9" fill="#ffffff" d="M1100 1569c3.4-2.9 13.3 14.1 14.5 17 4.8 11.7 9.3 33.5 1 44-2.1 2.7-18.5 16.5-20.9 15.9-1.9-.4-3.4-6.5-3.6-8.4-1-8.7 0-26 1-35 1.1-10.9 6.5-22.5 8-33.5" class="fill" data-original-prefix="fill"/><path id="fill-teeth8" fill="#ffffff" d="M1167 1547c.9-6.7-1-15-.6-21.3.3-6.3 3.7-14.6 3.6-21.2 0-5.7-4.8-19.5-4-24 .5-2.9 3.5-2.8 5.5-4.5 6.2-5.3 10.4-15.8 16.9-4.9 14.2 23.5-1 56.5-18.4 74.4-.9 1-1.3 1.9-3 1.5" class="fill" data-original-prefix="fill"/><path id="fill-teeth7" fill="#ffffff" d="M881.7 1478.3c3.3 2.9-2.8 21-2.8 26.2s2.6 12.6 3.1 18c.7 8 0 16.5-.5 24.5-1.8 0-11.7-13.3-13.3-15.7-11.2-16.8-20.3-43.7-7-61.7 6.2-8.4 9.7.9 14 4.7 2 1.9 5.7 3 6.6 3.9Z" class="fill" data-original-prefix="fill"/><path id="fill-teeth6" fill="#ffffff" d="M1018 1613v16.5c0 .9-10.8 13.2-11.9 14.1-6.3 4.8-8-2.6-10.6-5.5-5.5-6-17.9-.4-24.4-5.6-.9-.7-4.1-8.3-4.1-8.9v-24.5c12.3 3 28.7 18.5 41.4 16.9 3.5-.4 6.1-3 9.6-2.9Z" class="fill" data-original-prefix="fill"/><path id="fill-teeth5" fill="#ffffff" d="M1102.5 1494c3.3-.8 5.3 8.5 6.3 10.7 5 10.5 15.3 30.3 11.4 42.1-2.2 6.7-15.6 23.4-20.4 11-4-10.4-4.1-44.7-1.1-55.5.4-1.6 2.4-7.9 3.8-8.2Z" class="fill" data-original-prefix="fill"/><path id="fill-teeth4" fill="#ffffff" d="M917 1563c-1.6 13.5 2.8 27.4 2 40.5-.5 8.8-4.2 18.6-5.5 27.5-5.8-5.6-10.5-15.7-11.4-23.6-.6-5.2.7-25.8 2.4-30.3.6-1.6 10.5-16.2 12.4-14.1Z" class="fill" data-original-prefix="fill"/><path id="fill-teeth3" fill="#ffffff" d="M1135 1631c-.4-8.9-4.4-17.8-5.1-26.5-1-13.6 3.6-27.7 2-41.5 2.2-2.4 11.9 13 12.5 15 2 6.8 2.7 27.3 1.2 34.3-1.3 6.3-5.5 14.8-10.8 18.7z" class="fill" data-original-prefix="fill"/><path id="fill-teeth2" fill="#ffffff" d="M1154.1 1604.9c-3.4-2-5.1-22.3-3.9-26.2.8-2.6 8.9-5.2 10.2-8.8l5.1-10.9c3.8 3.4 5.1 7.2 4.3 12.2-.7 4.5-5.2 22.3-6.9 26.2-.9 2.2-6.1 9-8.8 7.5" class="fill" data-original-prefix="fill"/><path id="fill-teeth1" fill="#ffffff" d="M885 1559c.4.4.7 7.1 3 10.5 2.7 3.9 10.5 6.9 11 10-.8 4.7-.7 23-4 25.4-2.5 1.8-7.7-4.5-8.7-6.7-1.6-3.6-6.3-22.5-7-27-.6-3.9 2.5-15.6 5.8-12.3Z" class="fill" data-original-prefix="fill"/><path id="shading-mouth2" fill="#aaaaaa" d="M918 1443.5c.8 5.3 5.6 13.8 10.1 16.9 11.5 8.3 16.2-.3 22.4-9.4 2.5 5.4 3.4 11.5 6 17 1.4 2.8 5.7 12 7.5 5.5l4-11.5c1.6 7.5 6.3 15.4 11.5 21 4.3 4.7 18.8 15.4 24.6 9.6 2-2.1 8.3-17.9 10.8-22.2 1.2-2.2 7.8-13.8 9.7-13.3 1 .2 8.5 13.2 9.7 15.3 2.4 4.5 7.3 17.7 9.8 20.2 3.8 3.8 10.5.4 14.4-1.8 10.5-5.9 18.5-17.2 21.7-28.8l4.2 12.3c.3 1.2 1.9 2.4 2.8 1.7.6-.4 5.8-11.3 6.5-13 .8-2 2.8-12 4-12 6.8 10.7 12.9 18.4 24.5 7.5 8.6-8 9.3-23.8 7-34.5 3.5-3.1 21.1 16.1 26.6 16.9 9.1 1.4 17.6-11.8 19-19.9 3.5-20.5-12.9-39.2-30.9-46.2l-12.7-4.8c15.4 0 28.2 2.9 41.1 11.4 4.8 3.1 12.2 10.9 17.6 11.4 6.2.6 10.1-4.1 10-10-.4-19.3-25.8-38.1-39.7-48.8 15.4 2.4 34.6 11.8 45 23.5 7.8 8.8 19.1 25.1 19.1 37s-6.4 28.5-9.2 32.8c-3.3 5.3-11.7 5.4-13.4 10.6-.9 8.1-2.1 16.4-2.5 24.5-1.5 29 1.4 45.2-10.8 73.2-3.6 8.2-12.7 20.4-14.9 27.1-4.2 12.8-.7 26.4-9.1 38.9-3.2 4.8-8.4 6.7-11.2 10.8-1.7 2.5-2.4 6.1-4.2 8.8-4.5 6.7-14.6 23-21.6 8.9-1.6-3.3-1.3-12.9-6.7-6.2-1.4 1.7-1.9 4.4-3.5 6.5-3.7 4.7-17.7 19.6-23.5 19.5-2.2 0-4.5-4.1-6.6-5.4-7.9-5-21.1-6.3-29.2-1.4-7.3 4.4-9.5 13.6-18.1 6.8s-6.4-10.8-20.1-9c-5.6.7-11.4 12.6-16.9 12.1-2.8-.2-11.4-11.1-18.5-12.6-6.3-1.3-17.5.7-23 4.2-2.6 1.7-4.1 5.6-7.5 5.4-5.7-.3-19.8-15.8-23.6-20.5-1.2-1.5-4.4-10.6-7.1-6.9-2.5 3.4-.6 9.9-7.2 12.7-7 3-14.9-11.2-18.1-16.4-1.2-1.8-1.2-4.3-2.6-6.4-2-3-6.8-5.4-9.5-8.5-10.4-11.9-6.7-27.7-10.7-41.3-.8-2.6-5.6-8.5-7.3-11.7-18.4-35.7-16.4-45.6-18.4-84.6-.4-7.7-.6-20.7-2.2-27.8-1.5-6.2-11.1-6.1-14.2-11.8-3.4-6.1-9.3-29.6-8.6-36.4 1.2-10.3 16.2-31.2 24-38 10.5-9.2 26.2-16.5 40-18.5l-21.5 17c-7.2 6.4-26.8 32-14.8 39.9 9 5.9 16.7-4.5 23.7-9.1 12.7-8.4 25.3-11.8 40.7-11.8l-17.3 7.2c-18 9.4-33.1 32.7-22.1 52.8 1.7 3.1 8.6 10.4 12 11.1 9.1 1.7 20.7-15.4 29.5-18 .6 6.4-.9 14.3 0 20.5zm-37.1 40.6c-12.3-.5-17.1-20.2-22.8 1.5-3.4 13 1.2 26.4 9.4 36.5 1.5 1.8 12.7 13.1 13.9 12.9.8 0 2.5-2.3 2.8-3.2 2.9-7.1-3.2-12.2-4.2-19.2-1.5-9.8 0-18.7.9-28.4Zm301.8-8.9c-3.2.8-6.3 6-8.8 7.3-2.1 1.1-7.2 1-7.8 3.2-.5 1.7 3 10.8 2.9 14.8 0 3-1.5 13.9-2.2 16.8-.9 3.6-3.9 5.7-3.9 10.2s1.4 7.1 3.7 7.4c1.9.3 15-14.4 16.8-17 5.7-8.5 9-18.8 7.3-29.2-.5-3-4.4-14.5-8-13.6Zm-284.8 10c-4-2.3-6.5 9.9-6.8 12.5-1.2 10.5 3 38 8.7 47.1 1.9 3 5.4 6.9 9.2 7.3 3.7-15.6 12.6-29.2 21-42.5-2.3-.4-1.7-2.9-2.7-3.5-1.5-.9-7-1.9-9.7-3.1-4.7-2.2-12-7.7-15.6-11.4-1.2-1.2-3.8-6.2-4.2-6.3ZM1139 1552c8.3-2 11.9-12.2 13.9-19.6 3.1-12.1 6.1-33.4 1.1-44.8-3-6.9-5.8 1.7-8.3 4.1-3.9 3.8-11 9.3-16 11.6-2.5 1.1-7.8 1.8-9.1 2.7-.7.5-.5 1.8-1 2.7-.3.4-1.7.4-1.6.9 0 1 7.9 12.3 9.2 14.8 4.8 8.8 9.1 18 11.8 27.7Zm-197.7 5.7c8.1 8.1 9.5 0 10.5-7.3.8-5.6 2.7-20.6 1.7-25.4-3.6-17.2-21.3-15.9-21.6 3.6 0 6.8 4.6 24.3 9.4 29.2Zm161.5-44.5c-5 1.3-8.5 9.3-8.8 14.2-.2 4 2.4 28.5 3.8 31.3 2.5 5 7.5 0 9.8-2.7 6.8-8.3 11.6-30.7 4.5-39.5-2.7-3.3-4.8-4.4-9.2-3.3zM1023 1544c-.7-.7-.8-7-5.1-9.4-8.9-5-21.8-.8-32-4-10.4-3.3-9.4-13.1-16.1 1.8-2.9 6.4-9.1 24.4-6.3 30.7 1.1 2.4 17.8 15.6 21.2 17.8s18.2 11.7 21.1 10c3.1-5.6 9.3-9.5 12.6-14.9 1.8-2.8 4.1-11.5 4.6-11.9 1.6-1.7 1.7.5 2.1 1.4 1.6 3.6 2.1 6.8 4.5 10.5 3.3 5.2 9.2 9.3 12.4 14.6 3.1 1.9 15.5-5.9 18.9-8.1 4.5-2.9 22.9-17 23.9-21.1 2.2-9.7-6.6-28.3-10.9-37.2-4.9 1-7.8 5.2-12.7 6.7-9.2 2.8-28.2-1.6-33.7 6.3-.9 1.2-2.6 8.9-4.5 7zm-136 18c-.7-.6-3.5 0-4.5.9-6 6.2 2.4 31.6 14.6 27.6 4-1.3 3.8-9.4 2.8-12.9-1.1-3.9-7.2-4.1-9.8-7.2-2.1-2.5-2.7-8.2-3-8.5Zm274.1 0c-.3.3-.9 6-3 8.5-2.6 3.1-8.7 3.3-9.8 7.2-1 3.4-1.2 11.6 2.8 12.9 13.4 4.4 20.2-24.5 14.1-28.1-.9-.5-3.5-.9-4-.4Zm-216.4 7.2c-1.5.4-5.1 4.6-6 6.1-3.4 5.6-5.6 32.3-4.8 39.3 1.3 10.9 15.2 18 19.5 3.5 1.7-5.6 2.6-21.4 2.5-27.6 0-1.1-5.8-19.7-6.5-20.5-1.2-1.4-3.2-1.3-4.8-.8Zm153.3-.1c.2 6.6-5.4 14.7-6 20.6-.5 4.5 1 25.3 2.4 29.4 4.2 12.1 16.9 7.3 19.1-2.9 1.1-5.2 0-16.8-.6-22.6-1-9.7-1.7-25.5-14.9-24.5m-180 1.9c-20.5 3.8-17 28.7-9 43 4 2.9 10.4-17 10.7-19.8.9-7.5-2.9-15.5-1.8-23.2Zm218 43c2.5 1.8 7.2-9.1 7.7-10.8 3.9-12.8 1.6-30.1-13.7-32.2.5 7.4-2.8 16.2-1.9 23.4.3 2.7 6.4 18.5 7.9 19.6m-148.2 10.2c1.4.8 4.8 8.6 9.5 11 11.1 5.8 20.2-6.4 20.7-16.7.8-13.7-7.2-7.7-16.5-8.6-8.4-.8-15-4.8-21.8-9.2-5.5-3.5-13.6-14.6-14.7-1.4-.5 5.1 1.4 7.5 1.8 11.2s-2 5.9.5 10.7c4.8 9.3 18 1.3 20.7 2.8zm93.1-31.1c-2.1-1.5-19.7 12.7-23.9 14.4-2.3 1-7.9 2.3-10.5 2.5-10.5.9-18.8-5.4-16.4 11.4 1 7.3 7.9 15.8 16 15.1 9.4-.8 11.9-11.6 14.6-12.4 4-1.3 12.3 5.7 18.9-1.1 4.3-4.4 1.3-8.4 1.5-12.5 0-2.3 1.9-4.8 2-8.1 0-1.9-.8-8.5-2.2-9.4Z" class="outline shading" data-original-prefix="shading" opacity="0.5" style="opacity: 0.5"/><path id="shading-mouth1" fill="#aaaaaa" d="M1041 1343c6.1.5 12.7-1 17.5-5 1.5-1.3.9-3.7 2.8-2.9 10.1 7.9 37.9 17.4 43.8 28.2 3.6 6.5 4.6 17.5-1.8 22.6-5.6 4.5-20.8 10.8-28 15-4.9 2.8-9.7 6.6-14.7 9.3-7.4 4.1-25.5 14.5-32.6 16.4-2.9.8-5.2.8-8.1 0-14.5-3.8-42.2-22.5-56.3-30.7-6.2-3.6-21.2-9.1-23.2-15.8-5.5-18.4 15.7-28.3 28.7-35.4 2.3-1.2 15.5-8.6 16.5-8.7 2.9-.3 4.2 2.9 6.7 4.2 4.2 2.3 10 3.2 14.7 2.8-.3-5.1-3.3-11.3-1.8-16.3.5-1.6 12.5-13.9 14.5-14.4 3.9-1 8.2-.3 11.6 1.9 1 .7 10.8 11.1 11.2 11.8 2.1 5-1.2 11.8-1.5 17" class="outline shading" data-original-prefix="shading" opacity="0.5" style="opacity: 0.5"/><path id="outline-mouth3" fill="#000000" d="M889 1333c-5.3 4.2-13 5.4-19.2 8.3-14.9 6.9-32.6 26.5-36.3 42.7-1.6 7 3.5 22.7 6.2 29.8 2.6 6.9 5 10.8 13.3 10.2-1.4-9 4.2-18.1 9.6-24.9 2.1-2.6 22-22.5 24.4-20.1-1.7 6.5-8.8 10.4-13 15.5-8.1 10-12.3 23.6-9.5 36.5 1.2 5.6 11.1 25.8 15 30 .6.7 7.1 6.3 7.5 6.5 3 1.5 6.9-6.1 7.8-8.2 1.7-3.8 2.1-7.7 3.7-11.3 4.4-10.2 9.4-18.4 18.5-25-5.1 13.9-9.5 44.6 1.5 56.1 4.8 5 9.9 2.7 14.3 4.7 2.8 1.3 3 5.7 4.8 6.1 2.6.6 7.2-4.9 14.1-2.1 5.2 2.1 8.6 15.6 13.9 16.1 2.5.2 10.2-12 18.4-9.4 6.3 2 15.5 20.8 23.6 23.5 6.9-4 4.5-12.6 5.8-18.9 1.5-7.6 8.3-12.6 9.4-22.6.8-7-1.6-26-4.4-32.4-.9-2.1-5-10.5-6-11.9-3.1-4.5-15.9-10.2-20.8-7.1l-4.2 11.1c-4.8-4.4-9.5-9.2-14.5-13.5-3.7-3.2-10-6.8-13-9.9-4-4.2-15.5-27.8-15.7-33.2 0-3.1 8.4-13.8 10.8-16.8 1.4-1.8 9.5-11.6 10.2-12.2 5.4-4.1 29.2-2.8 35.7.2 8.4 3.8 12.4 12.1 18.5 17.5 5.2 4.5 2.5-1.7 2.5-3.6s.9-3.2.8-4.8c-.2-5.4-6.7-9.2-9.9-13.1-2-2.4-5.5-6.3-7-8.3-.8-1-4.7-7.3-4.8-8-.7-3.3 8.6-12.4 11.3-13.2 3.6-1-.5 5.5-.5 6.6-.4 5.2 5.9 4.1 9.3 5.6 1.2.5 3 2.7 3.2 2.7s2-2.2 3.2-2.7c8-3.5 11.7.6 7.3-12.2 1.6-1.7 12.5 9.1 12.9 11.7.6 4.2-17.5 23.2-21.1 27.5l-.8 12.7c1.7.4 2-.7 3-1.5 6.5-5 11.1-13.4 19-17 6.8-3.1 28.3-4.1 34.7-.8.7.3 8.8 10.1 10.2 11.8 2.6 3.1 11.9 14.4 11.8 17.8 0 2.8-5 14.1-6.6 17.3-7.1 15.2-9.7 14.8-21.2 24.8-5.3 4.6-10.4 9.6-15.5 14.5-2.2.9-1.4-5.6-2.2-7.7-3.4-8.6-19-1.6-22.7 3.8-.6.8-6.7 12.4-6.9 13.1-1 3.2-.3 6.1-.9 9.1-2.6 12.3-5.2 19.6.2 32.2 1.5 3.5 4.6 6.8 5.8 10.2 2.5 7.2-.5 15.2 5.8 21.2 9-2.3 17.4-21.3 24.4-23.6 7.7-2.4 15.9 9.6 18.4 9.4 5.6-.5 9.8-18.8 18.7-17.5 2.3.3 7.6 3.9 9.4 3.5s2-4.8 4.8-6.1c3.9-1.8 8.9 0 13.3-3.7 11.5-9.9 8.1-43 2.5-56 1.6-1.7 11.3 10.4 12.4 12.1 5.1 7.8 6.1 15.5 9.7 23.3 1 2.1 4.8 9.8 7.8 8.2.4-.2 6.9-5.8 7.6-6.5 7-7.6 16-30.2 15.4-40.5-1.3-22.7-10.7-22.7-21.5-37.5-5.3-7.2 2.8-2.4 6 0 11.8 8.6 28 25.5 26.5 41 11.4 1.6 13.7-11.7 16.3-20.2 4.6-15.6 5.3-18.8-3.1-33.4-7.4-13-16.3-22.7-29.9-29.1-6-2.8-14.1-4.1-19.2-8.3 9.3.7 19.7 2.8 29.2 5.3 7.4 1.9 14.4 3.9 20.7 8.3 3.2 9.3 27.6 34.6 28 42 .2 3.7-8.2 22.5-10 27.9-2.5 7.2-2.6 16-10 21-1.9 1.3-8.4 2-9 3.2-4.1 7.9-1.4 38-1.9 48.8-1.1 21.6-7.6 43.1-20.5 60.5-.9 1.2-2.6 1.5-3.6 2.7-4.3 5.6-2.8 18.6-4.3 26.5-1.2 6-5 13.1-5.6 18.4-.4 3.5 1.3 7.7.8 9.7s-10.7 8.6-13.2 9.9c-2.2 1.2-5.7 1.5-6.5 2-.6.4-5.4 10.9-7.2 13.3-2.1 2.7-11.1 11.3-14 12.1-4.1 1.2-7.9-10.3-9.9-13s-2.3 2.3-3.6 4.3c-4.3 6.7-25.1 26.6-32.4 28.6-1.7.5-3.3.7-5 .5-.4-5.9 3.2-9.9-1.5-15.1-8.2-9-20.9-.3-24.3 8.8-1.8 4.9-1.6 20-8.6 18.1-4.6-1.3-20-25.6-23.2-30.8-5.7 8.9-12.2 19.9-19.5 27.4-11.2 11.7-9.9-11-13.8-18.2-3.8-7.1-14-12-21.1-6.7-6.7 5-2.9 9.6-3.1 16.4-3.5 3.5-24.3-13.8-27.5-17-1.3-1.3-10.5-12.2-11-13-.7-1.4-.2-6.3-2.6-3.3-2.1 2.7-6.2 14.3-10.2 13.3s-12-10.2-13.7-12.4c-2.1-2.7-6.6-12.8-7.2-13.2-.8-.5-3.8-.6-5.8-1.7-2.3-1.2-11.9-7.4-13-9-2.1-3.2.4-6.9 0-11-.7-6.8-5.9-15.3-6.8-24.2-.5-5 .6-10.7-.6-15.4-1-4-8-10-10.7-14.3-15.3-24.4-17.6-52.1-17.9-80.2 0-5.4 3-18.2 0-22.8-.8-1.2-7.8-1.9-10.4-3.8-7.2-5.3-6.2-13-8.6-20.4-1.9-6-10.7-24.3-9.8-28.7.5-2.7 4.3-7.5 6-10.1 7-10.8 15.7-20.6 22.5-31.5 5.9-4.3 13.2-6 20.1-7.9 9.7-2.6 19.8-4.7 29.2-5.3h.2Zm15 128c-1.4-1.5-7.8 8.9-8.4 10.1-10.6 19.9-8.6 50.8-1.8 71.7 1.1 3.3 9.4 22.1 12.8 21.2 4.4-1.1 10.8-28.9 12.8-34.3 4.3-11.7 13.6-22.1 8.6-35.6-4.8-.6-12.2 1.2-15.9-2.9-1.4-1.5-8.5-21.7-8.8-24s.8-4 .8-6.2Zm240 103c.6-.4 6.8-10.5 7.5-12 6.3-12.1 9-33.7 9.5-47.5.6-14.9-4.3-31.4-14.6-42.5l-2.2 9.8c-4.9 13.6-4.6 25.2-23.1 22.4-5.2 13.7 4.3 23.9 8.6 35.6 3.1 8.4 6 27.5 11.8 33.2.7.7 1.4 1.8 2.4 1.1Zm-262.3-85.7c-1-.9-4.6-2-6.6-3.9-4.2-3.9-7.8-13.1-14-4.7-13.3 17.9-4.1 44.9 7 61.7 1.6 2.4 11.5 15.7 13.3 15.7.5-8 1.2-16.5.5-24.5-.4-5.4-3.1-12.3-3.1-18s6-23.3 2.8-26.2ZM1167 1547c1.7.4 2-.5 3-1.5 17.4-17.9 32.6-50.9 18.4-74.4-6.5-10.8-10.8-.4-16.9 4.9-2 1.7-5 1.6-5.5 4.5-.8 4.5 4 18.3 4 24s-3.3 14.8-3.6 21.2c-.3 6.3 1.6 14.6.6 21.3m-64.5-53c-1.4.3-3.3 6.6-3.8 8.2-3 10.7-2.9 45.1 1.1 55.5 4.8 12.4 18.2-4.3 20.4-11 3.9-11.7-6.4-31.5-11.4-42.1-1-2.2-3-11.4-6.3-10.7Zm-86.8 33.3c-3.2-2.8-9.7 3.2-15.8 1.3-2.1-.7-8.7-7.5-10.5-9.5-2.6-2.9-3.4-8.8-8.2-7.4-12.2 3.5-20.5 24.1-21.2 35.9-.9 13.6 2.4 21.7 11.5 31.5 9.8 10.4 24 15.7 36.1 23h2.3c2.1-6.4 6.2-12 8.1-18.4 3.7-12.2 7.9-47.3-2.3-56.2zm23.4 74.6c1.1.7 3.4 0 4.6-.6 21.8-13.1 47.5-23.3 45.2-53.7-.9-11.9-9.2-33-22-36.1-4.4-1.1-5.5 5-8 8-1.7 1.9-7.3 7.9-9.2 8.8-9.2 4-14.3-9-20 5-5.4 13.2-2.6 37.5 1.5 51.1.7 2.2 7.1 17.1 7.9 17.6ZM885 1559c-3.2-3.3-6.4 8.4-5.8 12.3.7 4.5 5.4 23.4 7 27 1 2.2 6.2 8.5 8.7 6.7 3.4-2.4 3.2-20.7 4-25.4-.5-3.1-8.3-6.1-11-10-2.3-3.5-2.6-10.1-3-10.5Zm269.1 45.9c2.7 1.5 7.8-5.3 8.8-7.5 1.7-3.8 6.1-21.6 6.9-26.2.8-5-.5-8.8-4.3-12.2l-5.1 10.9c-1.4 3.6-9.4 6.1-10.2 8.8-1.2 3.9.5 24.2 3.9 26.2M917 1563c-1.9-2.2-11.8 12.5-12.4 14.1-1.7 4.6-3 25.2-2.4 30.3.9 7.9 5.6 18 11.4 23.6 1.4-8.8 5-18.6 5.5-27.5.8-13.1-3.7-27.1-2-40.5Zm218 68c5.3-3.9 9.4-12.4 10.8-18.7 1.5-7 .8-27.4-1.2-34.3-.6-1.9-10.4-17.4-12.5-15 1.5 13.8-3.1 28-2 41.5.7 8.7 4.6 17.6 5.1 26.5zm-186-62c-2.4-2-8.2 6.4-9.4 8.1-7.7 11.1-15.4 39-8 50.8 2 3.2 16 15.2 19.5 16.5 5.6 2.2 6.5-1.9 7-6.9 2.4-23.1-3.5-46.4-9-68.5Zm151 0c-1.5 11-6.9 22.6-8 33.5-.9 9-2 26.3-1 35 .2 1.9 1.7 8 3.6 8.4 2.4.6 18.8-13.3 20.9-15.9 8.3-10.5 3.8-32.3-1-44-1.2-2.9-11-19.9-14.5-17m-82 44c-3.5 0-6.1 2.5-9.6 2.9-12.7 1.6-29.1-13.9-41.4-16.9v24.5c0 .6 3.2 8.2 4.1 8.9 6.5 5.2 18.9-.4 24.4 5.6 2.6 2.9 4.3 10.3 10.6 5.5 1.1-.8 11.9-13.1 11.9-14.1v-16.5Z" class="outline" data-original-prefix="outline"/><path id="outline-mouth2" fill="#000000" d="M1122 1332c-.2 0 .2 1.6 0 1.9-1 .8-8.1-5.8-10.2-7.1-10-6.1-19.8-8.3-31.2-9.8-2.9-.4-6.9.7-9.5-.5-1.5-.8-4.5-7.4-6.5-9.5-7.8-8.7-15.6-10.2-25.8-13-1.1-.3-.6-1.9-.7-2 3.1-3.8 16.2-9.3 20.8-9.8 7.9-.9 5.5 4.4 6.5 9.1 2.3 10.7 9.3 19.6 21.3 18.8 5.1-.3 5.6-4 7.9-4.1 1.4 0 6.6 2.9 8.2 3.8 9.4 5.2 15 12.5 19.3 22.2z" class="outline" data-original-prefix="outline"/><path id="outline-mouth1" fill="#000000" d="M1011 1292s.4 1.7-.7 2c-10.2 2.8-17.4 4.1-25.4 12.5-2 2.1-5.6 9.2-7.2 9.9-3.4 1.4-13.5 1-18.1 1.8-12.5 2.1-23.6 8.7-33.1 16.9.2-.9-.5-2.8-.5-3 .8-2.7 8.7-13.3 11-15.6 2.5-2.4 14.7-10.5 17.6-10.4 2.7 0 3 5.1 11.9 3.9 10-1.3 16.2-10.1 17.5-19.6.4-2.6-2.4-6.7 2.8-8.2 3.5-1 21.7 5.6 24.3 9.8Z" class="outline" data-original-prefix="outline"/>
    </g><g class="trait-group" data-category="eyes" id="eyes-beaker">
      <g id="eyes-goggles"><path id="fill-eyes-skull" fill="#ffffff" d="M1337.7 1024.3c1.5.9 16.3 27.2 18.4 31.1 9.7 17.9 18.4 36.1 23.1 55.8.9 3.7 4.9 7.3-.6 11.5s-13.7 5.7-17.7 7.8c-9.3 4.9-18.6 9.9-27.5 15.5-1.2 42.7-11 81.2-47.2 106.8-43.1 30.5-110 44.9-161.5 32.9-13.7-3.2-24.1-9.2-39.1-3.9-11.8-10.4-26-18.9-37.7-29.3-7.2-6.4-13-14.8-20.5-20.5-2.7 1.3-6.1-.6-8.4.4s-13.7 15-17 18c-12.4 11.4-27.2 20.1-39.7 31.3-3.4.3-6.4-1.6-9.8-1.8-14-1.1-26.2 5.6-40.1 7.8-49.6 8.1-115.4-7.3-155.2-38.4-33-25.8-41.6-63-42.6-103.4-9.7-5.8-19.6-11.2-29.5-16.5s-18-6.5-18.9-12.2 2.6-4.6 3.6-7 .9-6.7 2.1-9.9c7.7-20.9 25.7-58.2 39.1-75.6s2.4-.4 3.1-1.3c18-23.8 37.3-50.3 58.9-70.8 140.3-133.5 334.8-143 483.5-16.5 25.5 21.7 43.5 44 64.5 69.5s10.4 15.7 12.5 17.5 3.2.6 4.2 1.3Z" class="fill" data-original-prefix="fill"/><path id="outline-eyes6" fill="#000000" d="M696 1136c.7 5.7-1.4 11.4-2 17-1.4 1.2-21.5-7.8-24.8-8.7-13.8-4-26.1 4.1-24.1-17.7 2.4-26.3 17.9-67.1 30.7-90.3 4.9-8.8 24.5-40.3 33.1-42.9 3.1-.9 7.2 1.5 8.9.5.4-.3 3.7-6.5 5.2-8.3 78.3-95.7 168.6-146.9 294.5-148.6 132.9-1.8 222.6 47.8 306.4 147.6 1.4 1.7 5.8 9 6.2 9.3 2.4 1.4 7-1.2 9.8-.4 7.6 2.1 25.6 30.2 30.2 37.9 13.9 23.7 31.8 69 33.8 96.2 1.6 20.6-11.3 13.1-24.2 16.8-2.5.7-4.5 2.5-6.8 3.2-5.8 1.8-11.9 2.9-17.5 5.5l-3.5-17c.2-.3-.2-1.8.2-2.3 3.6-4.4 22.6-10.5 23.3-11.7 4.5-6.8-6.4-31.1-9.7-38.4-3.9-8.8-9.1-18.8-13.7-27.3-2-3.7-15.9-28.3-17.4-29.1-.5-.3-10.8-1.3-12.3-1.3-8.7 0-25.2 1.8-34 3.1-7.3 1.1-14.2 4-21.5 5-.4-1.8.9-2.5 2-3.5 10.3-10 25.8-16.8 38.1-24.1-2.6-12.8-10.1-23.8-18.6-33.4-37.8-43-100.8-73.6-152.2-97.8-64.6-30.5-162.4-29.5-226.7 1-47.5 22.5-138.9 67.2-163.2 114.8-1.5 3-6.7 13.2-4.5 15.5 9 5.4 19.5 10 28 16.1 2 1.4 13.1 9.4 11.1 11.4-7.1-1.7-14.2-3.9-21.5-5-8.8-1.3-24.5-3.1-33-3.1s-7.8 2-11.8 1.1c-9.3 14.8-18.8 29.9-26.6 45.6-4.4 8.9-14.4 29.9-15.1 38.9-.2 2.4-.6 9.7 1 11 1 .8 4.9 1.5 6.7 2.3 5.2 2.4 14.7 5.6 15.3 11.2h.2Z" class="outline" data-original-prefix="outline"/><path id="outline-eyes5" fill="#000000" d="M981 1184c-1.9.4-2.4-1-3.4-2.1-13.3-14.7-23-34.8-35.1-47.9-22.5-24.4-60.9-45.3-87.4-65.6-1.2-.9-9.5-7-8.1-8.4 16.5 4.3 29.6 16 44.3 24.2 19.2 10.7 39.3 20 58.6 30.4 5.3 6 8.9 13.4 12.2 20.8 7.2 15.8 12.7 32.5 18.8 48.7Z" class="outline" data-original-prefix="outline"/><path id="outline-eyes4" fill="#000000" d="M1202 1060c.4 1.8-.9 2.5-2 3.5-7.4 7.2-18.8 12.6-27.3 18.7-19.4 13.7-51 35.4-66.7 52.3-10.2 10.9-18.1 30.5-29.4 41.6l-8.5 8c6.1-16.2 11.6-32.9 18.8-48.7 2.4-5.2 7.3-16.6 11.2-19.8 22.4-12.8 46.4-23.4 68.7-36.3 11.5-6.6 21.7-16.7 35.3-19.2Z" class="outline" data-original-prefix="outline"/><path id="fill-eye-lens2" fill="#ffffff" d="M825.8 1080.2c12 .1 33 9.8 43.5 16 68.6 40.5 84.8 127.1 44.1 193.7-76.9 126.1-228.1 32.8-206.1-98.1 9.2-54.6 60.3-112.1 118.5-111.6" class="fill" data-original-prefix="fill"/><path id="fill-eye-lens1" fill="#ffffff" d="M1219.8 1080.2c40-2 88.2 33.9 106.4 68.1 21.9 41.4 22.5 93.8 1 135.3-36.3 70.1-124.4 91.4-178.1 26.8-49.9-60-50.7-147.2 10-200 13-11.3 43.7-29.4 60.8-30.3Z" class="fill" data-original-prefix="fill"/><path id="fill-eyes-rims" fill="#ffffff" d="M1443.4 1122.6c-15.3-2.5-30.1 1.3-45.4.6-11.1-.5-19.7-6.1-27.2-13.8-8.1-8.3-14.7-17.8-22.2-26.6-8.7-10.1-19.1-18.7-30.8-25.2-25.3-14.1-54.4-19-83-19.1-15.4 0-30.8 1.2-46.1 2.8-15.4 1.6-31 3-45.9 7.4-29.3 8.6-51.5 29.5-72.1 51.1-1.6.6-2.8 1.5-3.8 2.7-32.6.2-65.3-.3-97.9-1.5-.4-.8-.8-1.7-1.3-2.5-4.5-7-11.8-13-17.9-18.6-13-12-27.2-22.9-42.1-32.5-1.7-1.1-3.3-1.6-4.9-1.7-.7-.1-1.4-.2-2.1-.2q-50.7-.9-101.4-.3c-2.6 0-4.7.9-6.3 2.2-20.3 1.5-40.2 6.9-58.7 15.6-4.5 1.8-9 3.9-13.4 6.2-28 14.7-46 39-61.2 65.7-1.4-3.5-4.5-6.4-9.3-6.7-8.5-.5-17.1-.5-25.7.1-7.7.6-16.7 1-20.9 8.6-4 7.2 0 16.6.8 24.3.7 7.6.8 15.3.8 22.9.2 15.2-.3 32.1 4.7 46.6 4.6 13.3 19.9 13.5 33 11.2 3.2 24.9 8 49.3 20.1 71.7 21.5 39.6 60.8 69.1 104.3 80.2 22.9 5.8 46.5 6.2 69.7 1.5 13.9-2.8 27.4-7.3 40.7-12.3 13.6-5.1 27.5-10.1 40.5-16.6 24.8-12.4 43.4-32.7 55.3-57.5 10.6-22 16.5-45.7 20.7-69.7 18.7-2.9 37.9-3.1 56.7-.4 4 31 10 62.5 30.3 87.3 11.6 14.1 27.6 23.6 43.4 32.3 16.2 8.8 32.1 18.5 48.6 26.7 16.9 8.3 34.2 14.2 53 16.2 17 1.8 34.5.2 51.1-4 33.3-8.4 63.5-27.7 85.7-53.9 23.8-28.1 39.2-62.5 46-98.6 8.7-.6 17.3-1.3 26-1.9 5.9-.4 10.2-4.5 10.5-10.5 1.8-33.2 3.5-66.5 5.2-99.7.2-4.2-3.4-9.4-7.7-10.1Zm-541.8 195.8c-18.4 19.1-42.6 31.7-68.8 36.1-14.2 2.3-28.8 1.8-43-1.3-.8-1.4-2.1-2.6-3.8-3.5-31.8-16.3-58.5-40.6-77.7-70.4-.6-1.4-1.2-2.9-1.8-4.3-4.6-16.8-8.3-33.9-11.1-51.1v-3.4c.2-7 .6-13.9 1.1-20.8.4-5.7.8-11.5 1.2-17.2 11.8-42.8 44.9-79.7 87.9-93 5.8-1.8 7.9-6.4 7.4-10.9 36.8-4.6 75.8 5.9 104.7 29.2 14.9 12.1 27.1 27.2 35.9 44.2 0 .6-.1 1.2 0 1.8 0 .6.1 1.1.2 1.7 6.3 55.2 9.2 119.9-32.2 163Zm449.7-119.5c-.6 18.5-1.8 37.6-5.7 56-.6.9-1 1.8-1.4 2.8-7.6 22.3-19 43-33.4 61.5-11.4 9.9-24.6 18.2-37.8 25.1-14.8 4.9-30.8 7-46.4 6.5-16.3-.5-32.2-3.8-47.8-8.6-.8-1.5-2.1-2.7-3.7-3.4-6.9-3.3-11.9-8.6-17-14.1-4.9-5.3-9.7-10.7-14.4-16.3-9.2-11-17.8-22.7-24.5-35.4-6.6-12.5-11-26.1-12.4-40.2-1.4-14-1.4-28.2-4.4-41.9 1-5.1 2.2-10.1 3.7-15 5.2-17.8 13.2-36 24.1-51.8 13.3-13.7 27.4-26.8 43.2-37.1l21.3-11.1c.7 0 1.5-.2 2.3-.4 32.7-9.2 67.4-1.7 94.9 17.8 27.9 19.7 43.2 49.7 54.9 80.9l1.8 4.8c1.1 5.8 2.1 11.7 3 17.6-.2.8-.3 1.6-.4 2.4Zm21.6-13.6c-.4-1.4-.9-2.9-1.4-4.3.6 1.4 1.2 2.8 1.8 4.1-.2 0-.3.2-.5.2Z" class="fill" data-original-prefix="fill"/><g id="eyes-shading"><path id="shading-eyes-9" fill="#aaaaaa" d="M828 1341c30.3-58.6 59.5-117.8 86.6-178 1.4-2.2-5.1-12.5-6.1-13-1.6-.8-1.4.8-1.8 1.2-3.3 4.6-6.5 10.5-9.5 15.4-33.5 54.8-63.1 112.1-93.2 168.8-2.2 2.3-11.1-1.5-14.3-2.8-2.4-1-11.8-4.9-11.8-7.2l111.9-197.3c1-4-6.4-8.8-9.5-11.1-16.1-12-46.8-25.6-66.9-26.2-5.7-.2-6.7 3.5-9.5 7.5-11.7 17.3-22.5 38.9-32.5 57.5-18 33.7-35.5 67.9-50.5 103-1.7 1.2-4.2-10.7-4.5-12-6.3-28.1-5-57.3 3.3-84.8 3.1-10.4 8.7-19.5 13.3-29.2-1.1-1.2-9 7.3-10 8.5-25.8 29.8-29.6 76.5-18 113 19.8 62.7 60.6 106.8 131.4 97.3 35.1-4.7 61.4-30.6 80-59 3.7-5.6 19.1-35.9 22.3-36.8 9.1-2.6 3 15.1 1.8 18.8-14.2 44.2-63 92.9-110.9 96.1-146.7 9.8-214.5-185-101-273 34.5-26.8 62.1-29.6 105-26 26.1 2.2 68.2 30.1 85 50 11.3 13.4 24.8 43.2 26.4 60.6 2.1 22.3-6 49-12.6 70.2-9.5 30.6-31.5 65-61.3 78.7-4.2 1.9-25.1 9.5-28.5 9.5h-14.5Z" class="outline shading" data-original-prefix="shading" opacity="0.5" style="opacity: 0.5"/><path id="shading-eyes-8" fill="#aaaaaa" d="M1341 1197c-1.8.3-1.1 5.2-1 6.5.6 11.1 1.4 19.5 0 30.8-2.5 19.2-21.3 61.8-35.4 74.6-17.5 15.9-43.2 27.4-66.5 31 12.9-34.5 27.5-68.4 40.7-102.8 11.3-29.3 22-58.8 32.8-88.2 1.1-2.2-6.8-12.6-7.6-12l-91.1 201.4c-3.7 5.2-20.8-2.8-25.9-4.4l100-214.5c0-2.7-14.6-12.5-17.7-14.3-18.9-11.2-43.3-16.8-64.9-11.3l-79.4 169.1c-5.7-10.8-9.1-22.4-12.5-34-14.3-48.2 27.2-121 71.5-142.5 16.4-8 29.6-9.2 47.6-9.5 9.8-.2 18.8-1.7 28.1-1.9 18.6-.3 36.5 6.9 51.7 17.1 123.7 83 58.4 289-92.9 278.9-47.9-3.2-96.3-51.2-110.7-95.3-1.2-3.7-8-26.1 2.8-18.8 3.1 2 15.4 27.3 19 33 27.3 43.3 61.9 69.2 115.8 61.9 50.8-6.9 77.9-43.2 94.4-88.6 5.9-16.3 5.7-25.4 4.2-42.7-.7-7.8-2.7-15.6-3-23.5" class="outline shading" data-original-prefix="shading" opacity="0.5" style="opacity: 0.5"/><path id="shading-eyes-5" fill="#aaaaaa" d="M1054.8 1224.8c3.2-20.6 5.1-40.3 11.2-60.3 1.8-5.7 9-27.1 12-30.8 2.4-3 8.5-2 7.7 2.3-.6 3.2-6.6 11.7-8.4 16.7-4.3 12.2-6.8 28.8-8.2 41.8-1.2 11.4-.4 25.1-2.1 35.9-1.8 11.2-15.3 6.7-22.4 6.5-13.3-.3-26.8-.2-40.1 0-7.5.1-19.2 4.6-23.2-4.7-2.3-28.3-1.8-60.2-13.5-86.5-1.2-2.8-4.6-6.5-5.3-8.8-1.1-3.4 1.7-5.7 4.9-4.9 4.1 1.1 12.1 24.3 13.7 29.3 6.5 20.4 9.3 41.3 11.4 62.6 20 5.7 41.9 4.7 62.3.7Z" class="outline shading" data-original-prefix="shading" opacity="0.5" style="opacity: 0.5"/><path id="shading-eyes-4" fill="#aaaaaa" d="M1441 1235c-10.6 2-20.9 11.1-31.9 6.9 2.3-38.8-3.8-78.8-22.2-113.3 10.7-6.8 10.5-5 16.2 4.8 15 25.6 19.6 58.4 20.8 87.7.6.7 14.2-5.2 17-4v18Z" class="outline shading" data-original-prefix="shading" opacity="0.5" style="opacity: 0.5"/><path id="shading-eyes-3" fill="#aaaaaa" d="M607 1217c2.8-1.2 16.4 4.7 17 4 .8-29.6 6.1-63.3 21.5-89 3.8-6.4 5.4-10.6 12.9-4.9 4.2 3.2-3.1 12.5-4.8 16.9-10.1 24.9-16.3 57.6-15.5 84.5.1 3.9 2.4 8.6.5 12.5-3.4 6.9-26.1-5-31.5-6.5-1.6-1.4 1.1-14.1 0-17.5Z" class="outline shading" data-original-prefix="shading" opacity="0.5" style="opacity: 0.5"/><path id="shading-eyes-2" fill="#aaaaaa" d="M1107 1341c-1.4.2-2.5-.2-3.7-.8-2.4-1.1-19.6-12.4-21.8-14.2-10.3-8.9-29.2-64.3-27.4-77.5 1-7 15.4-5 16.4-3.6 1.2 1.8 1.9 14.4 2.8 18.2 3.5 15.5 15.4 41.6 23.2 55.8 1.8 3.4 9.8 13.9 10.3 15.7.6 2 .1 4.2.2 6.3Z" class="outline shading" data-original-prefix="shading" opacity="0.5" style="opacity: 0.5"/><path id="shading-eyes-1" fill="#aaaaaa" d="M941 1341c0-2.4-.3-4.6.5-6.9 1.2-3.6 10.3-15.7 13-21 6.7-13.2 16.9-35.9 20-50 .8-3.8 1.7-16.3 3-18 1.5-2 16.1-3.6 16.6 5.5.7 12.7-17.4 65.6-26.6 74.5-2.2 2.2-19.8 13.6-22.9 15.1-1.2.6-2 1.3-3.6.9Z" class="outline shading" data-original-prefix="shading" opacity="0.5" style="opacity: 0.5"/></g><path id="outline-eyes3" fill="#000000" d="M1389 1103c26.4 8.4 53.8 8.7 81 13.1-14.7 46.7-12.2 96.5-11.4 144.9-14.6 6.7-31.3-1.8-46.6-.6-7.1 30.3-16.5 61.3-35.9 86-75.1 95.1-181.4 76.1-270.7 13.8-32.9-22.9-39.4-35.2-52.5-72.5-4.8-13.6-9.9-27.4-11.8-41.7-11.4-1.1-22.5-1.1-33.9 0-1.9 14.7-7.3 29.3-12.3 43.2-12.9 36.2-19.5 48.2-51.4 70.6-89 62.5-195.6 82-270.8-12.8-19.7-24.9-29.3-56-36.4-86.6-14.2-.9-29.1 5.5-43.3 2.3-5.5-1.2-2.7-3.7-2.7-7.2 0-35.7 1.4-73.6-4.3-108.8-1.7-10.5-5-20.5-7.7-30.7 27.2-4.7 55.5-4.5 82-13.1 17.8-5.8 14.4-7.8 25.5-20 20.9-23.1 42.8-35.2 71.5-46.4 26.5-10.4 34.6-8.6 62.5-7.5 21.7.8 43.5 1.5 65 4 19 2.2 39.5 3.8 54.5 16.5 15.6 13.1 28.3 31 42 46 28.6 2.2 57.4 2.2 86 0 15.5-15.7 34.3-45.4 54.8-54.2 23.2-10 86.7-12.5 113.7-13.3 16.3-.5 29.3-1 44.8 4.3 31.5 10.8 59.8 25.9 82.3 50.7 12 13.2 7.3 13.9 26.5 20Zm-593.2-54.7c-108 7.2-173.1 129.2-138.8 227.2 25.9 74 84.1 126 166.5 120.5 56.3-3.8 119-56.1 137.5-108.5 39.4-111.4-40.5-247.6-165.2-239.2m437 0c-115.5 7.8-182.9 134.3-145.8 239.2 18.7 52.7 81.8 105.1 138.5 108.5 82 4.9 139.7-46.7 165.6-120.5 36.8-105.2-40.8-235.1-158.2-227.2ZM882 1053c33.2 12.8 54.5 43.2 74.5 71 2.3-3.1 11.6-9.7 11.3-13.3-.6-6.8-26.5-34.7-32.8-40.2-16.1-14.2-27.1-16.8-48.5-18.5-1.1 0-4.7-.8-4.5 1m284-1c-13.5 1.8-29.8 1.6-41.3 9.2-8.5 5.6-45.3 41.4-44.5 50.2.3 3.3 9.1 9.7 11.3 12.6 16.1-22.9 32.9-45.6 56.2-61.8zm-194 77h104c-2.4-6.9-8-12.7-11.7-19-27.1-.7-54-1.1-81.1.2-.7 2.7-12.5 17.6-11.2 18.8m-323 3-45 6c1.3 6.3 3.5 12.5 4.7 18.8 3.1 16.1 4.6 33.3 5.3 49.7.3 5.9-1.3 21.8.1 25.9.8 2.2 15.5 6.3 18.4 6.6s.5-4.3.4-6.4c-1.2-35.1 1.4-68.2 16-100.5Zm795 6-45-6c14.8 33.6 18.8 70.6 15 107 3.5-.7 18.8-3.7 19.8-6.7 1.4-4.1-.2-20 .1-25.9.8-16.4 2.3-33.6 5.3-49.7 1.2-6.3 3.4-12.5 4.7-18.8Zm-457 95h74c0-10.9-.1-20.2 1.5-31 3.3-22.6 11.9-44.1 17.5-66-5.9 2.7-12.6 0-18.4 0-29.5-.3-59.5 1.8-89.1 1.1-1.7 0-2.9-.3-4.4-1.1 5.6 21.9 14.2 43.3 17.5 66 1.6 10.8 1.5 20.2 1.5 31Zm2 13c-2.1.2-7.4-.8-8.6.9-.7 1-3.1 19.4-3.9 23.1-5.3 23.4-15.1 44.9-29.5 64 2 .5 2.7-.7 4-1.4 3.4-2 11.8-7.9 14.4-10.6 4.8-4.7 12.8-27.6 15-35 4-13.3 6.4-27.3 8.5-41Zm111 88c1.1-1.2-9.2-14.6-10.5-17-8.2-14.2-14.3-31.1-18-47-.8-3.7-3.3-22.1-3.9-23.1-1.2-1.8-6.4-.7-8.6-.9 2.2 13.7 4.5 27.7 8.5 41 2.2 7.4 10.2 30.3 15 35z" class="outline" data-original-prefix="outline"/><path id="outline-eyes2" fill="#000000" d="M791.8 1064.3c75.4-6.2 152.2 54.7 157.2 131.2 4.3 66.6-6.2 126.6-67.7 162.3-85.2 49.4-185-7.6-209.8-96.8-24.3-87.4 23.4-188.8 120.3-196.7m34 15.9c-58.3-.5-109.4 57-118.5 111.6-22 130.9 129.2 224.2 206.1 98.1 40.7-66.7 24.5-153.3-44.1-193.7-10.5-6.2-31.5-15.8-43.5-16M763 1084c-16.4 3.7-31.9 14.1-44 25.5-72.4 68-52 193.5 33.3 240.7 61.6 34.1 135.2 13.3 170.5-46.9 4.6-7.8 10.1-18.4 11.2-27.3-2.8-.6-1.6.8-2.3 2.1-31.8 59.3-83.5 103.3-154.4 72-101.6-44.9-112.9-205.9-16.3-263.7 1.3-.8 2.5.2 2-2.5Z" class="outline" data-original-prefix="outline"/><path id="outline-eyes1" fill="#000000" d="M1229.8 1064.3c74.4-6.3 136.7 43.9 149.9 116.5 20.8 114.3-79.9 232.9-197 185-73.2-29.9-88.4-97.7-83.7-170.3 4.2-64.8 66.5-125.8 130.8-131.2m-10 15.9c-17.1.9-47.8 19-60.8 30.3-60.6 52.8-59.9 139.9-10 200 53.7 64.6 141.8 43.3 178.1-26.8 21.5-41.5 20.9-94-1-135.3-18.1-34.2-66.3-70.1-106.4-68.1ZM1113 1276c28.1 84.7 123.3 118.2 197.3 64.8 76.8-55.4 86.6-178.6 10.2-238.8-10.1-8-23.8-16.1-36.5-18 5.6 4.3 11.9 7.6 17.5 12 75.4 59.2 66.8 190.6-11.6 243.4-69.8 47.1-143.4 7.8-173.9-62.7z" class="outline" data-original-prefix="outline"/></g>
    </g><g class="trait-group" data-category="right ear" id="right ear-scruffy">
      <path id="fill-ear-rt" fill="#ffffff" d="m1784.9 111.1 8.9 47.1c-1.6 8.1-27.6 42.2-26.9 47.1l45.9 34.9c.9 1.7-1.2 17.6-2.8 19.3-2.4 2.5-13.3 4.9-17.3 6.6-7.9 3.5-15.2 8.1-23.2 11.8-.9.4-1.8-.6-1.4 1.6.2 1.2 9.2 9.4 11 11 5.3 4.7 30.2 23.1 31.6 27.5 1.1 3.6-8.8 16-12.3 16.8-14.9.1-29.9.5-44.8.3-8.6-.2-17.1-4.4-23.4 4.5l30 13c1.4 1.4 1.4 16.5.8 18.8-1.4 4.9-45.5 35.5-51.8 42.2-34.4 70.8-50.5 148.5-73.4 223.6l-71 103c-20.4 15.2-41.8 29.5-63.5 43-.3 2.4 0 1.6 1.4 2.1 4.4 1.6 23.6 7.5 27.3 7.6 5.6.2 14.7-5 20.8-5.5.9.2 9 14.3 9.4 15.6 1.3 4.9-6.8 20.9-10.3 25.3l-63.5 36.5c12.4 5.7 31.3 5.6 43.2 10.8 1.2.5 2.9 1.6 2.7 3.1l-34 41.1c-6.6 2.8-54.8 6.2-56.5 8.5-2.1 2.9 8.3 43.8 8.6 50.6-.2 1.7-11.9 10.9-13.7 11.3-4.6 1-27.2-11.6-33.8-11.8l-84 18.1c-13.7-4.9-41.2-5.1-52.8-12.2-4.3-2.6-3.2-5.8-4.9-7.6-1.9-2.1-19.5-7.9-24.1-10.4-7.4-4.1-17.6-12.1-24.6-17.4-16.5-12.4-27.2-21-37.6-39.4-3.5-6.2-15.6-31.6-15.6-37.5 0-4.5 9.9-22.1 12.6-27.5 22.8-45.2 48-89.3 70.1-134.9 4.2-64.6 5.7-129.1 11.6-193.4L1369 380.6l7.6-7.4c122.7-81.3 247.3-160.1 371.9-238.1 3.4-3.7 15.1-23 17-24 2.1-1 16.1 1.7 19.9.7Z" class="fill" data-original-prefix="fill"/><path id="shading-ear-rt" fill="#aaaaaa" d="m1766 307-13.8-6.8-22.2-6.7c8-13.4 11.1-32.6 26.3-39.7l19.7-9.8c-17.4-4.1-35.6-5.7-53-1-.6-20.3 4.4-33.7 15.6-49.9 4.2-6 15.7-17.8 17.9-23.1 5.5-13 6.2-36.7 10.1-51 1.5-5.2 12.7-3.7 17.4-4.1.5 7.8.8 15.6 1 23.5 0 1.9 1.1 3.9 1.1 6 0 19.1-14.5 35.6-20 52.8l48 36.1c1.3 1.8 1.4 17.3.9 20.1-.2 1.1-.5 1.9-1.6 2.4l-43.8 20.2c-4.3 3.3-.3 6.8 2.4 9.4 9.8 9.5 22.9 17.6 33 27v22.5c-11.8-2.5-23.4-6.9-35.5-8L1739 339l23.5 11 .3 18.4-51.9 26.4c-7.3 22.9-13.5 46.1-20.7 69-13.4 43-25.8 86-38.8 129.2-4.2 14.1-9.2 36-15.7 48.3-18 33.7-47.8 67.1-67.4 100.6l-60.4 42.6c7.8 1.9 20 7.9 27.6 8.4 3.8.3 7.8-2.3 9.7-1.8 3.7 1 8.6 12.2 13.6 13v1.2c-9 14.7-21.1 26.9-32.4 39.7l-38.5 20 30.5 9c0 6.9 2.6 20.9-2 26.1-4 4.5-13.7 13.2-18.5 17.5-7.8 6.8-9.7 8.6-20.5 9.5-5.4.4-40 .6-41.5 2 5 16.9 17.5 32.2 12 50.5-4.3 1.4-12.3 7.5-16.5 7.4-4.6 0-14.7-10.8-22-10.9-25.8 1.5-54.9 12.8-80 14-29.8 1.4-77.7-13.9-102.4-30.6-1.8-1.2-27.4-19.4-26.1-20.4 26.2 7.5 52.4 21.9 80 10.5.9-.4 4.7-1.2 4-3-1.7-4.3-16.7-7.7-21-10 4.9-5 10.1-10 15.5-14.5 3.7-3.1 16.2-13.3 20-14 11-1.9 23.7 4.4 34.4 5.9-.3-2.6-4.1-4.8-6.1-6.4-13.2-10.6-29.5-15.6-44.9-22.1l41.9-23 12.1-15.4c-18.8 2.5-37.2 9.9-55-.5-10.4-6.1-4.8-7.2-2.4-16.5 6.4-25.5 7.4-51.6 12.7-76.3 5.4-25 19.7-38.9 31.9-60.1 20.8-36.1 40.5-79.7 49.6-120.4.7-3.1 3.1-23.2 4.3-24.2 3-2.4 4.4 2.3 5.3 2.9 3.4 2.5 7.1 2.2 9.4 6.9l45.2 5.5c10.2 14.6 18 30.7 26 46.5 17-11.2 16.3-35 26.2-51.3l50.7-57.3c1.3-4.8-9.4-4-12.4-4.4-1.1-.1-2 .4-1.5-1.5.9-3 4.6-8.4 6.2-11.9 7.7-17.2 9.5-25 22.3-39.7 3.6-4.1 11.9-14 16.3-15.7 16.9-6.7 40.4-5 58.2-4.3-6.8-5.8-19.3-16.1-28.4-16s-20.9-.7-29.8 1.3c-7.8 1.7-13.8 7.7-20.7 11.3-7.1 3.7-14.6 6.5-22 9.5l37.5-56c13.4-6.5 35.6-8.6 47.9-16.1 6-3.7 13.3-13.7 17.6-19.4-9.8-3.1-20.4.8-30.5.5-6.7-.2-14.8-2.2-21.4-3.5 15.5-20.6 29.5-42.4 42-65 24.3-6.8 48-16.3 68-32 2.7-2.1 4.9-6 9-7.5v16.5c0 2.9-1.9 10.1-2.7 13.3-.9 3.3-2.7 8.6-4.7 11.3-4.3 5.7-24.6 17.4-32 24-6.2 5.4-11.5 11.9-17.5 17.5 4.7 0 21.1-2 24.4-4.4 1.7-1.2 1.1-7.9 4.6-7.1-1.1 23.3-2.8 47.9-15.2 68.3-6.9 11.4-16.4 13.7-27.8 19.2l43 27.5c.5-.7.5-14.8 1.2-17.3 1.5-5.2 28.4-21.8 34.5-25.5 6.8-4.2 13.7-8.6 21.3-11.2l-20.5-3-18.5-.5c1.9-2.6 2.9-5.7 4.6-8.4 4.7-7.4 27.5-38 33.7-41.3 2-1 12.3-3.8 14.2-3.8h24.5Zm-113 152c-1.3-1.2-31 7.9-35 9.5-2.5 1-6.4 2.4-8 4.5 13.3 2.8 25.5 9.3 36.5 17-4.8-11.8 3.8-20.1 6.5-31m-3 53c-20.3 3.1-39.5 8.1-56.3 20.2-8.7 6.2-10.6 10.6-14.9 20.1-6.2 13.7-10.5 29.2-14.8 43.7 3.7 3.3 23.5-15.3 27-18.5 7.4-6.8 14.1-14.6 21.5-21.5.8-.2.6.9.5 1.5-1.3 9.2-12.6 33.4-16.8 43.2-7.3 16.8-15.5 33.2-24.2 49.3 1.1.8 16.9-7.5 18.4-9.1 6.1-6 21.9-33.5 26.7-42.3 14.5-26.4 25.6-57.5 32.8-86.7Zm-203 272c.7-1 17.5-10 20.5-12 9-5.9 17.9-12 26.4-18.6 4.8-3.7 17.5-13.2 20.7-17.3 1-1.3 1.8-2.2 1.4-4.1-20.8 7.7-41.7 15.4-63 21.5-20.2 5.8-50.4 9.4-67.7 19.3-14.5 8.3-20.4 28.4-29.3 41.7-.3 2.2.2 1.2 1.5 1.4 8.2 1.6 26.3 5.1 33.7 3.8 10.1-1.7 19.3-12.7 27.7-17.8-2.3 19.8-7.5 39.6-15.8 57.7-1.7 3.8-4.8 10.8-7.2 13.8-3.5 4.4-15.8 10.5-16.1 15-.4 8.2 4.3 21.4 5.1 30 .6 6.9-.4 14.5 0 21.5 6.7-.2 20 2 25.1 6.4.5.5 3.5 6.1 3.9 3 1.1-8-6.8-21.1-12.5-26.5-2.3-2.2-11.4-6.6-8.5-9.4 1.6-1.6 9.9-5.1 12.9-7.1s14.7-13 15.7-13.2c2.2-.5 9 4.6 12.2 5.5 9.7 2.9 25.3 0 35.2-2.2 7.2-1.6 14.1-4 21-6.5-.1-1.4-1.5-1.6-2.4-2-6-2.8-13.2-4.7-19.2-7.8-3.8-2-13.4-9.2-16.1-9.9-4-1.1-25.5 0-20.3-7.8 2-3 11.7-10.3 15.2-12.8s10.7-8.4 14.2-9.8c20.4-8.3 44.5-4.1 64.6-19.4 2.1-1.5 9.2-9 10.1-11 1.3-3-6.4.3-7.6.4-13.9 1.2-57.3-12.4-71.1-18.7-1.9-.9-11.8-5-10.3-7.2Zm-111.5 130v1c.7-.3.7-.7 0-1" class="outline shading" data-original-prefix="shading" opacity="0.5" style="opacity: 0.5"/><path id="outline-ear-rt1" fill="#000000" d="M1203 940c-.6 2-3 0-4-.5-6.5-3.1-17.2-8.7-22-14-10.8-12.1-18.5-31.1-29.5-43.5-4.1-25.3 12.7-45.4 22.6-67.3 5.5-12.1 11.1-32.2 17.6-42.4 7.8-12.1 17.6-20.4 24.1-35 29.7-67 27.5-149.8 34.8-221.2 43-62.1 88.8-122.2 141.4-176.6 24.4-25.3 52.2-42.5 82.1-60.9 20.5-12.6 41.7-24.6 62.9-36.1 40.7-22.1 79.8-38.4 121.7-57.3s91.3-39.5 107.1-83.9l10.7-37.2c3.3.1 24.3 49.5 26 56 3.7 14.5 5.6 49 1 63-3 9.1-13.4 15.7-16.5 25 7.6 2.4 18.7 6.6 25 11.5 6.2 4.9 20.7 24.3 26.4 31.6 2.3 2.9 11.8 14.7 11.6 17.4-7.2.2-14.4-4-21.8-5.2-23-4-38.5 4-55.2 18.7 10.3 2.9 25.2 6.2 33.5 13 6.7 5.5 16.1 21.2 20.9 29.1 1.9 3.1 13.5 21.9 11.6 23.9-7.9-2.4-15.7-5-23.8-6.7-9.2-1.9-33.2-6.4-41.4-5.1-6.3 1-12.4 5.6-18.7 6.8-.5 2.6.4 1.5 1.4 2.1 12.9 6.6 27.1 12.4 36.6 23.9-42 6.7-76.8 37.4-91.8 76.8-12.2 32.2-10 57.7-14.4 90.6-6.7 50.1-36.2 108.2-60.3 152.6-24.4 44.9-50.8 66.2-94.6 91.4-2.2 1.3-4.2 2.7-6.9 2.6-.3.3 1.3 2 1.5 2h21c2.2 0 15.5-6.9 18.5-8.5 2.4-1.2 16-10.5 17-9.5-1.6 10.4-4.5 20.6-8 30.5-3.1 8.8-10.4 28.6-15.1 35.9-2 3.1-14.8 10-18.8 12.2-12.3 6.6-25.4 11.3-38 17 17 6.2 36.2 4.9 54 3.5 1.2 1.2-6.4 13.7-7.8 15.7-9 12.9-45.2 46.5-60 50-9.9 2.3-23 1.4-33.2 2.3 1.7 3.6 5.3 5.9 6.8 9.7 4.4 11.4 2.3 53-1.3 65.3-2 6.8-2.5 7.3-8 3-22.9-18-24.7-29-58.1-27-19.9 1.2-35.2 9.4-53.5 14.5-13.9 3.9-18.7 1.8-32-2-8.3-2.4-17-5.8-25-8.5 13.4-5.3 26.8-1.7 41-4.5 22.9-4.6 49.8-19.7 73.5-21.5 10.4-.8 23.1 3.5 33.8 3.2l3.7 3.3 6 8.5c-1.6-13.7-1.1-29.6-9.6-40.9-5-6.7-12.6-14.2-19.2-19.3l-.2-3.8c20.8 1.9 41.8 1.3 62.2-3.3l40.8-24.7-.5-2c-8.4 1.7-24.3.5-32.5-2.5-4.9-1.8-19.3-13.4-24.7-17.2-.5-.4-1.9 0-1.2-1.8.5-1.3 7.3-5.2 9-6 14.6-6.8 32.6-11.5 48-18 6.8-2.9 19.8-7.7 25.4-11.6 7.3-5.2 12.1-17.9 15.7-25.8-7 2.2-14.8 7.2-21.9 8.5-11.6 2.1-45.6-7.9-57-13.1-.8-.4-2.9-.2-2-1.9.4-.8 9.6-7.5 11.3-8.7 20.9-15.1 44.7-26.5 63.3-44.7 60.6-59.5 103.6-146.5 119.2-229.8 2.3-12.2 1.6-24.6 3.7-36.3 4.1-21.7 17.7-46.7 21.8-69.2 17.9-19.1 39.9-38.7 66.8-42.7-11.4-10.6-28.7-10.9-43.5-12-1.5-.1-2.9.8-2.5-1.5 8.3-6.9 16.1-18.1 24.5-24.5 7.1-5.4 27.9-8.7 37-8 10.2.8 19.5 6.2 29.5 8-13.9-25-39.4-29.8-66-31-.2-1.7 0-3.2.8-4.7 2.9-6.4 30.9-32.1 37.7-35.3 8.8-4.2 25.6-4 35.6-5-7.8-7.6-18.7-19.2-29.2-22.3-12.5-3.6-27.1-2.7-39.8-.7 3.6-13.9 11.5-23.5 20-34.5s14.4-14.3 17.3-24.7c4.4-16.3-.2-32.5-2.3-48.8l-10.8 21.7c-8.5 15.1-17 25.9-31.7 35.3-31.2 20.1-66.8 32.2-100.2 48.8-59.4 29.5-120.1 66-175.4 102.6-50.7 33.4-90.3 69.4-128.8 116.2-17.3 21-40 48-54.8 70.1-13.1 19.5-12.9 63-15.2 86.8-2.7 27.6-4.3 55.4-7 83-3.6 37.5-23.4 76-40.1 109.9-6.2 12.6-15.4 25.8-21.1 38-2.7 6-15 38.2-15.7 43.3-3.2 23.1 12.8 50 27.9 66.4Z" class="outline" data-original-prefix="outline"/><path id="outline-ear-rt2" fill="#000000" d="M1222 954c11.6 7.5 22.1 16 36.5 18 5.8-4.1 11.7-8 18.2-10.9 3.5-1.6 14.7-6.1 17.9-6.1h18.5c-5.8-16-17.1-18.4-32.5-20-1-.1-3.4.6-2.5-1.5s15.3-10.5 18.3-11.7c18.6-7.6 33.7-6.4 52.7-.8 1.8-2-11.4-19.2-14.5-21-2.6-1.6-23.6-5.7-23.5-7.5 10.1-9.5 28.8-16 37-27 7.1-9.5 12.1-25.9 18-36.5-8.7 2.2-16.6 6.9-25.2 9.2-2.8.8-9.9 2.7-12.3 2.7h-37.5c4.5-25 11.9-49.6 19.7-73.8 3.2-9.8 6.5-22 10.8-31.2 5.9-12.8 17.7-24.5 25.7-36.3 14.4-21.4 23.1-44.2 30.1-69 7.8-27.9 11.8-53.6 1.7-81.8 1.4-.3 2.5.3 3.7.8 6.9 2.5 46.7 25.5 50.8 30.2 3.4 3.9 10.9 28.8 12.7 35.3 3 10.7 4.5 23 7.8 33.2 2.9 8.8 8.3 11.8 17.3 8.5 18.8-7 43.3-65.2 43.6-84.5 0-3-1.1-5.3-1.1-8 0-9.6 22.9-34.8 30.6-41.5 17.6-15 39.8-23.8 62.5-28l-8.8-3.7c-17.8-5.3-36.9-5.3-55.2-3.3-.7-.7 8.5-16.3 9.6-17.9 5.7-8.7 17.7-24.8 26.9-29.1 15.1-7.1 32.4-9.5 48.1-13.9 1.3-.4 2.5-.1 3.4-1.6 0-1.9-23.7-15.1-27.5-15.5-18.4-2.2-37.9 6.1-55.5 10-.9-.7 11.8-16 13-17.5 3.4-4 11.6-14 15.5-16.5s11.2-3.9 15.9-6.1c8.2-3.9 29-13.7 35.2-18.8 3.7-3.1 12.8-15.6 15.9-20.1 1.6-2.4 3.1-4.9 4.6-7.4-3.9.9-6.6 4.2-10.3 5.7-8.1 3.3-26.1 2-35.2.8-2.3-.3-12.3-1.3-12.5-3.5-.2-2.5 19-22.5 21.9-26 6-7.2 14.3-20.6 21-26 4.3-3.4 9.8-4.8 14.3-7.7 23.7-14.9 32.6-26.5 49.9-47.1.7-.9 2-3.2 1.8-.2-2.5 12.6-6.8 24.6-11.6 36.5-24.3 15.6-47.6 33.8-64.4 57.6 19.3 5.9 36.1-12.7 50-23.5-2.8 16.2-8.4 31.5-15.1 46.4-4.7 10.3-9.5 22.9-19.2 28.8-14.9 9.1-32.9 16-49.7 20.8-.2 1.8 3.4 1.1 4.5 1 4.3-.3 11-2.2 15-2.1 5.8.2 45.9 28 51.5 33.6.8.8 6.5 7.8 6 8.5-22.8 3-46 6-67.8 13.7-4.5 1.6-13.1 4.5-16.6 7.4-1.3 1.1-8.2 9.2-8.6 10.4-.7 1.7.4 1.4 1.5 1.5 4.3.6 8.4-1.7 13.8-.8 9.1 1.5 42.7 19.6 50.1 25.9 1 .9 2.1 1 1.7 2.8-34.6 9.4-66.8 26.9-90.5 54-28.1 32.1-34.8 87-44.6 127.4-18.5 20.3-42.7 37.2-66.8 50.2-3.9 2.1-10.1 5.7-14 7-.9.3-3 1.1-3 0 19.1-31 27.9-76.5 3-107-12.4-15.2-19.2-11.5-26 5-7.4 18-10.7 39.7-13 59-1.3 11.2 2.7 10.5-6.5 19.5-23.9 23.4-34.6 32-45.8 65.2-.9 2.8-10.2 32.4-7.2 32.8 14.3-1.1 30 .6 42.7-7.2l26.7-16.8c-1.2 14.9-3 29.6-6.3 44.2-2.2 9.6-8 32.3-13.2 39.8-3.2 4.5-20 15.5-20.3 16.7-.8 2.8 9.2 17.1 10.8 21 5 12.1 1.2 31.5 0 44.4-2 2-17.3-12-21-13.5-2.5-1-17.7-3.5-19-2.5 6.7 9.9 10.5 22.5 11 34.5.3 7.3-5.4 2.7-10.5 2.4-18.5-1.1-38.2 3.5-54.5 12-12.1-4.2-19.7-7.5-30.9-14.6-6.4-4.1-17-9.9-19.1-17.4Z" class="outline" data-original-prefix="outline"/>
    </g><g class="trait-group" data-category="left ear" id="left ear-KBDS tattoo">
      <path id="fill-ear-lft" fill="#ffffff" d="M326.7 182.1q1.65-.45 3.3.3l180.7 78.4c55.2 39.7 111.9 77.8 165.3 119.7l109 135.9c10.5 65.4 16 132 25.2 197.8 24.6 50.1 52.6 98.7 77.3 148.7 1.5 3.1 5.4 9.5 5.5 12.5.2 4.7-8.5 15.9-11.2 20.8-15.1 27.1-18.8 33.2-43.9 52.1-22.9 17.2-44.3 28.5-72.5 35.5-8 2-18.1 5.7-25.3.5l-82.9-79.1c-9.9-22-17.5-45.3-28.1-66.9l-154-109c-23.7-34.4-41.7-73.1-64.9-108.1-9.8-43.7-27.6-90.2-34.9-134.1-5.9-35.7-6.9-73.6-12.5-109.5-9.3-20.9-22.7-40-30.5-61.5-1-40.6-6.8-81.2-8.3-121.7-.1-3.4-1.1-11.4 2.8-12.4Z" class="fill" data-original-prefix="fill"/><path id="shading-ear-lft" fill="#aaaaaa" d="M664 558v21.5c0 22.8 19.2 43.4 30.4 61.6 38.9 63.4 63.1 129 108.2 189.8 16.2 21.8 35 41.1 51.9 62.1 4.8 5.9 9.3 10.3 9.5 18.5.2 6.2-2 12.6-1.1 19l-.9 2.1-60.1 40.9c-13.7.2-28.1 9.9-40.7 12.4-1.5.3-2.8.5-4.2-.3l-76.6-51.4-69.8-109.7c-33.8-23.4-81.3-39.6-107.2-72.3-4.2-5.3-6.4-12.2-10.5-17.5.3-1.1 2.2-.4 3 0 7.1 2.9 21.5 16.6 29.2 21.8 23.5 15.5 51.4 30.4 77.3 41.7 17.3 7.5 35 10.9 52.9 16.1 7 15.4 12.9 31.5 20.2 46.8 8 16.6 27 35.1 40.2 48.8 19 20 39 39.1 59.5 57.5 1.5.2 1.8 0 1.4-1.4-1.9-7.7-7.7-31.2-11.1-36.9-4.7-7.9-16.1-19.2-22.2-27.8-25.1-34.9-42.3-72.5-64.4-108.6-7.4-12-9.8-16-22.8-22.2-38.1-18-78.4-19.1-114.3-41.7-26.9-17-34.3-26.3-51.1-52.9-25.7-40.5-46.4-86-61.2-131.8-4.2-12.9-10.9-32.4-12.7-45.3 0-.6-.3-1.6.5-1.5 14 25.4 25.6 52.8 42.1 76.9 5.6 8.2 12.9 19.9 23.4 21.1-.5-2.4 1.1-5.1.8-7.3-1.4-11-12.7-28.8-16.3-39.8-3.8-11.7 2.7-30.6 3.5-43.5 3.6-59-24.7-121.5-55.6-170.4-12.4-19.7-28.5-37.1-37.4-59.1h16.5c8.6 0 8.7 2.4 14.2 5.8 15.3 9.7 32.5 17.5 48 27 30.2 18.6 67.2 68.2 84.5 99.5 2.9 5.2 12 22.4 12.8 27.2.9 5.4-.9 10.1-1 14.9-.8 41.5 1.8 83.9 11.9 124.2 3.2 12.9 5.4 24.4 15.1 33.9 1.4 1.4 2.9 3.8 4.5 1.5l24.5-44.5 55-6.5Z" class="outline shading" data-original-prefix="shading" opacity="0.5" style="opacity: 0.5"/><path id="outline-ear-lft1" fill="#000000" d="M846 941c15.6-16.5 32.2-43.8 28.9-67.4-.7-5.3-12.9-37-15.7-43.3-4.9-10.8-13.5-22.9-19.1-33.9-13.3-26.2-23.6-54-36.6-80.4-11.5-63.5-8.3-129.6-22.2-192.8-17.8-27.6-39.3-55.2-60.3-80.7-38.8-47.2-78.4-82.8-129.5-116.5-44.3-29.2-93.1-59.2-139.9-84.1-38.9-20.7-78.7-40.3-120.7-53.8-2.4 25.4-1 51.1 2.1 76.4 1.6 12.7 3.6 27.3 6.1 39.9 4 19.6 14 30.2 20.7 48.3 12.6 33.6 20.1 76.2 22 112 1 17.6-.2 29.6 3.5 47.6C403.7 602 448.2 693 517.8 753.8c34 29.7 77.1 43.1 110.3 69.7 7.8 6.3 4 4.9 5.1 11.8 1.6 9.9 18.8 46.7 24.6 56.2 15.7 25.7 53.2 60.5 79.7 75.5 24 13.7 44.9 12.6 70.3 2.2-1 4.2-9.1 7.7-13 9.5-10.8 5-38.1 16.1-49 17.1-3 .3-21.2-3.2-23.6-4.5-4.8-2.8-25.5-24.8-31.5-30.5-6.5-6.3-12.2-13.3-19.5-19.5-10.3-8.7-24.4-15.4-30-28-10.2-23.4-16-42.1-31.1-63.9-13.3-19.2-23.3-19.4-42.1-29.9-54.1-30.4-101.8-71.4-134.8-124.2-34.3-55.1-65.6-124.7-77.1-188.9-2.5-13.8 1.9-13.4 4.1-25 4.4-23.5-6.2-86.5-16-109-4.4-10.1-16.6-21.1-20-29s-5.6-30.1-6.5-39.5c-3.2-33.3-7.5-84.6-2.9-116.9.4-2.5 3.3-15.8 4.5-16.7 3-2.2 17.1 1.6 21.4 2.6 42 9.3 96.2 32.3 135.7 50.3 50.6 23.2 121.1 61.1 164.2 95.8 15.1 12.1 34.1 34.5 47.6 49.4 42 46.4 79.2 96.7 114.9 148.1 8.9 76.3 3.1 178.6 48.8 244.2 2.9 4.1 7.4 7.9 10 12 7.1 11.1 12.9 32 19 45 8.4 18.2 20.9 33.8 21.8 54.2.1 3 .5 7.8-.5 10.5-17.1 21.9-26.4 52.1-56.5 59Z" class="outline" data-original-prefix="outline"/><path id="outline-ear-lft2" fill="#000000" d="M672 548c1 1.1-9.1 24.9-9.8 28.7-3.4 19.9 9.7 77.8 18.9 96.6 8.1 16.7 18.9 24.3 29.3 37.7 6 7.7 12.2 19.9 17.4 28.6 28.7 47.7 46.4 98.9 78 145 4 5.8 13.4 15.9 15.8 21.2 1.5 3.3 3.4 23.6 3.5 28.6.2 6.5-4.7 9.9-9.1 14-2.2 2-18.3 15.2-20 13.5.6-4.8 4.2-9.9 4.9-14.6 3.5-25.1-14.9-60.6-26.4-82.4-4.9 13.5-9.7 27.4-13.8 41.2-1.8 6.3-7.7 23-7.7 28.4s7.6 4.8 7 10.3c-15.2-4.4-28.5-12.5-41.5-21-2.2-2.1 0-8 .8-11.2 4.1-17.3 11.7-34.5 14.7-52.3-.2-2.6-21.2-17.3-24.5-20.5 1 13.8 3.6 27.7 4.5 41.5.3 4.3-.2 8.7 0 13 .2 4.5 4.1 23.3-5 21-2.3-.6-20.4-11.5-22.5-13.5-4.2-3.9-8.2-11.2-12.4-15.6-2.5-2.5-13.6-10.6-14.1-12.9-.3-1.6-.3-5 .5-6.5 9.7 5.3 18.8 11.2 27.5 18-.7-19-1.6-39.6-5.3-58.2-.4-1.9-.8-5.8-1.6-7.1-1-1.6-5.1-1-4.1-3.2s12.4-6.1 15.3-5.3l38.7 28.3-39-100.5c-2.6-.3-1.6 0-2 1.5-4.1 17.4-8.7 36.8-11.7 54.3-2.2 12.7-4 25.3-3.3 38.2-8.7-4.1-17.9-7.7-26.3-12.1-2.7-1.4-18.9-10.1-19.7-11.3-1.8-2.5-.1-5.4-1.8-8.2-1.1-1.7-10.3-6.9-13.6-10.4-24.8-26.3-42.5-56.6-72.5-79.5-1.9-1.4-9.4-3.2-6.3-6.6 4.4-5 15.9-9.9 21.4-14.4-2.3-1.5-3.7-4.5-5.3-6.2-.9-1-3-.9-4.2-2.3-2.5-2.8-8.3-37.9-10-45-1.9-8.1-4.5-16-6.5-24l-18.1 62.5c0 2.9 13.6 7.3 16.1 10 .9.9 1.6 2.5 1 3.5-.5.7-13.8 6.2-15.4 6-1.5 0-23.1-12.3-25.9-14.2-13.3-8.9-12.4-19.7-18.8-33.2-4.7-9.9-10.1-18.5-19-25-2.6-2-15-8.5-15.7-9.8-1.3-2.2 5.5-27.8 6.5-32.6 6.1-29.7 11.1-59.4 13.4-89.7.4-4.9-1.7-12 1.1-16.8 1.6-2.8 42.3-16.6 47.8-21.3-3.5-18.9-8.8-37.1-17-54.4-1.6-1.2-24.6 26.6-26.4 29.1-2.8 3.9-6.6 9.1-6.6 13.9-14.4-3-21.6-16.8-31-26.5-1-1-1.3-1.9-3-1.5l1 83.5c.2.8 11.7 11.3 12.6 11.5 2.6.6 4-6.3 4.9-8 6.9 7.4 6.4 11.1 5.5 20.5-.5 4.8-3.1 23.4-5.5 26.5-2.5 3.2-5.5-1.9-7.6-3.4-13-9.3-26.4-18.2-39.4-27.6-3.6-5.5-2.7-18.8-2.6-25.5.5-27.5 1.3-54.3-1-82-.7-8.5-1.5-23-3.2-30.8-.4-2-5.7-7.9-4.8-8.7 3.8 1.1 9.7.3 13 1.5s22.1 18.3 26 22c3.1 2.9 7 10.5 11.4 9.6l24.3-37.6c0-2.1-17-24.8-19.7-28-2-2.3-12.7-13.8-14.5-14.5-2-.9-2.4 3.5-2.5 4.5-.7 7.8-2.9 28.6-2 35.1.4 3.2 9.1 15.4 8 16.4-1.7.3-2.6-.8-3.9-1.6-9.2-5.6-23.4-19.3-30.1-27.9-1.5-1.9-4.3-5.4-3.9-7.7.3-1.4 7.7-12.2 9.3-15.8 2-4.5 9.4-24.6 8.6-28.3l-26-18.2-22-38.5c3.2-2.9 26 18.3 29.7 20.8 6.7 4.5 14.8 6.9 21.2 11.8 10.2 7.8 21.9 22.1 31.6 31.4 33.1 32 56.9 54.1 79 95.9 3.8 7.1 20.1 40.7 20.3 46.5.3 8.1-5.4 26-6.7 35.2-7.5 53.5-.4 104.9 26.7 152 5.6 9.8 22.5 33.9 35.2 21.9 5.1-4.9 9.1-31 11.5-39.5 1.8-6.4 9-30.9 12-35 2.3-3.1 13.2-9.4 17.2-11.8 12.5-7.8 25.9-15 39.3-21.2ZM448 424c7.3-13.8 19.7-25.6 30.5-37 1.6-3.1-1.2-5.8-3-8-3.3-.8-29.7 32.1-33 37.1-1.8 2 4.2 8.9 5.5 7.9m-37 68c-.5-29.8-1.4-59.6-1-89.5-3-5.5-7.6-10-12-14.5 4.1 32.6 5.7 65.4 5 98.3zm95-14c-10.4 1.8-20.4 6.6-29 12.7 0 29.3-2 58.6-6.1 87.7-1.6 11.1-4 22.1-5.9 33.2.1 2.8 7.5 8 10.1 11 .9 1 5.4 8 6 7.5 9.7-25.4 12.4-52.4 19-78.6 1.7-6-6.7-9.4-6-14.8.2-1.8 5.7-10.4 7-14.1 1.5-4 5-16.3 5-20v-24.5Zm9 93c-.5-.5-2.5-.2-2.1 1.4-4.8 25.6-9.3 51.4-19.7 75.4-.4 4.1 7.2 11.5 7.8 16.2 1.5-.1 1.5-1.5 1.9-2.5 8.1-20.9 11.3-47.5 19-69.1.4-2.8-6-20.4-7-21.4Zm136 123 7.7-39.4c-5.2-18.4-13.7-53.2-34.5-22.9-3.8 5.5-10.2 15.2-6.6 21.3 7.5 12.8 22.6 26.3 30.5 39.5l3 1.5Zm-18 90c4.9-18.2 8.8-36.7 11.7-55.4-10.5-17-21-34.2-33.7-49.6-1 13.6 3.3 27.5 8.5 40 2.5 5.8 6 11.2 8.5 17-17.8-6.2-33.6-18-49.7-27.9-2.3-.2-7.5 8.7-8.2 11.2 20.2 22.3 39.2 45.8 62.8 64.6Zm16.2 30.9c4.4.8 9.3 5.4 12.9 6.7 3.2 1.2 1.8-11.6 2-14 2.8-27.6 12.7-55.6 17-83.1-.1-4.1-8-9-10.5-12.4l-21.3 102.8ZM751 822c1.1-1.5-16.4-28.7-18.8-31.7-1-1.2-1.1-2.7-3.2-2.3l15 36zm-8 108c4.6-26.5 14.7-52.1 22.8-77.8.7-3 .1-6.2-2.3-8.2l-24.3 82.8c-.6 2.8 1.4 3.6 3.8 3.2" class="outline" data-original-prefix="outline"/>
    </g><g class="trait-group" data-category="head" id="head-tophat-knucks">
      <!-- Generator: Adobe Illustrator 29.1.0, SVG Export Plug-In . SVG Version: 2.1.0 Build 142)  -->
  <defs>
    
  </defs>
  <path id="fill-head4" d="M1387.7,802.3c2.1,2.4,5.7,6.7,7.2,9.3,8.1,13.9,5.6,50.1,8.2,67.8.3,1.9,1.7,4.8,3.6,5.4,35.2,3.5,70.5-3.2,105.6-6,6.2-2.3.7-14.8,1.7-19.1,1.2-5.1,29.5,1.6,34.1,2.8,4.3,1.2,29.1,10.1,30.5,12.5,0,14.2,4.9,29.8,5.5,43.5.4,9.4-5.8,22.5-9.5,31.5-29.7,72.3-88.5,139.6-152.9,183-87.3,58.8-187.2,102.9-291.3,120.7-9.7,1.7-33.3,2.7-40.4,5.3-1.1.4-1.1,2-2.4,2.8-5.4,2.7-34.5,1-42.9,1.2-15.9.3-71.9,3.1-83.7-1.2-14.4-5.3-27.7-5.4-43-8-94.5-16.2-186.7-54.4-267.7-105.3-74.2-46.7-137.4-109.5-173.3-190.7-4.4-10-13.2-28.9-12.8-39.2.6-13.8,5.5-29.3,5.5-43.5,9.6-6.7,55.5-22.2,63.9-16.1,1.7,2.8-.3,6.4-.5,9.6-.4,10.6,0,9.8,9.7,11.4,22.4,3.6,65.8,7.6,87.9,6.2,4.9-.3,13.2-.2,14.2-5.8-.2-8,1.5-15.9,2.2-23.8,1.5-17-1.4-35.2,9.6-49.4,2.5-3.3,10.2-9.5,11-12,1.8-5.7-.4-15.3.4-21.5-23.5-119.8-32.3-242.5-52.3-362.7-.8-4.7-5.8-23.2-4.2-25.8,2.4-4,37.9-19.8,44.5-22.5,118.5-48.5,274.9-68.1,402.5-64.5,104.6,2.9,236.5,24.8,333.4,64.5,6.6,2.7,42.1,18.5,44.5,22.5,1.6,2.6-3.4,21.2-4.2,25.8-20,120.2-28.8,242.9-52.3,362.7.7,6.2-1.1,14.9.2,20.8,1,4.1,5.3,5.4,7.5,7.8" fill="#ffffff"/>
  <ellipse id="fill-head5" cx="1023.3" cy="1013.6" rx="129.1" ry="127" fill="#ffffff"/>
  <path id="fill-head41" d="M1013.8,916.3c-66.7,6.5-103.2,81.5-71.3,139.7,31.3,57,109.6,65.8,152,16,55.1-64.6,4.9-164-80.7-155.7" fill="#ffffff"/>
  <path id="fill-head2" d="M668,808c2.9,19.8,15.1,32.6,29.5,45,32.8,28.2,80.4,47.6,121,62,30.8,11,62.4,20.7,94.5,27,.6.7-7.2,14.1-8.2,16.3-22.1,49.2-14.3,108.1,21.2,148.7-65.8-11.9-130.9-35.9-187.9-70.6-19.5-11.8-40.9-26.2-59.4-39.6-11-8-21.5-13.7-22.7-28.3-2.1-25.5.3-55.4,1-81,.6-20.7-.7-49.1,3.1-68.9.8-4.5,2.4-10.3,7.9-10.6" fill="#ffffff"/>
  <path id="fill-head1" d="M1122,1107c10.7-12.4,19.2-26.2,24.8-41.7,12.7-35.7,12-72.2-3.6-106.9-1-2.2-8.8-15.6-8.2-16.3,32.1-6.3,63.7-16,94.5-27,44.4-15.8,99.2-38.3,132.5-72.5,9.5-9.7,15.6-21,18-34.5,8.3,1.1,8.3,13.8,9,20.5,1.9,18.9,1.4,39,2,58,.7,26,3.1,56.2,1,81.9-1.2,14.7-11.7,20.4-22.7,28.3-18.5,13.4-39.9,27.8-59.4,39.6-57,34.7-122.1,58.6-187.9,70.6" fill="#ffffff"/>
  <path id="shading-head4" d="M1410.1,884.9c1.3.9,5.6-1,7.4,1.1,1.1,1.3,5.4,17.6,6.2,20.8,5.6,21.5,8.5,43.7,11.4,65.7-14,26.5-44.5,44.9-69.8,60.3-37.4,22.8-73,42.2-115.2,54.8-12.1,3.6-21.7,7.3-33.5,11.5-28.1,9.8-57.8,12.6-87.1,16.9-1.7.2-7.1-.2-7.4,0-.5.5,1.2,7.6-1.7,10.1-3.2,2.7-15.3,9-19.6,11.1-47.2,23.2-103.8,23.4-151.3,1-3.9-1.9-19.2-9.8-21.6-12.1-3-3-1.2-9.5-1.7-10.1-.3-.3-6.6.2-8.4,0-13.7-2.1-27.1-4.1-41-6-30.5-4.2-44.8-13.7-71.6-21.4-4.3-1.2-9.5-1.3-14.2-2.8-39.3-11.8-78.8-34.9-113.7-56.3-23.5-14.4-50.4-31.5-64.1-56-.3-10.9,12.6-84.5,17.9-88,1.9-1.2,5.8.2,6.9-.6.6-.4,2.2-9.1,3.2-11.3,1.2-2.5,4.3-4.9,4.7-6.3,2.2-7.5,1.2-25.6,2.2-34.8,1.2-11,1.7-16.5,8.6-25.4s10.5-7.3,11.4-20.6c1.2-16.8-4.3-35.6-6.9-52.2-15.2-99.9-30.6-199.8-42.2-300.3,2.6,1,4.4,11.3,5.1,11.9.6.5,2.9-.1,4.1.3,3,.9,4.6,7.6,5.4,10.6,6.8,25.1,7.9,56,12.8,82.2,4.3,23,10.6,45.8,15.2,68.8,14.9,74.5,27.1,149.9,46.9,223.1,14,27.5,60,46.2,87.9,56.1,40.5,14.4,84.4,24.5,126.8,30.8,54.1-45.6,122.5-51.4,183-13.7,4,2.5,17.6,13.8,20.1,13.9,55.7-10.6,116.5-22.9,167.2-48.9,32.6-16.7,45.3-28.7,53.8-65.2,14.4-61.1,24.5-125.4,36.8-187.2,4.9-24.6,11.7-49.1,16.4-73.6,5.2-27.1,6.5-56.7,12.8-83.2.8-3.2,2.5-12.1,5.5-13.5,1.6-.8,4.3-.1,4.9-.6s2.6-11.8,5.1-12.9c-5.4,42.8-10.2,85.7-16.1,128.3-10.4,75.4-24.6,150.6-32.8,226.1,1,12.4,4.8,11.2,11.4,19.6,13.2,17,7,39.9,10.6,59.4.4,2.4,3,3.5,4.2,5.8s3.5,12.4,4,12.8M926.3,929.3c-1.4,1.7-2.2,3.8-3.8,5.7-1.5,1.7-5.6,4.3-6,5-1.7,2.9,1.5,10-6.9,9.9-10.4,0-40.2-9-51.8-12.2-68.1-18.9-134.3-50.5-184.8-100.7-.2,20.2-1.6,40.3-1,60.5.8,28.2,4.9,56.3,7.6,84.4,1.5,1.9,2.3,4.2,3.9,6.1,7.1,7.7,28.4,20.9,38,27,55.6,35.2,116.6,56.8,180.5,72-6.8-17.4-9.9-36.8-9-55.5.5-10.1,1.1-24.1,2.2-33.8.6-5.3,3.5-11.1,3.9-16.6l2,1c1.3-7.8,3.5-17.4,7.1-24.4,1.9-3.6,4-8.1,8.9-7.6-14.9,31.8-18.4,69.2-4.5,102,35.7,84.2,141.1,105,202,34,33.4-38.9,38-89.9,16.5-136,4.1-.3,7.1,4.6,8.7,7.8,3.8,7.2,6,17.2,7.3,25.2l2-2c0,5.7,3.3,11.1,3.9,16.6,2.4,20.3,3.3,51.8-1.2,71.6-1.4,6.1-4,11.8-5.7,17.8,69.9-16.8,138.3-41.5,197.3-83.2,6.9-4.9,24.4-16.2,25.6-24.4,4-26.3,6.4-59.3,7.1-85.9.4-18.6-1.1-37-1.1-55.5-1.7-.5-2,.7-3,1.5-7.1,5.5-14.3,13.5-21.5,19.5-47.1,38.6-106.5,64.1-165.1,80-12.6,3.4-33.9,10-46.2,10.9-2.7.2-4.3-.2-6.2-2.3-3.2-3.6-.6-6.1-1.4-7.5s-3-1.9-4.1-3c-13.5-13.4-15.2-22.5-34.2-32.8-42.4-23-97.8-23.1-140,.6-13.4,7.4-17.6,13.2-27,24.3" fill="#aaaaaa" opacity="0.5"/>
  <path id="shading-head3" d="M550,880c-1,5.4,0,8.8,1,14-5.6-.4-12.5,5.3-16.5,9-11.3,10.2-10.6,15.9-7,30,6.6,25.7,26.5,59.3,42.1,80.9,34.6,47.7,80.2,82.7,125.7,119.3,3.9,3.5,1.4,5.1-2.7,2.7-65.3-37.5-126.3-85.9-169.5-148.5-12.3-17.8-36.2-57.5-28.4-79,3.5-9.6,28.3-29.4,37.8-30.3,4.9-.5,12.1,3.2,17.5,1.9" fill="#aaaaaa" opacity="0.5"/>
  <path id="shading-head2" d="M1351,1137c-.5-.5.2-3.5,1.5-4,64.8-50.5,138.4-110.8,165.3-191.7,2.9-8.7,7.2-21.1,3.1-29.6-3.2-6.7-16.3-17.6-23.8-17.7-.9-2.5,1.7-5,1.8-6.7.2-2-2.9-4.2-1.4-6.4l18.8-2.8c11,5,34.1,18.8,37.1,31,6.6,27.5-21.9,69.4-37.9,90.7-42.4,56.1-98.8,101.8-160.2,135.8-1.1.6-3.5,2.2-4.3,1.4" fill="#aaaaaa" opacity="0.5"/>
  <path id="shading-head1" d="M1123.6,1031.6c-3.2,8.9-13.7,35.7-21.7,40.8-1.6,1-3,1.8-4.9,1.6-.6-.6,7.2-12.8,8.2-14.3,22.7-37.5,12.8-75.5-15.7-106.7-21.3-23.3-45.6-30.5-77-28-56.8,4.5-99.2,74.6-75.3,127.3,2.9,6.4,9.4,12.2,12.2,18.8s-5.6-.4-7.4-2.6c-8.1-9.7-23.4-47.5-24-60-2.3-45.8,27.9-84.5,69.5-100.5,75.6-29.1,165.4,43.2,136.1,123.6" fill="#aaaaaa" opacity="0.5"/>
  <g id="outline-head-hat" fill="#000000">
    <path id="outline-head-hat10" d="M1510,873l-2.9-18.9c17.9-5,38.1,0,55.2,6.2,4.4,1.6,18.2,6.9,21,9.7s1.3,7,1.7,10.5c1.5,12.2,5.7,29.7,6,41.1.2,8.5-12,35.8-16.2,44.8-86.3,187.6-341.7,298.9-539.4,302.6-144.2,2.7-285.2-46.2-404.4-124.5-78.7-51.7-146.1-129.9-174.1-221l7-52.8c22.2-12.6,51.4-22.8,77-16.6l-2.9,18.9c19.4,2.2,39,3.4,58.5,5,14,1.2,27.5,5.1,41.5.5l1-2c-.2-7.4,1.3-14.7,2-22,1.2-13.5-.2-37.1,7-48,2.3-3.5,14.5-14.2,14.8-15.2,1.4-4.9-1.2-17.9-2-23.6-9.7-68.8-22.2-137.4-31.7-206.3-7.2-52.4-11.2-106.8-21.5-158.5-.9-4.6-4.2-13.9-4.4-17.5-.3-5,12.6-11.5,16.7-13.9,25.3-14.3,58.3-25.2,86.3-33.7,196-59.8,419.8-60.2,617-5.5,33.5,9.3,75.3,22.5,105.5,39.5,4,2.2,16.3,8.6,16.1,13.5-.2,3.6-3.6,12.8-4.4,17.5-10,52-14.2,106-21.4,158.5-9.5,68.9-22,137.5-31.7,206.3-.9,6.1-3.2,17.3-2.1,22.8.4,1.9,12.3,12.1,15,16,7.2,10.9,5.9,34.5,7,48,.6,7.3,2.2,14.6,2,22l1,2c14.1,4.6,27.5.6,41.5-.5,19.3-1.5,38.9-2.7,58.3-4.9M1123.1,927.9c65.1-16.4,132.6-33.1,191.9-65.4,22.1-12,49-26.2,51.9-54.1,3-28.5,3.8-57.2,7.2-85.8,13.3-110.2,34.3-219.4,47.4-329.6-7.6-4.7-15.8-7.9-24.1-11-217.1-81.8-486.8-81.8-707.3-13.2-21.4,6.7-44.1,13.6-63.8,24.3,13.1,110.2,34.1,219.5,47.4,329.6,2.2,18.5,4.5,37.3,6.1,55.9,2.8,32.3-3.2,46.7,26.3,67.7,35.2,25,82.9,43,124,56,31,9.9,62.7,17.5,94.2,25.8,49.5-61.3,149.7-61.7,198.8-.2M668,808c-5.5.3-7.1,6.1-7.9,10.6-3.8,19.8-2.5,48.2-3.1,68.9-.7,25.6-3.1,55.5-1,81,1.2,14.7,11.7,20.4,22.7,28.3,18.5,13.4,39.9,27.8,59.4,39.6,57,34.7,122.2,58.6,187.9,70.6-35.5-40.6-43.2-99.5-21.2-148.7,1-2.2,8.8-15.6,8.2-16.3-32.1-6.3-63.7-16-94.5-27-40.6-14.5-88.2-33.8-121-62-14.4-12.4-26.6-25.2-29.5-45M1122,1107c65.8-11.9,130.9-35.9,187.9-70.6,19.5-11.8,40.9-26.2,59.4-39.6,11-8,21.5-13.7,22.7-28.3,2.1-25.8-.3-56-1-81.9-.5-19,0-39.2-2-58-.7-6.7-.7-19.5-9-20.5-2.4,13.5-8.5,24.8-18,34.5-33.3,34.2-88.1,56.7-132.5,72.5-30.8,11-62.4,20.7-94.5,27-.6.7,7.2,14.1,8.2,16.3,15.6,34.7,16.2,71.2,3.6,106.9-5.5,15.5-14.1,29.3-24.8,41.7M520,869c-12.8,2-32.8,2.5-38.9,15.6-18.5,40.2,3.2,79.2,24.5,112.3,49.7,77.5,161.8,152.4,244.1,191.9,49.3,23.7,114,49.7,168,58,95.2,14.7,189.9,12.7,281.9-17.8,107.5-35.7,219.9-99.6,300-180,24.3-24.4,56.7-66,68.7-98.3,6.1-16.5,7.7-58.2-4.8-71.6-6-6.5-26.6-9.1-35.4-10.1l1,20.3c-.7,2.9-28.5,8.3-33,9.2-28,5.6-56.6,9.1-85,11.5-1.7,14.8-.4,29.7-.9,44.5,0,2.4-.9,4.5-1.1,6.9-.3,5.1,1.2,12.5-1.1,16.9-26.9,26.3-54.8,51.1-87,71-57.2,35.5-122.3,57.4-188.6,68.4-7.7,1.3-17.7,1.3-24.8,3.2-6.1,1.7-13.6,8.2-19.5,11.5-41.8,22.6-86.2,22.6-128,0-6-3.2-13.4-9.8-19.5-11.5-14.9-4.1-37.1-4.9-53.6-8.4-93.3-19.4-180.2-65.2-246.3-133.7-2.9-4.6-1.2-12.1-1.5-17.5,0-2.4-1-4.6-1.1-6.9-.5-14.8.8-29.8-1-44.5-16.1-1.3-32.4-2.8-48.4-5.1-8.2-1.2-68.6-11.1-69.7-15.5l1-20.3ZM1013.8,889.3c-72.3,5.5-128.3,76.8-109.1,148.5s79.6,112,151.5,92.9c43.9-11.6,69.1-41.7,83.8-83.2,29.4-83.1-40.3-164.7-126.2-158.2" fill="#000000"/>
    <path id="outline-head-hat9" d="M1405,400c-14.5,8.1-28.1,14.6-44,19.5-82.2,25.3-174.6,37.2-260.5,41.5-134.7,6.7-283.2-1.8-412.7-41.3-16.2-5-30.1-11.5-44.8-19.7,1.2-2.9,5.8-2.1,8.4-1.9,16.3,1.6,39.6,9.8,56.6,13.4,217,46.6,415,46.6,632,0,17.2-3.7,39.1-11.3,55.7-13.2,2.9-.4,7.9-1.4,9.3,1.7" fill="#000000"/>
    <path id="outline-head-hat8" d="M1094,1230c-.8-2.6,4.2-2.9,6-3.5,28.6-8.6,56.6-13.4,85.5-23.5,72.3-25.2,144.2-54.4,206.4-99.6,50.6-36.8,105.8-87,137.9-141.1,4.4-7.3,13.9-23.1,16.7-30.3,3.6-9.4-.3-19.3-3.7-28.2-1.6-4.2-6.9-10.7-4.8-14.3,3.8-6.5,8.3-.6,11.5,3.6,7.9,10.4,14.7,30.2,11,42.9-10.3,35.6-49.8,76.1-75.4,102.6-84,86.7-177.5,133.4-290.5,172.5-32.4,11.1-66.4,17.4-100.6,18.9" fill="#000000"/>
    <path id="outline-head-hat7" d="M953,1228l-1.5,2c-9.3-1.8-19.5-1-28.9-2.2-21.3-2.6-48.8-9.8-69.1-16.9-113-39.1-206.5-85.8-290.5-172.5-25.7-26.5-65.1-67-75.4-102.6-3.7-12.6,3.1-32.5,11-42.9,3.2-4.2,7.7-10.2,11.5-3.6,2.1,3.6-3.2,10.1-4.8,14.3-3.4,9-7.3,18.8-3.7,28.2,2.8,7.2,12.3,23,16.7,30.3,32.2,54.2,87.7,104.7,138.5,141.5,61.8,44.9,133.2,73.8,205.1,98.9,30,10.8,60.2,17.9,91.1,25.5" fill="#000000"/>
    <path id="outline-head-hat6" d="M1009.8,910.3c76.2-7.1,135.9,57.7,111.7,132.7-26.6,82.4-144.8,92.1-187.3,17.3-34.6-60.9,5.3-143.5,75.6-150M1013.8,916.3c-66.7,6.5-103.2,81.5-71.3,139.7,31.3,57,109.6,65.8,152,16,55.1-64.6,4.9-164-80.7-155.7" fill="#000000"/>
    <path id="shading-head-knucks" d="M1110.5,997.9c-1.3-5.9-18.6-28.9-23.9-30.5-3.7-1.1-8,2.1-11.7,5-2.4,1.8-4.9,3.8-6.3,3.8s-3.9-2.3-6.4-4.1c-5.5-4-12.4-8.9-16.5-8.6-3.3.3-7.2,3.9-11.5,7.7-3.8,3.4-8.1,7.2-10.5,7-2.1,0-6-3.6-9.4-6.8-4.4-3.9-8.5-7.7-11.7-7.9-4.1-.4-11,4.6-16.5,8.5-2.5,1.8-5.7,4.1-6.5,4.2-1.5,0-4.1-1.9-6.7-3.9-3.6-2.7-7.3-5.5-10.4-5.1-5.2.7-21.2,22.1-23.1,26.4-3,6.7-3.4,19,.8,26.6,2.2,3.9,5.4,6.3,9.3,6.9,4.8.7,12.5-.3,20.6-1.4,10.5-1.4,22.3-3,26.3-.2,1.7,1.2,2.5,2.6,2.3,3.9-.3,2.5-3.5,4.9-6.4,6-2.3,1-7.9,1.8-12.9,2.6-6.9,1.1-9.7,1.6-10.6,2.4-1.7,1.6-3.8,11.3-3.8,13.3.3,6.9,7.7,8.4,13.1,9.6.6,0,1.2.2,1.7.4,14.3,3.1,31.7,3.8,44.3,3.8s11.7-.2,14.5-.3c5.8-.3,36.4-2.9,41.7-7.7,1.9-1.7,2.3-4.8,2.3-7.1,0-4.7-1.5-10.1-3.5-11.9-.9-.9-3.9-1.5-11.3-2.6-4.7-.7-10-1.5-12.3-2.4-2.7-1.1-5.9-3.4-6.3-5.8-.2-1.3.4-2.5,1.8-3.8,4-3.5,14.5-1.9,24.6-.4,10.6,1.6,21.5,3.3,27.4-.3,7.8-4.5,8.9-20.4,7.3-27.3h.2ZM1083.4,1006.8c-2.9-1.2-5-5.2-4.6-8.9.4-3.1,2.5-5.2,6.1-5.7h.8c2.2,0,3.9,1.6,4.9,3.2,1.3,2.1,1.9,5.6-.4,8.6-2.2,2.8-4.5,3.8-6.8,2.9h0ZM1051,1003.8c-3.3,1-6.1.5-8.1-1.4-2.1-2-3-5.4-2.3-8.4.3-1.4,1.4-4,4.4-4.8,1.1-.3,2.1-.5,3-.5,4,0,6.4,2.8,7.2,5.7,1.1,3.7,0,8.2-4.2,9.5h0ZM992.6,994c.3-1.4,1.4-4,4.4-4.8,1.1-.3,2.1-.5,3-.5,4,0,6.4,2.8,7.2,5.7,1.1,3.7,0,8.2-4.2,9.5-3.3,1-6.1.5-8.1-1.4-2.1-2-3-5.4-2.3-8.4h0ZM963.1,1006.8c-4.1.4-6.1-3-6.7-5.9-.6-3.6.7-7.8,4.5-8.8,2.9-.8,4.9.9,5.9,1.9,2.1,2.4,2.9,6.3,1.8,9.1-.9,2.2-2.8,3.5-5.5,3.7" fill="#aaaaaa" opacity="0.5"/>
    <path id="fill-head" d="M1088.5,975c-5.8-4.9-14.1,8.7-19.8,7.8s-20-15.3-23.1-14.7c-4.7,3.2-16.8,15.1-22.1,14.8s-19.8-14.9-21.8-14.8c-6.2,2.3-16.5,13.8-22.4,14.7-5.2.8-12.7-10.7-18.6-8.7-1.4.5-17.6,21.7-18.2,23.8-1.7,5.7,1.2,18.7,7.5,20.6,15.8,4.8,34.7-11.5,49.4-.4,14.7,11.2-6.1,24.6-17.9,25.7-1.7.2-3.8-1.5-5.4-.5-.9.6-4.3,7.4-3.6,8.6,3.6,5.6,37.9,5.8,45.1,6,15,.2,33.8.8,48.5-2.4,3.9-.9,10.7-1.6,9.2-6.2-2.7-8.4-3.8-5-8.6-5.4-9.6-.9-24.8-8.8-22.6-20.4.7-3.3,9.4-9,12.5-9.5,15.2-2.5,45.2,17.7,49.2-7.8,2-12.6-11.2-21.3-17.3-31.2M952.6,1004.9c-8.6-14,10.2-26.7,20.1-15.6,11.7,13.2-11.5,29.6-20.1,15.6M998,1007.6c-14.3-2.6-13.1-23.7-1.3-26.4,21.4-5,20.8,30,1.3,26.4M1037,1001.5c-8.6-13.3,9.2-27.6,19.7-17.2,13.5,13.6-8.8,34.1-19.7,17.2M1095.4,1004.9c-8.6,14-31.8-2.4-20.1-15.6,9.9-11.1,28.8,1.8,20.1,15.6" fill="#ffffff"/>
    <path id="outline-head-hat5" d="M1079.7,1056.7c-4.8,4.3-33.7,7-41.1,7.4-17.7.8-41.3.3-58.6-3.5-5.3-1.2-13.7-2.2-14-9,0-2.1,2.2-11.3,3.5-12.5,1.5-1.4,18.5-2.8,23.2-4.8,5.2-2.1,10.3-7.3,4.3-11.7-7.4-5.3-36.2,3.1-47.4,1.4-12.6-1.9-13.4-22.8-9.3-32.1,2.2-4.9,17.9-25.2,22.3-25.8,5-.7,13,9.2,17,9,2.7,0,16.7-13.3,22.8-12.7,5.7.5,16.2,14.4,21.2,14.7,5.6.4,16.1-14.2,22.1-14.7,6.1-.5,20.1,12.6,22.8,12.7,4.3,0,12.2-10.5,17.8-8.8,4.9,1.5,22,24.2,23.2,29.8,1.7,7.3.2,22.1-6.8,26.2-11.4,6.8-43.5-6.8-52.2.8-5.2,4.5,0,9.3,4.8,11.2s21.8,3.3,23.2,4.8c2.9,2.7,4.9,14.3,1.2,17.6M1001.7,968.1c-6.2,2.3-16.5,13.8-22.4,14.7-5.2.8-12.7-10.7-18.6-8.7-1.4.5-17.6,21.7-18.2,23.8-1.7,5.7,1.2,18.7,7.5,20.6,15.8,4.8,34.7-11.5,49.4-.4,14.7,11.2-6.1,24.6-17.9,25.7-1.7.2-3.8-1.5-5.4-.5-.9.6-4.3,7.4-3.6,8.6,3.6,5.6,37.9,5.8,45.1,6,15,.2,33.8.8,48.5-2.4,3.9-.9,10.7-1.6,9.2-6.2-2.7-8.4-3.8-5-8.6-5.4-9.6-.9-24.8-8.8-22.6-20.4.7-3.3,9.4-9,12.5-9.5,15.2-2.5,45.2,17.7,49.2-7.8,2-12.6-11.2-21.3-17.3-31.2-5.8-4.9-14.1,8.7-19.8,7.8s-20-15.3-23.1-14.7c-4.7,3.2-16.8,15.1-22.1,14.8s-19.8-14.9-21.8-14.8" fill="#000000"/>
    <path id="outline-head-hat3" d="M996.7,981.2c21.4-5,20.8,30,1.3,26.4-14.3-2.6-13.1-23.7-1.3-26.4M996.7,986.2c-9.2,2.7-6.2,20.4,6.6,16.6,9.4-2.8,5.9-20.3-6.6-16.6" fill="#000000"/>
    <path id="outline-head-hat2" d="M972.7,989.3c11.7,13.2-11.5,29.6-20.1,15.6s10.2-26.7,20.1-15.6M960.7,989.1c-8.4,2.3-6.6,17.5,2.5,16.7,11.8-1,7-19.2-2.5-16.7" fill="#000000"/>
    <path id="outline-head-hat4" d="M1056.7,984.3c13.5,13.6-8.8,34.1-19.7,17.2-8.6-13.3,9.2-27.6,19.7-17.2M1044.7,986.2c-9.2,2.7-6.2,20.4,6.6,16.6,9.4-2.8,5.9-20.3-6.6-16.6" fill="#000000"/>
    <path id="outline-head-hat1" d="M1075.3,989.3c9.9-11.1,28.8,1.8,20.1,15.6-8.6,14-31.8-2.4-20.1-15.6M1084.8,989.2c-14.5,2.3-3.4,25.7,6.2,13.3,4.5-5.7-.4-14.3-6.2-13.3" fill="#000000"/>
    <g id="shading-head" fill="#aaaaaa" opacity="0.5">
      <path id="shading-head31" data-name="shading-head3" d="M996.7,979.2c-6.2,1.4-9.5,7.9-9.1,14.2.4-5.6,3.6-10.9,9.1-12.2,10.3-2.4,15.5,4.5,16,11.9.5-8.1-4.7-16.5-16-13.9" fill="#aaaaaa" opacity="0.5"/>
      <path id="shading-head41" data-name="shading-head4" d="M972.7,987.3c-8.4-9.4-23.2-1.7-22.2,9.4.8-10,14.4-16.3,22.2-7.4,2,2.3,3,4.6,3.2,6.9.3-2.9-.6-6-3.2-8.9" fill="#aaaaaa" opacity="0.5"/>
      <path id="shading-head5" d="M1056.7,982.3c-8.9-8.8-22.9,0-21.9,11,.8-10,13.6-17.2,21.9-9,2.7,2.7,3.9,5.7,4.2,8.6.3-3.5-.9-7.3-4.2-10.6" fill="#aaaaaa" opacity="0.5"/>
      <path id="shading-head6" d="M1097.6,996.8c1-11-13.9-18.9-22.3-9.5-2.6,2.9-3.5,6-3.2,8.9.2-2.3,1.2-4.6,3.2-6.9,7.9-8.8,21.4-2.5,22.3,7.5" fill="#aaaaaa" opacity="0.5"/>
      <path id="shading-head7" d="M998,1007.6c-6.8-1.2-10.1-6.6-10.4-12.2-.4,6.3,2.8,12.8,10.4,14.2,10.1,1.9,15.1-6.6,14.7-14.5-.4,7.3-5.4,14.2-14.7,12.5" fill="#aaaaaa" opacity="0.5"/>
      <path id="shading-head8" d="M952.6,1004.9c-1.3-2.1-2-4.2-2.1-6.2-.2,2.5.4,5.3,2.1,8.2,7.1,11.6,24.3,2.3,23.3-8.7-1,10.1-16.6,17.6-23.3,6.7" fill="#aaaaaa" opacity="0.5"/>
      <path id="shading-head9" d="M1037,1001.5c-1.4-2.1-2-4.2-2.2-6.2-.2,2.6.4,5.5,2.2,8.2,8.7,13.5,24.8,3.1,23.9-8.6-.9,10.8-15.6,19.4-23.9,6.6" fill="#aaaaaa" opacity="0.5"/>
      <path id="shading-head10" d="M1095.4,1004.9c-6.7,10.9-22.2,3.4-23.3-6.7-1,11,16.1,20.3,23.3,8.7,1.8-2.8,2.4-5.6,2.2-8.1-.2,2-.9,4-2.2,6.1" fill="#aaaaaa" opacity="0.5"/>
    </g>
  </g>
  <g id="shading-head11" fill="#aaaaaa" opacity="0.5">
    <path id="shading-head12" d="M960.7,976.1c5.9-2,13.4,9.5,18.6,8.7,5.9-.9,16.2-12.4,22.4-14.7,2,0,16.5,14.5,21.8,14.8,5.3.3,17.4-11.6,22.1-14.8,3.1-.6,17.4,13.8,23.1,14.7s14-12.7,19.8-7.8c5.5,8.9,16.8,16.9,17.5,27.6.7-11.7-11.6-20.1-17.5-29.6-5.8-4.9-14.1,8.7-19.8,7.8s-20-15.3-23.1-14.7c-4.7,3.2-16.8,15.1-22.1,14.8s-19.8-14.9-21.8-14.8c-6.2,2.3-16.5,13.8-22.4,14.7-5.2.8-12.7-10.7-18.6-8.7-1.4.5-17.6,21.7-18.2,23.8-.4,1.3-.5,3-.5,4.9,0-1.1.2-2.1.5-2.9.6-2.1,16.8-23.3,18.2-23.8" fill="#aaaaaa" opacity="0.5"/>
    <path id="shading-head13" d="M1055.3,1036.3c4.8,1.9,21.8,3.3,23.2,4.8,1.6,1.5,3,5.8,3.2,9.9.2-4.6-1.3-10.1-3.2-11.9-1.4-1.5-18.4-2.9-23.2-4.8-3-1.2-6.2-3.5-6.8-6.2-.9,3.5,3.1,6.7,6.8,8.2" fill="#aaaaaa" opacity="0.5"/>
    <path id="shading-head14" d="M992.7,1036.3c3.9-1.6,7.8-4.9,6.9-8.3-.6,2.7-3.7,5.1-6.9,6.3-4.7,2-21.7,3.4-23.2,4.8-1.3,1.2-3.5,10.4-3.5,12.5s0,.6,0,.9c.5-3.2,2.3-10.3,3.4-11.4,1.5-1.4,18.5-2.8,23.2-4.8" fill="#aaaaaa" opacity="0.5"/>
    <path id="shading-head15" d="M976.1,1045.3c1.6-1,3.7.7,5.4.5,9.3-.9,24.1-9.3,22.9-18.3-1,8.2-14.3,15.5-22.9,16.3-1.7.2-3.8-1.5-5.4-.5-.9.6-4.3,7.4-3.6,8.6l.2.2c.7-2.4,2.8-6.3,3.4-6.8" fill="#aaaaaa" opacity="0.5"/>
    <path id="shading-head16" d="M999.4,1016.1c-14.7-11.1-33.6,5.2-49.4.4-4.8-1.5-7.7-9.5-8-15.7-.3,6.4,2.6,16.1,8,17.7,15.8,4.8,34.7-11.5,49.4-.4,3.2,2.4,4.7,4.9,5,7.4.4-3.1-1-6.3-5-9.4" fill="#aaaaaa" opacity="0.5"/>
    <path id="shading-head17" d="M1056.6,1014c15.2-2.5,45.2,17.7,49.2-7.8.2-1.2.2-2.4.2-3.6,0,.5,0,1.1-.2,1.6-4,25.5-34,5.3-49.2,7.8-3.1.5-11.8,6.2-12.5,9.5-.2,1.1-.3,2.2-.2,3.3,0-.4,0-.8.2-1.3.7-3.3,9.4-9,12.5-9.5" fill="#aaaaaa" opacity="0.5"/>
    <path id="shading-head18" d="M1066.1,1053.5c-14.7,3.2-33.5,2.6-48.5,2.4-7.1-.2-40.7-.4-44.9-5.8-.2.8-.3,1.5-.2,1.8,3.6,5.6,37.9,5.8,45.1,6,15,.2,33.8.8,48.5-2.4,3.8-.9,10.5-1.6,9.2-6-1,2.7-6.1,3.3-9.2,4" fill="#aaaaaa" opacity="0.5"/>
    <path id="shading-head19" d="M1066.7,1045.9c4.8.4,5.9-3,8.6,5.4v.2c.2-.6.2-1.3,0-2.2-2.7-8.4-3.8-5-8.6-5.4-8.7-.8-21.9-7.3-22.8-17.1-.9,10.9,13.5,18.3,22.8,19.1" fill="#aaaaaa" opacity="0.5"/>
  </g>
    </g>
</svg>