<?xml version="1.0" encoding="UTF-8"?>
<?xml-stylesheet type="text/css" href="../styles/semantic.css" ?>
<svg xmlns="http://www.w3.org/2000/svg" viewBox="0 0 2048 2048">
  <g class="trait-group" data-category="background" id="background-purple-haze">
      <defs>
    <radialGradient id="purple-haze-gradient" cx="50%" cy="50%" r="70%" fx="50%" fy="50%">
      <stop offset="0%" style="stop-color:#E6E6FA"/>
      <stop offset="100%" style="stop-color:#4B0082"/>
    </radialGradient>
  </defs>
  <path id="color-purple-haze" class="color" d="M2048,0v2048H0V0h2048Z" fill="url(#purple-haze-gradient)"/>
    </g><g class="trait-group" data-category="jaw" id="jaw-robo">
      <path id="fill-jaw-robo1" fill="#ffffff" d="M1369.9 1062.1c.4.5 1 11.1 1.4 13.1 11.6 61.7 25.9 123 37.2 184.8 16.2 20.3 35.3 38.1 51.5 58.4l-70.1 149.9-2.3 1.6-31.6-1.9-7.8 59.7-101.2 128.8c-1.6 1.1-2.6-.6-3.6-1.6-11.2-11.1-20.8-28.6-32-40-1.3-1.3-2.6-3.5-4.8-2.9-3.4.9-32.4 51.8-38.3 57.8-25.8 9.8-49.6 24-74.7 35.3-8.9 4-63.2 23-65.1 25.9-.6 1-.4 2.8-.6 2.9-.2.2-3.1-.9-4.4-.9s-3.2 1.3-3.6.9c-.3-.3.7-2.4-2.3-4.2-13.4-8.1-38.6-14-54.4-20.6-28.2-11.8-54.4-28.3-83.3-38.7-6.3-5.8-35.3-57.4-38.7-58.4-2.2-.7-4.5 2.4-5.9 3.9-11.6 12.1-21.3 28.8-33.1 41l-1.9-.9-100.9-128.1c-3.2-19.9-5.4-39.9-7.5-60l-31.6 1.9-2.5-1.4-69.8-149.3c-.3-1.9 4.6-7.3 6.3-9.3 14.5-16.8 30.7-32.1 44.6-49.4 10.6-62 27.2-123.3 37.7-185.3.5-3.2-.7-11.9 2-13.3 104.8-21.7 209.7-42.7 314.5-64.3 7.3-1.5 24.9-7.3 30.5-7.5 4.2 0 24.8 6.2 31.1 7.5 105 21.6 210.1 42.9 315.1 64.4v.2z" class="fill" data-original-prefix="fill"/><path id="shading-jaw-main" fill="#aaaaaa" d="m1369.9 1062.1 28.1 145.4c-4.8-.6-19.2-17.4-22.3-16.4-3.4 1-21.1 37.8-20.7 42.4 12.3 15.8 24.8 31.6 35.4 48.6 3.7 5.9 15.5 24.5 15.6 30.5 0 4.7-10.7 25-13.5 30.5-4.5 8.7-9.8 16.9-14.5 25.5 17.3-8 33.9-18.4 49.3-29.7 4.1-3 10.3-7 13.7-10.3 2.3-2.2 12.4-16.5 13.5-16.5l5.5 6.4-65.1 139.9-6.5 11.5-32.3-1.9-7.8 59.7-101.2 128.8c-1.6 1.1-2.6-.6-3.6-1.6-11.1-11.1-20.8-29.2-31.9-40-.8-.8-1.6-2.1-2.9-1.9-7.3 1.3-32.3 48.3-39.7 55.4-30.9 14.9-60.7 32.4-91.6 47.4-12.8 6.2-33.2 17.2-46.8 18.2-23.7 1.7-37.4-7.3-57.9-17.2-31.4-15.1-61.6-32.8-93-48-8.2-6.6-32.8-54.4-40.3-55.8-2.8-.5-31.3 38.2-35.8 43-1 1.2-2 1.2-3.1 0l-100.9-128.1-7.5-60-31.6 1.9-2.5-1.4-69.8-149.3c-.3-3.1 3.7-7.8 6.8-5.8 1.9 1.2 8.8 11.9 11.5 14.6 2.9 2.9 7.8 6.2 11.2 8.8 4.5 3.4 49.2 33.3 51.3 31.2-7.3-15.4-17.3-29.8-23.8-45.6-1.2-2.9-3.2-6.7-3.2-9.9 0-5.3 10.4-22 13.7-27.4 11-18.2 24.3-34.9 37.4-51.6-4.2-15.2-12-29-20.1-42.3-.9-.5-2 0-2.9.4-6.3 3.4-12.9 13.3-20 16.5l28.1-145.9 45.8-9.7c48.2-55 116.4-93.5 184.8-118.2 72.2-26 130.6-31.5 205-8.5 77.7 24 155.9 65.5 210.3 126.7zM854 1330c-21-6.7-43.3-4.3-64.4-11.1-14-4.5-30.8-14.7-42.9-23.1-18.1-12.6-35.7-28.4-49.2-45.8-10.7 14.6-22.1 30.4-30.7 46.3-4.3 8-11.3 21.1-7.7 30.1l27.1 48.4c6.1 1.6 17.5-4.7 22.8-2.3 1.5.7 2.4 3.5 4.5 3.5s4.4-5.1 7-5.1 3.4 4.4 7 4.1 5.2-6.6 7.2-7c.5 0 8.2 2.7 8.6 2.9 4.7 2.4.3 18-3.2 21.4.3 1.5 14.2 9.3 16.4 9.6 2.9.5.2-2.4 1-4.9s6.5-6.3 8.8-5.9c5.4.9 6.3 10.2 14.7.3 1.9-2.2 0-4.1 4.5-4.6 8.5-1 5 8.4 7 14.1 12.4-17.2 20.2-37.4 32.1-54.9l29.4-16.1Zm507.8 44.8c8.8-17.7 20.1-34.4 28.2-52.3-.4-8.9-2.9-14.5-6.9-22.2-8.9-17.4-21.4-34.4-32.7-50.3-21.1 25.5-52 52.2-82.8 65.2-24.8 10.4-48.4 7.8-73.7 14.8l29.7 16.3c11.6 17.6 19.4 37.7 31.8 54.7.9-1.8 1-13.5 1.5-14s7.3-.2 7.8.2c1 .6 1.6 7.8 6.9 8.7 6.3 1.1 7.7-7.8 15.4-2.8 2.7 1.8 3.1 6 2.8 8.9 1.2 1.4 17.7-8.3 18-9.6.2-1-3.9-5.8-4.6-8.4-2.2-9.5-1.5-13.7 8.4-14.8 5.3-.6 2.8 2.2 5.5 4.5 4.6 4 7.8-2.7 10-2.6 2.7.2 5 4.9 7.2 4.9s3-2.8 4.5-3.5c5.2-2.4 16.6 3.8 22.8 2.3zM1078 1327c-5.5-11.1-10.5-24.8-17.6-34.9-4.2-6.1-10.2-10.5-14.9-16.1-3.4-4-15.2-20.5-18.4-21.6-1.9-.6-4.4-.8-6.3-.2-2.4.7-15.7 18.7-18.7 22.3s-7.4 6.8-10.5 10.5c-9.4 11.2-15.1 26.9-21.5 40h108Zm-353.8 172.8c24.8 5.4 50.2 7.7 75 13.6 17.3 4.1 20.3 3.6 29.6 19.4 5.3 8.9 9.2 18.7 14.2 27.8l17 14-29.2-80.8c-2.4-5.8-8-8-13.1-10.9-22.2-12.9-51.7-27.2-75.7-36.3-2.6-1-8.1-3.8-10.4-3.5-1 0-15.6 9.5-16.3 10.3-6.3 7.6 6.8 37.2 8.9 46.5Zm599.6 0c2.5-10.6 8.2-22.1 9.8-32.7.8-5.7 1.7-10.9-3-15.1-1.1-1-13.2-8.9-14-9-2.5-.3-19.4 7.2-23.2 8.8-20.7 8.8-45.7 20.5-65 32-5.6 3.4-8.8 4.9-11.8 11.2l-28.5 80 16.4-14.1c7.1-10.9 14.9-35.4 25.9-42.1 6.1-3.8 19.9-5.9 27.5-7.5 21.8-4.6 44.2-6.7 66-11.5zM908.5 1649v1c.7-.3.7-.7 0-1m229.5 1c-31 8.8-60.6 26.8-91 36.5-19.3 6.2-28.3 5.9-47.5-.4-28.3-9.3-56.5-25.5-85-35.1-1.2-.4-3.6-1.8-4.5-.5.8 2.1 2.7 4.2 4 6 4.9 6.3 18 23.3 23.5 27.5 7.2 5.5 27.9 14.6 37.1 18.9 5 2.3 20.9 10.5 24.9 11.1 9 1.4 36.3 1 46 0 7-.6 57.7-24.6 64.4-29.6 5.3-3.9 18.2-20.8 23-27 .8-1 5.8-6.8 5-7.5Z" class="outline shading" data-original-prefix="shading" opacity="0.5" style="opacity: 0.5"/><path id="outline-jaw" fill="#000000" d="M670 1105c2 .2 9.2 3.6 9.8 5.7 1 3.3-1.3 18.1-2 22.7-6 41.8-19.7 84.1-28.6 125.4-12.3 18.3-29.3 33.5-43.8 50.2-1.2 1.3-6.5 7.5-6.5 8.5l56 135.5c1.5.4 1.7-.4 2.5-1 7.1-4.9 23.9-23.3 30.5-30.5 1.5-1.6 9.9-11.2 10-12-17.6-32.9-42.5-63.1-49.8-100.8 17.2-28.9 35.3-57.4 56.9-83.2 6.2-7.4 21.8-27.5 32-26.1 4.7.6 8.6 4.8 6.4 9.5-23 21-44.9 44.7-62.7 70.3-3.2 4.6-15.2 22.2-15.6 26.5-.5 5.1 11.8 29.8 15 35.6 7 12.8 29.4 46.8 40.5 54.5 2.8 1.9 7 3.2 10 5 77.7 46.7 153.2 90.1 243.1 109.9 13.1 2.9 37.4 9.1 49.8 9.2 11.3 0 33.7-5.7 45.6-8.2 92.6-19.7 168.3-62.9 248.1-110.9 3.1-1.8 7.2-3.1 10-5 11.1-7.7 33.4-41.8 40.5-54.5 3.2-5.8 15.5-30.5 15-35.6-.4-3.9-10.7-19.3-13.6-23.5-18.3-27-40.8-51.3-64.7-73.3-2.5-9.2 6.9-10.8 13.8-7.8 10.7 4.6 40.4 44.2 48.5 55.5 11.9 16.7 22.3 34.6 33 52.1-7.3 37.7-32.2 67.9-49.8 100.8 0 .8 8.5 10.4 10 12 6.6 7.2 23.4 25.6 30.5 30.5.8.6 1 1.4 2.5 1l55.8-135.3c-15.4-20.6-35.6-37.7-50.1-58.9-8.6-41-22.6-83.1-28.6-124.4-.7-4.8-3.1-20-1.9-23.7.6-2.1 8-5.5 9.8-5.7 4.6-.4 10.8 5.1 11.9 9.6 8.1 44.1 13.6 92.9 27.6 135.4 9.1 27.6 33.8 39.8 52 60 4.9 5.4 6.6 7.2 4.8 14.8-2.1 8.6-9.2 23.2-12.8 32.2-16.7 41-35.5 81.7-54.5 121.5-2.5 2.1-18.6 9-21.4 8.6-4.6-.7-13.3-13.3-18.5-15-3.1 22.3-7.1 44.7-11.8 66.7-29.2 38.3-55.4 79-82.3 118.7-10.2 4.1-22.2 12.3-32.2 15.8-1.5.5-3 1.3-4.6.7l-24.6-43.9c-1.1.5-16.2 15.9-17.3 17.7-6.5 10.1-3.8 21-14.2 29.8-22.9 19.1-72.2 40.2-100.7 51.3-18.6 7.3-34.3 14.2-54.7 14.3-24 .2-49.5-11.4-71.5-20.6-23.2-9.8-67.3-29.4-85.5-45.5-10.3-9.1-7.3-19.2-13.7-29.3-1.1-1.7-16.2-17.1-17.3-17.7L812 1674c-1.6.6-3.1 0-4.6-.7-10.1-3.5-22-11.7-32.2-15.8-26.9-39.8-53.1-80.4-82.3-118.7-4.7-22-8.6-44.4-11.8-66.7-5.2 1.7-14 14.4-18.5 15-2.8.4-18.9-6.5-21.4-8.6-19-39.8-37.8-80.5-54.5-121.5-3.6-8.9-10.8-23.6-12.8-32.2-1.8-7.6 0-9.4 4.8-14.8 13.4-14.9 37.6-30.5 47.2-47.8 7.3-13.1 12.4-41.8 15.8-57.2 4.5-20.4 8.5-41.2 12.2-61.8 1.5-8.5 1.8-19.4 3.7-27.3 1.2-5 7.2-11.3 12.6-10.9zm664.9 411.9 14.2-77.4c-.2-3.8-5.4-5.5-8.1-8-2.9-2.7-5.4-5.9-8.6-8.3-82.7 31.3-155.3 82.7-242.3 103.3-57 13.5-94.2 11-150.2-4.8-69.9-19.7-131-59.2-197.1-87.9-6-2.6-20.1-9.4-25.7-10.4-2.8-.5-7.7 6-10 8.1-2.1 2-7.6 4.5-8.1 7l14.2 78.3c17.8 1.1 35.6 3.8 53.4 5.1 9.3.7 42.4-.4 47.8 3.9 8.5 20 14.6 41 23.2 61 2.8 6.5 6.2 15.2 9.9 21.1 5.4 8.7 15 14.9 20 23.1 5.6 9.2 8.1 23.6 15.5 31.5 5.1 5.5 21.6 15 28.8 19.2 31 18.4 83.7 44.6 119.8 42.2 30.1-1.9 87.2-31 113.4-47.6 5.2-3.3 16.2-9.8 20.1-13.9 7.2-7.5 10.4-24.2 16.1-32.9 2.7-4.1 8-7.8 11.3-11.7 8.3-9.7 11.9-17.5 16.9-29.1 9-20.6 15.3-42.4 24.2-63 14.6-5 32.2-2.8 47.8-4 17.8-1.3 35.6-4.1 53.4-5.1v.3ZM801 1649c5.8-16.3 16.4-30.6 24.8-45.6-4.3-11.7-7.5-23.9-12-35.6-2.2-5.8-7.4-19.7-10.9-24.1-10.8-13.6-69.6-12.5-86.9-16.6-.5 1.7.7 2 1.5 3 13.4 17.3 27.7 33.6 40.3 51.7 15.2 21.9 28.4 45.1 43.2 67.3Zm531-122c-17.3 4.1-76.1 3-86.9 16.6-3.5 4.4-8.6 18.3-10.9 24.1-4.5 11.7-7.7 23.9-12 35.6 8.4 15.1 18.9 29.3 24.8 45.6 14.7-22.2 27.9-45.4 43.2-67.3 12.6-18.1 26.9-34.3 40.3-51.7.8-1 1.9-1.3 1.5-3Z" class="outline" data-original-prefix="outline"/><path id="outline-jaw1" fill="#000000" d="M785.7 1376.3c8.1 7.2 8.5 18.5 4.1 27.9-5.2 10.9-19.3 10.7-26.7 2.3-15.1-17.3 3.6-47 22.7-30.2Zm-12 4.9c-10.7 1.7-7.7 23.9 4.7 21.8 10.2-1.7 4.4-23.3-4.7-21.8" class="outline" data-name="outline-jaw" data-original-prefix="outline"/><path id="outline-jaw2" fill="#000000" d="M1262.3 1376.3c22.7-20.1 40.5 23.7 16.9 34.4-21.7 9.8-31.5-21.5-16.9-34.4m10.4 4.9c-10.5 1.7-12.6 25.9 1.3 21.4 10.1-3.2 8.1-22.9-1.3-21.4" class="outline" data-name="outline-jaw" data-original-prefix="outline"/><path id="outline-jaw3" fill="#000000" d="M723.7 1356.2c15.6-2.8 28.9 19.5 15.8 29.8-10 7.8-24 0-26.8-11.2-1.8-7.1 3.5-17.2 11-18.6m9.1 22.6c6.5-6.5-8.3-22.1-11.4-7.8-1.5 7.3 7.1 12.1 11.4 7.8" class="outline" data-name="outline-jaw" data-original-prefix="outline"/><path id="outline-jaw4" fill="#000000" d="M1317.7 1356.2c14.2-2.9 23 13.6 14.3 25.3-12 16-34.6 4.8-27.5-13.5 1.7-4.3 8.7-10.8 13.2-11.8m-2.5 22.6c4.3 4.3 12.9-.5 11.4-7.8-3-14.3-17.9 1.3-11.4 7.8" class="outline" data-name="outline-jaw" data-original-prefix="outline"/>
    </g><g class="trait-group" data-category="mouth" id="mouth-cracked scrappy">
      <path id="fill-muzzle-1" fill="#ffffff" d="M1038 1292s-.4 1.7.7 2c10.3 2.8 18 4.3 25.8 13 1.9 2.2 4.9 8.8 6.5 9.5 2.6 1.2 6.6 0 9.5.5 11.4 1.5 21.2 3.7 31.2 9.8 2.1 1.3 9.2 7.8 10.2 7.1.3-.3 0-1.7 0-1.9 2.4-1.8 32.7.6 38 1 5.2 4.2 13.2 5.5 19.2 8.3 13.7 6.4 22.5 16.1 29.9 29.1 8.4 14.6 7.7 17.8 3.1 33.4-2.5 8.5-4.8 21.8-16.3 20.2 1.5-15.5-14.8-32.4-26.5-41-3.2-2.4-11.3-7.2-6 0 10.7 14.6 20.5 15 21.5 37.5.5 10.4-8.3 32.8-15.4 40.5-.6.7-7.1 6.3-7.6 6.5-3 1.6-6.8-6.1-7.8-8.2-3.7-7.7-4.8-15.6-9.7-23.3-1.1-1.7-10.8-13.7-12.4-12.1 5.6 13 9 46.2-2.5 56-4.4 3.7-9.4 1.9-13.3 3.7-2.8 1.3-3.1 5.8-4.8 6.2-.9.2-7.2-3.2-9.4-3.5-9.3-1.3-13.1 17-18.7 17.4-2.5.2-10.7-11.9-18.4-9.4-6.8 2.2-15.3 20.6-23.6 23.5-7.3-4.5-4.2-14-6.6-21.1-1.2-3.5-4.2-6.7-5.8-10.2-5.4-12.7-2.8-19.9-.2-32.2.7-3.3-.2-6.3 1.2-9.8.4-1 6-11.5 6.6-12.4 3.7-5.4 19.2-12.4 22.7-3.8.9 2.2 0 8.7 2.2 7.7 5.1-4.9 10.2-9.9 15.5-14.5 10.2-8.9 12.8-8.2 19.5-21.5 1.9-3.8 8.1-17.3 8.2-20.7.2-6.3-17.9-22.6-21-29-3.6-2.9-22.1-2.8-27.2-2.3-14.1 1.5-18 12.2-27.5 19.5-1 .8-1.3 1.9-3 1.5l.8-12.7c7.6-8.2 14.9-16.6 21.1-26 .7-3.3-8.6-12.4-11.3-13.2-3.6-1 .5 5.5.5 6.6.4 5.2-5.9 4.1-9.3 5.6-1.2.5-3 2.7-3.2 2.7s-2-2.2-3.2-2.7c-8-3.5-11.7.6-7.3-12.2-1.6-1.7-12.5 9.1-12.9 11.7-.2 1.6 3.6 7.8 4.8 9.5 1.5 2 5 5.9 7 8.3 3.2 3.9 9.7 7.7 9.9 13.1 0 1.6-.8 3.1-.8 4.8s2.6 8.1-2.5 3.6c-6.2-5.3-10.1-13.6-18.5-17.5-6.8-3.1-28.3-4.1-34.7-.8-.8.4-9.9 11.1-11.2 12.8-2.4 3-10.9 13.7-10.8 16.8.2 5.1 11.2 27.9 14.7 32.2 2.8 3.4 10.2 7.7 14 11 5 4.3 9.7 9.1 14.5 13.5 2.2.9 1.5-5.2 2-7 2.4-9.9 19.2-2.4 23 3.1.7.9 6.6 13.1 6.9 14.1 2.9 11 5.6 26.6 1.9 37.5-1.7 4.9-6.8 10.4-7.8 15.2-1.4 6.6 1 13.6-5 19-5.3 1.2-18.8-21.7-24.4-23.5-8.2-2.6-15.9 9.6-18.4 9.4-5.3-.4-8.7-14-13.9-16.1-6.9-2.8-11.5 2.7-14.1 2.1-1.8-.4-2-4.8-4.8-6.1-4.5-2-9.6.3-14.3-4.7-10.9-11.5-6.5-42.2-1.5-56.1-9.1 6.7-14.1 14.8-18.5 25-1.6 3.6-2 7.5-3.7 11.3-1 2.1-4.9 9.8-7.8 8.2-.4-.2-6.9-5.8-7.5-6.5-4-4.2-13.8-24.3-15-30-2.8-12.9 1.4-26.5 9.5-36.5 4.1-5.1 11.3-9 13-15.5-2.4-2.4-22.3 17.4-24.4 20.1-5.4 6.8-11 15.9-9.6 24.9-4.7.2-8.1-.7-10.8-4.7-1.8-2.7-8.8-24.3-9.2-27.8-1.1-10.9 10.9-28.8 18-37 10.5-12.2 24.5-14.2 38-21.5 12.5-.8 24.5-2.3 37-1 0 0 .7 2.1.5 3 9.5-8.2 20.6-14.8 33.1-16.9 4.7-.8 14.8-.4 18.1-1.8 1.6-.7 5.2-7.7 7.2-9.9 8-8.4 15.2-9.7 25.4-12.5 1.1-.3.6-1.9.7-2 1.1-.7 25.9-.7 27 0Z" class="fill" data-original-prefix="fill"/><path id="fill-teeth16" fill="#ffffff" d="M995.3 1525.7c11 9.5 17.2-6.6 23.2 6.3 6.5 14.1 3.7 38.4-1 52.9-.7 2.1-7.1 16.9-8 17.1-1.2.3-3-.4-4.2-.9-12-5.1-31.7-18.1-39.1-28.9-10.6-15.5-6.4-42.9 6.8-55.8 1.3-1.3 9.1-5.6 10.4-5.3 1.5.3 9.4 12.3 12 14.5h-.1Z" class="fill" data-original-prefix="fill"/><path id="fill-teeth15" fill="#ffffff" d="M1039.1 1601.9c-.8-.5-7.5-16.1-8.1-18.4-4.1-13.8-6.5-36.9-1.3-50.3 4.6-12 8.1-4.3 15.8-4.2 9.5.2 17.3-18.2 20.8-17.9 1.2 0 8.5 4.2 9.7 5.3 6.3 6.2 12.2 22.3 13 31 2.4 28-20.3 39.6-41.3 50.7-2 1.1-5.7 5.5-8.6 3.7Z" class="fill" data-original-prefix="fill"/><path id="fill-teeth14" fill="#ffffff" d="M904 1461c0 2.2-1.1 3.8-.8 6.2.2 1.8 7.1 22 8 23.1 3.9 5.1 11.2 3.2 16.7 3.8 4.9 13.5-4.2 23.8-8.6 35.6-2 5.3-8.7 33.1-12.8 34.2-1.8.5-6.8-9.1-8.3-10.7-10.3-23.9-15.3-58.4-2.6-82.2.6-1.2 7.1-11.6 8.4-10.1Z" class="fill" data-original-prefix="fill"/><path id="fill-teeth13" fill="#ffffff" d="M1144 1564c-2.1 1.4-6.1-7.1-6.8-8.7-3.2-7.9-4.4-17.4-7.5-25.5-4.3-11.6-13.6-22-8.6-35.6 4.8-.6 12.3 1.2 15.9-2.9 1.3-1.5 8.1-20.6 8.6-23.2.3-1.8-1.4-7 .9-6 6 2.7 13.7 26 14.4 32.6 1.4 13.9-2.9 45-9.3 57.4-.8 1.5-7 11.6-7.6 11.9" class="fill" data-original-prefix="fill"/><path id="fill-teeth12" fill="#ffffff" d="M1093.1 1644.9c-2.9-1.8-2.4-28.5-2.1-33.4.7-10.5 5.2-31.2 8.9-41.1 1.1-2.8 2.4-1.4 4.2 0 12.2 9.6 21.1 44.8 12.8 57.9-1.9 3-15.6 14.9-18.9 16.1-1.3.5-3.8 1.1-4.8.4Z" class="fill" data-original-prefix="fill"/><path id="fill-teeth11" fill="#ffffff" d="M949 1569c5.5 22 11.1 44.4 9 67.5-.5 5.2-.9 10.3-7 8-3.4-1.3-17.5-13.4-19.5-16.5-5.8-9.2-1.4-31.3 2.7-41.2 1.2-2.9 11.3-21 14.8-17.7Z" class="fill" data-original-prefix="fill"/><path id="fill-teeth10" fill="#ffffff" d="M881.7 1478.3c3.1 2.8-2.7 21-2.8 26.2 0 5.9 2.6 12.4 3.1 18 .2 2.1.7 24.5-.5 24.5-1.5.2-2.1-1.1-2.9-2.1-15.6-18.9-34.8-51.8-17.4-75.3 6.5-8.8 10.5 2.1 14.9 5.8 1.8 1.5 4.9 2.1 5.7 2.8Z" class="fill" data-original-prefix="fill"/><path id="fill-teeth9" fill="#ffffff" d="M1185.7 1467.3c1.9 1.6 7.8 13.7 8.2 16.2 3.2 20.7-9.8 47.3-23.9 61.9-.9 1-1.3 1.9-3 1.5.5-8-.7-16.6 0-24.5.4-5.4 3.1-12.3 3.1-18s-6.1-23.4-2.8-26.2c.6-.6 2.5-.6 3.8-1.7 3.4-3 10-13.1 14.7-9.3Z" class="fill" data-original-prefix="fill"/><path id="fill-teeth8" fill="#ffffff" d="M1018 1613v16.5c0 .9-10.8 13.2-11.9 14.1-6.3 4.8-8-2.6-10.6-5.5-5.5-6-17.9-.4-24.4-5.6-1.2-.9-4.1-8.8-4.1-9.9v-22.5c12.9 1.7 28.3 17.5 41.4 15.9 3.5-.4 6.1-3 9.6-2.9Z" class="fill" data-original-prefix="fill"/><path id="fill-teeth7" fill="#ffffff" d="M1031 1613c6.3 1.3 9.1 4 16.1 2.6 10.6-2.2 24.3-14.8 33.4-15.6 2-.2 1.4 0 1.2 1.3-.8 6.5 2.4 27.5-4.4 31.6-7 4.2-18.8-.3-23.4 4.6-2.1 2.2-3.6 8-8.4 7.6-1 0-14.6-13.5-14.6-14.6V1613z" class="fill" data-original-prefix="fill"/><path id="fill-teeth6" fill="#ffffff" d="M1102.5 1494c3.3-.8 4.5 6.9 5.3 8.7 5.6 12.1 13 24.8 13.3 38.8.2 9-16 29.8-21.3 16.2-4-10.4-4.1-44.8-1.1-55.5.4-1.6 2.4-7.9 3.8-8.2" class="fill" data-original-prefix="fill"/><path id="fill-teeth5" fill="#ffffff" d="M937.3 1559.7c-1.9-1.6-7.8-10.5-8.5-13-3.6-12.1 6-31.3 11.4-42 1.6-3.1 3.3-14.7 8-7.4 5.5 8.5 4.3 41.5 2.7 52.1-1.2 7.7-3.6 18.7-13.6 10.3" class="fill" data-original-prefix="fill"/><path id="fill-teeth4" fill="#ffffff" d="M917 1563c-1.8 13.4 2.9 27.5 2 40.5-.6 9-4.4 18.4-5.5 27.5-6.2-6-10.5-16.1-11.4-24.6-.5-5.2.7-24.7 2.4-29.3.6-1.6 10.5-16.2 12.4-14.1Z" class="fill" data-original-prefix="fill"/><path id="fill-teeth3" fill="#ffffff" d="M1135 1631c-.4-8.9-4.4-17.8-5.1-26.5-1-13.8 3.7-27.6 2-41.5 2.2-2.4 11.9 13 12.5 15 2 6.6 2.6 27.4 1.2 34.3-1.3 6.3-5.5 14.9-10.8 18.7z" class="fill" data-original-prefix="fill"/><path id="fill-teeth2" fill="#ffffff" d="M1154.1 1604.9c-3.4-2-5.1-22.3-3.9-26.2.8-2.6 8.9-5.2 10.2-8.8l5.1-10.9c3.8 3.4 5.1 7.2 4.3 12.2-.7 4.2-5.4 22.7-6.9 26.2-.9 2.2-6.1 9-8.8 7.5" class="fill" data-original-prefix="fill"/><path id="fill-teeth1" fill="#ffffff" d="M885 1559c-.3 3.7 1.7 9.4 4 12.2s9.5 5.2 10 8.3c-2 8.4 1.6 19.2-5.7 25.4-3.6-1.1-6-4-7.4-7.4s-6.5-23.6-6.9-27.1c-.5-4.2 1.2-10.6 5.9-11.4z" class="fill" data-original-prefix="fill"/><path id="shading-mouth2" fill="#aaaaaa" d="M918 1443.5c.8 5.3 5.6 13.8 10.1 16.9 11.5 8.3 16.2-.3 22.4-9.4 2.5 5.4 3.4 11.5 6 17 1.4 2.8 5.7 12 7.5 5.5l4-11.5c1.6 7.5 6.3 15.4 11.5 21 4.3 4.7 18.8 15.4 24.6 9.6 2-2.1 8.3-17.9 10.8-22.2 1.2-2.2 7.8-13.8 9.7-13.3 1 .2 8.5 13.2 9.7 15.3 2.4 4.5 7.3 17.7 9.8 20.2 3.8 3.8 10.5.4 14.4-1.8 10.5-5.9 18.5-17.2 21.7-28.8l4.2 12.3c.3 1.2 1.9 2.4 2.8 1.7.6-.4 5.8-11.3 6.5-13 .8-2 2.8-12 4-12 6.8 10.7 12.9 18.4 24.5 7.5 8.6-8 9.3-23.8 7-34.5 3.5-3.1 21.1 16.1 26.6 16.9 9.1 1.4 17.6-11.8 19-19.9 3.5-20.5-12.9-39.2-30.9-46.2l-12.7-4.8c15.4 0 28.2 2.9 41.1 11.4 4.8 3.1 12.2 10.9 17.6 11.4 6.2.6 10.1-4.1 10-10-.4-19.3-25.8-38.1-39.7-48.8 15.4 2.4 34.6 11.8 45 23.5 7.8 8.8 19.1 25.1 19.1 37s-6.4 28.5-9.2 32.8c-3.3 5.3-11.7 5.4-13.4 10.6-.9 8.1-2.1 16.4-2.5 24.5-1.5 29 1.4 45.2-10.8 73.2-3.6 8.2-12.7 20.4-14.9 27.1-4.2 12.8-.7 26.4-9.1 38.9-3.2 4.8-8.4 6.7-11.2 10.8-1.7 2.5-2.4 6.1-4.2 8.8-4.5 6.7-14.6 23-21.6 8.9-1.6-3.3-1.3-12.9-6.7-6.2-1.4 1.7-1.9 4.4-3.5 6.5-3.7 4.7-17.7 19.6-23.5 19.5-2.2 0-4.5-4.1-6.6-5.4-7.9-5-21.1-6.3-29.2-1.4-7.3 4.4-9.5 13.6-18.1 6.8s-6.4-10.8-20.1-9c-5.6.7-11.4 12.6-16.9 12.1-2.8-.2-11.4-11.1-18.5-12.6-6.3-1.3-17.5.7-23 4.2-2.6 1.7-4.1 5.6-7.5 5.4-5.7-.3-19.8-15.8-23.6-20.5-1.2-1.5-4.4-10.6-7.1-6.9-2.5 3.4-.6 9.9-7.2 12.7-7 3-14.9-11.2-18.1-16.4-1.2-1.8-1.2-4.3-2.6-6.4-2-3-6.8-5.4-9.5-8.5-10.4-11.9-6.7-27.7-10.7-41.3-.8-2.6-5.6-8.5-7.3-11.7-18.4-35.7-16.4-45.6-18.4-84.6-.4-7.7-.6-20.7-2.2-27.8-1.5-6.2-11.1-6.1-14.2-11.8-3.4-6.1-9.3-29.6-8.6-36.4 1.2-10.3 16.2-31.2 24-38 10.5-9.2 26.2-16.5 40-18.5l-21.5 17c-7.2 6.4-26.8 32-14.8 39.9 9 5.9 16.7-4.5 23.7-9.1 12.7-8.4 25.3-11.8 40.7-11.8l-17.3 7.2c-18 9.4-33.1 32.7-22.1 52.8 1.7 3.1 8.6 10.4 12 11.1 9.1 1.7 20.7-15.4 29.5-18 .6 6.4-.9 14.3 0 20.5zm-37.1 40.6c-12.3-.5-17.1-20.2-22.8 1.5-3.4 13 1.2 26.4 9.4 36.5 1.5 1.8 12.7 13.1 13.9 12.9.8 0 2.5-2.3 2.8-3.2 2.9-7.1-3.2-12.2-4.2-19.2-1.5-9.8 0-18.7.9-28.4Zm301.8-8.9c-3.2.8-6.3 6-8.8 7.3-2.1 1.1-7.2 1-7.8 3.2-.5 1.7 3 10.8 2.9 14.8 0 3-1.5 13.9-2.2 16.8-.9 3.6-3.9 5.7-3.9 10.2s1.4 7.1 3.7 7.4c1.9.3 15-14.4 16.8-17 5.7-8.5 9-18.8 7.3-29.2-.5-3-4.4-14.5-8-13.6Zm-284.8 10c-4-2.3-6.5 9.9-6.8 12.5-1.2 10.5 3 38 8.7 47.1 1.9 3 5.4 6.9 9.2 7.3 3.7-15.6 12.6-29.2 21-42.5-2.3-.4-1.7-2.9-2.7-3.5-1.5-.9-7-1.9-9.7-3.1-4.7-2.2-12-7.7-15.6-11.4-1.2-1.2-3.8-6.2-4.2-6.3ZM1139 1552c8.3-2 11.9-12.2 13.9-19.6 3.1-12.1 6.1-33.4 1.1-44.8-3-6.9-5.8 1.7-8.3 4.1-3.9 3.8-11 9.3-16 11.6-2.5 1.1-7.8 1.8-9.1 2.7-.7.5-.5 1.8-1 2.7-.3.4-1.7.4-1.6.9 0 1 7.9 12.3 9.2 14.8 4.8 8.8 9.1 18 11.8 27.7Zm-197.7 5.7c8.1 8.1 9.5 0 10.5-7.3.8-5.6 2.7-20.6 1.7-25.4-3.6-17.2-21.3-15.9-21.6 3.6 0 6.8 4.6 24.3 9.4 29.2Zm161.5-44.5c-5 1.3-8.5 9.3-8.8 14.2-.2 4 2.4 28.5 3.8 31.3 2.5 5 7.5 0 9.8-2.7 6.8-8.3 11.6-30.7 4.5-39.5-2.7-3.3-4.8-4.4-9.2-3.3zM1023 1544c-.7-.7-.8-7-5.1-9.4-8.9-5-21.8-.8-32-4-10.4-3.3-9.4-13.1-16.1 1.8-2.9 6.4-9.1 24.4-6.3 30.7 1.1 2.4 17.8 15.6 21.2 17.8s18.2 11.7 21.1 10c3.1-5.6 9.3-9.5 12.6-14.9 1.8-2.8 4.1-11.5 4.6-11.9 1.6-1.7 1.7.5 2.1 1.4 1.6 3.6 2.1 6.8 4.5 10.5 3.3 5.2 9.2 9.3 12.4 14.6 3.1 1.9 15.5-5.9 18.9-8.1 4.5-2.9 22.9-17 23.9-21.1 2.2-9.7-6.6-28.3-10.9-37.2-4.9 1-7.8 5.2-12.7 6.7-9.2 2.8-28.2-1.6-33.7 6.3-.9 1.2-2.6 8.9-4.5 7zm-136 18c-.7-.6-3.5 0-4.5.9-6 6.2 2.4 31.6 14.6 27.6 4-1.3 3.8-9.4 2.8-12.9-1.1-3.9-7.2-4.1-9.8-7.2-2.1-2.5-2.7-8.2-3-8.5Zm274.1 0c-.3.3-.9 6-3 8.5-2.6 3.1-8.7 3.3-9.8 7.2-1 3.4-1.2 11.6 2.8 12.9 13.4 4.4 20.2-24.5 14.1-28.1-.9-.5-3.5-.9-4-.4Zm-216.4 7.2c-1.5.4-5.1 4.6-6 6.1-3.4 5.6-5.6 32.3-4.8 39.3 1.3 10.9 15.2 18 19.5 3.5 1.7-5.6 2.6-21.4 2.5-27.6 0-1.1-5.8-19.7-6.5-20.5-1.2-1.4-3.2-1.3-4.8-.8Zm153.3-.1c.2 6.6-5.4 14.7-6 20.6-.5 4.5 1 25.3 2.4 29.4 4.2 12.1 16.9 7.3 19.1-2.9 1.1-5.2 0-16.8-.6-22.6-1-9.7-1.7-25.5-14.9-24.5m-180 1.9c-20.5 3.8-17 28.7-9 43 4 2.9 10.4-17 10.7-19.8.9-7.5-2.9-15.5-1.8-23.2Zm218 43c2.5 1.8 7.2-9.1 7.7-10.8 3.9-12.8 1.6-30.1-13.7-32.2.5 7.4-2.8 16.2-1.9 23.4.3 2.7 6.4 18.5 7.9 19.6m-148.2 10.2c1.4.8 4.8 8.6 9.5 11 11.1 5.8 20.2-6.4 20.7-16.7.8-13.7-7.2-7.7-16.5-8.6-8.4-.8-15-4.8-21.8-9.2-5.5-3.5-13.6-14.6-14.7-1.4-.5 5.1 1.4 7.5 1.8 11.2s-2 5.9.5 10.7c4.8 9.3 18 1.3 20.7 2.8zm93.1-31.1c-2.1-1.5-19.7 12.7-23.9 14.4-2.3 1-7.9 2.3-10.5 2.5-10.5.9-18.8-5.4-16.4 11.4 1 7.3 7.9 15.8 16 15.1 9.4-.8 11.9-11.6 14.6-12.4 4-1.3 12.3 5.7 18.9-1.1 4.3-4.4 1.3-8.4 1.5-12.5 0-2.3 1.9-4.8 2-8.1 0-1.9-.8-8.5-2.2-9.4Z" class="outline shading" data-original-prefix="shading" opacity="0.5" style="opacity: 0.5"/><path id="shading-mouth1" fill="#aaaaaa" d="M1041 1343c6.1.5 12.7-1 17.5-5 1.5-1.3.9-3.7 2.8-2.9 10.1 7.9 37.9 17.4 43.8 28.2 3.6 6.5 4.6 17.5-1.8 22.6-5.6 4.5-20.8 10.8-28 15-4.9 2.8-9.7 6.6-14.7 9.3-7.4 4.1-25.5 14.5-32.6 16.4-2.9.8-5.2.8-8.1 0-14.5-3.8-42.2-22.5-56.3-30.7-6.2-3.6-21.2-9.1-23.2-15.8-5.5-18.4 15.7-28.3 28.7-35.4 2.3-1.2 15.5-8.6 16.5-8.7 2.9-.3 4.2 2.9 6.7 4.2 4.2 2.3 10 3.2 14.7 2.8-.3-5.1-3.3-11.3-1.8-16.3.5-1.6 12.5-13.9 14.5-14.4 3.9-1 8.2-.3 11.6 1.9 1 .7 10.8 11.1 11.2 11.8 2.1 5-1.2 11.8-1.5 17" class="outline shading" data-original-prefix="shading" opacity="0.5" style="opacity: 0.5"/><path id="outline-mouth3" fill="#000000" d="M889 1333c-13.5 7.3-27.4 9.4-38 21.5-7.1 8.2-19.1 26.1-18 37 .3 3.5 7.3 25.1 9.2 27.8 2.7 4 6.1 4.9 10.8 4.7-1.4-9 4.2-18.1 9.6-24.9 2.1-2.6 22-22.5 24.4-20.1-1.7 6.5-8.8 10.4-13 15.5-8.1 10-12.3 23.6-9.5 36.5 1.2 5.7 11 25.8 15 30 .7.7 7.1 6.3 7.5 6.5 3 1.5 6.9-6.1 7.8-8.2 1.7-3.8 2.1-7.7 3.7-11.3 4.4-10.2 9.4-18.4 18.5-25-5.1 13.9-9.5 44.6 1.5 56.1 4.8 5 9.9 2.7 14.3 4.7 2.8 1.3 3 5.7 4.8 6.1 2.6.6 7.2-4.9 14.1-2.1 5.2 2.1 8.6 15.6 13.9 16.1 2.5.2 10.2-12 18.4-9.4 5.6 1.8 19.1 24.8 24.4 23.5 6.1-5.4 3.7-12.4 5-19 1-4.8 6.1-10.3 7.8-15.2 3.7-10.9 1-26.5-1.9-37.5-.3-1.1-6.2-13.2-6.9-14.1-3.8-5.5-20.6-13-23-3.1-.4 1.8.2 7.9-2 7-4.8-4.4-9.5-9.2-14.5-13.5-3.8-3.3-11.2-7.6-14-11-3.5-4.3-14.5-27.1-14.7-32.2 0-3.1 8.4-13.8 10.8-16.8 1.4-1.7 10.5-12.5 11.2-12.8 6.4-3.2 28-2.3 34.7.8 8.4 3.8 12.4 12.1 18.5 17.5 5.2 4.5 2.5-1.7 2.5-3.6s.9-3.2.8-4.8c-.2-5.4-6.7-9.2-9.9-13.1-2-2.4-5.5-6.3-7-8.3-1.2-1.7-5.1-7.9-4.8-9.5.4-2.6 11.3-13.4 12.9-11.7-4.4 12.8-.7 8.7 7.3 12.2 1.2.5 3 2.7 3.2 2.7s2-2.2 3.2-2.7c3.4-1.5 9.7-.4 9.3-5.6 0-1.1-4.1-7.6-.5-6.6 2.8.8 12.1 10 11.3 13.2-6.2 9.4-13.5 17.8-21.1 26l-.8 12.7c1.7.4 2-.7 3-1.5 9.5-7.3 13.4-18 27.5-19.5 5.1-.6 23.6-.6 27.2 2.3 3.2 6.4 21.2 22.7 21 29 0 3.4-6.3 16.9-8.2 20.7-6.8 13.3-9.3 12.6-19.5 21.5-5.3 4.6-10.4 9.6-15.5 14.5-2.2.9-1.4-5.6-2.2-7.7-3.4-8.6-19-1.6-22.7 3.8-.6.9-6.2 11.4-6.6 12.4-1.3 3.6-.5 6.5-1.2 9.8-2.6 12.3-5.2 19.6.2 32.2 1.5 3.5 4.6 6.8 5.8 10.2 2.4 7.1-.8 16.6 6.6 21.1 8.3-2.8 16.9-21.3 23.6-23.5 7.7-2.4 15.9 9.6 18.4 9.4 5.6-.5 9.4-18.8 18.7-17.4 2.2.3 8.4 3.7 9.4 3.5 1.7-.4 2-4.9 4.8-6.2 3.9-1.8 8.9 0 13.3-3.7 11.5-9.9 8.1-43 2.5-56 1.6-1.6 11.3 10.4 12.4 12.1 4.9 7.6 6.1 15.6 9.7 23.3 1 2.1 4.8 9.8 7.8 8.2.4-.2 6.9-5.8 7.6-6.5 7.1-7.7 15.9-30.1 15.4-40.5-1-22.4-10.8-22.9-21.5-37.5-5.3-7.2 2.8-2.4 6 0 11.8 8.6 28 25.5 26.5 41 11.4 1.6 13.7-11.7 16.3-20.2 4.6-15.6 5.3-18.8-3.1-33.4-7.4-13-16.3-22.7-29.9-29.1-6-2.8-14.1-4.1-19.2-8.3 9.3.7 19.7 2.8 29.2 5.3 7.4 1.9 14.4 3.9 20.7 8.3 3.2 9.3 27.6 34.6 28 42 .2 3.9-8.4 23-10.2 28.7-2.4 7.4-1.3 15.8-9 20-2.1 1.1-8.8 2.4-9.5 3-3.6 3.6-1.9 26-2.2 32.3-1.2 29.7-2.2 52.7-20.5 77.5-.9 1.2-2.6 1.5-3.6 2.7-4.3 5.6-2.8 18.6-4.3 26.5-1.1 6-5 13.1-5.6 18.4-.4 3.6 1.4 7.3.2 10.1-1 2.4-9.9 8-12.6 9.5-2.2 1.2-5.7 1.5-6.5 2-.6.4-5.4 10.9-7.2 13.3-2.1 2.7-11.1 11.3-14 12.1-4.1 1.2-7.9-10.3-9.9-13s-2.3 2.3-3.6 4.3c-4.3 6.7-25.1 26.6-32.4 28.6-1.7.5-3.3.7-5 .5-.2-6.5 3.6-11.9-3-16.5-7.6-5.2-17.7 0-21.5 7.4-4.2 8.3-1.8 29.9-14.4 16.5-7.1-7.5-13-17.8-18.5-26.4-2.8 5-19.9 30.6-24 31-5.8.6-5.9-11.5-7.2-15.8-2.5-8.5-10.5-17.7-20-14.4-12.1 4.1-4.7 16.7-6.3 18.2-6 1.1-9.7-4.5-15-5-1.3 6.3-5.2 11.9-5.1 18.5.2 11.2 13.9 23.7 10.9 33.8-.8 2.7-3.4 3.2-5.5 1.4-3.7-3.3-7.9-17.8-10.4-23.1-3.8-8-11.3-14.9-9.4-23.7 1-4.7 7.9-13.9 7.6-17.4-.5-5.3-12.8-12.5-12-18.6-1.2-.2-1.3-.3-2.1.6-2.1 2.7-6.2 14.3-10.2 13.3s-12-10.2-13.7-12.4c-2.1-2.7-6.6-12.8-7.2-13.2-.7-.5-4.2-.8-6.5-2-2.5-1.3-12.6-7.8-13.2-9.9s1.2-6.2.8-9.7c-.6-5.1-4.5-11.5-5.6-17.4-1.7-8.4.3-19.9-3.9-26.1-5.9-8.8-10.5-12.8-15.3-23.7-13.6-31.3-7.5-52.3-10.1-83.9-.8-9.9-3.8-5.3-10.8-9.3-8.2-4.6-6.8-13.1-9.3-20.7-1.9-5.9-9.7-21.8-10-26.1-.2-3.3 1.1-4.7 2.5-7.3 6.8-12.4 18.9-24.3 26.1-36.9 5.9-4.3 13.2-6 20.1-7.9 9.7-2.6 19.8-4.7 29.2-5.3Zm15 128c-1.4-1.5-7.8 8.9-8.4 10.1-10.6 19.9-8.6 50.8-1.8 71.7 1.1 3.3 9.4 22.1 12.8 21.2 4.4-1.1 10.8-28.9 12.8-34.3 4.3-11.7 13.6-22.1 8.6-35.6-4.8-.6-12.2 1.2-15.9-2.9-1.4-1.5-8.5-21.7-8.8-24s.8-4 .8-6.2Zm240 103c.6-.4 6.8-10.5 7.5-12 6.2-12 8.8-32.9 9.5-46.5.8-15.3-4.1-32.2-14.6-43.5l-2.2 9.8c-4.9 13.6-4.6 25.2-23.1 22.4-5.2 13.7 4.3 23.9 8.6 35.6 3.1 8.4 6 27.5 11.8 33.2.7.7 1.4 1.8 2.4 1.1Zm-262.3-85.7c-1-.9-4.6-2-6.6-3.9-4.2-3.9-7.8-13.1-14-4.7-13.3 17.9-4.1 44.9 7 61.7 1.6 2.4 11.5 15.7 13.3 15.7.5-8 1.2-16.5.5-24.5-.4-5.4-3.1-12.3-3.1-18s6-23.3 2.8-26.2ZM1167 1547c1.7.4 2-.5 3-1.5 17.5-18 32.6-50.9 18.4-74.4-6.5-10.8-10.8-.4-16.9 4.9-2 1.7-5 1.6-5.5 4.5-.8 4.5 4 18.3 4 24s-3.3 14.8-3.6 21.2 1.6 14.6.6 21.3m-219.1-51.9c-4.7-3.3-6.5 7.1-7.7 9.6-5.3 11-11.8 23-12.2 35.8-.2 7.6 10.5 26.2 19.1 21 3-1.8 4.7-18 5-22 .4-6.4.2-41.4-4.1-44.4Zm67.8 32.2c-3.2-2.8-9.7 3.2-15.8 1.3-2.1-.7-8.7-7.5-10.5-9.5-2.6-2.9-3.4-8.8-8.2-7.4-12.2 3.5-20.5 24.1-21.2 35.9-.9 13.6 2.4 21.7 11.5 31.5 9.8 10.4 24 15.7 36.1 23h2.3c2.1-6.4 6.2-12 8.1-18.4 3.7-12.2 7.9-47.3-2.3-56.2zm23.4 74.6c1.1.7 3.4 0 4.6-.7 5.6-2.4 20.1-11.1 25.2-14.8 13.4-9.8 21.4-21.7 20.1-38.9-.9-11.9-9.2-33-22-36.1-4.4-1.1-5.5 5-8 8-1.7 1.9-7.3 7.9-9.2 8.8-9.2 4-14.3-9-20 5-5.4 13.2-2.6 37.5 1.5 51.1.7 2.2 7.1 17.1 7.9 17.6ZM885 1559c-3.2-3.3-6.4 8.4-5.8 12.3.7 4.5 5.4 23.4 7 27 1 2.2 6.2 8.5 8.7 6.7 3.4-2.4 3.2-20.7 4-25.4-.5-3.1-8.3-6.1-11-10-2.3-3.5-2.6-10.1-3-10.5Zm32 4c-1.9-2.2-11.8 12.5-12.4 14.1-1.7 4.6-3 25.2-2.4 30.3.9 7.9 5.6 18 11.4 23.6 1.4-8.8 5-18.6 5.5-27.5.8-13.1-3.7-27.1-2-40.5Zm218 68c7.1-5.4 12.1-18.8 11.8-27.5 0-2.6-1.7-5.2-1.8-8-.3-5.4.8-12.5-.5-17.5-.6-2.3-10.4-17.3-12.5-15 1.5 13.8-3.1 28-2 41.5.7 8.7 4.6 17.6 5.1 26.5Zm-35-62c-2.8 14.2-8.1 27.9-9 42.5-.3 5.3-1.4 33.3 3.6 34.4 2.4.6 18.8-13.3 20.9-15.9 8.3-10.5 3.8-32.3-1-44-1.2-2.9-11-19.9-14.5-17m-82 44c-3.5 0-6.1 2.5-9.6 2.9-12.7 1.6-29.1-13.9-41.4-16.9v24.5c0 .6 3.2 8.2 4.1 8.9 6.5 5.2 18.9-.4 24.4 5.6 2.6 2.9 4.3 10.3 10.6 5.5 1.1-.8 11.9-13.1 11.9-14.1v-16.5Zm64-13c-13.2 1.2-27.8 17.6-41.4 15.9-3.5-.4-6.1-3-9.6-2.9v17.5c0 1.1 13 14.6 15.4 14.5 4.9-.3 5.1-4.7 7.1-7 5.5-6 18.3-.4 24.4-5.6 1-.9 4-9.7 4-11v-21.5Z" class="outline" data-original-prefix="outline"/><path id="outline-mouth2" fill="#000000" d="M1122 1332c-.2 0 .2 1.6 0 1.9-1 .8-8.1-5.8-10.2-7.1-10-6.1-19.8-8.3-31.2-9.8-2.9-.4-6.9.7-9.5-.5-1.5-.8-4.5-7.4-6.5-9.5-7.8-8.7-15.6-10.2-25.8-13-1.1-.3-.6-1.9-.7-2 3.1-3.8 16.2-9.3 20.8-9.8 7.9-.9 5.5 4.4 6.5 9.1 2.3 10.7 9.3 19.6 21.3 18.8 5.1-.3 5.6-4 7.9-4.1 1.4 0 6.6 2.9 8.2 3.8 9.4 5.2 15 12.5 19.3 22.2z" class="outline" data-original-prefix="outline"/><path id="outline-mouth1" fill="#000000" d="M1011 1292s.4 1.7-.7 2c-10.2 2.8-17.4 4.1-25.4 12.5-2 2.1-5.6 9.2-7.2 9.9-3.4 1.4-13.5 1-18.1 1.8-12.5 2.1-23.6 8.7-33.1 16.9.2-.9-.5-2.8-.5-3 .7-2.3 8.9-13.5 11-15.5 2.4-2.4 14.7-10.5 17.6-10.4s3 5.1 11.9 3.9c10-1.3 16.2-10.1 17.5-19.6.4-2.6-2.4-6.7 2.8-8.2 3.5-1 21.7 5.6 24.3 9.8Z" class="outline" data-original-prefix="outline"/>
    </g><g class="trait-group" data-category="eyes" id="eyes-OG-bandaid-glare">
      <path id="fill-skull" fill="#ffffff" d="M696 1136c-.3-2.4 0-2.8-2-4.5-3.8-3.1-19.7-8.2-21.1-10-.9-1.1 0-9.9.2-12 1.5-9.1 10.6-28 15-37 7.5-15.3 16.9-29.8 25.4-44.6 2.9-2.6 22.1-1.3 27-1 6 .4 15 1.2 20.9 2.1 3.1.5 18.9 5.6 19.6 4.9s-.2-2.5-1-3.4c-1.5-1.7-7.4-5.7-9.6-7.4-8.9-6.4-18.8-11.3-28.3-16.7-2.1-2.2 1.8-10 3.2-12.9 18.8-41 87.4-78.6 126.5-98.5 24-12.2 48.7-26 74.6-32.4 60.6-14.9 133.1-14.5 190.1 12.4 45.2 21.3 98.3 47.1 135.2 80.8 14.7 13.4 32 30.7 35.3 50.9-12.1 6.7-28 14-37.9 23.6-1.1 1.1-2.3 1.7-2 3.5 7.2-1.2 14.2-3.9 21.5-5 9-1.4 25.1-3.1 34-3.1s10.1.7 11.8 1.1c2.6.6 24.2 41 26.9 46.3 5.6 11.3 17.1 35.2 14.8 47.2-.6 3.1-5.1 3.1-7.7 4.3-3.1 1.4-11.1 4.9-13.3 6.7-1.7 1.4-1.8 3.3-2 3.5-3.4 2.5-8.7 4.1-12 7l-19.9 2.9c-6.4-28.3-15.3-59.3-32.3-83.2-3.2-4.5-11.1-14.8-15.3-17.7-9.4-6.6-26.9-7.8-35.5-13.5-6.2-4.1-19.1-22.3-26-29-19.1-18.4-34.9-29.3-62.4-18.3-13.1 5.2-37.8 24.8-39.6 39.5-.7 6.1 3.7 18.8 5.7 25.2 5.1 16.5 12.8 32.3 18.3 48.6-.7 3.3-34.2 15.6-39.1 23.2-4.4 6.8-9.2 18.8-12.5 26.5-5.1 12-9.6 24.6-13.5 37 3.8-2.9 7-6.8 10-10.5 9.2-11.4 16.7-25.8 25.5-36.5 6.3-7.6 25.6-22.8 34.1-28.9s10.2-5 16.9 3c15.1 18.1 36.9 56.7 46.4 78.6 1.3 3 4.9 10 4 12.7-13.4 9.6-26 22.4-39.6 31.5-14.1 9.4-30 14.5-46.9 16.1-21.3 2-41.9-10.2-62.4-13.9 11.3 10.2 27.4 18.1 20.9 36.4-.5 1.5-.8 3.1-2.9 2.6-2.9-4.8-22.3-15.4-24-19-3.5-7.5-4.8-8.6-9.2-15.3-6.5-9.9-11.7-21.7-10.3-33.7-6 2.7-8.5 1.9-14.5 0 2.4 9.8-3.1 22.9-8.2 31.3-3.3 5.6-9.6 10.4-10.8 16.7l-25 19c-.2-.3-2.3.8-2.9-3.6-2.5-19.3 7.7-22 20-32.8 1-.8 2.5 0 1.9-2.6-19.9 5.8-42.2 16.9-63.4 14.9-44-4.3-65.6-34.1-99.3-57.7-32.9-23-68.4-36.7-107.1-46.9-4.7-1.2-11.5-1.2-15.2-2.3-2.8-.8-7.3-5.8-11-6Zm284 47c1.8-2-16.4-44.5-18.8-49.7-3.2-6.7-6.3-13.3-11.2-18.8-19.9-10.8-40.9-20.3-60.6-31.4-14-7.9-26.5-19-42.3-23.2-1.4 1.4 6.9 7.5 8.1 8.4 26.9 20.6 64.8 41.2 87.9 66.1 11.7 12.6 20.2 32.4 33.8 46.2 1 1 1 2.8 3.2 2.3h-.1Zm13.5 50v1c.7-.3.7-.7 0-1" class="fill" data-original-prefix="fill"/><path id="fill-bandaid2" fill="#ffffff" d="M1227.3 1043.7c4.2 4.2 19 3.9 25.9 5.6 10.1 2.5 15 5.5 21.8 13.2 13.3 15.2 24.8 38.7 29.7 58.3 1.5 6.1 4.9 20 4.3 25.7-.7 7.3-7.5 10.7-13 14-15.9 9.4-48.1 24.5-65.5 30.5-3.6 1.3-10.7 4.9-13.4 1.4-14.5-27-27.9-54.6-44.9-80.1-2.5-3.7-12.1-14.8-12.3-17.8 0-1.3.5-3.2 1.4-4.2l52.2-34.3 1.5-4c-2.1-2.1-31.4 12.5-35.7 14.8-8.1 4.4-21.1 14.6-28.6 17.4-5.7 2.1-7.7-4.4-10.5-8.9-6.3-10.2-16.9-34-16.2-45.8s17.8-26.6 27.4-31.7c29.9-16 43.9 5.7 61.6 26.7 4.5 5.3 10 14.8 14.4 19.1h-.1Zm-53.6-35.5c-4 1.2-3.8 8.2.8 8.9 7.9 1.1 7.1-11.2-.8-8.9m-34.5 19c-3.9 3.9 1.1 12.3 7.3 7.8s-2.8-12.4-7.3-7.8m32.5 4c-3.9 1.2-3.9 8 .8 8.8 9.5 1.6 6.8-11.1-.8-8.8m31.1 13.6c3.8-3.8-2.4-11.5-7.3-7.8-6.2 4.6 2.4 12.7 7.3 7.8m-39.6 19c3.1 3.1 9.2 1.4 8.8-4.2-.6-9.8-14.9-1.8-8.8 4.2m61.1 110.9c6.8 5.5 33.6-5 41.4-8.5 8.6-3.9 29.9-14.7 31.9-24.1 3.1-14.6-13-47.2-21.3-59.8-4.1-6.2-13.8-21-21.6-20.2-13.5 1.4-59 26.9-67.1 37.9-3.3 4.4-3.2 6-1 11.1 4.5 10.4 14.6 26 20.7 36.2 3.1 5.1 13.8 24.8 17.1 27.4Z" class="fill" data-original-prefix="fill"/><path id="fill-bandaid1" fill="#ffffff" d="M1252.8 1072.2c1.2 0 2.2-.4 3.5 0 3.3.9 18.5 24.7 20.9 29.2 4.2 7.8 13.2 27.6 11.8 36.1-1.5 9.1-26.3 20.4-34.4 23.6-4.2 1.7-21.7 7.9-24.8 6.8-1.9-.6-14.8-22.6-16.8-26.2-2.7-4.7-18.1-33.2-17.7-35.9.2-1.3 1.4-2.8 2.3-3.8 7.2-8.1 44.8-28.6 55.3-29.7h-.1Z" class="fill" data-original-prefix="fill"/><path id="shading-eyes" fill="#aaaaaa" d="m929 867-29.9 17.6c-30.3 20-71.8 72.2-84.9 106.1-7.7 19.8 15.6 44.8 28.9 57.8 38.7 19.6 77.6 39.1 113.5 63.5 14.3 19.1 24.9 49.3 40 66.9 6.5 7.6 13.5 4.7 18 8 1.1.8 4.3 7.4 5 9 1.1 3-.8 7.2 4.1 7.8 4.3.5 3.4-4.4 4.9-7.7.8-1.9 3.6-8.2 4.9-9.1 2.2-1.6 10.3-2.3 13.8-4.2 10.7-5.8 33.6-58 43.2-69.8 15-11.9 32.4-20.3 48.5-30.5-7.7-10.2-13.6-22.5-17.2-34.7-.9-2.9-3.4-11.1-3.5-13.5 0-3.7 9.2-13.4 11.2-17.3 3.1 20.7 8.2 42.3 22 58.8l54-27.8c15.3-16.7 36.6-36 26.7-60.7-12.6-31.4-53-81.9-80.9-101.1l-32.3-19.2h22.5c4.4 0 41.6 19.2 48.2 22.8 47 25.9 92 62.9 123.7 106.3 2.8 3.8 12.4 14.4 8.3 18.7-3.2 3.3-25.6 8.5-31.7 10.8-36.2 13.6-77.5 29.7-110.7 49.3-2.6 1.5-18.5 11.3-19.1 12.4-3.5 6.1 7.2 13.2 10.8 17.3 10.8 12.8 19.2 28.1 27.2 42.8 1.4 2.5 7.2 16 7.9 16.6.8.6 5.6-.6 5.8-.9.4-.6-.2-2.2-.4-3-1.6-6.5-10.4-24.4-13.7-31.3-.9-1.9-8.6-14-7.8-14.6l8.8.2c7.3 13.8 15.4 28 26.8 38.8 29.8-25.1 64.3-43.3 97.9-62.9l32.4.5c4 2.4 10.3 24.6 15.6 29.4 1 1 5.9 2.1 4.4 4-.3.4-7.4 2.6-9 3.5-8.2 4.3-25.9 12.5-32.3 17.7-2.7 2.2-.5 5-3.2 6.8L1093.3 1287c-14.5-10.8-30.2-21-43.8-32.8-7.8-6.8-14.2-15.6-22.1-21.9-2.7 1.3-6.1-.6-8.4.4-1.5.7-16 17.3-19.6 20.5-8.4 7.5-27.4 23-36.6 28.4-2.1 1.2-4.3 3.2-6.9 2.2l-240-133.1c-1.4-1.6-.5-3.7-2.6-5.4-6.6-5.3-25.2-13.8-33.7-18.3-1.4-.7-7.4-2.5-7.7-2.8-1.4-1.9 3.7-3.1 4.9-4.6 3.6-4.4 11.6-27.2 15.1-28.9h33c21.4 12.9 44.7 24.7 65.5 38.5 18.6 12.3 35.7 27.9 54.2 40.8 28.2 19.8 67.5 44.8 99 58 17.4 7.3 25.6 4.6 43.5.8 6.2-1.3 19.7-6.3 24.5-6.4 2.5 0 7.8 3.9 12.8 3.8 4.6 0 9.2-3.9 11-4 2.1 0 11.4 3.5 14.7 4.3 10 2.3 27.5 6.9 37.3 6.7 11.2-.2 38.4-15.9 49.2-21.9 20.6-11.3 40.6-23.9 59.9-37.2l-49.9-76.9c-9.6 7.8-19.8 14.8-29.1 22.9-16.3 14.2-29.5 34.3-41.8 52.2-4.9 7.2-6.3 13.4-13.3 19.7-2.1 1.9-22 16.2-23.4 16.6-1.9.6-28.2.6-30.1 0-1.3-.4-19.7-13.4-21.9-15.1-8.5-7-9.6-13.4-15.3-21.7-18.6-27.2-30.8-43.5-56.9-64.1-49.5-39-98.9-60.6-157.6-82.4-5.5-2-29-7.4-31.3-10.6-1.7-2.4-1-4.6.2-7 4.8-9.4 21.7-29.2 29.3-37.7 33.5-37 80.1-70.5 125.2-91.8 3.3-1.6 24.3-11.1 25.9-11.1H929Z" class="outline shading" data-original-prefix="shading" opacity="0.5" style="opacity: 0.5"/><path id="outline-eyes12" fill="#000000" d="M1075 1274c2.1.5 2.3-1.1 2.9-2.6 6.6-18.3-9.6-26.2-20.9-36.4 20.4 3.6 41.1 15.9 62.4 13.9 16.9-1.6 32.9-6.7 46.9-16.1 13.6-9.1 26.2-21.9 39.6-31.5.9-2.7-2.7-9.7-4-12.7-9.5-21.9-31.3-60.5-46.4-78.6-6.7-8-8.7-9-16.9-3s-27.8 21.3-34.1 28.9c-8.8 10.7-16.3 25.1-25.5 36.5-3 3.7-6.1 7.6-10 10.5 3.9-12.4 8.4-25 13.5-37 3.3-7.7 8.1-19.8 12.5-26.5 4.9-7.6 38.4-19.9 39.1-23.2-5.5-16.2-13.2-32-18.3-48.6-2-6.4-6.4-19.1-5.7-25.2 1.8-14.7 26.5-34.2 39.6-39.5 27.5-11 43.2 0 62.4 18.3 6.9 6.7 19.9 24.9 26 29 8.6 5.7 26 7 35.5 13.5 4.2 2.9 12.1 13.2 15.3 17.7 16.9 23.9 25.9 54.9 32.3 83.2l19.9-2.9c2.8 5.2 2.2 12.1 3.3 18.2.8 4.3 4.4 14.4 4.5 17.5 0 1.8-10.3 15.7-8.8 17.3 2.2 2.4 7.6-14.3 12-10.5 0 2 .2 4 0 6-.9 8.1-7.9 29.6-10.7 38.3-3.2 9.6-6.2 16.4-12.8 24.2-3 3.5-24.9 26.6-27.1 27.9-11.1 6.1-35 7-48.8 11.2-4.6 1.4-8.8 4-13.6 4.9-.2 1.8 2.2.9 3.2.7 4.8-.8 8.7-3.8 13.5-4.5 3.7-.6 9.9-1.1 13.8-1.2 3.2-.2 8-.4 11 0 5.7.7-3.1 3.3-4.2 3.8-9.5 4.7-20.6 11.1-30.3 14.7-19.3 7-76.2 9.8-96.2 5.3-7.3-1.7-22.2-17.8-29.8-23.2-2.9-2-11.6-7.8-14.4-8.6-4.2-1.2 1.3 9.2.5 10-14.9 1.2-22.3-6.1-30.5-17.1-.7-1-.3-2.6-.5-2.9zm152.3-230.3c-4.4-4.3-9.9-13.8-14.4-19.1-17.8-21-31.7-42.7-61.6-26.7-9.6 5.1-26.8 20.2-27.4 31.7s9.9 35.6 16.2 45.8c2.8 4.5 4.8 11.1 10.5 8.9 7.6-2.8 20.5-13 28.6-17.4 4.2-2.3 33.6-16.9 35.7-14.8l-1.5 4-52.2 34.3c-.8 1-1.4 2.9-1.4 4.2.2 2.9 9.8 14.1 12.3 17.8 17 25.5 30.4 53.1 44.9 80.1 2.7 3.5 9.8 0 13.4-1.4 17.4-6 49.6-21.1 65.5-30.5 5.6-3.3 12.3-6.7 13-14 .6-5.7-2.8-19.7-4.3-25.7-5-19.6-16.4-43.1-29.7-58.3-6.8-7.7-11.7-10.7-21.8-13.2-6.9-1.7-21.6-1.5-25.9-5.6h.1Z" class="outline" data-original-prefix="outline"/><path id="outline-eyes11" fill="#000000" d="M696 1136c.4 3.7-.6 12.1-1.9 15.6-.4 1.2.6 1.6-1.5 1.4-7.9-1.7-16.8-6.9-24.1-8.9-12.6-3.4-24.6 3.3-23.5-15.6 1.7-29.3 21.8-78.4 37.6-103.4 4.3-6.9 19.5-29.6 26.4-31.7 3.1-.9 7.2 1.5 8.9.5.4-.3 3.7-6.5 5.2-8.3 54.7-66.9 129.4-124 216-141 63.4-12.5 145.8-10.7 207.5 9.5 61.9 20.2 144.3 82.1 181.3 135.7 1.3 1.9 2 5.1 2.2 5.3.4.4 7.2-2.1 9.3-1.8 1.3.2 8.1 5.5 9.2 6.8 24.3 25.9 52.8 92.5 55.3 127.7.4 5.4.4 11-4.6 14.2-15.5.2-29.3 6.3-43.8 11.2-1.1 0-3.2-16.1-2.5-18 .2 0 .3-2.1 2-3.5 2.2-1.8 10.2-5.3 13.3-6.7 2.6-1.2 7.1-1.2 7.7-4.3 2.3-12-9.3-35.8-14.8-47.2-2.6-5.4-24.3-45.8-26.9-46.3-1.8-.4-9.7-1.1-11.8-1.1-8.9 0-25 1.7-34 3.1-7.3 1.1-14.3 3.8-21.5 5-.4-1.8.9-2.5 2-3.5 9.9-9.6 25.8-16.9 37.9-23.6-3.3-20.2-20.7-37.5-35.3-50.9-36.9-33.7-90-59.5-135.2-80.8-57-26.9-129.6-27.3-190.1-12.4-25.9 6.4-50.6 20.2-74.6 32.4-39.1 19.9-107.7 57.5-126.5 98.5-1.3 2.9-5.3 10.6-3.2 12.9 9.5 5.4 19.4 10.3 28.3 16.7 2.3 1.6 8.2 5.6 9.6 7.4.8.9 1.8 2.7 1 3.4s-16.5-4.4-19.6-4.9c-5.9-.9-14.8-1.7-20.9-2.1-4.9-.3-24.1-1.6-27 1-8.5 14.8-17.8 29.3-25.4 44.6-4.4 9-13.5 27.8-15 37-.3 2.1-1.1 10.9-.2 12 1.4 1.7 17.2 6.9 21.1 10 2.1 1.7 1.8 2.1 2 4.5v-.4z" class="outline" data-original-prefix="outline"/><path id="outline-eyes10" fill="#000000" d="M707 1142c3.7 1.1 10.5 1.1 15.2 2.3 38.7 10.2 74.2 23.9 107.1 46.9 33.7 23.6 55.2 53.4 99.3 57.7 21.2 2.1 43.4-9.1 63.4-14.9.7 2.6-.9 1.8-1.9 2.6-12.3 10.8-22.5 13.5-20 32.8.6 4.4 2.7 3.3 2.9 3.6.4.5.9 3.1.5 4-.5 1.1-13.2 13.7-14.6 14.5-1.8 1-15.2 3.3-15.9 2.6-.2-2.8 1.7-4.6 2-7.5.2-1.5.6-2.8-1.4-2.4-4.5.9-14.5 8.5-18.5 11.5-5.8 4.3-16 15.7-20.7 18.3-10.6 5.9-66.5 3-80.8 1-20-2.8-35.2-11.2-52.9-20.1-.8-.4-7.6-2.1-2.2-2.8 2.3-.3 5.6 0 8 0 4.6.2 11.4.6 15.8 1.2 4.8.7 9.5 3.7 14.5 4.5 1.1.2 3.5 1.1 3.2-.7-20-9.2-42.5-9.1-62.9-16.6-9.1-11.9-23-21.4-31.3-33.7-5.7-8.5-17.6-45.9-18.8-56.2-.2-2 0-4 0-6 .7-5.3 9.8 9.8 10.4 10.6.4.5 1.1 3.7 2.6 1.9 1.7-2-9.5-16.9-9.8-18.7-.2-1 3.9-15 4.4-18.2 1.1-6.1 1.3-12.2 2.3-18.2z" class="outline" data-original-prefix="outline"/><path id="outline-eyes9" fill="#000000" d="M998 1254c1.2-6.3 7.5-11.1 10.8-16.7 5.1-8.5 10.6-21.5 8.2-31.3 6 1.8 8.5 2.6 14.5 0-1.4 12 3.8 23.9 10.3 33.7 4.4 6.7 5.8 7.8 9.2 15.3-3.3 0-4 4.3-7 4-.9-5.7-7.9-7.8-12-12.5-1.2-1.4-2.9-3.6-3.9-5.1-.9-1.3-.8-4.1-1.7-4.4-5.5-1.6-6 5.6-9.4 9.5-3.8 4.4-11.3 6.9-12 12.5-1.4 1.3-5.2-4.4-7-5" class="outline" data-original-prefix="outline"/><path id="outline-eyes8" fill="#000000" d="M980 1183c-2.2.5-2.2-1.3-3.2-2.3-13.6-13.8-22.1-33.7-33.8-46.2-23.1-24.8-61-45.4-87.9-66.1-1.2-.9-9.5-7-8.1-8.4 15.8 4.1 28.3 15.3 42.3 23.2 19.7 11.1 40.7 20.6 60.6 31.4 4.9 5.5 8.1 12.1 11.2 18.8 2.5 5.2 20.6 47.7 18.8 49.7h.1Z" class="outline" data-original-prefix="outline"/><path id="outline-eyes7" fill="#000000" d="M993.5 1233c.7.3.7.7 0 1z" class="outline" data-original-prefix="outline"/><path id="outline-eyes6" fill="#000000" d="M1224.3 1174.7c-3.3-2.6-14-22.3-17.1-27.4-6.1-10.3-16.2-25.9-20.7-36.2-2.2-5-2.3-6.6 1-11.1 8.2-11 53.7-36.6 67.1-37.9 7.8-.8 17.5 14 21.6 20.2 8.3 12.6 24.4 45.2 21.3 59.8-2 9.4-23.2 20.2-31.9 24.1-7.8 3.5-34.6 14-41.4 8.5Zm28.5-102.5c-10.6 1.2-48.1 21.7-55.3 29.7-.9 1-2.1 2.5-2.3 3.8-.4 2.8 15 31.2 17.7 35.9 2.1 3.6 15 25.5 16.8 26.2 3.2 1.1 20.6-5.2 24.8-6.8 8.2-3.2 32.9-14.5 34.4-23.6 1.4-8.5-7.6-28.3-11.8-36.1-2.4-4.5-17.6-28.2-20.9-29.2-1.3-.4-2.2 0-3.5 0h.1Z" class="outline" data-original-prefix="outline"/><path id="outline-eyes5" fill="#000000" d="M1139.2 1027.2c4.5-4.5 13.7 3.2 7.3 7.8s-11.2-3.9-7.3-7.8" class="outline" data-original-prefix="outline"/><path id="outline-eyes4" fill="#000000" d="M1202.8 1044.8c-4.9 4.9-13.5-3.2-7.3-7.8 4.9-3.6 11.2 4.1 7.3 7.8" class="outline" data-original-prefix="outline"/><path id="outline-eyes3" fill="#000000" d="M1163.2 1063.8c-6.1-6.1 8.3-14.1 8.8-4.2.3 5.7-5.8 7.3-8.8 4.2" class="outline" data-original-prefix="outline"/><path id="outline-eyes2" fill="#000000" d="M1171.7 1031.2c7.6-2.3 10.4 10.4.8 8.8-4.7-.8-4.8-7.7-.8-8.8" class="outline" data-original-prefix="outline"/><path id="outline-eyes1" fill="#000000" d="M1173.7 1008.2c7.9-2.3 8.8 10 .8 8.9-4.6-.7-4.9-7.7-.8-8.9" class="outline" data-original-prefix="outline"/><path id="fill-pupil-rt" fill="#ffffff" d="M1163.8 1250.1c.2 0 .8 2.1 1.6 2.9 8.5 8.8 16.3 15.8 29.2 11.2 9.7-3.5 18.3-14 18.2-24.6 0-3.7-4.3-17.1-3.4-18.6.5-.8 5.9-4.1 6.9-3.9 1.7.3 5.4 7 6.1 8.9 10.5 25.7-9.3 56.5-37.7 53.7-13.3-1.3-29.2-10-33.7-23 .5-2.1 11.2-7.5 12.8-6.6" class="fill" data-original-prefix="fill"/><path id="fill-pupil-lft" fill="#ffffff" d="M884.2 1250.1c1.6-.9 12.2 4.5 12.8 6.6-4.5 13-20.4 21.7-33.7 23-28.4 2.8-48.2-28-37.7-53.7.7-1.8 4.5-8.7 6.1-8.9.4 0 6.7 3.5 6.9 3.9.9 1.4-3.4 15-3.5 18.6 0 10.6 8.5 21.1 18.2 24.6 13 4.6 20.8-2.4 29.2-11.2.8-.8 1.4-2.7 1.6-2.9z" class="fill" data-original-prefix="fill"/>
    </g><g class="trait-group" data-category="right ear" id="right ear-lop-eared">
      <path id="fill-ear-rt" fill="#ffffff" d="M1463.9 815.1c-1.1-.7-8-.2-9.6.6-.7.3-10 9.7-11.1 10.9-6.2 7.2-20.7 26.1-25 34-4.6 8.5-7.7 20-12 29-17.8 36.8-49.6 57.6-83.3 78.7-7.6 4.8-29.5 17.5-37.9 16.2-7-1.1-34.8-11.7-42-15.1-21.9-10.4-41.9-30.6-57.5-48.5-3.2-3.6-15.1-14.9-15.5-18.6-.3-3.2 3.6-17.9 4.7-22.2 8.4-34.6 26.4-65.8 37.6-99.4 7.8-23.5 15.9-52.5 21.2-76.8 12.6-56.9 6.2-116.2 18.8-173.2 6.5-29.5 44.6-53.4 68.8-69.2 18.9-12.3 68.6-41.2 89.5-43.5 15.6-1.7 55.8 8.9 72.8 13 32.2 7.7 82.2 19.7 108.9 38.1 28.8 19.8 56.1 41.5 79.2 67.8 28.8 32.7 32.2 44.2 17.2 86.3-24.8 69.4-61.7 123.7-101.8 184.2-17.7 26.7-44.5 75.8-67.1 95.9-5.7 5-12.1 7.7-19.2 3.5-6.7-4-7.2-14.3-9.9-21.1-5.9-15.2-13.1-29.9-18.8-45.2-1.4-3.7-7-24.7-8.1-25.4Z" class="fill" data-original-prefix="fill"/><path id="shading-ear-rt" fill="#aaaaaa" d="M1693 608c1 1-4.3 15.7-5.2 18.2-24.8 67.4-59.8 119.2-98.8 178.2-21.9 33.2-41.9 67.9-68 98.1-1 .6-21.9-3.9-22.8-4.8-6.2-16-12.7-32-18.2-48.3-2.8-8.2-5.2-22.3-8.8-29.2-6.7-12.9-25.5-1.8-31.6 6.8L1375 927.4c-15.2 15.6-73.2 61.5-94 58.1-27.4-10.3-54.4-22.9-76-43.1-7.2-6.8-11-13.5-16.6-21.4-1.2-1.8-4.3-3.7-4.9-5.1-2-4.3 2-12.6 4.7-16.3 58.6-63.6 106.8-135.2 139.3-215.7 2.7-6.6 6.2-14.1 8.2-20.8 12.4-39.6 1.6-77.7 5.3-117.7.1-1.6 1-7.4 1.9-8.1 36-.7 71.8-5 107.1 5.1 4.8 4.7-.7 11.5 1.5 16.5.9 1.9 19.3 19.7 22.5 22.5 22.5 20.7 50.8 41.6 76.3 58.7 18.7 12.6 25.8 21.5 49.7 12.2 27.4-10.6 54.6-28.2 81.7-40.3 1.6-.7 10.7-4.9 11.3-4.1Zm-243.1 187.9c.7-1.2-.2-3.3-.7-4.6-1.1-3.3-15.2-30.7-16.9-31.2-14.9 4.2-27.9.2-41.7 8.1-20.9 12-39.7 56.6-52.5 78.5-13.9 23.7-28.5 47-45.2 68.8-10.3 13.5-11.2 12-16.5 29.5-2.2 7.2-4 14.6-5.5 22 .7.7 7-4.7 8-5.5 19.1-15.9 39.4-37.3 56.5-55.5 15.3-16.3 30.8-30.3 38.5-51.5 3.8-10.5 6.9-31.8 15-38 7.4-5.8 26.8-8.1 36.8-11.2 3.2-1 23.3-8.1 24.1-9.4Z" class="outline shading" data-original-prefix="shading" opacity="0.5" style="opacity: 0.5"/><path id="outline-ear-rt" fill="#000000" d="M1204 941c-.3 1.7-3.1-.2-3.9-.6-7.2-3.8-17.7-9-23.1-14.9-11.1-12.2-18.6-30.8-29.5-43.5-1.1-2.6-.7-7.5-.5-10.5.9-20.2 13.6-36 21.8-54.2 9.5-20.7 16.6-37.4 27.3-57.7 35.2-66.4 43.6-127.5 46.8-202.2.5-10.7-2-36.2 1.5-44.5 1.4-3.3 13-13.4 16.5-16.5 21.7-19 49.4-37.3 73.5-53.5 14-9.4 50.3-35.6 64.1-39.9 42.4-13.3 127.4 18.5 168.4 35.5 32.1 13.3 72.4 28.4 93.2 56.8 15.6 21.2 47 74.4 50.6 99.5 1 7.4-8.7 31.3-11.8 39.8-35.5 98.7-94.4 215.4-170.5 288.5-7.1 6.9-19.8 19.2-27.6 24.4-1.1.8-9.4 5.2-9.9 4.6-1.7-24.9-6.5-50.8-13.7-74.8-1.4-4.7-3.2-9.4-5.1-13.9-1.9-4.4-15.5-30-19.5-29.2-6.2 1.1-28.3 40-31.8 47.2-5 10.4-7.9 21.5-12.3 31.7-5.6 12.7-20.1 19.7-30.5 28.5-11.3 9.6-20.6 22.3-32.7 30.3-10.6 7-40.6 20.7-52.8 20.2-11.7-.4-41.3-16.4-51.5-23 8.6.3 16.8 5 25.6 5.9 37.8 3.8 59.7-18.4 86.4-41.4 21.6-18.5 29.3-31.5 42.5-56.5 8.9-16.8 16.4-34.2 23-52l26.6-18.7-60.6-103.4c-1.9 2-1.5 4.5-3 7-3.9 6.4-17.6 18.5-23.4 25.6-34.1 41.1-71.2 101.1-93.2 149.8-10 22.1-22.8 52.5-10.8 75.7-1.4.3-2.4-.2-3.7-.8-4.5-1.9-23.8-17.8-25.1-21.9-1.9-6.1 3.5-21.4 1.9-28.7 12.2-19.5 26.9-37.6 38.1-57.9 24.5-44.3 42-94.9 71.4-136.6 6-8.5 14.6-15.7 20.8-24.2 4.8-6.4 10.9-14.3 10.6-22.4-.7-14.4-5.8-30.2-6.9-44.1-.2-2.2-.4-4.6 0-6.8.7-4 11.7-17.3 14.8-22.2 8.2-13.4 22.4-40.6 6.2-52.8-12.2-9.3-28.9 1.5-42 2.5-1-12.5 18.7-18.5 28.5-22 25.7-9.4 40-10.3 66.3-2.2 5.3 1.6 28 8.1 26.1 15.6-.4 1.7-9.4 6.6-11.8 8.3-20.8 15.2-37.8 32.8-50.6 55.4-3.8 6.6-13.3 26.5-13.1 33.4.2 5.3 6.5 22.2 8.6 28.2 8.4 23.3 20.3 47.1 34.8 67.2 5.7 7.9 14.6 16.1 19.4 23.6 6.2 9.6 11.6 26.1 16.9 37 15.2 31.3 30.8 62.3 43 95 1.7 1.2 2.3 6.8 4.3 6.6 9-.9 29.9-27.5 35.9-35.1 49.7-62.8 110.8-167 129.1-244.9 2.2-9.3 5.9-23.2 2-32-5.7-13.1-34.2-49.7-44.6-61.4-47.2-53.1-148.3-76.6-216.4-84.6-41 14.3-80 35-114 62.1-6.3 5-26.1 21-29 27-14.1 28.2-19.5 95.6-22.5 128.5-2.4 27.1-.3 58.6-10.8 83.2-7.8 18.2-18.3 36.1-26.3 54.7-14.2 32.7-25.5 66.6-39.8 99.2-2 14 18.3 43.4 27.9 53.4Z" class="outline" data-original-prefix="outline"/>
    </g><g class="trait-group" data-category="left ear" id="left ear-stitches">
      <path id="fill-ear-lft" fill="#ffffff" d="M326.7 182.1q1.65-.45 3.3.3l180.7 78.4c55.2 39.7 111.9 77.8 165.3 119.7l109 135.9c10.5 65.4 16 132 25.2 197.8 24.6 50.1 52.6 98.7 77.3 148.7 1.5 3.1 5.4 9.5 5.5 12.5.2 4.7-8.5 15.9-11.2 20.8-15.1 27.1-18.8 33.2-43.9 52.1-22.9 17.2-44.3 28.5-72.5 35.5-8 2-18.1 5.7-25.3.5l-82.9-79.1c-9.9-22-17.5-45.3-28.1-66.9l-154-109c-23.7-34.4-41.7-73.1-64.9-108.1-9.8-43.7-27.6-90.2-34.9-134.1-5.9-35.7-6.9-73.6-12.5-109.5-9.3-20.9-22.7-40-30.5-61.5-1-40.6-6.8-81.2-8.3-121.7-.1-3.4-1.1-11.4 2.8-12.4Z" class="fill" data-original-prefix="fill"/><path id="shading-ear-lft" fill="#aaaaaa" d="M555 465c11.2-3.5 14.9 1.4 16 12 2.1 1.8 16.5-9.5 20-10l-10.9-17.4c.3-1 1.1-1.5 1.9-2.1 1.4-1.1 16.7-10.1 17.7-10.4 7.1-1.5 9.3 8.8 11.3 13.8 1.7 1.1 8.9-4.9 9-6.4.1-3.9-9.1-10.3-6.9-16.9 3.4-1.8 14.2-13.5 16.4-13.7 5.2-.5 9.4 12.1 13 12.1.6 0 10.1-6.6 10.4-7.1 2.5-3.6-12.6-10.2-12-16.4.3-2.7 13.2-13.6 14.7-17.6 9.8.2 13 9.4 17.9 16 2.9.7 12-11.5 19.7-7.7 5.8 2.9 4.3 9.1 4.8 9.7.2.2 2.8 0 4.5 1 2.5 1.4 5.3 6.7 5.5 9.6.7 9.6-11.2 13.9-10.9 16.8.3 3.6 12.4 11 9.4 15.7-.7 1.2-6.7 4.1-8.5 5.6-7.4 6.1-8.6 13.6-17.1 2.9-2.4-3-3-8.9-7-7-.5.2-7.6 5.7-8 6-2.9 3.5-1.9 6.5-.2 10.1 1.3 2.9 7.5 8.7 5.2 10.8-4 .8-18 10.8-20.4 10.6-3.8-.3-8.8-11.5-11.9-11-1.2.2-6.5 5.8-8.7 6.5-.6 3.6 9.5 10 8.1 15.7-4.1 1.4-20.1 16.7-23 14.6-.8-.5-3-9.5-7.1-11.4-4.6-2.1-12.3 7.2-16.9 8.6-1.3 1.9 7.2 8.7 5.5 12.9-10.2 6.3-23.7 23.3-30.5 4-3.5 2.2-7.2 2.5-7 7.4.4 11.8 9.9 54.8 15 65.1.9 1.8 10.2 12.8 11.6 13.4 8.9-15.4 16-32 26.5-46.5l54-6.5c0 9.4-.3 19 1.1 28.4 3.4 21.8 18.3 36.8 29.3 54.7 16.2 26.3 28.1 50.9 41.7 78.3 8.6 17.2 17.3 34.4 26.8 51.2 5.6 3 9.3-3.8 14.3-2.3 3.7 1.1 5.7 9.7 7.2 9.8 11.3-5.3-4-10.3-2.3-18.2.8-4.2 14-14.8 18.3-14.8s7.1 6.5 10 9.1c1.7 0 7.1-10.9 8.3-12.7.5-.8.7-2.8 2.2-1.3.7.6 6.2 13.5 7.5 16 2.1 3.9 8.9 12.6 8.5 16.4-.4 4.7-6.8 10.2-7.6 13.6-.6 2.6 1.2 8 .3 12.3-1.1 5.1-7.6 14.1-13.4 14.4-5.1.2-10.1-8.1-12.9-2.7-1.4 2.8 1.9 4.8 2.9 7.1 3.8 8.6-3.7 12.3-3.3 14.3.2 1.4 15.6 20.2 18 23.1 11.4 14.1 28.9 30.4 38.4 44.6 4.5 6.8 4.6 12.1 7.6 19.4l-8 11.9c-29.4 24.7-56.9 43.6-94.7 53.3-15.7 4-23.6 7.7-27.2-12.2-11.3-7.1-23.8-14.3-34-23-9.1-7.7-27.1-24.6-34.5-33.5-3.9-4.7-10.2-16.9-14-20-3.5-2.8-12.8-2.7-9.5-11.5-1-.7-3 1.2-3.9.5-.5-.3-4.4-9.3-4.6-10-.8-3 .8-4.7.4-7.2l-17.1-43.5c-30.8-21.7-67.7-36-97.2-59.3-22.1-17.6-40.3-39.2-57.5-61.5 2.9 1.1 6 3.6 8.5 5.5 33.3 26.6 65 55.6 102.5 76.5 25.3 14.1 50.5 23.2 79 29 2.7 1.1 4.3 11.6 5.1 12.3.7.5 4-.3 5.9.6 1.5.7 2.2 4.1 3.6 4.4 1.1.3 4.4-1.9 5-3 1.1-2.2-1.4-5-.4-6.8.3-.5 8.3-6.3 9.7-7.8 1-1 4-4.6 4-5.7 0-1.2-8.9-16.3-10.4-18.6-11.6-18-24.4-21.2-43.9-28.1-20.8-7.4-48.7-11.2-67.2-18.8-10.8-4.5-44.7-26.1-52.8-34.2-6.9-7-18.2-26-23.9-35.1-11.2-17.8-21.4-36.5-30.4-55.6-2.1-4.3-12.6-31-14.1-31.9-3.6-2.3-13.8 12-21.1 6.2-2.9-2.3-2.9-7.8-7.2-6.6-2.3.6-11.1 17.2-15.8 11.3-1.2-1.5-9.4-20.6-9.7-22.8-1.6-9.4 12.8-15.7 11.7-19.8-.4-1.6-4.3-4.3-4.6-7.3-.5-5.7 9.5-9.7 13.3-13.3 2-2 5.2-7.7 5.6-7.9 3.1-1.8 7.2 4.9 9.2 4.7 1.3-.1 12.6-8.9 13.2-9.9 2.8-4.5-8.1-12.4-3.6-17.5.8-.9 7.4-3.6 9.3-4.7 1.7-.9 5.6-4.5 6.4-4.6 3.8-.8 7.5 7.4 9 7.8 1.2.4 8.3-3.9 8.9-4.9 1.3-2-2.6-4-3.6-6.5-3.3-8.1 2.4-9 4.5-13.6 2.3-5-5.4-33.6-7.5-40.5-10.2-34.4-29.6-73.9-49-104-17.3-27-36.6-39.4-45.3-72.7-.5-1.9-.9-3.8-.7-5.8 2.1-.3 3.6.3 5.4 1.1 6.9 2.9 19.6 11.2 26.5 15.5 19.8 12.2 42.8 26.9 61.4 40.6 31 22.8 73.3 79 88.5 114.5 1.3 3 3.8 7.8 4.2 10.8.6 4.6-2.3 28.2-1 29.5Zm-79.2 95.2c-1-1-5.7-2.4-7.7-3.8s-5.5-6.5-7.5-6.5c-1.5 0-9.5 6-9.4 7.3 9.4 13.5 17 33.6 33.9 38.7.1-3.3 1.3-5.8.8-9.2-.3-2.1-9.1-25.5-10-26.5Zm248 306c-6-3.3-11.6 4.7-15.3 4.7-4.8 0-10-8.3-12-7.9-3.2.6 1.9 5.3 2.2 6.7 2 7.5-4.7 12.2-3.3 15.2 24.2 26.5 48.8 52.5 75.5 76.5l8 5.5c-1.5-7.4-3.3-14.8-5.5-22-5.3-17.5-6.1-16-16.5-29.5-12-15.7-23.2-32.1-33.2-49.3Z" class="outline shading" data-original-prefix="shading" opacity="0.5" style="opacity: 0.5"/><path id="outline-ear-lft" fill="#000000" d="M806 969c.3 2-2.7 3.5-4.1 4.4-13.5 8.6-43.4 19.9-59.4 20.7-7.5.4-15-.6-22.1-3-14.3-13.3-27.4-28.1-41.4-41.6-8.4-8-27.9-20-33.5-27.5-1.8-2.5-9.1-18-9.4-20.7-.5-4.7 5.6-10.5 3.3-15.3-1.9-4-10.7-2.9-13-5-1.7-1.5-7.6-16.5-9.7-20.3-7-12.7-13.1-22-25.8-29.2-43-24.6-77.7-42.6-113.5-78.5-34.8-34.8-72.6-95.9-90-142-4.4-11.8-.3-13 1.5-24.3-.4-1.7-10.4-4-12-5.2-5.6-4.2-20.7-65.1-22.6-75.4-2.6-14.5 3.6-16.6 4.6-29.5 2.6-36.6-7.3-92.6-28.2-122.9-8.1-11.7-8.8-10-11.5-25.5-6.1-34.9-11.1-107.2-6.2-141.6.4-2.5 3.3-15.8 4.5-16.7 1.7-1.2 4.6-.9 6.6-.7 37.4 3.5 114.5 37.1 150.5 53.6 50.8 23.2 121 61 164.2 95.8 21.4 17.2 40.6 44.2 60 64.1 2.5 5 .4 11.8 1.3 17.2 7 2.2 14.7 3.2 20.9 7.6 28.1 35.2 54.5 71.7 80.4 108.6 3.2 38.5 4.8 77.6 9.7 116.3 3.5 27.5 7.5 51.9 15.6 78.4 1.8 5.9 6.7 15.1 7.2 20.8s-3.3 15.2-1.8 19.8c1.1 3.3 10.8.8 13.7 1.8 11.1 29.6 25.4 58.1 41 85.5 3.1 5.5 9.6 13.2 11.7 18.3 1.9 4.7 3.5 20.4 2 25-12 13.8-21.3 38.6-35.9 49.1-5.5 3.9-12.2 6.2-17.5 10h-1v-2c2.9-4.8 7.7-9.1 10.8-13.7 9.7-14.4 18.5-34 16.1-51.8-.7-5.3-13.2-37.8-16-44-2.3-5-6.5-10-9-15-6.6-12.6-12.8-25.4-19.8-37.7l-7.9 5.1c-1.1 1.5 6.4 9.4 5.8 13.2-.3 1.7-7.3 10.5-8.9 11.2-6 2.7-7.8-11.7-9-12.5-1.4-1-12.8 7.4-13.5 9-1.7 3.7 8 13.6 7.6 18.3-2.6 1.2-10.6 9.9-12.5 9.6-3.3-.5-7.2-15.8-8.7-16.8-2-1.2-10.3 4.1-10.8 5.5-1 3.2 16.7 38.7 19.7 44 4.7 8.1 30.5 41.7 31.1 45.9.9 6.1 2 18.7 2.1 24.9s-4.7 9.9-9.1 14c-2.5 2.3-15.2 12.6-17.5 13.5-1.9.7-1.7-1-1.3-2.3 4.5-15.6 5.7-18.9 1.9-35.3-4.6-20.5-14.9-41.8-24.6-60.4-7.4-14.2-18-35.5-26.7-48.3-.5-.8-1.5-2.4-2.3-2.5l-6.4 4.4c-.6 2.5 7.8 9 6.8 12.7-.2.9-11.6 12.3-12.4 12.7-1.7.7-1.3-.7-1.7-1.2-1.7-2.4-7.4-13.3-9.3-13.7l-12.3 9.5c0 1.3 10.5 13 10.8 16.2.1 1.6-9.4 10.9-11.5 11.1-5.5.5-10.5-13.5-12.5-14.7-2.2-1.3-12.5 9.4-12.6 10.4-.3 3.6 12.2 14.7 8.8 19.1-.7 1-11.8 9.5-12.6 9.5-3.5 0-7.2-13.5-11.5-14.7-3.4-1-12.3 8-11.6 11.6.5 2.5 6.1 13.9 7.7 16.3 4 5.9 20.6 19.7 26.8 25.2 12.5 11 56.2 47.9 70.5 49.5 12.6 1.4 33.2-4.1 45.5-8ZM659 395c1.4-.3 1.6.2 2.5 1 2.9 2.5 10.6 15.3 13.2 15.9 1.8.5 10.5-7 10.2-8.3-24.3-25.1-52-47.5-80.6-67.5-47.7-33.2-104-67.4-155.3-94.7-38.6-20.6-78.3-39.9-120-53.5-3 38.2.9 78.6 8.3 116.2 3.8 19.1 12.7 27.5 19.5 44.5 13.1 33 21.4 79.3 23.3 114.7.5 8.6-.6 17.5 0 26.1 1.6 26.2 12.7 54.1 19 79.5 2.1-1.9 12.5-11 12.8-12.6.7-3.5-7.1-7.5-3.9-12.9.8-1.3 10.6-10.7 11.5-10.5 1.9 1 5.1 9.6 5.6 10 .4.3 1.7 0 2.3-.1 1-.3 13.8-11.6 15.7-13.3 9.6-9 2.1-7.2-.6-15.5-1.4-4.4 8.9-10.2 12-13l8.2 10.9c2.5-1.5 15.5-11.3 15.1-13.1-.9-3.1-7.4-9.7-6.7-13.3 3.2-.9 9.8-10.2 11.6-10.6 2.3-.5 7.5 10.7 8.5 13l12.8-8.2c-2.4-68.9-41.9-135-94.9-177.2-10.7-8.5-22.5-15.3-33.4-23.6l-22.5-39c3.2-2.9 26 18.3 29.7 20.8 7.1 4.8 15.5 7.3 22.3 12.7 40.8 40.7 81.6 73.9 109.2 125.8 4.4 8.2 19.1 37.7 19.8 45.3s-6.9 34.8-8 45.9c-.5 4.9-1.6 14.6-1 19 .2 1.5 0 2.5 1.6 3.4 3.7-3.2 24.5-12.5 26-15 1.7-2.6-8.9-12.9-7.5-14.9l15.4-8.1 7.6 13c1.4 1 23-13.9 26.5-15.9 1-1.6-6.9-10.8-6.4-13.4.3-1.8 11.2-8 13.2-9.6l8.2 12c2 .3 17.8-10.2 17.4-12.4-.4-2-9.2-9.6-8.8-12 .2-.9 11.5-10.8 12.3-10.6 2.8 1.7 8.6 13 11.1 13 7.6-4.1 14-10 20.5-15.5l-12.9-15.1c-.3-1.7 9.9-10.1 10-13.4Zm151 369c1.1.8 7.8-10.4 7.8-12.3-6.1-15.8-17-31.4-19.7-48.3-3.6-23.2-3-47.6-5.1-70.9-1.9-21.3-4.7-42.7-7-64-2-18.8-1.7-40.1-12.6-56.4-13.5-20.1-34.8-45.3-50.5-64.5-7-8.6-14.5-16.9-21.4-25.6-4.1-2.8-9.4 5.1-13.1 7-1 2.1 8.7 10.2 8.5 13.4-2.4 1.4-11.8 11-13.9 9.6-.1-.1-.5-2.3-1.2-3.3-2.4-3.2-5.2-6.2-7.4-9.7l-22.5 16 9 15.4c-2.4 1.2-11.1 9.2-12.6 9.5-2.4.6-7.3-12.3-10-13.9-2.8 1.8-18.5 10.8-18 13 .6 2.4 8.7 13.2 7.5 14.9-3 .4-14 9.4-15.9 8-.7-2.5-6.4-14.2-8.4-13.9l-25.7 14.9c-.7.9 6.7 11.4 6.9 13.7.2 2-12.5 9.1-15.2 8.2-2.5-.8-4.6-10-7.2-11.9l-36 22c-1 1.7-.7 10.9-.5 13.5 1.7 25.2 25.4 94.1 47.7 107.3 7.9 4.7 15.7 4.1 19.5-5.1s5.4-24.4 8.3-34.7c1.8-6.4 9-30.9 12-35 2.3-3.1 13.2-9.4 17.2-11.8 12.5-7.8 25.9-15 39.3-21.2 1 1.1-9.1 24.9-9.8 28.7-3 17.6 8 69.1 14.8 86.8 6.8 17.9 15.5 25 25.5 39.5 21.7 31.6 40.5 66.1 58.7 99.9 1.1.8 10.8-3.8 11.5-4.9 2.1-3.3-5.9-11.1-5.4-13.4.2-1.1 12.4-10.6 13.8-9.6.6.4 4.3 11.7 6.5 12.9 2-2.8 10.6-7.8 12-10 2.5-3.9-5.8-11.2-6.4-15.4 11.1-10.2 11.5-16.9 18.9 1.4Zm-261.3-79.7c-1-1-3-1-4.2-2.3-2.4-2.7-9.6-43.6-11.6-51.4-7.5-29.1-17-55.5-33.3-80.7-1.7-2.6-9-11.1-8.5-13.2.5-1.7 5-4.9 4.9-8.2 0-1.1-5-8.6-6-9.1-1.5-.8-14.9 8.4-15.1 9.2-.9 4.4 10.4 14.6 9.1 16.3-3.2-.1-14.8 9.8-16 9-1-2.1-7.7-13.3-9.5-13-2.6 3.6-21.8 16.3-22.5 18.6-1.2 4 8.7 11.8 6.5 15.3-.4.7-11.2 10.1-11.9 10-2.9-1.4-7.2-12.4-10-11.9-1.1.2-14.6 13.7-14.7 16.4 10.5 33 27.8 63.2 47.7 91.4 17.3 24.6 39 51.5 61.4 71.6 32.7 29.4 75.5 45.7 111.6 70.4 4.5 7.2 4.1 14.9 7.4 22.6 3 6.8 8.6 13.3 11.1 20.4 1.6 1.1 11.5-6.1 11.9-7.6.9-3.5-8.9-10.4-5.9-13.8.7-.8 13.6-8.7 14.4-8.6 1.8 1.7 5.1 8.7 6.6 9.6 2.5 1.6 10.2-6.9 13.1-8.2.6-3.9-8.4-9.1-5.1-12.9.7-.7 11-8.3 11.7-8.4 3.2-.5 5.7 8.5 8.8 8.9.7 0 10.7-7.5 11.1-8.1 2.2-3.5-6.4-8.3-5.4-12.3.2-.7 10.1-9.9 10.9-10.3 3.5-1.8 8.3 10.2 10.5 10.4 1.1 0 8.7-5.3 8.1-7.8-1.4-5.5-14.2-23.2-18.2-28.9-16.3-23-35.6-43.7-53.6-65.4-1.2-23.1-5.1-49.1-14.6-70.4-7.4-16.6-14.9-16.2-25.6-2.2-18.5 24.1-18.3 56.3-8.1 83.9 2.8 7.6 7.3 14.6 10.5 22-1.1 1-13.5-5.7-15.7-6.8-22.8-12.2-43.5-26.7-61.6-44.9Z" class="outline" data-original-prefix="outline"/>
    </g><g class="trait-group" data-category="head" id="head-tall-hawk">
      <path id="fill-head" fill="#ffffff" d="m1090.2 196 40.7 41.8c3.3 1.3 3.6-4.9 4.9-7.8 2.8-6.4 6-12.7 9-19l33 34c4 5 8.8 15.8 10.9 22.1s2.3 11.6 3.8 16.2 1.8 2.8 2.8 3.2c10.6 4.5 15.7-14.1 19.2-20.8s.9-2.2 1.8-1.2l18.8 29.2 2.2 40.3c7 0 14.1.3 21-1l3 22.4-88.7 342.4-.3 5.2c6.1.9 10.9-4.4 16.9-3.9 2.7 6.6 4.4 11.6 1.4 18.7L1087.8 1053c-2.4 3.4-12.1-5.4-16-2s-7.4 12-9 15c-2.6 4.7-7.9 18.4-10.4 21.3s-3.2 1-5.1 3.2c-9.4 10.9-15.4 31.4-21.9 44.1s-.4 3.2-2.1 1.4-3.8-11.3-4.8-13.7c-3.6-7.9-11.9-25.8-17.2-31.8-1.9-2.2-4.4-2.3-5.5-3.5-1.7-2-6-13.4-8-17-1.9-3.5-9.1-17.3-11-19-3.1-2.7-10.9 2.6-14.9 2.9l-1.4-1.6c-31.1-106.2-65.3-211.4-96.4-317.6-1.7-5.9-7.5-21.5-7.7-26.4s1.9-7.6 2.8-8.8c1.4-1.9 13.6 3.6 16.7 4.3s1.6.3 1.2-1.2l-87.8-338.2c-4-10.3 0-20.9 1-31.4 6.9 1.2 13.9 1 21 1l2.2-40.3c.4-2.2 16.7-27.2 18.8-29.2s.8 0 1.2.8c3.4 6.6 10.1 27 20.3 20.8s4.6-14.9 6-19c7.6-22 25.3-36.6 41-53s1.6-4.8 3.5-2.4l12.4 27.4 40-43c2.5-1 .5 4 3.5 5.5s5.9.8 8 0c7-2.8 23.9-25 29.7-26.2 17.5-1.7 35.1-1.7 52.6 0 5.8 1.3 22.8 23.4 29.7 26.2 4.9 2 10.9.7 10-5.5Z" class="fill" data-original-prefix="fill"/><path id="shading-head" fill="#aaaaaa" d="M986 962c1.9-.2 1.9-4 2-5.5.8-13.2-1.9-26.3-1-39.5l11.5 37c3.9 13.4 2.3 27.6 3.5 41.5 2.9 33.5 13.5 69.9 21 103 .4 1.6-.7 1.7 2 1.5 5.2-32.5 16.3-63.7 20-96.5 1.7-15.2 1.2-30.7 3.3-45.7L1061 916c-.2 12.5-.8 25-.9 37.5 0 3.2-2.8 8.2.9 10.5 1.9-8.6 6-16.6 8.6-25 25.1-83.3 35.1-171.4 48.6-257.4.3-1.6.4-6 1.8-6.7 4.3 16.5 4.5 33.6 6 50.5.6 7.1 3.1 15.9 3.1 23 0 19.9-7.5 47.6-9.1 69-.7 10.2-1.1 20.4 0 30.5 14.7-17.8 26-38.6 37-59l2 8.5c5.5 25.6-14.3 46.3-20.2 68.7-3.2 12-3.5 24-6.2 35.8-2.8 11.9-8.7 23.8-10.5 36l-4-1-30.2 110.3c-2.9 5-12.3-5-16.3-1.3l-19.4 36.3c-13.9 9.1-17.3 30.5-25.3 43.9-1.8 2.9-2.9 4-5.2.7-4.5-10-8.4-20.7-13.8-30.2-3.3-6-6.6-12-12.7-15.3l-18.6-35.4c-4.4-3.8-13.5 7-16.7.7-11.2-36.2-19.8-73.2-29.8-109.7h-3.8c-2.4-12.4-7.7-24-10.6-36-2.6-10.8-2.9-22.5-5.8-33.2-7-25.8-24.7-41.9-20.6-72.2.2-1.5.5-6 1.9-6.6 10.9 20.4 22.1 41.3 37 59 .2-13.2 0-26.3-1-39.5-1.5-18.7-8-42.2-8.1-60 0-7.7 2.4-15.5 3.1-23 1-10.9 1.4-41.2 5.5-49.5.2-.5 1.3-1.3 1.5-1 .8 8.4 1.8 17 3.2 25.3 13 79.9 22.7 161.5 46.1 238.9 2.3 7.5 6.7 14.7 7.8 22.7zm3 1c.7-1.4-.6-2.7-1-2-.7 1.4.6 2.7 1 2" class="outline shading" data-original-prefix="shading" opacity="0.5" style="opacity: 0.5"/><path id="outline-head6" fill="#000000" d="M858 461c2.2-.8 9.2-8.7 11-7l8 44c4.6-17 14.5-35.3 25.2-49.3.7-.9 4.6-7.1 5.8-5.7 1.2 18.4 5.3 37 12.5 54 1.5-4.7 2.6-9.6 5-14 .7-1.4 4.7-8.3 6.5-7 13.5 31.3 41.5 61.5 75.6 69.9 20.3 5 35.4 1.1 53.4-8.4 25.4-13.4 43.4-35.6 55-61.5 1.9-1.4 5.3 5.1 6.2 6.3l5.8 14.2c6.4-17.1 11-35.2 12-53.5 1.2-1.4 5.1 4.8 5.8 5.7 7.9 10.4 14.5 23 20.4 34.6l5.8 14.7 7-44c1.8-1.7 8.8 6.2 11 7l27.6-77.9c3-5.9 8.8 4.9 9.3 7.7.6 3.5-7.9 31.3-9.6 37-6.4 22.3-14.4 44.1-21.3 66.2-2.5 2.3-5.2-8.8-7-9-2.9 19.2-7.8 38.9-20.5 54-2.1-11.3-3.8-22.7-7.2-33.8-2.3-7.4-6-17.9-9.2-24.8-.4-.9-.4-3-2.1-1.4s-6.8 24.6-8.8 29.7c-3.9 9.8-10.6 17.6-16.2 26.3l-2-.5c-.3-8.2-2-17.4-5-25-.4-1-2.2-7.2-4-5.5-15.2 29.4-41.9 52.6-74.2 61.3-16.9 4.5-26 2.6-42-3.5-28-10.5-50-31.5-63.8-57.8-1.8-1.7-3.6 4.5-4 5.5-3 7.6-4.7 16.8-5 25l-2 .5c-5.6-8.7-12.3-16.5-16.2-26.3-2-5.1-7.1-28-8.8-29.7s-1.7.5-2.1 1.4c-3.2 7-6.9 17.4-9.2 24.8-3.4 11-5.2 22.4-7.2 33.8-12.7-15.1-17.6-34.8-20.5-54-1.8.2-4.5 11.3-7 9-7.8-24.9-16.8-49.6-23.7-74.8-1.4-5.1-7.5-24.2-7.2-27.7.2-2.7 5.9-13.8 9-9.1l28 78.5h-.1Z" class="outline" data-original-prefix="outline"/><path id="outline-head5" fill="#000000" d="m996 1009-7.5-15c-34.7-88.2-52.2-182.1-61.5-276.5-.6-6.5-2.4-18.1-2.1-24 .3-5.2 4.1-12.8 4.1-18.5z" class="outline" data-original-prefix="outline"/><path id="outline-head4" fill="#000000" d="M1053 1009c-1.7.2-1.1-3.5-1-4.5.2-2.9.8-6.8 1.3-9.7 5.1-29.5 14.2-60.8 20.4-90.6 12.8-61.8 24-124 34.8-186.2l10.5-43c0 5.7 3.8 13.3 4.1 18.5 1.2 21.6-7 62.7-10.2 85.8-5 36.2-10.1 72.5-19.1 107.9-10.6 41.2-24.7 82.5-40.7 121.8z" class="outline" data-original-prefix="outline"/><path id="outline-head3" fill="#000000" d="M951 577c5.7 33 10.3 66.3 16.3 99.2 5.7 31.2 16.1 61.5 13.7 93.8-1.7.3-2.1-.4-2.8-1.7-1.3-2.6-3-9.7-4-13-5.5-18.9-8.6-38.5-13.4-57.6-8.8-35.5-21.6-69.4-16.9-107.1.5-4 1.5-14.2 7-13.5h.1Z" class="outline" data-original-prefix="outline"/><path id="outline-head2" fill="#000000" d="M1067 770c-2.4-32.3 8-62.7 13.7-93.8 6-32.8 10.5-65.8 16.3-98.6 4.7-2.7 6.3 7.7 6.7 11.2 5.1 40.4-7.3 71.2-16.6 108.8-4.8 19.1-7.9 38.8-13.4 57.6-1 3.3-2.7 10.4-3.9 13-.7 1.4-1.1 2.1-2.8 1.7Z" class="outline" data-original-prefix="outline"/><path id="outline-head1" fill="#000000" d="m1085 192 5-19.4 2-.6 34.5 44c4.8-8.8 9.1-18.6 10.4-28.6.4-3.3-.3-6.8 0-9.9.4-3.3 3.9.3 5.4 1.6 18.4 17.2 36.7 45.6 46.1 68.9 3.8 9.6 6.2 19.6 10 29 10.4-12.1 14.9-28.5 19.5-43.5.4-1.4-.6-1.8 2-1.5 14.9 25.7 28.2 52.4 28 83 5.9-4.3 10-10.4 14.4-16.1l8.6-14.9c1.3 12.8 3.6 25.5 3 38.5-1 23.1-5.7 50.8-9.2 73.8-14.8 97.8-44.2 190.9-75.8 284.1 1.5 1.9 1.2 1.2 2.7.7 10.5-3.7 23.4-16.9 31.8-24.2 0 6.9-2.9 15.1-5 22-12.4 41.3-30.2 82.6-44.5 123.5-26.2 75.1-46.6 151.6-70.7 227.3-2.7 8.5-7.5 26.6-11.5 33.5-1.8 3.2-8.4-.9-11.8-1.8-1.3-.3-7.7-1.8-8-1.5.3 11.8-2.9 23.4-5 35l-15-8c-4.6 9.7-10.7 18.5-15.2 28.3-4 8.8-6.2 17.8-9.6 26.4-.4 1-2.5 6.9-4.2 5.3-6.4-21.3-16-40.9-27-60l-15 8c-2.1-11.6-5.3-23.2-5-35-.3-.3-6.7 1.2-8 1.5-3.4.9-10 5-11.8 1.8-4-6.9-8.8-25-11.5-33.5-24.1-75.7-44.5-152.2-70.7-227.3-14.3-40.9-32.1-82.2-44.5-123.5-2.1-6.9-4.9-15.1-5-22 8.5 7.3 21.3 20.5 31.8 24.2 1.5.5 1.2 1.2 2.7-.7-31.6-93.2-61-186.4-75.8-284.1-5.1-33.4-11.9-72.4-7-105.7.2-1.6.4-6 1.8-6.6 4.5 11.9 12.2 22.9 22 31-.2-30.6 13.1-57.3 28-83 2.6-.3 1.6 0 2 1.5 3.5 11.7 9.5 32.5 17.6 41.4.5.6 1.5 2.5 2.4 1.6 7.6-27.7 19.3-53.3 37-76 5-6.4 12.7-16 18.6-21.4 8.3-7.8 4.7 1.9 5.5 8.3 1.3 10 5.6 19.8 10.4 28.6l34.5-44 2 .6c.7 6.2 3.2 12 5 17.9.2.8-.4 2.2 1.5 1.4 1.7-.6 10.4-8.6 12.5-10.5 5.2-4.7 13.1-15.5 19.6-16.4 12-1.8 29.7-1.8 42-1.1 3.6.2 12.4.8 15.3 1.7 4.2 1.3 20.2 19 25.7 23.3.9.7 4.8 3.8 5.5 3h-.1Zm0 31c-.3-.4-2.1-7.4-3.1-9.4-4.1-8.1-16.5-24.6-24.5-28.5-4-1.9-24.6-4.1-29.8-4.2-6.8-.2-31.6 1.6-36.9 4.2-8 3.9-20.4 20.4-24.5 28.5-1 2-2.8 9-3.1 9.4-1.4 1.5-1.7-.4-2.2-1.3-1.4-2.5-4.7-17.4-8.2-16.7-3.1.7-34.5 43.5-41.1 47.9l-14-35c-19.9 25.7-32.3 59.4-39.5 91-6-8.1-14.8-13.7-21.5-21-3.5-3.8-6.3-8.4-9.3-12.7-.6-.9.2-1.9-2.2-1.3-7.8 30.7-2.5 63.9 1 95l-29-27c8 48.8 18.5 97.1 30.5 145 18.3 73.2 38.5 151.1 61 223 2 6.4 6 12.9 6 19l-28.5-18.5c19.4 48 34.8 97.8 49.5 147.5 9.2 31.1 18.2 62.4 26.2 93.8 7.7 30 13.5 60.6 22.3 90.2 3.3 0 16.5-9.3 18-8 2.3 10.8 6.6 21 11 31 2.4 1.7 10.3-8.1 14-7l16 65c2 1.9 3.4-4.9 3.7-5.8 4.2-13.3 8.3-29.7 11.6-43.4 1.2-5.2 2.1-10.5 2.7-15.8 3.6-1.1 11.6 8.6 13.9 7 4.4-10 8.7-20.2 11.1-31 1.5-1.3 14.7 7.9 18 8 8.8-29.7 14.6-60.2 22.3-90.2s17-62.7 26.2-93.8c14.7-49.7 30.1-99.5 49.5-147.5l-28.5 18.5c0-6 4-12.6 6-19 22.5-71.9 42.7-149.8 61-223 11.6-46.3 23.8-96.3 30.5-143.5 0-.6.3-1.6-.5-1.5-1.7 2.2-27.3 28.5-28.5 27 3.5-31.1 8.8-64.3 1-95-2.4-.6-1.6.4-2.2 1.3-3 4.3-5.7 8.9-9.3 12.7-6.7 7.3-15.5 12.9-21.5 21-7.2-31.6-19.6-65.3-39.5-91l-14 35c-6.6-4.4-37.9-47.3-41.1-47.9-3.5-.8-6.8 14.2-8.2 16.7-.5.9-.8 2.7-2.2 1.3Z" class="outline" data-original-prefix="outline"/>
    </g>
</svg>