<?xml version="1.0" encoding="UTF-8"?>
<?xml-stylesheet type="text/css" href="styles/collection.css"?>
<svg xmlns="http://www.w3.org/2000/svg" viewBox="0 0 2048 2048"><g id="01_background" data-trait="green"><path id="color-green" fill="#32992c" d="M2048 0v2048H0V0z" data-original-style="transition:fill .3s ease" style="transition:fill .3s ease"/></g><g id="02_Jaw" data-trait="half-robo"><path id="fill-jaw" class="fill"  fill="#fff" d="m1382.8 1128.2 12.4 130.2 60.9 48.3-49.6 133.4c-1 1.4-2.4 1.1-3.9.9-13.9-1-32.8-8.5-47.4-10.7-1.8-.3-3.5-.4-5.2-.3 1.2 4.7-1.2 7.6-2.1 11.4-4.9 22.2-7.7 45-12.1 67.4l-57.2 29.3-1.4 1.6c-1.1 12 1.6 23.9.9 35.9-.3 5-1.3 14.9-2.3 19.7-.6 2.8-13.7 32.2-15 33.5s-16.1 8.9-16.7 8.3l-9.5-50-51 52c-7.7 5.7-20.7 9.3-27.5 15.5-14 12.7-24.7 36.5-41.4 47.6-5.5 3.6-58.7 25.2-65.4 26.6-2.4.5-46.7.7-49.3.2-6.2-1.1-59.9-22.7-65.6-26.3-14-8.8-29.1-36.3-42-48-6.7-6.1-19.9-9.6-27.5-15.4l-51-52-9.6 48.4c-.6.9-.9 1.7-2.2 1.5-.8 0-13.8-7.6-14.4-8.2-1.4-1.4-15.6-32.9-16-35.5l-.7-54.3-58.2-30.3-12.3-69.7c-16.4-1.1-33.5 3.9-49.5-1l-37.3-85.8c-.7-3.4 4-13 5.6-16.9 8-19 17.8-37.3 25.7-56.3 9.2-2.5 21.3 1.1 29.9-5.1 4-2.8-.2-18.8 0-23.9l-19-32.1-.3-2.2 27.6-63.5c1.4-9.9-3.2-21.4-1.1-31.1 1.3-6.2 9.7-21.7 13.2-27.9 54.6-98.4 184.4-157.8 290.2-180.8 48.2-10.5 90.3.5 136.5 15.4 98 31.8 198 94.6 250.7 185.3 3.2 5.5 3.8 13.3 10.7 14.8h-.7Z" class="fill" data-original-prefix="fill"/><path id="fill-jaw1" class="fill"  fill="#fff" d="M1265.7 1351.3c9.2 7.7-4.5 25.9-12.2 15.7s2.9-23.4 12.2-15.7" class="fill" data-name="fill-jaw" data-original-prefix="fill"/><path id="fill-jaw2" class="fill"  fill="#fff" d="M1314.6 1391.2c7.8-1.5 6.2 19.1-2.9 17.7-9.8-1.5-.6-17 2.9-17.7" class="fill" data-name="fill-jaw" data-original-prefix="fill"/><path id="outline-shading-jaw" class="outline"  fill="#000" d="M1377.3 1124.7c2.2 2.7 13.8 4 14.5 10l8.4 112.6c17.4 18.9 36.8 35.9 56.4 52.6l1.5 3.6-51 135.8c-1 1.6-3.7 1.7-5.4 1.6-14.4-.9-32.2-8.4-47.3-8.9-1.8 0-3.2-.2-4.4 1.3l-14.4 75.6-59.4 30.1c.4 11 2.6 23.6 2 34.5-.3 5.7-1.3 15.4-2.1 20.9-.5 3.1-13.4 31.4-15.4 33.6-3 3.2-11.6 6.2-15.5 9l-12-46.4-2.4-.6-46.1 47.9c-7.8 6.2-20 9.3-27.5 15.5-14.2 11.7-24.4 36.1-41.5 47.5-6.8 4.6-52.9 25.2-60.4 26.6-9.5 1.7-52.8 1.8-62.3.2-7.6-1.3-48.1-19.8-56.6-24.4-16.2-8.6-30.7-38.5-45.1-49.9-7.1-5.7-18.8-9.3-26.5-14.5l-48-49-8.5 47c-1.4 1.2-18.5-6.9-20.5-9-1.7-1.8-15-30.8-15.4-33.6-.7-4.4-.9-13-1.1-17.9-.5-12.2.6-24.4.5-36.6-18.8-11.7-39.4-20.3-58.6-31.4l-13.1-67.4-46.4.9-36.3-91.7-.2-2.3c6.7.3 9.7 6.8 15.7 10.8 19.1 12.8 34.2 19.3 57.7 16.1 20.6-2.8 26.4-11.2 48-1.7 16.1 7.1 19.4 16.7 31.2 25.8 13.2 10.2 17.5 3.6 25.9-7.1 6.9-8.8 25.8-41.6 27.4-51.6 1.7-10.7-3.8-11.2-13-10-8.6 1.1-48.4 15.1-51 14.6-1.7-.4-12.3-7.9-16.5-9.6-20.3-8.4-48.8-11.8-67.2-20.8-14.3-6.9-12.2-21.7-18-34.5l21.5-4.1c1.9.3 10.9 13 13.5 15.6 13.7 13.8 58.3 32.8 77.6 33.5 3.4 0 6-1 8.9-1.1h20.5l-34.7-16.8c-19.1-10.8-48.2-33.1-61.8-50.2-6.2-7.7-7.1-18.3-10.5-27.5-6-16.6-14.4-32-25-46 1.3-9 6.5-19.6 7.8-28.2 2.8-19.1 3.8-27.8 12.1-45.9 49-107.6 188.2-173.2 298.2-196.8 27.9-6 50-5.8 77.9 0 118 24.3 244.7 92.5 307.8 198.2 1.9 3.1 5.2 12.6 6.5 14h-.4ZM1326 1307c15.3-11.2 31.9-21.8 44.5-36 6.1-22.7 14.6-45.7 13.5-69.6l-2.1-29.5c-1.4.2-1.9 1.8-2.5 2.9-16.8 30.8-29.1 66.4-47 97l-62.3 38.7.4 3.3c5.9 15.3 32.8 49 33.4 63.6.2 4.3-2.2 10.7-.7 15.7 1.1 3.6 11 9.8 15.2 9.4l62.4-18.5c8.3 1.2 16.7.9 25.1.6l36.7-78.8.3-3.3c-14.1-10.8-29-21.4-44.3-30.7l-2.8 11.8c-13.3 5.6-27.2 16.2-40.4 21.1-6.7 2.5-16.4 2.8-23.8 3.2-1.2 0-5.6.7-5.5-1Zm-248 20c-5.1-10.6-9.9-23.3-16.6-32.9-6.5-9.4-23.8-30.4-31.9-38.1-4.2-4-7-3.9-11.1 0-7.7 7.4-27 30.2-32.9 39.1s-10.5 22.1-15.6 31.9zm200.7 70.7c1.4-1.6 8.8-25.5 9.1-28.5.4-4.4-3.5-11.7-5.6-15.9-3.8-7.3-18.5-32.7-23.6-37.4-5.7-5.3-8-1-14 1.1-11.8 4-23.6 7.8-35.5 11.5-1.3 1.1-1.1 1 0 2 3 2.6 6.7 4.5 9.4 7.6 6.8 8.1 12.2 22 18.6 30.9l3.1-12.4c.8-3.8 7.7-7.4 10.8-5.4 1.2.8 3.6 11.4 7.9 12.7 6.1 1.8 8.2-5 11-5.7 4.2-1 10.3 3.7 10.1 8.1-.5 11.3-14.6 20.3-25.1 18.6-1.1-.2-10.1-4.8-8.7-1.3 3.1 2.8 14.4 21.8 16.7 22.4 2 .5 14.5-6.5 16-8.2h-.2Zm-550.4 99c1.6 2 8.2 6.3 10.7 7.8 14.8 8.8 31.7 13.8 46.9 23.1 16.8 10.2 40.2 33.1 59.6 33.5 2.3 0 8.7-1.2 9.4-3.7.8-2.7-13.5-27.5-16.4-30.3-7.3-7.2-27.5-17.2-37.2-23.8-15.2-10.3-50.3-39.1-67.9-39.2-10.5 0-8.7 28.1-5.1 32.7Zm591.4-30.4c-6.1-6-24 4-30.4 7.6-16.3 9.1-30.8 21.3-46.2 31.8-9.3 6.4-25.4 13.9-33.1 20.9-3.1 2.8-16.2 24.5-16.9 28.2-1.1 5.3 6.2 6.5 10.3 6.3 16.8-1 25.6-11.2 38.2-19.8 8.3-5.7 17.3-12.1 26-17 11.7-6.6 47.1-19.2 52.7-29.3 2.4-4.3 2.8-25.2-.7-28.6ZM1126 1664c-12-2.7-20.7 6.6-31.6 7.9-5.7.7-12.2-1.2-16.6-.7-7.1.8-22.9 12.1-31.2 14.9-14.8 4.9-30.2 4.7-45.1 0-8.8-2.8-23.9-14.1-31.2-14.9-4.4-.5-10.9 1.4-16.6.7-11-1.3-19.9-11-31.6-7.4 0 7 23.7 23.4 30 27 12.5 7.1 59.7 26.8 72.5 26.6s59.8-19.7 72.2-26.9c3-1.8 33.6-23.3 29.3-27.2z" class="shading" data-original-prefix="shading" opacity=".2"/><path id="outline-jaw" class="outline"  fill="#000" d="M1378 1122c.3-3.9.6-9.1 5.7-9.8 7.8-1.2 8.7 12 9.3 17.3 3.8 33.8 2.1 69.1 8.3 102.7 2.2 11.9 3.2 13.8 12.3 21.7 14.8 13 33.2 22.8 47.5 36.5 2.6 2.5 11.8 12.2 12 15.1l-66.1 156.3-46.9-24.9c-1.8 6.1-5.4 12.6-6.7 18.8-4.1 19.2 0 41.1-2.2 59.8-.4 3.4-10.5 17.5-13.3 18.7-6.4 3-16.2-1.8-24.7 3.3-23.8 14.4-17.9 48.6-27.2 68.8-7.8 17-37 48.2-52.9 58.1-1.6 1-2.9 1.9-4.9 1.6 1.1-14.8 3.1-34.9-3.9-48.6-.4-.8-.4-3.2-2.1-1.4-.7.7-3.6 13.8-6.6 17.9-5.8 7.9-20.7 8.9-29.4 12.6-16.7 7-14.3 32.7-27.7 43.3-19.3 15.2-61.2 32-85.1 38.9-10.8 3.1-38.9 11.3-48.7 11.3-15 0-63.4-15.1-78.8-21.2-11.1-4.4-55.3-26-60.6-34.4-6.9-11.1-8.5-31.6-21.5-37.6-14.5-6.6-26.4-2.4-33.9-20.1-1.1-2.5-2.5-10.3-2.8-10.7-1.3-1.6-1.8.4-2.2 1.3-6.9 12.5-5 34.9-3.8 48.7-2 .3-3.3-.6-4.9-1.6-15.7-9.8-48.9-44.4-54.2-61.8-6.2-20.6-5.3-52.1-25.9-65.1-8.2-5.2-18.3-.3-24.7-3.3-.9-.4-12.2-14.2-12.7-15.3-2.1-5.2-.2-29.6-.5-37.4-.4-9.1-2-18.5-3-27.5-4 1.6-7.6 4.7-11.9 5.6-2.8.6-5.6.7-8.5.3-4.7-.6-27.4-9.9-32.6-12.4-1.3-.7-2.7-1.2-3.5-2.5-2-33.7-22.2-63.7-44-88-2-4.4 2.1-14.5 3.7-19.2 6.2-17.8 15.6-36.4 25.7-52.3 3.2-5.1 14.2-22 17.9-25.1 5.5-4.4 9.8 3.3 14.6 6.6 1.6 1.1 12.7 7.8 13.5 7-2.9-7.2-9.4-11-13.8-17.7-4-6-15.9-26.4-15.8-32.6s5.4-17.7 6.5-25.3c.5-3 1.1-8.8 1.2-11.8.2-6.5-3-17.5 1.3-22.2 1.2-1.4 12.8-6.5 14.1-6.2.9.2 5 11.2 10.5 7.8 2.3-1.4 1-34.7 0-39.9.3-.3 7.6 1.8 8 2 1.8 1.1 7 8.1 9.8 9.7.5 8.4 3.4 20.7 1.1 28.7-2.8 10.1-17.5 14.8-21.2 22.8-1.2 2.6-6.4 25.9-6.7 29.3 0 1.2-.2 2.4.2 3.7 4.8 10.3 13.7 19.4 18.7 29.3s9 33.8 15.5 40c5.3 5.1 14.5 7.1 21 10.5 7.5 4.1 15.7 10.7 22.7 15.8-11.3-1.3-47.2-5.2-54.5-13-3.3-3.6-5.7-15.7-9.6-17.4-2.6-1.2-6.2-.2-9.2-.8-7-1.2-10.7-7.9-18.5-1.5-6.6 12.5-14.3 24.3-20.4 37.1-7.4 15.4-14.8 25.1-4.8 41.2 5.3 8.6 23.3 26.7 25.6 34.4 2.5 8.6-2.7 28 2.9 34.1 6 6.6 20.6 4.5 27.8.8 10.6-5.4 8.7-9.9 14.3-18.7 5.2-8.2 19.7-23.1 28.9-26.2s13.4 8.6 15.6 15.5c7.3 23.8-.2 34 22.5 51.5 11.6 8.9 33.3 20.1 47.8 17.9 8.5-1.2 21.1-6.6 27.2-12.8 7.2-7.5 8.8-24.6 24-14 15.8 11 30.3 30.1 46.6 41.4 20.5 14.3 77.5 32.5 102.5 34.6 37 3 105.5-17.1 134.5-40.5 11.5-9.3 21.6-20.6 33-30 4-3.3 11.6-11.3 17-8 .7.5 7.5 12.5 9.2 14.8 3.3 4.7 11.5 16.1 17.4 16.7 7.4.8 31.3-15.5 40.2-17.2 8.1-21.2 17.3-42.1 23.5-64 2.8-9.9 8.4-24.8 3.8-34.3-2.1-4.2-21.3-33.6-24-36-3-2.7-9.6-5-13.5-6.5-3.3-1.2-19.8-5.2-20.5-6-1.5-1.4.4-1.7 1.3-2.2 1.3-.7 11.6-5.7 12.3-5.8 2.6-.4 25.4 6.8 27.4 8.5s8.6 15.3 11 19c5 7.6 19.5 25.4 20.8 33.2.4 2.5.5 4.9-.2 7.3l-26.5 74.9c22.1-8.1 42.1-21.6 63.6-30.8 4.1-1.8 12.4-6.1 16.3-4.6 4.7 1.7 16.6 11.3 22.4 14.6 2.4 1.4 18.7 10.5 19.7 9.8l48.1-125.5c-.2-2.1-12.6-9.7-15.4-11.7-13.3-9.9-23-17.3-37.4-25.6-7.1-4.1-7.5-7.8-8.3-15.7-2.2-22.8-2.4-46.1-4-69-1.5-20.8-6.3-45.1-5-65.5h-.7Zm-649 280c-5.9.4-11.3 6.2-14.4 11.1-12.8 20.4-.6 26.3 1.3 45.5 1.3 13.2-3.2 33.5 4.7 44.3 5.3 7.3 21.6 10.7 30.1 14.9 3.6 1.8 23 13.2 24.8 15.2.4.4 3.3 5.3 3.3 5.6 0 .8-3.5 12.2-3.8 15.8-1.9 24 4.5 52.9 21 71l5 4.5c.9-4.6-1.1-9.2-1.1-13.5 0-12.5 8.2-24.3 10.1-36.5 23.5 5.4 36.4 28.6 51.4 45 11.3 12.4 23.8 14.5 34.1 23.9 6.5 5.9 11.9 15.9 17.5 22.5 14.6 17.4 20.2 23.3 41.3 32.7 29 13 50.6 21 83.2 18.9 16.8-1.1 61.8-19.2 76.4-28.6 16-10.4 26.2-34.2 40.1-45.9 10.6-9 21.7-10.9 32.5-22.5 15.6-16.6 28.5-40.5 52.5-46 .8 9.9 6.9 18.2 8.7 27.8 1.5 7.6.3 13.6.3 21.2 7.8-5.3 15.2-16.8 18.8-25.6 5.4-12.9 8.1-33.2 7.2-46.9-.2-3.4-3.8-17.5-3.5-18.4.6-1.7 3.6-5.7 5.2-6.9 4.5-3.4 17.3-10.6 22.7-13.3 11.7-5.9 31.5-8 33.6-23.4s-.7-31.7 3.8-48.2c1-3.6 5.3-8-1.4-5.4-30.7 11.8-63.4 35.5-93.6 46.4-10.1 3.6-23.8 2.7-32.8 7.2-6.8 3.5-11.5 12.3-16.4 17.6-16.2 17.4-41.8 25.6-65 28-69.4 7-135.6 6.9-205 0-21.7-2.1-46-9.9-62.5-24.5-5.9-5.2-10.7-15.4-19.3-15.2-3.9 0-8.2 3.3-11.2 3.7-5.5.6-22.8-12.9-28.7-16.2-15-8.4-31.4-14.8-46-24-2.8-1.8-16.7-11.4-17.8-13.2-2.8-4.9.2-12 0-17.1 0-10.4-4.3-21.6-7.1-31.5" class="outline" data-original-prefix="outline"/><path id="outline-jaw1" class="outline"  fill="#000" d="M1253.7 1342.2c12.9-2.4 29.1 10.8 24 24-3.6 9.3-14.2 17-24.2 12.8-15.8-6.5-17-33.6.3-36.8zm12 9.1c-9.3-7.8-20.1 5.1-12.2 15.7s21.4-8 12.2-15.7" class="outline" data-name="outline-jaw" data-original-prefix="outline"/><path id="outline-jaw2" class="outline"  fill="#000" d="M1313.7 1382.2c20.2-4.4 22.1 39.9-4.2 35.7-17.9-2.8-9.8-32.7 4.2-35.7m.9 9c-3.6.7-12.7 16.2-2.9 17.7 9.1 1.4 10.8-19.2 2.9-17.7" class="outline" data-name="outline-jaw" data-original-prefix="outline"/></g><g id="03_Mouth" data-trait="cracked scrappy"><path id="fill-muzzle-1" class="fill"  fill="#fff" d="M1038 1292s-.4 1.7.7 2c10.3 2.8 18 4.3 25.8 13 1.9 2.2 4.9 8.8 6.5 9.5 2.6 1.2 6.6 0 9.5.5 11.4 1.5 21.2 3.7 31.2 9.8 2.1 1.3 9.2 7.8 10.2 7.1.3-.3 0-1.7 0-1.9 2.4-1.8 32.7.6 38 1 5.2 4.2 13.2 5.5 19.2 8.3 13.7 6.4 22.5 16.1 29.9 29.1 8.4 14.6 7.7 17.8 3.1 33.4-2.5 8.5-4.8 21.8-16.3 20.2 1.5-15.5-14.8-32.4-26.5-41-3.2-2.4-11.3-7.2-6 0 10.7 14.6 20.5 15 21.5 37.5.5 10.4-8.3 32.8-15.4 40.5-.6.7-7.1 6.3-7.6 6.5-3 1.6-6.8-6.1-7.8-8.2-3.7-7.7-4.8-15.6-9.7-23.3-1.1-1.7-10.8-13.7-12.4-12.1 5.6 13 9 46.2-2.5 56-4.4 3.7-9.4 1.9-13.3 3.7-2.8 1.3-3.1 5.8-4.8 6.2-.9.2-7.2-3.2-9.4-3.5-9.3-1.3-13.1 17-18.7 17.4-2.5.2-10.7-11.9-18.4-9.4-6.8 2.2-15.3 20.6-23.6 23.5-7.3-4.5-4.2-14-6.6-21.1-1.2-3.5-4.2-6.7-5.8-10.2-5.4-12.7-2.8-19.9-.2-32.2.7-3.3-.2-6.3 1.2-9.8.4-1 6-11.5 6.6-12.4 3.7-5.4 19.2-12.4 22.7-3.8.9 2.2 0 8.7 2.2 7.7 5.1-4.9 10.2-9.9 15.5-14.5 10.2-8.9 12.8-8.2 19.5-21.5 1.9-3.8 8.1-17.3 8.2-20.7.2-6.3-17.9-22.6-21-29-3.6-2.9-22.1-2.8-27.2-2.3-14.1 1.5-18 12.2-27.5 19.5-1 .8-1.3 1.9-3 1.5l.8-12.7c7.6-8.2 14.9-16.6 21.1-26 .7-3.3-8.6-12.4-11.3-13.2-3.6-1 .5 5.5.5 6.6.4 5.2-5.9 4.1-9.3 5.6-1.2.5-3 2.7-3.2 2.7s-2-2.2-3.2-2.7c-8-3.5-11.7.6-7.3-12.2-1.6-1.7-12.5 9.1-12.9 11.7-.2 1.6 3.6 7.8 4.8 9.5 1.5 2 5 5.9 7 8.3 3.2 3.9 9.7 7.7 9.9 13.1 0 1.6-.8 3.1-.8 4.8s2.6 8.1-2.5 3.6c-6.2-5.3-10.1-13.6-18.5-17.5-6.8-3.1-28.3-4.1-34.7-.8-.8.4-9.9 11.1-11.2 12.8-2.4 3-10.9 13.7-10.8 16.8.2 5.1 11.2 27.9 14.7 32.2 2.8 3.4 10.2 7.7 14 11 5 4.3 9.7 9.1 14.5 13.5 2.2.9 1.5-5.2 2-7 2.4-9.9 19.2-2.4 23 3.1.7.9 6.6 13.1 6.9 14.1 2.9 11 5.6 26.6 1.9 37.5-1.7 4.9-6.8 10.4-7.8 15.2-1.4 6.6 1 13.6-5 19-5.3 1.2-18.8-21.7-24.4-23.5-8.2-2.6-15.9 9.6-18.4 9.4-5.3-.4-8.7-14-13.9-16.1-6.9-2.8-11.5 2.7-14.1 2.1-1.8-.4-2-4.8-4.8-6.1-4.5-2-9.6.3-14.3-4.7-10.9-11.5-6.5-42.2-1.5-56.1-9.1 6.7-14.1 14.8-18.5 25-1.6 3.6-2 7.5-3.7 11.3-1 2.1-4.9 9.8-7.8 8.2-.4-.2-6.9-5.8-7.5-6.5-4-4.2-13.8-24.3-15-30-2.8-12.9 1.4-26.5 9.5-36.5 4.1-5.1 11.3-9 13-15.5-2.4-2.4-22.3 17.4-24.4 20.1-5.4 6.8-11 15.9-9.6 24.9-4.7.2-8.1-.7-10.8-4.7-1.8-2.7-8.8-24.3-9.2-27.8-1.1-10.9 10.9-28.8 18-37 10.5-12.2 24.5-14.2 38-21.5 12.5-.8 24.5-2.3 37-1 0 0 .7 2.1.5 3 9.5-8.2 20.6-14.8 33.1-16.9 4.7-.8 14.8-.4 18.1-1.8 1.6-.7 5.2-7.7 7.2-9.9 8-8.4 15.2-9.7 25.4-12.5 1.1-.3.6-1.9.7-2 1.1-.7 25.9-.7 27 0Z" class="fill" data-original-prefix="fill"/><path id="fill-teeth16" class="fill"  fill="#fff" d="M995.3 1525.7c11 9.5 17.2-6.6 23.2 6.3 6.5 14.1 3.7 38.4-1 52.9-.7 2.1-7.1 16.9-8 17.1-1.2.3-3-.4-4.2-.9-12-5.1-31.7-18.1-39.1-28.9-10.6-15.5-6.4-42.9 6.8-55.8 1.3-1.3 9.1-5.6 10.4-5.3 1.5.3 9.4 12.3 12 14.5h-.1Z" class="fill" data-original-prefix="fill"/><path id="fill-teeth15" class="fill"  fill="#fff" d="M1039.1 1601.9c-.8-.5-7.5-16.1-8.1-18.4-4.1-13.8-6.5-36.9-1.3-50.3 4.6-12 8.1-4.3 15.8-4.2 9.5.2 17.3-18.2 20.8-17.9 1.2 0 8.5 4.2 9.7 5.3 6.3 6.2 12.2 22.3 13 31 2.4 28-20.3 39.6-41.3 50.7-2 1.1-5.7 5.5-8.6 3.7Z" class="fill" data-original-prefix="fill"/><path id="fill-teeth14" class="fill"  fill="#fff" d="M904 1461c0 2.2-1.1 3.8-.8 6.2.2 1.8 7.1 22 8 23.1 3.9 5.1 11.2 3.2 16.7 3.8 4.9 13.5-4.2 23.8-8.6 35.6-2 5.3-8.7 33.1-12.8 34.2-1.8.5-6.8-9.1-8.3-10.7-10.3-23.9-15.3-58.4-2.6-82.2.6-1.2 7.1-11.6 8.4-10.1Z" class="fill" data-original-prefix="fill"/><path id="fill-teeth13" class="fill"  fill="#fff" d="M1144 1564c-2.1 1.4-6.1-7.1-6.8-8.7-3.2-7.9-4.4-17.4-7.5-25.5-4.3-11.6-13.6-22-8.6-35.6 4.8-.6 12.3 1.2 15.9-2.9 1.3-1.5 8.1-20.6 8.6-23.2.3-1.8-1.4-7 .9-6 6 2.7 13.7 26 14.4 32.6 1.4 13.9-2.9 45-9.3 57.4-.8 1.5-7 11.6-7.6 11.9" class="fill" data-original-prefix="fill"/><path id="fill-teeth12" class="fill"  fill="#fff" d="M1093.1 1644.9c-2.9-1.8-2.4-28.5-2.1-33.4.7-10.5 5.2-31.2 8.9-41.1 1.1-2.8 2.4-1.4 4.2 0 12.2 9.6 21.1 44.8 12.8 57.9-1.9 3-15.6 14.9-18.9 16.1-1.3.5-3.8 1.1-4.8.4Z" class="fill" data-original-prefix="fill"/><path id="fill-teeth11" class="fill"  fill="#fff" d="M949 1569c5.5 22 11.1 44.4 9 67.5-.5 5.2-.9 10.3-7 8-3.4-1.3-17.5-13.4-19.5-16.5-5.8-9.2-1.4-31.3 2.7-41.2 1.2-2.9 11.3-21 14.8-17.7Z" class="fill" data-original-prefix="fill"/><path id="fill-teeth10" class="fill"  fill="#fff" d="M881.7 1478.3c3.1 2.8-2.7 21-2.8 26.2 0 5.9 2.6 12.4 3.1 18 .2 2.1.7 24.5-.5 24.5-1.5.2-2.1-1.1-2.9-2.1-15.6-18.9-34.8-51.8-17.4-75.3 6.5-8.8 10.5 2.1 14.9 5.8 1.8 1.5 4.9 2.1 5.7 2.8Z" class="fill" data-original-prefix="fill"/><path id="fill-teeth9" class="fill"  fill="#fff" d="M1185.7 1467.3c1.9 1.6 7.8 13.7 8.2 16.2 3.2 20.7-9.8 47.3-23.9 61.9-.9 1-1.3 1.9-3 1.5.5-8-.7-16.6 0-24.5.4-5.4 3.1-12.3 3.1-18s-6.1-23.4-2.8-26.2c.6-.6 2.5-.6 3.8-1.7 3.4-3 10-13.1 14.7-9.3Z" class="fill" data-original-prefix="fill"/><path id="fill-teeth8" class="fill"  fill="#fff" d="M1018 1613v16.5c0 .9-10.8 13.2-11.9 14.1-6.3 4.8-8-2.6-10.6-5.5-5.5-6-17.9-.4-24.4-5.6-1.2-.9-4.1-8.8-4.1-9.9v-22.5c12.9 1.7 28.3 17.5 41.4 15.9 3.5-.4 6.1-3 9.6-2.9Z" class="fill" data-original-prefix="fill"/><path id="fill-teeth7" class="fill"  fill="#fff" d="M1031 1613c6.3 1.3 9.1 4 16.1 2.6 10.6-2.2 24.3-14.8 33.4-15.6 2-.2 1.4 0 1.2 1.3-.8 6.5 2.4 27.5-4.4 31.6-7 4.2-18.8-.3-23.4 4.6-2.1 2.2-3.6 8-8.4 7.6-1 0-14.6-13.5-14.6-14.6V1613z" class="fill" data-original-prefix="fill"/><path id="fill-teeth6" class="fill"  fill="#fff" d="M1102.5 1494c3.3-.8 4.5 6.9 5.3 8.7 5.6 12.1 13 24.8 13.3 38.8.2 9-16 29.8-21.3 16.2-4-10.4-4.1-44.8-1.1-55.5.4-1.6 2.4-7.9 3.8-8.2" class="fill" data-original-prefix="fill"/><path id="fill-teeth5" class="fill"  fill="#fff" d="M937.3 1559.7c-1.9-1.6-7.8-10.5-8.5-13-3.6-12.1 6-31.3 11.4-42 1.6-3.1 3.3-14.7 8-7.4 5.5 8.5 4.3 41.5 2.7 52.1-1.2 7.7-3.6 18.7-13.6 10.3" class="fill" data-original-prefix="fill"/><path id="fill-teeth4" class="fill"  fill="#fff" d="M917 1563c-1.8 13.4 2.9 27.5 2 40.5-.6 9-4.4 18.4-5.5 27.5-6.2-6-10.5-16.1-11.4-24.6-.5-5.2.7-24.7 2.4-29.3.6-1.6 10.5-16.2 12.4-14.1Z" class="fill" data-original-prefix="fill"/><path id="fill-teeth3" class="fill"  fill="#fff" d="M1135 1631c-.4-8.9-4.4-17.8-5.1-26.5-1-13.8 3.7-27.6 2-41.5 2.2-2.4 11.9 13 12.5 15 2 6.6 2.6 27.4 1.2 34.3-1.3 6.3-5.5 14.9-10.8 18.7z" class="fill" data-original-prefix="fill"/><path id="fill-teeth2" class="fill"  fill="#fff" d="M1154.1 1604.9c-3.4-2-5.1-22.3-3.9-26.2.8-2.6 8.9-5.2 10.2-8.8l5.1-10.9c3.8 3.4 5.1 7.2 4.3 12.2-.7 4.2-5.4 22.7-6.9 26.2-.9 2.2-6.1 9-8.8 7.5" class="fill" data-original-prefix="fill"/><path id="fill-teeth1" class="fill"  fill="#fff" d="M885 1559c-.3 3.7 1.7 9.4 4 12.2s9.5 5.2 10 8.3c-2 8.4 1.6 19.2-5.7 25.4-3.6-1.1-6-4-7.4-7.4s-6.5-23.6-6.9-27.1c-.5-4.2 1.2-10.6 5.9-11.4z" class="fill" data-original-prefix="fill"/><path id="outline-shading-mouth2" class="outline"  fill="#000" d="M918 1443.5c.8 5.3 5.6 13.8 10.1 16.9 11.5 8.3 16.2-.3 22.4-9.4 2.5 5.4 3.4 11.5 6 17 1.4 2.8 5.7 12 7.5 5.5l4-11.5c1.6 7.5 6.3 15.4 11.5 21 4.3 4.7 18.8 15.4 24.6 9.6 2-2.1 8.3-17.9 10.8-22.2 1.2-2.2 7.8-13.8 9.7-13.3 1 .2 8.5 13.2 9.7 15.3 2.4 4.5 7.3 17.7 9.8 20.2 3.8 3.8 10.5.4 14.4-1.8 10.5-5.9 18.5-17.2 21.7-28.8l4.2 12.3c.3 1.2 1.9 2.4 2.8 1.7.6-.4 5.8-11.3 6.5-13 .8-2 2.8-12 4-12 6.8 10.7 12.9 18.4 24.5 7.5 8.6-8 9.3-23.8 7-34.5 3.5-3.1 21.1 16.1 26.6 16.9 9.1 1.4 17.6-11.8 19-19.9 3.5-20.5-12.9-39.2-30.9-46.2l-12.7-4.8c15.4 0 28.2 2.9 41.1 11.4 4.8 3.1 12.2 10.9 17.6 11.4 6.2.6 10.1-4.1 10-10-.4-19.3-25.8-38.1-39.7-48.8 15.4 2.4 34.6 11.8 45 23.5 7.8 8.8 19.1 25.1 19.1 37s-6.4 28.5-9.2 32.8c-3.3 5.3-11.7 5.4-13.4 10.6-.9 8.1-2.1 16.4-2.5 24.5-1.5 29 1.4 45.2-10.8 73.2-3.6 8.2-12.7 20.4-14.9 27.1-4.2 12.8-.7 26.4-9.1 38.9-3.2 4.8-8.4 6.7-11.2 10.8-1.7 2.5-2.4 6.1-4.2 8.8-4.5 6.7-14.6 23-21.6 8.9-1.6-3.3-1.3-12.9-6.7-6.2-1.4 1.7-1.9 4.4-3.5 6.5-3.7 4.7-17.7 19.6-23.5 19.5-2.2 0-4.5-4.1-6.6-5.4-7.9-5-21.1-6.3-29.2-1.4-7.3 4.4-9.5 13.6-18.1 6.8s-6.4-10.8-20.1-9c-5.6.7-11.4 12.6-16.9 12.1-2.8-.2-11.4-11.1-18.5-12.6-6.3-1.3-17.5.7-23 4.2-2.6 1.7-4.1 5.6-7.5 5.4-5.7-.3-19.8-15.8-23.6-20.5-1.2-1.5-4.4-10.6-7.1-6.9-2.5 3.4-.6 9.9-7.2 12.7-7 3-14.9-11.2-18.1-16.4-1.2-1.8-1.2-4.3-2.6-6.4-2-3-6.8-5.4-9.5-8.5-10.4-11.9-6.7-27.7-10.7-41.3-.8-2.6-5.6-8.5-7.3-11.7-18.4-35.7-16.4-45.6-18.4-84.6-.4-7.7-.6-20.7-2.2-27.8-1.5-6.2-11.1-6.1-14.2-11.8-3.4-6.1-9.3-29.6-8.6-36.4 1.2-10.3 16.2-31.2 24-38 10.5-9.2 26.2-16.5 40-18.5l-21.5 17c-7.2 6.4-26.8 32-14.8 39.9 9 5.9 16.7-4.5 23.7-9.1 12.7-8.4 25.3-11.8 40.7-11.8l-17.3 7.2c-18 9.4-33.1 32.7-22.1 52.8 1.7 3.1 8.6 10.4 12 11.1 9.1 1.7 20.7-15.4 29.5-18 .6 6.4-.9 14.3 0 20.5zm-37.1 40.6c-12.3-.5-17.1-20.2-22.8 1.5-3.4 13 1.2 26.4 9.4 36.5 1.5 1.8 12.7 13.1 13.9 12.9.8 0 2.5-2.3 2.8-3.2 2.9-7.1-3.2-12.2-4.2-19.2-1.5-9.8 0-18.7.9-28.4Zm301.8-8.9c-3.2.8-6.3 6-8.8 7.3-2.1 1.1-7.2 1-7.8 3.2-.5 1.7 3 10.8 2.9 14.8 0 3-1.5 13.9-2.2 16.8-.9 3.6-3.9 5.7-3.9 10.2s1.4 7.1 3.7 7.4c1.9.3 15-14.4 16.8-17 5.7-8.5 9-18.8 7.3-29.2-.5-3-4.4-14.5-8-13.6Zm-284.8 10c-4-2.3-6.5 9.9-6.8 12.5-1.2 10.5 3 38 8.7 47.1 1.9 3 5.4 6.9 9.2 7.3 3.7-15.6 12.6-29.2 21-42.5-2.3-.4-1.7-2.9-2.7-3.5-1.5-.9-7-1.9-9.7-3.1-4.7-2.2-12-7.7-15.6-11.4-1.2-1.2-3.8-6.2-4.2-6.3ZM1139 1552c8.3-2 11.9-12.2 13.9-19.6 3.1-12.1 6.1-33.4 1.1-44.8-3-6.9-5.8 1.7-8.3 4.1-3.9 3.8-11 9.3-16 11.6-2.5 1.1-7.8 1.8-9.1 2.7-.7.5-.5 1.8-1 2.7-.3.4-1.7.4-1.6.9 0 1 7.9 12.3 9.2 14.8 4.8 8.8 9.1 18 11.8 27.7Zm-197.7 5.7c8.1 8.1 9.5 0 10.5-7.3.8-5.6 2.7-20.6 1.7-25.4-3.6-17.2-21.3-15.9-21.6 3.6 0 6.8 4.6 24.3 9.4 29.2Zm161.5-44.5c-5 1.3-8.5 9.3-8.8 14.2-.2 4 2.4 28.5 3.8 31.3 2.5 5 7.5 0 9.8-2.7 6.8-8.3 11.6-30.7 4.5-39.5-2.7-3.3-4.8-4.4-9.2-3.3zM1023 1544c-.7-.7-.8-7-5.1-9.4-8.9-5-21.8-.8-32-4-10.4-3.3-9.4-13.1-16.1 1.8-2.9 6.4-9.1 24.4-6.3 30.7 1.1 2.4 17.8 15.6 21.2 17.8s18.2 11.7 21.1 10c3.1-5.6 9.3-9.5 12.6-14.9 1.8-2.8 4.1-11.5 4.6-11.9 1.6-1.7 1.7.5 2.1 1.4 1.6 3.6 2.1 6.8 4.5 10.5 3.3 5.2 9.2 9.3 12.4 14.6 3.1 1.9 15.5-5.9 18.9-8.1 4.5-2.9 22.9-17 23.9-21.1 2.2-9.7-6.6-28.3-10.9-37.2-4.9 1-7.8 5.2-12.7 6.7-9.2 2.8-28.2-1.6-33.7 6.3-.9 1.2-2.6 8.9-4.5 7zm-136 18c-.7-.6-3.5 0-4.5.9-6 6.2 2.4 31.6 14.6 27.6 4-1.3 3.8-9.4 2.8-12.9-1.1-3.9-7.2-4.1-9.8-7.2-2.1-2.5-2.7-8.2-3-8.5Zm274.1 0c-.3.3-.9 6-3 8.5-2.6 3.1-8.7 3.3-9.8 7.2-1 3.4-1.2 11.6 2.8 12.9 13.4 4.4 20.2-24.5 14.1-28.1-.9-.5-3.5-.9-4-.4Zm-216.4 7.2c-1.5.4-5.1 4.6-6 6.1-3.4 5.6-5.6 32.3-4.8 39.3 1.3 10.9 15.2 18 19.5 3.5 1.7-5.6 2.6-21.4 2.5-27.6 0-1.1-5.8-19.7-6.5-20.5-1.2-1.4-3.2-1.3-4.8-.8Zm153.3-.1c.2 6.6-5.4 14.7-6 20.6-.5 4.5 1 25.3 2.4 29.4 4.2 12.1 16.9 7.3 19.1-2.9 1.1-5.2 0-16.8-.6-22.6-1-9.7-1.7-25.5-14.9-24.5m-180 1.9c-20.5 3.8-17 28.7-9 43 4 2.9 10.4-17 10.7-19.8.9-7.5-2.9-15.5-1.8-23.2Zm218 43c2.5 1.8 7.2-9.1 7.7-10.8 3.9-12.8 1.6-30.1-13.7-32.2.5 7.4-2.8 16.2-1.9 23.4.3 2.7 6.4 18.5 7.9 19.6m-148.2 10.2c1.4.8 4.8 8.6 9.5 11 11.1 5.8 20.2-6.4 20.7-16.7.8-13.7-7.2-7.7-16.5-8.6-8.4-.8-15-4.8-21.8-9.2-5.5-3.5-13.6-14.6-14.7-1.4-.5 5.1 1.4 7.5 1.8 11.2s-2 5.9.5 10.7c4.8 9.3 18 1.3 20.7 2.8zm93.1-31.1c-2.1-1.5-19.7 12.7-23.9 14.4-2.3 1-7.9 2.3-10.5 2.5-10.5.9-18.8-5.4-16.4 11.4 1 7.3 7.9 15.8 16 15.1 9.4-.8 11.9-11.6 14.6-12.4 4-1.3 12.3 5.7 18.9-1.1 4.3-4.4 1.3-8.4 1.5-12.5 0-2.3 1.9-4.8 2-8.1 0-1.9-.8-8.5-2.2-9.4Z" class="shading" data-original-prefix="shading" opacity=".2"/><path id="outline-shading-mouth1" class="outline"  fill="#000" d="M1041 1343c6.1.5 12.7-1 17.5-5 1.5-1.3.9-3.7 2.8-2.9 10.1 7.9 37.9 17.4 43.8 28.2 3.6 6.5 4.6 17.5-1.8 22.6-5.6 4.5-20.8 10.8-28 15-4.9 2.8-9.7 6.6-14.7 9.3-7.4 4.1-25.5 14.5-32.6 16.4-2.9.8-5.2.8-8.1 0-14.5-3.8-42.2-22.5-56.3-30.7-6.2-3.6-21.2-9.1-23.2-15.8-5.5-18.4 15.7-28.3 28.7-35.4 2.3-1.2 15.5-8.6 16.5-8.7 2.9-.3 4.2 2.9 6.7 4.2 4.2 2.3 10 3.2 14.7 2.8-.3-5.1-3.3-11.3-1.8-16.3.5-1.6 12.5-13.9 14.5-14.4 3.9-1 8.2-.3 11.6 1.9 1 .7 10.8 11.1 11.2 11.8 2.1 5-1.2 11.8-1.5 17" class="shading" data-original-prefix="shading" opacity=".2"/><path id="outline-mouth3" class="outline"  fill="#000" d="M889 1333c-13.5 7.3-27.4 9.4-38 21.5-7.1 8.2-19.1 26.1-18 37 .3 3.5 7.3 25.1 9.2 27.8 2.7 4 6.1 4.9 10.8 4.7-1.4-9 4.2-18.1 9.6-24.9 2.1-2.6 22-22.5 24.4-20.1-1.7 6.5-8.8 10.4-13 15.5-8.1 10-12.3 23.6-9.5 36.5 1.2 5.7 11 25.8 15 30 .7.7 7.1 6.3 7.5 6.5 3 1.5 6.9-6.1 7.8-8.2 1.7-3.8 2.1-7.7 3.7-11.3 4.4-10.2 9.4-18.4 18.5-25-5.1 13.9-9.5 44.6 1.5 56.1 4.8 5 9.9 2.7 14.3 4.7 2.8 1.3 3 5.7 4.8 6.1 2.6.6 7.2-4.9 14.1-2.1 5.2 2.1 8.6 15.6 13.9 16.1 2.5.2 10.2-12 18.4-9.4 5.6 1.8 19.1 24.8 24.4 23.5 6.1-5.4 3.7-12.4 5-19 1-4.8 6.1-10.3 7.8-15.2 3.7-10.9 1-26.5-1.9-37.5-.3-1.1-6.2-13.2-6.9-14.1-3.8-5.5-20.6-13-23-3.1-.4 1.8.2 7.9-2 7-4.8-4.4-9.5-9.2-14.5-13.5-3.8-3.3-11.2-7.6-14-11-3.5-4.3-14.5-27.1-14.7-32.2 0-3.1 8.4-13.8 10.8-16.8 1.4-1.7 10.5-12.5 11.2-12.8 6.4-3.2 28-2.3 34.7.8 8.4 3.8 12.4 12.1 18.5 17.5 5.2 4.5 2.5-1.7 2.5-3.6s.9-3.2.8-4.8c-.2-5.4-6.7-9.2-9.9-13.1-2-2.4-5.5-6.3-7-8.3-1.2-1.7-5.1-7.9-4.8-9.5.4-2.6 11.3-13.4 12.9-11.7-4.4 12.8-.7 8.7 7.3 12.2 1.2.5 3 2.7 3.2 2.7s2-2.2 3.2-2.7c3.4-1.5 9.7-.4 9.3-5.6 0-1.1-4.1-7.6-.5-6.6 2.8.8 12.1 10 11.3 13.2-6.2 9.4-13.5 17.8-21.1 26l-.8 12.7c1.7.4 2-.7 3-1.5 9.5-7.3 13.4-18 27.5-19.5 5.1-.6 23.6-.6 27.2 2.3 3.2 6.4 21.2 22.7 21 29 0 3.4-6.3 16.9-8.2 20.7-6.8 13.3-9.3 12.6-19.5 21.5-5.3 4.6-10.4 9.6-15.5 14.5-2.2.9-1.4-5.6-2.2-7.7-3.4-8.6-19-1.6-22.7 3.8-.6.9-6.2 11.4-6.6 12.4-1.3 3.6-.5 6.5-1.2 9.8-2.6 12.3-5.2 19.6.2 32.2 1.5 3.5 4.6 6.8 5.8 10.2 2.4 7.1-.8 16.6 6.6 21.1 8.3-2.8 16.9-21.3 23.6-23.5 7.7-2.4 15.9 9.6 18.4 9.4 5.6-.5 9.4-18.8 18.7-17.4 2.2.3 8.4 3.7 9.4 3.5 1.7-.4 2-4.9 4.8-6.2 3.9-1.8 8.9 0 13.3-3.7 11.5-9.9 8.1-43 2.5-56 1.6-1.6 11.3 10.4 12.4 12.1 4.9 7.6 6.1 15.6 9.7 23.3 1 2.1 4.8 9.8 7.8 8.2.4-.2 6.9-5.8 7.6-6.5 7.1-7.7 15.9-30.1 15.4-40.5-1-22.4-10.8-22.9-21.5-37.5-5.3-7.2 2.8-2.4 6 0 11.8 8.6 28 25.5 26.5 41 11.4 1.6 13.7-11.7 16.3-20.2 4.6-15.6 5.3-18.8-3.1-33.4-7.4-13-16.3-22.7-29.9-29.1-6-2.8-14.1-4.1-19.2-8.3 9.3.7 19.7 2.8 29.2 5.3 7.4 1.9 14.4 3.9 20.7 8.3 3.2 9.3 27.6 34.6 28 42 .2 3.9-8.4 23-10.2 28.7-2.4 7.4-1.3 15.8-9 20-2.1 1.1-8.8 2.4-9.5 3-3.6 3.6-1.9 26-2.2 32.3-1.2 29.7-2.2 52.7-20.5 77.5-.9 1.2-2.6 1.5-3.6 2.7-4.3 5.6-2.8 18.6-4.3 26.5-1.1 6-5 13.1-5.6 18.4-.4 3.6 1.4 7.3.2 10.1-1 2.4-9.9 8-12.6 9.5-2.2 1.2-5.7 1.5-6.5 2-.6.4-5.4 10.9-7.2 13.3-2.1 2.7-11.1 11.3-14 12.1-4.1 1.2-7.9-10.3-9.9-13s-2.3 2.3-3.6 4.3c-4.3 6.7-25.1 26.6-32.4 28.6-1.7.5-3.3.7-5 .5-.2-6.5 3.6-11.9-3-16.5-7.6-5.2-17.7 0-21.5 7.4-4.2 8.3-1.8 29.9-14.4 16.5-7.1-7.5-13-17.8-18.5-26.4-2.8 5-19.9 30.6-24 31-5.8.6-5.9-11.5-7.2-15.8-2.5-8.5-10.5-17.7-20-14.4-12.1 4.1-4.7 16.7-6.3 18.2-6 1.1-9.7-4.5-15-5-1.3 6.3-5.2 11.9-5.1 18.5.2 11.2 13.9 23.7 10.9 33.8-.8 2.7-3.4 3.2-5.5 1.4-3.7-3.3-7.9-17.8-10.4-23.1-3.8-8-11.3-14.9-9.4-23.7 1-4.7 7.9-13.9 7.6-17.4-.5-5.3-12.8-12.5-12-18.6-1.2-.2-1.3-.3-2.1.6-2.1 2.7-6.2 14.3-10.2 13.3s-12-10.2-13.7-12.4c-2.1-2.7-6.6-12.8-7.2-13.2-.7-.5-4.2-.8-6.5-2-2.5-1.3-12.6-7.8-13.2-9.9s1.2-6.2.8-9.7c-.6-5.1-4.5-11.5-5.6-17.4-1.7-8.4.3-19.9-3.9-26.1-5.9-8.8-10.5-12.8-15.3-23.7-13.6-31.3-7.5-52.3-10.1-83.9-.8-9.9-3.8-5.3-10.8-9.3-8.2-4.6-6.8-13.1-9.3-20.7-1.9-5.9-9.7-21.8-10-26.1-.2-3.3 1.1-4.7 2.5-7.3 6.8-12.4 18.9-24.3 26.1-36.9 5.9-4.3 13.2-6 20.1-7.9 9.7-2.6 19.8-4.7 29.2-5.3Zm15 128c-1.4-1.5-7.8 8.9-8.4 10.1-10.6 19.9-8.6 50.8-1.8 71.7 1.1 3.3 9.4 22.1 12.8 21.2 4.4-1.1 10.8-28.9 12.8-34.3 4.3-11.7 13.6-22.1 8.6-35.6-4.8-.6-12.2 1.2-15.9-2.9-1.4-1.5-8.5-21.7-8.8-24s.8-4 .8-6.2Zm240 103c.6-.4 6.8-10.5 7.5-12 6.2-12 8.8-32.9 9.5-46.5.8-15.3-4.1-32.2-14.6-43.5l-2.2 9.8c-4.9 13.6-4.6 25.2-23.1 22.4-5.2 13.7 4.3 23.9 8.6 35.6 3.1 8.4 6 27.5 11.8 33.2.7.7 1.4 1.8 2.4 1.1Zm-262.3-85.7c-1-.9-4.6-2-6.6-3.9-4.2-3.9-7.8-13.1-14-4.7-13.3 17.9-4.1 44.9 7 61.7 1.6 2.4 11.5 15.7 13.3 15.7.5-8 1.2-16.5.5-24.5-.4-5.4-3.1-12.3-3.1-18s6-23.3 2.8-26.2ZM1167 1547c1.7.4 2-.5 3-1.5 17.5-18 32.6-50.9 18.4-74.4-6.5-10.8-10.8-.4-16.9 4.9-2 1.7-5 1.6-5.5 4.5-.8 4.5 4 18.3 4 24s-3.3 14.8-3.6 21.2 1.6 14.6.6 21.3m-219.1-51.9c-4.7-3.3-6.5 7.1-7.7 9.6-5.3 11-11.8 23-12.2 35.8-.2 7.6 10.5 26.2 19.1 21 3-1.8 4.7-18 5-22 .4-6.4.2-41.4-4.1-44.4Zm67.8 32.2c-3.2-2.8-9.7 3.2-15.8 1.3-2.1-.7-8.7-7.5-10.5-9.5-2.6-2.9-3.4-8.8-8.2-7.4-12.2 3.5-20.5 24.1-21.2 35.9-.9 13.6 2.4 21.7 11.5 31.5 9.8 10.4 24 15.7 36.1 23h2.3c2.1-6.4 6.2-12 8.1-18.4 3.7-12.2 7.9-47.3-2.3-56.2zm23.4 74.6c1.1.7 3.4 0 4.6-.7 5.6-2.4 20.1-11.1 25.2-14.8 13.4-9.8 21.4-21.7 20.1-38.9-.9-11.9-9.2-33-22-36.1-4.4-1.1-5.5 5-8 8-1.7 1.9-7.3 7.9-9.2 8.8-9.2 4-14.3-9-20 5-5.4 13.2-2.6 37.5 1.5 51.1.7 2.2 7.1 17.1 7.9 17.6ZM885 1559c-3.2-3.3-6.4 8.4-5.8 12.3.7 4.5 5.4 23.4 7 27 1 2.2 6.2 8.5 8.7 6.7 3.4-2.4 3.2-20.7 4-25.4-.5-3.1-8.3-6.1-11-10-2.3-3.5-2.6-10.1-3-10.5Zm32 4c-1.9-2.2-11.8 12.5-12.4 14.1-1.7 4.6-3 25.2-2.4 30.3.9 7.9 5.6 18 11.4 23.6 1.4-8.8 5-18.6 5.5-27.5.8-13.1-3.7-27.1-2-40.5Zm218 68c7.1-5.4 12.1-18.8 11.8-27.5 0-2.6-1.7-5.2-1.8-8-.3-5.4.8-12.5-.5-17.5-.6-2.3-10.4-17.3-12.5-15 1.5 13.8-3.1 28-2 41.5.7 8.7 4.6 17.6 5.1 26.5Zm-35-62c-2.8 14.2-8.1 27.9-9 42.5-.3 5.3-1.4 33.3 3.6 34.4 2.4.6 18.8-13.3 20.9-15.9 8.3-10.5 3.8-32.3-1-44-1.2-2.9-11-19.9-14.5-17m-82 44c-3.5 0-6.1 2.5-9.6 2.9-12.7 1.6-29.1-13.9-41.4-16.9v24.5c0 .6 3.2 8.2 4.1 8.9 6.5 5.2 18.9-.4 24.4 5.6 2.6 2.9 4.3 10.3 10.6 5.5 1.1-.8 11.9-13.1 11.9-14.1v-16.5Zm64-13c-13.2 1.2-27.8 17.6-41.4 15.9-3.5-.4-6.1-3-9.6-2.9v17.5c0 1.1 13 14.6 15.4 14.5 4.9-.3 5.1-4.7 7.1-7 5.5-6 18.3-.4 24.4-5.6 1-.9 4-9.7 4-11v-21.5Z" class="outline" data-original-prefix="outline"/><path id="outline-mouth2" class="outline"  fill="#000" d="M1122 1332c-.2 0 .2 1.6 0 1.9-1 .8-8.1-5.8-10.2-7.1-10-6.1-19.8-8.3-31.2-9.8-2.9-.4-6.9.7-9.5-.5-1.5-.8-4.5-7.4-6.5-9.5-7.8-8.7-15.6-10.2-25.8-13-1.1-.3-.6-1.9-.7-2 3.1-3.8 16.2-9.3 20.8-9.8 7.9-.9 5.5 4.4 6.5 9.1 2.3 10.7 9.3 19.6 21.3 18.8 5.1-.3 5.6-4 7.9-4.1 1.4 0 6.6 2.9 8.2 3.8 9.4 5.2 15 12.5 19.3 22.2z" class="outline" data-original-prefix="outline"/><path id="outline-mouth1" class="outline"  fill="#000" d="M1011 1292s.4 1.7-.7 2c-10.2 2.8-17.4 4.1-25.4 12.5-2 2.1-5.6 9.2-7.2 9.9-3.4 1.4-13.5 1-18.1 1.8-12.5 2.1-23.6 8.7-33.1 16.9.2-.9-.5-2.8-.5-3 .7-2.3 8.9-13.5 11-15.5 2.4-2.4 14.7-10.5 17.6-10.4s3 5.1 11.9 3.9c10-1.3 16.2-10.1 17.5-19.6.4-2.6-2.4-6.7 2.8-8.2 3.5-1 21.7 5.6 24.3 9.8Z" class="outline" data-original-prefix="outline"/></g><g id="04_Eyes" data-trait="trooper"><path id="fill-eyes-main" class="fill"  fill="#fff" d="M1244.8 1350.8c-1.7.9-10.6-4.2-12.8-5.3-49.4-24.9-96.9-53.8-146.3-78.7-5-3-9.1 2.8-13.3 3.2-5.4.6-7.4-4.2-10.9-7-4-3.1-20.3-13.3-21.3-16.7-1.3-4.6.1-16.1-.2-21.8-.5-9.4-1.8-18.9-2.1-28.4-3.6-1.5-27.3-1.9-28 .5l-2.5 50.4c-6.1 6.4-14 10.7-21 16.1-3.7 2.8-5.2 7.3-10.9 6.9-4.5-.3-8.3-5-12.9-3.8-53 28.3-105.4 57.9-159.1 84.9-18.6-17.6-34-38.1-51.1-57.1-18.7-20.7-39.5-40.6-57.5-61.5-9.3-10.7-9.6-34.2-12.3-48.7-.7-3.6-3.1-18.6-4.6-20.4-2.8-3.4-10.3-.4-13.6-.6-2.4 0-12.6-5.9-15.2-7.6-5.7-3.7-32.3-26.1-33.8-31.2-1.2-4 1.5-10.3 2.8-14.3 10.6-31.8 38.3-80.4 63.7-102.3 3.2-2.7 15.8-12.3 19-13.1 3.7-.9 10.7 2.2 15 0 3.3-1.6 5.2-10 6.8-13.2 3.3-6.7 23.3-24.8 30.2-30.8 33.5-29.6 95-72.8 135.7-90.3 16.8-7.2 25.7-4.2 42.9-5.1 60.2-3 124.7-3 184.9 0 8.4.4 17.7-.8 26 0 20.9 1.9 79.8 41.3 99.2 54.8 26.6 18.4 46.8 35.8 70.3 57.7 4.4 4.1 8.8 5.1 11.9 11.1 1.8 3.6 4.4 14.1 8.1 15.9 4.3 2.1 11.3-1 15 0 3.3.8 15.9 10.4 19 13.1 25.4 21.9 53.6 71.1 64 103 2.1 6.4 4.9 10.7.5 16.5-6.1 8.2-36.8 34.5-46.2 35.8-3.6.5-11.4-3-14.4.6-1.5 1.8-3.9 16.8-4.6 20.4-2.7 14.4-3.1 37.9-12.3 48.7-18 20.9-38.9 40.8-57.5 61.5-12.9 14.3-24.7 30-38 44-4.1 4.4-8.9 8.1-12.7 12.8Z" class="fill" data-original-prefix="fill"/><path id="fill-eyes-pupil2" class="fill"  fill="#fff" d="m806.6 1195 77 43c2 3.2-8.3 13.8-11.2 15.8-24.4 17.7-59.4-.3-67.6-27.1-2.8-9.1-3.2-23.5 1.8-31.8Z" class="fill" data-original-prefix="fill"/><path id="fill-eyes-pupil1" class="fill"  fill="#fff" d="M1240.7 1195.1c2.7-.2 4.1 8.2 4.3 10.4 3.7 37.4-37.1 71.7-69.3 48.3-2.9-2.1-13.3-12.6-11.2-15.8z" class="fill" data-original-prefix="fill"/><g id="fill-eyes" class="fill" ><path id="fill-eyes4" class="fill"  fill="#fff" d="M797 1335c-.2.3-3.4-1.9-4-2.5-25.8-20.9-59.2-59.8-81.5-85.5-5-5.8-16.9-18.1-19.9-24.1-4.6-9.4-10-58.9-10.6-71.4-.3-7.5.8-13.4 3-20.5 1.6 0 1.6 3.4 1.8 4.7 4.7 23.4 6.7 47.5 10.9 71.1 31.3 34.2 66.7 64 101.3 94.7 2.2 2.5 0 5.4 0 8.1-.2 8.6-.5 17-1 25.5Z" class="fill" data-original-prefix="fill"/><path id="fill-eyes3" class="fill"  fill="#fff" d="M1251 1335c-.5-8.5-.8-16.9-1-25.5 0-2.7-2.3-5.5 0-8.1 34.6-30.7 70-60.5 101.3-94.7 4.2-23.5 6.2-47.6 10.9-71.1.2-1.3.2-4.7 1.8-4.7 2.2 7.1 3.3 13 3 20.5-.6 12.5-6 62-10.6 71.4-2.9 6-14.9 18.3-19.9 24.1-22.3 25.8-55.7 64.6-81.5 85.5-.6.5-3.8 2.8-4 2.5Z" class="fill" data-original-prefix="fill"/><path id="fill-eyes2" class="fill"  fill="#fff" d="m1241 1310-3 31c-2.2 2.2-34-13.2-39-15-.3-1.7 2.4-1.1 3.5-1 3.9.2 8.3 1.9 12 2 10.8.5 16.9-13.2 26.5-17" class="fill" data-original-prefix="fill"/><path id="fill-eyes1" class="fill"  fill="#fff" d="M848 1325c-.2 1.5-1.9 1.9-3 2.5-3.9 2.3-33.2 15.2-35 13.5l-3-31c.6-.7 6.6 4.3 7.5 5 2.9 2.4 10.5 10.6 13.5 11.5 6.2 1.9 13.6-2.2 20.1-1.5Z" class="fill" data-original-prefix="fill"/></g><g id="shading-eyes" class="shading"  class="st2"><path id="outline-shading-eyes5" class="outline"  fill="#000" d="M1222.1 1045.9c.7.5 4.8 0 6.9.6 3.4 1 8.2 3.7 12 5s15.5 3.2 16.8 6.2l5.2 89.3c40.5-18.7 80.1-39.2 119.6-60 7.6-1.1 20.2 10.6 26.7 15.2 7.9 5.6 30.9 14.8 10.7 22.2l-34.4 37.7c-9 1.3-16.5-4.6-17.6 8.9-1.4.3-2.4-.3-3.6-.9-8.4-4.1-19.3-14.6-28.1-19.9-1.8-1.1-11.3-6.2-12.6-6-36.9 21.7-75.9 39.4-113.8 59.3-32.1 16.9-63.5 35.2-95.3 52.7-4.7 2.6-16.9 7.2-20.1 9.9-2 1.7-1.4 3.8-1.6 3.9-.6.6-7-3-9.5-3.1-4.9-.2-6.5 2.5-10.1 3.1-6.6 1-6.3-2.4-10.5-5.4-4.5-3.2-21.4-14.1-22.7-18.3-1.7-5.7 1-16.7-1.2-23.3 2.3-2.4 14.3 11.6 18.2 9.8 65.4-24 127.8-55.2 190.8-84.4-2.7-21-2.3-42.9-5.2-63.8-.8-5.6-2.4-20.7-7.9-23.1-1.9-.8-4.2-.2-6-1-9.4-3.8-18.4-11-26.7-16.8-12.4-27.3-20.8-56.4-38.4-81-7.7-10.7-19.2-22.9-28.3-32.7-19.1-20.7-39.9-40.2-59.5-60.5 0-.8 14.1-5.9 15.9-5 17.9 17.1 37.2 32.8 55.1 50 15.8 15.2 24.5 24.4 35.2 43.8s20.8 42.3 30 63c1.5 3.4 8.9 23.8 9.9 24.5Z" class="shading" data-original-prefix="shading" opacity=".2"/><path id="outline-shading-eyes4" class="outline"  fill="#000" d="M812.2 1061.2c-.5.3-3.9 5.9-4.3 7.2-5.2 26.4-5.7 53.6-7.8 80.4 62.9 28.6 124.8 59.9 189.8 83.7 4.7 2.7 15.4-10.6 17.5-10.6 2.9 0 .6 7.1.5 8.5-.2 4.4.7 11 0 15-.9 4.7-18.3 15.8-22.9 19.1s-3.7 6.4-11.3 5.2c-3.1-.5-7.1-3.7-9.2-3.7s-8.6 4.8-9.5 3.9c-.2-.2.4-2.2-1.6-3.9-3.2-2.7-15.4-7.3-20.1-9.9-32.5-17.8-64.5-36.4-97.3-53.7-36.9-19.5-75.2-36.6-111-58.1-2.7-.7-10.4 4.1-13.3 5.8-8.5 5.1-21 16.6-28.7 20.3-5.4 2.5-2.7-6.1-6-8-3.8-2.2-11.3 1.4-14.5-.4-9.4-9.9-17.9-20.8-27.5-30.6-1.9-2-5.6-6.2-7.5-7.5-3.5-2.3-9.6-1.6-7.1-9 1.1-3.4 12.9-9 16.5-11.5 4.9-3.4 19.3-15.3 23.8-16.2 3-.6 4.8 0 7.5 1.1 9.6 3.8 22 12.3 31.7 17.3 28.1 14.3 56.4 28.2 85 41.5l5.5-90 29.2-10.8 6.2-.3c12.2-30 25.4-61.1 41-89.5 10.5-19.2 20.6-28.9 36.2-43.8 17.2-16.5 35.7-31.7 53-48 .7-.5 1.4-.4 2.2-.3.7 0 12.2 4 12.8 4.3 1.2.7 1.1 1.2 0 2-20 20.6-41.1 40.3-60.5 61.5-17.2 18.8-32.3 36.3-43.3 59.7-7.7 16.3-13 34.6-21.1 50.9-7.8 7.3-17.9 14.2-28 18-2 .7-4.6 0-5.8.7Z" class="shading" data-original-prefix="shading" opacity=".2"/><path id="outline-shading-eyes3" class="outline"  fill="#000" d="M1035 1195h-22c.1-4.6 2.5-12.1 2-16.4-.6-5.1-16.3-23.1-5.3-26.4 9.2-2.8 11.3 10.5 14.7 9.8 2.6-.6 7.8-16.3 15.7-8.5 7.1 7.1-5.5 17.5-6.8 23.3-1.1 4.8 1.3 13.1 1.8 18.3Z" class="shading" data-original-prefix="shading" opacity=".2"/><path id="outline-shading-eyes2" class="outline"  fill="#000" d="M1252.7 1292.3c5.5 4.6 7.4 40.3 3.4 45.3-2.8 3.4-8.4.5-8.6-3.5.3-12.3-3.7-25.5-2.4-37.6.5-4.6 3.7-7.5 7.7-4.2Z" class="shading" data-original-prefix="shading" opacity=".2"/><path id="outline-shading-eyes1" class="outline"  fill="#000" d="M798.8 1337.8c-3 3-6.9.9-8.1-2.9-1.8-5.8-.8-27.6.6-34.1 2.1-9.8 10.7-14.7 11.8-2.3.4 4.5-2.5 37.5-4.3 39.3" class="shading" data-original-prefix="shading" opacity=".2"/></g><path id="outline-eyes" class="outline"  fill="#000" d="M1017 1195c-.5 10.1-1.6 20.3-2 30.5-.3 6.5 1.3 20.7-.2 25.8s-27 19.7-31.4 25.6c-8.6 4.4-16.5-3.5-24.4-3.4-27.3 15.9-54.9 33.6-82.9 48.1-18.8 9.7-40.2 16.8-58.7 26.3-13.8 7.1-14.2 15.1-28.8.2-20.2-20.6-39.5-45.4-59-67-15.8-17.6-34.4-34.1-47.4-53.6l-10.1-60.4-3.5 9c-7.8-6.2-17-9.1-25.2-14.8-6.9-4.8-31.6-25.8-34.7-32.3-3.6-7.6 1.9-20.4 4.7-28.2 11.1-30.9 34.9-72.7 58.7-95.3 5.7-5.4 22.1-18.8 29.7-19.1 2.4 0 8.1 2.2 9.2 1.5 1.9-1.1 5.9-15.2 10.6-19.9 34.2-33.8 74.5-63.2 115.6-88.4 16.2-9.9 48.3-30.6 66.4-31.6 6.3-.3 11.9 1.2 18.1 1.1 19-.3 38.2-3.2 58-3.1 29.2.2 58.7.2 87.9 0 20.2-.1 39.6 2.8 59 3.1 6.2 0 11.6-1.4 18-1 16.6 1 41.1 16.5 55.8 25.2 43.8 25.8 80.9 53.4 117.7 88.3 4.6 4.4 8.8 5.2 12.4 11.6 1.4 2.6 5.1 13.8 6.8 14.8 1.1.7 6.8-1.6 9.2-1.5 5 .2 13 5.7 17.1 8.7 30.3 21.9 58.7 70.9 71.3 105.7 2.6 7.2 8 20.4 5 27.5-2.9 6.7-28 28.2-35 33-8.2 5.6-17.7 8.3-25.2 14.8l-3.5-9-10.1 60.4c-13.4 19.3-31.6 35.9-47.4 53.6-19.5 21.7-38.8 46.5-59 67-14.6 14.9-15 6.9-28.8-.2-19.2-9.9-41.1-17.1-60.7-27.3-27.4-14.2-54.4-31.3-80.9-47.1-3.8-1.6-6.7 2.1-10 3.1-14.3 4.4-14-.3-23.5-7.5-4.4-3.3-21.1-13.8-22.3-17.7-1.5-5.1.1-19.3-.2-25.8-.5-10.1-1.5-20.3-2-30.5-.7-12.4-2.2-24.9-1.8-37.3 22.2-18.9 47.2-35.4 71.9-51.1 33.5-21.3 68.1-41.5 103.9-58.6-14.6-29-28-59.3-45.6-86.9-11-17.2-22.3-29.9-36.9-44.1-13.2-12.9-34.4-33.7-49-44-2.1-1.5-4.3-2.9-7-3-26.9 2-57.6-2.6-84.1 0-3.6.3-5 1-8 3-9.8 6.8-23.3 20.1-32.5 28.5-20.3 18.6-38.5 36.2-53.4 59.6-17.6 27.6-30.9 57.7-45.6 86.9 30.3 14.2 59.4 31.1 87.9 48.6 30.3 18.7 60.7 38.3 87.9 61.1.4 12.4-1.1 24.9-1.8 37.3Zm-57-324c-11.2.3-22.4-.4-33.5 0-7.4.2-21.1.2-27.7 1.3-6.1 1-31.1 15.9-38 20-41.7 24.4-85.3 59.8-114.7 98.3-1.7 2.3-5.3 6.6-3.6 9.5l93.5 43c4.2-10.8 9.1-21.8 14.2-32.4 18.2-37.8 32.8-68 63.3-97.7 15-14.5 31.5-27.5 46.5-42m252 172 92.4-42.1c2.7-1.6 1.6-4 .4-6.3-2.6-5-18.1-22-22.8-27.2-29.2-31.6-64.9-58.6-102.4-79.6-5.8-3.2-25.4-14.8-30.4-15.6-6.6-1.1-20.3-1.1-27.7-1.3-11.2-.3-22.4.3-33.5 0 15 14.5 31.6 27.4 46.5 42 30.5 29.7 45.1 59.8 63.3 97.7 5.1 10.5 10 21.6 14.2 32.4m-392 6c-32.5-16.1-65.9-30.7-101-40.5-4.4-1.2-16.6-5.4-20.3-4.3-4.6 1.3-34.5 51.4-38.9 59.1-9.6 17-19.2 34.4-25.7 52.9l35.3 44.7c1.2-.7.2-2.9 0-4-1.3-9.2-3.9-20.8-6.2-29.8-2-7.9-4.2-17.2-9.3-23.7 5.6-.3 12.2 3.1 17.7 5.3 9 3.7 17.9 8.2 26.7 12.3 30.9 14.6 60.6 31.7 91.6 45.8 1.4-21.5 4.2-43 6-64.5 1-11.3 0-29.9 3.1-39.9 2.8-9.1 11.8-9.3 19.5-11.5 1.5-.4 1.7.6 1.5-2Zm558 112c4.3-5.8 36.4-42.5 35.8-46.3-.3-1.9-5.7-13.3-7-16.1-9.9-21.8-24.5-46.3-37.4-66.6-2.8-4.3-16.2-25.5-18.8-27.2-3.6-2.2-9 .2-13 1.1-37.9 9-74.6 26.2-109.6 42.9-.3 2.6 0 1.6 1.4 2 7.6 2.2 16.7 2.4 19.5 11.5 3.1 10.1 2.1 28.7 3.1 39.9 1.8 21.5 4.6 43 6 64.5 31.1-14.2 60.8-31.3 91.6-45.8 8.8-4.1 17.7-8.6 26.7-12.3 5.4-2.2 12.1-5.7 17.7-5.3-10.4 16.7-11.9 38.5-16 57.5Zm-383.3 87.7 15.2-82.4-.9-2.9c-36.4-25-73.2-49.3-111.4-71.6-16.9-9.8-35.2-20.7-52.7-29.3-3-1.5-8.2-4.8-11.3-4.1-1.7.4-12 5.8-13.4 7-5.7 4.7-8.1 16.6-9.8 23.7-6.6 27.2-10.3 55.1-13.4 82.9 59.8 29.5 117.8 62.7 177.9 91.7 1.1.6 1.9.4 3 0 3.5-1.6 11.7-13 16.8-14.8Zm233-183.4c-1.4-1.2-11.7-6.6-13.4-7-3.2-.7-8.4 2.7-11.3 4.1-17.4 8.6-35.8 19.5-52.7 29.3-38.2 22.2-75 46.6-111.4 71.6l-.9 2.9 14.6 81.4c4.7 2.4 13.9 14.2 17.4 15.8 1.1.5 1.9.6 3 0 60.1-29.1 118-62.2 177.9-91.7-3-27.8-6.8-55.7-13.4-82.9-1.7-7.1-4.1-19-9.8-23.7ZM797 1335c.5-8.5.8-16.9 1-25.5 0-2.7 2.3-5.5 0-8.1-34.6-30.7-70-60.5-101.3-94.7-4.2-23.5-6.2-47.6-10.9-71.1-.2-1.3-.2-4.7-1.8-4.7-2.2 7.1-3.3 13-3 20.5.5 12.5 6 62 10.6 71.4 3 6 14.9 18.3 19.9 24.1 22.3 25.8 55.7 64.6 81.5 85.5.6.5 3.8 2.8 4 2.5Zm454 0c.2.3 3.4-1.9 4-2.5 25.8-20.9 59.2-59.8 81.5-85.5 5-5.8 16.9-18.1 19.9-24.1 4.6-9.4 10-58.9 10.6-71.4.3-7.5-.8-13.4-3-20.5-1.6 0-1.6 3.4-1.8 4.7-4.7 23.4-6.7 47.5-10.9 71.1-31.3 34.2-66.7 64-101.3 94.7-2.2 2.5 0 5.4 0 8.1.2 8.6.5 17 1 25.5Zm-444.4-140c-5 8.2-4.7 22.6-1.8 31.8 8.2 26.7 43.2 44.7 67.6 27.1 2.9-2.1 13.3-12.6 11.2-15.8l-77-43Zm434.1.1-76.2 42.9c-2.1 3.2 8.3 13.8 11.2 15.8 32.3 23.3 73-10.9 69.3-48.3-.2-2.1-1.6-10.7-4.3-10.4M848 1325c-6.4-.7-13.9 3.5-20.1 1.5-2.9-.9-10.5-9.1-13.5-11.5-.9-.8-6.8-5.8-7.5-5l3 31c1.8 1.7 31.1-11.2 35-13.5 1.1-.7 2.8-1 3-2.5Zm393-15c-9.5 3.8-15.7 17.5-26.5 17-3.7-.2-8.1-1.8-12-2-1.1 0-3.8-.7-3.5 1 5 1.8 36.8 17.2 39 15z" data-original-prefix="outline"/></g><g id="05_Right Ear" data-trait="lop-eared"><path id="fill-ear-rt" class="fill"  fill="#fff" d="M1463.9 815.1c-1.1-.7-8-.2-9.6.6-.7.3-10 9.7-11.1 10.9-6.2 7.2-20.7 26.1-25 34-4.6 8.5-7.7 20-12 29-17.8 36.8-49.6 57.6-83.3 78.7-7.6 4.8-29.5 17.5-37.9 16.2-7-1.1-34.8-11.7-42-15.1-21.9-10.4-41.9-30.6-57.5-48.5-3.2-3.6-15.1-14.9-15.5-18.6-.3-3.2 3.6-17.9 4.7-22.2 8.4-34.6 26.4-65.8 37.6-99.4 7.8-23.5 15.9-52.5 21.2-76.8 12.6-56.9 6.2-116.2 18.8-173.2 6.5-29.5 44.6-53.4 68.8-69.2 18.9-12.3 68.6-41.2 89.5-43.5 15.6-1.7 55.8 8.9 72.8 13 32.2 7.7 82.2 19.7 108.9 38.1 28.8 19.8 56.1 41.5 79.2 67.8 28.8 32.7 32.2 44.2 17.2 86.3-24.8 69.4-61.7 123.7-101.8 184.2-17.7 26.7-44.5 75.8-67.1 95.9-5.7 5-12.1 7.7-19.2 3.5-6.7-4-7.2-14.3-9.9-21.1-5.9-15.2-13.1-29.9-18.8-45.2-1.4-3.7-7-24.7-8.1-25.4Z" class="fill" data-original-prefix="fill"/><path id="outline-shading-ear-rt" class="outline"  fill="#000" d="M1693 608c1 1-4.3 15.7-5.2 18.2-24.8 67.4-59.8 119.2-98.8 178.2-21.9 33.2-41.9 67.9-68 98.1-1 .6-21.9-3.9-22.8-4.8-6.2-16-12.7-32-18.2-48.3-2.8-8.2-5.2-22.3-8.8-29.2-6.7-12.9-25.5-1.8-31.6 6.8L1375 927.4c-15.2 15.6-73.2 61.5-94 58.1-27.4-10.3-54.4-22.9-76-43.1-7.2-6.8-11-13.5-16.6-21.4-1.2-1.8-4.3-3.7-4.9-5.1-2-4.3 2-12.6 4.7-16.3 58.6-63.6 106.8-135.2 139.3-215.7 2.7-6.6 6.2-14.1 8.2-20.8 12.4-39.6 1.6-77.7 5.3-117.7.1-1.6 1-7.4 1.9-8.1 36-.7 71.8-5 107.1 5.1 4.8 4.7-.7 11.5 1.5 16.5.9 1.9 19.3 19.7 22.5 22.5 22.5 20.7 50.8 41.6 76.3 58.7 18.7 12.6 25.8 21.5 49.7 12.2 27.4-10.6 54.6-28.2 81.7-40.3 1.6-.7 10.7-4.9 11.3-4.1Zm-243.1 187.9c.7-1.2-.2-3.3-.7-4.6-1.1-3.3-15.2-30.7-16.9-31.2-14.9 4.2-27.9.2-41.7 8.1-20.9 12-39.7 56.6-52.5 78.5-13.9 23.7-28.5 47-45.2 68.8-10.3 13.5-11.2 12-16.5 29.5-2.2 7.2-4 14.6-5.5 22 .7.7 7-4.7 8-5.5 19.1-15.9 39.4-37.3 56.5-55.5 15.3-16.3 30.8-30.3 38.5-51.5 3.8-10.5 6.9-31.8 15-38 7.4-5.8 26.8-8.1 36.8-11.2 3.2-1 23.3-8.1 24.1-9.4Z" class="shading" data-original-prefix="shading" opacity=".2"/><path id="outline-ear-rt" class="outline"  fill="#000" d="M1204 941c-.3 1.7-3.1-.2-3.9-.6-7.2-3.8-17.7-9-23.1-14.9-11.1-12.2-18.6-30.8-29.5-43.5-1.1-2.6-.7-7.5-.5-10.5.9-20.2 13.6-36 21.8-54.2 9.5-20.7 16.6-37.4 27.3-57.7 35.2-66.4 43.6-127.5 46.8-202.2.5-10.7-2-36.2 1.5-44.5 1.4-3.3 13-13.4 16.5-16.5 21.7-19 49.4-37.3 73.5-53.5 14-9.4 50.3-35.6 64.1-39.9 42.4-13.3 127.4 18.5 168.4 35.5 32.1 13.3 72.4 28.4 93.2 56.8 15.6 21.2 47 74.4 50.6 99.5 1 7.4-8.7 31.3-11.8 39.8-35.5 98.7-94.4 215.4-170.5 288.5-7.1 6.9-19.8 19.2-27.6 24.4-1.1.8-9.4 5.2-9.9 4.6-1.7-24.9-6.5-50.8-13.7-74.8-1.4-4.7-3.2-9.4-5.1-13.9-1.9-4.4-15.5-30-19.5-29.2-6.2 1.1-28.3 40-31.8 47.2-5 10.4-7.9 21.5-12.3 31.7-5.6 12.7-20.1 19.7-30.5 28.5-11.3 9.6-20.6 22.3-32.7 30.3-10.6 7-40.6 20.7-52.8 20.2-11.7-.4-41.3-16.4-51.5-23 8.6.3 16.8 5 25.6 5.9 37.8 3.8 59.7-18.4 86.4-41.4 21.6-18.5 29.3-31.5 42.5-56.5 8.9-16.8 16.4-34.2 23-52l26.6-18.7-60.6-103.4c-1.9 2-1.5 4.5-3 7-3.9 6.4-17.6 18.5-23.4 25.6-34.1 41.1-71.2 101.1-93.2 149.8-10 22.1-22.8 52.5-10.8 75.7-1.4.3-2.4-.2-3.7-.8-4.5-1.9-23.8-17.8-25.1-21.9-1.9-6.1 3.5-21.4 1.9-28.7 12.2-19.5 26.9-37.6 38.1-57.9 24.5-44.3 42-94.9 71.4-136.6 6-8.5 14.6-15.7 20.8-24.2 4.8-6.4 10.9-14.3 10.6-22.4-.7-14.4-5.8-30.2-6.9-44.1-.2-2.2-.4-4.6 0-6.8.7-4 11.7-17.3 14.8-22.2 8.2-13.4 22.4-40.6 6.2-52.8-12.2-9.3-28.9 1.5-42 2.5-1-12.5 18.7-18.5 28.5-22 25.7-9.4 40-10.3 66.3-2.2 5.3 1.6 28 8.1 26.1 15.6-.4 1.7-9.4 6.6-11.8 8.3-20.8 15.2-37.8 32.8-50.6 55.4-3.8 6.6-13.3 26.5-13.1 33.4.2 5.3 6.5 22.2 8.6 28.2 8.4 23.3 20.3 47.1 34.8 67.2 5.7 7.9 14.6 16.1 19.4 23.6 6.2 9.6 11.6 26.1 16.9 37 15.2 31.3 30.8 62.3 43 95 1.7 1.2 2.3 6.8 4.3 6.6 9-.9 29.9-27.5 35.9-35.1 49.7-62.8 110.8-167 129.1-244.9 2.2-9.3 5.9-23.2 2-32-5.7-13.1-34.2-49.7-44.6-61.4-47.2-53.1-148.3-76.6-216.4-84.6-41 14.3-80 35-114 62.1-6.3 5-26.1 21-29 27-14.1 28.2-19.5 95.6-22.5 128.5-2.4 27.1-.3 58.6-10.8 83.2-7.8 18.2-18.3 36.1-26.3 54.7-14.2 32.7-25.5 66.6-39.8 99.2-2 14 18.3 43.4 27.9 53.4Z" class="outline" data-original-prefix="outline"/></g><g id="06_Left Ear" data-trait="OG"><path id="fill-ear-lft1" class="fill"  fill="#fff" d="M326.7 182.1q1.65-.45 3.3.3l180.7 78.4c55.2 39.7 111.9 77.8 165.3 119.7l109 135.9c10.5 65.4 16 132 25.2 197.8 24.6 50.1 52.6 98.7 77.3 148.7 1.5 3.1 5.4 9.5 5.5 12.5.2 4.7-8.5 15.9-11.2 20.8-15.1 27.1-18.8 33.2-43.9 52.1-22.9 17.2-44.3 28.5-72.5 35.5-8 2-18.1 5.7-25.3.5l-82.9-79.1c-9.9-22-17.5-45.3-28.1-66.9l-154-109c-23.7-34.4-41.7-73.1-64.9-108.1-9.8-43.7-27.6-90.2-34.9-134.1-5.9-35.7-6.9-73.6-12.5-109.5-9.3-20.9-22.7-40-30.5-61.5-1-40.6-6.8-81.2-8.3-121.7-.1-3.4-1.1-11.4 2.8-12.4Z" class="fill" data-original-prefix="fill"/><path id="outline-shading-ear-lft1" class="outline"  fill="#000" d="M664 558v21.5c0 22.8 19.2 43.4 30.4 61.6 38.9 63.4 63.1 129 108.2 189.8 16.2 21.8 35 41.1 51.9 62.1 4.8 5.9 9.3 10.3 9.5 18.5.2 6.2-2 12.6-1.1 19l-.9 2.1-60.1 40.9c-13.7.2-28.1 9.9-40.7 12.4-1.5.3-2.8.5-4.2-.3l-76.6-51.4-69.8-109.7c-33.8-23.4-81.3-39.6-107.2-72.3-4.2-5.3-6.4-12.2-10.5-17.5.3-1.1 2.2-.4 3 0 7.1 2.9 21.5 16.6 29.2 21.8 23.5 15.5 51.4 30.4 77.3 41.7 17.3 7.5 35 10.9 52.9 16.1 7 15.4 12.9 31.5 20.2 46.8 8 16.6 27 35.1 40.2 48.8 19 20 39 39.1 59.5 57.5 1.5.2 1.8 0 1.4-1.4-1.9-7.7-7.7-31.2-11.1-36.9-4.7-7.9-16.1-19.2-22.2-27.8-25.1-34.9-42.3-72.5-64.4-108.6-7.4-12-9.8-16-22.8-22.2-38.1-18-78.4-19.1-114.3-41.7-26.9-17-34.3-26.3-51.1-52.9-25.7-40.5-46.4-86-61.2-131.8-4.2-12.9-10.9-32.4-12.7-45.3 0-.6-.3-1.6.5-1.5 14 25.4 25.6 52.8 42.1 76.9 5.6 8.2 12.9 19.9 23.4 21.1-.5-2.4 1.1-5.1.8-7.3-1.4-11-12.7-28.8-16.3-39.8-3.8-11.7 2.7-30.6 3.5-43.5 3.6-59-24.7-121.5-55.6-170.4-12.4-19.7-28.5-37.1-37.4-59.1h16.5c8.6 0 8.7 2.4 14.2 5.8 15.3 9.7 32.5 17.5 48 27 30.2 18.6 67.2 68.2 84.5 99.5 2.9 5.2 12 22.4 12.8 27.2.9 5.4-.9 10.1-1 14.9-.8 41.5 1.8 83.9 11.9 124.2 3.2 12.9 5.4 24.4 15.1 33.9 1.4 1.4 2.9 3.8 4.5 1.5l24.5-44.5 55-6.5z" class="shading" data-original-prefix="shading" opacity=".2"/><path id="outline-ear-lft2" class="outline"  fill="#000" d="M845 941c14.6-16.6 32-43.1 28.9-66.4-6.2-13.9-9.9-31.3-16.2-44.8-6.6-14.1-16.5-28.7-23.6-43.4-15.3-31.6-34.1-66.9-37.1-101.9-.8-27.8-4.4-55.4-7-83-2.5-25.8-1.8-68.6-16.2-89.8-15.1-22.3-37.4-49.1-54.9-70.1-40.4-48.8-81-84.4-134.1-118.9-62.7-40.8-134-84.4-202.2-114.8-5.5-2.4-50.7-20.8-52.7-18.8-2.9 37.8.8 78 8.3 115.2 2.9 14.2 5.3 15.9 11.2 27.8 19.4 39 29.1 89 31.5 132.5 1 17.6-.2 29.6 3.5 47.5 18.4 89.9 62.3 179.1 131.5 240.5 34.3 30.4 77.6 43.7 111.3 70.7 7.8 6.3 4 4.9 5.1 11.8 1.6 9.8 18.8 46.8 24.6 56.2 15.8 25.8 55.2 62.7 82.3 76.9 24.5 12.9 35.2 10.3 60.5 2.1 2.2-.7 5.3-.6 7.2-1.3-1 4.5-8.9 7.6-13 9.5-9.6 4.4-42.4 17.5-51.4 17.4-1.7 0-20.4-3.6-21.4-4.1s-1.2-2.3-2.2-3.3c-15.2-14.7-31.4-32.3-47-46-12-10.6-25.8-15.8-32.5-31.5-10.8-25.2-24.1-65.5-48.8-80.2-25.6-15.1-48.4-25.9-73-44-82.1-60.5-144-180.3-162.2-279.8-2.5-13.4.3-11.7 3.2-22.8 6-23.1-5.4-87.7-14.7-110.8-2-5.1-7-12.2-10.2-16.8-2.7-3.8-8.9-9.4-10.3-12.7-3.4-8-5.6-30.1-6.5-39.5-3.1-31.9-9.3-100.8-.5-129.5 1.8-5.8 2.2-6.4 8.7-5.7 12.1 1.1 31.8 7.4 43.8 11.3 83.1 27.2 164 67.2 237 115.1 21.8 14.3 36.8 25 55.1 43.9 52.6 54.4 98.4 114.5 141.4 176.6 2.3 4.6 2.2 21.8 2.6 28.4 3.6 65.9 7.8 160.8 46.2 215.8 2.9 4.1 7.4 7.9 10 12 6.8 10.6 12 30 17.6 42.4 10.2 22.5 26 41.8 21.6 68.3-12.2 14.7-20.7 38.7-36.8 49.2-5.3 3.5-12.5 7.3-18.7 8.8z" class="outline" data-original-prefix="outline"/><path id="outline-ear-lft1" class="outline"  fill="#000" d="M671 548c1 1.1-9.1 24.9-9.8 28.7-3.2 18.8 9.2 75.9 17.6 94 8.4 18.2 19.9 26.4 31 41 38.5 50.8 58.2 119.5 95.4 173.6 4.1 6 11.5 13.6 14.6 19.4 2.3 4.2 4.1 23.8 4.2 29.8 0 1.9.2 3.7-.6 5.5-1.3 3.2-26.3 24.1-28.5 22 .6-5.2 4-9.5 4.7-14.8 4.7-32.1-33.9-98.2-50.6-126.9-23.1-39.7-51.6-80.6-84.7-112.3.2-20.9-3.1-40.8-9.2-60.8-5-16.5-11.4-40-29.8-18.2-21.7 25.7-18.4 63-6 92 2.2 5.2 5.5 9.8 7.5 15-3.9.3-7.3-2.1-10.7-3.8-25.9-13-50.8-31.4-71.8-51.2-10.2-49.8-20.3-101.8-52.4-142.7 2.3-5.6 5.6-10.1 7.6-16 12.2-35.3 1.5-87.5-13.6-120.9-23.3-51.5-61.4-93-109.9-121.6l-22.3-39.7c3.2-2.9 26 18.3 29.7 20.8 6.2 4.2 14.6 6.7 20.3 10.7 9.4 6.7 22.5 22.7 31.5 31.5 33.4 32.3 57.8 54.7 80 96.9 3.8 7.2 20.1 40.7 20.3 46.5.3 7.9-5.4 25.4-6.6 34.3-3 21-3.8 46.7-2.2 67.7 1.8 24.6 22.8 84.2 40.4 101.6 27.7 27.2 29-13.4 34-31 2-7.1 9.3-32.9 12.5-37.5 2.9-4.3 22.7-15.4 28.3-18.7 2.8-1.7 27.5-16 28.7-14.8h.4Z" class="outline" data-original-prefix="outline"/></g><g id="07_Head" data-trait="rastacap"><path id="fill-head2" class="fill"  fill="#fff" d="M1601.3 1591.3c-2.9.9-2.7 8.3-2 10.9 1.5 5.9 13.1 17.3 13.7 26.3.5 7.1-5.4 26.1-6 35.9-.4 7.4-.4 17.6.1 25 .7 10.8 7.1 27.1 3.5 36.5-1.3 3.3-14.2 25.4-16.1 25.9-.9.2-1.6.2-2.4-.4-12.2-19.4-32.8-39.1-35-63.1-.9-10.5.8-21.9-1.5-32.5-7.8-4.7-11.9-16-22-14-4.7.9-3.7 6.5-3.5 10.5.9 20.3 7 42.3 8 63 2.6 53.8-31.8 76.5-43.4 123.7-2.6 10.5-3 28.8-10.6 36.4s-14.5 5.3-23.6 2.5c-3.2-1-17.9-6.5-19.8-8-6.4-5.2 2.7-28.2 4-35.9 4-22.7.5-33.5-1.6-54.8-1.4-14.3 8.7-27.7 9.9-42.9.5-6.8.6-23.6-1.2-29.8-1.2-3.9-11.8-4.4-12.8.8-1.7 9.1-.1 19.5-2.5 28.5-2.1 7.8-12.7 20.5-18.5 26.5-2.7 2.8-8.6 5.9-10.5 8.5-3.8 5.2-4.6 12.2-10.5 18.5-18.2 19.5-36.3 15.5-40.9 48.1-3.2 23.1-2.2 51.2-20.7 69.3-.8.8-9 7.3-9.5 7.6-5.3 2.7-12.6-18.4-14.8-22.2-4.1-7.2-10.5-14.7-14-22-7.3-15.4-.9-33.7-.2-49.8.2-3.5.8-7.6-3.5-8.4-12.7-2.4-18.3 12.5-20.2 22.7-3.9 20.7-.3 40.2 7 59.5 3.5 9.3 14.7 27.3 11 36.5-1.5 3.8-17.3 16.5-21 17.1-2.1.3-18.1-8.6-20.2-10.4-4-3.4-9-11.6-13.1-15.9-6.9-7.3-16-13.3-22.5-20.5-3.2-3.5-10.1-16.4-13-17-1.6-.3-5.4-.3-7 0-.9.2-14.2 8.5-15.4 9.6-9.3 7.9-13.6 33.5-21.3 45.7-5.2 8.2-45.3 38.3-54.4 39.6-2.1.3-4.4.4-6.4-.5-.9-.4-12.8-12.6-13.3-13.7-1.2-2.9-1-8.1-.8-11.3 1.3-19.2 18.2-34 20-53 .4-4.7-.8-10.6.1-14.9.5-2.5 3.9-6 5.2-8.8 5.3-12.1 1.6-24.3 1.6-37-7.6-7.1-13.6-1.6-18 5.6-6.3 10.2-8.6 22.2-7.8 34.2.2 2.8 1.8 5.7 1.9 8.1.1 4.1-13 29.4-15.7 36.2-4 10.2-9.9 36-16.8 42.2-2.9 2.6-11 3.6-14.9 3-13-2-9.4-17.8-11.8-26.2-1-3.4-8.2-3.5-10.8-2.2-3.4 1.7-10.3 18.2-16.8 14.3-2.2-1.3-9-20.6-11-24.5-1.8-3.5-5-8.6-7.3-11.7-3.5-4.6-13.4-15.8-17.7-19.2-2.4-1.9-10.4-2.3-12.7-.5-1.9 1.5-1.5 5.3-1.5 7.6.4 15 10.2 36.7 11.8 52.2 1.3 12.2-16.3 6.5-23.5 4.5-4.2-1.2-23.4-8.3-25.9-10.6-2.2-1.9-6.9-12.6-9.3-16.2-7.5-11.3-15-16.3-23.4-25.6-6.1-6.6-16.6-28.8-25-29.9-13.5-1.8-7.7 8.8-9.7 11.9-.4.7-11.9 4.6-14.5 6-8.7 4.7-21.2 15-27.2 22.8-9.1 12-9.3 26.6-27.9 29.1-4.3.6-13.5-6.2-15.7-9.9-1.9-3.3-3.4-13.5-3.2-17.3.3-5.5 11.5-30.6 13.9-38.9 5.9-19.9 13.9-46.9 1.2-65.7-3.8-5.6-8.2-7.3-14.9-6-4.8.9-3.8 7.5-3.5 11.5.5 6.2 3.3 14.3 3.8 20.3.6 7.2-11.3 35.1-14.1 44.5-2.3 7.7-.8 17-10.5 18.6-5.3.9-12.2-8.6-15.2-12.4-8.5-10.6-19-31-21.8-44.2-1.4-6.6-1-27.6-3.8-31.2-2-2.6-11.6-4.6-15.5-6.5-13.8-6.5-12.9-12-21.4-20.6-3.6-3.6-10.1-6.3-14.5-9.6-16.9-12.7-26.9-32.3-30-53.1-.7-5.1 0-21.7-4.6-22.4-8-1.3-10.3 2.6-12.7 9.4-4.4 12.4-1.5 31.8 3.4 43.9 1.2 3 7.3 12.5 7.5 13.4.5 3.1-1.7 11.1-1.8 14.8-.3 10.1-.6 22.1 0 32.1s5.9 28.9 4.8 36.7c-1.5 10.5-24.3 25.9-33.8 29.2-4.9 1.7-6.9 2.2-10.4-2.5-5.1-6.9-7.5-39.8-11.3-51.7-8-25.5-29.5-46.4-36.7-69.3-6-18.8 0-64.7 1.5-86.4.7-10 8.5-29.8-9.6-23.6-11.6 15.4-32.2 33.4-36.2 52.8-2.1 10.4-.6 15.3-6.5 25.5-21.1 36.5-33.1-3.7-43.4-20.2-8.5-13.6-19.1-16.1-13.2-34.3 7.5-22.9 26.6-47.4 38.3-68.7 5-23.2-20.5-7.4-29.9-1.8-5.4 3.2-20.1 14.9-25.2 14.9-2.8 0-17.1-11.1-19.5-13.5-10.5-10.9-6.8-20.2-3-33.1 5-16.8 11.6-32.7 27.7-41.3 7.1-3.8 16.5-3.3 13.2-14.4-1.1-3.6-14-3.9-18.2-8.8-5.9-6.7-1.7-18.9-10.9-24.1-2.2-1.3-13.9-5-14.5-5.9-.8-1.2-.1-3.5.4-4.8 1.1-3.1 11-17.8 13.5-20.5 12.9-14.4 28.4-.4 43.5-2.5 3.4-.5 6-3.1 6.5-6.5 1.4-10.2-4.3-7.2-9.6-11.5-4.9-4-13.3-24-10.8-29.8 1.5-3.6 17.8-8.8 21.9-11.2 21-12.3 11.5-45.5 39.5-61.5 5.8-3.3 14.6-5.5 19.4-8.6 1.5-1 2.2-1.5 2.6-3.4 2.2-11.4-12.7-44.5-16.2-57.7s-3.7-17.5 3.5-30.1c3.1-5.5 12.8-15.1 14.3-18.7 5-11.8-9-12.3-14-20-22.1-45-46.4-90.7-62.7-138.3-4.7-13.8-12.7-37.1-12.8-51.3-.2-27.6 33-68.8 50.1-90 26.7-33.1 58.5-76.3 96.6-95.4 158.9-79.4 322.9-133.3 499-161 42.1-6.6 102.3-17.1 143.3-7.7 87.4 20 191.8 121.3 251.5 186.5 51.4 56.2 108.7 126.5 139.3 196.7 7.6 17.4 14.9 31.6 7.3 50-12.2 29.8-47.1 83.2-68.7 107.3-3 3.3-19.4 17.7-20 19-.8 1.9-.8 5.5-.6 7.5.6 4.5 13.8 15.1 17.6 19.4 11.1 12.8 21.4 32.5 22.4 49.7.5 9-3.7 11.6 2.7 20.3 11.8 15.9 38.5 20.5 50.8 36.2 6.4 8.1 31 58.1 32.3 67.7.4 3.2.6 7.3 0 10.5-1.3 7-10.2 10-6.2 18.7 1.2 2.6 10.5 10.3 13.5 11.5 8.2 3.3 40.4 3.8 42.8 12.2.7 2.6-5.5 20.1-7.1 23.6-2.8 6.2-7.2 11.3-12.3 15.7-3.5 3-17.3 10.8-18.6 12.4-1.6 2.3-1.6 8.6.5 10.6 2.5 2.5 10.7 5.6 14.5 8.5 13.1 10.1 29.3 40.6 30.1 57 .4 9.4-7.5 23.4-14 30-11.7 11.9-15.4-1-23-9.1-3.9-4.1-7.9-8.3-12.7-11.3-6.8-4.3-25-12.2-32.8-9.7m-542.9-577.7c-7.4-7.5-13.4-32-19.8-35.7-10-1.1-28.8-12.4-37.8-9.7-2.6.8-5 5.8-7.2 7.8-3.8 3.4-10.3 7.5-14.8 10.2-42.1 24.8-83.9 34.2-117.2 73.8-11.9 14.2-10.8 30.2-23.5 44.5-4.7 5.3-20.8 17.4-22.8 22.2-2.3 5.8-4.4 25.5-5.2 32.8-.9 7.7-1.9 12.2-3 19.1-3.5 22.4-1.8 28.7-15.2 48.8-14.2 21.1-32.9 42-48.2 62.8-7.3 9.9-28.1 35.6-31.8 45.2-3.1 8-4.3 28.1-6.1 37.9-2.7 15.2-7.3 28.6-6.7 44.3.8 21.1 5.1 63.1 11.2 82.8.4 1.2 9.3 11.1 10.8 12.2 3.8 2.6 8.5 3.2 12.6 5.4 24.5 13.2 25.9 46.9 34.1 70.9 6.1 18 12.5 30.5 25.2 44.8 4.3 4.8 13.6 16 20.6 10.6 4-3.1 4.8-30 11.3-37.5 2.1-2.4 6.2 2.8 7.6 4.4 5.5 6 9.4 13.8 16 19 7.6 6 20.8 10 27.5 16.5 5.5 5.3 8.1 15.9 13.5 22.6 25.5 31.7 83.6 61 124 64 12.3.9 16.5-2.3 27.2-4.7 20.3-4.5 36.7-9.4 55.9-18.1 4.7-2.1 20.9-9.4 22.6-13.4 1.8-4.5.4-12 .9-17.1 2.1-20.7 17.2-34 21.7-52.3 3-12.2-.2-33 2.4-41.6.3-1.1 4.4-5.3 5.6-7.4 24.6-42.2 13.4-52.9 10.2-96.8-1.9-25.3 1.6-48.4 8.3-72.7 5.8-21.1 17.3-40.8 14.7-63.3-1.2-10.6-11.5-19.5-15.2-28.8-2.3-5.9-2.8-13.3-5.1-19.9-4.5-12.9-22.3-39.5-22.7-50.3-.2-5.9 6.7-25.2 8.9-31.9 4.7-14.2 15.4-33.6 13.9-47.9-.5-4.4-2.9-9.5-3-14.1-.1-8 3.8-17.3 1.9-25.8-27.1-29.4-48.1-68.5-78.3-94.7-7.1-6.7-19-12.8-25-18.9m252.8 497.1c-1.8-1.8-5.9-13.6-6.8-16.7-7.5-28.2 11.6-58.6 8.5-89.5-2.2-22.3-22.9-41.7-17.5-65.5 3.5-15.7 12.4-29.4 15.4-46.6 6.4-36.2 7.5-78.1-4.8-112.9-7.8-22-21.2-42.8-33.5-62.5-12.3-6.6-12.9 1.3-13.6 11.5-1.2 17.9-.2 33.3 7.5 49.6 2.6 5.5 8.6 12.4 9.5 18.5 1 6.7-.3 15.9 0 23 .5 13 3.1 30.3 2.1 43-.8 9.9-4.1 16.8-3.1 28 .6 6.8 4.8 14.7 4.8 21 0 9.7-7.8 23.8-8.8 34-3 29.8 6.4 54.8-5.8 84.2-8.1 19.5-32.9 55.1-34.2 73.8-.5 7.3-.4 17.7.1 25 .6 10.8 5.7 24-.6 33.4-7.4 11.2-14.3 17.1-20.3 30.7-3.5 7.9-14.2 33.6 4.2 28.2 3-.9 4.4-7.9 6.7-9.3 11.5-7.2 15 30.8 17.9 34.1 2.4 2.7 8.3 1.8 11.1 0 15.6-10.3 27.3-39.2 33.7-56.3 4.7-12.6 11.8-42.9 20.2-51.5 8.9-9.1 26.1-10.6 36.3-16 5.6-3 5.8-11.8 4.7-17.2-.9-4.8-7.3-4-11-3.1-5.2 1.2-18.2 13.5-22.7 9.1" class="fill" data-original-prefix="fill"/><path id="fill-head1" class="fill"  fill="#fff" d="M1125.8 667.3c37.4-2.4 90.5 6.6 124.9 21.5 89.7 39 196.9 160.6 252.1 240.9 20.3 29.4 62.7 95.7 66.1 129.9 1.3 13.1-2.9 18.3-8.7 29.1-21.6 40-48.4 79.8-77.2 114.9-1.9 1.8-10.7-5.4-10.9-6.2-.8-2.7 10.8-22.3 11.7-28.1 2.9-18.4-8.6-63.2-13.8-82.7-1.9-7.2-4.3-16.1-7.2-22.8-11.1-26.4-31.3-28.3-50.8-45.2-27.8-24.2-45.1-61.2-83-69-43.9-9.1-91.8-18.8-135.8-26.2-8.1-1.4-24.4-1.7-30.5-3.5-1.7-.5-22-18.5-27.2-21.8-10.4-6.7-31-14.6-38.5-22.5-5.1-5.3-6.7-13.4-15.7-15.3-7.4-1.5-21.6 2.1-29 4.5-10 3.3-12.8 9.1-22.8 3.3-9.2-5.3-15-12.1-26-16-16.2-5.9-31-1.2-45.2-6.8-8.2-3.2-15.2-8.7-24.3-10.7-17.8-4-30.4 2.5-47.5 3.6-44.4 2.8-108.8-11.3-148.5 4.5-22.1 8.8-47.2 23.7-70.2 29.8-13 3.5-28.7 3.1-42 6-12.5 2.7-14.8 7.1-20 18-13.2 28-19.9 61.6-33 89-11 23-39.7 59.1-39.8 84 0 9 3.3 19.9 3.9 29.1.9 15.4-5.2 32.5-1 46 1 3.1 3.1 4.2 3.2 7.9 0 2.6-5.1 16.8-6.6 19.5-7.1 13.2-29.3 10.4-38.5.5-11.3-12.3-26.6-45.7-34.2-61.8-13.4-28.4-38.3-83.4-34.7-114.1 2.4-20.4 40.9-70.5 54.9-88.1 10.7-13.5 22.7-28.1 34-41 22.3-25.5 47.6-36.7 77.6-51.4 113.8-55.7 247.1-95.7 371.2-121.8 50.9-10.7 111.5-23.7 163-27" class="fill" data-original-prefix="fill"/><g id="shading-head" class="shading"  class="st1"><path id="outline-shading-head2" class="outline"  fill="#000" d="M1236 1659c2.4-.9 6.4-11.4 7.2-11.8 1.1-.7 3.7.4 6.4-1.1 6-3.3 17.1-19.1 20.6-25.4 10.8-19.3 16.7-42.7 23.9-63.6 1.1-.5 4.5.3 4.9-.1s-.3-8.9.2-11.3c1.5-7.5 14.1-16.3 21.4-16.8 1.9-.1 1.2 2 2 2.1 4.5.6 7.1-4.1 10.1-5.9 9.1-5.4 9.8-1.4 12.8-13.2.3-1.1 1.3-1.9 1.5-2.5s-1.8-.3-2-1.1c-.5-2 .8-4.7-1.4-6.4-8.4-6.7-24.2 12.5-31.3 9.4-2.3-1-7.8-16-8.2-18.9-.7-5.3 1.5-9.8.9-14.9-.3-2.7-2-4.4-2-6.8.2-13.7 9-33.6 10-49.1 1.9-29.3-10.9-39.8-17.5-64.6-5.2-19.8 9.2-38.4 13.6-57.3 9.8-41.3 9.3-93.3-8-132.3-3.6-8-11.7-19.7-13.7-27.3-1.1-4.2 1.2-7.2 0-10-.3-.7-8.8-12.2-9.5-12.6-1.3-.7-2.9.7-4.3.4-1.2-.3-2-2.2-3.4-2.7-2-.6-6.5.6-7.4-.8-3.3-4.7 1.5-31-.3-39.5-.9-4.1-7-12.4-9.7-16.3-3.7-5.2-14.6-15.5-13.8-21.1.2-1.5 2.5-4.8 2-5.6-.4-.6-11.8-3.8-14.4-5.1-10.9-5.6-23.5-27.4-30.8-38.2-5.7-8.4-24.2-33.8-26.3-41.7-2.3-8.4 6.4-13.3 12.5-7.5 10.9 10.2 23 28.5 33.5 40.5 7.8 8.9 15.5 17.9 24.2 25.8 26.3 8.9 53.5 15.4 79.9 24.1 7.4 2.4 14.7 4.2 21 9 23.1 18 45.2 48.4 68.5 67.5 7.4 11.7 10 26.9 15.8 39.2.8 1.7 1.9 4.5 3.9 5.1 8.4 2.6 24.9-13.8 34.3-12.8l-6-34.3c-19.6-15.9 17.7-14.5 27.2-16 35.4-5.6 70.7-21.9 102.5-37.6 3.6-1.5 6.6 11.8 6.2 13.2-.6 1.8-3.9 1.7-4 4.2s4.9 3.7 3.9 9.8c-.3 1.8-4.1 10.2-5.3 11.8-1.1 1.5-3.2 1.8-3.4 2.2-.2.3.8 2.5.2 4.5-1.3 4.3-18 33.1-21.3 36.8-2 2.3-4.9 2.8-6.1 4.2-1.8 2.2-1.8 6.7-3.1 9.6-4.7 10.4-24.7 36.2-32.8 45.2-3.1 3.4-18.8 16.9-19.5 18.5-.9 2.1-.3 6.7-.5 7-.3.3-7.1.1-8.4-.1-5.2-.7-18.2-6.3-22.9-9.1-2.2-1.3-3.2-4-5.7-3.8-3.1 16.4-22.8 3-27.3 4.1s-13 29.4-13.3 34.5c-.3 5.9 3.7 26.7 6.4 32.1 4.2 8.2 21.8 22.9 29.9 28.1 17.7 11.4 40.8 15.6 53.3 33.7 5.3 7.6 13.6 37.1 17.6 40.4 4.9 3.9 19.8 11.1 26 14 4.3 2 16.9 8.1 20.9 8.2 11.8.3 18.6-22.7 30.7-19.9.6.1 6.5 3.2 6.8 3.5 2.5 2.8 7.3 14.1 8.7 18.1 2.9 8.2 5.8 16.6 1.5 24.9-2.3 4.4-7.1 5.2-5.2 12.3l-100.8-43.8c-6.1 6.8-3.1 15-.7 22.9 4.6 14.8 26 41.5 37.5 52.5 9.4 9.1 19.8 9.4 31 14 12.6 5.1 16.2 9.7 31.5 10.5 17 .9 32.1-4.8 43.5-17.5 3-3.4 8.3-13.1 11.9-14.1 1.3-.3 1.6-.8 2.6.6 1.6 2.5-.7 6.9-1.5 9.6-2 6.6-5.6 17.1-9.6 22.4-7.1 9.6-34.8 27.3-46.7 24.8-7.1-1.4-14.6-10.9-21.3-13.7-9.6-3.9-21.9-2.8-29.4-12.1-1 5.2-6.5 7.5-8.5 12s-2.9 15.3-.7 19.7c6.4 12.7 31.4 29.7 44.5 35.5 14.7 6.5 26.9 5.8 41.3 13.7 6.3 3.5 36.2 24.3 36.1 30.5 0 3-11.1 17.8-13.8 19.2-3.8 2-2.7-.9-4.1-2.8-12.7-17.2-36.9-22.9-55.2-31.8-6.8-3.3-5.9-3.8-13.9-6.1-9.2-2.7-8.1-11.7-13.8-17.2-10.3-9.9-30.3-11-35.7-26.3-4.7-13.3-.3-28.4-2.2-42.8-2.1-15.7-8-20.8-15.2-33.8-3-5.4-5.4-12.6-8.4-17.6-2.8-4.6-7.8-8.1-10.2-12.8-2-3.9-2.2-7.9-4.2-11.8-3.6-7.4-17.8-25.3-23.6-32.4-.9-1.1-2-2.6-3.4-3.1-1.6 16.5-8.1 34.1-9.1 50.4-1.2 19.2.7 48.4 2.1 68 .4 5.4 3.8 40 6.7 41.5 11.2 2.9 22.9 4.7 34.1 7.7 13.1 3.4 23.3 4.2 26.9 19.1 2.3 9.7 1.7 26.9 5 35 2.7 6.6 19.7 23.1 25.1 30.9 3 4.3 6.1 9.1 7.9 14.1 6.3 16.8 6.2 44.6 13 59 4.9 10.2 14.2-2.9 22.2-.7 3.5 10.8-2.7 20.2-8.2 29.2-3.9 6.5-5.2 12.8-13.5 7.4-11.4-16.1-22.7-29.3-29-48.5-4-12.2-2.6-16.6-3.3-28.7-.2-2.9-.9-12.3-1.7-14.3-1.2-2.7-3.9-3-5.3-4.7-6.5-8-15.3-16.3-20.8-25.2-6.8-11-12.4-35.9-21.9-43.1-14.5-11-32.3-10.9-46.4-18.6-8.2-4.5-8.4-13.6-8.9-22.1-1.2-18.6-1.5-40.4-1.1-59 .2-10.5 1.8-9.5-1.5-20.4-2.6-8.5 3.4-24.1 3.6-33.5.2-11-.8-40-3.1-50-.9-4.1-5.6-12.2-7.8-16.2-1.8-3.4-10.7-18.6-12.7-20.3-1-.8-8.3-1.2-10-1-4.6.5-10.1 16.1-11.6 20.4-2.3 6.7-11 36.6-9.5 41.6 1.2 3.8 6.8 11.4 8.7 16.3 8.1 20.6 1.9 39.6-3.5 59.9-2.8 10.7-14.9 41.9-14.6 50.1.4 13.1 9.6 51.9 15.1 64 6.5 14.4 27.7 21 39.8 31.2 11.3 9.6 8.7 14.6 13.1 26.9 6.9 19.5 19.3 44.8 23.7 64.3 4.4 19.2-6.3 22.3-7.5 36.9-.6 7.7 2.9 22 2.9 30.8 0 3.8-.8 10.9-1.2 14.9-1.2 11.1-7.9 28.9-2.8 39 3 5.9 16 13 17.7 20.3 2.3 10-7.7 22.8-18.2 22.2-3.9-.2-30-9.3-31.7-11.6-.8-1.1-1.8-5.1-1.8-6.7 0-7.7 5.2-20.8 6.6-29.4 2.2-13 2.8-25.5 1.3-38.7-1.1-9.7-4.8-16.4-2.3-26.3 3.1-11.8 9.4-21.3 9.4-34.7 0-3.7-5.2-27.1-6.8-30.2-1.1-2.2-3.9-1.2-6-6-4-9.1-6.6-28.1-15.6-33.4-4.8-2.8-9.1-2.9-14.2-6.8-21.2-16.3-38.7-47.3-53.7-69.3-4.7-6.9-15.9-18.4-16.8-26.2-.8-6.8 1.1-13.7.5-20.5-5.4 6.8-12.7 13.3-17.3 20.7-1.6 2.5-7.2 13.4-7.1 15.7.2 7.2 11 22.7 14.5 29.6 11.5 22.9 1.3 38.9 22.1 59.9 3 3.1 5.5 1.4 7.9 8.1 4.2 11.6 1.4 48.5-5 58.9-3.7 6-7.1 10.6-10.9 17.1-8.9 15.3-28.6 45.4-28.6 62.5 0 4.7 1.8 12.5 2.8 17.3.7 3.4 6.2 24.8 7.6 25.9.4.3 9.6 3.3 10.2 3.2 3-.3 15.5-11 18.6-8-.3 9.2-1.1 18.6-4.2 27.3-1.6 4.3-13.2 25.8-15.7 28.3-.8.8-9.1 7.3-9.7 7.4-5.2.9-11.9-18.4-14.2-22.6-4.9-8.6-14.5-19.8-16.9-29.1-3.2-12.8 2.9-31.7 2.8-44.7 0-2.1.1-4.9-2.1-6.1-1.2-.6-8 .2-9.4.6-6.4 1.7-11.5 17.5-12.4 23.6-3.3 20.8.6 41 7.9 60.4-.9 1-11.8-8.2-13-9.5-10.4-10.8-9.4-26.3-12.2-39.8-.9-4.1-3.9-8.7-4.5-13.5-2-14.9 9.2-22.1 14.6-34.9 2.8-6.6 3.7-14.7 7.3-20.7 5.2-8.8 19.9-21 27.4-29.6 12.8-14.9 23.2-25.8 24.5-46.5 1-16-6.2-17.4-11.9-30.2-6.9-15.4-11.3-29.7-23.1-42.9l-4.2 10.9c-11.1 19.4-28.1 34.7-41.7 52.3 1.1 17.9 2.9 34-5.7 50.3-3.6 6.8-12.7 17.1-13.5 24.6-.6 6.2 1.5 15.4.9 22.9-1 13.7-8.5 30.6-8 44 .2 7 12.4 31.7 16.8 38.3 7.1 10.6 8.5 11.9 14 24 6.1 13.3 20.1 13.8 32.4 16.6 2 .4 3.7 2.2 5.4 2.5 1.1.1 3-1 3.3-.7.4.3 1.9 8.4 2 9.5.5 7.4-4.3 11.2-9.5 15.4-3.6 2.9-10.9 8.6-15.2 7.3-2.1-.7-15.5-8.3-17.2-9.8-4-3.4-9-11.6-13.1-15.9-6.9-7.3-16-13.3-22.5-20.5-3.2-3.5-10-16.4-13-17-2.1-.4-9-.1-10.8.9-1.1.6-.3 2.2-1.3 3.1-2.8 2.4-8.6 3.6-12.2 7.6-10 10.9-11.2 35.6-22.6 48.4-5.6 6.2-43.2 33.3-50.2 34.7-1.8.3-4 .6-5.7.2-2.6-.5-14.4-12.8-15.3-15.7-5.4-17.5 12.8-37.3 17.5-53 2.7-9.2.9-16.9 2.3-24.7.1-.6 3.6-7.3 4-7.5 4.7-3.3 5 14.6 4.9 16.4-.5 4.9-3.6 10.1-2.4 14.6 3.3 12.9 12.7 12.4 21 4 6.7-6.8 9.1-24.6 13-34 7.6-17.9 26-34.3 42.3-44.2 1.9-15.8 5.2-31.5 7.2-47.3 2.3-18 .8-30.4 7.8-48.2 2.7-6.8 12.4-21.7 13.1-26.9 1.1-8.1-5.7-14.9-9-21.4l-4.5 24c-5.9 21.3-27.4 39.7-38.3 58.7-6.7 11.6-10.4 24.5-17.8 36.2-5 7.9-23.7 29.5-31.4 33.6-5.4 2.8-1.1-5.5-5.6-6.3-.9-.2-10.1 1-11 1.7-.7.5-3.9 5.2-4.6 6.4-6.2 9.9-8.5 22.1-7.8 33.7l-2-7.5c-.9-18-2.7-35.9-2.1-54 .2-5.1 2.4-13.4 2.1-18-.2-4-6.5-9.7-6.1-14.5-1.7.6-2.8 2.3-3.8 3.7-7.1 9-26.1 37.7-28.1 47.9-1.3 6.8-4.1 30.9-3.8 37.1.1 1.5 1.5 2.4 1.7 3.8 1.4 13.3-6.7 26.9-.1 40.1 3.9 7.9 7.3 8.2 16 7.1 6.4-9 12.1-20.9 19.2-29.3 1.3-1.6 5.8-6.4 8-4.5.9.8-9.4 19.5-10.5 22-5.1 12-13.1 45-20.5 52.5-3.1 3.1-11 4.1-15.4 3.4-15-2.3-8.6-26.8-14.2-28.8-9.2-3.1-13.3 6.4-17.5 12.8-11.1-2.1-12.8-14-17-22.3-1.8-3.5-4.4-6.4-6.1-9.9-1-1.9-.4-4.2-1.7-6.3-2.7-4.3-15.3-7.8-16.1-15.4l-1.5 2c-4.2-4.6-15-5.6-15.6 2.5-1 13.5 9.9 37.7 11 52.2.5 6.4-4.2 10.6-10.4 10.4s-34.9-9.6-38.6-13.5c-2.4-2.5-6-11.5-8.6-15.4-7.6-11.7-15.2-16.7-23.8-26.2-6-6.6-16.6-28.8-25-29.9-10.1-1.4-8.6 4.1-8.7 12-15.2 3.7-32.3 15.4-41.7 27.8s-10.5 29.1-29.8 30.3c-3.6.2-13-6.9-14.8-10-3.1-5.4-4-17.1-2-22.9 9-26.7 31.3-71.6 14.3-98.4-3.8-5.9-8.3-7.9-15.3-6.7-4.2.8-3.7 7.2-3.5 10.5.8 12.6 4.6 18.6 1.2 32.3-1.9 7.7-11.8 39.2-15 44.9-8.1 14.4-16.1 2.5-22.6-5.8-8.3-10.7-18.5-30.5-21.3-43.7-1.4-6.6-1.2-28.1-4.2-31.8-1.4-1.7-11.9-4.4-15.1-5.9-14.2-6.7-13.1-12.8-22-21-6.6-6.2-16.9-9.5-23.5-17.5-18.1-21.6-18.2-42.5-23.6-68.4-1.1-5.2-2.6-10.3-2.9-15.7l-2.2 15.3c-15.5 8.9-9.4 28-9.8 42.2-.2 7.3-2.6 13.9-2.1 22 1 14.7 9.8 27.2 11.8 39.2 1.3 8 1.2 17 2.2 24.8.5 4.4 3.4 17.8 2.9 20.7-.5 2.6-6.4 8.2-8.3 10.8-2 2.7-3.4 7-5.7 9.3-2.5 2.7-21.3 13.9-24.4 13.6-.6 0-.5-1.6-.8-1.7-.5-.3-1.7.7-2.8.2-6.5-2.9-8.9-31.8-10.5-39.5-7.5-35.8-24.3-48.1-37.4-77.6-7.1-16.2-5.6-35.4-4.1-52.8 2.2-25.9 8.7-52.4 11-78.5l-9.2 13.8-8.4 1.2c-9.9 13.1-25.2 27-32.3 41.7-7.7 16-1.9 29-16.2 44.8-18.9 20.7-29.7-15.6-37.2-27.8-1.8-2.9-8.9-10.9-9.4-12.7-.7-2.4 1.8-3.8 1.5-6.3-.5-3.5-9.6-15.2 0-15.6 3.6 3.7 13.8 21.9 17.1 23.3 5.8 2.4 10.1-1.4 13.4-5.6 8.5-10.8 1.2-19.8 7.1-28.9 15.5-20.5 40.4-38.8 53.9-60.1 11.8-18.7 9.5-34.9 14.9-55.1 3.8-14.4 16.8-32.9 25.5-45.5 6.2-9 27.6-34.3 29-43 .8-4.7-3.9-16.4-3.9-22.7.1-14.2 9.8-28.7 11.9-42.2 2.6-16 .3-24-1.7-39.1-2.4-17.5 1.4-29.4 7.8-45.3l-23.5 18c-13.7 15.5-19.5 35.9-31.4 52.6-.7 2.2 2.8.7 3 4.9.3 8-2.6 22.1-3.1 31-.6 11.3 2.3 21.6-3.2 31.8-1.7 3.1-10.3 13.9-10.7 15.4-.3 1.1 2.8 13.5 2.8 16.8.1 11-11.5 62.7-18.5 69.6-1.1 1-2.6-.3-4 .8-18.5 14.5-30.3 27.2-53.1 38-7.4 3.5-16 5.6-23 9-8 3.9-23.7 18.7-30.1 20-2.4.5-3.7.3-6-.6-2.1-.8-14.4-10.7-16.3-12.7-3.5-3.7-7-9.9-7-15 0-3.1 5.9-26.7 7.1-27.5 5-3.5 8.4 13.2 9.5 16 1.9 4.7 6.2 13.3 11.8 13 10.6-.7 18.8-11.8 27.3-17.8 19.6-13.7 38.8-14.9 59-25 15.3-7.7 23.7-17.8 14.8-35.2-2.7-5.2-13.5-8.2-18.9-7.9-3.3.2-6.2 3-8.5 3.5-4.4.9-8.6 1.6-13.2 2.7-22.2 5.3-45.4-2.1-63.1-16.4-5.1-4.1-4.4-8.3-8.7-11.3-2.5-1.7-15.2-5.7-15.8-6.7-1.9-3 7.7-17.8 10.5-18.7 7.3-2.2 22.8 8.4 28.8 12.8 4.7 3.4 5.3 7 12.1 8.9 15.8 4.4 39.2-2.2 53.8-9.1 20.2-9.6 31.5-24.9 45.4-41.6.6-12 3.2-23.8 6.2-35.3l-11.7 7.8c-5.9 3.5-18.3 8.4-25 9-1.8.2-3.2-1.9-4.7-1.6-.8.2-7.2 5.7-9.1 6.9-17.4 10.3-36.9 12-56.5 8.5-1.2-.7-6.7-15.8-6-16.5 18.5 4 37 5.4 53.9-4.6 6.2-3.7 11.2-9 17.4-12.6 10.1-5.8 20.6-8.1 30.1-15.8 18.4-14.9 20.6-41.9 37.6-55.4 4.9-3.9 16.2-8.6 19.4-12.6 3.7-4.6 5.3-16.8 8.7-23.3 4.8-9 13-13.4 18.3-20.7 3.9-5.5 6-13.6 9.4-19.6 17.3-30.7 50.7-37.5 59.9-77.1 7.4-32 12.5-100.5 38.4-121.6 10-8.1 21.9-14.2 31.9-23.1 14.2-12.5 29.8-36 43.7-45.3 14.3-9.5 29.6-14.8 43.3-26.7 3.4-2.9 14.8-16.2 17.5-16.5 4.5-.7 6.8 2.9 6 7.1-2.1 11.3-24.6 27.8-34.1 34-8.2 5.3-19.8 10.2-27 16-7.5 6.1-15.9 18.5-23 26-9.6 10.1-19.5 18.8-30.6 27.4-16.1 12.4-22.4 11.4-30.7 32.3-14.7 37.2-10 73.8-18.5 112.4-8.2 37-37.8 61.6-58.5 91.5-1.5 2.2-8.2 11.9-8.7 13.3-1 3.1.1 6.1-.7 8.3-.5 1.4-2.8 1.4-3.9 4.1-6.8 17.2-8.5 46.3-10 65-.8 10.5.5 21.7 2.3 32.8 1.1 6.7 4.9 14.1 5.7 19.3.9 5.8-.1 12.3 1.5 18.5 2.3 9 29.1 33.5 35.7 47.3 8.3 17.1 1 30.3 14.4 47.6 1 1.3 4.3 5.7 6 3.1l13.5-51.6c-4.8-13.6-11.4-26.9-13.8-41.2-3.9-23.5 10-42.4 13.5-65 2-12.8 1.1-26 2.3-38.7 3.5-35.6 64.5-116.1 85.4-150.6 9.7-15.9 24.3-37.9 28.1-55.9 1.7-8 .6-17 3-24 4.6-13.5 18.2-23.2 22-41 1.4-6.4 1-16.5 3.2-21.8 1.1-2.6 6.4-6.2 8.8-8.2 17.5-14.4 37.3-27.7 55.3-41.7 10.3-8 33.9-30.2 44.1-33.9 19.8-7 35.3-9.3 54.6-20.4 3.4-1.9 17.8-10.8 18.3-13.7 2-9.9-10.9-24.8-9.8-31.8 1.5-9.8 9.2-1.6 11.5-.9 1.3.4 12 2.9 13 3 13.6 1.2 13-20 20.2-22.3 2.5-.8 4.4-1.2 5.9 1.2s8.5 17.7 9 20c1 4.8-.2 10.8.2 15.8.9 10 8.7 44.5 14.1 51.9 4 5.4 30 21.1 37.8 27.2 33.5 26.8 71 69.5 85.9 110.1 6.4 17.6 5 22.6 1.9 40.4-4.3 24.9-10.9 49.3-15.4 74.2 5.5 20 13.1 39.3 21.8 58 5.8 12.3 17.1 26.2 15.8 40.1-.6 6.9-5.5 19.1-8 26-8.2 23.2-19 45.7-27 69-4.5 13-7.4 26.5-11.7 39.3-.5 1.4-5.2 15.8-7.2 14.2-.1-1.5-1-3-1.1-4.5-.6-18 4.8-41 9.6-58.5 5.5-20.1 16.6-40.7 14.6-61.6-1-10.4-12.8-21.9-16-32-2.5-7.9-5-26.7-5.1-35-.1-5.6 1.9-11.1 1-16.9-.8-4.9-6.6-14.4-8.2-20.8-7.1-27.1 10.4-48.5 8.2-74.2-.4-4.8-2.8-10.3-2.9-15.1-.2-8.2 4-17 1.4-25.3-1-3.2-3.7-4.3-4.9-7.1-1.9-4.7-1.3-11.2-3.3-16.7-5.1-14.4-49.9-63.2-62.7-77.3-9.2-10.1-18.8-19.9-28.5-29.5l-1 4.5c-8.9.8-9.5-11.2-13-15.5-6.4-8.1-16.9-9.4-25.8-12.2-6.7-2.1-13.3-6.7-20.7-5.3-2.9.5-6.2 6.5-9 8.9-17.9 15.8-58.8 30.8-81.4 43.6-17.8 10.1-46.9 31.5-62.1 45.9s-13.2 31.4-21.8 47.2c-2.3 4.2-10.8 9.7-12 13-4.9 14.1-2.5 34.8-8.1 48.9-26.4 67.1-91.1 114.1-107.9 186.1-4.7 20.2-10.8 50.4-9.4 70.7.9 13.2 7.3 29.3 9.8 43.2 1.5 8.4 1.8 25.7 4.5 32.4.8 2 11.9 12.7 14.3 14.7 7.6 6.3 22.2 12.1 27.5 17.5 2.9 2.9 5.2 12 7.4 14.6 1.3 1.4 3.8.5 5 2 .6.7 2.6 8.4 2.5 9.6-.1 2.4-2.1 3.4-1.9 5.7.9 8.6 5.7 12.5 9.2 18.9 8.9 16.2 9.9 25.8 23.6 41.4 4.7 5.4 13 16.1 20.5 11.6 3.2-8.8 6.7-30.8 12.4-37.4 2-2.3 8.6 4.6 9 6.1.7 2.6-3.1 3.5-.9 4.8 7.7.7 10.2 8.5 16.1 12.9 8.1 6 20.3 9.2 27.5 16.6 4.8 4.9 7.1 13.9 11.2 19.8 3.5 4.9 8.8 6.3 6.3 13.1 4.1 2.9 8.8 6.7 12.4 10.1 1.8 1.7 3.3 5.1 4.9 6.1 2.7 1.7 5.8.5 8.6 1.4.7.2 11.8 7 12.3 7.5 1.5 1.6.3 4.9 2.4 6.1 4.9 2.7 21.3 5.6 28 7.7 19.3 6.1 40.2 16.2 60.8 14.3 5.8-.6 12.2-4.4 17.2-4.8 3.7-.3 7.1 2.6 11.5 1.6 2.6-.6 3.8-3.1 5.4-3.6 2.3-.7 5.1.2 7.6-.4 15.9-3.9 22.6-10.4 35.7-17.3 19-9.9 12.6 8.6 8.2 19.2-1.8 4.4-10.1 17-10.1 19.8.1 3.7 4.7 9 8.5 9.5 10.5 1.3 20.7-16.4 25.8-24.1 4.5-6.8 8.2-14.7 12.8-21.2 10.6-15.1 26.4-26.5 33.3-44.7 6.9-18.1 4.8-40.9 11-59 4.6-13.3 16.7-27.9 23-41 1.2-2.6 5-10.6 5.3-12.8 1.1-10-8.5-30.7-8.8-42.8-.7-26.5 33.8-67.6 41.9-94.1l19.1-44.3c-.2 10.3 2.4 20.8.6 31-1.4 7.7-9.7 23.8-13.4 31.6-2.6 5.6-14.2 25.5-14.7 29.3-.2 1.4 1.7 2.2 1.4 4.3-.3 2.5-5.6 10.6-6.9 14.2-4.2 11.6-7.3 27.8-7 40.1.2 9.6 4.8 26.6 1.8 34.7-10.7 14-25.9 33.4-28.7 51.3-.4 2.6.3 5.5-.1 7.9-1.5 8.8-3.7 17.5-4 26.5l8.1-22.9c2.2-.5 4.7.4 6.9-.6 3.4-1.6 4.4-13.6 11.4-8.4 1.5 1.1 1.2 2.7 1.9 3.6 3 3.7 7.7 12.9 7.7 17.8zm101-183c9.2-14.6 18.5-29.5 30.5-42 2.2-2.3 7.6-5.1 9-8 .4-.8 4.2-15.7 4.2-16.6.4-4.3-1.9-11.4-1.8-15.9.5-18.4 7.4-45.6 11.6-64.5 2.3-10.6 8.2-26.1 9.4-35.6 3.6-27.6-.9-60.3 3.2-89.8.5-3.8 5-17.7 4.7-18.9-.4-1.9-4.9-9.4-6.1-13-5.9-16.9-6.3-29.6-17.3-44.7-12.6-17.3-33.7-42-51.7-53.3-13.3-8.3-35.2-17.2-50-24-9-4.1-18.2-7.8-27.2-11.8 3.5 5.3 8.1 10 11.7 15.3 10.2 14.6 11.9 22.4 11.3 40.7 12.7 16.3 25.6 32.5 37.9 49.1 3.1 4.3 11.4 13.9 12.8 18.2 2.6 8 .6 21.8 1.8 30.2 1.3 8.5 9.3 20.2 10.7 30.3 2.2 16.2-7.9 51.7-13.2 68.2-6.6 20.6-11.7 25.6-8.4 49.4 3.1 21.8 10.7 23.9 18.4 40.6 6.9 14.9 2.1 29.1 1.4 44.5-.5 12.2 1.8 20.2-1.5 32.5-.9 3.4-5.2 12.7-5.3 14.7.1 1.3 2.3 5.7 3.9 4.4m-747 39c-2.6-2-23.4 19.5-26 22.5-4.7 5.3-9.9 11.5-13.3 17.7-9.9 55.1-15.3 110.9-23.7 166.3 5 41.2 30.7 76.8 46.1 114.5 1.7 1.6 3.6-3.8 3.7-4.6.5-7-.9-23.2-1.7-30.9-1.2-12.1-4.7-17.8-7.5-28.5-5.4-20.8 3-33.8 4.5-53.5.8-11-.6-22.9 0-34 1.3-26.8 4.5-32.8-2.7-60.2-5.7-21.6 4.9-35.3 10.2-55.2 2-7.6 2.8-15.6 4.8-23.2 1.7-6.7 6.6-17 7.5-22.5.4-3.3-1.5-5.5-1.9-8.4m119 93c-13.2 1.4-28.2 4.3-41.5 3-18.6-1.8-29.3-30.4-41.5-42-3.4 13.3-11.7 28.5-13.6 41.9-1.8 12.9 3.6 46.4 7.8 59.3 4.5 13.6 17.5 30.2 19.5 44.5 1.6 11.5-1 23.7.8 35.2 8.6 9.8 21.6 18.3 29.5 28.5 1.4 1.8 1.7 4.9 2.6 5.6 2.1 1.6 16.2 4.4 20.6 6.2 21.1 8.5 14.6 24.8 21.6 42.4 1.6 3.9 9.5 19.6 12.1 21.9 1.3 1.2 2.6 1.9 4.4 1.5.7-.2 4.9-10.2 5.3-11.9 4.1-15.2-7.5-29.2-9.5-44-.6-4.5.1-8.7-.7-13.3-1.7-9.5-15.8-45.8-20.4-55.6s-19.3-24.8-20.2-33.8c-.5-5.5.9-10.7 2.1-15.9 2.3-9.1 23.7-70.7 21.1-73.5m76.7 42.3c-1.4-1.7-17.9-11.7-21-13.4-2.8-1.6-12.3-7.1-14.7-6.4-5.1 1.4-20 20.6-23.4 25.7-2.1 3.2-8.3 12.8-9.1 15.9-1.6 6.3 1.6 28.3 4.8 34.3 2.8 5.3 13.4 9.6 18.2 13.8 10.1 8.7 8.8 24.8 14.8 36.2 2.8 5.3 5.8 5.1 9.2 8.8 5.7 6.1 22.8 52.4 23.5 61.5 1.1 15.3-2.9 28.8-2.9 41.9 0 2 2.3 15.7 3 17 1.9 3.1 7.9 1.9 10.8.1 4.7-3 22.8-24.1 23.9-29.2s-2.6-19.5-1.8-27.8c.5-5.2 4.3-11.7 4.1-16-.1-2.9-2.8-7.2-3.6-10.5-5.4-21.1 13.5-35 13.6-52.5 0-1.6-1.2-10.5-1.6-11.5-1.1-2.5-14.8-14.5-18-18-5.4-5.9-17.3-19-18.4-26.6-.5-3.2.7-8.2-.2-10.8-.4-1.1-3.8-2.9-5.3-6.7-2.2-5.4-4-23.5-5.9-25.8m81.5 197.5c2.5 2.6 15.2 6.2 19.4 9.1 8.6 5.7 6.8 11.9 10.1 19.9 2.8 6.9 11.9 26.8 15.7 32.3 1.4 2.1 11.1 8.6 13.5 9.5 5.9 2.3 4.1-10.1 4-14-.4-9.7-2-30.9-4.2-39.8-1.8-7.2-11.9-13.4-12.8-23.2-.6-6.6 2.2-23.3 3.1-30.9.9-6.8 3.9-15.6 4-22.1.2-20.8-9.4-44.5-19.9-62.2-11-18.4-39.3-37.4-54.7-54.3-3.4-3.7-8.2-11.9-11.4-14.6-1.2-1-1.5-1.5-3.3-1.3-6.6 1-4 4.8-5.5 9.6-1.8 5.7-13.8 18.7-13.2 24.7.5 5.1 21.7 26.7 26.5 31.6 1.7 1.7 3.9 2.6 5.6 4.4 10.2 11 3.7 36.4 5.1 50.9 1.2 12.5 6.6 30.5 10 43 1 4.2 6.4 25.6 8 27.4m128.9 60.1c.7.5 9.2-2.8 10.4-3.9 2.4-2.2 2.9-5.4 2.4-8.4-.8-5.6-17.2-18-21.5-23.6-6-7.8-8.5-32.4-12.2-43.8s-9.7-22.1-11.8-34.2c-2.7-15.2 3-22.1 5.3-35.8.5-2.7 1.7-13.7 1.1-15.6s-2.8-2.1-4.4-2.6c-5.3-1.8-20-5.4-25.2-5.9-3.4-.3-9.4 2.2-9.2 6.2 3.1 12.6 10.2 25.4 13.3 37.8 2 8.3 2.3 17.7 1.7 26.3-.4 6.7-4.7 22.5-3.8 27.8.7 4 6.8 14.1 9.4 17.7 5.2 7.2 13.9 13.3 18.2 19.8s5 16.8 9.7 23.3c3.2 4.4 9.8 7.2 14 11 1.4 1.1 2.4 3.8 2.6 3.9m54.8-159.8c-.6-1-4.7-1.1-6.1-.9-5.1.7-19.1 4.8-24.5 6.5-1.6.5-9.8 3.6-10.6 4.2-.5.4-2.4 9.5-3.4 11.8-5.3 12.2-10.7 13.5-11.2 29.8-.4 11.6 7.2 63.6 13 72.1 2.4 3.5 7.6 6.9 10.4 10.6s4.2 8.2 7.1 11.9c7.5-18.4 2.8-38.3 4.5-57.5.7-7.4 4.4-15.9 5-23 .7-9.8-5-13.9.1-25.9 2.7-6.5 19.2-33.9 15.7-39.6" class="shading" data-original-prefix="shading" opacity=".2"/><path id="outline-shading-head1" class="outline"  fill="#000" d="M992 900c-2.3 3-33.3 4.8-39.2 6.3-15.6 3.9-34.7 16-50.8 21.2-23.3 7.5-56 8.3-80.5 7.6-5.5-.2-15.2-3.9-19.4.5-1.2 1.2-1.2 3.2-2.5 4.5-6.3 6.5-56.2 19-67.5 21.5-10.7 2.3-33.5 3.8-41.5 9.5-6.3 4.5-20.2 26.4-22.1 34-.3 1.1 1.8 7.7 1.6 11.5-1.8 37.1-18.5 93.7-43.5 121.5-11.3 12.6-30.5 27.3-39.9 40.1-1.4 1.8-2.1 5.8-3.8 8.2-13 19.4-46.7 58.6-53.1 77.9-3.6 11-3.5 32.2-9.3 40.7-3 4.5-18.8 19.4-24.3 15.9-1.9-1.2-7.7-23.2-9.1-27.3-2-5.7-8.5-15.9-6.3-21.2 3.7-8.7 12.7-2 17.5-2.5 9.9-1 16.3-19.4 21.3-26.7 5.3-7.7 13-14.7 18.8-22.2s22.4-30.2 24.8-38.2c3.4-11.1-15.2-22.6-12.2-34.7h-3c2.6 16.1-9.1 27.6-20 37.5-10.8 9.8-23.7 19.2-35 28.5.2-5.5 1-11.7-6-12-.5-1.9 1.5-2.4 2-4-3.1 0-6.4-.8-9-2.6-6.9-4.6-17.9-34.7-22.2-43.8-9.1-19.1-19.9-37.7-26.9-57.6 11.3 3.1 21 11.7 32.9 13.6 30.4 4.8 53.3-25.4 69.5-46.6 2.9-2.3 5.7 3.9 9.8 5.3 2.6.9 4.7.4 7 1 3.2.9 6.3 6.3 9.3 8.7 8.8 7.3 18.6 7.8 26.8 13.2 6.9 4.6 11.9 16.6 23 13.8 2.4-.6 20.8-37.8 25.2-42 7.8-26.2 25.6-90.3 50.5-103.5 12.5-6.7 35.4-7.8 50-11 10.3-2.3 20.7-5.1 30.8-8.2 14.3-4.5 26.5-8.2 37.9-18.1 36 1.1 73.3 2.9 107.8-9.2 27.6-9.7 38.5-21.8 70.9-15.9 1.4.1 11.8 2 9.7 4.8" class="shading" data-original-prefix="shading" opacity=".2"/></g><path id="outline-head-rastaman" class="outline"  fill="#000" d="M1536 1647c1.8 28.3 9.9 58.1 8 86.5-2.8 41.9-33.6 68.8-43.3 107.7-5 20.1-3.1 49.3-32.9 45.6-5.7-.7-26.4-7.8-31-10.9-10.1-6.8-.9-30.1 1-39.6 5.1-25.2 1.7-32.3-.6-55.8-2-21.4 15.8-42 9.8-64.8l-1.9-7.6c-1.7 10.8-.1 21.8-3.1 32.4-2.6 9.3-10.4 17.1-16.9 24.1-3.2 3.4-10 8.1-12 11-7 10-6.1 14.7-17.5 24.5-17.8 15.1-29.4 13.9-33.3 40.7-3.8 26.2-2.5 56.2-26.2 74.8-18.9 14.8-21.5-3.1-28.8-16.1-4.8-8.5-12.6-18.2-16.3-26.7-6.8-15.1-.3-39.3.2-55.7-19.4 17.4-14 48.5-6 70.5 4.2 11.6 15.1 29.9 14 41.9-.8 8.1-20.4 24.2-27.9 25.2-4.6.6-22.3-8.9-26-12.1-3.3-2.9-7.5-10.2-11.1-13.9-12.4-13.2-27.8-22.4-35.5-39.5-3.4 4.9-9.8 5.6-14 9-8.6 6.8-13.8 32.9-20.7 44.3-6.3 10.3-21.3 20.4-31.5 27.5-11.3 7.9-21.7 17.5-36.8 15.1-3.8-.6-16.3-13.6-17.8-17.2-1.3-3.1-1.1-14.4-.7-18.2 1.8-19.5 20.4-37.2 20.9-56.1.1-3.7-1.7-7.1-.7-11.7.6-2.7 4.7-7.5 6-11 3.8-10.8-.1-17.3.3-27.7-8.7 5.9-14.4 23.4-13.5 33.5.3 3.4 1.8 6.4 2 10 .5 9.4-11.8 29.9-15.8 40.3-4.4 11.2-9.9 36.2-17.2 43.8-5.8 5.9-22.9 6.6-29.9 1.9s-7.4-18.5-8.1-26.4c-7.2 6.9-8.6 14.4-19.8 15.8-6.6.8-6.7-1.7-9.8-6.7-6.1-10.2-8.2-21-15.7-31.3-2.4-3.3-16.3-19.2-19.3-19.7-2.2-.4-1.6.8-1.3 2.3 2.6 13.2 13.2 47.2 11.7 58.1-1.3 9.4-12.6 8.1-20.3 7.5s-35-9.4-40.3-14.2c-3.2-2.8-11.5-19.9-15.9-25.6-6.1-7.9-13.6-12.5-19.4-19.6-3-3.8-16-26.4-19.5-26.5-4-.1 1.5 9 .4 10.8-.6 1-18.2 7.5-21.9 9.6-7.2 4.2-17.4 13-22.4 19.6-6.2 8.2-9.2 21.6-18.6 26.4-4.4 2.2-15.5 6.4-20 5.1-3.4-1-15.8-11.6-17.2-14.8-2.6-6.2-.9-14.8-2.6-21.3 7.7-26 30.3-68 18-94.2-2.1-4.4-4.5-9.1-10.2-8.3 2.8 11.8 6.3 24.9 3.3 36.8-4.3 17.1-14.5 34-15.8 52.2-6.5 4-13.2 10.3-20.4 5.4-14.5-9.9-30.5-38.5-34.8-55.2-2.7-10.5-1.5-22.5-3.8-33.2-9.7-4.2-20.9-7.7-28.6-15.4-3.4-3.4-5.2-8.9-7.5-11.5-2.7-3-13.9-8.6-18.5-12.5-13.8-11.9-23-28.6-26.5-46.5-1.7-8.5-3-18.6-1.5-27-10.5 11.9-7.8 29.5-2.7 43.2 1.8 4.8 8.3 14.6 8.7 17.3 1.1 7.3-2.9 25.7-2.9 34.8 0 4.1.6 10.8.9 15.1 2.2 26.4 14.5 39.1-10.7 58.3-11.5 8.8-35.8 24.8-42.6 3-6-19.4-4.5-37.7-13.5-58.5-8.1-18.6-24.1-36.3-30.9-54.1-8.5-22.3-1.8-76.3.8-101.8.2-2.1 2.4-11.1 2-11.5-1.5-1.6-1.9.8-2.3 1.3-10.5 11.8-30.6 34.9-34.2 49.7-1.6 6.5-1.2 13-3.4 19.6-3 8.9-13.5 23.7-23.5 24.5-20.1 1.6-25.7-21.9-33.7-35.4-5.9-9.9-16.8-18.3-16.9-30.2 0-15.2 17.9-44.4 25.9-58.2 5.1-8.9 10.7-17.7 16.2-26.3-1.2-.9-17.1 7.4-19.7 8.8-10.1 5.7-22 17.6-33.9 16.2-6.4-.8-24.4-16.8-27.2-22.8-5.9-12.6 1.1-32.1 6-44.5 7.6-19.2 17.4-31.1 37.8-37.2-11-2.2-19.3-4.7-22.5-16.5-1-3.4-1-10.2-3-13-4.3-5.8-25.1-3.3-19.7-19.8 1-3.2 11.6-18.6 14.2-21.7 7.5-9 13.8-10.4 25.4-9.4 8.5.7 18.5 6.7 25.6 1.8l-8-4.5c-8-6.2-17.1-28.7-13.2-38.3 2.8-6.8 19.1-10.6 25.2-14.8 12-8.4 12.9-28.4 19.6-41.4 8.1-15.7 21.8-21.6 37.5-27.5 2-1.6.1-7.1-.5-9.5-4.6-17.3-19-45.5-17.5-62.6.8-9 7.5-19.1 12.6-26.4 1.6-2.2 9.8-10.1 8.4-12.1-.1-.2-3.1-.7-4.2-1.3-4.1-2.2-7.1-5.3-10.2-8.8-23.5-50-52.1-100.9-67.8-154.2-17-57.8-.1-77.8 33.9-121.7 15.5-20 33.3-41 49.9-60.1 19.3-22.2 33.2-36.7 60.2-49.8 155.1-75.6 308-128.3 479.2-156.8 46.4-7.8 114.7-19.8 160.4-12 76.2 12.9 176.7 101.2 229.8 156.2 61.4 63.6 120.5 132.6 161.5 211.5 11.7 22.5 26.9 51.5 16.3 76.4-14.3 33.7-53.3 94.3-79.8 119.2-1.8 1.6-10.3 7.4-10 8.9 21.2 17.3 40.4 43.5 41.1 72.1.1 6.4-3.4 7.3 1.5 14.4 10.4 15.1 37.2 20.5 49.9 35.1 6.3 7.2 28.2 51.4 31.5 61.5 4.1 12.3 5.7 27.1-4 37.2-.4 2.4 9 9.2 11.6 10.2 11.8 4.6 48.8 1.6 46.1 21.4-.6 4.3-8.5 25-11 29.1-6.4 10.6-18.8 17.5-28.8 24.2 17.2 8.6 28 20.6 36.2 37.8 11.6 24.6 15.4 46.9-5.2 68.2-17.5 18-25.7-3-35.9-13s-23.6-13.3-36-18c4.9 8.8 16.3 22.9 16.6 33.2.2 8.3-6 25.9-6.7 36.8-1.2 19.9 3.5 32.3 4.9 50.2.9 11.9-3 17.3-8.7 27s-12.3 24.4-23.7 11.3c-10.5-12.1-30.4-41.4-33.2-56.8-1.9-10.6.6-28.2-2.5-36.5-1-1.9-12.4-10.9-14.2-13.9m-410.2-979.7c-51.5 3.3-112.1 16.3-163 27-124.1 26.1-257.3 66.2-371.2 121.8-30 14.7-55.3 25.9-77.6 51.4-11.3 12.9-23.3 27.5-34 41-14 17.6-52.5 67.7-54.9 88.1-3.6 30.7 21.3 85.6 34.7 114.1 7.6 16.1 22.9 49.5 34.2 61.8 9.1 9.9 31.3 12.8 38.5-.5 1.5-2.7 6.6-16.9 6.6-19.5 0-3.7-2.2-4.8-3.2-7.9-4.2-13.5 2-30.6 1-46-.5-9.2-3.9-20.2-3.9-29.1.1-25 28.8-61 39.8-84 13.1-27.5 19.7-61 33-89 5.2-10.9 7.5-15.3 20-18 13.3-2.8 29-2.5 42-6 23-6.2 48.1-21 70.2-29.8 39.7-15.8 104.1-1.6 148.5-4.5 17.1-1.1 29.7-7.6 47.5-3.6 9 2 16.1 7.5 24.3 10.7 14.2 5.6 29 .9 45.2 6.8 11 4 16.8 10.7 26 16 10 5.8 12.8 0 22.8-3.3 7.4-2.4 21.6-6 29-4.5 9 1.8 10.7 10 15.7 15.3 7.5 7.9 28.2 15.8 38.5 22.5 5.2 3.3 25.5 21.3 27.2 21.8 6.1 1.8 22.3 2.2 30.5 3.5 44.1 7.4 92 17.1 135.8 26.2 37.9 7.9 55.2 44.9 83 69 19.4 16.9 39.7 18.8 50.8 45.2 2.8 6.8 5.2 15.7 7.2 22.8 5.2 19.4 16.7 64.3 13.8 82.7-.9 5.8-12.5 25.4-11.7 28.1.2.8 9 8 10.9 6.2 28.8-35.1 55.6-74.9 77.2-114.9 5.8-10.8 10-16 8.7-29.1-3.3-34.3-45.8-100.5-66.1-129.9-55.2-80.2-162.5-201.9-252.1-240.9-34.4-14.9-87.5-23.9-124.9-21.5m-90.9 230.9c-11.9-9.5-23.6-19.7-37.9-25.7s-53.8-15.7-69.4-16.6c-12.5-.7-19.2 3.8-30.5 6.6-46.2 11.1-97.9-1.7-145.4 5.6-16 2.5-20.3 9.4-33.3 15.7-22.5 11-54.2 10.6-78.9 13.1-1.5.2-3.5.5-4.8 1.2-.8.4-11 11.4-12.1 12.9-17.7 23.2-31.2 88.4-43.8 119.2-6.2 15.1-17.3 27.4-19.6 43.4-1.7 11.3.9 22-.1 32.9-.5 5.9-4.6 12.1-1.8 17.7 3 6 16.3 11.8 22.3 15.7s11.8 9.1 18.2 12.9c9.3-7.7 18.5-16.9 26.3-26.4 14.5-17.6 24.4-44.9 31-66.9 5.5-18 4.3-26.4 6.1-43.9 1.5-14.8 10.9-24.7 18.7-36.3 1.9-2.8 2.8-6.6 4.8-9.2 6.8-9.3 19-6.7 28.7-8.3 18.2-3.1 34.7-8 51.5-15.5 13.5-6 33.4-20.1 47.7-19 8.1.6 17.1 4.2 25.1 4.8 16.4 1.4 40.6-.7 56.5-5.4 9.4-2.8 24.4-14.7 34.3-19.7 23.8-12 57.2-22.3 80.2-3.8 5.6 4.5 10.2 11.8 15 16 .9.8 1.1 1.3 2.5 1 2.2-7.7 8.3-13.8 8.7-22m214.2 173.7c-8.3-18.4-23.3-32.6-34.9-48.6-19.8-27.5-36.2-62.5-61.7-85.3-18.4-16.5-39.5-31.6-58.9-47-4.7-3.8-12.5-13-18.1-13.9-9.9-1.6-14.4 4.7-23.4 5.9 4.1 10.3 1.8 18.7-2.1 28.3-1.8 4.3-12.8 22.6-12.9 24.2-.1 1 6.6 14.7 7.5 18.4 1.1 4.6 1 15.3 2.4 17.6 1.1 1.7 7.7 5.9 10.1 8.9 2.1 2.7 3.5 6.8 5.6 9.4 5.2 6.7 8.9 6 15.4 9.5 14.7 8 50.8 55.1 62.4 70.6 12.1 16.1 31.3 40.7 30.6 61.4-.3 9.3-1.5 18.5-1.1 28 .2 3.6 2.1 7.8 2 10.9-.2 4-4.9 12-5.8 17.2-.8 4.3-.5 10.2-1.2 14.8-1.7 10.4-7.3 33-5.8 42.1 1 6.2 13.2 23.7 16.8 31.2 8.4 17.8 8.4 26 11.4 44.6 1.4 8.8 9.2 20.1 9.8 29.3.6 10-12.2 32.9-15.7 44.2-14.9 48.6-3.5 99.3-13.6 148.4-4.1 19.7-13.1 35.8-15.7 56.3-1.3 10.7-.1 23.3-3.3 33.7-2.4 7.9-11 17.2-14.5 25.5-5.7 13.8-5.7 25.6-6.2 39.8-.6 19.2-10.6 25.7-17.8 40.3-2.3 4.6-3.5 11.2-6.1 15.9-2.9 5.3-9.5 9.7-8 16.6.3 1.2 1.2 3.3 2.4 3.7 1.4.4 25.3-9.4 27.7-11.1 12.5-8.6 15.1-34 24.2-46.8 5.8-8.2 18.7-14.5 25.9-23.1 20.7-24.2 13-50 20-78 6.3-25.4 24.8-46.3 26.6-73.4 1-15.6-1.1-31.3-.8-46.8 21.6-37.8 40.9-71.1 42.8-116.2.5-12.4-2.8-25.6-2-37 .6-9.1 5.5-20.9 5.1-30-.4-8-9.5-19.8-10.1-31.9-.6-11.5 5.3-21.5 6-31.2.7-10.1-.7-34.3-2.1-44.8-1.6-12.4-10.2-27.3-13.2-39.8-3.5-14.5-2-45 .3-60.3 1.8-11.7 8.9-20 1.9-32.5zm-222.2-110c6.3-4-12.2-25.9-15.8-29.4-26.1-24.8-48-23.1-79.4-9.3-6.7 3-20.2 12-25.6 13.4-6.2 1.6-15.1 1.6-22.1 2.9-30.5 6.1-39.4 18.5-62.7 35.3-20.9 15.2-36.3 20.4-52.7 42.3-4.6 6.1-7.9 13.5-12.1 18.9-7.1 9.2-25.9 20.5-35.5 29.5-14.3 13.3-20.1 22.6-25.2 41.8-8.9 33.2 7.9 86-13.2 112.8-25.8 32.6-65.1 57.9-76.8 99.2-6.6 23.3-.1 30.7 1.2 52.3 1.3 20.3-9.8 39.6-9.9 59.1 0 5.6 4.6 27.8 6.7 33.1 8.6 21.1 35.6 38.9 35.2 63.8-.1 4.2-4.7 13.4-3.6 15.5 1.3 2.5 30.1 16.5 35.7 20.4 5 3.4 15.6 14.9 19.6 15.5 3.5.4 9.2-2.2 9.2-6.2 0-12.3-9.7-24.5-13.8-35.3-6.4-16.9 2.5-21.8 6.2-36.6 4.9-20.1-9.8-33.9-13-52.6-3-17.2-3.4-36.5 1-53.4 2.3-8.8 7-16.7 9.2-25.8 4-16 3.2-37.8 11.5-51.5 9-14.9 22.1-30.8 32-45.9 17.4-26.5 31.8-51.4 46.8-79.2 6.4-11.9 16-22.1 17.9-36.1 1.2-9-.3-22.6 4.4-30.6 2.5-4.2 14.1-12.6 18.4-17.6 9.6-11.4 7.9-17.2 12.6-29.4 16.2-41.6 86.2-80.6 124.2-101.8 11.4-6.3 24.1-8.3 33.4-13.6 3.8-2.2 7.7-7.7 12.3-8.8 3-.7 11.7 2.7 15 4.1 3.1 1.1 4.6 4.7 8.9 3.2M1458 1188c-2.2-7.6 3.7-15.1 4.1-21.5.2-4.1-1.7-11.2-2.5-15.5-4.1-20.2-13.6-68.8-23.3-84.7-7.1-11.6-13.9-11.3-24.5-17.5-7.3-4.4-15.5-9.5-22.2-14.8-23.5-18.9-37.6-52.2-68.3-60.7L1180 941.5c19.3 24.6 35 51.8 51.9 78.1 29.6 11.6 61.9 21.8 89.7 37.3 12.8 7.1 35.2 18.8 46.3 26.7 8.8 6.3 40.8 40 43.6 49.4 2 6.9.6 16.2 3 22 1.9 4.5 17.9 22.9 22.4 25.6 2.2 1.2 20.3 8.2 21.1 7.4M838 945c-2-1.9-15.5 2.8-18.6 2.9-4.2.1-8.6-1.3-13.8-.8-18.6 1.8-41 17-59.4 23.6-15.8 5.7-50.7 8.9-60.6 19.4-8.2 8.7-4.8 22.5-7.1 33.9-1.4 6.8-4.8 13.1-6.5 19.5-8.6 32.9-11.1 57.7-31.7 86.3-12.5 17.4-27.5 29.5-40.9 45.1-11.7 13.5-18.5 30.5-28.7 45.3-14.6 21.4-31 32.8-38.3 58.7-2.9 10.4-4.5 25.5-8 35-4.5 12.4-36.2 24.6-47.2 32.8-6.5 4.8-11 11.3-14.4 18.6-3 6.3-9 30.6-12.9 33.1s-21.2 4-27.1 5.8c-4.4 1.3-6 1.7-4.2 6.7 5.8 15.7 31.1 13.4 43.5 7.6 5.4-2.6 11.5-8.4 16.7-10.3 5.8-2.1 11-.5 17.2-2.8 4.1-1.6 22-12.2 24.6-15.3 2.9-3.3 11.8-21.8 13.5-26.5 5.2-14.4-1.7-26 14.3-35.7 5.5-3.3 18.5-7.8 22.2-11.8 2.8-3.1 3.1-11.6 6.3-16.7 12.6-20.1 44.9-35.8 62.1-51.9 6.5-6.1 11.3-16.2 17.1-21.9 1.6-1.5.8 2.8 2 1.5.3-.4 4.6-7.3 5.2-8.3 16.4-29.3 5.2-56.9 10.1-86.9 2.1-13.2 15.4-61.1 22.3-70.7 9-12.6 30.2-20.2 42.5-30.6 25.1-21.2 32.5-47.6 64.6-63.4 9.8-4.8 28.5-9.5 34.4-18.6.7-1.3 1.1-2.1.8-3.6m-29 695c2.9-9.2 4.5-40.9 17.5-41 9.5-.1 17.8 18.6 24.6 24.4 7.2 6.3 19.4 9.8 27.4 16.6 8.5 7.2 8.6 13 13.8 21.2 20.1 31.8 79.4 58.3 115.4 64.6 13.8 2.4 14.2-.2 26-2.4 23.3-4.4 43.3-11 64.9-21.1 2.9-1.4 14.4-6.4 15.1-8.9 1-3.4-.2-9.7.2-13.8 2.6-25.2 16.2-34.4 21.8-55.2 3.5-13.2-.2-30.9 2.5-41.5.6-2.3 10.3-16 12.5-20.5 16.4-33.7 5.1-47.1 3.3-80.7-1.4-26.5 1.2-49.4 8.1-74.9 3.8-14 15.8-40.7 15.9-53.1.1-13-12.6-22.9-16.2-33.7-2.1-6.2-2.6-13.1-5-20-5-13.8-20.4-35.6-21.7-48.3-2.4-23.3 16-56.8 22.7-79.2-6-14.2-2.4-27.2-1.7-41.8-27.2-29.8-48.9-71.4-80.5-96.5-7.2-5.7-19.2-11.5-24.5-18.5-4.1-5.5-13.3-30.7-16.7-32.3l-30.6-9.1c-5.4 7.5-12.2 12.3-20 17.1-40.7 24.9-79.7 32.6-114.2 69.8-12.9 14-11.8 29.2-21.1 41.9-5.3 7.3-23.9 20.7-26.6 26.4-2.2 4.6-5 24.3-5.7 30.3-1 9.1-1.3 12.9-3.1 21.9-1 4.9-.5 11.6-1.3 16.7-4.8 29.9-54.1 83.2-73.5 110.5-4.8 6.8-19.8 25.9-21.5 32.5-2.5 9.3-3.2 22.9-5 33-3.9 21.7-7.6 33.4-5.7 56.3 1.5 17.7 4.7 50.7 10.2 66.8.3.9 6.8 8.4 7.8 9.2 5.2 3.9 13.1 4.7 19.4 9.6 19.5 15.1 20.6 37.9 27.3 59.7 7.9 25.8 17.4 45.6 38.2 64m437.5-598c3.5 10.3 13.9 20.6 17.9 30.1 2.5 6 1.5 14.2 3.3 18.7.9 2.2 5.7 6.8 7.5 9.5 41.1 62.9 56.4 107.6 43.6 184.1-2.9 17.4-10.1 28.7-14.6 44.4-8.2 28.9 13.7 45.4 21.4 71 10.7 35.1-24.3 62.6-13.8 96.8 3.6 11.6 5.3 10.4 16.3 6.2 4.8-1.8 10.2-4.4 12.9-9.1 4.3-7.3 7.7-21.1 11.3-29.7 7.3-17.6 17.2-36.3 21-55 4.8-23.6 3.2-47.9 5.6-71.4 3-29.1 12.4-59.1 14.9-88.1 1.5-17.8-.5-36.1-1-53.9-.4-13.4 2.4-36.9-5-48s-32.8-39.9-42.5-48.5c-7.3-6.5-21-11.1-29.8-16.2-22.9-13.6-44.6-29.7-69-40.9m93.5 465c-13.2 3.8-27.7 22.3-37.2 2.7-14.7-30.4-1.2-54.8 3.7-84.7 4.2-25.5-8.3-37.4-15.2-59.8-9.6-31.1 8.1-45.8 13.4-74 10.1-53 5.2-103.3-24.6-148.9L1266 1120c-1.6 16.6-2.7 32.2 3.5 48 3.1 7.9 11.6 18.7 12.5 26.5 1.2 9.6-.5 22-.1 32.1.6 13.1 3.3 26.9 2.1 40-.4 4.5-2.5 8.6-2.9 13.1-1.3 13.1 5.6 22.2 4.9 33.9s-9.5 27.6-10 38.1c-.9 19.9 3.8 41.6.8 61.7-5.3 35.5-41.9 69.5-40.9 104.1.4 13.8 6.7 32.4 2.1 45.1-1.8 5-8 9.7-11.5 14.5-7.7 10.8-13.9 25-16.6 37.9 4.8-5.1 6.5-12.2 15-10.6 15.7 3 14.9 25.8 19.4 37.6 17.2-15.6 25.6-35.2 33.5-56.5 9.1-24.5 9.6-49.5 35.6-61.4 4.3-2 22.8-7.3 24.1-8.4 1.4-.9 1.8-6.8 2.5-8.7m-757-340c-4.4-.9-8.8-1.8-13-3.5-8-3.2-11.2-10.1-17.6 1.5-3.1 5.7-3.4 13-7.5 18.6-4.6 6.3-10 6.3-16.3 9.7-12.2 6.6-40.1 36.1-42.5 49.5-1.6 9.2 2.1 11.3 3.9 18.6 4.1 16.8 5.5 34.4 11.9 50.7 17-6.4 13.4-30.9 17.5-46 5.6-20.4 23.8-33.3 35.7-50.3 7.9-11.2 15.5-23.9 20.2-36.8zm830 27c-1.6 19.2.5 38.2 0 57.5-.1 4.5-1.9 9-1 13.9.3 1.4 11.5 25.4 12.4 26.6 3.2 4 19.9 15.7 25 19 11.3 7.2 43.8 21.1 48.6 32.4 2.2 5.3 2.7 12.6 5.2 17.8 1.3 2.7 11.5 16.6 13.8 18.2 8.6 6.1 37.5 16.4 49 21 8.1 3.3 17 5.7 24.9 9.1 2.7 1.1 13.7 7.9 15 7.1 6.6-4.1-3.9-16.9-5.8-21.3-2.6-6.2-2.7-12.8-5.1-18.9-2.9-7.5-14.8-25.9-20.7-31.3-8.2-7.5-21.7-12.1-31.2-18.8-22.1-15.7-18.6-33.8-30.9-55.1-8.4-14.6-37.8-45.2-52.1-53.9-11.9-7.3-27.8-11.3-40.7-19.3-2.1-1.6-3.2-4.6-6.4-4m-3 102c-2.6-.3-1.6 0-2 1.5-11 36.8-14 71.3-19 109.1 8.1 13.5 14.3 28.5 13.8 44.7-.2 7.9-4 15.9-5.4 23.6-3.3 16.7-5.1 36-12.4 51.6-5.3 11.4-10.1 10.4-8.8 26.1.7 8.9 4.9 14.1 7.3 21.7 5.2 16.8 3 16.5 16.2 29.8 13.6 13.8 36.6 29.3 47 45 3.4 5.2 14 28.2 15.1 33.9.9 4.3 0 8.3.5 12.5 2.4 18.2 14.2 36.9 6.7 56.9-1.6 4.3-5.1 7.5-5.7 12.3-1.3 10.5 4.4 26.1 3.9 37.9-.3 7.9-3.8 19.3-5.7 27.3-1.7 7.1-8.8 23.9-5.4 29.8 1.5 2.4 15.1 7.8 17.5 7.2.9-.2 6.1-8.2 6.4-9.5 1.1-4.9.6-12.8 1.5-18.5 7.1-44.4 48.9-65.5 46.8-117.3-.9-20.9-2.6-58.4-8.3-77.7-2.3-7.6-6.4-14.6-8.7-22.3-2.8-9.1-2.4-16.2-8.6-24.4-6.2-8.4-22.4-8.3-32.7-11.3-19.2-5.7-26.5-12.4-27.8-33.2-2.9-44.7 2.9-86 4-130.1.8-34.1-5.3-37.3-16.4-66.5-7.7-19.7-12-40.7-19.8-60.1m-870.4 222.6c9.5-14.8 21.4-29.2 32.8-42.7 3.9-4.6 8.5-8.9 12.5-13.4-3.5-9.6-4.4-19.9-4-30.1 1-23.4 11.9-44.4 11-66-.3-8-3.3-16.1-3-24.1.5-11.7 5.4-25.7 7-37.5-8.1 4.6-8.2 15.3-13.9 21.6-7.1 7.9-22.3 10.8-27.6 21.4s-14.5 48.4-14.4 60.4c0 4 1.7 10 1.9 14.1.5 12.4-5.8 19-9.7 30.2-9.1 25.9-6.7 83.3-23.2 99.8-7.6 7.5-27.9 17.8-32.9 25.1-2.8 4.1-6.1 13.8-9 19.1-12.9 23.5-27.8 47.5-39.7 71.3-3.3 6.6-9 16.8-7 24.1.6 2.1 12 24.6 13.7 27.3 1 1.7 13.6 13.3 14.6 13.5 4.9 1.3 8.1-10.8 8.2-14.5.3-14.2-3.9-20.6 4.3-34.7 7.3-12.6 29.7-36.8 40.3-48.7 8-9 22.9-17.1 24.5-30.5 3.4-27.9-1.9-61.4 13.6-85.7m918.2-188.4c-.5-.6-3.5-1.8-4.5-2l-15.3-2.7c10.5 27.5 26.4 53.6 25 84-.9 19.4-9.1 44.4-9.1 61 0 19.9 2.8 47.9 5.1 68 .5 4.6 1.7 16.8 3.7 20.2 2.8 4.7 25.3 6.3 31.5 7.6 11.9 2.5 18.8 5 24.7 16.3 6.8 13.1 2.7 22.3 12.6 34.4 7.4 9.1 16.3 16.2 24.5 26.5 2.5 3.1 9.1 8.2 10.4 11.6 2.3 5.8 2.3 21.5 3.8 29.2 3.6 17.8 11.8 35.5 24.2 48.8 18.4-14.6 3-35.8 1.5-54.5-.9-10.9 2.3-22.4 1.8-31.7-1.1-19.6-12.3-62.7-26.2-76.8-5.1-5.2-12.2-7.3-17.6-11.4-26.2-20.1-23.4-33.5-27-63-2.1-17.1-8.3-32.9-12.5-49.5-8-31.9-29.5-34.6-41.4-58.6-5.6-11.2-3.3-17.7-5.4-28.6-.7-3.6-4.3-10.2-5.8-14.2-.9-3.2-3-13.3-4-14.6M1665 1468c-10.8-.1-30.7 4.4-40.3-.2-4.4-2.1-16.1-22.3-21.2-27.8-12.5-13.5-25.1-13.2-40.2-19.8-4.9-2.2-9.3-6.4-14.1-8.9-14.3-7.4-35.1-11.3-47.2-21.8-4.1-3.5-6.4-7.7-10-11.5.2 3.3 1.6 6.7 2.8 9.7 6.6 16.1 22.1 47 32.7 60.3 4.2 5.3 22.9 26.4 27.6 29.4 5.7 3.7 15.3 3.1 22.3 6.7 13.3 6.8 20.6 23.2 37.6 26.4 11.4 2.2 37.6-12.5 44.5-21.6 3.8-5 4.9-14.7 5.5-20.9m-1137-67c-2.6-2.7-27.1 15.8-31 17.5-21.4 9.4-35.8 8.3-54.5 27.5-5.3 5.4-8.8 14.9-15.4 18.6-15 8.3-37.8-12.1-47 11 2 2 4.9 2.1 7.3 3.7 8.2 5.3 2.5 14.2 5.9 17.6 1 1 19.6 7.2 22.5 7.9 4.9 1.3 24.9 6.2 28.6 6 2.3-.2 4.4-2.1 6.4-2.4 4.5-.7 8.6-.5 13.3-1.7 15.4-4 14.2-10.5 22.6-21.4 10-13.2 16.7-14.6 28.7-23.2 5.2-3.7 3.7-9.5 5.4-15.6 1.8-6.5 7.4-15.3 8.2-20.8 1-7.3-2.4-17.1-1-24.7m849.9 58.1c-.6-.4-9.6 1-10 1.5-4.2 10-8.3 20.1-12.7 30.1-1 2.3-3.4 4.3-3.9 7.1-3 14.7 4.4 16.5-8.3 30.7-8.8 9.9-11 5.4-22.5 6.5-6.7.7-16.4 7.5-17.4 14.6-2.3 16.4 8.4 39.8 14.4 55.4 1.5 3.8 5.6 9.4 6.3 12.7 2.9 14.4-.7 23.1 7.1 38.9 11.3 23.3 30.5 24 22.7 54.3-8.2 31.8-32.3 52.6-42.5 81.5-11.2 31.7 3.1 63.3 8.5 94.6 4 7.5 6.7 6.8 12 1 12.4-13.6 11.2-47.3 15.8-65.2 6.6-25.7 23.3-22.7 38.7-38.3 7-7.1 11.1-17.4 17.3-24.2 7.8-8.5 18.5-10.6 19.7-23.8 1.7-19.3-3.8-31.1 6.1-50.9 1.8-3.7 10.7-14 10.9-15.2 1.1-6.9-6.9-18.5-11.5-23.5-17.9-19.6-49.9-36.8-60.7-61.3-2.6-6-3.2-12.9-5.7-18.3-3.7-8.2-8.3-6.6-9.2-18.8-1.9-26.7 17.3-24.6 22.4-43.7 2.2-8.3 6.5-29.3 5.4-37.1-.3-1.3-2.4-8.2-2.9-8.6M514 1476c-2.8-2.8-9.8 11.1-11 12.5-9.5 11.6-33.2 37.5-48 40.1-5 .9-9.7-.1-14.5.5-15.5 1.9-44.9 23.3-53.4 36.6-5 7.8-13.6 23.5-12.1 32.8.9 5.2 10 12.7 15.5 12.7 6.8-.1 25.6-18.2 33.5-22.6 9.7-5.4 19.8-7.3 30.6-9.4 12.5-12.5 34.1-21.8 46-34 4.7-4.8 6.1-12.4 7.2-18.8 2.7-16.6 2.1-34.1 6.2-50.4m69 4c-.1.1 1.1 1.7.6 3-11.7 13.9-24.7 28.5-34 44.1-16.7 28.1-11.2 56.2-12.5 87.5-.8 18.7-7.4 28.9-9.9 46.1-3 20.2-7.3 74.8-1.8 92.6 7.2 23.5 27.1 43.8 36.9 66.1 6.6 15.1 8.4 31.7 10 48 1.3 4 15-1.2 17.9-2.8 5.7-3.1 5.5-5.7 4.7-11.8-2-14.8-11.1-32.3-11.7-48.3-.5-12.3 6.6-32.2 2.5-42.5s-7-10.9-6.5-23.6c.5-14 5.3-18.1 9.3-29.7s8.9-30.2 6-41.6c-3.5-13.8-11.8-28.2-13.2-42.8-3.8-41.7 34.2-87.6 18.4-125.4-2.5-5.8-8.3-9.8-9.7-13.3-.8-1.9-.4-6.2-2.2-6.5-.5.1-4.6.7-4.8.9m1009.2 97.8c.7.4 12.1.9 15 1.5 11.6 2.3 34.6 13.7 43.8 21.2 6 4.8 9.6 14.1 18 4 11-13.2-2.5-38.1-12-49-5.1-5.8-31.3-24-38.4-27.6-6.4-3.2-15.8-4.9-22.6-8.4-8.8-4.5-14.9-12.9-23.7-18.3-9.5-5.9-19.7-7.5-28.3-14.2 3.9 12.4-.8 35.3 5.6 45.9 5.9 10 26.2 22.6 34.9 33.1 1.7 2 7.1 11.4 7.7 11.8m-980.8-83.2c-.3-.3-1-3.7-1.2-.3 3.4 9.6 8.1 19.6 6.7 30.1-.7 5.2-4.3 10.8-5.8 16.2-7.1 25.4-12.9 54.8-15.1 80.9 5.4 17 9.4 35.4 14.7 52.3 3.3 10.5 12.3 27.7 14 36.9.9 4.7-.2 10 .2 14.8 4 41.2 20.5 35.4 41.4 62.6 1.6 2.1 2.1 5.2 4.1 6.9 3 2.7 11.5 3.7 16.5 6.6 23.4 13.8 17.6 56.9 26.3 79.7 2.9 7.5 8.9 13.7 16.8 15.7 1.9-22.4 15.7-42.3 12.8-65.2-2.8-22.3-16.8-40.6-23-61-2.3-7.4-1.8-14.7-3.7-21.3-4.8-17.4-26.1-39.3-25.1-57.9.3-6 13.7-33.1 16.8-41.3 13-34 20.3-65.1 31-99 2-6.2 6.8-8.2-1.8-13.7-6.8-4.4-13.6-2.5-20.5-2.5-6.5.1-8.4-5.4-12.5-9.1 0 7 3.9 13.9 5.7 20.8 2.4 9.4 6.9 32.3 4.6 41-2.6 10.2-12.7 7.2-20.7 6-18.7-2.7-16.3-7.8-28.1-18.9-10.2-9.6-21.7-12.2-32.8-19.2-15.5-9.7-7-13.2-5.8-26.4s-5.4-26.4-15.5-34.7M752 1558c-.5-.4-2.5-.2-2.2 1.3-10.3 31.8-25.5 63-35 95-7.7 25.9-14 48.6 10.3 67.2 6.6 5.1 15.2 6.6 19.3 14.7 4.5 9 2.7 19.5 6.1 28.9s14.7 18.4 20 28c7.5 13.6 16.6 43 17.5 58.5s-5.4 31.9-10.3 46.7c-2.1 6.4-10.5 24.4-10.7 29.4-.1 3.5 8.8 11.2 12.3 10.4 1.2-.3 12.8-17.4 15.2-20.1 17.6-20.2 41.9-28.2 40.5-59.5-.3-7.1-3.2-16.1-3.1-22.9 0-3.4 1.8-8.4 2-12.1 1-16.2-6.8-26-6-41 .6-11.4 7.5-25.9 7.1-35.9-.3-6.5-11.2-19.5-16.1-24-3.3-3.1-8.6-5.8-11.5-8.5-1.9-1.7-12.1-14.8-13-17-3.8-9.4 1.2-20.9 2.4-30.6.4-3.1 1.5-13.2.9-15.7-.6-2.6-14.1-16-17.2-19.8-4.9-6-14.8-18.7-17.5-25.5-3.5-8.6-4.4-22.6-6.8-32.2-.4-2.3-3.7-14.8-4.2-15.3m543 13c-2.6-.3-1.6 0-2 1.5-2.7 9.1-3.1 20.1-5.8 29.2-4.5 14.9-27.6 41-39.7 51.3l-18.5 13c.7-17 3-35.9-6.5-51-2.7 8-4.3 16.2-11 22-3.9 3.4-6.6.6-3.3 9.3 1.7 4.3 6.3 13.9 8.6 18.4 5.3 10.3 14.9 18.5 19 29 8.3 21-4 29.3-13 45.7-9.7 17.6-3.9 28.8-6.9 47.1-1 5.9-5.3 14.4-6.7 21.3-5.3 26-6.9 47.7 7.3 71.2 11 18.2 29 26.9 39.2 43.8 1.3 2.1 4 9.8 4.4 10.1 2.9 2.6 21.9.2 22.5-5.4 1.1-9.8-14.8-36.8-18.5-48.1-5.7-17.6-5.8-42.1 2.9-58.6 3.7-7 11.5-14.1 14.6-20.4 2.9-6 3.7-15.7 7.8-21.2 6.5-8.7 22.2-19.1 30.5-28.5 14.9-16.9 23.3-35.7 18.7-58.8-3.3-16.7-15-22.8-20.8-37.2-8.2-20.6-1.9-41.6-13.8-62.2-4-7.4-9.7-11.6-9-21.5m-468 44c-1.4-1.5-1.7.4-2.2 1.3-7.8 14.3-4.7 34.2-4.8 49.7-3.5.2-13-10.9-15-9-6.2 26.9-.9 40.2 19.5 57 6.2 5.1 30.1 19.5 31.3 25.8.6 3-1.4 16.5-2 20.6-1.1 8.2-5.5 21.4-5.8 28.2-.2 4.4 5.5 18.3 5.9 25.9.5 9.8-2.6 18.9-2 29 .3 6.4 3.5 21.3 8.5 25.5 3.6 3 15.4 4.9 21.2 8.8 10.9 7.2 9.4 15.2 13 26 5.4 15.9 25.4 57 45.5 55 2.7-.3 14.9-3.3 14.7-6.1-5.5-14.2-11.6-29.6-14.6-44.5-2.8-14-2.8-28.7-7.8-42.2-4.1-11.1-14.7-18.4-21.5-27.5-6.7-9-1.5-10.7 1.3-19.7 5.3-17 10.2-36.1 6.2-53.8-.8-3.4-3-7.2-3.4-10.6-.7-5.6 1.3-10.2.8-15.8-1.2-11.8-8.8-26.3-9.1-38.9-.8-2.1-17.1-9.8-20.3-13.7-7.1-8.8-9-29.2-17.5-36.5-7.8-6.8-26.5-6.6-33.7-13.8-4.4-4.6-7.3-19.8-8.2-20.7m385.3 70.7c-5.4-6.3-6.2-17.1-7.8-24.7-.3-1.5-.8-5.5-2.5-5.9-.2 5.6-.1 12.9-1.2 18.3-4.8 23.7-38.4 37.4-48.3 60.7-4.8 11.4-4.4 22.5-13 33-2.3 2.8-7 5.7-8.5 7.7-6.7 8.8-18.9 39.9-20 50.8-1.2 12.9 3.3 21.6 5.5 33.5 2.5 13.7-.3 13.8-3.2 25.8-5.6 22.4-9.2 45.2-21.9 65.2-1.6 6 16.1 9.4 20 9 14.9-1.4 32-31 37.5-43.6 5.1-11.8 6.2-29.4 16.2-36.8 3.5-2.6 11.5-4.8 13.4-6.6 1.7-1.7 8.9-15.2 10-18 7.1-18.4 13.8-58.2 17.3-78.7 1.1-6.2.5-13.9 1.7-20.3 3.7-19.6 21.6-32.9 14.9-56.8-2.3-7.9-6.1-8-10.1-12.6M983 1730c-21.3-5.6-42.7-12.3-61.7-23.8-1.7-.4-2.4-.8-2.3 1.3.3 6.5 3.8 18.8 5.5 25.5 4.1 16 13.5 36.1 15.2 51.8 2.1 18.8-1 36.8 6.5 55.5 2.7 6.8 8.4 12.5 11 19.1 4.8 12.3 5 24.4 14.3 35.7 4.2 5.1 10.5 7.8 14.4 12.6 3.1 3.9 5.7 10.6 7.7 15.3 1.5 3.6 5.8 18.6 7 20 2.5 3 9.1-.3 11.5-2.5 9.8-8.5 9.3-41.5 2.4-51.5-3.2-4.6-9.4-7.2-13-11-7.5-8.1-8.2-21.4-11.4-31.6-4.5-14-12.8-25.8-15.6-40.4-4.6-24.3.4-52.9 8.5-76m126-14-33 11c.5 3.4 1.8 7.2 2 10.5.8 11.7-5.4 37.5-10.8 48.2-8.8 17.5-28.7 26.9-28.2 48.9.3 13 4.6 35.2 3 46.8-1.4 10.1-7.7 21.9-9.5 31.6-1.1 6.1 2 18 3.6 24.5s3.3 22.1 12 15.2c2.1-1.6 8.7-12.9 10.1-15.9 6.7-14.2 14.2-35.7 15.8-51.2 1.1-10.7-.5-14.1 4-25 8-19.3 29.9-43.2 31.1-64 .5-9.5-3.4-5.4-9.5-6.5-8.8-1.6-20.6-13-20.6-22.4 0-12.7 13.8-19.3 19.8-28.2 1.7-2.5 11.2-22.5 10.2-23.5m-35 12-49.5 11.8c-10.5-.8-20.2-4.8-30.5-6.8-1 6.8-5.8 13.7-7.3 20.2-2.8 11.8-3.1 33.1-.2 44.8 1.8 7.1 6 12.8 8.5 19.4 5.8 15.4 12.2 48.8 22.5 59.6 1.5 1.5 6.3 6.5 8.5 4.9.6-.4 3.7-12.3 3.8-13.7.7-12.3-.8-26.9.2-39.7 1.4-17.4 15.3-25.7 24.8-39.2 7-9.9 12.4-20 14.9-32.1z" data-original-prefix="outline"/></g></svg>