<?xml version="1.0" encoding="UTF-8"?>
<?xml-stylesheet type="text/css" href="styles/collection.css"?>
<svg xmlns="http://www.w3.org/2000/svg" viewBox="0 0 2048 2048"><g id="01_background" data-trait="KBDS"><defs><radialGradient id="radial-gradient" cx="1024" cy="-181" r="1024" fx="1024" fy="-181" gradientTransform="translate(0 1204)" gradientUnits="userSpaceOnUse"><stop offset="0" stop-color="#505151"/><stop offset="1" stop-color="#202733"/></radialGradient></defs><path id="gradient-jean" fill="url(#radial-gradient)" d="M2048 3.6v2038.8c0 3.8-.8 4.6-4.6 4.6H4.6c-3.8 0-4.6-.8-4.6-4.6C.1 1361.3 0 680.2 0-1h2043.4c3.8 0 4.6.8 4.6 4.6"/></g><g id="02_Jaw" data-trait="half-robo"><path id="fill-jaw" class="fill"  fill="#fff" d="m1382.8 1128.2 12.4 130.2 60.9 48.3-49.6 133.4c-1 1.4-2.4 1.1-3.9.9-13.9-1-32.8-8.5-47.4-10.7-1.8-.3-3.5-.4-5.2-.3 1.2 4.7-1.2 7.6-2.1 11.4-4.9 22.2-7.7 45-12.1 67.4l-57.2 29.3-1.4 1.6c-1.1 12 1.6 23.9.9 35.9-.3 5-1.3 14.9-2.3 19.7-.6 2.8-13.7 32.2-15 33.5s-16.1 8.9-16.7 8.3l-9.5-50-51 52c-7.7 5.7-20.7 9.3-27.5 15.5-14 12.7-24.7 36.5-41.4 47.6-5.5 3.6-58.7 25.2-65.4 26.6-2.4.5-46.7.7-49.3.2-6.2-1.1-59.9-22.7-65.6-26.3-14-8.8-29.1-36.3-42-48-6.7-6.1-19.9-9.6-27.5-15.4l-51-52-9.6 48.4c-.6.9-.9 1.7-2.2 1.5-.8 0-13.8-7.6-14.4-8.2-1.4-1.4-15.6-32.9-16-35.5l-.7-54.3-58.2-30.3-12.3-69.7c-16.4-1.1-33.5 3.9-49.5-1l-37.3-85.8c-.7-3.4 4-13 5.6-16.9 8-19 17.8-37.3 25.7-56.3 9.2-2.5 21.3 1.1 29.9-5.1 4-2.8-.2-18.8 0-23.9l-19-32.1-.3-2.2 27.6-63.5c1.4-9.9-3.2-21.4-1.1-31.1 1.3-6.2 9.7-21.7 13.2-27.9 54.6-98.4 184.4-157.8 290.2-180.8 48.2-10.5 90.3.5 136.5 15.4 98 31.8 198 94.6 250.7 185.3 3.2 5.5 3.8 13.3 10.7 14.8h-.7Z" class="fill" data-original-prefix="fill"/><path id="fill-jaw1" class="fill"  fill="#fff" d="M1265.7 1351.3c9.2 7.7-4.5 25.9-12.2 15.7s2.9-23.4 12.2-15.7" class="fill" data-name="fill-jaw" data-original-prefix="fill"/><path id="fill-jaw2" class="fill"  fill="#fff" d="M1314.6 1391.2c7.8-1.5 6.2 19.1-2.9 17.7-9.8-1.5-.6-17 2.9-17.7" class="fill" data-name="fill-jaw" data-original-prefix="fill"/><path id="outline-shading-jaw" class="outline"  fill="#000" d="M1377.3 1124.7c2.2 2.7 13.8 4 14.5 10l8.4 112.6c17.4 18.9 36.8 35.9 56.4 52.6l1.5 3.6-51 135.8c-1 1.6-3.7 1.7-5.4 1.6-14.4-.9-32.2-8.4-47.3-8.9-1.8 0-3.2-.2-4.4 1.3l-14.4 75.6-59.4 30.1c.4 11 2.6 23.6 2 34.5-.3 5.7-1.3 15.4-2.1 20.9-.5 3.1-13.4 31.4-15.4 33.6-3 3.2-11.6 6.2-15.5 9l-12-46.4-2.4-.6-46.1 47.9c-7.8 6.2-20 9.3-27.5 15.5-14.2 11.7-24.4 36.1-41.5 47.5-6.8 4.6-52.9 25.2-60.4 26.6-9.5 1.7-52.8 1.8-62.3.2-7.6-1.3-48.1-19.8-56.6-24.4-16.2-8.6-30.7-38.5-45.1-49.9-7.1-5.7-18.8-9.3-26.5-14.5l-48-49-8.5 47c-1.4 1.2-18.5-6.9-20.5-9-1.7-1.8-15-30.8-15.4-33.6-.7-4.4-.9-13-1.1-17.9-.5-12.2.6-24.4.5-36.6-18.8-11.7-39.4-20.3-58.6-31.4l-13.1-67.4-46.4.9-36.3-91.7-.2-2.3c6.7.3 9.7 6.8 15.7 10.8 19.1 12.8 34.2 19.3 57.7 16.1 20.6-2.8 26.4-11.2 48-1.7 16.1 7.1 19.4 16.7 31.2 25.8 13.2 10.2 17.5 3.6 25.9-7.1 6.9-8.8 25.8-41.6 27.4-51.6 1.7-10.7-3.8-11.2-13-10-8.6 1.1-48.4 15.1-51 14.6-1.7-.4-12.3-7.9-16.5-9.6-20.3-8.4-48.8-11.8-67.2-20.8-14.3-6.9-12.2-21.7-18-34.5l21.5-4.1c1.9.3 10.9 13 13.5 15.6 13.7 13.8 58.3 32.8 77.6 33.5 3.4 0 6-1 8.9-1.1h20.5l-34.7-16.8c-19.1-10.8-48.2-33.1-61.8-50.2-6.2-7.7-7.1-18.3-10.5-27.5-6-16.6-14.4-32-25-46 1.3-9 6.5-19.6 7.8-28.2 2.8-19.1 3.8-27.8 12.1-45.9 49-107.6 188.2-173.2 298.2-196.8 27.9-6 50-5.8 77.9 0 118 24.3 244.7 92.5 307.8 198.2 1.9 3.1 5.2 12.6 6.5 14h-.4ZM1326 1307c15.3-11.2 31.9-21.8 44.5-36 6.1-22.7 14.6-45.7 13.5-69.6l-2.1-29.5c-1.4.2-1.9 1.8-2.5 2.9-16.8 30.8-29.1 66.4-47 97l-62.3 38.7.4 3.3c5.9 15.3 32.8 49 33.4 63.6.2 4.3-2.2 10.7-.7 15.7 1.1 3.6 11 9.8 15.2 9.4l62.4-18.5c8.3 1.2 16.7.9 25.1.6l36.7-78.8.3-3.3c-14.1-10.8-29-21.4-44.3-30.7l-2.8 11.8c-13.3 5.6-27.2 16.2-40.4 21.1-6.7 2.5-16.4 2.8-23.8 3.2-1.2 0-5.6.7-5.5-1Zm-248 20c-5.1-10.6-9.9-23.3-16.6-32.9-6.5-9.4-23.8-30.4-31.9-38.1-4.2-4-7-3.9-11.1 0-7.7 7.4-27 30.2-32.9 39.1s-10.5 22.1-15.6 31.9zm200.7 70.7c1.4-1.6 8.8-25.5 9.1-28.5.4-4.4-3.5-11.7-5.6-15.9-3.8-7.3-18.5-32.7-23.6-37.4-5.7-5.3-8-1-14 1.1-11.8 4-23.6 7.8-35.5 11.5-1.3 1.1-1.1 1 0 2 3 2.6 6.7 4.5 9.4 7.6 6.8 8.1 12.2 22 18.6 30.9l3.1-12.4c.8-3.8 7.7-7.4 10.8-5.4 1.2.8 3.6 11.4 7.9 12.7 6.1 1.8 8.2-5 11-5.7 4.2-1 10.3 3.7 10.1 8.1-.5 11.3-14.6 20.3-25.1 18.6-1.1-.2-10.1-4.8-8.7-1.3 3.1 2.8 14.4 21.8 16.7 22.4 2 .5 14.5-6.5 16-8.2h-.2Zm-550.4 99c1.6 2 8.2 6.3 10.7 7.8 14.8 8.8 31.7 13.8 46.9 23.1 16.8 10.2 40.2 33.1 59.6 33.5 2.3 0 8.7-1.2 9.4-3.7.8-2.7-13.5-27.5-16.4-30.3-7.3-7.2-27.5-17.2-37.2-23.8-15.2-10.3-50.3-39.1-67.9-39.2-10.5 0-8.7 28.1-5.1 32.7Zm591.4-30.4c-6.1-6-24 4-30.4 7.6-16.3 9.1-30.8 21.3-46.2 31.8-9.3 6.4-25.4 13.9-33.1 20.9-3.1 2.8-16.2 24.5-16.9 28.2-1.1 5.3 6.2 6.5 10.3 6.3 16.8-1 25.6-11.2 38.2-19.8 8.3-5.7 17.3-12.1 26-17 11.7-6.6 47.1-19.2 52.7-29.3 2.4-4.3 2.8-25.2-.7-28.6ZM1126 1664c-12-2.7-20.7 6.6-31.6 7.9-5.7.7-12.2-1.2-16.6-.7-7.1.8-22.9 12.1-31.2 14.9-14.8 4.9-30.2 4.7-45.1 0-8.8-2.8-23.9-14.1-31.2-14.9-4.4-.5-10.9 1.4-16.6.7-11-1.3-19.9-11-31.6-7.4 0 7 23.7 23.4 30 27 12.5 7.1 59.7 26.8 72.5 26.6s59.8-19.7 72.2-26.9c3-1.8 33.6-23.3 29.3-27.2z" class="shading" data-original-prefix="shading" opacity=".2"/><path id="outline-jaw" class="outline"  fill="#000" d="M1378 1122c.3-3.9.6-9.1 5.7-9.8 7.8-1.2 8.7 12 9.3 17.3 3.8 33.8 2.1 69.1 8.3 102.7 2.2 11.9 3.2 13.8 12.3 21.7 14.8 13 33.2 22.8 47.5 36.5 2.6 2.5 11.8 12.2 12 15.1l-66.1 156.3-46.9-24.9c-1.8 6.1-5.4 12.6-6.7 18.8-4.1 19.2 0 41.1-2.2 59.8-.4 3.4-10.5 17.5-13.3 18.7-6.4 3-16.2-1.8-24.7 3.3-23.8 14.4-17.9 48.6-27.2 68.8-7.8 17-37 48.2-52.9 58.1-1.6 1-2.9 1.9-4.9 1.6 1.1-14.8 3.1-34.9-3.9-48.6-.4-.8-.4-3.2-2.1-1.4-.7.7-3.6 13.8-6.6 17.9-5.8 7.9-20.7 8.9-29.4 12.6-16.7 7-14.3 32.7-27.7 43.3-19.3 15.2-61.2 32-85.1 38.9-10.8 3.1-38.9 11.3-48.7 11.3-15 0-63.4-15.1-78.8-21.2-11.1-4.4-55.3-26-60.6-34.4-6.9-11.1-8.5-31.6-21.5-37.6-14.5-6.6-26.4-2.4-33.9-20.1-1.1-2.5-2.5-10.3-2.8-10.7-1.3-1.6-1.8.4-2.2 1.3-6.9 12.5-5 34.9-3.8 48.7-2 .3-3.3-.6-4.9-1.6-15.7-9.8-48.9-44.4-54.2-61.8-6.2-20.6-5.3-52.1-25.9-65.1-8.2-5.2-18.3-.3-24.7-3.3-.9-.4-12.2-14.2-12.7-15.3-2.1-5.2-.2-29.6-.5-37.4-.4-9.1-2-18.5-3-27.5-4 1.6-7.6 4.7-11.9 5.6-2.8.6-5.6.7-8.5.3-4.7-.6-27.4-9.9-32.6-12.4-1.3-.7-2.7-1.2-3.5-2.5-2-33.7-22.2-63.7-44-88-2-4.4 2.1-14.5 3.7-19.2 6.2-17.8 15.6-36.4 25.7-52.3 3.2-5.1 14.2-22 17.9-25.1 5.5-4.4 9.8 3.3 14.6 6.6 1.6 1.1 12.7 7.8 13.5 7-2.9-7.2-9.4-11-13.8-17.7-4-6-15.9-26.4-15.8-32.6s5.4-17.7 6.5-25.3c.5-3 1.1-8.8 1.2-11.8.2-6.5-3-17.5 1.3-22.2 1.2-1.4 12.8-6.5 14.1-6.2.9.2 5 11.2 10.5 7.8 2.3-1.4 1-34.7 0-39.9.3-.3 7.6 1.8 8 2 1.8 1.1 7 8.1 9.8 9.7.5 8.4 3.4 20.7 1.1 28.7-2.8 10.1-17.5 14.8-21.2 22.8-1.2 2.6-6.4 25.9-6.7 29.3 0 1.2-.2 2.4.2 3.7 4.8 10.3 13.7 19.4 18.7 29.3s9 33.8 15.5 40c5.3 5.1 14.5 7.1 21 10.5 7.5 4.1 15.7 10.7 22.7 15.8-11.3-1.3-47.2-5.2-54.5-13-3.3-3.6-5.7-15.7-9.6-17.4-2.6-1.2-6.2-.2-9.2-.8-7-1.2-10.7-7.9-18.5-1.5-6.6 12.5-14.3 24.3-20.4 37.1-7.4 15.4-14.8 25.1-4.8 41.2 5.3 8.6 23.3 26.7 25.6 34.4 2.5 8.6-2.7 28 2.9 34.1 6 6.6 20.6 4.5 27.8.8 10.6-5.4 8.7-9.9 14.3-18.7 5.2-8.2 19.7-23.1 28.9-26.2s13.4 8.6 15.6 15.5c7.3 23.8-.2 34 22.5 51.5 11.6 8.9 33.3 20.1 47.8 17.9 8.5-1.2 21.1-6.6 27.2-12.8 7.2-7.5 8.8-24.6 24-14 15.8 11 30.3 30.1 46.6 41.4 20.5 14.3 77.5 32.5 102.5 34.6 37 3 105.5-17.1 134.5-40.5 11.5-9.3 21.6-20.6 33-30 4-3.3 11.6-11.3 17-8 .7.5 7.5 12.5 9.2 14.8 3.3 4.7 11.5 16.1 17.4 16.7 7.4.8 31.3-15.5 40.2-17.2 8.1-21.2 17.3-42.1 23.5-64 2.8-9.9 8.4-24.8 3.8-34.3-2.1-4.2-21.3-33.6-24-36-3-2.7-9.6-5-13.5-6.5-3.3-1.2-19.8-5.2-20.5-6-1.5-1.4.4-1.7 1.3-2.2 1.3-.7 11.6-5.7 12.3-5.8 2.6-.4 25.4 6.8 27.4 8.5s8.6 15.3 11 19c5 7.6 19.5 25.4 20.8 33.2.4 2.5.5 4.9-.2 7.3l-26.5 74.9c22.1-8.1 42.1-21.6 63.6-30.8 4.1-1.8 12.4-6.1 16.3-4.6 4.7 1.7 16.6 11.3 22.4 14.6 2.4 1.4 18.7 10.5 19.7 9.8l48.1-125.5c-.2-2.1-12.6-9.7-15.4-11.7-13.3-9.9-23-17.3-37.4-25.6-7.1-4.1-7.5-7.8-8.3-15.7-2.2-22.8-2.4-46.1-4-69-1.5-20.8-6.3-45.1-5-65.5h-.7Zm-649 280c-5.9.4-11.3 6.2-14.4 11.1-12.8 20.4-.6 26.3 1.3 45.5 1.3 13.2-3.2 33.5 4.7 44.3 5.3 7.3 21.6 10.7 30.1 14.9 3.6 1.8 23 13.2 24.8 15.2.4.4 3.3 5.3 3.3 5.6 0 .8-3.5 12.2-3.8 15.8-1.9 24 4.5 52.9 21 71l5 4.5c.9-4.6-1.1-9.2-1.1-13.5 0-12.5 8.2-24.3 10.1-36.5 23.5 5.4 36.4 28.6 51.4 45 11.3 12.4 23.8 14.5 34.1 23.9 6.5 5.9 11.9 15.9 17.5 22.5 14.6 17.4 20.2 23.3 41.3 32.7 29 13 50.6 21 83.2 18.9 16.8-1.1 61.8-19.2 76.4-28.6 16-10.4 26.2-34.2 40.1-45.9 10.6-9 21.7-10.9 32.5-22.5 15.6-16.6 28.5-40.5 52.5-46 .8 9.9 6.9 18.2 8.7 27.8 1.5 7.6.3 13.6.3 21.2 7.8-5.3 15.2-16.8 18.8-25.6 5.4-12.9 8.1-33.2 7.2-46.9-.2-3.4-3.8-17.5-3.5-18.4.6-1.7 3.6-5.7 5.2-6.9 4.5-3.4 17.3-10.6 22.7-13.3 11.7-5.9 31.5-8 33.6-23.4s-.7-31.7 3.8-48.2c1-3.6 5.3-8-1.4-5.4-30.7 11.8-63.4 35.5-93.6 46.4-10.1 3.6-23.8 2.7-32.8 7.2-6.8 3.5-11.5 12.3-16.4 17.6-16.2 17.4-41.8 25.6-65 28-69.4 7-135.6 6.9-205 0-21.7-2.1-46-9.9-62.5-24.5-5.9-5.2-10.7-15.4-19.3-15.2-3.9 0-8.2 3.3-11.2 3.7-5.5.6-22.8-12.9-28.7-16.2-15-8.4-31.4-14.8-46-24-2.8-1.8-16.7-11.4-17.8-13.2-2.8-4.9.2-12 0-17.1 0-10.4-4.3-21.6-7.1-31.5" class="outline" data-original-prefix="outline"/><path id="outline-jaw1" class="outline"  fill="#000" d="M1253.7 1342.2c12.9-2.4 29.1 10.8 24 24-3.6 9.3-14.2 17-24.2 12.8-15.8-6.5-17-33.6.3-36.8zm12 9.1c-9.3-7.8-20.1 5.1-12.2 15.7s21.4-8 12.2-15.7" class="outline" data-name="outline-jaw" data-original-prefix="outline"/><path id="outline-jaw2" class="outline"  fill="#000" d="M1313.7 1382.2c20.2-4.4 22.1 39.9-4.2 35.7-17.9-2.8-9.8-32.7 4.2-35.7m.9 9c-3.6.7-12.7 16.2-2.9 17.7 9.1 1.4 10.8-19.2 2.9-17.7" class="outline" data-name="outline-jaw" data-original-prefix="outline"/></g><g id="03_Mouth" data-trait="scrappy"><path id="fill-muzzle" class="fill"  fill="#fff" d="M1038 1292s-.4 1.7.7 2c10.3 2.8 18 4.3 25.8 13 1.9 2.2 4.9 8.8 6.5 9.5 2.6 1.2 6.6 0 9.5.5 11.4 1.5 21.2 3.7 31.2 9.8 2.1 1.3 9.2 7.8 10.2 7.1.3-.3 0-1.7 0-1.9 2.4-1.8 32.7.6 38 1 5.2 4.2 13.2 5.5 19.2 8.3 13.7 6.4 22.5 16.1 29.9 29.1 8.4 14.6 7.7 17.8 3.1 33.4-2.5 8.5-4.8 21.8-16.3 20.2 1.5-15.5-14.8-32.4-26.5-41-3.2-2.4-11.3-7.2-6 0 10.8 14.7 20.2 14.8 21.5 37.5.6 10.3-8.4 32.9-15.4 40.5-.6.7-7.1 6.3-7.6 6.5-3 1.6-6.9-6.1-7.8-8.2-3.6-7.8-4.7-15.5-9.7-23.3-1.1-1.7-10.8-13.7-12.4-12.1 5.6 13 9 46.2-2.5 56-4.4 3.7-9.4 1.9-13.3 3.7-2.8 1.3-3 5.7-4.8 6.1s-7-3.1-9.4-3.5c-8.9-1.3-13.2 17-18.7 17.5-2.5.2-10.7-11.9-18.4-9.4-7 2.2-15.4 21.2-24.4 23.6-6.3-6-3.4-14-5.8-21.2-1.2-3.5-4.2-6.7-5.8-10.2-5.4-12.7-2.8-19.9-.2-32.2.6-3 0-5.9.9-9.1.2-.7 6.3-12.3 6.9-13.1 3.7-5.4 19.2-12.4 22.7-3.8.9 2.2 0 8.7 2.2 7.7 5.1-4.9 10.2-9.9 15.5-14.5 11.5-10 14.1-9.7 21.2-24.8 1.5-3.3 6.5-14.5 6.6-17.3 0-3.4-9.2-14.7-11.8-17.8-1.4-1.7-9.5-11.5-10.2-11.8-6.4-3.2-28-2.3-34.7.8-7.9 3.6-12.5 12-19 17-1 .8-1.3 1.9-3 1.5l.8-12.7c3.6-4.3 21.7-23.3 21.1-27.5-.4-2.6-11.3-13.4-12.9-11.7 4.4 12.8.7 8.7-7.3 12.2-1.2.5-2.9 2.7-3.2 2.7s-2-2.2-3.2-2.7c-3.4-1.5-9.7-.4-9.3-5.6 0-1.1 4.1-7.6.5-6.6-2.8.8-12 9.9-11.3 13.2 0 .6 4 7 4.8 8 1.5 2 5 5.9 7 8.3 3.2 3.9 9.7 7.6 9.9 13.1 0 1.6-.8 3.1-.8 4.8s2.6 8.1-2.5 3.6c-6.2-5.3-10.2-13.6-18.5-17.5-6.5-3-30.3-4.3-35.7-.2-.8.6-8.8 10.5-10.2 12.2-2.4 3-10.9 13.7-10.8 16.8.2 5.4 11.7 29 15.7 33.2 3 3.2 9.3 6.8 13 9.9 5 4.3 9.7 9.1 14.5 13.5l4.2-11.1c4.9-3.1 17.7 2.6 20.8 7.1 1 1.5 5.1 9.9 6 11.9 2.8 6.4 5.1 25.4 4.4 32.4-1.1 10-7.9 15-9.4 22.6-1.3 6.4 1.1 14.9-5.8 18.9-8.1-2.6-17.3-21.5-23.6-23.5-8.2-2.6-15.9 9.6-18.4 9.4-5.3-.4-8.7-14-13.9-16.1-6.9-2.8-11.5 2.7-14.1 2.1-1.8-.4-2-4.8-4.8-6.1-4.5-2-9.6.3-14.3-4.7-10.9-11.5-6.5-42.2-1.5-56.1-9.1 6.7-14.1 14.8-18.5 25-1.6 3.6-2 7.5-3.7 11.3-1 2.1-4.9 9.8-7.8 8.2-.4-.2-6.9-5.9-7.5-6.5-3.9-4.3-13.8-24.4-15-30-2.8-12.9 1.4-26.5 9.5-36.5 4.1-5.1 11.3-9 13-15.5-2.4-2.4-22.3 17.4-24.4 20.1-5.4 6.8-11 15.9-9.6 24.9-8.3.5-10.7-3.3-13.3-10.2-2.7-7.1-7.8-22.8-6.2-29.8 3.7-16.2 21.4-35.8 36.3-42.7 6.2-2.9 13.9-4.1 19.2-8.3 12.5-.8 24.5-2.3 37-1 0 0 .7 2.1.5 3 9.5-8.2 20.6-14.8 33.1-16.9 4.7-.8 14.8-.4 18.1-1.8 1.6-.7 5.2-7.7 7.2-9.9 8-8.4 15.2-9.7 25.4-12.5 1.1-.3.6-1.9.7-2 1.1-.7 25.9-.7 27 0v.2Z" class="fill" data-original-prefix="fill"/><path id="fill-teeth14" class="fill"  fill="#fff" d="M1039.1 1601.9c-.8-.5-7.2-15.4-7.9-17.6-4.2-13.6-7-37.9-1.5-51.1 5.8-13.9 10.8-1 20-5 1.9-.8 7.6-6.8 9.2-8.8 2.6-3 3.6-9.1 8-8 12.8 3.1 21.1 24.2 22 36.1 2.3 30.4-23.4 40.7-45.2 53.7-1.2.5-3.6 1.3-4.6.6Z" class="fill" data-original-prefix="fill"/><path id="fill-teeth13" class="fill"  fill="#fff" d="M1015.7 1527.3c10.2 8.9 6 44.1 2.3 56.2-1.9 6.4-6 12-8.1 18.3h-2.3c-12.1-7.1-26.3-12.4-36.1-22.9-9.1-9.8-12.3-17.9-11.5-31.5.8-11.8 9-32.3 21.2-35.9 4.8-1.4 5.7 4.5 8.2 7.4 1.8 2.1 8.3 8.8 10.5 9.5 6 1.9 12.5-4.1 15.8-1.3z" class="fill" data-original-prefix="fill"/><path id="fill-teeth12" class="fill"  fill="#fff" d="M904 1461c0 2.2-1.1 3.8-.8 6.2s7.4 22.5 8.8 24c3.7 4.1 11.1 2.3 15.9 2.9 4.9 13.5-4.3 23.9-8.6 35.6-2 5.3-8.4 33.1-12.8 34.3-3.3.8-11.7-18-12.8-21.2-6.8-20.9-8.8-51.8 1.8-71.7.6-1.2 7.1-11.6 8.4-10.1Z" class="fill" data-original-prefix="fill"/><path id="fill-teeth11" class="fill"  fill="#fff" d="M1144 1564c-1 .7-1.8-.4-2.4-1.1-5.8-5.8-8.7-24.8-11.8-33.2-4.3-11.7-13.8-21.9-8.6-35.6 18.6 2.9 18.2-8.8 23.1-22.4l2.2-9.8c10.2 11.1 15.2 27.6 14.6 42.5-.5 13.7-3.2 35.3-9.5 47.5-.8 1.5-6.9 11.6-7.5 12Z" class="fill" data-original-prefix="fill"/><path id="fill-teeth10" class="fill"  fill="#fff" d="M949 1569c5.5 22.1 11.4 45.4 9 68.5-.5 5-1.3 9.2-7 6.9-3.4-1.3-17.5-13.4-19.5-16.5-7.4-11.8.3-39.7 8-50.8 1.2-1.7 7-10.1 9.4-8.1Z" class="fill" data-original-prefix="fill"/><path id="fill-teeth9" class="fill"  fill="#fff" d="M1100 1569c3.4-2.9 13.3 14.1 14.5 17 4.8 11.7 9.3 33.5 1 44-2.1 2.7-18.5 16.5-20.9 15.9-1.9-.4-3.4-6.5-3.6-8.4-1-8.7 0-26 1-35 1.1-10.9 6.5-22.5 8-33.5" class="fill" data-original-prefix="fill"/><path id="fill-teeth8" class="fill"  fill="#fff" d="M1167 1547c.9-6.7-1-15-.6-21.3.3-6.3 3.7-14.6 3.6-21.2 0-5.7-4.8-19.5-4-24 .5-2.9 3.5-2.8 5.5-4.5 6.2-5.3 10.4-15.8 16.9-4.9 14.2 23.5-1 56.5-18.4 74.4-.9 1-1.3 1.9-3 1.5" class="fill" data-original-prefix="fill"/><path id="fill-teeth7" class="fill"  fill="#fff" d="M881.7 1478.3c3.3 2.9-2.8 21-2.8 26.2s2.6 12.6 3.1 18c.7 8 0 16.5-.5 24.5-1.8 0-11.7-13.3-13.3-15.7-11.2-16.8-20.3-43.7-7-61.7 6.2-8.4 9.7.9 14 4.7 2 1.9 5.7 3 6.6 3.9Z" class="fill" data-original-prefix="fill"/><path id="fill-teeth6" class="fill"  fill="#fff" d="M1018 1613v16.5c0 .9-10.8 13.2-11.9 14.1-6.3 4.8-8-2.6-10.6-5.5-5.5-6-17.9-.4-24.4-5.6-.9-.7-4.1-8.3-4.1-8.9v-24.5c12.3 3 28.7 18.5 41.4 16.9 3.5-.4 6.1-3 9.6-2.9Z" class="fill" data-original-prefix="fill"/><path id="fill-teeth5" class="fill"  fill="#fff" d="M1102.5 1494c3.3-.8 5.3 8.5 6.3 10.7 5 10.5 15.3 30.3 11.4 42.1-2.2 6.7-15.6 23.4-20.4 11-4-10.4-4.1-44.7-1.1-55.5.4-1.6 2.4-7.9 3.8-8.2Z" class="fill" data-original-prefix="fill"/><path id="fill-teeth4" class="fill"  fill="#fff" d="M917 1563c-1.6 13.5 2.8 27.4 2 40.5-.5 8.8-4.2 18.6-5.5 27.5-5.8-5.6-10.5-15.7-11.4-23.6-.6-5.2.7-25.8 2.4-30.3.6-1.6 10.5-16.2 12.4-14.1Z" class="fill" data-original-prefix="fill"/><path id="fill-teeth3" class="fill"  fill="#fff" d="M1135 1631c-.4-8.9-4.4-17.8-5.1-26.5-1-13.6 3.6-27.7 2-41.5 2.2-2.4 11.9 13 12.5 15 2 6.8 2.7 27.3 1.2 34.3-1.3 6.3-5.5 14.8-10.8 18.7z" class="fill" data-original-prefix="fill"/><path id="fill-teeth2" class="fill"  fill="#fff" d="M1154.1 1604.9c-3.4-2-5.1-22.3-3.9-26.2.8-2.6 8.9-5.2 10.2-8.8l5.1-10.9c3.8 3.4 5.1 7.2 4.3 12.2-.7 4.5-5.2 22.3-6.9 26.2-.9 2.2-6.1 9-8.8 7.5" class="fill" data-original-prefix="fill"/><path id="fill-teeth1" class="fill"  fill="#fff" d="M885 1559c.4.4.7 7.1 3 10.5 2.7 3.9 10.5 6.9 11 10-.8 4.7-.7 23-4 25.4-2.5 1.8-7.7-4.5-8.7-6.7-1.6-3.6-6.3-22.5-7-27-.6-3.9 2.5-15.6 5.8-12.3Z" class="fill" data-original-prefix="fill"/><path id="outline-shading-mouth2" class="outline"  fill="#000" d="M918 1443.5c.8 5.3 5.6 13.8 10.1 16.9 11.5 8.3 16.2-.3 22.4-9.4 2.5 5.4 3.4 11.5 6 17 1.4 2.8 5.7 12 7.5 5.5l4-11.5c1.6 7.5 6.3 15.4 11.5 21 4.3 4.7 18.8 15.4 24.6 9.6 2-2.1 8.3-17.9 10.8-22.2 1.2-2.2 7.8-13.8 9.7-13.3 1 .2 8.5 13.2 9.7 15.3 2.4 4.5 7.3 17.7 9.8 20.2 3.8 3.8 10.5.4 14.4-1.8 10.5-5.9 18.5-17.2 21.7-28.8l4.2 12.3c.3 1.2 1.9 2.4 2.8 1.7.6-.4 5.8-11.3 6.5-13 .8-2 2.8-12 4-12 6.8 10.7 12.9 18.4 24.5 7.5 8.6-8 9.3-23.8 7-34.5 3.5-3.1 21.1 16.1 26.6 16.9 9.1 1.4 17.6-11.8 19-19.9 3.5-20.5-12.9-39.2-30.9-46.2l-12.7-4.8c15.4 0 28.2 2.9 41.1 11.4 4.8 3.1 12.2 10.9 17.6 11.4 6.2.6 10.1-4.1 10-10-.4-19.3-25.8-38.1-39.7-48.8 15.4 2.4 34.6 11.8 45 23.5 7.8 8.8 19.1 25.1 19.1 37s-6.4 28.5-9.2 32.8c-3.3 5.3-11.7 5.4-13.4 10.6-.9 8.1-2.1 16.4-2.5 24.5-1.5 29 1.4 45.2-10.8 73.2-3.6 8.2-12.7 20.4-14.9 27.1-4.2 12.8-.7 26.4-9.1 38.9-3.2 4.8-8.4 6.7-11.2 10.8-1.7 2.5-2.4 6.1-4.2 8.8-4.5 6.7-14.6 23-21.6 8.9-1.6-3.3-1.3-12.9-6.7-6.2-1.4 1.7-1.9 4.4-3.5 6.5-3.7 4.7-17.7 19.6-23.5 19.5-2.2 0-4.5-4.1-6.6-5.4-7.9-5-21.1-6.3-29.2-1.4-7.3 4.4-9.5 13.6-18.1 6.8s-6.4-10.8-20.1-9c-5.6.7-11.4 12.6-16.9 12.1-2.8-.2-11.4-11.1-18.5-12.6-6.3-1.3-17.5.7-23 4.2-2.6 1.7-4.1 5.6-7.5 5.4-5.7-.3-19.8-15.8-23.6-20.5-1.2-1.5-4.4-10.6-7.1-6.9-2.5 3.4-.6 9.9-7.2 12.7-7 3-14.9-11.2-18.1-16.4-1.2-1.8-1.2-4.3-2.6-6.4-2-3-6.8-5.4-9.5-8.5-10.4-11.9-6.7-27.7-10.7-41.3-.8-2.6-5.6-8.5-7.3-11.7-18.4-35.7-16.4-45.6-18.4-84.6-.4-7.7-.6-20.7-2.2-27.8-1.5-6.2-11.1-6.1-14.2-11.8-3.4-6.1-9.3-29.6-8.6-36.4 1.2-10.3 16.2-31.2 24-38 10.5-9.2 26.2-16.5 40-18.5l-21.5 17c-7.2 6.4-26.8 32-14.8 39.9 9 5.9 16.7-4.5 23.7-9.1 12.7-8.4 25.3-11.8 40.7-11.8l-17.3 7.2c-18 9.4-33.1 32.7-22.1 52.8 1.7 3.1 8.6 10.4 12 11.1 9.1 1.7 20.7-15.4 29.5-18 .6 6.4-.9 14.3 0 20.5zm-37.1 40.6c-12.3-.5-17.1-20.2-22.8 1.5-3.4 13 1.2 26.4 9.4 36.5 1.5 1.8 12.7 13.1 13.9 12.9.8 0 2.5-2.3 2.8-3.2 2.9-7.1-3.2-12.2-4.2-19.2-1.5-9.8 0-18.7.9-28.4Zm301.8-8.9c-3.2.8-6.3 6-8.8 7.3-2.1 1.1-7.2 1-7.8 3.2-.5 1.7 3 10.8 2.9 14.8 0 3-1.5 13.9-2.2 16.8-.9 3.6-3.9 5.7-3.9 10.2s1.4 7.1 3.7 7.4c1.9.3 15-14.4 16.8-17 5.7-8.5 9-18.8 7.3-29.2-.5-3-4.4-14.5-8-13.6Zm-284.8 10c-4-2.3-6.5 9.9-6.8 12.5-1.2 10.5 3 38 8.7 47.1 1.9 3 5.4 6.9 9.2 7.3 3.7-15.6 12.6-29.2 21-42.5-2.3-.4-1.7-2.9-2.7-3.5-1.5-.9-7-1.9-9.7-3.1-4.7-2.2-12-7.7-15.6-11.4-1.2-1.2-3.8-6.2-4.2-6.3ZM1139 1552c8.3-2 11.9-12.2 13.9-19.6 3.1-12.1 6.1-33.4 1.1-44.8-3-6.9-5.8 1.7-8.3 4.1-3.9 3.8-11 9.3-16 11.6-2.5 1.1-7.8 1.8-9.1 2.7-.7.5-.5 1.8-1 2.7-.3.4-1.7.4-1.6.9 0 1 7.9 12.3 9.2 14.8 4.8 8.8 9.1 18 11.8 27.7Zm-197.7 5.7c8.1 8.1 9.5 0 10.5-7.3.8-5.6 2.7-20.6 1.7-25.4-3.6-17.2-21.3-15.9-21.6 3.6 0 6.8 4.6 24.3 9.4 29.2Zm161.5-44.5c-5 1.3-8.5 9.3-8.8 14.2-.2 4 2.4 28.5 3.8 31.3 2.5 5 7.5 0 9.8-2.7 6.8-8.3 11.6-30.7 4.5-39.5-2.7-3.3-4.8-4.4-9.2-3.3zM1023 1544c-.7-.7-.8-7-5.1-9.4-8.9-5-21.8-.8-32-4-10.4-3.3-9.4-13.1-16.1 1.8-2.9 6.4-9.1 24.4-6.3 30.7 1.1 2.4 17.8 15.6 21.2 17.8s18.2 11.7 21.1 10c3.1-5.6 9.3-9.5 12.6-14.9 1.8-2.8 4.1-11.5 4.6-11.9 1.6-1.7 1.7.5 2.1 1.4 1.6 3.6 2.1 6.8 4.5 10.5 3.3 5.2 9.2 9.3 12.4 14.6 3.1 1.9 15.5-5.9 18.9-8.1 4.5-2.9 22.9-17 23.9-21.1 2.2-9.7-6.6-28.3-10.9-37.2-4.9 1-7.8 5.2-12.7 6.7-9.2 2.8-28.2-1.6-33.7 6.3-.9 1.2-2.6 8.9-4.5 7zm-136 18c-.7-.6-3.5 0-4.5.9-6 6.2 2.4 31.6 14.6 27.6 4-1.3 3.8-9.4 2.8-12.9-1.1-3.9-7.2-4.1-9.8-7.2-2.1-2.5-2.7-8.2-3-8.5Zm274.1 0c-.3.3-.9 6-3 8.5-2.6 3.1-8.7 3.3-9.8 7.2-1 3.4-1.2 11.6 2.8 12.9 13.4 4.4 20.2-24.5 14.1-28.1-.9-.5-3.5-.9-4-.4Zm-216.4 7.2c-1.5.4-5.1 4.6-6 6.1-3.4 5.6-5.6 32.3-4.8 39.3 1.3 10.9 15.2 18 19.5 3.5 1.7-5.6 2.6-21.4 2.5-27.6 0-1.1-5.8-19.7-6.5-20.5-1.2-1.4-3.2-1.3-4.8-.8Zm153.3-.1c.2 6.6-5.4 14.7-6 20.6-.5 4.5 1 25.3 2.4 29.4 4.2 12.1 16.9 7.3 19.1-2.9 1.1-5.2 0-16.8-.6-22.6-1-9.7-1.7-25.5-14.9-24.5m-180 1.9c-20.5 3.8-17 28.7-9 43 4 2.9 10.4-17 10.7-19.8.9-7.5-2.9-15.5-1.8-23.2Zm218 43c2.5 1.8 7.2-9.1 7.7-10.8 3.9-12.8 1.6-30.1-13.7-32.2.5 7.4-2.8 16.2-1.9 23.4.3 2.7 6.4 18.5 7.9 19.6m-148.2 10.2c1.4.8 4.8 8.6 9.5 11 11.1 5.8 20.2-6.4 20.7-16.7.8-13.7-7.2-7.7-16.5-8.6-8.4-.8-15-4.8-21.8-9.2-5.5-3.5-13.6-14.6-14.7-1.4-.5 5.1 1.4 7.5 1.8 11.2s-2 5.9.5 10.7c4.8 9.3 18 1.3 20.7 2.8zm93.1-31.1c-2.1-1.5-19.7 12.7-23.9 14.4-2.3 1-7.9 2.3-10.5 2.5-10.5.9-18.8-5.4-16.4 11.4 1 7.3 7.9 15.8 16 15.1 9.4-.8 11.9-11.6 14.6-12.4 4-1.3 12.3 5.7 18.9-1.1 4.3-4.4 1.3-8.4 1.5-12.5 0-2.3 1.9-4.8 2-8.1 0-1.9-.8-8.5-2.2-9.4Z" class="shading" data-original-prefix="shading" opacity=".2"/><path id="outline-shading-mouth1" class="outline"  fill="#000" d="M1041 1343c6.1.5 12.7-1 17.5-5 1.5-1.3.9-3.7 2.8-2.9 10.1 7.9 37.9 17.4 43.8 28.2 3.6 6.5 4.6 17.5-1.8 22.6-5.6 4.5-20.8 10.8-28 15-4.9 2.8-9.7 6.6-14.7 9.3-7.4 4.1-25.5 14.5-32.6 16.4-2.9.8-5.2.8-8.1 0-14.5-3.8-42.2-22.5-56.3-30.7-6.2-3.6-21.2-9.1-23.2-15.8-5.5-18.4 15.7-28.3 28.7-35.4 2.3-1.2 15.5-8.6 16.5-8.7 2.9-.3 4.2 2.9 6.7 4.2 4.2 2.3 10 3.2 14.7 2.8-.3-5.1-3.3-11.3-1.8-16.3.5-1.6 12.5-13.9 14.5-14.4 3.9-1 8.2-.3 11.6 1.9 1 .7 10.8 11.1 11.2 11.8 2.1 5-1.2 11.8-1.5 17" class="shading" data-original-prefix="shading" opacity=".2"/><path id="outline-mouth3" class="outline"  fill="#000" d="M889 1333c-5.3 4.2-13 5.4-19.2 8.3-14.9 6.9-32.6 26.5-36.3 42.7-1.6 7 3.5 22.7 6.2 29.8 2.6 6.9 5 10.8 13.3 10.2-1.4-9 4.2-18.1 9.6-24.9 2.1-2.6 22-22.5 24.4-20.1-1.7 6.5-8.8 10.4-13 15.5-8.1 10-12.3 23.6-9.5 36.5 1.2 5.6 11.1 25.8 15 30 .6.7 7.1 6.3 7.5 6.5 3 1.5 6.9-6.1 7.8-8.2 1.7-3.8 2.1-7.7 3.7-11.3 4.4-10.2 9.4-18.4 18.5-25-5.1 13.9-9.5 44.6 1.5 56.1 4.8 5 9.9 2.7 14.3 4.7 2.8 1.3 3 5.7 4.8 6.1 2.6.6 7.2-4.9 14.1-2.1 5.2 2.1 8.6 15.6 13.9 16.1 2.5.2 10.2-12 18.4-9.4 6.3 2 15.5 20.8 23.6 23.5 6.9-4 4.5-12.6 5.8-18.9 1.5-7.6 8.3-12.6 9.4-22.6.8-7-1.6-26-4.4-32.4-.9-2.1-5-10.5-6-11.9-3.1-4.5-15.9-10.2-20.8-7.1l-4.2 11.1c-4.8-4.4-9.5-9.2-14.5-13.5-3.7-3.2-10-6.8-13-9.9-4-4.2-15.5-27.8-15.7-33.2 0-3.1 8.4-13.8 10.8-16.8 1.4-1.8 9.5-11.6 10.2-12.2 5.4-4.1 29.2-2.8 35.7.2 8.4 3.8 12.4 12.1 18.5 17.5 5.2 4.5 2.5-1.7 2.5-3.6s.9-3.2.8-4.8c-.2-5.4-6.7-9.2-9.9-13.1-2-2.4-5.5-6.3-7-8.3-.8-1-4.7-7.3-4.8-8-.7-3.3 8.6-12.4 11.3-13.2 3.6-1-.5 5.5-.5 6.6-.4 5.2 5.9 4.1 9.3 5.6 1.2.5 3 2.7 3.2 2.7s2-2.2 3.2-2.7c8-3.5 11.7.6 7.3-12.2 1.6-1.7 12.5 9.1 12.9 11.7.6 4.2-17.5 23.2-21.1 27.5l-.8 12.7c1.7.4 2-.7 3-1.5 6.5-5 11.1-13.4 19-17 6.8-3.1 28.3-4.1 34.7-.8.7.3 8.8 10.1 10.2 11.8 2.6 3.1 11.9 14.4 11.8 17.8 0 2.8-5 14.1-6.6 17.3-7.1 15.2-9.7 14.8-21.2 24.8-5.3 4.6-10.4 9.6-15.5 14.5-2.2.9-1.4-5.6-2.2-7.7-3.4-8.6-19-1.6-22.7 3.8-.6.8-6.7 12.4-6.9 13.1-1 3.2-.3 6.1-.9 9.1-2.6 12.3-5.2 19.6.2 32.2 1.5 3.5 4.6 6.8 5.8 10.2 2.5 7.2-.5 15.2 5.8 21.2 9-2.3 17.4-21.3 24.4-23.6 7.7-2.4 15.9 9.6 18.4 9.4 5.6-.5 9.8-18.8 18.7-17.5 2.3.3 7.6 3.9 9.4 3.5s2-4.8 4.8-6.1c3.9-1.8 8.9 0 13.3-3.7 11.5-9.9 8.1-43 2.5-56 1.6-1.7 11.3 10.4 12.4 12.1 5.1 7.8 6.1 15.5 9.7 23.3 1 2.1 4.8 9.8 7.8 8.2.4-.2 6.9-5.8 7.6-6.5 7-7.6 16-30.2 15.4-40.5-1.3-22.7-10.7-22.7-21.5-37.5-5.3-7.2 2.8-2.4 6 0 11.8 8.6 28 25.5 26.5 41 11.4 1.6 13.7-11.7 16.3-20.2 4.6-15.6 5.3-18.8-3.1-33.4-7.4-13-16.3-22.7-29.9-29.1-6-2.8-14.1-4.1-19.2-8.3 9.3.7 19.7 2.8 29.2 5.3 7.4 1.9 14.4 3.9 20.7 8.3 3.2 9.3 27.6 34.6 28 42 .2 3.7-8.2 22.5-10 27.9-2.5 7.2-2.6 16-10 21-1.9 1.3-8.4 2-9 3.2-4.1 7.9-1.4 38-1.9 48.8-1.1 21.6-7.6 43.1-20.5 60.5-.9 1.2-2.6 1.5-3.6 2.7-4.3 5.6-2.8 18.6-4.3 26.5-1.2 6-5 13.1-5.6 18.4-.4 3.5 1.3 7.7.8 9.7s-10.7 8.6-13.2 9.9c-2.2 1.2-5.7 1.5-6.5 2-.6.4-5.4 10.9-7.2 13.3-2.1 2.7-11.1 11.3-14 12.1-4.1 1.2-7.9-10.3-9.9-13s-2.3 2.3-3.6 4.3c-4.3 6.7-25.1 26.6-32.4 28.6-1.7.5-3.3.7-5 .5-.4-5.9 3.2-9.9-1.5-15.1-8.2-9-20.9-.3-24.3 8.8-1.8 4.9-1.6 20-8.6 18.1-4.6-1.3-20-25.6-23.2-30.8-5.7 8.9-12.2 19.9-19.5 27.4-11.2 11.7-9.9-11-13.8-18.2-3.8-7.1-14-12-21.1-6.7-6.7 5-2.9 9.6-3.1 16.4-3.5 3.5-24.3-13.8-27.5-17-1.3-1.3-10.5-12.2-11-13-.7-1.4-.2-6.3-2.6-3.3-2.1 2.7-6.2 14.3-10.2 13.3s-12-10.2-13.7-12.4c-2.1-2.7-6.6-12.8-7.2-13.2-.8-.5-3.8-.6-5.8-1.7-2.3-1.2-11.9-7.4-13-9-2.1-3.2.4-6.9 0-11-.7-6.8-5.9-15.3-6.8-24.2-.5-5 .6-10.7-.6-15.4-1-4-8-10-10.7-14.3-15.3-24.4-17.6-52.1-17.9-80.2 0-5.4 3-18.2 0-22.8-.8-1.2-7.8-1.9-10.4-3.8-7.2-5.3-6.2-13-8.6-20.4-1.9-6-10.7-24.3-9.8-28.7.5-2.7 4.3-7.5 6-10.1 7-10.8 15.7-20.6 22.5-31.5 5.9-4.3 13.2-6 20.1-7.9 9.7-2.6 19.8-4.7 29.2-5.3h.2Zm15 128c-1.4-1.5-7.8 8.9-8.4 10.1-10.6 19.9-8.6 50.8-1.8 71.7 1.1 3.3 9.4 22.1 12.8 21.2 4.4-1.1 10.8-28.9 12.8-34.3 4.3-11.7 13.6-22.1 8.6-35.6-4.8-.6-12.2 1.2-15.9-2.9-1.4-1.5-8.5-21.7-8.8-24s.8-4 .8-6.2Zm240 103c.6-.4 6.8-10.5 7.5-12 6.3-12.1 9-33.7 9.5-47.5.6-14.9-4.3-31.4-14.6-42.5l-2.2 9.8c-4.9 13.6-4.6 25.2-23.1 22.4-5.2 13.7 4.3 23.9 8.6 35.6 3.1 8.4 6 27.5 11.8 33.2.7.7 1.4 1.8 2.4 1.1Zm-262.3-85.7c-1-.9-4.6-2-6.6-3.9-4.2-3.9-7.8-13.1-14-4.7-13.3 17.9-4.1 44.9 7 61.7 1.6 2.4 11.5 15.7 13.3 15.7.5-8 1.2-16.5.5-24.5-.4-5.4-3.1-12.3-3.1-18s6-23.3 2.8-26.2ZM1167 1547c1.7.4 2-.5 3-1.5 17.4-17.9 32.6-50.9 18.4-74.4-6.5-10.8-10.8-.4-16.9 4.9-2 1.7-5 1.6-5.5 4.5-.8 4.5 4 18.3 4 24s-3.3 14.8-3.6 21.2c-.3 6.3 1.6 14.6.6 21.3m-64.5-53c-1.4.3-3.3 6.6-3.8 8.2-3 10.7-2.9 45.1 1.1 55.5 4.8 12.4 18.2-4.3 20.4-11 3.9-11.7-6.4-31.5-11.4-42.1-1-2.2-3-11.4-6.3-10.7Zm-86.8 33.3c-3.2-2.8-9.7 3.2-15.8 1.3-2.1-.7-8.7-7.5-10.5-9.5-2.6-2.9-3.4-8.8-8.2-7.4-12.2 3.5-20.5 24.1-21.2 35.9-.9 13.6 2.4 21.7 11.5 31.5 9.8 10.4 24 15.7 36.1 23h2.3c2.1-6.4 6.2-12 8.1-18.4 3.7-12.2 7.9-47.3-2.3-56.2zm23.4 74.6c1.1.7 3.4 0 4.6-.6 21.8-13.1 47.5-23.3 45.2-53.7-.9-11.9-9.2-33-22-36.1-4.4-1.1-5.5 5-8 8-1.7 1.9-7.3 7.9-9.2 8.8-9.2 4-14.3-9-20 5-5.4 13.2-2.6 37.5 1.5 51.1.7 2.2 7.1 17.1 7.9 17.6ZM885 1559c-3.2-3.3-6.4 8.4-5.8 12.3.7 4.5 5.4 23.4 7 27 1 2.2 6.2 8.5 8.7 6.7 3.4-2.4 3.2-20.7 4-25.4-.5-3.1-8.3-6.1-11-10-2.3-3.5-2.6-10.1-3-10.5Zm269.1 45.9c2.7 1.5 7.8-5.3 8.8-7.5 1.7-3.8 6.1-21.6 6.9-26.2.8-5-.5-8.8-4.3-12.2l-5.1 10.9c-1.4 3.6-9.4 6.1-10.2 8.8-1.2 3.9.5 24.2 3.9 26.2M917 1563c-1.9-2.2-11.8 12.5-12.4 14.1-1.7 4.6-3 25.2-2.4 30.3.9 7.9 5.6 18 11.4 23.6 1.4-8.8 5-18.6 5.5-27.5.8-13.1-3.7-27.1-2-40.5Zm218 68c5.3-3.9 9.4-12.4 10.8-18.7 1.5-7 .8-27.4-1.2-34.3-.6-1.9-10.4-17.4-12.5-15 1.5 13.8-3.1 28-2 41.5.7 8.7 4.6 17.6 5.1 26.5zm-186-62c-2.4-2-8.2 6.4-9.4 8.1-7.7 11.1-15.4 39-8 50.8 2 3.2 16 15.2 19.5 16.5 5.6 2.2 6.5-1.9 7-6.9 2.4-23.1-3.5-46.4-9-68.5Zm151 0c-1.5 11-6.9 22.6-8 33.5-.9 9-2 26.3-1 35 .2 1.9 1.7 8 3.6 8.4 2.4.6 18.8-13.3 20.9-15.9 8.3-10.5 3.8-32.3-1-44-1.2-2.9-11-19.9-14.5-17m-82 44c-3.5 0-6.1 2.5-9.6 2.9-12.7 1.6-29.1-13.9-41.4-16.9v24.5c0 .6 3.2 8.2 4.1 8.9 6.5 5.2 18.9-.4 24.4 5.6 2.6 2.9 4.3 10.3 10.6 5.5 1.1-.8 11.9-13.1 11.9-14.1v-16.5Z" class="outline" data-original-prefix="outline"/><path id="outline-mouth2" class="outline"  fill="#000" d="M1122 1332c-.2 0 .2 1.6 0 1.9-1 .8-8.1-5.8-10.2-7.1-10-6.1-19.8-8.3-31.2-9.8-2.9-.4-6.9.7-9.5-.5-1.5-.8-4.5-7.4-6.5-9.5-7.8-8.7-15.6-10.2-25.8-13-1.1-.3-.6-1.9-.7-2 3.1-3.8 16.2-9.3 20.8-9.8 7.9-.9 5.5 4.4 6.5 9.1 2.3 10.7 9.3 19.6 21.3 18.8 5.1-.3 5.6-4 7.9-4.1 1.4 0 6.6 2.9 8.2 3.8 9.4 5.2 15 12.5 19.3 22.2z" class="outline" data-original-prefix="outline"/><path id="outline-mouth1" class="outline"  fill="#000" d="M1011 1292s.4 1.7-.7 2c-10.2 2.8-17.4 4.1-25.4 12.5-2 2.1-5.6 9.2-7.2 9.9-3.4 1.4-13.5 1-18.1 1.8-12.5 2.1-23.6 8.7-33.1 16.9.2-.9-.5-2.8-.5-3 .8-2.7 8.7-13.3 11-15.6 2.5-2.4 14.7-10.5 17.6-10.4 2.7 0 3 5.1 11.9 3.9 10-1.3 16.2-10.1 17.5-19.6.4-2.6-2.4-6.7 2.8-8.2 3.5-1 21.7 5.6 24.3 9.8Z" class="outline" data-original-prefix="outline"/></g><g id="04_Eyes" data-trait="specs"><g id="glasses-fill" class="st2"><path id="fill-specs-main" class="fill"  fill="#fff" d="M1337.7 1024.3c5.6 3.4 36.1 66.5 39.3 76.2 0 6.8 8.2 17.3 1.7 22.2-2.1 1.6-13.8 5.7-17.7 7.8-9.3 4.9-18.6 9.9-27.5 15.5-1 30.8-7.2 66.9-28.5 90.5-16.1 17.9-39.8 29.8-61.9 38.6 2.4 54.1-38.2 93.3-92.7 85.8-22.1-3-44.1-17.2-56.1-35.9-1.6-2.4-6.4-13.1-7.3-13.6-5.7-3.4-7.8 2.4-9.5 2.6-1.8.2-8.1-2.2-9.6-3.5-2.3-1.9-6.4-11.5-5.8-14 .4-1.7 3.3-1.2 3.8-1.7 1.7-2-2.1-11.4 7.7-12.8 3.9-.6 10.2 1.9 8.4-3.4-10.8-9-23.6-16.9-34-26.2-7.3-6.4-13-14.8-20.5-20.5-2.7 1.3-6.1-.6-8.4.4-1.8.8-13.7 15-17 18.1-10.3 9.5-22.4 16.9-33.1 25.9l-.9 5.6c3.4.2 6.5-.8 9.5.9 5 2.8 3.8 11.2 4.6 12 1.1 1.1 4.1-2.4 2.6 6.3-1.2 6.7-5 11-11.7 12.3-2.9.5-11 0-11.9.6-.3.2-2.5 5.7-3.4 7.1-15.1 24.2-39.3 39.7-68.3 40.7-50.2 1.7-84.5-36.9-83-86-34.1-13.4-67.2-32.1-81-68-7.5-19.5-10.7-41.2-11-62-9.7-5.8-19.6-11.2-29.5-16.5-4.4-2.4-15.9-6.2-18.1-9.9-3.2-5.6 1.4-5.9 2.8-9.3 1.1-2.6.9-6.7 2.1-9.9 7.4-20.6 26-58.6 39.2-75.6.7-.9 2.4-.4 3.1-1.3 24.4-32.2 46.9-61.4 77.9-87.8 140-119.1 324.7-118.5 464.5.5 24.6 21 44.1 44.7 64.5 69.5 2.9 3.5 10.4 15.7 12.5 17.5 1.6 1.3 3.2.6 4.2 1.3" class="fill" data-original-prefix="fill"/><path id="fill-glasses4" class="fill"  fill="#fff" d="M1071.1 1285c7.4.7 5.2 3.1 6.2 8.2s7.1 19.1-.8 19.8c-9.5.9-10-22.2-5.4-28" class="fill" data-original-prefix="fill"/><path id="fill-glasses3" class="fill"  fill="#fff" d="M974.5 1285c5.5-1.1 8.2 22.3 0 27.1-3 1.8-5.7 1.1-6.4-2.4 2.5-3.1 4.7-24.4 6.3-24.7Z" class="fill" data-original-prefix="fill"/><path id="fill-glasses2" class="fill"  fill="#fff" d="M882.8 1198.3c64.7-4.8 104.1 69 70.6 122.6-27.8 44.4-91.1 51.9-125.4 10.6-40.6-49-9.5-128.4 54.8-133.2" class="fill" data-original-prefix="fill"/><path id="fill-glasses1" class="fill"  fill="#fff" d="M1155.8 1198.3c64.2-5 104.6 68 73.4 122.4-29.1 50.6-100.1 49.9-131.6 2.2-32.7-49.4-2.1-119.9 58.2-124.6" class="fill" data-original-prefix="fill"/></g><g id="specs-shading" class="st2"><path id="outline-shading-eyes10" class="outline"  fill="#000" d="M942 857c-15.4 14.8-36 21.4-52.9 34.6-23.5 18.3-52 55.5-66.2 81.8-8.1 14.9-14.5 24.7-6.4 41.7 4.1 8.5 19.1 28 26.6 33.4 15.4 10.9 44.6 22.3 62.6 32.4s34.6 19.8 50.9 31.1c10.6 11.9 32.8 64.7 44.2 70.8 3.5 1.9 11.6 2.6 13.8 4.2 4 2.9 5.8 15.4 6.5 16 .2.2 5.7.2 5.9 0 .6-.6 1.7-13 6.5-16s11.9-1.4 17.6-7.4c6.1-6.6 15.9-26.1 21.2-34.8 5.1-8.6 9.8-18.8 15-27 7.3-11.4 40-28.5 53.1-35.9 18.6-10.4 48.7-22.1 64.6-33.4 7.8-5.6 25.9-29.3 28.6-38.4 3.2-10.7 1.5-15.8-2.7-25.4-12.1-27.9-46.6-72.6-70.4-91.6-16.3-13-35.7-21-52.6-33.5-1.1-.8-2.5 0-1.9-2.6 32.2 6.4 62.4 20.5 90.7 36.8 34.1 19.7 69.5 46.9 95.8 76.2 7.4 8.2 24.8 28.6 29.3 37.7 1.2 2.3 1.6 3.5.5 6.1-1.7 4-26.2 9.5-31.6 11.5-55.6 20.7-105.3 42-152.6 78.4-28.9 22.2-42 38.8-62.3 68.7-5.3 7.8-6.4 14-14.3 20.7-2.2 1.9-21.8 15.5-23.2 15.8-5.2 1.2-10.1-.7-14.7-.7s-10.3 2.1-14.9.7c-1.3-.4-20.1-14-22.2-15.8-7.7-6.7-8.1-11.5-13.1-18.9-18.8-27.7-31.9-45.6-58.5-66.5-49.1-38.6-98.8-60.3-156.9-82.1-5.6-2.1-29.8-7.8-32-10.9-3-4.2 2.2-9.9 4.7-13.5 28-40.6 71.6-78 113.7-103.3 30.1-18 63.1-34 97.7-40.8Z" class="shading" data-original-prefix="shading" opacity=".2"/><path id="outline-shading-eyes9" class="outline"  fill="#000" d="M1376 1124c-.3.4-7.4 2.6-9 3.5-8.1 4.2-26.1 12.6-32.3 17.7-2.4 1.9-.9 4.2-2.2 5-33.1 10.2-66.4 15.4-96.3 33.5-11 6.7-21 14.9-32.1 21.4-.2 1.3-.3 1.3.6 2.1 2.7 2.4 18.8 12.5 18.2 16.2l-90.9 131.2c-2.9 1.8-16.9-7.8-19.9-10.1-5.8-4.6-12.7-11.9-16.9-18.1-2.6-3.8-7.4-10.4-5.4-15l77.2-115.8-2-1.5c12.2-6.5 23.9-14.3 35.3-22.2 18.4-12.8 35.3-28.2 53.4-40.6 22-15.1 46.6-26.7 69.1-40.9l33.2.3c4.2 2.6 10.2 24.5 15.6 29.4 1 1 5.9 2.1 4.4 4Z" class="shading" data-original-prefix="shading" opacity=".2"/><path id="outline-shading-eyes8" class="outline"  fill="#000" d="M887.7 1195.2c2.5-.8 12.6.4 15.7.9 11.4 1.8 24.3 7.6 33.5 14.5 2.4 1.8 8.4 5.8 8 8.7L852 1353.6c-2.8 1.5-14.6-7.2-17.5-9.6-10.7-9-18.8-22.1-23.3-35.3z" class="shading" data-original-prefix="shading" opacity=".2"/><path id="outline-shading-eyes7" class="outline"  fill="#000" d="M883 1194c.3 1.3-1.8 1.6-2.7 1.7-9.6 1.7-15.8 2.3-25.2 5.8-3.3 1.2-7.8 5.1-11 4.1-16.1-10.4-33.1-24.7-50.6-32.5-23.4-10.4-53.3-14.4-77.7-23.1-1.3-.7 0-3.1-2.2-5-6.6-5.3-25.2-13.8-33.7-18.3-1.4-.7-8.7-2.5-7.7-4.3.7-1.3 3.4-1.3 4.9-3.1 3.6-4.4 11.6-27.2 15.1-28.9h33c21.5 12.9 44.6 24.7 65.5 38.5 18.6 12.3 35.7 27.9 54.2 40.8 12.3 8.6 25 17.1 38.3 24.2Z" class="shading" data-original-prefix="shading" opacity=".2"/><path id="outline-shading-eyes6" class="outline"  fill="#000" d="M1093 1232c-2.8 6.2-5.8 12.1-7.7 18.8-2.5 8.8-3.8 18-3.3 27.2-.7.8-4-2-4.9-2.6-17.7-12.6-34.5-26.8-48.8-43.3l-9.3.4c-14.2 17.8-32.7 30.8-50.5 44.5l-.6-11.4-2.9-8.6-69 103.5c-5.2 4.4-24.9-.6-32-.5l89-130c3.2.7 4.7 2.9 8.4 2.9 7.9 0 21.6-3.5 29.8-5.2 5.5-1.2 16.2-5.3 20.6-5.5 2.8-.1 7.5 3.8 11.7 3.8s8.2-2.8 12-3.9c13.6 3.4 28.3 8.1 42.1 9.8 5.2.6 10.3 1.1 15.4.1" class="shading" data-original-prefix="shading" opacity=".2"/><path id="outline-shading-eyes5" class="outline"  fill="#000" d="m1144 1360 87.5-125c3 1.4 11.2 24.7 10.3 28.2l-64.4 95.7c-6.1 6.3-25.1 1.7-33.5 1Z" class="shading" data-original-prefix="shading" opacity=".2"/><path id="outline-shading-eyes4" class="outline"  fill="#000" d="M1071.7 1282.2c1.6-.4 4.8-.8 5.8.8.9 7.7 7.5 18.3 4.9 26-.4 1.2-3.9 5.7-5.1 5.9-.6.1-10.9-2.9-10.3-5.3 1.3-7.2-5.3-25.1 4.7-27.3Z" class="shading" data-original-prefix="shading" opacity=".2"/><path id="outline-shading-eyes3" class="outline"  fill="#000" d="M971.6 1282.1c4.2-1.4 8.6 1.1 9.3 5.4.6 3.5.7 18.6 0 21.9-.4 2.4-2.3 3.1-4.6 3.4-19.8 3.2-8.2-19.2-6.2-29.2.2-.9.6-1.3 1.5-1.6Z" class="shading" data-original-prefix="shading" opacity=".2"/><path id="outline-shading-eyes2" class="outline"  fill="#000" d="M945 856c.7.3-.6 1.7-2 1-.7-.3.6-1.7 2-1" class="shading" data-original-prefix="shading" opacity=".2"/><path id="outline-shading-eyes1" class="outline"  fill="#000" d="M1105 856c.7.3-.6 1.7-2 1-.7-.3.6-1.7 2-1" class="shading" data-original-prefix="shading" opacity=".2"/></g><g id="specs-outline"><path id="outline-eyes5" class="outline"  fill="#000" d="M707 1142c3.2.8 8.9.4 13 1.5 34 8.5 68.4 21.4 97.9 40.1 3.5 2.3 20.3 14.8 21.8 15.2 3.4.8 11.4-4.8 15.2-6.3 45.9-18 92.9 5.3 112 49.1 4.1 1 25.9-9.5 27-8.6.6 2.6-.8 1.8-1.9 2.6-4.7 3.5-17.6 12.7-19.6 17.5-1.2 3 .8 14.8 1.5 19 0 .6-.3 1.5 0 1.9.5.5 5.9 1.1 8.4 3.1s3.4 6.9 5.9 7c23.7-5.5 48.3-4.9 72 0 3.1-7.4 7.4-7.8 13.6-10.9.4-.2 1.8.6 2.1-.6-1.3-5.1 2.9-13 1.6-17.4-1.9-6.2-16.2-14.9-20.6-20 5-1 23 8.4 26 6.6.7-.5 6.3-12.5 8-15.1 20.5-31.9 58.2-46.8 95-37 8.3 2.2 15.2 6.7 23.3 9.4 4.4-3.2 8.6-6.9 13.2-9.9 33.6-22.1 67.4-35.5 106.5-45.5 3.6-.9 9.3-.7 12-1.5 2.8 5.2 2.2 12.1 3.3 18.2.8 4.3 4.4 14.4 4.5 17.5 0 1.9-10.5 15.4-8.8 17.3 2.2 2.4 7.6-14.3 12-10.5 0 2.3.2 4.6 0 6.9-1.5 10.2-12 44.2-17.1 52.9-1.5 2.6-3.9 5.8-5.8 8.2-2.7 3.3-26.3 27.8-28.2 28.8-7.4 3.7-50.2 9.6-51.7 11.9-3.2 5 4.2.6 6.7.2 3.7-.6 10-1.1 13.8-1.2 3.2-.2 8-.4 11 0 5.7.7-3.1 3.3-4.2 3.8-6.2 3-27.3 11.8-30.8 15.2-2.4 2.2-6.3 12.4-8.7 16.3-31.4 51.3-103.9 58.2-141.2 9.6-1.6-2.1-7.9-13.1-8.6-13.5-.9-.6-2.8 1.4-4.6 1.5-10.4.9-18.6-3.4-22.6-13.3-1.2-3.1-1.7-9.3-3.2-10.8-1.9-1.8-12.1-3.4-15.2-3.8-9.9-1.2-24.9-1.2-34.7 0-2.4.3-15.8 2.9-16.5 4-.6 1 .2 3.7-.2 5.3-3.2 13.1-14.1 22.2-27.9 17.6-31.1 60.1-112.8 60.8-148.5 3.9-2.1-3.3-7.3-15.2-8.6-16.4-3.1-2.9-26.3-12.8-32.3-15.7-1.1-.5-9.9-3.1-4.2-3.8 2.5-.3 6.5-.2 9.1 0 4.5.2 11.4.7 15.7 1.3 1 .2 10.7 4.5 7.3.7-1.1-1.2-12-3.9-14.5-4.5-11-2.6-29.1-3.5-38.4-8.6-4.7-2.6-29-29.2-32.5-34.6-3.8-5.9-6.3-13.8-8.5-20.5-2.6-8.1-10.3-32.2-10.7-39.3-.2-3.5 1.5-3.4 4.6-1.5 1.8 1.1 5.1 7.8 6.9 10.2.4.5 1.1 3.7 2.6 1.9s-9.5-16.3-9.8-18.6c-.2-1.5 3.8-15.6 4.5-19.2 1-5.7 1.1-11.5 2.3-17.2Zm175.8 56.3c-64.3 4.7-95.3 84.2-54.8 133.2 34.3 41.4 97.6 33.9 125.4-10.6 33.5-53.6-5.9-127.4-70.6-122.6m273 0c-60.3 4.7-90.9 75.2-58.2 124.6 31.5 47.7 102.5 48.4 131.6-2.2 31.3-54.4-9.2-127.4-73.4-122.4M974.5 1285c-1.6.3-3.8 21.6-6.3 24.7.7 3.5 3.4 4.1 6.4 2.4 8.2-4.8 5.4-28.1 0-27.1Zm96.6 0c-4.6 5.8-4.2 28.9 5.4 28 7.9-.8 1.9-14.7.8-19.8s1.2-7.5-6.2-8.2" class="outline" data-original-prefix="outline"/><path id="outline-eyes4" class="outline"  fill="#000" d="M696 1136c.3 2.6-.8 14.5-2 16.3-.6 1-3.3 1.6-4.4 1.4-3.6-.4-15.2-6.6-20.6-8.2-4.1-1.2-8.6-2.3-12.8-3.2-5.3-1.2-9.4 1.1-11-7-1.8-8.5 4.7-32 7.3-41.3 6.6-23.3 17.1-48.4 30.1-68.9 4.4-7 19.3-29.4 26.4-31.6 3.2-1 8.4.9 9 .5.4-.3 3.5-6.5 5.1-8.4 51.7-63.4 124.9-120.7 206.1-138.9 66-14.8 152.7-13.8 217.3 7.3s136.4 77.9 177.9 131.1c2.2 2.9 5.4 6.2 5.6 9.9 2.1.4 3.1-2 4.9-2.6 8.3-2.3 24.8 22.5 29.1 29.1 17.8 27.5 33.6 66.9 38.7 99.3.9 6 3.8 19-4.4 21-6.4 1.5-13.1 1.9-20.1 3.9-4.1 1.2-18.6 8-20.6 8-5.3 0-3.3-14.2-5.7-17.7.2-1.5.4-3 1.7-4.1 3.2-2.5 21.2-8.9 21.8-9.9 2.6-3.9-1.4-18.4-3.1-23-9.1-25.4-24.3-48.6-37.7-71.8-4.1.5-8.6-1.3-12.3-1.3-8.9 0-25.8 1.8-34.9 3.2-7.7 1.2-14.9 4.8-22.6 5.9 11.8-12 27.7-20.1 42.1-28.6-.4-2.1-.9-4.3-1.6-6.3-11.9-35-80-81.9-111.6-101.4-88-54.5-207-59-302.2-20.3-37.1 15.1-127.3 77.6-145.3 112.7-1.1 2.1-5.5 12-5.4 13.6.2 3.9 9.2 6.7 12.2 8.7 10.2 6.4 21.2 13.5 29.7 21.8-8-1.5-15.4-4.7-23.5-6-8.7-1.3-24.5-3.1-33-3.1-3.6 0-7.8 2-11.8 1.1-9.4 14.8-18.8 29.9-26.6 45.6-4.4 9-14.4 29.8-15.1 38.9-.2 2.4-.6 9.7 1 11 1 .8 4.9 1.5 6.7 2.3 5.2 2.4 14.7 5.6 15.3 11.2Z" class="outline" data-original-prefix="outline"/><path id="outline-eyes3" class="outline"  fill="#000" d="M1193 1067c1 1-1.4 2.8-2.1 3.4-11.5 10-31.9 20.9-45.2 30.8-12.2 9-27 19.8-37.7 30.3-14.7 14.4-22.4 34.8-38 48.5 7.8-23.1 15.8-48.3 31-67.5 19.3-9.9 38.2-20.8 57.7-30.3 3.8-1.8 33-16.4 34.3-15.1Z" class="outline" data-original-prefix="outline"/><path id="outline-eyes2" class="outline"  fill="#000" d="M998 1254c.6-.9.9-3.7 2.2-5.3 9-12.3 19.9-26.5 16.8-42.7 6 1.8 8.5 2.6 14.5 0-1.3 11.9 3.9 23.9 10.3 33.7 3.8 5.8 5.9 9.5 9.2 15.3-2.2-.2-3.2 2.3-4.7 2.8-2.9 1-2.4-1.7-4.2-3.4-2.6-2.3-6.8-4.5-9.1-7s-6.4-11.5-8.5-11.6c-3.2 0-3.4 4.5-4.7 6.4-4.3 6.1-7.8 7.6-12.9 12.1-1.1 1-1.9 3.3-2.1 3.4-2.5 1.4-4.8-3-6.9-3.9Z" class="outline" data-original-prefix="outline"/><path id="outline-eyes1" class="outline"  fill="#000" d="M856 1068c1.7-.3 3.1.2 4.7.8 28.7 10 58.3 31.1 86.3 43.7 16.4 19.7 23.9 45.4 33 69-4.6-2.9-8.5-7.8-12-12-10-12.3-16.8-26.9-28-38-17.5-17.2-43.3-35.2-63.7-49.3-6.8-4.7-14.7-8.4-20.3-14.2" class="outline" data-original-prefix="outline"/></g></g><g id="05_Right Ear" data-trait="cracked"><path id="fill-ear-rt" class="fill"  fill="#fff" d="M1722.4 186.9c.8.8 1.1 2.1 1.1 3.2l-8.1 121.8c-8.6 28.8-25.9 53-29.7 83.3s-3.9 64.1-9.3 93.7c-7.4 41.1-28.4 85.6-36.9 127.1l-66.8 103.2c-30.7 24.5-60.3 54-91.5 77.5-13.1 9.9-38.1 22.1-53.4 29.5-4.5 2.2-11.8 7-16.6 3.5s-8.7-32.4-11.9-39.1c-15.4 14.6-30.8 29.2-45 45-2.4 2.6-12.9 13.8-13.3 15.8-.5 7.8 4.3 26.8 1.3 33.2-2.3 5.1-22 16.9-22.5 21.5l15.9 43.8-51.9 35.7c-2.6 3-1.2-1.7-2.6 2.2-17.5-3.9-23.5-9.2-38.8-18.4-19.3-11.6-43.7-28-59.2-43.8-1.9-2-4.8-3.1-6.5-5.5-7-9.5-10.9-33.7-16.9-45 16.2-57.7 47.1-109 71.8-163.1 9.4-65.7 14-132.5 25.2-197.8l96.3-119.7 130.6-105.4L1705.6 178l16.7 8.8h.1Z" class="fill" data-original-prefix="fill"/><path id="outline-shading-ear-rt" class="outline"  fill="#000" d="M1670 478.5c0 .2-1.5 2-2 1-4.6-2.8-23.5-18.9-27.3-18.4-2.3.3-10.5 6.3-13.1 8-11.6 7.9-21.9 17.5-33.1 25.9-1.7 3.7-1.7 7.1-.4 10.8 6.7 1.4 18.8-4.7 17.7 6.4l-23.3 40.7c-2.5.4-1.5-1.8-1.2-3.2.8-4.7 8.2-23.6 7.7-26.2-.2-.8-1.2-1.4-2.2-1.4-3.3.2-8.7 4-12.6 3.9-.8.9 1.8 12 1.7 14.4-.2 7.7-7.3 19-10.3 26.5-3.3 8.5-8.4 19.1-6.5 28 1.4.2 2.7 0 4-.5 12-4.1 33.5-43.7 40.1-55.9 4.8-8.9 14.3-32.5 19.3-38.7.4-.5 1.2-1.4 1.5-1-12.8 55.3-34.4 111.3-63.2 160.3-7.3 12.4-22.6 38.5-31.8 48.2-6 6.3-23.1 17-31.1 21.9-27.2 17-57.6 30.4-89.9 33.6l14.9 35.4c2.5 3.2 21.7-5.9 25.5-7.5 28.7-12.7 69.6-35.6 94.6-54.4 5.6-4.2 8.5-11 6.6 2.6-10.7 7.5-19.9 16.9-30 25-10.6 8.5-24.1 19.3-35.1 26.9-19.5 13.4-44.2 22.7-64.3 35.7-2.6.7-6.3 1.4-8-1.1l-9.1-33.9-67.5 68.5c-1.5 3.5 7.6 16 5 21l-27.4 24.7c5 16.7 14.5 32 18.9 48.8l-1.1 2-44.3 28.7c-1.3.7-2.7 1.6-4.3 1.8-4.9.6-23-6.1-28.3-8.5-21.2-9.4-42.2-23.3-60.1-38-3.1-2.5-20-18.6-20-21s2.2-2.6 2.8-4.2c1.1-3.1 1.1-7.1 2.5-10.5 4.2-10.5 32.7-39 41.8-50.2 58.9-72.9 101.1-158.1 128.3-247.7 4.3-14 8.8-40.2 14.2-51.8 3-6.3 11.4-12.3 14.7-18.8 22.1.5 44.5 6.1 65.8 11.8.9 1.2-5.4 14.4-5.9 17.5-1.3 9.1.4 20.2.9 29.4l19-47c4.9 3.9 5 10.1 12.5 11 8.4 1 31.8-3.8 40.3-6.7 2.5-.8 6.8-1.9 4.7-5.3-17.2-2.1-36.8 9.9-52.5 1.3-.2-.9-.2-11 0-11.7.3-1.1 2.7-.2 3.9-2.2 4.3-7.1 4.3-42.4 5.2-52.9.8-9.6 2.2-19.4 3-29 .8-10.5-2.6-12.2 5-21 8.7-10.2 35.9-34.5 47.3-40.6 3.1-1.7 7.8-.6 6.7-4.8-3.6-.6-5.7.5-8.7 1.8-16.1 7.3-32.9 26.4-48 34-1.6.8-3.6 1.9-5.4.7-.6-.4-4.6-12.8-4.8-14.3-.5-3.8 5.9-11.6 8-15.5 2.2-4.1 11.5-21.6 10.7-25s-25.6-16.5-30.4-21.7c-1.9-2-10.4-14.8-11.1-17-.7-2.4-.4-4 1.1-6l40.4-26.6c22.6.2 42.9-1.7 64-10 10.6-4.2 30.2-16.4 39.8-18.2 11-2.1 25.7 6.5 35.6 10.5 15.2-9.6 31.4-23.8 47.6-31.3 3.1-1.4 4-2.6 6.5.6 3.2 4 0 3.9-1.2 6.7-3.4 7.9-5.5 16.3-8.8 24.2-12.1 29.2-28.7 57.7-38 88-2.3 7.4-3.4 17.4-6 24-4.6 11.8-18.9 25-23.5 36.5-1.6 4.1-6.1 25-6 29 0 .7-.3 1.6.5 1.5 22.9-20 44.9-41.2 69.1-60 3.1-2.4 6.8-5.6 10.5-7v18.5c0 2.6-32.8 27.9-37 32 10.4.7 16.9 7.4 23.1 14.9.5.6 1.9.5 1.9.6 0 5.1 1 17.5 0 21.5ZM1606 296c-2.4-.2-4.7 0-7.1.4-16.5 2.9-37.6 9.5-53.7 14.3-5 1.5-10.2 2.2-15.2 3.8-11.7 23.6-23.4 47.3-34 71.5l20.3-12.2c27.3-9.4 38.9-37.6 60.2-55.9 8.3-7.1 18.8-12.8 27.6-19.4 1.1-.8 2.5 0 1.9-2.6Zm-86 17-46 3.5c-1.7 1.4-8.4 4.7-8.8 6.2s2.6 12.1 3.7 14c2.2 4 14 11.6 18.5 14.5 2.2 1.4 9.4 6.9 11.6 5.6l21.1-43.9Zm-138.5 421v1c.7-.3.7-.7 0-1m-.5 2c-1.4-1.8-4.5 5-4.7 5.8-5.5 16.6-6.8 40.6-14.1 55.9-7.6 15.9-25.4 34.3-35 50-.6 1-1.9 3.1-1.7 4.3 13.1-10.1 27.2-19.4 38.9-31 2.6-18.2 9.1-35.8 12.3-53.7 1.8-10.3 1.9-21 4.3-31.2Zm2 67c3.7-2.6 12.4-12.4 13-16.6.5-3.8-4.9-11.6-6.5-15.4zm-48.1 77.9c.5-.8-7-16.5-9.4-15.9-9.2 11.1-19.3 21.5-28.5 32.5-5.4 6.5-22 25-22.9 32.1-.5 3.6.2 7.3 0 10.9-.8 8.8-1.8 17.7-3 26.5l39.5-35c1-6.2-8.3-23.1-6-27.9L1335 881Z" class="shading" data-original-prefix="shading" opacity=".2"/><path id="outline-ear-rt" class="outline"  fill="#000" d="M1204 941c-.6 2-3.1 0-4-.5-6-3.3-16.4-8.4-21-13-11.6-11.9-20.6-32.5-31.5-45.5-1-2.9-.7-7.3-.5-10.5 1-20.3 12.5-34.3 20.8-52.2 6.3-13.5 12.6-35.7 19.9-47 3.2-4.9 8.4-9.8 12-15 29.7-42.8 37.8-119.3 42.2-170.8 1.8-21.4.9-43.9 3-65 .7-7 2.4-6.2 5.4-10.6 32.8-49.1 70.5-98.1 110.1-141.9 13.9-15.4 33.5-38.4 49.2-50.8 52.6-41.5 136.1-85.3 198.3-110.6 29.7-12.1 85.4-35.4 115.8-38.3 8.5-.8 7.8 2.7 9.5 9.9 3.6 14.9 2.9 30.5 2.7 45.3-.4 32-1.4 78.8-8.3 109.7-3.7 16.4-15.8 23.2-22.2 37.8-10.4 23.8-20.5 86.5-15.4 111.4 3 14.6 5.8 10.4 2.4 27.6-12.4 64-44 134.2-79.1 188.9-30.9 48.2-70.1 80.8-118.5 110.5-28.7 17.6-59.7 34.8-91.9 44.6.3-14.2-.5-28.4 0-42.5 0-3 3.2-9.9-1-11-14.8 16.6-30.3 32.5-43.8 50.2-.6 2.2 2 8.2 2.8 10.8 1.5 4.5 9.2 20.3 7.6 23.5-1 2-28.2 11.4-31.4 16.7 6 20.3 14.5 39.6 22.7 59.1.5 4.8-7.5 12.2-11.2 14.3-2.2 1.2-4.5.9-6.9 2.1-5.5 2.6-9.7 9.7-15.6 12.4-22.6 10.3-50.5-2.5-71.7-12.3-4-1.9-11.3-4.7-12.3-9.2 2.4 1.1 5.6.7 8 1.5 26.9 9.2 36.4 9.3 61.7-4.3 3.1-1.7 18.6-11.5 19.2-13.9-5.6-15.9-10.9-32.1-19.7-46.6.2-2.7 11.1-11.8 13.8-14.2 2.5-2.2 16.3-11.8 16.9-12.7.6-1.1-1.1-6-1.7-7.5-1.8-4.9-9.1-13.1-7.8-17.3l32-33c2.3-18.2 9.3-35.8 12.3-53.7.9-5.2.5-11.6 1.4-16.6 6.7-39.1 32.5-73.7 53.7-106.4-3.1-10.5-18.5-34.2-29.3-19.2-7.7 10.7-16.6 48.7-17.6 62.4-.4 5 1.2 17.3-.9 20.8-.9 1.6-11.5 10.3-14.1 13.2-25 27.8-50.2 64.5-69.2 96.8-17.2 29.4-56.3 96-51.7 129.1.7 4.7 4.3 9.8 4.9 14.6-2.1 2.1-27.1-18.8-28.5-22-1.7-3.9.9-16.6 1.5-21.5.3-2.9-.4-6 0-8.9.7-4.5 15.4-22.3 19.2-27.8 39.8-58.6 57.4-124.9 103.3-180.7 11.8-14.4 20-26.2 25.8-44.2 5.6-17.5 15.4-63 12.5-80-.7-3.9-10.8-27.6-9.8-28.7l52 28c16.2-44.2 27.9-91.8 22.2-139.2 9.1-12.4 18-25 25.6-38.5 2.5-4.5 12.1-21.1 12.3-24.8s-4.6-8.1-7.6-10.5c-12.1-9.7-30.2-11.4-31.5-31-.7-.6-12.7 8.1-14.3 9.2-44 31.1-77.8 64.6-111.7 106.3-15.7 19.3-36.9 44.4-50.5 64.5-6.4 9.5-10.1 25.9-11.6 37.4-6.4 50-5.5 104.8-13.1 153.9-2.9 18.9-27.5 67.5-37 87-6.6 13.4-16.1 27.1-22.1 40-6.3 13.7-9 29.6-15.7 43.3-3.2 23.1 13.4 51.4 28.9 67.4v-.3Zm515-753c-30.2 9.5-58.8 22.3-87 36.4-25.9 13-53.6 27.8-78.6 42.4-19.8 11.5-38.5 24.8-58.3 36.2.7 1.8 5.9 1.1 7.5 1 23.2-1.4 56-9.1 77.1-18.9 4.3-2 15.9-9.7 18.9-10.1 11.8-1.7 21.1 15.3 28.8 13.8 1.7-.3 13.6-13.8 16.7-16.2 5.7-4.3 12.8-6.4 18.8-10.2 11-6.8 19-19 32.1-22.4l-22.5 39c-13.1 10-28 17.6-39.9 29.2-3 30.4 1.3 60.6 1.1 91-8 15.5-28.8 23.4-34.1 40.9-1.1 3.5-5.8 33.5-4.7 34.8 3.9-1.3 7.9-4.8 11-7.5 13.4-11.6 26.8-26.6 40-39 8.7-8.2 19.9-16.4 28.1-25 4.6-4.9 12.1-40.9 15.9-51.1 6.8-18.1 16.8-28.7 20.7-48.3 2.5-12.5 4.6-27.1 6.2-39.9 3.1-25.3 4.5-50.9 2.1-76.4v.3Zm-103 112c-5.5-.8-9.5-5.3-15.4-3.9-15.4 6.5-35.4 7-50.6 12.4s-41.3 48-47.9 63.1c-4 9.2-6.3 19.6-12.1 28.4 13.1-4.6 33.8-26 47.5-25 2.4.2 8.9 3.3 9.4 3 .7-.5 7.1-11.6 8.7-13.8 17.6-23.9 39.4-43.3 60.4-64.1Zm-96 13-46.6 3.9c-1.8.5-12.4 7-13 8.1-1.7 3.4 4.2 15.1 7 18 2.4 2.5 15.6 12.7 18.6 14.4 14.4 8.2 19.7-14.4 24.1-23.8 1.2-2.6 10.7-19.8 9.8-20.6Zm57 208c-2.3-22.7-1-46.6 3.5-69 1.9-9.6 5.7-27.6 10.3-35.7 6.1-10.7 27-21.4 29-32l-.8-63.3c-37 35.4-65 84.7-72.7 135.8-3.9 26-5.3 57.6 10.6 79.9v1.6c-21.4 26.5-33.1 58.8-41.6 91.5-2.1 7.9-9.6 50.2-12.3 52.7-19.4 17.7-41.7 34.1-65.3 46.7-2.2 1.2-14.6 7.8-15.7 6.8 3.2-7 7-13.5 9.7-20.8 6.7-17.3 8.5-31.1 7.3-49.8l-2-7.5c-5.5 12.1-11.2 24.3-17.5 36-5 9.3-22.1 34.4-24.1 42-2.9 11.3 9 27.8 13.7 38.3 6.8 15.3 12.3 30.7 12.8 47.7l83.9-48.6c76.6-56 124.6-136.5 149.8-227.2 6.8-24.3 13.8-49 12.3-74.5-7.5-3.4-20-16.1-28.3-14.5-3 .6-13 7.8-16.1 10-7.2 5.2-13.7 12.3-21 17-6 3.9-14.2 4.4-12.7 13.2 1.6 10 26.2 2 25.9 15.1-.2 7.4-23.2 33-26.9 41.5-1.9.2-.6-1.9-.3-2.8 2.2-6.7 14.8-29.3 13.2-34.6-2-6.5-20.6 4.2-24.9 4.4h.2Zm-37-135c-6.7-.9-12.1 3.8-17.3 7.2-8.9 5.7-34.4 22.6-40.6 29.4-3 3.2-12.7 33.4-13.8 39.2-3.7 19-2.9 40.5-7.4 59.7 0 4.8 11.4 18.6 16.1 20 4.2 1.2 19.5.8 24.5.5 2.6-.2 19.6-2.9 20.4-4.1 1.3-18.4.6-37.9-2-56.2-1.1-7.9-7.4-29.9-6.7-35.9.7-4.9 11.1-27.1 13.9-33.1 3.3-7 10-16.4 12.3-22.7.5-1.4.8-2.5.6-3.9Zm133 33-23 17.5c-2.2 2.8-6.4 4.6-6 8.5 9.5 1.2 16.7 8.1 25 12 .4-12.8 1.6-25.4 4-38m-151 128c-1.8-1.8-39.9 5.1-47.4 3.9-7-1.1-12.1-8.2-16.6-12.9-2 16.5-4.7 32.9-7.2 49.3-1.1 7.1-4.9 20.1-4.8 26.2 0 4.7 5.9 28.9 7.7 34.3 3.6 11.1 10.4 13.8 20.6 8 20.7-11.7 39.9-68.2 45-91 1.3-5.9 2-11.8 2.7-17.8m-133 209c-1.1 0-2-.2-3 .5-1.8 1.2-4.5 24.4-5.3 28.7-1.5 8.3-3.3 16.7-5.7 24.8 2.4 1.8 11.8-9.8 13.5-12 2.5-3.2 7.6-10 8.3-13.8 1.2-6.4-7.6-20.8-7.8-28.2" class="outline" data-original-prefix="outline"/></g><g id="06_Left Ear" data-trait="slasher"><path id="fill-ear-lft" class="fill"  fill="#fff" d="M326.7 182.1q1.65-.45 3.3.3l180.7 78.4c55.2 39.7 111.9 77.8 165.3 119.7l109 135.9c10.5 65.4 16 132 25.2 197.8 24.6 50.1 52.6 98.7 77.3 148.7 1.5 3.1 5.4 9.5 5.5 12.5.2 4.7-8.5 15.9-11.2 20.8-15.1 27.1-18.8 33.2-43.9 52.1-22.9 17.2-44.3 28.5-72.5 35.5-8 2-18.1 5.7-25.3.5l-82.9-79.1c-9.9-22-17.5-45.3-28.1-66.9l-154-109c-23.7-34.4-41.7-73.1-64.9-108.1-9.8-43.7-27.6-90.2-34.9-134.1-5.9-35.7-6.9-73.6-12.5-109.5-9.3-20.9-22.7-40-30.5-61.5-1-40.6-6.8-81.2-8.3-121.7-.1-3.4-1.1-11.4 2.8-12.4Z" class="fill" data-original-prefix="fill"/><path id="outline-shading-ear-lft" class="outline"  fill="#000" d="M740 656.5c-.2.6-2.2 2.5-3.3 2.3-8.8-3.8-18.2-6.7-27.7-7.9l2.9-18.9c-2.2.6-8.4-3.2-9 .4-.5 3.2.2 7.5 0 11-.1 2.3-1.1 4.4-1.1 7 0 7.5 18.1 33.6 22.6 42.5 8.8 17.2 15.8 35.7 24.9 53.1 31 58.9 70.5 108.5 113.3 158.7 2.1 4.5 1.6 9.6 4.2 13.8l-8.1 11.9c-29.4 24.7-56.9 43.6-94.7 53.3-12.1 3.1-23.3 8.5-26.8-7.7-.3-1.5.8-3.6.6-4-.2-.3-4.4-1.7-5.9-2.7-29-18.5-62-46.6-79.6-76.4-12.3-20.8-19.5-45.2-30-67-31.6-23.3-70.3-37.8-100.9-62.1-22.3-17.7-40.8-39.6-57.5-62.5l49.1 39.9c36.5 27.8 75.8 55.8 121.1 66.9 4.2 1 15.1 4.3 18.4 2.8 1.8-.8 4.9-4.8 6.4-6.6 1.1-1.3 4.8-7.2 5.2-7.4 1.5-.8 8.7 3.8 9.7.2 1.4-4.7-3.1-6.9-3.7-10.1-.8-3.9 2.4-5.9-1.1-9.8-4.5-5-29-13.8-36.5-16.5-28.4-10-58-13-83.8-28.2-26.3-15.4-36.9-25-53.7-50.3-2.6-4-16.5-28.1-18-29-1.6-1-14.6-.7-17.5-.5-3.5.3-15 3.5-16.9 2.9-3.8-1.2-.6-14-.6-17.4s-.9-8.1-1.2-8.4c-.7-.7-15.5-1.9-18.1-2.4-6.4-1.2-12.4-3.4-18.8-4.7 2-8.2 1.4-19.1-3.2-26.3-1.3-2.1-4.6-4-4.9-6.2-.4-3.5 2.4-2.8 2.9-3.6.4-.6-2.4-4.4 1.8-5.6 5.9-1.8 23.5 7.3 31.3 5.8.5-2.6-5.3-9.2-5-10.5.5-2.7 10.7-1.1 13-1.5-8.8-26.7-18.8-53.2-24-81l22.8 44.7c4 7.5 17.9 33.6 23.1 37.9 2 1.7 4.7 1.7 5.8 2.7 2.7 2.5 0 7.7 8.2 5.8 1.1-1-5.2-9.4-4.9-11.4.4-1.8 3.6-2.4 4.4-3.6 1.9-3.1-5.6-15.1-7-19-5.6-15.1 1.7-35 2.5-51.4 1.2-23.5-2.8-46-9.8-68.3-1-3.1-7.9-23.5-8.9-24.3-5.5-4.3-15.6 0-18.7-1-3.5-1.1.3-7-3.2-7s-6.9 1.8-10.5 1c4.2 11.6-11 7.8-18.5 8-2.2 0-6.3 2.6-7.4-.6-.5-1.4.1-5.1-.1-5.4-.6-.6-13.3-.7-16.2-1.2-6.1-1.2-11.8-2.6-14.5-8.5-4.6-9.9-7.1-24.7-11.5-35.5-1.4-3.3-4.1-8.8-5.8-12.1-.5-1-1.8-.4-2-1.2 3.5-.2 7.9 3.2 10.9 5.1 5.8 3.6 14.4 11.7 20.6 12.4 1.2.1 7.2.3 7.5 0s-.3-3.1.1-4.4c1.2-3.8 21.1-3.4 25.4-5.7 4.4-.3 3.5 3.7 3.5 7 1.2-.2 7.7-.7 8-1 .8-.8-1.5-5.5-.9-7.4.7-2.1 4.4 0 2.1-5.3-10.9-25.6-39.7-48.8-53.6-73.4-3.5-6.2-2.7-12.6-5.6-18.9.9-.8 15.4 4.7 17.7 5.8 13.7 6.7 30 18.3 43.2 26.8 22.4 14.3 43.8 27.4 62.1 46.9 2.5 2.7 15.3 19.2 16.5 19.5 3.3.8 12.8-18 18-18 3.3 0 12.2 12.6 15.3 10.9.3-.2 3.6-5.5 3.7-5.8 1.6-4.8-9.7-10.6-11.7-14.5 0-1 10.6-15.5 11.6-16.5 7.3-6.6 13.8 7.7 19.1 8.8 2.9.6 10.8-7.6 14.7-7.6l30.2 18.8c6.2 6.6-11.4 13.4-10.6 18.5.3 2.1 19.7 10.9 16.6 16.6-1.7 3.1-16.4 11-18.1 17-5.2-.6-12.1-14-15.9-14-2.1 0-7.9 7.5-7.4 9.4.7 2.6 13 9.1 12.8 11-5.7 4.7-7.3 20.9-10.4 24.7-3.9 4.7-14.4-7-19-7.9-1 0-5.4 11-5.4 12.4 0 3.4 8.1 15.2 8.9 20.1.9 5.7-.9 10.8-1 15.9-.8 37.5 1.5 75.1 9.3 111.7 3.4 15.8 6.3 33.6 17.7 45.3 1.1 1.2 2.2 2.8 4 2.5 7.4-15.6 15.5-31 25-45.5l52.3-6.5c1.9-.6 1.7-9.4 6.2-8 2.8.8.3 6.5.7 9.2.2 1.4 4 10.8 4.8 11.3 2.7 1.8 3.5-2.9 4.2-3.4 1.1-.7 21.1 3.8 23.1 5 5.1 2.9 1.2 13.5 3.3 14.9.5.3 11 3.3 11.4 2.9-.2-1.5-3.2-14-1.5-14 7.8 2.5 15.6 5.3 23.4 7.6 2.5.7 7.1-.4 7.1 2.9 0 1.7-3.9 8.1-1.9 10.4.5.5 13.2 3.8 13.9 3.1-1.7-19.9 3.8-11.3 16-8.5 2.3.5 7.6 0 8.6 1.4 1.6 3.5-.8 14.7.6 16.9 1.1 1.8 10.9 1.9 13.1 7.4l4.8 25c.3 1.1 2.2 1.2 2.9 2.3 3.6 5.6.2 35.3-.9 43.4-6.1-5.8-9.5-24.4-15-29.5-1.3-1.2-5-2.7-6.9-3.1l3 12.5-31-6c2.7-12.5 4.3-20.4-11-22-.8 4.4 1.1 12.7 0 16.5Zm-18.1 210.6c-2.5-1.5-4.3 2.9-6.4 2.9-2.3 0-6.2-7.7-9.1-2-1.1 2.2 2.7 4.5 3.3 6.7 2.3 8.6-7.1 12.5-7.3 20.2 21.9 21.6 42.8 47 66.5 66.5.9.8 6.3 5.2 7 4.5 0-3.8-1.4-7.5-2.3-11.2-1.5-5.9-5.2-21.7-7.9-26.1-4-6.8-15.2-17.8-20.7-25.3-5.1-6.9-9.9-14.2-14.6-21.4-1.4-2.2-8-14.4-8.7-14.8Z" class="shading" data-original-prefix="shading" opacity=".2"/><path id="outline-ear-lft" class="outline"  fill="#000" d="M805 969c-1 4.2-9.1 7.7-13 9.5-10.8 5-38.1 16.1-49 17.1-3 .3-21.2-3.2-23.6-4.5-5.2-3-26.4-26.9-32-33-5.2-5.8-27.3-30.2-28.4-35.6-.9-4.3-.4-16.8-2-19l-26.8-14.7c-9.4-13.7-18.7-39.5-29.3-51.2-4.2-4.6-28.2-14.2-35.7-18.3-76.8-42.5-123.8-96.3-162.9-174.1-2.2-4.4-9.6-18-10.3-21.8-1.3-6.8 7.3-14 4.4-23.3-.7-2.3-6.9-8-9-10-3.3-3.1-11.3-8.2-13.4-11.6-4.3-7-9-29.3-10.8-38.2-3.4-16.7-7.2-39.9-6.3-56.7 1.2-23.3.8-41.3-3.3-64.7-.8-4.6-6.2-24.5-5.2-26.8 1.1-2.4 6-5 5.5-9.5-.3-3.1-10.1-11.3-12.2-14.8-3.9-6.6-6.1-16.9-10.3-24.7-6.3-11.9-13.3-15.5-15.4-29.6-3.9-26.6-5.8-66.7-5.8-93.7 0-7.3 1.6-46.2 6.3-49.8 2-1.5 9.4 1.1 12.1 1.8 70 20 155.2 61.5 217.1 99.9 4.9 3.1 28.8 17.4 30.3 20.7 1.6 3.5 3.2 16.1 6.7 18.2 5.9 3.6 22.2-6.7 29 1.1 37.1 34.2 81 66.8 114.6 104.4 27 30.2 49.1 67.9 73.9 100.1 3.2 23.4 2.7 47.6 4.6 71.4.7 9 4.2 21.8 4 30 0 5.2-8.5 14.2-6.8 19.7 1.2 4.2 6.7 6.1 8.8 8.3 2.6 2.8 4.3 24 5.4 29.6 4.3 22.4 13.9 55 25.7 74.3 6 9.9 15 18.3 19.9 28.1 6.1 12.4 10.4 26.9 16.3 39.7 8.3 18.1 20.9 33.9 21.8 54.2.1 3 .5 7.8-.5 10.5-10.9 12.7-18.4 31.3-29.5 43.5-5.6 6.2-15 10.5-22 14.5h-2s-.9-.4-1-1c13.7-19.8 31.3-39.5 26.8-66.3-1-5.6-12.7-36.1-15.6-42.4-5.6-12.2-14.8-25.3-21-38-11-22.2-25.3-51.4-33.9-74.1-5.7-14.9-4.5-29.3-6.2-44.8-.7-6.3-3.8-20.8-8.3-25.2-1.7-1.7-10-3.9-12.7-5.3v15.5c0 .7-.8 3.6-2.5 3.6-4.4-.1-9.8-3.9-14.4-4.2-1.4-1.6 2.9-18.3.4-21.9-.6-.9-19-7.7-21.1-8-2-.3-1.3 0-1.5 1.5-.9 6.8-1.1 13.7-1 20.5l-18-3 2-25-21-4v24l-17.9-4.1-.2-22.8-16.9-2c4.7 25.4 8.6 50.4 23.2 72.3 7.3 11 17.5 19.1 24.6 29.4 37.1 53.6 56.5 116.8 93.4 170.6 3.5 5.1 16.1 19.8 16.8 24.2-1.5 8.2 4.7 24.8.5 31.4-1.2 1.9-5.5 5.8-7.4 7.6-2.2 2-18.3 15.1-20 13.5 1.4-6.6 5.4-12.5 5.6-19.3 1.1-32.7-36.3-97-53.5-126.3-1.9-3.2-15.2-25.4-16.7-25.3-1.4 2.6-6.8 7.9-6.6 10.4.4 4.4 11.5 8.8 11.1 13-.1 1.5-8 13.9-9.5 13.5-2-.5-9.8-11.5-12-11-1.5 3-9.6 13.7-8.1 16s11.9 7.9 12.4 10.6l-8.3 16.3c-2.5-2.3-10.7-11.6-13.9-11l-6.2 12c-.3 2 11.9 8.8 13.5 11.7l-6.9 16.3c-3.1-.9-12.7-11.6-15-10-.6.4-4.8 13.4-4.8 14.5 0 2.3 3.7 22.8 4.5 25.4 1.4 4.5 24.3 25.5 29.4 29.6 12.2 9.7 31.8 22.9 46.6 27.4 14.4 4.3 36.2-2.2 50.3-6.8ZM543.2 313.1c3.3-2 15.4 11.6 19.3 12.9 3.9-.8-1.1-15.9-2.9-18-36.7-23-73.3-46.1-111.5-66.5-38.6-20.6-78.2-40-120-53.5-2.6 32.2.3 64.5 5.1 96.4 1.8 11.4 3.5 27.6 8.3 37.7 2.5 5.2 6.5 10.4 9.2 15.8 3 6 5.2 14.5 8.2 19.8.7 1.2 11.2 11.6 12.1 12 3.5 1.6 14.2-1.9 19-.5l-2-12 18-1 1.9 10.4c1.2 1.8 15.8-2.2 19.1-1.4l-3-11c2.8-.2 16.7-3.2 18-2 .3.3.8 8.6 2.7 9s14.7-1.8 14.3-4.5c-.2-1.6-16.9-21.8-19.4-24.6-18.9-20.9-41.7-37.5-65-53l-22.5-39c13 3.4 21.1 15.6 32.1 22.4 6.3 3.9 13.5 6 19.4 10.6 43.8 41.5 80.5 75.3 110.7 128.3 1.1 1.9 3.6 9.9 4.9 5.3 0-6.8 12.4-28.8 11.9-33.1s-18.1-14.3-16.9-18.8c.3-1.3 8.8-11.9 10.2-11.6 1 .2 11.8 11.3 14.1 12.9.8.6 1 1.4 2.5 1l10.1-17.4-16-13.2c1.3-1.8 7.4-12.8 8-13.2ZM679 589v-15c2.5 1.1 16.2 3.1 16.9 4.1 1.5 2.4-2 11.7 1.8 13.7 1.2.6 20.5 5 21.3 4.2v-12c2.3.6 16.3 3.4 16.9 4.1 1 1.2-1 11.6.6 14 .7 1 19.5 7.1 22.5 8v-15l15.9 4.1c1.1 3.5-1 16.6.3 18.7.3.4 8.8 4.2 9.2 4.1 4.3-1 4.7-12.9 4.6-16.4-.5-12.2-2.7-24.8-4-37-1.9-18.2-1.7-39.9-12.2-55.8-13.3-20.2-35.2-45.9-50.8-65.1-25.1-30.9-50.5-58.4-81.5-83.5-6.3-5.1-39.9-31.4-44.9-32.1-9.5-1.3-11.1.7-16.5 7.5 2.5 3.1 20.6 15.1 20.9 17.1s-10.7 10.7-13.2 12.2c-2.6-.2-13.1-11.9-17.2-13.9-1.2-.6-.6-1.2-2 0-1 .8-10.6 16.5-10.5 17.5 2.4 1.9 15.4 11.6 15 13.9-2 1.3-8.7 12.6-9.5 12.7-3.4.5-9.3-7.3-11.9-9.1-1.1-.7-.7-1.6-2 0-3.5 4.3-10.5 29.4-12 36-8.3 36.7-15.9 94.1-10.2 131.2 3.7 24.3 24.5 84.2 45.4 97.6 8 5.1 16.2 6.2 20.5-4.1 3.9-9.4 5.6-24.9 8.5-35.5 2-7.3 8-28.2 11.4-33.6s36.5-23.7 44.2-27.8c1.6-.8 12.1-6.4 12.7-5.8-2.9 13.5-11.6 25.8-10 40 6.7-.1 13.4-.2 20 1Zm-242-9h18c1.8 4.8 1.4 14.3 3.2 18.3.6 1.3.8 1.6 2.3 1.7 8-1.8 16.5-.6 24.1-4l-2.6-19 17.1-1.6L502 590c2.9-1.8 12.6-5.5 13-8.5s-5.1-12.9-6.9-16.1c-5-9.4-11.9-18.4-18.1-27 1.8-4.6 4.9-8.7 6.9-13.8 14.5-37 1.3-96.9-16.5-131.6-1-1.9-6.5-12.5-7-13-.7-.6-1-.9-2-1-4-.5-16.4 4.8-21.5 5.1l2 12.3c-.4 1.9-14.4 2.3-17 2.6l-2.6-12c-3.5 1.7-16.5 1.1-18.5 2.5-2.5 1.7 1 8.7 0 11.6-3.3-.2-13.6 2.4-15.9.9-1.1-.7-1.5-8.4-2.6-9.9-1-1.4-17.5-1.5-19.8-.8-1.6.5-5.5 4.7-5.7 6.4 2.5 15.4 6.6 30.4 8 46 3 32.6 1.1 54.6 9.3 87.7 4.3 17.3 11 50.8 26.8 60.2 3.3 2 21.5 6.4 25.5 6.5 1.6 0 1.6.4 1.3-1.3-1-5.6-2.6-11.2-3.8-16.7Zm88 26c-2.8 1.5-17.4 8.3-17.9 9.7l3.5 25.4c-1.1 1.5-15.9 3.8-17.7 2.5-2.5-1.8-2-23.2-4.6-23.7l-25.4 3.1c-1.2 4.2 4.2 20.8 2.6 23.1-1.5 2-15.3.9-18.5-.2l-2.1-22.9c-6 1.7-17.4-2.2-22.3-1-1.1.3-1.7 3.5-1.7 4.6 0 5.6 13.8 27.3 17.6 33.4 24.3 38.7 60.1 84.3 97.7 110.3 12.7 8.8 92.4 51 94.5 58.5.7 2.5.1 5.8.9 9.1 1.6 6.8 9 25.1 12.5 31.5 2.1 3.9 3.4 7.9 8.8 7.7-.6-4.4 5.7-11.7 4.9-15.3-.5-2.1-12.1-10-14.7-11.9-1.2-2.1 4.5-12.2 5.9-14.2 4-5.5 13.6 10.7 17.8 8.2.6-.4 6.3-11.8 6.2-13.3-.3-2.7-10.9-9.1-12.6-12.6-1.2-2.3 6.4-12.6 8.1-15 1.2-.3 10.1 8.8 11.9 10 1 .7 1.1 1.5 2.6.5 1-.6 8-12.7 8-14.1 0-3.4-9.9-8-11.5-11.5-1.7-3.8 6.4-11.4 8-15 2.7.7 12.9 12.2 14.5 11 .2-4.6 10.8-14.6 9.9-18.3-14.9-20.2-30-40.5-48.3-57.7-2.2-25.1-4.9-55.6-16.5-78.5-5.7-11.2-11.6-13.3-21-3.7-27.5 28.3-20.1 73.5-3.5 105.2.7 1.3 4.6 5.5 1 5-2.6-.4-11.2-5.3-14.2-6.8-22.8-12.2-43.3-26.9-61.6-44.9-1-1-3-1-4.2-2.3-2.5-2.8-8.9-41.6-10.8-49.2-2.3-9-5.8-17.7-7.7-26.8Z" class="outline" data-original-prefix="outline"/></g><g id="07_Head" data-trait="alien"><path id="fill-head2" class="fill"  fill="#fff" d="M944.7 496.2c14.6-2.3 25.4 2.3 31.7 15.8 10.5 22.5.3 42.1-19.2 54.8-4 2.6-16.8 7.1-18.2 8.8-4.2 5.1-8.8 24-9.2 30.8-1.9 34.2 29.7 68.6 42 99.1 1.9 29.3-28.4 66.9-21.5 95.5 1.8 7.3 20.1 43.1 25.6 46.4 2.3 1.4 5 1 6.9 3.1 2.4 2.8 11.6 24.5 13.6 29.4 1.4 3.5 6.2 14.8 6.3 17.6 0 1-5.5 13.4-6.5 15-7.1 11.2-30.3 14.6-41.2 6.8-10-17.1-21-33.6-31.5-50.5-9-14.4-21.9-47.4-23.4-64.6-2.4-27 16.9-60.8 21.7-88.3 3.6-20.8-5.1-29.3-12.2-47.2-12.8-32.3-23.8-62.5-10-97 2.7-6.8 10.8-17.3 12-23 1.4-6.6.3-15.4 1.7-22.3 2.9-13.9 17-27.9 31.4-30.2" class="fill" data-original-prefix="fill"/><path id="fill-head1" class="fill"  fill="#fff" d="M1088.7 496.2c20.2-4.1 42.6 11.2 46 31.5 1.1 6.6.2 16.1 1.7 22.3 1.8 7 11 18.1 14 28 14 45.7-8.6 74-22.3 113.8-11.9 34.8 22.8 76.3 19.7 111.7-1 11.2-6.9 27.5-10.7 38.3-7.6 21.4-15.7 31.8-27.7 50.3-4.1 6.4-12.3 23.2-16.5 27.5-2.5 2.6-12.8 4.6-16.6 4.5-5.7-.2-16.5-3.6-21-7.1-2.8-2.1-10.4-16.4-10.3-19.2.2-4.2 8.4-23.4 10.7-28.5 1.6-3.5 7.5-16.7 9.3-18.7s4.6-1.7 6.9-3.1c5.2-3.2 24-39.7 25.4-46.6 6.2-31.6-29.5-76.7-19.5-100.5 11.6-27.8 39.3-56.9 40.2-88.8.2-7.7-4.4-30.2-9.2-35.9-1.7-2-10.3-4.2-13.9-6.1-11.1-5.7-25.5-20.8-27.5-33.5-2.1-14 5.9-36.7 21.3-39.9" class="fill" data-original-prefix="fill"/><path id="outline-shading-head2" class="outline"  fill="#000" d="M1067 922c-.8.9-12.2-4.9-13.7-6.3s-7.5-14.7-7.9-16.6c-1-4.4 12.9-35.3 16.1-41 .8-1.4 4.3-8.5 4.7-8.8.9-.6 3.5-.4 5.7-1.8 4.9-3 23-37.6 24.8-44.2 8.5-31.3-22.8-66.9-20.7-98.7 12.3-29.5 42.7-63 42-96.1-.2-6.7-5.3-31-10.7-34.3-2.4-1.5-7.6-2.3-11-4-12.6-6.3-27.7-21.1-29.2-35.8-.9-8.5 2.3-22.7 8.9-28.4-8.4 44.4 61.4 63.5 51 6 13.4 13.4 8.1 33.7-5.8 44.6 17.3 40.6 16.9 79.8-8.3 116.7-2.5 3.7-17.6 21.5-17.8 23.2-.5 3.7 5.4 19.4 7 24 5.6 16.2 21.9 49.6 22 65 .1 23.2-34.2 78.3-46.8 100.2-1.4 2.5-10.2 14.9-10.2 15.8z" class="shading" data-original-prefix="shading" opacity=".2"/><path id="outline-shading-head1" class="outline"  fill="#000" d="M920 531.5c1 6.2 9.5 15 15.7 16.3 20.5 4.2 42.3-22 36.3-41.8 17.5 21.4 6.8 46.3-14.1 60.4-4.1 2.8-17.4 7.5-18.8 9.2-4.2 5.1-8.6 23.2-9.1 29.9-2.5 35 27.7 65.1 40.2 94.8 10.2 24.4-27.1 70.5-19.7 100.7 1.8 7.6 20.3 43.7 26.2 46.8 1.9 1 4.5.7 5.5 1.8 1.4 1.5 9.6 19.3 11.1 22.7 1.9 4.4 9.5 21.9 9.6 25.3 0 1.4-6 14.7-7.2 16.4-3.3 4.4-10.3 7-15.5 8-1-5.2 1.1-10.6 1.1-15.5 0-7.1-12.2-23.6-16.3-30.8-11.3-20-41.2-68.8-40.9-90.2.3-17.2 18.1-52.8 24.1-71 1.2-3.8 5.1-13.9 5-17.1s-9.9-13.1-12.5-16.6c-11.8-16-21.1-31.7-24.3-51.7-4.1-26.2.9-48.4 10.3-72.7-13.9-11.2-18.6-30.2-6.2-44.5 1.7 1-.5 3.8-.5 4.5 0 4.5-.7 11.2 0 15.1" class="shading" data-original-prefix="shading" opacity=".2"/><path id="outline-head2" class="outline"  fill="#000" d="M965 922c-2.4 1.7-9.2-.7-11.8-1.7-13-5.1-32-36.1-39-49-9.2-16.8-32.7-71.1-29.9-88.6 1.3-8.1 7.8-23.7 10.7-32.3 3.9-11.3 14.7-34 14.1-45-.5-8.7-19.3-38.2-23.8-49.3-13-31.9-9.9-61.2 6.6-90.9 1.7-3 9.9-14.4 10.2-15.9.6-3.5-2.5-9.9-2.9-14.1-3.6-34.7 33.7-55.8 64.1-45.1 25.6 9 36.7 38.7 25.6 63.1-7.1 15.7-28.4 30.3-45.8 23.6-14.4 35.4 1.8 69.4 26.5 95 4 4.2 18 14.2 18.5 19.6-8.2 30.9-19.7 60.9-27 92 3.5 24 12.1 47.1 23.9 68.1 4.7 8.4 21.6 30.5 22.1 38 .7 10.8-5.5 26-15.4 31.4-4.4 2.4-4.8.8-6.5 1 3.6-7.6 7.6-13.6 4.8-22.3-3.1-9.3-18.5-29.1-24.3-39.7-12.8-23.5-22.4-48.8-32.5-73.5 2-29.7 18.5-54.6 28.5-81.5.8-2 2.2-5.3 2.2-7.3-.1-6.7-10.4-14.8-14.7-20.2-23.9-30.3-38.6-66.1-22.2-104.2 1-2.3 5.7-11.9 7.2-12.9 1.2-.7 11 .9 14.4.4 24.6-3.2 33.7-29.4 16.1-47.9-22.2-23.3-60.9 2-45.3 30.3 1.2 2.1 5.8 6.9 5.8 8.2 0 1-9 13.7-10.5 16.5-21 38.7-17.7 63.1 3.3 100.7 4.8 8.5 19.9 27.7 20.2 35.9.3 8.8-9.7 29.5-13 38.9-4.2 11.8-12.5 31-14.5 42.5s10.9 45.8 15.5 58.6c8.1 23.1 21.8 60.3 38.8 77.6" class="outline" data-original-prefix="outline"/><path id="outline-head1" class="outline"  fill="#000" d="M1083 922c17-17.3 30.7-54.5 39-77.5 4.6-12.8 17.7-46.8 15.5-58.6s-10.4-30.6-14.5-42.5c-3.3-9.4-13.4-30.1-13.1-38.9.3-8.2 15.4-27.3 20.2-35.9 21.1-37.5 24.4-62 3.3-100.7-1.6-2.9-10.3-14.8-10.4-15.7-.3-2.4 4.2-6.2 5.7-9 15.5-28.3-23.2-53.6-45.3-30.3-17.6 18.5-8.5 44.7 16.1 47.9 3.4.5 13.2-1.2 14.4-.4 1.5.9 6.2 10.6 7.2 12.9 16.4 38 1.7 73.9-22.2 104.2-4.3 5.4-14.6 13.5-14.7 20.2 0 2 1.4 5.3 2.2 7.3 10.1 26.9 26.5 51.8 28.6 81.5-10.1 24.8-19.8 50-32.6 73.5-5.8 10.6-21.2 30.4-24.3 39.7-2.9 8.6 1.2 14.7 4.8 22.3-.2 0-1.2.8-2.3.7-12.6-1.2-20.7-23.2-19.6-34.1.7-6.4 14.7-24.4 18.8-31.3 13.3-22.7 23.6-47.5 27.2-73.8-7.3-31-18.8-61.1-27-92 .5-5.4 14.5-15.4 18.5-19.6 24.6-25.7 40.8-59.6 26.4-95-17.5 6.7-38.7-7.9-45.8-23.6-11.1-24.5 0-54.1 25.6-63.1 30.4-10.7 67.7 10.5 64.1 45.1-.4 4.2-3.5 10.6-2.9 14.1.2 1.5 8.5 12.9 10.2 15.9 16.5 29.8 19.6 59.1 6.6 90.9-4.5 11.1-23.3 40.5-23.8 49.3-.6 10.9 10.2 33.6 14.1 45 2.9 8.6 9.5 24.2 10.7 32.3 2.5 16.1-17.3 62.5-25 78.5-6.4 13.1-28.3 50.5-40.1 57-3.6 1.9-11.7 5.9-15.6 3.7" class="outline" data-original-prefix="outline"/></g></svg>