<?xml version="1.0" encoding="UTF-8"?>
<?xml-stylesheet type="text/css" href="styles/collection.css"?>
<svg xmlns="http://www.w3.org/2000/svg" viewBox="0 0 2048 2048"><g id="01_background" data-trait="yellow"><path id="bg" d="M2048,0v2048H0V0h2048Z" style="fill: #ddb305;"/></g><g id="02_Jaw" data-trait="headphones"><defs>
    
  </defs>
  <path id="fill-jaw" class="fill"  class="st2" d="M1373,1278c10.5.4,29.1-5.9,35.2,5.3,10.7,19.6,15.9,50.4,25.7,71.3,3,11.9-8.8,18.7-13,27.9-.4.8-1.4,1.4-.5,2.6l79.1,40c2.3,3.8-3.6,14.2-1,19l36.2,79.6-11.5,32.7c5.5,8.9,13.4,16.8,17.8,26.1l-19.9,52.2,18.3,22.3v5l-61.4,99.3c-2.5,2.2-23.2-.7-28.1,1.2l-61.7,62.3c-16.4-2.9-31.7,11.1-47.8,14.2-20.1-2.5-44.6-14.1-64.1-15.9-10.5-1-30.4,5.3-39.3,2.3l-90-57.5,21.9-62.5c0-1.6-1.2-2-2.3-2.7-7.1-4.6-19-6.8-26.5-11.6l-4.2.3-89.9,35.1c-15.1,1.2-30.2,3.6-45.3,3.2l-100.2-35.8c-2,0-18,7.8-19.9,9.2-.9.7-1.7,1.1-1.7,2.4l16.9,58.3-.8,2.7-83,59.1c-5.8,1.8-14-4.8-20.5-3.6l-87,18.1c-2.7-.5-3.8-5.4-8-7-11.3-4.3-28.3-3.2-40-8l-58.5-66.5c-4.8-2.2-15.4,5.2-20.8,5.4l-69-103.7.3-3.2c2.8-4.1,19.4-20.2,19.5-23.5l-22-52.1c-.4-5.6,17.6-24.2,18-30,.3-5.4-11.4-19.6-9.8-26.7l40.1-104.5,64.6-33.4c1.9-3-12.3-33-10.7-39.1l34.7-65.1c10.3-3,21.4-3.8,32.1-5.7l-23.7-60.3c5.6-16,11.2-32,17-47.9,7.9-21.7,16.5-47.6,27.2-67.8,53.7-101.2,185.9-162.6,293.5-185.5,35.9-7.6,63.7-2.7,98.4,6.5,100.4,26.7,224,89.8,269.8,188.2,7.8,16.7,8.9,28,13.3,44.7,2,7.7,14.7,26.3,19.1,34.9,2,3.9,7.2,12.8,7.5,16.5.5,5.7-7.6,35.3-10,42-3.7,10.1-10.8,19.3-14,29.5v.2h0Z"/>
  <path id="fill-jaw1" class="fill"  class="st2" d="M633.3,1439.3c-6.9,9.3-7.1,20.4-1.8,30.6,11.3,21.3,32.2,49,46.2,69.8,45.6,67.8,94.8,132.8,149.2,193.8,13.2,10.1,26.6-2.7,28.8-16.3,3.7-22.9-25.9-58.5-35.7-78.8-.8-4.2,2.4-17.5,4.7-21.2.5-.8.8-2.8,2.2-1.3.7.7,3.6,14.5,7.6,18.9,3,3.4,8.2,4.1,9.5,5.8,3.8,4.6,13.5,27,16.8,33.9,9,19.1,25.7,53.6,27.2,73.8.9,11.9-.8,14.4-8.1,23-14.7,17.3-47.5,38.8-70.5,40.5-10.1.8-13.3-3.5-20.5-9.5-62.4-51.2-122.3-130.8-164.4-199.6-24.2-39.6-64.6-113.9-68.5-159.6-.6-7.4-1.5-12.5,3.8-17.9,15-15.1,41-26.4,61.4-31.3,5.1,1.2,16.7,35.2,15.6,41.3-.5,3-2.7,2.6-3.7,3.9l.2.2Z"/>
  <path id="fill-jaw2" class="fill"  class="st2" d="M1213.7,1635.7c5.1-5.1,6-14.3,8.8-20.7,4.6,6.1,6.2,14.9,6.3,22.3-9.9,20.1-39.1,55.6-36.8,78.2,1.2,11.9,10.8,24.5,24,21,5.4-1.4,17.2-16.5,21.5-21.5,66.6-77.1,124.4-160.8,179.7-246.3,3.9-7.6,3.9-17,.4-24.7-1.3-2.9-6.3-7-6.3-8.2,0-4.6,4-17.4,5.8-22.2,1.4-3.8,7.1-17.8,10.5-18.5,9-1.7,39.9,15,48.2,20.8,4.2,2.9,15.5,11,16.2,15.8,2.2,14.1-6.8,42.2-11.7,56.2-35.2,102.4-137.6,246-221.3,314.7-6.8,5.6-10.2,10-19.6,9.5-19.6-1-47.1-17.5-61.5-30.5-4-3.6-16.7-16.6-17.8-21.2-3.8-17.2,10.6-48.8,17.6-65,3.7-8.4,22.6-51,27.2-54.8,2.2-1.8,6.5-2.7,8.6-4.9h.2Z"/>
  <path id="fill-jaw3" class="fill"  class="st2" d="M765,1818c-12.7,3.6-25.1,8.6-38,11.5-5.6,1.3-14,4.1-19,.9-64-61.2-119.5-138.6-156.9-219.1-10.1-21.7-30.2-68.4-26.7-91.4,2.5-16.7,12.8-35.6,17.6-51.9l12.2,36.2c40.7,100,105.4,197.4,177.2,277.8,8.7,9.8,26.1,24.2,32.5,33.5.6.8,1.4,1,1,2.5h.1Z"/>
  <path id="fill-jaw4" class="fill"  class="st2" d="M1283,1818c-.4-1.5.4-1.7,1-2.5,6.5-9.3,23.8-23.7,32.5-33.5,71.9-80.4,136.5-177.8,177.2-277.8l12.2-36.2c4.7,16.4,15,35.2,17.6,51.9,3.5,23-16.6,69.7-26.7,91.4-37.4,80.5-92.9,157.9-156.9,219.1-4.9,3.1-13.4.3-19-.9-12.9-2.9-25.3-7.9-38-11.5h.1Z"/>
  <path id="fill-jaw5" class="fill"  class="st2" d="M692.7,1454.6c.2,0,.6-3.3,2.3-1.6.7.7,2.8,16.2,3,18.5.8,11.3-2.3,39.3,1.5,47.6,1,2.3,9.7,13.2,11.6,14.3,5.2,3,7.5.4,12.4.6,35,1.2,30.9,51,40.4,72.7,4.6,10.5,40,56.8,49.9,59.1,1.1.3,2.2.3,3.3.2v-7c1.6.8,3.4,2.6,4.4,4.1,3.9,5.6,13,23.4,15.1,29.9,2.5,7.9,6.9,26.8-7.3,22.3-8.6-2.7-27.2-27.4-33.6-35.4-28.5-36-56.8-75.1-83.4-112.6-18.6-26.2-41.5-56.4-56.4-84.6-3.5-6.6-11.8-22.5-3.8-28.1,5.7-4,11.9,1.8,17.4,3.5,9.7,3.1,14.7,1.8,23.2-3.4h0Z"/>
  <path id="fill-jaw6" class="fill"  class="st2" d="M1356,1453s-.4,1.3,1.2,2.3c8.1,4.8,13.3,5.6,22.3,2.7,5.3-1.7,11.2-7.2,16.4-3.5,8,5.7-.3,21.6-3.8,28.1-14.9,28.2-37.7,58.4-56.4,84.6-26.6,37.5-54.9,76.6-83.4,112.6-6.4,8-24.9,32.7-33.6,35.4-4.6,1.4-9.2.4-9.9-4.8-2.3-16.9,12.8-37.1,20.1-51.5,4.5-1.2-.3,7.2,3.5,7,3.3-.2,8.9-5.1,11.5-7.5,9.9-9.3,35.9-40.2,41.2-51.8,4.4-9.7,5.2-26.7,8.3-37.7,4.6-16.4,12.4-34.4,32.1-35,4.8-.2,7.2,2.4,12.4-.6,1.8-1.1,10.3-11.6,11.3-13.7,4.3-9,.9-37.2,1.8-49.2.2-3.1,1.9-14.7,3-16.9.5-1,1.5-.9,2-.6h0Z"/>
  <path id="fill-jaw7" class="fill"  class="st2" d="M668.3,1813.7c1.2,1.3,4.2,1.7,3.6,4.3-11.8,2.6-22.5-6.2-30.5-13.9-47-45-85.8-115.1-111.6-174.4-4.2-9.6-9.4-20.7-12.6-30.4-3.7-11.4-6.2-20.8,3.2-30.2,17,38.9,33,78.5,53,116,25.2,47.2,59.3,88.9,94.9,128.6"/>
  <path id="fill-jaw8" class="fill"  class="st2" d="M1376,1818c-.4-1.8.6-2,1.6-3,23.2-23.3,49.4-55.6,68.2-82.7,34.9-50.1,57.3-107.7,81.7-163.3,9.5,9.5,6.9,18.8,3.2,30.2-5.4,16.7-15.3,37-22.9,53.1-24.4,51.7-59.5,111.3-100.8,151.2-8.1,7.9-19,17.1-31,14.4h0Z"/>
  <path id="fill-jaw9" class="fill"  class="st2" d="M586,1754c-8.8,4.2-11.8-.9-17.5-7-13.2-14.2-48.5-65.3-49.5-83.5-.4-6.5,3.1-11.1,7.5-15.4l25.3,49.7,34.2,56.3h0Z"/>
  <path id="fill-jaw10" class="fill"  class="st2" d="M1462,1754l34.2-56.3,25.3-49.7c4.4,4.4,7.9,9,7.5,15.4-1,18.2-36.3,69.3-49.5,83.5-5.7,6.1-8.7,11.2-17.5,7h0Z"/>
  <path id="fill-jaw11" class="fill"  class="st2" d="M853,1643c23.4,1.8,23.6,24.4,32.8,40.7.8,3.2-7.7,7.2-9.3,5.3l-23.5-46Z"/>
  <path id="fill-jaw12" class="fill"  class="st2" d="M1194,1644l-22,46c-4.7-1.2-10.2-1.5-8.5-7s10.2-25.6,13.1-29.9c3.8-5.7,10.7-8.8,17.4-9.1"/>
  <path id="outline-shading-jaw" class="outline"  class="st1" d="M1380.8,1185.8c-.2.4-2.1.7-2.8,1.7-8.6,10.8-16.2,26-21,39-4.2,11.4-5.1,22.7-13,32-11.3,13.5-31,29.3-45.7,39.3-15.8,10.7-32,18-49.3,25.7,7.1.9,14.3.5,21.5.5,23.3,0,41.9-6.8,62.9-17.1,15.5-7.6,25.1-16.9,35.2-30.7l21.4,3.8c-4.2,14-3.4,28.4-18.5,35-23.4,10.3-52.3,12.2-75.8,25.2-1.8,1-5.5,4.4-6.4,4.7-1.8.4-30-9.3-35.1-10.6-25.9-6.6-37.1-9.7-23.1,21.1,5.3,11.7,19.9,38.8,29.8,46.2,12.3,9.1,22.9-9.5,30.5-16.5,6.2-5.9,17.1-12.2,25.3-14.7,16.8-5,32.3,4.9,49.7,5.7,17.6.8,34.4-7.6,48.8-17.2,3.6-2.4,14.6-13.9,17.2-13.8,3.3.2,2,7.1,1.3,9.2-5.4,16.2-16.1,32.7-21.4,49.2,10.4,8.1,27.3,20.2,27.5,35,.2,17.8-26.4,60-36.4,76.4-39.8,65.4-86.5,126.3-133.5,186.6,14,16.5,38.6,26.1,60,20,7.6-2.1,12.1-7.4,19-9.5-2.6,20.2-3.1,27.7,16.8,34.7,21.1,7.5,45.8,7.9,64-6.5l21.3-16.2-22,44.5,8,2.5c.2,1.1,0,1.9-.5,2.9-6.5,16.2-30.2,41.1-45.5,49.5-5.7,3.1-46.1,12.9-52.4,12.6l-84.3-18.7-15.5,3.5-71-30c-1.3-.4-1.8-1.4-2.6-2.4-2-2.6-13.5-23.8-14.4-26.6s-1.1-5.3-.8-8.2l24-61.5c-15.6,0-31.3-2.2-46.8-2.8-3,4.8-9.3,10.4-14.2,13.3-8.6,5.1-53.1,24.7-61.5,25.5-18.7,1.7-40.6-1-59.6-.5-17.3-8.6-39-15.2-55.8-24.2-6.6-3.5-10.2-10.9-16.6-14.4-15.1,1.1-30.3,2.9-45.5,3l23.3,59.2c1.1,3.4,1.1,7.1,0,10.5-.9,2.5-14.6,27.1-15.9,28.1l-72.1,30.9-15.5-3.6c-25.8,4.6-51.9,13.1-77.6,17.4-3.8.6-6.7,1.6-10.7,1.3-6.5-.4-39-8.3-45.2-10.8-7.3-3-27-19.4-32.3-25.7-2.9-3.4-15.8-22.7-16.8-26.2-.2-.8-.3-1.5-.2-2.3l8-2.5-23-46.5,18.7,15.8c19.2,17.3,52.4,17.8,74.6,6,15.5-8.2,9.7-18.1,9.7-32.8,23.9,20.9,59.5,13.2,78.9-9.6-42.1-53.6-83.6-108-120.3-165.4-14.8-23.2-36.2-55.1-45.3-80.7-7.2-20-3.9-28.9,11.8-42.8,2.3-2.1,10.8-6.9,11-9,.2-1.7-1-3.8-1.6-5.5-4.8-13.7-16.7-32.1-20-45-1.1-4.3-.6-8.4,4.5-6.5,4.7,1.8,9.6,8.8,14.8,12.3,25.4,16.9,38.3,19.8,68.5,13.9,5.4-1.1,13.6-4.6,18.3-4.7,11.5-.3,29.8,10.2,38,18,7,6.7,17.2,24.1,29,16.1,9.9-6.8,30-43.8,34.3-55.7,1.7-4.7,5.2-14.8-2.3-16.2-8.2-1.6-30.5,5.9-39.5,8.5-3.9,1.1-17,6.5-19.5,6.4-1,0-13.7-8.2-17.2-9.7-16.2-6.7-62.8-15.6-72.7-24.3-7.9-6.8-7-18.7-11.5-27.5,0-1.4.7-1.7,1.7-2.2,1.5-.8,18.7-5.3,19.7-5.1,14,22.3,36.7,32.7,60.6,41.3,16,5.8,21.6,6.6,38.4,6.5h20.5l-34-16.5c-15.7-8.8-60.2-41.6-66.8-57.2-2.5-5.8-3.6-13.7-5.9-20.1-6.1-16.9-14.4-32.5-25.3-46.8,1.3-9,6.5-19.6,7.8-28.2,2.8-19.1,3.8-27.8,12.1-45.9,42.8-94,156.1-156.3,251.2-184.8,49.9-15,102.4-18.1,153.2-5.2,102.2,25.9,235.9,97.2,274.5,201.5,5.1,13.9,5.1,20.8,7.5,34.5.8,4.8,8.8,28.4,7.6,30.6h-.2ZM1078,1327c-6.6-11.3-11.1-25.2-18.6-35.9-4.1-5.9-9.8-10.2-14.4-15.6-3.4-3.9-14.7-20-18-21-1.9-.6-4.4-.8-6.3-.2-2.4.7-15.8,18.7-18.7,22.3-4.5,5.4-9.5,9.1-13.8,15.2-7.4,10.5-12.7,23.7-18.2,35.3h108ZM728.3,1496.7c1.6,2,8.2,6.3,10.7,7.8,14.8,8.8,31.7,13.8,46.9,23.1,16.8,10.2,40.2,33.1,59.6,33.5,2.3,0,8.7-1.2,9.4-3.7.8-2.7-13.5-27.5-16.4-30.3-7.3-7.2-27.5-17.2-37.2-23.8-15.2-10.3-50.3-39.1-67.9-39.2-10.5,0-8.7,28.1-5.1,32.7h0ZM1319.7,1466.3c-5.9-5.9-24.1,4.1-30.4,7.6-16.2,8.9-31,21.4-46.2,31.8-12.7,8.7-30.1,15.7-38.6,28.4-2.2,3.4-10.8,17.7-11.4,20.7-1.1,5.3,6.2,6.5,10.3,6.3,16-.9,23.4-9.7,35.2-17.8,9.2-6.3,19.3-13.6,29-19,11.7-6.6,47.1-19.2,52.7-29.3,2.4-4.3,2.8-25.2-.7-28.6h0ZM1126,1664c-12-2.7-20.7,6.6-31.6,7.9-5.7.7-12.2-1.2-16.6-.7-7.1.8-22.9,12.1-31.2,14.9-14.8,4.9-30.2,4.7-45.1,0-8.8-2.8-23.9-14.1-31.2-14.9-4.4-.5-10.9,1.4-16.6.7-11-1.3-19.9-11-31.6-7.4,0,6.9,23.8,23.5,30,27,12.5,7.1,59.8,26.8,72.5,26.6s59.9-19.8,72.2-26.9c10.3-6,24.6-16.2,29.3-27.2h-.1Z"/>
  <path id="outline-shading-jaw1" class="outline"  class="st0" d="M1478,1737c3.9.4,7.2-2.1,10.3-4.2s11.4-11.1,13.2-11.8c3.7-1.6-1.6,7.2-2.1,7.9-3.6,5.7-19.8,26.3-24.9,29.1-6.3,3.5-11.9.9-18.5,0-.5-3.4,1.9-6.1,3.6-8.9,9.7-16.6,23.4-37.9,34.6-53.4.7-1,1.5-2.4,2.8-2.7-1.2,6.4-3.2,12.7-5.8,18.7-1.4,3.3-14.2,24.3-13.2,25.3"/>
  <path id="outline-shading-jaw2" class="outline"  class="st0" d="M592,1758c-7.2,1.1-12.2,3.5-19.2-.3-5-2.7-21.2-23.7-24.7-29.3-.5-.8-5.2-8.8-1.7-7.3,1.7.7,9.8,9.6,13.2,11.8,3.1,2.1,6.3,4.6,10.3,4.2-6.3-14.7-17.1-27.6-19-44l38.4,58.1,2.6,6.9h.1Z"/>
  <path id="outline-jaw" class="outline"  d="M681,1139c5.4-1,10.7-1.8,13.8,3.7-1.2,7.6,0,17.4-2,24.6-1.6,5.8-18,15.3-21,22-1.2,2.6-6.4,25.9-6.7,29.3-.2,1.7,0,2.8.4,4.4,2.2,7.2,14.4,20.5,18.4,28.6,5.2,10.5,6.7,23.5,11.3,33.7,5,11.1,15.6,11.8,25.1,16.9,7.5,4,16,10.6,22.7,15.8-3.1,0-6.3.3-9.4,0-8.2-1-26.7-5-34.4-7.6-2.1-.7-9.4-4-10.7-5.3-3.1-3.3-6.1-15.8-9.5-17.4-2.5-1.2-7,0-10.3-.7-6.7-1.2-9.9-7.8-17.5-1.5-6.6,12.4-14.3,24.3-20.4,37.1-7.4,15.4-14.8,25.1-4.8,41.2,5.2,8.4,23.4,27,25.6,34.4,2.5,8.6-2.7,28,2.9,34.1,6,6.6,20.6,4.5,27.8.8,10.6-5.4,8.7-9.9,14.3-18.7,5.3-8.3,20.9-24.3,30.4-26.7,7.7-1.9,12.3,10.3,14,16,3.6,11.6,3.2,28.2,9.1,37.9,10.7,17.3,45.3,33.7,65.3,34.7,9.3.4,15.2-5.5,21-12,3-3.3,13.4-19.9,14.5-20.5,1.8-1,4.3-.7,6.3-.3,6.1,1.3,31.8,27.4,38.7,33.3,29.5,25.3,59.4,44.7,98.7,50.3,60.9,8.7,105.3-6.9,151.3-45.3,11.4-9.5,21.6-20.6,33-30,4.3-3.6,12.1-11.6,18-8,1.1.7,11.4,17.1,14.5,20.5,12,13.2,17.2,13.9,34.7,9.7,15.2-3.7,44.3-19.1,52.6-32.4,5.1-8.2,5.1-21.6,7.5-31.5,1.7-6.7,6.2-24.7,15.7-22.4,10.7,2.6,27.2,21,32.6,30.4,1.7,3,2.2,6.8,3.9,9.1,6.4,8.6,29.4,13.6,36.5,4.5,4.8-6.2,0-25.2,2.4-33.6s20.4-25.8,26-35c9.4-15.7.8-28.4-6.5-43.3-5.8-11.7-13.3-22.7-19.2-34.3-7.1-5.6-12.2.4-18.5,1.5-2.9.5-6.9-.4-9.3.7-3,1.4-6.8,14.4-9.6,17.4-1.3,1.4-7.2,3.9-9.3,4.7-8,3-26.3,7-34.9,8.1-3.4.4-6.8.2-10.2.2,6.6-5.5,15.7-12,23.3-16.2,11.5-6.3,19.8-5.1,25.5-19.5,3.6-9.1,5-19.4,9.4-28.6,5.2-10.9,14.2-20.6,19.6-31.4.6-1.5.2-3,0-4.5-.6-4.4-5.6-25.6-7.2-28.8-3.5-6.8-19-16.2-20.3-20.7-.8-2.7-2.7-24.4-2-26.6,1.5-4.9,9.1-3.4,12.8-2.7,1.6.3,4.1,0,5.1,1.7,1.8,2.9,1.8,11.7,3.9,13.8,4.3,4.4,21.1,4.4,24.8,12.2,2.2,4.6,0,15.6.2,21.8.5,12.5,8.5,29.5,6.8,39.7-.7,4.2-13.9,26.4-17.1,30.9-1.5,2-12.2,12.4-10.6,13.9,7.4.6,18.3-14.1,23.5-14.1s9,8.6,11.3,11.8c14.6,19.9,29.3,46.5,36.9,70.1,1.2,3.8,4.5,12.8,2.8,16.2-.7,1.4-3.3,2.1-4.5,3.5-5,6-9.6,13-14,19.5,23.4,4.3,53.2,19.5,68,38.5,7.3,9.4,4.3,12.7,6.5,22.5,3.5,15.9,19.4,40.3,25.5,57.5,2.5,7,6.9,19.9,7.1,27,0,6-4.5,13-4.1,16.9s6.2,16.4,7.5,22.6c3,13.8,3.9,17.4-1.3,30.7-2,5.2-16.4,34.3-16,36.7,8.9,8.9,19.7,15,18.8,29.2-1,17.7-33.9,64-45.6,79.4-4.3,5.6-23.6,30.1-28.3,31.7-7.5,2.4-17.8-6.7-22.1-4.1-7.5,10.9-15.8,21.5-24.5,31.5-16.8,19.3-25.5,31.3-52.2,35.8-4.7.8-12.8.4-16.4,1.6-8.7,2.8-10.3,11.6-24.4,11.6s-49.3-7.9-58.8-14.2c-2.1-1.4-5.3-5.9-7.2-5.8-1.5,0-10.7,6.3-16.1,6.9-33.7,4-93.1-31.4-107.9-61.8-5.1-10.4-3.9-14.2-.5-24.6,4.8-14.4,12.7-27.7,18-41.9-5-.8-14.5-7.9-18.7-8.3-2.3-.2-34.8,17.4-40.8,19.8-18.6,7.5-44.8,14.4-64.5,18.5-11.3,2.3-15.7,2.3-27,0-36.4-7.4-71.7-19.8-104-38.1-3-.7-15.7,5.8-19.6,7.5-1.1.5-1.7-.7-1.4,1.6,5.8,13.5,13.4,27.1,18,41,3.4,10.4,4.6,14.2-.5,24.6-14.8,30.3-73.5,65.3-107,61.9-4.9-.5-16.9-7.1-17.8-6.9-1.4.3-4.4,4.4-6.4,5.7-9.7,6.5-46.9,14.3-58.8,14.2-14.1,0-15.7-8.9-24.4-11.6-7.3-2.3-20-1.5-29.5-4.5-17.1-5.4-34-26.7-45.5-40.5-6.4-7.7-12.3-15.8-18-24-4.9-3-15.5,8.3-24,3-2-1.3-5.7-5.5-7.6-7.4-8.4-8.9-17.6-21.2-24.9-31.1-10.5-14.3-36.3-51.6-39.2-67.8s8-22.5,18.4-32.7l-19.7-46.9c-.7-6.9.9-13.7,2.4-20.4,1.4-6.2,7.1-18.8,7.5-22.6.3-3.4-3.2-9-3.7-13.2-1-8.6,3.8-22.4,6.7-30.8,6.1-17.2,22-41.5,25.5-57.5,2-9.3-.8-12.9,6.1-21.9,14.5-19.3,45-34.8,68.4-39.1,1.1-1.2-8.5-13.6-10-15.5-3.5-4.4-8.3-5.6-8-12,.4-8.2,10.9-31.9,14.8-40.2,3.7-7.7,29.3-51.5,34.9-53.2,6.3-1.8,17.3,14.4,25.3,13.8,1.9-1.8-8.7-10.8-10-12.5-3.8-4.9-13.3-21.4-15.9-27.1-6.1-13.5,1.7-20.9,3.8-34,.5-3.2,1-8.6,1.2-11.8.2-6.5-2.4-17.4.6-22.3,3.3-5.3,21.2-7.6,24.1-10.5,2.7-2.7.9-10.5,3.2-14.1,1-1.6,3.5-1.4,5.1-1.7v-.2h0ZM633.3,1439.3c.9-1.2,3.1-.8,3.7-3.9,1.1-6.1-10.5-40.1-15.6-41.3-20.5,4.9-46.5,16.2-61.4,31.3-5.3,5.4-4.5,10.5-3.8,17.9,3.8,45.6,44.2,120,68.5,159.6,42.1,68.8,102,148.4,164.4,199.6,7.2,5.9,10.4,10.2,20.5,9.5,23-1.7,55.8-23.2,70.5-40.5,7.3-8.6,9-11.1,8.1-23-1.5-20.2-18.2-54.8-27.2-73.8-3.3-7-13-29.3-16.8-33.9-1.3-1.6-6.5-2.4-9.5-5.8-3.9-4.4-6.8-18.2-7.6-18.9-1.5-1.5-1.7.5-2.2,1.3-2.3,3.7-5.5,17-4.7,21.2,9.8,20.3,39.4,55.9,35.7,78.8-2.2,13.6-15.6,26.4-28.8,16.3-54.4-61-103.6-126.1-149.2-193.8-14-20.8-34.9-48.5-46.2-69.8-5.4-10.2-5.2-21.2,1.8-30.6l-.2-.2ZM1213.7,1635.7c-2.2,2.2-6.4,3.1-8.6,4.9-4.6,3.8-23.6,46.3-27.2,54.8-7,16.2-21.4,47.8-17.6,65,1,4.6,13.8,17.6,17.8,21.2,14.4,13,41.9,29.6,61.5,30.5,9.3.5,12.8-3.9,19.6-9.5,83.7-68.7,186.1-212.3,221.3-314.7,4.8-14,13.9-42.1,11.7-56.2-.8-4.8-12-12.8-16.2-15.8-8.3-5.8-39.2-22.5-48.2-20.8-3.5.7-9.2,14.7-10.5,18.5-1.8,4.8-5.8,17.7-5.8,22.2s5,5.3,6.3,8.2c3.5,7.7,3.6,17.1-.4,24.7-55.2,85.5-113,169.3-179.7,246.3-4.3,5-16.1,20.1-21.5,21.5-13.2,3.5-22.8-9.1-24-21-2.3-22.7,26.9-58.1,36.8-78.2,0-7.4-1.7-16.2-6.3-22.3-2.8,6.3-3.7,15.6-8.8,20.7h-.2ZM1249,1614.5c.5,5.3-.4,11.2,0,16.5,4.5-2.9,6.9-8.6,9.2-13.3,7.2-14.9,13.6-37.5,13.9-54.1,0-7.5-1.8-15.8-2-23.2,0-2.6,2.9-7.2,5-8.8,3.9-3.2,18.2-11.2,23.3-13.7,10.8-5.5,29.6-7.9,33-21,2.5-9.8.7-28.2,1.8-39.2,1-10.3,7.7-19.4,6.9-29.1-.6-6.2-5.2-16.1-9.4-20.6-1.5-1.6-8.7-7.2-10.5-5.9s-7.1,27.7-7.1,31.5,2.9,12.2,0,17.1c-1,1.8-14.9,11.5-17.8,13.2-13.5,8.5-30.5,17.7-44.6,25.4-9.2,5-19.2,9.5-28.4,14.7-3.1.5-6.8-3.6-10.8-3.9-11.7-.8-14.5,8.2-21.5,14.6-16.6,15.2-41.4,23.2-63.5,25.5-69.2,7.1-135.8,6.9-205,0-21.8-2.2-45.9-9.8-62.5-24.5-7.4-6.5-10.7-16.4-22.5-15.6-4,.3-7.4,4.3-10.5,3.7-12.5-7.1-25.7-12.8-38.3-19.8s-39.3-21.5-49.2-30.8c-6.9-6.6-2.4-12.5-2.5-20.4-.2-9.9-4.5-21.1-7.1-30.5-9.8,1.4-16.8,13.3-19.3,22.2-3.6,12.9,4.8,20.7,6.2,33.4s-2.5,31.6,2.7,42.3,22.8,13.3,32.7,18.3c4.5,2.3,19.2,10.6,22.6,13.4,1.8,1.5,2.7,3.4,3.6,5.4.2,9.9-2.1,19.6-1.6,29.6.8,16.7,8.6,44.3,17.5,58.5,1.4,2.3,3,4.7,5.5,6-.9-5.1-.4-9.2.3-14.2.9-6.6,4.7-25.1,7.5-30.5,1.2-2.3,3.7-3.5,4.3-6.2,23,6.3,35.4,28.6,50.3,44.9,11.3,12.4,23.8,14.5,34.1,23.9,6.5,5.9,11.9,15.9,17.5,22.5,14.4,17.2,20.4,23.3,41.3,32.7,28.8,12.9,50.9,21,83.2,18.9,16.7-1.1,61-18.9,75.8-28.2,16.1-10.1,26.5-33.3,40.2-45.8,10.2-9.3,22.2-11.3,33-23,9.6-10.3,17.3-22.5,28-32,5-4.5,21.2-18.9,26.3-9.3,2.2,9.9,7.3,19.6,8.2,29.8v-.4h.2ZM692.7,1454.6c-8.6,5.2-13.5,6.5-23.2,3.4-5.5-1.8-11.8-7.5-17.4-3.5-8,5.7.3,21.6,3.8,28.1,14.9,28.2,37.7,58.4,56.4,84.6,26.6,37.5,54.9,76.6,83.4,112.6,6.4,8,24.9,32.7,33.6,35.4,14.2,4.5,9.9-14.4,7.3-22.3-2.1-6.5-11.2-24.4-15.1-29.9-1-1.5-2.8-3.2-4.4-4.1v7c-1.1,0-2.2,0-3.3-.2-9.8-2.4-45.3-48.6-49.9-59.1-9.5-21.7-5.3-71.5-40.4-72.7-4.8-.2-7.2,2.4-12.4-.6-2-1.1-10.6-12.1-11.6-14.3-3.7-8.3-.7-36.3-1.5-47.6-.2-2.3-2.3-17.8-3-18.5-1.7-1.7-2.1,1.5-2.3,1.6h0ZM1356,1453c-.5-.3-1.5-.4-2,.6-1.1,2.2-2.8,13.8-3,16.9-.9,11.9,2.5,40.2-1.8,49.2-1,2.1-9.4,12.7-11.3,13.7-5.2,3-7.5.4-12.4.6-19.6.7-27.5,18.6-32.1,35-3.1,11-3.9,28-8.3,37.7-5.3,11.7-31.3,42.5-41.2,51.8-2.6,2.4-8.2,7.4-11.5,7.5-3.8.2,1-8.2-3.5-7-7.3,14.4-22.4,34.7-20.1,51.5.7,5.2,5.3,6.2,9.9,4.8,8.6-2.7,27.2-27.4,33.6-35.4,28.5-36,56.8-75.1,83.4-112.6,18.6-26.2,41.4-56.4,56.4-84.6,3.5-6.6,11.8-22.4,3.8-28.1-5.2-3.7-11.2,1.8-16.4,3.5-9,2.8-14.2,2.1-22.3-2.7-1.6-1-1.2-2.2-1.2-2.3h0ZM765,1818c.4-1.5-.4-1.7-1-2.5-6.5-9.3-23.8-23.7-32.5-33.5-71.9-80.4-136.5-177.8-177.2-277.8l-12.2-36.2c-4.7,16.4-15,35.2-17.6,51.9-3.5,23,16.6,69.7,26.7,91.4,37.4,80.5,92.9,157.9,156.9,219.1,5,3.1,13.4.3,19-.9,12.9-2.9,25.3-7.9,38-11.5h0ZM1283,1818c12.7,3.6,25.1,8.6,38,11.5,5.6,1.3,14,4.1,19,.9,64-61.2,119.5-138.6,156.9-219.1,10.1-21.7,30.2-68.4,26.7-91.4-2.6-16.7-12.8-35.6-17.6-51.9l-12.2,36.2c-40.7,100-105.4,197.4-177.2,277.8-8.7,9.8-26.1,24.2-32.5,33.5-.6.8-1.4,1-1,2.5h-.1ZM668.3,1813.7c-35.5-39.8-69.7-81.4-94.9-128.6-20-37.5-36-77.1-53-116-9.5,9.5-7,18.8-3.2,30.2,3.2,9.8,8.4,20.9,12.6,30.4,25.8,59.3,64.7,129.4,111.6,174.4,8,7.7,18.8,16.6,30.5,13.9.5-2.7-2.5-3-3.6-4.3M1376,1818c12,2.7,22.9-6.6,31-14.4,41.3-39.9,76.4-99.4,100.8-151.2,7.6-16.1,17.4-36.4,22.9-53.1,3.7-11.4,6.2-20.8-3.2-30.2-24.4,55.6-46.8,113.2-81.7,163.3-18.9,27.1-45,59.4-68.2,82.7-.9,1-2,1.2-1.6,3h0ZM853,1643l23.5,46c1.7,1.9,10.1-2.1,9.3-5.3-9.3-16.3-9.5-39-32.8-40.7M1194,1644c-6.8.3-13.6,3.4-17.4,9.1-2.9,4.3-11.5,24.6-13.1,29.9s3.8,5.8,8.5,7l22-46ZM586,1754l-34.2-56.3-25.3-49.7c-4.4,4.4-7.9,9-7.5,15.4,1,18.2,36.3,69.3,49.5,83.5,5.7,6.1,8.7,11.2,17.5,7h0ZM1462,1754c8.8,4.2,11.8-.9,17.5-7,13.2-14.2,48.5-65.3,49.5-83.5.4-6.5-3.1-11.1-7.5-15.4l-25.3,49.7-34.2,56.3h0Z"/></g><g id="03_Mouth" data-trait="scrappy"><path id="fill-muzzle" class="fill"  fill="#fff" d="M1038 1292s-.4 1.7.7 2c10.3 2.8 18 4.3 25.8 13 1.9 2.2 4.9 8.8 6.5 9.5 2.6 1.2 6.6 0 9.5.5 11.4 1.5 21.2 3.7 31.2 9.8 2.1 1.3 9.2 7.8 10.2 7.1.3-.3 0-1.7 0-1.9 2.4-1.8 32.7.6 38 1 5.2 4.2 13.2 5.5 19.2 8.3 13.7 6.4 22.5 16.1 29.9 29.1 8.4 14.6 7.7 17.8 3.1 33.4-2.5 8.5-4.8 21.8-16.3 20.2 1.5-15.5-14.8-32.4-26.5-41-3.2-2.4-11.3-7.2-6 0 10.8 14.7 20.2 14.8 21.5 37.5.6 10.3-8.4 32.9-15.4 40.5-.6.7-7.1 6.3-7.6 6.5-3 1.6-6.9-6.1-7.8-8.2-3.6-7.8-4.7-15.5-9.7-23.3-1.1-1.7-10.8-13.7-12.4-12.1 5.6 13 9 46.2-2.5 56-4.4 3.7-9.4 1.9-13.3 3.7-2.8 1.3-3 5.7-4.8 6.1s-7-3.1-9.4-3.5c-8.9-1.3-13.2 17-18.7 17.5-2.5.2-10.7-11.9-18.4-9.4-7 2.2-15.4 21.2-24.4 23.6-6.3-6-3.4-14-5.8-21.2-1.2-3.5-4.2-6.7-5.8-10.2-5.4-12.7-2.8-19.9-.2-32.2.6-3 0-5.9.9-9.1.2-.7 6.3-12.3 6.9-13.1 3.7-5.4 19.2-12.4 22.7-3.8.9 2.2 0 8.7 2.2 7.7 5.1-4.9 10.2-9.9 15.5-14.5 11.5-10 14.1-9.7 21.2-24.8 1.5-3.3 6.5-14.5 6.6-17.3 0-3.4-9.2-14.7-11.8-17.8-1.4-1.7-9.5-11.5-10.2-11.8-6.4-3.2-28-2.3-34.7.8-7.9 3.6-12.5 12-19 17-1 .8-1.3 1.9-3 1.5l.8-12.7c3.6-4.3 21.7-23.3 21.1-27.5-.4-2.6-11.3-13.4-12.9-11.7 4.4 12.8.7 8.7-7.3 12.2-1.2.5-2.9 2.7-3.2 2.7s-2-2.2-3.2-2.7c-3.4-1.5-9.7-.4-9.3-5.6 0-1.1 4.1-7.6.5-6.6-2.8.8-12 9.9-11.3 13.2 0 .6 4 7 4.8 8 1.5 2 5 5.9 7 8.3 3.2 3.9 9.7 7.6 9.9 13.1 0 1.6-.8 3.1-.8 4.8s2.6 8.1-2.5 3.6c-6.2-5.3-10.2-13.6-18.5-17.5-6.5-3-30.3-4.3-35.7-.2-.8.6-8.8 10.5-10.2 12.2-2.4 3-10.9 13.7-10.8 16.8.2 5.4 11.7 29 15.7 33.2 3 3.2 9.3 6.8 13 9.9 5 4.3 9.7 9.1 14.5 13.5l4.2-11.1c4.9-3.1 17.7 2.6 20.8 7.1 1 1.5 5.1 9.9 6 11.9 2.8 6.4 5.1 25.4 4.4 32.4-1.1 10-7.9 15-9.4 22.6-1.3 6.4 1.1 14.9-5.8 18.9-8.1-2.6-17.3-21.5-23.6-23.5-8.2-2.6-15.9 9.6-18.4 9.4-5.3-.4-8.7-14-13.9-16.1-6.9-2.8-11.5 2.7-14.1 2.1-1.8-.4-2-4.8-4.8-6.1-4.5-2-9.6.3-14.3-4.7-10.9-11.5-6.5-42.2-1.5-56.1-9.1 6.7-14.1 14.8-18.5 25-1.6 3.6-2 7.5-3.7 11.3-1 2.1-4.9 9.8-7.8 8.2-.4-.2-6.9-5.9-7.5-6.5-3.9-4.3-13.8-24.4-15-30-2.8-12.9 1.4-26.5 9.5-36.5 4.1-5.1 11.3-9 13-15.5-2.4-2.4-22.3 17.4-24.4 20.1-5.4 6.8-11 15.9-9.6 24.9-8.3.5-10.7-3.3-13.3-10.2-2.7-7.1-7.8-22.8-6.2-29.8 3.7-16.2 21.4-35.8 36.3-42.7 6.2-2.9 13.9-4.1 19.2-8.3 12.5-.8 24.5-2.3 37-1 0 0 .7 2.1.5 3 9.5-8.2 20.6-14.8 33.1-16.9 4.7-.8 14.8-.4 18.1-1.8 1.6-.7 5.2-7.7 7.2-9.9 8-8.4 15.2-9.7 25.4-12.5 1.1-.3.6-1.9.7-2 1.1-.7 25.9-.7 27 0v.2Z" class="fill" data-original-prefix="fill"/><path id="fill-teeth14" class="fill"  fill="#fff" d="M1039.1 1601.9c-.8-.5-7.2-15.4-7.9-17.6-4.2-13.6-7-37.9-1.5-51.1 5.8-13.9 10.8-1 20-5 1.9-.8 7.6-6.8 9.2-8.8 2.6-3 3.6-9.1 8-8 12.8 3.1 21.1 24.2 22 36.1 2.3 30.4-23.4 40.7-45.2 53.7-1.2.5-3.6 1.3-4.6.6Z" class="fill" data-original-prefix="fill"/><path id="fill-teeth13" class="fill"  fill="#fff" d="M1015.7 1527.3c10.2 8.9 6 44.1 2.3 56.2-1.9 6.4-6 12-8.1 18.3h-2.3c-12.1-7.1-26.3-12.4-36.1-22.9-9.1-9.8-12.3-17.9-11.5-31.5.8-11.8 9-32.3 21.2-35.9 4.8-1.4 5.7 4.5 8.2 7.4 1.8 2.1 8.3 8.8 10.5 9.5 6 1.9 12.5-4.1 15.8-1.3z" class="fill" data-original-prefix="fill"/><path id="fill-teeth12" class="fill"  fill="#fff" d="M904 1461c0 2.2-1.1 3.8-.8 6.2s7.4 22.5 8.8 24c3.7 4.1 11.1 2.3 15.9 2.9 4.9 13.5-4.3 23.9-8.6 35.6-2 5.3-8.4 33.1-12.8 34.3-3.3.8-11.7-18-12.8-21.2-6.8-20.9-8.8-51.8 1.8-71.7.6-1.2 7.1-11.6 8.4-10.1Z" class="fill" data-original-prefix="fill"/><path id="fill-teeth11" class="fill"  fill="#fff" d="M1144 1564c-1 .7-1.8-.4-2.4-1.1-5.8-5.8-8.7-24.8-11.8-33.2-4.3-11.7-13.8-21.9-8.6-35.6 18.6 2.9 18.2-8.8 23.1-22.4l2.2-9.8c10.2 11.1 15.2 27.6 14.6 42.5-.5 13.7-3.2 35.3-9.5 47.5-.8 1.5-6.9 11.6-7.5 12Z" class="fill" data-original-prefix="fill"/><path id="fill-teeth10" class="fill"  fill="#fff" d="M949 1569c5.5 22.1 11.4 45.4 9 68.5-.5 5-1.3 9.2-7 6.9-3.4-1.3-17.5-13.4-19.5-16.5-7.4-11.8.3-39.7 8-50.8 1.2-1.7 7-10.1 9.4-8.1Z" class="fill" data-original-prefix="fill"/><path id="fill-teeth9" class="fill"  fill="#fff" d="M1100 1569c3.4-2.9 13.3 14.1 14.5 17 4.8 11.7 9.3 33.5 1 44-2.1 2.7-18.5 16.5-20.9 15.9-1.9-.4-3.4-6.5-3.6-8.4-1-8.7 0-26 1-35 1.1-10.9 6.5-22.5 8-33.5" class="fill" data-original-prefix="fill"/><path id="fill-teeth8" class="fill"  fill="#fff" d="M1167 1547c.9-6.7-1-15-.6-21.3.3-6.3 3.7-14.6 3.6-21.2 0-5.7-4.8-19.5-4-24 .5-2.9 3.5-2.8 5.5-4.5 6.2-5.3 10.4-15.8 16.9-4.9 14.2 23.5-1 56.5-18.4 74.4-.9 1-1.3 1.9-3 1.5" class="fill" data-original-prefix="fill"/><path id="fill-teeth7" class="fill"  fill="#fff" d="M881.7 1478.3c3.3 2.9-2.8 21-2.8 26.2s2.6 12.6 3.1 18c.7 8 0 16.5-.5 24.5-1.8 0-11.7-13.3-13.3-15.7-11.2-16.8-20.3-43.7-7-61.7 6.2-8.4 9.7.9 14 4.7 2 1.9 5.7 3 6.6 3.9Z" class="fill" data-original-prefix="fill"/><path id="fill-teeth6" class="fill"  fill="#fff" d="M1018 1613v16.5c0 .9-10.8 13.2-11.9 14.1-6.3 4.8-8-2.6-10.6-5.5-5.5-6-17.9-.4-24.4-5.6-.9-.7-4.1-8.3-4.1-8.9v-24.5c12.3 3 28.7 18.5 41.4 16.9 3.5-.4 6.1-3 9.6-2.9Z" class="fill" data-original-prefix="fill"/><path id="fill-teeth5" class="fill"  fill="#fff" d="M1102.5 1494c3.3-.8 5.3 8.5 6.3 10.7 5 10.5 15.3 30.3 11.4 42.1-2.2 6.7-15.6 23.4-20.4 11-4-10.4-4.1-44.7-1.1-55.5.4-1.6 2.4-7.9 3.8-8.2Z" class="fill" data-original-prefix="fill"/><path id="fill-teeth4" class="fill"  fill="#fff" d="M917 1563c-1.6 13.5 2.8 27.4 2 40.5-.5 8.8-4.2 18.6-5.5 27.5-5.8-5.6-10.5-15.7-11.4-23.6-.6-5.2.7-25.8 2.4-30.3.6-1.6 10.5-16.2 12.4-14.1Z" class="fill" data-original-prefix="fill"/><path id="fill-teeth3" class="fill"  fill="#fff" d="M1135 1631c-.4-8.9-4.4-17.8-5.1-26.5-1-13.6 3.6-27.7 2-41.5 2.2-2.4 11.9 13 12.5 15 2 6.8 2.7 27.3 1.2 34.3-1.3 6.3-5.5 14.8-10.8 18.7z" class="fill" data-original-prefix="fill"/><path id="fill-teeth2" class="fill"  fill="#fff" d="M1154.1 1604.9c-3.4-2-5.1-22.3-3.9-26.2.8-2.6 8.9-5.2 10.2-8.8l5.1-10.9c3.8 3.4 5.1 7.2 4.3 12.2-.7 4.5-5.2 22.3-6.9 26.2-.9 2.2-6.1 9-8.8 7.5" class="fill" data-original-prefix="fill"/><path id="fill-teeth1" class="fill"  fill="#fff" d="M885 1559c.4.4.7 7.1 3 10.5 2.7 3.9 10.5 6.9 11 10-.8 4.7-.7 23-4 25.4-2.5 1.8-7.7-4.5-8.7-6.7-1.6-3.6-6.3-22.5-7-27-.6-3.9 2.5-15.6 5.8-12.3Z" class="fill" data-original-prefix="fill"/><path id="outline-shading-mouth2" class="outline"  fill="#000" d="M918 1443.5c.8 5.3 5.6 13.8 10.1 16.9 11.5 8.3 16.2-.3 22.4-9.4 2.5 5.4 3.4 11.5 6 17 1.4 2.8 5.7 12 7.5 5.5l4-11.5c1.6 7.5 6.3 15.4 11.5 21 4.3 4.7 18.8 15.4 24.6 9.6 2-2.1 8.3-17.9 10.8-22.2 1.2-2.2 7.8-13.8 9.7-13.3 1 .2 8.5 13.2 9.7 15.3 2.4 4.5 7.3 17.7 9.8 20.2 3.8 3.8 10.5.4 14.4-1.8 10.5-5.9 18.5-17.2 21.7-28.8l4.2 12.3c.3 1.2 1.9 2.4 2.8 1.7.6-.4 5.8-11.3 6.5-13 .8-2 2.8-12 4-12 6.8 10.7 12.9 18.4 24.5 7.5 8.6-8 9.3-23.8 7-34.5 3.5-3.1 21.1 16.1 26.6 16.9 9.1 1.4 17.6-11.8 19-19.9 3.5-20.5-12.9-39.2-30.9-46.2l-12.7-4.8c15.4 0 28.2 2.9 41.1 11.4 4.8 3.1 12.2 10.9 17.6 11.4 6.2.6 10.1-4.1 10-10-.4-19.3-25.8-38.1-39.7-48.8 15.4 2.4 34.6 11.8 45 23.5 7.8 8.8 19.1 25.1 19.1 37s-6.4 28.5-9.2 32.8c-3.3 5.3-11.7 5.4-13.4 10.6-.9 8.1-2.1 16.4-2.5 24.5-1.5 29 1.4 45.2-10.8 73.2-3.6 8.2-12.7 20.4-14.9 27.1-4.2 12.8-.7 26.4-9.1 38.9-3.2 4.8-8.4 6.7-11.2 10.8-1.7 2.5-2.4 6.1-4.2 8.8-4.5 6.7-14.6 23-21.6 8.9-1.6-3.3-1.3-12.9-6.7-6.2-1.4 1.7-1.9 4.4-3.5 6.5-3.7 4.7-17.7 19.6-23.5 19.5-2.2 0-4.5-4.1-6.6-5.4-7.9-5-21.1-6.3-29.2-1.4-7.3 4.4-9.5 13.6-18.1 6.8s-6.4-10.8-20.1-9c-5.6.7-11.4 12.6-16.9 12.1-2.8-.2-11.4-11.1-18.5-12.6-6.3-1.3-17.5.7-23 4.2-2.6 1.7-4.1 5.6-7.5 5.4-5.7-.3-19.8-15.8-23.6-20.5-1.2-1.5-4.4-10.6-7.1-6.9-2.5 3.4-.6 9.9-7.2 12.7-7 3-14.9-11.2-18.1-16.4-1.2-1.8-1.2-4.3-2.6-6.4-2-3-6.8-5.4-9.5-8.5-10.4-11.9-6.7-27.7-10.7-41.3-.8-2.6-5.6-8.5-7.3-11.7-18.4-35.7-16.4-45.6-18.4-84.6-.4-7.7-.6-20.7-2.2-27.8-1.5-6.2-11.1-6.1-14.2-11.8-3.4-6.1-9.3-29.6-8.6-36.4 1.2-10.3 16.2-31.2 24-38 10.5-9.2 26.2-16.5 40-18.5l-21.5 17c-7.2 6.4-26.8 32-14.8 39.9 9 5.9 16.7-4.5 23.7-9.1 12.7-8.4 25.3-11.8 40.7-11.8l-17.3 7.2c-18 9.4-33.1 32.7-22.1 52.8 1.7 3.1 8.6 10.4 12 11.1 9.1 1.7 20.7-15.4 29.5-18 .6 6.4-.9 14.3 0 20.5zm-37.1 40.6c-12.3-.5-17.1-20.2-22.8 1.5-3.4 13 1.2 26.4 9.4 36.5 1.5 1.8 12.7 13.1 13.9 12.9.8 0 2.5-2.3 2.8-3.2 2.9-7.1-3.2-12.2-4.2-19.2-1.5-9.8 0-18.7.9-28.4Zm301.8-8.9c-3.2.8-6.3 6-8.8 7.3-2.1 1.1-7.2 1-7.8 3.2-.5 1.7 3 10.8 2.9 14.8 0 3-1.5 13.9-2.2 16.8-.9 3.6-3.9 5.7-3.9 10.2s1.4 7.1 3.7 7.4c1.9.3 15-14.4 16.8-17 5.7-8.5 9-18.8 7.3-29.2-.5-3-4.4-14.5-8-13.6Zm-284.8 10c-4-2.3-6.5 9.9-6.8 12.5-1.2 10.5 3 38 8.7 47.1 1.9 3 5.4 6.9 9.2 7.3 3.7-15.6 12.6-29.2 21-42.5-2.3-.4-1.7-2.9-2.7-3.5-1.5-.9-7-1.9-9.7-3.1-4.7-2.2-12-7.7-15.6-11.4-1.2-1.2-3.8-6.2-4.2-6.3ZM1139 1552c8.3-2 11.9-12.2 13.9-19.6 3.1-12.1 6.1-33.4 1.1-44.8-3-6.9-5.8 1.7-8.3 4.1-3.9 3.8-11 9.3-16 11.6-2.5 1.1-7.8 1.8-9.1 2.7-.7.5-.5 1.8-1 2.7-.3.4-1.7.4-1.6.9 0 1 7.9 12.3 9.2 14.8 4.8 8.8 9.1 18 11.8 27.7Zm-197.7 5.7c8.1 8.1 9.5 0 10.5-7.3.8-5.6 2.7-20.6 1.7-25.4-3.6-17.2-21.3-15.9-21.6 3.6 0 6.8 4.6 24.3 9.4 29.2Zm161.5-44.5c-5 1.3-8.5 9.3-8.8 14.2-.2 4 2.4 28.5 3.8 31.3 2.5 5 7.5 0 9.8-2.7 6.8-8.3 11.6-30.7 4.5-39.5-2.7-3.3-4.8-4.4-9.2-3.3zM1023 1544c-.7-.7-.8-7-5.1-9.4-8.9-5-21.8-.8-32-4-10.4-3.3-9.4-13.1-16.1 1.8-2.9 6.4-9.1 24.4-6.3 30.7 1.1 2.4 17.8 15.6 21.2 17.8s18.2 11.7 21.1 10c3.1-5.6 9.3-9.5 12.6-14.9 1.8-2.8 4.1-11.5 4.6-11.9 1.6-1.7 1.7.5 2.1 1.4 1.6 3.6 2.1 6.8 4.5 10.5 3.3 5.2 9.2 9.3 12.4 14.6 3.1 1.9 15.5-5.9 18.9-8.1 4.5-2.9 22.9-17 23.9-21.1 2.2-9.7-6.6-28.3-10.9-37.2-4.9 1-7.8 5.2-12.7 6.7-9.2 2.8-28.2-1.6-33.7 6.3-.9 1.2-2.6 8.9-4.5 7zm-136 18c-.7-.6-3.5 0-4.5.9-6 6.2 2.4 31.6 14.6 27.6 4-1.3 3.8-9.4 2.8-12.9-1.1-3.9-7.2-4.1-9.8-7.2-2.1-2.5-2.7-8.2-3-8.5Zm274.1 0c-.3.3-.9 6-3 8.5-2.6 3.1-8.7 3.3-9.8 7.2-1 3.4-1.2 11.6 2.8 12.9 13.4 4.4 20.2-24.5 14.1-28.1-.9-.5-3.5-.9-4-.4Zm-216.4 7.2c-1.5.4-5.1 4.6-6 6.1-3.4 5.6-5.6 32.3-4.8 39.3 1.3 10.9 15.2 18 19.5 3.5 1.7-5.6 2.6-21.4 2.5-27.6 0-1.1-5.8-19.7-6.5-20.5-1.2-1.4-3.2-1.3-4.8-.8Zm153.3-.1c.2 6.6-5.4 14.7-6 20.6-.5 4.5 1 25.3 2.4 29.4 4.2 12.1 16.9 7.3 19.1-2.9 1.1-5.2 0-16.8-.6-22.6-1-9.7-1.7-25.5-14.9-24.5m-180 1.9c-20.5 3.8-17 28.7-9 43 4 2.9 10.4-17 10.7-19.8.9-7.5-2.9-15.5-1.8-23.2Zm218 43c2.5 1.8 7.2-9.1 7.7-10.8 3.9-12.8 1.6-30.1-13.7-32.2.5 7.4-2.8 16.2-1.9 23.4.3 2.7 6.4 18.5 7.9 19.6m-148.2 10.2c1.4.8 4.8 8.6 9.5 11 11.1 5.8 20.2-6.4 20.7-16.7.8-13.7-7.2-7.7-16.5-8.6-8.4-.8-15-4.8-21.8-9.2-5.5-3.5-13.6-14.6-14.7-1.4-.5 5.1 1.4 7.5 1.8 11.2s-2 5.9.5 10.7c4.8 9.3 18 1.3 20.7 2.8zm93.1-31.1c-2.1-1.5-19.7 12.7-23.9 14.4-2.3 1-7.9 2.3-10.5 2.5-10.5.9-18.8-5.4-16.4 11.4 1 7.3 7.9 15.8 16 15.1 9.4-.8 11.9-11.6 14.6-12.4 4-1.3 12.3 5.7 18.9-1.1 4.3-4.4 1.3-8.4 1.5-12.5 0-2.3 1.9-4.8 2-8.1 0-1.9-.8-8.5-2.2-9.4Z" class="shading" data-original-prefix="shading" opacity=".2"/><path id="outline-shading-mouth1" class="outline"  fill="#000" d="M1041 1343c6.1.5 12.7-1 17.5-5 1.5-1.3.9-3.7 2.8-2.9 10.1 7.9 37.9 17.4 43.8 28.2 3.6 6.5 4.6 17.5-1.8 22.6-5.6 4.5-20.8 10.8-28 15-4.9 2.8-9.7 6.6-14.7 9.3-7.4 4.1-25.5 14.5-32.6 16.4-2.9.8-5.2.8-8.1 0-14.5-3.8-42.2-22.5-56.3-30.7-6.2-3.6-21.2-9.1-23.2-15.8-5.5-18.4 15.7-28.3 28.7-35.4 2.3-1.2 15.5-8.6 16.5-8.7 2.9-.3 4.2 2.9 6.7 4.2 4.2 2.3 10 3.2 14.7 2.8-.3-5.1-3.3-11.3-1.8-16.3.5-1.6 12.5-13.9 14.5-14.4 3.9-1 8.2-.3 11.6 1.9 1 .7 10.8 11.1 11.2 11.8 2.1 5-1.2 11.8-1.5 17" class="shading" data-original-prefix="shading" opacity=".2"/><path id="outline-mouth3" class="outline"  fill="#000" d="M889 1333c-5.3 4.2-13 5.4-19.2 8.3-14.9 6.9-32.6 26.5-36.3 42.7-1.6 7 3.5 22.7 6.2 29.8 2.6 6.9 5 10.8 13.3 10.2-1.4-9 4.2-18.1 9.6-24.9 2.1-2.6 22-22.5 24.4-20.1-1.7 6.5-8.8 10.4-13 15.5-8.1 10-12.3 23.6-9.5 36.5 1.2 5.6 11.1 25.8 15 30 .6.7 7.1 6.3 7.5 6.5 3 1.5 6.9-6.1 7.8-8.2 1.7-3.8 2.1-7.7 3.7-11.3 4.4-10.2 9.4-18.4 18.5-25-5.1 13.9-9.5 44.6 1.5 56.1 4.8 5 9.9 2.7 14.3 4.7 2.8 1.3 3 5.7 4.8 6.1 2.6.6 7.2-4.9 14.1-2.1 5.2 2.1 8.6 15.6 13.9 16.1 2.5.2 10.2-12 18.4-9.4 6.3 2 15.5 20.8 23.6 23.5 6.9-4 4.5-12.6 5.8-18.9 1.5-7.6 8.3-12.6 9.4-22.6.8-7-1.6-26-4.4-32.4-.9-2.1-5-10.5-6-11.9-3.1-4.5-15.9-10.2-20.8-7.1l-4.2 11.1c-4.8-4.4-9.5-9.2-14.5-13.5-3.7-3.2-10-6.8-13-9.9-4-4.2-15.5-27.8-15.7-33.2 0-3.1 8.4-13.8 10.8-16.8 1.4-1.8 9.5-11.6 10.2-12.2 5.4-4.1 29.2-2.8 35.7.2 8.4 3.8 12.4 12.1 18.5 17.5 5.2 4.5 2.5-1.7 2.5-3.6s.9-3.2.8-4.8c-.2-5.4-6.7-9.2-9.9-13.1-2-2.4-5.5-6.3-7-8.3-.8-1-4.7-7.3-4.8-8-.7-3.3 8.6-12.4 11.3-13.2 3.6-1-.5 5.5-.5 6.6-.4 5.2 5.9 4.1 9.3 5.6 1.2.5 3 2.7 3.2 2.7s2-2.2 3.2-2.7c8-3.5 11.7.6 7.3-12.2 1.6-1.7 12.5 9.1 12.9 11.7.6 4.2-17.5 23.2-21.1 27.5l-.8 12.7c1.7.4 2-.7 3-1.5 6.5-5 11.1-13.4 19-17 6.8-3.1 28.3-4.1 34.7-.8.7.3 8.8 10.1 10.2 11.8 2.6 3.1 11.9 14.4 11.8 17.8 0 2.8-5 14.1-6.6 17.3-7.1 15.2-9.7 14.8-21.2 24.8-5.3 4.6-10.4 9.6-15.5 14.5-2.2.9-1.4-5.6-2.2-7.7-3.4-8.6-19-1.6-22.7 3.8-.6.8-6.7 12.4-6.9 13.1-1 3.2-.3 6.1-.9 9.1-2.6 12.3-5.2 19.6.2 32.2 1.5 3.5 4.6 6.8 5.8 10.2 2.5 7.2-.5 15.2 5.8 21.2 9-2.3 17.4-21.3 24.4-23.6 7.7-2.4 15.9 9.6 18.4 9.4 5.6-.5 9.8-18.8 18.7-17.5 2.3.3 7.6 3.9 9.4 3.5s2-4.8 4.8-6.1c3.9-1.8 8.9 0 13.3-3.7 11.5-9.9 8.1-43 2.5-56 1.6-1.7 11.3 10.4 12.4 12.1 5.1 7.8 6.1 15.5 9.7 23.3 1 2.1 4.8 9.8 7.8 8.2.4-.2 6.9-5.8 7.6-6.5 7-7.6 16-30.2 15.4-40.5-1.3-22.7-10.7-22.7-21.5-37.5-5.3-7.2 2.8-2.4 6 0 11.8 8.6 28 25.5 26.5 41 11.4 1.6 13.7-11.7 16.3-20.2 4.6-15.6 5.3-18.8-3.1-33.4-7.4-13-16.3-22.7-29.9-29.1-6-2.8-14.1-4.1-19.2-8.3 9.3.7 19.7 2.8 29.2 5.3 7.4 1.9 14.4 3.9 20.7 8.3 3.2 9.3 27.6 34.6 28 42 .2 3.7-8.2 22.5-10 27.9-2.5 7.2-2.6 16-10 21-1.9 1.3-8.4 2-9 3.2-4.1 7.9-1.4 38-1.9 48.8-1.1 21.6-7.6 43.1-20.5 60.5-.9 1.2-2.6 1.5-3.6 2.7-4.3 5.6-2.8 18.6-4.3 26.5-1.2 6-5 13.1-5.6 18.4-.4 3.5 1.3 7.7.8 9.7s-10.7 8.6-13.2 9.9c-2.2 1.2-5.7 1.5-6.5 2-.6.4-5.4 10.9-7.2 13.3-2.1 2.7-11.1 11.3-14 12.1-4.1 1.2-7.9-10.3-9.9-13s-2.3 2.3-3.6 4.3c-4.3 6.7-25.1 26.6-32.4 28.6-1.7.5-3.3.7-5 .5-.4-5.9 3.2-9.9-1.5-15.1-8.2-9-20.9-.3-24.3 8.8-1.8 4.9-1.6 20-8.6 18.1-4.6-1.3-20-25.6-23.2-30.8-5.7 8.9-12.2 19.9-19.5 27.4-11.2 11.7-9.9-11-13.8-18.2-3.8-7.1-14-12-21.1-6.7-6.7 5-2.9 9.6-3.1 16.4-3.5 3.5-24.3-13.8-27.5-17-1.3-1.3-10.5-12.2-11-13-.7-1.4-.2-6.3-2.6-3.3-2.1 2.7-6.2 14.3-10.2 13.3s-12-10.2-13.7-12.4c-2.1-2.7-6.6-12.8-7.2-13.2-.8-.5-3.8-.6-5.8-1.7-2.3-1.2-11.9-7.4-13-9-2.1-3.2.4-6.9 0-11-.7-6.8-5.9-15.3-6.8-24.2-.5-5 .6-10.7-.6-15.4-1-4-8-10-10.7-14.3-15.3-24.4-17.6-52.1-17.9-80.2 0-5.4 3-18.2 0-22.8-.8-1.2-7.8-1.9-10.4-3.8-7.2-5.3-6.2-13-8.6-20.4-1.9-6-10.7-24.3-9.8-28.7.5-2.7 4.3-7.5 6-10.1 7-10.8 15.7-20.6 22.5-31.5 5.9-4.3 13.2-6 20.1-7.9 9.7-2.6 19.8-4.7 29.2-5.3h.2Zm15 128c-1.4-1.5-7.8 8.9-8.4 10.1-10.6 19.9-8.6 50.8-1.8 71.7 1.1 3.3 9.4 22.1 12.8 21.2 4.4-1.1 10.8-28.9 12.8-34.3 4.3-11.7 13.6-22.1 8.6-35.6-4.8-.6-12.2 1.2-15.9-2.9-1.4-1.5-8.5-21.7-8.8-24s.8-4 .8-6.2Zm240 103c.6-.4 6.8-10.5 7.5-12 6.3-12.1 9-33.7 9.5-47.5.6-14.9-4.3-31.4-14.6-42.5l-2.2 9.8c-4.9 13.6-4.6 25.2-23.1 22.4-5.2 13.7 4.3 23.9 8.6 35.6 3.1 8.4 6 27.5 11.8 33.2.7.7 1.4 1.8 2.4 1.1Zm-262.3-85.7c-1-.9-4.6-2-6.6-3.9-4.2-3.9-7.8-13.1-14-4.7-13.3 17.9-4.1 44.9 7 61.7 1.6 2.4 11.5 15.7 13.3 15.7.5-8 1.2-16.5.5-24.5-.4-5.4-3.1-12.3-3.1-18s6-23.3 2.8-26.2ZM1167 1547c1.7.4 2-.5 3-1.5 17.4-17.9 32.6-50.9 18.4-74.4-6.5-10.8-10.8-.4-16.9 4.9-2 1.7-5 1.6-5.5 4.5-.8 4.5 4 18.3 4 24s-3.3 14.8-3.6 21.2c-.3 6.3 1.6 14.6.6 21.3m-64.5-53c-1.4.3-3.3 6.6-3.8 8.2-3 10.7-2.9 45.1 1.1 55.5 4.8 12.4 18.2-4.3 20.4-11 3.9-11.7-6.4-31.5-11.4-42.1-1-2.2-3-11.4-6.3-10.7Zm-86.8 33.3c-3.2-2.8-9.7 3.2-15.8 1.3-2.1-.7-8.7-7.5-10.5-9.5-2.6-2.9-3.4-8.8-8.2-7.4-12.2 3.5-20.5 24.1-21.2 35.9-.9 13.6 2.4 21.7 11.5 31.5 9.8 10.4 24 15.7 36.1 23h2.3c2.1-6.4 6.2-12 8.1-18.4 3.7-12.2 7.9-47.3-2.3-56.2zm23.4 74.6c1.1.7 3.4 0 4.6-.6 21.8-13.1 47.5-23.3 45.2-53.7-.9-11.9-9.2-33-22-36.1-4.4-1.1-5.5 5-8 8-1.7 1.9-7.3 7.9-9.2 8.8-9.2 4-14.3-9-20 5-5.4 13.2-2.6 37.5 1.5 51.1.7 2.2 7.1 17.1 7.9 17.6ZM885 1559c-3.2-3.3-6.4 8.4-5.8 12.3.7 4.5 5.4 23.4 7 27 1 2.2 6.2 8.5 8.7 6.7 3.4-2.4 3.2-20.7 4-25.4-.5-3.1-8.3-6.1-11-10-2.3-3.5-2.6-10.1-3-10.5Zm269.1 45.9c2.7 1.5 7.8-5.3 8.8-7.5 1.7-3.8 6.1-21.6 6.9-26.2.8-5-.5-8.8-4.3-12.2l-5.1 10.9c-1.4 3.6-9.4 6.1-10.2 8.8-1.2 3.9.5 24.2 3.9 26.2M917 1563c-1.9-2.2-11.8 12.5-12.4 14.1-1.7 4.6-3 25.2-2.4 30.3.9 7.9 5.6 18 11.4 23.6 1.4-8.8 5-18.6 5.5-27.5.8-13.1-3.7-27.1-2-40.5Zm218 68c5.3-3.9 9.4-12.4 10.8-18.7 1.5-7 .8-27.4-1.2-34.3-.6-1.9-10.4-17.4-12.5-15 1.5 13.8-3.1 28-2 41.5.7 8.7 4.6 17.6 5.1 26.5zm-186-62c-2.4-2-8.2 6.4-9.4 8.1-7.7 11.1-15.4 39-8 50.8 2 3.2 16 15.2 19.5 16.5 5.6 2.2 6.5-1.9 7-6.9 2.4-23.1-3.5-46.4-9-68.5Zm151 0c-1.5 11-6.9 22.6-8 33.5-.9 9-2 26.3-1 35 .2 1.9 1.7 8 3.6 8.4 2.4.6 18.8-13.3 20.9-15.9 8.3-10.5 3.8-32.3-1-44-1.2-2.9-11-19.9-14.5-17m-82 44c-3.5 0-6.1 2.5-9.6 2.9-12.7 1.6-29.1-13.9-41.4-16.9v24.5c0 .6 3.2 8.2 4.1 8.9 6.5 5.2 18.9-.4 24.4 5.6 2.6 2.9 4.3 10.3 10.6 5.5 1.1-.8 11.9-13.1 11.9-14.1v-16.5Z" class="outline" data-original-prefix="outline"/><path id="outline-mouth2" class="outline"  fill="#000" d="M1122 1332c-.2 0 .2 1.6 0 1.9-1 .8-8.1-5.8-10.2-7.1-10-6.1-19.8-8.3-31.2-9.8-2.9-.4-6.9.7-9.5-.5-1.5-.8-4.5-7.4-6.5-9.5-7.8-8.7-15.6-10.2-25.8-13-1.1-.3-.6-1.9-.7-2 3.1-3.8 16.2-9.3 20.8-9.8 7.9-.9 5.5 4.4 6.5 9.1 2.3 10.7 9.3 19.6 21.3 18.8 5.1-.3 5.6-4 7.9-4.1 1.4 0 6.6 2.9 8.2 3.8 9.4 5.2 15 12.5 19.3 22.2z" class="outline" data-original-prefix="outline"/><path id="outline-mouth1" class="outline"  fill="#000" d="M1011 1292s.4 1.7-.7 2c-10.2 2.8-17.4 4.1-25.4 12.5-2 2.1-5.6 9.2-7.2 9.9-3.4 1.4-13.5 1-18.1 1.8-12.5 2.1-23.6 8.7-33.1 16.9.2-.9-.5-2.8-.5-3 .8-2.7 8.7-13.3 11-15.6 2.5-2.4 14.7-10.5 17.6-10.4 2.7 0 3 5.1 11.9 3.9 10-1.3 16.2-10.1 17.5-19.6.4-2.6-2.4-6.7 2.8-8.2 3.5-1 21.7 5.6 24.3 9.8Z" class="outline" data-original-prefix="outline"/></g><g id="04_Eyes" data-trait="starchild"><path id="fill-eyes1" class="fill"  fill="#fff" d="M1397.8 1136.8c-2 2-9.7 1-13 1.5-7.1 1.1-22.6 6.6-29.5 9.5-3 1.3-12.5 5.7-14.7 7.3-2.8 2.1-.6 13.2 1.3 15.4 2.1 2.4 13.1 3.5 16.6 3.5 16.5 0 61.7-4.5 75.8-11.2 6.5-3.1 14.3-11.3 20.2-15.8 9.6 20.3 19.3 40.7 27.2 61.7 2.4 6.5 7.7 18.1 8.8 24.2 1.9 10.4-6.3 43.1-8.8 55.2-3.3 16-7.3 31.8-10.7 47.8l-8.7-3.2-22.5-62c-2.6-4.4-6.8-6.9-12-5.5-23.6 11.4-47.3 22.9-71.1 33.9-3.4 1.6-7.3 1.3-9.7 4.2l11.1 113.6c-37.1-19.5-70.8-44.8-107.3-65.2-7.2-4-20.6-13.1-28.6-10.3-43.7 30.2-89.6 57-135 84.4l15.9-91.6c0-5.5 1.7-8.3-3.2-11.6-12.9-8.7-52.7-21.8-68.2-22.8-16.2-1.2-27.4 2.2-42.5 6.6-6.8 2-41.1 13.5-43.5 18.5-1 2.2-.6 6.8-.4 9.4l15.9 91.6c-45.4-27.4-91.3-54.3-135-84.4-8-2.8-21.5 6.3-28.6 10.3-36.5 20.4-70.2 45.7-107.3 65.2l11-113.6c-2.4-2.9-6.3-2.7-9.7-4.2-23.8-11-47.4-22.6-71.1-33.9-5.2-1.4-9.4 1.1-12 5.5l-22.5 62-8.7 3.2c-3.4-15.9-7.4-31.8-10.7-47.8-2.6-12.2-10.8-44.9-8.8-55.2 1.1-6.1 6.3-17.7 8.8-24.2 7.9-21 17.7-41.4 27.2-61.7 5.5 4.5 12.6 11.9 18.8 15.2 4.3 2.3 10.7 3.3 15.5 4.5 17 4 57.2 9.5 73.4 6 10.2-2.2 6.6-8.2 8.7-16.6-6.1-1.9-11.4-5.9-17.2-8.3-7.7-3.2-21.4-8-29.5-9.5-9.1-1.7-13.7 3.3-13.3-9.8.6-17.5 13.5-53.6 20.9-70.1 4.5-10.2 31-59 40.8-60 2.8-.3 6.6 2.3 10-.2 1.3-1 3.4-6 5-8 40.8-50.7 92.4-93.8 152-121 81.3-37 208.8-37.5 290-.3 59.1 27 110.6 69.4 151.3 119.7 1.6 2 5.5 8.8 6.4 9.5 3.7 2.7 8.8-.7 12.1.8 4.9 2.2 13.8 14.9 17.3 19.8 15.6 22.1 28.1 50.3 35.7 76.3 1.9 6.7 10.6 37.5 6.3 41.8h-.2Z" class="fill" data-original-prefix="fill"/><path id="fill-eyes6" class="fill"  fill="#fff" d="M935.4 1254.4c-4 3.9-18.4 16.2-18.4 20.9 7.6 25 14.5 50.2 20.5 75.6 3.6 15.3 9.2 34.6 11.2 49.8.4 2.8.3 5.5.2 8.2l-124.7-87.8-121.8 74.8c-2-1.2-1.7-3.5-1.6-5.5 8.5-40.5 19.1-80.6 28.9-120.8l-93.9-79.7 133-12.5 49.5-140.5 69.5 135.5c38 4.9 76 11.7 112 25-21.7 18.8-43.9 37.1-64.6 56.9h.2Z" class="fill" data-original-prefix="fill"/><path id="fill-eyes5" class="fill"  fill="#fff" d="m1412 1190-93.9 79.7 26.6 108.1c.3 3.2 4.7 17 .8 18.2l-121.8-74.8L1099 1409c0-2.8 0-5.5.2-8.2 2.1-15.1 7.6-34.5 11.2-49.8 6.1-25.9 13.7-51.4 20.3-77.2-1-4.1-23.1-23.9-27.8-28.3-17.8-16.6-36.6-32.1-55-48 36-13.3 73.9-20.1 112-25l69.5-135.5 49.5 140.5 133 12.5z" class="fill" data-original-prefix="fill"/><path id="fill-eyes4" class="fill"  fill="#fff" d="M1101.9 1310.9c-3.5 2.5-56.6-18.1-64.9-20.4-11.5-3.2-15.3-3-26.8.2-20.9 5.9-41.7 16.8-63.6 20.4-1.8-.4-6-26.6-7.4-30.5 6-7.7 11.3-11.8 20.1-15.8 11.5-5.3 56.6-22.7 67.1-21.7 9.8.9 63.7 20.6 71.7 26.4 1.3.9 10.6 10.4 10.7 11.2z" class="fill" data-original-prefix="fill"/><path id="fill-eyes3" class="fill"  fill="#fff" d="M1452 1162c1.5 1.1 11.9 31 13.3 35.2 4.8 14.9 8.1 30.2 11.5 45.5l-8.8 75.2c-3.6 0-5.3-5.3-6.3-8.2-5.1-15.5-7.4-34-12-50-.8-2.9-4.4-17.1-6.4-17.7-1.1-.4-2.3 0-3.4.4-32 12.5-61.7 30.3-93 44.5-.2-4.3-3.9-7.8 0-11.5 29.8-29.3 58.7-59.3 87-90l-2.3-1.6-34.7-7.9c10.3-1.1 39.2 2.7 46.6-4 1.7-1.5 6.6-11.4 8.4-10.1v.2Z" class="fill" data-original-prefix="fill"/><path id="fill-eyes2" class="fill"  fill="#fff" d="m651 1176-34.7 7.9-2.3 1.6c28.3 30.7 57.2 60.7 87 90 3.9 3.8.2 7.2 0 11.5l-73.6-36.9c-3.1-1.4-21-8.7-22.7-8.1-1.9.6-5.5 14.8-6.4 17.7-4.5 16.1-6.9 34.5-12 50-1 2.9-2.7 8.1-6.3 8.2l-8.8-75.2c3.3-15.3 6.7-30.6 11.5-45.5 1.4-4.2 11.8-34.1 13.3-35.2 1.8-1.4 7 9.1 8.9 10.6 7.7 6.2 35.8 2.2 46.1 3.4" class="fill" data-original-prefix="fill"/><g id="shading-eyes" class="shading" ><path id="outline-shading-eyes8" class="outline"  fill="#000" d="M952 1412c-3.4 0-6.9.2-9.9-1.6-29.4-22.9-59.2-45.3-90.1-66.1l.5-7.3c10.1-30.2 20.6-60.2 30.6-90.4 6.9-20.7 12.8-46.5 21-66 1.1-2.6 3.1-8.2 6.4-8.4 4-.2 14.9 2.4 19.8 3.2 16.9 2.8 33.4 6.8 49.8 11.7.6-.5-6.4-12.7-7.4-14.1-17-26.6-32.4-45.3-57.2-64.8-10.3-8.1-21.9-17-32.7-24.3-16.6-11.1-34.7-19.4-51.7-29.8-8.8 19.9-18.2 39.5-27.2 59.3-24.5 54.5-47.9 109.7-69.6 165.4-7.2 18.3-13.2 38.3-20.8 56.2-1 2.4-2.2 5.1-4 7l16.1-71-92.6-76.7v-6.3c38.8-4 77.5-10.4 116.5-13.1 9.3-.6 20.3 3.7 20.5-10l-54.4-14.9c-1.3-.7 0-3.1-2.2-5-6.5-5.3-25.3-13.8-33.7-18.3-5.6-2.9-12.5-2.1-2.8-7.4l15.1-28.9h33l59 34.5 26.1-78.3-84.6-32.7c-1.9-4 2.8-9.6 5.1-12.9 25.7-37.5 68.9-75.6 107.5-99.5 31.7-19.6 67.1-37 103.9-44.6-15.8 14.7-36.6 21.7-53.5 35-22.9 18.1-50.5 53.7-64.7 79.3-2.4 4.4-10.8 19.8-11.4 23.7-2.9 17.9 18.5 42 30.7 53.5 38.6 19.7 77.6 39.1 113.5 63.5 14.2 19.2 24.9 49.2 40 66.9 6.4 7.4 14 4.9 18.4 8.6 4.6 3.9 4.1 16.1 8.6 16.5 4.2.4 3.6-4.8 5-8 6.1-14.4 8.5-7.4 18.7-13.3 12.1-7 33-58.2 44.2-70.8 16.3-11.4 33.5-21.5 50.9-31.1 18-10 47.2-21.4 62.6-32.4s35.4-40.1 27.9-59.8c-10.7-28.2-48.8-76.6-72.4-95.6-17.4-14-38.3-20.9-54.5-36 29.4 5.8 57.6 18.5 83.7 32.8 47.9 26.3 95.2 65.5 126.7 110.3 2.5 3.5 9 10.9 5.3 14.7-3.2 3.3-24.9 8.2-31 10.5-7.8 2.9-15.1 7.2-22.8 10.2-10.2 4-21.1 6.6-31.1 11.2-15 31.6-29.2 63.6-43.1 95.6-25.6 59-48.1 122.9-75.6 180.4-1.6 3.3-2.9 6.8-5.7 9.3l5.6-25.4c1.3-5 9.2-29 8.5-31.6-.4-1.5-9-10.5-10.3-10.8-2.1-.6-9.2 3.8-11.3 5.4-.5 2 5.7 5.6 6.5 7.5 2.7 6.3-6 29-6.6 36.9-3.3.5-6.5 0-9.7-.6-5.1-.9-45.4-13.2-46.7-15.3-.5-.7-.6-1.4-.3-2.3l16.8-42.3c0-3.6-13.8-6.1-17-7.4-2.4 5.5-16.1 44.5-18.1 45.9-.5.4-10.3-1.7-12.9 0l20-48.6c0-2.3-6.6-10.7-8.7-11.2h-8.5c-2.8.7-6.3 7.6-9.4 9.7-5.5 3.7-14.4 4.3-20.3 7.7l-28.8 61.5c-6 1.6-11.8 3.9-18.2 2.9-.6-7.9-9.3-30.6-6.6-36.9.9-2.1 7.7-5.5 6-8.1-.7-1-9.5-5.2-10.8-4.8-1.3.3-9.9 9.3-10.3 10.8-.7 2.7 7.2 26.6 8.5 31.6 7.9 30.2 14.6 60.6 22.1 90.9v14.5h.1Zm262-355c-28.9 12.4-55.2 30.3-79.9 49.6-25.3 19.8-38.2 35.3-55.9 62.1-1.4 2.1-11.2 17.3-10.2 18.3 28.9-8.9 59.1-13.1 89-17.5 19.5-37.2 38.7-74.7 57-112.5m-133 175-32.7-28.9c-3.2-.8-5.2 3.1-7.4 4.3-6.3 3.5-11.4.5-17.4.5s-9.6 2.6-15.2.3c-2.2-.9-5.4-5.2-7.8-5.2s-29.8 25.2-33.5 29c2.1.2 4.1 0 6.2-.3 10.1-1.2 31.8-9.3 39.3-8.8 3.3.2 5.7 3.1 11 3.2 5.9 0 6.5-2.1 10.3-2.9 4.5-.9 20.2 4.3 26.1 5.5 7 1.5 14.1 3.3 21.1 3.3" class="shading" data-original-prefix="shading" opacity=".2"/><path id="outline-shading-eyes7" class="outline"  fill="#000" d="M1376 1124c-.3.4-7.4 2.6-9 3.5-8.1 4.2-26.1 12.6-32.3 17.7-2.4 1.9-.9 4.2-2.2 5l-54.4 14.9c0 14.1 12.9 9.1 22.4 10.1 1.2 0 6.3.4 5.6 2.3-21.5 51.2-41 103.2-61.1 154.9-.7 1.3-1.2 3.7-3.2 3.5-3.6-.3-14-10-18-9.7-3.2.3-25.4 18.2-26.7 16.8.4-6 2.1-11.8 4-17.5 18.3-55.7 43.5-114.3 64.3-169.7 1-2.7 4.2-7.7 4.6-9.5 1.2-5.8-6.6-18.7-4.6-22.1 17.9-9 35.3-22.8 53.1-31.4 3.2-1.5 4.4-2.5 8.1-2.9 9.1-.9 20.3.3 29.6.5 2.2 1.4 11 23.6 14.1 27.9 1.6 2.1 7.2 3.8 5.8 5.6h-.1Z" class="shading" data-original-prefix="shading" opacity=".2"/><path id="outline-shading-eyes6" class="outline"  fill="#000" d="M1348.9 1398.9c-1.2.7-7.1.2-8.8-.4l-75-48.1 59.5-173.3 88.8 10c2.5.8 2.3 6.7.6 8.3l-91.8 76.1 27.8 115.8c0 2.1.2 10.5-1.2 11.4v.2Z" class="shading" data-original-prefix="shading" opacity=".2"/><path id="outline-shading-eyes5" class="outline"  fill="#000" d="M1471 1321c-5.7.9-9.1-.9-11.4-6.1-5.5-12.6-8.7-37.7-12.7-52.3-.6-2.3-4.2-16.1-4.9-16.6-.5-.4-3.5 1.5-4 1l23-71 8.5 23 9.5 37.5c.3 28.3-6.3 56.2-8 84.5" class="shading" data-original-prefix="shading" opacity=".2"/><path id="outline-shading-eyes4" class="outline"  fill="#000" d="M703.9 1288.9c-.9.6-6.7.3-8.1 0l-53.3-26.8 8.6-43 52.4 53.1c3.6 2.4 2.8 15.3.4 16.7" class="shading" data-original-prefix="shading" opacity=".2"/><path id="outline-shading-eyes3" class="outline"  fill="#000" d="M600.8 1159.2c.3.2 2.5 4.8 3.3 6.2 1.5 2.4 4.7 3.6 3.7 6.9l-33.1 90-3.7 7.7c.2-5.4-1.7-11.2-2-16.5-1.8-32.1 13.5-64.8 24.1-94.4.3-.3 7.1-.4 7.7 0Z" class="shading" data-original-prefix="shading" opacity=".2"/><path id="outline-shading-eyes2" class="outline"  fill="#000" d="M1344.2 1288.8c-2.3-1.4-2.4-10.1-1.7-12.9 2.2-8.3 29-28.5 35-36.9l-13.1 42.9c-3.6 3-16.1 9.4-20.2 6.9" class="shading" data-original-prefix="shading" opacity=".2"/><path id="outline-shading-eyes1" class="outline"  fill="#000" d="M827.9 1326.9c-4.2-1.3-5.4-.2-8.9 1.5-12.4 6.1-23.6 15.8-36 22 24.4-46.5 45.1-95.1 65.5-143.5 7.1-17 15.2-44.4 23.8-59.2 1.1-1.9 2.7-3.2 4.2-4.7 2.9 6.7 14.3 21.5 13.3 28.2-20.2 52-41.7 103.6-61.9 155.7" class="shading" data-original-prefix="shading" opacity=".2"/></g><g id="outline-eyes" class="outline" ><path id="outline-eyes2" class="outline"  fill="#000" d="M705 1154c.3-1.7 2-11.9 2.6-12.1 16 .9 31.1 7 46.2 11.9.8.2 1.6.2 2.3-.3 1.6-1.1 11.6-30.8 13.5-35.6 11.8-29.2 24-61.4 37.3-89.7 2.8-6 5.4-14.6 13.1-15.3l27 46.6c13.5 3.6 23.7 12.9 35.4 19.6 19 10.8 40.8 19.3 59.7 30.3 11.1 6.5 13.7 12.6 19.2 23.8 6.6 13.8 11.8 29.1 17 43.4l41.8 15.2-41 45.5 15-4.5-12 11c6.7-3.3 23.4-6.7 28.5-11s7.4-20.7 6.5-27c2.8-.4 4.7 2.1 7.5 2.1s4-1.8 6-2.1c3-.5.4 4.3.5 6.5 0 2.9 5.5 19.8 7.3 21.3l28.7 10.2-10-9 11 1.5-40-44.5 42.5-16c6-13.6 10.3-27.9 16.7-41.3 3.3-7.1 8.7-18.5 14.9-23.1 9.1-6.7 30.7-16.1 41.9-22.1 19-10.1 38.2-19.7 57.1-29.9l27.5-46.6c7.2 1.2 9.8 9.4 12.6 15.4 13.3 28.3 25.5 60.5 37.3 89.7 4.7 11.5 8.7 23.4 13 35 1 1.4 2.3 1 3.8.8 6.9-.9 18.8-6.6 26.5-8.5 6.4-1.6 12.9-3.3 19.7-3.3.7 4 1.9 8.1 2.6 12 .6 3.1-.2 12.5 3.7 13.8 1.3.4 9.1 1.3 10.8 1.3 16 0 58.4-4.6 72.5-10.6 5.8-2.4 21.9-18.9 25.5-18.6.8 0 1.5.4 2 1.1 10.5 24.8 22.5 49.1 31.5 74.5 1.8 5 6.4 15.7 6.7 20.3.6 9.9-6.7 38-9.1 49.4-3.8 18.9-8.5 37.6-12.6 56.4-3.1 2.2-14.4-2.6-17.1-5.3l-24.6-65.4-2.6-.7-79.6 37.3 12.8 113.1c0 3.1-2 4.9-5 3.9-4.1-1.3-15.6-9.1-20.3-11.8-31.6-18.4-62.1-40.4-94-58-6.2-3.4-12.2-7.4-19.2-8.7-45.9 31-93.3 59.6-140.7 88.1l-3.7.8 18-107c-9.4-3.2-17.9-8.6-27.5-12.1-10.3-3.7-32.8-10.9-43.2-11.8-14.5-1.3-52.9 11.3-66.8 18-4.1 2-7.8 5.7-12.6 5.9l17.9 99.6c-.2 1.8 1.6 7.8-1.4 7.4l-143-88.9c-7 1.3-13.1 5.3-19.2 8.7-31.9 17.6-62.4 39.6-94 58-4.7 2.8-16.2 10.4-20.3 11.8-3 1-5.1-.8-5-3.9l12.8-113.1-79.5-37.3-2.6.7-24.6 65.4c-2.7 2.7-14 7.5-17.1 5.3-4.1-18.8-8.8-37.5-12.6-56.4-2.3-11.4-9.7-39.5-9.1-49.4.3-4.6 5-15.2 6.7-20.3 9-25.4 21-49.7 31.5-74.5 1.2-1.4 3-1.4 4.5-.5 6.6 4.7 15.8 14.9 23 18 6.7 2.9 26.6 6.4 34.5 7.5 11.9 1.6 37.9 4.1 48.8 1.8 5.3-1.2 4-9.5 4.7-13.7zm230.4 100.4c20.7-19.8 42.9-38.2 64.6-56.9-36-13.3-74-20.1-112-25L818.5 1037 769 1177.5 636 1190l93.9 79.7c-9.8 40.2-20.4 80.3-28.9 120.8 0 2-.3 4.3 1.6 5.5l121.8-74.8 124.7 87.8c0-2.8 0-5.5-.2-8.2-2.1-15.1-7.6-34.5-11.2-49.8-6-25.4-12.9-50.6-20.5-75.6 0-4.7 14.3-17.1 18.4-20.9h-.2ZM1412 1190l-133-12.5-49.5-140.5-69.5 135.5c-38 4.9-76 11.7-112 25 18.4 15.9 37.2 31.4 55 48 4.8 4.4 26.8 24.2 27.8 28.3-6.7 25.8-14.2 51.3-20.3 77.2-3.6 15.3-9.2 34.6-11.2 49.8-.4 2.8-.3 5.5-.2 8.2l124.7-87.8 121.8 74.8c3.9-1.2-.5-15-.8-18.2l-26.6-108.1 93.9-79.7zm-442.6-17.3c-9.6-13.8-18.1-28.8-29.4-41.2l-42.7-34.3L850 1065c4.5 9.4 9.7 18.6 14.8 27.7 11.2 20 23.2 39.5 34.6 59.4 23.7 6.4 47.1 13.8 70.3 21.8zm109.6.3 69.6-20.9 49.4-86.6c-33.1 21.6-66 44.1-94.4 71.6zm-428 3c-10.3-1.2-38.4 2.7-46.1-3.4-1.8-1.5-7.1-11.9-8.9-10.6-1.5 1.1-11.9 31-13.3 35.2-4.8 14.9-8.1 30.2-11.5 45.5l8.8 75.2c3.6 0 5.3-5.3 6.3-8.2 5.1-15.5 7.4-34 12-50 .8-2.9 4.4-17.1 6.4-17.7 1.8-.6 19.6 6.7 22.7 8.1L701 1287c.2-4.3 3.9-7.8 0-11.5-29.8-29.3-58.7-59.3-87-90l2.3-1.6zm801-14c-1.8-1.3-6.8 8.5-8.4 10.1-7.3 6.7-36.3 2.9-46.6 4l34.7 7.9 2.3 1.6c-28.3 30.7-57.2 60.7-87 90-3.9 3.8-.2 7.2 0 11.5 31.3-14.2 61-32 93-44.5 1-.4 2.3-.8 3.4-.4 1.9.6 5.5 14.8 6.4 17.7 4.6 16.1 6.9 34.5 12 50 .9 2.9 2.7 8.1 6.3 8.2l8.8-75.2c-3.3-15.3-6.7-30.6-11.5-45.5-1.4-4.2-11.8-34.1-13.3-35.2v-.2Zm-350.1 148.9 6.9-30.3c-.2-.8-9.5-10.3-10.7-11.2-8-5.7-61.9-25.4-71.7-26.4-10.4-1-55.5 16.4-67.1 21.7-8.8 4.1-14.1 8.1-20.1 15.8 1.5 3.8 5.6 30.1 7.4 30.5 21.9-3.6 42.7-14.4 63.6-20.4 11.5-3.2 15.2-3.4 26.8-.2 8.3 2.3 61.4 22.9 64.9 20.5" class="outline" data-original-prefix="outline"/><path id="outline-eyes1" class="outline"  fill="#000" d="M695 1149c-.5 3.2-1.4 5.1-5.4 4.7-3.2-.3-15.3-6.8-20.6-8.2-6.6-1.8-12.7-2.4-19.3-3.7-9-4.4-3-24.7-1.2-32.8 5.9-27.1 17.7-57.2 32.1-80.9 4.4-7.3 22.4-34.6 30.1-35.8 1.9-.3 5.9 2.7 7.2 1.7.3-.2.5-2.3 1.2-3.3 39.2-53 103.3-104.3 164.2-129.8s154.1-29.8 220.9-17.5c88.6 16.3 169.9 76.6 224.3 146.7.9 1.1 1.4 3.8 1.6 3.9 1.1.8 4.7-2.5 9.2-.7 10.6 4 28.1 32.6 33.9 43.1 9 16.4 17.2 36.5 22.5 54.5 2.8 9.6 10.8 38.7 7.5 47-2.6 6.6-9.8 4.4-14.6 5.4-10.5 2.1-20.7 5.9-30.3 10.7-4-.3-3.8-1.8-4.3-4.8-1-5-.9-10.9-1.6-16 7.3-4.7 15.2-8.3 23.4-11.1 1.2-15.8-7.3-32.2-14-46.2-3.5-7.3-7.7-15.2-11.7-22.3-2.6-4.6-12.2-22.3-15.1-24.9-1.4-1.2-1.7-1.3-3.5-1.5-4.7-.6-14.1-.2-19.1 0-16.1.8-32 3.5-47.5 8 11.2-12.3 27.1-20.9 42-28.1-3.7-19.6-19.7-36.2-34-49.5-46.6-43.4-138.5-93.1-201.7-101.3-80.3-10.4-144.1 5.6-214 43.7-32.5 17.7-93.8 58.5-110.9 91.1-1.5 3-6.6 13.3-4.5 15.5 9 5.4 19.4 10 28 16.1 1.2.9 14.6 11.2 13.1 12.4-21.8-6.9-45.1-8.9-68-7.5-3.8 1.8-26 44.1-29.2 50.8-4.8 10.3-15.4 32.2-12.9 43l22.9 10.8c.5 5.6 0 11.3-.7 16.8" class="outline" data-original-prefix="outline"/></g></g><g id="05_Right Ear" data-trait="metal plate"><defs></defs><path id="fill-ear-rt1" class="fill"  fill="#fff" d="M1377.6 547.4c2.3 6.6 3.6 12.4 6.1 17.5 6.5 13.5 4.8 27.4 2.5 41.2-3.2 19.5-6.4 39.1-13.2 57.9-3.3 9.2-8.5 17.3-13.9 25.3-1.5 2.2-2.5 2.9-4.8.7-20.6-19.9-41.3-39.8-62.1-59.5-10.2-9.7-16.3-22-23.4-33.9-7-11.7-8.5-23.2-6.9-36.4 1.4-12 3.7-23.6 6.4-35.3 1.1-4.8 3.4-9.1 6.4-12.9 24.1-29.8 46.5-60.9 71.6-90 35-40.6 76.6-73 121.4-101.8 24.5-15.7 49.1-31.4 74.2-46.2 41.6-24.6 84.1-47.6 128-67.7 15-6.9 30.7-11.9 46.3-17.4 3.4-1.2 3.1.7 3.2 2.7 1.1 18.7 1.2 37.3-.8 55.9-2.3 21.9-5.7 43.6-9.7 65.2-.5 2.6-1 5.3-2.5 7.5-16.6 24.4-23 52.5-29.7 80.6-5.6 23.6-8.8 47.5-8.3 71.8.4 23.5-5 45.9-11.3 68.2-8.9 31.8-17.7 63.7-33.7 92.8-26.5 48.2-58.6 92.2-101.2 127.8-14.8 12.4-31.7 21.5-48.6 30.5-16.8 8.9-32.5 19.7-48.8 29.3-2.9 1.7-4.5 4.1-5.6 7.2-6.8 20.2-14.8 40-25.4 58.5-6.8 12-14.3 24-25.1 33.3-5.2 4.5-9.8 9.5-14.7 14.3-17.3 16.9-36.3 31.5-59.2 39.8-7.1 2.6-15.4.2-20.9-4.7-10.4-9.3-19.3-20.2-28.2-31-1.3-1.6-1.2-2.7 0-4.2 14.7-20.3 21.8-43.9 28.4-67.6 2-7.3 5.3-13.9 10.4-19.7l94.2-106.8c7.9-8.9 8.4-16 1-24.7-1.9-2.2-1.1-3.2.6-4.2 3.8-2.3 4.3-5.7 4.3-9.8 0-24.3 6.1-47.4 14.7-70 .9-2.5 2.3-4.8 3.8-7 4-5.8 7.5-6.4 13.5-2.5 3.4 2.2 6 5.2 8.4 8.5 11.2 15.9 15.9 33.4 14.5 52.8-1.2 16.8-6.8 32.1-14.4 46.9-.8 1.6-1.8 3.2-2.7 4.8v1c2 .4 3.5-.8 5-1.6 24.5-12.7 47.8-27 68.4-45.7 6.6-6 10.3-12.3 11.7-21.3 4-26.6 11.6-52.3 20.6-77.6 6.3-17.8 15.8-33.7 27-48.8 1.9-2.6 1.9-4.2 0-6.9-7.6-11.5-10.5-24.6-10.9-38-1.5-44.6 10.6-85.5 33.7-123.5 21.9-36 50.4-65.2 86.2-87.4 5.4-3.4 9.9-7.3 12.8-13.4 5.3-10.9 11.4-21.4 18.4-31.2-1.1-1-1.8-1.1-2.6-.5-6.4 4.2-13.3 7.8-18.6 13.4-5.6 6-12.4 10.1-19.7 13.3-5.6 2.5-10.2 6-14.6 10.3-14.6 14.4-29.1 28.9-44.3 42.7-36.2 33.1-61.5 73.3-79.3 118.6-2 5.2-2.6 9.8-1.4 15.3 4.3 20.9 7.2 41.9 8 63.2 1.3 34.4-6 66.8-20.4 97.8-4.8 10.3-9.2 20.7-16.3 29.7-3.7 4.8-7.9 9-13.2 12-8.1 4.6-15.4 2-18.3-6.9-1.8-5.4-2.9-10.9-4-16.5-3.4-16.7-9.5-32.5-14.5-48.8-.7-2.4-2.2-4.1-4.1-5.5-17-11.8-35.1-21.6-54.3-31.8v.4Z" class="fill" data-original-prefix="fill"/><path id="fill-panel-ear-rt" class="fill"  fill="#fff" d="M1253.2 614.5c2.9 6.9 5.4 12.8 8.9 18.2 4.9 7.5 11.1 13.7 18.2 19 23.1 17.5 45.5 35.9 66.5 55.9 5 4.8 11.1 8.4 16.5 12.9 9.2 7.6 9.8 12.8 1.5 21.1-27.3 27.4-52.9 56.5-81.2 82.7-11.8 11-18.6 24-22.4 39.1-2.2 8.7-4.6 17.4-7 26-3.6 12.8-10.1 24.2-18.1 34.7-.8 1-2.1 2.1-2.1 3.3-.3 5.1-3.3 4.6-6.5 3.4-16.4-6.3-33.1-12.1-47.2-23.1-2.2-1.7-3.7-3.7-4.5-6.4-2.5-8.6-5-17.2-7.7-25.7-3.1-9.9-1.1-19.2 3.1-28.1 18.3-39 35.9-78.4 57.5-115.6 5.2-8.9 6.5-18.3 8.2-27.9 4.4-26.2 9.6-52.2 14.8-78.2.7-3.4 1-6.8 1.6-11.3zm-3.9 277.5c.3-11.1-6-17.9-17.1-18.3-10.9-.4-20.5 9.3-21 21.1-.4 10 8.2 20.1 17.4 20.5 10.5.5 20.3-10.7 20.7-23.3m84.1-129.6c8.2 0 15.9-6 18.6-14.7.9-2.7.8-5.6 1.2-8.3 1-6.6-1.5-11.7-6.9-15.3-5.3-3.4-11.1-4-16.4-.4-6.7 4.6-11 11-11.9 19.3-1.1 10.2 6.2 19.3 15.4 19.4" class="fill" data-original-prefix="fill"/><path id="fill-stud2-ear-rt" class="fill"  d="M1222.6 893.9c0-6.9 4.2-10.7 12-10.9 4.2 0 7.9 3.9 8 8.6 0 6-5.5 12.2-11 12.3-5 0-8.9-4.2-9-9.9Z" class="fill" data-original-prefix="fill"/><path id="fill-stud1-ear-rt" class="fill"  fill="#fff" d="M1346.9 742.3c0 7.5-3.9 11.8-10.2 11-4.2-.5-7.1-2.6-7.9-7.1-.9-4.9-.5-9.6 2.6-13.8 3.6-5 10-4.6 13.1.7 1.6 2.8 2.5 5.8 2.4 9.1Z" class="fill" data-original-prefix="fill"/><path id="outline-shading-ear-rt1" class="outline"  fill="#000" d="M1234 709.1c0-8.2 2.4-16.1 3.1-24.2.2-2.8 2.5-2.8 4.3-3.3 11-3.2 22-6.3 33.5-9.7-3-3.7-6.5-5.6-9.7-7.8-9.1-6.1-14.1-14.8-16.7-25.1-.4-1.6-.4-3.3 0-4.9 3.2-21.4 6.5-42.8 9.8-64.2 0-.8.5-1.5 1-2.7 9.2 13.9 18.9 26.7 29.6 38.9 11.3 12.8 23.3 24.8 37 35 8.7 6.5 8.8 6.4 13.9-2.9 12.3-22.1 21.4-45.5 26.4-70.3 1.8-9.1 6.1-16.5 11.8-23.7 5.1-6.4 9.8-9 18.4-7.5 17.5 3.2 35.1 6.1 52.2 11 3.3 1 5.3.6 7.1-2.7 6-10.8 11.3-21.8 16.7-32.9 5.5-11.5 4.3-23.8 5.8-35.7 1-7.9 1.5-15.9 2.3-23.9.3-2.4.6-5 2-7.1 19.9-30.6 37.9-62.4 61.1-90.7 7.9-9.7 16.2-19.1 24.7-28.2 5.6-6 11.7-11.4 18.5-16 20.4-13.8 40.7-27.7 61.7-40.7 6.3-3.9 13.1-7.2 19.7-10.7 1.3-.7 13.8 1.7 14.7 2.8 1.1 1.3 0 2.5-.4 3.7-5.4 11.3-13 21.3-21.1 30.6-35.9 41.5-59.7 89.4-76.7 141.1-9.4 28.6-10.2 57.9-5 87.4 2 11.4 2.5 22.2-3.6 32.8-4.9 8.6-7.6 18.4-11 27.8-.2.6-.5 1.2-.7 1.9-.7 2.9-.3 6.2 1.6 7.9 1.7 1.5 4.3-.9 6.2-2.1 5.5-3.5 9.2-8.7 12.8-13.9 16.4-23.6 29.2-49.2 41.9-74.9.8-1.6 1.6-3.2 2.5-4.9 1.6 1.2.7 2.5.4 3.6-18.6 72.5-47.8 140.1-92 200.8-1.5 2-3 4.1-4.9 5.6-26.6 20.3-54.8 37.9-87.2 47.5-12.3 3.6-24.7 6.2-37.7 6.5-16.4.5-27.4 10.7-35.5 23.7-9.2 14.8-17.2 30.5-25.8 45.6-16.6 29.1-32.9 58.5-54.7 84.1-8.9 10.4-13.5 21.8-16.6 34.4-1.3 5.3-2.8 10.5-4.2 15.9 2.4 0 3.3-1.5 4.5-2.5 32.7-28.3 61.9-60.1 90.7-92.3 1.8-2 3-4.4 3.9-6.9 4.4-12.5 9.7-24.7 11.4-38.1.9-7.1 5.4-11.6 13.1-13.9 37.6-11.1 71.6-30.2 106.2-47.9 19.9-10.2 38.5-22.6 55.5-37.1 7.1-6 13.8-12.5 20.8-18.8-3.1 4-6 8-9.2 11.9-17.4 21.1-36.9 40-60.1 54.9-14.5 9.3-30 16.9-44.8 25.7-11.4 6.7-22.6 13.9-33.9 20.8-1.7 1-2.5 2.5-3.2 4.2-10.5 24.5-21.1 48.9-31.5 73.4-1.7 4.1-4.1 7.5-7.4 10.5-26.6 24-53.2 48-79.6 72.2-2.7 2.5-5 2.9-8.4 1.9-13-3.7-26-7.2-39.1-10.6-3.2-.8-5.2-2.2-6.5-5.3-4.4-10.5-12.9-17.6-21.5-24.4-4.1-3.2-7.5-7.3-11.9-9.7-9.8-5.4-20.1-10.1-31.5-10.8-2.6-.2-3.8-1.1-4.8-3.4-7.1-16.1-14.3-32.3-21.6-48.4-.7-1.6-1.1-3-.4-4.8 4.8-11 9.5-22 14.2-33 2 .4 1.4 1.9 1.5 2.8 3 17.7 12.1 33 19.3 49 2 4.4 4 8.8 6 13.1.9 1.8 1.8 3.8 4.1 3.9 2.4 0 3.2-2.3 3.3-3.8.7-9.5 7.6-14.6 13.6-20.8 14.3-14.7 25.5-32 36.9-49 14.1-21 27.9-42.2 42.8-62.8.6-.8 1-1.7 1.9-3.1-38 8.1-74.4 19.5-112.2 29.5 1.2-2.6 2-4.5 3-6.3 6.5-12.2 12.5-24.6 17.8-37.4 1.3-3.1 3.1-4.6 6.3-5.5 26.2-7.5 52.3-15.4 78.6-22.5 7.7-2.1 12.8-5.8 16.6-12.6 3.9-7.1 4.3-7-2.4-11.5-5.4-3.6-10-9.9-16.2-10.1-5.8-.2-11.9 3.8-17.8 5.9-13.8 5-27.5 9.9-41.3 14.9-1.2.4-2.4 1.2-3.8.7Zm-4.8 193.4c-2.3-7.7.9-13.2 7.1-17.3.8-.5 2-.8 1.4-2.1-.4-.9-1.4-.7-2.2-.7h-4c-5.4.2-8.8 4.9-9.9 12.7-.9 6.2 3.2 6.7 7.6 7.5Zm99.6-156.5c3.6-11.8 8.3-14 18.6-9.9 0-8.6-4-9.5-11.3-8.7-6.7.7-9.7 8.2-7.3 18.6" class="shading" data-original-prefix="shading" opacity=".2"/><path id="outline-ear-rt3" class="outline"  fill="#000" d="M1735.4 208.8c1.6 15.9 0 30.4-1 44.8-1.6 25.4-2.3 50.9-6.5 76.1-1.4 8.3-3.6 15.7-9.6 22.4-8.9 9.8-14.3 21.7-17.9 34.7-7.3 26.5-11.5 53.4-12.3 80.8-.2 7.9.6 15.6 4.1 22.9 2.2 4.5 2.2 9.2 1.2 14.1-15.2 75.4-46.3 144.2-89.1 207.6-20.5 30.3-47 55.3-76.8 76.5-21.1 14.9-42.4 29.5-66.1 40.1-9.4 4.2-16.1 11.1-21.6 19.4-12.5 19.2-23.7 39-30.4 61.1-2.1 6.7-5.7 12.5-11.6 16.5-20.1 13.7-36.9 31.2-53.7 48.5-9 9.3-20.7 12.5-31.8 17.7-5.9 2.8-11.3 2.2-17.2.4-10.5-3.1-21.1-5.8-31.4-9.8-3.1-1.2-5.4-2.9-7.4-5.6-5.8-7.9-11.9-15.7-17.7-23.6-3.5-4.7-7.9-8-13-10.7-14.4-7.8-29.7-13.3-45.8-16.4-6.3-1.2-10.8-4.8-14.2-10.1-11.8-18.5-18.2-39-23.2-60.1-1-4.3.5-7.9 1.9-11.5 3.1-7.8 8.3-14.4 13.2-21.1 22.9-31.6 41.9-65.3 56.9-101.3 18.9-45.4 25.1-93 23.3-141.8-.2-5.4-.4-10.6 4.4-14.6 1.6-1.4 1.6-3.9 1.7-6.1.4-10.7 1.2-21.3 1.3-32 0-6.6 1.8-11.9 5.7-17.4 19.4-27.1 38.8-54.2 59.1-80.6 28.6-37.4 61-71.4 93.4-105.5 1.9-2 4.1-3.9 6.4-5.5 64.7-45.2 132.5-84.7 206.2-113.5 27.3-10.6 54.4-22.1 82.7-29.7 7.9-2.1 15.9-3.8 23.9-5.4 6.9-1.3 7.4-.7 9.5 5.9 3.5 11.2 3.1 22.7 3.3 32.7 0 .1 0 0 0 0Zm-357.8 338.6c19.2 10.2 37.3 20 54.3 31.8 1.9 1.3 3.4 3 4.1 5.5 4.9 16.2 11.1 32.1 14.5 48.8 1.1 5.5 2.2 11.1 4 16.5 2.9 8.8 10.2 11.4 18.3 6.9 5.3-3 9.5-7.2 13.2-12 7-9.1 11.5-19.5 16.3-29.7 14.4-31 21.7-63.4 20.4-97.8-.8-21.4-3.8-42.4-8-63.2-1.1-5.5-.6-10.2 1.4-15.3 17.8-45.3 43.1-85.5 79.3-118.6 15.1-13.8 29.6-28.3 44.3-42.7 4.3-4.3 9-7.8 14.6-10.3 7.3-3.3 14.1-7.4 19.7-13.3 5.3-5.6 12.2-9.2 18.6-13.4.8-.5 1.6-.4 2.6.5-7.1 9.8-13.1 20.3-18.4 31.2-3 6.1-7.4 10.1-12.8 13.4-35.8 22.1-64.4 51.4-86.2 87.4-23.1 38-35.3 78.9-33.7 123.5.5 13.4 3.4 26.5 10.9 38 1.8 2.7 1.8 4.3 0 6.9-11.1 15.1-20.7 31-27 48.8-8.9 25.3-16.5 51.1-20.6 77.6-1.4 9-5.1 15.3-11.7 21.3-20.6 18.7-43.9 32.9-68.4 45.7-1.5.8-3 2-5 1.6v-1l2.7-4.8c7.7-14.7 13.2-30 14.4-46.9 1.4-19.4-3.3-37-14.5-52.8-2.3-3.3-5-6.3-8.4-8.5-6-3.9-9.5-3.3-13.5 2.5-1.5 2.2-2.9 4.5-3.8 7-8.6 22.5-14.7 45.6-14.7 70s-.4 7.5-4.3 9.8c-1.7 1-2.4 2-.6 4.2 7.4 8.7 6.9 15.8-1 24.7l-94.2 106.8c-5.1 5.7-8.3 12.3-10.4 19.7-6.6 23.7-13.7 47.3-28.4 67.6-1.1 1.6-1.3 2.6 0 4.2 8.9 10.8 17.8 21.7 28.2 31 5.5 5 13.8 7.3 20.9 4.7 23-8.3 41.9-22.8 59.2-39.8 4.9-4.8 9.6-9.8 14.7-14.3 10.8-9.3 18.3-21.3 25.1-33.3 10.5-18.5 18.6-38.3 25.4-58.5 1.1-3.2 2.7-5.5 5.6-7.2 16.4-9.6 32-20.4 48.8-29.3 16.9-9 33.8-18.1 48.6-30.5 42.6-35.5 74.7-79.6 101.2-127.8 16-29.1 24.7-61 33.7-92.8 6.3-22.3 11.7-44.8 11.3-68.2-.4-24.3 2.7-48.1 8.3-71.8 6.7-28.1 13.1-56.2 29.7-80.6 1.5-2.2 2.1-4.9 2.5-7.5 4-21.6 7.4-43.3 9.7-65.2 1.9-18.6 1.8-37.3.8-55.9 0-2 .2-4-3.2-2.7-15.5 5.5-31.3 10.5-46.3 17.4-43.9 20.2-86.4 43.2-128 67.7-25.1 14.8-49.7 30.5-74.2 46.2-44.8 28.7-86.4 61.2-121.4 101.8-25 29.1-47.4 60.2-71.6 90-3 3.8-5.3 8.1-6.4 12.9-2.7 11.7-5 23.3-6.4 35.3-1.6 13.2 0 24.7 6.9 36.4 7.1 11.9 13.2 24.2 23.4 33.9 20.8 19.7 41.5 39.6 62.1 59.5 2.3 2.2 3.3 1.5 4.8-.7 5.4-8 10.6-16.2 13.9-25.3 6.8-18.7 10-38.3 13.2-57.9 2.2-13.8 3.9-27.7-2.5-41.2-2.5-5.2-3.8-10.9-6.1-17.5v-.4Zm-124.4 67.1c-.6 4.5-.9 7.9-1.6 11.3-5.3 26-10.4 52-14.8 78.2-1.6 9.6-3 19-8.2 27.9-21.7 37.3-39.3 76.6-57.5 115.6-4.2 8.9-6.2 18.2-3.1 28.1 2.7 8.5 5.3 17.1 7.7 25.7.8 2.7 2.3 4.7 4.5 6.4 14.1 11 30.8 16.8 47.2 23.1 3.1 1.2 6.2 1.7 6.5-3.4 0-1.1 1.3-2.2 2.1-3.3 8-10.6 14.5-21.9 18.1-34.7 2.4-8.6 4.8-17.3 7-26 3.8-15.1 10.6-28.1 22.4-39.1 28.4-26.3 54-55.3 81.2-82.7 8.3-8.3 7.7-13.5-1.5-21.1-5.4-4.5-11.5-8.1-16.5-12.9-21-20-43.4-38.4-66.5-55.9-7.1-5.4-13.3-11.6-18.2-19-3.5-5.4-6-11.3-8.9-18.2z" class="outline" data-original-prefix="outline"/><path id="outline-ear-rt2" class="outline"  fill="#000" d="M1249.3 892c-.4 12.7-10.2 23.8-20.7 23.3-9.2-.4-17.7-10.5-17.4-20.5.4-11.9 10-21.5 21-21.1 11.1.4 17.4 7.1 17.1 18.3m-26.7 1.9c0 5.7 4 10 9 9.9 5.5 0 11-6.3 11-12.3s-3.7-8.7-8-8.6c-7.8.2-12 4-12 10.9Z" class="outline" data-original-prefix="outline"/><path id="outline-ear-rt1" class="outline"  fill="#000" d="M1333.4 762.4c-9.2 0-16.5-9.1-15.4-19.4.9-8.3 5.2-14.7 11.9-19.3 5.3-3.6 11.1-3.1 16.4.4 5.4 3.5 8 8.6 6.9 15.3-.4 2.8-.3 5.6-1.2 8.3-2.8 8.6-10.4 14.7-18.6 14.7m13.5-20.1c0-3.3-.8-6.3-2.4-9.1-3.1-5.4-9.5-5.7-13.1-.7-3.1 4.2-3.4 8.9-2.6 13.8.8 4.4 3.6 6.6 7.9 7.1 6.4.7 10.2-3.5 10.2-11Z" class="outline" data-original-prefix="outline"/></g><g id="06_Left Ear" data-trait="stitches"><path id="fill-ear-lft" class="fill"  fill="#fff" d="M326.7 182.1q1.65-.45 3.3.3l180.7 78.4c55.2 39.7 111.9 77.8 165.3 119.7l109 135.9c10.5 65.4 16 132 25.2 197.8 24.6 50.1 52.6 98.7 77.3 148.7 1.5 3.1 5.4 9.5 5.5 12.5.2 4.7-8.5 15.9-11.2 20.8-15.1 27.1-18.8 33.2-43.9 52.1-22.9 17.2-44.3 28.5-72.5 35.5-8 2-18.1 5.7-25.3.5l-82.9-79.1c-9.9-22-17.5-45.3-28.1-66.9l-154-109c-23.7-34.4-41.7-73.1-64.9-108.1-9.8-43.7-27.6-90.2-34.9-134.1-5.9-35.7-6.9-73.6-12.5-109.5-9.3-20.9-22.7-40-30.5-61.5-1-40.6-6.8-81.2-8.3-121.7-.1-3.4-1.1-11.4 2.8-12.4Z" class="fill" data-original-prefix="fill"/><path id="outline-shading-ear-lft" class="outline"  fill="#000" d="M555 465c11.2-3.5 14.9 1.4 16 12 2.1 1.8 16.5-9.5 20-10l-10.9-17.4c.3-1 1.1-1.5 1.9-2.1 1.4-1.1 16.7-10.1 17.7-10.4 7.1-1.5 9.3 8.8 11.3 13.8 1.7 1.1 8.9-4.9 9-6.4.1-3.9-9.1-10.3-6.9-16.9 3.4-1.8 14.2-13.5 16.4-13.7 5.2-.5 9.4 12.1 13 12.1.6 0 10.1-6.6 10.4-7.1 2.5-3.6-12.6-10.2-12-16.4.3-2.7 13.2-13.6 14.7-17.6 9.8.2 13 9.4 17.9 16 2.9.7 12-11.5 19.7-7.7 5.8 2.9 4.3 9.1 4.8 9.7.2.2 2.8 0 4.5 1 2.5 1.4 5.3 6.7 5.5 9.6.7 9.6-11.2 13.9-10.9 16.8.3 3.6 12.4 11 9.4 15.7-.7 1.2-6.7 4.1-8.5 5.6-7.4 6.1-8.6 13.6-17.1 2.9-2.4-3-3-8.9-7-7-.5.2-7.6 5.7-8 6-2.9 3.5-1.9 6.5-.2 10.1 1.3 2.9 7.5 8.7 5.2 10.8-4 .8-18 10.8-20.4 10.6-3.8-.3-8.8-11.5-11.9-11-1.2.2-6.5 5.8-8.7 6.5-.6 3.6 9.5 10 8.1 15.7-4.1 1.4-20.1 16.7-23 14.6-.8-.5-3-9.5-7.1-11.4-4.6-2.1-12.3 7.2-16.9 8.6-1.3 1.9 7.2 8.7 5.5 12.9-10.2 6.3-23.7 23.3-30.5 4-3.5 2.2-7.2 2.5-7 7.4.4 11.8 9.9 54.8 15 65.1.9 1.8 10.2 12.8 11.6 13.4 8.9-15.4 16-32 26.5-46.5l54-6.5c0 9.4-.3 19 1.1 28.4 3.4 21.8 18.3 36.8 29.3 54.7 16.2 26.3 28.1 50.9 41.7 78.3 8.6 17.2 17.3 34.4 26.8 51.2 5.6 3 9.3-3.8 14.3-2.3 3.7 1.1 5.7 9.7 7.2 9.8 11.3-5.3-4-10.3-2.3-18.2.8-4.2 14-14.8 18.3-14.8s7.1 6.5 10 9.1c1.7 0 7.1-10.9 8.3-12.7.5-.8.7-2.8 2.2-1.3.7.6 6.2 13.5 7.5 16 2.1 3.9 8.9 12.6 8.5 16.4-.4 4.7-6.8 10.2-7.6 13.6-.6 2.6 1.2 8 .3 12.3-1.1 5.1-7.6 14.1-13.4 14.4-5.1.2-10.1-8.1-12.9-2.7-1.4 2.8 1.9 4.8 2.9 7.1 3.8 8.6-3.7 12.3-3.3 14.3.2 1.4 15.6 20.2 18 23.1 11.4 14.1 28.9 30.4 38.4 44.6 4.5 6.8 4.6 12.1 7.6 19.4l-8 11.9c-29.4 24.7-56.9 43.6-94.7 53.3-15.7 4-23.6 7.7-27.2-12.2-11.3-7.1-23.8-14.3-34-23-9.1-7.7-27.1-24.6-34.5-33.5-3.9-4.7-10.2-16.9-14-20-3.5-2.8-12.8-2.7-9.5-11.5-1-.7-3 1.2-3.9.5-.5-.3-4.4-9.3-4.6-10-.8-3 .8-4.7.4-7.2l-17.1-43.5c-30.8-21.7-67.7-36-97.2-59.3-22.1-17.6-40.3-39.2-57.5-61.5 2.9 1.1 6 3.6 8.5 5.5 33.3 26.6 65 55.6 102.5 76.5 25.3 14.1 50.5 23.2 79 29 2.7 1.1 4.3 11.6 5.1 12.3.7.5 4-.3 5.9.6 1.5.7 2.2 4.1 3.6 4.4 1.1.3 4.4-1.9 5-3 1.1-2.2-1.4-5-.4-6.8.3-.5 8.3-6.3 9.7-7.8 1-1 4-4.6 4-5.7 0-1.2-8.9-16.3-10.4-18.6-11.6-18-24.4-21.2-43.9-28.1-20.8-7.4-48.7-11.2-67.2-18.8-10.8-4.5-44.7-26.1-52.8-34.2-6.9-7-18.2-26-23.9-35.1-11.2-17.8-21.4-36.5-30.4-55.6-2.1-4.3-12.6-31-14.1-31.9-3.6-2.3-13.8 12-21.1 6.2-2.9-2.3-2.9-7.8-7.2-6.6-2.3.6-11.1 17.2-15.8 11.3-1.2-1.5-9.4-20.6-9.7-22.8-1.6-9.4 12.8-15.7 11.7-19.8-.4-1.6-4.3-4.3-4.6-7.3-.5-5.7 9.5-9.7 13.3-13.3 2-2 5.2-7.7 5.6-7.9 3.1-1.8 7.2 4.9 9.2 4.7 1.3-.1 12.6-8.9 13.2-9.9 2.8-4.5-8.1-12.4-3.6-17.5.8-.9 7.4-3.6 9.3-4.7 1.7-.9 5.6-4.5 6.4-4.6 3.8-.8 7.5 7.4 9 7.8 1.2.4 8.3-3.9 8.9-4.9 1.3-2-2.6-4-3.6-6.5-3.3-8.1 2.4-9 4.5-13.6 2.3-5-5.4-33.6-7.5-40.5-10.2-34.4-29.6-73.9-49-104-17.3-27-36.6-39.4-45.3-72.7-.5-1.9-.9-3.8-.7-5.8 2.1-.3 3.6.3 5.4 1.1 6.9 2.9 19.6 11.2 26.5 15.5 19.8 12.2 42.8 26.9 61.4 40.6 31 22.8 73.3 79 88.5 114.5 1.3 3 3.8 7.8 4.2 10.8.6 4.6-2.3 28.2-1 29.5Zm-79.2 95.2c-1-1-5.7-2.4-7.7-3.8s-5.5-6.5-7.5-6.5c-1.5 0-9.5 6-9.4 7.3 9.4 13.5 17 33.6 33.9 38.7.1-3.3 1.3-5.8.8-9.2-.3-2.1-9.1-25.5-10-26.5Zm248 306c-6-3.3-11.6 4.7-15.3 4.7-4.8 0-10-8.3-12-7.9-3.2.6 1.9 5.3 2.2 6.7 2 7.5-4.7 12.2-3.3 15.2 24.2 26.5 48.8 52.5 75.5 76.5l8 5.5c-1.5-7.4-3.3-14.8-5.5-22-5.3-17.5-6.1-16-16.5-29.5-12-15.7-23.2-32.1-33.2-49.3Z" class="shading" data-original-prefix="shading" opacity=".2"/><path id="outline-ear-lft" class="outline"  fill="#000" d="M806 969c.3 2-2.7 3.5-4.1 4.4-13.5 8.6-43.4 19.9-59.4 20.7-7.5.4-15-.6-22.1-3-14.3-13.3-27.4-28.1-41.4-41.6-8.4-8-27.9-20-33.5-27.5-1.8-2.5-9.1-18-9.4-20.7-.5-4.7 5.6-10.5 3.3-15.3-1.9-4-10.7-2.9-13-5-1.7-1.5-7.6-16.5-9.7-20.3-7-12.7-13.1-22-25.8-29.2-43-24.6-77.7-42.6-113.5-78.5-34.8-34.8-72.6-95.9-90-142-4.4-11.8-.3-13 1.5-24.3-.4-1.7-10.4-4-12-5.2-5.6-4.2-20.7-65.1-22.6-75.4-2.6-14.5 3.6-16.6 4.6-29.5 2.6-36.6-7.3-92.6-28.2-122.9-8.1-11.7-8.8-10-11.5-25.5-6.1-34.9-11.1-107.2-6.2-141.6.4-2.5 3.3-15.8 4.5-16.7 1.7-1.2 4.6-.9 6.6-.7 37.4 3.5 114.5 37.1 150.5 53.6 50.8 23.2 121 61 164.2 95.8 21.4 17.2 40.6 44.2 60 64.1 2.5 5 .4 11.8 1.3 17.2 7 2.2 14.7 3.2 20.9 7.6 28.1 35.2 54.5 71.7 80.4 108.6 3.2 38.5 4.8 77.6 9.7 116.3 3.5 27.5 7.5 51.9 15.6 78.4 1.8 5.9 6.7 15.1 7.2 20.8s-3.3 15.2-1.8 19.8c1.1 3.3 10.8.8 13.7 1.8 11.1 29.6 25.4 58.1 41 85.5 3.1 5.5 9.6 13.2 11.7 18.3 1.9 4.7 3.5 20.4 2 25-12 13.8-21.3 38.6-35.9 49.1-5.5 3.9-12.2 6.2-17.5 10h-1v-2c2.9-4.8 7.7-9.1 10.8-13.7 9.7-14.4 18.5-34 16.1-51.8-.7-5.3-13.2-37.8-16-44-2.3-5-6.5-10-9-15-6.6-12.6-12.8-25.4-19.8-37.7l-7.9 5.1c-1.1 1.5 6.4 9.4 5.8 13.2-.3 1.7-7.3 10.5-8.9 11.2-6 2.7-7.8-11.7-9-12.5-1.4-1-12.8 7.4-13.5 9-1.7 3.7 8 13.6 7.6 18.3-2.6 1.2-10.6 9.9-12.5 9.6-3.3-.5-7.2-15.8-8.7-16.8-2-1.2-10.3 4.1-10.8 5.5-1 3.2 16.7 38.7 19.7 44 4.7 8.1 30.5 41.7 31.1 45.9.9 6.1 2 18.7 2.1 24.9s-4.7 9.9-9.1 14c-2.5 2.3-15.2 12.6-17.5 13.5-1.9.7-1.7-1-1.3-2.3 4.5-15.6 5.7-18.9 1.9-35.3-4.6-20.5-14.9-41.8-24.6-60.4-7.4-14.2-18-35.5-26.7-48.3-.5-.8-1.5-2.4-2.3-2.5l-6.4 4.4c-.6 2.5 7.8 9 6.8 12.7-.2.9-11.6 12.3-12.4 12.7-1.7.7-1.3-.7-1.7-1.2-1.7-2.4-7.4-13.3-9.3-13.7l-12.3 9.5c0 1.3 10.5 13 10.8 16.2.1 1.6-9.4 10.9-11.5 11.1-5.5.5-10.5-13.5-12.5-14.7-2.2-1.3-12.5 9.4-12.6 10.4-.3 3.6 12.2 14.7 8.8 19.1-.7 1-11.8 9.5-12.6 9.5-3.5 0-7.2-13.5-11.5-14.7-3.4-1-12.3 8-11.6 11.6.5 2.5 6.1 13.9 7.7 16.3 4 5.9 20.6 19.7 26.8 25.2 12.5 11 56.2 47.9 70.5 49.5 12.6 1.4 33.2-4.1 45.5-8ZM659 395c1.4-.3 1.6.2 2.5 1 2.9 2.5 10.6 15.3 13.2 15.9 1.8.5 10.5-7 10.2-8.3-24.3-25.1-52-47.5-80.6-67.5-47.7-33.2-104-67.4-155.3-94.7-38.6-20.6-78.3-39.9-120-53.5-3 38.2.9 78.6 8.3 116.2 3.8 19.1 12.7 27.5 19.5 44.5 13.1 33 21.4 79.3 23.3 114.7.5 8.6-.6 17.5 0 26.1 1.6 26.2 12.7 54.1 19 79.5 2.1-1.9 12.5-11 12.8-12.6.7-3.5-7.1-7.5-3.9-12.9.8-1.3 10.6-10.7 11.5-10.5 1.9 1 5.1 9.6 5.6 10 .4.3 1.7 0 2.3-.1 1-.3 13.8-11.6 15.7-13.3 9.6-9 2.1-7.2-.6-15.5-1.4-4.4 8.9-10.2 12-13l8.2 10.9c2.5-1.5 15.5-11.3 15.1-13.1-.9-3.1-7.4-9.7-6.7-13.3 3.2-.9 9.8-10.2 11.6-10.6 2.3-.5 7.5 10.7 8.5 13l12.8-8.2c-2.4-68.9-41.9-135-94.9-177.2-10.7-8.5-22.5-15.3-33.4-23.6l-22.5-39c3.2-2.9 26 18.3 29.7 20.8 7.1 4.8 15.5 7.3 22.3 12.7 40.8 40.7 81.6 73.9 109.2 125.8 4.4 8.2 19.1 37.7 19.8 45.3s-6.9 34.8-8 45.9c-.5 4.9-1.6 14.6-1 19 .2 1.5 0 2.5 1.6 3.4 3.7-3.2 24.5-12.5 26-15 1.7-2.6-8.9-12.9-7.5-14.9l15.4-8.1 7.6 13c1.4 1 23-13.9 26.5-15.9 1-1.6-6.9-10.8-6.4-13.4.3-1.8 11.2-8 13.2-9.6l8.2 12c2 .3 17.8-10.2 17.4-12.4-.4-2-9.2-9.6-8.8-12 .2-.9 11.5-10.8 12.3-10.6 2.8 1.7 8.6 13 11.1 13 7.6-4.1 14-10 20.5-15.5l-12.9-15.1c-.3-1.7 9.9-10.1 10-13.4Zm151 369c1.1.8 7.8-10.4 7.8-12.3-6.1-15.8-17-31.4-19.7-48.3-3.6-23.2-3-47.6-5.1-70.9-1.9-21.3-4.7-42.7-7-64-2-18.8-1.7-40.1-12.6-56.4-13.5-20.1-34.8-45.3-50.5-64.5-7-8.6-14.5-16.9-21.4-25.6-4.1-2.8-9.4 5.1-13.1 7-1 2.1 8.7 10.2 8.5 13.4-2.4 1.4-11.8 11-13.9 9.6-.1-.1-.5-2.3-1.2-3.3-2.4-3.2-5.2-6.2-7.4-9.7l-22.5 16 9 15.4c-2.4 1.2-11.1 9.2-12.6 9.5-2.4.6-7.3-12.3-10-13.9-2.8 1.8-18.5 10.8-18 13 .6 2.4 8.7 13.2 7.5 14.9-3 .4-14 9.4-15.9 8-.7-2.5-6.4-14.2-8.4-13.9l-25.7 14.9c-.7.9 6.7 11.4 6.9 13.7.2 2-12.5 9.1-15.2 8.2-2.5-.8-4.6-10-7.2-11.9l-36 22c-1 1.7-.7 10.9-.5 13.5 1.7 25.2 25.4 94.1 47.7 107.3 7.9 4.7 15.7 4.1 19.5-5.1s5.4-24.4 8.3-34.7c1.8-6.4 9-30.9 12-35 2.3-3.1 13.2-9.4 17.2-11.8 12.5-7.8 25.9-15 39.3-21.2 1 1.1-9.1 24.9-9.8 28.7-3 17.6 8 69.1 14.8 86.8 6.8 17.9 15.5 25 25.5 39.5 21.7 31.6 40.5 66.1 58.7 99.9 1.1.8 10.8-3.8 11.5-4.9 2.1-3.3-5.9-11.1-5.4-13.4.2-1.1 12.4-10.6 13.8-9.6.6.4 4.3 11.7 6.5 12.9 2-2.8 10.6-7.8 12-10 2.5-3.9-5.8-11.2-6.4-15.4 11.1-10.2 11.5-16.9 18.9 1.4Zm-261.3-79.7c-1-1-3-1-4.2-2.3-2.4-2.7-9.6-43.6-11.6-51.4-7.5-29.1-17-55.5-33.3-80.7-1.7-2.6-9-11.1-8.5-13.2.5-1.7 5-4.9 4.9-8.2 0-1.1-5-8.6-6-9.1-1.5-.8-14.9 8.4-15.1 9.2-.9 4.4 10.4 14.6 9.1 16.3-3.2-.1-14.8 9.8-16 9-1-2.1-7.7-13.3-9.5-13-2.6 3.6-21.8 16.3-22.5 18.6-1.2 4 8.7 11.8 6.5 15.3-.4.7-11.2 10.1-11.9 10-2.9-1.4-7.2-12.4-10-11.9-1.1.2-14.6 13.7-14.7 16.4 10.5 33 27.8 63.2 47.7 91.4 17.3 24.6 39 51.5 61.4 71.6 32.7 29.4 75.5 45.7 111.6 70.4 4.5 7.2 4.1 14.9 7.4 22.6 3 6.8 8.6 13.3 11.1 20.4 1.6 1.1 11.5-6.1 11.9-7.6.9-3.5-8.9-10.4-5.9-13.8.7-.8 13.6-8.7 14.4-8.6 1.8 1.7 5.1 8.7 6.6 9.6 2.5 1.6 10.2-6.9 13.1-8.2.6-3.9-8.4-9.1-5.1-12.9.7-.7 11-8.3 11.7-8.4 3.2-.5 5.7 8.5 8.8 8.9.7 0 10.7-7.5 11.1-8.1 2.2-3.5-6.4-8.3-5.4-12.3.2-.7 10.1-9.9 10.9-10.3 3.5-1.8 8.3 10.2 10.5 10.4 1.1 0 8.7-5.3 8.1-7.8-1.4-5.5-14.2-23.2-18.2-28.9-16.3-23-35.6-43.7-53.6-65.4-1.2-23.1-5.1-49.1-14.6-70.4-7.4-16.6-14.9-16.2-25.6-2.2-18.5 24.1-18.3 56.3-8.1 83.9 2.8 7.6 7.3 14.6 10.5 22-1.1 1-13.5-5.7-15.7-6.8-22.8-12.2-43.5-26.7-61.6-44.9Z" class="outline" data-original-prefix="outline"/></g><g id="07_Head" data-trait="horny"><path id="fill-head2" class="fill"  fill="#fff" d="M782 505c1.3 1-14.2 15.5-15.5 17-4.3 4.8-10.6 11.6-14.5 16.5-4.9 6.2-6.9 14.3-11.6 20.4-1.9 2.4-7.4 6.2-8 7.1-.4.6-.2 7-1 10-2.7 9.5-14.5 26.1-16.2 34.8-.9 4.5.5 11.7-.5 17.5-1.2 6.6-5.5 12.8-6.5 17.5-1.1 5 .3 12-.5 17.5-.8 5.9-5.3 12.5-5.8 17.2-.5 5.2 1.5 11.9 1.1 18-.2 4-1.8 8.2-2 12-.7 11.2 6.1 21 6.1 33s-1.9 7.9-.9 12.8c.7 3.5 4.9 7.8 6.3 11.7 1.1 3.4 1 7.3 2.3 10.7s4.1 5.3 5.4 8.6c1.6 3.8 1.2 8.2 2.6 11.4 1.6 3.8 7.5 5.9 10.3 8.7 7.2 7.3 5.5 15.9 10 22 4 5.6 14.8 8 20.5 12.5 6.3 4.9 9.7 14.4 15.2 17.8 8.7 5.4 21 6 31.3 13.7s12.8 21.1 19.6 26.4c10.1 7.9 20.1 7.2 31.5 19.5 23.5 25.2 34.5 59.9 19.2 92.2-7.6 16-47.9 37.3-65 42-24.8 6.9-64.9 3.3-87.9-8.5-15.5-8-11.7-15-21.8-23.2-4.3-3.5-12.2-6.6-16.2-10.3-8-7.6-11.1-22-21-27.5-2.5-1.4-5.6-1.7-8-3-12.7-6.8-21.1-12.3-24.8-27.2-1.6-6.3-.5-15.5-2.2-19.8-2-5-10.2-7.9-13.7-11.3-8.8-8.3-18.5-36.5-18.6-48.5 0-7.3 5-15.7 4-21.9-.5-3.2-6-10.1-7.8-14.2-5.6-13-9-31.9-4.9-45.6 2.6-8.6 8.7-13.7 7.6-23.2-1.9-16.5-6.8-25.6-.4-43.6 3-8.6 10.9-15.5 13.3-21.7 4.4-11.5-.2-26.2 10.8-38.2 2.2-2.5 8.7-5.4 9.9-8.1 1-2.3 1-6.8 2-10 2.2-7 5.9-16.9 10.5-22.5 2.5-3.1 7.9-5.8 9.4-8.6 2.5-4.7 1.4-10.5 5.2-16.8 4.1-6.9 10.6-8.4 13.9-13.1 6.2-8.8 7-18.5 17-28 5-4.8 14.2-8.5 18.6-13.4 7.8-8.8 6.5-12.6 18.7-20.3 15-9.6 35.7-17.8 53.3-20.2z" class="fill" data-original-prefix="fill"/><path id="fill-head1" class="fill"  fill="#fff" d="M1256.3 505c17.6 2.4 38.3 10.6 53.3 20.2 12.1 7.7 10.9 11.5 18.7 20.3 4.3 4.9 13.6 8.7 18.6 13.4 10 9.5 10.8 19.2 17 28 3.3 4.8 9.8 6.3 13.9 13.1 3.8 6.4 2.7 12.1 5.2 16.8 1.5 2.8 6.9 5.5 9.4 8.6 4.6 5.6 8.3 15.6 10.5 22.5 1 3.2 1 7.6 2 10 1.2 2.7 7.6 5.7 9.9 8.1 11 12 6.4 26.7 10.8 38.2 2.4 6.2 10.2 13.1 13.3 21.7 6.4 18 1.5 27.1-.4 43.6-1.1 9.5 5.1 14.6 7.6 23.2 4.1 13.7.8 32.6-4.9 45.6-1.8 4.1-7.3 11-7.8 14.2-1 6.2 4.1 14.6 4 21.9 0 12-9.8 40.2-18.6 48.5-3.6 3.4-11.7 6.3-13.7 11.3-1.7 4.3-.7 13.5-2.3 19.7-3.7 14.9-12.1 20.4-24.8 27.2-2.4 1.3-5.5 1.5-8 3-9.9 5.5-13 19.9-21 27.5-3.9 3.7-11.8 6.8-16.2 10.3-10.2 8.2-6.3 15.2-21.8 23.2-23 11.9-63.1 15.4-87.9 8.5-17.1-4.7-57.4-26.1-65-42-15.3-32.3-4.3-67 19.2-92.2 11.4-12.2 21.4-11.6 31.5-19.5 6.8-5.3 9.3-18.6 19.6-26.4s22.6-8.3 31.3-13.7c5.5-3.4 8.9-12.9 15.2-17.8 5.7-4.5 16.4-6.9 20.5-12.5 4.4-6.1 2.7-14.7 10-22 2.8-2.8 8.7-4.9 10.3-8.7 1.4-3.2 1-7.6 2.6-11.4 1.4-3.3 4.1-5.2 5.4-8.6s1.2-7.3 2.3-10.7c1.3-4 5.5-8.2 6.3-11.7 1-4.9-.8-8.4-.9-12.8 0-11.9 6.8-21.8 6.1-33-.2-3.8-1.8-8-2-12-.4-6.2 1.6-12.8 1.1-18-.5-4.8-5-11.3-5.8-17.2-.8-5.6.7-12.6-.5-17.5-1.1-4.7-5.4-10.9-6.5-17.5-1-5.8.4-13-.5-17.5-1.7-8.7-13.5-25.3-16.2-34.8-.8-3-.7-9.4-1-10-.5-.9-6.1-4.7-8-7.1-4.7-6.1-6.7-14.2-11.6-20.4-3.8-4.9-10.1-11.8-14.5-16.5-1.3-1.5-16.8-16-15.5-17h-.2Z" class="fill" data-original-prefix="fill"/><path id="outline-shading-head4" class="outline"  fill="#000" d="M873 1019v-21.5c0-.9-2-5.2-2.5-6.5-2.9 4.4-4.6 11.4-10.5 13-.7-17.7 5.6-39-6.5-54-1.2 0-2.6 10.7-3.2 12.8-2.3 7.7-9 18.6-13.9 25.1-1.8 2.4-4.4 6.3-7.4 6.6 2.4-7.3 6.5-14.1 8.5-21.5 2.8-10.4 4.6-29.6 2-40-1.1-4.2-3-8.2-5-12-3.2 7.9-4.7 16.1-8 24-11.3 27.1-34.6 60.7-59 77-1.9 1.3-11.4 6-11.6 6.6-1.7 7 5.2 15.6 10.7 19.2 8.9 5.6 20.5 4.4 30.3 6.7-11.1 4.8-26.5 4.3-38.4 2.4-10.8-1.8-33.4-11.4-40.6-19.4-16.1-17.8-28.9-38-47-55-6.5-6.1-20.5-15.3-25-22-4.9-7.2-7.2-19.8-12.2-27.8s-17.1-15.8-20.7-22.3c-1.8-3.3-6.4-27.8-7-33-1.4-11.3.7-27.9-1.3-37.7-1.5-7.1-10.9-14.2-10.9-23.2 0-15.4 6.5-32.8 7-46.2.2-7-3.2-15.3-3-22.9s5.7-26.2 8.6-33.5 8.7-14.1 10.8-21.2c4.7-16 .5-16.8 13.2-30.8 1.7-1.9 8.8-7.4 9.1-8 .4-.7-.9-12.6-.3-16.3.4-2.3 5.9-13.3 7.3-15.7 2.1-3.4 9.3-8.4 10.9-11.1s.7-10.1 5.5-16.5c3.1-4.2 13.7-10.1 14.5-11.5.9-1.6.2-4.1 1-6 5.2-13.8 13.3-18.2 23.6-27.4 4.8-4.3 7.7-7.4 12-12 11.4-12.5 39.7-32.3 56.7-33.5 8.7-.6 6.4 8.3 3.2 13.3-5.4 8.4-19.2 18.2-25.8 27.2-3.8 5.1-5.9 14-9.5 18.5-1.4 1.7-4.3 2.7-5 4-1.2 2.6-3.1 14.2-5 19-9.6 24.1-16.2 38.2-21.2 64.8-3.4 18.1-2.5 29.3-3.2 46.8-.4 8.4-3 18.4-2.9 26.8.5 36.8 14.8 58.8 32.1 88.9 8.8 15.3 11.2 19.9 24.8 32.2 16.1 14.6 32.2 21.9 48.9 34.1 12.1 8.8 29.8 23.1 41.1 32.9 28 24.5 45.5 63.3 30.8 99.8-1 2.6-2.5 6.8-5.8 6.7h-.2ZM763 515c-1.3-1.2-24.4 11.2-27.3 13.2-6.3 4.2-11.8 10-15.7 16.3 5.2 3.1 7.9 6 10.5 11.5zm-51.2 40.2c-7.3 1-24.9 18-24.7 25.3 0 3.7 5.7 4.5 7.9 6 9.6 6.7 13.3 19.2 21.5 3.3 4.3-8.3 11.8-37.1-4.6-34.7h-.1Zm-13.6 77.6c6.8 3.9 7.3-14.4 6.7-18.2-1.2-8.7-12.5-22.1-21.6-22.5-7.2-.4-18.8 10.4-15.6 17.7 1.7 3.9 6.3 3.4 9.9 5.1 4.8 2.3 10.6 6 14.3 9.7s5.7 8 6.2 8.3Zm-49.1 13.1c.9 1 21.3 6.6 25.8 8.7 2.1 1 5.1 2.7 7 4 2.4 1.6 10 9.2 10.7 9.4 2.4.5 4.1-5.9 4.3-7.5 2.2-17.3-14.7-41.4-33.3-38.4-4.1.7-12.8 10.3-14 14-.6 1.7-1.1 9.1-.4 9.9Zm3.6 13.3c-11.3 1.9-17.2 17.1-15.8 27.3 1 7.2 5.5 3.2 9.5 3.4 9.9.5 20.4 2.3 29.8 5.3 4.2 1.4 12.7 8.2 14.5 0 4.3-19.3-20.7-39-38-36.1Zm26 55.1c-11.5-13.5-37.2-10-48.1 2.7-6 6.9-12.9 29.9-2.5 34.5 2.7 1.2 25.8-6.9 30.9-8.1 6.5-1.5 20.4-.4 23.3-7.7 2.2-5.4.2-16.9-3.6-21.4M681 792c3.6 0 19-9.5 13-13.6-1.2-.8-12.2-.6-14.6-.5-2 0-14.5 3.5-14.4.5 0-2.7 26.6-5 28-13 .8-4.6-2.9-7.8-7-9-10.4-3.1-38.3-.4-48.8 3.3-35.6 12.4-33.6 56.7 4.2 63.2 18.7-9.3 36.1-22.9 57.6-25l-5-3.5-13-2.5Zm27 20c-3.2-.5-6.2-2.1-9.5-2.1-16.5 0-62.3 21.2-64.5 39.5-1.6 13.6-1.2 31.8 11.3 39.7 13.9 8.8 20.7 3.3 32.2-6.2 6.9-5.8 12-13.9 18.5-19.5 5.7-5 24.4-16.2 25.8-23.2.3-1.4.3-2.8.2-4.3-5.6-.5-10.7.4-16 2 1.5-4.2 5.1-5.8 5.8-10.8 1.7-12.2-13.6-8.6-15.8-10.2-3.4-2.5 7.7-2.9 8.5-3 1.5-.2 3.1 0 3.5-2Zm29.8 42.2c-21 2.3-57.5 40.1-63.3 59.7-6.3 21.2 15.2 42.3 36.5 35.5 11.3-3.6 28.2-24.4 34.4-34.6 2.8-4.6 11.8-21 12.5-25.5 2.1-13.4-2.4-37.2-20.2-35.2ZM761 931c3.6-17.5 12.6-33.9 13-52-1.3-1.9-4.3 12.6-4.7 13.8-8.5 24.6-28.2 46.1-40.7 68.3-2.8 5-9.1 15.6 0 17.7 11.2 2.5 23.6-8.2 34.3-10.8 1.1 1.1-4.6 6.2-5.5 7-6.3 5.1-15.3 7.3-18.5 16 9.2-2.7 18.4-6.3 25-13.5 14.5-15.9 33.4-50.3 34.1-72 0-1.5.3-7.7-2.4-7.3-16.8 2-20.5 27.3-34.7 32.8Zm-6 81c6-.2 14.7-6.1 19.5-10 13.1-10.7 37.8-52.5 41.1-68.9 2.2-11.2 3.2-26.1-3.1-36l-8.5 34.5c-11 28.8-28.7 59.3-59 70.5.3 1.8 5.2 1.1 6.5 1 4.9-.4 9.5-2.5 14.5-2 2 1.8-10.4 9.1-11 11Z" class="shading" data-original-prefix="shading" opacity=".2"/><path id="outline-shading-head3" class="outline"  fill="#000" d="M832 959c2.8 3-9.7 24.4-12.6 27.9-1.9 2.3-12.7 12.7-15.4 10.1-.5-2.1.7-2.7 1.5-4 2.7-4.7 19.6-29.8 22.5-32.5 1.4-1.2 2-1.8 4-1.5" class="shading" data-original-prefix="shading" opacity=".2"/><path id="outline-shading-head1" class="outline"  fill="#000" d="M1165.2 1019c-3.3 0-4.7-4.2-5.8-6.7-14.7-36.5 2.7-75.3 30.8-99.8 11.3-9.8 29-24.1 41.1-32.9 16.7-12.2 32.8-19.5 48.9-34.1 13.6-12.3 16.1-16.9 24.8-32.2 17.2-30.1 31.6-52.2 32.1-88.9 0-8.5-2.6-18.5-2.9-26.8-.8-17.5.2-28.6-3.2-46.8-5-26.6-11.6-40.7-21.2-64.8-1.9-4.8-3.8-16.4-5-19s-3.6-2.3-5-4c-3.6-4.4-5.8-13.3-9.5-18.5-6.6-9-20.5-18.8-25.8-27.2-3.2-5-5.5-13.9 3.2-13.3 17 1.1 45.2 20.9 56.7 33.5 4.2 4.6 7.2 7.8 12 12 10.3 9.3 18.3 13.7 23.6 27.4.7 1.9 0 4.4 1 6 .8 1.4 11.3 7.3 14.5 11.5 4.8 6.4 3.9 13.8 5.5 16.5s8.8 7.7 10.9 11.1c1.5 2.3 7 13.3 7.3 15.7.6 3.6-.7 15.5-.3 16.3.3.6 7.4 6.1 9.1 8 12.7 14 8.5 14.8 13.2 30.8 2.1 7.1 8 14 10.8 21.2s8.4 25.9 8.6 33.5-3.2 15.9-3 22.9c.5 13.3 7 30.8 7 46.2s-9.4 16.1-10.9 23.2c-2 9.8 0 26.4-1.3 37.7-.6 5.1-5.2 29.7-7 33-3.6 6.5-15.8 14.3-20.7 22.3s-7.2 20.6-12.2 27.8c-4.5 6.7-18.5 15.9-25 22-18.1 17-30.9 37.1-47 55-7.2 8-29.8 17.6-40.6 19.4-11.9 1.9-27.3 2.5-38.4-2.4 9.8-2.3 21.5-1 30.3-6.7 5.5-3.5 12.4-12.2 10.7-19.2-.2-.7-9.7-5.4-11.6-6.6-24.3-16.3-47.7-50-59-77-3.3-7.9-4.9-16.1-8-24-2 3.8-3.9 7.8-5 12-2.6 10.4-.8 29.6 2 40 2 7.4 6.1 14.2 8.5 21.5-3-.3-5.6-4.2-7.4-6.6-4.9-6.5-11.6-17.4-13.9-25.1-.6-2.1-2.1-12.8-3.2-12.8-12.1 15-5.8 36.3-6.5 54-5.9-1.5-7.6-8.6-10.5-13-.5 1.3-2.5 5.6-2.5 6.5v21.5h-.2Zm110-504 32.5 41c2.6-5.6 5.3-8.4 10.5-11.5-3.9-6.3-9.4-12.1-15.7-16.3-2.9-2-26-14.3-27.3-13.2m51.3 40.2c-16.5-2.4-8.9 26.4-4.6 34.7 8.2 15.8 11.8 3.4 21.5-3.3 2.3-1.6 7.8-2.4 7.9-6 .2-7.4-17.4-24.3-24.7-25.3h-.1Zm13.5 77.6c.5-.3 5-7.1 6.2-8.3 3.8-3.7 9.5-7.4 14.3-9.7 3.6-1.7 8.2-1.2 9.9-5.1 3.2-7.2-8.4-18-15.6-17.7-9.1.5-20.3 13.9-21.6 22.5-.5 3.8 0 22.1 6.7 18.2Zm49.1 13.1c.6-.7 0-8.2-.4-9.9-1.2-3.7-9.9-13.3-14-14-18.6-3-35.6 21.1-33.3 38.4.2 1.6 1.9 8.1 4.3 7.5.7-.2 8.3-7.8 10.7-9.4 1.9-1.3 4.9-3 7-4 4.4-2.1 24.9-7.7 25.8-8.7Zm-41.7 49.4c1.8 8.2 10.3 1.3 14.5 0 9.4-3 19.9-4.8 29.8-5.3 4.1-.2 8.6 3.9 9.5-3.4 1.4-10.2-4.5-25.4-15.8-27.3-17.4-2.9-42.3 16.8-38 36.1Zm12.2 19c-3.8 4.5-5.8 16-3.6 21.4 2.9 7.3 16.8 6.2 23.3 7.7 5.1 1.2 28.2 9.3 30.9 8.1 10.4-4.6 3.4-27.5-2.5-34.5-10.9-12.7-36.6-16.3-48.1-2.7m-2.4 77.7-13 2.5-5 3.5c21.5 2.1 38.8 15.7 57.6 25 37.8-6.6 39.8-50.9 4.2-63.2-10.5-3.7-38.4-6.3-48.8-3.3-4 1.2-7.8 4.4-7 9 1.4 8 27.9 10.4 28 13 0 2.9-12.4-.4-14.4-.5-2.4-.2-13.4-.4-14.6.5-6 4.1 9.4 13.4 13 13.6Zm-27 20c.4 1.9 2 1.8 3.5 2 .8 0 11.9.5 8.5 3-2.2 1.7-17.5-1.9-15.8 10.2.7 5 4.3 6.6 5.8 10.8-5.3-1.6-10.4-2.5-16-2 0 1.4 0 2.8.2 4.3 1.4 7.1 20.1 18.2 25.8 23.2 6.4 5.6 11.6 13.8 18.5 19.5 11.5 9.6 18.3 15 32.2 6.2 12.5-7.9 13-26.1 11.3-39.7-2.2-18.3-48.1-39.6-64.5-39.5-3.3 0-6.3 1.6-9.5 2.1Zm-29.8 42.2c-17.8-2-22.3 21.8-20.2 35.2.7 4.5 9.7 20.9 12.5 25.5 6.3 10.2 23.1 31 34.4 34.6 21.4 6.8 42.8-14.3 36.5-35.5-5.8-19.6-42.3-57.4-63.3-59.7Zm-23.2 76.8c-14.2-5.5-17.9-30.8-34.7-32.8-2.6-.3-2.4 5.9-2.4 7.3.7 21.6 19.6 56 34.1 72 6.5 7.2 15.7 10.8 25 13.5-3.1-8.8-12.2-10.9-18.5-16-.9-.7-6.7-5.9-5.5-7 10.7 2.6 23.1 13.3 34.3 10.8 9.3-2.1 3-12.7 0-17.7-12.5-22.2-32.2-43.7-40.7-68.3-.4-1.2-3.4-15.6-4.7-13.8.4 18.1 9.3 34.5 13 52Zm6 81c-.6-1.9-13-9.2-11-11 5-.4 9.6 1.7 14.5 2 1.3 0 6.3.7 6.5-1-30.3-11.1-48-41.6-59-70.5l-8.5-34.5c-6.3 10-5.3 24.8-3.1 36 3.3 16.4 28 58.3 41.1 68.9 4.8 3.9 13.5 9.8 19.5 10Z" class="shading" data-original-prefix="shading" opacity=".2"/><path id="outline-shading-head2" class="outline"  fill="#000" d="M1206.2 959c2.1-.4 2.6.2 4 1.5 2.9 2.6 19.8 27.8 22.5 32.5.8 1.3 2 2 1.5 4-2.7 2.7-13.5-7.8-15.4-10.1-2.9-3.5-15.4-24.9-12.6-27.9" class="shading" data-original-prefix="shading" opacity=".2"/><path id="outline-head3" class="outline"  fill="#000" d="M772 912c-.9 0-4 7.5-4.5 9 1.1-2.3 5.6-5.6 5.5-8 0-.8-.2-1-1-1" class="outline" data-original-prefix="outline"/><path id="outline-head2" class="outline"  fill="#000" d="M1265.2 913c0 2.4 4.4 5.7 5.5 8-.5-1.4-3.6-8.9-4.5-9-.8 0-1 .2-1 1" class="outline" data-original-prefix="outline"/><path id="outline-head5" class="outline"  fill="#000" d="M816.9 1052.3c-2.6 4.2-74.2 20.2-107.3-13.5-2.5-2.5-2.4-6.6-4.8-9.2s-12.7-7.5-17-11c-9.2-7.4-13.6-16.8-15.4-25-4.6-4-17.5-7.2-23.4-11.2-17.8-11.9-18.3-21-20.3-40.7s-7.8-9-13-14c-12.5-12.1-21.5-42-20-59s3.3-10.6 3-13.9-7.3-13.9-9-19.1c-5.6-17.3-7.4-34.6-.8-51.8s4.5-5.9 4.8-10.2-2.7-12.8-3.1-19c-1-15.3 1.4-29 8.9-42.2 2.4-4.2 6.8-8.3 8.2-12.8 3.3-10.7.6-19.6 7.2-31.8 3.3-6 11.6-10.4 13.2-13.8s1.6-8.6 2.8-12.2c2.5-7.3 7.6-17.5 12.7-23.3s5.7-3.8 6.5-5.5c2.4-5.4 1.8-11 6.1-17.9s10.4-7.8 13.4-12.6 3.1-9.1 5.1-12.7c7.9-14.4 22.1-19.7 31.3-30 1.9-2.2 3.9-6.4 6.1-8.8 11.7-13.2 38-25.3 55.1-29.9 10.9-2.9 31.8-6.7 19.4 11.2-6 8.6-17.5 19.8-24.7 28.7s-9.6 11.5-14.3 17.5-6.8 5.9-9 10-1.6 10.6-3.5 16.5-10.9 20.7-12.3 26.7.8 17.8-3.8 27.2-4.8 5.3-5.2 6.8c-.8 2.6 1.2 11.9.7 16.7s-5.2 14.5-5.7 19.3 1.8 7.2 1.8 10.7c0 6.1-3.3 15.9-3.1 21s3.2 8.8 4.2 12.9c1.8 7.2 2.3 14.8 1.8 22.1s-2 6.1-1.7 7.9 6.3 7.6 7.3 11.6-.1 6.6 1.2 9.8 4.8 4.6 6.4 8.6.5 8 1.3 9.7 10.6 6.4 14 11.1 5.3 17.9 7.1 19.9 10.1 4.1 12.5 5.5c4.9 2.7 11.5 8.7 14.9 13.1s5.6 10.3 7 11c2.3 1.1 5.6.1 8.3.7 13.3 3 28 13.3 35.2 24.8s5.7 12.7 7.1 13.9 13.9 4.4 17.5 6.5c22.9 12.9 44.3 54 44 80s-8.8 25.6-18 33.5c6.8-24.6 1.7-59.8-15-79.5s-25.2-24-28-21.5c-2.2 16.7-8.5 32.3-16.5 47-13.7 25.2-43.5 63.5-72.5 70.5s-14.3 2.2-21 2.5c.6 4.4 6.2 6.1 9.6 7.9 26.1 13.5 33.7 13.7 61.8 12.4 6.4-.3 14.4-2.5 20.6-3.1Zm-70.7-511.7c2.2-2.9 6.3-6.1 8.3-9.2l16.7-18.4c1.3-7.9-43.5 15-50.5 33.6 2.7 1.6 5 3.7 7.1 6.1s1.9 6.8 5.1 3.9 10.4-12 13.4-15.9ZM722 557.3c-2.9-3.2-10.7-4.1-14.7-2s-10 8.5-11.6 10.4-12.2 14.3-10.6 17.2 9.6.4 21 11.3 4.6 4.8 7 7c1.9 0 10-24.4 11.4-27.6s-.4-13.6-2.6-16.2Zm-43.5 35c-4.2 1.1-15.4 11.7-12.3 16.8s14.4 6.4 17.1 8 7 4.4 9.5 6.5 8.1 9.6 9 10.1c4 2.2 6.7-7 7-10 1.7-13.8-4.5-24.5-16.1-30.4s-8.7-2.3-14.1-.9Zm-32.3 56.8c2.3.7 10.5 1.2 13.9 1.2s17.9 5.6 21.3 7.6 14.1 10.8 15 11.1c5.2 1.4 5.6-10.1 5.3-13.4-.9-9.6-12.1-27.5-20.5-32-12.5-6.8-21.7-3.3-29.4 8.1s-9.7 16.2-5.5 17.5Zm52.3 54.8c.4-.5 1.1-5.2 1.2-6.3 1.1-13.3-4.4-22.1-14.1-29.7-19-14.9-44.1-18.2-57.9 6.7-1.5 2.8-7.1 15.4-5.6 17.6s14.4-1.7 18.1-2c12.9-1.1 28.2.8 40.2 5.8s12 8.1 14.3 8.8 3.3 0 3.8-.8Zm.2 48.2c5.1-26.8-9.9-45.9-35.1-52.1-39.3-9.7-66.2 22.2-58.9 60.6.3 1.6 1.2 2.7 2.6 3.5 12-7.7 26.2-12.9 40.2-15.7 17.2-3.4 35.4-5.4 51.2 3.7m13 44c1.4-2-4.5-7.6-5.5-10-4.9-11.8 1.3-19-14.8-26.2-18.2-8.1-38.2-7.3-56.3-.7-33.2 12.1-41.3 42.5-29.8 74.9s4.2 11.2 6.5 10.6 16.2-13.1 19.6-15.4c17.6-11.9 46.1-24.8 66.5-30.5 2.3-.7 13.4-2.1 13.8-2.7m17.5 23.5c-18.5-23.6-57.2-7.1-77.8 5-29 16.9-48.2 39.3-35.9 75.2 3.2 9.5 15.4 27.1 26.8 19.2 6.4-4.4 22.1-21 28.5-27.5s16.6-19.5 26.5-28.5c11.8-10.7 25.8-19.7 36.1-31.9 1.5-4.3-1.6-8.3-4.1-11.5ZM689.5 880c-12.1 11.7-40.5 43.5-42.7 59.7s7.3 21.9 16 28.8c18.3 14.7 27.9 10.8 45.6-2.2s27.3-28.1 35.4-42.6c9.6-17.1 31.5-62.4 8.4-75.7s-19.9-.6-30 7.1c-10.8 8.1-23.1 15.6-32.7 24.8Zm86.2 13.6c.6-5.4 0-12.3 0-18s-1-2.9-2-2.5c-1.7 19.1-11.3 37.1-21.2 53.3-14 23-35.4 49.2-58.3 63.7-1.1.7-2.2 1.1-3.5 1 2.3 8.1 8.1 8 15.5 7 7.5-1.1 28.8-10.4 27.5-9-4.3 4.3-18.2 14.9-22 15 2.3 2.5 10.8 3.1 14.5 3.1s32.8-3.6 34.2-4.1c4.4-1.3-7 6.1-9 7.2-4 2.2-18 7.4-22.5 8.5s-8.7 1.6-13.2 1.3c-.4 1 2.3 2 2.5 2 0 0 5.6 2.1 18 0s27.4-12.5 33.8-17.2c18.2-13.4 30.2-28.9 39.6-49.4s17.4-43.6 2.1-57.4c-.4 8.7-2.2 17.5-4.7 25.8-5.4 17.9-14.9 37.9-27.5 51.8s-33.6 24.1-13 5.7c5.2-4.7 13-16.7 17-23.5 10.8-18.6 19.8-43.4 19.3-65.2-.2-6.8-9.3-15-16-15.5-2.3 17.1-4.1 31.7-16.4 44.6s-5.3 5.9-8.6 7.4c5.5-11.6 12.6-21.8 14-35.5Z" class="outline" data-original-prefix="outline"/><path id="outline-head1" class="outline"  fill="#000" d="M1243.8 1055.3c28.1 1.3 35.7 1.1 61.8-12.4s9-3.5 9.6-7.9c-6.7-.3-14.5-.9-21-2.5-29-7.1-58.8-45.3-72.5-70.5-7.9-14.7-14.3-30.3-16.5-47-2.8-2.6-25.4 18.4-28 21.5-16.7 19.8-21.8 55-15 79.5-9.1-8-17.9-23.5-18-33.5-.4-26 21-67.2 44-80 3.6-2 16.7-5.7 17.5-6.5 1.4-1.2 5.3-11.1 7.1-13.9 7.2-11.6 21.8-21.9 35.2-24.8 2.7-.6 5.9.4 8.3-.7s5.2-8.6 7-11c3.4-4.4 10.1-10.4 14.9-13.1s11.6-4.4 12.5-5.5c1.7-2.1 3-14.2 7.1-19.9s13-8.8 14-11.1-.3-5.8 1.3-9.7 5.3-5.9 6.4-8.6.4-6.4 1.2-9.8 6.9-9.5 7.3-11.6-1.6-5.4-1.7-7.9c-.4-7.4 0-15 1.8-22.1s4.1-8.9 4.2-12.9c.2-5.1-3.1-14.9-3.1-21s2.1-7.5 1.8-10.7c-.5-4.9-5-12.8-5.7-19.3s1.5-14.1.7-16.7-4-4.4-5.2-6.8c-4.6-9.4-1.9-18.7-3.8-27.2-1.4-6-10-19.7-12.3-26.7s-.7-11.2-3.5-16.5-6.3-6.5-9-10c-4.7-6-9.6-11.7-14.3-17.5-7.2-8.9-18.8-20.1-24.7-28.7-12.4-17.9 8.5-14.1 19.4-11.2 17.1 4.6 43.4 16.7 55.1 29.9 2.2 2.4 4.2 6.7 6.1 8.8 9.2 10.3 23.3 15.6 31.3 30s2.9 9.4 5.1 12.7c3.1 4.7 9.2 5.8 13.4 12.6s3.7 12.5 6.1 17.9c.8 1.8 4.8 3.6 6.5 5.5 5.1 5.7 10.2 16 12.7 23.3s1.5 9.3 2.8 12.2 9.9 7.8 13.2 13.8c6.7 12.2 3.9 21.1 7.2 31.8s5.8 8.6 8.2 12.8c7.5 13.2 9.8 27 8.9 42.2-.4 6.1-3.6 13.5-3.1 19 .4 4.3 3.4 6.6 4.8 10.2 6.7 17.2 4.8 34.5-.8 51.8-1.7 5.2-8.7 16.2-9 19.1s2.6 9.7 3 13.9c1.6 17-7.4 46.9-20 59s-12.2 5.9-13 14c-2 19.7-2.4 28.9-20.3 40.7s-18.8 7.1-23.4 11.2c-1.8 8.2-6.2 17.6-15.4 25s-13.9 7.5-17 11c-2.4 2.7-2.3 6.8-4.8 9.2-33.1 33.7-104.7 17.7-107.3 13.5 6.3.5 14.3 2.8 20.6 3.1Zm63.4-498.8c3.1 3 3.5-2 5.1-3.9s4.3-4.5 7.1-6.1c-7-18.7-51.8-41.5-50.5-33.6l16.7 18.4c2 3.1 6.1 6.3 8.3 9.2 3 3.9 10.8 13.5 13.4 15.9Zm8.1 16.9c1.5 3.2 9.5 27.6 11.4 27.6 2.5-2.1 4.7-4.7 7-7 11.4-10.9 20.4-10.3 21-11.3 1.7-2.8-8.4-14.8-10.6-17.2s-9.9-9.5-11.6-10.4c-3.9-2-11.8-1.2-14.7 2s-4.4 12.3-2.6 16.2Zm32.1 19.9c-11.6 5.8-17.8 16.5-16.1 30.4.4 3 3 12.2 7 10s6.7-8.1 9-10.1c2.5-2.1 6.6-4.9 9.5-6.5s16.6-7.1 17.1-8c3.1-5.1-8-15.7-12.3-16.8-5.4-1.4-9.6-1.3-14.1.9Zm40.8 38.3c-7.7-11.3-16.9-14.9-29.4-8.1s-19.6 22.5-20.5 32 .1 14.8 5.3 13.4 12-9.3 15-11.1 18.3-7.6 21.3-7.6 11.6-.6 13.9-1.2c4.2-1.2-3.9-15-5.5-17.5Zm-42.9 73.1c2.3-.7 9.9-7 14.3-8.8 12-5 27.3-6.9 40.2-5.8s16.4 4.4 18.1 2-4-14.8-5.6-17.6c-13.7-24.8-38.9-21.6-57.9-6.7s-15.2 16.4-14.1 29.7c0 1.1.8 5.8 1.2 6.3.6.8 2.8 1.1 3.8.8Zm47.2 43.7c14 2.8 28.2 7.9 40.2 15.7 1.4-.8 2.3-1.8 2.6-3.5 7.3-38.5-19.6-70.4-58.9-60.6s-40.1 25.4-35.1 52.1c15.8-9.1 34-7.1 51.2-3.7m-50.4 50.4c20.4 5.7 49 18.6 66.5 30.5 3.4 2.3 17.9 15 19.6 15.4s5.8-8.6 6.5-10.6c11.4-32.4 3.3-62.7-29.8-74.9-18.1-6.6-38.1-7.4-56.3.7-16.1 7.2-10 14.4-14.8 26.2s-6.9 8-5.5 10 11.4 2.1 13.8 2.7m-35.4 32.3c10.3 12.2 22.1 21.8 33.9 32.6 9.8 9 19.7 18.8 28.7 27.9 6.4 6.5 22.1 23.1 28.5 27.5 11.3 7.9 23.5-9.7 26.8-19.2 12.3-36-5.8-57.9-34.8-74.8-20.7-12.1-60.4-29-79-5.4-2.5 3.2-5.7 7.2-4.1 11.5Zm11 24c-10.1-7.6-16.8-14.6-30-7.1-23.1 13.3-1.2 58.6 8.4 75.7 8.1 14.5 22.1 32.8 35.4 42.6 17.7 13 27.3 16.9 45.6 2.2s17.6-17 16-28.8-32.4-46.2-44.6-57.9c-9.6-9.2-20.1-18.5-30.9-26.6Zm-39.4 74c-3.3-1.5-6.8-5.6-8.6-7.4-12.3-12.8-14.1-27.5-16.4-44.6-6.8.6-15.9 8.7-16 15.5-.5 21.9 8.5 46.7 19.3 65.2 3.9 6.8 11.8 18.8 17 23.5 20.6 18.4-10.1-2.5-13-5.7-12.6-13.9-22.1-33.9-27.5-51.8-2.5-8.3-4.3-17.1-4.7-25.8-15.3 13.7-5.2 41.4 2.1 57.4 9.4 20.5 21.4 36 39.6 49.4 6.4 4.7 21.5 15.1 33.8 17.2s18 0 18 0c.2 0 2.9-1 2.5-2-4.5.3-8.8-.3-13.2-1.3s-18.5-6.3-22.5-8.5-13.4-8.5-9-7.2 29.6 4 34.2 4.1 12.2-.5 14.5-3.1c-3.8-.2-17.7-10.7-22-15-1.3-1.3 20 7.9 27.5 9 7.4 1.1 13.2 1.1 15.5-7-1.3.1-2.4-.3-3.5-1-22.9-14.4-44.3-40.7-58.3-63.7-9.9-16.2-19.5-34.2-21.2-53.3-1-.4-2 2.3-2 2.5 0 5.7-.6 12.6 0 18 1.4 13.7 8.5 23.9 14 35.5Z" class="outline" data-original-prefix="outline"/></g></svg>