<?xml version="1.0" encoding="UTF-8"?>
<?xml-stylesheet type="text/css" href="styles/collection.css"?>
<svg xmlns="http://www.w3.org/2000/svg" viewBox="0 0 2048 2048"><g id="01_background" data-trait="red"><path id="bg" d="M2048,4.5c-.1,679.6-.1,1359.2,0,2038.8,0,3.8-.8,4.6-4.6,4.6-679.6-.1-1359.2-.1-2038.8,0-3.8,0-4.6-.8-4.6-4.6C.2,1362.3.1,681.2.1,0h2043.3c3.8,0,4.6.8,4.6,4.6h0v-.1Z" style="fill: #af6e6e;"/></g><g id="02_Jaw" data-trait="robo"><path id="fill-jaw-robo1" class="fill"  fill="#fff" d="M1369.9 1062.1c.4.5 1 11.1 1.4 13.1 11.6 61.7 25.9 123 37.2 184.8 16.2 20.3 35.3 38.1 51.5 58.4l-70.1 149.9-2.3 1.6-31.6-1.9-7.8 59.7-101.2 128.8c-1.6 1.1-2.6-.6-3.6-1.6-11.2-11.1-20.8-28.6-32-40-1.3-1.3-2.6-3.5-4.8-2.9-3.4.9-32.4 51.8-38.3 57.8-25.8 9.8-49.6 24-74.7 35.3-8.9 4-63.2 23-65.1 25.9-.6 1-.4 2.8-.6 2.9-.2.2-3.1-.9-4.4-.9s-3.2 1.3-3.6.9c-.3-.3.7-2.4-2.3-4.2-13.4-8.1-38.6-14-54.4-20.6-28.2-11.8-54.4-28.3-83.3-38.7-6.3-5.8-35.3-57.4-38.7-58.4-2.2-.7-4.5 2.4-5.9 3.9-11.6 12.1-21.3 28.8-33.1 41l-1.9-.9-100.9-128.1c-3.2-19.9-5.4-39.9-7.5-60l-31.6 1.9-2.5-1.4-69.8-149.3c-.3-1.9 4.6-7.3 6.3-9.3 14.5-16.8 30.7-32.1 44.6-49.4 10.6-62 27.2-123.3 37.7-185.3.5-3.2-.7-11.9 2-13.3 104.8-21.7 209.7-42.7 314.5-64.3 7.3-1.5 24.9-7.3 30.5-7.5 4.2 0 24.8 6.2 31.1 7.5 105 21.6 210.1 42.9 315.1 64.4v.2z" class="fill" data-original-prefix="fill"/><path id="outline-shading-jaw-main" class="outline"  fill="#000" d="m1369.9 1062.1 28.1 145.4c-4.8-.6-19.2-17.4-22.3-16.4-3.4 1-21.1 37.8-20.7 42.4 12.3 15.8 24.8 31.6 35.4 48.6 3.7 5.9 15.5 24.5 15.6 30.5 0 4.7-10.7 25-13.5 30.5-4.5 8.7-9.8 16.9-14.5 25.5 17.3-8 33.9-18.4 49.3-29.7 4.1-3 10.3-7 13.7-10.3 2.3-2.2 12.4-16.5 13.5-16.5l5.5 6.4-65.1 139.9-6.5 11.5-32.3-1.9-7.8 59.7-101.2 128.8c-1.6 1.1-2.6-.6-3.6-1.6-11.1-11.1-20.8-29.2-31.9-40-.8-.8-1.6-2.1-2.9-1.9-7.3 1.3-32.3 48.3-39.7 55.4-30.9 14.9-60.7 32.4-91.6 47.4-12.8 6.2-33.2 17.2-46.8 18.2-23.7 1.7-37.4-7.3-57.9-17.2-31.4-15.1-61.6-32.8-93-48-8.2-6.6-32.8-54.4-40.3-55.8-2.8-.5-31.3 38.2-35.8 43-1 1.2-2 1.2-3.1 0l-100.9-128.1-7.5-60-31.6 1.9-2.5-1.4-69.8-149.3c-.3-3.1 3.7-7.8 6.8-5.8 1.9 1.2 8.8 11.9 11.5 14.6 2.9 2.9 7.8 6.2 11.2 8.8 4.5 3.4 49.2 33.3 51.3 31.2-7.3-15.4-17.3-29.8-23.8-45.6-1.2-2.9-3.2-6.7-3.2-9.9 0-5.3 10.4-22 13.7-27.4 11-18.2 24.3-34.9 37.4-51.6-4.2-15.2-12-29-20.1-42.3-.9-.5-2 0-2.9.4-6.3 3.4-12.9 13.3-20 16.5l28.1-145.9 45.8-9.7c48.2-55 116.4-93.5 184.8-118.2 72.2-26 130.6-31.5 205-8.5 77.7 24 155.9 65.5 210.3 126.7zM854 1330c-21-6.7-43.3-4.3-64.4-11.1-14-4.5-30.8-14.7-42.9-23.1-18.1-12.6-35.7-28.4-49.2-45.8-10.7 14.6-22.1 30.4-30.7 46.3-4.3 8-11.3 21.1-7.7 30.1l27.1 48.4c6.1 1.6 17.5-4.7 22.8-2.3 1.5.7 2.4 3.5 4.5 3.5s4.4-5.1 7-5.1 3.4 4.4 7 4.1 5.2-6.6 7.2-7c.5 0 8.2 2.7 8.6 2.9 4.7 2.4.3 18-3.2 21.4.3 1.5 14.2 9.3 16.4 9.6 2.9.5.2-2.4 1-4.9s6.5-6.3 8.8-5.9c5.4.9 6.3 10.2 14.7.3 1.9-2.2 0-4.1 4.5-4.6 8.5-1 5 8.4 7 14.1 12.4-17.2 20.2-37.4 32.1-54.9l29.4-16.1Zm507.8 44.8c8.8-17.7 20.1-34.4 28.2-52.3-.4-8.9-2.9-14.5-6.9-22.2-8.9-17.4-21.4-34.4-32.7-50.3-21.1 25.5-52 52.2-82.8 65.2-24.8 10.4-48.4 7.8-73.7 14.8l29.7 16.3c11.6 17.6 19.4 37.7 31.8 54.7.9-1.8 1-13.5 1.5-14s7.3-.2 7.8.2c1 .6 1.6 7.8 6.9 8.7 6.3 1.1 7.7-7.8 15.4-2.8 2.7 1.8 3.1 6 2.8 8.9 1.2 1.4 17.7-8.3 18-9.6.2-1-3.9-5.8-4.6-8.4-2.2-9.5-1.5-13.7 8.4-14.8 5.3-.6 2.8 2.2 5.5 4.5 4.6 4 7.8-2.7 10-2.6 2.7.2 5 4.9 7.2 4.9s3-2.8 4.5-3.5c5.2-2.4 16.6 3.8 22.8 2.3zM1078 1327c-5.5-11.1-10.5-24.8-17.6-34.9-4.2-6.1-10.2-10.5-14.9-16.1-3.4-4-15.2-20.5-18.4-21.6-1.9-.6-4.4-.8-6.3-.2-2.4.7-15.7 18.7-18.7 22.3s-7.4 6.8-10.5 10.5c-9.4 11.2-15.1 26.9-21.5 40h108Zm-353.8 172.8c24.8 5.4 50.2 7.7 75 13.6 17.3 4.1 20.3 3.6 29.6 19.4 5.3 8.9 9.2 18.7 14.2 27.8l17 14-29.2-80.8c-2.4-5.8-8-8-13.1-10.9-22.2-12.9-51.7-27.2-75.7-36.3-2.6-1-8.1-3.8-10.4-3.5-1 0-15.6 9.5-16.3 10.3-6.3 7.6 6.8 37.2 8.9 46.5Zm599.6 0c2.5-10.6 8.2-22.1 9.8-32.7.8-5.7 1.7-10.9-3-15.1-1.1-1-13.2-8.9-14-9-2.5-.3-19.4 7.2-23.2 8.8-20.7 8.8-45.7 20.5-65 32-5.6 3.4-8.8 4.9-11.8 11.2l-28.5 80 16.4-14.1c7.1-10.9 14.9-35.4 25.9-42.1 6.1-3.8 19.9-5.9 27.5-7.5 21.8-4.6 44.2-6.7 66-11.5zM908.5 1649v1c.7-.3.7-.7 0-1m229.5 1c-31 8.8-60.6 26.8-91 36.5-19.3 6.2-28.3 5.9-47.5-.4-28.3-9.3-56.5-25.5-85-35.1-1.2-.4-3.6-1.8-4.5-.5.8 2.1 2.7 4.2 4 6 4.9 6.3 18 23.3 23.5 27.5 7.2 5.5 27.9 14.6 37.1 18.9 5 2.3 20.9 10.5 24.9 11.1 9 1.4 36.3 1 46 0 7-.6 57.7-24.6 64.4-29.6 5.3-3.9 18.2-20.8 23-27 .8-1 5.8-6.8 5-7.5Z" class="shading" data-original-prefix="shading" opacity=".2"/><path id="outline-jaw" class="outline"  fill="#000" d="M670 1105c2 .2 9.2 3.6 9.8 5.7 1 3.3-1.3 18.1-2 22.7-6 41.8-19.7 84.1-28.6 125.4-12.3 18.3-29.3 33.5-43.8 50.2-1.2 1.3-6.5 7.5-6.5 8.5l56 135.5c1.5.4 1.7-.4 2.5-1 7.1-4.9 23.9-23.3 30.5-30.5 1.5-1.6 9.9-11.2 10-12-17.6-32.9-42.5-63.1-49.8-100.8 17.2-28.9 35.3-57.4 56.9-83.2 6.2-7.4 21.8-27.5 32-26.1 4.7.6 8.6 4.8 6.4 9.5-23 21-44.9 44.7-62.7 70.3-3.2 4.6-15.2 22.2-15.6 26.5-.5 5.1 11.8 29.8 15 35.6 7 12.8 29.4 46.8 40.5 54.5 2.8 1.9 7 3.2 10 5 77.7 46.7 153.2 90.1 243.1 109.9 13.1 2.9 37.4 9.1 49.8 9.2 11.3 0 33.7-5.7 45.6-8.2 92.6-19.7 168.3-62.9 248.1-110.9 3.1-1.8 7.2-3.1 10-5 11.1-7.7 33.4-41.8 40.5-54.5 3.2-5.8 15.5-30.5 15-35.6-.4-3.9-10.7-19.3-13.6-23.5-18.3-27-40.8-51.3-64.7-73.3-2.5-9.2 6.9-10.8 13.8-7.8 10.7 4.6 40.4 44.2 48.5 55.5 11.9 16.7 22.3 34.6 33 52.1-7.3 37.7-32.2 67.9-49.8 100.8 0 .8 8.5 10.4 10 12 6.6 7.2 23.4 25.6 30.5 30.5.8.6 1 1.4 2.5 1l55.8-135.3c-15.4-20.6-35.6-37.7-50.1-58.9-8.6-41-22.6-83.1-28.6-124.4-.7-4.8-3.1-20-1.9-23.7.6-2.1 8-5.5 9.8-5.7 4.6-.4 10.8 5.1 11.9 9.6 8.1 44.1 13.6 92.9 27.6 135.4 9.1 27.6 33.8 39.8 52 60 4.9 5.4 6.6 7.2 4.8 14.8-2.1 8.6-9.2 23.2-12.8 32.2-16.7 41-35.5 81.7-54.5 121.5-2.5 2.1-18.6 9-21.4 8.6-4.6-.7-13.3-13.3-18.5-15-3.1 22.3-7.1 44.7-11.8 66.7-29.2 38.3-55.4 79-82.3 118.7-10.2 4.1-22.2 12.3-32.2 15.8-1.5.5-3 1.3-4.6.7l-24.6-43.9c-1.1.5-16.2 15.9-17.3 17.7-6.5 10.1-3.8 21-14.2 29.8-22.9 19.1-72.2 40.2-100.7 51.3-18.6 7.3-34.3 14.2-54.7 14.3-24 .2-49.5-11.4-71.5-20.6-23.2-9.8-67.3-29.4-85.5-45.5-10.3-9.1-7.3-19.2-13.7-29.3-1.1-1.7-16.2-17.1-17.3-17.7L812 1674c-1.6.6-3.1 0-4.6-.7-10.1-3.5-22-11.7-32.2-15.8-26.9-39.8-53.1-80.4-82.3-118.7-4.7-22-8.6-44.4-11.8-66.7-5.2 1.7-14 14.4-18.5 15-2.8.4-18.9-6.5-21.4-8.6-19-39.8-37.8-80.5-54.5-121.5-3.6-8.9-10.8-23.6-12.8-32.2-1.8-7.6 0-9.4 4.8-14.8 13.4-14.9 37.6-30.5 47.2-47.8 7.3-13.1 12.4-41.8 15.8-57.2 4.5-20.4 8.5-41.2 12.2-61.8 1.5-8.5 1.8-19.4 3.7-27.3 1.2-5 7.2-11.3 12.6-10.9zm664.9 411.9 14.2-77.4c-.2-3.8-5.4-5.5-8.1-8-2.9-2.7-5.4-5.9-8.6-8.3-82.7 31.3-155.3 82.7-242.3 103.3-57 13.5-94.2 11-150.2-4.8-69.9-19.7-131-59.2-197.1-87.9-6-2.6-20.1-9.4-25.7-10.4-2.8-.5-7.7 6-10 8.1-2.1 2-7.6 4.5-8.1 7l14.2 78.3c17.8 1.1 35.6 3.8 53.4 5.1 9.3.7 42.4-.4 47.8 3.9 8.5 20 14.6 41 23.2 61 2.8 6.5 6.2 15.2 9.9 21.1 5.4 8.7 15 14.9 20 23.1 5.6 9.2 8.1 23.6 15.5 31.5 5.1 5.5 21.6 15 28.8 19.2 31 18.4 83.7 44.6 119.8 42.2 30.1-1.9 87.2-31 113.4-47.6 5.2-3.3 16.2-9.8 20.1-13.9 7.2-7.5 10.4-24.2 16.1-32.9 2.7-4.1 8-7.8 11.3-11.7 8.3-9.7 11.9-17.5 16.9-29.1 9-20.6 15.3-42.4 24.2-63 14.6-5 32.2-2.8 47.8-4 17.8-1.3 35.6-4.1 53.4-5.1v.3ZM801 1649c5.8-16.3 16.4-30.6 24.8-45.6-4.3-11.7-7.5-23.9-12-35.6-2.2-5.8-7.4-19.7-10.9-24.1-10.8-13.6-69.6-12.5-86.9-16.6-.5 1.7.7 2 1.5 3 13.4 17.3 27.7 33.6 40.3 51.7 15.2 21.9 28.4 45.1 43.2 67.3Zm531-122c-17.3 4.1-76.1 3-86.9 16.6-3.5 4.4-8.6 18.3-10.9 24.1-4.5 11.7-7.7 23.9-12 35.6 8.4 15.1 18.9 29.3 24.8 45.6 14.7-22.2 27.9-45.4 43.2-67.3 12.6-18.1 26.9-34.3 40.3-51.7.8-1 1.9-1.3 1.5-3Z" class="outline" data-original-prefix="outline"/><path id="outline-jaw1" class="outline"  fill="#000" d="M785.7 1376.3c8.1 7.2 8.5 18.5 4.1 27.9-5.2 10.9-19.3 10.7-26.7 2.3-15.1-17.3 3.6-47 22.7-30.2Zm-12 4.9c-10.7 1.7-7.7 23.9 4.7 21.8 10.2-1.7 4.4-23.3-4.7-21.8" class="outline" data-name="outline-jaw" data-original-prefix="outline"/><path id="outline-jaw2" class="outline"  fill="#000" d="M1262.3 1376.3c22.7-20.1 40.5 23.7 16.9 34.4-21.7 9.8-31.5-21.5-16.9-34.4m10.4 4.9c-10.5 1.7-12.6 25.9 1.3 21.4 10.1-3.2 8.1-22.9-1.3-21.4" class="outline" data-name="outline-jaw" data-original-prefix="outline"/><path id="outline-jaw3" class="outline"  fill="#000" d="M723.7 1356.2c15.6-2.8 28.9 19.5 15.8 29.8-10 7.8-24 0-26.8-11.2-1.8-7.1 3.5-17.2 11-18.6m9.1 22.6c6.5-6.5-8.3-22.1-11.4-7.8-1.5 7.3 7.1 12.1 11.4 7.8" class="outline" data-name="outline-jaw" data-original-prefix="outline"/><path id="outline-jaw4" class="outline"  fill="#000" d="M1317.7 1356.2c14.2-2.9 23 13.6 14.3 25.3-12 16-34.6 4.8-27.5-13.5 1.7-4.3 8.7-10.8 13.2-11.8m-2.5 22.6c4.3 4.3 12.9-.5 11.4-7.8-3-14.3-17.9 1.3-11.4 7.8" class="outline" data-name="outline-jaw" data-original-prefix="outline"/></g><g id="03_Mouth" data-trait="jaws"><path id="fill-mouth-main" class="fill"  fill="#fff" d="M1102 1287c.4.6-2.2 4.3 0 5.5 50.4 27.6 100.7 55.4 145.8 91.1-5.2 15.8-10.4 31.6-16.7 47.1-5.9 14.4-8.3 22.4-12.7 37.3-13 44.8-25.3 89.9-38.3 134.7-3.4 15.6 7.3 31.3 8.8 45.8.5 5.4-1.6 24.6-3.1 29.9-2.4 8.9-12.3 10.5-19.9 15.1-23.1 14.2-44 33.8-68.7 45.3-38.6 17.9-94.7 18.9-134.6 4.9-30.8-10.8-53.7-33.5-80.8-50.2-5.6-3.4-16.3-6.9-18.8-12.2-2.2-4.7-4.6-27.2-4.1-32.9 1.2-14.4 12.1-30.2 8.8-45.8-13.8-47.4-26.5-95.2-40.5-142.5-3.7-12.4-5.6-17.8-10.5-29.5-6.4-15.4-11.4-31.2-16.7-47.1 45.2-35.6 95.4-63.7 145.8-91.1 2.2-1.2-.5-4.8 0-5.5.2-.2 3.4-1.1 4.7-1.9 25.5-15.1 52.3-31 83.7-27.1 24.4 3.1 42.7 15.5 62.9 27.1 1.2.7 4.5 1.7 4.7 1.9h.2Z" class="fill" data-original-prefix="fill"/><path id="fill-mouth-teeth13" class="fill"  fill="#fff" d="m1042 1510-1.9 71.5c-.9 11.5-1.7 23.4-2.1 34.9-.2 7.7 1.3 20.2 0 27-.5 2.5-12.9 11.6-14.3 11.4-1.2-.2-13.2-8.9-13.7-11.4-.2-44.5-3.3-88.9-4-133.5l17.6 16.9 18.3-16.9Z" class="fill" data-original-prefix="fill"/><path id="fill-mouth-teeth12" class="fill"  fill="#fff" d="m1000 1637-20-15.5c-1.8-.5-2.8-4.4-3-4.5-.8-.5-3 3.8-5 3-.4-20.5-.2-41.1-1-61.5s-2.9-41.1-2.5-61.4l11-14c3 4.2 18.8 16.6 19.2 20.6.4 3.5-.9 11.2-.8 15.9.8 20.4 1.8 41.5 2.1 61.9.2 18.5-.2 37 0 55.5" class="fill" data-original-prefix="fill"/><path id="fill-mouth-teeth11" class="fill"  fill="#fff" d="M1076 1620c-2 .8-4.2-3.5-5-3-.2.2-1.2 4.1-3 4.5l-20 15.5c.2-18.5-.3-37 0-55.5.2-20.4 1.3-41.5 2.1-61.9.2-4.7-1.2-12.4-.8-15.9.4-4 16.2-16.4 19.2-20.6 2.1 3.9 9.5 10.8 11 14 1.8 3.8-1.3 28.2-1.5 34.4-.3 9-.7 18.1-1 27-.7 20.5-.6 41.1-1 61.5" class="fill" data-original-prefix="fill"/><path id="fill-mouth-teeth10" class="fill"  fill="#fff" d="M1114 1651c-3.8-.4-4.7-3.2-5-6.4-1.4-14.4 1.7-35 2.1-50 .6-21.9 0-43.7 2-65.5 3.3.2 4.2 1.9 7.1-.4 6.2-5.1 13.2-22.1 19.9-28.8s2.8-2 3-1.8l-9.1 120.4-20 32.6Z" class="fill" data-original-prefix="fill"/><path id="fill-mouth-teeth9" class="fill"  fill="#fff" d="M907.7 1499.3c7 6.2 13.8 23.9 20.3 29.2 2.9 2.4 3.8.6 7.1.4 1.5 10.5.6 21 1 31.5.7 20.9 1.5 42 2 63 .2 5.8 4.1 25-2.5 27.4-1.7.6-6.8-10-8.5-11.4l-12.9-21.1c-3.3-40.1-5.6-80.4-9-120.4 0 0 2.2 1 2.7 1.3h-.2Z" class="fill" data-original-prefix="fill"/><path id="fill-mouth-teeth8" class="fill"  fill="#fff" d="M903 1601c-7.1-6.3-5.5-23.9-18-13l-17-142c10.4 12.2 19 26.1 28 39.5 1.9 38.5 3.8 77.1 7 115.5" class="fill" data-original-prefix="fill"/><path id="fill-mouth-teeth7" class="fill"  fill="#fff" d="M1163 1588c-12.5-10.9-10.9 6.7-18 13l4-51.5 3.1-63.9c8.9-13.4 17.5-27.3 27.9-39.5l-17 142Z" class="fill" data-original-prefix="fill"/><path id="fill-mouth-teeth6" class="fill"  fill="#fff" d="M963 1507c-.7 40.2 2 80.1 2 120.3-1.9 1.4-17.9 15-19 13.7.9-38.3-2.3-76.2-2-114.5l15.4-18.6z" class="fill" data-original-prefix="fill"/><path id="fill-mouth-teeth5" class="fill"  fill="#fff" d="M1102 1641c-1.1 1.3-17.1-12.3-19-13.7.4-22.3.5-44.6 1-66.8 0-2.4 1-4.6 1.1-6.9.3-15.5-.3-31.1 0-46.5l3.6.9 15.4 18.6c.3 38.2-2.9 76.2-2 114.5Z" class="fill" data-original-prefix="fill"/><path id="fill-mouth-teeth4" class="fill"  fill="#fff" d="M875 1581c-1.5.2-1.3-1.7-1.7-2.8-3-8.8-6.1-18.6-8.6-27.4-10.7-37.7-11.6-78.6-17.8-117.3 0-3.9 3-6.9 5.6-9.5 3.4 3.5 5.8 6.6 6.4 11.6 1.2 10.1 1 21.5 2.1 31.9 3.8 35.2 11.2 72.2 14 107 .2 2.2 0 4.3 0 6.5" class="fill" data-original-prefix="fill"/><path id="fill-mouth-teeth3" class="fill"  fill="#fff" d="M1172 1580c6.3-40.6 11.8-81.6 16-122.5 1.2-11.5-1.6-25.4 7.5-33.5 2.6 2.6 5.7 5.5 5.6 9.5-7.6 47.5-8 99-26.1 144-.6 1.6-.8 2.9-3 2.5" class="fill" data-original-prefix="fill"/><path id="fill-mouth-teeth2" class="fill"  fill="#fff" d="m843 1439 4 53-5.7-15.8c-1-7.8-7.5-23.8-4.4-30.8.5-1.1 2.9-4.1 3.8-5.2.6-.7 0-1.9 2.3-1.3Z" class="fill" data-original-prefix="fill"/><path id="fill-mouth-teeth1" class="fill"  fill="#fff" d="M1207 1439c.3.3 4.7 7.3 4.8 7.7 1.3 4.9-3.4 23.5-5 29.5l-5.7 15.8 4-52.5c0-.9 1.9-.6 2-.5z" class="fill" data-original-prefix="fill"/><path id="outline-shading-mouth4" class="outline"  fill="#000" d="m900 1319-56.5 57-14 16c-1.9 4.1 3.2 15.8 2.5 21 4.2-1.8 14.7-13.4 18.4-13.1 4 .3 8.8 14.9 10.3 18.8 2.5 6.3 4.5 12.8 6.8 19.2 18.7 24.5 38.6 48.2 57.4 72.6 3.8 5 3.2 9.2 10.1 7 3.2-1 13.7-10.2 17-13 10.5-9 19.8-20 30.5-28.6l41.1 41 41.9-41c13.1 10.8 24.4 24.6 38 35 3.2 2.5 10.4 9 14.5 6.5l61.8-79.2c3.6-6.3 11.7-36.7 16.9-38.2 4.6-1.3 17.3 14.1 19.3 11.9-.8-5.2 4.4-15.8 2.5-20-20.7-25.2-46.1-46.1-68-70-.7-.7-2.7-2-2-3 34.5 16.7 65.1 39.8 96 62 2.5 5.1-7.2 33.5-9.8 40.2-2.7 7.3-6.2 13.8-9.2 20.8-3.2 7.3-3.5 21.2-14.5 14l-8.5 50-2.5 1c-.2-19.8 1.9-39.7 4-59.4-2-4.9-6.9-13.6-8.8-3.8-4 21.5-4.5 48.2-7.4 70.6-3.6 28-8.2 56-12 84-2 14.9-3.3 16.2 1.9 31.4 1.3 3.8 7.2 14.6 7.4 16.7s-6.3 26.7-7.6 29.5c-2.4 5.5-34.3 27-41.2 30.8-23.5 12.8-65.3 23.2-92 27-44.3 6.3-112.7-12.8-149.7-38-4.2-2.9-22.5-15.7-24.1-18.9-1.2-2.3-7.8-28.2-7.7-30.4 0-2.1 7-16.2 8.3-20.7 4-13.7 2.7-13.4.9-26.4-7.5-52.8-15.1-105.5-20.4-158.6-2.2-5.2-7.7 4.9-7.9 7.8 2.1 19.4 4 39 4.1 58.5h-3l-8-51c-11.6 7.2-11.3-6.6-14.5-14-5.7-13.3-11.5-25.2-15.5-39.5-1.5-5.2-6.1-18.6-2.5-22.6 31.2-21.3 60.9-45.2 95.5-60.9zm-34.5 137v1c.7-.3.7-.7 0-1m315.5 1c-3.8 9.4-17.3 19.9-21.1 28.4-3.4 7.8-1.6 20.7-3.9 29.1l-3 60c.6 3 10.1 7.9 13.4 8.4zm-286.2 118.8c-1.8-29.7-2.2-59.6-6.1-89.1-7.3-9.7-14.3-20.1-22.7-28.8l14 125c6 0 10-4.5 14.8-7.2ZM995 1627c-.8-15.5-.4-31.1-1-46.5-.7-20.6-1.2-43.5-3-63.9-.3-3.6-.4-13.4-4.5-13.5-2.5 0-20 10.7-20.5 13.5 2.4 20.6 1.2 41.4 1.9 62 .2 6.2.6 13.8 1.1 19.9s3 12.8 2 19.5l5.4-5c1.5 2.2 17 15.7 18.6 14m82-10c-.8-6.9 1.6-13.7 2.1-20.4 1.1-17.4.3-35.7.9-53.1.3-8.7 2-18.1 2-26.9s-1-2.1-2-3c-2.2-1.8-17.3-10.9-19.3-10.4-2.9.7-3.4 7.6-3.7 10.4-3.3 35.8-2.8 74-4 110 0 1.4 0 2.9-1 4 5.2.7 17.8-14.1 19.5-14.5 2.3-.5 2.5 4.7 5.4 4Zm-146 17c-1.9-32.1-.2-64.4-2-96.5l-26-32.5c2.8 32.1 2.9 64.2 5 96.4 6.9 11.3 14.5 22.3 23 32.5Zm187 0 22-32.5c1.9-32.2 2-64.3 5-96.4l-26 32.5c-2 25.3-.4 50.7-1 76-.2 5.9-1.4 11.5-1 18 0 1.1-.7 2.8 1 2.5Zm-175 2c.8.8 16.4-9.7 17.5-11 .7-.8 1.5-1.4 1.4-2.6-.7-33.9-2.5-67.6-4-101.5-3.4 2.4-16.3 10.2-17 13.5-.2 33.9 0 67.8 2 101.5Zm101-115c-4.9 2.7-10.4 10.7-15.7 11.8-11.9 2.5-16.1-5.4-24.3-11.8 1.3 37.5 2.3 74.9 2 112.5.8 4 14.2 9.4 17.7 12.4 3.7-2.5 17.6-8.6 18.3-12.4-.2-37.6.2-75.1 2-112.5m61 115c1.6-33.8 2.3-67.6 2-101.5-.7-3.7-13.7-10.5-17-13.5-1.8 33.8-3.7 67.5-4 101.5.2 2.9 18.2 14.4 19 13.5m-167.3 18.7c-1 .9-2.6 1.5-4 1.2-3.8-1-23-30.3-27.3-35.8L895 1607c-.4 4.4-1.3 8.8-2.5 13-1.6 5.4-8.4 19.9-8.6 23.5 0 2.9 4.5 19.8 5.8 23.3.7 1.9 1 3.9 2.9 5.1 29 14.8 52.4 35.8 84.2 44.8 31.1 8.9 64.2 8.8 95.2-.2 31.6-9.2 55.5-30.5 84.3-45.4.8-.4.9-1.2 1.2-2 1.2-3 6.7-24.2 6.5-26.5-.3-3.3-5.8-13.4-7.3-17.8-1.8-5.8-3.1-11.8-4.2-17.8-2.2 3.1-5.1 5.6-7.5 8.5-8.8 10.8-17.2 26.4-26.1 35.9-1.6 1.8-3.2 3.6-5.6 4.3l-43.7-28.7c-4.3 3.6-8.6 8.8-13.3 11.7-8.2 5.1-15 6.1-23.4 13.6-2.3 2.1-3 5.8-6.5 6.5-8.1 1.6-7.3-2.8-11.5-6.4-7.2-6.1-10.9-7.5-18.9-11.1-6.3-2.8-12.3-10-17.6-14.4-12.8 7.9-26.2 15.6-38.3 24.5-1.3.9-1.6 2.5-2.3 3.1v.2Z" class="shading" data-original-prefix="shading" opacity=".2"/><path id="outline-shading-mouth3" class="outline"  fill="#000" d="M1118 1345c-1.5 1.5-1.8-.6-2.3-1.3-1.8-2.3-6.1-7.1-7.1-8.8-1.8-3.2-.9-7.3-2.6-9.4-2-2.4-11.1-9.6-14.1-11.9-17.8-13.8-38.6-25.3-56-40-3.6-5.4 6-7.7 4.1-13.6.4-.4 8.3 1.9 9 2.5 1.9 1.6 0 5.2 2 7l68.4 49.6c2.9 2.8-.3 24.8-1.4 25.9" class="shading" data-original-prefix="shading" opacity=".2"/><path id="outline-shading-mouth2" class="outline"  fill="#000" d="M1008 1260c-2.1 5.5 7.8 8.5 4.1 13.6l-61.1 43.9c-10.3 7.3-11.1 16.5-18.7 26.2-.5.7-.7 2.7-2.3 1.3-1.1-1-5.1-24.3-1-26.5l68-49c2-1.9 0-5.2 2-7 1-.9 8.7-2.9 9-2.5" class="shading" data-original-prefix="shading" opacity=".2"/><path id="outline-shading-mouth1" class="outline"  fill="#000" d="M1011 1355c1.1 4.6-4.9 8.9-3.6 13 1.1 3.3 13.8 10.8 16.2 14.9 1.2.2 16.5-14.1 17-15.9 1-3.6-5.2-7.6-3.6-12 6.9-2.5 17.3 6.5 15.8 13.3-.8 3.8-7.8 10.3-10.8 13.2-6 5.9-6.9 4.1-10.8 12.2-1.9 3.9-5.9 3.9-9.8 3.3-5.8-.8-4.3-4.3-6.4-7.6-4.4-6.7-23.9-15.6-19.3-26.2 2.2-4.9 9.7-10.1 15.2-8.2Z" class="shading" data-original-prefix="shading" opacity=".2"/><path id="outline-mouth" class="outline"  fill="#000" d="M1006 1260c.4-2.1 4.7-6.2 6.5-7 2.2-1 1.8 3.9 2.5 5l-.5 19c-9.8 6.8-19.7 13.6-29 21-10.5 8.4-26.4 21.1-35.5 30.4-3.6 3.7-.7 4.6 2.7 7.3 14.2 11.7 34.2 18.3 52.3 20.2 1.2 1.2-6.6 10.7-4.8 13.8l23.5 23.1c1.5.3 18.4-18.6 21.4-21.5.8-.8 2.6-1.3 2.8-1.6 1.8-3.1-6-12.7-4.8-13.8 18.1-1.9 38.1-8.5 52.3-20.2 3.3-2.8 6.3-3.7 2.7-7.3-9.1-9.4-25-22-35.6-30.4-9.3-7.4-19.2-14.2-29-21-1.1-1.8-.6-15.7-.5-19 0-1.1-.9-6 1.5-5 2.1.9 6.1 6.1 7.5 7-1.8 1-1 3.4-.5 5 3.8 10.3 55.3 44.8 67.4 54.6 1.8 1.5 8 6 8.6 7.4 2.3 5.4-.6 18.1-.5 24.5 0 4.3 3.4 17.4 1.1 20-1 1.1-12.4 6.6-15.3 8.7-15.1 10.7-26.8 28.3-34.7 44.8-1.5.4-1.7-.4-2.5-1-5.2-3.6-23.3-26.5-26.1-26.9-5.3 3.9-11.8 6.3-12.4 13.4-1.2 13 1 27.8 0 41.1l3.1 42.5 34.4-35.1 2.9-.9c13.6 15 26.1 31.3 40.1 46 1.3 1.4 9.3 10.1 10.5 9 3.5-11.2 11.6-21.6 18.2-31.3 19-27.8 40.6-53.8 59.3-81.7.8-.7.7-1.5 1.5-.4 7.1 9.4 13.4 20.9 20.5 30.4l17.6-43.4-157.1-108.6 2-3c36.8 19.5 75.4 39.4 110.9 61.6 21.2 13.3 40.5 29.5 61.9 42.6.6 1.1.2 2.9 0 4.2-.7 7.6-9.9 31.6-13.2 39.9s-7.1 16.1-11 24l-44.5 161.6c.4 12.4 9.3 27.7 9.8 39.7.3 6.8-1.7 25-3.2 31.9-.4 2.2-1.7 6.3-3 8-1.2 1.6-15.8 8.4-19.4 10.6-24.6 15-45.2 35.2-72.5 46.5-40.8 16.9-104 16.8-144.7-.3-27-11.3-47.4-31.4-71.8-46.2-3.6-2.2-18.2-9.1-19.4-10.6-1.3-1.7-2.6-5.8-3-8-1.4-6.9-3.5-25.1-3.2-31.9.6-12.2 9-27.1 9.8-39.7-13.1-46.2-25.7-92.7-39.3-138.8-2.2-7.3-3.2-16.5-5.7-23.3s-7.5-14.1-10.5-21.5c-5.5-13.7-9.1-28.1-14.2-41.9-.3-1.7 0-3.3 1.4-4.4 24.1-15.7 46.6-33.8 71.2-48.8 32.3-19.7 66.7-38.2 100.3-55.2l3 3-157.1 108.6 17.6 43.4c7.1-9.6 13.4-21 20.5-30.4.8-1.1.7-.3 1.5.4 18.8 27.9 40.3 53.9 59.3 81.7 6.6 9.7 14.7 20.2 18.2 31.3 1.2 1.1 9.2-7.6 10.5-9 14-14.6 26.5-30.9 40.1-46l2.9.9 34.4 35.1 3-42.5c-1-13.2 1.2-28.1 0-41.1-.7-7.1-7.1-9.5-12.4-13.4-2.8.5-21 23.4-26.1 26.9-.8.6-1 1.4-2.5 1-7.8-16.5-19.6-34.1-34.7-44.8-3-2.1-14.3-7.5-15.3-8.7-2.3-2.6 1-15.7 1.1-20 0-6.4-2.8-19.1-.5-24.5.6-1.5 6.8-5.9 8.6-7.4 11-9 62.9-44.3 66.1-52.9 1.1-2.8.4-4.5.8-6.7zm-131 321c0-2.1.2-4.3 0-6.5-2.8-34.8-10.2-71.8-14-107-1.1-10.4-.9-21.8-2.1-31.9-.6-5-3-8.1-6.4-11.6-2.6 2.6-5.7 5.5-5.6 9.5 6.2 38.7 7.2 79.6 17.8 117.3 2.5 8.9 5.6 18.7 8.6 27.4.4 1.1.2 3 1.7 2.8m297-1c2.2.4 2.4-1 3-2.5 18.1-45 18.6-96.5 26.1-144 0-3.9-3-6.9-5.6-9.5-9.1 8.1-6.3 22-7.5 33.5-4.2 40.9-9.7 81.9-16 122.5m-329-141c-2.3-.6-1.7.6-2.3 1.3-.9 1.1-3.3 4.1-3.8 5.2-3.1 7 3.3 23 4.4 30.8l5.7 15.8-4-53Zm364 0s-2.1-.4-2 .5l-4 52.5 5.7-15.8c1.6-5.9 6.4-24.5 5-29.5 0-.4-4.4-7.4-4.8-7.7zm-304 162c-3.2-38.4-5.1-76.9-7-115.5-8.9-13.4-17.5-27.3-28-39.5l17 142c12.5-10.9 10.9 6.7 18 13m260-13 17-142c-10.4 12.2-19 26.1-27.9 39.5l-3.1 63.9-4 51.5c7.1-6.3 5.5-23.9 18-13Zm-163 49c-.2-18.5.3-37 0-55.5-.2-20.4-1.3-41.5-2.1-61.9-.2-4.7 1.2-12.4.8-15.9-.5-4-16.2-16.4-19.2-20.6l-11 14c-.3 20.3 1.8 41.1 2.5 61.4s.6 41.1 1 61.5c2 .8 4.2-3.5 5-3 .2.2 1.2 4.1 3 4.5zm76-17c.4-20.5.2-41.1 1-61.5.3-8.9.7-18 1-27 .2-6.2 3.3-30.6 1.5-34.4-1.5-3.2-8.9-10.1-11-14-3 4.2-18.8 16.6-19.2 20.6-.4 3.5.9 11.2.8 15.9-.8 20.4-1.8 41.5-2.1 61.9-.2 18.5.2 37 0 55.5l20-15.5c1.8-.5 2.8-4.4 3-4.5.8-.5 3 3.8 5 3m-168.3-120.7c-.4-.4-2.6-1.5-2.7-1.3 3.4 40.1 5.8 80.3 9 120.4l12.9 21.1c1.7 1.4 6.8 12.1 8.5 11.4 6.6-2.4 2.7-21.7 2.5-27.4-.5-21-1.3-42.1-2-63-.4-10.5.5-21.1-1-31.5-3.3.2-4.2 1.9-7.1-.4-6.5-5.3-13.2-23-20.3-29.2h.2ZM1114 1651l20-32.6 9.1-120.4c-.2-.3-2.5 1.3-3 1.8-6.8 6.7-13.7 23.7-19.9 28.8-2.9 2.4-3.8.6-7.1.4-1.9 21.8-1.3 43.7-2 65.5-.4 15-3.5 35.6-2.1 50 .3 3.2 1.2 6 5 6.4Zm-151-144-3.6.9-15.4 18.6c-.3 38.2 2.9 76.2 2 114.5 1.1 1.3 17.1-12.3 19-13.7 0-40.2-2.7-80.1-2-120.3m139 134c-.9-38.3 2.3-76.2 2-114.5l-15.4-18.6-3.6-.9c-.3 15.5.4 31 0 46.5 0 2.4-1 4.6-1.1 6.9-.5 22.3-.6 44.6-1 66.8 1.9 1.4 17.9 15 19 13.7Zm-60-131-18.3 16.9-17.6-16.9c.7 44.6 3.8 88.9 4 133.5.4 2.5 12.5 11.2 13.7 11.4 1.4.2 13.8-8.9 14.3-11.4 1.3-6.8-.3-19.3 0-27 .4-11.5 1.2-23.4 2.1-34.9l1.9-71.5h-.1Zm-112.9 165.9-39.6-64.9c-2.7 4.3-15.7 16.7-16.5 20.5-.5 2.3 0 6.3 0 8.8.5 6.2 3.4 24.2 5.1 29.9 2.2 7.3 14 10.2 20.1 13.9 44.8 27.9 79.7 46.3 135.2 43.8 47.1-2.2 77.9-20 116.2-43.8 6.1-3.8 17.8-6.6 20.1-13.9 1.7-5.7 4.6-23.7 5.1-29.9.2-2.5.6-6.5 0-8.8-.7-3.8-13.8-16.2-16.5-20.5l-40.1 65.1-48.9-32.8-45.1 37.7-45.8-37.7c-6.8 2.2-46.8 34.1-49.4 32.6Z" data-original-prefix="outline"/></g><g id="04_Eyes" data-trait="steampunk-goggles"><path id="fill-eyes-main" class="fill"  fill="#fff" d="M1439.9 1144.1c-3.6 27.9-12.3 55.1-13.9 83.3-.4 7.7.9 16.7 0 24.1-1.3 11-25.5 16.1-34.3 19.7-20.4 8.4-25.3 24-38.8 39.2-55.4 62.9-122.1 75.3-200.5 47.6-42.5-15.1-69.2-37-93.5-74.5-2.7-4.2-10-19.4-13.2-20.8-1.5-.7-2.6-.7-4.2-.8-8.5-.8-27.8-.9-36.1 0-7.2.8-12.1 14.7-16.1 20.9-24.3 37.6-50.5 59.6-93.2 74.8-78.4 28-145 15.9-200.8-46.7-10.3-11.5-17.5-27.2-30.6-35.4-9.5-6-36-11.4-41.4-19.6-3.1-4.8-1.1-21.7-1.5-28.5-1.6-28-10-55.2-14.1-82.8 12.5-7.9 28.7-4.6 42.2-10 6.4-39.3 19.8-78.9 42.1-111.9 3.6-5.3 14.5-21.6 20.4-22.6 3.2-.6 7.4 1 10-1 1.3-.9 3.8-6.5 5.5-8.5 62-76.9 146.3-134.5 246.6-145.4 143.8-15.7 254.6 34.3 344.3 144.4 1.6 2 5.5 8.8 6.4 9.5 2.9 2.2 8.7 0 13.2 1.8 4.2 1.8 12.2 13.5 15.2 17.8 24.3 34.2 38 74.7 45.1 115.9 13 5.5 28.4 2.6 41 9.5Z" class="fill" data-original-prefix="fill"/><path id="fill-eyes-frame" class="fill"  fill="#fff" d="M1005 1154.9c17.3-2.1 33.8-.3 51 2.1 1.7-12.1-2.8-7.9-13.9-9.1 1.3-19.1 14.4-40 25.5-55.3 12-16.7 35.3-37.8 54-46.5 12.6-5.8 30.6-6.6 43.8-11.2 3.6-1.2 7.8-4.1 11.6-5.4 23.6-8.2 61.9-10.1 86-4.1 58.3 14.7 98.9 62.2 120.1 116.4 5.6.5 11.1-.4 16.7.8 3.4.8 18.4 8.5 19.7 11.3 1 2.1-2.9 19.4-3.4 23.6-3 24.6-3.8 49-3.1 73.8-7.1 0-16.5 8.3-21.8 9.4-4.1.8-10.8-1.4-13.3.1-1 .6-9 18.3-10.8 21.4-21.6 36.3-58.2 67.7-99.5 79-22.2 6.1-46.6 5.4-69.1 3.8-7.4-.5-65.6-21.8-73.2-26.1-18.3-10.4-47.1-38.2-57.1-56.8-1.2-2.1-6.6-13.6-6.7-14.9-.3-3.6 6.7-1.7 6.4-4.7-.2-1.6-5.5-11.2-6.6-11.5-25.2 5.7-51.5 4.9-76.7 0-1.6.4-4.3 8.6-5 11.5-.3 1.2 7.1 1.2 6.7 4.7-.1 1.4-5.6 12.2-6.7 14.3-9.7 18-39.5 47-57.1 57.4-29.7 17.4-98 32.4-131.4 25.5-52.6-10.9-98.3-53.4-119.4-101.8-5.3-1.4-10-.9-15-1.9-5.3-1.1-14.7-9.3-21.8-9.4.3-22 .3-43.9-2.1-65.8-.5-4.9-5.2-28.9-4.7-30.9.7-2.8 12.1-8.9 15.1-10 7.6-2.9 13.8-3.2 21.8-2.1 7-13.9 12-29.8 20.5-43 31.3-49 86-84 145.8-78.7 24.3 2.2 70 14.7 92.7 23.6 17.8 7 43.7 33.6 54.8 49.2 13.3 18.5 24.1 38.1 26.2 61.3" class="fill" data-original-prefix="fill"/><path id="fill-eyes-lens2" class="fill"  fill="#fff" d="M1213.8 1080.3c114.8-12.2 132 184 38.6 222.6-13.9 5.7-36.9 5.7-51.2 1.5-103.1-30.7-92.3-212.9 12.6-224Z" class="fill" data-original-prefix="fill"/><path id="fill-eyes-lens1" class="fill"  fill="#fff" d="M808.8 1080.3c122.5-14.7 144.8 173.1 56.5 216.5-113.8 56-166.4-113-102.3-188.3 10.1-11.9 29.9-26.4 45.8-28.2" class="fill" data-original-prefix="fill"/><path id="fill-eyes-strap3" class="fill"  fill="#fff" d="M1057.8 1158.2c2.9 2.5.3 11.8.2 15.2-.4 15.7-.2 32.4 2.2 47.9.6 4 6.2 26.3 5.4 27.7-2.1 3.5-28.1 5.8-33 6-8.4.3-44.2-.7-49.6-5.5-1.1-1-.6-1.4-.6-2.5.3-5.9 3.3-13 4.3-18.8 3.1-18.2 3.8-36.3 3.3-54.7 0-3.9-2.6-11.3-.1-14.8 1.3-1.8 24.7-4.5 28.5-4.7 5.6-.2 36.2 1.7 39.3 4.3Z" class="fill" data-original-prefix="fill"/><path id="fill-eyes-strap2" class="fill"  fill="#fff" d="M1412.9 1251.9c-7.4 1.2-14 5-20.9 7.6 14.5-36 14-79.1 5-116.5 5.2-.7 22.6 7.9 23 12.5-6.5 31.7-7.7 64.1-7.1 96.4" class="fill" data-original-prefix="fill"/><path id="fill-eyes-strap1" class="fill"  fill="#fff" d="M651 1143c-9.4 38.1-8.8 79.9 4.5 117-6.2-4.2-13.6-6-20.6-8.6.9-32.2-.6-64.3-6.9-95.9.5-4.6 17.8-13.2 23-12.5" class="fill" data-original-prefix="fill"/><g id="fill-eyes-rivet" class="fill" ><path id="fill-eyes-rivet16" class="fill"  fill="#fff" d="M1143.7 1309.2c5.9-1.8 13.9 1.8 14.4 8.3 1.2 16.7-23.9 10.6-19.9-2.8.4-1.2 4.3-5.1 5.5-5.5" class="fill" data-original-prefix="fill"/><path id="fill-eyes-rivet15" class="fill"  fill="#fff" d="M897.7 1309.2c7.5-1.6 13.8 3.3 12.1 11.1-.8 3.7-7.7 7.8-11.3 7.8-9.6 0-12.8-16.3-.8-18.8Z" class="fill" data-original-prefix="fill"/><path id="fill-eyes-rivet14" class="fill"  fill="#fff" d="M897.8 1060.2c4.2-.5 10.5 2.7 11.8 6.8 3 9.4-9.2 14.7-16.5 8.5-5.4-4.6-2.2-14.4 4.7-15.2Z" class="fill" data-original-prefix="fill"/><path id="fill-eyes-rivet13" class="fill"  fill="#fff" d="M1147.8 1060.2c11.2-1.3 14.3 15.9 1.7 17.8-14.2 2.1-15.3-16.2-1.7-17.8" class="fill" data-original-prefix="fill"/><path id="fill-eyes-rivet12" class="fill"  fill="#fff" d="M703.7 1095.2c12.2-2.7 9.9 15.8-2.7 19.4-10.2 2.9-7.2-17.1 2.7-19.4" class="fill" data-original-prefix="fill"/><path id="fill-eyes-rivet11" class="fill"  fill="#fff" d="M1339.7 1095.2c8.5-2.6 14.8 8.5 13.3 16.3-1.7 8.7-17.3-1.2-16.9-9.9 0-2.1 1.5-5.8 3.6-6.4" class="fill" data-original-prefix="fill"/><path id="fill-eyes-rivet10" class="fill"  fill="#fff" d="M1086.7 1182.2c10.6-3.1 13.4 21.9 7.6 23.7-10.1 3.2-17.9-20.7-7.6-23.7" class="fill" data-original-prefix="fill"/><path id="fill-eyes-rivet9" class="fill"  fill="#fff" d="M1373.7 1174.2c13.9-2.5 10.9 30.5-1.5 25.1-9.7-4.2-6.7-23.6 1.5-25.1" class="fill" data-original-prefix="fill"/><path id="fill-eyes-rivet8" class="fill"  fill="#fff" d="M1252.8 1335.2c12.9-1.9 15.1 10 4.8 16.8-14.4 9.4-21.8-14.3-4.8-16.8" class="fill" data-original-prefix="fill"/><path id="fill-eyes-rivet7" class="fill"  fill="#fff" d="M1248.7 1033.2c15-3.4 22.4 13.8 11.3 17.3-12.8 4.1-23.8-14.5-11.3-17.3" class="fill" data-original-prefix="fill"/><path id="fill-eyes-rivet6" class="fill"  fill="#fff" d="M1343.7 1271.2c15-4.5 11.4 13.4 1.3 18.3-14.8 7.3-8.6-16.2-1.3-18.3" class="fill" data-original-prefix="fill"/><path id="fill-eyes-rivet5" class="fill"  fill="#fff" d="M957.7 1182.2c9.5-2.8 10.8 14.5 3.8 20.8-14.2 12.8-13.2-18-3.8-20.8" class="fill" data-original-prefix="fill"/><path id="fill-eyes-rivet4" class="fill"  fill="#fff" d="M671.7 1174.2c9.8-1.8 14.6 19.5 4.6 24.7-11.8 6.2-16.2-22.6-4.6-24.7" class="fill" data-original-prefix="fill"/><path id="fill-eyes-rivet3" class="fill"  fill="#fff" d="M790.8 1335.2c15.5-2.5 19.6 17.8 6.6 18.7-10.4.7-20.6-16.5-6.6-18.7" class="fill" data-original-prefix="fill"/><path id="fill-eyes-rivet2" class="fill"  fill="#fff" d="M791.7 1033.2c16.6-3.4 17.2 14.3 2.3 17.3-14.3 2.9-14.8-14.7-2.3-17.3" class="fill" data-original-prefix="fill"/><path id="fill-eyes-rivet1" class="fill"  fill="#fff" d="M697.7 1271.2c5-1.1 7.8-.3 10.7 3.8s7 15.5-1 15.9c-8.8.4-19-17.7-9.7-19.8Z" class="fill" data-original-prefix="fill"/></g><g id="shading-eyes" class="shading" ><path id="outline-shading-eyes3" class="outline"  fill="#000" d="M808 1053c18.3-1.1 35.8 1.8 52.7 8.8 3.3 1.4 17.8 9.9 19 10 4.5.4 1.7-8.7 7.9-9.8 4-.8 2.7 4.3 4.6 7.4 6.1 10.4 12.8-5.4 17.9-4 8.6 2.4 6.1 14.8 2.4 20.6l-7.4 6.5c28.5 27.2 36.6 68.5 37 106.5 2.1-.9.9-7.1 3.5-8 4.4-1.4 4.3 9.4 10 10 6.5.7 14.6-18.5 16.3-.4 1.5 15.9-12.5 29.1-26.5 18.1l-4.3-8.7c-4.9 51.2-39.2 110.9-92.8 121.7-50 10.1-98.3-9.1-130.2-47.7-.8 8.9-1 15.6-10 19.5 10.4 16.7 25.8 28 43 37 3.5 1.8 22.8 11.7 25 9.5.3-4.1-1.8-14.1 4.5-14.1 5.1 0 5.7 10.3 12.7 12.4 8.8 2.8 23.2-10.6 18.8 7.7 26.8 2 51.7-7.1 76-17-6.8-4.3-12.8-24.8.3-21.8 4.6 1.1 5.9 7 14 4.6 6.5-1.9 1.9-12.9 9.2-11.8 4.2.7 6.3 7.5 7 11 19-14.9 36.6-34.2 48.9-55.1 7.5-12.7 9-19 11.4-33.6 3.8-23.7 5.1-47.8 6.2-71.8 2.5-6.4 6.3-5.2 8.2.8s2.7 18.8 2.9 25.1c.6 18.9-2.3 38.9-5 57.5 10.6 2.5 22.5 7.2 33.5 7.1s22.2-4.7 32.5-7.1c-3.3-19.5-6-40.6-5.1-60.5.3-5.4 1.1-16.6 2.5-21.5 1.1-4.1 4.6-8.5 7.4-3.3 2.2 4.1 1.6 23.7 2.1 29.9 1.4 16.8 3.1 34.2 6.3 50.7 3.7 19.1 14.4 35.3 26.7 50.3 5.3 6.4 23.6 26.7 30 30 1 .5 1.9.6 3 .5-.4-4.3 5.5-12.7 9.9-9.9 1.2.8.7 10.2 5 11.4 9.2 2.6 9.2-2.9 13.8-4.3 13.3-4 8.2 16.9 1.3 21.8 24 10.2 49.4 19 76 17-4-16.7 6.7-7.3 13.5-6.9 12.4.7 11.8-11.5 16.2-12.9 9.3-2.8 5.1 14.9 6.8 14.8 17.2-6 36.8-15.3 50.5-27.5 2.4-2.2 16.5-17.3 16.9-19.1.5-2.1-3.9-3-5.5-4.4-4.7-4.2-3.3-10.4-4.5-16-30.8 36.8-75 55.6-123.4 48.9-58-8.1-95.3-69.3-99.6-123.9l-2.6 6.9c-12.8 15.4-29.9 2.7-28.3-15.3 1.7-18.2 9.8 1.1 16.3.4 5.4-.6 5.1-11.4 10-10 2.6.7 1.3 7.9 3.5 9-.2-13.7.7-27.6 3.5-41 4.7-22.4 11.9-41.6 26.6-59.4 1.4-1.7 6.5-5.9 7-7 .8-2.1-5.3-2.2-6-4.2-3.9-5.9-8.4-15.1-2-20.8 7.5-6.6 9.3 6.4 16.3 5.4 6.7-1 4.3-10.9 8.2-10.9 6.2.1 5.9 9.6 6.6 10 1.7 1.1 11.3-5.5 13.8-6.7 19.3-9.2 38.6-13.8 60.2-12.3-1.2-2.1-3.8-8.8-.4-9.9 3.7-1.2 8.4 6.9 17.4 4.4 7.6-2 6.5-12 8.6-12.6 9.1-2.3 9.4 10.2 8.1 16.3-.8 4-5 5.8-4.8 9.7 16.4 4.7 33.2 15.3 46 26.5 2.8 2.5 14.4 15.4 15.9 16 1.2.4 2.8-.7 4.3-.3 2.8.8 2.5 5 9.2 3.8 5.4-1 7.4-9.1 14.1-8.9 5.2.1 4.9 16.5 3.5 20.5-2.4 6.8-8.4 7.4-14.1 10 6.7 14.8 11.6 30.7 13 47 .2 2.3-.5 13 0 13.5.2.2 3.8-.3 5.3.2s2 2.3 4.2 2.8c6.5 1.3 11.1-3.3 11.4-9.6 0-1.8-2.5-5.9.6-5.4 5.4.9 4.1 12.2 6.6 13.9.4.3 7.1-1.3 8.9 0 .6-11.5-1.4-22.9-4.5-34-1.9-6.9-7.8-17.8-6.5-24.5.7-3.8 6.2-4.4 8.4-1.4 10.3 21.6 12.5 44.1 16.4 67.4 5.6 2.9 8.4-5.4 14.1-5.4-3.4 20.2-4.8 40.8-5.2 61.3l-25.5 15.5c-21.1 5.8-28.9 25.7-42.3 40.7-57.2 64.2-122.6 75.3-203 46.9-45.8-16.2-70.3-41.4-95.9-81.1-1.5-2.4-5.4-11.2-6.7-12.3-3.2-2.9-42.6-2.9-46.5-.5-1.2.7-5.8 10.6-7.2 12.8-29.8 46.4-57.8 70.8-111.8 86.2-76.3 21.7-135 6.9-187.5-52.5-10.5-11.8-18-28.2-32-36-3.1-1.8-6.9-2.4-9.9-4.1-8.4-4.9-16.3-10.7-25.2-14.8-1.4-20.7-2-41.5-5.5-62 5.8-.1 9.6 10.1 14.5 4 2.8-14.7 3.6-29.8 7.8-44.2 1.3-4.5 6-18.5 8.3-21.7.8-1.2 1.4-1.9 3-2.1 11.7-1.1 1.5 18.6.2 23.2-3.7 12.8-6.7 25.3-5.7 38.8 2.2-1.8 7.9.7 8.9 0 2.1-1.5.8-12.8 6.6-13.9 3-.6.4 2.8.5 4.5.2 2.8 2.3 8.8 5 10 6 2.7 9.2-3.1 14.9-2.6 1.5-10 1.5-20 3.6-29.9 2.2-10.5 6.2-20.7 10.6-30.4 0-.9-12.4-2.2-14.6-10.5-1-3.7-.8-17.5 2.5-19.6 5.2-3.3 11.8 8.8 16.6 9.3 4.1.5 6-4.1 8.1-4.6 1.5-.4 3.2.7 4.3.3 1.8-.6 5.9-7.1 7.9-9 15.2-14.4 33.7-27.6 54-33.5.1-3.2-3.1-4.8-4.1-7.4-1.5-3.9-2.4-16.9 2.8-18.4 8.5-2.6 4.3 10.6 14 12.6 9 1.8 23.1-14.2 16.3 5.2Zm438.2 27.1-121 126.6c.9 24.3 12.9 46.2 28.3 64.3l145.3-146.7c2.9-10.7-23.1-29.7-31.2-34.4-2.8-1.6-20-10.6-21.5-9.7Zm-500.6 171.3c4.3 9.2 10.6 22.6 17.5 30 .7.7.9 2 2.3 1.6l140.7-143.4c1-.8.8-1.4.5-2.5-1.7-6.4-11.2-21.1-15.6-26.5-5.1-6.1-18.8-18.2-26-21-1.1-.4-1.8-.9-2.9 0-41.2 43.5-82.6 86.8-125.1 129-2.2 3.8 1.1 14.3 2.3 18.8 1.7 6.2 4 9.3 6.3 14.2Zm563.1-103.3L1171 1284.4c-.6.6-1 1.2-1 2 0 3 16.3 13.6 19.6 13.4 1.8 0 11.3-10.2 13.5-12.4 38.4-39.5 73.4-82.6 112.5-121.6 1.2-3.5-2.4-19-6.8-17.9Zm-494.9 153.7c30.8-39.9 67.3-75 103.7-109.8 1.5-9.7.2-19.5-1.5-29l-133 132.5c5.3 1.6 26.9 8.6 30.8 6.3m549.1-26.9c8.2-18.5 14.7-37.6 19.1-57.4-12 7.4-17.7-1.5-24-10.5-2.6 20.2-6.8 41-16.5 59-1.2 2.3-10.2 15.3-9.5 16 5.6-.2 2.8 4.4 8.2 3.8 10.8-1.3 9.2-7.1 13.5-9.6 2.6-1.6 6.3-1 9.2-1.3M690 1208c-2.4-.6-1.6.4-2.2 1.3-5.5 7.9-11 15.7-21.3 7.7-.8-.2-.6.9-.5 1.5 1.2 8.4 6.1 23.6 9 32 1 3 9 23.6 10.2 24.3 1 .6 4.7 0 6.9.6 3.6 1.1 4.7 5.4 7.6 7.4 1.9 1.3 8.7 3.6 10.7 3.2.9-.2 2.2-5.2 5.7-4.1.6-.7-8-13.1-9.2-15.3-10-18.4-14.3-38-16.8-58.7Z" class="shading" data-original-prefix="shading" opacity=".2"/><path id="outline-shading-eyes2" class="outline"  fill="#000" d="M942 857c-15.8 14.7-36.6 21.7-53.5 35-24.9 19.7-63.7 69.6-74.7 99.3-3 8.1.3 14.4 1.2 22.7-11.2.4-23.2 1.8-34 4.5-4.8 1.2-19 7.4-21.5 7.4-3 0-26.1-7.4-29.8-9.1-9-4.1-3.1-10 .8-15.7 27.1-39.6 72.1-78.2 113.1-102.9 30.2-18.2 63.6-34.2 98.3-41.2Z" class="shading" data-original-prefix="shading" opacity=".2"/><path id="outline-shading-eyes1" class="outline"  fill="#000" d="M1321.7 1014.8c-.8.8-5.7 2.7-7.2 3.3-3.7 1.4-23.4 7.8-26 7.8s-17.3-6.3-22.3-7.5c-10.9-2.6-22.9-4.1-34.2-4.3 8.5-17.3-2.8-34.2-11.6-48.9-16.6-27.7-44.7-62.6-71.5-80.5-14.2-9.5-30.9-15.1-42.9-27.6 31.9 6.4 62.5 20.8 90.7 36.8 40.6 23.1 81 56.5 109.7 93.3 3.2 4 16.5 20.7 16.6 24.3 0 .9-.6 2.7-1.2 3.3Z" class="shading" data-original-prefix="shading" opacity=".2"/></g><g id="outlines"><path id="outline-eyes11" class="outline"  fill="#000" d="M1330.1 993.9c1.4 1 4.2-1.5 5.6-1.7 8.1-.9 21.2 18.7 25.6 25 22.8 33.2 36.7 72.8 42.9 112.6 1 1.3 25.1 3.5 29.1 4.4 11 2.5 13.7 4.6 12.6 16.1-2.4 25.5-12.5 52.1-13.9 79.1-.4 7.2 1.7 25.4-1.5 30.5-5.8 9.2-28.7 14.1-38.4 18.6-14.9 6.9-26.7 29-38.5 41.5-21.4 22.7-53.2 45.5-83.7 53.3-59.5 15.2-143.1-6.7-187.8-48.8-16.6-15.6-28.4-36.6-40-56-1.4-.9-30-1-33.6-.5-1.3.2-1.8 0-3 1-1.7 1.5-7.1 12.8-9.1 15.9-27.8 44-60.8 69.2-111.4 83.6-75.5 21.4-135.9 9-190-48-12-12.6-24.1-35.1-39-42-8.8-4.1-36.5-10.7-39.5-20.5.8-24.6-2.5-47.2-6.8-71.2-1.9-10.7-9.1-35.1-7.6-44.2.2-1.1.4-2 1-3 4.3-6.7 33.7-7.3 41.8-9.7 5.2-35.2 17.2-71.3 35.7-101.8 5-8.3 14.3-22.5 20.9-29.1 1.3-1.3 7.8-6.6 9.3-6.8 2.4-.4 5.8 2.8 7.2 1.8.4-.3 3.5-6.5 5.1-8.4 78.7-96.5 169.8-147.5 296.5-148.6 130.2-1.2 229.8 51 308.9 153.1.9 1.1 1.4 3.8 1.6 3.9Zm-23.2 12.9c.9-1.6-3.8-12.9-5-15.2-18.3-36.2-111.1-99.9-149.4-114.6-95.6-36.8-210.4-32.7-298.4 21.6-30.7 18.9-92.7 62-108.3 93.7-1 2-4.8 10.7-4.8 12.2.1 2.4 19.5 14 21.6 14.2s17.2-5.3 21.3-6.2c86.6-19.4 202.6 33.5 229.3 121.7.8 2.7 1.4 9.4 2.6 11.2 1 1.4 13.3.2 16 .5 13.2-64.6 72.4-111.2 133.7-127.8 31.6-8.6 66.2-12.8 98.4-5.6 4.4 1 19.3 6.5 21.5 6.4 2.5-.1 16.9-11.3 21.3-12.1ZM913 1329c2-.2 3.9-.9 5.5-2 3.4-2.3 12.9-12.4 16-16 69.3-79.6 53.3-208.6-36.2-265.8-63.8-40.8-145.4-24.7-193.8 31.8-1.2 1.4-6.8 7.8-5.5 9 13.4-1.3 20.9 3.1 18.9 17.4-1.6 11.7-19.8 26.3-28.4 13.5-3.8-5.6-2.2-10.8-2-16.9-2.6 4-5.4 8.1-7.7 12.3-28.1 51.7-30.3 99.4-4.7 153 35.5 74.2 112.9 118.7 194.8 91.1 13-4.4 27.3-13.5 38-22-11.2 3.9-20.4 1.1-24.5-10.5-2.8-7.9-.4-9.5 1.5-17-.7-.7-9.4 5.7-11 6.5-98 54-202-48.1-178.7-149.7 18.1-79 102.7-132.2 178.7-90.3 1.5.8 10.3 7.2 11 6.5 0-3.8-2.9-6.7-3-10.5-.4-13.2 15.8-19.1 26.4-12.3 17.6 11.2 4.8 31.3-12.4 28.4-3.3-.6-6-2.6-8.9-4.1 20.6 17.2 36.8 39.6 44.5 65.5 7 23.6 7.9 57 3 81-6.2 30.9-23.4 57.5-47.5 77.5 3.8-2.1 7.8-4.6 12.4-4.5 12.8.2 22.6 14.8 15.5 26.3-.6.9-2.4.2-2 1.7Zm436-243c1.3-1.3-4.3-7.6-5.5-9-50.7-59.1-135.1-72.8-199.8-27.8-92.1 64-98.3 206.9-12.4 278.8.9.7.8 3.6 2.8 1.5-10-16 5.2-33.9 22.5-26.5 1.8.8 2.8 2.5 4.4 2.6-20.4-17.1-36.5-39.1-44.2-64.8-7.2-23.8-8.2-57.5-3.2-81.8 6.2-30.9 23.4-57.5 47.5-77.5-1.3-.4-2.3 1.6-3.7 2.3-19.4 9-37.6-14.9-17-27 11.4-6.7 27.5.8 25.5 14.4-.4 3-3 5.5-2.8 8.8.7.7 9.4-5.7 11-6.5 76-41.9 160.6 11.3 178.7 90.3 22.4 97.9-71.6 195.8-169.4 154.4l-20.3-11.2c3.5 8.9 4.3 16.2-2.5 24-5.9 6.8-13.8 5.7-21.5 3l21.3 14.2c120.6 61 245.5-57.5 228.5-181.5-3.3-24.1-15.9-45.5-27.9-66.2-1.8-1.2-.9.9-.8 1.8 5 30-28 21.1-30.2.3-1.5-14 6.1-17.7 19-16.5Zm-605-59c-7 .9-24.7-3.7-29.9.6-3 2.4-11.7 18.3-14.2 22.8-4.2 7.4-8.3 14.9-11.8 22.7 1.9.4 2.4-1.1 3.5-2 8.2-6.8 15.5-16 24-23s18.7-11.9 26.8-18.2c1.1-.9 2.1-1 1.7-2.8Zm617 49c-.7-6.3-4.8-13-7.8-18.7-2.6-5-15.2-27.3-18.2-29.8-5.4-4.4-23.8.5-30.9-.6-.4 1.8.6 2 1.7 2.8 3.8 3 9.5 5.4 13.6 8.4 15.4 10.9 28.9 24 41.7 37.8Zm-358 71c-1.2-19-13.2-38-24.2-53.3-9.6-13.4-22-26.9-35.5-36.5-3.6-2.5-16.9-10.9-13.3-6.7 28 24.7 49.6 59.6 57 96.5zm42 0h16c7.1-35.9 28.2-70 54.7-94.7.6-.6 5.6-4.6.8-2.3-19 10.1-34.8 26.3-47.3 43.7-11 15.3-23 34.3-24.2 53.3m-147.2-86.8c-6.9.8-10 10.6-4.7 15.2 7.2 6.2 19.5 1 16.5-8.5-1.3-4.1-7.6-7.2-11.8-6.8Zm250 0c-13.7 1.6-12.5 19.8 1.7 17.8 12.6-1.9 9.5-19-1.7-17.8M782 1077c-6.6 0-13.6 3.9-19.3 7.2-73.5 41.8-78.5 165.6-7.2 212.8 5.1 3.4 12.8 8.3 18.5 8.5-46.4-35.7-62.3-96.1-48.1-152.1 8.2-32.6 30-56.6 56.1-76.4m492 229c29.3-10.6 51.7-35.4 61.7-64.7 15.8-46.1 5.7-112.2-32.7-144.8-9.7-8.2-24.5-17.9-37-19.5 26.1 19.8 47.9 43.8 56.1 76.4 14.3 56.7-2.1 116-48.1 152.6m-465.2-225.7c-15.8 1.9-35.6 16.3-45.8 28.2-64.1 75.3-11.5 244.3 102.3 188.3 88.3-43.4 66-231.2-56.5-216.5m405 0c-104.9 11.1-115.7 193.3-12.6 224 14.3 4.3 37.3 4.3 51.2-1.5 93.4-38.6 76.2-234.8-38.6-222.6Zm-510.1 14.9c-9.9 2.2-12.9 22.2-2.7 19.4 12.6-3.5 14.9-22.1 2.7-19.4m636 0c-2.1.6-3.6 4.3-3.6 6.4-.4 8.7 15.2 18.5 16.9 9.9 1.5-7.8-4.8-18.9-13.3-16.3M651 1143c-5.2-.7-22.5 7.9-23 12.5 6.3 31.5 7.9 63.7 6.9 95.9 7 2.6 14.3 4.3 20.6 8.6-13.3-37-13.9-78.9-4.5-117m761.9 108.9c-.6-32.3.6-64.7 7.1-96.4-.4-4.6-17.8-13.2-23-12.5 9 37.4 9.5 80.5-5 116.5 6.9-2.6 13.4-6.4 20.9-7.6m-355.1-93.7c-3.1-2.6-33.7-4.5-39.3-4.3-3.8.2-27.2 2.9-28.5 4.7-2.5 3.5 0 10.9.1 14.8.5 18.5-.2 36.5-3.3 54.7-1 5.8-4 12.9-4.3 18.8 0 1.1-.6 1.5.6 2.5 5.4 4.9 41.2 5.9 49.6 5.5 5-.2 30.9-2.6 33-6 .8-1.3-4.8-23.6-5.4-27.7-2.3-15.5-2.6-32.2-2.2-47.9 0-3.4 2.8-12.7-.2-15.2ZM923 1335.5l9-5.5c18.9-12.6 35-28.1 46.2-48.3 1.2-2.3 7.7-14.1 6.4-15.7l-11.6-2.9c-3 11.1-8.6 21.2-14.6 30.9-7 11.4-18 25.6-27.4 35.1l-8 6.5Zm202 0-8-6.5c-9.4-9.5-20.4-23.7-27.4-35.1-6-9.7-11.6-19.8-14.6-30.9l-11.6 2.9c-1.2 1.6 5.2 13.4 6.4 15.7 11.1 20.1 27.3 35.9 46.2 48.3l9 5.5Zm-227.3-26.3c-12 2.5-8.9 18.8.8 18.8 3.6 0 10.4-4 11.3-7.8 1.8-7.7-4.5-12.6-12.1-11.1Zm246 0c-1.2.3-5.1 4.3-5.5 5.5-4.1 13.4 21.1 19.5 19.9 2.8-.5-6.5-8.5-10.1-14.4-8.3" class="outline" data-original-prefix="outline"/><path id="outline-eyes10" class="outline"  fill="#000" d="M1084.7 1174.2c20-4.6 29.1 31.7 12.8 39.8-21.9 11-33.3-35.2-12.8-39.8m2 8c-10.3 3-2.5 26.9 7.6 23.7 5.8-1.8 2.9-26.8-7.6-23.7" class="outline" data-original-prefix="outline"/><path id="outline-eyes9" class="outline"  fill="#000" d="M1368.7 1168.2c22.1-5 23.6 37.4 9.6 40.6-24.7 5.6-27.6-36.5-9.6-40.6m5 6c-8.2 1.5-11.2 20.8-1.5 25.1 12.4 5.4 15.4-27.6 1.5-25.1" class="outline" data-original-prefix="outline"/><path id="outline-eyes8" class="outline"  fill="#000" d="M1251.7 1329.2c7-1.4 15 .3 18.7 6.8 8.9 15.9-22 33.9-33.4 17.4-6.3-9.2 5.7-22.4 14.7-24.3Zm1.1 6c-17 2.5-9.7 26.2 4.8 16.8 10.3-6.8 8.2-18.7-4.8-16.8" class="outline" data-original-prefix="outline"/><path id="outline-eyes7" class="outline"  fill="#000" d="M1251.8 1027.2c13.2-.7 26.5 12.3 17.7 24.8-7 10-21.5 6.7-29-1.1-9.2-9.5-1.6-23.1 11.3-23.8Zm-3.1 6c-12.5 2.8-1.5 21.4 11.3 17.3 11.1-3.5 3.6-20.7-11.3-17.3" class="outline" data-original-prefix="outline"/><path id="outline-eyes6" class="outline"  fill="#000" d="M1346.8 1265.2c2.5-.4 3.7-.2 6.1.5 17.1 4.9 3.1 33.3-13.3 33.1-19.4-.2-8.7-31.2 7.3-33.6Zm-3.1 6c-7.2 2.1-13.4 25.6 1.3 18.3 10.1-5 13.7-22.8-1.3-18.3" class="outline" data-original-prefix="outline"/><path id="outline-eyes5" class="outline"  fill="#000" d="M955.7 1174.2c29.3-6.1 19.7 51-4.6 40.2-15.5-6.9-8.6-37.4 4.6-40.2m2 8c-9.4 2.8-10.4 33.6 3.8 20.8 7-6.3 5.8-23.7-3.8-20.8" class="outline" data-original-prefix="outline"/><path id="outline-eyes4" class="outline"  fill="#000" d="M672.7 1168.2c24.1-5 25 45.1-2.2 40.7-13.8-2.2-13.3-37.5 2.2-40.7m-1 6c-11.6 2.1-7.2 30.9 4.6 24.7 10-5.2 5.2-26.4-4.6-24.7" class="outline" data-original-prefix="outline"/><path id="outline-eyes3" class="outline"  fill="#000" d="M786.7 1329.2c6.2-1.1 10.4-.2 15.6 2.9 9.3 5.6 15.8 17.8 4.6 25.2-12.4 8.3-35.8-5.5-30-20 1.3-3.4 6.2-7.5 9.8-8.2Zm4.1 6c-14 2.3-3.8 19.5 6.6 18.7 13-.9 8.9-21.3-6.6-18.7" class="outline" data-original-prefix="outline"/><path id="outline-eyes2" class="outline"  fill="#000" d="M793.8 1027.2c11.4-.9 19.9 7.4 17 19.1-.9 3.7-9.4 9.9-13 11-25.8 7.6-30.4-27.9-3.9-30Zm-2.1 6c-12.5 2.6-12 20.3 2.3 17.3 14.9-3.1 14.2-20.8-2.3-17.3" class="outline" data-original-prefix="outline"/><path id="outline-eyes1" class="outline"  fill="#000" d="M696.8 1265.2c16.2-2.7 29.1 25.4 18.6 31.7-19 11.3-40.9-28-18.6-31.7m.9 6c-9.3 2.1.9 20.2 9.7 19.8 8-.4 4-11.7 1-15.9s-5.7-5-10.7-3.8Z" class="outline" data-original-prefix="outline"/></g></g><g id="05_Right Ear" data-trait="hi-tek"><path id="fill-ear-rt" class="fill"  fill="#fff" d="M1715.7 184.2c3.2-.7 6.5-.5 7.2 3.3 2.3 39.5-3.6 77.2-9 116-.7 4.7-.2 11.1-1.1 15.9-5 26.9-24.5 58.9-29.7 86.3-5.7 30.4-4.7 64.8-10.9 95.1-7.8 38.3-25.1 77.8-33.7 116.4l-71.9 122.1c-45.8 31.3-94.9 58.3-141.8 88.2l-35 81-84.6 77.3c-5.6 2.9-16.3-.8-22.4-2.4-27.7-7.2-48.3-18.1-70.9-35.1-16.5-12.5-27.2-20.9-37.6-39.4-6-10.5-10.9-22.9-14.5-34.5 26.8-59.3 58.7-116.4 86.8-175.2 4.9-58.7 6.7-117.8 11.4-176.5 36.5-47.5 77-92.5 114.8-139.2 47.2-35.9 96.4-69 144.9-103.1 66.1-31.9 127.9-72.1 197.8-96.2z" class="fill" data-original-prefix="fill"/><path id="outline-shading-ear-rt" class="outline"  fill="#000" d="M1670.9 280.1c2.8 3.9-18.7 26.3-21.9 30.5-38.8 50.2-75.5 128.6-72.1 193 .8 14.1 7.3 33 2.8 45.7-3.7 10.4-14 27.3-15.4 37.7-.4 2.9.9 5.2.6 8 10-1.2 15.8-10.8 21.2-18.3 17.3-24.1 30.1-53.1 43.5-79.5 1.1-2.2 1.5-2.2 1.2.2-.8 9.2-6.8 26.8-9.7 36.3-15.4 50.2-37.8 100.7-66.2 144.8-15.3 23.7-22.2 32.4-46.1 47.9-25.3 16.4-36 17.1-63.9 25.1-14.1 4.1-56 16.5-65.5 25.5-11.9 11.1-30.7 52.3-40.3 68.7-13.5 23-27.7 45.9-43.8 67.2-3.6 4.8-10.5 10.9-13.3 15.7-5.6 10-6.8 27-11.1 37.9 7.3-4.2 14.2-10.7 20.5-16.5 12.8-11.9 26.4-25.8 38.5-38.5 12.3-12.9 33.6-33.7 41.2-48.8 7.8-15.6 13.6-33 21.3-48.7 14.9-4.8 30.4-7.3 45.1-12.9 49.9-18.9 92.7-57.3 134-90 1.4-.3 1.9 0 1.5 1.5-.9 3.2-10.1 20.8-12.2 23.8-4.2 6-36.3 28.6-44.5 34.5-29 20.7-59.7 39.2-87.9 61.1-15.7 27-28.8 55.8-43.5 83.5l-80 71c-6.2 2.7-28.5-4.8-35.8-7.2-32.1-10.8-54.1-27.3-79.9-48.6-8.9-15.6-7.9-22.5 2.7-36.2 24.9-31.8 50.6-57.8 73.4-92.6 33.1-50.5 54.8-106.4 86.2-157.8 11.1-18.2 27.9-36.1 31.3-57.7 1.4-9.1 1-19.2 1.1-28.4l54 6.5c10.6 14.3 17.8 31 26.5 46.5.8-.4 10.6-11.5 11.3-12.7 4.2-7.8 8.8-30.6 10.8-40.2 5-24.6 7-49.5 8.5-74.5 1.9-20.4-5.1-39.9 3.1-58.9 17.4-40.4 50.1-78.2 81-109l66.7-44.4c3.2-.7 24.4 7.8 25.2 8.9Z" class="shading" data-original-prefix="shading" opacity=".2"/><path id="fill-led-rt7" class="fill"  fill="#fff" d="M1379.7 841.5c9.8-2 9.4 10.6 2.5 11.7s-9.5-10.3-2.5-11.7" class="fill" data-original-prefix="fill"/><path id="fill-led-rt6" class="fill"  fill="#fff" d="M1568.2 520.6c6.2-6.2 14.8 6.6 6.7 10.2-6.8 3.1-10.5-6.5-6.7-10.2" class="fill" data-original-prefix="fill"/><path id="fill-led-rt5" class="fill"  fill="#fff" d="M1643.2 431.6c6.2-6.2 14.8 6.6 6.7 10.2-6.8 3.1-10.5-6.5-6.7-10.2" class="fill" data-original-prefix="fill"/><path id="fill-led-rt4" class="fill"  fill="#fff" d="M1661.2 292.6c6.2-6.2 14.8 6.6 6.7 10.2-6.8 3.1-10.5-6.5-6.7-10.2" class="fill" data-original-prefix="fill"/><path id="fill-led-rt3" class="fill"  fill="#fff" d="M1490.2 709.6c6.2-6.2 14.8 6.6 6.7 10.2-6.8 3.1-10.5-6.5-6.7-10.2" class="fill" data-original-prefix="fill"/><path id="fill-led-rt2" class="fill"  fill="#fff" d="M1534.2 714.6c6.2-6.2 14.8 6.6 6.7 10.2-6.8 3.1-10.5-6.5-6.7-10.2" class="fill" data-original-prefix="fill"/><path id="fill-led-rt1" class="fill"  fill="#fff" d="M1291.2 919.6c6.2-6.2 14.8 6.6 6.7 10.2-6.8 3.1-10.5-6.5-6.7-10.2" class="fill" data-original-prefix="fill"/><path id="outline-ear-rt" class="outline"  fill="#000" d="M1204 941c-4.5 0-9.7-3.5-13.7-5.8-21-12.1-28.2-34.8-42.8-53.2-1-3-.7-7.3-.5-10.5.9-20.4 12.5-34.1 20.8-52.2 6.3-13.5 12.6-35.7 19.9-47 3.2-4.9 8.4-9.8 12-15 29.7-42.8 37.8-119.3 42.2-170.8 1.8-21.4.9-43.9 3-65 .7-7 2.4-6.2 5.4-10.6 32.8-49.2 70.5-98.1 110.1-141.9 15.2-16.8 35.5-40.7 53.2-53.8 75.7-56 176.2-104.8 265.5-134.5 11.3-3.8 35.2-11.4 46.3-11.8 6.6-.2 6.4 4.6 7.8 10.2 7.4 30.6 1.8 91.4-1.3 124.3-.9 10.1-2.9 30.7-6.5 39.5-3.4 8.2-15.5 18.8-20 29-10.5 24-19.4 81.7-16.4 107.4.7 6.4 5.6 12.8 5.8 18.2.5 10.6-11.8 51.9-15.7 64.1-34.4 108.7-95.1 199.9-195.6 256.4-8.1 4.5-17.4 8-25.3 12.7-24.6 14.5-38.5 54.9-48.8 80.2-6.1 15-20.3 21.1-32 31-17.2 14.7-33 33.7-50 49-1.8 1-18.8 4.6-21.3 4.7-8.4.3-53.6-17-61.2-22.3-1.6-1.1-2.9-2.4-3-4.5 2.6 1 5.6.7 8 1.5 24.7 8.1 35.8 10.4 59.6-2.3 45.3-24.1 94-80.7 105.9-131.1.8-3.3-.3-6.6 1.4-9.6 1.9-3.3 32.1-21.9 37.7-25.3 8.6-5.2 17.9-9.2 26.3-14.7l-23.7-15.8c-1.9-3.8-3.4-8.3-1.5-12.5l21-32c1-4-2.6-7.8-2.7-11.8 0-3.5 2.1-7 2.4-10.4-5.6 4.3-51.8 33.5-54.5 31 3.1-7 7-13.6 9.8-20.7 2-5.1 7.2-20.1 7.2-24.8v-18.5l-80.6 123c-1.5 5.3 16.7 8.3 15.2 17.1l-35.4 55.5c0 1 13.3 9.5 14.3 9.5 1.8 0 12.1-16 12.3-17.7s-3.6-7.3-3.7-10.9c-.2-8.1 6.3-17 14.5-18.3 23.2-3.7 30.2 26.9 10.4 34.4-3.6 1.4-9.5 1.1-11 2-2.6 1.5-10.1 17.6-13.6 21.4-9.3 10.2-21.5-8.1-31.3-8.8l-21.7 33.9c.5 4.4 3.3 7.5 3.2 12.3-.3 14-17 23-28.7 14.2-16.3-12.4-4.6-35.5 14.8-32.7l61.1-93.5-38.2-25.2c-1.9.5-13.6 19.4-15.5 22.6-17.7 29.5-52.9 90-56.2 122.8-1.1 10.9 1.2 18.6 5 28.5-2.1 2.1-27.1-18.8-28.5-22-1.7-3.9.9-16.6 1.5-21.5.3-2.6-.3-5.5 0-8 .7-5.7 15.1-22.6 19.2-28.8 39.8-58.7 57.4-124.9 103.3-180.7 9.5-11.5 17.8-22.7 23.2-36.8 6.8-17.8 18-69.8 15-87.5-.7-3.8-10.8-27.6-9.8-28.7 13.4 6.1 26.7 13.4 39.3 21.2 4 2.5 14.9 8.6 17.2 11.8 3.4 4.9 10.1 27.9 12 35 2.4 8.5 6.3 34.7 11.4 39.5 12.6 11.9 29.7-12.1 35.2-21.9 27-47.4 34.2-98.4 26.7-152-1.2-8.6-7.3-28.6-6.7-35.9.3-3.3 6.8-17.2 8.6-21.4 21.8-50.7 47.9-79.6 86.7-117.4 10.1-9.9 24.6-25.8 35.1-34 6.8-5.3 15.4-7.7 22.4-12.6 6.3-4.4 20.5-19.4 27.6-20.4 1.5-.2 1.8 0 1.5 1.5l-24 39.1c-.6 1.7 3.6 2.7 5.4 4.6 12.7 13.2.3 33.6-17.2 31.1l-67.1 103.3 12.9 8c6.5-7.2 34.6-57.4 39.9-59.1 8.6-2.8 24.4 13.7 32.3 16.8 1 .4 1.6 1.3 2.8.3 1.2-.9 6.4-23.5 7.7-27.3 4.9-14.6 11.8-23.9 18.1-36.9 5.8-11.9 9.2-43.6 11-58 3-24.6 4.6-49.6 2.1-74.4-1.9-2-45.9 15.8-51.3 18.1-72.5 32.1-155 81.6-220.4 126.6-53.3 36.7-89.9 73.5-130.2 123.8-13.1 16.4-31.1 37.5-42.5 54.5-13.7 20.4-13.2 63.6-15.6 88.4-3.2 33-4.2 70.9-9.1 102.9-2.9 18.7-26.7 65.7-36 85-6.8 14.1-16.8 28.5-23.1 42-6.3 13.7-9 29.6-15.7 43.3-3.2 23.4 13.4 51.1 28.9 67.4zm455.2-647.8c-3.7 3.7 0 13.3 6.7 10.2 8.1-3.6-.6-16.4-6.7-10.2M1646 299c-1.5-1.6-11.3 7.1-13 8.5-8.7 7.2-18.9 17.1-26.5 25.5-3.3 3.7-18.8 22-18.6 25.5 0 1 .4 1.4 1.1 2 .7.7 15.7 9.1 17.3 9.7 5 1.9 3.1 0 5.3-3.2 12.7-18.5 24.4-37.6 37-56.1 1.4-3.6-3.9-7.5-2.5-11.9zm-44 82c-5-.8-18.4-11.9-22.3-11.1-3.2.7-22.3 42.9-24.4 48.9-11.4 33.4-17.4 78.1-3.3 111.2l1.5-10c4.9-14.2 23.6-16.4 31.9-3.9 3.6 5.4 1.5 10.7 3.5 13.5 1.8 2.5 11.4 7.1 14.4 9.3 1.2-.2 13.1-18.3 13.9-20.2.3-.9 1.1-1.6.3-2.7l-46.1-31c-.4-.8-.6-1.6-.6-2.5-.3-6.8 23.6-35.7 26.9-44-3.8-5.1-19.8-10.5-19.9-17s25.5-38.6 24.1-40.5Zm35 224c8.9-26.3 18-52.9 24.5-80 7.8-32.4 4.9-57.7 8.5-89.5 1.3-11.8 4.9-23.4 7-35l-1-2-25.7-16.4-46.4 70.4c.2 2 7.5 6.3 9.6 7.5 1.6.9 6.1 4.3 7.5 3.6.8-.5 9.7-14.3 9.8-15.2.2-1.6-3.3-7.1-3.4-11-.2-9 7.1-17.6 16.1-18.4 22.1-1.9 28.3 30.3 4.8 35.8-2.3.5-5.4-.4-7.3.7-3.3 1.9-11 19.8-15.2 21.8-8.2 3.9-21.8-10.9-29.3-14.2-1 0-10.5 15.5-10.5 16.5 0 3.9 43.7 26.4 45.6 32.4.7 2.3.9 4.8 0 7-12.3 19.5-26.1 38.3-37.3 58.4l42.8 27.6Zm4.2-172.8c-3.7 3.7 0 13.3 6.7 10.2 8.1-3.6-.6-16.4-6.7-10.2m-75 89c-3.7 3.7 0 13.3 6.7 10.2 8.1-3.7-.6-16.4-6.7-10.2m-9.5 17.9c-1.4.4-9.6 12.7-11.1 15-12.4 19.2-20.1 40.6-26.6 62.4-1.2 4-7.8 25.4-6.5 27.5.5.8 14.3 9.8 15.2 9.9l69.3-104.4c0-.9-13.7-9.2-14.6-9.3-2-.2-7.3 3.8-11.8 3.9-5.4 0-12.7-5.3-13.8-5Zm-88.6 225.8c7.4 2.3 16.6 12.2 22.9 14.6 5.1 1.9 15.1-6.1 19.7-9.2 41.3-28.2 86.8-87.4 110.4-131.5 2.4-4.4 8.2-14.5 9.4-18.7.4-1.4.9-2.7 0-4l-43.9-27.9c-1.2.3-12 17.3-11.7 19.3l25.6 16.6c4.8 4.8 1.6 9.2-1.1 13.9-5.6 10-47.6 69.1-47.2 73.4.4 3.8 2.5 6.3 1.8 12.2-1.8 14.7-22.8 19.5-32 7-10.6-14.4 4.1-33.4 20.9-27.6 14.5-24.4 31.9-47.3 45.7-72l-21.1-13.9c-8.2 8.4-25.9 45.5-34.1 49.8s-16.5-7.9-24.4-9.9c-1.9 8-2.3 16.5-5 24.3-2.8 2-16 12.7-16.1 15.2 30.2-1 29.4 38.8-.8 36.7-4.2 9.5-14.9 19.7-18.7 28.8-.4.9-1 1.9-.4 2.8Zm-60.4-144.7c-1.4.3-2.1.9-3.1 1.9-8.3 7.8-18 49.2-19.4 61.6-.6 5-.2 21.1-1.7 24.3-1.2 2.6-13 12.6-16 16-10.2 11.5-21.5 26-30.3 38.7-1.4 2-9 12.8-9.1 14 0 1.5.8 1.5 1.5 2.2 1.3 1.2 15 9.8 16.1 10 1.2.2 2 .2 2.8-.9l87.3-133.8c1.1-4.5-10.3-23.8-13.8-27.7-3.7-4.1-8.4-7.7-14.3-6.3m80.5 90c-3.7 3.7 0 13.3 6.7 10.2 8.1-3.7-.6-16.4-6.7-10.2m44 5c-3.7 3.7 0 13.3 6.7 10.2 8.1-3.7-.6-16.4-6.7-10.2m-154.4 127c-6.9 1.4-4.1 12.7 2.5 11.7 6.7-1 7.3-13.6-2.5-11.7m-88.6 78c-3.7 3.7 0 13.3 6.7 10.2 8.1-3.7-.6-16.4-6.7-10.2" class="outline" data-original-prefix="outline"/></g><g id="06_Left Ear" data-trait="ringer"><defs></defs><path id="fill-ear-left" class="fill"  fill="#fff" d="M366.5 448c2.2-.7 1.7-6.1 1-8-14.8-50.5-33.9-100.1-45.5-151.5l-3-99c.6-3.5 14.7-7.2 18.4-7.5 72.6 34.3 145.7 67.7 217.5 103.6L702.5 405l86.3 108.7c9.7 62.8 14 126.7 22.2 189.8l75.7 173.9-26.9 52c-5.3 7.8-42.1 33.9-51.5 38.5-18.4 9-40.3 13.4-59.9 19.2l-3-1L638 882.5c-7.9-16.2-9.4-35.5-17.5-51.5L476 735.5l-73.2-131.3c-15.9 1.2-45.2 3-28.2 25.7 7.5 10.1 22.2 9.2 32.5 13.5 1.2 5.2 9.4 13.6 10.5 17.5 1 3.2-1.3 6.7-.6 10l-68.5-7-16.8-43.2-.2-4.8 23.8-45.7c3.4-2.8 29.6-6.2 36.2-8.3 1-.3 2-.2 2.4-1.4-4.9-19.1-12.3-39.6-14.7-59.2-.4-2.8.7-10.8-1-12-7.7-.7-15.3-2.8-23.1-2.4l5 37c-4.9.6-8.3 6.4-14 4.6l-46.8-15.7v-39.6l30.9-22.7c3.4 1 12.5-2.5 13.5-2.5 4.6 0 20 .9 23 0z" class="fill" data-original-prefix="fill"/><path id="fill-earing-lft2" class="fill"  fill="#fff" d="M404.9 643.2c1 .6 9.3 17.3 12.1 19.3.2.5-2.1 1.1-2.6 1.1-14.2.4-44-3.9-56-11.5-9.6-6-21-30.6-19.2-41.6 1.4-8.8 18.5-28.8 27.1-31.8 12.1-4.4 38.3-7.8 51.3-7.7 9.6 0 20.4 10.4 15.4 20.4s-17.7 8-23.7 9.3c-9 1.9-31.4 3.1-37.5 8.5-7.4 6.4-2 19.2 3.9 24.9 4.8 4.6 16.5 7.7 23.1 8.9 1.8.3 5.2-.4 6.2.3h-.1z" class="fill" data-original-prefix="fill"/><path id="fill-earing-lft1" class="fill"  fill="#fff" d="M360 523c-3.2 2.8-33.2-6.9-38.4-9.1-15.7-6.7-18.1-11-16.7-28.4 1.2-14.7 9.9-16.9 22.1-21.9 21.4-8.9 37.2-11.8 60.2-5.2 8.6 2.5 26.1 9.5 27.6 19.5.9 6.5-3.8 15-10.5 16.1-2.5.4-17.8-4.5-22.2-5.4-12.8-2.4-34.3-7.6-44.1 3-13 14.1 15 16.1 18.6 19.5 1.8 1.7 2.4 9.3 3.5 12h-.1Z" class="fill" data-original-prefix="fill"/><path id="outline-shading-ear-lft" class="outline"  fill="#000" d="m608.2 565.2 3.3-1.2 51.4-6c1.9 9.6.6 19.6 2.2 29.3 3.3 21 21.8 41.3 32.7 59.3 28.9 47.5 49 99.2 78.8 146.2 16.1 25.4 34.3 49.3 53.4 72.6 7.9 9.6 28.7 29.6 32.7 39.3 1.1 2.7 2.6 7.6 2.1 10.5-.3 1.4-7.6 14.6-8.8 16.2-3.6 4.9-14.8 12.8-20.1 16.9-22.1 17-43.7 28-70.9 35.1-4.6 1.2-16.1 4.8-20 3l-92-84.2c-10.8-23.6-17.5-49.5-29.5-72.3L510 764.4l-84.1-88.9c-25-3.4-50.4-5.3-75.4-8.6-1.3-.2-4-.6-4.7-1.5L326 606.8l30.8-40.3c3.9-2.9 10.3-.8 15.1-1.4 1.2-1.2-6.9-24-8-27.5-8.1-2.8-41.4-4.6-46.1-8.9-3.1-2.9-16.5-30.5-19.5-36.5s-7.8-14.2-7.5-16.5c0-.8.4-1.5 1.1-2l51.3-33.7c3.4-1.3 29.1-1.4 32.8-.3l43.5 26.5c1.2 1.1 1.6 2.4 2.2 3.8 1.2 3.2 5.4 18 5.4 20.8 0 5.9-7.2 8-6.9 10.8.3 3.3 9.1 19.4 11.3 23.7 8.1 15.8 29.4 56.7 42.6 66.4 2.6 2 5.4 4.1 8.9 3.6 1.8-8.1-2.3-16.5-5.2-24.2-2.8-7.3-11-21.9-11.7-28.4-.9-9.3 4.3-27.3 4.9-37.9 3.8-61-29.8-136-65.2-184.8-8.8-12.1-24.5-26.6-30.7-39.3-1-2.1-7.2-18.7-7-19.7.2-1.1 5.7-4.9 6.9-5.2 2-.5 12.8 7.7 15.7 9.4 30.1 17.6 70.1 41 93.8 66.2s51.7 62.1 64.7 92.3c5.3 12.5 4 11.2 3.8 24.1-.7 40.9 1.3 80.7 10.5 120.5 1.7 7.1 5.7 25.4 9 31 .8 1.3 7.7 9.2 8.9 10.1.9.6 1.4 1.7 2.6.5l24.2-44.3zm-292.1-82.3c3.4 2.2 5.5-3.1 7-4.3 12.8-10.8 63.5-.9 80.3 1.4 11.5-4.6 6.5-11.6-1.7-16.2-12.2-6.9-36.4-10.5-50.1-8.7-5 .7-31.9 10.7-35.1 13.9-2.2 2.2-1.9 12.9-.4 14q0-.1 0 0ZM419 503c-11.1 4.8-24.2.2-36 1l13 60 40-2zm5.8 70.2c-3.2-3.1-24.7-.7-30.1 0-9.5 1.1-25.8 3.3-33.8 8.2-5.4 3.3-19.9 21.7-21.4 27.6-2.8 10.8 1.6 22.4 14.5 20-1.1-8-2.6-17.2 2.2-24.3 8.9-13.2 46.4-4.8 62.3-16.7 3.8-2.8 11.1-10.1 6.3-14.8M450 595l-39.9 13.4c11.9 17 20.5 35.9 31.6 53.4 42.6 67.4 95.1 111.3 170.2 139.8 14.3 5.5 29.5 7.7 44 12.5 5.5 13.5 10.9 27.2 17 40.5 9.5 20.5 22.4 32.9 37.7 49.3 17.6 18.9 38.6 41.2 58.5 57.5 1 .8 7.3 6.2 8 5.5-3.9-10.9-5.5-27.1-10.2-37.3-2.9-6.1-17-20.7-22.2-27.8-24.6-34-42.1-71-63.4-106.6-13.9-23.2-19.7-24.2-44.7-33.3-22-8.1-50.6-11.8-70.2-19.8-11-4.5-43.7-25.5-52.2-33.8-7.1-6.9-18.4-25.8-24.1-34.9-15.6-24.8-29.5-51.1-40-78.5h-.1Zm-45 42c-3-8.1-6.1-16.4-11-23.6-2.7.8-19.3 4.8-20 5.6-.3.4 0 2.3.5 3 .8 1.3 24 13.2 26.8 14.2 1.2.5 2.3 1.1 3.7.8" class="shading" data-original-prefix="shading" opacity=".2"/><path id="outline-ear-lft2" class="outline"  fill="#000" d="M671 548c1 1.1-8.8 24.7-9.5 28.9-3.2 18.8 9 75.7 17.4 93.7 8.3 17.9 19.9 26.5 31 41 35 45.5 53.4 108.2 84.2 156.9 4.4 7 27 36 27.8 40.2 1.2 5.8 2 19.4 2.3 25.8 0 1.9.2 3.7-.6 5.5-1.3 3.1-26.2 24.3-28.5 22 .6-4.8 4.2-9.9 4.9-14.6 4.5-32.7-34.7-99.9-51.7-129.1-19.1-32.7-44.8-69.8-70.1-97.9-2.4-2.7-12.2-10.8-13.1-12.2-2.1-3.5-.6-16.6-1-21.8-1-12.8-10.5-52.4-18-62-10.4-13.3-23.7 7.8-28.2 16.8-11.9 24-9.9 50.3-.3 74.7 2.7 6.9 6.7 13.2 9.5 20-2.9 0-5.5-1.3-8-2.5-17.1-8-40.7-23.6-55.4-35.6-4.2-3.4-15.7-12.9-18.4-16.6-3-4-9.1-42.7-11.4-51.6-8.6-32.6-20.5-64.9-41.6-91.5-.3-1.7 5.1-9.4 6.3-12.3 14.5-33.8 3.2-89.9-11.3-122.7-23.4-53-61.8-94-110.7-124.3l-22.5-39c3.3-3.1 26 18.4 29.7 20.8 6 4.1 14.7 6.7 20.3 10.7 9.2 6.5 21.7 22 30.5 30.5 33.1 32 57.7 54.3 80 96 4.4 8.1 20.6 40.5 21.3 47.8.7 7.6-5.5 27.2-6.7 35.9-7.6 53.4 0 102.9 25.7 150.1 5.5 10 23 36.2 36.2 23.9 4.9-4.5 9.1-31.2 11.5-39.5 2-7.1 8.6-30 12-35 3.1-4.5 28.4-18.6 34.8-22.2 2.3-1.3 20.8-11.7 21.7-10.8z" class="outline" data-original-prefix="outline"/><path id="outline-ear-lft1" class="outline"  fill="#000" d="M846 940c15.1-16.5 31.1-43.1 27.9-66.4-6.7-13.7-9.4-29.6-15.7-43.3-5.9-12.9-15.5-26.6-22-40-10.6-21.5-23.7-48.6-32.3-70.7-9.2-23.4-7.5-61.4-9.8-87.2-1-11-2.9-22-4-33-2.3-24.6-2.1-67.2-15.6-87.4-14.6-21.8-37.5-48.9-54.5-69.5-41.4-50.3-82.8-86.1-137.5-121.6-42.3-27.4-87.4-55.5-131.9-79.1-38.8-20.7-78.7-40.2-120.7-53.8-3 38.2.9 78.6 8.3 116.2 3.3 16.9 7.6 19.5 14.6 33.4C367 366.1 372 402 378.4 433c1.5 4.2 10.7 6.3 14.6 8.4 13.7 7.3 26.9 14.3 34.4 28.6 6 11.4 4.6 18.9-3.4 28.5-12.5 14.9-22.7 12.7-40 7.5-1.6 1.8 9.7 42.2 12 47.5 20.4.6 40.3.8 51.9 20.1 6.5 10.9 4.8 15.8-1.8 25.8-7 10.7-14.9 15.8-28 16.5-1.5 1.5 7 17.2 8.5 20 24.3 45.7 71.1 106.9 114.2 135.8 26.6 17.9 62 31.7 86.6 51.4 7.8 6.3 4.2 5.9 6.1 13.9 12 50.8 60 106.1 105.3 130.7 23.2 12.6 44 11.2 68.3 1.2-1 4.5-8.9 7.6-13 9.5-19.5 8.8-52 23.1-72.4 12.4-3.2-1.7-21.8-20.6-26.2-24.8-8.6-8.3-15.6-17.1-25-25-10.3-8.7-24.4-15.4-30-28-10.2-23.4-16-42.1-31.1-63.9-13.3-19.2-23.3-19.4-42.1-29.9-55.3-31-107.1-75.3-138.5-131-19.2-.6-39.2-1.6-58-5.5-27.5-5.8-33.9-14.5-44.3-39.7-8.6-21.1-13.7-31.3-2.7-52.6 9-17.5 20.9-37 43.2-36.3l-2.1-10.9c-21.9-2.3-55.5-6.5-70.9-23.6-10.3-11.5-13-21.7-12.1-37 1.1-18.1 4.6-21.7 19.4-30.6 10-6 25.4-14.6 36-19 6.2-2.6 12.7-5.4 19.7-4.8 2-2-10.8-49.6-13.2-55.3-4.6-10.8-15.9-20.4-20-29-3.4-7.1-5.9-31.4-6.8-40.2-3.1-33.1-7.5-84.8-2.9-116.9.4-2.5 3.3-15.8 4.5-16.7 1.7-1.2 4.6-.9 6.6-.7 27.9 2.6 74.9 22.3 102 33 67.9 26.9 154.8 70.8 212.1 115.9 12 9.5 25.4 25.3 36.2 36.8 46.7 50.2 88 104.7 126.9 161.1 8.9 76.2 3.1 178.6 48.8 244.2 2.9 4.1 7.4 7.9 10 12 7.1 11.1 12.9 32 19 45 4.2 9.2 9.1 18.3 13.7 27.3 1.4 2.7 6.4 9.3 7 11 .8 2.6 2.6 22.5 2 24.6-10.1 12.6-17.6 27.8-27.4 40.6-7.7 10-14.2 13.1-25.3 18.7-1.2.6-3.1 2.7-4.1.4zM360 523c-1.1-2.7-1.7-10.3-3.5-12-3.5-3.4-31.6-5.5-18.6-19.5 9.8-10.5 31.3-5.4 44.1-3 4.5.9 19.7 5.8 22.2 5.4 6.7-1.1 11.5-9.6 10.5-16.1-1.5-10-18.9-17-27.6-19.5-23-6.5-38.7-3.7-60.2 5.2-12.2 5.1-20.9 7.2-22.1 21.9-1.4 17.4 1 21.7 16.7 28.4 5.1 2.2 35.1 11.9 38.4 9.1h.1Zm44.9 120.2c-1-.6-4.4 0-6.2-.3-6.6-1.2-18.3-4.3-23.1-8.9-5.9-5.6-11.3-18.5-3.9-24.9 6.2-5.3 28.5-6.5 37.5-8.5 6-1.3 21-4.1 23.7-9.3 5.1-10-5.8-20.4-15.4-20.4s-39.1 3.4-51.3 7.7c-8.6 3.1-25.8 23-27.1 31.8-1.7 11 9.6 35.6 19.2 41.6 12.1 7.5 41.8 11.8 56 11.5.6 0 2.8-.6 2.6-1.1-2.8-2-11.1-18.7-12.1-19.3h.1zM396 628c-1.1-6.4-1-9.6-8.2-8.7-13.6 1.6 1.6 10.2 8.2 8.7" class="outline" data-original-prefix="outline"/></g><g id="07_Head" data-trait="speed-racer"><path id="fill-head4" class="fill"  fill="#fff" d="m1431 1409-41.1-257.4c-1.8-7.4-14.5-16-16.9-22.1 0-.3 4.9-1.9 3.8-5.8-.4-1.7-21.7-20.6-24.8-23.2-18.8-16-29.9-20.5-54-26-41.9-9.6-85.8-13.5-128.5-17.5-120.9-11.3-230.5-8.9-350.9 6.1-27.3 3.4-76.1 9.3-100 21-17.5 8.6-32 26.8-47.2 38.9-2 4.4 3.7 6.1 3.5 6.5-1.9 4.6-12.4 13.1-15.4 18.6-.9 1.6-1.7 3.1-2.1 4.9-12.7 80-23.7 160.5-37.7 240.3-.8 4.3-1.5 9.3-2.6 13.4-.2 1 .4 3.2-1.6 2.3-2.3-.9-17-21.4-19-25-12.1-21-8.6-47-7.5-70.6 4.7-99.7 18.6-254.8 66.9-342.1 40.5-73.3 137-143.2 216.4-167.6 99.8-30.7 187.3-31.9 288-4.5 83.2 22.7 179.3 87 225.2 160.8 54.4 87.5 68.8 250.9 73.6 353.4 1.9 39.8 5.1 61.6-23.5 92.6-1.2 1.3-2.5 3.2-4.5 3Z" class="fill" data-original-prefix="fill"/><path id="fill-head3" class="fill"  fill="#fff" d="m1347 1120-45.5-1c-157.8-13.8-319.8-16.5-478-7-40.9 2.4-81.4 9.1-122.5 8 2.1-3.2 5.5-5.6 8.5-7.9 21.1-16.9 28.9-18.3 55.3-23.7 162.6-33.2 356.7-33.2 519.2.2 22.8 4.7 31.3 5.8 49.9 20.1 4.5 3.5 9.6 6.9 13.1 11.4Z" class="fill" data-original-prefix="fill"/><path id="fill-head2" class="fill"  fill="#fff" d="M671.3 1155.3c.6-.8 2.5-1.3 3.7-2.8 2.9-3.4 15.6-21.8 17.7-22.4 2.3-.7 4.2.4 5.1 2.6l-53.1 300.5c0 9.8-15.7 3.6-16.7-1.8l42.2-273.8c0-.9.5-1.7 1-2.4Z" class="fill" data-original-prefix="fill"/><path id="fill-head1" class="fill"  fill="#fff" d="m1376.7 1155.3 43.3 273.2c1.8 7.6-14.9 14.6-16.8 5.7l-53.2-299.8c-1.1-3.2 1.5-4.7 4.5-4.4 4.3.4 16 23.1 22.2 25.3" class="fill" data-original-prefix="fill"/><path id="outline-shading-head" class="outline"  fill="#000" d="M613 1326c1.7-.9 2.1-5.1 2.5-7 13.6-59.4 24.3-119.5 39.4-178.6 10.4-12.2 24.2-21.3 36.1-31.9l23-1.5-1 3c9.8-.9 19.8-.3 29.5-.9 8.6-.6 17.3-2.3 26-3 146-12 294.7-16.2 441-6 41.9 2.9 83.5 9 125.5 10l-1-3 23 1.5c11.7 10.6 25 19.7 35.8 31.2 9.2 39 18.2 78.1 26.8 117.2 4.7 21.6 8 45.2 13.8 66.2.3 1 .2 3 1.7 2.8 1.8-4.6 4.6-7.2 5.1-12.4 2.1-21.1.6-53.2 0-75.1-1.9-66-11-137.1-24.3-201.7-2.2-10.7-8-27.4-8.7-37.3 0-.6-.3-1.7.5-1.5 1.3 1.4 2.8 2.6 4 4 5.5 6.1 21.8 23.2 24.6 29.5 4.1 9.3 7.8 27.3 10.2 37.8 18.4 77.2 26.7 163 29.6 242.4.7 20.3 4.6 54.1-3.5 72.4-4.6 10.4-19.7 26.4-27.9 35.1-2.1 2.2-11.3 9.4-12 11-2.4 5.7 2.8 12.2 1 15-1.1 1.7-28.4 12.9-32.5 14-.6-9.3-4.4-18.7-5.8-27.8-8.9-57.6-16.3-115.7-26.5-173.4-6.3-35.8-11.9-79.6-21-114-1.2-4.7-1.3-1.9-5.7-1.8-2.7-11.1.5-14.9-12.5-16-32.5-2.8-67-2.7-100-5-136.8-9.7-274.2-9.7-411 0-32.9 2.3-66.2 2.5-99 4.9-13.6 1-11.7 4.7-13.5 17-2.8.3-4.5-3.7-5.8-.3l-53.2 316.3-31.4-13.1c-3.7-2.6.2-6.8.5-10.4.5-7.7-7.8-11.4-12.6-16.4-7.8-8.2-22.2-23.4-27-33-9.3-18.8-5.2-53.4-4.4-74.5 2.9-79.1 11.2-164.6 29.5-241.6 2.5-10.6 6.7-30.7 11.1-39.9 2.5-5.1 17.2-21 21.9-26.1 2-2.1 4.1-4.3 6.5-6-13.7 58-23.7 117.1-29 176.5-1.7 19.4-3.4 39.5-4 58.9-.8 23.7-2.1 58.1 0 81.1.5 5.4 3.3 6.7 5.1 11.4zm27 101 49-293c-13.9 10.3-18.8 24.1-23.5 40-15.6 52.5-22.9 109.4-36.2 162.7l1.7 6.6c-.2 20.7-11.7 49.5-11 69.1.4 10.8 11.2 12.9 20 14.5Zm719-292 50.4 292c9.3-3 18.4-3.6 18.6-15.5.3-19.2-10.5-46.6-11-67-.7-28.3-9.3-60.2-15.5-88.5-5.5-25.5-11-53.1-18-78-3.9-14-7.2-25.9-17-37-.9-1-6.5-7.1-7.5-6" class="shading" data-original-prefix="shading" opacity=".2"/><path id="outline-head" class="outline"  fill="#000" d="m1333.9 1132.1-85.4-3.1c-127.2-13-255.6-10.7-383-6-50.2 5-100.4 7.9-150.8 8.9l-1.4 2.8c-19.6 101.2-30.5 204.8-52.6 305.5-1 4.3-3.2 16.1-4.9 19.1-2 3.7-7.6 7.9-12.1 6.4l-34.3-15.8c-5.8-4.2 1.9-12.8 0-17-.5-1.2-15.8-14.6-18.6-17.5-14-14.8-24.5-27.6-26-49-3-44.4 2.7-103.2 7-148 7.7-79.3 22.7-178 55.1-250.9 42.8-96.1 180.8-182.4 281-204 60.5-13 159.1-13.6 220-2.4 104.8 19.3 249.4 107.4 293.3 207.7 43.6 99.6 57.2 242.1 60.5 350.5 1.4 44.7 7.8 61.2-24.5 95.5-2.8 3-18.5 16.8-19.1 18-1.8 4.1 5.8 12.8 0 17l-32.7 15.3c-5.6 2.7-12.2-2.2-14.3-7.3-5.6-13.3-7.9-40.9-10.8-56.2-1.6-8.2-3.9-16.4-5.4-24.6-14.8-81.5-26.5-163.6-41.4-245.1zM1431 1409c2 .2 3.3-1.7 4.5-3 28.6-30.9 25.4-52.8 23.5-92.6-4.9-102.5-19.3-265.9-73.6-353.4-45.9-73.8-142-138.1-225.2-160.8-100.7-27.5-188.2-26.2-288 4.5-79.4 24.4-175.9 94.3-216.4 167.6-48.3 87.3-62.2 242.4-66.9 342.1-1.1 23.6-4.6 49.6 7.5 70.6 2 3.5 16.7 24 19 25 2 .8 1.4-1.3 1.6-2.3 1-4.2 1.8-9.1 2.6-13.4 14-79.8 25-160.2 37.7-240.3.4-1.8 1.2-3.3 2.1-4.9 3-5.5 13.5-14 15.4-18.6.2-.4-5.5-2.1-3.5-6.5 15.1-12.1 29.7-30.3 47.2-38.9 23.9-11.7 72.7-17.6 100-21 120.4-15 230-17.5 350.9-6.1 42.7 4 86.7 7.9 128.5 17.5 24.1 5.5 35.2 10 54 26 3.1 2.7 24.4 21.6 24.8 23.2 1 3.9-4 5.4-3.8 5.8 2.4 6.1 15.1 14.7 16.9 22.1l41.1 257.4Zm-84-289c-3.6-4.5-8.6-7.9-13.1-11.4-18.6-14.4-27.1-15.4-49.9-20.1-162.6-33.4-356.6-33.4-519.2-.2-26.4 5.4-34.1 6.8-55.3 23.7-3 2.4-6.4 4.7-8.5 7.9 41.1 1 81.6-5.6 122.5-8 158.2-9.5 320.2-6.8 478 7l45.5 1Zm-675.7 35.3c-.6.7-.9 1.5-1 2.4l-42.2 273.8c1 5.4 16.7 11.6 16.7 1.8l53.1-300.5c-.9-2.2-2.8-3.2-5.1-2.6-2.2.6-14.8 18.9-17.7 22.4-1.2 1.4-3.1 2-3.7 2.8Zm705.4 0c-6.3-2.2-17.9-24.9-22.2-25.3-3-.3-5.5 1.2-4.5 4.4l53.2 299.8c1.9 8.9 18.6 1.9 16.8-5.7z" class="outline" data-original-prefix="outline"/></g></svg>