<?xml version="1.0" encoding="UTF-8"?>
<?xml-stylesheet type="text/css" href="styles/collection.css"?>
<svg xmlns="http://www.w3.org/2000/svg" viewBox="0 0 2048 2048"><g id="01_background" data-trait="green"><path id="color-green" fill="#32992c" d="M2048 0v2048H0V0z" data-original-style="transition:fill .3s ease" style="transition:fill .3s ease"/></g><g id="02_Jaw" data-trait="OG-cracked"><defs>
    
  </defs>
  <path id="fill-jaw" class="fill"  class="st0" d="M1396.7,1438.7c-6.7,4.3-46.8-1.7-48.7.3l-12.2,69.8-57.2,29.3-1.4,1.6c-1.5,11.9,1.5,24.2.9,35.9-.3,4.9-1.3,15-2.3,19.7-.6,2.8-13.7,32.2-15,33.5s-16.1,8.9-16.7,8.3l-9.5-50-51,52c-7.7,5.7-20.7,9.3-27.5,15.5-14,12.7-25.2,37.4-42.1,47.9-5.4,3.3-61.3,25.7-66.7,26.3-13.8,1.7-33-3.3-47.7.2-17.7-10.3-50.1-16.2-66.1-26.9-14.3-9.6-28.3-35.6-41.4-47.6-6.7-6.1-19.9-9.6-27.5-15.4l-51-52-9.6,48.4c-.6.9-.9,1.7-2.2,1.5-.8,0-13.8-7.6-14.4-8.2-1.4-1.4-15.9-33.3-16.2-35.3l-.5-54.4-58.2-30.3-12.3-69.7c-8.1-1.2-45.1,3.9-49.5-1l-37.1-85-.5-3.4,31.5-70.6c5.3-1.6,29.1,0,31.3-6.7.8-2.3-.6-19.5-1.3-22.4-2.2-8.4-16.2-24-19.8-33.2-.7-1.7-1.2-3.1-.6-5,4.7-11.3,10.3-22.3,14.1-34,7.3-22.4,7.2-42.6,16.9-65.1,47.5-110.2,188.9-176,299.9-200.1,44.7-9.7,79.8-1.5,122.7,11.2,98,28.9,222.6,97.5,259,199,6.8,19,7,38.1,13.5,57.5,3.8,11.2,10.1,22.1,13.7,33.4,0,1.4-8.3,16.4-9.8,19.1-2.4,4.3-9.7,13.4-10.7,17.3-1.8,6.8-.6,15.6-2.3,22.5,9.9,7.9,21.3,4.2,32.4,6.5,9.6,23.9,23.5,46,31.4,70.6-9.8,26.3-22.2,51.8-33.2,77.7-1.3,3-1.7,9.3-5.1,11.4h0Z"/>
  <path id="shading-jaw" class="shading"  class="st1" d="M1380.8,1185.8c-.2.4-2.1.7-2.8,1.7-8.6,10.8-16.2,26-21,39-4.2,11.4-5.1,22.7-13,32-18.8,22.4-51.8,45.5-78.3,57.7-5.4,2.5-12.5,3.7-16.7,7.8h20.5c2.7,0,5.1,1.2,7.9,1.1,18.1-.2,64.4-19.8,77.5-32.6,5.7-5.5,14.1-15.7,15-23.5,1.8,0,.7,2.4,1.5,4,3.1,5.9,15.5,5.2,21.5,6,.2,1.6-1.5.7-2.3,2.2-4.6,8.3-4.4,21.6-10.6,28.3-7.5,8.1-37.1,13.5-48.8,17.2-14.5,4.6-29.8,8.8-42,18.1l-52.8-14.8c-19.3-2.3-9.9,15.4-5.3,25.3,5.2,11.3,20.7,40,30.4,46.6,11.9,8.2,22.7-10.2,30-17,6.3-6,16.2-11.8,24.6-14.4,17.7-5.6,32.3,4.7,50.5,5.4,17.4.8,34.6-7.7,48.8-17.2,3.6-2.4,14.6-13.9,17.2-13.8,1.7,0,3.3,6.1,1.8,7.8-10.1,24.3-21.6,48-31.8,72.2-3.7,8.8-.8,14-13,15-9.3.7-15.8-1-24.2-1.8-4.8-.4-11.8,2.5-17.3-.2l-12.9,70.6-59,30.5c.4,11,2.6,23.6,2,34.5-.3,5.7-1.3,15.4-2.1,20.9-.5,3.1-13.4,31.4-15.4,33.6-3,3.2-11.6,6.2-15.5,9-.8-4.9-2.7-10.6-3-15.5-.6-11.2,2-11.3-2.7-23.2-.4-1.1-1.9-1-2.2-2-.8-2.2-.8-6.7-1.1-9.2l-2.3.2-50.2,51.8c-7.7,5.2-19.5,8.7-26.5,14.5-14.2,11.7-24.4,36.1-41.5,47.5-6.7,4.5-54.2,25.7-61.2,26.8-9.9,1.5-51.8,1.6-61.5,0-6.9-1.2-49.7-20.5-57.3-24.7-15.8-8.9-30.2-37.8-44.4-49.6-6.9-5.7-19-9.3-26.5-14.5l-51-52c-1,8.1-7.3,16-8.1,24-.6,6.2.6,14.6-.3,21.6-.2,1.7-3,1.8-2.1,4.4-.6.7-14.6-8.1-15.5-9-1.7-1.8-15-30.8-15.4-33.6-.7-4.4-.9-13-1.1-17.9-.5-12.2.6-24.4.5-36.6l-58.5-31.4-13-69.5-48.8-.2-38-86.6.9-6.2c8.2.4,11.8,8.2,18.6,12.7,25.3,16.9,38.4,19.8,68.5,13.9,17.1-3.4,19.1-7.5,37.2.4,15.9,7,19,16.2,30.6,25.4,9.6,7.6,13.6,7.9,22-1s31.8-49.1,32.1-60c.2-8.7-6.4-8.1-13.3-7.2-8.6,1.1-48.4,15.1-51,14.6-1.7-.4-12.3-7.9-16.5-9.6-20.3-8.4-48.8-11.8-67.2-20.8-14.9-7.3-11.3-20.9-17.7-33.2-.9-1.6-2.5-.6-2.3-2.2,6.3-.9,17,0,21-5.5,1-1.4.3-3.7,2-3.5,3,11.7,15.2,23.9,25.1,30.4,21.2,13.8,50.4,23.7,75.4,23.5h20.5l-34.7-16.8c-19.1-10.8-48.2-33.1-61.8-50.2-6.2-7.8-7.1-18.3-10.5-27.5-6-16.6-14.4-32-25-46,1.3-9,6.5-19.6,7.8-28.2,1.9-12.9,1.8-19.5,6.5-32.5,36.4-101.1,159.2-169,256.8-198.2,49.9-15,102.4-18.2,153.2-5.2,103.5,26.4,242.6,100.3,277.2,208.8,3.4,10.5,3,17.3,4.8,27.2.8,4.7,8.9,28.4,7.6,30.6l-.5-.2ZM1195.9,1382.1c-32.3-16.1-63.1-35.3-95.9-50.7-17.5-18.7-37.4-36.6-54.6-55.4-4.8-5.3-11.2-16-16-20-3-2.6-7.4-3-10.6-.6-4.5,3.4-12.7,16.4-17.4,21.6-16.7,18.6-36.8,35.6-53.6,54.4-32.9,15.3-64,34.2-96,51.2-.6,2.8,12.4,35,14.6,40.3,2.9,7.1,12.1,31.7,16,36.1,7.1,8,36.5,26.3,47,33,19.8,12.7,36.1,22.9,59.3,28.7,27.3,6.8,39.7,7.1,67,.6s43-16.6,65.7-31.3c10.4-6.8,35.9-22.5,43.4-30.6,4-4.4,12.7-27.4,15.6-34.4,2.1-5.1,16.8-41,15.5-42.9M728.3,1496.7c1.6,2,8.2,6.3,10.7,7.8,14.7,8.8,31.8,13.8,46.9,23.1,16.8,10.2,40.2,33.1,59.6,33.5,2.3,0,8.7-1.2,9.4-3.7s-13.6-27.6-16.4-30.3c-7.3-7.1-27.5-17.2-37.2-23.8-15.2-10.3-50.3-39.1-67.9-39.2-10.5,0-8.7,28.1-5.1,32.7h0ZM1319.7,1466.3c-5.9-5.9-24.1,4.1-30.4,7.6-16.2,8.9-31,21.4-46.2,31.8-12.7,8.7-30.1,15.7-38.6,28.4-2.2,3.4-10.8,17.7-11.4,20.7-1.1,5.3,6.2,6.5,10.3,6.3,16-.9,23.4-9.7,35.2-17.8,9.2-6.3,19.3-13.6,29-19,11.7-6.6,47.1-19.2,52.7-29.3,2.4-4.3,2.8-25.2-.7-28.6h0ZM1126,1664c-12-2.7-20.7,6.6-31.6,7.9-5.7.7-12.2-1.2-16.6-.7-7.1.8-22.9,12.1-31.2,14.9-14.8,4.9-30.2,4.7-45.1,0-8.8-2.8-23.9-14.1-31.2-14.9-4.4-.5-10.9,1.4-16.6.7-11-1.3-19.9-11-31.6-7.4,0,6.9,23.8,23.5,30,27,12.5,7.1,59.8,26.8,72.5,26.6s59.9-19.8,72.2-26.9c10.3-6,24.6-16.2,29.3-27.2h-.1Z"/>
  <path id="outline-jaw" class="outline"  d="M676,1140c5.2-3.1,18.7-3.2,19.1,4.5,0,2.3-.8,11.2-1.1,14-.3,3-.9,8.4-2.1,10.9-2.5,4.9-17.3,13.6-20.1,19.9-1.2,2.6-6.4,25.9-6.7,29.3-.2,1.7,0,2.8.4,4.4,2.1,6.9,13.8,19.7,17.7,27.3,5.7,11,7.2,24.3,12,35s13.5,10.7,22.5,15.6,17.7,11.1,25.3,17.2c-3.1,0-6.3.2-9.4,0-7.7-.8-35.8-6.7-41.8-10-6.1-3.3-8.8-18.4-12.8-20.4-2.5-1.2-7,0-10.3-.7-6.7-1.2-9.9-7.8-17.5-1.5-6.7,12.4-14.3,24.3-20.4,37.1-7.4,15.4-14.8,25.1-4.8,41.2,5.2,8.4,23.4,27,25.6,34.4,2.5,8.4-2.4,27.4,2.4,33.6,5.4,6.9,20.6,5.2,27.7,1.7,11.1-5.5,9.2-10.1,14.9-19.1,5.3-8.3,20.9-24.3,30.4-26.7,7.7-1.9,12.3,10.3,14,16,4.9,15.9,2,31.2,13.9,44.1,1.1,1.2,9,8.5,10,7.5-.8-5.6,4.8-8.4,6.5-13,3-7.9-3.1-20.6-5-29-2.8-12.3-5.1-24.7-8-37-1-4.1-6.2-19.9-5.4-22.3,1.2-3.8,23.7-9.1,24.9-10.7.4-.5-2.9-8.7,0-12.6,1.3-1.8,8.8-6.8,11.1-8.9,3.9-3.5,23.1-22.9,25.7-23.4,4.4-.8,5.2,2.4,8,3.6,5.1,2.1,10.8,2.5,15.7,4.3,1.1.4,2.4.5,2.5,1.9-11.2,6.3-23.6,13-34.3,20.2-2.7,1.8-16.6,11.8-17.6,13.4-1.6,2.6-2.2,9.7-2.2,12.9l3,44.5c-9.8-13.1-8.1-31.3-10-47-2.5,1.9-15.3,3.5-15.9,5.6,4.5,18.6,8.6,38.8,15.1,56.7,7.3,20.1,19.2,40.4,27.7,60.3,11.1,7.8,27.2-5.8,33-15,5.6-8.7,8.1-23.6,22.5-13.5,11,7.7,22.9,21.4,33.5,30.5,48.3,41.3,92.1,59.6,157.4,50.3,40-5.7,69.7-25.7,99.7-51.3,6.2-5.3,32.4-31.5,37.5-32.5,11.9-2.2,14.8,13.8,21.4,21.5,7.4,8.7,17.4,14.2,29.1,12,4.4-.8,21.2-8.4,26.3-10.7,9.2-4.2,20.3-11.4,27.2-18.8,10.4-11.3,8.4-24,12-38,1.7-6.6,6.3-23.8,15.5-21.6,10.7,2.6,27.2,21,32.6,30.4,1.7,3,2.2,6.8,3.9,9.1,6.3,8.5,28.5,13.3,36,5.1,5.6-6.1.4-25.5,2.9-34.1s20.4-25.8,26-35c9.4-15.8.8-28.3-6.5-43.3-5.8-11.8-13.2-22.7-19.2-34.3-7.1-5.6-12.2.4-18.5,1.5-2.9.5-6.9-.4-9.3.7-3,1.4-6.8,14.4-9.5,17.5-1.4,1.6-7.6,4.3-9.9,5.1-8,2.8-25.7,6.6-34.3,7.7-3.4.4-6.8.2-10.2.2,6.6-5.5,15.7-12,23.3-16.2,11.5-6.3,19.8-5.1,25.5-19.5,3.9-9.8,5.3-20.7,10.3-30.7,3.9-7.7,16.9-22.6,18.7-29.4.4-1.7.2-2.8,0-4.5-.6-4.4-5.6-25.6-7.2-28.8-3.7-7.3-19-15.9-20.5-21.5-.8-3.2-2.6-24.3-1.6-26.4,2.1-4.5,12.7-3.4,16.5-1,.5,1.9,4.4,14,5,14.5,6.2,5.3,26.1,4.1,26.1,17s-1.7,15.9.2,26.7c1.7,9.8,9.7,22.5,6.4,31-2.3,6-12,20.9-15.9,27.1-3.6,5.6-8.1,10.6-11.8,16.2,8.8.3,18.9-17.9,26.1-12.1,3.4,2.8,13.7,18.6,16.7,23.3,5.1,7.9,10.9,17.6,15.1,25.9,3.9,7.8,17.4,38.8,16.1,45.8-.2,1.2-13,15.6-15.2,18.8-10,14.2-21.3,32.5-25.7,49.3-1.9,7.2-2.7,14.7-4,22-1,1.4-27.6,11.9-31.1,12.9-10,2.9-17.2,1.5-24.9-5.4-.9,8.8-2.6,17.7-3,26.5s1.7,33.1-.8,39.2c-.6,1.5-11.3,15-12.5,15.5-6.3,3-15.7-1.7-24.7,3.3-22.6,12.7-18.8,48.5-26.9,68.1-6,14.6-40.4,52.5-54.6,59.4-1.2.6-2,1.3-3.6.9,1.2-14.7,3-35.1-3.9-48.6-.4-.8-.4-3.2-2.1-1.4-.7.7-3.6,13.8-6.6,17.9-8.6,11.7-30.9,6.8-39.2,20.8-5.2,8.9-7.6,22.3-13.4,30.6s-48.5,28.9-59.6,33.4c-15.1,6.1-64.1,21.2-78.8,21.2s-63.4-15.1-78.8-21.2c-11.1-4.4-55.3-26-60.6-34.4-6.9-11.1-8.5-31.6-21.5-37.6-14.4-6.6-26.5-2.6-33.9-20.1-1.1-2.5-2.5-10.3-2.8-10.7-1.3-1.6-1.8.4-2.2,1.3-1,1.8-4.8,14.6-4.8,16.2v30c0,.3,1.4,1.4,1,2.5-1.7.2-3-.3-4.4-1.1-15.2-8.7-49.8-45.6-54.8-62.2-6.2-20.6-5.2-52.1-25.9-65.1-8.2-5.2-18.3-.3-24.7-3.3-.9-.4-12.2-14.2-12.7-15.3-2.1-5.2-.2-29.6-.5-37.4-.4-9.1-2-18.5-3-27.5-4,1.6-7.6,4.7-11.9,5.6-2.8.6-5.6.7-8.5.3l-35.7-14.3c-1.5-7.3-2.1-14.8-4-22-4.3-16.8-16.4-36.3-26.5-50.5-2.2-3-13.9-15.8-14.2-16.8-1.1-3.6.8-8.3,1.8-11.8,5-18.6,17.3-42.1,27.6-58.4,2.5-4,17.5-26.2,20.1-26.9,6.2-1.8,15.2,12.1,22.3,12.8.7-.7-9.3-13.3-10.4-15.1-4-6.2-14.5-22.3-16.8-28.2-2.7-7.1,5.4-22.1,6.9-30.5,1.9-10,.2-18.4,1.3-27.7,1.2-11,17.6-11.6,25.8-15.7,2.1-4.7,2-9.6,3.2-14.8h.4v-.2ZM799,1627.5v-20c0-3.5,9.1-26.6,11.7-27.4,6.9-2.2,27.9,17.6,32.8,22.9,7.6,8.1,14.7,20,23,27,10.5,8.8,23.6,12.8,33.5,23.6,22.2,24.2,21.6,36,55.1,50.9,29.5,13.1,59.4,23.9,92.4,17.4,12.7-2.5,58.9-21.3,68.9-29.1,12.4-9.6,23.1-31.8,35.2-42.8,9.6-8.8,25.5-14.6,34.6-23.4,6-5.9,12.7-15.8,18.4-22.6,2.8-3.3,8.4-7.2,10.3-10.7,4.4-8.2,10.5-40.4,10.3-49.8-.3-12.5-3.5-25.3-4.2-37.8-17.1-12.8-20.5-.4-31.4,9.3-16.5,14.9-41.1,22.8-63,25-69.4,7-135.6,7-205,0-22-2.2-46.4-9.9-63-25-7-6.3-10.5-15.9-22-15.1-3.7.3-6,3.1-8.5,3.7-4.9,1-22.9-12.7-28.3-15.8-18.4-10.2-46.1-20.5-61.1-34.9-6.9-6.6-2.4-11.8-2.5-19.5s-3.8-23.4-6.8-30.2c-.5-1.1.2-1.5-1.7-1.3-9.4,1.3-19,20.2-19.3,28.8-.2,6.3,6.7,18.5,7.6,26.9,1.5,13.9-4.4,40.4,8.8,49.2,12.8,8.6,39.9,13.7,50.8,26.2,5.7,6.6,1.5,7.9.7,14.6-3.6,29.6,1.4,55.9,20.9,78.9.5.6,3.9,4,2,1h-.2ZM1248,1630c19.4-21.2,26.1-39.8,25-68.5-.3-7.8-4-21.4,0-27.8,4-6.1,20.2-13.6,27.2-16.8,15.2-7.1,31-7,32.7-27.3,1.3-14.8-1.6-26.3,2.5-41.5,3.4-12.7,7.8-13.2,2.5-27.5-2.8-7.7-9.2-17.6-18-18.4-5.5,13.3-7.4,26.1-7,40.5,0,3,2.2,4.9,0,8.1-1.5,2.2-16.5,12.2-19.8,14.2-9.2,5.7-59,28.5-60.9,35.1-2.7,9.4,7.3,31.3,8.6,41.6l-10,40.5c2.4-1.4,5-2.6,7.9-1.9,6.7,16.4,13.1,31.6,9.1,49.9v-.2h.2ZM780,1448c-2-1.4-5.5,2.6-5.8,4.7-.9,5,7.2,15.1,12.8,15.2-.9-2.6-6.1-19.4-7-20h0Z"/></g><g id="03_Mouth" data-trait="jaws"><path id="fill-mouth-main" class="fill"  fill="#fff" d="M1102 1287c.4.6-2.2 4.3 0 5.5 50.4 27.6 100.7 55.4 145.8 91.1-5.2 15.8-10.4 31.6-16.7 47.1-5.9 14.4-8.3 22.4-12.7 37.3-13 44.8-25.3 89.9-38.3 134.7-3.4 15.6 7.3 31.3 8.8 45.8.5 5.4-1.6 24.6-3.1 29.9-2.4 8.9-12.3 10.5-19.9 15.1-23.1 14.2-44 33.8-68.7 45.3-38.6 17.9-94.7 18.9-134.6 4.9-30.8-10.8-53.7-33.5-80.8-50.2-5.6-3.4-16.3-6.9-18.8-12.2-2.2-4.7-4.6-27.2-4.1-32.9 1.2-14.4 12.1-30.2 8.8-45.8-13.8-47.4-26.5-95.2-40.5-142.5-3.7-12.4-5.6-17.8-10.5-29.5-6.4-15.4-11.4-31.2-16.7-47.1 45.2-35.6 95.4-63.7 145.8-91.1 2.2-1.2-.5-4.8 0-5.5.2-.2 3.4-1.1 4.7-1.9 25.5-15.1 52.3-31 83.7-27.1 24.4 3.1 42.7 15.5 62.9 27.1 1.2.7 4.5 1.7 4.7 1.9h.2Z" class="fill" data-original-prefix="fill"/><path id="fill-mouth-teeth13" class="fill"  fill="#fff" d="m1042 1510-1.9 71.5c-.9 11.5-1.7 23.4-2.1 34.9-.2 7.7 1.3 20.2 0 27-.5 2.5-12.9 11.6-14.3 11.4-1.2-.2-13.2-8.9-13.7-11.4-.2-44.5-3.3-88.9-4-133.5l17.6 16.9 18.3-16.9Z" class="fill" data-original-prefix="fill"/><path id="fill-mouth-teeth12" class="fill"  fill="#fff" d="m1000 1637-20-15.5c-1.8-.5-2.8-4.4-3-4.5-.8-.5-3 3.8-5 3-.4-20.5-.2-41.1-1-61.5s-2.9-41.1-2.5-61.4l11-14c3 4.2 18.8 16.6 19.2 20.6.4 3.5-.9 11.2-.8 15.9.8 20.4 1.8 41.5 2.1 61.9.2 18.5-.2 37 0 55.5" class="fill" data-original-prefix="fill"/><path id="fill-mouth-teeth11" class="fill"  fill="#fff" d="M1076 1620c-2 .8-4.2-3.5-5-3-.2.2-1.2 4.1-3 4.5l-20 15.5c.2-18.5-.3-37 0-55.5.2-20.4 1.3-41.5 2.1-61.9.2-4.7-1.2-12.4-.8-15.9.4-4 16.2-16.4 19.2-20.6 2.1 3.9 9.5 10.8 11 14 1.8 3.8-1.3 28.2-1.5 34.4-.3 9-.7 18.1-1 27-.7 20.5-.6 41.1-1 61.5" class="fill" data-original-prefix="fill"/><path id="fill-mouth-teeth10" class="fill"  fill="#fff" d="M1114 1651c-3.8-.4-4.7-3.2-5-6.4-1.4-14.4 1.7-35 2.1-50 .6-21.9 0-43.7 2-65.5 3.3.2 4.2 1.9 7.1-.4 6.2-5.1 13.2-22.1 19.9-28.8s2.8-2 3-1.8l-9.1 120.4-20 32.6Z" class="fill" data-original-prefix="fill"/><path id="fill-mouth-teeth9" class="fill"  fill="#fff" d="M907.7 1499.3c7 6.2 13.8 23.9 20.3 29.2 2.9 2.4 3.8.6 7.1.4 1.5 10.5.6 21 1 31.5.7 20.9 1.5 42 2 63 .2 5.8 4.1 25-2.5 27.4-1.7.6-6.8-10-8.5-11.4l-12.9-21.1c-3.3-40.1-5.6-80.4-9-120.4 0 0 2.2 1 2.7 1.3h-.2Z" class="fill" data-original-prefix="fill"/><path id="fill-mouth-teeth8" class="fill"  fill="#fff" d="M903 1601c-7.1-6.3-5.5-23.9-18-13l-17-142c10.4 12.2 19 26.1 28 39.5 1.9 38.5 3.8 77.1 7 115.5" class="fill" data-original-prefix="fill"/><path id="fill-mouth-teeth7" class="fill"  fill="#fff" d="M1163 1588c-12.5-10.9-10.9 6.7-18 13l4-51.5 3.1-63.9c8.9-13.4 17.5-27.3 27.9-39.5l-17 142Z" class="fill" data-original-prefix="fill"/><path id="fill-mouth-teeth6" class="fill"  fill="#fff" d="M963 1507c-.7 40.2 2 80.1 2 120.3-1.9 1.4-17.9 15-19 13.7.9-38.3-2.3-76.2-2-114.5l15.4-18.6z" class="fill" data-original-prefix="fill"/><path id="fill-mouth-teeth5" class="fill"  fill="#fff" d="M1102 1641c-1.1 1.3-17.1-12.3-19-13.7.4-22.3.5-44.6 1-66.8 0-2.4 1-4.6 1.1-6.9.3-15.5-.3-31.1 0-46.5l3.6.9 15.4 18.6c.3 38.2-2.9 76.2-2 114.5Z" class="fill" data-original-prefix="fill"/><path id="fill-mouth-teeth4" class="fill"  fill="#fff" d="M875 1581c-1.5.2-1.3-1.7-1.7-2.8-3-8.8-6.1-18.6-8.6-27.4-10.7-37.7-11.6-78.6-17.8-117.3 0-3.9 3-6.9 5.6-9.5 3.4 3.5 5.8 6.6 6.4 11.6 1.2 10.1 1 21.5 2.1 31.9 3.8 35.2 11.2 72.2 14 107 .2 2.2 0 4.3 0 6.5" class="fill" data-original-prefix="fill"/><path id="fill-mouth-teeth3" class="fill"  fill="#fff" d="M1172 1580c6.3-40.6 11.8-81.6 16-122.5 1.2-11.5-1.6-25.4 7.5-33.5 2.6 2.6 5.7 5.5 5.6 9.5-7.6 47.5-8 99-26.1 144-.6 1.6-.8 2.9-3 2.5" class="fill" data-original-prefix="fill"/><path id="fill-mouth-teeth2" class="fill"  fill="#fff" d="m843 1439 4 53-5.7-15.8c-1-7.8-7.5-23.8-4.4-30.8.5-1.1 2.9-4.1 3.8-5.2.6-.7 0-1.9 2.3-1.3Z" class="fill" data-original-prefix="fill"/><path id="fill-mouth-teeth1" class="fill"  fill="#fff" d="M1207 1439c.3.3 4.7 7.3 4.8 7.7 1.3 4.9-3.4 23.5-5 29.5l-5.7 15.8 4-52.5c0-.9 1.9-.6 2-.5z" class="fill" data-original-prefix="fill"/><path id="outline-shading-mouth4" class="outline"  fill="#000" d="m900 1319-56.5 57-14 16c-1.9 4.1 3.2 15.8 2.5 21 4.2-1.8 14.7-13.4 18.4-13.1 4 .3 8.8 14.9 10.3 18.8 2.5 6.3 4.5 12.8 6.8 19.2 18.7 24.5 38.6 48.2 57.4 72.6 3.8 5 3.2 9.2 10.1 7 3.2-1 13.7-10.2 17-13 10.5-9 19.8-20 30.5-28.6l41.1 41 41.9-41c13.1 10.8 24.4 24.6 38 35 3.2 2.5 10.4 9 14.5 6.5l61.8-79.2c3.6-6.3 11.7-36.7 16.9-38.2 4.6-1.3 17.3 14.1 19.3 11.9-.8-5.2 4.4-15.8 2.5-20-20.7-25.2-46.1-46.1-68-70-.7-.7-2.7-2-2-3 34.5 16.7 65.1 39.8 96 62 2.5 5.1-7.2 33.5-9.8 40.2-2.7 7.3-6.2 13.8-9.2 20.8-3.2 7.3-3.5 21.2-14.5 14l-8.5 50-2.5 1c-.2-19.8 1.9-39.7 4-59.4-2-4.9-6.9-13.6-8.8-3.8-4 21.5-4.5 48.2-7.4 70.6-3.6 28-8.2 56-12 84-2 14.9-3.3 16.2 1.9 31.4 1.3 3.8 7.2 14.6 7.4 16.7s-6.3 26.7-7.6 29.5c-2.4 5.5-34.3 27-41.2 30.8-23.5 12.8-65.3 23.2-92 27-44.3 6.3-112.7-12.8-149.7-38-4.2-2.9-22.5-15.7-24.1-18.9-1.2-2.3-7.8-28.2-7.7-30.4 0-2.1 7-16.2 8.3-20.7 4-13.7 2.7-13.4.9-26.4-7.5-52.8-15.1-105.5-20.4-158.6-2.2-5.2-7.7 4.9-7.9 7.8 2.1 19.4 4 39 4.1 58.5h-3l-8-51c-11.6 7.2-11.3-6.6-14.5-14-5.7-13.3-11.5-25.2-15.5-39.5-1.5-5.2-6.1-18.6-2.5-22.6 31.2-21.3 60.9-45.2 95.5-60.9zm-34.5 137v1c.7-.3.7-.7 0-1m315.5 1c-3.8 9.4-17.3 19.9-21.1 28.4-3.4 7.8-1.6 20.7-3.9 29.1l-3 60c.6 3 10.1 7.9 13.4 8.4zm-286.2 118.8c-1.8-29.7-2.2-59.6-6.1-89.1-7.3-9.7-14.3-20.1-22.7-28.8l14 125c6 0 10-4.5 14.8-7.2ZM995 1627c-.8-15.5-.4-31.1-1-46.5-.7-20.6-1.2-43.5-3-63.9-.3-3.6-.4-13.4-4.5-13.5-2.5 0-20 10.7-20.5 13.5 2.4 20.6 1.2 41.4 1.9 62 .2 6.2.6 13.8 1.1 19.9s3 12.8 2 19.5l5.4-5c1.5 2.2 17 15.7 18.6 14m82-10c-.8-6.9 1.6-13.7 2.1-20.4 1.1-17.4.3-35.7.9-53.1.3-8.7 2-18.1 2-26.9s-1-2.1-2-3c-2.2-1.8-17.3-10.9-19.3-10.4-2.9.7-3.4 7.6-3.7 10.4-3.3 35.8-2.8 74-4 110 0 1.4 0 2.9-1 4 5.2.7 17.8-14.1 19.5-14.5 2.3-.5 2.5 4.7 5.4 4Zm-146 17c-1.9-32.1-.2-64.4-2-96.5l-26-32.5c2.8 32.1 2.9 64.2 5 96.4 6.9 11.3 14.5 22.3 23 32.5Zm187 0 22-32.5c1.9-32.2 2-64.3 5-96.4l-26 32.5c-2 25.3-.4 50.7-1 76-.2 5.9-1.4 11.5-1 18 0 1.1-.7 2.8 1 2.5Zm-175 2c.8.8 16.4-9.7 17.5-11 .7-.8 1.5-1.4 1.4-2.6-.7-33.9-2.5-67.6-4-101.5-3.4 2.4-16.3 10.2-17 13.5-.2 33.9 0 67.8 2 101.5Zm101-115c-4.9 2.7-10.4 10.7-15.7 11.8-11.9 2.5-16.1-5.4-24.3-11.8 1.3 37.5 2.3 74.9 2 112.5.8 4 14.2 9.4 17.7 12.4 3.7-2.5 17.6-8.6 18.3-12.4-.2-37.6.2-75.1 2-112.5m61 115c1.6-33.8 2.3-67.6 2-101.5-.7-3.7-13.7-10.5-17-13.5-1.8 33.8-3.7 67.5-4 101.5.2 2.9 18.2 14.4 19 13.5m-167.3 18.7c-1 .9-2.6 1.5-4 1.2-3.8-1-23-30.3-27.3-35.8L895 1607c-.4 4.4-1.3 8.8-2.5 13-1.6 5.4-8.4 19.9-8.6 23.5 0 2.9 4.5 19.8 5.8 23.3.7 1.9 1 3.9 2.9 5.1 29 14.8 52.4 35.8 84.2 44.8 31.1 8.9 64.2 8.8 95.2-.2 31.6-9.2 55.5-30.5 84.3-45.4.8-.4.9-1.2 1.2-2 1.2-3 6.7-24.2 6.5-26.5-.3-3.3-5.8-13.4-7.3-17.8-1.8-5.8-3.1-11.8-4.2-17.8-2.2 3.1-5.1 5.6-7.5 8.5-8.8 10.8-17.2 26.4-26.1 35.9-1.6 1.8-3.2 3.6-5.6 4.3l-43.7-28.7c-4.3 3.6-8.6 8.8-13.3 11.7-8.2 5.1-15 6.1-23.4 13.6-2.3 2.1-3 5.8-6.5 6.5-8.1 1.6-7.3-2.8-11.5-6.4-7.2-6.1-10.9-7.5-18.9-11.1-6.3-2.8-12.3-10-17.6-14.4-12.8 7.9-26.2 15.6-38.3 24.5-1.3.9-1.6 2.5-2.3 3.1v.2Z" class="shading" data-original-prefix="shading" opacity=".2"/><path id="outline-shading-mouth3" class="outline"  fill="#000" d="M1118 1345c-1.5 1.5-1.8-.6-2.3-1.3-1.8-2.3-6.1-7.1-7.1-8.8-1.8-3.2-.9-7.3-2.6-9.4-2-2.4-11.1-9.6-14.1-11.9-17.8-13.8-38.6-25.3-56-40-3.6-5.4 6-7.7 4.1-13.6.4-.4 8.3 1.9 9 2.5 1.9 1.6 0 5.2 2 7l68.4 49.6c2.9 2.8-.3 24.8-1.4 25.9" class="shading" data-original-prefix="shading" opacity=".2"/><path id="outline-shading-mouth2" class="outline"  fill="#000" d="M1008 1260c-2.1 5.5 7.8 8.5 4.1 13.6l-61.1 43.9c-10.3 7.3-11.1 16.5-18.7 26.2-.5.7-.7 2.7-2.3 1.3-1.1-1-5.1-24.3-1-26.5l68-49c2-1.9 0-5.2 2-7 1-.9 8.7-2.9 9-2.5" class="shading" data-original-prefix="shading" opacity=".2"/><path id="outline-shading-mouth1" class="outline"  fill="#000" d="M1011 1355c1.1 4.6-4.9 8.9-3.6 13 1.1 3.3 13.8 10.8 16.2 14.9 1.2.2 16.5-14.1 17-15.9 1-3.6-5.2-7.6-3.6-12 6.9-2.5 17.3 6.5 15.8 13.3-.8 3.8-7.8 10.3-10.8 13.2-6 5.9-6.9 4.1-10.8 12.2-1.9 3.9-5.9 3.9-9.8 3.3-5.8-.8-4.3-4.3-6.4-7.6-4.4-6.7-23.9-15.6-19.3-26.2 2.2-4.9 9.7-10.1 15.2-8.2Z" class="shading" data-original-prefix="shading" opacity=".2"/><path id="outline-mouth" class="outline"  fill="#000" d="M1006 1260c.4-2.1 4.7-6.2 6.5-7 2.2-1 1.8 3.9 2.5 5l-.5 19c-9.8 6.8-19.7 13.6-29 21-10.5 8.4-26.4 21.1-35.5 30.4-3.6 3.7-.7 4.6 2.7 7.3 14.2 11.7 34.2 18.3 52.3 20.2 1.2 1.2-6.6 10.7-4.8 13.8l23.5 23.1c1.5.3 18.4-18.6 21.4-21.5.8-.8 2.6-1.3 2.8-1.6 1.8-3.1-6-12.7-4.8-13.8 18.1-1.9 38.1-8.5 52.3-20.2 3.3-2.8 6.3-3.7 2.7-7.3-9.1-9.4-25-22-35.6-30.4-9.3-7.4-19.2-14.2-29-21-1.1-1.8-.6-15.7-.5-19 0-1.1-.9-6 1.5-5 2.1.9 6.1 6.1 7.5 7-1.8 1-1 3.4-.5 5 3.8 10.3 55.3 44.8 67.4 54.6 1.8 1.5 8 6 8.6 7.4 2.3 5.4-.6 18.1-.5 24.5 0 4.3 3.4 17.4 1.1 20-1 1.1-12.4 6.6-15.3 8.7-15.1 10.7-26.8 28.3-34.7 44.8-1.5.4-1.7-.4-2.5-1-5.2-3.6-23.3-26.5-26.1-26.9-5.3 3.9-11.8 6.3-12.4 13.4-1.2 13 1 27.8 0 41.1l3.1 42.5 34.4-35.1 2.9-.9c13.6 15 26.1 31.3 40.1 46 1.3 1.4 9.3 10.1 10.5 9 3.5-11.2 11.6-21.6 18.2-31.3 19-27.8 40.6-53.8 59.3-81.7.8-.7.7-1.5 1.5-.4 7.1 9.4 13.4 20.9 20.5 30.4l17.6-43.4-157.1-108.6 2-3c36.8 19.5 75.4 39.4 110.9 61.6 21.2 13.3 40.5 29.5 61.9 42.6.6 1.1.2 2.9 0 4.2-.7 7.6-9.9 31.6-13.2 39.9s-7.1 16.1-11 24l-44.5 161.6c.4 12.4 9.3 27.7 9.8 39.7.3 6.8-1.7 25-3.2 31.9-.4 2.2-1.7 6.3-3 8-1.2 1.6-15.8 8.4-19.4 10.6-24.6 15-45.2 35.2-72.5 46.5-40.8 16.9-104 16.8-144.7-.3-27-11.3-47.4-31.4-71.8-46.2-3.6-2.2-18.2-9.1-19.4-10.6-1.3-1.7-2.6-5.8-3-8-1.4-6.9-3.5-25.1-3.2-31.9.6-12.2 9-27.1 9.8-39.7-13.1-46.2-25.7-92.7-39.3-138.8-2.2-7.3-3.2-16.5-5.7-23.3s-7.5-14.1-10.5-21.5c-5.5-13.7-9.1-28.1-14.2-41.9-.3-1.7 0-3.3 1.4-4.4 24.1-15.7 46.6-33.8 71.2-48.8 32.3-19.7 66.7-38.2 100.3-55.2l3 3-157.1 108.6 17.6 43.4c7.1-9.6 13.4-21 20.5-30.4.8-1.1.7-.3 1.5.4 18.8 27.9 40.3 53.9 59.3 81.7 6.6 9.7 14.7 20.2 18.2 31.3 1.2 1.1 9.2-7.6 10.5-9 14-14.6 26.5-30.9 40.1-46l2.9.9 34.4 35.1 3-42.5c-1-13.2 1.2-28.1 0-41.1-.7-7.1-7.1-9.5-12.4-13.4-2.8.5-21 23.4-26.1 26.9-.8.6-1 1.4-2.5 1-7.8-16.5-19.6-34.1-34.7-44.8-3-2.1-14.3-7.5-15.3-8.7-2.3-2.6 1-15.7 1.1-20 0-6.4-2.8-19.1-.5-24.5.6-1.5 6.8-5.9 8.6-7.4 11-9 62.9-44.3 66.1-52.9 1.1-2.8.4-4.5.8-6.7zm-131 321c0-2.1.2-4.3 0-6.5-2.8-34.8-10.2-71.8-14-107-1.1-10.4-.9-21.8-2.1-31.9-.6-5-3-8.1-6.4-11.6-2.6 2.6-5.7 5.5-5.6 9.5 6.2 38.7 7.2 79.6 17.8 117.3 2.5 8.9 5.6 18.7 8.6 27.4.4 1.1.2 3 1.7 2.8m297-1c2.2.4 2.4-1 3-2.5 18.1-45 18.6-96.5 26.1-144 0-3.9-3-6.9-5.6-9.5-9.1 8.1-6.3 22-7.5 33.5-4.2 40.9-9.7 81.9-16 122.5m-329-141c-2.3-.6-1.7.6-2.3 1.3-.9 1.1-3.3 4.1-3.8 5.2-3.1 7 3.3 23 4.4 30.8l5.7 15.8-4-53Zm364 0s-2.1-.4-2 .5l-4 52.5 5.7-15.8c1.6-5.9 6.4-24.5 5-29.5 0-.4-4.4-7.4-4.8-7.7zm-304 162c-3.2-38.4-5.1-76.9-7-115.5-8.9-13.4-17.5-27.3-28-39.5l17 142c12.5-10.9 10.9 6.7 18 13m260-13 17-142c-10.4 12.2-19 26.1-27.9 39.5l-3.1 63.9-4 51.5c7.1-6.3 5.5-23.9 18-13Zm-163 49c-.2-18.5.3-37 0-55.5-.2-20.4-1.3-41.5-2.1-61.9-.2-4.7 1.2-12.4.8-15.9-.5-4-16.2-16.4-19.2-20.6l-11 14c-.3 20.3 1.8 41.1 2.5 61.4s.6 41.1 1 61.5c2 .8 4.2-3.5 5-3 .2.2 1.2 4.1 3 4.5zm76-17c.4-20.5.2-41.1 1-61.5.3-8.9.7-18 1-27 .2-6.2 3.3-30.6 1.5-34.4-1.5-3.2-8.9-10.1-11-14-3 4.2-18.8 16.6-19.2 20.6-.4 3.5.9 11.2.8 15.9-.8 20.4-1.8 41.5-2.1 61.9-.2 18.5.2 37 0 55.5l20-15.5c1.8-.5 2.8-4.4 3-4.5.8-.5 3 3.8 5 3m-168.3-120.7c-.4-.4-2.6-1.5-2.7-1.3 3.4 40.1 5.8 80.3 9 120.4l12.9 21.1c1.7 1.4 6.8 12.1 8.5 11.4 6.6-2.4 2.7-21.7 2.5-27.4-.5-21-1.3-42.1-2-63-.4-10.5.5-21.1-1-31.5-3.3.2-4.2 1.9-7.1-.4-6.5-5.3-13.2-23-20.3-29.2h.2ZM1114 1651l20-32.6 9.1-120.4c-.2-.3-2.5 1.3-3 1.8-6.8 6.7-13.7 23.7-19.9 28.8-2.9 2.4-3.8.6-7.1.4-1.9 21.8-1.3 43.7-2 65.5-.4 15-3.5 35.6-2.1 50 .3 3.2 1.2 6 5 6.4Zm-151-144-3.6.9-15.4 18.6c-.3 38.2 2.9 76.2 2 114.5 1.1 1.3 17.1-12.3 19-13.7 0-40.2-2.7-80.1-2-120.3m139 134c-.9-38.3 2.3-76.2 2-114.5l-15.4-18.6-3.6-.9c-.3 15.5.4 31 0 46.5 0 2.4-1 4.6-1.1 6.9-.5 22.3-.6 44.6-1 66.8 1.9 1.4 17.9 15 19 13.7Zm-60-131-18.3 16.9-17.6-16.9c.7 44.6 3.8 88.9 4 133.5.4 2.5 12.5 11.2 13.7 11.4 1.4.2 13.8-8.9 14.3-11.4 1.3-6.8-.3-19.3 0-27 .4-11.5 1.2-23.4 2.1-34.9l1.9-71.5h-.1Zm-112.9 165.9-39.6-64.9c-2.7 4.3-15.7 16.7-16.5 20.5-.5 2.3 0 6.3 0 8.8.5 6.2 3.4 24.2 5.1 29.9 2.2 7.3 14 10.2 20.1 13.9 44.8 27.9 79.7 46.3 135.2 43.8 47.1-2.2 77.9-20 116.2-43.8 6.1-3.8 17.8-6.6 20.1-13.9 1.7-5.7 4.6-23.7 5.1-29.9.2-2.5.6-6.5 0-8.8-.7-3.8-13.8-16.2-16.5-20.5l-40.1 65.1-48.9-32.8-45.1 37.7-45.8-37.7c-6.8 2.2-46.8 34.1-49.4 32.6Z" data-original-prefix="outline"/></g><g id="04_Eyes" data-trait="trooper"><path id="fill-eyes-main" class="fill"  fill="#fff" d="M1244.8 1350.8c-1.7.9-10.6-4.2-12.8-5.3-49.4-24.9-96.9-53.8-146.3-78.7-5-3-9.1 2.8-13.3 3.2-5.4.6-7.4-4.2-10.9-7-4-3.1-20.3-13.3-21.3-16.7-1.3-4.6.1-16.1-.2-21.8-.5-9.4-1.8-18.9-2.1-28.4-3.6-1.5-27.3-1.9-28 .5l-2.5 50.4c-6.1 6.4-14 10.7-21 16.1-3.7 2.8-5.2 7.3-10.9 6.9-4.5-.3-8.3-5-12.9-3.8-53 28.3-105.4 57.9-159.1 84.9-18.6-17.6-34-38.1-51.1-57.1-18.7-20.7-39.5-40.6-57.5-61.5-9.3-10.7-9.6-34.2-12.3-48.7-.7-3.6-3.1-18.6-4.6-20.4-2.8-3.4-10.3-.4-13.6-.6-2.4 0-12.6-5.9-15.2-7.6-5.7-3.7-32.3-26.1-33.8-31.2-1.2-4 1.5-10.3 2.8-14.3 10.6-31.8 38.3-80.4 63.7-102.3 3.2-2.7 15.8-12.3 19-13.1 3.7-.9 10.7 2.2 15 0 3.3-1.6 5.2-10 6.8-13.2 3.3-6.7 23.3-24.8 30.2-30.8 33.5-29.6 95-72.8 135.7-90.3 16.8-7.2 25.7-4.2 42.9-5.1 60.2-3 124.7-3 184.9 0 8.4.4 17.7-.8 26 0 20.9 1.9 79.8 41.3 99.2 54.8 26.6 18.4 46.8 35.8 70.3 57.7 4.4 4.1 8.8 5.1 11.9 11.1 1.8 3.6 4.4 14.1 8.1 15.9 4.3 2.1 11.3-1 15 0 3.3.8 15.9 10.4 19 13.1 25.4 21.9 53.6 71.1 64 103 2.1 6.4 4.9 10.7.5 16.5-6.1 8.2-36.8 34.5-46.2 35.8-3.6.5-11.4-3-14.4.6-1.5 1.8-3.9 16.8-4.6 20.4-2.7 14.4-3.1 37.9-12.3 48.7-18 20.9-38.9 40.8-57.5 61.5-12.9 14.3-24.7 30-38 44-4.1 4.4-8.9 8.1-12.7 12.8Z" class="fill" data-original-prefix="fill"/><path id="fill-eyes-pupil2" class="fill"  fill="#fff" d="m806.6 1195 77 43c2 3.2-8.3 13.8-11.2 15.8-24.4 17.7-59.4-.3-67.6-27.1-2.8-9.1-3.2-23.5 1.8-31.8Z" class="fill" data-original-prefix="fill"/><path id="fill-eyes-pupil1" class="fill"  fill="#fff" d="M1240.7 1195.1c2.7-.2 4.1 8.2 4.3 10.4 3.7 37.4-37.1 71.7-69.3 48.3-2.9-2.1-13.3-12.6-11.2-15.8z" class="fill" data-original-prefix="fill"/><g id="fill-eyes" class="fill" ><path id="fill-eyes4" class="fill"  fill="#fff" d="M797 1335c-.2.3-3.4-1.9-4-2.5-25.8-20.9-59.2-59.8-81.5-85.5-5-5.8-16.9-18.1-19.9-24.1-4.6-9.4-10-58.9-10.6-71.4-.3-7.5.8-13.4 3-20.5 1.6 0 1.6 3.4 1.8 4.7 4.7 23.4 6.7 47.5 10.9 71.1 31.3 34.2 66.7 64 101.3 94.7 2.2 2.5 0 5.4 0 8.1-.2 8.6-.5 17-1 25.5Z" class="fill" data-original-prefix="fill"/><path id="fill-eyes3" class="fill"  fill="#fff" d="M1251 1335c-.5-8.5-.8-16.9-1-25.5 0-2.7-2.3-5.5 0-8.1 34.6-30.7 70-60.5 101.3-94.7 4.2-23.5 6.2-47.6 10.9-71.1.2-1.3.2-4.7 1.8-4.7 2.2 7.1 3.3 13 3 20.5-.6 12.5-6 62-10.6 71.4-2.9 6-14.9 18.3-19.9 24.1-22.3 25.8-55.7 64.6-81.5 85.5-.6.5-3.8 2.8-4 2.5Z" class="fill" data-original-prefix="fill"/><path id="fill-eyes2" class="fill"  fill="#fff" d="m1241 1310-3 31c-2.2 2.2-34-13.2-39-15-.3-1.7 2.4-1.1 3.5-1 3.9.2 8.3 1.9 12 2 10.8.5 16.9-13.2 26.5-17" class="fill" data-original-prefix="fill"/><path id="fill-eyes1" class="fill"  fill="#fff" d="M848 1325c-.2 1.5-1.9 1.9-3 2.5-3.9 2.3-33.2 15.2-35 13.5l-3-31c.6-.7 6.6 4.3 7.5 5 2.9 2.4 10.5 10.6 13.5 11.5 6.2 1.9 13.6-2.2 20.1-1.5Z" class="fill" data-original-prefix="fill"/></g><g id="shading-eyes" class="shading"  class="st2"><path id="outline-shading-eyes5" class="outline"  fill="#000" d="M1222.1 1045.9c.7.5 4.8 0 6.9.6 3.4 1 8.2 3.7 12 5s15.5 3.2 16.8 6.2l5.2 89.3c40.5-18.7 80.1-39.2 119.6-60 7.6-1.1 20.2 10.6 26.7 15.2 7.9 5.6 30.9 14.8 10.7 22.2l-34.4 37.7c-9 1.3-16.5-4.6-17.6 8.9-1.4.3-2.4-.3-3.6-.9-8.4-4.1-19.3-14.6-28.1-19.9-1.8-1.1-11.3-6.2-12.6-6-36.9 21.7-75.9 39.4-113.8 59.3-32.1 16.9-63.5 35.2-95.3 52.7-4.7 2.6-16.9 7.2-20.1 9.9-2 1.7-1.4 3.8-1.6 3.9-.6.6-7-3-9.5-3.1-4.9-.2-6.5 2.5-10.1 3.1-6.6 1-6.3-2.4-10.5-5.4-4.5-3.2-21.4-14.1-22.7-18.3-1.7-5.7 1-16.7-1.2-23.3 2.3-2.4 14.3 11.6 18.2 9.8 65.4-24 127.8-55.2 190.8-84.4-2.7-21-2.3-42.9-5.2-63.8-.8-5.6-2.4-20.7-7.9-23.1-1.9-.8-4.2-.2-6-1-9.4-3.8-18.4-11-26.7-16.8-12.4-27.3-20.8-56.4-38.4-81-7.7-10.7-19.2-22.9-28.3-32.7-19.1-20.7-39.9-40.2-59.5-60.5 0-.8 14.1-5.9 15.9-5 17.9 17.1 37.2 32.8 55.1 50 15.8 15.2 24.5 24.4 35.2 43.8s20.8 42.3 30 63c1.5 3.4 8.9 23.8 9.9 24.5Z" class="shading" data-original-prefix="shading" opacity=".2"/><path id="outline-shading-eyes4" class="outline"  fill="#000" d="M812.2 1061.2c-.5.3-3.9 5.9-4.3 7.2-5.2 26.4-5.7 53.6-7.8 80.4 62.9 28.6 124.8 59.9 189.8 83.7 4.7 2.7 15.4-10.6 17.5-10.6 2.9 0 .6 7.1.5 8.5-.2 4.4.7 11 0 15-.9 4.7-18.3 15.8-22.9 19.1s-3.7 6.4-11.3 5.2c-3.1-.5-7.1-3.7-9.2-3.7s-8.6 4.8-9.5 3.9c-.2-.2.4-2.2-1.6-3.9-3.2-2.7-15.4-7.3-20.1-9.9-32.5-17.8-64.5-36.4-97.3-53.7-36.9-19.5-75.2-36.6-111-58.1-2.7-.7-10.4 4.1-13.3 5.8-8.5 5.1-21 16.6-28.7 20.3-5.4 2.5-2.7-6.1-6-8-3.8-2.2-11.3 1.4-14.5-.4-9.4-9.9-17.9-20.8-27.5-30.6-1.9-2-5.6-6.2-7.5-7.5-3.5-2.3-9.6-1.6-7.1-9 1.1-3.4 12.9-9 16.5-11.5 4.9-3.4 19.3-15.3 23.8-16.2 3-.6 4.8 0 7.5 1.1 9.6 3.8 22 12.3 31.7 17.3 28.1 14.3 56.4 28.2 85 41.5l5.5-90 29.2-10.8 6.2-.3c12.2-30 25.4-61.1 41-89.5 10.5-19.2 20.6-28.9 36.2-43.8 17.2-16.5 35.7-31.7 53-48 .7-.5 1.4-.4 2.2-.3.7 0 12.2 4 12.8 4.3 1.2.7 1.1 1.2 0 2-20 20.6-41.1 40.3-60.5 61.5-17.2 18.8-32.3 36.3-43.3 59.7-7.7 16.3-13 34.6-21.1 50.9-7.8 7.3-17.9 14.2-28 18-2 .7-4.6 0-5.8.7Z" class="shading" data-original-prefix="shading" opacity=".2"/><path id="outline-shading-eyes3" class="outline"  fill="#000" d="M1035 1195h-22c.1-4.6 2.5-12.1 2-16.4-.6-5.1-16.3-23.1-5.3-26.4 9.2-2.8 11.3 10.5 14.7 9.8 2.6-.6 7.8-16.3 15.7-8.5 7.1 7.1-5.5 17.5-6.8 23.3-1.1 4.8 1.3 13.1 1.8 18.3Z" class="shading" data-original-prefix="shading" opacity=".2"/><path id="outline-shading-eyes2" class="outline"  fill="#000" d="M1252.7 1292.3c5.5 4.6 7.4 40.3 3.4 45.3-2.8 3.4-8.4.5-8.6-3.5.3-12.3-3.7-25.5-2.4-37.6.5-4.6 3.7-7.5 7.7-4.2Z" class="shading" data-original-prefix="shading" opacity=".2"/><path id="outline-shading-eyes1" class="outline"  fill="#000" d="M798.8 1337.8c-3 3-6.9.9-8.1-2.9-1.8-5.8-.8-27.6.6-34.1 2.1-9.8 10.7-14.7 11.8-2.3.4 4.5-2.5 37.5-4.3 39.3" class="shading" data-original-prefix="shading" opacity=".2"/></g><path id="outline-eyes" class="outline"  fill="#000" d="M1017 1195c-.5 10.1-1.6 20.3-2 30.5-.3 6.5 1.3 20.7-.2 25.8s-27 19.7-31.4 25.6c-8.6 4.4-16.5-3.5-24.4-3.4-27.3 15.9-54.9 33.6-82.9 48.1-18.8 9.7-40.2 16.8-58.7 26.3-13.8 7.1-14.2 15.1-28.8.2-20.2-20.6-39.5-45.4-59-67-15.8-17.6-34.4-34.1-47.4-53.6l-10.1-60.4-3.5 9c-7.8-6.2-17-9.1-25.2-14.8-6.9-4.8-31.6-25.8-34.7-32.3-3.6-7.6 1.9-20.4 4.7-28.2 11.1-30.9 34.9-72.7 58.7-95.3 5.7-5.4 22.1-18.8 29.7-19.1 2.4 0 8.1 2.2 9.2 1.5 1.9-1.1 5.9-15.2 10.6-19.9 34.2-33.8 74.5-63.2 115.6-88.4 16.2-9.9 48.3-30.6 66.4-31.6 6.3-.3 11.9 1.2 18.1 1.1 19-.3 38.2-3.2 58-3.1 29.2.2 58.7.2 87.9 0 20.2-.1 39.6 2.8 59 3.1 6.2 0 11.6-1.4 18-1 16.6 1 41.1 16.5 55.8 25.2 43.8 25.8 80.9 53.4 117.7 88.3 4.6 4.4 8.8 5.2 12.4 11.6 1.4 2.6 5.1 13.8 6.8 14.8 1.1.7 6.8-1.6 9.2-1.5 5 .2 13 5.7 17.1 8.7 30.3 21.9 58.7 70.9 71.3 105.7 2.6 7.2 8 20.4 5 27.5-2.9 6.7-28 28.2-35 33-8.2 5.6-17.7 8.3-25.2 14.8l-3.5-9-10.1 60.4c-13.4 19.3-31.6 35.9-47.4 53.6-19.5 21.7-38.8 46.5-59 67-14.6 14.9-15 6.9-28.8-.2-19.2-9.9-41.1-17.1-60.7-27.3-27.4-14.2-54.4-31.3-80.9-47.1-3.8-1.6-6.7 2.1-10 3.1-14.3 4.4-14-.3-23.5-7.5-4.4-3.3-21.1-13.8-22.3-17.7-1.5-5.1.1-19.3-.2-25.8-.5-10.1-1.5-20.3-2-30.5-.7-12.4-2.2-24.9-1.8-37.3 22.2-18.9 47.2-35.4 71.9-51.1 33.5-21.3 68.1-41.5 103.9-58.6-14.6-29-28-59.3-45.6-86.9-11-17.2-22.3-29.9-36.9-44.1-13.2-12.9-34.4-33.7-49-44-2.1-1.5-4.3-2.9-7-3-26.9 2-57.6-2.6-84.1 0-3.6.3-5 1-8 3-9.8 6.8-23.3 20.1-32.5 28.5-20.3 18.6-38.5 36.2-53.4 59.6-17.6 27.6-30.9 57.7-45.6 86.9 30.3 14.2 59.4 31.1 87.9 48.6 30.3 18.7 60.7 38.3 87.9 61.1.4 12.4-1.1 24.9-1.8 37.3Zm-57-324c-11.2.3-22.4-.4-33.5 0-7.4.2-21.1.2-27.7 1.3-6.1 1-31.1 15.9-38 20-41.7 24.4-85.3 59.8-114.7 98.3-1.7 2.3-5.3 6.6-3.6 9.5l93.5 43c4.2-10.8 9.1-21.8 14.2-32.4 18.2-37.8 32.8-68 63.3-97.7 15-14.5 31.5-27.5 46.5-42m252 172 92.4-42.1c2.7-1.6 1.6-4 .4-6.3-2.6-5-18.1-22-22.8-27.2-29.2-31.6-64.9-58.6-102.4-79.6-5.8-3.2-25.4-14.8-30.4-15.6-6.6-1.1-20.3-1.1-27.7-1.3-11.2-.3-22.4.3-33.5 0 15 14.5 31.6 27.4 46.5 42 30.5 29.7 45.1 59.8 63.3 97.7 5.1 10.5 10 21.6 14.2 32.4m-392 6c-32.5-16.1-65.9-30.7-101-40.5-4.4-1.2-16.6-5.4-20.3-4.3-4.6 1.3-34.5 51.4-38.9 59.1-9.6 17-19.2 34.4-25.7 52.9l35.3 44.7c1.2-.7.2-2.9 0-4-1.3-9.2-3.9-20.8-6.2-29.8-2-7.9-4.2-17.2-9.3-23.7 5.6-.3 12.2 3.1 17.7 5.3 9 3.7 17.9 8.2 26.7 12.3 30.9 14.6 60.6 31.7 91.6 45.8 1.4-21.5 4.2-43 6-64.5 1-11.3 0-29.9 3.1-39.9 2.8-9.1 11.8-9.3 19.5-11.5 1.5-.4 1.7.6 1.5-2Zm558 112c4.3-5.8 36.4-42.5 35.8-46.3-.3-1.9-5.7-13.3-7-16.1-9.9-21.8-24.5-46.3-37.4-66.6-2.8-4.3-16.2-25.5-18.8-27.2-3.6-2.2-9 .2-13 1.1-37.9 9-74.6 26.2-109.6 42.9-.3 2.6 0 1.6 1.4 2 7.6 2.2 16.7 2.4 19.5 11.5 3.1 10.1 2.1 28.7 3.1 39.9 1.8 21.5 4.6 43 6 64.5 31.1-14.2 60.8-31.3 91.6-45.8 8.8-4.1 17.7-8.6 26.7-12.3 5.4-2.2 12.1-5.7 17.7-5.3-10.4 16.7-11.9 38.5-16 57.5Zm-383.3 87.7 15.2-82.4-.9-2.9c-36.4-25-73.2-49.3-111.4-71.6-16.9-9.8-35.2-20.7-52.7-29.3-3-1.5-8.2-4.8-11.3-4.1-1.7.4-12 5.8-13.4 7-5.7 4.7-8.1 16.6-9.8 23.7-6.6 27.2-10.3 55.1-13.4 82.9 59.8 29.5 117.8 62.7 177.9 91.7 1.1.6 1.9.4 3 0 3.5-1.6 11.7-13 16.8-14.8Zm233-183.4c-1.4-1.2-11.7-6.6-13.4-7-3.2-.7-8.4 2.7-11.3 4.1-17.4 8.6-35.8 19.5-52.7 29.3-38.2 22.2-75 46.6-111.4 71.6l-.9 2.9 14.6 81.4c4.7 2.4 13.9 14.2 17.4 15.8 1.1.5 1.9.6 3 0 60.1-29.1 118-62.2 177.9-91.7-3-27.8-6.8-55.7-13.4-82.9-1.7-7.1-4.1-19-9.8-23.7ZM797 1335c.5-8.5.8-16.9 1-25.5 0-2.7 2.3-5.5 0-8.1-34.6-30.7-70-60.5-101.3-94.7-4.2-23.5-6.2-47.6-10.9-71.1-.2-1.3-.2-4.7-1.8-4.7-2.2 7.1-3.3 13-3 20.5.5 12.5 6 62 10.6 71.4 3 6 14.9 18.3 19.9 24.1 22.3 25.8 55.7 64.6 81.5 85.5.6.5 3.8 2.8 4 2.5Zm454 0c.2.3 3.4-1.9 4-2.5 25.8-20.9 59.2-59.8 81.5-85.5 5-5.8 16.9-18.1 19.9-24.1 4.6-9.4 10-58.9 10.6-71.4.3-7.5-.8-13.4-3-20.5-1.6 0-1.6 3.4-1.8 4.7-4.7 23.4-6.7 47.5-10.9 71.1-31.3 34.2-66.7 64-101.3 94.7-2.2 2.5 0 5.4 0 8.1.2 8.6.5 17 1 25.5Zm-444.4-140c-5 8.2-4.7 22.6-1.8 31.8 8.2 26.7 43.2 44.7 67.6 27.1 2.9-2.1 13.3-12.6 11.2-15.8l-77-43Zm434.1.1-76.2 42.9c-2.1 3.2 8.3 13.8 11.2 15.8 32.3 23.3 73-10.9 69.3-48.3-.2-2.1-1.6-10.7-4.3-10.4M848 1325c-6.4-.7-13.9 3.5-20.1 1.5-2.9-.9-10.5-9.1-13.5-11.5-.9-.8-6.8-5.8-7.5-5l3 31c1.8 1.7 31.1-11.2 35-13.5 1.1-.7 2.8-1 3-2.5Zm393-15c-9.5 3.8-15.7 17.5-26.5 17-3.7-.2-8.1-1.8-12-2-1.1 0-3.8-.7-3.5 1 5 1.8 36.8 17.2 39 15z" data-original-prefix="outline"/></g><g id="05_Right Ear" data-trait="safety pins"><path id="fill-ear-rt1" class="fill"  fill="#fff" d="M1241.6 968.9c-9.9-6-19-13.2-28.4-19.8-3.4-2.4-6.5-5-9.2-8.1-3.4-2.3-4.8-6.2-7.4-9.2-7.5-8.6-13-18.5-17.3-29.1-4.1-10.2-7.4-21.3-3.2-31.6 7.6-18.9 13-38.7 23.6-56.5 18.4-30.8 30.5-64.7 46.1-97 2.3-4.7 3.3-10.2 3.8-15.4 3.8-36.3 5.3-72.8 9.6-109 2.6-21.9 2.3-44.2 8.4-65.7 1.8-6.4 4.5-12.1 8.5-17.3 10.8-13.9 22-27.6 32.5-41.8 40.9-55.1 88.7-103 146.7-140 44.1-28.1 88-56.5 134.1-81.4 8.8-4.7 17.6-9.4 26.5-14 31.2-16.1 62.6-32 96.3-42.5 7.2-2.3 6.9-2.4 7.4 5.5 2.4 38.7-3.7 76.7-10.2 114.7-.9 5.4-3 10.2-5.9 14.7-5.4 8.4-10.3 17.2-13.3 26.8-12.2 38-22 76.5-21.9 116.9v19.1c-2.6-2.4-2.8-4.3-3.4-6-6.5-16.7-11.4-34-18.6-50.5-2.7-6.2-6.3-11.7-12-15.6-10.6-7.3-23.9-2.8-27.2 9.2-1 3.8-1.3 7.8-.8 11.9 1.3 10 4.6 19.4 8.1 28.7 11.6 31.4 24.8 62.3 34.8 94.3.8 2.5 1 4.7.3 7.3-17.5 64.7-54.4 118.2-98.4 167.3-3.5 3.9-6.9 8.5-12.2 10.5-.4-3 2.4-3.8 3.9-5.3 10.6-10.5 12.6-23.7 10.8-37.4-1.7-13-12.8-21.3-26.1-21.6-20.6-.4-37.1 12.4-39.1 30.8-.8 8.1 1.6 15.8 4.4 23.3 4.5 11.8 13.5 17.2 26.2 16.2 6-.5 11.8-1.9 16.8-5.5 1.1-.8 2-1 3.2-.6 0 3.1-2.6 4.2-4.3 5.8-13.1 12.2-27.5 22.7-43.2 31.2-22.6 12.2-44.7 25.1-66.2 39.1-4.6 3-11 5.3-8.7 13.2.2.6-.5 1.6-.8 2.3-6.2 16.9-12.8 33.6-21.2 49.6-.9 1.7-1.5 3.5-3.5 5-3.3-6.2-8.8-8.7-14.8-10.5-7.8-2.3-15.7-2.9-23.7-2.6-8.2.2-12.9 4.2-14.7 12.1-1.2 5.2-1.6 10.6-1.6 15.9 0 12.3 0 24.7 7.3 35.6 1.7 2.5-.5 3.3-1.7 4.3-10.1 8.1-20.7 15.8-32.1 22-8.2 4.5-16.6 8.7-26.6 9.2-14.7.7-27.9-4.8-41.7-8.2v-.3Zm453.4-728c-1.5-1.3-2.2-.8-2.9-.4-6.5 4.3-13.5 8-18.9 13.8-4.8 5.1-10.4 8.9-16.7 11.6-7.7 3.2-13.8 8.3-19.7 14.2-11.7 11.7-23.8 22.9-35.6 34.4-17.2 16.7-34.5 33.3-48.1 53.4-16 23.7-28.7 49.2-39.1 75.8-.8 2-.6 3.8-.3 5.8 2.7 16.2 6.6 32.2 7.7 48.7 1.2 18.5 1.6 36.9-.3 55.4-1.5 14.2-6.3 27.6-10.6 41-5.7 17.8-13.7 34.7-24.5 50-3.8 5.4-8.5 9.9-14.4 12.8-7.3 3.6-13.6 1.2-16.7-6.3-.8-1.8-1.4-3.8-1.7-5.7-3.8-20-10.2-39.3-16.4-58.6-1.3-3.9-3.4-6.7-6.7-8.9-16.1-10.7-32.9-20.1-50.1-29.1-.7-.3-1.4-1-2.2 0 .5 1.3 1.2 2.7 1.7 4 5.8 15 10.7 29.9 7.8 46.5-2.2 12.8-4.6 25.5-6.9 38.3-4.9 27.3-17 50.6-37.2 69.8-2.3 2.2-4.2 4.7-5.9 7.4-22.7 35-41.4 72.2-58.7 110.1-12.8 28.1-29 53.9-48.1 78.1-2 2.6-3.5 5.3-3.5 8.6 0 7.8-1 15.6-2 23.4-.3 2.3.2 4 1.7 5.8 7.3 8.3 16 15 25.3 21 .5.3 1.2.7 1.8 0 .5-.8.2-1.6-.2-2.3-4.7-8.2-6.2-17-4.6-26.3 3-17.2 8.7-33.6 16.5-49.1 21-42.2 43.8-83.5 71.9-121.5 13.8-18.8 27.5-37.7 45.1-53.3 1.8-1.6 1.9-3.3 1.9-5.4-.3-24.2 5.5-47.2 13.6-69.7 1.4-3.8 3-7.4 5.5-10.6 3.6-4.6 6.5-5.2 11.7-2.3 1.7 1 3.4 2.2 4.7 3.6 10.7 11.6 17.2 25.4 19 41 2.7 23.9-3.5 45.9-15.2 66.5-.6 1.1-2.2 2.1-1 4.2 3.5-1.7 7-3.2 10.3-5.1 23.9-13.3 47.3-27.3 66.8-47 3.1-3.1 5.5-5.8 6.2-10.1 4.6-29.7 12.5-58.6 22.7-86.8 6.1-16.9 15.6-32 26-46.5 1.2-1.6 3-3 1-5.6-6.6-8.8-9.3-19.2-10.8-29.8-4-27.8 0-55.2 8.9-81.3 19.7-58.5 55.9-104.7 108.2-137.9 3.9-2.5 8.8-4.4 11-8.4 7.1-12.6 13.7-25.5 21.9-37.2Zm-369.3 560.6c-.9 5 1.5 9.2 3.3 13.5 7.9 19.5 26.7 28.9 47.1 23.4 26.6-7.1 42.2-31.2 37.8-58.5-4.3-27.1-33-42.1-56.7-28.9-19.6 10.9-29.7 28.4-31.5 50.5" class="fill" data-original-prefix="fill"/><path id="fill-ear-rt-rill-ring" class="fill"  fill="#fff" d="M1427.6 994.5c-5.1 0-9-2-12.9-5.1-14.2-11.6-25.4-25.9-37.6-39.3-5.2-5.7-10.4-11.3-15.7-16.8-9.5-9.9-11.6-22.1-10.5-35.1.5-6.3 5.2-9.6 11.5-9.1 6.7.6 11.9 2.5 15.5 9.4 6.5 12.1 16.3 21.9 25.4 32 5.6 6.2 11.4 12.2 17.2 18.2 4.9 5 9.9 6.1 15.3 3.6 6.7-3.1 10.4-8.7 9-15.3-2.6-12.2-6-24.2-15.3-33.5-3.4-3.4-6.2-7.4-9.7-10.8-2.6-2.6-2.5-4.7-1.1-7.8 4.9-10.2 4.7-10.2 12.5-2.6 3.2 3.2 6.3 6.4 9.8 9.3 13.4 10.9 21.1 25 24.4 41.7 1.9 9.5 3.6 18.9 5.6 28.4.8 3.6.2 6.8-2 9.4-11 12.8-24.9 20.5-41.4 23.5Z" class="fill" data-original-prefix="fill"/><path id="fill-ear-rt-fill-pin3" class="fill"  fill="#fff" d="M1769.8 596.9c-1.3 26.7-19.5 50.4-52.3 40.3-21.5-6.6-33.6-22.3-40.1-42.9-2.1-6.7-1.2-7.6 5.3-10.2 8.5-3.3 16.9-6.8 25.5-9.7 2-.7 3.3-.3 4.4 1 3.1 3.6 6.2 7.4 9.2 11.1 2.2 2.8.9 4.6-2 5.3-3.4.8-7.9.9-9.5 3.3-1.6 2.6 1.3 6.4 2.1 9.8 1.7 7.7 1.7 7.6 9.1 4 5.1-2.5 10.3-4.6 15.4-7.1 4.3-2.1 5.7-7.5 2.8-11.3-5.6-7.3-9.6-15.4-13-23.9-.8-2.1 0-2.2 1.3-2.8 8.5-4.2 16.9-8.5 25.3-12.7s2.8-.8 3.7.7c1 1.5 2.1 3 2.8 4.6 5.8 13.2 8.7 27 9.9 40.3v.2Z" class="fill" data-original-prefix="fill"/><path id="fill-ear-rt-fill-pin2" class="fill"  fill="#fff" d="M1672.2 574c-4.8.8-5.7-3.2-6.9-6.6-9.5-26.9-18.9-53.8-28.4-80.8-5.8-16.6-11.7-33.2-17.5-49.8-.5-1.5-1.6-2.9-1.1-4.7.8-2.7 1.3-5.9 4.9-6.1 3.8-.2 6.5 1.7 8.1 5.2 7.7 16.9 14.3 34.2 21.1 51.5 10.1 25.9 20.1 51.8 30.1 77.7 3.7 9.7.9 13.4-10.2 13.5Z" class="fill" data-original-prefix="fill"/><path id="fill-ear-rt-fill-pin1" class="fill"  fill="#fff" d="M1694.7 410.3c6.4 12.8 11.3 24.7 15.8 36.7 11.7 30.9 23.1 61.9 34.7 92.8.5 1.4 1.2 2.7-.4 3.4-3.7 1.7-7.5 3.4-11.4 4.6-2 .6-1.9-1.9-2.4-3.1-9.3-22.5-18.4-45-27.7-67.4-3.8-9.2-7.8-18.3-11.7-27.4-1.7-4.1-2.2-8.3-1.5-12.7 1.3-8.5 2.1-17.1 4.5-26.9Z" class="fill" data-original-prefix="fill"/><path id="fill-ear-rt-stud2" class="fill"  fill="#fff" d="M1404.1 793c-.6 10.6-6.4 21.2-19 27.2-11.5 5.4-22.7 4.5-32.7-3.7-6-4.9-9.7-11.4-9.6-19.4 0-5.3-.3-10.7.7-15.9 2.3-11.9 15.2-21.5 28.7-22.2 19.7-.9 31.8 10.9 31.9 34" class="fill" data-original-prefix="fill"/><path id="fill-ear-rt-stud1" class="fill"  fill="#fff" d="M1543 714.6c0 18.3-17.1 29.5-32.7 21.5-9-4.6-13.9-15.9-11.1-25.8 3.1-11.3 18.7-20.5 30-17.8 8.8 2.1 13.8 10.1 13.8 22.1" class="fill" data-original-prefix="fill"/><path id="outline-shading-ear-rt2" class="outline"  fill="#000" d="M1362.6 945.6c-19 13.1-37.7 25.8-56 38.9-5.4 3.9-10.6 4.6-16.8 3.2-31.8-7.5-61-20.2-85.9-41.7-7.5-6.5-16.2-11.5-22-20-2.1-3.2-2.5-5.5-1.8-9.6 1.9-11 8.6-18.5 15.5-26.1 41.8-45.9 77.3-96.1 105.2-151.7 27-53.9 48.2-109.9 62.2-168.5 2.8-11.8 10.2-19.7 17.2-28.5 2.3-2.9 5.3-1.8 8.3-1.5 17.5 2 34.7 5.5 51.8 10 6.4 1.7 11.2-.4 14.5-6.2 1.1-2 2.1-4.1 3.3-6.1 10.6-17.7 16.8-36.7 16.5-57.5-.4-19.7 6.1-36.6 17.6-52.5 13.6-18.8 24.9-39.2 38.8-57.8 8.2-11 17.8-20.6 28.3-29.2 16.7-13.7 33.6-27.1 50-41.1 16.6-14 35.5-24.4 53.9-35.6 5.4-3.3 9.6 1.1 14.5.5.8 0 1.4 2 1 3.4-1 3.1-2 6.3-4 9-7.8 10.7-15.7 21.3-24.1 31.7-35.9 44.6-60.8 94.7-74.5 150.2-5.6 22.9-4.6 46.1-.6 69.2 2.1 11.8 2.1 22.7-3.8 33.6-4.2 7.8-6.6 16.6-9.9 24.9-.9 2.2-1.5 4.3-1.4 6.7.3 4.9 2 5.9 6.3 3.6 3.6-1.9 6.5-4.6 8.9-7.8 16.1-20.5 27.7-43.6 39.7-66.6 1.7-3.3.7-6.4 0-9.7-3.3-17.9-6.9-35.8-9.3-53.9-1-7.1.4-13.9 1.1-20.8.2-2.5.7-5.6 4.1-6.1 3.5-.5 6.8.2 8.7 3.4 1.3 2.2 2.2 4.8 2.9 7.3 11.6 42.9 28.4 84.1 42.2 126.3.3.9.7 1.9 1.1 2.8 3 7.4 1.4 13.4-4.9 17.9-5.4 3.9-10.8 7.8-16.2 11.5-6.8 4.6-7.9 4.3-9.9-3.5-3.7-14.5-7.1-29-10.6-43.5-1.6-6.7-3.1-13.5-4.8-20.7-3.9 2.9-3.8 7.3-4.9 10.8-17.9 54.9-42.2 106.6-75.2 154.1-7.5 10.8-17.2 18.1-27.4 25.6-2.6 1.9-7.6 2.5-6.9 7.3.6 4 7.9 7.8 13.1 7.1 7.9-1.1 14.5-4.5 18.8-11.6 2.6-4.2 5.2-8.5 8-12.6 1.1-1.6 2.6-3.3 4.9-2.7 2.2.6 2.7 2.8 2.9 4.8 1.1 11-.4 21.2-8.6 29.4-18.9 18.9-40.2 34.6-63.9 46.9-18.3 9.5-35.6 20.5-53.1 31.3-6.7 4.1-10.4 9.1-12.8 17.4-5.9 20.3-14.3 39.9-25.8 57.9-4.7 7.4-5.1 7.5 0 13.6 9.8 11.7 19.5 23.5 30.7 33.9 3 2.8 5.8 6.9 11 3.9 6.1-3.5 8.8-8.5 7.1-14.6-3-10.9-6.5-21.6-15.4-29.5-2.2-2-4.1-4.4-5.8-6.8-5.6-7.8-5.7-13.9-.7-21.8 2.2-3.4 6.6-4.9 9.3-2.1 13.1 13.8 30.4 24.2 36.4 43.8l1.8 5.7c1 3 .3 5.2-2.9 6.3-4.9 1.6-6.7 5.1-5.9 10 1.5 9.9-3.3 15.7-12 19.2-.3 0-.6.3-.9.5-10 7.2-18.5 5.6-28.7-1.5-18.5-12.9-31.8-29.9-43.6-48.5-2.1-3.3-4.3-6.6-6.5-10-6.1 6.8-7.8 18.2-4 25.6.3.6.6 1.2 1 1.7 15.7 18.3 29.9 38 47.8 54.5 6 5.5 13.2 9.6 21.1 13.9-10.2 3.2-16.8-.5-23.1-6.7-13.8-13.4-27.1-27.2-39.4-42.1-.8-1-1.9-1.8-3.5-3.2zm10.3-96.3c-11.4 3-21.8 2.3-31.5-3-2.8-1.5-4.3-.5-5.6 1.8-1.2 2-2.3 4-3.5 6-15.4 25.6-30.8 51.1-50.6 73.5-1.5 1.7-3.1 3.7-3.7 5.8-3.4 11.3-6.6 22.8-10.1 35.1 4.5-1.4 6.6-4 9.1-6 12.6-10.8 24.1-22.7 36-34.2 6.6-6.4 11.6-13 13-22.5 1.5-10.1 7.5-17.4 17.9-20.5 3.8-1.1 7.3-3.1 11-4.6 4.9-2 8.4-5.5 10.5-10.1 3-6.5 5.7-13.2 7.6-21.3zM1484 742.1c-2.8 1.3-5.2 2.4-7.5 3.6-20.6 10.1-42 17.8-65 19.9-4.7.4-5.7 2.4-4.1 6.4 4.4 11.2 4.4 22.6 1.8 34.1-.3 1.5-1.2 3.2 1 5.3 33.5-9.4 64.2-25.1 92.9-47.2-10.4-4.7-15.2-12.9-19-22.1zm-83.6 43.7c-1.3-8.2-2.6-17.7-11.4-23.8-4.1-2.8-7.4-3.3-11.2.8-9.2 9.9-18.6 19.7-28.2 29.2-3.9 3.8-3.5 7.1-1.1 11.3 5.8 10.1 17.3 15.8 27.4 13.2 12.7-3.2 24.6-17.5 24.5-30.6Z" class="shading" data-original-prefix="shading" opacity=".2"/><path id="outline-shading-ear-rt1" class="outline"  fill="#000" d="M1729.1 559.3c-16.1-24.2-22.9-52.5-34.6-78.7-6.8-15.3-10.7-30.3-8.7-47 .7-5.2.4-10.6.7-15.9 0-2.1.9-3.9 3.3-4.3 2.5-.4 4.6.2 5.7 2.8 4.4 10.4 8.7 20.8 13 31.2 1.6 3.8-.3 7.2-1.5 10.6-2 5.6-1.7 10.8.7 16.3 9.5 22.6 18.8 45.3 28.1 68 1.3 3.1 1.7 5.8 6.8 3.8 5.9-2.3 8.8 4.2 15 6.9-24.8 19.2-48.8 36.7-71.9 56 3.3 6.1 7.6 10.5 12.4 14.6 3.7 3.3 6.5 2.6 10.2-.7 15.2-13.8 30.8-27.3 46.2-40.9 2.7-2.4 5.2-5.1 8.6-6.6 5 10.4 4.9 11.6-2.9 18.5-10.2 9-20.5 17.9-30.7 26.9-2.4 2.1-4.7 4.4-8.6 8.1 18.6-1.5 32.1-9.6 46-17.9-2.1 9.3-3.8 18.5-13.6 23.3-3.3 1.6-6.3 3.7-9.5 5.5-17 9.4-36.9 6.6-51.3-6.7-8.9-8.2-16.1-17.5-20.8-28.6-2-4.6-3.1-9.5-.4-14.4 2.4-4.4 6.5-6.3 10.9-8 15.2-5.9 29.6-13.5 44.2-20.6.8-.4 1.5-1.3 2.7-2.5z" class="shading" data-original-prefix="shading" opacity=".2"/><path id="outline-outer-rt" class="outline"  fill="#000" d="M1538.9 745.1c5.3-2 8.7-6.6 12.2-10.5 44.1-49.1 80.9-102.5 98.4-167.3.7-2.5.5-4.8-.3-7.3-10-32-23.2-62.9-34.8-94.3-3.4-9.3-6.8-18.7-8.1-28.7-.5-4.1-.3-8 .8-11.9 3.3-12.1 16.6-16.5 27.2-9.2 5.7 3.9 9.3 9.4 12 15.6 7.2 16.5 12.1 33.8 18.6 50.5.6 1.7.9 3.5 3.4 6v-19.1c0-40.3 9.7-78.8 21.9-116.9 3.1-9.6 7.9-18.3 13.3-26.8 2.9-4.5 4.9-9.3 5.9-14.7 6.5-37.9 12.6-75.9 10.2-114.7-.5-7.9-.3-7.8-7.4-5.5-33.7 10.6-65 26.4-96.3 42.5-8.9 4.6-17.7 9.3-26.5 14-46.1 24.9-90 53.2-134.1 81.4-58 37-105.9 84.9-146.7 140-10.5 14.2-21.7 27.9-32.5 41.8-4 5.2-6.7 10.9-8.5 17.3-6.1 21.5-5.9 43.8-8.4 65.7-4.3 36.2-5.8 72.7-9.6 109-.5 5.2-1.6 10.8-3.8 15.4-15.6 32.2-27.7 66.2-46.1 97-10.7 17.9-16 37.6-23.6 56.5-4.2 10.4-.9 21.5 3.2 31.6 4.3 10.5 9.8 20.4 17.3 29.1 2.6 3 4.1 6.8 7.4 9.2-2.9.3-5-1.7-7.2-2.9-11.8-6.6-21.9-14.8-29.1-26.6-6.2-10.2-12.6-20.5-20.1-29.8-1.4-1.7-.8-3.1-.5-4.6 4.4-18.1 8.9-36 18.3-52.5 7.7-13.4 12.7-28.2 18.4-42.7 2.2-5.6 5.1-10.7 9.2-15.3 15-16.5 22.2-36.8 29.1-57.5 9.2-27.3 12-55.6 15.7-83.8 4.4-34.1 6.9-68.3 7.6-102.6 0-4.8 2.6-8 5.2-11.5 14.5-20 28.9-40 43.3-60 30.6-42.6 66.1-81.1 102-119.2 7-7.4 14.7-14 23.1-19.7 61.8-42.3 126.4-79.5 196.3-106.7 29.8-11.6 59.2-24.3 90.5-31.8 6.3-1.5 12.7-2.7 19.1-3.9 3.6-.7 5.9.5 6.9 4.5 1.5 6.2 3 12.3 3.5 18.6 2 26.7 0 53.3-1.7 79.8-1.3 18.9-2.1 37.9-5.3 56.7-1.5 8.4-3.6 16.1-9.8 22.8-11.2 12-16.4 27.2-20 43-.5 2-.2 3.4 1.2 4.9 2.3 2.4 4 5.3 5.4 8.4 17.7 39.7 35.7 79.2 51.8 119.6.6 1.5 1.1 3.1 1.6 4.7.8 2.5 1.2 4 5.1 4.1 6.1.2 9.6 5.5 11.7 11 4.4 11.5 7.7 23.4 10 35.5 1.4 7.4 2.2 14.8 1.6 22.4-1.7 21.1-14.5 34.2-32.2 43-14.5 7.2-30.1 8.4-45.8 4.9-18.2-4.1-29.7-16.9-39.4-31.7-2.8-4.3-5-8.9-7.8-13.9-2.8 6.2-5.5 12-8.2 17.8-12.4 26.8-26.6 52.7-42.6 77.4-22.9 35.2-52.4 64.1-86.8 88.1-20.1 14-40.4 27.7-62.9 37.7-11.1 5-17.9 14-24.1 23.9-5.6 9-5.6 8.9 2.8 15.3 7.2 5.6 14.3 11.4 21.6 17.1 9.4 7.4 15.7 16.7 18.2 28.4 4 18.4 8.1 36.7 11.9 55.1 1.7 8-1.3 14.3-8.1 18.9-15.2 10.2-31 19.3-48.2 25.7-4.2 1.6-9 3.1-12.4.2-4.2-3.6-9.2-6-13.2-9.9-14.7-14.1-29.7-27.7-44.4-41.8-3.3-3.1-5.2-3.6-8.7 0-8.7 9.2-18 17.8-27 26.7-.7.7-1.4 1.8-2.3 1.9-9.9 1.4-19.4 5.8-29.9 2.8-17.2-4.9-33.5-11.9-49.7-19.4-2.5-1.2-4.4-3-5.9-5.2 13.7 3.4 27 8.9 41.7 8.2 9.9-.5 18.4-4.8 26.6-9.2 11.4-6.2 22-13.8 32.1-22 1.2-1 3.4-1.7 1.7-4.3-7.3-10.8-7.3-23.3-7.3-35.6s.3-10.6 1.6-15.9c1.8-7.9 6.5-11.8 14.7-12.1 8-.2 15.9.3 23.7 2.6 6.1 1.8 11.5 4.3 14.8 10.5 2-1.5 2.6-3.4 3.5-5 8.4-16 15-32.7 21.2-49.6.3-.8 1-1.7.8-2.3-2.3-7.8 4.1-10.2 8.7-13.2 21.5-14 43.7-26.9 66.2-39.1 15.8-8.5 30.1-19.1 43.2-31.2 1.7-1.6 4.4-2.7 4.3-5.8l-.3.4Zm155.2-244.7c-2.2 9.9-4.4 19.7-6.7 29.6-.6 2.5-.6 4.8.5 7.2 3.3 7.4 6.5 14.9 9.6 22.4.8 2.1 1.8 3.1 4 2.2 5.8-2.3 11.6-4.5 17.5-6.7 2-.8 2.3-1.7 1.4-3.7-8.4-18.4-16.8-36.8-25.2-55.3zm-266.5 494.1c16.5-2.9 30.4-10.6 41.4-23.5 2.2-2.6 2.8-5.8 2-9.4-2-9.4-3.7-18.9-5.6-28.4-3.3-16.7-11-30.8-24.4-41.7-3.5-2.8-6.6-6.1-9.8-9.3-7.8-7.7-7.6-7.6-12.5 2.6-1.5 3.1-1.6 5.3 1.1 7.8 3.5 3.3 6.3 7.3 9.7 10.8 9.3 9.3 12.7 21.3 15.3 33.5 1.4 6.6-2.3 12.1-9 15.3-5.4 2.5-10.4 1.4-15.3-3.6-5.8-6-11.6-12-17.2-18.2-9.1-10.1-18.9-19.9-25.4-32-3.7-6.9-8.9-8.8-15.5-9.4-6.3-.6-11 2.8-11.5 9.1-1.1 13 1 25.2 10.5 35.1 5.3 5.5 10.5 11.1 15.7 16.8 12.2 13.4 23.5 27.7 37.6 39.3 3.8 3.1 7.8 5 12.9 5.1Zm342.2-397.6c-1.1-13.2-4-27.1-9.9-40.3-.7-1.6-1.9-3.1-2.8-4.6-1-1.6-2.2-1.5-3.7-.7-8.4 4.3-16.9 8.5-25.3 12.7-1.1.6-2.1.7-1.3 2.8 3.4 8.5 7.4 16.6 13 23.9 2.9 3.8 1.6 9.2-2.8 11.3-5.1 2.5-10.3 4.6-15.4 7.1-7.4 3.6-7.4 3.7-9.1-4-.7-3.4-3.7-7.2-2.1-9.8 1.5-2.4 6.1-2.5 9.5-3.3 3-.7 4.3-2.5 2-5.3-3-3.8-6-7.5-9.2-11.1-1.1-1.3-2.4-1.7-4.4-1-8.7 2.9-17.1 6.3-25.5 9.7-6.5 2.6-7.4 3.5-5.3 10.2 6.5 20.6 18.6 36.4 40.1 42.9 32.8 10.1 51-13.7 52.3-40.3v-.2Zm-97.6-22.9c11.1 0 13.9-3.8 10.2-13.5-9.9-25.9-19.9-51.9-30.1-77.7-6.8-17.3-13.4-34.6-21.1-51.5-1.6-3.5-4.3-5.5-8.1-5.2-3.6.2-4.1 3.4-4.9 6.1-.5 1.8.5 3.2 1.1 4.7 5.8 16.6 11.7 33.2 17.5 49.8 9.5 26.9 18.9 53.9 28.4 80.8 1.2 3.4 2.2 7.4 6.9 6.6Zm22.5-163.7c-2.5 9.8-3.2 18.4-4.5 26.9-.7 4.4-.2 8.6 1.5 12.7 3.9 9.1 7.9 18.2 11.7 27.4 9.3 22.5 18.4 45 27.7 67.4.5 1.2.5 3.7 2.4 3.1 3.9-1.2 7.7-2.8 11.4-4.6 1.5-.7.9-2 .4-3.4-11.6-30.9-23-61.9-34.7-92.8-4.6-12-9.4-24-15.8-36.7Zm-283.2 491.4c-.3 5.3-5.1 8.8-1.3 12.8 3.6 3.9 7.3 7.7 10.1 12.3 1.5 2.5 4 3.9 6.8 2.1 3.1-1.9 1.4-4.4 0-6.5-4.2-7-9.7-13-15.7-20.7Z" class="outline" data-original-prefix="outline"/><path id="outline-inner-rt1" class="outline"  fill="#000" d="M1695 240.9c-8.3 11.8-14.8 24.7-21.9 37.2-2.3 4-7.1 5.9-11 8.4-52.4 33.2-88.5 79.4-108.2 137.9-8.8 26.1-12.9 53.5-8.9 81.3 1.5 10.6 4.2 21 10.8 29.8 2 2.6 0 3.9-1 5.6-10.4 14.5-19.8 29.6-26 46.5-10.3 28.3-18.1 57.1-22.7 86.8-.7 4.3-3.1 7-6.2 10.1-19.5 19.7-42.8 33.7-66.8 47-3.3 1.8-6.8 3.4-10.3 5.1-1.2-2 .3-3 1-4.2 11.7-20.7 17.9-42.7 15.2-66.5-1.8-15.6-8.3-29.4-19-41-1.3-1.4-3-2.6-4.7-3.6-5.1-2.9-8.1-2.3-11.7 2.3-2.5 3.2-4.2 6.8-5.5 10.6-8.1 22.5-14 45.5-13.6 69.7 0 2 0 3.8-1.9 5.4-17.5 15.6-31.2 34.6-45.1 53.3-28.1 38.1-50.9 79.3-71.9 121.5-7.7 15.5-13.4 31.9-16.5 49.1-1.7 9.4-.2 18.1 4.6 26.3.4.7.7 1.5.2 2.3-.6.6-1.3.3-1.8 0-9.3-6-18-12.6-25.3-21-1.6-1.8-2.1-3.5-1.7-5.8 1-7.7 1.9-15.5 2-23.4 0-3.3 1.5-6 3.5-8.6 19-24.2 35.3-50 48.1-78.1 17.3-37.9 36-75.1 58.7-110.1 1.7-2.7 3.6-5.2 5.9-7.4 20.1-19.1 32.2-42.5 37.2-69.8 2.3-12.8 4.7-25.5 6.9-38.3 2.9-16.6-2-31.6-7.8-46.5-.5-1.4-1.2-2.7-1.7-4 .8-1.1 1.6-.5 2.2 0 17.1 8.9 34 18.3 50.1 29.1 3.3 2.2 5.4 5 6.7 8.9 6.2 19.3 12.6 38.6 16.4 58.6.4 1.9 1 3.9 1.7 5.7 3.1 7.5 9.4 9.9 16.7 6.3 6-2.9 10.7-7.4 14.4-12.8 10.8-15.4 18.8-32.3 24.5-50 4.3-13.4 9.2-26.8 10.6-41 1.9-18.5 1.6-36.9.3-55.4-1.1-16.5-5.1-32.5-7.7-48.7-.3-2-.5-3.8.3-5.8 10.4-26.6 23-52.1 39.1-75.8 13.6-20 30.9-36.6 48.1-53.4 11.8-11.5 23.9-22.7 35.6-34.4 5.8-5.8 12-10.9 19.7-14.2 6.3-2.7 12-6.5 16.7-11.6 5.4-5.8 12.4-9.5 18.9-13.8.7-.4 1.4-1 2.9.4Z" class="outline" data-original-prefix="outline"/><path id="outline-ring-rt1" class="outline"  fill="#000" d="M1325.7 801.5c1.8-22.2 11.9-39.6 31.5-50.5 23.7-13.2 52.4 1.8 56.7 28.9 4.3 27.3-11.3 51.4-37.8 58.5-20.3 5.4-39.2-3.9-47.1-23.4-1.7-4.3-4.2-8.4-3.3-13.5m78.4-8.5c0-23.2-12.2-35-31.9-34-13.5.6-26.4 10.2-28.7 22.2-1 5.2-.6 10.6-.7 15.9 0 8.1 3.6 14.5 9.6 19.4 10 8.2 21.2 9.1 32.7 3.7 12.6-6 18.4-16.6 19-27.2" class="outline" data-original-prefix="outline"/><path id="outline-ring-rt" class="outline"  fill="#000" d="M1539 745c-1.2-.4-2.2 0-3.2.6-5 3.7-10.7 5.1-16.8 5.5-12.7.9-21.6-4.4-26.2-16.2-2.8-7.4-5.3-15.2-4.4-23.3 1.9-18.4 18.4-31.2 39.1-30.8 13.2.2 24.3 8.6 26.1 21.6 1.8 13.7-.2 26.9-10.8 37.4-1.5 1.5-4.2 2.3-3.9 5.3h.1Zm4-30.4c0-12-4.9-20.1-13.8-22.1-11.4-2.7-26.9 6.5-30 17.8-2.8 9.9 2.1 21.2 11.1 25.8 15.6 8 32.6-3.2 32.7-21.5" class="outline" data-original-prefix="outline"/></g><g id="06_Left Ear" data-trait="OG"><path id="fill-ear-lft1" class="fill"  fill="#fff" d="M326.7 182.1q1.65-.45 3.3.3l180.7 78.4c55.2 39.7 111.9 77.8 165.3 119.7l109 135.9c10.5 65.4 16 132 25.2 197.8 24.6 50.1 52.6 98.7 77.3 148.7 1.5 3.1 5.4 9.5 5.5 12.5.2 4.7-8.5 15.9-11.2 20.8-15.1 27.1-18.8 33.2-43.9 52.1-22.9 17.2-44.3 28.5-72.5 35.5-8 2-18.1 5.7-25.3.5l-82.9-79.1c-9.9-22-17.5-45.3-28.1-66.9l-154-109c-23.7-34.4-41.7-73.1-64.9-108.1-9.8-43.7-27.6-90.2-34.9-134.1-5.9-35.7-6.9-73.6-12.5-109.5-9.3-20.9-22.7-40-30.5-61.5-1-40.6-6.8-81.2-8.3-121.7-.1-3.4-1.1-11.4 2.8-12.4Z" class="fill" data-original-prefix="fill"/><path id="outline-shading-ear-lft1" class="outline"  fill="#000" d="M664 558v21.5c0 22.8 19.2 43.4 30.4 61.6 38.9 63.4 63.1 129 108.2 189.8 16.2 21.8 35 41.1 51.9 62.1 4.8 5.9 9.3 10.3 9.5 18.5.2 6.2-2 12.6-1.1 19l-.9 2.1-60.1 40.9c-13.7.2-28.1 9.9-40.7 12.4-1.5.3-2.8.5-4.2-.3l-76.6-51.4-69.8-109.7c-33.8-23.4-81.3-39.6-107.2-72.3-4.2-5.3-6.4-12.2-10.5-17.5.3-1.1 2.2-.4 3 0 7.1 2.9 21.5 16.6 29.2 21.8 23.5 15.5 51.4 30.4 77.3 41.7 17.3 7.5 35 10.9 52.9 16.1 7 15.4 12.9 31.5 20.2 46.8 8 16.6 27 35.1 40.2 48.8 19 20 39 39.1 59.5 57.5 1.5.2 1.8 0 1.4-1.4-1.9-7.7-7.7-31.2-11.1-36.9-4.7-7.9-16.1-19.2-22.2-27.8-25.1-34.9-42.3-72.5-64.4-108.6-7.4-12-9.8-16-22.8-22.2-38.1-18-78.4-19.1-114.3-41.7-26.9-17-34.3-26.3-51.1-52.9-25.7-40.5-46.4-86-61.2-131.8-4.2-12.9-10.9-32.4-12.7-45.3 0-.6-.3-1.6.5-1.5 14 25.4 25.6 52.8 42.1 76.9 5.6 8.2 12.9 19.9 23.4 21.1-.5-2.4 1.1-5.1.8-7.3-1.4-11-12.7-28.8-16.3-39.8-3.8-11.7 2.7-30.6 3.5-43.5 3.6-59-24.7-121.5-55.6-170.4-12.4-19.7-28.5-37.1-37.4-59.1h16.5c8.6 0 8.7 2.4 14.2 5.8 15.3 9.7 32.5 17.5 48 27 30.2 18.6 67.2 68.2 84.5 99.5 2.9 5.2 12 22.4 12.8 27.2.9 5.4-.9 10.1-1 14.9-.8 41.5 1.8 83.9 11.9 124.2 3.2 12.9 5.4 24.4 15.1 33.9 1.4 1.4 2.9 3.8 4.5 1.5l24.5-44.5 55-6.5z" class="shading" data-original-prefix="shading" opacity=".2"/><path id="outline-ear-lft2" class="outline"  fill="#000" d="M845 941c14.6-16.6 32-43.1 28.9-66.4-6.2-13.9-9.9-31.3-16.2-44.8-6.6-14.1-16.5-28.7-23.6-43.4-15.3-31.6-34.1-66.9-37.1-101.9-.8-27.8-4.4-55.4-7-83-2.5-25.8-1.8-68.6-16.2-89.8-15.1-22.3-37.4-49.1-54.9-70.1-40.4-48.8-81-84.4-134.1-118.9-62.7-40.8-134-84.4-202.2-114.8-5.5-2.4-50.7-20.8-52.7-18.8-2.9 37.8.8 78 8.3 115.2 2.9 14.2 5.3 15.9 11.2 27.8 19.4 39 29.1 89 31.5 132.5 1 17.6-.2 29.6 3.5 47.5 18.4 89.9 62.3 179.1 131.5 240.5 34.3 30.4 77.6 43.7 111.3 70.7 7.8 6.3 4 4.9 5.1 11.8 1.6 9.8 18.8 46.8 24.6 56.2 15.8 25.8 55.2 62.7 82.3 76.9 24.5 12.9 35.2 10.3 60.5 2.1 2.2-.7 5.3-.6 7.2-1.3-1 4.5-8.9 7.6-13 9.5-9.6 4.4-42.4 17.5-51.4 17.4-1.7 0-20.4-3.6-21.4-4.1s-1.2-2.3-2.2-3.3c-15.2-14.7-31.4-32.3-47-46-12-10.6-25.8-15.8-32.5-31.5-10.8-25.2-24.1-65.5-48.8-80.2-25.6-15.1-48.4-25.9-73-44-82.1-60.5-144-180.3-162.2-279.8-2.5-13.4.3-11.7 3.2-22.8 6-23.1-5.4-87.7-14.7-110.8-2-5.1-7-12.2-10.2-16.8-2.7-3.8-8.9-9.4-10.3-12.7-3.4-8-5.6-30.1-6.5-39.5-3.1-31.9-9.3-100.8-.5-129.5 1.8-5.8 2.2-6.4 8.7-5.7 12.1 1.1 31.8 7.4 43.8 11.3 83.1 27.2 164 67.2 237 115.1 21.8 14.3 36.8 25 55.1 43.9 52.6 54.4 98.4 114.5 141.4 176.6 2.3 4.6 2.2 21.8 2.6 28.4 3.6 65.9 7.8 160.8 46.2 215.8 2.9 4.1 7.4 7.9 10 12 6.8 10.6 12 30 17.6 42.4 10.2 22.5 26 41.8 21.6 68.3-12.2 14.7-20.7 38.7-36.8 49.2-5.3 3.5-12.5 7.3-18.7 8.8z" class="outline" data-original-prefix="outline"/><path id="outline-ear-lft1" class="outline"  fill="#000" d="M671 548c1 1.1-9.1 24.9-9.8 28.7-3.2 18.8 9.2 75.9 17.6 94 8.4 18.2 19.9 26.4 31 41 38.5 50.8 58.2 119.5 95.4 173.6 4.1 6 11.5 13.6 14.6 19.4 2.3 4.2 4.1 23.8 4.2 29.8 0 1.9.2 3.7-.6 5.5-1.3 3.2-26.3 24.1-28.5 22 .6-5.2 4-9.5 4.7-14.8 4.7-32.1-33.9-98.2-50.6-126.9-23.1-39.7-51.6-80.6-84.7-112.3.2-20.9-3.1-40.8-9.2-60.8-5-16.5-11.4-40-29.8-18.2-21.7 25.7-18.4 63-6 92 2.2 5.2 5.5 9.8 7.5 15-3.9.3-7.3-2.1-10.7-3.8-25.9-13-50.8-31.4-71.8-51.2-10.2-49.8-20.3-101.8-52.4-142.7 2.3-5.6 5.6-10.1 7.6-16 12.2-35.3 1.5-87.5-13.6-120.9-23.3-51.5-61.4-93-109.9-121.6l-22.3-39.7c3.2-2.9 26 18.3 29.7 20.8 6.2 4.2 14.6 6.7 20.3 10.7 9.4 6.7 22.5 22.7 31.5 31.5 33.4 32.3 57.8 54.7 80 96.9 3.8 7.2 20.1 40.7 20.3 46.5.3 7.9-5.4 25.4-6.6 34.3-3 21-3.8 46.7-2.2 67.7 1.8 24.6 22.8 84.2 40.4 101.6 27.7 27.2 29-13.4 34-31 2-7.1 9.3-32.9 12.5-37.5 2.9-4.3 22.7-15.4 28.3-18.7 2.8-1.7 27.5-16 28.7-14.8h.4Z" class="outline" data-original-prefix="outline"/></g><g id="07_Head" data-trait="steampunk-goggles"><path id="fill-head-main" class="fill"  fill="#fff" d="M836.8 804.9c41.5-.7 96.7 18.9 126.9 47.6 14.5 13.9 27.6 31.2 35 50 2 1.7 4.5 1.8 7 2 8.8.7 24.3.7 33.1 0 1.9-.2 4.9-.4 6.4-1.6 1-.8 9.2-18.7 11.6-22.4 28.4-43.3 83-70.4 133.9-75.1 48.8-4.5 92.3 18.3 124 54 4.6 5.2 16.5 23.7 20 26 4.8 3.2 20.4 5.8 27.2 8.8s9.9 4.7 12 12c8 27.8 10.1 60.2 17.8 89.2 2 7.5 6.9 17.8 8.3 24.8 2.5 12.7-16.1 9.6-23.3 10.3-7.9.8-32 2.9-37.9 6.1-4.8 2.6-4.7 7.6-6.7 11.3-19.9 36.3-50.9 68.1-91.4 80.6-82.6 25.5-158.9-29.6-190-104-1.9-4.5-7.6-24.1-9.4-25.6-4.2-3.5-32.1-3.3-37-.8-1.1.5-1.8 1.6-2.5 2.5-6.5 21.9-16.6 45.4-30.2 63.8-66.3 90.5-184.2 97.1-248.6.8-3.6-5.4-14.2-26.9-17.4-28.6-4.4-2.4-21.2-4.4-27-5-8.1-.9-17.9-.2-25.4-1.6-2.9-.5-7.9-2.2-8.8-5.3-1-3.4 7.1-24.6 8.5-30.1 7.7-29.1 10-60.2 17.6-88.4 1.8-6.6 4.7-8.5 10.7-11.3 7.2-3.3 23.4-6 28.5-9.5 3.6-2.5 15.3-20.7 20-26 26.7-30 66.1-54 107.2-54.6Z" class="fill" data-original-prefix="fill"/><g id="glare"><path id="fill-head-glare4" class="fill"  fill="#fff" d="M1248.6 880c7.2 4.9 13.2 12.8 17.6 20.3 3.8 6.4 14.3 29.3 12.4 35.7l-86.6 135.5c-5.1 4.5-22.4-3.7-28-7.1-4-2.5-19.8-15.2-18.9-19.7 33.1-55.7 66-111.7 103.5-164.7" class="fill" data-original-prefix="fill"/><path id="fill-head-glare3" class="fill"  fill="#fff" d="M909.6 898c1.7-.4 3.5 3.5 4.2 4.7 5.6 8.8 17.6 41.1 14.7 50.2-21.9 40.3-45.3 79.8-68.9 119.1-13.2 3.3-26.6-.3-38.4-6.7-3-1.6-19.4-12.4-19-14.7l107.5-152.7Z" class="fill" data-original-prefix="fill"/><path id="fill-head-glare2" class="fill"  fill="#fff" d="M890.9 876.1c.8 1.2-.2 3.2-.8 4.5-4.3 8.8-15.6 23.5-21.6 32.4-24.9 36.9-51.2 72.9-76.6 109.4-1.7 1.1-5.7 9.3-7.3 8.7-1.9-.7-10.7-14.5-7.4-17.4l94.4-145.6c1.4-1.8 3.6-.1 5.4.5 1.6.6 13.5 6.9 13.9 7.6Z" class="fill" data-original-prefix="fill"/><path id="fill-head-glare1" class="fill"  fill="#fff" d="M1128 1020c-2-6.8-10.7-23.3-8.2-29.7 27.7-43.3 56.7-85.7 86.7-127.3 1.6-3.1 15.7-.7 17.5.5 1.6 1.1.9 1.8.2 3.2z" class="fill" data-original-prefix="fill"/></g><path id="fill-head-strap4" class="fill"  fill="#fff" d="M1351 1024c12.7-36.1 16.8-74.6 5.3-111.8-1.5-4.8-5.1-10.6-6.3-14.7-.4-1.5.1-1.7 1.5-1.5 3.3.5 17.3 8.4 18.3 11.7l15.2 106.7c-.3 1.7-.9 3.7-2.7 4.4-7.9 2.9-22.7 1.5-31.3 5.2" class="fill" data-original-prefix="fill"/><path id="fill-head-strap3" class="fill"  fill="#fff" d="M696 896c-13.3 30.5-16.4 65.4-9.5 98 2 9.6 6.4 18.8 8.3 27.7.2.9.7 2.3-.3 2.3-4.8-2.7-30.1-3.8-32-6-.5-.6-1.1-2.7-1.1-3.7 3.4-30.8 8.9-61.4 13.5-92 .6-4 .4-11.3 1.3-14.7 1.1-3.9 18.6-12.9 19.8-11.7Z" class="fill" data-original-prefix="fill"/><path id="fill-head-strap2" class="fill"  fill="#fff" d="M1049 984c.5.5.2 6.9-1.4 8.1-3.3 2.5-34.2 2.4-40.1 1.9-7.6-.7-11.9-.9-10.5-10 13.7-.8 28.9-2 42.5-1 1.4 0 9.1.7 9.5 1" class="fill" data-original-prefix="fill"/><path id="fill-head-strap1" class="fill"  fill="#fff" d="M1058.9 913.1c-2 20.2-7 40.3-5.9 60.9-19.7-3-40.2-3-60 0 1.1-20.6-3.9-40.7-5.9-60.9 8.6-5.7 68.4-5.1 71.7 0Z" class="fill" data-original-prefix="fill"/><g id="bevels"><path id="fill-head-bevel6" class="fill"  fill="#fff" d="m1209 1081 23.3-7.1c63.6-27.3 84.6-112 51.7-170.4 2.9-1 6.5 6.1 8.2 8.8 20.5 34.7 21.1 83 .2 117.6-16.3 27-51.1 51.4-83.4 51.1" class="fill" data-original-prefix="fill"/><path id="fill-head-bevel5" class="fill"  fill="#fff" d="M989 899c-3.1-.3-8.3 3.4-10.5 1-1.7-1.8-7.7-17-10-21.1-8.4-15-19.6-27.8-31.5-40 4.6.2 8.9 4.3 12.5 7 17 13.1 32.9 32.6 39.5 53Z" class="fill" data-original-prefix="fill"/><path id="fill-head-bevel4" class="fill"  fill="#fff" d="M1108 839c.4 1.9-1.1 2.4-2 3.5-4.2 5-9.6 9.7-14 15-10.3 12.8-18.3 27.3-24.5 42.5-2.2 2.3-7.4-1.4-10.5-1 6.7-20.5 22.5-39.8 39.5-53 1.5-1.1 10.4-8.1 11.5-7" class="fill" data-original-prefix="fill"/><path id="fill-head-bevel3" class="fill"  fill="#fff" d="M1055 1001c4.5 23.1 17.2 43.6 29 63.5l12 17.5c-1.9.4-2.4-1.1-3.5-2-14.7-12.3-40.4-53.6-42.4-72.6-.5-5-.7-6.2 4.9-6.4" class="fill" data-original-prefix="fill"/><path id="fill-head-bevel2" class="fill"  fill="#fff" d="M995.8 1002.2c1.3 2.2-1.7 12.6-2.6 15.6-5 16.8-26.4 51-39.8 62.2-1.1.9-1.6 2.4-3.5 2l12-17.5c11.8-19.9 24.5-40.5 29-63.5.3-.3 4.5.6 4.8 1.2Z" class="fill" data-original-prefix="fill"/><path id="fill-head-bevel1" class="fill"  fill="#fff" d="M837 1080c-76.4-12.6-107.9-98.3-80.5-166 1.4-3.5 4.9-7.4 4-11-30.9 41.2-30.2 103.6 4.5 142.5 14.7 16.4 45.9 36.4 68.5 35.5 1.2 0 3.7.8 3.5-1" class="fill" data-original-prefix="fill"/></g><g id="shading-layers" class="shading"  class="st3"><path id="outline-shading-head7" class="outline"  fill="#000" d="M1107 1067c2.1 0 .3-3.3 1.4-5 .8-1.3 7.1-2.6 8.4-1.8s1.7 8.6 6.9 9.7c6.3 1.3 7.1-5.8 10.6-4.8 6.8 6.3 5.6 16.8.3 23.6-.9 1.2-4.8 1.8-2.6 3.8 8.1 7.1 27.1 15.8 37.4 19.6 12.1 4.4 25.6 8.2 38.5 8-1.1-5.1-6.9-11.6.9-13.6 7.1-1.7 9.2 3.3 15.5 3.6 7.9.4 9.9-5.8 17.5-3 1.5 1.5-2.9 7.5.5 7 5.7-.8 20.6-7.8 26.2-10.8 10.3-5.5 18.6-13.1 27.3-20.7-8-2.2-9.9-8.1-8.9-15.9.2-1.2 2.6-9.2 3.1-9.4s8.4-.4 9.2-.2c.7.2 3.1 11.4 11.7 3.6 2.5-2.3 3.4-8.7 7.4-5.6 1.3 1-.2 7.1 2.1 7.1.3 0 5.8-5.9 4.5-1.5-.3 1.1-5.4 8.9-6.6 10.4-29.7 42.2-80.7 69.1-132.8 62.9-67.3-7.9-116.3-61.2-139.1-121.9-1.3-3.5-1.7-10.3-4.1-13-2.6-2.9-19.5-3.3-24-3.1-3.3.1-13.1 1-14.9 3.1-3.3 8.8-5.7 18-9.3 26.6-27.3 64.1-92.7 117.2-165.5 108.2-45-5.5-85.3-35.8-107.6-74.4 2.9-2 4.9 1.2 7 2.5-1-3 .8-8.8 4.5-8 1 .2 3.2 8.4 9.2 9s6-5.8 7-6.1c8.1-2.2 10.8 1.9 11.9 9 1.3 8.6 0 13.6-8.5 16.6 15.2 15.1 33.4 25.6 54 31.5-.9-5.3 0-9.1 6.3-7.8 1.4.3 3.6 2.8 5.7 3.3 9.7 2.7 11.8-3.9 18.5-3.6 10.2.5 6.6 8.2 2.5 14 28.2-.4 54.7-13.1 78-28-6.4-4.6-9.2-12.2-7.5-20.1 2.9-13.7 8.3-2.9 11.3-2.1 8.2 2.3 7.9-7.8 10.2-9.4 1.6-1.1 7.6 0 8.6 1.5 1.1 1.7-.6 4.9 1.5 5 11.6-17 20.8-34.6 29.2-53.3 3.2-7.2 9-27.5 14.9-31.1l22.6-6.4c13.5.5 27.9-1.8 40.9 1.8 2.1.6 3.7 2.4 5.2 2.8 5.3 1.4 8.5-1.1 12.7 5.3 6.8 10.3 13.5 34.1 20 47 6 11.8 13.6 22.7 20.5 34Z" class="shading" data-original-prefix="shading" opacity=".2"/><path id="outline-shading-head6" class="outline"  fill="#000" d="M898 854c.6-.5 1-6.8 6.7-6.8 4.2 0 3.8 11.7 14.9 6.9 3.1-1.3 4.6-5.3 6.1-5.9 4.8-1.8 5.4 2.2 5.4 6.3 0 5.4-2.4 11.2-6.7 14.4-1.7 1.2-3.7.3-3.4 2.6.3 2.1 4.3 5 5.9 7.2 21.1 29.2 27.9 53.6 20.9 89.6-.2 1-1 5.8-2.2 5.8-6.6-9.8-6.7-20.8-9.4-31.6-13.8-56.6-57.7-95.9-118.3-81.1-53.5 13.1-64.8 100.7-51.5 144.9 9.8 32.6 37.1 56.7 68.5 68.5 2.4.9 17.4 3.5 12.6 7.3-3.3 2.6-15.5 2.3-19.9 1.9-15.3-1.4-42.8-15.4-54.5-25.5-5.1-4.4-9.3-11-14.1-14.9-9.7-7.9-14.4-3.7-22.1-16.9-6.8-11.8-9.4-25.5-12.3-38.7-1.1-2.1-4.3 2.9-6.5 3.6-10.3 3.2-17.6-8.2-18.1-17.1-.8-15.7 8.7-2.1 11.4-2.5 2.9-.5 4.3-7.3 3.6-9.9l8 1c1.3-16 3.9-32.1 9.2-47.2 1.2-3.4 3.8-7.5 4.7-10.3s-3.1-.4-4.5-.4c-7.6-.1-12.3-9-10.8-15.8.4-1.6 4.9-11.8 5.9-12.2 1.4-.6 3 4 4.5 5.5 7.1 7.4 8.8 1.1 12.7.6 1.5-.2 2.7 2.9 5.3 1.4 1.3-.7 8.9-11.1 11.5-13.6 12.1-11.8 29-23 45.5-27-4.3-3.8-7-19.7-.5-21 9.2-1.8 7.8 6.1 13.1 6.7s6.4-6.3 11.4-5.4c7.8 1.5 5 9.5 2.5 14.6 16.3-3 34.3 1.1 49.5 7.6 2.3 1 14.3 8 15 7.5Z" class="shading" data-original-prefix="shading" opacity=".2"/><path id="outline-shading-head5" class="outline"  fill="#000" d="M1241 844c16.9 4.1 34.2 15.9 46.5 28 1.9 1.9 9.9 12.6 11.2 12.9 2.1.5 3.3-2 4.6-1.8 3.3.5 5.9 6.6 12.2 0 1.8-1.9 3.2-8.2 5.9-5 .4.5 4.1 8.8 4.3 9.7 1.7 8.1-1.3 16.3-10.4 17.2-1.4.1-5.3-2.3-4.4.5 1.1 3.3 3.8 7.4 5 11 5 15 7.3 30.9 9 46.5l8-1c-.2 2.5-.2 9.1 2.7 9.9 3.1.9 6.9-5.8 9.8-4.9 6.6 5.2-1.7 22.4-7.5 24.4-7 2.4-8-.5-12.5-3.5-.8-.6-1-1.7-2 0-1.9 3.2-4.3 19.2-6.2 24.8-1.7 4.9-4.1 10.7-6.9 15.1-5.7 9.2-8.1 7.7-16.4 12.6-8.4 4.9-12.2 12.4-19.5 18.5-10.8 9.1-39.2 23.4-53.1 24.9-3.7.4-19.6.7-21.3-1.9-2.8-4.2 11-6.3 13.9-7.5 44-17 70.5-51.4 73.1-98.9 2-37-12.1-100.9-52.8-113.3-55.3-16.8-99.3 14.6-118 65.5-3.9 10.7-4.2 19.1-6.7 29.3-1.3 5.5-5.3 11.3-6.6 16.9-1.3 1-2.7-4.6-2.9-5.6-5.9-30.8-2.3-53.8 14.5-80.3 1.7-2.7 13.2-17 12.4-18.1-8 .9-13-19.3-8.9-21.9 4.5-2.8 6.6 4.2 9.5 5.7 10.4 5.4 12-6.7 15.7-6.7 5.7 0 6.2 6.4 6.7 6.8.8.6 14.3-7.3 17-8.5 15.1-6.2 30.7-8.2 47-7.5-2.1-3-3.4-9.5-.6-12 6.7-6 9.2 4.4 14.9 3.8 5.3-.6 5.1-10.3 14.4-6 4.9 2.3 2.1 16.7-1.8 20.2Z" class="shading" data-original-prefix="shading" opacity=".2"/><path id="outline-shading-head4" class="outline"  fill="#000" d="M697 938c-1.4 11.4-1.3 23.1 0 34.5 2 17.6 10.2 36.8 11.9 53.1 1.1 10.8-1.6 11.1-10.9 8.9-7.5-1.7-12-5.9-20.5-6.5-1.1 0-2.7-.6-2.5 1l7.5 3c-7.8-3.1-33.3.9-37-7-2.4-5.3 5.2-17.8 5.5-24 10.2 3.7 20.1 5.5 31 6-.5-7.6-2.8-15.8-3-23.5-.3-9.5.8-23.2 2.5-32.6 2.2-12 2.4-12.6 15.5-13Z" class="shading" data-original-prefix="shading" opacity=".2"/><path id="outline-shading-head3" class="outline"  fill="#000" d="M1363.8 940.2c1.1 1.1 4.1 18.4 4.3 21.2 1 14.4.6 31.7-3 45.5 10.1-.4 19.8-2 29.4-4.9.9.2 1.1.9 1.4 1.6.5 1 4.7 13.7 5 15 3.1 15.9-23.2 10.2-32.8 12.3l5-2c.3-1.6-1.4-1.1-2.5-1-3.5.2-8.9 1.6-12.3 2.7-1.1.3-1 1.9-2 2.2-2.5.8-13.3 2.7-15.6 2.1-1-.2-2.7-4.9-2.5-6.3 5.2-23.3 13.7-48.2 13.8-72.2 0-6.2-1.7-12.3-1.1-18.5.5-.5 11.8 1.2 12.8 2.2Z" class="shading" data-original-prefix="shading" opacity=".2"/><path id="outline-shading-head2" class="outline"  fill="#000" d="M976.6 956.5c3 9 6.2 20.1-2.7 26-12.7 8.5-23.4-4.5-23.8-17.1 0-2.5 1.9-15.9 5.4-11.3 2.5 3.3 2.5 9 9.1 9.9 8.1 1.2 5.8-5.1 12-7.5" class="shading" data-original-prefix="shading" opacity=".2"/><path id="outline-shading-head1" class="outline"  fill="#000" d="M1095 953c.5.3 2.9 9.9 2.9 11.4 0 12.6-10.9 26.7-23.8 18-6.5-4.3-7.8-11.4-7-18.8 0-.9 1.7-7.3 1.9-7.6 1.6-1.7 3 3.4 4.1 4.4 6 6 13.1 4.4 17.8-2.1.7-.9 1.9-7 4.1-5.3" class="shading" data-original-prefix="shading" opacity=".2"/></g><path id="outline-head1" class="outline"  fill="#000" d="M956.7 833.3c4.3 3.1 13.3 12 17.3 16.1 13.3 13.6 25.6 29.4 32.1 47.4l33.2.2c7.8-19.2 21.3-36.7 36.1-51.1 36.6-35.7 106.4-55.2 156.7-46.7 36.4 6.2 71.2 31.8 94.3 59.7 3.4 4.1 11 16.7 13.9 19 3.5 2.7 22.3 6.6 28.5 9.5 14.6 6.7 13.7 18.1 16.5 32.5 4.5 23.2 7.7 46.3 13.8 69.2 2.5 9.2 8.3 21.7 9.4 30.5 2.9 21.4-23.6 16.7-38.1 18.4-8.6 1-17.1 2.8-25.6 4.4-5.4 8.1-9.2 17.1-14.6 25.4-67.5 103.7-202.5 95-268.2-5.6-11.3-17.2-20.5-38.2-25.4-58.1-1.5-1.8-26.2-1.8-27.6 0-3.7 16.3-10.8 32.9-19 47.5-62.5 111.2-208.1 124.6-277.2 11.8-4.3-7-7.4-14.4-12-21-8.5-1.8-17-3.4-25.6-4.4s-21.7-.3-29.6-2.4c-4.5-1.2-8.8-7.6-8.8-12.2-.1-8.7 8.2-27.7 10.8-37.3 7.3-27.4 9-58 16.6-84.4 2.2-7.5 4.9-10.7 12-14 6.5-3 25.4-6.8 29.2-9.8 1.9-1.5 4.2-6.6 6.1-8.9 53.2-67.4 112.2-87.6 195.9-60.1 12.2 4 38.8 16.9 49.2 24.4ZM697 962c1.2-11.4 13.1-16.4 21.4-7.9l5.6 9.9c2.2-40.7 21.1-79.4 55.1-102.4 36.1-24.5 82.9-25 119.2-.4 1.6 1.1 2 1.4 3.3 2.5-3.8-5.2-7.5-10.9-3-19.6 4.3-8.3 12-10.6 20.7-7.3-.4-1.1-1.7-1.8-2.2-2.3-3.3-3.1-11.8-7.7-16-10-24.6-13.3-51.3-15.3-79-14.5 2.7.8 4.4 2 6.3 3.1 17.2 10.3-6.8 38.2-22.8 25.8-9-6.9-4-19.7 3.6-25.5-6 1-14.5 4.7-20.8 7.4-20 8.6-38 22.4-52.3 38.7-.9 1-6.7 7.8-6 8.5 14.7-4.1 23 5.3 17 19.5-5.7 13.3-25.5 17.7-26.8-.3-.2-2.3 2-6.5-.2-7.2-16 25.8-22.8 51.7-24 82-.3 6.7.2 7.6 1 14 2 16.8 5 29.6 11 45.5 4.3 11.5 9.7 23.6 17 33.5-1.7-7.7 5.4-12.6 12.4-11.9 3.9.4 6.9 3.8 10.6 3.4-14.3-21.6-23.3-46.3-24-72.5l-4.5 8c-7.2 9.7-18.7 4.3-21.5-6-1-3.5-1.4-10.3-1-14Zm527.5-151.1c-34.5-1.4-70.6 2.5-97.5 25.6 8.7-1.7 14.6-2 19.6 6.3 3.4 5.7 4.2 11 .6 16.9-1.2 2-1.6 2.6-2.8 3.7 11.2-5.3 21-12.9 33.1-16.4 75.6-21.9 142.3 43.4 144.4 116.9 0 0 .8-6.3 5.6-9.9 3-2.3 18.6-3.6 21.3 6.5 1.2 4.4 0 15.3-1.4 17.5s-3.1 5.7-7.8 8.2c-4.2 2.2-9.8-.7-12-2.2-3.7-2.7-5.8-10-5.8-10-1.2 25.9-9.3 52.7-25.3 73.2 2.3-1.2 7.7-3.8 11.9-4.2 7.6-.7 13.1 4.4 12.9 11.9 10.3-16.3 18.2-35.1 23.2-53.8 11.3-42.2 3.9-84.3-18.7-121.2.2 1.2.4 4.9.3 7.3-1.3 17.8-21.1 13.6-27 1-4.7-10.1-2.4-21.4 10.2-21.8 1.4 0 4.8.3 7.2 1-20.6-25.1-48.4-46.7-80.7-53.4 2.1 1.3 3.3 2.5 5 4.5 4.3 5.2 6.2 12 2 18-11.7 16.6-43.8-5.5-26.5-22.5 4.3-4.2 8-3.1 8-3.1Zm-408.8 9.3c-8.3 1.9-10.7 17.5 3.6 14.5 11-2.3 10.6-17.8-3.6-14.5m407 0c-2.1.6-3.6 4.4-3.7 6.4-.3 8.9 17.7 12.3 18 2.9.2-7.5-7.8-11.3-14.4-9.3ZM989 899c-6.7-20.4-22.5-39.9-39.5-53-3.6-2.8-7.9-6.8-12.5-7 11.9 12.2 23.1 25 31.5 40 2.2 4 8.3 19.2 10 21.1 2.2 2.4 7.4-1.4 10.5-1Zm123.6-63.9c-1.1-1.1-14.6 9.8-16.1 11-17 13.2-32.8 32.5-39.5 53 3.1-.3 8.3 3.4 10.5 1 6.2-15.2 14.2-29.7 24.5-42.5 4.3-5.4 8.8-10.3 13.4-15 1-1 7.6-5.6 7.2-7.5M926.9 842c-.7-.5-.8-.7-2.9-1.5 7.9 10.1 3.2 24.2-9.8 26.3-3.8.6-8 .7-10.2-.3 46.2 37.9 53.6 106.1 26.7 157.7-29.5 56.5-97.7 84.9-154.6 48.2L757 1058c1.3 5.7 1.9 10.5-2.5 15s-8.7 3.8-14.5 3.4c12.5 15.8 28.9 28.1 47 37.1 68.1 33.8 141.1-9 174.6-70.5 34.3-63.2 24.8-151-31.5-198.6-1.3-1.1-2.1-1.7-3.1-2.5Zm214.4 23.9c-17.4 4.5-29.1-10.1-19.8-25.8-2.6 1.8-3.6 2.8-5.6 4.4-44.2 37.3-59.7 100.2-47.5 155.6 17.9 81.3 106.4 154.9 189.9 113.8 18.3-9 35-21.3 47.6-37.4-5.8.4-10 1.3-14.5-3.4s-2.8-10.9-1.4-16.6c-1.2.6-3 2.3-4 3-29.8 23.1-52.3 35.2-92 27-95-19.7-127.7-154.1-55.2-218 .7-.6.8-1.3 2.6-2.7Zm-232.6-22.7c-2.6.6-4.6 3.3-5.3 5.8-2.8 10.4 14.8 16 18.2 5 2.1-6.7-7-12.1-12.9-10.8m224 0c-12.9 2.5-9.9 19.2 2.5 16.6 11.1-2.3 9.4-18.9-2.5-16.6M1128 1020l96.2-153.3c.7-1.4 1.4-2.1-.2-3.2-1.8-1.3-15.9-3.7-17.5-.5-30 41.7-59 84.1-86.7 127.3-2.4 6.5 6.3 22.9 8.2 29.7M890.9 876.1c-.4-.7-12.3-7-13.9-7.6-1.8-.7-4-2.3-5.4-.5l-94.4 145.6c-3.3 2.9 5.5 16.6 7.4 17.4 1.6.6 5.6-7.5 7.3-8.7 25.5-36.5 51.8-72.5 76.6-109.4 6-8.9 17.4-23.6 21.6-32.4.6-1.2 1.6-3.2.8-4.5Zm-154.1-.9c-10.1 1.3-13.9 20.8-2.7 17.4 9.5-2.9 12.1-18.6 2.7-17.4m569.9-.1c-10 2.8 3.2 22.6 10.4 17.4 5-3.6-1.6-19.8-10.4-17.4m-58.1 4.9c-37.4 53-70.3 109-103.5 164.7-.9 4.5 14.9 17.2 18.9 19.7 5.5 3.4 22.8 11.7 28 7.1l86.6-135.5c1.9-6.4-8.7-29.3-12.4-35.7-4.4-7.5-10.3-15.4-17.6-20.3M696 896c-1.2-1.2-18.7 7.8-19.8 11.7-.9 3.3-.7 10.6-1.3 14.7-4.6 30.7-10.1 61.2-13.5 92 0 .9.6 3 1.1 3.7 1.9 2.2 27.2 3.3 32 6 1 0 .5-1.5.3-2.3-2-8.9-6.3-18.1-8.3-27.7-6.9-32.6-3.8-67.5 9.5-98Zm655 128c8.7-3.7 23.4-2.2 31.3-5.2 1.8-.7 2.4-2.7 2.7-4.4l-15.2-106.7c-.9-3.3-15-11.2-18.3-11.7-1.4-.2-1.9 0-1.5 1.5 1.2 4.1 4.8 10 6.3 14.7 11.5 37.2 7.4 75.7-5.3 111.8M909.6 898l-107.5 152.7c-.4 2.3 16 13 19 14.7 11.8 6.3 25.2 9.9 38.4 6.7 23.7-39.3 47.1-78.7 68.9-119.1 3-9.1-9-41.5-14.7-50.2-.8-1.2-2.5-5-4.2-4.7ZM837 1080c-76.4-12.6-107.9-98.3-80.5-166 1.4-3.5 4.9-7.4 4-11-30.9 41.2-30.2 103.6 4.5 142.5 14.7 16.4 45.9 36.4 68.5 35.5 1.2 0 3.7.8 3.5-1m372 1c32.3.3 67.1-24.1 83.4-51.1 20.9-34.6 20.2-82.9-.2-117.6-1.6-2.8-5.3-9.9-8.2-8.8 32.9 58.4 11.9 143-51.7 170.4zm-150.1-167.9c-3.3-5.1-63.1-5.7-71.7 0 1.9 20.2 7 40.3 5.9 60.9 19.7-3 40.3-3 60 0-1.2-20.6 3.9-40.7 5.9-60.9Zm-352.2 45c-7.2 2-6.6 21.2 2.7 19.9 8.5-1.2 6-22.3-2.7-19.9m630 0c-7.4 2-7.1 20 .8 20 9.7 0 8.2-22.4-.8-20M1049 984c-.3-.3-8-.9-9.5-1-13.7-1-28.9.2-42.5 1-1.4 9.1 2.9 9.3 10.5 10 5.9.5 36.7.7 40.1-1.9 1.6-1.2 1.9-7.6 1.4-8.1m-53.2 18.2c-.3-.5-4.5-1.5-4.8-1.2-4.5 23-17.2 43.6-29 63.5l-12 17.5c1.9.4 2.4-1.1 3.5-2 13.4-11.2 34.8-45.4 39.8-62.2.9-3 3.9-13.5 2.6-15.6Zm59.2-1.2c-5.6.2-5.4 1.4-4.9 6.4 2 19 27.6 60.3 42.4 72.6 1.1.9 1.6 2.4 3.5 2l-12-17.5c-11.8-19.9-24.5-40.5-29-63.5m-309.2 66.8c5.5-5.7-4.9-22.8-13.3-16.8-7.8 5.6 8.1 22.3 13.3 16.8m554.4 0c5.3 5.5 21.2-11.2 13.3-16.8-8.4-6-18.8 11.1-13.3 16.8" class="outline" data-original-prefix="outline"/><path id="outline-head7" class="outline"  fill="#000" d="M1225.8 1092.2c20.1-.7 24.1 21.8 5.4 27.5-8.5 2.6-18.5 2.4-24.2-5.2-9.2-12.4 7.6-21.8 18.8-22.2Zm-11.5 19.5c6.5 7.8 22.4 2.5 19.5-7-2.6-8.3-27.2-2.3-19.5 7" class="outline" data-original-prefix="outline"/><path id="outline-head6" class="outline"  fill="#000" d="M1111.3 1053.3c13.8-14.5 39.8 19.2 24.2 29.7-13.6 9-34.8-18.5-24.2-29.7m9.4 6.9c-9 1.9-.6 15.6 6.8 15.9 10.5.4 5.2-18.4-6.8-15.9" class="outline" data-original-prefix="outline"/><path id="outline-head5" class="outline"  fill="#000" d="M1083.7 943.3c18.9-.5 19.2 36.3-1.1 35.7-19.7-.6-18.1-35.1 1.1-35.7m-1 8.9c-9.4 1.9-9.5 19.8-.3 19.9 11.2.2 9.4-21.8.3-19.9" class="outline" data-original-prefix="outline"/><path id="outline-head4" class="outline"  fill="#000" d="M817.8 1092.2c11.5-.6 31 9.1 21.2 22.3-6 8.1-17.7 8-26.4 4.4-15.6-6.4-11.8-25.7 5.2-26.7m13.9 19.5c7.7-9.3-17-15.3-19.5-7-2.9 9.5 12.9 15 19.5 7" class="outline" data-original-prefix="outline"/><path id="outline-head3" class="outline"  fill="#000" d="M934.7 1053.3c10.7 11.2-10.6 38.7-24.2 29.7-15.7-10.4 10.4-44.1 24.2-29.7m-14 6.9c-10.6 2.3-10.7 21 1.7 14.7 8-4.2 10.3-17.3-1.7-14.7" class="outline" data-original-prefix="outline"/><path id="outline-head2" class="outline"  fill="#000" d="M961.7 943.3c19.6-.6 22 35.1 1.8 35.7-19.9.6-20.2-35.2-1.8-35.7m-1 8.9c-7.1 1.9-7.1 21.5 3.7 19.9s5.9-22.5-3.7-19.9" class="outline" data-original-prefix="outline"/><g id="rivets"><path id="fill-head-rivet16" class="fill"  fill="#fff" d="M1132.7 843.2c11.9-2.3 13.7 14.2 2.5 16.6-12.5 2.6-15.4-14-2.5-16.6" class="fill" data-original-prefix="fill"/><path id="fill-head-rivet15" class="fill"  fill="#fff" d="M908.7 843.2c5.8-1.3 14.9 4.2 12.9 10.8-3.4 11-20.9 5.4-18.2-5 .7-2.5 2.7-5.2 5.3-5.8" class="fill" data-original-prefix="fill"/><path id="fill-head-rivet14" class="fill"  fill="#fff" d="M1300.2 1067.8c-5.5-5.7 4.9-22.8 13.3-16.8 7.8 5.6-8.1 22.3-13.3 16.8" class="fill" data-original-prefix="fill"/><path id="fill-head-rivet13" class="fill"  fill="#fff" d="M745.8 1067.8c-5.3 5.5-21.2-11.2-13.3-16.8 8.4-6 18.8 11.1 13.3 16.8" class="fill" data-original-prefix="fill"/><path id="fill-head-rivet12" class="fill"  fill="#fff" d="M815.7 820.2c14.1-3.2 14.5 12.3 3.6 14.5-14.3 3-11.9-12.7-3.6-14.5" class="fill" data-original-prefix="fill"/><path id="fill-head-rivet11" class="fill"  fill="#fff" d="M1222.7 820.2c6.6-2 14.6 1.8 14.4 9.3-.3 9.4-18.3 6-18-2.9 0-2 1.6-5.8 3.7-6.4Z" class="fill" data-original-prefix="fill"/><path id="fill-head-rivet10" class="fill"  fill="#fff" d="M706.7 958.1c8.7-2.4 11.2 18.7 2.7 19.9-9.4 1.3-9.9-18-2.7-19.9" class="fill" data-original-prefix="fill"/><path id="fill-head-rivet9" class="fill"  fill="#fff" d="M1336.7 958.1c9-2.4 10.5 19.9.8 20-7.9 0-8.2-17.9-.8-20" class="fill" data-original-prefix="fill"/><path id="fill-head-rivet8" class="fill"  fill="#fff" d="M736.8 875.2c9.4-1.2 6.7 14.5-2.7 17.4-11.2 3.4-7.4-16.1 2.7-17.4" class="fill" data-original-prefix="fill"/><path id="fill-head-rivet7" class="fill"  fill="#fff" d="M1306.7 875.1c8.7-2.4 15.4 13.8 10.4 17.4-7.2 5.2-20.3-14.7-10.4-17.4" class="fill" data-original-prefix="fill"/><path id="fill-head-rivet6" class="fill"  fill="#fff" d="M1214.3 1111.7c-7.7-9.3 17-15.3 19.5-7 2.9 9.6-13 14.8-19.5 7" class="fill" data-original-prefix="fill"/><path id="fill-head-rivet5" class="fill"  fill="#fff" d="M1120.7 1060.2c12-2.6 17.3 16.3 6.8 15.9-7.4-.3-15.8-13.9-6.8-15.9" class="fill" data-original-prefix="fill"/><path id="fill-head-rivet4" class="fill"  fill="#fff" d="M1082.7 952.2c9.2-1.8 10.9 20.1-.3 19.9-9.2-.1-9.1-18.1.3-19.9" class="fill" data-original-prefix="fill"/><path id="fill-head-rivet3" class="fill"  fill="#fff" d="M831.7 1111.7c-6.6 8-22.4 2.5-19.5-7 2.5-8.3 27.2-2.3 19.5 7" class="fill" data-original-prefix="fill"/><path id="fill-head-rivet2" class="fill"  fill="#fff" d="M920.7 1060.2c11.9-2.6 9.7 10.5 1.7 14.7-12.3 6.3-12.3-12.3-1.7-14.7" class="fill" data-original-prefix="fill"/><path id="fill-head-rivet1" class="fill"  fill="#fff" d="M960.7 952.2c9.7-2.6 14 18.4 3.7 19.9-10.8 1.6-10.8-18-3.7-19.9" class="fill" data-original-prefix="fill"/></g></g></svg>