<?xml version="1.0" encoding="UTF-8"?>
<?xml-stylesheet type="text/css" href="styles/collection.css"?>
<svg xmlns="http://www.w3.org/2000/svg" viewBox="0 0 2048 2048"><g id="01_background" data-trait="yellow"><path id="bg" d="M2048,0v2048H0V0h2048Z" style="fill: #ddb305;"/></g><g id="02_Jaw" data-trait="half-robo"><path id="fill-jaw" class="fill"  fill="#fff" d="m1382.8 1128.2 12.4 130.2 60.9 48.3-49.6 133.4c-1 1.4-2.4 1.1-3.9.9-13.9-1-32.8-8.5-47.4-10.7-1.8-.3-3.5-.4-5.2-.3 1.2 4.7-1.2 7.6-2.1 11.4-4.9 22.2-7.7 45-12.1 67.4l-57.2 29.3-1.4 1.6c-1.1 12 1.6 23.9.9 35.9-.3 5-1.3 14.9-2.3 19.7-.6 2.8-13.7 32.2-15 33.5s-16.1 8.9-16.7 8.3l-9.5-50-51 52c-7.7 5.7-20.7 9.3-27.5 15.5-14 12.7-24.7 36.5-41.4 47.6-5.5 3.6-58.7 25.2-65.4 26.6-2.4.5-46.7.7-49.3.2-6.2-1.1-59.9-22.7-65.6-26.3-14-8.8-29.1-36.3-42-48-6.7-6.1-19.9-9.6-27.5-15.4l-51-52-9.6 48.4c-.6.9-.9 1.7-2.2 1.5-.8 0-13.8-7.6-14.4-8.2-1.4-1.4-15.6-32.9-16-35.5l-.7-54.3-58.2-30.3-12.3-69.7c-16.4-1.1-33.5 3.9-49.5-1l-37.3-85.8c-.7-3.4 4-13 5.6-16.9 8-19 17.8-37.3 25.7-56.3 9.2-2.5 21.3 1.1 29.9-5.1 4-2.8-.2-18.8 0-23.9l-19-32.1-.3-2.2 27.6-63.5c1.4-9.9-3.2-21.4-1.1-31.1 1.3-6.2 9.7-21.7 13.2-27.9 54.6-98.4 184.4-157.8 290.2-180.8 48.2-10.5 90.3.5 136.5 15.4 98 31.8 198 94.6 250.7 185.3 3.2 5.5 3.8 13.3 10.7 14.8h-.7Z" class="fill" data-original-prefix="fill"/><path id="fill-jaw1" class="fill"  fill="#fff" d="M1265.7 1351.3c9.2 7.7-4.5 25.9-12.2 15.7s2.9-23.4 12.2-15.7" class="fill" data-name="fill-jaw" data-original-prefix="fill"/><path id="fill-jaw2" class="fill"  fill="#fff" d="M1314.6 1391.2c7.8-1.5 6.2 19.1-2.9 17.7-9.8-1.5-.6-17 2.9-17.7" class="fill" data-name="fill-jaw" data-original-prefix="fill"/><path id="outline-shading-jaw" class="outline"  fill="#000" d="M1377.3 1124.7c2.2 2.7 13.8 4 14.5 10l8.4 112.6c17.4 18.9 36.8 35.9 56.4 52.6l1.5 3.6-51 135.8c-1 1.6-3.7 1.7-5.4 1.6-14.4-.9-32.2-8.4-47.3-8.9-1.8 0-3.2-.2-4.4 1.3l-14.4 75.6-59.4 30.1c.4 11 2.6 23.6 2 34.5-.3 5.7-1.3 15.4-2.1 20.9-.5 3.1-13.4 31.4-15.4 33.6-3 3.2-11.6 6.2-15.5 9l-12-46.4-2.4-.6-46.1 47.9c-7.8 6.2-20 9.3-27.5 15.5-14.2 11.7-24.4 36.1-41.5 47.5-6.8 4.6-52.9 25.2-60.4 26.6-9.5 1.7-52.8 1.8-62.3.2-7.6-1.3-48.1-19.8-56.6-24.4-16.2-8.6-30.7-38.5-45.1-49.9-7.1-5.7-18.8-9.3-26.5-14.5l-48-49-8.5 47c-1.4 1.2-18.5-6.9-20.5-9-1.7-1.8-15-30.8-15.4-33.6-.7-4.4-.9-13-1.1-17.9-.5-12.2.6-24.4.5-36.6-18.8-11.7-39.4-20.3-58.6-31.4l-13.1-67.4-46.4.9-36.3-91.7-.2-2.3c6.7.3 9.7 6.8 15.7 10.8 19.1 12.8 34.2 19.3 57.7 16.1 20.6-2.8 26.4-11.2 48-1.7 16.1 7.1 19.4 16.7 31.2 25.8 13.2 10.2 17.5 3.6 25.9-7.1 6.9-8.8 25.8-41.6 27.4-51.6 1.7-10.7-3.8-11.2-13-10-8.6 1.1-48.4 15.1-51 14.6-1.7-.4-12.3-7.9-16.5-9.6-20.3-8.4-48.8-11.8-67.2-20.8-14.3-6.9-12.2-21.7-18-34.5l21.5-4.1c1.9.3 10.9 13 13.5 15.6 13.7 13.8 58.3 32.8 77.6 33.5 3.4 0 6-1 8.9-1.1h20.5l-34.7-16.8c-19.1-10.8-48.2-33.1-61.8-50.2-6.2-7.7-7.1-18.3-10.5-27.5-6-16.6-14.4-32-25-46 1.3-9 6.5-19.6 7.8-28.2 2.8-19.1 3.8-27.8 12.1-45.9 49-107.6 188.2-173.2 298.2-196.8 27.9-6 50-5.8 77.9 0 118 24.3 244.7 92.5 307.8 198.2 1.9 3.1 5.2 12.6 6.5 14h-.4ZM1326 1307c15.3-11.2 31.9-21.8 44.5-36 6.1-22.7 14.6-45.7 13.5-69.6l-2.1-29.5c-1.4.2-1.9 1.8-2.5 2.9-16.8 30.8-29.1 66.4-47 97l-62.3 38.7.4 3.3c5.9 15.3 32.8 49 33.4 63.6.2 4.3-2.2 10.7-.7 15.7 1.1 3.6 11 9.8 15.2 9.4l62.4-18.5c8.3 1.2 16.7.9 25.1.6l36.7-78.8.3-3.3c-14.1-10.8-29-21.4-44.3-30.7l-2.8 11.8c-13.3 5.6-27.2 16.2-40.4 21.1-6.7 2.5-16.4 2.8-23.8 3.2-1.2 0-5.6.7-5.5-1Zm-248 20c-5.1-10.6-9.9-23.3-16.6-32.9-6.5-9.4-23.8-30.4-31.9-38.1-4.2-4-7-3.9-11.1 0-7.7 7.4-27 30.2-32.9 39.1s-10.5 22.1-15.6 31.9zm200.7 70.7c1.4-1.6 8.8-25.5 9.1-28.5.4-4.4-3.5-11.7-5.6-15.9-3.8-7.3-18.5-32.7-23.6-37.4-5.7-5.3-8-1-14 1.1-11.8 4-23.6 7.8-35.5 11.5-1.3 1.1-1.1 1 0 2 3 2.6 6.7 4.5 9.4 7.6 6.8 8.1 12.2 22 18.6 30.9l3.1-12.4c.8-3.8 7.7-7.4 10.8-5.4 1.2.8 3.6 11.4 7.9 12.7 6.1 1.8 8.2-5 11-5.7 4.2-1 10.3 3.7 10.1 8.1-.5 11.3-14.6 20.3-25.1 18.6-1.1-.2-10.1-4.8-8.7-1.3 3.1 2.8 14.4 21.8 16.7 22.4 2 .5 14.5-6.5 16-8.2h-.2Zm-550.4 99c1.6 2 8.2 6.3 10.7 7.8 14.8 8.8 31.7 13.8 46.9 23.1 16.8 10.2 40.2 33.1 59.6 33.5 2.3 0 8.7-1.2 9.4-3.7.8-2.7-13.5-27.5-16.4-30.3-7.3-7.2-27.5-17.2-37.2-23.8-15.2-10.3-50.3-39.1-67.9-39.2-10.5 0-8.7 28.1-5.1 32.7Zm591.4-30.4c-6.1-6-24 4-30.4 7.6-16.3 9.1-30.8 21.3-46.2 31.8-9.3 6.4-25.4 13.9-33.1 20.9-3.1 2.8-16.2 24.5-16.9 28.2-1.1 5.3 6.2 6.5 10.3 6.3 16.8-1 25.6-11.2 38.2-19.8 8.3-5.7 17.3-12.1 26-17 11.7-6.6 47.1-19.2 52.7-29.3 2.4-4.3 2.8-25.2-.7-28.6ZM1126 1664c-12-2.7-20.7 6.6-31.6 7.9-5.7.7-12.2-1.2-16.6-.7-7.1.8-22.9 12.1-31.2 14.9-14.8 4.9-30.2 4.7-45.1 0-8.8-2.8-23.9-14.1-31.2-14.9-4.4-.5-10.9 1.4-16.6.7-11-1.3-19.9-11-31.6-7.4 0 7 23.7 23.4 30 27 12.5 7.1 59.7 26.8 72.5 26.6s59.8-19.7 72.2-26.9c3-1.8 33.6-23.3 29.3-27.2z" class="shading" data-original-prefix="shading" opacity=".2"/><path id="outline-jaw" class="outline"  fill="#000" d="M1378 1122c.3-3.9.6-9.1 5.7-9.8 7.8-1.2 8.7 12 9.3 17.3 3.8 33.8 2.1 69.1 8.3 102.7 2.2 11.9 3.2 13.8 12.3 21.7 14.8 13 33.2 22.8 47.5 36.5 2.6 2.5 11.8 12.2 12 15.1l-66.1 156.3-46.9-24.9c-1.8 6.1-5.4 12.6-6.7 18.8-4.1 19.2 0 41.1-2.2 59.8-.4 3.4-10.5 17.5-13.3 18.7-6.4 3-16.2-1.8-24.7 3.3-23.8 14.4-17.9 48.6-27.2 68.8-7.8 17-37 48.2-52.9 58.1-1.6 1-2.9 1.9-4.9 1.6 1.1-14.8 3.1-34.9-3.9-48.6-.4-.8-.4-3.2-2.1-1.4-.7.7-3.6 13.8-6.6 17.9-5.8 7.9-20.7 8.9-29.4 12.6-16.7 7-14.3 32.7-27.7 43.3-19.3 15.2-61.2 32-85.1 38.9-10.8 3.1-38.9 11.3-48.7 11.3-15 0-63.4-15.1-78.8-21.2-11.1-4.4-55.3-26-60.6-34.4-6.9-11.1-8.5-31.6-21.5-37.6-14.5-6.6-26.4-2.4-33.9-20.1-1.1-2.5-2.5-10.3-2.8-10.7-1.3-1.6-1.8.4-2.2 1.3-6.9 12.5-5 34.9-3.8 48.7-2 .3-3.3-.6-4.9-1.6-15.7-9.8-48.9-44.4-54.2-61.8-6.2-20.6-5.3-52.1-25.9-65.1-8.2-5.2-18.3-.3-24.7-3.3-.9-.4-12.2-14.2-12.7-15.3-2.1-5.2-.2-29.6-.5-37.4-.4-9.1-2-18.5-3-27.5-4 1.6-7.6 4.7-11.9 5.6-2.8.6-5.6.7-8.5.3-4.7-.6-27.4-9.9-32.6-12.4-1.3-.7-2.7-1.2-3.5-2.5-2-33.7-22.2-63.7-44-88-2-4.4 2.1-14.5 3.7-19.2 6.2-17.8 15.6-36.4 25.7-52.3 3.2-5.1 14.2-22 17.9-25.1 5.5-4.4 9.8 3.3 14.6 6.6 1.6 1.1 12.7 7.8 13.5 7-2.9-7.2-9.4-11-13.8-17.7-4-6-15.9-26.4-15.8-32.6s5.4-17.7 6.5-25.3c.5-3 1.1-8.8 1.2-11.8.2-6.5-3-17.5 1.3-22.2 1.2-1.4 12.8-6.5 14.1-6.2.9.2 5 11.2 10.5 7.8 2.3-1.4 1-34.7 0-39.9.3-.3 7.6 1.8 8 2 1.8 1.1 7 8.1 9.8 9.7.5 8.4 3.4 20.7 1.1 28.7-2.8 10.1-17.5 14.8-21.2 22.8-1.2 2.6-6.4 25.9-6.7 29.3 0 1.2-.2 2.4.2 3.7 4.8 10.3 13.7 19.4 18.7 29.3s9 33.8 15.5 40c5.3 5.1 14.5 7.1 21 10.5 7.5 4.1 15.7 10.7 22.7 15.8-11.3-1.3-47.2-5.2-54.5-13-3.3-3.6-5.7-15.7-9.6-17.4-2.6-1.2-6.2-.2-9.2-.8-7-1.2-10.7-7.9-18.5-1.5-6.6 12.5-14.3 24.3-20.4 37.1-7.4 15.4-14.8 25.1-4.8 41.2 5.3 8.6 23.3 26.7 25.6 34.4 2.5 8.6-2.7 28 2.9 34.1 6 6.6 20.6 4.5 27.8.8 10.6-5.4 8.7-9.9 14.3-18.7 5.2-8.2 19.7-23.1 28.9-26.2s13.4 8.6 15.6 15.5c7.3 23.8-.2 34 22.5 51.5 11.6 8.9 33.3 20.1 47.8 17.9 8.5-1.2 21.1-6.6 27.2-12.8 7.2-7.5 8.8-24.6 24-14 15.8 11 30.3 30.1 46.6 41.4 20.5 14.3 77.5 32.5 102.5 34.6 37 3 105.5-17.1 134.5-40.5 11.5-9.3 21.6-20.6 33-30 4-3.3 11.6-11.3 17-8 .7.5 7.5 12.5 9.2 14.8 3.3 4.7 11.5 16.1 17.4 16.7 7.4.8 31.3-15.5 40.2-17.2 8.1-21.2 17.3-42.1 23.5-64 2.8-9.9 8.4-24.8 3.8-34.3-2.1-4.2-21.3-33.6-24-36-3-2.7-9.6-5-13.5-6.5-3.3-1.2-19.8-5.2-20.5-6-1.5-1.4.4-1.7 1.3-2.2 1.3-.7 11.6-5.7 12.3-5.8 2.6-.4 25.4 6.8 27.4 8.5s8.6 15.3 11 19c5 7.6 19.5 25.4 20.8 33.2.4 2.5.5 4.9-.2 7.3l-26.5 74.9c22.1-8.1 42.1-21.6 63.6-30.8 4.1-1.8 12.4-6.1 16.3-4.6 4.7 1.7 16.6 11.3 22.4 14.6 2.4 1.4 18.7 10.5 19.7 9.8l48.1-125.5c-.2-2.1-12.6-9.7-15.4-11.7-13.3-9.9-23-17.3-37.4-25.6-7.1-4.1-7.5-7.8-8.3-15.7-2.2-22.8-2.4-46.1-4-69-1.5-20.8-6.3-45.1-5-65.5h-.7Zm-649 280c-5.9.4-11.3 6.2-14.4 11.1-12.8 20.4-.6 26.3 1.3 45.5 1.3 13.2-3.2 33.5 4.7 44.3 5.3 7.3 21.6 10.7 30.1 14.9 3.6 1.8 23 13.2 24.8 15.2.4.4 3.3 5.3 3.3 5.6 0 .8-3.5 12.2-3.8 15.8-1.9 24 4.5 52.9 21 71l5 4.5c.9-4.6-1.1-9.2-1.1-13.5 0-12.5 8.2-24.3 10.1-36.5 23.5 5.4 36.4 28.6 51.4 45 11.3 12.4 23.8 14.5 34.1 23.9 6.5 5.9 11.9 15.9 17.5 22.5 14.6 17.4 20.2 23.3 41.3 32.7 29 13 50.6 21 83.2 18.9 16.8-1.1 61.8-19.2 76.4-28.6 16-10.4 26.2-34.2 40.1-45.9 10.6-9 21.7-10.9 32.5-22.5 15.6-16.6 28.5-40.5 52.5-46 .8 9.9 6.9 18.2 8.7 27.8 1.5 7.6.3 13.6.3 21.2 7.8-5.3 15.2-16.8 18.8-25.6 5.4-12.9 8.1-33.2 7.2-46.9-.2-3.4-3.8-17.5-3.5-18.4.6-1.7 3.6-5.7 5.2-6.9 4.5-3.4 17.3-10.6 22.7-13.3 11.7-5.9 31.5-8 33.6-23.4s-.7-31.7 3.8-48.2c1-3.6 5.3-8-1.4-5.4-30.7 11.8-63.4 35.5-93.6 46.4-10.1 3.6-23.8 2.7-32.8 7.2-6.8 3.5-11.5 12.3-16.4 17.6-16.2 17.4-41.8 25.6-65 28-69.4 7-135.6 6.9-205 0-21.7-2.1-46-9.9-62.5-24.5-5.9-5.2-10.7-15.4-19.3-15.2-3.9 0-8.2 3.3-11.2 3.7-5.5.6-22.8-12.9-28.7-16.2-15-8.4-31.4-14.8-46-24-2.8-1.8-16.7-11.4-17.8-13.2-2.8-4.9.2-12 0-17.1 0-10.4-4.3-21.6-7.1-31.5" class="outline" data-original-prefix="outline"/><path id="outline-jaw1" class="outline"  fill="#000" d="M1253.7 1342.2c12.9-2.4 29.1 10.8 24 24-3.6 9.3-14.2 17-24.2 12.8-15.8-6.5-17-33.6.3-36.8zm12 9.1c-9.3-7.8-20.1 5.1-12.2 15.7s21.4-8 12.2-15.7" class="outline" data-name="outline-jaw" data-original-prefix="outline"/><path id="outline-jaw2" class="outline"  fill="#000" d="M1313.7 1382.2c20.2-4.4 22.1 39.9-4.2 35.7-17.9-2.8-9.8-32.7 4.2-35.7m.9 9c-3.6.7-12.7 16.2-2.9 17.7 9.1 1.4 10.8-19.2 2.9-17.7" class="outline" data-name="outline-jaw" data-original-prefix="outline"/></g><g id="03_Mouth" data-trait="scrappy"><path id="fill-muzzle" class="fill"  fill="#fff" d="M1038 1292s-.4 1.7.7 2c10.3 2.8 18 4.3 25.8 13 1.9 2.2 4.9 8.8 6.5 9.5 2.6 1.2 6.6 0 9.5.5 11.4 1.5 21.2 3.7 31.2 9.8 2.1 1.3 9.2 7.8 10.2 7.1.3-.3 0-1.7 0-1.9 2.4-1.8 32.7.6 38 1 5.2 4.2 13.2 5.5 19.2 8.3 13.7 6.4 22.5 16.1 29.9 29.1 8.4 14.6 7.7 17.8 3.1 33.4-2.5 8.5-4.8 21.8-16.3 20.2 1.5-15.5-14.8-32.4-26.5-41-3.2-2.4-11.3-7.2-6 0 10.8 14.7 20.2 14.8 21.5 37.5.6 10.3-8.4 32.9-15.4 40.5-.6.7-7.1 6.3-7.6 6.5-3 1.6-6.9-6.1-7.8-8.2-3.6-7.8-4.7-15.5-9.7-23.3-1.1-1.7-10.8-13.7-12.4-12.1 5.6 13 9 46.2-2.5 56-4.4 3.7-9.4 1.9-13.3 3.7-2.8 1.3-3 5.7-4.8 6.1s-7-3.1-9.4-3.5c-8.9-1.3-13.2 17-18.7 17.5-2.5.2-10.7-11.9-18.4-9.4-7 2.2-15.4 21.2-24.4 23.6-6.3-6-3.4-14-5.8-21.2-1.2-3.5-4.2-6.7-5.8-10.2-5.4-12.7-2.8-19.9-.2-32.2.6-3 0-5.9.9-9.1.2-.7 6.3-12.3 6.9-13.1 3.7-5.4 19.2-12.4 22.7-3.8.9 2.2 0 8.7 2.2 7.7 5.1-4.9 10.2-9.9 15.5-14.5 11.5-10 14.1-9.7 21.2-24.8 1.5-3.3 6.5-14.5 6.6-17.3 0-3.4-9.2-14.7-11.8-17.8-1.4-1.7-9.5-11.5-10.2-11.8-6.4-3.2-28-2.3-34.7.8-7.9 3.6-12.5 12-19 17-1 .8-1.3 1.9-3 1.5l.8-12.7c3.6-4.3 21.7-23.3 21.1-27.5-.4-2.6-11.3-13.4-12.9-11.7 4.4 12.8.7 8.7-7.3 12.2-1.2.5-2.9 2.7-3.2 2.7s-2-2.2-3.2-2.7c-3.4-1.5-9.7-.4-9.3-5.6 0-1.1 4.1-7.6.5-6.6-2.8.8-12 9.9-11.3 13.2 0 .6 4 7 4.8 8 1.5 2 5 5.9 7 8.3 3.2 3.9 9.7 7.6 9.9 13.1 0 1.6-.8 3.1-.8 4.8s2.6 8.1-2.5 3.6c-6.2-5.3-10.2-13.6-18.5-17.5-6.5-3-30.3-4.3-35.7-.2-.8.6-8.8 10.5-10.2 12.2-2.4 3-10.9 13.7-10.8 16.8.2 5.4 11.7 29 15.7 33.2 3 3.2 9.3 6.8 13 9.9 5 4.3 9.7 9.1 14.5 13.5l4.2-11.1c4.9-3.1 17.7 2.6 20.8 7.1 1 1.5 5.1 9.9 6 11.9 2.8 6.4 5.1 25.4 4.4 32.4-1.1 10-7.9 15-9.4 22.6-1.3 6.4 1.1 14.9-5.8 18.9-8.1-2.6-17.3-21.5-23.6-23.5-8.2-2.6-15.9 9.6-18.4 9.4-5.3-.4-8.7-14-13.9-16.1-6.9-2.8-11.5 2.7-14.1 2.1-1.8-.4-2-4.8-4.8-6.1-4.5-2-9.6.3-14.3-4.7-10.9-11.5-6.5-42.2-1.5-56.1-9.1 6.7-14.1 14.8-18.5 25-1.6 3.6-2 7.5-3.7 11.3-1 2.1-4.9 9.8-7.8 8.2-.4-.2-6.9-5.9-7.5-6.5-3.9-4.3-13.8-24.4-15-30-2.8-12.9 1.4-26.5 9.5-36.5 4.1-5.1 11.3-9 13-15.5-2.4-2.4-22.3 17.4-24.4 20.1-5.4 6.8-11 15.9-9.6 24.9-8.3.5-10.7-3.3-13.3-10.2-2.7-7.1-7.8-22.8-6.2-29.8 3.7-16.2 21.4-35.8 36.3-42.7 6.2-2.9 13.9-4.1 19.2-8.3 12.5-.8 24.5-2.3 37-1 0 0 .7 2.1.5 3 9.5-8.2 20.6-14.8 33.1-16.9 4.7-.8 14.8-.4 18.1-1.8 1.6-.7 5.2-7.7 7.2-9.9 8-8.4 15.2-9.7 25.4-12.5 1.1-.3.6-1.9.7-2 1.1-.7 25.9-.7 27 0v.2Z" class="fill" data-original-prefix="fill"/><path id="fill-teeth14" class="fill"  fill="#fff" d="M1039.1 1601.9c-.8-.5-7.2-15.4-7.9-17.6-4.2-13.6-7-37.9-1.5-51.1 5.8-13.9 10.8-1 20-5 1.9-.8 7.6-6.8 9.2-8.8 2.6-3 3.6-9.1 8-8 12.8 3.1 21.1 24.2 22 36.1 2.3 30.4-23.4 40.7-45.2 53.7-1.2.5-3.6 1.3-4.6.6Z" class="fill" data-original-prefix="fill"/><path id="fill-teeth13" class="fill"  fill="#fff" d="M1015.7 1527.3c10.2 8.9 6 44.1 2.3 56.2-1.9 6.4-6 12-8.1 18.3h-2.3c-12.1-7.1-26.3-12.4-36.1-22.9-9.1-9.8-12.3-17.9-11.5-31.5.8-11.8 9-32.3 21.2-35.9 4.8-1.4 5.7 4.5 8.2 7.4 1.8 2.1 8.3 8.8 10.5 9.5 6 1.9 12.5-4.1 15.8-1.3z" class="fill" data-original-prefix="fill"/><path id="fill-teeth12" class="fill"  fill="#fff" d="M904 1461c0 2.2-1.1 3.8-.8 6.2s7.4 22.5 8.8 24c3.7 4.1 11.1 2.3 15.9 2.9 4.9 13.5-4.3 23.9-8.6 35.6-2 5.3-8.4 33.1-12.8 34.3-3.3.8-11.7-18-12.8-21.2-6.8-20.9-8.8-51.8 1.8-71.7.6-1.2 7.1-11.6 8.4-10.1Z" class="fill" data-original-prefix="fill"/><path id="fill-teeth11" class="fill"  fill="#fff" d="M1144 1564c-1 .7-1.8-.4-2.4-1.1-5.8-5.8-8.7-24.8-11.8-33.2-4.3-11.7-13.8-21.9-8.6-35.6 18.6 2.9 18.2-8.8 23.1-22.4l2.2-9.8c10.2 11.1 15.2 27.6 14.6 42.5-.5 13.7-3.2 35.3-9.5 47.5-.8 1.5-6.9 11.6-7.5 12Z" class="fill" data-original-prefix="fill"/><path id="fill-teeth10" class="fill"  fill="#fff" d="M949 1569c5.5 22.1 11.4 45.4 9 68.5-.5 5-1.3 9.2-7 6.9-3.4-1.3-17.5-13.4-19.5-16.5-7.4-11.8.3-39.7 8-50.8 1.2-1.7 7-10.1 9.4-8.1Z" class="fill" data-original-prefix="fill"/><path id="fill-teeth9" class="fill"  fill="#fff" d="M1100 1569c3.4-2.9 13.3 14.1 14.5 17 4.8 11.7 9.3 33.5 1 44-2.1 2.7-18.5 16.5-20.9 15.9-1.9-.4-3.4-6.5-3.6-8.4-1-8.7 0-26 1-35 1.1-10.9 6.5-22.5 8-33.5" class="fill" data-original-prefix="fill"/><path id="fill-teeth8" class="fill"  fill="#fff" d="M1167 1547c.9-6.7-1-15-.6-21.3.3-6.3 3.7-14.6 3.6-21.2 0-5.7-4.8-19.5-4-24 .5-2.9 3.5-2.8 5.5-4.5 6.2-5.3 10.4-15.8 16.9-4.9 14.2 23.5-1 56.5-18.4 74.4-.9 1-1.3 1.9-3 1.5" class="fill" data-original-prefix="fill"/><path id="fill-teeth7" class="fill"  fill="#fff" d="M881.7 1478.3c3.3 2.9-2.8 21-2.8 26.2s2.6 12.6 3.1 18c.7 8 0 16.5-.5 24.5-1.8 0-11.7-13.3-13.3-15.7-11.2-16.8-20.3-43.7-7-61.7 6.2-8.4 9.7.9 14 4.7 2 1.9 5.7 3 6.6 3.9Z" class="fill" data-original-prefix="fill"/><path id="fill-teeth6" class="fill"  fill="#fff" d="M1018 1613v16.5c0 .9-10.8 13.2-11.9 14.1-6.3 4.8-8-2.6-10.6-5.5-5.5-6-17.9-.4-24.4-5.6-.9-.7-4.1-8.3-4.1-8.9v-24.5c12.3 3 28.7 18.5 41.4 16.9 3.5-.4 6.1-3 9.6-2.9Z" class="fill" data-original-prefix="fill"/><path id="fill-teeth5" class="fill"  fill="#fff" d="M1102.5 1494c3.3-.8 5.3 8.5 6.3 10.7 5 10.5 15.3 30.3 11.4 42.1-2.2 6.7-15.6 23.4-20.4 11-4-10.4-4.1-44.7-1.1-55.5.4-1.6 2.4-7.9 3.8-8.2Z" class="fill" data-original-prefix="fill"/><path id="fill-teeth4" class="fill"  fill="#fff" d="M917 1563c-1.6 13.5 2.8 27.4 2 40.5-.5 8.8-4.2 18.6-5.5 27.5-5.8-5.6-10.5-15.7-11.4-23.6-.6-5.2.7-25.8 2.4-30.3.6-1.6 10.5-16.2 12.4-14.1Z" class="fill" data-original-prefix="fill"/><path id="fill-teeth3" class="fill"  fill="#fff" d="M1135 1631c-.4-8.9-4.4-17.8-5.1-26.5-1-13.6 3.6-27.7 2-41.5 2.2-2.4 11.9 13 12.5 15 2 6.8 2.7 27.3 1.2 34.3-1.3 6.3-5.5 14.8-10.8 18.7z" class="fill" data-original-prefix="fill"/><path id="fill-teeth2" class="fill"  fill="#fff" d="M1154.1 1604.9c-3.4-2-5.1-22.3-3.9-26.2.8-2.6 8.9-5.2 10.2-8.8l5.1-10.9c3.8 3.4 5.1 7.2 4.3 12.2-.7 4.5-5.2 22.3-6.9 26.2-.9 2.2-6.1 9-8.8 7.5" class="fill" data-original-prefix="fill"/><path id="fill-teeth1" class="fill"  fill="#fff" d="M885 1559c.4.4.7 7.1 3 10.5 2.7 3.9 10.5 6.9 11 10-.8 4.7-.7 23-4 25.4-2.5 1.8-7.7-4.5-8.7-6.7-1.6-3.6-6.3-22.5-7-27-.6-3.9 2.5-15.6 5.8-12.3Z" class="fill" data-original-prefix="fill"/><path id="outline-shading-mouth2" class="outline"  fill="#000" d="M918 1443.5c.8 5.3 5.6 13.8 10.1 16.9 11.5 8.3 16.2-.3 22.4-9.4 2.5 5.4 3.4 11.5 6 17 1.4 2.8 5.7 12 7.5 5.5l4-11.5c1.6 7.5 6.3 15.4 11.5 21 4.3 4.7 18.8 15.4 24.6 9.6 2-2.1 8.3-17.9 10.8-22.2 1.2-2.2 7.8-13.8 9.7-13.3 1 .2 8.5 13.2 9.7 15.3 2.4 4.5 7.3 17.7 9.8 20.2 3.8 3.8 10.5.4 14.4-1.8 10.5-5.9 18.5-17.2 21.7-28.8l4.2 12.3c.3 1.2 1.9 2.4 2.8 1.7.6-.4 5.8-11.3 6.5-13 .8-2 2.8-12 4-12 6.8 10.7 12.9 18.4 24.5 7.5 8.6-8 9.3-23.8 7-34.5 3.5-3.1 21.1 16.1 26.6 16.9 9.1 1.4 17.6-11.8 19-19.9 3.5-20.5-12.9-39.2-30.9-46.2l-12.7-4.8c15.4 0 28.2 2.9 41.1 11.4 4.8 3.1 12.2 10.9 17.6 11.4 6.2.6 10.1-4.1 10-10-.4-19.3-25.8-38.1-39.7-48.8 15.4 2.4 34.6 11.8 45 23.5 7.8 8.8 19.1 25.1 19.1 37s-6.4 28.5-9.2 32.8c-3.3 5.3-11.7 5.4-13.4 10.6-.9 8.1-2.1 16.4-2.5 24.5-1.5 29 1.4 45.2-10.8 73.2-3.6 8.2-12.7 20.4-14.9 27.1-4.2 12.8-.7 26.4-9.1 38.9-3.2 4.8-8.4 6.7-11.2 10.8-1.7 2.5-2.4 6.1-4.2 8.8-4.5 6.7-14.6 23-21.6 8.9-1.6-3.3-1.3-12.9-6.7-6.2-1.4 1.7-1.9 4.4-3.5 6.5-3.7 4.7-17.7 19.6-23.5 19.5-2.2 0-4.5-4.1-6.6-5.4-7.9-5-21.1-6.3-29.2-1.4-7.3 4.4-9.5 13.6-18.1 6.8s-6.4-10.8-20.1-9c-5.6.7-11.4 12.6-16.9 12.1-2.8-.2-11.4-11.1-18.5-12.6-6.3-1.3-17.5.7-23 4.2-2.6 1.7-4.1 5.6-7.5 5.4-5.7-.3-19.8-15.8-23.6-20.5-1.2-1.5-4.4-10.6-7.1-6.9-2.5 3.4-.6 9.9-7.2 12.7-7 3-14.9-11.2-18.1-16.4-1.2-1.8-1.2-4.3-2.6-6.4-2-3-6.8-5.4-9.5-8.5-10.4-11.9-6.7-27.7-10.7-41.3-.8-2.6-5.6-8.5-7.3-11.7-18.4-35.7-16.4-45.6-18.4-84.6-.4-7.7-.6-20.7-2.2-27.8-1.5-6.2-11.1-6.1-14.2-11.8-3.4-6.1-9.3-29.6-8.6-36.4 1.2-10.3 16.2-31.2 24-38 10.5-9.2 26.2-16.5 40-18.5l-21.5 17c-7.2 6.4-26.8 32-14.8 39.9 9 5.9 16.7-4.5 23.7-9.1 12.7-8.4 25.3-11.8 40.7-11.8l-17.3 7.2c-18 9.4-33.1 32.7-22.1 52.8 1.7 3.1 8.6 10.4 12 11.1 9.1 1.7 20.7-15.4 29.5-18 .6 6.4-.9 14.3 0 20.5zm-37.1 40.6c-12.3-.5-17.1-20.2-22.8 1.5-3.4 13 1.2 26.4 9.4 36.5 1.5 1.8 12.7 13.1 13.9 12.9.8 0 2.5-2.3 2.8-3.2 2.9-7.1-3.2-12.2-4.2-19.2-1.5-9.8 0-18.7.9-28.4Zm301.8-8.9c-3.2.8-6.3 6-8.8 7.3-2.1 1.1-7.2 1-7.8 3.2-.5 1.7 3 10.8 2.9 14.8 0 3-1.5 13.9-2.2 16.8-.9 3.6-3.9 5.7-3.9 10.2s1.4 7.1 3.7 7.4c1.9.3 15-14.4 16.8-17 5.7-8.5 9-18.8 7.3-29.2-.5-3-4.4-14.5-8-13.6Zm-284.8 10c-4-2.3-6.5 9.9-6.8 12.5-1.2 10.5 3 38 8.7 47.1 1.9 3 5.4 6.9 9.2 7.3 3.7-15.6 12.6-29.2 21-42.5-2.3-.4-1.7-2.9-2.7-3.5-1.5-.9-7-1.9-9.7-3.1-4.7-2.2-12-7.7-15.6-11.4-1.2-1.2-3.8-6.2-4.2-6.3ZM1139 1552c8.3-2 11.9-12.2 13.9-19.6 3.1-12.1 6.1-33.4 1.1-44.8-3-6.9-5.8 1.7-8.3 4.1-3.9 3.8-11 9.3-16 11.6-2.5 1.1-7.8 1.8-9.1 2.7-.7.5-.5 1.8-1 2.7-.3.4-1.7.4-1.6.9 0 1 7.9 12.3 9.2 14.8 4.8 8.8 9.1 18 11.8 27.7Zm-197.7 5.7c8.1 8.1 9.5 0 10.5-7.3.8-5.6 2.7-20.6 1.7-25.4-3.6-17.2-21.3-15.9-21.6 3.6 0 6.8 4.6 24.3 9.4 29.2Zm161.5-44.5c-5 1.3-8.5 9.3-8.8 14.2-.2 4 2.4 28.5 3.8 31.3 2.5 5 7.5 0 9.8-2.7 6.8-8.3 11.6-30.7 4.5-39.5-2.7-3.3-4.8-4.4-9.2-3.3zM1023 1544c-.7-.7-.8-7-5.1-9.4-8.9-5-21.8-.8-32-4-10.4-3.3-9.4-13.1-16.1 1.8-2.9 6.4-9.1 24.4-6.3 30.7 1.1 2.4 17.8 15.6 21.2 17.8s18.2 11.7 21.1 10c3.1-5.6 9.3-9.5 12.6-14.9 1.8-2.8 4.1-11.5 4.6-11.9 1.6-1.7 1.7.5 2.1 1.4 1.6 3.6 2.1 6.8 4.5 10.5 3.3 5.2 9.2 9.3 12.4 14.6 3.1 1.9 15.5-5.9 18.9-8.1 4.5-2.9 22.9-17 23.9-21.1 2.2-9.7-6.6-28.3-10.9-37.2-4.9 1-7.8 5.2-12.7 6.7-9.2 2.8-28.2-1.6-33.7 6.3-.9 1.2-2.6 8.9-4.5 7zm-136 18c-.7-.6-3.5 0-4.5.9-6 6.2 2.4 31.6 14.6 27.6 4-1.3 3.8-9.4 2.8-12.9-1.1-3.9-7.2-4.1-9.8-7.2-2.1-2.5-2.7-8.2-3-8.5Zm274.1 0c-.3.3-.9 6-3 8.5-2.6 3.1-8.7 3.3-9.8 7.2-1 3.4-1.2 11.6 2.8 12.9 13.4 4.4 20.2-24.5 14.1-28.1-.9-.5-3.5-.9-4-.4Zm-216.4 7.2c-1.5.4-5.1 4.6-6 6.1-3.4 5.6-5.6 32.3-4.8 39.3 1.3 10.9 15.2 18 19.5 3.5 1.7-5.6 2.6-21.4 2.5-27.6 0-1.1-5.8-19.7-6.5-20.5-1.2-1.4-3.2-1.3-4.8-.8Zm153.3-.1c.2 6.6-5.4 14.7-6 20.6-.5 4.5 1 25.3 2.4 29.4 4.2 12.1 16.9 7.3 19.1-2.9 1.1-5.2 0-16.8-.6-22.6-1-9.7-1.7-25.5-14.9-24.5m-180 1.9c-20.5 3.8-17 28.7-9 43 4 2.9 10.4-17 10.7-19.8.9-7.5-2.9-15.5-1.8-23.2Zm218 43c2.5 1.8 7.2-9.1 7.7-10.8 3.9-12.8 1.6-30.1-13.7-32.2.5 7.4-2.8 16.2-1.9 23.4.3 2.7 6.4 18.5 7.9 19.6m-148.2 10.2c1.4.8 4.8 8.6 9.5 11 11.1 5.8 20.2-6.4 20.7-16.7.8-13.7-7.2-7.7-16.5-8.6-8.4-.8-15-4.8-21.8-9.2-5.5-3.5-13.6-14.6-14.7-1.4-.5 5.1 1.4 7.5 1.8 11.2s-2 5.9.5 10.7c4.8 9.3 18 1.3 20.7 2.8zm93.1-31.1c-2.1-1.5-19.7 12.7-23.9 14.4-2.3 1-7.9 2.3-10.5 2.5-10.5.9-18.8-5.4-16.4 11.4 1 7.3 7.9 15.8 16 15.1 9.4-.8 11.9-11.6 14.6-12.4 4-1.3 12.3 5.7 18.9-1.1 4.3-4.4 1.3-8.4 1.5-12.5 0-2.3 1.9-4.8 2-8.1 0-1.9-.8-8.5-2.2-9.4Z" class="shading" data-original-prefix="shading" opacity=".2"/><path id="outline-shading-mouth1" class="outline"  fill="#000" d="M1041 1343c6.1.5 12.7-1 17.5-5 1.5-1.3.9-3.7 2.8-2.9 10.1 7.9 37.9 17.4 43.8 28.2 3.6 6.5 4.6 17.5-1.8 22.6-5.6 4.5-20.8 10.8-28 15-4.9 2.8-9.7 6.6-14.7 9.3-7.4 4.1-25.5 14.5-32.6 16.4-2.9.8-5.2.8-8.1 0-14.5-3.8-42.2-22.5-56.3-30.7-6.2-3.6-21.2-9.1-23.2-15.8-5.5-18.4 15.7-28.3 28.7-35.4 2.3-1.2 15.5-8.6 16.5-8.7 2.9-.3 4.2 2.9 6.7 4.2 4.2 2.3 10 3.2 14.7 2.8-.3-5.1-3.3-11.3-1.8-16.3.5-1.6 12.5-13.9 14.5-14.4 3.9-1 8.2-.3 11.6 1.9 1 .7 10.8 11.1 11.2 11.8 2.1 5-1.2 11.8-1.5 17" class="shading" data-original-prefix="shading" opacity=".2"/><path id="outline-mouth3" class="outline"  fill="#000" d="M889 1333c-5.3 4.2-13 5.4-19.2 8.3-14.9 6.9-32.6 26.5-36.3 42.7-1.6 7 3.5 22.7 6.2 29.8 2.6 6.9 5 10.8 13.3 10.2-1.4-9 4.2-18.1 9.6-24.9 2.1-2.6 22-22.5 24.4-20.1-1.7 6.5-8.8 10.4-13 15.5-8.1 10-12.3 23.6-9.5 36.5 1.2 5.6 11.1 25.8 15 30 .6.7 7.1 6.3 7.5 6.5 3 1.5 6.9-6.1 7.8-8.2 1.7-3.8 2.1-7.7 3.7-11.3 4.4-10.2 9.4-18.4 18.5-25-5.1 13.9-9.5 44.6 1.5 56.1 4.8 5 9.9 2.7 14.3 4.7 2.8 1.3 3 5.7 4.8 6.1 2.6.6 7.2-4.9 14.1-2.1 5.2 2.1 8.6 15.6 13.9 16.1 2.5.2 10.2-12 18.4-9.4 6.3 2 15.5 20.8 23.6 23.5 6.9-4 4.5-12.6 5.8-18.9 1.5-7.6 8.3-12.6 9.4-22.6.8-7-1.6-26-4.4-32.4-.9-2.1-5-10.5-6-11.9-3.1-4.5-15.9-10.2-20.8-7.1l-4.2 11.1c-4.8-4.4-9.5-9.2-14.5-13.5-3.7-3.2-10-6.8-13-9.9-4-4.2-15.5-27.8-15.7-33.2 0-3.1 8.4-13.8 10.8-16.8 1.4-1.8 9.5-11.6 10.2-12.2 5.4-4.1 29.2-2.8 35.7.2 8.4 3.8 12.4 12.1 18.5 17.5 5.2 4.5 2.5-1.7 2.5-3.6s.9-3.2.8-4.8c-.2-5.4-6.7-9.2-9.9-13.1-2-2.4-5.5-6.3-7-8.3-.8-1-4.7-7.3-4.8-8-.7-3.3 8.6-12.4 11.3-13.2 3.6-1-.5 5.5-.5 6.6-.4 5.2 5.9 4.1 9.3 5.6 1.2.5 3 2.7 3.2 2.7s2-2.2 3.2-2.7c8-3.5 11.7.6 7.3-12.2 1.6-1.7 12.5 9.1 12.9 11.7.6 4.2-17.5 23.2-21.1 27.5l-.8 12.7c1.7.4 2-.7 3-1.5 6.5-5 11.1-13.4 19-17 6.8-3.1 28.3-4.1 34.7-.8.7.3 8.8 10.1 10.2 11.8 2.6 3.1 11.9 14.4 11.8 17.8 0 2.8-5 14.1-6.6 17.3-7.1 15.2-9.7 14.8-21.2 24.8-5.3 4.6-10.4 9.6-15.5 14.5-2.2.9-1.4-5.6-2.2-7.7-3.4-8.6-19-1.6-22.7 3.8-.6.8-6.7 12.4-6.9 13.1-1 3.2-.3 6.1-.9 9.1-2.6 12.3-5.2 19.6.2 32.2 1.5 3.5 4.6 6.8 5.8 10.2 2.5 7.2-.5 15.2 5.8 21.2 9-2.3 17.4-21.3 24.4-23.6 7.7-2.4 15.9 9.6 18.4 9.4 5.6-.5 9.8-18.8 18.7-17.5 2.3.3 7.6 3.9 9.4 3.5s2-4.8 4.8-6.1c3.9-1.8 8.9 0 13.3-3.7 11.5-9.9 8.1-43 2.5-56 1.6-1.7 11.3 10.4 12.4 12.1 5.1 7.8 6.1 15.5 9.7 23.3 1 2.1 4.8 9.8 7.8 8.2.4-.2 6.9-5.8 7.6-6.5 7-7.6 16-30.2 15.4-40.5-1.3-22.7-10.7-22.7-21.5-37.5-5.3-7.2 2.8-2.4 6 0 11.8 8.6 28 25.5 26.5 41 11.4 1.6 13.7-11.7 16.3-20.2 4.6-15.6 5.3-18.8-3.1-33.4-7.4-13-16.3-22.7-29.9-29.1-6-2.8-14.1-4.1-19.2-8.3 9.3.7 19.7 2.8 29.2 5.3 7.4 1.9 14.4 3.9 20.7 8.3 3.2 9.3 27.6 34.6 28 42 .2 3.7-8.2 22.5-10 27.9-2.5 7.2-2.6 16-10 21-1.9 1.3-8.4 2-9 3.2-4.1 7.9-1.4 38-1.9 48.8-1.1 21.6-7.6 43.1-20.5 60.5-.9 1.2-2.6 1.5-3.6 2.7-4.3 5.6-2.8 18.6-4.3 26.5-1.2 6-5 13.1-5.6 18.4-.4 3.5 1.3 7.7.8 9.7s-10.7 8.6-13.2 9.9c-2.2 1.2-5.7 1.5-6.5 2-.6.4-5.4 10.9-7.2 13.3-2.1 2.7-11.1 11.3-14 12.1-4.1 1.2-7.9-10.3-9.9-13s-2.3 2.3-3.6 4.3c-4.3 6.7-25.1 26.6-32.4 28.6-1.7.5-3.3.7-5 .5-.4-5.9 3.2-9.9-1.5-15.1-8.2-9-20.9-.3-24.3 8.8-1.8 4.9-1.6 20-8.6 18.1-4.6-1.3-20-25.6-23.2-30.8-5.7 8.9-12.2 19.9-19.5 27.4-11.2 11.7-9.9-11-13.8-18.2-3.8-7.1-14-12-21.1-6.7-6.7 5-2.9 9.6-3.1 16.4-3.5 3.5-24.3-13.8-27.5-17-1.3-1.3-10.5-12.2-11-13-.7-1.4-.2-6.3-2.6-3.3-2.1 2.7-6.2 14.3-10.2 13.3s-12-10.2-13.7-12.4c-2.1-2.7-6.6-12.8-7.2-13.2-.8-.5-3.8-.6-5.8-1.7-2.3-1.2-11.9-7.4-13-9-2.1-3.2.4-6.9 0-11-.7-6.8-5.9-15.3-6.8-24.2-.5-5 .6-10.7-.6-15.4-1-4-8-10-10.7-14.3-15.3-24.4-17.6-52.1-17.9-80.2 0-5.4 3-18.2 0-22.8-.8-1.2-7.8-1.9-10.4-3.8-7.2-5.3-6.2-13-8.6-20.4-1.9-6-10.7-24.3-9.8-28.7.5-2.7 4.3-7.5 6-10.1 7-10.8 15.7-20.6 22.5-31.5 5.9-4.3 13.2-6 20.1-7.9 9.7-2.6 19.8-4.7 29.2-5.3h.2Zm15 128c-1.4-1.5-7.8 8.9-8.4 10.1-10.6 19.9-8.6 50.8-1.8 71.7 1.1 3.3 9.4 22.1 12.8 21.2 4.4-1.1 10.8-28.9 12.8-34.3 4.3-11.7 13.6-22.1 8.6-35.6-4.8-.6-12.2 1.2-15.9-2.9-1.4-1.5-8.5-21.7-8.8-24s.8-4 .8-6.2Zm240 103c.6-.4 6.8-10.5 7.5-12 6.3-12.1 9-33.7 9.5-47.5.6-14.9-4.3-31.4-14.6-42.5l-2.2 9.8c-4.9 13.6-4.6 25.2-23.1 22.4-5.2 13.7 4.3 23.9 8.6 35.6 3.1 8.4 6 27.5 11.8 33.2.7.7 1.4 1.8 2.4 1.1Zm-262.3-85.7c-1-.9-4.6-2-6.6-3.9-4.2-3.9-7.8-13.1-14-4.7-13.3 17.9-4.1 44.9 7 61.7 1.6 2.4 11.5 15.7 13.3 15.7.5-8 1.2-16.5.5-24.5-.4-5.4-3.1-12.3-3.1-18s6-23.3 2.8-26.2ZM1167 1547c1.7.4 2-.5 3-1.5 17.4-17.9 32.6-50.9 18.4-74.4-6.5-10.8-10.8-.4-16.9 4.9-2 1.7-5 1.6-5.5 4.5-.8 4.5 4 18.3 4 24s-3.3 14.8-3.6 21.2c-.3 6.3 1.6 14.6.6 21.3m-64.5-53c-1.4.3-3.3 6.6-3.8 8.2-3 10.7-2.9 45.1 1.1 55.5 4.8 12.4 18.2-4.3 20.4-11 3.9-11.7-6.4-31.5-11.4-42.1-1-2.2-3-11.4-6.3-10.7Zm-86.8 33.3c-3.2-2.8-9.7 3.2-15.8 1.3-2.1-.7-8.7-7.5-10.5-9.5-2.6-2.9-3.4-8.8-8.2-7.4-12.2 3.5-20.5 24.1-21.2 35.9-.9 13.6 2.4 21.7 11.5 31.5 9.8 10.4 24 15.7 36.1 23h2.3c2.1-6.4 6.2-12 8.1-18.4 3.7-12.2 7.9-47.3-2.3-56.2zm23.4 74.6c1.1.7 3.4 0 4.6-.6 21.8-13.1 47.5-23.3 45.2-53.7-.9-11.9-9.2-33-22-36.1-4.4-1.1-5.5 5-8 8-1.7 1.9-7.3 7.9-9.2 8.8-9.2 4-14.3-9-20 5-5.4 13.2-2.6 37.5 1.5 51.1.7 2.2 7.1 17.1 7.9 17.6ZM885 1559c-3.2-3.3-6.4 8.4-5.8 12.3.7 4.5 5.4 23.4 7 27 1 2.2 6.2 8.5 8.7 6.7 3.4-2.4 3.2-20.7 4-25.4-.5-3.1-8.3-6.1-11-10-2.3-3.5-2.6-10.1-3-10.5Zm269.1 45.9c2.7 1.5 7.8-5.3 8.8-7.5 1.7-3.8 6.1-21.6 6.9-26.2.8-5-.5-8.8-4.3-12.2l-5.1 10.9c-1.4 3.6-9.4 6.1-10.2 8.8-1.2 3.9.5 24.2 3.9 26.2M917 1563c-1.9-2.2-11.8 12.5-12.4 14.1-1.7 4.6-3 25.2-2.4 30.3.9 7.9 5.6 18 11.4 23.6 1.4-8.8 5-18.6 5.5-27.5.8-13.1-3.7-27.1-2-40.5Zm218 68c5.3-3.9 9.4-12.4 10.8-18.7 1.5-7 .8-27.4-1.2-34.3-.6-1.9-10.4-17.4-12.5-15 1.5 13.8-3.1 28-2 41.5.7 8.7 4.6 17.6 5.1 26.5zm-186-62c-2.4-2-8.2 6.4-9.4 8.1-7.7 11.1-15.4 39-8 50.8 2 3.2 16 15.2 19.5 16.5 5.6 2.2 6.5-1.9 7-6.9 2.4-23.1-3.5-46.4-9-68.5Zm151 0c-1.5 11-6.9 22.6-8 33.5-.9 9-2 26.3-1 35 .2 1.9 1.7 8 3.6 8.4 2.4.6 18.8-13.3 20.9-15.9 8.3-10.5 3.8-32.3-1-44-1.2-2.9-11-19.9-14.5-17m-82 44c-3.5 0-6.1 2.5-9.6 2.9-12.7 1.6-29.1-13.9-41.4-16.9v24.5c0 .6 3.2 8.2 4.1 8.9 6.5 5.2 18.9-.4 24.4 5.6 2.6 2.9 4.3 10.3 10.6 5.5 1.1-.8 11.9-13.1 11.9-14.1v-16.5Z" class="outline" data-original-prefix="outline"/><path id="outline-mouth2" class="outline"  fill="#000" d="M1122 1332c-.2 0 .2 1.6 0 1.9-1 .8-8.1-5.8-10.2-7.1-10-6.1-19.8-8.3-31.2-9.8-2.9-.4-6.9.7-9.5-.5-1.5-.8-4.5-7.4-6.5-9.5-7.8-8.7-15.6-10.2-25.8-13-1.1-.3-.6-1.9-.7-2 3.1-3.8 16.2-9.3 20.8-9.8 7.9-.9 5.5 4.4 6.5 9.1 2.3 10.7 9.3 19.6 21.3 18.8 5.1-.3 5.6-4 7.9-4.1 1.4 0 6.6 2.9 8.2 3.8 9.4 5.2 15 12.5 19.3 22.2z" class="outline" data-original-prefix="outline"/><path id="outline-mouth1" class="outline"  fill="#000" d="M1011 1292s.4 1.7-.7 2c-10.2 2.8-17.4 4.1-25.4 12.5-2 2.1-5.6 9.2-7.2 9.9-3.4 1.4-13.5 1-18.1 1.8-12.5 2.1-23.6 8.7-33.1 16.9.2-.9-.5-2.8-.5-3 .8-2.7 8.7-13.3 11-15.6 2.5-2.4 14.7-10.5 17.6-10.4 2.7 0 3 5.1 11.9 3.9 10-1.3 16.2-10.1 17.5-19.6.4-2.6-2.4-6.7 2.8-8.2 3.5-1 21.7 5.6 24.3 9.8Z" class="outline" data-original-prefix="outline"/></g><g id="04_Eyes" data-trait="steampunk-goggles"><path id="fill-eyes-main" class="fill"  fill="#fff" d="M1439.9 1144.1c-3.6 27.9-12.3 55.1-13.9 83.3-.4 7.7.9 16.7 0 24.1-1.3 11-25.5 16.1-34.3 19.7-20.4 8.4-25.3 24-38.8 39.2-55.4 62.9-122.1 75.3-200.5 47.6-42.5-15.1-69.2-37-93.5-74.5-2.7-4.2-10-19.4-13.2-20.8-1.5-.7-2.6-.7-4.2-.8-8.5-.8-27.8-.9-36.1 0-7.2.8-12.1 14.7-16.1 20.9-24.3 37.6-50.5 59.6-93.2 74.8-78.4 28-145 15.9-200.8-46.7-10.3-11.5-17.5-27.2-30.6-35.4-9.5-6-36-11.4-41.4-19.6-3.1-4.8-1.1-21.7-1.5-28.5-1.6-28-10-55.2-14.1-82.8 12.5-7.9 28.7-4.6 42.2-10 6.4-39.3 19.8-78.9 42.1-111.9 3.6-5.3 14.5-21.6 20.4-22.6 3.2-.6 7.4 1 10-1 1.3-.9 3.8-6.5 5.5-8.5 62-76.9 146.3-134.5 246.6-145.4 143.8-15.7 254.6 34.3 344.3 144.4 1.6 2 5.5 8.8 6.4 9.5 2.9 2.2 8.7 0 13.2 1.8 4.2 1.8 12.2 13.5 15.2 17.8 24.3 34.2 38 74.7 45.1 115.9 13 5.5 28.4 2.6 41 9.5Z" class="fill" data-original-prefix="fill"/><path id="fill-eyes-frame" class="fill"  fill="#fff" d="M1005 1154.9c17.3-2.1 33.8-.3 51 2.1 1.7-12.1-2.8-7.9-13.9-9.1 1.3-19.1 14.4-40 25.5-55.3 12-16.7 35.3-37.8 54-46.5 12.6-5.8 30.6-6.6 43.8-11.2 3.6-1.2 7.8-4.1 11.6-5.4 23.6-8.2 61.9-10.1 86-4.1 58.3 14.7 98.9 62.2 120.1 116.4 5.6.5 11.1-.4 16.7.8 3.4.8 18.4 8.5 19.7 11.3 1 2.1-2.9 19.4-3.4 23.6-3 24.6-3.8 49-3.1 73.8-7.1 0-16.5 8.3-21.8 9.4-4.1.8-10.8-1.4-13.3.1-1 .6-9 18.3-10.8 21.4-21.6 36.3-58.2 67.7-99.5 79-22.2 6.1-46.6 5.4-69.1 3.8-7.4-.5-65.6-21.8-73.2-26.1-18.3-10.4-47.1-38.2-57.1-56.8-1.2-2.1-6.6-13.6-6.7-14.9-.3-3.6 6.7-1.7 6.4-4.7-.2-1.6-5.5-11.2-6.6-11.5-25.2 5.7-51.5 4.9-76.7 0-1.6.4-4.3 8.6-5 11.5-.3 1.2 7.1 1.2 6.7 4.7-.1 1.4-5.6 12.2-6.7 14.3-9.7 18-39.5 47-57.1 57.4-29.7 17.4-98 32.4-131.4 25.5-52.6-10.9-98.3-53.4-119.4-101.8-5.3-1.4-10-.9-15-1.9-5.3-1.1-14.7-9.3-21.8-9.4.3-22 .3-43.9-2.1-65.8-.5-4.9-5.2-28.9-4.7-30.9.7-2.8 12.1-8.9 15.1-10 7.6-2.9 13.8-3.2 21.8-2.1 7-13.9 12-29.8 20.5-43 31.3-49 86-84 145.8-78.7 24.3 2.2 70 14.7 92.7 23.6 17.8 7 43.7 33.6 54.8 49.2 13.3 18.5 24.1 38.1 26.2 61.3" class="fill" data-original-prefix="fill"/><path id="fill-eyes-lens2" class="fill"  fill="#fff" d="M1213.8 1080.3c114.8-12.2 132 184 38.6 222.6-13.9 5.7-36.9 5.7-51.2 1.5-103.1-30.7-92.3-212.9 12.6-224Z" class="fill" data-original-prefix="fill"/><path id="fill-eyes-lens1" class="fill"  fill="#fff" d="M808.8 1080.3c122.5-14.7 144.8 173.1 56.5 216.5-113.8 56-166.4-113-102.3-188.3 10.1-11.9 29.9-26.4 45.8-28.2" class="fill" data-original-prefix="fill"/><path id="fill-eyes-strap3" class="fill"  fill="#fff" d="M1057.8 1158.2c2.9 2.5.3 11.8.2 15.2-.4 15.7-.2 32.4 2.2 47.9.6 4 6.2 26.3 5.4 27.7-2.1 3.5-28.1 5.8-33 6-8.4.3-44.2-.7-49.6-5.5-1.1-1-.6-1.4-.6-2.5.3-5.9 3.3-13 4.3-18.8 3.1-18.2 3.8-36.3 3.3-54.7 0-3.9-2.6-11.3-.1-14.8 1.3-1.8 24.7-4.5 28.5-4.7 5.6-.2 36.2 1.7 39.3 4.3Z" class="fill" data-original-prefix="fill"/><path id="fill-eyes-strap2" class="fill"  fill="#fff" d="M1412.9 1251.9c-7.4 1.2-14 5-20.9 7.6 14.5-36 14-79.1 5-116.5 5.2-.7 22.6 7.9 23 12.5-6.5 31.7-7.7 64.1-7.1 96.4" class="fill" data-original-prefix="fill"/><path id="fill-eyes-strap1" class="fill"  fill="#fff" d="M651 1143c-9.4 38.1-8.8 79.9 4.5 117-6.2-4.2-13.6-6-20.6-8.6.9-32.2-.6-64.3-6.9-95.9.5-4.6 17.8-13.2 23-12.5" class="fill" data-original-prefix="fill"/><g id="fill-eyes-rivet" class="fill" ><path id="fill-eyes-rivet16" class="fill"  fill="#fff" d="M1143.7 1309.2c5.9-1.8 13.9 1.8 14.4 8.3 1.2 16.7-23.9 10.6-19.9-2.8.4-1.2 4.3-5.1 5.5-5.5" class="fill" data-original-prefix="fill"/><path id="fill-eyes-rivet15" class="fill"  fill="#fff" d="M897.7 1309.2c7.5-1.6 13.8 3.3 12.1 11.1-.8 3.7-7.7 7.8-11.3 7.8-9.6 0-12.8-16.3-.8-18.8Z" class="fill" data-original-prefix="fill"/><path id="fill-eyes-rivet14" class="fill"  fill="#fff" d="M897.8 1060.2c4.2-.5 10.5 2.7 11.8 6.8 3 9.4-9.2 14.7-16.5 8.5-5.4-4.6-2.2-14.4 4.7-15.2Z" class="fill" data-original-prefix="fill"/><path id="fill-eyes-rivet13" class="fill"  fill="#fff" d="M1147.8 1060.2c11.2-1.3 14.3 15.9 1.7 17.8-14.2 2.1-15.3-16.2-1.7-17.8" class="fill" data-original-prefix="fill"/><path id="fill-eyes-rivet12" class="fill"  fill="#fff" d="M703.7 1095.2c12.2-2.7 9.9 15.8-2.7 19.4-10.2 2.9-7.2-17.1 2.7-19.4" class="fill" data-original-prefix="fill"/><path id="fill-eyes-rivet11" class="fill"  fill="#fff" d="M1339.7 1095.2c8.5-2.6 14.8 8.5 13.3 16.3-1.7 8.7-17.3-1.2-16.9-9.9 0-2.1 1.5-5.8 3.6-6.4" class="fill" data-original-prefix="fill"/><path id="fill-eyes-rivet10" class="fill"  fill="#fff" d="M1086.7 1182.2c10.6-3.1 13.4 21.9 7.6 23.7-10.1 3.2-17.9-20.7-7.6-23.7" class="fill" data-original-prefix="fill"/><path id="fill-eyes-rivet9" class="fill"  fill="#fff" d="M1373.7 1174.2c13.9-2.5 10.9 30.5-1.5 25.1-9.7-4.2-6.7-23.6 1.5-25.1" class="fill" data-original-prefix="fill"/><path id="fill-eyes-rivet8" class="fill"  fill="#fff" d="M1252.8 1335.2c12.9-1.9 15.1 10 4.8 16.8-14.4 9.4-21.8-14.3-4.8-16.8" class="fill" data-original-prefix="fill"/><path id="fill-eyes-rivet7" class="fill"  fill="#fff" d="M1248.7 1033.2c15-3.4 22.4 13.8 11.3 17.3-12.8 4.1-23.8-14.5-11.3-17.3" class="fill" data-original-prefix="fill"/><path id="fill-eyes-rivet6" class="fill"  fill="#fff" d="M1343.7 1271.2c15-4.5 11.4 13.4 1.3 18.3-14.8 7.3-8.6-16.2-1.3-18.3" class="fill" data-original-prefix="fill"/><path id="fill-eyes-rivet5" class="fill"  fill="#fff" d="M957.7 1182.2c9.5-2.8 10.8 14.5 3.8 20.8-14.2 12.8-13.2-18-3.8-20.8" class="fill" data-original-prefix="fill"/><path id="fill-eyes-rivet4" class="fill"  fill="#fff" d="M671.7 1174.2c9.8-1.8 14.6 19.5 4.6 24.7-11.8 6.2-16.2-22.6-4.6-24.7" class="fill" data-original-prefix="fill"/><path id="fill-eyes-rivet3" class="fill"  fill="#fff" d="M790.8 1335.2c15.5-2.5 19.6 17.8 6.6 18.7-10.4.7-20.6-16.5-6.6-18.7" class="fill" data-original-prefix="fill"/><path id="fill-eyes-rivet2" class="fill"  fill="#fff" d="M791.7 1033.2c16.6-3.4 17.2 14.3 2.3 17.3-14.3 2.9-14.8-14.7-2.3-17.3" class="fill" data-original-prefix="fill"/><path id="fill-eyes-rivet1" class="fill"  fill="#fff" d="M697.7 1271.2c5-1.1 7.8-.3 10.7 3.8s7 15.5-1 15.9c-8.8.4-19-17.7-9.7-19.8Z" class="fill" data-original-prefix="fill"/></g><g id="shading-eyes" class="shading" ><path id="outline-shading-eyes3" class="outline"  fill="#000" d="M808 1053c18.3-1.1 35.8 1.8 52.7 8.8 3.3 1.4 17.8 9.9 19 10 4.5.4 1.7-8.7 7.9-9.8 4-.8 2.7 4.3 4.6 7.4 6.1 10.4 12.8-5.4 17.9-4 8.6 2.4 6.1 14.8 2.4 20.6l-7.4 6.5c28.5 27.2 36.6 68.5 37 106.5 2.1-.9.9-7.1 3.5-8 4.4-1.4 4.3 9.4 10 10 6.5.7 14.6-18.5 16.3-.4 1.5 15.9-12.5 29.1-26.5 18.1l-4.3-8.7c-4.9 51.2-39.2 110.9-92.8 121.7-50 10.1-98.3-9.1-130.2-47.7-.8 8.9-1 15.6-10 19.5 10.4 16.7 25.8 28 43 37 3.5 1.8 22.8 11.7 25 9.5.3-4.1-1.8-14.1 4.5-14.1 5.1 0 5.7 10.3 12.7 12.4 8.8 2.8 23.2-10.6 18.8 7.7 26.8 2 51.7-7.1 76-17-6.8-4.3-12.8-24.8.3-21.8 4.6 1.1 5.9 7 14 4.6 6.5-1.9 1.9-12.9 9.2-11.8 4.2.7 6.3 7.5 7 11 19-14.9 36.6-34.2 48.9-55.1 7.5-12.7 9-19 11.4-33.6 3.8-23.7 5.1-47.8 6.2-71.8 2.5-6.4 6.3-5.2 8.2.8s2.7 18.8 2.9 25.1c.6 18.9-2.3 38.9-5 57.5 10.6 2.5 22.5 7.2 33.5 7.1s22.2-4.7 32.5-7.1c-3.3-19.5-6-40.6-5.1-60.5.3-5.4 1.1-16.6 2.5-21.5 1.1-4.1 4.6-8.5 7.4-3.3 2.2 4.1 1.6 23.7 2.1 29.9 1.4 16.8 3.1 34.2 6.3 50.7 3.7 19.1 14.4 35.3 26.7 50.3 5.3 6.4 23.6 26.7 30 30 1 .5 1.9.6 3 .5-.4-4.3 5.5-12.7 9.9-9.9 1.2.8.7 10.2 5 11.4 9.2 2.6 9.2-2.9 13.8-4.3 13.3-4 8.2 16.9 1.3 21.8 24 10.2 49.4 19 76 17-4-16.7 6.7-7.3 13.5-6.9 12.4.7 11.8-11.5 16.2-12.9 9.3-2.8 5.1 14.9 6.8 14.8 17.2-6 36.8-15.3 50.5-27.5 2.4-2.2 16.5-17.3 16.9-19.1.5-2.1-3.9-3-5.5-4.4-4.7-4.2-3.3-10.4-4.5-16-30.8 36.8-75 55.6-123.4 48.9-58-8.1-95.3-69.3-99.6-123.9l-2.6 6.9c-12.8 15.4-29.9 2.7-28.3-15.3 1.7-18.2 9.8 1.1 16.3.4 5.4-.6 5.1-11.4 10-10 2.6.7 1.3 7.9 3.5 9-.2-13.7.7-27.6 3.5-41 4.7-22.4 11.9-41.6 26.6-59.4 1.4-1.7 6.5-5.9 7-7 .8-2.1-5.3-2.2-6-4.2-3.9-5.9-8.4-15.1-2-20.8 7.5-6.6 9.3 6.4 16.3 5.4 6.7-1 4.3-10.9 8.2-10.9 6.2.1 5.9 9.6 6.6 10 1.7 1.1 11.3-5.5 13.8-6.7 19.3-9.2 38.6-13.8 60.2-12.3-1.2-2.1-3.8-8.8-.4-9.9 3.7-1.2 8.4 6.9 17.4 4.4 7.6-2 6.5-12 8.6-12.6 9.1-2.3 9.4 10.2 8.1 16.3-.8 4-5 5.8-4.8 9.7 16.4 4.7 33.2 15.3 46 26.5 2.8 2.5 14.4 15.4 15.9 16 1.2.4 2.8-.7 4.3-.3 2.8.8 2.5 5 9.2 3.8 5.4-1 7.4-9.1 14.1-8.9 5.2.1 4.9 16.5 3.5 20.5-2.4 6.8-8.4 7.4-14.1 10 6.7 14.8 11.6 30.7 13 47 .2 2.3-.5 13 0 13.5.2.2 3.8-.3 5.3.2s2 2.3 4.2 2.8c6.5 1.3 11.1-3.3 11.4-9.6 0-1.8-2.5-5.9.6-5.4 5.4.9 4.1 12.2 6.6 13.9.4.3 7.1-1.3 8.9 0 .6-11.5-1.4-22.9-4.5-34-1.9-6.9-7.8-17.8-6.5-24.5.7-3.8 6.2-4.4 8.4-1.4 10.3 21.6 12.5 44.1 16.4 67.4 5.6 2.9 8.4-5.4 14.1-5.4-3.4 20.2-4.8 40.8-5.2 61.3l-25.5 15.5c-21.1 5.8-28.9 25.7-42.3 40.7-57.2 64.2-122.6 75.3-203 46.9-45.8-16.2-70.3-41.4-95.9-81.1-1.5-2.4-5.4-11.2-6.7-12.3-3.2-2.9-42.6-2.9-46.5-.5-1.2.7-5.8 10.6-7.2 12.8-29.8 46.4-57.8 70.8-111.8 86.2-76.3 21.7-135 6.9-187.5-52.5-10.5-11.8-18-28.2-32-36-3.1-1.8-6.9-2.4-9.9-4.1-8.4-4.9-16.3-10.7-25.2-14.8-1.4-20.7-2-41.5-5.5-62 5.8-.1 9.6 10.1 14.5 4 2.8-14.7 3.6-29.8 7.8-44.2 1.3-4.5 6-18.5 8.3-21.7.8-1.2 1.4-1.9 3-2.1 11.7-1.1 1.5 18.6.2 23.2-3.7 12.8-6.7 25.3-5.7 38.8 2.2-1.8 7.9.7 8.9 0 2.1-1.5.8-12.8 6.6-13.9 3-.6.4 2.8.5 4.5.2 2.8 2.3 8.8 5 10 6 2.7 9.2-3.1 14.9-2.6 1.5-10 1.5-20 3.6-29.9 2.2-10.5 6.2-20.7 10.6-30.4 0-.9-12.4-2.2-14.6-10.5-1-3.7-.8-17.5 2.5-19.6 5.2-3.3 11.8 8.8 16.6 9.3 4.1.5 6-4.1 8.1-4.6 1.5-.4 3.2.7 4.3.3 1.8-.6 5.9-7.1 7.9-9 15.2-14.4 33.7-27.6 54-33.5.1-3.2-3.1-4.8-4.1-7.4-1.5-3.9-2.4-16.9 2.8-18.4 8.5-2.6 4.3 10.6 14 12.6 9 1.8 23.1-14.2 16.3 5.2Zm438.2 27.1-121 126.6c.9 24.3 12.9 46.2 28.3 64.3l145.3-146.7c2.9-10.7-23.1-29.7-31.2-34.4-2.8-1.6-20-10.6-21.5-9.7Zm-500.6 171.3c4.3 9.2 10.6 22.6 17.5 30 .7.7.9 2 2.3 1.6l140.7-143.4c1-.8.8-1.4.5-2.5-1.7-6.4-11.2-21.1-15.6-26.5-5.1-6.1-18.8-18.2-26-21-1.1-.4-1.8-.9-2.9 0-41.2 43.5-82.6 86.8-125.1 129-2.2 3.8 1.1 14.3 2.3 18.8 1.7 6.2 4 9.3 6.3 14.2Zm563.1-103.3L1171 1284.4c-.6.6-1 1.2-1 2 0 3 16.3 13.6 19.6 13.4 1.8 0 11.3-10.2 13.5-12.4 38.4-39.5 73.4-82.6 112.5-121.6 1.2-3.5-2.4-19-6.8-17.9Zm-494.9 153.7c30.8-39.9 67.3-75 103.7-109.8 1.5-9.7.2-19.5-1.5-29l-133 132.5c5.3 1.6 26.9 8.6 30.8 6.3m549.1-26.9c8.2-18.5 14.7-37.6 19.1-57.4-12 7.4-17.7-1.5-24-10.5-2.6 20.2-6.8 41-16.5 59-1.2 2.3-10.2 15.3-9.5 16 5.6-.2 2.8 4.4 8.2 3.8 10.8-1.3 9.2-7.1 13.5-9.6 2.6-1.6 6.3-1 9.2-1.3M690 1208c-2.4-.6-1.6.4-2.2 1.3-5.5 7.9-11 15.7-21.3 7.7-.8-.2-.6.9-.5 1.5 1.2 8.4 6.1 23.6 9 32 1 3 9 23.6 10.2 24.3 1 .6 4.7 0 6.9.6 3.6 1.1 4.7 5.4 7.6 7.4 1.9 1.3 8.7 3.6 10.7 3.2.9-.2 2.2-5.2 5.7-4.1.6-.7-8-13.1-9.2-15.3-10-18.4-14.3-38-16.8-58.7Z" class="shading" data-original-prefix="shading" opacity=".2"/><path id="outline-shading-eyes2" class="outline"  fill="#000" d="M942 857c-15.8 14.7-36.6 21.7-53.5 35-24.9 19.7-63.7 69.6-74.7 99.3-3 8.1.3 14.4 1.2 22.7-11.2.4-23.2 1.8-34 4.5-4.8 1.2-19 7.4-21.5 7.4-3 0-26.1-7.4-29.8-9.1-9-4.1-3.1-10 .8-15.7 27.1-39.6 72.1-78.2 113.1-102.9 30.2-18.2 63.6-34.2 98.3-41.2Z" class="shading" data-original-prefix="shading" opacity=".2"/><path id="outline-shading-eyes1" class="outline"  fill="#000" d="M1321.7 1014.8c-.8.8-5.7 2.7-7.2 3.3-3.7 1.4-23.4 7.8-26 7.8s-17.3-6.3-22.3-7.5c-10.9-2.6-22.9-4.1-34.2-4.3 8.5-17.3-2.8-34.2-11.6-48.9-16.6-27.7-44.7-62.6-71.5-80.5-14.2-9.5-30.9-15.1-42.9-27.6 31.9 6.4 62.5 20.8 90.7 36.8 40.6 23.1 81 56.5 109.7 93.3 3.2 4 16.5 20.7 16.6 24.3 0 .9-.6 2.7-1.2 3.3Z" class="shading" data-original-prefix="shading" opacity=".2"/></g><g id="outlines"><path id="outline-eyes11" class="outline"  fill="#000" d="M1330.1 993.9c1.4 1 4.2-1.5 5.6-1.7 8.1-.9 21.2 18.7 25.6 25 22.8 33.2 36.7 72.8 42.9 112.6 1 1.3 25.1 3.5 29.1 4.4 11 2.5 13.7 4.6 12.6 16.1-2.4 25.5-12.5 52.1-13.9 79.1-.4 7.2 1.7 25.4-1.5 30.5-5.8 9.2-28.7 14.1-38.4 18.6-14.9 6.9-26.7 29-38.5 41.5-21.4 22.7-53.2 45.5-83.7 53.3-59.5 15.2-143.1-6.7-187.8-48.8-16.6-15.6-28.4-36.6-40-56-1.4-.9-30-1-33.6-.5-1.3.2-1.8 0-3 1-1.7 1.5-7.1 12.8-9.1 15.9-27.8 44-60.8 69.2-111.4 83.6-75.5 21.4-135.9 9-190-48-12-12.6-24.1-35.1-39-42-8.8-4.1-36.5-10.7-39.5-20.5.8-24.6-2.5-47.2-6.8-71.2-1.9-10.7-9.1-35.1-7.6-44.2.2-1.1.4-2 1-3 4.3-6.7 33.7-7.3 41.8-9.7 5.2-35.2 17.2-71.3 35.7-101.8 5-8.3 14.3-22.5 20.9-29.1 1.3-1.3 7.8-6.6 9.3-6.8 2.4-.4 5.8 2.8 7.2 1.8.4-.3 3.5-6.5 5.1-8.4 78.7-96.5 169.8-147.5 296.5-148.6 130.2-1.2 229.8 51 308.9 153.1.9 1.1 1.4 3.8 1.6 3.9Zm-23.2 12.9c.9-1.6-3.8-12.9-5-15.2-18.3-36.2-111.1-99.9-149.4-114.6-95.6-36.8-210.4-32.7-298.4 21.6-30.7 18.9-92.7 62-108.3 93.7-1 2-4.8 10.7-4.8 12.2.1 2.4 19.5 14 21.6 14.2s17.2-5.3 21.3-6.2c86.6-19.4 202.6 33.5 229.3 121.7.8 2.7 1.4 9.4 2.6 11.2 1 1.4 13.3.2 16 .5 13.2-64.6 72.4-111.2 133.7-127.8 31.6-8.6 66.2-12.8 98.4-5.6 4.4 1 19.3 6.5 21.5 6.4 2.5-.1 16.9-11.3 21.3-12.1ZM913 1329c2-.2 3.9-.9 5.5-2 3.4-2.3 12.9-12.4 16-16 69.3-79.6 53.3-208.6-36.2-265.8-63.8-40.8-145.4-24.7-193.8 31.8-1.2 1.4-6.8 7.8-5.5 9 13.4-1.3 20.9 3.1 18.9 17.4-1.6 11.7-19.8 26.3-28.4 13.5-3.8-5.6-2.2-10.8-2-16.9-2.6 4-5.4 8.1-7.7 12.3-28.1 51.7-30.3 99.4-4.7 153 35.5 74.2 112.9 118.7 194.8 91.1 13-4.4 27.3-13.5 38-22-11.2 3.9-20.4 1.1-24.5-10.5-2.8-7.9-.4-9.5 1.5-17-.7-.7-9.4 5.7-11 6.5-98 54-202-48.1-178.7-149.7 18.1-79 102.7-132.2 178.7-90.3 1.5.8 10.3 7.2 11 6.5 0-3.8-2.9-6.7-3-10.5-.4-13.2 15.8-19.1 26.4-12.3 17.6 11.2 4.8 31.3-12.4 28.4-3.3-.6-6-2.6-8.9-4.1 20.6 17.2 36.8 39.6 44.5 65.5 7 23.6 7.9 57 3 81-6.2 30.9-23.4 57.5-47.5 77.5 3.8-2.1 7.8-4.6 12.4-4.5 12.8.2 22.6 14.8 15.5 26.3-.6.9-2.4.2-2 1.7Zm436-243c1.3-1.3-4.3-7.6-5.5-9-50.7-59.1-135.1-72.8-199.8-27.8-92.1 64-98.3 206.9-12.4 278.8.9.7.8 3.6 2.8 1.5-10-16 5.2-33.9 22.5-26.5 1.8.8 2.8 2.5 4.4 2.6-20.4-17.1-36.5-39.1-44.2-64.8-7.2-23.8-8.2-57.5-3.2-81.8 6.2-30.9 23.4-57.5 47.5-77.5-1.3-.4-2.3 1.6-3.7 2.3-19.4 9-37.6-14.9-17-27 11.4-6.7 27.5.8 25.5 14.4-.4 3-3 5.5-2.8 8.8.7.7 9.4-5.7 11-6.5 76-41.9 160.6 11.3 178.7 90.3 22.4 97.9-71.6 195.8-169.4 154.4l-20.3-11.2c3.5 8.9 4.3 16.2-2.5 24-5.9 6.8-13.8 5.7-21.5 3l21.3 14.2c120.6 61 245.5-57.5 228.5-181.5-3.3-24.1-15.9-45.5-27.9-66.2-1.8-1.2-.9.9-.8 1.8 5 30-28 21.1-30.2.3-1.5-14 6.1-17.7 19-16.5Zm-605-59c-7 .9-24.7-3.7-29.9.6-3 2.4-11.7 18.3-14.2 22.8-4.2 7.4-8.3 14.9-11.8 22.7 1.9.4 2.4-1.1 3.5-2 8.2-6.8 15.5-16 24-23s18.7-11.9 26.8-18.2c1.1-.9 2.1-1 1.7-2.8Zm617 49c-.7-6.3-4.8-13-7.8-18.7-2.6-5-15.2-27.3-18.2-29.8-5.4-4.4-23.8.5-30.9-.6-.4 1.8.6 2 1.7 2.8 3.8 3 9.5 5.4 13.6 8.4 15.4 10.9 28.9 24 41.7 37.8Zm-358 71c-1.2-19-13.2-38-24.2-53.3-9.6-13.4-22-26.9-35.5-36.5-3.6-2.5-16.9-10.9-13.3-6.7 28 24.7 49.6 59.6 57 96.5zm42 0h16c7.1-35.9 28.2-70 54.7-94.7.6-.6 5.6-4.6.8-2.3-19 10.1-34.8 26.3-47.3 43.7-11 15.3-23 34.3-24.2 53.3m-147.2-86.8c-6.9.8-10 10.6-4.7 15.2 7.2 6.2 19.5 1 16.5-8.5-1.3-4.1-7.6-7.2-11.8-6.8Zm250 0c-13.7 1.6-12.5 19.8 1.7 17.8 12.6-1.9 9.5-19-1.7-17.8M782 1077c-6.6 0-13.6 3.9-19.3 7.2-73.5 41.8-78.5 165.6-7.2 212.8 5.1 3.4 12.8 8.3 18.5 8.5-46.4-35.7-62.3-96.1-48.1-152.1 8.2-32.6 30-56.6 56.1-76.4m492 229c29.3-10.6 51.7-35.4 61.7-64.7 15.8-46.1 5.7-112.2-32.7-144.8-9.7-8.2-24.5-17.9-37-19.5 26.1 19.8 47.9 43.8 56.1 76.4 14.3 56.7-2.1 116-48.1 152.6m-465.2-225.7c-15.8 1.9-35.6 16.3-45.8 28.2-64.1 75.3-11.5 244.3 102.3 188.3 88.3-43.4 66-231.2-56.5-216.5m405 0c-104.9 11.1-115.7 193.3-12.6 224 14.3 4.3 37.3 4.3 51.2-1.5 93.4-38.6 76.2-234.8-38.6-222.6Zm-510.1 14.9c-9.9 2.2-12.9 22.2-2.7 19.4 12.6-3.5 14.9-22.1 2.7-19.4m636 0c-2.1.6-3.6 4.3-3.6 6.4-.4 8.7 15.2 18.5 16.9 9.9 1.5-7.8-4.8-18.9-13.3-16.3M651 1143c-5.2-.7-22.5 7.9-23 12.5 6.3 31.5 7.9 63.7 6.9 95.9 7 2.6 14.3 4.3 20.6 8.6-13.3-37-13.9-78.9-4.5-117m761.9 108.9c-.6-32.3.6-64.7 7.1-96.4-.4-4.6-17.8-13.2-23-12.5 9 37.4 9.5 80.5-5 116.5 6.9-2.6 13.4-6.4 20.9-7.6m-355.1-93.7c-3.1-2.6-33.7-4.5-39.3-4.3-3.8.2-27.2 2.9-28.5 4.7-2.5 3.5 0 10.9.1 14.8.5 18.5-.2 36.5-3.3 54.7-1 5.8-4 12.9-4.3 18.8 0 1.1-.6 1.5.6 2.5 5.4 4.9 41.2 5.9 49.6 5.5 5-.2 30.9-2.6 33-6 .8-1.3-4.8-23.6-5.4-27.7-2.3-15.5-2.6-32.2-2.2-47.9 0-3.4 2.8-12.7-.2-15.2ZM923 1335.5l9-5.5c18.9-12.6 35-28.1 46.2-48.3 1.2-2.3 7.7-14.1 6.4-15.7l-11.6-2.9c-3 11.1-8.6 21.2-14.6 30.9-7 11.4-18 25.6-27.4 35.1l-8 6.5Zm202 0-8-6.5c-9.4-9.5-20.4-23.7-27.4-35.1-6-9.7-11.6-19.8-14.6-30.9l-11.6 2.9c-1.2 1.6 5.2 13.4 6.4 15.7 11.1 20.1 27.3 35.9 46.2 48.3l9 5.5Zm-227.3-26.3c-12 2.5-8.9 18.8.8 18.8 3.6 0 10.4-4 11.3-7.8 1.8-7.7-4.5-12.6-12.1-11.1Zm246 0c-1.2.3-5.1 4.3-5.5 5.5-4.1 13.4 21.1 19.5 19.9 2.8-.5-6.5-8.5-10.1-14.4-8.3" class="outline" data-original-prefix="outline"/><path id="outline-eyes10" class="outline"  fill="#000" d="M1084.7 1174.2c20-4.6 29.1 31.7 12.8 39.8-21.9 11-33.3-35.2-12.8-39.8m2 8c-10.3 3-2.5 26.9 7.6 23.7 5.8-1.8 2.9-26.8-7.6-23.7" class="outline" data-original-prefix="outline"/><path id="outline-eyes9" class="outline"  fill="#000" d="M1368.7 1168.2c22.1-5 23.6 37.4 9.6 40.6-24.7 5.6-27.6-36.5-9.6-40.6m5 6c-8.2 1.5-11.2 20.8-1.5 25.1 12.4 5.4 15.4-27.6 1.5-25.1" class="outline" data-original-prefix="outline"/><path id="outline-eyes8" class="outline"  fill="#000" d="M1251.7 1329.2c7-1.4 15 .3 18.7 6.8 8.9 15.9-22 33.9-33.4 17.4-6.3-9.2 5.7-22.4 14.7-24.3Zm1.1 6c-17 2.5-9.7 26.2 4.8 16.8 10.3-6.8 8.2-18.7-4.8-16.8" class="outline" data-original-prefix="outline"/><path id="outline-eyes7" class="outline"  fill="#000" d="M1251.8 1027.2c13.2-.7 26.5 12.3 17.7 24.8-7 10-21.5 6.7-29-1.1-9.2-9.5-1.6-23.1 11.3-23.8Zm-3.1 6c-12.5 2.8-1.5 21.4 11.3 17.3 11.1-3.5 3.6-20.7-11.3-17.3" class="outline" data-original-prefix="outline"/><path id="outline-eyes6" class="outline"  fill="#000" d="M1346.8 1265.2c2.5-.4 3.7-.2 6.1.5 17.1 4.9 3.1 33.3-13.3 33.1-19.4-.2-8.7-31.2 7.3-33.6Zm-3.1 6c-7.2 2.1-13.4 25.6 1.3 18.3 10.1-5 13.7-22.8-1.3-18.3" class="outline" data-original-prefix="outline"/><path id="outline-eyes5" class="outline"  fill="#000" d="M955.7 1174.2c29.3-6.1 19.7 51-4.6 40.2-15.5-6.9-8.6-37.4 4.6-40.2m2 8c-9.4 2.8-10.4 33.6 3.8 20.8 7-6.3 5.8-23.7-3.8-20.8" class="outline" data-original-prefix="outline"/><path id="outline-eyes4" class="outline"  fill="#000" d="M672.7 1168.2c24.1-5 25 45.1-2.2 40.7-13.8-2.2-13.3-37.5 2.2-40.7m-1 6c-11.6 2.1-7.2 30.9 4.6 24.7 10-5.2 5.2-26.4-4.6-24.7" class="outline" data-original-prefix="outline"/><path id="outline-eyes3" class="outline"  fill="#000" d="M786.7 1329.2c6.2-1.1 10.4-.2 15.6 2.9 9.3 5.6 15.8 17.8 4.6 25.2-12.4 8.3-35.8-5.5-30-20 1.3-3.4 6.2-7.5 9.8-8.2Zm4.1 6c-14 2.3-3.8 19.5 6.6 18.7 13-.9 8.9-21.3-6.6-18.7" class="outline" data-original-prefix="outline"/><path id="outline-eyes2" class="outline"  fill="#000" d="M793.8 1027.2c11.4-.9 19.9 7.4 17 19.1-.9 3.7-9.4 9.9-13 11-25.8 7.6-30.4-27.9-3.9-30Zm-2.1 6c-12.5 2.6-12 20.3 2.3 17.3 14.9-3.1 14.2-20.8-2.3-17.3" class="outline" data-original-prefix="outline"/><path id="outline-eyes1" class="outline"  fill="#000" d="M696.8 1265.2c16.2-2.7 29.1 25.4 18.6 31.7-19 11.3-40.9-28-18.6-31.7m.9 6c-9.3 2.1.9 20.2 9.7 19.8 8-.4 4-11.7 1-15.9s-5.7-5-10.7-3.8Z" class="outline" data-original-prefix="outline"/></g></g><g id="05_Right Ear" data-trait="metal plate"><defs></defs><path id="fill-ear-rt1" class="fill"  fill="#fff" d="M1377.6 547.4c2.3 6.6 3.6 12.4 6.1 17.5 6.5 13.5 4.8 27.4 2.5 41.2-3.2 19.5-6.4 39.1-13.2 57.9-3.3 9.2-8.5 17.3-13.9 25.3-1.5 2.2-2.5 2.9-4.8.7-20.6-19.9-41.3-39.8-62.1-59.5-10.2-9.7-16.3-22-23.4-33.9-7-11.7-8.5-23.2-6.9-36.4 1.4-12 3.7-23.6 6.4-35.3 1.1-4.8 3.4-9.1 6.4-12.9 24.1-29.8 46.5-60.9 71.6-90 35-40.6 76.6-73 121.4-101.8 24.5-15.7 49.1-31.4 74.2-46.2 41.6-24.6 84.1-47.6 128-67.7 15-6.9 30.7-11.9 46.3-17.4 3.4-1.2 3.1.7 3.2 2.7 1.1 18.7 1.2 37.3-.8 55.9-2.3 21.9-5.7 43.6-9.7 65.2-.5 2.6-1 5.3-2.5 7.5-16.6 24.4-23 52.5-29.7 80.6-5.6 23.6-8.8 47.5-8.3 71.8.4 23.5-5 45.9-11.3 68.2-8.9 31.8-17.7 63.7-33.7 92.8-26.5 48.2-58.6 92.2-101.2 127.8-14.8 12.4-31.7 21.5-48.6 30.5-16.8 8.9-32.5 19.7-48.8 29.3-2.9 1.7-4.5 4.1-5.6 7.2-6.8 20.2-14.8 40-25.4 58.5-6.8 12-14.3 24-25.1 33.3-5.2 4.5-9.8 9.5-14.7 14.3-17.3 16.9-36.3 31.5-59.2 39.8-7.1 2.6-15.4.2-20.9-4.7-10.4-9.3-19.3-20.2-28.2-31-1.3-1.6-1.2-2.7 0-4.2 14.7-20.3 21.8-43.9 28.4-67.6 2-7.3 5.3-13.9 10.4-19.7l94.2-106.8c7.9-8.9 8.4-16 1-24.7-1.9-2.2-1.1-3.2.6-4.2 3.8-2.3 4.3-5.7 4.3-9.8 0-24.3 6.1-47.4 14.7-70 .9-2.5 2.3-4.8 3.8-7 4-5.8 7.5-6.4 13.5-2.5 3.4 2.2 6 5.2 8.4 8.5 11.2 15.9 15.9 33.4 14.5 52.8-1.2 16.8-6.8 32.1-14.4 46.9-.8 1.6-1.8 3.2-2.7 4.8v1c2 .4 3.5-.8 5-1.6 24.5-12.7 47.8-27 68.4-45.7 6.6-6 10.3-12.3 11.7-21.3 4-26.6 11.6-52.3 20.6-77.6 6.3-17.8 15.8-33.7 27-48.8 1.9-2.6 1.9-4.2 0-6.9-7.6-11.5-10.5-24.6-10.9-38-1.5-44.6 10.6-85.5 33.7-123.5 21.9-36 50.4-65.2 86.2-87.4 5.4-3.4 9.9-7.3 12.8-13.4 5.3-10.9 11.4-21.4 18.4-31.2-1.1-1-1.8-1.1-2.6-.5-6.4 4.2-13.3 7.8-18.6 13.4-5.6 6-12.4 10.1-19.7 13.3-5.6 2.5-10.2 6-14.6 10.3-14.6 14.4-29.1 28.9-44.3 42.7-36.2 33.1-61.5 73.3-79.3 118.6-2 5.2-2.6 9.8-1.4 15.3 4.3 20.9 7.2 41.9 8 63.2 1.3 34.4-6 66.8-20.4 97.8-4.8 10.3-9.2 20.7-16.3 29.7-3.7 4.8-7.9 9-13.2 12-8.1 4.6-15.4 2-18.3-6.9-1.8-5.4-2.9-10.9-4-16.5-3.4-16.7-9.5-32.5-14.5-48.8-.7-2.4-2.2-4.1-4.1-5.5-17-11.8-35.1-21.6-54.3-31.8v.4Z" class="fill" data-original-prefix="fill"/><path id="fill-panel-ear-rt" class="fill"  fill="#fff" d="M1253.2 614.5c2.9 6.9 5.4 12.8 8.9 18.2 4.9 7.5 11.1 13.7 18.2 19 23.1 17.5 45.5 35.9 66.5 55.9 5 4.8 11.1 8.4 16.5 12.9 9.2 7.6 9.8 12.8 1.5 21.1-27.3 27.4-52.9 56.5-81.2 82.7-11.8 11-18.6 24-22.4 39.1-2.2 8.7-4.6 17.4-7 26-3.6 12.8-10.1 24.2-18.1 34.7-.8 1-2.1 2.1-2.1 3.3-.3 5.1-3.3 4.6-6.5 3.4-16.4-6.3-33.1-12.1-47.2-23.1-2.2-1.7-3.7-3.7-4.5-6.4-2.5-8.6-5-17.2-7.7-25.7-3.1-9.9-1.1-19.2 3.1-28.1 18.3-39 35.9-78.4 57.5-115.6 5.2-8.9 6.5-18.3 8.2-27.9 4.4-26.2 9.6-52.2 14.8-78.2.7-3.4 1-6.8 1.6-11.3zm-3.9 277.5c.3-11.1-6-17.9-17.1-18.3-10.9-.4-20.5 9.3-21 21.1-.4 10 8.2 20.1 17.4 20.5 10.5.5 20.3-10.7 20.7-23.3m84.1-129.6c8.2 0 15.9-6 18.6-14.7.9-2.7.8-5.6 1.2-8.3 1-6.6-1.5-11.7-6.9-15.3-5.3-3.4-11.1-4-16.4-.4-6.7 4.6-11 11-11.9 19.3-1.1 10.2 6.2 19.3 15.4 19.4" class="fill" data-original-prefix="fill"/><path id="fill-stud2-ear-rt" class="fill"  d="M1222.6 893.9c0-6.9 4.2-10.7 12-10.9 4.2 0 7.9 3.9 8 8.6 0 6-5.5 12.2-11 12.3-5 0-8.9-4.2-9-9.9Z" class="fill" data-original-prefix="fill"/><path id="fill-stud1-ear-rt" class="fill"  fill="#fff" d="M1346.9 742.3c0 7.5-3.9 11.8-10.2 11-4.2-.5-7.1-2.6-7.9-7.1-.9-4.9-.5-9.6 2.6-13.8 3.6-5 10-4.6 13.1.7 1.6 2.8 2.5 5.8 2.4 9.1Z" class="fill" data-original-prefix="fill"/><path id="outline-shading-ear-rt1" class="outline"  fill="#000" d="M1234 709.1c0-8.2 2.4-16.1 3.1-24.2.2-2.8 2.5-2.8 4.3-3.3 11-3.2 22-6.3 33.5-9.7-3-3.7-6.5-5.6-9.7-7.8-9.1-6.1-14.1-14.8-16.7-25.1-.4-1.6-.4-3.3 0-4.9 3.2-21.4 6.5-42.8 9.8-64.2 0-.8.5-1.5 1-2.7 9.2 13.9 18.9 26.7 29.6 38.9 11.3 12.8 23.3 24.8 37 35 8.7 6.5 8.8 6.4 13.9-2.9 12.3-22.1 21.4-45.5 26.4-70.3 1.8-9.1 6.1-16.5 11.8-23.7 5.1-6.4 9.8-9 18.4-7.5 17.5 3.2 35.1 6.1 52.2 11 3.3 1 5.3.6 7.1-2.7 6-10.8 11.3-21.8 16.7-32.9 5.5-11.5 4.3-23.8 5.8-35.7 1-7.9 1.5-15.9 2.3-23.9.3-2.4.6-5 2-7.1 19.9-30.6 37.9-62.4 61.1-90.7 7.9-9.7 16.2-19.1 24.7-28.2 5.6-6 11.7-11.4 18.5-16 20.4-13.8 40.7-27.7 61.7-40.7 6.3-3.9 13.1-7.2 19.7-10.7 1.3-.7 13.8 1.7 14.7 2.8 1.1 1.3 0 2.5-.4 3.7-5.4 11.3-13 21.3-21.1 30.6-35.9 41.5-59.7 89.4-76.7 141.1-9.4 28.6-10.2 57.9-5 87.4 2 11.4 2.5 22.2-3.6 32.8-4.9 8.6-7.6 18.4-11 27.8-.2.6-.5 1.2-.7 1.9-.7 2.9-.3 6.2 1.6 7.9 1.7 1.5 4.3-.9 6.2-2.1 5.5-3.5 9.2-8.7 12.8-13.9 16.4-23.6 29.2-49.2 41.9-74.9.8-1.6 1.6-3.2 2.5-4.9 1.6 1.2.7 2.5.4 3.6-18.6 72.5-47.8 140.1-92 200.8-1.5 2-3 4.1-4.9 5.6-26.6 20.3-54.8 37.9-87.2 47.5-12.3 3.6-24.7 6.2-37.7 6.5-16.4.5-27.4 10.7-35.5 23.7-9.2 14.8-17.2 30.5-25.8 45.6-16.6 29.1-32.9 58.5-54.7 84.1-8.9 10.4-13.5 21.8-16.6 34.4-1.3 5.3-2.8 10.5-4.2 15.9 2.4 0 3.3-1.5 4.5-2.5 32.7-28.3 61.9-60.1 90.7-92.3 1.8-2 3-4.4 3.9-6.9 4.4-12.5 9.7-24.7 11.4-38.1.9-7.1 5.4-11.6 13.1-13.9 37.6-11.1 71.6-30.2 106.2-47.9 19.9-10.2 38.5-22.6 55.5-37.1 7.1-6 13.8-12.5 20.8-18.8-3.1 4-6 8-9.2 11.9-17.4 21.1-36.9 40-60.1 54.9-14.5 9.3-30 16.9-44.8 25.7-11.4 6.7-22.6 13.9-33.9 20.8-1.7 1-2.5 2.5-3.2 4.2-10.5 24.5-21.1 48.9-31.5 73.4-1.7 4.1-4.1 7.5-7.4 10.5-26.6 24-53.2 48-79.6 72.2-2.7 2.5-5 2.9-8.4 1.9-13-3.7-26-7.2-39.1-10.6-3.2-.8-5.2-2.2-6.5-5.3-4.4-10.5-12.9-17.6-21.5-24.4-4.1-3.2-7.5-7.3-11.9-9.7-9.8-5.4-20.1-10.1-31.5-10.8-2.6-.2-3.8-1.1-4.8-3.4-7.1-16.1-14.3-32.3-21.6-48.4-.7-1.6-1.1-3-.4-4.8 4.8-11 9.5-22 14.2-33 2 .4 1.4 1.9 1.5 2.8 3 17.7 12.1 33 19.3 49 2 4.4 4 8.8 6 13.1.9 1.8 1.8 3.8 4.1 3.9 2.4 0 3.2-2.3 3.3-3.8.7-9.5 7.6-14.6 13.6-20.8 14.3-14.7 25.5-32 36.9-49 14.1-21 27.9-42.2 42.8-62.8.6-.8 1-1.7 1.9-3.1-38 8.1-74.4 19.5-112.2 29.5 1.2-2.6 2-4.5 3-6.3 6.5-12.2 12.5-24.6 17.8-37.4 1.3-3.1 3.1-4.6 6.3-5.5 26.2-7.5 52.3-15.4 78.6-22.5 7.7-2.1 12.8-5.8 16.6-12.6 3.9-7.1 4.3-7-2.4-11.5-5.4-3.6-10-9.9-16.2-10.1-5.8-.2-11.9 3.8-17.8 5.9-13.8 5-27.5 9.9-41.3 14.9-1.2.4-2.4 1.2-3.8.7Zm-4.8 193.4c-2.3-7.7.9-13.2 7.1-17.3.8-.5 2-.8 1.4-2.1-.4-.9-1.4-.7-2.2-.7h-4c-5.4.2-8.8 4.9-9.9 12.7-.9 6.2 3.2 6.7 7.6 7.5Zm99.6-156.5c3.6-11.8 8.3-14 18.6-9.9 0-8.6-4-9.5-11.3-8.7-6.7.7-9.7 8.2-7.3 18.6" class="shading" data-original-prefix="shading" opacity=".2"/><path id="outline-ear-rt3" class="outline"  fill="#000" d="M1735.4 208.8c1.6 15.9 0 30.4-1 44.8-1.6 25.4-2.3 50.9-6.5 76.1-1.4 8.3-3.6 15.7-9.6 22.4-8.9 9.8-14.3 21.7-17.9 34.7-7.3 26.5-11.5 53.4-12.3 80.8-.2 7.9.6 15.6 4.1 22.9 2.2 4.5 2.2 9.2 1.2 14.1-15.2 75.4-46.3 144.2-89.1 207.6-20.5 30.3-47 55.3-76.8 76.5-21.1 14.9-42.4 29.5-66.1 40.1-9.4 4.2-16.1 11.1-21.6 19.4-12.5 19.2-23.7 39-30.4 61.1-2.1 6.7-5.7 12.5-11.6 16.5-20.1 13.7-36.9 31.2-53.7 48.5-9 9.3-20.7 12.5-31.8 17.7-5.9 2.8-11.3 2.2-17.2.4-10.5-3.1-21.1-5.8-31.4-9.8-3.1-1.2-5.4-2.9-7.4-5.6-5.8-7.9-11.9-15.7-17.7-23.6-3.5-4.7-7.9-8-13-10.7-14.4-7.8-29.7-13.3-45.8-16.4-6.3-1.2-10.8-4.8-14.2-10.1-11.8-18.5-18.2-39-23.2-60.1-1-4.3.5-7.9 1.9-11.5 3.1-7.8 8.3-14.4 13.2-21.1 22.9-31.6 41.9-65.3 56.9-101.3 18.9-45.4 25.1-93 23.3-141.8-.2-5.4-.4-10.6 4.4-14.6 1.6-1.4 1.6-3.9 1.7-6.1.4-10.7 1.2-21.3 1.3-32 0-6.6 1.8-11.9 5.7-17.4 19.4-27.1 38.8-54.2 59.1-80.6 28.6-37.4 61-71.4 93.4-105.5 1.9-2 4.1-3.9 6.4-5.5 64.7-45.2 132.5-84.7 206.2-113.5 27.3-10.6 54.4-22.1 82.7-29.7 7.9-2.1 15.9-3.8 23.9-5.4 6.9-1.3 7.4-.7 9.5 5.9 3.5 11.2 3.1 22.7 3.3 32.7 0 .1 0 0 0 0Zm-357.8 338.6c19.2 10.2 37.3 20 54.3 31.8 1.9 1.3 3.4 3 4.1 5.5 4.9 16.2 11.1 32.1 14.5 48.8 1.1 5.5 2.2 11.1 4 16.5 2.9 8.8 10.2 11.4 18.3 6.9 5.3-3 9.5-7.2 13.2-12 7-9.1 11.5-19.5 16.3-29.7 14.4-31 21.7-63.4 20.4-97.8-.8-21.4-3.8-42.4-8-63.2-1.1-5.5-.6-10.2 1.4-15.3 17.8-45.3 43.1-85.5 79.3-118.6 15.1-13.8 29.6-28.3 44.3-42.7 4.3-4.3 9-7.8 14.6-10.3 7.3-3.3 14.1-7.4 19.7-13.3 5.3-5.6 12.2-9.2 18.6-13.4.8-.5 1.6-.4 2.6.5-7.1 9.8-13.1 20.3-18.4 31.2-3 6.1-7.4 10.1-12.8 13.4-35.8 22.1-64.4 51.4-86.2 87.4-23.1 38-35.3 78.9-33.7 123.5.5 13.4 3.4 26.5 10.9 38 1.8 2.7 1.8 4.3 0 6.9-11.1 15.1-20.7 31-27 48.8-8.9 25.3-16.5 51.1-20.6 77.6-1.4 9-5.1 15.3-11.7 21.3-20.6 18.7-43.9 32.9-68.4 45.7-1.5.8-3 2-5 1.6v-1l2.7-4.8c7.7-14.7 13.2-30 14.4-46.9 1.4-19.4-3.3-37-14.5-52.8-2.3-3.3-5-6.3-8.4-8.5-6-3.9-9.5-3.3-13.5 2.5-1.5 2.2-2.9 4.5-3.8 7-8.6 22.5-14.7 45.6-14.7 70s-.4 7.5-4.3 9.8c-1.7 1-2.4 2-.6 4.2 7.4 8.7 6.9 15.8-1 24.7l-94.2 106.8c-5.1 5.7-8.3 12.3-10.4 19.7-6.6 23.7-13.7 47.3-28.4 67.6-1.1 1.6-1.3 2.6 0 4.2 8.9 10.8 17.8 21.7 28.2 31 5.5 5 13.8 7.3 20.9 4.7 23-8.3 41.9-22.8 59.2-39.8 4.9-4.8 9.6-9.8 14.7-14.3 10.8-9.3 18.3-21.3 25.1-33.3 10.5-18.5 18.6-38.3 25.4-58.5 1.1-3.2 2.7-5.5 5.6-7.2 16.4-9.6 32-20.4 48.8-29.3 16.9-9 33.8-18.1 48.6-30.5 42.6-35.5 74.7-79.6 101.2-127.8 16-29.1 24.7-61 33.7-92.8 6.3-22.3 11.7-44.8 11.3-68.2-.4-24.3 2.7-48.1 8.3-71.8 6.7-28.1 13.1-56.2 29.7-80.6 1.5-2.2 2.1-4.9 2.5-7.5 4-21.6 7.4-43.3 9.7-65.2 1.9-18.6 1.8-37.3.8-55.9 0-2 .2-4-3.2-2.7-15.5 5.5-31.3 10.5-46.3 17.4-43.9 20.2-86.4 43.2-128 67.7-25.1 14.8-49.7 30.5-74.2 46.2-44.8 28.7-86.4 61.2-121.4 101.8-25 29.1-47.4 60.2-71.6 90-3 3.8-5.3 8.1-6.4 12.9-2.7 11.7-5 23.3-6.4 35.3-1.6 13.2 0 24.7 6.9 36.4 7.1 11.9 13.2 24.2 23.4 33.9 20.8 19.7 41.5 39.6 62.1 59.5 2.3 2.2 3.3 1.5 4.8-.7 5.4-8 10.6-16.2 13.9-25.3 6.8-18.7 10-38.3 13.2-57.9 2.2-13.8 3.9-27.7-2.5-41.2-2.5-5.2-3.8-10.9-6.1-17.5v-.4Zm-124.4 67.1c-.6 4.5-.9 7.9-1.6 11.3-5.3 26-10.4 52-14.8 78.2-1.6 9.6-3 19-8.2 27.9-21.7 37.3-39.3 76.6-57.5 115.6-4.2 8.9-6.2 18.2-3.1 28.1 2.7 8.5 5.3 17.1 7.7 25.7.8 2.7 2.3 4.7 4.5 6.4 14.1 11 30.8 16.8 47.2 23.1 3.1 1.2 6.2 1.7 6.5-3.4 0-1.1 1.3-2.2 2.1-3.3 8-10.6 14.5-21.9 18.1-34.7 2.4-8.6 4.8-17.3 7-26 3.8-15.1 10.6-28.1 22.4-39.1 28.4-26.3 54-55.3 81.2-82.7 8.3-8.3 7.7-13.5-1.5-21.1-5.4-4.5-11.5-8.1-16.5-12.9-21-20-43.4-38.4-66.5-55.9-7.1-5.4-13.3-11.6-18.2-19-3.5-5.4-6-11.3-8.9-18.2z" class="outline" data-original-prefix="outline"/><path id="outline-ear-rt2" class="outline"  fill="#000" d="M1249.3 892c-.4 12.7-10.2 23.8-20.7 23.3-9.2-.4-17.7-10.5-17.4-20.5.4-11.9 10-21.5 21-21.1 11.1.4 17.4 7.1 17.1 18.3m-26.7 1.9c0 5.7 4 10 9 9.9 5.5 0 11-6.3 11-12.3s-3.7-8.7-8-8.6c-7.8.2-12 4-12 10.9Z" class="outline" data-original-prefix="outline"/><path id="outline-ear-rt1" class="outline"  fill="#000" d="M1333.4 762.4c-9.2 0-16.5-9.1-15.4-19.4.9-8.3 5.2-14.7 11.9-19.3 5.3-3.6 11.1-3.1 16.4.4 5.4 3.5 8 8.6 6.9 15.3-.4 2.8-.3 5.6-1.2 8.3-2.8 8.6-10.4 14.7-18.6 14.7m13.5-20.1c0-3.3-.8-6.3-2.4-9.1-3.1-5.4-9.5-5.7-13.1-.7-3.1 4.2-3.4 8.9-2.6 13.8.8 4.4 3.6 6.6 7.9 7.1 6.4.7 10.2-3.5 10.2-11Z" class="outline" data-original-prefix="outline"/></g><g id="06_Left Ear" data-trait="hi-tek"><path id="fill-ear-lft" class="fill"  fill="#fff" d="M326.7 182.1q1.65-.45 3.3.3l180.7 78.4c55.2 39.7 111.9 77.7 165.3 119.7l109.1 135.9c10.5 65.4 16.1 132 25.2 197.8 24.6 50.1 52.6 98.7 77.3 148.7 1.5 3.1 5.4 9.5 5.5 12.5.2 4.7-8.5 15.9-11.2 20.8-15.1 27.1-18.8 33.2-43.9 52.1-22.9 17.2-44.3 28.5-72.5 35.5-8 2-18.1 5.7-25.4.5l-82.9-79.1c-9.9-22-17.5-45.3-28.1-66.9l-154-109c-23.7-34.4-41.7-73.1-64.9-108.1-9.8-43.7-27.6-90.2-34.9-134.1-5.9-35.7-6.9-73.6-12.5-109.5-9.3-20.9-22.7-40-30.5-61.5-1-40.6-6.8-81.2-8.3-121.7s-1.1-11.4 2.8-12.4Z" class="fill" data-original-prefix="fill"/><path id="outline-shading-ear-lft" class="outline"  fill="#000" d="M664 558v21.5c0 22.8 19.2 43.4 30.4 61.6 38.9 63.4 63.1 129 108.2 189.8 16.2 21.8 35 41.1 51.9 62.1 4.8 5.9 9.3 10.3 9.5 18.5s-1.9 12.6-1.1 19l-.9 2.1-60.1 40.9c-13.7 0-28.1 9.9-40.7 12.4-1.5.3-2.8.5-4.2-.3l-76.6-51.4-69.8-109.7c-33.8-23.4-81.3-39.6-107.2-72.3s-6.4-12.2-10.5-17.5c.3-1.1 2.2-.4 3 0 7.1 2.9 21.5 16.6 29.2 21.8 23.5 15.5 51.4 30.4 77.4 41.6 17.3 7.5 35 10.9 52.9 16.1 7 15.4 12.9 31.5 20.2 46.8 8 16.6 27 35.1 40.2 48.8 19 20 39 39.1 59.5 57.5 1.5.2 1.8 0 1.4-1.4-1.9-7.7-7.7-31.2-11.1-36.9-4.7-7.9-16.1-19.2-22.2-27.8-25.1-34.9-42.3-72.5-64.4-108.6-7.4-12-9.8-16-22.8-22.2-38.1-18-78.4-19.1-114.3-41.7-26.9-17-34.3-26.3-51.1-52.9-25.7-40.5-46.4-86-61.2-131.8-4.2-12.9-10.9-32.4-12.7-45.3s-.3-1.6.5-1.5c14 25.4 25.6 52.8 42.1 76.9s12.8 19.9 23.4 21.1c-.5-2.4 1.1-5.1.8-7.3-1.4-11-12.7-28.8-16.3-39.7-3.8-11.7 2.7-30.6 3.5-43.5 3.6-59-24.7-121.5-55.6-170.4-12.4-19.7-28.5-37.1-37.4-59.1h16.5c8.6 0 8.7 2.4 14.2 5.8 15.3 9.7 32.5 17.5 48 27 30.2 18.6 67.2 68.2 84.5 99.5 2.9 5.2 12 22.4 12.8 27.2s-.9 10.1-1 14.9c-.8 41.5 1.8 83.9 11.9 124.2 3.2 12.9 5.4 24.4 15.1 33.9 1.4 1.4 2.9 3.8 4.5 1.5l24.5-44.5 55-6.5v-.2Z" class="shading" data-original-prefix="shading" opacity=".2"/><path id="fill-led-lft7" class="fill"  fill="#fff" d="M669.7 841.5c9.8-2 9.4 10.6 2.5 11.7s-9.5-10.3-2.5-11.7" class="fill" data-original-prefix="fill"/><path id="fill-led-lft6" class="fill"  fill="#fff" d="M484.7 520.6c3.7 3.7 0 13.3-6.7 10.2-8.1-3.7.6-16.4 6.7-10.2" class="fill" data-original-prefix="fill"/><path id="fill-led-lft5" class="fill"  fill="#fff" d="M409.7 431.6c3.7 3.7 0 13.3-6.7 10.2-8.1-3.6.6-16.4 6.7-10.2" class="fill" data-original-prefix="fill"/><path id="fill-led-lft4" class="fill"  fill="#fff" d="M562.7 709.6c3.7 3.7 0 13.3-6.7 10.2-8.1-3.7.6-16.4 6.7-10.2" class="fill" data-original-prefix="fill"/><path id="fill-led-lft3" class="fill"  fill="#fff" d="M518.7 714.6c3.7 3.7 0 13.3-6.7 10.2-8.1-3.7.6-16.4 6.7-10.2" class="fill" data-original-prefix="fill"/><path id="fill-led-lft2" class="fill"  fill="#fff" d="M391.7 292.6c3.7 3.7 0 13.3-6.7 10.2-8.1-3.6.6-16.4 6.7-10.2" class="fill" data-original-prefix="fill"/><path id="fill-led-lft1" class="fill"  fill="#fff" d="M761.7 919.6c3.7 3.7 0 13.3-6.7 10.2-8.1-3.7.6-16.4 6.7-10.2" class="fill" data-original-prefix="fill"/><path id="outline-ear-lft" class="outline"  fill="#000" d="M573 706.7c3.7 8.5 0 12.5-.8 20.5l20.6 31.4c2.5 4.2.9 9.1-1.1 13.1L568 787.5c8.4 5.5 17.7 9.5 26.3 14.7 5.7 3.4 35.9 21.9 37.7 25.3 1.7 3 .6 6.3 1.4 9.6 11.9 50.4 60.6 107 105.9 131.1 24.3 12.9 35.4 10.2 60.4 2.1 2.2-.7 5.3-.6 7.2-1.3 0 2-1.5 3.4-3 4.5-7.6 5.3-52.8 22.6-61.2 22.3-2.6 0-19.5-3.7-21.3-4.7-17-15.3-32.7-34.3-50-49-11.7-10-25.8-16.1-32-31-10.4-25.3-24.2-65.6-48.8-80.2-7.9-4.7-17.2-8.1-25.3-12.7-100.5-56.5-161.2-147.7-195.6-256.4-3.9-12.3-16.2-53.5-15.7-64.1.3-5.5 5.1-11.9 5.8-18.2 3-25.7-5.9-83.4-16.4-107.4-4.5-10.2-16.6-20.8-20-29-3.6-8.8-5.5-29.4-6.5-39.5-3.1-32.9-8.7-93.7-1.3-124.3 1.3-5.6 1.1-10.4 7.8-10.2 11.2.4 35 8 46.3 11.8 89.3 29.6 189.9 78.4 265.5 134.5 17.7 13.1 38 37 53.2 53.8 39.6 43.9 77.2 92.8 110.1 141.9 3 4.4 4.7 3.6 5.4 10.6 2.1 21.1 1.2 43.6 3 65 4.4 51.5 12.5 128.1 42.2 170.8 3.6 5.2 8.8 10.1 12 15 7.4 11.4 13.7 33.5 20 47 8.4 18 19.9 31.7 20.8 52.2.2 3.2.5 7.5-.5 10.5-14.5 18.3-21.9 41.3-42.8 53.2-3.3 1.9-9 5.7-12.7 4.8 14.9-17.2 31.2-42.5 27.9-66.4-6.7-13.7-9.4-29.6-15.7-43.3s-16.2-27.8-23-42c-15.9-32.7-35.5-69.7-38.1-105.9-.7-27.5-4.4-54.7-7-82-2.4-24.8-1.9-68-15.6-88.4-11.2-16.8-29-37.7-42-54-40.5-50.6-77-87.4-130.7-124.3-65.4-45-147.9-94.6-220.4-126.6-5.4-2.4-49.5-20.1-51.4-18.1-2.4 24.7-.9 49.7 2.1 74.4 1.8 14.4 5.2 46.1 11 58 6.3 13 13.2 22.2 18.1 36.9 1.3 3.9 6.6 26.5 7.7 27.3 1.2.9 1.8 0 2.8-.3 8-3.1 23.8-19.6 32.3-16.8 5.3 1.8 33.4 51.9 39.9 59.1l13-8-67.1-103.3c-17.5 2.5-29.9-17.9-17.2-31.1 1.8-1.9 6-2.9 5.4-4.6l-24-39.1c-.2-1.5 0-1.7 1.5-1.5 7 1 21.2 16 27.6 20.5 7 4.9 15.7 7.3 22.4 12.6 10.5 8.1 24.9 24.1 35 34 38.8 37.8 64.8 66.6 86.6 117.4 1.8 4.2 8.3 18.1 8.6 21.4.7 7.3-5.5 27.3-6.7 35.9-7.5 53.7-.2 104.7 26.7 152 5.5 9.8 22.6 33.8 35.2 21.9 5.1-4.9 9.1-31 11.5-39.5 2-7 8.6-30.1 12-35 2.2-3.2 13.2-9.4 17.2-11.8 12.6-7.8 25.9-15.1 39.3-21.2 1 1.1-9.1 24.9-9.8 28.7-3 17.8 8.2 69.7 15 87.5 5.4 14.1 13.7 25.2 23.2 36.8 45.9 55.8 63.5 122 103.3 180.7 4.2 6.2 18.6 23.1 19.2 28.8.3 2.6-.3 5.4 0 8 .6 4.9 3.1 17.6 1.5 21.5-1.4 3.2-26.3 24.1-28.5 22 3.8-9.9 6.1-17.6 5-28.5-3.2-32.9-38.5-93.3-56.2-122.8-1.9-3.2-13.6-22.1-15.5-22.6l-38.2 25.2 61.1 93.5c19.4-2.8 31.1 20.4 14.8 32.7-11.6 8.8-28.3-.2-28.7-14.2 0-4.8 2.8-8 3.2-12.3l-21.7-33.9c-9.8.7-22 19-31.3 8.8-3.5-3.8-11-19.9-13.6-21.4-1.5-.9-7.3-.7-11-2-19.8-7.5-12.8-38.1 10.4-34.4 8.2 1.3 14.7 10.2 14.5 18.3 0 3.7-3.9 9.2-3.7 10.9s10.5 17.7 12.3 17.7 14.2-8.5 14.3-9.5L675 812.4c-1.5-8.8 16.7-11.8 15.2-17.1l-80.6-123v18.5c0 4.7 5.3 19.7 7.2 24.8 2.8 7.2 6.7 13.8 9.8 20.7l-54-29.3zM389.8 293.2c-6.2-6.2-14.8 6.6-6.7 10.2 6.8 3.1 10.5-6.5 6.7-10.2m49.3 77.7c.8.6 2.7-.3 3.6-.7 1.6-.6 16.6-9 17.3-9.7.6-.7 1-1 1.1-2 .3-3.5-15.2-21.8-18.6-25.5-5.5-6.1-30.6-31.1-36.6-33.4-1-.4-1.8-.8-3-.5 1.4 4.4-3.9 8.4-2.5 11.9 12.6 18.5 24.3 37.7 37 56.1.8 1.1 1.5 3.7 1.6 3.9h.1Zm30.7-.7c-3-1.7-18.8 10-22.9 11.3 3.2 8.5 24.2 32.6 24.1 40 0 6.4-16.1 11.9-19.9 17l26.2 40.6c1.4 4.1.8 5.8-2.5 8.4-12.9 10.2-30.5 17.8-43.5 28.6-.8 1 0 1.8.3 2.7.8 2 12.7 20 13.9 20.2 3-2.3 12.7-6.9 14.5-9.3 2-2.8-.1-8.1 3.5-13.5 8.3-12.5 27-10.2 31.9 3.9l1.5 10c11.2-24.6 9.3-53.2 4.7-79.2-3.3-18.2-8.7-35.7-16.5-52.5-1.6-3.5-14-27.3-15.4-28.1ZM412 605l42.9-27.6c-11.2-20.1-25-38.9-37.3-58.4-1-2.2-.8-4.8 0-7 1.9-6 45.6-28.5 45.6-32.4s-9.5-16.4-10.5-16.5c-7.5 3.4-21.1 18-29.3 14.2-4.2-2-12-19.8-15.2-21.8-1.8-1.1-5-.2-7.3-.7-23.6-5.5-17.4-37.6 4.8-35.8 9.1.8 16.3 9.3 16.1 18.4 0 3.9-3.6 9.4-3.4 11 0 .9 9 14.8 9.8 15.2 1.5.8 6-2.6 7.5-3.6 2.1-1.3 9.4-5.6 9.5-7.5l-46.4-70.4-25.7 16.4-1 2c2.1 11.6 5.7 23.3 7 35 3.6 31.8.8 57.1 8.5 89.5 6.5 27.1 15.6 53.6 24.5 80zm-4.2-172.8c-6.2-6.2-14.8 6.6-6.7 10.2 6.8 3.1 10.5-6.5 6.7-10.2m75 89c-6.2-6.2-14.8 6.6-6.7 10.2 6.8 3.1 10.5-6.5 6.7-10.2m7.9 17.9c-1.2.3-2.4 2.4-4 3.1-2.1.9-6 1.9-8.2 1.9-4.5 0-9.9-4.1-11.8-3.9-.9 0-14.5 8.4-14.6 9.3l69.3 104.4c.9 0 14.7-9.1 15.2-9.9 1.9-3-12.8-47.3-15.3-53.8-5.5-14.5-12.2-28.2-21-41-1.7-2.4-6.7-10.9-9.5-10.2h-.1Zm-16.8 68.7c1-1.8-3.3-7.8-4.5-9.8-1.1-1.8-6.1-10.1-7.8-10l-42.7 27.4c-.7.5-1 1.2-1 2-.3 2.9 11.5 24 13.9 28.2 21.6 38.2 58.6 86.8 92.7 114.3 4.8 3.8 26.5 20.2 31 20.1s20.1-13.6 25.6-15.7c.2-1.6-2.7-5.7-3.7-7.3-1.8-3-14.4-23.2-15.6-23.9s-5.7 0-8.1-.4c-20.3-3.7-19.5-32.4-.2-35.7 1.5-.2 8.5.9 7.4-1.6s-7.1-6.1-9-8c-3.8-3.6-7.5-6.1-8.7-11.3-.6-2.6-2.5-18.5-3.3-19.2-10 3-20 19-28.8 5.3l-29.7-45.3c-5.6 4.3-14.4 7.9-19.5 12.5-.8.7-2.1 1.1-1.7 2.5l45.7 70.9c19.7-7 33.9 19.7 16.8 31.5-15.8 11-34.6-6.1-26.2-23.1-12.9-25.3-33.4-48.7-47.2-73.4-2.7-4.8-5.9-9.2-1.1-13.9l25.4-16.1zm161.8 12.4c-9.4 2.1-21.3 24.9-22.5 34l88.5 134.7c1.6.5 16.8-8.7 18.3-10.4 1-1.1 1-1 .6-2.5-.5-1.9-7.1-10.8-8.8-13.3-13.6-19.6-29.2-38.1-46.3-54.7-1.1-23.3-4.5-46.6-12.5-68.5-2.9-7.9-6.5-21.7-17.3-19.3m-74.9 90c-6.2-6.2-14.8 6.6-6.7 10.2 6.8 3.1 10.5-6.5 6.7-10.2m-44 5c-6.2-6.2-14.8 6.6-6.7 10.2 6.8 3.1 10.5-6.5 6.7-10.2m151 127c-7 1.4-4.1 12.7 2.5 11.7s7.3-13.6-2.5-11.7m92 78c-6.2-6.2-14.8 6.6-6.7 10.2 6.8 3.1 10.5-6.5 6.7-10.2" class="outline" data-original-prefix="outline"/></g><g id="07_Head" data-trait="caesar"><path id="fill-head" class="fill"  fill="#fff" d="M904 1072c-9-5.7-18.5-12-25.5-20-3.8-4.3-15.5-24.5-17.5-25.6-3.8-2-8.9 3.8-6.7 7.8 10.2 18.4 2.8 13.2-7.8 3.8-9.4-8.4-17-18-20.8-30.2-1.2-3.9-2.9-17.1-5.1-18.9-6.1-3.5-28.5-7.3-32-12-2.9-3.8-3.9-20.2-3.4-25.3 1.4-14.3 14.6-50.2 21.7-63.3 3.9-7.2 8.2-6 14.8-9.2 9.5-4.5 18.7-9.5 28.3-13.7 8.4-3.7 19.7-5.1 26-12 10.2-11.3 10.9-19.7 26.8-27.2 18.3-8.6 37.3-8 56.3-11.7 12.8-2.5 25.2-9.4 37.7-12.3 26.5-6.1 56.2-4.6 82 3.4 8.1 2.5 17.1 7.4 25 9 21 4.4 38.5 2.1 58.9 13.1 14.5 7.8 15.6 15 24.9 26.1s45.9 19.3 59.7 30.3c8 6.3 18.9 38.2 21.9 49.1 2.4 8.4 9.9 41.5 2.2 46.7-2.8 1.9-17.1 3.7-21.9 5.1-14.3 4.3-10 5.4-16.8 16.2-5.5 8.7-11.9 17.5-19.8 24.2-1.6 1.4-4.8 1.8-5.6 3.4-1 2-.2 5.4-.9 8.1-1.8 6.8-3.8 11.7-10.5 14.9-2.2-16.7-17.8 6.7-23 11.5-2.3 2.2-10 8.6-12.5 9.5s-.8-1.2-.7-1.7c.7-11.8 1.9-29.1-1-40.5-5.1-20.1-18 7.1-20.9 13.6-1.1 2.4-1.1 6.4-2.8 8.2-1.1 1.3-9.2 4.8-12 7-3.8 3-6 7.2-9.1 9.9-4.4 3.8-13.2 8.1-18.5 11.4-.9.6-1.7.7-1.4 2.1v-11.5c1.2-5.4 1-21.1-1.5-25.5-5-8.7-12.6 6.2-15.5 9.4-2.7 3-6.5 6.9-9.5 9.5-12.2 10.3-29.6 14.8-34.5 32l-7.5-12c-11.5-8.7-19.3-16.5-29-27-8.5-9.3-15.7-17-22 0-.5 1.3-2.5 8.7-2.5 9.5v15.5c-6.5-6.7-15.8-8.9-22.9-13.6-9.6-6.3-17.8-16.6-23.9-26.1-3.7-5.8-14.3-31.1-19.8-11.4-.2.9-1.4 7.1-1.4 7.6v32.5Z" class="fill" data-original-prefix="fill"/><path id="outline-shading-head" class="outline"  fill="#000" d="M1169 964.5c-.4 3.2-3.9 10.1-3.9 13 0 .9 5 15.6 5.7 17.2 4.2 8.8 13.4 14.4 22.2 7.8 2.3-1.7 9.1-9.3 10.2-11.8 3.7-8.4.2-19.1 1.8-27.2 1.8-9.7 21.6-.6 24.2 5.7l1.7 8.7c4-7.9 2.3-15.3 3-23.5 1.2-13.4 9.3-9.5 14-19 2.5-5.1 1-8.8 2.2-12.8 1.1-3.8 7.5-3.8 9.7 0 4 6.9 5.3 22.1 9.1 30 .1 3.3-4.8 9-7 11.9-11.3 14.8-24.6 28.3-37.5 41.5-14.1 14.5-32.3 35.2-47.5 47.5-3.6 2.9-6.2 5.6-9.4.4l-7.7-36.8c-1-.9-13.4 1.4-14.8 2.5-4.2 3.1-8.9 25.6-13.6 31.4-5.6 6.8-19.9 13.8-26.5 20.6-2.2 1.1-4.2.6-5.4-1.5-1.7-3.1-6.4-31.1-8.1-31l-7 3c-15.9 12.5-31.9 32.6-48 44-3.9 2.8-6.3 2.1-10-1-7.1-5.9-14.9-16.8-22.5-23.5-2.7-2.4-18.9-15.7-20.7-16.3-2.9-1-2.2 1.3-3.8 2.9-3.3 3.5-17.1 19.6-20.1 20-2.8.4-6.4-2.6-8.4-4.5-7-6.6-14.2-16-21-23-2.5-2.5-16.1-16.8-17.7-17.3-1.9-.6-4.2-.6-5.8.8-4.2 3.7-8.7 22.8-12.9 27.1-7.5 7.7-17.6-12.7-20.3-17.8-.6-1.1-1.1-4.1-1.3-4.2-.4-.3-5.5 1.1-7.4 1-4.3-.2-16.7-2.1-20.8-3.3-9.6-2.9-12.5-11.1-15.1-19.9-2-6.7-2-19-7.4-22.6-7.4-4.9-18.8-8.1-22.6-17.4-4.1-10.1 5.2-10.1 11.5-13.9 11-6.7 15.6-13.4 24.7-21.3 11.8-10.3 8.3-4 8 6-.7 20.6-.2 39.3 10.5 57.6 2.9 4.9 13.6 17.6 19.8 15.8 1.6-.5 4.4-4 5.5-5.5 7.6-10.2 14.5-28.1 21.2-39.6.6-1 2.4-1 2.9-2.4 1-3-.1-9.8.3-13.8 1.2-11.3 9.7-23.4 18.4-30.6 1.5-1.3 15.8-10.8 16.5-10l-17.8 35.8c2.5 16.3-.8 33.1 2.1 49.5 2.3 12.8 7.7 25.7 19.2 32.8 8-16.1 23.4-26.4 35.5-39.5 2.4-2.6 12.1-15.8 13.5-16.5 1.7-.8 1.6 1.2 1.9 2 3.3 8.8 5.5 18.1 9.4 26.7.9 2 8.2 18.2 11.3 13.7 2.5-3.7 6-15.9 8.8-21.1 1.7-3.3 4.3-9 7.7-10.3 2.5.6 11.8 31.5 16 35 3.6 2.9 6.3-.2 9.2-.8 2.3-.5 5.5.3 7.3-.7 1-.6 8.5-18.3 9.3-20.7 2.1-6.8 2.3-13.8 3.2-20.8 3.8 0 22.6 30.5 28.6 35.4 5.9 4.8 19.1 7.8 26.2 4.6 1.8-.8 4.5-9.8 5.1-12.2 4.8-19.8 6.2-47 2.2-66.8-.9-4.4-2.4-8.7-3.5-13 17.4 3.6 15.7 31.2 36 26-.5 5.2.6 11.4 0 16.5Z" class="shading" data-original-prefix="shading" opacity=".2"/><path id="outline-head1" class="outline"  fill="#000" d="M1091.3 875.7c2.7 2 5.8 6.1 7.6 9 7.1 12 6.9 19.2 5.1 32.7-.8 5.8-2.6 11.9-3.9 17.6l-8.7-59.3Z" class="outline" data-original-prefix="outline"/><path id="outline-head3" class="outline"  fill="#000" d="M974 880c-4.1 15.3-10 34.5-9 50.5.2 2.9 1.2 5.6 1.6 8.4.1.8 1 3.1-1.1 2.1-5.3-2.7-6-33.1-8.2-39.4 3.2-6.9 7.3-14.8 13.2-19.6 1.1-.9 1.6-2.4 3.5-2" class="outline" data-original-prefix="outline"/><path id="outline-head1-2" class="outline"  fill="#000" d="M1211 1030c-.3.3 0 5.9-.5 8-1.9 8.6-8.2 18.7-17.5 18.9l.5-9c-10.2 9-19.4 21.9-31.2 28.8-1.1.7-8.9 5.3-8.2 1.8 2.4-11.9 3.9-21.7 2.9-34.2-.2-2-2.4-15.9-3-16.5-1.1-1-2.9.4-3.8 1.7-3.7 4.8-11.5 25.4-12.6 26.4-1.8 1.6-8.5 3.6-11.9 6.1-4.5 3.4-6.7 7.8-10.8 11.2-2.6 2.2-22.2 14.8-24.6 15.4-.8.2-1.5.3-2.3.2 2.9-13.8 4.4-28.3.5-42-7 10.1-15.2 18.7-25.2 25.8-5.5 3.9-14.3 7.6-18.9 12.1-5 4.9-8.5 13.9-12 20-3.8-6.3-6-13.4-11-19-4.8-5.4-13-9.3-18.5-14.5-4.5-4.2-13.8-16.9-18-19.1-1.8-.9-4.5 2.1-5.4 3.6-2.7 4.1-4.7 15.5-4.6 20.5 0 4.1 1.9 7.4 2.1 11 0 1.5.2 1.8-1.4 1.4-4.4-1-11.5-7.5-15.9-10.1-10.7-6.3-17.3-8.8-26.7-18.3-8.7-8.9-13.3-22.1-21.5-31.5-6.7 14.8-5.2 33.2-2.5 49-2.3 2.3-20.8-11.6-23.5-14-9.4-8.2-20.1-20.1-23.5-32l-1.9 7.4 2.9 13.6c-1.9 1.7-12.1-5.9-14-7.5-17.4-14.3-27.7-30.4-31-53-16.1-8.6-33.9-3.3-36-26-1.7-18.3 3.9-36 9.9-53 2.7-7.6 11-30 17.3-33.7 9.3-5.3 26.5-12.4 37-17 7.1-3.1 17.5-5.1 23.8-9.2 5.9-3.8 10.6-14.7 15.8-20.2 18.6-19.5 49.1-17.7 73.3-22.7 9.8-2 19.5-7.3 29-10 26.4-7.7 61.3-7.8 87.6 0 9.6 2.9 21.9 9.4 31 11 25.3 4.6 48.8 1.8 69.8 21.2 5.8 5.4 12 18.2 16.5 21.5 9.1 6.7 34.5 14.6 46.3 20.7 13.3 6.8 15.1 9.3 21.1 22.9 8.7 19.5 21.4 57.2 17.1 78-2.6 12.4-23.9 10.1-33.5 14.5-5.3 9.8-10.7 19.5-18 28-1.8 2-8.8 9.6-10.4 10.6s-4.3.8-4.5 1Zm32.2-64.3c2.2 2.1 13.7 1.7 15.3-.7 3.3-5.1-2.5-30.7-4.8-37.2-3.1-8.7-16.4-27.6-23.8-33.2-12.3-9.3-28.2-11.2-41.3-20.7-12.1-8.8-22.4-22.5-33.7-31.3-10.4-8.2-32.7-8.3-46.2-11.8-35.7-9.1-60-24.2-98.8-16.2-13.9 2.9-26.5 9.5-39.8 13.2-18.4 5.2-40.7 2.2-57.5 12.5-11.7 7.1-21.4 21-31.5 27.5-13.5 8.5-31.1 14.1-44.8 22.2-20.4 12.1-34.4 42.7-34.5 65.7 0 1.9-1.2 3.7-.8 6 .7 4.7 12.3 10.5 17 10.6.6-13.5 6.6-26.2 15-36.5 1.6-2 4.4-5.9 7-6.5-.6 9.6-4.2 18.9-5 28.5-1.3 16.4 1 54 13.2 65.8.9.9.8 2.2 2.8 1.7-2.8-15 6.6-31.7 18-41-2 18.7-.3 38.1 10.6 53.9 1.1 1.5 11.9 13.8 13.4 12.1-2.3-12.2 2.6-24.1 3.9-35.6 1.1-9.4 1.2-19.3 2.2-28.8 2.5-22.5 6.3-31.3-.6-54.6-4.6-15.5-12.4-20.8-7.6-38.5 4.1-15.2 12-24.2 28-26.4l-12.8 20.7c-4.8 12.7-3.7 24.5.3 37.3 1.3 4.1 7.5 19.7 11 21 2 .8 2.4-5.1 4-6 .6-1.2 6.1-16.5 8.5-14-8 22.2-12.6 48.8-11 72.5 1.1 16.3 6.8 20.5 14.2 33.8 2.1 3.8 3.6 9.5 5.8 13.2 1.6 2.6 18.7 20.5 20 19.5 1.9-7.7 3.3-17.7 8-24.3 1.7-2.4 4.2-2.7 6.1-7.2 5.7-13.8 5-32.7 14.7-45.3.7-.8 0-1.8 2.3-1.3 2.4 22.8-.2 44.2 16 62.5 4.4 5 12.9 9.5 16.8 14.2 4.5 5.3 7.7 14.4 8.2 21.3 2.8.4 1.5-.3 2-1.5 5.2-13.1 13.1-23.2 23.8-32.5 3.8-3.3 16.4-10.7 18.5-14.2 7-12 2.6-32.4 2.8-45.7l7.5 12c10 19.3 17.2 38.4 20.5 60 .9.6 13.7-13.9 15-15.5 5.4-6.9 17.1-23.9 19.3-31.7 4-14.2.7-27.5-1.2-41.4-1.5-10.9.7-6.8 5.8-11 3.1-2.6 13.7-27.6 14.6-32.4 3.7-17.8.5-40-8-56.1-1.9-3.6-5.3-6.3-7.1-9.9 22.3 3.8 26.5 26.3 32.5 44.5 0 1.2-2.7-.2-3.1 1.1-.7 2.5.4 9.2 0 12.8-1 8.8-6.1 28.2-9.2 36.8-1.9 5.3-7.6 11.9-7.8 17.3 4.7 23.8 14.6 46.9 14.1 71.5 2.6 2.9 20.5-19.5 21.8-21.7 12.1-19.2 12.1-48.5 10.2-70.3 5.2-.5 6.4 6.9 8.1 10.2.4.8 1.5.9 1.8 1.6 4.5 10.1 6.2 21.2 7.1 32.2l3.3-6.2c4-17.3 8.4-38.7.9-55.5-2.9-6.5-8.8-12.6-12.2-18.8 11.2 4 20.7 17.2 25 28 1.5 3.8 3.8 16 6.2 18.3Z" class="outline" data-original-prefix="outline"/></g></svg>