<?xml version="1.0" encoding="UTF-8"?>
<?xml-stylesheet type="text/css" href="styles/collection.css"?>
<svg xmlns="http://www.w3.org/2000/svg" viewBox="0 0 2048 2048"><g id="01_background" data-trait="red"><path id="bg" d="M2048,4.5c-.1,679.6-.1,1359.2,0,2038.8,0,3.8-.8,4.6-4.6,4.6-679.6-.1-1359.2-.1-2038.8,0-3.8,0-4.6-.8-4.6-4.6C.2,1362.3.1,681.2.1,0h2043.3c3.8,0,4.6.8,4.6,4.6h0v-.1Z" style="fill: #af6e6e;"/></g><g id="02_Jaw" data-trait="OG"><defs>
    
  </defs>
  <path id="fill-jaw" class="fill"  class="st0" d="M1396.7,1438.7c-6.7,4.3-46.8-1.7-48.7.3l-12.2,69.8-57.2,29.3-1.4,1.6c-1.5,11.9,1.5,24.2.9,35.9-.3,4.9-1.3,15-2.3,19.7-.6,2.8-13.7,32.2-15,33.5s-16.1,8.9-16.7,8.3l-9.5-50-51,52c-7.7,5.7-20.7,9.3-27.5,15.5-14,12.7-25.2,37.4-42.1,47.9-5.4,3.3-61.3,25.7-66.7,26.3-13.8,1.7-33-3.3-47.7.2-17.7-10.3-50.1-16.2-66.1-26.9-14.3-9.6-28.3-35.6-41.4-47.6-6.7-6.1-19.9-9.6-27.5-15.4l-51-52-9.6,48.4c-.6.9-.9,1.7-2.2,1.5-.8,0-13.8-7.6-14.4-8.2-1.4-1.4-15.9-33.3-16.2-35.3l-.5-54.4-58.2-30.3-12.3-69.7c-8.1-1.2-45.1,3.9-49.5-1l-37.1-85-.5-3.4,31.5-70.6c5.3-1.6,29.1,0,31.3-6.7.8-2.3-.6-19.5-1.3-22.4-2.2-8.4-16.2-24-19.8-33.2-.7-1.7-1.2-3.1-.6-5,4.7-11.3,10.3-22.3,14.1-34,7.3-22.4,7.2-42.6,16.9-65.1,47.5-110.2,188.9-176,299.9-200.1,44.7-9.7,79.8-1.5,122.7,11.2,98,28.9,222.6,97.5,259,199,6.8,19,7,38.1,13.5,57.5,3.8,11.2,10.1,22.1,13.7,33.4,0,1.4-8.3,16.4-9.8,19.1-2.4,4.3-9.7,13.4-10.7,17.3-1.8,6.8-.6,15.6-2.3,22.5,9.9,7.9,21.3,4.2,32.4,6.5,9.6,23.9,23.5,46,31.4,70.6-9.8,26.3-22.2,51.8-33.2,77.7-1.3,3-1.7,9.3-5.1,11.4h0Z"/>
  <path id="shading-jaw" class="shading"  class="st1" d="M1380.8,1185.8c-.2.4-2.1.7-2.8,1.7-8.6,10.8-16.2,26-21,39-4.2,11.4-5.1,22.7-13,32-18.8,22.4-51.8,45.5-78.3,57.7-5.4,2.5-12.5,3.7-16.7,7.8h20.5c2.7,0,5.1,1.2,7.9,1.1,18.1-.2,64.4-19.8,77.5-32.6,5.7-5.5,14.1-15.7,15-23.5,1.8,0,.7,2.4,1.5,4,3.1,5.9,15.5,5.2,21.5,6,.2,1.6-1.5.7-2.3,2.2-4.6,8.3-4.4,21.6-10.6,28.3-7.5,8.1-37.1,13.5-48.8,17.2-14.5,4.6-29.8,8.8-42,18.1l-52.8-14.8c-19.3-2.3-9.9,15.4-5.3,25.3,5.2,11.3,20.7,40,30.4,46.6,11.9,8.2,22.7-10.2,30-17,6.3-6,16.2-11.8,24.6-14.4,17.7-5.6,32.3,4.7,50.5,5.4,17.4.8,34.6-7.7,48.8-17.2,3.6-2.4,14.6-13.9,17.2-13.8,1.7,0,3.3,6.1,1.8,7.8-10.1,24.3-21.6,48-31.8,72.2-3.7,8.8-.8,14-13,15-9.3.7-15.8-1-24.2-1.8-4.8-.4-11.8,2.5-17.3-.2l-12.9,70.6-59,30.5c.4,11,2.6,23.6,2,34.5-.3,5.7-1.3,15.4-2.1,20.9-.5,3.1-13.4,31.4-15.4,33.6-3,3.2-11.6,6.2-15.5,9-.8-4.9-2.7-10.6-3-15.5-.6-11.2,2-11.3-2.7-23.2-.4-1.1-1.9-1-2.2-2-.8-2.2-.8-6.7-1.1-9.2l-2.3.2-50.2,51.8c-7.7,5.2-19.5,8.7-26.5,14.5-14.2,11.7-24.4,36.1-41.5,47.5-6.7,4.5-54.2,25.7-61.2,26.8-9.9,1.5-51.8,1.6-61.5,0-6.9-1.2-49.7-20.5-57.3-24.7-15.8-8.9-30.2-37.8-44.4-49.6-6.9-5.7-19-9.3-26.5-14.5l-51-52c-1,8.1-7.3,16-8.1,24-.6,6.2.6,14.6-.3,21.6-.2,1.7-3,1.8-2.1,4.4-.6.7-14.6-8.1-15.5-9-1.7-1.8-15-30.8-15.4-33.6-.7-4.4-.9-13-1.1-17.9-.5-12.2.6-24.4.5-36.6l-58.5-31.4-13-69.5-48.8-.2-38-86.6.9-6.2c8.2.4,11.8,8.2,18.6,12.7,25.3,16.9,38.4,19.8,68.5,13.9,17.1-3.4,19.1-7.5,37.2.4,15.9,7,19,16.2,30.6,25.4,9.6,7.6,13.6,7.9,22-1s31.8-49.1,32.1-60c.2-8.7-6.4-8.1-13.3-7.2-8.6,1.1-48.4,15.1-51,14.6-1.7-.4-12.3-7.9-16.5-9.6-20.3-8.4-48.8-11.8-67.2-20.8-14.9-7.3-11.3-20.9-17.7-33.2-.9-1.6-2.5-.6-2.3-2.2,6.3-.9,17,0,21-5.5,1-1.4.3-3.7,2-3.5,3,11.7,15.2,23.9,25.1,30.4,21.2,13.8,50.4,23.7,75.4,23.5h20.5l-34.7-16.8c-19.1-10.8-48.2-33.1-61.8-50.2-6.2-7.8-7.1-18.3-10.5-27.5-6-16.6-14.4-32-25-46,1.3-9,6.5-19.6,7.8-28.2,1.9-12.9,1.8-19.5,6.5-32.5,36.4-101.1,159.2-169,256.8-198.2,49.9-15,102.4-18.2,153.2-5.2,103.5,26.4,242.6,100.3,277.2,208.8,3.4,10.5,3,17.3,4.8,27.2.8,4.7,8.9,28.4,7.6,30.6l-.5-.2ZM1195.9,1382.1c-32.3-16.1-63.1-35.3-95.9-50.7-17.5-18.7-37.4-36.6-54.6-55.4-4.8-5.3-11.2-16-16-20-3-2.6-7.4-3-10.6-.6-4.5,3.4-12.7,16.4-17.4,21.6-16.7,18.6-36.8,35.6-53.6,54.4-32.9,15.3-64,34.2-96,51.2-.6,2.8,12.4,35,14.6,40.3,2.9,7.1,12.1,31.7,16,36.1,7.1,8,36.5,26.3,47,33,19.8,12.7,36.1,22.9,59.3,28.7,27.3,6.8,39.7,7.1,67,.6s43-16.6,65.7-31.3c10.4-6.8,35.9-22.5,43.4-30.6,4-4.4,12.7-27.4,15.6-34.4,2.1-5.1,16.8-41,15.5-42.9M728.3,1496.7c1.6,2,8.2,6.3,10.7,7.8,14.7,8.8,31.8,13.8,46.9,23.1,16.8,10.2,40.2,33.1,59.6,33.5,2.3,0,8.7-1.2,9.4-3.7s-13.6-27.6-16.4-30.3c-7.3-7.1-27.5-17.2-37.2-23.8-15.2-10.3-50.3-39.1-67.9-39.2-10.5,0-8.7,28.1-5.1,32.7h0ZM1319.7,1466.3c-5.9-5.9-24.1,4.1-30.4,7.6-16.2,8.9-31,21.4-46.2,31.8-12.7,8.7-30.1,15.7-38.6,28.4-2.2,3.4-10.8,17.7-11.4,20.7-1.1,5.3,6.2,6.5,10.3,6.3,16-.9,23.4-9.7,35.2-17.8,9.2-6.3,19.3-13.6,29-19,11.7-6.6,47.1-19.2,52.7-29.3,2.4-4.3,2.8-25.2-.7-28.6h0ZM1126,1664c-12-2.7-20.7,6.6-31.6,7.9-5.7.7-12.2-1.2-16.6-.7-7.1.8-22.9,12.1-31.2,14.9-14.8,4.9-30.2,4.7-45.1,0-8.8-2.8-23.9-14.1-31.2-14.9-4.4-.5-10.9,1.4-16.6.7-11-1.3-19.9-11-31.6-7.4,0,6.9,23.8,23.5,30,27,12.5,7.1,59.8,26.8,72.5,26.6s59.9-19.8,72.2-26.9c10.3-6,24.6-16.2,29.3-27.2h-.1Z"/>
  <path id="outline-jaw" class="outline"  d="M676,1140c5.3-3,18.5-3.6,19.1,4.5-2,7,0,18.6-3.2,24.9s-17.1,12.9-20.3,20.7c-1.1,2.6-6.2,25.4-6.5,28.5,0,1.3-.2,2.3.2,3.6,1.8,6.8,14.7,21.7,18.7,29.4,5,9.8,6.5,20.8,10.3,30.7,5.7,14.4,14.5,13.4,26.1,19.9,7.6,4.3,16,10.2,22.7,15.8-3.8,0-7.5.2-11.2-.2-8.4-1.1-30.6-5.8-38-8.9-9.8-4.2-8.9-17-13.8-20.2-2.7-1.8-8.7-1.2-12-2-6-1.4-9.7-6.6-16.7-1.3-6,11.6-13.4,22.6-19.2,34.3-7.3,15-16,27.5-6.5,43.3,5.5,9.2,23.4,26.5,26,35,2.4,7.9-2.3,28.2,2.4,33.6,7.5,8.5,28.6,4.4,35.5-3.6,2-2.4,2.5-6.3,4-9,6.3-10.9,19-25.2,30.7-30.3,12.2-5.3,16.1,11.4,18.4,20.3,3.6,14.2,1.3,26.5,12,38,6.7,7.3,18.2,14.5,27.2,18.8,4.7,2.2,21.2,9.9,25.3,10.7,12.8,2.4,25.4-6.5,32.6-16.5,2-2.8,2.8-6.3,4.7-9.3,9-14.8,16.3-6.2,25.8,1.8,11,9.2,20.9,19.8,32,29,45.8,38.3,90.7,54.1,151.4,45.3,58.2-8.4,83.7-40.7,125.7-75.3,2.2-1.8,8.8-7.7,10.8-8.2,12.1-3.2,14.2,10.5,19.7,17.8,5.7,7.4,15.3,15.6,25,16,7,.3,27.7-8.7,34.9-12.2,10.9-5.3,28.8-17.6,32.4-29.6,2.2-7.6,2.6-17.3,4.6-25.4,2.3-9,6.1-26.7,18.6-21.2,9.4,4.1,22,16.8,27.5,25.5,5.6,8.9,3.9,13.8,14.9,19.1,7.3,3.5,20.9,5,27.1-1.3,5.8-5.8.5-25.5,3-34,2.6-8.8,20.8-26.2,26.4-35.6,8.1-13.8,2.8-20.8-3-33.7-6.7-15-15.5-28.9-23.1-43.4-6.9-5.2-11.2-.2-17.5,1.5-3,.8-8.4,0-11.2,1.8s-5.1,12.8-8.6,16.4c-2.4,2.4-6.7,4-9.9,5.1-7.8,2.7-25.9,6.9-34.1,7.9-3.4.4-7,0-10.4,0,6.2-5.6,14.7-11.2,22.1-15.4,10.5-5.9,20.2-6.1,25.7-18.3,4.2-9.5,5.8-20.9,10.4-30.6,4.3-9,17.4-23.9,19.4-31.6.4-1.7.5-2.5.2-4.2-.6-4.5-5.3-24.5-6.9-28.2-3.4-7.8-19.2-16-20.8-22.2-.9-3.4-2.7-24.1-1.6-26.4,2.2-4.5,13.6-3.5,17.5-1,.8,2.8,2.9,13.6,4.2,14.8,4,3.5,21.3,4.8,24.5,11,2.5,4.8,0,15.5.2,21.8,0,2.9.8,7.8,1.3,10.7,1.5,8.6,9.7,23.3,7,30.5-2.3,5.9-12.8,22-16.8,28.2-3.3,5.1-7.9,9.5-10.4,15.1.7.7,9.7-4.6,10.9-5.6,5.4-4.1,7.6-12.1,14.6-5.5,4.7,4.4,13.6,18.5,17.5,24.5,10.1,15.9,19.6,34.4,25.7,52.3,1.6,4.7,5.8,14.8,3.7,19.2-.7,1.6-9.2,9.8-11.3,12.7-16.3,21.9-31.2,47.4-32.7,75.3-.8,1.3-2.2,1.8-3.5,2.5-5.7,2.8-27.3,11.7-32.6,12.4-3,.4-6.5.3-9.5-.3-4.5-.9-7-4.1-10.9-5.6-1.1,9.1-2.6,18.4-3,27.5-.4,7.8,1.5,32.2-.6,37.4-.4,1.1-11.8,14.9-12.7,15.3-3.8,1.8-11.7.3-16.3.7-13.5,1.3-21.2,15.2-25.2,26.8-4.6,13.3-5.2,27.9-9.2,40.8-5.8,19.3-37.7,50-54.2,61.8-.9.6-4.2,3.4-4.9,2.6,1-15.3,2.8-31.2-2.6-46-.3-.9-1.8-5.7-3.4-4-.6.6-3.5,12.5-6.2,16.3-8.3,11.9-29.2,7.9-37.8,19.2-9.5,12.3-7.6,28.7-22.1,38.9-32,22.4-79.6,38.4-117.7,46.3-12.4,2.6-16.8,2.3-29-.4-35-7.6-67.9-18.6-99.2-35.8-5.1-2.8-20.9-11.4-23.8-15.2-6.2-8-8.6-25.8-15.6-34.4-9.6-11.7-30.7-5.5-39.2-21.8-1.5-2.8-3.8-12.7-4.3-13.2-1.8-1.8-3.8,4.8-4,5.4-4.5,13.8-3.1,29.3-2,43.5-1.7,1.8-16.8-10.7-19-12.5-15.1-12.7-36.9-37.3-41.5-56.5s-7.6-59.5-33-62c-4.4-.4-13.1,1-16.5-.5-.9-.4-12.1-14.4-12.5-15.5-2.6-7.5-.2-27.3-.6-36.4s-2.3-19.1-3-28.5c-.4-.5-9.5,5.3-11.7,5.8-13.3,2.8-32.2-10.6-45.1-13.9-.7-27.4-14.8-51.6-30.3-73.2-2.2-3.1-4.5-6.2-6.8-9.2-4.1-5.2-7.9-4.8-6.9-12.9,1.3-10.6,13.1-35.4,18.4-45.6,3.6-6.8,26.1-44.2,31.2-45.8,7.3-2.2,13.1,11.5,21.3,11.8l-25.5-40.9c-4-9.3,4.3-21.7,6.2-31.8s.2-19.2,1.3-28.7,18.5-11,25.8-14.7c2.6-2.8,1-6.8,1.5-9,.4-1.9,1.3-3.7,1.8-5.8h-.5ZM799,1627.5v-20c0-3.1,8.8-25.7,11-27,4.3-2.7,20.4,9.8,24,13,12,10.5,20.7,26.3,32,36,8.5,7.4,21.1,12,29.5,19.5,10.9,9.6,20.1,26.5,30.5,37.5,11,11.7,29.8,18.4,44.7,24.3,25.1,9.9,38.9,14.1,66.8,12.3,16.1-1,62.3-19.4,76.4-28.6,13.7-8.9,25-32.9,37.6-44.4,9.3-8.6,24.5-14.2,33.6-22.4,10.1-9.2,18.3-23.6,29.4-33.6,3.6-3.3,19.9-16.8,24.4-13.8.8.6,6.9,16.7,7.6,18.9.5,1.7,2.5,8.4,2.5,9.5v17c0,.6-1.6,2-1,3.5,10.4-10.7,20.8-25.9,23.6-40.9,2.4-12.9,1.4-27.4.4-40.5-.3-4-2.6-6.9-.8-10.8,3.7-8.5,20.8-15.9,29.2-19.9s24.7-7.7,29.1-15.9c4.6-8.5,2.6-32.2,3.7-43.3,1-10.3,7.7-19.4,6.9-29.1-.6-6.6-5.4-16.3-10-21-1.5-1.5-8.2-6.7-10-5.5-1.8,1.3-7.1,27.7-7.1,31.5,0,7.3,4.4,13.6-2.4,19.5-17.3,15-41.2,23.8-61.1,34.9-5.5,3.1-23.5,16.8-28.6,16-2.7-.4-5.4-3.6-9.2-3.9-11.7-.8-14.9,8.5-22,15-16.4,14.9-41.2,22.8-63,25-69.3,7-135.6,7.1-205,0-22-2.2-45.8-9.7-62.5-24.5-7.2-6.4-10.9-16.4-22.5-15.6-3.7.2-7.5,4-9.8,3.8-5.4-.5-21.2-12.7-27-15.9-13.4-7.4-27.8-13.2-41-21-4.6-2.7-22.9-14-23.7-18.3-1-5.2,1.1-10.4,1.1-15s-5.6-31.3-7.6-31.5c-7.7-.9-16.7,15.1-18.5,21.5-4.1,14,4.6,20.6,5.9,34.2,1.4,13.7-4.1,40.6,8.8,49.2s39.9,13.7,50.8,26.2c5.6,6.4,1.4,8.6.7,15.6-3.2,29.7,1.3,54.7,20.9,77.8.5.6,3.9,4,2,1l-.3-.3Z"/></g><g id="03_Mouth" data-trait="OG"><path id="fill-muzzle" class="fill"  fill="#fff" d="M1125 1622c-3.4-2.3-6.5 6.6-8 8.5-3.7 4.7-17.7 19.6-23.5 19.5-2 0-5.3-4.8-7.8-6.2-7.4-4.3-19.1-5.3-26.8-1.4-4.2 2.2-10.1 9.4-13.4 9.7-7.7.5-10.7-10.3-17-11.2-2.3-.3-9.7-.3-11.5.6-3.2 1.4-8.9 10.8-13.7 11.3-3.1.3-10.3-8.4-13.4-10.2-6.5-3.8-16.5-3-23.5-.6-4.3 1.5-10.5 8-12.8 7.8-5.8-.5-18.9-14.5-22.7-19.3-1.6-2-2.1-4.7-3.5-6.4-5.4-6.8-5.6 3.9-7.6 7.3-9.4 15.7-21-13.3-24.8-18.9-2.4-3.5-7.2-5.7-10-9-9.7-11.6-6.4-27.5-10.3-40.7-1.7-5.8-11.6-19.5-14.9-27.1-10-22.6-12.3-43.5-10.8-68.2-2.4-7.1.4-27.9-4.5-32.5-2.1-2-6.1-2.7-8.5-4.5-5.9-4.5-12.8-32.2-11.9-39.8 1.1-9.4 12.1-25.4 18.4-32.6 12.3-14.3 37.4-24.6 56-26 4.8-.4 28.1 1.1 29.5.5s5.1-5.4 7.1-6.9c8.7-6.5 17-9.5 27.7-11.3 3.7-.6 7.6.4 11-1 3.1-1.3 11.4-13.2 17.3-16.7 10.5-6.1 38.9-5.7 51.5-4.6 5.7.5 13.4 3.6 18 7 3.7 2.8 11.2 13.2 13.8 14.2 3.3 1.4 7.3.4 11 1 8.9 1.5 16.5 3.9 24.1 8.9 2.7 1.8 9.7 8.9 10.7 9.3 1.3.6 23.9-.9 28.5-.6 16.1 1.1 33.8 7.8 46.8 17.2 12.1 8.8 30.2 32.8 28.7 48.3-.4 4.3-7 26.5-9.2 29.8-3.6 5.6-10.6 4.5-13.7 10.3l-3.2 43.8c2 20.7-2.7 38.4-11.1 56.9-3.2 7-11.5 17.9-13.4 23.6-4.4 13-.9 27.8-9.6 40.4-2.9 4.2-8.2 6.2-10.8 10.2-1.6 2.3-2.2 5.7-3.8 8.2-2.8 4.2-10.6 16.7-16.2 14.9-7.1-2.2-6.8-12.8-8-13.6h-.2Z" class="fill" data-original-prefix="fill"/><path id="fill-teeth16" class="fill"  fill="#fff" d="M995.3 1525.7c11 9.5 17.2-6.6 23.2 6.3 6.5 14.1 3.7 38.4-1 52.9-.7 2.1-7.1 16.9-8 17.1-1.2.3-3-.4-4.2-.9-12-5.1-31.7-18.1-39.1-28.9-10.6-15.5-6.4-42.9 6.8-55.8 1.3-1.3 9.1-5.6 10.4-5.3 1.5.3 9.4 12.3 12 14.5h-.1Z" class="fill" data-original-prefix="fill"/><path id="fill-teeth15" class="fill"  fill="#fff" d="M1039.1 1601.9c-.8-.5-7.5-16.1-8.1-18.4-4.1-13.8-6.5-36.9-1.3-50.3 4.6-12 8.1-4.3 15.8-4.2 9.5.2 17.3-18.2 20.8-17.9 1.2 0 8.5 4.2 9.7 5.3 6.3 6.2 12.2 22.3 13 31 2.4 28-20.3 39.6-41.3 50.7-2 1.1-5.7 5.5-8.6 3.7Z" class="fill" data-original-prefix="fill"/><path id="fill-teeth14" class="fill"  fill="#fff" d="M904 1461c0 2.2-1.1 3.8-.8 6.2.2 1.8 7.1 22 8 23.1 3.9 5.1 11.2 3.2 16.7 3.8 4.9 13.5-4.2 23.8-8.6 35.6-2 5.3-8.7 33.1-12.8 34.2-1.8.5-6.8-9.1-8.3-10.7-10.3-23.9-15.3-58.4-2.6-82.2.6-1.2 7.1-11.6 8.4-10.1Z" class="fill" data-original-prefix="fill"/><path id="fill-teeth13" class="fill"  fill="#fff" d="M1144 1564c-2.1 1.4-6.1-7.1-6.8-8.7-3.2-7.9-4.4-17.4-7.5-25.5-4.3-11.6-13.6-22-8.6-35.6 4.8-.6 12.3 1.2 15.9-2.9 1.3-1.5 8.1-20.6 8.6-23.2.3-1.8-1.4-7 .9-6 6 2.7 13.7 26 14.4 32.6 1.4 13.9-2.9 45-9.3 57.4-.8 1.5-7 11.6-7.6 11.9" class="fill" data-original-prefix="fill"/><path id="fill-teeth12" class="fill"  fill="#fff" d="M1093.1 1644.9c-2.9-1.8-2.4-28.5-2.1-33.4.7-10.5 5.2-31.2 8.9-41.1 1.1-2.8 2.4-1.4 4.2 0 12.2 9.6 21.1 44.8 12.8 57.9-1.9 3-15.6 14.9-18.9 16.1-1.3.5-3.8 1.1-4.8.4Z" class="fill" data-original-prefix="fill"/><path id="fill-teeth11" class="fill"  fill="#fff" d="M949 1569c5.5 22 11.1 44.4 9 67.5-.5 5.2-.9 10.3-7 8-3.4-1.3-17.5-13.4-19.5-16.5-5.8-9.2-1.4-31.3 2.7-41.2 1.2-2.9 11.3-21 14.8-17.7Z" class="fill" data-original-prefix="fill"/><path id="fill-teeth10" class="fill"  fill="#fff" d="M881.7 1478.3c3.1 2.8-2.7 21-2.8 26.2 0 5.9 2.6 12.4 3.1 18 .2 2.1.7 24.5-.5 24.5-1.5.2-2.1-1.1-2.9-2.1-15.6-18.9-34.8-51.8-17.4-75.3 6.5-8.8 10.5 2.1 14.9 5.8 1.8 1.5 4.9 2.1 5.7 2.8Z" class="fill" data-original-prefix="fill"/><path id="fill-teeth9" class="fill"  fill="#fff" d="M1185.7 1467.3c1.9 1.6 7.8 13.7 8.2 16.2 3.2 20.7-9.8 47.3-23.9 61.9-.9 1-1.3 1.9-3 1.5.5-8-.7-16.6 0-24.5.4-5.4 3.1-12.3 3.1-18s-6.1-23.4-2.8-26.2c.6-.6 2.5-.6 3.8-1.7 3.4-3 10-13.1 14.7-9.3Z" class="fill" data-original-prefix="fill"/><path id="fill-teeth8" class="fill"  fill="#fff" d="M1018 1613v16.5c0 .9-10.8 13.2-11.9 14.1-6.3 4.8-8-2.6-10.6-5.5-5.5-6-17.9-.4-24.4-5.6-1.2-.9-4.1-8.8-4.1-9.9v-22.5c12.9 1.7 28.3 17.5 41.4 15.9 3.5-.4 6.1-3 9.6-2.9Z" class="fill" data-original-prefix="fill"/><path id="fill-teeth7" class="fill"  fill="#fff" d="M1031 1613c6.3 1.3 9.1 4 16.1 2.6 10.6-2.2 24.3-14.8 33.4-15.6 2-.2 1.4 0 1.2 1.3-.8 6.5 2.4 27.5-4.4 31.6-7 4.2-18.8-.3-23.4 4.6-2.1 2.2-3.6 8-8.4 7.6-1 0-14.6-13.5-14.6-14.6V1613z" class="fill" data-original-prefix="fill"/><path id="fill-teeth6" class="fill"  fill="#fff" d="M1102.5 1494c3.3-.8 4.5 6.9 5.3 8.7 5.6 12.1 13 24.8 13.3 38.8.2 9-16 29.8-21.3 16.2-4-10.4-4.1-44.8-1.1-55.5.4-1.6 2.4-7.9 3.8-8.2" class="fill" data-original-prefix="fill"/><path id="fill-teeth5" class="fill"  fill="#fff" d="M937.3 1559.7c-1.9-1.6-7.8-10.5-8.5-13-3.6-12.1 6-31.3 11.4-42 1.6-3.1 3.3-14.7 8-7.4 5.5 8.5 4.3 41.5 2.7 52.1-1.2 7.7-3.6 18.7-13.6 10.3" class="fill" data-original-prefix="fill"/><path id="fill-teeth4" class="fill"  fill="#fff" d="M917 1563c-1.8 13.4 2.9 27.5 2 40.5-.6 9-4.4 18.4-5.5 27.5-6.2-6-10.5-16.1-11.4-24.6-.5-5.2.7-24.7 2.4-29.3.6-1.6 10.5-16.2 12.4-14.1Z" class="fill" data-original-prefix="fill"/><path id="fill-teeth3" class="fill"  fill="#fff" d="M1135 1631c-.4-8.9-4.4-17.8-5.1-26.5-1-13.8 3.7-27.6 2-41.5 2.2-2.4 11.9 13 12.5 15 2 6.6 2.6 27.4 1.2 34.3-1.3 6.3-5.5 14.9-10.8 18.7z" class="fill" data-original-prefix="fill"/><path id="fill-teeth2" class="fill"  fill="#fff" d="M1154.1 1604.9c-3.4-2-5.1-22.3-3.9-26.2.8-2.6 8.9-5.2 10.2-8.8l5.1-10.9c3.8 3.4 5.1 7.2 4.3 12.2-.7 4.2-5.4 22.7-6.9 26.2-.9 2.2-6.1 9-8.8 7.5" class="fill" data-original-prefix="fill"/><path id="fill-teeth1" class="fill"  fill="#fff" d="M885 1559c-.3 3.7 1.7 9.4 4 12.2s9.5 5.2 10 8.3c-2 8.4 1.6 19.2-5.7 25.4-3.6-1.1-6-4-7.4-7.4s-6.5-23.6-6.9-27.1c-.5-4.2 1.2-10.6 5.9-11.4z" class="fill" data-original-prefix="fill"/><path id="outline-shading-mouth2" class="outline"  fill="#000" d="M918 1443.5c.8 5.3 5.6 13.8 10.1 16.9 11.5 8.3 16.2-.3 22.4-9.4 2.5 5.4 3.4 11.5 6 17 1.4 2.8 5.7 12 7.5 5.5l4-11.5c1.6 7.5 6.3 15.4 11.5 21 4.3 4.7 18.8 15.4 24.6 9.6 2-2.1 8.3-17.9 10.8-22.2 1.2-2.2 7.8-13.8 9.7-13.3 1 .2 8.5 13.2 9.7 15.3 2.4 4.5 7.3 17.7 9.8 20.2 3.8 3.8 10.5.4 14.4-1.8 10.5-5.9 18.5-17.2 21.7-28.8l4.2 12.3c.3 1.2 1.9 2.4 2.8 1.7.6-.4 5.8-11.3 6.5-13 .8-2 2.8-12 4-12 6.8 10.7 12.9 18.4 24.5 7.5 8.6-8 9.3-23.8 7-34.5 3.5-3.1 21.1 16.1 26.6 16.9 9.1 1.4 17.6-11.8 19-19.9 3.5-20.5-12.9-39.2-30.9-46.2l-12.7-4.8c15.4 0 28.2 2.9 41.1 11.4 4.8 3.1 12.2 10.9 17.6 11.4 6.2.6 10.1-4.1 10-10-.4-19.3-25.8-38.1-39.7-48.8 15.4 2.4 34.6 11.8 45 23.5 7.8 8.8 19.1 25.1 19.1 37s-6.4 28.5-9.2 32.8c-3.3 5.3-11.7 5.4-13.4 10.6-.9 8.1-2.1 16.4-2.5 24.5-1.5 29 1.4 45.2-10.8 73.2-3.6 8.2-12.7 20.4-14.9 27.1-4.2 12.8-.7 26.4-9.1 38.9-3.2 4.8-8.4 6.7-11.2 10.8-1.7 2.5-2.4 6.1-4.2 8.8-4.5 6.7-14.6 23-21.6 8.9-1.6-3.3-1.3-12.9-6.7-6.2-1.4 1.7-1.9 4.4-3.5 6.5-3.7 4.7-17.7 19.6-23.5 19.5-2.2 0-4.5-4.1-6.6-5.4-7.9-5-21.1-6.3-29.2-1.4-7.3 4.4-9.5 13.6-18.1 6.8-8.6-6.7-6.4-10.8-20.1-9-5.6.7-11.4 12.6-16.9 12.1-2.8-.2-11.4-11.1-18.5-12.6-6.3-1.3-17.5.7-23 4.2-2.6 1.7-4.1 5.6-7.5 5.4-5.7-.3-19.8-15.8-23.6-20.5-1.2-1.5-4.4-10.6-7.1-6.9-2.5 3.4-.6 9.9-7.2 12.7-7 3-14.9-11.2-18.1-16.4-1.2-1.8-1.2-4.3-2.6-6.4-2-3-6.8-5.4-9.5-8.5-10.4-11.9-6.7-27.7-10.7-41.3-.8-2.6-5.6-8.5-7.3-11.7-18.4-35.7-16.4-45.6-18.4-84.6-.4-7.7-.6-20.7-2.2-27.8-1.5-6.2-11.1-6.1-14.2-11.8-3.4-6.1-9.3-29.6-8.6-36.4 1.2-10.3 16.2-31.2 24-38 10.5-9.2 26.2-16.5 40-18.5l-21.5 17c-7.2 6.4-26.8 32-14.8 39.9 9 5.9 16.7-4.5 23.7-9.1 12.7-8.4 25.3-11.8 40.7-11.8l-17.3 7.2c-18 9.4-33.1 32.7-22.1 52.8 1.7 3.1 8.6 10.4 12 11.1 9.1 1.7 20.7-15.4 29.5-18 .6 6.4-.9 14.3 0 20.5zm-37.1 40.6c-12.3-.5-17.1-20.2-22.8 1.5-3.4 13 1.2 26.4 9.4 36.5 1.5 1.8 12.7 13.1 13.9 12.9.8 0 2.5-2.3 2.8-3.2 2.9-7.1-3.2-12.2-4.2-19.2-1.5-9.8 0-18.7.9-28.4Zm301.8-8.9c-3.2.8-6.3 6-8.8 7.3-2.1 1.1-7.2 1-7.8 3.2-.5 1.7 3 10.8 2.9 14.8 0 3-1.5 13.9-2.2 16.8-.9 3.6-3.9 5.7-3.9 10.2s1.4 7.1 3.7 7.4c1.9.3 15-14.4 16.8-17 5.7-8.5 9-18.8 7.3-29.2-.5-3-4.4-14.5-8-13.6Zm-284.8 10c-4-2.3-6.5 9.9-6.8 12.5-1.2 10.5 3 38 8.7 47.1 1.9 3 5.4 6.9 9.2 7.3 3.7-15.6 12.6-29.2 21-42.5-2.3-.4-1.7-2.9-2.7-3.5-1.5-.9-7-1.9-9.7-3.1-4.7-2.2-12-7.7-15.6-11.4-1.2-1.2-3.8-6.2-4.2-6.3ZM1139 1552c8.3-2 11.9-12.2 13.9-19.6 3.1-12.1 6.1-33.4 1.1-44.8-3-6.9-5.8 1.7-8.3 4.1-3.9 3.8-11 9.3-16 11.6-2.5 1.1-7.8 1.8-9.1 2.7-.7.5-.5 1.8-1 2.7-.3.4-1.7.4-1.6.9 0 1 7.9 12.3 9.2 14.8 4.8 8.8 9.1 18 11.8 27.7Zm-197.7 5.7c8.1 8.1 9.5 0 10.5-7.3.8-5.6 2.7-20.6 1.7-25.4-3.6-17.2-21.3-15.9-21.6 3.6 0 6.8 4.6 24.3 9.4 29.2Zm161.5-44.5c-5 1.3-8.5 9.3-8.8 14.2-.2 4 2.4 28.5 3.8 31.3 2.5 5 7.5 0 9.8-2.7 6.8-8.3 11.6-30.7 4.5-39.5-2.7-3.3-4.8-4.4-9.2-3.3zM1023 1544c-.7-.7-.8-7-5.1-9.4-8.9-5-21.8-.8-32-4-10.4-3.3-9.4-13.1-16.1 1.8-2.9 6.4-9.1 24.4-6.3 30.7 1.1 2.4 17.8 15.6 21.2 17.8s18.2 11.7 21.1 10c3.1-5.6 9.3-9.5 12.6-14.9 1.8-2.8 4.1-11.5 4.6-11.9 1.6-1.7 1.7.5 2.1 1.4 1.6 3.6 2.1 6.8 4.5 10.5 3.3 5.2 9.2 9.3 12.4 14.6 3.1 1.9 15.5-5.9 18.9-8.1 4.5-2.9 22.9-17 23.9-21.1 2.2-9.7-6.6-28.3-10.9-37.2-4.9 1-7.8 5.2-12.7 6.7-9.2 2.8-28.2-1.6-33.7 6.3-.9 1.2-2.6 8.9-4.5 7zm-136 18c-.7-.6-3.5 0-4.5.9-6 6.2 2.4 31.6 14.6 27.6 4-1.3 3.8-9.4 2.8-12.9-1.1-3.9-7.2-4.1-9.8-7.2-2.1-2.5-2.7-8.2-3-8.5Zm274.1 0c-.3.3-.9 6-3 8.5-2.6 3.1-8.7 3.3-9.8 7.2-1 3.4-1.2 11.6 2.8 12.9 13.4 4.4 20.2-24.5 14.1-28.1-.9-.5-3.5-.9-4-.4Zm-216.4 7.2c-1.5.4-5.1 4.6-6 6.1-3.4 5.6-5.6 32.3-4.8 39.3 1.3 10.9 15.2 18 19.5 3.5 1.7-5.6 2.6-21.4 2.5-27.6 0-1.1-5.8-19.7-6.5-20.5-1.2-1.4-3.2-1.3-4.8-.8Zm153.3-.1c.2 6.6-5.4 14.7-6 20.6-.5 4.5 1 25.3 2.4 29.4 4.2 12.1 16.9 7.3 19.1-2.9 1.1-5.2 0-16.8-.6-22.6-1-9.7-1.7-25.5-14.9-24.5m-180 1.9c-20.5 3.8-17 28.7-9 43 4 2.9 10.4-17 10.7-19.8.9-7.5-2.9-15.5-1.8-23.2Zm218 43c2.5 1.8 7.2-9.1 7.7-10.8 3.9-12.8 1.6-30.1-13.7-32.2.5 7.4-2.8 16.2-1.9 23.4.3 2.7 6.4 18.5 7.9 19.6m-148.2 10.2c1.4.8 4.8 8.6 9.5 11 11.1 5.8 20.2-6.4 20.7-16.7.8-13.7-7.2-7.7-16.5-8.6-8.4-.8-15-4.8-21.8-9.2-5.5-3.5-13.6-14.6-14.7-1.4-.5 5.1 1.4 7.5 1.8 11.2s-2 5.9.5 10.7c4.8 9.3 18 1.3 20.7 2.8zm93.1-31.1c-2.1-1.5-19.7 12.7-23.9 14.4-2.3 1-7.9 2.3-10.5 2.5-10.5.9-18.8-5.4-16.4 11.4 1 7.3 7.9 15.8 16 15.1 9.4-.8 11.9-11.6 14.6-12.4 4-1.3 12.3 5.7 18.9-1.1 4.3-4.4 1.3-8.4 1.5-12.5 0-2.3 1.9-4.8 2-8.1 0-1.9-.8-8.5-2.2-9.4Z" class="shading" data-original-prefix="shading" opacity=".2"/><path id="outline-shading-mouth1" class="outline"  fill="#000" d="M1041 1343c6.1.5 12.7-1 17.5-5 1.5-1.3.9-3.7 2.8-2.9 10.1 7.9 37.9 17.4 43.8 28.2 3.6 6.5 4.6 17.5-1.8 22.6-5.6 4.5-20.8 10.8-28 15-4.9 2.8-9.7 6.6-14.7 9.3-7.4 4.1-25.5 14.5-32.6 16.4-2.9.8-5.2.8-8.1 0-14.5-3.8-42.2-22.5-56.3-30.7-6.2-3.6-21.2-9.1-23.2-15.8-5.5-18.4 15.7-28.3 28.7-35.4 2.3-1.2 15.5-8.6 16.5-8.7 2.9-.3 4.2 2.9 6.7 4.2 4.2 2.3 10 3.2 14.7 2.8-.3-5.1-3.3-11.3-1.8-16.3.5-1.6 12.5-13.9 14.5-14.4 3.9-1 8.2-.3 11.6 1.9 1 .7 10.8 11.1 11.2 11.8 2.1 5-1.2 11.8-1.5 17" class="shading" data-original-prefix="shading" opacity=".2"/><path id="outline-mouth3" class="outline"  fill="#000" d="M888 1333c-.7 1.9-2.2 2-3.8 2.7-12.3 5.2-24 8.3-33.2 18.8-6.6 7.6-18.9 26-18 36 .3 4 7.1 25.8 9.2 28.8 2.7 4 6.1 4.9 10.8 4.7-1.4-9 4.2-18.1 9.6-24.9 2.2-2.8 21.9-22.6 24.4-20.1-1.7 6.5-8.8 10.4-13 15.5-8.1 10-12.3 23.6-9.5 36.5 1.2 5.4 11.2 26 15 30 .6.7 7.1 6.3 7.5 6.5 2.4 1.2 5.6-3.8 6.5-5.5 2.5-4.3 3.1-9.7 5-14 4.4-10.2 9.3-18.3 18.5-25-5 13.9-9.5 44.6 1.5 56.1 4.6 4.8 11 2.5 15 5.1 2.1 1.3 2.5 5.4 4.2 5.8s7-3.1 9.4-3.5c9-1.4 12.6 16.9 18.7 17.4 2.5.2 10.2-12 18.4-9.4 5.5 1.8 19.2 24.8 24.4 23.6 5.8-5.9 3.6-12.3 5-19 1.5-7.6 8.3-12.6 9.4-22.6.8-7.2-1.7-26.6-4.7-33.1-1.1-2.3-5.5-10.7-6.8-12.2-3.4-4-15-9.2-19.8-6.1l-4.2 11.1c-4.8-4.4-9.5-9.2-14.5-13.5-3.7-3.2-10-6.8-13-9.9-4-4.2-15.6-27.9-15.7-33.2 0-6.8 17.5-22.4 21-29 5.4-4.1 29.2-2.8 35.7.2 8.4 3.8 12.4 12.1 18.5 17.5 5.2 4.5 2.5-1.7 2.5-3.6s.9-3.2.8-4.8c-.2-5.4-6.7-9.2-9.9-13.1-2-2.4-5.6-6.2-7-8.2-.9-1.3-4.9-7.8-5-8.8-.2-2.6 9.1-11.7 11.5-12.4 3.6-1-.5 5.5-.5 6.6-.4 5.2 5.9 4.1 9.3 5.6 1.2.5 3 2.7 3.2 2.7s2.4-2.7 3.8-3.2c7.8-3.2 11 1.2 6.8-11.7 1.6-1.7 12.5 9.1 12.9 11.7.6 4.5-17.6 23.1-21.1 27.5l-.8 12.7c1.7.4 2-.7 3-1.5 8.7-6.7 12.6-16.8 24.9-19.1 5.5-1 25.6-1.3 29.8 1.8 3.4 6.7 20.4 21.8 21 28.4.4 4.3-10.8 27.3-13.9 31.7s-9.8 7.6-13.8 11.2c-5.3 4.6-10.3 9.8-15.5 14.5-2.2.9-1.4-5.6-2.2-7.7-3.4-8.6-19-1.6-22.7 3.8-.7 1-7.1 13.9-7.3 14.7-2.7 12.8-5.5 27.3-.2 39.8 1.5 3.5 4.6 6.8 5.8 10.2 2.5 7.2-.5 15.2 5.8 21.2 9.4-2.8 19.1-24.9 27.9-24 5.2.5 13.2 10 14.9 9.8 5.8-.5 9.3-18.7 18.7-17.4 2.4.3 7.6 3.9 9.3 3.4s2-4.8 4.8-6.1c3.8-1.8 9.4-.4 13.3-3.7 11.5-9.7 8.1-43.1 2.5-56 1.6-1.7 11.3 10.4 12.4 12.1 5.1 7.8 6.1 15.5 9.7 23.3 1 2.1 4.8 9.8 7.8 8.2.4-.2 6.9-5.9 7.5-6.5 6.8-7.5 16-30.4 15.4-40.5-1.3-22.7-10.7-22.7-21.5-37.5-5.3-7.2 2.8-2.4 6 0 11.8 8.6 28 25.5 26.5 41 11.6 1.1 13.6-11.4 16.3-20.2 4.6-15.6 5.3-18.8-3.1-33.4-8.2-14.3-16.4-22.7-31.5-29.5-5.8-2.6-13.2-3.6-17.7-7.8 15.9 1.8 34.5 6.4 49 13.5 8.3 15 22.1 26.8 28.1 42.9l-15.2 44.9c-.9 3.7-13 4.8-13.8 5.8-.6.8-2.2 17.2-2.2 19.4-.2 31.7 2.4 50.4-13.1 79.9-2.6 5-12 16.3-12.6 19.4-.9 4.6 0 10.4-.5 15.5-.9 8.4-5.8 16.4-6.7 23.4-.4 3.5 1.3 7.7.8 9.7s-10.7 8.6-13.2 9.9c-2.2 1.2-5.7 1.5-6.5 2-.6.4-5.2 10.6-7.2 13.2-2.2 2.8-13.6 14.5-16.9 12.4-.6-.4-5.9-11.8-7.1-13.3-2.2-2.9-2.2 2.1-3.2 3.8-4.6 7.3-24.8 27-32.8 29.2-1.7.5-3.3.7-5 .5 1.1-8.2 2.6-16.6-8-18.6-9.7-1.8-16.2 7.5-18.5 15.6-1.2 4.3-1.2 16.7-7.8 14.9-4.3-1.2-20.3-25.6-23.2-30.8-5.5 8.6-11.5 19.1-18.5 26.5-1.8 1.9-6.9 7.7-9.3 3.3-2.8-5.3-2.5-14.6-5.5-20.5-3.8-7.2-14-11.7-21.2-6.8-6.6 4.6-2.9 10-3 16.5-3.4 3.4-23.5-12.8-26.5-15.9-1.5-1.5-11.4-13-11.9-14.1-.7-1.4-.2-6.3-2.6-3.3-2.1 2.6-6 14.4-10.2 13.3-2-.6-12-10.2-13.7-12.4-2.1-2.7-6.6-12.8-7.2-13.2-.8-.5-3.8-.6-5.8-1.7-2.5-1.4-11.8-7.1-13-9-2.3-3.8.4-6.7 0-10.8-1-7.2-5.8-15.5-6.7-24.4-.5-5 .6-10.7-.6-15.4-1-3.9-7.9-9.8-10.7-14.3-10.4-16.9-15.8-37.5-16.8-57.2-.8-15.6 1.6-31.1 0-46.5-18.8 0-17.3-14.5-21.7-27.8-2-5.8-9-19.6-8.1-24.5.6-3.1 5-9.2 7-12.1 2.9-4.3 18.7-27.3 20.9-29.1 1.7-1.4 8.5-4.5 10.7-5.3 9.6-3.2 28.2-7.1 38.2-8.3v-.7Zm16 128c-1.4-1.5-7.8 8.9-8.4 10.1-12.7 23.9-7.6 58.3 2.6 82.2 1.5 1.6 6.5 11.2 8.3 10.7 4.1-1.1 10.8-29 12.8-34.2 4.4-11.8 13.5-22.1 8.6-35.6-5.5-.6-12.8 1.4-16.7-3.8-.9-1.1-7.8-21.4-8-23.1-.2-2.4.8-4 .8-6.2Zm240 103c.6-.4 6.8-10.5 7.6-11.9 6.4-12.5 10.7-43.5 9.3-57.4-.7-6.6-8.4-30-14.4-32.6-2.3-1-.6 4.2-.9 6-.5 2.7-7.2 21.8-8.6 23.2-3.6 4.1-11.1 2.3-15.9 2.9-5 13.6 4.3 24 8.6 35.6 3 8.1 4.3 17.7 7.5 25.5.7 1.6 4.7 10.2 6.8 8.7m-262.3-85.7c-.8-.7-3.9-1.3-5.7-2.8-4.4-3.7-8.4-14.6-14.9-5.8-17.4 23.5 1.8 56.3 17.4 75.3.8.9 1.5 2.3 2.9 2.1 1.2 0 .7-22.5.5-24.5-.5-5.6-3.2-12.1-3.1-18 0-5.2 5.9-23.5 2.8-26.2Zm304-11c-4.6-3.9-11.2 6.2-14.7 9.3-1.3 1.1-3.1 1.1-3.8 1.7-3.3 2.9 2.8 21 2.8 26.2s-2.6 12.6-3.1 18c-.7 7.9.4 16.5 0 24.5 1.7.4 2-.5 3-1.5 14.2-14.6 27.2-41.2 23.9-61.9-.4-2.6-6.3-14.7-8.2-16.2Zm-83.2 26.7c-1.4.3-3.3 6.6-3.8 8.2-3 10.7-2.9 45.1 1.1 55.5 5.3 13.6 21.4-7.2 21.3-16.2-.2-14-7.6-26.7-13.3-38.8-.8-1.8-2-9.4-5.3-8.7m-165.2 65.7c10 8.3 12.4-2.6 13.6-10.3 1.6-10.6 2.8-43.6-2.7-52.1-4.7-7.3-6.5 4.3-8 7.4-5.3 10.7-15 29.9-11.4 42 .7 2.4 6.6 11.4 8.5 13m58-34c-2.6-2.2-10.5-14.2-12-14.5-1.3-.2-9.1 4.1-10.4 5.3-13.2 13-17.5 40.3-6.8 55.8 7.4 10.8 27.1 23.8 39.1 28.9 1.2.5 3 1.2 4.2.9.9-.2 7.4-15 8-17.1 4.7-14.6 7.5-38.8 1-52.9-5.9-13-12.1 3.2-23.2-6.3h.1Zm43.8 76.2c2.9 1.8 6.6-2.7 8.6-3.7 21.1-11.1 43.7-22.7 41.3-50.7-.7-8.7-6.7-24.8-13-31-1.2-1.1-8.4-5.2-9.7-5.3-3.5-.3-11.2 18.1-20.8 17.9-7.8-.2-11.2-7.8-15.8 4.2-5.2 13.4-2.8 36.6 1.3 50.3.7 2.3 7.3 17.8 8.1 18.4ZM885 1559c-5.2 1.1-6.5 7.6-5.8 12.2s5.4 23.4 7 27c1 2.2 6.2 8.5 8.7 6.7 3.4-2.4 3.2-20.7 4.1-25.4-.6-3-7.8-5.5-10-8.3s-4.3-8.6-4-12.2m269.1 45.9c2.7 1.5 7.8-5.3 8.8-7.5 1.5-3.4 6.2-22 6.9-26.2.8-5-.5-8.8-4.3-12.2l-5.1 10.9c-1.4 3.6-9.4 6.1-10.2 8.8-1.2 3.9.5 24.2 3.9 26.2M917 1563c-1.9-2.2-11.8 12.5-12.4 14.1-1.8 4.6-2.9 24.1-2.4 29.3.8 8.6 5.2 18.6 11.4 24.6 1.1-9 4.9-18.4 5.5-27.5.9-13-3.8-27.1-2-40.5Zm218 68c5.2-3.8 9.5-12.5 10.8-18.7 1.4-6.9.7-27.7-1.2-34.3-.6-1.9-10.4-17.4-12.5-15 1.7 13.9-3.1 27.7-2 41.5.7 8.7 4.6 17.6 5.1 26.5zm-186-62c-3.4-3.2-13.6 14.8-14.8 17.7-4 9.9-8.4 31.9-2.7 41.2 2 3.2 16 15.2 19.5 16.5 6 2.4 6.5-2.8 7-8 2.1-23.1-3.5-45.4-9-67.5Zm144.1 75.9c1.1.7 3.6 0 4.8-.4 3.2-1.2 16.9-13.1 18.9-16.1 8.3-13.1-.6-48.3-12.8-57.9-1.8-1.4-3.1-2.8-4.2 0-3.7 9.9-8.2 30.6-8.9 41.1-.3 4.8-.8 31.5 2.1 33.4ZM1018 1613c-3.5 0-6.1 2.5-9.6 2.9-13.1 1.6-28.5-14.2-41.4-15.9v22.5c0 1.1 2.9 9 4.1 9.9 6.5 5.2 18.9-.4 24.4 5.6 2.6 2.9 4.3 10.3 10.6 5.5 1.1-.8 11.9-13.1 11.9-14.1v-16.5Zm64-13c-13.3 1.4-27.9 17.6-41.4 15.9-3.5-.4-6.1-3-9.6-2.9v17.5c4.1 2.4 11.4 14.9 15.4 14.5 5.4-.5 6.1-8.2 10.5-9.6 5.4-1.7 16.2 1.1 21-3 1-.8 4-9.7 4-11v-21.5Z" class="outline" data-original-prefix="outline"/><path id="outline-mouth2" class="outline"  fill="#000" d="M1011 1292c-6.2 1-21.6 9.8-26 14.5-2.9 3.1-3.9 7.2-7.2 9.8-18.9.8-35.9 5.2-50.3 17.8-.9-.2-.3-1.9-.5-2 1.1-8.8 19.3-26.2 27.4-25 3.5.5 2.6 4.8 10 4 10.8-1.2 17.8-10.7 19.4-20.7.4-2.5-1.9-5.2 1.2-6.7 4.7-2.2 21.7 4.7 26 8.5z" class="outline" data-original-prefix="outline"/><path id="outline-mouth1" class="outline"  fill="#000" d="m1122 1332-.5 3c-10.9-11.7-25.5-16-41-18-2.9-.4-6.9.7-9.5-.5-1.5-.7-4.5-7.4-6.5-9.5-3.4-3.8-14.1-10.6-19-12s-4.7-.4-8.6-2.9c4.2-4.1 21-10.8 26-8.5 3.1 1.5.8 4.2 1.2 6.7 1.9 11.3 12.7 24.5 25 19.5 4-1.6 2.6-4.3 9.2-1.6 10.8 4.4 18.3 14 23.6 23.9h.1Z" class="outline" data-original-prefix="outline"/></g><g id="04_Eyes" data-trait="cracked"><path id="fill-eyes-main" class="fill"  fill="#fff" d="M1337.7 1024.3c1.5.9 16.3 27.2 18.4 31.1 9.7 17.9 18.3 36.1 23.2 55.8.9 3.7 4.9 7.3-.6 11.5-2.1 1.6-13.8 5.7-17.7 7.8-9.3 4.9-18.6 9.9-27.5 15.5-1.5 42.9-10.8 81-47.2 106.8-43.1 30.5-110 44.9-161.5 32.9-13.7-3.2-24.1-9.2-39.1-3.9-11.9-10.5-25.8-18.9-37.7-29.3-7.3-6.4-13-14.8-20.5-20.5-2.7 1.3-6.1-.6-8.4.4-1.8.8-13.7 15-17 18.1-12.4 11.4-27.2 20.1-39.7 31.3-3.4.3-6.4-1.6-9.8-1.8-14-1.1-26.2 5.6-40.2 7.8-49.6 8.1-115.4-7.3-155.2-38.4-33-25.8-41.6-63-42.6-103.4-9.7-5.8-19.6-11.2-29.5-16.5-4.4-2.4-15.9-6.2-18.1-9.9-3.2-5.6 1.4-5.9 2.8-9.3 1.1-2.6.9-6.7 2.1-9.9 7.4-20.6 26-58.6 39.2-75.6.7-.9 2.4-.4 3.1-1.3 18-23.8 37.4-50.3 58.9-70.8 47.7-45.5 107.2-80.6 171.5-96.5 1.2 6.7 0 13.7.5 20.5.2 2.5 1.1 13.2 2.5 13.5 13.6-6.2 27.7-11.4 41.2-17.8 5.5-2.6 16.8-7.4 20.7-11.3 3.7-3.5 5.6-9.9 8.1-12.9.7-.8 1-.8 2-1 5.4-1.1 22.7-.3 29 0 75 4.2 151.6 41 208 89 24.6 21 44.1 44.7 64.5 69.5 2.9 3.5 10.4 15.7 12.5 17.5 1.6 1.3 3.2.6 4.2 1.3v-.2Z" class="fill" data-original-prefix="fill"/><path id="outline-shading-eyes4" class="outline"  fill="#000" d="M1162 948c-.9-2.4-8-16-7-17 2.3-2.3 6.4 5.9 7.8 7 5.1 4.3 14.7 7.8 19.8 13 3.3-.2.4-1-.2-1.7-2.1-2.5-13.5-17.1-11.3-19.3 3.4-.3 6.3 3.6 8.5 6 9.4 10.1 17 24.3 26 34 6.1 6.5 12.7 8.5 15.3 18.7s3.3 22 6.3 32.2c6.7-5.9 9.3-18.8 7.8-27.3-1.9-10.2-19-36-25.5-45.5-12.7-18.2-31-40.9-48.2-54.8-16.9-13.7-37.3-22-55-34.5 0-.8-.4-1.9.5-2 4.3-.4 27.2 7.3 32.7 9.3 62.9 22.6 131.1 72.4 171.2 125.8 2.6 3.5 12.6 16.1 12.6 19.3s-.5 2.1-.9 2.9c-2.2 3.5-25.8 8.9-31.3 10.9-5.9 2.2-11.9 6-17.8 8.2-18.7 7.1-37.7 13.3-56 21.6 10.7 8.6 23.8 13.1 35.5 20l10.5 49c2 .3 3.4-.7 5-1.5 10.9-5 50.2-32.7 57.6-33.2 7 2.6 24.9-1.5 30.4 1.2 3.4 1.6 10.8 24 15.1 28.9 1.3 1.4 6.3 2.7 4.9 4.6-.3.4-7.4 2.6-9 3.5-7.9 4.1-26.3 12.7-32.3 17.7-2.4 1.9-.9 4.2-2.2 5-21.5 6.6-43.8 11.4-65.1 18.7-30.8 10.4-65.4 37.5-90.7 58.3-5.9 4.9-12.5 12.9-18.2 16.8-9.2 6.3-50 21.4-53.4 25.6-.8 1-.5 3-1.7 3.5-3.1 1.4-7.1.6-10.3 0 3.1 7.6-1.1 9.4-7.9 8.5-18.6-14.2-36.3-27.5-52.6-44.5-1.7-1.8-2.2-4.7-5-5-.7 0-8 .3-8.4.4-1.5.7-15.5 16.9-19 20-11.7 10.4-25.4 18.5-37.1 29-6.9.9-11-.9-8-8.5-2.7.6-8.6 1.4-10.8-.2-.7-.5-.8-2.7-1.7-3.7-4.5-5.1-43.3-18.4-53.4-25.6-3.7-2.6-7-7.4-10.6-10.4-22.3-18.7-49.4-40.2-74.8-54.2-26.7-14.6-59.2-19.2-88-28.8l-2.2-5-41.4-21.1c-.3-3.1 3.1-2.5 4.9-4.6 3.6-4.4 11.6-27.2 15.1-28.9l33.3-.2c21.4 13.4 44.2 24.8 65.3 38.7 29.3 19.3 54.9 42.4 85.6 61.4 16.2 10.1 68.9 42.5 85.4 42.6 6.8 0 19.4-3 26.5-4.5 5-1 21.5-6.6 24.5-6.4 2.2 0 6.6 4.2 11.9 4 4 0 9.4-4.1 11.8-3.9 14.8 1.5 32.8 10.6 49.4 10.8 11.2 0 29.8-10.4 40-15.8 43.9-23 85.1-51.3 123.4-82.6 1.9-2.8-1.1-7-1.8-10.3-2.9-13.7-4.7-27.6-6.3-41.5l-34.5-20.4c-2.2 2.5-4.4.6-6.5 1.2-14.5 4.2-48.8 30-61.9 40.1-29 22.3-41.9 38.7-62.3 68.7-5.3 7.8-6.4 14-14.3 20.7-2.1 1.8-21.1 15.2-22.4 15.6-5.3 1.7-10.6-.4-15.5-.5-4.2 0-9.3 1.8-14.1.9-2.1-.4-25.7-18.2-28-21-4.1-4.9-6.1-11.1-9.7-16.3-18.5-27.1-30.9-43.6-56.9-64.1-49.3-38.7-98.6-60.2-156.9-82.1-5.4-2-30.8-8-32.5-11.5-2-4.2 2.8-9.5 5.1-12.9 27.7-40.2 71.9-78.2 113.7-103.3 30.1-18 63.1-33.9 97.7-40.8-15.6 15-36.5 21.6-53.5 35-23.4 18.5-51.5 55-65.7 81.3-8.1 14.9-14.6 24.7-6.4 41.7s19.1 28 26.6 33.4c15.4 10.9 44.6 22.4 62.6 32.4s34.6 19.8 50.9 31.1c10.6 11.9 32.8 64.7 44.2 70.8 9.8 5.3 13-1 18.5 12.5 2.2 5.5-.3 9 7.2 7.8.8 0 2.5-12.4 6.5-15.6 4.5-3.6 12.6-1.6 18.5-8.5 7.4-8.7 17.3-28.5 23.8-39.2 11.3-19 10.2-24.3 29.9-37.1 29.6-19.3 62.6-34.8 93.9-51.1 1.7-1.6 6.8-20 7-23.1.4-5.3-3.8-15.7-5.7-21.1-1-2.9-7.4-19.9-8.5-21-.8-.8-5.8-2.6-7.7-3.8-5.2-3.4-10.3-7-15.4-10.6-6.7-4.8-18.7-16.5-24.4-19.6-3.6-1.9-24.4-7.5-28.8-8.2-11.3-1.7-18.1 2.1-28.5-5.4-.4-.3-1.7.3-1.8.2-.6-.6-4-10.6-4.2-12.3-1.1-11.2 4.6-25 4.9-36.1s-4.6-23.3-4.9-32.9c-.2-4.1 2.2-6.4 5.1-3 3.2 3.7 6.7 25.5 6.9 31.1.2 4.6-1.5 12-1 14.9.5 3.2 7.1 6.5 8 11.1 1.4 7.4-2.2 15.2-.5 22.5l62.6 13.9z" class="shading" data-original-prefix="shading" opacity=".2"/><path id="outline-shading-eyes3" class="outline"  fill="#000" d="m1029 847-10.6 15.9c-14.3 22.8-42.9 26-65.4 37.6-5.2 2.7-23.1 13.1-25.4 17.6-1 1.9-2.6 12.2-2.4 14.2.9 6.7 12.7 23.8 14.4 32.7 1.2 6.2-9.5 30.3-12.8 37.4-6 13-17 35.9-24.7 47.3-.5.8-2 3.5-3.2 2.3-.8-.8 6.3-18.8 7.2-21.2 5.7-15.5 16.3-35.6 20.1-50.9 1.5-6.1-4.7-30.6-7.3-37.3-.4-1-.3-1.9-1.5-2.5-15.4 11.8-37.4 21-41.5 42-1.7.2-1.1-2.4-1-3.5.5-5.9 1.5-14.9 5.3-19.2 5.3-5.8 32.5-24.1 34.4-27.6.7-1.2 0-3.5.4-5 5.4-16.9 13-36.1 30.3-43.8l.5 6c4.5 1.5 6.6-2.5 9.1-3.5 14.2-5.8 47-16.5 56.4-27.6 1.5-1.8 6.2-10.4 6.8-10.7 1.8-1 8.2.3 10.8-.2Z" class="shading" data-original-prefix="shading" opacity=".2"/><path id="outline-eyes4" class="outline"  fill="#000" d="M707 1142c2.2.5 5.5-.4 8.2.3 40.6 9 82.2 26 116.1 49.9s54.6 53 99.3 56.7c12.2 1 27.3-3.9 39.1-7.6 8.6-2.7 16.9-6.1 25.2-9.3.5 2.1-1.1 2.3-2.3 3.2-6.8 5.4-21.7 15.4-22.8 24.2-.5 3.7-1.1 13 4 13.5-.4.9.3 2.3-1 4.5-1.5 2.6-10.7 12.3-13.3 13.7-4.8 2.4-12.4 2.7-17.7 2.8l3-7.4c-1.3-2-2.1-1.6-4-1.1-12.4 3-31.6 28.2-40.7 30.3-2.4.6-7 .9-9.8 1.2-25 3-55 0-79.7-5.3-15.8-3.3-28.8-12-43.8-17.7-1.3-1.5 0-1.8 1.5-2 8.7-1.1 20.3 0 28.8 2.3 2 .5 3.6 2 5.5 2.5.9.2 4.5 1.1 4.3-.8-6.2-1.9-12.2-4.4-18.6-5.9-11-2.7-31.9-4-40.8-9.2-6.2-3.7-30.2-30.2-34.1-36.9-2.5-4.4-4.3-9.4-5.8-14.2-2.8-8.6-11.1-34.7-11.7-42.3-.3-3.5 0-4.9 4-3s5.3 10.8 10 12c-.4-4.8-9.3-15-9.7-18.1-.2-2.2 3.8-15.2 4.5-19.2 1-5.7.7-11.7 2.3-17.2Z" class="outline" data-original-prefix="outline"/><path id="outline-eyes3" class="outline"  fill="#000" d="M998 1254c.3-.6 0-2.8 1.1-4.4 9.8-13.4 20-25.4 17.9-43.6 6 1.8 8.5 2.6 14.5 0 1.2 0-.4 5.6-.3 7.2 1.1 16 14 28.2 19.8 41.8-3.3 0-4 4.3-7 4-2.5-6.3-9.8-9.1-14-14.5-2.3-3-2.3-7.5-6.5-7.6-2.1 0-3.3 7.4-5.5 8.5-3.3 3.8-7.4 6.5-11 10-1.6 1.5-2.1 5-4.8 3.3-.5-.3-1.9-4.6-4.2-4.8Z" class="outline" data-original-prefix="outline"/><path id="outline-eyes2" class="outline"  fill="#000" d="M981 1184c-1.8.4-2.5-.9-3.5-2-14.6-15.1-24.4-36.8-38.5-50.5-25-24.3-55.5-41.6-82.9-62.1-1.2-.9-10.6-8-9.1-9.4l11 3.4c29.3 19 60.2 35.1 91.5 50.5 13.3 21.9 23.6 45.6 31.5 70Z" class="outline" data-original-prefix="outline"/><path id="outline-eyes1" class="outline"  fill="#000" d="M696 1136c.8 6.6-1.5 10.9-2 17-1.1 0-2.2 0-3.3-.2-7.4-1.6-18.3-8.2-25.7-9.3-13.1-2.1-21.3 2.7-20.1-16 1.4-21.5 14.5-58.4 23.9-78.1 5.1-10.8 29.6-53 39.9-56.1 3-.9 7.9 1.6 9.2.7.3-.2 2.4-5.2 3.7-6.8 49.3-61.7 124.4-120.4 202-140 9.6-2.4 19.4-4.8 29.4-4.1l1 32.5 1.5 1.5c15.2-6.5 35.2-7.9 47-20 4-4.1 11.8-16.8 14.9-19.1 1.5-1.1 2.4-.8 4-1 28.8-2.9 74.1 3.7 102.6 10.5 78.7 18.9 155.4 79.8 204.4 142.6.8 1.1 1.4 3.6 1.7 3.8 1.7 1.1 6.4-1.5 9.9-.4 6.9 2.1 19.1 20.2 23.4 26.7 16.7 25.3 30.4 58.4 36.9 88.1 1.9 8.5 8.5 30.7-2.5 34.2-15.1-.2-28.3 6.2-42.3 10.7-1.3-5.7-3.3-11.2-2.5-17 .2-1.1-.4-2.9.2-3.8.3-.5 8.7-4.7 10.2-5.4 4-1.9 8.4-3.4 12.5-5 1.4-15.1-6.4-30.1-12.7-43.5-8.2-17.5-18-34.2-28.7-50.3-.8-1-1.8-.9-2.9-1.1-8.3-1-22.4.3-31.1 1.1-11.7 1-22.2 3.2-33.5 6-1.6-1.4 8.5-8.9 9.7-9.8 9.5-7 20.5-11.6 30-18.6-2.5-13.8-11.5-25-20.6-35.1-32.2-35.6-81.7-62-124-84-18.1-9.4-37.6-20.5-58-23.5-.7.5-3.1 15.8-3.1 17.5 0 6.1 14.7 47.4 18.2 53.8 1.6 2.9 4.7 7 7.8 8.2l42 10.5c.4-1.6-.3-2.3-1-3.5-3.3-6.1-13-14.2-15.5-19.5-.5-1-.7-1.8-.5-3 1.1-.4 2.2 1 2.5 1h17c.3 0 3.2 2 3.5 2.5l-2 3c8.5 9.4 18 18.1 26.5 27.5 2.4 2.7 17.8 19.4 18.2 20.8 1.2 3.5 1.8 12.4 2.2 16.8.8 7 2.8 22.8 2 29-.7 5.5-13.1 25.5-10.6 29.5 1.2 1.9 24.7 12.7 28.9 15.2 5.1 3 12.7 6.8 12.7 13.3 0 16.5-.8 26.8 5 43 1.3 3.8 8.1 16.1 8.1 18 0 3.5-14 20.6-12.1 22.5 24.7-9.2 49.2-19.3 74.8-25.7 4.2-1.1 9-.6 12.2-1.3 3.2 4.3 2.3 11.9 3.3 17.2.7 4.1 4.8 16.6 4.5 19.2-.3 3.1-9.3 13.3-9.7 18.1 6.3-2.6 5.8-14.3 14-12.5v3.5c-.6 7.6-8.9 33.7-11.7 42.3-1.6 4.8-3.3 9.8-5.8 14.2-4 7.1-28.1 33.6-34.7 37.3-8.9 5-28.6 6.1-39.3 8.7-6.6 1.6-12.9 4.3-19.4 6.1-.3 1.8 2.3 1 3.3.8 4.9-1.1 9.9-4.2 15.2-4.8 4.6-.5 15.5-.6 20 0 1.4.2 2.8.5 1.5 2-14.8 6.2-29 14.3-44.8 17.7-21.6 4.6-46.6 7.5-68.7 6.4-5.3-.3-19.2-1.4-23.4-3.6-6.8-3.7-16.8-15.5-24.2-20.8-2.7-1.9-10.3-7.3-12.9-8.2-8-2.7-.2 7.8-1.1 8.6-15 1.7-23.5-5.5-31.4-17.1-.7-1-.3-2.5-.6-2.9 13.9-17.8-7.7-28.8-18.9-38.6-1.2-1-2.5-1.6-2.1-3.4 7.4 2.8 14.7 5.8 22.2 8.3 26.5 8.5 41.3 11.6 69 3.5 13.6-4 23.5-14.6 34.3-22.7 15.9-12 26-16.6 36-35 3.4-6.2 5.5-13.6 8.7-19.3 2.6-4.7 6.4-6.9 9.3-10.7 6.2-8.3 7.2-29.6 7.6-40.4.3-6.6.9-28.1-2-32.8-1.2-2-13.1-8.7-16-10.2-3.4-1.9-16.5-9-19.3-8.3-26 13.7-49.5 30.4-72.2 48.8-7.3 5.9-18.3 14-24.6 20.4-10.8 11.1-18.9 31.1-30.5 42.5l-8.5 8c7.3-20.3 13.4-42.2 22.8-61.7 8-16.5 23-17.8 38.5-25.5 19.2-9.4 37.3-19.6 56-30 3.3-1.8 17.1-7.6 18.4-9.1 1.2-1.3 6.1-24.9 6.3-28.2.4-6.9-1.4-11.4-3.3-17.8-1.3-4.3-9.4-26.6-11.8-28.2-4.7-3.3-20.2-10-26.3-12.7-15-6.7-30.4-12-46.5-15.5-5.4-1.2-35.3-5.1-36.7-6.3-.6-.5-2.1-3.8-2.2-4.7-1.5-7.6 3.8-25.8 4.8-34.8 1.4-13.5 1.7-33.6-1.2-46.7-.3-1.5-.7-4.1-2.4-4.6-20.5-2.4-40.9-5.5-61.7-4.9-7.3 6.1-12.9 15.9-21.4 20.6-15.7 8.7-37.4 14-53 23-5 2.9-8.5 7.7-13.4 10.7l-.7 1.8c2.6 14.3 3.9 28.7 5.9 43.1 1.2 8.4 4 16.6 3.8 25.2l-38.5 66.5c-1.4-.7 0-2.7.3-3.7 7-22.3 18.5-44.7 26.1-66.9.2-14.6-6.5-28.7-11-42.4-1.5-.4-1.7.4-2.5 1-7.2 4.9-29 21.6-34.5 27.5-6.2 6.6-7.1 18.8-9 27.5-1.4 1.8-1.8-.2-2-1.5-1.1-7.6.4-22.8 5-29l35.6-38.5c1.2-2.4-4-4.8-2.1-7.9l29-38.1.5-8c-8.9.8-16 3.4-24.2 6.2-40.4 14.1-78.7 38.8-113.1 63.9-24.4 17.8-53.6 41.6-62.7 71.2 10.4 6.1 21.6 11.5 31.4 18.7 1.2.9 11.2 8.4 9.7 9.8-21.5-5.3-43.9-7.8-66.1-6.6-1.7.5-5.4 6.3-6.7 8.3-9.9 14.5-34.7 60.7-36.2 76.8-.2 1.9-.5 8.9.6 9.6 2.1 1.4 9.6 3.4 12.8 5 4.4 2.2 9 3.7 9.6 8.9v-.6Zm401-224-2.6 25 21.1 4-3.1-6.9z" class="outline" data-original-prefix="outline"/></g><g id="05_Right Ear" data-trait="OG"><path id="fill-ear-rt1" class="fill"  fill="#fff" d="M1715.7 184.2c3.2-.7 6.5-.5 7.2 3.3 2.3 39.5-3.6 77.2-9 116-.7 4.7-.2 11.1-1.1 15.9-5 26.9-24.5 58.9-29.7 86.3-5.7 30.4-4.7 64.8-10.9 95.1-7.8 38.3-25.1 77.8-33.7 116.4l-71.9 122.1c-45.8 31.3-94.9 58.3-141.8 88.2l-35 81-84.6 77.3c-5.6 2.9-16.3-.8-22.4-2.4-27.7-7.2-48.3-18.1-70.9-35.1-16.5-12.5-27.2-20.9-37.6-39.4-6-10.5-10.9-22.9-14.5-34.5 26.8-59.3 58.7-116.4 86.8-175.2 4.9-58.7 6.7-117.8 11.4-176.5 36.5-47.5 77-92.5 114.8-139.2 47.2-35.9 96.4-69 144.9-103.1 66.1-31.9 127.9-72.1 197.8-96.2z" class="fill" data-original-prefix="fill"/><path id="outline-shading-ear-rt1" class="outline"  fill="#000" d="M1670.9 280.1c2.8 3.9-18.7 26.3-21.9 30.5-38.8 50.2-75.5 128.6-72.1 193 .8 14.1 7.3 33 2.8 45.7-3.7 10.4-14 27.3-15.4 37.7-.4 2.9.9 5.2.6 8 10-1.2 15.8-10.8 21.2-18.3 17.3-24.1 30.1-53.1 43.5-79.5 1.1-2.2 1.5-2.2 1.2.2-.8 9.2-6.8 26.8-9.7 36.3-15.4 50.2-37.8 100.7-66.2 144.8-15.3 23.7-22.2 32.4-46.1 47.9-25.3 16.4-36 17.1-63.9 25.1-14.1 4.1-56 16.5-65.5 25.5-11.9 11.1-30.7 52.3-40.3 68.7-13.5 23-27.7 45.9-43.8 67.2-3.6 4.8-10.5 10.9-13.3 15.7-5.6 10-6.8 27-11.1 37.9 7.3-4.2 14.2-10.7 20.5-16.5 12.8-11.9 26.4-25.8 38.5-38.5s33.6-33.7 41.2-48.8c7.8-15.6 13.6-33 21.3-48.7 14.9-4.8 30.4-7.3 45.1-12.9 49.9-18.9 92.7-57.3 134-90 1.4-.3 1.9 0 1.5 1.5-.9 3.2-10.1 20.8-12.2 23.8-4.2 6-36.3 28.6-44.5 34.5-29 20.7-59.7 39.2-87.9 61.1-15.7 27-28.8 55.8-43.5 83.5l-80 71c-6.2 2.7-28.5-4.8-35.8-7.2-32.1-10.8-54.1-27.3-79.9-48.6-8.9-15.6-7.9-22.5 2.7-36.2 24.9-31.8 50.6-57.8 73.4-92.6 33.1-50.5 54.8-106.4 86.2-157.8 11.1-18.2 27.9-36.1 31.3-57.7 1.4-9.1 1-19.2 1.1-28.4l54 6.5c10.6 14.3 17.8 31 26.5 46.5.8-.4 10.6-11.5 11.3-12.7 4.2-7.8 8.8-30.6 10.8-40.2 5-24.6 7-49.5 8.5-74.5 1.9-20.4-5.1-39.9 3.1-58.9 17.4-40.4 50.1-78.2 81-109l66.7-44.4c3.2-.7 24.4 7.8 25.2 8.9Z" class="shading" data-original-prefix="shading" opacity=".2"/><path id="outline-ear-rt2" class="outline"  fill="#000" d="M1204 941c-.6 2-3.1 0-4-.5-7.8-4.3-18.2-9.3-23.9-16-10.4-12.2-18.1-29.9-28.5-42.5-1-3-.7-7.3-.5-10.5.9-20.4 12.5-34.1 20.8-52.2 6.3-13.5 12.6-35.7 19.9-47 2.7-4.1 7.2-7.8 10-12 31.9-46.3 39.4-118.5 44.2-173.8 1.8-21.4.9-43.9 3-65 .7-7 2.4-6.2 5.4-10.6 39.7-59.4 85.7-117.4 135.1-168.9 20.3-21.2 36.1-32.5 60.6-48.4 72-46.8 150.7-85.5 232.4-112.6 12.3-4.1 26.8-8.2 39.5-10.5 12.2-2.1 12.3-3.8 15.3 8.7 7.3 30.4 1.8 91.6-1.3 124.3-.9 9.8-3 31.1-6.5 39.5-3.3 7.9-15.6 18.9-20 29-10.5 24-19.4 81.7-16.4 107.4.7 6.2 5.5 13.1 5.9 18.2.7 9.9-12.8 55.2-16.7 67.2-35.3 109.6-95.4 197.5-196.6 254.4-11.5 6.5-25.5 10.6-34.7 20.3-19.6 20.7-27.1 49.3-38.8 74.2-6.1 12.9-28.9 26-40.2 36.8-2.7 2.6-4.6 5.8-7 8-6.6 6.3-28 29.3-33.5 32.5-2.3 1.4-20.6 4.8-23.6 4.5-9.8-.9-50.7-16.5-58.9-22.1-1.6-1.1-2.9-2.4-3-4.5 7.7 2.8 23.6 7.2 31.6 7.9 22.6 2 43.2-12 60.7-25.1 35.1-26.1 71-71.5 81.2-114.8 1.9-8-1.7-7.6 6.1-13.9 33.8-27 77.5-40.2 111.3-70.7 68.7-61.7 111.2-146.9 130.5-236.5 6-27.8 3.2-52.9 6.5-80.5 3.3-27.4 13.9-73.5 26.1-97.9 5.5-11 10.8-15.4 13.6-28.4 3-14.4 5.4-31.2 7.2-45.8 3-24.6 4.6-49.6 2.1-74.4-1.9-1.9-45.3 15.5-50.7 17.8-67.7 29.8-139.1 73.4-201.2 113.8-57.2 37.1-99 74-142.1 126.9-15.7 19.3-36.9 44.4-50.5 64.5-13.7 20.4-13.2 63.6-15.6 88.4-3.2 33-4.2 70.9-9.1 102.9-2.9 18.7-26.7 65.7-36 85-6.8 14.1-16.8 28.5-23.1 42-6.3 13.7-9 29.6-15.7 43.3-3.2 23.3 13.4 51.1 28.9 67.4z" class="outline" data-original-prefix="outline"/><path id="outline-ear-rt1" class="outline"  fill="#000" d="m1695 240-22.5 39c-48.8 30.2-87.3 71.4-110.7 124.3-14.5 32.8-25.8 88.9-11.3 122.7 1.2 2.9 6.7 10.6 6.3 12.3-21.1 26.6-32.9 59-41.6 91.5-2.4 8.9-8.5 47.6-11.4 51.6-2.7 3.7-14.2 13.2-18.4 16.6-14.8 12-38.3 27.6-55.4 35.6-2.5 1.2-5.2 2.5-8 2.5 2.8-6.9 6.8-13.1 9.5-20 11-27.9 12.1-62.7-8-87-19.2-23.2-26.3 5.7-31 22-5.4 18.8-8 37.1-8.2 56.8-42.8 42.2-76.4 95.5-104.5 148.6-12.4 23.3-33.8 63.7-30.8 90.2.6 5.4 4.2 10.1 5 15.5-2.3 2.3-27.8-19.3-28.8-22.7-.6-2-.3-4.7-.2-6.8.2-5.2 1.3-20.2 2.5-24.5s15.1-20.8 18.8-26.2c34-50.1 53.3-108 86.4-159.6 11.5-18 28.4-31.6 37.6-51.4 8.3-18 20.8-76 17.2-94.5-.8-4-10.4-27.1-9.3-28.1 7.5 2.8 14.7 6.9 21.7 10.8 6 3.4 32.8 18.5 35.4 22.6 3.1 5 9.5 27.5 11.5 34.5 2.3 8.3 6.6 35 11.4 39.5 13.2 12.3 30.8-13.9 36.2-23.9 25.8-47.2 33.3-96.7 25.7-150.1-1.2-8.7-7.4-28.3-6.7-35.9s16.9-39.6 21.3-47.8c22.4-41.7 46.9-64 80.1-96 8.8-8.5 21.4-24 30.5-30.5 5.6-4 14.3-6.6 20.3-10.7 3.7-2.5 26.2-24 29.7-20.8h-.3Z" class="outline" data-original-prefix="outline"/></g><g id="06_Left Ear" data-trait="lop-eared"><path id="fill-ear-lft" class="fill"  fill="#fff" d="M594.7 816.3c-2-1.6-9.6-2.2-11.2-.3-1.2 1.5-7.1 22-8.7 26.3-5 13.4-11.3 26.2-16.5 39.5-4.5 11.3-6.1 33.4-24.5 26-7-2.8-24.8-26.8-30-34-16-22.3-30.6-47.2-45.8-70.2-39-59.2-74.4-111.4-98.8-179.2-9.6-26.8-15.4-43.5 1.9-68.6 23.3-33.7 61.6-64.8 95.5-87.5 28.2-18.9 84.4-32 118.3-39.7 24.1-5.5 52.8-14.8 76.3-6.3 34.6 12.6 112.7 57.7 134.2 86.9 11.9 16.2 14.4 48.2 16.6 68.4 4.4 40.2 2.4 79.8 10.5 119.5 5.7 28.4 15.5 63.5 25.3 90.7 9.5 26.8 26.4 56.8 33.6 83.4 2.7 9.8 2.8 21.2 5.4 31.2-20.8 30.1-50.2 57.8-83.8 73.1-4.5 2-23.1 9.9-26.7 10.3-8.6 1-32.2-11.5-40.2-16.4-30.9-19-65.2-41.9-82.2-74.8-5.7-10.9-9.1-24.8-15-35-4.8-8.3-17.4-24.5-23.9-32.1-1.8-2.2-8.6-9.9-10.3-11.2" class="fill" data-original-prefix="fill"/><path id="outline-shading-ear-lft" class="outline"  fill="#000" d="M354 607c25 10.2 48.3 24.2 72.6 35.9 13.7 6.6 30.3 16 45.8 13.1 5.7-1 44-29.1 51.4-34.6 19.1-14.1 38.4-29 55.6-45.4 2.4-2.2 16.9-16.4 17.3-17.8.2-.7-.8-13.9-1-14.6-.7-2.1-5.4-2.5-4.8-5.7l112.4-.9c3 1.7 3.4 7.8 3.7 11.3 2.7 38-6.9 75.6 4.2 112.8 21 70.3 74.6 151.5 121.2 207.8 7.2 8.7 29.7 30.3 31.3 39.7 1.2 7.2-.9 6.5-3.2 11.4-7.5 16.4-34.7 36.9-50.7 46.3-9 5.3-27.2 14.4-36.9 17.2-1.4.4-2.6.7-4 0-24.5-12.8-50.2-23.4-74.5-36.6-30.1-44.6-58.6-90.2-95.4-129.6-2.7-2.4-13.6-3.8-15.6-1.4l-48.6 89.4c-2.6 4.2-8.5-3.4-10.8-5.9-25-26.8-47.5-67.8-68-99-14.6-22.2-30.2-43.3-43.8-66.2-23.6-39.9-44.2-83.1-58.2-127.3Zm423 360c-4.3-10.8-5.6-28.6-11.1-38.3-4.3-7.6-16.3-19.5-22.2-27.8-12-16.6-23.4-35.5-33.8-53.2-13.5-23.1-33.6-71.9-57.8-82.2-8.1-3.4-11.8-1.6-19.5-2.5-6.2-.7-12.2-2.2-18.4-2.9l-17.1 35.8c6.1 2.2 12 5.3 18.2 7.4 10.5 3.6 38.2 7.9 44.8 14.2 7.1 6.7 12.3 40.6 19.5 52.5 6.6 11 30 33.7 39.9 44.1 14.9 15.5 36.1 38.7 53 51 1.3 1 2.7 2.2 4.5 2Z" class="shading" data-original-prefix="shading" opacity=".2"/><path id="outline-ear-lft" class="outline"  fill="#000" d="M844 941c3.5-3.7 9.5-11.8 12.4-16.1 4.8-7.2 16.4-28.2 15.6-36.3-16.8-39-30.3-79.4-48.1-118-7.2-15.6-22.5-39.6-25.4-55.6-1-5.8 0-11.7-.5-17.5-3.3-45.1-7.7-135.4-25.5-174.5-3.3-7.2-25.2-24.6-32.6-30.4-33-26-70.9-45.4-110.4-59.7-68.6 7.7-172.2 32-218.5 86.6-11.6 13.7-35.4 43.8-42.8 59.2-2.8 5.7-1.1 5.2-1.1 9.9-.6 34.1 31 102.7 47.4 134.5 23.4 45.3 67.4 118.5 102.5 154.5 3 3.1 13.8 12.9 17.6 13.5 1.7.3 4.6-6.1 5.3-7.7 14.2-30 26.4-60.7 41-91 5.7-11.9 11.2-28.3 17.9-39.1 10.4-16.5 24.8-29.7 35.4-48.6 8.3-15 26.4-54.2 27.8-70.3.8-9.2-9.5-29.1-14.5-37.3-14.7-24.4-35.8-45.3-60.4-59.6-2.6-2.3 3.1-7.7 5.1-8.9 6.8-4.5 36.1-12.8 44.5-13.5 17.3-1.5 48.8 8.1 63.5 17.5 5 3.2 7.9 6.1 7 12.5-15-2.5-40.6-15.3-47.5 6-7.2 22.3 16.6 48.8 27.5 66.5l-7.8 55.7c4.9 9.7 11.4 18.4 18.3 26.7 10.7 12.9 16.5 19.9 25.3 34.7 27.2 45.4 45 96.6 73.8 140.2 5.2 7.8 23.4 29.6 24.3 36.7 1.1 8.3.3 18.2 1.9 26.7-1.8 3.8-26.4 25.2-28.8 22.7 1-5.6 4.4-10.8 5-16.5 2.2-21.2-16.5-60.3-26.5-79.5-23.8-45.9-52.8-93.3-86-133-5.4-6.5-16.8-16-20.5-22.5-1.2-2-1.5-4.3-2-6.5l-62 104c4.1 1.2 8.2 4.3 11.7 6.8 2.7 1.9 14.1 10 15.3 11.7 3 4.1 6.3 16.5 8.8 22.2 7.7 17.2 25.2 54.7 36.7 68.3 7.1 8.4 25.7 22.7 35 30 24.3 19.3 37.5 32 71 29 9.3-.8 17.4-5.9 26.5-6-10.1 6.5-41.4 22.8-52.5 23s-39.2-12.2-49.4-18.6c-13.5-8.5-21.1-19.2-32.6-29.4-11.3-10-27.4-17.4-33.7-31.3-7-15.8-10.7-29.5-19.7-45.3-6.6-11.7-14.4-24.6-24.7-33.3l-4.9 5.1c-15.5 20.1-21.9 45.4-27.1 69.9-3 14.1-5.4 28.6-5.5 43-2.8 3.2-28.5-20.2-31.5-23-80.1-74.1-140.5-192.9-177.2-294.8-2.9-8.2-11.2-27.8-12.1-35-1.2-10.5 17.8-49.1 23.6-59.9 8.7-16.2 21.8-38.5 33.7-52.3 17.9-20.8 63.6-38.8 89.5-49.5 41.3-17 119.9-46.1 163.2-35.2 14 3.5 51.2 30.2 65.3 39.7 21.7 14.6 45.1 30.3 65.4 46.6 5.8 4.7 23.5 19 26.2 24.8 4.2 9.2 1.4 36.4 1.9 48.1 2.4 62 10.9 128.3 38.9 184.1 5.6 11.2 13.7 22 19.1 32.9 6.1 12.4 10.3 26.9 16.3 39.7 9.2 20.1 20.9 33.1 21.8 56.2 0 2.2.4 4.4-.5 6.5-13.3 16.2-22 40.8-39.8 52.2-4.6 3-11.3 6.6-16.7 7.8Z" class="outline" data-original-prefix="outline"/></g><g id="07_Head" data-trait="hatflip KBDS"><path id="fill-head1" class="fill"  fill="#fff" d="M1015.8 692.3c17.2-1 48.3 1.2 61.7 12.7 4.2 3.6 8.9 11.7 13.5 13.5 15.1 5.8 38.7 9.2 55.2 13.8 53.3 14.7 86.1 28.6 131.1 60.9 17 12.2 61.4 45 69.9 62.1 19.5 39.4 19.8 89.2 32 131 .4 1.3 14.8 17.5 17.2 20.8 8.7 11.8 19.4 27.3 25.4 40.6 6.3 13.9 7.3 17.3.8 31.6-7.1 15.7-16.5 30.6-23.9 46.1-3.1 6.5-6.5 22-12.9 26.1-2.5 1.6-22.9 3.8-27.6 4.4-131 17-262.2 15.9-393.8 15.1-95.9-.6-187.7-3.1-282.9-16.1-4.1-.6-17.8-2-20.1-3.9-6.2-5.1-9.2-18.2-12.7-25.3-7.5-15.5-16.7-30.6-23.7-46.3-5.8-12.8-5.4-17 0-29.7 5.9-13.7 17.5-30.4 26.4-42.6 2.4-3.3 16.8-19.5 17.2-20.8 12.2-41.8 12.5-91.6 32-131 9-18.2 59.1-54.8 77.5-67.5 42.1-29.3 74.2-41.9 123.5-55.5 16.5-4.6 40.2-8 55.2-13.8 4.6-1.8 9.3-9.9 13.5-13.5 11.1-9.4 31.3-11.9 45.5-12.7" class="fill" data-original-prefix="fill"/><path id="outline-shading-head4" class="outline"  fill="#000" d="M680.4 1149.2c-11.8-20.5-19.7-42.5-22.2-66.3-2.9-27.3 1.6-42.6 22.5-60.5 45.7-39.1 168.8-59.5 229.1-68.9 41.3-6.4 83.1-13.2 124.9-12.1 55.6 1.4 127.5 14.6 182.7 26.3 45.7 9.7 143.2 30.8 167 74 14.6 26.5 1.2 79.2-14.6 103.7-4.9 7.6-6.3 4.2-14 5-46.9 5-93.7 10.8-141 13-8.2.4-19.8-1.5-26.9-.8-59.9 6-121.9 1.4-182.1 2.7-106 2.3-207.6-3.2-313-15-3.3-.2-10.1 1-12.4-1.1" class="shading" data-original-prefix="shading" opacity=".2"/><path id="outline-shading-head3" class="outline"  fill="#000" d="M1375.8 968.2c2.3 2.4 2.8 15.2 4.5 19s8.9 8.9 10.7 13.3c.2.7-.8.6-1.5.5-4.4-.7-16.1-9.2-21.3-11.7-24.3-11.7-55.1-19.4-81-28-3.9-1.3-7.8-3.9-12.2-4.8-39-8.8-74.9-27-114.9-32.1L1121 918c17.8.3 35.7 1.2 53.4 3.1 53.1 5.6 113.3 18.9 164.4 34.6 4.6 1.5 35.6 11.1 37 12.5" class="shading" data-original-prefix="shading" opacity=".2"/><path id="outline-shading-head2" class="outline"  fill="#000" d="m926 918-83.2 15c-10.4 8.1-27.2 10.9-40.3 14.9-37.6 11.7-89.3 24.8-124.2 41.8-6.9 3.4-13.7 9.6-21.3 11.2 1.4-4.8 8.5-9.4 10.4-13.1 2.1-4 2.3-17.2 4.8-19.7s20.8-7.5 24-8.5c23.7-7.8 49.4-14.7 73.8-20.2 50.9-11.5 103.6-20.4 156-21.4" class="shading" data-original-prefix="shading" opacity=".2"/><path id="outline-shading-head1" class="outline"  fill="#000" d="M982 713c.6.7 15.2 2.7 17.5 3 6.2.8 16 1.9 22 2 5 0 43-3.4 44.5-5 .5-.5-1.8-5.4-.3-8.8 4.2-8.9 18.7 3 12.7 13.7-5.7 10-23.8 10.6-33.9 10.1-6.2-.3-14.3-2.8-20.1-2.9-6.3 0-15.1 2.6-21.8 2.9-11 .5-36.7-1.1-34.3-17.3.7-5 6.3-11.5 11.5-9 5.8 2.8 1.6 10.6 2.2 11.3" class="shading" data-original-prefix="shading" opacity=".2"/><path id="outline-head37" class="outline"  fill="#000" d="M1092.3 711.7c46.7 13 97.5 22.1 140.7 44.8 30.2 15.8 92.2 59.8 113.5 85.5 17.8 21.5 24.6 77.7 31 106 2.3 10.3 4.8 25.9 7.7 35.3.3 1.1 10.2 11.3 12.2 13.8 8.8 11.2 33.8 46.7 35.5 59.5 3.1 22.6-18.2 52.2-28.1 72.7-2.5 5.1-4.1 12.5-6.6 17.4-.6 1.2-6.8 9.5-7.5 10-2.5 1.9-10.8 2.6-14.4 3.2-70.5 11.2-144.5 14.5-215.9 16.1-157.1 3.4-326.5 6.8-481.8-15.1-4.8-.7-18.4-2-21.6-4.4-7.6-5.8-10-19.1-13.9-27.1-9.9-20.4-31.2-50.2-28.1-72.7 2.7-19.4 34.7-57.8 47.7-73.3 11.8-40.8 13.7-92.8 32-131 8.5-17.5 45.7-45.4 62.3-57.7 52.7-39.4 90.2-54.4 153.5-71.5 10.6-2.9 36-6.7 44.2-10.8 2.1-1.1 10.8-12.1 14.2-14.8 18-14.4 85.2-13.8 105.3-3.3 6.5 3.2 13.4 11.9 18.1 17.4M1073 717c-1.3-2.7-4.7-3.9-7.3-5.2-21.1-10-53.5-10.2-75.5-3.1-4.9 1.6-12.1 4.1-15.2 8.3zm225 234c-8.1-32.1-17.3-71.1-38-97.5-35-44.6-125.2-92.7-178-114-53.5-21.6-77.2-16.9-128.7 5.3-51.6 22.3-150.2 75.3-176.5 125.5-12.6 24.1-20.2 53.8-26.8 80.2l36.6-10.4c58.8-17 116.9-23.3 177.9-25.1 74.8-2.2 151.8-3.4 225.7 9.3 36.5 6.3 72.5 15.6 107.8 26.7M958 731c-23.9 2.4-48.8 10.7-71.2 19.2-46.4 17.7-113.1 54.8-149.8 88.2-18.3 16.7-24.4 34.5-32.7 57.3-9 24.7-13 53.4-18.2 79.2l49.7-19.3c6.6-31.8 14.3-64.6 32.5-92 28.6-43.3 74.3-69.3 118.1-94.9zm404 244c-5.2-25.8-9.2-54.5-18.2-79.2-8.3-22.8-14.4-40.6-32.7-57.3-36.7-33.4-103.3-70.5-149.8-88.2-22.5-8.6-47.3-16.9-71.2-19.2l28 15.5c63.7 33.4 142.5 70 173.9 139.1 10.2 22.4 15.3 46.5 20.7 70.3zm-362.2-50.7c-95 1.8-192.3 14.6-277.8 57.2-26 13-52 25.4-71.5 47.5-5 5.7-19.7 24.7-20.2 31.6s10.1 29.4 13.5 37.1c7 15.8 14.9 31.3 23.9 46.1 36.8 6.8 74.4 8.3 111.8 11.2 55.2 4.3 110.6 8.5 166 10 108.5 3 215.1-1.5 323.1-10 37.6-3 75.5-4.3 112.4-11.6 5-10.2 10.9-19.9 15.9-30.1s19.4-40 20.1-49.9c.5-7.2-3.2-12.2-7-18-11-17.2-27.9-33.2-45.4-43.6-110.6-66.2-237.7-80-364.8-77.5" class="outline" data-original-prefix="outline"/><path id="outline-head36" class="outline"  fill="#000" d="m822.9 974.1 1 8.9-38.5 10.1c-3.4 1-7-7.8-4.9-9.2z" class="outline" data-original-prefix="outline"/><path id="outline-head35" class="outline"  fill="#000" d="M1268 984c-1.2 5.2-1 9.7-7.2 8.8-11.4-1.6-24.7-8.8-36.7-9.8v-9z" class="outline" data-original-prefix="outline"/><path id="outline-head34" class="outline"  fill="#000" d="M1284 1000c-1.1-1.3 3-10 3.5-10l41.4 16.5c-13.1 11.5-30.1-5.3-44.9-6.5" class="outline" data-original-prefix="outline"/><path id="outline-head33" class="outline"  fill="#000" d="M761 990c.4.3 3.8 9 3 10l-32.5 11c-4.6.7-8.9-1.7-12.4-4.5 4.7-2.5 40.1-17.8 41.9-16.5" class="outline" data-original-prefix="outline"/><path id="outline-head32" class="outline"  fill="#000" d="M1383 1051c.3 6.9 1.4 13.6 1.1 20.6 0 2.2-.7 9.2-1.2 10.8-.7 2.2-8.4 2.5-10.9 2.6 1-10.5 1-20-1.1-30.4 4-1.3 7.6-4.2 12.1-3.6" class="outline" data-original-prefix="outline"/><path id="outline-head31" class="outline"  fill="#000" d="M676 1085c-11-.3-11.3-1.1-12-11.5-.5-7.8.4-15.8 1-23.5 2.4.7 11.3 3.6 11.9 5.7-2.3 9.9-2 19.2-.9 29.3" class="outline" data-original-prefix="outline"/><path id="outline-head30" class="outline"  fill="#000" d="M1379 1104c1.1 1-7.9 27.1-8.9 28.3-1.7 2-8.3 2.3-11.1 2.7l8.2-28.8c3.7-1.5 7.7-2.5 11.8-2.2" class="outline" data-original-prefix="outline"/><path id="outline-head29" class="outline"  fill="#000" d="M689 1135c-3-.4-9.7-.7-11.5-3-.9-1.2-9.6-27-8.5-27.9 2.9.2 9.2.4 11.1 2.4.9 1 7.6 21.6 8.4 24.6.4 1.2.7 2.5.5 3.9" class="outline" data-original-prefix="outline"/><path id="outline-head28" class="outline"  fill="#000" d="M1255 1013c.3.3-2.8 7.6-3.2 7.8-2.6 1.7-24-7.4-28.9-7.3-1.9-1.4-.7-6.2-1-8.5 2.5-2.4 28.2 7.7 33.1 8" class="outline" data-original-prefix="outline"/><path id="outline-head26" class="outline"  fill="#000" d="M1014 949v9c-9.6-.3-19.2 1.4-28.8 1.8-3.3.2-3.2-8.8-.6-9.7z" class="outline" data-original-prefix="outline"/><polygon id="outline-head25" class="outline"  points="1064 950 1064 960 1034 958 1034 949 1064 950"/><path id="outline-head24" class="outline"  fill="#000" d="M1112 954c.4.4-.3 8.3 0 10-4-1.6-27.6-1.7-28.9-3-.5-.5.2-7.3 0-9l29 2Z" class="outline" data-original-prefix="outline"/><path id="outline-head23" class="outline"  fill="#000" d="M965 952c-.3 1.6.4 8.6 0 9-1.3 1.2-25.2 1.3-29 3v-10z" class="outline" data-original-prefix="outline"/><path id="outline-head22" class="outline"  fill="#000" d="M917 957c-.3 2.2.9 7.3-1 8.5-3.4 2.4-22.7 2.3-28 4.4-.8-.5-1.5-8.5-1-9 1.1-.9 26.2-3.2 30-3.9" class="outline" data-original-prefix="outline"/><path id="outline-head21" class="outline"  fill="#000" d="M1160 970c-5.3-2.2-24.6-2.1-28-4.5-1.8-1.3-.7-6.3-1-8.5 4.3.3 29.2 3 29.9 5.6.3 1.1-1.7 5.4-.9 7.4" class="outline" data-original-prefix="outline"/><path id="outline-head20" class="outline"  fill="#000" d="M735 1141c-2.8-.8-8.2-.4-10.1-2.4-1.6-1.7-8.9-24.7-7.9-25.6 2.9 0 7.5-.6 9.5 2z" class="outline" data-original-prefix="outline"/><path id="outline-head19" class="outline"  fill="#000" d="M1331 1113c1 .9-7.1 24.8-8.5 26-1.8 1.6-7 1.2-9.5 2l8.2-26.8z" class="outline" data-original-prefix="outline"/><path id="outline-head18" class="outline"  fill="#000" d="M705 1021c.9 1.2-.9 2.2-1.7 2.8-3.8 3-9.3 5.3-13.4 8.6-1.4 1.1-3.2 4.5-3.7 4.6-1.3.3-10-2.7-10.3-3.1-2.2-3.2 14.8-14.7 17.9-15.5 2.3-.6 10.5 1.6 11.2 2.6" class="outline" data-original-prefix="outline"/><path id="outline-head17" class="outline"  fill="#000" d="M1372 1034c-.3.4-9.4 3.3-10.3 3.1-.5 0-2.3-3.5-3.7-4.6-4.1-3.3-9.5-5.7-13.4-8.6-.8-.6-2.6-1.6-1.7-2.8.7-1 8.9-3.2 11-2.6 3.2.8 20.3 12.3 18.1 15.5" class="outline" data-original-prefix="outline"/><path id="outline-head16" class="outline"  fill="#000" d="M1113 983c.4.4-.2 6.5 0 8-3.9-.7-29.6-1.8-30.1-3.6s.4-5.2 0-7.4c3.8.4 28.9 2 30 3Z" class="outline" data-original-prefix="outline"/><path id="outline-head15" class="outline"  fill="#000" d="M965 980c-.3 1.7.5 7.1 0 7.9-1.1 1.2-26 2.3-29.9 3.1.2-1.5-.4-7.6 0-8 1.1-1 26.2-2.6 30-3Z" class="outline" data-original-prefix="outline"/><path id="outline-head14" class="outline"  fill="#000" d="M1035 985c-.3-.3 0-6.4-1-8l30.1 1.4c1.6 1.1 1.6 7.8-.7 8.5-3.7-1.7-27.4-.9-28.4-1.9" class="outline" data-original-prefix="outline"/><path id="outline-head13" class="outline"  fill="#000" d="M1013 977v8l-27.5 2c-3.6 0-3.4-8.1-.8-8.9z" class="outline" data-original-prefix="outline"/><path id="outline-head12" class="outline"  fill="#000" d="M1205 978c-4.2-1.5-22.7-2.8-25.1-4.5-1.8-1.2-.8-7.8.2-8.5s23.9 3.7 24.9 4.4c1.9 1.2-.8 6.1 0 8.6" class="outline" data-original-prefix="outline"/><path id="outline-head11" class="outline"  fill="#000" d="M1326 1094v-18.5c0-.3-1.1-1.1-.9-1.9.3-1.6 10.9-6.2 10.9-3.1v18c0 5.3-6.4 4.5-10 5.5" class="outline" data-original-prefix="outline"/><path id="outline-head10" class="outline"  fill="#000" d="M868 965v9l-25 4c.5-2.5-2.4-6.9 0-8.5 3.1-2.2 20.2-2.9 25-4.5" class="outline" data-original-prefix="outline"/><path id="outline-head9" class="outline"  fill="#000" d="M722 1072v22c-2.8-.8-10-.6-10-4.5V1070z" class="outline" data-original-prefix="outline"/><path id="outline-head8" class="outline"  fill="#000" d="M1160 998c-3.6-1-27-3-27.9-4-.5-.5.2-6.4 0-8l27.1 4.4c1.6 1.2.7 5.6.9 7.6Z" class="outline" data-original-prefix="outline"/><path id="outline-head7" class="outline"  fill="#000" d="M916 986c-.2 2.9 1.1 6.1-1.7 7.8-3.7 2.3-20.9 2.5-26.3 4.2.2-2.1-.8-6.3 1-7.5 1.1-.8 26-5.5 27-4.5" class="outline" data-original-prefix="outline"/><path id="outline-head6" class="outline"  fill="#000" d="M869 995c-.3 1.8.8 6.2-.6 7.1-1.2.8-22.4 5.6-23.3 4.8-.2-2.2-2.3-5.8 0-7.4 1-.7 23.1-5.4 24-4.5z" class="outline" data-original-prefix="outline"/><path id="outline-head5" class="outline"  fill="#000" d="M1202.9 999c.5.5-.2 6.4 0 8-3-.2-23.2-4.1-23.9-5.1-.7-1.1.2-5.2 0-6.9 3.1.4 23.1 3.2 23.9 4" class="outline" data-original-prefix="outline"/><path id="outline-head4" class="outline"  fill="#000" d="M1327 1052c-10.6 4.5-7.6 2.3-14.5-3-1.6-1.2-10.6-6.5-9.5-8 .6-.8 7.1-3.2 9-2.6 2.6.8 16.5 11.5 15 13.6" class="outline" data-original-prefix="outline"/><path id="outline-head3" class="outline"  fill="#000" d="M745 1041c.6 2.3-.5 1.6-1.3 2.3-2.1 1.7-5 3-7.2 4.7-1.7 1.3-5.9 6.6-7.2 6.8-1.6.3-6-3.1-8.3-2.8-1.5-2.1 12.5-12.9 15-13.6 3.6-1 5.5 2.2 9 2.6" class="outline" data-original-prefix="outline"/><path id="outline-head2" class="outline"  fill="#000" d="M1289 1026c1.6 1.5-.5 1.7-1.3 2.2-5.8 3.8-9.8 4.1-16 .6-3.3-1.9-.2-7.8 1.8-7.9.9 0 14.9 4.5 15.5 5.1" class="outline" data-original-prefix="outline"/><path id="outline-head1" class="outline"  fill="#000" d="M759 1028c-1.7-1.8.6-1.7 1.4-2.1 6.4-3.2 16.2-8.8 17.5 1.5-.2.8-9.5 4.6-10.5 4.5-.4 0-8.1-3.6-8.4-3.9" class="outline" data-original-prefix="outline"/><g id="kbds"><path id="outline-head58" class="outline"  fill="#000" d="M908.2 1103.7c-2.9 1.6-9.2 5.2-18.8 11-1.3 1.1-5.3 3.1-11.8 6.2s-10.7 4.9-12.7 5.4c-2.2-8.2-6.2-16.5-12.2-24.9-3.3-3.7-8.5-9.4-15.7-16.5-5.9-5.8-13.1-10.2-21.4-13.1.2 0 0 0-.8-.2 0 0 0 .2-.2.4 1 3.3 2.7 8.4 5.4 14.3 2 4.4 5.7 11.4 10.1 20.6 3.6 7.6 7.8 14.3 12.3 19.9.8 0 1.1.4.8 1-.8.7-2.2 1.3-4.2 1.9q-16.05 4.95-32.1 10.2c-3 1.4-4.6 2.1-7.6 3.5-.2-.2-.3-.2-.5-.4-.4-4.1-3-11.1-3.8-18.1-.3-2.5-.4-6.8-1.4-11.6-1.2-5.6-1.8-9.5-1.9-11.7-.6-16.2-.4-32.2.6-48.4.6-2.6 1.6-7.2 3.2-13.9.5-2 2-5.8 4.6-11.3.4 0 .6 0 1-.2.8 3.1 3 9.1 6.3 18.2 2.7 7.4 4.4 13.5 5.2 18.2v.2c.8-.2 1.2-.3 1.9-.5 9-4.1 18.5-8.1 25.1-16 2.9-3.5 4.9-5.9 5.9-7.3 2-2.7 3.3-5.3 3.9-7.7q2.25-8.7 1.8-11.1c0 .2.3 0 1-.4 11 5.2 22.9 8.9 34.4 13-1.7 1.3-8 6.2-18.1 12.7-10.1 6.4-21.8 12.1-33 17.6 22 7 42.1 18.1 61.4 30.7 2.2 1.2 5.8 3.7 11 7.7z" class="outline" data-original-prefix="outline"/><path id="outline-head57" class="outline"  fill="#000" d="M1017.6 1087.8c-.8 5.9-7 12.1-16.5 17.5-8.2 4.6-17.2 8-25.8 11.6-5.7 1.6-8.6 2.4-14.2 4-2.9.8-8.7 2.1-17.3 4-5.7 1-8.6 1.5-14.3 2.6 0 0 0-.2-.2-.3-1-9.3-2.1-18.7-2.6-28.1 0-10.2.2-20.4.3-30.6 0-13.7 1.7-27.4 4.7-40.8.4-1.5 1.1-4.2 1.9-8-2.6-.8-5-1.7-7.2-2.5-3.7-1.5-5.6-2.3-9.4-3.7 0-.5 0-.8.5-.8 8.1.9 14.9 1.6 20.5 2.1 8.4 1.6 16.8 3.3 25 5.2 9.4 2.2 17.3 4.7 23.5 7.4 3.8 1.6 9.5 4 16.7 7.3 6.1 2.8 10.8 6.1 14.1 9.7.6 1.6.9 3.2.8 4.9 0 3.5-2.1 7.2-5.7 11.2-.3.3-3.9 3.5-10.7 9.7 1.7 1.3 4 3.4 6.8 6.3 6.3 4 9.6 8.1 9.2 11.2Zm-53.9-45q-3.45-3-13.8-6c0 3.6.5 9 1.2 16.3s1.1 12.7 1.2 16.3c9.4-3.6 16.3-6.9 20.7-10.2 2.1-2.1 3.2-3.9 3.1-5.3 0-3.7-4.1-7.4-12.4-11.1m14 45.2c-1-1.5-5.1-3.8-11.3-5.1-5-1.1-9.7-1-12.8-.8 1.1 5.1 3.2 12.8 6.3 22.9 3-.9 7.8-3.1 12.9-6.9 3.7-2.7 5.7-5.6 5.7-7.6s-.2-1.8-.7-2.5z" class="outline" data-original-prefix="outline"/><path id="outline-head56" class="outline"  fill="#000" d="M1147.2 1082.8c-22.1 12.6-46.5 21-70.4 29.4-9.1 3.2-18.3 6.2-27.4 9.2-3.6 1.2-7.1 2.2-10.3 2.8-.3 0-.4-.2-.7-.4.3-11.5 1.2-23.1 2.4-34.3.5-4.4 1.7-13.5 3.9-26.6 2.1-12.3 6.1-24.5 9.7-36.6 0-.6-6.6-6-19.9-15.6.2-.4 1.9-.8 5.2-1 7.4-.5 13 .3 16.5 2.3 14.6 8.5 29 17.2 42.7 27 9.9 7.3 19.6 14.8 29.2 22.3 3.6 2.9 9.7 8.5 18 17 1.5 1.6 1.9 3.1 1 4.3v.2Zm-44.5-8.1c1.1-.7 1.6-1.5 1.7-2.2 0-.6-.4-1.5-1.4-2.6s-1.6-1.8-1.7-2.1c-5.1-5.8-11.4-12.6-19.1-20.3-2.7-2.7-6.8-5.8-12.2-9.3h-.5c-.6 5.3-.9 8-1.6 13.4-.6 5.3-.3 13.9.6 25.6.6 6.9 1.3 13.8 2.3 20.7 8.4-4.4 15.6-8.9 21.3-13.3 3.1-2.4 6.6-5.7 10.5-9.8Z" class="outline" data-original-prefix="outline"/><path id="outline-head55" class="outline"  fill="#000" d="M1289.8 1051.6c-43.4-11.4-88.5-9-129.1 10.5 16 10.2 43.7 20.9 51.5 39.8-22.5 12.6-45.4 25.3-70.2 33 40.4 10.1 83.5-10.3 124-11.9-9.4-22.5-45.6-57.8-45.6-57.8.5-2.5 46.2-13.8 69.4-13.6" class="outline" data-original-prefix="outline"/></g></g><g id="08_Mouthpiece" data-trait="joint"><path id="fill-mouthbit-joint" class="fill"  fill="#fff" d="M1114.7 1563.2c2.6-.5 23.4.6 27.8.8 18.5 1.2 37.1 4.8 55.8 4.2 27.2 9.5 53.9 20.5 81.2 29.8 24.3 8.3 45.2 11.9 67.9 25.1 8.3 4.8 5.6 3.1 14.7 5.3 6.2 1.4 7.3 4.8 11.6 7.4 3.2 2 18.2 9.3 19.3 10.7 3.8 4.3-3.5 31.4-8.6 35.4-1.7 1.3-19.1 7.3-20.8 7.2s-5.4-4.1-10.3-4.8c-6.8-1-12.5-.9-19.8-2.2-16.8-3-29.9-6.6-47.9-7.1-10.6-.3-32.2 2.7-40.6.6-15.2-3.9-39.7-25-53.7-34.3-22.6-15.1-46.3-28.1-70.4-40.6-2.1-2-17-28.2-16.9-30.1 0-1.5 9-6.9 10.7-7.3Z" class="fill" data-original-prefix="fill"/><path id="fill-mouthbit-ember" class="fill"  fill="#fff" d="M1375 1655c.2 2.9-2.7 4.4-3.7 6.8-3.1 7.3-4.3 16.5 6.5 10.5 2.3-1.3 2.3-5.8 4.8-5.3 2.9.6 1.7 9.2-1.8 11.2-1.5.9-13.8 4.7-15.3 4.7-2.5 0-14.4-5.8-15.5-8.4-3.9-9.4.3-16.4 2.1-25.6l-5.1 3.4c0 4.8-7.3 8.4-8.2 10.8-1.4 3.6-.4 8-.7 11.8-9.8.7-22-11.2-19.2-20.7l8.2-14.3c-.8 7.8-6 24.3 6 25-2-5 2.9-14.5 6-18.5 2.3-2.9 20.8-15.1 22-9 0 .6-3.4 9.3-3.9 12.1-.4 2.6-1.4 12.3-.2 14 1.6 2.2 6.2.2 8-1.1 3.4-2.4 3.2-8.8 10.1-7.4z" class="fill" data-original-prefix="fill"/><path id="outline-shading-mouthbit" class="outline"  fill="#000" d="M1165 1566c-.5 2.4-5.8 0-6.9 1.1-.7.6-5.8 15.5-6 17.5-.5 5 2.8 17.9 5.8 21.7 1.6 2 21.1 11.4 25.4 13.9 11.6 6.9 23.1 14.1 34.2 21.8.5-6.6 0-9.9 3-16 1.6-3.3 14.8-25.9 16.5-27.5 1.3-1.3 2.1-1.8 4-1.5-4.3 20.5-20.3 27.6-8.9 50.4 6.5 12.9 17.3 11.8 30.5 13.5 8.1 1 16.3 1.5 24.4 2.1-6.1-12.6-12.1-21.2-5.5-35 .5-1 5-9.6 6.5-8-5.2 14.2-3.6 23.6 4.6 35.9 7.1 10.8 10.8 10.8 23.4 9.1-4.6-12.1 2.9-21.2 11-29.5 3.3-3.4 10.8-10.3 7.6-.4s-10.4 13.5-8.6 26.5c.5 3.9 7.4 7.7 10.9 8 2.7.2 6-3.4 9.1-2.1l37 15.6c-4.8.3-15.4 6.5-19.5 6-1.8-.2-5.4-4.1-10.3-4.8-6.8-1-12.5-.9-19.8-2.2-17.1-3-30.5-6.6-48.8-7.2-11.2-.3-28.3 2.5-38 1-3.1-.5-16.8-7.7-20.2-9.8-27-16-50.9-36.5-79.7-52.3-8.1-4.5-22-8.6-27.5-15.5-6.2-7.9-9.5-20.3-15.1-28.8l11.5-6.5zm-13 2c-6.6-.4-12.6.3-19 1.5-2.9.5-17.5 3.6-16.9 6.9.4 2.3 25.4 25.1 27.9 22.6-1.6-10.8.7-22.6 8-31" class="shading" data-original-prefix="shading" opacity=".2"/><path id="outline-mouthbit" class="outline"  fill="#000" d="M1098.2 1565.2c.4-.7 13.6-7.1 14.4-7.1 1.8 0 3.8 1 5.9 1 21.9.3 41.4 2.3 63.1 3.9 12.9 1 16.9-.3 30 4 20.3 6.6 40.6 16 61 23 24.9 8.6 53.2 14 75.8 27.2 2.1 1.2 6.3 5.3 7.4 5.6 4.9 1.4 10.7.5 16.2 3.8 2.1 1.2 3.5 3.9 5.7 5.3 3.4 2.1 19.1 9.8 20.4 11.6 3.5 4.8-2.1 26.7-4.3 32.8-1.3 3.4-2.7 8.2-5.8 10.2-2.4 1.5-20.6 7.6-23.4 7.7-6.8.2-7.8-4.2-12.1-5-3.6-.7-8.2.4-12 0-12.5-1.4-23.8-6.4-36-8-18.3-2.3-36.7-.4-54.9 0-7.2.2-19-5.9-25.5-9.6-17.5-10.1-35.2-25.7-53.2-36.8-9.7-6-20.3-12.3-30.2-17.8-6.1-3.3-20.4-8.1-24.6-12.4-1.7-1.8-16.5-28.1-17.3-30.7-.6-2-1.6-7-.6-8.6Zm16.9.9c0 4.3-4 5.5-2.7 9.9.4 1.4 13.3 20.8 14.7 22.3 4.2 4.4 14.1 8.2 19.4 11.6-4.5-11.6-9.1-18.6-4.3-31.2 1.4-3.7 7.2-9.9 2.3-10.7-9-1.6-20.1-1.1-29.4-1.9M1237 1590c-12.7-2.7-26-11.5-38.3-14.2-5.8-1.2-12-1.1-18-2-5.3-.8-21.6-5.6-25.2-2.9-3.1 2.2-7.4 14.7-7.4 18.6-.3 28.5 28.7 37.2 48.3 48.7 6.6 3.9 12.4 9.2 19.2 12.8-11.3-23.6 9.2-42.9 21.5-61Zm49 16-37.8-11.8-3.7.8c-6.7 11.4-16.4 22.9-20.3 35.7-4.2 13.8 9.9 29.3 18.8 38.8 14.1-1.4 27.9-1.3 42-.5 2.6-2.4-10.6-20.4-11.5-24-3-11.8 6-29.3 12.5-39m50 19-43.9-15.9c-6.9 15.1-12.7 22-6.6 38.9 1 2.7 9.7 20.1 10.9 21.1 3.9 3 12.7 1.3 17.6 2.9-1.6-4.6-5.2-8.2-5-13.5 0-2.6 4-15 5.2-17.9 2.1-5.1 5.8-9.5 9.9-13.1l12-2.5Zm39 30c-6.8-1.4-6.7 5-10.1 7.4-1.8 1.3-6.4 3.3-8 1.1-1.2-1.6-.3-11.4.2-14 .5-2.7 4-11.4 3.9-12.1-1.2-6.2-19.7 6-22 9-3.1 4-8 13.5-6 18.5-12.1-.6-6.8-17.2-6-25l-8.2 14.3c-2.7 9.6 9.5 21.4 19.2 20.7.3-3.8-.7-8.1.7-11.8.9-2.4 8.4-6 8.2-10.8l5.1-3.4c-1.8 9.1-5.9 16.2-2.1 25.6 1.1 2.6 13 8.5 15.5 8.4 1.6 0 13.8-3.9 15.3-4.7 3.5-2 4.6-10.6 1.8-11.2-2.5-.5-2.5 4-4.8 5.3-10.8 5.9-9.6-3.3-6.5-10.5 1-2.3 3.9-3.8 3.7-6.8z" class="outline" data-original-prefix="outline"/></g></svg>