<?xml version="1.0" encoding="UTF-8"?>
<?xml-stylesheet type="text/css" href="styles/collection.css"?>
<svg xmlns="http://www.w3.org/2000/svg" viewBox="0 0 2048 2048"><g id="01_background" data-trait="blue"><path id="color-blue" fill="#2f5496" d="M2048 0v2048H0V0z"/></g><g id="02_Jaw" data-trait="OG-cracked"><defs>
    
  </defs>
  <path id="fill-jaw" class="fill"  class="st0" d="M1396.7,1438.7c-6.7,4.3-46.8-1.7-48.7.3l-12.2,69.8-57.2,29.3-1.4,1.6c-1.5,11.9,1.5,24.2.9,35.9-.3,4.9-1.3,15-2.3,19.7-.6,2.8-13.7,32.2-15,33.5s-16.1,8.9-16.7,8.3l-9.5-50-51,52c-7.7,5.7-20.7,9.3-27.5,15.5-14,12.7-25.2,37.4-42.1,47.9-5.4,3.3-61.3,25.7-66.7,26.3-13.8,1.7-33-3.3-47.7.2-17.7-10.3-50.1-16.2-66.1-26.9-14.3-9.6-28.3-35.6-41.4-47.6-6.7-6.1-19.9-9.6-27.5-15.4l-51-52-9.6,48.4c-.6.9-.9,1.7-2.2,1.5-.8,0-13.8-7.6-14.4-8.2-1.4-1.4-15.9-33.3-16.2-35.3l-.5-54.4-58.2-30.3-12.3-69.7c-8.1-1.2-45.1,3.9-49.5-1l-37.1-85-.5-3.4,31.5-70.6c5.3-1.6,29.1,0,31.3-6.7.8-2.3-.6-19.5-1.3-22.4-2.2-8.4-16.2-24-19.8-33.2-.7-1.7-1.2-3.1-.6-5,4.7-11.3,10.3-22.3,14.1-34,7.3-22.4,7.2-42.6,16.9-65.1,47.5-110.2,188.9-176,299.9-200.1,44.7-9.7,79.8-1.5,122.7,11.2,98,28.9,222.6,97.5,259,199,6.8,19,7,38.1,13.5,57.5,3.8,11.2,10.1,22.1,13.7,33.4,0,1.4-8.3,16.4-9.8,19.1-2.4,4.3-9.7,13.4-10.7,17.3-1.8,6.8-.6,15.6-2.3,22.5,9.9,7.9,21.3,4.2,32.4,6.5,9.6,23.9,23.5,46,31.4,70.6-9.8,26.3-22.2,51.8-33.2,77.7-1.3,3-1.7,9.3-5.1,11.4h0Z"/>
  <path id="shading-jaw" class="shading"  class="st1" d="M1380.8,1185.8c-.2.4-2.1.7-2.8,1.7-8.6,10.8-16.2,26-21,39-4.2,11.4-5.1,22.7-13,32-18.8,22.4-51.8,45.5-78.3,57.7-5.4,2.5-12.5,3.7-16.7,7.8h20.5c2.7,0,5.1,1.2,7.9,1.1,18.1-.2,64.4-19.8,77.5-32.6,5.7-5.5,14.1-15.7,15-23.5,1.8,0,.7,2.4,1.5,4,3.1,5.9,15.5,5.2,21.5,6,.2,1.6-1.5.7-2.3,2.2-4.6,8.3-4.4,21.6-10.6,28.3-7.5,8.1-37.1,13.5-48.8,17.2-14.5,4.6-29.8,8.8-42,18.1l-52.8-14.8c-19.3-2.3-9.9,15.4-5.3,25.3,5.2,11.3,20.7,40,30.4,46.6,11.9,8.2,22.7-10.2,30-17,6.3-6,16.2-11.8,24.6-14.4,17.7-5.6,32.3,4.7,50.5,5.4,17.4.8,34.6-7.7,48.8-17.2,3.6-2.4,14.6-13.9,17.2-13.8,1.7,0,3.3,6.1,1.8,7.8-10.1,24.3-21.6,48-31.8,72.2-3.7,8.8-.8,14-13,15-9.3.7-15.8-1-24.2-1.8-4.8-.4-11.8,2.5-17.3-.2l-12.9,70.6-59,30.5c.4,11,2.6,23.6,2,34.5-.3,5.7-1.3,15.4-2.1,20.9-.5,3.1-13.4,31.4-15.4,33.6-3,3.2-11.6,6.2-15.5,9-.8-4.9-2.7-10.6-3-15.5-.6-11.2,2-11.3-2.7-23.2-.4-1.1-1.9-1-2.2-2-.8-2.2-.8-6.7-1.1-9.2l-2.3.2-50.2,51.8c-7.7,5.2-19.5,8.7-26.5,14.5-14.2,11.7-24.4,36.1-41.5,47.5-6.7,4.5-54.2,25.7-61.2,26.8-9.9,1.5-51.8,1.6-61.5,0-6.9-1.2-49.7-20.5-57.3-24.7-15.8-8.9-30.2-37.8-44.4-49.6-6.9-5.7-19-9.3-26.5-14.5l-51-52c-1,8.1-7.3,16-8.1,24-.6,6.2.6,14.6-.3,21.6-.2,1.7-3,1.8-2.1,4.4-.6.7-14.6-8.1-15.5-9-1.7-1.8-15-30.8-15.4-33.6-.7-4.4-.9-13-1.1-17.9-.5-12.2.6-24.4.5-36.6l-58.5-31.4-13-69.5-48.8-.2-38-86.6.9-6.2c8.2.4,11.8,8.2,18.6,12.7,25.3,16.9,38.4,19.8,68.5,13.9,17.1-3.4,19.1-7.5,37.2.4,15.9,7,19,16.2,30.6,25.4,9.6,7.6,13.6,7.9,22-1s31.8-49.1,32.1-60c.2-8.7-6.4-8.1-13.3-7.2-8.6,1.1-48.4,15.1-51,14.6-1.7-.4-12.3-7.9-16.5-9.6-20.3-8.4-48.8-11.8-67.2-20.8-14.9-7.3-11.3-20.9-17.7-33.2-.9-1.6-2.5-.6-2.3-2.2,6.3-.9,17,0,21-5.5,1-1.4.3-3.7,2-3.5,3,11.7,15.2,23.9,25.1,30.4,21.2,13.8,50.4,23.7,75.4,23.5h20.5l-34.7-16.8c-19.1-10.8-48.2-33.1-61.8-50.2-6.2-7.8-7.1-18.3-10.5-27.5-6-16.6-14.4-32-25-46,1.3-9,6.5-19.6,7.8-28.2,1.9-12.9,1.8-19.5,6.5-32.5,36.4-101.1,159.2-169,256.8-198.2,49.9-15,102.4-18.2,153.2-5.2,103.5,26.4,242.6,100.3,277.2,208.8,3.4,10.5,3,17.3,4.8,27.2.8,4.7,8.9,28.4,7.6,30.6l-.5-.2ZM1195.9,1382.1c-32.3-16.1-63.1-35.3-95.9-50.7-17.5-18.7-37.4-36.6-54.6-55.4-4.8-5.3-11.2-16-16-20-3-2.6-7.4-3-10.6-.6-4.5,3.4-12.7,16.4-17.4,21.6-16.7,18.6-36.8,35.6-53.6,54.4-32.9,15.3-64,34.2-96,51.2-.6,2.8,12.4,35,14.6,40.3,2.9,7.1,12.1,31.7,16,36.1,7.1,8,36.5,26.3,47,33,19.8,12.7,36.1,22.9,59.3,28.7,27.3,6.8,39.7,7.1,67,.6s43-16.6,65.7-31.3c10.4-6.8,35.9-22.5,43.4-30.6,4-4.4,12.7-27.4,15.6-34.4,2.1-5.1,16.8-41,15.5-42.9M728.3,1496.7c1.6,2,8.2,6.3,10.7,7.8,14.7,8.8,31.8,13.8,46.9,23.1,16.8,10.2,40.2,33.1,59.6,33.5,2.3,0,8.7-1.2,9.4-3.7s-13.6-27.6-16.4-30.3c-7.3-7.1-27.5-17.2-37.2-23.8-15.2-10.3-50.3-39.1-67.9-39.2-10.5,0-8.7,28.1-5.1,32.7h0ZM1319.7,1466.3c-5.9-5.9-24.1,4.1-30.4,7.6-16.2,8.9-31,21.4-46.2,31.8-12.7,8.7-30.1,15.7-38.6,28.4-2.2,3.4-10.8,17.7-11.4,20.7-1.1,5.3,6.2,6.5,10.3,6.3,16-.9,23.4-9.7,35.2-17.8,9.2-6.3,19.3-13.6,29-19,11.7-6.6,47.1-19.2,52.7-29.3,2.4-4.3,2.8-25.2-.7-28.6h0ZM1126,1664c-12-2.7-20.7,6.6-31.6,7.9-5.7.7-12.2-1.2-16.6-.7-7.1.8-22.9,12.1-31.2,14.9-14.8,4.9-30.2,4.7-45.1,0-8.8-2.8-23.9-14.1-31.2-14.9-4.4-.5-10.9,1.4-16.6.7-11-1.3-19.9-11-31.6-7.4,0,6.9,23.8,23.5,30,27,12.5,7.1,59.8,26.8,72.5,26.6s59.9-19.8,72.2-26.9c10.3-6,24.6-16.2,29.3-27.2h-.1Z"/>
  <path id="outline-jaw" class="outline"  d="M676,1140c5.2-3.1,18.7-3.2,19.1,4.5,0,2.3-.8,11.2-1.1,14-.3,3-.9,8.4-2.1,10.9-2.5,4.9-17.3,13.6-20.1,19.9-1.2,2.6-6.4,25.9-6.7,29.3-.2,1.7,0,2.8.4,4.4,2.1,6.9,13.8,19.7,17.7,27.3,5.7,11,7.2,24.3,12,35s13.5,10.7,22.5,15.6,17.7,11.1,25.3,17.2c-3.1,0-6.3.2-9.4,0-7.7-.8-35.8-6.7-41.8-10-6.1-3.3-8.8-18.4-12.8-20.4-2.5-1.2-7,0-10.3-.7-6.7-1.2-9.9-7.8-17.5-1.5-6.7,12.4-14.3,24.3-20.4,37.1-7.4,15.4-14.8,25.1-4.8,41.2,5.2,8.4,23.4,27,25.6,34.4,2.5,8.4-2.4,27.4,2.4,33.6,5.4,6.9,20.6,5.2,27.7,1.7,11.1-5.5,9.2-10.1,14.9-19.1,5.3-8.3,20.9-24.3,30.4-26.7,7.7-1.9,12.3,10.3,14,16,4.9,15.9,2,31.2,13.9,44.1,1.1,1.2,9,8.5,10,7.5-.8-5.6,4.8-8.4,6.5-13,3-7.9-3.1-20.6-5-29-2.8-12.3-5.1-24.7-8-37-1-4.1-6.2-19.9-5.4-22.3,1.2-3.8,23.7-9.1,24.9-10.7.4-.5-2.9-8.7,0-12.6,1.3-1.8,8.8-6.8,11.1-8.9,3.9-3.5,23.1-22.9,25.7-23.4,4.4-.8,5.2,2.4,8,3.6,5.1,2.1,10.8,2.5,15.7,4.3,1.1.4,2.4.5,2.5,1.9-11.2,6.3-23.6,13-34.3,20.2-2.7,1.8-16.6,11.8-17.6,13.4-1.6,2.6-2.2,9.7-2.2,12.9l3,44.5c-9.8-13.1-8.1-31.3-10-47-2.5,1.9-15.3,3.5-15.9,5.6,4.5,18.6,8.6,38.8,15.1,56.7,7.3,20.1,19.2,40.4,27.7,60.3,11.1,7.8,27.2-5.8,33-15,5.6-8.7,8.1-23.6,22.5-13.5,11,7.7,22.9,21.4,33.5,30.5,48.3,41.3,92.1,59.6,157.4,50.3,40-5.7,69.7-25.7,99.7-51.3,6.2-5.3,32.4-31.5,37.5-32.5,11.9-2.2,14.8,13.8,21.4,21.5,7.4,8.7,17.4,14.2,29.1,12,4.4-.8,21.2-8.4,26.3-10.7,9.2-4.2,20.3-11.4,27.2-18.8,10.4-11.3,8.4-24,12-38,1.7-6.6,6.3-23.8,15.5-21.6,10.7,2.6,27.2,21,32.6,30.4,1.7,3,2.2,6.8,3.9,9.1,6.3,8.5,28.5,13.3,36,5.1,5.6-6.1.4-25.5,2.9-34.1s20.4-25.8,26-35c9.4-15.8.8-28.3-6.5-43.3-5.8-11.8-13.2-22.7-19.2-34.3-7.1-5.6-12.2.4-18.5,1.5-2.9.5-6.9-.4-9.3.7-3,1.4-6.8,14.4-9.5,17.5-1.4,1.6-7.6,4.3-9.9,5.1-8,2.8-25.7,6.6-34.3,7.7-3.4.4-6.8.2-10.2.2,6.6-5.5,15.7-12,23.3-16.2,11.5-6.3,19.8-5.1,25.5-19.5,3.9-9.8,5.3-20.7,10.3-30.7,3.9-7.7,16.9-22.6,18.7-29.4.4-1.7.2-2.8,0-4.5-.6-4.4-5.6-25.6-7.2-28.8-3.7-7.3-19-15.9-20.5-21.5-.8-3.2-2.6-24.3-1.6-26.4,2.1-4.5,12.7-3.4,16.5-1,.5,1.9,4.4,14,5,14.5,6.2,5.3,26.1,4.1,26.1,17s-1.7,15.9.2,26.7c1.7,9.8,9.7,22.5,6.4,31-2.3,6-12,20.9-15.9,27.1-3.6,5.6-8.1,10.6-11.8,16.2,8.8.3,18.9-17.9,26.1-12.1,3.4,2.8,13.7,18.6,16.7,23.3,5.1,7.9,10.9,17.6,15.1,25.9,3.9,7.8,17.4,38.8,16.1,45.8-.2,1.2-13,15.6-15.2,18.8-10,14.2-21.3,32.5-25.7,49.3-1.9,7.2-2.7,14.7-4,22-1,1.4-27.6,11.9-31.1,12.9-10,2.9-17.2,1.5-24.9-5.4-.9,8.8-2.6,17.7-3,26.5s1.7,33.1-.8,39.2c-.6,1.5-11.3,15-12.5,15.5-6.3,3-15.7-1.7-24.7,3.3-22.6,12.7-18.8,48.5-26.9,68.1-6,14.6-40.4,52.5-54.6,59.4-1.2.6-2,1.3-3.6.9,1.2-14.7,3-35.1-3.9-48.6-.4-.8-.4-3.2-2.1-1.4-.7.7-3.6,13.8-6.6,17.9-8.6,11.7-30.9,6.8-39.2,20.8-5.2,8.9-7.6,22.3-13.4,30.6s-48.5,28.9-59.6,33.4c-15.1,6.1-64.1,21.2-78.8,21.2s-63.4-15.1-78.8-21.2c-11.1-4.4-55.3-26-60.6-34.4-6.9-11.1-8.5-31.6-21.5-37.6-14.4-6.6-26.5-2.6-33.9-20.1-1.1-2.5-2.5-10.3-2.8-10.7-1.3-1.6-1.8.4-2.2,1.3-1,1.8-4.8,14.6-4.8,16.2v30c0,.3,1.4,1.4,1,2.5-1.7.2-3-.3-4.4-1.1-15.2-8.7-49.8-45.6-54.8-62.2-6.2-20.6-5.2-52.1-25.9-65.1-8.2-5.2-18.3-.3-24.7-3.3-.9-.4-12.2-14.2-12.7-15.3-2.1-5.2-.2-29.6-.5-37.4-.4-9.1-2-18.5-3-27.5-4,1.6-7.6,4.7-11.9,5.6-2.8.6-5.6.7-8.5.3l-35.7-14.3c-1.5-7.3-2.1-14.8-4-22-4.3-16.8-16.4-36.3-26.5-50.5-2.2-3-13.9-15.8-14.2-16.8-1.1-3.6.8-8.3,1.8-11.8,5-18.6,17.3-42.1,27.6-58.4,2.5-4,17.5-26.2,20.1-26.9,6.2-1.8,15.2,12.1,22.3,12.8.7-.7-9.3-13.3-10.4-15.1-4-6.2-14.5-22.3-16.8-28.2-2.7-7.1,5.4-22.1,6.9-30.5,1.9-10,.2-18.4,1.3-27.7,1.2-11,17.6-11.6,25.8-15.7,2.1-4.7,2-9.6,3.2-14.8h.4v-.2ZM799,1627.5v-20c0-3.5,9.1-26.6,11.7-27.4,6.9-2.2,27.9,17.6,32.8,22.9,7.6,8.1,14.7,20,23,27,10.5,8.8,23.6,12.8,33.5,23.6,22.2,24.2,21.6,36,55.1,50.9,29.5,13.1,59.4,23.9,92.4,17.4,12.7-2.5,58.9-21.3,68.9-29.1,12.4-9.6,23.1-31.8,35.2-42.8,9.6-8.8,25.5-14.6,34.6-23.4,6-5.9,12.7-15.8,18.4-22.6,2.8-3.3,8.4-7.2,10.3-10.7,4.4-8.2,10.5-40.4,10.3-49.8-.3-12.5-3.5-25.3-4.2-37.8-17.1-12.8-20.5-.4-31.4,9.3-16.5,14.9-41.1,22.8-63,25-69.4,7-135.6,7-205,0-22-2.2-46.4-9.9-63-25-7-6.3-10.5-15.9-22-15.1-3.7.3-6,3.1-8.5,3.7-4.9,1-22.9-12.7-28.3-15.8-18.4-10.2-46.1-20.5-61.1-34.9-6.9-6.6-2.4-11.8-2.5-19.5s-3.8-23.4-6.8-30.2c-.5-1.1.2-1.5-1.7-1.3-9.4,1.3-19,20.2-19.3,28.8-.2,6.3,6.7,18.5,7.6,26.9,1.5,13.9-4.4,40.4,8.8,49.2,12.8,8.6,39.9,13.7,50.8,26.2,5.7,6.6,1.5,7.9.7,14.6-3.6,29.6,1.4,55.9,20.9,78.9.5.6,3.9,4,2,1h-.2ZM1248,1630c19.4-21.2,26.1-39.8,25-68.5-.3-7.8-4-21.4,0-27.8,4-6.1,20.2-13.6,27.2-16.8,15.2-7.1,31-7,32.7-27.3,1.3-14.8-1.6-26.3,2.5-41.5,3.4-12.7,7.8-13.2,2.5-27.5-2.8-7.7-9.2-17.6-18-18.4-5.5,13.3-7.4,26.1-7,40.5,0,3,2.2,4.9,0,8.1-1.5,2.2-16.5,12.2-19.8,14.2-9.2,5.7-59,28.5-60.9,35.1-2.7,9.4,7.3,31.3,8.6,41.6l-10,40.5c2.4-1.4,5-2.6,7.9-1.9,6.7,16.4,13.1,31.6,9.1,49.9v-.2h.2ZM780,1448c-2-1.4-5.5,2.6-5.8,4.7-.9,5,7.2,15.1,12.8,15.2-.9-2.6-6.1-19.4-7-20h0Z"/></g><g id="03_Mouth" data-trait="scrappy"><path id="fill-muzzle" class="fill"  fill="#fff" d="M1038 1292s-.4 1.7.7 2c10.3 2.8 18 4.3 25.8 13 1.9 2.2 4.9 8.8 6.5 9.5 2.6 1.2 6.6 0 9.5.5 11.4 1.5 21.2 3.7 31.2 9.8 2.1 1.3 9.2 7.8 10.2 7.1.3-.3 0-1.7 0-1.9 2.4-1.8 32.7.6 38 1 5.2 4.2 13.2 5.5 19.2 8.3 13.7 6.4 22.5 16.1 29.9 29.1 8.4 14.6 7.7 17.8 3.1 33.4-2.5 8.5-4.8 21.8-16.3 20.2 1.5-15.5-14.8-32.4-26.5-41-3.2-2.4-11.3-7.2-6 0 10.8 14.7 20.2 14.8 21.5 37.5.6 10.3-8.4 32.9-15.4 40.5-.6.7-7.1 6.3-7.6 6.5-3 1.6-6.9-6.1-7.8-8.2-3.6-7.8-4.7-15.5-9.7-23.3-1.1-1.7-10.8-13.7-12.4-12.1 5.6 13 9 46.2-2.5 56-4.4 3.7-9.4 1.9-13.3 3.7-2.8 1.3-3 5.7-4.8 6.1s-7-3.1-9.4-3.5c-8.9-1.3-13.2 17-18.7 17.5-2.5.2-10.7-11.9-18.4-9.4-7 2.2-15.4 21.2-24.4 23.6-6.3-6-3.4-14-5.8-21.2-1.2-3.5-4.2-6.7-5.8-10.2-5.4-12.7-2.8-19.9-.2-32.2.6-3 0-5.9.9-9.1.2-.7 6.3-12.3 6.9-13.1 3.7-5.4 19.2-12.4 22.7-3.8.9 2.2 0 8.7 2.2 7.7 5.1-4.9 10.2-9.9 15.5-14.5 11.5-10 14.1-9.7 21.2-24.8 1.5-3.3 6.5-14.5 6.6-17.3 0-3.4-9.2-14.7-11.8-17.8-1.4-1.7-9.5-11.5-10.2-11.8-6.4-3.2-28-2.3-34.7.8-7.9 3.6-12.5 12-19 17-1 .8-1.3 1.9-3 1.5l.8-12.7c3.6-4.3 21.7-23.3 21.1-27.5-.4-2.6-11.3-13.4-12.9-11.7 4.4 12.8.7 8.7-7.3 12.2-1.2.5-2.9 2.7-3.2 2.7s-2-2.2-3.2-2.7c-3.4-1.5-9.7-.4-9.3-5.6 0-1.1 4.1-7.6.5-6.6-2.8.8-12 9.9-11.3 13.2 0 .6 4 7 4.8 8 1.5 2 5 5.9 7 8.3 3.2 3.9 9.7 7.6 9.9 13.1 0 1.6-.8 3.1-.8 4.8s2.6 8.1-2.5 3.6c-6.2-5.3-10.2-13.6-18.5-17.5-6.5-3-30.3-4.3-35.7-.2-.8.6-8.8 10.5-10.2 12.2-2.4 3-10.9 13.7-10.8 16.8.2 5.4 11.7 29 15.7 33.2 3 3.2 9.3 6.8 13 9.9 5 4.3 9.7 9.1 14.5 13.5l4.2-11.1c4.9-3.1 17.7 2.6 20.8 7.1 1 1.5 5.1 9.9 6 11.9 2.8 6.4 5.1 25.4 4.4 32.4-1.1 10-7.9 15-9.4 22.6-1.3 6.4 1.1 14.9-5.8 18.9-8.1-2.6-17.3-21.5-23.6-23.5-8.2-2.6-15.9 9.6-18.4 9.4-5.3-.4-8.7-14-13.9-16.1-6.9-2.8-11.5 2.7-14.1 2.1-1.8-.4-2-4.8-4.8-6.1-4.5-2-9.6.3-14.3-4.7-10.9-11.5-6.5-42.2-1.5-56.1-9.1 6.7-14.1 14.8-18.5 25-1.6 3.6-2 7.5-3.7 11.3-1 2.1-4.9 9.8-7.8 8.2-.4-.2-6.9-5.9-7.5-6.5-3.9-4.3-13.8-24.4-15-30-2.8-12.9 1.4-26.5 9.5-36.5 4.1-5.1 11.3-9 13-15.5-2.4-2.4-22.3 17.4-24.4 20.1-5.4 6.8-11 15.9-9.6 24.9-8.3.5-10.7-3.3-13.3-10.2-2.7-7.1-7.8-22.8-6.2-29.8 3.7-16.2 21.4-35.8 36.3-42.7 6.2-2.9 13.9-4.1 19.2-8.3 12.5-.8 24.5-2.3 37-1 0 0 .7 2.1.5 3 9.5-8.2 20.6-14.8 33.1-16.9 4.7-.8 14.8-.4 18.1-1.8 1.6-.7 5.2-7.7 7.2-9.9 8-8.4 15.2-9.7 25.4-12.5 1.1-.3.6-1.9.7-2 1.1-.7 25.9-.7 27 0v.2Z" class="fill" data-original-prefix="fill"/><path id="fill-teeth14" class="fill"  fill="#fff" d="M1039.1 1601.9c-.8-.5-7.2-15.4-7.9-17.6-4.2-13.6-7-37.9-1.5-51.1 5.8-13.9 10.8-1 20-5 1.9-.8 7.6-6.8 9.2-8.8 2.6-3 3.6-9.1 8-8 12.8 3.1 21.1 24.2 22 36.1 2.3 30.4-23.4 40.7-45.2 53.7-1.2.5-3.6 1.3-4.6.6Z" class="fill" data-original-prefix="fill"/><path id="fill-teeth13" class="fill"  fill="#fff" d="M1015.7 1527.3c10.2 8.9 6 44.1 2.3 56.2-1.9 6.4-6 12-8.1 18.3h-2.3c-12.1-7.1-26.3-12.4-36.1-22.9-9.1-9.8-12.3-17.9-11.5-31.5.8-11.8 9-32.3 21.2-35.9 4.8-1.4 5.7 4.5 8.2 7.4 1.8 2.1 8.3 8.8 10.5 9.5 6 1.9 12.5-4.1 15.8-1.3z" class="fill" data-original-prefix="fill"/><path id="fill-teeth12" class="fill"  fill="#fff" d="M904 1461c0 2.2-1.1 3.8-.8 6.2s7.4 22.5 8.8 24c3.7 4.1 11.1 2.3 15.9 2.9 4.9 13.5-4.3 23.9-8.6 35.6-2 5.3-8.4 33.1-12.8 34.3-3.3.8-11.7-18-12.8-21.2-6.8-20.9-8.8-51.8 1.8-71.7.6-1.2 7.1-11.6 8.4-10.1Z" class="fill" data-original-prefix="fill"/><path id="fill-teeth11" class="fill"  fill="#fff" d="M1144 1564c-1 .7-1.8-.4-2.4-1.1-5.8-5.8-8.7-24.8-11.8-33.2-4.3-11.7-13.8-21.9-8.6-35.6 18.6 2.9 18.2-8.8 23.1-22.4l2.2-9.8c10.2 11.1 15.2 27.6 14.6 42.5-.5 13.7-3.2 35.3-9.5 47.5-.8 1.5-6.9 11.6-7.5 12Z" class="fill" data-original-prefix="fill"/><path id="fill-teeth10" class="fill"  fill="#fff" d="M949 1569c5.5 22.1 11.4 45.4 9 68.5-.5 5-1.3 9.2-7 6.9-3.4-1.3-17.5-13.4-19.5-16.5-7.4-11.8.3-39.7 8-50.8 1.2-1.7 7-10.1 9.4-8.1Z" class="fill" data-original-prefix="fill"/><path id="fill-teeth9" class="fill"  fill="#fff" d="M1100 1569c3.4-2.9 13.3 14.1 14.5 17 4.8 11.7 9.3 33.5 1 44-2.1 2.7-18.5 16.5-20.9 15.9-1.9-.4-3.4-6.5-3.6-8.4-1-8.7 0-26 1-35 1.1-10.9 6.5-22.5 8-33.5" class="fill" data-original-prefix="fill"/><path id="fill-teeth8" class="fill"  fill="#fff" d="M1167 1547c.9-6.7-1-15-.6-21.3.3-6.3 3.7-14.6 3.6-21.2 0-5.7-4.8-19.5-4-24 .5-2.9 3.5-2.8 5.5-4.5 6.2-5.3 10.4-15.8 16.9-4.9 14.2 23.5-1 56.5-18.4 74.4-.9 1-1.3 1.9-3 1.5" class="fill" data-original-prefix="fill"/><path id="fill-teeth7" class="fill"  fill="#fff" d="M881.7 1478.3c3.3 2.9-2.8 21-2.8 26.2s2.6 12.6 3.1 18c.7 8 0 16.5-.5 24.5-1.8 0-11.7-13.3-13.3-15.7-11.2-16.8-20.3-43.7-7-61.7 6.2-8.4 9.7.9 14 4.7 2 1.9 5.7 3 6.6 3.9Z" class="fill" data-original-prefix="fill"/><path id="fill-teeth6" class="fill"  fill="#fff" d="M1018 1613v16.5c0 .9-10.8 13.2-11.9 14.1-6.3 4.8-8-2.6-10.6-5.5-5.5-6-17.9-.4-24.4-5.6-.9-.7-4.1-8.3-4.1-8.9v-24.5c12.3 3 28.7 18.5 41.4 16.9 3.5-.4 6.1-3 9.6-2.9Z" class="fill" data-original-prefix="fill"/><path id="fill-teeth5" class="fill"  fill="#fff" d="M1102.5 1494c3.3-.8 5.3 8.5 6.3 10.7 5 10.5 15.3 30.3 11.4 42.1-2.2 6.7-15.6 23.4-20.4 11-4-10.4-4.1-44.7-1.1-55.5.4-1.6 2.4-7.9 3.8-8.2Z" class="fill" data-original-prefix="fill"/><path id="fill-teeth4" class="fill"  fill="#fff" d="M917 1563c-1.6 13.5 2.8 27.4 2 40.5-.5 8.8-4.2 18.6-5.5 27.5-5.8-5.6-10.5-15.7-11.4-23.6-.6-5.2.7-25.8 2.4-30.3.6-1.6 10.5-16.2 12.4-14.1Z" class="fill" data-original-prefix="fill"/><path id="fill-teeth3" class="fill"  fill="#fff" d="M1135 1631c-.4-8.9-4.4-17.8-5.1-26.5-1-13.6 3.6-27.7 2-41.5 2.2-2.4 11.9 13 12.5 15 2 6.8 2.7 27.3 1.2 34.3-1.3 6.3-5.5 14.8-10.8 18.7z" class="fill" data-original-prefix="fill"/><path id="fill-teeth2" class="fill"  fill="#fff" d="M1154.1 1604.9c-3.4-2-5.1-22.3-3.9-26.2.8-2.6 8.9-5.2 10.2-8.8l5.1-10.9c3.8 3.4 5.1 7.2 4.3 12.2-.7 4.5-5.2 22.3-6.9 26.2-.9 2.2-6.1 9-8.8 7.5" class="fill" data-original-prefix="fill"/><path id="fill-teeth1" class="fill"  fill="#fff" d="M885 1559c.4.4.7 7.1 3 10.5 2.7 3.9 10.5 6.9 11 10-.8 4.7-.7 23-4 25.4-2.5 1.8-7.7-4.5-8.7-6.7-1.6-3.6-6.3-22.5-7-27-.6-3.9 2.5-15.6 5.8-12.3Z" class="fill" data-original-prefix="fill"/><path id="outline-shading-mouth2" class="outline"  fill="#000" d="M918 1443.5c.8 5.3 5.6 13.8 10.1 16.9 11.5 8.3 16.2-.3 22.4-9.4 2.5 5.4 3.4 11.5 6 17 1.4 2.8 5.7 12 7.5 5.5l4-11.5c1.6 7.5 6.3 15.4 11.5 21 4.3 4.7 18.8 15.4 24.6 9.6 2-2.1 8.3-17.9 10.8-22.2 1.2-2.2 7.8-13.8 9.7-13.3 1 .2 8.5 13.2 9.7 15.3 2.4 4.5 7.3 17.7 9.8 20.2 3.8 3.8 10.5.4 14.4-1.8 10.5-5.9 18.5-17.2 21.7-28.8l4.2 12.3c.3 1.2 1.9 2.4 2.8 1.7.6-.4 5.8-11.3 6.5-13 .8-2 2.8-12 4-12 6.8 10.7 12.9 18.4 24.5 7.5 8.6-8 9.3-23.8 7-34.5 3.5-3.1 21.1 16.1 26.6 16.9 9.1 1.4 17.6-11.8 19-19.9 3.5-20.5-12.9-39.2-30.9-46.2l-12.7-4.8c15.4 0 28.2 2.9 41.1 11.4 4.8 3.1 12.2 10.9 17.6 11.4 6.2.6 10.1-4.1 10-10-.4-19.3-25.8-38.1-39.7-48.8 15.4 2.4 34.6 11.8 45 23.5 7.8 8.8 19.1 25.1 19.1 37s-6.4 28.5-9.2 32.8c-3.3 5.3-11.7 5.4-13.4 10.6-.9 8.1-2.1 16.4-2.5 24.5-1.5 29 1.4 45.2-10.8 73.2-3.6 8.2-12.7 20.4-14.9 27.1-4.2 12.8-.7 26.4-9.1 38.9-3.2 4.8-8.4 6.7-11.2 10.8-1.7 2.5-2.4 6.1-4.2 8.8-4.5 6.7-14.6 23-21.6 8.9-1.6-3.3-1.3-12.9-6.7-6.2-1.4 1.7-1.9 4.4-3.5 6.5-3.7 4.7-17.7 19.6-23.5 19.5-2.2 0-4.5-4.1-6.6-5.4-7.9-5-21.1-6.3-29.2-1.4-7.3 4.4-9.5 13.6-18.1 6.8s-6.4-10.8-20.1-9c-5.6.7-11.4 12.6-16.9 12.1-2.8-.2-11.4-11.1-18.5-12.6-6.3-1.3-17.5.7-23 4.2-2.6 1.7-4.1 5.6-7.5 5.4-5.7-.3-19.8-15.8-23.6-20.5-1.2-1.5-4.4-10.6-7.1-6.9-2.5 3.4-.6 9.9-7.2 12.7-7 3-14.9-11.2-18.1-16.4-1.2-1.8-1.2-4.3-2.6-6.4-2-3-6.8-5.4-9.5-8.5-10.4-11.9-6.7-27.7-10.7-41.3-.8-2.6-5.6-8.5-7.3-11.7-18.4-35.7-16.4-45.6-18.4-84.6-.4-7.7-.6-20.7-2.2-27.8-1.5-6.2-11.1-6.1-14.2-11.8-3.4-6.1-9.3-29.6-8.6-36.4 1.2-10.3 16.2-31.2 24-38 10.5-9.2 26.2-16.5 40-18.5l-21.5 17c-7.2 6.4-26.8 32-14.8 39.9 9 5.9 16.7-4.5 23.7-9.1 12.7-8.4 25.3-11.8 40.7-11.8l-17.3 7.2c-18 9.4-33.1 32.7-22.1 52.8 1.7 3.1 8.6 10.4 12 11.1 9.1 1.7 20.7-15.4 29.5-18 .6 6.4-.9 14.3 0 20.5zm-37.1 40.6c-12.3-.5-17.1-20.2-22.8 1.5-3.4 13 1.2 26.4 9.4 36.5 1.5 1.8 12.7 13.1 13.9 12.9.8 0 2.5-2.3 2.8-3.2 2.9-7.1-3.2-12.2-4.2-19.2-1.5-9.8 0-18.7.9-28.4Zm301.8-8.9c-3.2.8-6.3 6-8.8 7.3-2.1 1.1-7.2 1-7.8 3.2-.5 1.7 3 10.8 2.9 14.8 0 3-1.5 13.9-2.2 16.8-.9 3.6-3.9 5.7-3.9 10.2s1.4 7.1 3.7 7.4c1.9.3 15-14.4 16.8-17 5.7-8.5 9-18.8 7.3-29.2-.5-3-4.4-14.5-8-13.6Zm-284.8 10c-4-2.3-6.5 9.9-6.8 12.5-1.2 10.5 3 38 8.7 47.1 1.9 3 5.4 6.9 9.2 7.3 3.7-15.6 12.6-29.2 21-42.5-2.3-.4-1.7-2.9-2.7-3.5-1.5-.9-7-1.9-9.7-3.1-4.7-2.2-12-7.7-15.6-11.4-1.2-1.2-3.8-6.2-4.2-6.3ZM1139 1552c8.3-2 11.9-12.2 13.9-19.6 3.1-12.1 6.1-33.4 1.1-44.8-3-6.9-5.8 1.7-8.3 4.1-3.9 3.8-11 9.3-16 11.6-2.5 1.1-7.8 1.8-9.1 2.7-.7.5-.5 1.8-1 2.7-.3.4-1.7.4-1.6.9 0 1 7.9 12.3 9.2 14.8 4.8 8.8 9.1 18 11.8 27.7Zm-197.7 5.7c8.1 8.1 9.5 0 10.5-7.3.8-5.6 2.7-20.6 1.7-25.4-3.6-17.2-21.3-15.9-21.6 3.6 0 6.8 4.6 24.3 9.4 29.2Zm161.5-44.5c-5 1.3-8.5 9.3-8.8 14.2-.2 4 2.4 28.5 3.8 31.3 2.5 5 7.5 0 9.8-2.7 6.8-8.3 11.6-30.7 4.5-39.5-2.7-3.3-4.8-4.4-9.2-3.3zM1023 1544c-.7-.7-.8-7-5.1-9.4-8.9-5-21.8-.8-32-4-10.4-3.3-9.4-13.1-16.1 1.8-2.9 6.4-9.1 24.4-6.3 30.7 1.1 2.4 17.8 15.6 21.2 17.8s18.2 11.7 21.1 10c3.1-5.6 9.3-9.5 12.6-14.9 1.8-2.8 4.1-11.5 4.6-11.9 1.6-1.7 1.7.5 2.1 1.4 1.6 3.6 2.1 6.8 4.5 10.5 3.3 5.2 9.2 9.3 12.4 14.6 3.1 1.9 15.5-5.9 18.9-8.1 4.5-2.9 22.9-17 23.9-21.1 2.2-9.7-6.6-28.3-10.9-37.2-4.9 1-7.8 5.2-12.7 6.7-9.2 2.8-28.2-1.6-33.7 6.3-.9 1.2-2.6 8.9-4.5 7zm-136 18c-.7-.6-3.5 0-4.5.9-6 6.2 2.4 31.6 14.6 27.6 4-1.3 3.8-9.4 2.8-12.9-1.1-3.9-7.2-4.1-9.8-7.2-2.1-2.5-2.7-8.2-3-8.5Zm274.1 0c-.3.3-.9 6-3 8.5-2.6 3.1-8.7 3.3-9.8 7.2-1 3.4-1.2 11.6 2.8 12.9 13.4 4.4 20.2-24.5 14.1-28.1-.9-.5-3.5-.9-4-.4Zm-216.4 7.2c-1.5.4-5.1 4.6-6 6.1-3.4 5.6-5.6 32.3-4.8 39.3 1.3 10.9 15.2 18 19.5 3.5 1.7-5.6 2.6-21.4 2.5-27.6 0-1.1-5.8-19.7-6.5-20.5-1.2-1.4-3.2-1.3-4.8-.8Zm153.3-.1c.2 6.6-5.4 14.7-6 20.6-.5 4.5 1 25.3 2.4 29.4 4.2 12.1 16.9 7.3 19.1-2.9 1.1-5.2 0-16.8-.6-22.6-1-9.7-1.7-25.5-14.9-24.5m-180 1.9c-20.5 3.8-17 28.7-9 43 4 2.9 10.4-17 10.7-19.8.9-7.5-2.9-15.5-1.8-23.2Zm218 43c2.5 1.8 7.2-9.1 7.7-10.8 3.9-12.8 1.6-30.1-13.7-32.2.5 7.4-2.8 16.2-1.9 23.4.3 2.7 6.4 18.5 7.9 19.6m-148.2 10.2c1.4.8 4.8 8.6 9.5 11 11.1 5.8 20.2-6.4 20.7-16.7.8-13.7-7.2-7.7-16.5-8.6-8.4-.8-15-4.8-21.8-9.2-5.5-3.5-13.6-14.6-14.7-1.4-.5 5.1 1.4 7.5 1.8 11.2s-2 5.9.5 10.7c4.8 9.3 18 1.3 20.7 2.8zm93.1-31.1c-2.1-1.5-19.7 12.7-23.9 14.4-2.3 1-7.9 2.3-10.5 2.5-10.5.9-18.8-5.4-16.4 11.4 1 7.3 7.9 15.8 16 15.1 9.4-.8 11.9-11.6 14.6-12.4 4-1.3 12.3 5.7 18.9-1.1 4.3-4.4 1.3-8.4 1.5-12.5 0-2.3 1.9-4.8 2-8.1 0-1.9-.8-8.5-2.2-9.4Z" class="shading" data-original-prefix="shading" opacity=".2"/><path id="outline-shading-mouth1" class="outline"  fill="#000" d="M1041 1343c6.1.5 12.7-1 17.5-5 1.5-1.3.9-3.7 2.8-2.9 10.1 7.9 37.9 17.4 43.8 28.2 3.6 6.5 4.6 17.5-1.8 22.6-5.6 4.5-20.8 10.8-28 15-4.9 2.8-9.7 6.6-14.7 9.3-7.4 4.1-25.5 14.5-32.6 16.4-2.9.8-5.2.8-8.1 0-14.5-3.8-42.2-22.5-56.3-30.7-6.2-3.6-21.2-9.1-23.2-15.8-5.5-18.4 15.7-28.3 28.7-35.4 2.3-1.2 15.5-8.6 16.5-8.7 2.9-.3 4.2 2.9 6.7 4.2 4.2 2.3 10 3.2 14.7 2.8-.3-5.1-3.3-11.3-1.8-16.3.5-1.6 12.5-13.9 14.5-14.4 3.9-1 8.2-.3 11.6 1.9 1 .7 10.8 11.1 11.2 11.8 2.1 5-1.2 11.8-1.5 17" class="shading" data-original-prefix="shading" opacity=".2"/><path id="outline-mouth3" class="outline"  fill="#000" d="M889 1333c-5.3 4.2-13 5.4-19.2 8.3-14.9 6.9-32.6 26.5-36.3 42.7-1.6 7 3.5 22.7 6.2 29.8 2.6 6.9 5 10.8 13.3 10.2-1.4-9 4.2-18.1 9.6-24.9 2.1-2.6 22-22.5 24.4-20.1-1.7 6.5-8.8 10.4-13 15.5-8.1 10-12.3 23.6-9.5 36.5 1.2 5.6 11.1 25.8 15 30 .6.7 7.1 6.3 7.5 6.5 3 1.5 6.9-6.1 7.8-8.2 1.7-3.8 2.1-7.7 3.7-11.3 4.4-10.2 9.4-18.4 18.5-25-5.1 13.9-9.5 44.6 1.5 56.1 4.8 5 9.9 2.7 14.3 4.7 2.8 1.3 3 5.7 4.8 6.1 2.6.6 7.2-4.9 14.1-2.1 5.2 2.1 8.6 15.6 13.9 16.1 2.5.2 10.2-12 18.4-9.4 6.3 2 15.5 20.8 23.6 23.5 6.9-4 4.5-12.6 5.8-18.9 1.5-7.6 8.3-12.6 9.4-22.6.8-7-1.6-26-4.4-32.4-.9-2.1-5-10.5-6-11.9-3.1-4.5-15.9-10.2-20.8-7.1l-4.2 11.1c-4.8-4.4-9.5-9.2-14.5-13.5-3.7-3.2-10-6.8-13-9.9-4-4.2-15.5-27.8-15.7-33.2 0-3.1 8.4-13.8 10.8-16.8 1.4-1.8 9.5-11.6 10.2-12.2 5.4-4.1 29.2-2.8 35.7.2 8.4 3.8 12.4 12.1 18.5 17.5 5.2 4.5 2.5-1.7 2.5-3.6s.9-3.2.8-4.8c-.2-5.4-6.7-9.2-9.9-13.1-2-2.4-5.5-6.3-7-8.3-.8-1-4.7-7.3-4.8-8-.7-3.3 8.6-12.4 11.3-13.2 3.6-1-.5 5.5-.5 6.6-.4 5.2 5.9 4.1 9.3 5.6 1.2.5 3 2.7 3.2 2.7s2-2.2 3.2-2.7c8-3.5 11.7.6 7.3-12.2 1.6-1.7 12.5 9.1 12.9 11.7.6 4.2-17.5 23.2-21.1 27.5l-.8 12.7c1.7.4 2-.7 3-1.5 6.5-5 11.1-13.4 19-17 6.8-3.1 28.3-4.1 34.7-.8.7.3 8.8 10.1 10.2 11.8 2.6 3.1 11.9 14.4 11.8 17.8 0 2.8-5 14.1-6.6 17.3-7.1 15.2-9.7 14.8-21.2 24.8-5.3 4.6-10.4 9.6-15.5 14.5-2.2.9-1.4-5.6-2.2-7.7-3.4-8.6-19-1.6-22.7 3.8-.6.8-6.7 12.4-6.9 13.1-1 3.2-.3 6.1-.9 9.1-2.6 12.3-5.2 19.6.2 32.2 1.5 3.5 4.6 6.8 5.8 10.2 2.5 7.2-.5 15.2 5.8 21.2 9-2.3 17.4-21.3 24.4-23.6 7.7-2.4 15.9 9.6 18.4 9.4 5.6-.5 9.8-18.8 18.7-17.5 2.3.3 7.6 3.9 9.4 3.5s2-4.8 4.8-6.1c3.9-1.8 8.9 0 13.3-3.7 11.5-9.9 8.1-43 2.5-56 1.6-1.7 11.3 10.4 12.4 12.1 5.1 7.8 6.1 15.5 9.7 23.3 1 2.1 4.8 9.8 7.8 8.2.4-.2 6.9-5.8 7.6-6.5 7-7.6 16-30.2 15.4-40.5-1.3-22.7-10.7-22.7-21.5-37.5-5.3-7.2 2.8-2.4 6 0 11.8 8.6 28 25.5 26.5 41 11.4 1.6 13.7-11.7 16.3-20.2 4.6-15.6 5.3-18.8-3.1-33.4-7.4-13-16.3-22.7-29.9-29.1-6-2.8-14.1-4.1-19.2-8.3 9.3.7 19.7 2.8 29.2 5.3 7.4 1.9 14.4 3.9 20.7 8.3 3.2 9.3 27.6 34.6 28 42 .2 3.7-8.2 22.5-10 27.9-2.5 7.2-2.6 16-10 21-1.9 1.3-8.4 2-9 3.2-4.1 7.9-1.4 38-1.9 48.8-1.1 21.6-7.6 43.1-20.5 60.5-.9 1.2-2.6 1.5-3.6 2.7-4.3 5.6-2.8 18.6-4.3 26.5-1.2 6-5 13.1-5.6 18.4-.4 3.5 1.3 7.7.8 9.7s-10.7 8.6-13.2 9.9c-2.2 1.2-5.7 1.5-6.5 2-.6.4-5.4 10.9-7.2 13.3-2.1 2.7-11.1 11.3-14 12.1-4.1 1.2-7.9-10.3-9.9-13s-2.3 2.3-3.6 4.3c-4.3 6.7-25.1 26.6-32.4 28.6-1.7.5-3.3.7-5 .5-.4-5.9 3.2-9.9-1.5-15.1-8.2-9-20.9-.3-24.3 8.8-1.8 4.9-1.6 20-8.6 18.1-4.6-1.3-20-25.6-23.2-30.8-5.7 8.9-12.2 19.9-19.5 27.4-11.2 11.7-9.9-11-13.8-18.2-3.8-7.1-14-12-21.1-6.7-6.7 5-2.9 9.6-3.1 16.4-3.5 3.5-24.3-13.8-27.5-17-1.3-1.3-10.5-12.2-11-13-.7-1.4-.2-6.3-2.6-3.3-2.1 2.7-6.2 14.3-10.2 13.3s-12-10.2-13.7-12.4c-2.1-2.7-6.6-12.8-7.2-13.2-.8-.5-3.8-.6-5.8-1.7-2.3-1.2-11.9-7.4-13-9-2.1-3.2.4-6.9 0-11-.7-6.8-5.9-15.3-6.8-24.2-.5-5 .6-10.7-.6-15.4-1-4-8-10-10.7-14.3-15.3-24.4-17.6-52.1-17.9-80.2 0-5.4 3-18.2 0-22.8-.8-1.2-7.8-1.9-10.4-3.8-7.2-5.3-6.2-13-8.6-20.4-1.9-6-10.7-24.3-9.8-28.7.5-2.7 4.3-7.5 6-10.1 7-10.8 15.7-20.6 22.5-31.5 5.9-4.3 13.2-6 20.1-7.9 9.7-2.6 19.8-4.7 29.2-5.3h.2Zm15 128c-1.4-1.5-7.8 8.9-8.4 10.1-10.6 19.9-8.6 50.8-1.8 71.7 1.1 3.3 9.4 22.1 12.8 21.2 4.4-1.1 10.8-28.9 12.8-34.3 4.3-11.7 13.6-22.1 8.6-35.6-4.8-.6-12.2 1.2-15.9-2.9-1.4-1.5-8.5-21.7-8.8-24s.8-4 .8-6.2Zm240 103c.6-.4 6.8-10.5 7.5-12 6.3-12.1 9-33.7 9.5-47.5.6-14.9-4.3-31.4-14.6-42.5l-2.2 9.8c-4.9 13.6-4.6 25.2-23.1 22.4-5.2 13.7 4.3 23.9 8.6 35.6 3.1 8.4 6 27.5 11.8 33.2.7.7 1.4 1.8 2.4 1.1Zm-262.3-85.7c-1-.9-4.6-2-6.6-3.9-4.2-3.9-7.8-13.1-14-4.7-13.3 17.9-4.1 44.9 7 61.7 1.6 2.4 11.5 15.7 13.3 15.7.5-8 1.2-16.5.5-24.5-.4-5.4-3.1-12.3-3.1-18s6-23.3 2.8-26.2ZM1167 1547c1.7.4 2-.5 3-1.5 17.4-17.9 32.6-50.9 18.4-74.4-6.5-10.8-10.8-.4-16.9 4.9-2 1.7-5 1.6-5.5 4.5-.8 4.5 4 18.3 4 24s-3.3 14.8-3.6 21.2c-.3 6.3 1.6 14.6.6 21.3m-64.5-53c-1.4.3-3.3 6.6-3.8 8.2-3 10.7-2.9 45.1 1.1 55.5 4.8 12.4 18.2-4.3 20.4-11 3.9-11.7-6.4-31.5-11.4-42.1-1-2.2-3-11.4-6.3-10.7Zm-86.8 33.3c-3.2-2.8-9.7 3.2-15.8 1.3-2.1-.7-8.7-7.5-10.5-9.5-2.6-2.9-3.4-8.8-8.2-7.4-12.2 3.5-20.5 24.1-21.2 35.9-.9 13.6 2.4 21.7 11.5 31.5 9.8 10.4 24 15.7 36.1 23h2.3c2.1-6.4 6.2-12 8.1-18.4 3.7-12.2 7.9-47.3-2.3-56.2zm23.4 74.6c1.1.7 3.4 0 4.6-.6 21.8-13.1 47.5-23.3 45.2-53.7-.9-11.9-9.2-33-22-36.1-4.4-1.1-5.5 5-8 8-1.7 1.9-7.3 7.9-9.2 8.8-9.2 4-14.3-9-20 5-5.4 13.2-2.6 37.5 1.5 51.1.7 2.2 7.1 17.1 7.9 17.6ZM885 1559c-3.2-3.3-6.4 8.4-5.8 12.3.7 4.5 5.4 23.4 7 27 1 2.2 6.2 8.5 8.7 6.7 3.4-2.4 3.2-20.7 4-25.4-.5-3.1-8.3-6.1-11-10-2.3-3.5-2.6-10.1-3-10.5Zm269.1 45.9c2.7 1.5 7.8-5.3 8.8-7.5 1.7-3.8 6.1-21.6 6.9-26.2.8-5-.5-8.8-4.3-12.2l-5.1 10.9c-1.4 3.6-9.4 6.1-10.2 8.8-1.2 3.9.5 24.2 3.9 26.2M917 1563c-1.9-2.2-11.8 12.5-12.4 14.1-1.7 4.6-3 25.2-2.4 30.3.9 7.9 5.6 18 11.4 23.6 1.4-8.8 5-18.6 5.5-27.5.8-13.1-3.7-27.1-2-40.5Zm218 68c5.3-3.9 9.4-12.4 10.8-18.7 1.5-7 .8-27.4-1.2-34.3-.6-1.9-10.4-17.4-12.5-15 1.5 13.8-3.1 28-2 41.5.7 8.7 4.6 17.6 5.1 26.5zm-186-62c-2.4-2-8.2 6.4-9.4 8.1-7.7 11.1-15.4 39-8 50.8 2 3.2 16 15.2 19.5 16.5 5.6 2.2 6.5-1.9 7-6.9 2.4-23.1-3.5-46.4-9-68.5Zm151 0c-1.5 11-6.9 22.6-8 33.5-.9 9-2 26.3-1 35 .2 1.9 1.7 8 3.6 8.4 2.4.6 18.8-13.3 20.9-15.9 8.3-10.5 3.8-32.3-1-44-1.2-2.9-11-19.9-14.5-17m-82 44c-3.5 0-6.1 2.5-9.6 2.9-12.7 1.6-29.1-13.9-41.4-16.9v24.5c0 .6 3.2 8.2 4.1 8.9 6.5 5.2 18.9-.4 24.4 5.6 2.6 2.9 4.3 10.3 10.6 5.5 1.1-.8 11.9-13.1 11.9-14.1v-16.5Z" class="outline" data-original-prefix="outline"/><path id="outline-mouth2" class="outline"  fill="#000" d="M1122 1332c-.2 0 .2 1.6 0 1.9-1 .8-8.1-5.8-10.2-7.1-10-6.1-19.8-8.3-31.2-9.8-2.9-.4-6.9.7-9.5-.5-1.5-.8-4.5-7.4-6.5-9.5-7.8-8.7-15.6-10.2-25.8-13-1.1-.3-.6-1.9-.7-2 3.1-3.8 16.2-9.3 20.8-9.8 7.9-.9 5.5 4.4 6.5 9.1 2.3 10.7 9.3 19.6 21.3 18.8 5.1-.3 5.6-4 7.9-4.1 1.4 0 6.6 2.9 8.2 3.8 9.4 5.2 15 12.5 19.3 22.2z" class="outline" data-original-prefix="outline"/><path id="outline-mouth1" class="outline"  fill="#000" d="M1011 1292s.4 1.7-.7 2c-10.2 2.8-17.4 4.1-25.4 12.5-2 2.1-5.6 9.2-7.2 9.9-3.4 1.4-13.5 1-18.1 1.8-12.5 2.1-23.6 8.7-33.1 16.9.2-.9-.5-2.8-.5-3 .8-2.7 8.7-13.3 11-15.6 2.5-2.4 14.7-10.5 17.6-10.4 2.7 0 3 5.1 11.9 3.9 10-1.3 16.2-10.1 17.5-19.6.4-2.6-2.4-6.7 2.8-8.2 3.5-1 21.7 5.6 24.3 9.8Z" class="outline" data-original-prefix="outline"/></g><g id="04_Eyes" data-trait="monacle"><path id="fill-eyes3" class="fill"  fill="#fff" d="M1337.7 1024.3c5.6 3.4 36.1 66.5 39.3 76.2 0 6.8 8.2 17.3 1.7 22.2-2.1 1.6-13.8 5.7-17.7 7.8-9.3 4.9-18.6 9.9-27.5 15.5-1.2 39.5-9.8 77.6-42 103-38.3 30.2-100.7 45.4-148.8 39.9-19.9-2.3-37.1-12.8-56.9-7-11.8-10.4-26-18.9-37.7-29.3-3.5-3.1-17.5-19.4-19-20-.4-.2-8.8-.4-9.2-.3-1.6.4-14.2 15.2-17.2 17.9-12.5 11.6-28.6 22.3-42.3 32.2-12.9 90.6-104.4 140.7-189.5 108.5-81.7-30.8-115-134.2-68.2-207.7 2.2-3.4 11.4-14.1 12-16 .9-2.9 1-19.8-.5-21.6-.9-1-11.1-6.4-13.3-7.7-8.7-4.9-22.4-9.9-30-15-8.6-5.7-2.8-7.7-.9-12.6 1-2.6.8-6.4 1.8-9.2 7.7-21.1 25.9-58.8 39.4-76.4.7-.9 2.4-.4 3.1-1.3 17.9-23.6 37.1-49.9 58.4-70.4 144.6-138.2 344.5-142.8 493.5-8.5 20.7 18.6 37.4 39.7 55 61 2.9 3.5 10.4 15.7 12.5 17.5 1.6 1.3 3.2.6 4.2 1.3ZM941 1280c-44 16.4-94 11.2-137.2-5.3-38-14.4-74.2-39.4-82.8-81.7l-9.5 14.9c-51.4 102.9 64.8 217.4 166.8 160.8 34.7-19.2 55.5-49.9 62.7-88.8Z" class="fill" data-original-prefix="fill"/><path id="fill-eyes2" class="fill"  fill="#fff" d="M808.8 1123.3c74.3-5.7 143.8 49.9 149.2 125.2 10 139.2-159.7 202.3-245 94-66.5-84.5-11.1-211 95.8-219.2m-1 14c-75.8 6.2-126.9 83.9-107.5 156.9 29.9 112.9 193.1 126.2 235.7 15.3 35-90.8-31-180.2-128.2-172.2" class="fill" data-original-prefix="fill"/><path id="fill-eyes1" class="fill"  fill="#fff" d="M687 1318c2.1 13 13.2 22.9 17 35-7.5 2.3-10.6 1.9-15.4-4.1-6.7-8.4-15.9-25.2-1.6-30.9" class="fill" data-original-prefix="fill"/><g id="shading-eyes" class="shading" ><path id="outline-shading-eyes5" class="outline"  fill="#000" d="M942 857c-12.2 12.2-28.8 18.2-42.9 27.6-28.1 18.6-58.9 57.3-75.3 86.7-2.4 4.4-10.8 19.8-11.4 23.7-2.9 17.9 18.5 42 30.7 53.5 38.6 19.7 77.6 39.1 113.5 63.5 10.9 12.6 32.2 63.9 44.2 70.8 9.5 5.5 13.5-.6 18.8 13.2 1.1 2.8-.7 5.7 2.8 7.3 5.4 2.5 4.8-4 6.2-7.3.8-1.9 3.6-8.2 4.9-9.1 2.2-1.6 10.3-2.3 13.8-4.2 11.6-6.3 33.5-59.5 44.7-71.3 16.2-11.1 33.2-21.1 50.3-30.7 18-10 47.2-21.5 62.6-32.4 7.9-5.6 26-29.3 28.6-38.4 5.1-17.8-6.4-33.8-15.5-48.5-16.6-26.8-42.8-59.3-69.1-76.9-14.2-9.5-30.9-15.1-42.9-27.6 32.3 6.5 63 20.9 91.3 37.2 45 25.9 89.6 63.8 119.5 106.5 2.5 3.6 7.3 8.9 5.5 13.1-1.6 3.7-26.3 9.5-31.6 11.5-58 21.6-107.5 42.9-156.6 81.4-26.9 21-39.3 37.8-58.3 65.7-4.9 7.2-6.3 13.4-13.3 19.7-2.1 1.9-22 16.2-23.4 16.6-1.9.6-28.2.6-30.1 0-1.3-.4-19.7-13.4-21.9-15.1-8.5-7-9.6-13.4-15.3-21.7-18.6-27.2-30.8-43.5-56.9-64.1-49.5-39-98.9-60.6-157.6-82.4-5.5-2-29-7.5-31.3-10.6-2.9-4 2.2-9.9 4.6-13.5 27.2-39.6 72-78.2 113.1-102.9 30.2-18.1 63.5-34.2 98.3-41.2Z" class="shading" data-original-prefix="shading" opacity=".2"/><path id="outline-shading-eyes4" class="outline"  fill="#000" d="M1376 1124c-.3.4-7.4 2.6-9 3.5-8.1 4.2-26.1 12.6-32.3 17.7-2.4 1.9-.9 4.2-2.2 5-26.2 9.2-58.4 13.2-83 25.8-28 14.3-61.4 41-85.4 61.6-2.1 1.8-2.7 4.3-5.6 6.4-9.5 6.8-49.4 20.6-53.4 25.6-.8 1-.5 3-1.7 3.5-3.1 1.4-7.1.6-10.3 0 3.1 7.6-1.1 9.4-7.9 8.5-19.2-15.8-40.5-29.2-56.1-49-.4-.2-7.8-.5-8.4-.4-3.2.4-6.3 6.2-8.5 8.5-12.3 12.6-33.8 31.2-48.5 40.5-1.2.8-2 1.3-3.5 1 1.9-16.2 1.5-32.9-1-49 9.5-.6 18.9-2.4 28.2-4.3 5.9-1.2 20.2-6.3 24.5-6.4 2.6 0 7 3.8 11.8 3.8s10-3.8 11.8-3.8c4 0 19.8 5.3 25.5 6.4 12.1 2.5 23.6 5.9 35.7 2.4 20.5-6 56.3-28.8 75.4-40.6 51.4-31.9 95.9-73.6 151.1-99.9h33c3 1.8 10.9 25.2 15.5 29.5 1 1 5.9 2.1 4.4 4Z" class="shading" data-original-prefix="shading" opacity=".2"/><path id="outline-shading-eyes3" class="outline"  fill="#000" d="M898 1357c-.4-1.9 1-2.4 2.1-3.4 19.5-17.7 30.5-34.7 37.6-60.4 1.2-4.3 6-22.1 4.1-25.1-.9-1.4-26.1-11.3-30.2-13.3-6.3-3-16.6-7.3-22-11-6.9-4.7-15.9-14.9-23.2-20.8-19.7-15.9-51-40.3-73.8-50.2-4.2-1.8-26.8-9.1-30.1-8.8-1.6.2-2.3.9-3.5 1.6-5.8 3.2-14.9 13.7-19.3 15.7-3.7 1.6-5.9 1-5.8-3.2-21.7 20.1-33.7 50-35 79.5-.1 3 1.2 13.1 1 13.9-1.2 4.6-5 .3-5.8-3-7.5-31.2 13.2-79.2 35.9-100.9 70.6-67.3 191.8-37.6 215.9 59.1 9.4 37.8-2.2 94.2-31.9 120.9-2.2 2-13.3 11.9-16 9.5Zm38-133c-9.4-32.2-34.5-59.7-65-73.5-19.5-8.8-42.8-13.5-64-9.5 18.7 15.7 38.6 30.2 59.1 43.4 22.5 14.4 46 27.7 69.9 39.6" class="shading" data-original-prefix="shading" opacity=".2"/><path id="outline-shading-eyes2" class="outline"  fill="#000" d="M782 1125c-15.4 3.6-30.3 11.3-43.3 20.2-3 2.1-8.3 7.7-11.2 7.9-1.3 0-12-2.8-12.3-3.3-.5-.6 0-2.2-.4-3.1-1.5-3.5-37-20-42.8-23.3 0-2.3 3.2-2.2 4.9-4.1 4.3-4.9 11.7-27.3 15.1-28.9 2-.9 25.9-.9 29.6-.5 5.8.6 50.6 27.1 57.8 32.2.6.4 3.2 2.3 2.7 2.8Z" class="shading" data-original-prefix="shading" opacity=".2"/><path id="outline-shading-eyes1" class="outline"  fill="#000" d="M954 1303c1.8-.2 1 2.2.8 3.2-10.7 49.2-68.4 90.8-117.2 93.8-97.9 6.1-163.2-64.8-155.5-161.5 1.5-18.9 10.4-41.7 22-56.5-1 8.3-6.5 14.6-9 22.5-26.9 83.2 24 176.5 112.8 188.2 35.2 4.7 85-14.7 111.7-37.8 14.8-12.8 25.4-34.9 34.5-52Z" class="shading" data-original-prefix="shading" opacity=".2"/></g><path id="outline-eyes7" class="outline"  fill="#000" d="M1341 1142c2.6 3.2 1.6 7.7 2.1 11.4.8 5.7 5.3 21 4.9 25.1-.5 4.7-10.5 14.3-10 20.6 3.3-.8 10.7-18.3 14-15 0 1.8.2 3.7 0 5.5-.8 7.7-8 30.9-10.7 39.3-4 12.3-7.8 18.2-16.3 27.7-9.5 10.7-22 24.9-35.8 28.2-16.7 4.1-34.5 4.3-50.2 12.3-.2 1.8 2.2.9 3.2.7 5.3-.8 10.2-4.2 15.3-4.8 7.1-.8 15.7-.4 23-1 5.4.7-1.4 2.4-2.2 2.8-12 6.1-28.4 15.1-41.1 17.9-20.2 4.5-66.7 7.1-86.4 3-8.9-1.8-18.9-14.2-26.9-20.1-4.3-3.2-13.7-10.2-18.4-11.6-4.2-1.2 1.3 9.2.5 10-10.3 0-16.3-2-23.5-9-3.7-3.6-5.3-7.2-7.5-11 2.4.7 3.7-4.1 3.9-5.6 2.6-18.6-10.4-22.7-21.9-33.4 11 1.8 21.2 6.6 32 9.5 62.4 16.6 85.8-21.9 130.7-53.3 32.3-22.6 68-36.8 106.1-46.9 4.5-1.2 11.6-1.1 15.2-2.3" class="outline" data-original-prefix="outline"/><path id="outline-eyes6" class="outline"  fill="#000" d="M696 1136c.3 2.6-.8 14.5-2 16.3-.6 1-3.3 1.6-4.4 1.4-3.6-.5-15.2-6.6-20.6-8.2-6.5-1.9-13.2-3.2-20-4-4.3-3.7-4.3-7.7-4-13.1 1.7-29.3 21.8-78.4 37.6-103.4 4.2-6.7 21.1-31.8 28.1-32.8 1.9-.3 5.9 2.7 7.2 1.7.4-.3 3.5-6.5 5.1-8.4 71.3-87.4 164.5-146.2 280.4-148.6 75.3-1.5 137.2 6.5 202.8 45.2 39.4 23.2 97.3 69.6 121.9 108 .9 1.5 1.9 2.9 1.8 4.8 5-2.1 5.6-4.1 11.3-.8 17.2 9.8 41.8 61.1 48.7 80.3 4.3 12.2 16.4 50.5 13.5 61.5-1.9 7.4-6.6 5.1-11.8 6.2-4.2.9-8.6 2-12.8 3.2s-19.4 8.3-21.3 8.2c-4.5 0-4.9-15-4.7-18.7 0-1.2-.5-2.1.6-3.1 3.6-3.1 16.5-7.2 21.4-9.4 1.6-1.3 1.2-8.6 1-11-.8-9-10.5-29.3-14.8-38.2-7.8-16-17.5-31.3-26.9-46.3-4 .9-8.2-1.1-11.8-1.1-8.9 0-25.8 1.8-34.9 3.2-7.7 1.2-14.9 4.8-22.6 5.9 11.8-11.7 27.3-20.3 41.9-28.2-3.5-20.3-20.6-37.3-35.3-50.9-22.4-20.7-51.7-41.3-77.6-57.4-97-60.1-239.1-61.3-336.8-2-31 18.8-97.1 64.8-111.9 97.1-7.4 16.1-3.6 12.1 8.2 19.5 10.2 6.4 21.2 13.5 29.7 21.8-7.9-1.7-15.4-4.7-23.5-6-8.6-1.3-24.5-3.1-33-3.1-3.7 0-8.2 1.8-12.3 1.3-8.8 15-18.4 29.8-26.1 45.4-4.7 9.5-13.6 28.2-15 38-.3 2.3-1.2 9.7-.2 10.9 1.4 1.7 17.2 6.9 21.1 10 2.1 1.7 1.8 2.1 2 4.5Z" class="outline" data-original-prefix="outline"/><path id="outline-eyes5" class="outline"  fill="#000" d="M707 1142c2 .5 5-.4 7.4.1 4.3.9 14.5 4.5 18 3.9 1.6-.3 15.5-10.3 18.9-12.2 81-44.8 181.4-2 208.2 85.2 1.1 3.6 4.5 21.9 5.4 22.6 3 2.2 25.4-8.3 30.1-9.6.5 2.2-1.2 2.2-2.3 3.2-6.6 6.1-21.5 14.6-22.7 24.3-.5 3.7-1.1 13 4 13.5-.3.8.1 2.5-.9 4.6-1.9 3.6-6.5 6.1-7.8 9.2-3.4 7.6-5 22.1-8.5 31.5-14.5 38.8-48.6 69.8-87.2 83.8-54.8 19.8-123.5 3.4-159.6-42.9-1.8-1.1-12.5 7.6-20.8 2.3-5.3-3.3-19.2-27.1-19.8-33.2-.9-9.2 5.9-16.1 12.9-20.9-14.1-42-6.1-85.2 14-123.6.7-1.3 2.4-1.3 3.5-3.8 5-11 4.8-26.3 7.5-38Zm101.8-18.7C702 1131.5 646.5 1258 713 1342.5c85.3 108.4 254.9 45.3 245-94-5.4-75.3-74.9-130.9-149.2-125.2M687 1318c-14.3 5.7-5.1 22.5 1.6 30.9 4.8 6 7.8 6.3 15.4 4.1-3.8-12-14.8-22-17-35" class="outline" data-original-prefix="outline"/><path id="outline-eyes4" class="outline"  fill="#000" d="M998 1254c.2-.3 0-2.3.9-3.5 9.5-12.6 21.1-27.7 18.1-44.5 6 1.8 8.5 2.6 14.5 0-1.3 11.8 3.9 24 10.3 33.7 4.4 6.7 5.8 7.8 9.2 15.3-3.3 0-4 4.3-7 4-.2-5.7-7.9-7.2-11-11.5-2.5-1.4-5.5-10.3-7.5-10.6-4.7-.8-5.3 5.8-8.5 9.6-3.8 4.4-11.3 6.9-12 12.5-1.4 1.3-5.2-4.4-7-5" class="outline" data-original-prefix="outline"/><path id="outline-eyes3" class="outline"  fill="#000" d="M1193 1067c1 1-1.4 2.8-2.1 3.4-11.5 10-31.9 20.9-45.2 30.8-12.2 9-27 19.8-37.7 30.3-14.7 14.4-22.4 34.8-38 48.5 7.8-23.1 15.8-48.3 31-67.5 19.3-9.9 38.2-20.8 57.7-30.3 3.8-1.8 33-16.4 34.3-15.1Z" class="outline" data-original-prefix="outline"/><path id="outline-eyes2" class="outline"  fill="#000" d="M856 1068c1.7-.3 3.1.2 4.7.8 28.7 10 58.3 31.1 86.3 43.7 16.4 19.7 23.9 45.4 33 69-4.6-2.9-8.5-7.8-12-12-10-12.3-16.8-26.9-28-38-17.5-17.2-43.3-35.2-63.7-49.3-6.8-4.7-14.7-8.4-20.3-14.2" class="outline" data-original-prefix="outline"/><path id="outline-eyes1" class="outline"  fill="#000" d="M807.8 1137.3c97.3-8 163.2 81.4 128.2 172.2-42.7 110.8-205.8 97.6-235.7-15.3-19.3-73 31.7-150.7 107.5-156.9M939 1249c-8.4-84.5-101.9-134.7-177-93 .1 1.4 1.5 1.6 2.5 2 8.9 4.1 18.7 6.2 27.6 10.4 35 16.5 60.2 44.5 91.1 64.9 16.8 11.1 35.9 15.4 55.9 15.6Zm-129 48c-8-2.8-15.4-5.7-23.8-7.7-10.8-2.6-31.6-3.6-40-10-6.2-4.8-25-24.7-29.7-31.3-3.5-4.9-6.8-10.9-7.6-16.9-1.7.4-2.2 4.4-2.5 5.9-13.9 66.2 34.7 130.8 101.1 138 59.8 6.5 108.4-29.2 126.5-85-1.2-1.2-11.9 7.7-13.5 9-4.3 3.5-12.4 12.8-16.2 14.8-10.7 6-65.4 3-79.7 1-21.3-2.9-36.4-11.4-55.4-20.6-1.3-.7-2.8.6-2.2-2.2 7.7.5 16.8.2 24.4 1.1 5.1.6 9.5 3.6 14.3 4.7 1 .2 4.4 1.1 4.2-.8Z" class="outline" data-original-prefix="outline"/></g><g id="05_Right Ear" data-trait="hi-tek"><path id="fill-ear-rt" class="fill"  fill="#fff" d="M1715.7 184.2c3.2-.7 6.5-.5 7.2 3.3 2.3 39.5-3.6 77.2-9 116-.7 4.7-.2 11.1-1.1 15.9-5 26.9-24.5 58.9-29.7 86.3-5.7 30.4-4.7 64.8-10.9 95.1-7.8 38.3-25.1 77.8-33.7 116.4l-71.9 122.1c-45.8 31.3-94.9 58.3-141.8 88.2l-35 81-84.6 77.3c-5.6 2.9-16.3-.8-22.4-2.4-27.7-7.2-48.3-18.1-70.9-35.1-16.5-12.5-27.2-20.9-37.6-39.4-6-10.5-10.9-22.9-14.5-34.5 26.8-59.3 58.7-116.4 86.8-175.2 4.9-58.7 6.7-117.8 11.4-176.5 36.5-47.5 77-92.5 114.8-139.2 47.2-35.9 96.4-69 144.9-103.1 66.1-31.9 127.9-72.1 197.8-96.2z" class="fill" data-original-prefix="fill"/><path id="outline-shading-ear-rt" class="outline"  fill="#000" d="M1670.9 280.1c2.8 3.9-18.7 26.3-21.9 30.5-38.8 50.2-75.5 128.6-72.1 193 .8 14.1 7.3 33 2.8 45.7-3.7 10.4-14 27.3-15.4 37.7-.4 2.9.9 5.2.6 8 10-1.2 15.8-10.8 21.2-18.3 17.3-24.1 30.1-53.1 43.5-79.5 1.1-2.2 1.5-2.2 1.2.2-.8 9.2-6.8 26.8-9.7 36.3-15.4 50.2-37.8 100.7-66.2 144.8-15.3 23.7-22.2 32.4-46.1 47.9-25.3 16.4-36 17.1-63.9 25.1-14.1 4.1-56 16.5-65.5 25.5-11.9 11.1-30.7 52.3-40.3 68.7-13.5 23-27.7 45.9-43.8 67.2-3.6 4.8-10.5 10.9-13.3 15.7-5.6 10-6.8 27-11.1 37.9 7.3-4.2 14.2-10.7 20.5-16.5 12.8-11.9 26.4-25.8 38.5-38.5 12.3-12.9 33.6-33.7 41.2-48.8 7.8-15.6 13.6-33 21.3-48.7 14.9-4.8 30.4-7.3 45.1-12.9 49.9-18.9 92.7-57.3 134-90 1.4-.3 1.9 0 1.5 1.5-.9 3.2-10.1 20.8-12.2 23.8-4.2 6-36.3 28.6-44.5 34.5-29 20.7-59.7 39.2-87.9 61.1-15.7 27-28.8 55.8-43.5 83.5l-80 71c-6.2 2.7-28.5-4.8-35.8-7.2-32.1-10.8-54.1-27.3-79.9-48.6-8.9-15.6-7.9-22.5 2.7-36.2 24.9-31.8 50.6-57.8 73.4-92.6 33.1-50.5 54.8-106.4 86.2-157.8 11.1-18.2 27.9-36.1 31.3-57.7 1.4-9.1 1-19.2 1.1-28.4l54 6.5c10.6 14.3 17.8 31 26.5 46.5.8-.4 10.6-11.5 11.3-12.7 4.2-7.8 8.8-30.6 10.8-40.2 5-24.6 7-49.5 8.5-74.5 1.9-20.4-5.1-39.9 3.1-58.9 17.4-40.4 50.1-78.2 81-109l66.7-44.4c3.2-.7 24.4 7.8 25.2 8.9Z" class="shading" data-original-prefix="shading" opacity=".2"/><path id="fill-led-rt7" class="fill"  fill="#fff" d="M1379.7 841.5c9.8-2 9.4 10.6 2.5 11.7s-9.5-10.3-2.5-11.7" class="fill" data-original-prefix="fill"/><path id="fill-led-rt6" class="fill"  fill="#fff" d="M1568.2 520.6c6.2-6.2 14.8 6.6 6.7 10.2-6.8 3.1-10.5-6.5-6.7-10.2" class="fill" data-original-prefix="fill"/><path id="fill-led-rt5" class="fill"  fill="#fff" d="M1643.2 431.6c6.2-6.2 14.8 6.6 6.7 10.2-6.8 3.1-10.5-6.5-6.7-10.2" class="fill" data-original-prefix="fill"/><path id="fill-led-rt4" class="fill"  fill="#fff" d="M1661.2 292.6c6.2-6.2 14.8 6.6 6.7 10.2-6.8 3.1-10.5-6.5-6.7-10.2" class="fill" data-original-prefix="fill"/><path id="fill-led-rt3" class="fill"  fill="#fff" d="M1490.2 709.6c6.2-6.2 14.8 6.6 6.7 10.2-6.8 3.1-10.5-6.5-6.7-10.2" class="fill" data-original-prefix="fill"/><path id="fill-led-rt2" class="fill"  fill="#fff" d="M1534.2 714.6c6.2-6.2 14.8 6.6 6.7 10.2-6.8 3.1-10.5-6.5-6.7-10.2" class="fill" data-original-prefix="fill"/><path id="fill-led-rt1" class="fill"  fill="#fff" d="M1291.2 919.6c6.2-6.2 14.8 6.6 6.7 10.2-6.8 3.1-10.5-6.5-6.7-10.2" class="fill" data-original-prefix="fill"/><path id="outline-ear-rt" class="outline"  fill="#000" d="M1204 941c-4.5 0-9.7-3.5-13.7-5.8-21-12.1-28.2-34.8-42.8-53.2-1-3-.7-7.3-.5-10.5.9-20.4 12.5-34.1 20.8-52.2 6.3-13.5 12.6-35.7 19.9-47 3.2-4.9 8.4-9.8 12-15 29.7-42.8 37.8-119.3 42.2-170.8 1.8-21.4.9-43.9 3-65 .7-7 2.4-6.2 5.4-10.6 32.8-49.2 70.5-98.1 110.1-141.9 15.2-16.8 35.5-40.7 53.2-53.8 75.7-56 176.2-104.8 265.5-134.5 11.3-3.8 35.2-11.4 46.3-11.8 6.6-.2 6.4 4.6 7.8 10.2 7.4 30.6 1.8 91.4-1.3 124.3-.9 10.1-2.9 30.7-6.5 39.5-3.4 8.2-15.5 18.8-20 29-10.5 24-19.4 81.7-16.4 107.4.7 6.4 5.6 12.8 5.8 18.2.5 10.6-11.8 51.9-15.7 64.1-34.4 108.7-95.1 199.9-195.6 256.4-8.1 4.5-17.4 8-25.3 12.7-24.6 14.5-38.5 54.9-48.8 80.2-6.1 15-20.3 21.1-32 31-17.2 14.7-33 33.7-50 49-1.8 1-18.8 4.6-21.3 4.7-8.4.3-53.6-17-61.2-22.3-1.6-1.1-2.9-2.4-3-4.5 2.6 1 5.6.7 8 1.5 24.7 8.1 35.8 10.4 59.6-2.3 45.3-24.1 94-80.7 105.9-131.1.8-3.3-.3-6.6 1.4-9.6 1.9-3.3 32.1-21.9 37.7-25.3 8.6-5.2 17.9-9.2 26.3-14.7l-23.7-15.8c-1.9-3.8-3.4-8.3-1.5-12.5l21-32c1-4-2.6-7.8-2.7-11.8 0-3.5 2.1-7 2.4-10.4-5.6 4.3-51.8 33.5-54.5 31 3.1-7 7-13.6 9.8-20.7 2-5.1 7.2-20.1 7.2-24.8v-18.5l-80.6 123c-1.5 5.3 16.7 8.3 15.2 17.1l-35.4 55.5c0 1 13.3 9.5 14.3 9.5 1.8 0 12.1-16 12.3-17.7s-3.6-7.3-3.7-10.9c-.2-8.1 6.3-17 14.5-18.3 23.2-3.7 30.2 26.9 10.4 34.4-3.6 1.4-9.5 1.1-11 2-2.6 1.5-10.1 17.6-13.6 21.4-9.3 10.2-21.5-8.1-31.3-8.8l-21.7 33.9c.5 4.4 3.3 7.5 3.2 12.3-.3 14-17 23-28.7 14.2-16.3-12.4-4.6-35.5 14.8-32.7l61.1-93.5-38.2-25.2c-1.9.5-13.6 19.4-15.5 22.6-17.7 29.5-52.9 90-56.2 122.8-1.1 10.9 1.2 18.6 5 28.5-2.1 2.1-27.1-18.8-28.5-22-1.7-3.9.9-16.6 1.5-21.5.3-2.6-.3-5.5 0-8 .7-5.7 15.1-22.6 19.2-28.8 39.8-58.7 57.4-124.9 103.3-180.7 9.5-11.5 17.8-22.7 23.2-36.8 6.8-17.8 18-69.8 15-87.5-.7-3.8-10.8-27.6-9.8-28.7 13.4 6.1 26.7 13.4 39.3 21.2 4 2.5 14.9 8.6 17.2 11.8 3.4 4.9 10.1 27.9 12 35 2.4 8.5 6.3 34.7 11.4 39.5 12.6 11.9 29.7-12.1 35.2-21.9 27-47.4 34.2-98.4 26.7-152-1.2-8.6-7.3-28.6-6.7-35.9.3-3.3 6.8-17.2 8.6-21.4 21.8-50.7 47.9-79.6 86.7-117.4 10.1-9.9 24.6-25.8 35.1-34 6.8-5.3 15.4-7.7 22.4-12.6 6.3-4.4 20.5-19.4 27.6-20.4 1.5-.2 1.8 0 1.5 1.5l-24 39.1c-.6 1.7 3.6 2.7 5.4 4.6 12.7 13.2.3 33.6-17.2 31.1l-67.1 103.3 12.9 8c6.5-7.2 34.6-57.4 39.9-59.1 8.6-2.8 24.4 13.7 32.3 16.8 1 .4 1.6 1.3 2.8.3 1.2-.9 6.4-23.5 7.7-27.3 4.9-14.6 11.8-23.9 18.1-36.9 5.8-11.9 9.2-43.6 11-58 3-24.6 4.6-49.6 2.1-74.4-1.9-2-45.9 15.8-51.3 18.1-72.5 32.1-155 81.6-220.4 126.6-53.3 36.7-89.9 73.5-130.2 123.8-13.1 16.4-31.1 37.5-42.5 54.5-13.7 20.4-13.2 63.6-15.6 88.4-3.2 33-4.2 70.9-9.1 102.9-2.9 18.7-26.7 65.7-36 85-6.8 14.1-16.8 28.5-23.1 42-6.3 13.7-9 29.6-15.7 43.3-3.2 23.4 13.4 51.1 28.9 67.4zm455.2-647.8c-3.7 3.7 0 13.3 6.7 10.2 8.1-3.6-.6-16.4-6.7-10.2M1646 299c-1.5-1.6-11.3 7.1-13 8.5-8.7 7.2-18.9 17.1-26.5 25.5-3.3 3.7-18.8 22-18.6 25.5 0 1 .4 1.4 1.1 2 .7.7 15.7 9.1 17.3 9.7 5 1.9 3.1 0 5.3-3.2 12.7-18.5 24.4-37.6 37-56.1 1.4-3.6-3.9-7.5-2.5-11.9zm-44 82c-5-.8-18.4-11.9-22.3-11.1-3.2.7-22.3 42.9-24.4 48.9-11.4 33.4-17.4 78.1-3.3 111.2l1.5-10c4.9-14.2 23.6-16.4 31.9-3.9 3.6 5.4 1.5 10.7 3.5 13.5 1.8 2.5 11.4 7.1 14.4 9.3 1.2-.2 13.1-18.3 13.9-20.2.3-.9 1.1-1.6.3-2.7l-46.1-31c-.4-.8-.6-1.6-.6-2.5-.3-6.8 23.6-35.7 26.9-44-3.8-5.1-19.8-10.5-19.9-17s25.5-38.6 24.1-40.5Zm35 224c8.9-26.3 18-52.9 24.5-80 7.8-32.4 4.9-57.7 8.5-89.5 1.3-11.8 4.9-23.4 7-35l-1-2-25.7-16.4-46.4 70.4c.2 2 7.5 6.3 9.6 7.5 1.6.9 6.1 4.3 7.5 3.6.8-.5 9.7-14.3 9.8-15.2.2-1.6-3.3-7.1-3.4-11-.2-9 7.1-17.6 16.1-18.4 22.1-1.9 28.3 30.3 4.8 35.8-2.3.5-5.4-.4-7.3.7-3.3 1.9-11 19.8-15.2 21.8-8.2 3.9-21.8-10.9-29.3-14.2-1 0-10.5 15.5-10.5 16.5 0 3.9 43.7 26.4 45.6 32.4.7 2.3.9 4.8 0 7-12.3 19.5-26.1 38.3-37.3 58.4l42.8 27.6Zm4.2-172.8c-3.7 3.7 0 13.3 6.7 10.2 8.1-3.6-.6-16.4-6.7-10.2m-75 89c-3.7 3.7 0 13.3 6.7 10.2 8.1-3.7-.6-16.4-6.7-10.2m-9.5 17.9c-1.4.4-9.6 12.7-11.1 15-12.4 19.2-20.1 40.6-26.6 62.4-1.2 4-7.8 25.4-6.5 27.5.5.8 14.3 9.8 15.2 9.9l69.3-104.4c0-.9-13.7-9.2-14.6-9.3-2-.2-7.3 3.8-11.8 3.9-5.4 0-12.7-5.3-13.8-5Zm-88.6 225.8c7.4 2.3 16.6 12.2 22.9 14.6 5.1 1.9 15.1-6.1 19.7-9.2 41.3-28.2 86.8-87.4 110.4-131.5 2.4-4.4 8.2-14.5 9.4-18.7.4-1.4.9-2.7 0-4l-43.9-27.9c-1.2.3-12 17.3-11.7 19.3l25.6 16.6c4.8 4.8 1.6 9.2-1.1 13.9-5.6 10-47.6 69.1-47.2 73.4.4 3.8 2.5 6.3 1.8 12.2-1.8 14.7-22.8 19.5-32 7-10.6-14.4 4.1-33.4 20.9-27.6 14.5-24.4 31.9-47.3 45.7-72l-21.1-13.9c-8.2 8.4-25.9 45.5-34.1 49.8s-16.5-7.9-24.4-9.9c-1.9 8-2.3 16.5-5 24.3-2.8 2-16 12.7-16.1 15.2 30.2-1 29.4 38.8-.8 36.7-4.2 9.5-14.9 19.7-18.7 28.8-.4.9-1 1.9-.4 2.8Zm-60.4-144.7c-1.4.3-2.1.9-3.1 1.9-8.3 7.8-18 49.2-19.4 61.6-.6 5-.2 21.1-1.7 24.3-1.2 2.6-13 12.6-16 16-10.2 11.5-21.5 26-30.3 38.7-1.4 2-9 12.8-9.1 14 0 1.5.8 1.5 1.5 2.2 1.3 1.2 15 9.8 16.1 10 1.2.2 2 .2 2.8-.9l87.3-133.8c1.1-4.5-10.3-23.8-13.8-27.7-3.7-4.1-8.4-7.7-14.3-6.3m80.5 90c-3.7 3.7 0 13.3 6.7 10.2 8.1-3.7-.6-16.4-6.7-10.2m44 5c-3.7 3.7 0 13.3 6.7 10.2 8.1-3.7-.6-16.4-6.7-10.2m-154.4 127c-6.9 1.4-4.1 12.7 2.5 11.7 6.7-1 7.3-13.6-2.5-11.7m-88.6 78c-3.7 3.7 0 13.3 6.7 10.2 8.1-3.7-.6-16.4-6.7-10.2" class="outline" data-original-prefix="outline"/></g><g id="06_Left Ear" data-trait="notched"><path id="fill-ear-lft" class="fill"  fill="#fff" d="M515.3 757.7 497.9 703c-4.5-.8-15.7 5.8-19 3.5-2.3-1.5-6.1-25.3-7-29.5-1.9-1.6-22.5 9.7-28.3 7.8-.7-.2-1.2-.8-1.6-1.4l-62.4-152.6c-3.7-41.1-13-85.4-14.7-126.3-.1-3.3-1-8 2-9.9l32.9-20.5-37.7-10.3-29.8-44.7c-3.5-42.9-4.2-85.6-6.5-128.6-.5-2.7 8-8.8 9.8-9.3 2.4-.6 8.1 2.5 10.9 3.6 46.2 19.1 91.1 42.1 137 62l183.2 124.8L792.3 514c2.9 3 4 6.5 4.5 10.5 7.1 58.5 6 120 13.2 178.8l79.7 168.3c.4 1.9 0 3.4-.8 5.1-7 17.9-22 38.7-30.7 56.3-20.9 16.1-39.2 32.7-64.7 41.3-10.7 3.6-33.2 11-43.5 12.5-2.4.3-4.7.6-7-.5-28.5-27.2-57.8-53.6-85.7-81.3l-37.6-83.4L515 757.8Z" class="fill" data-original-prefix="fill"/><path id="outline-shading-ear-lft" class="outline"  fill="#000" d="M608.2 565.2c.8-.8 2.2-1 3.3-1.2 13.1-2 32.8-1.5 44.9-5.2 2.8-.8 11-9.6 14.1-5 .5.7 2.2 15.3 2.4 17.6 1.2 14.7.7 27.7 3.3 42.7 8.2 46.2 31.4 83.3 65.2 114.8 1.4 1.3 7.1 4.8 7.3 5.2 1 1.7 0 13.9.2 17.3.9 12.3 6 21.7 8 33.5 2.7-3.1 5.7-6 8.5-9 1.7-1.7 1.3-5 5-2l27.4 50.6c7.7 26.9 34.8 63.7 56.7 81.3 2.2 1.7 13.4 7.9 13.5 8.7.5 2.4-7.6 14.7-9.7 17.2-10.6 13.4-47.4 38.2-63.5 44.5-8.8 3.4-36.8 11.1-45.9 12.2-1 .1-2 .5-3 0l-65-53.1-77-110-70-38-39.1-83.4c-2.9-1.8-10.8 4.3-13.4.9s-5.7-31.3-7.6-32.9c-11.2 0-22.1 3.7-33.2 5-7-11.4-11.4-14.7 3-20.8 11.4-4.8 24.1-5.7 36.3-6.7-32.8-44.7-49.3-99.3-63-152.5 1.4.2 1.9 1.8 2.5 3 12.6 23.2 36.1 80.6 58.2 92.8 1.6.9 3.3 2.3 5.3 2.2.8-.9-4.8-20.8-5.7-23.8-2.5-7.6-11-23.7-11.3-29.8-.5-10 4.4-26 5.1-36.9 2.7-44.5-13.8-99.2-36.9-137.2-.6-1-3.6-6.7-5.2-5.3-6.7 22.4-24.9 43.5-45.8 54.2-1.2 7.7-2.5 15.5-3.2 23.3-.7 6.9-.2 15.5-1 22-.2 1.4-.6 3-2 1.5L361 399.6l39.9-25.2-57.1-17.9-9.9-74.6 9.1 22.4c2.6 5.6 8.6 18.3 12.9 22.1 11.2 10 48.5 26 63.4 25.6 1.4 0 3.1.6 2.5-1.5-14.6-20.1-30-39.8-48.8-56.2L360.3 252c24.5 9.1 46.6 22.6 68.4 36.6 20 12.8 39.3 25.1 55.6 42.4 27.9 29.6 53.2 65.5 69 103-1.6 41.9-.6 84 7.9 125.1 2 9.5 6.3 30.8 10.3 38.7 1.1 2.1 7.7 10 9.7 11.3.9.6 1.4 1.7 2.6.5l24.2-44.3ZM777 967c-3.9-10.9-5.5-27.1-10.2-37.3-2.9-6.1-17-20.7-22.2-27.8-24.6-34-42.1-71-63.4-106.6-16.1-26.8-19.1-20.9-44.5-33.5-28-13.8-72-45.1-92.1-68.9-11.2-13.2-19.7-30.7-30.5-43.5-1-1.2-9.9-10.7-11-9.5-.7 20.8 11.1 38.7 20 56.5-1.5-.3-11.7-12-9.8-5.2 2.3 8.2 6.9 17.8 9.8 26.2 5.3 15.4 10.6 30.9 15.5 46.5 21.2 12.2 44.3 25.6 66.8 35.2 16.5 7 33.5 9.8 50.4 15.1 5.5 13.5 10.9 27.2 17 40.5 9.5 20.5 22.4 32.9 37.7 49.3 17.5 18.9 38.7 41.3 58.5 57.5 1 .8 7.3 6.2 8 5.5M495 668c-2.2-1.5-4.1 5.2-4.7 6.8-.9 2.3-5.2 15.2-4.2 16.2 1.7.5 2-.7 3-1.5 1.8-1.3 12.8-10.3 12.9-11.2.4-2.6-6.7-7.3-6.9-10.3Z" class="shading" data-original-prefix="shading" opacity=".2"/><path id="outline-ear-lft2" class="outline"  fill="#000" d="M673 548c1 1.1-8.8 24.7-9.5 28.9-3.2 18.8 9 75.6 17.4 93.7 8.3 17.9 19.9 26.5 31 41 10 13 27.1 42.8 34 58 3.2 6.9 7.3 23.6 10.7 28.3.6.9 2.3 2.8 3.5 2 .7-.5 6.9-12.2 9-13.5 1.1-.7 2.2-.8 3.4-.4 4.1 1.4 13.8 33 15.4 38.7 4 14.6 5.1 30.8 8.8 44.2 2.3 8.4 20.4 26.7 25.3 35.7 2.6 4.6 4 23.4 4.2 29.8.3 6.8-5.8 11.2-10.6 15.5-3 2.6-13 10.7-16.2 11.8-1.5.5-2.7.7-2.3-1.3.7-3.6 4.3-8.8 4.9-13.1 2.6-18.9-8.5-44.7-15.7-62.1-1.5-3.5-5.2-8.8-6-12-1.8-8.1-2-19-3.4-27.6-.5-3.3-4-24.7-4.8-25.7-1.6-1.8-3.9 4.7-4.2 5.3-2.6 5.9-2.8 11.8-4.7 17.3-.5 1.4.3 1.7-2.1 1.4-17.1-29.1-27.5-61.7-47.2-89.3-7.7-10.8-17.1-22.2-26.8-31.2-3.1-2.9-18.5-13.8-19.5-15.5-2.6-4.3-1.1-16.8-1.7-22.3-1.2-13-10.2-51.3-17.9-61.1-10.4-13.3-23.7 7.8-28.2 16.8-11.9 24.1-10 50.1-.3 74.7 2.7 6.9 6.5 13.3 9.5 20-2.9 0-5.5-1.3-8-2.5-12.4-5.8-27.9-15.9-39.3-23.7-9.7-6.7-30.6-22.1-35.5-32.5-4.7-9.8-7.2-35.2-10.5-47.5-8.6-32.7-20.4-64.8-41.6-91.5-.3-1.7 5.1-9.4 6.3-12.3 14.5-33.8 3.2-89.8-11.3-122.7-19.9-45-50.2-81.4-89.9-110.1-6-4.3-15.7-8.5-20.4-13.6-5.6-6.2-10.5-19.5-14.9-27.1 15.1 6 29.9 13 44 21 46.7 45.1 89 81.7 117.2 141.9 2.5 5.3 12.2 26.2 12.6 30.4.7 7.6-5.5 27.2-6.7 35.9-7.5 53.4-.2 102.7 25.7 150.1 5.5 10 23 36.2 36.2 23.9 4.9-4.5 9.1-31.2 11.5-39.5 2-7.1 8.6-30 12-35 3.1-4.5 28.4-18.6 34.8-22.2 2.3-1.3 20.8-11.7 21.7-10.8Z" class="outline" data-original-prefix="outline"/><path id="outline-ear-lft1" class="outline"  fill="#000" d="M847 941c10.6-11.2 23.3-30.3 27.1-45.4 4-15.9-.3-15.2-4.9-28.4-9.8-28.2-18.3-52.5-31.4-79.6-19.7-40.8-34.2-57.3-38.8-105.2-2.7-28-4.3-56-7-84-2.3-23.6-2.3-66.6-15.2-85.8-14.9-22.2-37.6-49.1-54.8-70.1-38.7-47-78.5-83-129.5-116.6-44.3-29.2-93.1-59.2-139.9-84.1-38.8-20.7-78.7-40.3-120.7-53.8-1.5 19.2-1.7 39.3 0 58.5s5.3 44.4 9.3 63.7c1.7 7.9 11.2 35.7 17.3 39.7 8.2 5.5 35.6 11.4 46 13 7.9 1.2 12.6-2 7.5 9.8-6.1 14.1-22.8 28.1-36.2 35 1.3 9.3 4 18.5 5.1 27.9 2.4 21.6.3 44.6 3.3 65.7 6.5 46 32.5 120.1 58.3 158.7 1.4 2 3.8 6.9 5.9 7.1 2.8.3 18.9-4.4 24-5 6.1-.7 12.5-1.5 18.5 0-1.5 5.2-4.3 10-4.9 15.6-.3 2.9-.6 12.9.8 14.8 2 2.8 14.2-4.7 17 .2l24.6 68.4c28.6 23.4 63.9 36.6 93.9 58.1 19.4 47.2 45.7 91.8 83 127 32 30.2 60.3 41 103.5 23 0 2-1.1 2.8-2.7 3.8-9.1 6.2-48.7 21.7-59.3 22.8-3 .3-21.2-3.2-23.6-4.5-14.8-13.8-28.4-30-43.4-43.6-10.8-9.8-31.4-21.3-37.2-33.8-2.9-6.2-4.6-14-7.3-20.7-6.5-15.5-24.7-50.7-38.1-59.9-6.9-4.7-17.7-8.4-25.4-12.6-18.9-10.5-36.6-23.3-54.4-35.6-3.2-9.7-16-72.5-23.2-74.8-3.8-1.2-13.7 5-16.2 2.8-.6-.5-4.1-12.1-4.6-13.9-1.3-4.8-1.7-10-2.5-15-6.3-.6-12.9 3.1-18.3 6.1-3 1.7-12.5 9.6-13.3 9.8-1.6.3-2.5-1.6-3.2-2.6-7.7-10.6-16.4-27.4-22.7-39.3-24.2-45.5-47-101.1-56-152-2.4-13.5 2-13.7 4.3-24.8 3.2-15.5-1.3-47.1-4.1-63.5-.8-4.5-4.5-15.7-3.5-19.1 1.1-3.7 31-16.7 33.8-23.7-13.2-.2-28.6-3.9-40.3-10.2-28.2-15.2-26.4-45.7-28.7-73.3-2.6-32-7.2-72.4-3-104 .3-2.4 3.7-16.9 4.6-17.6 3-2.2 20.7 2.5 25.4 3.6 67.6 16.1 153.5 57.1 213.7 92.3 35.8 21 74.6 43.9 103.3 73.6 52.5 54.4 98.3 114.6 141.4 176.6 2.3 4.6 2.2 21.8 2.6 28.4 3.3 61.9 8 156.6 41.6 209.4 3.9 6.2 8.9 11.1 12.3 17.7 16.1 31.9 26.7 69.7 43.1 101.9l-.5 8.4c-13.6 15.6-21.6 39.6-39.2 50.8-5 3.2-11.6 7-17.3 8.2Z" class="outline" data-original-prefix="outline"/></g><g id="07_Head" data-trait="hawker"><path id="fill-head" class="fill"  fill="#fff" d="M914 448.5c.2 1.7 1.9 5.4 3 7 3.1 4.5 28.3 28.7 33.1 31.9 8.2 5.6 13.6-2.2 20-7.9 9.1-8.2 17.3-18.4 26.5-26.5 31.3-27.3 66.7-49.1 105.8-63.2 1.2-.5 2.2-1.1 3.7-.8l-35.8 89.7c.4 15.7-1 34.3.8 49.8 2.5 21.8 29.6-1.4 41-1.5v17.5c0 3.8 5.1 9.7 9.2 9.3 4.5-.4 26.5-16 27.7-14.8 0 1.3.3 2.5.8 3.7 3.7 8.1 12.2 30.9 16.8 36.2 1 1.2 3.3 2.4 4.8 3.2 4.7 2.6 27.9 12.7 32.4 13.6 8 1.5 39.6-9.4 41.3-7.8l3.2 103.3 23.7 47.2-22.9 64.2c0 15 11.8 11.2 21.9 9.4-1.9 13.3-3.9 26.8-6.5 40-2.1 10.7-6.9 38.7-11 47s-16.9 19.1-22.4 27.6c-10 15.5-15.4 36.8-25.2 52.8-27.2 16.6-51.5 37.2-77.6 55.4-15.3 10.7-39 28-55 36s-35.9 14.4-43.3 15.7c-33.2 6.1-48.3-16.5-75.4-26.7-14.2-5.4-32.8-7.1-47.7-12.3-8.8-3.1-35.8-15.2-42.5-20.5-8.3-6.4-16.9-21.4-25-29-20.6-19.5-33.7-20.2-49.7-48.3-13.9-24.3-25.8-48.8-27.8-77.2-1.5-21.4 1.6-43.9 10.5-63.5 3.9-8.6 13 7.3 18.8 7.8 5.7-4.6 13.6-7.8 13.7-16.3 0-3.5-2.7-15.5-4.3-18.8-5.3-10.9-23.2-24.2-28.6-34.4-5.1-9.5 2-32.8 3.7-44 4.2-28.8 6.6-53.7 6.2-82.9 0-3.5-2.9-21.3 3.4-21.4 4.9 0 12.4 6.9 17.9-.2 4.5-5.8 8.2-39.8 10.9-50 3.8-14.2 11-27.5 14.7-41.8 2.4-2.1 11.3 11.3 18.5 1l29-79c12-16 24.2-32.2 37.5-47v66.5z" class="fill" data-original-prefix="fill"/><path id="outline-shading-head" class="outline"  fill="#000" d="M1060 548c1.7 1.7 41.6-10.6 47.6-11.1 7.1.2 7.3 14.6 8.4 20.1 7.7.3 22.5-11.2 29.3-8.8s6.1 16.5 8.7 20.3c10.1 15.5 47.5 28.9 65 34 4 1.1 9.7 2.9 13.6 3.5 5.5.7 7.9-2.8 12.8 4.1 6.7 9.5 5.6 47.9 2.5 59.4-1 3.9-5.2 11.5-4.9 15 .2 2.9 8.7 17.9 10.5 22.6 8.2 21.5 11.5 48.8 5.2 71.2-3.2 11.4-9.8 21.3-12.7 32.8 10.1-3.2 19.9 1.5 21 12.5-4.8 16.4-5.1 38.3-11.2 53.8-10.4 26.4-29.4 47.3-38.1 76.9-2.3 7.8-4.1 25.3-7.7 30.3-1.9 2.6-7.7 7.2-10.5 9.5-11.6 9.7-39 29.5-52.5 34.5-8.8 3.3-13.8 2.6-21.5 9.5-4.9 4.5-3.6 8.8-7.1 13.9-5.7 8.3-17.4 21.5-26.4 25.6-28.3 12.7-55.1 25.5-86.3 12.3-1.5-.6-4.3-1.6-5.3-2.7-3.1-3.4-4.1-14.6-2.5-19.1-5.5 1.8-10.5 4.2-16.5 4.1-6.6-.2-14.2-3.7-21-4-7.7-.4-15.7 1.5-24 1-18.9-1.2-34.5-6-49.4-17.6-4.3-3.3-6.6-8.3-10.8-11.2-6-4.2-15-6.2-21-10-3.4-2.1-6.4-5.7-10-8-4.8-3.2-11.2-5-15.3-7.7-7.5-5-14.7-23.7-19.6-31.4-11-17.2-24.7-32.4-32.4-51.6-2.3-5.6-12.9-34.1-13-38-.2-13.3 10.3-1 14.3 1.7 2 1.3 15.5 7.9 16.7 6.8-2.6-7.1-6.1-15-6.9-22.6-1-9.1 1.3-18.7-1.4-27.6-2-6.4-7.5-11.9-10.2-17.8-1.6-3.5-7.4-19.6-8.1-23-.2-1.2-.5-2.2-.4-3.5 1.4-14.9 20.1 9.6 23 10.9s4-.7 5-3.1c2-5.2 8-28 8.1-33 .2-6.5-6.1-9.3-10-14-15.1-18-17.1-30.8-18.1-53.9-.3-8.7-.7-20.6 0-29.1.5-6.5 3.5-12.9 4-19 .8-8-1.3-16.6-1-25 .4-10.6 2.9-22 3.2-32.8.3-.9 9.9-8.5 11.1-9 2.8-1.1 5.1 1 6.2-.7 3.7-11 4.6-23.9 8.3-34.7 2.8-8.3 9.6-22.2 13.8-30.2 1.4-2.7 12.3-21 13.4-21.7 1.9-1.2 4 .3 5.4 1.6.9.9 11.7 17 12.1 18 1.7 4.8-3.8 8.5-6.3 12.6-10.2 17-24 56.3-23.2 75.8.9 22.1 6.1 45.8 7 68 0 3 .7 10.1-.9 12.1-5.3 6.9-10.3-9-11.6-12.6-2.2-6.2-6.4-25.7-10.6-29.4-1-1-2.4-1.7-3.9-1.6-2.7 12.6-4.9 25.6-6 38.5-.7 8-2.6 30.9-.2 37.2.6 1.7 2.7 3.7 3.7 5.3l35.3 34.6-13.5 50.2c-1.5 12.4-3.1 25.1-2.3 37.7 0 2.2 1 11.3 1.5 12.5.7 1.6 5 4.6 6.5 6.5 9 11.6 13.8 27.2 30 29.5-.9-10.5 2.3-20.8 6-30.5.9-2.4 1.8-6.1 4-7.5 0 7.9 13.2 48.4 18 51.5 1.8 1.2 4.5-2.3 5.6-3.5 6.6-7.9 9.6-20.1 11.5-30l11 24c.9-5.7-4.9-19-1.5-23 1.2-1.4 3.5-1.8 5-3 7-6.1 16.7-42.5 17.5-52.5.5-6.5-.5-13.3 0-19.9 1-10.5 8.4-18.7 5.4-29.7-3.8-6.7-9.9-40.4-13.6-44-.6-.5-2.7-.2-2 1.5l-10 49.5c-7.4-25.5-3.8-52.2-6-78.4-7-3.2-12.6-3-17.3-9.9-9.4-14-11.8-27-12.8-43.7l-13.8 44.7c.2 5.6-.7 14.7-7.7 15.3-14.2 1.4-8-26.9-9.8-35.4-.7-3.3-5-8.4-6.5-12.5-7.9-21-2.4-52.2 6-72.5.7-1.8 5.3-12.2 5.8-12.7 2.5-2.5 2.2 6.4 3 7 .3.2 5.3-3.1 7.9.6 1.8 2.5 1.6 22.5 4.6 22.4 9.5-13.2 18.2-27.8 31-38 4.7-3.8 11-8.9 11.5 1l9-5c-6.8 18.4-11.5 37.4-7 57 7.6-9.3 15.8-19 28-22 .9 4.2-1.1 8.7-1 12.4.2 12.9 9.2 50.9 17.5 60.6 1.8 2 3.7 3.6 6 5-1.7-15.5.2-30.7 2.5-46 2.7-.4 1.5.2 2 1.5 4 10.9 5.6 24.8 9 36.1.3 1.1.4 3.1 2 1.5s5.2-14.7 5.7-16.8c1.8-7.3 2-14.8 3.3-22.2 5.8 6.1 7.9 14.8 11 22.5.5 1.2-.8 1.9 2 1.5l7.2-29.4c.5-1.7 2.8-1.3 3.6-1.9 1.9-1.6-.8-5 5.5-3.5 13.5 3.1 28.3 22.4 38.2 31.8l16.5 14c-1.8-9-.2-18.2-1.3-27.2-1.5-12.5-10.2-25-11.7-37.8 1.9-.4 2.4 1.1 3.5 2 19.8 16.3 19 27.2 26.5 49.5.4 1.1.6 3.6 2 3.5 5.6-34.7 8.9-71.5-.9-105.6-1.5-1.1-29.9 5.8-34.6 5.6-1.4 0-5.3-1.4-6.2-2.3-1.5-1.6-1.9-17.8-2.5-22-1.6-10.5-6.3-22.9-6.8-33.2-1.1-25.2 16.3-73.1 32.5-92.6 2.9-3.4 6.8-6.4 9.5-10-2.5.5-5.3 1.7-7.5 3-15.8 8.7-40.1 25.4-54.4 36.6-8 6.3-36.3 32.5-41.1 39.9-2.1 3.3-3.5 9.1-5.8 13.2-5.2 9.2-12.6 18.7-16.7 28.4-4.9 11.5-6.3 24.2-10 36-2.7 0-1.1-35.7-1.5-39.6-.5-4.9-6-14.9-9-19-7.8-10.1-34.2-26.7-36.8-38.2-1.7-7.7-1.1-23.5 0-31.5.4-3 2.3-5.8 2.7-8.3 1.1-7.6-1.6-16.2 2.6-23.5 1.5.4 4.5-4 5.5-3s1.7 5.2 1.8 5.7c1.2 7.7-1.5 18.9-.7 27.8 2.3 26.6 22.1 40.4 41.5 55.5 2.4 0 33.9-24.6 38-28 20.5-17.5 34.6-31.1 58-46 10.7-6.8 29.9-19.5 42.1-20.9 8-.9 10.3 6.3 7.6 12.7-1 2.5-11.5 12.4-14.2 15.8-14 17.2-25 43.4-29.7 65.3-4.3 19.6 1.8 33.5 4.7 52.7.3 2.1-.2 4.4 0 6.5v.2Zm142 387c10.7-14.4 24-31.3 28.5-49 6.1-23.7-2.1-31.4-6.9-52.2-3.1-13.1 0-23.6-.6-36.4-.4-7.3-2.4-15.5-3-22.9 1.6-5.8 7.8-7.4 10.8-12.2 5.8-9.1 3.6-24.3 2-34.7-1.7-11.3-9-24.8-9-36.1s8.2-22.1 9.1-32c.5-5.1-1-29.1-3.5-32.4-1.6-2.2-10.5-2.7-14.2-3.8-25.2-7.4-51.9-15.2-66.7-38.3l-9.6-18.9c-2.7 13.4-3.8 26.7-1.9 40.4 2.8 19.9 11.7 37 15.6 56.4 2.8 13.9 3.7 29.3 6.7 43.3l1.5 1c3.3-7.2 8.8-21.9 14-27.5 2-2.2 19.8-11.7 21-10.5-4.5 9.7-12.4 16.6-10.9 28.4 1.7 13.3 21.8 23.1 22.9 33.1 1.5 12.9-1.9 28.8-10.9 38.3l-13.1 39.2c-2.3.5-1.6-.3-2.2-1.3-1.3-2-2.3-5.6-3-8-4.1-13.2-5.4-28.5-9-42-.3-.9-1.5-2.5-2.4-2.7-4.6-.7-17.5 27.5-23.4 30-.2-11.9-3.4-23.2-5.7-34.8-2.1-10.5-2.4-20.5-8.3-30.2-1.4 0-1.6 1.5-2 2.5-9.9 19.5-13.7 37.2-30.9 53.1-5.3 4.9-12.4 6.8-19.5 5.4-8.1-1.5-6.8-20.8-7.8-27.2 0-.9-.4-3-1.7-2.7-5.6 22.2-14.3 54.4 8.5 70 8.2 5.6 11.5.2 12.6 13.5 2.9 37-2.6 77.5-11.9 113.2-1.7 6.6-4.4 12.8-6.1 19.4 17-7.8 28.9-21.2 36.2-38.3l22.8-56.7c1.6.2 1.9 4.3 2 5.5 1.4 17.5-3.3 40.2-5 58-.7 7 .3 14.4-2 21.5l11.5-7c16.4-18.8 35.5-37.2 43.8-61.2 6.4-18.8 10.4-40.3 16.4-59.5 2.8-8.8 6-17.8 9.8-26.2 2.4 10-1.3 21.8-.5 31.5.9 10.7 8.4 22.3 5 35l-9 66.5zm-138.2-80.9c-16.2-6.2-28.6-25.6-32.6-41.9-3.1-12.9-1.8-26.8-6.8-39.2-8.4 13.9-22.1 21.9-34 32-11.1 9.4-28.7 25.5-30.4 40.6-.8 6.8 0 12.3-1.4 19.6-2.7 13.3-9.4 28.8-10.7 42.3-.6 6.5-.2 35.9 4 40 1.4 1.4 1.7.7 2.3-.8 2.4-5.7 1-14.4 1.8-20.3.2-1.4.6-3 2-1.5.4.4 2.4 9.3 2.7 10.8.8 3.9.7 8.6 1.6 12.4.2 1 .4 3 1.7 2.8-.2-4.9 2.8-9.9 3-14.5.2-3.8-1.2-7.1-1.1-11 .2-11.5 4-24.3 8.1-35 .6-1.5 1.4-5 3-5.5-1.4 28.1 1.9 55 8.3 82.2l3.7 7.8c-.2-7.3 1.9-15.4 2.1-22.5.3-12.2-.3-24.6 1-37 .7-7.1 3.7-13.6 5-20.5 1.7-.2.9 2.3 1 3.5.2 5.5.2 11.6 0 17.1 0 4.6-1.8 9.1-1 14 .6 4 7.5-1.4 9-3 7.1-7.7 12.3-22.9 19.2-30.8.9-1 1-2.1 2.8-1.7l-2.9 52.4c1.5 6.5 1.2 13.4 2 20 .2 1.5.5 6.1 1.9 6.6 14.8-38.5 28.9-77.8 34.9-118.8h-.2ZM915.5 914v1c.7-.3.7-.7 0-1" class="shading" data-original-prefix="shading" opacity=".2"/><path id="outline-head" class="outline"  fill="#000" d="M1279.5 805c.4 0 1.8 1.5 1.3 2.3-8.8 26.2-11 55.3-18.1 81.9-7.3 26.9-40.6 46.1-46.3 77.7-.7 4 .4 11.6-2 14-1.4 1.5-11.7 5.3-14.8 7.2-13.8 8.2-27.9 20.9-41.8 30.2-17.5 11.8-34.4 21.5-51.4 34.6-5.6 4.3-11.2 10.9-17.2 14.8-12.6 8.1-53.4 24.4-67.9 25.2-28.3 1.6-36.5-13.9-57.2-25.8-15.4-8.9-27.8-5.4-43.3-9.7-10.1-2.8-20.3-10.5-30.4-13.6-4.5-1.4-11.1-1.4-14.8-3.2-4.2-2-12.3-15.5-16.2-19.8-4.5-5-11.3-11.2-16.5-15.5-11-9.1-32.7-20.3-41-29.3-5.4-5.8-27.5-42.5-31.2-50.5-19.5-43.1-11.7-88.6-13.8-133.2 0-2.9-5.3-26.2 3.5-19.5 7.1 8.9 12.8 20.4 20 29 1.6 1.8 3.7 2.8 5.5 4.5 3.9 3.9 4.4 10 10.4 2.5 10.6-13.2 0-30.3-9.4-40.5-6.5-6.9-18.7-12-19.9-22.1-2.3-18.3 7.5-45.1 9.8-64 3.3-27.9 1.4-53.6-.6-81.2-.3-5.1-2.2-15.3 5.1-14.2 2.8.4 15.7 14.3 19.1 9.1 1.7-2.6 1.9-21.9 2.6-26.4 1.5-10.8 4.3-24.1 7.4-34.6 3.9-13.3 10-25.7 18-37l11.9 11.1c6.2 3.3 4.1-4.4 4.8-8.3 8.9-47.4 27.5-82.9 59.2-118.8 2-2.3 14.6-16 16-16 .3 12-2.9 24.4-3.5 36.5-.8 16.3-2.7 43.6 8 56.1l31.6 27.5 1.3-.2c42.8-48.1 96.1-89.5 159.1-106.8.3 1.5-.3 2.4-.9 3.6-3.3 6.9-8.9 14.4-12.6 21.4-20.1 38.9-38.2 88.4-24.4 132 2.7 1.9 34.8-14.5 39.9-16l2 29c1.6 1.7 22.7-14 26.3-15.2 1.6-.5 3.1-1.5 4.8-.3 1.2.8 7.9 23.2 9.8 27.3 10.7 22.8 33.2 32.4 57.7 31.3 12.1-.5 23-7 34.5-10 5.8 24 5.6 48.9 5.1 73.5-.3 13.7-4.2 31.3-.5 44.5 3.5 12.4 10.4 23.6 16 35 2.7 5.4 4.3 7.5 2.5 13.6-4.8 16-17.9 37.2-20.6 52.4-.2 1.2-.6 4 1.1 4 4.9 0 18.5-1 22 0Zm-341 247c7.9 1.2 18.3-.9 26.5 0 1.5-4-1.5-4.8-1.9-5.8-6.7-17.2-15.5-33-19.6-51.2-6.1-26.9-9.1-62.8-10.5-90.5-.7-12.9 2.9-24.4 4-37 1.4-15.7 0-49.1 7.2-61.8 3-5.3 10.6-11.6 12.1-16.9 4.9-17-11.8-45.1-16.8-61.8-5.3-17.5-7-37.1-11-55-1.4-1.8-1.4-.3-2.3.7-11.9 12.7-17.1 31.3-13.2 48.3-2.4 3.3-17.8-7-19.8-9.6-3-3.9-12.1-28.2-12.1-32.9V664c-1.7.4-2.2 2.3-2.8 3.7-23.2 55.7-18.2 138.1-6.9 196.5 1.2 6.2 4.4 13.1 4.7 19.3 0 2-.2 1.6-2 1.5-3.8-11.8-9.7-23.4-13.3-35.2-12.2-40.2-17.2-102.7-9.2-143.8 1.1-5.6 6.9-21.7 6.5-25.5 0-1.3-7.8-13.5-9.2-16.9-8.8-21.6-8.8-50.7 4.2-70.7 2.6 0 0 3.9 0 4.5v27c0 5.2 6.9 22.2 10.6 26.4 3.9 4.5 2.8 1.4 4.6-1.2 13-18.9 21-42.5 40.8-55.7-2.6 12.1-8 23.7-10.7 35.8-4.7 20.9-6.4 40.6 1.7 60.7.5 1.2-.8 1.9 2 1.5 1.5-6.6 3.8-14.7 6.5-21s7.6-11.5 10-17c5.9-13.7 9.5-26 17.3-39.7.9-1.6 1.8-4.9 4.2-4.3-3.1 13.2-7 23.6-6 37.5.5 6.8 3 11.9 3.9 18.1 1.1 7.3 1 15.1 2.4 22.6 5.4 29 21.1 57.3 33.3 83.8 1.2.2 2-.5 3-1 4.2-2.1 17.7-24 20.6-29.4 18.3-34 8.2-75 10.9-112.2l-3-33.5c4.8 6.8 9.5 15.9 12.8 23.6 7.1 16.3 14.9 41 19.7 58.3 8 29.2 7.8 61.4 10.5 91.5.9 9.7 3.3 19.4 4 29 1.3 17.4-5.5 27.1 16.8 31.2 3.8.7 14.5 0 15.2 3.8-2.8 48.6-10.2 98.8-24.7 145.3-4.2 13.3-18.4 47.8-28.8 56.2-1.1.9-1.6 2.4-3.5 2 2.1-5.4 2.7-17.9 5-22.3.5-1 4.3-1 6.5-3.7 5.2-6.5 12.9-39.3 15.1-49 6.2-27.8 17.2-80.5 13.5-107.6-.6-4.6-9.8-9.2-13.5-12.5-19.1-17-12.2-27.6-13.5-50.5-2-34.6-3.8-76.4-12.3-109.7-1.7-6.9-3.5-14.3-8.2-19.8-.4 10.5 2 22.1 1.5 32.5-.7 15-3.2 35.8-5.1 50.9-1 7.7-5 27.4-7.8 34.2-1 2.3-2 2.8-3.8 4.2-18.9 14.8-52.5 17.4-53.2 48.8-.4 17.4 1.9 27.9-1.6 46.4-4.6 24.7-6.3 39.8-5.6 65.5.9 31.3 4 45.9 16.9 74.1 8.4 18.4 11.1 24.5 25.1 37.9 7.3 7 19.9 20.3 29.8 22.2 21.4 4.1 78.1-23.8 88.4-43.1 8.1-15.2 9.2-34.8 10.8-51.7 1.8.4 1.9 2 2 3.5 1.4 12.4-.9 27-1 39.5 14.1-14 26.6-30.5 37-47.5 24.7-40.3 43.8-86.4 50-133.5l3.9 8.5c-.9 7.6 4.4 14.8-2.5 20.4-4.9 20.9-8.7 42.3-15.2 62.8-6.1 19.2-18.6 34.2-28.4 51.6-1.7 3-12 21.1-10.8 22.7 10.5-5.5 18.1-14.9 27-22.5 6.4-5.5 17.8-11.7 22.4-18.5 6.4-9.4 12.2-27.4 18.4-38.6 8.1-14.6 25.1-34.5 30.6-48.4 3.6-9 7.8-31.5 9.3-41.7.9-5.7 1.4-11.5 1.3-17.2-2-2-23.7 5.3-28 4.5 1.7-7.6 4.4-15 6.6-22.5 5.2-18.5 15.1-45.9 13.4-64.5s-12.4-36.6-18.9-54c5.9-20.2 10.2-42.9 8.9-64-.2-2.4-1.1-12-2.6-12.4-.8-.2-12 3.5-15.1 3.8-26.3 2.5-67.9-15.1-80.1-39.7-1.5-3.1-5.5-17.2-6.2-17.8-1.2-.9-1.9-.4-3 0-2.7 1.2-11.7 8.9-12.1 11.9-1.5 11.1 1.9 37.2 4.3 48.8 2.7 12.6 9.2 22.8 13.2 34.8 7.3 21.7 7.9 45.4 13.8 67.2 1 3.7 4.7 12.1 8 5.5 2.2-4.5 3.2-16.8 5-23 3.9-12.8 12.2-29.8 24.7-35.8-.9 5.7-5.4 10.1-6.7 15.8-4.5 18.3 2.4 43.2 7.2 61.3 2.8 10.3 7.1 13.7 5.3 26.2-.7 4.8-7.6 25.5-9.7 30.3-.7 1.5-1 2.8-3.1 2.4-3.7-13.8-.7-26.8-1-40.5 0-4.2-.6-11.8-1.1-15.9-1.1-7.9-7-17.3-7.9-25.6-4.7 0-2.6 6.6-3.2 10.2-.5 2.5-2.1 8.9-3.3 10.7-1.9 2.8-5.8 2.9-7.9 5.1-1.4 1.5-7 19.5-10.6 16-5.3-32-9.2-64.2-16.7-95.8l-5.2-13.2c-.8 6.4-.3 14.2-1.1 20.4-2.8 21-14.9 80.6-26.4 96.6-3.9 5.3-7.3 6.7-13.9 6.1-15.3-1.4-7.4-11-7.4-21.5s-2.7-23.9-4.2-33.8c-2.8-17.6-6.7-35-12.8-51.7 1.1-1.2 4.7 3.2 5.4 4.1 6.5 8 11.9 23.9 15.1 33.9s5.1 25 9 34c.5 1.1 1.9 4.2 3.5 3 1.1-.8 5.2-14.1 5.9-16.6 11.8-42.3 12.9-76.2 9.1-119.9-1.8-20.2-5.1-40.5-8-60.5-14.3 4.2-27.2 12.9-43.1 9.6-2.8-1.9.2-21.6 0-26-.2-8.7-4.8-19-4.9-26.9-.5-24.5 10.3-62 23.1-82.9 1.7-2.8 12.5-15.8 10.8-17.7-10.1 1.9-16.2 9.1-24.1 14.4-47.2 31.4-86.6 63.6-116.1 112.9-4.7 7.9-9.4 16.1-12.8 24.7-1.8-.7-1.1-5.9-1-7.5.2-3.6.6-9.5 1.2-12.8 1.2-7 10-27.5 8.7-31.9-.3-.9-3.4-4.7-4.3-5.7-7.3-8.4-18.4-15.1-25.2-22.4s-11.2-28.7-11.4-39.2c0-4 2.3-22.7 1-24.5-2.9 1.1-4.2 3.2-5.9 5.5-20.7 28.3-33.7 70-34.1 104.9 0 10.3 1.4 21.3 2 31.5-2.3 2.1-19.7-10.6-22.5-13-2.5-2.2-7.2-10-10.9-8.9-.2 0-3.5 3.5-3.6 3.7-6.3 15.6-14.5 50.4-12 66.6.6 4 5 8.6 6.5 13.5 5.3 18.3 9.2 49.5 9.5 68.5.3 13.6-1.3 27-1.1 40.5-1.5.2-1.2-1.9-1.5-3-2.8-12.5-6-25.2-8.2-37.8-2.7-15.2-2.7-33.5-8.3-47.7-4.3-11.1-13.9-20.9-22-29.5 1.2 6.7.3 13.7 1.1 20.4 1.6 14 5.1 22.4 3.9 38.1-1.1 14.7-8.1 28.9-10.7 43.3-.9 4.8-2.8 19.4-2.3 23.8 1 8.5 11.6 16.2 16.5 22.5 5.5 7.2 9.8 16.5 15.6 23.4 1.4 1.7 6.9 5.8 7 6.2.8 3.2-5.2 20.5-6.3 25.5-3.4 15.1-8.4 57.3-2.9 70.6 1.1 2.6 7.4 7.7 8 10 1.3 4.3-.7 9.2-.6 12.8 1.2 29.9 30.4 88.8 50.8 111 1.9 2.1 7.2 7.6 9.5 8.5 2.1.8 1.6-2.2 1.5-3.5-1.2-18.6-4.4-39.1.2-57.7.2-1 .3-3 1.7-2.8 0 20.1-.8 45.7 10.2 63.3 8.5 13.6 28.5 26.4 44.3 28.7zM786.1 833c-4.5-8.1-9.7-16.2-16.1-23 1.2 13.3-1.4 27.4-1 40.5.7 24.1 6.2 65.7 23 84 1.3 1.4 5.5 5.6 6 2 1.3-10.1-1.9-21.2-4-31 0-.9 1.9-.6 2-.5.3.2 3.8 5.5 4.2 6.3 8.1 14.3 5.6 31.9 11.9 47.1 4 9.6 12.4 19.2 21.8 23.6-9.2-23.6-18.8-47.3-22.9-72.6-.6-3.4.5-7-.6-10.4-1.5-4.8-11.4-8-12.4-12.7 2.5-15.6-.5-31.2-.2-46.8 0-5.1 2-11 1-16.5-3.7 4.9-6.3 8.8-12.9 10z" class="outline" data-original-prefix="outline"/></g><g id="08_Mouthpiece" data-trait="biker-beard"><path id="fill-head-main" class="fill"  fill="#fff" d="M1321.1 1646.9c-1.9-1.3 1.4-12.7-10.7-8s-5.8 16-6.7 22.3c-1.6 11.1-1.8 20.2-2.8 31.2-1.4 16.2-8.9 17.5-17 28s-3.1 21.9-4 33.1-6.8 21.8-11.4 31.6-2.1 8.1-4.1 9.9c-5.5 5.1-12.7-11.2-15.5-12.5-9.9-4.5-9 9-10.5 14.5-3.7 13.5-13.2 20-24.6 27.4-2.1 1.4-8.4 5.2-10.4 5.6s-1.6-6.7-1.5-8.6c.4-7.5 1.3-15.3 1.9-22.8-.7-3.2-6.2-3.3-8.9-2.2l-14.7 29.3c-1.8 9.5-2.7 19.3-4.5 28.5s-3.9 9.9-7.8 13.2c-9.7 8.1-26.5 14.5-38.9 15.1 6.7-13.8 9.3-27.6 8-43s-2.9-22.3-11-18c-6.4 3.3-2 28.8-10.3 38.2s-16.2 10-21.4 22.1c-5 11.6-1.6 28.2.7 40.2-8.7-.6-20-5.2-26.5-11s-11.1-17.9-15.4-27.6c-3.3-2.7-7.3-2.1-9.3 1.9-6.5 12.9-7.6 27.7-4.3 41.8s6.7 9.6-3 10.9c-6 .8-20.1-4.2-24.9-7.9s-9.2-15.9-11.2-20.8-1.7-11-5-12-7.8.9-8.4 5.3c-1.2 8.9-.2 24.5 0 34.1s2.4 6.2-1.5 6.5-30.7-14.5-34-17.1c-10.5-8.1-8.4-19.9-14.1-30.9-6.9-13.3-18.3-11.2-22.9-30.1s.5-8.1-2.4-9.6c-11.4-5.6-20.9 23.2-21.9 31.1s-1.4 11.1-2.2 16.8.6 15 0 15.6c-15.2-2.3-24-15-30.9-27.6s-3.9-6.9-4.9-9.1c-3.8-8.2-6-17.1-9.7-25.3-2.8-1.7-6-1.6-8 1.1-3.1 4.3-3.9 16.4-5.6 21.9-2.4 2.1-10.6-10.8-11.8-12.7-4.6-7.4-10.8-20.4-12.1-28.9s1.2-19.5 0-27.9-8.5-17.1-10.7-24.3 1.5-20.9-10.3-14.8l-16 33.5c-1.4.3-1.6-.2-2.5-1s-5.9-6.7-6.9-8.1c-15.1-21.1-7.5-47.7-10-72-5.5-10-20.9-14.7-22.5-26.5s-1.3-18.8-2.1-27.9-1.2-9.5-2.2-11.8c-1.8-4.1-13.4-9.4-17.4-13.1s-6.8-7.7-7.4-12.1c-2-17.6-.6-25.2-10.3-41.7s-10-11.6-10.7-17.4 6.7-20.2 8.5-26.4c5-16.9 9.1-37.2 4.4-54.4-2.2-7.9-7.8-15.2-9.9-22.1s.7-28 1-33.1c.9-13.3 9.8-51.4 21.1-58.9s36.2-15.2 44.4-14.6 6.6 4.6 11.5 5.6c11 2.4 29.6-9.8 40.1-14 17.1-6.8 31.2-7.8 48.2-11.8 10.9-2.6 21.7-8.8 33.6-11.4s29.8-1.2 42.3-3.7 34.1-14 47.4-18.6c4.9-1.7 14.9-5.6 19.5-4.5 8.7 2.1 22 12.2 29.5 12.6s25.4-10.8 37.1-12c9-.9 29.4 8.3 38.4 12.4 6.3 2.8 14.6 9.3 20.8 10.2 16.3 2.5 33.5-2 50.6 2.4 8.6 2.2 19.7 9.6 28.2 9.9s10.8-1.8 15.9-2.1c37.1-1.8 68.8 9.1 98.5 30.6 2 1.4 4.6 5.2 6.1 5.9 2.9 1.3 7.9.2 11.4.6 13.6 1.7 29.6 16.2 34.1 28.9 6.5 18.3-.9 37.3 8.7 54.3 1 1.9 5.4 6 5.6 7.3.5 2.3-2.8 5.7-3.6 8.1-7.6 24.7-6.2 49.7.2 74.3 1.7 6.4 6.5 15.5 7.3 21.7s-11.3 21.7-13.9 29.7c-1.2 3.8-2.1 10-2.8 14.2-1.2 7.2 1.2 13.2-6.8 18.2s-15.1 7.8-20.7 10.3-9.8 5-11.6 3.8z" class="fill" data-original-prefix="fill"/><path id="fill-head-tooth2" class="fill"  fill="#fff" d="M1016.7 1562.4c-6.6-7.1-18.2-5.6-24.7 1.1-4.4 4.6-8.1 16-9 22.1-.5 3.7.7 6.9 3.5 9.4 5 4.6 27.6 10.9 33 6 2.8-2.6 3.5-16.8 2.9-20.8-.3-1.9-4.6-16.6-5.8-17.8Z" class="fill" data-original-prefix="fill"/><path id="fill-head-tooth1" class="fill"  fill="#fff" d="M1046.6 1560.4c-7.5-4.7-18.3-2.9-20.4 6.3-1.8 7.8-2 33.3 8.5 35.1 1.4.2 6-.5 7.5-.9.3 0 5.1-1.8 6-2.2 6.9-2.7 11.2-5.1 9.7-13.2-.2-1.3-.6-3.2-.8-4.2-1.4-5.8-5.2-17.5-10.5-20.9" class="fill" data-original-prefix="fill"/><path id="outline-shading-head" class="outline"  fill="#000" d="M1013.6 1363.4c1.5 1.2 6.4 6.8 7.8 6.5 10.7-10.4 21.7-19.7 38-17.8 11.9 1.3 51.9 22.4 59.6 31.7 6.8 8.2 12.8 23.2 1.9 30.7-11.4 2.9-23.6 5.6-34.7 9.3-14.2 4.7-25.8 9-36.2 19.8-6.9 7.2-19.1 21.1-21.5 30.5-3.5 13.6 1.3 34.7 10.7 45.4 2.6 3 6.6 4.1 8.6 5.9 7.5 7.1 19.7 33.8 24.9 43.6 4.6 3.6 8.4 13 14.9 13.1 4.2 0 8.2-5.5 10-9.1 5.7-11.5 11.3-44.7 9.1-57-1-5.5-5.1-10-6.4-13.8s-7.8-21.7-7.9-24 1.4-2.8 1.6-3.9c.3-1.8-2-4.4 1.3-5.3-.7 5.7 3 5.7 5 8.5 18.4 24.8 23.8 47.2 30.2 76.8 1 4.5 3.1 10.4 3.7 13.4 1.1 5.1-1.6 7.4 5.1 10.7 8.5 4.1 16.5-4 21.7-10 7.9-9 18.2-22.7 19.2-34.9 1.8-21.7-19.8-51.4-6.9-71.7 3.9-6.1 10.9 2.4 13.2 6.5 9.5 17.6 20.5 37.8 22.7 58.3 1.1 10.2-1.4 22.8.3 32.7.8 4.4 4.5 9.6 5.7 14.3 1.7 6.6 1.8 13.8 4.6 20.4l8.4-11.8c8.2-17.1 1.7-27.3 2.1-43.7.5-22.9 8.4-38.4 11.8-59.2 1.8-11.5 1.6-23.9 3.4-35.6.8-5.4 3.4-10.6 3.9-16.1 1.1-11.9-3.3-25.5-10.4-35.1-2.2-3-7.3-4.3-6.6-9.4 11.7-2.6 20.8-1.9 32.2 1.1 12.1 3.1 26.4 6.6 38.8 10.4 4.2 1.3 8.2 5.5 12 3-1.2-5.8-6.2-10.2-5-16.4 7.3-2 17 1.4 23.9 4.5 9.1 4.1 11.2 9 15.5 17.5 6.5 12.6 17.5 56.8 16.5 70.5-.7 8.4-3.1 14.6-3 24s1.1 22.4 2 32c1.1 11.3 8.8 44.8 6 53.1-1 2.9-3.9 6-5.2 8.8-4.3 9.5-15 34.2-22.8 40.2-7.3 5.6-30.4 7-39.9 10.6l-9.7 57.8c-1.4 8.3-15 18.2-17.1 24.9-1.7 5.3 0 16.3-.4 22.6-.6 10.6-4 23.8-8.6 33.4-2.2 4.6-4.5 7.8-10.2 5.3-5.4-2.4-6-14.1-14.5-7.3-3.5 2.8-8.1 20-12.3 25-1 1.2-10.5 8.6-11.8 9.2-14.2 6.2-11.8-17.2-17.1-22.1-1.2-1.1-8.3-2.4-9.6-1.6l-26.7 72.3c-1.3 2-17.6 10.8-19.9 11.1-1.5.2-4-.5-5.2-1.4-5.3-4 1.7-25.8 1-32.9-.6-6.2-6.2-12.2-7.1-18.4-.7-.6-12 1.4-12.7 2.1-2.1 2-.5 12.1-1.8 15.7-2.9 8.6-22.1 26.6-27 37-3.2 6.9-5.6 31.1-12.2 32.9-1.9.5-3.1-.2-4.7-1-5.7-3-19.3-19.7-25.7-25.4-1.1-1-.2-3.3-2.9-2.5l-15.5 43c-7.4 11.3-12.1 3.1-16.7-4.3-7.2-11.8-13.7-24.7-14.8-38.7-2.2.9-6.5 1.1-8.3 2-2.1 1.1-6.5 44.8-9.1 49.9-7.3 11.6-19.3-4.2-24.6-9.9-9.9-10.7-16.1-24.6-24.8-36.6-2.7-3.7-18.2-27.6-19.8-28.2-1.2-.4-10.5-.4-11.2 0-2.1 1.3-16.2 37.2-19.3 42.2-3.7 5.9-9.3 6.7-13.3.6l-17.7-41.8c-1.2-1-25.9.4-30.4 0-2-.2-3.6-.5-5-2.1l-22.5-111-23.5 44.9c-7.5 6.5-11.4 2.6-13.2-5.7-3-13.9-5.1-58.5-10.8-67.2-2.2-3.3-5.7-5.7-8.2-9.8-6.9-10.9-11.3-26-12.1-38.9-.2-2.5 1.6-4.7.7-7.7s-9.8-10.7-12.2-13.8c-12.7-16.3-14.6-34.7-20.3-53.7-3-9.8-9.9-21.3-9.2-31.6 1.2-15.2 11-39.5 10.7-53.2-.2-11.5-13.1-33.9-13.7-46.9 4.9-20.2 6.3-42.7 11.4-62.7.9-3.4 1.1-5.6 4-8 5.2-4.3 21.6-12.1 28.5-15.5 7.5-3.7 21.8-13.8 24 1.1 1.2 8-5.3 13.4-3.9 21.4 1.1 1.1 25-10.2 29-7.5 3.3 2.2-.5 2.5-1.1 3.2-3.4 4.8-8.4 8.8-12 14.8s-6.9 12.8-5.8 19.8c1 6.3 9.7 15.5 12.2 21.8 8.6 22-10.3 49.9.4 68.6 4.7 8.4 15.7 14.1 22.7 20.3 8.9 8 15.2 17.6 22.5 27 7.7-14.6 4.3-25.3-2.5-39-6.7-13.5-16.6-28.1-21.7-42.3-5.7-16.1 3.1-29 2.2-44.2-.4-7.3-5.2-14.4-5.1-22 .2-14.9 13.3-28.3 24.8-36.3 4.3-3.1 9-6.3 14.3-7.2-2.2 10.5-8.1 20.5-7 31.6.6 6.7 5.5 11.2 6.1 17.9 1.2 11.9-5.7 21.9-5 34 .4 7.7 4.5 13.4 7 20.5l12-19.5c2.5-2 14.5-16.2 17-14.5 2.8 9.4-.5 19.1-1 28.5-1.5 32.9-2.5 52.9 19.6 79.4 3.9 4.7 12.2 11.2 18.8 8.9 2.7-.9 4.3-19.7 5.4-23.6 2.9-10.8 18.6-36.7 26.8-44.2 3.5-3.2 15.9-10.4 16.4-1.6.3 6.3-5.8 22.3-6.8 30.2-1 7.2-2.4 23.8-1.9 30.6 0 1.6 1.3 5.4 2.1 7 2.3 5.4 12.6 16.5 18.8 15.3 14.6-2.8 23.2-27.1 30.4-38.2 13.4-20.9 29-25.5 21.1-56.4-4-15.8-10.6-18.7-19.5-29.5-5.1-6.2-9.6-14.3-16-20.1-9.7-8.7-42.3-11.4-56.3-15.8-10.6-3.3-14.1-17.9-6.8-26.3 7.7-8.8 40.8-26.8 52.4-31.6 24.4-10.2 33.8-10 54.3 6.6zM806 1714.5c.8 2.9 0 14 0 18 0 13 10 27.4 11.9 40.1.8 5.2.3 11.1 1.3 16.7 1.8 9.1 7.6 17.3 7.8 26.7 1.9-1.4 3.8-5.8 4.5-8 3.9-11.5 1.7-14.1.4-24.5-.7-5.7 1.9-4.2 2-5 .5-2.3-1.7-1-2-2.1-2.4-8.8 6.3-20.5 11-27.1.9-1.3 1.1-3.3 2-4.5 1.6-2 8.5-9.3 10.9-7.6.6.4 3.8 11.4 4.3 13.2 3.3 12 9 36.4 7.7 48.1-.4 3.2-3.8 11.5-3.7 12.9.7 7.1 3.9 16.4 3.8 24.1l7.5 23.6 14.5-22.2c9.8-6.7 10.4-20.6 15.3-31 3.2-6.9 8.6-12.3 11.2-19.8 2.2-6.4 3.7-14.2 3.5-21 8-1.9 5 5.5 6 10.5 1.2 5.7 5.3 13.6 6 19 1.9 15.6-3 40.6.2 54.8 1 4.2 9.5 14.6 12.4 18.6 3.3 4.5 7.1 8.3 10.3 13.7 4.2 7 7.3 15.4 11.5 22.5 3.6 0 11-28.2 11.4-32.6 1.8-17.5-11-34.4-4.4-52.4 7.5-16.3 9.1-33.1 8.5-51 5.3-.9 3.2 1.2 5 3.5 5.3 6.9 16.3 23 17.8 31.2 1.4 7.6.4 17.9 1.4 25.6 1.7 14.6 7.4 29.3 10.4 43.6 1.5 7.3 1.6 14.8 3.5 22 1.3-.6 2.3-4.3 2.7-5.8 1.9-6.2 2.7-13.4 4.6-19.4 3-9.9 8.7-17.6 12.2-26.8 7.8-20.4 4.1-40.9 6.5-61.5 1.5-13.4 10.1 8.8 10.9 10.2 6.1 11.3 21.2 31 21.2 43.8v35.5l7.1-10.2c5.7-6.3 15.5-15.4 17.5-23.7 4.6-18.9 2.6-30.1 1.4-48.5-.9-15 3-28.7 2.1-43.2-.2-3.4 3.7-4.5 5.8-3.2.6.4 4.6 10.6 5.8 12.7 10.1 18.3 22.6 37.2 30.6 56.4 3.2 7.8 5 16 8.3 23.7 1.9-14.1 11.3-24.6 16.7-37.3 4.9-11.8 8.9-24.2 6.7-37.1l-4.9-24.6c1.8 0 3.5-.2 5.3.2 4 .9 22.4 15.2 26.3 18.7 7.8 7.3 16.5 19.2 17.5 30l1-3.5c-1.2-12.5 2.8-25-1-37.1-1.7-5.4-3.7-11.1-5.5-16.5-1.1-3.1-8.1-10.1-4.6-12.5 3-2.1 6.5 2.1 9.1 3.1 10.9 4.1 19.5 7.4 26.2 17.8l11.8 24.7c4.6-12.2-4.2-21.3-4.1-32.5 0-9.3 3.2-19.8 4.1-29 .9-9.5.8-19.9 1-29.5 6.7-1.5 7.4 5.3 10.9 8.7l2.1 9.3c5.8-20.5-3.1-41.3 14.5-57 12.6-11.2 23.7-14.4 38.2-20.8 7.4-3.2 19.3-19.1 22.5-26.5 8.7-20.3-1.1-26.5-3.9-44.5-1.3-8.4-1.8-21.3-1.3-29.7.7-9.9 5.7-24.8 5-33.9-.9-10.3-9.8-24.5-11.5-35.6-1.1-7-.3-34.2-6.4-37.6-1-.6-1.9-.6-3-.5-1.8 13.2 6.2 21.2 5 34.5-1.4 14.5-9.6 16.9-16.9 27.1-5.9 8.2 0 11.6 1 19.9 1.3 10.7-3.8 22.8-2 35 1.1 7.3 9.4 18.5 10.7 25.3 2.1 11.1-2.2 27.2-7.4 37.1-5.5 10.5-12.6 14.6-20.4 22.9-7.9 8.4-32.2 26.6-43.8 29-4.6.9-9.4 0-14.3.7-11.4 2-31.7 14.9-32.5 27.5-2.4 2.9-8.8 24.5-10 25-.4.2-2.5.4-2.5-.5 1.5-9-2.2-15.5-4.1-23.7l-3.9-5.8c-.8 3.3-2.2 7.9-3.6 10.9-4.1 8.5-10.4 16.8-13.7 26.3-3.9 2.2-14.7 22.4-16.4 22.8-8.1 1.7-7.4-2.1-11.8-4.9s-10.4-4.9-14.2-8.3c-3.6-3.2-10.3-13.8-13-15.8-3.7-2.6-11.2-3.6-15.4-5.3-6.3-2.6-12.1-6.9-16.8-11.5-1.2-1.2-4.9-6.8-5.3-7-1.7-1-5.9.5-8.5-.5-2.2-.9-8.2-9.6-10.2-11.3-.8-.7-9-5.4-9.6-5.4-2.4 0-1.2 8.4-1.5 10.5-.7 5.8-1.3 17-2.4 21.6s-6.4 8.4-8.4 11.8c-3.9 6.7-6 14.9-8.9 21.9-1.4 3.4-6.7 8.5-8.1 12.1-3.3 7.9-3.2 17.5-5.1 25.8-.3 1.4.9 2.8-1.5 2.4-4-.6-6.2-9.8-8.5-13.2-1.6-2.3-4.9-3.2-5.7-4.1-7.5-8.4-16.7-20.6-20.6-31.8-2.1-6-3.3-20.9-10.3-22.8-1.8-.5-11.6 7.3-13.7 9.1-3.2 2.7-6.6 7.4-8.7 9.3-.4.3-7.2 3.9-7.9 4.1-11.6 3.3-14.3-6.9-19.6-13.5-2.9-3.6-6.3-6.3-9-9.4-1.1-1.3-1.3-3.9-2.7-5.3-2.3-2.2-9-3.2-11.7-6.3l-5.8 16.7c0 6.7-2.1 13.3-4.3 19.7-.5 1.4-2.5 7.5-2.8 8-2.6 3.9-7.5-8-7.8-10.2-3.2-17.7 1.7-31.2-8.5-48.5-4.9-8.3-10.6-1.3-14.2-1.7-.3 0-.9-4-2.5-2.1-.4.4.7 2.7-.5 3.1-1.7.5-9.5-.8-11.7-1.4-8.5-2.3-18.8-9.8-25.4-15.1-1.9-1.5-5-5.6-7.3-6.2-3.2-.9-14.7 1.3-20.3.3-12-2-18.8-15.8-25.8-24.2-4.8-5.8-16.8-16.9-17.9-24.1-1.8-11.3 1.5-24.8-1.2-36.8-1.6-7.2-6.3-12.9-6.9-21.1-2-24.2 15.2-39.5 1.2-64.2-4.7-8.2-13.3-14.8-14.2-24.8-1.5-16.8 9.6-33.2 15-48.5-1-1-22.6 11.2-24.4 14.1-6.3 9.6-7.2 29.8-8.6 41.4-.2 2-1.7 3.5-2 6-2.7 25.3 20.5 50.3 14.9 73.9-2.8 11.8-8.8 24.1-10.7 35.3-1 5.9-1.4 10.7 0 16.5.8 3.3 9.8 19.1 12 21.5 3.8 4.1 16.3 7.6 21.7 12.8 9.7 9.2 13.5 24.3 14.8 37.2.3 3.2 1.5 19.9 0 21.4-.5.5-4.5-.6-5.8.2-2.3 1.4-2.8 14.5-2.1 17.1.2.7 1.7.6 1.9 1.4.3 1.4-.2 3.2.3 4.6 4.4 11.8 19.7 15.3 22.3 26.7 2.3 10.3-1.5 23.6 1.5 34l7-15.5c4.6-5.1 19.4-25.6 27-22 .4.2 1.9 1.7 2 2h-.4Zm495.6-292.1c-5.6-3.3-15.3-3.6-20.9-.3-.9.5-8.9 11.1-9.2 12-1.8 4.4-5.2 21.3-5.6 26.4-.9 11.3 2.9 22.3 1.9 32.9-1.3 13.1-11.6 26-12.9 39.1-1.6 16.7 3.1 30.8 10.6 45.4 2.1 4 3.3 6.2 7.8 3.9 7.2-3.7 15-14.2 18.5-21.5 1.1-2.2 3.9-8.9 4-11.1s0-4-.8-6c-5-13.4-13.2-26.3-11.1-41.8.6-4.1 3.1-7.8 3-13.1 0-12-4.5-26.5-3.1-38 .9-7.7 9.7-8.4 14.7-11.9 4.5-3.2 9.5-12.3 3-16.2v.2Zm-310.1 166.1c2.7 3 8.5 5.8 12.4 7.1 1 .3 9 2.3 9.5 2.3 11.4.4 8.8-25.9 1.6-28.4-2.9-1-10.2-1.8-13.1-1-6.2 1.8-15.4 14.3-10.4 20m56.1.1c2.7-4.1 3.4-6.2 1.1-10.8-3.4-6.8-13.6-14.1-19.1-5.8-2.3 3.4-1.7 16.4 0 20 3.1 6.8 14.8 1.6 18.1-3.4Z" class="shading" data-original-prefix="shading" opacity=".2"/><path id="outline-head1" class="outline"  fill="#000" d="M947.6 1927.8c-9.8-7.3-7.2-17.6-11.5-27.5-5.1-12-22.7-18-24.1-29.9-.5-4.2 2-16.4-5.1-11-.6.5-6.4 7.5-6.9 8.3-5.7 9.8-8.1 26.4-9 37.8-.2 3.1.6 15.2-.2 16.3-.3.5-3.4 1.2-4.3 1.2-4.3 0-15.6-7.2-19.2-10.4-9.4-8.4-20.4-31.7-24.8-43.8-1-2.6-2.3-15.3-5.3-9.1-1.6 3.2-3.2 10.3-4 14-.9 4 .4 16.4-7.5 10.2-10.1-7.9-22.7-32.8-23.8-45.5-.8-8.8.9-20.4-1.3-28.7-1.1-4.3-10.8-22-10.8-23.3v-16.5c-1.8-.4-2 .5-2.8 1.7-5.3 8.4-8.9 21.7-14 30.9-1.3 2.4-2.7 5.9-5.8 6.3-5 .7-5.1-3.6-7.5-6.2-14-15.6-16-33.4-14.9-54.3.2-3.7 2.2-8.4 2-12 0-.8-2-11.2-2.2-11.9-1.3-3.9-18.1-14-20.5-20.4-2.1-5.6-.7-9.3-1.3-14.7-1.1-9.7-2.8-19.4-3.8-29.1-5.5-6.4-23.8-14.7-25.1-24-1-7.2.2-15.8-1.5-23.4-3-13.3-13.9-25.8-20.6-37.4-.8-6.7 6.5-20.5 8.6-27.5 7.7-25.7 10.1-42.4-.3-67.7-1.6-3.8-5.8-8.6-6.3-12.8s1.7-8.8 2-13c2.1-25.8 1-38.6 11.7-63.3 7.7-17.8 13-17.6 30.1-23.9 1.9-.7 4.5-1.7 6-2.2 8.1-2.7 15.8-6.5 24.7-5 5 .8 6.5 6.5 14.4 5.3 10-1.5 25.5-11.3 36-15.1 15.6-5.7 28.8-7 44.3-10.7 19.5-4.7 33.3-13.3 55.4-14.6 5.6-.3 12.8 1.3 17.6.7 9.7-1.3 35.3-14.4 46.7-18.4 5.2-1.8 16.9-6.2 21.8-6.3 9.6-.3 24.7 11.1 34 14 8-3.1 16.4-7.8 24.5-10.3 2.3-.7 12.8-3.6 14.4-3.5 4.6.3 20.4 6.4 25.6 8.5 7.6 3 26.3 14.3 31.8 15.2 12.6 2.2 31.7 0 45.6 1.4 9.4.9 23.1 11 31.3 11.6 3.1.2 10.8-2.4 14.9-2.7 34.8-2.6 74.1 8.7 101.7 30 2.9 2.2 6.4 8.6 6.9 8.9 1.3.9 4.6-2.9 7.3-2.9s20.1 5.4 21.3 8.6c2 5.3.9 1.9 4.8 5.4 5.4 4.8 13.6 14.7 15.2 21.8 3.2 13.4 0 28.5 2.5 41.5 1.3 6.9 8.2 11.9 9.8 18.2-2.1 8.9-6.2 17.2-7.8 26.2-4.6 26.6 4.1 54.9 12.9 79.7 0 4-5.2 11.5-7.6 14.6-1.3 4.5-4.7 8.4-6.4 12.6-4.1 10.5-1.5 21.4-6.6 31.4-2.2 4.3-21.7 13.4-27.2 15.8-3 1.3-8 4-11 4.1-5.7.2-3.9-8.9-5.4-9.9-.4-.3-6.6.9-7.1 1.6-1.5 2.1-.6 7.1-1 9.8-1.5 9-3.8 18.3-4.8 27.2-.9 7.3.4 18.7-2.2 25.6-1.7 4.6-5.9 7.7-8.9 11.2-1.5 1.8-10.3 11.7-10.5 12.5-1.1 4 .9 16 .6 21.6-.8 15.4-6.3 30-13.7 43.3-7.1 12.9-8.5 4.6-17.2-.6-3.2-2.9-4.5-4.9-4.2-9.7 0-1-2.1-.8-2.5-.6-1.7.7-4.5 20-6.8 24.2-3.2 6.1-16.2 15.8-22.3 19.7-1.7 1.1-13.2 8-14 8-2.6 0-3.2-3.4-3.5-5.5-.6-4.9 2.2-32.4 1-33.5h-3c1 8.8-6.2 15.7-9.8 22.7-7.2 14-4.8 29.7-9.9 43.1-1.8 4.7-4.6 6.5-8.6 9.4-12.1 8.9-27.6 14.8-42.7 14.8.6-10.2 6.2-19 7-29.5.8-10.3 1-26.6-6-34.5-1.7 3.8-.5 7.7-1.1 11.4-.7 4.5-1.3 9.3-2.1 13.9-2.3 14.3-3.9 12.8-13.6 21.6-.6.6-2.2.5-2.9 1.3-12.2 11.6-13.3 24.9-11.3 41.2 1.1 9 9.1 15.4-7.4 13.4-20.4-2.5-34.3-22.2-37.7-41.4-.2-1.3-.4-3.3-1.9-1.5l-5.9 12.8c-3.3 8.9-2.5 24.4 0 33.5l6 20.2c-32 1.4-45.4-22.8-54.3-46.7-.4-1-.5-3.6-2.2-2.7-1.8 1.2-1.4 2.7-1.6 4.4l2.8 47.9-46.1-23.6zm95.2-482.6c-2.3 1.6-11.3 2.7-14.5 6.1-1.4 1.5-6.1 11-6.3 13.2-1.3 9.9-.7 39 1.5 48.6 1 4.3 7.4 19.6 12 20 3.8.3 6.7-3.1 11.2 2.3 5.5 6.8 12.7 24.8 17.9 33.6 1.8 3.1 6.7 8.4 8.7 12.3 3.7 7.3 2.7 14.9 3.9 22 1 5.7 6.6 12.8 8.3 19.7 2.1 8.6 2.3 18.8 7.1 26.9 1.2 2.1 11.8 15.5 14.4 13.1-.8-5.3-7.9-13.3-7.9-18.3 0-11.4 5-26.6 5.9-38.2.6-7.9-1-17.3 0-24.9.7-5.4 5.1-13.2 5.9-18.1 2.5-16.1-1.7-35-6.5-50.4-3.5-11.2-12.7-28.3-14.4-38.6-.4-2.4 0-5 0-7.4l1.5 1c4.4 12.4 12.3 23.3 17.6 35.2s14.1 45.7 13.9 59.3c-.2 10.8-5.5 19.4-6.8 29.3-1.2 9.5-3.9 23.9-4.3 32.8-.7 15.4 9.4 41.1 21.5 50.5 1.9 1.5 5.5 2.9 7.5 4.4 2.3 1.7 4.7 5 7 6.9.6.5 1.4 1.1 2 .6 1.7-1.6 6.8-19.2 9.1-23.2 3.7-6.4 6.1-5.9 7.8-15.4 3-17 5.8-23.6 14.3-38.7 2.2-3.9 11.5-16.3 11.9-19.1.3-2.3.2-6.7 0-9-.9-7-6.4-17.9-6.6-24.2 0-4.9 2.3-11.5 2.7-16.8 1.1-15.8-2.5-33.9-9.1-47.7-4.4-9.1-5.4-9.9-5.9-21.3 0-1.6-.4-14.5 2.9-8.9 1.9 3.2 2.7 7.5 4.2 10.8 6.3 13.6 15.4 26 17.8 41.2 2.3 13.8-.4 28.1 1.2 41.8.9 8.1 5.5 15.5 5.9 24.1.6 11.8-6.6 29.2-3.8 38.8 1.1 3.7 10 11.1 13.8 9.3 1.9-1 3.3-9.6 4.5-12.6 7.8-18.8 19.4-32.8 15.4-55.4-1-6-5.8-13.3-6.7-20.3-3.1-24.6 15.5-34.3 15.7-52.8 0-11.7-3.1-22.5-.9-34.9 1.2-6.5 10-16.7 10.8-23.2 1.4-11.2-3.3-23.5-3.9-34.4 6.4.2 12.8-.4 19.2.3 13.3 1.4 30.8 7.1 43 11 1.6.5 4.6 4.2 3.7-.7-1.2-6.7-5.2-10.2-7.8-15.4-2.3-4.6-6.9-16.9-10.6-19.2-2-1.2-6.5-2.4-9.3-3.7-19.5-8.7-39.5-17.8-61.7-19.3-6.8-.4-13.7.3-20.5 0-.5 4.7 4.3 6.8 7 9.7 1.7 1.9 2.6 2.5 3.6 3.6 1.6 1.6 10.1 10.5 10.3 11.2.4 1.5 0 1.6-1.5 1.5-1.1 0-16.6-6.5-18.2-7.3-3.1-1.7-8.8-7.6-12.2-9.5-6.1-3.6-15.8-6.9-22.3-9.4-11.2-4.2-20.7-7.2-32.8-7.7-2.3 2.1 15.4 14.8 17.6 17.4 2.1 2.4 6 7.6 6.7 10.8.2 1 1.7 2.4-.8 1.8-3.8-.9-5.8-5.5-8.3-6.9-8.6-4.9-22.1-7.9-31.5-12.2-14.8-6.7-27.8-16.7-43.4-23.6-8.1-3.6-19.8-10.7-28.5-9s-23.5 10.4-28.8 17.2c-.9 1.2-2.7 6.5-3.6 6.6-3.3.3-3.1-2.9-4.4-4.5-3.4-4.2-7.9-7.5-12.4-10.1-6.7-4-19.3-10.5-26.9-9.2-14.8 2.7-50.3 22.3-63.5 31.4-11.1 7.6-19.2 17.1-28.3 26.8-.2.3-2.6 5.4-3 2-.3-2.2 1.7-6 2.8-8.2 3.4-6.7 10.2-16.1 14.7-22.3 1.4-2 6.1-2.9 4-7-6.2 1.8-12.8.3-18.8 1.2-24.2 4-54.8 20.1-67 41-.9 1.5-5.7 10.7-6 11.9-3.5 15.3 5.1 20.7 5.4 33.3 0 6.6-4.2 14.6-5 21.1-1.8 15.7 4 27.1 11.5 39.8.7 1.2 6.6 13.4 9.4 10.6 0-2.4-.2-4.8.2-7.3 3.4-17.1 10.8-31 20.5-44.5 1.8-2.4 3.8-5.6 6.2-7.2 0 1.8.2 3.6-.2 5.3-2.4 10.2-8.9 22.7-11.5 33.5-6.7 27.8-3.2 71.7 4 99.5 4.4 17.3 6.8 19.5 19.5 30.7 9.5 8.4 23.5 16.4 30.9 26.4 2.3 3.1 1.4 11.5 5.1 16.5 5.6-14.3 15.2-30.7 11.1-52.2-2.2-11.4-7-22.3-7.9-35.1-2.5-36.6 11-50.6 25.5-80.5 2.4-5 4-11.3 6.3-15.7.5-1 2.2-3.4 3.2-2.3.8.9-3.2 10.6-3.8 12.7-6.8 27.6-23.5 68.1-16.9 95.5 1.2 5.1 4.6 11.2 5.7 16.3 3.1 14.7 7.4 39.2 9 54.1.8 7.9 0 11.8 1.9 20.1.5 1.9 0 5.6 1.8 9.1.3.6 8.8-10.3 10-11.8 3.6-4.4 8.8-12.3 10.2-17.8 4-15.8 3-34.4 6.3-49.7 1.8-8.5 6.2-22.6 9-31.1 2.1-6.3 13.1-31.6 19.5-32.3 2.5-.3 10.1 2.7 11.2-.9.7-2.2 1.9-11.9 2.1-14.9 1.7-18.7 3.3-46.7-7.3-62.6-3.8-5.7-9.8-5.2-14.9-7.9s-9.1-6.8-12.6-8.6c-2-1-6-2.9-8-3.2-5-.5-15 7.3-17.1 5.7-.4-.3-.4-2.4-1.1-3.2-5.4-6.4-8.4-12.4-17-15.2-2.9-.9-13.1-1.9-14.8-3.8-.5-.5-.5-2.2-1.3-3.2-4.2-5.4-10.4-10.9-5-18.1 6.5-8.7 25.5-21.6 35.3-26.6 5.9-3 23.8-11.3 29.5-12.6 13.9-3.2 27.1 9.7 35.2 19.5 2.1 2.5 4.4 8.8 7.5 8.2 4.8-6.9 11.5-16.8 18.6-21.5 4.4-2.8 13.1-7.5 18.1-6.3s22.6 9.9 28.1 12.9c7.3 3.9 19.6 11.5 25.3 17.2.9.9 8.5 10 8.8 10.7 3.3 7.2-5.2 20.6-12.4 22.5-6.1 1.6-9.2.4-15.8 4.1-2.2 1.3-4.7 5.1-5.6 5.9-1.5 1.4-8.8 9-9.5 9.3-6.9 2.8-7.5-2.7-13.4-4.2-8.8-2.3-11.3 1.4-16.6 6.3l-3.5 3.2h.6ZM798 1723v27.5c0 2.6 5.5 9.7 6.7 13.3 2.7 7.8 2.2 17.4 4.6 25.4 4.8 16 8.5 14.7 8.7 34.2 0 10.5-1.9 22.8 4.6 31.5l7.4-14.6c5.7-13.1 13.2-35.8 12.1-49.9-.4-5.4-3.5-14.7-2.8-19.8.2-1.8 8.4-15.5 9.8-16.2.8-.4 2.6-.8 3-.5.3.2 1.8 5.8 2 6.6 1.3 8.6 4.5 23.9 4.1 32-.6 11.4-6.5 24.6-7.8 36.2s8.5 41.7 13.4 53.1c2.7 6.3 4.9 8.5 9 13.5 1 1.3.4 3.5 3.3 4.2 1.1.2 2-.6 2-1v-19c0-2 6.7-17 8.2-19.8 5-9 14.9-16.9 19-25s4-18.5 7.6-26.4c.6-1.3 8.6-14.1 10.2-12.3 1 18.1-2.7 37.6-1 55.5.2 2.6 2.2 10.5 3.1 12.7 2.7 6 18.6 16 21.6 21.6 4.2 7.7 4 16.7 6.4 24.6 2.1 7.1 1.6 7.5 7.3 10.7.9.5 5 3 5.8 3.4 3.2 1.7 8 5.2 12 7.8l-2.2-24.9c0-10.8 9-24.9 10-37 .7-9.1-1.6-18-2-26.9-.7-16.7.8-33.5 5-49.6 3.2-.7 1.5 2.1 2.5 3.9 7.8 13.5 4.4 16.2 5.4 30.6.7 10 4.8 16.3 7 25.1 5.2 21.4.9 47.1 15.1 65.2 1 1.2 6 9.6 7.9 3.6 1.5-4.7 0-17.9 1.4-24.6 1.1-5 5.4-14.1 7.5-19.5 2.7-6.9 7.9-16.6 10.5-23.5 4.4-11.8 7.5-21.4 6.8-34.2 0-2.5-3.1-12.1-.9-13.5.6-.4 2.3-.3 3 .6 2.3 2.9 5.5 11.4 7.6 15.2 1.4 2.6 5.8 7.9 6.2 9.9 1 5.1-4.2 17.4-4.8 23.8-1 11.7-.6 28.2 5.5 38.4 1.7 2.8 7 9.3 10.4 9.1v-14.5c0-15.9 13.2-25.1 23-34.1 10.6-9.8 6.7-13.5 8.1-25.8 1.4-12.5 6.4-19.1 4.8-34-.5-4.8-3.7-11.7-3.8-16.2 0-2.8 1.5-14.7 5.8-12.3 1 .6 4.1 11.8 5.2 14.2 8 16.9 23.9 40 24 59.1 0 8.9-3.5 18.4-4.1 27 0 1.6-.2 1.7 1.5 1.5 4.3-4 18.8-11.5 20-16.9 1-4.3.8-9.5 1.8-14.2 4.3-20.1 14.9-33.2 19.4-52.6 3-13.1 2.2-22.1.3-35.2 5.1 0 6.4 4.4 10 7.5 4.3 3.8 13.7 10.1 15.5 15.5 1.6 4.6 2.2 20.6 2.5 26.5.3 4.5-.2 9 0 13.5l6.4-6.1c8-11.3 6.4-16.7 8.9-29.1 3.2-15.9 6.8-22 2.6-39.2-.7-2.9-6.9-14 3.3-8.6 8.9 4.8 11.6 25.3 15.3 33.9 2.2 5.2 6.8 9.8 9 15 4.4-2.9 3.3-8.4 4.6-12.2.3-.8 1.7-.6 1.9-1.5 4.4-15.4 1.8-16.8 0-30.8-.5-4.1.2-8.6 0-12.7 2.9-2 4-5.3 6.4-7.8 3-3 13.4-9.8 14.7-13.3 4.4-12.3 2.3-30.3 5.7-43.2-4.1-.9.4-11 1.8-14.2.6-1.3 2.1-1.2 2.6-2.5.6-1.4.3-3.7.9-4.6.2-.3 5.2-2.7 6.7-3.8 3.3-2.6 17.1-16.8 21.2-10.7 2.1 3.2-2.8 11 2.4 11.4 3.9.3 16.3-9.3 20.3-11.3 1.4-12.7 3.2-23 9-34.5 4.4-8.6 9.5-9.4 6.1-20.8-4.4-14.7-10.7-37.7-11-53.1-.2-13.2 7.4-32.8 6.9-44-.3-7.4-8.7-19.1-9.8-28.1-1.3-11.6 3.1-25.2-1-36-3.9-10.1-11.3-13.7-20.3-18.5-.5-.3-.7-1.4-1.1-1.6-1.4-.7-5.2-1.7-6.7-.8 9.8 14.4 15 39.4 4.4 54.4-3.3 4.6-18.6 17.7-19.4 21.6-.6 3-.3 11.6 0 14.9s2.6 7.3 2.7 10.1c.3 8.4-4.4 17.3-2.8 28 1.4 9.3 12.8 24.4 13 33.1 0 3.7-3.1 15.7-4.4 19.7-.9 2.9-4.2 12.2-5.8 14.2-3.3 4.1-8.2 1.7-10.6 3.9-1.3 1.2-4 9.7-6 12.5-4.7 6.8-11.1 7.9-17.6 11.3-9.7 5-25.5 15-35.3 17.7-1.9.5-3.3 1-3.3-1.3 0-4.3 3.4-6.1 4-10 .7-4.3.6-11.6-1.4-15.4-5.3 6.9-17.9 39.7-25.2 41.8-5.6 1.7-7.8-3.1-12.4-5.2-12.6-5.7-13.8-1.1-9.9-19.1l-2-.5c-2.7 7.9-8.7 15.3-11.3 23.2-2.5 7.6-.8 13.9-3.8 21.2-1.7 4.1-6.5 8-8.3 11.7-4.4 8.9-6.4 17.4-13.6 25.4-3.2 3.6-3.1-.5-6.1-2.9-9-7.2-18.7-9.5-26.9-19.1-1.9-2.2-1.8-6.7-6.4-6.5-3.3.2-4.9 2.5-9.8 1.8-25.4-3.6-23.7-38.2-34.9-54.1-8.5-12.1-21.4-3.6-32.3-3.6s-16.2.4-26 1c-8 .5-14.3-2.5-21.9 2.1-5.5 3.3-10.1 13.7-11.2 19.8-2.5 14.3-1.5 16-11 29.9-1.7 2.4-4.1 4.6-6.1 6.5-6.4 6-17.8 17.6-19.8 17.8s-4.8-4.2-7.7-13.2c-4-12.5-2.2-19.7-5-31.4-3.1-13.1-4.8-1.2-6.7 3.1-.9 2-3.1 6.6-4.5 8-1.2 1.1-5.3 5.2-7.9 10-1-.2-9.2-10.2-9.8-11.1-1.5-2.1-3.1-7.9-5-10.8-4.2-6.6-13.1-10.7-19.2-15.8-9-7.6-27.9-23.6-31.8-34.5-6.9-19.3-6.7-46.5-12.5-66.4-3.1-10.4-9.6-10.4-12.9-17.1-4.3-8.9-16.4-35.3-16.5-43.6-.3-13.6 3.6-30.5 2-43.9-1-8.2-8.4-13.7-5.8-24.8 1.3-5.8 12.7-22.8 16.8-27.9 4.5-5.6 11.7-9.8 16-15.8l-31.6 9.8c-8.5 3.9-19.4 6-28 11.6-4 2.6-18.3 18.3-19.9 22.7-.8 2.3.7 3.9.4 6.2-.4 2.5-3.9 7.7-4.7 11.4-3.5 14.3 1.9 14 7.8 24.2 1.8 3.1 8.6 15.2 9 17.7 2.6 16.5-5.2 36-4 53 .7 9.4 6.9 20.5 7.1 28 .3 14.7-5.7 25.4-.7 41.6 2.9 9.3 13.8 19.8 14.7 28.3.7 6.7-6-2.7-7.4-4.1-4.8-4.6-11.3-10.7-15.6-16.1-13.2-16.7-3.6-26-6.1-43.6-1.3-9.1-7.1-18.9-7-29.1 0-7.1 3.1-16.3 4-23 1.7-12.6 4.9-25.7-.5-37.3-3.6-7.7-13.9-19.2-16.6-26.4-3.1-8.2 2.4-16.8 2.5-25l13.3-26.8-.6-4c-6.2 1.8-12.7 2.8-18.8 4.7-6.2 1.9-14.1 4.8-19 8.3-.9.6-2.2.5-3 1.3-.4.4-5.8 9.8-6 10.4-4.2 11.3-4 27.7-5.3 39.7-.5 4.2-2.6 9.3-2.9 14.1-.8 13.6 3.8 19.4 7.7 31.3.8 2.3 2 5.3 2.4 6.6 6.3 21.2-1.2 47.1-7.5 67.8-.8 2.5-2.9 4.7-3.6 7.5-3 11 10.9 24.6 14.6 35.2 3.2 9 2.7 28.5 7.7 33.8 1.3 1.4 7.9 6.6 9.6 5.3 1.9-1.5 2.6-19.9 3.1-23.4.5-3.3 5.8-.9 7.3.5 2.6 2.3 7.6 11.1 9.9 14.4.8 1.2 2.7 1.6 3.2 2.8l4.7 18.8c-1.2 1.2-7.5-3.7-9.2-4.3l-7.8-6.7c-.4 8.5 3.3 17.1 4 25.5.8 9.5-1.9 20.8 2.6 29.4 2.5 4.8 11.2 9.6 15.4 13.6 5.2 4.8 5.8 7.7 6 15 .2 4.8-1.1 8.7-1.1 13 0 6.1 1.5 46.9 4.1 48.5 3.4 2.1 5-6.6 6.2-9.2 1.5-3.1 3.5-5.9 4.9-9.1 5.7-13.1 8.1-29.1 16.5-39.6 1.6-2 5-4.7 7.3-6.1zm505.4-279.6c11.8-10.6 12.9-24.8-4.2-30.1-7.1-2.2-23.7-5.1-30.5-3.1-7 2-3.6 12.8-3.6 17.3 0 12.2-8.8 24.3-10.1 36-.8 7.6 1.4 11.7 2 18 1.6 15.7-7.3 25.4-11.5 39.5-5.7 19.2 2.3 32.9 5.4 51.6.4 2.3-.2 4.7 0 6.9 1.3 9.2 3.9 18.1 3 27.5l23.5-12c11-12.8 23.7-22.5 25.4-40.6 1.8-19.6-12.4-33.7-10.8-51.8.5-5.3 3.9-14.7 3.9-19.1s-1.8-13.9-2.3-16.8c-.6-3.5-5-10-4.8-12.2.3-3.6 9.5-6.6 12.4-8.7 1-.7 1.3-1.8 2-2.4Zm-286.7 119c-6.6-7.1-18.2-5.6-24.7 1.1-4.4 4.6-8.1 16-9 22.1-.5 3.7.7 6.9 3.5 9.4 5 4.6 27.6 10.9 33 6 2.8-2.6 3.5-16.8 2.9-20.8-.3-1.9-4.6-16.6-5.8-17.8Zm29.9-2c-7.5-4.7-18.3-2.9-20.4 6.3-1.8 7.8-2 33.3 8.5 35.1 1.4.2 6-.5 7.5-.9.3 0 5.1-1.8 6-2.2 6.9-2.7 11.2-5.1 9.7-13.2-.2-1.3-.6-3.2-.8-4.2-1.4-5.8-5.2-17.5-10.5-20.9m-130.9 96.3c-1.2 1.1-6.2 10-8.8 14.8-3.3-4.4-8.3-15.1-8.9-16" class="outline" data-original-prefix="outline"/><path id="outline-head2" class="outline"  fill="#000" d="M794.8 1553.3c2.1 1.6 3.2 8.4 4.3 10.7 3.2 7.3 5.9 13.1 10.9 18.2 12.8 13.4 13.8 15 18.3 33 1.5 4.1 2.7 9.5 6.6 12 2.8 1.2 4.6 3.3 6.8 5.5 2.1 1.8 4.8 2.9 6.7 4.8 1.8 1.5 5.1 26.1 4.3 23.7-3.1-9.2-8.8-16.9-10.7-17.3-3.4-.9-5.9-2.4-9.4-4-3.5-1.8-6.8-3.3-9.6-5.6-9.5-8.6-6.3-21.4-18.7-29.4-2.5-1.7-5.3-2.2-6 1.3-1.1 4.9.7 9.3 2.5 13.9 1.2 3.1 10 21 7.7 19.2-9.2-7-24.2-30-22.1-39.1.8-3.4 2.6-6.4 3.9-9.6.5-1.1.9-2.2 1.1-3.3 2.5-8.8 4.4-19.7-.5-28.1-2.2-3.8 1.4-24.1 3.1-23.5l.9 17.6Z" class="outline" data-original-prefix="outline"/><path id="outline-head3" class="outline"  fill="#000" d="M1032 1652c.4.5 2.7 11.2 2.9 12.6 2.2 21.7-12.5 32.1-21.3 49.5-1.2 2.4-4.2 12.4-4.7 12.8-.4.3-2.5 0-3.2 0-2.2-.8-13.7-12.6-15.2-14.8-5.1-7.6-13.2-32.6-14.3-41.7-.3-2.4-1-7.2 3.1-6.1 2.9.8 6.5 10.1 7.8 13 4.3 9.6 5.7 18.3 12.2 29 10.2 16.6 6.9 6.1 11.2-4 3.9-9.2 15.9-18.3 17.3-27.7 1.1-7.1-1.4-13.8 2-21 .4-.8.6-3.3 2.1-1.4Z" class="outline" data-original-prefix="outline"/></g></svg>