<?xml version="1.0" encoding="UTF-8"?>
<?xml-stylesheet type="text/css" href="styles/collection.css"?>
<svg xmlns="http://www.w3.org/2000/svg" viewBox="0 0 2048 2048"><g id="01_background" data-trait="red"><path id="bg" d="M2048,4.5c-.1,679.6-.1,1359.2,0,2038.8,0,3.8-.8,4.6-4.6,4.6-679.6-.1-1359.2-.1-2038.8,0-3.8,0-4.6-.8-4.6-4.6C.2,1362.3.1,681.2.1,0h2043.3c3.8,0,4.6.8,4.6,4.6h0v-.1Z" style="fill: #af6e6e;"/></g><g id="02_Jaw" data-trait="doom-raider-mask"><path id="fill-jaw-main" class="fill"  fill="#fff" d="m637.2 1237.2 8.7-.3c13.5-36.6 25-74.9 39.3-111.1 40.9-102.9 149.2-171.1 251.8-201.2 96.8-28.5 178.1-7.9 265 37 60.9 31.4 126.9 87.1 155.2 150.8 8.4 18.9 7.3 37.3 13.6 53.4 7.2 18.6 28.3 46.1 38.7 65.3 15.6 28.9 30.5 61.7 44.3 91.7 1.6 3.4 9.1 18.6 8.9 20.7-26.3 40.9-55.4 79.9-82.8 120.1-25.7 22.3-52.4 43.6-77.4 66.6-10 22.3-16.2 46.5-26.5 68.5-40.4 24.2-79.2 55.9-120 79-37.8 21.3-82.4 35.7-121 56l-20.5.4-115.6-51.4c-45.5-28.4-92.8-54.2-138-83l-27.6-71.4-61.4-52.6-83.8-134.3c-.6-1.5 0-2.8.2-4.3 1.6-6.1 8.7-18.8 11.7-25.3 11.6-25.2 25.5-49.3 37-74.5h.2Z" class="fill" data-original-prefix="fill"/><path id="fill-jaw5" class="fill"  fill="#fff" d="M1353 1472c.3 1.4.2 1.3-.6 2.1-2.5 2.4-7.8 5.4-10.8 7.9-10.1 8.4-42.1 34.1-47.4 43.6-10.7 19.7-16.2 47.3-25.4 68.1l-39.1 20.4-58.7 38.8c20.2-48.3 28.3-100.5 36-152 1.4-1.4 10.5 6 16 3.5 25.4-22.1 55.1-38.7 85.8-52.3 15.6 3.6 29.6 13.3 44.2 19.9" class="fill" data-original-prefix="fill"/><path id="fill-jaw4" class="fill"  fill="#fff" d="M1337 1303c17.3-4.2 26.8-13.8 38-26.5 10.3-11.7 19.5-24.5 29.5-36.5 15.8 21.7 28.9 48.5 38.3 73.7 2.3 6.1 7.3 19.2 8.1 25 .2 1.9 0 2.2-.7 3.8-2.5 5.3-11.1 14.5-14.9 20.1-9.7 14-20.1 28.6-29 43-9 14.6-18.7 37.6-28.8 50.2-3 3.8-10.2 4.3-11.3.4-.6-2.2 13.9-36.1 15.9-41.8 1.7-4.7 8.4-21.2 7.8-24.8-.8-4.6-9.6-20.7-12.3-25.8-9-16.6-20.8-33.7-32.1-48.9-1.3-1.7-9.7-10.6-8.4-12.1v.2Z" class="fill" data-original-prefix="fill"/><path id="fill-jaw3" class="fill"  fill="#fff" d="M711 1303c.7.8-1.9 4-2.6 4.9-11.5 16.1-23.2 30.5-33.2 47.8-3.8 6.6-16 27.9-17 34.1-.6 3.6 7.9 25.6 9.8 30.8 4.4 12 10 23.8 13.9 35.8-6.4 5.8-9.5 2.2-13.3-3.4-10.5-15.6-19.1-34.6-29.2-50.8-8.2-13.2-17.8-26.6-26.6-39.4-3.9-5.6-12.4-14.8-14.9-20.1-.8-1.6-1-1.9-.7-3.8.8-6.2 5.7-18.7 8.1-25 9.6-25.7 22.5-50.4 36.8-73.8l2.4 1.1c9 11.5 17.9 23.4 27.6 34.4 11.3 12.9 21.3 23.6 39 27.5Z" class="fill" data-original-prefix="fill"/><path id="fill-jaw2" class="fill"  fill="#fff" d="M841 1501c7.2 51.6 16.2 103.4 35.5 152-31.8-20.5-62-43.8-97-59l-26-69c-16-16.8-34-32.2-52-47-2.1-1.7-8-4.2-5.8-6.1 2-1.8 13.4-7.5 16.7-9.1 4.1-2.1 22.8-10.9 25.9-10.6 31.6 12.9 62 30.9 87.8 53.3 3 2 13.5-6.1 15-4.5z" class="fill" data-original-prefix="fill"/><path id="fill-jaw1" class="fill"  fill="#fff" d="M846 1457c-9.4 1.7-24.2 21.3-32.4 21.1-3.7 0-14.6-4.8-18.5-6.6-11.7-5.2-24.9-13.3-36-20.1-5.3-3.2-20.9-15.6-25.7-16.4-3-.5-12.8 1.8-16 2.9-4.2 1.4-26.5 13.6-28.4 12-2.2-17.5-17.1-36.8-12.1-54.5 4.5-16.1 33.4-52.4 45.5-65.5 2.4-2.6 13.9-14.7 16.1-15 1.6-.3 3 .2 4.5.5 12.5 2.5 27.7 8.8 40.7 12.3 27.9 7.4 55.9 13.4 84.6 16.9 22.7-11.5 45.5-22.8 69-32.8 48.7-20.8 80.7-34.3 134.2-15.8 36.9 12.8 73.1 31.7 108.1 48.7 44-5.4 86.9-16.7 128.9-30.3 4.5.4 28.7 29.4 32.9 34.7 9.2 11.7 19.5 25.6 26.1 38.9 4.6 9.2 6 13.9 3.4 24.5l-13.4 38.5c-8.4-3.8-18.3-10.2-27-13-2.9-1-13.4-3.3-16-2.9-4.8.8-25.2 16.2-31.3 19.8-10.7 6.4-24.5 14.6-36 19-3.2 1.2-10.8 4.4-13.8 4.3-6.3-.2-20.6-16.3-28.1-19.9-1-.5-2.2-1.8-3.3-.7-8.5 54.2-15.6 108.7-31.7 161.3-2.8 9.2-8.5 29.8-12.8 37.2-2.3 3.9-32.3 32.9-36.5 35.5-11.1 6.6-43 19.6-55.9 24.1-8.3 2.9-32.6 9.3-40.6 9.4-7.2 0-32.2-6.3-39.9-8.9-12.8-4.2-53.9-21.4-63-29-5.2-4.3-28.6-27.1-31.3-31.7-3.1-5.3-7.2-19.9-9.4-26.6-18.3-55.7-26-113.9-34.8-171.8Z" class="fill" data-original-prefix="fill"/><path id="outline-shading-jaw1" class="outline"  fill="#000" d="M1278 1304c.5 1.8 5.6-.4 6.8-.8 16.4-4.8 50.7-16.4 63.7-26.3 12.3-9.2 23.4-45.9 32.7-60.3 2.3-3.5 4.1-6.2 8.8-6.7 0 1.4 0 2.8-.2 4.3-1.8 8.2-7.7 21.7-11 30s-14.4 36.4-19.8 41.2c-3.5 3.1-22.8 10-19.5 16.5 1.1 2.2 11.8 12.2 14.5 15.6 10.3 12.7 18.4 26.9 27.7 40.4 25.3-5.7 50.8-12.9 73.8-24.9l1.1 4-73.1 127.9c-18.1 13.1-38.3 23.5-55.9 37.1l-50 98c-26.9 17.7-58.7 32.4-84.5 51.5-17.4 12.9-36.6 35-54.2 45.8-20.2 12.5-48.9 21.8-70.4 32.6l-92.5-.5c-20.4-12.1-46.2-19.8-66.3-31.7-19-11.3-39.6-35.5-59-49.1-25-17.6-54.1-32.4-80.5-48l-49.8-98.7c-17.4-13.3-37.2-23.2-54.4-36.6l-76-128 2.4-4.4c23.1 11.8 48.5 19.2 73.8 24.8 10.5-16.1 20.6-32.3 33.2-46.9 2.8-3.2 9-6.9 8.3-11.2-1.4-8.8-16.4-9.6-22-18.1-7.5-11.3-17.8-38.9-22.5-52.4-1-2.8-6.5-17.8-5.2-19.2 6.4.5 9.4 8.2 12.2 13.3 5.9 11.2 10.3 23.4 16.3 34.7 2.4 4.6 7.8 14.9 11.3 18 4.7 4 18.1 9.8 24.3 12.4 14.5 6.2 29.8 11.2 45 15.5-16.4-12.2-34.8-21.6-50-35.5-18.3-16.7-19.6-34.6-30.5-55.5-5.2-10.1-12.3-19.1-18.3-28.7-1.8-6.8 5.4-21.6 6.5-29 2.8-19.1 3.8-27.8 12.1-45.9 42.8-94 156.1-156.3 251.2-184.8 55.5-16.7 109-17.9 165-2 99 28.1 225.1 96.5 262.8 198.2 5.1 13.9 5.1 20.8 7.5 34.5 1.2 7.1 7.8 22.1 6.7 28.2-.6 3.4-14.5 22.1-17.5 27.5-11.3 21-13 40.9-31.5 57.5-15.3 13.8-35 25.6-53 35.5v.2Zm-200 23c-5.5-11.1-10.5-24.8-17.6-34.9-4.2-6.1-10.2-10.5-14.9-16.1-3.4-4-15.2-20.5-18.4-21.6-1.9-.6-4.4-.8-6.3-.2-2.4.7-15.7 18.7-18.7 22.3s-7.4 6.8-10.5 10.5c-9.4 11.2-15.1 26.9-21.5 40h108Zm-309.5-23v1c.7-.3.7-.7 0-1m68.5 40c-31.5-5.4-62.3-14.5-92.5-25-4.9-1.7-27.1-11.3-30-11s-12 13.5-14.3 16.7c-3.2 4.4-25.2 35.5-25.2 37.8s9.4 13.2 10.2 17.3c32.5 5.7 63.8 16 95.1 26 4.2-.8 6.5-2.9 9.2-5.8 9.8-10.1 18.8-24.6 28.5-35.5 4.9-5.5 14.2-12.6 18-18 .6-.8 1.4-1 1-2.5m525.8 35.8c.4-4.4 10.8-15.1 10.1-18.1-5.5-6.9-33.4-52.2-38.6-53.6-1.1-.3-2.2 0-3.3.3-38.7 15.6-78.8 28.3-119.9 35.6-.4 1.5.4 1.7 1 2.5 4.5 6.6 16.4 16.4 22.5 23.5 7.8 9 15.1 20.7 23 29 3 3.2 5.7 6 10.3 6.8 31.2-10.1 62.6-20.3 95.1-26zM720 1472c-.4 1.7.5 2 1.5 3 9 8.8 25.2 15.4 33.5 25.5s18.5 37.1 27.1 44.9c3 2.7 10.5 6 14.5 8.6 13.2 8.8 26.3 18.2 39.5 26.6l3.8-5.9-28.3-64.7c-11-6.6-68.3-43.6-76.8-42.8-1.4 0-14.3 4.2-14.8 4.8m608 0c-5.2-.6-13.1-5.9-18-4.6-24.8 13.7-50.3 26.3-73.5 42.6l-27.8 63.3c-1.3 2.2 2.5 8.4 5 7 9.7-7.4 19.7-14.5 29.8-21.3 5.5-3.7 18.6-10 22.5-13.5 8.1-7.4 18.5-33.8 26.1-43.9 7.6-10.3 25.5-17.8 34.5-26.5 1-.9 1.9-1.3 1.5-3Zm-194 173c-2.1-.2-3.8 0-5.7.8-24.5 9.4-50.2 38.1-77.1 42.9-17.9 3.2-50.3 3.7-67.2-3.2-20-8.2-44-31.6-64.3-39.7-1.5-.6-6.2-2.2-5.7.7 1.2 7.7 10.9 21 16 27 6.2 7.3 8.1 8.8 16.3 13.7 30.2 18.1 49.5 27.8 86.2 25.9 21.1-1.1 31-5.5 49.1-14.9 19.5-10.1 34-17.7 45.7-37.3 1.2-2 7.5-15 6.6-15.9z" class="shading" data-original-prefix="shading" opacity=".2"/><path id="outline-jaw1" class="outline"  fill="#000" d="M685 1126c.2 0 1 1.5 2.2 2.2 4.7 2.7 8.7.5 9.7 8.4.6 5.1-2.7 26.3-4.4 31.4-2.8 8.6-17 13.5-21 21-1.2 2.3-7.8 31.1-7.5 33.3.4 3.4 9.5 19 11.8 23.3 4.4 8.2 15.3 29.4 20.7 35.3 9.5 10.3 60.5 26.3 75.9 31.1 29.2 9 59.3 17.4 90 18 29.3-10.7 57.9-23.1 87.2-33.8 16.6-6 42.9-17.7 59.8-17.3 21.9.5 35-1 56.2 5.8 39.5 12.7 77.8 29.4 116.4 44.6 46.7-.8 99.9-16.6 143.1-34.6 5.7-2.4 21.2-9 25.2-12.8 4.6-4.5 15-24.5 18.7-31.3 2.7-4.9 14.7-25.5 14.9-29.2 0-1.7-6.8-30.9-7.6-32.4-3.6-6.8-19-13.6-21.2-20.8-1.7-5.6-5-27.5-4.2-32.7 1-6.5 5.7-5.1 9.7-7.3 1.2-.7 2.1-2.1 2.2-2.2 2.3-1.2 6.9-4.1 9.1-2.6 2.4 1.7.2 26 1.4 30.6 6.9 5 22.7 5.9 26 14 1.1 9.9.5 20.6 1.6 30.4.3 2.9 1 10.8 2.2 12.8 1 1.8 3.1 2.2 4.3 3.7 26.6 31.1 46.5 67.2 61.9 105.1 2.3 5.6 7.6 17.3 8.3 22.7.2 1.4.3 2.7-.6 3.9-24.7 33.2-47.1 68.3-68 104-2.9 4.9-18.6 36-20.4 37.1-3.5 2-13.7-4.6-17.5-3.1-10.9 9.5-22.5 18.2-33.3 27.8-4.6 4-16.5 13.5-19.4 17.6-5 7.1-14.8 34.1-18.3 43.7-4.2 11.1-7.7 22.4-11.3 33.7-32.1 13.9-63.4 31.2-92.5 50.5-20.4 13.5-36.7 25.2-52.5 43.5-9.8 11.4-37.1 18.8-51.9 25.1-22.8 9.6-45.2 20.4-68.5 28.3l-111.2-45.6c-6.9-2.5-9.5-12.1-13.6-15.9-1-.9-2.9-1.1-4.2-2.3-38-35.4-88.6-61.7-135.5-83.5-7.9-26.5-18.8-52-29.6-77.4-17.4-15.7-35.2-31-53.5-45.5-3.5-1.2-13.5 6.1-17.5 2.5-26.4-48.4-54.7-96.1-87.7-140.3-.8-1.3-.8-2.5-.6-3.9.7-5.4 6.1-17.1 8.3-22.7 14-34.4 31.7-67.2 54.5-96.5 8.8-11.4 12.5-9.5 14-26 .9-9.8 0-20.6 1.5-30.5 4.2-7.9 25.3-7.7 26.5-16.5.5-3.9-1.1-7.1-1-10.1 0-5.3 2-11.7 1-17.5 3.8-.6 6.8 1.5 10 3h.2Zm26 177c-17.7-4-27.7-14.6-39-27.5-9.7-11-18.5-22.9-27.6-34.4l-2.4-1.1c-14.2 23.4-27.2 48-36.8 73.8-2.4 6.3-7.3 18.9-8.1 25-.2 1.9 0 2.2.7 3.8 2.5 5.3 11 14.5 14.9 20.1 8.8 12.8 18.4 26.2 26.6 39.4 10.1 16.2 18.6 35.2 29.2 50.8 3.8 5.6 6.9 9.3 13.3 3.4-3.9-12-9.5-23.8-13.9-35.8-1.9-5.2-10.4-27.1-9.8-30.8 1-6.2 13.2-27.5 17-34.1 10-17.3 21.8-31.7 33.2-47.8.7-.9 3.3-4.1 2.6-4.9Zm626 0c-1.3 1.4 7.1 10.4 8.4 12.1 11.3 15.2 23.1 32.3 32.1 48.9 2.8 5.1 11.5 21.2 12.3 25.8.6 3.5-6.1 20.1-7.8 24.8-2 5.7-16.5 39.7-15.9 41.8 1.1 3.9 8.3 3.4 11.3-.4 10.1-12.7 19.7-35.6 28.8-50.2 8.9-14.4 19.3-29 29-43 3.9-5.6 12.4-14.8 14.9-20.1.8-1.6 1-1.9.7-3.8-.8-5.8-5.8-19-8.1-25-9.4-25.2-22.5-52-38.3-73.7-10 12-19.2 24.7-29.5 36.5-11.2 12.7-20.7 22.3-38 26.5v-.2Zm-491 154c8.7 57.8 16.5 116.1 34.8 171.8 2.2 6.6 6.3 21.3 9.4 26.6 2.7 4.6 26.2 27.4 31.3 31.7 9.1 7.6 50.2 24.8 63 29 7.7 2.6 32.8 9 39.9 8.9 8-.2 32.3-6.6 40.6-9.4 12.9-4.5 44.9-17.4 55.9-24.1 4.2-2.5 34.2-31.6 36.5-35.5 4.4-7.4 10-28 12.8-37.2 16.2-52.6 23.2-107.1 31.7-161.3 1.1-1.1 2.3.2 3.3.7 7.5 3.5 21.8 19.7 28.1 19.9 3 0 10.6-3.1 13.8-4.3 11.5-4.4 25.3-12.6 36-19 6.1-3.6 26.4-19.1 31.3-19.8 2.6-.4 13 2 16 2.9 8.6 2.8 18.6 9.2 27 13l13.4-38.5c2.5-10.5 1.2-15.2-3.4-24.5-6.6-13.3-16.9-27.2-26.1-38.9-4.2-5.3-28.4-34.3-32.9-34.7-42 13.6-84.9 24.9-128.9 30.3-35-17-71.2-35.9-108.1-48.7-53.5-18.5-85.5-4.9-134.2 15.8-23.5 10-46.2 21.3-69 32.8-28.7-3.5-56.7-9.6-84.6-16.9-13-3.4-28.2-9.8-40.7-12.3-1.5-.3-2.9-.7-4.5-.5-2.1.3-13.7 12.4-16.1 15-12.1 13-41 49.3-45.5 65.5-5 17.8 9.9 37 12.1 54.5 1.9 1.6 24.2-10.6 28.4-12 3.2-1.1 13-3.4 16-2.9 4.8.8 20.3 13.2 25.7 16.4 11 6.7 24.3 14.8 36 20.1 3.9 1.8 14.8 6.5 18.5 6.6 8.2.2 23-19.4 32.4-21.1Zm-5 44c-1.5-1.6-11.9 6.6-15 4.5-25.7-22.4-56.2-40.4-87.8-53.3-3.1-.3-21.8 8.5-25.9 10.6-3.3 1.6-14.7 7.3-16.7 9.1-2.1 1.9 3.8 4.4 5.8 6.1 18 14.8 36 30.2 52 47l26 69c35 15.1 65.2 38.4 97 59-19.3-48.5-28.3-100.3-35.5-152zm512-29c-14.7-6.6-28.6-16.2-44.2-19.9-30.7 13.7-60.4 30.3-85.8 52.3-5.5 2.5-14.6-4.9-16-3.5-7.7 51.5-15.8 103.7-36 152l58.7-38.8 39.1-20.4c9.2-20.8 14.7-48.4 25.4-68.1 5.2-9.6 37.2-35.2 47.4-43.6 3.1-2.6 8.3-5.6 10.8-7.9.8-.8.9-.7.6-2.1" class="outline" data-original-prefix="outline"/></g><g id="03_Mouth" data-trait="jaws"><path id="fill-mouth-main" class="fill"  fill="#fff" d="M1102 1287c.4.6-2.2 4.3 0 5.5 50.4 27.6 100.7 55.4 145.8 91.1-5.2 15.8-10.4 31.6-16.7 47.1-5.9 14.4-8.3 22.4-12.7 37.3-13 44.8-25.3 89.9-38.3 134.7-3.4 15.6 7.3 31.3 8.8 45.8.5 5.4-1.6 24.6-3.1 29.9-2.4 8.9-12.3 10.5-19.9 15.1-23.1 14.2-44 33.8-68.7 45.3-38.6 17.9-94.7 18.9-134.6 4.9-30.8-10.8-53.7-33.5-80.8-50.2-5.6-3.4-16.3-6.9-18.8-12.2-2.2-4.7-4.6-27.2-4.1-32.9 1.2-14.4 12.1-30.2 8.8-45.8-13.8-47.4-26.5-95.2-40.5-142.5-3.7-12.4-5.6-17.8-10.5-29.5-6.4-15.4-11.4-31.2-16.7-47.1 45.2-35.6 95.4-63.7 145.8-91.1 2.2-1.2-.5-4.8 0-5.5.2-.2 3.4-1.1 4.7-1.9 25.5-15.1 52.3-31 83.7-27.1 24.4 3.1 42.7 15.5 62.9 27.1 1.2.7 4.5 1.7 4.7 1.9h.2Z" class="fill" data-original-prefix="fill"/><path id="fill-mouth-teeth13" class="fill"  fill="#fff" d="m1042 1510-1.9 71.5c-.9 11.5-1.7 23.4-2.1 34.9-.2 7.7 1.3 20.2 0 27-.5 2.5-12.9 11.6-14.3 11.4-1.2-.2-13.2-8.9-13.7-11.4-.2-44.5-3.3-88.9-4-133.5l17.6 16.9 18.3-16.9Z" class="fill" data-original-prefix="fill"/><path id="fill-mouth-teeth12" class="fill"  fill="#fff" d="m1000 1637-20-15.5c-1.8-.5-2.8-4.4-3-4.5-.8-.5-3 3.8-5 3-.4-20.5-.2-41.1-1-61.5s-2.9-41.1-2.5-61.4l11-14c3 4.2 18.8 16.6 19.2 20.6.4 3.5-.9 11.2-.8 15.9.8 20.4 1.8 41.5 2.1 61.9.2 18.5-.2 37 0 55.5" class="fill" data-original-prefix="fill"/><path id="fill-mouth-teeth11" class="fill"  fill="#fff" d="M1076 1620c-2 .8-4.2-3.5-5-3-.2.2-1.2 4.1-3 4.5l-20 15.5c.2-18.5-.3-37 0-55.5.2-20.4 1.3-41.5 2.1-61.9.2-4.7-1.2-12.4-.8-15.9.4-4 16.2-16.4 19.2-20.6 2.1 3.9 9.5 10.8 11 14 1.8 3.8-1.3 28.2-1.5 34.4-.3 9-.7 18.1-1 27-.7 20.5-.6 41.1-1 61.5" class="fill" data-original-prefix="fill"/><path id="fill-mouth-teeth10" class="fill"  fill="#fff" d="M1114 1651c-3.8-.4-4.7-3.2-5-6.4-1.4-14.4 1.7-35 2.1-50 .6-21.9 0-43.7 2-65.5 3.3.2 4.2 1.9 7.1-.4 6.2-5.1 13.2-22.1 19.9-28.8s2.8-2 3-1.8l-9.1 120.4-20 32.6Z" class="fill" data-original-prefix="fill"/><path id="fill-mouth-teeth9" class="fill"  fill="#fff" d="M907.7 1499.3c7 6.2 13.8 23.9 20.3 29.2 2.9 2.4 3.8.6 7.1.4 1.5 10.5.6 21 1 31.5.7 20.9 1.5 42 2 63 .2 5.8 4.1 25-2.5 27.4-1.7.6-6.8-10-8.5-11.4l-12.9-21.1c-3.3-40.1-5.6-80.4-9-120.4 0 0 2.2 1 2.7 1.3h-.2Z" class="fill" data-original-prefix="fill"/><path id="fill-mouth-teeth8" class="fill"  fill="#fff" d="M903 1601c-7.1-6.3-5.5-23.9-18-13l-17-142c10.4 12.2 19 26.1 28 39.5 1.9 38.5 3.8 77.1 7 115.5" class="fill" data-original-prefix="fill"/><path id="fill-mouth-teeth7" class="fill"  fill="#fff" d="M1163 1588c-12.5-10.9-10.9 6.7-18 13l4-51.5 3.1-63.9c8.9-13.4 17.5-27.3 27.9-39.5l-17 142Z" class="fill" data-original-prefix="fill"/><path id="fill-mouth-teeth6" class="fill"  fill="#fff" d="M963 1507c-.7 40.2 2 80.1 2 120.3-1.9 1.4-17.9 15-19 13.7.9-38.3-2.3-76.2-2-114.5l15.4-18.6z" class="fill" data-original-prefix="fill"/><path id="fill-mouth-teeth5" class="fill"  fill="#fff" d="M1102 1641c-1.1 1.3-17.1-12.3-19-13.7.4-22.3.5-44.6 1-66.8 0-2.4 1-4.6 1.1-6.9.3-15.5-.3-31.1 0-46.5l3.6.9 15.4 18.6c.3 38.2-2.9 76.2-2 114.5Z" class="fill" data-original-prefix="fill"/><path id="fill-mouth-teeth4" class="fill"  fill="#fff" d="M875 1581c-1.5.2-1.3-1.7-1.7-2.8-3-8.8-6.1-18.6-8.6-27.4-10.7-37.7-11.6-78.6-17.8-117.3 0-3.9 3-6.9 5.6-9.5 3.4 3.5 5.8 6.6 6.4 11.6 1.2 10.1 1 21.5 2.1 31.9 3.8 35.2 11.2 72.2 14 107 .2 2.2 0 4.3 0 6.5" class="fill" data-original-prefix="fill"/><path id="fill-mouth-teeth3" class="fill"  fill="#fff" d="M1172 1580c6.3-40.6 11.8-81.6 16-122.5 1.2-11.5-1.6-25.4 7.5-33.5 2.6 2.6 5.7 5.5 5.6 9.5-7.6 47.5-8 99-26.1 144-.6 1.6-.8 2.9-3 2.5" class="fill" data-original-prefix="fill"/><path id="fill-mouth-teeth2" class="fill"  fill="#fff" d="m843 1439 4 53-5.7-15.8c-1-7.8-7.5-23.8-4.4-30.8.5-1.1 2.9-4.1 3.8-5.2.6-.7 0-1.9 2.3-1.3Z" class="fill" data-original-prefix="fill"/><path id="fill-mouth-teeth1" class="fill"  fill="#fff" d="M1207 1439c.3.3 4.7 7.3 4.8 7.7 1.3 4.9-3.4 23.5-5 29.5l-5.7 15.8 4-52.5c0-.9 1.9-.6 2-.5z" class="fill" data-original-prefix="fill"/><path id="outline-shading-mouth4" class="outline"  fill="#000" d="m900 1319-56.5 57-14 16c-1.9 4.1 3.2 15.8 2.5 21 4.2-1.8 14.7-13.4 18.4-13.1 4 .3 8.8 14.9 10.3 18.8 2.5 6.3 4.5 12.8 6.8 19.2 18.7 24.5 38.6 48.2 57.4 72.6 3.8 5 3.2 9.2 10.1 7 3.2-1 13.7-10.2 17-13 10.5-9 19.8-20 30.5-28.6l41.1 41 41.9-41c13.1 10.8 24.4 24.6 38 35 3.2 2.5 10.4 9 14.5 6.5l61.8-79.2c3.6-6.3 11.7-36.7 16.9-38.2 4.6-1.3 17.3 14.1 19.3 11.9-.8-5.2 4.4-15.8 2.5-20-20.7-25.2-46.1-46.1-68-70-.7-.7-2.7-2-2-3 34.5 16.7 65.1 39.8 96 62 2.5 5.1-7.2 33.5-9.8 40.2-2.7 7.3-6.2 13.8-9.2 20.8-3.2 7.3-3.5 21.2-14.5 14l-8.5 50-2.5 1c-.2-19.8 1.9-39.7 4-59.4-2-4.9-6.9-13.6-8.8-3.8-4 21.5-4.5 48.2-7.4 70.6-3.6 28-8.2 56-12 84-2 14.9-3.3 16.2 1.9 31.4 1.3 3.8 7.2 14.6 7.4 16.7s-6.3 26.7-7.6 29.5c-2.4 5.5-34.3 27-41.2 30.8-23.5 12.8-65.3 23.2-92 27-44.3 6.3-112.7-12.8-149.7-38-4.2-2.9-22.5-15.7-24.1-18.9-1.2-2.3-7.8-28.2-7.7-30.4 0-2.1 7-16.2 8.3-20.7 4-13.7 2.7-13.4.9-26.4-7.5-52.8-15.1-105.5-20.4-158.6-2.2-5.2-7.7 4.9-7.9 7.8 2.1 19.4 4 39 4.1 58.5h-3l-8-51c-11.6 7.2-11.3-6.6-14.5-14-5.7-13.3-11.5-25.2-15.5-39.5-1.5-5.2-6.1-18.6-2.5-22.6 31.2-21.3 60.9-45.2 95.5-60.9zm-34.5 137v1c.7-.3.7-.7 0-1m315.5 1c-3.8 9.4-17.3 19.9-21.1 28.4-3.4 7.8-1.6 20.7-3.9 29.1l-3 60c.6 3 10.1 7.9 13.4 8.4zm-286.2 118.8c-1.8-29.7-2.2-59.6-6.1-89.1-7.3-9.7-14.3-20.1-22.7-28.8l14 125c6 0 10-4.5 14.8-7.2ZM995 1627c-.8-15.5-.4-31.1-1-46.5-.7-20.6-1.2-43.5-3-63.9-.3-3.6-.4-13.4-4.5-13.5-2.5 0-20 10.7-20.5 13.5 2.4 20.6 1.2 41.4 1.9 62 .2 6.2.6 13.8 1.1 19.9s3 12.8 2 19.5l5.4-5c1.5 2.2 17 15.7 18.6 14m82-10c-.8-6.9 1.6-13.7 2.1-20.4 1.1-17.4.3-35.7.9-53.1.3-8.7 2-18.1 2-26.9s-1-2.1-2-3c-2.2-1.8-17.3-10.9-19.3-10.4-2.9.7-3.4 7.6-3.7 10.4-3.3 35.8-2.8 74-4 110 0 1.4 0 2.9-1 4 5.2.7 17.8-14.1 19.5-14.5 2.3-.5 2.5 4.7 5.4 4Zm-146 17c-1.9-32.1-.2-64.4-2-96.5l-26-32.5c2.8 32.1 2.9 64.2 5 96.4 6.9 11.3 14.5 22.3 23 32.5Zm187 0 22-32.5c1.9-32.2 2-64.3 5-96.4l-26 32.5c-2 25.3-.4 50.7-1 76-.2 5.9-1.4 11.5-1 18 0 1.1-.7 2.8 1 2.5Zm-175 2c.8.8 16.4-9.7 17.5-11 .7-.8 1.5-1.4 1.4-2.6-.7-33.9-2.5-67.6-4-101.5-3.4 2.4-16.3 10.2-17 13.5-.2 33.9 0 67.8 2 101.5Zm101-115c-4.9 2.7-10.4 10.7-15.7 11.8-11.9 2.5-16.1-5.4-24.3-11.8 1.3 37.5 2.3 74.9 2 112.5.8 4 14.2 9.4 17.7 12.4 3.7-2.5 17.6-8.6 18.3-12.4-.2-37.6.2-75.1 2-112.5m61 115c1.6-33.8 2.3-67.6 2-101.5-.7-3.7-13.7-10.5-17-13.5-1.8 33.8-3.7 67.5-4 101.5.2 2.9 18.2 14.4 19 13.5m-167.3 18.7c-1 .9-2.6 1.5-4 1.2-3.8-1-23-30.3-27.3-35.8L895 1607c-.4 4.4-1.3 8.8-2.5 13-1.6 5.4-8.4 19.9-8.6 23.5 0 2.9 4.5 19.8 5.8 23.3.7 1.9 1 3.9 2.9 5.1 29 14.8 52.4 35.8 84.2 44.8 31.1 8.9 64.2 8.8 95.2-.2 31.6-9.2 55.5-30.5 84.3-45.4.8-.4.9-1.2 1.2-2 1.2-3 6.7-24.2 6.5-26.5-.3-3.3-5.8-13.4-7.3-17.8-1.8-5.8-3.1-11.8-4.2-17.8-2.2 3.1-5.1 5.6-7.5 8.5-8.8 10.8-17.2 26.4-26.1 35.9-1.6 1.8-3.2 3.6-5.6 4.3l-43.7-28.7c-4.3 3.6-8.6 8.8-13.3 11.7-8.2 5.1-15 6.1-23.4 13.6-2.3 2.1-3 5.8-6.5 6.5-8.1 1.6-7.3-2.8-11.5-6.4-7.2-6.1-10.9-7.5-18.9-11.1-6.3-2.8-12.3-10-17.6-14.4-12.8 7.9-26.2 15.6-38.3 24.5-1.3.9-1.6 2.5-2.3 3.1v.2Z" class="shading" data-original-prefix="shading" opacity=".2"/><path id="outline-shading-mouth3" class="outline"  fill="#000" d="M1118 1345c-1.5 1.5-1.8-.6-2.3-1.3-1.8-2.3-6.1-7.1-7.1-8.8-1.8-3.2-.9-7.3-2.6-9.4-2-2.4-11.1-9.6-14.1-11.9-17.8-13.8-38.6-25.3-56-40-3.6-5.4 6-7.7 4.1-13.6.4-.4 8.3 1.9 9 2.5 1.9 1.6 0 5.2 2 7l68.4 49.6c2.9 2.8-.3 24.8-1.4 25.9" class="shading" data-original-prefix="shading" opacity=".2"/><path id="outline-shading-mouth2" class="outline"  fill="#000" d="M1008 1260c-2.1 5.5 7.8 8.5 4.1 13.6l-61.1 43.9c-10.3 7.3-11.1 16.5-18.7 26.2-.5.7-.7 2.7-2.3 1.3-1.1-1-5.1-24.3-1-26.5l68-49c2-1.9 0-5.2 2-7 1-.9 8.7-2.9 9-2.5" class="shading" data-original-prefix="shading" opacity=".2"/><path id="outline-shading-mouth1" class="outline"  fill="#000" d="M1011 1355c1.1 4.6-4.9 8.9-3.6 13 1.1 3.3 13.8 10.8 16.2 14.9 1.2.2 16.5-14.1 17-15.9 1-3.6-5.2-7.6-3.6-12 6.9-2.5 17.3 6.5 15.8 13.3-.8 3.8-7.8 10.3-10.8 13.2-6 5.9-6.9 4.1-10.8 12.2-1.9 3.9-5.9 3.9-9.8 3.3-5.8-.8-4.3-4.3-6.4-7.6-4.4-6.7-23.9-15.6-19.3-26.2 2.2-4.9 9.7-10.1 15.2-8.2Z" class="shading" data-original-prefix="shading" opacity=".2"/><path id="outline-mouth" class="outline"  fill="#000" d="M1006 1260c.4-2.1 4.7-6.2 6.5-7 2.2-1 1.8 3.9 2.5 5l-.5 19c-9.8 6.8-19.7 13.6-29 21-10.5 8.4-26.4 21.1-35.5 30.4-3.6 3.7-.7 4.6 2.7 7.3 14.2 11.7 34.2 18.3 52.3 20.2 1.2 1.2-6.6 10.7-4.8 13.8l23.5 23.1c1.5.3 18.4-18.6 21.4-21.5.8-.8 2.6-1.3 2.8-1.6 1.8-3.1-6-12.7-4.8-13.8 18.1-1.9 38.1-8.5 52.3-20.2 3.3-2.8 6.3-3.7 2.7-7.3-9.1-9.4-25-22-35.6-30.4-9.3-7.4-19.2-14.2-29-21-1.1-1.8-.6-15.7-.5-19 0-1.1-.9-6 1.5-5 2.1.9 6.1 6.1 7.5 7-1.8 1-1 3.4-.5 5 3.8 10.3 55.3 44.8 67.4 54.6 1.8 1.5 8 6 8.6 7.4 2.3 5.4-.6 18.1-.5 24.5 0 4.3 3.4 17.4 1.1 20-1 1.1-12.4 6.6-15.3 8.7-15.1 10.7-26.8 28.3-34.7 44.8-1.5.4-1.7-.4-2.5-1-5.2-3.6-23.3-26.5-26.1-26.9-5.3 3.9-11.8 6.3-12.4 13.4-1.2 13 1 27.8 0 41.1l3.1 42.5 34.4-35.1 2.9-.9c13.6 15 26.1 31.3 40.1 46 1.3 1.4 9.3 10.1 10.5 9 3.5-11.2 11.6-21.6 18.2-31.3 19-27.8 40.6-53.8 59.3-81.7.8-.7.7-1.5 1.5-.4 7.1 9.4 13.4 20.9 20.5 30.4l17.6-43.4-157.1-108.6 2-3c36.8 19.5 75.4 39.4 110.9 61.6 21.2 13.3 40.5 29.5 61.9 42.6.6 1.1.2 2.9 0 4.2-.7 7.6-9.9 31.6-13.2 39.9s-7.1 16.1-11 24l-44.5 161.6c.4 12.4 9.3 27.7 9.8 39.7.3 6.8-1.7 25-3.2 31.9-.4 2.2-1.7 6.3-3 8-1.2 1.6-15.8 8.4-19.4 10.6-24.6 15-45.2 35.2-72.5 46.5-40.8 16.9-104 16.8-144.7-.3-27-11.3-47.4-31.4-71.8-46.2-3.6-2.2-18.2-9.1-19.4-10.6-1.3-1.7-2.6-5.8-3-8-1.4-6.9-3.5-25.1-3.2-31.9.6-12.2 9-27.1 9.8-39.7-13.1-46.2-25.7-92.7-39.3-138.8-2.2-7.3-3.2-16.5-5.7-23.3s-7.5-14.1-10.5-21.5c-5.5-13.7-9.1-28.1-14.2-41.9-.3-1.7 0-3.3 1.4-4.4 24.1-15.7 46.6-33.8 71.2-48.8 32.3-19.7 66.7-38.2 100.3-55.2l3 3-157.1 108.6 17.6 43.4c7.1-9.6 13.4-21 20.5-30.4.8-1.1.7-.3 1.5.4 18.8 27.9 40.3 53.9 59.3 81.7 6.6 9.7 14.7 20.2 18.2 31.3 1.2 1.1 9.2-7.6 10.5-9 14-14.6 26.5-30.9 40.1-46l2.9.9 34.4 35.1 3-42.5c-1-13.2 1.2-28.1 0-41.1-.7-7.1-7.1-9.5-12.4-13.4-2.8.5-21 23.4-26.1 26.9-.8.6-1 1.4-2.5 1-7.8-16.5-19.6-34.1-34.7-44.8-3-2.1-14.3-7.5-15.3-8.7-2.3-2.6 1-15.7 1.1-20 0-6.4-2.8-19.1-.5-24.5.6-1.5 6.8-5.9 8.6-7.4 11-9 62.9-44.3 66.1-52.9 1.1-2.8.4-4.5.8-6.7zm-131 321c0-2.1.2-4.3 0-6.5-2.8-34.8-10.2-71.8-14-107-1.1-10.4-.9-21.8-2.1-31.9-.6-5-3-8.1-6.4-11.6-2.6 2.6-5.7 5.5-5.6 9.5 6.2 38.7 7.2 79.6 17.8 117.3 2.5 8.9 5.6 18.7 8.6 27.4.4 1.1.2 3 1.7 2.8m297-1c2.2.4 2.4-1 3-2.5 18.1-45 18.6-96.5 26.1-144 0-3.9-3-6.9-5.6-9.5-9.1 8.1-6.3 22-7.5 33.5-4.2 40.9-9.7 81.9-16 122.5m-329-141c-2.3-.6-1.7.6-2.3 1.3-.9 1.1-3.3 4.1-3.8 5.2-3.1 7 3.3 23 4.4 30.8l5.7 15.8-4-53Zm364 0s-2.1-.4-2 .5l-4 52.5 5.7-15.8c1.6-5.9 6.4-24.5 5-29.5 0-.4-4.4-7.4-4.8-7.7zm-304 162c-3.2-38.4-5.1-76.9-7-115.5-8.9-13.4-17.5-27.3-28-39.5l17 142c12.5-10.9 10.9 6.7 18 13m260-13 17-142c-10.4 12.2-19 26.1-27.9 39.5l-3.1 63.9-4 51.5c7.1-6.3 5.5-23.9 18-13Zm-163 49c-.2-18.5.3-37 0-55.5-.2-20.4-1.3-41.5-2.1-61.9-.2-4.7 1.2-12.4.8-15.9-.5-4-16.2-16.4-19.2-20.6l-11 14c-.3 20.3 1.8 41.1 2.5 61.4s.6 41.1 1 61.5c2 .8 4.2-3.5 5-3 .2.2 1.2 4.1 3 4.5zm76-17c.4-20.5.2-41.1 1-61.5.3-8.9.7-18 1-27 .2-6.2 3.3-30.6 1.5-34.4-1.5-3.2-8.9-10.1-11-14-3 4.2-18.8 16.6-19.2 20.6-.4 3.5.9 11.2.8 15.9-.8 20.4-1.8 41.5-2.1 61.9-.2 18.5.2 37 0 55.5l20-15.5c1.8-.5 2.8-4.4 3-4.5.8-.5 3 3.8 5 3m-168.3-120.7c-.4-.4-2.6-1.5-2.7-1.3 3.4 40.1 5.8 80.3 9 120.4l12.9 21.1c1.7 1.4 6.8 12.1 8.5 11.4 6.6-2.4 2.7-21.7 2.5-27.4-.5-21-1.3-42.1-2-63-.4-10.5.5-21.1-1-31.5-3.3.2-4.2 1.9-7.1-.4-6.5-5.3-13.2-23-20.3-29.2h.2ZM1114 1651l20-32.6 9.1-120.4c-.2-.3-2.5 1.3-3 1.8-6.8 6.7-13.7 23.7-19.9 28.8-2.9 2.4-3.8.6-7.1.4-1.9 21.8-1.3 43.7-2 65.5-.4 15-3.5 35.6-2.1 50 .3 3.2 1.2 6 5 6.4Zm-151-144-3.6.9-15.4 18.6c-.3 38.2 2.9 76.2 2 114.5 1.1 1.3 17.1-12.3 19-13.7 0-40.2-2.7-80.1-2-120.3m139 134c-.9-38.3 2.3-76.2 2-114.5l-15.4-18.6-3.6-.9c-.3 15.5.4 31 0 46.5 0 2.4-1 4.6-1.1 6.9-.5 22.3-.6 44.6-1 66.8 1.9 1.4 17.9 15 19 13.7Zm-60-131-18.3 16.9-17.6-16.9c.7 44.6 3.8 88.9 4 133.5.4 2.5 12.5 11.2 13.7 11.4 1.4.2 13.8-8.9 14.3-11.4 1.3-6.8-.3-19.3 0-27 .4-11.5 1.2-23.4 2.1-34.9l1.9-71.5h-.1Zm-112.9 165.9-39.6-64.9c-2.7 4.3-15.7 16.7-16.5 20.5-.5 2.3 0 6.3 0 8.8.5 6.2 3.4 24.2 5.1 29.9 2.2 7.3 14 10.2 20.1 13.9 44.8 27.9 79.7 46.3 135.2 43.8 47.1-2.2 77.9-20 116.2-43.8 6.1-3.8 17.8-6.6 20.1-13.9 1.7-5.7 4.6-23.7 5.1-29.9.2-2.5.6-6.5 0-8.8-.7-3.8-13.8-16.2-16.5-20.5l-40.1 65.1-48.9-32.8-45.1 37.7-45.8-37.7c-6.8 2.2-46.8 34.1-49.4 32.6Z" data-original-prefix="outline"/></g><g id="04_Eyes" data-trait="viper"><path id="fill-eyes1" class="fill"  fill="#fff" d="M1219.2 1380.7c-23-.8-52.2-1.1-81.2-4.2-2.8-.3-5.7-.8-8.5-.7-9.5.4-14.2-4.9-19.2-12.5-15.5-23.3-35.7-41.7-63.6-48.1-28.8-6.5-56.4-2.1-80.1 16.9-13.3 10.6-25.2 22.7-33.4 37.9-1.9 3.5-4.5 4.5-7.9 4.9-23.5 2.7-47.1 4.3-70.8 5.1-43.2 1.5-86.3 0-129.3-4.2-19.7-1.9-39.5-3.6-58.9-7.6-4.5-.9-6.8-3.3-8-7.6-4.8-16.9-7.2-34.2-9.2-51.5-2.3-19.2-3.8-38.4-5.1-57.7-.2-3.1-1.6-4.8-4.3-6-7-3.2-12.5-1.2-15.6 5.8-2.3 5.2-4.4 10.4-6.3 15.7-.8 2.2-1.7 2.7-4 2.1q-10.8-3.15-21.3-7.2c-2.4-.9-3.1-2.5-3.3-4.9-1.8-22-1.2-44 1.3-65.9 2.3-19.5 5.3-38.9 10.6-57.9.5-1.8 1-3.5 1.7-5.2 1.2-3 3-4.3 6.6-3.3 7 1.9 13.8 4.7 21.3 4.6 4.6 0 6.7-1.9 6.2-6.2-.5-5.4 1.8-6.9 7-7.3 9.9-.6 9.7-1.1 12.3-10.8 7.8-28.9 18.7-56.4 35.6-81.4 3.8-5.6 7.7-11.2 11.9-16.5 3.7-4.7 8.1-8.4 14.8-7.3 2.3.4 4.2-.3 5.4-2.5 5.3-9.5 13.5-16.7 19.9-25.3 5.8-7.7 13-14.3 19.9-21 15.9-15.5 33-29.8 51.1-42.7 18.5-13.2 38.1-24.8 58.5-34.8 27.9-13.8 57.5-21.7 88.1-26.2 36.6-5.3 73.4-5.1 110.2-2 24.3 2 48.2 7.1 71.2 15 36.5 12.6 69.4 32.2 100.2 55.5 16.8 12.7 32.8 26.4 47.5 41.6 12.2 12.6 23.7 25.9 33.7 40.4 1.6 2.2 3.6 2.8 6.1 2.5 7-1 11.2 2.6 15.3 7.8 23.7 29.8 39 63.6 47.5 100.5 1.5 6.4 5.4 7.6 10.3 7.5 5.7 0 8.3 1.8 7.8 7.8-.3 3.9 1.7 5.5 5.8 5.6 6.7.2 12.7-2.3 18.9-4 7.3-2 7.8-1.9 10.1 5.1 5.7 17.8 8.4 36.3 10.8 54.8 3 23 4.2 46.1 2.3 69.3-.3 4.3-1.6 6.9-6 8.3-6.2 2-12.3 4.2-18.5 6.1-2.3.7-3.6.6-4.5-2-2.2-6.1-4.8-12-7.2-18-1.8-4.5-4.7-5.7-11.7-4.3-3.7.8-6.7 2.2-7.1 7-1.6 21.6-3.3 43.2-6 64.7-1.8 15.1-4.6 29.9-8.4 44.6-1.1 4.1-3.2 6.4-7.6 7.3-17 3.6-34.3 4.9-51.4 6.9-35.1 3.8-70.2 4.9-111.5 5.5" class="fill" data-original-prefix="fill"/><path id="fill-eyes2" class="fill"  fill="#fff" d="M1004.6 1128.6h-25c-39.8-.8-79.6-2.1-119.5-2s-79.6 2.2-119.4 4.4c-24.9 1.4-49.9 1.7-74.7 4.8-2.4.3-3 1.1-3.1 3.3-1.3 14.8-2.6 29.5-3 44.4-.9 27.3.2 54.6 2.2 81.9 1.8 25.6 4.2 51.1 7.4 76.5 1.1 8.3 4.7 11.4 12.1 13.3 35.3 9 71 14.2 107.4 16.1 43.9 2.3 87.5-.2 130.9-7.4 3.8-.6 6.5-2 8.5-5.7 3.1-5.7 7.2-10.8 11.7-15.5 26-27.5 58.3-38.2 95.3-34.8 36.8 3.4 66 20.3 85.4 52.5 1.2 1.9 2.7 2.5 4.8 2.9 28.7 5.3 57.7 8 86.9 8.7 33.7.8 67.3-.9 100.6-6.1 20-3.1 40-6.7 59.4-12.8 2.8-.9 4.2-2.3 4.7-5.4 2.7-16.1 4.3-32.3 5.8-48.6 1.9-20.9 3.2-41.8 4.3-62.8 1.7-32.5.8-64.9-2.5-97.3-.2-1.5 0-2.9-2.3-3.1-3.3-.2-6.6-1-9.9-1.2-24.9-1.4-49.9-2.5-74.8-4-61.4-3.7-122.8-4.7-184.4-3.2-36.2.9-72.5 3.1-108.8 1.1" class="fill" data-original-prefix="fill"/><path id="outline-shading-eyes9" class="outline"  fill="#000" d="M1079.2 1304.4c6.4-5.7 12.6-11.3 19-16.9 7.2-6.3 14.5-12.6 21.7-18.9 15-13 30-26.1 45-39.1 9.2-8.1 18.3-16.3 27.6-24.4 12.8-11.3 26.4-21.7 38.3-33.9 7.8-8 15.8-8.9 25.8-8.3 25.6 1.5 51.2 2.3 76.9 3.3 3.5 0 5.2 1.2 6.1 4.8 8 32 12.8 64.6 16.4 97.4 1.9 17.5 3.2 35.1 4.8 52.7.8 8.6.7 8.8-6.8 12.6-17.4 8.5-35.9 13.9-54.3 19.7-23.5 7.4-47.2 13.8-71.1 19.8-11.6 2.9-23.2 1.8-34.7.8-13.8-1.1-27.7-1.3-41.2-4-8.1-1.6-16.4-1.6-24.4-3.3-2.9-.6-4.8-1.7-5.4-4.8-.4-2.3-1.7-4.4-2.2-6.6-4.4-21.4-18.8-35.2-35.9-47-1.9-1.4-3.6-2.6-5.6-3.9" class="shading" data-original-prefix="shading" opacity=".2"/><path id="outline-shading-eyes8" class="outline"  fill="#000" d="M864.1 1148.5c-66.8 58.2-132.8 115.7-199.5 173.8-.8-7.8-1.8-14.8-2.3-21.9-3-40-6.7-80-4.9-120.2.5-12.3 1.9-24.5 2.6-36.8.2-3.5 2-3.5 4.6-3.4 21 .8 41.9 1.6 62.9 2.4 31.1 1.2 62.2 2.3 93.4 3.7 13.5.6 27 .5 40.4 1.9.6 0 1.2.2 2.8.5" class="shading" data-original-prefix="shading" opacity=".2"/><path id="outline-shading-eyes7" class="outline"  fill="#000" d="M963.8 1125h-26c-2.2 0-3.5-1.7-5-3-19-15.7-38.2-31-59.2-44-27.7-17.1-57.4-30-88-40.9-18.2-6.5-35.8-14.8-54.5-20.1-7-2-7.5-5-3.3-10.9 48.6-69 113.8-115.6 193-143.4 6.8-2.4 13.9-4 21.4-4.9-5.5 4-10.6 9-16.7 11.8-37.2 16.9-63.3 45.7-86.4 78.1-9 12.6-16.6 26.1-23.5 39.9-5.1 10.1-3.2 19.5 1.6 28.5 4.3 8.2 10.1 15.6 16.1 22.8 5.1 6.1 11.1 10.7 18.3 14.2 32.7 16 64.8 33.3 95.8 52.5 7.5 4.8 13.5 10.4 16.4 19.4" class="shading" data-original-prefix="shading" opacity=".2"/><path id="outline-shading-eyes6" class="outline"  fill="#000" d="M1084.1 1125c2.9-8.8 8.7-14.5 16.2-19.2 31.7-19.7 64.5-37.3 98-53.8 5.5-2.7 10.2-6.2 14.2-10.7 7-7.9 13.4-16.2 18.4-25.5 5-9.2 6.4-18.8 1.3-29-18.7-37.3-43.2-69.9-75.3-96.6-9.6-8-20.8-13.8-31.9-19.4-7-3.5-12.5-9-18.9-13.5 7.3.7 14.2 3 21 5.1 32.7 10.1 62.5 26.4 91.1 44.8 25.3 16.3 48 35.8 68.9 57.4 12.8 13.2 23.8 27.9 34.2 42.9 2.8 4 2.1 6.4-2.5 8.6-6.6 3.2-14 4.1-20.7 6.8-43.9 17.6-89.3 31.9-129.2 58.4-18.4 12.2-36 25.7-52.9 40-2.9 2.5-5.9 3.9-9.8 3.7-7.3-.2-14.6 0-22.1 0" class="shading" data-original-prefix="shading" opacity=".2"/><path id="outline-shading-eyes5" class="outline"  fill="#000" d="M863.9 1355.2c16.9-15.2 33.1-29.3 49.5-43.2 11.4-9.6 22.4-19.7 33.7-29.5 17-14.8 34.1-29.5 51.1-44.2 9-7.8 17.8-15.9 26.8-23.7 12-10.4 24.3-20.5 36-31.3 8.4-7.8 17.5-14.7 25.8-22.6 1.7-1.6 3.4-3.1 5.9-3.3 11.4-.6 22.8-.4 35 1.2-15 13.1-29.5 25.6-43.9 38.2-9.4 8.2-18.6 16.6-27.9 24.8l-37.8 33c-9.1 8-18.1 16.1-27.2 24l-37.8 33c-8.7 7.6-17.4 15.3-26.1 23-6 5.3-11.9 10.6-17.9 15.8-.7.6-1.7 1.3-2.6 1.3-13.8 1.2-27.7 2.3-42.6 3.5" class="shading" data-original-prefix="shading" opacity=".2"/><path id="outline-shading-eyes4" class="outline"  fill="#000" d="M784.9 1126c-27.3 1.4-53 2.7-78.8 4-2.3 0-4.7.2-7 .3-11.9 1-16.4-.2-27.5-7.6 8.3-3.7 10.4-11.9 13-19 4-11.1 10.3-14.5 22.1-14.2 12.1.3 22.5 2.3 32.7 9 13 8.6 26.8 16.1 40.2 24.1 1.4.8 2.7 1.7 5.3 3.4" class="shading" data-original-prefix="shading" opacity=".2"/><path id="outline-shading-eyes3" class="outline"  fill="#000" d="M1376.9 1122.8c-9.7 4.7-17.8 9.2-28.7 7.8-15.1-1.9-30.5-1.9-45.8-2.7-12.6-.7-25.2-1.3-37.9-2-.2-1.9 1.5-2 2.4-2.6 17.7-10.5 35.5-21 53.2-31.5 2.5-1.5 5.1-2.2 8-2.1 8 .2 16 .4 24 .2 2.9 0 4.6.9 5.8 3.5 2.6 5.6 5.2 11.1 8.1 16.6 2.6 4.9 3.9 10.8 10.9 12.8" class="shading" data-original-prefix="shading" opacity=".2"/><path id="outline-shading-eyes2" class="outline"  fill="#000" d="M639 1217.5v5.5c0 5.2-1.9 6.7-6.5 4.3-8.6-4.4-8.3-3-12.3 5.7-3 6.4-5 13.4-7.1 20.2-.9 2.8-2.2 4.3-5.2 3.8-3.4-.6-1.8-3.2-1.7-4.7 1.4-32 4.2-63.8 13.2-94.7 1.1-3.9 2.7-4.5 6.7-3.7 6.7 1.3 9.4 4.2 9.5 11.3.3 17.5 1.7 34.9 3.4 52.3" class="shading" data-original-prefix="shading" opacity=".2"/><path id="outline-shading-eyes1" class="outline"  fill="#000" d="M1409 1216.8c1.8-18.2 2.6-36.5 3.7-54.7.2-3.6 1.6-5.1 5.1-5.9 9.4-2.2 9.5-2.3 12.2 7.6 4.3 15.6 6.4 31.6 8 47.6 1.4 14.1 2.5 28.2 3.8 42.2 0 1.6 1.1 3.6-1.8 3.4-1.9 0-4.2 1.1-4.9-2.4-2-9.3-5.6-18-9.8-26.5-1.4-2.9-2.8-3.4-5.8-2.4-10.4 3.5-10.4 3.4-10.3-7.4-.2-.5-.2-1-.2-1.5" class="shading" data-original-prefix="shading" opacity=".2"/><path id="outline-head1" class="outline"  fill="#000" d="M582 1229.9c1-34.8 4.5-69.3 14-102.9 2.6-9.1 5.9-10.9 15-8.8 5.2 1.2 10.3 2.6 15.4 4.2 3.5 1.1 4.8.5 4.8-3.4 0-8.1.7-8.8 8.8-8.9 1 0 2-.2 3 0 4.6.7 6.2-1.6 7.2-5.9 5.2-21.4 12.8-42 22.7-61.7 7.5-14.8 16.8-28.4 27.1-41.2 3.5-4.3 7.7-10.9 15.7-7.3 1.4.6 2-.6 2.7-1.5 14.6-19.1 30.1-37.2 47.9-53.4 19.1-17.5 39.2-33.5 60.9-47.5 22.8-14.8 46.5-28 72.5-36.5 20.7-6.8 41.9-11.4 63.7-14.1 16-1.9 32.1-3.7 48.2-3.4 17.1.3 34.2-.6 51.3.8 52.7 4.2 102.3 18 147.3 46.6 26.5 16.8 51.4 35.5 74.3 57 15.4 14.4 28.6 30.6 42.2 46.6.5.6 1.1 1.3 1.4 2 1.4 3.1 2.6 4.1 6.8 2.9 6.4-1.8 10.9 3.8 14.4 8.1 23.3 29.5 39.4 62.7 48.6 99.2 0 .5.2 1 .3 1.5 1.4 5.2 4.7 7.9 10 7.9 7.6 0 8.8 1.1 8.6 8.7 0 3.7.8 4.7 4.6 3.5 5.7-1.8 11.5-3.1 17.4-4.3 6.7-1.5 9.8.2 12.3 6.6 3.3 8.6 4.9 17.6 6.6 26.6 4.9 26.2 7.9 52.6 8.3 79.2.2 10.7-1.1 21.2-2 31.9-.2 2.1-1.1 3.4-2.9 4.1-9.4 3.8-19 7-28.9 9.5-3.6.9-5.9-.6-7.1-4.4-2.1-6.5-4.5-12.9-8-18.8-.6-1.1 0-3.7-2.3-3-2 .6-4.4 1.2-4.9 3.7-.4 2.3-.6 4.6-.8 6.9-2.3 34-4.9 68-13.3 101.2-2.7 10.7-3.9 11.8-14.8 13.3-24.7 3.4-49.4 6.1-74.2 8.2-40.6 3.5-81.2 3.3-121.8 2.5q-34.65-.75-69-5.4c-3.2-.4-4.5-2-5.9-4.4-11.3-20.1-26.4-36.9-47.2-47.4-31.7-16.1-62.1-12.6-90.7 8-14.7 10.6-26 24.2-34.7 40-1.3 2.4-2.8 3.6-5.7 3.9-11.7 1.1-23.4 2.7-35.2 3.6-36.1 2.9-72.2 2.6-108.3 1.9-23.2-.4-46.5-2.2-69.6-4.6-17.2-1.8-34.3-3.7-51.4-6.2-3.4-.5-6.7-1.9-10.1-2.8-2.5-.6-2.7-2.8-3.2-4.6-4.3-13.9-6.7-28.1-8.8-42.4-3.3-23.2-5-46.6-6.8-69.9 0-1.7-.3-3.2-2.1-4.2-2.5-1.4-4-2-5.6 1.5-2.9 6.4-5.8 12.8-8 19.4-1.3 4-3.8 4.8-7.2 4-9.5-2.4-18.9-5.3-28-9.1-2.2-.9-3.3-2.2-3.5-4.8-1.1-10.8-2.4-21.4-2-32.2m422.6-101.3h-25c-39.8-.8-79.6-2.1-119.5-2s-79.6 2.2-119.4 4.4c-24.9 1.4-49.9 1.7-74.7 4.8-2.4.3-3 1.1-3.1 3.3-1.3 14.8-2.6 29.5-3 44.4-.9 27.3.2 54.6 2.2 81.9 1.8 25.6 4.2 51.1 7.4 76.5 1.1 8.3 4.7 11.4 12.1 13.3 35.3 9 71 14.2 107.4 16.1 43.9 2.3 87.5-.2 130.9-7.4 3.8-.6 6.5-2 8.5-5.7 3.1-5.7 7.2-10.8 11.7-15.5 26-27.5 58.3-38.2 95.3-34.8 36.8 3.4 66 20.3 85.4 52.5 1.2 1.9 2.7 2.5 4.8 2.9 28.7 5.3 57.7 8 86.9 8.7 33.7.8 67.3-.9 100.6-6.1 20-3.1 40-6.7 59.4-12.8 2.8-.9 4.2-2.3 4.7-5.4 2.7-16.1 4.3-32.3 5.8-48.6 1.9-20.9 3.2-41.8 4.3-62.8 1.7-32.5.8-64.9-2.5-97.3-.2-1.5 0-2.9-2.3-3.1-3.3-.2-6.6-1-9.9-1.2-24.9-1.4-49.9-2.5-74.8-4-61.4-3.7-122.8-4.7-184.4-3.2-36.2.9-72.5 3.1-108.8 1.1m-221.1-94c-2 .8-3.1 0-4.3-.4-7.6-2.3-15.1-5.1-23.1-5.6-12.5-.7-24.8-3.2-37.4-2.2-2.3.2-4.4.4-5.9 2.8-11.8 18.8-22.8 38-31.5 58.4-2.7 6.4-6.2 12.5-7.8 19.4-.6 2.9 0 3.8 3 3.8 9 0 18 .5 27 .8 70 2.2 140 2.6 210 2.1h4.3c-19.7-16.8-40.2-31.8-62.2-45.4 2.8-1.1 4.4.2 6.2 1.1 27.7 12.5 54.3 27.1 81.4 40.9 2.9 1.5 5.2 3.6 9 3.6 47.8-.2 95.7 0 143.5 0s3.2 0 4.8-.9c29.2-15.8 58.7-31.1 88.8-45.1 1.2-.6 2.3-1.6 4.5 0-22 14.3-43.3 29.1-63.6 45.4 1.9.5 3.7.5 5.4.5 77 .5 154 0 230.9-2.9 10.7-.4 10.9-.3 6.8-10.2-10.2-24.7-22.4-48.3-36.8-70.8-1.4-2.2-2.9-3.4-5.5-3.5-18-.4-35.9 1-53.5 5.1-2.1.5-4.1 1.3-6.2 1.9-2 .5-4 1.7-6.8 1.4.8-.9 1.1-1.3 1.4-1.6 11.4-8.7 23-17 35.8-23.5 5.8-3 6.2-3.8 3.8-10-3.7-9.2-8.8-17.5-15.4-24.8-23.3-25.6-51.1-45.5-79.1-65.3-47.4-33.5-100.2-51.1-157.7-55.5-38-2.9-75.8-1.8-112.8 8.8-23.3 6.7-46.9 12.4-68.1 24.7-32.9 19-64.3 40.3-92.7 65.7-14.7 13.1-29.8 26.3-37 45.8-2.6 6.9-2.5 7.6 4.2 11 13.1 6.7 24.8 15.3 36.6 24.5m628.8 190.2c2.4-.8 4.9-1.9 7.4-2.4 3.6-.7 6.2 0 8.2 4 4 7.9 6.4 16.3 9.4 24.6.4 1 0 2.8 2 2.9 4.9.3 10.1-4.3 9.6-9.2-1.5-14.7-2.9-29.5-5-44.1-2.8-19.2-6.4-38.3-9.6-57.5-.6-3.5-2.1-4.4-5.5-3.5-2.7.7-5.6 1.2-8.4 1.2s-4.8 1.2-4.9 4.9c-.7 18.1-1.8 36.3-2.5 54.4-.3 8.1-2.9 16.3-.7 24.7m-776.5-.1c1.3-7.2-.2-14.2-.7-21.2-1.1-18.3-2.1-36.6-2.6-54.9 0-5.8-1.6-7.8-7.5-8.3-10.5-.9-10.6-1.4-12.5 9.2-5.7 30.4-10.5 60.9-13.3 91.8-.8 9.2-.3 9.8 7.4 12.2 2.8.8 3.3 0 4-2.4 1.7-5.6 3.3-11.2 5.6-16.5 6.1-13.7 4.5-14.7 19.6-9.9" data-original-prefix="outline"/></g><g id="05_Right Ear" data-trait="lop-eared"><path id="fill-ear-rt" class="fill"  fill="#fff" d="M1463.9 815.1c-1.1-.7-8-.2-9.6.6-.7.3-10 9.7-11.1 10.9-6.2 7.2-20.7 26.1-25 34-4.6 8.5-7.7 20-12 29-17.8 36.8-49.6 57.6-83.3 78.7-7.6 4.8-29.5 17.5-37.9 16.2-7-1.1-34.8-11.7-42-15.1-21.9-10.4-41.9-30.6-57.5-48.5-3.2-3.6-15.1-14.9-15.5-18.6-.3-3.2 3.6-17.9 4.7-22.2 8.4-34.6 26.4-65.8 37.6-99.4 7.8-23.5 15.9-52.5 21.2-76.8 12.6-56.9 6.2-116.2 18.8-173.2 6.5-29.5 44.6-53.4 68.8-69.2 18.9-12.3 68.6-41.2 89.5-43.5 15.6-1.7 55.8 8.9 72.8 13 32.2 7.7 82.2 19.7 108.9 38.1 28.8 19.8 56.1 41.5 79.2 67.8 28.8 32.7 32.2 44.2 17.2 86.3-24.8 69.4-61.7 123.7-101.8 184.2-17.7 26.7-44.5 75.8-67.1 95.9-5.7 5-12.1 7.7-19.2 3.5-6.7-4-7.2-14.3-9.9-21.1-5.9-15.2-13.1-29.9-18.8-45.2-1.4-3.7-7-24.7-8.1-25.4Z" class="fill" data-original-prefix="fill"/><path id="outline-shading-ear-rt" class="outline"  fill="#000" d="M1693 608c1 1-4.3 15.7-5.2 18.2-24.8 67.4-59.8 119.2-98.8 178.2-21.9 33.2-41.9 67.9-68 98.1-1 .6-21.9-3.9-22.8-4.8-6.2-16-12.7-32-18.2-48.3-2.8-8.2-5.2-22.3-8.8-29.2-6.7-12.9-25.5-1.8-31.6 6.8L1375 927.4c-15.2 15.6-73.2 61.5-94 58.1-27.4-10.3-54.4-22.9-76-43.1-7.2-6.8-11-13.5-16.6-21.4-1.2-1.8-4.3-3.7-4.9-5.1-2-4.3 2-12.6 4.7-16.3 58.6-63.6 106.8-135.2 139.3-215.7 2.7-6.6 6.2-14.1 8.2-20.8 12.4-39.6 1.6-77.7 5.3-117.7.1-1.6 1-7.4 1.9-8.1 36-.7 71.8-5 107.1 5.1 4.8 4.7-.7 11.5 1.5 16.5.9 1.9 19.3 19.7 22.5 22.5 22.5 20.7 50.8 41.6 76.3 58.7 18.7 12.6 25.8 21.5 49.7 12.2 27.4-10.6 54.6-28.2 81.7-40.3 1.6-.7 10.7-4.9 11.3-4.1Zm-243.1 187.9c.7-1.2-.2-3.3-.7-4.6-1.1-3.3-15.2-30.7-16.9-31.2-14.9 4.2-27.9.2-41.7 8.1-20.9 12-39.7 56.6-52.5 78.5-13.9 23.7-28.5 47-45.2 68.8-10.3 13.5-11.2 12-16.5 29.5-2.2 7.2-4 14.6-5.5 22 .7.7 7-4.7 8-5.5 19.1-15.9 39.4-37.3 56.5-55.5 15.3-16.3 30.8-30.3 38.5-51.5 3.8-10.5 6.9-31.8 15-38 7.4-5.8 26.8-8.1 36.8-11.2 3.2-1 23.3-8.1 24.1-9.4Z" class="shading" data-original-prefix="shading" opacity=".2"/><path id="outline-ear-rt" class="outline"  fill="#000" d="M1204 941c-.3 1.7-3.1-.2-3.9-.6-7.2-3.8-17.7-9-23.1-14.9-11.1-12.2-18.6-30.8-29.5-43.5-1.1-2.6-.7-7.5-.5-10.5.9-20.2 13.6-36 21.8-54.2 9.5-20.7 16.6-37.4 27.3-57.7 35.2-66.4 43.6-127.5 46.8-202.2.5-10.7-2-36.2 1.5-44.5 1.4-3.3 13-13.4 16.5-16.5 21.7-19 49.4-37.3 73.5-53.5 14-9.4 50.3-35.6 64.1-39.9 42.4-13.3 127.4 18.5 168.4 35.5 32.1 13.3 72.4 28.4 93.2 56.8 15.6 21.2 47 74.4 50.6 99.5 1 7.4-8.7 31.3-11.8 39.8-35.5 98.7-94.4 215.4-170.5 288.5-7.1 6.9-19.8 19.2-27.6 24.4-1.1.8-9.4 5.2-9.9 4.6-1.7-24.9-6.5-50.8-13.7-74.8-1.4-4.7-3.2-9.4-5.1-13.9-1.9-4.4-15.5-30-19.5-29.2-6.2 1.1-28.3 40-31.8 47.2-5 10.4-7.9 21.5-12.3 31.7-5.6 12.7-20.1 19.7-30.5 28.5-11.3 9.6-20.6 22.3-32.7 30.3-10.6 7-40.6 20.7-52.8 20.2-11.7-.4-41.3-16.4-51.5-23 8.6.3 16.8 5 25.6 5.9 37.8 3.8 59.7-18.4 86.4-41.4 21.6-18.5 29.3-31.5 42.5-56.5 8.9-16.8 16.4-34.2 23-52l26.6-18.7-60.6-103.4c-1.9 2-1.5 4.5-3 7-3.9 6.4-17.6 18.5-23.4 25.6-34.1 41.1-71.2 101.1-93.2 149.8-10 22.1-22.8 52.5-10.8 75.7-1.4.3-2.4-.2-3.7-.8-4.5-1.9-23.8-17.8-25.1-21.9-1.9-6.1 3.5-21.4 1.9-28.7 12.2-19.5 26.9-37.6 38.1-57.9 24.5-44.3 42-94.9 71.4-136.6 6-8.5 14.6-15.7 20.8-24.2 4.8-6.4 10.9-14.3 10.6-22.4-.7-14.4-5.8-30.2-6.9-44.1-.2-2.2-.4-4.6 0-6.8.7-4 11.7-17.3 14.8-22.2 8.2-13.4 22.4-40.6 6.2-52.8-12.2-9.3-28.9 1.5-42 2.5-1-12.5 18.7-18.5 28.5-22 25.7-9.4 40-10.3 66.3-2.2 5.3 1.6 28 8.1 26.1 15.6-.4 1.7-9.4 6.6-11.8 8.3-20.8 15.2-37.8 32.8-50.6 55.4-3.8 6.6-13.3 26.5-13.1 33.4.2 5.3 6.5 22.2 8.6 28.2 8.4 23.3 20.3 47.1 34.8 67.2 5.7 7.9 14.6 16.1 19.4 23.6 6.2 9.6 11.6 26.1 16.9 37 15.2 31.3 30.8 62.3 43 95 1.7 1.2 2.3 6.8 4.3 6.6 9-.9 29.9-27.5 35.9-35.1 49.7-62.8 110.8-167 129.1-244.9 2.2-9.3 5.9-23.2 2-32-5.7-13.1-34.2-49.7-44.6-61.4-47.2-53.1-148.3-76.6-216.4-84.6-41 14.3-80 35-114 62.1-6.3 5-26.1 21-29 27-14.1 28.2-19.5 95.6-22.5 128.5-2.4 27.1-.3 58.6-10.8 83.2-7.8 18.2-18.3 36.1-26.3 54.7-14.2 32.7-25.5 66.6-39.8 99.2-2 14 18.3 43.4 27.9 53.4Z" class="outline" data-original-prefix="outline"/></g><g id="06_Left Ear" data-trait="cracked"><path id="fill-ear-lft" class="fill"  fill="#fff" d="m752 993 3-3-53.9-36.7 23-48.7c-.3-1.7-25.8-15.7-28.6-19.7-5.5-7.9 5.5-19.8 7-28-20.2-21.9-39.9-44.5-62.5-64-3.2 11.8-7.8 25.1-13.8 35.7-.5.9.4 1.7-1.5 1.1-14.2-7.6-29.1-14-43.3-21.7-19.6-10.6-58.5-31.1-72.8-46.2-27.5-28.9-52.5-61.9-79.7-91.3L379.4 549c-6.2-63.5-19.6-125.9-35.4-187.6-6.4-25-20.4-60.6-22-85-1.5-24.5-1.3-48.4-1.9-72.1-.1-3.8-2.9-15.6 0-18 1.6-1.3 13.8-5.5 16-5.1 34.7 16.9 71.1 30.5 105.7 47.4 50.9 24.8 99.7 57 150.3 82.7 38.7 39.9 85 75.9 123.1 115.9 24.1 25.3 45.6 55.7 69.5 81.5 10.7 66.2 14.2 133.5 20.7 200.3l82.8 169.2-33.4 54.7c-8.6 11.6-42.3 33.3-55.9 41.1-8.3 4.8-25.9 11.6-34.7 14.9-3.6 1.3-8.1 3.5-12 3.9Z" class="fill" data-original-prefix="fill"/><path id="outline-shading-ear-lft" class="outline"  fill="#000" d="M546.1 369.9c-4.9-11.5 3.5-11.7 10.8-16.4 3.7-2.4 19.4-12.5 21.1-14.9 2.1-2.9 4.7-12.6 4-16-1.2-6.3-14.1-5.9-18.4-6.6-24.9-4.1-55.8-9.7-79.6-17.4-11.6-3.8-23.1-10.4-34.8-14.4-2.1-.7-11 8.7-11.2 9.4-.3 1.5.9 1.6 1.6 2.3 7.9 7.4 22.6 14.2 31.9 22.1 7.1 6.1 14.7 14.9 21 22 7.3 8.2 19.8 27.4 27 33 11.8 9.3 31.4 14.5 45 26 1.5 1.3 6.5 6 4.5 8-3.9 3.9-32.2-15.7-37.5-18-4.3 0 2.5 5 2 7-5-1.8-15.8-12.4-20.2-12.8-2.2-.2-9.2 4.6-7.3 6.8 1.5-.1 2.7-1 4.2-.8 7 .7 37.8 28.3 44.3 34.8 2 1.9 12 12.3 12.3 13.8.5 2-.9 3.8-.8 5.7.8 13 2.9 26.1 3.9 39.1 1 12.4.1 41.2 4.8 51.2 1.3 2.9 4 3.1 5.3 4.7 3.1 4-7 13.2-11.7 13.5-9 .6-24.8-4.2-34.9-5-2.3-.2-4.7 0-7 0-2 3.2 1.5 4 4 5 7.7 3.2 33.1 7.9 41.1 7 7.4-.9 7.3-7.3 12.5-11l19 48c0-9.5 2.2-20.1 1-29.5-.5-3.9-7.2-16.5-5.6-18.5.8-1.1 23-5.9 26.4-6.6 6.9-1.4 32.4-6.6 37.5-5.1 2.3.7 15.5 17.2 16.7 20.2 6.3 15.2 10.3 40.2 15.7 57.3 28 89.6 70.8 173.1 130.3 245.7 7.6 9.3 36.2 38.8 38.5 47.5 3.1 11.7-7.4 26.7-15.5 33.6-19.8 16.7-48.3 36.1-72.9 44.4-3.8 1.3-13.1 1.9-16.8.3L710 954.4l13.5-37.3c16.8 15.6 32.2 34.6 50.5 48.5 1 .8 1.3 2 3 1.5-3.2-13.1-2.5-27-4-40.5-15-22.6-34.3-41.7-51.5-62.6-1.8-3.5 4.3-7.8 3-10.9-5.3-6.7-10.5-13.7-15.3-20.7-6.2-9-21.1-27.5-24.7-36.3-6.1-14.9-7.5-36.4-12.8-52.2-1-3-1.5-5.8-4.2-7.8-.8 4.7 1.7 9.8 2.4 14.6 2.1 15.5 4.5 26.3 7.6 41.4 2 9.5 3.4 19.1 5.4 28.6 0 1.9-9.3 8-11 7-8.1-9.3-15.9-20.5-24.3-29.2-1.4-1.5-7.2-4.8-7.6-6-1-3.2 12.7-21.6 11.9-27.3-1.9.2-5.4-1.8-6.9-.9-1 .6-8 19.9-8.8 22.7-1.8 6-6.9 35.3-9.7 37.3-2 1.5-4.2 1.2-6.3.2-35-21.2-70.6-41.5-104.3-64.7l-22-24c.3-1.2 2.2-.3 3 0 8.3 3.3 24.2 15.6 33 21 20.7 12.4 44.2 26.2 66.2 35.8 8.8 3.8 17.8 8 27.7 6.8-1.7-5.2 15.4-34.7 14-36-35.5-1.8-70.1-17.8-99.5-37-17.3-11.3-24.8-17.3-36.7-34.3-32.7-46.7-58.4-103.5-75-158-3.1-10.1-8.3-25.3-9.7-35.3 0-.6-.3-1.6.5-1.5 14.4 26.7 27.1 57.2 45.3 81.7 4.8 6.5 11.5 16.2 20.2 16.3-.3-2.8 1.1-5.2.6-8-2.1-13.2-15.6-31.9-17.4-43.7-1-6.8 2.8-14.2 1.6-21.1-5.7-1.1-24.3-1.8-19.7-11.4 4-8.4 16-12.8 6.2-22.6l-42.9-30.1-38.5 25c.9-5-3.4-14.8-1.5-19 .5-1.2 14.6-15 16.6-16.4 4.5-3.4 9.3-5.5 14.9-6.1l-44-37c-2.6-6.9-7.6-26.6 5.5-16.5 14 10.9 28.1 22.9 41.5 34.5s25.6 24.6 39.5 35.5c.8.2.5-.8.5-1.5 0-4.5-4.5-25.4-6.2-29.8-4.6-12.1-20.6-26.7-24.3-37.7-5.5-16.1-8.1-31-15-48-10-24.6-22.3-54.6-33.7-78.3-1.4-3-8.3-11.2-7.6-14.1s3.7-4 6.6-3c3.9 1.4 11.2 6.4 15.2 8.8 12.3 7.4 23.9 16.2 35.8 24.2 9.7-3.9 24.1-12.3 34.8-10.7 8.2 1.2 30.2 14.2 39.9 18.1 12.1 4.8 27.2 8.9 40.2 9.8 4.7.3 14.4-1.2 17.5-.5 2.9.6 40.7 26.5 44.9 30.1 1.2 1 4.1 3 3.9 4.7-.2 2.7-9 14.5-11.3 16.7-3 2.7-31.4 21.3-34.5 22.5-1.9.7-3.8.9-5.8.4ZM659 772c-2.3-.4-1.6.1-2.2 1.3-1.2 2.3-5 11-4.8 13.1.5 4.9 9.7 13.7 13 17.6z" class="shading" data-original-prefix="shading" opacity=".2"/><path id="outline-ear-left" class="outline"  fill="#000" d="M844 941c15.5-16.5 32.2-43.8 28.9-67.4-6.7-13.7-9.4-29.6-15.7-43.3-6-12.9-15.5-26.5-22-40-9.5-19.5-34.1-68-37-87-7.6-49.1-6.7-103.9-13.1-153.9-1.5-11.5-5.2-27.9-11.6-37.4-13.5-20.2-34.8-45.2-50.5-64.5-33.9-41.7-67.6-75.2-111.7-106.3-1.6-1.1-13.6-9.8-14.3-9.2-1.2 19.7-19.5 21.3-31.5 31-11.5 9.4-7.4 12.4-1.7 23.6 9 17.6 20.3 34.2 32 50.1-5.7 47.5 6 95 22.2 139.2l52-28c1 1.1-9.1 24.9-9.8 28.7-2.9 17 7 62.6 12.5 80 5.5 17.5 13.9 29.8 25.8 44.2 45.9 55.8 63.5 122.1 103.3 180.7 3.7 5.5 18.5 23.3 19.2 27.8.4 2.9-.3 6 0 8.9.6 4.9 3.1 17.6 1.5 21.5-1.4 3.2-26.3 24.1-28.5 22 .6-4.8 4.2-9.9 4.9-14.6 4.6-33.1-34.5-99.7-51.7-129.1-18.9-32.3-44.1-69.1-69.2-96.8-2.6-2.9-13.1-11.6-14.1-13.2-2.1-3.6-.5-15.8-.9-20.8-1-13.7-9.9-51.7-17.6-62.4-10.8-15-26.2 8.7-29.3 19.2 21.2 32.6 47.1 67.2 53.7 106.4.8 5 .5 11.5 1.4 16.6 3 17.9 10 35.5 12.3 53.7l32 33c1.3 4.3-5.9 12.4-7.8 17.3-.6 1.5-2.3 6.4-1.7 7.5.5.9 14.3 10.5 16.9 12.7 2.7 2.3 13.6 11.5 13.8 14.2-8.8 14.5-14.1 30.7-19.7 46.6.6 2.3 16.1 12.2 19.2 13.9 19.4 10.5 30.2 13.7 52.3 8 6-1.5 11-4.9 17.4-5.1-8.4 8.7-23.5 14.3-35.7 18.8-16.9 6.2-30.8 10.7-48.3 2.8-6-2.7-10.1-9.7-15.6-12.4-2.4-1.2-4.6-.9-6.9-2.1-3.8-2-11.7-9.6-11.2-14.3 8.2-19.5 16.7-38.8 22.7-59.1-3.2-5.2-30.5-14.7-31.5-16.7-1.6-3.2 6.1-19 7.6-23.5.8-2.6 3.5-8.5 2.8-10.8-13.6-17.7-29-33.7-43.8-50.2-4.2 1.1-1.1 7.9-1 11 .4 14.2-.4 28.4 0 42.5-32.3-9.8-63.2-27-91.9-44.6-48.4-29.7-87.6-62.3-118.5-110.5-35.1-54.7-66.7-124.9-79.1-188.9-3.4-17.2-.6-13 2.4-27.6 5.1-24.9-5-87.6-15.4-111.4-6.4-14.6-18.5-21.4-22.2-37.8-2-8.9-3.4-20.6-4.3-29.7-3.1-32.8-8.7-94.9-1.3-125.3 1.7-7.2 1-10.7 9.5-9.9 30.4 2.9 86 26.2 115.8 38.3 62.2 25.3 145.8 69.1 198.4 110.6 15.7 12.4 35.3 35.4 49.2 50.8 39.5 43.8 77.3 92.8 110.1 141.9 3 4.4 4.7 3.6 5.4 10.6 2.1 21.1 1.2 43.6 3 65 4.4 51.5 12.5 128.1 42.2 170.8 3.6 5.2 8.8 10.1 12 15 7.4 11.4 13.7 33.5 20 47 8.3 17.9 19.8 31.8 20.8 52.2.2 3.2.5 7.5-.5 10.5-10.9 13-19.9 33.6-31.5 45.5-4.5 4.6-15 9.8-21 13-1 .5-3.5 2.4-4 .5ZM553 303c-19.8-11.4-38.6-24.7-58.3-36.2-25-14.6-52.7-29.4-78.6-42.4-28.2-14.1-56.9-26.9-87-36.4-2.4 25.4-1 51.1 2.1 76.3 1.6 12.7 3.6 27.3 6.1 39.9 4 19.6 14 30.2 20.7 48.3 3.8 10.2 11.3 46.2 15.9 51.1 8.2 8.5 19.3 16.7 28 25 9 8.5 42.3 43.8 50.5 46.5 2.5.8.8-1 .8-1.8-1.2-10.8-2.9-30.3-7.8-39.3-5.9-10.9-29.6-26.5-31.3-34.7-2.1-10.2 1.5-27.8 1.8-38.7.3-8.7-1-17.6 1-26.1-2.8-7.2.9-20-1.7-26.2-.5-1.3-13.7-11.4-16-13-7.8-5.6-16.5-9.8-23.9-16.1l-22.5-39c13 3.4 21.1 15.6 32.1 22.4 6 3.7 13.1 5.8 18.8 10.2 3.1 2.4 15.1 15.9 16.7 16.2 7.7 1.5 17-15.5 28.8-13.8 3 .4 14.5 8.1 18.9 10.1 21.2 9.7 53.9 17.5 77.1 18.9 1.6.1 6.8.8 7.5-1Zm5 97c-7.9-14.4-11.9-29-20.2-43.3s-25.9-42.9-41.6-48.4c-14.8-5.2-33.1-5.9-48-12-6.3-1.9-10.5 2.8-16.3 3.8 21 20.8 42.8 40.2 60.4 64.1 1.6 2.2 8 13.4 8.7 13.8.5.4 7-2.8 9.4-3 13.7-1 34.4 20.4 47.5 25Zm-8.7-43.3c2.8 2.7 7.1 3 10.7 1.9 1.2-.4 18.3-13.4 20-15 3.2-3.1 9.9-15.4 7.1-19.1-.3-.5-8.7-5.7-9.8-6.3-7.5-3.6-23.7-2.5-32.8-3.2-5.4-.4-11.1-1.4-16.5-2-.8.8 8.6 18 9.8 20.6 3 6.3 6.6 18.4 11.5 23Zm-.6 327.6c-1-1-3-1-4.2-2.3-2.4-2.7-9.6-43.6-11.6-51.4-8.5-32.9-20.2-65.6-41.8-92.3v-1.6c14.5-20 14.5-48.4 11.8-72.1C496.6 410.5 468 358.3 429 321l-.8 63.3c1.7 9.4 18 18.9 24.3 25.7 12.4 13.4 18.8 59.9 19.5 78.5.2 4.2.3 31.1-1 32.5-4.4-.1-22.9-10.9-24.9-4.4-.3 1.1 2.5 10.8 3.1 12.7 2.8 7.5 9.4 15.7 9.3 23.7-3.8-8-26.2-33.4-26.4-40.5-.3-13 24.3-5 25.9-15.1 1.4-8.8-6.8-9.4-12.7-13.2-7.3-4.7-13.8-11.8-21-17-3.1-2.2-13.1-9.4-16.1-10-8.6-1.7-20.1 11.1-28 14-2 25.6 5.3 50.6 12.1 75 19.8 71.4 48.5 126.6 98.2 181.8 32.5 36.1 59.6 49.1 100.2 72.8 11.8 6.9 22.8 15.6 35.3 21.2.5-11.8 3-22.4 7-33.5 4.2-11.8 18.5-34.5 20-44 .5-3.1.2-6.1-.7-9.2-2.5-8.5-18.4-31.3-23.7-41.3-6.3-11.7-12-23.9-17.5-36l-2 7.5c-1.2 18.7.6 32.5 7.3 49.8 2.8 7.2 6.5 13.8 9.7 20.8-1.1 1-13.5-5.7-15.7-6.8-22.8-12.2-43.5-26.7-61.6-44.9Zm-22.6-146.4c12.6 3.8 28.2 5.4 41.4 4.2 8.9-.8 16-12.1 19.5-19.5-4.7-22.5-3.6-47.3-9.8-69.3-2.8-9.8-6.8-20.8-10.8-30.2-15.3-9.9-30.8-24.7-46.5-33.5-3.9-2.2-7.2-4.4-11.9-3.6-.2 1.4 0 2.6.6 3.9 2.3 6.3 9 15.7 12.3 22.7 2.8 6 13.3 28.2 13.9 33.1.8 6-5.5 28.1-6.7 35.9-1.7 12.3-3.2 28.6-3.2 40.9s1.7 10.2 1.2 15.4M404 445c.5-3.9-3.8-5.8-6-8.5L375 419c2.4 12.5 3.6 25.2 4 38 8.3-3.9 15.5-10.8 25-12m122 102c.7 6 1.4 11.9 2.7 17.8 5.1 22.8 24.3 79.3 45 91 10.2 5.8 17 3.1 20.6-8 1.7-5.4 7.7-29.6 7.7-34.3 0-6.1-3.8-19.1-4.8-26.2-2.5-16.4-5.2-32.8-7.2-49.3-4.5 4.7-9.6 11.8-16.5 12.9-7.6 1.2-45.7-5.7-47.4-3.9Zm147 263c-3.9-6.4-8.6-51.9-11-53.5-1-.7-1.9-.5-3-.5-.2 7.4-9.1 21.8-7.8 28.2.7 3.8 5.8 10.5 8.3 13.8 1.7 2.2 11.1 13.8 13.5 12" class="outline" data-original-prefix="outline"/></g><g id="07_Head" data-trait="tophat"><defs></defs><path id="fill-head-main" class="fill"  d="M1447 362.5c5.3 5.2 4.4 15.3 3.8 22-3.8 43.6-12.4 86.5-18.9 129.8-13 92.5-18 185.6-15.7 279 5.5 9.3 17.2 10.9 20.9 21.7-5 40.7-7.1 81.2-4.6 122.1.3 3.9 1.2 13.9 2.5 16.8 2.1 5 8.1 3.7 12.9 3.2 23-3.2 45-9.5 67.2-16.3 31.9-9.1 63.8-18.3 95.6-27.5-16.8 78.8-76.7 144.1-143 186.4-72.6 45.2-154.3 63.9-237.4 79.7-126.9 23.5-251.1 27.6-378.6 6.3-84.6-14.6-170-30.6-246.6-71-77.2-42.2-149.5-113.2-168.2-202q63 18.75 126 37.2c12 2.1 23.9 4.9 35.9 7 3.5.4 11.6 1.5 13.3-1.6 1.5-2.6 2.8-16.4 3.1-20.3 2.4-40.2 0-80-4.6-120 .4-3.9 6.9-10.1 10-12.4s9.9-3.6 11-8.3c.9-4.3.5-14.1.4-19-.7-97.9-11.3-195.2-22.4-292.4-4.1-32.8-9.8-65.4-12.7-98.4-.5-6.5-1.2-11.9 1.4-18 4.7-9.8 16.7-8 25.6-9.1 21-4.9 41.7-10.5 62.9-14.2 129.8-19.8 261.1-23.5 392.3-21.3 98.2 2 196.3 7.1 293.3 23.2 17.3 3.1 34 8.2 51.1 12.3 7 1.6 17.5-.4 23.1 5.1z" class="fill" data-original-prefix="fill"/><path id="fill-head-brim" class="fill"  d="M634.7 831c1.9-.5 7.6 5.1 10 6.4 80.9 46.7 188 47.7 278.8 52.4 155.7 7.7 315.2 5.9 464.3-44.4 9.1-3.8 16.8-10 25.5-14.4.5 0 1.8 1.5 1.4 2.3-.5 9.3-.8 13.9-1.4 23.2.4 20.7.9 41.4 1.3 62.1.4 13.4 4.2 26.3 3.9 39.7-.7 9.1-9.1 14.1-16.5 18.1-11.6 6.3-23.8 11.5-36 16.7-207.2 91.1-466.3 92.5-674.7 4.2-18.5-7.7-40.3-14.6-55.8-27.8-9-8.7-5-21.3-3.5-32.1 1.7-26 2.6-51.9 2.6-78s-1.7-17.4-1.6-25c0-1.2.4-3.1 1.7-3.5Z" class="fill" data-original-prefix="fill"/><path id="shading-head2" class="shading"  d="M1522.7 939.1c-25.1 5.8-49.3 14-74.7 18.2-2.8.3-10.4.9-11.9-1.3-4.1-9.8-2.4-21.5-2.7-31.8l-2.1-45.9c.3-7.7 2.8-19.8 1.6-27-1.1-6.7-8.1-5.7-10.3.2-4.3 13-5.7 26.6-8.8 39.9-7.3 28.3-17.6 57.1-39.6 77.4-21.9 20.3-52.1 30.7-79.7 40.5-64.3 22.7-129.1 36.2-197.1 40.8-132.4 7.5-266.2-2.1-387.9-58.6-29.2-13.5-50.2-42-65.9-69-4.6-12.6-8.1-25.7-11.3-38.7-2.5-11.7-3.4-24.3-8.5-35.2-1.8-1.8-4.7-2.2-6.9-.6-3.9 9.5-1 21.6 0 31.5l-2.1 45c-.3 10.2 1.6 22.9-3 32.2-1.6 1.8-9.1 1.1-11.6.8-25.5-4-49.7-12.4-74.7-18.2-.8-.2-2.7-1.3-3.1 0 14.9 18.6 32.1 33.5 51.3 47.6 32.8 22.3 68 39 105 53.1 224.4 82.1 475.7 81.2 699.3-3.2 55.2-21.2 110.5-50.7 148-97.6-.3-1.2-2.2 0-3.1 0h-.2Z" class="shading" data-original-prefix="shading"/><path id="shading-head" class="shading"  d="M1416.1 791.4c0-6.2-.2-9.3-.3-15.5-1.2-44.3-2.5-88.6-3.7-132.9-43.9 110.9-155.8 188.6-270.3 209.6-90 16.3-181.7-2.5-271.9-3.3-69.8-7.9-137.8-22.6-201.6-52.8-12.1-6.9-24.1-13.7-36.1-20.6 0 7-.2 10.5-.4 17.5 0 6.7-16.3 9.3-13.6 14.1 28.1 16.1 55.7 32.2 86 43.8 124.5 42.2 258.4 42.1 388.3 38.5 115.7-3.7 234.4-17.2 334.1-80.7 1.2-1.5 1.8-2.3 3-3.9-4.4-5.2-13.4-5.1-13.5-13.8" class="shading" data-original-prefix="shading"/><path id="outline-head-tophat" class="outline"  d="M1423.5 791.6c8.5 4.1 18 10.7 20.8 20.3-3.9 36.7-6.1 73.2-4.8 110.1.2 9.2 0 19.1 2.6 28 1.2.8 2.2.3 3.3 0 44.7-4.7 87.7-21.6 130.5-34.4 12.7-3.9 25.2-7.9 37.7-12.4 4.8-1.4 4.7 10.9 4.5 13.9-3.7 50.3-45.1 101.9-79.5 136-87.7 84.4-198.8 114.1-315.4 135.6-129.9 23.2-257 24.6-387.1 2.1-123.5-22-242.7-52.3-333.5-144.4-31.9-33.4-68.6-81.7-72.9-129.3-.2-2.6 0-14.6 3.8-14.2 12.7 4.7 25.4 8.8 38.4 12.8 42.8 12.8 85.7 29.8 130.4 34.6 1.2 0 2.7.8 3.5-.4.6-.8 2.2-14.4 2.3-16.9 1.7-25.9 1.6-52.1-.3-78-1.4-14.3-5.2-28.6-4.2-43.1 2.8-9.8 12.5-16.2 21-20.7l.6-75.9c-5.5-70.5-11.9-141-20-211.3-4.6-36.6-10.9-72.9-14.3-109.7-1.1-12-3.3-26.9 4.2-37.3 5.9-5.9 14.8-4.4 21.8-5.9 38.2-8.5 76.4-16.4 115.2-21.2 193.6-22 389.7-22 583.4 0 38.9 4.9 77 12.7 115.2 21.2 10.6 1.7 23.9 1.3 26.2 14.6 5 30.2-4.4 63.9-8.8 93.8-3.8 25.2-8.4 50.4-12.1 75.6-11.5 85.1-15.2 170.6-12.7 256.4h.2ZM985.7 340.3c-99.5 3.1-198.2 16.6-297.3 25.7-22.7 1.7-45.6 1.8-68.2 4.7-1.2.2-3.5.8-4.2 1.8-1.1 21.6 5 44.5 8 65.9 8.3 70 15.2 140.1 21.1 210.3 4.1 50 8.3 99.9 6.2 150.2 0 2.6-.6 11 .3 12.5 1.1 1.8 19.2 9.8 22.7 11.1 62.3 24 128.7 32.6 194.8 38.8 126.3 11.1 253.1 9.5 378.8-7.8 46.7-6.7 100.1-14.4 141.7-37.9 2.6-1.6 6.5-3.3 6.4-6.7 0-88.7 7.2-177.1 16.1-265.3 5.4-51.3 13.2-102.4 18.6-153.7.2-2.5 1.8-16.6 1.3-17.4-.6-1-2.9-1.7-4.2-1.8-22.6-2.8-45.5-3-68.2-4.7-124.5-11.3-248.5-28.2-373.8-25.7h-.2zM634.7 831c-1.3.4-1.7 2.2-1.7 3.5-.2 7.6 1.6 17.3 1.6 25 0 26-1 52-2.6 78-1.5 10.7-5.5 23.3 3.5 32.1 15.5 13.1 37.3 19.9 55.8 27.8 208.4 88.2 467.5 86.9 674.7-4.2 12.1-5.2 24.4-10.3 36-16.7 7.4-4 15.7-9 16.5-18.1.3-13.4-3.6-26.4-3.9-39.7-.4-20.7-.9-41.4-1.3-62.1.5-9.3.8-13.9 1.4-23.2.3-.8-.9-2.1-1.4-2.3-8.8 4.3-16.5 10.6-25.5 14.4-149.1 50.4-308.7 52.1-464.3 44.4-90.8-4.6-197.8-5.8-278.8-52.4-2.3-1.3-8.1-6.9-10-6.4Zm954.1 104.6c-15.9 6.5-31.6 13.2-47.6 19.4-20.4 7.1-40.9 13.3-62 18.3-14.4 2.8-29.5 3.3-43.6 7.8-3.1 1.3-7.2 5.1-10.5 6.9-89.2 48-186.1 73.5-286.1 86.6-169.7 21.2-356.6-1.1-508.8-82.4-5.6-2.9-13.4-9.2-18.5-11.3-13.7-4.5-28.6-4.9-42.8-7.6-26.1-6.1-51.3-14.2-76.4-23.7-10.4-4.3-20.2-10.1-30.9-13.7-1.5-.4-2.8-.8-2.4 1.2 69.1 161.9 254.2 217.9 413.7 242.1 82.6 12.2 164.8 16 248 7.3 144.6-15.8 311.2-50.3 412.9-163.5 23.1-26.5 41.7-55.1 55.1-87.6v.2z" class="outline" data-original-prefix="outline"/><path id="outline-head1" class="outline"  d="M1274 901.4c-10.6 2.3-17.5-5.1-23.9-9.6-1.9 1.3-3.7 2.9-6 3.8-15.2 6-31.7 10.2-47.5 12.1-15.2 1.8-32.4 0-47.7 1.9-2.3.3-2.3 2.5-6 3.2-4.6.9-12-.4-17 .5-1.3 3.3-2 4.9-3.4 8.2 10.1 9.7 20.5 19 31.1 28.1 4.8 2.2 21.6 0 26 1.2 1.3.4 3.6 3.8 6.5 4.7 14.8 4.6 31.9 5.8 47.2 9.4 5.6 1.3 17.4 4.7 14.1 10.1-8.2 5.4-20.1 6.1-29.6 6.6-.2-2.4-.4-3.6-.6-6-13.8 2.9-27.9-1-41.3.7-1.8.2-2.9 3.3-4.7 3.7-2.1.5-6.6-1.3-9 .3-3.3 4.5-5 6.7-8.5 11.1-2.4-4.5-3.8-9.4-6.5-13.8-3.7-6.2-9.4-10.8-11.7-17.5-12.1-5.2-24.1-10.6-36-16.3-3.6-.7-6 1.5-10.1 1.1-2.7-.3-16.7-5.8-20.8-7.1-4.2-1.4-8.9-2.4-13.2-3.6 2-6.2 4.1-12.4 5.2-18.7.3-1.5-1.1-2.8-.9-4.4.7-4.1 7.9-6.2.8-10.2-1.4 0-2.1 0-3.5.2-3.9 2.3-14.2 2.8-17.3 5.6-2.6 2.3-2.2 8.4-3.9 10.2-1.1 1.2-4.4.8-5.8 1.8-1.7 1.2-1.8 7.1-4.3 7.5-3.3-1.2-17.4-4.2-18.8-.7 2.4 13.4 4.5 25.3 2.7 37.7-1.2 8.5-5.9 18.1-6.3 27.6-6.5-4.8-9.7-7.3-16-12.2-3.7-1.2-5.6-1.8-9.2-3 10-8.5 20.1-20.2 17.6-34-3.5-19-30.2-26.3-46.8-22.4.9-4 1.3-6 2.1-10-13.4 1.5-26.7 2.8-40.1 3.9-4.2 6.6-6.4 9.9-10.8 16.5-8.2 2.2-12.3 3.3-20.6 5.4-3.2 2.5-7.3 19.7-7.6 23.8-.4 6.6 5.3 13.1 4.6 19.7-6.4-2.3-12.7-10.7-18.3-12.7-3-1.1-5.5 1.2-9.7 0-1.6-.5-7.4-4.6-7.4-5.7 6.2-4.4 9.3-6.6 15.3-11.1 1.4 2 2.2 4.3 4.4 6.1 1.2.9 1.3 2 3.2.8 1.5-1 12.2-17 12.6-18.7 0-.4.5-.8.2-1.1-2.4-.6-3.6-.9-6-1.6 25.3-10-18.8-11.8-24.7-11.6-6.7 9.5-14.9 18.7-25.8 23.2-5.4-2.8-11.5-3.4-17.9-4.5 11.8-14.4 23.3-28.9 34.4-43.8-1.7-1.8-4.3-4.8-7.2-5.2-1.9-.3-23.9 2.1-26.2 2.7-4.1 1-4.4 3.9-6.9 4.7-2.8.9-20 1-20.8 1.4-.7 9.8-4.5 21.9-10.9 29.5-.7.9-4.9-.3-7.7 1.9-10.7 8.4-21.7 18.2-28.4 29.8-.7 1.2 2.1 2.8 1.9 3.9-.3 1.9-3.8 5.3-4.4 8.6-.8 4.3 2.1 10.2 2 14.7 21.1 7.6 42.2 14.8 63.6 21.5 2.8.4 12.2-3 11.4-5.5-6.8-9.4-13.4-18.8-20-28.4 2.6-6.1 3.8-9.1 6.4-15.2 9.1.7 16.9 9.1 23 15.2 15.6 15.6 30.9 32.4 47 47.9 1 .4 1.5.5 2.5.9 3.4-.4 5.2-.7 8.6-1.1 4.2 3.6 6.4 5.4 10.8 8.9 8.1-2.3 12.1-3.4 20.1-5.8 15.7 3.3 31.3 6.4 47.1 9.3.5-2 .7-3 1.1-5 23.2 2.3 46.4 8.3 68.6 4.4 3.3-.6 6.9-3.3 9-3.4 5.5-.2 17.8 6 23.7 5.7 5.4-.3 11.6-5.5 15.7-5.9 10.1-.8 20.6.5 30.7.3 18.7-.5 44-2.3 57.6-17.5 48.6 0 100.8-7.3 142.8-31.6 39.7-23-10.1-37.3-30.8-40.8-19.8-2.9-39.4-6.1-59-9.8 32-4.1 64.1-6.8 96.3-9.4 1.1-1.7 1.7-2.5 2.7-4.2-.5-.9-.8-1.4-1.3-2.3-10.6-5.5-21.2-11.1-31.7-16.9v.3Zm-353.4 64.3c.2-5.1 1.2-10.7 4.9-15.2 9-1.2 33.1-3.2 31.5 10.8-1.5 12.9-22.3 16.8-33.4 17.6-2.2-.4-3.2-11.2-3.1-13.2Zm45.5 42c-11.4 2.8-23.8 2.1-35.4.4-2.2-6.5-3.2-9.7-5.3-16.2 10.3-1.1 22.9-4 31.9 3.1 2.9 2.2 13.7 11.6 8.7 12.8Zm118.5-4.2c-5.8 10.7-22.6 8-33.6 7.2.5-3.6-2-6.9-2.3-10.4-1.2-12.8-1.2-25.3 0-38 0-.9-.4-1.8 1.8-1.3 9.6 1.9 21.1 5.4 28.7 10.8 9.3 6.6 10.4 22.5 5.4 31.7" class="outline" data-original-prefix="outline"/><path id="outline-head2" class="outline"  d="M749.2 941.4c1.9.5.8 2 .3 2.7-7 9.8-17.3 17.5-28 23.2-5 2.7-5.6-.2-6-3.4-1.4-11 9.2-17.5 18.3-20.5 2-.7 13.9-2.5 15.5-2Z" class="outline" data-original-prefix="outline"/><path id="outline-head3" class="outline"  d="M1097.8 944.4c10.3-2.3 31.9-1.5 32.2 13.4 0 4.1-1.8 5.2-7.5 3.3-9.7-3.3-19.1-8.4-28.3-13.1-2.1-1.5 1.7-3.2 3.6-3.6" class="outline" data-original-prefix="outline"/><path id="outline-head4" class="outline"  d="M1209.8 983.5c-15.6.8-30.3-.7-45.7-2.9 12.7-10.7 35.6-12.1 45.7 2.9" class="outline" data-original-prefix="outline"/><path id="outline-head-bats" class="outline"  d="M1144.4 582.2c-20.9 14.5-42.1 28.7-63.4 42.6s-13.2 8.7-19.9 12.8-.4 0-.3.4c19.2 17.6 38.1 35.4 58.1 52 19.3 16 39.8 30.7 60.1 45.3 11.5 8.3 23.3 17.3 35.1 25s4.3 3 6.7 2.8 4.3-2.3 6.8-2.6c6.3-.6 11.2 4.6 9.9 10.8-1.4 6.4-11.6 21.5-18.4 22.5s-7.6-1.3-9.4-4.6.4-6.6-.8-10-1.8-2.8-2.9-3.9c-32.5-23.1-64.3-47.5-98.2-68.5-27.3-16.9-55.9-31.7-84-47.3-23.8 13.2-48 25.8-71.5 39.7-38.6 22.8-74.3 50-110.7 76-.6.7-1.3 1.2-1.8 1.9-3.4 4.6 1.5 9.1-3.3 14-9.6 9.8-22.3-9.2-25.4-16.9-2.1-5.2-1.5-10.9 4.3-13.2s5.7 0 9.3 1.5 6-.5 8.8-2.3c11.7-7.7 23.6-16.8 35.1-25 20.3-14.6 40.8-29.4 60.1-45.3s38.9-34.5 58.1-52c0-.5 0-.3-.3-.4-6.7-4.1-13.3-8.5-19.9-12.8-41.4-27.2-82.4-55.5-122.7-84.4-8-5.7-16.3-11.5-24.1-17.5s-3-2.2-4.1-3.3c-18.4-18.7 10.4-59.5 35.3-44.4 11.5 7 23.8 16.7 34.9 24.7 19.8 14.3 39.5 28.9 59 43.6 26.7 20.1 53.2 40.4 78.9 61.8 9.2-8 18.9-15.3 28.4-22.8 37.7-29.8 76.3-58.8 115.4-86.8 8.9-6.4 18-13.3 27.1-19.2s3.5-2.3 5.3-3.1c21.7-9.3 46.7 23.5 34.6 42.8s-10.1 9.2-14.7 12.6c-24.7 18.3-50.2 36.1-75.4 53.5Z" class="outline" data-original-prefix="outline"/></g></svg>