<?xml version="1.0" encoding="UTF-8"?>
<?xml-stylesheet type="text/css" href="styles/collection.css"?>
<svg xmlns="http://www.w3.org/2000/svg" viewBox="0 0 2048 2048"><g id="01_background" data-trait="yellow"><path id="bg" d="M2048,0v2048H0V0h2048Z" style="fill: #ddb305;"/></g><g id="02_Jaw" data-trait="OG"><defs>
    
  </defs>
  <path id="fill-jaw" class="fill"  class="st0" d="M1396.7,1438.7c-6.7,4.3-46.8-1.7-48.7.3l-12.2,69.8-57.2,29.3-1.4,1.6c-1.5,11.9,1.5,24.2.9,35.9-.3,4.9-1.3,15-2.3,19.7-.6,2.8-13.7,32.2-15,33.5s-16.1,8.9-16.7,8.3l-9.5-50-51,52c-7.7,5.7-20.7,9.3-27.5,15.5-14,12.7-25.2,37.4-42.1,47.9-5.4,3.3-61.3,25.7-66.7,26.3-13.8,1.7-33-3.3-47.7.2-17.7-10.3-50.1-16.2-66.1-26.9-14.3-9.6-28.3-35.6-41.4-47.6-6.7-6.1-19.9-9.6-27.5-15.4l-51-52-9.6,48.4c-.6.9-.9,1.7-2.2,1.5-.8,0-13.8-7.6-14.4-8.2-1.4-1.4-15.9-33.3-16.2-35.3l-.5-54.4-58.2-30.3-12.3-69.7c-8.1-1.2-45.1,3.9-49.5-1l-37.1-85-.5-3.4,31.5-70.6c5.3-1.6,29.1,0,31.3-6.7.8-2.3-.6-19.5-1.3-22.4-2.2-8.4-16.2-24-19.8-33.2-.7-1.7-1.2-3.1-.6-5,4.7-11.3,10.3-22.3,14.1-34,7.3-22.4,7.2-42.6,16.9-65.1,47.5-110.2,188.9-176,299.9-200.1,44.7-9.7,79.8-1.5,122.7,11.2,98,28.9,222.6,97.5,259,199,6.8,19,7,38.1,13.5,57.5,3.8,11.2,10.1,22.1,13.7,33.4,0,1.4-8.3,16.4-9.8,19.1-2.4,4.3-9.7,13.4-10.7,17.3-1.8,6.8-.6,15.6-2.3,22.5,9.9,7.9,21.3,4.2,32.4,6.5,9.6,23.9,23.5,46,31.4,70.6-9.8,26.3-22.2,51.8-33.2,77.7-1.3,3-1.7,9.3-5.1,11.4h0Z"/>
  <path id="shading-jaw" class="shading"  class="st1" d="M1380.8,1185.8c-.2.4-2.1.7-2.8,1.7-8.6,10.8-16.2,26-21,39-4.2,11.4-5.1,22.7-13,32-18.8,22.4-51.8,45.5-78.3,57.7-5.4,2.5-12.5,3.7-16.7,7.8h20.5c2.7,0,5.1,1.2,7.9,1.1,18.1-.2,64.4-19.8,77.5-32.6,5.7-5.5,14.1-15.7,15-23.5,1.8,0,.7,2.4,1.5,4,3.1,5.9,15.5,5.2,21.5,6,.2,1.6-1.5.7-2.3,2.2-4.6,8.3-4.4,21.6-10.6,28.3-7.5,8.1-37.1,13.5-48.8,17.2-14.5,4.6-29.8,8.8-42,18.1l-52.8-14.8c-19.3-2.3-9.9,15.4-5.3,25.3,5.2,11.3,20.7,40,30.4,46.6,11.9,8.2,22.7-10.2,30-17,6.3-6,16.2-11.8,24.6-14.4,17.7-5.6,32.3,4.7,50.5,5.4,17.4.8,34.6-7.7,48.8-17.2,3.6-2.4,14.6-13.9,17.2-13.8,1.7,0,3.3,6.1,1.8,7.8-10.1,24.3-21.6,48-31.8,72.2-3.7,8.8-.8,14-13,15-9.3.7-15.8-1-24.2-1.8-4.8-.4-11.8,2.5-17.3-.2l-12.9,70.6-59,30.5c.4,11,2.6,23.6,2,34.5-.3,5.7-1.3,15.4-2.1,20.9-.5,3.1-13.4,31.4-15.4,33.6-3,3.2-11.6,6.2-15.5,9-.8-4.9-2.7-10.6-3-15.5-.6-11.2,2-11.3-2.7-23.2-.4-1.1-1.9-1-2.2-2-.8-2.2-.8-6.7-1.1-9.2l-2.3.2-50.2,51.8c-7.7,5.2-19.5,8.7-26.5,14.5-14.2,11.7-24.4,36.1-41.5,47.5-6.7,4.5-54.2,25.7-61.2,26.8-9.9,1.5-51.8,1.6-61.5,0-6.9-1.2-49.7-20.5-57.3-24.7-15.8-8.9-30.2-37.8-44.4-49.6-6.9-5.7-19-9.3-26.5-14.5l-51-52c-1,8.1-7.3,16-8.1,24-.6,6.2.6,14.6-.3,21.6-.2,1.7-3,1.8-2.1,4.4-.6.7-14.6-8.1-15.5-9-1.7-1.8-15-30.8-15.4-33.6-.7-4.4-.9-13-1.1-17.9-.5-12.2.6-24.4.5-36.6l-58.5-31.4-13-69.5-48.8-.2-38-86.6.9-6.2c8.2.4,11.8,8.2,18.6,12.7,25.3,16.9,38.4,19.8,68.5,13.9,17.1-3.4,19.1-7.5,37.2.4,15.9,7,19,16.2,30.6,25.4,9.6,7.6,13.6,7.9,22-1s31.8-49.1,32.1-60c.2-8.7-6.4-8.1-13.3-7.2-8.6,1.1-48.4,15.1-51,14.6-1.7-.4-12.3-7.9-16.5-9.6-20.3-8.4-48.8-11.8-67.2-20.8-14.9-7.3-11.3-20.9-17.7-33.2-.9-1.6-2.5-.6-2.3-2.2,6.3-.9,17,0,21-5.5,1-1.4.3-3.7,2-3.5,3,11.7,15.2,23.9,25.1,30.4,21.2,13.8,50.4,23.7,75.4,23.5h20.5l-34.7-16.8c-19.1-10.8-48.2-33.1-61.8-50.2-6.2-7.8-7.1-18.3-10.5-27.5-6-16.6-14.4-32-25-46,1.3-9,6.5-19.6,7.8-28.2,1.9-12.9,1.8-19.5,6.5-32.5,36.4-101.1,159.2-169,256.8-198.2,49.9-15,102.4-18.2,153.2-5.2,103.5,26.4,242.6,100.3,277.2,208.8,3.4,10.5,3,17.3,4.8,27.2.8,4.7,8.9,28.4,7.6,30.6l-.5-.2ZM1195.9,1382.1c-32.3-16.1-63.1-35.3-95.9-50.7-17.5-18.7-37.4-36.6-54.6-55.4-4.8-5.3-11.2-16-16-20-3-2.6-7.4-3-10.6-.6-4.5,3.4-12.7,16.4-17.4,21.6-16.7,18.6-36.8,35.6-53.6,54.4-32.9,15.3-64,34.2-96,51.2-.6,2.8,12.4,35,14.6,40.3,2.9,7.1,12.1,31.7,16,36.1,7.1,8,36.5,26.3,47,33,19.8,12.7,36.1,22.9,59.3,28.7,27.3,6.8,39.7,7.1,67,.6s43-16.6,65.7-31.3c10.4-6.8,35.9-22.5,43.4-30.6,4-4.4,12.7-27.4,15.6-34.4,2.1-5.1,16.8-41,15.5-42.9M728.3,1496.7c1.6,2,8.2,6.3,10.7,7.8,14.7,8.8,31.8,13.8,46.9,23.1,16.8,10.2,40.2,33.1,59.6,33.5,2.3,0,8.7-1.2,9.4-3.7s-13.6-27.6-16.4-30.3c-7.3-7.1-27.5-17.2-37.2-23.8-15.2-10.3-50.3-39.1-67.9-39.2-10.5,0-8.7,28.1-5.1,32.7h0ZM1319.7,1466.3c-5.9-5.9-24.1,4.1-30.4,7.6-16.2,8.9-31,21.4-46.2,31.8-12.7,8.7-30.1,15.7-38.6,28.4-2.2,3.4-10.8,17.7-11.4,20.7-1.1,5.3,6.2,6.5,10.3,6.3,16-.9,23.4-9.7,35.2-17.8,9.2-6.3,19.3-13.6,29-19,11.7-6.6,47.1-19.2,52.7-29.3,2.4-4.3,2.8-25.2-.7-28.6h0ZM1126,1664c-12-2.7-20.7,6.6-31.6,7.9-5.7.7-12.2-1.2-16.6-.7-7.1.8-22.9,12.1-31.2,14.9-14.8,4.9-30.2,4.7-45.1,0-8.8-2.8-23.9-14.1-31.2-14.9-4.4-.5-10.9,1.4-16.6.7-11-1.3-19.9-11-31.6-7.4,0,6.9,23.8,23.5,30,27,12.5,7.1,59.8,26.8,72.5,26.6s59.9-19.8,72.2-26.9c10.3-6,24.6-16.2,29.3-27.2h-.1Z"/>
  <path id="outline-jaw" class="outline"  d="M676,1140c5.3-3,18.5-3.6,19.1,4.5-2,7,0,18.6-3.2,24.9s-17.1,12.9-20.3,20.7c-1.1,2.6-6.2,25.4-6.5,28.5,0,1.3-.2,2.3.2,3.6,1.8,6.8,14.7,21.7,18.7,29.4,5,9.8,6.5,20.8,10.3,30.7,5.7,14.4,14.5,13.4,26.1,19.9,7.6,4.3,16,10.2,22.7,15.8-3.8,0-7.5.2-11.2-.2-8.4-1.1-30.6-5.8-38-8.9-9.8-4.2-8.9-17-13.8-20.2-2.7-1.8-8.7-1.2-12-2-6-1.4-9.7-6.6-16.7-1.3-6,11.6-13.4,22.6-19.2,34.3-7.3,15-16,27.5-6.5,43.3,5.5,9.2,23.4,26.5,26,35,2.4,7.9-2.3,28.2,2.4,33.6,7.5,8.5,28.6,4.4,35.5-3.6,2-2.4,2.5-6.3,4-9,6.3-10.9,19-25.2,30.7-30.3,12.2-5.3,16.1,11.4,18.4,20.3,3.6,14.2,1.3,26.5,12,38,6.7,7.3,18.2,14.5,27.2,18.8,4.7,2.2,21.2,9.9,25.3,10.7,12.8,2.4,25.4-6.5,32.6-16.5,2-2.8,2.8-6.3,4.7-9.3,9-14.8,16.3-6.2,25.8,1.8,11,9.2,20.9,19.8,32,29,45.8,38.3,90.7,54.1,151.4,45.3,58.2-8.4,83.7-40.7,125.7-75.3,2.2-1.8,8.8-7.7,10.8-8.2,12.1-3.2,14.2,10.5,19.7,17.8,5.7,7.4,15.3,15.6,25,16,7,.3,27.7-8.7,34.9-12.2,10.9-5.3,28.8-17.6,32.4-29.6,2.2-7.6,2.6-17.3,4.6-25.4,2.3-9,6.1-26.7,18.6-21.2,9.4,4.1,22,16.8,27.5,25.5,5.6,8.9,3.9,13.8,14.9,19.1,7.3,3.5,20.9,5,27.1-1.3,5.8-5.8.5-25.5,3-34,2.6-8.8,20.8-26.2,26.4-35.6,8.1-13.8,2.8-20.8-3-33.7-6.7-15-15.5-28.9-23.1-43.4-6.9-5.2-11.2-.2-17.5,1.5-3,.8-8.4,0-11.2,1.8s-5.1,12.8-8.6,16.4c-2.4,2.4-6.7,4-9.9,5.1-7.8,2.7-25.9,6.9-34.1,7.9-3.4.4-7,0-10.4,0,6.2-5.6,14.7-11.2,22.1-15.4,10.5-5.9,20.2-6.1,25.7-18.3,4.2-9.5,5.8-20.9,10.4-30.6,4.3-9,17.4-23.9,19.4-31.6.4-1.7.5-2.5.2-4.2-.6-4.5-5.3-24.5-6.9-28.2-3.4-7.8-19.2-16-20.8-22.2-.9-3.4-2.7-24.1-1.6-26.4,2.2-4.5,13.6-3.5,17.5-1,.8,2.8,2.9,13.6,4.2,14.8,4,3.5,21.3,4.8,24.5,11,2.5,4.8,0,15.5.2,21.8,0,2.9.8,7.8,1.3,10.7,1.5,8.6,9.7,23.3,7,30.5-2.3,5.9-12.8,22-16.8,28.2-3.3,5.1-7.9,9.5-10.4,15.1.7.7,9.7-4.6,10.9-5.6,5.4-4.1,7.6-12.1,14.6-5.5,4.7,4.4,13.6,18.5,17.5,24.5,10.1,15.9,19.6,34.4,25.7,52.3,1.6,4.7,5.8,14.8,3.7,19.2-.7,1.6-9.2,9.8-11.3,12.7-16.3,21.9-31.2,47.4-32.7,75.3-.8,1.3-2.2,1.8-3.5,2.5-5.7,2.8-27.3,11.7-32.6,12.4-3,.4-6.5.3-9.5-.3-4.5-.9-7-4.1-10.9-5.6-1.1,9.1-2.6,18.4-3,27.5-.4,7.8,1.5,32.2-.6,37.4-.4,1.1-11.8,14.9-12.7,15.3-3.8,1.8-11.7.3-16.3.7-13.5,1.3-21.2,15.2-25.2,26.8-4.6,13.3-5.2,27.9-9.2,40.8-5.8,19.3-37.7,50-54.2,61.8-.9.6-4.2,3.4-4.9,2.6,1-15.3,2.8-31.2-2.6-46-.3-.9-1.8-5.7-3.4-4-.6.6-3.5,12.5-6.2,16.3-8.3,11.9-29.2,7.9-37.8,19.2-9.5,12.3-7.6,28.7-22.1,38.9-32,22.4-79.6,38.4-117.7,46.3-12.4,2.6-16.8,2.3-29-.4-35-7.6-67.9-18.6-99.2-35.8-5.1-2.8-20.9-11.4-23.8-15.2-6.2-8-8.6-25.8-15.6-34.4-9.6-11.7-30.7-5.5-39.2-21.8-1.5-2.8-3.8-12.7-4.3-13.2-1.8-1.8-3.8,4.8-4,5.4-4.5,13.8-3.1,29.3-2,43.5-1.7,1.8-16.8-10.7-19-12.5-15.1-12.7-36.9-37.3-41.5-56.5s-7.6-59.5-33-62c-4.4-.4-13.1,1-16.5-.5-.9-.4-12.1-14.4-12.5-15.5-2.6-7.5-.2-27.3-.6-36.4s-2.3-19.1-3-28.5c-.4-.5-9.5,5.3-11.7,5.8-13.3,2.8-32.2-10.6-45.1-13.9-.7-27.4-14.8-51.6-30.3-73.2-2.2-3.1-4.5-6.2-6.8-9.2-4.1-5.2-7.9-4.8-6.9-12.9,1.3-10.6,13.1-35.4,18.4-45.6,3.6-6.8,26.1-44.2,31.2-45.8,7.3-2.2,13.1,11.5,21.3,11.8l-25.5-40.9c-4-9.3,4.3-21.7,6.2-31.8s.2-19.2,1.3-28.7,18.5-11,25.8-14.7c2.6-2.8,1-6.8,1.5-9,.4-1.9,1.3-3.7,1.8-5.8h-.5ZM799,1627.5v-20c0-3.1,8.8-25.7,11-27,4.3-2.7,20.4,9.8,24,13,12,10.5,20.7,26.3,32,36,8.5,7.4,21.1,12,29.5,19.5,10.9,9.6,20.1,26.5,30.5,37.5,11,11.7,29.8,18.4,44.7,24.3,25.1,9.9,38.9,14.1,66.8,12.3,16.1-1,62.3-19.4,76.4-28.6,13.7-8.9,25-32.9,37.6-44.4,9.3-8.6,24.5-14.2,33.6-22.4,10.1-9.2,18.3-23.6,29.4-33.6,3.6-3.3,19.9-16.8,24.4-13.8.8.6,6.9,16.7,7.6,18.9.5,1.7,2.5,8.4,2.5,9.5v17c0,.6-1.6,2-1,3.5,10.4-10.7,20.8-25.9,23.6-40.9,2.4-12.9,1.4-27.4.4-40.5-.3-4-2.6-6.9-.8-10.8,3.7-8.5,20.8-15.9,29.2-19.9s24.7-7.7,29.1-15.9c4.6-8.5,2.6-32.2,3.7-43.3,1-10.3,7.7-19.4,6.9-29.1-.6-6.6-5.4-16.3-10-21-1.5-1.5-8.2-6.7-10-5.5-1.8,1.3-7.1,27.7-7.1,31.5,0,7.3,4.4,13.6-2.4,19.5-17.3,15-41.2,23.8-61.1,34.9-5.5,3.1-23.5,16.8-28.6,16-2.7-.4-5.4-3.6-9.2-3.9-11.7-.8-14.9,8.5-22,15-16.4,14.9-41.2,22.8-63,25-69.3,7-135.6,7.1-205,0-22-2.2-45.8-9.7-62.5-24.5-7.2-6.4-10.9-16.4-22.5-15.6-3.7.2-7.5,4-9.8,3.8-5.4-.5-21.2-12.7-27-15.9-13.4-7.4-27.8-13.2-41-21-4.6-2.7-22.9-14-23.7-18.3-1-5.2,1.1-10.4,1.1-15s-5.6-31.3-7.6-31.5c-7.7-.9-16.7,15.1-18.5,21.5-4.1,14,4.6,20.6,5.9,34.2,1.4,13.7-4.1,40.6,8.8,49.2s39.9,13.7,50.8,26.2c5.6,6.4,1.4,8.6.7,15.6-3.2,29.7,1.3,54.7,20.9,77.8.5.6,3.9,4,2,1l-.3-.3Z"/></g><g id="03_Mouth" data-trait="cracked scrappy"><path id="fill-muzzle-1" class="fill"  fill="#fff" d="M1038 1292s-.4 1.7.7 2c10.3 2.8 18 4.3 25.8 13 1.9 2.2 4.9 8.8 6.5 9.5 2.6 1.2 6.6 0 9.5.5 11.4 1.5 21.2 3.7 31.2 9.8 2.1 1.3 9.2 7.8 10.2 7.1.3-.3 0-1.7 0-1.9 2.4-1.8 32.7.6 38 1 5.2 4.2 13.2 5.5 19.2 8.3 13.7 6.4 22.5 16.1 29.9 29.1 8.4 14.6 7.7 17.8 3.1 33.4-2.5 8.5-4.8 21.8-16.3 20.2 1.5-15.5-14.8-32.4-26.5-41-3.2-2.4-11.3-7.2-6 0 10.7 14.6 20.5 15 21.5 37.5.5 10.4-8.3 32.8-15.4 40.5-.6.7-7.1 6.3-7.6 6.5-3 1.6-6.8-6.1-7.8-8.2-3.7-7.7-4.8-15.6-9.7-23.3-1.1-1.7-10.8-13.7-12.4-12.1 5.6 13 9 46.2-2.5 56-4.4 3.7-9.4 1.9-13.3 3.7-2.8 1.3-3.1 5.8-4.8 6.2-.9.2-7.2-3.2-9.4-3.5-9.3-1.3-13.1 17-18.7 17.4-2.5.2-10.7-11.9-18.4-9.4-6.8 2.2-15.3 20.6-23.6 23.5-7.3-4.5-4.2-14-6.6-21.1-1.2-3.5-4.2-6.7-5.8-10.2-5.4-12.7-2.8-19.9-.2-32.2.7-3.3-.2-6.3 1.2-9.8.4-1 6-11.5 6.6-12.4 3.7-5.4 19.2-12.4 22.7-3.8.9 2.2 0 8.7 2.2 7.7 5.1-4.9 10.2-9.9 15.5-14.5 10.2-8.9 12.8-8.2 19.5-21.5 1.9-3.8 8.1-17.3 8.2-20.7.2-6.3-17.9-22.6-21-29-3.6-2.9-22.1-2.8-27.2-2.3-14.1 1.5-18 12.2-27.5 19.5-1 .8-1.3 1.9-3 1.5l.8-12.7c7.6-8.2 14.9-16.6 21.1-26 .7-3.3-8.6-12.4-11.3-13.2-3.6-1 .5 5.5.5 6.6.4 5.2-5.9 4.1-9.3 5.6-1.2.5-3 2.7-3.2 2.7s-2-2.2-3.2-2.7c-8-3.5-11.7.6-7.3-12.2-1.6-1.7-12.5 9.1-12.9 11.7-.2 1.6 3.6 7.8 4.8 9.5 1.5 2 5 5.9 7 8.3 3.2 3.9 9.7 7.7 9.9 13.1 0 1.6-.8 3.1-.8 4.8s2.6 8.1-2.5 3.6c-6.2-5.3-10.1-13.6-18.5-17.5-6.8-3.1-28.3-4.1-34.7-.8-.8.4-9.9 11.1-11.2 12.8-2.4 3-10.9 13.7-10.8 16.8.2 5.1 11.2 27.9 14.7 32.2 2.8 3.4 10.2 7.7 14 11 5 4.3 9.7 9.1 14.5 13.5 2.2.9 1.5-5.2 2-7 2.4-9.9 19.2-2.4 23 3.1.7.9 6.6 13.1 6.9 14.1 2.9 11 5.6 26.6 1.9 37.5-1.7 4.9-6.8 10.4-7.8 15.2-1.4 6.6 1 13.6-5 19-5.3 1.2-18.8-21.7-24.4-23.5-8.2-2.6-15.9 9.6-18.4 9.4-5.3-.4-8.7-14-13.9-16.1-6.9-2.8-11.5 2.7-14.1 2.1-1.8-.4-2-4.8-4.8-6.1-4.5-2-9.6.3-14.3-4.7-10.9-11.5-6.5-42.2-1.5-56.1-9.1 6.7-14.1 14.8-18.5 25-1.6 3.6-2 7.5-3.7 11.3-1 2.1-4.9 9.8-7.8 8.2-.4-.2-6.9-5.8-7.5-6.5-4-4.2-13.8-24.3-15-30-2.8-12.9 1.4-26.5 9.5-36.5 4.1-5.1 11.3-9 13-15.5-2.4-2.4-22.3 17.4-24.4 20.1-5.4 6.8-11 15.9-9.6 24.9-4.7.2-8.1-.7-10.8-4.7-1.8-2.7-8.8-24.3-9.2-27.8-1.1-10.9 10.9-28.8 18-37 10.5-12.2 24.5-14.2 38-21.5 12.5-.8 24.5-2.3 37-1 0 0 .7 2.1.5 3 9.5-8.2 20.6-14.8 33.1-16.9 4.7-.8 14.8-.4 18.1-1.8 1.6-.7 5.2-7.7 7.2-9.9 8-8.4 15.2-9.7 25.4-12.5 1.1-.3.6-1.9.7-2 1.1-.7 25.9-.7 27 0Z" class="fill" data-original-prefix="fill"/><path id="fill-teeth16" class="fill"  fill="#fff" d="M995.3 1525.7c11 9.5 17.2-6.6 23.2 6.3 6.5 14.1 3.7 38.4-1 52.9-.7 2.1-7.1 16.9-8 17.1-1.2.3-3-.4-4.2-.9-12-5.1-31.7-18.1-39.1-28.9-10.6-15.5-6.4-42.9 6.8-55.8 1.3-1.3 9.1-5.6 10.4-5.3 1.5.3 9.4 12.3 12 14.5h-.1Z" class="fill" data-original-prefix="fill"/><path id="fill-teeth15" class="fill"  fill="#fff" d="M1039.1 1601.9c-.8-.5-7.5-16.1-8.1-18.4-4.1-13.8-6.5-36.9-1.3-50.3 4.6-12 8.1-4.3 15.8-4.2 9.5.2 17.3-18.2 20.8-17.9 1.2 0 8.5 4.2 9.7 5.3 6.3 6.2 12.2 22.3 13 31 2.4 28-20.3 39.6-41.3 50.7-2 1.1-5.7 5.5-8.6 3.7Z" class="fill" data-original-prefix="fill"/><path id="fill-teeth14" class="fill"  fill="#fff" d="M904 1461c0 2.2-1.1 3.8-.8 6.2.2 1.8 7.1 22 8 23.1 3.9 5.1 11.2 3.2 16.7 3.8 4.9 13.5-4.2 23.8-8.6 35.6-2 5.3-8.7 33.1-12.8 34.2-1.8.5-6.8-9.1-8.3-10.7-10.3-23.9-15.3-58.4-2.6-82.2.6-1.2 7.1-11.6 8.4-10.1Z" class="fill" data-original-prefix="fill"/><path id="fill-teeth13" class="fill"  fill="#fff" d="M1144 1564c-2.1 1.4-6.1-7.1-6.8-8.7-3.2-7.9-4.4-17.4-7.5-25.5-4.3-11.6-13.6-22-8.6-35.6 4.8-.6 12.3 1.2 15.9-2.9 1.3-1.5 8.1-20.6 8.6-23.2.3-1.8-1.4-7 .9-6 6 2.7 13.7 26 14.4 32.6 1.4 13.9-2.9 45-9.3 57.4-.8 1.5-7 11.6-7.6 11.9" class="fill" data-original-prefix="fill"/><path id="fill-teeth12" class="fill"  fill="#fff" d="M1093.1 1644.9c-2.9-1.8-2.4-28.5-2.1-33.4.7-10.5 5.2-31.2 8.9-41.1 1.1-2.8 2.4-1.4 4.2 0 12.2 9.6 21.1 44.8 12.8 57.9-1.9 3-15.6 14.9-18.9 16.1-1.3.5-3.8 1.1-4.8.4Z" class="fill" data-original-prefix="fill"/><path id="fill-teeth11" class="fill"  fill="#fff" d="M949 1569c5.5 22 11.1 44.4 9 67.5-.5 5.2-.9 10.3-7 8-3.4-1.3-17.5-13.4-19.5-16.5-5.8-9.2-1.4-31.3 2.7-41.2 1.2-2.9 11.3-21 14.8-17.7Z" class="fill" data-original-prefix="fill"/><path id="fill-teeth10" class="fill"  fill="#fff" d="M881.7 1478.3c3.1 2.8-2.7 21-2.8 26.2 0 5.9 2.6 12.4 3.1 18 .2 2.1.7 24.5-.5 24.5-1.5.2-2.1-1.1-2.9-2.1-15.6-18.9-34.8-51.8-17.4-75.3 6.5-8.8 10.5 2.1 14.9 5.8 1.8 1.5 4.9 2.1 5.7 2.8Z" class="fill" data-original-prefix="fill"/><path id="fill-teeth9" class="fill"  fill="#fff" d="M1185.7 1467.3c1.9 1.6 7.8 13.7 8.2 16.2 3.2 20.7-9.8 47.3-23.9 61.9-.9 1-1.3 1.9-3 1.5.5-8-.7-16.6 0-24.5.4-5.4 3.1-12.3 3.1-18s-6.1-23.4-2.8-26.2c.6-.6 2.5-.6 3.8-1.7 3.4-3 10-13.1 14.7-9.3Z" class="fill" data-original-prefix="fill"/><path id="fill-teeth8" class="fill"  fill="#fff" d="M1018 1613v16.5c0 .9-10.8 13.2-11.9 14.1-6.3 4.8-8-2.6-10.6-5.5-5.5-6-17.9-.4-24.4-5.6-1.2-.9-4.1-8.8-4.1-9.9v-22.5c12.9 1.7 28.3 17.5 41.4 15.9 3.5-.4 6.1-3 9.6-2.9Z" class="fill" data-original-prefix="fill"/><path id="fill-teeth7" class="fill"  fill="#fff" d="M1031 1613c6.3 1.3 9.1 4 16.1 2.6 10.6-2.2 24.3-14.8 33.4-15.6 2-.2 1.4 0 1.2 1.3-.8 6.5 2.4 27.5-4.4 31.6-7 4.2-18.8-.3-23.4 4.6-2.1 2.2-3.6 8-8.4 7.6-1 0-14.6-13.5-14.6-14.6V1613z" class="fill" data-original-prefix="fill"/><path id="fill-teeth6" class="fill"  fill="#fff" d="M1102.5 1494c3.3-.8 4.5 6.9 5.3 8.7 5.6 12.1 13 24.8 13.3 38.8.2 9-16 29.8-21.3 16.2-4-10.4-4.1-44.8-1.1-55.5.4-1.6 2.4-7.9 3.8-8.2" class="fill" data-original-prefix="fill"/><path id="fill-teeth5" class="fill"  fill="#fff" d="M937.3 1559.7c-1.9-1.6-7.8-10.5-8.5-13-3.6-12.1 6-31.3 11.4-42 1.6-3.1 3.3-14.7 8-7.4 5.5 8.5 4.3 41.5 2.7 52.1-1.2 7.7-3.6 18.7-13.6 10.3" class="fill" data-original-prefix="fill"/><path id="fill-teeth4" class="fill"  fill="#fff" d="M917 1563c-1.8 13.4 2.9 27.5 2 40.5-.6 9-4.4 18.4-5.5 27.5-6.2-6-10.5-16.1-11.4-24.6-.5-5.2.7-24.7 2.4-29.3.6-1.6 10.5-16.2 12.4-14.1Z" class="fill" data-original-prefix="fill"/><path id="fill-teeth3" class="fill"  fill="#fff" d="M1135 1631c-.4-8.9-4.4-17.8-5.1-26.5-1-13.8 3.7-27.6 2-41.5 2.2-2.4 11.9 13 12.5 15 2 6.6 2.6 27.4 1.2 34.3-1.3 6.3-5.5 14.9-10.8 18.7z" class="fill" data-original-prefix="fill"/><path id="fill-teeth2" class="fill"  fill="#fff" d="M1154.1 1604.9c-3.4-2-5.1-22.3-3.9-26.2.8-2.6 8.9-5.2 10.2-8.8l5.1-10.9c3.8 3.4 5.1 7.2 4.3 12.2-.7 4.2-5.4 22.7-6.9 26.2-.9 2.2-6.1 9-8.8 7.5" class="fill" data-original-prefix="fill"/><path id="fill-teeth1" class="fill"  fill="#fff" d="M885 1559c-.3 3.7 1.7 9.4 4 12.2s9.5 5.2 10 8.3c-2 8.4 1.6 19.2-5.7 25.4-3.6-1.1-6-4-7.4-7.4s-6.5-23.6-6.9-27.1c-.5-4.2 1.2-10.6 5.9-11.4z" class="fill" data-original-prefix="fill"/><path id="outline-shading-mouth2" class="outline"  fill="#000" d="M918 1443.5c.8 5.3 5.6 13.8 10.1 16.9 11.5 8.3 16.2-.3 22.4-9.4 2.5 5.4 3.4 11.5 6 17 1.4 2.8 5.7 12 7.5 5.5l4-11.5c1.6 7.5 6.3 15.4 11.5 21 4.3 4.7 18.8 15.4 24.6 9.6 2-2.1 8.3-17.9 10.8-22.2 1.2-2.2 7.8-13.8 9.7-13.3 1 .2 8.5 13.2 9.7 15.3 2.4 4.5 7.3 17.7 9.8 20.2 3.8 3.8 10.5.4 14.4-1.8 10.5-5.9 18.5-17.2 21.7-28.8l4.2 12.3c.3 1.2 1.9 2.4 2.8 1.7.6-.4 5.8-11.3 6.5-13 .8-2 2.8-12 4-12 6.8 10.7 12.9 18.4 24.5 7.5 8.6-8 9.3-23.8 7-34.5 3.5-3.1 21.1 16.1 26.6 16.9 9.1 1.4 17.6-11.8 19-19.9 3.5-20.5-12.9-39.2-30.9-46.2l-12.7-4.8c15.4 0 28.2 2.9 41.1 11.4 4.8 3.1 12.2 10.9 17.6 11.4 6.2.6 10.1-4.1 10-10-.4-19.3-25.8-38.1-39.7-48.8 15.4 2.4 34.6 11.8 45 23.5 7.8 8.8 19.1 25.1 19.1 37s-6.4 28.5-9.2 32.8c-3.3 5.3-11.7 5.4-13.4 10.6-.9 8.1-2.1 16.4-2.5 24.5-1.5 29 1.4 45.2-10.8 73.2-3.6 8.2-12.7 20.4-14.9 27.1-4.2 12.8-.7 26.4-9.1 38.9-3.2 4.8-8.4 6.7-11.2 10.8-1.7 2.5-2.4 6.1-4.2 8.8-4.5 6.7-14.6 23-21.6 8.9-1.6-3.3-1.3-12.9-6.7-6.2-1.4 1.7-1.9 4.4-3.5 6.5-3.7 4.7-17.7 19.6-23.5 19.5-2.2 0-4.5-4.1-6.6-5.4-7.9-5-21.1-6.3-29.2-1.4-7.3 4.4-9.5 13.6-18.1 6.8s-6.4-10.8-20.1-9c-5.6.7-11.4 12.6-16.9 12.1-2.8-.2-11.4-11.1-18.5-12.6-6.3-1.3-17.5.7-23 4.2-2.6 1.7-4.1 5.6-7.5 5.4-5.7-.3-19.8-15.8-23.6-20.5-1.2-1.5-4.4-10.6-7.1-6.9-2.5 3.4-.6 9.9-7.2 12.7-7 3-14.9-11.2-18.1-16.4-1.2-1.8-1.2-4.3-2.6-6.4-2-3-6.8-5.4-9.5-8.5-10.4-11.9-6.7-27.7-10.7-41.3-.8-2.6-5.6-8.5-7.3-11.7-18.4-35.7-16.4-45.6-18.4-84.6-.4-7.7-.6-20.7-2.2-27.8-1.5-6.2-11.1-6.1-14.2-11.8-3.4-6.1-9.3-29.6-8.6-36.4 1.2-10.3 16.2-31.2 24-38 10.5-9.2 26.2-16.5 40-18.5l-21.5 17c-7.2 6.4-26.8 32-14.8 39.9 9 5.9 16.7-4.5 23.7-9.1 12.7-8.4 25.3-11.8 40.7-11.8l-17.3 7.2c-18 9.4-33.1 32.7-22.1 52.8 1.7 3.1 8.6 10.4 12 11.1 9.1 1.7 20.7-15.4 29.5-18 .6 6.4-.9 14.3 0 20.5zm-37.1 40.6c-12.3-.5-17.1-20.2-22.8 1.5-3.4 13 1.2 26.4 9.4 36.5 1.5 1.8 12.7 13.1 13.9 12.9.8 0 2.5-2.3 2.8-3.2 2.9-7.1-3.2-12.2-4.2-19.2-1.5-9.8 0-18.7.9-28.4Zm301.8-8.9c-3.2.8-6.3 6-8.8 7.3-2.1 1.1-7.2 1-7.8 3.2-.5 1.7 3 10.8 2.9 14.8 0 3-1.5 13.9-2.2 16.8-.9 3.6-3.9 5.7-3.9 10.2s1.4 7.1 3.7 7.4c1.9.3 15-14.4 16.8-17 5.7-8.5 9-18.8 7.3-29.2-.5-3-4.4-14.5-8-13.6Zm-284.8 10c-4-2.3-6.5 9.9-6.8 12.5-1.2 10.5 3 38 8.7 47.1 1.9 3 5.4 6.9 9.2 7.3 3.7-15.6 12.6-29.2 21-42.5-2.3-.4-1.7-2.9-2.7-3.5-1.5-.9-7-1.9-9.7-3.1-4.7-2.2-12-7.7-15.6-11.4-1.2-1.2-3.8-6.2-4.2-6.3ZM1139 1552c8.3-2 11.9-12.2 13.9-19.6 3.1-12.1 6.1-33.4 1.1-44.8-3-6.9-5.8 1.7-8.3 4.1-3.9 3.8-11 9.3-16 11.6-2.5 1.1-7.8 1.8-9.1 2.7-.7.5-.5 1.8-1 2.7-.3.4-1.7.4-1.6.9 0 1 7.9 12.3 9.2 14.8 4.8 8.8 9.1 18 11.8 27.7Zm-197.7 5.7c8.1 8.1 9.5 0 10.5-7.3.8-5.6 2.7-20.6 1.7-25.4-3.6-17.2-21.3-15.9-21.6 3.6 0 6.8 4.6 24.3 9.4 29.2Zm161.5-44.5c-5 1.3-8.5 9.3-8.8 14.2-.2 4 2.4 28.5 3.8 31.3 2.5 5 7.5 0 9.8-2.7 6.8-8.3 11.6-30.7 4.5-39.5-2.7-3.3-4.8-4.4-9.2-3.3zM1023 1544c-.7-.7-.8-7-5.1-9.4-8.9-5-21.8-.8-32-4-10.4-3.3-9.4-13.1-16.1 1.8-2.9 6.4-9.1 24.4-6.3 30.7 1.1 2.4 17.8 15.6 21.2 17.8s18.2 11.7 21.1 10c3.1-5.6 9.3-9.5 12.6-14.9 1.8-2.8 4.1-11.5 4.6-11.9 1.6-1.7 1.7.5 2.1 1.4 1.6 3.6 2.1 6.8 4.5 10.5 3.3 5.2 9.2 9.3 12.4 14.6 3.1 1.9 15.5-5.9 18.9-8.1 4.5-2.9 22.9-17 23.9-21.1 2.2-9.7-6.6-28.3-10.9-37.2-4.9 1-7.8 5.2-12.7 6.7-9.2 2.8-28.2-1.6-33.7 6.3-.9 1.2-2.6 8.9-4.5 7zm-136 18c-.7-.6-3.5 0-4.5.9-6 6.2 2.4 31.6 14.6 27.6 4-1.3 3.8-9.4 2.8-12.9-1.1-3.9-7.2-4.1-9.8-7.2-2.1-2.5-2.7-8.2-3-8.5Zm274.1 0c-.3.3-.9 6-3 8.5-2.6 3.1-8.7 3.3-9.8 7.2-1 3.4-1.2 11.6 2.8 12.9 13.4 4.4 20.2-24.5 14.1-28.1-.9-.5-3.5-.9-4-.4Zm-216.4 7.2c-1.5.4-5.1 4.6-6 6.1-3.4 5.6-5.6 32.3-4.8 39.3 1.3 10.9 15.2 18 19.5 3.5 1.7-5.6 2.6-21.4 2.5-27.6 0-1.1-5.8-19.7-6.5-20.5-1.2-1.4-3.2-1.3-4.8-.8Zm153.3-.1c.2 6.6-5.4 14.7-6 20.6-.5 4.5 1 25.3 2.4 29.4 4.2 12.1 16.9 7.3 19.1-2.9 1.1-5.2 0-16.8-.6-22.6-1-9.7-1.7-25.5-14.9-24.5m-180 1.9c-20.5 3.8-17 28.7-9 43 4 2.9 10.4-17 10.7-19.8.9-7.5-2.9-15.5-1.8-23.2Zm218 43c2.5 1.8 7.2-9.1 7.7-10.8 3.9-12.8 1.6-30.1-13.7-32.2.5 7.4-2.8 16.2-1.9 23.4.3 2.7 6.4 18.5 7.9 19.6m-148.2 10.2c1.4.8 4.8 8.6 9.5 11 11.1 5.8 20.2-6.4 20.7-16.7.8-13.7-7.2-7.7-16.5-8.6-8.4-.8-15-4.8-21.8-9.2-5.5-3.5-13.6-14.6-14.7-1.4-.5 5.1 1.4 7.5 1.8 11.2s-2 5.9.5 10.7c4.8 9.3 18 1.3 20.7 2.8zm93.1-31.1c-2.1-1.5-19.7 12.7-23.9 14.4-2.3 1-7.9 2.3-10.5 2.5-10.5.9-18.8-5.4-16.4 11.4 1 7.3 7.9 15.8 16 15.1 9.4-.8 11.9-11.6 14.6-12.4 4-1.3 12.3 5.7 18.9-1.1 4.3-4.4 1.3-8.4 1.5-12.5 0-2.3 1.9-4.8 2-8.1 0-1.9-.8-8.5-2.2-9.4Z" class="shading" data-original-prefix="shading" opacity=".2"/><path id="outline-shading-mouth1" class="outline"  fill="#000" d="M1041 1343c6.1.5 12.7-1 17.5-5 1.5-1.3.9-3.7 2.8-2.9 10.1 7.9 37.9 17.4 43.8 28.2 3.6 6.5 4.6 17.5-1.8 22.6-5.6 4.5-20.8 10.8-28 15-4.9 2.8-9.7 6.6-14.7 9.3-7.4 4.1-25.5 14.5-32.6 16.4-2.9.8-5.2.8-8.1 0-14.5-3.8-42.2-22.5-56.3-30.7-6.2-3.6-21.2-9.1-23.2-15.8-5.5-18.4 15.7-28.3 28.7-35.4 2.3-1.2 15.5-8.6 16.5-8.7 2.9-.3 4.2 2.9 6.7 4.2 4.2 2.3 10 3.2 14.7 2.8-.3-5.1-3.3-11.3-1.8-16.3.5-1.6 12.5-13.9 14.5-14.4 3.9-1 8.2-.3 11.6 1.9 1 .7 10.8 11.1 11.2 11.8 2.1 5-1.2 11.8-1.5 17" class="shading" data-original-prefix="shading" opacity=".2"/><path id="outline-mouth3" class="outline"  fill="#000" d="M889 1333c-13.5 7.3-27.4 9.4-38 21.5-7.1 8.2-19.1 26.1-18 37 .3 3.5 7.3 25.1 9.2 27.8 2.7 4 6.1 4.9 10.8 4.7-1.4-9 4.2-18.1 9.6-24.9 2.1-2.6 22-22.5 24.4-20.1-1.7 6.5-8.8 10.4-13 15.5-8.1 10-12.3 23.6-9.5 36.5 1.2 5.7 11 25.8 15 30 .7.7 7.1 6.3 7.5 6.5 3 1.5 6.9-6.1 7.8-8.2 1.7-3.8 2.1-7.7 3.7-11.3 4.4-10.2 9.4-18.4 18.5-25-5.1 13.9-9.5 44.6 1.5 56.1 4.8 5 9.9 2.7 14.3 4.7 2.8 1.3 3 5.7 4.8 6.1 2.6.6 7.2-4.9 14.1-2.1 5.2 2.1 8.6 15.6 13.9 16.1 2.5.2 10.2-12 18.4-9.4 5.6 1.8 19.1 24.8 24.4 23.5 6.1-5.4 3.7-12.4 5-19 1-4.8 6.1-10.3 7.8-15.2 3.7-10.9 1-26.5-1.9-37.5-.3-1.1-6.2-13.2-6.9-14.1-3.8-5.5-20.6-13-23-3.1-.4 1.8.2 7.9-2 7-4.8-4.4-9.5-9.2-14.5-13.5-3.8-3.3-11.2-7.6-14-11-3.5-4.3-14.5-27.1-14.7-32.2 0-3.1 8.4-13.8 10.8-16.8 1.4-1.7 10.5-12.5 11.2-12.8 6.4-3.2 28-2.3 34.7.8 8.4 3.8 12.4 12.1 18.5 17.5 5.2 4.5 2.5-1.7 2.5-3.6s.9-3.2.8-4.8c-.2-5.4-6.7-9.2-9.9-13.1-2-2.4-5.5-6.3-7-8.3-1.2-1.7-5.1-7.9-4.8-9.5.4-2.6 11.3-13.4 12.9-11.7-4.4 12.8-.7 8.7 7.3 12.2 1.2.5 3 2.7 3.2 2.7s2-2.2 3.2-2.7c3.4-1.5 9.7-.4 9.3-5.6 0-1.1-4.1-7.6-.5-6.6 2.8.8 12.1 10 11.3 13.2-6.2 9.4-13.5 17.8-21.1 26l-.8 12.7c1.7.4 2-.7 3-1.5 9.5-7.3 13.4-18 27.5-19.5 5.1-.6 23.6-.6 27.2 2.3 3.2 6.4 21.2 22.7 21 29 0 3.4-6.3 16.9-8.2 20.7-6.8 13.3-9.3 12.6-19.5 21.5-5.3 4.6-10.4 9.6-15.5 14.5-2.2.9-1.4-5.6-2.2-7.7-3.4-8.6-19-1.6-22.7 3.8-.6.9-6.2 11.4-6.6 12.4-1.3 3.6-.5 6.5-1.2 9.8-2.6 12.3-5.2 19.6.2 32.2 1.5 3.5 4.6 6.8 5.8 10.2 2.4 7.1-.8 16.6 6.6 21.1 8.3-2.8 16.9-21.3 23.6-23.5 7.7-2.4 15.9 9.6 18.4 9.4 5.6-.5 9.4-18.8 18.7-17.4 2.2.3 8.4 3.7 9.4 3.5 1.7-.4 2-4.9 4.8-6.2 3.9-1.8 8.9 0 13.3-3.7 11.5-9.9 8.1-43 2.5-56 1.6-1.6 11.3 10.4 12.4 12.1 4.9 7.6 6.1 15.6 9.7 23.3 1 2.1 4.8 9.8 7.8 8.2.4-.2 6.9-5.8 7.6-6.5 7.1-7.7 15.9-30.1 15.4-40.5-1-22.4-10.8-22.9-21.5-37.5-5.3-7.2 2.8-2.4 6 0 11.8 8.6 28 25.5 26.5 41 11.4 1.6 13.7-11.7 16.3-20.2 4.6-15.6 5.3-18.8-3.1-33.4-7.4-13-16.3-22.7-29.9-29.1-6-2.8-14.1-4.1-19.2-8.3 9.3.7 19.7 2.8 29.2 5.3 7.4 1.9 14.4 3.9 20.7 8.3 3.2 9.3 27.6 34.6 28 42 .2 3.9-8.4 23-10.2 28.7-2.4 7.4-1.3 15.8-9 20-2.1 1.1-8.8 2.4-9.5 3-3.6 3.6-1.9 26-2.2 32.3-1.2 29.7-2.2 52.7-20.5 77.5-.9 1.2-2.6 1.5-3.6 2.7-4.3 5.6-2.8 18.6-4.3 26.5-1.1 6-5 13.1-5.6 18.4-.4 3.6 1.4 7.3.2 10.1-1 2.4-9.9 8-12.6 9.5-2.2 1.2-5.7 1.5-6.5 2-.6.4-5.4 10.9-7.2 13.3-2.1 2.7-11.1 11.3-14 12.1-4.1 1.2-7.9-10.3-9.9-13s-2.3 2.3-3.6 4.3c-4.3 6.7-25.1 26.6-32.4 28.6-1.7.5-3.3.7-5 .5-.2-6.5 3.6-11.9-3-16.5-7.6-5.2-17.7 0-21.5 7.4-4.2 8.3-1.8 29.9-14.4 16.5-7.1-7.5-13-17.8-18.5-26.4-2.8 5-19.9 30.6-24 31-5.8.6-5.9-11.5-7.2-15.8-2.5-8.5-10.5-17.7-20-14.4-12.1 4.1-4.7 16.7-6.3 18.2-6 1.1-9.7-4.5-15-5-1.3 6.3-5.2 11.9-5.1 18.5.2 11.2 13.9 23.7 10.9 33.8-.8 2.7-3.4 3.2-5.5 1.4-3.7-3.3-7.9-17.8-10.4-23.1-3.8-8-11.3-14.9-9.4-23.7 1-4.7 7.9-13.9 7.6-17.4-.5-5.3-12.8-12.5-12-18.6-1.2-.2-1.3-.3-2.1.6-2.1 2.7-6.2 14.3-10.2 13.3s-12-10.2-13.7-12.4c-2.1-2.7-6.6-12.8-7.2-13.2-.7-.5-4.2-.8-6.5-2-2.5-1.3-12.6-7.8-13.2-9.9s1.2-6.2.8-9.7c-.6-5.1-4.5-11.5-5.6-17.4-1.7-8.4.3-19.9-3.9-26.1-5.9-8.8-10.5-12.8-15.3-23.7-13.6-31.3-7.5-52.3-10.1-83.9-.8-9.9-3.8-5.3-10.8-9.3-8.2-4.6-6.8-13.1-9.3-20.7-1.9-5.9-9.7-21.8-10-26.1-.2-3.3 1.1-4.7 2.5-7.3 6.8-12.4 18.9-24.3 26.1-36.9 5.9-4.3 13.2-6 20.1-7.9 9.7-2.6 19.8-4.7 29.2-5.3Zm15 128c-1.4-1.5-7.8 8.9-8.4 10.1-10.6 19.9-8.6 50.8-1.8 71.7 1.1 3.3 9.4 22.1 12.8 21.2 4.4-1.1 10.8-28.9 12.8-34.3 4.3-11.7 13.6-22.1 8.6-35.6-4.8-.6-12.2 1.2-15.9-2.9-1.4-1.5-8.5-21.7-8.8-24s.8-4 .8-6.2Zm240 103c.6-.4 6.8-10.5 7.5-12 6.2-12 8.8-32.9 9.5-46.5.8-15.3-4.1-32.2-14.6-43.5l-2.2 9.8c-4.9 13.6-4.6 25.2-23.1 22.4-5.2 13.7 4.3 23.9 8.6 35.6 3.1 8.4 6 27.5 11.8 33.2.7.7 1.4 1.8 2.4 1.1Zm-262.3-85.7c-1-.9-4.6-2-6.6-3.9-4.2-3.9-7.8-13.1-14-4.7-13.3 17.9-4.1 44.9 7 61.7 1.6 2.4 11.5 15.7 13.3 15.7.5-8 1.2-16.5.5-24.5-.4-5.4-3.1-12.3-3.1-18s6-23.3 2.8-26.2ZM1167 1547c1.7.4 2-.5 3-1.5 17.5-18 32.6-50.9 18.4-74.4-6.5-10.8-10.8-.4-16.9 4.9-2 1.7-5 1.6-5.5 4.5-.8 4.5 4 18.3 4 24s-3.3 14.8-3.6 21.2 1.6 14.6.6 21.3m-219.1-51.9c-4.7-3.3-6.5 7.1-7.7 9.6-5.3 11-11.8 23-12.2 35.8-.2 7.6 10.5 26.2 19.1 21 3-1.8 4.7-18 5-22 .4-6.4.2-41.4-4.1-44.4Zm67.8 32.2c-3.2-2.8-9.7 3.2-15.8 1.3-2.1-.7-8.7-7.5-10.5-9.5-2.6-2.9-3.4-8.8-8.2-7.4-12.2 3.5-20.5 24.1-21.2 35.9-.9 13.6 2.4 21.7 11.5 31.5 9.8 10.4 24 15.7 36.1 23h2.3c2.1-6.4 6.2-12 8.1-18.4 3.7-12.2 7.9-47.3-2.3-56.2zm23.4 74.6c1.1.7 3.4 0 4.6-.7 5.6-2.4 20.1-11.1 25.2-14.8 13.4-9.8 21.4-21.7 20.1-38.9-.9-11.9-9.2-33-22-36.1-4.4-1.1-5.5 5-8 8-1.7 1.9-7.3 7.9-9.2 8.8-9.2 4-14.3-9-20 5-5.4 13.2-2.6 37.5 1.5 51.1.7 2.2 7.1 17.1 7.9 17.6ZM885 1559c-3.2-3.3-6.4 8.4-5.8 12.3.7 4.5 5.4 23.4 7 27 1 2.2 6.2 8.5 8.7 6.7 3.4-2.4 3.2-20.7 4-25.4-.5-3.1-8.3-6.1-11-10-2.3-3.5-2.6-10.1-3-10.5Zm32 4c-1.9-2.2-11.8 12.5-12.4 14.1-1.7 4.6-3 25.2-2.4 30.3.9 7.9 5.6 18 11.4 23.6 1.4-8.8 5-18.6 5.5-27.5.8-13.1-3.7-27.1-2-40.5Zm218 68c7.1-5.4 12.1-18.8 11.8-27.5 0-2.6-1.7-5.2-1.8-8-.3-5.4.8-12.5-.5-17.5-.6-2.3-10.4-17.3-12.5-15 1.5 13.8-3.1 28-2 41.5.7 8.7 4.6 17.6 5.1 26.5Zm-35-62c-2.8 14.2-8.1 27.9-9 42.5-.3 5.3-1.4 33.3 3.6 34.4 2.4.6 18.8-13.3 20.9-15.9 8.3-10.5 3.8-32.3-1-44-1.2-2.9-11-19.9-14.5-17m-82 44c-3.5 0-6.1 2.5-9.6 2.9-12.7 1.6-29.1-13.9-41.4-16.9v24.5c0 .6 3.2 8.2 4.1 8.9 6.5 5.2 18.9-.4 24.4 5.6 2.6 2.9 4.3 10.3 10.6 5.5 1.1-.8 11.9-13.1 11.9-14.1v-16.5Zm64-13c-13.2 1.2-27.8 17.6-41.4 15.9-3.5-.4-6.1-3-9.6-2.9v17.5c0 1.1 13 14.6 15.4 14.5 4.9-.3 5.1-4.7 7.1-7 5.5-6 18.3-.4 24.4-5.6 1-.9 4-9.7 4-11v-21.5Z" class="outline" data-original-prefix="outline"/><path id="outline-mouth2" class="outline"  fill="#000" d="M1122 1332c-.2 0 .2 1.6 0 1.9-1 .8-8.1-5.8-10.2-7.1-10-6.1-19.8-8.3-31.2-9.8-2.9-.4-6.9.7-9.5-.5-1.5-.8-4.5-7.4-6.5-9.5-7.8-8.7-15.6-10.2-25.8-13-1.1-.3-.6-1.9-.7-2 3.1-3.8 16.2-9.3 20.8-9.8 7.9-.9 5.5 4.4 6.5 9.1 2.3 10.7 9.3 19.6 21.3 18.8 5.1-.3 5.6-4 7.9-4.1 1.4 0 6.6 2.9 8.2 3.8 9.4 5.2 15 12.5 19.3 22.2z" class="outline" data-original-prefix="outline"/><path id="outline-mouth1" class="outline"  fill="#000" d="M1011 1292s.4 1.7-.7 2c-10.2 2.8-17.4 4.1-25.4 12.5-2 2.1-5.6 9.2-7.2 9.9-3.4 1.4-13.5 1-18.1 1.8-12.5 2.1-23.6 8.7-33.1 16.9.2-.9-.5-2.8-.5-3 .7-2.3 8.9-13.5 11-15.5 2.4-2.4 14.7-10.5 17.6-10.4s3 5.1 11.9 3.9c10-1.3 16.2-10.1 17.5-19.6.4-2.6-2.4-6.7 2.8-8.2 3.5-1 21.7 5.6 24.3 9.8Z" class="outline" data-original-prefix="outline"/></g><g id="04_Eyes" data-trait="OG-glare"><path id="fill-skull" class="fill"  fill="#fff" d="M1337.7 1024.3c1.5.9 16.3 27.2 18.4 31.1 9.7 17.9 18.4 36.1 23.1 55.8.9 3.7 4.9 7.3-.6 11.5s-13.7 5.7-17.7 7.8c-9.3 4.9-18.6 9.9-27.5 15.5-1.2 42.7-11 81.2-47.2 106.8-43.1 30.5-110 44.9-161.5 32.9-13.7-3.2-24.1-9.2-39.1-3.9-11.8-10.4-26-18.9-37.7-29.3-7.2-6.4-13-14.8-20.5-20.5-2.7 1.3-6.1-.6-8.4.4s-13.7 15-17 18c-12.4 11.4-27.2 20.1-39.7 31.3-3.4.3-6.4-1.6-9.8-1.8-14-1.1-26.2 5.6-40.1 7.8-49.6 8.1-115.4-7.3-155.2-38.4-33-25.8-41.6-63-42.6-103.4-9.7-5.8-19.6-11.2-29.5-16.5s-18-6.5-18.9-12.2 2.6-4.6 3.6-7 .9-6.7 2.1-9.9c7.7-20.9 25.7-58.2 39.1-75.6s2.4-.4 3.1-1.3c18-23.8 37.3-50.3 58.9-70.8 140.3-133.5 334.8-143 483.5-16.5 25.5 21.7 43.5 44 64.5 69.5s10.4 15.7 12.5 17.5 3.2.6 4.2 1.3Z" class="fill" data-original-prefix="fill"/><path id="outline-shading-eyes-2" class="outline"  fill="#000" d="M942 857c-12.1 12.3-28.7 18.2-42.9 27.6-24 15.9-46.8 43.3-62.9 67.1-5.4 7.9-23 36-24 44-1.9 15 19 44.3 30.9 52.7 15.5 11 44.6 22.3 62.6 32.4 17.3 9.7 34.5 19.9 50.9 31.1 14.4 19.1 24.9 49.3 40 66.9 6.5 7.6 13.5 4.7 18 8 1.1.8 4.3 7.4 5 9 1.1 2.8-.7 5.7 2.8 7.3 5.7 2.7 5.9-8.1 8.2-12.3 4.5-8.3 14.1-3.9 20.9-12.1 14.5-17.4 24.2-46.5 37.8-64.2 6.2-8.1 34-23 44.2-28.8 11.7-6.7 23.8-13 35.7-19.3 21-11.2 34.9-13.8 50.4-33.6 11.6-14.8 20.3-27.2 12.4-46.3-11.6-28.4-47.4-74.4-71.4-93.6-17.2-13.8-38.5-21-54.5-36 32.2 6.5 62.4 20.5 90.7 36.8 43.8 25.2 91.8 64.7 120.1 106.9 2.5 3.7 7.4 8.7 5.5 13.1-1.7 4-26.2 9.5-31.6 11.5-55.7 20.6-105.3 41.9-152.6 78.4-29.2 22.5-41.7 38.5-62.3 68.7-4.9 7.2-6.3 13.4-13.3 19.7-2.1 1.9-22 16.2-23.4 16.6-1.9.6-28.2.6-30.1 0-1.3-.4-19.7-13.4-21.9-15.1-8.5-7-9.6-13.4-15.3-21.7-18.6-27.1-30.9-43.6-56.9-64.1-49.4-38.9-99.1-60.6-157.6-82.4-5.5-2-29-7.5-31.3-10.6-2.9-4 2.2-9.9 4.6-13.5 27.4-39.9 72.4-78.4 113.8-103.2 30.1-18 63.1-33.9 97.7-40.8z" class="shading" data-original-prefix="shading" opacity=".2"/><path id="outline-shading-eyes-1" class="outline"  fill="#000" d="M1376 1124c-.3.4-7.4 2.6-9 3.5-8.1 4.2-26.1 12.6-32.3 17.7-2.4 1.9-.9 4.2-2.2 5-26.3 9.1-58.4 13.3-83 25.8-28.2 14.3-61.1 41-85.2 61.8-16.4 14.2-30 16.1-47.8 26.2-9.8 5.6-17.8 14.5-27.8 19.3l-2.5-.6c-11.3-10.6-24.9-18.4-36.5-28.5-7.8-6.8-14.2-15.6-22.1-21.9-2.7 1.3-6.1-.6-8.4.4-1.4.6-15.2 16.5-18.6 19.5-11.8 10.6-25.7 18.9-37.5 29.5l-3.9 1.1c-11.7-6.7-22.5-15.3-34.3-21.8-10.7-5.8-26.2-10.7-35.6-17.4-5.4-3.9-11.8-11.6-17.6-16.4-25.2-20.7-60-47.9-90.7-58.3-21.3-7.2-43.6-12.1-65.1-18.7l-2.2-5-41.4-21.6 4.9-4.1 15.1-28.9h33c21.4 13 44.7 24.7 65.5 38.5 18.6 12.3 35.7 27.9 54.2 40.8 28.2 19.8 67.5 44.8 99 58 17.5 7.3 25.6 4.5 43.5.8 6-1.2 20.2-6.3 24.5-6.4 2.5 0 7.8 3.9 12.8 3.8 4.4 0 9.7-4.1 11.8-3.9 5.8.6 16.8 4.9 23.8 6.4s18.6 4.4 25.6 4.5c11.2.2 31.8-11.4 42.1-16.9 70-36.9 125.7-90.2 196.1-125.9l32.3.3c3 1.8 10.9 25.2 15.5 29.5 1 1 5.9 2.1 4.4 4h-.4Z" class="shading" data-original-prefix="shading" opacity=".2"/><path id="outline-eyes6" class="outline"  fill="#000" d="M696 1136c.7 5.7-1.4 11.4-2 17-1.4 1.2-21.5-7.8-24.8-8.7-13.8-4-26.1 4.1-24.1-17.7 2.4-26.3 17.9-67.1 30.7-90.3 4.9-8.8 24.5-40.3 33.1-42.9 3.1-.9 7.2 1.5 8.9.5.4-.3 3.7-6.5 5.2-8.3 78.3-95.7 168.6-146.9 294.5-148.6 132.9-1.8 222.6 47.8 306.4 147.6 1.4 1.7 5.8 9 6.2 9.3 2.4 1.4 7-1.2 9.8-.4 7.6 2.1 25.6 30.2 30.2 37.9 13.9 23.7 31.8 69 33.8 96.2 1.6 20.6-11.3 13.1-24.2 16.8-2.5.7-4.5 2.5-6.8 3.2-5.8 1.8-11.9 2.9-17.5 5.5l-3.5-17c.2-.3-.2-1.8.2-2.3 3.6-4.4 22.6-10.5 23.3-11.7 4.5-6.8-6.4-31.1-9.7-38.4-3.9-8.8-9.1-18.8-13.7-27.3-2-3.7-15.9-28.3-17.4-29.1-.5-.3-10.8-1.3-12.3-1.3-8.7 0-25.2 1.8-34 3.1-7.3 1.1-14.2 4-21.5 5-.4-1.8.9-2.5 2-3.5 10.3-10 25.8-16.8 38.1-24.1-2.6-12.8-10.1-23.8-18.6-33.4-37.8-43-100.8-73.6-152.2-97.8-64.6-30.5-162.4-29.5-226.7 1-47.5 22.5-138.9 67.2-163.2 114.8-1.5 3-6.7 13.2-4.5 15.5 9 5.4 19.5 10 28 16.1 2 1.4 13.1 9.4 11.1 11.4-7.1-1.7-14.2-3.9-21.5-5-8.8-1.3-24.5-3.1-33-3.1s-7.8 2-11.8 1.1c-9.3 14.8-18.8 29.9-26.6 45.6-4.4 8.9-14.4 29.9-15.1 38.9-.2 2.4-.6 9.7 1 11 1 .8 4.9 1.5 6.7 2.3 5.2 2.4 14.7 5.6 15.3 11.2h.2Z" class="outline" data-original-prefix="outline"/><path id="outline-eyes5" class="outline"  fill="#000" d="M1341 1142c2.8 5.1 2.2 12.1 3.3 18.2.6 3.1 4.6 17.2 4.5 18.1-.3 1.7-10.6 14.7-8.8 16.7 2.2 2.4 7.6-14.3 12-10.5 0 2 .2 4 0 6-.9 8-7.9 29.6-10.7 38.3-3.7 11.3-6.9 17.3-14.8 26.2-2.9 3.3-23.2 24.8-25.1 25.9-5.6 3.1-11.9 3.2-17.6 4.4-15.2 3.3-30.3 5.6-44.8 11.8-.2 1.8 2.2.9 3.2.7 5-.8 9-3.8 13.5-4.5 3.7-.6 10-1.1 13.8-1.2 3.2-.2 8-.4 11 0 5.7.7-3.1 3.3-4.2 3.8-11 5.4-26.6 14.2-38.1 16.9-19.5 4.5-69.6 7.3-88.5 3-7.3-1.6-22.2-17.8-29.8-23.2-3.2-2.3-11.1-7.6-14.4-8.6-4.2-1.2 1.3 9.2.5 10-14.9 1.2-22.3-6.1-30.5-17.1-.7-1-.3-2.6-.5-2.9 4.9-2.4 4.6-9.9 4-14.5-1.3-10.2-15.3-17.8-22-24.5 20.5 3.6 41 15.9 62.4 13.9 44.4-4.3 63.1-31.3 96.7-55.3 34.7-24.8 71.6-39.6 112.9-50.1 3.4-.9 9.1-.5 12.1-1.4Z" class="outline" data-original-prefix="outline"/><path id="outline-eyes4" class="outline"  fill="#000" d="M707 1142c4 1.2 11.2 1 16.2 2.3 37.9 9.8 74 24.5 106.1 46.9 34.5 24.2 55.2 53.3 100.3 57.7 20.5 2 42.9-9.6 62.4-14.9.5 2.2-1.2 2.2-2.3 3.2-10.7 9.9-22.4 13.2-19.7 31.2.5 3.4 2.3 3.4 2.9 4.6.5.9 1 2.9.5 4-.6 1.4-13 13.6-14.6 14.5-2 1-14.9 3.5-15.9 2.6l2-9c-2.5-2.4-17.2 8.6-19.9 10.6-6.5 4.9-19.3 18.9-25.8 20.2-20.4 4-67.9 1.8-88.5-3-12.1-2.8-26.8-11.3-38.1-16.9-1.1-.5-9.9-3.1-4.2-3.8 3-.4 7.8 0 11 0 3.8.2 10.1.7 13.8 1.2 4.6.7 8.5 3.7 13.5 4.5 1.1.2 3.5 1.1 3.2-.7-5.7-1.6-11.1-4.2-16.8-5.7-12.7-3.5-35.4-4.8-45.6-10.4-3.5-1.9-29.8-30.3-32.5-34.6-3.8-5.9-6.3-13.8-8.5-20.5-2.5-8.1-10.3-32.3-10.7-39.3-.2-3.1.9-3.6 4-2 1.5.7 5.9 8.5 7.4 10.6.4.5 1.1 3.7 2.6 1.9 1.6-1.9-9.6-16.9-9.8-18.6-.2-1.6 3.8-15.6 4.5-19.2 1-5.7 1.2-11.5 2.3-17.2z" class="outline" data-original-prefix="outline"/><path id="outline-eyes3" class="outline"  fill="#000" d="M998 1254c1.7-6.8 7.8-11.9 11.4-18.1 4.8-8.4 10-20.3 7.6-29.9 6 1.8 8.5 2.6 14.5 0-1.3 11.8 3.9 24 10.3 33.7 4.4 6.7 5.8 7.8 9.2 15.3-3.3 0-4 4.3-7 4-4-7.2-11-10.3-15.9-17.6-.9-1.3-.8-4.1-1.7-4.4-5.5-1.6-6 5.6-9.4 9.5-3.8 4.4-11.3 6.9-12 12.5-1.4 1.3-5.2-4.4-7-5" class="outline" data-original-prefix="outline"/><path id="outline-eyes2" class="outline"  fill="#000" d="M981 1184c-1.9.4-2.4-1-3.4-2.1-13.3-14.7-23-34.8-35.1-47.9-22.5-24.4-60.9-45.3-87.4-65.6-1.2-.9-9.5-7-8.1-8.4 16.5 4.3 29.6 16 44.3 24.2 19.2 10.7 39.3 20 58.6 30.4 5.3 6 8.9 13.4 12.2 20.8 7.2 15.8 12.7 32.5 18.8 48.7h.1Z" class="outline" data-original-prefix="outline"/><path id="outline-eyes1" class="outline"  fill="#000" d="M1202 1060c.4 1.8-.9 2.5-2 3.5-7.4 7.2-18.8 12.6-27.3 18.7-19.4 13.7-51 35.4-66.7 52.3-10.2 10.9-18.1 30.5-29.4 41.6l-8.5 8c6.1-16.2 11.6-32.9 18.8-48.7 2.4-5.2 7.3-16.6 11.2-19.8 22.4-12.8 46.4-23.4 68.7-36.3 11.5-6.6 21.7-16.7 35.3-19.2Z" class="outline" data-original-prefix="outline"/><path id="fill-pupil-rt" class="fill"  fill="#fff" d="M1163.8 1250.1c.2 0 .8 2.1 1.6 2.9 8.5 8.8 16.3 15.8 29.2 11.2 9.7-3.5 18.3-14 18.2-24.6 0-3.7-4.3-17.1-3.4-18.6.5-.8 5.9-4.1 6.9-3.9 1.7.3 5.4 7 6.1 8.9 10.5 25.7-9.3 56.5-37.7 53.7-13.3-1.3-29.2-10-33.7-23 .5-2.1 11.2-7.5 12.8-6.6" class="fill" data-original-prefix="fill"/><path id="fill-pupil-lft" class="fill"  fill="#fff" d="M884.2 1250.1c1.6-.9 12.2 4.5 12.8 6.6-4.5 13-20.4 21.7-33.7 23-28.4 2.8-48.2-28-37.7-53.7.7-1.8 4.5-8.7 6.1-8.9.4 0 6.7 3.5 6.9 3.9.9 1.4-3.4 15-3.5 18.6 0 10.6 8.5 21.1 18.2 24.6 13 4.6 20.8-2.4 29.2-11.2.8-.8 1.4-2.7 1.6-2.9z" class="fill" data-original-prefix="fill"/></g><g id="05_Right Ear" data-trait="robo"><path id="fill-ear-rt1" class="fill"  fill="#fff" d="M1309.7 967.7c-21.5 15-73.7 1.5-73.8-28.2 0-17.4 19.3-64.4 26.3-82.8 15.6-40.9 37.9-99.1 62.5-134.5 12.2-17.5 47.1-40.3 66.9-49.1 25.2-11.2 58.3-12.1 85.4-10.1 0-1.7 0-3.4.4-5 29.2-103.4 66.2-199.3 108.1-297.9 10.4-24.5 17.8-43.7 36.4-63.6 26.6-28.2 58.4-54.6 87-81 5.1-4.7 9.5-10.2 15-14.5.4 36.3-3.9 72.5-9.2 108.3-21.8 147.8-72 298.3-146.9 427.1-112.2 41.1-191.9 136.1-258.2 231.3Z" class="fill" data-original-prefix="fill"/><path id="fill-ear-rt2" class="fill"  fill="#fff" d="M1288 747c-16.2 44.6-44.8 91.8-64.2 136.3-5.3 12.3-10.4 24.7-14.6 37.4-.2 2.1 4.6 10 6 12.5 5.6 9.8 12.7 20.5 19.8 29.2-8.1-3.9-16.8-7.8-24.3-12.7-3.9-2.5-12.8-9.1-15.7-12.3-4.7-5.3-17.9-31.7-21.5-39.5-1.1-2.4-2.8-5.2-3.3-7.8-.9-5.4 6.1-15.3 8.6-20.9 14.3-31.3 25.7-60.8 38.7-92.3 5.4-13.2 13.6-26 18.2-39.8 13.7-40.3 17-104.6 9.9-146.5-.9-5.6-4.2-13.5-4.3-18.5-.3-13.9 31.4-60.6 40.8-73.7 29.1-40.7 69.4-86.1 106.8-119.2 1.9-1.7 8.4-7.6 10.3-7.4q37.2 20.1 72 44.1c15.8 10.9 34.5 23.7 49.2 35.8 2.7 2.2 8.4 5.7 7.1 9-13 32.3-26.4 64.4-39.4 96.7-7.8 19.4-14.3 40.2-22.8 59.2-2.4 5.4-7.8 17.6-11.5 21.5-11 11.9-42.4 5.7-57.5 7.5-7 .8-39.4 25.6-47.8 31.2-9.3 6.3-20.9 11.6-29.2 18.8-11.1 9.6-18.8 27.5-25.3 40.7-1.2 2.5-2.7 8-4.1 9.7-.9 1.2-1.8.4-2.1.6 2.9-8 9.1-24-3.2-27.3-24.9-6.6-31.1 31.7-10.3 32.4 5.1.2 9.3-2.7 13.5-5Zm108.8-362.8c-16.1 1.3-18.6 20.6-6.3 29.8 13.7 10.2 34.5 3.9 28.7-15.7-2.3-8-14.4-14.7-22.4-14.1m-166.5 417.1c-.6.5-5.3 6-5.8 6.7-8.6 13.3 1.2 29.8 17.4 23.4 5.4-2.1 8.7-8.2 10.5-13.5 5.3-15.4-9.2-27.6-22.1-16.6m-32.6 72.9c-19.7 4.1-21.7 39.6 2.6 34.5 17.2-3.6 22.9-39.9-2.6-34.5" class="fill" data-original-prefix="fill"/><path id="fill-ear-rt3" class="fill"  fill="#fff" d="M1721 186c-31.9 28.2-64.8 55.6-96 84.5-20.5 18.9-33 29.2-44.4 55.5-16.7 38.2-28.6 79.6-45.5 118-1.5.4-1.7-.4-2.5-1-5.7-3.9-11.9-10-17.6-14.4-32.2-24.7-65.5-48.1-99.8-69.7l.8-3.5c16.1-12.9 31.8-26.3 48.2-38.8 39-29.7 81.9-61 126.2-81.8 42-19.7 86.2-35.6 130.7-48.8Zm-200.2 209.2c-4.4.3-8.9 3.1-11 7.1-8.3 15.9 17.4 32.4 26.2 21.2 9.4-11.9-.4-29.5-15.2-28.3" class="fill" data-original-prefix="fill"/><path id="fill-ear-rt-rivet5" class="fill"  fill="#fff" d="M1205.8 881.2c.3.4 1.9 6.6 1.9 7.4.3 11.2-17.1 14.3-14.6-1.1.8-5.2 9.9-9.8 12.7-6.3" class="fill" data-original-prefix="fill"/><path id="fill-ear-rt-rivet4" class="fill"  fill="#fff" d="M1235.7 805.2c13.9-2.8 12.2 15.8 1.7 16.8s-11.4-14.8-1.7-16.8" class="fill" data-original-prefix="fill"/><path id="fill-ear-rt-rivet3" class="fill"  fill="#fff" d="M1271.3 740.7c-6.9-5.6 4.4-18.6 11.3-13.8 7.7 5.4-4 19.7-11.3 13.8" class="fill" data-original-prefix="fill"/><path id="fill-ear-rt-rivet2" class="fill"  fill="#fff" d="M1398.7 396.2c10.5-3.1 16.5 14.9 2 11.6-6.3-1.5-8-9.8-2-11.6" class="fill" data-original-prefix="fill"/><path id="fill-ear-rt-rivet1" class="fill"  fill="#fff" d="M1529.7 415.7c-3.4 3.6-10.4 2.4-10.8-3.2-.8-12.8 17.9-4.2 10.8 3.2" class="fill" data-original-prefix="fill"/><path id="outline-shading-ear-rt" class="outline"  fill="#000" d="M1723.2 198.8c1.1.7 3.4 0 3.8.2 1 .9.2 23.2 0 26.5-3 78.4-22 167.1-43.5 242.5-27 94.6-62.5 187.2-112.8 271.8-109 38.4-182.4 127.3-248.3 217.2-6.9 9.3-10.1 16.1-22.2 18.8-16.7 3.7-51.9-3.1-68.2-9.2-8.7-3.3-32.8-19-39.1-26-4.2-4.7-24-40.7-25.5-46.5-.8-3.1-.6-6.3-.4-9.5 9.9-22.1 21.6-43.6 31.1-65.9 6.5-15.3 11.1-31.6 17.3-46.7 4.8-11.7 11.9-22.6 16.2-34.8 14.8-41.1 17.6-100.5 11.1-143.6-1.5-9.8-5.1-16.5-3.9-27.1.9-7.5 7.1-14.2 9-21.5l15 73c62-48.6 120.2-102.4 181.5-152 15.7-12.7 31.6-26.8 49.5-36l-1.5-3c-21.9-15.4-42.7-32.5-65.8-46.2-2.5-1.5-31.8-16.3-30.7-17.8 5.9-1.9 11.6-5.4 16.5-9 3.4-2.5 4.6-7.1 9.8-5.8 3.4.9 18.9 12.1 23.1 15 23.8 16.3 47.4 33.3 70.8 50.3 11.8.5 13.6-2.1 13.4-13.5 12.9-26.7 23-54.7 35.3-81.6 2.3-4.9 5.3-13.5 8.6-17.4 5.9-6.9 18.3-17 25.5-23.5 21.2-19 65.9-59.4 89.8-71.2 4-2 26.6-10.7 30-11.1 3.9-.4 3.4 3 4.5 3.6ZM1703 288c-.6-.8-7.1 4.7-8 5.5-23.5 20-52.6 47-73 70-15.3 17.2-21 36-28 57.5l101.1-74.4c3.3-19.4 6.6-39 7.9-58.5Zm-16 102c-.7-.8-10 6.2-11.3 7.2-33.3 23.5-66 47.9-98.2 72.8-6.6 18.3-12.6 37-16.4 56.1l113.7-77.3 12.3-58.7Zm-207.3 146.7c6.9-24.1 15-48 19.8-72.7l-233.4 175.2c2.2 17.2 3.6 34.5 1.9 51.8zM1634 535c-.7-.8-6.4 4.2-7.5 5-29.9 23.4-62.7 50.7-90.1 76.9-8.9 8.5-20.1 19.2-26 30-3.6 6.6-7.4 20-11.9 25.1-6.7 7.4-25.1 18.6-34 26-19.2 15.8-31.9 28.3-46.3 48.7-16 22.5-29.9 46.6-42.2 71.3l64.3-38.2 115.7-66.3c27.3-58.9 55.3-117.6 78-178.5m-357.3 190.2c-8.5 1.8-10.6 17-2.2 16.8 3.8 0 1.1-3.9 1.8-5 1-1.5 8.5-2.7 8.6-6.4 0-4-4.6-6.1-8.2-5.4m-12.8 16.9c-1.9-1.6-7.4 3-8.8 4.6l-18.8 51.1c-5.9 3.1-15 19.2-5.3 21.9 5.5 1.5 7.5-5.5 10.7-6.4 2.1-.6 4.5.2 6.6-.4 1.6-.5 2.3-2.8 4.2-2.8 3.3 0 6.4 8.5 8.5 7 5.3-16.9 14.6-32.2 20-49-15.5 3.6-14.1-23.4-17.1-26M1224 833c-1.7-1.8-1.7.7-2.1 1.4-3.7 7.3-13.8 39.5-18.6 42.4-3.4 2-12 2.6-11.3 9.7s10.4 3.4 13.5 3.6c2 .1 3.5 2 6 2 1.3 0 4.1-1.4 4.5-1.1 3.2 2.5 3.5 31.1 15.2 9.7l18.8-55.2c-2.7-.5-4.3 1.4-7.5 1.6-6.4.3-11.7-2.7-15.5-7.6-1.7-2.2-2.8-6.2-3-6.5" class="shading" data-original-prefix="shading" opacity=".2"/><path id="outline-shading-ear-rt2" class="outline"  fill="#000" d="M1384 405c2.6-.1 3.5 2.8 5.9 3.5 6.6 2.1 5.5-1.4 7.8-2.5 1.8-.9 7.7-3 9.9-3.8 1.5-.5 3.9.2 5.3-.7 2-1.3.8-9.2 6-4.1 10.2 10-1 33.1-14.4 32.5-10.8-.5-23.4-13.6-20.6-24.9Z" class="shading" data-original-prefix="shading" opacity=".2"/><path id="outline-ear-rt" class="outline"  fill="#000" d="M1734.9 163.1c.9 5.1 2.3 10.3 3 15.5 6 47.5-.5 106.2-7 153.7-17.7 128.1-67.1 281.2-131.7 393.3-2.7 4.6-14.6 24-17.8 26.2-3 2.1-16.3 5.5-21.3 7.7-29.5 12.8-63.7 37.8-88.5 58.5-54.2 45.1-104.1 102.3-138.2 163.9-13 3.4-25.7 8.6-38.7 11.1-16.8-6.7-37.5-5.5-54.2-10.9-6.7-2.2-43.9-21.9-49.8-26.2-16.8-12.5-29.2-53.7-41.2-71.8-1.4-4.6.6-29.6 1.6-35.5 1.6-9.2 25.9-43.5 32.1-54.9 31-57 45.2-134.6 38.8-199.2-.6-6.2-6.4-29.9-5.8-32.8 1-5 11.8-23.5 15-29 22.3-39 50.6-76.1 80.3-109.7 100.4-113.9 223.3-215 374.1-251.9 6.5-1.6 46.4-10.5 49.3-8M1721 186c-44.5 13.2-88.6 29.1-130.7 48.8-44.4 20.8-87.2 52.1-126.2 81.8-16.4 12.5-32.1 25.9-48.2 38.8l-.8 3.5c34.3 21.6 67.6 45 99.8 69.7 5.7 4.4 11.9 10.5 17.6 14.4.8.6.9 1.4 2.5 1 16.9-38.3 28.9-79.7 45.5-118 11.5-26.4 24-36.6 44.4-55.5 31.3-28.9 64.1-56.3 96-84.5Zm-411.3 781.7c66.3-95.2 146-190.2 258.2-231.3 74.9-128.8 125.1-279.4 146.9-427.1 5.3-35.8 9.6-72.1 9.2-108.3-5.5 4.3-9.9 9.8-15 14.5-28.6 26.4-60.4 52.7-87 81-18.7 19.8-26 39.1-36.4 63.6-41.9 98.6-78.9 194.5-108.1 297.9-.5 1.7-.5 3.3-.4 5-27.1-2-60.2-1.1-85.4 10.1-19.7 8.8-54.7 31.7-66.9 49.1-24.6 35.4-46.9 93.6-62.5 134.5-7 18.3-26.4 65.3-26.3 82.8.1 29.7 52.3 43.2 73.8 28.2ZM1288 747c-4.2 2.4-8.4 5.2-13.5 5-20.8-.7-14.6-39 10.3-32.4 12.3 3.3 6.1 19.3 3.2 27.3.3-.2 1.2.5 2.1-.6 1.4-1.8 2.8-7.3 4.1-9.7 6.5-13.2 14.2-31.1 25.3-40.7 8.3-7.2 20-12.5 29.2-18.8 8.4-5.7 40.7-30.4 47.8-31.2 15.1-1.8 46.5 4.4 57.5-7.5 3.6-3.9 9.1-16.2 11.5-21.5 8.5-19 15-39.8 22.8-59.2 13-32.3 26.4-64.4 39.4-96.7 1.2-3.3-4.5-6.8-7.1-9-14.7-12.2-33.3-25-49.2-35.8q-34.8-24-72-44.1c-1.9-.3-8.3 5.6-10.3 7.4-37.4 33.1-77.7 78.5-106.8 119.2-9.4 13.1-41.1 59.8-40.8 73.7 0 4.9 3.4 12.8 4.3 18.5 7 41.8 3.8 106.1-9.9 146.5-4.7 13.8-12.8 26.5-18.2 39.8-13 31.6-24.4 61-38.7 92.3-2.5 5.6-9.5 15.5-8.6 20.9.4 2.5 2.2 5.4 3.3 7.8 3.6 7.8 16.8 34.2 21.5 39.5 2.9 3.2 11.8 9.8 15.7 12.3 7.5 4.9 16.2 8.8 24.3 12.7-7.1-8.7-14.2-19.4-19.8-29.2-1.5-2.6-6.2-10.4-6-12.5 4.2-12.7 9.3-25.2 14.6-37.4 19.4-44.6 48-91.7 64.2-136.3Zm-16.7-6.3c7.3 5.9 18.9-8.3 11.3-13.8-6.9-4.9-18.2 8.2-11.3 13.8" class="outline" data-original-prefix="outline"/><path id="outline-ear-rt4" class="outline"  fill="#000" d="M1197.7 874.2c25.5-5.3 19.7 30.9 2.6 34.5-24.2 5.1-22.3-30.4-2.6-34.5m8.1 7c-2.8-3.5-11.9 1.1-12.7 6.3-2.4 15.4 14.9 12.3 14.6 1.1 0-.9-1.6-7-1.9-7.4" class="outline" data-original-prefix="outline"/><path id="outline-ear-rt3" class="outline"  fill="#000" d="M1230.3 801.3c12.9-11 27.5 1.3 22.1 16.6-1.8 5.3-5.1 11.4-10.5 13.5-16.3 6.3-26.1-10.2-17.4-23.4.5-.7 5.2-6.2 5.8-6.7m5.4 3.9c-9.7 2-8.4 17.8 1.7 16.8s12.2-19.6-1.7-16.8" class="outline" data-original-prefix="outline"/><path id="outline-ear-rt2" class="outline"  fill="#000" d="M1396.8 384.2c8-.6 20.1 6.1 22.4 14.1 5.8 19.6-15 25.9-28.7 15.7-12.3-9.2-9.8-28.5 6.3-29.8m1.9 12c-6 1.8-4.3 10.1 2 11.6 14.5 3.3 8.5-14.7-2-11.6" class="outline" data-original-prefix="outline"/><path id="outline-ear-rt1" class="outline"  fill="#000" d="M1520.8 395.2c14.8-1.1 24.7 16.4 15.2 28.3-8.9 11.2-34.5-5.3-26.2-21.2 2.1-4 6.6-6.8 11-7.1m8.9 20.5c7.1-7.5-11.7-16-10.8-3.2.4 5.6 7.4 6.8 10.8 3.2" class="outline" data-original-prefix="outline"/></g><g id="06_Left Ear" data-trait="notched"><path id="fill-ear-lft" class="fill"  fill="#fff" d="M515.3 757.7 497.9 703c-4.5-.8-15.7 5.8-19 3.5-2.3-1.5-6.1-25.3-7-29.5-1.9-1.6-22.5 9.7-28.3 7.8-.7-.2-1.2-.8-1.6-1.4l-62.4-152.6c-3.7-41.1-13-85.4-14.7-126.3-.1-3.3-1-8 2-9.9l32.9-20.5-37.7-10.3-29.8-44.7c-3.5-42.9-4.2-85.6-6.5-128.6-.5-2.7 8-8.8 9.8-9.3 2.4-.6 8.1 2.5 10.9 3.6 46.2 19.1 91.1 42.1 137 62l183.2 124.8L792.3 514c2.9 3 4 6.5 4.5 10.5 7.1 58.5 6 120 13.2 178.8l79.7 168.3c.4 1.9 0 3.4-.8 5.1-7 17.9-22 38.7-30.7 56.3-20.9 16.1-39.2 32.7-64.7 41.3-10.7 3.6-33.2 11-43.5 12.5-2.4.3-4.7.6-7-.5-28.5-27.2-57.8-53.6-85.7-81.3l-37.6-83.4L515 757.8Z" class="fill" data-original-prefix="fill"/><path id="outline-shading-ear-lft" class="outline"  fill="#000" d="M608.2 565.2c.8-.8 2.2-1 3.3-1.2 13.1-2 32.8-1.5 44.9-5.2 2.8-.8 11-9.6 14.1-5 .5.7 2.2 15.3 2.4 17.6 1.2 14.7.7 27.7 3.3 42.7 8.2 46.2 31.4 83.3 65.2 114.8 1.4 1.3 7.1 4.8 7.3 5.2 1 1.7 0 13.9.2 17.3.9 12.3 6 21.7 8 33.5 2.7-3.1 5.7-6 8.5-9 1.7-1.7 1.3-5 5-2l27.4 50.6c7.7 26.9 34.8 63.7 56.7 81.3 2.2 1.7 13.4 7.9 13.5 8.7.5 2.4-7.6 14.7-9.7 17.2-10.6 13.4-47.4 38.2-63.5 44.5-8.8 3.4-36.8 11.1-45.9 12.2-1 .1-2 .5-3 0l-65-53.1-77-110-70-38-39.1-83.4c-2.9-1.8-10.8 4.3-13.4.9s-5.7-31.3-7.6-32.9c-11.2 0-22.1 3.7-33.2 5-7-11.4-11.4-14.7 3-20.8 11.4-4.8 24.1-5.7 36.3-6.7-32.8-44.7-49.3-99.3-63-152.5 1.4.2 1.9 1.8 2.5 3 12.6 23.2 36.1 80.6 58.2 92.8 1.6.9 3.3 2.3 5.3 2.2.8-.9-4.8-20.8-5.7-23.8-2.5-7.6-11-23.7-11.3-29.8-.5-10 4.4-26 5.1-36.9 2.7-44.5-13.8-99.2-36.9-137.2-.6-1-3.6-6.7-5.2-5.3-6.7 22.4-24.9 43.5-45.8 54.2-1.2 7.7-2.5 15.5-3.2 23.3-.7 6.9-.2 15.5-1 22-.2 1.4-.6 3-2 1.5L361 399.6l39.9-25.2-57.1-17.9-9.9-74.6 9.1 22.4c2.6 5.6 8.6 18.3 12.9 22.1 11.2 10 48.5 26 63.4 25.6 1.4 0 3.1.6 2.5-1.5-14.6-20.1-30-39.8-48.8-56.2L360.3 252c24.5 9.1 46.6 22.6 68.4 36.6 20 12.8 39.3 25.1 55.6 42.4 27.9 29.6 53.2 65.5 69 103-1.6 41.9-.6 84 7.9 125.1 2 9.5 6.3 30.8 10.3 38.7 1.1 2.1 7.7 10 9.7 11.3.9.6 1.4 1.7 2.6.5l24.2-44.3ZM777 967c-3.9-10.9-5.5-27.1-10.2-37.3-2.9-6.1-17-20.7-22.2-27.8-24.6-34-42.1-71-63.4-106.6-16.1-26.8-19.1-20.9-44.5-33.5-28-13.8-72-45.1-92.1-68.9-11.2-13.2-19.7-30.7-30.5-43.5-1-1.2-9.9-10.7-11-9.5-.7 20.8 11.1 38.7 20 56.5-1.5-.3-11.7-12-9.8-5.2 2.3 8.2 6.9 17.8 9.8 26.2 5.3 15.4 10.6 30.9 15.5 46.5 21.2 12.2 44.3 25.6 66.8 35.2 16.5 7 33.5 9.8 50.4 15.1 5.5 13.5 10.9 27.2 17 40.5 9.5 20.5 22.4 32.9 37.7 49.3 17.5 18.9 38.7 41.3 58.5 57.5 1 .8 7.3 6.2 8 5.5M495 668c-2.2-1.5-4.1 5.2-4.7 6.8-.9 2.3-5.2 15.2-4.2 16.2 1.7.5 2-.7 3-1.5 1.8-1.3 12.8-10.3 12.9-11.2.4-2.6-6.7-7.3-6.9-10.3Z" class="shading" data-original-prefix="shading" opacity=".2"/><path id="outline-ear-lft2" class="outline"  fill="#000" d="M673 548c1 1.1-8.8 24.7-9.5 28.9-3.2 18.8 9 75.6 17.4 93.7 8.3 17.9 19.9 26.5 31 41 10 13 27.1 42.8 34 58 3.2 6.9 7.3 23.6 10.7 28.3.6.9 2.3 2.8 3.5 2 .7-.5 6.9-12.2 9-13.5 1.1-.7 2.2-.8 3.4-.4 4.1 1.4 13.8 33 15.4 38.7 4 14.6 5.1 30.8 8.8 44.2 2.3 8.4 20.4 26.7 25.3 35.7 2.6 4.6 4 23.4 4.2 29.8.3 6.8-5.8 11.2-10.6 15.5-3 2.6-13 10.7-16.2 11.8-1.5.5-2.7.7-2.3-1.3.7-3.6 4.3-8.8 4.9-13.1 2.6-18.9-8.5-44.7-15.7-62.1-1.5-3.5-5.2-8.8-6-12-1.8-8.1-2-19-3.4-27.6-.5-3.3-4-24.7-4.8-25.7-1.6-1.8-3.9 4.7-4.2 5.3-2.6 5.9-2.8 11.8-4.7 17.3-.5 1.4.3 1.7-2.1 1.4-17.1-29.1-27.5-61.7-47.2-89.3-7.7-10.8-17.1-22.2-26.8-31.2-3.1-2.9-18.5-13.8-19.5-15.5-2.6-4.3-1.1-16.8-1.7-22.3-1.2-13-10.2-51.3-17.9-61.1-10.4-13.3-23.7 7.8-28.2 16.8-11.9 24.1-10 50.1-.3 74.7 2.7 6.9 6.5 13.3 9.5 20-2.9 0-5.5-1.3-8-2.5-12.4-5.8-27.9-15.9-39.3-23.7-9.7-6.7-30.6-22.1-35.5-32.5-4.7-9.8-7.2-35.2-10.5-47.5-8.6-32.7-20.4-64.8-41.6-91.5-.3-1.7 5.1-9.4 6.3-12.3 14.5-33.8 3.2-89.8-11.3-122.7-19.9-45-50.2-81.4-89.9-110.1-6-4.3-15.7-8.5-20.4-13.6-5.6-6.2-10.5-19.5-14.9-27.1 15.1 6 29.9 13 44 21 46.7 45.1 89 81.7 117.2 141.9 2.5 5.3 12.2 26.2 12.6 30.4.7 7.6-5.5 27.2-6.7 35.9-7.5 53.4-.2 102.7 25.7 150.1 5.5 10 23 36.2 36.2 23.9 4.9-4.5 9.1-31.2 11.5-39.5 2-7.1 8.6-30 12-35 3.1-4.5 28.4-18.6 34.8-22.2 2.3-1.3 20.8-11.7 21.7-10.8Z" class="outline" data-original-prefix="outline"/><path id="outline-ear-lft1" class="outline"  fill="#000" d="M847 941c10.6-11.2 23.3-30.3 27.1-45.4 4-15.9-.3-15.2-4.9-28.4-9.8-28.2-18.3-52.5-31.4-79.6-19.7-40.8-34.2-57.3-38.8-105.2-2.7-28-4.3-56-7-84-2.3-23.6-2.3-66.6-15.2-85.8-14.9-22.2-37.6-49.1-54.8-70.1-38.7-47-78.5-83-129.5-116.6-44.3-29.2-93.1-59.2-139.9-84.1-38.8-20.7-78.7-40.3-120.7-53.8-1.5 19.2-1.7 39.3 0 58.5s5.3 44.4 9.3 63.7c1.7 7.9 11.2 35.7 17.3 39.7 8.2 5.5 35.6 11.4 46 13 7.9 1.2 12.6-2 7.5 9.8-6.1 14.1-22.8 28.1-36.2 35 1.3 9.3 4 18.5 5.1 27.9 2.4 21.6.3 44.6 3.3 65.7 6.5 46 32.5 120.1 58.3 158.7 1.4 2 3.8 6.9 5.9 7.1 2.8.3 18.9-4.4 24-5 6.1-.7 12.5-1.5 18.5 0-1.5 5.2-4.3 10-4.9 15.6-.3 2.9-.6 12.9.8 14.8 2 2.8 14.2-4.7 17 .2l24.6 68.4c28.6 23.4 63.9 36.6 93.9 58.1 19.4 47.2 45.7 91.8 83 127 32 30.2 60.3 41 103.5 23 0 2-1.1 2.8-2.7 3.8-9.1 6.2-48.7 21.7-59.3 22.8-3 .3-21.2-3.2-23.6-4.5-14.8-13.8-28.4-30-43.4-43.6-10.8-9.8-31.4-21.3-37.2-33.8-2.9-6.2-4.6-14-7.3-20.7-6.5-15.5-24.7-50.7-38.1-59.9-6.9-4.7-17.7-8.4-25.4-12.6-18.9-10.5-36.6-23.3-54.4-35.6-3.2-9.7-16-72.5-23.2-74.8-3.8-1.2-13.7 5-16.2 2.8-.6-.5-4.1-12.1-4.6-13.9-1.3-4.8-1.7-10-2.5-15-6.3-.6-12.9 3.1-18.3 6.1-3 1.7-12.5 9.6-13.3 9.8-1.6.3-2.5-1.6-3.2-2.6-7.7-10.6-16.4-27.4-22.7-39.3-24.2-45.5-47-101.1-56-152-2.4-13.5 2-13.7 4.3-24.8 3.2-15.5-1.3-47.1-4.1-63.5-.8-4.5-4.5-15.7-3.5-19.1 1.1-3.7 31-16.7 33.8-23.7-13.2-.2-28.6-3.9-40.3-10.2-28.2-15.2-26.4-45.7-28.7-73.3-2.6-32-7.2-72.4-3-104 .3-2.4 3.7-16.9 4.6-17.6 3-2.2 20.7 2.5 25.4 3.6 67.6 16.1 153.5 57.1 213.7 92.3 35.8 21 74.6 43.9 103.3 73.6 52.5 54.4 98.3 114.6 141.4 176.6 2.3 4.6 2.2 21.8 2.6 28.4 3.3 61.9 8 156.6 41.6 209.4 3.9 6.2 8.9 11.1 12.3 17.7 16.1 31.9 26.7 69.7 43.1 101.9l-.5 8.4c-13.6 15.6-21.6 39.6-39.2 50.8-5 3.2-11.6 7-17.3 8.2Z" class="outline" data-original-prefix="outline"/></g><g id="07_Head" data-trait="tall-hawk"><path id="fill-head" class="fill"  fill="#fff" d="m1090.2 196 40.7 41.8c3.3 1.3 3.6-4.9 4.9-7.8 2.8-6.4 6-12.7 9-19l33 34c4 5 8.8 15.8 10.9 22.1s2.3 11.6 3.8 16.2 1.8 2.8 2.8 3.2c10.6 4.5 15.7-14.1 19.2-20.8s.9-2.2 1.8-1.2l18.8 29.2 2.2 40.3c7 0 14.1.3 21-1l3 22.4-88.7 342.4-.3 5.2c6.1.9 10.9-4.4 16.9-3.9 2.7 6.6 4.4 11.6 1.4 18.7L1087.8 1053c-2.4 3.4-12.1-5.4-16-2s-7.4 12-9 15c-2.6 4.7-7.9 18.4-10.4 21.3s-3.2 1-5.1 3.2c-9.4 10.9-15.4 31.4-21.9 44.1s-.4 3.2-2.1 1.4-3.8-11.3-4.8-13.7c-3.6-7.9-11.9-25.8-17.2-31.8-1.9-2.2-4.4-2.3-5.5-3.5-1.7-2-6-13.4-8-17-1.9-3.5-9.1-17.3-11-19-3.1-2.7-10.9 2.6-14.9 2.9l-1.4-1.6c-31.1-106.2-65.3-211.4-96.4-317.6-1.7-5.9-7.5-21.5-7.7-26.4s1.9-7.6 2.8-8.8c1.4-1.9 13.6 3.6 16.7 4.3s1.6.3 1.2-1.2l-87.8-338.2c-4-10.3 0-20.9 1-31.4 6.9 1.2 13.9 1 21 1l2.2-40.3c.4-2.2 16.7-27.2 18.8-29.2s.8 0 1.2.8c3.4 6.6 10.1 27 20.3 20.8s4.6-14.9 6-19c7.6-22 25.3-36.6 41-53s1.6-4.8 3.5-2.4l12.4 27.4 40-43c2.5-1 .5 4 3.5 5.5s5.9.8 8 0c7-2.8 23.9-25 29.7-26.2 17.5-1.7 35.1-1.7 52.6 0 5.8 1.3 22.8 23.4 29.7 26.2 4.9 2 10.9.7 10-5.5Z" class="fill" data-original-prefix="fill"/><path id="outline-shading-head" class="outline"  fill="#000" d="M986 962c1.9-.2 1.9-4 2-5.5.8-13.2-1.9-26.3-1-39.5l11.5 37c3.9 13.4 2.3 27.6 3.5 41.5 2.9 33.5 13.5 69.9 21 103 .4 1.6-.7 1.7 2 1.5 5.2-32.5 16.3-63.7 20-96.5 1.7-15.2 1.2-30.7 3.3-45.7L1061 916c-.2 12.5-.8 25-.9 37.5 0 3.2-2.8 8.2.9 10.5 1.9-8.6 6-16.6 8.6-25 25.1-83.3 35.1-171.4 48.6-257.4.3-1.6.4-6 1.8-6.7 4.3 16.5 4.5 33.6 6 50.5.6 7.1 3.1 15.9 3.1 23 0 19.9-7.5 47.6-9.1 69-.7 10.2-1.1 20.4 0 30.5 14.7-17.8 26-38.6 37-59l2 8.5c5.5 25.6-14.3 46.3-20.2 68.7-3.2 12-3.5 24-6.2 35.8-2.8 11.9-8.7 23.8-10.5 36l-4-1-30.2 110.3c-2.9 5-12.3-5-16.3-1.3l-19.4 36.3c-13.9 9.1-17.3 30.5-25.3 43.9-1.8 2.9-2.9 4-5.2.7-4.5-10-8.4-20.7-13.8-30.2-3.3-6-6.6-12-12.7-15.3l-18.6-35.4c-4.4-3.8-13.5 7-16.7.7-11.2-36.2-19.8-73.2-29.8-109.7h-3.8c-2.4-12.4-7.7-24-10.6-36-2.6-10.8-2.9-22.5-5.8-33.2-7-25.8-24.7-41.9-20.6-72.2.2-1.5.5-6 1.9-6.6 10.9 20.4 22.1 41.3 37 59 .2-13.2 0-26.3-1-39.5-1.5-18.7-8-42.2-8.1-60 0-7.7 2.4-15.5 3.1-23 1-10.9 1.4-41.2 5.5-49.5.2-.5 1.3-1.3 1.5-1 .8 8.4 1.8 17 3.2 25.3 13 79.9 22.7 161.5 46.1 238.9 2.3 7.5 6.7 14.7 7.8 22.7zm3 1c.7-1.4-.6-2.7-1-2-.7 1.4.6 2.7 1 2" class="shading" data-original-prefix="shading" opacity=".2"/><path id="outline-head6" class="outline"  fill="#000" d="M858 461c2.2-.8 9.2-8.7 11-7l8 44c4.6-17 14.5-35.3 25.2-49.3.7-.9 4.6-7.1 5.8-5.7 1.2 18.4 5.3 37 12.5 54 1.5-4.7 2.6-9.6 5-14 .7-1.4 4.7-8.3 6.5-7 13.5 31.3 41.5 61.5 75.6 69.9 20.3 5 35.4 1.1 53.4-8.4 25.4-13.4 43.4-35.6 55-61.5 1.9-1.4 5.3 5.1 6.2 6.3l5.8 14.2c6.4-17.1 11-35.2 12-53.5 1.2-1.4 5.1 4.8 5.8 5.7 7.9 10.4 14.5 23 20.4 34.6l5.8 14.7 7-44c1.8-1.7 8.8 6.2 11 7l27.6-77.9c3-5.9 8.8 4.9 9.3 7.7.6 3.5-7.9 31.3-9.6 37-6.4 22.3-14.4 44.1-21.3 66.2-2.5 2.3-5.2-8.8-7-9-2.9 19.2-7.8 38.9-20.5 54-2.1-11.3-3.8-22.7-7.2-33.8-2.3-7.4-6-17.9-9.2-24.8-.4-.9-.4-3-2.1-1.4s-6.8 24.6-8.8 29.7c-3.9 9.8-10.6 17.6-16.2 26.3l-2-.5c-.3-8.2-2-17.4-5-25-.4-1-2.2-7.2-4-5.5-15.2 29.4-41.9 52.6-74.2 61.3-16.9 4.5-26 2.6-42-3.5-28-10.5-50-31.5-63.8-57.8-1.8-1.7-3.6 4.5-4 5.5-3 7.6-4.7 16.8-5 25l-2 .5c-5.6-8.7-12.3-16.5-16.2-26.3-2-5.1-7.1-28-8.8-29.7s-1.7.5-2.1 1.4c-3.2 7-6.9 17.4-9.2 24.8-3.4 11-5.2 22.4-7.2 33.8-12.7-15.1-17.6-34.8-20.5-54-1.8.2-4.5 11.3-7 9-7.8-24.9-16.8-49.6-23.7-74.8-1.4-5.1-7.5-24.2-7.2-27.7.2-2.7 5.9-13.8 9-9.1l28 78.5h-.1Z" class="outline" data-original-prefix="outline"/><path id="outline-head5" class="outline"  fill="#000" d="m996 1009-7.5-15c-34.7-88.2-52.2-182.1-61.5-276.5-.6-6.5-2.4-18.1-2.1-24 .3-5.2 4.1-12.8 4.1-18.5z" class="outline" data-original-prefix="outline"/><path id="outline-head4" class="outline"  fill="#000" d="M1053 1009c-1.7.2-1.1-3.5-1-4.5.2-2.9.8-6.8 1.3-9.7 5.1-29.5 14.2-60.8 20.4-90.6 12.8-61.8 24-124 34.8-186.2l10.5-43c0 5.7 3.8 13.3 4.1 18.5 1.2 21.6-7 62.7-10.2 85.8-5 36.2-10.1 72.5-19.1 107.9-10.6 41.2-24.7 82.5-40.7 121.8z" class="outline" data-original-prefix="outline"/><path id="outline-head3" class="outline"  fill="#000" d="M951 577c5.7 33 10.3 66.3 16.3 99.2 5.7 31.2 16.1 61.5 13.7 93.8-1.7.3-2.1-.4-2.8-1.7-1.3-2.6-3-9.7-4-13-5.5-18.9-8.6-38.5-13.4-57.6-8.8-35.5-21.6-69.4-16.9-107.1.5-4 1.5-14.2 7-13.5h.1Z" class="outline" data-original-prefix="outline"/><path id="outline-head2" class="outline"  fill="#000" d="M1067 770c-2.4-32.3 8-62.7 13.7-93.8 6-32.8 10.5-65.8 16.3-98.6 4.7-2.7 6.3 7.7 6.7 11.2 5.1 40.4-7.3 71.2-16.6 108.8-4.8 19.1-7.9 38.8-13.4 57.6-1 3.3-2.7 10.4-3.9 13-.7 1.4-1.1 2.1-2.8 1.7Z" class="outline" data-original-prefix="outline"/><path id="outline-head1" class="outline"  fill="#000" d="m1085 192 5-19.4 2-.6 34.5 44c4.8-8.8 9.1-18.6 10.4-28.6.4-3.3-.3-6.8 0-9.9.4-3.3 3.9.3 5.4 1.6 18.4 17.2 36.7 45.6 46.1 68.9 3.8 9.6 6.2 19.6 10 29 10.4-12.1 14.9-28.5 19.5-43.5.4-1.4-.6-1.8 2-1.5 14.9 25.7 28.2 52.4 28 83 5.9-4.3 10-10.4 14.4-16.1l8.6-14.9c1.3 12.8 3.6 25.5 3 38.5-1 23.1-5.7 50.8-9.2 73.8-14.8 97.8-44.2 190.9-75.8 284.1 1.5 1.9 1.2 1.2 2.7.7 10.5-3.7 23.4-16.9 31.8-24.2 0 6.9-2.9 15.1-5 22-12.4 41.3-30.2 82.6-44.5 123.5-26.2 75.1-46.6 151.6-70.7 227.3-2.7 8.5-7.5 26.6-11.5 33.5-1.8 3.2-8.4-.9-11.8-1.8-1.3-.3-7.7-1.8-8-1.5.3 11.8-2.9 23.4-5 35l-15-8c-4.6 9.7-10.7 18.5-15.2 28.3-4 8.8-6.2 17.8-9.6 26.4-.4 1-2.5 6.9-4.2 5.3-6.4-21.3-16-40.9-27-60l-15 8c-2.1-11.6-5.3-23.2-5-35-.3-.3-6.7 1.2-8 1.5-3.4.9-10 5-11.8 1.8-4-6.9-8.8-25-11.5-33.5-24.1-75.7-44.5-152.2-70.7-227.3-14.3-40.9-32.1-82.2-44.5-123.5-2.1-6.9-4.9-15.1-5-22 8.5 7.3 21.3 20.5 31.8 24.2 1.5.5 1.2 1.2 2.7-.7-31.6-93.2-61-186.4-75.8-284.1-5.1-33.4-11.9-72.4-7-105.7.2-1.6.4-6 1.8-6.6 4.5 11.9 12.2 22.9 22 31-.2-30.6 13.1-57.3 28-83 2.6-.3 1.6 0 2 1.5 3.5 11.7 9.5 32.5 17.6 41.4.5.6 1.5 2.5 2.4 1.6 7.6-27.7 19.3-53.3 37-76 5-6.4 12.7-16 18.6-21.4 8.3-7.8 4.7 1.9 5.5 8.3 1.3 10 5.6 19.8 10.4 28.6l34.5-44 2 .6c.7 6.2 3.2 12 5 17.9.2.8-.4 2.2 1.5 1.4 1.7-.6 10.4-8.6 12.5-10.5 5.2-4.7 13.1-15.5 19.6-16.4 12-1.8 29.7-1.8 42-1.1 3.6.2 12.4.8 15.3 1.7 4.2 1.3 20.2 19 25.7 23.3.9.7 4.8 3.8 5.5 3h-.1Zm0 31c-.3-.4-2.1-7.4-3.1-9.4-4.1-8.1-16.5-24.6-24.5-28.5-4-1.9-24.6-4.1-29.8-4.2-6.8-.2-31.6 1.6-36.9 4.2-8 3.9-20.4 20.4-24.5 28.5-1 2-2.8 9-3.1 9.4-1.4 1.5-1.7-.4-2.2-1.3-1.4-2.5-4.7-17.4-8.2-16.7-3.1.7-34.5 43.5-41.1 47.9l-14-35c-19.9 25.7-32.3 59.4-39.5 91-6-8.1-14.8-13.7-21.5-21-3.5-3.8-6.3-8.4-9.3-12.7-.6-.9.2-1.9-2.2-1.3-7.8 30.7-2.5 63.9 1 95l-29-27c8 48.8 18.5 97.1 30.5 145 18.3 73.2 38.5 151.1 61 223 2 6.4 6 12.9 6 19l-28.5-18.5c19.4 48 34.8 97.8 49.5 147.5 9.2 31.1 18.2 62.4 26.2 93.8 7.7 30 13.5 60.6 22.3 90.2 3.3 0 16.5-9.3 18-8 2.3 10.8 6.6 21 11 31 2.4 1.7 10.3-8.1 14-7l16 65c2 1.9 3.4-4.9 3.7-5.8 4.2-13.3 8.3-29.7 11.6-43.4 1.2-5.2 2.1-10.5 2.7-15.8 3.6-1.1 11.6 8.6 13.9 7 4.4-10 8.7-20.2 11.1-31 1.5-1.3 14.7 7.9 18 8 8.8-29.7 14.6-60.2 22.3-90.2s17-62.7 26.2-93.8c14.7-49.7 30.1-99.5 49.5-147.5l-28.5 18.5c0-6 4-12.6 6-19 22.5-71.9 42.7-149.8 61-223 11.6-46.3 23.8-96.3 30.5-143.5 0-.6.3-1.6-.5-1.5-1.7 2.2-27.3 28.5-28.5 27 3.5-31.1 8.8-64.3 1-95-2.4-.6-1.6.4-2.2 1.3-3 4.3-5.7 8.9-9.3 12.7-6.7 7.3-15.5 12.9-21.5 21-7.2-31.6-19.6-65.3-39.5-91l-14 35c-6.6-4.4-37.9-47.3-41.1-47.9-3.5-.8-6.8 14.2-8.2 16.7-.5.9-.8 2.7-2.2 1.3Z" class="outline" data-original-prefix="outline"/></g><g id="08_Mouthpiece" data-trait="joint"><path id="fill-mouthbit-joint" class="fill"  fill="#fff" d="M1114.7 1563.2c2.6-.5 23.4.6 27.8.8 18.5 1.2 37.1 4.8 55.8 4.2 27.2 9.5 53.9 20.5 81.2 29.8 24.3 8.3 45.2 11.9 67.9 25.1 8.3 4.8 5.6 3.1 14.7 5.3 6.2 1.4 7.3 4.8 11.6 7.4 3.2 2 18.2 9.3 19.3 10.7 3.8 4.3-3.5 31.4-8.6 35.4-1.7 1.3-19.1 7.3-20.8 7.2s-5.4-4.1-10.3-4.8c-6.8-1-12.5-.9-19.8-2.2-16.8-3-29.9-6.6-47.9-7.1-10.6-.3-32.2 2.7-40.6.6-15.2-3.9-39.7-25-53.7-34.3-22.6-15.1-46.3-28.1-70.4-40.6-2.1-2-17-28.2-16.9-30.1 0-1.5 9-6.9 10.7-7.3Z" class="fill" data-original-prefix="fill"/><path id="fill-mouthbit-ember" class="fill"  fill="#fff" d="M1375 1655c.2 2.9-2.7 4.4-3.7 6.8-3.1 7.3-4.3 16.5 6.5 10.5 2.3-1.3 2.3-5.8 4.8-5.3 2.9.6 1.7 9.2-1.8 11.2-1.5.9-13.8 4.7-15.3 4.7-2.5 0-14.4-5.8-15.5-8.4-3.9-9.4.3-16.4 2.1-25.6l-5.1 3.4c0 4.8-7.3 8.4-8.2 10.8-1.4 3.6-.4 8-.7 11.8-9.8.7-22-11.2-19.2-20.7l8.2-14.3c-.8 7.8-6 24.3 6 25-2-5 2.9-14.5 6-18.5 2.3-2.9 20.8-15.1 22-9 0 .6-3.4 9.3-3.9 12.1-.4 2.6-1.4 12.3-.2 14 1.6 2.2 6.2.2 8-1.1 3.4-2.4 3.2-8.8 10.1-7.4z" class="fill" data-original-prefix="fill"/><path id="outline-shading-mouthbit" class="outline"  fill="#000" d="M1165 1566c-.5 2.4-5.8 0-6.9 1.1-.7.6-5.8 15.5-6 17.5-.5 5 2.8 17.9 5.8 21.7 1.6 2 21.1 11.4 25.4 13.9 11.6 6.9 23.1 14.1 34.2 21.8.5-6.6 0-9.9 3-16 1.6-3.3 14.8-25.9 16.5-27.5 1.3-1.3 2.1-1.8 4-1.5-4.3 20.5-20.3 27.6-8.9 50.4 6.5 12.9 17.3 11.8 30.5 13.5 8.1 1 16.3 1.5 24.4 2.1-6.1-12.6-12.1-21.2-5.5-35 .5-1 5-9.6 6.5-8-5.2 14.2-3.6 23.6 4.6 35.9 7.1 10.8 10.8 10.8 23.4 9.1-4.6-12.1 2.9-21.2 11-29.5 3.3-3.4 10.8-10.3 7.6-.4s-10.4 13.5-8.6 26.5c.5 3.9 7.4 7.7 10.9 8 2.7.2 6-3.4 9.1-2.1l37 15.6c-4.8.3-15.4 6.5-19.5 6-1.8-.2-5.4-4.1-10.3-4.8-6.8-1-12.5-.9-19.8-2.2-17.1-3-30.5-6.6-48.8-7.2-11.2-.3-28.3 2.5-38 1-3.1-.5-16.8-7.7-20.2-9.8-27-16-50.9-36.5-79.7-52.3-8.1-4.5-22-8.6-27.5-15.5-6.2-7.9-9.5-20.3-15.1-28.8l11.5-6.5zm-13 2c-6.6-.4-12.6.3-19 1.5-2.9.5-17.5 3.6-16.9 6.9.4 2.3 25.4 25.1 27.9 22.6-1.6-10.8.7-22.6 8-31" class="shading" data-original-prefix="shading" opacity=".2"/><path id="outline-mouthbit" class="outline"  fill="#000" d="M1098.2 1565.2c.4-.7 13.6-7.1 14.4-7.1 1.8 0 3.8 1 5.9 1 21.9.3 41.4 2.3 63.1 3.9 12.9 1 16.9-.3 30 4 20.3 6.6 40.6 16 61 23 24.9 8.6 53.2 14 75.8 27.2 2.1 1.2 6.3 5.3 7.4 5.6 4.9 1.4 10.7.5 16.2 3.8 2.1 1.2 3.5 3.9 5.7 5.3 3.4 2.1 19.1 9.8 20.4 11.6 3.5 4.8-2.1 26.7-4.3 32.8-1.3 3.4-2.7 8.2-5.8 10.2-2.4 1.5-20.6 7.6-23.4 7.7-6.8.2-7.8-4.2-12.1-5-3.6-.7-8.2.4-12 0-12.5-1.4-23.8-6.4-36-8-18.3-2.3-36.7-.4-54.9 0-7.2.2-19-5.9-25.5-9.6-17.5-10.1-35.2-25.7-53.2-36.8-9.7-6-20.3-12.3-30.2-17.8-6.1-3.3-20.4-8.1-24.6-12.4-1.7-1.8-16.5-28.1-17.3-30.7-.6-2-1.6-7-.6-8.6Zm16.9.9c0 4.3-4 5.5-2.7 9.9.4 1.4 13.3 20.8 14.7 22.3 4.2 4.4 14.1 8.2 19.4 11.6-4.5-11.6-9.1-18.6-4.3-31.2 1.4-3.7 7.2-9.9 2.3-10.7-9-1.6-20.1-1.1-29.4-1.9M1237 1590c-12.7-2.7-26-11.5-38.3-14.2-5.8-1.2-12-1.1-18-2-5.3-.8-21.6-5.6-25.2-2.9-3.1 2.2-7.4 14.7-7.4 18.6-.3 28.5 28.7 37.2 48.3 48.7 6.6 3.9 12.4 9.2 19.2 12.8-11.3-23.6 9.2-42.9 21.5-61Zm49 16-37.8-11.8-3.7.8c-6.7 11.4-16.4 22.9-20.3 35.7-4.2 13.8 9.9 29.3 18.8 38.8 14.1-1.4 27.9-1.3 42-.5 2.6-2.4-10.6-20.4-11.5-24-3-11.8 6-29.3 12.5-39m50 19-43.9-15.9c-6.9 15.1-12.7 22-6.6 38.9 1 2.7 9.7 20.1 10.9 21.1 3.9 3 12.7 1.3 17.6 2.9-1.6-4.6-5.2-8.2-5-13.5 0-2.6 4-15 5.2-17.9 2.1-5.1 5.8-9.5 9.9-13.1l12-2.5Zm39 30c-6.8-1.4-6.7 5-10.1 7.4-1.8 1.3-6.4 3.3-8 1.1-1.2-1.6-.3-11.4.2-14 .5-2.7 4-11.4 3.9-12.1-1.2-6.2-19.7 6-22 9-3.1 4-8 13.5-6 18.5-12.1-.6-6.8-17.2-6-25l-8.2 14.3c-2.7 9.6 9.5 21.4 19.2 20.7.3-3.8-.7-8.1.7-11.8.9-2.4 8.4-6 8.2-10.8l5.1-3.4c-1.8 9.1-5.9 16.2-2.1 25.6 1.1 2.6 13 8.5 15.5 8.4 1.6 0 13.8-3.9 15.3-4.7 3.5-2 4.6-10.6 1.8-11.2-2.5-.5-2.5 4-4.8 5.3-10.8 5.9-9.6-3.3-6.5-10.5 1-2.3 3.9-3.8 3.7-6.8z" class="outline" data-original-prefix="outline"/></g></svg>