<?xml version="1.0" encoding="UTF-8"?>
<?xml-stylesheet type="text/css" href="styles/collection.css"?>
<svg xmlns="http://www.w3.org/2000/svg" viewBox="0 0 2048 2048"><g id="01_background" data-trait="blue"><path id="color-blue" fill="#2f5496" d="M2048 0v2048H0V0z"/></g><g id="02_Jaw" data-trait="half-robo"><path id="fill-jaw" class="fill"  fill="#fff" d="m1382.8 1128.2 12.4 130.2 60.9 48.3-49.6 133.4c-1 1.4-2.4 1.1-3.9.9-13.9-1-32.8-8.5-47.4-10.7-1.8-.3-3.5-.4-5.2-.3 1.2 4.7-1.2 7.6-2.1 11.4-4.9 22.2-7.7 45-12.1 67.4l-57.2 29.3-1.4 1.6c-1.1 12 1.6 23.9.9 35.9-.3 5-1.3 14.9-2.3 19.7-.6 2.8-13.7 32.2-15 33.5s-16.1 8.9-16.7 8.3l-9.5-50-51 52c-7.7 5.7-20.7 9.3-27.5 15.5-14 12.7-24.7 36.5-41.4 47.6-5.5 3.6-58.7 25.2-65.4 26.6-2.4.5-46.7.7-49.3.2-6.2-1.1-59.9-22.7-65.6-26.3-14-8.8-29.1-36.3-42-48-6.7-6.1-19.9-9.6-27.5-15.4l-51-52-9.6 48.4c-.6.9-.9 1.7-2.2 1.5-.8 0-13.8-7.6-14.4-8.2-1.4-1.4-15.6-32.9-16-35.5l-.7-54.3-58.2-30.3-12.3-69.7c-16.4-1.1-33.5 3.9-49.5-1l-37.3-85.8c-.7-3.4 4-13 5.6-16.9 8-19 17.8-37.3 25.7-56.3 9.2-2.5 21.3 1.1 29.9-5.1 4-2.8-.2-18.8 0-23.9l-19-32.1-.3-2.2 27.6-63.5c1.4-9.9-3.2-21.4-1.1-31.1 1.3-6.2 9.7-21.7 13.2-27.9 54.6-98.4 184.4-157.8 290.2-180.8 48.2-10.5 90.3.5 136.5 15.4 98 31.8 198 94.6 250.7 185.3 3.2 5.5 3.8 13.3 10.7 14.8h-.7Z" class="fill" data-original-prefix="fill"/><path id="fill-jaw1" class="fill"  fill="#fff" d="M1265.7 1351.3c9.2 7.7-4.5 25.9-12.2 15.7s2.9-23.4 12.2-15.7" class="fill" data-name="fill-jaw" data-original-prefix="fill"/><path id="fill-jaw2" class="fill"  fill="#fff" d="M1314.6 1391.2c7.8-1.5 6.2 19.1-2.9 17.7-9.8-1.5-.6-17 2.9-17.7" class="fill" data-name="fill-jaw" data-original-prefix="fill"/><path id="outline-shading-jaw" class="outline"  fill="#000" d="M1377.3 1124.7c2.2 2.7 13.8 4 14.5 10l8.4 112.6c17.4 18.9 36.8 35.9 56.4 52.6l1.5 3.6-51 135.8c-1 1.6-3.7 1.7-5.4 1.6-14.4-.9-32.2-8.4-47.3-8.9-1.8 0-3.2-.2-4.4 1.3l-14.4 75.6-59.4 30.1c.4 11 2.6 23.6 2 34.5-.3 5.7-1.3 15.4-2.1 20.9-.5 3.1-13.4 31.4-15.4 33.6-3 3.2-11.6 6.2-15.5 9l-12-46.4-2.4-.6-46.1 47.9c-7.8 6.2-20 9.3-27.5 15.5-14.2 11.7-24.4 36.1-41.5 47.5-6.8 4.6-52.9 25.2-60.4 26.6-9.5 1.7-52.8 1.8-62.3.2-7.6-1.3-48.1-19.8-56.6-24.4-16.2-8.6-30.7-38.5-45.1-49.9-7.1-5.7-18.8-9.3-26.5-14.5l-48-49-8.5 47c-1.4 1.2-18.5-6.9-20.5-9-1.7-1.8-15-30.8-15.4-33.6-.7-4.4-.9-13-1.1-17.9-.5-12.2.6-24.4.5-36.6-18.8-11.7-39.4-20.3-58.6-31.4l-13.1-67.4-46.4.9-36.3-91.7-.2-2.3c6.7.3 9.7 6.8 15.7 10.8 19.1 12.8 34.2 19.3 57.7 16.1 20.6-2.8 26.4-11.2 48-1.7 16.1 7.1 19.4 16.7 31.2 25.8 13.2 10.2 17.5 3.6 25.9-7.1 6.9-8.8 25.8-41.6 27.4-51.6 1.7-10.7-3.8-11.2-13-10-8.6 1.1-48.4 15.1-51 14.6-1.7-.4-12.3-7.9-16.5-9.6-20.3-8.4-48.8-11.8-67.2-20.8-14.3-6.9-12.2-21.7-18-34.5l21.5-4.1c1.9.3 10.9 13 13.5 15.6 13.7 13.8 58.3 32.8 77.6 33.5 3.4 0 6-1 8.9-1.1h20.5l-34.7-16.8c-19.1-10.8-48.2-33.1-61.8-50.2-6.2-7.7-7.1-18.3-10.5-27.5-6-16.6-14.4-32-25-46 1.3-9 6.5-19.6 7.8-28.2 2.8-19.1 3.8-27.8 12.1-45.9 49-107.6 188.2-173.2 298.2-196.8 27.9-6 50-5.8 77.9 0 118 24.3 244.7 92.5 307.8 198.2 1.9 3.1 5.2 12.6 6.5 14h-.4ZM1326 1307c15.3-11.2 31.9-21.8 44.5-36 6.1-22.7 14.6-45.7 13.5-69.6l-2.1-29.5c-1.4.2-1.9 1.8-2.5 2.9-16.8 30.8-29.1 66.4-47 97l-62.3 38.7.4 3.3c5.9 15.3 32.8 49 33.4 63.6.2 4.3-2.2 10.7-.7 15.7 1.1 3.6 11 9.8 15.2 9.4l62.4-18.5c8.3 1.2 16.7.9 25.1.6l36.7-78.8.3-3.3c-14.1-10.8-29-21.4-44.3-30.7l-2.8 11.8c-13.3 5.6-27.2 16.2-40.4 21.1-6.7 2.5-16.4 2.8-23.8 3.2-1.2 0-5.6.7-5.5-1Zm-248 20c-5.1-10.6-9.9-23.3-16.6-32.9-6.5-9.4-23.8-30.4-31.9-38.1-4.2-4-7-3.9-11.1 0-7.7 7.4-27 30.2-32.9 39.1s-10.5 22.1-15.6 31.9zm200.7 70.7c1.4-1.6 8.8-25.5 9.1-28.5.4-4.4-3.5-11.7-5.6-15.9-3.8-7.3-18.5-32.7-23.6-37.4-5.7-5.3-8-1-14 1.1-11.8 4-23.6 7.8-35.5 11.5-1.3 1.1-1.1 1 0 2 3 2.6 6.7 4.5 9.4 7.6 6.8 8.1 12.2 22 18.6 30.9l3.1-12.4c.8-3.8 7.7-7.4 10.8-5.4 1.2.8 3.6 11.4 7.9 12.7 6.1 1.8 8.2-5 11-5.7 4.2-1 10.3 3.7 10.1 8.1-.5 11.3-14.6 20.3-25.1 18.6-1.1-.2-10.1-4.8-8.7-1.3 3.1 2.8 14.4 21.8 16.7 22.4 2 .5 14.5-6.5 16-8.2h-.2Zm-550.4 99c1.6 2 8.2 6.3 10.7 7.8 14.8 8.8 31.7 13.8 46.9 23.1 16.8 10.2 40.2 33.1 59.6 33.5 2.3 0 8.7-1.2 9.4-3.7.8-2.7-13.5-27.5-16.4-30.3-7.3-7.2-27.5-17.2-37.2-23.8-15.2-10.3-50.3-39.1-67.9-39.2-10.5 0-8.7 28.1-5.1 32.7Zm591.4-30.4c-6.1-6-24 4-30.4 7.6-16.3 9.1-30.8 21.3-46.2 31.8-9.3 6.4-25.4 13.9-33.1 20.9-3.1 2.8-16.2 24.5-16.9 28.2-1.1 5.3 6.2 6.5 10.3 6.3 16.8-1 25.6-11.2 38.2-19.8 8.3-5.7 17.3-12.1 26-17 11.7-6.6 47.1-19.2 52.7-29.3 2.4-4.3 2.8-25.2-.7-28.6ZM1126 1664c-12-2.7-20.7 6.6-31.6 7.9-5.7.7-12.2-1.2-16.6-.7-7.1.8-22.9 12.1-31.2 14.9-14.8 4.9-30.2 4.7-45.1 0-8.8-2.8-23.9-14.1-31.2-14.9-4.4-.5-10.9 1.4-16.6.7-11-1.3-19.9-11-31.6-7.4 0 7 23.7 23.4 30 27 12.5 7.1 59.7 26.8 72.5 26.6s59.8-19.7 72.2-26.9c3-1.8 33.6-23.3 29.3-27.2z" class="shading" data-original-prefix="shading" opacity=".2"/><path id="outline-jaw" class="outline"  fill="#000" d="M1378 1122c.3-3.9.6-9.1 5.7-9.8 7.8-1.2 8.7 12 9.3 17.3 3.8 33.8 2.1 69.1 8.3 102.7 2.2 11.9 3.2 13.8 12.3 21.7 14.8 13 33.2 22.8 47.5 36.5 2.6 2.5 11.8 12.2 12 15.1l-66.1 156.3-46.9-24.9c-1.8 6.1-5.4 12.6-6.7 18.8-4.1 19.2 0 41.1-2.2 59.8-.4 3.4-10.5 17.5-13.3 18.7-6.4 3-16.2-1.8-24.7 3.3-23.8 14.4-17.9 48.6-27.2 68.8-7.8 17-37 48.2-52.9 58.1-1.6 1-2.9 1.9-4.9 1.6 1.1-14.8 3.1-34.9-3.9-48.6-.4-.8-.4-3.2-2.1-1.4-.7.7-3.6 13.8-6.6 17.9-5.8 7.9-20.7 8.9-29.4 12.6-16.7 7-14.3 32.7-27.7 43.3-19.3 15.2-61.2 32-85.1 38.9-10.8 3.1-38.9 11.3-48.7 11.3-15 0-63.4-15.1-78.8-21.2-11.1-4.4-55.3-26-60.6-34.4-6.9-11.1-8.5-31.6-21.5-37.6-14.5-6.6-26.4-2.4-33.9-20.1-1.1-2.5-2.5-10.3-2.8-10.7-1.3-1.6-1.8.4-2.2 1.3-6.9 12.5-5 34.9-3.8 48.7-2 .3-3.3-.6-4.9-1.6-15.7-9.8-48.9-44.4-54.2-61.8-6.2-20.6-5.3-52.1-25.9-65.1-8.2-5.2-18.3-.3-24.7-3.3-.9-.4-12.2-14.2-12.7-15.3-2.1-5.2-.2-29.6-.5-37.4-.4-9.1-2-18.5-3-27.5-4 1.6-7.6 4.7-11.9 5.6-2.8.6-5.6.7-8.5.3-4.7-.6-27.4-9.9-32.6-12.4-1.3-.7-2.7-1.2-3.5-2.5-2-33.7-22.2-63.7-44-88-2-4.4 2.1-14.5 3.7-19.2 6.2-17.8 15.6-36.4 25.7-52.3 3.2-5.1 14.2-22 17.9-25.1 5.5-4.4 9.8 3.3 14.6 6.6 1.6 1.1 12.7 7.8 13.5 7-2.9-7.2-9.4-11-13.8-17.7-4-6-15.9-26.4-15.8-32.6s5.4-17.7 6.5-25.3c.5-3 1.1-8.8 1.2-11.8.2-6.5-3-17.5 1.3-22.2 1.2-1.4 12.8-6.5 14.1-6.2.9.2 5 11.2 10.5 7.8 2.3-1.4 1-34.7 0-39.9.3-.3 7.6 1.8 8 2 1.8 1.1 7 8.1 9.8 9.7.5 8.4 3.4 20.7 1.1 28.7-2.8 10.1-17.5 14.8-21.2 22.8-1.2 2.6-6.4 25.9-6.7 29.3 0 1.2-.2 2.4.2 3.7 4.8 10.3 13.7 19.4 18.7 29.3s9 33.8 15.5 40c5.3 5.1 14.5 7.1 21 10.5 7.5 4.1 15.7 10.7 22.7 15.8-11.3-1.3-47.2-5.2-54.5-13-3.3-3.6-5.7-15.7-9.6-17.4-2.6-1.2-6.2-.2-9.2-.8-7-1.2-10.7-7.9-18.5-1.5-6.6 12.5-14.3 24.3-20.4 37.1-7.4 15.4-14.8 25.1-4.8 41.2 5.3 8.6 23.3 26.7 25.6 34.4 2.5 8.6-2.7 28 2.9 34.1 6 6.6 20.6 4.5 27.8.8 10.6-5.4 8.7-9.9 14.3-18.7 5.2-8.2 19.7-23.1 28.9-26.2s13.4 8.6 15.6 15.5c7.3 23.8-.2 34 22.5 51.5 11.6 8.9 33.3 20.1 47.8 17.9 8.5-1.2 21.1-6.6 27.2-12.8 7.2-7.5 8.8-24.6 24-14 15.8 11 30.3 30.1 46.6 41.4 20.5 14.3 77.5 32.5 102.5 34.6 37 3 105.5-17.1 134.5-40.5 11.5-9.3 21.6-20.6 33-30 4-3.3 11.6-11.3 17-8 .7.5 7.5 12.5 9.2 14.8 3.3 4.7 11.5 16.1 17.4 16.7 7.4.8 31.3-15.5 40.2-17.2 8.1-21.2 17.3-42.1 23.5-64 2.8-9.9 8.4-24.8 3.8-34.3-2.1-4.2-21.3-33.6-24-36-3-2.7-9.6-5-13.5-6.5-3.3-1.2-19.8-5.2-20.5-6-1.5-1.4.4-1.7 1.3-2.2 1.3-.7 11.6-5.7 12.3-5.8 2.6-.4 25.4 6.8 27.4 8.5s8.6 15.3 11 19c5 7.6 19.5 25.4 20.8 33.2.4 2.5.5 4.9-.2 7.3l-26.5 74.9c22.1-8.1 42.1-21.6 63.6-30.8 4.1-1.8 12.4-6.1 16.3-4.6 4.7 1.7 16.6 11.3 22.4 14.6 2.4 1.4 18.7 10.5 19.7 9.8l48.1-125.5c-.2-2.1-12.6-9.7-15.4-11.7-13.3-9.9-23-17.3-37.4-25.6-7.1-4.1-7.5-7.8-8.3-15.7-2.2-22.8-2.4-46.1-4-69-1.5-20.8-6.3-45.1-5-65.5h-.7Zm-649 280c-5.9.4-11.3 6.2-14.4 11.1-12.8 20.4-.6 26.3 1.3 45.5 1.3 13.2-3.2 33.5 4.7 44.3 5.3 7.3 21.6 10.7 30.1 14.9 3.6 1.8 23 13.2 24.8 15.2.4.4 3.3 5.3 3.3 5.6 0 .8-3.5 12.2-3.8 15.8-1.9 24 4.5 52.9 21 71l5 4.5c.9-4.6-1.1-9.2-1.1-13.5 0-12.5 8.2-24.3 10.1-36.5 23.5 5.4 36.4 28.6 51.4 45 11.3 12.4 23.8 14.5 34.1 23.9 6.5 5.9 11.9 15.9 17.5 22.5 14.6 17.4 20.2 23.3 41.3 32.7 29 13 50.6 21 83.2 18.9 16.8-1.1 61.8-19.2 76.4-28.6 16-10.4 26.2-34.2 40.1-45.9 10.6-9 21.7-10.9 32.5-22.5 15.6-16.6 28.5-40.5 52.5-46 .8 9.9 6.9 18.2 8.7 27.8 1.5 7.6.3 13.6.3 21.2 7.8-5.3 15.2-16.8 18.8-25.6 5.4-12.9 8.1-33.2 7.2-46.9-.2-3.4-3.8-17.5-3.5-18.4.6-1.7 3.6-5.7 5.2-6.9 4.5-3.4 17.3-10.6 22.7-13.3 11.7-5.9 31.5-8 33.6-23.4s-.7-31.7 3.8-48.2c1-3.6 5.3-8-1.4-5.4-30.7 11.8-63.4 35.5-93.6 46.4-10.1 3.6-23.8 2.7-32.8 7.2-6.8 3.5-11.5 12.3-16.4 17.6-16.2 17.4-41.8 25.6-65 28-69.4 7-135.6 6.9-205 0-21.7-2.1-46-9.9-62.5-24.5-5.9-5.2-10.7-15.4-19.3-15.2-3.9 0-8.2 3.3-11.2 3.7-5.5.6-22.8-12.9-28.7-16.2-15-8.4-31.4-14.8-46-24-2.8-1.8-16.7-11.4-17.8-13.2-2.8-4.9.2-12 0-17.1 0-10.4-4.3-21.6-7.1-31.5" class="outline" data-original-prefix="outline"/><path id="outline-jaw1" class="outline"  fill="#000" d="M1253.7 1342.2c12.9-2.4 29.1 10.8 24 24-3.6 9.3-14.2 17-24.2 12.8-15.8-6.5-17-33.6.3-36.8zm12 9.1c-9.3-7.8-20.1 5.1-12.2 15.7s21.4-8 12.2-15.7" class="outline" data-name="outline-jaw" data-original-prefix="outline"/><path id="outline-jaw2" class="outline"  fill="#000" d="M1313.7 1382.2c20.2-4.4 22.1 39.9-4.2 35.7-17.9-2.8-9.8-32.7 4.2-35.7m.9 9c-3.6.7-12.7 16.2-2.9 17.7 9.1 1.4 10.8-19.2 2.9-17.7" class="outline" data-name="outline-jaw" data-original-prefix="outline"/></g><g id="03_Mouth" data-trait="scrappy"><path id="fill-muzzle" class="fill"  fill="#fff" d="M1038 1292s-.4 1.7.7 2c10.3 2.8 18 4.3 25.8 13 1.9 2.2 4.9 8.8 6.5 9.5 2.6 1.2 6.6 0 9.5.5 11.4 1.5 21.2 3.7 31.2 9.8 2.1 1.3 9.2 7.8 10.2 7.1.3-.3 0-1.7 0-1.9 2.4-1.8 32.7.6 38 1 5.2 4.2 13.2 5.5 19.2 8.3 13.7 6.4 22.5 16.1 29.9 29.1 8.4 14.6 7.7 17.8 3.1 33.4-2.5 8.5-4.8 21.8-16.3 20.2 1.5-15.5-14.8-32.4-26.5-41-3.2-2.4-11.3-7.2-6 0 10.8 14.7 20.2 14.8 21.5 37.5.6 10.3-8.4 32.9-15.4 40.5-.6.7-7.1 6.3-7.6 6.5-3 1.6-6.9-6.1-7.8-8.2-3.6-7.8-4.7-15.5-9.7-23.3-1.1-1.7-10.8-13.7-12.4-12.1 5.6 13 9 46.2-2.5 56-4.4 3.7-9.4 1.9-13.3 3.7-2.8 1.3-3 5.7-4.8 6.1s-7-3.1-9.4-3.5c-8.9-1.3-13.2 17-18.7 17.5-2.5.2-10.7-11.9-18.4-9.4-7 2.2-15.4 21.2-24.4 23.6-6.3-6-3.4-14-5.8-21.2-1.2-3.5-4.2-6.7-5.8-10.2-5.4-12.7-2.8-19.9-.2-32.2.6-3 0-5.9.9-9.1.2-.7 6.3-12.3 6.9-13.1 3.7-5.4 19.2-12.4 22.7-3.8.9 2.2 0 8.7 2.2 7.7 5.1-4.9 10.2-9.9 15.5-14.5 11.5-10 14.1-9.7 21.2-24.8 1.5-3.3 6.5-14.5 6.6-17.3 0-3.4-9.2-14.7-11.8-17.8-1.4-1.7-9.5-11.5-10.2-11.8-6.4-3.2-28-2.3-34.7.8-7.9 3.6-12.5 12-19 17-1 .8-1.3 1.9-3 1.5l.8-12.7c3.6-4.3 21.7-23.3 21.1-27.5-.4-2.6-11.3-13.4-12.9-11.7 4.4 12.8.7 8.7-7.3 12.2-1.2.5-2.9 2.7-3.2 2.7s-2-2.2-3.2-2.7c-3.4-1.5-9.7-.4-9.3-5.6 0-1.1 4.1-7.6.5-6.6-2.8.8-12 9.9-11.3 13.2 0 .6 4 7 4.8 8 1.5 2 5 5.9 7 8.3 3.2 3.9 9.7 7.6 9.9 13.1 0 1.6-.8 3.1-.8 4.8s2.6 8.1-2.5 3.6c-6.2-5.3-10.2-13.6-18.5-17.5-6.5-3-30.3-4.3-35.7-.2-.8.6-8.8 10.5-10.2 12.2-2.4 3-10.9 13.7-10.8 16.8.2 5.4 11.7 29 15.7 33.2 3 3.2 9.3 6.8 13 9.9 5 4.3 9.7 9.1 14.5 13.5l4.2-11.1c4.9-3.1 17.7 2.6 20.8 7.1 1 1.5 5.1 9.9 6 11.9 2.8 6.4 5.1 25.4 4.4 32.4-1.1 10-7.9 15-9.4 22.6-1.3 6.4 1.1 14.9-5.8 18.9-8.1-2.6-17.3-21.5-23.6-23.5-8.2-2.6-15.9 9.6-18.4 9.4-5.3-.4-8.7-14-13.9-16.1-6.9-2.8-11.5 2.7-14.1 2.1-1.8-.4-2-4.8-4.8-6.1-4.5-2-9.6.3-14.3-4.7-10.9-11.5-6.5-42.2-1.5-56.1-9.1 6.7-14.1 14.8-18.5 25-1.6 3.6-2 7.5-3.7 11.3-1 2.1-4.9 9.8-7.8 8.2-.4-.2-6.9-5.9-7.5-6.5-3.9-4.3-13.8-24.4-15-30-2.8-12.9 1.4-26.5 9.5-36.5 4.1-5.1 11.3-9 13-15.5-2.4-2.4-22.3 17.4-24.4 20.1-5.4 6.8-11 15.9-9.6 24.9-8.3.5-10.7-3.3-13.3-10.2-2.7-7.1-7.8-22.8-6.2-29.8 3.7-16.2 21.4-35.8 36.3-42.7 6.2-2.9 13.9-4.1 19.2-8.3 12.5-.8 24.5-2.3 37-1 0 0 .7 2.1.5 3 9.5-8.2 20.6-14.8 33.1-16.9 4.7-.8 14.8-.4 18.1-1.8 1.6-.7 5.2-7.7 7.2-9.9 8-8.4 15.2-9.7 25.4-12.5 1.1-.3.6-1.9.7-2 1.1-.7 25.9-.7 27 0v.2Z" class="fill" data-original-prefix="fill"/><path id="fill-teeth14" class="fill"  fill="#fff" d="M1039.1 1601.9c-.8-.5-7.2-15.4-7.9-17.6-4.2-13.6-7-37.9-1.5-51.1 5.8-13.9 10.8-1 20-5 1.9-.8 7.6-6.8 9.2-8.8 2.6-3 3.6-9.1 8-8 12.8 3.1 21.1 24.2 22 36.1 2.3 30.4-23.4 40.7-45.2 53.7-1.2.5-3.6 1.3-4.6.6Z" class="fill" data-original-prefix="fill"/><path id="fill-teeth13" class="fill"  fill="#fff" d="M1015.7 1527.3c10.2 8.9 6 44.1 2.3 56.2-1.9 6.4-6 12-8.1 18.3h-2.3c-12.1-7.1-26.3-12.4-36.1-22.9-9.1-9.8-12.3-17.9-11.5-31.5.8-11.8 9-32.3 21.2-35.9 4.8-1.4 5.7 4.5 8.2 7.4 1.8 2.1 8.3 8.8 10.5 9.5 6 1.9 12.5-4.1 15.8-1.3z" class="fill" data-original-prefix="fill"/><path id="fill-teeth12" class="fill"  fill="#fff" d="M904 1461c0 2.2-1.1 3.8-.8 6.2s7.4 22.5 8.8 24c3.7 4.1 11.1 2.3 15.9 2.9 4.9 13.5-4.3 23.9-8.6 35.6-2 5.3-8.4 33.1-12.8 34.3-3.3.8-11.7-18-12.8-21.2-6.8-20.9-8.8-51.8 1.8-71.7.6-1.2 7.1-11.6 8.4-10.1Z" class="fill" data-original-prefix="fill"/><path id="fill-teeth11" class="fill"  fill="#fff" d="M1144 1564c-1 .7-1.8-.4-2.4-1.1-5.8-5.8-8.7-24.8-11.8-33.2-4.3-11.7-13.8-21.9-8.6-35.6 18.6 2.9 18.2-8.8 23.1-22.4l2.2-9.8c10.2 11.1 15.2 27.6 14.6 42.5-.5 13.7-3.2 35.3-9.5 47.5-.8 1.5-6.9 11.6-7.5 12Z" class="fill" data-original-prefix="fill"/><path id="fill-teeth10" class="fill"  fill="#fff" d="M949 1569c5.5 22.1 11.4 45.4 9 68.5-.5 5-1.3 9.2-7 6.9-3.4-1.3-17.5-13.4-19.5-16.5-7.4-11.8.3-39.7 8-50.8 1.2-1.7 7-10.1 9.4-8.1Z" class="fill" data-original-prefix="fill"/><path id="fill-teeth9" class="fill"  fill="#fff" d="M1100 1569c3.4-2.9 13.3 14.1 14.5 17 4.8 11.7 9.3 33.5 1 44-2.1 2.7-18.5 16.5-20.9 15.9-1.9-.4-3.4-6.5-3.6-8.4-1-8.7 0-26 1-35 1.1-10.9 6.5-22.5 8-33.5" class="fill" data-original-prefix="fill"/><path id="fill-teeth8" class="fill"  fill="#fff" d="M1167 1547c.9-6.7-1-15-.6-21.3.3-6.3 3.7-14.6 3.6-21.2 0-5.7-4.8-19.5-4-24 .5-2.9 3.5-2.8 5.5-4.5 6.2-5.3 10.4-15.8 16.9-4.9 14.2 23.5-1 56.5-18.4 74.4-.9 1-1.3 1.9-3 1.5" class="fill" data-original-prefix="fill"/><path id="fill-teeth7" class="fill"  fill="#fff" d="M881.7 1478.3c3.3 2.9-2.8 21-2.8 26.2s2.6 12.6 3.1 18c.7 8 0 16.5-.5 24.5-1.8 0-11.7-13.3-13.3-15.7-11.2-16.8-20.3-43.7-7-61.7 6.2-8.4 9.7.9 14 4.7 2 1.9 5.7 3 6.6 3.9Z" class="fill" data-original-prefix="fill"/><path id="fill-teeth6" class="fill"  fill="#fff" d="M1018 1613v16.5c0 .9-10.8 13.2-11.9 14.1-6.3 4.8-8-2.6-10.6-5.5-5.5-6-17.9-.4-24.4-5.6-.9-.7-4.1-8.3-4.1-8.9v-24.5c12.3 3 28.7 18.5 41.4 16.9 3.5-.4 6.1-3 9.6-2.9Z" class="fill" data-original-prefix="fill"/><path id="fill-teeth5" class="fill"  fill="#fff" d="M1102.5 1494c3.3-.8 5.3 8.5 6.3 10.7 5 10.5 15.3 30.3 11.4 42.1-2.2 6.7-15.6 23.4-20.4 11-4-10.4-4.1-44.7-1.1-55.5.4-1.6 2.4-7.9 3.8-8.2Z" class="fill" data-original-prefix="fill"/><path id="fill-teeth4" class="fill"  fill="#fff" d="M917 1563c-1.6 13.5 2.8 27.4 2 40.5-.5 8.8-4.2 18.6-5.5 27.5-5.8-5.6-10.5-15.7-11.4-23.6-.6-5.2.7-25.8 2.4-30.3.6-1.6 10.5-16.2 12.4-14.1Z" class="fill" data-original-prefix="fill"/><path id="fill-teeth3" class="fill"  fill="#fff" d="M1135 1631c-.4-8.9-4.4-17.8-5.1-26.5-1-13.6 3.6-27.7 2-41.5 2.2-2.4 11.9 13 12.5 15 2 6.8 2.7 27.3 1.2 34.3-1.3 6.3-5.5 14.8-10.8 18.7z" class="fill" data-original-prefix="fill"/><path id="fill-teeth2" class="fill"  fill="#fff" d="M1154.1 1604.9c-3.4-2-5.1-22.3-3.9-26.2.8-2.6 8.9-5.2 10.2-8.8l5.1-10.9c3.8 3.4 5.1 7.2 4.3 12.2-.7 4.5-5.2 22.3-6.9 26.2-.9 2.2-6.1 9-8.8 7.5" class="fill" data-original-prefix="fill"/><path id="fill-teeth1" class="fill"  fill="#fff" d="M885 1559c.4.4.7 7.1 3 10.5 2.7 3.9 10.5 6.9 11 10-.8 4.7-.7 23-4 25.4-2.5 1.8-7.7-4.5-8.7-6.7-1.6-3.6-6.3-22.5-7-27-.6-3.9 2.5-15.6 5.8-12.3Z" class="fill" data-original-prefix="fill"/><path id="outline-shading-mouth2" class="outline"  fill="#000" d="M918 1443.5c.8 5.3 5.6 13.8 10.1 16.9 11.5 8.3 16.2-.3 22.4-9.4 2.5 5.4 3.4 11.5 6 17 1.4 2.8 5.7 12 7.5 5.5l4-11.5c1.6 7.5 6.3 15.4 11.5 21 4.3 4.7 18.8 15.4 24.6 9.6 2-2.1 8.3-17.9 10.8-22.2 1.2-2.2 7.8-13.8 9.7-13.3 1 .2 8.5 13.2 9.7 15.3 2.4 4.5 7.3 17.7 9.8 20.2 3.8 3.8 10.5.4 14.4-1.8 10.5-5.9 18.5-17.2 21.7-28.8l4.2 12.3c.3 1.2 1.9 2.4 2.8 1.7.6-.4 5.8-11.3 6.5-13 .8-2 2.8-12 4-12 6.8 10.7 12.9 18.4 24.5 7.5 8.6-8 9.3-23.8 7-34.5 3.5-3.1 21.1 16.1 26.6 16.9 9.1 1.4 17.6-11.8 19-19.9 3.5-20.5-12.9-39.2-30.9-46.2l-12.7-4.8c15.4 0 28.2 2.9 41.1 11.4 4.8 3.1 12.2 10.9 17.6 11.4 6.2.6 10.1-4.1 10-10-.4-19.3-25.8-38.1-39.7-48.8 15.4 2.4 34.6 11.8 45 23.5 7.8 8.8 19.1 25.1 19.1 37s-6.4 28.5-9.2 32.8c-3.3 5.3-11.7 5.4-13.4 10.6-.9 8.1-2.1 16.4-2.5 24.5-1.5 29 1.4 45.2-10.8 73.2-3.6 8.2-12.7 20.4-14.9 27.1-4.2 12.8-.7 26.4-9.1 38.9-3.2 4.8-8.4 6.7-11.2 10.8-1.7 2.5-2.4 6.1-4.2 8.8-4.5 6.7-14.6 23-21.6 8.9-1.6-3.3-1.3-12.9-6.7-6.2-1.4 1.7-1.9 4.4-3.5 6.5-3.7 4.7-17.7 19.6-23.5 19.5-2.2 0-4.5-4.1-6.6-5.4-7.9-5-21.1-6.3-29.2-1.4-7.3 4.4-9.5 13.6-18.1 6.8s-6.4-10.8-20.1-9c-5.6.7-11.4 12.6-16.9 12.1-2.8-.2-11.4-11.1-18.5-12.6-6.3-1.3-17.5.7-23 4.2-2.6 1.7-4.1 5.6-7.5 5.4-5.7-.3-19.8-15.8-23.6-20.5-1.2-1.5-4.4-10.6-7.1-6.9-2.5 3.4-.6 9.9-7.2 12.7-7 3-14.9-11.2-18.1-16.4-1.2-1.8-1.2-4.3-2.6-6.4-2-3-6.8-5.4-9.5-8.5-10.4-11.9-6.7-27.7-10.7-41.3-.8-2.6-5.6-8.5-7.3-11.7-18.4-35.7-16.4-45.6-18.4-84.6-.4-7.7-.6-20.7-2.2-27.8-1.5-6.2-11.1-6.1-14.2-11.8-3.4-6.1-9.3-29.6-8.6-36.4 1.2-10.3 16.2-31.2 24-38 10.5-9.2 26.2-16.5 40-18.5l-21.5 17c-7.2 6.4-26.8 32-14.8 39.9 9 5.9 16.7-4.5 23.7-9.1 12.7-8.4 25.3-11.8 40.7-11.8l-17.3 7.2c-18 9.4-33.1 32.7-22.1 52.8 1.7 3.1 8.6 10.4 12 11.1 9.1 1.7 20.7-15.4 29.5-18 .6 6.4-.9 14.3 0 20.5zm-37.1 40.6c-12.3-.5-17.1-20.2-22.8 1.5-3.4 13 1.2 26.4 9.4 36.5 1.5 1.8 12.7 13.1 13.9 12.9.8 0 2.5-2.3 2.8-3.2 2.9-7.1-3.2-12.2-4.2-19.2-1.5-9.8 0-18.7.9-28.4Zm301.8-8.9c-3.2.8-6.3 6-8.8 7.3-2.1 1.1-7.2 1-7.8 3.2-.5 1.7 3 10.8 2.9 14.8 0 3-1.5 13.9-2.2 16.8-.9 3.6-3.9 5.7-3.9 10.2s1.4 7.1 3.7 7.4c1.9.3 15-14.4 16.8-17 5.7-8.5 9-18.8 7.3-29.2-.5-3-4.4-14.5-8-13.6Zm-284.8 10c-4-2.3-6.5 9.9-6.8 12.5-1.2 10.5 3 38 8.7 47.1 1.9 3 5.4 6.9 9.2 7.3 3.7-15.6 12.6-29.2 21-42.5-2.3-.4-1.7-2.9-2.7-3.5-1.5-.9-7-1.9-9.7-3.1-4.7-2.2-12-7.7-15.6-11.4-1.2-1.2-3.8-6.2-4.2-6.3ZM1139 1552c8.3-2 11.9-12.2 13.9-19.6 3.1-12.1 6.1-33.4 1.1-44.8-3-6.9-5.8 1.7-8.3 4.1-3.9 3.8-11 9.3-16 11.6-2.5 1.1-7.8 1.8-9.1 2.7-.7.5-.5 1.8-1 2.7-.3.4-1.7.4-1.6.9 0 1 7.9 12.3 9.2 14.8 4.8 8.8 9.1 18 11.8 27.7Zm-197.7 5.7c8.1 8.1 9.5 0 10.5-7.3.8-5.6 2.7-20.6 1.7-25.4-3.6-17.2-21.3-15.9-21.6 3.6 0 6.8 4.6 24.3 9.4 29.2Zm161.5-44.5c-5 1.3-8.5 9.3-8.8 14.2-.2 4 2.4 28.5 3.8 31.3 2.5 5 7.5 0 9.8-2.7 6.8-8.3 11.6-30.7 4.5-39.5-2.7-3.3-4.8-4.4-9.2-3.3zM1023 1544c-.7-.7-.8-7-5.1-9.4-8.9-5-21.8-.8-32-4-10.4-3.3-9.4-13.1-16.1 1.8-2.9 6.4-9.1 24.4-6.3 30.7 1.1 2.4 17.8 15.6 21.2 17.8s18.2 11.7 21.1 10c3.1-5.6 9.3-9.5 12.6-14.9 1.8-2.8 4.1-11.5 4.6-11.9 1.6-1.7 1.7.5 2.1 1.4 1.6 3.6 2.1 6.8 4.5 10.5 3.3 5.2 9.2 9.3 12.4 14.6 3.1 1.9 15.5-5.9 18.9-8.1 4.5-2.9 22.9-17 23.9-21.1 2.2-9.7-6.6-28.3-10.9-37.2-4.9 1-7.8 5.2-12.7 6.7-9.2 2.8-28.2-1.6-33.7 6.3-.9 1.2-2.6 8.9-4.5 7zm-136 18c-.7-.6-3.5 0-4.5.9-6 6.2 2.4 31.6 14.6 27.6 4-1.3 3.8-9.4 2.8-12.9-1.1-3.9-7.2-4.1-9.8-7.2-2.1-2.5-2.7-8.2-3-8.5Zm274.1 0c-.3.3-.9 6-3 8.5-2.6 3.1-8.7 3.3-9.8 7.2-1 3.4-1.2 11.6 2.8 12.9 13.4 4.4 20.2-24.5 14.1-28.1-.9-.5-3.5-.9-4-.4Zm-216.4 7.2c-1.5.4-5.1 4.6-6 6.1-3.4 5.6-5.6 32.3-4.8 39.3 1.3 10.9 15.2 18 19.5 3.5 1.7-5.6 2.6-21.4 2.5-27.6 0-1.1-5.8-19.7-6.5-20.5-1.2-1.4-3.2-1.3-4.8-.8Zm153.3-.1c.2 6.6-5.4 14.7-6 20.6-.5 4.5 1 25.3 2.4 29.4 4.2 12.1 16.9 7.3 19.1-2.9 1.1-5.2 0-16.8-.6-22.6-1-9.7-1.7-25.5-14.9-24.5m-180 1.9c-20.5 3.8-17 28.7-9 43 4 2.9 10.4-17 10.7-19.8.9-7.5-2.9-15.5-1.8-23.2Zm218 43c2.5 1.8 7.2-9.1 7.7-10.8 3.9-12.8 1.6-30.1-13.7-32.2.5 7.4-2.8 16.2-1.9 23.4.3 2.7 6.4 18.5 7.9 19.6m-148.2 10.2c1.4.8 4.8 8.6 9.5 11 11.1 5.8 20.2-6.4 20.7-16.7.8-13.7-7.2-7.7-16.5-8.6-8.4-.8-15-4.8-21.8-9.2-5.5-3.5-13.6-14.6-14.7-1.4-.5 5.1 1.4 7.5 1.8 11.2s-2 5.9.5 10.7c4.8 9.3 18 1.3 20.7 2.8zm93.1-31.1c-2.1-1.5-19.7 12.7-23.9 14.4-2.3 1-7.9 2.3-10.5 2.5-10.5.9-18.8-5.4-16.4 11.4 1 7.3 7.9 15.8 16 15.1 9.4-.8 11.9-11.6 14.6-12.4 4-1.3 12.3 5.7 18.9-1.1 4.3-4.4 1.3-8.4 1.5-12.5 0-2.3 1.9-4.8 2-8.1 0-1.9-.8-8.5-2.2-9.4Z" class="shading" data-original-prefix="shading" opacity=".2"/><path id="outline-shading-mouth1" class="outline"  fill="#000" d="M1041 1343c6.1.5 12.7-1 17.5-5 1.5-1.3.9-3.7 2.8-2.9 10.1 7.9 37.9 17.4 43.8 28.2 3.6 6.5 4.6 17.5-1.8 22.6-5.6 4.5-20.8 10.8-28 15-4.9 2.8-9.7 6.6-14.7 9.3-7.4 4.1-25.5 14.5-32.6 16.4-2.9.8-5.2.8-8.1 0-14.5-3.8-42.2-22.5-56.3-30.7-6.2-3.6-21.2-9.1-23.2-15.8-5.5-18.4 15.7-28.3 28.7-35.4 2.3-1.2 15.5-8.6 16.5-8.7 2.9-.3 4.2 2.9 6.7 4.2 4.2 2.3 10 3.2 14.7 2.8-.3-5.1-3.3-11.3-1.8-16.3.5-1.6 12.5-13.9 14.5-14.4 3.9-1 8.2-.3 11.6 1.9 1 .7 10.8 11.1 11.2 11.8 2.1 5-1.2 11.8-1.5 17" class="shading" data-original-prefix="shading" opacity=".2"/><path id="outline-mouth3" class="outline"  fill="#000" d="M889 1333c-5.3 4.2-13 5.4-19.2 8.3-14.9 6.9-32.6 26.5-36.3 42.7-1.6 7 3.5 22.7 6.2 29.8 2.6 6.9 5 10.8 13.3 10.2-1.4-9 4.2-18.1 9.6-24.9 2.1-2.6 22-22.5 24.4-20.1-1.7 6.5-8.8 10.4-13 15.5-8.1 10-12.3 23.6-9.5 36.5 1.2 5.6 11.1 25.8 15 30 .6.7 7.1 6.3 7.5 6.5 3 1.5 6.9-6.1 7.8-8.2 1.7-3.8 2.1-7.7 3.7-11.3 4.4-10.2 9.4-18.4 18.5-25-5.1 13.9-9.5 44.6 1.5 56.1 4.8 5 9.9 2.7 14.3 4.7 2.8 1.3 3 5.7 4.8 6.1 2.6.6 7.2-4.9 14.1-2.1 5.2 2.1 8.6 15.6 13.9 16.1 2.5.2 10.2-12 18.4-9.4 6.3 2 15.5 20.8 23.6 23.5 6.9-4 4.5-12.6 5.8-18.9 1.5-7.6 8.3-12.6 9.4-22.6.8-7-1.6-26-4.4-32.4-.9-2.1-5-10.5-6-11.9-3.1-4.5-15.9-10.2-20.8-7.1l-4.2 11.1c-4.8-4.4-9.5-9.2-14.5-13.5-3.7-3.2-10-6.8-13-9.9-4-4.2-15.5-27.8-15.7-33.2 0-3.1 8.4-13.8 10.8-16.8 1.4-1.8 9.5-11.6 10.2-12.2 5.4-4.1 29.2-2.8 35.7.2 8.4 3.8 12.4 12.1 18.5 17.5 5.2 4.5 2.5-1.7 2.5-3.6s.9-3.2.8-4.8c-.2-5.4-6.7-9.2-9.9-13.1-2-2.4-5.5-6.3-7-8.3-.8-1-4.7-7.3-4.8-8-.7-3.3 8.6-12.4 11.3-13.2 3.6-1-.5 5.5-.5 6.6-.4 5.2 5.9 4.1 9.3 5.6 1.2.5 3 2.7 3.2 2.7s2-2.2 3.2-2.7c8-3.5 11.7.6 7.3-12.2 1.6-1.7 12.5 9.1 12.9 11.7.6 4.2-17.5 23.2-21.1 27.5l-.8 12.7c1.7.4 2-.7 3-1.5 6.5-5 11.1-13.4 19-17 6.8-3.1 28.3-4.1 34.7-.8.7.3 8.8 10.1 10.2 11.8 2.6 3.1 11.9 14.4 11.8 17.8 0 2.8-5 14.1-6.6 17.3-7.1 15.2-9.7 14.8-21.2 24.8-5.3 4.6-10.4 9.6-15.5 14.5-2.2.9-1.4-5.6-2.2-7.7-3.4-8.6-19-1.6-22.7 3.8-.6.8-6.7 12.4-6.9 13.1-1 3.2-.3 6.1-.9 9.1-2.6 12.3-5.2 19.6.2 32.2 1.5 3.5 4.6 6.8 5.8 10.2 2.5 7.2-.5 15.2 5.8 21.2 9-2.3 17.4-21.3 24.4-23.6 7.7-2.4 15.9 9.6 18.4 9.4 5.6-.5 9.8-18.8 18.7-17.5 2.3.3 7.6 3.9 9.4 3.5s2-4.8 4.8-6.1c3.9-1.8 8.9 0 13.3-3.7 11.5-9.9 8.1-43 2.5-56 1.6-1.7 11.3 10.4 12.4 12.1 5.1 7.8 6.1 15.5 9.7 23.3 1 2.1 4.8 9.8 7.8 8.2.4-.2 6.9-5.8 7.6-6.5 7-7.6 16-30.2 15.4-40.5-1.3-22.7-10.7-22.7-21.5-37.5-5.3-7.2 2.8-2.4 6 0 11.8 8.6 28 25.5 26.5 41 11.4 1.6 13.7-11.7 16.3-20.2 4.6-15.6 5.3-18.8-3.1-33.4-7.4-13-16.3-22.7-29.9-29.1-6-2.8-14.1-4.1-19.2-8.3 9.3.7 19.7 2.8 29.2 5.3 7.4 1.9 14.4 3.9 20.7 8.3 3.2 9.3 27.6 34.6 28 42 .2 3.7-8.2 22.5-10 27.9-2.5 7.2-2.6 16-10 21-1.9 1.3-8.4 2-9 3.2-4.1 7.9-1.4 38-1.9 48.8-1.1 21.6-7.6 43.1-20.5 60.5-.9 1.2-2.6 1.5-3.6 2.7-4.3 5.6-2.8 18.6-4.3 26.5-1.2 6-5 13.1-5.6 18.4-.4 3.5 1.3 7.7.8 9.7s-10.7 8.6-13.2 9.9c-2.2 1.2-5.7 1.5-6.5 2-.6.4-5.4 10.9-7.2 13.3-2.1 2.7-11.1 11.3-14 12.1-4.1 1.2-7.9-10.3-9.9-13s-2.3 2.3-3.6 4.3c-4.3 6.7-25.1 26.6-32.4 28.6-1.7.5-3.3.7-5 .5-.4-5.9 3.2-9.9-1.5-15.1-8.2-9-20.9-.3-24.3 8.8-1.8 4.9-1.6 20-8.6 18.1-4.6-1.3-20-25.6-23.2-30.8-5.7 8.9-12.2 19.9-19.5 27.4-11.2 11.7-9.9-11-13.8-18.2-3.8-7.1-14-12-21.1-6.7-6.7 5-2.9 9.6-3.1 16.4-3.5 3.5-24.3-13.8-27.5-17-1.3-1.3-10.5-12.2-11-13-.7-1.4-.2-6.3-2.6-3.3-2.1 2.7-6.2 14.3-10.2 13.3s-12-10.2-13.7-12.4c-2.1-2.7-6.6-12.8-7.2-13.2-.8-.5-3.8-.6-5.8-1.7-2.3-1.2-11.9-7.4-13-9-2.1-3.2.4-6.9 0-11-.7-6.8-5.9-15.3-6.8-24.2-.5-5 .6-10.7-.6-15.4-1-4-8-10-10.7-14.3-15.3-24.4-17.6-52.1-17.9-80.2 0-5.4 3-18.2 0-22.8-.8-1.2-7.8-1.9-10.4-3.8-7.2-5.3-6.2-13-8.6-20.4-1.9-6-10.7-24.3-9.8-28.7.5-2.7 4.3-7.5 6-10.1 7-10.8 15.7-20.6 22.5-31.5 5.9-4.3 13.2-6 20.1-7.9 9.7-2.6 19.8-4.7 29.2-5.3h.2Zm15 128c-1.4-1.5-7.8 8.9-8.4 10.1-10.6 19.9-8.6 50.8-1.8 71.7 1.1 3.3 9.4 22.1 12.8 21.2 4.4-1.1 10.8-28.9 12.8-34.3 4.3-11.7 13.6-22.1 8.6-35.6-4.8-.6-12.2 1.2-15.9-2.9-1.4-1.5-8.5-21.7-8.8-24s.8-4 .8-6.2Zm240 103c.6-.4 6.8-10.5 7.5-12 6.3-12.1 9-33.7 9.5-47.5.6-14.9-4.3-31.4-14.6-42.5l-2.2 9.8c-4.9 13.6-4.6 25.2-23.1 22.4-5.2 13.7 4.3 23.9 8.6 35.6 3.1 8.4 6 27.5 11.8 33.2.7.7 1.4 1.8 2.4 1.1Zm-262.3-85.7c-1-.9-4.6-2-6.6-3.9-4.2-3.9-7.8-13.1-14-4.7-13.3 17.9-4.1 44.9 7 61.7 1.6 2.4 11.5 15.7 13.3 15.7.5-8 1.2-16.5.5-24.5-.4-5.4-3.1-12.3-3.1-18s6-23.3 2.8-26.2ZM1167 1547c1.7.4 2-.5 3-1.5 17.4-17.9 32.6-50.9 18.4-74.4-6.5-10.8-10.8-.4-16.9 4.9-2 1.7-5 1.6-5.5 4.5-.8 4.5 4 18.3 4 24s-3.3 14.8-3.6 21.2c-.3 6.3 1.6 14.6.6 21.3m-64.5-53c-1.4.3-3.3 6.6-3.8 8.2-3 10.7-2.9 45.1 1.1 55.5 4.8 12.4 18.2-4.3 20.4-11 3.9-11.7-6.4-31.5-11.4-42.1-1-2.2-3-11.4-6.3-10.7Zm-86.8 33.3c-3.2-2.8-9.7 3.2-15.8 1.3-2.1-.7-8.7-7.5-10.5-9.5-2.6-2.9-3.4-8.8-8.2-7.4-12.2 3.5-20.5 24.1-21.2 35.9-.9 13.6 2.4 21.7 11.5 31.5 9.8 10.4 24 15.7 36.1 23h2.3c2.1-6.4 6.2-12 8.1-18.4 3.7-12.2 7.9-47.3-2.3-56.2zm23.4 74.6c1.1.7 3.4 0 4.6-.6 21.8-13.1 47.5-23.3 45.2-53.7-.9-11.9-9.2-33-22-36.1-4.4-1.1-5.5 5-8 8-1.7 1.9-7.3 7.9-9.2 8.8-9.2 4-14.3-9-20 5-5.4 13.2-2.6 37.5 1.5 51.1.7 2.2 7.1 17.1 7.9 17.6ZM885 1559c-3.2-3.3-6.4 8.4-5.8 12.3.7 4.5 5.4 23.4 7 27 1 2.2 6.2 8.5 8.7 6.7 3.4-2.4 3.2-20.7 4-25.4-.5-3.1-8.3-6.1-11-10-2.3-3.5-2.6-10.1-3-10.5Zm269.1 45.9c2.7 1.5 7.8-5.3 8.8-7.5 1.7-3.8 6.1-21.6 6.9-26.2.8-5-.5-8.8-4.3-12.2l-5.1 10.9c-1.4 3.6-9.4 6.1-10.2 8.8-1.2 3.9.5 24.2 3.9 26.2M917 1563c-1.9-2.2-11.8 12.5-12.4 14.1-1.7 4.6-3 25.2-2.4 30.3.9 7.9 5.6 18 11.4 23.6 1.4-8.8 5-18.6 5.5-27.5.8-13.1-3.7-27.1-2-40.5Zm218 68c5.3-3.9 9.4-12.4 10.8-18.7 1.5-7 .8-27.4-1.2-34.3-.6-1.9-10.4-17.4-12.5-15 1.5 13.8-3.1 28-2 41.5.7 8.7 4.6 17.6 5.1 26.5zm-186-62c-2.4-2-8.2 6.4-9.4 8.1-7.7 11.1-15.4 39-8 50.8 2 3.2 16 15.2 19.5 16.5 5.6 2.2 6.5-1.9 7-6.9 2.4-23.1-3.5-46.4-9-68.5Zm151 0c-1.5 11-6.9 22.6-8 33.5-.9 9-2 26.3-1 35 .2 1.9 1.7 8 3.6 8.4 2.4.6 18.8-13.3 20.9-15.9 8.3-10.5 3.8-32.3-1-44-1.2-2.9-11-19.9-14.5-17m-82 44c-3.5 0-6.1 2.5-9.6 2.9-12.7 1.6-29.1-13.9-41.4-16.9v24.5c0 .6 3.2 8.2 4.1 8.9 6.5 5.2 18.9-.4 24.4 5.6 2.6 2.9 4.3 10.3 10.6 5.5 1.1-.8 11.9-13.1 11.9-14.1v-16.5Z" class="outline" data-original-prefix="outline"/><path id="outline-mouth2" class="outline"  fill="#000" d="M1122 1332c-.2 0 .2 1.6 0 1.9-1 .8-8.1-5.8-10.2-7.1-10-6.1-19.8-8.3-31.2-9.8-2.9-.4-6.9.7-9.5-.5-1.5-.8-4.5-7.4-6.5-9.5-7.8-8.7-15.6-10.2-25.8-13-1.1-.3-.6-1.9-.7-2 3.1-3.8 16.2-9.3 20.8-9.8 7.9-.9 5.5 4.4 6.5 9.1 2.3 10.7 9.3 19.6 21.3 18.8 5.1-.3 5.6-4 7.9-4.1 1.4 0 6.6 2.9 8.2 3.8 9.4 5.2 15 12.5 19.3 22.2z" class="outline" data-original-prefix="outline"/><path id="outline-mouth1" class="outline"  fill="#000" d="M1011 1292s.4 1.7-.7 2c-10.2 2.8-17.4 4.1-25.4 12.5-2 2.1-5.6 9.2-7.2 9.9-3.4 1.4-13.5 1-18.1 1.8-12.5 2.1-23.6 8.7-33.1 16.9.2-.9-.5-2.8-.5-3 .8-2.7 8.7-13.3 11-15.6 2.5-2.4 14.7-10.5 17.6-10.4 2.7 0 3 5.1 11.9 3.9 10-1.3 16.2-10.1 17.5-19.6.4-2.6-2.4-6.7 2.8-8.2 3.5-1 21.7 5.6 24.3 9.8Z" class="outline" data-original-prefix="outline"/></g><g id="04_Eyes" data-trait="lennon"><path id="fill-eyes1" class="fill"  fill="#fff" d="M1337.4 1026.1c3.1 1.9 27.4 48.4 30.4 55.1 4.6 10.3 10.8 24.4 12.8 35.2 2.1 11.4-12.9 9.7-18.9 15.9 56.4 60.1 63.7 159.1 15.2 226.2-85.8 118.9-273.9 81.8-306.7-61.7-1.4-6-3.2-25.8-5-29s-14.2-10.6-17.5-13.5c-7.3-6.4-13-14.8-20.5-20.5-2.7 1.3-6.1-.6-8.4.4s-12.9 14.1-16 17c-6.6 6.1-14.2 11.2-20.9 17.1-3.1 29.1-11.3 56.4-26.7 81.3-64.6 104.6-220.3 106.5-288 4.2-44.8-67.5-36.8-162.7 18.6-221.6-4.4-4.5-20.1-6.7-20.1-14s2.6-3.6 3.6-5.5 1-6.9 2.1-9.9c7-20.2 26.5-59.6 39.4-76.4.7-.9 2.4-.4 3.1-1.3 17.8-23.5 37.1-50.1 58.4-70.4 144.8-137.8 344.4-143.2 493.5-8.5 23.4 21.2 42.9 45.9 62.4 70.6 4.9 6.3 2.4 5 9.3 9.2Z" class="fill" data-original-prefix="fill"/><path id="fill-eyes2" class="fill"  fill="#fff" d="M1225.8 1080.3c-134.6 8.8-201.3 164-125.2 272.6 71.9 102.5 225.4 92.8 284.9-16.9 63.4-116.9-25.8-264.5-159.7-255.7" class="fill" data-original-prefix="fill"/><path id="fill-eyes3" class="fill"  fill="#fff" d="M799.8 1080.3c-132.6 9.3-203.1 165.1-126.6 273 70.7 99.7 219.8 93.3 281.6-12 69.1-117.7-16.2-270.8-155-261" class="fill" data-original-prefix="fill"/><path id="outline-shading-eyes8" class="outline"  fill="#000" d="M942 857c-12.2 12.2-28.8 18.2-42.9 27.6-28.1 18.6-58.9 57.3-75.3 86.7-2.4 4.4-10.8 19.8-11.4 23.7-2.9 17.9 18.5 42 30.7 53.5 38.6 19.7 77.6 39.1 113.5 63.5 10.9 12.6 32.2 63.9 44.2 70.8 9.5 5.5 13.5-.6 18.8 13.2 1.1 2.8-.7 5.7 2.8 7.3 5.4 2.5 4.8-4 6.2-7.3.8-1.9 3.6-8.2 4.9-9.1 2.2-1.6 10.3-2.3 13.8-4.2 11.6-6.3 33.5-59.5 44.7-71.3 16.2-11.1 33.2-21.1 50.3-30.7 18-10 47.2-21.5 62.6-32.4 7.9-5.6 26-29.3 28.6-38.4 5.1-17.8-6.4-33.8-15.5-48.5-16.6-26.8-42.8-59.3-69.1-76.9-14.2-9.5-30.9-15.1-42.9-27.6 32.3 6.5 63 20.9 91.3 37.2 45 25.9 89.6 63.8 119.5 106.5 2.5 3.6 7.3 8.9 5.5 13.1-1.6 3.7-26.3 9.5-31.6 11.5-58 21.6-107.5 42.9-156.6 81.4-26.9 21-39.3 37.8-58.3 65.7-4.9 7.2-6.3 13.4-13.3 19.7-2.1 1.9-22 16.2-23.4 16.6-1.9.6-28.2.6-30.1 0-1.3-.4-19.7-13.4-21.9-15.1-8.5-7-9.6-13.4-15.3-21.7-18.6-27.2-30.8-43.5-56.9-64.1-49.5-39-98.9-60.6-157.6-82.4-5.5-2-29-7.5-31.3-10.6-2.9-4 2.2-9.9 4.6-13.5 27.2-39.6 72-78.2 113.1-102.9 30.2-18.1 63.5-34.2 98.3-41.2Z" class="shading" data-original-prefix="shading" opacity=".2"/><path id="outline-shading-eyes7" class="outline"  fill="#000" d="M982 1232.5c0-.5-1.4-1.5-1-2.5l30.7-7.8c6.6 2.7 10.5 5.2 17.9 2.8 2-.6 4.2-2.8 5.7-2.8 3.7 0 15.4 4.5 20.5 5.4 3.7.7 7.3 1.8 11.1 1.3 1.9-15.4 5.6-30.8 11.3-45.2 4.4-11.2 7-15.9 15.8-24.2 23.8-22.6 59.7-46.6 91.2-55.8 1.6-.5 18.8-5.4 18.8-3.2L1078.5 1318c-1.7 0-8.2-25-8.8-28.2-1.2-5.4-1.9-20.2-4.2-23.8-1.2-1.8-14.3-10.7-17.4-13.6-3.5-3.1-17.5-19.4-19-20-.4-.2-8.8-.4-9.2-.3-1.3.3-15.6 16.6-18.7 19.4-3.7 3.3-16.8 11.9-18.5 14.5-2.3 3.7-5.8 29.7-7.8 37.2-17.3 62.5-72.8 113.6-137.7 121.8l126-220c1.5-1.1 10 22.7 11 24.5l8 28.5c-.4-8.4.5-17.1 0-25.5z" class="shading" data-original-prefix="shading" opacity=".2"/><path id="outline-shading-eyes6" class="outline"  fill="#000" d="m1256 1427 127.5-222c1.7.8 11.6 27.3 12.8 31.2 2.4 7.9 10.7 36.7 10.8 43.3 0 7-3.7 21.2-5.8 28.3-14.5 48.4-55.6 91.7-103 109-14 5.1-27.7 7.5-42.2 10.2z" class="shading" data-original-prefix="shading" opacity=".2"/><path id="outline-shading-eyes5" class="outline"  fill="#000" d="m784 1100-131 226c-16.5-40.5-18.7-84.7-6.3-126.8 6.6-22.5 18-31.9 35.2-46.8 28.5-24.6 64.2-47.4 102-52.5Z" class="shading" data-original-prefix="shading" opacity=".2"/><path id="outline-shading-eyes4" class="outline"  fill="#000" d="m755 1419 160.4-280c7.5 6.8 15.3 13.5 21.5 21.5 2.2 2.8 5.4 5.6 3.6 9.5l-146 256-3 1.1-36.6-8.1Z" class="shading" data-original-prefix="shading" opacity=".2"/><path id="outline-shading-eyes3" class="outline"  fill="#000" d="M1214.9 1425.9c-12.3-2.1-25.9-4.3-37.5-8.8-1-.4-1.8.6-1.3-1.5l159.4-276.5c7.5 6.8 15.3 13.5 21.5 21.5 2.2 2.8 5.4 5.6 3.6 9.5L1215 1426Z" class="shading" data-original-prefix="shading" opacity=".2"/><path id="outline-shading-eyes2" class="outline"  fill="#000" d="M733 1096c-17.9 7.4-32.8 20.6-46.7 33.9L672 1124c-.5-3.2 3.5-2.5 4.9-4.6l15.1-28.9c12.8.7 31.8-5 41 5.5" class="shading" data-original-prefix="shading" opacity=".2"/><path id="outline-shading-eyes1" class="outline"  fill="#000" d="M1376 1124c-3.2-.2-12.4 6.4-14.3 5.9-1.5-.4-6.8-6.8-8.7-8.4-11.6-10.1-24.2-19.3-38-26 3.9-8.6 32.1-4.8 40.3-5.3 3.1 1.1 11.8 25.7 16.2 29.8 1.6 1.5 4.9 1.1 4.4 4Z" class="shading" data-original-prefix="shading" opacity=".2"/><path id="outline-eyes2" class="outline"  fill="#000" d="M1330 995c5.5-2.7 6.2-3.9 11.9-.5 20.3 12.1 46.5 72.6 53.3 95.7 2.9 9.6 10.1 35.3 8.7 44.2-1.6 10.1-10 6.4-16.9 9.1-1.3.5-2.4 0-2 1.9 79.4 110.2 14.2 272.7-121.7 292.4-83.2 12-156.1-32-192.2-105.5-4.8-9.7-3.4-15.2-14.1-20.9-19.2-10.3-45.2-9.9-64.7-.7-1.6.8-8.2 4.5-9 5.5-2.1 2.5-8.4 20.2-11.1 25.4-46.5 88.6-156.8 124.6-246.2 76.8-98-52.4-127.9-183.7-63-274-5.9-4-15.6.3-17.8-8.2-2.1-8.1 4.7-33.2 7.3-42.3 6.6-23.4 17-48.3 30.1-68.9 4.2-6.7 21.1-31.8 28.1-32.8 1.9-.3 5.9 2.7 7.2 1.7.4-.3 3.5-6.5 5.1-8.4 77.7-95.1 168.5-146.8 293.5-148.6 127.6-1.8 228.7 47.7 307.4 147.6 2.4 3 5.7 6.6 6 10.5Zm-275 262c-.5-40.5 15.3-87.2 32.8-123.7 3.2-6.7 9.5-18.6 15.5-22.5 11.9-7.8 33.8-17.9 47.3-24.7 10.4-5.2 29.1-15.4 39.3-18.7 1-.3 1.9-.7 3-.5l-1 2.5-12 7.5c8.8-.9 17.1-4.2 25.8-5.7 52.3-9.1 104.6 4.6 145.7 37.7 2.7 2.2 15.1 14.5 16.2 14.8 8.2 2.4 8.7-4.4 8.3-10.4-.8-13.6-16-42.4-22.9-55.1-2.1-3.9-16.8-30.2-18.4-31.1-.5-.3-10.8-1.2-12.3-1.2-8.5 0-24.3 1.7-33 3s-16.2 4.3-24.5 6c-.6-2.6.8-1.8 1.9-2.6 12.1-9.8 26.3-18.3 40-25.6 1.1-1.9-5.2-15.9-6.7-18.5-19.8-34.7-109.2-96.5-146.9-111.1-83.7-32.4-179-33-262.2 1.3-36.3 14.9-123.6 75.6-142.8 109.2-1.6 2.8-7.6 15.4-7 17.6.8 3.2 9.2 6.1 12.2 7.9 10.1 6.4 21.4 13.4 29.7 21.8-8-1.4-15.4-4.8-23.5-6-8.7-1.3-24.5-3.1-33-3-3.5 0-8.3 1.7-12.3 1.2-9 15.2-18.6 30.2-26.4 46.1-4.4 8.9-14.1 29.1-14.8 38.2-.5 5.5-1.1 14.6 7.3 12.3 1.1-.3 13.6-12.7 16.2-14.8 41-33.1 93.5-46.8 145.7-37.7 8.4 1.5 16.4 4.4 24.8 5.7l-11-8.5 4.7.3c26.1 14 56 25.6 81.3 40.7 13.2 7.9 22.8 32.2 28.5 46.5 7.1 17.8 13.2 37.5 17.8 56.2 1.2 4.9 2.2 16.8 3.7 20.1.5 1 1.8.7 1.9.8 1.5 2.2-1.9 1.8-2 2.6-.2 1.1 1 3.3 1.1 4.9.2 5.5 0 11 0 16.5s.3 9.1 0 13.5c0 2-2.9 16.4-1.5 16.5 21.2-6 44.3-5.7 65.5 0-1.9-10-1.9-19.9-2-30m-255.2-176.7c-132.6 9.3-203.1 165.1-126.6 273 70.7 99.7 219.8 93.3 281.6-12 69.1-117.7-16.2-270.8-155-261m426 0c-134.6 8.8-201.3 164-125.2 272.6 71.9 102.5 225.4 92.8 284.9-16.9 63.4-116.9-25.8-264.5-159.7-255.7" class="outline" data-original-prefix="outline"/><path id="outline-eyes1" class="outline"  fill="#000" d="M998 1254c.2-.4 0-2.2.9-3.5 9.2-12.9 21.3-27.4 18.1-44.5 6 1.8 8.5 2.6 14.5 0-1.3 11.9 3.9 23.9 10.3 33.7 3.2 5 8.9 9 9.2 15.3-2.3-.3-3 2.2-4.7 2.8-2.9 1-2.4-1.7-4.3-3.4-2.5-2.2-6.2-4-8.6-6.4s-7-12.1-8.9-12.1c-3.2 0-3.4 4.5-4.7 6.4-4.3 6.1-7.8 7.6-12.9 12.1-1.1 1-1.9 3.3-2.1 3.4-2.5 1.4-4.8-3-6.9-3.9h.1Z" class="outline" data-original-prefix="outline"/></g><g id="05_Right Ear" data-trait="battle scars"><path id="fill-ear-rt" class="fill"  fill="#fff" d="M1711.8 182.1c1.9-.3 12.9 5.8 12.3 9.3l-7.1 128c-11.3 41.5-31.3 85.9-40.4 127.5-4.1 18.5-3.8 39.5-6.6 58.4-.2.8-.7 1.3-1.5 1.6-3.4 1.1-49-18.4-56.8-20.9-3.8-1.2-11.7-4.6-15.1-2.1-.5.4-5.2 8.2-5.3 8.8-.2 2.1 17.9 16.1 20.9 18.8 2.1 2 12.8 12.1 13.5 13.5 1.6 3.5.2 16.4.5 21.5.4 6.7.9 12.6 5 18 5.9 7.7 20.9 15.3 17.2 26.2-13.8 29.6-30.1 57.4-46.4 85.6-10.1 17.4-14.5 29.1-28.3 44.7-18.1 20.4-37.8 39.6-56.6 59.4l-98.9 53.1c-11 23.9-19.3 49.1-29.6 73.4l-92.6 78.5c-5.1 5.1-13.5.6-19.4-1.4-25.1-8.4-50.8-25.1-71.4-41.6-4.9-3.9-14.1-10.7-17.5-15.5-13.1-18.4-20.9-41.3-13.6-63.5 16.8-50.7 49.3-97.5 68.2-147.8 9.2-24.4 7.9-72.1 10.9-100.1 4.3-38.9 11.1-77.8 16.4-116.5l98.4-116.6 142.4-103.6z" class="fill" data-original-prefix="fill"/><path id="outline-shading-ear-rt" class="outline"  fill="#000" d="M1599 504.5c0 .5 1.6 1.4 2 2l-1.5.5c-11.4-10.3-23.7-19.4-37-26.9 2.9-11.5.3-23.1.5-34.6.1-10 6.8-25.9-6.9-29.5-.1 3.6-4 8.3-3.9 11.5 0 2.7 3.4 4.9 3.9 9 1.9 16.2-1.6 35.4-.8 51.8 1.7 10 14.9 14.3 22.3 19.7.6 9.7 4.3 21 4.5 30.5.4 13.2-15.2 34.4-17.3 48.8-.3 2.3.5 4.5.3 6.8 12.5-2.5 20.8-17.9 27.4-28.1 4.2-6.5 8.7-13.9 11.6-20.9 1.4.1 1.6 1.5 2 2.5 6.8 15 5 18.4-.3 32.8-12.6 34.1-31.8 70.9-51.7 101.3-15.4 23.6-23.1 31.8-47.1 46.9-29.3 18.5-61.8 33.1-96.9 36.1-9.9 13.4-11.6 31.3-12 47.5 60.5-12.3 110.8-49.8 157.5-88 2.2-1.8 11-10.5 12-11 1.2-.5 1.9.3 1.5 1.5-.6 1.6-10.5 13.3-12.5 15.5-39.7 44.6-83.4 59.4-130.8 91.2-1.9 1.3-8.9 5.9-9.8 7.3-.8 1.2-.3 8.4-1.2 11.8-1.4 5.5-5 11.6-6.7 17.3-3.5 12.1-6.4 42-14 50-1.1 1.1-2.9 1.8-4.1 3-25.2 25.5-52.1 49.3-77.4 74.6l-2.1.9c-16.9-4.5-37.5-4.8-53.9-10-17.7-5.6-57.5-34.9-67.4-50.6-4.1-6.5-7.5-10.1-5.5-18.1 2.3-9.3 35.9-44.2 44.3-54.7 68-84.5 112.9-185.4 139-290.5 1.5-.4 1.7.4 2.5 1 5.5 3.8 10.5 12.2 16.5 16-1-12.4-13.2-22.4-22-30.5-1.8-1.7-12.3-11.1-13.5-11.1l-93.5 64.7.9-12.3c2.8-.8 12.2-9.1 13.1-11.2.7-1.8-6.5-3.8-7.5-5.5l-7.3-4.7c1.2-7.4 0-15.5.8-22.8 1.5-13.2 15.9 1.6 21.7 5.3 3.3 2.1 13 8.8 16.3 7.8l22.4-13.7 24.1-42.9c12-8.8 13.1 0 18.9 7 7.3 8.8 19.1 16.3 26.6 25.4l65.9 13.1c2.2-1.1 14-25.1 15.9-29.2 8.8-19.7 7-29.3 9.2-49.9.8-7.3 1.6-14.8 2.9-22.1 21.8-35.3 43.5-70.9 70.5-102.5 28.3-33 60.7-53 97.2-75.8 1.3-.9 10.4-5.9 11.1-6 3.5-.5 11.5 10.6 14.8 12.9v1.1c-6 15-18 25.2-27.5 37.5-15.8 20.5-31.2 48.3-42.2 71.8-4.1 8.7-12.4 25.9-14.3 34.7-2.3 10.1 6.5 31.6 8.5 42.5l69.3 19.6c4 2.4-.3 9 .7 12.8-4.1 0-8.2.2-12.2-.3-4.9-.6-44.2-8.6-46.2-9.8-1.1-.6-1.2-2.2-2.3-2.9-2.4-1.3-6.5-1-9.2-1 1 6.7-1.4 17.4 0 23.5ZM1329 776h16.5c.4 0 2.3 1 2.5 1.8l9 36.6-26.8 49.9 4.4 5.7 27.5-41c0 1 1.6 7.9 3 7 0-3 4.2-5.6 4.8-7.7 1.6-5.6-6.3-30.1-8.5-37.1-1.3-3.9-4.8-16.5-7.2-18.8-2.1-2-16.6-4-19.6-3.5-1.9.4-6.3 6.3-5.5 7Zm-7.9 188.9c2.2 1.5 9.2-6.1 10-8.5l-6.5-41.5c-8.1-22.6-19.3-45.8-31.4-66.6-1.4-2.4-3-5.7-5.2-7.3l-5.9 13.3c7.1 13.7 19.3 26.2 22.4 41.7.3 1.5.7 2.9.5 4.5-.9 5.1-19.4 24.3-23.4 29.6L1272 966l41.5-38zM1375 911l6.6-9.5c-2.1-7.7-6-16.6-7.4-24.2-1.4-7.7-.6-17.4-3.8-25.2l-4.6 8.4 9.1 50.5Z" class="shading" data-original-prefix="shading" opacity=".2"/><path id="outline-ear-rt" class="outline"  fill="#000" d="M1204 942c-4.2-.7-8.9-3.7-12.7-5.8-19.7-11.4-30-35.7-43.8-53.2-1-2.9-.7-7.3-.5-10.5 1.2-23.6 12.9-37.4 22.2-57.8 5.6-12.4 10.8-31.7 17.6-42.4 2.6-4 7.1-7.8 10-12 38.3-55 42.6-150 46.2-215.8.4-6.6.3-23.8 2.6-28.4 42.9-62.2 88.8-122.3 141.4-176.6 18.3-18.9 33.3-29.6 55.1-43.9 73-47.8 153.8-87.8 236.9-115.1 12-3.9 31.6-10.1 43.8-11.3 6.6-.6 7 0 8.7 5.7 8.6 28.2 2.7 75.6.4 105.5-1.2 16.8-1.1 48.6-7.5 63.5-1.4 3.3-7.7 8.9-10.3 12.7-12.7 18-18.2 41.5-21.9 63.1-2.9 16.7-5.6 39-4.3 55.8.7 8.6 6.2 16.7 6.1 24 0 7.3-4.1 16.3-5.1 23.5-23.2-9.5-47.1-16.6-72-20 2.6 4.6 17.7 13.8 18.8 17.7.8 2.6-.9 4.6-.8 6.8.3 5.9 2.8 28.5 5.1 32.9 1.3 2.5 10.2 10.6 12.9 13.1 2.7 2.6 16 12.8 16 15 0 2.4-9.9 24.1-11.8 28.2-38.7 86.3-81.2 144.4-162.7 194.3-12.3 7.5-25.2 12.8-37.2 19.8-24.8 14.6-38 54.9-48.8 80.2-6.7 15.7-20.4 20.9-32.5 31.5-14.9 13.1-28.1 28.9-42.4 42.6-21 20-57.1 3.6-79.6-6.5-6-2.7-9.7-4.2-13-9.5 7 .5 13 4.1 19.8 5.7 19.2 4.6 30.1 2.7 47.2-6.2 2.7-1.4 17.2-10.3 17.8-12.2-.4-11.3 1.1-23.7.2-34.9-1.1-14.1-12.9-36.3-19.5-49.5-2-3.9-16.2-31.9-18-32-13.4 22.8-27.1 46.5-35 72-3.4 11-6.9 23.7-5.2 35.2.7 5.1 3.8 9.7 4.7 14.8-1.7 1.6-17.8-11.5-20-13.5-4.4-4-9.2-7.6-9.1-14 .1-5.5 2.1-26 4.2-29.8 2.6-4.7 9.2-11.4 12.7-16.3 42.5-61.5 61.2-130.5 109.2-188.8 7.6-9.2 15.4-19.8 20.2-30.8 8.2-18.7 19.6-72.5 16.6-91.9-2.4-15.8-26.1-29.3-36.3-40.7-8.8 19.2-17 34.5-36.6 44.3-13.2 6.6-22.1 5.7-35.1 8.9-8.2 2-15.2 10.1-21.6 15.5-.7 10-2.3 19.9-3.2 29.8-1.9 22.5-1.6 46.7-5.1 68.9-3.1 19.4-25.6 63.3-35 83-14.2 29.4-31.4 55.9-39.8 88.2-2.7 21.7 14.3 52.9 29.9 67.4Zm514-753c-2-2-47.8 16.6-53.3 19.1-68.3 30.5-139.4 73.9-202.2 114.8-52.8 34.5-93.3 70-133.4 118.5-17.4 21.1-39.2 47.3-54.4 69.6-8.3 12.1-10.4 25.6-12.2 40 3.6 1.4 7.4 2.5 10.9 4.1 5.8 2.7 18.7 11.4 23.9 10.7 20-2.7 33.2-23.1 41.9-39.1 1.5-2.8 5.6-13.8 6.1-14.4 1.8-2.1 5.8-.9 8 0 7.4 3.1 20.5 23.4 27.8 30.2 15.8 15 36 25.7 53 39 4 12.5 8.9 24.9 12.5 37.5 2.2 7.8 5.6 31.3 10 36 12.5 13.5 30.2-11.7 35.7-21.4 33.7-58.5 35.6-122.7 20-187.2 22.7-73.6 76.6-122.2 130.4-173.4 5.9-4.6 13.1-6.7 19.4-10.6 11-6.8 19-19 32.1-22.4l-21.2 37.3c-5.8 7.2-14.8 10.5-22.2 15.9-33.3 24.1-60.4 53.8-79.9 90.1-1.4 2.6-8.8 16.7-8.8 18.2 0 3.5 13.2 8.9 14.8 13.2 2.1 17.7 1.2 36 5.7 53.3 1.3 5.1 2 9.5 8.1 10.9 7.5 1.7 17.7 1.9 25.7 3.4 16.7 3 33.1 7.2 49.8 9.7 1.8-18.7.9-37.8 3-56.5 2.7-23.8 11.5-60.6 20-83 6.8-18 16.8-28.7 20.7-48.3 7.5-37.2 11.2-77.4 8.3-115.2Zm-75.2 392.2c-8-6.2-17.7-13.9-18.8-24.7-.6-5.8 0-26.6-2.1-29.9-18.1-17.7-37.4-33.7-58.8-47.3 1.7-13.2.6-26.6.8-39.9.2-10.2 4.9-20.1-7.9-25.5-10.1 33.1-20.7 79-6.5 112 1.2 2.9 6.7 10.6 6.3 12.3-21.1 26.6-32.9 59-41.6 91.5-2.4 8.9-8.5 47.6-11.4 51.6-2.7 3.7-14.2 13.2-18.4 16.6-13.4 10.9-30.6 22-45.8 30.2-2.5 1.4-16.2 9.2-17.7 7.8 3.5-7.6 7.8-14.9 10.8-22.7 8-21.6 9.7-46.5.4-67.9-4.5-10.3-19.2-36.8-31-19.7-7.5 11-16 48.1-17.2 61.8-.5 5.9 1 14.3-.4 19.6-.8 2.7-14.5 12-14.6 15.4 5.2 11.5 11.1 23.1 19 33 1.9 2.3 7.7 6.6 8 9-2.9 11.6-6.2 23.2-7.9 35.1-2.7 19.7-1.9 45.1 2.1 64.6 1.1 5.3 3.6 11.1 6.2 15.8 4.2-8 7.9-16.3 11.2-24.8 1.9-4.8 7.1-16.1 7.8-20.2s-2.2-4.7 2.4-9.5c5.5-5.8 29.5-19.4 37.7-24.3 18-10.7 37.3-19.4 54.6-31.4 49.8-34.7 117.1-125 132-184 .3-1.3 1.3-3.3.5-4.6ZM1277 572l-16-9-3 28c1.7.5 2-.7 3-1.5 1.8-1.4 16.7-16.5 16-17.5m100 227c.6-8 2.7-15.3 1.9-23.4-1.3-13-12.8-29.9-23.2-37.5-1.1.2-13.4 15.4-14.1 17-.6 1.3-.7 2.5-.6 4 5.5 1.1 20.8-.5 24 3.5 5.1 6.3 7.4 26.5 9.9 35.1.4 1.5-.6 1.8 2 1.5Zm-43.3-30.9c-2.2.6-23.3 32.3-26.1 36.9-2 3.2-11.6 19.1-11.5 21.4l36.5 56.5 2.9-2.1 34-51c.4-2.2 1.3-5.2 1.2-7.3-.3-6.2-7.1-26.3-9.4-33.4-1.4-4.4-4.7-17.7-9-19-1.6-.5-17.7-2.3-18.6-2.1ZM1340 946c1.7.5 2-.7 3-1.5 7.1-5.5 26-24 32-31 3-3.4 5.2-7.5 7.8-11.2-7.5-17.2-9.7-35.7-10.8-54.3-1.2 0-1.6 1.4-2.2 2.3-10.4 16.4-20.2 35.2-28.1 52.9z" class="outline" data-original-prefix="outline"/></g><g id="06_Left Ear" data-trait="ringer"><defs></defs><path id="fill-ear-left" class="fill"  fill="#fff" d="M366.5 448c2.2-.7 1.7-6.1 1-8-14.8-50.5-33.9-100.1-45.5-151.5l-3-99c.6-3.5 14.7-7.2 18.4-7.5 72.6 34.3 145.7 67.7 217.5 103.6L702.5 405l86.3 108.7c9.7 62.8 14 126.7 22.2 189.8l75.7 173.9-26.9 52c-5.3 7.8-42.1 33.9-51.5 38.5-18.4 9-40.3 13.4-59.9 19.2l-3-1L638 882.5c-7.9-16.2-9.4-35.5-17.5-51.5L476 735.5l-73.2-131.3c-15.9 1.2-45.2 3-28.2 25.7 7.5 10.1 22.2 9.2 32.5 13.5 1.2 5.2 9.4 13.6 10.5 17.5 1 3.2-1.3 6.7-.6 10l-68.5-7-16.8-43.2-.2-4.8 23.8-45.7c3.4-2.8 29.6-6.2 36.2-8.3 1-.3 2-.2 2.4-1.4-4.9-19.1-12.3-39.6-14.7-59.2-.4-2.8.7-10.8-1-12-7.7-.7-15.3-2.8-23.1-2.4l5 37c-4.9.6-8.3 6.4-14 4.6l-46.8-15.7v-39.6l30.9-22.7c3.4 1 12.5-2.5 13.5-2.5 4.6 0 20 .9 23 0z" class="fill" data-original-prefix="fill"/><path id="fill-earing-lft2" class="fill"  fill="#fff" d="M404.9 643.2c1 .6 9.3 17.3 12.1 19.3.2.5-2.1 1.1-2.6 1.1-14.2.4-44-3.9-56-11.5-9.6-6-21-30.6-19.2-41.6 1.4-8.8 18.5-28.8 27.1-31.8 12.1-4.4 38.3-7.8 51.3-7.7 9.6 0 20.4 10.4 15.4 20.4s-17.7 8-23.7 9.3c-9 1.9-31.4 3.1-37.5 8.5-7.4 6.4-2 19.2 3.9 24.9 4.8 4.6 16.5 7.7 23.1 8.9 1.8.3 5.2-.4 6.2.3h-.1z" class="fill" data-original-prefix="fill"/><path id="fill-earing-lft1" class="fill"  fill="#fff" d="M360 523c-3.2 2.8-33.2-6.9-38.4-9.1-15.7-6.7-18.1-11-16.7-28.4 1.2-14.7 9.9-16.9 22.1-21.9 21.4-8.9 37.2-11.8 60.2-5.2 8.6 2.5 26.1 9.5 27.6 19.5.9 6.5-3.8 15-10.5 16.1-2.5.4-17.8-4.5-22.2-5.4-12.8-2.4-34.3-7.6-44.1 3-13 14.1 15 16.1 18.6 19.5 1.8 1.7 2.4 9.3 3.5 12h-.1Z" class="fill" data-original-prefix="fill"/><path id="outline-shading-ear-lft" class="outline"  fill="#000" d="m608.2 565.2 3.3-1.2 51.4-6c1.9 9.6.6 19.6 2.2 29.3 3.3 21 21.8 41.3 32.7 59.3 28.9 47.5 49 99.2 78.8 146.2 16.1 25.4 34.3 49.3 53.4 72.6 7.9 9.6 28.7 29.6 32.7 39.3 1.1 2.7 2.6 7.6 2.1 10.5-.3 1.4-7.6 14.6-8.8 16.2-3.6 4.9-14.8 12.8-20.1 16.9-22.1 17-43.7 28-70.9 35.1-4.6 1.2-16.1 4.8-20 3l-92-84.2c-10.8-23.6-17.5-49.5-29.5-72.3L510 764.4l-84.1-88.9c-25-3.4-50.4-5.3-75.4-8.6-1.3-.2-4-.6-4.7-1.5L326 606.8l30.8-40.3c3.9-2.9 10.3-.8 15.1-1.4 1.2-1.2-6.9-24-8-27.5-8.1-2.8-41.4-4.6-46.1-8.9-3.1-2.9-16.5-30.5-19.5-36.5s-7.8-14.2-7.5-16.5c0-.8.4-1.5 1.1-2l51.3-33.7c3.4-1.3 29.1-1.4 32.8-.3l43.5 26.5c1.2 1.1 1.6 2.4 2.2 3.8 1.2 3.2 5.4 18 5.4 20.8 0 5.9-7.2 8-6.9 10.8.3 3.3 9.1 19.4 11.3 23.7 8.1 15.8 29.4 56.7 42.6 66.4 2.6 2 5.4 4.1 8.9 3.6 1.8-8.1-2.3-16.5-5.2-24.2-2.8-7.3-11-21.9-11.7-28.4-.9-9.3 4.3-27.3 4.9-37.9 3.8-61-29.8-136-65.2-184.8-8.8-12.1-24.5-26.6-30.7-39.3-1-2.1-7.2-18.7-7-19.7.2-1.1 5.7-4.9 6.9-5.2 2-.5 12.8 7.7 15.7 9.4 30.1 17.6 70.1 41 93.8 66.2s51.7 62.1 64.7 92.3c5.3 12.5 4 11.2 3.8 24.1-.7 40.9 1.3 80.7 10.5 120.5 1.7 7.1 5.7 25.4 9 31 .8 1.3 7.7 9.2 8.9 10.1.9.6 1.4 1.7 2.6.5l24.2-44.3zm-292.1-82.3c3.4 2.2 5.5-3.1 7-4.3 12.8-10.8 63.5-.9 80.3 1.4 11.5-4.6 6.5-11.6-1.7-16.2-12.2-6.9-36.4-10.5-50.1-8.7-5 .7-31.9 10.7-35.1 13.9-2.2 2.2-1.9 12.9-.4 14q0-.1 0 0ZM419 503c-11.1 4.8-24.2.2-36 1l13 60 40-2zm5.8 70.2c-3.2-3.1-24.7-.7-30.1 0-9.5 1.1-25.8 3.3-33.8 8.2-5.4 3.3-19.9 21.7-21.4 27.6-2.8 10.8 1.6 22.4 14.5 20-1.1-8-2.6-17.2 2.2-24.3 8.9-13.2 46.4-4.8 62.3-16.7 3.8-2.8 11.1-10.1 6.3-14.8M450 595l-39.9 13.4c11.9 17 20.5 35.9 31.6 53.4 42.6 67.4 95.1 111.3 170.2 139.8 14.3 5.5 29.5 7.7 44 12.5 5.5 13.5 10.9 27.2 17 40.5 9.5 20.5 22.4 32.9 37.7 49.3 17.6 18.9 38.6 41.2 58.5 57.5 1 .8 7.3 6.2 8 5.5-3.9-10.9-5.5-27.1-10.2-37.3-2.9-6.1-17-20.7-22.2-27.8-24.6-34-42.1-71-63.4-106.6-13.9-23.2-19.7-24.2-44.7-33.3-22-8.1-50.6-11.8-70.2-19.8-11-4.5-43.7-25.5-52.2-33.8-7.1-6.9-18.4-25.8-24.1-34.9-15.6-24.8-29.5-51.1-40-78.5h-.1Zm-45 42c-3-8.1-6.1-16.4-11-23.6-2.7.8-19.3 4.8-20 5.6-.3.4 0 2.3.5 3 .8 1.3 24 13.2 26.8 14.2 1.2.5 2.3 1.1 3.7.8" class="shading" data-original-prefix="shading" opacity=".2"/><path id="outline-ear-lft2" class="outline"  fill="#000" d="M671 548c1 1.1-8.8 24.7-9.5 28.9-3.2 18.8 9 75.7 17.4 93.7 8.3 17.9 19.9 26.5 31 41 35 45.5 53.4 108.2 84.2 156.9 4.4 7 27 36 27.8 40.2 1.2 5.8 2 19.4 2.3 25.8 0 1.9.2 3.7-.6 5.5-1.3 3.1-26.2 24.3-28.5 22 .6-4.8 4.2-9.9 4.9-14.6 4.5-32.7-34.7-99.9-51.7-129.1-19.1-32.7-44.8-69.8-70.1-97.9-2.4-2.7-12.2-10.8-13.1-12.2-2.1-3.5-.6-16.6-1-21.8-1-12.8-10.5-52.4-18-62-10.4-13.3-23.7 7.8-28.2 16.8-11.9 24-9.9 50.3-.3 74.7 2.7 6.9 6.7 13.2 9.5 20-2.9 0-5.5-1.3-8-2.5-17.1-8-40.7-23.6-55.4-35.6-4.2-3.4-15.7-12.9-18.4-16.6-3-4-9.1-42.7-11.4-51.6-8.6-32.6-20.5-64.9-41.6-91.5-.3-1.7 5.1-9.4 6.3-12.3 14.5-33.8 3.2-89.9-11.3-122.7-23.4-53-61.8-94-110.7-124.3l-22.5-39c3.3-3.1 26 18.4 29.7 20.8 6 4.1 14.7 6.7 20.3 10.7 9.2 6.5 21.7 22 30.5 30.5 33.1 32 57.7 54.3 80 96 4.4 8.1 20.6 40.5 21.3 47.8.7 7.6-5.5 27.2-6.7 35.9-7.6 53.4 0 102.9 25.7 150.1 5.5 10 23 36.2 36.2 23.9 4.9-4.5 9.1-31.2 11.5-39.5 2-7.1 8.6-30 12-35 3.1-4.5 28.4-18.6 34.8-22.2 2.3-1.3 20.8-11.7 21.7-10.8z" class="outline" data-original-prefix="outline"/><path id="outline-ear-lft1" class="outline"  fill="#000" d="M846 940c15.1-16.5 31.1-43.1 27.9-66.4-6.7-13.7-9.4-29.6-15.7-43.3-5.9-12.9-15.5-26.6-22-40-10.6-21.5-23.7-48.6-32.3-70.7-9.2-23.4-7.5-61.4-9.8-87.2-1-11-2.9-22-4-33-2.3-24.6-2.1-67.2-15.6-87.4-14.6-21.8-37.5-48.9-54.5-69.5-41.4-50.3-82.8-86.1-137.5-121.6-42.3-27.4-87.4-55.5-131.9-79.1-38.8-20.7-78.7-40.2-120.7-53.8-3 38.2.9 78.6 8.3 116.2 3.3 16.9 7.6 19.5 14.6 33.4C367 366.1 372 402 378.4 433c1.5 4.2 10.7 6.3 14.6 8.4 13.7 7.3 26.9 14.3 34.4 28.6 6 11.4 4.6 18.9-3.4 28.5-12.5 14.9-22.7 12.7-40 7.5-1.6 1.8 9.7 42.2 12 47.5 20.4.6 40.3.8 51.9 20.1 6.5 10.9 4.8 15.8-1.8 25.8-7 10.7-14.9 15.8-28 16.5-1.5 1.5 7 17.2 8.5 20 24.3 45.7 71.1 106.9 114.2 135.8 26.6 17.9 62 31.7 86.6 51.4 7.8 6.3 4.2 5.9 6.1 13.9 12 50.8 60 106.1 105.3 130.7 23.2 12.6 44 11.2 68.3 1.2-1 4.5-8.9 7.6-13 9.5-19.5 8.8-52 23.1-72.4 12.4-3.2-1.7-21.8-20.6-26.2-24.8-8.6-8.3-15.6-17.1-25-25-10.3-8.7-24.4-15.4-30-28-10.2-23.4-16-42.1-31.1-63.9-13.3-19.2-23.3-19.4-42.1-29.9-55.3-31-107.1-75.3-138.5-131-19.2-.6-39.2-1.6-58-5.5-27.5-5.8-33.9-14.5-44.3-39.7-8.6-21.1-13.7-31.3-2.7-52.6 9-17.5 20.9-37 43.2-36.3l-2.1-10.9c-21.9-2.3-55.5-6.5-70.9-23.6-10.3-11.5-13-21.7-12.1-37 1.1-18.1 4.6-21.7 19.4-30.6 10-6 25.4-14.6 36-19 6.2-2.6 12.7-5.4 19.7-4.8 2-2-10.8-49.6-13.2-55.3-4.6-10.8-15.9-20.4-20-29-3.4-7.1-5.9-31.4-6.8-40.2-3.1-33.1-7.5-84.8-2.9-116.9.4-2.5 3.3-15.8 4.5-16.7 1.7-1.2 4.6-.9 6.6-.7 27.9 2.6 74.9 22.3 102 33 67.9 26.9 154.8 70.8 212.1 115.9 12 9.5 25.4 25.3 36.2 36.8 46.7 50.2 88 104.7 126.9 161.1 8.9 76.2 3.1 178.6 48.8 244.2 2.9 4.1 7.4 7.9 10 12 7.1 11.1 12.9 32 19 45 4.2 9.2 9.1 18.3 13.7 27.3 1.4 2.7 6.4 9.3 7 11 .8 2.6 2.6 22.5 2 24.6-10.1 12.6-17.6 27.8-27.4 40.6-7.7 10-14.2 13.1-25.3 18.7-1.2.6-3.1 2.7-4.1.4zM360 523c-1.1-2.7-1.7-10.3-3.5-12-3.5-3.4-31.6-5.5-18.6-19.5 9.8-10.5 31.3-5.4 44.1-3 4.5.9 19.7 5.8 22.2 5.4 6.7-1.1 11.5-9.6 10.5-16.1-1.5-10-18.9-17-27.6-19.5-23-6.5-38.7-3.7-60.2 5.2-12.2 5.1-20.9 7.2-22.1 21.9-1.4 17.4 1 21.7 16.7 28.4 5.1 2.2 35.1 11.9 38.4 9.1h.1Zm44.9 120.2c-1-.6-4.4 0-6.2-.3-6.6-1.2-18.3-4.3-23.1-8.9-5.9-5.6-11.3-18.5-3.9-24.9 6.2-5.3 28.5-6.5 37.5-8.5 6-1.3 21-4.1 23.7-9.3 5.1-10-5.8-20.4-15.4-20.4s-39.1 3.4-51.3 7.7c-8.6 3.1-25.8 23-27.1 31.8-1.7 11 9.6 35.6 19.2 41.6 12.1 7.5 41.8 11.8 56 11.5.6 0 2.8-.6 2.6-1.1-2.8-2-11.1-18.7-12.1-19.3h.1zM396 628c-1.1-6.4-1-9.6-8.2-8.7-13.6 1.6 1.6 10.2 8.2 8.7" class="outline" data-original-prefix="outline"/></g><g id="07_Head" data-trait="hatflip"><path id="fill-head1" class="fill"  fill="#fff" d="M1015.8 692.3c17.2-1 48.3 1.2 61.7 12.7 4.2 3.6 8.9 11.7 13.5 13.5 15.1 5.8 38.7 9.2 55.2 13.8 53.3 14.7 86.1 28.6 131.1 60.9 17 12.2 61.4 45 69.9 62.1 19.5 39.4 19.8 89.2 32 131 .4 1.3 14.8 17.5 17.2 20.8 8.7 11.8 19.4 27.3 25.4 40.6 6.3 13.9 7.3 17.3.8 31.6-7.1 15.7-16.5 30.6-23.9 46.1-3.1 6.5-6.5 22-12.9 26.1-2.5 1.6-22.9 3.8-27.6 4.4-131 17-262.2 15.9-393.8 15.1-95.9-.6-187.7-3.1-282.9-16.1-4.1-.6-17.8-2-20.1-3.9-6.2-5.1-9.2-18.2-12.7-25.3-7.5-15.5-16.7-30.6-23.7-46.3-5.8-12.8-5.4-17 0-29.7 5.9-13.7 17.5-30.4 26.4-42.6 2.4-3.3 16.8-19.5 17.2-20.8 12.2-41.8 12.5-91.6 32-131 9-18.2 59.1-54.8 77.5-67.5 42.1-29.3 74.2-41.9 123.5-55.5 16.5-4.6 40.2-8 55.2-13.8 4.6-1.8 9.3-9.9 13.5-13.5 11.1-9.4 31.3-11.9 45.5-12.7" class="fill" data-original-prefix="fill"/><path id="outline-shading-head4" class="outline"  fill="#000" d="M680.2 1154.8c-11.8-20.5-19.7-42.5-22.2-66.3-2.9-27.3 1.6-42.6 22.5-60.5 45.7-39.1 168.8-59.5 229.1-68.9 41.3-6.4 83.1-13.2 124.9-12.1 55.6 1.4 127.5 14.6 182.7 26.3 45.7 9.7 143.2 30.8 167 74 14.6 26.5 1.2 79.2-14.6 103.7-4.9 7.6-6.3 4.2-14 5-46.9 5-93.7 10.8-141 13-8.2.4-19.8-1.5-26.9-.8-59.9 6-121.9 1.4-182.1 2.7-106 2.3-207.6-3.2-313-15-3.3-.2-10.1 1-12.4-1.1" class="shading" data-original-prefix="shading" opacity=".2"/><path id="outline-shading-head3" class="outline"  fill="#000" d="M1375.8 968.2c2.3 2.4 2.8 15.2 4.5 19s8.9 8.9 10.7 13.3c.2.7-.8.6-1.5.5-4.4-.7-16.1-9.2-21.3-11.7-24.3-11.7-55.1-19.4-81-28-3.9-1.3-7.8-3.9-12.2-4.8-39-8.8-74.9-27-114.9-32.1L1121 918c17.8.3 35.7 1.2 53.4 3.1 53.1 5.6 113.3 18.9 164.4 34.6 4.6 1.5 35.6 11.1 37 12.5" class="shading" data-original-prefix="shading" opacity=".2"/><path id="outline-shading-head2" class="outline"  fill="#000" d="m926 918-83.2 15c-10.4 8.1-27.2 10.9-40.3 14.9-37.6 11.7-89.3 24.8-124.2 41.8-6.9 3.4-13.7 9.6-21.3 11.2 1.4-4.8 8.5-9.4 10.4-13.1 2.1-4 2.3-17.2 4.8-19.7.9-.9 20.8-7.5 24-8.5 23.7-7.8 49.4-14.7 73.8-20.2 50.9-11.5 103.6-20.4 156-21.4" class="shading" data-original-prefix="shading" opacity=".2"/><path id="outline-shading-head1" class="outline"  fill="#000" d="M982 713c.6.7 15.2 2.7 17.5 3 6.2.8 16 1.9 22 2 5 .1 43-3.4 44.5-5 .5-.5-1.8-5.4-.3-8.8 4.2-8.9 18.7 3 12.7 13.7-5.7 10-23.8 10.6-33.9 10.1-6.2-.3-14.3-2.8-20.1-2.9-6.3-.1-15.1 2.6-21.8 2.9-11 .5-36.7-1.1-34.3-17.3.7-5 6.3-11.5 11.5-9 5.8 2.8 1.6 10.6 2.2 11.3" class="shading" data-original-prefix="shading" opacity=".2"/><path id="outline-head37" class="outline"  fill="#000" d="M1092.3 711.7c46.7 13 97.5 22.1 140.7 44.8 30.2 15.8 92.2 59.8 113.5 85.5 17.8 21.5 24.6 77.7 31 106 2.3 10.3 4.8 25.9 7.7 35.3.3 1.1 10.2 11.3 12.2 13.8 8.8 11.2 33.8 46.7 35.5 59.5 3.1 22.6-18.2 52.2-28.1 72.7-2.5 5.1-4.1 12.5-6.6 17.4-.6 1.2-6.8 9.5-7.5 10-2.5 1.9-10.8 2.6-14.4 3.2-70.5 11.2-144.5 14.5-215.9 16.1-157.1 3.4-326.5 6.8-481.8-15.1-4.8-.7-18.4-2-21.6-4.4-7.6-5.8-10-19.1-13.9-27.1-9.9-20.4-31.2-50.2-28.1-72.7 2.7-19.4 34.7-57.8 47.7-73.3 11.8-40.8 13.7-92.8 32-131 8.5-17.5 45.7-45.4 62.3-57.7 52.7-39.4 90.2-54.4 153.5-71.5 10.6-2.9 36-6.7 44.2-10.8 2.1-1.1 10.8-12.1 14.2-14.8 18-14.4 85.2-13.8 105.3-3.3 6.5 3.2 13.4 11.9 18.1 17.4M1073 717c-1.3-2.7-4.7-3.9-7.3-5.2-21.1-10-53.5-10.2-75.5-3.1-4.9 1.6-12.1 4.1-15.2 8.3zm225 234c-8.1-32.1-17.3-71.1-38-97.5-35-44.6-125.2-92.7-178-114-53.5-21.6-77.2-16.9-128.7 5.3-51.6 22.3-150.2 75.3-176.5 125.5-12.6 24.1-20.2 53.8-26.8 80.2l36.6-10.4c58.8-17 116.9-23.3 177.9-25.1 74.8-2.2 151.8-3.4 225.7 9.3 36.5 6.3 72.5 15.6 107.8 26.7M958 731c-23.9 2.4-48.8 10.7-71.2 19.2-46.4 17.7-113.1 54.8-149.8 88.2-18.3 16.7-24.4 34.5-32.7 57.3-9 24.7-13 53.4-18.2 79.2l49.7-19.3c6.6-31.8 14.3-64.6 32.5-92 28.6-43.3 74.3-69.3 118.1-94.9zm404 244c-5.2-25.8-9.2-54.5-18.2-79.2-8.3-22.8-14.4-40.6-32.7-57.3-36.7-33.4-103.3-70.5-149.8-88.2-22.5-8.6-47.3-16.9-71.2-19.2l28 15.5c63.7 33.4 142.5 70 173.9 139.1 10.2 22.4 15.3 46.5 20.7 70.3zm-362.2-50.7c-95 1.8-192.3 14.6-277.8 57.2-26 13-52 25.4-71.5 47.5-5 5.7-19.7 24.7-20.2 31.6s10.1 29.4 13.5 37.1c7 15.8 14.9 31.3 23.9 46.1 36.8 6.8 74.4 8.3 111.8 11.2 55.2 4.3 110.6 8.5 166 10 108.5 3 215.1-1.5 323.1-10 37.6-3 75.5-4.3 112.4-11.6 5-10.2 10.9-19.9 15.9-30.1s19.4-40 20.1-49.9c.5-7.2-3.2-12.2-7-18-11-17.2-27.9-33.2-45.4-43.6-110.6-66.2-237.7-80-364.8-77.5" class="outline" data-original-prefix="outline"/><path id="outline-head36" class="outline"  fill="#000" d="m822.9 974.1 1 8.9-38.5 10.1c-3.4 1-7-7.8-4.9-9.2z" class="outline" data-original-prefix="outline"/><path id="outline-head35" class="outline"  fill="#000" d="M1268 984c-1.2 5.2-1 9.7-7.2 8.8-11.4-1.6-24.7-8.8-36.7-9.8v-9z" class="outline" data-original-prefix="outline"/><path id="outline-head34" class="outline"  fill="#000" d="M1284 1000c-1.1-1.3 3-10 3.5-10l41.4 16.5c-13.1 11.5-30.1-5.3-44.9-6.5" class="outline" data-original-prefix="outline"/><path id="outline-head33" class="outline"  fill="#000" d="M761 990c.4.3 3.8 9 3 10l-32.5 11c-4.6.7-8.9-1.7-12.4-4.5 4.7-2.5 40.1-17.8 41.9-16.5" class="outline" data-original-prefix="outline"/><path id="outline-head32" class="outline"  fill="#000" d="M1383 1051c.3 6.9 1.4 13.6 1.1 20.6-.1 2.2-.7 9.2-1.2 10.8-.7 2.2-8.4 2.5-10.9 2.6 1-10.5 1-20-1.1-30.4 4-1.3 7.6-4.2 12.1-3.6" class="outline" data-original-prefix="outline"/><path id="outline-head31" class="outline"  fill="#000" d="M676 1085c-11-.3-11.3-1.1-12-11.5-.5-7.8.4-15.8 1-23.5 2.4.7 11.3 3.6 11.9 5.7-2.3 9.9-2 19.2-.9 29.3" class="outline" data-original-prefix="outline"/><path id="outline-head30" class="outline"  fill="#000" d="M1379 1104c1.1 1-7.9 27.1-8.9 28.3-1.7 2-8.3 2.3-11.1 2.7l8.2-28.8c3.7-1.5 7.7-2.5 11.8-2.2" class="outline" data-original-prefix="outline"/><path id="outline-head29" class="outline"  fill="#000" d="M689 1135c-3-.4-9.7-.7-11.5-3-.9-1.2-9.6-27-8.5-27.9 2.9.2 9.2.4 11.1 2.4.9 1 7.6 21.6 8.4 24.6.4 1.2.7 2.5.5 3.9" class="outline" data-original-prefix="outline"/><path id="outline-head28" class="outline"  fill="#000" d="M1255 1013c.3.3-2.8 7.6-3.2 7.8-2.6 1.7-24-7.4-28.9-7.3-1.9-1.4-.7-6.2-1-8.5 2.5-2.4 28.2 7.7 33.1 8" class="outline" data-original-prefix="outline"/><path id="outline-head27" class="outline"  fill="#000" d="M826 1005c-.4 1.9.6 6.6-.2 7.9-.6 1-19.1 5.9-21.9 6.6-7 1.8-8.5 3.2-10.8-5.2-.5-1.8 0-1.1 1.1-1.6 3.6-1.5 30.3-9.2 31.8-7.7" class="outline" data-original-prefix="outline"/><path id="outline-head26" class="outline"  fill="#000" d="M1014 949v9c-9.6-.3-19.2 1.4-28.8 1.8-3.3.2-3.2-8.8-.6-9.7z" class="outline" data-original-prefix="outline"/><polygon id="outline-head25" class="outline"  points="1064,950 1064,960 1034,958 1034,949"/><path id="outline-head24" class="outline"  fill="#000" d="M1112 954c.4.4-.3 8.3 0 10-4-1.6-27.6-1.7-28.9-3-.5-.5.2-7.3-.1-9z" class="outline" data-original-prefix="outline"/><path id="outline-head23" class="outline"  fill="#000" d="M965 952c-.3 1.6.4 8.6 0 9-1.3 1.2-25.2 1.3-29 3v-10z" class="outline" data-original-prefix="outline"/><path id="outline-head22" class="outline"  fill="#000" d="M917 957c-.3 2.2.9 7.3-1 8.5-3.4 2.4-22.7 2.3-28 4.4-.8-.5-1.5-8.5-1-9 1.1-.9 26.2-3.2 30-3.9" class="outline" data-original-prefix="outline"/><path id="outline-head21" class="outline"  fill="#000" d="M1160 970c-5.3-2.2-24.6-2.1-28-4.5-1.8-1.3-.7-6.3-1-8.5 4.3.3 29.2 3 29.9 5.6.3 1.1-1.7 5.4-.9 7.4" class="outline" data-original-prefix="outline"/><path id="outline-head20" class="outline"  fill="#000" d="M735 1141c-2.8-.8-8.2-.4-10.1-2.4-1.6-1.7-8.9-24.7-7.9-25.6 2.9 0 7.5-.6 9.5 2z" class="outline" data-original-prefix="outline"/><path id="outline-head19" class="outline"  fill="#000" d="M1331 1113c1 .9-7.1 24.8-8.5 26-1.8 1.6-7 1.2-9.5 2l8.2-26.8z" class="outline" data-original-prefix="outline"/><path id="outline-head18" class="outline"  fill="#000" d="M705 1021c.9 1.2-.9 2.2-1.7 2.8-3.8 3-9.3 5.3-13.4 8.6-1.4 1.1-3.2 4.5-3.7 4.6-1.3.3-10-2.7-10.3-3.1-2.2-3.2 14.8-14.7 17.9-15.5 2.3-.6 10.5 1.6 11.2 2.6" class="outline" data-original-prefix="outline"/><path id="outline-head17" class="outline"  fill="#000" d="M1372 1034c-.3.4-9.4 3.3-10.3 3.1-.5-.1-2.3-3.5-3.7-4.6-4.1-3.3-9.5-5.7-13.4-8.6-.8-.6-2.6-1.6-1.7-2.8.7-1 8.9-3.2 11-2.6 3.2.8 20.3 12.3 18.1 15.5" class="outline" data-original-prefix="outline"/><path id="outline-head16" class="outline"  fill="#000" d="M1113 983c.4.4-.2 6.5 0 8-3.9-.7-29.6-1.8-30.1-3.6s.4-5.2.1-7.4c3.8.4 28.9 2 30 3" class="outline" data-original-prefix="outline"/><path id="outline-head15" class="outline"  fill="#000" d="M965 980c-.3 1.7.5 7.1-.1 7.9-1.1 1.2-26 2.3-29.9 3.1.2-1.5-.4-7.6 0-8 1.1-1 26.2-2.6 30-3" class="outline" data-original-prefix="outline"/><path id="outline-head14" class="outline"  fill="#000" d="M1035 985c-.3-.3.1-6.4-1-8l30.1 1.4c1.6 1.1 1.6 7.8-.7 8.5-3.7-1.7-27.4-.9-28.4-1.9" class="outline" data-original-prefix="outline"/><path id="outline-head13" class="outline"  fill="#000" d="M1013 977v8l-27.5 2c-3.6-.1-3.4-8.1-.8-8.9z" class="outline" data-original-prefix="outline"/><path id="outline-head12" class="outline"  fill="#000" d="M1205 978c-4.2-1.5-22.7-2.8-25.1-4.5-1.8-1.2-.8-7.8.2-8.5s23.9 3.7 24.9 4.4c1.9 1.2-.8 6.1 0 8.6" class="outline" data-original-prefix="outline"/><path id="outline-head11" class="outline"  fill="#000" d="M1326 1094v-18.5c0-.3-1.1-1.1-.9-1.9.3-1.6 10.9-6.2 10.9-3.1v18c0 5.3-6.4 4.5-10 5.5" class="outline" data-original-prefix="outline"/><path id="outline-head10" class="outline"  fill="#000" d="M868 965v9l-25 4c.5-2.5-2.4-6.9 0-8.5 3.1-2.2 20.2-2.9 25-4.5" class="outline" data-original-prefix="outline"/><path id="outline-head9" class="outline"  fill="#000" d="M722 1072v22c-2.8-.8-10-.6-10-4.5V1070z" class="outline" data-original-prefix="outline"/><path id="outline-head8" class="outline"  fill="#000" d="M1160 998c-3.6-1-27-3-27.9-4-.5-.5.2-6.4-.1-8l27.1 4.4c1.6 1.2.7 5.6.9 7.6" class="outline" data-original-prefix="outline"/><path id="outline-head7" class="outline"  fill="#000" d="M916 986c-.2 2.9 1.1 6.1-1.7 7.8-3.7 2.3-20.9 2.5-26.3 4.2.2-2.1-.8-6.3 1-7.5 1.1-.8 26-5.5 27-4.5" class="outline" data-original-prefix="outline"/><path id="outline-head6" class="outline"  fill="#000" d="M869 995c-.3 1.8.8 6.2-.6 7.1-1.2.8-22.4 5.6-23.3 4.8-.2-2.2-2.3-5.8-.1-7.4 1-.7 23.1-5.4 24-4.5" class="outline" data-original-prefix="outline"/><path id="outline-head5" class="outline"  fill="#000" d="M1202.9 999c.5.5-.2 6.4.1 8-3-.2-23.2-4.1-23.9-5.1-.7-1.1.2-5.2-.1-6.9 3.1.4 23.1 3.2 23.9 4" class="outline" data-original-prefix="outline"/><path id="outline-head4" class="outline"  fill="#000" d="M1327 1052c-10.6 4.5-7.6 2.3-14.5-3-1.6-1.2-10.6-6.5-9.5-8 .6-.8 7.1-3.2 9-2.6 2.6.8 16.5 11.5 15 13.6" class="outline" data-original-prefix="outline"/><path id="outline-head3" class="outline"  fill="#000" d="M745 1041c.6 2.3-.5 1.6-1.3 2.3-2.1 1.7-5 3-7.2 4.7-1.7 1.3-5.9 6.6-7.2 6.8-1.6.3-6-3.1-8.3-2.8-1.5-2.1 12.5-12.9 15-13.6 3.6-1 5.5 2.2 9 2.6" class="outline" data-original-prefix="outline"/><path id="outline-head2" class="outline"  fill="#000" d="M1289 1026c1.6 1.5-.5 1.7-1.3 2.2-5.8 3.8-9.8 4.1-16 .6-3.3-1.9-.2-7.8 1.8-7.9.9-.1 14.9 4.5 15.5 5.1" class="outline" data-original-prefix="outline"/><path id="outline-head1" class="outline"  fill="#000" d="M759 1028c-1.7-1.8.6-1.7 1.4-2.1 6.4-3.2 16.2-8.8 17.5 1.5-.2.8-9.5 4.6-10.5 4.5-.4.1-8.1-3.6-8.4-3.9" class="outline" data-original-prefix="outline"/></g></svg>