<?xml version="1.0" encoding="UTF-8"?>
<?xml-stylesheet type="text/css" href="styles/collection.css"?>
<svg xmlns="http://www.w3.org/2000/svg" viewBox="0 0 2048 2048"><g id="01_background" data-trait="green"><path id="color-green" fill="#32992c" d="M2048 0v2048H0V0z" data-original-style="transition:fill .3s ease" style="transition:fill .3s ease"/></g><g id="02_Jaw" data-trait="robo"><path id="fill-jaw-robo1" class="fill"  fill="#fff" d="M1369.9 1062.1c.4.5 1 11.1 1.4 13.1 11.6 61.7 25.9 123 37.2 184.8 16.2 20.3 35.3 38.1 51.5 58.4l-70.1 149.9-2.3 1.6-31.6-1.9-7.8 59.7-101.2 128.8c-1.6 1.1-2.6-.6-3.6-1.6-11.2-11.1-20.8-28.6-32-40-1.3-1.3-2.6-3.5-4.8-2.9-3.4.9-32.4 51.8-38.3 57.8-25.8 9.8-49.6 24-74.7 35.3-8.9 4-63.2 23-65.1 25.9-.6 1-.4 2.8-.6 2.9-.2.2-3.1-.9-4.4-.9s-3.2 1.3-3.6.9c-.3-.3.7-2.4-2.3-4.2-13.4-8.1-38.6-14-54.4-20.6-28.2-11.8-54.4-28.3-83.3-38.7-6.3-5.8-35.3-57.4-38.7-58.4-2.2-.7-4.5 2.4-5.9 3.9-11.6 12.1-21.3 28.8-33.1 41l-1.9-.9-100.9-128.1c-3.2-19.9-5.4-39.9-7.5-60l-31.6 1.9-2.5-1.4-69.8-149.3c-.3-1.9 4.6-7.3 6.3-9.3 14.5-16.8 30.7-32.1 44.6-49.4 10.6-62 27.2-123.3 37.7-185.3.5-3.2-.7-11.9 2-13.3 104.8-21.7 209.7-42.7 314.5-64.3 7.3-1.5 24.9-7.3 30.5-7.5 4.2 0 24.8 6.2 31.1 7.5 105 21.6 210.1 42.9 315.1 64.4v.2z" class="fill" data-original-prefix="fill"/><path id="outline-shading-jaw-main" class="outline"  fill="#000" d="m1369.9 1062.1 28.1 145.4c-4.8-.6-19.2-17.4-22.3-16.4-3.4 1-21.1 37.8-20.7 42.4 12.3 15.8 24.8 31.6 35.4 48.6 3.7 5.9 15.5 24.5 15.6 30.5 0 4.7-10.7 25-13.5 30.5-4.5 8.7-9.8 16.9-14.5 25.5 17.3-8 33.9-18.4 49.3-29.7 4.1-3 10.3-7 13.7-10.3 2.3-2.2 12.4-16.5 13.5-16.5l5.5 6.4-65.1 139.9-6.5 11.5-32.3-1.9-7.8 59.7-101.2 128.8c-1.6 1.1-2.6-.6-3.6-1.6-11.1-11.1-20.8-29.2-31.9-40-.8-.8-1.6-2.1-2.9-1.9-7.3 1.3-32.3 48.3-39.7 55.4-30.9 14.9-60.7 32.4-91.6 47.4-12.8 6.2-33.2 17.2-46.8 18.2-23.7 1.7-37.4-7.3-57.9-17.2-31.4-15.1-61.6-32.8-93-48-8.2-6.6-32.8-54.4-40.3-55.8-2.8-.5-31.3 38.2-35.8 43-1 1.2-2 1.2-3.1 0l-100.9-128.1-7.5-60-31.6 1.9-2.5-1.4-69.8-149.3c-.3-3.1 3.7-7.8 6.8-5.8 1.9 1.2 8.8 11.9 11.5 14.6 2.9 2.9 7.8 6.2 11.2 8.8 4.5 3.4 49.2 33.3 51.3 31.2-7.3-15.4-17.3-29.8-23.8-45.6-1.2-2.9-3.2-6.7-3.2-9.9 0-5.3 10.4-22 13.7-27.4 11-18.2 24.3-34.9 37.4-51.6-4.2-15.2-12-29-20.1-42.3-.9-.5-2 0-2.9.4-6.3 3.4-12.9 13.3-20 16.5l28.1-145.9 45.8-9.7c48.2-55 116.4-93.5 184.8-118.2 72.2-26 130.6-31.5 205-8.5 77.7 24 155.9 65.5 210.3 126.7zM854 1330c-21-6.7-43.3-4.3-64.4-11.1-14-4.5-30.8-14.7-42.9-23.1-18.1-12.6-35.7-28.4-49.2-45.8-10.7 14.6-22.1 30.4-30.7 46.3-4.3 8-11.3 21.1-7.7 30.1l27.1 48.4c6.1 1.6 17.5-4.7 22.8-2.3 1.5.7 2.4 3.5 4.5 3.5s4.4-5.1 7-5.1 3.4 4.4 7 4.1 5.2-6.6 7.2-7c.5 0 8.2 2.7 8.6 2.9 4.7 2.4.3 18-3.2 21.4.3 1.5 14.2 9.3 16.4 9.6 2.9.5.2-2.4 1-4.9s6.5-6.3 8.8-5.9c5.4.9 6.3 10.2 14.7.3 1.9-2.2 0-4.1 4.5-4.6 8.5-1 5 8.4 7 14.1 12.4-17.2 20.2-37.4 32.1-54.9l29.4-16.1Zm507.8 44.8c8.8-17.7 20.1-34.4 28.2-52.3-.4-8.9-2.9-14.5-6.9-22.2-8.9-17.4-21.4-34.4-32.7-50.3-21.1 25.5-52 52.2-82.8 65.2-24.8 10.4-48.4 7.8-73.7 14.8l29.7 16.3c11.6 17.6 19.4 37.7 31.8 54.7.9-1.8 1-13.5 1.5-14s7.3-.2 7.8.2c1 .6 1.6 7.8 6.9 8.7 6.3 1.1 7.7-7.8 15.4-2.8 2.7 1.8 3.1 6 2.8 8.9 1.2 1.4 17.7-8.3 18-9.6.2-1-3.9-5.8-4.6-8.4-2.2-9.5-1.5-13.7 8.4-14.8 5.3-.6 2.8 2.2 5.5 4.5 4.6 4 7.8-2.7 10-2.6 2.7.2 5 4.9 7.2 4.9s3-2.8 4.5-3.5c5.2-2.4 16.6 3.8 22.8 2.3zM1078 1327c-5.5-11.1-10.5-24.8-17.6-34.9-4.2-6.1-10.2-10.5-14.9-16.1-3.4-4-15.2-20.5-18.4-21.6-1.9-.6-4.4-.8-6.3-.2-2.4.7-15.7 18.7-18.7 22.3s-7.4 6.8-10.5 10.5c-9.4 11.2-15.1 26.9-21.5 40h108Zm-353.8 172.8c24.8 5.4 50.2 7.7 75 13.6 17.3 4.1 20.3 3.6 29.6 19.4 5.3 8.9 9.2 18.7 14.2 27.8l17 14-29.2-80.8c-2.4-5.8-8-8-13.1-10.9-22.2-12.9-51.7-27.2-75.7-36.3-2.6-1-8.1-3.8-10.4-3.5-1 0-15.6 9.5-16.3 10.3-6.3 7.6 6.8 37.2 8.9 46.5Zm599.6 0c2.5-10.6 8.2-22.1 9.8-32.7.8-5.7 1.7-10.9-3-15.1-1.1-1-13.2-8.9-14-9-2.5-.3-19.4 7.2-23.2 8.8-20.7 8.8-45.7 20.5-65 32-5.6 3.4-8.8 4.9-11.8 11.2l-28.5 80 16.4-14.1c7.1-10.9 14.9-35.4 25.9-42.1 6.1-3.8 19.9-5.9 27.5-7.5 21.8-4.6 44.2-6.7 66-11.5zM908.5 1649v1c.7-.3.7-.7 0-1m229.5 1c-31 8.8-60.6 26.8-91 36.5-19.3 6.2-28.3 5.9-47.5-.4-28.3-9.3-56.5-25.5-85-35.1-1.2-.4-3.6-1.8-4.5-.5.8 2.1 2.7 4.2 4 6 4.9 6.3 18 23.3 23.5 27.5 7.2 5.5 27.9 14.6 37.1 18.9 5 2.3 20.9 10.5 24.9 11.1 9 1.4 36.3 1 46 0 7-.6 57.7-24.6 64.4-29.6 5.3-3.9 18.2-20.8 23-27 .8-1 5.8-6.8 5-7.5Z" class="shading" data-original-prefix="shading" opacity=".2"/><path id="outline-jaw" class="outline"  fill="#000" d="M670 1105c2 .2 9.2 3.6 9.8 5.7 1 3.3-1.3 18.1-2 22.7-6 41.8-19.7 84.1-28.6 125.4-12.3 18.3-29.3 33.5-43.8 50.2-1.2 1.3-6.5 7.5-6.5 8.5l56 135.5c1.5.4 1.7-.4 2.5-1 7.1-4.9 23.9-23.3 30.5-30.5 1.5-1.6 9.9-11.2 10-12-17.6-32.9-42.5-63.1-49.8-100.8 17.2-28.9 35.3-57.4 56.9-83.2 6.2-7.4 21.8-27.5 32-26.1 4.7.6 8.6 4.8 6.4 9.5-23 21-44.9 44.7-62.7 70.3-3.2 4.6-15.2 22.2-15.6 26.5-.5 5.1 11.8 29.8 15 35.6 7 12.8 29.4 46.8 40.5 54.5 2.8 1.9 7 3.2 10 5 77.7 46.7 153.2 90.1 243.1 109.9 13.1 2.9 37.4 9.1 49.8 9.2 11.3 0 33.7-5.7 45.6-8.2 92.6-19.7 168.3-62.9 248.1-110.9 3.1-1.8 7.2-3.1 10-5 11.1-7.7 33.4-41.8 40.5-54.5 3.2-5.8 15.5-30.5 15-35.6-.4-3.9-10.7-19.3-13.6-23.5-18.3-27-40.8-51.3-64.7-73.3-2.5-9.2 6.9-10.8 13.8-7.8 10.7 4.6 40.4 44.2 48.5 55.5 11.9 16.7 22.3 34.6 33 52.1-7.3 37.7-32.2 67.9-49.8 100.8 0 .8 8.5 10.4 10 12 6.6 7.2 23.4 25.6 30.5 30.5.8.6 1 1.4 2.5 1l55.8-135.3c-15.4-20.6-35.6-37.7-50.1-58.9-8.6-41-22.6-83.1-28.6-124.4-.7-4.8-3.1-20-1.9-23.7.6-2.1 8-5.5 9.8-5.7 4.6-.4 10.8 5.1 11.9 9.6 8.1 44.1 13.6 92.9 27.6 135.4 9.1 27.6 33.8 39.8 52 60 4.9 5.4 6.6 7.2 4.8 14.8-2.1 8.6-9.2 23.2-12.8 32.2-16.7 41-35.5 81.7-54.5 121.5-2.5 2.1-18.6 9-21.4 8.6-4.6-.7-13.3-13.3-18.5-15-3.1 22.3-7.1 44.7-11.8 66.7-29.2 38.3-55.4 79-82.3 118.7-10.2 4.1-22.2 12.3-32.2 15.8-1.5.5-3 1.3-4.6.7l-24.6-43.9c-1.1.5-16.2 15.9-17.3 17.7-6.5 10.1-3.8 21-14.2 29.8-22.9 19.1-72.2 40.2-100.7 51.3-18.6 7.3-34.3 14.2-54.7 14.3-24 .2-49.5-11.4-71.5-20.6-23.2-9.8-67.3-29.4-85.5-45.5-10.3-9.1-7.3-19.2-13.7-29.3-1.1-1.7-16.2-17.1-17.3-17.7L812 1674c-1.6.6-3.1 0-4.6-.7-10.1-3.5-22-11.7-32.2-15.8-26.9-39.8-53.1-80.4-82.3-118.7-4.7-22-8.6-44.4-11.8-66.7-5.2 1.7-14 14.4-18.5 15-2.8.4-18.9-6.5-21.4-8.6-19-39.8-37.8-80.5-54.5-121.5-3.6-8.9-10.8-23.6-12.8-32.2-1.8-7.6 0-9.4 4.8-14.8 13.4-14.9 37.6-30.5 47.2-47.8 7.3-13.1 12.4-41.8 15.8-57.2 4.5-20.4 8.5-41.2 12.2-61.8 1.5-8.5 1.8-19.4 3.7-27.3 1.2-5 7.2-11.3 12.6-10.9zm664.9 411.9 14.2-77.4c-.2-3.8-5.4-5.5-8.1-8-2.9-2.7-5.4-5.9-8.6-8.3-82.7 31.3-155.3 82.7-242.3 103.3-57 13.5-94.2 11-150.2-4.8-69.9-19.7-131-59.2-197.1-87.9-6-2.6-20.1-9.4-25.7-10.4-2.8-.5-7.7 6-10 8.1-2.1 2-7.6 4.5-8.1 7l14.2 78.3c17.8 1.1 35.6 3.8 53.4 5.1 9.3.7 42.4-.4 47.8 3.9 8.5 20 14.6 41 23.2 61 2.8 6.5 6.2 15.2 9.9 21.1 5.4 8.7 15 14.9 20 23.1 5.6 9.2 8.1 23.6 15.5 31.5 5.1 5.5 21.6 15 28.8 19.2 31 18.4 83.7 44.6 119.8 42.2 30.1-1.9 87.2-31 113.4-47.6 5.2-3.3 16.2-9.8 20.1-13.9 7.2-7.5 10.4-24.2 16.1-32.9 2.7-4.1 8-7.8 11.3-11.7 8.3-9.7 11.9-17.5 16.9-29.1 9-20.6 15.3-42.4 24.2-63 14.6-5 32.2-2.8 47.8-4 17.8-1.3 35.6-4.1 53.4-5.1v.3ZM801 1649c5.8-16.3 16.4-30.6 24.8-45.6-4.3-11.7-7.5-23.9-12-35.6-2.2-5.8-7.4-19.7-10.9-24.1-10.8-13.6-69.6-12.5-86.9-16.6-.5 1.7.7 2 1.5 3 13.4 17.3 27.7 33.6 40.3 51.7 15.2 21.9 28.4 45.1 43.2 67.3Zm531-122c-17.3 4.1-76.1 3-86.9 16.6-3.5 4.4-8.6 18.3-10.9 24.1-4.5 11.7-7.7 23.9-12 35.6 8.4 15.1 18.9 29.3 24.8 45.6 14.7-22.2 27.9-45.4 43.2-67.3 12.6-18.1 26.9-34.3 40.3-51.7.8-1 1.9-1.3 1.5-3Z" class="outline" data-original-prefix="outline"/><path id="outline-jaw1" class="outline"  fill="#000" d="M785.7 1376.3c8.1 7.2 8.5 18.5 4.1 27.9-5.2 10.9-19.3 10.7-26.7 2.3-15.1-17.3 3.6-47 22.7-30.2Zm-12 4.9c-10.7 1.7-7.7 23.9 4.7 21.8 10.2-1.7 4.4-23.3-4.7-21.8" class="outline" data-name="outline-jaw" data-original-prefix="outline"/><path id="outline-jaw2" class="outline"  fill="#000" d="M1262.3 1376.3c22.7-20.1 40.5 23.7 16.9 34.4-21.7 9.8-31.5-21.5-16.9-34.4m10.4 4.9c-10.5 1.7-12.6 25.9 1.3 21.4 10.1-3.2 8.1-22.9-1.3-21.4" class="outline" data-name="outline-jaw" data-original-prefix="outline"/><path id="outline-jaw3" class="outline"  fill="#000" d="M723.7 1356.2c15.6-2.8 28.9 19.5 15.8 29.8-10 7.8-24 0-26.8-11.2-1.8-7.1 3.5-17.2 11-18.6m9.1 22.6c6.5-6.5-8.3-22.1-11.4-7.8-1.5 7.3 7.1 12.1 11.4 7.8" class="outline" data-name="outline-jaw" data-original-prefix="outline"/><path id="outline-jaw4" class="outline"  fill="#000" d="M1317.7 1356.2c14.2-2.9 23 13.6 14.3 25.3-12 16-34.6 4.8-27.5-13.5 1.7-4.3 8.7-10.8 13.2-11.8m-2.5 22.6c4.3 4.3 12.9-.5 11.4-7.8-3-14.3-17.9 1.3-11.4 7.8" class="outline" data-name="outline-jaw" data-original-prefix="outline"/></g><g id="03_Mouth" data-trait="OG"><path id="fill-muzzle" class="fill"  fill="#fff" d="M1125 1622c-3.4-2.3-6.5 6.6-8 8.5-3.7 4.7-17.7 19.6-23.5 19.5-2 0-5.3-4.8-7.8-6.2-7.4-4.3-19.1-5.3-26.8-1.4-4.2 2.2-10.1 9.4-13.4 9.7-7.7.5-10.7-10.3-17-11.2-2.3-.3-9.7-.3-11.5.6-3.2 1.4-8.9 10.8-13.7 11.3-3.1.3-10.3-8.4-13.4-10.2-6.5-3.8-16.5-3-23.5-.6-4.3 1.5-10.5 8-12.8 7.8-5.8-.5-18.9-14.5-22.7-19.3-1.6-2-2.1-4.7-3.5-6.4-5.4-6.8-5.6 3.9-7.6 7.3-9.4 15.7-21-13.3-24.8-18.9-2.4-3.5-7.2-5.7-10-9-9.7-11.6-6.4-27.5-10.3-40.7-1.7-5.8-11.6-19.5-14.9-27.1-10-22.6-12.3-43.5-10.8-68.2-2.4-7.1.4-27.9-4.5-32.5-2.1-2-6.1-2.7-8.5-4.5-5.9-4.5-12.8-32.2-11.9-39.8 1.1-9.4 12.1-25.4 18.4-32.6 12.3-14.3 37.4-24.6 56-26 4.8-.4 28.1 1.1 29.5.5s5.1-5.4 7.1-6.9c8.7-6.5 17-9.5 27.7-11.3 3.7-.6 7.6.4 11-1 3.1-1.3 11.4-13.2 17.3-16.7 10.5-6.1 38.9-5.7 51.5-4.6 5.7.5 13.4 3.6 18 7 3.7 2.8 11.2 13.2 13.8 14.2 3.3 1.4 7.3.4 11 1 8.9 1.5 16.5 3.9 24.1 8.9 2.7 1.8 9.7 8.9 10.7 9.3 1.3.6 23.9-.9 28.5-.6 16.1 1.1 33.8 7.8 46.8 17.2 12.1 8.8 30.2 32.8 28.7 48.3-.4 4.3-7 26.5-9.2 29.8-3.6 5.6-10.6 4.5-13.7 10.3l-3.2 43.8c2 20.7-2.7 38.4-11.1 56.9-3.2 7-11.5 17.9-13.4 23.6-4.4 13-.9 27.8-9.6 40.4-2.9 4.2-8.2 6.2-10.8 10.2-1.6 2.3-2.2 5.7-3.8 8.2-2.8 4.2-10.6 16.7-16.2 14.9-7.1-2.2-6.8-12.8-8-13.6h-.2Z" class="fill" data-original-prefix="fill"/><path id="fill-teeth16" class="fill"  fill="#fff" d="M995.3 1525.7c11 9.5 17.2-6.6 23.2 6.3 6.5 14.1 3.7 38.4-1 52.9-.7 2.1-7.1 16.9-8 17.1-1.2.3-3-.4-4.2-.9-12-5.1-31.7-18.1-39.1-28.9-10.6-15.5-6.4-42.9 6.8-55.8 1.3-1.3 9.1-5.6 10.4-5.3 1.5.3 9.4 12.3 12 14.5h-.1Z" class="fill" data-original-prefix="fill"/><path id="fill-teeth15" class="fill"  fill="#fff" d="M1039.1 1601.9c-.8-.5-7.5-16.1-8.1-18.4-4.1-13.8-6.5-36.9-1.3-50.3 4.6-12 8.1-4.3 15.8-4.2 9.5.2 17.3-18.2 20.8-17.9 1.2 0 8.5 4.2 9.7 5.3 6.3 6.2 12.2 22.3 13 31 2.4 28-20.3 39.6-41.3 50.7-2 1.1-5.7 5.5-8.6 3.7Z" class="fill" data-original-prefix="fill"/><path id="fill-teeth14" class="fill"  fill="#fff" d="M904 1461c0 2.2-1.1 3.8-.8 6.2.2 1.8 7.1 22 8 23.1 3.9 5.1 11.2 3.2 16.7 3.8 4.9 13.5-4.2 23.8-8.6 35.6-2 5.3-8.7 33.1-12.8 34.2-1.8.5-6.8-9.1-8.3-10.7-10.3-23.9-15.3-58.4-2.6-82.2.6-1.2 7.1-11.6 8.4-10.1Z" class="fill" data-original-prefix="fill"/><path id="fill-teeth13" class="fill"  fill="#fff" d="M1144 1564c-2.1 1.4-6.1-7.1-6.8-8.7-3.2-7.9-4.4-17.4-7.5-25.5-4.3-11.6-13.6-22-8.6-35.6 4.8-.6 12.3 1.2 15.9-2.9 1.3-1.5 8.1-20.6 8.6-23.2.3-1.8-1.4-7 .9-6 6 2.7 13.7 26 14.4 32.6 1.4 13.9-2.9 45-9.3 57.4-.8 1.5-7 11.6-7.6 11.9" class="fill" data-original-prefix="fill"/><path id="fill-teeth12" class="fill"  fill="#fff" d="M1093.1 1644.9c-2.9-1.8-2.4-28.5-2.1-33.4.7-10.5 5.2-31.2 8.9-41.1 1.1-2.8 2.4-1.4 4.2 0 12.2 9.6 21.1 44.8 12.8 57.9-1.9 3-15.6 14.9-18.9 16.1-1.3.5-3.8 1.1-4.8.4Z" class="fill" data-original-prefix="fill"/><path id="fill-teeth11" class="fill"  fill="#fff" d="M949 1569c5.5 22 11.1 44.4 9 67.5-.5 5.2-.9 10.3-7 8-3.4-1.3-17.5-13.4-19.5-16.5-5.8-9.2-1.4-31.3 2.7-41.2 1.2-2.9 11.3-21 14.8-17.7Z" class="fill" data-original-prefix="fill"/><path id="fill-teeth10" class="fill"  fill="#fff" d="M881.7 1478.3c3.1 2.8-2.7 21-2.8 26.2 0 5.9 2.6 12.4 3.1 18 .2 2.1.7 24.5-.5 24.5-1.5.2-2.1-1.1-2.9-2.1-15.6-18.9-34.8-51.8-17.4-75.3 6.5-8.8 10.5 2.1 14.9 5.8 1.8 1.5 4.9 2.1 5.7 2.8Z" class="fill" data-original-prefix="fill"/><path id="fill-teeth9" class="fill"  fill="#fff" d="M1185.7 1467.3c1.9 1.6 7.8 13.7 8.2 16.2 3.2 20.7-9.8 47.3-23.9 61.9-.9 1-1.3 1.9-3 1.5.5-8-.7-16.6 0-24.5.4-5.4 3.1-12.3 3.1-18s-6.1-23.4-2.8-26.2c.6-.6 2.5-.6 3.8-1.7 3.4-3 10-13.1 14.7-9.3Z" class="fill" data-original-prefix="fill"/><path id="fill-teeth8" class="fill"  fill="#fff" d="M1018 1613v16.5c0 .9-10.8 13.2-11.9 14.1-6.3 4.8-8-2.6-10.6-5.5-5.5-6-17.9-.4-24.4-5.6-1.2-.9-4.1-8.8-4.1-9.9v-22.5c12.9 1.7 28.3 17.5 41.4 15.9 3.5-.4 6.1-3 9.6-2.9Z" class="fill" data-original-prefix="fill"/><path id="fill-teeth7" class="fill"  fill="#fff" d="M1031 1613c6.3 1.3 9.1 4 16.1 2.6 10.6-2.2 24.3-14.8 33.4-15.6 2-.2 1.4 0 1.2 1.3-.8 6.5 2.4 27.5-4.4 31.6-7 4.2-18.8-.3-23.4 4.6-2.1 2.2-3.6 8-8.4 7.6-1 0-14.6-13.5-14.6-14.6V1613z" class="fill" data-original-prefix="fill"/><path id="fill-teeth6" class="fill"  fill="#fff" d="M1102.5 1494c3.3-.8 4.5 6.9 5.3 8.7 5.6 12.1 13 24.8 13.3 38.8.2 9-16 29.8-21.3 16.2-4-10.4-4.1-44.8-1.1-55.5.4-1.6 2.4-7.9 3.8-8.2" class="fill" data-original-prefix="fill"/><path id="fill-teeth5" class="fill"  fill="#fff" d="M937.3 1559.7c-1.9-1.6-7.8-10.5-8.5-13-3.6-12.1 6-31.3 11.4-42 1.6-3.1 3.3-14.7 8-7.4 5.5 8.5 4.3 41.5 2.7 52.1-1.2 7.7-3.6 18.7-13.6 10.3" class="fill" data-original-prefix="fill"/><path id="fill-teeth4" class="fill"  fill="#fff" d="M917 1563c-1.8 13.4 2.9 27.5 2 40.5-.6 9-4.4 18.4-5.5 27.5-6.2-6-10.5-16.1-11.4-24.6-.5-5.2.7-24.7 2.4-29.3.6-1.6 10.5-16.2 12.4-14.1Z" class="fill" data-original-prefix="fill"/><path id="fill-teeth3" class="fill"  fill="#fff" d="M1135 1631c-.4-8.9-4.4-17.8-5.1-26.5-1-13.8 3.7-27.6 2-41.5 2.2-2.4 11.9 13 12.5 15 2 6.6 2.6 27.4 1.2 34.3-1.3 6.3-5.5 14.9-10.8 18.7z" class="fill" data-original-prefix="fill"/><path id="fill-teeth2" class="fill"  fill="#fff" d="M1154.1 1604.9c-3.4-2-5.1-22.3-3.9-26.2.8-2.6 8.9-5.2 10.2-8.8l5.1-10.9c3.8 3.4 5.1 7.2 4.3 12.2-.7 4.2-5.4 22.7-6.9 26.2-.9 2.2-6.1 9-8.8 7.5" class="fill" data-original-prefix="fill"/><path id="fill-teeth1" class="fill"  fill="#fff" d="M885 1559c-.3 3.7 1.7 9.4 4 12.2s9.5 5.2 10 8.3c-2 8.4 1.6 19.2-5.7 25.4-3.6-1.1-6-4-7.4-7.4s-6.5-23.6-6.9-27.1c-.5-4.2 1.2-10.6 5.9-11.4z" class="fill" data-original-prefix="fill"/><path id="outline-shading-mouth2" class="outline"  fill="#000" d="M918 1443.5c.8 5.3 5.6 13.8 10.1 16.9 11.5 8.3 16.2-.3 22.4-9.4 2.5 5.4 3.4 11.5 6 17 1.4 2.8 5.7 12 7.5 5.5l4-11.5c1.6 7.5 6.3 15.4 11.5 21 4.3 4.7 18.8 15.4 24.6 9.6 2-2.1 8.3-17.9 10.8-22.2 1.2-2.2 7.8-13.8 9.7-13.3 1 .2 8.5 13.2 9.7 15.3 2.4 4.5 7.3 17.7 9.8 20.2 3.8 3.8 10.5.4 14.4-1.8 10.5-5.9 18.5-17.2 21.7-28.8l4.2 12.3c.3 1.2 1.9 2.4 2.8 1.7.6-.4 5.8-11.3 6.5-13 .8-2 2.8-12 4-12 6.8 10.7 12.9 18.4 24.5 7.5 8.6-8 9.3-23.8 7-34.5 3.5-3.1 21.1 16.1 26.6 16.9 9.1 1.4 17.6-11.8 19-19.9 3.5-20.5-12.9-39.2-30.9-46.2l-12.7-4.8c15.4 0 28.2 2.9 41.1 11.4 4.8 3.1 12.2 10.9 17.6 11.4 6.2.6 10.1-4.1 10-10-.4-19.3-25.8-38.1-39.7-48.8 15.4 2.4 34.6 11.8 45 23.5 7.8 8.8 19.1 25.1 19.1 37s-6.4 28.5-9.2 32.8c-3.3 5.3-11.7 5.4-13.4 10.6-.9 8.1-2.1 16.4-2.5 24.5-1.5 29 1.4 45.2-10.8 73.2-3.6 8.2-12.7 20.4-14.9 27.1-4.2 12.8-.7 26.4-9.1 38.9-3.2 4.8-8.4 6.7-11.2 10.8-1.7 2.5-2.4 6.1-4.2 8.8-4.5 6.7-14.6 23-21.6 8.9-1.6-3.3-1.3-12.9-6.7-6.2-1.4 1.7-1.9 4.4-3.5 6.5-3.7 4.7-17.7 19.6-23.5 19.5-2.2 0-4.5-4.1-6.6-5.4-7.9-5-21.1-6.3-29.2-1.4-7.3 4.4-9.5 13.6-18.1 6.8-8.6-6.7-6.4-10.8-20.1-9-5.6.7-11.4 12.6-16.9 12.1-2.8-.2-11.4-11.1-18.5-12.6-6.3-1.3-17.5.7-23 4.2-2.6 1.7-4.1 5.6-7.5 5.4-5.7-.3-19.8-15.8-23.6-20.5-1.2-1.5-4.4-10.6-7.1-6.9-2.5 3.4-.6 9.9-7.2 12.7-7 3-14.9-11.2-18.1-16.4-1.2-1.8-1.2-4.3-2.6-6.4-2-3-6.8-5.4-9.5-8.5-10.4-11.9-6.7-27.7-10.7-41.3-.8-2.6-5.6-8.5-7.3-11.7-18.4-35.7-16.4-45.6-18.4-84.6-.4-7.7-.6-20.7-2.2-27.8-1.5-6.2-11.1-6.1-14.2-11.8-3.4-6.1-9.3-29.6-8.6-36.4 1.2-10.3 16.2-31.2 24-38 10.5-9.2 26.2-16.5 40-18.5l-21.5 17c-7.2 6.4-26.8 32-14.8 39.9 9 5.9 16.7-4.5 23.7-9.1 12.7-8.4 25.3-11.8 40.7-11.8l-17.3 7.2c-18 9.4-33.1 32.7-22.1 52.8 1.7 3.1 8.6 10.4 12 11.1 9.1 1.7 20.7-15.4 29.5-18 .6 6.4-.9 14.3 0 20.5zm-37.1 40.6c-12.3-.5-17.1-20.2-22.8 1.5-3.4 13 1.2 26.4 9.4 36.5 1.5 1.8 12.7 13.1 13.9 12.9.8 0 2.5-2.3 2.8-3.2 2.9-7.1-3.2-12.2-4.2-19.2-1.5-9.8 0-18.7.9-28.4Zm301.8-8.9c-3.2.8-6.3 6-8.8 7.3-2.1 1.1-7.2 1-7.8 3.2-.5 1.7 3 10.8 2.9 14.8 0 3-1.5 13.9-2.2 16.8-.9 3.6-3.9 5.7-3.9 10.2s1.4 7.1 3.7 7.4c1.9.3 15-14.4 16.8-17 5.7-8.5 9-18.8 7.3-29.2-.5-3-4.4-14.5-8-13.6Zm-284.8 10c-4-2.3-6.5 9.9-6.8 12.5-1.2 10.5 3 38 8.7 47.1 1.9 3 5.4 6.9 9.2 7.3 3.7-15.6 12.6-29.2 21-42.5-2.3-.4-1.7-2.9-2.7-3.5-1.5-.9-7-1.9-9.7-3.1-4.7-2.2-12-7.7-15.6-11.4-1.2-1.2-3.8-6.2-4.2-6.3ZM1139 1552c8.3-2 11.9-12.2 13.9-19.6 3.1-12.1 6.1-33.4 1.1-44.8-3-6.9-5.8 1.7-8.3 4.1-3.9 3.8-11 9.3-16 11.6-2.5 1.1-7.8 1.8-9.1 2.7-.7.5-.5 1.8-1 2.7-.3.4-1.7.4-1.6.9 0 1 7.9 12.3 9.2 14.8 4.8 8.8 9.1 18 11.8 27.7Zm-197.7 5.7c8.1 8.1 9.5 0 10.5-7.3.8-5.6 2.7-20.6 1.7-25.4-3.6-17.2-21.3-15.9-21.6 3.6 0 6.8 4.6 24.3 9.4 29.2Zm161.5-44.5c-5 1.3-8.5 9.3-8.8 14.2-.2 4 2.4 28.5 3.8 31.3 2.5 5 7.5 0 9.8-2.7 6.8-8.3 11.6-30.7 4.5-39.5-2.7-3.3-4.8-4.4-9.2-3.3zM1023 1544c-.7-.7-.8-7-5.1-9.4-8.9-5-21.8-.8-32-4-10.4-3.3-9.4-13.1-16.1 1.8-2.9 6.4-9.1 24.4-6.3 30.7 1.1 2.4 17.8 15.6 21.2 17.8s18.2 11.7 21.1 10c3.1-5.6 9.3-9.5 12.6-14.9 1.8-2.8 4.1-11.5 4.6-11.9 1.6-1.7 1.7.5 2.1 1.4 1.6 3.6 2.1 6.8 4.5 10.5 3.3 5.2 9.2 9.3 12.4 14.6 3.1 1.9 15.5-5.9 18.9-8.1 4.5-2.9 22.9-17 23.9-21.1 2.2-9.7-6.6-28.3-10.9-37.2-4.9 1-7.8 5.2-12.7 6.7-9.2 2.8-28.2-1.6-33.7 6.3-.9 1.2-2.6 8.9-4.5 7zm-136 18c-.7-.6-3.5 0-4.5.9-6 6.2 2.4 31.6 14.6 27.6 4-1.3 3.8-9.4 2.8-12.9-1.1-3.9-7.2-4.1-9.8-7.2-2.1-2.5-2.7-8.2-3-8.5Zm274.1 0c-.3.3-.9 6-3 8.5-2.6 3.1-8.7 3.3-9.8 7.2-1 3.4-1.2 11.6 2.8 12.9 13.4 4.4 20.2-24.5 14.1-28.1-.9-.5-3.5-.9-4-.4Zm-216.4 7.2c-1.5.4-5.1 4.6-6 6.1-3.4 5.6-5.6 32.3-4.8 39.3 1.3 10.9 15.2 18 19.5 3.5 1.7-5.6 2.6-21.4 2.5-27.6 0-1.1-5.8-19.7-6.5-20.5-1.2-1.4-3.2-1.3-4.8-.8Zm153.3-.1c.2 6.6-5.4 14.7-6 20.6-.5 4.5 1 25.3 2.4 29.4 4.2 12.1 16.9 7.3 19.1-2.9 1.1-5.2 0-16.8-.6-22.6-1-9.7-1.7-25.5-14.9-24.5m-180 1.9c-20.5 3.8-17 28.7-9 43 4 2.9 10.4-17 10.7-19.8.9-7.5-2.9-15.5-1.8-23.2Zm218 43c2.5 1.8 7.2-9.1 7.7-10.8 3.9-12.8 1.6-30.1-13.7-32.2.5 7.4-2.8 16.2-1.9 23.4.3 2.7 6.4 18.5 7.9 19.6m-148.2 10.2c1.4.8 4.8 8.6 9.5 11 11.1 5.8 20.2-6.4 20.7-16.7.8-13.7-7.2-7.7-16.5-8.6-8.4-.8-15-4.8-21.8-9.2-5.5-3.5-13.6-14.6-14.7-1.4-.5 5.1 1.4 7.5 1.8 11.2s-2 5.9.5 10.7c4.8 9.3 18 1.3 20.7 2.8zm93.1-31.1c-2.1-1.5-19.7 12.7-23.9 14.4-2.3 1-7.9 2.3-10.5 2.5-10.5.9-18.8-5.4-16.4 11.4 1 7.3 7.9 15.8 16 15.1 9.4-.8 11.9-11.6 14.6-12.4 4-1.3 12.3 5.7 18.9-1.1 4.3-4.4 1.3-8.4 1.5-12.5 0-2.3 1.9-4.8 2-8.1 0-1.9-.8-8.5-2.2-9.4Z" class="shading" data-original-prefix="shading" opacity=".2"/><path id="outline-shading-mouth1" class="outline"  fill="#000" d="M1041 1343c6.1.5 12.7-1 17.5-5 1.5-1.3.9-3.7 2.8-2.9 10.1 7.9 37.9 17.4 43.8 28.2 3.6 6.5 4.6 17.5-1.8 22.6-5.6 4.5-20.8 10.8-28 15-4.9 2.8-9.7 6.6-14.7 9.3-7.4 4.1-25.5 14.5-32.6 16.4-2.9.8-5.2.8-8.1 0-14.5-3.8-42.2-22.5-56.3-30.7-6.2-3.6-21.2-9.1-23.2-15.8-5.5-18.4 15.7-28.3 28.7-35.4 2.3-1.2 15.5-8.6 16.5-8.7 2.9-.3 4.2 2.9 6.7 4.2 4.2 2.3 10 3.2 14.7 2.8-.3-5.1-3.3-11.3-1.8-16.3.5-1.6 12.5-13.9 14.5-14.4 3.9-1 8.2-.3 11.6 1.9 1 .7 10.8 11.1 11.2 11.8 2.1 5-1.2 11.8-1.5 17" class="shading" data-original-prefix="shading" opacity=".2"/><path id="outline-mouth3" class="outline"  fill="#000" d="M888 1333c-.7 1.9-2.2 2-3.8 2.7-12.3 5.2-24 8.3-33.2 18.8-6.6 7.6-18.9 26-18 36 .3 4 7.1 25.8 9.2 28.8 2.7 4 6.1 4.9 10.8 4.7-1.4-9 4.2-18.1 9.6-24.9 2.2-2.8 21.9-22.6 24.4-20.1-1.7 6.5-8.8 10.4-13 15.5-8.1 10-12.3 23.6-9.5 36.5 1.2 5.4 11.2 26 15 30 .6.7 7.1 6.3 7.5 6.5 2.4 1.2 5.6-3.8 6.5-5.5 2.5-4.3 3.1-9.7 5-14 4.4-10.2 9.3-18.3 18.5-25-5 13.9-9.5 44.6 1.5 56.1 4.6 4.8 11 2.5 15 5.1 2.1 1.3 2.5 5.4 4.2 5.8s7-3.1 9.4-3.5c9-1.4 12.6 16.9 18.7 17.4 2.5.2 10.2-12 18.4-9.4 5.5 1.8 19.2 24.8 24.4 23.6 5.8-5.9 3.6-12.3 5-19 1.5-7.6 8.3-12.6 9.4-22.6.8-7.2-1.7-26.6-4.7-33.1-1.1-2.3-5.5-10.7-6.8-12.2-3.4-4-15-9.2-19.8-6.1l-4.2 11.1c-4.8-4.4-9.5-9.2-14.5-13.5-3.7-3.2-10-6.8-13-9.9-4-4.2-15.6-27.9-15.7-33.2 0-6.8 17.5-22.4 21-29 5.4-4.1 29.2-2.8 35.7.2 8.4 3.8 12.4 12.1 18.5 17.5 5.2 4.5 2.5-1.7 2.5-3.6s.9-3.2.8-4.8c-.2-5.4-6.7-9.2-9.9-13.1-2-2.4-5.6-6.2-7-8.2-.9-1.3-4.9-7.8-5-8.8-.2-2.6 9.1-11.7 11.5-12.4 3.6-1-.5 5.5-.5 6.6-.4 5.2 5.9 4.1 9.3 5.6 1.2.5 3 2.7 3.2 2.7s2.4-2.7 3.8-3.2c7.8-3.2 11 1.2 6.8-11.7 1.6-1.7 12.5 9.1 12.9 11.7.6 4.5-17.6 23.1-21.1 27.5l-.8 12.7c1.7.4 2-.7 3-1.5 8.7-6.7 12.6-16.8 24.9-19.1 5.5-1 25.6-1.3 29.8 1.8 3.4 6.7 20.4 21.8 21 28.4.4 4.3-10.8 27.3-13.9 31.7s-9.8 7.6-13.8 11.2c-5.3 4.6-10.3 9.8-15.5 14.5-2.2.9-1.4-5.6-2.2-7.7-3.4-8.6-19-1.6-22.7 3.8-.7 1-7.1 13.9-7.3 14.7-2.7 12.8-5.5 27.3-.2 39.8 1.5 3.5 4.6 6.8 5.8 10.2 2.5 7.2-.5 15.2 5.8 21.2 9.4-2.8 19.1-24.9 27.9-24 5.2.5 13.2 10 14.9 9.8 5.8-.5 9.3-18.7 18.7-17.4 2.4.3 7.6 3.9 9.3 3.4s2-4.8 4.8-6.1c3.8-1.8 9.4-.4 13.3-3.7 11.5-9.7 8.1-43.1 2.5-56 1.6-1.7 11.3 10.4 12.4 12.1 5.1 7.8 6.1 15.5 9.7 23.3 1 2.1 4.8 9.8 7.8 8.2.4-.2 6.9-5.9 7.5-6.5 6.8-7.5 16-30.4 15.4-40.5-1.3-22.7-10.7-22.7-21.5-37.5-5.3-7.2 2.8-2.4 6 0 11.8 8.6 28 25.5 26.5 41 11.6 1.1 13.6-11.4 16.3-20.2 4.6-15.6 5.3-18.8-3.1-33.4-8.2-14.3-16.4-22.7-31.5-29.5-5.8-2.6-13.2-3.6-17.7-7.8 15.9 1.8 34.5 6.4 49 13.5 8.3 15 22.1 26.8 28.1 42.9l-15.2 44.9c-.9 3.7-13 4.8-13.8 5.8-.6.8-2.2 17.2-2.2 19.4-.2 31.7 2.4 50.4-13.1 79.9-2.6 5-12 16.3-12.6 19.4-.9 4.6 0 10.4-.5 15.5-.9 8.4-5.8 16.4-6.7 23.4-.4 3.5 1.3 7.7.8 9.7s-10.7 8.6-13.2 9.9c-2.2 1.2-5.7 1.5-6.5 2-.6.4-5.2 10.6-7.2 13.2-2.2 2.8-13.6 14.5-16.9 12.4-.6-.4-5.9-11.8-7.1-13.3-2.2-2.9-2.2 2.1-3.2 3.8-4.6 7.3-24.8 27-32.8 29.2-1.7.5-3.3.7-5 .5 1.1-8.2 2.6-16.6-8-18.6-9.7-1.8-16.2 7.5-18.5 15.6-1.2 4.3-1.2 16.7-7.8 14.9-4.3-1.2-20.3-25.6-23.2-30.8-5.5 8.6-11.5 19.1-18.5 26.5-1.8 1.9-6.9 7.7-9.3 3.3-2.8-5.3-2.5-14.6-5.5-20.5-3.8-7.2-14-11.7-21.2-6.8-6.6 4.6-2.9 10-3 16.5-3.4 3.4-23.5-12.8-26.5-15.9-1.5-1.5-11.4-13-11.9-14.1-.7-1.4-.2-6.3-2.6-3.3-2.1 2.6-6 14.4-10.2 13.3-2-.6-12-10.2-13.7-12.4-2.1-2.7-6.6-12.8-7.2-13.2-.8-.5-3.8-.6-5.8-1.7-2.5-1.4-11.8-7.1-13-9-2.3-3.8.4-6.7 0-10.8-1-7.2-5.8-15.5-6.7-24.4-.5-5 .6-10.7-.6-15.4-1-3.9-7.9-9.8-10.7-14.3-10.4-16.9-15.8-37.5-16.8-57.2-.8-15.6 1.6-31.1 0-46.5-18.8 0-17.3-14.5-21.7-27.8-2-5.8-9-19.6-8.1-24.5.6-3.1 5-9.2 7-12.1 2.9-4.3 18.7-27.3 20.9-29.1 1.7-1.4 8.5-4.5 10.7-5.3 9.6-3.2 28.2-7.1 38.2-8.3v-.7Zm16 128c-1.4-1.5-7.8 8.9-8.4 10.1-12.7 23.9-7.6 58.3 2.6 82.2 1.5 1.6 6.5 11.2 8.3 10.7 4.1-1.1 10.8-29 12.8-34.2 4.4-11.8 13.5-22.1 8.6-35.6-5.5-.6-12.8 1.4-16.7-3.8-.9-1.1-7.8-21.4-8-23.1-.2-2.4.8-4 .8-6.2Zm240 103c.6-.4 6.8-10.5 7.6-11.9 6.4-12.5 10.7-43.5 9.3-57.4-.7-6.6-8.4-30-14.4-32.6-2.3-1-.6 4.2-.9 6-.5 2.7-7.2 21.8-8.6 23.2-3.6 4.1-11.1 2.3-15.9 2.9-5 13.6 4.3 24 8.6 35.6 3 8.1 4.3 17.7 7.5 25.5.7 1.6 4.7 10.2 6.8 8.7m-262.3-85.7c-.8-.7-3.9-1.3-5.7-2.8-4.4-3.7-8.4-14.6-14.9-5.8-17.4 23.5 1.8 56.3 17.4 75.3.8.9 1.5 2.3 2.9 2.1 1.2 0 .7-22.5.5-24.5-.5-5.6-3.2-12.1-3.1-18 0-5.2 5.9-23.5 2.8-26.2Zm304-11c-4.6-3.9-11.2 6.2-14.7 9.3-1.3 1.1-3.1 1.1-3.8 1.7-3.3 2.9 2.8 21 2.8 26.2s-2.6 12.6-3.1 18c-.7 7.9.4 16.5 0 24.5 1.7.4 2-.5 3-1.5 14.2-14.6 27.2-41.2 23.9-61.9-.4-2.6-6.3-14.7-8.2-16.2Zm-83.2 26.7c-1.4.3-3.3 6.6-3.8 8.2-3 10.7-2.9 45.1 1.1 55.5 5.3 13.6 21.4-7.2 21.3-16.2-.2-14-7.6-26.7-13.3-38.8-.8-1.8-2-9.4-5.3-8.7m-165.2 65.7c10 8.3 12.4-2.6 13.6-10.3 1.6-10.6 2.8-43.6-2.7-52.1-4.7-7.3-6.5 4.3-8 7.4-5.3 10.7-15 29.9-11.4 42 .7 2.4 6.6 11.4 8.5 13m58-34c-2.6-2.2-10.5-14.2-12-14.5-1.3-.2-9.1 4.1-10.4 5.3-13.2 13-17.5 40.3-6.8 55.8 7.4 10.8 27.1 23.8 39.1 28.9 1.2.5 3 1.2 4.2.9.9-.2 7.4-15 8-17.1 4.7-14.6 7.5-38.8 1-52.9-5.9-13-12.1 3.2-23.2-6.3h.1Zm43.8 76.2c2.9 1.8 6.6-2.7 8.6-3.7 21.1-11.1 43.7-22.7 41.3-50.7-.7-8.7-6.7-24.8-13-31-1.2-1.1-8.4-5.2-9.7-5.3-3.5-.3-11.2 18.1-20.8 17.9-7.8-.2-11.2-7.8-15.8 4.2-5.2 13.4-2.8 36.6 1.3 50.3.7 2.3 7.3 17.8 8.1 18.4ZM885 1559c-5.2 1.1-6.5 7.6-5.8 12.2s5.4 23.4 7 27c1 2.2 6.2 8.5 8.7 6.7 3.4-2.4 3.2-20.7 4.1-25.4-.6-3-7.8-5.5-10-8.3s-4.3-8.6-4-12.2m269.1 45.9c2.7 1.5 7.8-5.3 8.8-7.5 1.5-3.4 6.2-22 6.9-26.2.8-5-.5-8.8-4.3-12.2l-5.1 10.9c-1.4 3.6-9.4 6.1-10.2 8.8-1.2 3.9.5 24.2 3.9 26.2M917 1563c-1.9-2.2-11.8 12.5-12.4 14.1-1.8 4.6-2.9 24.1-2.4 29.3.8 8.6 5.2 18.6 11.4 24.6 1.1-9 4.9-18.4 5.5-27.5.9-13-3.8-27.1-2-40.5Zm218 68c5.2-3.8 9.5-12.5 10.8-18.7 1.4-6.9.7-27.7-1.2-34.3-.6-1.9-10.4-17.4-12.5-15 1.7 13.9-3.1 27.7-2 41.5.7 8.7 4.6 17.6 5.1 26.5zm-186-62c-3.4-3.2-13.6 14.8-14.8 17.7-4 9.9-8.4 31.9-2.7 41.2 2 3.2 16 15.2 19.5 16.5 6 2.4 6.5-2.8 7-8 2.1-23.1-3.5-45.4-9-67.5Zm144.1 75.9c1.1.7 3.6 0 4.8-.4 3.2-1.2 16.9-13.1 18.9-16.1 8.3-13.1-.6-48.3-12.8-57.9-1.8-1.4-3.1-2.8-4.2 0-3.7 9.9-8.2 30.6-8.9 41.1-.3 4.8-.8 31.5 2.1 33.4ZM1018 1613c-3.5 0-6.1 2.5-9.6 2.9-13.1 1.6-28.5-14.2-41.4-15.9v22.5c0 1.1 2.9 9 4.1 9.9 6.5 5.2 18.9-.4 24.4 5.6 2.6 2.9 4.3 10.3 10.6 5.5 1.1-.8 11.9-13.1 11.9-14.1v-16.5Zm64-13c-13.3 1.4-27.9 17.6-41.4 15.9-3.5-.4-6.1-3-9.6-2.9v17.5c4.1 2.4 11.4 14.9 15.4 14.5 5.4-.5 6.1-8.2 10.5-9.6 5.4-1.7 16.2 1.1 21-3 1-.8 4-9.7 4-11v-21.5Z" class="outline" data-original-prefix="outline"/><path id="outline-mouth2" class="outline"  fill="#000" d="M1011 1292c-6.2 1-21.6 9.8-26 14.5-2.9 3.1-3.9 7.2-7.2 9.8-18.9.8-35.9 5.2-50.3 17.8-.9-.2-.3-1.9-.5-2 1.1-8.8 19.3-26.2 27.4-25 3.5.5 2.6 4.8 10 4 10.8-1.2 17.8-10.7 19.4-20.7.4-2.5-1.9-5.2 1.2-6.7 4.7-2.2 21.7 4.7 26 8.5z" class="outline" data-original-prefix="outline"/><path id="outline-mouth1" class="outline"  fill="#000" d="m1122 1332-.5 3c-10.9-11.7-25.5-16-41-18-2.9-.4-6.9.7-9.5-.5-1.5-.7-4.5-7.4-6.5-9.5-3.4-3.8-14.1-10.6-19-12s-4.7-.4-8.6-2.9c4.2-4.1 21-10.8 26-8.5 3.1 1.5.8 4.2 1.2 6.7 1.9 11.3 12.7 24.5 25 19.5 4-1.6 2.6-4.3 9.2-1.6 10.8 4.4 18.3 14 23.6 23.9h.1Z" class="outline" data-original-prefix="outline"/></g><g id="04_Eyes" data-trait="wayfairer"><path id="fill-head4" class="fill"  fill="#fff" d="M1241.1 1390.9c-16.6.9-35.8.2-54.8-1.2-25.5-1.9-51.3-3-76.2-9.7-9.7-2.6-17.8-8-26-13.2-9.1-5.8-17.7-12.3-26.7-18.3-2.9-1.9-3.7-4.7-4.2-7.5-3.6-22.9-9-45.4-13.3-68.1-1-5-3.4-7.6-9-8.2-5-.5-9.9-.4-14.8.2-3.9.5-6.3 2.3-7.1 6.4-3.9 19.3-7.9 38.5-11.8 57.8-.8 4.1-1.2 8.2-2.1 12.2-.6 2.9-1.6 5.5-4.4 7.4-12.5 8.5-24.7 17.4-37.8 24.9-10.3 5.9-21.5 8.6-32.9 10.2-17.6 2.5-35.3 3.9-53 5.3-32.9 2.5-65.9 2.6-98.8 1.4-23.5-.8-46.8-5-69.9-9.2-7.5-1.3-14.9-2.9-22.4-4.2-2.1-.4-3.4-1-3.6-3.3-2-22.2-9-43.3-14.5-64.7-8.8-34.2-18.5-68.2-26-102.8-.2-1-.5-1.9-.5-2.9-.5-7.8-3.3-13.3-12.2-13.4-4 0-6.1-2.6-7.7-5.9-6.1-12.5-14-24-18.4-37.4-1.5-4.6.2-6.1 3.5-7.6 5.5-2.4 11.4-3.3 17.3-4.1 10.3-1.4 20.7-2.8 31-4.2 3.4-.4 4.9-2.2 5.7-5.7 5.8-27.8 14-54.7 27-80.1 7.5-14.5 16.7-27.9 26.7-40.7 2.8-3.6 6.4-6.2 11.6-5.4 3.9.6 6-1.3 8.3-4.6 5.8-8.2 12.3-16 18.8-23.7 6.9-8.2 14.3-15.7 22-23.1 24.1-23 50.4-43.2 79-60.3 19.3-11.5 39.5-21.2 60.4-28.9 13.9-5.1 28.8-7.4 43.3-10.4 34.1-7.1 68.7-6.6 103.2-5.8 22.5.5 44.8 3.8 66.7 9.2 4.7 1.1 9.4 1.9 14 3.2 21.8 6.1 42 15.8 61.8 26.5 18.3 9.9 35.5 21.5 52 34 18.6 14.1 36.2 29.3 51.9 46.4 10.1 10.9 20 22.1 28.2 34.6 2.1 3.1 5.4 2.8 8.1 2.6 6-.4 9.4 2.9 12.8 7.1 26.3 32.7 41.7 70.4 50.7 111 .2.8.5 1.6.7 2.4 2.6 13.9 1 10.2 15.1 12.7 12 2.2 24.3 2.8 36.1 6.2 1.4.4 2.8 1 4.1 1.7 2.6 1.4 3.6 2.9 2.4 6.4-4.8 14.6-13.2 27.5-20.3 40.9-1.9 3.6-6.3 3.5-9.7 3.8-4.7.5-6.6 3-7.4 7.2-5.4 28.8-13.4 56.9-20.7 85.2-6.7 25.9-14.5 51.5-19.7 77.8-.7 3.7-1.4 7.5-1.5 11.3 0 3.4-1.6 4.6-4.6 5.2-16.9 3.2-33.8 6.2-50.9 8.5-12.8 1.7-25.6 3.9-38.4 4.8-12.8.8-25.7 0-41.1 0Z" class="fill" data-original-prefix="fill"/><path id="fill-head3" class="fill"  fill="#fff" d="M1236.9 1160.8c28.5-1 56.9-1.5 85.4.2 18.3 1.1 36.4 3.8 54.4 6.9 3.3.6 2.7 2.2 2.6 4.6-3.4 53.6-16.5 105.2-31.8 156.4-3.7 12.4-3.9 12.1-16.8 13.2-27.4 2.4-54.6 5.7-82.1 7.2-34.5 1.9-68.9 1.8-103-4.4-10-1.8-19.8-4.2-29.7-6.6-19-4.5-26.9-18.5-31.9-35.9-8.3-28.9-10.6-58.8-15.8-88.2-1.7-9.5-3.2-19-5.3-28.4-.7-3.3 0-4.1 3-5 18.7-6.2 38.1-9.3 57.5-11.7 37.6-4.7 75.6-6.4 113.5-8.3" class="fill" data-original-prefix="fill"/><path id="fill-head2" class="fill"  fill="#fff" d="M811.3 1160.9c44.2 2.3 88.5 3.9 132.4 11.1 13.1 2.1 26.1 4.8 38.8 9 2.7.9 3.3 1.8 2.7 4.7-6 29.5-9.5 59.5-14.5 89.1-2.4 13.8-5.8 27.6-11.2 40.7-5.9 14-17.3 20.6-31.5 24.1-37.5 9.2-75.5 11.9-114 10.4-31-1.2-61.8-4.6-92.6-7.6-4.5-.4-9-.9-13.4-1.1-2.8 0-3.9-1.4-4.7-4-11.3-34.8-20-70.3-26.9-106.2-3.8-19.6-6.6-39.3-7.6-59.3-.2-3.1.9-3.5 3.4-4 23.8-4.4 47.7-7.2 71.9-7.7 22.3-.4 44.8-.5 67.2.8" class="fill" data-original-prefix="fill"/><path id="fill-head1" class="fill"  fill="#fff" d="M829.9 1133.2c35.9-.6 79.5.9 122.9 6 22.5 2.6 44.7 6.5 66.8 11.2 6.3 1.3 11.9-.7 17.7-1.8 36.1-7 72.5-11.7 109.3-13.8 52.5-3 104.9-1.3 157.3 1.9 37.4 2.3 74.7 5.2 111.8 10.2 6.2.8 12.5 1.3 18.5 3.6 2.9 1.1 3.6 2.5 2.2 5.2-3.7 7.2-7.2 14.5-10.9 21.8-1.4 2.7-3.5 4.2-6.9 3.7-2.7-.4-5.4-.2-7.8 1-1.8.9-3.4 2-3.6 4.3-3.1 26.8-10.7 52.7-17.5 78.8-8.6 33.2-17.8 66.2-26.6 99.3-.6 2.1-1.7 2.5-3.2 3.1-12.8 5.3-26.4 7.5-40 9.2-33.6 4.3-67.3 6.4-101.2 5.9-31.2-.5-62.2-2.3-93-7.8-11.7-2.1-21.7-8.1-31.8-13.7-7.4-4.1-14.8-8.3-22.2-12.4-5-2.7-7.7-7.3-9.5-12.4-7.5-20.8-13.3-42.1-18.2-63.6-2.9-12.5-2.7-12.6-15.8-13.5h-1.5c-18.2-1.2-19.6-.2-23.6 17.1-4.6 19.9-10.2 39.5-16.9 58.8-2.4 7.1-6.7 12.2-13.6 15.7-9.8 4.9-19.2 10.5-28.7 16.1-12.4 7.3-26.2 9.3-40.1 10.9-39.5 4.8-79 6.2-118.7 4.1-28.1-1.5-56-3.8-83.7-9.7-11.1-2.3-17.1-7.1-20.1-19.3-11.3-46.2-25-91.8-35.6-138.2-2-8.7-3.4-17.6-4.9-26.4-.8-5.1-3-7.8-8.6-7.2-6.7.7-9.7-2.4-12-7.8-2.5-5.7-5.3-11.4-8.3-16.9-2-3.7-.8-5.5 2.8-6.5 8-2.2 16.3-3.1 24.5-4.1 60.8-7.3 121.7-11.1 190.7-12.7Zm411.9 9.1c-68 1.2-106.2 5.4-157.7 14.6-11.3 2-22.6 3.9-33.4 7.8-4.7 1.7-7.2 4.8-6.7 9.8 1.1 9.7 2.1 19.5 3.7 29.1 3 17.5 6.7 34.9 9.5 52.4 4 24.8 7.3 49.6 17.9 72.8 1.2 2.6 2.7 4.8 4.8 6.8 17.3 16.1 38.6 22.4 61.2 25.2 27.2 3.4 54.7 3.8 82.1 3.8s55.6-.9 83.4-2.9c12.2-.9 24.5-1.8 36.5-4.8 6.1-1.5 10.5-4.6 12.1-11.1.6-2.4 1.9-4.6 2.7-6.9 14.4-41.4 23.8-84 31.7-127 2.7-14.3 4.2-28.9 4.4-43.5 0-2.8-.2-7-1.8-7.6-4.7-1.5-8.8-4.1-13.7-5.2-20.5-4.8-41.2-8.1-62.2-10.1-27.1-2.4-54.2-3.1-74.5-3.2m-428.8.2c-36.8-.4-73.5 1-109.9 6.8-15.4 2.4-31.2 3.9-45.5 11.4-1.4.8-2.3.5-2.8 2.6-1.4 6.4-.4 12.7 0 19.2 1.2 18.5 4.5 36.5 8.3 54.6 7.7 36.4 16.1 72.6 28.9 107.7 2.5 6.8 6.4 11 13.8 12.6 16.5 3.6 33.3 4.6 50 5.5 37 2 74.1 2.8 111.2 1.2 3.3 0 6.6-.7 10-.8 18.3-.3 36.4-2.4 54.2-7.2 14.7-4 27.1-11.6 38.3-21.6.7-.7 1.5-1.4 1.8-2.3 3-8.1 7.4-15.7 9.5-24.1 6-24.6 9.4-49.7 14.2-74.6 3.7-18.8 6.4-37.8 8.9-56.8.8-6-1-9.5-6.6-11.8-1.8-.8-3.7-1.4-5.7-1.9-21-5.2-42.3-8.9-63.7-11.9-38-5.4-76.3-8.4-114.9-8.6" class="fill" data-original-prefix="fill"/><path id="outline-shading-head9" class="outline"  fill="#000" d="M727 1159h16.4c-9-4.1-18.4-5.7-28.3-9.7 31.2-3.5 61.4-5.2 91.7-5.3 2.5 0 4.4.8 6.3 2.3 6.2 4.9 12.6 9.7 19 14.6-5.1-.2-10.4 1-15.6-.7-2.6-.8-4.2.2-5.5 2.7-29.1 60.2-64.6 117-95 176.6-.6 1.2.4 4.8-3.7 3.7-4.2-1.1-9.6 1.2-11.4-5.1-6.6-22.7-13.4-45.4-18.6-68.4-4-17.6-7.8-35.2-10.5-53.1-2.2-14.8-4.3-29.5-5-44.4-.2-4.3 1-5.9 5.6-6.4 10.2-1.1 20.3-3.2 30.4-4.7z" class="shading" data-original-prefix="shading" opacity=".2"/><path id="outline-shading-head8" class="outline"  fill="#000" d="M972.8 1140.1c-8.9-1.1-16.9-2.2-24.9-3.3-.7 0-1.5-.8-2-1.4-12.3-15.3-28.6-25.7-43.8-37.6-34.7-27.1-73.9-45.7-115.2-60.3-18.4-6.5-36-15.1-55-20.4-8.1-2.3-8.6-5-3.5-12.1C777 936.5 842 890.1 920.9 862.4c6.8-2.4 13.9-4 21.4-4.9-5.6 4-10.7 9.1-16.9 11.9-35.8 16.3-61.5 43.8-84 74.8-9.8 13.5-18.1 27.8-25.6 42.7-5.2 10.3-3.3 19.8 1.5 28.9 4.4 8.4 10.3 15.9 16.4 23.2 4.9 5.8 10.7 10.2 17.6 13.6 31.8 15.6 63 32.4 93.3 50.9 8.8 5.4 16 11.6 20.1 21.3 1.8 5.2 5 9.8 8.1 15.3" class="shading" data-original-prefix="shading" opacity=".2"/><path id="outline-shading-head7" class="outline"  fill="#000" d="M1075.1 1140.2c5.2-9.4 9.7-17.9 14.6-26.2 1.8-3.1 5.2-4.6 8.2-6.4 30.8-19.8 63.1-37.2 96-53.2 10.1-4.9 18.4-11.3 24.7-20.3 6.2-8.9 14.1-17 16-28.4 1.1-6.2.9-11.9-2.1-17.9-18.6-37.7-43.4-70.5-75.7-97.5-8.8-7.4-19-12.9-29.3-18-7.8-3.9-14.2-9.7-22.1-14.6 3.2-1.4 5.4.2 7.5.7 38.3 9.8 72.8 27.9 105.8 49.2 25 16.2 47.4 35.5 68.1 56.7 12.8 13.2 23.8 27.9 34.3 42.9 3.1 4.4 2.5 7.2-2.8 9.1-7.8 2.9-16 4.5-23.6 7.7-42.5 17.6-86.8 31.2-125.4 57.1-20.5 13.7-39.9 28.8-58.7 44.8-1.3 1.1-2.8 2.1-3.6 3.5-3.8 7.1-10.2 8.6-17.5 8.8-4.5 0-8.9 1.2-14.4 2" class="shading" data-original-prefix="shading" opacity=".2"/><path id="outline-shading-head6" class="outline"  fill="#000" d="M962.9 1159.2c7.7 0 15 2.6 22.5 3.9 1.6.3 2.2 1.8 3.1 3.1 3.8 5.6 6.2 12.2 11.8 16.6 1.3 1 .7 2.5.5 3.8-1.3 13.8-3.1 27.5-5.9 41-2.2 10.6-5.1 21-5.9 31.8-.2 2.6-2.1 3.8-4 4.8-11.4 5.9-13 17.2-15.1 28.1-1.1 6-3.1 11.5-5.6 17-2.5 5.6-4.8 11.3-6.2 17.3-.5 2.2-1.8 4.4-3.7 4.1-4-.7-6 2-8.6 3.8-11.3 7.9-24.3 11.1-38.4 15.2 4.2-7.9 7.7-14.7 11.4-21.5 20.8-38.4 41-77.2 61-116.1 4.4-8.7 3.8-18.5 6.3-27.6.4-1.4-.4-2.1-1.7-2.6-4.5-1.5-9-3-13.5-4.6-3.1-1.1-4.6 0-6.3 2.8-27.3 41.2-52.4 83.8-76.5 127-8 14.2-16.1 28.3-23.3 42.9-1.5 2.9-5.1 1.9-7.3 2-11 .6-22 .5-33 .2-4.7 0-2.1-3.1-1.1-4.8 6.2-11.2 12.6-22.3 18.9-33.4 26.7-46.8 53.4-93.6 79.2-140.9 4.2-7.8 5.7-8.4 14.6-7 11.5 1.8 22.9 3.5 35 5.3-3-4.7-5.6-8.5-8.2-12.2" class="shading" data-original-prefix="shading" opacity=".2"/><path id="outline-shading-head5" class="outline"  fill="#000" d="M1260.4 1349.9c10.7-23.1 21.3-46 31.9-68.9 17.3-37.8 34.7-75.5 50.3-114 1.3-3.1 2.4-5.7-2.6-6.3 8.9 1.2 17.8 2.4 26.6 3.7 2.7.4 5.4 1.6 8.1 1.5 5.1-.2 6.5 1.9 6.2 6.7-.7 12.3-2.3 24.4-3.9 36.6-2.1 16.8-5.7 33.4-9.3 49.9-5.2 24.2-11.6 48.2-19 71.9-4 12.7-4.2 12.4-17.6 13-12.9.6-25.8 2.6-38.7 3.7-10.4 1-21 2.7-32 2.2" class="shading" data-original-prefix="shading" opacity=".2"/><path id="outline-shading-head4" class="outline"  fill="#000" d="M1085.8 1158.3c-4.1 5.8-7.5 10.4-11.4 16 9.6-1.3 17.9-2.4 26.3-3.6l54-7.8 18.3-2.7c1.9-.3 3.7-.4 5 1.3 1.6 2-.5 3.1-1.1 4.3-28.2 51.7-56 103.5-83.5 155.5-.8 1.6-1.3 3.4-2.9 4.5-6-14.6-12-29.1-14.8-44.6-1.4-7.5-5.2-13.1-11.8-16.8-3.4-1.8-4.4-4.6-4.8-8.5-1-11.1-4-21.9-6.1-32.8-2.2-12.1-4.1-24.3-5.5-36.5-.2-2.1 0-3.5 1.8-5.2 4.4-4.1 7-9.7 10-14.8 1.4-2.3 3.1-3.7 5.8-4.2 6.3-1.1 12.8-2.4 20.7-4.1" class="shading" data-original-prefix="shading" opacity=".2"/><path id="outline-shading-head3" class="outline"  fill="#000" d="M1183.8 1350.9c34.2-62.8 66.7-126.4 96.6-192.2-22.4 2.6-44.1-.2-65.7 2.6 7-4.3 13-9.6 19.3-14.5 2.5-2 5-2.8 8.2-2.8 29.8.2 59.6 1.8 90.6 5.3-9.9 4-19.4 5.6-28.3 9.1 7.8 1.3 15.9-.5 25 2.5-3.7-.3-4.6 1.3-5.6 3.1-34.5 60.8-66.2 123-98 185.2-1.1 2.1-1.8 2.9-4.2 2.9h-29.5c-2.9 0-5.6-1.8-8.4-1.2" class="shading" data-original-prefix="shading" opacity=".2"/><path id="outline-shading-head2" class="outline"  fill="#000" d="M793.5 1132.4c-9.1.5-18.2 1-27.3 1.4-20.6.9-41.2 2.2-61.8 4.1-2.6.2-4.8-.2-7.1-1.5-8.4-4.5-16.9-8.8-25.6-13.2 8.9-5.1 11.1-14.6 14.6-22.8 3.5-8.1 8.1-10.3 16.7-10.7 14.6-.7 27.1 2.5 39.3 10.6 15.1 10 31 18.7 46.6 28.1 1.7 1 3.3 2.1 4.9 3.2 0 .2-.2.5-.3.8" class="shading" data-original-prefix="shading" opacity=".2"/><path id="outline-shading-head1" class="outline"  fill="#000" d="M1377.4 1122.9c-10.7 4.4-19.2 9.4-27.9 14-1.7.9-3.4 1.1-5.2 1-28.7-2.5-57.4-4.1-86.2-5.2-1.3 0-2.6-.3-3.9-.5.4-1.8 1.8-2.1 2.9-2.8 21-12.5 42.1-25 63.1-37.5 2.7-1.6 5.4-2.3 8.5-2.2 7.7.2 15.3.4 23 .2 3.6 0 5.4 1.2 6.8 4.4 2.6 5.8 5.5 11.4 8.3 17 2.2 4.5 3.6 9.7 10.6 11.6" class="shading" data-original-prefix="shading" opacity=".2"/><path id="outline-head3" class="outline"  fill="#000" d="M1259.6 1396c-42.6-.3-73.6-1.4-104.4-4.3-16.6-1.6-33.5-2.4-49.6-7.7-8-2.6-15.2-6.8-22.1-11.4-10.2-6.6-20-13.8-30.1-20.5-3.8-2.5-4.3-6.3-4.9-9.9-3.6-21.7-8.5-43-12.7-64.6-1.4-7.3-6.4-10.5-13.8-9q-8.4 1.7-10 10.2c-4.2 21.4-8.5 42.7-12.5 64.1-.9 4.9-3.2 8.3-7.4 11.1-11.4 7.8-22.6 15.9-34.5 22.9-12.7 7.5-26.6 10.5-41.2 12.2-24.8 2.9-49.6 4.6-74.5 5.8-20.5.9-41 1-61.4.8-21.2-.2-42-3.1-62.9-6.3-14-2.1-27.8-5-41.7-7.1-5.4-.8-7.7-2.5-8.3-8.4-2.3-20.5-8.7-40.2-13.9-60.2-9.6-36.8-20.2-73.4-27.7-110.8-1-4.9-2.5-7.7-7.8-7.9-5.9-.2-9.4-3.5-12.1-8.8-6.8-13.2-13.6-26.3-19.3-40-2.2-5.3 1.7-9.6 7.8-12.2 6.8-2.9 14.2-3 21.4-4 8.7-1.1 17.4-2.5 26.2-3.7 2.5-.3 3.5-1.4 4.1-4 7-35.6 18.6-69.4 38.6-100 6.2-9.5 12-19.6 21.3-26.8 2.4-1.8 4.6-3.2 7.6-1.3 1.8 1.1 3.2.8 4.5-1.3 6.3-10 14.3-18.8 22.2-27.6 30.6-34.3 66.1-62.7 105.8-85.7 19.5-11.3 39.6-21.6 61.3-27.5 23.4-6.3 47.2-11.3 71.5-13.2 15.1-1.2 30.1-2 45.3-1.3 9.6.4 19.2-.2 28.9.2 24.4 1 48.2 5.2 71.9 10.5 39.8 8.7 74.3 28.5 107.4 51.1 23 15.7 44.2 33.7 63.6 53.7 12.2 12.7 24 25.8 33.8 40.6.9 1.4 2.1 2 3.3 1.3 7.8-4.5 12.3 1.7 15.8 6.1 22.8 28.4 38.5 60.6 47.9 95.8 2.3 8.7 4.9 17.3 6.1 26.2.4 2.6 2.1 3.2 4.1 3.5 11.2 1.5 22.4 2.7 33.6 4.4 6.8 1 13.7 2 19.1 7.3 2.5 2.4 2.6 4.7 1.5 7.6-5.8 15.1-13.5 29.3-21.1 43.5-2.2 4-5.7 5.1-9.5 5.4-5.8.4-7.8 3.3-8.8 8.8-4.8 25.7-11.9 50.8-18.5 76.1-7 26.9-14.8 53.5-20.8 80.6-1.2 5.3-2.2 10.8-2.5 16.2-.2 3.4-1.7 4.6-4.7 5.2-16.5 3-33 5.8-49.6 8.4-25.8 4-51.7 6.3-66.3 5.9M848 1061.5c8.3.8 14.9 5 21.3 9.3 23.8 16.1 50 27.8 75.2 41.3 3.2 1.7 6.4 3.2 8.2 6.2 2.6 4.5 6.7 4.8 11 5.3 14 1.6 28.1 3.4 42.1 4.8 7.4.8 14.8 3.1 22.3 1.9 19.4-2.9 38.9-4.9 58.4-7 4.1-.4 7.6-1.3 10-5.3 1.1-1.9 2.8-3.7 5.1-4.7 18.5-8.2 35.4-19.1 53.7-27.7 12.7-6 23.5-15.2 35.9-21.6 3-1.5 6-3.1 9.8-2.4-25.9 19-53.2 36.1-78 58.3 3.4-.2 5.6-.3 7.7-.5 30.2-2.5 60.5-3.7 90.9-4 41.7-.4 83.3.7 124.8 5.1 7.9.8 15.9 1.7 23.8 2.3 2.8.2 6 .2 6-4 0-6.5-.6-12.9-3.2-19.1-10.1-24-22-47-35.9-69.1-2.1-3.3-4.4-4.3-8-4.6-12.4-.8-24.6 1.5-36.8 2.4-6.8.5-13.4 2.1-20.1 3.8-1.5.4-3.3 2.6-4.3.8-1.1-2 1.6-2.9 2.9-4 10.2-8.5 21.6-15.1 33.3-21 2.9-1.5 3.2-2.9 2.3-5.6-3.3-10.3-8.7-19.3-15.9-27.3-17.7-19.7-38.3-35.8-60.1-50.9-35.4-24.6-74.2-42.3-114-57.9-24.6-9.6-50.8-12.4-76.9-13.4-40.9-1.5-80.9 2.3-119.4 18.3-30.3 12.6-60.2 25.6-87.9 43.4-27.5 17.6-53.8 36.4-75.5 61-6.5 7.3-11.3 15.6-14.8 24.7-1.3 3.5-1.4 5.7 2.8 7.7 12.3 5.9 24 13.1 34.6 21.8 1 .8 2.5 1.7 1.8 3.2-.5 1-1.7.4-2.7 0-19.8-6.1-40.2-7.1-60.7-6.9-2.7 0-4.1 1.4-5.5 3.6-11.2 17.8-21.6 36-30 55.3-4.5 10.3-10.3 20.2-9.7 32.2.2 4.2 1.5 5.8 5.5 5.5 1.3 0 2.7 0 4-.2 20.8-2.7 41.7-4.5 62.7-5.6 57-2.9 113.9-2.1 170.8 2.3 3 .2 6.1.4 10.4.7-24.8-22.2-52.1-39.3-77.9-58.5Zm-18.1 71.7c-69 1.7-129.9 5.5-190.7 12.8-8.2 1-16.5 1.9-24.5 4.1-3.6 1-4.8 2.8-2.8 6.5 3 5.5 5.8 11.2 8.3 16.9 2.4 5.3 5.4 8.5 12 7.8 5.6-.6 7.8 2.1 8.6 7.2 1.5 8.8 2.9 17.7 4.9 26.4 10.6 46.4 24.3 92 35.6 138.2 3 12.2 9 16.9 20.1 19.3 27.6 5.8 55.6 8.2 83.7 9.7 39.7 2.1 79.3.7 118.7-4.1 13.9-1.7 27.7-3.6 40.1-10.9 9.5-5.6 18.9-11.2 28.7-16.1 7-3.4 11.2-8.6 13.6-15.7 6.7-19.3 12.3-38.9 16.9-58.8 4-17.3 5.3-18.3 23.6-17.1h1.5c13.1.9 13 1 15.8 13.5 4.9 21.5 10.8 42.8 18.2 63.6 1.8 5 4.5 9.6 9.5 12.4 7.4 4.1 14.8 8.2 22.2 12.4 10.1 5.7 20.1 11.6 31.8 13.7 30.8 5.5 61.8 7.2 93 7.8 33.9.6 67.6-1.5 101.2-5.9 13.6-1.8 27.2-3.9 40-9.2 1.5-.6 2.6-1 3.2-3.1 8.8-33.1 18-66.1 26.6-99.3 6.7-26 14.3-51.9 17.5-78.8.3-2.3 1.9-3.4 3.6-4.3 2.4-1.2 5.2-1.4 7.8-1 3.3.5 5.5-.9 6.9-3.7 3.7-7.2 7.2-14.5 10.9-21.8 1.4-2.7.7-4.2-2.2-5.2-6-2.2-12.3-2.7-18.5-3.6-37.1-5-74.5-7.9-111.8-10.2-52.4-3.2-104.8-4.9-157.3-1.9-36.8 2.1-73.2 6.7-109.3 13.8-5.8 1.1-11.3 3.2-17.7 1.8-22.1-4.7-44.4-8.6-66.8-11.2-43.4-5.2-87-6.7-122.9-6.1Z" class="outline" data-original-prefix="outline"/><path id="outline-head2" class="outline"  fill="#000" d="M1241.7 1142.4c20.4 0 47.5.8 74.5 3.4 21 2 41.7 5.3 62.2 10.1 4.8 1.1 9 3.7 13.7 5.2 1.6.5 1.8 4.8 1.8 7.6-.2 14.6-1.7 29.2-4.4 43.5-7.9 43-17.3 85.6-31.7 127-.8 2.3-2.1 4.5-2.7 6.9-1.6 6.4-6 9.6-12.1 11.1-12 2.9-24.3 3.9-36.5 4.8-27.8 2-55.6 2.9-83.4 2.9s-54.9-.4-82.1-3.8c-22.6-2.8-43.9-9.2-61.2-25.2-2.1-2-3.6-4.2-4.8-6.8-10.6-23.1-13.9-48-17.9-72.8-2.8-17.5-6.6-34.9-9.5-52.4-1.6-9.6-2.6-19.4-3.7-29.1-.6-5 2-8.1 6.7-9.8 10.8-3.9 22.2-5.8 33.4-7.8 51.6-9.5 89.8-13.7 157.7-14.8m-4.8 18.4c-37.9 1.9-75.9 3.6-113.6 8.4-19.4 2.5-38.8 5.6-57.5 11.7-2.9.9-3.7 1.7-3 5 2.1 9.4 3.6 18.9 5.3 28.4 5.2 29.4 7.5 59.3 15.8 88.2 5 17.4 12.9 31.4 31.9 35.9 9.9 2.3 19.7 4.8 29.7 6.6 34.1 6.1 68.5 6.2 103 4.4 27.4-1.5 54.7-4.8 82.1-7.2 13-1.2 13.1-.9 16.8-13.2 15.4-51.2 28.4-102.8 31.8-156.4.2-2.3.7-4-2.6-4.6-18.1-3.1-36.1-5.7-54.4-6.9-28.4-1.8-56.9-1.3-85.3-.3" class="outline" data-original-prefix="outline"/><path id="outline-head1" class="outline"  fill="#000" d="M813 1142.5c38.5.2 76.9 3.2 115 8.5 21.4 3 42.7 6.6 63.7 11.9 1.9.5 3.8 1.1 5.7 1.9 5.7 2.3 7.4 5.8 6.6 11.8-2.5 19-5.2 38-8.9 56.8-4.9 24.8-8.2 50-14.2 74.6-2.1 8.4-6.5 16-9.5 24.1-.3.9-1.1 1.7-1.8 2.3-11.2 10-23.6 17.6-38.3 21.6-17.8 4.8-35.9 6.9-54.2 7.2-3.3 0-6.6.7-10 .8-37.1 1.6-74.2.8-111.2-1.2-16.7-.9-33.5-1.9-50-5.5-7.3-1.6-11.3-5.8-13.8-12.6-12.8-35.1-21.2-71.3-28.9-107.7-3.8-18-7.1-36.1-8.3-54.6-.4-6.4-1.4-12.7 0-19.2.4-2.1 1.3-1.8 2.8-2.6 14.3-7.5 30.1-8.9 45.5-11.4 36.3-5.7 73-7.1 109.8-6.7m-1.7 18.4c-22.5-1.3-45-1.2-67.5-.7-24.2.5-48.1 3.3-71.9 7.7-2.5.5-3.6.8-3.4 4 1 20 3.9 39.7 7.6 59.3 6.9 35.9 15.7 71.4 26.9 106.2.8 2.5 1.9 3.9 4.7 4 4.5.2 9 .6 13.4 1.1 30.8 3.1 61.6 6.4 92.6 7.6 38.4 1.5 76.5-1.2 114-10.4 14.3-3.5 25.7-10.1 31.5-24.1 5.5-13.1 8.9-26.9 11.2-40.7 5.1-29.7 8.5-59.6 14.5-89.1.6-3 0-3.9-2.7-4.7-12.7-4.2-25.7-6.9-38.8-9-43.5-7.3-87.8-8.9-132.1-11.2" class="outline" data-original-prefix="outline"/></g><g id="05_Right Ear" data-trait="robo"><path id="fill-ear-rt1" class="fill"  fill="#fff" d="M1309.7 967.7c-21.5 15-73.7 1.5-73.8-28.2 0-17.4 19.3-64.4 26.3-82.8 15.6-40.9 37.9-99.1 62.5-134.5 12.2-17.5 47.1-40.3 66.9-49.1 25.2-11.2 58.3-12.1 85.4-10.1 0-1.7 0-3.4.4-5 29.2-103.4 66.2-199.3 108.1-297.9 10.4-24.5 17.8-43.7 36.4-63.6 26.6-28.2 58.4-54.6 87-81 5.1-4.7 9.5-10.2 15-14.5.4 36.3-3.9 72.5-9.2 108.3-21.8 147.8-72 298.3-146.9 427.1-112.2 41.1-191.9 136.1-258.2 231.3Z" class="fill" data-original-prefix="fill"/><path id="fill-ear-rt2" class="fill"  fill="#fff" d="M1288 747c-16.2 44.6-44.8 91.8-64.2 136.3-5.3 12.3-10.4 24.7-14.6 37.4-.2 2.1 4.6 10 6 12.5 5.6 9.8 12.7 20.5 19.8 29.2-8.1-3.9-16.8-7.8-24.3-12.7-3.9-2.5-12.8-9.1-15.7-12.3-4.7-5.3-17.9-31.7-21.5-39.5-1.1-2.4-2.8-5.2-3.3-7.8-.9-5.4 6.1-15.3 8.6-20.9 14.3-31.3 25.7-60.8 38.7-92.3 5.4-13.2 13.6-26 18.2-39.8 13.7-40.3 17-104.6 9.9-146.5-.9-5.6-4.2-13.5-4.3-18.5-.3-13.9 31.4-60.6 40.8-73.7 29.1-40.7 69.4-86.1 106.8-119.2 1.9-1.7 8.4-7.6 10.3-7.4q37.2 20.1 72 44.1c15.8 10.9 34.5 23.7 49.2 35.8 2.7 2.2 8.4 5.7 7.1 9-13 32.3-26.4 64.4-39.4 96.7-7.8 19.4-14.3 40.2-22.8 59.2-2.4 5.4-7.8 17.6-11.5 21.5-11 11.9-42.4 5.7-57.5 7.5-7 .8-39.4 25.6-47.8 31.2-9.3 6.3-20.9 11.6-29.2 18.8-11.1 9.6-18.8 27.5-25.3 40.7-1.2 2.5-2.7 8-4.1 9.7-.9 1.2-1.8.4-2.1.6 2.9-8 9.1-24-3.2-27.3-24.9-6.6-31.1 31.7-10.3 32.4 5.1.2 9.3-2.7 13.5-5Zm108.8-362.8c-16.1 1.3-18.6 20.6-6.3 29.8 13.7 10.2 34.5 3.9 28.7-15.7-2.3-8-14.4-14.7-22.4-14.1m-166.5 417.1c-.6.5-5.3 6-5.8 6.7-8.6 13.3 1.2 29.8 17.4 23.4 5.4-2.1 8.7-8.2 10.5-13.5 5.3-15.4-9.2-27.6-22.1-16.6m-32.6 72.9c-19.7 4.1-21.7 39.6 2.6 34.5 17.2-3.6 22.9-39.9-2.6-34.5" class="fill" data-original-prefix="fill"/><path id="fill-ear-rt3" class="fill"  fill="#fff" d="M1721 186c-31.9 28.2-64.8 55.6-96 84.5-20.5 18.9-33 29.2-44.4 55.5-16.7 38.2-28.6 79.6-45.5 118-1.5.4-1.7-.4-2.5-1-5.7-3.9-11.9-10-17.6-14.4-32.2-24.7-65.5-48.1-99.8-69.7l.8-3.5c16.1-12.9 31.8-26.3 48.2-38.8 39-29.7 81.9-61 126.2-81.8 42-19.7 86.2-35.6 130.7-48.8Zm-200.2 209.2c-4.4.3-8.9 3.1-11 7.1-8.3 15.9 17.4 32.4 26.2 21.2 9.4-11.9-.4-29.5-15.2-28.3" class="fill" data-original-prefix="fill"/><path id="fill-ear-rt-rivet5" class="fill"  fill="#fff" d="M1205.8 881.2c.3.4 1.9 6.6 1.9 7.4.3 11.2-17.1 14.3-14.6-1.1.8-5.2 9.9-9.8 12.7-6.3" class="fill" data-original-prefix="fill"/><path id="fill-ear-rt-rivet4" class="fill"  fill="#fff" d="M1235.7 805.2c13.9-2.8 12.2 15.8 1.7 16.8s-11.4-14.8-1.7-16.8" class="fill" data-original-prefix="fill"/><path id="fill-ear-rt-rivet3" class="fill"  fill="#fff" d="M1271.3 740.7c-6.9-5.6 4.4-18.6 11.3-13.8 7.7 5.4-4 19.7-11.3 13.8" class="fill" data-original-prefix="fill"/><path id="fill-ear-rt-rivet2" class="fill"  fill="#fff" d="M1398.7 396.2c10.5-3.1 16.5 14.9 2 11.6-6.3-1.5-8-9.8-2-11.6" class="fill" data-original-prefix="fill"/><path id="fill-ear-rt-rivet1" class="fill"  fill="#fff" d="M1529.7 415.7c-3.4 3.6-10.4 2.4-10.8-3.2-.8-12.8 17.9-4.2 10.8 3.2" class="fill" data-original-prefix="fill"/><path id="outline-shading-ear-rt" class="outline"  fill="#000" d="M1723.2 198.8c1.1.7 3.4 0 3.8.2 1 .9.2 23.2 0 26.5-3 78.4-22 167.1-43.5 242.5-27 94.6-62.5 187.2-112.8 271.8-109 38.4-182.4 127.3-248.3 217.2-6.9 9.3-10.1 16.1-22.2 18.8-16.7 3.7-51.9-3.1-68.2-9.2-8.7-3.3-32.8-19-39.1-26-4.2-4.7-24-40.7-25.5-46.5-.8-3.1-.6-6.3-.4-9.5 9.9-22.1 21.6-43.6 31.1-65.9 6.5-15.3 11.1-31.6 17.3-46.7 4.8-11.7 11.9-22.6 16.2-34.8 14.8-41.1 17.6-100.5 11.1-143.6-1.5-9.8-5.1-16.5-3.9-27.1.9-7.5 7.1-14.2 9-21.5l15 73c62-48.6 120.2-102.4 181.5-152 15.7-12.7 31.6-26.8 49.5-36l-1.5-3c-21.9-15.4-42.7-32.5-65.8-46.2-2.5-1.5-31.8-16.3-30.7-17.8 5.9-1.9 11.6-5.4 16.5-9 3.4-2.5 4.6-7.1 9.8-5.8 3.4.9 18.9 12.1 23.1 15 23.8 16.3 47.4 33.3 70.8 50.3 11.8.5 13.6-2.1 13.4-13.5 12.9-26.7 23-54.7 35.3-81.6 2.3-4.9 5.3-13.5 8.6-17.4 5.9-6.9 18.3-17 25.5-23.5 21.2-19 65.9-59.4 89.8-71.2 4-2 26.6-10.7 30-11.1 3.9-.4 3.4 3 4.5 3.6ZM1703 288c-.6-.8-7.1 4.7-8 5.5-23.5 20-52.6 47-73 70-15.3 17.2-21 36-28 57.5l101.1-74.4c3.3-19.4 6.6-39 7.9-58.5Zm-16 102c-.7-.8-10 6.2-11.3 7.2-33.3 23.5-66 47.9-98.2 72.8-6.6 18.3-12.6 37-16.4 56.1l113.7-77.3 12.3-58.7Zm-207.3 146.7c6.9-24.1 15-48 19.8-72.7l-233.4 175.2c2.2 17.2 3.6 34.5 1.9 51.8zM1634 535c-.7-.8-6.4 4.2-7.5 5-29.9 23.4-62.7 50.7-90.1 76.9-8.9 8.5-20.1 19.2-26 30-3.6 6.6-7.4 20-11.9 25.1-6.7 7.4-25.1 18.6-34 26-19.2 15.8-31.9 28.3-46.3 48.7-16 22.5-29.9 46.6-42.2 71.3l64.3-38.2 115.7-66.3c27.3-58.9 55.3-117.6 78-178.5m-357.3 190.2c-8.5 1.8-10.6 17-2.2 16.8 3.8 0 1.1-3.9 1.8-5 1-1.5 8.5-2.7 8.6-6.4 0-4-4.6-6.1-8.2-5.4m-12.8 16.9c-1.9-1.6-7.4 3-8.8 4.6l-18.8 51.1c-5.9 3.1-15 19.2-5.3 21.9 5.5 1.5 7.5-5.5 10.7-6.4 2.1-.6 4.5.2 6.6-.4 1.6-.5 2.3-2.8 4.2-2.8 3.3 0 6.4 8.5 8.5 7 5.3-16.9 14.6-32.2 20-49-15.5 3.6-14.1-23.4-17.1-26M1224 833c-1.7-1.8-1.7.7-2.1 1.4-3.7 7.3-13.8 39.5-18.6 42.4-3.4 2-12 2.6-11.3 9.7s10.4 3.4 13.5 3.6c2 .1 3.5 2 6 2 1.3 0 4.1-1.4 4.5-1.1 3.2 2.5 3.5 31.1 15.2 9.7l18.8-55.2c-2.7-.5-4.3 1.4-7.5 1.6-6.4.3-11.7-2.7-15.5-7.6-1.7-2.2-2.8-6.2-3-6.5" class="shading" data-original-prefix="shading" opacity=".2"/><path id="outline-shading-ear-rt2" class="outline"  fill="#000" d="M1384 405c2.6-.1 3.5 2.8 5.9 3.5 6.6 2.1 5.5-1.4 7.8-2.5 1.8-.9 7.7-3 9.9-3.8 1.5-.5 3.9.2 5.3-.7 2-1.3.8-9.2 6-4.1 10.2 10-1 33.1-14.4 32.5-10.8-.5-23.4-13.6-20.6-24.9Z" class="shading" data-original-prefix="shading" opacity=".2"/><path id="outline-ear-rt" class="outline"  fill="#000" d="M1734.9 163.1c.9 5.1 2.3 10.3 3 15.5 6 47.5-.5 106.2-7 153.7-17.7 128.1-67.1 281.2-131.7 393.3-2.7 4.6-14.6 24-17.8 26.2-3 2.1-16.3 5.5-21.3 7.7-29.5 12.8-63.7 37.8-88.5 58.5-54.2 45.1-104.1 102.3-138.2 163.9-13 3.4-25.7 8.6-38.7 11.1-16.8-6.7-37.5-5.5-54.2-10.9-6.7-2.2-43.9-21.9-49.8-26.2-16.8-12.5-29.2-53.7-41.2-71.8-1.4-4.6.6-29.6 1.6-35.5 1.6-9.2 25.9-43.5 32.1-54.9 31-57 45.2-134.6 38.8-199.2-.6-6.2-6.4-29.9-5.8-32.8 1-5 11.8-23.5 15-29 22.3-39 50.6-76.1 80.3-109.7 100.4-113.9 223.3-215 374.1-251.9 6.5-1.6 46.4-10.5 49.3-8M1721 186c-44.5 13.2-88.6 29.1-130.7 48.8-44.4 20.8-87.2 52.1-126.2 81.8-16.4 12.5-32.1 25.9-48.2 38.8l-.8 3.5c34.3 21.6 67.6 45 99.8 69.7 5.7 4.4 11.9 10.5 17.6 14.4.8.6.9 1.4 2.5 1 16.9-38.3 28.9-79.7 45.5-118 11.5-26.4 24-36.6 44.4-55.5 31.3-28.9 64.1-56.3 96-84.5Zm-411.3 781.7c66.3-95.2 146-190.2 258.2-231.3 74.9-128.8 125.1-279.4 146.9-427.1 5.3-35.8 9.6-72.1 9.2-108.3-5.5 4.3-9.9 9.8-15 14.5-28.6 26.4-60.4 52.7-87 81-18.7 19.8-26 39.1-36.4 63.6-41.9 98.6-78.9 194.5-108.1 297.9-.5 1.7-.5 3.3-.4 5-27.1-2-60.2-1.1-85.4 10.1-19.7 8.8-54.7 31.7-66.9 49.1-24.6 35.4-46.9 93.6-62.5 134.5-7 18.3-26.4 65.3-26.3 82.8.1 29.7 52.3 43.2 73.8 28.2ZM1288 747c-4.2 2.4-8.4 5.2-13.5 5-20.8-.7-14.6-39 10.3-32.4 12.3 3.3 6.1 19.3 3.2 27.3.3-.2 1.2.5 2.1-.6 1.4-1.8 2.8-7.3 4.1-9.7 6.5-13.2 14.2-31.1 25.3-40.7 8.3-7.2 20-12.5 29.2-18.8 8.4-5.7 40.7-30.4 47.8-31.2 15.1-1.8 46.5 4.4 57.5-7.5 3.6-3.9 9.1-16.2 11.5-21.5 8.5-19 15-39.8 22.8-59.2 13-32.3 26.4-64.4 39.4-96.7 1.2-3.3-4.5-6.8-7.1-9-14.7-12.2-33.3-25-49.2-35.8q-34.8-24-72-44.1c-1.9-.3-8.3 5.6-10.3 7.4-37.4 33.1-77.7 78.5-106.8 119.2-9.4 13.1-41.1 59.8-40.8 73.7 0 4.9 3.4 12.8 4.3 18.5 7 41.8 3.8 106.1-9.9 146.5-4.7 13.8-12.8 26.5-18.2 39.8-13 31.6-24.4 61-38.7 92.3-2.5 5.6-9.5 15.5-8.6 20.9.4 2.5 2.2 5.4 3.3 7.8 3.6 7.8 16.8 34.2 21.5 39.5 2.9 3.2 11.8 9.8 15.7 12.3 7.5 4.9 16.2 8.8 24.3 12.7-7.1-8.7-14.2-19.4-19.8-29.2-1.5-2.6-6.2-10.4-6-12.5 4.2-12.7 9.3-25.2 14.6-37.4 19.4-44.6 48-91.7 64.2-136.3Zm-16.7-6.3c7.3 5.9 18.9-8.3 11.3-13.8-6.9-4.9-18.2 8.2-11.3 13.8" class="outline" data-original-prefix="outline"/><path id="outline-ear-rt4" class="outline"  fill="#000" d="M1197.7 874.2c25.5-5.3 19.7 30.9 2.6 34.5-24.2 5.1-22.3-30.4-2.6-34.5m8.1 7c-2.8-3.5-11.9 1.1-12.7 6.3-2.4 15.4 14.9 12.3 14.6 1.1 0-.9-1.6-7-1.9-7.4" class="outline" data-original-prefix="outline"/><path id="outline-ear-rt3" class="outline"  fill="#000" d="M1230.3 801.3c12.9-11 27.5 1.3 22.1 16.6-1.8 5.3-5.1 11.4-10.5 13.5-16.3 6.3-26.1-10.2-17.4-23.4.5-.7 5.2-6.2 5.8-6.7m5.4 3.9c-9.7 2-8.4 17.8 1.7 16.8s12.2-19.6-1.7-16.8" class="outline" data-original-prefix="outline"/><path id="outline-ear-rt2" class="outline"  fill="#000" d="M1396.8 384.2c8-.6 20.1 6.1 22.4 14.1 5.8 19.6-15 25.9-28.7 15.7-12.3-9.2-9.8-28.5 6.3-29.8m1.9 12c-6 1.8-4.3 10.1 2 11.6 14.5 3.3 8.5-14.7-2-11.6" class="outline" data-original-prefix="outline"/><path id="outline-ear-rt1" class="outline"  fill="#000" d="M1520.8 395.2c14.8-1.1 24.7 16.4 15.2 28.3-8.9 11.2-34.5-5.3-26.2-21.2 2.1-4 6.6-6.8 11-7.1m8.9 20.5c7.1-7.5-11.7-16-10.8-3.2.4 5.6 7.4 6.8 10.8 3.2" class="outline" data-original-prefix="outline"/></g><g id="06_Left Ear" data-trait="battle scars"><path id="fill-ear-lft" class="fill"  fill="#fff" d="M858.7 928.7c-3.7 4.2-14.8 12.9-19.8 16.7-14.6 11.5-32.7 23.6-49.5 31.5-5 2.3-21.9 9.8-26.4 8.7l-60.9-28.2c-24.2-30-45-62.9-68.1-93.9L621.5 828l-113.4-70.7-69.5-84.5-40.8-83.2c-.7-1.3-1-2.7-.8-4.2.9-6.5 16.1-17.9 19.8-24.3 2.3-12.4-1-25.8 3.4-37.7l34.9-31.1c1.7-2.2-3.1-10-6.6-9.6l-68.2 12-2.4-.4-46.8-181.2-8.1-119.8c.2-1.5 11.5-11.4 13-12.1 1.8-.8 4 .7 5.6 1.4 44.7 17.6 88.7 43.3 133.3 61.6l144.9 87.1c34.7 38.2 77.4 72.2 111.6 110.4 19.4 21.7 36.1 47.5 55.3 69.6 7.9 62.9 12.3 126.4 19.6 189.4l79.4 176.7c.6 2.9-1.4 5.4-2.7 7.9-4.2 8.6-19.1 36.9-24.5 43Z" class="fill" data-original-prefix="fill"/><path id="outline-shading-ear-lft" class="outline"  fill="#000" d="M594.1 547.9c22-5.9 44.3-10.2 66.9-13.5 7.1-9 19.6-17 26.6-25.4 5.8-7 6.8-15.9 18.9-7l23.5 42.5c4.3 2.7 21.4 14.9 25.3 14.3 2.1-.3 13.8-7.8 16.5-9.6 2.4-1.6 12.1-10 12.9-10.2 2.8-.5 4.1 5.4 4.4 7.4.8 6.7.3 15.6.6 22.6-1 2.9-8.3 5.5-11.3 7.7-.7.5-1.7-.2-1.2 1.7.2.6 8.7 9.2 9.5 9.6 1.5 1 3-.3 3.4 0s4.2 6.9 4.7 7.9c2.1 4.3 1.7 8-2.2 11l-91-69.8-1.5 2c-.6.4-1.6-1.7-2.5-1.7-2 0-27.4 24.3-30 27.7-2.9 3.7-4.2 7.6-5.5 12 2 .4 2.7-.5 4-1.4 5.7-4.2 10.8-12.5 16.9-16.5.5 2-1.8 2.4-1.8 4.3 0 3.2 4 15.7 5.1 19.9C712 681.5 760 779.2 824 857.7c8 9.7 37.9 40.7 40.3 49.7.9 3.3.4 13.9-.5 17.1-1.2 4.2-33.7 28.5-39.5 32.5-15.2 10.4-31.3 19.8-48.8 26l-39.5-7.4c-25.7-24.5-53.6-47.2-79.1-71.9-3-2.9-8.2-7.4-10.4-10.6-5.3-7.6-11.7-45.5-15.1-57.9-.6-2.2 1.2-3.9-1.4-6.6l-105.6-62.4-.5-6c29.4 9.8 56.5 27.9 84.6 39.8 13.2 5.6 27.2 8.1 40.9 12.1 2.3-6.6-5.6-44.9-9.5-47.5-35.8-2-69.1-17.3-99-36-25.8-16.2-32.8-24.5-49.1-49.9-16.6-25.8-31.6-54.3-43.5-82.5-3.2-7.5-12.3-27.3-11.3-34.2.8-5.2 5-11.1 4.8-16.8 2.3-.5 1.6.3 2.2 1.3 7.3 11.3 21.5 41.5 33.5 46.4 6.6 2.7 6-2.2 4.7-7.7-3.4-14.8-17.2-33.6-16.5-47.5.2-3.3 3.8-28 4.6-29.4 7.8-6.3 20.9-9.5 22.2-20.8.6-15.9-2.7-35.1-.8-50.8.4-3.5 3-5.9 3.1-9 0-3.6-3.2-7.7-3-11.5-1-.9-6.3 4.4-7 5.5-3.5 5.3-1 7.1-1 12 .2 15.8-.4 31.6.8 47.4-5.4.6-21.8 15.6-24.5 16.1-2.6.4-7.5-13.8-10.7-13.8l-59.2 11.8h-11.4c1-3.7-3.3-10.3.7-12.7l69.4-19.6 9-38c-12.9-38.6-33.1-79.6-58.1-112-12.6-16.3-30.2-31-33.9-52.4 3.3-.7 9-4.4 12.2-3.9 2 .3 6.5 4.6 9 6 23.8 13.1 49 29 71 45 38.5 28.1 75.4 83.9 100.1 124.9 9.4 15.6 9.7 19.1 11.6 37.4 2.6 24.6 1.1 32.6 12.2 55.8 3.7 7.7 8.6 14.7 12 22.6ZM719 776c-.4-2.2-3.5-6.6-5.5-7-3.7-.7-16.9 1-19.6 3.5-2.4 2.3-5.9 14.8-7.2 18.8-2.2 7-10.2 31.5-8.5 37.1.6 2.1 4.7 4.7 4.8 7.7l4-6.5 26.5 40.5 4.1-8-26.6-47.6 10.5-38.4H719Zm57 190c-3.3-10-4.9-26.8-9.8-35.7-2.6-4.8-10.8-12.4-14.6-17.4s-9.2-10-8.4-16.1c2.2-15.5 15.7-28.9 22.6-42.5l-6.3-13.3c-1.7.8-16.6 29.2-18.7 33.3-5.5 10.9-16.8 32.7-17.8 44.2-1 12.1.9 25.6 0 37.8l6 3.7 5.5-32zm-103-56 9-49.7-4-9.3c-1.6 0-1.6 3.4-1.8 4.7-1.3 7-1.2 14.9-2.4 21.6-1.4 7.7-5.3 16.6-7.4 24.3 0 1.3 5 10.2 6.6 8.5Z" class="shading" data-original-prefix="shading" opacity=".2"/><path id="outline-ear-lft" class="outline"  fill="#000" d="M844 942c15.6-14.5 32.6-45.7 29.9-67.4-8.3-32.4-25.5-58.9-39.8-88.2-9.5-19.6-31.9-63.6-35-83-3.6-22.2-3.2-46.4-5.1-68.9-.9-9.9-2.5-19.8-3.2-29.8-6.3-5.3-13.4-13.5-21.5-15.5-13.1-3.2-22-2.3-35.1-8.9-19.6-9.8-27.8-25.2-36.6-44.3-10.1 11.4-33.8 25-36.3 40.7-3 19.5 8.4 73.2 16.6 91.9 4.8 11 12.6 21.6 20.2 30.8 48 58.3 66.6 127.3 109.2 188.8 3.4 5 10.1 11.7 12.7 16.3 2.1 3.9 4.1 24.3 4.2 29.8.2 6.4-4.7 10-9.1 14-2.2 2-18.3 15.1-20 13.5.9-5 4-9.7 4.7-14.8 1.7-11.6-1.8-24.2-5.2-35.2-7.9-25.5-21.5-49.2-35-72-1.8 0-16 28-18 32-6.6 13.1-18.4 35.3-19.5 49.5-.9 11.2.6 23.6.2 34.9.6 1.8 15.1 10.8 17.8 12.2 17.1 8.9 28 10.8 47.2 6.2 6.9-1.7 12.8-5.3 19.8-5.7-3.3 5.3-7 6.8-13 9.5-22.4 10.2-58.6 26.5-79.5 6.5-14.3-13.6-27.5-29.5-42.4-42.6-12-10.6-25.8-15.8-32.5-31.5-10.8-25.3-24-65.5-48.8-80.2-12-7-24.9-12.3-37.2-19.8-81.4-50-124-108-162.7-194.3-1.9-4.2-11.8-25.8-11.8-28.2 0-2.2 13.4-12.5 16-15 2.7-2.6 11.5-10.6 12.9-13.1 2.3-4.3 4.9-27 5.1-32.9.1-2.2-1.6-4.2-.9-6.8 1.1-4 16.2-13.1 18.8-17.7-24.9 3.4-48.8 10.4-72 20-1-7.2-5-16.4-5.1-23.5s5.4-15.4 6.1-24c1.3-16.7-1.4-39.1-4.3-55.8-3.8-21.6-9.2-45.2-21.9-63.1-2.7-3.8-8.9-9.4-10.3-12.7-6.4-15-6.2-46.8-7.5-63.5-2.2-29.9-8.2-77.3.5-105.5 1.8-5.8 2.2-6.4 8.7-5.7 12.1 1.1 31.8 7.4 43.8 11.3 83.1 27.2 164 67.2 237 115 21.8 14.3 36.8 25 55.1 43.9 52.6 54.4 98.4 114.5 141.4 176.6 2.3 4.6 2.2 21.8 2.6 28.4 3.6 65.9 7.8 160.8 46.2 215.8 2.9 4.1 7.4 7.9 10 12 6.8 10.6 12 30 17.6 42.4 9.2 20.5 21 34.3 22.2 57.8.2 3.2.5 7.5-.5 10.5-13.8 17.6-24.1 41.8-43.8 53.2-3.7 2.2-8.4 5.1-12.7 5.8ZM702.8 512.2c.5.6 4.5 11.7 6.1 14.4 7 12.8 14.2 25.5 27.2 32.8 3.5 2 12 6.2 15.6 6.5 4.3.3 17.8-8.4 23-10.8 3.5-1.6 7.3-2.7 11-4.1-1.8-14.4-3.9-27.9-12.2-40-21.1-30.9-52.7-69.2-77.9-97.1-58.5-64.7-137.8-110.4-212.8-153.2-45-25.7-91.8-52.4-141.2-68.8-1.9-.6-10.6-3.9-11.5-3-2.9 37.8.8 78 8.3 115.2 4 19.6 13.9 30.2 20.7 48.3 8.5 22.4 17.3 59.3 20 83 2.1 18.7 1.2 37.8 3 56.5 16.7-2.5 33.1-6.7 49.8-9.7 8-1.4 18.2-1.6 25.6-3.4 6.1-1.4 6.8-5.9 8.1-10.9 4.5-17.3 3.6-35.6 5.7-53.3 1.6-4.2 14.7-9.6 14.8-13.2 0-3-13.9-27.1-16.6-31.5-23.5-38.4-55.2-67.1-93-91L354 241.3c-.2-1.5 0-1.7 1.5-1.5 6.7 1 18.7 13.8 24 18 7.9 6.3 17.8 9.2 26 15 53.7 51.2 107.7 99.8 130.4 173.4-15.6 64.6-13.8 128.7 20 187.2 5.6 9.7 23.2 34.9 35.7 21.4 4.4-4.7 7.8-28.3 10-36 3.6-12.6 8.4-25 12.5-37.5 17-13.2 37.3-24 53-39 7.3-6.9 22.3-30.1 30.8-31.3 1.4-.2 4.1 0 5 1.1ZM492 414c-12.8 5.3-8.1 15.2-8 25.5.3 13.3-.8 26.7.8 39.9-21.4 13.6-40.7 29.6-58.8 47.3-2.1 3.3-1.5 24.1-2.1 29.9-1.2 11.2-11.1 18.3-19 25.2 9.9 37 29.1 70.7 51.2 101.6 22.3 31.2 49.9 64.5 81.5 86.5 17.3 12 36.6 20.7 54.6 31.4 8.3 4.9 32.2 18.5 37.7 24.3 4.6 4.8 1.7 5.4 2.4 9.5s5.9 15.5 7.8 20.2c3.3 8.4 7 16.7 11.2 24.8 2.7-4.7 5.1-10.5 6.2-15.8 4-19.5 4.9-44.9 2.1-64.6-1.7-11.9-5-23.5-7.9-35.1.2-2.4 6.1-6.7 8-9 7.9-9.9 13.8-21.5 19-33 0-3.4-13.8-12.7-14.5-15.4-1.5-5.3 0-13.7-.4-19.6-1.1-13.7-9.6-50.9-17.2-61.8-11.8-17.2-26.5 9.3-31 19.7-9.3 21.4-7.6 46.3.4 67.9 2.9 7.9 7.3 15.2 10.8 22.7-1.4 1.3-15.2-6.5-17.7-7.8-15.2-8.2-32.4-19.3-45.8-30.2-4.2-3.4-15.7-12.9-18.4-16.6-3-4-9.1-42.7-11.4-51.6-8.6-32.6-20.5-64.9-41.6-91.5-.3-1.7 5.1-9.4 6.3-12.3 14.2-33 3.6-78.9-6.5-112Zm298 177c-1.2-2.4-1.8-28.5-3.5-28l-15.5 9.5c1.2 2.6 13.2 14.9 16 17 1 .8 1.3 1.9 3 1.5m-83 168c.2-1.4 0-2.6-.5-4S694 738.9 693 738.4c-2-1-7.1 5-8.5 6.5-14.2 16.1-18.4 33-13.5 54 2.6.3 1.6 0 2-1.5 2.5-8.6 4.9-28.8 9.9-35.1 3.2-4 18.5-2.4 24-3.5Zm4.8 9.2c-5.4.2-17 .9-19.7 5.4-3.1 5.1-13 38.5-13.9 45.1-.4 3-.8 8.6.3 11.2l33.6 50.4 3.3 2.7 36.5-56.5c.2-4.3-21.2-36.1-25.1-41.8-2-2.8-10.6-16-12.5-16.5-1-.3-1.6 0-2.4 0ZM708 946l-1.7-42.8c-7.9-17.7-17.7-36.5-28.1-52.9-.6-.9-.9-2.2-2.2-2.3-1.2 18.6-3.3 37.2-10.8 54.3 2.6 3.7 4.8 7.8 7.8 11.2 6.1 7 24.9 25.5 32 31 1 .8 1.3 1.9 3 1.5" class="outline" data-original-prefix="outline"/></g><g id="07_Head" data-trait="hippy"><defs></defs><path id="fill-head-main" class="fill"  d="m1178.8 802.2 9.2 27.3c5.9 13.4 47.8 43.6 61.5 52.5 8.3 5.4 26.1 17.1 34.5 20.5 11.5 4.5 29.3 7.2 42 11 32.6 9.7 71.6 23.3 99.9 42.1 8 5.3 22.9 15.9 21.9 26.6-.6 5.8-5.1 14.9-8 20.1-5.8 10.3-13.1 12.9-7.7 26 7.4 17.9 35.3 49.6 36.7 65.3 1.7 18.4-9.8 56.9-20.1 72.7-4.4 6.7-11.2 6-8.6 16 25.6 77.9 49.3 155.8 87.2 228.8 15.9 30.6 33.9 62.5 56.5 88.5-10.9.4-23.7-3.2-34-7-7-2.6-17.2-9.9-24.3-8.4-.2 0-2.7 2.5-2.7 2.7-1.4 7 7.7 17.1 11.1 23.6 15.7 29.8 9.5 64.7 8.8 97.1-.9 42.2-1.7 84.3-3 126.5-2.3.6-1.7-.4-2.3-1.3-3.9-5-8.8-14.2-11.9-20.1-11.6-21.6-21.6-44.1-33.3-65.7-7.6-14.1-17.6-34.8-26.7-47.3-2.5-3.4-8-6-10.9-2.3-1.7 2.2.4 20.9 0 26.1-1.4 19.7-11.2 46.1-18.2 64.8-17.2 45.7-43 98.1-70.9 138.1-8.5 12.2-18.2 23.6-26.8 35.7-1.6.3-.9-1.3-1-2.5-1-20.7-1.1-41.4-3-62-1.1-11.2-3.1-22.5-4.2-33.8-8.1-9.9-17.6 9.5-22.8 15.7-18.2 21.7-40.6 46.6-61.4 65.6-14.2 12.9-30.6 20.7-47.8 29.2-6.3 3.1-13 5.6-19.2 8.8 7.2-22.2 9.6-46.2 11.5-69.5.7-8.4 1.7-17.7 2.1-25.9.2-4.2.9-22.3-2-24.1-7.2-4.2-12.4 7.3-16.5 11.5-11.2 11.6-28.1 24.8-41.1 34.9-22.4 17.6-46.8 36.7-73.9 46.1.7-19.4 5.8-39.5-.5-58.6l-30.5-37.5c-2.1-1.5-7-1.5-9.1 0l-30.5 37.5c-6.2 19.1-1.2 39.1-.5 58.6-27.1-9.3-51.5-28.4-73.9-46.1-12.9-10.1-29.8-23.3-41.1-34.9-4.1-4.2-9.3-15.8-16.5-11.5-3 1.8-2.2 19.9-2 24.1.3 8.3 1.3 17.6 2 25.9 2 23.3 4.3 47.3 11.5 69.5-6.2-3.2-12.9-5.7-19.2-8.8-17.2-8.5-33.6-16.2-47.8-29.2-20.9-18.9-43.3-43.9-61.5-65.6-3-3.6-12.3-17.8-15.6-18.5-2.6-.5-6.3-.3-7.2 2.7-1.1 11.3-3.2 22.5-4.2 33.8-1.9 20.7-2 41.3-3 62 0 1.1.7 2.8-1 2.5-8.6-12.1-18.3-23.4-26.8-35.7-29.1-41.8-56.7-98.1-73.9-146.1-9.1-25.3-18.4-52.5-14.2-79.8-.8-6.8-8.3-5.7-11.9-.8-9.1 12.6-19 33.2-26.7 47.3-15 27.7-28.1 59.9-45.2 85.8-.7 1.1.1 2.1-1.8.2-1.8-17.8-.9-35.7-1.4-53.6-1.1-37.9-3.3-76-3-114 .2-22.4-1.2-34.2 9.8-55.1 3.4-6.5 12.5-16.6 11.1-23.6 0-.2-2.5-2.6-2.7-2.7-7.1-1.5-17.3 5.8-24.3 8.4-10.6 4-22.7 6.9-34 7.5 22.5-26.6 40.5-58.1 56.5-89 37.9-72.9 61.7-150.9 87.2-228.8 1.8-11.3-3.7-8.5-8.5-16-10.2-15.7-21.7-54.2-20.1-72.7 1.4-15.7 29.3-47.4 36.7-65.3 5.5-13.2-1.9-15.7-7.7-26-2.9-5.2-7.4-14.3-8-20.1-1-10.7 13.9-21.3 21.9-26.6 28.4-18.8 67.3-32.4 99.9-42.1 12.7-3.8 30.5-6.5 42-11 8.3-3.3 25.7-14.8 33.9-20.1 13.8-8.9 56.1-39.4 62.1-52.9 2.9-6.5 5.7-22 8.9-26.8 1.7-2.5 20.6-5 24.7-5.5 81.4-10.8 178.4-10.9 259.9 0 4 .5 23.6 3.2 25.3 5.2l.3.2ZM1191 1245c-2.1-67.9-54.3-118.6-83.4-176.1-15.4-3.2-31.3-4.4-47-6-28.2-2.9-45.1-2.9-73.2 0-15 1.5-29.9 3-44.8 5.2l-2.6 1.4c-28.7 57.3-81.1 108.1-83 175.6-6.8-5.6-13-13.4-17.2-21.3-2.2-4.2-9.1-24.9-10.2-25.8-5.7-4.4-11.2 3.5-14.6 7.6-9.3 11.6-19.1 30.9-24 45-10.6 30.1-10.3 61.9-10 93.5-16.9-18.1-33.9-50.5-36-75.5-.7-8.2 4-23.9-9.6-18.6l-44.6 78.4c-3.5 10.4-13.9 24.6-14.9 35.1-1.6 18.1 0 45.7 2.2 63.9.5 3.7 3.1 20.2 4.8 22.2 3.6 4.3 15.1-3.3 16.9 3.1 1.4 4.9.6 12.7 1.2 17.8 1.8 14.9 3.3 30 5.1 44.9 2.8 22.6 25.5 11.9 37.3 26.7 18.7 23.5 17.8 61.2 40.1 86.9 3.5 4.1 24.3 26.1 28.3 15.2 2.5-13.8 1.3-31.2 13.7-40.3 8.4 12.7 12.9 26.4 26.8 34.2 5.1 2.8 10.4 3.7 15.1 5.9 10.8 5.3 18.3 27.4 26.2 36.8 16.4 19.7 80.7 44.2 106.2 50.8 13.4 3.5 20 6.3 34 3.6 32.8-6.3 85.3-27 111.9-47.1 13.1-9.9 14.6-19.1 23.3-31.7 10.4-15.2 12.8-10.7 26.7-18.3 13.4-7.3 19.7-22.2 26.3-35.2 7.9 5.9 9.9 14.6 11.7 23.8.8 3.9 1.6 17.5 3.7 19.3 5.3 4.4 14.7-4.9 18.6-8.6 32.4-29.8 26.5-69 48.6-95.4 9.5-11.3 18.9-7.1 29.1-12.9 8.3-4.7 8.5-15.2 8.3-23.7l6.2-52.8c3.2-7 14.2 2.7 17.5-4.5 2.6-5.8 4.6-23.7 5.2-30.8 1.3-14.7 2.8-41.9.9-55.9-.8-5.7-11.2-26.4-14.4-32.6-13.4-25.8-30-50.1-42.7-76.3-1.3-4.1-9.5-5.4-11.3-1.7-1.5 3-.2 13.2-.5 17.5-2 25-19.1 57.4-36 75.5 0-30.7.5-62.6-9.6-92-4.8-14-15-34.2-24-46-16.2-20.9-16.2-3.2-22.2 10.6-4.6 10.5-11.2 21.1-20.2 28.3v.3Z" class="fill" data-original-prefix="fill"/><path id="fill-head-band" class="fill"  d="M1000.8 881.3c59.5-2 123.6 4.2 182.5 12.9 79.2 11.6 175.1 32.3 242.6 76.4 8.3 5.4 12 4.6 7.9 14.8-4.3 10.9-15.7 26.6-18.4 36.6-1.1 3.9 2.5 9.1 4.4 12.7 9.9 18.7 23.3 36.9 31.2 56.8-1.3 10.9-2.2 21.8-4.6 32.5-1.1 4.8-5.6 22.9-8 26-1.6 2.1-6.7-.3-8.9-1.1-14.6-5.6-32.9-18.8-47.6-26.4-40.6-21-82.4-33.9-126.6-45.4-157.5-41-305.3-41-462.8 0-44.2 11.5-86 24.4-126.6 45.4-14.8 7.6-33 20.7-47.6 26.4-10.6 4.1-9.5.4-12.6-9.1-5.3-15.9-7.4-32.6-8.7-49.2 10.7-22.8 24.7-43.8 36-66.2.3-4.4-16.8-33-19.5-40.4-.9-2.4-2.7-5.3-.5-7.5 63.3-42.3 139.4-62.9 213.8-76.2 56.4-10.1 116.7-17.1 174-19m54.4 49.5c-.5-.5-2.6-7.2-4.8-9.7-10.4-11.7-39.1-11.7-50.8-1.9-4.6 3.8-5.5 10.2-6.9 11.6s-9 3.1-11.7 4.8c-14.8 9.2-25.8 31.5-12.5 46.4 1.8 2 6.2 3.9 6.4 4.2.5.7-1.7 4.8-1.8 6.5-3.2 28.4 33.2 34.3 51.3 19.5 17.7 15.3 53.7 8.4 50.6-19.5-.2-1.7-2.3-5.8-1.8-6.5.2-.3 4.4-2.1 5.9-3.6 14.9-15.4 1.7-39.8-14.6-48.3-2.1-1.1-8.8-3-9.1-3.4h-.2ZM851 1025c5.8 10.2 21.1 7.7 30.4 3.8 12.3-5.1 22.6-14.3 19.2-28.9-.8-3.4-4.8-6.7-4.6-9.4 0-1.5 5.7-11 6.7-15.4 6.7-28.3-9.5-42.5-37-40.4-5.4-8.6-8.2-16-20.1-15.9-13.6 0-41.6 8.7-37.5 27-22.9-1.3-32.1 41.9-21.4 55.9 2.9 3.8 9 5.7 9.3 6.2.4.5-1 5.5-1 7.4.2 15.7 35.2 30.7 47.6 19.5 2-1.8 6.7-11.3 8.5-10v.2zm389-79c4-18.3-23.9-26.9-37.6-27-11.9 0-14.7 7.3-20.1 15.9-27.6-2.1-43.8 12.1-37.1 40.4 1 4.4 6.6 13.9 6.7 15.4.2 2.7-3.8 6-4.6 9.4-3.4 14.6 6.9 23.8 19.2 28.9 9.3 3.9 24.6 6.3 30.4-3.8 1.9-1.3 6.4 8.1 8.5 10 11.8 10.7 44.8-2.9 47.2-16.7.6-3.1-1-9.8-.7-10.2.2-.3 5-1.9 7-3.6 14.6-12.5 4.6-60-19-58.5v-.2Zm-537 119c13.3 5.4 22.6-.5 31-10.5 6.7-8 16.4-23 7.6-32.5-1.3-1.5-5.1-3-5.4-4.6 0-.6 2.7-6.8 2.9-9.8.8-9.2-2.1-25.3-10.1-31-10.9-7.8-26.9-4.4-34.4 6.4-11.2-21.3-39.8-3.9-41.5 14.5-.3 3.1 1.5 14 1 14.5s-6 .2-10 5.5c-7.3 9.9-9.6 30.6.5 39.5 2.9 2.6 9 3.7 9.4 4.1.8.9-1.4 10.4 3.1 16.4 11.2 15.1 46.2 9.6 46-12.5Zm647.7-85.7c-8.8-7.6-21.7-9.8-31.6-2.8-8.2 5.8-11.3 23.5-10 32.8.3 2.4 3 6.9 2.8 8-.3 1.5-4.1 3.1-5.4 4.6-8.9 9.6 1.2 25 8 33.1 8.3 9.8 17.5 15.3 30.5 10-.5 22.9 38 27.8 47.2 10.7 2.5-4.7 1.4-14 1.9-14.6.3-.4 6.1-1.5 8.8-3.7 10.9-8.8 8.5-30.7.6-40.4-3.9-4.8-9.1-4.6-9.5-5-.6-.6 1.3-12.7.5-17-2.9-16.9-30.9-32.5-41.1-12-1.4-.8-1.9-2.8-2.8-3.6Z" class="fill" data-original-prefix="fill"/><g id="fill-head-flowers" class="fill" ><path id="fill-head10" class="fill"  d="M858 951.9c2.1 3 12.4-3.4 15.5-3.9 22.5-3.5 25.8 27.8 13.4 35.4-3.1 1.9-8.7 1-9 5.1-.2 2.7 3.2 4.8 4.6 7.4 4.6 8.5 1.6 15.8-5.8 21.3-13.3 9.9-17.7 2.4-27.2-7.2l-10 12c-8 6-24.8 1.8-29.6-6.5-3-5.2.3-13.3.6-18.6-3.8-1.9-6.7 0-10.5-2.5-7.8-5.1-8.9-17.7-5.8-25.8 4.6-11.9 12.5-15.3 24.8-13.1 2-10.9-1.6-17.4 11-22.1 11.9-4.5 23.4-4.6 27.7 9.3 1 3.2 0 8.8.3 9.1Zm-20.3 3.3c-27.5 4.4-26.7 47.1.8 50.7 39.1 5.1 39.4-57.1-.8-50.7" class="fill" data-original-prefix="fill"/><path id="fill-head9" class="fill"  d="M1224.7 937.3c6.4 6.1 1.4 14 3.8 17.7 1 1.5 7.1-.2 9.9 0 16.1 1.4 22.8 26.7 11.2 37.9-4.7 4.5-6.6 1.8-10.9 3.1-3.5 1.1 0 5.5.4 8.3.9 8.3-.2 12.3-7.3 16.7-13 7.9-26.9 3.1-31.7-11.2-7.4 3-10.6 13.7-20.2 11.8s-19.3-13.3-15.2-23.8c1.5-3.8 6.2-7.1 5.3-10.3s-4.7-2.3-6.9-3.2c-14.4-6.1-12.3-41 12.3-36.3 2.8.5 12.6 6.7 14.7 3.7.6-.9-.7-3.8-.6-5.3.5-5.7 5.4-14.2 11.4-15.4s19.3 1.7 23.9 6.1v.2zm-25 17.9c-8.4 1.5-18.4 10.7-19.7 19.3-5.2 37.7 46.5 42.4 50.7 8.7 2.1-17.4-14.1-30.9-31-28" class="fill" data-original-prefix="fill"/><path id="fill-head8" class="fill"  d="M1352.3 998.7c5.4 5.4 7-5.8 8.5-8.5 5.9-10.5 19.8-4.4 23.8 4.7 5.1 11.9-4.1 17.8-3.4 21.4.6 3.4 9.2 3.5 11.8 5.2 7.5 4.8 6.3 21.1-.4 26.5-6.6 5.2-13.9-3.2-15.5-2-2.1 1.6 1.4 6 1.7 7.8 2.1 10.6 3.8 21.5-10.9 20-15.5-1.5-10.1-14.1-11.8-23.3-1.6-8.3-11.1 1.1-15.3 2.7-12.9 4.9-24.9-5.7-23.7-18.7.9-9.7 14.2-8.5 14-15 0-3.2-9.4-6.2-10.7-14.2-2.3-13.5 6.8-24.5 20.8-20.8 8 2.1 7.7 10.8 11.2 14.3Zm10.5 7.5c-26.8 1.5-26.2 45 4.6 40.7 8.3-1.2 17.1-9.5 16.5-18.3-.7-9.2-11.2-23-21.1-22.4" class="fill" data-original-prefix="fill"/><path id="fill-head7" class="fill"  d="M724.7 1050.7c-5.4 4.9-11.6 4.8-18 2.2-3.8-1.5-12.4-9.9-14.4-3.2-2.2 7.4 3.8 18.1-7.2 22.8-9.3 4-17.5.9-17-10 0-3.6 4.2-15.6 3-16.5-.8-.6-7.6 3.5-9.8 3.8-10.9 1.4-15.1-20.2-7.2-27.3 3.1-2.8 12.2-2.6 12.9-6.1.6-3-7.6-9.4-4.1-20.1 3.2-9.7 18.3-16.9 24.4-6 2 3.6 1.4 9.8 6.2 9.4s5.3-13.1 13.6-15.2c14-3.7 23.1 7.3 20.8 20.8-1.4 8-10.7 11-10.7 14.2-.2 6.1 12.1 5.9 13.8 13.2 1.3 5.6-2 14.1-6.1 17.9h-.2Zm-41.9-44.5c-7.3.8-15.5 11-17.5 17.6-7.2 23.6 30.2 32.9 38 11 4.9-13.8-5.6-30.3-20.5-28.6" class="fill" data-original-prefix="fill"/><path id="fill-head6" class="fill"  d="M1059.1 979.1c-1.4 2.2 2.4 6.8 2.8 9.4 2.4 14.8-5.4 22-20 19-6.4-1.3-12.2-8.7-18.4-8.5-5.7.2-11.4 7.2-17.5 8.5-14.6 3-22.4-4.2-20-19 .5-2.9 3.6-6 3-8.9 0-.4-6.1-3.3-7.6-4.6-9.1-8.5-8.8-22.1 2.3-28.6 4.7-2.8 14.6-3.6 16.7-5.3 1.9-1.4 2.3-6.8 3.6-9.4 7.9-16.3 32.5-15.6 40 .6 1.1 2.4 1.2 7.3 3.2 8.8s11.5 2.5 15.5 4.5c12 6.2 13.3 20.4 3.6 29.4-1.8 1.6-7.1 3.8-7.4 4.1zm-38.3-37.8c-37 4.5-22.9 65.6 12.5 51.5 26.5-10.6 18.4-55.2-12.5-51.5" class="fill" data-original-prefix="fill"/><path id="fill-head5" class="fill"  d="M855.7 991.7c-2.8 2.5-10.3 4.6-14.1 4.4-22.8-1.2-19.1-35.7 4-34.1 13.2.9 19.7 21 10.1 29.7" class="fill" data-original-prefix="fill"/><path id="fill-head4" class="fill"  d="M1192.3 991.7c-9.6-8.7-3-28.8 10.1-29.7 23.1-1.6 26.8 32.9 4 34.1-3.8.2-11.3-1.8-14.1-4.4" class="fill" data-original-prefix="fill"/><path id="fill-head3" class="fill"  d="M1359.7 1014.2c19.5-4 25.5 24.8 5.8 24.8s-20.2-21.8-5.8-24.8" class="fill" data-original-prefix="fill"/><path id="fill-head2" class="fill"  d="M680.7 1014.2c22.9-4.8 20.3 28-1.2 24.7-14-2.2-10.5-22.3 1.2-24.7" class="fill" data-original-prefix="fill"/><path id="fill-head1" class="fill"  d="M1021.7 947.2c8-1.6 19 8.7 20.2 16.3 4.9 30.7-42 29.4-35.7-.8 1.2-5.7 9.8-14.4 15.5-15.5" class="fill" data-original-prefix="fill"/></g><g id="outline-head" class="outline" ><path id="outline-head10" class="outline"  d="M851 1025c-1.8-1.3-6.5 8.2-8.5 10-12.4 11.2-47.3-3.8-47.6-19.5 0-1.9 1.4-6.9 1-7.4-.3-.5-6.4-2.3-9.3-6.2-10.7-14-1.5-57.2 21.4-55.9-4-18.3 23.9-26.9 37.5-27 11.9 0 14.7 7.3 20.1 15.9 27.6-2.1 43.8 12.1 37 40.4-1 4.4-6.6 13.9-6.7 15.4-.2 2.7 3.8 6 4.6 9.4 3.4 14.6-6.9 23.8-19.2 28.9-9.3 3.9-24.6 6.3-30.4-3.8v-.2zm7-73.1c-.3-.4.7-6-.3-9.1-4.3-13.9-15.8-13.7-27.7-9.3-12.5 4.7-9 11.2-11 22.1-12.4-2.2-20.3 1.2-24.8 13.1-3.1 8.1-2 20.7 5.8 25.8 3.9 2.5 6.8.6 10.5 2.5-.3 5.3-3.6 13.4-.6 18.6 4.7 8.2 21.6 12.5 29.6 6.5l10-12c9.5 9.6 13.9 17.1 27.2 7.2 7.5-5.5 10.4-12.7 5.8-21.3-1.4-2.6-4.8-4.7-4.6-7.4.3-4.2 5.9-3.2 9-5.1 12.3-7.6 9.1-38.9-13.4-35.4-3.1.5-13.5 6.8-15.5 3.9Z" class="outline" data-original-prefix="outline"/><path id="outline-head9" class="outline"  d="M1240 946c23.6-1.4 33.7 46.1 19 58.5-1.9 1.6-6.7 3.2-7 3.6s1.3 7.1.7 10.2c-2.5 13.8-35.5 27.4-47.2 16.7-2.1-1.9-6.6-11.2-8.5-10-5.8 10.2-21.1 7.7-30.4 3.8-12.3-5.1-22.6-14.3-19.2-28.9.8-3.4 4.8-6.7 4.6-9.4 0-1.5-5.7-11-6.7-15.4-6.7-28.3 9.5-42.5 37.1-40.4 5.4-8.6 8.2-16 20.1-15.9 13.6 0 41.6 8.7 37.6 27v.2Zm-15.3-8.7c-4.7-4.5-17.7-7.4-23.9-6.1s-10.9 9.7-11.4 15.4c0 1.5 1.2 4.4.6 5.3-2.1 3-11.9-3.2-14.7-3.7-24.6-4.7-26.7 30.2-12.3 36.3 2.2.9 6 0 6.9 3.2s-3.9 6.5-5.3 10.3c-4 10.5 5.1 21.8 15.2 23.8s12.9-8.8 20.2-11.8c4.8 14.3 18.7 19.1 31.7 11.2 7.2-4.4 8.3-8.5 7.3-16.7-.3-2.8-3.9-7.2-.4-8.3 4.2-1.3 6.2 1.4 10.9-3.1 11.6-11.2 4.9-36.5-11.2-37.9-2.9-.2-8.9 1.5-9.9 0-2.4-3.7 2.6-11.6-3.8-17.7v-.2z" class="outline" data-original-prefix="outline"/><path id="outline-head8" class="outline"  d="M1350.7 979.3c1 .8 1.5 2.8 2.8 3.6 10.1-20.5 38.1-4.9 41.1 12 .8 4.4-1.2 16.4-.5 17 .4.4 5.6.2 9.5 5 7.9 9.8 10.3 31.7-.6 40.4-2.8 2.2-8.5 3.3-8.8 3.7-.5.6.6 9.9-1.9 14.6-9.2 17.1-47.7 12.2-47.2-10.7-13 5.3-22.2-.2-30.5-10-6.9-8-16.9-23.4-8-33.1 1.3-1.5 5.1-3 5.4-4.6.2-1-2.4-5.6-2.8-8-1.3-9.4 1.8-27 10-32.8 9.9-7 22.7-4.8 31.6 2.8Zm1.6 19.4c-3.5-3.5-3.3-12.2-11.2-14.3-14-3.7-23.1 7.3-20.8 20.8 1.4 8 10.7 11 10.7 14.2.2 6.5-13.2 5.4-14 15-1.2 13 10.9 23.6 23.7 18.7 4.2-1.6 13.7-10.9 15.3-2.7 1.8 9.2-3.7 21.7 11.8 23.3s13.1-9.5 10.9-20c-.3-1.8-3.8-6.2-1.7-7.8 1.6-1.2 8.9 7.2 15.5 2 6.8-5.4 7.9-21.7.4-26.5-2.7-1.7-11.2-1.8-11.8-5.2-.7-3.6 8.5-9.5 3.4-21.4-3.9-9.1-17.9-15.2-23.8-4.7-1.5 2.7-3.1 13.8-8.5 8.5Z" class="outline" data-original-prefix="outline"/><path id="outline-head7" class="outline"  d="M703 1065c.3 22-34.8 27.6-46 12.5-4.5-6-2.3-15.5-3.1-16.4-.3-.4-6.5-1.5-9.4-4.1-10.1-8.9-7.8-29.6-.5-39.5 3.9-5.3 9.6-5.1 10-5.5s-1.2-11.4-1-14.5c1.7-18.4 30.3-35.8 41.5-14.5 7.5-10.8 23.5-14.2 34.4-6.4 8 5.7 10.9 21.7 10.1 31-.2 3-3 9.2-2.9 9.8.3 1.5 4.1 3.1 5.4 4.6 8.8 9.5-.9 24.5-7.6 32.5-8.3 10-17.7 15.9-31 10.5Zm21.7-14.3c4.1-3.8 7.4-12.3 6.1-17.9-1.7-7.3-13.9-7.1-13.8-13.2 0-3.2 9.4-6.2 10.7-14.2 2.3-13.5-6.8-24.5-20.8-20.8-8.3 2.2-9.1 14.9-13.6 15.2s-4.1-5.8-6.2-9.4c-6.1-11-21.3-3.8-24.4 6-3.5 10.7 4.7 17.1 4.1 20.1-.6 3.5-9.8 3.3-12.9 6.1-7.8 7.2-3.6 28.8 7.2 27.3 2.2-.3 9-4.4 9.8-3.8 1.2.9-2.9 12.9-3 16.5-.4 10.9 7.7 14 17 10 11-4.7 5-15.4 7.2-22.8 2-6.8 10.7 1.7 14.4 3.2 6.4 2.6 12.7 2.7 18-2.2h.2Z" class="outline" data-original-prefix="outline"/><path id="outline-head6" class="outline"  d="M1055.2 930.8c.3.3 7.1 2.3 9.1 3.4 16.3 8.5 29.6 33 14.6 48.3-1.5 1.6-5.7 3.3-5.9 3.6-.5.7 1.7 4.8 1.8 6.5 3.1 27.9-32.9 34.8-50.6 19.5-18.1 14.8-54.5 8.9-51.3-19.5.2-1.7 2.3-5.8 1.8-6.5-.2-.3-4.6-2.2-6.4-4.2-13.3-14.8-2.3-37.2 12.5-46.4 2.7-1.7 11.2-4.4 11.7-4.8 1.4-1.4 2.3-7.8 6.9-11.6 11.7-9.8 40.3-9.8 50.8 1.9 2.2 2.5 4.3 9.2 4.8 9.7h.2Zm3.9 48.3c.2-.4 5.6-2.5 7.4-4.1 9.7-9 8.4-23.2-3.6-29.4-4-2-13.6-3-15.5-4.5s-2.1-6.4-3.2-8.8c-7.6-16.2-32.1-17-40-.6-1.2 2.6-1.7 8-3.6 9.4-2.2 1.7-12 2.5-16.7 5.3-11.1 6.6-11.5 20.2-2.3 28.6 1.5 1.4 7.5 4.2 7.6 4.6.6 2.9-2.5 6-3 8.9-2.4 14.8 5.4 22 20 19 6.2-1.3 11.9-8.3 17.5-8.5 6.2-.2 12 7.2 18.4 8.5 14.6 3 22.4-4.2 20-19-.4-2.7-4.2-7.2-2.8-9.4z" class="outline" data-original-prefix="outline"/><path id="outline-head5" class="outline"  d="M837.7 955.2c40.2-6.5 40 55.8.8 50.7-27.5-3.6-28.3-46.3-.8-50.7m18 36.5c9.6-8.7 3-28.8-10.1-29.7-23.1-1.6-26.8 32.9-4 34.1 3.8.2 11.3-1.8 14.1-4.4" class="outline" data-original-prefix="outline"/><path id="outline-head4" class="outline"  d="M1199.7 955.2c16.9-2.9 33.1 10.6 31 28-4.1 33.7-55.9 29-50.7-8.7 1.2-8.6 11.2-17.9 19.7-19.3m-7.4 36.5c2.8 2.5 10.3 4.6 14.1 4.4 22.8-1.2 19.1-35.7-4-34.1-13.2.9-19.7 21-10.1 29.7" class="outline" data-original-prefix="outline"/><path id="outline-head3" class="outline"  d="M1362.8 1006.2c10-.6 20.5 13.3 21.1 22.4.6 8.8-8.2 17.1-16.5 18.3-30.8 4.3-31.3-39.2-4.6-40.7m-3.1 8c-14.4 3-9.9 24.8 5.8 24.8s13.7-28.9-5.8-24.8" class="outline" data-original-prefix="outline"/><path id="outline-head2" class="outline"  d="M682.8 1006.2c15-1.7 25.5 14.9 20.5 28.6-7.8 21.9-45.2 12.5-38-11 2-6.6 10.2-16.8 17.5-17.6m-2.1 8c-11.7 2.4-15.2 22.5-1.2 24.7 21.5 3.3 24.1-29.5 1.2-24.7" class="outline" data-original-prefix="outline"/><path id="outline-head1" class="outline"  d="M1020.8 941.3c30.9-3.8 39 40.9 12.5 51.5-35.4 14.2-49.4-47-12.5-51.5m.9 5.9c-5.7 1.1-14.3 9.8-15.5 15.5-6.3 30.3 40.6 31.6 35.7.8-1.2-7.6-12.2-17.9-20.2-16.3" class="outline" data-original-prefix="outline"/></g><g id="shading-head" class="shading"  opacity=".5"><polygon id="shading-head1" class="shading"  fill="#aaa" points="1271 899 1271 899 1271.1 899.1 1271 899" data-name="shading-head"/><path id="shading-head2" class="shading"  d="M781.4 902.1c12.7-2.9 25.6-5.5 38.5-7.7 51-8.6 98.5-15 150.6-16.4 66.3-1.7 135.1-1.6 200.3 7.8 32.4 4.6 64.9 9 96.8 16.3l3.4-3.1-32.9-19.4c-140.1-21.9-286.1-21.7-426.4-.4l-34.6 20.4c1.9.9 2.1 3.2 4.3 2.5" class="shading" data-name="shading-head" data-original-prefix="shading"/><path id="shading-head3" class="shading"  d="M1581.1 1496.4c-2.4-3.7-9.1-12.5-12.1-15.9-.3-.4-.8-.8-1.3-1.2-.8-1-1.4-1.6-1.7-1.8-.9-.3-1.8-.7-2.6-1-2.3-1.3-5.1-2.6-8.1-4-7.2-4.8-3.8-8.3-19.4-16.9-23.9-49.7-51.1-102.4-67.7-156.3-10-32-32.6-76-33.8-106.2 0-8 .6-12.1 1.1-14.3.2 0 .4.2.7.3v-1.8c.7-1.7 1.2-1.5.5-3.9 1.5-4.6 6.1-5.2 9.6-10.4 8.1-12.3 6.3-20.8 8.9-34.1 1.9-10.1 8.9-30.6 8.7-39.3 0-5.1-15.7-25.7-19.4-31.6-4.3-6.9-16.6-25.6-17.5-32.5-.4-3.6.2-7.7 0-11.4-7.8.6-16.5-.8-24.2.3-4.4.6-9.2 1.9-8.9 7.2.2 4.6 3.8 3.4 6.6 5.5 4.8 3.5 9.7 10.4 14.5 14.5 9.4 8 19.9 14.7 28.8 23.1l-13.8 70.4c-9.6-4.2-17.8-10.7-27.3-15.2-76.1-36.3-164.2-59.2-247.3-72.7-52.1-8.5-105.1-16.4-157.9-14.2-19 .8-38.9 4.6-57.8 7.2-81.4 11.1-160 27-236.9 56.1-29 11-58 23-84.7 38.8l-13.8-70.4c9.2-8.8 20.1-15.8 29.8-24.1 4.5-3.8 9-10.2 13.5-13.5 2.8-2.1 6.4-.9 6.6-5.5.2-5.3-4.5-6.6-8.9-7.2-7.6-1.1-16.4.2-24.2-.3 2.2 13.5-6 24.9-12.6 35.9-7.8 13.1-17.7 25-24.4 38.7 2 13.9 6 27.4 8.7 41.2 2.5 12.7.9 21.4 8.9 33.1 4.6 6.8 11.5 6.2 9.4 16.1 21.1-6.9 41.5-16.3 62.5-24 .4-.2.9-.3 1.3-.5-13 19.9-28.4 41.9-46.8 50.6-37.4 13.2 6.8-68.4-48.2 94.2-16.4 53.9-44.1 106.5-67.7 156.3-2.1 2.6-8.1 4.4-10.7 6.8-2.6 4.9-5.4 7.9-9 10.2-2.6 1.2-5.1 2.4-7.2 3.6-1 .4-2.1.8-3.2 1.3-1.9 1.4-3.6 3.3-5.2 5.5-4.5 5.7-8 12.9-13.8 17.5h.1c6 0 12.1-1.2 18.2-2.8 2.7-.6 5.4-1.3 8-2.1 3.4-1.1 7-2.7 10.5-4.4 5.2-2.1 10.2-4.2 15-6.1.4 0 .8-.2 1.2-.3 2.3 0 4.8.5 7-.5.5-.2 3.8-2.7 7.7-5.8 3.7-2.4 7.2-5.2 10.5-8.3 2.3-1.9 4.1-3.3 4.6-3.8l3-4c4.1-4.6 8-9.3 11.7-13.8 7.7-10.7 14.4-23.3 20.7-34.9l4.8 1.5v1.4c-.5 9.2 4.6 21.4-1.7 28.7-1.2 3.9 1.4 6.8 3.2 9.2.3.4.5.8.8 1.2.5.8.7 1.5.6 2.2-34.1 49-49 114.3-56.5 172.5-.5 1.4-1 2.5-1.4 3.3-.3.4-.5.8-.8 1.2-.5.6-.9.7-1.4.5 0 0-.2 0-.3-.2-.8-.6-1.8-2.1-3.2-4.3 0 0-.2-.3-.3-.4-2.1-3.4-4.1-7.4-5.6-11.6-1.7-5.9-2.3-12.1-2.1-18.1.4-2.9.8-5.7.7-8.2v-.8c-.4-2.8-4-15.3-5.5-16.4-2.2-1.5-6.8-1.6-8.1 1.1l.4 18.9c-1.2 25 .8 67.8 2.2 99.1l.9 39h.3-.1.2c1.5.2 1.7-.8 2.5-1.7.4-.5.9-1.1 1.4-1.8 9.2-10.4 21.4-37.1 34-63.9 10.2-20.4 20.5-40.7 32.2-60.2 5.6-7.3 10.6-10.9 14.6-8.7 0 2.7.2 5.5.3 8.2-.2 1.2-.5 2.4-.5 3.5-.4 21.7 6 47.1 14.9 71.6 12.2 38.1 30.9 75.2 52.3 109.9 14.3 24.8 30.3 48.5 48.8 70.3.2.3.5.6.7.9v-3.2c2.3-28.3 1.9-57 6-85.1 2.7-12.6 6.5-14.6 12.5-9.7 9.1 12 18.8 23.7 28.9 35.1 10.5 13.1 23.6 28.1 40 42.2 4.9 4.7 9.7 9.1 14.2 12.5 3.5 2.7 8.9 5.8 14.7 8.8 11.4 7.1 23.9 13.4 37.7 18.5 2.3 1 4.1 1.7 4.8 1.7s.3 0 .5.2c-5.3-13.1-7.1-26.7-8.9-40.6-2.8-22.6-2.5-46.8-5.2-68.8-1.3-10.4-8.2-20.7-3.9-32.6 1.4.9 2.5 1.9 3.4 3.1 4.2 5.3 5.1 12.9 8.3 18.2 4.5 7.3 14.5 17 25.1 26.2 17.7 16.5 39 33.3 60.1 46.6 6.3 4.4 12.6 8.4 18.3 11.7 5.7 3.2 11.8 5.6 18 7.6 1.4.6 2.8 1.1 4.2 1.7v-.4h.4c-.5-9.5-2.6-21.4-3.2-32.8 1.6-13.8 6.1-25.8 9.7-33.6 1.3-1.4 2.5-2.8 3.3-4.2 1.4-2.5 1-3.9 1.9-5 1.3-.3 2.5-1 3.6-2 .3 0 .7-.2 1.1-.3l12.1-15.9-3.8 1.8c1.4-2.8 2.4-5.1 2.9-5.7 1.1-1.3 6.7-7.1 7.9-6.9 1 1 3.8 5.8 7.3 11.3l-1.1-.5 12.1 15.9c.5 0 1 .3 1.4.4 1.2 1 2.3 1.6 3.4 1.9.9 1.2.5 2.6 1.9 5.1.9 1.7 2.4 3.3 4 4.9 3.5 7.5 7.7 18.8 9.1 32.6-.6 11.5-2.6 23.5-3.1 33.1h.4v.4l2.7-1.2c6.8-2.1 13.3-4.6 19.5-8.1 6.3-3.6 13.3-8.1 20.3-13.1 22.2-13.7 44.7-30.7 62.6-49.2 8.8-7.9 16.7-15.9 20.7-22.3 1.9-3 2.9-6.2 4.2-9.6 2-3.4 3.7-6.8 5.3-10.3 0 0 .2-.2.2-.3s0-.2.2-.3c3.2-4.2 2.7 10.4 2.9 12.8-1.3 4-2.4 8-3.3 12.1-.6 2-1.2 3.9-1.4 5.8-.4 2.8-.7 5.6-.9 8.5-2.1 16.6-2.1 33.8-3.1 50.7-.3 3.6-.7 7.1-1.1 10.6-1.1 8.4-2.2 16.6-4 24.7-1.3 5-2.9 9.9-5 14.8 0 .3 0 .5.3.7 0 .2 0 .3-.2.5h.8c2.7.8 10.6-4.1 15.6-6.8 1.1-.5 2-1 2.7-1.3.2 0 .4-.2.6-.2 9.8-3.9 18.9-8.7 27.4-14.1 4.1-2.3 7.7-4.5 10.4-6.5 2.5-1.9 5-4.1 7.7-6.4 18-14.5 32.6-31.1 44.3-45.8 10.9-12.1 21.4-24.7 31.2-37.6 5.4-4 9.3-2.7 12 6.8v.7c4 26.2 4.3 52.8 5.9 79.2 0 2.9 0 5.9.2 8.9 0 0 .3-.2.4-.3 0 .9 0 1.7.2 2.6 3.5-4.3 7-8.7 10.4-13 11.9-13.6 23.2-32.6 34-52.2 9.8-17.4 19.3-35.4 28.3-52.5 0-.3.3-.5.4-.8 9.2-15.8 18-34.4 25.3-54 9.6-24.3 17.2-49.9 18-72.5.7-7 1.1-13.8 1-20.3 3.6-2.1 8.4 1.6 13.8 8.9 7.9 12.5 16.2 29.3 22.7 41.4 1.9 3.6 3.8 7.2 5.7 10.9 12.9 26.9 25.5 54.9 34.2 66.5 1.7 2.8 3.1 5 3.5 5.2 1 .5 1.4.6 1.9 0h.2v-.5s0-.2.2-.3c1.2-1.6 2.4-14.4 2.6-17.4 1.3-23.1 1.3-47.2 2-70.4v-.4c.3-5.9 1.3-28.5.6-45.8v-17.2c-.8-1.5-2-2.3-3.3-2.7-.9-1.3-2-1.4-3.3 0-1.6.6-3.1 1.8-3.9 3.7-.5 1.3-2.4 9.1-3.1 12.4v1.2c-.4 3.4.4 6.4.8 9.6 0 7.5-1.2 14.6-3.9 21.4-1 2.2-2.2 4.4-3.5 6.5-.8 1.2-3.1 5.7-4.7 6.2-.2 0-.4-.3-.8-.7-11.2-53.5-22.6-128.8-57.5-175.3-2.4-2-3.5-3.3-3.8-4.4.9-2.1 1.6-4.2 2-6.1 1.6-7.3 3.4-22.7 3.7-30.3 0-1.2.2-2.6.2-3.9 5.1-3.5 4.2 0 6.3 3.3 6.1 9.8 11.8 19.9 18.3 29.3.3.3.5.7.8 1 4.4 6.4 9.2 12.5 14.7 18 .2-1.4.9-1.8 1.9-1.5 9.6 7.7 20.3 14.1 30.9 19.7 1.2.6 2.3 1.2 3.5 1.8 11.4 6.2 23.5 11.4 34.4 12.1 2.9.5 5.8.8 8.8.9.3-1.7-.2-2.4-1-3.6v.2ZM1421 1207.5c0 3 0 1.8-1.2.2-9-8.4-21.5-18.7-29.2-27.8-6.1-6.5-10.7-16.1-15.9-24.5 6.9 2.5 13.8 5.1 20.7 7.7 7.1 14.9 18.1 32.7 25.7 44.3Zm-166.2-90.6c17.2 26.8 32.1 54.9 40.5 84.3 2.3 24.1-6 51.9-13.3 74.8l-5.3-11.6c-1.5-3.7-3.2-7.3-5-10.8l-2.1-4.6c-6.7-51.9-33.2-96.6-66-136-1.3 7.6 8.2 22.4 10.2 31.8 2.5 15.6 9.1 30.3 10.3 46.2l-11-6h-.2l-3.6 8.1c-.6 1.1-1.2 2.1-1.9 3.2l-9.3 13.5c-.3-1.5-.7-3-1.1-4.5-6.5-31.4-20.1-61.1-36.3-88.6l-14.8-22.7c36.9 5.3 73.2 13.2 109 22.9Zm43.2 147.6c1-13.1 4.6-26.2 4-39.5 1.7-2 5.6 7 7 7 .6-5.7.5-11.8 1.1-17.4 2.7-11 3.8 7.8.8 10.9 0 .6 1.4 10.9 1.6 11.5 22.3 33.9 53.5 73.7 65.4 114.3-5.9-12-12.5-23.8-16.4-31-9.7-17.6-21.8-40.8-32.8-57.2-1.3-1.8-3-5.2-4.5-6.5-3.5-3-8.7-3.7-6.2 2.2v.7c1.3 2.5 2.6 4.9 3.8 7.2 2.9 5.6 6.1 11.2 9.4 16.9 19.4 33.9 35.4 56.7 40.8 86.3 0 2.4 0 4.9.2 7.6.2 1.7.8 3.3 1.4 5.1.4 5.3.4 10.9 0 16.7-.9 3.5-2 6.9-2.5 10.4-1.1 7.9-1.5 16-2.5 23.9-1.2 5.2-2.5 10.6-4.1 16.3-1.8.7-6.2 0-10 0s-2.7 0-3.9.5c-.7.2-1.3.6-1.7 1-3.3 3.7-2.6 13.4-1.2 23.4 1.2 12.4 3.3 25.7 1.5 28.4 0 0-.3.2-.5.4-2.1 0-3.5.5-4.6 1.2-.6.2-1.2.6-1.6 1.2q-.15.3-.3.9c-2.1 4.3 0 12.1-4.5 18.4 0 .2-.3.4-.5.6-2.3 2.4-5.4 3.9-8.8 5-6.5 1.5-13.6.3-16.6 2.6-2.2 2.2-4.2 4.6-6 7.1-2.9 3.2-5.2 7.6-7.1 12.5-2.7 6-4.6 12.5-5.9 19.2-.5 1.8-.9 3.6-1.4 5.4-3.7-1.7-6.3 17.1-7.6 18.3-9.4-2.5-4.8 9.3-5.8 14.7v.3q-2.4 3.75-5.1 7.5c-5.5 6.9-13.5 15.8-16.5 18.6-5.2 4.6-10.3 7.1-15 10.1-.6.2-1.2.5-1.9.9-.8.5-1.6 1.3-2.6 2.3-2.7 2.1-5.1 4.7-7.3 8.3-.3-3.5-1.5-8.7-.4-11.9v-.2c.2-.3.5-.5.7-.7 1.8-1.1 5.4-1.7 5-6.2-.2-1.9-1.3-2.8-2.6-3.2-1.7-.6-3.7-.3-4.4-.4-.3-.5-.7-6.7-.7-7.4v-.6l.6-1.8c1.2-3.1 3.5-6.4 3-10.5 0-1-1.6-3.7-3.3-6.3q-1.5-2.55-2.7-3.6c-1-1.2-1.9-1.9-2.5-1.7s-1 .7-1.6 1.7c-4.1 3.9-7.2 19.3-13.4 28-3 3.1-6.7 5.3-10.6 7-9.4 3.7-16.8 1.4-24.9 10.6-11.7 13.3-9.3 43.6-34 45.4-44.6 22.6-88.8 42.9-136.8 36-10-2.5-20.3-5.4-25.7-6.9-2.6-.7-5.2-1.4-7.7-2.2-5.1-1.7-10.1-3.7-14.9-5.9-8.7-5.5-18.5-10.1-28.2-14.7-8.8-4.9-17.5-9.9-26.4-14.4-2.5-2-4.6-4.9-6.6-8.2-1.1-2-2.2-4-3.2-6.1-3.6-7.4-6.9-15.5-11.6-21-1.4-2-2.9-3.8-4.6-5.5-2.1-1-4.1-1.9-5.9-2.8-2.5-1.4-5-2.6-7.6-3.8-10-5.3-15.9-10-21.9-18.1-3.8-6.5-7-13.9-11.5-19.3-.7 0-1.7.7-2.8 2-3 2.6-4.4 5.1-5 7.7-.4.8-.6 1.4-.6 1.7-.4 2.5 0 4.1.7 5.6.6 4.3 1.6 8.9 0 14.2-4.2 1.3-5.2 2.8-4.9 4.7v.4c0 1.2.8 2.5 1.7 3.9 1.2 2.5 2.2 5.4.7 8.7-.4.4-.8.6-1.2.5-.3-.3-.7-.8-1.1-1.1-.6-.5-1.2-.9-1.8-1.4-1.2-1.5-2.4-3.2-3.5-3.5-.6 0-1.3-.2-2-.4-7.3-5-14.2-9.3-21.3-17.2-6.3-7-10.8-14.8-14.3-22.9-.4-9.6.6-6.3-5.1-13.3-.9-2.7-1.7-5.3-2.6-8-1.3-5.5-3.1-12.5-4-12.8-3.5-10.9-7.5-21.2-14.1-29.9-2.1-2.8-4.2-4.8-6.2-6.2-.8-1.1-1.3-2.3-1.6-3.6-9.8-1.2-17.2-1.8-22.4-4.7-6.7-4.1-6.7-9.6-8.1-17.2l-.3-1.8v-4.8q-.9-2.1-1.5-5.4c-.6-5.1-1.2-10.3-1.7-15.5-.3-5.1-.7-10.4-1.1-15.3-.3-5.9-.6-12.3-1.9-15.9-.7-2.1-1.9-3-3.3-3.3 0 0-.2-.2-.3-.2-1.2-.3-2.7.3-4.3.9-2.7.8-5.6 1.8-7.9.4 0 0-.2 0-.3-.2-1-1.6-1.8-3.6-2.5-5.8-2.5-10.2-3.7-30-4.4-34.9-.5-3.2-1.3-6-2.2-8.8-1-5.4-1.4-10.8-1.2-16.1.7-2.7 2-4.9 2.4-7.3.7-4.4 0-8.2.2-12.3 4.5-19.1 14.4-37.4 25-55.4 10.3-17.2 21.2-34.2 29.1-51 2.5-6.1-2.9-5.1-6.3-2.3-2.2 1.8-5.4 8.1-7.1 10.9-11.6 19.2-31.7 52.1-45.1 79.8 6.4-30 35.2-66.7 51.5-93.2 3.8-6.3 15-15.1 11.7-22.3 4.2-8.2-2.3-11.2 1-21.5 3.6 6 1.6 15.1 3 22 1.4 0 5.2-9 7-7l3 36-4-4-.3-.2v15.5c0 8.6 7.4 26.8 15.3 42.1l.3.6c5.8 11.5 12.3 21.8 17.7 27.4 1 1 1.3 1.9 3 1.5.8-29.7-.5-59.4 8.5-88 6.8-25.1 20.1-38.2 33.7-58.8 2.5-1.1 4.4-.5 6 1.2 1.7 3.3 4.8 11.4 7.1 17.4.6 1.8 1.2 3.4 1.9 4.7.3.8.6 1.4.8 1.8 1.4 2.7 3.5 6.3 5.1 8.9.2.3.9 1.4 2 2.8 2.9 4.6 5.2 7.4 6.9 8.6 1.8 1.9 3.3 3 4 2.3 0-1.2.2-2.4.3-3.6 2.7-5.7 2.9-22.9 6.7-41.6 2.9-11 6.9-21.3 11.5-31.3l1.7 1.7c12.2-33.6 33-66.9 61.5-89 6-22.4 20.3-11.5 57.8-22.8 13.7-1.2 27.3-1.8 41-1.3 7.4.3 15.6 1 24 1.8 33.8 9.5 48.5 5.5 48.2 22.3 8.6 6.8 16.5 14.5 23.7 23 9.6 14.2 19.4 28.2 27.9 42.8 3.8 7.6 7.1 15.4 9.9 23.1l1.4-1.5c4.8 10.5 8.9 21.5 11.7 33.4 3.4 14.1 5.5 28.5 6.5 43 0 0 .2 0 .3-.2v.2c1.7-1.2 3.3-2.5 4.7-4 0 0 .2-.2.4-.3.2-.2.4-.5.7-.7.6-.6 1.1-1.2 1.7-1.8 0 0 0-.2.2-.2.3-.3.6-.7.9-1.1.2-.3.5-.6.7-.9 0-.2.3-.4.4-.6 2.8-3.7 5.1-7.9 7.3-12.1 1.5-3 2.8-5.9 4-8.6.3-.6.6-1.6 1-2.7 2.1-5.1 4.1-10.1 6.1-14.5.3-.2.6-.3.9-.5 1.5-.5 2.6-.6 3.4-.5 1.7.7 2.1 3.1 3.2 4.4 5.4 5.6 10.1 11.6 14.2 17.8 5.6 8.8 10.4 18.5 14.3 28.3 4.8 12.8 7.8 26.3 9.7 40 2 17.5 1.8 35.2 2.4 52.7v4.2l.3-.3v.3c4-4.2 7.7-8.9 11.1-13.9 11.2-15.8 19.6-34.5 23-53.5.7-3.9 1.2-7.8 1.4-11.6 0-1.6.2-3.3.2-4.9-.3 0-.6-.2-.9 0-1.4 0-1.8 1.1-2.5 2.4-.6 1-1.1 2-1.6 3.2v-1l.5.3Zm94 269.5c2.4-1 7.8-6.3 13.7-12.6 11.6 31.5 19.9 68.9 18.7 104.4v.8c-.4 10.5-1.7 20.9-3.9 30.9-1.3 4.9-2.8 9.6-4.6 14.3-5.1-34.9-20.9-75.9-37.9-110.3.2-.7.4-1.4.6-2 1.9-3.5 5.2-17.1 7-22.4 1-1.5 2-1.5 4.1-2.5.8 0 1.7-.2 2.4-.5Zm-55.9 144.8c-2.2 8.9-5.3 17.9-8.8 26.6-2.8 6.4-5.9 12.6-9.1 18.9-2.1 3.6-4.2 7.2-6.2 11-.9 1.7-1.7 4.2-2.6 6.7-1.2 2.4-2.3 4.9-3.4 7.4l-12 8.7c13.5-42.9 11.5-88.7 6.2-132.9 3.8-4.2 7.4-8.3 10.8-12.5.9-.7 1.6-1 2-.7 8.3 37.7 2.1 69.8 1 107 8.8-25.2 10.2-54.3 14-81l4 12c.6-24.4-1.9-54.2 1.1-80.6 2.1-9.9 5.3-26.8 6.3-27.5 1.1-.3 1.9 1.2 2.4 1.9 5.2 6 15.5 33.8 17.1 34.9.3.2.6.3.9.2 1.1.2 4.5-2.9 8.1-6.7.4-.2.7-.3.9 0 27.5 57.3 43.9 130.7 6.5 187 11.5-56-4.2-76.1-21.5-127-4.7 25.9 4.9 56.7 4 84-6.2-17-15-51.7-26-66 1.8 10.1 4.8 19.5 4.4 28.8h-.2v-.2Zm-162.9 61.6c-2 2.1-4.1 4.2-6.4 6.4-6.3 5.6-13.1 11.1-15.8 14.2.3-16.5-1.5-33-4.1-49.3 5-3.4 10.2-6.6 14.9-10.3 8.5-4.6 10.3-10.8 13.1-18l2.4-5.3c.2-.4.4-.7.6-1.1 1.4 15.7 4 40.4 1.8 55.3v.2c-2.7 3.5-5.4 6.7-6.5 7.9M939 1793c-1.6-1.2-2.7-2.2-2.8-2.7-.6-17.6-7.4-40 3.3-55.3 1 22.7 5.7 44.7 13.5 66h-.8c-4.4-2.5-8.8-5.2-13.2-7.9m-194.5-41.7c-1.2-1.2-2.3-2.5-3.2-3.8-1.3-2.6-2.6-5.2-3.8-7.8l-.6-2.1c-1.6-2.9-3.2-5.9-4.8-8.8-6.6-13.4-13-26.8-18.1-41.4v-.3c-2.7-11.8-2.7-24 2.1-37.1-12 16.4-19.4 46.7-26 66l5-84c-14.1 36.3-34.9 73-24 113-1-1.2-1.9-2.3-2.8-3.5-2.9-4.6-5.7-9.2-8.5-13.8-23-47.2-.5-111.9 19.3-156.7.5-.4 6.2 8.2 9.4 7.8h.4v-.2c1.2-1.5 2.7-4.9 4.4-9.1 2.5-5.8 4.7-11.8 7.8-17.3.5-.9 3.1-5.6 5.3-8.4.8-.8 1.6-1.4 2.5-1.7.5 1.2.9 2.4 1.3 3.6 1.5 6.8 2.8 13.6 4.4 20.3 3.3 26.9-.7 57.4 1.3 83.1l3-10c5 24.3 7.5 51.8 13 77 6.6-6-4.9-47.5-3.1-60.5l6.1-43.5c.7-.8 3.3 1.8 6 4.8l2.1 2.4c2.2 2.6 4.2 5.1 4.8 5.5-6.1 44.5-7 89.8 5.7 133.2-.8-.4-1.6-.9-2.3-1.4-2.2-1.7-4.4-3.4-6.7-5.2ZM624 1626.5c0-1.5-.2-2.9-.3-4.3-.9-34.8 7.3-71.4 18.7-101 1.4 1.4 2.7 2.8 4 4 2.6 3 5.3 6.1 8.6 8.2.6.2 1.1.4 1.7.5.4.2.9.3 1.3.4 3.5 1.2 4.3 2.2 4.7 7.4 2.3 6.6 5.7 12.9 7.4 19.7-15.9 35.9-34.6 71.5-37.1 111.5-3.5-9.2-5.9-19-7.4-29.1-.7-5.2-1.2-10.9-1.6-17.3m201.4 56.3v-30.5c0-.5.7-1.5 1-2.5 1.2-.5 2.6-.5 4-.3 1.3.4 3.2.9 5.2 1.6 5 2.1 10.2 5.3 14.4 5.5-20.1 39.2-35.3 82.1-38 126.5-1.5.2-1.5-2.7-1.7-3.8-5.6-35.8-9.9-72-5.3-108.2 1.6-1.7 16.3 11.7 20 12v-.4s.3 0 .4.2Zm45.8-5c4.2 18.9 13.2 23.6 29.7 33.3-2.7 16.5-3.8 33.2-4.4 49.9-9.6-9-19.8-17.5-28.1-27.9 0-18.2-2.9-38.6 2.5-55.9 0 .2.2.4.2.6Zm-90.2 62.7c0 1.2 3.8 18.2-1 14.5-11.7-29.7-27-79.4-14.5-110 14.5 15 23.2 23.9 16.5 45.5-1.3 16.4-2.3 33.7-1 50m184 53.5-3.8-7.8c.5-14-8.3-32.5-7.2-46.2l27 12.6c-8.1 13.1-14 25.9-16 41.4m251-143.5c2.8-.8 5-1.3 5.9-1.5.2 0 .3.2.4.7l.7 24.1v9.1c.6-.2 1.8-.8 3.2-1.7 4.9-2.7 9.4-5.8 13.7-9.3 1.6-.9 2.7-1.4 3.1-1 3.8 35.4.9 72.1-5.3 107.2-.2 1.2-.2 4.8-1.7 4.8-3.7-43.6-16.6-87.9-39-125.5 0-.3.9-.8 2.3-1.5 5.5-2.1 11.1-3.9 16.7-5.5Zm47 18.1c44.9-73.2 15.5 71.6 4.9 86.3-.4.2-2.8.2-2.9 0 4.4-27.6 1.8-58.6-2-86.4m-169 71.5c-1.7 18.4-5.9 36.7-10.5 54-7.5-45.4-35.1-34.5 10.5-54m.7 61.3c7.7-21.3 13-43.5 13.3-66.3 11.9 14.5 3.7 37.9 3.8 55.3 0 .3-.3.7-.7 1.1-5.4 3.4-10.9 6.7-16.4 9.9m279.8-40.3v-1c.7.3.7.7 0 1m-500.9-619.5c-10.8 21.6-19.2 44.4-23.5 68.3v.2l-7.4-10.8c-1.7-2.6-3.3-5.2-4.6-7.7l-2.9-6.5c-2.1 1-4.2 2-6.2 3.2-8.6 4.5-4.1 1.6-2.3-13.2 1.3-21 40.1-97.9-.3-38.3-34.8 39.9-39.5 93-60.2 139.3-31.8-66.4-8.7-111.7 25.4-158.8 35.7-9.6 71.9-17.5 108.3-22.9-9.8 15.1-18.6 30.9-26.1 47.1h-.2ZM750 1264c0 .2-.2.2-.3.2-.3-.5-.5-1.1-.8-1.6 0-.2 0-.4.2-.6.3-.7 1.7.6 1 2zm-201 149.6c20.7-59.9 41.8-119.6 77.8-172.2 21.9-26.1 40.8-56.8 53.3-88.7 27.2-9.8 54.8-19.1 82.8-27.3-8.8 10.7-17.9 22.9-29.8 38.3-17.2 21.3-18.3 41.3-27.2 65.8-25.8 64.1-68.9 130.4-48.8 201.7-.5 0-1-.4-1.5-.8-.6-.8-1.1-1.7-1.7-2.5-1.7-2.8-1.8-7.5-5.6-7.7-1.9-3.4-3.5-6.4-4.3-6.8-10.2.9-9.6 31.6-11.9 40.4-4.9 8.7-1.9-20-4-23-6.1-52.4 22.8-101.6 33-147.5-27.2 51.6-52.9 99.2-49.5 158.5-7.4-10.4-13.5-21.5-14-30.4-.3-5.2 1.8-10.8.9-16.3-.4.4-1.1 1-1.9 1.7-.3-8.5 0-16.4.7-22.8 1.7-10.3 14.5-25.3 18.2-35.8 7.2-27.5 19.1-54.9 31-81-46.4 43.4-51.6 113.1-97.5 156.5Zm43-23.4c-.4 4.4-1.1 9.2-3 13.3-1.2 1.3-2.1 2.4-2.3 3.1 0 .3-.2.6-.2.9 0 .2-.3.3-.4.5-6 2.6 5.4-15.4 6-17.8Zm9.4 83.7c1.1 2.4-2.2 4.9-4.4 7.1l2.5-9c.4.3.8.5 1.1.8.3.4.6.7.8 1Zm-6.9 33.1c6.1-7.8-4.5 25.4-2 25 6.6 4.4 17.7-37.1 20.5-43 1 .9 1.9 1.6 2.6 2.3 1.4 1.6 2.7 3.2 4.1 4.7 1.8 3.4-.2 5.8-2.2 12.9-1.9 6.8-3.8 20.5-6.2 25.8-.5.4-1.1.9-1.6 1.3-10.4 5.8-29.5 27.5-36.7 36.3-3.1 3.9-6.2 7.9-9.2 11.9 4.9-13.8 18-70.4 30.8-77.4v.2Zm870.3 13.7 19.2 63.3c-.3-.4-.7-.9-1-1.3-8.9-12.1-18.4-23.5-28.9-33.4-1.3-1.3-12.3-10.5-17.4-13.6-1.6-3.8-4-18.3-5.2-22.7-2.4-6.9-5.3-11.5-4.6-15.6 1.9-2.2 3.9-4.6 6.1-7.2.6-.4 1.3-.8 2-1.2 2.4 7.4 13.3 39.8 18 43.5 6.5-2.4-2.3-20.2-2-27.5zM1449 1471l2 10c-1.7-1.9-5-4.5-5.5-6.7.7-1 1.4-1.9 2-2.9.4-.2.9-.3 1.5-.4m6-83c.3-.7 1.7.6 1 2-.3.7-1.7-.6-1-2m5.9 20.1c-.7-1.1-1.6-2.4-2.7-3.7-.8-4.5-1.8-11.7-2.2-13.4l8 17h-3.1Zm-59.4-151.1c11.2 25.9 24.2 52.1 30.3 79.7 15.7 27.5 21.5 36.6 20.3 60-.5-.6-.9-1.3-1.2-1.8-1.2 4.2 0 8.4.3 12.6-.3 3-.7 6.3-1.2 9.8-.2.6-.4 1.8-.7 3.4-2.6 7.4-7.3 15.4-12.9 23-.2-6.6.5-13.1.7-20.3-1.2-28.2-7.5-53.5-19.2-78.8-9.7-21-20.8-41.7-32.4-61.6-1.2.4-.3 2.2 0 3 19.9 53.8 45.2 112.1 31.5 170.9-2.8-6.7-3.6-44.8-12.9-43.9-.6.4-2.2 3.3-4.2 6.6-2.2-.7-5.5 6.6-7.3 10.3-.6.5-1.1.9-1.7 1 19.7-71-22.8-137.7-48.8-201.8-8.5-32.8-19.6-60.8-43.7-84.3-3.7-5.6-8.8-12.5-14.2-19.6 28.5 8.5 56.8 18.1 84.8 28.3 40.6 84.4 107.2 160.8 128.1 254.7.4 1.2 2.6 6.2.8 6.8-42.1-47.3-51.6-113.1-96.5-158Z" class="shading" data-name="shading-head" data-original-prefix="shading"/><path id="shading-head4" class="shading"  d="M1332 1650" class="shading" data-name="shading-head" data-original-prefix="shading"/></g><path id="outline-head1" class="outline"  d="m1602 1507 .3-.2c-4.2-5-10.8-7.6-15.4-12.1-15.1-14.9-33.2-48-43.8-67.2-43.4-78.5-70.4-162.3-97.7-247.4-.5-4.1 5.2-6.3 8-10.5 12.4-18.8 27-69.2 17.3-89.7-8.1-17.1-24.6-34.6-33.1-52.9-4.9-10.5 1.5-12 6.3-20.7 17-31 8.3-40.5-18.9-57.7-26.2-16.5-58.8-28.4-88.4-37.6-15.5-4.8-34.2-8-48.8-13.2-8.8-3.2-25.2-14-33.6-19.4-14.8-9.5-54.1-37.2-61.3-51.7-2.7-5.5-7.8-27.4-11.5-29.5-4.2-2.5-22.8-4.4-28.8-5.2-82.3-11-183.6-10.9-265.8 1.1-5.3.8-19.9 2.3-22.4 6.6-3.8 6.7-5.3 19.5-9 27-7.2 14.5-46.5 42.1-61.3 51.7-8.3 5.5-24.8 16.2-33.6 19.4-14.6 5.2-33.3 8.4-48.8 13.2-29.6 9.2-62.2 21.1-88.4 37.6-27.2 17.1-36 26.7-18.9 57.7 4.8 8.7 11.2 10.2 6.3 20.7-8.5 18.3-25 35.8-33.1 52.9-9.7 20.5 4.9 70.9 17.3 89.7 2.8 4.2 8.5 6.3 8 10.5-10.5 32.9-21 65.7-32.5 98-2.3 5.6-4.5 11-6.2 15.6-21 58.1-47.4 117.3-80.6 169.4-8.5 13.4-17.3 26.9-29.4 37.1-2.2 1.5-4.5 3-6.4 4.8-.9.6-1.7 1.1-2.6 1.7h3.5c18.4 0 36.4-3.8 53.5-10.2 5.8-2.1 11.4-4.5 17.1-7.3l-16.2 29.2c-8.2 26.1-4.2 54.3-3.8 81.2.6 36.5 1.8 72.7 3 109 .5 15.2.3 30.4 1 45.5l.9-1.5v1l83.9-151c-3.6 29.6 6.3 58.5 16.4 85.8 24.8 66.5 61.2 132.7 107.7 186.3l2 .5v-.7l.9.2c-.7-29 1.2-57.6 4.1-86.4l3.6-22.1c10.4 16.1 23.7 30.9 36.8 45 12.4 13.2 39.4 42.9 53.5 51.5 13.4 8.2 34.1 17.6 48.7 24.3 3.2 1.5 12.1 6 14.8 6.2 1.1 0 1.5 0 1.5-.4.9 0 .9 0 .7-1.4-1.7-7.6-8-18-10.2-26.8-4.3-17.2-6.2-42.2-7.7-60.3-1.1-12.3-1.5-24.7-1.9-37.1 15.5 18.9 35 34.4 54.2 49.4 23.9 18.5 49.6 39.4 79.4 46.6v-.3c2.2-.2 1.3-4.6 1.3-6.6-.8-16-7.4-42.4 0-56.8 1.2-2.3 5.1-6.8 6.9-9.1 6.3-8 14.2-15.4 20.5-23.7l2.2-2.5c7.5 10.8 17.8 20.1 25.5 30.5 13.2 17.9 5 41.5 4 61.9 0 2-1 6.7 1.5 6.6 2.7 0 8.3-2.2 13.2-4.2 7.4-2.8 14.5-6.5 21.3-10.7 9.3-5.6 18.6-12.3 27.5-19 25.4-18.4 51.2-38.8 71.5-62.4-1.6 27.6-3 56.3-7.1 83.7-.7 4.8-1.4 9.7-2.6 14.4-2.2 8.8-8.5 19.2-10.2 26.8-.4 1.6 0 1.5 1.4 1.4 2.7-.2 11.7-4.7 14.8-6.2 9.2-4.2 24.8-11.2 37.7-18.1 7.4-3.9 14-7.8 18.2-11.2 4.6-3.8 9.1-8 13.6-12.4 10.9-10.5 21.4-22.3 31.7-33.9 3.9-4.1 7.8-8 11.7-11.6l9.8-12c1.3-1.4 2.7-2.8 4-4.1l8.6-11.3 5.5-6.7c1 14.4 3.8 28.7 5 43.1 1.8 21.3.5 43.2 2 64 0 1.5-.8 2.9 1.5 2.5l.3-.3h.4c27.4-30.5 49.5-64.1 68.7-100.3 14.6-27.4 28.8-57.3 39.6-86.4 10.1-26.9 19.7-55.8 16.6-85l83.9 151.1v-1.7l.8 1.4c.8-16.1.5-32.3 1-48.5 1.1-36 2.4-71.9 3-108 .4-26.6 4.7-54.7-4.5-80.4l-15.1-27.2c20.8 9.9 43.2 16.2 66.3 16.9 2.4.2 4.8.3 7.3.4v-.3Zm-107.4-51.2-1.4-.6 23.5 54c9.1 51.6 11.6 106.9 13.6 159.4.4 10.9 0 21.8.7 32.7l-24.5-54.3c-5.9-43.1-11.8-87.1-32.7-125.8-.5-.9-8-14.7-8.5-9.5 8 34.3 19.6 67.9 25.7 102.7-15.5-30.9-35.4-65.8-58.5-83.6-.9-.8-1.3-1.8-2.8-1.5-.4-.2-.8-.2-1.4 0l6 64.5c.8 27.9.7 54.9-10 81l-6 14.5c-3.9-18.2-3.3-37-8.5-55l-18.6-41.9c-10-2.8-4.3 11.9-2.8 17.3 4.9 16.7 12.3 31.3 14.8 49.2 2 14.9 4.3 46.6 2.1 60.8-.4 2.6-4.7 10.8-6.1 13.9-15.8 34.9-35.4 69.1-52.7 103.3-.5-.7 0-2.3 0-3.1-1-27.8 1.1-56.1 0-84.1-1.6-37.5-4.4-90.1-17.8-125.2-.5-1.3-.6-2.9-2.3-3.2v1.2c0-.4-.3-.8-.4-1.2-4.2 39.2-8.9 79.2-19.8 117.2-9 31.3-28.6 54.1-50.7 77.3-16.2 17.1-32.9 31.5-52.5 44.4 3.7-22 7.9-44.2 9.5-66.5s2.3-48.7-1.3-70.7c-2.5-15.2-9.1-27.9-18.7-39.8 0 .3 0 .7-.2 1-.3-.3-.5-.7-.8-1-1.8 11.9-2.9 24.1-5.7 35.8-6.9 29.2-28.1 50.8-48.8 71.2-1.1-27.8 1.1-56.7-9.4-83.1 15.5-7.7 32.2-17.1 35.7-21.8 7.9-10.8 9-33.2 22.4-38.6.6-.2 1.2-.5 1.8-.7 3.9-1.3 8.4-2.3 12.7-3.7 7.4-2.2 13.9-5.1 18.6-14.5 1-2.1 3.1-10.3 3.6-10.9 1.5.5 3 5.1 3.2 5.7 4.4 13.6 3.3 29.5 2 43.5 1.3.3 2.1 0 3-.6 1.3-.5 2.4-1.4 3.6-2.3.2 0 .4-.3.6-.4 3.6-2.6 7.7-5.9 12-9.8 1.7-1.4 3-2.6 3.9-3.4 1.9-1.7 4.1-3.8 6.4-6.2 12.5-12.4 24.7-27 29.3-38.3.8-1.8 1.4-3.8 2-5.8 1.7 2.9 2.1 34.5 2.3 38.3 0 2.4 1 4.6 1.1 6.9.7 21.1-.6 42.4 0 63.5h3c.5-7.5 2.2-15 3-22.5 3-26.9 5.9-61.3 3-88-1-9.5-5.5-21.8-6-30 1-4.4 2.3-8.7 4-12.7 1.4.8 2.8 5.9 3.1 6.7 9.2 24.5 10.8 52.6 12 78.5h3c1.7-17.3 3.2-35.1 2-52.5-1.1-16.3-6.8-32.5-7.9-48.8.2-.2.4-.5.6-.7.2 0 .4-.3.5-.4 1.5-1.1 3.1-1.8 4.7-2.2 6.3-1.4 14.3 1 19.7-1.2.2 0 .5-.2.8-.4.2 0 .5-.2.7-.3 1.8-.9 12.5-14 13.1-15.9 2.7-8-.2-34.8.5-45.5.4-6.2 2-12.7 3-18.9 8 3.2-1.2 24.2.2 25.7l11.4-4.1h.2l.6-.3 20.8-11.3c-2.4 24-7.3 47.9-14.5 70.8l-9.1 18.2c-.7 1.1-1.3 2.2-1.6 3.1 0 .2 0 .3-.2.5l-.7 1.3c.6 0 1.2-.2 1.8-.3h.6c19.3-1.1 46.4-29.7 59.5-43.5 8.1-8.5 17-18.5 24.5-27.5 15.3-18.2 25.3-28.9 23.5-54.5-.5-7-1.2-15.6-4.8-21.9-5-20.9-13.3-43.1-19.2-58.5-5.3-13.9-13-35.5-20.3-47.8-.8-1.3.2-2.5-2.5-2 3 24.6 14 46.8 21.3 70.2 6.9 22.5 17.8 55.2 8.2 77.8-4.2 9.9-14.5 20.9-21.5 29 1-7.5 5.1-17 5-24.5 0-9.3-5.8-22.7-6.5-32.5l-2.5-8v38.5c0 4.5-6.8 25.6-8.7 31.3-3.8 11.2-8.1 20.6-14.9 28.6-3.6 3.5-7.2 6.8-11 10-.5.3-1 .7-1.5 1 4.7-11.4 6.8-23.3 8.7-35.3 2.1-12.9 4.7-29.9 5.2-42.8.3-5.7 2-14.2-5.9-13l-.3.2h-.6l-30.1 25.7c1.9-14.1 5.5-27.9 7.7-42.1 2.9-18.6 8-47.8 5-65.8-2.7-16.5-23.1-50.3-32.5-65.5-11.3-18.3-23.9-36.7-37.3-54-2-10 2.8-26.5-1.7-36.6-17.8-28.3-36.4-56-56.2-82.8-1.9-1.4-.7 1.8-.5 2.5 4.9 17.7 16.5 35.8 24.4 52.6 4.1 8.6 17.8 35.8 19 43 3.3 19-1.2 47.5-5.2 66.6-3.3 16-8.9 33.6-18.9 46.7.3-21.1.2-41.8-5.3-62.3-.9-3.5-2-6.8-3.3-10.1.2-3.4 1-7.6.8-11.1-2.2-39.6-10.6-54.7-33.5-85.6-.4-.5-1.1-3.7-2.6-1.9s10.4 25 11.7 28.7c5.4 14.6 10.7 31.2 11.7 46.7-10.9-16.9-25.2-31.5-39.7-45.6v.9c-.3-.2-.5-.5-.8-.7v15.5c0 6-10.6 27-14.7 32.2-.5.6-.2 1.4-1.1 1.4-.6-12.2-5.9-24.8-10.2-36.1-8-20.7-19.3-47.4-30.8-66.2-5.2-8.5-11.3-16.3-17.3-24.2-2.4-3.3-4.8-6.6-7.3-9.9-4.2-5.9-8.2-12-11.4-18.5 66.4 5.5 130.3 19.5 193.8 38.7 40.2 12.1 79.4 25.4 110.8 54.2 2.9 14.1 6.5 28.2 10.5 42.1 6.9 25.8 16.4 54.2 24.6 77.2 17.3 48.4 35.7 103.9 62.6 147.4 10.3 16.7 22.6 32 34 48.1l-61.4-27.8.2.4zm-424.2 338.7c-12.6-13.7-24.9-27.8-37.7-41.3-1.3-1.4-7.6-8.1-8.9-7.9l-.2.2c-.3-.2-.6-.3-.8-.2l-45.4 48.7c-5.6 15.6-4.4 32.3-2.8 48.4-9.5-7.5-19.8-14.2-29.3-21.8-7-5.5-15-12.1-23.4-19.6-.2-.5-.4-1-.5-1.6-2.3-12.6-2-36.6-1.3-49.8.7-13.9 5.2-27.6 3.1-41.4 4.9 2.4 9.9 4.6 15 6.8l11.8 5.3c2 20.4-1.1 42.1 4.6 61.9.7 2.4 3 10 5 11 1.9.9 1.5-1.6 1.5-2.5 0-3.9-1.7-8.9-2-13-1.5-17.8-.3-36 2.5-53.5l9.9 3c5.6 1.8 11.2 3.4 16.7 4.8 5.8 1.6 11.5 3.1 17.3 4.3 3.8.8 6.9 1.5 9.7 1.9 1.5.3 3 .7 4.4.8 12.4 1 40.9-6.4 62.2-13.2 1.1-.2 2.2-.5 3.3-.7 1.6 16.7 2.9 33.7 2 50.5-.2 4.5-1.9 9.5-2.1 13.9 0 1.4-.8 4 1.5 3.5 12.3-21.7 7.1-48.2 9.5-72.1 2.1-.7 3.9-1.4 5.5-2.1 4-1.6 12.2-5.3 21.4-9.8-2.1 14.1 2.4 29 3.1 43.4.8 16.5 0 34.2-2.6 50.5-16.2 14-33.8 26.3-50.9 39.2 1.7-15.9 2.6-32.4-2.4-47.8zm-215.2-111.3c-12 14.4-17.9 29.9-20 48.5-4.9 44.8 3.8 83.1 9.6 126.4 0 1.1.9 1.9 0 2.1-19.6-13-36.3-27.4-52.5-44.5-22-23.2-41.7-45.9-50.7-77.3-10.7-37.5-16.1-78.4-19.3-117.2-.7 0-1.1.5-1.4.9v-.9c-9 24.2-14.1 51.7-16.5 77.5-4.2 45.5-1.4 90.1-3 135 0 .9.4 2.7-.2 3.3-17.9-34.5-36.5-68.9-53.1-104.1-2.2-4.6-4.5-9.5-6.8-14.5-1.9-14.7 0-46.2 2.3-60.5 2.8-18.2 10.7-33.5 15.4-50.6 1.5-5.4 6.2-17.3-3.4-14.9l-19.2 43.3c-4.7 17.5-4.4 35.7-7.9 53.4-4.6-11.3-8.6-22.7-11.1-33.3-9.8-40.3-1.3-85.6 1.9-126.4h-.8c-1.7-.5-2 .7-3 1.5-13.9 10.7-33.3 37.5-42.2 52.8l-18.8 35.7 26.5-108c-3.4-.3-5.5 5.3-7 8-23 40-27.8 87.5-34.8 132.2l-22.6 50.3c.9-10.9.4-22 .8-32.9.9-26 3.3-52 5-78 1.3-20.5 1-41.5 4.1-61.9 4-26.3 18.6-49.1 27.9-73.6l-1.2.5c0-.2.2-.4.2-.6l-61.5 27.8c22.8-30.1 44.2-60.7 58.9-95.7 10.4-24.7 20.2-52 29.5-77.4 10.7-29.2 21.5-58.8 30.7-88.7 2.5-7.7 4.7-15.3 6.5-22.5 2.9-10.5 5.5-21.1 7.8-31.7 29.9-25.3 63.2-38.4 100.1-49.9 66.5-20.8 134.1-35.8 203.8-41.7-1.6 3.2-3.3 6.2-5.1 9.2-9 10.1-17.1 21.3-24.6 32.3-11 16.1-18.5 31.8-26.4 49.6-8.8 20-18.8 42-21.8 63.7h-.8c-.3-.3-.2-.8-.6-1.2-4.5-5.9-14.7-26.2-14.7-33.2v-14.5l-.9.9v-1.1c-15.2 14.4-29.7 30.3-41 48l1.5-13c4.3-22.3 14-42.8 21.5-64-4.3 3.5-7.6 9-10.8 13.7-17.4 24.9-22.2 38.9-24.2 69.8-.8 12.1-.2 15.1-2.7 27.3-4 20-5.1 38.8-4.3 59.2-8.6-11.4-14.3-26.9-17.5-40.7-3.9-16.4-8.2-44-7.5-60.6 0-2.6 1.2-4.9 1-7.5l-1.5 1.8c.4-5.3 1.3-9.8 2.7-13.3 11.4-27.4 34-61.1 41.4-88.6.2-.7 1.4-3.9-.5-2.5-9.8 13.5-19.9 26.9-29.2 40.8-5.9 8.7-27.9 40.2-28.8 48.2-.9 8.5 1.8 24.8-.2 31.8s-18.4 25.6-22 31c-13 19.6-43.1 65.6-46.7 87.3-3 18 2.1 47.2 5 65.8 2.2 14 5.8 27.9 7.8 42l-30.1-25.7h-.8c-7.9-1.2-6.2 7.3-5.9 13 .5 12.9 3.1 29.9 5.2 42.8 1.9 11.8 3.9 23.5 8.4 34.6-6-5.1-11.8-10.6-17.5-16.5-4.9-7.4-8.2-15.9-11.4-25.7-1.8-5.7-7.7-23.5-7.7-28.3v-39.5l-2.5 8c-.8 10-6.1 23-6.5 32.6-.3 7.9 4 17.4 4.5 25.4-.3-.4-.6-.7-.9-1.1-2.8-3.6-5.5-7.3-8.1-10.9-7-9.6-13.5-18.1-14.6-30.4-.6-7.3-.4-15.6.2-23.6 2-12.9 6-25.8 9.6-37.8 7.6-25.4 19.8-49.5 22.3-76.2l-12.5 27c-12.9 30.6-36.6 88.2-33.6 120.5 1.8 19.5 33.7 52.8 47.5 67.5 12.5 13.2 27.5 29.8 44.8 38.5 5.4 2.9 11.1 5 17.3 5.6 1.6-.8 0-1.8-.5-2.5-6.7-12.4-10.9-20.5-14.7-34.3-1.7-6.4-11.5-51.9-10.4-56.8l20.8 11.4 11.4 4.1v-.3l.9.3c-.9-7.7-3.9-15-3.1-22.9 0 0 .2-.3.4-.5 1.2 0 2.8-2 3.9-2.6.8.9 2.8 20.6 3 23.5.5 9.2-1.8 35.9.8 42.2.8 2 11.5 14.7 13.5 15.5 1.6.7 3.4.9 5.2 1 5.8.6 11.5-1.7 18.1 1.4.5.3 1 .6 1.5 1-1.4 13.3-5.3 26.9-6.9 40-2.7 20.8-1.8 41.6.9 62.4h3c.5-19.9 2-40.6 6.5-60 1.9-8.4 4.5-19.2 9.5-26 .6 3.7 4.2 7.6 4 11.4-.2 2.2-2.8 8.3-3.5 11.5-6.6 33.2-4.7 65.9-1.5 99.5.4 4 2.8 30.4 4 31.5.2.2 2.2 0 3 0 .7-37.6-2.2-75.9 4.5-113 2.6 14.8 14.6 30.3 24.5 41.5 6.5 7.3 23.6 23.8 31.6 28.4 1.4.8 2.7 1.4 4.4 1.1h1c-1.4-13.8-2.8-31.2 2.2-44.3 1.2-3.2 2-4.5 2.7-4.7.5.5 2.8 9.9 4.1 12.4 8.9 17.3 29.3 11.7 38.5 21 7.4 7.4 10.3 28.4 17.8 36.7 2.2 2.4 9.6 6.5 16.8 10.4 4.5 2.7 9.1 5.2 14 7.7.9.6 1.5 1.1 1.5 1.3-10.4 26.4-8.2 55.2-9.2 83-19.9-19.3-38.9-41.8-45.5-62-4.8-14.3-5.1-29.8-8.5-44.5 0 .2-.3.4-.4.6v-.6l-.5-.3Zm244.1-610.5c2.3 11.9 4.7 23.9 5.9 36 1.9 18.8 3.1 41.3 1 60-.2 1.5-.2 3.1-2 3.5-6.1-33.5-24.3-73.7-40.9-104.3 12 1.5 24 3.3 36 4.8m-55.4-6.9c2.1 3 5 6.8 5.3 7.9 1.2 4 8.7 14.2 11.2 18.8 11.7 22 22.9 47.5 29.5 71.5 3.5 12.7 4.7 26.6 8.2 38.8.4 1.3 0 2.5 1.6 3.4 12.7-20 21.7-46.5 20.5-70.5-.6-12.3-4.2-25.2-3.5-37.5 29.1 48.5 71.3 96.9 68.5 157l1.2-.6v.5c.7.8 4-2 4.9-2.6 10.3-7.5 19.1-19.1 24.3-30.7 2.2-4.9 4.4-15.6 6.3-18.7l.3-.3c37.9 43 41.4 99.5 39 154.4 1.5.4 1.8-.3 2.3-1 .7 0 1.2 0 1.9-.8 14.5-12.7 29.6-39.6 36-57.8 1.7-4.7 7-21 7-25v-17.7c.4.5.7 1.1 1 1.6 6.8 10.8 14.1 23.3 21.3 36.2 2.9 5.5 5.7 10.9 8.5 16.1 1.7 3.1 3.6 6.3 5.5 9.6 3.1 5.9 6.1 11.6 8.9 17 8.9 17.2 13.7 28.5 13.7 48.4s-1 5.2-1.1 7.9c-.6 18.5-1.5 36.1-5.9 54.1-3.6-1.1-6.4-1.5-8.6-1.4-3.7 0-7 1.6-9 5.8-1.3 18-4.4 35.7-6.4 53.6-.6 5.3.7 11.6-2.1 16.9-2.1 4-8.1 5.7-14.1 7.1-1.8.3-3.7.7-5.6 1.3-2.2.6-4.3 1.2-5.9 2-18.3 9-26.3 49.3-33.6 67.4-7.2 18-17.7 32.5-33.9 43.2-.2-.2-.5-.6-.6-1.1-.9-3.4-.6-11.1-1.4-15.6-.7-4.3-1.7-9.6-3.5-13.5-2.3-4.9-8.2-14.8-14.3-13.1-.9 0-1.8.2-2.8.6-2.1.9-14.4 24.9-18.7 29.4-10 10.2-22.4 7.3-32.4 19.6-10.2 12.8-12.3 26.3-26.5 36.5-22.3 16.2-57.5 31-84 39-7 2.1-25.5 7.9-33 8.3h-.2c-6 0-22.8-5.3-29.5-7.3-23-6.9-83.2-30.4-97.2-48.8-6.7-8.7-11-21.3-18.3-29.7-8-9.2-20.2-8.3-29.5-16.5-6.3-5.5-17.8-30.1-21.7-31.3-1.1-.4-2.3-.3-3.4 0-5.8.7-10.9 9.9-12.8 14.6-3.8 9.3-2.5 19.6-5.1 27.9-.2.5 0 .9 0 1.2h-.5c-16.5-12.9-26.7-26.3-34.3-45.7-7-17.7-15-57.4-33.3-65.7-11.4-5.2-24.5-.9-26.9-17.1-2.1-13.9-3.4-29.9-5.1-43.9-1.5-12.8 2-27.7-13.8-24.9-1.5.2-3.3.7-5.2 1.3-2.5-13-5-26.1-6-39.4-.3-3.4-.5-7.4-.8-11.5v-4.5c-.2-4.9-.3-9.8 0-13.9.8-24.5 17.8-46.9 29.2-67.8 9.2-16.9 18.5-36.3 28.6-52.4.4-.7.8-1.6 1.4-2v18.4c0 23.4 26.6 66.5 43.2 82.8.9.9.8 2.2 2.8 1.7h1.3c-1.2-38.6-1.8-77.6 13.8-113.7 6.1-13.9 14.5-29.1 25.1-40.2 4.3 16.5 12.1 32.9 24.7 44.5 1.3 1.2 10 8.6 11 7.5v-.4c.7.4 1.2.5 1.3.3-2.4-59.2 37.2-106.4 67.2-155.1-.4 17-5 34.3-3.3 51.5 1.3 14.1 10.9 41.4 18.6 53.3.5.8.7 2.8 2.2 1.3 1.3-1.3 6.2-30.9 7.5-36 8.5-33.8 24.5-66.9 42.5-96.5 0-1 2.2-4.4 4.1-7.4 4.3-.2 8.5-1.1 12.6-1.3 10-.4 20 0 30 .8Zm-102.2 105.4c-2.3.9-1.4-2.3-1.5-3.5-2.7-31.4.4-63.9 6.8-94.7l37.8-5.1c-15.9 30.9-36 70.2-43.2 103.3zM860 849.5c11-10.1 10.6-12.6 17.6-24.4 6.5-11.1 11.3-10.6 23.2-12.8 66.6-12.2 157.4-11.7 224.6-3.2 9.5 1.2 26.6 2.8 35.1 5.9 9.9 3.6 11 15.5 15.5 22.5 1.7 2.6 9.2 9.4 12 12 16.2 15 36.5 28.1 56 38.5.3 1.9-1.7.5-2.8.3-27.3-3.9-54.4-9.1-81.8-12.2-67.9-7.7-136.6-10.6-204.9-6.1-50.5 3.4-100.7 10.6-150.5 18.5 19.5-11.4 39.3-23.6 56-39m-263 241.1c10.7-22.8 24.8-43.8 36-66.2.3-4.3-16.8-33-19.5-40.4-.8-2.4-2.7-5.4-.5-7.5 63.3-42.3 139.4-62.9 213.8-76.2 56.4-10.1 116.7-17.1 174-19 59.5-2 123.6 4.2 182.5 12.9 79.2 11.6 175.1 32.3 242.6 76.4 8.3 5.5 12 4.6 7.9 14.8-4.3 10.8-15.7 26.6-18.4 36.6-1 3.9 2.5 9.1 4.4 12.7 9.9 18.7 23.3 36.9 31.2 56.8-1.3 10.9-2.3 21.8-4.6 32.5-1 4.9-5.6 22.9-8 26-1.7 2.1-6.8-.3-8.9-1.1-14.5-5.6-32.9-18.8-47.6-26.4-40.6-21-82.4-33.9-126.6-45.4-157.5-41-305.3-41-462.8 0-44.2 11.5-86 24.4-126.6 45.4-14.7 7.6-33 20.7-47.6 26.4-10.6 4.1-9.4.4-12.6-9.1-5.3-15.9-7.3-32.6-8.7-49.2" class="outline" data-name="outline-head" data-original-prefix="outline"/></g></svg>