<?xml version="1.0" encoding="UTF-8"?>
<?xml-stylesheet type="text/css" href="styles/collection.css"?>
<svg xmlns="http://www.w3.org/2000/svg" viewBox="0 0 2048 2048"><g id="01_background" data-trait="brown"><path id="color-brown" fill="#564624" d="M2048 4.5q-.15 1019.4 0 2038.8c0 3.8-.8 4.6-4.6 4.6q-1019.4-.15-2038.8 0c-3.8 0-4.6-.8-4.6-4.6C.2 1362.3.1 681.2.1 0h2043.3c3.8 0 4.6.8 4.6 4.6z" data-original-style="transition:fill .3s ease" style="transition:fill .3s ease"/></g><g id="02_Jaw" data-trait="half-robo"><path id="fill-jaw" class="fill"  fill="#fff" d="m1382.8 1128.2 12.4 130.2 60.9 48.3-49.6 133.4c-1 1.4-2.4 1.1-3.9.9-13.9-1-32.8-8.5-47.4-10.7-1.8-.3-3.5-.4-5.2-.3 1.2 4.7-1.2 7.6-2.1 11.4-4.9 22.2-7.7 45-12.1 67.4l-57.2 29.3-1.4 1.6c-1.1 12 1.6 23.9.9 35.9-.3 5-1.3 14.9-2.3 19.7-.6 2.8-13.7 32.2-15 33.5s-16.1 8.9-16.7 8.3l-9.5-50-51 52c-7.7 5.7-20.7 9.3-27.5 15.5-14 12.7-24.7 36.5-41.4 47.6-5.5 3.6-58.7 25.2-65.4 26.6-2.4.5-46.7.7-49.3.2-6.2-1.1-59.9-22.7-65.6-26.3-14-8.8-29.1-36.3-42-48-6.7-6.1-19.9-9.6-27.5-15.4l-51-52-9.6 48.4c-.6.9-.9 1.7-2.2 1.5-.8 0-13.8-7.6-14.4-8.2-1.4-1.4-15.6-32.9-16-35.5l-.7-54.3-58.2-30.3-12.3-69.7c-16.4-1.1-33.5 3.9-49.5-1l-37.3-85.8c-.7-3.4 4-13 5.6-16.9 8-19 17.8-37.3 25.7-56.3 9.2-2.5 21.3 1.1 29.9-5.1 4-2.8-.2-18.8 0-23.9l-19-32.1-.3-2.2 27.6-63.5c1.4-9.9-3.2-21.4-1.1-31.1 1.3-6.2 9.7-21.7 13.2-27.9 54.6-98.4 184.4-157.8 290.2-180.8 48.2-10.5 90.3.5 136.5 15.4 98 31.8 198 94.6 250.7 185.3 3.2 5.5 3.8 13.3 10.7 14.8h-.7Z" class="fill" data-original-prefix="fill"/><path id="fill-jaw1" class="fill"  fill="#fff" d="M1265.7 1351.3c9.2 7.7-4.5 25.9-12.2 15.7s2.9-23.4 12.2-15.7" class="fill" data-name="fill-jaw" data-original-prefix="fill"/><path id="fill-jaw2" class="fill"  fill="#fff" d="M1314.6 1391.2c7.8-1.5 6.2 19.1-2.9 17.7-9.8-1.5-.6-17 2.9-17.7" class="fill" data-name="fill-jaw" data-original-prefix="fill"/><path id="outline-shading-jaw" class="outline"  fill="#000" d="M1377.3 1124.7c2.2 2.7 13.8 4 14.5 10l8.4 112.6c17.4 18.9 36.8 35.9 56.4 52.6l1.5 3.6-51 135.8c-1 1.6-3.7 1.7-5.4 1.6-14.4-.9-32.2-8.4-47.3-8.9-1.8 0-3.2-.2-4.4 1.3l-14.4 75.6-59.4 30.1c.4 11 2.6 23.6 2 34.5-.3 5.7-1.3 15.4-2.1 20.9-.5 3.1-13.4 31.4-15.4 33.6-3 3.2-11.6 6.2-15.5 9l-12-46.4-2.4-.6-46.1 47.9c-7.8 6.2-20 9.3-27.5 15.5-14.2 11.7-24.4 36.1-41.5 47.5-6.8 4.6-52.9 25.2-60.4 26.6-9.5 1.7-52.8 1.8-62.3.2-7.6-1.3-48.1-19.8-56.6-24.4-16.2-8.6-30.7-38.5-45.1-49.9-7.1-5.7-18.8-9.3-26.5-14.5l-48-49-8.5 47c-1.4 1.2-18.5-6.9-20.5-9-1.7-1.8-15-30.8-15.4-33.6-.7-4.4-.9-13-1.1-17.9-.5-12.2.6-24.4.5-36.6-18.8-11.7-39.4-20.3-58.6-31.4l-13.1-67.4-46.4.9-36.3-91.7-.2-2.3c6.7.3 9.7 6.8 15.7 10.8 19.1 12.8 34.2 19.3 57.7 16.1 20.6-2.8 26.4-11.2 48-1.7 16.1 7.1 19.4 16.7 31.2 25.8 13.2 10.2 17.5 3.6 25.9-7.1 6.9-8.8 25.8-41.6 27.4-51.6 1.7-10.7-3.8-11.2-13-10-8.6 1.1-48.4 15.1-51 14.6-1.7-.4-12.3-7.9-16.5-9.6-20.3-8.4-48.8-11.8-67.2-20.8-14.3-6.9-12.2-21.7-18-34.5l21.5-4.1c1.9.3 10.9 13 13.5 15.6 13.7 13.8 58.3 32.8 77.6 33.5 3.4 0 6-1 8.9-1.1h20.5l-34.7-16.8c-19.1-10.8-48.2-33.1-61.8-50.2-6.2-7.7-7.1-18.3-10.5-27.5-6-16.6-14.4-32-25-46 1.3-9 6.5-19.6 7.8-28.2 2.8-19.1 3.8-27.8 12.1-45.9 49-107.6 188.2-173.2 298.2-196.8 27.9-6 50-5.8 77.9 0 118 24.3 244.7 92.5 307.8 198.2 1.9 3.1 5.2 12.6 6.5 14h-.4ZM1326 1307c15.3-11.2 31.9-21.8 44.5-36 6.1-22.7 14.6-45.7 13.5-69.6l-2.1-29.5c-1.4.2-1.9 1.8-2.5 2.9-16.8 30.8-29.1 66.4-47 97l-62.3 38.7.4 3.3c5.9 15.3 32.8 49 33.4 63.6.2 4.3-2.2 10.7-.7 15.7 1.1 3.6 11 9.8 15.2 9.4l62.4-18.5c8.3 1.2 16.7.9 25.1.6l36.7-78.8.3-3.3c-14.1-10.8-29-21.4-44.3-30.7l-2.8 11.8c-13.3 5.6-27.2 16.2-40.4 21.1-6.7 2.5-16.4 2.8-23.8 3.2-1.2 0-5.6.7-5.5-1Zm-248 20c-5.1-10.6-9.9-23.3-16.6-32.9-6.5-9.4-23.8-30.4-31.9-38.1-4.2-4-7-3.9-11.1 0-7.7 7.4-27 30.2-32.9 39.1s-10.5 22.1-15.6 31.9zm200.7 70.7c1.4-1.6 8.8-25.5 9.1-28.5.4-4.4-3.5-11.7-5.6-15.9-3.8-7.3-18.5-32.7-23.6-37.4-5.7-5.3-8-1-14 1.1-11.8 4-23.6 7.8-35.5 11.5-1.3 1.1-1.1 1 0 2 3 2.6 6.7 4.5 9.4 7.6 6.8 8.1 12.2 22 18.6 30.9l3.1-12.4c.8-3.8 7.7-7.4 10.8-5.4 1.2.8 3.6 11.4 7.9 12.7 6.1 1.8 8.2-5 11-5.7 4.2-1 10.3 3.7 10.1 8.1-.5 11.3-14.6 20.3-25.1 18.6-1.1-.2-10.1-4.8-8.7-1.3 3.1 2.8 14.4 21.8 16.7 22.4 2 .5 14.5-6.5 16-8.2h-.2Zm-550.4 99c1.6 2 8.2 6.3 10.7 7.8 14.8 8.8 31.7 13.8 46.9 23.1 16.8 10.2 40.2 33.1 59.6 33.5 2.3 0 8.7-1.2 9.4-3.7.8-2.7-13.5-27.5-16.4-30.3-7.3-7.2-27.5-17.2-37.2-23.8-15.2-10.3-50.3-39.1-67.9-39.2-10.5 0-8.7 28.1-5.1 32.7Zm591.4-30.4c-6.1-6-24 4-30.4 7.6-16.3 9.1-30.8 21.3-46.2 31.8-9.3 6.4-25.4 13.9-33.1 20.9-3.1 2.8-16.2 24.5-16.9 28.2-1.1 5.3 6.2 6.5 10.3 6.3 16.8-1 25.6-11.2 38.2-19.8 8.3-5.7 17.3-12.1 26-17 11.7-6.6 47.1-19.2 52.7-29.3 2.4-4.3 2.8-25.2-.7-28.6ZM1126 1664c-12-2.7-20.7 6.6-31.6 7.9-5.7.7-12.2-1.2-16.6-.7-7.1.8-22.9 12.1-31.2 14.9-14.8 4.9-30.2 4.7-45.1 0-8.8-2.8-23.9-14.1-31.2-14.9-4.4-.5-10.9 1.4-16.6.7-11-1.3-19.9-11-31.6-7.4 0 7 23.7 23.4 30 27 12.5 7.1 59.7 26.8 72.5 26.6s59.8-19.7 72.2-26.9c3-1.8 33.6-23.3 29.3-27.2z" class="shading" data-original-prefix="shading" opacity=".2"/><path id="outline-jaw" class="outline"  fill="#000" d="M1378 1122c.3-3.9.6-9.1 5.7-9.8 7.8-1.2 8.7 12 9.3 17.3 3.8 33.8 2.1 69.1 8.3 102.7 2.2 11.9 3.2 13.8 12.3 21.7 14.8 13 33.2 22.8 47.5 36.5 2.6 2.5 11.8 12.2 12 15.1l-66.1 156.3-46.9-24.9c-1.8 6.1-5.4 12.6-6.7 18.8-4.1 19.2 0 41.1-2.2 59.8-.4 3.4-10.5 17.5-13.3 18.7-6.4 3-16.2-1.8-24.7 3.3-23.8 14.4-17.9 48.6-27.2 68.8-7.8 17-37 48.2-52.9 58.1-1.6 1-2.9 1.9-4.9 1.6 1.1-14.8 3.1-34.9-3.9-48.6-.4-.8-.4-3.2-2.1-1.4-.7.7-3.6 13.8-6.6 17.9-5.8 7.9-20.7 8.9-29.4 12.6-16.7 7-14.3 32.7-27.7 43.3-19.3 15.2-61.2 32-85.1 38.9-10.8 3.1-38.9 11.3-48.7 11.3-15 0-63.4-15.1-78.8-21.2-11.1-4.4-55.3-26-60.6-34.4-6.9-11.1-8.5-31.6-21.5-37.6-14.5-6.6-26.4-2.4-33.9-20.1-1.1-2.5-2.5-10.3-2.8-10.7-1.3-1.6-1.8.4-2.2 1.3-6.9 12.5-5 34.9-3.8 48.7-2 .3-3.3-.6-4.9-1.6-15.7-9.8-48.9-44.4-54.2-61.8-6.2-20.6-5.3-52.1-25.9-65.1-8.2-5.2-18.3-.3-24.7-3.3-.9-.4-12.2-14.2-12.7-15.3-2.1-5.2-.2-29.6-.5-37.4-.4-9.1-2-18.5-3-27.5-4 1.6-7.6 4.7-11.9 5.6-2.8.6-5.6.7-8.5.3-4.7-.6-27.4-9.9-32.6-12.4-1.3-.7-2.7-1.2-3.5-2.5-2-33.7-22.2-63.7-44-88-2-4.4 2.1-14.5 3.7-19.2 6.2-17.8 15.6-36.4 25.7-52.3 3.2-5.1 14.2-22 17.9-25.1 5.5-4.4 9.8 3.3 14.6 6.6 1.6 1.1 12.7 7.8 13.5 7-2.9-7.2-9.4-11-13.8-17.7-4-6-15.9-26.4-15.8-32.6s5.4-17.7 6.5-25.3c.5-3 1.1-8.8 1.2-11.8.2-6.5-3-17.5 1.3-22.2 1.2-1.4 12.8-6.5 14.1-6.2.9.2 5 11.2 10.5 7.8 2.3-1.4 1-34.7 0-39.9.3-.3 7.6 1.8 8 2 1.8 1.1 7 8.1 9.8 9.7.5 8.4 3.4 20.7 1.1 28.7-2.8 10.1-17.5 14.8-21.2 22.8-1.2 2.6-6.4 25.9-6.7 29.3 0 1.2-.2 2.4.2 3.7 4.8 10.3 13.7 19.4 18.7 29.3s9 33.8 15.5 40c5.3 5.1 14.5 7.1 21 10.5 7.5 4.1 15.7 10.7 22.7 15.8-11.3-1.3-47.2-5.2-54.5-13-3.3-3.6-5.7-15.7-9.6-17.4-2.6-1.2-6.2-.2-9.2-.8-7-1.2-10.7-7.9-18.5-1.5-6.6 12.5-14.3 24.3-20.4 37.1-7.4 15.4-14.8 25.1-4.8 41.2 5.3 8.6 23.3 26.7 25.6 34.4 2.5 8.6-2.7 28 2.9 34.1 6 6.6 20.6 4.5 27.8.8 10.6-5.4 8.7-9.9 14.3-18.7 5.2-8.2 19.7-23.1 28.9-26.2s13.4 8.6 15.6 15.5c7.3 23.8-.2 34 22.5 51.5 11.6 8.9 33.3 20.1 47.8 17.9 8.5-1.2 21.1-6.6 27.2-12.8 7.2-7.5 8.8-24.6 24-14 15.8 11 30.3 30.1 46.6 41.4 20.5 14.3 77.5 32.5 102.5 34.6 37 3 105.5-17.1 134.5-40.5 11.5-9.3 21.6-20.6 33-30 4-3.3 11.6-11.3 17-8 .7.5 7.5 12.5 9.2 14.8 3.3 4.7 11.5 16.1 17.4 16.7 7.4.8 31.3-15.5 40.2-17.2 8.1-21.2 17.3-42.1 23.5-64 2.8-9.9 8.4-24.8 3.8-34.3-2.1-4.2-21.3-33.6-24-36-3-2.7-9.6-5-13.5-6.5-3.3-1.2-19.8-5.2-20.5-6-1.5-1.4.4-1.7 1.3-2.2 1.3-.7 11.6-5.7 12.3-5.8 2.6-.4 25.4 6.8 27.4 8.5s8.6 15.3 11 19c5 7.6 19.5 25.4 20.8 33.2.4 2.5.5 4.9-.2 7.3l-26.5 74.9c22.1-8.1 42.1-21.6 63.6-30.8 4.1-1.8 12.4-6.1 16.3-4.6 4.7 1.7 16.6 11.3 22.4 14.6 2.4 1.4 18.7 10.5 19.7 9.8l48.1-125.5c-.2-2.1-12.6-9.7-15.4-11.7-13.3-9.9-23-17.3-37.4-25.6-7.1-4.1-7.5-7.8-8.3-15.7-2.2-22.8-2.4-46.1-4-69-1.5-20.8-6.3-45.1-5-65.5h-.7Zm-649 280c-5.9.4-11.3 6.2-14.4 11.1-12.8 20.4-.6 26.3 1.3 45.5 1.3 13.2-3.2 33.5 4.7 44.3 5.3 7.3 21.6 10.7 30.1 14.9 3.6 1.8 23 13.2 24.8 15.2.4.4 3.3 5.3 3.3 5.6 0 .8-3.5 12.2-3.8 15.8-1.9 24 4.5 52.9 21 71l5 4.5c.9-4.6-1.1-9.2-1.1-13.5 0-12.5 8.2-24.3 10.1-36.5 23.5 5.4 36.4 28.6 51.4 45 11.3 12.4 23.8 14.5 34.1 23.9 6.5 5.9 11.9 15.9 17.5 22.5 14.6 17.4 20.2 23.3 41.3 32.7 29 13 50.6 21 83.2 18.9 16.8-1.1 61.8-19.2 76.4-28.6 16-10.4 26.2-34.2 40.1-45.9 10.6-9 21.7-10.9 32.5-22.5 15.6-16.6 28.5-40.5 52.5-46 .8 9.9 6.9 18.2 8.7 27.8 1.5 7.6.3 13.6.3 21.2 7.8-5.3 15.2-16.8 18.8-25.6 5.4-12.9 8.1-33.2 7.2-46.9-.2-3.4-3.8-17.5-3.5-18.4.6-1.7 3.6-5.7 5.2-6.9 4.5-3.4 17.3-10.6 22.7-13.3 11.7-5.9 31.5-8 33.6-23.4s-.7-31.7 3.8-48.2c1-3.6 5.3-8-1.4-5.4-30.7 11.8-63.4 35.5-93.6 46.4-10.1 3.6-23.8 2.7-32.8 7.2-6.8 3.5-11.5 12.3-16.4 17.6-16.2 17.4-41.8 25.6-65 28-69.4 7-135.6 6.9-205 0-21.7-2.1-46-9.9-62.5-24.5-5.9-5.2-10.7-15.4-19.3-15.2-3.9 0-8.2 3.3-11.2 3.7-5.5.6-22.8-12.9-28.7-16.2-15-8.4-31.4-14.8-46-24-2.8-1.8-16.7-11.4-17.8-13.2-2.8-4.9.2-12 0-17.1 0-10.4-4.3-21.6-7.1-31.5" class="outline" data-original-prefix="outline"/><path id="outline-jaw1" class="outline"  fill="#000" d="M1253.7 1342.2c12.9-2.4 29.1 10.8 24 24-3.6 9.3-14.2 17-24.2 12.8-15.8-6.5-17-33.6.3-36.8zm12 9.1c-9.3-7.8-20.1 5.1-12.2 15.7s21.4-8 12.2-15.7" class="outline" data-name="outline-jaw" data-original-prefix="outline"/><path id="outline-jaw2" class="outline"  fill="#000" d="M1313.7 1382.2c20.2-4.4 22.1 39.9-4.2 35.7-17.9-2.8-9.8-32.7 4.2-35.7m.9 9c-3.6.7-12.7 16.2-2.9 17.7 9.1 1.4 10.8-19.2 2.9-17.7" class="outline" data-name="outline-jaw" data-original-prefix="outline"/></g><g id="03_Mouth" data-trait="jaws"><path id="fill-mouth-main" class="fill"  fill="#fff" d="M1102 1287c.4.6-2.2 4.3 0 5.5 50.4 27.6 100.7 55.4 145.8 91.1-5.2 15.8-10.4 31.6-16.7 47.1-5.9 14.4-8.3 22.4-12.7 37.3-13 44.8-25.3 89.9-38.3 134.7-3.4 15.6 7.3 31.3 8.8 45.8.5 5.4-1.6 24.6-3.1 29.9-2.4 8.9-12.3 10.5-19.9 15.1-23.1 14.2-44 33.8-68.7 45.3-38.6 17.9-94.7 18.9-134.6 4.9-30.8-10.8-53.7-33.5-80.8-50.2-5.6-3.4-16.3-6.9-18.8-12.2-2.2-4.7-4.6-27.2-4.1-32.9 1.2-14.4 12.1-30.2 8.8-45.8-13.8-47.4-26.5-95.2-40.5-142.5-3.7-12.4-5.6-17.8-10.5-29.5-6.4-15.4-11.4-31.2-16.7-47.1 45.2-35.6 95.4-63.7 145.8-91.1 2.2-1.2-.5-4.8 0-5.5.2-.2 3.4-1.1 4.7-1.9 25.5-15.1 52.3-31 83.7-27.1 24.4 3.1 42.7 15.5 62.9 27.1 1.2.7 4.5 1.7 4.7 1.9h.2Z" class="fill" data-original-prefix="fill"/><path id="fill-mouth-teeth13" class="fill"  fill="#fff" d="m1042 1510-1.9 71.5c-.9 11.5-1.7 23.4-2.1 34.9-.2 7.7 1.3 20.2 0 27-.5 2.5-12.9 11.6-14.3 11.4-1.2-.2-13.2-8.9-13.7-11.4-.2-44.5-3.3-88.9-4-133.5l17.6 16.9 18.3-16.9Z" class="fill" data-original-prefix="fill"/><path id="fill-mouth-teeth12" class="fill"  fill="#fff" d="m1000 1637-20-15.5c-1.8-.5-2.8-4.4-3-4.5-.8-.5-3 3.8-5 3-.4-20.5-.2-41.1-1-61.5s-2.9-41.1-2.5-61.4l11-14c3 4.2 18.8 16.6 19.2 20.6.4 3.5-.9 11.2-.8 15.9.8 20.4 1.8 41.5 2.1 61.9.2 18.5-.2 37 0 55.5" class="fill" data-original-prefix="fill"/><path id="fill-mouth-teeth11" class="fill"  fill="#fff" d="M1076 1620c-2 .8-4.2-3.5-5-3-.2.2-1.2 4.1-3 4.5l-20 15.5c.2-18.5-.3-37 0-55.5.2-20.4 1.3-41.5 2.1-61.9.2-4.7-1.2-12.4-.8-15.9.4-4 16.2-16.4 19.2-20.6 2.1 3.9 9.5 10.8 11 14 1.8 3.8-1.3 28.2-1.5 34.4-.3 9-.7 18.1-1 27-.7 20.5-.6 41.1-1 61.5" class="fill" data-original-prefix="fill"/><path id="fill-mouth-teeth10" class="fill"  fill="#fff" d="M1114 1651c-3.8-.4-4.7-3.2-5-6.4-1.4-14.4 1.7-35 2.1-50 .6-21.9 0-43.7 2-65.5 3.3.2 4.2 1.9 7.1-.4 6.2-5.1 13.2-22.1 19.9-28.8s2.8-2 3-1.8l-9.1 120.4-20 32.6Z" class="fill" data-original-prefix="fill"/><path id="fill-mouth-teeth9" class="fill"  fill="#fff" d="M907.7 1499.3c7 6.2 13.8 23.9 20.3 29.2 2.9 2.4 3.8.6 7.1.4 1.5 10.5.6 21 1 31.5.7 20.9 1.5 42 2 63 .2 5.8 4.1 25-2.5 27.4-1.7.6-6.8-10-8.5-11.4l-12.9-21.1c-3.3-40.1-5.6-80.4-9-120.4 0 0 2.2 1 2.7 1.3h-.2Z" class="fill" data-original-prefix="fill"/><path id="fill-mouth-teeth8" class="fill"  fill="#fff" d="M903 1601c-7.1-6.3-5.5-23.9-18-13l-17-142c10.4 12.2 19 26.1 28 39.5 1.9 38.5 3.8 77.1 7 115.5" class="fill" data-original-prefix="fill"/><path id="fill-mouth-teeth7" class="fill"  fill="#fff" d="M1163 1588c-12.5-10.9-10.9 6.7-18 13l4-51.5 3.1-63.9c8.9-13.4 17.5-27.3 27.9-39.5l-17 142Z" class="fill" data-original-prefix="fill"/><path id="fill-mouth-teeth6" class="fill"  fill="#fff" d="M963 1507c-.7 40.2 2 80.1 2 120.3-1.9 1.4-17.9 15-19 13.7.9-38.3-2.3-76.2-2-114.5l15.4-18.6z" class="fill" data-original-prefix="fill"/><path id="fill-mouth-teeth5" class="fill"  fill="#fff" d="M1102 1641c-1.1 1.3-17.1-12.3-19-13.7.4-22.3.5-44.6 1-66.8 0-2.4 1-4.6 1.1-6.9.3-15.5-.3-31.1 0-46.5l3.6.9 15.4 18.6c.3 38.2-2.9 76.2-2 114.5Z" class="fill" data-original-prefix="fill"/><path id="fill-mouth-teeth4" class="fill"  fill="#fff" d="M875 1581c-1.5.2-1.3-1.7-1.7-2.8-3-8.8-6.1-18.6-8.6-27.4-10.7-37.7-11.6-78.6-17.8-117.3 0-3.9 3-6.9 5.6-9.5 3.4 3.5 5.8 6.6 6.4 11.6 1.2 10.1 1 21.5 2.1 31.9 3.8 35.2 11.2 72.2 14 107 .2 2.2 0 4.3 0 6.5" class="fill" data-original-prefix="fill"/><path id="fill-mouth-teeth3" class="fill"  fill="#fff" d="M1172 1580c6.3-40.6 11.8-81.6 16-122.5 1.2-11.5-1.6-25.4 7.5-33.5 2.6 2.6 5.7 5.5 5.6 9.5-7.6 47.5-8 99-26.1 144-.6 1.6-.8 2.9-3 2.5" class="fill" data-original-prefix="fill"/><path id="fill-mouth-teeth2" class="fill"  fill="#fff" d="m843 1439 4 53-5.7-15.8c-1-7.8-7.5-23.8-4.4-30.8.5-1.1 2.9-4.1 3.8-5.2.6-.7 0-1.9 2.3-1.3Z" class="fill" data-original-prefix="fill"/><path id="fill-mouth-teeth1" class="fill"  fill="#fff" d="M1207 1439c.3.3 4.7 7.3 4.8 7.7 1.3 4.9-3.4 23.5-5 29.5l-5.7 15.8 4-52.5c0-.9 1.9-.6 2-.5z" class="fill" data-original-prefix="fill"/><path id="outline-shading-mouth4" class="outline"  fill="#000" d="m900 1319-56.5 57-14 16c-1.9 4.1 3.2 15.8 2.5 21 4.2-1.8 14.7-13.4 18.4-13.1 4 .3 8.8 14.9 10.3 18.8 2.5 6.3 4.5 12.8 6.8 19.2 18.7 24.5 38.6 48.2 57.4 72.6 3.8 5 3.2 9.2 10.1 7 3.2-1 13.7-10.2 17-13 10.5-9 19.8-20 30.5-28.6l41.1 41 41.9-41c13.1 10.8 24.4 24.6 38 35 3.2 2.5 10.4 9 14.5 6.5l61.8-79.2c3.6-6.3 11.7-36.7 16.9-38.2 4.6-1.3 17.3 14.1 19.3 11.9-.8-5.2 4.4-15.8 2.5-20-20.7-25.2-46.1-46.1-68-70-.7-.7-2.7-2-2-3 34.5 16.7 65.1 39.8 96 62 2.5 5.1-7.2 33.5-9.8 40.2-2.7 7.3-6.2 13.8-9.2 20.8-3.2 7.3-3.5 21.2-14.5 14l-8.5 50-2.5 1c-.2-19.8 1.9-39.7 4-59.4-2-4.9-6.9-13.6-8.8-3.8-4 21.5-4.5 48.2-7.4 70.6-3.6 28-8.2 56-12 84-2 14.9-3.3 16.2 1.9 31.4 1.3 3.8 7.2 14.6 7.4 16.7s-6.3 26.7-7.6 29.5c-2.4 5.5-34.3 27-41.2 30.8-23.5 12.8-65.3 23.2-92 27-44.3 6.3-112.7-12.8-149.7-38-4.2-2.9-22.5-15.7-24.1-18.9-1.2-2.3-7.8-28.2-7.7-30.4 0-2.1 7-16.2 8.3-20.7 4-13.7 2.7-13.4.9-26.4-7.5-52.8-15.1-105.5-20.4-158.6-2.2-5.2-7.7 4.9-7.9 7.8 2.1 19.4 4 39 4.1 58.5h-3l-8-51c-11.6 7.2-11.3-6.6-14.5-14-5.7-13.3-11.5-25.2-15.5-39.5-1.5-5.2-6.1-18.6-2.5-22.6 31.2-21.3 60.9-45.2 95.5-60.9zm-34.5 137v1c.7-.3.7-.7 0-1m315.5 1c-3.8 9.4-17.3 19.9-21.1 28.4-3.4 7.8-1.6 20.7-3.9 29.1l-3 60c.6 3 10.1 7.9 13.4 8.4zm-286.2 118.8c-1.8-29.7-2.2-59.6-6.1-89.1-7.3-9.7-14.3-20.1-22.7-28.8l14 125c6 0 10-4.5 14.8-7.2ZM995 1627c-.8-15.5-.4-31.1-1-46.5-.7-20.6-1.2-43.5-3-63.9-.3-3.6-.4-13.4-4.5-13.5-2.5 0-20 10.7-20.5 13.5 2.4 20.6 1.2 41.4 1.9 62 .2 6.2.6 13.8 1.1 19.9s3 12.8 2 19.5l5.4-5c1.5 2.2 17 15.7 18.6 14m82-10c-.8-6.9 1.6-13.7 2.1-20.4 1.1-17.4.3-35.7.9-53.1.3-8.7 2-18.1 2-26.9s-1-2.1-2-3c-2.2-1.8-17.3-10.9-19.3-10.4-2.9.7-3.4 7.6-3.7 10.4-3.3 35.8-2.8 74-4 110 0 1.4 0 2.9-1 4 5.2.7 17.8-14.1 19.5-14.5 2.3-.5 2.5 4.7 5.4 4Zm-146 17c-1.9-32.1-.2-64.4-2-96.5l-26-32.5c2.8 32.1 2.9 64.2 5 96.4 6.9 11.3 14.5 22.3 23 32.5Zm187 0 22-32.5c1.9-32.2 2-64.3 5-96.4l-26 32.5c-2 25.3-.4 50.7-1 76-.2 5.9-1.4 11.5-1 18 0 1.1-.7 2.8 1 2.5Zm-175 2c.8.8 16.4-9.7 17.5-11 .7-.8 1.5-1.4 1.4-2.6-.7-33.9-2.5-67.6-4-101.5-3.4 2.4-16.3 10.2-17 13.5-.2 33.9 0 67.8 2 101.5Zm101-115c-4.9 2.7-10.4 10.7-15.7 11.8-11.9 2.5-16.1-5.4-24.3-11.8 1.3 37.5 2.3 74.9 2 112.5.8 4 14.2 9.4 17.7 12.4 3.7-2.5 17.6-8.6 18.3-12.4-.2-37.6.2-75.1 2-112.5m61 115c1.6-33.8 2.3-67.6 2-101.5-.7-3.7-13.7-10.5-17-13.5-1.8 33.8-3.7 67.5-4 101.5.2 2.9 18.2 14.4 19 13.5m-167.3 18.7c-1 .9-2.6 1.5-4 1.2-3.8-1-23-30.3-27.3-35.8L895 1607c-.4 4.4-1.3 8.8-2.5 13-1.6 5.4-8.4 19.9-8.6 23.5 0 2.9 4.5 19.8 5.8 23.3.7 1.9 1 3.9 2.9 5.1 29 14.8 52.4 35.8 84.2 44.8 31.1 8.9 64.2 8.8 95.2-.2 31.6-9.2 55.5-30.5 84.3-45.4.8-.4.9-1.2 1.2-2 1.2-3 6.7-24.2 6.5-26.5-.3-3.3-5.8-13.4-7.3-17.8-1.8-5.8-3.1-11.8-4.2-17.8-2.2 3.1-5.1 5.6-7.5 8.5-8.8 10.8-17.2 26.4-26.1 35.9-1.6 1.8-3.2 3.6-5.6 4.3l-43.7-28.7c-4.3 3.6-8.6 8.8-13.3 11.7-8.2 5.1-15 6.1-23.4 13.6-2.3 2.1-3 5.8-6.5 6.5-8.1 1.6-7.3-2.8-11.5-6.4-7.2-6.1-10.9-7.5-18.9-11.1-6.3-2.8-12.3-10-17.6-14.4-12.8 7.9-26.2 15.6-38.3 24.5-1.3.9-1.6 2.5-2.3 3.1v.2Z" class="shading" data-original-prefix="shading" opacity=".2"/><path id="outline-shading-mouth3" class="outline"  fill="#000" d="M1118 1345c-1.5 1.5-1.8-.6-2.3-1.3-1.8-2.3-6.1-7.1-7.1-8.8-1.8-3.2-.9-7.3-2.6-9.4-2-2.4-11.1-9.6-14.1-11.9-17.8-13.8-38.6-25.3-56-40-3.6-5.4 6-7.7 4.1-13.6.4-.4 8.3 1.9 9 2.5 1.9 1.6 0 5.2 2 7l68.4 49.6c2.9 2.8-.3 24.8-1.4 25.9" class="shading" data-original-prefix="shading" opacity=".2"/><path id="outline-shading-mouth2" class="outline"  fill="#000" d="M1008 1260c-2.1 5.5 7.8 8.5 4.1 13.6l-61.1 43.9c-10.3 7.3-11.1 16.5-18.7 26.2-.5.7-.7 2.7-2.3 1.3-1.1-1-5.1-24.3-1-26.5l68-49c2-1.9 0-5.2 2-7 1-.9 8.7-2.9 9-2.5" class="shading" data-original-prefix="shading" opacity=".2"/><path id="outline-shading-mouth1" class="outline"  fill="#000" d="M1011 1355c1.1 4.6-4.9 8.9-3.6 13 1.1 3.3 13.8 10.8 16.2 14.9 1.2.2 16.5-14.1 17-15.9 1-3.6-5.2-7.6-3.6-12 6.9-2.5 17.3 6.5 15.8 13.3-.8 3.8-7.8 10.3-10.8 13.2-6 5.9-6.9 4.1-10.8 12.2-1.9 3.9-5.9 3.9-9.8 3.3-5.8-.8-4.3-4.3-6.4-7.6-4.4-6.7-23.9-15.6-19.3-26.2 2.2-4.9 9.7-10.1 15.2-8.2Z" class="shading" data-original-prefix="shading" opacity=".2"/><path id="outline-mouth" class="outline"  fill="#000" d="M1006 1260c.4-2.1 4.7-6.2 6.5-7 2.2-1 1.8 3.9 2.5 5l-.5 19c-9.8 6.8-19.7 13.6-29 21-10.5 8.4-26.4 21.1-35.5 30.4-3.6 3.7-.7 4.6 2.7 7.3 14.2 11.7 34.2 18.3 52.3 20.2 1.2 1.2-6.6 10.7-4.8 13.8l23.5 23.1c1.5.3 18.4-18.6 21.4-21.5.8-.8 2.6-1.3 2.8-1.6 1.8-3.1-6-12.7-4.8-13.8 18.1-1.9 38.1-8.5 52.3-20.2 3.3-2.8 6.3-3.7 2.7-7.3-9.1-9.4-25-22-35.6-30.4-9.3-7.4-19.2-14.2-29-21-1.1-1.8-.6-15.7-.5-19 0-1.1-.9-6 1.5-5 2.1.9 6.1 6.1 7.5 7-1.8 1-1 3.4-.5 5 3.8 10.3 55.3 44.8 67.4 54.6 1.8 1.5 8 6 8.6 7.4 2.3 5.4-.6 18.1-.5 24.5 0 4.3 3.4 17.4 1.1 20-1 1.1-12.4 6.6-15.3 8.7-15.1 10.7-26.8 28.3-34.7 44.8-1.5.4-1.7-.4-2.5-1-5.2-3.6-23.3-26.5-26.1-26.9-5.3 3.9-11.8 6.3-12.4 13.4-1.2 13 1 27.8 0 41.1l3.1 42.5 34.4-35.1 2.9-.9c13.6 15 26.1 31.3 40.1 46 1.3 1.4 9.3 10.1 10.5 9 3.5-11.2 11.6-21.6 18.2-31.3 19-27.8 40.6-53.8 59.3-81.7.8-.7.7-1.5 1.5-.4 7.1 9.4 13.4 20.9 20.5 30.4l17.6-43.4-157.1-108.6 2-3c36.8 19.5 75.4 39.4 110.9 61.6 21.2 13.3 40.5 29.5 61.9 42.6.6 1.1.2 2.9 0 4.2-.7 7.6-9.9 31.6-13.2 39.9s-7.1 16.1-11 24l-44.5 161.6c.4 12.4 9.3 27.7 9.8 39.7.3 6.8-1.7 25-3.2 31.9-.4 2.2-1.7 6.3-3 8-1.2 1.6-15.8 8.4-19.4 10.6-24.6 15-45.2 35.2-72.5 46.5-40.8 16.9-104 16.8-144.7-.3-27-11.3-47.4-31.4-71.8-46.2-3.6-2.2-18.2-9.1-19.4-10.6-1.3-1.7-2.6-5.8-3-8-1.4-6.9-3.5-25.1-3.2-31.9.6-12.2 9-27.1 9.8-39.7-13.1-46.2-25.7-92.7-39.3-138.8-2.2-7.3-3.2-16.5-5.7-23.3s-7.5-14.1-10.5-21.5c-5.5-13.7-9.1-28.1-14.2-41.9-.3-1.7 0-3.3 1.4-4.4 24.1-15.7 46.6-33.8 71.2-48.8 32.3-19.7 66.7-38.2 100.3-55.2l3 3-157.1 108.6 17.6 43.4c7.1-9.6 13.4-21 20.5-30.4.8-1.1.7-.3 1.5.4 18.8 27.9 40.3 53.9 59.3 81.7 6.6 9.7 14.7 20.2 18.2 31.3 1.2 1.1 9.2-7.6 10.5-9 14-14.6 26.5-30.9 40.1-46l2.9.9 34.4 35.1 3-42.5c-1-13.2 1.2-28.1 0-41.1-.7-7.1-7.1-9.5-12.4-13.4-2.8.5-21 23.4-26.1 26.9-.8.6-1 1.4-2.5 1-7.8-16.5-19.6-34.1-34.7-44.8-3-2.1-14.3-7.5-15.3-8.7-2.3-2.6 1-15.7 1.1-20 0-6.4-2.8-19.1-.5-24.5.6-1.5 6.8-5.9 8.6-7.4 11-9 62.9-44.3 66.1-52.9 1.1-2.8.4-4.5.8-6.7zm-131 321c0-2.1.2-4.3 0-6.5-2.8-34.8-10.2-71.8-14-107-1.1-10.4-.9-21.8-2.1-31.9-.6-5-3-8.1-6.4-11.6-2.6 2.6-5.7 5.5-5.6 9.5 6.2 38.7 7.2 79.6 17.8 117.3 2.5 8.9 5.6 18.7 8.6 27.4.4 1.1.2 3 1.7 2.8m297-1c2.2.4 2.4-1 3-2.5 18.1-45 18.6-96.5 26.1-144 0-3.9-3-6.9-5.6-9.5-9.1 8.1-6.3 22-7.5 33.5-4.2 40.9-9.7 81.9-16 122.5m-329-141c-2.3-.6-1.7.6-2.3 1.3-.9 1.1-3.3 4.1-3.8 5.2-3.1 7 3.3 23 4.4 30.8l5.7 15.8-4-53Zm364 0s-2.1-.4-2 .5l-4 52.5 5.7-15.8c1.6-5.9 6.4-24.5 5-29.5 0-.4-4.4-7.4-4.8-7.7zm-304 162c-3.2-38.4-5.1-76.9-7-115.5-8.9-13.4-17.5-27.3-28-39.5l17 142c12.5-10.9 10.9 6.7 18 13m260-13 17-142c-10.4 12.2-19 26.1-27.9 39.5l-3.1 63.9-4 51.5c7.1-6.3 5.5-23.9 18-13Zm-163 49c-.2-18.5.3-37 0-55.5-.2-20.4-1.3-41.5-2.1-61.9-.2-4.7 1.2-12.4.8-15.9-.5-4-16.2-16.4-19.2-20.6l-11 14c-.3 20.3 1.8 41.1 2.5 61.4s.6 41.1 1 61.5c2 .8 4.2-3.5 5-3 .2.2 1.2 4.1 3 4.5zm76-17c.4-20.5.2-41.1 1-61.5.3-8.9.7-18 1-27 .2-6.2 3.3-30.6 1.5-34.4-1.5-3.2-8.9-10.1-11-14-3 4.2-18.8 16.6-19.2 20.6-.4 3.5.9 11.2.8 15.9-.8 20.4-1.8 41.5-2.1 61.9-.2 18.5.2 37 0 55.5l20-15.5c1.8-.5 2.8-4.4 3-4.5.8-.5 3 3.8 5 3m-168.3-120.7c-.4-.4-2.6-1.5-2.7-1.3 3.4 40.1 5.8 80.3 9 120.4l12.9 21.1c1.7 1.4 6.8 12.1 8.5 11.4 6.6-2.4 2.7-21.7 2.5-27.4-.5-21-1.3-42.1-2-63-.4-10.5.5-21.1-1-31.5-3.3.2-4.2 1.9-7.1-.4-6.5-5.3-13.2-23-20.3-29.2h.2ZM1114 1651l20-32.6 9.1-120.4c-.2-.3-2.5 1.3-3 1.8-6.8 6.7-13.7 23.7-19.9 28.8-2.9 2.4-3.8.6-7.1.4-1.9 21.8-1.3 43.7-2 65.5-.4 15-3.5 35.6-2.1 50 .3 3.2 1.2 6 5 6.4Zm-151-144-3.6.9-15.4 18.6c-.3 38.2 2.9 76.2 2 114.5 1.1 1.3 17.1-12.3 19-13.7 0-40.2-2.7-80.1-2-120.3m139 134c-.9-38.3 2.3-76.2 2-114.5l-15.4-18.6-3.6-.9c-.3 15.5.4 31 0 46.5 0 2.4-1 4.6-1.1 6.9-.5 22.3-.6 44.6-1 66.8 1.9 1.4 17.9 15 19 13.7Zm-60-131-18.3 16.9-17.6-16.9c.7 44.6 3.8 88.9 4 133.5.4 2.5 12.5 11.2 13.7 11.4 1.4.2 13.8-8.9 14.3-11.4 1.3-6.8-.3-19.3 0-27 .4-11.5 1.2-23.4 2.1-34.9l1.9-71.5h-.1Zm-112.9 165.9-39.6-64.9c-2.7 4.3-15.7 16.7-16.5 20.5-.5 2.3 0 6.3 0 8.8.5 6.2 3.4 24.2 5.1 29.9 2.2 7.3 14 10.2 20.1 13.9 44.8 27.9 79.7 46.3 135.2 43.8 47.1-2.2 77.9-20 116.2-43.8 6.1-3.8 17.8-6.6 20.1-13.9 1.7-5.7 4.6-23.7 5.1-29.9.2-2.5.6-6.5 0-8.8-.7-3.8-13.8-16.2-16.5-20.5l-40.1 65.1-48.9-32.8-45.1 37.7-45.8-37.7c-6.8 2.2-46.8 34.1-49.4 32.6Z" data-original-prefix="outline"/></g><g id="04_Eyes" data-trait="patch-square"><path id="fill-eyes-main" class="fill"  fill="#fff" d="M1337.7 1024.3c1.5.9 16.3 27.2 18.4 31.1 9.6 17.9 18.4 36.1 23.2 55.8.9 3.7 4.9 7.3-.6 11.5-2.1 1.6-13.7 5.7-17.7 7.8s-27.1 14.2-27.8 16.2c-.6 1.7-.4 13.6 0 15.6.8 2.9 6.1 8.9 7.5 13.5.9 2.8 1 8 1.7 9.3.6.9 2.9 1.6 4 3 4.4 5.8-2.2 8.3-3.2 13.7s-2.8 17-3.2 22.8c-.3 4.3-1.4 10.2 3.7 11.3 2.7.6 9.6 1 12.8 1.2 12.1.7 26.8.4 39 0 2.6 0 13.8-3.3 13.3 1.3-.4 3.6-12.5 18.4-15.9 21.1-14.6 11.2-37.7 4.2-54.9 7.6l-1 45.5c-.2 5.3-4.2 6.9-8.5 8.5-10 3.9-37.5 13.6-47.1 14.9-26.7 3.6-67.9-.4-95.9-1-23-.4-46 1.2-68.9-2.1-1.4-.5-17.1-22-17.9-24.1-2.9-7.9.4-19.7-8.2-25.8-1.7-1.2-3.9-.7-6.1-1.9-7.3-3.9-28.9-21.8-35.9-28.1-7.4-6.6-13.4-15-21.1-20.9-2.7 1.3-6.1-.6-8.4.4-1.8.8-13.7 15-17 18.1-12.4 11.4-27.2 20.1-39.7 31.3-3.4.3-6.4-1.6-9.8-1.8-14.9-1.2-31.4 7-47.1 8.9-49.2 5.8-116.2-10.9-153.8-43.9-28.5-24.9-36.2-62.5-37-99-9.7-5.8-19.6-11.2-29.5-16.5-4.9-2.6-18-6.5-18.9-12.2-.5-3.4 2.6-4.6 3.6-7s.8-6.4 1.8-9.2c7.7-21.1 25.9-58.8 39.4-76.4 3.2-4.1 8.3-9.5 12.1-14.1 2.9-3.5 13.9-14.5 14.8-17.2.2-.6.4-2 .2-2.3-.8-1.2-19.2-5.3-19.9-7.7-1.9-5.9 10.5-22.7 13.9-27.9 3-1.9 22.7 9.9 27.3 10.4 30.5-30.6 63.6-56.8 101.7-77.4 133-71.8 282.3-48.8 395.5 47.5 25.5 21.7 43.5 44 64.5 69.5 2.9 3.5 10.4 15.7 12.5 17.5 1.6 1.3 3.2.6 4.2 1.3Z" class="fill" data-original-prefix="fill"/><path id="fill-eyes4" class="fill"  fill="#fff" d="M1301.8 1116.3c3.8-.2 10-1 13.5 0 2.5.7 13.1 8.4 13.7 11.3 1.2 6.2 1.8 17.3 2.1 23.9 1.6 36 1.2 77.9 0 114.1-.4 13.2-.9 32.2-3.1 44.9-2.3 13.4-38.3 18.8-49.6 20.4-42.5 5.9-103.2 5-145.7-1-3.2-.5-10.9-1.1-13.2-2.8-1.1-.8-7.2-10.8-8.3-12.7-11.6-21.7-8.1-60.3-12.2-84.8 2.6-22.8-3.3-53 .1-75 1-6.4 14.7-23.5 21.5-24.5 22.6-3.5 46.2-2.4 68.9-4.1 37.4-2.8 74.9-7.4 112.3-9.7m-40 23c-31.5 1.3-66 4.9-97.1 9.9-7.8 1.2-33.6 4.7-38.1 9.9-2.8 3.2-3.4 13.7-3.6 18.4-1.7 31.3.2 68.8 4.2 99.9.8 6.2 2.4 19.5 4.1 24.9 2.2 6.7 8.9 6.4 15.2 6.8 41.4 2.7 104.8-.6 145.9-7.2 11.1-1.8 18.5-.8 19.6-13.4 3-33.9 2-76.9-1-111-1-11.3-2.9-22.5-4.2-33.8-.8-2.2-5-4.3-7.3-4.7-9.5-1.5-27.4-.2-37.6.2Z" class="fill" data-original-prefix="fill"/><path id="fill-eyes3" class="fill"  fill="#fff" d="M1086 1218c-1.7.4-2-.7-3-1.5-11.6-8.9-24.7-24.7-36-35-64.5-59-150-118.9-227.3-159.7-30.9-16.3-63.7-31.6-96.7-42.8.9-4.8 9.2-19.5 14-18.6 70.5 32.6 138.8 73.2 202.3 117.8 44.2 31.1 90.4 65.3 129.2 102.8 2.5 2.4 15.2 14.4 15.9 16.1.4 1 2.2 20.2 1.5 21Z" class="fill" data-original-prefix="fill"/><path id="fill-eyes2" class="fill"  fill="#fff" d="M1349 1245.5c0-.4-1.4-1.4-1-2.5 18.4 2.5 36.7-1.6 55-2.5-2.3 4.7-10.3 15.2-14.8 17.2-3.1 1.4-11.8 1.9-15.7 2.3-7.5.7-15.9.7-23.5 1-.4-5 .6-10.7 0-15.5" class="fill" data-original-prefix="fill"/><path id="fill-eyes1" class="fill"  fill="#fff" d="M1262.8 1153.3c4.9-.2 30.8-1.3 32.7.7 3.2 3.3 6.2 28.7 6.5 34.5 1.7 31.9-.8 65.7-2.5 97.6-1.7 2.8-26.6 7.2-31.2 7.8-28.3 4-67.4 6.6-95.9 5.2-3.9-.2-28.5-2.7-30.1-3.9-.8-.6-1.2-1.6-1.4-2.6-.4-22.7-3.9-45.3-5.1-67.9-.4-8.6.2-17.4 0-26.1-.2-9.9-4.8-26.6 8.7-31.2 7.5-2.6 21.5-3.8 29.9-5.1 28.9-4.3 58.9-7.8 88.1-8.9Z" class="fill" data-original-prefix="fill"/><g id="shading-eyes" class="shading"  class="st2"><path id="outline-shading-eyes4" class="outline"  fill="#000" d="M1091 1153.5c0-.7 2.6-4.3 0-4.5-3.9 10.4-12.6 18.7-18.5 28l-12.4-11.6 30.4-52.4c24.6-17.8 51.7-32.2 78.5-46.5 16.6-8.8 33.3-13.7 46-28 5.2-5.9 16.1-20.6 18.3-27.7 5.2-16.7-3.1-28.6-11.1-42.5-18.2-31.5-47.3-67.4-78.3-86.7-12.8-8-27.4-13.5-37.9-24.6 32.2 6.5 62.9 20.8 91.3 37.2 44 25.3 86.1 60.9 116.1 101.9 2.8 3.8 12.4 14.4 8.3 18.7-3.2 3.3-24.9 8.2-31 10.5-59.6 22.2-105.7 42.8-156.6 81.4-3.9 2.9-10 9.4-13.7 11.3-3.2 1.6-5.8.6-8.3 1.7-1.7.8-15 17.8-14 18.5 10.7-1.9 6.1 7.1 6 13.5-1.1 43.7-3 90.5 4.3 133.8 4.4 26.3 14 35.6 40.3 39.7 39.1 6 86.4 3.6 125.6-2.2 9.6-1.4 26.4-3.7 35.1-6.9 1.9-.7 9.8-5.4 11-6.7 2.1-2.1 3.6-10.5 4.4-13.9 4.5-19.2 6.7-39 11.3-58.2 2.6-.3 1.6 0 2 1.5 2.7 8.6-2.4 21.4-.5 30.5 4.3-5.4 5.9-29.8 11.5-32.5 10.1-4.9 6.6 11.1 9.2 16.4 12.8 1.9 25.9 1.2 38.8.6-4.1 3.6-8.2 10-13.7 11.3-11.3 2.7-26.4.6-38.3 2.2l-1.2 26.3c-3.2 3.8-6.6 7.6-9 12-2.2 4.1-7 20.7-8.9 22.1-2.4 1.8-15.8 4.3-19.8 5.2-48.6 11-137 18.5-183.9 2.6-11.8-4-11.1-9.4-17.4-18.6-2.3-3.3-9.2-10.1-10.3-12.7-1.7-4.3.8-21.3-1.6-22.9-1-.7-6.1 2.3-7.9.5-19.3-15.7-40.5-29.2-56.1-49-.8-.3-9.2-.3-9.9 0-1.5.7-15.5 16.9-19 20-11.7 10.4-25.5 18.4-37 29-6.9.9-11.1-.9-8-8.5-2.7.6-8.6 1.4-10.8-.2-.7-.5-.8-2.7-1.7-3.7-4.3-4.9-43-18.5-52.8-25.2-4.3-3-8-8.3-12.2-11.8-22.6-18.9-57-46.6-83.4-58.6-23.5-10.6-53.9-14.7-78.4-23.4l-2.2-5-41.4-21.6 4.9-4.1 15.1-28.9 32.3-.3c21.8 12.8 45.2 24.8 66.2 38.8 27.5 18.2 51.9 40.4 80.6 58.4 16.4 10.3 74 45.7 90.4 45.6 6.9 0 18.6-2.9 25.7-4.3 6-1.2 20-6.3 24.5-6.4 2.5 0 7.8 3.9 12.8 3.8 4.6 0 9.1-3.9 11-4 2.4-.1 20.6 5.6 25.3 6.6 8.3 1.8 16.8 3.1 25.2 4.3.4-1.7-.7-2-1.5-3-1.9-2.5-5.7-6.5-8-9-2.6-2.8-20.7-21.5-22.2-21.8-4-1-11.8 8.7-16 9.7-5.2 1.2-10.1-.7-14.7-.7-4 0-8.3 1.6-13 .8-1.7-.3-20.9-13.4-23.5-15.5-8.5-7-9.3-13-14.9-21.1-18.7-27.4-31-44-57.3-64.7-49.5-39-98.9-60.6-157.6-82.4-5.5-2-30.8-7.5-32.1-11.9-1.9-6.5 12.8-18.3 11.8-21.7-.8-2.9-19.7-7.4-20.8-8.7-1.2-1.4 1.5-10.9 2.4-10.9 11.6 7 25 10.2 37.5 15.5 119.1 50.8 202.7 110.9 299 195.9 8.1 7.2 15.9 14.8 23.5 22.5 2.7-5.3.6-11.4 2-17 .1-.5 2.6-6.4 2.8-6.7.8-1 4.3-1.1 5.2-3.2.9-2 .2-4.3.7-6.3.3-1.3 1.8-3 1.8-3.2 0-5.2-.3-10.8 0-16ZM830.5 1034c.6 2.7 3.2 5.9 5 8 9.4 10.7 35.1 20.5 48.5 27.5 7.9 4.1 15.4 9.6 24 12zm208.5 152c-21.5-20.6-44-40.7-67.5-58.9-3-2.3-6.1-4.8-9.4-6.6 2.9 6.2 6.4 12.2 9.8 18.2 5.5 9.6 18.8 34.8 25.3 41.7 1.7 1.8 2.7 2.1 4.9 3.1 9.8 4.5 12.3-.6 17 12 1.5 4.1 0 9.7 5.4 8.5 4.9-1.1 2.8-4.8 4-8 1.8-4.8 4.5-10.9 10.5-10" class="shading" data-original-prefix="shading" opacity=".2"/><path id="outline-shading-eyes3" class="outline"  fill="#000" d="m1294.9 1282.9 5.2-78.3c-.2-7 .2-14.1 0-21.1-.2-8.5-2.8-18.1-1-26.5 6.3 7.3 9.3 16.9 10 26.5 2.2 30.6-2 61.3-1 91 .2 5.8 3.7 21.4.5 25.4-2.7 3.4-10 4.9-14.2 5.8-21.7 4.7-52.3 6.6-74.7 7.3-17.1.6-66.8 2.6-80.8-1.3-6.8-1.9-3.7-4.9-3.7-9.2.2-16.5-2.3-30.2-3.1-46-.7-14.7.8-29.4 1.1-44 .2-11.1-1.3-24.4-.7-34.9.3-5.1 4-6.5 5.6-1.1 2.3 37.7-.5 76.7 11 113l36.5 4.5c36.9 1.5 73.7-1.9 109.3-11.1" class="shading" data-original-prefix="shading" opacity=".2"/><path id="outline-shading-eyes2" class="outline"  fill="#000" d="M942 857c-13.9 13.6-32.7 20-48.3 31.2s-30.7 28.3-42.6 43.4c-15.2 19.1-28.7 39.8-38.1 62.5l-53-27.5c-.7-2.8 34.6-33.5 39.5-37.5 40.6-32.8 91.3-60.5 142.5-72Z" class="shading" data-original-prefix="shading" opacity=".2"/><path id="outline-shading-eyes1" class="outline"  fill="#000" d="M1340 1127.5c-1.3-7.2-24.1-22.1-31-24-1.7-.4-7-.3-7-1 6-2.5 15.8-11.1 21.7-12.3 4.8-1 24.6-.9 29.8-.3 1.3.2 1.8 0 3 1 2.5 2.3 9.6 20.5 12.7 25.3.7 1.1 1.5 2.9 2.3 3.7 1.6 1.5 4.9 1.1 4.4 4l-36 18c-.5-4.4.7-10.3 0-14.5Z" class="shading" data-original-prefix="shading" opacity=".2"/></g><g id="outline-eyes" class="outline" ><path id="outline-eyes4" class="outline"  fill="#000" d="M696 1136c.3 2.6-.8 14.5-2 16.3-.6 1-3.3 1.6-4.4 1.4-3.8-.5-15-6.6-20.6-8.2-4.9-1.3-17.2-2.5-20-4.1-4.8-2.8-4.4-10.1-3.9-14.8 3.2-34.8 30.8-101.4 55.3-126.7 1.2-1.2 9.2-7.6 10.3-7.8 2.5-.5 4.5 2.4 7.2 1.8 2.6-5.3-4.2-4.1-7-6.5-4.3-3.8.9-19 3.2-23.7 2.6-5.2 11.8-16.8 18.1-16.5 4.7.2 15.3 7.8 18.6 6.2 44.2-43.5 99.3-84.9 159.8-102.2 62.3-17.8 144.3-19.3 207.4-5 82.1 18.6 152.9 74.9 205.8 138.2 1.4 1.7 5.7 9.1 6.2 9.3 1.7 1 4.2-1.8 6.9-1.5 9.9 1.4 27.5 29.3 32.8 38.3 13.7 23.1 25.1 53 30.7 79.3 1.5 7 7.1 27.5-.6 31.5-7.2 1.4-13.9 2.1-21 4-4.5 1.2-19.2 8.3-21.3 8.2-4.9 0-4.8-14.8-4.7-18.7.3-.5-.6-2.4.6-3.1l22.2-10.1c1.7-14.1-5.3-27.7-11-40.2-6.3-14-19.2-40-28.4-51.6-.8-1.1-1.8-2.5-3.1-2.9s-9.8-1.1-11.7-1.1c-8.4 0-24.3 1.7-33 3-8.1 1.2-15.6 4.6-23.6 5.9-.6-2.6.8-1.8 1.9-2.6 12.1-9.8 26.3-18.3 40-25.6 1.1-1.8-4.4-14.1-5.7-16.5-18.8-35.7-110.6-98.8-148.7-113.3-95.7-36.6-209.6-32.9-297.8 21.2-30.2 18.6-60.7 40.7-85.7 65.8 97.3 49.2 192.4 106 275 177.5 10 8.6 19.1 18.3 29.5 26.5 8.9-18.8 13.8-40.3 28-56 29.8-15.5 59.3-31.4 90-45l1.5 1.5c-20.7 14.7-42.8 27.8-62 44.5 11.4-2 23-.5 34.5-.9 33.2-1.3 69-4.4 101.8-9.2 9.6-1.4 32.2-7.6 40.1-6.8 8 .8 31.9 16.7 36.6 23.4 3.5 5.1 1.7 12.4 2 18.5.7 13.1 2.1 26.8 2.8 39.7 0 2.1-2.9 5.4-1.8 8.3 2-1.3 3.3-2.5 6-2 2.2 2.1-5 16.3-5 18.5v27.5c15.8 1.2 32.6 1.6 48.5 1 5.9-.2 10-3.7 15.8 0 3.8 2.5 4.5 6.4 2.8 10.6-2.2 5.7-20.4 25.8-26 28-3.5 1.4-11.7 2-15.8 2.2-8.1.5-16.4-.3-24.5 0l.8 39.3c-8.6 11.2-14.9 21.9-29.2 25.9-21.2 5.9-47.2 9.1-69.1 10.9-45.6 3.8-92.3 4.9-137.7-1.2-8.9-7.8-24.4-23.1-25.8-35.2-.7-5.8 1.2-15.9-.2-20.8-.4-1.3-9.7-10.4-11.8-13.2-1.1-1.5-.7-3.1-1-3.5 2.1.5 2.3-1.1 2.9-2.6 6.6-18.3-9.6-26.2-20.9-36.4 9.3.8 17.7 5.7 26.7 7.8 1.5.3 2.7.8 2.3-1.3-10.8-11.2-20.8-23.2-32-34-28.2-27.1-63.8-58.7-95.1-81.9-.9-.7-2.8-2.4-3.9-2.1 10.2 18.5 18.2 38.3 24.5 58.5-3.3-3.8-7.4-7.7-10.5-11.5-8.9-10.9-16.5-26.9-25.5-36.5-8.2-8.7-24.7-20.7-34.6-28.4-17-13.2-35-25.1-52.9-37.1 1-1.3 3.5-.2 4.7.3 16 5.8 36.5 17.8 52.3 25.7 1.3.7 2.5 1.4 3.5 2.5l.5-2c-40.5-27.8-83-53-127.6-73.9-12.5-5.8-31.9-15.7-44.3-19.7-3.1-1-4.6.7-3.9 3.8s9.2 6.1 12.2 7.9c10.2 6.4 21.1 13.4 29.7 21.8-7.7-1.3-14.8-4.8-22.5-6-11.3-1.7-34.3-4-45-2-.8.2-1.5.2-2 1-8.8 15.2-18.3 30.2-26 46-4.3 8.9-12.9 26.5-14.4 35.6-.3 2.1-1.1 10.9-.2 12 1.4 1.7 17.2 6.9 21.1 10 2.1 1.7 1.8 2.1 2 4.5Zm390 82c.7-.8-1.1-20-1.5-21-.8-1.7-13.4-13.6-15.9-16.1-38.8-37.4-85-71.7-129.2-102.8-63.5-44.7-131.8-85.2-202.3-117.8-4.9-.8-13.1 13.8-14 18.6 33 11.2 65.8 26.6 96.7 42.8 77.3 40.8 162.9 100.7 227.3 159.7 11.3 10.3 24.3 26.1 36 35 1 .8 1.3 1.9 3 1.5Zm215.8-101.7c-37.4 2.3-74.9 6.9-112.3 9.7-22.8 1.7-46.3.6-68.9 4.1-6.8 1-20.5 18.1-21.5 24.5-3.4 22 2.5 52.1-.1 75 4.2 24.5.7 63 12.2 84.8 1 1.9 7.2 11.9 8.3 12.7 2.3 1.7 9.9 2.3 13.2 2.8 42.5 6 103.2 6.9 145.7 1 11.3-1.6 47.3-7.1 49.6-20.4 2.2-12.8 2.7-31.7 3.1-44.9 1.2-36.2 1.6-78.1 0-114.1-.3-6.6-.8-17.7-2.1-23.9-.6-2.9-11.2-10.6-13.7-11.3-3.5-.9-9.7-.2-13.5 0M1084 1178v-14l-7 8.5zm265 67.5c.6 4.8-.4 10.5 0 15.5 7.6-.3 16-.3 23.5-1 3.9-.4 12.7-.9 15.7-2.3 4.4-2 12.4-12.6 14.8-17.2-18.3.9-36.6 5-55 2.5-.4 1.1.9 2.1 1 2.5" class="outline" data-original-prefix="outline"/><path id="outline-eyes3" class="outline"  fill="#000" d="M707 1142c4 1.2 11.1 1.2 16 2.5 37 9.8 72.3 23.3 103.9 45.1 34.5 23.8 57 54.9 101.7 59.3 21.1 2.1 43.4-9 63.4-14.9.7 2.6-.9 1.8-1.9 2.6-10.5 9.2-26.9 18-19.5 35.2.7 1.6 2.2 1.1 2.3 1.2 2.2 3.7-11.2 16.6-14.3 18.2-4.3 2.2-10.9 2.5-15.7 2.8-.2-2.8 1.7-4.6 2-7.5.2-1.5.6-2.8-1.4-2.4-4.5.9-13.5 7.5-17.5 10.5-8 5.9-19.1 19.5-27.9 21.1-20.4 3.9-65.8 1.6-86.5-3-12.8-2.8-29.1-11.9-41.1-17.9-.8-.4-7.6-2.1-2.2-2.8 2.3-.3 5.6-.1 8 0 4.3.2 10.5.7 14.7 1.3 5.7.8 10.2 3.8 15.4 4.6 1 .2 3.7.8 3.4-.9-5.5-1.3-10.4-4.2-15.8-5.7-13.3-3.9-33.5-4.4-44.9-10.1-5-2.5-29.8-28.8-33.5-34.4-5.8-8.7-17.7-46.7-18.8-57.2-.2-1.8 0-3.7 0-5.5 2.6-2.6 9 9.2 10.4 11.1.4.5 1.1 3.7 2.6 1.9 1.7-2-9.5-16.9-9.8-18.7-.2-.9 3.9-14.9 4.5-18.1 1-6.1 1.3-12.2 2.3-18.2Z" class="outline" data-original-prefix="outline"/><path id="outline-eyes2" class="outline"  fill="#000" d="M998 1254c.8-5.6 6.1-9.6 9.2-14.3 6-9.1 12.3-22.8 9.8-33.7 5.5 2.5 8.9 2.5 14.5 0-2.8 19.1 9.8 31 19 45.1.9 1.4.3 3.3.5 3.9-3.3 0-4 4.3-7 4-.3-5.3-7.6-7.7-11.1-11.5-2.9-3.1-3.7-6.1-5.7-9.3-1-1.7-3.7-2-5.1-1.1-.5.3-3.4 7.2-5.2 9.3-3.8 4.4-11.3 6.9-12 12.5-1.4 1.3-5.2-4.4-7-5Z" class="outline" data-original-prefix="outline"/><path id="outline-eyes1" class="outline"  fill="#000" d="M1261.8 1139.3c10.2-.4 28.2-1.7 37.6-.2 2.3.4 6.5 2.4 7.3 4.7 1.3 11.2 3.2 22.5 4.2 33.8 3 34 4 77.1 1 111-1.1 12.6-8.6 11.6-19.6 13.4-41.1 6.6-104.5 9.9-145.9 7.2-6.2-.4-13-.2-15.2-6.8-1.8-5.4-3.3-18.6-4.1-24.9-4-31.1-5.9-68.6-4.2-99.9.3-4.7.8-15.2 3.6-18.4 4.5-5.2 30.3-8.7 38.1-9.9 31.1-5 65.7-8.6 97.1-9.9Zm1 14c-29.3 1.1-59.2 4.5-88.1 8.9-8.4 1.3-22.4 2.5-29.9 5.1-13.5 4.6-8.9 21.3-8.7 31.2.1 8.7-.5 17.4 0 26.1 1.1 22.7 4.7 45.2 5.1 67.9.1 1 .6 2 1.4 2.6 1.6 1.2 26.2 3.7 30.1 3.9 28.5 1.4 67.6-1.2 95.9-5.2 4.6-.7 29.5-5.1 31.2-7.8 1.8-31.9 4.2-65.7 2.5-97.6-.3-5.7-3.3-31.2-6.5-34.5-1.9-2-27.8-.9-32.7-.7Z" class="outline" data-original-prefix="outline"/></g></g><g id="05_Right Ear" data-trait="OG"><path id="fill-ear-rt1" class="fill"  fill="#fff" d="M1715.7 184.2c3.2-.7 6.5-.5 7.2 3.3 2.3 39.5-3.6 77.2-9 116-.7 4.7-.2 11.1-1.1 15.9-5 26.9-24.5 58.9-29.7 86.3-5.7 30.4-4.7 64.8-10.9 95.1-7.8 38.3-25.1 77.8-33.7 116.4l-71.9 122.1c-45.8 31.3-94.9 58.3-141.8 88.2l-35 81-84.6 77.3c-5.6 2.9-16.3-.8-22.4-2.4-27.7-7.2-48.3-18.1-70.9-35.1-16.5-12.5-27.2-20.9-37.6-39.4-6-10.5-10.9-22.9-14.5-34.5 26.8-59.3 58.7-116.4 86.8-175.2 4.9-58.7 6.7-117.8 11.4-176.5 36.5-47.5 77-92.5 114.8-139.2 47.2-35.9 96.4-69 144.9-103.1 66.1-31.9 127.9-72.1 197.8-96.2z" class="fill" data-original-prefix="fill"/><path id="outline-shading-ear-rt1" class="outline"  fill="#000" d="M1670.9 280.1c2.8 3.9-18.7 26.3-21.9 30.5-38.8 50.2-75.5 128.6-72.1 193 .8 14.1 7.3 33 2.8 45.7-3.7 10.4-14 27.3-15.4 37.7-.4 2.9.9 5.2.6 8 10-1.2 15.8-10.8 21.2-18.3 17.3-24.1 30.1-53.1 43.5-79.5 1.1-2.2 1.5-2.2 1.2.2-.8 9.2-6.8 26.8-9.7 36.3-15.4 50.2-37.8 100.7-66.2 144.8-15.3 23.7-22.2 32.4-46.1 47.9-25.3 16.4-36 17.1-63.9 25.1-14.1 4.1-56 16.5-65.5 25.5-11.9 11.1-30.7 52.3-40.3 68.7-13.5 23-27.7 45.9-43.8 67.2-3.6 4.8-10.5 10.9-13.3 15.7-5.6 10-6.8 27-11.1 37.9 7.3-4.2 14.2-10.7 20.5-16.5 12.8-11.9 26.4-25.8 38.5-38.5s33.6-33.7 41.2-48.8c7.8-15.6 13.6-33 21.3-48.7 14.9-4.8 30.4-7.3 45.1-12.9 49.9-18.9 92.7-57.3 134-90 1.4-.3 1.9 0 1.5 1.5-.9 3.2-10.1 20.8-12.2 23.8-4.2 6-36.3 28.6-44.5 34.5-29 20.7-59.7 39.2-87.9 61.1-15.7 27-28.8 55.8-43.5 83.5l-80 71c-6.2 2.7-28.5-4.8-35.8-7.2-32.1-10.8-54.1-27.3-79.9-48.6-8.9-15.6-7.9-22.5 2.7-36.2 24.9-31.8 50.6-57.8 73.4-92.6 33.1-50.5 54.8-106.4 86.2-157.8 11.1-18.2 27.9-36.1 31.3-57.7 1.4-9.1 1-19.2 1.1-28.4l54 6.5c10.6 14.3 17.8 31 26.5 46.5.8-.4 10.6-11.5 11.3-12.7 4.2-7.8 8.8-30.6 10.8-40.2 5-24.6 7-49.5 8.5-74.5 1.9-20.4-5.1-39.9 3.1-58.9 17.4-40.4 50.1-78.2 81-109l66.7-44.4c3.2-.7 24.4 7.8 25.2 8.9Z" class="shading" data-original-prefix="shading" opacity=".2"/><path id="outline-ear-rt2" class="outline"  fill="#000" d="M1204 941c-.6 2-3.1 0-4-.5-7.8-4.3-18.2-9.3-23.9-16-10.4-12.2-18.1-29.9-28.5-42.5-1-3-.7-7.3-.5-10.5.9-20.4 12.5-34.1 20.8-52.2 6.3-13.5 12.6-35.7 19.9-47 2.7-4.1 7.2-7.8 10-12 31.9-46.3 39.4-118.5 44.2-173.8 1.8-21.4.9-43.9 3-65 .7-7 2.4-6.2 5.4-10.6 39.7-59.4 85.7-117.4 135.1-168.9 20.3-21.2 36.1-32.5 60.6-48.4 72-46.8 150.7-85.5 232.4-112.6 12.3-4.1 26.8-8.2 39.5-10.5 12.2-2.1 12.3-3.8 15.3 8.7 7.3 30.4 1.8 91.6-1.3 124.3-.9 9.8-3 31.1-6.5 39.5-3.3 7.9-15.6 18.9-20 29-10.5 24-19.4 81.7-16.4 107.4.7 6.2 5.5 13.1 5.9 18.2.7 9.9-12.8 55.2-16.7 67.2-35.3 109.6-95.4 197.5-196.6 254.4-11.5 6.5-25.5 10.6-34.7 20.3-19.6 20.7-27.1 49.3-38.8 74.2-6.1 12.9-28.9 26-40.2 36.8-2.7 2.6-4.6 5.8-7 8-6.6 6.3-28 29.3-33.5 32.5-2.3 1.4-20.6 4.8-23.6 4.5-9.8-.9-50.7-16.5-58.9-22.1-1.6-1.1-2.9-2.4-3-4.5 7.7 2.8 23.6 7.2 31.6 7.9 22.6 2 43.2-12 60.7-25.1 35.1-26.1 71-71.5 81.2-114.8 1.9-8-1.7-7.6 6.1-13.9 33.8-27 77.5-40.2 111.3-70.7 68.7-61.7 111.2-146.9 130.5-236.5 6-27.8 3.2-52.9 6.5-80.5 3.3-27.4 13.9-73.5 26.1-97.9 5.5-11 10.8-15.4 13.6-28.4 3-14.4 5.4-31.2 7.2-45.8 3-24.6 4.6-49.6 2.1-74.4-1.9-1.9-45.3 15.5-50.7 17.8-67.7 29.8-139.1 73.4-201.2 113.8-57.2 37.1-99 74-142.1 126.9-15.7 19.3-36.9 44.4-50.5 64.5-13.7 20.4-13.2 63.6-15.6 88.4-3.2 33-4.2 70.9-9.1 102.9-2.9 18.7-26.7 65.7-36 85-6.8 14.1-16.8 28.5-23.1 42-6.3 13.7-9 29.6-15.7 43.3-3.2 23.3 13.4 51.1 28.9 67.4z" class="outline" data-original-prefix="outline"/><path id="outline-ear-rt1" class="outline"  fill="#000" d="m1695 240-22.5 39c-48.8 30.2-87.3 71.4-110.7 124.3-14.5 32.8-25.8 88.9-11.3 122.7 1.2 2.9 6.7 10.6 6.3 12.3-21.1 26.6-32.9 59-41.6 91.5-2.4 8.9-8.5 47.6-11.4 51.6-2.7 3.7-14.2 13.2-18.4 16.6-14.8 12-38.3 27.6-55.4 35.6-2.5 1.2-5.2 2.5-8 2.5 2.8-6.9 6.8-13.1 9.5-20 11-27.9 12.1-62.7-8-87-19.2-23.2-26.3 5.7-31 22-5.4 18.8-8 37.1-8.2 56.8-42.8 42.2-76.4 95.5-104.5 148.6-12.4 23.3-33.8 63.7-30.8 90.2.6 5.4 4.2 10.1 5 15.5-2.3 2.3-27.8-19.3-28.8-22.7-.6-2-.3-4.7-.2-6.8.2-5.2 1.3-20.2 2.5-24.5s15.1-20.8 18.8-26.2c34-50.1 53.3-108 86.4-159.6 11.5-18 28.4-31.6 37.6-51.4 8.3-18 20.8-76 17.2-94.5-.8-4-10.4-27.1-9.3-28.1 7.5 2.8 14.7 6.9 21.7 10.8 6 3.4 32.8 18.5 35.4 22.6 3.1 5 9.5 27.5 11.5 34.5 2.3 8.3 6.6 35 11.4 39.5 13.2 12.3 30.8-13.9 36.2-23.9 25.8-47.2 33.3-96.7 25.7-150.1-1.2-8.7-7.4-28.3-6.7-35.9s16.9-39.6 21.3-47.8c22.4-41.7 46.9-64 80.1-96 8.8-8.5 21.4-24 30.5-30.5 5.6-4 14.3-6.6 20.3-10.7 3.7-2.5 26.2-24 29.7-20.8h-.3Z" class="outline" data-original-prefix="outline"/></g><g id="06_Left Ear" data-trait="KBDS tattoo"><path id="fill-ear-lft" class="fill"  fill="#fff" d="M326.7 182.1q1.65-.45 3.3.3l180.7 78.4c55.2 39.7 111.9 77.8 165.3 119.7l109 135.9c10.5 65.4 16 132 25.2 197.8 24.6 50.1 52.6 98.7 77.3 148.7 1.5 3.1 5.4 9.5 5.5 12.5.2 4.7-8.5 15.9-11.2 20.8-15.1 27.1-18.8 33.2-43.9 52.1-22.9 17.2-44.3 28.5-72.5 35.5-8 2-18.1 5.7-25.3.5l-82.9-79.1c-9.9-22-17.5-45.3-28.1-66.9l-154-109c-23.7-34.4-41.7-73.1-64.9-108.1-9.8-43.7-27.6-90.2-34.9-134.1-5.9-35.7-6.9-73.6-12.5-109.5-9.3-20.9-22.7-40-30.5-61.5-1-40.6-6.8-81.2-8.3-121.7-.1-3.4-1.1-11.4 2.8-12.4Z" class="fill" data-original-prefix="fill"/><path id="outline-shading-ear-lft" class="outline"  fill="#000" d="M664 558v21.5c0 22.8 19.2 43.4 30.4 61.6 38.9 63.4 63.1 129 108.2 189.8 16.2 21.8 35 41.1 51.9 62.1 4.8 5.9 9.3 10.3 9.5 18.5.2 6.2-2 12.6-1.1 19l-.9 2.1-60.1 40.9c-13.7.2-28.1 9.9-40.7 12.4-1.5.3-2.8.5-4.2-.3l-76.6-51.4-69.8-109.7c-33.8-23.4-81.3-39.6-107.2-72.3-4.2-5.3-6.4-12.2-10.5-17.5.3-1.1 2.2-.4 3 0 7.1 2.9 21.5 16.6 29.2 21.8 23.5 15.5 51.4 30.4 77.3 41.7 17.3 7.5 35 10.9 52.9 16.1 7 15.4 12.9 31.5 20.2 46.8 8 16.6 27 35.1 40.2 48.8 19 20 39 39.1 59.5 57.5 1.5.2 1.8 0 1.4-1.4-1.9-7.7-7.7-31.2-11.1-36.9-4.7-7.9-16.1-19.2-22.2-27.8-25.1-34.9-42.3-72.5-64.4-108.6-7.4-12-9.8-16-22.8-22.2-38.1-18-78.4-19.1-114.3-41.7-26.9-17-34.3-26.3-51.1-52.9-25.7-40.5-46.4-86-61.2-131.8-4.2-12.9-10.9-32.4-12.7-45.3 0-.6-.3-1.6.5-1.5 14 25.4 25.6 52.8 42.1 76.9 5.6 8.2 12.9 19.9 23.4 21.1-.5-2.4 1.1-5.1.8-7.3-1.4-11-12.7-28.8-16.3-39.8-3.8-11.7 2.7-30.6 3.5-43.5 3.6-59-24.7-121.5-55.6-170.4-12.4-19.7-28.5-37.1-37.4-59.1h16.5c8.6 0 8.7 2.4 14.2 5.8 15.3 9.7 32.5 17.5 48 27 30.2 18.6 67.2 68.2 84.5 99.5 2.9 5.2 12 22.4 12.8 27.2.9 5.4-.9 10.1-1 14.9-.8 41.5 1.8 83.9 11.9 124.2 3.2 12.9 5.4 24.4 15.1 33.9 1.4 1.4 2.9 3.8 4.5 1.5l24.5-44.5 55-6.5Z" class="shading" data-original-prefix="shading" opacity=".2"/><path id="outline-ear-lft1" class="outline"  fill="#000" d="M846 941c15.6-16.5 32.2-43.8 28.9-67.4-.7-5.3-12.9-37-15.7-43.3-4.9-10.8-13.5-22.9-19.1-33.9-13.3-26.2-23.6-54-36.6-80.4-11.5-63.5-8.3-129.6-22.2-192.8-17.8-27.6-39.3-55.2-60.3-80.7-38.8-47.2-78.4-82.8-129.5-116.5-44.3-29.2-93.1-59.2-139.9-84.1-38.9-20.7-78.7-40.3-120.7-53.8-2.4 25.4-1 51.1 2.1 76.4 1.6 12.7 3.6 27.3 6.1 39.9 4 19.6 14 30.2 20.7 48.3 12.6 33.6 20.1 76.2 22 112 1 17.6-.2 29.6 3.5 47.6C403.7 602 448.2 693 517.8 753.8c34 29.7 77.1 43.1 110.3 69.7 7.8 6.3 4 4.9 5.1 11.8 1.6 9.9 18.8 46.7 24.6 56.2 15.7 25.7 53.2 60.5 79.7 75.5 24 13.7 44.9 12.6 70.3 2.2-1 4.2-9.1 7.7-13 9.5-10.8 5-38.1 16.1-49 17.1-3 .3-21.2-3.2-23.6-4.5-4.8-2.8-25.5-24.8-31.5-30.5-6.5-6.3-12.2-13.3-19.5-19.5-10.3-8.7-24.4-15.4-30-28-10.2-23.4-16-42.1-31.1-63.9-13.3-19.2-23.3-19.4-42.1-29.9-54.1-30.4-101.8-71.4-134.8-124.2-34.3-55.1-65.6-124.7-77.1-188.9-2.5-13.8 1.9-13.4 4.1-25 4.4-23.5-6.2-86.5-16-109-4.4-10.1-16.6-21.1-20-29s-5.6-30.1-6.5-39.5c-3.2-33.3-7.5-84.6-2.9-116.9.4-2.5 3.3-15.8 4.5-16.7 3-2.2 17.1 1.6 21.4 2.6 42 9.3 96.2 32.3 135.7 50.3 50.6 23.2 121.1 61.1 164.2 95.8 15.1 12.1 34.1 34.5 47.6 49.4 42 46.4 79.2 96.7 114.9 148.1 8.9 76.3 3.1 178.6 48.8 244.2 2.9 4.1 7.4 7.9 10 12 7.1 11.1 12.9 32 19 45 8.4 18.2 20.9 33.8 21.8 54.2.1 3 .5 7.8-.5 10.5-17.1 21.9-26.4 52.1-56.5 59Z" class="outline" data-original-prefix="outline"/><path id="outline-ear-lft2" class="outline"  fill="#000" d="M672 548c1 1.1-9.1 24.9-9.8 28.7-3.4 19.9 9.7 77.8 18.9 96.6 8.1 16.7 18.9 24.3 29.3 37.7 6 7.7 12.2 19.9 17.4 28.6 28.7 47.7 46.4 98.9 78 145 4 5.8 13.4 15.9 15.8 21.2 1.5 3.3 3.4 23.6 3.5 28.6.2 6.5-4.7 9.9-9.1 14-2.2 2-18.3 15.2-20 13.5.6-4.8 4.2-9.9 4.9-14.6 3.5-25.1-14.9-60.6-26.4-82.4-4.9 13.5-9.7 27.4-13.8 41.2-1.8 6.3-7.7 23-7.7 28.4s7.6 4.8 7 10.3c-15.2-4.4-28.5-12.5-41.5-21-2.2-2.1 0-8 .8-11.2 4.1-17.3 11.7-34.5 14.7-52.3-.2-2.6-21.2-17.3-24.5-20.5 1 13.8 3.6 27.7 4.5 41.5.3 4.3-.2 8.7 0 13 .2 4.5 4.1 23.3-5 21-2.3-.6-20.4-11.5-22.5-13.5-4.2-3.9-8.2-11.2-12.4-15.6-2.5-2.5-13.6-10.6-14.1-12.9-.3-1.6-.3-5 .5-6.5 9.7 5.3 18.8 11.2 27.5 18-.7-19-1.6-39.6-5.3-58.2-.4-1.9-.8-5.8-1.6-7.1-1-1.6-5.1-1-4.1-3.2s12.4-6.1 15.3-5.3l38.7 28.3-39-100.5c-2.6-.3-1.6 0-2 1.5-4.1 17.4-8.7 36.8-11.7 54.3-2.2 12.7-4 25.3-3.3 38.2-8.7-4.1-17.9-7.7-26.3-12.1-2.7-1.4-18.9-10.1-19.7-11.3-1.8-2.5-.1-5.4-1.8-8.2-1.1-1.7-10.3-6.9-13.6-10.4-24.8-26.3-42.5-56.6-72.5-79.5-1.9-1.4-9.4-3.2-6.3-6.6 4.4-5 15.9-9.9 21.4-14.4-2.3-1.5-3.7-4.5-5.3-6.2-.9-1-3-.9-4.2-2.3-2.5-2.8-8.3-37.9-10-45-1.9-8.1-4.5-16-6.5-24l-18.1 62.5c0 2.9 13.6 7.3 16.1 10 .9.9 1.6 2.5 1 3.5-.5.7-13.8 6.2-15.4 6-1.5 0-23.1-12.3-25.9-14.2-13.3-8.9-12.4-19.7-18.8-33.2-4.7-9.9-10.1-18.5-19-25-2.6-2-15-8.5-15.7-9.8-1.3-2.2 5.5-27.8 6.5-32.6 6.1-29.7 11.1-59.4 13.4-89.7.4-4.9-1.7-12 1.1-16.8 1.6-2.8 42.3-16.6 47.8-21.3-3.5-18.9-8.8-37.1-17-54.4-1.6-1.2-24.6 26.6-26.4 29.1-2.8 3.9-6.6 9.1-6.6 13.9-14.4-3-21.6-16.8-31-26.5-1-1-1.3-1.9-3-1.5l1 83.5c.2.8 11.7 11.3 12.6 11.5 2.6.6 4-6.3 4.9-8 6.9 7.4 6.4 11.1 5.5 20.5-.5 4.8-3.1 23.4-5.5 26.5-2.5 3.2-5.5-1.9-7.6-3.4-13-9.3-26.4-18.2-39.4-27.6-3.6-5.5-2.7-18.8-2.6-25.5.5-27.5 1.3-54.3-1-82-.7-8.5-1.5-23-3.2-30.8-.4-2-5.7-7.9-4.8-8.7 3.8 1.1 9.7.3 13 1.5s22.1 18.3 26 22c3.1 2.9 7 10.5 11.4 9.6l24.3-37.6c0-2.1-17-24.8-19.7-28-2-2.3-12.7-13.8-14.5-14.5-2-.9-2.4 3.5-2.5 4.5-.7 7.8-2.9 28.6-2 35.1.4 3.2 9.1 15.4 8 16.4-1.7.3-2.6-.8-3.9-1.6-9.2-5.6-23.4-19.3-30.1-27.9-1.5-1.9-4.3-5.4-3.9-7.7.3-1.4 7.7-12.2 9.3-15.8 2-4.5 9.4-24.6 8.6-28.3l-26-18.2-22-38.5c3.2-2.9 26 18.3 29.7 20.8 6.7 4.5 14.8 6.9 21.2 11.8 10.2 7.8 21.9 22.1 31.6 31.4 33.1 32 56.9 54.1 79 95.9 3.8 7.1 20.1 40.7 20.3 46.5.3 8.1-5.4 26-6.7 35.2-7.5 53.5-.4 104.9 26.7 152 5.6 9.8 22.5 33.9 35.2 21.9 5.1-4.9 9.1-31 11.5-39.5 1.8-6.4 9-30.9 12-35 2.3-3.1 13.2-9.4 17.2-11.8 12.5-7.8 25.9-15 39.3-21.2ZM448 424c7.3-13.8 19.7-25.6 30.5-37 1.6-3.1-1.2-5.8-3-8-3.3-.8-29.7 32.1-33 37.1-1.8 2 4.2 8.9 5.5 7.9m-37 68c-.5-29.8-1.4-59.6-1-89.5-3-5.5-7.6-10-12-14.5 4.1 32.6 5.7 65.4 5 98.3zm95-14c-10.4 1.8-20.4 6.6-29 12.7 0 29.3-2 58.6-6.1 87.7-1.6 11.1-4 22.1-5.9 33.2.1 2.8 7.5 8 10.1 11 .9 1 5.4 8 6 7.5 9.7-25.4 12.4-52.4 19-78.6 1.7-6-6.7-9.4-6-14.8.2-1.8 5.7-10.4 7-14.1 1.5-4 5-16.3 5-20v-24.5Zm9 93c-.5-.5-2.5-.2-2.1 1.4-4.8 25.6-9.3 51.4-19.7 75.4-.4 4.1 7.2 11.5 7.8 16.2 1.5-.1 1.5-1.5 1.9-2.5 8.1-20.9 11.3-47.5 19-69.1.4-2.8-6-20.4-7-21.4Zm136 123 7.7-39.4c-5.2-18.4-13.7-53.2-34.5-22.9-3.8 5.5-10.2 15.2-6.6 21.3 7.5 12.8 22.6 26.3 30.5 39.5l3 1.5Zm-18 90c4.9-18.2 8.8-36.7 11.7-55.4-10.5-17-21-34.2-33.7-49.6-1 13.6 3.3 27.5 8.5 40 2.5 5.8 6 11.2 8.5 17-17.8-6.2-33.6-18-49.7-27.9-2.3-.2-7.5 8.7-8.2 11.2 20.2 22.3 39.2 45.8 62.8 64.6Zm16.2 30.9c4.4.8 9.3 5.4 12.9 6.7 3.2 1.2 1.8-11.6 2-14 2.8-27.6 12.7-55.6 17-83.1-.1-4.1-8-9-10.5-12.4l-21.3 102.8ZM751 822c1.1-1.5-16.4-28.7-18.8-31.7-1-1.2-1.1-2.7-3.2-2.3l15 36zm-8 108c4.6-26.5 14.7-52.1 22.8-77.8.7-3 .1-6.2-2.3-8.2l-24.3 82.8c-.6 2.8 1.4 3.6 3.8 3.2" class="outline" data-original-prefix="outline"/></g><g id="07_Head" data-trait="bandages"><path id="fill-head" class="fill"  fill="#fff" d="M1238.8 890.2c1.7 3.5 3 7.6 2 11.5-15.9 11.2-31.5 22.9-47.5 34-13.7 9.5-33.1 24.5-47.4 31.6-11.7 5.7-28.4 9.8-41.1 13.9-33.8 10.9-68 20.5-101.8 31.2-5.8 1.9-6.2 12.7.5 13.5 9.7 1.3 20.5-.7 30.1-1 78.2-2.7 146.8-5.9 223.7-21.3 23.8-4.8 52.8-10.2 75.3-18.7 8.6-3.2 18.7-10.8 27.7-9.8 2.6.3 8 1.4 8.9 4.1 3.7 15.7 5.2 32.2 9.2 47.8 4.8 18.5 21.1 35.8 31.6 51.5.3.8-.1 1.5-.3 2.3-.3 1.4-9.7 20.1-10.7 21.4-4 5.1-29.9 6.8-37.4 7.6-84.3 8.9-170.5 9.2-255 6-62.9-2.4-125-9.7-186.3-23.7-30.5-7-61.2-17.8-91.9-23.1-29-5-56 9.3-83.3 17.3-25.6 7.5-56.9 16-83.5 17.5-2.7.2-12.7.9-13.4-1.6 1.5-12.3 3.5-24.5 3-36.9-.4-8.7-3.5-18.2-4-26.1-.6-10.1 14.5-7.6 21-9.8 4.9-1.7 33.1-38.5 37.8-45.2 6.5-9.3 12.7-19.8 18.4-29.6 3-5.3 5.7-13.5 9-18 3-4.2 8.8-4.7 13.5-5.5 56.5-9.9 115.8-11.2 172.7-20.3C956 905 987 898.6 1020 881.5c15.8-8.2 32.9-17.7 48.3-26.7 18.6-10.9 36.7-22.9 53.2-36.7 20.4 16.5 39.2 36.3 62.8 48.1 17.5 8.7 36.9 15.3 54.5 24" class="fill" data-original-prefix="fill"/><path id="outline-shading-head2" class="outline"  fill="#000" d="M649.5 1104c-.7-.2-1.6-1.6-1.5-2.5 1.5-3.5 1.3-19.8 3.3-21.3.6-.4 2.1.2 2.7-.9.7-1.3 4.1-13.4 4-14.9-.2-5.2-7.3-8.3-8.8-13.2-1-3.2-3.1-14.7-1-17 6.9-7.4 17.8 4.5 22.2 9.7 8.6 10.1 11.4 18.9 7.5 32 32.5-5.9 64.5-13.8 96.4-22.1 82.5-21.3 164.9-44.6 246.3-69.7 33.3-10.2 70.3-20.5 102.8-32.2 38.8-14.1 69.4-44.5 104.2-65.8 9.3 1.2 14.9 5.6 13.1 15.6l-75.5 53c-41.9 24.5-95.9 27.9-139.3 45.7-4.3 1.8-7.7 4.8-12 6.5l2 2c-3-.1-15.4 5.2-16.5 7-1.3 2.2-.5 10 2 10h28.5l-19 8.5c-32.8 7.4-65.5 16.3-97 28 2 3.9 6.4 6 10.4 7.5 55.4 21.7 127 27.1 186.1 28.9 60.4 1.9 119.7 3.8 179.8-4.1 38.7-5.1 77-12.8 115.2-21 1.6.1 4.6 4.6 4.4 6.4-.2 1.2-9.5 19.9-10.7 21.5-2.5 3.4-6.2 3.9-10.2 4.8-34.5 7.8-86.3 8-122.5 9.5-74.3 3.1-152 3.5-226-4-27.5-2.8-49.8-8.7-76.3-13.7-18-3.4-36.4-4.8-54.4-8.6-34.8-7.3-73-23-108.3-20.9-26.5 1.6-64.9 16-92.7 22.5-13.2 3.1-26.7 5.6-40.1 7.9-1.9.1-3.5 4.8-4.2 4.8-3.2.1-12.7.8-14.9.1" class="shading" data-original-prefix="shading" opacity=".2"/><path id="outline-shading-head1" class="outline"  fill="#000" d="M969 901c-11.5 8.6-24.3 15.7-37 22.5-64.3 34.5-137.6 63.8-207.2 85.8-7.9 2.5-16.7 5.4-24.8 7.2-6.6 1.5-13.3 3.5-20 1.5-.5-1.7.7-2 1.5-3 1.9-2.5 12.8-16.1 14.2-16.8 3-1.3 8.5-1.8 12-3 75-24.3 154.2-40.7 220.2-85.8z" class="shading" data-original-prefix="shading" opacity=".2"/><path id="outline-head" class="outline"  fill="#000" d="M1004 1019c-.2 1.7 2.3.9 3.5 1 4.8.2 10.2.2 15 0 41.6-1.3 86.5-3.2 128-6 48.6-3.3 119.8-17.2 166.5-31.5 11.4-3.5 22-9.6 32.2-12.8 9.1-2.8 17.1-1.1 25.2 3.3 5.3 18 5.2 42.5 12.5 59.5 6.6 15.3 22.3 31.4 31 45.9-.9 2.7-2 5.3-3.1 7.9-2.2 5.1-8 16.7-11 21-3.4 4.7-11.9 5.6-17.5 6.5-43 7-95 7.8-138.9 9.1-102.4 3-207 1.2-307.7-19.3-38.4-7.8-78.8-22.3-116.5-28.5-20.6-3.4-37.4 6.3-56.5 12-29.6 8.9-59.6 17.8-90.4 21.6-6.9.8-28.8 4.1-33.4-.3-3.2-3.1 2.2-31.4 2.1-38.1-.1-10.8-4.9-23.6-5-33.1-.1-13.8 17.1-12.1 26.6-14.7 16.5-20.6 32.9-40.3 46.5-63 4.9-8.2 10-21 15-28s12.9-5.6 20.2-6.8c71.3-11.6 144.2-12.8 214.6-29.4 41-9.6 87-36.4 122.5-59.5 12.6-8.2 24.2-17.9 36.8-25.8 19.3 14 36.8 33.5 57.4 45.6 19.2 11.3 43.4 18 63.3 28.7 3.9 2.4 6.2 17.2 4.6 20.5-28.9 20.6-57.8 43.4-88 62-21.8 13.4-48.3 19.5-72.8 27.2-27.3 8.9-55.1 17.3-82.7 25m216-126-53.7-20.8c-16.6-10.8-30.6-25-46.4-36.8-57.3 36-116.5 68.3-177.6 97.5-62.8 30-127.8 58.5-193.6 81.4-30.1 10.5-61.2 20.9-92.8 25.7 5 17.9 11.3 34.2 6 53 41-5.6 81.2-16.8 121.2-27.3 72.2-18.9 144.2-39.7 215.5-61.5 37.8-11.5 86-23.5 121.5-38.5 26.6-11.3 71.7-48.5 95.2-67.8 1-.6 5.9-3.7 4.7-4.9m-291 28c-31.9 6.2-64.2 9.5-96.3 14.2-29.6 4.3-59 10.4-89 12-13.6 23.4-28 46.2-45.7 66.8 51.5-15.1 100.6-37 150-57.5 18-7.5 36.8-13 54.3-21.7zm-81 144c47.9 10.7 95 24 143.7 30.9 115.2 16.3 239.4 14.2 354.7 0 11.8-1.5 29.9-3 40.9-6.1 3.1-.9 9.1-5.2 9.6-8.4.4-2.5-26.4-32.7-29.6-40.1-3.3-7.5-8.7-46.7-10.7-48.3-3.3-2.7-9.8 2.6-13.3 3.9-20.1 7.3-44.1 12.4-65.1 16.9-109.3 23.5-224.8 29.4-336.2 23.8l-92.5 25.4z" class="outline" data-original-prefix="outline"/></g><g id="08_Mouthpiece" data-trait="gasmask"><path id="fill-gasmask-front2" class="fill"  fill="#fff" d="M1393.8 1467.3c74-7.2 53.9 96.6 40.5 139.5-13.4 43.1-34.9 84.1-72.6 110.4-41.7 29.2-101.4 53.8-121.7-12.8-27.5-90.5 58.2-227.9 153.7-237.2Zm43 96.5c5.1-18.7 8.5-55.2-3.8-71.2-16.6-21.6-42.5-18.9-65.8-11.3l-20.2 81.8c19.1 1.1 35.1 16.7 39 35l50.7-34.2h.1Zm-120.9 25.3-41.4-24.9c-26.7 30.4-34.8 75.3-31.5 114.8l68.9-32.1c.6-1-2.6-12.6-2.9-15.4-1.2-15.1 3.6-28 6.9-42.4m32.8-14.9c-26.5 4.2-50.2 51.7-28.2 70.8 26.9 23.3 74.3-36 50.5-63.5-6.1-7-13.2-8.7-22.2-7.3zm-28.6 158.7c1.3.6 2.5.9 3.9.7 14.8-2.5 48.8-31.9 59.5-43.6 3.4-3.7 19.5-24.1 19.5-27.5s-.7-1.9-1.4-2.6l-28.8-23.2c-1.3-.8-2.2-.9-3.7-.3-3.2 1.4-9.3 8.3-13.2 10.9-6.3 4.3-12 6.6-19.3 8.7-2.7.8-8.9.7-10.1 2.9l-6.4 73.9Z" class="fill" data-original-prefix="fill"/><path id="fill-gasmask-front1" class="fill"  fill="#fff" d="M638.7 1467.2c39.6-6.2 92.7 31.7 117.8 59.8 40.6 45.4 76.1 136.1 44.7 193.7-26.2 48-81.5 20-114.9-3.5-44-30.9-68.6-85.8-79.8-137.2-7.5-34.4-16-105.3 32.2-112.8m42.1 14c-23.3-7.4-48.4-10.3-65.3 10.8-13 16.2-9.1 52-4.6 71.3l50.6 34.7c5-18.1 19.9-33.9 39.5-35zM805 1679c3.3-39.5-4.8-84.3-31.5-114.8l-41.4 24.9c1.7 10.2 6.1 19.9 6.9 30.4.7 9.3-.7 17.9-3.1 26.8zm-117.3-104.8c-2.8.6-8.2 4.6-10.2 6.8-22.5 24.5 15.5 80.9 45.8 66.8s1.7-81.2-35.5-73.5Zm40.2 158.7-6.4-73.9c-1.2-2.2-7.5-2.1-10.1-2.9-7.3-2.2-13-4.4-19.3-8.7-3.8-2.6-9.9-9.5-13.2-10.9-1.4-.6-2.3-.6-3.7.3l-28.8 23.2c-.8.7-1.4 1.5-1.4 2.6 0 3.4 16.1 23.8 19.5 27.5 10.6 11.7 44.7 41.1 59.5 43.6 1 .2 3.6 0 3.9-.7Z" class="fill" data-original-prefix="fill"/><path id="fill-gasmask-grill10" class="fill"  fill="#fff" d="M1017 1488c.2 6.3 1.7 13.2 2 19.5 2.2 44.9.3 93.6 1 139 .2 11.5.2 22.3-2 33.6h-15.5c-3.2 0-2.3-19.7-2.5-22.5-2.6-50.6-3.4-102.3-4.1-152.9 0-5.8.9-10.9 1-16.6h20.1Z" class="fill" data-original-prefix="fill"/><path id="fill-gasmask-grill9" class="fill"  fill="#fff" d="M1051 1488c0 5.7 1.1 10.8 1 16.6-.7 50.7-1.4 102.3-4.1 152.9-.2 2.8.7 22.5-2.5 22.5h-15.5c-2.3-11.2-2.2-22.1-2.1-33.6.7-45.4-1.2-94.1 1-139 .3-6.2 1.8-13.2 2-19.5h20.2Z" class="fill" data-original-prefix="fill"/><path id="fill-gasmask-grill8" class="fill"  fill="#fff" d="M962 1488c.2 4.8-.3 9.7 0 14.6 1.7 32.6 1.5 65.3 2 98 .3 23 2.7 46.9 1.1 70-.2 2.2-.7 4.2-1.1 6.4l-12.9-.9c-2.3-12.3-1.4-25-2-37.5-2.2-44.8-4.7-90-4-135 0-1.8-.9-3.5-.9-5s2.6-9 3-9.3c1.1-.7 14.3-1.7 14.8-1.2Z" class="fill" data-original-prefix="fill"/><path id="fill-gasmask-grill7" class="fill"  fill="#fff" d="M1100.8 1489.2c.4.3 3 8.2 3 9.3.6 16.9-1.5 35-1.9 52-.9 42-1.3 83.8-5 125.5-8.5-1-13.2 6.1-14-5.4-1.5-23.1.7-47 1.1-70 .6-37.6.7-75.1 1.9-112.6.5-.5 13.8.5 14.8 1.2Z" class="fill" data-original-prefix="fill"/><path id="fill-gasmask-grill6" class="fill"  fill="#fff" d="M984.9 1488.1c3.3 2.9 1.9 34 2.1 40.4.8 29.8 2.7 60.1 3.1 89.9.2 14.9 1.2 33.6 0 48.1-.2 1.9-1.8 10.5-2.5 11.5-1.9 2.6-10.5 0-13.5 0-1.5-8.1.2-15.4 0-23.5-1.2-50.9-4.4-105.3-3.1-156 0-3.4 1.7-6.8 1-10.5 2.2.4 12.1-.6 12.9 0Z" class="fill" data-original-prefix="fill"/><path id="fill-gasmask-grill5" class="fill"  fill="#fff" d="M1076 1488c-.6 3.9 1 7.6 1 11.5.6 51.4-1.8 103.6-3.1 155-.2 8.1 1.5 15.4 0 23.5-3.5 0-11.8 3.1-13.8-.6-.8-1.6-2.1-8.6-2.2-10.8-2.6-30.9 1.3-68.6 2.1-100 .6-22-1.2-48.7.9-70.1 0-1.2 1.8-8.1 2.1-8.4.8-.7 10.7.3 12.9 0Z" class="fill" data-original-prefix="fill"/><path id="fill-gasmask-grill4" class="fill"  fill="#fff" d="M1128.9 1491.1c-.6 10.1-.5 20.3-.9 30.5-1.9 48-2.5 97-7.1 144.9 0 1.1-.9 6.2-1.1 6.4-.3.3-8.1 1.4-9.2 1.2-3.1-.7-2.8-29.2-2.7-33.6.3-23.8 2.4-48.1 3.1-71.9.7-22.2-1.1-48.5 1-70 .3-2.9 1.3-5.7 2.1-8.4z" class="fill" data-original-prefix="fill"/><path id="fill-gasmask-grill3" class="fill"  fill="#fff" d="M933.9 1490.1c1 3 1.9 6.1 2.2 9.3 1.8 21.7.3 46.9.9 69.1.7 23.8 2.8 48.1 3.1 71.9 0 11.2.5 22.6-2.2 33.4-.9.6-9.3-.6-9.7-1-.2-.2-1-5.3-1.1-6.4-5.2-55.3-4.6-111.4-8-166.9-.2-2.8 0-5.7 0-8.5z" class="fill" data-original-prefix="fill"/><path id="fill-gasmask-grill2" class="fill"  fill="#fff" d="M1117 1682c.8.7-8.2 15.3-9.7 15.8-55.3 1.2-110.5.9-165.8.2-3-.6-8.8-12.2-10.5-15.5 20.5 1.6 41 5.2 61.5 6.5 25 1.6 51.1 1.1 76-1 16.2-1.3 32.4-4.1 48.5-6" class="fill" data-original-prefix="fill"/><rect id="fill-gasmask-grill1" class="fill"  width="212" height="10" x="918" y="1472" class="st1"/><path id="fill-gasmask-mask4" class="fill"  fill="#fff" d="m1138 1570 1.6-110.1H1030c-.6-14.5-4.5-26.9 2-40.9 1.3-.9 7.7 6.1 9 7.5 4.5 4.8 9.1 10.6 13.4 15.6 3.3 2.6 6.6-.9 9.1-3.1 11-9.2 31.4-32 40.4-43.6 4.6-5.9 7.5-10.1 4.2-17.2-4.2-8.8-24.7-34.8-32.1-41.9-5.2-5-8-6.6-14.3-3.3-12.8 6.8-25.4 18.2-38 25.7-11.8-8-24.3-18.5-36.7-25.3s-8.3-3.1-14 1.9c-8 7-27.2 32.1-32.4 41.6-4.2 7.7-2.2 11.1 3 17.8 7.5 9.9 20.5 23.4 29.4 32.6 3.2 3.3 14.6 15.8 18.5 15.5 2.6-.2 17.3-19.2 21.5-22.6 1-.8 1.3-1.9 3-1.5 6.5 14 2.7 26.5 2 41H908.4l2.5 110-5.7-24.8c-9.3-29.7-22.8-55.6-42.3-79.7-7.4-9.2-19.9-17.2-18.5-30.6 15.8-23.7 33.8-46 53-67 23.9-26 45.5-46 76.8-63.2 6.5-3.6 26.4-14.5 32.4-15.6 9.2-1.7 32.4-.8 40.9 2.6 55.7 22.3 100.9 69.6 136.7 116.3 3.1 4.1 18.8 24.6 19.4 27.6 2.2 10.4-12.9 22.5-18.8 29.8-24 29.6-42.2 66.4-47 104.5z" class="fill" data-original-prefix="fill"/><path id="fill-gasmask-mask3" class="fill"  fill="#fff" d="M933.3 1704.7c2.7 2.3 6.6 3.1 10.1 3.4 52.1-3.4 109.6 4.4 161.1 0 3.6-.3 7.4-1 10.1-3.4 2-1.7 14.8-16.8 16.3-19.2 4-6.1 2.6-42.4 2.9-52.1l2-18.4c1.1 7.1.4 14.4 1 21.5.6 6.3 2.3 26.2 6 30 1.9 2 6.9 2.8 6.8 5.8l-18.4 53.7c-1.5 2.3-11 6.4-14.1 7.9-16.4 8.2-36.3 17.9-53.2 24.8-20.1 8.3-50.7 3.6-72.4 3l-74.3-34.7-19.3-54.7c0-3 4.9-3.8 6.8-5.8 5.4-5.7 5.4-33.3 6-42l2-9.5c1 17.8 0 36.8 1 54.5.2 4.1 1 12.8 3 16 1.5 2.3 14.4 17.4 16.3 19.2z" class="fill" data-original-prefix="fill"/><path id="fill-gasmask-mask2" class="fill"  fill="#fff" d="M895 1704c-.7.7-12.6-7.8-12.9-8.7-.8-2.6 4.5-15.2 3.9-19.3z" class="fill" data-original-prefix="fill"/><path id="fill-gasmask-mask1" class="fill"  fill="#fff" d="m1153 1704 9-28c-.6 4.1 4.7 16.8 3.9 19.3-.3.8-12.2 9.4-12.9 8.7" class="fill" data-original-prefix="fill"/><path id="fill-gasmask-pods4" class="fill"  fill="#fff" d="M889 1660c-.5.5-2.7.2-2-1.5-.5-34.9-1.3-69.4-12.3-102.7-12.9-39.2-41-74.3-71.2-101.8-6.5-5.9-15.5-11.6-21.5-17.5-1.1-1.1-2.3-1.7-2-3.5 12.6-4.9 23 4.7 32.5 12 56.5 44 84.7 111 83.6 182.5 0 4.8-4.3 29.8-7.1 32.5" class="fill" data-original-prefix="fill"/><path id="fill-gasmask-pods3" class="fill"  fill="#fff" d="M1268 1433c.4 1.8-.9 2.5-2 3.5-6 5.8-15 11.5-21.5 17.5-30.2 27.5-58.3 62.6-71.2 101.8-11 33.4-11.8 67.9-12.3 102.7.7 1.7-1.4 2-2 1.5-2.7-2.6-7-27.7-7.1-32.5-1.1-71.5 27.1-138.5 83.6-182.5 9.4-7.3 19.9-16.9 32.5-12" class="fill" data-original-prefix="fill"/><path id="fill-gasmask-pods2" class="fill"  fill="#fff" d="M671 1457c-.3-1.4 1-1.1 2-1.5 12.4-5.1 49.3-17.4 61.6-18.4s42 17.4 52.7 25.1c45.8 33.1 75.6 78.9 83.5 135.5 3.4 24.2 3.7 60.1-4.3 83.3-2.7 7.8-14.4 16.3-21 22-10.4 9-21.3 17.4-32 26 43.6-110.4-32.2-240.3-142.5-272" class="fill" data-original-prefix="fill"/><path id="fill-gasmask-pods1" class="fill"  fill="#fff" d="m1377 1456-33.7 13.8c-91.3 46.5-147.8 160-108.8 259.2-10.7-8.6-21.6-17-32-26-6.6-5.7-18.3-14.2-21-22-16.9-48.7-2.5-120.4 25.1-162.9 18.5-28.5 67.3-74.3 101.4-80.6 7.7-1.4 25.5 4.9 33.8 7.3 11.8 3.4 23.4 7.7 35.2 11.3Z" class="fill" data-original-prefix="fill"/><path id="fill-gasmask-filter8" class="fill"  fill="#fff" d="m1427.8 1555.8-36.2 24.2c-6.9-12-16-22.8-30.5-25.1l15.1-62.7c12.9-6.1 32.3-3.8 41.8 7.3 12.9 15.2 12.1 37.6 9.8 56.3" class="fill" data-original-prefix="fill"/><path id="fill-gasmask-filter7" class="fill"  fill="#fff" d="M1253 1659v-23.5c0-6.3 6-25 8.5-31.5 1.7-4.4 11.2-23.8 14.5-25.6q1.5-.9 3 0l24.9 14.2c-2.7 7.8-5.3 16.7-5.9 24.9-.6 7.6.8 15 .5 22.5l-45.5 18.9Z" class="fill" data-original-prefix="fill"/><path id="fill-gasmask-filter6" class="fill"  fill="#fff" d="M1333 1716c-.2-8.2.2-16.4 0-24.5 0-4.9-1.4-9.5-1.1-15 .9-14.6 3.5-9.7 13.7-14.3 7.3-3.3 16.4-12.1 22.6-14.4 1.1-.4 1.2-.8 2.6-.3 5.2 2.1 12.9 13.4 19.1 16 1.1.9.9 1.3.5 2.5-.7 1.9-12.7 15.5-15 18.1-8.2 8.7-18.5 18-28.4 24.6-1.9 1.3-12.9 8.6-14.1 7.4h.1Z" class="fill" data-original-prefix="fill"/><path id="fill-gasmask-filter5" class="fill"  fill="#fff" d="M1348.8 1583.3c9-1.3 18 1.6 20 11.5 3.6 17.8-26.8 57.9-44.2 40.2-14.9-15.3 4.9-48.8 24.2-51.6Z" class="fill" data-original-prefix="fill"/><path id="fill-gasmask-filter4" class="fill"  fill="#fff" d="m671.8 1492.2 15.3 62.2c-9.2 2.5-17.5 7.2-23.5 14.7-1.8 2.2-6.1 11.1-7.9 10.8l-35.5-24.1c-2.3-18.7-3.1-41.1 9.8-56.3 9.5-11.2 28.9-13.4 41.8-7.3" class="fill" data-original-prefix="fill"/><path id="fill-gasmask-filter3" class="fill"  fill="#fff" d="m795 1659-45.5-18.9c-.3-7.5 1.1-15 .5-22.5-.6-8.2-3.2-17.2-5.9-24.9l24.9-14.2q1.5-.75 3 0c3.3 1.8 12.8 21.2 14.5 25.6 2.5 6.5 8.5 25.2 8.5 31.5v23.5Z" class="fill" data-original-prefix="fill"/><path id="fill-gasmask-filter2" class="fill"  fill="#fff" d="M715 1716c-1.2 1.2-12.2-6.1-14.1-7.4-9.9-6.6-20.2-15.9-28.4-24.6-2.4-2.5-14.3-16.1-15-18.1-.4-1.2-.7-1.6.5-2.5 6.2-2.6 13.9-13.9 19.1-16 1.4-.6 1.5-.2 2.6.3 6.1 2.3 15.4 11.1 22.6 14.4 3 1.4 11.1 2.7 12.2 4.8 3.4 16.1-.9 32.6.5 49Z" class="fill" data-original-prefix="fill"/><path id="fill-gasmask-filter1" class="fill"  fill="#fff" d="M689.7 1583.2c16.7-3.8 35.6 14.9 38 30.5 4.2 26.8-16.9 32.7-34.2 15.2-6.5-6.6-15.9-24.2-14.5-33.3.7-4.8 5.9-11.3 10.7-12.4" class="fill" data-original-prefix="fill"/><path id="outline-shading-mouth2" class="outline"  fill="#000" d="m1012 1429-11 5c-1.3-1.4 7.3-34.7 9.5-37 3.4-3.7 5.1 2.8 6.2 3 1.3.3 13.4.3 14.6 0 1-.2 1.7-7.6 6.2-3.1s9.3 31.1 9.5 34.5c0 1.1.7 3.1-1.5 2.5-3.2-.9-6.1-4.4-9.5-5v34h-24v-34Z" class="shading" data-original-prefix="shading" opacity=".2"/><path id="outline-shading-mouth1" class="outline"  fill="#000" d="M892.7 1373.8c-20.7 32.8-39.6 47.4-18.2 88.3 1.8 3.4 17.4 28.8 19.1 29.1 1.2.2 2.1-.3 3-1 3.2-2.5 8.1-12.1 11.2-15.8.8-.9 1-2.6 2.7-2.3.8 0 2.5 14 6 14.1h213.1c5.2-.2 5.9-7.8 7.2-11.9.2-.8 0-3.1 1.8-2.2 2.7 1.4 11.2 19.5 14.9 18.9 4.7-.8 24.6-37.2 26.7-43.4 10.7-32.1-9.3-47-23.4-71.6-.4-.7-2.8-4.9-.6-4.9 0 1.5 1.1 2.5 2 3.5 16.5 18.6 32.1 37.9 48.5 56.5-.2 6.6 3.3 15-.5 20.5-4.9 7-15.8 14.4-21.5 21.5-8.2 10.2-13.6 24.8-18.4 36.6-4.3 10.5-8.9 20.9-12.1 31.8l20.9 16.4c.5 6.1-6.8 29.3-4.3 33.3 1.1 1.7 8.8 6.2 11 8 9.8 8.2 19.3 16.8 29.1 24.9 3.5 2.9 9.8 6.6 12.5 9.5 3.2 3.4 5 20.4 5.8 26.2 1.4 9.8 1.8 19.8 3.3 29.7 3.1 20.9 6.9 41.8 10.3 62.6l-70-50c-2.3 0-4.1 1-6 2-3.9 1.9-20.2 13.1-23 16s-3.9 10.5-6.2 12.1c-1.8 1.3-7.6 2.3-10.3 3.4-7.9 3.4-15.6 7.2-23.5 10.5 3.5-7.1 14.6-15.9 17-23 1.6-4.9-.7-10.3 1.6-14.9-.8-.7-9.8 5.8-12.6 5.9-1.8 0-3.8-1-5.9-1-40-.2-80-1.5-120.1-1-13.9.2-31.2 2.6-44.9 2-4.4-.2-8.4-5-12.6-5.9 1.9 4.9.2 10.2 1.5 15 1.8 6.7 13.2 15.2 15.5 20.5.5 1.3-.3 1.9-1.5 1.5l-30.9-13.1c-3.1-2.2-3.1-8.3-5.7-11.3-2-2.4-20.1-14.9-23.4-16.6-1.9-.9-3.7-2.1-6-2l-70.5 50c7.8-38 12-76.6 17.4-115.1 1.2-3.9 16.9-14.5 21-18 11.3-9.5 22.2-20 34.3-28.2l-4.6-33.1c1.5-3.3 20.7-15.1 20.9-16.4-3.6-11-8.1-21.7-12.6-32.4-4.7-11.3-9.9-25.6-17.5-35.5-4.2-5.4-19.4-17.2-21.2-21.8-.7-1.6-1.9-14.8-1.8-17.3 0-1.5 0-2.9 1.1-4l50-59c1.7-1.4 1.1 1.6.7 2.3h-.3Zm121.2 121.3c-.8-.7-9.8.2-11.8 0-1.3 9.4-6 18.7-7.7 27.9-.3 1.4 1 3.8 0 4-.8.2-6.1.2-6.4 0-1.2-1-6.4-29.3-8-30.5-2-1.4-10.1 0-13.1-.4l1 39c-1-.2-3.5.3-3.9 0-.8-.8-2.8-18.8-3.5-22-.5-2.2-4-16.3-4.6-16.8-.4-.3-4.4-.3-4.8 0-1.9 11.4-6.2 22.4-8.9 33.6-.4 1.7 0 6.1-.2 6.3s-5.6 0-5.9 0c-1.5-1.3-3.8-34.1-5.1-38.9-.6-.9-9.3 15.8-10.2 17.3-7.4 12.8-4.9 9.4-5.8 24.2-1.4 24.2-2.4 50.7-1.1 75 .7 12.2 3.5 25.2 4.5 37.5 2 2.3 7.3 2 9 4 1.2 1.3 2.8 7.6 4 10s0 2.4 2 1.9c1.9-1 5.2-17.6 6.6-18.9.3-.3 8.5-.4 8.8 0 .7.7 2.4 16.3 3.7 19.8.5 1.2.9 3.7 2.8 3.2 2.9-.7 8.5-21.9 12.2-22.8 1.8-.4 5.2.9 6.2 2.5 1.8 3.1 4.3 21.8 6.7 22.3 1.8-.3 3.4-1 4.2-2.7 2.1-4.1 4.2-26.4 5.2-27.3.3-.3 8.6.8 9 1.1 1.2 1.1 4.8 30 6.2 30.8.6.4 8.4.3 8.8 0l7.1-23.8c1.7 0 3.8-.4 5.4 0 1.2.2 6.7 23.1 7.7 24 .3.3 7.5.4 8.3.2 1.8-.5 5.5-29.9 6.7-31 .3-.3 8.6-1.4 8.9-1.1 1.1 1.1 2.8 24.2 5.6 27.9.6.9 3.7 3 4.5 1.5 2.4-3.7 4.8-21.7 6.1-23.2.6-.7 5.5-1.5 6.8-.7 2.4 1.5 8.7 18.6 10 22.5 2.3.2 2.8.2 3.8-1.7 1.6-3.1 3.4-21 4.8-21.3.8-.2 8 0 8.3.2.6.5 4.1 12 4.7 13.8.4 1.5.3 4.9.4 5.1 3.5 3.5 5.9-10.4 7.5-12s7.8-1.6 8.8-4.2c5.1-34 6-68.9 4.7-103.3-.2-6.3-.7-22.3-2.6-27.4-1-2.5-4-4.5-5.3-6.7-.7-1.3-8.2-17.6-9.2-16.3-1.7 4.8-3.6 37.6-5.1 38.9-.2.2-5.8.3-6 0-.2-.2.3-4.1 0-5.4-.4-1.7-1.6-3.1-2.1-4.9-1.1-4.1-5.8-28.6-6.9-29.6-.4-.4-4.3-.6-5 .5l-7.9 38.4h-4l1-39c-2.9.6-11.1-1-13.1.4-2.1 1.5-6.8 29.4-8 30.5-.7.6-4.9-.2-6.3 0l-7.6-32c-2.1.3-11.1-.6-11.9 0-1 .8-5 21.1-5.9 24.6-.3 1.4 0 5.1-.2 5.3-.3.3-6.4.2-7.4 0-1.5-.2-5.4-28.9-6.7-29.9l.2-.3ZM1122 1682c-29.2.9-58.2 3.4-87.4 5.1-27.3 1.5-57.3-2.1-84.9-3.4-7.3-.4-14.7-2.7-22.2-1.6-1.3.2-1.8-.5-1.5 1.5.7 4.7 9 15.9 13.8 17.2 14.3 3.9 32.1 2.3 46.7 2.2 28.7-.2 57.7.5 86 0 9.9-.2 27.5.7 36.6-2.4 3.9-1.4 15-16.6 12.9-18.5Z" class="shading" data-original-prefix="shading" opacity=".2"/><path id="outline-mouth9" class="outline"  fill="#000" d="M1213 1438c12.3-8.3 31.4-24.7 47.3-21.8 5.6 1.1 16.2 9.7 20.2 9.7s16.1-9.7 26.9-8.8c14.2 1.2 37.5 7.5 52.1 11 25.4 6 55.6 13.9 79.8 23.2 14.4 5.5 15.6 8 20.2 22.8 24.4 78-7.5 190.4-67 246-27.9 26.1-80.4 59.5-120 55-9.9-1.1-41.8-24.2-51.8-31.2-16.4-11.4-32.4-23.5-48.2-35.8l-26.2 17.3-4.1 11.4c-22.9 14.4-47.9 26.7-71.7 40.3-29.8 2.1-60 .5-90 .8-25.3-12.4-50.7-26.8-74.8-41.2l-4.1-11.4-26.2-17.3c-12.6 9.7-25.2 19.6-38.2 28.8-11 7.8-51.2 37-61.8 38.2-49.7 5.6-117.6-45.2-145.3-83.7-30.8-42.7-53-114.2-50.2-166.9.8-16 5.9-50.7 13.8-64.2 4.2-7.1 20.4-10.9 28.4-13.6 38.9-13 79.1-21.8 119.3-29.8 7.1-2 21.5 9 26 9s14.6-8.6 20.2-9.7c15.8-3 35 13.5 47.3 21.8-.6-5.2 2.2-8.8 4.6-12.9 11.9-20.9 38.4-53.2 55.4-70.6 3.9-4 9.4-7.1 13.5-11.5 7.4-7.8 13.6-19.5 21.5-26.5 14.7-13.2 47.3-29.7 66-37 7.8-3 24.5-9.8 32.2-8.3 21.1 4 74.9 31.4 90.7 46.2 7.1 6.7 13.4 18 20.5 25.5 24.6 26 50.3 50.6 68.9 82.1 2.4 4.1 5.2 7.9 4.6 12.9zm-75 132c4.9-38.1 23.1-74.8 47-104.5 5.9-7.2 20.9-19.4 18.8-29.8-.6-3.1-16.3-23.6-19.4-27.6-35.9-46.7-81.1-93.9-136.7-116.3-8.6-3.4-31.7-4.3-40.9-2.6-6 1.1-25.9 12-32.4 15.6-31.3 17.1-52.9 37.2-76.8 63.2-19.3 20.9-37.2 43.3-53 67-1.3 13.3 11.1 21.4 18.5 30.6 19.5 24.2 33 50 42.3 79.7l5.7 24.8-2.5-110.1h109.6c.6-14.5 4.5-26.9-2-40.9-1.7-.4-2 .7-3 1.5-4.3 3.3-19 22.3-21.5 22.6-3.8.3-15.3-12.2-18.5-15.5-8.8-9.2-21.8-22.7-29.4-32.6-5.2-6.8-7.2-10.2-3-17.8 5.2-9.5 24.4-34.6 32.4-41.6 5.6-5 7.8-5.3 14-1.9 12.4 6.8 24.9 17.3 36.7 25.3 12.6-7.5 25.2-18.9 38-25.7 6.3-3.3 9.1-1.7 14.3 3.3 7.4 7 27.9 33 32.1 41.9 3.3 7 .4 11.3-4.2 17.2-9.1 11.6-29.4 34.4-40.4 43.6-2.5 2.1-5.8 5.6-9.1 3.1-4.3-5-8.9-10.8-13.4-15.6-1.3-1.3-7.7-8.4-9-7.5-6.5 14-2.7 26.5-2 41h109.6l-1.6 110zm-249 90c2.7-2.6 7-27.7 7.1-32.5 1.1-71.5-27-138.5-83.6-182.5-9.4-7.3-19.9-16.9-32.5-12-.4 1.8.9 2.5 2 3.5 6 5.8 15 11.5 21.5 17.5 30.2 27.5 58.3 62.6 71.2 101.8 11 33.4 11.8 67.9 12.3 102.7-.7 1.7 1.5 2 2 1.5m379-227c-12.6-4.9-23 4.7-32.5 12-56.5 44-84.7 111-83.6 182.5 0 4.8 4.3 29.8 7.1 32.5.5.5 2.7.2 2-1.5.5-34.9 1.3-69.4 12.3-102.7 12.9-39.2 41-74.3 71.2-101.8 6.5-5.9 15.6-11.6 21.5-17.5s2.3-1.7 2-3.5m-597 24c110.3 31.7 186.1 161.6 142.5 272 10.7-8.6 21.6-17 32-26 6.6-5.7 18.3-14.2 21-22 8.1-23.2 7.7-59.1 4.3-83.3-7.9-56.5-37.7-102.4-83.5-135.5-10.7-7.7-40.1-26.1-52.7-25.1s-49.2 13.3-61.6 18.4c-1 .4-2.3 0-2 1.5m706-1c-11.8-3.6-23.4-7.8-35.2-11.3-8.3-2.4-26.2-8.7-33.8-7.3-34 6.3-82.9 52.1-101.4 80.6-27.6 42.6-42 114.3-25.1 162.9 2.7 7.8 14.4 16.3 21 22 10.4 9 21.3 17.4 32 26-39-99.2 17.5-212.7 108.8-259.2l33.7-13.8Zm-738.3 11.2c-48.2 7.5-39.8 78.4-32.2 112.8 11.2 51.4 35.8 106.3 79.8 137.2 33.4 23.4 88.7 51.4 114.9 3.5 31.5-57.6-4.1-148.3-44.7-193.7-25.1-28.1-78.2-65.9-117.8-59.8m755.1.1c-95.5 9.3-181.2 146.6-153.7 237.2 20.2 66.6 80 42 121.7 12.8 37.6-26.4 59.1-67.4 72.6-110.4 13.4-42.9 33.5-146.7-40.5-139.5ZM1130 1472H918v10h212zm-168 16c-.5-.5-13.8.5-14.8 1.2-.4.3-3 8.2-3 9.3s.9 3.2.9 5c-.7 45 1.8 90.2 4 135 .6 12.5-.3 25.2 2 37.5l12.9.9c.4-2.1 1-4.2 1.1-6.4 1.6-23.1-.7-47-1.1-70-.5-32.7-.3-65.4-2-98-.3-4.8.3-9.7 0-14.6Zm22.9.1c-.8-.7-10.7.3-12.9 0 .7 3.6-.9 7.1-1 10.5-1.3 50.7 1.8 105.1 3.1 156 .2 8.1-1.5 15.4 0 23.5 3 0 11.5 2.7 13.5 0 .8-1 2.3-9.6 2.5-11.5 1.2-14.5.2-33.2 0-48.1-.4-29.9-2.3-60.1-3.1-89.9-.2-6.4 1.2-37.6-2.1-40.4Zm32.1-.1h-20c0 5.7-1.1 10.8-1 16.6.7 50.7 1.4 102.3 4.1 152.9.2 2.8-.7 22.5 2.5 22.5h15.5c2.3-11.2 2.2-22.1 2-33.6-.7-45.4 1.2-94.1-1-139-.3-6.2-1.8-13.2-2-19.5Zm34 0h-20c-.2 6.3-1.7 13.2-2 19.5-2.2 44.9-.3 93.6-1 139-.2 11.5-.2 22.3 2.1 33.6h15.5c3.2 0 2.3-19.7 2.5-22.5 2.6-50.6 3.4-102.3 4.1-152.9 0-5.8-.9-10.9-1-16.6h-.2Zm25 0c-2.2.4-12.1-.6-12.9 0-.3.3-2 7.2-2.1 8.4-2.1 21.3-.4 48.1-.9 70.1-.8 31.4-4.6 69.1-2.1 100 .2 2.2 1.4 9.2 2.2 10.8 1.9 3.8 10.2.7 13.8.6 1.5-8.1-.2-15.4 0-23.5 1.3-51.4 3.7-103.6 3.1-155 0-3.9-1.6-7.5-1-11.5Zm24.8 1.2c-1.1-.7-14.3-1.7-14.8-1.2-1.3 37.5-1.4 75-1.9 112.6-.3 23-2.6 46.9-1.1 70 .8 11.5 5.5 4.4 14 5.4 3.7-41.7 4.1-83.5 5-125.5.4-16.9 2.4-35.1 1.9-52 0-1.1-2.6-9-3-9.3Zm-166.9.9-14.8.9c0 2.8-.3 5.7 0 8.5 3.5 55.5 2.8 111.7 8 166.9 0 1.1.9 6.2 1.1 6.4.4.4 8.8 1.6 9.7 1 2.7-10.8 2.3-22.2 2.2-33.4-.3-23.8-2.4-48.1-3.1-71.9-.7-22.2.8-47.4-.9-69.1-.3-3.2-1.1-6.3-2.2-9.3m195 1-14.8-.9c-.8 2.7-1.8 5.5-2.1 8.4-2.1 21.6-.3 47.9-1 70-.7 23.8-2.8 48.1-3.1 71.9 0 4.4-.4 32.9 2.7 33.6 1.1.2 8.9-.9 9.2-1.2s1-5.3 1.1-6.4c4.6-47.9 5.1-96.9 7.1-144.9.4-10.1.3-20.4.9-30.5m-195.6 213.6c-2-1.7-14.8-16.8-16.3-19.2-2-3.2-2.8-11.8-3-16-1.1-17.7 0-36.7-1-54.5l-2 9.5c-.6 8.7-.5 36.3-6 42-1.9 2-6.9 2.8-6.8 5.8l19.3 54.7 74.3 34.7c21.7.5 52.4 5.3 72.4-3 16.8-7 36.8-16.6 53.2-24.8 3.1-1.5 12.6-5.6 14.1-7.9l18.4-53.7c0-3-4.9-3.8-6.8-5.8-3.7-3.9-5.4-23.7-6-30-.6-7.1 0-14.4-1-21.5l-2 18.4c-.3 9.7 1 45.9-2.9 52.1-1.5 2.3-14.4 17.4-16.3 19.2-2.8 2.4-6.6 3.1-10.1 3.4-51.4 4.4-109-3.4-161.1 0-3.5-.3-7.4-1.1-10.1-3.4zm-38.3-.7-9-28c.6 4.1-4.7 16.8-3.9 19.3.3.8 12.2 9.4 12.9 8.7m258 0c.7.7 12.6-7.8 12.9-8.7.8-2.6-4.5-15.2-3.9-19.3zm-36-22c-16.1 1.9-32.3 4.7-48.5 6-24.9 2.1-51 2.6-76 1-20.6-1.3-41-4.9-61.5-6.5 1.7 3.3 7.5 14.9 10.5 15.5 55.4.7 110.5 1 165.8-.2 1.5-.5 10.4-15.1 9.7-15.8" class="outline" data-original-prefix="outline"/><path id="outline-mouth8" class="outline"  fill="#000" d="m1436.8 1563.8-50.7 34.2c-4-18.3-19.9-33.9-39-35l20.2-81.8c23.3-7.5 49.2-10.2 65.8 11.3 12.3 16 8.8 52.5 3.8 71.2h-.1Zm-9-8c2.3-18.7 3.1-41.1-9.8-56.3-9.5-11.1-28.8-13.4-41.8-7.3l-15.1 62.7c14.4 2.3 23.6 13.1 30.5 25.1z" class="outline" data-original-prefix="outline"/><path id="outline-mouth6" class="outline"  fill="#000" d="M1315.9 1589.1c-3.2 14.3-8.1 27.2-6.9 42.4.2 2.8 3.5 14.4 2.9 15.4L1243 1679c-3.3-39.5 4.8-84.4 31.5-114.8zM1253 1659l45.5-18.9c.3-7.5-1.1-15-.5-22.5.6-8.2 3.2-17.2 5.9-24.9l-24.9-14.2c-1.1-.5-2-.5-3 0-3.3 1.8-12.8 21.2-14.5 25.6-2.6 6.5-8.5 25.2-8.5 31.5v23.5Z" class="outline" data-original-prefix="outline"/><path id="outline-mouth61" class="outline"  fill="#000" d="m1320.1 1732.9 6.4-73.9c1.2-2.2 7.5-2.1 10.1-2.9 7.3-2.2 13-4.4 19.3-8.7 3.8-2.6 9.9-9.5 13.2-10.9 1.4-.6 2.3-.6 3.7.3l28.8 23.2c.8.7 1.4 1.5 1.4 2.6 0 3.4-16.1 23.8-19.5 27.5-10.6 11.7-44.7 41.1-59.5 43.6-1.4.2-2.6 0-3.9-.7Zm12.9-16.9c1.2 1.2 12.2-6.1 14.1-7.4 9.9-6.6 20.2-15.9 28.4-24.6 2.4-2.5 14.3-16.1 15-18.1.4-1.2.7-1.6-.5-2.5-6.2-2.6-13.9-13.9-19.1-16-1.4-.6-1.5-.2-2.6.3-6.2 2.4-15.3 11.1-22.6 14.4-10.2 4.6-12.8-.3-13.7 14.3-.3 5.5 1 10.1 1.1 15 .2 8.2-.2 16.4 0 24.5h-.1Z" class="outline" data-name="outline-mouth6" data-original-prefix="outline"/><path id="outline-mouth5" class="outline"  fill="#000" d="M1348.7 1574.2c9.1-1.4 16.2.2 22.2 7.3 23.8 27.5-23.6 86.8-50.5 63.5-21.9-19 1.7-66.6 28.2-70.8zm.1 9.1c-19.3 2.8-39.1 36.3-24.2 51.6 17.3 17.8 47.8-22.3 44.2-40.2-2-9.8-11-12.8-20-11.5Z" class="outline" data-original-prefix="outline"/><path id="outline-mouth4" class="outline"  fill="#000" d="M680.8 1481.2 701 1563c-19.6 1.1-34.5 16.9-39.5 35l-50.6-34.7c-4.5-19.3-8.4-55.2 4.6-71.3 16.9-21.1 42-18.2 65.3-10.8m-9 11c-12.9-6.1-32.3-3.9-41.8 7.3-12.9 15.2-12.1 37.6-9.8 56.3l35.5 24.1c1.8.3 6.2-8.6 7.9-10.8 6-7.5 14.3-12.2 23.5-14.7z" class="outline" data-original-prefix="outline"/><path id="outline-mouth3" class="outline"  fill="#000" d="m805 1679-69.1-32.7c2.3-8.9 3.8-17.5 3.1-26.8-.8-10.5-5.2-20.2-6.9-30.4l41.4-24.9c26.7 30.5 34.8 75.3 31.5 114.8m-10-20v-23.5c0-6.3-6-25-8.5-31.5-1.7-4.4-11.2-23.8-14.5-25.6q-1.5-.9-3 0l-24.9 14.2c2.7 7.8 5.3 16.7 5.9 24.9.6 7.6-.8 15-.5 22.5l45.5 18.9Z" class="outline" data-original-prefix="outline"/><path id="outline-mouth2" class="outline"  fill="#000" d="M727.9 1732.9c-.3.6-3 .8-3.9.7-14.8-2.5-48.8-31.9-59.5-43.6-3.4-3.7-19.5-24.1-19.5-27.5s.7-1.9 1.4-2.6l28.8-23.2c1.3-.8 2.2-.9 3.7-.3 3.2 1.4 9.3 8.3 13.2 10.9 6.3 4.3 12 6.6 19.3 8.7 2.7.8 8.9.7 10.1 2.9l6.4 73.9ZM715 1716c-1.4-16.4 2.9-32.9-.5-49-1-2.1-9.2-3.4-12.2-4.8-7.2-3.4-16.5-12.1-22.6-14.4-1.1-.4-1.2-.8-2.6-.3-5.2 2.1-12.9 13.4-19.1 16-1.1.9-.9 1.3-.5 2.5.7 1.9 12.7 15.5 15 18.1 8.2 8.7 18.5 18 28.4 24.6 1.9 1.3 12.9 8.6 14.1 7.4Z" class="outline" data-original-prefix="outline"/><path id="outline-mouth1" class="outline"  fill="#000" d="M687.7 1574.2c37.2-7.7 66 59.2 35.5 73.5s-68.2-42.3-45.8-66.8c2-2.2 7.4-6.2 10.2-6.8Zm2 9c-4.8 1.1-9.9 7.6-10.7 12.4-1.4 9.1 8.1 26.8 14.5 33.3 17.2 17.5 38.3 11.7 34.2-15.2-2.4-15.7-21.3-34.3-38-30.5" class="outline" data-original-prefix="outline"/></g></svg>