<?xml version="1.0" encoding="UTF-8"?>
<?xml-stylesheet type="text/css" href="styles/collection.css"?>
<svg xmlns="http://www.w3.org/2000/svg" viewBox="0 0 2048 2048"><g id="01_background" data-trait="yellow"><path id="bg" d="M2048,0v2048H0V0h2048Z" style="fill: #ddb305;"/></g><g id="02_Jaw" data-trait="headphones"><defs>
    
  </defs>
  <path id="fill-jaw" class="fill"  class="st2" d="M1373,1278c10.5.4,29.1-5.9,35.2,5.3,10.7,19.6,15.9,50.4,25.7,71.3,3,11.9-8.8,18.7-13,27.9-.4.8-1.4,1.4-.5,2.6l79.1,40c2.3,3.8-3.6,14.2-1,19l36.2,79.6-11.5,32.7c5.5,8.9,13.4,16.8,17.8,26.1l-19.9,52.2,18.3,22.3v5l-61.4,99.3c-2.5,2.2-23.2-.7-28.1,1.2l-61.7,62.3c-16.4-2.9-31.7,11.1-47.8,14.2-20.1-2.5-44.6-14.1-64.1-15.9-10.5-1-30.4,5.3-39.3,2.3l-90-57.5,21.9-62.5c0-1.6-1.2-2-2.3-2.7-7.1-4.6-19-6.8-26.5-11.6l-4.2.3-89.9,35.1c-15.1,1.2-30.2,3.6-45.3,3.2l-100.2-35.8c-2,0-18,7.8-19.9,9.2-.9.7-1.7,1.1-1.7,2.4l16.9,58.3-.8,2.7-83,59.1c-5.8,1.8-14-4.8-20.5-3.6l-87,18.1c-2.7-.5-3.8-5.4-8-7-11.3-4.3-28.3-3.2-40-8l-58.5-66.5c-4.8-2.2-15.4,5.2-20.8,5.4l-69-103.7.3-3.2c2.8-4.1,19.4-20.2,19.5-23.5l-22-52.1c-.4-5.6,17.6-24.2,18-30,.3-5.4-11.4-19.6-9.8-26.7l40.1-104.5,64.6-33.4c1.9-3-12.3-33-10.7-39.1l34.7-65.1c10.3-3,21.4-3.8,32.1-5.7l-23.7-60.3c5.6-16,11.2-32,17-47.9,7.9-21.7,16.5-47.6,27.2-67.8,53.7-101.2,185.9-162.6,293.5-185.5,35.9-7.6,63.7-2.7,98.4,6.5,100.4,26.7,224,89.8,269.8,188.2,7.8,16.7,8.9,28,13.3,44.7,2,7.7,14.7,26.3,19.1,34.9,2,3.9,7.2,12.8,7.5,16.5.5,5.7-7.6,35.3-10,42-3.7,10.1-10.8,19.3-14,29.5v.2h0Z"/>
  <path id="fill-jaw1" class="fill"  class="st2" d="M633.3,1439.3c-6.9,9.3-7.1,20.4-1.8,30.6,11.3,21.3,32.2,49,46.2,69.8,45.6,67.8,94.8,132.8,149.2,193.8,13.2,10.1,26.6-2.7,28.8-16.3,3.7-22.9-25.9-58.5-35.7-78.8-.8-4.2,2.4-17.5,4.7-21.2.5-.8.8-2.8,2.2-1.3.7.7,3.6,14.5,7.6,18.9,3,3.4,8.2,4.1,9.5,5.8,3.8,4.6,13.5,27,16.8,33.9,9,19.1,25.7,53.6,27.2,73.8.9,11.9-.8,14.4-8.1,23-14.7,17.3-47.5,38.8-70.5,40.5-10.1.8-13.3-3.5-20.5-9.5-62.4-51.2-122.3-130.8-164.4-199.6-24.2-39.6-64.6-113.9-68.5-159.6-.6-7.4-1.5-12.5,3.8-17.9,15-15.1,41-26.4,61.4-31.3,5.1,1.2,16.7,35.2,15.6,41.3-.5,3-2.7,2.6-3.7,3.9l.2.2Z"/>
  <path id="fill-jaw2" class="fill"  class="st2" d="M1213.7,1635.7c5.1-5.1,6-14.3,8.8-20.7,4.6,6.1,6.2,14.9,6.3,22.3-9.9,20.1-39.1,55.6-36.8,78.2,1.2,11.9,10.8,24.5,24,21,5.4-1.4,17.2-16.5,21.5-21.5,66.6-77.1,124.4-160.8,179.7-246.3,3.9-7.6,3.9-17,.4-24.7-1.3-2.9-6.3-7-6.3-8.2,0-4.6,4-17.4,5.8-22.2,1.4-3.8,7.1-17.8,10.5-18.5,9-1.7,39.9,15,48.2,20.8,4.2,2.9,15.5,11,16.2,15.8,2.2,14.1-6.8,42.2-11.7,56.2-35.2,102.4-137.6,246-221.3,314.7-6.8,5.6-10.2,10-19.6,9.5-19.6-1-47.1-17.5-61.5-30.5-4-3.6-16.7-16.6-17.8-21.2-3.8-17.2,10.6-48.8,17.6-65,3.7-8.4,22.6-51,27.2-54.8,2.2-1.8,6.5-2.7,8.6-4.9h.2Z"/>
  <path id="fill-jaw3" class="fill"  class="st2" d="M765,1818c-12.7,3.6-25.1,8.6-38,11.5-5.6,1.3-14,4.1-19,.9-64-61.2-119.5-138.6-156.9-219.1-10.1-21.7-30.2-68.4-26.7-91.4,2.5-16.7,12.8-35.6,17.6-51.9l12.2,36.2c40.7,100,105.4,197.4,177.2,277.8,8.7,9.8,26.1,24.2,32.5,33.5.6.8,1.4,1,1,2.5h.1Z"/>
  <path id="fill-jaw4" class="fill"  class="st2" d="M1283,1818c-.4-1.5.4-1.7,1-2.5,6.5-9.3,23.8-23.7,32.5-33.5,71.9-80.4,136.5-177.8,177.2-277.8l12.2-36.2c4.7,16.4,15,35.2,17.6,51.9,3.5,23-16.6,69.7-26.7,91.4-37.4,80.5-92.9,157.9-156.9,219.1-4.9,3.1-13.4.3-19-.9-12.9-2.9-25.3-7.9-38-11.5h.1Z"/>
  <path id="fill-jaw5" class="fill"  class="st2" d="M692.7,1454.6c.2,0,.6-3.3,2.3-1.6.7.7,2.8,16.2,3,18.5.8,11.3-2.3,39.3,1.5,47.6,1,2.3,9.7,13.2,11.6,14.3,5.2,3,7.5.4,12.4.6,35,1.2,30.9,51,40.4,72.7,4.6,10.5,40,56.8,49.9,59.1,1.1.3,2.2.3,3.3.2v-7c1.6.8,3.4,2.6,4.4,4.1,3.9,5.6,13,23.4,15.1,29.9,2.5,7.9,6.9,26.8-7.3,22.3-8.6-2.7-27.2-27.4-33.6-35.4-28.5-36-56.8-75.1-83.4-112.6-18.6-26.2-41.5-56.4-56.4-84.6-3.5-6.6-11.8-22.5-3.8-28.1,5.7-4,11.9,1.8,17.4,3.5,9.7,3.1,14.7,1.8,23.2-3.4h0Z"/>
  <path id="fill-jaw6" class="fill"  class="st2" d="M1356,1453s-.4,1.3,1.2,2.3c8.1,4.8,13.3,5.6,22.3,2.7,5.3-1.7,11.2-7.2,16.4-3.5,8,5.7-.3,21.6-3.8,28.1-14.9,28.2-37.7,58.4-56.4,84.6-26.6,37.5-54.9,76.6-83.4,112.6-6.4,8-24.9,32.7-33.6,35.4-4.6,1.4-9.2.4-9.9-4.8-2.3-16.9,12.8-37.1,20.1-51.5,4.5-1.2-.3,7.2,3.5,7,3.3-.2,8.9-5.1,11.5-7.5,9.9-9.3,35.9-40.2,41.2-51.8,4.4-9.7,5.2-26.7,8.3-37.7,4.6-16.4,12.4-34.4,32.1-35,4.8-.2,7.2,2.4,12.4-.6,1.8-1.1,10.3-11.6,11.3-13.7,4.3-9,.9-37.2,1.8-49.2.2-3.1,1.9-14.7,3-16.9.5-1,1.5-.9,2-.6h0Z"/>
  <path id="fill-jaw7" class="fill"  class="st2" d="M668.3,1813.7c1.2,1.3,4.2,1.7,3.6,4.3-11.8,2.6-22.5-6.2-30.5-13.9-47-45-85.8-115.1-111.6-174.4-4.2-9.6-9.4-20.7-12.6-30.4-3.7-11.4-6.2-20.8,3.2-30.2,17,38.9,33,78.5,53,116,25.2,47.2,59.3,88.9,94.9,128.6"/>
  <path id="fill-jaw8" class="fill"  class="st2" d="M1376,1818c-.4-1.8.6-2,1.6-3,23.2-23.3,49.4-55.6,68.2-82.7,34.9-50.1,57.3-107.7,81.7-163.3,9.5,9.5,6.9,18.8,3.2,30.2-5.4,16.7-15.3,37-22.9,53.1-24.4,51.7-59.5,111.3-100.8,151.2-8.1,7.9-19,17.1-31,14.4h0Z"/>
  <path id="fill-jaw9" class="fill"  class="st2" d="M586,1754c-8.8,4.2-11.8-.9-17.5-7-13.2-14.2-48.5-65.3-49.5-83.5-.4-6.5,3.1-11.1,7.5-15.4l25.3,49.7,34.2,56.3h0Z"/>
  <path id="fill-jaw10" class="fill"  class="st2" d="M1462,1754l34.2-56.3,25.3-49.7c4.4,4.4,7.9,9,7.5,15.4-1,18.2-36.3,69.3-49.5,83.5-5.7,6.1-8.7,11.2-17.5,7h0Z"/>
  <path id="fill-jaw11" class="fill"  class="st2" d="M853,1643c23.4,1.8,23.6,24.4,32.8,40.7.8,3.2-7.7,7.2-9.3,5.3l-23.5-46Z"/>
  <path id="fill-jaw12" class="fill"  class="st2" d="M1194,1644l-22,46c-4.7-1.2-10.2-1.5-8.5-7s10.2-25.6,13.1-29.9c3.8-5.7,10.7-8.8,17.4-9.1"/>
  <path id="outline-shading-jaw" class="outline"  class="st1" d="M1380.8,1185.8c-.2.4-2.1.7-2.8,1.7-8.6,10.8-16.2,26-21,39-4.2,11.4-5.1,22.7-13,32-11.3,13.5-31,29.3-45.7,39.3-15.8,10.7-32,18-49.3,25.7,7.1.9,14.3.5,21.5.5,23.3,0,41.9-6.8,62.9-17.1,15.5-7.6,25.1-16.9,35.2-30.7l21.4,3.8c-4.2,14-3.4,28.4-18.5,35-23.4,10.3-52.3,12.2-75.8,25.2-1.8,1-5.5,4.4-6.4,4.7-1.8.4-30-9.3-35.1-10.6-25.9-6.6-37.1-9.7-23.1,21.1,5.3,11.7,19.9,38.8,29.8,46.2,12.3,9.1,22.9-9.5,30.5-16.5,6.2-5.9,17.1-12.2,25.3-14.7,16.8-5,32.3,4.9,49.7,5.7,17.6.8,34.4-7.6,48.8-17.2,3.6-2.4,14.6-13.9,17.2-13.8,3.3.2,2,7.1,1.3,9.2-5.4,16.2-16.1,32.7-21.4,49.2,10.4,8.1,27.3,20.2,27.5,35,.2,17.8-26.4,60-36.4,76.4-39.8,65.4-86.5,126.3-133.5,186.6,14,16.5,38.6,26.1,60,20,7.6-2.1,12.1-7.4,19-9.5-2.6,20.2-3.1,27.7,16.8,34.7,21.1,7.5,45.8,7.9,64-6.5l21.3-16.2-22,44.5,8,2.5c.2,1.1,0,1.9-.5,2.9-6.5,16.2-30.2,41.1-45.5,49.5-5.7,3.1-46.1,12.9-52.4,12.6l-84.3-18.7-15.5,3.5-71-30c-1.3-.4-1.8-1.4-2.6-2.4-2-2.6-13.5-23.8-14.4-26.6s-1.1-5.3-.8-8.2l24-61.5c-15.6,0-31.3-2.2-46.8-2.8-3,4.8-9.3,10.4-14.2,13.3-8.6,5.1-53.1,24.7-61.5,25.5-18.7,1.7-40.6-1-59.6-.5-17.3-8.6-39-15.2-55.8-24.2-6.6-3.5-10.2-10.9-16.6-14.4-15.1,1.1-30.3,2.9-45.5,3l23.3,59.2c1.1,3.4,1.1,7.1,0,10.5-.9,2.5-14.6,27.1-15.9,28.1l-72.1,30.9-15.5-3.6c-25.8,4.6-51.9,13.1-77.6,17.4-3.8.6-6.7,1.6-10.7,1.3-6.5-.4-39-8.3-45.2-10.8-7.3-3-27-19.4-32.3-25.7-2.9-3.4-15.8-22.7-16.8-26.2-.2-.8-.3-1.5-.2-2.3l8-2.5-23-46.5,18.7,15.8c19.2,17.3,52.4,17.8,74.6,6,15.5-8.2,9.7-18.1,9.7-32.8,23.9,20.9,59.5,13.2,78.9-9.6-42.1-53.6-83.6-108-120.3-165.4-14.8-23.2-36.2-55.1-45.3-80.7-7.2-20-3.9-28.9,11.8-42.8,2.3-2.1,10.8-6.9,11-9,.2-1.7-1-3.8-1.6-5.5-4.8-13.7-16.7-32.1-20-45-1.1-4.3-.6-8.4,4.5-6.5,4.7,1.8,9.6,8.8,14.8,12.3,25.4,16.9,38.3,19.8,68.5,13.9,5.4-1.1,13.6-4.6,18.3-4.7,11.5-.3,29.8,10.2,38,18,7,6.7,17.2,24.1,29,16.1,9.9-6.8,30-43.8,34.3-55.7,1.7-4.7,5.2-14.8-2.3-16.2-8.2-1.6-30.5,5.9-39.5,8.5-3.9,1.1-17,6.5-19.5,6.4-1,0-13.7-8.2-17.2-9.7-16.2-6.7-62.8-15.6-72.7-24.3-7.9-6.8-7-18.7-11.5-27.5,0-1.4.7-1.7,1.7-2.2,1.5-.8,18.7-5.3,19.7-5.1,14,22.3,36.7,32.7,60.6,41.3,16,5.8,21.6,6.6,38.4,6.5h20.5l-34-16.5c-15.7-8.8-60.2-41.6-66.8-57.2-2.5-5.8-3.6-13.7-5.9-20.1-6.1-16.9-14.4-32.5-25.3-46.8,1.3-9,6.5-19.6,7.8-28.2,2.8-19.1,3.8-27.8,12.1-45.9,42.8-94,156.1-156.3,251.2-184.8,49.9-15,102.4-18.1,153.2-5.2,102.2,25.9,235.9,97.2,274.5,201.5,5.1,13.9,5.1,20.8,7.5,34.5.8,4.8,8.8,28.4,7.6,30.6h-.2ZM1078,1327c-6.6-11.3-11.1-25.2-18.6-35.9-4.1-5.9-9.8-10.2-14.4-15.6-3.4-3.9-14.7-20-18-21-1.9-.6-4.4-.8-6.3-.2-2.4.7-15.8,18.7-18.7,22.3-4.5,5.4-9.5,9.1-13.8,15.2-7.4,10.5-12.7,23.7-18.2,35.3h108ZM728.3,1496.7c1.6,2,8.2,6.3,10.7,7.8,14.8,8.8,31.7,13.8,46.9,23.1,16.8,10.2,40.2,33.1,59.6,33.5,2.3,0,8.7-1.2,9.4-3.7.8-2.7-13.5-27.5-16.4-30.3-7.3-7.2-27.5-17.2-37.2-23.8-15.2-10.3-50.3-39.1-67.9-39.2-10.5,0-8.7,28.1-5.1,32.7h0ZM1319.7,1466.3c-5.9-5.9-24.1,4.1-30.4,7.6-16.2,8.9-31,21.4-46.2,31.8-12.7,8.7-30.1,15.7-38.6,28.4-2.2,3.4-10.8,17.7-11.4,20.7-1.1,5.3,6.2,6.5,10.3,6.3,16-.9,23.4-9.7,35.2-17.8,9.2-6.3,19.3-13.6,29-19,11.7-6.6,47.1-19.2,52.7-29.3,2.4-4.3,2.8-25.2-.7-28.6h0ZM1126,1664c-12-2.7-20.7,6.6-31.6,7.9-5.7.7-12.2-1.2-16.6-.7-7.1.8-22.9,12.1-31.2,14.9-14.8,4.9-30.2,4.7-45.1,0-8.8-2.8-23.9-14.1-31.2-14.9-4.4-.5-10.9,1.4-16.6.7-11-1.3-19.9-11-31.6-7.4,0,6.9,23.8,23.5,30,27,12.5,7.1,59.8,26.8,72.5,26.6s59.9-19.8,72.2-26.9c10.3-6,24.6-16.2,29.3-27.2h-.1Z"/>
  <path id="outline-shading-jaw1" class="outline"  class="st0" d="M1478,1737c3.9.4,7.2-2.1,10.3-4.2s11.4-11.1,13.2-11.8c3.7-1.6-1.6,7.2-2.1,7.9-3.6,5.7-19.8,26.3-24.9,29.1-6.3,3.5-11.9.9-18.5,0-.5-3.4,1.9-6.1,3.6-8.9,9.7-16.6,23.4-37.9,34.6-53.4.7-1,1.5-2.4,2.8-2.7-1.2,6.4-3.2,12.7-5.8,18.7-1.4,3.3-14.2,24.3-13.2,25.3"/>
  <path id="outline-shading-jaw2" class="outline"  class="st0" d="M592,1758c-7.2,1.1-12.2,3.5-19.2-.3-5-2.7-21.2-23.7-24.7-29.3-.5-.8-5.2-8.8-1.7-7.3,1.7.7,9.8,9.6,13.2,11.8,3.1,2.1,6.3,4.6,10.3,4.2-6.3-14.7-17.1-27.6-19-44l38.4,58.1,2.6,6.9h.1Z"/>
  <path id="outline-jaw" class="outline"  d="M681,1139c5.4-1,10.7-1.8,13.8,3.7-1.2,7.6,0,17.4-2,24.6-1.6,5.8-18,15.3-21,22-1.2,2.6-6.4,25.9-6.7,29.3-.2,1.7,0,2.8.4,4.4,2.2,7.2,14.4,20.5,18.4,28.6,5.2,10.5,6.7,23.5,11.3,33.7,5,11.1,15.6,11.8,25.1,16.9,7.5,4,16,10.6,22.7,15.8-3.1,0-6.3.3-9.4,0-8.2-1-26.7-5-34.4-7.6-2.1-.7-9.4-4-10.7-5.3-3.1-3.3-6.1-15.8-9.5-17.4-2.5-1.2-7,0-10.3-.7-6.7-1.2-9.9-7.8-17.5-1.5-6.6,12.4-14.3,24.3-20.4,37.1-7.4,15.4-14.8,25.1-4.8,41.2,5.2,8.4,23.4,27,25.6,34.4,2.5,8.6-2.7,28,2.9,34.1,6,6.6,20.6,4.5,27.8.8,10.6-5.4,8.7-9.9,14.3-18.7,5.3-8.3,20.9-24.3,30.4-26.7,7.7-1.9,12.3,10.3,14,16,3.6,11.6,3.2,28.2,9.1,37.9,10.7,17.3,45.3,33.7,65.3,34.7,9.3.4,15.2-5.5,21-12,3-3.3,13.4-19.9,14.5-20.5,1.8-1,4.3-.7,6.3-.3,6.1,1.3,31.8,27.4,38.7,33.3,29.5,25.3,59.4,44.7,98.7,50.3,60.9,8.7,105.3-6.9,151.3-45.3,11.4-9.5,21.6-20.6,33-30,4.3-3.6,12.1-11.6,18-8,1.1.7,11.4,17.1,14.5,20.5,12,13.2,17.2,13.9,34.7,9.7,15.2-3.7,44.3-19.1,52.6-32.4,5.1-8.2,5.1-21.6,7.5-31.5,1.7-6.7,6.2-24.7,15.7-22.4,10.7,2.6,27.2,21,32.6,30.4,1.7,3,2.2,6.8,3.9,9.1,6.4,8.6,29.4,13.6,36.5,4.5,4.8-6.2,0-25.2,2.4-33.6s20.4-25.8,26-35c9.4-15.7.8-28.4-6.5-43.3-5.8-11.7-13.3-22.7-19.2-34.3-7.1-5.6-12.2.4-18.5,1.5-2.9.5-6.9-.4-9.3.7-3,1.4-6.8,14.4-9.6,17.4-1.3,1.4-7.2,3.9-9.3,4.7-8,3-26.3,7-34.9,8.1-3.4.4-6.8.2-10.2.2,6.6-5.5,15.7-12,23.3-16.2,11.5-6.3,19.8-5.1,25.5-19.5,3.6-9.1,5-19.4,9.4-28.6,5.2-10.9,14.2-20.6,19.6-31.4.6-1.5.2-3,0-4.5-.6-4.4-5.6-25.6-7.2-28.8-3.5-6.8-19-16.2-20.3-20.7-.8-2.7-2.7-24.4-2-26.6,1.5-4.9,9.1-3.4,12.8-2.7,1.6.3,4.1,0,5.1,1.7,1.8,2.9,1.8,11.7,3.9,13.8,4.3,4.4,21.1,4.4,24.8,12.2,2.2,4.6,0,15.6.2,21.8.5,12.5,8.5,29.5,6.8,39.7-.7,4.2-13.9,26.4-17.1,30.9-1.5,2-12.2,12.4-10.6,13.9,7.4.6,18.3-14.1,23.5-14.1s9,8.6,11.3,11.8c14.6,19.9,29.3,46.5,36.9,70.1,1.2,3.8,4.5,12.8,2.8,16.2-.7,1.4-3.3,2.1-4.5,3.5-5,6-9.6,13-14,19.5,23.4,4.3,53.2,19.5,68,38.5,7.3,9.4,4.3,12.7,6.5,22.5,3.5,15.9,19.4,40.3,25.5,57.5,2.5,7,6.9,19.9,7.1,27,0,6-4.5,13-4.1,16.9s6.2,16.4,7.5,22.6c3,13.8,3.9,17.4-1.3,30.7-2,5.2-16.4,34.3-16,36.7,8.9,8.9,19.7,15,18.8,29.2-1,17.7-33.9,64-45.6,79.4-4.3,5.6-23.6,30.1-28.3,31.7-7.5,2.4-17.8-6.7-22.1-4.1-7.5,10.9-15.8,21.5-24.5,31.5-16.8,19.3-25.5,31.3-52.2,35.8-4.7.8-12.8.4-16.4,1.6-8.7,2.8-10.3,11.6-24.4,11.6s-49.3-7.9-58.8-14.2c-2.1-1.4-5.3-5.9-7.2-5.8-1.5,0-10.7,6.3-16.1,6.9-33.7,4-93.1-31.4-107.9-61.8-5.1-10.4-3.9-14.2-.5-24.6,4.8-14.4,12.7-27.7,18-41.9-5-.8-14.5-7.9-18.7-8.3-2.3-.2-34.8,17.4-40.8,19.8-18.6,7.5-44.8,14.4-64.5,18.5-11.3,2.3-15.7,2.3-27,0-36.4-7.4-71.7-19.8-104-38.1-3-.7-15.7,5.8-19.6,7.5-1.1.5-1.7-.7-1.4,1.6,5.8,13.5,13.4,27.1,18,41,3.4,10.4,4.6,14.2-.5,24.6-14.8,30.3-73.5,65.3-107,61.9-4.9-.5-16.9-7.1-17.8-6.9-1.4.3-4.4,4.4-6.4,5.7-9.7,6.5-46.9,14.3-58.8,14.2-14.1,0-15.7-8.9-24.4-11.6-7.3-2.3-20-1.5-29.5-4.5-17.1-5.4-34-26.7-45.5-40.5-6.4-7.7-12.3-15.8-18-24-4.9-3-15.5,8.3-24,3-2-1.3-5.7-5.5-7.6-7.4-8.4-8.9-17.6-21.2-24.9-31.1-10.5-14.3-36.3-51.6-39.2-67.8s8-22.5,18.4-32.7l-19.7-46.9c-.7-6.9.9-13.7,2.4-20.4,1.4-6.2,7.1-18.8,7.5-22.6.3-3.4-3.2-9-3.7-13.2-1-8.6,3.8-22.4,6.7-30.8,6.1-17.2,22-41.5,25.5-57.5,2-9.3-.8-12.9,6.1-21.9,14.5-19.3,45-34.8,68.4-39.1,1.1-1.2-8.5-13.6-10-15.5-3.5-4.4-8.3-5.6-8-12,.4-8.2,10.9-31.9,14.8-40.2,3.7-7.7,29.3-51.5,34.9-53.2,6.3-1.8,17.3,14.4,25.3,13.8,1.9-1.8-8.7-10.8-10-12.5-3.8-4.9-13.3-21.4-15.9-27.1-6.1-13.5,1.7-20.9,3.8-34,.5-3.2,1-8.6,1.2-11.8.2-6.5-2.4-17.4.6-22.3,3.3-5.3,21.2-7.6,24.1-10.5,2.7-2.7.9-10.5,3.2-14.1,1-1.6,3.5-1.4,5.1-1.7v-.2h0ZM633.3,1439.3c.9-1.2,3.1-.8,3.7-3.9,1.1-6.1-10.5-40.1-15.6-41.3-20.5,4.9-46.5,16.2-61.4,31.3-5.3,5.4-4.5,10.5-3.8,17.9,3.8,45.6,44.2,120,68.5,159.6,42.1,68.8,102,148.4,164.4,199.6,7.2,5.9,10.4,10.2,20.5,9.5,23-1.7,55.8-23.2,70.5-40.5,7.3-8.6,9-11.1,8.1-23-1.5-20.2-18.2-54.8-27.2-73.8-3.3-7-13-29.3-16.8-33.9-1.3-1.6-6.5-2.4-9.5-5.8-3.9-4.4-6.8-18.2-7.6-18.9-1.5-1.5-1.7.5-2.2,1.3-2.3,3.7-5.5,17-4.7,21.2,9.8,20.3,39.4,55.9,35.7,78.8-2.2,13.6-15.6,26.4-28.8,16.3-54.4-61-103.6-126.1-149.2-193.8-14-20.8-34.9-48.5-46.2-69.8-5.4-10.2-5.2-21.2,1.8-30.6l-.2-.2ZM1213.7,1635.7c-2.2,2.2-6.4,3.1-8.6,4.9-4.6,3.8-23.6,46.3-27.2,54.8-7,16.2-21.4,47.8-17.6,65,1,4.6,13.8,17.6,17.8,21.2,14.4,13,41.9,29.6,61.5,30.5,9.3.5,12.8-3.9,19.6-9.5,83.7-68.7,186.1-212.3,221.3-314.7,4.8-14,13.9-42.1,11.7-56.2-.8-4.8-12-12.8-16.2-15.8-8.3-5.8-39.2-22.5-48.2-20.8-3.5.7-9.2,14.7-10.5,18.5-1.8,4.8-5.8,17.7-5.8,22.2s5,5.3,6.3,8.2c3.5,7.7,3.6,17.1-.4,24.7-55.2,85.5-113,169.3-179.7,246.3-4.3,5-16.1,20.1-21.5,21.5-13.2,3.5-22.8-9.1-24-21-2.3-22.7,26.9-58.1,36.8-78.2,0-7.4-1.7-16.2-6.3-22.3-2.8,6.3-3.7,15.6-8.8,20.7h-.2ZM1249,1614.5c.5,5.3-.4,11.2,0,16.5,4.5-2.9,6.9-8.6,9.2-13.3,7.2-14.9,13.6-37.5,13.9-54.1,0-7.5-1.8-15.8-2-23.2,0-2.6,2.9-7.2,5-8.8,3.9-3.2,18.2-11.2,23.3-13.7,10.8-5.5,29.6-7.9,33-21,2.5-9.8.7-28.2,1.8-39.2,1-10.3,7.7-19.4,6.9-29.1-.6-6.2-5.2-16.1-9.4-20.6-1.5-1.6-8.7-7.2-10.5-5.9s-7.1,27.7-7.1,31.5,2.9,12.2,0,17.1c-1,1.8-14.9,11.5-17.8,13.2-13.5,8.5-30.5,17.7-44.6,25.4-9.2,5-19.2,9.5-28.4,14.7-3.1.5-6.8-3.6-10.8-3.9-11.7-.8-14.5,8.2-21.5,14.6-16.6,15.2-41.4,23.2-63.5,25.5-69.2,7.1-135.8,6.9-205,0-21.8-2.2-45.9-9.8-62.5-24.5-7.4-6.5-10.7-16.4-22.5-15.6-4,.3-7.4,4.3-10.5,3.7-12.5-7.1-25.7-12.8-38.3-19.8s-39.3-21.5-49.2-30.8c-6.9-6.6-2.4-12.5-2.5-20.4-.2-9.9-4.5-21.1-7.1-30.5-9.8,1.4-16.8,13.3-19.3,22.2-3.6,12.9,4.8,20.7,6.2,33.4s-2.5,31.6,2.7,42.3,22.8,13.3,32.7,18.3c4.5,2.3,19.2,10.6,22.6,13.4,1.8,1.5,2.7,3.4,3.6,5.4.2,9.9-2.1,19.6-1.6,29.6.8,16.7,8.6,44.3,17.5,58.5,1.4,2.3,3,4.7,5.5,6-.9-5.1-.4-9.2.3-14.2.9-6.6,4.7-25.1,7.5-30.5,1.2-2.3,3.7-3.5,4.3-6.2,23,6.3,35.4,28.6,50.3,44.9,11.3,12.4,23.8,14.5,34.1,23.9,6.5,5.9,11.9,15.9,17.5,22.5,14.4,17.2,20.4,23.3,41.3,32.7,28.8,12.9,50.9,21,83.2,18.9,16.7-1.1,61-18.9,75.8-28.2,16.1-10.1,26.5-33.3,40.2-45.8,10.2-9.3,22.2-11.3,33-23,9.6-10.3,17.3-22.5,28-32,5-4.5,21.2-18.9,26.3-9.3,2.2,9.9,7.3,19.6,8.2,29.8v-.4h.2ZM692.7,1454.6c-8.6,5.2-13.5,6.5-23.2,3.4-5.5-1.8-11.8-7.5-17.4-3.5-8,5.7.3,21.6,3.8,28.1,14.9,28.2,37.7,58.4,56.4,84.6,26.6,37.5,54.9,76.6,83.4,112.6,6.4,8,24.9,32.7,33.6,35.4,14.2,4.5,9.9-14.4,7.3-22.3-2.1-6.5-11.2-24.4-15.1-29.9-1-1.5-2.8-3.2-4.4-4.1v7c-1.1,0-2.2,0-3.3-.2-9.8-2.4-45.3-48.6-49.9-59.1-9.5-21.7-5.3-71.5-40.4-72.7-4.8-.2-7.2,2.4-12.4-.6-2-1.1-10.6-12.1-11.6-14.3-3.7-8.3-.7-36.3-1.5-47.6-.2-2.3-2.3-17.8-3-18.5-1.7-1.7-2.1,1.5-2.3,1.6h0ZM1356,1453c-.5-.3-1.5-.4-2,.6-1.1,2.2-2.8,13.8-3,16.9-.9,11.9,2.5,40.2-1.8,49.2-1,2.1-9.4,12.7-11.3,13.7-5.2,3-7.5.4-12.4.6-19.6.7-27.5,18.6-32.1,35-3.1,11-3.9,28-8.3,37.7-5.3,11.7-31.3,42.5-41.2,51.8-2.6,2.4-8.2,7.4-11.5,7.5-3.8.2,1-8.2-3.5-7-7.3,14.4-22.4,34.7-20.1,51.5.7,5.2,5.3,6.2,9.9,4.8,8.6-2.7,27.2-27.4,33.6-35.4,28.5-36,56.8-75.1,83.4-112.6,18.6-26.2,41.4-56.4,56.4-84.6,3.5-6.6,11.8-22.4,3.8-28.1-5.2-3.7-11.2,1.8-16.4,3.5-9,2.8-14.2,2.1-22.3-2.7-1.6-1-1.2-2.2-1.2-2.3h0ZM765,1818c.4-1.5-.4-1.7-1-2.5-6.5-9.3-23.8-23.7-32.5-33.5-71.9-80.4-136.5-177.8-177.2-277.8l-12.2-36.2c-4.7,16.4-15,35.2-17.6,51.9-3.5,23,16.6,69.7,26.7,91.4,37.4,80.5,92.9,157.9,156.9,219.1,5,3.1,13.4.3,19-.9,12.9-2.9,25.3-7.9,38-11.5h0ZM1283,1818c12.7,3.6,25.1,8.6,38,11.5,5.6,1.3,14,4.1,19,.9,64-61.2,119.5-138.6,156.9-219.1,10.1-21.7,30.2-68.4,26.7-91.4-2.6-16.7-12.8-35.6-17.6-51.9l-12.2,36.2c-40.7,100-105.4,197.4-177.2,277.8-8.7,9.8-26.1,24.2-32.5,33.5-.6.8-1.4,1-1,2.5h-.1ZM668.3,1813.7c-35.5-39.8-69.7-81.4-94.9-128.6-20-37.5-36-77.1-53-116-9.5,9.5-7,18.8-3.2,30.2,3.2,9.8,8.4,20.9,12.6,30.4,25.8,59.3,64.7,129.4,111.6,174.4,8,7.7,18.8,16.6,30.5,13.9.5-2.7-2.5-3-3.6-4.3M1376,1818c12,2.7,22.9-6.6,31-14.4,41.3-39.9,76.4-99.4,100.8-151.2,7.6-16.1,17.4-36.4,22.9-53.1,3.7-11.4,6.2-20.8-3.2-30.2-24.4,55.6-46.8,113.2-81.7,163.3-18.9,27.1-45,59.4-68.2,82.7-.9,1-2,1.2-1.6,3h0ZM853,1643l23.5,46c1.7,1.9,10.1-2.1,9.3-5.3-9.3-16.3-9.5-39-32.8-40.7M1194,1644c-6.8.3-13.6,3.4-17.4,9.1-2.9,4.3-11.5,24.6-13.1,29.9s3.8,5.8,8.5,7l22-46ZM586,1754l-34.2-56.3-25.3-49.7c-4.4,4.4-7.9,9-7.5,15.4,1,18.2,36.3,69.3,49.5,83.5,5.7,6.1,8.7,11.2,17.5,7h0ZM1462,1754c8.8,4.2,11.8-.9,17.5-7,13.2-14.2,48.5-65.3,49.5-83.5.4-6.5-3.1-11.1-7.5-15.4l-25.3,49.7-34.2,56.3h0Z"/></g><g id="03_Mouth" data-trait="cracked scrappy"><path id="fill-muzzle-1" class="fill"  fill="#fff" d="M1038 1292s-.4 1.7.7 2c10.3 2.8 18 4.3 25.8 13 1.9 2.2 4.9 8.8 6.5 9.5 2.6 1.2 6.6 0 9.5.5 11.4 1.5 21.2 3.7 31.2 9.8 2.1 1.3 9.2 7.8 10.2 7.1.3-.3 0-1.7 0-1.9 2.4-1.8 32.7.6 38 1 5.2 4.2 13.2 5.5 19.2 8.3 13.7 6.4 22.5 16.1 29.9 29.1 8.4 14.6 7.7 17.8 3.1 33.4-2.5 8.5-4.8 21.8-16.3 20.2 1.5-15.5-14.8-32.4-26.5-41-3.2-2.4-11.3-7.2-6 0 10.7 14.6 20.5 15 21.5 37.5.5 10.4-8.3 32.8-15.4 40.5-.6.7-7.1 6.3-7.6 6.5-3 1.6-6.8-6.1-7.8-8.2-3.7-7.7-4.8-15.6-9.7-23.3-1.1-1.7-10.8-13.7-12.4-12.1 5.6 13 9 46.2-2.5 56-4.4 3.7-9.4 1.9-13.3 3.7-2.8 1.3-3.1 5.8-4.8 6.2-.9.2-7.2-3.2-9.4-3.5-9.3-1.3-13.1 17-18.7 17.4-2.5.2-10.7-11.9-18.4-9.4-6.8 2.2-15.3 20.6-23.6 23.5-7.3-4.5-4.2-14-6.6-21.1-1.2-3.5-4.2-6.7-5.8-10.2-5.4-12.7-2.8-19.9-.2-32.2.7-3.3-.2-6.3 1.2-9.8.4-1 6-11.5 6.6-12.4 3.7-5.4 19.2-12.4 22.7-3.8.9 2.2 0 8.7 2.2 7.7 5.1-4.9 10.2-9.9 15.5-14.5 10.2-8.9 12.8-8.2 19.5-21.5 1.9-3.8 8.1-17.3 8.2-20.7.2-6.3-17.9-22.6-21-29-3.6-2.9-22.1-2.8-27.2-2.3-14.1 1.5-18 12.2-27.5 19.5-1 .8-1.3 1.9-3 1.5l.8-12.7c7.6-8.2 14.9-16.6 21.1-26 .7-3.3-8.6-12.4-11.3-13.2-3.6-1 .5 5.5.5 6.6.4 5.2-5.9 4.1-9.3 5.6-1.2.5-3 2.7-3.2 2.7s-2-2.2-3.2-2.7c-8-3.5-11.7.6-7.3-12.2-1.6-1.7-12.5 9.1-12.9 11.7-.2 1.6 3.6 7.8 4.8 9.5 1.5 2 5 5.9 7 8.3 3.2 3.9 9.7 7.7 9.9 13.1 0 1.6-.8 3.1-.8 4.8s2.6 8.1-2.5 3.6c-6.2-5.3-10.1-13.6-18.5-17.5-6.8-3.1-28.3-4.1-34.7-.8-.8.4-9.9 11.1-11.2 12.8-2.4 3-10.9 13.7-10.8 16.8.2 5.1 11.2 27.9 14.7 32.2 2.8 3.4 10.2 7.7 14 11 5 4.3 9.7 9.1 14.5 13.5 2.2.9 1.5-5.2 2-7 2.4-9.9 19.2-2.4 23 3.1.7.9 6.6 13.1 6.9 14.1 2.9 11 5.6 26.6 1.9 37.5-1.7 4.9-6.8 10.4-7.8 15.2-1.4 6.6 1 13.6-5 19-5.3 1.2-18.8-21.7-24.4-23.5-8.2-2.6-15.9 9.6-18.4 9.4-5.3-.4-8.7-14-13.9-16.1-6.9-2.8-11.5 2.7-14.1 2.1-1.8-.4-2-4.8-4.8-6.1-4.5-2-9.6.3-14.3-4.7-10.9-11.5-6.5-42.2-1.5-56.1-9.1 6.7-14.1 14.8-18.5 25-1.6 3.6-2 7.5-3.7 11.3-1 2.1-4.9 9.8-7.8 8.2-.4-.2-6.9-5.8-7.5-6.5-4-4.2-13.8-24.3-15-30-2.8-12.9 1.4-26.5 9.5-36.5 4.1-5.1 11.3-9 13-15.5-2.4-2.4-22.3 17.4-24.4 20.1-5.4 6.8-11 15.9-9.6 24.9-4.7.2-8.1-.7-10.8-4.7-1.8-2.7-8.8-24.3-9.2-27.8-1.1-10.9 10.9-28.8 18-37 10.5-12.2 24.5-14.2 38-21.5 12.5-.8 24.5-2.3 37-1 0 0 .7 2.1.5 3 9.5-8.2 20.6-14.8 33.1-16.9 4.7-.8 14.8-.4 18.1-1.8 1.6-.7 5.2-7.7 7.2-9.9 8-8.4 15.2-9.7 25.4-12.5 1.1-.3.6-1.9.7-2 1.1-.7 25.9-.7 27 0Z" class="fill" data-original-prefix="fill"/><path id="fill-teeth16" class="fill"  fill="#fff" d="M995.3 1525.7c11 9.5 17.2-6.6 23.2 6.3 6.5 14.1 3.7 38.4-1 52.9-.7 2.1-7.1 16.9-8 17.1-1.2.3-3-.4-4.2-.9-12-5.1-31.7-18.1-39.1-28.9-10.6-15.5-6.4-42.9 6.8-55.8 1.3-1.3 9.1-5.6 10.4-5.3 1.5.3 9.4 12.3 12 14.5h-.1Z" class="fill" data-original-prefix="fill"/><path id="fill-teeth15" class="fill"  fill="#fff" d="M1039.1 1601.9c-.8-.5-7.5-16.1-8.1-18.4-4.1-13.8-6.5-36.9-1.3-50.3 4.6-12 8.1-4.3 15.8-4.2 9.5.2 17.3-18.2 20.8-17.9 1.2 0 8.5 4.2 9.7 5.3 6.3 6.2 12.2 22.3 13 31 2.4 28-20.3 39.6-41.3 50.7-2 1.1-5.7 5.5-8.6 3.7Z" class="fill" data-original-prefix="fill"/><path id="fill-teeth14" class="fill"  fill="#fff" d="M904 1461c0 2.2-1.1 3.8-.8 6.2.2 1.8 7.1 22 8 23.1 3.9 5.1 11.2 3.2 16.7 3.8 4.9 13.5-4.2 23.8-8.6 35.6-2 5.3-8.7 33.1-12.8 34.2-1.8.5-6.8-9.1-8.3-10.7-10.3-23.9-15.3-58.4-2.6-82.2.6-1.2 7.1-11.6 8.4-10.1Z" class="fill" data-original-prefix="fill"/><path id="fill-teeth13" class="fill"  fill="#fff" d="M1144 1564c-2.1 1.4-6.1-7.1-6.8-8.7-3.2-7.9-4.4-17.4-7.5-25.5-4.3-11.6-13.6-22-8.6-35.6 4.8-.6 12.3 1.2 15.9-2.9 1.3-1.5 8.1-20.6 8.6-23.2.3-1.8-1.4-7 .9-6 6 2.7 13.7 26 14.4 32.6 1.4 13.9-2.9 45-9.3 57.4-.8 1.5-7 11.6-7.6 11.9" class="fill" data-original-prefix="fill"/><path id="fill-teeth12" class="fill"  fill="#fff" d="M1093.1 1644.9c-2.9-1.8-2.4-28.5-2.1-33.4.7-10.5 5.2-31.2 8.9-41.1 1.1-2.8 2.4-1.4 4.2 0 12.2 9.6 21.1 44.8 12.8 57.9-1.9 3-15.6 14.9-18.9 16.1-1.3.5-3.8 1.1-4.8.4Z" class="fill" data-original-prefix="fill"/><path id="fill-teeth11" class="fill"  fill="#fff" d="M949 1569c5.5 22 11.1 44.4 9 67.5-.5 5.2-.9 10.3-7 8-3.4-1.3-17.5-13.4-19.5-16.5-5.8-9.2-1.4-31.3 2.7-41.2 1.2-2.9 11.3-21 14.8-17.7Z" class="fill" data-original-prefix="fill"/><path id="fill-teeth10" class="fill"  fill="#fff" d="M881.7 1478.3c3.1 2.8-2.7 21-2.8 26.2 0 5.9 2.6 12.4 3.1 18 .2 2.1.7 24.5-.5 24.5-1.5.2-2.1-1.1-2.9-2.1-15.6-18.9-34.8-51.8-17.4-75.3 6.5-8.8 10.5 2.1 14.9 5.8 1.8 1.5 4.9 2.1 5.7 2.8Z" class="fill" data-original-prefix="fill"/><path id="fill-teeth9" class="fill"  fill="#fff" d="M1185.7 1467.3c1.9 1.6 7.8 13.7 8.2 16.2 3.2 20.7-9.8 47.3-23.9 61.9-.9 1-1.3 1.9-3 1.5.5-8-.7-16.6 0-24.5.4-5.4 3.1-12.3 3.1-18s-6.1-23.4-2.8-26.2c.6-.6 2.5-.6 3.8-1.7 3.4-3 10-13.1 14.7-9.3Z" class="fill" data-original-prefix="fill"/><path id="fill-teeth8" class="fill"  fill="#fff" d="M1018 1613v16.5c0 .9-10.8 13.2-11.9 14.1-6.3 4.8-8-2.6-10.6-5.5-5.5-6-17.9-.4-24.4-5.6-1.2-.9-4.1-8.8-4.1-9.9v-22.5c12.9 1.7 28.3 17.5 41.4 15.9 3.5-.4 6.1-3 9.6-2.9Z" class="fill" data-original-prefix="fill"/><path id="fill-teeth7" class="fill"  fill="#fff" d="M1031 1613c6.3 1.3 9.1 4 16.1 2.6 10.6-2.2 24.3-14.8 33.4-15.6 2-.2 1.4 0 1.2 1.3-.8 6.5 2.4 27.5-4.4 31.6-7 4.2-18.8-.3-23.4 4.6-2.1 2.2-3.6 8-8.4 7.6-1 0-14.6-13.5-14.6-14.6V1613z" class="fill" data-original-prefix="fill"/><path id="fill-teeth6" class="fill"  fill="#fff" d="M1102.5 1494c3.3-.8 4.5 6.9 5.3 8.7 5.6 12.1 13 24.8 13.3 38.8.2 9-16 29.8-21.3 16.2-4-10.4-4.1-44.8-1.1-55.5.4-1.6 2.4-7.9 3.8-8.2" class="fill" data-original-prefix="fill"/><path id="fill-teeth5" class="fill"  fill="#fff" d="M937.3 1559.7c-1.9-1.6-7.8-10.5-8.5-13-3.6-12.1 6-31.3 11.4-42 1.6-3.1 3.3-14.7 8-7.4 5.5 8.5 4.3 41.5 2.7 52.1-1.2 7.7-3.6 18.7-13.6 10.3" class="fill" data-original-prefix="fill"/><path id="fill-teeth4" class="fill"  fill="#fff" d="M917 1563c-1.8 13.4 2.9 27.5 2 40.5-.6 9-4.4 18.4-5.5 27.5-6.2-6-10.5-16.1-11.4-24.6-.5-5.2.7-24.7 2.4-29.3.6-1.6 10.5-16.2 12.4-14.1Z" class="fill" data-original-prefix="fill"/><path id="fill-teeth3" class="fill"  fill="#fff" d="M1135 1631c-.4-8.9-4.4-17.8-5.1-26.5-1-13.8 3.7-27.6 2-41.5 2.2-2.4 11.9 13 12.5 15 2 6.6 2.6 27.4 1.2 34.3-1.3 6.3-5.5 14.9-10.8 18.7z" class="fill" data-original-prefix="fill"/><path id="fill-teeth2" class="fill"  fill="#fff" d="M1154.1 1604.9c-3.4-2-5.1-22.3-3.9-26.2.8-2.6 8.9-5.2 10.2-8.8l5.1-10.9c3.8 3.4 5.1 7.2 4.3 12.2-.7 4.2-5.4 22.7-6.9 26.2-.9 2.2-6.1 9-8.8 7.5" class="fill" data-original-prefix="fill"/><path id="fill-teeth1" class="fill"  fill="#fff" d="M885 1559c-.3 3.7 1.7 9.4 4 12.2s9.5 5.2 10 8.3c-2 8.4 1.6 19.2-5.7 25.4-3.6-1.1-6-4-7.4-7.4s-6.5-23.6-6.9-27.1c-.5-4.2 1.2-10.6 5.9-11.4z" class="fill" data-original-prefix="fill"/><path id="outline-shading-mouth2" class="outline"  fill="#000" d="M918 1443.5c.8 5.3 5.6 13.8 10.1 16.9 11.5 8.3 16.2-.3 22.4-9.4 2.5 5.4 3.4 11.5 6 17 1.4 2.8 5.7 12 7.5 5.5l4-11.5c1.6 7.5 6.3 15.4 11.5 21 4.3 4.7 18.8 15.4 24.6 9.6 2-2.1 8.3-17.9 10.8-22.2 1.2-2.2 7.8-13.8 9.7-13.3 1 .2 8.5 13.2 9.7 15.3 2.4 4.5 7.3 17.7 9.8 20.2 3.8 3.8 10.5.4 14.4-1.8 10.5-5.9 18.5-17.2 21.7-28.8l4.2 12.3c.3 1.2 1.9 2.4 2.8 1.7.6-.4 5.8-11.3 6.5-13 .8-2 2.8-12 4-12 6.8 10.7 12.9 18.4 24.5 7.5 8.6-8 9.3-23.8 7-34.5 3.5-3.1 21.1 16.1 26.6 16.9 9.1 1.4 17.6-11.8 19-19.9 3.5-20.5-12.9-39.2-30.9-46.2l-12.7-4.8c15.4 0 28.2 2.9 41.1 11.4 4.8 3.1 12.2 10.9 17.6 11.4 6.2.6 10.1-4.1 10-10-.4-19.3-25.8-38.1-39.7-48.8 15.4 2.4 34.6 11.8 45 23.5 7.8 8.8 19.1 25.1 19.1 37s-6.4 28.5-9.2 32.8c-3.3 5.3-11.7 5.4-13.4 10.6-.9 8.1-2.1 16.4-2.5 24.5-1.5 29 1.4 45.2-10.8 73.2-3.6 8.2-12.7 20.4-14.9 27.1-4.2 12.8-.7 26.4-9.1 38.9-3.2 4.8-8.4 6.7-11.2 10.8-1.7 2.5-2.4 6.1-4.2 8.8-4.5 6.7-14.6 23-21.6 8.9-1.6-3.3-1.3-12.9-6.7-6.2-1.4 1.7-1.9 4.4-3.5 6.5-3.7 4.7-17.7 19.6-23.5 19.5-2.2 0-4.5-4.1-6.6-5.4-7.9-5-21.1-6.3-29.2-1.4-7.3 4.4-9.5 13.6-18.1 6.8s-6.4-10.8-20.1-9c-5.6.7-11.4 12.6-16.9 12.1-2.8-.2-11.4-11.1-18.5-12.6-6.3-1.3-17.5.7-23 4.2-2.6 1.7-4.1 5.6-7.5 5.4-5.7-.3-19.8-15.8-23.6-20.5-1.2-1.5-4.4-10.6-7.1-6.9-2.5 3.4-.6 9.9-7.2 12.7-7 3-14.9-11.2-18.1-16.4-1.2-1.8-1.2-4.3-2.6-6.4-2-3-6.8-5.4-9.5-8.5-10.4-11.9-6.7-27.7-10.7-41.3-.8-2.6-5.6-8.5-7.3-11.7-18.4-35.7-16.4-45.6-18.4-84.6-.4-7.7-.6-20.7-2.2-27.8-1.5-6.2-11.1-6.1-14.2-11.8-3.4-6.1-9.3-29.6-8.6-36.4 1.2-10.3 16.2-31.2 24-38 10.5-9.2 26.2-16.5 40-18.5l-21.5 17c-7.2 6.4-26.8 32-14.8 39.9 9 5.9 16.7-4.5 23.7-9.1 12.7-8.4 25.3-11.8 40.7-11.8l-17.3 7.2c-18 9.4-33.1 32.7-22.1 52.8 1.7 3.1 8.6 10.4 12 11.1 9.1 1.7 20.7-15.4 29.5-18 .6 6.4-.9 14.3 0 20.5zm-37.1 40.6c-12.3-.5-17.1-20.2-22.8 1.5-3.4 13 1.2 26.4 9.4 36.5 1.5 1.8 12.7 13.1 13.9 12.9.8 0 2.5-2.3 2.8-3.2 2.9-7.1-3.2-12.2-4.2-19.2-1.5-9.8 0-18.7.9-28.4Zm301.8-8.9c-3.2.8-6.3 6-8.8 7.3-2.1 1.1-7.2 1-7.8 3.2-.5 1.7 3 10.8 2.9 14.8 0 3-1.5 13.9-2.2 16.8-.9 3.6-3.9 5.7-3.9 10.2s1.4 7.1 3.7 7.4c1.9.3 15-14.4 16.8-17 5.7-8.5 9-18.8 7.3-29.2-.5-3-4.4-14.5-8-13.6Zm-284.8 10c-4-2.3-6.5 9.9-6.8 12.5-1.2 10.5 3 38 8.7 47.1 1.9 3 5.4 6.9 9.2 7.3 3.7-15.6 12.6-29.2 21-42.5-2.3-.4-1.7-2.9-2.7-3.5-1.5-.9-7-1.9-9.7-3.1-4.7-2.2-12-7.7-15.6-11.4-1.2-1.2-3.8-6.2-4.2-6.3ZM1139 1552c8.3-2 11.9-12.2 13.9-19.6 3.1-12.1 6.1-33.4 1.1-44.8-3-6.9-5.8 1.7-8.3 4.1-3.9 3.8-11 9.3-16 11.6-2.5 1.1-7.8 1.8-9.1 2.7-.7.5-.5 1.8-1 2.7-.3.4-1.7.4-1.6.9 0 1 7.9 12.3 9.2 14.8 4.8 8.8 9.1 18 11.8 27.7Zm-197.7 5.7c8.1 8.1 9.5 0 10.5-7.3.8-5.6 2.7-20.6 1.7-25.4-3.6-17.2-21.3-15.9-21.6 3.6 0 6.8 4.6 24.3 9.4 29.2Zm161.5-44.5c-5 1.3-8.5 9.3-8.8 14.2-.2 4 2.4 28.5 3.8 31.3 2.5 5 7.5 0 9.8-2.7 6.8-8.3 11.6-30.7 4.5-39.5-2.7-3.3-4.8-4.4-9.2-3.3zM1023 1544c-.7-.7-.8-7-5.1-9.4-8.9-5-21.8-.8-32-4-10.4-3.3-9.4-13.1-16.1 1.8-2.9 6.4-9.1 24.4-6.3 30.7 1.1 2.4 17.8 15.6 21.2 17.8s18.2 11.7 21.1 10c3.1-5.6 9.3-9.5 12.6-14.9 1.8-2.8 4.1-11.5 4.6-11.9 1.6-1.7 1.7.5 2.1 1.4 1.6 3.6 2.1 6.8 4.5 10.5 3.3 5.2 9.2 9.3 12.4 14.6 3.1 1.9 15.5-5.9 18.9-8.1 4.5-2.9 22.9-17 23.9-21.1 2.2-9.7-6.6-28.3-10.9-37.2-4.9 1-7.8 5.2-12.7 6.7-9.2 2.8-28.2-1.6-33.7 6.3-.9 1.2-2.6 8.9-4.5 7zm-136 18c-.7-.6-3.5 0-4.5.9-6 6.2 2.4 31.6 14.6 27.6 4-1.3 3.8-9.4 2.8-12.9-1.1-3.9-7.2-4.1-9.8-7.2-2.1-2.5-2.7-8.2-3-8.5Zm274.1 0c-.3.3-.9 6-3 8.5-2.6 3.1-8.7 3.3-9.8 7.2-1 3.4-1.2 11.6 2.8 12.9 13.4 4.4 20.2-24.5 14.1-28.1-.9-.5-3.5-.9-4-.4Zm-216.4 7.2c-1.5.4-5.1 4.6-6 6.1-3.4 5.6-5.6 32.3-4.8 39.3 1.3 10.9 15.2 18 19.5 3.5 1.7-5.6 2.6-21.4 2.5-27.6 0-1.1-5.8-19.7-6.5-20.5-1.2-1.4-3.2-1.3-4.8-.8Zm153.3-.1c.2 6.6-5.4 14.7-6 20.6-.5 4.5 1 25.3 2.4 29.4 4.2 12.1 16.9 7.3 19.1-2.9 1.1-5.2 0-16.8-.6-22.6-1-9.7-1.7-25.5-14.9-24.5m-180 1.9c-20.5 3.8-17 28.7-9 43 4 2.9 10.4-17 10.7-19.8.9-7.5-2.9-15.5-1.8-23.2Zm218 43c2.5 1.8 7.2-9.1 7.7-10.8 3.9-12.8 1.6-30.1-13.7-32.2.5 7.4-2.8 16.2-1.9 23.4.3 2.7 6.4 18.5 7.9 19.6m-148.2 10.2c1.4.8 4.8 8.6 9.5 11 11.1 5.8 20.2-6.4 20.7-16.7.8-13.7-7.2-7.7-16.5-8.6-8.4-.8-15-4.8-21.8-9.2-5.5-3.5-13.6-14.6-14.7-1.4-.5 5.1 1.4 7.5 1.8 11.2s-2 5.9.5 10.7c4.8 9.3 18 1.3 20.7 2.8zm93.1-31.1c-2.1-1.5-19.7 12.7-23.9 14.4-2.3 1-7.9 2.3-10.5 2.5-10.5.9-18.8-5.4-16.4 11.4 1 7.3 7.9 15.8 16 15.1 9.4-.8 11.9-11.6 14.6-12.4 4-1.3 12.3 5.7 18.9-1.1 4.3-4.4 1.3-8.4 1.5-12.5 0-2.3 1.9-4.8 2-8.1 0-1.9-.8-8.5-2.2-9.4Z" class="shading" data-original-prefix="shading" opacity=".2"/><path id="outline-shading-mouth1" class="outline"  fill="#000" d="M1041 1343c6.1.5 12.7-1 17.5-5 1.5-1.3.9-3.7 2.8-2.9 10.1 7.9 37.9 17.4 43.8 28.2 3.6 6.5 4.6 17.5-1.8 22.6-5.6 4.5-20.8 10.8-28 15-4.9 2.8-9.7 6.6-14.7 9.3-7.4 4.1-25.5 14.5-32.6 16.4-2.9.8-5.2.8-8.1 0-14.5-3.8-42.2-22.5-56.3-30.7-6.2-3.6-21.2-9.1-23.2-15.8-5.5-18.4 15.7-28.3 28.7-35.4 2.3-1.2 15.5-8.6 16.5-8.7 2.9-.3 4.2 2.9 6.7 4.2 4.2 2.3 10 3.2 14.7 2.8-.3-5.1-3.3-11.3-1.8-16.3.5-1.6 12.5-13.9 14.5-14.4 3.9-1 8.2-.3 11.6 1.9 1 .7 10.8 11.1 11.2 11.8 2.1 5-1.2 11.8-1.5 17" class="shading" data-original-prefix="shading" opacity=".2"/><path id="outline-mouth3" class="outline"  fill="#000" d="M889 1333c-13.5 7.3-27.4 9.4-38 21.5-7.1 8.2-19.1 26.1-18 37 .3 3.5 7.3 25.1 9.2 27.8 2.7 4 6.1 4.9 10.8 4.7-1.4-9 4.2-18.1 9.6-24.9 2.1-2.6 22-22.5 24.4-20.1-1.7 6.5-8.8 10.4-13 15.5-8.1 10-12.3 23.6-9.5 36.5 1.2 5.7 11 25.8 15 30 .7.7 7.1 6.3 7.5 6.5 3 1.5 6.9-6.1 7.8-8.2 1.7-3.8 2.1-7.7 3.7-11.3 4.4-10.2 9.4-18.4 18.5-25-5.1 13.9-9.5 44.6 1.5 56.1 4.8 5 9.9 2.7 14.3 4.7 2.8 1.3 3 5.7 4.8 6.1 2.6.6 7.2-4.9 14.1-2.1 5.2 2.1 8.6 15.6 13.9 16.1 2.5.2 10.2-12 18.4-9.4 5.6 1.8 19.1 24.8 24.4 23.5 6.1-5.4 3.7-12.4 5-19 1-4.8 6.1-10.3 7.8-15.2 3.7-10.9 1-26.5-1.9-37.5-.3-1.1-6.2-13.2-6.9-14.1-3.8-5.5-20.6-13-23-3.1-.4 1.8.2 7.9-2 7-4.8-4.4-9.5-9.2-14.5-13.5-3.8-3.3-11.2-7.6-14-11-3.5-4.3-14.5-27.1-14.7-32.2 0-3.1 8.4-13.8 10.8-16.8 1.4-1.7 10.5-12.5 11.2-12.8 6.4-3.2 28-2.3 34.7.8 8.4 3.8 12.4 12.1 18.5 17.5 5.2 4.5 2.5-1.7 2.5-3.6s.9-3.2.8-4.8c-.2-5.4-6.7-9.2-9.9-13.1-2-2.4-5.5-6.3-7-8.3-1.2-1.7-5.1-7.9-4.8-9.5.4-2.6 11.3-13.4 12.9-11.7-4.4 12.8-.7 8.7 7.3 12.2 1.2.5 3 2.7 3.2 2.7s2-2.2 3.2-2.7c3.4-1.5 9.7-.4 9.3-5.6 0-1.1-4.1-7.6-.5-6.6 2.8.8 12.1 10 11.3 13.2-6.2 9.4-13.5 17.8-21.1 26l-.8 12.7c1.7.4 2-.7 3-1.5 9.5-7.3 13.4-18 27.5-19.5 5.1-.6 23.6-.6 27.2 2.3 3.2 6.4 21.2 22.7 21 29 0 3.4-6.3 16.9-8.2 20.7-6.8 13.3-9.3 12.6-19.5 21.5-5.3 4.6-10.4 9.6-15.5 14.5-2.2.9-1.4-5.6-2.2-7.7-3.4-8.6-19-1.6-22.7 3.8-.6.9-6.2 11.4-6.6 12.4-1.3 3.6-.5 6.5-1.2 9.8-2.6 12.3-5.2 19.6.2 32.2 1.5 3.5 4.6 6.8 5.8 10.2 2.4 7.1-.8 16.6 6.6 21.1 8.3-2.8 16.9-21.3 23.6-23.5 7.7-2.4 15.9 9.6 18.4 9.4 5.6-.5 9.4-18.8 18.7-17.4 2.2.3 8.4 3.7 9.4 3.5 1.7-.4 2-4.9 4.8-6.2 3.9-1.8 8.9 0 13.3-3.7 11.5-9.9 8.1-43 2.5-56 1.6-1.6 11.3 10.4 12.4 12.1 4.9 7.6 6.1 15.6 9.7 23.3 1 2.1 4.8 9.8 7.8 8.2.4-.2 6.9-5.8 7.6-6.5 7.1-7.7 15.9-30.1 15.4-40.5-1-22.4-10.8-22.9-21.5-37.5-5.3-7.2 2.8-2.4 6 0 11.8 8.6 28 25.5 26.5 41 11.4 1.6 13.7-11.7 16.3-20.2 4.6-15.6 5.3-18.8-3.1-33.4-7.4-13-16.3-22.7-29.9-29.1-6-2.8-14.1-4.1-19.2-8.3 9.3.7 19.7 2.8 29.2 5.3 7.4 1.9 14.4 3.9 20.7 8.3 3.2 9.3 27.6 34.6 28 42 .2 3.9-8.4 23-10.2 28.7-2.4 7.4-1.3 15.8-9 20-2.1 1.1-8.8 2.4-9.5 3-3.6 3.6-1.9 26-2.2 32.3-1.2 29.7-2.2 52.7-20.5 77.5-.9 1.2-2.6 1.5-3.6 2.7-4.3 5.6-2.8 18.6-4.3 26.5-1.1 6-5 13.1-5.6 18.4-.4 3.6 1.4 7.3.2 10.1-1 2.4-9.9 8-12.6 9.5-2.2 1.2-5.7 1.5-6.5 2-.6.4-5.4 10.9-7.2 13.3-2.1 2.7-11.1 11.3-14 12.1-4.1 1.2-7.9-10.3-9.9-13s-2.3 2.3-3.6 4.3c-4.3 6.7-25.1 26.6-32.4 28.6-1.7.5-3.3.7-5 .5-.2-6.5 3.6-11.9-3-16.5-7.6-5.2-17.7 0-21.5 7.4-4.2 8.3-1.8 29.9-14.4 16.5-7.1-7.5-13-17.8-18.5-26.4-2.8 5-19.9 30.6-24 31-5.8.6-5.9-11.5-7.2-15.8-2.5-8.5-10.5-17.7-20-14.4-12.1 4.1-4.7 16.7-6.3 18.2-6 1.1-9.7-4.5-15-5-1.3 6.3-5.2 11.9-5.1 18.5.2 11.2 13.9 23.7 10.9 33.8-.8 2.7-3.4 3.2-5.5 1.4-3.7-3.3-7.9-17.8-10.4-23.1-3.8-8-11.3-14.9-9.4-23.7 1-4.7 7.9-13.9 7.6-17.4-.5-5.3-12.8-12.5-12-18.6-1.2-.2-1.3-.3-2.1.6-2.1 2.7-6.2 14.3-10.2 13.3s-12-10.2-13.7-12.4c-2.1-2.7-6.6-12.8-7.2-13.2-.7-.5-4.2-.8-6.5-2-2.5-1.3-12.6-7.8-13.2-9.9s1.2-6.2.8-9.7c-.6-5.1-4.5-11.5-5.6-17.4-1.7-8.4.3-19.9-3.9-26.1-5.9-8.8-10.5-12.8-15.3-23.7-13.6-31.3-7.5-52.3-10.1-83.9-.8-9.9-3.8-5.3-10.8-9.3-8.2-4.6-6.8-13.1-9.3-20.7-1.9-5.9-9.7-21.8-10-26.1-.2-3.3 1.1-4.7 2.5-7.3 6.8-12.4 18.9-24.3 26.1-36.9 5.9-4.3 13.2-6 20.1-7.9 9.7-2.6 19.8-4.7 29.2-5.3Zm15 128c-1.4-1.5-7.8 8.9-8.4 10.1-10.6 19.9-8.6 50.8-1.8 71.7 1.1 3.3 9.4 22.1 12.8 21.2 4.4-1.1 10.8-28.9 12.8-34.3 4.3-11.7 13.6-22.1 8.6-35.6-4.8-.6-12.2 1.2-15.9-2.9-1.4-1.5-8.5-21.7-8.8-24s.8-4 .8-6.2Zm240 103c.6-.4 6.8-10.5 7.5-12 6.2-12 8.8-32.9 9.5-46.5.8-15.3-4.1-32.2-14.6-43.5l-2.2 9.8c-4.9 13.6-4.6 25.2-23.1 22.4-5.2 13.7 4.3 23.9 8.6 35.6 3.1 8.4 6 27.5 11.8 33.2.7.7 1.4 1.8 2.4 1.1Zm-262.3-85.7c-1-.9-4.6-2-6.6-3.9-4.2-3.9-7.8-13.1-14-4.7-13.3 17.9-4.1 44.9 7 61.7 1.6 2.4 11.5 15.7 13.3 15.7.5-8 1.2-16.5.5-24.5-.4-5.4-3.1-12.3-3.1-18s6-23.3 2.8-26.2ZM1167 1547c1.7.4 2-.5 3-1.5 17.5-18 32.6-50.9 18.4-74.4-6.5-10.8-10.8-.4-16.9 4.9-2 1.7-5 1.6-5.5 4.5-.8 4.5 4 18.3 4 24s-3.3 14.8-3.6 21.2 1.6 14.6.6 21.3m-219.1-51.9c-4.7-3.3-6.5 7.1-7.7 9.6-5.3 11-11.8 23-12.2 35.8-.2 7.6 10.5 26.2 19.1 21 3-1.8 4.7-18 5-22 .4-6.4.2-41.4-4.1-44.4Zm67.8 32.2c-3.2-2.8-9.7 3.2-15.8 1.3-2.1-.7-8.7-7.5-10.5-9.5-2.6-2.9-3.4-8.8-8.2-7.4-12.2 3.5-20.5 24.1-21.2 35.9-.9 13.6 2.4 21.7 11.5 31.5 9.8 10.4 24 15.7 36.1 23h2.3c2.1-6.4 6.2-12 8.1-18.4 3.7-12.2 7.9-47.3-2.3-56.2zm23.4 74.6c1.1.7 3.4 0 4.6-.7 5.6-2.4 20.1-11.1 25.2-14.8 13.4-9.8 21.4-21.7 20.1-38.9-.9-11.9-9.2-33-22-36.1-4.4-1.1-5.5 5-8 8-1.7 1.9-7.3 7.9-9.2 8.8-9.2 4-14.3-9-20 5-5.4 13.2-2.6 37.5 1.5 51.1.7 2.2 7.1 17.1 7.9 17.6ZM885 1559c-3.2-3.3-6.4 8.4-5.8 12.3.7 4.5 5.4 23.4 7 27 1 2.2 6.2 8.5 8.7 6.7 3.4-2.4 3.2-20.7 4-25.4-.5-3.1-8.3-6.1-11-10-2.3-3.5-2.6-10.1-3-10.5Zm32 4c-1.9-2.2-11.8 12.5-12.4 14.1-1.7 4.6-3 25.2-2.4 30.3.9 7.9 5.6 18 11.4 23.6 1.4-8.8 5-18.6 5.5-27.5.8-13.1-3.7-27.1-2-40.5Zm218 68c7.1-5.4 12.1-18.8 11.8-27.5 0-2.6-1.7-5.2-1.8-8-.3-5.4.8-12.5-.5-17.5-.6-2.3-10.4-17.3-12.5-15 1.5 13.8-3.1 28-2 41.5.7 8.7 4.6 17.6 5.1 26.5Zm-35-62c-2.8 14.2-8.1 27.9-9 42.5-.3 5.3-1.4 33.3 3.6 34.4 2.4.6 18.8-13.3 20.9-15.9 8.3-10.5 3.8-32.3-1-44-1.2-2.9-11-19.9-14.5-17m-82 44c-3.5 0-6.1 2.5-9.6 2.9-12.7 1.6-29.1-13.9-41.4-16.9v24.5c0 .6 3.2 8.2 4.1 8.9 6.5 5.2 18.9-.4 24.4 5.6 2.6 2.9 4.3 10.3 10.6 5.5 1.1-.8 11.9-13.1 11.9-14.1v-16.5Zm64-13c-13.2 1.2-27.8 17.6-41.4 15.9-3.5-.4-6.1-3-9.6-2.9v17.5c0 1.1 13 14.6 15.4 14.5 4.9-.3 5.1-4.7 7.1-7 5.5-6 18.3-.4 24.4-5.6 1-.9 4-9.7 4-11v-21.5Z" class="outline" data-original-prefix="outline"/><path id="outline-mouth2" class="outline"  fill="#000" d="M1122 1332c-.2 0 .2 1.6 0 1.9-1 .8-8.1-5.8-10.2-7.1-10-6.1-19.8-8.3-31.2-9.8-2.9-.4-6.9.7-9.5-.5-1.5-.8-4.5-7.4-6.5-9.5-7.8-8.7-15.6-10.2-25.8-13-1.1-.3-.6-1.9-.7-2 3.1-3.8 16.2-9.3 20.8-9.8 7.9-.9 5.5 4.4 6.5 9.1 2.3 10.7 9.3 19.6 21.3 18.8 5.1-.3 5.6-4 7.9-4.1 1.4 0 6.6 2.9 8.2 3.8 9.4 5.2 15 12.5 19.3 22.2z" class="outline" data-original-prefix="outline"/><path id="outline-mouth1" class="outline"  fill="#000" d="M1011 1292s.4 1.7-.7 2c-10.2 2.8-17.4 4.1-25.4 12.5-2 2.1-5.6 9.2-7.2 9.9-3.4 1.4-13.5 1-18.1 1.8-12.5 2.1-23.6 8.7-33.1 16.9.2-.9-.5-2.8-.5-3 .7-2.3 8.9-13.5 11-15.5 2.4-2.4 14.7-10.5 17.6-10.4s3 5.1 11.9 3.9c10-1.3 16.2-10.1 17.5-19.6.4-2.6-2.4-6.7 2.8-8.2 3.5-1 21.7 5.6 24.3 9.8Z" class="outline" data-original-prefix="outline"/></g><g id="04_Eyes" data-trait="OG-bandaid-glare"><path id="fill-skull" class="fill"  fill="#fff" d="M696 1136c-.3-2.4 0-2.8-2-4.5-3.8-3.1-19.7-8.2-21.1-10-.9-1.1 0-9.9.2-12 1.5-9.1 10.6-28 15-37 7.5-15.3 16.9-29.8 25.4-44.6 2.9-2.6 22.1-1.3 27-1 6 .4 15 1.2 20.9 2.1 3.1.5 18.9 5.6 19.6 4.9s-.2-2.5-1-3.4c-1.5-1.7-7.4-5.7-9.6-7.4-8.9-6.4-18.8-11.3-28.3-16.7-2.1-2.2 1.8-10 3.2-12.9 18.8-41 87.4-78.6 126.5-98.5 24-12.2 48.7-26 74.6-32.4 60.6-14.9 133.1-14.5 190.1 12.4 45.2 21.3 98.3 47.1 135.2 80.8 14.7 13.4 32 30.7 35.3 50.9-12.1 6.7-28 14-37.9 23.6-1.1 1.1-2.3 1.7-2 3.5 7.2-1.2 14.2-3.9 21.5-5 9-1.4 25.1-3.1 34-3.1s10.1.7 11.8 1.1c2.6.6 24.2 41 26.9 46.3 5.6 11.3 17.1 35.2 14.8 47.2-.6 3.1-5.1 3.1-7.7 4.3-3.1 1.4-11.1 4.9-13.3 6.7-1.7 1.4-1.8 3.3-2 3.5-3.4 2.5-8.7 4.1-12 7l-19.9 2.9c-6.4-28.3-15.3-59.3-32.3-83.2-3.2-4.5-11.1-14.8-15.3-17.7-9.4-6.6-26.9-7.8-35.5-13.5-6.2-4.1-19.1-22.3-26-29-19.1-18.4-34.9-29.3-62.4-18.3-13.1 5.2-37.8 24.8-39.6 39.5-.7 6.1 3.7 18.8 5.7 25.2 5.1 16.5 12.8 32.3 18.3 48.6-.7 3.3-34.2 15.6-39.1 23.2-4.4 6.8-9.2 18.8-12.5 26.5-5.1 12-9.6 24.6-13.5 37 3.8-2.9 7-6.8 10-10.5 9.2-11.4 16.7-25.8 25.5-36.5 6.3-7.6 25.6-22.8 34.1-28.9s10.2-5 16.9 3c15.1 18.1 36.9 56.7 46.4 78.6 1.3 3 4.9 10 4 12.7-13.4 9.6-26 22.4-39.6 31.5-14.1 9.4-30 14.5-46.9 16.1-21.3 2-41.9-10.2-62.4-13.9 11.3 10.2 27.4 18.1 20.9 36.4-.5 1.5-.8 3.1-2.9 2.6-2.9-4.8-22.3-15.4-24-19-3.5-7.5-4.8-8.6-9.2-15.3-6.5-9.9-11.7-21.7-10.3-33.7-6 2.7-8.5 1.9-14.5 0 2.4 9.8-3.1 22.9-8.2 31.3-3.3 5.6-9.6 10.4-10.8 16.7l-25 19c-.2-.3-2.3.8-2.9-3.6-2.5-19.3 7.7-22 20-32.8 1-.8 2.5 0 1.9-2.6-19.9 5.8-42.2 16.9-63.4 14.9-44-4.3-65.6-34.1-99.3-57.7-32.9-23-68.4-36.7-107.1-46.9-4.7-1.2-11.5-1.2-15.2-2.3-2.8-.8-7.3-5.8-11-6Zm284 47c1.8-2-16.4-44.5-18.8-49.7-3.2-6.7-6.3-13.3-11.2-18.8-19.9-10.8-40.9-20.3-60.6-31.4-14-7.9-26.5-19-42.3-23.2-1.4 1.4 6.9 7.5 8.1 8.4 26.9 20.6 64.8 41.2 87.9 66.1 11.7 12.6 20.2 32.4 33.8 46.2 1 1 1 2.8 3.2 2.3h-.1Zm13.5 50v1c.7-.3.7-.7 0-1" class="fill" data-original-prefix="fill"/><path id="fill-bandaid2" class="fill"  fill="#fff" d="M1227.3 1043.7c4.2 4.2 19 3.9 25.9 5.6 10.1 2.5 15 5.5 21.8 13.2 13.3 15.2 24.8 38.7 29.7 58.3 1.5 6.1 4.9 20 4.3 25.7-.7 7.3-7.5 10.7-13 14-15.9 9.4-48.1 24.5-65.5 30.5-3.6 1.3-10.7 4.9-13.4 1.4-14.5-27-27.9-54.6-44.9-80.1-2.5-3.7-12.1-14.8-12.3-17.8 0-1.3.5-3.2 1.4-4.2l52.2-34.3 1.5-4c-2.1-2.1-31.4 12.5-35.7 14.8-8.1 4.4-21.1 14.6-28.6 17.4-5.7 2.1-7.7-4.4-10.5-8.9-6.3-10.2-16.9-34-16.2-45.8s17.8-26.6 27.4-31.7c29.9-16 43.9 5.7 61.6 26.7 4.5 5.3 10 14.8 14.4 19.1h-.1Zm-53.6-35.5c-4 1.2-3.8 8.2.8 8.9 7.9 1.1 7.1-11.2-.8-8.9m-34.5 19c-3.9 3.9 1.1 12.3 7.3 7.8s-2.8-12.4-7.3-7.8m32.5 4c-3.9 1.2-3.9 8 .8 8.8 9.5 1.6 6.8-11.1-.8-8.8m31.1 13.6c3.8-3.8-2.4-11.5-7.3-7.8-6.2 4.6 2.4 12.7 7.3 7.8m-39.6 19c3.1 3.1 9.2 1.4 8.8-4.2-.6-9.8-14.9-1.8-8.8 4.2m61.1 110.9c6.8 5.5 33.6-5 41.4-8.5 8.6-3.9 29.9-14.7 31.9-24.1 3.1-14.6-13-47.2-21.3-59.8-4.1-6.2-13.8-21-21.6-20.2-13.5 1.4-59 26.9-67.1 37.9-3.3 4.4-3.2 6-1 11.1 4.5 10.4 14.6 26 20.7 36.2 3.1 5.1 13.8 24.8 17.1 27.4Z" class="fill" data-original-prefix="fill"/><path id="fill-bandaid1" class="fill"  fill="#fff" d="M1252.8 1072.2c1.2 0 2.2-.4 3.5 0 3.3.9 18.5 24.7 20.9 29.2 4.2 7.8 13.2 27.6 11.8 36.1-1.5 9.1-26.3 20.4-34.4 23.6-4.2 1.7-21.7 7.9-24.8 6.8-1.9-.6-14.8-22.6-16.8-26.2-2.7-4.7-18.1-33.2-17.7-35.9.2-1.3 1.4-2.8 2.3-3.8 7.2-8.1 44.8-28.6 55.3-29.7h-.1Z" class="fill" data-original-prefix="fill"/><path id="outline-shading-eyes" class="outline"  fill="#000" d="m929 867-29.9 17.6c-30.3 20-71.8 72.2-84.9 106.1-7.7 19.8 15.6 44.8 28.9 57.8 38.7 19.6 77.6 39.1 113.5 63.5 14.3 19.1 24.9 49.3 40 66.9 6.5 7.6 13.5 4.7 18 8 1.1.8 4.3 7.4 5 9 1.1 3-.8 7.2 4.1 7.8 4.3.5 3.4-4.4 4.9-7.7.8-1.9 3.6-8.2 4.9-9.1 2.2-1.6 10.3-2.3 13.8-4.2 10.7-5.8 33.6-58 43.2-69.8 15-11.9 32.4-20.3 48.5-30.5-7.7-10.2-13.6-22.5-17.2-34.7-.9-2.9-3.4-11.1-3.5-13.5 0-3.7 9.2-13.4 11.2-17.3 3.1 20.7 8.2 42.3 22 58.8l54-27.8c15.3-16.7 36.6-36 26.7-60.7-12.6-31.4-53-81.9-80.9-101.1l-32.3-19.2h22.5c4.4 0 41.6 19.2 48.2 22.8 47 25.9 92 62.9 123.7 106.3 2.8 3.8 12.4 14.4 8.3 18.7-3.2 3.3-25.6 8.5-31.7 10.8-36.2 13.6-77.5 29.7-110.7 49.3-2.6 1.5-18.5 11.3-19.1 12.4-3.5 6.1 7.2 13.2 10.8 17.3 10.8 12.8 19.2 28.1 27.2 42.8 1.4 2.5 7.2 16 7.9 16.6.8.6 5.6-.6 5.8-.9.4-.6-.2-2.2-.4-3-1.6-6.5-10.4-24.4-13.7-31.3-.9-1.9-8.6-14-7.8-14.6l8.8.2c7.3 13.8 15.4 28 26.8 38.8 29.8-25.1 64.3-43.3 97.9-62.9l32.4.5c4 2.4 10.3 24.6 15.6 29.4 1 1 5.9 2.1 4.4 4-.3.4-7.4 2.6-9 3.5-8.2 4.3-25.9 12.5-32.3 17.7-2.7 2.2-.5 5-3.2 6.8L1093.3 1287c-14.5-10.8-30.2-21-43.8-32.8-7.8-6.8-14.2-15.6-22.1-21.9-2.7 1.3-6.1-.6-8.4.4-1.5.7-16 17.3-19.6 20.5-8.4 7.5-27.4 23-36.6 28.4-2.1 1.2-4.3 3.2-6.9 2.2l-240-133.1c-1.4-1.6-.5-3.7-2.6-5.4-6.6-5.3-25.2-13.8-33.7-18.3-1.4-.7-7.4-2.5-7.7-2.8-1.4-1.9 3.7-3.1 4.9-4.6 3.6-4.4 11.6-27.2 15.1-28.9h33c21.4 12.9 44.7 24.7 65.5 38.5 18.6 12.3 35.7 27.9 54.2 40.8 28.2 19.8 67.5 44.8 99 58 17.4 7.3 25.6 4.6 43.5.8 6.2-1.3 19.7-6.3 24.5-6.4 2.5 0 7.8 3.9 12.8 3.8 4.6 0 9.2-3.9 11-4 2.1 0 11.4 3.5 14.7 4.3 10 2.3 27.5 6.9 37.3 6.7 11.2-.2 38.4-15.9 49.2-21.9 20.6-11.3 40.6-23.9 59.9-37.2l-49.9-76.9c-9.6 7.8-19.8 14.8-29.1 22.9-16.3 14.2-29.5 34.3-41.8 52.2-4.9 7.2-6.3 13.4-13.3 19.7-2.1 1.9-22 16.2-23.4 16.6-1.9.6-28.2.6-30.1 0-1.3-.4-19.7-13.4-21.9-15.1-8.5-7-9.6-13.4-15.3-21.7-18.6-27.2-30.8-43.5-56.9-64.1-49.5-39-98.9-60.6-157.6-82.4-5.5-2-29-7.4-31.3-10.6-1.7-2.4-1-4.6.2-7 4.8-9.4 21.7-29.2 29.3-37.7 33.5-37 80.1-70.5 125.2-91.8 3.3-1.6 24.3-11.1 25.9-11.1H929Z" class="shading" data-original-prefix="shading" opacity=".2"/><path id="outline-eyes12" class="outline"  fill="#000" d="M1075 1274c2.1.5 2.3-1.1 2.9-2.6 6.6-18.3-9.6-26.2-20.9-36.4 20.4 3.6 41.1 15.9 62.4 13.9 16.9-1.6 32.9-6.7 46.9-16.1 13.6-9.1 26.2-21.9 39.6-31.5.9-2.7-2.7-9.7-4-12.7-9.5-21.9-31.3-60.5-46.4-78.6-6.7-8-8.7-9-16.9-3s-27.8 21.3-34.1 28.9c-8.8 10.7-16.3 25.1-25.5 36.5-3 3.7-6.1 7.6-10 10.5 3.9-12.4 8.4-25 13.5-37 3.3-7.7 8.1-19.8 12.5-26.5 4.9-7.6 38.4-19.9 39.1-23.2-5.5-16.2-13.2-32-18.3-48.6-2-6.4-6.4-19.1-5.7-25.2 1.8-14.7 26.5-34.2 39.6-39.5 27.5-11 43.2 0 62.4 18.3 6.9 6.7 19.9 24.9 26 29 8.6 5.7 26 7 35.5 13.5 4.2 2.9 12.1 13.2 15.3 17.7 16.9 23.9 25.9 54.9 32.3 83.2l19.9-2.9c2.8 5.2 2.2 12.1 3.3 18.2.8 4.3 4.4 14.4 4.5 17.5 0 1.8-10.3 15.7-8.8 17.3 2.2 2.4 7.6-14.3 12-10.5 0 2 .2 4 0 6-.9 8.1-7.9 29.6-10.7 38.3-3.2 9.6-6.2 16.4-12.8 24.2-3 3.5-24.9 26.6-27.1 27.9-11.1 6.1-35 7-48.8 11.2-4.6 1.4-8.8 4-13.6 4.9-.2 1.8 2.2.9 3.2.7 4.8-.8 8.7-3.8 13.5-4.5 3.7-.6 9.9-1.1 13.8-1.2 3.2-.2 8-.4 11 0 5.7.7-3.1 3.3-4.2 3.8-9.5 4.7-20.6 11.1-30.3 14.7-19.3 7-76.2 9.8-96.2 5.3-7.3-1.7-22.2-17.8-29.8-23.2-2.9-2-11.6-7.8-14.4-8.6-4.2-1.2 1.3 9.2.5 10-14.9 1.2-22.3-6.1-30.5-17.1-.7-1-.3-2.6-.5-2.9zm152.3-230.3c-4.4-4.3-9.9-13.8-14.4-19.1-17.8-21-31.7-42.7-61.6-26.7-9.6 5.1-26.8 20.2-27.4 31.7s9.9 35.6 16.2 45.8c2.8 4.5 4.8 11.1 10.5 8.9 7.6-2.8 20.5-13 28.6-17.4 4.2-2.3 33.6-16.9 35.7-14.8l-1.5 4-52.2 34.3c-.8 1-1.4 2.9-1.4 4.2.2 2.9 9.8 14.1 12.3 17.8 17 25.5 30.4 53.1 44.9 80.1 2.7 3.5 9.8 0 13.4-1.4 17.4-6 49.6-21.1 65.5-30.5 5.6-3.3 12.3-6.7 13-14 .6-5.7-2.8-19.7-4.3-25.7-5-19.6-16.4-43.1-29.7-58.3-6.8-7.7-11.7-10.7-21.8-13.2-6.9-1.7-21.6-1.5-25.9-5.6h.1Z" class="outline" data-original-prefix="outline"/><path id="outline-eyes11" class="outline"  fill="#000" d="M696 1136c.4 3.7-.6 12.1-1.9 15.6-.4 1.2.6 1.6-1.5 1.4-7.9-1.7-16.8-6.9-24.1-8.9-12.6-3.4-24.6 3.3-23.5-15.6 1.7-29.3 21.8-78.4 37.6-103.4 4.3-6.9 19.5-29.6 26.4-31.7 3.1-.9 7.2 1.5 8.9.5.4-.3 3.7-6.5 5.2-8.3 54.7-66.9 129.4-124 216-141 63.4-12.5 145.8-10.7 207.5 9.5 61.9 20.2 144.3 82.1 181.3 135.7 1.3 1.9 2 5.1 2.2 5.3.4.4 7.2-2.1 9.3-1.8 1.3.2 8.1 5.5 9.2 6.8 24.3 25.9 52.8 92.5 55.3 127.7.4 5.4.4 11-4.6 14.2-15.5.2-29.3 6.3-43.8 11.2-1.1 0-3.2-16.1-2.5-18 .2 0 .3-2.1 2-3.5 2.2-1.8 10.2-5.3 13.3-6.7 2.6-1.2 7.1-1.2 7.7-4.3 2.3-12-9.3-35.8-14.8-47.2-2.6-5.4-24.3-45.8-26.9-46.3-1.8-.4-9.7-1.1-11.8-1.1-8.9 0-25 1.7-34 3.1-7.3 1.1-14.3 3.8-21.5 5-.4-1.8.9-2.5 2-3.5 9.9-9.6 25.8-16.9 37.9-23.6-3.3-20.2-20.7-37.5-35.3-50.9-36.9-33.7-90-59.5-135.2-80.8-57-26.9-129.6-27.3-190.1-12.4-25.9 6.4-50.6 20.2-74.6 32.4-39.1 19.9-107.7 57.5-126.5 98.5-1.3 2.9-5.3 10.6-3.2 12.9 9.5 5.4 19.4 10.3 28.3 16.7 2.3 1.6 8.2 5.6 9.6 7.4.8.9 1.8 2.7 1 3.4s-16.5-4.4-19.6-4.9c-5.9-.9-14.8-1.7-20.9-2.1-4.9-.3-24.1-1.6-27 1-8.5 14.8-17.8 29.3-25.4 44.6-4.4 9-13.5 27.8-15 37-.3 2.1-1.1 10.9-.2 12 1.4 1.7 17.2 6.9 21.1 10 2.1 1.7 1.8 2.1 2 4.5v-.4z" class="outline" data-original-prefix="outline"/><path id="outline-eyes10" class="outline"  fill="#000" d="M707 1142c3.7 1.1 10.5 1.1 15.2 2.3 38.7 10.2 74.2 23.9 107.1 46.9 33.7 23.6 55.2 53.4 99.3 57.7 21.2 2.1 43.4-9.1 63.4-14.9.7 2.6-.9 1.8-1.9 2.6-12.3 10.8-22.5 13.5-20 32.8.6 4.4 2.7 3.3 2.9 3.6.4.5.9 3.1.5 4-.5 1.1-13.2 13.7-14.6 14.5-1.8 1-15.2 3.3-15.9 2.6-.2-2.8 1.7-4.6 2-7.5.2-1.5.6-2.8-1.4-2.4-4.5.9-14.5 8.5-18.5 11.5-5.8 4.3-16 15.7-20.7 18.3-10.6 5.9-66.5 3-80.8 1-20-2.8-35.2-11.2-52.9-20.1-.8-.4-7.6-2.1-2.2-2.8 2.3-.3 5.6 0 8 0 4.6.2 11.4.6 15.8 1.2 4.8.7 9.5 3.7 14.5 4.5 1.1.2 3.5 1.1 3.2-.7-20-9.2-42.5-9.1-62.9-16.6-9.1-11.9-23-21.4-31.3-33.7-5.7-8.5-17.6-45.9-18.8-56.2-.2-2 0-4 0-6 .7-5.3 9.8 9.8 10.4 10.6.4.5 1.1 3.7 2.6 1.9 1.7-2-9.5-16.9-9.8-18.7-.2-1 3.9-15 4.4-18.2 1.1-6.1 1.3-12.2 2.3-18.2z" class="outline" data-original-prefix="outline"/><path id="outline-eyes9" class="outline"  fill="#000" d="M998 1254c1.2-6.3 7.5-11.1 10.8-16.7 5.1-8.5 10.6-21.5 8.2-31.3 6 1.8 8.5 2.6 14.5 0-1.4 12 3.8 23.9 10.3 33.7 4.4 6.7 5.8 7.8 9.2 15.3-3.3 0-4 4.3-7 4-.9-5.7-7.9-7.8-12-12.5-1.2-1.4-2.9-3.6-3.9-5.1-.9-1.3-.8-4.1-1.7-4.4-5.5-1.6-6 5.6-9.4 9.5-3.8 4.4-11.3 6.9-12 12.5-1.4 1.3-5.2-4.4-7-5" class="outline" data-original-prefix="outline"/><path id="outline-eyes8" class="outline"  fill="#000" d="M980 1183c-2.2.5-2.2-1.3-3.2-2.3-13.6-13.8-22.1-33.7-33.8-46.2-23.1-24.8-61-45.4-87.9-66.1-1.2-.9-9.5-7-8.1-8.4 15.8 4.1 28.3 15.3 42.3 23.2 19.7 11.1 40.7 20.6 60.6 31.4 4.9 5.5 8.1 12.1 11.2 18.8 2.5 5.2 20.6 47.7 18.8 49.7h.1Z" class="outline" data-original-prefix="outline"/><path id="outline-eyes7" class="outline"  fill="#000" d="M993.5 1233c.7.3.7.7 0 1z" class="outline" data-original-prefix="outline"/><path id="outline-eyes6" class="outline"  fill="#000" d="M1224.3 1174.7c-3.3-2.6-14-22.3-17.1-27.4-6.1-10.3-16.2-25.9-20.7-36.2-2.2-5-2.3-6.6 1-11.1 8.2-11 53.7-36.6 67.1-37.9 7.8-.8 17.5 14 21.6 20.2 8.3 12.6 24.4 45.2 21.3 59.8-2 9.4-23.2 20.2-31.9 24.1-7.8 3.5-34.6 14-41.4 8.5Zm28.5-102.5c-10.6 1.2-48.1 21.7-55.3 29.7-.9 1-2.1 2.5-2.3 3.8-.4 2.8 15 31.2 17.7 35.9 2.1 3.6 15 25.5 16.8 26.2 3.2 1.1 20.6-5.2 24.8-6.8 8.2-3.2 32.9-14.5 34.4-23.6 1.4-8.5-7.6-28.3-11.8-36.1-2.4-4.5-17.6-28.2-20.9-29.2-1.3-.4-2.2 0-3.5 0h.1Z" class="outline" data-original-prefix="outline"/><path id="outline-eyes5" class="outline"  fill="#000" d="M1139.2 1027.2c4.5-4.5 13.7 3.2 7.3 7.8s-11.2-3.9-7.3-7.8" class="outline" data-original-prefix="outline"/><path id="outline-eyes4" class="outline"  fill="#000" d="M1202.8 1044.8c-4.9 4.9-13.5-3.2-7.3-7.8 4.9-3.6 11.2 4.1 7.3 7.8" class="outline" data-original-prefix="outline"/><path id="outline-eyes3" class="outline"  fill="#000" d="M1163.2 1063.8c-6.1-6.1 8.3-14.1 8.8-4.2.3 5.7-5.8 7.3-8.8 4.2" class="outline" data-original-prefix="outline"/><path id="outline-eyes2" class="outline"  fill="#000" d="M1171.7 1031.2c7.6-2.3 10.4 10.4.8 8.8-4.7-.8-4.8-7.7-.8-8.8" class="outline" data-original-prefix="outline"/><path id="outline-eyes1" class="outline"  fill="#000" d="M1173.7 1008.2c7.9-2.3 8.8 10 .8 8.9-4.6-.7-4.9-7.7-.8-8.9" class="outline" data-original-prefix="outline"/><path id="fill-pupil-rt" class="fill"  fill="#fff" d="M1163.8 1250.1c.2 0 .8 2.1 1.6 2.9 8.5 8.8 16.3 15.8 29.2 11.2 9.7-3.5 18.3-14 18.2-24.6 0-3.7-4.3-17.1-3.4-18.6.5-.8 5.9-4.1 6.9-3.9 1.7.3 5.4 7 6.1 8.9 10.5 25.7-9.3 56.5-37.7 53.7-13.3-1.3-29.2-10-33.7-23 .5-2.1 11.2-7.5 12.8-6.6" class="fill" data-original-prefix="fill"/><path id="fill-pupil-lft" class="fill"  fill="#fff" d="M884.2 1250.1c1.6-.9 12.2 4.5 12.8 6.6-4.5 13-20.4 21.7-33.7 23-28.4 2.8-48.2-28-37.7-53.7.7-1.8 4.5-8.7 6.1-8.9.4 0 6.7 3.5 6.9 3.9.9 1.4-3.4 15-3.5 18.6 0 10.6 8.5 21.1 18.2 24.6 13 4.6 20.8-2.4 29.2-11.2.8-.8 1.4-2.7 1.6-2.9z" class="fill" data-original-prefix="fill"/></g><g id="05_Right Ear" data-trait="stitches"><path id="fill-ear-rt" class="fill"  fill="#fff" d="M1715.7 184.2c3.2-.7 6.5-.5 7.2 3.3 2.3 39.5-3.6 77.2-9 116-.7 4.7-.2 11.1-1.1 15.9-5 26.9-24.5 58.9-29.7 86.3-5.7 30.4-4.7 64.8-10.9 95.1-7.8 38.3-25.1 77.8-33.7 116.4l-71.9 122.1c-45.8 31.3-94.9 58.3-141.8 88.2l-35 81-84.6 77.3c-5.6 2.9-16.3-.8-22.4-2.4-27.7-7.2-48.3-18.1-70.9-35.1-16.5-12.5-27.2-20.9-37.6-39.4-6-10.5-10.9-22.9-14.5-34.5 26.8-59.3 58.7-116.4 86.8-175.2 4.9-58.7 6.7-117.8 11.4-176.5 36.5-47.5 77-92.5 114.8-139.2 47.2-35.9 96.4-69 144.9-103.1 66.1-31.9 127.9-72.1 197.8-96.2Z" class="fill" data-original-prefix="fill"/><path id="outline-shading-ear-rt" class="outline"  fill="#000" d="M1680 253c.3 2-.2 3.9-.7 5.8-8.7 33.2-28 45.7-45.3 72.7-19.4 30.1-38.8 69.6-49 104-2 6.9-9.8 35.5-7.5 40.5 2.1 4.5 7.8 5.5 4.6 13.6-1 2.4-4.9 4.5-3.6 6.5.6 1 7.7 5.3 8.9 4.9 1.4-.4 5.2-8.5 9-7.8.7.1 4.7 3.7 6.3 4.6 1.9 1 8.5 3.8 9.3 4.7 4.5 5.1-6.4 13-3.6 17.5.6 1 12 9.8 13.2 9.9 2 .2 6.1-6.5 9.2-4.7.4.2 3.6 5.9 5.6 7.9 2.9 2.8 10.2 6.5 12 9 4.3 6.3-4.2 10-3.3 13.2.6 2.3 7.8 6.8 9.2 10 3.6 8.6-7.3 23.2-9.3 31.7-3.3 2.3-12.5-11.7-13.6-12-4.4-1.2-4.3 4.3-7.2 6.6-7.3 5.9-17.5-8.4-21.1-6.2-1.5.9-12.1 27.6-14.1 31.9-9.1 19-19.2 37.7-30.4 55.6-5.7 9.1-17 28.1-23.9 35.1-6.1 6.2-22.6 16.5-30.6 21.4-27.1 16.9-48.1 18.1-77.4 27.6-11.9 3.8-40.5 13.1-48.4 21.5-2.4 2.5-5.1 6.9-7.1 10-1.6 2.4-10.7 17.9-10.8 19.2 0 1.1 3 4.7 3.9 5.7 1.4 1.5 9.4 7.2 9.7 7.8 1 1.8-1.5 4.6-.4 6.8.5 1 3.8 3.2 5 3 1.4-.3 2-3.7 3.6-4.4 1.9-.9 5.3 0 5.9-.6.9-.7 2.4-11.2 5.1-12.3 28.4-5.8 53.7-14.9 79-29 37.5-20.9 69.2-49.9 102.5-76.5 2.5-2 5.5-4.5 8.4-5.5-22 29.2-47 56.2-78.1 75.9-14.3 9-29.7 16.2-44.2 24.8-6.6 3.9-30.4 17.4-34.2 21.8-1.5 1.7-16.3 37.7-17.1 41.1-.5 2.3 1.5 2.8 1.6 4.5 0 1.2-9.7 20.6-10.5 21.5-2.1 2.2-4.8 1.4-6.9 3.1-3.9 3.1-10.1 15.3-14 20-7.4 8.9-25.4 25.8-34.5 33.5-10.2 8.6-22.7 15.9-34 23-3.5 20.4-12.3 16.1-28 12-37.5-9.7-64.7-28.6-93.9-53.1l-8.1-11.9c3-7.3 3-12.6 7.6-19.4 9.5-14.2 27-30.5 38.4-44.6 2.4-3 17.7-21.7 17.9-23.1.3-1.9-7.2-5.6-3.3-14.3 1-2.3 4.4-4.3 2.9-7.1-2.8-5.4-7.8 3-12.9 2.7-5.8-.3-12.4-9.3-13.4-14.4-.9-4.3 1-9.7.3-12.3-.9-3.7-7.9-10-8.4-15.7-.4-5 15.1-25 15.8-32.2 2.3-.5 1.6.3 2.2 1.3 1.3 2.1 7.3 14.7 9.3 14.7 2.9-2.6 5.6-9 10-9.1s17.5 10.7 18.3 14.8c1.6 7.9-13.7 13-2.3 18.2 1.5-.1 3.5-8.7 7.2-9.8 5-1.4 8.7 5.3 14.3 2.3 9.5-16.8 18.2-33.9 26.8-51.2 13.7-27.4 25.6-51.9 41.7-78.3 11-17.9 25.9-32.9 29.3-54.7 1.5-9.4 1.1-18.9 1.1-28.4l54 6.5c10.4 14.5 17.6 31.1 26.5 46.5 1.4-.6 10.7-11.6 11.6-13.4 5.1-10.3 14.6-53.4 15-65.1.2-4.9-3.5-5.2-7-7.4-6.9 19.2-20.4 2.3-30.6-4-1.7-4.1 6.7-11 5.4-12.9-4.3-1.4-11.9-10-15.9-8.7-5.6 1.7-6.9 10.7-8.1 11.5-2.9 2-18.9-13.2-23-14.6-1.4-5.8 8.7-12.1 8.1-15.7-2.2-.7-7.6-6.3-8.7-6.5-3.1-.5-8.1 10.6-11.9 11-2.5.2-16.4-9.8-20.4-10.6-2.4-2.1 3.8-7.9 5.2-10.8 1.7-3.7 2.7-6.7-.2-10.1-.3-.4-7.5-5.8-8-6-4-1.9-4.6 4-7 7-8.5 10.6-9.7 3.2-17.1-2.9-1.8-1.5-7.7-4.4-8.5-5.6-3-4.7 9.1-12 9.4-15.7.3-3.5-17-9.2-8.7-22.7 3.1-5.1 7.3-4.3 7.8-4.7.6-.6-1-6.8 4.8-9.7 7.7-3.8 16.8 8.4 19.7 7.7 4.9-6.5 8.5-16.6 18.4-15.8 1.2 4.4 13.9 14.4 14.2 17.4.6 6.1-14.5 12.8-11.9 16.4.5.6 10.2 7.3 11.2 7 2.7-.7 7-11.6 11.2-12 2.9-.3 13.6 11.7 17.3 13.7 2.4 6.9-8.8 14.5-6.4 18.3.6 1 7.2 5.8 8.5 5 2.6-6.1 4.3-16.4 12.8-13.2 1.5.6 17.4 10.3 17.8 11.2 1.5 2.9-10.3 13.6-10.6 18 3.5.5 17.9 11.8 20 10 1.1-10.6 4.8-15.5 16-12 1.3-1.4-1.8-26-.8-31.3s9.6-20.9 12.6-26.4c17.6-31.6 51.4-76.3 80.4-97.5 18.6-13.5 41.2-28.1 60.8-40.2 6.9-4.3 19.7-12.6 26.5-15.5 1.8-.8 3.3-1.4 5.4-1.1Zm-115 343c11.1-2.5 18.4-14.1 24.4-23.1 1.7-2.6 8.7-13 9.2-14.9.7-2.5-7.9-8.8-10.6-7.6-1.5.7-4.1 4.6-6.1 6s-7.1 2.9-8 4.2c-1 1.4-9.4 24.1-9.7 26.1-.5 3.5.7 5.9.8 9.2Zm-294 371c.7.7 7-4.7 8-5.5 9.3-7.7 17-17 26.5-24.5l49-52c1.4-3-5.2-7.8-3.3-15.2.4-1.4 5.5-6.1 2.2-6.7-1.9-.4-7.2 7.9-12 7.9-3.7 0-9.3-8-15.3-4.7-10 17.1-21.2 33.5-33.2 49.3-10.3 13.5-11.2 12-16.5 29.5-2.2 7.2-4 14.6-5.5 22Z" class="shading" data-original-prefix="shading" opacity=".2"/><path id="outline-ear-rt" class="outline"  fill="#000" d="M1202 940c-.7 2.2-2.8-.3-3.7-.8-7.5-4.1-15.4-7.3-21.3-13.7-11-12.2-18.8-30.7-29.5-43.5-1.6-4.6 0-20.2 2-25 2.1-5.1 8.5-12.8 11.7-18.3 15.6-27.4 29.9-56 41-85.5 2.9-1 12.6 1.5 13.7-1.8 1.5-4.5-2.4-14.2-1.8-19.8.6-5.7 5.4-14.9 7.2-20.8 19.1-62.7 19.6-130.1 25.3-194.7 25.9-36.9 52.3-73.4 80.4-108.6 6.1-4.5 13.9-5.4 20.9-7.6.9-5.5-1.2-12.2 1.3-17.2 19.4-19.9 38.5-46.9 59.9-64.1 43.3-34.7 113.5-72.5 164.2-95.8 36-16.5 113.1-50.1 150.5-53.6 2-.2 4.9-.6 6.6.7 1.3.9 4.2 14.2 4.5 16.7 5 34.4 0 106.7-6.2 141.6-2.7 15.4-3.5 13.8-11.5 25.5-20.9 30.2-30.9 86.3-28.2 122.9.9 12.8 7.2 15 4.6 29.5-1.9 10.4-16.9 71.2-22.6 75.4-1.6 1.2-11.6 3.5-12 5.2 1.8 11.3 6 12.6 1.6 24.3-17.4 46.2-55.1 107.3-90 142-35.9 35.8-70.5 53.9-113.6 78.5-12.7 7.2-18.8 16.5-25.8 29.2-2.1 3.8-8 18.8-9.7 20.3-2.4 2.1-11.1 1-13 5-2.3 4.8 3.8 10.5 3.3 15.3-.2 2.6-7.5 18.1-9.4 20.7-5.5 7.6-25 19.5-33.4 27.5-14.1 13.5-27.2 28.2-41.4 41.6-7.1 2.4-14.6 3.4-22.1 3-15.9-.8-45.9-12-59.4-20.7-1.4-.9-4.4-2.4-4.1-4.4 10.7 4 34.4 9.2 45.5 8 14.3-1.5 58-38.5 70.5-49.5 6.3-5.5 22.8-19.3 26.8-25.2 1.7-2.4 7.2-13.8 7.7-16.3.7-3.6-8.2-12.5-11.6-11.6-4.2 1.2-7.9 14.7-11.5 14.7-.8 0-11.9-8.5-12.6-9.5-3.3-4.3 9.1-15.5 8.8-19.1 0-.9-10.3-11.7-12.6-10.4-1.9 1.1-7 15.2-12.5 14.7-2.1-.2-11.6-9.5-11.5-11.1.3-3.2 10.8-14.9 10.8-16.2l-12.3-9.5c-2 .4-7.6 11.3-9.3 13.7-.4.5 0 1.9-1.7 1.2-.8-.3-12.2-11.8-12.4-12.7-1-3.7 7.4-10.2 6.8-12.7l-6.4-4.4c-.8 0-1.8 1.7-2.3 2.5-8.7 12.8-19.3 34.1-26.7 48.3-9.7 18.5-20 39.9-24.6 60.4-3.7 16.5-2.6 19.7 1.9 35.3.4 1.3.6 3-1.3 2.3-2.3-.9-15-11.2-17.5-13.5-4.4-4.1-9.2-7.6-9.1-14 .1-6.2 1.2-18.8 2.1-24.9.6-4.2 26.4-37.8 31.1-45.9 3-5.3 20.7-40.8 19.7-44-.4-1.5-8.8-6.8-10.8-5.5-1.6 1-5.4 16.3-8.7 16.8-1.9.3-9.9-8.4-12.4-9.6-.4-4.7 9.3-14.6 7.6-18.3-.7-1.6-12.1-10-13.5-9-1.2.8-3 15.2-9 12.5-1.6-.7-8.6-9.6-8.9-11.2-.6-3.7 6.8-11.7 5.8-13.2l-7.9-5.1c-7.1 12.3-13.3 25.1-19.8 37.7-2.6 5-6.7 10-9.1 15-2.8 6.2-15.3 38.7-16 44-3 22 12.8 50.5 26.9 66.4Zm517-752c-41.7 13.6-81.4 32.9-120 53.5-44.4 23.7-89.6 51.7-131.9 79.1-37.3 24.2-73.8 51.1-104 83.8 2.3 1.6 7.9 8.1 10.2 7.5 2.6-.7 10.3-13.4 13.2-15.9 2.9-2.6 2.2 0 3.5 1.5s9.1 10.1 8.9 10.9l-12.9 15.1c6.4 5.6 12.9 11.5 20.5 15.5 2.5 0 8.2-11.3 11.1-13 .8-.2 12.1 9.7 12.3 10.6.4 2.4-8.4 10-8.8 12-.4 2.2 15.3 12.7 17.4 12.4l8.2-12c2 1.6 12.9 7.8 13.2 9.6.5 2.6-7.4 11.7-6.4 13.4 3.4 2 25.1 16.9 26.5 15.9l7.6-13 15.4 8.1c1.4 2-9.2 12.3-7.5 14.9 1.6 2.4 22.4 11.8 26.1 15 1.5-.9 1.4-2 1.6-3.5.5-4.4-.6-14.2-1.1-19-1.1-11.1-8.7-37.9-7.9-45.9.7-7.6 15.4-37.1 19.8-45.3 27.6-51.9 68.3-85.1 109.2-125.8 6.8-5.4 15.2-7.9 22.3-12.7 3.7-2.5 26.5-23.7 29.7-20.8l-22.5 39c-10.9 8.2-22.7 15-33.4 23.6-53 42.2-92.5 108.3-94.9 177.2l12.8 8.2c1-2.3 6.2-13.5 8.4-13 1.8.4 8.4 9.7 11.6 10.6.8 3.6-5.8 10.1-6.7 13.3-.5 1.7 12.6 11.5 15.1 13.1l8.2-10.9c3 2.8 13.4 8.5 12 13-2.7 8.2-10.2 6.5-.6 15.5 1.8 1.8 14.7 13 15.7 13.3.6.2 1.9.4 2.3.1.5-.3 3.7-9 5.6-10 .9-.2 10.8 9.2 11.5 10.5 3.2 5.4-4.6 9.4-3.9 12.9.3 1.7 10.8 10.8 12.8 12.6 6.3-25.4 17.4-53.3 19.1-79.5.5-8.5-.5-17.5 0-26.1 1.9-35.4 10.1-81.8 23.3-114.7 6.8-17 15.7-25.4 19.5-44.5 7.4-37.6 11.2-78 8.3-116.2Zm-354.1 264c-2.1 1.5-11.5-8.1-13.9-9.6-.2-3.3 9.6-11.3 8.5-13.4-3.7-1.9-9.1-9.8-13.1-7-6.9 8.8-14.4 17-21.4 25.6-15.7 19.2-37 44.4-50.5 64.5-10.9 16.3-10.6 37.7-12.6 56.4-2.3 21.3-5.1 42.7-7 64-2.3 25.7-.7 63-9.5 86.5-2.1 5.5-15.5 30.3-15.3 33.3.1 1.4 6 11.1 7.3 11.7 1.6-1.9 5.1-10.7 6.5-11.5 3.5-2.2 9.3 8.7 12.9 10.2-.6 4.2-8.8 11.5-6.4 15.4 1.4 2.2 10 7.2 12 10 2.3-1.3 5.9-12.5 6.6-12.9 1.4-1 13.6 8.5 13.8 9.6.5 2.3-7.5 10.1-5.4 13.4.7 1.1 10.4 5.7 11.5 4.9 14.9-28.1 30.2-56.2 47.7-82.8 12.2-18.5 28.6-36 36.4-56.6 6.7-17.6 17.7-69.2 14.8-86.8-.7-3.8-10.8-27.6-9.8-28.7 13.4 6.2 26.8 13.4 39.3 21.2 3.9 2.5 14.9 8.7 17.2 11.8 3 4 10.2 28.6 12 35 5 17.7 6.7 61.6 34.5 34.5 18.2-17.7 39.5-77.9 41-103 .2-3.1.6-11.1-1.1-13l-35.5-21.5c-2.6 1.8-4.7 11.1-7.2 11.9-2.7.9-15.4-6.2-15.2-8.2.2-2.3 7.6-12.8 6.9-13.7l-25.7-14.9c-2-.3-7.7 11.4-8.4 13.9-1.9 1.4-12.9-7.6-15.9-8l7.5-15.9-18-12c-2 .5-6.7 12.3-8.5 13.5-1.1.7-1 .5-2 0-1.1-.6-11.8-8.4-12-9.1l9-15.4-22.5-16c-2.1 3.4-4.9 6.4-7.4 9.7-.7 1-1 3.2-1.2 3.3Zm207.9 76.2c-.4-.7-12.7-9-13.5-9-1.7-.2-6.9 7.2-7.2 8.6-.8 3.8 4.2 7 4.7 9s-6.8 10.6-8.5 13.2c-28.1 43.5-30.1 78.6-42.7 126.3-2 7.6-3.2 4.8-6.4 8.1-12.1 12.1-23.3 21.3-37.8 30.7-4.2 2.7-37.6 22.8-39.5 21 3.2-7.4 7.6-14.4 10.5-22 10.2-27.5 10.4-59.8-8.1-83.9-10.7-14-18.2-14.4-25.6 2.2-9.5 21.3-13.4 47.3-14.6 70.4-18.3 22-37.9 43.1-54.4 66.6-3.9 5.6-16 22.3-17.4 27.7-.7 2.6 7.1 7.9 8.1 7.8 2.1-.2 7-12.2 10.5-10.4.7.4 10.7 9.5 10.9 10.3 1 4-7.7 8.8-5.4 12.3.4.6 10.4 8.1 11.1 8.1 3.1-.4 5.6-9.4 8.8-8.9.7.1 11 7.6 11.7 8.4 3.3 3.8-5.6 9-5.1 12.9 2.8 1.2 10.5 9.8 13.1 8.2 1.4-.9 4.7-8 6.6-9.6.8 0 13.7 7.8 14.4 8.6 3 3.3-6.8 10.3-5.9 13.8.4 1.5 10.3 8.7 11.9 7.6 2.3-7.8 9.4-15 12.4-22.1 2.9-6.6 3-14.4 6.1-21 27.2-18.9 59-32.5 86.3-50.7 50.5-33.6 111.1-115.8 131-173 1.1-3.1 3.9-8.7 3.1-11.5-.3-1-13.4-14.5-14.5-14.7-2.8-.5-7.2 10.6-10 11.9-1.6-1.1-12.1-9.8-12.3-10.6-1.1-3.5 8.8-11.6 6.5-15.3l-22.1-18c-1.7-.4-8.5 10.8-9.5 13-5.4-2-10.1-7.4-16-9-1.4-1.8 11.1-12.9 8.8-16.8Z" class="outline" data-original-prefix="outline"/></g><g id="06_Left Ear" data-trait="OG"><path id="fill-ear-lft1" class="fill"  fill="#fff" d="M326.7 182.1q1.65-.45 3.3.3l180.7 78.4c55.2 39.7 111.9 77.8 165.3 119.7l109 135.9c10.5 65.4 16 132 25.2 197.8 24.6 50.1 52.6 98.7 77.3 148.7 1.5 3.1 5.4 9.5 5.5 12.5.2 4.7-8.5 15.9-11.2 20.8-15.1 27.1-18.8 33.2-43.9 52.1-22.9 17.2-44.3 28.5-72.5 35.5-8 2-18.1 5.7-25.3.5l-82.9-79.1c-9.9-22-17.5-45.3-28.1-66.9l-154-109c-23.7-34.4-41.7-73.1-64.9-108.1-9.8-43.7-27.6-90.2-34.9-134.1-5.9-35.7-6.9-73.6-12.5-109.5-9.3-20.9-22.7-40-30.5-61.5-1-40.6-6.8-81.2-8.3-121.7-.1-3.4-1.1-11.4 2.8-12.4Z" class="fill" data-original-prefix="fill"/><path id="outline-shading-ear-lft1" class="outline"  fill="#000" d="M664 558v21.5c0 22.8 19.2 43.4 30.4 61.6 38.9 63.4 63.1 129 108.2 189.8 16.2 21.8 35 41.1 51.9 62.1 4.8 5.9 9.3 10.3 9.5 18.5.2 6.2-2 12.6-1.1 19l-.9 2.1-60.1 40.9c-13.7.2-28.1 9.9-40.7 12.4-1.5.3-2.8.5-4.2-.3l-76.6-51.4-69.8-109.7c-33.8-23.4-81.3-39.6-107.2-72.3-4.2-5.3-6.4-12.2-10.5-17.5.3-1.1 2.2-.4 3 0 7.1 2.9 21.5 16.6 29.2 21.8 23.5 15.5 51.4 30.4 77.3 41.7 17.3 7.5 35 10.9 52.9 16.1 7 15.4 12.9 31.5 20.2 46.8 8 16.6 27 35.1 40.2 48.8 19 20 39 39.1 59.5 57.5 1.5.2 1.8 0 1.4-1.4-1.9-7.7-7.7-31.2-11.1-36.9-4.7-7.9-16.1-19.2-22.2-27.8-25.1-34.9-42.3-72.5-64.4-108.6-7.4-12-9.8-16-22.8-22.2-38.1-18-78.4-19.1-114.3-41.7-26.9-17-34.3-26.3-51.1-52.9-25.7-40.5-46.4-86-61.2-131.8-4.2-12.9-10.9-32.4-12.7-45.3 0-.6-.3-1.6.5-1.5 14 25.4 25.6 52.8 42.1 76.9 5.6 8.2 12.9 19.9 23.4 21.1-.5-2.4 1.1-5.1.8-7.3-1.4-11-12.7-28.8-16.3-39.8-3.8-11.7 2.7-30.6 3.5-43.5 3.6-59-24.7-121.5-55.6-170.4-12.4-19.7-28.5-37.1-37.4-59.1h16.5c8.6 0 8.7 2.4 14.2 5.8 15.3 9.7 32.5 17.5 48 27 30.2 18.6 67.2 68.2 84.5 99.5 2.9 5.2 12 22.4 12.8 27.2.9 5.4-.9 10.1-1 14.9-.8 41.5 1.8 83.9 11.9 124.2 3.2 12.9 5.4 24.4 15.1 33.9 1.4 1.4 2.9 3.8 4.5 1.5l24.5-44.5 55-6.5z" class="shading" data-original-prefix="shading" opacity=".2"/><path id="outline-ear-lft2" class="outline"  fill="#000" d="M845 941c14.6-16.6 32-43.1 28.9-66.4-6.2-13.9-9.9-31.3-16.2-44.8-6.6-14.1-16.5-28.7-23.6-43.4-15.3-31.6-34.1-66.9-37.1-101.9-.8-27.8-4.4-55.4-7-83-2.5-25.8-1.8-68.6-16.2-89.8-15.1-22.3-37.4-49.1-54.9-70.1-40.4-48.8-81-84.4-134.1-118.9-62.7-40.8-134-84.4-202.2-114.8-5.5-2.4-50.7-20.8-52.7-18.8-2.9 37.8.8 78 8.3 115.2 2.9 14.2 5.3 15.9 11.2 27.8 19.4 39 29.1 89 31.5 132.5 1 17.6-.2 29.6 3.5 47.5 18.4 89.9 62.3 179.1 131.5 240.5 34.3 30.4 77.6 43.7 111.3 70.7 7.8 6.3 4 4.9 5.1 11.8 1.6 9.8 18.8 46.8 24.6 56.2 15.8 25.8 55.2 62.7 82.3 76.9 24.5 12.9 35.2 10.3 60.5 2.1 2.2-.7 5.3-.6 7.2-1.3-1 4.5-8.9 7.6-13 9.5-9.6 4.4-42.4 17.5-51.4 17.4-1.7 0-20.4-3.6-21.4-4.1s-1.2-2.3-2.2-3.3c-15.2-14.7-31.4-32.3-47-46-12-10.6-25.8-15.8-32.5-31.5-10.8-25.2-24.1-65.5-48.8-80.2-25.6-15.1-48.4-25.9-73-44-82.1-60.5-144-180.3-162.2-279.8-2.5-13.4.3-11.7 3.2-22.8 6-23.1-5.4-87.7-14.7-110.8-2-5.1-7-12.2-10.2-16.8-2.7-3.8-8.9-9.4-10.3-12.7-3.4-8-5.6-30.1-6.5-39.5-3.1-31.9-9.3-100.8-.5-129.5 1.8-5.8 2.2-6.4 8.7-5.7 12.1 1.1 31.8 7.4 43.8 11.3 83.1 27.2 164 67.2 237 115.1 21.8 14.3 36.8 25 55.1 43.9 52.6 54.4 98.4 114.5 141.4 176.6 2.3 4.6 2.2 21.8 2.6 28.4 3.6 65.9 7.8 160.8 46.2 215.8 2.9 4.1 7.4 7.9 10 12 6.8 10.6 12 30 17.6 42.4 10.2 22.5 26 41.8 21.6 68.3-12.2 14.7-20.7 38.7-36.8 49.2-5.3 3.5-12.5 7.3-18.7 8.8z" class="outline" data-original-prefix="outline"/><path id="outline-ear-lft1" class="outline"  fill="#000" d="M671 548c1 1.1-9.1 24.9-9.8 28.7-3.2 18.8 9.2 75.9 17.6 94 8.4 18.2 19.9 26.4 31 41 38.5 50.8 58.2 119.5 95.4 173.6 4.1 6 11.5 13.6 14.6 19.4 2.3 4.2 4.1 23.8 4.2 29.8 0 1.9.2 3.7-.6 5.5-1.3 3.2-26.3 24.1-28.5 22 .6-5.2 4-9.5 4.7-14.8 4.7-32.1-33.9-98.2-50.6-126.9-23.1-39.7-51.6-80.6-84.7-112.3.2-20.9-3.1-40.8-9.2-60.8-5-16.5-11.4-40-29.8-18.2-21.7 25.7-18.4 63-6 92 2.2 5.2 5.5 9.8 7.5 15-3.9.3-7.3-2.1-10.7-3.8-25.9-13-50.8-31.4-71.8-51.2-10.2-49.8-20.3-101.8-52.4-142.7 2.3-5.6 5.6-10.1 7.6-16 12.2-35.3 1.5-87.5-13.6-120.9-23.3-51.5-61.4-93-109.9-121.6l-22.3-39.7c3.2-2.9 26 18.3 29.7 20.8 6.2 4.2 14.6 6.7 20.3 10.7 9.4 6.7 22.5 22.7 31.5 31.5 33.4 32.3 57.8 54.7 80 96.9 3.8 7.2 20.1 40.7 20.3 46.5.3 7.9-5.4 25.4-6.6 34.3-3 21-3.8 46.7-2.2 67.7 1.8 24.6 22.8 84.2 40.4 101.6 27.7 27.2 29-13.4 34-31 2-7.1 9.3-32.9 12.5-37.5 2.9-4.3 22.7-15.4 28.3-18.7 2.8-1.7 27.5-16 28.7-14.8h.4Z" class="outline" data-original-prefix="outline"/></g><g id="07_Head" data-trait="slicked-black"><path id="fill-head" class="fill"  fill="#fff" d="M1184.8 747.2c1.7 1.6 7.1 11.9 9.4 15.1 15.6 21.3 37.6 44.5 59.5 59.5 2.8 1.9 17.6 9.9 18.1 10.9.8 1.6 2.1 11.4 2.2 13.8 1 17.8-4.1 34-12.8 49.2-.5 2.1-11.1 14.5-10.2 15.3 1 .9 3.1-.8 4-1.5 8.7-6.4 17.5-19.2 25.9-26.5 5.6 12.5 16.9 32.8 17.1 46.5.2 11.8-11.5 36.8-23.6 40.5-3.4 1 .8-5.5 1.3-6.7 1.5-4.3 4.3-11.3 4.3-15.8s-2.9 1.3-3.2 1.8c-3.7 5.3-6.8 10.1-12.5 13.5-17.3 5.9-62.4 43.2-77.7 43.1-7.3 0-16.7-4.3-24.6-2.9 5.1-5.7 11.2-12.7 9.5-21-13 11.3-26.8 21.6-41.6 30.4-10.1 6.1-24.4 16.9-36.3 8.5-4.9-3.5 2.7-5.8 5-8.2 5.1-5.4 17.4-29.3 20.5-37 3.6-8.8 6.2-19.1 6.3-28.7-5.2 4.1-6.4 10.8-9.7 16.3-11.5 18.9-35.2 43.6-54.5 54.5-51.1 29-102.9-11.5-129.1-54.5-3.3-5.5-4.5-12.2-9.7-16.3 0 9.5 2.8 19.8 6.3 28.7 3.1 7.6 15.4 31.6 20.5 37 2.4 2.5 9.9 4.8 5 8.2-13 9.2-33.2-6.2-44.3-13.5-11.8-7.7-23-16.2-33.6-25.4-1.6 8.3 4.4 15.2 9.5 21-7.9-1.4-17.3 2.9-24.6 2.9-15.3 0-60.4-37.1-77.7-43.1-1.9-1.8-4.4-3-6.2-4.8s-7.3-11.8-8-12.1c-.4 0-2.5-.3-2.5.5l8 23.5c-12.1-2.4-20.7-20.2-23.5-31-4.7-18.2 8.2-39.9 15.5-56 8.4 7.3 17.2 20.1 25.9 26.5.9.7 3 2.4 4 1.5.9-.8-9.7-13.2-10.2-15.3-11.4-19.3-16.3-41.6-10.3-63.7 30.5-15.7 57.2-42.2 77.3-69.7 1.8-2.5 8.9-14.7 9.9-15.4 9.9-7.1 43 2.9 55.1 4.8 27.3 4.3 43.7-9.7 68-18.5 20.1-7.3 45.1-9.5 65.8-3.3 17.9 5.4 43 21.4 60.1 22.9 15.2 1.4 62.5-14.7 72.1-5.6h.3ZM959 765c-.8-.8-5.9 2.8-6.9 3.6-6.7 5.1-36.1 44-37.6 51.4-2.6 12.6-.8 28.8-.4 41.5.4 11.9-.9 22.9 3 34.5l5.5-37c4.6-24.6 12.2-48.6 22.7-71.3l13.8-22.6Zm172 131c3.9-11.6 2.6-22.7 3-34.5.4-12.7 2.2-28.9-.4-41.5-1.5-7.3-30.9-46.3-37.6-51.4-1-.8-6.1-4.4-6.9-3.6l13.8 22.6c10.4 22.7 18.1 46.7 22.7 71.3l5.5 37Zm-224-97c-.8-.8-15.6 9.7-16.9 11.6-2.5 15.7-19.9 44.4-19.2 58.9.2 3.6 7.9 20.7 9.9 25.2 4.9 11 16.8 36.7 23.7 45.3 1.2 1.5 2.8 2.3 4.5 3-5.4-21.5-21.9-48.5-22.1-70.5 0-23.9 12.5-51.2 20.1-73.5m232 144c1.7-.7 3.3-1.6 4.5-3 6.9-8.6 18.8-34.3 23.7-45.3 2-4.5 9.7-21.6 9.9-25.2.7-14.5-16.6-42.5-18.8-58.2-4.4-5.2-10.9-8.8-16.7-12.3l13.2 38.8c3.9 15.4 8.2 31.3 4.8 47.3l-20.5 58ZM831 816c-1.8-2-6.7 8.3-7.2 9.3-3.8 8.1-8.5 19.9-11.6 28.4-1.1 3-4.3 11.2-4.3 13.8s5.8 13.8 7.2 16.8 11.2 23 12.4 23.6c1.9.9 1.5-1.3 1.4-2.4-.7-9.1-5.9-20.4-6.8-30.2-1.8-19.6 5.2-40.3 8.9-59.4Zm388 92c2.1.4 2.3-1 3.2-2.3 7.1-10.5 12.2-26.6 17.8-38.2-4.6-13.7-9.8-29.1-15.9-42.2-1.4-3-3.4-8-6.7-9.3l8.5 46.5c1.4 15.7-4.8 30.3-7 45.5Z" class="fill" data-original-prefix="fill"/><path id="fill-head3" class="fill"  fill="#fff" d="M689 956s.2 1.7 1 2.5c3.8 4 7.9 7.4 11 12 4.5 6.4 15.1 12 19.1 17.9.7 1 1.2 1.5.8 2.9-.8 3.2-14.6 6.3-18.4 9.7-7.2 6.3-27.7 38.1-32.3 47.7l-13.1 32.3c-2.2-18-6.1-36.4-7-54.5-1.5-29.2 10.6-35.5 27-56 3.1-3.9 6.9-10.6 10-13.8.7-.7 1.4-1.2 2.1-.6h-.2Z" class="fill" data-original-prefix="fill"/><path id="fill-head2" class="fill"  fill="#fff" d="M1361 956c7.8 14.4 21.4 25.8 30.2 39.3 7.2 11 7.4 18.2 6.8 31.2-.9 17.2-5.1 34.3-6 51.5-2.6.4-1.6-.2-2.1-1.4-4.9-11-8.1-22.3-14.1-32.9-4.3-7.5-25.9-39.3-31.4-43.6-4.2-3.2-20.5-5.6-16.4-11.7 6.9-6.8 14.4-12.9 21.1-19.9 3.2-3.3 6.3-8.2 9.5-11.5.8-.8.9-1.4 2.4-1.1Z" class="fill" data-original-prefix="fill"/><path id="outline-head8" class="outline"  fill="#000" d="M749 958.5c-.9-4.2-14.1-19.9-16.8-28.2s3.4-18.6 7.2-26.3c4.7-9.4 20.7-31.4 21.5-39.5.7-7.3 0-14 1.3-21.7 1.2-7.1 2-15.7 10.7-16.3-13 21.5-2.7 45.5 9.6 64.4 5.5 8.5 17.7 24.8 25.9 30.1 1.2.8 2 1.2 3.5 1-5.7-18.1-13.5-34.6-9.5-54 2.9-14.1 10.1-27.2 21.5-36-.2 3.8-5 7.6-5.8 10.7-1.9 7.7 1.9 19.8 2.7 27.8 1.1 11.2-2.1 25.3 8 33.5-.2-24.2 7.7-47.1 19.8-67.7l12.2-19.3c-16.5-3.4-33.5-5.2-50-8.5-3.5-.7-8.5-1.3-11.6-2.4-1.1-.4-1.7.5-1.4-1.6 10.3-10.4 20.9-20.5 30.5-31.5 10.4-12 30.3-45.4 46-45.8 13.3-.3 29.8 4.8 43 5.8 20.9 1.5 46.8-16.6 67.2-22.8 8.3-2.5 64.5-2.5 74.7-1.1 15.6 2.2 41.8 19.5 58.3 23.7 18 2 38-6 55.8-5.6 15.7.4 35.6 33.8 46 45.8 11.2 12.9 24 24.3 35.5 37-30.7 7.1-61.6 14-93 17 1.1 2.6-1.1 4.4-1.1 7.5s2.8 11 3.1 11.5c0 0 1.5-1 2.4 0 .6.6 7.8 13.3 8.4 14.7 7.8 18.2 0 61.2-6.6 80.2-1.6 4.6-4.8 8.5-5.3 13.2 1.5 1.5 23.5-3 26.5-5 4.1-2.7 18.9-23.5 22.3-28.7 12.1-18.8 19.6-40.9 18.7-63.4l-8.1-24.9c1.5 3.5 4.3 5.4 6.3 8.7 5.9 9.7 12.5 26.8 14.1 37.9 2.3 16.5-1.2 31.6-5.9 47.4 5.7-3.5 23.6-30 28.5-30s15.4 21.3 16.8 26.2c3.6 12.7-.9 24.3-7.1 35.5-1 1.7-4.8 5.6-4.8 6.8s2.1 5.6 2.3 8.2c0 1.4-1.2 5.7-.6 6.3 2.4 2.4 3.6-2.8 4.1-3.4 8.1-8.6 13.7-5.5 19.8-18.3 7.7-16.4 10.4-38.5 10.2-56.4 1.4-1.9 11.2 21.6 10.9 25.4-.6 8.5-18 30.3-18 32.1V974s1.1-.2 1.6.4.3 1.6.4 1.6h15.5c1.4 0 20.4-13.1 23-15 8.7-6.7 16.1-15.2 25-21.8 1.3.9 2.8 1.8 3.9 2.9 8.9 8.8 43.7 58.8 47.3 69.7 4.3 12.9-1.6 27.3-5.5 40-5.7 18.7-12.9 37-19.8 55.2-5.6-14.1-10.2-28.5-16.6-42.3-8.4-18.2-25.9-53.8-44.6-61.4-2.4-1-11.3-2.9-12-3.5-3.1-2.2-6.5-20.5-12.7-21.8-11.4-2.2-16.3 2.4-25.7 5.3-5.5 1.7-13.9 4.2-19.4 4.6-7.8.5-18.2-2.6-25.4-.4s-29.9 19.7-39 25c-3 1.7-9.5 6.3-12.5 6.6-4.5.5-15.7-5.2-22-5.9-22.2-2.3-32.9 10.6-52 18.7-2.3 1-8.1 3.8-10 3.8-4.7.2-12.2-6-15.9-6.7-2.3-.4-9.6-.4-12 0-5.8.8-12.9 10-19 11-5.9 1-53 .8-57.2-.7-5.2-1.8-11.4-9.5-16.7-10.3-2.4-.3-9.7-.3-12 0-4.1.8-11.3 7.3-16.6 6.5-5.8-.8-23.7-10.8-30-14.1-13.3-6.8-14.2-10.2-31.4-8.4-6.5.7-18.2 6.6-22.9 5.7-2.8-.5-8.8-4.7-11.7-6.4-9.1-5.2-31.4-22.7-39-25s-17.7 1-25.4.4c-15.2-1.1-28.2-11.4-43.2-9.9-9.9 1-9.5 16.7-14.9 21.1-3.4 2.8-14.4 4.4-19.9 8.1-14.4 9.8-37.6 58.3-44.4 75.6-2.8 7.1-4.6 14.9-7.3 21.7-.4 1-.4 2.4-1.9 2.6-.5-5.7-4-11-6-16.5-4.6-12.3-9.4-26.2-13.2-38.8s-9.8-27.1-5.5-40c3.7-10.9 38.5-60.9 47.3-69.7 1.2-1.1 2.6-2 3.9-2.9 1.4 0 17.7 16 20.6 18.2s25.8 18.6 27.4 18.6h15.5s-.2-1.1.4-1.6 1.6-.3 1.6-.4c0-4.1.7-12.1 0-15.5zM904 932c-3.5-22.2-6.3-42-.7-64.2 3.2-12.5 10.2-25.3 13.1-37 .6-2.4 1.3-7.3-1.8-7.8-5.9-1-12.9-.4-18.9-2.1-18.3 37.1-16.7 77.7 8.4 111.1Zm219.9-100.9c-21.8.4-43.6 2-65.4 1.9-38.8-.2-77.4-5.6-116-7-3.1 0-6.5-.3-9.6.4-.8.6-1.8 7.5-1.9 9.1-1.7 20.1 2.8 45 7.3 64.7 3.7 16 10.3 31.1 19.2 44.8l.5-7.5c-2.7-32.3.2-69.9 18.5-97.5-2.2 52.9 15.6 107.2 52 146 .3-22.2-4.8-43.3 4.6-64.3 12.5-27.9 44.1-35.9 64.4-10.7 7.2 9 8.9 19 11 30 15.2-17.7 21-42.8 23.4-65.6.3-3.4 1.3-9.7 1.1-12.7-.2-2.6-7.7-30.6-9.1-31.5ZM1165 887c-.7-4 .9-7.7 1.1-11.5.9-17.1-4-30.8-9.5-46.5-1.7-2-14.6.7-18 1-3.1.3-6.3-.2-9.5 0-.4 1.9 1.6 3 1.7 4.6.2 2.1-1.2 4.3-.5 7.7 1.2 6.1 9.9 18.7 12.5 26.5 6.7 19.7 4.6 30.1 3.2 49.8-.2 3.8-1.3 11.6 3.5 7.5.5-.4 6.5-10 6.9-11.1 1.2-3 3.6-13 4.4-16.6 1-4.6.4-10.4 2.2-15.3l2 4Zm-352.5 36v1c.7-.3.7-.7 0-1" class="outline" data-original-prefix="outline"/><path id="outline-head7" class="outline"  fill="#000" d="M907 799c-7.6 22.3-20.2 49.6-20.1 73.5 0 22 16.7 49 22.1 70.5-1.7-.7-3.3-1.6-4.5-3-6.9-8.6-18.8-34.3-23.7-45.3-2-4.5-9.7-21.6-9.9-25.2-.7-14.4 16.7-43.2 19.2-58.9 1.2-2 16.1-12.5 16.9-11.6" class="outline" data-original-prefix="outline"/><path id="outline-head6" class="outline"  fill="#000" d="m1139 943 20.5-58c3.4-15.9-.9-31.9-4.8-47.3l-13.2-38.8c5.8 3.5 12.3 7.1 16.7 12.3 2.2 15.7 19.5 43.8 18.8 58.2-.2 3.6-7.9 20.7-9.9 25.2-4.9 11-16.8 36.7-23.7 45.3-1.2 1.5-2.8 2.3-4.5 3Z" class="outline" data-original-prefix="outline"/><path id="outline-head5" class="outline"  fill="#000" d="m959 765-13.8 22.6c-10.4 22.7-18.1 46.7-22.7 71.3l-5.5 37c-3.9-11.6-2.6-22.7-3-34.5-.4-12.7-2.2-28.9.4-41.5 1.5-7.3 31-46.3 37.6-51.4 1-.8 6.1-4.4 6.9-3.6Z" class="outline" data-original-prefix="outline"/><path id="outline-head4" class="outline"  fill="#000" d="m1131 896-5.5-37c-4.6-24.6-12.2-48.6-22.7-71.3l-13.8-22.6c.8-.8 5.9 2.8 6.9 3.6 6.7 5.1 36.1 44 37.6 51.4 2.6 12.6.8 28.8.4 41.5-.4 11.9.9 22.9-3 34.5Z" class="outline" data-original-prefix="outline"/><path id="outline-head3" class="outline"  fill="#000" d="M831 816c-3.7 19.1-10.7 39.7-8.9 59.4.9 9.8 6.1 21.1 6.8 30.2 0 1.1.5 3.3-1.4 2.4-1.2-.6-11-20.6-12.4-23.6s-7.2-14.6-7.2-16.8 3.2-10.8 4.3-13.8c3.1-8.5 7.8-20.3 11.6-28.4.5-1 5.4-11.3 7.2-9.3Z" class="outline" data-original-prefix="outline"/><path id="outline-head2" class="outline"  fill="#000" d="M1219 908c2.3-15.2 8.4-29.8 7-45.5l-8.5-46.5c3.2 1.4 5.2 6.3 6.7 9.3 6.1 13 11.3 28.5 15.9 42.2-5.7 11.6-10.8 27.7-17.8 38.2-.9 1.3-1.1 2.7-3.2 2.3Z" class="outline" data-original-prefix="outline"/><path id="outline-head1" class="outline"  fill="#000" d="M1308 967c20-7.7 33.4-24.5 49.5-37 2.2-1.7 6-5.3 8.8-4.9s15.6 15.7 18.1 18.9c9.9 12.4 31.4 41.7 37.8 55.2 14.7 31.2-11.1 77.2-20.7 107.6-.7 2.3 0 5.4-.9 7.1-1.3 2.1-15.8 8-18 5-1-1.3-4.5-15.8-5.7-19.3-8.6-24-21.3-50.2-35.7-71.3-5.4-7.8-8-12.1-17-16-2.9-1.2-13.5-3.8-14.7-4.8-2.6-2.1-7.7-19.7-10.9-20.7-12.6 5.3-26 9.3-39.8 10-4.1.2-15.7-1.4-17.8-.9-6.2 1.5-34.3 22.8-43.5 27.6-7.2 3.8-10.9 6.1-19.5 4.9s-17.8-7.6-26.3-6.8c-5.1.5-22.3 12.1-28.8 15.2-10.8 5.1-20.4 10.4-32.5 7.1-3.3-.9-13-6.3-14.7-6.3s-13.2 10.1-18 10.9c-5.3.9-10.1-.9-14.9-1-12-.2-24.1-.2-36.1 0-5.9 0-12.2 2.6-18.2.3-3.3-1.2-14.3-10.2-15.8-10.2-2.8 0-14.7 7.4-21.3 7.8-7.1.4-19.9-5.7-26.5-8.9-6.1-2.9-22.5-14.1-27.2-14.8-8.8-1.4-18.5 5.5-27.2 6.7-10.8 1.4-16.5-3.3-25.2-8.3-7.2-4.2-32.9-23.1-37.8-24.2-2.1-.5-13.7 1.1-17.8.9-13.6-.6-28.5-4.4-40.4-11-4.1 6.2-6.4 19.1-13 22.5-3.6 1.8-8.8 2.6-12.7 4.3-10.2 4.6-12.8 10.4-18.7 19.3-17.9 27-30.4 57.2-40.2 88-2.5.8-15.5-4.2-16.2-5.2-.6-.9 0-3.9-.6-5.9-9.7-27.9-33.2-74.3-24.2-103.2 4-12.9 35.2-56.3 45.2-67.8 2.4-2.8 11.1-12.9 14-12.9s24.7 20.4 29.6 24.3c2.5 2 26.7 18.9 27.9 17.6-2-7-7.7-12.8-11.2-19.3-10.3-19.3-8.6-28.6.7-47.7 4.1-8.5 20.8-32.1 22.3-37.7 1.4-5.3.5-16.6 1.2-22.8.7-5.5 1.9-11 3.8-16.2 27.3-18.8 50-41.4 71.2-66.8 9.4-11.3 21-32.6 35.2-36.8 16.3-4.8 43 3.4 60.2 4.3 17.5-6 36.2-17.3 53.6-22.5 10.7-3.2 75.1-3 88.4-1.4 16.3 2 42.4 19.2 59.2 23.9 17.2-.9 43.9-9.1 60.2-4.3 14.2 4.2 25.8 25.5 35.2 36.8 21.2 25.4 43.9 48 71.2 66.8 1.9 5.2 3.1 10.8 3.8 16.2.7 6.1-.2 17.4 1.2 22.8 1.5 5.6 18.2 29.3 22.3 37.7 9.3 19.1 10.9 28.4.7 47.7-1.4 2.7-12.4 18-11.2 19.3zm-123.2-219.8c-9.6-9.1-56.9 7-72.1 5.6-17.1-1.5-42.2-17.5-60.1-22.9-20.7-6.2-45.7-4-65.8 3.3-24.3 8.8-40.7 22.8-68 18.5-12-1.9-45.2-11.9-55.1-4.8-1 .7-8 12.9-9.9 15.4-20.2 27.5-46.8 54-77.3 69.7-5.9 22.1-1.1 44.3 10.3 63.7.5 2.1 11.1 14.5 10.2 15.3-1 .9-3.1-.8-4-1.5-8.7-6.4-17.5-19.2-25.9-26.5-7.3 16.2-20.3 37.9-15.5 56 2.8 10.8 11.4 28.6 23.5 31l-8-23.5c0-.8 2-.7 2.5-.5.7.2 5.8 9.8 8 12.1 1.8 1.8 4.3 3 6.2 4.8 17.3 5.9 62.4 43.2 77.7 43.1 7.3 0 16.7-4.3 24.6-2.9-5.1-5.7-11.2-12.7-9.5-21 10.6 9.2 21.8 17.7 33.6 25.4 11.2 7.2 31.3 22.7 44.3 13.5 4.9-3.5-2.7-5.8-5-8.2-5.1-5.4-17.5-29.3-20.5-37-3.6-8.8-6.2-19.1-6.3-28.7 5.2 4.1 6.4 10.8 9.7 16.3 26.2 43 78 83.5 129.1 54.5 19.2-10.9 43-35.6 54.5-54.5 3.3-5.5 4.5-12.2 9.7-16.3 0 9.5-2.8 19.8-6.3 28.7-3.1 7.6-15.4 31.6-20.5 37-2.4 2.5-9.9 4.8-5 8.2 11.9 8.4 26.2-2.4 36.3-8.5 14.8-8.8 28.6-19.1 41.6-30.4 1.6 8.3-4.4 15.2-9.5 21 7.9-1.4 17.3 2.9 24.6 2.9 15.3 0 60.4-37.1 77.7-43.1 5.7-3.4 8.8-8.2 12.5-13.5.3-.4 3.2-7.1 3.2-1.8s-2.7 11.4-4.3 15.8c-.4 1.2-4.7 7.8-1.3 6.7 12.1-3.6 23.8-28.7 23.6-40.5-.2-13.7-11.5-34-17.1-46.5-8.4 7.3-17.2 20.1-25.9 26.5-.9.7-3 2.4-4 1.5-.9-.8 9.7-13.2 10.2-15.3 8.8-15.2 13.8-31.4 12.8-49.2 0-2.4-1.3-12.2-2.2-13.8-.5-.9-15.3-9-18.1-10.9-21.9-15-43.9-38.2-59.5-59.5-2.3-3.2-7.7-13.5-9.4-15.1h-.3ZM689 956c-.7-.6-1.4 0-2.1.6-3.1 3.2-6.8 9.9-10 13.8-16.3 20.6-28.5 26.9-27 56 .9 18.1 4.9 36.5 7 54.5l13.1-32.3c4.6-9.5 25.1-41.3 32.3-47.7 3.8-3.3 17.6-6.4 18.4-9.7.4-1.4-.2-1.8-.8-2.9-4-6-14.6-11.5-19.1-17.9-3.1-4.6-7.2-8.1-11-12-.7-.8-.9-2.4-1-2.5h.2Zm672 0c-1.5-.4-1.6.2-2.4 1.1-3.2 3.2-6.4 8.1-9.5 11.5-6.7 7-14.2 13.1-21.1 19.9-4.1 6.1 12.3 8.5 16.4 11.7 5.5 4.3 27.2 36 31.4 43.6 6.1 10.6 9.2 21.9 14.1 32.9.5 1.2-.5 1.8 2.1 1.4.9-17.2 5.1-34.3 6-51.5.7-13 .5-20.2-6.8-31.2-8.8-13.4-22.5-24.9-30.2-39.3Z" class="outline" data-original-prefix="outline"/></g></svg>