<?xml version="1.0" encoding="UTF-8"?>
<?xml-stylesheet type="text/css" href="styles/collection.css"?>
<svg xmlns="http://www.w3.org/2000/svg" viewBox="0 0 2048 2048"><g id="01_background" data-trait="red"><path id="bg" d="M2048,4.5c-.1,679.6-.1,1359.2,0,2038.8,0,3.8-.8,4.6-4.6,4.6-679.6-.1-1359.2-.1-2038.8,0-3.8,0-4.6-.8-4.6-4.6C.2,1362.3.1,681.2.1,0h2043.3c3.8,0,4.6.8,4.6,4.6h0v-.1Z" style="fill: #af6e6e;"/></g><g id="02_Jaw" data-trait="OG-cracked"><defs>
    
  </defs>
  <path id="fill-jaw" class="fill"  class="st0" d="M1396.7,1438.7c-6.7,4.3-46.8-1.7-48.7.3l-12.2,69.8-57.2,29.3-1.4,1.6c-1.5,11.9,1.5,24.2.9,35.9-.3,4.9-1.3,15-2.3,19.7-.6,2.8-13.7,32.2-15,33.5s-16.1,8.9-16.7,8.3l-9.5-50-51,52c-7.7,5.7-20.7,9.3-27.5,15.5-14,12.7-25.2,37.4-42.1,47.9-5.4,3.3-61.3,25.7-66.7,26.3-13.8,1.7-33-3.3-47.7.2-17.7-10.3-50.1-16.2-66.1-26.9-14.3-9.6-28.3-35.6-41.4-47.6-6.7-6.1-19.9-9.6-27.5-15.4l-51-52-9.6,48.4c-.6.9-.9,1.7-2.2,1.5-.8,0-13.8-7.6-14.4-8.2-1.4-1.4-15.9-33.3-16.2-35.3l-.5-54.4-58.2-30.3-12.3-69.7c-8.1-1.2-45.1,3.9-49.5-1l-37.1-85-.5-3.4,31.5-70.6c5.3-1.6,29.1,0,31.3-6.7.8-2.3-.6-19.5-1.3-22.4-2.2-8.4-16.2-24-19.8-33.2-.7-1.7-1.2-3.1-.6-5,4.7-11.3,10.3-22.3,14.1-34,7.3-22.4,7.2-42.6,16.9-65.1,47.5-110.2,188.9-176,299.9-200.1,44.7-9.7,79.8-1.5,122.7,11.2,98,28.9,222.6,97.5,259,199,6.8,19,7,38.1,13.5,57.5,3.8,11.2,10.1,22.1,13.7,33.4,0,1.4-8.3,16.4-9.8,19.1-2.4,4.3-9.7,13.4-10.7,17.3-1.8,6.8-.6,15.6-2.3,22.5,9.9,7.9,21.3,4.2,32.4,6.5,9.6,23.9,23.5,46,31.4,70.6-9.8,26.3-22.2,51.8-33.2,77.7-1.3,3-1.7,9.3-5.1,11.4h0Z"/>
  <path id="shading-jaw" class="shading"  class="st1" d="M1380.8,1185.8c-.2.4-2.1.7-2.8,1.7-8.6,10.8-16.2,26-21,39-4.2,11.4-5.1,22.7-13,32-18.8,22.4-51.8,45.5-78.3,57.7-5.4,2.5-12.5,3.7-16.7,7.8h20.5c2.7,0,5.1,1.2,7.9,1.1,18.1-.2,64.4-19.8,77.5-32.6,5.7-5.5,14.1-15.7,15-23.5,1.8,0,.7,2.4,1.5,4,3.1,5.9,15.5,5.2,21.5,6,.2,1.6-1.5.7-2.3,2.2-4.6,8.3-4.4,21.6-10.6,28.3-7.5,8.1-37.1,13.5-48.8,17.2-14.5,4.6-29.8,8.8-42,18.1l-52.8-14.8c-19.3-2.3-9.9,15.4-5.3,25.3,5.2,11.3,20.7,40,30.4,46.6,11.9,8.2,22.7-10.2,30-17,6.3-6,16.2-11.8,24.6-14.4,17.7-5.6,32.3,4.7,50.5,5.4,17.4.8,34.6-7.7,48.8-17.2,3.6-2.4,14.6-13.9,17.2-13.8,1.7,0,3.3,6.1,1.8,7.8-10.1,24.3-21.6,48-31.8,72.2-3.7,8.8-.8,14-13,15-9.3.7-15.8-1-24.2-1.8-4.8-.4-11.8,2.5-17.3-.2l-12.9,70.6-59,30.5c.4,11,2.6,23.6,2,34.5-.3,5.7-1.3,15.4-2.1,20.9-.5,3.1-13.4,31.4-15.4,33.6-3,3.2-11.6,6.2-15.5,9-.8-4.9-2.7-10.6-3-15.5-.6-11.2,2-11.3-2.7-23.2-.4-1.1-1.9-1-2.2-2-.8-2.2-.8-6.7-1.1-9.2l-2.3.2-50.2,51.8c-7.7,5.2-19.5,8.7-26.5,14.5-14.2,11.7-24.4,36.1-41.5,47.5-6.7,4.5-54.2,25.7-61.2,26.8-9.9,1.5-51.8,1.6-61.5,0-6.9-1.2-49.7-20.5-57.3-24.7-15.8-8.9-30.2-37.8-44.4-49.6-6.9-5.7-19-9.3-26.5-14.5l-51-52c-1,8.1-7.3,16-8.1,24-.6,6.2.6,14.6-.3,21.6-.2,1.7-3,1.8-2.1,4.4-.6.7-14.6-8.1-15.5-9-1.7-1.8-15-30.8-15.4-33.6-.7-4.4-.9-13-1.1-17.9-.5-12.2.6-24.4.5-36.6l-58.5-31.4-13-69.5-48.8-.2-38-86.6.9-6.2c8.2.4,11.8,8.2,18.6,12.7,25.3,16.9,38.4,19.8,68.5,13.9,17.1-3.4,19.1-7.5,37.2.4,15.9,7,19,16.2,30.6,25.4,9.6,7.6,13.6,7.9,22-1s31.8-49.1,32.1-60c.2-8.7-6.4-8.1-13.3-7.2-8.6,1.1-48.4,15.1-51,14.6-1.7-.4-12.3-7.9-16.5-9.6-20.3-8.4-48.8-11.8-67.2-20.8-14.9-7.3-11.3-20.9-17.7-33.2-.9-1.6-2.5-.6-2.3-2.2,6.3-.9,17,0,21-5.5,1-1.4.3-3.7,2-3.5,3,11.7,15.2,23.9,25.1,30.4,21.2,13.8,50.4,23.7,75.4,23.5h20.5l-34.7-16.8c-19.1-10.8-48.2-33.1-61.8-50.2-6.2-7.8-7.1-18.3-10.5-27.5-6-16.6-14.4-32-25-46,1.3-9,6.5-19.6,7.8-28.2,1.9-12.9,1.8-19.5,6.5-32.5,36.4-101.1,159.2-169,256.8-198.2,49.9-15,102.4-18.2,153.2-5.2,103.5,26.4,242.6,100.3,277.2,208.8,3.4,10.5,3,17.3,4.8,27.2.8,4.7,8.9,28.4,7.6,30.6l-.5-.2ZM1195.9,1382.1c-32.3-16.1-63.1-35.3-95.9-50.7-17.5-18.7-37.4-36.6-54.6-55.4-4.8-5.3-11.2-16-16-20-3-2.6-7.4-3-10.6-.6-4.5,3.4-12.7,16.4-17.4,21.6-16.7,18.6-36.8,35.6-53.6,54.4-32.9,15.3-64,34.2-96,51.2-.6,2.8,12.4,35,14.6,40.3,2.9,7.1,12.1,31.7,16,36.1,7.1,8,36.5,26.3,47,33,19.8,12.7,36.1,22.9,59.3,28.7,27.3,6.8,39.7,7.1,67,.6s43-16.6,65.7-31.3c10.4-6.8,35.9-22.5,43.4-30.6,4-4.4,12.7-27.4,15.6-34.4,2.1-5.1,16.8-41,15.5-42.9M728.3,1496.7c1.6,2,8.2,6.3,10.7,7.8,14.7,8.8,31.8,13.8,46.9,23.1,16.8,10.2,40.2,33.1,59.6,33.5,2.3,0,8.7-1.2,9.4-3.7s-13.6-27.6-16.4-30.3c-7.3-7.1-27.5-17.2-37.2-23.8-15.2-10.3-50.3-39.1-67.9-39.2-10.5,0-8.7,28.1-5.1,32.7h0ZM1319.7,1466.3c-5.9-5.9-24.1,4.1-30.4,7.6-16.2,8.9-31,21.4-46.2,31.8-12.7,8.7-30.1,15.7-38.6,28.4-2.2,3.4-10.8,17.7-11.4,20.7-1.1,5.3,6.2,6.5,10.3,6.3,16-.9,23.4-9.7,35.2-17.8,9.2-6.3,19.3-13.6,29-19,11.7-6.6,47.1-19.2,52.7-29.3,2.4-4.3,2.8-25.2-.7-28.6h0ZM1126,1664c-12-2.7-20.7,6.6-31.6,7.9-5.7.7-12.2-1.2-16.6-.7-7.1.8-22.9,12.1-31.2,14.9-14.8,4.9-30.2,4.7-45.1,0-8.8-2.8-23.9-14.1-31.2-14.9-4.4-.5-10.9,1.4-16.6.7-11-1.3-19.9-11-31.6-7.4,0,6.9,23.8,23.5,30,27,12.5,7.1,59.8,26.8,72.5,26.6s59.9-19.8,72.2-26.9c10.3-6,24.6-16.2,29.3-27.2h-.1Z"/>
  <path id="outline-jaw" class="outline"  d="M676,1140c5.2-3.1,18.7-3.2,19.1,4.5,0,2.3-.8,11.2-1.1,14-.3,3-.9,8.4-2.1,10.9-2.5,4.9-17.3,13.6-20.1,19.9-1.2,2.6-6.4,25.9-6.7,29.3-.2,1.7,0,2.8.4,4.4,2.1,6.9,13.8,19.7,17.7,27.3,5.7,11,7.2,24.3,12,35s13.5,10.7,22.5,15.6,17.7,11.1,25.3,17.2c-3.1,0-6.3.2-9.4,0-7.7-.8-35.8-6.7-41.8-10-6.1-3.3-8.8-18.4-12.8-20.4-2.5-1.2-7,0-10.3-.7-6.7-1.2-9.9-7.8-17.5-1.5-6.7,12.4-14.3,24.3-20.4,37.1-7.4,15.4-14.8,25.1-4.8,41.2,5.2,8.4,23.4,27,25.6,34.4,2.5,8.4-2.4,27.4,2.4,33.6,5.4,6.9,20.6,5.2,27.7,1.7,11.1-5.5,9.2-10.1,14.9-19.1,5.3-8.3,20.9-24.3,30.4-26.7,7.7-1.9,12.3,10.3,14,16,4.9,15.9,2,31.2,13.9,44.1,1.1,1.2,9,8.5,10,7.5-.8-5.6,4.8-8.4,6.5-13,3-7.9-3.1-20.6-5-29-2.8-12.3-5.1-24.7-8-37-1-4.1-6.2-19.9-5.4-22.3,1.2-3.8,23.7-9.1,24.9-10.7.4-.5-2.9-8.7,0-12.6,1.3-1.8,8.8-6.8,11.1-8.9,3.9-3.5,23.1-22.9,25.7-23.4,4.4-.8,5.2,2.4,8,3.6,5.1,2.1,10.8,2.5,15.7,4.3,1.1.4,2.4.5,2.5,1.9-11.2,6.3-23.6,13-34.3,20.2-2.7,1.8-16.6,11.8-17.6,13.4-1.6,2.6-2.2,9.7-2.2,12.9l3,44.5c-9.8-13.1-8.1-31.3-10-47-2.5,1.9-15.3,3.5-15.9,5.6,4.5,18.6,8.6,38.8,15.1,56.7,7.3,20.1,19.2,40.4,27.7,60.3,11.1,7.8,27.2-5.8,33-15,5.6-8.7,8.1-23.6,22.5-13.5,11,7.7,22.9,21.4,33.5,30.5,48.3,41.3,92.1,59.6,157.4,50.3,40-5.7,69.7-25.7,99.7-51.3,6.2-5.3,32.4-31.5,37.5-32.5,11.9-2.2,14.8,13.8,21.4,21.5,7.4,8.7,17.4,14.2,29.1,12,4.4-.8,21.2-8.4,26.3-10.7,9.2-4.2,20.3-11.4,27.2-18.8,10.4-11.3,8.4-24,12-38,1.7-6.6,6.3-23.8,15.5-21.6,10.7,2.6,27.2,21,32.6,30.4,1.7,3,2.2,6.8,3.9,9.1,6.3,8.5,28.5,13.3,36,5.1,5.6-6.1.4-25.5,2.9-34.1s20.4-25.8,26-35c9.4-15.8.8-28.3-6.5-43.3-5.8-11.8-13.2-22.7-19.2-34.3-7.1-5.6-12.2.4-18.5,1.5-2.9.5-6.9-.4-9.3.7-3,1.4-6.8,14.4-9.5,17.5-1.4,1.6-7.6,4.3-9.9,5.1-8,2.8-25.7,6.6-34.3,7.7-3.4.4-6.8.2-10.2.2,6.6-5.5,15.7-12,23.3-16.2,11.5-6.3,19.8-5.1,25.5-19.5,3.9-9.8,5.3-20.7,10.3-30.7,3.9-7.7,16.9-22.6,18.7-29.4.4-1.7.2-2.8,0-4.5-.6-4.4-5.6-25.6-7.2-28.8-3.7-7.3-19-15.9-20.5-21.5-.8-3.2-2.6-24.3-1.6-26.4,2.1-4.5,12.7-3.4,16.5-1,.5,1.9,4.4,14,5,14.5,6.2,5.3,26.1,4.1,26.1,17s-1.7,15.9.2,26.7c1.7,9.8,9.7,22.5,6.4,31-2.3,6-12,20.9-15.9,27.1-3.6,5.6-8.1,10.6-11.8,16.2,8.8.3,18.9-17.9,26.1-12.1,3.4,2.8,13.7,18.6,16.7,23.3,5.1,7.9,10.9,17.6,15.1,25.9,3.9,7.8,17.4,38.8,16.1,45.8-.2,1.2-13,15.6-15.2,18.8-10,14.2-21.3,32.5-25.7,49.3-1.9,7.2-2.7,14.7-4,22-1,1.4-27.6,11.9-31.1,12.9-10,2.9-17.2,1.5-24.9-5.4-.9,8.8-2.6,17.7-3,26.5s1.7,33.1-.8,39.2c-.6,1.5-11.3,15-12.5,15.5-6.3,3-15.7-1.7-24.7,3.3-22.6,12.7-18.8,48.5-26.9,68.1-6,14.6-40.4,52.5-54.6,59.4-1.2.6-2,1.3-3.6.9,1.2-14.7,3-35.1-3.9-48.6-.4-.8-.4-3.2-2.1-1.4-.7.7-3.6,13.8-6.6,17.9-8.6,11.7-30.9,6.8-39.2,20.8-5.2,8.9-7.6,22.3-13.4,30.6s-48.5,28.9-59.6,33.4c-15.1,6.1-64.1,21.2-78.8,21.2s-63.4-15.1-78.8-21.2c-11.1-4.4-55.3-26-60.6-34.4-6.9-11.1-8.5-31.6-21.5-37.6-14.4-6.6-26.5-2.6-33.9-20.1-1.1-2.5-2.5-10.3-2.8-10.7-1.3-1.6-1.8.4-2.2,1.3-1,1.8-4.8,14.6-4.8,16.2v30c0,.3,1.4,1.4,1,2.5-1.7.2-3-.3-4.4-1.1-15.2-8.7-49.8-45.6-54.8-62.2-6.2-20.6-5.2-52.1-25.9-65.1-8.2-5.2-18.3-.3-24.7-3.3-.9-.4-12.2-14.2-12.7-15.3-2.1-5.2-.2-29.6-.5-37.4-.4-9.1-2-18.5-3-27.5-4,1.6-7.6,4.7-11.9,5.6-2.8.6-5.6.7-8.5.3l-35.7-14.3c-1.5-7.3-2.1-14.8-4-22-4.3-16.8-16.4-36.3-26.5-50.5-2.2-3-13.9-15.8-14.2-16.8-1.1-3.6.8-8.3,1.8-11.8,5-18.6,17.3-42.1,27.6-58.4,2.5-4,17.5-26.2,20.1-26.9,6.2-1.8,15.2,12.1,22.3,12.8.7-.7-9.3-13.3-10.4-15.1-4-6.2-14.5-22.3-16.8-28.2-2.7-7.1,5.4-22.1,6.9-30.5,1.9-10,.2-18.4,1.3-27.7,1.2-11,17.6-11.6,25.8-15.7,2.1-4.7,2-9.6,3.2-14.8h.4v-.2ZM799,1627.5v-20c0-3.5,9.1-26.6,11.7-27.4,6.9-2.2,27.9,17.6,32.8,22.9,7.6,8.1,14.7,20,23,27,10.5,8.8,23.6,12.8,33.5,23.6,22.2,24.2,21.6,36,55.1,50.9,29.5,13.1,59.4,23.9,92.4,17.4,12.7-2.5,58.9-21.3,68.9-29.1,12.4-9.6,23.1-31.8,35.2-42.8,9.6-8.8,25.5-14.6,34.6-23.4,6-5.9,12.7-15.8,18.4-22.6,2.8-3.3,8.4-7.2,10.3-10.7,4.4-8.2,10.5-40.4,10.3-49.8-.3-12.5-3.5-25.3-4.2-37.8-17.1-12.8-20.5-.4-31.4,9.3-16.5,14.9-41.1,22.8-63,25-69.4,7-135.6,7-205,0-22-2.2-46.4-9.9-63-25-7-6.3-10.5-15.9-22-15.1-3.7.3-6,3.1-8.5,3.7-4.9,1-22.9-12.7-28.3-15.8-18.4-10.2-46.1-20.5-61.1-34.9-6.9-6.6-2.4-11.8-2.5-19.5s-3.8-23.4-6.8-30.2c-.5-1.1.2-1.5-1.7-1.3-9.4,1.3-19,20.2-19.3,28.8-.2,6.3,6.7,18.5,7.6,26.9,1.5,13.9-4.4,40.4,8.8,49.2,12.8,8.6,39.9,13.7,50.8,26.2,5.7,6.6,1.5,7.9.7,14.6-3.6,29.6,1.4,55.9,20.9,78.9.5.6,3.9,4,2,1h-.2ZM1248,1630c19.4-21.2,26.1-39.8,25-68.5-.3-7.8-4-21.4,0-27.8,4-6.1,20.2-13.6,27.2-16.8,15.2-7.1,31-7,32.7-27.3,1.3-14.8-1.6-26.3,2.5-41.5,3.4-12.7,7.8-13.2,2.5-27.5-2.8-7.7-9.2-17.6-18-18.4-5.5,13.3-7.4,26.1-7,40.5,0,3,2.2,4.9,0,8.1-1.5,2.2-16.5,12.2-19.8,14.2-9.2,5.7-59,28.5-60.9,35.1-2.7,9.4,7.3,31.3,8.6,41.6l-10,40.5c2.4-1.4,5-2.6,7.9-1.9,6.7,16.4,13.1,31.6,9.1,49.9v-.2h.2ZM780,1448c-2-1.4-5.5,2.6-5.8,4.7-.9,5,7.2,15.1,12.8,15.2-.9-2.6-6.1-19.4-7-20h0Z"/></g><g id="03_Mouth" data-trait="cracked scrappy"><path id="fill-muzzle-1" class="fill"  fill="#fff" d="M1038 1292s-.4 1.7.7 2c10.3 2.8 18 4.3 25.8 13 1.9 2.2 4.9 8.8 6.5 9.5 2.6 1.2 6.6 0 9.5.5 11.4 1.5 21.2 3.7 31.2 9.8 2.1 1.3 9.2 7.8 10.2 7.1.3-.3 0-1.7 0-1.9 2.4-1.8 32.7.6 38 1 5.2 4.2 13.2 5.5 19.2 8.3 13.7 6.4 22.5 16.1 29.9 29.1 8.4 14.6 7.7 17.8 3.1 33.4-2.5 8.5-4.8 21.8-16.3 20.2 1.5-15.5-14.8-32.4-26.5-41-3.2-2.4-11.3-7.2-6 0 10.7 14.6 20.5 15 21.5 37.5.5 10.4-8.3 32.8-15.4 40.5-.6.7-7.1 6.3-7.6 6.5-3 1.6-6.8-6.1-7.8-8.2-3.7-7.7-4.8-15.6-9.7-23.3-1.1-1.7-10.8-13.7-12.4-12.1 5.6 13 9 46.2-2.5 56-4.4 3.7-9.4 1.9-13.3 3.7-2.8 1.3-3.1 5.8-4.8 6.2-.9.2-7.2-3.2-9.4-3.5-9.3-1.3-13.1 17-18.7 17.4-2.5.2-10.7-11.9-18.4-9.4-6.8 2.2-15.3 20.6-23.6 23.5-7.3-4.5-4.2-14-6.6-21.1-1.2-3.5-4.2-6.7-5.8-10.2-5.4-12.7-2.8-19.9-.2-32.2.7-3.3-.2-6.3 1.2-9.8.4-1 6-11.5 6.6-12.4 3.7-5.4 19.2-12.4 22.7-3.8.9 2.2 0 8.7 2.2 7.7 5.1-4.9 10.2-9.9 15.5-14.5 10.2-8.9 12.8-8.2 19.5-21.5 1.9-3.8 8.1-17.3 8.2-20.7.2-6.3-17.9-22.6-21-29-3.6-2.9-22.1-2.8-27.2-2.3-14.1 1.5-18 12.2-27.5 19.5-1 .8-1.3 1.9-3 1.5l.8-12.7c7.6-8.2 14.9-16.6 21.1-26 .7-3.3-8.6-12.4-11.3-13.2-3.6-1 .5 5.5.5 6.6.4 5.2-5.9 4.1-9.3 5.6-1.2.5-3 2.7-3.2 2.7s-2-2.2-3.2-2.7c-8-3.5-11.7.6-7.3-12.2-1.6-1.7-12.5 9.1-12.9 11.7-.2 1.6 3.6 7.8 4.8 9.5 1.5 2 5 5.9 7 8.3 3.2 3.9 9.7 7.7 9.9 13.1 0 1.6-.8 3.1-.8 4.8s2.6 8.1-2.5 3.6c-6.2-5.3-10.1-13.6-18.5-17.5-6.8-3.1-28.3-4.1-34.7-.8-.8.4-9.9 11.1-11.2 12.8-2.4 3-10.9 13.7-10.8 16.8.2 5.1 11.2 27.9 14.7 32.2 2.8 3.4 10.2 7.7 14 11 5 4.3 9.7 9.1 14.5 13.5 2.2.9 1.5-5.2 2-7 2.4-9.9 19.2-2.4 23 3.1.7.9 6.6 13.1 6.9 14.1 2.9 11 5.6 26.6 1.9 37.5-1.7 4.9-6.8 10.4-7.8 15.2-1.4 6.6 1 13.6-5 19-5.3 1.2-18.8-21.7-24.4-23.5-8.2-2.6-15.9 9.6-18.4 9.4-5.3-.4-8.7-14-13.9-16.1-6.9-2.8-11.5 2.7-14.1 2.1-1.8-.4-2-4.8-4.8-6.1-4.5-2-9.6.3-14.3-4.7-10.9-11.5-6.5-42.2-1.5-56.1-9.1 6.7-14.1 14.8-18.5 25-1.6 3.6-2 7.5-3.7 11.3-1 2.1-4.9 9.8-7.8 8.2-.4-.2-6.9-5.8-7.5-6.5-4-4.2-13.8-24.3-15-30-2.8-12.9 1.4-26.5 9.5-36.5 4.1-5.1 11.3-9 13-15.5-2.4-2.4-22.3 17.4-24.4 20.1-5.4 6.8-11 15.9-9.6 24.9-4.7.2-8.1-.7-10.8-4.7-1.8-2.7-8.8-24.3-9.2-27.8-1.1-10.9 10.9-28.8 18-37 10.5-12.2 24.5-14.2 38-21.5 12.5-.8 24.5-2.3 37-1 0 0 .7 2.1.5 3 9.5-8.2 20.6-14.8 33.1-16.9 4.7-.8 14.8-.4 18.1-1.8 1.6-.7 5.2-7.7 7.2-9.9 8-8.4 15.2-9.7 25.4-12.5 1.1-.3.6-1.9.7-2 1.1-.7 25.9-.7 27 0Z" class="fill" data-original-prefix="fill"/><path id="fill-teeth16" class="fill"  fill="#fff" d="M995.3 1525.7c11 9.5 17.2-6.6 23.2 6.3 6.5 14.1 3.7 38.4-1 52.9-.7 2.1-7.1 16.9-8 17.1-1.2.3-3-.4-4.2-.9-12-5.1-31.7-18.1-39.1-28.9-10.6-15.5-6.4-42.9 6.8-55.8 1.3-1.3 9.1-5.6 10.4-5.3 1.5.3 9.4 12.3 12 14.5h-.1Z" class="fill" data-original-prefix="fill"/><path id="fill-teeth15" class="fill"  fill="#fff" d="M1039.1 1601.9c-.8-.5-7.5-16.1-8.1-18.4-4.1-13.8-6.5-36.9-1.3-50.3 4.6-12 8.1-4.3 15.8-4.2 9.5.2 17.3-18.2 20.8-17.9 1.2 0 8.5 4.2 9.7 5.3 6.3 6.2 12.2 22.3 13 31 2.4 28-20.3 39.6-41.3 50.7-2 1.1-5.7 5.5-8.6 3.7Z" class="fill" data-original-prefix="fill"/><path id="fill-teeth14" class="fill"  fill="#fff" d="M904 1461c0 2.2-1.1 3.8-.8 6.2.2 1.8 7.1 22 8 23.1 3.9 5.1 11.2 3.2 16.7 3.8 4.9 13.5-4.2 23.8-8.6 35.6-2 5.3-8.7 33.1-12.8 34.2-1.8.5-6.8-9.1-8.3-10.7-10.3-23.9-15.3-58.4-2.6-82.2.6-1.2 7.1-11.6 8.4-10.1Z" class="fill" data-original-prefix="fill"/><path id="fill-teeth13" class="fill"  fill="#fff" d="M1144 1564c-2.1 1.4-6.1-7.1-6.8-8.7-3.2-7.9-4.4-17.4-7.5-25.5-4.3-11.6-13.6-22-8.6-35.6 4.8-.6 12.3 1.2 15.9-2.9 1.3-1.5 8.1-20.6 8.6-23.2.3-1.8-1.4-7 .9-6 6 2.7 13.7 26 14.4 32.6 1.4 13.9-2.9 45-9.3 57.4-.8 1.5-7 11.6-7.6 11.9" class="fill" data-original-prefix="fill"/><path id="fill-teeth12" class="fill"  fill="#fff" d="M1093.1 1644.9c-2.9-1.8-2.4-28.5-2.1-33.4.7-10.5 5.2-31.2 8.9-41.1 1.1-2.8 2.4-1.4 4.2 0 12.2 9.6 21.1 44.8 12.8 57.9-1.9 3-15.6 14.9-18.9 16.1-1.3.5-3.8 1.1-4.8.4Z" class="fill" data-original-prefix="fill"/><path id="fill-teeth11" class="fill"  fill="#fff" d="M949 1569c5.5 22 11.1 44.4 9 67.5-.5 5.2-.9 10.3-7 8-3.4-1.3-17.5-13.4-19.5-16.5-5.8-9.2-1.4-31.3 2.7-41.2 1.2-2.9 11.3-21 14.8-17.7Z" class="fill" data-original-prefix="fill"/><path id="fill-teeth10" class="fill"  fill="#fff" d="M881.7 1478.3c3.1 2.8-2.7 21-2.8 26.2 0 5.9 2.6 12.4 3.1 18 .2 2.1.7 24.5-.5 24.5-1.5.2-2.1-1.1-2.9-2.1-15.6-18.9-34.8-51.8-17.4-75.3 6.5-8.8 10.5 2.1 14.9 5.8 1.8 1.5 4.9 2.1 5.7 2.8Z" class="fill" data-original-prefix="fill"/><path id="fill-teeth9" class="fill"  fill="#fff" d="M1185.7 1467.3c1.9 1.6 7.8 13.7 8.2 16.2 3.2 20.7-9.8 47.3-23.9 61.9-.9 1-1.3 1.9-3 1.5.5-8-.7-16.6 0-24.5.4-5.4 3.1-12.3 3.1-18s-6.1-23.4-2.8-26.2c.6-.6 2.5-.6 3.8-1.7 3.4-3 10-13.1 14.7-9.3Z" class="fill" data-original-prefix="fill"/><path id="fill-teeth8" class="fill"  fill="#fff" d="M1018 1613v16.5c0 .9-10.8 13.2-11.9 14.1-6.3 4.8-8-2.6-10.6-5.5-5.5-6-17.9-.4-24.4-5.6-1.2-.9-4.1-8.8-4.1-9.9v-22.5c12.9 1.7 28.3 17.5 41.4 15.9 3.5-.4 6.1-3 9.6-2.9Z" class="fill" data-original-prefix="fill"/><path id="fill-teeth7" class="fill"  fill="#fff" d="M1031 1613c6.3 1.3 9.1 4 16.1 2.6 10.6-2.2 24.3-14.8 33.4-15.6 2-.2 1.4 0 1.2 1.3-.8 6.5 2.4 27.5-4.4 31.6-7 4.2-18.8-.3-23.4 4.6-2.1 2.2-3.6 8-8.4 7.6-1 0-14.6-13.5-14.6-14.6V1613z" class="fill" data-original-prefix="fill"/><path id="fill-teeth6" class="fill"  fill="#fff" d="M1102.5 1494c3.3-.8 4.5 6.9 5.3 8.7 5.6 12.1 13 24.8 13.3 38.8.2 9-16 29.8-21.3 16.2-4-10.4-4.1-44.8-1.1-55.5.4-1.6 2.4-7.9 3.8-8.2" class="fill" data-original-prefix="fill"/><path id="fill-teeth5" class="fill"  fill="#fff" d="M937.3 1559.7c-1.9-1.6-7.8-10.5-8.5-13-3.6-12.1 6-31.3 11.4-42 1.6-3.1 3.3-14.7 8-7.4 5.5 8.5 4.3 41.5 2.7 52.1-1.2 7.7-3.6 18.7-13.6 10.3" class="fill" data-original-prefix="fill"/><path id="fill-teeth4" class="fill"  fill="#fff" d="M917 1563c-1.8 13.4 2.9 27.5 2 40.5-.6 9-4.4 18.4-5.5 27.5-6.2-6-10.5-16.1-11.4-24.6-.5-5.2.7-24.7 2.4-29.3.6-1.6 10.5-16.2 12.4-14.1Z" class="fill" data-original-prefix="fill"/><path id="fill-teeth3" class="fill"  fill="#fff" d="M1135 1631c-.4-8.9-4.4-17.8-5.1-26.5-1-13.8 3.7-27.6 2-41.5 2.2-2.4 11.9 13 12.5 15 2 6.6 2.6 27.4 1.2 34.3-1.3 6.3-5.5 14.9-10.8 18.7z" class="fill" data-original-prefix="fill"/><path id="fill-teeth2" class="fill"  fill="#fff" d="M1154.1 1604.9c-3.4-2-5.1-22.3-3.9-26.2.8-2.6 8.9-5.2 10.2-8.8l5.1-10.9c3.8 3.4 5.1 7.2 4.3 12.2-.7 4.2-5.4 22.7-6.9 26.2-.9 2.2-6.1 9-8.8 7.5" class="fill" data-original-prefix="fill"/><path id="fill-teeth1" class="fill"  fill="#fff" d="M885 1559c-.3 3.7 1.7 9.4 4 12.2s9.5 5.2 10 8.3c-2 8.4 1.6 19.2-5.7 25.4-3.6-1.1-6-4-7.4-7.4s-6.5-23.6-6.9-27.1c-.5-4.2 1.2-10.6 5.9-11.4z" class="fill" data-original-prefix="fill"/><path id="outline-shading-mouth2" class="outline"  fill="#000" d="M918 1443.5c.8 5.3 5.6 13.8 10.1 16.9 11.5 8.3 16.2-.3 22.4-9.4 2.5 5.4 3.4 11.5 6 17 1.4 2.8 5.7 12 7.5 5.5l4-11.5c1.6 7.5 6.3 15.4 11.5 21 4.3 4.7 18.8 15.4 24.6 9.6 2-2.1 8.3-17.9 10.8-22.2 1.2-2.2 7.8-13.8 9.7-13.3 1 .2 8.5 13.2 9.7 15.3 2.4 4.5 7.3 17.7 9.8 20.2 3.8 3.8 10.5.4 14.4-1.8 10.5-5.9 18.5-17.2 21.7-28.8l4.2 12.3c.3 1.2 1.9 2.4 2.8 1.7.6-.4 5.8-11.3 6.5-13 .8-2 2.8-12 4-12 6.8 10.7 12.9 18.4 24.5 7.5 8.6-8 9.3-23.8 7-34.5 3.5-3.1 21.1 16.1 26.6 16.9 9.1 1.4 17.6-11.8 19-19.9 3.5-20.5-12.9-39.2-30.9-46.2l-12.7-4.8c15.4 0 28.2 2.9 41.1 11.4 4.8 3.1 12.2 10.9 17.6 11.4 6.2.6 10.1-4.1 10-10-.4-19.3-25.8-38.1-39.7-48.8 15.4 2.4 34.6 11.8 45 23.5 7.8 8.8 19.1 25.1 19.1 37s-6.4 28.5-9.2 32.8c-3.3 5.3-11.7 5.4-13.4 10.6-.9 8.1-2.1 16.4-2.5 24.5-1.5 29 1.4 45.2-10.8 73.2-3.6 8.2-12.7 20.4-14.9 27.1-4.2 12.8-.7 26.4-9.1 38.9-3.2 4.8-8.4 6.7-11.2 10.8-1.7 2.5-2.4 6.1-4.2 8.8-4.5 6.7-14.6 23-21.6 8.9-1.6-3.3-1.3-12.9-6.7-6.2-1.4 1.7-1.9 4.4-3.5 6.5-3.7 4.7-17.7 19.6-23.5 19.5-2.2 0-4.5-4.1-6.6-5.4-7.9-5-21.1-6.3-29.2-1.4-7.3 4.4-9.5 13.6-18.1 6.8s-6.4-10.8-20.1-9c-5.6.7-11.4 12.6-16.9 12.1-2.8-.2-11.4-11.1-18.5-12.6-6.3-1.3-17.5.7-23 4.2-2.6 1.7-4.1 5.6-7.5 5.4-5.7-.3-19.8-15.8-23.6-20.5-1.2-1.5-4.4-10.6-7.1-6.9-2.5 3.4-.6 9.9-7.2 12.7-7 3-14.9-11.2-18.1-16.4-1.2-1.8-1.2-4.3-2.6-6.4-2-3-6.8-5.4-9.5-8.5-10.4-11.9-6.7-27.7-10.7-41.3-.8-2.6-5.6-8.5-7.3-11.7-18.4-35.7-16.4-45.6-18.4-84.6-.4-7.7-.6-20.7-2.2-27.8-1.5-6.2-11.1-6.1-14.2-11.8-3.4-6.1-9.3-29.6-8.6-36.4 1.2-10.3 16.2-31.2 24-38 10.5-9.2 26.2-16.5 40-18.5l-21.5 17c-7.2 6.4-26.8 32-14.8 39.9 9 5.9 16.7-4.5 23.7-9.1 12.7-8.4 25.3-11.8 40.7-11.8l-17.3 7.2c-18 9.4-33.1 32.7-22.1 52.8 1.7 3.1 8.6 10.4 12 11.1 9.1 1.7 20.7-15.4 29.5-18 .6 6.4-.9 14.3 0 20.5zm-37.1 40.6c-12.3-.5-17.1-20.2-22.8 1.5-3.4 13 1.2 26.4 9.4 36.5 1.5 1.8 12.7 13.1 13.9 12.9.8 0 2.5-2.3 2.8-3.2 2.9-7.1-3.2-12.2-4.2-19.2-1.5-9.8 0-18.7.9-28.4Zm301.8-8.9c-3.2.8-6.3 6-8.8 7.3-2.1 1.1-7.2 1-7.8 3.2-.5 1.7 3 10.8 2.9 14.8 0 3-1.5 13.9-2.2 16.8-.9 3.6-3.9 5.7-3.9 10.2s1.4 7.1 3.7 7.4c1.9.3 15-14.4 16.8-17 5.7-8.5 9-18.8 7.3-29.2-.5-3-4.4-14.5-8-13.6Zm-284.8 10c-4-2.3-6.5 9.9-6.8 12.5-1.2 10.5 3 38 8.7 47.1 1.9 3 5.4 6.9 9.2 7.3 3.7-15.6 12.6-29.2 21-42.5-2.3-.4-1.7-2.9-2.7-3.5-1.5-.9-7-1.9-9.7-3.1-4.7-2.2-12-7.7-15.6-11.4-1.2-1.2-3.8-6.2-4.2-6.3ZM1139 1552c8.3-2 11.9-12.2 13.9-19.6 3.1-12.1 6.1-33.4 1.1-44.8-3-6.9-5.8 1.7-8.3 4.1-3.9 3.8-11 9.3-16 11.6-2.5 1.1-7.8 1.8-9.1 2.7-.7.5-.5 1.8-1 2.7-.3.4-1.7.4-1.6.9 0 1 7.9 12.3 9.2 14.8 4.8 8.8 9.1 18 11.8 27.7Zm-197.7 5.7c8.1 8.1 9.5 0 10.5-7.3.8-5.6 2.7-20.6 1.7-25.4-3.6-17.2-21.3-15.9-21.6 3.6 0 6.8 4.6 24.3 9.4 29.2Zm161.5-44.5c-5 1.3-8.5 9.3-8.8 14.2-.2 4 2.4 28.5 3.8 31.3 2.5 5 7.5 0 9.8-2.7 6.8-8.3 11.6-30.7 4.5-39.5-2.7-3.3-4.8-4.4-9.2-3.3zM1023 1544c-.7-.7-.8-7-5.1-9.4-8.9-5-21.8-.8-32-4-10.4-3.3-9.4-13.1-16.1 1.8-2.9 6.4-9.1 24.4-6.3 30.7 1.1 2.4 17.8 15.6 21.2 17.8s18.2 11.7 21.1 10c3.1-5.6 9.3-9.5 12.6-14.9 1.8-2.8 4.1-11.5 4.6-11.9 1.6-1.7 1.7.5 2.1 1.4 1.6 3.6 2.1 6.8 4.5 10.5 3.3 5.2 9.2 9.3 12.4 14.6 3.1 1.9 15.5-5.9 18.9-8.1 4.5-2.9 22.9-17 23.9-21.1 2.2-9.7-6.6-28.3-10.9-37.2-4.9 1-7.8 5.2-12.7 6.7-9.2 2.8-28.2-1.6-33.7 6.3-.9 1.2-2.6 8.9-4.5 7zm-136 18c-.7-.6-3.5 0-4.5.9-6 6.2 2.4 31.6 14.6 27.6 4-1.3 3.8-9.4 2.8-12.9-1.1-3.9-7.2-4.1-9.8-7.2-2.1-2.5-2.7-8.2-3-8.5Zm274.1 0c-.3.3-.9 6-3 8.5-2.6 3.1-8.7 3.3-9.8 7.2-1 3.4-1.2 11.6 2.8 12.9 13.4 4.4 20.2-24.5 14.1-28.1-.9-.5-3.5-.9-4-.4Zm-216.4 7.2c-1.5.4-5.1 4.6-6 6.1-3.4 5.6-5.6 32.3-4.8 39.3 1.3 10.9 15.2 18 19.5 3.5 1.7-5.6 2.6-21.4 2.5-27.6 0-1.1-5.8-19.7-6.5-20.5-1.2-1.4-3.2-1.3-4.8-.8Zm153.3-.1c.2 6.6-5.4 14.7-6 20.6-.5 4.5 1 25.3 2.4 29.4 4.2 12.1 16.9 7.3 19.1-2.9 1.1-5.2 0-16.8-.6-22.6-1-9.7-1.7-25.5-14.9-24.5m-180 1.9c-20.5 3.8-17 28.7-9 43 4 2.9 10.4-17 10.7-19.8.9-7.5-2.9-15.5-1.8-23.2Zm218 43c2.5 1.8 7.2-9.1 7.7-10.8 3.9-12.8 1.6-30.1-13.7-32.2.5 7.4-2.8 16.2-1.9 23.4.3 2.7 6.4 18.5 7.9 19.6m-148.2 10.2c1.4.8 4.8 8.6 9.5 11 11.1 5.8 20.2-6.4 20.7-16.7.8-13.7-7.2-7.7-16.5-8.6-8.4-.8-15-4.8-21.8-9.2-5.5-3.5-13.6-14.6-14.7-1.4-.5 5.1 1.4 7.5 1.8 11.2s-2 5.9.5 10.7c4.8 9.3 18 1.3 20.7 2.8zm93.1-31.1c-2.1-1.5-19.7 12.7-23.9 14.4-2.3 1-7.9 2.3-10.5 2.5-10.5.9-18.8-5.4-16.4 11.4 1 7.3 7.9 15.8 16 15.1 9.4-.8 11.9-11.6 14.6-12.4 4-1.3 12.3 5.7 18.9-1.1 4.3-4.4 1.3-8.4 1.5-12.5 0-2.3 1.9-4.8 2-8.1 0-1.9-.8-8.5-2.2-9.4Z" class="shading" data-original-prefix="shading" opacity=".2"/><path id="outline-shading-mouth1" class="outline"  fill="#000" d="M1041 1343c6.1.5 12.7-1 17.5-5 1.5-1.3.9-3.7 2.8-2.9 10.1 7.9 37.9 17.4 43.8 28.2 3.6 6.5 4.6 17.5-1.8 22.6-5.6 4.5-20.8 10.8-28 15-4.9 2.8-9.7 6.6-14.7 9.3-7.4 4.1-25.5 14.5-32.6 16.4-2.9.8-5.2.8-8.1 0-14.5-3.8-42.2-22.5-56.3-30.7-6.2-3.6-21.2-9.1-23.2-15.8-5.5-18.4 15.7-28.3 28.7-35.4 2.3-1.2 15.5-8.6 16.5-8.7 2.9-.3 4.2 2.9 6.7 4.2 4.2 2.3 10 3.2 14.7 2.8-.3-5.1-3.3-11.3-1.8-16.3.5-1.6 12.5-13.9 14.5-14.4 3.9-1 8.2-.3 11.6 1.9 1 .7 10.8 11.1 11.2 11.8 2.1 5-1.2 11.8-1.5 17" class="shading" data-original-prefix="shading" opacity=".2"/><path id="outline-mouth3" class="outline"  fill="#000" d="M889 1333c-13.5 7.3-27.4 9.4-38 21.5-7.1 8.2-19.1 26.1-18 37 .3 3.5 7.3 25.1 9.2 27.8 2.7 4 6.1 4.9 10.8 4.7-1.4-9 4.2-18.1 9.6-24.9 2.1-2.6 22-22.5 24.4-20.1-1.7 6.5-8.8 10.4-13 15.5-8.1 10-12.3 23.6-9.5 36.5 1.2 5.7 11 25.8 15 30 .7.7 7.1 6.3 7.5 6.5 3 1.5 6.9-6.1 7.8-8.2 1.7-3.8 2.1-7.7 3.7-11.3 4.4-10.2 9.4-18.4 18.5-25-5.1 13.9-9.5 44.6 1.5 56.1 4.8 5 9.9 2.7 14.3 4.7 2.8 1.3 3 5.7 4.8 6.1 2.6.6 7.2-4.9 14.1-2.1 5.2 2.1 8.6 15.6 13.9 16.1 2.5.2 10.2-12 18.4-9.4 5.6 1.8 19.1 24.8 24.4 23.5 6.1-5.4 3.7-12.4 5-19 1-4.8 6.1-10.3 7.8-15.2 3.7-10.9 1-26.5-1.9-37.5-.3-1.1-6.2-13.2-6.9-14.1-3.8-5.5-20.6-13-23-3.1-.4 1.8.2 7.9-2 7-4.8-4.4-9.5-9.2-14.5-13.5-3.8-3.3-11.2-7.6-14-11-3.5-4.3-14.5-27.1-14.7-32.2 0-3.1 8.4-13.8 10.8-16.8 1.4-1.7 10.5-12.5 11.2-12.8 6.4-3.2 28-2.3 34.7.8 8.4 3.8 12.4 12.1 18.5 17.5 5.2 4.5 2.5-1.7 2.5-3.6s.9-3.2.8-4.8c-.2-5.4-6.7-9.2-9.9-13.1-2-2.4-5.5-6.3-7-8.3-1.2-1.7-5.1-7.9-4.8-9.5.4-2.6 11.3-13.4 12.9-11.7-4.4 12.8-.7 8.7 7.3 12.2 1.2.5 3 2.7 3.2 2.7s2-2.2 3.2-2.7c3.4-1.5 9.7-.4 9.3-5.6 0-1.1-4.1-7.6-.5-6.6 2.8.8 12.1 10 11.3 13.2-6.2 9.4-13.5 17.8-21.1 26l-.8 12.7c1.7.4 2-.7 3-1.5 9.5-7.3 13.4-18 27.5-19.5 5.1-.6 23.6-.6 27.2 2.3 3.2 6.4 21.2 22.7 21 29 0 3.4-6.3 16.9-8.2 20.7-6.8 13.3-9.3 12.6-19.5 21.5-5.3 4.6-10.4 9.6-15.5 14.5-2.2.9-1.4-5.6-2.2-7.7-3.4-8.6-19-1.6-22.7 3.8-.6.9-6.2 11.4-6.6 12.4-1.3 3.6-.5 6.5-1.2 9.8-2.6 12.3-5.2 19.6.2 32.2 1.5 3.5 4.6 6.8 5.8 10.2 2.4 7.1-.8 16.6 6.6 21.1 8.3-2.8 16.9-21.3 23.6-23.5 7.7-2.4 15.9 9.6 18.4 9.4 5.6-.5 9.4-18.8 18.7-17.4 2.2.3 8.4 3.7 9.4 3.5 1.7-.4 2-4.9 4.8-6.2 3.9-1.8 8.9 0 13.3-3.7 11.5-9.9 8.1-43 2.5-56 1.6-1.6 11.3 10.4 12.4 12.1 4.9 7.6 6.1 15.6 9.7 23.3 1 2.1 4.8 9.8 7.8 8.2.4-.2 6.9-5.8 7.6-6.5 7.1-7.7 15.9-30.1 15.4-40.5-1-22.4-10.8-22.9-21.5-37.5-5.3-7.2 2.8-2.4 6 0 11.8 8.6 28 25.5 26.5 41 11.4 1.6 13.7-11.7 16.3-20.2 4.6-15.6 5.3-18.8-3.1-33.4-7.4-13-16.3-22.7-29.9-29.1-6-2.8-14.1-4.1-19.2-8.3 9.3.7 19.7 2.8 29.2 5.3 7.4 1.9 14.4 3.9 20.7 8.3 3.2 9.3 27.6 34.6 28 42 .2 3.9-8.4 23-10.2 28.7-2.4 7.4-1.3 15.8-9 20-2.1 1.1-8.8 2.4-9.5 3-3.6 3.6-1.9 26-2.2 32.3-1.2 29.7-2.2 52.7-20.5 77.5-.9 1.2-2.6 1.5-3.6 2.7-4.3 5.6-2.8 18.6-4.3 26.5-1.1 6-5 13.1-5.6 18.4-.4 3.6 1.4 7.3.2 10.1-1 2.4-9.9 8-12.6 9.5-2.2 1.2-5.7 1.5-6.5 2-.6.4-5.4 10.9-7.2 13.3-2.1 2.7-11.1 11.3-14 12.1-4.1 1.2-7.9-10.3-9.9-13s-2.3 2.3-3.6 4.3c-4.3 6.7-25.1 26.6-32.4 28.6-1.7.5-3.3.7-5 .5-.2-6.5 3.6-11.9-3-16.5-7.6-5.2-17.7 0-21.5 7.4-4.2 8.3-1.8 29.9-14.4 16.5-7.1-7.5-13-17.8-18.5-26.4-2.8 5-19.9 30.6-24 31-5.8.6-5.9-11.5-7.2-15.8-2.5-8.5-10.5-17.7-20-14.4-12.1 4.1-4.7 16.7-6.3 18.2-6 1.1-9.7-4.5-15-5-1.3 6.3-5.2 11.9-5.1 18.5.2 11.2 13.9 23.7 10.9 33.8-.8 2.7-3.4 3.2-5.5 1.4-3.7-3.3-7.9-17.8-10.4-23.1-3.8-8-11.3-14.9-9.4-23.7 1-4.7 7.9-13.9 7.6-17.4-.5-5.3-12.8-12.5-12-18.6-1.2-.2-1.3-.3-2.1.6-2.1 2.7-6.2 14.3-10.2 13.3s-12-10.2-13.7-12.4c-2.1-2.7-6.6-12.8-7.2-13.2-.7-.5-4.2-.8-6.5-2-2.5-1.3-12.6-7.8-13.2-9.9s1.2-6.2.8-9.7c-.6-5.1-4.5-11.5-5.6-17.4-1.7-8.4.3-19.9-3.9-26.1-5.9-8.8-10.5-12.8-15.3-23.7-13.6-31.3-7.5-52.3-10.1-83.9-.8-9.9-3.8-5.3-10.8-9.3-8.2-4.6-6.8-13.1-9.3-20.7-1.9-5.9-9.7-21.8-10-26.1-.2-3.3 1.1-4.7 2.5-7.3 6.8-12.4 18.9-24.3 26.1-36.9 5.9-4.3 13.2-6 20.1-7.9 9.7-2.6 19.8-4.7 29.2-5.3Zm15 128c-1.4-1.5-7.8 8.9-8.4 10.1-10.6 19.9-8.6 50.8-1.8 71.7 1.1 3.3 9.4 22.1 12.8 21.2 4.4-1.1 10.8-28.9 12.8-34.3 4.3-11.7 13.6-22.1 8.6-35.6-4.8-.6-12.2 1.2-15.9-2.9-1.4-1.5-8.5-21.7-8.8-24s.8-4 .8-6.2Zm240 103c.6-.4 6.8-10.5 7.5-12 6.2-12 8.8-32.9 9.5-46.5.8-15.3-4.1-32.2-14.6-43.5l-2.2 9.8c-4.9 13.6-4.6 25.2-23.1 22.4-5.2 13.7 4.3 23.9 8.6 35.6 3.1 8.4 6 27.5 11.8 33.2.7.7 1.4 1.8 2.4 1.1Zm-262.3-85.7c-1-.9-4.6-2-6.6-3.9-4.2-3.9-7.8-13.1-14-4.7-13.3 17.9-4.1 44.9 7 61.7 1.6 2.4 11.5 15.7 13.3 15.7.5-8 1.2-16.5.5-24.5-.4-5.4-3.1-12.3-3.1-18s6-23.3 2.8-26.2ZM1167 1547c1.7.4 2-.5 3-1.5 17.5-18 32.6-50.9 18.4-74.4-6.5-10.8-10.8-.4-16.9 4.9-2 1.7-5 1.6-5.5 4.5-.8 4.5 4 18.3 4 24s-3.3 14.8-3.6 21.2 1.6 14.6.6 21.3m-219.1-51.9c-4.7-3.3-6.5 7.1-7.7 9.6-5.3 11-11.8 23-12.2 35.8-.2 7.6 10.5 26.2 19.1 21 3-1.8 4.7-18 5-22 .4-6.4.2-41.4-4.1-44.4Zm67.8 32.2c-3.2-2.8-9.7 3.2-15.8 1.3-2.1-.7-8.7-7.5-10.5-9.5-2.6-2.9-3.4-8.8-8.2-7.4-12.2 3.5-20.5 24.1-21.2 35.9-.9 13.6 2.4 21.7 11.5 31.5 9.8 10.4 24 15.7 36.1 23h2.3c2.1-6.4 6.2-12 8.1-18.4 3.7-12.2 7.9-47.3-2.3-56.2zm23.4 74.6c1.1.7 3.4 0 4.6-.7 5.6-2.4 20.1-11.1 25.2-14.8 13.4-9.8 21.4-21.7 20.1-38.9-.9-11.9-9.2-33-22-36.1-4.4-1.1-5.5 5-8 8-1.7 1.9-7.3 7.9-9.2 8.8-9.2 4-14.3-9-20 5-5.4 13.2-2.6 37.5 1.5 51.1.7 2.2 7.1 17.1 7.9 17.6ZM885 1559c-3.2-3.3-6.4 8.4-5.8 12.3.7 4.5 5.4 23.4 7 27 1 2.2 6.2 8.5 8.7 6.7 3.4-2.4 3.2-20.7 4-25.4-.5-3.1-8.3-6.1-11-10-2.3-3.5-2.6-10.1-3-10.5Zm32 4c-1.9-2.2-11.8 12.5-12.4 14.1-1.7 4.6-3 25.2-2.4 30.3.9 7.9 5.6 18 11.4 23.6 1.4-8.8 5-18.6 5.5-27.5.8-13.1-3.7-27.1-2-40.5Zm218 68c7.1-5.4 12.1-18.8 11.8-27.5 0-2.6-1.7-5.2-1.8-8-.3-5.4.8-12.5-.5-17.5-.6-2.3-10.4-17.3-12.5-15 1.5 13.8-3.1 28-2 41.5.7 8.7 4.6 17.6 5.1 26.5Zm-35-62c-2.8 14.2-8.1 27.9-9 42.5-.3 5.3-1.4 33.3 3.6 34.4 2.4.6 18.8-13.3 20.9-15.9 8.3-10.5 3.8-32.3-1-44-1.2-2.9-11-19.9-14.5-17m-82 44c-3.5 0-6.1 2.5-9.6 2.9-12.7 1.6-29.1-13.9-41.4-16.9v24.5c0 .6 3.2 8.2 4.1 8.9 6.5 5.2 18.9-.4 24.4 5.6 2.6 2.9 4.3 10.3 10.6 5.5 1.1-.8 11.9-13.1 11.9-14.1v-16.5Zm64-13c-13.2 1.2-27.8 17.6-41.4 15.9-3.5-.4-6.1-3-9.6-2.9v17.5c0 1.1 13 14.6 15.4 14.5 4.9-.3 5.1-4.7 7.1-7 5.5-6 18.3-.4 24.4-5.6 1-.9 4-9.7 4-11v-21.5Z" class="outline" data-original-prefix="outline"/><path id="outline-mouth2" class="outline"  fill="#000" d="M1122 1332c-.2 0 .2 1.6 0 1.9-1 .8-8.1-5.8-10.2-7.1-10-6.1-19.8-8.3-31.2-9.8-2.9-.4-6.9.7-9.5-.5-1.5-.8-4.5-7.4-6.5-9.5-7.8-8.7-15.6-10.2-25.8-13-1.1-.3-.6-1.9-.7-2 3.1-3.8 16.2-9.3 20.8-9.8 7.9-.9 5.5 4.4 6.5 9.1 2.3 10.7 9.3 19.6 21.3 18.8 5.1-.3 5.6-4 7.9-4.1 1.4 0 6.6 2.9 8.2 3.8 9.4 5.2 15 12.5 19.3 22.2z" class="outline" data-original-prefix="outline"/><path id="outline-mouth1" class="outline"  fill="#000" d="M1011 1292s.4 1.7-.7 2c-10.2 2.8-17.4 4.1-25.4 12.5-2 2.1-5.6 9.2-7.2 9.9-3.4 1.4-13.5 1-18.1 1.8-12.5 2.1-23.6 8.7-33.1 16.9.2-.9-.5-2.8-.5-3 .7-2.3 8.9-13.5 11-15.5 2.4-2.4 14.7-10.5 17.6-10.4s3 5.1 11.9 3.9c10-1.3 16.2-10.1 17.5-19.6.4-2.6-2.4-6.7 2.8-8.2 3.5-1 21.7 5.6 24.3 9.8Z" class="outline" data-original-prefix="outline"/></g><g id="04_Eyes" data-trait="beaker"><g id="eyes-goggles"><path id="fill-eyes-skull" class="fill"  fill="#fff" d="M1337.7 1024.3c1.5.9 16.3 27.2 18.4 31.1 9.7 17.9 18.4 36.1 23.1 55.8.9 3.7 4.9 7.3-.6 11.5s-13.7 5.7-17.7 7.8c-9.3 4.9-18.6 9.9-27.5 15.5-1.2 42.7-11 81.2-47.2 106.8-43.1 30.5-110 44.9-161.5 32.9-13.7-3.2-24.1-9.2-39.1-3.9-11.8-10.4-26-18.9-37.7-29.3-7.2-6.4-13-14.8-20.5-20.5-2.7 1.3-6.1-.6-8.4.4s-13.7 15-17 18c-12.4 11.4-27.2 20.1-39.7 31.3-3.4.3-6.4-1.6-9.8-1.8-14-1.1-26.2 5.6-40.1 7.8-49.6 8.1-115.4-7.3-155.2-38.4-33-25.8-41.6-63-42.6-103.4-9.7-5.8-19.6-11.2-29.5-16.5s-18-6.5-18.9-12.2 2.6-4.6 3.6-7 .9-6.7 2.1-9.9c7.7-20.9 25.7-58.2 39.1-75.6s2.4-.4 3.1-1.3c18-23.8 37.3-50.3 58.9-70.8 140.3-133.5 334.8-143 483.5-16.5 25.5 21.7 43.5 44 64.5 69.5s10.4 15.7 12.5 17.5 3.2.6 4.2 1.3Z" class="fill" data-original-prefix="fill"/><path id="outline-eyes6" class="outline"  fill="#000" d="M696 1136c.7 5.7-1.4 11.4-2 17-1.4 1.2-21.5-7.8-24.8-8.7-13.8-4-26.1 4.1-24.1-17.7 2.4-26.3 17.9-67.1 30.7-90.3 4.9-8.8 24.5-40.3 33.1-42.9 3.1-.9 7.2 1.5 8.9.5.4-.3 3.7-6.5 5.2-8.3 78.3-95.7 168.6-146.9 294.5-148.6 132.9-1.8 222.6 47.8 306.4 147.6 1.4 1.7 5.8 9 6.2 9.3 2.4 1.4 7-1.2 9.8-.4 7.6 2.1 25.6 30.2 30.2 37.9 13.9 23.7 31.8 69 33.8 96.2 1.6 20.6-11.3 13.1-24.2 16.8-2.5.7-4.5 2.5-6.8 3.2-5.8 1.8-11.9 2.9-17.5 5.5l-3.5-17c.2-.3-.2-1.8.2-2.3 3.6-4.4 22.6-10.5 23.3-11.7 4.5-6.8-6.4-31.1-9.7-38.4-3.9-8.8-9.1-18.8-13.7-27.3-2-3.7-15.9-28.3-17.4-29.1-.5-.3-10.8-1.3-12.3-1.3-8.7 0-25.2 1.8-34 3.1-7.3 1.1-14.2 4-21.5 5-.4-1.8.9-2.5 2-3.5 10.3-10 25.8-16.8 38.1-24.1-2.6-12.8-10.1-23.8-18.6-33.4-37.8-43-100.8-73.6-152.2-97.8-64.6-30.5-162.4-29.5-226.7 1-47.5 22.5-138.9 67.2-163.2 114.8-1.5 3-6.7 13.2-4.5 15.5 9 5.4 19.5 10 28 16.1 2 1.4 13.1 9.4 11.1 11.4-7.1-1.7-14.2-3.9-21.5-5-8.8-1.3-24.5-3.1-33-3.1s-7.8 2-11.8 1.1c-9.3 14.8-18.8 29.9-26.6 45.6-4.4 8.9-14.4 29.9-15.1 38.9-.2 2.4-.6 9.7 1 11 1 .8 4.9 1.5 6.7 2.3 5.2 2.4 14.7 5.6 15.3 11.2h.2Z" class="outline" data-original-prefix="outline"/><path id="outline-eyes5" class="outline"  fill="#000" d="M981 1184c-1.9.4-2.4-1-3.4-2.1-13.3-14.7-23-34.8-35.1-47.9-22.5-24.4-60.9-45.3-87.4-65.6-1.2-.9-9.5-7-8.1-8.4 16.5 4.3 29.6 16 44.3 24.2 19.2 10.7 39.3 20 58.6 30.4 5.3 6 8.9 13.4 12.2 20.8 7.2 15.8 12.7 32.5 18.8 48.7Z" class="outline" data-original-prefix="outline"/><path id="outline-eyes4" class="outline"  fill="#000" d="M1202 1060c.4 1.8-.9 2.5-2 3.5-7.4 7.2-18.8 12.6-27.3 18.7-19.4 13.7-51 35.4-66.7 52.3-10.2 10.9-18.1 30.5-29.4 41.6l-8.5 8c6.1-16.2 11.6-32.9 18.8-48.7 2.4-5.2 7.3-16.6 11.2-19.8 22.4-12.8 46.4-23.4 68.7-36.3 11.5-6.6 21.7-16.7 35.3-19.2Z" class="outline" data-original-prefix="outline"/><path id="fill-eye-lens2" class="fill"  fill="#fff" d="M825.8 1080.2c12 .1 33 9.8 43.5 16 68.6 40.5 84.8 127.1 44.1 193.7-76.9 126.1-228.1 32.8-206.1-98.1 9.2-54.6 60.3-112.1 118.5-111.6" class="fill" data-original-prefix="fill"/><path id="fill-eye-lens1" class="fill"  fill="#fff" d="M1219.8 1080.2c40-2 88.2 33.9 106.4 68.1 21.9 41.4 22.5 93.8 1 135.3-36.3 70.1-124.4 91.4-178.1 26.8-49.9-60-50.7-147.2 10-200 13-11.3 43.7-29.4 60.8-30.3Z" class="fill" data-original-prefix="fill"/><path id="fill-eyes-rims" class="fill"  fill="#fff" d="M1443.4 1122.6c-15.3-2.5-30.1 1.3-45.4.6-11.1-.5-19.7-6.1-27.2-13.8-8.1-8.3-14.7-17.8-22.2-26.6-8.7-10.1-19.1-18.7-30.8-25.2-25.3-14.1-54.4-19-83-19.1-15.4 0-30.8 1.2-46.1 2.8-15.4 1.6-31 3-45.9 7.4-29.3 8.6-51.5 29.5-72.1 51.1-1.6.6-2.8 1.5-3.8 2.7-32.6.2-65.3-.3-97.9-1.5-.4-.8-.8-1.7-1.3-2.5-4.5-7-11.8-13-17.9-18.6-13-12-27.2-22.9-42.1-32.5-1.7-1.1-3.3-1.6-4.9-1.7-.7-.1-1.4-.2-2.1-.2q-50.7-.9-101.4-.3c-2.6 0-4.7.9-6.3 2.2-20.3 1.5-40.2 6.9-58.7 15.6-4.5 1.8-9 3.9-13.4 6.2-28 14.7-46 39-61.2 65.7-1.4-3.5-4.5-6.4-9.3-6.7-8.5-.5-17.1-.5-25.7.1-7.7.6-16.7 1-20.9 8.6-4 7.2 0 16.6.8 24.3.7 7.6.8 15.3.8 22.9.2 15.2-.3 32.1 4.7 46.6 4.6 13.3 19.9 13.5 33 11.2 3.2 24.9 8 49.3 20.1 71.7 21.5 39.6 60.8 69.1 104.3 80.2 22.9 5.8 46.5 6.2 69.7 1.5 13.9-2.8 27.4-7.3 40.7-12.3 13.6-5.1 27.5-10.1 40.5-16.6 24.8-12.4 43.4-32.7 55.3-57.5 10.6-22 16.5-45.7 20.7-69.7 18.7-2.9 37.9-3.1 56.7-.4 4 31 10 62.5 30.3 87.3 11.6 14.1 27.6 23.6 43.4 32.3 16.2 8.8 32.1 18.5 48.6 26.7 16.9 8.3 34.2 14.2 53 16.2 17 1.8 34.5.2 51.1-4 33.3-8.4 63.5-27.7 85.7-53.9 23.8-28.1 39.2-62.5 46-98.6 8.7-.6 17.3-1.3 26-1.9 5.9-.4 10.2-4.5 10.5-10.5 1.8-33.2 3.5-66.5 5.2-99.7.2-4.2-3.4-9.4-7.7-10.1Zm-541.8 195.8c-18.4 19.1-42.6 31.7-68.8 36.1-14.2 2.3-28.8 1.8-43-1.3-.8-1.4-2.1-2.6-3.8-3.5-31.8-16.3-58.5-40.6-77.7-70.4-.6-1.4-1.2-2.9-1.8-4.3-4.6-16.8-8.3-33.9-11.1-51.1v-3.4c.2-7 .6-13.9 1.1-20.8.4-5.7.8-11.5 1.2-17.2 11.8-42.8 44.9-79.7 87.9-93 5.8-1.8 7.9-6.4 7.4-10.9 36.8-4.6 75.8 5.9 104.7 29.2 14.9 12.1 27.1 27.2 35.9 44.2 0 .6-.1 1.2 0 1.8 0 .6.1 1.1.2 1.7 6.3 55.2 9.2 119.9-32.2 163Zm449.7-119.5c-.6 18.5-1.8 37.6-5.7 56-.6.9-1 1.8-1.4 2.8-7.6 22.3-19 43-33.4 61.5-11.4 9.9-24.6 18.2-37.8 25.1-14.8 4.9-30.8 7-46.4 6.5-16.3-.5-32.2-3.8-47.8-8.6-.8-1.5-2.1-2.7-3.7-3.4-6.9-3.3-11.9-8.6-17-14.1-4.9-5.3-9.7-10.7-14.4-16.3-9.2-11-17.8-22.7-24.5-35.4-6.6-12.5-11-26.1-12.4-40.2-1.4-14-1.4-28.2-4.4-41.9 1-5.1 2.2-10.1 3.7-15 5.2-17.8 13.2-36 24.1-51.8 13.3-13.7 27.4-26.8 43.2-37.1l21.3-11.1c.7 0 1.5-.2 2.3-.4 32.7-9.2 67.4-1.7 94.9 17.8 27.9 19.7 43.2 49.7 54.9 80.9l1.8 4.8c1.1 5.8 2.1 11.7 3 17.6-.2.8-.3 1.6-.4 2.4Zm21.6-13.6c-.4-1.4-.9-2.9-1.4-4.3.6 1.4 1.2 2.8 1.8 4.1-.2 0-.3.2-.5.2Z" class="fill" data-original-prefix="fill"/><g id="eyes-shading"><path id="outline-shading-eyes-9" class="outline"  fill="#000" d="M828 1341c30.3-58.6 59.5-117.8 86.6-178 1.4-2.2-5.1-12.5-6.1-13-1.6-.8-1.4.8-1.8 1.2-3.3 4.6-6.5 10.5-9.5 15.4-33.5 54.8-63.1 112.1-93.2 168.8-2.2 2.3-11.1-1.5-14.3-2.8-2.4-1-11.8-4.9-11.8-7.2l111.9-197.3c1-4-6.4-8.8-9.5-11.1-16.1-12-46.8-25.6-66.9-26.2-5.7-.2-6.7 3.5-9.5 7.5-11.7 17.3-22.5 38.9-32.5 57.5-18 33.7-35.5 67.9-50.5 103-1.7 1.2-4.2-10.7-4.5-12-6.3-28.1-5-57.3 3.3-84.8 3.1-10.4 8.7-19.5 13.3-29.2-1.1-1.2-9 7.3-10 8.5-25.8 29.8-29.6 76.5-18 113 19.8 62.7 60.6 106.8 131.4 97.3 35.1-4.7 61.4-30.6 80-59 3.7-5.6 19.1-35.9 22.3-36.8 9.1-2.6 3 15.1 1.8 18.8-14.2 44.2-63 92.9-110.9 96.1-146.7 9.8-214.5-185-101-273 34.5-26.8 62.1-29.6 105-26 26.1 2.2 68.2 30.1 85 50 11.3 13.4 24.8 43.2 26.4 60.6 2.1 22.3-6 49-12.6 70.2-9.5 30.6-31.5 65-61.3 78.7-4.2 1.9-25.1 9.5-28.5 9.5h-14.5Z" class="shading" data-original-prefix="shading" opacity=".2"/><path id="outline-shading-eyes-8" class="outline"  fill="#000" d="M1341 1197c-1.8.3-1.1 5.2-1 6.5.6 11.1 1.4 19.5 0 30.8-2.5 19.2-21.3 61.8-35.4 74.6-17.5 15.9-43.2 27.4-66.5 31 12.9-34.5 27.5-68.4 40.7-102.8 11.3-29.3 22-58.8 32.8-88.2 1.1-2.2-6.8-12.6-7.6-12l-91.1 201.4c-3.7 5.2-20.8-2.8-25.9-4.4l100-214.5c0-2.7-14.6-12.5-17.7-14.3-18.9-11.2-43.3-16.8-64.9-11.3l-79.4 169.1c-5.7-10.8-9.1-22.4-12.5-34-14.3-48.2 27.2-121 71.5-142.5 16.4-8 29.6-9.2 47.6-9.5 9.8-.2 18.8-1.7 28.1-1.9 18.6-.3 36.5 6.9 51.7 17.1 123.7 83 58.4 289-92.9 278.9-47.9-3.2-96.3-51.2-110.7-95.3-1.2-3.7-8-26.1 2.8-18.8 3.1 2 15.4 27.3 19 33 27.3 43.3 61.9 69.2 115.8 61.9 50.8-6.9 77.9-43.2 94.4-88.6 5.9-16.3 5.7-25.4 4.2-42.7-.7-7.8-2.7-15.6-3-23.5" class="shading" data-original-prefix="shading" opacity=".2"/><path id="outline-shading-eyes-5" class="outline"  fill="#000" d="M1054.8 1224.8c3.2-20.6 5.1-40.3 11.2-60.3 1.8-5.7 9-27.1 12-30.8 2.4-3 8.5-2 7.7 2.3-.6 3.2-6.6 11.7-8.4 16.7-4.3 12.2-6.8 28.8-8.2 41.8-1.2 11.4-.4 25.1-2.1 35.9-1.8 11.2-15.3 6.7-22.4 6.5-13.3-.3-26.8-.2-40.1 0-7.5.1-19.2 4.6-23.2-4.7-2.3-28.3-1.8-60.2-13.5-86.5-1.2-2.8-4.6-6.5-5.3-8.8-1.1-3.4 1.7-5.7 4.9-4.9 4.1 1.1 12.1 24.3 13.7 29.3 6.5 20.4 9.3 41.3 11.4 62.6 20 5.7 41.9 4.7 62.3.7Z" class="shading" data-original-prefix="shading" opacity=".2"/><path id="outline-shading-eyes-4" class="outline"  fill="#000" d="M1441 1235c-10.6 2-20.9 11.1-31.9 6.9 2.3-38.8-3.8-78.8-22.2-113.3 10.7-6.8 10.5-5 16.2 4.8 15 25.6 19.6 58.4 20.8 87.7.6.7 14.2-5.2 17-4v18Z" class="shading" data-original-prefix="shading" opacity=".2"/><path id="outline-shading-eyes-3" class="outline"  fill="#000" d="M607 1217c2.8-1.2 16.4 4.7 17 4 .8-29.6 6.1-63.3 21.5-89 3.8-6.4 5.4-10.6 12.9-4.9 4.2 3.2-3.1 12.5-4.8 16.9-10.1 24.9-16.3 57.6-15.5 84.5.1 3.9 2.4 8.6.5 12.5-3.4 6.9-26.1-5-31.5-6.5-1.6-1.4 1.1-14.1 0-17.5Z" class="shading" data-original-prefix="shading" opacity=".2"/><path id="outline-shading-eyes-2" class="outline"  fill="#000" d="M1107 1341c-1.4.2-2.5-.2-3.7-.8-2.4-1.1-19.6-12.4-21.8-14.2-10.3-8.9-29.2-64.3-27.4-77.5 1-7 15.4-5 16.4-3.6 1.2 1.8 1.9 14.4 2.8 18.2 3.5 15.5 15.4 41.6 23.2 55.8 1.8 3.4 9.8 13.9 10.3 15.7.6 2 .1 4.2.2 6.3Z" class="shading" data-original-prefix="shading" opacity=".2"/><path id="outline-shading-eyes-1" class="outline"  fill="#000" d="M941 1341c0-2.4-.3-4.6.5-6.9 1.2-3.6 10.3-15.7 13-21 6.7-13.2 16.9-35.9 20-50 .8-3.8 1.7-16.3 3-18 1.5-2 16.1-3.6 16.6 5.5.7 12.7-17.4 65.6-26.6 74.5-2.2 2.2-19.8 13.6-22.9 15.1-1.2.6-2 1.3-3.6.9Z" class="shading" data-original-prefix="shading" opacity=".2"/></g><path id="outline-eyes3" class="outline"  fill="#000" d="M1389 1103c26.4 8.4 53.8 8.7 81 13.1-14.7 46.7-12.2 96.5-11.4 144.9-14.6 6.7-31.3-1.8-46.6-.6-7.1 30.3-16.5 61.3-35.9 86-75.1 95.1-181.4 76.1-270.7 13.8-32.9-22.9-39.4-35.2-52.5-72.5-4.8-13.6-9.9-27.4-11.8-41.7-11.4-1.1-22.5-1.1-33.9 0-1.9 14.7-7.3 29.3-12.3 43.2-12.9 36.2-19.5 48.2-51.4 70.6-89 62.5-195.6 82-270.8-12.8-19.7-24.9-29.3-56-36.4-86.6-14.2-.9-29.1 5.5-43.3 2.3-5.5-1.2-2.7-3.7-2.7-7.2 0-35.7 1.4-73.6-4.3-108.8-1.7-10.5-5-20.5-7.7-30.7 27.2-4.7 55.5-4.5 82-13.1 17.8-5.8 14.4-7.8 25.5-20 20.9-23.1 42.8-35.2 71.5-46.4 26.5-10.4 34.6-8.6 62.5-7.5 21.7.8 43.5 1.5 65 4 19 2.2 39.5 3.8 54.5 16.5 15.6 13.1 28.3 31 42 46 28.6 2.2 57.4 2.2 86 0 15.5-15.7 34.3-45.4 54.8-54.2 23.2-10 86.7-12.5 113.7-13.3 16.3-.5 29.3-1 44.8 4.3 31.5 10.8 59.8 25.9 82.3 50.7 12 13.2 7.3 13.9 26.5 20Zm-593.2-54.7c-108 7.2-173.1 129.2-138.8 227.2 25.9 74 84.1 126 166.5 120.5 56.3-3.8 119-56.1 137.5-108.5 39.4-111.4-40.5-247.6-165.2-239.2m437 0c-115.5 7.8-182.9 134.3-145.8 239.2 18.7 52.7 81.8 105.1 138.5 108.5 82 4.9 139.7-46.7 165.6-120.5 36.8-105.2-40.8-235.1-158.2-227.2ZM882 1053c33.2 12.8 54.5 43.2 74.5 71 2.3-3.1 11.6-9.7 11.3-13.3-.6-6.8-26.5-34.7-32.8-40.2-16.1-14.2-27.1-16.8-48.5-18.5-1.1 0-4.7-.8-4.5 1m284-1c-13.5 1.8-29.8 1.6-41.3 9.2-8.5 5.6-45.3 41.4-44.5 50.2.3 3.3 9.1 9.7 11.3 12.6 16.1-22.9 32.9-45.6 56.2-61.8zm-194 77h104c-2.4-6.9-8-12.7-11.7-19-27.1-.7-54-1.1-81.1.2-.7 2.7-12.5 17.6-11.2 18.8m-323 3-45 6c1.3 6.3 3.5 12.5 4.7 18.8 3.1 16.1 4.6 33.3 5.3 49.7.3 5.9-1.3 21.8.1 25.9.8 2.2 15.5 6.3 18.4 6.6s.5-4.3.4-6.4c-1.2-35.1 1.4-68.2 16-100.5Zm795 6-45-6c14.8 33.6 18.8 70.6 15 107 3.5-.7 18.8-3.7 19.8-6.7 1.4-4.1-.2-20 .1-25.9.8-16.4 2.3-33.6 5.3-49.7 1.2-6.3 3.4-12.5 4.7-18.8Zm-457 95h74c0-10.9-.1-20.2 1.5-31 3.3-22.6 11.9-44.1 17.5-66-5.9 2.7-12.6 0-18.4 0-29.5-.3-59.5 1.8-89.1 1.1-1.7 0-2.9-.3-4.4-1.1 5.6 21.9 14.2 43.3 17.5 66 1.6 10.8 1.5 20.2 1.5 31Zm2 13c-2.1.2-7.4-.8-8.6.9-.7 1-3.1 19.4-3.9 23.1-5.3 23.4-15.1 44.9-29.5 64 2 .5 2.7-.7 4-1.4 3.4-2 11.8-7.9 14.4-10.6 4.8-4.7 12.8-27.6 15-35 4-13.3 6.4-27.3 8.5-41Zm111 88c1.1-1.2-9.2-14.6-10.5-17-8.2-14.2-14.3-31.1-18-47-.8-3.7-3.3-22.1-3.9-23.1-1.2-1.8-6.4-.7-8.6-.9 2.2 13.7 4.5 27.7 8.5 41 2.2 7.4 10.2 30.3 15 35z" class="outline" data-original-prefix="outline"/><path id="outline-eyes2" class="outline"  fill="#000" d="M791.8 1064.3c75.4-6.2 152.2 54.7 157.2 131.2 4.3 66.6-6.2 126.6-67.7 162.3-85.2 49.4-185-7.6-209.8-96.8-24.3-87.4 23.4-188.8 120.3-196.7m34 15.9c-58.3-.5-109.4 57-118.5 111.6-22 130.9 129.2 224.2 206.1 98.1 40.7-66.7 24.5-153.3-44.1-193.7-10.5-6.2-31.5-15.8-43.5-16M763 1084c-16.4 3.7-31.9 14.1-44 25.5-72.4 68-52 193.5 33.3 240.7 61.6 34.1 135.2 13.3 170.5-46.9 4.6-7.8 10.1-18.4 11.2-27.3-2.8-.6-1.6.8-2.3 2.1-31.8 59.3-83.5 103.3-154.4 72-101.6-44.9-112.9-205.9-16.3-263.7 1.3-.8 2.5.2 2-2.5Z" class="outline" data-original-prefix="outline"/><path id="outline-eyes1" class="outline"  fill="#000" d="M1229.8 1064.3c74.4-6.3 136.7 43.9 149.9 116.5 20.8 114.3-79.9 232.9-197 185-73.2-29.9-88.4-97.7-83.7-170.3 4.2-64.8 66.5-125.8 130.8-131.2m-10 15.9c-17.1.9-47.8 19-60.8 30.3-60.6 52.8-59.9 139.9-10 200 53.7 64.6 141.8 43.3 178.1-26.8 21.5-41.5 20.9-94-1-135.3-18.1-34.2-66.3-70.1-106.4-68.1ZM1113 1276c28.1 84.7 123.3 118.2 197.3 64.8 76.8-55.4 86.6-178.6 10.2-238.8-10.1-8-23.8-16.1-36.5-18 5.6 4.3 11.9 7.6 17.5 12 75.4 59.2 66.8 190.6-11.6 243.4-69.8 47.1-143.4 7.8-173.9-62.7z" class="outline" data-original-prefix="outline"/></g></g><g id="05_Right Ear" data-trait="notched"><path id="fill-ear-rt" class="fill"  fill="#fff" d="m1650 375 21.9 15.6 9 8.1-5 97.7-42.3 137.7-32.6 49.4c-4 5.2-19.7-5.3-21.9-3.4-1.9 4.5-4.9 23.3-7.3 25.7-2.6 2.6-18.8 1.2-20.3 3.2l-16.4 57.6-102.1 56.9c-16.8 32-30.5 65.7-47.1 97.9l-82.3 65.8c-1.2.6-2.3.6-3.6.5-13.8-1-49.3-14.2-62-21-20.5-10.9-39.7-31.3-58.7-43.8l-24.5-38-.8-3.1 89.8-173.3c3.8-62 6.1-123.8 10.4-185.6l129.3-162.7 4.6-4.4 317.4-175.6c3.6 1.1 16.9 6.5 17.5 9.6-.8 28-.3 56.1-1 84.1-.3 14.4-1 29.4-2.3 43.7l-30.2 44.8-39.5 13Z" class="fill" data-original-prefix="fill"/><path id="outline-shading-ear-rt" class="outline"  fill="#000" d="M1626 352c14.1-.8 29.3-5.4 42-11.5 5.1-2.4 20.9-11.1 24.4-14.5 2.2-2.1 5-7.4 6.7-10.3 7-12.2 12.5-27 15.8-40.7l2 12.5 2 26-18.3 45.3-51.7 15.3 38.1 26.6-17.1 63.4-5.2-47.8c-22.4-10.8-37.5-32-47.3-54.2-25.9 44.1-43.9 92.3-40.5 144.5.9 13.4 7.2 30.2 2.8 42.8-1.1 3-3.1 5.7-4.2 8.8-4.4 11.9-9 24.3-10.5 37 11.2-3.5 17.1-11.9 23.4-21.1 15.8-23 25.2-48.7 39.1-71.9.7-1.1 1-2.8 2.5-3-7.2 32.9-18.2 66.1-31.5 97-8.3 19.2-18.2 36.5-30.5 53.5 8 .8 16.2 1.2 24 3s14.4 5.3 22 7.5c.2 1.2-.1 1.9-.5 3-.5 1.2-8.3 14.5-9 15.1-1.1 1-1.3.9-2.7.8-4.3-.4-23.8-8-25.7-6.8l-6.1 34.9c-6.7-.6-13.1-3.6-19.9-2.9l-30.3 81.2-2.7 5.3c-23.4 14.2-49.2 24.2-72.9 38.1l-56.3 89.7c-28.3 25.6-60 47.5-90.6 70.5-2.2.5-26.2-8.4-30.5-10.1-24.5-9.4-50.7-23.9-69.8-42.2-5.5-5.3-9.2-12.1-14.5-17.5-2.4-5 7.2-9.4 10.5-12.5 16.1-14.9 33.6-36.1 45.4-54.6 8.5-13.3 11.7-27.5 19.1-41.9 6.3-12.4 13.9-24.3 20.5-36.5 1.2-1.2 1.7-.2 2.6.5 3.4 2.8 6.9 8.3 10.5 11 1.9-11.8 7-21.1 8-33.5.3-3.4-.7-15.7.2-17.3.2-.4 6.5-4.5 7.8-5.7 30.4-28.4 51.9-61.2 61.9-102.1 6-24.3 5.7-48.7 8.1-73.4 6.3-.8 9.8 3 14.6 5.9l46.4 5.6c10.4 14.5 17.6 31.1 26.5 46.5 1-.5 10.5-11.3 11.3-12.7 3.9-7.3 8-27.2 9.9-36.1 8.5-39.9 9.6-76.2 8.3-116.7-.5-15 6.8-27.9 14.2-40.8 14-24.6 34.9-52 54.3-72.7 20.2-21.6 59.5-47.5 85.6-62.4 12.5-7.1 26.5-12.1 39.9-17.1-5.4 12.2-7.1 27.9-12.2 39.8-1.8 4.3-22.4 23-27.8 29.2s-17.7 20.6-21.1 27c-.6 1.2-1.4 1.9-1 3.5Zm-100 343c8.2-17.6 20.3-35.7 18.5-56-3.5 4-8.1 7.5-11.5 11.5-10.1 12.3-18.6 29.3-29.1 42-19.6 23.7-65.6 56.1-93.3 69.7-23.2 11.4-28 6.6-42.8 31.2-23.8 39.3-42.5 79.3-70.4 116.6-4.2 5.7-12.9 13.5-15.8 19.2-1.6 3.1-11.9 36.4-10.6 37.9 2.5-.7 5.5-3.3 7.5-5 18.6-15.8 38.6-36.6 55.6-54.5 13.9-14.7 30.5-30.8 39.2-48.8 6.9-14.5 12.7-29.7 19.1-44.4 10.6-4.1 21.9-5.5 32.8-8.8 30.4-9.2 59.4-27.7 85-46l24.9-69.1c-.7-4.9-7.2 6.4-8.9 4.6Zm29-27c-1.6-1.2-8.4 9.1-10 10.5l17 12.5c.9-1-5.8-22.1-7-23m-19.5 19v1c.7-.3.7-.7 0-1" class="shading" data-original-prefix="shading" opacity=".2"/><path id="outline-ear-rt1" class="outline"  fill="#000" d="M1201 939c-.3-.2-3.9-.4-6.1-1.5-5.2-2.6-14.2-7.8-17.9-12.1-10.7-12-18.5-31.2-29.5-43.5l-.5-8.4c16.4-32.2 27-70 43.1-101.9 3.4-6.7 8.3-11.6 12.3-17.7 33.7-52.8 38.3-147.5 41.6-209.4.3-6.6.3-23.8 2.6-28.4 43.1-62.1 88.8-122.2 141.4-176.6 28.8-29.8 67.6-52.7 103.3-73.6 60.1-35.2 146-76.2 213.7-92.3 4.6-1.1 22.4-5.8 25.4-3.6.9.7 4.3 15.2 4.6 17.6 4.2 31.6-.3 71.9-3 104-2.3 27.6-.5 58.1-28.7 73.3-11.7 6.3-27.1 10-40.3 10.2 2.8 7 32.7 20 33.8 23.7 1 3.4-2.8 14.6-3.5 19.1-2.8 16.4-7.3 47.9-4.1 63.5 2.3 11.1 6.7 11.3 4.3 24.8-9 50.9-31.8 106.5-56 152-6.3 11.9-15 28.7-22.7 39.3-.7 1-1.6 2.9-3.2 2.6-.8-.2-10.3-8.1-13.3-9.8-5.4-3-12-6.7-18.3-6.1-.6 10.1-4.2 19.3-7.1 28.8-4.9 1.7-12.1-4.2-16.2-2.8-7.2 2.4-20 65.1-23.2 74.8-17.8 12.3-35.5 25-54.4 35.6-7.7 4.3-18.5 8-25.4 12.6-13.4 9.2-31.7 44.4-38.1 59.9-2.8 6.6-4.4 14.5-7.3 20.7-5.8 12.5-26.4 24-37.2 33.8-15 13.5-28.6 29.7-43.4 43.6-2.3 1.4-20.6 4.8-23.6 4.5-10.6-1-50.2-16.6-59.3-22.8-1.5-1-2.6-1.8-2.7-3.8 43.4 18.1 71.5 7.3 103.5-23 37.3-35.2 63.7-79.8 83-127 30-21.5 65.3-34.7 93.9-58.1l24.6-68.4c2.8-4.9 15.1 2.6 17-.2 1.4-2 1.1-11.9.8-14.8-.6-5.5-3.4-10.4-4.9-15.6 6-1.5 12.3-.7 18.5 0 5.2.6 21.3 5.3 24 5 2.2-.3 4.5-5.1 5.9-7.1 25.9-38.6 51.8-112.7 58.3-158.7 3-21.1.8-44.1 3.3-65.7 1.1-9.4 3.8-18.5 5.1-27.9-13.4-6.9-30.2-20.9-36.2-35-5.1-11.8-.3-8.6 7.6-9.8 10.4-1.6 37.7-7.5 46-13 6.1-4 15.7-31.8 17.3-39.7 4.1-19.3 7.6-44 9.3-63.7 1.7-19.2 1.6-39.3 0-58.5-42 13.6-81.8 33.1-120.7 53.8-46.8 25-95.5 55-139.9 84.1-50.9 33.5-90.8 69.5-129.4 116.5-17.3 21-40 48-54.8 70.2-12.9 19.2-12.9 62.2-15.2 85.8-2.7 28-4.3 56-7 84-4.6 47.8-19.1 64.4-38.8 105.2-13.1 27.1-21.6 51.4-31.4 79.6-4.4 12.8-8.7 12.1-5.1 27.6 3 12.5 15.9 34.5 24.3 44.2.1.1 1.5.5 3 2-3.5 1.1-2.8-1.9-3-2Z" class="outline" data-original-prefix="outline"/><path id="outline-ear-rt2" class="outline"  fill="#000" d="M1422 736c3-6.8 6.8-13.1 9.5-20 11-27.9 12.1-62.7-8-87-11.8-14.3-18.7-10.9-25.3 4.8-9.2 21.9-12.2 46.7-15.1 69.7-.2 1.2 1.5 2.8.4 4.5-1.2 1.9-8.6 4.6-10.9 6.2-44.3 30.1-57.7 77.8-79.2 122.8-1.1 2.4-2.3 6.1-5.5 6-1.1-5.6-2.3-11.7-4.5-17-.4-.9-2.9-7.8-4.5-6-.9 1-4.3 22.4-4.8 25.7-1.4 8.6-1.6 19.5-3.4 27.6-1.7 7.9-11.5 24.5-14.8 34.2-4 11.8-8.6 27.5-6.9 39.9.7 4.7 4.3 9.8 4.9 14.6-1.4 1.4-11.6-6.6-13.4-8-5.6-4.3-10.8-9.2-15.3-14.7l2.3-31.3c4.5-10.8 24.3-28.9 27.1-38.9 6.5-23.9 7.8-59.2 22.3-80.7.6-.9 1.7-3.3 3.2-2.3 1.8 1.3 6.8 18.1 11.8 12.7 10.6-26.4 25.4-52.7 40.8-76.7 11.4-17.8 27.6-30.6 37-50 8.8-18.1 21.6-77 17.8-95.9-.8-4-10.4-27.1-9.3-28.1 7.5 2.8 14.7 6.9 21.7 10.8 6.4 3.6 31.7 17.7 34.8 22.2 3.4 5 10 27.9 12 35 2.3 8.3 6.6 35 11.4 39.5 13.2 12.3 30.8-13.9 36.2-23.9 26-47.4 33.3-96.7 25.7-150.1-1.2-8.7-7.4-28.3-6.7-35.9.4-4.2 10.1-25.1 12.6-30.4 28.3-60.6 71.1-97.4 118.2-142.9 14.6-8 29.1-16.2 44.5-22.4-5.6 8.8-9.5 21.8-16.5 29.5-4.7 5.2-14.4 9.3-20.4 13.6-39.6 28.8-70 65.2-89.9 110.1-14.5 32.8-25.8 88.9-11.3 122.7 1.2 2.9 6.7 10.6 6.3 12.3-21.1 26.7-33 58.8-41.6 91.5-3.1 12-4.9 31.6-9.1 41.9-1.4 3.4-10.3 13.4-13.2 16.8-13.6 15.6-28.5 25.4-46.3 35.7-3.1 1.8-22.9 13.5-24.7 11.8Z" class="outline" data-original-prefix="outline"/></g><g id="06_Left Ear" data-trait="stitches"><path id="fill-ear-lft" class="fill"  fill="#fff" d="M326.7 182.1q1.65-.45 3.3.3l180.7 78.4c55.2 39.7 111.9 77.8 165.3 119.7l109 135.9c10.5 65.4 16 132 25.2 197.8 24.6 50.1 52.6 98.7 77.3 148.7 1.5 3.1 5.4 9.5 5.5 12.5.2 4.7-8.5 15.9-11.2 20.8-15.1 27.1-18.8 33.2-43.9 52.1-22.9 17.2-44.3 28.5-72.5 35.5-8 2-18.1 5.7-25.3.5l-82.9-79.1c-9.9-22-17.5-45.3-28.1-66.9l-154-109c-23.7-34.4-41.7-73.1-64.9-108.1-9.8-43.7-27.6-90.2-34.9-134.1-5.9-35.7-6.9-73.6-12.5-109.5-9.3-20.9-22.7-40-30.5-61.5-1-40.6-6.8-81.2-8.3-121.7-.1-3.4-1.1-11.4 2.8-12.4Z" class="fill" data-original-prefix="fill"/><path id="outline-shading-ear-lft" class="outline"  fill="#000" d="M555 465c11.2-3.5 14.9 1.4 16 12 2.1 1.8 16.5-9.5 20-10l-10.9-17.4c.3-1 1.1-1.5 1.9-2.1 1.4-1.1 16.7-10.1 17.7-10.4 7.1-1.5 9.3 8.8 11.3 13.8 1.7 1.1 8.9-4.9 9-6.4.1-3.9-9.1-10.3-6.9-16.9 3.4-1.8 14.2-13.5 16.4-13.7 5.2-.5 9.4 12.1 13 12.1.6 0 10.1-6.6 10.4-7.1 2.5-3.6-12.6-10.2-12-16.4.3-2.7 13.2-13.6 14.7-17.6 9.8.2 13 9.4 17.9 16 2.9.7 12-11.5 19.7-7.7 5.8 2.9 4.3 9.1 4.8 9.7.2.2 2.8 0 4.5 1 2.5 1.4 5.3 6.7 5.5 9.6.7 9.6-11.2 13.9-10.9 16.8.3 3.6 12.4 11 9.4 15.7-.7 1.2-6.7 4.1-8.5 5.6-7.4 6.1-8.6 13.6-17.1 2.9-2.4-3-3-8.9-7-7-.5.2-7.6 5.7-8 6-2.9 3.5-1.9 6.5-.2 10.1 1.3 2.9 7.5 8.7 5.2 10.8-4 .8-18 10.8-20.4 10.6-3.8-.3-8.8-11.5-11.9-11-1.2.2-6.5 5.8-8.7 6.5-.6 3.6 9.5 10 8.1 15.7-4.1 1.4-20.1 16.7-23 14.6-.8-.5-3-9.5-7.1-11.4-4.6-2.1-12.3 7.2-16.9 8.6-1.3 1.9 7.2 8.7 5.5 12.9-10.2 6.3-23.7 23.3-30.5 4-3.5 2.2-7.2 2.5-7 7.4.4 11.8 9.9 54.8 15 65.1.9 1.8 10.2 12.8 11.6 13.4 8.9-15.4 16-32 26.5-46.5l54-6.5c0 9.4-.3 19 1.1 28.4 3.4 21.8 18.3 36.8 29.3 54.7 16.2 26.3 28.1 50.9 41.7 78.3 8.6 17.2 17.3 34.4 26.8 51.2 5.6 3 9.3-3.8 14.3-2.3 3.7 1.1 5.7 9.7 7.2 9.8 11.3-5.3-4-10.3-2.3-18.2.8-4.2 14-14.8 18.3-14.8s7.1 6.5 10 9.1c1.7 0 7.1-10.9 8.3-12.7.5-.8.7-2.8 2.2-1.3.7.6 6.2 13.5 7.5 16 2.1 3.9 8.9 12.6 8.5 16.4-.4 4.7-6.8 10.2-7.6 13.6-.6 2.6 1.2 8 .3 12.3-1.1 5.1-7.6 14.1-13.4 14.4-5.1.2-10.1-8.1-12.9-2.7-1.4 2.8 1.9 4.8 2.9 7.1 3.8 8.6-3.7 12.3-3.3 14.3.2 1.4 15.6 20.2 18 23.1 11.4 14.1 28.9 30.4 38.4 44.6 4.5 6.8 4.6 12.1 7.6 19.4l-8 11.9c-29.4 24.7-56.9 43.6-94.7 53.3-15.7 4-23.6 7.7-27.2-12.2-11.3-7.1-23.8-14.3-34-23-9.1-7.7-27.1-24.6-34.5-33.5-3.9-4.7-10.2-16.9-14-20-3.5-2.8-12.8-2.7-9.5-11.5-1-.7-3 1.2-3.9.5-.5-.3-4.4-9.3-4.6-10-.8-3 .8-4.7.4-7.2l-17.1-43.5c-30.8-21.7-67.7-36-97.2-59.3-22.1-17.6-40.3-39.2-57.5-61.5 2.9 1.1 6 3.6 8.5 5.5 33.3 26.6 65 55.6 102.5 76.5 25.3 14.1 50.5 23.2 79 29 2.7 1.1 4.3 11.6 5.1 12.3.7.5 4-.3 5.9.6 1.5.7 2.2 4.1 3.6 4.4 1.1.3 4.4-1.9 5-3 1.1-2.2-1.4-5-.4-6.8.3-.5 8.3-6.3 9.7-7.8 1-1 4-4.6 4-5.7 0-1.2-8.9-16.3-10.4-18.6-11.6-18-24.4-21.2-43.9-28.1-20.8-7.4-48.7-11.2-67.2-18.8-10.8-4.5-44.7-26.1-52.8-34.2-6.9-7-18.2-26-23.9-35.1-11.2-17.8-21.4-36.5-30.4-55.6-2.1-4.3-12.6-31-14.1-31.9-3.6-2.3-13.8 12-21.1 6.2-2.9-2.3-2.9-7.8-7.2-6.6-2.3.6-11.1 17.2-15.8 11.3-1.2-1.5-9.4-20.6-9.7-22.8-1.6-9.4 12.8-15.7 11.7-19.8-.4-1.6-4.3-4.3-4.6-7.3-.5-5.7 9.5-9.7 13.3-13.3 2-2 5.2-7.7 5.6-7.9 3.1-1.8 7.2 4.9 9.2 4.7 1.3-.1 12.6-8.9 13.2-9.9 2.8-4.5-8.1-12.4-3.6-17.5.8-.9 7.4-3.6 9.3-4.7 1.7-.9 5.6-4.5 6.4-4.6 3.8-.8 7.5 7.4 9 7.8 1.2.4 8.3-3.9 8.9-4.9 1.3-2-2.6-4-3.6-6.5-3.3-8.1 2.4-9 4.5-13.6 2.3-5-5.4-33.6-7.5-40.5-10.2-34.4-29.6-73.9-49-104-17.3-27-36.6-39.4-45.3-72.7-.5-1.9-.9-3.8-.7-5.8 2.1-.3 3.6.3 5.4 1.1 6.9 2.9 19.6 11.2 26.5 15.5 19.8 12.2 42.8 26.9 61.4 40.6 31 22.8 73.3 79 88.5 114.5 1.3 3 3.8 7.8 4.2 10.8.6 4.6-2.3 28.2-1 29.5Zm-79.2 95.2c-1-1-5.7-2.4-7.7-3.8s-5.5-6.5-7.5-6.5c-1.5 0-9.5 6-9.4 7.3 9.4 13.5 17 33.6 33.9 38.7.1-3.3 1.3-5.8.8-9.2-.3-2.1-9.1-25.5-10-26.5Zm248 306c-6-3.3-11.6 4.7-15.3 4.7-4.8 0-10-8.3-12-7.9-3.2.6 1.9 5.3 2.2 6.7 2 7.5-4.7 12.2-3.3 15.2 24.2 26.5 48.8 52.5 75.5 76.5l8 5.5c-1.5-7.4-3.3-14.8-5.5-22-5.3-17.5-6.1-16-16.5-29.5-12-15.7-23.2-32.1-33.2-49.3Z" class="shading" data-original-prefix="shading" opacity=".2"/><path id="outline-ear-lft" class="outline"  fill="#000" d="M806 969c.3 2-2.7 3.5-4.1 4.4-13.5 8.6-43.4 19.9-59.4 20.7-7.5.4-15-.6-22.1-3-14.3-13.3-27.4-28.1-41.4-41.6-8.4-8-27.9-20-33.5-27.5-1.8-2.5-9.1-18-9.4-20.7-.5-4.7 5.6-10.5 3.3-15.3-1.9-4-10.7-2.9-13-5-1.7-1.5-7.6-16.5-9.7-20.3-7-12.7-13.1-22-25.8-29.2-43-24.6-77.7-42.6-113.5-78.5-34.8-34.8-72.6-95.9-90-142-4.4-11.8-.3-13 1.5-24.3-.4-1.7-10.4-4-12-5.2-5.6-4.2-20.7-65.1-22.6-75.4-2.6-14.5 3.6-16.6 4.6-29.5 2.6-36.6-7.3-92.6-28.2-122.9-8.1-11.7-8.8-10-11.5-25.5-6.1-34.9-11.1-107.2-6.2-141.6.4-2.5 3.3-15.8 4.5-16.7 1.7-1.2 4.6-.9 6.6-.7 37.4 3.5 114.5 37.1 150.5 53.6 50.8 23.2 121 61 164.2 95.8 21.4 17.2 40.6 44.2 60 64.1 2.5 5 .4 11.8 1.3 17.2 7 2.2 14.7 3.2 20.9 7.6 28.1 35.2 54.5 71.7 80.4 108.6 3.2 38.5 4.8 77.6 9.7 116.3 3.5 27.5 7.5 51.9 15.6 78.4 1.8 5.9 6.7 15.1 7.2 20.8s-3.3 15.2-1.8 19.8c1.1 3.3 10.8.8 13.7 1.8 11.1 29.6 25.4 58.1 41 85.5 3.1 5.5 9.6 13.2 11.7 18.3 1.9 4.7 3.5 20.4 2 25-12 13.8-21.3 38.6-35.9 49.1-5.5 3.9-12.2 6.2-17.5 10h-1v-2c2.9-4.8 7.7-9.1 10.8-13.7 9.7-14.4 18.5-34 16.1-51.8-.7-5.3-13.2-37.8-16-44-2.3-5-6.5-10-9-15-6.6-12.6-12.8-25.4-19.8-37.7l-7.9 5.1c-1.1 1.5 6.4 9.4 5.8 13.2-.3 1.7-7.3 10.5-8.9 11.2-6 2.7-7.8-11.7-9-12.5-1.4-1-12.8 7.4-13.5 9-1.7 3.7 8 13.6 7.6 18.3-2.6 1.2-10.6 9.9-12.5 9.6-3.3-.5-7.2-15.8-8.7-16.8-2-1.2-10.3 4.1-10.8 5.5-1 3.2 16.7 38.7 19.7 44 4.7 8.1 30.5 41.7 31.1 45.9.9 6.1 2 18.7 2.1 24.9s-4.7 9.9-9.1 14c-2.5 2.3-15.2 12.6-17.5 13.5-1.9.7-1.7-1-1.3-2.3 4.5-15.6 5.7-18.9 1.9-35.3-4.6-20.5-14.9-41.8-24.6-60.4-7.4-14.2-18-35.5-26.7-48.3-.5-.8-1.5-2.4-2.3-2.5l-6.4 4.4c-.6 2.5 7.8 9 6.8 12.7-.2.9-11.6 12.3-12.4 12.7-1.7.7-1.3-.7-1.7-1.2-1.7-2.4-7.4-13.3-9.3-13.7l-12.3 9.5c0 1.3 10.5 13 10.8 16.2.1 1.6-9.4 10.9-11.5 11.1-5.5.5-10.5-13.5-12.5-14.7-2.2-1.3-12.5 9.4-12.6 10.4-.3 3.6 12.2 14.7 8.8 19.1-.7 1-11.8 9.5-12.6 9.5-3.5 0-7.2-13.5-11.5-14.7-3.4-1-12.3 8-11.6 11.6.5 2.5 6.1 13.9 7.7 16.3 4 5.9 20.6 19.7 26.8 25.2 12.5 11 56.2 47.9 70.5 49.5 12.6 1.4 33.2-4.1 45.5-8ZM659 395c1.4-.3 1.6.2 2.5 1 2.9 2.5 10.6 15.3 13.2 15.9 1.8.5 10.5-7 10.2-8.3-24.3-25.1-52-47.5-80.6-67.5-47.7-33.2-104-67.4-155.3-94.7-38.6-20.6-78.3-39.9-120-53.5-3 38.2.9 78.6 8.3 116.2 3.8 19.1 12.7 27.5 19.5 44.5 13.1 33 21.4 79.3 23.3 114.7.5 8.6-.6 17.5 0 26.1 1.6 26.2 12.7 54.1 19 79.5 2.1-1.9 12.5-11 12.8-12.6.7-3.5-7.1-7.5-3.9-12.9.8-1.3 10.6-10.7 11.5-10.5 1.9 1 5.1 9.6 5.6 10 .4.3 1.7 0 2.3-.1 1-.3 13.8-11.6 15.7-13.3 9.6-9 2.1-7.2-.6-15.5-1.4-4.4 8.9-10.2 12-13l8.2 10.9c2.5-1.5 15.5-11.3 15.1-13.1-.9-3.1-7.4-9.7-6.7-13.3 3.2-.9 9.8-10.2 11.6-10.6 2.3-.5 7.5 10.7 8.5 13l12.8-8.2c-2.4-68.9-41.9-135-94.9-177.2-10.7-8.5-22.5-15.3-33.4-23.6l-22.5-39c3.2-2.9 26 18.3 29.7 20.8 7.1 4.8 15.5 7.3 22.3 12.7 40.8 40.7 81.6 73.9 109.2 125.8 4.4 8.2 19.1 37.7 19.8 45.3s-6.9 34.8-8 45.9c-.5 4.9-1.6 14.6-1 19 .2 1.5 0 2.5 1.6 3.4 3.7-3.2 24.5-12.5 26-15 1.7-2.6-8.9-12.9-7.5-14.9l15.4-8.1 7.6 13c1.4 1 23-13.9 26.5-15.9 1-1.6-6.9-10.8-6.4-13.4.3-1.8 11.2-8 13.2-9.6l8.2 12c2 .3 17.8-10.2 17.4-12.4-.4-2-9.2-9.6-8.8-12 .2-.9 11.5-10.8 12.3-10.6 2.8 1.7 8.6 13 11.1 13 7.6-4.1 14-10 20.5-15.5l-12.9-15.1c-.3-1.7 9.9-10.1 10-13.4Zm151 369c1.1.8 7.8-10.4 7.8-12.3-6.1-15.8-17-31.4-19.7-48.3-3.6-23.2-3-47.6-5.1-70.9-1.9-21.3-4.7-42.7-7-64-2-18.8-1.7-40.1-12.6-56.4-13.5-20.1-34.8-45.3-50.5-64.5-7-8.6-14.5-16.9-21.4-25.6-4.1-2.8-9.4 5.1-13.1 7-1 2.1 8.7 10.2 8.5 13.4-2.4 1.4-11.8 11-13.9 9.6-.1-.1-.5-2.3-1.2-3.3-2.4-3.2-5.2-6.2-7.4-9.7l-22.5 16 9 15.4c-2.4 1.2-11.1 9.2-12.6 9.5-2.4.6-7.3-12.3-10-13.9-2.8 1.8-18.5 10.8-18 13 .6 2.4 8.7 13.2 7.5 14.9-3 .4-14 9.4-15.9 8-.7-2.5-6.4-14.2-8.4-13.9l-25.7 14.9c-.7.9 6.7 11.4 6.9 13.7.2 2-12.5 9.1-15.2 8.2-2.5-.8-4.6-10-7.2-11.9l-36 22c-1 1.7-.7 10.9-.5 13.5 1.7 25.2 25.4 94.1 47.7 107.3 7.9 4.7 15.7 4.1 19.5-5.1s5.4-24.4 8.3-34.7c1.8-6.4 9-30.9 12-35 2.3-3.1 13.2-9.4 17.2-11.8 12.5-7.8 25.9-15 39.3-21.2 1 1.1-9.1 24.9-9.8 28.7-3 17.6 8 69.1 14.8 86.8 6.8 17.9 15.5 25 25.5 39.5 21.7 31.6 40.5 66.1 58.7 99.9 1.1.8 10.8-3.8 11.5-4.9 2.1-3.3-5.9-11.1-5.4-13.4.2-1.1 12.4-10.6 13.8-9.6.6.4 4.3 11.7 6.5 12.9 2-2.8 10.6-7.8 12-10 2.5-3.9-5.8-11.2-6.4-15.4 11.1-10.2 11.5-16.9 18.9 1.4Zm-261.3-79.7c-1-1-3-1-4.2-2.3-2.4-2.7-9.6-43.6-11.6-51.4-7.5-29.1-17-55.5-33.3-80.7-1.7-2.6-9-11.1-8.5-13.2.5-1.7 5-4.9 4.9-8.2 0-1.1-5-8.6-6-9.1-1.5-.8-14.9 8.4-15.1 9.2-.9 4.4 10.4 14.6 9.1 16.3-3.2-.1-14.8 9.8-16 9-1-2.1-7.7-13.3-9.5-13-2.6 3.6-21.8 16.3-22.5 18.6-1.2 4 8.7 11.8 6.5 15.3-.4.7-11.2 10.1-11.9 10-2.9-1.4-7.2-12.4-10-11.9-1.1.2-14.6 13.7-14.7 16.4 10.5 33 27.8 63.2 47.7 91.4 17.3 24.6 39 51.5 61.4 71.6 32.7 29.4 75.5 45.7 111.6 70.4 4.5 7.2 4.1 14.9 7.4 22.6 3 6.8 8.6 13.3 11.1 20.4 1.6 1.1 11.5-6.1 11.9-7.6.9-3.5-8.9-10.4-5.9-13.8.7-.8 13.6-8.7 14.4-8.6 1.8 1.7 5.1 8.7 6.6 9.6 2.5 1.6 10.2-6.9 13.1-8.2.6-3.9-8.4-9.1-5.1-12.9.7-.7 11-8.3 11.7-8.4 3.2-.5 5.7 8.5 8.8 8.9.7 0 10.7-7.5 11.1-8.1 2.2-3.5-6.4-8.3-5.4-12.3.2-.7 10.1-9.9 10.9-10.3 3.5-1.8 8.3 10.2 10.5 10.4 1.1 0 8.7-5.3 8.1-7.8-1.4-5.5-14.2-23.2-18.2-28.9-16.3-23-35.6-43.7-53.6-65.4-1.2-23.1-5.1-49.1-14.6-70.4-7.4-16.6-14.9-16.2-25.6-2.2-18.5 24.1-18.3 56.3-8.1 83.9 2.8 7.6 7.3 14.6 10.5 22-1.1 1-13.5-5.7-15.7-6.8-22.8-12.2-43.5-26.7-61.6-44.9Z" class="outline" data-original-prefix="outline"/></g><g id="07_Head" data-trait="horny"><path id="fill-head2" class="fill"  fill="#fff" d="M782 505c1.3 1-14.2 15.5-15.5 17-4.3 4.8-10.6 11.6-14.5 16.5-4.9 6.2-6.9 14.3-11.6 20.4-1.9 2.4-7.4 6.2-8 7.1-.4.6-.2 7-1 10-2.7 9.5-14.5 26.1-16.2 34.8-.9 4.5.5 11.7-.5 17.5-1.2 6.6-5.5 12.8-6.5 17.5-1.1 5 .3 12-.5 17.5-.8 5.9-5.3 12.5-5.8 17.2-.5 5.2 1.5 11.9 1.1 18-.2 4-1.8 8.2-2 12-.7 11.2 6.1 21 6.1 33s-1.9 7.9-.9 12.8c.7 3.5 4.9 7.8 6.3 11.7 1.1 3.4 1 7.3 2.3 10.7s4.1 5.3 5.4 8.6c1.6 3.8 1.2 8.2 2.6 11.4 1.6 3.8 7.5 5.9 10.3 8.7 7.2 7.3 5.5 15.9 10 22 4 5.6 14.8 8 20.5 12.5 6.3 4.9 9.7 14.4 15.2 17.8 8.7 5.4 21 6 31.3 13.7s12.8 21.1 19.6 26.4c10.1 7.9 20.1 7.2 31.5 19.5 23.5 25.2 34.5 59.9 19.2 92.2-7.6 16-47.9 37.3-65 42-24.8 6.9-64.9 3.3-87.9-8.5-15.5-8-11.7-15-21.8-23.2-4.3-3.5-12.2-6.6-16.2-10.3-8-7.6-11.1-22-21-27.5-2.5-1.4-5.6-1.7-8-3-12.7-6.8-21.1-12.3-24.8-27.2-1.6-6.3-.5-15.5-2.2-19.8-2-5-10.2-7.9-13.7-11.3-8.8-8.3-18.5-36.5-18.6-48.5 0-7.3 5-15.7 4-21.9-.5-3.2-6-10.1-7.8-14.2-5.6-13-9-31.9-4.9-45.6 2.6-8.6 8.7-13.7 7.6-23.2-1.9-16.5-6.8-25.6-.4-43.6 3-8.6 10.9-15.5 13.3-21.7 4.4-11.5-.2-26.2 10.8-38.2 2.2-2.5 8.7-5.4 9.9-8.1 1-2.3 1-6.8 2-10 2.2-7 5.9-16.9 10.5-22.5 2.5-3.1 7.9-5.8 9.4-8.6 2.5-4.7 1.4-10.5 5.2-16.8 4.1-6.9 10.6-8.4 13.9-13.1 6.2-8.8 7-18.5 17-28 5-4.8 14.2-8.5 18.6-13.4 7.8-8.8 6.5-12.6 18.7-20.3 15-9.6 35.7-17.8 53.3-20.2z" class="fill" data-original-prefix="fill"/><path id="fill-head1" class="fill"  fill="#fff" d="M1256.3 505c17.6 2.4 38.3 10.6 53.3 20.2 12.1 7.7 10.9 11.5 18.7 20.3 4.3 4.9 13.6 8.7 18.6 13.4 10 9.5 10.8 19.2 17 28 3.3 4.8 9.8 6.3 13.9 13.1 3.8 6.4 2.7 12.1 5.2 16.8 1.5 2.8 6.9 5.5 9.4 8.6 4.6 5.6 8.3 15.6 10.5 22.5 1 3.2 1 7.6 2 10 1.2 2.7 7.6 5.7 9.9 8.1 11 12 6.4 26.7 10.8 38.2 2.4 6.2 10.2 13.1 13.3 21.7 6.4 18 1.5 27.1-.4 43.6-1.1 9.5 5.1 14.6 7.6 23.2 4.1 13.7.8 32.6-4.9 45.6-1.8 4.1-7.3 11-7.8 14.2-1 6.2 4.1 14.6 4 21.9 0 12-9.8 40.2-18.6 48.5-3.6 3.4-11.7 6.3-13.7 11.3-1.7 4.3-.7 13.5-2.3 19.7-3.7 14.9-12.1 20.4-24.8 27.2-2.4 1.3-5.5 1.5-8 3-9.9 5.5-13 19.9-21 27.5-3.9 3.7-11.8 6.8-16.2 10.3-10.2 8.2-6.3 15.2-21.8 23.2-23 11.9-63.1 15.4-87.9 8.5-17.1-4.7-57.4-26.1-65-42-15.3-32.3-4.3-67 19.2-92.2 11.4-12.2 21.4-11.6 31.5-19.5 6.8-5.3 9.3-18.6 19.6-26.4s22.6-8.3 31.3-13.7c5.5-3.4 8.9-12.9 15.2-17.8 5.7-4.5 16.4-6.9 20.5-12.5 4.4-6.1 2.7-14.7 10-22 2.8-2.8 8.7-4.9 10.3-8.7 1.4-3.2 1-7.6 2.6-11.4 1.4-3.3 4.1-5.2 5.4-8.6s1.2-7.3 2.3-10.7c1.3-4 5.5-8.2 6.3-11.7 1-4.9-.8-8.4-.9-12.8 0-11.9 6.8-21.8 6.1-33-.2-3.8-1.8-8-2-12-.4-6.2 1.6-12.8 1.1-18-.5-4.8-5-11.3-5.8-17.2-.8-5.6.7-12.6-.5-17.5-1.1-4.7-5.4-10.9-6.5-17.5-1-5.8.4-13-.5-17.5-1.7-8.7-13.5-25.3-16.2-34.8-.8-3-.7-9.4-1-10-.5-.9-6.1-4.7-8-7.1-4.7-6.1-6.7-14.2-11.6-20.4-3.8-4.9-10.1-11.8-14.5-16.5-1.3-1.5-16.8-16-15.5-17h-.2Z" class="fill" data-original-prefix="fill"/><path id="outline-shading-head4" class="outline"  fill="#000" d="M873 1019v-21.5c0-.9-2-5.2-2.5-6.5-2.9 4.4-4.6 11.4-10.5 13-.7-17.7 5.6-39-6.5-54-1.2 0-2.6 10.7-3.2 12.8-2.3 7.7-9 18.6-13.9 25.1-1.8 2.4-4.4 6.3-7.4 6.6 2.4-7.3 6.5-14.1 8.5-21.5 2.8-10.4 4.6-29.6 2-40-1.1-4.2-3-8.2-5-12-3.2 7.9-4.7 16.1-8 24-11.3 27.1-34.6 60.7-59 77-1.9 1.3-11.4 6-11.6 6.6-1.7 7 5.2 15.6 10.7 19.2 8.9 5.6 20.5 4.4 30.3 6.7-11.1 4.8-26.5 4.3-38.4 2.4-10.8-1.8-33.4-11.4-40.6-19.4-16.1-17.8-28.9-38-47-55-6.5-6.1-20.5-15.3-25-22-4.9-7.2-7.2-19.8-12.2-27.8s-17.1-15.8-20.7-22.3c-1.8-3.3-6.4-27.8-7-33-1.4-11.3.7-27.9-1.3-37.7-1.5-7.1-10.9-14.2-10.9-23.2 0-15.4 6.5-32.8 7-46.2.2-7-3.2-15.3-3-22.9s5.7-26.2 8.6-33.5 8.7-14.1 10.8-21.2c4.7-16 .5-16.8 13.2-30.8 1.7-1.9 8.8-7.4 9.1-8 .4-.7-.9-12.6-.3-16.3.4-2.3 5.9-13.3 7.3-15.7 2.1-3.4 9.3-8.4 10.9-11.1s.7-10.1 5.5-16.5c3.1-4.2 13.7-10.1 14.5-11.5.9-1.6.2-4.1 1-6 5.2-13.8 13.3-18.2 23.6-27.4 4.8-4.3 7.7-7.4 12-12 11.4-12.5 39.7-32.3 56.7-33.5 8.7-.6 6.4 8.3 3.2 13.3-5.4 8.4-19.2 18.2-25.8 27.2-3.8 5.1-5.9 14-9.5 18.5-1.4 1.7-4.3 2.7-5 4-1.2 2.6-3.1 14.2-5 19-9.6 24.1-16.2 38.2-21.2 64.8-3.4 18.1-2.5 29.3-3.2 46.8-.4 8.4-3 18.4-2.9 26.8.5 36.8 14.8 58.8 32.1 88.9 8.8 15.3 11.2 19.9 24.8 32.2 16.1 14.6 32.2 21.9 48.9 34.1 12.1 8.8 29.8 23.1 41.1 32.9 28 24.5 45.5 63.3 30.8 99.8-1 2.6-2.5 6.8-5.8 6.7h-.2ZM763 515c-1.3-1.2-24.4 11.2-27.3 13.2-6.3 4.2-11.8 10-15.7 16.3 5.2 3.1 7.9 6 10.5 11.5zm-51.2 40.2c-7.3 1-24.9 18-24.7 25.3 0 3.7 5.7 4.5 7.9 6 9.6 6.7 13.3 19.2 21.5 3.3 4.3-8.3 11.8-37.1-4.6-34.7h-.1Zm-13.6 77.6c6.8 3.9 7.3-14.4 6.7-18.2-1.2-8.7-12.5-22.1-21.6-22.5-7.2-.4-18.8 10.4-15.6 17.7 1.7 3.9 6.3 3.4 9.9 5.1 4.8 2.3 10.6 6 14.3 9.7s5.7 8 6.2 8.3Zm-49.1 13.1c.9 1 21.3 6.6 25.8 8.7 2.1 1 5.1 2.7 7 4 2.4 1.6 10 9.2 10.7 9.4 2.4.5 4.1-5.9 4.3-7.5 2.2-17.3-14.7-41.4-33.3-38.4-4.1.7-12.8 10.3-14 14-.6 1.7-1.1 9.1-.4 9.9Zm3.6 13.3c-11.3 1.9-17.2 17.1-15.8 27.3 1 7.2 5.5 3.2 9.5 3.4 9.9.5 20.4 2.3 29.8 5.3 4.2 1.4 12.7 8.2 14.5 0 4.3-19.3-20.7-39-38-36.1Zm26 55.1c-11.5-13.5-37.2-10-48.1 2.7-6 6.9-12.9 29.9-2.5 34.5 2.7 1.2 25.8-6.9 30.9-8.1 6.5-1.5 20.4-.4 23.3-7.7 2.2-5.4.2-16.9-3.6-21.4M681 792c3.6 0 19-9.5 13-13.6-1.2-.8-12.2-.6-14.6-.5-2 0-14.5 3.5-14.4.5 0-2.7 26.6-5 28-13 .8-4.6-2.9-7.8-7-9-10.4-3.1-38.3-.4-48.8 3.3-35.6 12.4-33.6 56.7 4.2 63.2 18.7-9.3 36.1-22.9 57.6-25l-5-3.5-13-2.5Zm27 20c-3.2-.5-6.2-2.1-9.5-2.1-16.5 0-62.3 21.2-64.5 39.5-1.6 13.6-1.2 31.8 11.3 39.7 13.9 8.8 20.7 3.3 32.2-6.2 6.9-5.8 12-13.9 18.5-19.5 5.7-5 24.4-16.2 25.8-23.2.3-1.4.3-2.8.2-4.3-5.6-.5-10.7.4-16 2 1.5-4.2 5.1-5.8 5.8-10.8 1.7-12.2-13.6-8.6-15.8-10.2-3.4-2.5 7.7-2.9 8.5-3 1.5-.2 3.1 0 3.5-2Zm29.8 42.2c-21 2.3-57.5 40.1-63.3 59.7-6.3 21.2 15.2 42.3 36.5 35.5 11.3-3.6 28.2-24.4 34.4-34.6 2.8-4.6 11.8-21 12.5-25.5 2.1-13.4-2.4-37.2-20.2-35.2ZM761 931c3.6-17.5 12.6-33.9 13-52-1.3-1.9-4.3 12.6-4.7 13.8-8.5 24.6-28.2 46.1-40.7 68.3-2.8 5-9.1 15.6 0 17.7 11.2 2.5 23.6-8.2 34.3-10.8 1.1 1.1-4.6 6.2-5.5 7-6.3 5.1-15.3 7.3-18.5 16 9.2-2.7 18.4-6.3 25-13.5 14.5-15.9 33.4-50.3 34.1-72 0-1.5.3-7.7-2.4-7.3-16.8 2-20.5 27.3-34.7 32.8Zm-6 81c6-.2 14.7-6.1 19.5-10 13.1-10.7 37.8-52.5 41.1-68.9 2.2-11.2 3.2-26.1-3.1-36l-8.5 34.5c-11 28.8-28.7 59.3-59 70.5.3 1.8 5.2 1.1 6.5 1 4.9-.4 9.5-2.5 14.5-2 2 1.8-10.4 9.1-11 11Z" class="shading" data-original-prefix="shading" opacity=".2"/><path id="outline-shading-head3" class="outline"  fill="#000" d="M832 959c2.8 3-9.7 24.4-12.6 27.9-1.9 2.3-12.7 12.7-15.4 10.1-.5-2.1.7-2.7 1.5-4 2.7-4.7 19.6-29.8 22.5-32.5 1.4-1.2 2-1.8 4-1.5" class="shading" data-original-prefix="shading" opacity=".2"/><path id="outline-shading-head1" class="outline"  fill="#000" d="M1165.2 1019c-3.3 0-4.7-4.2-5.8-6.7-14.7-36.5 2.7-75.3 30.8-99.8 11.3-9.8 29-24.1 41.1-32.9 16.7-12.2 32.8-19.5 48.9-34.1 13.6-12.3 16.1-16.9 24.8-32.2 17.2-30.1 31.6-52.2 32.1-88.9 0-8.5-2.6-18.5-2.9-26.8-.8-17.5.2-28.6-3.2-46.8-5-26.6-11.6-40.7-21.2-64.8-1.9-4.8-3.8-16.4-5-19s-3.6-2.3-5-4c-3.6-4.4-5.8-13.3-9.5-18.5-6.6-9-20.5-18.8-25.8-27.2-3.2-5-5.5-13.9 3.2-13.3 17 1.1 45.2 20.9 56.7 33.5 4.2 4.6 7.2 7.8 12 12 10.3 9.3 18.3 13.7 23.6 27.4.7 1.9 0 4.4 1 6 .8 1.4 11.3 7.3 14.5 11.5 4.8 6.4 3.9 13.8 5.5 16.5s8.8 7.7 10.9 11.1c1.5 2.3 7 13.3 7.3 15.7.6 3.6-.7 15.5-.3 16.3.3.6 7.4 6.1 9.1 8 12.7 14 8.5 14.8 13.2 30.8 2.1 7.1 8 14 10.8 21.2s8.4 25.9 8.6 33.5-3.2 15.9-3 22.9c.5 13.3 7 30.8 7 46.2s-9.4 16.1-10.9 23.2c-2 9.8 0 26.4-1.3 37.7-.6 5.1-5.2 29.7-7 33-3.6 6.5-15.8 14.3-20.7 22.3s-7.2 20.6-12.2 27.8c-4.5 6.7-18.5 15.9-25 22-18.1 17-30.9 37.1-47 55-7.2 8-29.8 17.6-40.6 19.4-11.9 1.9-27.3 2.5-38.4-2.4 9.8-2.3 21.5-1 30.3-6.7 5.5-3.5 12.4-12.2 10.7-19.2-.2-.7-9.7-5.4-11.6-6.6-24.3-16.3-47.7-50-59-77-3.3-7.9-4.9-16.1-8-24-2 3.8-3.9 7.8-5 12-2.6 10.4-.8 29.6 2 40 2 7.4 6.1 14.2 8.5 21.5-3-.3-5.6-4.2-7.4-6.6-4.9-6.5-11.6-17.4-13.9-25.1-.6-2.1-2.1-12.8-3.2-12.8-12.1 15-5.8 36.3-6.5 54-5.9-1.5-7.6-8.6-10.5-13-.5 1.3-2.5 5.6-2.5 6.5v21.5h-.2Zm110-504 32.5 41c2.6-5.6 5.3-8.4 10.5-11.5-3.9-6.3-9.4-12.1-15.7-16.3-2.9-2-26-14.3-27.3-13.2m51.3 40.2c-16.5-2.4-8.9 26.4-4.6 34.7 8.2 15.8 11.8 3.4 21.5-3.3 2.3-1.6 7.8-2.4 7.9-6 .2-7.4-17.4-24.3-24.7-25.3h-.1Zm13.5 77.6c.5-.3 5-7.1 6.2-8.3 3.8-3.7 9.5-7.4 14.3-9.7 3.6-1.7 8.2-1.2 9.9-5.1 3.2-7.2-8.4-18-15.6-17.7-9.1.5-20.3 13.9-21.6 22.5-.5 3.8 0 22.1 6.7 18.2Zm49.1 13.1c.6-.7 0-8.2-.4-9.9-1.2-3.7-9.9-13.3-14-14-18.6-3-35.6 21.1-33.3 38.4.2 1.6 1.9 8.1 4.3 7.5.7-.2 8.3-7.8 10.7-9.4 1.9-1.3 4.9-3 7-4 4.4-2.1 24.9-7.7 25.8-8.7Zm-41.7 49.4c1.8 8.2 10.3 1.3 14.5 0 9.4-3 19.9-4.8 29.8-5.3 4.1-.2 8.6 3.9 9.5-3.4 1.4-10.2-4.5-25.4-15.8-27.3-17.4-2.9-42.3 16.8-38 36.1Zm12.2 19c-3.8 4.5-5.8 16-3.6 21.4 2.9 7.3 16.8 6.2 23.3 7.7 5.1 1.2 28.2 9.3 30.9 8.1 10.4-4.6 3.4-27.5-2.5-34.5-10.9-12.7-36.6-16.3-48.1-2.7m-2.4 77.7-13 2.5-5 3.5c21.5 2.1 38.8 15.7 57.6 25 37.8-6.6 39.8-50.9 4.2-63.2-10.5-3.7-38.4-6.3-48.8-3.3-4 1.2-7.8 4.4-7 9 1.4 8 27.9 10.4 28 13 0 2.9-12.4-.4-14.4-.5-2.4-.2-13.4-.4-14.6.5-6 4.1 9.4 13.4 13 13.6Zm-27 20c.4 1.9 2 1.8 3.5 2 .8 0 11.9.5 8.5 3-2.2 1.7-17.5-1.9-15.8 10.2.7 5 4.3 6.6 5.8 10.8-5.3-1.6-10.4-2.5-16-2 0 1.4 0 2.8.2 4.3 1.4 7.1 20.1 18.2 25.8 23.2 6.4 5.6 11.6 13.8 18.5 19.5 11.5 9.6 18.3 15 32.2 6.2 12.5-7.9 13-26.1 11.3-39.7-2.2-18.3-48.1-39.6-64.5-39.5-3.3 0-6.3 1.6-9.5 2.1Zm-29.8 42.2c-17.8-2-22.3 21.8-20.2 35.2.7 4.5 9.7 20.9 12.5 25.5 6.3 10.2 23.1 31 34.4 34.6 21.4 6.8 42.8-14.3 36.5-35.5-5.8-19.6-42.3-57.4-63.3-59.7Zm-23.2 76.8c-14.2-5.5-17.9-30.8-34.7-32.8-2.6-.3-2.4 5.9-2.4 7.3.7 21.6 19.6 56 34.1 72 6.5 7.2 15.7 10.8 25 13.5-3.1-8.8-12.2-10.9-18.5-16-.9-.7-6.7-5.9-5.5-7 10.7 2.6 23.1 13.3 34.3 10.8 9.3-2.1 3-12.7 0-17.7-12.5-22.2-32.2-43.7-40.7-68.3-.4-1.2-3.4-15.6-4.7-13.8.4 18.1 9.3 34.5 13 52Zm6 81c-.6-1.9-13-9.2-11-11 5-.4 9.6 1.7 14.5 2 1.3 0 6.3.7 6.5-1-30.3-11.1-48-41.6-59-70.5l-8.5-34.5c-6.3 10-5.3 24.8-3.1 36 3.3 16.4 28 58.3 41.1 68.9 4.8 3.9 13.5 9.8 19.5 10Z" class="shading" data-original-prefix="shading" opacity=".2"/><path id="outline-shading-head2" class="outline"  fill="#000" d="M1206.2 959c2.1-.4 2.6.2 4 1.5 2.9 2.6 19.8 27.8 22.5 32.5.8 1.3 2 2 1.5 4-2.7 2.7-13.5-7.8-15.4-10.1-2.9-3.5-15.4-24.9-12.6-27.9" class="shading" data-original-prefix="shading" opacity=".2"/><path id="outline-head3" class="outline"  fill="#000" d="M772 912c-.9 0-4 7.5-4.5 9 1.1-2.3 5.6-5.6 5.5-8 0-.8-.2-1-1-1" class="outline" data-original-prefix="outline"/><path id="outline-head2" class="outline"  fill="#000" d="M1265.2 913c0 2.4 4.4 5.7 5.5 8-.5-1.4-3.6-8.9-4.5-9-.8 0-1 .2-1 1" class="outline" data-original-prefix="outline"/><path id="outline-head5" class="outline"  fill="#000" d="M816.9 1052.3c-2.6 4.2-74.2 20.2-107.3-13.5-2.5-2.5-2.4-6.6-4.8-9.2s-12.7-7.5-17-11c-9.2-7.4-13.6-16.8-15.4-25-4.6-4-17.5-7.2-23.4-11.2-17.8-11.9-18.3-21-20.3-40.7s-7.8-9-13-14c-12.5-12.1-21.5-42-20-59s3.3-10.6 3-13.9-7.3-13.9-9-19.1c-5.6-17.3-7.4-34.6-.8-51.8s4.5-5.9 4.8-10.2-2.7-12.8-3.1-19c-1-15.3 1.4-29 8.9-42.2 2.4-4.2 6.8-8.3 8.2-12.8 3.3-10.7.6-19.6 7.2-31.8 3.3-6 11.6-10.4 13.2-13.8s1.6-8.6 2.8-12.2c2.5-7.3 7.6-17.5 12.7-23.3s5.7-3.8 6.5-5.5c2.4-5.4 1.8-11 6.1-17.9s10.4-7.8 13.4-12.6 3.1-9.1 5.1-12.7c7.9-14.4 22.1-19.7 31.3-30 1.9-2.2 3.9-6.4 6.1-8.8 11.7-13.2 38-25.3 55.1-29.9 10.9-2.9 31.8-6.7 19.4 11.2-6 8.6-17.5 19.8-24.7 28.7s-9.6 11.5-14.3 17.5-6.8 5.9-9 10-1.6 10.6-3.5 16.5-10.9 20.7-12.3 26.7.8 17.8-3.8 27.2-4.8 5.3-5.2 6.8c-.8 2.6 1.2 11.9.7 16.7s-5.2 14.5-5.7 19.3 1.8 7.2 1.8 10.7c0 6.1-3.3 15.9-3.1 21s3.2 8.8 4.2 12.9c1.8 7.2 2.3 14.8 1.8 22.1s-2 6.1-1.7 7.9 6.3 7.6 7.3 11.6-.1 6.6 1.2 9.8 4.8 4.6 6.4 8.6.5 8 1.3 9.7 10.6 6.4 14 11.1 5.3 17.9 7.1 19.9 10.1 4.1 12.5 5.5c4.9 2.7 11.5 8.7 14.9 13.1s5.6 10.3 7 11c2.3 1.1 5.6.1 8.3.7 13.3 3 28 13.3 35.2 24.8s5.7 12.7 7.1 13.9 13.9 4.4 17.5 6.5c22.9 12.9 44.3 54 44 80s-8.8 25.6-18 33.5c6.8-24.6 1.7-59.8-15-79.5s-25.2-24-28-21.5c-2.2 16.7-8.5 32.3-16.5 47-13.7 25.2-43.5 63.5-72.5 70.5s-14.3 2.2-21 2.5c.6 4.4 6.2 6.1 9.6 7.9 26.1 13.5 33.7 13.7 61.8 12.4 6.4-.3 14.4-2.5 20.6-3.1Zm-70.7-511.7c2.2-2.9 6.3-6.1 8.3-9.2l16.7-18.4c1.3-7.9-43.5 15-50.5 33.6 2.7 1.6 5 3.7 7.1 6.1s1.9 6.8 5.1 3.9 10.4-12 13.4-15.9ZM722 557.3c-2.9-3.2-10.7-4.1-14.7-2s-10 8.5-11.6 10.4-12.2 14.3-10.6 17.2 9.6.4 21 11.3 4.6 4.8 7 7c1.9 0 10-24.4 11.4-27.6s-.4-13.6-2.6-16.2Zm-43.5 35c-4.2 1.1-15.4 11.7-12.3 16.8s14.4 6.4 17.1 8 7 4.4 9.5 6.5 8.1 9.6 9 10.1c4 2.2 6.7-7 7-10 1.7-13.8-4.5-24.5-16.1-30.4s-8.7-2.3-14.1-.9Zm-32.3 56.8c2.3.7 10.5 1.2 13.9 1.2s17.9 5.6 21.3 7.6 14.1 10.8 15 11.1c5.2 1.4 5.6-10.1 5.3-13.4-.9-9.6-12.1-27.5-20.5-32-12.5-6.8-21.7-3.3-29.4 8.1s-9.7 16.2-5.5 17.5Zm52.3 54.8c.4-.5 1.1-5.2 1.2-6.3 1.1-13.3-4.4-22.1-14.1-29.7-19-14.9-44.1-18.2-57.9 6.7-1.5 2.8-7.1 15.4-5.6 17.6s14.4-1.7 18.1-2c12.9-1.1 28.2.8 40.2 5.8s12 8.1 14.3 8.8 3.3 0 3.8-.8Zm.2 48.2c5.1-26.8-9.9-45.9-35.1-52.1-39.3-9.7-66.2 22.2-58.9 60.6.3 1.6 1.2 2.7 2.6 3.5 12-7.7 26.2-12.9 40.2-15.7 17.2-3.4 35.4-5.4 51.2 3.7m13 44c1.4-2-4.5-7.6-5.5-10-4.9-11.8 1.3-19-14.8-26.2-18.2-8.1-38.2-7.3-56.3-.7-33.2 12.1-41.3 42.5-29.8 74.9s4.2 11.2 6.5 10.6 16.2-13.1 19.6-15.4c17.6-11.9 46.1-24.8 66.5-30.5 2.3-.7 13.4-2.1 13.8-2.7m17.5 23.5c-18.5-23.6-57.2-7.1-77.8 5-29 16.9-48.2 39.3-35.9 75.2 3.2 9.5 15.4 27.1 26.8 19.2 6.4-4.4 22.1-21 28.5-27.5s16.6-19.5 26.5-28.5c11.8-10.7 25.8-19.7 36.1-31.9 1.5-4.3-1.6-8.3-4.1-11.5ZM689.5 880c-12.1 11.7-40.5 43.5-42.7 59.7s7.3 21.9 16 28.8c18.3 14.7 27.9 10.8 45.6-2.2s27.3-28.1 35.4-42.6c9.6-17.1 31.5-62.4 8.4-75.7s-19.9-.6-30 7.1c-10.8 8.1-23.1 15.6-32.7 24.8Zm86.2 13.6c.6-5.4 0-12.3 0-18s-1-2.9-2-2.5c-1.7 19.1-11.3 37.1-21.2 53.3-14 23-35.4 49.2-58.3 63.7-1.1.7-2.2 1.1-3.5 1 2.3 8.1 8.1 8 15.5 7 7.5-1.1 28.8-10.4 27.5-9-4.3 4.3-18.2 14.9-22 15 2.3 2.5 10.8 3.1 14.5 3.1s32.8-3.6 34.2-4.1c4.4-1.3-7 6.1-9 7.2-4 2.2-18 7.4-22.5 8.5s-8.7 1.6-13.2 1.3c-.4 1 2.3 2 2.5 2 0 0 5.6 2.1 18 0s27.4-12.5 33.8-17.2c18.2-13.4 30.2-28.9 39.6-49.4s17.4-43.6 2.1-57.4c-.4 8.7-2.2 17.5-4.7 25.8-5.4 17.9-14.9 37.9-27.5 51.8s-33.6 24.1-13 5.7c5.2-4.7 13-16.7 17-23.5 10.8-18.6 19.8-43.4 19.3-65.2-.2-6.8-9.3-15-16-15.5-2.3 17.1-4.1 31.7-16.4 44.6s-5.3 5.9-8.6 7.4c5.5-11.6 12.6-21.8 14-35.5Z" class="outline" data-original-prefix="outline"/><path id="outline-head1" class="outline"  fill="#000" d="M1243.8 1055.3c28.1 1.3 35.7 1.1 61.8-12.4s9-3.5 9.6-7.9c-6.7-.3-14.5-.9-21-2.5-29-7.1-58.8-45.3-72.5-70.5-7.9-14.7-14.3-30.3-16.5-47-2.8-2.6-25.4 18.4-28 21.5-16.7 19.8-21.8 55-15 79.5-9.1-8-17.9-23.5-18-33.5-.4-26 21-67.2 44-80 3.6-2 16.7-5.7 17.5-6.5 1.4-1.2 5.3-11.1 7.1-13.9 7.2-11.6 21.8-21.9 35.2-24.8 2.7-.6 5.9.4 8.3-.7s5.2-8.6 7-11c3.4-4.4 10.1-10.4 14.9-13.1s11.6-4.4 12.5-5.5c1.7-2.1 3-14.2 7.1-19.9s13-8.8 14-11.1-.3-5.8 1.3-9.7 5.3-5.9 6.4-8.6.4-6.4 1.2-9.8 6.9-9.5 7.3-11.6-1.6-5.4-1.7-7.9c-.4-7.4 0-15 1.8-22.1s4.1-8.9 4.2-12.9c.2-5.1-3.1-14.9-3.1-21s2.1-7.5 1.8-10.7c-.5-4.9-5-12.8-5.7-19.3s1.5-14.1.7-16.7-4-4.4-5.2-6.8c-4.6-9.4-1.9-18.7-3.8-27.2-1.4-6-10-19.7-12.3-26.7s-.7-11.2-3.5-16.5-6.3-6.5-9-10c-4.7-6-9.6-11.7-14.3-17.5-7.2-8.9-18.8-20.1-24.7-28.7-12.4-17.9 8.5-14.1 19.4-11.2 17.1 4.6 43.4 16.7 55.1 29.9 2.2 2.4 4.2 6.7 6.1 8.8 9.2 10.3 23.3 15.6 31.3 30s2.9 9.4 5.1 12.7c3.1 4.7 9.2 5.8 13.4 12.6s3.7 12.5 6.1 17.9c.8 1.8 4.8 3.6 6.5 5.5 5.1 5.7 10.2 16 12.7 23.3s1.5 9.3 2.8 12.2 9.9 7.8 13.2 13.8c6.7 12.2 3.9 21.1 7.2 31.8s5.8 8.6 8.2 12.8c7.5 13.2 9.8 27 8.9 42.2-.4 6.1-3.6 13.5-3.1 19 .4 4.3 3.4 6.6 4.8 10.2 6.7 17.2 4.8 34.5-.8 51.8-1.7 5.2-8.7 16.2-9 19.1s2.6 9.7 3 13.9c1.6 17-7.4 46.9-20 59s-12.2 5.9-13 14c-2 19.7-2.4 28.9-20.3 40.7s-18.8 7.1-23.4 11.2c-1.8 8.2-6.2 17.6-15.4 25s-13.9 7.5-17 11c-2.4 2.7-2.3 6.8-4.8 9.2-33.1 33.7-104.7 17.7-107.3 13.5 6.3.5 14.3 2.8 20.6 3.1Zm63.4-498.8c3.1 3 3.5-2 5.1-3.9s4.3-4.5 7.1-6.1c-7-18.7-51.8-41.5-50.5-33.6l16.7 18.4c2 3.1 6.1 6.3 8.3 9.2 3 3.9 10.8 13.5 13.4 15.9Zm8.1 16.9c1.5 3.2 9.5 27.6 11.4 27.6 2.5-2.1 4.7-4.7 7-7 11.4-10.9 20.4-10.3 21-11.3 1.7-2.8-8.4-14.8-10.6-17.2s-9.9-9.5-11.6-10.4c-3.9-2-11.8-1.2-14.7 2s-4.4 12.3-2.6 16.2Zm32.1 19.9c-11.6 5.8-17.8 16.5-16.1 30.4.4 3 3 12.2 7 10s6.7-8.1 9-10.1c2.5-2.1 6.6-4.9 9.5-6.5s16.6-7.1 17.1-8c3.1-5.1-8-15.7-12.3-16.8-5.4-1.4-9.6-1.3-14.1.9Zm40.8 38.3c-7.7-11.3-16.9-14.9-29.4-8.1s-19.6 22.5-20.5 32 .1 14.8 5.3 13.4 12-9.3 15-11.1 18.3-7.6 21.3-7.6 11.6-.6 13.9-1.2c4.2-1.2-3.9-15-5.5-17.5Zm-42.9 73.1c2.3-.7 9.9-7 14.3-8.8 12-5 27.3-6.9 40.2-5.8s16.4 4.4 18.1 2-4-14.8-5.6-17.6c-13.7-24.8-38.9-21.6-57.9-6.7s-15.2 16.4-14.1 29.7c0 1.1.8 5.8 1.2 6.3.6.8 2.8 1.1 3.8.8Zm47.2 43.7c14 2.8 28.2 7.9 40.2 15.7 1.4-.8 2.3-1.8 2.6-3.5 7.3-38.5-19.6-70.4-58.9-60.6s-40.1 25.4-35.1 52.1c15.8-9.1 34-7.1 51.2-3.7m-50.4 50.4c20.4 5.7 49 18.6 66.5 30.5 3.4 2.3 17.9 15 19.6 15.4s5.8-8.6 6.5-10.6c11.4-32.4 3.3-62.7-29.8-74.9-18.1-6.6-38.1-7.4-56.3.7-16.1 7.2-10 14.4-14.8 26.2s-6.9 8-5.5 10 11.4 2.1 13.8 2.7m-35.4 32.3c10.3 12.2 22.1 21.8 33.9 32.6 9.8 9 19.7 18.8 28.7 27.9 6.4 6.5 22.1 23.1 28.5 27.5 11.3 7.9 23.5-9.7 26.8-19.2 12.3-36-5.8-57.9-34.8-74.8-20.7-12.1-60.4-29-79-5.4-2.5 3.2-5.7 7.2-4.1 11.5Zm11 24c-10.1-7.6-16.8-14.6-30-7.1-23.1 13.3-1.2 58.6 8.4 75.7 8.1 14.5 22.1 32.8 35.4 42.6 17.7 13 27.3 16.9 45.6 2.2s17.6-17 16-28.8-32.4-46.2-44.6-57.9c-9.6-9.2-20.1-18.5-30.9-26.6Zm-39.4 74c-3.3-1.5-6.8-5.6-8.6-7.4-12.3-12.8-14.1-27.5-16.4-44.6-6.8.6-15.9 8.7-16 15.5-.5 21.9 8.5 46.7 19.3 65.2 3.9 6.8 11.8 18.8 17 23.5 20.6 18.4-10.1-2.5-13-5.7-12.6-13.9-22.1-33.9-27.5-51.8-2.5-8.3-4.3-17.1-4.7-25.8-15.3 13.7-5.2 41.4 2.1 57.4 9.4 20.5 21.4 36 39.6 49.4 6.4 4.7 21.5 15.1 33.8 17.2s18 0 18 0c.2 0 2.9-1 2.5-2-4.5.3-8.8-.3-13.2-1.3s-18.5-6.3-22.5-8.5-13.4-8.5-9-7.2 29.6 4 34.2 4.1 12.2-.5 14.5-3.1c-3.8-.2-17.7-10.7-22-15-1.3-1.3 20 7.9 27.5 9 7.4 1.1 13.2 1.1 15.5-7-1.3.1-2.4-.3-3.5-1-22.9-14.4-44.3-40.7-58.3-63.7-9.9-16.2-19.5-34.2-21.2-53.3-1-.4-2 2.3-2 2.5 0 5.7-.6 12.6 0 18 1.4 13.7 8.5 23.9 14 35.5Z" class="outline" data-original-prefix="outline"/></g></svg>