<?xml version="1.0" encoding="UTF-8"?>
<?xml-stylesheet type="text/css" href="styles/collection.css"?>
<svg xmlns="http://www.w3.org/2000/svg" viewBox="0 0 2048 2048"><g id="01_background" data-trait="green"><path id="color-green" fill="#32992c" d="M2048 0v2048H0V0z" data-original-style="transition:fill .3s ease" style="transition:fill .3s ease"/></g><g id="02_Jaw" data-trait="robo"><path id="fill-jaw-robo1" class="fill"  fill="#fff" d="M1369.9 1062.1c.4.5 1 11.1 1.4 13.1 11.6 61.7 25.9 123 37.2 184.8 16.2 20.3 35.3 38.1 51.5 58.4l-70.1 149.9-2.3 1.6-31.6-1.9-7.8 59.7-101.2 128.8c-1.6 1.1-2.6-.6-3.6-1.6-11.2-11.1-20.8-28.6-32-40-1.3-1.3-2.6-3.5-4.8-2.9-3.4.9-32.4 51.8-38.3 57.8-25.8 9.8-49.6 24-74.7 35.3-8.9 4-63.2 23-65.1 25.9-.6 1-.4 2.8-.6 2.9-.2.2-3.1-.9-4.4-.9s-3.2 1.3-3.6.9c-.3-.3.7-2.4-2.3-4.2-13.4-8.1-38.6-14-54.4-20.6-28.2-11.8-54.4-28.3-83.3-38.7-6.3-5.8-35.3-57.4-38.7-58.4-2.2-.7-4.5 2.4-5.9 3.9-11.6 12.1-21.3 28.8-33.1 41l-1.9-.9-100.9-128.1c-3.2-19.9-5.4-39.9-7.5-60l-31.6 1.9-2.5-1.4-69.8-149.3c-.3-1.9 4.6-7.3 6.3-9.3 14.5-16.8 30.7-32.1 44.6-49.4 10.6-62 27.2-123.3 37.7-185.3.5-3.2-.7-11.9 2-13.3 104.8-21.7 209.7-42.7 314.5-64.3 7.3-1.5 24.9-7.3 30.5-7.5 4.2 0 24.8 6.2 31.1 7.5 105 21.6 210.1 42.9 315.1 64.4v.2z" class="fill" data-original-prefix="fill"/><path id="outline-shading-jaw-main" class="outline"  fill="#000" d="m1369.9 1062.1 28.1 145.4c-4.8-.6-19.2-17.4-22.3-16.4-3.4 1-21.1 37.8-20.7 42.4 12.3 15.8 24.8 31.6 35.4 48.6 3.7 5.9 15.5 24.5 15.6 30.5 0 4.7-10.7 25-13.5 30.5-4.5 8.7-9.8 16.9-14.5 25.5 17.3-8 33.9-18.4 49.3-29.7 4.1-3 10.3-7 13.7-10.3 2.3-2.2 12.4-16.5 13.5-16.5l5.5 6.4-65.1 139.9-6.5 11.5-32.3-1.9-7.8 59.7-101.2 128.8c-1.6 1.1-2.6-.6-3.6-1.6-11.1-11.1-20.8-29.2-31.9-40-.8-.8-1.6-2.1-2.9-1.9-7.3 1.3-32.3 48.3-39.7 55.4-30.9 14.9-60.7 32.4-91.6 47.4-12.8 6.2-33.2 17.2-46.8 18.2-23.7 1.7-37.4-7.3-57.9-17.2-31.4-15.1-61.6-32.8-93-48-8.2-6.6-32.8-54.4-40.3-55.8-2.8-.5-31.3 38.2-35.8 43-1 1.2-2 1.2-3.1 0l-100.9-128.1-7.5-60-31.6 1.9-2.5-1.4-69.8-149.3c-.3-3.1 3.7-7.8 6.8-5.8 1.9 1.2 8.8 11.9 11.5 14.6 2.9 2.9 7.8 6.2 11.2 8.8 4.5 3.4 49.2 33.3 51.3 31.2-7.3-15.4-17.3-29.8-23.8-45.6-1.2-2.9-3.2-6.7-3.2-9.9 0-5.3 10.4-22 13.7-27.4 11-18.2 24.3-34.9 37.4-51.6-4.2-15.2-12-29-20.1-42.3-.9-.5-2 0-2.9.4-6.3 3.4-12.9 13.3-20 16.5l28.1-145.9 45.8-9.7c48.2-55 116.4-93.5 184.8-118.2 72.2-26 130.6-31.5 205-8.5 77.7 24 155.9 65.5 210.3 126.7zM854 1330c-21-6.7-43.3-4.3-64.4-11.1-14-4.5-30.8-14.7-42.9-23.1-18.1-12.6-35.7-28.4-49.2-45.8-10.7 14.6-22.1 30.4-30.7 46.3-4.3 8-11.3 21.1-7.7 30.1l27.1 48.4c6.1 1.6 17.5-4.7 22.8-2.3 1.5.7 2.4 3.5 4.5 3.5s4.4-5.1 7-5.1 3.4 4.4 7 4.1 5.2-6.6 7.2-7c.5 0 8.2 2.7 8.6 2.9 4.7 2.4.3 18-3.2 21.4.3 1.5 14.2 9.3 16.4 9.6 2.9.5.2-2.4 1-4.9s6.5-6.3 8.8-5.9c5.4.9 6.3 10.2 14.7.3 1.9-2.2 0-4.1 4.5-4.6 8.5-1 5 8.4 7 14.1 12.4-17.2 20.2-37.4 32.1-54.9l29.4-16.1Zm507.8 44.8c8.8-17.7 20.1-34.4 28.2-52.3-.4-8.9-2.9-14.5-6.9-22.2-8.9-17.4-21.4-34.4-32.7-50.3-21.1 25.5-52 52.2-82.8 65.2-24.8 10.4-48.4 7.8-73.7 14.8l29.7 16.3c11.6 17.6 19.4 37.7 31.8 54.7.9-1.8 1-13.5 1.5-14s7.3-.2 7.8.2c1 .6 1.6 7.8 6.9 8.7 6.3 1.1 7.7-7.8 15.4-2.8 2.7 1.8 3.1 6 2.8 8.9 1.2 1.4 17.7-8.3 18-9.6.2-1-3.9-5.8-4.6-8.4-2.2-9.5-1.5-13.7 8.4-14.8 5.3-.6 2.8 2.2 5.5 4.5 4.6 4 7.8-2.7 10-2.6 2.7.2 5 4.9 7.2 4.9s3-2.8 4.5-3.5c5.2-2.4 16.6 3.8 22.8 2.3zM1078 1327c-5.5-11.1-10.5-24.8-17.6-34.9-4.2-6.1-10.2-10.5-14.9-16.1-3.4-4-15.2-20.5-18.4-21.6-1.9-.6-4.4-.8-6.3-.2-2.4.7-15.7 18.7-18.7 22.3s-7.4 6.8-10.5 10.5c-9.4 11.2-15.1 26.9-21.5 40h108Zm-353.8 172.8c24.8 5.4 50.2 7.7 75 13.6 17.3 4.1 20.3 3.6 29.6 19.4 5.3 8.9 9.2 18.7 14.2 27.8l17 14-29.2-80.8c-2.4-5.8-8-8-13.1-10.9-22.2-12.9-51.7-27.2-75.7-36.3-2.6-1-8.1-3.8-10.4-3.5-1 0-15.6 9.5-16.3 10.3-6.3 7.6 6.8 37.2 8.9 46.5Zm599.6 0c2.5-10.6 8.2-22.1 9.8-32.7.8-5.7 1.7-10.9-3-15.1-1.1-1-13.2-8.9-14-9-2.5-.3-19.4 7.2-23.2 8.8-20.7 8.8-45.7 20.5-65 32-5.6 3.4-8.8 4.9-11.8 11.2l-28.5 80 16.4-14.1c7.1-10.9 14.9-35.4 25.9-42.1 6.1-3.8 19.9-5.9 27.5-7.5 21.8-4.6 44.2-6.7 66-11.5zM908.5 1649v1c.7-.3.7-.7 0-1m229.5 1c-31 8.8-60.6 26.8-91 36.5-19.3 6.2-28.3 5.9-47.5-.4-28.3-9.3-56.5-25.5-85-35.1-1.2-.4-3.6-1.8-4.5-.5.8 2.1 2.7 4.2 4 6 4.9 6.3 18 23.3 23.5 27.5 7.2 5.5 27.9 14.6 37.1 18.9 5 2.3 20.9 10.5 24.9 11.1 9 1.4 36.3 1 46 0 7-.6 57.7-24.6 64.4-29.6 5.3-3.9 18.2-20.8 23-27 .8-1 5.8-6.8 5-7.5Z" class="shading" data-original-prefix="shading" opacity=".2"/><path id="outline-jaw" class="outline"  fill="#000" d="M670 1105c2 .2 9.2 3.6 9.8 5.7 1 3.3-1.3 18.1-2 22.7-6 41.8-19.7 84.1-28.6 125.4-12.3 18.3-29.3 33.5-43.8 50.2-1.2 1.3-6.5 7.5-6.5 8.5l56 135.5c1.5.4 1.7-.4 2.5-1 7.1-4.9 23.9-23.3 30.5-30.5 1.5-1.6 9.9-11.2 10-12-17.6-32.9-42.5-63.1-49.8-100.8 17.2-28.9 35.3-57.4 56.9-83.2 6.2-7.4 21.8-27.5 32-26.1 4.7.6 8.6 4.8 6.4 9.5-23 21-44.9 44.7-62.7 70.3-3.2 4.6-15.2 22.2-15.6 26.5-.5 5.1 11.8 29.8 15 35.6 7 12.8 29.4 46.8 40.5 54.5 2.8 1.9 7 3.2 10 5 77.7 46.7 153.2 90.1 243.1 109.9 13.1 2.9 37.4 9.1 49.8 9.2 11.3 0 33.7-5.7 45.6-8.2 92.6-19.7 168.3-62.9 248.1-110.9 3.1-1.8 7.2-3.1 10-5 11.1-7.7 33.4-41.8 40.5-54.5 3.2-5.8 15.5-30.5 15-35.6-.4-3.9-10.7-19.3-13.6-23.5-18.3-27-40.8-51.3-64.7-73.3-2.5-9.2 6.9-10.8 13.8-7.8 10.7 4.6 40.4 44.2 48.5 55.5 11.9 16.7 22.3 34.6 33 52.1-7.3 37.7-32.2 67.9-49.8 100.8 0 .8 8.5 10.4 10 12 6.6 7.2 23.4 25.6 30.5 30.5.8.6 1 1.4 2.5 1l55.8-135.3c-15.4-20.6-35.6-37.7-50.1-58.9-8.6-41-22.6-83.1-28.6-124.4-.7-4.8-3.1-20-1.9-23.7.6-2.1 8-5.5 9.8-5.7 4.6-.4 10.8 5.1 11.9 9.6 8.1 44.1 13.6 92.9 27.6 135.4 9.1 27.6 33.8 39.8 52 60 4.9 5.4 6.6 7.2 4.8 14.8-2.1 8.6-9.2 23.2-12.8 32.2-16.7 41-35.5 81.7-54.5 121.5-2.5 2.1-18.6 9-21.4 8.6-4.6-.7-13.3-13.3-18.5-15-3.1 22.3-7.1 44.7-11.8 66.7-29.2 38.3-55.4 79-82.3 118.7-10.2 4.1-22.2 12.3-32.2 15.8-1.5.5-3 1.3-4.6.7l-24.6-43.9c-1.1.5-16.2 15.9-17.3 17.7-6.5 10.1-3.8 21-14.2 29.8-22.9 19.1-72.2 40.2-100.7 51.3-18.6 7.3-34.3 14.2-54.7 14.3-24 .2-49.5-11.4-71.5-20.6-23.2-9.8-67.3-29.4-85.5-45.5-10.3-9.1-7.3-19.2-13.7-29.3-1.1-1.7-16.2-17.1-17.3-17.7L812 1674c-1.6.6-3.1 0-4.6-.7-10.1-3.5-22-11.7-32.2-15.8-26.9-39.8-53.1-80.4-82.3-118.7-4.7-22-8.6-44.4-11.8-66.7-5.2 1.7-14 14.4-18.5 15-2.8.4-18.9-6.5-21.4-8.6-19-39.8-37.8-80.5-54.5-121.5-3.6-8.9-10.8-23.6-12.8-32.2-1.8-7.6 0-9.4 4.8-14.8 13.4-14.9 37.6-30.5 47.2-47.8 7.3-13.1 12.4-41.8 15.8-57.2 4.5-20.4 8.5-41.2 12.2-61.8 1.5-8.5 1.8-19.4 3.7-27.3 1.2-5 7.2-11.3 12.6-10.9zm664.9 411.9 14.2-77.4c-.2-3.8-5.4-5.5-8.1-8-2.9-2.7-5.4-5.9-8.6-8.3-82.7 31.3-155.3 82.7-242.3 103.3-57 13.5-94.2 11-150.2-4.8-69.9-19.7-131-59.2-197.1-87.9-6-2.6-20.1-9.4-25.7-10.4-2.8-.5-7.7 6-10 8.1-2.1 2-7.6 4.5-8.1 7l14.2 78.3c17.8 1.1 35.6 3.8 53.4 5.1 9.3.7 42.4-.4 47.8 3.9 8.5 20 14.6 41 23.2 61 2.8 6.5 6.2 15.2 9.9 21.1 5.4 8.7 15 14.9 20 23.1 5.6 9.2 8.1 23.6 15.5 31.5 5.1 5.5 21.6 15 28.8 19.2 31 18.4 83.7 44.6 119.8 42.2 30.1-1.9 87.2-31 113.4-47.6 5.2-3.3 16.2-9.8 20.1-13.9 7.2-7.5 10.4-24.2 16.1-32.9 2.7-4.1 8-7.8 11.3-11.7 8.3-9.7 11.9-17.5 16.9-29.1 9-20.6 15.3-42.4 24.2-63 14.6-5 32.2-2.8 47.8-4 17.8-1.3 35.6-4.1 53.4-5.1v.3ZM801 1649c5.8-16.3 16.4-30.6 24.8-45.6-4.3-11.7-7.5-23.9-12-35.6-2.2-5.8-7.4-19.7-10.9-24.1-10.8-13.6-69.6-12.5-86.9-16.6-.5 1.7.7 2 1.5 3 13.4 17.3 27.7 33.6 40.3 51.7 15.2 21.9 28.4 45.1 43.2 67.3Zm531-122c-17.3 4.1-76.1 3-86.9 16.6-3.5 4.4-8.6 18.3-10.9 24.1-4.5 11.7-7.7 23.9-12 35.6 8.4 15.1 18.9 29.3 24.8 45.6 14.7-22.2 27.9-45.4 43.2-67.3 12.6-18.1 26.9-34.3 40.3-51.7.8-1 1.9-1.3 1.5-3Z" class="outline" data-original-prefix="outline"/><path id="outline-jaw1" class="outline"  fill="#000" d="M785.7 1376.3c8.1 7.2 8.5 18.5 4.1 27.9-5.2 10.9-19.3 10.7-26.7 2.3-15.1-17.3 3.6-47 22.7-30.2Zm-12 4.9c-10.7 1.7-7.7 23.9 4.7 21.8 10.2-1.7 4.4-23.3-4.7-21.8" class="outline" data-name="outline-jaw" data-original-prefix="outline"/><path id="outline-jaw2" class="outline"  fill="#000" d="M1262.3 1376.3c22.7-20.1 40.5 23.7 16.9 34.4-21.7 9.8-31.5-21.5-16.9-34.4m10.4 4.9c-10.5 1.7-12.6 25.9 1.3 21.4 10.1-3.2 8.1-22.9-1.3-21.4" class="outline" data-name="outline-jaw" data-original-prefix="outline"/><path id="outline-jaw3" class="outline"  fill="#000" d="M723.7 1356.2c15.6-2.8 28.9 19.5 15.8 29.8-10 7.8-24 0-26.8-11.2-1.8-7.1 3.5-17.2 11-18.6m9.1 22.6c6.5-6.5-8.3-22.1-11.4-7.8-1.5 7.3 7.1 12.1 11.4 7.8" class="outline" data-name="outline-jaw" data-original-prefix="outline"/><path id="outline-jaw4" class="outline"  fill="#000" d="M1317.7 1356.2c14.2-2.9 23 13.6 14.3 25.3-12 16-34.6 4.8-27.5-13.5 1.7-4.3 8.7-10.8 13.2-11.8m-2.5 22.6c4.3 4.3 12.9-.5 11.4-7.8-3-14.3-17.9 1.3-11.4 7.8" class="outline" data-name="outline-jaw" data-original-prefix="outline"/></g><g id="03_Mouth" data-trait="OG"><path id="fill-muzzle" class="fill"  fill="#fff" d="M1125 1622c-3.4-2.3-6.5 6.6-8 8.5-3.7 4.7-17.7 19.6-23.5 19.5-2 0-5.3-4.8-7.8-6.2-7.4-4.3-19.1-5.3-26.8-1.4-4.2 2.2-10.1 9.4-13.4 9.7-7.7.5-10.7-10.3-17-11.2-2.3-.3-9.7-.3-11.5.6-3.2 1.4-8.9 10.8-13.7 11.3-3.1.3-10.3-8.4-13.4-10.2-6.5-3.8-16.5-3-23.5-.6-4.3 1.5-10.5 8-12.8 7.8-5.8-.5-18.9-14.5-22.7-19.3-1.6-2-2.1-4.7-3.5-6.4-5.4-6.8-5.6 3.9-7.6 7.3-9.4 15.7-21-13.3-24.8-18.9-2.4-3.5-7.2-5.7-10-9-9.7-11.6-6.4-27.5-10.3-40.7-1.7-5.8-11.6-19.5-14.9-27.1-10-22.6-12.3-43.5-10.8-68.2-2.4-7.1.4-27.9-4.5-32.5-2.1-2-6.1-2.7-8.5-4.5-5.9-4.5-12.8-32.2-11.9-39.8 1.1-9.4 12.1-25.4 18.4-32.6 12.3-14.3 37.4-24.6 56-26 4.8-.4 28.1 1.1 29.5.5s5.1-5.4 7.1-6.9c8.7-6.5 17-9.5 27.7-11.3 3.7-.6 7.6.4 11-1 3.1-1.3 11.4-13.2 17.3-16.7 10.5-6.1 38.9-5.7 51.5-4.6 5.7.5 13.4 3.6 18 7 3.7 2.8 11.2 13.2 13.8 14.2 3.3 1.4 7.3.4 11 1 8.9 1.5 16.5 3.9 24.1 8.9 2.7 1.8 9.7 8.9 10.7 9.3 1.3.6 23.9-.9 28.5-.6 16.1 1.1 33.8 7.8 46.8 17.2 12.1 8.8 30.2 32.8 28.7 48.3-.4 4.3-7 26.5-9.2 29.8-3.6 5.6-10.6 4.5-13.7 10.3l-3.2 43.8c2 20.7-2.7 38.4-11.1 56.9-3.2 7-11.5 17.9-13.4 23.6-4.4 13-.9 27.8-9.6 40.4-2.9 4.2-8.2 6.2-10.8 10.2-1.6 2.3-2.2 5.7-3.8 8.2-2.8 4.2-10.6 16.7-16.2 14.9-7.1-2.2-6.8-12.8-8-13.6h-.2Z" class="fill" data-original-prefix="fill"/><path id="fill-teeth16" class="fill"  fill="#fff" d="M995.3 1525.7c11 9.5 17.2-6.6 23.2 6.3 6.5 14.1 3.7 38.4-1 52.9-.7 2.1-7.1 16.9-8 17.1-1.2.3-3-.4-4.2-.9-12-5.1-31.7-18.1-39.1-28.9-10.6-15.5-6.4-42.9 6.8-55.8 1.3-1.3 9.1-5.6 10.4-5.3 1.5.3 9.4 12.3 12 14.5h-.1Z" class="fill" data-original-prefix="fill"/><path id="fill-teeth15" class="fill"  fill="#fff" d="M1039.1 1601.9c-.8-.5-7.5-16.1-8.1-18.4-4.1-13.8-6.5-36.9-1.3-50.3 4.6-12 8.1-4.3 15.8-4.2 9.5.2 17.3-18.2 20.8-17.9 1.2 0 8.5 4.2 9.7 5.3 6.3 6.2 12.2 22.3 13 31 2.4 28-20.3 39.6-41.3 50.7-2 1.1-5.7 5.5-8.6 3.7Z" class="fill" data-original-prefix="fill"/><path id="fill-teeth14" class="fill"  fill="#fff" d="M904 1461c0 2.2-1.1 3.8-.8 6.2.2 1.8 7.1 22 8 23.1 3.9 5.1 11.2 3.2 16.7 3.8 4.9 13.5-4.2 23.8-8.6 35.6-2 5.3-8.7 33.1-12.8 34.2-1.8.5-6.8-9.1-8.3-10.7-10.3-23.9-15.3-58.4-2.6-82.2.6-1.2 7.1-11.6 8.4-10.1Z" class="fill" data-original-prefix="fill"/><path id="fill-teeth13" class="fill"  fill="#fff" d="M1144 1564c-2.1 1.4-6.1-7.1-6.8-8.7-3.2-7.9-4.4-17.4-7.5-25.5-4.3-11.6-13.6-22-8.6-35.6 4.8-.6 12.3 1.2 15.9-2.9 1.3-1.5 8.1-20.6 8.6-23.2.3-1.8-1.4-7 .9-6 6 2.7 13.7 26 14.4 32.6 1.4 13.9-2.9 45-9.3 57.4-.8 1.5-7 11.6-7.6 11.9" class="fill" data-original-prefix="fill"/><path id="fill-teeth12" class="fill"  fill="#fff" d="M1093.1 1644.9c-2.9-1.8-2.4-28.5-2.1-33.4.7-10.5 5.2-31.2 8.9-41.1 1.1-2.8 2.4-1.4 4.2 0 12.2 9.6 21.1 44.8 12.8 57.9-1.9 3-15.6 14.9-18.9 16.1-1.3.5-3.8 1.1-4.8.4Z" class="fill" data-original-prefix="fill"/><path id="fill-teeth11" class="fill"  fill="#fff" d="M949 1569c5.5 22 11.1 44.4 9 67.5-.5 5.2-.9 10.3-7 8-3.4-1.3-17.5-13.4-19.5-16.5-5.8-9.2-1.4-31.3 2.7-41.2 1.2-2.9 11.3-21 14.8-17.7Z" class="fill" data-original-prefix="fill"/><path id="fill-teeth10" class="fill"  fill="#fff" d="M881.7 1478.3c3.1 2.8-2.7 21-2.8 26.2 0 5.9 2.6 12.4 3.1 18 .2 2.1.7 24.5-.5 24.5-1.5.2-2.1-1.1-2.9-2.1-15.6-18.9-34.8-51.8-17.4-75.3 6.5-8.8 10.5 2.1 14.9 5.8 1.8 1.5 4.9 2.1 5.7 2.8Z" class="fill" data-original-prefix="fill"/><path id="fill-teeth9" class="fill"  fill="#fff" d="M1185.7 1467.3c1.9 1.6 7.8 13.7 8.2 16.2 3.2 20.7-9.8 47.3-23.9 61.9-.9 1-1.3 1.9-3 1.5.5-8-.7-16.6 0-24.5.4-5.4 3.1-12.3 3.1-18s-6.1-23.4-2.8-26.2c.6-.6 2.5-.6 3.8-1.7 3.4-3 10-13.1 14.7-9.3Z" class="fill" data-original-prefix="fill"/><path id="fill-teeth8" class="fill"  fill="#fff" d="M1018 1613v16.5c0 .9-10.8 13.2-11.9 14.1-6.3 4.8-8-2.6-10.6-5.5-5.5-6-17.9-.4-24.4-5.6-1.2-.9-4.1-8.8-4.1-9.9v-22.5c12.9 1.7 28.3 17.5 41.4 15.9 3.5-.4 6.1-3 9.6-2.9Z" class="fill" data-original-prefix="fill"/><path id="fill-teeth7" class="fill"  fill="#fff" d="M1031 1613c6.3 1.3 9.1 4 16.1 2.6 10.6-2.2 24.3-14.8 33.4-15.6 2-.2 1.4 0 1.2 1.3-.8 6.5 2.4 27.5-4.4 31.6-7 4.2-18.8-.3-23.4 4.6-2.1 2.2-3.6 8-8.4 7.6-1 0-14.6-13.5-14.6-14.6V1613z" class="fill" data-original-prefix="fill"/><path id="fill-teeth6" class="fill"  fill="#fff" d="M1102.5 1494c3.3-.8 4.5 6.9 5.3 8.7 5.6 12.1 13 24.8 13.3 38.8.2 9-16 29.8-21.3 16.2-4-10.4-4.1-44.8-1.1-55.5.4-1.6 2.4-7.9 3.8-8.2" class="fill" data-original-prefix="fill"/><path id="fill-teeth5" class="fill"  fill="#fff" d="M937.3 1559.7c-1.9-1.6-7.8-10.5-8.5-13-3.6-12.1 6-31.3 11.4-42 1.6-3.1 3.3-14.7 8-7.4 5.5 8.5 4.3 41.5 2.7 52.1-1.2 7.7-3.6 18.7-13.6 10.3" class="fill" data-original-prefix="fill"/><path id="fill-teeth4" class="fill"  fill="#fff" d="M917 1563c-1.8 13.4 2.9 27.5 2 40.5-.6 9-4.4 18.4-5.5 27.5-6.2-6-10.5-16.1-11.4-24.6-.5-5.2.7-24.7 2.4-29.3.6-1.6 10.5-16.2 12.4-14.1Z" class="fill" data-original-prefix="fill"/><path id="fill-teeth3" class="fill"  fill="#fff" d="M1135 1631c-.4-8.9-4.4-17.8-5.1-26.5-1-13.8 3.7-27.6 2-41.5 2.2-2.4 11.9 13 12.5 15 2 6.6 2.6 27.4 1.2 34.3-1.3 6.3-5.5 14.9-10.8 18.7z" class="fill" data-original-prefix="fill"/><path id="fill-teeth2" class="fill"  fill="#fff" d="M1154.1 1604.9c-3.4-2-5.1-22.3-3.9-26.2.8-2.6 8.9-5.2 10.2-8.8l5.1-10.9c3.8 3.4 5.1 7.2 4.3 12.2-.7 4.2-5.4 22.7-6.9 26.2-.9 2.2-6.1 9-8.8 7.5" class="fill" data-original-prefix="fill"/><path id="fill-teeth1" class="fill"  fill="#fff" d="M885 1559c-.3 3.7 1.7 9.4 4 12.2s9.5 5.2 10 8.3c-2 8.4 1.6 19.2-5.7 25.4-3.6-1.1-6-4-7.4-7.4s-6.5-23.6-6.9-27.1c-.5-4.2 1.2-10.6 5.9-11.4z" class="fill" data-original-prefix="fill"/><path id="outline-shading-mouth2" class="outline"  fill="#000" d="M918 1443.5c.8 5.3 5.6 13.8 10.1 16.9 11.5 8.3 16.2-.3 22.4-9.4 2.5 5.4 3.4 11.5 6 17 1.4 2.8 5.7 12 7.5 5.5l4-11.5c1.6 7.5 6.3 15.4 11.5 21 4.3 4.7 18.8 15.4 24.6 9.6 2-2.1 8.3-17.9 10.8-22.2 1.2-2.2 7.8-13.8 9.7-13.3 1 .2 8.5 13.2 9.7 15.3 2.4 4.5 7.3 17.7 9.8 20.2 3.8 3.8 10.5.4 14.4-1.8 10.5-5.9 18.5-17.2 21.7-28.8l4.2 12.3c.3 1.2 1.9 2.4 2.8 1.7.6-.4 5.8-11.3 6.5-13 .8-2 2.8-12 4-12 6.8 10.7 12.9 18.4 24.5 7.5 8.6-8 9.3-23.8 7-34.5 3.5-3.1 21.1 16.1 26.6 16.9 9.1 1.4 17.6-11.8 19-19.9 3.5-20.5-12.9-39.2-30.9-46.2l-12.7-4.8c15.4 0 28.2 2.9 41.1 11.4 4.8 3.1 12.2 10.9 17.6 11.4 6.2.6 10.1-4.1 10-10-.4-19.3-25.8-38.1-39.7-48.8 15.4 2.4 34.6 11.8 45 23.5 7.8 8.8 19.1 25.1 19.1 37s-6.4 28.5-9.2 32.8c-3.3 5.3-11.7 5.4-13.4 10.6-.9 8.1-2.1 16.4-2.5 24.5-1.5 29 1.4 45.2-10.8 73.2-3.6 8.2-12.7 20.4-14.9 27.1-4.2 12.8-.7 26.4-9.1 38.9-3.2 4.8-8.4 6.7-11.2 10.8-1.7 2.5-2.4 6.1-4.2 8.8-4.5 6.7-14.6 23-21.6 8.9-1.6-3.3-1.3-12.9-6.7-6.2-1.4 1.7-1.9 4.4-3.5 6.5-3.7 4.7-17.7 19.6-23.5 19.5-2.2 0-4.5-4.1-6.6-5.4-7.9-5-21.1-6.3-29.2-1.4-7.3 4.4-9.5 13.6-18.1 6.8-8.6-6.7-6.4-10.8-20.1-9-5.6.7-11.4 12.6-16.9 12.1-2.8-.2-11.4-11.1-18.5-12.6-6.3-1.3-17.5.7-23 4.2-2.6 1.7-4.1 5.6-7.5 5.4-5.7-.3-19.8-15.8-23.6-20.5-1.2-1.5-4.4-10.6-7.1-6.9-2.5 3.4-.6 9.9-7.2 12.7-7 3-14.9-11.2-18.1-16.4-1.2-1.8-1.2-4.3-2.6-6.4-2-3-6.8-5.4-9.5-8.5-10.4-11.9-6.7-27.7-10.7-41.3-.8-2.6-5.6-8.5-7.3-11.7-18.4-35.7-16.4-45.6-18.4-84.6-.4-7.7-.6-20.7-2.2-27.8-1.5-6.2-11.1-6.1-14.2-11.8-3.4-6.1-9.3-29.6-8.6-36.4 1.2-10.3 16.2-31.2 24-38 10.5-9.2 26.2-16.5 40-18.5l-21.5 17c-7.2 6.4-26.8 32-14.8 39.9 9 5.9 16.7-4.5 23.7-9.1 12.7-8.4 25.3-11.8 40.7-11.8l-17.3 7.2c-18 9.4-33.1 32.7-22.1 52.8 1.7 3.1 8.6 10.4 12 11.1 9.1 1.7 20.7-15.4 29.5-18 .6 6.4-.9 14.3 0 20.5zm-37.1 40.6c-12.3-.5-17.1-20.2-22.8 1.5-3.4 13 1.2 26.4 9.4 36.5 1.5 1.8 12.7 13.1 13.9 12.9.8 0 2.5-2.3 2.8-3.2 2.9-7.1-3.2-12.2-4.2-19.2-1.5-9.8 0-18.7.9-28.4Zm301.8-8.9c-3.2.8-6.3 6-8.8 7.3-2.1 1.1-7.2 1-7.8 3.2-.5 1.7 3 10.8 2.9 14.8 0 3-1.5 13.9-2.2 16.8-.9 3.6-3.9 5.7-3.9 10.2s1.4 7.1 3.7 7.4c1.9.3 15-14.4 16.8-17 5.7-8.5 9-18.8 7.3-29.2-.5-3-4.4-14.5-8-13.6Zm-284.8 10c-4-2.3-6.5 9.9-6.8 12.5-1.2 10.5 3 38 8.7 47.1 1.9 3 5.4 6.9 9.2 7.3 3.7-15.6 12.6-29.2 21-42.5-2.3-.4-1.7-2.9-2.7-3.5-1.5-.9-7-1.9-9.7-3.1-4.7-2.2-12-7.7-15.6-11.4-1.2-1.2-3.8-6.2-4.2-6.3ZM1139 1552c8.3-2 11.9-12.2 13.9-19.6 3.1-12.1 6.1-33.4 1.1-44.8-3-6.9-5.8 1.7-8.3 4.1-3.9 3.8-11 9.3-16 11.6-2.5 1.1-7.8 1.8-9.1 2.7-.7.5-.5 1.8-1 2.7-.3.4-1.7.4-1.6.9 0 1 7.9 12.3 9.2 14.8 4.8 8.8 9.1 18 11.8 27.7Zm-197.7 5.7c8.1 8.1 9.5 0 10.5-7.3.8-5.6 2.7-20.6 1.7-25.4-3.6-17.2-21.3-15.9-21.6 3.6 0 6.8 4.6 24.3 9.4 29.2Zm161.5-44.5c-5 1.3-8.5 9.3-8.8 14.2-.2 4 2.4 28.5 3.8 31.3 2.5 5 7.5 0 9.8-2.7 6.8-8.3 11.6-30.7 4.5-39.5-2.7-3.3-4.8-4.4-9.2-3.3zM1023 1544c-.7-.7-.8-7-5.1-9.4-8.9-5-21.8-.8-32-4-10.4-3.3-9.4-13.1-16.1 1.8-2.9 6.4-9.1 24.4-6.3 30.7 1.1 2.4 17.8 15.6 21.2 17.8s18.2 11.7 21.1 10c3.1-5.6 9.3-9.5 12.6-14.9 1.8-2.8 4.1-11.5 4.6-11.9 1.6-1.7 1.7.5 2.1 1.4 1.6 3.6 2.1 6.8 4.5 10.5 3.3 5.2 9.2 9.3 12.4 14.6 3.1 1.9 15.5-5.9 18.9-8.1 4.5-2.9 22.9-17 23.9-21.1 2.2-9.7-6.6-28.3-10.9-37.2-4.9 1-7.8 5.2-12.7 6.7-9.2 2.8-28.2-1.6-33.7 6.3-.9 1.2-2.6 8.9-4.5 7zm-136 18c-.7-.6-3.5 0-4.5.9-6 6.2 2.4 31.6 14.6 27.6 4-1.3 3.8-9.4 2.8-12.9-1.1-3.9-7.2-4.1-9.8-7.2-2.1-2.5-2.7-8.2-3-8.5Zm274.1 0c-.3.3-.9 6-3 8.5-2.6 3.1-8.7 3.3-9.8 7.2-1 3.4-1.2 11.6 2.8 12.9 13.4 4.4 20.2-24.5 14.1-28.1-.9-.5-3.5-.9-4-.4Zm-216.4 7.2c-1.5.4-5.1 4.6-6 6.1-3.4 5.6-5.6 32.3-4.8 39.3 1.3 10.9 15.2 18 19.5 3.5 1.7-5.6 2.6-21.4 2.5-27.6 0-1.1-5.8-19.7-6.5-20.5-1.2-1.4-3.2-1.3-4.8-.8Zm153.3-.1c.2 6.6-5.4 14.7-6 20.6-.5 4.5 1 25.3 2.4 29.4 4.2 12.1 16.9 7.3 19.1-2.9 1.1-5.2 0-16.8-.6-22.6-1-9.7-1.7-25.5-14.9-24.5m-180 1.9c-20.5 3.8-17 28.7-9 43 4 2.9 10.4-17 10.7-19.8.9-7.5-2.9-15.5-1.8-23.2Zm218 43c2.5 1.8 7.2-9.1 7.7-10.8 3.9-12.8 1.6-30.1-13.7-32.2.5 7.4-2.8 16.2-1.9 23.4.3 2.7 6.4 18.5 7.9 19.6m-148.2 10.2c1.4.8 4.8 8.6 9.5 11 11.1 5.8 20.2-6.4 20.7-16.7.8-13.7-7.2-7.7-16.5-8.6-8.4-.8-15-4.8-21.8-9.2-5.5-3.5-13.6-14.6-14.7-1.4-.5 5.1 1.4 7.5 1.8 11.2s-2 5.9.5 10.7c4.8 9.3 18 1.3 20.7 2.8zm93.1-31.1c-2.1-1.5-19.7 12.7-23.9 14.4-2.3 1-7.9 2.3-10.5 2.5-10.5.9-18.8-5.4-16.4 11.4 1 7.3 7.9 15.8 16 15.1 9.4-.8 11.9-11.6 14.6-12.4 4-1.3 12.3 5.7 18.9-1.1 4.3-4.4 1.3-8.4 1.5-12.5 0-2.3 1.9-4.8 2-8.1 0-1.9-.8-8.5-2.2-9.4Z" class="shading" data-original-prefix="shading" opacity=".2"/><path id="outline-shading-mouth1" class="outline"  fill="#000" d="M1041 1343c6.1.5 12.7-1 17.5-5 1.5-1.3.9-3.7 2.8-2.9 10.1 7.9 37.9 17.4 43.8 28.2 3.6 6.5 4.6 17.5-1.8 22.6-5.6 4.5-20.8 10.8-28 15-4.9 2.8-9.7 6.6-14.7 9.3-7.4 4.1-25.5 14.5-32.6 16.4-2.9.8-5.2.8-8.1 0-14.5-3.8-42.2-22.5-56.3-30.7-6.2-3.6-21.2-9.1-23.2-15.8-5.5-18.4 15.7-28.3 28.7-35.4 2.3-1.2 15.5-8.6 16.5-8.7 2.9-.3 4.2 2.9 6.7 4.2 4.2 2.3 10 3.2 14.7 2.8-.3-5.1-3.3-11.3-1.8-16.3.5-1.6 12.5-13.9 14.5-14.4 3.9-1 8.2-.3 11.6 1.9 1 .7 10.8 11.1 11.2 11.8 2.1 5-1.2 11.8-1.5 17" class="shading" data-original-prefix="shading" opacity=".2"/><path id="outline-mouth3" class="outline"  fill="#000" d="M888 1333c-.7 1.9-2.2 2-3.8 2.7-12.3 5.2-24 8.3-33.2 18.8-6.6 7.6-18.9 26-18 36 .3 4 7.1 25.8 9.2 28.8 2.7 4 6.1 4.9 10.8 4.7-1.4-9 4.2-18.1 9.6-24.9 2.2-2.8 21.9-22.6 24.4-20.1-1.7 6.5-8.8 10.4-13 15.5-8.1 10-12.3 23.6-9.5 36.5 1.2 5.4 11.2 26 15 30 .6.7 7.1 6.3 7.5 6.5 2.4 1.2 5.6-3.8 6.5-5.5 2.5-4.3 3.1-9.7 5-14 4.4-10.2 9.3-18.3 18.5-25-5 13.9-9.5 44.6 1.5 56.1 4.6 4.8 11 2.5 15 5.1 2.1 1.3 2.5 5.4 4.2 5.8s7-3.1 9.4-3.5c9-1.4 12.6 16.9 18.7 17.4 2.5.2 10.2-12 18.4-9.4 5.5 1.8 19.2 24.8 24.4 23.6 5.8-5.9 3.6-12.3 5-19 1.5-7.6 8.3-12.6 9.4-22.6.8-7.2-1.7-26.6-4.7-33.1-1.1-2.3-5.5-10.7-6.8-12.2-3.4-4-15-9.2-19.8-6.1l-4.2 11.1c-4.8-4.4-9.5-9.2-14.5-13.5-3.7-3.2-10-6.8-13-9.9-4-4.2-15.6-27.9-15.7-33.2 0-6.8 17.5-22.4 21-29 5.4-4.1 29.2-2.8 35.7.2 8.4 3.8 12.4 12.1 18.5 17.5 5.2 4.5 2.5-1.7 2.5-3.6s.9-3.2.8-4.8c-.2-5.4-6.7-9.2-9.9-13.1-2-2.4-5.6-6.2-7-8.2-.9-1.3-4.9-7.8-5-8.8-.2-2.6 9.1-11.7 11.5-12.4 3.6-1-.5 5.5-.5 6.6-.4 5.2 5.9 4.1 9.3 5.6 1.2.5 3 2.7 3.2 2.7s2.4-2.7 3.8-3.2c7.8-3.2 11 1.2 6.8-11.7 1.6-1.7 12.5 9.1 12.9 11.7.6 4.5-17.6 23.1-21.1 27.5l-.8 12.7c1.7.4 2-.7 3-1.5 8.7-6.7 12.6-16.8 24.9-19.1 5.5-1 25.6-1.3 29.8 1.8 3.4 6.7 20.4 21.8 21 28.4.4 4.3-10.8 27.3-13.9 31.7s-9.8 7.6-13.8 11.2c-5.3 4.6-10.3 9.8-15.5 14.5-2.2.9-1.4-5.6-2.2-7.7-3.4-8.6-19-1.6-22.7 3.8-.7 1-7.1 13.9-7.3 14.7-2.7 12.8-5.5 27.3-.2 39.8 1.5 3.5 4.6 6.8 5.8 10.2 2.5 7.2-.5 15.2 5.8 21.2 9.4-2.8 19.1-24.9 27.9-24 5.2.5 13.2 10 14.9 9.8 5.8-.5 9.3-18.7 18.7-17.4 2.4.3 7.6 3.9 9.3 3.4s2-4.8 4.8-6.1c3.8-1.8 9.4-.4 13.3-3.7 11.5-9.7 8.1-43.1 2.5-56 1.6-1.7 11.3 10.4 12.4 12.1 5.1 7.8 6.1 15.5 9.7 23.3 1 2.1 4.8 9.8 7.8 8.2.4-.2 6.9-5.9 7.5-6.5 6.8-7.5 16-30.4 15.4-40.5-1.3-22.7-10.7-22.7-21.5-37.5-5.3-7.2 2.8-2.4 6 0 11.8 8.6 28 25.5 26.5 41 11.6 1.1 13.6-11.4 16.3-20.2 4.6-15.6 5.3-18.8-3.1-33.4-8.2-14.3-16.4-22.7-31.5-29.5-5.8-2.6-13.2-3.6-17.7-7.8 15.9 1.8 34.5 6.4 49 13.5 8.3 15 22.1 26.8 28.1 42.9l-15.2 44.9c-.9 3.7-13 4.8-13.8 5.8-.6.8-2.2 17.2-2.2 19.4-.2 31.7 2.4 50.4-13.1 79.9-2.6 5-12 16.3-12.6 19.4-.9 4.6 0 10.4-.5 15.5-.9 8.4-5.8 16.4-6.7 23.4-.4 3.5 1.3 7.7.8 9.7s-10.7 8.6-13.2 9.9c-2.2 1.2-5.7 1.5-6.5 2-.6.4-5.2 10.6-7.2 13.2-2.2 2.8-13.6 14.5-16.9 12.4-.6-.4-5.9-11.8-7.1-13.3-2.2-2.9-2.2 2.1-3.2 3.8-4.6 7.3-24.8 27-32.8 29.2-1.7.5-3.3.7-5 .5 1.1-8.2 2.6-16.6-8-18.6-9.7-1.8-16.2 7.5-18.5 15.6-1.2 4.3-1.2 16.7-7.8 14.9-4.3-1.2-20.3-25.6-23.2-30.8-5.5 8.6-11.5 19.1-18.5 26.5-1.8 1.9-6.9 7.7-9.3 3.3-2.8-5.3-2.5-14.6-5.5-20.5-3.8-7.2-14-11.7-21.2-6.8-6.6 4.6-2.9 10-3 16.5-3.4 3.4-23.5-12.8-26.5-15.9-1.5-1.5-11.4-13-11.9-14.1-.7-1.4-.2-6.3-2.6-3.3-2.1 2.6-6 14.4-10.2 13.3-2-.6-12-10.2-13.7-12.4-2.1-2.7-6.6-12.8-7.2-13.2-.8-.5-3.8-.6-5.8-1.7-2.5-1.4-11.8-7.1-13-9-2.3-3.8.4-6.7 0-10.8-1-7.2-5.8-15.5-6.7-24.4-.5-5 .6-10.7-.6-15.4-1-3.9-7.9-9.8-10.7-14.3-10.4-16.9-15.8-37.5-16.8-57.2-.8-15.6 1.6-31.1 0-46.5-18.8 0-17.3-14.5-21.7-27.8-2-5.8-9-19.6-8.1-24.5.6-3.1 5-9.2 7-12.1 2.9-4.3 18.7-27.3 20.9-29.1 1.7-1.4 8.5-4.5 10.7-5.3 9.6-3.2 28.2-7.1 38.2-8.3v-.7Zm16 128c-1.4-1.5-7.8 8.9-8.4 10.1-12.7 23.9-7.6 58.3 2.6 82.2 1.5 1.6 6.5 11.2 8.3 10.7 4.1-1.1 10.8-29 12.8-34.2 4.4-11.8 13.5-22.1 8.6-35.6-5.5-.6-12.8 1.4-16.7-3.8-.9-1.1-7.8-21.4-8-23.1-.2-2.4.8-4 .8-6.2Zm240 103c.6-.4 6.8-10.5 7.6-11.9 6.4-12.5 10.7-43.5 9.3-57.4-.7-6.6-8.4-30-14.4-32.6-2.3-1-.6 4.2-.9 6-.5 2.7-7.2 21.8-8.6 23.2-3.6 4.1-11.1 2.3-15.9 2.9-5 13.6 4.3 24 8.6 35.6 3 8.1 4.3 17.7 7.5 25.5.7 1.6 4.7 10.2 6.8 8.7m-262.3-85.7c-.8-.7-3.9-1.3-5.7-2.8-4.4-3.7-8.4-14.6-14.9-5.8-17.4 23.5 1.8 56.3 17.4 75.3.8.9 1.5 2.3 2.9 2.1 1.2 0 .7-22.5.5-24.5-.5-5.6-3.2-12.1-3.1-18 0-5.2 5.9-23.5 2.8-26.2Zm304-11c-4.6-3.9-11.2 6.2-14.7 9.3-1.3 1.1-3.1 1.1-3.8 1.7-3.3 2.9 2.8 21 2.8 26.2s-2.6 12.6-3.1 18c-.7 7.9.4 16.5 0 24.5 1.7.4 2-.5 3-1.5 14.2-14.6 27.2-41.2 23.9-61.9-.4-2.6-6.3-14.7-8.2-16.2Zm-83.2 26.7c-1.4.3-3.3 6.6-3.8 8.2-3 10.7-2.9 45.1 1.1 55.5 5.3 13.6 21.4-7.2 21.3-16.2-.2-14-7.6-26.7-13.3-38.8-.8-1.8-2-9.4-5.3-8.7m-165.2 65.7c10 8.3 12.4-2.6 13.6-10.3 1.6-10.6 2.8-43.6-2.7-52.1-4.7-7.3-6.5 4.3-8 7.4-5.3 10.7-15 29.9-11.4 42 .7 2.4 6.6 11.4 8.5 13m58-34c-2.6-2.2-10.5-14.2-12-14.5-1.3-.2-9.1 4.1-10.4 5.3-13.2 13-17.5 40.3-6.8 55.8 7.4 10.8 27.1 23.8 39.1 28.9 1.2.5 3 1.2 4.2.9.9-.2 7.4-15 8-17.1 4.7-14.6 7.5-38.8 1-52.9-5.9-13-12.1 3.2-23.2-6.3h.1Zm43.8 76.2c2.9 1.8 6.6-2.7 8.6-3.7 21.1-11.1 43.7-22.7 41.3-50.7-.7-8.7-6.7-24.8-13-31-1.2-1.1-8.4-5.2-9.7-5.3-3.5-.3-11.2 18.1-20.8 17.9-7.8-.2-11.2-7.8-15.8 4.2-5.2 13.4-2.8 36.6 1.3 50.3.7 2.3 7.3 17.8 8.1 18.4ZM885 1559c-5.2 1.1-6.5 7.6-5.8 12.2s5.4 23.4 7 27c1 2.2 6.2 8.5 8.7 6.7 3.4-2.4 3.2-20.7 4.1-25.4-.6-3-7.8-5.5-10-8.3s-4.3-8.6-4-12.2m269.1 45.9c2.7 1.5 7.8-5.3 8.8-7.5 1.5-3.4 6.2-22 6.9-26.2.8-5-.5-8.8-4.3-12.2l-5.1 10.9c-1.4 3.6-9.4 6.1-10.2 8.8-1.2 3.9.5 24.2 3.9 26.2M917 1563c-1.9-2.2-11.8 12.5-12.4 14.1-1.8 4.6-2.9 24.1-2.4 29.3.8 8.6 5.2 18.6 11.4 24.6 1.1-9 4.9-18.4 5.5-27.5.9-13-3.8-27.1-2-40.5Zm218 68c5.2-3.8 9.5-12.5 10.8-18.7 1.4-6.9.7-27.7-1.2-34.3-.6-1.9-10.4-17.4-12.5-15 1.7 13.9-3.1 27.7-2 41.5.7 8.7 4.6 17.6 5.1 26.5zm-186-62c-3.4-3.2-13.6 14.8-14.8 17.7-4 9.9-8.4 31.9-2.7 41.2 2 3.2 16 15.2 19.5 16.5 6 2.4 6.5-2.8 7-8 2.1-23.1-3.5-45.4-9-67.5Zm144.1 75.9c1.1.7 3.6 0 4.8-.4 3.2-1.2 16.9-13.1 18.9-16.1 8.3-13.1-.6-48.3-12.8-57.9-1.8-1.4-3.1-2.8-4.2 0-3.7 9.9-8.2 30.6-8.9 41.1-.3 4.8-.8 31.5 2.1 33.4ZM1018 1613c-3.5 0-6.1 2.5-9.6 2.9-13.1 1.6-28.5-14.2-41.4-15.9v22.5c0 1.1 2.9 9 4.1 9.9 6.5 5.2 18.9-.4 24.4 5.6 2.6 2.9 4.3 10.3 10.6 5.5 1.1-.8 11.9-13.1 11.9-14.1v-16.5Zm64-13c-13.3 1.4-27.9 17.6-41.4 15.9-3.5-.4-6.1-3-9.6-2.9v17.5c4.1 2.4 11.4 14.9 15.4 14.5 5.4-.5 6.1-8.2 10.5-9.6 5.4-1.7 16.2 1.1 21-3 1-.8 4-9.7 4-11v-21.5Z" class="outline" data-original-prefix="outline"/><path id="outline-mouth2" class="outline"  fill="#000" d="M1011 1292c-6.2 1-21.6 9.8-26 14.5-2.9 3.1-3.9 7.2-7.2 9.8-18.9.8-35.9 5.2-50.3 17.8-.9-.2-.3-1.9-.5-2 1.1-8.8 19.3-26.2 27.4-25 3.5.5 2.6 4.8 10 4 10.8-1.2 17.8-10.7 19.4-20.7.4-2.5-1.9-5.2 1.2-6.7 4.7-2.2 21.7 4.7 26 8.5z" class="outline" data-original-prefix="outline"/><path id="outline-mouth1" class="outline"  fill="#000" d="m1122 1332-.5 3c-10.9-11.7-25.5-16-41-18-2.9-.4-6.9.7-9.5-.5-1.5-.7-4.5-7.4-6.5-9.5-3.4-3.8-14.1-10.6-19-12s-4.7-.4-8.6-2.9c4.2-4.1 21-10.8 26-8.5 3.1 1.5.8 4.2 1.2 6.7 1.9 11.3 12.7 24.5 25 19.5 4-1.6 2.6-4.3 9.2-1.6 10.8 4.4 18.3 14 23.6 23.9h.1Z" class="outline" data-original-prefix="outline"/></g><g id="04_Eyes" data-trait="alien"><path id="fill-eyes-main" class="fill"  fill="#fff" d="M1361.3 1155.3c-16.1 35.9-23.5 77.5-53.9 104.6-33 14.3-68.6 37.1-104.9 40.1-27.9 2.3-67.9-2.5-91.8-18.2-2.8-1.8-9.2-9.3-10.4-9.6-6.3-1.8-19.3.8-26.7-.3-19.6-3-27.2-26.4-41.6-35.4-9.8-6.2-18.3 2.6-25 8.9-8.8 8.4-16.3 22.3-29 25-8.5 1.8-22.3-1.4-29.3.7-2 .6-6.9 6.9-9.2 8.8-27.4 21.4-102.9 23.8-135.2 13.2l-70.8-40.2c-3.6-3-5.2-7.6-7.3-11.7-13.5-26-24.4-61-38.9-85.1-4-6.6-11.5-15-16.1-22-1.9-2.9-11.1-15.7-11.1-17.8 15.3-32.9 31.4-65.4 48.5-97.4 31-29 57.4-63.1 92.1-87.9 32.1-22.9 74.1-43 110-59 71.6-32 163.6-29.7 234.4 3.3 34.4 16.1 71.1 33.5 102.3 55.7 39.5 28.1 71.6 69.8 106.4 103.6l35.2 93.9c.2 2.7-2.6 4.6-4.5 6.4-7.3 7.1-15.4 13.8-23.2 20.3Z" class="fill" data-original-prefix="fill"/><g id="eye-shine"><path id="fill-eyes4" class="fill"  fill="#fff" d="m1311 1245 1 1c-45.2 39.6-120 69-179 44.5-7.9-3.3-20.7-9.3-19-19.5 10.4 4.9 21 7.8 32.5 9 53.6 5.8 117.7-8.6 164.5-35" class="fill" data-original-prefix="fill"/><path id="fill-eyes3" class="fill"  fill="#fff" d="M737 1245c44.3 27.2 128.5 44.4 179 32.5 6.6-1.5 11.8-4 18-6.5 1.7 10.3-11.7 16.6-19.7 19.8-59.1 23.4-133.2-4.9-178.3-44.8z" class="fill" data-original-prefix="fill"/><path id="fill-eyes2" class="fill"  fill="#fff" d="M1354 1145c-4.6-1.2-8.4-4.1-13-5.5-36.5-11.4-90.1 6.2-123.4 22.6-6.8 3.3-13.4 8.8-20.6 10.9-2.4-1.9 23.4-22.2 25.7-23.8 29.8-20.9 76.1-38.8 112.3-26.6 3.9 1.3 15.1 6.7 17.1 9.9 1.8 2.8.5 9 1.9 12.6Z" class="fill" data-original-prefix="fill"/><path id="fill-eyes1" class="fill"  fill="#fff" d="M851 1173c-1.3 1-17.8-9.5-20.6-10.9-33.5-16.6-83.9-33-121-23.2-5.3 1.4-9.2 4.2-14.4 5.1 1.7-3.5.2-8.2 1.2-11.3 1-3.5 14.6-9.4 18.4-10.6 34.1-10.6 76.6 4.9 105.3 23.5 2.6 1.7 34.1 25 31.1 27.4" class="fill" data-original-prefix="fill"/></g><g id="eyes-shading" class="st2"><path id="outline-shading-eyes4" class="outline"  fill="#000" d="M945 856c.7.3-.6 1.7-2 1-.7-.3.6-1.7 2-1" class="shading" data-original-prefix="shading" opacity=".2"/><path id="outline-shading-eyes3" class="outline"  fill="#000" d="M1105 856c.7.3-.6 1.7-2 1-.7-.3.6-1.7 2-1" class="shading" data-original-prefix="shading" opacity=".2"/><path id="outline-shading-eyes2" class="outline"  fill="#000" d="M1376 1124c-.4.5-10.7 4.3-11.9 4.6-10.2 2-33.8-11.1-46.8-13.3-80.4-13.5-146.8 57.7-193.2 113.2-7.9 9.4-15 21-23.1 29.9-7.4 8.2-16.7 13.4-27.7 13.8-16-12-31.8-24.1-44.3-39.8-.4-.2-7.8-.5-8.4-.4-2 .2-17 17.3-20.5 20.5-3.1 2.8-25.4 20.3-27.3 20.3-1.3 0-8.9-2.6-10.7-3.3-15.3-6.1-32.6-34.5-44-48-30.3-36-69.9-78.9-114.5-95.5-30.4-11.4-53.9-17.4-86.3-7.3-9.3 2.9-25.2 12.5-34.5 10-2.5-.7-7.7-4.4-10.8-5.3 0-2.4 3.3-2.2 4.9-4.1 3.9-4.8 11.4-27.6 15.8-29.2 2.7-1 13.3-2.1 16.7-2.3 33.9-2.1 113 3.8 139.5 25.5 21.9 18 45.7 46.3 66 67 16.2 16.5 33.2 32.2 48 50.1 4.1 3.3 19.5-.9 25.1-2.1 6.2-1.3 18.6-6 23.7-6.3 3.5-.2 7.2 6 17.4 3.3 2.2-.6 4.6-3.4 6.4-3.5 2.6-.1 20.4 5.6 25.3 6.6 4.6.9 18.9 4.4 22.5 3.1l46.6-49.4c23.8-20.6 45.1-49.2 69-69 22.3-18.4 77.7-24.2 106.5-25.5 7.9-.3 46.4-.7 51 3s9.3 22.9 14.6 28.4c1.3 1.3 6.2 2.8 4.9 4.6Z" class="shading" data-original-prefix="shading" opacity=".2"/><path id="outline-shading-eyes1" class="outline"  fill="#000" d="M942 857c-12.1 12.3-28.7 18.2-42.9 27.6-24 15.9-46.8 43.3-62.9 67.1-5.4 7.9-23 36-24 44-1.9 15 19 44.3 30.9 52.7 15.5 11 44.6 22.3 62.6 32.4s34.5 19.9 50.9 31.1c14.4 19.1 24.9 49.3 40 66.9 6.5 7.6 13.5 4.7 18 8 1.1.8 4.3 7.4 5 9 1.1 2.8-.7 5.7 2.8 7.3 5.7 2.7 5.9-8.1 8.2-12.3 4.5-8.3 14.1-3.9 20.9-12.1 14.5-17.4 24.2-46.5 37.8-64.2 6.2-8.1 34-23 44.2-28.8 11.7-6.7 23.8-13 35.7-19.3 21-11.2 34.9-13.8 50.4-33.6 11.6-14.8 20.3-27.2 12.4-46.3-11.6-28.4-47.4-74.4-71.4-93.6-17.2-13.8-38.5-21-54.5-36 32.2 6.5 62.4 20.5 90.7 36.8 43.8 25.2 91.8 64.7 120.1 106.9 2.5 3.7 7.4 8.7 5.5 13.1-1.7 4-26.2 9.5-31.6 11.5-55.7 20.6-105.3 41.9-152.6 78.4-29.2 22.5-41.7 38.5-62.3 68.7-4.9 7.2-6.3 13.4-13.3 19.7-2.6 2.4-21.3 15.7-23.6 16.4-7.4 2.2-21.8-.9-30.1.5-8.1-8-20.7-12.5-27.7-21.3-3.8-4.8-5.7-10.7-9.2-15.8-18.6-27.1-30.9-43.6-56.9-64.1-49.4-38.9-99.1-60.6-157.6-82.4-5.5-2-29-7.5-31.3-10.6-2.9-4 2.2-9.9 4.6-13.5 27.4-39.9 72.4-78.4 113.8-103.2 30.1-18 63.1-33.9 97.7-40.8Z" class="shading" data-original-prefix="shading" opacity=".2"/></g><g id="eyes-outlines"><path id="outline-eyes4" class="outline"  fill="#000" d="M998 1256c3.5-11.5 10.9-16.9 15.5-28 3.1-7.5 4.7-12.5 3.6-20.6-.5-3.5 5.3.6 7.5.6s4.7-2.4 7.5-2.1c-2.6 10.9 3.8 24.7 9.8 33.7 2.4 3.6 11.9 12.2 8.2 16.3-.2.3-5.7 3.2-6 3-.9-5.7-7.9-7.8-12-12.5-1.3-1.5-3.3-4.1-4.3-5.8-1.4-2.5.7-4.5-4.3-3.8-1.7.2-1.1.2-1.8 1.3-2 3.3-2.8 6.2-5.7 9.3-3.5 3.7-10.7 6.2-11 11.5l-7-3Z" class="outline" data-original-prefix="outline"/><path id="outline-eyes3" class="outline"  fill="#000" d="m981 1184-8.5-8c-11.5-11.2-19.5-31.1-29.9-42.1-8.7-9.1-25.2-21.3-35.7-29.3-17.2-13.3-42.5-27.1-57.4-40.6-1.2-1.1-2.9-2-2.5-4 13.6 2.5 23.9 12.5 35.3 19.2 22.3 12.9 46.3 23.5 68.7 36.3 3.9 3.2 8.8 14.6 11.2 19.8 7.2 15.8 12.7 32.4 18.8 48.7" class="outline" data-original-prefix="outline"/><path id="outline-eyes2" class="outline"  fill="#000" d="M1202 1060c.3 2-1.3 2.8-2.5 4-14.8 13.6-40.2 27.3-57.4 40.6-10.4 8.1-26.9 20.2-35.7 29.3-10.4 10.9-18.5 30.9-29.9 42.1l-8.5 8c6.1-16.2 11.6-32.9 18.8-48.7 2.4-5.2 7.3-16.6 11.2-19.8 22.4-12.8 46.4-23.4 68.7-36.3 11.5-6.6 21.7-16.7 35.3-19.2" class="outline" data-original-prefix="outline"/><path id="outline-eyes1" class="outline"  fill="#000" d="M991 1262c.9 4.5-2 6.9-5 9.5-3.3 2.9-19.8 12.2-23.4 11.3-1.4-.3-2.5-4-4.1-4.8-3.1 5.5-6.4 10.7-10.5 15.5-5.5 6.4-19.4 20.8-26.8 23.2-8.5 2.7-17.6 2.2-26.2 4.3 1.2-2.2 12.9-13.1 11-15-7.1 1-13.8 5.3-20.8 7.7-15.4 5.3-37.4 11.1-53.5 9-9.8-1.2-20-7.8-29.8-9.8 1.6-4.5 14.6-3.7 16-5l-1-1.5c-8.3-.4-15.9-4.4-23.8-6.2-24.6-5.6-32.1-2.8-55.5-16.5-53.2-31.1-79.1-70-73.6-133.2.2-1.9 2.1-5.1 1.9-6-.9-3.6-18.9 1.8-20.9-9.1-2.2-12 9.6-49 14.2-61.7 8.4-23.3 24-54 40.3-72.7 1.4-1.6 8.6-7.6 10.2-7.9 2.7-.6 4.8 3 7.3 1.4.5-.3 4.6-7.4 6-9 41.7-50 91.6-93.3 151.3-120.7 68.2-31.3 165.1-34 237.9-19.5 81.5 16.2 160.7 75 211.8 139.2 1.7 2.1 6.5 10.6 7 11.1 1 .8 5.3-2.2 6.8-2.4 6.3-.9 18.5 17.5 22.1 22.5 19.1 27.4 42.2 79.5 44.2 112.8 1 17.3-9.2 12.8-22 15.6.4 2.6 1.8 4.8 2 7.5 6 61.8-22.1 102.2-73.7 132.3-23.4 13.7-30.9 10.9-55.5 16.5-7.9 1.8-15.5 5.8-23.8 6.2l-1 1.5c1.3 1.3 14.4.5 16 5-9.8 2-19.9 8.5-29.8 9.8-16.1 2.1-38.1-3.7-53.5-9-6.9-2.4-13.6-6.7-20.8-7.7-1.9 1.9 9.8 12.7 11 15-8.6-2.1-17.8-1.6-26.2-4.3-7.4-2.4-21.3-16.8-26.8-23.2-4.1-4.8-7.4-10.1-10.5-15.5-1.6.8-2.7 4.5-4.1 4.8-3.7.9-20.1-8.4-23.4-11.3-3-2.6-5.9-5-5-9.5.7 0 1.9-1.1 4.2-.8 4.3.6 16 7.1 19.3 4.9 30.3-36.3 57-75.9 92-108.1 49.6-45.7 105.5-70.8 172.5-44.5 4 1.6 21.4 11.1 22.7 11.2 1.1.1 7.9-2.5 8.2-2.9.5-.8.3-7.7.2-9.4-.8-10-10.4-30.2-15.2-39.8-7.7-15.6-17.2-30.4-26.1-45.4-22.2-2.1-46.2 1.2-67.8 6.8-.4-1.9 1-2.4 2.1-3.4 10.6-9.7 25.1-17.1 37.8-23.7-3.3-20.5-21.3-38.3-36.3-51.9-36.5-33-88-57.8-132.2-78.8-66.9-31.9-160.7-30.9-227.7 0-33.5 15.5-72.5 34.1-103 55-19.8 13.6-61.4 47.8-66.4 71.6-1.2 5.8.4 3.4 3.4 5 11.2 6 25.9 14.3 35.2 22.8 1.1 1 2.5 1.5 2.1 3.4-21.6-5.6-45.5-8.9-67.8-6.8-8.8 15-18.4 29.8-26.1 45.4-4.4 9-14.4 29.8-15.1 38.9-.5 6.7-1.7 12.4 6.5 12.6 3.1 0 18.6-8.6 23.5-10.6 120.5-47.4 200.4 72.3 264.5 152.6 3.3 2.2 15-4.3 19.3-4.9 2.3-.3 3.5.8 4.2.8Zm-140-89c3-2.4-28.4-25.7-31.1-27.4-28.8-18.7-71.3-34.1-105.3-23.5-3.8 1.2-17.3 7.2-18.4 10.6-.9 3.1.5 7.8-1.2 11.3 5.2-1 9.1-3.7 14.4-5.1 37.1-9.7 87.5 6.7 121 23.2 2.9 1.4 19.3 11.9 20.6 10.9m503-28c-1.4-3.6 0-9.7-1.9-12.6-2.1-3.2-13.2-8.6-17.1-9.9-36.1-12.1-82.5 5.8-112.3 26.6-2.2 1.6-28.1 21.9-25.7 23.8 7.2-2.1 13.8-7.5 20.6-10.9 33.3-16.4 86.9-34 123.4-22.6 4.6 1.4 8.4 4.2 13 5.5Zm-618 101c45.1 39.8 119.2 68.1 178.3 44.8 8-3.2 21.4-9.4 19.7-19.8-6.1 2.5-11.4 5-18 6.5-50.5 11.9-134.7-5.3-179-32.5-.8-.5-6-4-6-4s4.7 4.8 5 5m575-1c-46.8 26.4-110.9 40.7-164.5 35-11.5-1.2-22.1-4-32.5-9-1.7 10.2 11.1 16.2 19 19.5 59 24.5 133.8-4.9 179-44.5.3-.2 5-5 5-5s-5.2 3.6-6 4" class="outline" data-original-prefix="outline"/></g></g><g id="05_Right Ear" data-trait="KBDS tattoo"><path id="fill-ear-rt" class="fill"  fill="#fff" d="M1715.7 184.2c3.2-.7 6.5-.5 7.2 3.3 2.3 39.5-3.6 77.2-9 116-.7 4.7-.2 11.1-1.1 15.9-5 26.9-24.5 58.9-29.7 86.3-5.7 30.4-4.7 64.8-10.9 95.1-7.8 38.3-25.1 77.8-33.7 116.4l-71.9 122.1c-45.8 31.3-94.9 58.3-141.8 88.2l-35 81-84.6 77.3c-5.6 2.9-16.3-.8-22.4-2.4-27.7-7.2-48.3-18.1-70.9-35.1-16.5-12.5-27.2-20.9-37.6-39.4-6-10.5-10.9-22.9-14.5-34.5 26.8-59.3 58.7-116.4 86.8-175.2 4.9-58.7 6.7-117.8 11.4-176.5 36.5-47.5 77-92.5 114.8-139.2 47.2-35.9 96.4-69 144.9-103.1 66.1-31.9 127.9-72.1 197.8-96.2Z" class="fill" data-original-prefix="fill"/><path id="outline-shading-ear-rt" class="outline"  fill="#000" d="M1670.9 280.1c2.8 3.9-18.7 26.3-21.9 30.5-38.8 50.2-75.5 128.6-72.1 193 .8 14.1 7.3 33 2.8 45.7-3.7 10.4-14 27.3-15.4 37.7-.4 2.9.9 5.2.6 8 10-1.2 15.8-10.8 21.2-18.3 17.3-24.1 30.1-53.1 43.5-79.5 1.1-2.2 1.5-2.2 1.2.2-.8 9.2-6.8 26.8-9.7 36.3-15.4 50.2-37.8 100.7-66.2 144.8-15.3 23.7-22.2 32.4-46.1 47.9-25.3 16.4-36 17.1-63.9 25.1-14.1 4.1-56 16.5-65.5 25.5-11.9 11.1-30.7 52.3-40.3 68.7-13.5 23-27.7 45.9-43.8 67.2-3.6 4.8-10.5 10.9-13.3 15.7-5.6 10-6.8 27-11.1 37.9 7.3-4.2 14.2-10.7 20.5-16.5 12.8-11.9 26.4-25.8 38.5-38.5 12.3-12.9 33.6-33.7 41.2-48.8 7.8-15.6 13.6-33 21.3-48.7 14.9-4.8 30.4-7.3 45.1-12.9 49.9-18.9 92.7-57.3 134-90 1.4-.3 1.9 0 1.5 1.5-.9 3.2-10.1 20.8-12.2 23.8-4.2 6-36.3 28.6-44.5 34.5-29 20.7-59.7 39.2-87.9 61.1-15.7 27-28.8 55.8-43.5 83.5l-80 71c-6.2 2.7-28.5-4.8-35.8-7.2-32.1-10.8-54.1-27.3-79.9-48.6-8.9-15.6-7.9-22.5 2.7-36.2 24.9-31.8 50.6-57.8 73.4-92.6 33.1-50.5 54.8-106.4 86.2-157.8 11.1-18.2 27.9-36.1 31.3-57.7 1.4-9.1 1-19.2 1.1-28.4l54 6.5c10.6 14.3 17.8 31 26.5 46.5.8-.4 10.6-11.5 11.3-12.7 4.2-7.8 8.8-30.6 10.8-40.2 5-24.6 7-49.5 8.5-74.5 1.9-20.4-5.1-39.9 3.1-58.9 17.4-40.4 50.1-78.2 81-109l66.7-44.4c3.2-.7 24.4 7.8 25.2 8.9Z" class="shading" data-original-prefix="shading" opacity=".2"/><path id="outline-ear-rt2" class="outline"  fill="#000" d="m1695 240-22 38.5-26.1 18.2c-.8 3.6 6.6 23.8 8.6 28.3 1.6 3.6 9 14.4 9.3 15.8.5 2.3-2.4 5.9-3.8 7.7-2 2.6-31.5 31.6-33 29.5-2.1-6.5 4.9-10.6 6.4-15 1.1-3.1-.9-32-1.6-37.4-.1-1-.6-4.4-2.4-3.6s-12.5 12.2-14.5 14.5c-2.7 3.2-19.7 25.9-19.7 28l24.3 37.6c4.3.9 8.3-6.7 11.4-9.6 4.5-4.2 25.3-22.8 29.6-23.4 3-.5 6.4.2 9.4 0 .9.8-4.4 6.8-4.8 8.7-1.8 8.2-2.5 22.9-3.2 31.8-2.2 27.4-1.5 53.7-1 80.9.1 6.7 1 20.1-2.6 25.5-12.9 9.5-26.3 18.3-39.4 27.6-2.1 1.5-5 6.6-7.6 3.4-2.2-2.8-5.1-21-5.5-25.5-.2-2.3-1.1-11-.6-12.5.7-2.4 4.7-6.5 6.1-9 .9 1.7 2.3 8.5 4.9 8 .8-.2 12.4-10.6 12.6-11.5l1-83.5c-1.7-.4-2 .5-3 1.5-5.3 5.5-14.9 19.2-20.1 22.9-.9.7-10.5 4-10.9 3.6 0-4.8-3.8-10-6.6-13.9-1.8-2.5-24.8-30.3-26.4-29.1-8.2 17.3-13.6 35.5-17 54.4 5.5 4.7 46.2 18.4 47.8 21.3 2.8 4.9.8 11.9 1.1 16.8 2.2 30.3 7.3 60 13.4 89.7 1 4.8 7.8 30.4 6.5 32.6-.7 1.3-13.1 7.8-15.7 9.8-8.8 6.6-14.2 15.2-18.9 25-6.4 13.5-5.6 24.2-18.8 33.2-2.7 1.8-24.4 14.1-25.9 14.2-1.7.1-14.9-5.3-15.4-6-.6-1 0-2.5 1-3.5 2.5-2.6 16-7.1 16.1-10l-18.1-62.5c-1.9 8.1-4.6 15.9-6.5 24-3.1 12.9-4.5 28.7-8.2 40.8-1.7 5.5-8 7.6-11.3 12.7 5.4 4.5 17 9.4 21.4 14.4 3.1 3.5-4.4 5.2-6.3 6.6-30 22.8-47.7 53.1-72.6 79.5-3.3 3.5-12.5 8.7-13.6 10.4-1.7 2.7 0 5.7-1.8 8.2-.8 1.1-17 9.8-19.7 11.3-3.2 1.7-24.5 12.2-25.9 12.1-1.3 0-1.7-.6-2.4-1.5 2.9-4.7 2.3-11.4 1.9-16.8-1.9-22.1-9.7-52-14.9-74.1-.4-1.5.7-1.8-2-1.5l-39 100.5 39.7-29.4c.8-.2 13.8 5.3 14.3 5.9 1.9 2.1-3.2 2.3-4.1 3.6s-1.2 5.3-1.6 7.1c-3.7 18.6-4.5 39.3-5.3 58.2 8.7-6.8 17.8-12.7 27.5-18 .8 1.7.9 5.7.3 7.3-.4 1.3-11.9 10-13.9 12.1-4.5 4.7-8.8 12.6-13.4 16.5-2.8 2.3-17.5 11-20.8 12.2-7.5 2.8-6.9-8.9-6.8-13.8.3-10.5 1.1-21.5 2-32 .9-9.8 3.1-19.7 3.5-29.5l-23.5 18.5-1 2 16.6 62.5c-13.1 9.4-27 17.3-42.6 22-.7-5.5 7-4.9 6.9-10.3 0-5.4-5.8-22.1-7.7-28.4-4.1-13.9-8.8-27.7-13.8-41.2-9.1 16-17.5 33.8-22.4 51.6-2.8 10-5.6 21.2-3.8 31.7.6 3.8 4.1 8.9 4.8 12.2.3 1.5 0 1.8-1.5 1.5-3.8-.7-25.2-18.5-26.7-22.3-.8-1.8-.9-3.3-.8-5.2.1-5.6 1.3-20.7 2.3-25.8.8-3.8 25.3-35.9 29.8-43.2 29.6-48.1 48-108.9 82.2-153.8 11.1-14.6 22.6-22.7 31-41 8.4-18.1 20.8-75.1 17.6-94-.7-3.8-10.8-27.6-9.8-28.7 13.4 6.2 26.8 13.4 39.3 21.2 3.9 2.5 14.9 8.7 17.2 11.8 3 4 10.2 28.6 12 35 2.4 8.5 6.3 34.7 11.4 39.5 12.7 12 29.6-12.1 35.2-21.9 27.1-47.2 34.2-98.5 26.7-152-1.3-9.2-7-27.1-6.7-35.2.2-6 16.5-39.2 20.3-46.5 22.2-41.8 45.9-63.9 79.1-95.9 9.7-9.4 21.4-23.7 31.6-31.4 6.4-4.9 14.6-7.2 21.2-11.8 3.7-2.5 26.5-23.7 29.7-20.8Zm-93 184c1.3 1 7.3-6 5.5-7.9-3.3-5-29.7-37.9-33-37.1-1.8 2.2-4.6 4.9-3.1 8 10.8 11.4 23.2 23.2 30.5 37Zm44.8 62.8c1.1-2 0-37.3.2-43.3l5-55.5c-3.2 3.8-11.4 10.8-12.1 15.4-2.2 16.5.4 41.4 0 59.1 0 2.4-1 4.5-1.1 6.9-.2 7.5.2 15 0 22.5 1.2-1.1 7.4-4.6 7.8-5.2ZM1544 478v24.5c0 3.7 3.5 16 5 20 1.3 3.7 6.8 12.2 7 14.1.8 5.4-7.7 8.8-5.9 14.8 6.5 26.2 9.3 53.3 18.9 78.6.6.5 5.1-6.5 6-7.5 2.6-2.9 10-8.1 10.1-11-8.1-39.8-12.3-80.3-12.1-120.9-8.7-6.1-18.6-10.9-29-12.7Zm-7 93c-2.3-.4-1.6.1-2.2 1.3-2.2 3.9-7 16-6.7 20.1 7.7 21.5 10.8 48.2 19 69.1.4 1 .4 2.4 1.9 2.5.6-4.7 8.2-12.2 7.8-16.2-10.5-24.4-15.3-50.7-19.8-76.8m-138 123 3-1.5c7.8-13.2 23-26.8 30.5-39.5 1.9-3.3 1.9-4 .8-7.7-2.6-8.4-16.5-31.1-27.6-24.2-6.7 4.2-11.6 26-14.3 33.5l7.7 39.4Zm23 42c2.5-5.8 6-11.2 8.5-17 5.2-12.3 10-26.5 8-40-11.9 16-22.9 32.6-33.2 49.6 3 18.6 6.8 37.2 11.7 55.4 23.6-19.1 43.3-42.3 62.8-65.3-1.4-2.2-5.7-10.8-8.2-10.5-5.3 3.7-47.2 30.1-49.7 27.9Zm-21.2 78.9-21.3-102.8c-2.5 3.4-10.4 8.3-10.6 12.4 4.4 27.5 14.2 55.5 17 83.1.2 2.4-1.2 15.2 2 14 3.6-1.3 8.5-5.9 12.9-6.7m-79.3-28.9v1c.7-.3.7-.7 0-1m-.5 2c-2.1-.5-2.3 1.1-3.2 2.3-2.4 3.1-5 7.4-7.2 10.8-1.8 2.8-12.3 19.2-10.6 20.9l5.9 1zm-14 142c2.4.4 4.4-.5 3.8-3.2l-24.3-82.8c-2.4 2.1-3 5.2-2.3 8.2 8.1 25.7 18.2 51.2 22.8 77.8" class="outline" data-original-prefix="outline"/><path id="outline-ear-rt1" class="outline"  fill="#000" d="M1204 941c-4.4-.4-9.8-3.6-13.7-5.8-20.9-12-28.2-35-42.8-53.2-1.1-2.6-.7-7.5-.5-10.5.9-20.4 13.5-35.9 21.8-54.2 6-13.1 11.8-33.9 18.9-45 2.6-4 7.1-7.8 10-12 45.7-65.6 39.8-168 48.8-244.2 35.7-51.4 72.9-101.7 114.9-148.1 13.5-14.9 32.5-37.2 47.6-49.4 43.2-34.6 113.6-72.6 164.2-95.8 39.4-18.1 93.7-41 135.7-50.3 4.3-1 18.4-4.8 21.4-2.6 1.3.9 4.2 14.2 4.5 16.7 4.6 32.3.3 83.6-2.9 116.9-.9 9.4-3.1 31.6-6.5 39.5s-15.6 18.9-20 29c-9.8 22.5-20.5 85.6-16.1 109 2.2 11.6 6.5 11.2 4.1 25-11.5 64.2-42.8 133.8-77.1 188.9-32.9 52.8-80.7 93.9-134.8 124.2-18.8 10.5-28.8 10.7-42.1 29.9-15.2 21.8-20.8 40.5-31.1 63.9-5.5 12.6-19.7 19.4-29.9 28-7.3 6.2-13 13.2-19.5 19.5-6 5.7-26.7 27.8-31.5 30.5-2.3 1.4-20.6 4.8-23.6 4.5-10.9-1-38.2-12.2-49-17.1-3.9-1.8-12.1-5.3-13-9.5 25.5 10.4 46.2 11.5 70.3-2.2 26.5-15 64-49.9 79.7-75.5 5.8-9.5 22.9-46.4 24.6-56.2 1.1-6.9-2.7-5.6 5.1-11.8 33.2-26.6 76.4-40 110.3-69.7 69.6-60.8 114.1-151.8 132.5-241.5 3.7-18 2.5-30 3.4-47.5 1.9-35.7 9.5-78.4 22-112 6.8-18.1 16.8-28.7 20.7-48.3 2.5-12.5 4.6-27.1 6.2-39.9 3.1-25.3 4.5-50.9 2.1-76.4-42 13.5-81.8 33.1-120.7 53.8-46.8 25-95.6 54.9-139.9 84.1-51.1 33.7-90.6 69.4-129.4 116.5-21 25.5-42.6 53.1-60.3 80.7-13.9 63.2-10.7 129.3-22.2 192.8-13.1 26.3-23.4 54.1-36.6 80.4-5.6 11.1-14.2 23.2-19.1 33.9-2.8 6.3-15 38-15.7 43.3-3.2 23.6 13.3 50.9 28.9 67.4Z" class="outline" data-original-prefix="outline"/></g><g id="06_Left Ear" data-trait="OG"><path id="fill-ear-lft1" class="fill"  fill="#fff" d="M326.7 182.1q1.65-.45 3.3.3l180.7 78.4c55.2 39.7 111.9 77.8 165.3 119.7l109 135.9c10.5 65.4 16 132 25.2 197.8 24.6 50.1 52.6 98.7 77.3 148.7 1.5 3.1 5.4 9.5 5.5 12.5.2 4.7-8.5 15.9-11.2 20.8-15.1 27.1-18.8 33.2-43.9 52.1-22.9 17.2-44.3 28.5-72.5 35.5-8 2-18.1 5.7-25.3.5l-82.9-79.1c-9.9-22-17.5-45.3-28.1-66.9l-154-109c-23.7-34.4-41.7-73.1-64.9-108.1-9.8-43.7-27.6-90.2-34.9-134.1-5.9-35.7-6.9-73.6-12.5-109.5-9.3-20.9-22.7-40-30.5-61.5-1-40.6-6.8-81.2-8.3-121.7-.1-3.4-1.1-11.4 2.8-12.4Z" class="fill" data-original-prefix="fill"/><path id="outline-shading-ear-lft1" class="outline"  fill="#000" d="M664 558v21.5c0 22.8 19.2 43.4 30.4 61.6 38.9 63.4 63.1 129 108.2 189.8 16.2 21.8 35 41.1 51.9 62.1 4.8 5.9 9.3 10.3 9.5 18.5.2 6.2-2 12.6-1.1 19l-.9 2.1-60.1 40.9c-13.7.2-28.1 9.9-40.7 12.4-1.5.3-2.8.5-4.2-.3l-76.6-51.4-69.8-109.7c-33.8-23.4-81.3-39.6-107.2-72.3-4.2-5.3-6.4-12.2-10.5-17.5.3-1.1 2.2-.4 3 0 7.1 2.9 21.5 16.6 29.2 21.8 23.5 15.5 51.4 30.4 77.3 41.7 17.3 7.5 35 10.9 52.9 16.1 7 15.4 12.9 31.5 20.2 46.8 8 16.6 27 35.1 40.2 48.8 19 20 39 39.1 59.5 57.5 1.5.2 1.8 0 1.4-1.4-1.9-7.7-7.7-31.2-11.1-36.9-4.7-7.9-16.1-19.2-22.2-27.8-25.1-34.9-42.3-72.5-64.4-108.6-7.4-12-9.8-16-22.8-22.2-38.1-18-78.4-19.1-114.3-41.7-26.9-17-34.3-26.3-51.1-52.9-25.7-40.5-46.4-86-61.2-131.8-4.2-12.9-10.9-32.4-12.7-45.3 0-.6-.3-1.6.5-1.5 14 25.4 25.6 52.8 42.1 76.9 5.6 8.2 12.9 19.9 23.4 21.1-.5-2.4 1.1-5.1.8-7.3-1.4-11-12.7-28.8-16.3-39.8-3.8-11.7 2.7-30.6 3.5-43.5 3.6-59-24.7-121.5-55.6-170.4-12.4-19.7-28.5-37.1-37.4-59.1h16.5c8.6 0 8.7 2.4 14.2 5.8 15.3 9.7 32.5 17.5 48 27 30.2 18.6 67.2 68.2 84.5 99.5 2.9 5.2 12 22.4 12.8 27.2.9 5.4-.9 10.1-1 14.9-.8 41.5 1.8 83.9 11.9 124.2 3.2 12.9 5.4 24.4 15.1 33.9 1.4 1.4 2.9 3.8 4.5 1.5l24.5-44.5 55-6.5z" class="shading" data-original-prefix="shading" opacity=".2"/><path id="outline-ear-lft2" class="outline"  fill="#000" d="M845 941c14.6-16.6 32-43.1 28.9-66.4-6.2-13.9-9.9-31.3-16.2-44.8-6.6-14.1-16.5-28.7-23.6-43.4-15.3-31.6-34.1-66.9-37.1-101.9-.8-27.8-4.4-55.4-7-83-2.5-25.8-1.8-68.6-16.2-89.8-15.1-22.3-37.4-49.1-54.9-70.1-40.4-48.8-81-84.4-134.1-118.9-62.7-40.8-134-84.4-202.2-114.8-5.5-2.4-50.7-20.8-52.7-18.8-2.9 37.8.8 78 8.3 115.2 2.9 14.2 5.3 15.9 11.2 27.8 19.4 39 29.1 89 31.5 132.5 1 17.6-.2 29.6 3.5 47.5 18.4 89.9 62.3 179.1 131.5 240.5 34.3 30.4 77.6 43.7 111.3 70.7 7.8 6.3 4 4.9 5.1 11.8 1.6 9.8 18.8 46.8 24.6 56.2 15.8 25.8 55.2 62.7 82.3 76.9 24.5 12.9 35.2 10.3 60.5 2.1 2.2-.7 5.3-.6 7.2-1.3-1 4.5-8.9 7.6-13 9.5-9.6 4.4-42.4 17.5-51.4 17.4-1.7 0-20.4-3.6-21.4-4.1s-1.2-2.3-2.2-3.3c-15.2-14.7-31.4-32.3-47-46-12-10.6-25.8-15.8-32.5-31.5-10.8-25.2-24.1-65.5-48.8-80.2-25.6-15.1-48.4-25.9-73-44-82.1-60.5-144-180.3-162.2-279.8-2.5-13.4.3-11.7 3.2-22.8 6-23.1-5.4-87.7-14.7-110.8-2-5.1-7-12.2-10.2-16.8-2.7-3.8-8.9-9.4-10.3-12.7-3.4-8-5.6-30.1-6.5-39.5-3.1-31.9-9.3-100.8-.5-129.5 1.8-5.8 2.2-6.4 8.7-5.7 12.1 1.1 31.8 7.4 43.8 11.3 83.1 27.2 164 67.2 237 115.1 21.8 14.3 36.8 25 55.1 43.9 52.6 54.4 98.4 114.5 141.4 176.6 2.3 4.6 2.2 21.8 2.6 28.4 3.6 65.9 7.8 160.8 46.2 215.8 2.9 4.1 7.4 7.9 10 12 6.8 10.6 12 30 17.6 42.4 10.2 22.5 26 41.8 21.6 68.3-12.2 14.7-20.7 38.7-36.8 49.2-5.3 3.5-12.5 7.3-18.7 8.8z" class="outline" data-original-prefix="outline"/><path id="outline-ear-lft1" class="outline"  fill="#000" d="M671 548c1 1.1-9.1 24.9-9.8 28.7-3.2 18.8 9.2 75.9 17.6 94 8.4 18.2 19.9 26.4 31 41 38.5 50.8 58.2 119.5 95.4 173.6 4.1 6 11.5 13.6 14.6 19.4 2.3 4.2 4.1 23.8 4.2 29.8 0 1.9.2 3.7-.6 5.5-1.3 3.2-26.3 24.1-28.5 22 .6-5.2 4-9.5 4.7-14.8 4.7-32.1-33.9-98.2-50.6-126.9-23.1-39.7-51.6-80.6-84.7-112.3.2-20.9-3.1-40.8-9.2-60.8-5-16.5-11.4-40-29.8-18.2-21.7 25.7-18.4 63-6 92 2.2 5.2 5.5 9.8 7.5 15-3.9.3-7.3-2.1-10.7-3.8-25.9-13-50.8-31.4-71.8-51.2-10.2-49.8-20.3-101.8-52.4-142.7 2.3-5.6 5.6-10.1 7.6-16 12.2-35.3 1.5-87.5-13.6-120.9-23.3-51.5-61.4-93-109.9-121.6l-22.3-39.7c3.2-2.9 26 18.3 29.7 20.8 6.2 4.2 14.6 6.7 20.3 10.7 9.4 6.7 22.5 22.7 31.5 31.5 33.4 32.3 57.8 54.7 80 96.9 3.8 7.2 20.1 40.7 20.3 46.5.3 7.9-5.4 25.4-6.6 34.3-3 21-3.8 46.7-2.2 67.7 1.8 24.6 22.8 84.2 40.4 101.6 27.7 27.2 29-13.4 34-31 2-7.1 9.3-32.9 12.5-37.5 2.9-4.3 22.7-15.4 28.3-18.7 2.8-1.7 27.5-16 28.7-14.8h.4Z" class="outline" data-original-prefix="outline"/></g><g id="07_Head" data-trait="horny"><path id="fill-head2" class="fill"  fill="#fff" d="M782 505c1.3 1-14.2 15.5-15.5 17-4.3 4.8-10.6 11.6-14.5 16.5-4.9 6.2-6.9 14.3-11.6 20.4-1.9 2.4-7.4 6.2-8 7.1-.4.6-.2 7-1 10-2.7 9.5-14.5 26.1-16.2 34.8-.9 4.5.5 11.7-.5 17.5-1.2 6.6-5.5 12.8-6.5 17.5-1.1 5 .3 12-.5 17.5-.8 5.9-5.3 12.5-5.8 17.2-.5 5.2 1.5 11.9 1.1 18-.2 4-1.8 8.2-2 12-.7 11.2 6.1 21 6.1 33s-1.9 7.9-.9 12.8c.7 3.5 4.9 7.8 6.3 11.7 1.1 3.4 1 7.3 2.3 10.7s4.1 5.3 5.4 8.6c1.6 3.8 1.2 8.2 2.6 11.4 1.6 3.8 7.5 5.9 10.3 8.7 7.2 7.3 5.5 15.9 10 22 4 5.6 14.8 8 20.5 12.5 6.3 4.9 9.7 14.4 15.2 17.8 8.7 5.4 21 6 31.3 13.7s12.8 21.1 19.6 26.4c10.1 7.9 20.1 7.2 31.5 19.5 23.5 25.2 34.5 59.9 19.2 92.2-7.6 16-47.9 37.3-65 42-24.8 6.9-64.9 3.3-87.9-8.5-15.5-8-11.7-15-21.8-23.2-4.3-3.5-12.2-6.6-16.2-10.3-8-7.6-11.1-22-21-27.5-2.5-1.4-5.6-1.7-8-3-12.7-6.8-21.1-12.3-24.8-27.2-1.6-6.3-.5-15.5-2.2-19.8-2-5-10.2-7.9-13.7-11.3-8.8-8.3-18.5-36.5-18.6-48.5 0-7.3 5-15.7 4-21.9-.5-3.2-6-10.1-7.8-14.2-5.6-13-9-31.9-4.9-45.6 2.6-8.6 8.7-13.7 7.6-23.2-1.9-16.5-6.8-25.6-.4-43.6 3-8.6 10.9-15.5 13.3-21.7 4.4-11.5-.2-26.2 10.8-38.2 2.2-2.5 8.7-5.4 9.9-8.1 1-2.3 1-6.8 2-10 2.2-7 5.9-16.9 10.5-22.5 2.5-3.1 7.9-5.8 9.4-8.6 2.5-4.7 1.4-10.5 5.2-16.8 4.1-6.9 10.6-8.4 13.9-13.1 6.2-8.8 7-18.5 17-28 5-4.8 14.2-8.5 18.6-13.4 7.8-8.8 6.5-12.6 18.7-20.3 15-9.6 35.7-17.8 53.3-20.2z" class="fill" data-original-prefix="fill"/><path id="fill-head1" class="fill"  fill="#fff" d="M1256.3 505c17.6 2.4 38.3 10.6 53.3 20.2 12.1 7.7 10.9 11.5 18.7 20.3 4.3 4.9 13.6 8.7 18.6 13.4 10 9.5 10.8 19.2 17 28 3.3 4.8 9.8 6.3 13.9 13.1 3.8 6.4 2.7 12.1 5.2 16.8 1.5 2.8 6.9 5.5 9.4 8.6 4.6 5.6 8.3 15.6 10.5 22.5 1 3.2 1 7.6 2 10 1.2 2.7 7.6 5.7 9.9 8.1 11 12 6.4 26.7 10.8 38.2 2.4 6.2 10.2 13.1 13.3 21.7 6.4 18 1.5 27.1-.4 43.6-1.1 9.5 5.1 14.6 7.6 23.2 4.1 13.7.8 32.6-4.9 45.6-1.8 4.1-7.3 11-7.8 14.2-1 6.2 4.1 14.6 4 21.9 0 12-9.8 40.2-18.6 48.5-3.6 3.4-11.7 6.3-13.7 11.3-1.7 4.3-.7 13.5-2.3 19.7-3.7 14.9-12.1 20.4-24.8 27.2-2.4 1.3-5.5 1.5-8 3-9.9 5.5-13 19.9-21 27.5-3.9 3.7-11.8 6.8-16.2 10.3-10.2 8.2-6.3 15.2-21.8 23.2-23 11.9-63.1 15.4-87.9 8.5-17.1-4.7-57.4-26.1-65-42-15.3-32.3-4.3-67 19.2-92.2 11.4-12.2 21.4-11.6 31.5-19.5 6.8-5.3 9.3-18.6 19.6-26.4s22.6-8.3 31.3-13.7c5.5-3.4 8.9-12.9 15.2-17.8 5.7-4.5 16.4-6.9 20.5-12.5 4.4-6.1 2.7-14.7 10-22 2.8-2.8 8.7-4.9 10.3-8.7 1.4-3.2 1-7.6 2.6-11.4 1.4-3.3 4.1-5.2 5.4-8.6s1.2-7.3 2.3-10.7c1.3-4 5.5-8.2 6.3-11.7 1-4.9-.8-8.4-.9-12.8 0-11.9 6.8-21.8 6.1-33-.2-3.8-1.8-8-2-12-.4-6.2 1.6-12.8 1.1-18-.5-4.8-5-11.3-5.8-17.2-.8-5.6.7-12.6-.5-17.5-1.1-4.7-5.4-10.9-6.5-17.5-1-5.8.4-13-.5-17.5-1.7-8.7-13.5-25.3-16.2-34.8-.8-3-.7-9.4-1-10-.5-.9-6.1-4.7-8-7.1-4.7-6.1-6.7-14.2-11.6-20.4-3.8-4.9-10.1-11.8-14.5-16.5-1.3-1.5-16.8-16-15.5-17h-.2Z" class="fill" data-original-prefix="fill"/><path id="outline-shading-head4" class="outline"  fill="#000" d="M873 1019v-21.5c0-.9-2-5.2-2.5-6.5-2.9 4.4-4.6 11.4-10.5 13-.7-17.7 5.6-39-6.5-54-1.2 0-2.6 10.7-3.2 12.8-2.3 7.7-9 18.6-13.9 25.1-1.8 2.4-4.4 6.3-7.4 6.6 2.4-7.3 6.5-14.1 8.5-21.5 2.8-10.4 4.6-29.6 2-40-1.1-4.2-3-8.2-5-12-3.2 7.9-4.7 16.1-8 24-11.3 27.1-34.6 60.7-59 77-1.9 1.3-11.4 6-11.6 6.6-1.7 7 5.2 15.6 10.7 19.2 8.9 5.6 20.5 4.4 30.3 6.7-11.1 4.8-26.5 4.3-38.4 2.4-10.8-1.8-33.4-11.4-40.6-19.4-16.1-17.8-28.9-38-47-55-6.5-6.1-20.5-15.3-25-22-4.9-7.2-7.2-19.8-12.2-27.8s-17.1-15.8-20.7-22.3c-1.8-3.3-6.4-27.8-7-33-1.4-11.3.7-27.9-1.3-37.7-1.5-7.1-10.9-14.2-10.9-23.2 0-15.4 6.5-32.8 7-46.2.2-7-3.2-15.3-3-22.9s5.7-26.2 8.6-33.5 8.7-14.1 10.8-21.2c4.7-16 .5-16.8 13.2-30.8 1.7-1.9 8.8-7.4 9.1-8 .4-.7-.9-12.6-.3-16.3.4-2.3 5.9-13.3 7.3-15.7 2.1-3.4 9.3-8.4 10.9-11.1s.7-10.1 5.5-16.5c3.1-4.2 13.7-10.1 14.5-11.5.9-1.6.2-4.1 1-6 5.2-13.8 13.3-18.2 23.6-27.4 4.8-4.3 7.7-7.4 12-12 11.4-12.5 39.7-32.3 56.7-33.5 8.7-.6 6.4 8.3 3.2 13.3-5.4 8.4-19.2 18.2-25.8 27.2-3.8 5.1-5.9 14-9.5 18.5-1.4 1.7-4.3 2.7-5 4-1.2 2.6-3.1 14.2-5 19-9.6 24.1-16.2 38.2-21.2 64.8-3.4 18.1-2.5 29.3-3.2 46.8-.4 8.4-3 18.4-2.9 26.8.5 36.8 14.8 58.8 32.1 88.9 8.8 15.3 11.2 19.9 24.8 32.2 16.1 14.6 32.2 21.9 48.9 34.1 12.1 8.8 29.8 23.1 41.1 32.9 28 24.5 45.5 63.3 30.8 99.8-1 2.6-2.5 6.8-5.8 6.7h-.2ZM763 515c-1.3-1.2-24.4 11.2-27.3 13.2-6.3 4.2-11.8 10-15.7 16.3 5.2 3.1 7.9 6 10.5 11.5zm-51.2 40.2c-7.3 1-24.9 18-24.7 25.3 0 3.7 5.7 4.5 7.9 6 9.6 6.7 13.3 19.2 21.5 3.3 4.3-8.3 11.8-37.1-4.6-34.7h-.1Zm-13.6 77.6c6.8 3.9 7.3-14.4 6.7-18.2-1.2-8.7-12.5-22.1-21.6-22.5-7.2-.4-18.8 10.4-15.6 17.7 1.7 3.9 6.3 3.4 9.9 5.1 4.8 2.3 10.6 6 14.3 9.7s5.7 8 6.2 8.3Zm-49.1 13.1c.9 1 21.3 6.6 25.8 8.7 2.1 1 5.1 2.7 7 4 2.4 1.6 10 9.2 10.7 9.4 2.4.5 4.1-5.9 4.3-7.5 2.2-17.3-14.7-41.4-33.3-38.4-4.1.7-12.8 10.3-14 14-.6 1.7-1.1 9.1-.4 9.9Zm3.6 13.3c-11.3 1.9-17.2 17.1-15.8 27.3 1 7.2 5.5 3.2 9.5 3.4 9.9.5 20.4 2.3 29.8 5.3 4.2 1.4 12.7 8.2 14.5 0 4.3-19.3-20.7-39-38-36.1Zm26 55.1c-11.5-13.5-37.2-10-48.1 2.7-6 6.9-12.9 29.9-2.5 34.5 2.7 1.2 25.8-6.9 30.9-8.1 6.5-1.5 20.4-.4 23.3-7.7 2.2-5.4.2-16.9-3.6-21.4M681 792c3.6 0 19-9.5 13-13.6-1.2-.8-12.2-.6-14.6-.5-2 0-14.5 3.5-14.4.5 0-2.7 26.6-5 28-13 .8-4.6-2.9-7.8-7-9-10.4-3.1-38.3-.4-48.8 3.3-35.6 12.4-33.6 56.7 4.2 63.2 18.7-9.3 36.1-22.9 57.6-25l-5-3.5-13-2.5Zm27 20c-3.2-.5-6.2-2.1-9.5-2.1-16.5 0-62.3 21.2-64.5 39.5-1.6 13.6-1.2 31.8 11.3 39.7 13.9 8.8 20.7 3.3 32.2-6.2 6.9-5.8 12-13.9 18.5-19.5 5.7-5 24.4-16.2 25.8-23.2.3-1.4.3-2.8.2-4.3-5.6-.5-10.7.4-16 2 1.5-4.2 5.1-5.8 5.8-10.8 1.7-12.2-13.6-8.6-15.8-10.2-3.4-2.5 7.7-2.9 8.5-3 1.5-.2 3.1 0 3.5-2Zm29.8 42.2c-21 2.3-57.5 40.1-63.3 59.7-6.3 21.2 15.2 42.3 36.5 35.5 11.3-3.6 28.2-24.4 34.4-34.6 2.8-4.6 11.8-21 12.5-25.5 2.1-13.4-2.4-37.2-20.2-35.2ZM761 931c3.6-17.5 12.6-33.9 13-52-1.3-1.9-4.3 12.6-4.7 13.8-8.5 24.6-28.2 46.1-40.7 68.3-2.8 5-9.1 15.6 0 17.7 11.2 2.5 23.6-8.2 34.3-10.8 1.1 1.1-4.6 6.2-5.5 7-6.3 5.1-15.3 7.3-18.5 16 9.2-2.7 18.4-6.3 25-13.5 14.5-15.9 33.4-50.3 34.1-72 0-1.5.3-7.7-2.4-7.3-16.8 2-20.5 27.3-34.7 32.8Zm-6 81c6-.2 14.7-6.1 19.5-10 13.1-10.7 37.8-52.5 41.1-68.9 2.2-11.2 3.2-26.1-3.1-36l-8.5 34.5c-11 28.8-28.7 59.3-59 70.5.3 1.8 5.2 1.1 6.5 1 4.9-.4 9.5-2.5 14.5-2 2 1.8-10.4 9.1-11 11Z" class="shading" data-original-prefix="shading" opacity=".2"/><path id="outline-shading-head3" class="outline"  fill="#000" d="M832 959c2.8 3-9.7 24.4-12.6 27.9-1.9 2.3-12.7 12.7-15.4 10.1-.5-2.1.7-2.7 1.5-4 2.7-4.7 19.6-29.8 22.5-32.5 1.4-1.2 2-1.8 4-1.5" class="shading" data-original-prefix="shading" opacity=".2"/><path id="outline-shading-head1" class="outline"  fill="#000" d="M1165.2 1019c-3.3 0-4.7-4.2-5.8-6.7-14.7-36.5 2.7-75.3 30.8-99.8 11.3-9.8 29-24.1 41.1-32.9 16.7-12.2 32.8-19.5 48.9-34.1 13.6-12.3 16.1-16.9 24.8-32.2 17.2-30.1 31.6-52.2 32.1-88.9 0-8.5-2.6-18.5-2.9-26.8-.8-17.5.2-28.6-3.2-46.8-5-26.6-11.6-40.7-21.2-64.8-1.9-4.8-3.8-16.4-5-19s-3.6-2.3-5-4c-3.6-4.4-5.8-13.3-9.5-18.5-6.6-9-20.5-18.8-25.8-27.2-3.2-5-5.5-13.9 3.2-13.3 17 1.1 45.2 20.9 56.7 33.5 4.2 4.6 7.2 7.8 12 12 10.3 9.3 18.3 13.7 23.6 27.4.7 1.9 0 4.4 1 6 .8 1.4 11.3 7.3 14.5 11.5 4.8 6.4 3.9 13.8 5.5 16.5s8.8 7.7 10.9 11.1c1.5 2.3 7 13.3 7.3 15.7.6 3.6-.7 15.5-.3 16.3.3.6 7.4 6.1 9.1 8 12.7 14 8.5 14.8 13.2 30.8 2.1 7.1 8 14 10.8 21.2s8.4 25.9 8.6 33.5-3.2 15.9-3 22.9c.5 13.3 7 30.8 7 46.2s-9.4 16.1-10.9 23.2c-2 9.8 0 26.4-1.3 37.7-.6 5.1-5.2 29.7-7 33-3.6 6.5-15.8 14.3-20.7 22.3s-7.2 20.6-12.2 27.8c-4.5 6.7-18.5 15.9-25 22-18.1 17-30.9 37.1-47 55-7.2 8-29.8 17.6-40.6 19.4-11.9 1.9-27.3 2.5-38.4-2.4 9.8-2.3 21.5-1 30.3-6.7 5.5-3.5 12.4-12.2 10.7-19.2-.2-.7-9.7-5.4-11.6-6.6-24.3-16.3-47.7-50-59-77-3.3-7.9-4.9-16.1-8-24-2 3.8-3.9 7.8-5 12-2.6 10.4-.8 29.6 2 40 2 7.4 6.1 14.2 8.5 21.5-3-.3-5.6-4.2-7.4-6.6-4.9-6.5-11.6-17.4-13.9-25.1-.6-2.1-2.1-12.8-3.2-12.8-12.1 15-5.8 36.3-6.5 54-5.9-1.5-7.6-8.6-10.5-13-.5 1.3-2.5 5.6-2.5 6.5v21.5h-.2Zm110-504 32.5 41c2.6-5.6 5.3-8.4 10.5-11.5-3.9-6.3-9.4-12.1-15.7-16.3-2.9-2-26-14.3-27.3-13.2m51.3 40.2c-16.5-2.4-8.9 26.4-4.6 34.7 8.2 15.8 11.8 3.4 21.5-3.3 2.3-1.6 7.8-2.4 7.9-6 .2-7.4-17.4-24.3-24.7-25.3h-.1Zm13.5 77.6c.5-.3 5-7.1 6.2-8.3 3.8-3.7 9.5-7.4 14.3-9.7 3.6-1.7 8.2-1.2 9.9-5.1 3.2-7.2-8.4-18-15.6-17.7-9.1.5-20.3 13.9-21.6 22.5-.5 3.8 0 22.1 6.7 18.2Zm49.1 13.1c.6-.7 0-8.2-.4-9.9-1.2-3.7-9.9-13.3-14-14-18.6-3-35.6 21.1-33.3 38.4.2 1.6 1.9 8.1 4.3 7.5.7-.2 8.3-7.8 10.7-9.4 1.9-1.3 4.9-3 7-4 4.4-2.1 24.9-7.7 25.8-8.7Zm-41.7 49.4c1.8 8.2 10.3 1.3 14.5 0 9.4-3 19.9-4.8 29.8-5.3 4.1-.2 8.6 3.9 9.5-3.4 1.4-10.2-4.5-25.4-15.8-27.3-17.4-2.9-42.3 16.8-38 36.1Zm12.2 19c-3.8 4.5-5.8 16-3.6 21.4 2.9 7.3 16.8 6.2 23.3 7.7 5.1 1.2 28.2 9.3 30.9 8.1 10.4-4.6 3.4-27.5-2.5-34.5-10.9-12.7-36.6-16.3-48.1-2.7m-2.4 77.7-13 2.5-5 3.5c21.5 2.1 38.8 15.7 57.6 25 37.8-6.6 39.8-50.9 4.2-63.2-10.5-3.7-38.4-6.3-48.8-3.3-4 1.2-7.8 4.4-7 9 1.4 8 27.9 10.4 28 13 0 2.9-12.4-.4-14.4-.5-2.4-.2-13.4-.4-14.6.5-6 4.1 9.4 13.4 13 13.6Zm-27 20c.4 1.9 2 1.8 3.5 2 .8 0 11.9.5 8.5 3-2.2 1.7-17.5-1.9-15.8 10.2.7 5 4.3 6.6 5.8 10.8-5.3-1.6-10.4-2.5-16-2 0 1.4 0 2.8.2 4.3 1.4 7.1 20.1 18.2 25.8 23.2 6.4 5.6 11.6 13.8 18.5 19.5 11.5 9.6 18.3 15 32.2 6.2 12.5-7.9 13-26.1 11.3-39.7-2.2-18.3-48.1-39.6-64.5-39.5-3.3 0-6.3 1.6-9.5 2.1Zm-29.8 42.2c-17.8-2-22.3 21.8-20.2 35.2.7 4.5 9.7 20.9 12.5 25.5 6.3 10.2 23.1 31 34.4 34.6 21.4 6.8 42.8-14.3 36.5-35.5-5.8-19.6-42.3-57.4-63.3-59.7Zm-23.2 76.8c-14.2-5.5-17.9-30.8-34.7-32.8-2.6-.3-2.4 5.9-2.4 7.3.7 21.6 19.6 56 34.1 72 6.5 7.2 15.7 10.8 25 13.5-3.1-8.8-12.2-10.9-18.5-16-.9-.7-6.7-5.9-5.5-7 10.7 2.6 23.1 13.3 34.3 10.8 9.3-2.1 3-12.7 0-17.7-12.5-22.2-32.2-43.7-40.7-68.3-.4-1.2-3.4-15.6-4.7-13.8.4 18.1 9.3 34.5 13 52Zm6 81c-.6-1.9-13-9.2-11-11 5-.4 9.6 1.7 14.5 2 1.3 0 6.3.7 6.5-1-30.3-11.1-48-41.6-59-70.5l-8.5-34.5c-6.3 10-5.3 24.8-3.1 36 3.3 16.4 28 58.3 41.1 68.9 4.8 3.9 13.5 9.8 19.5 10Z" class="shading" data-original-prefix="shading" opacity=".2"/><path id="outline-shading-head2" class="outline"  fill="#000" d="M1206.2 959c2.1-.4 2.6.2 4 1.5 2.9 2.6 19.8 27.8 22.5 32.5.8 1.3 2 2 1.5 4-2.7 2.7-13.5-7.8-15.4-10.1-2.9-3.5-15.4-24.9-12.6-27.9" class="shading" data-original-prefix="shading" opacity=".2"/><path id="outline-head3" class="outline"  fill="#000" d="M772 912c-.9 0-4 7.5-4.5 9 1.1-2.3 5.6-5.6 5.5-8 0-.8-.2-1-1-1" class="outline" data-original-prefix="outline"/><path id="outline-head2" class="outline"  fill="#000" d="M1265.2 913c0 2.4 4.4 5.7 5.5 8-.5-1.4-3.6-8.9-4.5-9-.8 0-1 .2-1 1" class="outline" data-original-prefix="outline"/><path id="outline-head5" class="outline"  fill="#000" d="M816.9 1052.3c-2.6 4.2-74.2 20.2-107.3-13.5-2.5-2.5-2.4-6.6-4.8-9.2s-12.7-7.5-17-11c-9.2-7.4-13.6-16.8-15.4-25-4.6-4-17.5-7.2-23.4-11.2-17.8-11.9-18.3-21-20.3-40.7s-7.8-9-13-14c-12.5-12.1-21.5-42-20-59s3.3-10.6 3-13.9-7.3-13.9-9-19.1c-5.6-17.3-7.4-34.6-.8-51.8s4.5-5.9 4.8-10.2-2.7-12.8-3.1-19c-1-15.3 1.4-29 8.9-42.2 2.4-4.2 6.8-8.3 8.2-12.8 3.3-10.7.6-19.6 7.2-31.8 3.3-6 11.6-10.4 13.2-13.8s1.6-8.6 2.8-12.2c2.5-7.3 7.6-17.5 12.7-23.3s5.7-3.8 6.5-5.5c2.4-5.4 1.8-11 6.1-17.9s10.4-7.8 13.4-12.6 3.1-9.1 5.1-12.7c7.9-14.4 22.1-19.7 31.3-30 1.9-2.2 3.9-6.4 6.1-8.8 11.7-13.2 38-25.3 55.1-29.9 10.9-2.9 31.8-6.7 19.4 11.2-6 8.6-17.5 19.8-24.7 28.7s-9.6 11.5-14.3 17.5-6.8 5.9-9 10-1.6 10.6-3.5 16.5-10.9 20.7-12.3 26.7.8 17.8-3.8 27.2-4.8 5.3-5.2 6.8c-.8 2.6 1.2 11.9.7 16.7s-5.2 14.5-5.7 19.3 1.8 7.2 1.8 10.7c0 6.1-3.3 15.9-3.1 21s3.2 8.8 4.2 12.9c1.8 7.2 2.3 14.8 1.8 22.1s-2 6.1-1.7 7.9 6.3 7.6 7.3 11.6-.1 6.6 1.2 9.8 4.8 4.6 6.4 8.6.5 8 1.3 9.7 10.6 6.4 14 11.1 5.3 17.9 7.1 19.9 10.1 4.1 12.5 5.5c4.9 2.7 11.5 8.7 14.9 13.1s5.6 10.3 7 11c2.3 1.1 5.6.1 8.3.7 13.3 3 28 13.3 35.2 24.8s5.7 12.7 7.1 13.9 13.9 4.4 17.5 6.5c22.9 12.9 44.3 54 44 80s-8.8 25.6-18 33.5c6.8-24.6 1.7-59.8-15-79.5s-25.2-24-28-21.5c-2.2 16.7-8.5 32.3-16.5 47-13.7 25.2-43.5 63.5-72.5 70.5s-14.3 2.2-21 2.5c.6 4.4 6.2 6.1 9.6 7.9 26.1 13.5 33.7 13.7 61.8 12.4 6.4-.3 14.4-2.5 20.6-3.1Zm-70.7-511.7c2.2-2.9 6.3-6.1 8.3-9.2l16.7-18.4c1.3-7.9-43.5 15-50.5 33.6 2.7 1.6 5 3.7 7.1 6.1s1.9 6.8 5.1 3.9 10.4-12 13.4-15.9ZM722 557.3c-2.9-3.2-10.7-4.1-14.7-2s-10 8.5-11.6 10.4-12.2 14.3-10.6 17.2 9.6.4 21 11.3 4.6 4.8 7 7c1.9 0 10-24.4 11.4-27.6s-.4-13.6-2.6-16.2Zm-43.5 35c-4.2 1.1-15.4 11.7-12.3 16.8s14.4 6.4 17.1 8 7 4.4 9.5 6.5 8.1 9.6 9 10.1c4 2.2 6.7-7 7-10 1.7-13.8-4.5-24.5-16.1-30.4s-8.7-2.3-14.1-.9Zm-32.3 56.8c2.3.7 10.5 1.2 13.9 1.2s17.9 5.6 21.3 7.6 14.1 10.8 15 11.1c5.2 1.4 5.6-10.1 5.3-13.4-.9-9.6-12.1-27.5-20.5-32-12.5-6.8-21.7-3.3-29.4 8.1s-9.7 16.2-5.5 17.5Zm52.3 54.8c.4-.5 1.1-5.2 1.2-6.3 1.1-13.3-4.4-22.1-14.1-29.7-19-14.9-44.1-18.2-57.9 6.7-1.5 2.8-7.1 15.4-5.6 17.6s14.4-1.7 18.1-2c12.9-1.1 28.2.8 40.2 5.8s12 8.1 14.3 8.8 3.3 0 3.8-.8Zm.2 48.2c5.1-26.8-9.9-45.9-35.1-52.1-39.3-9.7-66.2 22.2-58.9 60.6.3 1.6 1.2 2.7 2.6 3.5 12-7.7 26.2-12.9 40.2-15.7 17.2-3.4 35.4-5.4 51.2 3.7m13 44c1.4-2-4.5-7.6-5.5-10-4.9-11.8 1.3-19-14.8-26.2-18.2-8.1-38.2-7.3-56.3-.7-33.2 12.1-41.3 42.5-29.8 74.9s4.2 11.2 6.5 10.6 16.2-13.1 19.6-15.4c17.6-11.9 46.1-24.8 66.5-30.5 2.3-.7 13.4-2.1 13.8-2.7m17.5 23.5c-18.5-23.6-57.2-7.1-77.8 5-29 16.9-48.2 39.3-35.9 75.2 3.2 9.5 15.4 27.1 26.8 19.2 6.4-4.4 22.1-21 28.5-27.5s16.6-19.5 26.5-28.5c11.8-10.7 25.8-19.7 36.1-31.9 1.5-4.3-1.6-8.3-4.1-11.5ZM689.5 880c-12.1 11.7-40.5 43.5-42.7 59.7s7.3 21.9 16 28.8c18.3 14.7 27.9 10.8 45.6-2.2s27.3-28.1 35.4-42.6c9.6-17.1 31.5-62.4 8.4-75.7s-19.9-.6-30 7.1c-10.8 8.1-23.1 15.6-32.7 24.8Zm86.2 13.6c.6-5.4 0-12.3 0-18s-1-2.9-2-2.5c-1.7 19.1-11.3 37.1-21.2 53.3-14 23-35.4 49.2-58.3 63.7-1.1.7-2.2 1.1-3.5 1 2.3 8.1 8.1 8 15.5 7 7.5-1.1 28.8-10.4 27.5-9-4.3 4.3-18.2 14.9-22 15 2.3 2.5 10.8 3.1 14.5 3.1s32.8-3.6 34.2-4.1c4.4-1.3-7 6.1-9 7.2-4 2.2-18 7.4-22.5 8.5s-8.7 1.6-13.2 1.3c-.4 1 2.3 2 2.5 2 0 0 5.6 2.1 18 0s27.4-12.5 33.8-17.2c18.2-13.4 30.2-28.9 39.6-49.4s17.4-43.6 2.1-57.4c-.4 8.7-2.2 17.5-4.7 25.8-5.4 17.9-14.9 37.9-27.5 51.8s-33.6 24.1-13 5.7c5.2-4.7 13-16.7 17-23.5 10.8-18.6 19.8-43.4 19.3-65.2-.2-6.8-9.3-15-16-15.5-2.3 17.1-4.1 31.7-16.4 44.6s-5.3 5.9-8.6 7.4c5.5-11.6 12.6-21.8 14-35.5Z" class="outline" data-original-prefix="outline"/><path id="outline-head1" class="outline"  fill="#000" d="M1243.8 1055.3c28.1 1.3 35.7 1.1 61.8-12.4s9-3.5 9.6-7.9c-6.7-.3-14.5-.9-21-2.5-29-7.1-58.8-45.3-72.5-70.5-7.9-14.7-14.3-30.3-16.5-47-2.8-2.6-25.4 18.4-28 21.5-16.7 19.8-21.8 55-15 79.5-9.1-8-17.9-23.5-18-33.5-.4-26 21-67.2 44-80 3.6-2 16.7-5.7 17.5-6.5 1.4-1.2 5.3-11.1 7.1-13.9 7.2-11.6 21.8-21.9 35.2-24.8 2.7-.6 5.9.4 8.3-.7s5.2-8.6 7-11c3.4-4.4 10.1-10.4 14.9-13.1s11.6-4.4 12.5-5.5c1.7-2.1 3-14.2 7.1-19.9s13-8.8 14-11.1-.3-5.8 1.3-9.7 5.3-5.9 6.4-8.6.4-6.4 1.2-9.8 6.9-9.5 7.3-11.6-1.6-5.4-1.7-7.9c-.4-7.4 0-15 1.8-22.1s4.1-8.9 4.2-12.9c.2-5.1-3.1-14.9-3.1-21s2.1-7.5 1.8-10.7c-.5-4.9-5-12.8-5.7-19.3s1.5-14.1.7-16.7-4-4.4-5.2-6.8c-4.6-9.4-1.9-18.7-3.8-27.2-1.4-6-10-19.7-12.3-26.7s-.7-11.2-3.5-16.5-6.3-6.5-9-10c-4.7-6-9.6-11.7-14.3-17.5-7.2-8.9-18.8-20.1-24.7-28.7-12.4-17.9 8.5-14.1 19.4-11.2 17.1 4.6 43.4 16.7 55.1 29.9 2.2 2.4 4.2 6.7 6.1 8.8 9.2 10.3 23.3 15.6 31.3 30s2.9 9.4 5.1 12.7c3.1 4.7 9.2 5.8 13.4 12.6s3.7 12.5 6.1 17.9c.8 1.8 4.8 3.6 6.5 5.5 5.1 5.7 10.2 16 12.7 23.3s1.5 9.3 2.8 12.2 9.9 7.8 13.2 13.8c6.7 12.2 3.9 21.1 7.2 31.8s5.8 8.6 8.2 12.8c7.5 13.2 9.8 27 8.9 42.2-.4 6.1-3.6 13.5-3.1 19 .4 4.3 3.4 6.6 4.8 10.2 6.7 17.2 4.8 34.5-.8 51.8-1.7 5.2-8.7 16.2-9 19.1s2.6 9.7 3 13.9c1.6 17-7.4 46.9-20 59s-12.2 5.9-13 14c-2 19.7-2.4 28.9-20.3 40.7s-18.8 7.1-23.4 11.2c-1.8 8.2-6.2 17.6-15.4 25s-13.9 7.5-17 11c-2.4 2.7-2.3 6.8-4.8 9.2-33.1 33.7-104.7 17.7-107.3 13.5 6.3.5 14.3 2.8 20.6 3.1Zm63.4-498.8c3.1 3 3.5-2 5.1-3.9s4.3-4.5 7.1-6.1c-7-18.7-51.8-41.5-50.5-33.6l16.7 18.4c2 3.1 6.1 6.3 8.3 9.2 3 3.9 10.8 13.5 13.4 15.9Zm8.1 16.9c1.5 3.2 9.5 27.6 11.4 27.6 2.5-2.1 4.7-4.7 7-7 11.4-10.9 20.4-10.3 21-11.3 1.7-2.8-8.4-14.8-10.6-17.2s-9.9-9.5-11.6-10.4c-3.9-2-11.8-1.2-14.7 2s-4.4 12.3-2.6 16.2Zm32.1 19.9c-11.6 5.8-17.8 16.5-16.1 30.4.4 3 3 12.2 7 10s6.7-8.1 9-10.1c2.5-2.1 6.6-4.9 9.5-6.5s16.6-7.1 17.1-8c3.1-5.1-8-15.7-12.3-16.8-5.4-1.4-9.6-1.3-14.1.9Zm40.8 38.3c-7.7-11.3-16.9-14.9-29.4-8.1s-19.6 22.5-20.5 32 .1 14.8 5.3 13.4 12-9.3 15-11.1 18.3-7.6 21.3-7.6 11.6-.6 13.9-1.2c4.2-1.2-3.9-15-5.5-17.5Zm-42.9 73.1c2.3-.7 9.9-7 14.3-8.8 12-5 27.3-6.9 40.2-5.8s16.4 4.4 18.1 2-4-14.8-5.6-17.6c-13.7-24.8-38.9-21.6-57.9-6.7s-15.2 16.4-14.1 29.7c0 1.1.8 5.8 1.2 6.3.6.8 2.8 1.1 3.8.8Zm47.2 43.7c14 2.8 28.2 7.9 40.2 15.7 1.4-.8 2.3-1.8 2.6-3.5 7.3-38.5-19.6-70.4-58.9-60.6s-40.1 25.4-35.1 52.1c15.8-9.1 34-7.1 51.2-3.7m-50.4 50.4c20.4 5.7 49 18.6 66.5 30.5 3.4 2.3 17.9 15 19.6 15.4s5.8-8.6 6.5-10.6c11.4-32.4 3.3-62.7-29.8-74.9-18.1-6.6-38.1-7.4-56.3.7-16.1 7.2-10 14.4-14.8 26.2s-6.9 8-5.5 10 11.4 2.1 13.8 2.7m-35.4 32.3c10.3 12.2 22.1 21.8 33.9 32.6 9.8 9 19.7 18.8 28.7 27.9 6.4 6.5 22.1 23.1 28.5 27.5 11.3 7.9 23.5-9.7 26.8-19.2 12.3-36-5.8-57.9-34.8-74.8-20.7-12.1-60.4-29-79-5.4-2.5 3.2-5.7 7.2-4.1 11.5Zm11 24c-10.1-7.6-16.8-14.6-30-7.1-23.1 13.3-1.2 58.6 8.4 75.7 8.1 14.5 22.1 32.8 35.4 42.6 17.7 13 27.3 16.9 45.6 2.2s17.6-17 16-28.8-32.4-46.2-44.6-57.9c-9.6-9.2-20.1-18.5-30.9-26.6Zm-39.4 74c-3.3-1.5-6.8-5.6-8.6-7.4-12.3-12.8-14.1-27.5-16.4-44.6-6.8.6-15.9 8.7-16 15.5-.5 21.9 8.5 46.7 19.3 65.2 3.9 6.8 11.8 18.8 17 23.5 20.6 18.4-10.1-2.5-13-5.7-12.6-13.9-22.1-33.9-27.5-51.8-2.5-8.3-4.3-17.1-4.7-25.8-15.3 13.7-5.2 41.4 2.1 57.4 9.4 20.5 21.4 36 39.6 49.4 6.4 4.7 21.5 15.1 33.8 17.2s18 0 18 0c.2 0 2.9-1 2.5-2-4.5.3-8.8-.3-13.2-1.3s-18.5-6.3-22.5-8.5-13.4-8.5-9-7.2 29.6 4 34.2 4.1 12.2-.5 14.5-3.1c-3.8-.2-17.7-10.7-22-15-1.3-1.3 20 7.9 27.5 9 7.4 1.1 13.2 1.1 15.5-7-1.3.1-2.4-.3-3.5-1-22.9-14.4-44.3-40.7-58.3-63.7-9.9-16.2-19.5-34.2-21.2-53.3-1-.4-2 2.3-2 2.5 0 5.7-.6 12.6 0 18 1.4 13.7 8.5 23.9 14 35.5Z" class="outline" data-original-prefix="outline"/></g></svg>