<?xml version="1.0" encoding="UTF-8"?>
<?xml-stylesheet type="text/css" href="styles/collection.css"?>
<svg xmlns="http://www.w3.org/2000/svg" viewBox="0 0 2048 2048"><g id="01_background" data-trait="blue"><path id="color-blue" fill="#2f5496" d="M2048 0v2048H0V0z"/></g><g id="02_Jaw" data-trait="robo"><path id="fill-jaw-robo1" class="fill"  fill="#fff" d="M1369.9 1062.1c.4.5 1 11.1 1.4 13.1 11.6 61.7 25.9 123 37.2 184.8 16.2 20.3 35.3 38.1 51.5 58.4l-70.1 149.9-2.3 1.6-31.6-1.9-7.8 59.7-101.2 128.8c-1.6 1.1-2.6-.6-3.6-1.6-11.2-11.1-20.8-28.6-32-40-1.3-1.3-2.6-3.5-4.8-2.9-3.4.9-32.4 51.8-38.3 57.8-25.8 9.8-49.6 24-74.7 35.3-8.9 4-63.2 23-65.1 25.9-.6 1-.4 2.8-.6 2.9-.2.2-3.1-.9-4.4-.9s-3.2 1.3-3.6.9c-.3-.3.7-2.4-2.3-4.2-13.4-8.1-38.6-14-54.4-20.6-28.2-11.8-54.4-28.3-83.3-38.7-6.3-5.8-35.3-57.4-38.7-58.4-2.2-.7-4.5 2.4-5.9 3.9-11.6 12.1-21.3 28.8-33.1 41l-1.9-.9-100.9-128.1c-3.2-19.9-5.4-39.9-7.5-60l-31.6 1.9-2.5-1.4-69.8-149.3c-.3-1.9 4.6-7.3 6.3-9.3 14.5-16.8 30.7-32.1 44.6-49.4 10.6-62 27.2-123.3 37.7-185.3.5-3.2-.7-11.9 2-13.3 104.8-21.7 209.7-42.7 314.5-64.3 7.3-1.5 24.9-7.3 30.5-7.5 4.2 0 24.8 6.2 31.1 7.5 105 21.6 210.1 42.9 315.1 64.4v.2z" class="fill" data-original-prefix="fill"/><path id="outline-shading-jaw-main" class="outline"  fill="#000" d="m1369.9 1062.1 28.1 145.4c-4.8-.6-19.2-17.4-22.3-16.4-3.4 1-21.1 37.8-20.7 42.4 12.3 15.8 24.8 31.6 35.4 48.6 3.7 5.9 15.5 24.5 15.6 30.5 0 4.7-10.7 25-13.5 30.5-4.5 8.7-9.8 16.9-14.5 25.5 17.3-8 33.9-18.4 49.3-29.7 4.1-3 10.3-7 13.7-10.3 2.3-2.2 12.4-16.5 13.5-16.5l5.5 6.4-65.1 139.9-6.5 11.5-32.3-1.9-7.8 59.7-101.2 128.8c-1.6 1.1-2.6-.6-3.6-1.6-11.1-11.1-20.8-29.2-31.9-40-.8-.8-1.6-2.1-2.9-1.9-7.3 1.3-32.3 48.3-39.7 55.4-30.9 14.9-60.7 32.4-91.6 47.4-12.8 6.2-33.2 17.2-46.8 18.2-23.7 1.7-37.4-7.3-57.9-17.2-31.4-15.1-61.6-32.8-93-48-8.2-6.6-32.8-54.4-40.3-55.8-2.8-.5-31.3 38.2-35.8 43-1 1.2-2 1.2-3.1 0l-100.9-128.1-7.5-60-31.6 1.9-2.5-1.4-69.8-149.3c-.3-3.1 3.7-7.8 6.8-5.8 1.9 1.2 8.8 11.9 11.5 14.6 2.9 2.9 7.8 6.2 11.2 8.8 4.5 3.4 49.2 33.3 51.3 31.2-7.3-15.4-17.3-29.8-23.8-45.6-1.2-2.9-3.2-6.7-3.2-9.9 0-5.3 10.4-22 13.7-27.4 11-18.2 24.3-34.9 37.4-51.6-4.2-15.2-12-29-20.1-42.3-.9-.5-2 0-2.9.4-6.3 3.4-12.9 13.3-20 16.5l28.1-145.9 45.8-9.7c48.2-55 116.4-93.5 184.8-118.2 72.2-26 130.6-31.5 205-8.5 77.7 24 155.9 65.5 210.3 126.7zM854 1330c-21-6.7-43.3-4.3-64.4-11.1-14-4.5-30.8-14.7-42.9-23.1-18.1-12.6-35.7-28.4-49.2-45.8-10.7 14.6-22.1 30.4-30.7 46.3-4.3 8-11.3 21.1-7.7 30.1l27.1 48.4c6.1 1.6 17.5-4.7 22.8-2.3 1.5.7 2.4 3.5 4.5 3.5s4.4-5.1 7-5.1 3.4 4.4 7 4.1 5.2-6.6 7.2-7c.5 0 8.2 2.7 8.6 2.9 4.7 2.4.3 18-3.2 21.4.3 1.5 14.2 9.3 16.4 9.6 2.9.5.2-2.4 1-4.9s6.5-6.3 8.8-5.9c5.4.9 6.3 10.2 14.7.3 1.9-2.2 0-4.1 4.5-4.6 8.5-1 5 8.4 7 14.1 12.4-17.2 20.2-37.4 32.1-54.9l29.4-16.1Zm507.8 44.8c8.8-17.7 20.1-34.4 28.2-52.3-.4-8.9-2.9-14.5-6.9-22.2-8.9-17.4-21.4-34.4-32.7-50.3-21.1 25.5-52 52.2-82.8 65.2-24.8 10.4-48.4 7.8-73.7 14.8l29.7 16.3c11.6 17.6 19.4 37.7 31.8 54.7.9-1.8 1-13.5 1.5-14s7.3-.2 7.8.2c1 .6 1.6 7.8 6.9 8.7 6.3 1.1 7.7-7.8 15.4-2.8 2.7 1.8 3.1 6 2.8 8.9 1.2 1.4 17.7-8.3 18-9.6.2-1-3.9-5.8-4.6-8.4-2.2-9.5-1.5-13.7 8.4-14.8 5.3-.6 2.8 2.2 5.5 4.5 4.6 4 7.8-2.7 10-2.6 2.7.2 5 4.9 7.2 4.9s3-2.8 4.5-3.5c5.2-2.4 16.6 3.8 22.8 2.3zM1078 1327c-5.5-11.1-10.5-24.8-17.6-34.9-4.2-6.1-10.2-10.5-14.9-16.1-3.4-4-15.2-20.5-18.4-21.6-1.9-.6-4.4-.8-6.3-.2-2.4.7-15.7 18.7-18.7 22.3s-7.4 6.8-10.5 10.5c-9.4 11.2-15.1 26.9-21.5 40h108Zm-353.8 172.8c24.8 5.4 50.2 7.7 75 13.6 17.3 4.1 20.3 3.6 29.6 19.4 5.3 8.9 9.2 18.7 14.2 27.8l17 14-29.2-80.8c-2.4-5.8-8-8-13.1-10.9-22.2-12.9-51.7-27.2-75.7-36.3-2.6-1-8.1-3.8-10.4-3.5-1 0-15.6 9.5-16.3 10.3-6.3 7.6 6.8 37.2 8.9 46.5Zm599.6 0c2.5-10.6 8.2-22.1 9.8-32.7.8-5.7 1.7-10.9-3-15.1-1.1-1-13.2-8.9-14-9-2.5-.3-19.4 7.2-23.2 8.8-20.7 8.8-45.7 20.5-65 32-5.6 3.4-8.8 4.9-11.8 11.2l-28.5 80 16.4-14.1c7.1-10.9 14.9-35.4 25.9-42.1 6.1-3.8 19.9-5.9 27.5-7.5 21.8-4.6 44.2-6.7 66-11.5zM908.5 1649v1c.7-.3.7-.7 0-1m229.5 1c-31 8.8-60.6 26.8-91 36.5-19.3 6.2-28.3 5.9-47.5-.4-28.3-9.3-56.5-25.5-85-35.1-1.2-.4-3.6-1.8-4.5-.5.8 2.1 2.7 4.2 4 6 4.9 6.3 18 23.3 23.5 27.5 7.2 5.5 27.9 14.6 37.1 18.9 5 2.3 20.9 10.5 24.9 11.1 9 1.4 36.3 1 46 0 7-.6 57.7-24.6 64.4-29.6 5.3-3.9 18.2-20.8 23-27 .8-1 5.8-6.8 5-7.5Z" class="shading" data-original-prefix="shading" opacity=".2"/><path id="outline-jaw" class="outline"  fill="#000" d="M670 1105c2 .2 9.2 3.6 9.8 5.7 1 3.3-1.3 18.1-2 22.7-6 41.8-19.7 84.1-28.6 125.4-12.3 18.3-29.3 33.5-43.8 50.2-1.2 1.3-6.5 7.5-6.5 8.5l56 135.5c1.5.4 1.7-.4 2.5-1 7.1-4.9 23.9-23.3 30.5-30.5 1.5-1.6 9.9-11.2 10-12-17.6-32.9-42.5-63.1-49.8-100.8 17.2-28.9 35.3-57.4 56.9-83.2 6.2-7.4 21.8-27.5 32-26.1 4.7.6 8.6 4.8 6.4 9.5-23 21-44.9 44.7-62.7 70.3-3.2 4.6-15.2 22.2-15.6 26.5-.5 5.1 11.8 29.8 15 35.6 7 12.8 29.4 46.8 40.5 54.5 2.8 1.9 7 3.2 10 5 77.7 46.7 153.2 90.1 243.1 109.9 13.1 2.9 37.4 9.1 49.8 9.2 11.3 0 33.7-5.7 45.6-8.2 92.6-19.7 168.3-62.9 248.1-110.9 3.1-1.8 7.2-3.1 10-5 11.1-7.7 33.4-41.8 40.5-54.5 3.2-5.8 15.5-30.5 15-35.6-.4-3.9-10.7-19.3-13.6-23.5-18.3-27-40.8-51.3-64.7-73.3-2.5-9.2 6.9-10.8 13.8-7.8 10.7 4.6 40.4 44.2 48.5 55.5 11.9 16.7 22.3 34.6 33 52.1-7.3 37.7-32.2 67.9-49.8 100.8 0 .8 8.5 10.4 10 12 6.6 7.2 23.4 25.6 30.5 30.5.8.6 1 1.4 2.5 1l55.8-135.3c-15.4-20.6-35.6-37.7-50.1-58.9-8.6-41-22.6-83.1-28.6-124.4-.7-4.8-3.1-20-1.9-23.7.6-2.1 8-5.5 9.8-5.7 4.6-.4 10.8 5.1 11.9 9.6 8.1 44.1 13.6 92.9 27.6 135.4 9.1 27.6 33.8 39.8 52 60 4.9 5.4 6.6 7.2 4.8 14.8-2.1 8.6-9.2 23.2-12.8 32.2-16.7 41-35.5 81.7-54.5 121.5-2.5 2.1-18.6 9-21.4 8.6-4.6-.7-13.3-13.3-18.5-15-3.1 22.3-7.1 44.7-11.8 66.7-29.2 38.3-55.4 79-82.3 118.7-10.2 4.1-22.2 12.3-32.2 15.8-1.5.5-3 1.3-4.6.7l-24.6-43.9c-1.1.5-16.2 15.9-17.3 17.7-6.5 10.1-3.8 21-14.2 29.8-22.9 19.1-72.2 40.2-100.7 51.3-18.6 7.3-34.3 14.2-54.7 14.3-24 .2-49.5-11.4-71.5-20.6-23.2-9.8-67.3-29.4-85.5-45.5-10.3-9.1-7.3-19.2-13.7-29.3-1.1-1.7-16.2-17.1-17.3-17.7L812 1674c-1.6.6-3.1 0-4.6-.7-10.1-3.5-22-11.7-32.2-15.8-26.9-39.8-53.1-80.4-82.3-118.7-4.7-22-8.6-44.4-11.8-66.7-5.2 1.7-14 14.4-18.5 15-2.8.4-18.9-6.5-21.4-8.6-19-39.8-37.8-80.5-54.5-121.5-3.6-8.9-10.8-23.6-12.8-32.2-1.8-7.6 0-9.4 4.8-14.8 13.4-14.9 37.6-30.5 47.2-47.8 7.3-13.1 12.4-41.8 15.8-57.2 4.5-20.4 8.5-41.2 12.2-61.8 1.5-8.5 1.8-19.4 3.7-27.3 1.2-5 7.2-11.3 12.6-10.9zm664.9 411.9 14.2-77.4c-.2-3.8-5.4-5.5-8.1-8-2.9-2.7-5.4-5.9-8.6-8.3-82.7 31.3-155.3 82.7-242.3 103.3-57 13.5-94.2 11-150.2-4.8-69.9-19.7-131-59.2-197.1-87.9-6-2.6-20.1-9.4-25.7-10.4-2.8-.5-7.7 6-10 8.1-2.1 2-7.6 4.5-8.1 7l14.2 78.3c17.8 1.1 35.6 3.8 53.4 5.1 9.3.7 42.4-.4 47.8 3.9 8.5 20 14.6 41 23.2 61 2.8 6.5 6.2 15.2 9.9 21.1 5.4 8.7 15 14.9 20 23.1 5.6 9.2 8.1 23.6 15.5 31.5 5.1 5.5 21.6 15 28.8 19.2 31 18.4 83.7 44.6 119.8 42.2 30.1-1.9 87.2-31 113.4-47.6 5.2-3.3 16.2-9.8 20.1-13.9 7.2-7.5 10.4-24.2 16.1-32.9 2.7-4.1 8-7.8 11.3-11.7 8.3-9.7 11.9-17.5 16.9-29.1 9-20.6 15.3-42.4 24.2-63 14.6-5 32.2-2.8 47.8-4 17.8-1.3 35.6-4.1 53.4-5.1v.3ZM801 1649c5.8-16.3 16.4-30.6 24.8-45.6-4.3-11.7-7.5-23.9-12-35.6-2.2-5.8-7.4-19.7-10.9-24.1-10.8-13.6-69.6-12.5-86.9-16.6-.5 1.7.7 2 1.5 3 13.4 17.3 27.7 33.6 40.3 51.7 15.2 21.9 28.4 45.1 43.2 67.3Zm531-122c-17.3 4.1-76.1 3-86.9 16.6-3.5 4.4-8.6 18.3-10.9 24.1-4.5 11.7-7.7 23.9-12 35.6 8.4 15.1 18.9 29.3 24.8 45.6 14.7-22.2 27.9-45.4 43.2-67.3 12.6-18.1 26.9-34.3 40.3-51.7.8-1 1.9-1.3 1.5-3Z" class="outline" data-original-prefix="outline"/><path id="outline-jaw1" class="outline"  fill="#000" d="M785.7 1376.3c8.1 7.2 8.5 18.5 4.1 27.9-5.2 10.9-19.3 10.7-26.7 2.3-15.1-17.3 3.6-47 22.7-30.2Zm-12 4.9c-10.7 1.7-7.7 23.9 4.7 21.8 10.2-1.7 4.4-23.3-4.7-21.8" class="outline" data-name="outline-jaw" data-original-prefix="outline"/><path id="outline-jaw2" class="outline"  fill="#000" d="M1262.3 1376.3c22.7-20.1 40.5 23.7 16.9 34.4-21.7 9.8-31.5-21.5-16.9-34.4m10.4 4.9c-10.5 1.7-12.6 25.9 1.3 21.4 10.1-3.2 8.1-22.9-1.3-21.4" class="outline" data-name="outline-jaw" data-original-prefix="outline"/><path id="outline-jaw3" class="outline"  fill="#000" d="M723.7 1356.2c15.6-2.8 28.9 19.5 15.8 29.8-10 7.8-24 0-26.8-11.2-1.8-7.1 3.5-17.2 11-18.6m9.1 22.6c6.5-6.5-8.3-22.1-11.4-7.8-1.5 7.3 7.1 12.1 11.4 7.8" class="outline" data-name="outline-jaw" data-original-prefix="outline"/><path id="outline-jaw4" class="outline"  fill="#000" d="M1317.7 1356.2c14.2-2.9 23 13.6 14.3 25.3-12 16-34.6 4.8-27.5-13.5 1.7-4.3 8.7-10.8 13.2-11.8m-2.5 22.6c4.3 4.3 12.9-.5 11.4-7.8-3-14.3-17.9 1.3-11.4 7.8" class="outline" data-name="outline-jaw" data-original-prefix="outline"/></g><g id="03_Mouth" data-trait="scrappy"><path id="fill-muzzle" class="fill"  fill="#fff" d="M1038 1292s-.4 1.7.7 2c10.3 2.8 18 4.3 25.8 13 1.9 2.2 4.9 8.8 6.5 9.5 2.6 1.2 6.6 0 9.5.5 11.4 1.5 21.2 3.7 31.2 9.8 2.1 1.3 9.2 7.8 10.2 7.1.3-.3 0-1.7 0-1.9 2.4-1.8 32.7.6 38 1 5.2 4.2 13.2 5.5 19.2 8.3 13.7 6.4 22.5 16.1 29.9 29.1 8.4 14.6 7.7 17.8 3.1 33.4-2.5 8.5-4.8 21.8-16.3 20.2 1.5-15.5-14.8-32.4-26.5-41-3.2-2.4-11.3-7.2-6 0 10.8 14.7 20.2 14.8 21.5 37.5.6 10.3-8.4 32.9-15.4 40.5-.6.7-7.1 6.3-7.6 6.5-3 1.6-6.9-6.1-7.8-8.2-3.6-7.8-4.7-15.5-9.7-23.3-1.1-1.7-10.8-13.7-12.4-12.1 5.6 13 9 46.2-2.5 56-4.4 3.7-9.4 1.9-13.3 3.7-2.8 1.3-3 5.7-4.8 6.1s-7-3.1-9.4-3.5c-8.9-1.3-13.2 17-18.7 17.5-2.5.2-10.7-11.9-18.4-9.4-7 2.2-15.4 21.2-24.4 23.6-6.3-6-3.4-14-5.8-21.2-1.2-3.5-4.2-6.7-5.8-10.2-5.4-12.7-2.8-19.9-.2-32.2.6-3 0-5.9.9-9.1.2-.7 6.3-12.3 6.9-13.1 3.7-5.4 19.2-12.4 22.7-3.8.9 2.2 0 8.7 2.2 7.7 5.1-4.9 10.2-9.9 15.5-14.5 11.5-10 14.1-9.7 21.2-24.8 1.5-3.3 6.5-14.5 6.6-17.3 0-3.4-9.2-14.7-11.8-17.8-1.4-1.7-9.5-11.5-10.2-11.8-6.4-3.2-28-2.3-34.7.8-7.9 3.6-12.5 12-19 17-1 .8-1.3 1.9-3 1.5l.8-12.7c3.6-4.3 21.7-23.3 21.1-27.5-.4-2.6-11.3-13.4-12.9-11.7 4.4 12.8.7 8.7-7.3 12.2-1.2.5-2.9 2.7-3.2 2.7s-2-2.2-3.2-2.7c-3.4-1.5-9.7-.4-9.3-5.6 0-1.1 4.1-7.6.5-6.6-2.8.8-12 9.9-11.3 13.2 0 .6 4 7 4.8 8 1.5 2 5 5.9 7 8.3 3.2 3.9 9.7 7.6 9.9 13.1 0 1.6-.8 3.1-.8 4.8s2.6 8.1-2.5 3.6c-6.2-5.3-10.2-13.6-18.5-17.5-6.5-3-30.3-4.3-35.7-.2-.8.6-8.8 10.5-10.2 12.2-2.4 3-10.9 13.7-10.8 16.8.2 5.4 11.7 29 15.7 33.2 3 3.2 9.3 6.8 13 9.9 5 4.3 9.7 9.1 14.5 13.5l4.2-11.1c4.9-3.1 17.7 2.6 20.8 7.1 1 1.5 5.1 9.9 6 11.9 2.8 6.4 5.1 25.4 4.4 32.4-1.1 10-7.9 15-9.4 22.6-1.3 6.4 1.1 14.9-5.8 18.9-8.1-2.6-17.3-21.5-23.6-23.5-8.2-2.6-15.9 9.6-18.4 9.4-5.3-.4-8.7-14-13.9-16.1-6.9-2.8-11.5 2.7-14.1 2.1-1.8-.4-2-4.8-4.8-6.1-4.5-2-9.6.3-14.3-4.7-10.9-11.5-6.5-42.2-1.5-56.1-9.1 6.7-14.1 14.8-18.5 25-1.6 3.6-2 7.5-3.7 11.3-1 2.1-4.9 9.8-7.8 8.2-.4-.2-6.9-5.9-7.5-6.5-3.9-4.3-13.8-24.4-15-30-2.8-12.9 1.4-26.5 9.5-36.5 4.1-5.1 11.3-9 13-15.5-2.4-2.4-22.3 17.4-24.4 20.1-5.4 6.8-11 15.9-9.6 24.9-8.3.5-10.7-3.3-13.3-10.2-2.7-7.1-7.8-22.8-6.2-29.8 3.7-16.2 21.4-35.8 36.3-42.7 6.2-2.9 13.9-4.1 19.2-8.3 12.5-.8 24.5-2.3 37-1 0 0 .7 2.1.5 3 9.5-8.2 20.6-14.8 33.1-16.9 4.7-.8 14.8-.4 18.1-1.8 1.6-.7 5.2-7.7 7.2-9.9 8-8.4 15.2-9.7 25.4-12.5 1.1-.3.6-1.9.7-2 1.1-.7 25.9-.7 27 0v.2Z" class="fill" data-original-prefix="fill"/><path id="fill-teeth14" class="fill"  fill="#fff" d="M1039.1 1601.9c-.8-.5-7.2-15.4-7.9-17.6-4.2-13.6-7-37.9-1.5-51.1 5.8-13.9 10.8-1 20-5 1.9-.8 7.6-6.8 9.2-8.8 2.6-3 3.6-9.1 8-8 12.8 3.1 21.1 24.2 22 36.1 2.3 30.4-23.4 40.7-45.2 53.7-1.2.5-3.6 1.3-4.6.6Z" class="fill" data-original-prefix="fill"/><path id="fill-teeth13" class="fill"  fill="#fff" d="M1015.7 1527.3c10.2 8.9 6 44.1 2.3 56.2-1.9 6.4-6 12-8.1 18.3h-2.3c-12.1-7.1-26.3-12.4-36.1-22.9-9.1-9.8-12.3-17.9-11.5-31.5.8-11.8 9-32.3 21.2-35.9 4.8-1.4 5.7 4.5 8.2 7.4 1.8 2.1 8.3 8.8 10.5 9.5 6 1.9 12.5-4.1 15.8-1.3z" class="fill" data-original-prefix="fill"/><path id="fill-teeth12" class="fill"  fill="#fff" d="M904 1461c0 2.2-1.1 3.8-.8 6.2s7.4 22.5 8.8 24c3.7 4.1 11.1 2.3 15.9 2.9 4.9 13.5-4.3 23.9-8.6 35.6-2 5.3-8.4 33.1-12.8 34.3-3.3.8-11.7-18-12.8-21.2-6.8-20.9-8.8-51.8 1.8-71.7.6-1.2 7.1-11.6 8.4-10.1Z" class="fill" data-original-prefix="fill"/><path id="fill-teeth11" class="fill"  fill="#fff" d="M1144 1564c-1 .7-1.8-.4-2.4-1.1-5.8-5.8-8.7-24.8-11.8-33.2-4.3-11.7-13.8-21.9-8.6-35.6 18.6 2.9 18.2-8.8 23.1-22.4l2.2-9.8c10.2 11.1 15.2 27.6 14.6 42.5-.5 13.7-3.2 35.3-9.5 47.5-.8 1.5-6.9 11.6-7.5 12Z" class="fill" data-original-prefix="fill"/><path id="fill-teeth10" class="fill"  fill="#fff" d="M949 1569c5.5 22.1 11.4 45.4 9 68.5-.5 5-1.3 9.2-7 6.9-3.4-1.3-17.5-13.4-19.5-16.5-7.4-11.8.3-39.7 8-50.8 1.2-1.7 7-10.1 9.4-8.1Z" class="fill" data-original-prefix="fill"/><path id="fill-teeth9" class="fill"  fill="#fff" d="M1100 1569c3.4-2.9 13.3 14.1 14.5 17 4.8 11.7 9.3 33.5 1 44-2.1 2.7-18.5 16.5-20.9 15.9-1.9-.4-3.4-6.5-3.6-8.4-1-8.7 0-26 1-35 1.1-10.9 6.5-22.5 8-33.5" class="fill" data-original-prefix="fill"/><path id="fill-teeth8" class="fill"  fill="#fff" d="M1167 1547c.9-6.7-1-15-.6-21.3.3-6.3 3.7-14.6 3.6-21.2 0-5.7-4.8-19.5-4-24 .5-2.9 3.5-2.8 5.5-4.5 6.2-5.3 10.4-15.8 16.9-4.9 14.2 23.5-1 56.5-18.4 74.4-.9 1-1.3 1.9-3 1.5" class="fill" data-original-prefix="fill"/><path id="fill-teeth7" class="fill"  fill="#fff" d="M881.7 1478.3c3.3 2.9-2.8 21-2.8 26.2s2.6 12.6 3.1 18c.7 8 0 16.5-.5 24.5-1.8 0-11.7-13.3-13.3-15.7-11.2-16.8-20.3-43.7-7-61.7 6.2-8.4 9.7.9 14 4.7 2 1.9 5.7 3 6.6 3.9Z" class="fill" data-original-prefix="fill"/><path id="fill-teeth6" class="fill"  fill="#fff" d="M1018 1613v16.5c0 .9-10.8 13.2-11.9 14.1-6.3 4.8-8-2.6-10.6-5.5-5.5-6-17.9-.4-24.4-5.6-.9-.7-4.1-8.3-4.1-8.9v-24.5c12.3 3 28.7 18.5 41.4 16.9 3.5-.4 6.1-3 9.6-2.9Z" class="fill" data-original-prefix="fill"/><path id="fill-teeth5" class="fill"  fill="#fff" d="M1102.5 1494c3.3-.8 5.3 8.5 6.3 10.7 5 10.5 15.3 30.3 11.4 42.1-2.2 6.7-15.6 23.4-20.4 11-4-10.4-4.1-44.7-1.1-55.5.4-1.6 2.4-7.9 3.8-8.2Z" class="fill" data-original-prefix="fill"/><path id="fill-teeth4" class="fill"  fill="#fff" d="M917 1563c-1.6 13.5 2.8 27.4 2 40.5-.5 8.8-4.2 18.6-5.5 27.5-5.8-5.6-10.5-15.7-11.4-23.6-.6-5.2.7-25.8 2.4-30.3.6-1.6 10.5-16.2 12.4-14.1Z" class="fill" data-original-prefix="fill"/><path id="fill-teeth3" class="fill"  fill="#fff" d="M1135 1631c-.4-8.9-4.4-17.8-5.1-26.5-1-13.6 3.6-27.7 2-41.5 2.2-2.4 11.9 13 12.5 15 2 6.8 2.7 27.3 1.2 34.3-1.3 6.3-5.5 14.8-10.8 18.7z" class="fill" data-original-prefix="fill"/><path id="fill-teeth2" class="fill"  fill="#fff" d="M1154.1 1604.9c-3.4-2-5.1-22.3-3.9-26.2.8-2.6 8.9-5.2 10.2-8.8l5.1-10.9c3.8 3.4 5.1 7.2 4.3 12.2-.7 4.5-5.2 22.3-6.9 26.2-.9 2.2-6.1 9-8.8 7.5" class="fill" data-original-prefix="fill"/><path id="fill-teeth1" class="fill"  fill="#fff" d="M885 1559c.4.4.7 7.1 3 10.5 2.7 3.9 10.5 6.9 11 10-.8 4.7-.7 23-4 25.4-2.5 1.8-7.7-4.5-8.7-6.7-1.6-3.6-6.3-22.5-7-27-.6-3.9 2.5-15.6 5.8-12.3Z" class="fill" data-original-prefix="fill"/><path id="outline-shading-mouth2" class="outline"  fill="#000" d="M918 1443.5c.8 5.3 5.6 13.8 10.1 16.9 11.5 8.3 16.2-.3 22.4-9.4 2.5 5.4 3.4 11.5 6 17 1.4 2.8 5.7 12 7.5 5.5l4-11.5c1.6 7.5 6.3 15.4 11.5 21 4.3 4.7 18.8 15.4 24.6 9.6 2-2.1 8.3-17.9 10.8-22.2 1.2-2.2 7.8-13.8 9.7-13.3 1 .2 8.5 13.2 9.7 15.3 2.4 4.5 7.3 17.7 9.8 20.2 3.8 3.8 10.5.4 14.4-1.8 10.5-5.9 18.5-17.2 21.7-28.8l4.2 12.3c.3 1.2 1.9 2.4 2.8 1.7.6-.4 5.8-11.3 6.5-13 .8-2 2.8-12 4-12 6.8 10.7 12.9 18.4 24.5 7.5 8.6-8 9.3-23.8 7-34.5 3.5-3.1 21.1 16.1 26.6 16.9 9.1 1.4 17.6-11.8 19-19.9 3.5-20.5-12.9-39.2-30.9-46.2l-12.7-4.8c15.4 0 28.2 2.9 41.1 11.4 4.8 3.1 12.2 10.9 17.6 11.4 6.2.6 10.1-4.1 10-10-.4-19.3-25.8-38.1-39.7-48.8 15.4 2.4 34.6 11.8 45 23.5 7.8 8.8 19.1 25.1 19.1 37s-6.4 28.5-9.2 32.8c-3.3 5.3-11.7 5.4-13.4 10.6-.9 8.1-2.1 16.4-2.5 24.5-1.5 29 1.4 45.2-10.8 73.2-3.6 8.2-12.7 20.4-14.9 27.1-4.2 12.8-.7 26.4-9.1 38.9-3.2 4.8-8.4 6.7-11.2 10.8-1.7 2.5-2.4 6.1-4.2 8.8-4.5 6.7-14.6 23-21.6 8.9-1.6-3.3-1.3-12.9-6.7-6.2-1.4 1.7-1.9 4.4-3.5 6.5-3.7 4.7-17.7 19.6-23.5 19.5-2.2 0-4.5-4.1-6.6-5.4-7.9-5-21.1-6.3-29.2-1.4-7.3 4.4-9.5 13.6-18.1 6.8s-6.4-10.8-20.1-9c-5.6.7-11.4 12.6-16.9 12.1-2.8-.2-11.4-11.1-18.5-12.6-6.3-1.3-17.5.7-23 4.2-2.6 1.7-4.1 5.6-7.5 5.4-5.7-.3-19.8-15.8-23.6-20.5-1.2-1.5-4.4-10.6-7.1-6.9-2.5 3.4-.6 9.9-7.2 12.7-7 3-14.9-11.2-18.1-16.4-1.2-1.8-1.2-4.3-2.6-6.4-2-3-6.8-5.4-9.5-8.5-10.4-11.9-6.7-27.7-10.7-41.3-.8-2.6-5.6-8.5-7.3-11.7-18.4-35.7-16.4-45.6-18.4-84.6-.4-7.7-.6-20.7-2.2-27.8-1.5-6.2-11.1-6.1-14.2-11.8-3.4-6.1-9.3-29.6-8.6-36.4 1.2-10.3 16.2-31.2 24-38 10.5-9.2 26.2-16.5 40-18.5l-21.5 17c-7.2 6.4-26.8 32-14.8 39.9 9 5.9 16.7-4.5 23.7-9.1 12.7-8.4 25.3-11.8 40.7-11.8l-17.3 7.2c-18 9.4-33.1 32.7-22.1 52.8 1.7 3.1 8.6 10.4 12 11.1 9.1 1.7 20.7-15.4 29.5-18 .6 6.4-.9 14.3 0 20.5zm-37.1 40.6c-12.3-.5-17.1-20.2-22.8 1.5-3.4 13 1.2 26.4 9.4 36.5 1.5 1.8 12.7 13.1 13.9 12.9.8 0 2.5-2.3 2.8-3.2 2.9-7.1-3.2-12.2-4.2-19.2-1.5-9.8 0-18.7.9-28.4Zm301.8-8.9c-3.2.8-6.3 6-8.8 7.3-2.1 1.1-7.2 1-7.8 3.2-.5 1.7 3 10.8 2.9 14.8 0 3-1.5 13.9-2.2 16.8-.9 3.6-3.9 5.7-3.9 10.2s1.4 7.1 3.7 7.4c1.9.3 15-14.4 16.8-17 5.7-8.5 9-18.8 7.3-29.2-.5-3-4.4-14.5-8-13.6Zm-284.8 10c-4-2.3-6.5 9.9-6.8 12.5-1.2 10.5 3 38 8.7 47.1 1.9 3 5.4 6.9 9.2 7.3 3.7-15.6 12.6-29.2 21-42.5-2.3-.4-1.7-2.9-2.7-3.5-1.5-.9-7-1.9-9.7-3.1-4.7-2.2-12-7.7-15.6-11.4-1.2-1.2-3.8-6.2-4.2-6.3ZM1139 1552c8.3-2 11.9-12.2 13.9-19.6 3.1-12.1 6.1-33.4 1.1-44.8-3-6.9-5.8 1.7-8.3 4.1-3.9 3.8-11 9.3-16 11.6-2.5 1.1-7.8 1.8-9.1 2.7-.7.5-.5 1.8-1 2.7-.3.4-1.7.4-1.6.9 0 1 7.9 12.3 9.2 14.8 4.8 8.8 9.1 18 11.8 27.7Zm-197.7 5.7c8.1 8.1 9.5 0 10.5-7.3.8-5.6 2.7-20.6 1.7-25.4-3.6-17.2-21.3-15.9-21.6 3.6 0 6.8 4.6 24.3 9.4 29.2Zm161.5-44.5c-5 1.3-8.5 9.3-8.8 14.2-.2 4 2.4 28.5 3.8 31.3 2.5 5 7.5 0 9.8-2.7 6.8-8.3 11.6-30.7 4.5-39.5-2.7-3.3-4.8-4.4-9.2-3.3zM1023 1544c-.7-.7-.8-7-5.1-9.4-8.9-5-21.8-.8-32-4-10.4-3.3-9.4-13.1-16.1 1.8-2.9 6.4-9.1 24.4-6.3 30.7 1.1 2.4 17.8 15.6 21.2 17.8s18.2 11.7 21.1 10c3.1-5.6 9.3-9.5 12.6-14.9 1.8-2.8 4.1-11.5 4.6-11.9 1.6-1.7 1.7.5 2.1 1.4 1.6 3.6 2.1 6.8 4.5 10.5 3.3 5.2 9.2 9.3 12.4 14.6 3.1 1.9 15.5-5.9 18.9-8.1 4.5-2.9 22.9-17 23.9-21.1 2.2-9.7-6.6-28.3-10.9-37.2-4.9 1-7.8 5.2-12.7 6.7-9.2 2.8-28.2-1.6-33.7 6.3-.9 1.2-2.6 8.9-4.5 7zm-136 18c-.7-.6-3.5 0-4.5.9-6 6.2 2.4 31.6 14.6 27.6 4-1.3 3.8-9.4 2.8-12.9-1.1-3.9-7.2-4.1-9.8-7.2-2.1-2.5-2.7-8.2-3-8.5Zm274.1 0c-.3.3-.9 6-3 8.5-2.6 3.1-8.7 3.3-9.8 7.2-1 3.4-1.2 11.6 2.8 12.9 13.4 4.4 20.2-24.5 14.1-28.1-.9-.5-3.5-.9-4-.4Zm-216.4 7.2c-1.5.4-5.1 4.6-6 6.1-3.4 5.6-5.6 32.3-4.8 39.3 1.3 10.9 15.2 18 19.5 3.5 1.7-5.6 2.6-21.4 2.5-27.6 0-1.1-5.8-19.7-6.5-20.5-1.2-1.4-3.2-1.3-4.8-.8Zm153.3-.1c.2 6.6-5.4 14.7-6 20.6-.5 4.5 1 25.3 2.4 29.4 4.2 12.1 16.9 7.3 19.1-2.9 1.1-5.2 0-16.8-.6-22.6-1-9.7-1.7-25.5-14.9-24.5m-180 1.9c-20.5 3.8-17 28.7-9 43 4 2.9 10.4-17 10.7-19.8.9-7.5-2.9-15.5-1.8-23.2Zm218 43c2.5 1.8 7.2-9.1 7.7-10.8 3.9-12.8 1.6-30.1-13.7-32.2.5 7.4-2.8 16.2-1.9 23.4.3 2.7 6.4 18.5 7.9 19.6m-148.2 10.2c1.4.8 4.8 8.6 9.5 11 11.1 5.8 20.2-6.4 20.7-16.7.8-13.7-7.2-7.7-16.5-8.6-8.4-.8-15-4.8-21.8-9.2-5.5-3.5-13.6-14.6-14.7-1.4-.5 5.1 1.4 7.5 1.8 11.2s-2 5.9.5 10.7c4.8 9.3 18 1.3 20.7 2.8zm93.1-31.1c-2.1-1.5-19.7 12.7-23.9 14.4-2.3 1-7.9 2.3-10.5 2.5-10.5.9-18.8-5.4-16.4 11.4 1 7.3 7.9 15.8 16 15.1 9.4-.8 11.9-11.6 14.6-12.4 4-1.3 12.3 5.7 18.9-1.1 4.3-4.4 1.3-8.4 1.5-12.5 0-2.3 1.9-4.8 2-8.1 0-1.9-.8-8.5-2.2-9.4Z" class="shading" data-original-prefix="shading" opacity=".2"/><path id="outline-shading-mouth1" class="outline"  fill="#000" d="M1041 1343c6.1.5 12.7-1 17.5-5 1.5-1.3.9-3.7 2.8-2.9 10.1 7.9 37.9 17.4 43.8 28.2 3.6 6.5 4.6 17.5-1.8 22.6-5.6 4.5-20.8 10.8-28 15-4.9 2.8-9.7 6.6-14.7 9.3-7.4 4.1-25.5 14.5-32.6 16.4-2.9.8-5.2.8-8.1 0-14.5-3.8-42.2-22.5-56.3-30.7-6.2-3.6-21.2-9.1-23.2-15.8-5.5-18.4 15.7-28.3 28.7-35.4 2.3-1.2 15.5-8.6 16.5-8.7 2.9-.3 4.2 2.9 6.7 4.2 4.2 2.3 10 3.2 14.7 2.8-.3-5.1-3.3-11.3-1.8-16.3.5-1.6 12.5-13.9 14.5-14.4 3.9-1 8.2-.3 11.6 1.9 1 .7 10.8 11.1 11.2 11.8 2.1 5-1.2 11.8-1.5 17" class="shading" data-original-prefix="shading" opacity=".2"/><path id="outline-mouth3" class="outline"  fill="#000" d="M889 1333c-5.3 4.2-13 5.4-19.2 8.3-14.9 6.9-32.6 26.5-36.3 42.7-1.6 7 3.5 22.7 6.2 29.8 2.6 6.9 5 10.8 13.3 10.2-1.4-9 4.2-18.1 9.6-24.9 2.1-2.6 22-22.5 24.4-20.1-1.7 6.5-8.8 10.4-13 15.5-8.1 10-12.3 23.6-9.5 36.5 1.2 5.6 11.1 25.8 15 30 .6.7 7.1 6.3 7.5 6.5 3 1.5 6.9-6.1 7.8-8.2 1.7-3.8 2.1-7.7 3.7-11.3 4.4-10.2 9.4-18.4 18.5-25-5.1 13.9-9.5 44.6 1.5 56.1 4.8 5 9.9 2.7 14.3 4.7 2.8 1.3 3 5.7 4.8 6.1 2.6.6 7.2-4.9 14.1-2.1 5.2 2.1 8.6 15.6 13.9 16.1 2.5.2 10.2-12 18.4-9.4 6.3 2 15.5 20.8 23.6 23.5 6.9-4 4.5-12.6 5.8-18.9 1.5-7.6 8.3-12.6 9.4-22.6.8-7-1.6-26-4.4-32.4-.9-2.1-5-10.5-6-11.9-3.1-4.5-15.9-10.2-20.8-7.1l-4.2 11.1c-4.8-4.4-9.5-9.2-14.5-13.5-3.7-3.2-10-6.8-13-9.9-4-4.2-15.5-27.8-15.7-33.2 0-3.1 8.4-13.8 10.8-16.8 1.4-1.8 9.5-11.6 10.2-12.2 5.4-4.1 29.2-2.8 35.7.2 8.4 3.8 12.4 12.1 18.5 17.5 5.2 4.5 2.5-1.7 2.5-3.6s.9-3.2.8-4.8c-.2-5.4-6.7-9.2-9.9-13.1-2-2.4-5.5-6.3-7-8.3-.8-1-4.7-7.3-4.8-8-.7-3.3 8.6-12.4 11.3-13.2 3.6-1-.5 5.5-.5 6.6-.4 5.2 5.9 4.1 9.3 5.6 1.2.5 3 2.7 3.2 2.7s2-2.2 3.2-2.7c8-3.5 11.7.6 7.3-12.2 1.6-1.7 12.5 9.1 12.9 11.7.6 4.2-17.5 23.2-21.1 27.5l-.8 12.7c1.7.4 2-.7 3-1.5 6.5-5 11.1-13.4 19-17 6.8-3.1 28.3-4.1 34.7-.8.7.3 8.8 10.1 10.2 11.8 2.6 3.1 11.9 14.4 11.8 17.8 0 2.8-5 14.1-6.6 17.3-7.1 15.2-9.7 14.8-21.2 24.8-5.3 4.6-10.4 9.6-15.5 14.5-2.2.9-1.4-5.6-2.2-7.7-3.4-8.6-19-1.6-22.7 3.8-.6.8-6.7 12.4-6.9 13.1-1 3.2-.3 6.1-.9 9.1-2.6 12.3-5.2 19.6.2 32.2 1.5 3.5 4.6 6.8 5.8 10.2 2.5 7.2-.5 15.2 5.8 21.2 9-2.3 17.4-21.3 24.4-23.6 7.7-2.4 15.9 9.6 18.4 9.4 5.6-.5 9.8-18.8 18.7-17.5 2.3.3 7.6 3.9 9.4 3.5s2-4.8 4.8-6.1c3.9-1.8 8.9 0 13.3-3.7 11.5-9.9 8.1-43 2.5-56 1.6-1.7 11.3 10.4 12.4 12.1 5.1 7.8 6.1 15.5 9.7 23.3 1 2.1 4.8 9.8 7.8 8.2.4-.2 6.9-5.8 7.6-6.5 7-7.6 16-30.2 15.4-40.5-1.3-22.7-10.7-22.7-21.5-37.5-5.3-7.2 2.8-2.4 6 0 11.8 8.6 28 25.5 26.5 41 11.4 1.6 13.7-11.7 16.3-20.2 4.6-15.6 5.3-18.8-3.1-33.4-7.4-13-16.3-22.7-29.9-29.1-6-2.8-14.1-4.1-19.2-8.3 9.3.7 19.7 2.8 29.2 5.3 7.4 1.9 14.4 3.9 20.7 8.3 3.2 9.3 27.6 34.6 28 42 .2 3.7-8.2 22.5-10 27.9-2.5 7.2-2.6 16-10 21-1.9 1.3-8.4 2-9 3.2-4.1 7.9-1.4 38-1.9 48.8-1.1 21.6-7.6 43.1-20.5 60.5-.9 1.2-2.6 1.5-3.6 2.7-4.3 5.6-2.8 18.6-4.3 26.5-1.2 6-5 13.1-5.6 18.4-.4 3.5 1.3 7.7.8 9.7s-10.7 8.6-13.2 9.9c-2.2 1.2-5.7 1.5-6.5 2-.6.4-5.4 10.9-7.2 13.3-2.1 2.7-11.1 11.3-14 12.1-4.1 1.2-7.9-10.3-9.9-13s-2.3 2.3-3.6 4.3c-4.3 6.7-25.1 26.6-32.4 28.6-1.7.5-3.3.7-5 .5-.4-5.9 3.2-9.9-1.5-15.1-8.2-9-20.9-.3-24.3 8.8-1.8 4.9-1.6 20-8.6 18.1-4.6-1.3-20-25.6-23.2-30.8-5.7 8.9-12.2 19.9-19.5 27.4-11.2 11.7-9.9-11-13.8-18.2-3.8-7.1-14-12-21.1-6.7-6.7 5-2.9 9.6-3.1 16.4-3.5 3.5-24.3-13.8-27.5-17-1.3-1.3-10.5-12.2-11-13-.7-1.4-.2-6.3-2.6-3.3-2.1 2.7-6.2 14.3-10.2 13.3s-12-10.2-13.7-12.4c-2.1-2.7-6.6-12.8-7.2-13.2-.8-.5-3.8-.6-5.8-1.7-2.3-1.2-11.9-7.4-13-9-2.1-3.2.4-6.9 0-11-.7-6.8-5.9-15.3-6.8-24.2-.5-5 .6-10.7-.6-15.4-1-4-8-10-10.7-14.3-15.3-24.4-17.6-52.1-17.9-80.2 0-5.4 3-18.2 0-22.8-.8-1.2-7.8-1.9-10.4-3.8-7.2-5.3-6.2-13-8.6-20.4-1.9-6-10.7-24.3-9.8-28.7.5-2.7 4.3-7.5 6-10.1 7-10.8 15.7-20.6 22.5-31.5 5.9-4.3 13.2-6 20.1-7.9 9.7-2.6 19.8-4.7 29.2-5.3h.2Zm15 128c-1.4-1.5-7.8 8.9-8.4 10.1-10.6 19.9-8.6 50.8-1.8 71.7 1.1 3.3 9.4 22.1 12.8 21.2 4.4-1.1 10.8-28.9 12.8-34.3 4.3-11.7 13.6-22.1 8.6-35.6-4.8-.6-12.2 1.2-15.9-2.9-1.4-1.5-8.5-21.7-8.8-24s.8-4 .8-6.2Zm240 103c.6-.4 6.8-10.5 7.5-12 6.3-12.1 9-33.7 9.5-47.5.6-14.9-4.3-31.4-14.6-42.5l-2.2 9.8c-4.9 13.6-4.6 25.2-23.1 22.4-5.2 13.7 4.3 23.9 8.6 35.6 3.1 8.4 6 27.5 11.8 33.2.7.7 1.4 1.8 2.4 1.1Zm-262.3-85.7c-1-.9-4.6-2-6.6-3.9-4.2-3.9-7.8-13.1-14-4.7-13.3 17.9-4.1 44.9 7 61.7 1.6 2.4 11.5 15.7 13.3 15.7.5-8 1.2-16.5.5-24.5-.4-5.4-3.1-12.3-3.1-18s6-23.3 2.8-26.2ZM1167 1547c1.7.4 2-.5 3-1.5 17.4-17.9 32.6-50.9 18.4-74.4-6.5-10.8-10.8-.4-16.9 4.9-2 1.7-5 1.6-5.5 4.5-.8 4.5 4 18.3 4 24s-3.3 14.8-3.6 21.2c-.3 6.3 1.6 14.6.6 21.3m-64.5-53c-1.4.3-3.3 6.6-3.8 8.2-3 10.7-2.9 45.1 1.1 55.5 4.8 12.4 18.2-4.3 20.4-11 3.9-11.7-6.4-31.5-11.4-42.1-1-2.2-3-11.4-6.3-10.7Zm-86.8 33.3c-3.2-2.8-9.7 3.2-15.8 1.3-2.1-.7-8.7-7.5-10.5-9.5-2.6-2.9-3.4-8.8-8.2-7.4-12.2 3.5-20.5 24.1-21.2 35.9-.9 13.6 2.4 21.7 11.5 31.5 9.8 10.4 24 15.7 36.1 23h2.3c2.1-6.4 6.2-12 8.1-18.4 3.7-12.2 7.9-47.3-2.3-56.2zm23.4 74.6c1.1.7 3.4 0 4.6-.6 21.8-13.1 47.5-23.3 45.2-53.7-.9-11.9-9.2-33-22-36.1-4.4-1.1-5.5 5-8 8-1.7 1.9-7.3 7.9-9.2 8.8-9.2 4-14.3-9-20 5-5.4 13.2-2.6 37.5 1.5 51.1.7 2.2 7.1 17.1 7.9 17.6ZM885 1559c-3.2-3.3-6.4 8.4-5.8 12.3.7 4.5 5.4 23.4 7 27 1 2.2 6.2 8.5 8.7 6.7 3.4-2.4 3.2-20.7 4-25.4-.5-3.1-8.3-6.1-11-10-2.3-3.5-2.6-10.1-3-10.5Zm269.1 45.9c2.7 1.5 7.8-5.3 8.8-7.5 1.7-3.8 6.1-21.6 6.9-26.2.8-5-.5-8.8-4.3-12.2l-5.1 10.9c-1.4 3.6-9.4 6.1-10.2 8.8-1.2 3.9.5 24.2 3.9 26.2M917 1563c-1.9-2.2-11.8 12.5-12.4 14.1-1.7 4.6-3 25.2-2.4 30.3.9 7.9 5.6 18 11.4 23.6 1.4-8.8 5-18.6 5.5-27.5.8-13.1-3.7-27.1-2-40.5Zm218 68c5.3-3.9 9.4-12.4 10.8-18.7 1.5-7 .8-27.4-1.2-34.3-.6-1.9-10.4-17.4-12.5-15 1.5 13.8-3.1 28-2 41.5.7 8.7 4.6 17.6 5.1 26.5zm-186-62c-2.4-2-8.2 6.4-9.4 8.1-7.7 11.1-15.4 39-8 50.8 2 3.2 16 15.2 19.5 16.5 5.6 2.2 6.5-1.9 7-6.9 2.4-23.1-3.5-46.4-9-68.5Zm151 0c-1.5 11-6.9 22.6-8 33.5-.9 9-2 26.3-1 35 .2 1.9 1.7 8 3.6 8.4 2.4.6 18.8-13.3 20.9-15.9 8.3-10.5 3.8-32.3-1-44-1.2-2.9-11-19.9-14.5-17m-82 44c-3.5 0-6.1 2.5-9.6 2.9-12.7 1.6-29.1-13.9-41.4-16.9v24.5c0 .6 3.2 8.2 4.1 8.9 6.5 5.2 18.9-.4 24.4 5.6 2.6 2.9 4.3 10.3 10.6 5.5 1.1-.8 11.9-13.1 11.9-14.1v-16.5Z" class="outline" data-original-prefix="outline"/><path id="outline-mouth2" class="outline"  fill="#000" d="M1122 1332c-.2 0 .2 1.6 0 1.9-1 .8-8.1-5.8-10.2-7.1-10-6.1-19.8-8.3-31.2-9.8-2.9-.4-6.9.7-9.5-.5-1.5-.8-4.5-7.4-6.5-9.5-7.8-8.7-15.6-10.2-25.8-13-1.1-.3-.6-1.9-.7-2 3.1-3.8 16.2-9.3 20.8-9.8 7.9-.9 5.5 4.4 6.5 9.1 2.3 10.7 9.3 19.6 21.3 18.8 5.1-.3 5.6-4 7.9-4.1 1.4 0 6.6 2.9 8.2 3.8 9.4 5.2 15 12.5 19.3 22.2z" class="outline" data-original-prefix="outline"/><path id="outline-mouth1" class="outline"  fill="#000" d="M1011 1292s.4 1.7-.7 2c-10.2 2.8-17.4 4.1-25.4 12.5-2 2.1-5.6 9.2-7.2 9.9-3.4 1.4-13.5 1-18.1 1.8-12.5 2.1-23.6 8.7-33.1 16.9.2-.9-.5-2.8-.5-3 .8-2.7 8.7-13.3 11-15.6 2.5-2.4 14.7-10.5 17.6-10.4 2.7 0 3 5.1 11.9 3.9 10-1.3 16.2-10.1 17.5-19.6.4-2.6-2.4-6.7 2.8-8.2 3.5-1 21.7 5.6 24.3 9.8Z" class="outline" data-original-prefix="outline"/></g><g id="04_Eyes" data-trait="cracked-glare"><path id="fill-eyes-main" class="fill"  fill="#fff" d="M1337.7 1024.3c1.5.9 16.3 27.2 18.4 31.1 9.7 17.9 18.3 36.1 23.2 55.8.9 3.7 4.9 7.3-.6 11.5-2.1 1.6-13.8 5.7-17.7 7.8-9.3 4.9-18.6 9.9-27.5 15.5-1.5 42.9-10.8 81-47.2 106.8-43.1 30.5-110 44.9-161.5 32.9-13.7-3.2-24.1-9.2-39.1-3.9-11.9-10.5-25.8-18.9-37.7-29.3-7.3-6.4-13-14.8-20.5-20.5-2.7 1.3-6.1-.6-8.4.4-1.8.8-13.7 15-17 18.1-12.4 11.4-27.2 20.1-39.7 31.3-3.4.3-6.4-1.6-9.8-1.8-14-1.1-26.2 5.6-40.2 7.8-49.6 8.1-115.4-7.3-155.2-38.4-33-25.8-41.6-63-42.6-103.4-9.7-5.8-19.6-11.2-29.5-16.5-4.4-2.4-15.9-6.2-18.1-9.9-3.2-5.6 1.4-5.9 2.8-9.3 1.1-2.6.9-6.7 2.1-9.9 7.4-20.6 26-58.6 39.2-75.6.7-.9 2.4-.4 3.1-1.3 18-23.8 37.4-50.3 58.9-70.8 47.7-45.5 107.2-80.6 171.5-96.5 1.2 6.7 0 13.7.5 20.5.2 2.5 1.1 13.2 2.5 13.5 13.6-6.2 27.7-11.4 41.2-17.8 5.5-2.6 16.8-7.4 20.7-11.3 3.7-3.5 5.6-9.9 8.1-12.9.7-.8 1-.8 2-1 5.4-1.1 22.7-.3 29 0 75 4.2 151.6 41 208 89 24.6 21 44.1 44.7 64.5 69.5 2.9 3.5 10.4 15.7 12.5 17.5 1.6 1.3 3.2.6 4.2 1.3v-.2Z" class="fill" data-original-prefix="fill"/><g id="eyes-shading"><path id="outline-shading-eyes4" class="outline"  fill="#000" d="M1162 948c-.9-2.4-8-16-7-17 2.3-2.3 6.4 5.9 7.8 7 5.1 4.3 14.7 7.8 19.8 13 3.3-.2.4-1-.2-1.7-2.1-2.5-13.5-17.1-11.3-19.3 3.4-.3 6.3 3.6 8.5 6 9.4 10.1 17 24.3 26 34 6.1 6.5 12.7 8.5 15.3 18.7s3.3 22 6.3 32.2c6.7-5.9 9.3-18.8 7.8-27.3-1.9-10.2-19-36-25.5-45.5-12.7-18.2-31-40.9-48.2-54.8-16.9-13.7-37.3-22-55-34.5 0-.8-.4-1.9.5-2 4.3-.4 27.2 7.3 32.7 9.3 62.9 22.6 131.1 72.4 171.2 125.8 2.6 3.5 12.6 16.1 12.6 19.3s-.5 2.1-.9 2.9c-2.2 3.5-25.8 8.9-31.3 10.9-5.9 2.2-11.9 6-17.8 8.2-18.7 7.1-37.7 13.3-56 21.6 10.7 8.6 23.8 13.1 35.5 20l10.5 49c2 .3 3.4-.7 5-1.5 10.9-5 50.2-32.7 57.6-33.2 7 2.6 24.9-1.5 30.4 1.2 3.4 1.6 10.8 24 15.1 28.9 1.3 1.4 6.3 2.7 4.9 4.6-.3.4-7.4 2.6-9 3.5-7.9 4.1-26.3 12.7-32.3 17.7-2.4 1.9-.9 4.2-2.2 5-21.5 6.6-43.8 11.4-65.1 18.7-30.8 10.4-65.4 37.5-90.7 58.3-5.9 4.9-12.5 12.9-18.2 16.8-9.2 6.3-50 21.4-53.4 25.6-.8 1-.5 3-1.7 3.5-3.1 1.4-7.1.6-10.3 0 3.1 7.6-1.1 9.4-7.9 8.5-18.6-14.2-36.3-27.5-52.6-44.5-1.7-1.8-2.2-4.7-5-5-.7 0-8 .3-8.4.4-1.5.7-15.5 16.9-19 20-11.7 10.4-25.4 18.5-37.1 29-6.9.9-11-.9-8-8.5-2.7.6-8.6 1.4-10.8-.2-.7-.5-.8-2.7-1.7-3.7-4.5-5.1-43.3-18.4-53.4-25.6-3.7-2.6-7-7.4-10.6-10.4-22.3-18.7-49.4-40.2-74.8-54.2-26.7-14.6-59.2-19.2-88-28.8l-2.2-5-41.4-21.1c-.3-3.1 3.1-2.5 4.9-4.6 3.6-4.4 11.6-27.2 15.1-28.9l33.3-.2c21.4 13.4 44.2 24.8 65.3 38.7 29.3 19.3 54.9 42.4 85.6 61.4 16.2 10.1 68.9 42.5 85.4 42.6 6.8 0 19.4-3 26.5-4.5 5-1 21.5-6.6 24.5-6.4 2.2 0 6.6 4.2 11.9 4 4 0 9.4-4.1 11.8-3.9 14.8 1.5 32.8 10.6 49.4 10.8 11.2 0 29.8-10.4 40-15.8 43.9-23 85.1-51.3 123.4-82.6 1.9-2.8-1.1-7-1.8-10.3-2.9-13.7-4.7-27.6-6.3-41.5l-34.5-20.4c-2.2 2.5-4.4.6-6.5 1.2-14.5 4.2-48.8 30-61.9 40.1-29 22.3-41.9 38.7-62.3 68.7-5.3 7.8-6.4 14-14.3 20.7-2.1 1.8-21.1 15.2-22.4 15.6-5.3 1.7-10.6-.4-15.5-.5-4.2 0-9.3 1.8-14.1.9-2.1-.4-25.7-18.2-28-21-4.1-4.9-6.1-11.1-9.7-16.3-18.5-27.1-30.9-43.6-56.9-64.1-49.3-38.7-98.6-60.2-156.9-82.1-5.4-2-30.8-8-32.5-11.5-2-4.2 2.8-9.5 5.1-12.9 27.7-40.2 71.9-78.2 113.7-103.3 30.1-18 63.1-33.9 97.7-40.8-15.6 15-36.5 21.6-53.5 35-23.4 18.5-51.5 55-65.7 81.3-8.1 14.9-14.6 24.7-6.4 41.7s19.1 28 26.6 33.4c15.4 10.9 44.6 22.4 62.6 32.4s34.6 19.8 50.9 31.1c10.6 11.9 32.8 64.7 44.2 70.8 9.8 5.3 13-1 18.5 12.5 2.2 5.5-.3 9 7.2 7.8.8 0 2.5-12.4 6.5-15.6 4.5-3.6 12.6-1.6 18.5-8.5 7.4-8.7 17.3-28.5 23.8-39.2 11.3-19 10.2-24.3 29.9-37.1 29.6-19.3 62.6-34.8 93.9-51.1 1.7-1.6 6.8-20 7-23.1.4-5.3-3.8-15.7-5.7-21.1-1-2.9-7.4-19.9-8.5-21-.8-.8-5.8-2.6-7.7-3.8-5.2-3.4-10.3-7-15.4-10.6-6.7-4.8-18.7-16.5-24.4-19.6-3.6-1.9-24.4-7.5-28.8-8.2-11.3-1.7-18.1 2.1-28.5-5.4-.4-.3-1.7.3-1.8.2-.6-.6-4-10.6-4.2-12.3-1.1-11.2 4.6-25 4.9-36.1s-4.6-23.3-4.9-32.9c-.2-4.1 2.2-6.4 5.1-3 3.2 3.7 6.7 25.5 6.9 31.1.2 4.6-1.5 12-1 14.9.5 3.2 7.1 6.5 8 11.1 1.4 7.4-2.2 15.2-.5 22.5l62.6 13.9z" class="shading" data-original-prefix="shading" opacity=".2"/><path id="outline-shading-eyes3" class="outline"  fill="#000" d="m1029 847-10.6 15.9c-14.3 22.8-42.9 26-65.4 37.6-5.2 2.7-23.1 13.1-25.4 17.6-1 1.9-2.6 12.2-2.4 14.2.9 6.7 12.7 23.8 14.4 32.7 1.2 6.2-9.5 30.3-12.8 37.4-6 13-17 35.9-24.7 47.3-.5.8-2 3.5-3.2 2.3-.8-.8 6.3-18.8 7.2-21.2 5.7-15.5 16.3-35.6 20.1-50.9 1.5-6.1-4.7-30.6-7.3-37.3-.4-1-.3-1.9-1.5-2.5-15.4 11.8-37.4 21-41.5 42-1.7.2-1.1-2.4-1-3.5.5-5.9 1.5-14.9 5.3-19.2 5.3-5.8 32.5-24.1 34.4-27.6.7-1.2 0-3.5.4-5 5.4-16.9 13-36.1 30.3-43.8l.5 6c4.5 1.5 6.6-2.5 9.1-3.5 14.2-5.8 47-16.5 56.4-27.6 1.5-1.8 6.2-10.4 6.8-10.7 1.8-1 8.2.3 10.8-.2Z" class="shading" data-original-prefix="shading" opacity=".2"/><path id="outline-shading-eyes2" class="outline"  fill="#000" d="M945 856c.7.3-.6 1.7-2 1-.7-.3.6-1.7 2-1" class="shading" data-original-prefix="shading" opacity=".2"/><path id="outline-shading-eyes1" class="outline"  fill="#000" d="M1105 856c.7.3-.6 1.7-2 1-.7-.3.6-1.7 2-1" class="shading" data-original-prefix="shading" opacity=".2"/></g><path id="outline-eyes4" class="outline"  fill="#000" d="M696 1136c.7 5.8-1.5 11.4-2.5 17-4.5.4-20.3-7.8-25.8-9.2-13.5-3.2-24.5 3.8-22.5-17.2 2.8-30.5 21.2-75.5 37.5-101.5 4.5-7.2 18.9-29.4 26.4-31.7 3.1-.9 7.2 1.5 8.9.5.4-.3 3.7-6.5 5.2-8.3 46.5-56.9 109-107.6 179.2-131.8 16.1-5.5 33.7-11.2 50.8-10.7l.5 35c12.2-6 29.2-8 40.8-14.2 9.5-5 16.6-18.5 24-26.2 9.4 0 18.8-.9 28.3-.7 41.1 1 89.8 10.8 127.1 27.9 53.1 24.2 120.9 76.7 154.2 124.8 1.3 1.9 2 5.1 2.2 5.3.4.4 6.7-2.3 9.2-1.8 7.2 1.3 22.8 25.1 27.2 31.9 15.2 24.3 36.2 75 37.6 103.4.9 19.3-11.2 12.3-23.5 15.6-7.2 1.9-16.9 7.2-24.2 8.8-2.1.5-1.1-.2-1.4-1.4-1.1-5.1-1.6-10.5-3-15.5.2-.3-.6-1.8.7-3.1 3.8-3.9 21.7-9.2 23.5-11.4 1-1.3 0-8.7-.2-10.9-2.3-16.2-22.8-54-32.1-68.9-2.4-3.9-8.1-14.2-12.3-14.7-10.6-1.4-32.9.5-43.9 2.2-6.6 1-13.2 2.9-19.6 4.9-.3-1.8 0-2.2 1-3.4 1.5-1.7 7.4-5.7 9.6-7.4 8.9-6.4 18.8-11.6 28.4-16.8-2.3-12.6-9.8-23.5-18.1-32.9-34.1-38.6-88.5-67.5-134-91-7.3-3.8-45.5-23.1-51.1-19.1-1 4.9-3.1 12.3-3 17 0 6.2 15.2 49.4 18.8 55.2 1.6 2.6 4.4 5.6 7.2 6.8 11.2 4.7 29.4 5.6 41.6 10.3 2 .8.7 2.3 2.3 2.2l-1.2-3.3L1152 928h19.5c4.1 0 1.5 3.9 1.7 5.4.4 2.3 19.1 20.1 22.3 23.6 2.9 3.2 21.5 23.4 22 25 1.4 4 1.9 12.9 2.4 17.5.7 6.5 2.7 22.4 2 28-.6 5.3-14.1 26.7-10.9 30.4 1.5.2 2.9.5 4.3 1.2 5.1 2.6 35.4 18.5 36.4 21.6.6 5.6 0 11.2.2 16.8.7 12.2 2.5 23.2 7.2 34.8 1.3 3.1 6.6 11.4 6.8 13.3.3 4.6-14.8 22.6-13 24.4 23.9-9.5 47.9-19.2 72.8-25.7 4.6-1.2 11.4-1.1 15.2-2.3 2.8 5.2 2.2 12.1 3.3 18.2.6 3.5 4.7 16.4 4.5 18.2-.2 2.1-10.4 14.9-8.8 16.6s6.7-9 8.4-10.1c1.4-.9 5-2.2 4.6.6-3.8 13.2-6.6 27.2-10.7 40.3-2.1 6.7-4.7 14.6-8.5 20.5-3.2 5.1-28 32.1-32.4 34.6-10.4 5.7-32.1 6.7-44.8 10.2-5 1.4-9.6 3.6-14.6 4.9-.3 1.7 2.5 1.1 3.4.9 2.9-.6 5.4-2.5 8.7-3.3 6.9-1.6 19.4-2.5 26.4-1.7 5.7.7-3.1 3.3-4.2 3.8-30.5 15-55.3 21.5-89.8 22.2-7.9.2-35.5-.4-41.5-3.6-4.1-2.2-15-13.8-20.2-17.8-4.5-3.4-14.5-11.1-19.4-12.6-2.2-.6-1.7 2-1.4 3.4.5 3 2.7 3.9 2.9 6.6-15.5 1.3-22.9-5.6-31.5-17.1-.7-1-.3-2.6-.5-2.9 2.1.5 2.3-1.1 2.9-2.6 6.6-18.5-9.7-26-20.9-36.4 10 1.4 19.3 5.8 29 8.5 29.5 8.3 56.5 6.6 81.9-12.1 3.5-2.6 7.1-6.7 10.6-9.4 17.9-13.4 28.2-18 39-39 2.6-4.9 4.1-11.9 6.6-16.4 3.1-5.5 11.4-11.2 13.4-17.6 2.9-9.2 4.6-39.3 4.5-49.6 0-4.2-1.3-14.9-4.1-17.9-3.2-3.3-25.4-15.2-30.2-16.8-1.7-.6-2.9-1.3-4.7-.3-24.8 13.2-47.5 29-69.4 46.6-7.6 6.1-17.7 13.8-24.5 20.5-14.5 14.1-23.5 38.2-40 51.5 2.4-8.8 5.1-17.7 8.2-26.2 3.6-9.8 12.4-34.7 17.7-42.3 1.1-1.6 3.6-3.7 5.3-4.7 12.5-7.4 31.6-13.7 45.4-20.6 14.9-7.5 29.1-16.3 43.7-24.3 7.2-4 13.6-3.4 16.2-11.8 1.5-4.7 5.4-22.2 5.3-26.5 0-5.6-10.5-34.7-13.6-40.2-.9-1.6-1.4-2.1-2.9-3.1-6-4.4-22.2-11.1-29.7-14.3-17.9-7.6-35.3-13-54.7-16.3-8.2-1.4-16.7-1.7-24.5-3.5-.7-.8-2.2-7.2-2.3-8.5-.3-10.6 5.1-27.2 5.8-39 .6-9.6.3-31-2.1-39.9-.4-1.4-.5-2.3-1.9-3-3.3-1.7-26.2-4.1-31.5-4.5-10.2-.8-20.6-1.2-30.8-.8-7 4.8-11.4 14-18.4 18.6-14.3 9.5-40.4 15.6-56.2 24.8-2.7 1.5-13.8 10.2-13.9 12.7l9.7 68.2-38.5 66.5c-1.3-.7 0-2.7.3-3.7 8.7-22.3 17.7-44.5 26.1-66.9.5-15.2-6.8-29.2-10.9-43.4l-2.5 1c-8.6 11.3-34.6 23-39.2 35.8-2.1 5.8-2.9 14.1-4.3 20.2-1.4 1.8-1.8-.2-2-1.5-1-6.6.3-17.3 2.2-23.8 1.6-5.3 29.8-34.4 35.8-41.3 1.7-1.9 4.1-.5 2.6-4.5-.8-2-3.6-3.4-2.1-5.9l28.6-37.5.9-8.6c-3.2-3.2-42.6 13.1-48.7 15.8-38.4 17.3-124.2 72.3-144.5 108.5-1.5 2.6-6.4 13-6.7 15.4-.2 1.4-.2 1.7.8 2.7 1.1 1.2 12.1 6.3 14.9 8.1 5.9 3.7 12.6 7.6 18 12 1.4 1.2 7.9 5.5 6.1 7.4-.7.8-17.2-4.5-20.5-5-5.7-.9-15.1-1.8-21-2.1-7.9-.4-16 .2-23.8.2-3.8 1.2-24.2 38.7-27.2 44.8-4.5 9.1-13.8 28.4-15.3 37.7-.2 1.3-1.1 10.2-1 10.7.6 2.4 18.2 8.3 21.8 11.2 2.1 1.7 1.8 2.1 2 4.5zm420-195-4.2-8.3L1097 912l-3 26c7.5-.7 14.7 2 22 3m34 314c19.1 41.5 80.6 27.7 74.9-20.4-.4-3.4-5.1-16.9-8.5-17.5-.4 0-6.7 3.5-6.9 3.9-1 1.5 3.5 14.9 3.6 18.6.4 19.7-26.3 35-41.1 20-2.4-2.5-4.7-9.2-8.5-9.6s-9.2 5.4-13.5 5" class="outline" data-original-prefix="outline"/><path id="outline-eyes3" class="outline"  fill="#000" d="M707 1142c4 1.2 11.2 1 16.2 2.3 37.9 9.9 74 24.4 106.1 46.9 34 23.8 56 53.8 100.3 57.7 20.9 1.8 42.6-9.4 62.4-14.9.5 2.1-1.1 2.3-2.3 3.2-11.4 9-22.2 14.4-19.7 31.2.5 3.4 2.3 3.4 2.9 4.6.5.9 1 2.9.5 4s-13.2 13.7-14.6 14.5c-2 1-14.9 3.5-15.9 2.6l2-9c-2.5-2.4-17.2 8.6-19.9 10.6-6.5 4.9-19.3 18.9-25.8 20.2-22.9 4.5-70.5 1-93.5-5-13.4-3.5-25.6-12.7-38.8-16.7-1.4-1.4 0-1.8 1.5-2 3-.4 7.8 0 11 0 3.7.2 10.3.7 13.8 1.2 4.1.7 8.6 3.8 13.5 4.5 1.1.2 3.5 1.1 3.2-.7-5.7-1.6-11.1-4.1-16.8-5.7-12.7-3.5-35.5-4.9-45.6-10.4-3.3-1.8-29.9-30.5-32.5-34.6-3.8-5.9-6.3-13.8-8.5-20.5-2.5-8.1-10.3-32.3-10.7-39.3-.2-3.1.9-3.6 4-2 1.5.7 5.9 8.5 7.4 10.6.4.5 1.1 3.7 2.6 1.9s-9.5-16.9-9.8-18.7c-.2-1 3.9-16 4.4-19.2 1-5.7 1.2-11.5 2.3-17.2h.3Zm191 113c-4.4 0-10.5-5.9-14.3-4.9-3.4.9-6.8 10.2-13 13-16.2 7.3-35.7-6.3-35.6-23.6 0-3.7 4.3-17.1 3.4-18.6-.5-.8-5.9-4.1-6.9-3.9-3.5.7-8.1 14-8.5 17.5-5.7 48.4 55.8 61.8 74.9 20.4Z" class="outline" data-original-prefix="outline"/><path id="outline-eyes2" class="outline"  fill="#000" d="M998 1254c1.2-6.3 7.5-11.1 10.8-16.7 5.1-8.5 10.6-21.5 8.2-31.3 6 1.8 8.5 2.6 14.5 0-1.4 12 3.8 23.9 10.3 33.7 4.4 6.7 5.8 7.8 9.2 15.3-3.3 0-4 4.3-7 4-1.3-5.8-7.9-7.8-12-12.5-1.2-1.4-2.9-3.6-3.9-5.1-.9-1.3-.8-4.1-1.7-4.4-5.5-1.6-6 5.6-9.4 9.5-3.8 4.4-11.3 6.9-12 12.5-1.4 1.3-5.2-4.4-7-5" class="outline" data-original-prefix="outline"/><path id="outline-eyes1" class="outline"  fill="#000" d="M949.7 1114.3c10.3 19.7 25.2 44.8 30.1 66.4.3 1.5.8 2.7-1.3 2.3-5.9-7.1-11.8-14.2-17.3-21.7s-12.3-20.6-18.1-26.9c-23.1-24.8-61-45.4-87.9-66.1-1.2-.9-9.5-7-8.1-8.4 15.8 4.1 28.3 15.3 42.3 23.2 19.6 11 40.4 20.7 60.4 31.1h-.1Z" class="outline" data-original-prefix="outline"/><path id="fill-eyes-eye2" class="fill"  fill="#fff" d="M1150 1255c4.3.4 9.7-5.4 13.5-5s6.1 7.1 8.5 9.6c14.8 15 41.4-.3 41.1-20 0-3.7-4.6-17-3.6-18.6.3-.4 6.5-4 6.9-3.9 3.4.6 8.1 14.1 8.5 17.5 5.7 48.1-55.8 61.9-74.9 20.4" class="fill" data-original-prefix="fill"/><path id="fill-eyes-eye1" class="fill"  fill="#fff" d="M898 1255c-19.1 41.4-80.6 28-74.9-20.4.4-3.5 5-16.8 8.5-17.5 1-.2 6.4 3.1 6.9 3.9.9 1.4-3.4 14.9-3.4 18.6-.2 17.2 19.3 30.9 35.6 23.6 6.3-2.8 9.7-12.1 13-13 3.8-1 9.9 4.9 14.3 4.9Z" class="fill" data-original-prefix="fill"/></g><g id="05_Right Ear" data-trait="cracked"><path id="fill-ear-rt" class="fill"  fill="#fff" d="M1722.4 186.9c.8.8 1.1 2.1 1.1 3.2l-8.1 121.8c-8.6 28.8-25.9 53-29.7 83.3s-3.9 64.1-9.3 93.7c-7.4 41.1-28.4 85.6-36.9 127.1l-66.8 103.2c-30.7 24.5-60.3 54-91.5 77.5-13.1 9.9-38.1 22.1-53.4 29.5-4.5 2.2-11.8 7-16.6 3.5s-8.7-32.4-11.9-39.1c-15.4 14.6-30.8 29.2-45 45-2.4 2.6-12.9 13.8-13.3 15.8-.5 7.8 4.3 26.8 1.3 33.2-2.3 5.1-22 16.9-22.5 21.5l15.9 43.8-51.9 35.7c-2.6 3-1.2-1.7-2.6 2.2-17.5-3.9-23.5-9.2-38.8-18.4-19.3-11.6-43.7-28-59.2-43.8-1.9-2-4.8-3.1-6.5-5.5-7-9.5-10.9-33.7-16.9-45 16.2-57.7 47.1-109 71.8-163.1 9.4-65.7 14-132.5 25.2-197.8l96.3-119.7 130.6-105.4L1705.6 178l16.7 8.8h.1Z" class="fill" data-original-prefix="fill"/><path id="outline-shading-ear-rt" class="outline"  fill="#000" d="M1670 478.5c0 .2-1.5 2-2 1-4.6-2.8-23.5-18.9-27.3-18.4-2.3.3-10.5 6.3-13.1 8-11.6 7.9-21.9 17.5-33.1 25.9-1.7 3.7-1.7 7.1-.4 10.8 6.7 1.4 18.8-4.7 17.7 6.4l-23.3 40.7c-2.5.4-1.5-1.8-1.2-3.2.8-4.7 8.2-23.6 7.7-26.2-.2-.8-1.2-1.4-2.2-1.4-3.3.2-8.7 4-12.6 3.9-.8.9 1.8 12 1.7 14.4-.2 7.7-7.3 19-10.3 26.5-3.3 8.5-8.4 19.1-6.5 28 1.4.2 2.7 0 4-.5 12-4.1 33.5-43.7 40.1-55.9 4.8-8.9 14.3-32.5 19.3-38.7.4-.5 1.2-1.4 1.5-1-12.8 55.3-34.4 111.3-63.2 160.3-7.3 12.4-22.6 38.5-31.8 48.2-6 6.3-23.1 17-31.1 21.9-27.2 17-57.6 30.4-89.9 33.6l14.9 35.4c2.5 3.2 21.7-5.9 25.5-7.5 28.7-12.7 69.6-35.6 94.6-54.4 5.6-4.2 8.5-11 6.6 2.6-10.7 7.5-19.9 16.9-30 25-10.6 8.5-24.1 19.3-35.1 26.9-19.5 13.4-44.2 22.7-64.3 35.7-2.6.7-6.3 1.4-8-1.1l-9.1-33.9-67.5 68.5c-1.5 3.5 7.6 16 5 21l-27.4 24.7c5 16.7 14.5 32 18.9 48.8l-1.1 2-44.3 28.7c-1.3.7-2.7 1.6-4.3 1.8-4.9.6-23-6.1-28.3-8.5-21.2-9.4-42.2-23.3-60.1-38-3.1-2.5-20-18.6-20-21s2.2-2.6 2.8-4.2c1.1-3.1 1.1-7.1 2.5-10.5 4.2-10.5 32.7-39 41.8-50.2 58.9-72.9 101.1-158.1 128.3-247.7 4.3-14 8.8-40.2 14.2-51.8 3-6.3 11.4-12.3 14.7-18.8 22.1.5 44.5 6.1 65.8 11.8.9 1.2-5.4 14.4-5.9 17.5-1.3 9.1.4 20.2.9 29.4l19-47c4.9 3.9 5 10.1 12.5 11 8.4 1 31.8-3.8 40.3-6.7 2.5-.8 6.8-1.9 4.7-5.3-17.2-2.1-36.8 9.9-52.5 1.3-.2-.9-.2-11 0-11.7.3-1.1 2.7-.2 3.9-2.2 4.3-7.1 4.3-42.4 5.2-52.9.8-9.6 2.2-19.4 3-29 .8-10.5-2.6-12.2 5-21 8.7-10.2 35.9-34.5 47.3-40.6 3.1-1.7 7.8-.6 6.7-4.8-3.6-.6-5.7.5-8.7 1.8-16.1 7.3-32.9 26.4-48 34-1.6.8-3.6 1.9-5.4.7-.6-.4-4.6-12.8-4.8-14.3-.5-3.8 5.9-11.6 8-15.5 2.2-4.1 11.5-21.6 10.7-25s-25.6-16.5-30.4-21.7c-1.9-2-10.4-14.8-11.1-17-.7-2.4-.4-4 1.1-6l40.4-26.6c22.6.2 42.9-1.7 64-10 10.6-4.2 30.2-16.4 39.8-18.2 11-2.1 25.7 6.5 35.6 10.5 15.2-9.6 31.4-23.8 47.6-31.3 3.1-1.4 4-2.6 6.5.6 3.2 4 0 3.9-1.2 6.7-3.4 7.9-5.5 16.3-8.8 24.2-12.1 29.2-28.7 57.7-38 88-2.3 7.4-3.4 17.4-6 24-4.6 11.8-18.9 25-23.5 36.5-1.6 4.1-6.1 25-6 29 0 .7-.3 1.6.5 1.5 22.9-20 44.9-41.2 69.1-60 3.1-2.4 6.8-5.6 10.5-7v18.5c0 2.6-32.8 27.9-37 32 10.4.7 16.9 7.4 23.1 14.9.5.6 1.9.5 1.9.6 0 5.1 1 17.5 0 21.5ZM1606 296c-2.4-.2-4.7 0-7.1.4-16.5 2.9-37.6 9.5-53.7 14.3-5 1.5-10.2 2.2-15.2 3.8-11.7 23.6-23.4 47.3-34 71.5l20.3-12.2c27.3-9.4 38.9-37.6 60.2-55.9 8.3-7.1 18.8-12.8 27.6-19.4 1.1-.8 2.5 0 1.9-2.6Zm-86 17-46 3.5c-1.7 1.4-8.4 4.7-8.8 6.2s2.6 12.1 3.7 14c2.2 4 14 11.6 18.5 14.5 2.2 1.4 9.4 6.9 11.6 5.6l21.1-43.9Zm-138.5 421v1c.7-.3.7-.7 0-1m-.5 2c-1.4-1.8-4.5 5-4.7 5.8-5.5 16.6-6.8 40.6-14.1 55.9-7.6 15.9-25.4 34.3-35 50-.6 1-1.9 3.1-1.7 4.3 13.1-10.1 27.2-19.4 38.9-31 2.6-18.2 9.1-35.8 12.3-53.7 1.8-10.3 1.9-21 4.3-31.2Zm2 67c3.7-2.6 12.4-12.4 13-16.6.5-3.8-4.9-11.6-6.5-15.4zm-48.1 77.9c.5-.8-7-16.5-9.4-15.9-9.2 11.1-19.3 21.5-28.5 32.5-5.4 6.5-22 25-22.9 32.1-.5 3.6.2 7.3 0 10.9-.8 8.8-1.8 17.7-3 26.5l39.5-35c1-6.2-8.3-23.1-6-27.9L1335 881Z" class="shading" data-original-prefix="shading" opacity=".2"/><path id="outline-ear-rt" class="outline"  fill="#000" d="M1204 941c-.6 2-3.1 0-4-.5-6-3.3-16.4-8.4-21-13-11.6-11.9-20.6-32.5-31.5-45.5-1-2.9-.7-7.3-.5-10.5 1-20.3 12.5-34.3 20.8-52.2 6.3-13.5 12.6-35.7 19.9-47 3.2-4.9 8.4-9.8 12-15 29.7-42.8 37.8-119.3 42.2-170.8 1.8-21.4.9-43.9 3-65 .7-7 2.4-6.2 5.4-10.6 32.8-49.1 70.5-98.1 110.1-141.9 13.9-15.4 33.5-38.4 49.2-50.8 52.6-41.5 136.1-85.3 198.3-110.6 29.7-12.1 85.4-35.4 115.8-38.3 8.5-.8 7.8 2.7 9.5 9.9 3.6 14.9 2.9 30.5 2.7 45.3-.4 32-1.4 78.8-8.3 109.7-3.7 16.4-15.8 23.2-22.2 37.8-10.4 23.8-20.5 86.5-15.4 111.4 3 14.6 5.8 10.4 2.4 27.6-12.4 64-44 134.2-79.1 188.9-30.9 48.2-70.1 80.8-118.5 110.5-28.7 17.6-59.7 34.8-91.9 44.6.3-14.2-.5-28.4 0-42.5 0-3 3.2-9.9-1-11-14.8 16.6-30.3 32.5-43.8 50.2-.6 2.2 2 8.2 2.8 10.8 1.5 4.5 9.2 20.3 7.6 23.5-1 2-28.2 11.4-31.4 16.7 6 20.3 14.5 39.6 22.7 59.1.5 4.8-7.5 12.2-11.2 14.3-2.2 1.2-4.5.9-6.9 2.1-5.5 2.6-9.7 9.7-15.6 12.4-22.6 10.3-50.5-2.5-71.7-12.3-4-1.9-11.3-4.7-12.3-9.2 2.4 1.1 5.6.7 8 1.5 26.9 9.2 36.4 9.3 61.7-4.3 3.1-1.7 18.6-11.5 19.2-13.9-5.6-15.9-10.9-32.1-19.7-46.6.2-2.7 11.1-11.8 13.8-14.2 2.5-2.2 16.3-11.8 16.9-12.7.6-1.1-1.1-6-1.7-7.5-1.8-4.9-9.1-13.1-7.8-17.3l32-33c2.3-18.2 9.3-35.8 12.3-53.7.9-5.2.5-11.6 1.4-16.6 6.7-39.1 32.5-73.7 53.7-106.4-3.1-10.5-18.5-34.2-29.3-19.2-7.7 10.7-16.6 48.7-17.6 62.4-.4 5 1.2 17.3-.9 20.8-.9 1.6-11.5 10.3-14.1 13.2-25 27.8-50.2 64.5-69.2 96.8-17.2 29.4-56.3 96-51.7 129.1.7 4.7 4.3 9.8 4.9 14.6-2.1 2.1-27.1-18.8-28.5-22-1.7-3.9.9-16.6 1.5-21.5.3-2.9-.4-6 0-8.9.7-4.5 15.4-22.3 19.2-27.8 39.8-58.6 57.4-124.9 103.3-180.7 11.8-14.4 20-26.2 25.8-44.2 5.6-17.5 15.4-63 12.5-80-.7-3.9-10.8-27.6-9.8-28.7l52 28c16.2-44.2 27.9-91.8 22.2-139.2 9.1-12.4 18-25 25.6-38.5 2.5-4.5 12.1-21.1 12.3-24.8s-4.6-8.1-7.6-10.5c-12.1-9.7-30.2-11.4-31.5-31-.7-.6-12.7 8.1-14.3 9.2-44 31.1-77.8 64.6-111.7 106.3-15.7 19.3-36.9 44.4-50.5 64.5-6.4 9.5-10.1 25.9-11.6 37.4-6.4 50-5.5 104.8-13.1 153.9-2.9 18.9-27.5 67.5-37 87-6.6 13.4-16.1 27.1-22.1 40-6.3 13.7-9 29.6-15.7 43.3-3.2 23.1 13.4 51.4 28.9 67.4v-.3Zm515-753c-30.2 9.5-58.8 22.3-87 36.4-25.9 13-53.6 27.8-78.6 42.4-19.8 11.5-38.5 24.8-58.3 36.2.7 1.8 5.9 1.1 7.5 1 23.2-1.4 56-9.1 77.1-18.9 4.3-2 15.9-9.7 18.9-10.1 11.8-1.7 21.1 15.3 28.8 13.8 1.7-.3 13.6-13.8 16.7-16.2 5.7-4.3 12.8-6.4 18.8-10.2 11-6.8 19-19 32.1-22.4l-22.5 39c-13.1 10-28 17.6-39.9 29.2-3 30.4 1.3 60.6 1.1 91-8 15.5-28.8 23.4-34.1 40.9-1.1 3.5-5.8 33.5-4.7 34.8 3.9-1.3 7.9-4.8 11-7.5 13.4-11.6 26.8-26.6 40-39 8.7-8.2 19.9-16.4 28.1-25 4.6-4.9 12.1-40.9 15.9-51.1 6.8-18.1 16.8-28.7 20.7-48.3 2.5-12.5 4.6-27.1 6.2-39.9 3.1-25.3 4.5-50.9 2.1-76.4v.3Zm-103 112c-5.5-.8-9.5-5.3-15.4-3.9-15.4 6.5-35.4 7-50.6 12.4s-41.3 48-47.9 63.1c-4 9.2-6.3 19.6-12.1 28.4 13.1-4.6 33.8-26 47.5-25 2.4.2 8.9 3.3 9.4 3 .7-.5 7.1-11.6 8.7-13.8 17.6-23.9 39.4-43.3 60.4-64.1Zm-96 13-46.6 3.9c-1.8.5-12.4 7-13 8.1-1.7 3.4 4.2 15.1 7 18 2.4 2.5 15.6 12.7 18.6 14.4 14.4 8.2 19.7-14.4 24.1-23.8 1.2-2.6 10.7-19.8 9.8-20.6Zm57 208c-2.3-22.7-1-46.6 3.5-69 1.9-9.6 5.7-27.6 10.3-35.7 6.1-10.7 27-21.4 29-32l-.8-63.3c-37 35.4-65 84.7-72.7 135.8-3.9 26-5.3 57.6 10.6 79.9v1.6c-21.4 26.5-33.1 58.8-41.6 91.5-2.1 7.9-9.6 50.2-12.3 52.7-19.4 17.7-41.7 34.1-65.3 46.7-2.2 1.2-14.6 7.8-15.7 6.8 3.2-7 7-13.5 9.7-20.8 6.7-17.3 8.5-31.1 7.3-49.8l-2-7.5c-5.5 12.1-11.2 24.3-17.5 36-5 9.3-22.1 34.4-24.1 42-2.9 11.3 9 27.8 13.7 38.3 6.8 15.3 12.3 30.7 12.8 47.7l83.9-48.6c76.6-56 124.6-136.5 149.8-227.2 6.8-24.3 13.8-49 12.3-74.5-7.5-3.4-20-16.1-28.3-14.5-3 .6-13 7.8-16.1 10-7.2 5.2-13.7 12.3-21 17-6 3.9-14.2 4.4-12.7 13.2 1.6 10 26.2 2 25.9 15.1-.2 7.4-23.2 33-26.9 41.5-1.9.2-.6-1.9-.3-2.8 2.2-6.7 14.8-29.3 13.2-34.6-2-6.5-20.6 4.2-24.9 4.4h.2Zm-37-135c-6.7-.9-12.1 3.8-17.3 7.2-8.9 5.7-34.4 22.6-40.6 29.4-3 3.2-12.7 33.4-13.8 39.2-3.7 19-2.9 40.5-7.4 59.7 0 4.8 11.4 18.6 16.1 20 4.2 1.2 19.5.8 24.5.5 2.6-.2 19.6-2.9 20.4-4.1 1.3-18.4.6-37.9-2-56.2-1.1-7.9-7.4-29.9-6.7-35.9.7-4.9 11.1-27.1 13.9-33.1 3.3-7 10-16.4 12.3-22.7.5-1.4.8-2.5.6-3.9Zm133 33-23 17.5c-2.2 2.8-6.4 4.6-6 8.5 9.5 1.2 16.7 8.1 25 12 .4-12.8 1.6-25.4 4-38m-151 128c-1.8-1.8-39.9 5.1-47.4 3.9-7-1.1-12.1-8.2-16.6-12.9-2 16.5-4.7 32.9-7.2 49.3-1.1 7.1-4.9 20.1-4.8 26.2 0 4.7 5.9 28.9 7.7 34.3 3.6 11.1 10.4 13.8 20.6 8 20.7-11.7 39.9-68.2 45-91 1.3-5.9 2-11.8 2.7-17.8m-133 209c-1.1 0-2-.2-3 .5-1.8 1.2-4.5 24.4-5.3 28.7-1.5 8.3-3.3 16.7-5.7 24.8 2.4 1.8 11.8-9.8 13.5-12 2.5-3.2 7.6-10 8.3-13.8 1.2-6.4-7.6-20.8-7.8-28.2" class="outline" data-original-prefix="outline"/></g><g id="06_Left Ear" data-trait="hi-tek"><path id="fill-ear-lft" class="fill"  fill="#fff" d="M326.7 182.1q1.65-.45 3.3.3l180.7 78.4c55.2 39.7 111.9 77.7 165.3 119.7l109.1 135.9c10.5 65.4 16.1 132 25.2 197.8 24.6 50.1 52.6 98.7 77.3 148.7 1.5 3.1 5.4 9.5 5.5 12.5.2 4.7-8.5 15.9-11.2 20.8-15.1 27.1-18.8 33.2-43.9 52.1-22.9 17.2-44.3 28.5-72.5 35.5-8 2-18.1 5.7-25.4.5l-82.9-79.1c-9.9-22-17.5-45.3-28.1-66.9l-154-109c-23.7-34.4-41.7-73.1-64.9-108.1-9.8-43.7-27.6-90.2-34.9-134.1-5.9-35.7-6.9-73.6-12.5-109.5-9.3-20.9-22.7-40-30.5-61.5-1-40.6-6.8-81.2-8.3-121.7s-1.1-11.4 2.8-12.4Z" class="fill" data-original-prefix="fill"/><path id="outline-shading-ear-lft" class="outline"  fill="#000" d="M664 558v21.5c0 22.8 19.2 43.4 30.4 61.6 38.9 63.4 63.1 129 108.2 189.8 16.2 21.8 35 41.1 51.9 62.1 4.8 5.9 9.3 10.3 9.5 18.5s-1.9 12.6-1.1 19l-.9 2.1-60.1 40.9c-13.7 0-28.1 9.9-40.7 12.4-1.5.3-2.8.5-4.2-.3l-76.6-51.4-69.8-109.7c-33.8-23.4-81.3-39.6-107.2-72.3s-6.4-12.2-10.5-17.5c.3-1.1 2.2-.4 3 0 7.1 2.9 21.5 16.6 29.2 21.8 23.5 15.5 51.4 30.4 77.4 41.6 17.3 7.5 35 10.9 52.9 16.1 7 15.4 12.9 31.5 20.2 46.8 8 16.6 27 35.1 40.2 48.8 19 20 39 39.1 59.5 57.5 1.5.2 1.8 0 1.4-1.4-1.9-7.7-7.7-31.2-11.1-36.9-4.7-7.9-16.1-19.2-22.2-27.8-25.1-34.9-42.3-72.5-64.4-108.6-7.4-12-9.8-16-22.8-22.2-38.1-18-78.4-19.1-114.3-41.7-26.9-17-34.3-26.3-51.1-52.9-25.7-40.5-46.4-86-61.2-131.8-4.2-12.9-10.9-32.4-12.7-45.3s-.3-1.6.5-1.5c14 25.4 25.6 52.8 42.1 76.9s12.8 19.9 23.4 21.1c-.5-2.4 1.1-5.1.8-7.3-1.4-11-12.7-28.8-16.3-39.7-3.8-11.7 2.7-30.6 3.5-43.5 3.6-59-24.7-121.5-55.6-170.4-12.4-19.7-28.5-37.1-37.4-59.1h16.5c8.6 0 8.7 2.4 14.2 5.8 15.3 9.7 32.5 17.5 48 27 30.2 18.6 67.2 68.2 84.5 99.5 2.9 5.2 12 22.4 12.8 27.2s-.9 10.1-1 14.9c-.8 41.5 1.8 83.9 11.9 124.2 3.2 12.9 5.4 24.4 15.1 33.9 1.4 1.4 2.9 3.8 4.5 1.5l24.5-44.5 55-6.5v-.2Z" class="shading" data-original-prefix="shading" opacity=".2"/><path id="fill-led-lft7" class="fill"  fill="#fff" d="M669.7 841.5c9.8-2 9.4 10.6 2.5 11.7s-9.5-10.3-2.5-11.7" class="fill" data-original-prefix="fill"/><path id="fill-led-lft6" class="fill"  fill="#fff" d="M484.7 520.6c3.7 3.7 0 13.3-6.7 10.2-8.1-3.7.6-16.4 6.7-10.2" class="fill" data-original-prefix="fill"/><path id="fill-led-lft5" class="fill"  fill="#fff" d="M409.7 431.6c3.7 3.7 0 13.3-6.7 10.2-8.1-3.6.6-16.4 6.7-10.2" class="fill" data-original-prefix="fill"/><path id="fill-led-lft4" class="fill"  fill="#fff" d="M562.7 709.6c3.7 3.7 0 13.3-6.7 10.2-8.1-3.7.6-16.4 6.7-10.2" class="fill" data-original-prefix="fill"/><path id="fill-led-lft3" class="fill"  fill="#fff" d="M518.7 714.6c3.7 3.7 0 13.3-6.7 10.2-8.1-3.7.6-16.4 6.7-10.2" class="fill" data-original-prefix="fill"/><path id="fill-led-lft2" class="fill"  fill="#fff" d="M391.7 292.6c3.7 3.7 0 13.3-6.7 10.2-8.1-3.6.6-16.4 6.7-10.2" class="fill" data-original-prefix="fill"/><path id="fill-led-lft1" class="fill"  fill="#fff" d="M761.7 919.6c3.7 3.7 0 13.3-6.7 10.2-8.1-3.7.6-16.4 6.7-10.2" class="fill" data-original-prefix="fill"/><path id="outline-ear-lft" class="outline"  fill="#000" d="M573 706.7c3.7 8.5 0 12.5-.8 20.5l20.6 31.4c2.5 4.2.9 9.1-1.1 13.1L568 787.5c8.4 5.5 17.7 9.5 26.3 14.7 5.7 3.4 35.9 21.9 37.7 25.3 1.7 3 .6 6.3 1.4 9.6 11.9 50.4 60.6 107 105.9 131.1 24.3 12.9 35.4 10.2 60.4 2.1 2.2-.7 5.3-.6 7.2-1.3 0 2-1.5 3.4-3 4.5-7.6 5.3-52.8 22.6-61.2 22.3-2.6 0-19.5-3.7-21.3-4.7-17-15.3-32.7-34.3-50-49-11.7-10-25.8-16.1-32-31-10.4-25.3-24.2-65.6-48.8-80.2-7.9-4.7-17.2-8.1-25.3-12.7-100.5-56.5-161.2-147.7-195.6-256.4-3.9-12.3-16.2-53.5-15.7-64.1.3-5.5 5.1-11.9 5.8-18.2 3-25.7-5.9-83.4-16.4-107.4-4.5-10.2-16.6-20.8-20-29-3.6-8.8-5.5-29.4-6.5-39.5-3.1-32.9-8.7-93.7-1.3-124.3 1.3-5.6 1.1-10.4 7.8-10.2 11.2.4 35 8 46.3 11.8 89.3 29.6 189.9 78.4 265.5 134.5 17.7 13.1 38 37 53.2 53.8 39.6 43.9 77.2 92.8 110.1 141.9 3 4.4 4.7 3.6 5.4 10.6 2.1 21.1 1.2 43.6 3 65 4.4 51.5 12.5 128.1 42.2 170.8 3.6 5.2 8.8 10.1 12 15 7.4 11.4 13.7 33.5 20 47 8.4 18 19.9 31.7 20.8 52.2.2 3.2.5 7.5-.5 10.5-14.5 18.3-21.9 41.3-42.8 53.2-3.3 1.9-9 5.7-12.7 4.8 14.9-17.2 31.2-42.5 27.9-66.4-6.7-13.7-9.4-29.6-15.7-43.3s-16.2-27.8-23-42c-15.9-32.7-35.5-69.7-38.1-105.9-.7-27.5-4.4-54.7-7-82-2.4-24.8-1.9-68-15.6-88.4-11.2-16.8-29-37.7-42-54-40.5-50.6-77-87.4-130.7-124.3-65.4-45-147.9-94.6-220.4-126.6-5.4-2.4-49.5-20.1-51.4-18.1-2.4 24.7-.9 49.7 2.1 74.4 1.8 14.4 5.2 46.1 11 58 6.3 13 13.2 22.2 18.1 36.9 1.3 3.9 6.6 26.5 7.7 27.3 1.2.9 1.8 0 2.8-.3 8-3.1 23.8-19.6 32.3-16.8 5.3 1.8 33.4 51.9 39.9 59.1l13-8-67.1-103.3c-17.5 2.5-29.9-17.9-17.2-31.1 1.8-1.9 6-2.9 5.4-4.6l-24-39.1c-.2-1.5 0-1.7 1.5-1.5 7 1 21.2 16 27.6 20.5 7 4.9 15.7 7.3 22.4 12.6 10.5 8.1 24.9 24.1 35 34 38.8 37.8 64.8 66.6 86.6 117.4 1.8 4.2 8.3 18.1 8.6 21.4.7 7.3-5.5 27.3-6.7 35.9-7.5 53.7-.2 104.7 26.7 152 5.5 9.8 22.6 33.8 35.2 21.9 5.1-4.9 9.1-31 11.5-39.5 2-7 8.6-30.1 12-35 2.2-3.2 13.2-9.4 17.2-11.8 12.6-7.8 25.9-15.1 39.3-21.2 1 1.1-9.1 24.9-9.8 28.7-3 17.8 8.2 69.7 15 87.5 5.4 14.1 13.7 25.2 23.2 36.8 45.9 55.8 63.5 122 103.3 180.7 4.2 6.2 18.6 23.1 19.2 28.8.3 2.6-.3 5.4 0 8 .6 4.9 3.1 17.6 1.5 21.5-1.4 3.2-26.3 24.1-28.5 22 3.8-9.9 6.1-17.6 5-28.5-3.2-32.9-38.5-93.3-56.2-122.8-1.9-3.2-13.6-22.1-15.5-22.6l-38.2 25.2 61.1 93.5c19.4-2.8 31.1 20.4 14.8 32.7-11.6 8.8-28.3-.2-28.7-14.2 0-4.8 2.8-8 3.2-12.3l-21.7-33.9c-9.8.7-22 19-31.3 8.8-3.5-3.8-11-19.9-13.6-21.4-1.5-.9-7.3-.7-11-2-19.8-7.5-12.8-38.1 10.4-34.4 8.2 1.3 14.7 10.2 14.5 18.3 0 3.7-3.9 9.2-3.7 10.9s10.5 17.7 12.3 17.7 14.2-8.5 14.3-9.5L675 812.4c-1.5-8.8 16.7-11.8 15.2-17.1l-80.6-123v18.5c0 4.7 5.3 19.7 7.2 24.8 2.8 7.2 6.7 13.8 9.8 20.7l-54-29.3zM389.8 293.2c-6.2-6.2-14.8 6.6-6.7 10.2 6.8 3.1 10.5-6.5 6.7-10.2m49.3 77.7c.8.6 2.7-.3 3.6-.7 1.6-.6 16.6-9 17.3-9.7.6-.7 1-1 1.1-2 .3-3.5-15.2-21.8-18.6-25.5-5.5-6.1-30.6-31.1-36.6-33.4-1-.4-1.8-.8-3-.5 1.4 4.4-3.9 8.4-2.5 11.9 12.6 18.5 24.3 37.7 37 56.1.8 1.1 1.5 3.7 1.6 3.9h.1Zm30.7-.7c-3-1.7-18.8 10-22.9 11.3 3.2 8.5 24.2 32.6 24.1 40 0 6.4-16.1 11.9-19.9 17l26.2 40.6c1.4 4.1.8 5.8-2.5 8.4-12.9 10.2-30.5 17.8-43.5 28.6-.8 1 0 1.8.3 2.7.8 2 12.7 20 13.9 20.2 3-2.3 12.7-6.9 14.5-9.3 2-2.8-.1-8.1 3.5-13.5 8.3-12.5 27-10.2 31.9 3.9l1.5 10c11.2-24.6 9.3-53.2 4.7-79.2-3.3-18.2-8.7-35.7-16.5-52.5-1.6-3.5-14-27.3-15.4-28.1ZM412 605l42.9-27.6c-11.2-20.1-25-38.9-37.3-58.4-1-2.2-.8-4.8 0-7 1.9-6 45.6-28.5 45.6-32.4s-9.5-16.4-10.5-16.5c-7.5 3.4-21.1 18-29.3 14.2-4.2-2-12-19.8-15.2-21.8-1.8-1.1-5-.2-7.3-.7-23.6-5.5-17.4-37.6 4.8-35.8 9.1.8 16.3 9.3 16.1 18.4 0 3.9-3.6 9.4-3.4 11 0 .9 9 14.8 9.8 15.2 1.5.8 6-2.6 7.5-3.6 2.1-1.3 9.4-5.6 9.5-7.5l-46.4-70.4-25.7 16.4-1 2c2.1 11.6 5.7 23.3 7 35 3.6 31.8.8 57.1 8.5 89.5 6.5 27.1 15.6 53.6 24.5 80zm-4.2-172.8c-6.2-6.2-14.8 6.6-6.7 10.2 6.8 3.1 10.5-6.5 6.7-10.2m75 89c-6.2-6.2-14.8 6.6-6.7 10.2 6.8 3.1 10.5-6.5 6.7-10.2m7.9 17.9c-1.2.3-2.4 2.4-4 3.1-2.1.9-6 1.9-8.2 1.9-4.5 0-9.9-4.1-11.8-3.9-.9 0-14.5 8.4-14.6 9.3l69.3 104.4c.9 0 14.7-9.1 15.2-9.9 1.9-3-12.8-47.3-15.3-53.8-5.5-14.5-12.2-28.2-21-41-1.7-2.4-6.7-10.9-9.5-10.2h-.1Zm-16.8 68.7c1-1.8-3.3-7.8-4.5-9.8-1.1-1.8-6.1-10.1-7.8-10l-42.7 27.4c-.7.5-1 1.2-1 2-.3 2.9 11.5 24 13.9 28.2 21.6 38.2 58.6 86.8 92.7 114.3 4.8 3.8 26.5 20.2 31 20.1s20.1-13.6 25.6-15.7c.2-1.6-2.7-5.7-3.7-7.3-1.8-3-14.4-23.2-15.6-23.9s-5.7 0-8.1-.4c-20.3-3.7-19.5-32.4-.2-35.7 1.5-.2 8.5.9 7.4-1.6s-7.1-6.1-9-8c-3.8-3.6-7.5-6.1-8.7-11.3-.6-2.6-2.5-18.5-3.3-19.2-10 3-20 19-28.8 5.3l-29.7-45.3c-5.6 4.3-14.4 7.9-19.5 12.5-.8.7-2.1 1.1-1.7 2.5l45.7 70.9c19.7-7 33.9 19.7 16.8 31.5-15.8 11-34.6-6.1-26.2-23.1-12.9-25.3-33.4-48.7-47.2-73.4-2.7-4.8-5.9-9.2-1.1-13.9l25.4-16.1zm161.8 12.4c-9.4 2.1-21.3 24.9-22.5 34l88.5 134.7c1.6.5 16.8-8.7 18.3-10.4 1-1.1 1-1 .6-2.5-.5-1.9-7.1-10.8-8.8-13.3-13.6-19.6-29.2-38.1-46.3-54.7-1.1-23.3-4.5-46.6-12.5-68.5-2.9-7.9-6.5-21.7-17.3-19.3m-74.9 90c-6.2-6.2-14.8 6.6-6.7 10.2 6.8 3.1 10.5-6.5 6.7-10.2m-44 5c-6.2-6.2-14.8 6.6-6.7 10.2 6.8 3.1 10.5-6.5 6.7-10.2m151 127c-7 1.4-4.1 12.7 2.5 11.7s7.3-13.6-2.5-11.7m92 78c-6.2-6.2-14.8 6.6-6.7 10.2 6.8 3.1 10.5-6.5 6.7-10.2" class="outline" data-original-prefix="outline"/></g><g id="07_Head" data-trait="horned"><path id="fill-head2" class="fill"  fill="#fff" d="M831 1028c-.5.6-13.6.2-15.4 0-5.5-.8-5.7-4-8.7-6.3-18.9-15.1-64-51.5-68.8-75.2-3-15 0-62.4 4.4-77.4 4.8-16.4 38.1-54.4 52.2-64.8 19.1-14.2 43.1-24.8 64.8-34.2-18.3 29.1-32.1 76.2-11.1 107.1 7.7 11.2 31.3 29 43.3 36.7 9.5 6.1 30.9 13.8 33.9 25.1 1.1 4.2.5 16.7-1.6 20.4-1.7 3-9 5.8-9.8 8.3-1.1 3.7 2.7 7.8-.3 13.7-3.1 6.2-8.2 7.7-12.4 11.6-11.3 10.6-11.2 17-28.1 24.9-3.8 1.8-21.8 8.7-24.6 8-3.9-1-14.9-11.7-17.6-3.1-.5 1.5 0 5.1-.2 5.3Z" class="fill" data-original-prefix="fill"/><path id="fill-head1" class="fill"  fill="#fff" d="M1217 1028c-.2-.2 0-3.5-.4-5-3.1-9.4-14 3.4-19.8 2.9s-24.6-8.7-30.1-12c-11.1-6.7-12.4-13.4-20.2-20.8-4.1-4-9.3-5.3-12.4-11.6-2.9-5.9.7-10.4-.3-13.7-.7-2.5-7.4-4.7-9.3-7.7-2.7-4.2-3.3-16.2-2.1-21 3-11.4 24.4-19 33.8-25.2 13.2-8.6 37.4-26.8 45.1-39.9 15.8-27.1 7.3-61.4-4.2-88.6l-9.2-15.3c20.9 8.6 43.2 18.8 61.7 31.8 15.1 10.5 50.9 49.9 55.8 67.2 4.4 15.7 7.2 62.3 4 78.1-4.5 22.7-53.5 63-71.6 78.4-3.2 2.7-19.9 3.7-20.9 2.6Z" class="fill" data-original-prefix="fill"/><path id="outline-shading-head2" class="outline"  fill="#000" d="M846 1004c0-3.5-3.2-6.2-3.9-9.6-.3-1.3.2-2 1.4-1.4 1.8.8 11.7 11.3 15.2 13.8 1.7 1.2 7.5 5.9 6.3.7-.7-2.8-5.8-6.4-7.8-9.2-1.6-2.2-15.2-22.4-14.2-23.3 6.5 1.1 10.8 10.1 16.8 12.7 7.3.4 21.2 8.2 27.7 7.3 2.7-.4 5.2-3.6 4.4-6.3-1-3.6-18.2-13.4-17.8-20.7l25 14.6c11.1.6 12.3-5 13.9-14.2.2-1.2-.8-2.6-.6-3.7.3-1.9 5.9-10.3 8.2-6.7 1.9 3.1 2.1 19.1.7 22.7-2 5.3-23.7 31.8-28.7 37.3-21.7 23.7-40.9 28.9-71.8 16.8-10.5-4.2-7.8-7-13.8-13.2-5.9-6.1-16.9-12.9-23.9-19.1-12.5-11.1-41.1-39.4-44.8-55.2-3.4-14.9 0-71.3 6.6-85 4.7-9.9 13.7-20 20.7-28.3 1.3.7 0 2.7-.2 3.8-7.5 29.1-19.5 55.9-10.8 87.2 9.4 33.8 40.4 47.4 63.5 70.5 8.5 4.6 18.2 8.8 27.9 8.6Z" class="shading" data-original-prefix="shading" opacity=".2"/><path id="outline-shading-head1" class="outline"  fill="#000" d="M1127 958c2.8-2.6 7.7 3.4 8.4 6 .5 1.9-.7 3.4-.4 5.3 1.2 8.3 3.7 14.2 13.2 13.5L1174 968c0 7.3-16.8 17-17.8 20.7-.8 2.7 1.7 5.9 4.4 6.3 2.3.3 25.3-6.4 28.2-7.8 3-1.5 14.4-13.9 16.3-12.2.9.8-11 18.2-12.2 20.3-1.1 3.1-12.3 11.8-9.8 14.7 1.3 1.5 19-13.8 20.5-16 2.1-.4 1.7 1 1.4 2.4-.5 3-3.3 4.4-2.9 7.5 9.5.4 18.3-4 26.7-7.8 22.1-21.8 52.3-36 63.3-66.7 10.7-29.8-1.2-64.4-9-93.5 1.9-.4 2.4.9 3.4 2.1 7.7 8.9 18.2 24.2 20.3 35.7 3 16.1 7 63.8 1.5 77.9s-31.5 40.4-43.7 51.3c-6.8 6-17.1 12.2-23 18-6.7 6.7-3.5 9.6-15 14-31.7 12.1-50.2 6.1-72.1-18-6.3-7-22.7-26.7-26.7-34.3-1.9-3.8-2.8-22.7-.8-24.7Z" class="shading" data-original-prefix="shading" opacity=".2"/><path id="outline-head2" class="outline"  fill="#000" d="M864 1022c-.1 2.2 1.1 3-1.4 4.2-11.2 5.2-16 3.3-26.6-2.1-.4 12-4.7 9.3-14 7.5-24.7-4.6-47.3-26.8-64-45-23-25.1-27.2-34-26-69.1 1.1-33 1.3-52.6 22.1-78.9 24.3-30.8 45-47.5 80.6-64.4 5.1-2.4 41.4-17.9 43.3-16.1.5 1.7-.7 2-1.5 3-10.5 13.7-17.3 18.1-24.3 35.7-21.7 55.1-6.6 78.5 38.4 109.1 7.9 5.4 28.1 14.5 33.2 19.8s8.2 15 7.9 18.6c-.2 3.1-4.8 18-6.6 20.5-2.3 3.3-5.5 3.3-9.2 3.3-.2 2.6 2.5 4.3 2.7 6.6.9 8.3-9.1 18.4-17.7 17.4-.4-2.3-14.7-13.4-13-15 4.9 1 16.4 8.7 20.5 5 .6-.5 3.4-6.5 3.3-7.3-.6-4-14.9-16.8-18.8-19.7 5.5 0 17.5 5.6 22.4 3.9 2.2-.8 5-12.3 4.1-14.8-1-2.9-14.8-13.5-18.2-15.9-9.1-6.4-19.3-11.9-28.6-18.4-6.7-4.7-22.7-15.2-27.7-20.3-4.6-4.6-12.9-23-14.5-29.5-6-24.9 6.5-59.2 16.5-82-30.2 13.8-57.8 33.6-80 58.5-12.5 14.1-18.4 21.8-20.9 41.1-3.3 25-5.5 61.5 8.6 83.1 9 13.8 43.1 49.5 57.3 56.7 5 2.6 17.6 7.5 15-2.7-.2-.7-4.2-2.3-5-5.2-1-3.6 3.5.4 4.3.7 11.8 5.5 21 8.6 33.5 11.6 1.3.3 3 .4 4.2.2Z" class="outline" data-original-prefix="outline"/><path id="outline-head4" class="outline"  fill="#000" d="m1155 1005 40-20c.8.8-2.8 5.1-3.5 6-5.1 6.2-12.5 12.1-18.5 17.5-.9 4.2 11.8 3.2 14 4-1.3 1.2-2.6 3.1-4.2 3.8-.7.3-7.3 1.7-7.8 1.8-4.4 0-17.6-3.8-19.5-8-.9-1.9-.2-4-.5-5Z" class="outline" data-original-prefix="outline"/><path id="outline-head3" class="outline"  fill="#000" d="M892 1005c5.6 7.3-13.9 13-19 13-.4 0-6.8-1-7.3-1.2-1.7-.5-3.2-3.2-4.7-4.3 2.2-.8 14.9.2 14-4-6.5-5.6-13.3-11.6-19-18-1.9-2.1-4.2-5-5.5-7.5z" class="outline" data-original-prefix="outline"/><path id="outline-head1" class="outline"  fill="#000" d="M1146 992c-.9-.8-6.1-.9-8.4-2.1-6.5-3.5-11-15.6-5.6-21.9-3 0-6.8 0-8.9-2.6-2.8-3.5-7.7-20.9-6.6-25.4 4.2-18.4 26.4-24.5 40.8-34.2 12.3-8.3 32.1-23 39.5-35.5 20.2-34.2-.8-88.3-28.8-112.8 24.7 6.4 48.6 17.4 70.7 30.3 23.5 13.8 52.3 42.3 66.1 65.9 9.5 16.2 10.9 48.6 11.2 67.8.4 20.3.6 30-11.2 46.9-10.6 15.1-44.2 49.8-60.1 57.9-3.8 1.9-25.7 7.5-29.2 6.8s-2.6-6.1-3.5-9c-10.4 5.1-16.3 7.8-27.3 1.8-2.4-1.3-1.2-1.8-.7-3.8 4.8.8 6.3-2.1 9.7-2.8 2.7-.6 5.4 0 8.3-.7 7.8-1.8 15.9-7.6 23.5-10.5.9 2.8-4.4 6.2-4.5 6.7-2.7 10.4 10.2 5.2 14.9 2.7 13.9-7.1 49.6-44.2 58.1-57.9 13-21.1 10.7-56.9 7.8-80.9-2.5-20.8-8.8-28.6-22.4-43.6-21.8-24.3-49-43.3-78.5-57 10 23.2 22.2 56.5 16.3 81.8-6.3 27.3-23.6 37.1-45 52-13.1 9.1-28 16.6-39.8 27.2-3.3 2.9-4.7 4.6-4.3 9.2.2 2.2 2.4 10 4.4 10.6 4.7 1.6 16.2-3.2 21.3-3.8l-18 18.6c2.7 16.8 13.7 5.9 24 3.8l-14 14.5Z" class="outline" data-original-prefix="outline"/></g><g id="08_Mouthpiece" data-trait="gasmask"><path id="fill-gasmask-front2" class="fill"  fill="#fff" d="M1393.8 1467.3c74-7.2 53.9 96.6 40.5 139.5-13.4 43.1-34.9 84.1-72.6 110.4-41.7 29.2-101.4 53.8-121.7-12.8-27.5-90.5 58.2-227.9 153.7-237.2Zm43 96.5c5.1-18.7 8.5-55.2-3.8-71.2-16.6-21.6-42.5-18.9-65.8-11.3l-20.2 81.8c19.1 1.1 35.1 16.7 39 35l50.7-34.2h.1Zm-120.9 25.3-41.4-24.9c-26.7 30.4-34.8 75.3-31.5 114.8l68.9-32.1c.6-1-2.6-12.6-2.9-15.4-1.2-15.1 3.6-28 6.9-42.4m32.8-14.9c-26.5 4.2-50.2 51.7-28.2 70.8 26.9 23.3 74.3-36 50.5-63.5-6.1-7-13.2-8.7-22.2-7.3zm-28.6 158.7c1.3.6 2.5.9 3.9.7 14.8-2.5 48.8-31.9 59.5-43.6 3.4-3.7 19.5-24.1 19.5-27.5s-.7-1.9-1.4-2.6l-28.8-23.2c-1.3-.8-2.2-.9-3.7-.3-3.2 1.4-9.3 8.3-13.2 10.9-6.3 4.3-12 6.6-19.3 8.7-2.7.8-8.9.7-10.1 2.9l-6.4 73.9Z" class="fill" data-original-prefix="fill"/><path id="fill-gasmask-front1" class="fill"  fill="#fff" d="M638.7 1467.2c39.6-6.2 92.7 31.7 117.8 59.8 40.6 45.4 76.1 136.1 44.7 193.7-26.2 48-81.5 20-114.9-3.5-44-30.9-68.6-85.8-79.8-137.2-7.5-34.4-16-105.3 32.2-112.8m42.1 14c-23.3-7.4-48.4-10.3-65.3 10.8-13 16.2-9.1 52-4.6 71.3l50.6 34.7c5-18.1 19.9-33.9 39.5-35zM805 1679c3.3-39.5-4.8-84.3-31.5-114.8l-41.4 24.9c1.7 10.2 6.1 19.9 6.9 30.4.7 9.3-.7 17.9-3.1 26.8zm-117.3-104.8c-2.8.6-8.2 4.6-10.2 6.8-22.5 24.5 15.5 80.9 45.8 66.8s1.7-81.2-35.5-73.5Zm40.2 158.7-6.4-73.9c-1.2-2.2-7.5-2.1-10.1-2.9-7.3-2.2-13-4.4-19.3-8.7-3.8-2.6-9.9-9.5-13.2-10.9-1.4-.6-2.3-.6-3.7.3l-28.8 23.2c-.8.7-1.4 1.5-1.4 2.6 0 3.4 16.1 23.8 19.5 27.5 10.6 11.7 44.7 41.1 59.5 43.6 1 .2 3.6 0 3.9-.7Z" class="fill" data-original-prefix="fill"/><path id="fill-gasmask-grill10" class="fill"  fill="#fff" d="M1017 1488c.2 6.3 1.7 13.2 2 19.5 2.2 44.9.3 93.6 1 139 .2 11.5.2 22.3-2 33.6h-15.5c-3.2 0-2.3-19.7-2.5-22.5-2.6-50.6-3.4-102.3-4.1-152.9 0-5.8.9-10.9 1-16.6h20.1Z" class="fill" data-original-prefix="fill"/><path id="fill-gasmask-grill9" class="fill"  fill="#fff" d="M1051 1488c0 5.7 1.1 10.8 1 16.6-.7 50.7-1.4 102.3-4.1 152.9-.2 2.8.7 22.5-2.5 22.5h-15.5c-2.3-11.2-2.2-22.1-2.1-33.6.7-45.4-1.2-94.1 1-139 .3-6.2 1.8-13.2 2-19.5h20.2Z" class="fill" data-original-prefix="fill"/><path id="fill-gasmask-grill8" class="fill"  fill="#fff" d="M962 1488c.2 4.8-.3 9.7 0 14.6 1.7 32.6 1.5 65.3 2 98 .3 23 2.7 46.9 1.1 70-.2 2.2-.7 4.2-1.1 6.4l-12.9-.9c-2.3-12.3-1.4-25-2-37.5-2.2-44.8-4.7-90-4-135 0-1.8-.9-3.5-.9-5s2.6-9 3-9.3c1.1-.7 14.3-1.7 14.8-1.2Z" class="fill" data-original-prefix="fill"/><path id="fill-gasmask-grill7" class="fill"  fill="#fff" d="M1100.8 1489.2c.4.3 3 8.2 3 9.3.6 16.9-1.5 35-1.9 52-.9 42-1.3 83.8-5 125.5-8.5-1-13.2 6.1-14-5.4-1.5-23.1.7-47 1.1-70 .6-37.6.7-75.1 1.9-112.6.5-.5 13.8.5 14.8 1.2Z" class="fill" data-original-prefix="fill"/><path id="fill-gasmask-grill6" class="fill"  fill="#fff" d="M984.9 1488.1c3.3 2.9 1.9 34 2.1 40.4.8 29.8 2.7 60.1 3.1 89.9.2 14.9 1.2 33.6 0 48.1-.2 1.9-1.8 10.5-2.5 11.5-1.9 2.6-10.5 0-13.5 0-1.5-8.1.2-15.4 0-23.5-1.2-50.9-4.4-105.3-3.1-156 0-3.4 1.7-6.8 1-10.5 2.2.4 12.1-.6 12.9 0Z" class="fill" data-original-prefix="fill"/><path id="fill-gasmask-grill5" class="fill"  fill="#fff" d="M1076 1488c-.6 3.9 1 7.6 1 11.5.6 51.4-1.8 103.6-3.1 155-.2 8.1 1.5 15.4 0 23.5-3.5 0-11.8 3.1-13.8-.6-.8-1.6-2.1-8.6-2.2-10.8-2.6-30.9 1.3-68.6 2.1-100 .6-22-1.2-48.7.9-70.1 0-1.2 1.8-8.1 2.1-8.4.8-.7 10.7.3 12.9 0Z" class="fill" data-original-prefix="fill"/><path id="fill-gasmask-grill4" class="fill"  fill="#fff" d="M1128.9 1491.1c-.6 10.1-.5 20.3-.9 30.5-1.9 48-2.5 97-7.1 144.9 0 1.1-.9 6.2-1.1 6.4-.3.3-8.1 1.4-9.2 1.2-3.1-.7-2.8-29.2-2.7-33.6.3-23.8 2.4-48.1 3.1-71.9.7-22.2-1.1-48.5 1-70 .3-2.9 1.3-5.7 2.1-8.4z" class="fill" data-original-prefix="fill"/><path id="fill-gasmask-grill3" class="fill"  fill="#fff" d="M933.9 1490.1c1 3 1.9 6.1 2.2 9.3 1.8 21.7.3 46.9.9 69.1.7 23.8 2.8 48.1 3.1 71.9 0 11.2.5 22.6-2.2 33.4-.9.6-9.3-.6-9.7-1-.2-.2-1-5.3-1.1-6.4-5.2-55.3-4.6-111.4-8-166.9-.2-2.8 0-5.7 0-8.5z" class="fill" data-original-prefix="fill"/><path id="fill-gasmask-grill2" class="fill"  fill="#fff" d="M1117 1682c.8.7-8.2 15.3-9.7 15.8-55.3 1.2-110.5.9-165.8.2-3-.6-8.8-12.2-10.5-15.5 20.5 1.6 41 5.2 61.5 6.5 25 1.6 51.1 1.1 76-1 16.2-1.3 32.4-4.1 48.5-6" class="fill" data-original-prefix="fill"/><rect id="fill-gasmask-grill1" class="fill"  width="212" height="10" x="918" y="1472" class="st1"/><path id="fill-gasmask-mask4" class="fill"  fill="#fff" d="m1138 1570 1.6-110.1H1030c-.6-14.5-4.5-26.9 2-40.9 1.3-.9 7.7 6.1 9 7.5 4.5 4.8 9.1 10.6 13.4 15.6 3.3 2.6 6.6-.9 9.1-3.1 11-9.2 31.4-32 40.4-43.6 4.6-5.9 7.5-10.1 4.2-17.2-4.2-8.8-24.7-34.8-32.1-41.9-5.2-5-8-6.6-14.3-3.3-12.8 6.8-25.4 18.2-38 25.7-11.8-8-24.3-18.5-36.7-25.3s-8.3-3.1-14 1.9c-8 7-27.2 32.1-32.4 41.6-4.2 7.7-2.2 11.1 3 17.8 7.5 9.9 20.5 23.4 29.4 32.6 3.2 3.3 14.6 15.8 18.5 15.5 2.6-.2 17.3-19.2 21.5-22.6 1-.8 1.3-1.9 3-1.5 6.5 14 2.7 26.5 2 41H908.4l2.5 110-5.7-24.8c-9.3-29.7-22.8-55.6-42.3-79.7-7.4-9.2-19.9-17.2-18.5-30.6 15.8-23.7 33.8-46 53-67 23.9-26 45.5-46 76.8-63.2 6.5-3.6 26.4-14.5 32.4-15.6 9.2-1.7 32.4-.8 40.9 2.6 55.7 22.3 100.9 69.6 136.7 116.3 3.1 4.1 18.8 24.6 19.4 27.6 2.2 10.4-12.9 22.5-18.8 29.8-24 29.6-42.2 66.4-47 104.5z" class="fill" data-original-prefix="fill"/><path id="fill-gasmask-mask3" class="fill"  fill="#fff" d="M933.3 1704.7c2.7 2.3 6.6 3.1 10.1 3.4 52.1-3.4 109.6 4.4 161.1 0 3.6-.3 7.4-1 10.1-3.4 2-1.7 14.8-16.8 16.3-19.2 4-6.1 2.6-42.4 2.9-52.1l2-18.4c1.1 7.1.4 14.4 1 21.5.6 6.3 2.3 26.2 6 30 1.9 2 6.9 2.8 6.8 5.8l-18.4 53.7c-1.5 2.3-11 6.4-14.1 7.9-16.4 8.2-36.3 17.9-53.2 24.8-20.1 8.3-50.7 3.6-72.4 3l-74.3-34.7-19.3-54.7c0-3 4.9-3.8 6.8-5.8 5.4-5.7 5.4-33.3 6-42l2-9.5c1 17.8 0 36.8 1 54.5.2 4.1 1 12.8 3 16 1.5 2.3 14.4 17.4 16.3 19.2z" class="fill" data-original-prefix="fill"/><path id="fill-gasmask-mask2" class="fill"  fill="#fff" d="M895 1704c-.7.7-12.6-7.8-12.9-8.7-.8-2.6 4.5-15.2 3.9-19.3z" class="fill" data-original-prefix="fill"/><path id="fill-gasmask-mask1" class="fill"  fill="#fff" d="m1153 1704 9-28c-.6 4.1 4.7 16.8 3.9 19.3-.3.8-12.2 9.4-12.9 8.7" class="fill" data-original-prefix="fill"/><path id="fill-gasmask-pods4" class="fill"  fill="#fff" d="M889 1660c-.5.5-2.7.2-2-1.5-.5-34.9-1.3-69.4-12.3-102.7-12.9-39.2-41-74.3-71.2-101.8-6.5-5.9-15.5-11.6-21.5-17.5-1.1-1.1-2.3-1.7-2-3.5 12.6-4.9 23 4.7 32.5 12 56.5 44 84.7 111 83.6 182.5 0 4.8-4.3 29.8-7.1 32.5" class="fill" data-original-prefix="fill"/><path id="fill-gasmask-pods3" class="fill"  fill="#fff" d="M1268 1433c.4 1.8-.9 2.5-2 3.5-6 5.8-15 11.5-21.5 17.5-30.2 27.5-58.3 62.6-71.2 101.8-11 33.4-11.8 67.9-12.3 102.7.7 1.7-1.4 2-2 1.5-2.7-2.6-7-27.7-7.1-32.5-1.1-71.5 27.1-138.5 83.6-182.5 9.4-7.3 19.9-16.9 32.5-12" class="fill" data-original-prefix="fill"/><path id="fill-gasmask-pods2" class="fill"  fill="#fff" d="M671 1457c-.3-1.4 1-1.1 2-1.5 12.4-5.1 49.3-17.4 61.6-18.4s42 17.4 52.7 25.1c45.8 33.1 75.6 78.9 83.5 135.5 3.4 24.2 3.7 60.1-4.3 83.3-2.7 7.8-14.4 16.3-21 22-10.4 9-21.3 17.4-32 26 43.6-110.4-32.2-240.3-142.5-272" class="fill" data-original-prefix="fill"/><path id="fill-gasmask-pods1" class="fill"  fill="#fff" d="m1377 1456-33.7 13.8c-91.3 46.5-147.8 160-108.8 259.2-10.7-8.6-21.6-17-32-26-6.6-5.7-18.3-14.2-21-22-16.9-48.7-2.5-120.4 25.1-162.9 18.5-28.5 67.3-74.3 101.4-80.6 7.7-1.4 25.5 4.9 33.8 7.3 11.8 3.4 23.4 7.7 35.2 11.3Z" class="fill" data-original-prefix="fill"/><path id="fill-gasmask-filter8" class="fill"  fill="#fff" d="m1427.8 1555.8-36.2 24.2c-6.9-12-16-22.8-30.5-25.1l15.1-62.7c12.9-6.1 32.3-3.8 41.8 7.3 12.9 15.2 12.1 37.6 9.8 56.3" class="fill" data-original-prefix="fill"/><path id="fill-gasmask-filter7" class="fill"  fill="#fff" d="M1253 1659v-23.5c0-6.3 6-25 8.5-31.5 1.7-4.4 11.2-23.8 14.5-25.6q1.5-.9 3 0l24.9 14.2c-2.7 7.8-5.3 16.7-5.9 24.9-.6 7.6.8 15 .5 22.5l-45.5 18.9Z" class="fill" data-original-prefix="fill"/><path id="fill-gasmask-filter6" class="fill"  fill="#fff" d="M1333 1716c-.2-8.2.2-16.4 0-24.5 0-4.9-1.4-9.5-1.1-15 .9-14.6 3.5-9.7 13.7-14.3 7.3-3.3 16.4-12.1 22.6-14.4 1.1-.4 1.2-.8 2.6-.3 5.2 2.1 12.9 13.4 19.1 16 1.1.9.9 1.3.5 2.5-.7 1.9-12.7 15.5-15 18.1-8.2 8.7-18.5 18-28.4 24.6-1.9 1.3-12.9 8.6-14.1 7.4h.1Z" class="fill" data-original-prefix="fill"/><path id="fill-gasmask-filter5" class="fill"  fill="#fff" d="M1348.8 1583.3c9-1.3 18 1.6 20 11.5 3.6 17.8-26.8 57.9-44.2 40.2-14.9-15.3 4.9-48.8 24.2-51.6Z" class="fill" data-original-prefix="fill"/><path id="fill-gasmask-filter4" class="fill"  fill="#fff" d="m671.8 1492.2 15.3 62.2c-9.2 2.5-17.5 7.2-23.5 14.7-1.8 2.2-6.1 11.1-7.9 10.8l-35.5-24.1c-2.3-18.7-3.1-41.1 9.8-56.3 9.5-11.2 28.9-13.4 41.8-7.3" class="fill" data-original-prefix="fill"/><path id="fill-gasmask-filter3" class="fill"  fill="#fff" d="m795 1659-45.5-18.9c-.3-7.5 1.1-15 .5-22.5-.6-8.2-3.2-17.2-5.9-24.9l24.9-14.2q1.5-.75 3 0c3.3 1.8 12.8 21.2 14.5 25.6 2.5 6.5 8.5 25.2 8.5 31.5v23.5Z" class="fill" data-original-prefix="fill"/><path id="fill-gasmask-filter2" class="fill"  fill="#fff" d="M715 1716c-1.2 1.2-12.2-6.1-14.1-7.4-9.9-6.6-20.2-15.9-28.4-24.6-2.4-2.5-14.3-16.1-15-18.1-.4-1.2-.7-1.6.5-2.5 6.2-2.6 13.9-13.9 19.1-16 1.4-.6 1.5-.2 2.6.3 6.1 2.3 15.4 11.1 22.6 14.4 3 1.4 11.1 2.7 12.2 4.8 3.4 16.1-.9 32.6.5 49Z" class="fill" data-original-prefix="fill"/><path id="fill-gasmask-filter1" class="fill"  fill="#fff" d="M689.7 1583.2c16.7-3.8 35.6 14.9 38 30.5 4.2 26.8-16.9 32.7-34.2 15.2-6.5-6.6-15.9-24.2-14.5-33.3.7-4.8 5.9-11.3 10.7-12.4" class="fill" data-original-prefix="fill"/><path id="outline-shading-mouth2" class="outline"  fill="#000" d="m1012 1429-11 5c-1.3-1.4 7.3-34.7 9.5-37 3.4-3.7 5.1 2.8 6.2 3 1.3.3 13.4.3 14.6 0 1-.2 1.7-7.6 6.2-3.1s9.3 31.1 9.5 34.5c0 1.1.7 3.1-1.5 2.5-3.2-.9-6.1-4.4-9.5-5v34h-24v-34Z" class="shading" data-original-prefix="shading" opacity=".2"/><path id="outline-shading-mouth1" class="outline"  fill="#000" d="M892.7 1373.8c-20.7 32.8-39.6 47.4-18.2 88.3 1.8 3.4 17.4 28.8 19.1 29.1 1.2.2 2.1-.3 3-1 3.2-2.5 8.1-12.1 11.2-15.8.8-.9 1-2.6 2.7-2.3.8 0 2.5 14 6 14.1h213.1c5.2-.2 5.9-7.8 7.2-11.9.2-.8 0-3.1 1.8-2.2 2.7 1.4 11.2 19.5 14.9 18.9 4.7-.8 24.6-37.2 26.7-43.4 10.7-32.1-9.3-47-23.4-71.6-.4-.7-2.8-4.9-.6-4.9 0 1.5 1.1 2.5 2 3.5 16.5 18.6 32.1 37.9 48.5 56.5-.2 6.6 3.3 15-.5 20.5-4.9 7-15.8 14.4-21.5 21.5-8.2 10.2-13.6 24.8-18.4 36.6-4.3 10.5-8.9 20.9-12.1 31.8l20.9 16.4c.5 6.1-6.8 29.3-4.3 33.3 1.1 1.7 8.8 6.2 11 8 9.8 8.2 19.3 16.8 29.1 24.9 3.5 2.9 9.8 6.6 12.5 9.5 3.2 3.4 5 20.4 5.8 26.2 1.4 9.8 1.8 19.8 3.3 29.7 3.1 20.9 6.9 41.8 10.3 62.6l-70-50c-2.3 0-4.1 1-6 2-3.9 1.9-20.2 13.1-23 16s-3.9 10.5-6.2 12.1c-1.8 1.3-7.6 2.3-10.3 3.4-7.9 3.4-15.6 7.2-23.5 10.5 3.5-7.1 14.6-15.9 17-23 1.6-4.9-.7-10.3 1.6-14.9-.8-.7-9.8 5.8-12.6 5.9-1.8 0-3.8-1-5.9-1-40-.2-80-1.5-120.1-1-13.9.2-31.2 2.6-44.9 2-4.4-.2-8.4-5-12.6-5.9 1.9 4.9.2 10.2 1.5 15 1.8 6.7 13.2 15.2 15.5 20.5.5 1.3-.3 1.9-1.5 1.5l-30.9-13.1c-3.1-2.2-3.1-8.3-5.7-11.3-2-2.4-20.1-14.9-23.4-16.6-1.9-.9-3.7-2.1-6-2l-70.5 50c7.8-38 12-76.6 17.4-115.1 1.2-3.9 16.9-14.5 21-18 11.3-9.5 22.2-20 34.3-28.2l-4.6-33.1c1.5-3.3 20.7-15.1 20.9-16.4-3.6-11-8.1-21.7-12.6-32.4-4.7-11.3-9.9-25.6-17.5-35.5-4.2-5.4-19.4-17.2-21.2-21.8-.7-1.6-1.9-14.8-1.8-17.3 0-1.5 0-2.9 1.1-4l50-59c1.7-1.4 1.1 1.6.7 2.3h-.3Zm121.2 121.3c-.8-.7-9.8.2-11.8 0-1.3 9.4-6 18.7-7.7 27.9-.3 1.4 1 3.8 0 4-.8.2-6.1.2-6.4 0-1.2-1-6.4-29.3-8-30.5-2-1.4-10.1 0-13.1-.4l1 39c-1-.2-3.5.3-3.9 0-.8-.8-2.8-18.8-3.5-22-.5-2.2-4-16.3-4.6-16.8-.4-.3-4.4-.3-4.8 0-1.9 11.4-6.2 22.4-8.9 33.6-.4 1.7 0 6.1-.2 6.3s-5.6 0-5.9 0c-1.5-1.3-3.8-34.1-5.1-38.9-.6-.9-9.3 15.8-10.2 17.3-7.4 12.8-4.9 9.4-5.8 24.2-1.4 24.2-2.4 50.7-1.1 75 .7 12.2 3.5 25.2 4.5 37.5 2 2.3 7.3 2 9 4 1.2 1.3 2.8 7.6 4 10s0 2.4 2 1.9c1.9-1 5.2-17.6 6.6-18.9.3-.3 8.5-.4 8.8 0 .7.7 2.4 16.3 3.7 19.8.5 1.2.9 3.7 2.8 3.2 2.9-.7 8.5-21.9 12.2-22.8 1.8-.4 5.2.9 6.2 2.5 1.8 3.1 4.3 21.8 6.7 22.3 1.8-.3 3.4-1 4.2-2.7 2.1-4.1 4.2-26.4 5.2-27.3.3-.3 8.6.8 9 1.1 1.2 1.1 4.8 30 6.2 30.8.6.4 8.4.3 8.8 0l7.1-23.8c1.7 0 3.8-.4 5.4 0 1.2.2 6.7 23.1 7.7 24 .3.3 7.5.4 8.3.2 1.8-.5 5.5-29.9 6.7-31 .3-.3 8.6-1.4 8.9-1.1 1.1 1.1 2.8 24.2 5.6 27.9.6.9 3.7 3 4.5 1.5 2.4-3.7 4.8-21.7 6.1-23.2.6-.7 5.5-1.5 6.8-.7 2.4 1.5 8.7 18.6 10 22.5 2.3.2 2.8.2 3.8-1.7 1.6-3.1 3.4-21 4.8-21.3.8-.2 8 0 8.3.2.6.5 4.1 12 4.7 13.8.4 1.5.3 4.9.4 5.1 3.5 3.5 5.9-10.4 7.5-12s7.8-1.6 8.8-4.2c5.1-34 6-68.9 4.7-103.3-.2-6.3-.7-22.3-2.6-27.4-1-2.5-4-4.5-5.3-6.7-.7-1.3-8.2-17.6-9.2-16.3-1.7 4.8-3.6 37.6-5.1 38.9-.2.2-5.8.3-6 0-.2-.2.3-4.1 0-5.4-.4-1.7-1.6-3.1-2.1-4.9-1.1-4.1-5.8-28.6-6.9-29.6-.4-.4-4.3-.6-5 .5l-7.9 38.4h-4l1-39c-2.9.6-11.1-1-13.1.4-2.1 1.5-6.8 29.4-8 30.5-.7.6-4.9-.2-6.3 0l-7.6-32c-2.1.3-11.1-.6-11.9 0-1 .8-5 21.1-5.9 24.6-.3 1.4 0 5.1-.2 5.3-.3.3-6.4.2-7.4 0-1.5-.2-5.4-28.9-6.7-29.9l.2-.3ZM1122 1682c-29.2.9-58.2 3.4-87.4 5.1-27.3 1.5-57.3-2.1-84.9-3.4-7.3-.4-14.7-2.7-22.2-1.6-1.3.2-1.8-.5-1.5 1.5.7 4.7 9 15.9 13.8 17.2 14.3 3.9 32.1 2.3 46.7 2.2 28.7-.2 57.7.5 86 0 9.9-.2 27.5.7 36.6-2.4 3.9-1.4 15-16.6 12.9-18.5Z" class="shading" data-original-prefix="shading" opacity=".2"/><path id="outline-mouth9" class="outline"  fill="#000" d="M1213 1438c12.3-8.3 31.4-24.7 47.3-21.8 5.6 1.1 16.2 9.7 20.2 9.7s16.1-9.7 26.9-8.8c14.2 1.2 37.5 7.5 52.1 11 25.4 6 55.6 13.9 79.8 23.2 14.4 5.5 15.6 8 20.2 22.8 24.4 78-7.5 190.4-67 246-27.9 26.1-80.4 59.5-120 55-9.9-1.1-41.8-24.2-51.8-31.2-16.4-11.4-32.4-23.5-48.2-35.8l-26.2 17.3-4.1 11.4c-22.9 14.4-47.9 26.7-71.7 40.3-29.8 2.1-60 .5-90 .8-25.3-12.4-50.7-26.8-74.8-41.2l-4.1-11.4-26.2-17.3c-12.6 9.7-25.2 19.6-38.2 28.8-11 7.8-51.2 37-61.8 38.2-49.7 5.6-117.6-45.2-145.3-83.7-30.8-42.7-53-114.2-50.2-166.9.8-16 5.9-50.7 13.8-64.2 4.2-7.1 20.4-10.9 28.4-13.6 38.9-13 79.1-21.8 119.3-29.8 7.1-2 21.5 9 26 9s14.6-8.6 20.2-9.7c15.8-3 35 13.5 47.3 21.8-.6-5.2 2.2-8.8 4.6-12.9 11.9-20.9 38.4-53.2 55.4-70.6 3.9-4 9.4-7.1 13.5-11.5 7.4-7.8 13.6-19.5 21.5-26.5 14.7-13.2 47.3-29.7 66-37 7.8-3 24.5-9.8 32.2-8.3 21.1 4 74.9 31.4 90.7 46.2 7.1 6.7 13.4 18 20.5 25.5 24.6 26 50.3 50.6 68.9 82.1 2.4 4.1 5.2 7.9 4.6 12.9zm-75 132c4.9-38.1 23.1-74.8 47-104.5 5.9-7.2 20.9-19.4 18.8-29.8-.6-3.1-16.3-23.6-19.4-27.6-35.9-46.7-81.1-93.9-136.7-116.3-8.6-3.4-31.7-4.3-40.9-2.6-6 1.1-25.9 12-32.4 15.6-31.3 17.1-52.9 37.2-76.8 63.2-19.3 20.9-37.2 43.3-53 67-1.3 13.3 11.1 21.4 18.5 30.6 19.5 24.2 33 50 42.3 79.7l5.7 24.8-2.5-110.1h109.6c.6-14.5 4.5-26.9-2-40.9-1.7-.4-2 .7-3 1.5-4.3 3.3-19 22.3-21.5 22.6-3.8.3-15.3-12.2-18.5-15.5-8.8-9.2-21.8-22.7-29.4-32.6-5.2-6.8-7.2-10.2-3-17.8 5.2-9.5 24.4-34.6 32.4-41.6 5.6-5 7.8-5.3 14-1.9 12.4 6.8 24.9 17.3 36.7 25.3 12.6-7.5 25.2-18.9 38-25.7 6.3-3.3 9.1-1.7 14.3 3.3 7.4 7 27.9 33 32.1 41.9 3.3 7 .4 11.3-4.2 17.2-9.1 11.6-29.4 34.4-40.4 43.6-2.5 2.1-5.8 5.6-9.1 3.1-4.3-5-8.9-10.8-13.4-15.6-1.3-1.3-7.7-8.4-9-7.5-6.5 14-2.7 26.5-2 41h109.6l-1.6 110zm-249 90c2.7-2.6 7-27.7 7.1-32.5 1.1-71.5-27-138.5-83.6-182.5-9.4-7.3-19.9-16.9-32.5-12-.4 1.8.9 2.5 2 3.5 6 5.8 15 11.5 21.5 17.5 30.2 27.5 58.3 62.6 71.2 101.8 11 33.4 11.8 67.9 12.3 102.7-.7 1.7 1.5 2 2 1.5m379-227c-12.6-4.9-23 4.7-32.5 12-56.5 44-84.7 111-83.6 182.5 0 4.8 4.3 29.8 7.1 32.5.5.5 2.7.2 2-1.5.5-34.9 1.3-69.4 12.3-102.7 12.9-39.2 41-74.3 71.2-101.8 6.5-5.9 15.6-11.6 21.5-17.5s2.3-1.7 2-3.5m-597 24c110.3 31.7 186.1 161.6 142.5 272 10.7-8.6 21.6-17 32-26 6.6-5.7 18.3-14.2 21-22 8.1-23.2 7.7-59.1 4.3-83.3-7.9-56.5-37.7-102.4-83.5-135.5-10.7-7.7-40.1-26.1-52.7-25.1s-49.2 13.3-61.6 18.4c-1 .4-2.3 0-2 1.5m706-1c-11.8-3.6-23.4-7.8-35.2-11.3-8.3-2.4-26.2-8.7-33.8-7.3-34 6.3-82.9 52.1-101.4 80.6-27.6 42.6-42 114.3-25.1 162.9 2.7 7.8 14.4 16.3 21 22 10.4 9 21.3 17.4 32 26-39-99.2 17.5-212.7 108.8-259.2l33.7-13.8Zm-738.3 11.2c-48.2 7.5-39.8 78.4-32.2 112.8 11.2 51.4 35.8 106.3 79.8 137.2 33.4 23.4 88.7 51.4 114.9 3.5 31.5-57.6-4.1-148.3-44.7-193.7-25.1-28.1-78.2-65.9-117.8-59.8m755.1.1c-95.5 9.3-181.2 146.6-153.7 237.2 20.2 66.6 80 42 121.7 12.8 37.6-26.4 59.1-67.4 72.6-110.4 13.4-42.9 33.5-146.7-40.5-139.5ZM1130 1472H918v10h212zm-168 16c-.5-.5-13.8.5-14.8 1.2-.4.3-3 8.2-3 9.3s.9 3.2.9 5c-.7 45 1.8 90.2 4 135 .6 12.5-.3 25.2 2 37.5l12.9.9c.4-2.1 1-4.2 1.1-6.4 1.6-23.1-.7-47-1.1-70-.5-32.7-.3-65.4-2-98-.3-4.8.3-9.7 0-14.6Zm22.9.1c-.8-.7-10.7.3-12.9 0 .7 3.6-.9 7.1-1 10.5-1.3 50.7 1.8 105.1 3.1 156 .2 8.1-1.5 15.4 0 23.5 3 0 11.5 2.7 13.5 0 .8-1 2.3-9.6 2.5-11.5 1.2-14.5.2-33.2 0-48.1-.4-29.9-2.3-60.1-3.1-89.9-.2-6.4 1.2-37.6-2.1-40.4Zm32.1-.1h-20c0 5.7-1.1 10.8-1 16.6.7 50.7 1.4 102.3 4.1 152.9.2 2.8-.7 22.5 2.5 22.5h15.5c2.3-11.2 2.2-22.1 2-33.6-.7-45.4 1.2-94.1-1-139-.3-6.2-1.8-13.2-2-19.5Zm34 0h-20c-.2 6.3-1.7 13.2-2 19.5-2.2 44.9-.3 93.6-1 139-.2 11.5-.2 22.3 2.1 33.6h15.5c3.2 0 2.3-19.7 2.5-22.5 2.6-50.6 3.4-102.3 4.1-152.9 0-5.8-.9-10.9-1-16.6h-.2Zm25 0c-2.2.4-12.1-.6-12.9 0-.3.3-2 7.2-2.1 8.4-2.1 21.3-.4 48.1-.9 70.1-.8 31.4-4.6 69.1-2.1 100 .2 2.2 1.4 9.2 2.2 10.8 1.9 3.8 10.2.7 13.8.6 1.5-8.1-.2-15.4 0-23.5 1.3-51.4 3.7-103.6 3.1-155 0-3.9-1.6-7.5-1-11.5Zm24.8 1.2c-1.1-.7-14.3-1.7-14.8-1.2-1.3 37.5-1.4 75-1.9 112.6-.3 23-2.6 46.9-1.1 70 .8 11.5 5.5 4.4 14 5.4 3.7-41.7 4.1-83.5 5-125.5.4-16.9 2.4-35.1 1.9-52 0-1.1-2.6-9-3-9.3Zm-166.9.9-14.8.9c0 2.8-.3 5.7 0 8.5 3.5 55.5 2.8 111.7 8 166.9 0 1.1.9 6.2 1.1 6.4.4.4 8.8 1.6 9.7 1 2.7-10.8 2.3-22.2 2.2-33.4-.3-23.8-2.4-48.1-3.1-71.9-.7-22.2.8-47.4-.9-69.1-.3-3.2-1.1-6.3-2.2-9.3m195 1-14.8-.9c-.8 2.7-1.8 5.5-2.1 8.4-2.1 21.6-.3 47.9-1 70-.7 23.8-2.8 48.1-3.1 71.9 0 4.4-.4 32.9 2.7 33.6 1.1.2 8.9-.9 9.2-1.2s1-5.3 1.1-6.4c4.6-47.9 5.1-96.9 7.1-144.9.4-10.1.3-20.4.9-30.5m-195.6 213.6c-2-1.7-14.8-16.8-16.3-19.2-2-3.2-2.8-11.8-3-16-1.1-17.7 0-36.7-1-54.5l-2 9.5c-.6 8.7-.5 36.3-6 42-1.9 2-6.9 2.8-6.8 5.8l19.3 54.7 74.3 34.7c21.7.5 52.4 5.3 72.4-3 16.8-7 36.8-16.6 53.2-24.8 3.1-1.5 12.6-5.6 14.1-7.9l18.4-53.7c0-3-4.9-3.8-6.8-5.8-3.7-3.9-5.4-23.7-6-30-.6-7.1 0-14.4-1-21.5l-2 18.4c-.3 9.7 1 45.9-2.9 52.1-1.5 2.3-14.4 17.4-16.3 19.2-2.8 2.4-6.6 3.1-10.1 3.4-51.4 4.4-109-3.4-161.1 0-3.5-.3-7.4-1.1-10.1-3.4zm-38.3-.7-9-28c.6 4.1-4.7 16.8-3.9 19.3.3.8 12.2 9.4 12.9 8.7m258 0c.7.7 12.6-7.8 12.9-8.7.8-2.6-4.5-15.2-3.9-19.3zm-36-22c-16.1 1.9-32.3 4.7-48.5 6-24.9 2.1-51 2.6-76 1-20.6-1.3-41-4.9-61.5-6.5 1.7 3.3 7.5 14.9 10.5 15.5 55.4.7 110.5 1 165.8-.2 1.5-.5 10.4-15.1 9.7-15.8" class="outline" data-original-prefix="outline"/><path id="outline-mouth8" class="outline"  fill="#000" d="m1436.8 1563.8-50.7 34.2c-4-18.3-19.9-33.9-39-35l20.2-81.8c23.3-7.5 49.2-10.2 65.8 11.3 12.3 16 8.8 52.5 3.8 71.2h-.1Zm-9-8c2.3-18.7 3.1-41.1-9.8-56.3-9.5-11.1-28.8-13.4-41.8-7.3l-15.1 62.7c14.4 2.3 23.6 13.1 30.5 25.1z" class="outline" data-original-prefix="outline"/><path id="outline-mouth6" class="outline"  fill="#000" d="M1315.9 1589.1c-3.2 14.3-8.1 27.2-6.9 42.4.2 2.8 3.5 14.4 2.9 15.4L1243 1679c-3.3-39.5 4.8-84.4 31.5-114.8zM1253 1659l45.5-18.9c.3-7.5-1.1-15-.5-22.5.6-8.2 3.2-17.2 5.9-24.9l-24.9-14.2c-1.1-.5-2-.5-3 0-3.3 1.8-12.8 21.2-14.5 25.6-2.6 6.5-8.5 25.2-8.5 31.5v23.5Z" class="outline" data-original-prefix="outline"/><path id="outline-mouth61" class="outline"  fill="#000" d="m1320.1 1732.9 6.4-73.9c1.2-2.2 7.5-2.1 10.1-2.9 7.3-2.2 13-4.4 19.3-8.7 3.8-2.6 9.9-9.5 13.2-10.9 1.4-.6 2.3-.6 3.7.3l28.8 23.2c.8.7 1.4 1.5 1.4 2.6 0 3.4-16.1 23.8-19.5 27.5-10.6 11.7-44.7 41.1-59.5 43.6-1.4.2-2.6 0-3.9-.7Zm12.9-16.9c1.2 1.2 12.2-6.1 14.1-7.4 9.9-6.6 20.2-15.9 28.4-24.6 2.4-2.5 14.3-16.1 15-18.1.4-1.2.7-1.6-.5-2.5-6.2-2.6-13.9-13.9-19.1-16-1.4-.6-1.5-.2-2.6.3-6.2 2.4-15.3 11.1-22.6 14.4-10.2 4.6-12.8-.3-13.7 14.3-.3 5.5 1 10.1 1.1 15 .2 8.2-.2 16.4 0 24.5h-.1Z" class="outline" data-name="outline-mouth6" data-original-prefix="outline"/><path id="outline-mouth5" class="outline"  fill="#000" d="M1348.7 1574.2c9.1-1.4 16.2.2 22.2 7.3 23.8 27.5-23.6 86.8-50.5 63.5-21.9-19 1.7-66.6 28.2-70.8zm.1 9.1c-19.3 2.8-39.1 36.3-24.2 51.6 17.3 17.8 47.8-22.3 44.2-40.2-2-9.8-11-12.8-20-11.5Z" class="outline" data-original-prefix="outline"/><path id="outline-mouth4" class="outline"  fill="#000" d="M680.8 1481.2 701 1563c-19.6 1.1-34.5 16.9-39.5 35l-50.6-34.7c-4.5-19.3-8.4-55.2 4.6-71.3 16.9-21.1 42-18.2 65.3-10.8m-9 11c-12.9-6.1-32.3-3.9-41.8 7.3-12.9 15.2-12.1 37.6-9.8 56.3l35.5 24.1c1.8.3 6.2-8.6 7.9-10.8 6-7.5 14.3-12.2 23.5-14.7z" class="outline" data-original-prefix="outline"/><path id="outline-mouth3" class="outline"  fill="#000" d="m805 1679-69.1-32.7c2.3-8.9 3.8-17.5 3.1-26.8-.8-10.5-5.2-20.2-6.9-30.4l41.4-24.9c26.7 30.5 34.8 75.3 31.5 114.8m-10-20v-23.5c0-6.3-6-25-8.5-31.5-1.7-4.4-11.2-23.8-14.5-25.6q-1.5-.9-3 0l-24.9 14.2c2.7 7.8 5.3 16.7 5.9 24.9.6 7.6-.8 15-.5 22.5l45.5 18.9Z" class="outline" data-original-prefix="outline"/><path id="outline-mouth2" class="outline"  fill="#000" d="M727.9 1732.9c-.3.6-3 .8-3.9.7-14.8-2.5-48.8-31.9-59.5-43.6-3.4-3.7-19.5-24.1-19.5-27.5s.7-1.9 1.4-2.6l28.8-23.2c1.3-.8 2.2-.9 3.7-.3 3.2 1.4 9.3 8.3 13.2 10.9 6.3 4.3 12 6.6 19.3 8.7 2.7.8 8.9.7 10.1 2.9l6.4 73.9ZM715 1716c-1.4-16.4 2.9-32.9-.5-49-1-2.1-9.2-3.4-12.2-4.8-7.2-3.4-16.5-12.1-22.6-14.4-1.1-.4-1.2-.8-2.6-.3-5.2 2.1-12.9 13.4-19.1 16-1.1.9-.9 1.3-.5 2.5.7 1.9 12.7 15.5 15 18.1 8.2 8.7 18.5 18 28.4 24.6 1.9 1.3 12.9 8.6 14.1 7.4Z" class="outline" data-original-prefix="outline"/><path id="outline-mouth1" class="outline"  fill="#000" d="M687.7 1574.2c37.2-7.7 66 59.2 35.5 73.5s-68.2-42.3-45.8-66.8c2-2.2 7.4-6.2 10.2-6.8Zm2 9c-4.8 1.1-9.9 7.6-10.7 12.4-1.4 9.1 8.1 26.8 14.5 33.3 17.2 17.5 38.3 11.7 34.2-15.2-2.4-15.7-21.3-34.3-38-30.5" class="outline" data-original-prefix="outline"/></g></svg>