<?xml version="1.0" encoding="UTF-8"?>
<?xml-stylesheet type="text/css" href="styles/collection.css"?>
<svg xmlns="http://www.w3.org/2000/svg" viewBox="0 0 2048 2048"><g id="01_background" data-trait="gray"><path id="bg" d="M2048,4.6v2038.8c0,3.8-.8,4.6-4.6,4.6H4.6c-3.8,0-4.6-.8-4.6-4.6C.1,1362.3,0,681.2,0,0h2043.4c3.8,0,4.6.8,4.6,4.6Z" style="fill: #3a3b3f;"/></g><g id="02_Jaw" data-trait="doom-raider-mask"><path id="fill-jaw-main" class="fill"  fill="#fff" d="m637.2 1237.2 8.7-.3c13.5-36.6 25-74.9 39.3-111.1 40.9-102.9 149.2-171.1 251.8-201.2 96.8-28.5 178.1-7.9 265 37 60.9 31.4 126.9 87.1 155.2 150.8 8.4 18.9 7.3 37.3 13.6 53.4 7.2 18.6 28.3 46.1 38.7 65.3 15.6 28.9 30.5 61.7 44.3 91.7 1.6 3.4 9.1 18.6 8.9 20.7-26.3 40.9-55.4 79.9-82.8 120.1-25.7 22.3-52.4 43.6-77.4 66.6-10 22.3-16.2 46.5-26.5 68.5-40.4 24.2-79.2 55.9-120 79-37.8 21.3-82.4 35.7-121 56l-20.5.4-115.6-51.4c-45.5-28.4-92.8-54.2-138-83l-27.6-71.4-61.4-52.6-83.8-134.3c-.6-1.5 0-2.8.2-4.3 1.6-6.1 8.7-18.8 11.7-25.3 11.6-25.2 25.5-49.3 37-74.5h.2Z" class="fill" data-original-prefix="fill"/><path id="fill-jaw5" class="fill"  fill="#fff" d="M1353 1472c.3 1.4.2 1.3-.6 2.1-2.5 2.4-7.8 5.4-10.8 7.9-10.1 8.4-42.1 34.1-47.4 43.6-10.7 19.7-16.2 47.3-25.4 68.1l-39.1 20.4-58.7 38.8c20.2-48.3 28.3-100.5 36-152 1.4-1.4 10.5 6 16 3.5 25.4-22.1 55.1-38.7 85.8-52.3 15.6 3.6 29.6 13.3 44.2 19.9" class="fill" data-original-prefix="fill"/><path id="fill-jaw4" class="fill"  fill="#fff" d="M1337 1303c17.3-4.2 26.8-13.8 38-26.5 10.3-11.7 19.5-24.5 29.5-36.5 15.8 21.7 28.9 48.5 38.3 73.7 2.3 6.1 7.3 19.2 8.1 25 .2 1.9 0 2.2-.7 3.8-2.5 5.3-11.1 14.5-14.9 20.1-9.7 14-20.1 28.6-29 43-9 14.6-18.7 37.6-28.8 50.2-3 3.8-10.2 4.3-11.3.4-.6-2.2 13.9-36.1 15.9-41.8 1.7-4.7 8.4-21.2 7.8-24.8-.8-4.6-9.6-20.7-12.3-25.8-9-16.6-20.8-33.7-32.1-48.9-1.3-1.7-9.7-10.6-8.4-12.1v.2Z" class="fill" data-original-prefix="fill"/><path id="fill-jaw3" class="fill"  fill="#fff" d="M711 1303c.7.8-1.9 4-2.6 4.9-11.5 16.1-23.2 30.5-33.2 47.8-3.8 6.6-16 27.9-17 34.1-.6 3.6 7.9 25.6 9.8 30.8 4.4 12 10 23.8 13.9 35.8-6.4 5.8-9.5 2.2-13.3-3.4-10.5-15.6-19.1-34.6-29.2-50.8-8.2-13.2-17.8-26.6-26.6-39.4-3.9-5.6-12.4-14.8-14.9-20.1-.8-1.6-1-1.9-.7-3.8.8-6.2 5.7-18.7 8.1-25 9.6-25.7 22.5-50.4 36.8-73.8l2.4 1.1c9 11.5 17.9 23.4 27.6 34.4 11.3 12.9 21.3 23.6 39 27.5Z" class="fill" data-original-prefix="fill"/><path id="fill-jaw2" class="fill"  fill="#fff" d="M841 1501c7.2 51.6 16.2 103.4 35.5 152-31.8-20.5-62-43.8-97-59l-26-69c-16-16.8-34-32.2-52-47-2.1-1.7-8-4.2-5.8-6.1 2-1.8 13.4-7.5 16.7-9.1 4.1-2.1 22.8-10.9 25.9-10.6 31.6 12.9 62 30.9 87.8 53.3 3 2 13.5-6.1 15-4.5z" class="fill" data-original-prefix="fill"/><path id="fill-jaw1" class="fill"  fill="#fff" d="M846 1457c-9.4 1.7-24.2 21.3-32.4 21.1-3.7 0-14.6-4.8-18.5-6.6-11.7-5.2-24.9-13.3-36-20.1-5.3-3.2-20.9-15.6-25.7-16.4-3-.5-12.8 1.8-16 2.9-4.2 1.4-26.5 13.6-28.4 12-2.2-17.5-17.1-36.8-12.1-54.5 4.5-16.1 33.4-52.4 45.5-65.5 2.4-2.6 13.9-14.7 16.1-15 1.6-.3 3 .2 4.5.5 12.5 2.5 27.7 8.8 40.7 12.3 27.9 7.4 55.9 13.4 84.6 16.9 22.7-11.5 45.5-22.8 69-32.8 48.7-20.8 80.7-34.3 134.2-15.8 36.9 12.8 73.1 31.7 108.1 48.7 44-5.4 86.9-16.7 128.9-30.3 4.5.4 28.7 29.4 32.9 34.7 9.2 11.7 19.5 25.6 26.1 38.9 4.6 9.2 6 13.9 3.4 24.5l-13.4 38.5c-8.4-3.8-18.3-10.2-27-13-2.9-1-13.4-3.3-16-2.9-4.8.8-25.2 16.2-31.3 19.8-10.7 6.4-24.5 14.6-36 19-3.2 1.2-10.8 4.4-13.8 4.3-6.3-.2-20.6-16.3-28.1-19.9-1-.5-2.2-1.8-3.3-.7-8.5 54.2-15.6 108.7-31.7 161.3-2.8 9.2-8.5 29.8-12.8 37.2-2.3 3.9-32.3 32.9-36.5 35.5-11.1 6.6-43 19.6-55.9 24.1-8.3 2.9-32.6 9.3-40.6 9.4-7.2 0-32.2-6.3-39.9-8.9-12.8-4.2-53.9-21.4-63-29-5.2-4.3-28.6-27.1-31.3-31.7-3.1-5.3-7.2-19.9-9.4-26.6-18.3-55.7-26-113.9-34.8-171.8Z" class="fill" data-original-prefix="fill"/><path id="outline-shading-jaw1" class="outline"  fill="#000" d="M1278 1304c.5 1.8 5.6-.4 6.8-.8 16.4-4.8 50.7-16.4 63.7-26.3 12.3-9.2 23.4-45.9 32.7-60.3 2.3-3.5 4.1-6.2 8.8-6.7 0 1.4 0 2.8-.2 4.3-1.8 8.2-7.7 21.7-11 30s-14.4 36.4-19.8 41.2c-3.5 3.1-22.8 10-19.5 16.5 1.1 2.2 11.8 12.2 14.5 15.6 10.3 12.7 18.4 26.9 27.7 40.4 25.3-5.7 50.8-12.9 73.8-24.9l1.1 4-73.1 127.9c-18.1 13.1-38.3 23.5-55.9 37.1l-50 98c-26.9 17.7-58.7 32.4-84.5 51.5-17.4 12.9-36.6 35-54.2 45.8-20.2 12.5-48.9 21.8-70.4 32.6l-92.5-.5c-20.4-12.1-46.2-19.8-66.3-31.7-19-11.3-39.6-35.5-59-49.1-25-17.6-54.1-32.4-80.5-48l-49.8-98.7c-17.4-13.3-37.2-23.2-54.4-36.6l-76-128 2.4-4.4c23.1 11.8 48.5 19.2 73.8 24.8 10.5-16.1 20.6-32.3 33.2-46.9 2.8-3.2 9-6.9 8.3-11.2-1.4-8.8-16.4-9.6-22-18.1-7.5-11.3-17.8-38.9-22.5-52.4-1-2.8-6.5-17.8-5.2-19.2 6.4.5 9.4 8.2 12.2 13.3 5.9 11.2 10.3 23.4 16.3 34.7 2.4 4.6 7.8 14.9 11.3 18 4.7 4 18.1 9.8 24.3 12.4 14.5 6.2 29.8 11.2 45 15.5-16.4-12.2-34.8-21.6-50-35.5-18.3-16.7-19.6-34.6-30.5-55.5-5.2-10.1-12.3-19.1-18.3-28.7-1.8-6.8 5.4-21.6 6.5-29 2.8-19.1 3.8-27.8 12.1-45.9 42.8-94 156.1-156.3 251.2-184.8 55.5-16.7 109-17.9 165-2 99 28.1 225.1 96.5 262.8 198.2 5.1 13.9 5.1 20.8 7.5 34.5 1.2 7.1 7.8 22.1 6.7 28.2-.6 3.4-14.5 22.1-17.5 27.5-11.3 21-13 40.9-31.5 57.5-15.3 13.8-35 25.6-53 35.5v.2Zm-200 23c-5.5-11.1-10.5-24.8-17.6-34.9-4.2-6.1-10.2-10.5-14.9-16.1-3.4-4-15.2-20.5-18.4-21.6-1.9-.6-4.4-.8-6.3-.2-2.4.7-15.7 18.7-18.7 22.3s-7.4 6.8-10.5 10.5c-9.4 11.2-15.1 26.9-21.5 40h108Zm-309.5-23v1c.7-.3.7-.7 0-1m68.5 40c-31.5-5.4-62.3-14.5-92.5-25-4.9-1.7-27.1-11.3-30-11s-12 13.5-14.3 16.7c-3.2 4.4-25.2 35.5-25.2 37.8s9.4 13.2 10.2 17.3c32.5 5.7 63.8 16 95.1 26 4.2-.8 6.5-2.9 9.2-5.8 9.8-10.1 18.8-24.6 28.5-35.5 4.9-5.5 14.2-12.6 18-18 .6-.8 1.4-1 1-2.5m525.8 35.8c.4-4.4 10.8-15.1 10.1-18.1-5.5-6.9-33.4-52.2-38.6-53.6-1.1-.3-2.2 0-3.3.3-38.7 15.6-78.8 28.3-119.9 35.6-.4 1.5.4 1.7 1 2.5 4.5 6.6 16.4 16.4 22.5 23.5 7.8 9 15.1 20.7 23 29 3 3.2 5.7 6 10.3 6.8 31.2-10.1 62.6-20.3 95.1-26zM720 1472c-.4 1.7.5 2 1.5 3 9 8.8 25.2 15.4 33.5 25.5s18.5 37.1 27.1 44.9c3 2.7 10.5 6 14.5 8.6 13.2 8.8 26.3 18.2 39.5 26.6l3.8-5.9-28.3-64.7c-11-6.6-68.3-43.6-76.8-42.8-1.4 0-14.3 4.2-14.8 4.8m608 0c-5.2-.6-13.1-5.9-18-4.6-24.8 13.7-50.3 26.3-73.5 42.6l-27.8 63.3c-1.3 2.2 2.5 8.4 5 7 9.7-7.4 19.7-14.5 29.8-21.3 5.5-3.7 18.6-10 22.5-13.5 8.1-7.4 18.5-33.8 26.1-43.9 7.6-10.3 25.5-17.8 34.5-26.5 1-.9 1.9-1.3 1.5-3Zm-194 173c-2.1-.2-3.8 0-5.7.8-24.5 9.4-50.2 38.1-77.1 42.9-17.9 3.2-50.3 3.7-67.2-3.2-20-8.2-44-31.6-64.3-39.7-1.5-.6-6.2-2.2-5.7.7 1.2 7.7 10.9 21 16 27 6.2 7.3 8.1 8.8 16.3 13.7 30.2 18.1 49.5 27.8 86.2 25.9 21.1-1.1 31-5.5 49.1-14.9 19.5-10.1 34-17.7 45.7-37.3 1.2-2 7.5-15 6.6-15.9z" class="shading" data-original-prefix="shading" opacity=".2"/><path id="outline-jaw1" class="outline"  fill="#000" d="M685 1126c.2 0 1 1.5 2.2 2.2 4.7 2.7 8.7.5 9.7 8.4.6 5.1-2.7 26.3-4.4 31.4-2.8 8.6-17 13.5-21 21-1.2 2.3-7.8 31.1-7.5 33.3.4 3.4 9.5 19 11.8 23.3 4.4 8.2 15.3 29.4 20.7 35.3 9.5 10.3 60.5 26.3 75.9 31.1 29.2 9 59.3 17.4 90 18 29.3-10.7 57.9-23.1 87.2-33.8 16.6-6 42.9-17.7 59.8-17.3 21.9.5 35-1 56.2 5.8 39.5 12.7 77.8 29.4 116.4 44.6 46.7-.8 99.9-16.6 143.1-34.6 5.7-2.4 21.2-9 25.2-12.8 4.6-4.5 15-24.5 18.7-31.3 2.7-4.9 14.7-25.5 14.9-29.2 0-1.7-6.8-30.9-7.6-32.4-3.6-6.8-19-13.6-21.2-20.8-1.7-5.6-5-27.5-4.2-32.7 1-6.5 5.7-5.1 9.7-7.3 1.2-.7 2.1-2.1 2.2-2.2 2.3-1.2 6.9-4.1 9.1-2.6 2.4 1.7.2 26 1.4 30.6 6.9 5 22.7 5.9 26 14 1.1 9.9.5 20.6 1.6 30.4.3 2.9 1 10.8 2.2 12.8 1 1.8 3.1 2.2 4.3 3.7 26.6 31.1 46.5 67.2 61.9 105.1 2.3 5.6 7.6 17.3 8.3 22.7.2 1.4.3 2.7-.6 3.9-24.7 33.2-47.1 68.3-68 104-2.9 4.9-18.6 36-20.4 37.1-3.5 2-13.7-4.6-17.5-3.1-10.9 9.5-22.5 18.2-33.3 27.8-4.6 4-16.5 13.5-19.4 17.6-5 7.1-14.8 34.1-18.3 43.7-4.2 11.1-7.7 22.4-11.3 33.7-32.1 13.9-63.4 31.2-92.5 50.5-20.4 13.5-36.7 25.2-52.5 43.5-9.8 11.4-37.1 18.8-51.9 25.1-22.8 9.6-45.2 20.4-68.5 28.3l-111.2-45.6c-6.9-2.5-9.5-12.1-13.6-15.9-1-.9-2.9-1.1-4.2-2.3-38-35.4-88.6-61.7-135.5-83.5-7.9-26.5-18.8-52-29.6-77.4-17.4-15.7-35.2-31-53.5-45.5-3.5-1.2-13.5 6.1-17.5 2.5-26.4-48.4-54.7-96.1-87.7-140.3-.8-1.3-.8-2.5-.6-3.9.7-5.4 6.1-17.1 8.3-22.7 14-34.4 31.7-67.2 54.5-96.5 8.8-11.4 12.5-9.5 14-26 .9-9.8 0-20.6 1.5-30.5 4.2-7.9 25.3-7.7 26.5-16.5.5-3.9-1.1-7.1-1-10.1 0-5.3 2-11.7 1-17.5 3.8-.6 6.8 1.5 10 3h.2Zm26 177c-17.7-4-27.7-14.6-39-27.5-9.7-11-18.5-22.9-27.6-34.4l-2.4-1.1c-14.2 23.4-27.2 48-36.8 73.8-2.4 6.3-7.3 18.9-8.1 25-.2 1.9 0 2.2.7 3.8 2.5 5.3 11 14.5 14.9 20.1 8.8 12.8 18.4 26.2 26.6 39.4 10.1 16.2 18.6 35.2 29.2 50.8 3.8 5.6 6.9 9.3 13.3 3.4-3.9-12-9.5-23.8-13.9-35.8-1.9-5.2-10.4-27.1-9.8-30.8 1-6.2 13.2-27.5 17-34.1 10-17.3 21.8-31.7 33.2-47.8.7-.9 3.3-4.1 2.6-4.9Zm626 0c-1.3 1.4 7.1 10.4 8.4 12.1 11.3 15.2 23.1 32.3 32.1 48.9 2.8 5.1 11.5 21.2 12.3 25.8.6 3.5-6.1 20.1-7.8 24.8-2 5.7-16.5 39.7-15.9 41.8 1.1 3.9 8.3 3.4 11.3-.4 10.1-12.7 19.7-35.6 28.8-50.2 8.9-14.4 19.3-29 29-43 3.9-5.6 12.4-14.8 14.9-20.1.8-1.6 1-1.9.7-3.8-.8-5.8-5.8-19-8.1-25-9.4-25.2-22.5-52-38.3-73.7-10 12-19.2 24.7-29.5 36.5-11.2 12.7-20.7 22.3-38 26.5v-.2Zm-491 154c8.7 57.8 16.5 116.1 34.8 171.8 2.2 6.6 6.3 21.3 9.4 26.6 2.7 4.6 26.2 27.4 31.3 31.7 9.1 7.6 50.2 24.8 63 29 7.7 2.6 32.8 9 39.9 8.9 8-.2 32.3-6.6 40.6-9.4 12.9-4.5 44.9-17.4 55.9-24.1 4.2-2.5 34.2-31.6 36.5-35.5 4.4-7.4 10-28 12.8-37.2 16.2-52.6 23.2-107.1 31.7-161.3 1.1-1.1 2.3.2 3.3.7 7.5 3.5 21.8 19.7 28.1 19.9 3 0 10.6-3.1 13.8-4.3 11.5-4.4 25.3-12.6 36-19 6.1-3.6 26.4-19.1 31.3-19.8 2.6-.4 13 2 16 2.9 8.6 2.8 18.6 9.2 27 13l13.4-38.5c2.5-10.5 1.2-15.2-3.4-24.5-6.6-13.3-16.9-27.2-26.1-38.9-4.2-5.3-28.4-34.3-32.9-34.7-42 13.6-84.9 24.9-128.9 30.3-35-17-71.2-35.9-108.1-48.7-53.5-18.5-85.5-4.9-134.2 15.8-23.5 10-46.2 21.3-69 32.8-28.7-3.5-56.7-9.6-84.6-16.9-13-3.4-28.2-9.8-40.7-12.3-1.5-.3-2.9-.7-4.5-.5-2.1.3-13.7 12.4-16.1 15-12.1 13-41 49.3-45.5 65.5-5 17.8 9.9 37 12.1 54.5 1.9 1.6 24.2-10.6 28.4-12 3.2-1.1 13-3.4 16-2.9 4.8.8 20.3 13.2 25.7 16.4 11 6.7 24.3 14.8 36 20.1 3.9 1.8 14.8 6.5 18.5 6.6 8.2.2 23-19.4 32.4-21.1Zm-5 44c-1.5-1.6-11.9 6.6-15 4.5-25.7-22.4-56.2-40.4-87.8-53.3-3.1-.3-21.8 8.5-25.9 10.6-3.3 1.6-14.7 7.3-16.7 9.1-2.1 1.9 3.8 4.4 5.8 6.1 18 14.8 36 30.2 52 47l26 69c35 15.1 65.2 38.4 97 59-19.3-48.5-28.3-100.3-35.5-152zm512-29c-14.7-6.6-28.6-16.2-44.2-19.9-30.7 13.7-60.4 30.3-85.8 52.3-5.5 2.5-14.6-4.9-16-3.5-7.7 51.5-15.8 103.7-36 152l58.7-38.8 39.1-20.4c9.2-20.8 14.7-48.4 25.4-68.1 5.2-9.6 37.2-35.2 47.4-43.6 3.1-2.6 8.3-5.6 10.8-7.9.8-.8.9-.7.6-2.1" class="outline" data-original-prefix="outline"/></g><g id="03_Mouth" data-trait="scrappy"><path id="fill-muzzle" class="fill"  fill="#fff" d="M1038 1292s-.4 1.7.7 2c10.3 2.8 18 4.3 25.8 13 1.9 2.2 4.9 8.8 6.5 9.5 2.6 1.2 6.6 0 9.5.5 11.4 1.5 21.2 3.7 31.2 9.8 2.1 1.3 9.2 7.8 10.2 7.1.3-.3 0-1.7 0-1.9 2.4-1.8 32.7.6 38 1 5.2 4.2 13.2 5.5 19.2 8.3 13.7 6.4 22.5 16.1 29.9 29.1 8.4 14.6 7.7 17.8 3.1 33.4-2.5 8.5-4.8 21.8-16.3 20.2 1.5-15.5-14.8-32.4-26.5-41-3.2-2.4-11.3-7.2-6 0 10.8 14.7 20.2 14.8 21.5 37.5.6 10.3-8.4 32.9-15.4 40.5-.6.7-7.1 6.3-7.6 6.5-3 1.6-6.9-6.1-7.8-8.2-3.6-7.8-4.7-15.5-9.7-23.3-1.1-1.7-10.8-13.7-12.4-12.1 5.6 13 9 46.2-2.5 56-4.4 3.7-9.4 1.9-13.3 3.7-2.8 1.3-3 5.7-4.8 6.1s-7-3.1-9.4-3.5c-8.9-1.3-13.2 17-18.7 17.5-2.5.2-10.7-11.9-18.4-9.4-7 2.2-15.4 21.2-24.4 23.6-6.3-6-3.4-14-5.8-21.2-1.2-3.5-4.2-6.7-5.8-10.2-5.4-12.7-2.8-19.9-.2-32.2.6-3 0-5.9.9-9.1.2-.7 6.3-12.3 6.9-13.1 3.7-5.4 19.2-12.4 22.7-3.8.9 2.2 0 8.7 2.2 7.7 5.1-4.9 10.2-9.9 15.5-14.5 11.5-10 14.1-9.7 21.2-24.8 1.5-3.3 6.5-14.5 6.6-17.3 0-3.4-9.2-14.7-11.8-17.8-1.4-1.7-9.5-11.5-10.2-11.8-6.4-3.2-28-2.3-34.7.8-7.9 3.6-12.5 12-19 17-1 .8-1.3 1.9-3 1.5l.8-12.7c3.6-4.3 21.7-23.3 21.1-27.5-.4-2.6-11.3-13.4-12.9-11.7 4.4 12.8.7 8.7-7.3 12.2-1.2.5-2.9 2.7-3.2 2.7s-2-2.2-3.2-2.7c-3.4-1.5-9.7-.4-9.3-5.6 0-1.1 4.1-7.6.5-6.6-2.8.8-12 9.9-11.3 13.2 0 .6 4 7 4.8 8 1.5 2 5 5.9 7 8.3 3.2 3.9 9.7 7.6 9.9 13.1 0 1.6-.8 3.1-.8 4.8s2.6 8.1-2.5 3.6c-6.2-5.3-10.2-13.6-18.5-17.5-6.5-3-30.3-4.3-35.7-.2-.8.6-8.8 10.5-10.2 12.2-2.4 3-10.9 13.7-10.8 16.8.2 5.4 11.7 29 15.7 33.2 3 3.2 9.3 6.8 13 9.9 5 4.3 9.7 9.1 14.5 13.5l4.2-11.1c4.9-3.1 17.7 2.6 20.8 7.1 1 1.5 5.1 9.9 6 11.9 2.8 6.4 5.1 25.4 4.4 32.4-1.1 10-7.9 15-9.4 22.6-1.3 6.4 1.1 14.9-5.8 18.9-8.1-2.6-17.3-21.5-23.6-23.5-8.2-2.6-15.9 9.6-18.4 9.4-5.3-.4-8.7-14-13.9-16.1-6.9-2.8-11.5 2.7-14.1 2.1-1.8-.4-2-4.8-4.8-6.1-4.5-2-9.6.3-14.3-4.7-10.9-11.5-6.5-42.2-1.5-56.1-9.1 6.7-14.1 14.8-18.5 25-1.6 3.6-2 7.5-3.7 11.3-1 2.1-4.9 9.8-7.8 8.2-.4-.2-6.9-5.9-7.5-6.5-3.9-4.3-13.8-24.4-15-30-2.8-12.9 1.4-26.5 9.5-36.5 4.1-5.1 11.3-9 13-15.5-2.4-2.4-22.3 17.4-24.4 20.1-5.4 6.8-11 15.9-9.6 24.9-8.3.5-10.7-3.3-13.3-10.2-2.7-7.1-7.8-22.8-6.2-29.8 3.7-16.2 21.4-35.8 36.3-42.7 6.2-2.9 13.9-4.1 19.2-8.3 12.5-.8 24.5-2.3 37-1 0 0 .7 2.1.5 3 9.5-8.2 20.6-14.8 33.1-16.9 4.7-.8 14.8-.4 18.1-1.8 1.6-.7 5.2-7.7 7.2-9.9 8-8.4 15.2-9.7 25.4-12.5 1.1-.3.6-1.9.7-2 1.1-.7 25.9-.7 27 0v.2Z" class="fill" data-original-prefix="fill"/><path id="fill-teeth14" class="fill"  fill="#fff" d="M1039.1 1601.9c-.8-.5-7.2-15.4-7.9-17.6-4.2-13.6-7-37.9-1.5-51.1 5.8-13.9 10.8-1 20-5 1.9-.8 7.6-6.8 9.2-8.8 2.6-3 3.6-9.1 8-8 12.8 3.1 21.1 24.2 22 36.1 2.3 30.4-23.4 40.7-45.2 53.7-1.2.5-3.6 1.3-4.6.6Z" class="fill" data-original-prefix="fill"/><path id="fill-teeth13" class="fill"  fill="#fff" d="M1015.7 1527.3c10.2 8.9 6 44.1 2.3 56.2-1.9 6.4-6 12-8.1 18.3h-2.3c-12.1-7.1-26.3-12.4-36.1-22.9-9.1-9.8-12.3-17.9-11.5-31.5.8-11.8 9-32.3 21.2-35.9 4.8-1.4 5.7 4.5 8.2 7.4 1.8 2.1 8.3 8.8 10.5 9.5 6 1.9 12.5-4.1 15.8-1.3z" class="fill" data-original-prefix="fill"/><path id="fill-teeth12" class="fill"  fill="#fff" d="M904 1461c0 2.2-1.1 3.8-.8 6.2s7.4 22.5 8.8 24c3.7 4.1 11.1 2.3 15.9 2.9 4.9 13.5-4.3 23.9-8.6 35.6-2 5.3-8.4 33.1-12.8 34.3-3.3.8-11.7-18-12.8-21.2-6.8-20.9-8.8-51.8 1.8-71.7.6-1.2 7.1-11.6 8.4-10.1Z" class="fill" data-original-prefix="fill"/><path id="fill-teeth11" class="fill"  fill="#fff" d="M1144 1564c-1 .7-1.8-.4-2.4-1.1-5.8-5.8-8.7-24.8-11.8-33.2-4.3-11.7-13.8-21.9-8.6-35.6 18.6 2.9 18.2-8.8 23.1-22.4l2.2-9.8c10.2 11.1 15.2 27.6 14.6 42.5-.5 13.7-3.2 35.3-9.5 47.5-.8 1.5-6.9 11.6-7.5 12Z" class="fill" data-original-prefix="fill"/><path id="fill-teeth10" class="fill"  fill="#fff" d="M949 1569c5.5 22.1 11.4 45.4 9 68.5-.5 5-1.3 9.2-7 6.9-3.4-1.3-17.5-13.4-19.5-16.5-7.4-11.8.3-39.7 8-50.8 1.2-1.7 7-10.1 9.4-8.1Z" class="fill" data-original-prefix="fill"/><path id="fill-teeth9" class="fill"  fill="#fff" d="M1100 1569c3.4-2.9 13.3 14.1 14.5 17 4.8 11.7 9.3 33.5 1 44-2.1 2.7-18.5 16.5-20.9 15.9-1.9-.4-3.4-6.5-3.6-8.4-1-8.7 0-26 1-35 1.1-10.9 6.5-22.5 8-33.5" class="fill" data-original-prefix="fill"/><path id="fill-teeth8" class="fill"  fill="#fff" d="M1167 1547c.9-6.7-1-15-.6-21.3.3-6.3 3.7-14.6 3.6-21.2 0-5.7-4.8-19.5-4-24 .5-2.9 3.5-2.8 5.5-4.5 6.2-5.3 10.4-15.8 16.9-4.9 14.2 23.5-1 56.5-18.4 74.4-.9 1-1.3 1.9-3 1.5" class="fill" data-original-prefix="fill"/><path id="fill-teeth7" class="fill"  fill="#fff" d="M881.7 1478.3c3.3 2.9-2.8 21-2.8 26.2s2.6 12.6 3.1 18c.7 8 0 16.5-.5 24.5-1.8 0-11.7-13.3-13.3-15.7-11.2-16.8-20.3-43.7-7-61.7 6.2-8.4 9.7.9 14 4.7 2 1.9 5.7 3 6.6 3.9Z" class="fill" data-original-prefix="fill"/><path id="fill-teeth6" class="fill"  fill="#fff" d="M1018 1613v16.5c0 .9-10.8 13.2-11.9 14.1-6.3 4.8-8-2.6-10.6-5.5-5.5-6-17.9-.4-24.4-5.6-.9-.7-4.1-8.3-4.1-8.9v-24.5c12.3 3 28.7 18.5 41.4 16.9 3.5-.4 6.1-3 9.6-2.9Z" class="fill" data-original-prefix="fill"/><path id="fill-teeth5" class="fill"  fill="#fff" d="M1102.5 1494c3.3-.8 5.3 8.5 6.3 10.7 5 10.5 15.3 30.3 11.4 42.1-2.2 6.7-15.6 23.4-20.4 11-4-10.4-4.1-44.7-1.1-55.5.4-1.6 2.4-7.9 3.8-8.2Z" class="fill" data-original-prefix="fill"/><path id="fill-teeth4" class="fill"  fill="#fff" d="M917 1563c-1.6 13.5 2.8 27.4 2 40.5-.5 8.8-4.2 18.6-5.5 27.5-5.8-5.6-10.5-15.7-11.4-23.6-.6-5.2.7-25.8 2.4-30.3.6-1.6 10.5-16.2 12.4-14.1Z" class="fill" data-original-prefix="fill"/><path id="fill-teeth3" class="fill"  fill="#fff" d="M1135 1631c-.4-8.9-4.4-17.8-5.1-26.5-1-13.6 3.6-27.7 2-41.5 2.2-2.4 11.9 13 12.5 15 2 6.8 2.7 27.3 1.2 34.3-1.3 6.3-5.5 14.8-10.8 18.7z" class="fill" data-original-prefix="fill"/><path id="fill-teeth2" class="fill"  fill="#fff" d="M1154.1 1604.9c-3.4-2-5.1-22.3-3.9-26.2.8-2.6 8.9-5.2 10.2-8.8l5.1-10.9c3.8 3.4 5.1 7.2 4.3 12.2-.7 4.5-5.2 22.3-6.9 26.2-.9 2.2-6.1 9-8.8 7.5" class="fill" data-original-prefix="fill"/><path id="fill-teeth1" class="fill"  fill="#fff" d="M885 1559c.4.4.7 7.1 3 10.5 2.7 3.9 10.5 6.9 11 10-.8 4.7-.7 23-4 25.4-2.5 1.8-7.7-4.5-8.7-6.7-1.6-3.6-6.3-22.5-7-27-.6-3.9 2.5-15.6 5.8-12.3Z" class="fill" data-original-prefix="fill"/><path id="outline-shading-mouth2" class="outline"  fill="#000" d="M918 1443.5c.8 5.3 5.6 13.8 10.1 16.9 11.5 8.3 16.2-.3 22.4-9.4 2.5 5.4 3.4 11.5 6 17 1.4 2.8 5.7 12 7.5 5.5l4-11.5c1.6 7.5 6.3 15.4 11.5 21 4.3 4.7 18.8 15.4 24.6 9.6 2-2.1 8.3-17.9 10.8-22.2 1.2-2.2 7.8-13.8 9.7-13.3 1 .2 8.5 13.2 9.7 15.3 2.4 4.5 7.3 17.7 9.8 20.2 3.8 3.8 10.5.4 14.4-1.8 10.5-5.9 18.5-17.2 21.7-28.8l4.2 12.3c.3 1.2 1.9 2.4 2.8 1.7.6-.4 5.8-11.3 6.5-13 .8-2 2.8-12 4-12 6.8 10.7 12.9 18.4 24.5 7.5 8.6-8 9.3-23.8 7-34.5 3.5-3.1 21.1 16.1 26.6 16.9 9.1 1.4 17.6-11.8 19-19.9 3.5-20.5-12.9-39.2-30.9-46.2l-12.7-4.8c15.4 0 28.2 2.9 41.1 11.4 4.8 3.1 12.2 10.9 17.6 11.4 6.2.6 10.1-4.1 10-10-.4-19.3-25.8-38.1-39.7-48.8 15.4 2.4 34.6 11.8 45 23.5 7.8 8.8 19.1 25.1 19.1 37s-6.4 28.5-9.2 32.8c-3.3 5.3-11.7 5.4-13.4 10.6-.9 8.1-2.1 16.4-2.5 24.5-1.5 29 1.4 45.2-10.8 73.2-3.6 8.2-12.7 20.4-14.9 27.1-4.2 12.8-.7 26.4-9.1 38.9-3.2 4.8-8.4 6.7-11.2 10.8-1.7 2.5-2.4 6.1-4.2 8.8-4.5 6.7-14.6 23-21.6 8.9-1.6-3.3-1.3-12.9-6.7-6.2-1.4 1.7-1.9 4.4-3.5 6.5-3.7 4.7-17.7 19.6-23.5 19.5-2.2 0-4.5-4.1-6.6-5.4-7.9-5-21.1-6.3-29.2-1.4-7.3 4.4-9.5 13.6-18.1 6.8s-6.4-10.8-20.1-9c-5.6.7-11.4 12.6-16.9 12.1-2.8-.2-11.4-11.1-18.5-12.6-6.3-1.3-17.5.7-23 4.2-2.6 1.7-4.1 5.6-7.5 5.4-5.7-.3-19.8-15.8-23.6-20.5-1.2-1.5-4.4-10.6-7.1-6.9-2.5 3.4-.6 9.9-7.2 12.7-7 3-14.9-11.2-18.1-16.4-1.2-1.8-1.2-4.3-2.6-6.4-2-3-6.8-5.4-9.5-8.5-10.4-11.9-6.7-27.7-10.7-41.3-.8-2.6-5.6-8.5-7.3-11.7-18.4-35.7-16.4-45.6-18.4-84.6-.4-7.7-.6-20.7-2.2-27.8-1.5-6.2-11.1-6.1-14.2-11.8-3.4-6.1-9.3-29.6-8.6-36.4 1.2-10.3 16.2-31.2 24-38 10.5-9.2 26.2-16.5 40-18.5l-21.5 17c-7.2 6.4-26.8 32-14.8 39.9 9 5.9 16.7-4.5 23.7-9.1 12.7-8.4 25.3-11.8 40.7-11.8l-17.3 7.2c-18 9.4-33.1 32.7-22.1 52.8 1.7 3.1 8.6 10.4 12 11.1 9.1 1.7 20.7-15.4 29.5-18 .6 6.4-.9 14.3 0 20.5zm-37.1 40.6c-12.3-.5-17.1-20.2-22.8 1.5-3.4 13 1.2 26.4 9.4 36.5 1.5 1.8 12.7 13.1 13.9 12.9.8 0 2.5-2.3 2.8-3.2 2.9-7.1-3.2-12.2-4.2-19.2-1.5-9.8 0-18.7.9-28.4Zm301.8-8.9c-3.2.8-6.3 6-8.8 7.3-2.1 1.1-7.2 1-7.8 3.2-.5 1.7 3 10.8 2.9 14.8 0 3-1.5 13.9-2.2 16.8-.9 3.6-3.9 5.7-3.9 10.2s1.4 7.1 3.7 7.4c1.9.3 15-14.4 16.8-17 5.7-8.5 9-18.8 7.3-29.2-.5-3-4.4-14.5-8-13.6Zm-284.8 10c-4-2.3-6.5 9.9-6.8 12.5-1.2 10.5 3 38 8.7 47.1 1.9 3 5.4 6.9 9.2 7.3 3.7-15.6 12.6-29.2 21-42.5-2.3-.4-1.7-2.9-2.7-3.5-1.5-.9-7-1.9-9.7-3.1-4.7-2.2-12-7.7-15.6-11.4-1.2-1.2-3.8-6.2-4.2-6.3ZM1139 1552c8.3-2 11.9-12.2 13.9-19.6 3.1-12.1 6.1-33.4 1.1-44.8-3-6.9-5.8 1.7-8.3 4.1-3.9 3.8-11 9.3-16 11.6-2.5 1.1-7.8 1.8-9.1 2.7-.7.5-.5 1.8-1 2.7-.3.4-1.7.4-1.6.9 0 1 7.9 12.3 9.2 14.8 4.8 8.8 9.1 18 11.8 27.7Zm-197.7 5.7c8.1 8.1 9.5 0 10.5-7.3.8-5.6 2.7-20.6 1.7-25.4-3.6-17.2-21.3-15.9-21.6 3.6 0 6.8 4.6 24.3 9.4 29.2Zm161.5-44.5c-5 1.3-8.5 9.3-8.8 14.2-.2 4 2.4 28.5 3.8 31.3 2.5 5 7.5 0 9.8-2.7 6.8-8.3 11.6-30.7 4.5-39.5-2.7-3.3-4.8-4.4-9.2-3.3zM1023 1544c-.7-.7-.8-7-5.1-9.4-8.9-5-21.8-.8-32-4-10.4-3.3-9.4-13.1-16.1 1.8-2.9 6.4-9.1 24.4-6.3 30.7 1.1 2.4 17.8 15.6 21.2 17.8s18.2 11.7 21.1 10c3.1-5.6 9.3-9.5 12.6-14.9 1.8-2.8 4.1-11.5 4.6-11.9 1.6-1.7 1.7.5 2.1 1.4 1.6 3.6 2.1 6.8 4.5 10.5 3.3 5.2 9.2 9.3 12.4 14.6 3.1 1.9 15.5-5.9 18.9-8.1 4.5-2.9 22.9-17 23.9-21.1 2.2-9.7-6.6-28.3-10.9-37.2-4.9 1-7.8 5.2-12.7 6.7-9.2 2.8-28.2-1.6-33.7 6.3-.9 1.2-2.6 8.9-4.5 7zm-136 18c-.7-.6-3.5 0-4.5.9-6 6.2 2.4 31.6 14.6 27.6 4-1.3 3.8-9.4 2.8-12.9-1.1-3.9-7.2-4.1-9.8-7.2-2.1-2.5-2.7-8.2-3-8.5Zm274.1 0c-.3.3-.9 6-3 8.5-2.6 3.1-8.7 3.3-9.8 7.2-1 3.4-1.2 11.6 2.8 12.9 13.4 4.4 20.2-24.5 14.1-28.1-.9-.5-3.5-.9-4-.4Zm-216.4 7.2c-1.5.4-5.1 4.6-6 6.1-3.4 5.6-5.6 32.3-4.8 39.3 1.3 10.9 15.2 18 19.5 3.5 1.7-5.6 2.6-21.4 2.5-27.6 0-1.1-5.8-19.7-6.5-20.5-1.2-1.4-3.2-1.3-4.8-.8Zm153.3-.1c.2 6.6-5.4 14.7-6 20.6-.5 4.5 1 25.3 2.4 29.4 4.2 12.1 16.9 7.3 19.1-2.9 1.1-5.2 0-16.8-.6-22.6-1-9.7-1.7-25.5-14.9-24.5m-180 1.9c-20.5 3.8-17 28.7-9 43 4 2.9 10.4-17 10.7-19.8.9-7.5-2.9-15.5-1.8-23.2Zm218 43c2.5 1.8 7.2-9.1 7.7-10.8 3.9-12.8 1.6-30.1-13.7-32.2.5 7.4-2.8 16.2-1.9 23.4.3 2.7 6.4 18.5 7.9 19.6m-148.2 10.2c1.4.8 4.8 8.6 9.5 11 11.1 5.8 20.2-6.4 20.7-16.7.8-13.7-7.2-7.7-16.5-8.6-8.4-.8-15-4.8-21.8-9.2-5.5-3.5-13.6-14.6-14.7-1.4-.5 5.1 1.4 7.5 1.8 11.2s-2 5.9.5 10.7c4.8 9.3 18 1.3 20.7 2.8zm93.1-31.1c-2.1-1.5-19.7 12.7-23.9 14.4-2.3 1-7.9 2.3-10.5 2.5-10.5.9-18.8-5.4-16.4 11.4 1 7.3 7.9 15.8 16 15.1 9.4-.8 11.9-11.6 14.6-12.4 4-1.3 12.3 5.7 18.9-1.1 4.3-4.4 1.3-8.4 1.5-12.5 0-2.3 1.9-4.8 2-8.1 0-1.9-.8-8.5-2.2-9.4Z" class="shading" data-original-prefix="shading" opacity=".2"/><path id="outline-shading-mouth1" class="outline"  fill="#000" d="M1041 1343c6.1.5 12.7-1 17.5-5 1.5-1.3.9-3.7 2.8-2.9 10.1 7.9 37.9 17.4 43.8 28.2 3.6 6.5 4.6 17.5-1.8 22.6-5.6 4.5-20.8 10.8-28 15-4.9 2.8-9.7 6.6-14.7 9.3-7.4 4.1-25.5 14.5-32.6 16.4-2.9.8-5.2.8-8.1 0-14.5-3.8-42.2-22.5-56.3-30.7-6.2-3.6-21.2-9.1-23.2-15.8-5.5-18.4 15.7-28.3 28.7-35.4 2.3-1.2 15.5-8.6 16.5-8.7 2.9-.3 4.2 2.9 6.7 4.2 4.2 2.3 10 3.2 14.7 2.8-.3-5.1-3.3-11.3-1.8-16.3.5-1.6 12.5-13.9 14.5-14.4 3.9-1 8.2-.3 11.6 1.9 1 .7 10.8 11.1 11.2 11.8 2.1 5-1.2 11.8-1.5 17" class="shading" data-original-prefix="shading" opacity=".2"/><path id="outline-mouth3" class="outline"  fill="#000" d="M889 1333c-5.3 4.2-13 5.4-19.2 8.3-14.9 6.9-32.6 26.5-36.3 42.7-1.6 7 3.5 22.7 6.2 29.8 2.6 6.9 5 10.8 13.3 10.2-1.4-9 4.2-18.1 9.6-24.9 2.1-2.6 22-22.5 24.4-20.1-1.7 6.5-8.8 10.4-13 15.5-8.1 10-12.3 23.6-9.5 36.5 1.2 5.6 11.1 25.8 15 30 .6.7 7.1 6.3 7.5 6.5 3 1.5 6.9-6.1 7.8-8.2 1.7-3.8 2.1-7.7 3.7-11.3 4.4-10.2 9.4-18.4 18.5-25-5.1 13.9-9.5 44.6 1.5 56.1 4.8 5 9.9 2.7 14.3 4.7 2.8 1.3 3 5.7 4.8 6.1 2.6.6 7.2-4.9 14.1-2.1 5.2 2.1 8.6 15.6 13.9 16.1 2.5.2 10.2-12 18.4-9.4 6.3 2 15.5 20.8 23.6 23.5 6.9-4 4.5-12.6 5.8-18.9 1.5-7.6 8.3-12.6 9.4-22.6.8-7-1.6-26-4.4-32.4-.9-2.1-5-10.5-6-11.9-3.1-4.5-15.9-10.2-20.8-7.1l-4.2 11.1c-4.8-4.4-9.5-9.2-14.5-13.5-3.7-3.2-10-6.8-13-9.9-4-4.2-15.5-27.8-15.7-33.2 0-3.1 8.4-13.8 10.8-16.8 1.4-1.8 9.5-11.6 10.2-12.2 5.4-4.1 29.2-2.8 35.7.2 8.4 3.8 12.4 12.1 18.5 17.5 5.2 4.5 2.5-1.7 2.5-3.6s.9-3.2.8-4.8c-.2-5.4-6.7-9.2-9.9-13.1-2-2.4-5.5-6.3-7-8.3-.8-1-4.7-7.3-4.8-8-.7-3.3 8.6-12.4 11.3-13.2 3.6-1-.5 5.5-.5 6.6-.4 5.2 5.9 4.1 9.3 5.6 1.2.5 3 2.7 3.2 2.7s2-2.2 3.2-2.7c8-3.5 11.7.6 7.3-12.2 1.6-1.7 12.5 9.1 12.9 11.7.6 4.2-17.5 23.2-21.1 27.5l-.8 12.7c1.7.4 2-.7 3-1.5 6.5-5 11.1-13.4 19-17 6.8-3.1 28.3-4.1 34.7-.8.7.3 8.8 10.1 10.2 11.8 2.6 3.1 11.9 14.4 11.8 17.8 0 2.8-5 14.1-6.6 17.3-7.1 15.2-9.7 14.8-21.2 24.8-5.3 4.6-10.4 9.6-15.5 14.5-2.2.9-1.4-5.6-2.2-7.7-3.4-8.6-19-1.6-22.7 3.8-.6.8-6.7 12.4-6.9 13.1-1 3.2-.3 6.1-.9 9.1-2.6 12.3-5.2 19.6.2 32.2 1.5 3.5 4.6 6.8 5.8 10.2 2.5 7.2-.5 15.2 5.8 21.2 9-2.3 17.4-21.3 24.4-23.6 7.7-2.4 15.9 9.6 18.4 9.4 5.6-.5 9.8-18.8 18.7-17.5 2.3.3 7.6 3.9 9.4 3.5s2-4.8 4.8-6.1c3.9-1.8 8.9 0 13.3-3.7 11.5-9.9 8.1-43 2.5-56 1.6-1.7 11.3 10.4 12.4 12.1 5.1 7.8 6.1 15.5 9.7 23.3 1 2.1 4.8 9.8 7.8 8.2.4-.2 6.9-5.8 7.6-6.5 7-7.6 16-30.2 15.4-40.5-1.3-22.7-10.7-22.7-21.5-37.5-5.3-7.2 2.8-2.4 6 0 11.8 8.6 28 25.5 26.5 41 11.4 1.6 13.7-11.7 16.3-20.2 4.6-15.6 5.3-18.8-3.1-33.4-7.4-13-16.3-22.7-29.9-29.1-6-2.8-14.1-4.1-19.2-8.3 9.3.7 19.7 2.8 29.2 5.3 7.4 1.9 14.4 3.9 20.7 8.3 3.2 9.3 27.6 34.6 28 42 .2 3.7-8.2 22.5-10 27.9-2.5 7.2-2.6 16-10 21-1.9 1.3-8.4 2-9 3.2-4.1 7.9-1.4 38-1.9 48.8-1.1 21.6-7.6 43.1-20.5 60.5-.9 1.2-2.6 1.5-3.6 2.7-4.3 5.6-2.8 18.6-4.3 26.5-1.2 6-5 13.1-5.6 18.4-.4 3.5 1.3 7.7.8 9.7s-10.7 8.6-13.2 9.9c-2.2 1.2-5.7 1.5-6.5 2-.6.4-5.4 10.9-7.2 13.3-2.1 2.7-11.1 11.3-14 12.1-4.1 1.2-7.9-10.3-9.9-13s-2.3 2.3-3.6 4.3c-4.3 6.7-25.1 26.6-32.4 28.6-1.7.5-3.3.7-5 .5-.4-5.9 3.2-9.9-1.5-15.1-8.2-9-20.9-.3-24.3 8.8-1.8 4.9-1.6 20-8.6 18.1-4.6-1.3-20-25.6-23.2-30.8-5.7 8.9-12.2 19.9-19.5 27.4-11.2 11.7-9.9-11-13.8-18.2-3.8-7.1-14-12-21.1-6.7-6.7 5-2.9 9.6-3.1 16.4-3.5 3.5-24.3-13.8-27.5-17-1.3-1.3-10.5-12.2-11-13-.7-1.4-.2-6.3-2.6-3.3-2.1 2.7-6.2 14.3-10.2 13.3s-12-10.2-13.7-12.4c-2.1-2.7-6.6-12.8-7.2-13.2-.8-.5-3.8-.6-5.8-1.7-2.3-1.2-11.9-7.4-13-9-2.1-3.2.4-6.9 0-11-.7-6.8-5.9-15.3-6.8-24.2-.5-5 .6-10.7-.6-15.4-1-4-8-10-10.7-14.3-15.3-24.4-17.6-52.1-17.9-80.2 0-5.4 3-18.2 0-22.8-.8-1.2-7.8-1.9-10.4-3.8-7.2-5.3-6.2-13-8.6-20.4-1.9-6-10.7-24.3-9.8-28.7.5-2.7 4.3-7.5 6-10.1 7-10.8 15.7-20.6 22.5-31.5 5.9-4.3 13.2-6 20.1-7.9 9.7-2.6 19.8-4.7 29.2-5.3h.2Zm15 128c-1.4-1.5-7.8 8.9-8.4 10.1-10.6 19.9-8.6 50.8-1.8 71.7 1.1 3.3 9.4 22.1 12.8 21.2 4.4-1.1 10.8-28.9 12.8-34.3 4.3-11.7 13.6-22.1 8.6-35.6-4.8-.6-12.2 1.2-15.9-2.9-1.4-1.5-8.5-21.7-8.8-24s.8-4 .8-6.2Zm240 103c.6-.4 6.8-10.5 7.5-12 6.3-12.1 9-33.7 9.5-47.5.6-14.9-4.3-31.4-14.6-42.5l-2.2 9.8c-4.9 13.6-4.6 25.2-23.1 22.4-5.2 13.7 4.3 23.9 8.6 35.6 3.1 8.4 6 27.5 11.8 33.2.7.7 1.4 1.8 2.4 1.1Zm-262.3-85.7c-1-.9-4.6-2-6.6-3.9-4.2-3.9-7.8-13.1-14-4.7-13.3 17.9-4.1 44.9 7 61.7 1.6 2.4 11.5 15.7 13.3 15.7.5-8 1.2-16.5.5-24.5-.4-5.4-3.1-12.3-3.1-18s6-23.3 2.8-26.2ZM1167 1547c1.7.4 2-.5 3-1.5 17.4-17.9 32.6-50.9 18.4-74.4-6.5-10.8-10.8-.4-16.9 4.9-2 1.7-5 1.6-5.5 4.5-.8 4.5 4 18.3 4 24s-3.3 14.8-3.6 21.2c-.3 6.3 1.6 14.6.6 21.3m-64.5-53c-1.4.3-3.3 6.6-3.8 8.2-3 10.7-2.9 45.1 1.1 55.5 4.8 12.4 18.2-4.3 20.4-11 3.9-11.7-6.4-31.5-11.4-42.1-1-2.2-3-11.4-6.3-10.7Zm-86.8 33.3c-3.2-2.8-9.7 3.2-15.8 1.3-2.1-.7-8.7-7.5-10.5-9.5-2.6-2.9-3.4-8.8-8.2-7.4-12.2 3.5-20.5 24.1-21.2 35.9-.9 13.6 2.4 21.7 11.5 31.5 9.8 10.4 24 15.7 36.1 23h2.3c2.1-6.4 6.2-12 8.1-18.4 3.7-12.2 7.9-47.3-2.3-56.2zm23.4 74.6c1.1.7 3.4 0 4.6-.6 21.8-13.1 47.5-23.3 45.2-53.7-.9-11.9-9.2-33-22-36.1-4.4-1.1-5.5 5-8 8-1.7 1.9-7.3 7.9-9.2 8.8-9.2 4-14.3-9-20 5-5.4 13.2-2.6 37.5 1.5 51.1.7 2.2 7.1 17.1 7.9 17.6ZM885 1559c-3.2-3.3-6.4 8.4-5.8 12.3.7 4.5 5.4 23.4 7 27 1 2.2 6.2 8.5 8.7 6.7 3.4-2.4 3.2-20.7 4-25.4-.5-3.1-8.3-6.1-11-10-2.3-3.5-2.6-10.1-3-10.5Zm269.1 45.9c2.7 1.5 7.8-5.3 8.8-7.5 1.7-3.8 6.1-21.6 6.9-26.2.8-5-.5-8.8-4.3-12.2l-5.1 10.9c-1.4 3.6-9.4 6.1-10.2 8.8-1.2 3.9.5 24.2 3.9 26.2M917 1563c-1.9-2.2-11.8 12.5-12.4 14.1-1.7 4.6-3 25.2-2.4 30.3.9 7.9 5.6 18 11.4 23.6 1.4-8.8 5-18.6 5.5-27.5.8-13.1-3.7-27.1-2-40.5Zm218 68c5.3-3.9 9.4-12.4 10.8-18.7 1.5-7 .8-27.4-1.2-34.3-.6-1.9-10.4-17.4-12.5-15 1.5 13.8-3.1 28-2 41.5.7 8.7 4.6 17.6 5.1 26.5zm-186-62c-2.4-2-8.2 6.4-9.4 8.1-7.7 11.1-15.4 39-8 50.8 2 3.2 16 15.2 19.5 16.5 5.6 2.2 6.5-1.9 7-6.9 2.4-23.1-3.5-46.4-9-68.5Zm151 0c-1.5 11-6.9 22.6-8 33.5-.9 9-2 26.3-1 35 .2 1.9 1.7 8 3.6 8.4 2.4.6 18.8-13.3 20.9-15.9 8.3-10.5 3.8-32.3-1-44-1.2-2.9-11-19.9-14.5-17m-82 44c-3.5 0-6.1 2.5-9.6 2.9-12.7 1.6-29.1-13.9-41.4-16.9v24.5c0 .6 3.2 8.2 4.1 8.9 6.5 5.2 18.9-.4 24.4 5.6 2.6 2.9 4.3 10.3 10.6 5.5 1.1-.8 11.9-13.1 11.9-14.1v-16.5Z" class="outline" data-original-prefix="outline"/><path id="outline-mouth2" class="outline"  fill="#000" d="M1122 1332c-.2 0 .2 1.6 0 1.9-1 .8-8.1-5.8-10.2-7.1-10-6.1-19.8-8.3-31.2-9.8-2.9-.4-6.9.7-9.5-.5-1.5-.8-4.5-7.4-6.5-9.5-7.8-8.7-15.6-10.2-25.8-13-1.1-.3-.6-1.9-.7-2 3.1-3.8 16.2-9.3 20.8-9.8 7.9-.9 5.5 4.4 6.5 9.1 2.3 10.7 9.3 19.6 21.3 18.8 5.1-.3 5.6-4 7.9-4.1 1.4 0 6.6 2.9 8.2 3.8 9.4 5.2 15 12.5 19.3 22.2z" class="outline" data-original-prefix="outline"/><path id="outline-mouth1" class="outline"  fill="#000" d="M1011 1292s.4 1.7-.7 2c-10.2 2.8-17.4 4.1-25.4 12.5-2 2.1-5.6 9.2-7.2 9.9-3.4 1.4-13.5 1-18.1 1.8-12.5 2.1-23.6 8.7-33.1 16.9.2-.9-.5-2.8-.5-3 .8-2.7 8.7-13.3 11-15.6 2.5-2.4 14.7-10.5 17.6-10.4 2.7 0 3 5.1 11.9 3.9 10-1.3 16.2-10.1 17.5-19.6.4-2.6-2.4-6.7 2.8-8.2 3.5-1 21.7 5.6 24.3 9.8Z" class="outline" data-original-prefix="outline"/></g><g id="04_Eyes" data-trait="alien"><path id="fill-eyes-main" class="fill"  fill="#fff" d="M1361.3 1155.3c-16.1 35.9-23.5 77.5-53.9 104.6-33 14.3-68.6 37.1-104.9 40.1-27.9 2.3-67.9-2.5-91.8-18.2-2.8-1.8-9.2-9.3-10.4-9.6-6.3-1.8-19.3.8-26.7-.3-19.6-3-27.2-26.4-41.6-35.4-9.8-6.2-18.3 2.6-25 8.9-8.8 8.4-16.3 22.3-29 25-8.5 1.8-22.3-1.4-29.3.7-2 .6-6.9 6.9-9.2 8.8-27.4 21.4-102.9 23.8-135.2 13.2l-70.8-40.2c-3.6-3-5.2-7.6-7.3-11.7-13.5-26-24.4-61-38.9-85.1-4-6.6-11.5-15-16.1-22-1.9-2.9-11.1-15.7-11.1-17.8 15.3-32.9 31.4-65.4 48.5-97.4 31-29 57.4-63.1 92.1-87.9 32.1-22.9 74.1-43 110-59 71.6-32 163.6-29.7 234.4 3.3 34.4 16.1 71.1 33.5 102.3 55.7 39.5 28.1 71.6 69.8 106.4 103.6l35.2 93.9c.2 2.7-2.6 4.6-4.5 6.4-7.3 7.1-15.4 13.8-23.2 20.3Z" class="fill" data-original-prefix="fill"/><g id="eye-shine"><path id="fill-eyes4" class="fill"  fill="#fff" d="m1311 1245 1 1c-45.2 39.6-120 69-179 44.5-7.9-3.3-20.7-9.3-19-19.5 10.4 4.9 21 7.8 32.5 9 53.6 5.8 117.7-8.6 164.5-35" class="fill" data-original-prefix="fill"/><path id="fill-eyes3" class="fill"  fill="#fff" d="M737 1245c44.3 27.2 128.5 44.4 179 32.5 6.6-1.5 11.8-4 18-6.5 1.7 10.3-11.7 16.6-19.7 19.8-59.1 23.4-133.2-4.9-178.3-44.8z" class="fill" data-original-prefix="fill"/><path id="fill-eyes2" class="fill"  fill="#fff" d="M1354 1145c-4.6-1.2-8.4-4.1-13-5.5-36.5-11.4-90.1 6.2-123.4 22.6-6.8 3.3-13.4 8.8-20.6 10.9-2.4-1.9 23.4-22.2 25.7-23.8 29.8-20.9 76.1-38.8 112.3-26.6 3.9 1.3 15.1 6.7 17.1 9.9 1.8 2.8.5 9 1.9 12.6Z" class="fill" data-original-prefix="fill"/><path id="fill-eyes1" class="fill"  fill="#fff" d="M851 1173c-1.3 1-17.8-9.5-20.6-10.9-33.5-16.6-83.9-33-121-23.2-5.3 1.4-9.2 4.2-14.4 5.1 1.7-3.5.2-8.2 1.2-11.3 1-3.5 14.6-9.4 18.4-10.6 34.1-10.6 76.6 4.9 105.3 23.5 2.6 1.7 34.1 25 31.1 27.4" class="fill" data-original-prefix="fill"/></g><g id="eyes-shading" class="st2"><path id="outline-shading-eyes4" class="outline"  fill="#000" d="M945 856c.7.3-.6 1.7-2 1-.7-.3.6-1.7 2-1" class="shading" data-original-prefix="shading" opacity=".2"/><path id="outline-shading-eyes3" class="outline"  fill="#000" d="M1105 856c.7.3-.6 1.7-2 1-.7-.3.6-1.7 2-1" class="shading" data-original-prefix="shading" opacity=".2"/><path id="outline-shading-eyes2" class="outline"  fill="#000" d="M1376 1124c-.4.5-10.7 4.3-11.9 4.6-10.2 2-33.8-11.1-46.8-13.3-80.4-13.5-146.8 57.7-193.2 113.2-7.9 9.4-15 21-23.1 29.9-7.4 8.2-16.7 13.4-27.7 13.8-16-12-31.8-24.1-44.3-39.8-.4-.2-7.8-.5-8.4-.4-2 .2-17 17.3-20.5 20.5-3.1 2.8-25.4 20.3-27.3 20.3-1.3 0-8.9-2.6-10.7-3.3-15.3-6.1-32.6-34.5-44-48-30.3-36-69.9-78.9-114.5-95.5-30.4-11.4-53.9-17.4-86.3-7.3-9.3 2.9-25.2 12.5-34.5 10-2.5-.7-7.7-4.4-10.8-5.3 0-2.4 3.3-2.2 4.9-4.1 3.9-4.8 11.4-27.6 15.8-29.2 2.7-1 13.3-2.1 16.7-2.3 33.9-2.1 113 3.8 139.5 25.5 21.9 18 45.7 46.3 66 67 16.2 16.5 33.2 32.2 48 50.1 4.1 3.3 19.5-.9 25.1-2.1 6.2-1.3 18.6-6 23.7-6.3 3.5-.2 7.2 6 17.4 3.3 2.2-.6 4.6-3.4 6.4-3.5 2.6-.1 20.4 5.6 25.3 6.6 4.6.9 18.9 4.4 22.5 3.1l46.6-49.4c23.8-20.6 45.1-49.2 69-69 22.3-18.4 77.7-24.2 106.5-25.5 7.9-.3 46.4-.7 51 3s9.3 22.9 14.6 28.4c1.3 1.3 6.2 2.8 4.9 4.6Z" class="shading" data-original-prefix="shading" opacity=".2"/><path id="outline-shading-eyes1" class="outline"  fill="#000" d="M942 857c-12.1 12.3-28.7 18.2-42.9 27.6-24 15.9-46.8 43.3-62.9 67.1-5.4 7.9-23 36-24 44-1.9 15 19 44.3 30.9 52.7 15.5 11 44.6 22.3 62.6 32.4s34.5 19.9 50.9 31.1c14.4 19.1 24.9 49.3 40 66.9 6.5 7.6 13.5 4.7 18 8 1.1.8 4.3 7.4 5 9 1.1 2.8-.7 5.7 2.8 7.3 5.7 2.7 5.9-8.1 8.2-12.3 4.5-8.3 14.1-3.9 20.9-12.1 14.5-17.4 24.2-46.5 37.8-64.2 6.2-8.1 34-23 44.2-28.8 11.7-6.7 23.8-13 35.7-19.3 21-11.2 34.9-13.8 50.4-33.6 11.6-14.8 20.3-27.2 12.4-46.3-11.6-28.4-47.4-74.4-71.4-93.6-17.2-13.8-38.5-21-54.5-36 32.2 6.5 62.4 20.5 90.7 36.8 43.8 25.2 91.8 64.7 120.1 106.9 2.5 3.7 7.4 8.7 5.5 13.1-1.7 4-26.2 9.5-31.6 11.5-55.7 20.6-105.3 41.9-152.6 78.4-29.2 22.5-41.7 38.5-62.3 68.7-4.9 7.2-6.3 13.4-13.3 19.7-2.6 2.4-21.3 15.7-23.6 16.4-7.4 2.2-21.8-.9-30.1.5-8.1-8-20.7-12.5-27.7-21.3-3.8-4.8-5.7-10.7-9.2-15.8-18.6-27.1-30.9-43.6-56.9-64.1-49.4-38.9-99.1-60.6-157.6-82.4-5.5-2-29-7.5-31.3-10.6-2.9-4 2.2-9.9 4.6-13.5 27.4-39.9 72.4-78.4 113.8-103.2 30.1-18 63.1-33.9 97.7-40.8Z" class="shading" data-original-prefix="shading" opacity=".2"/></g><g id="eyes-outlines"><path id="outline-eyes4" class="outline"  fill="#000" d="M998 1256c3.5-11.5 10.9-16.9 15.5-28 3.1-7.5 4.7-12.5 3.6-20.6-.5-3.5 5.3.6 7.5.6s4.7-2.4 7.5-2.1c-2.6 10.9 3.8 24.7 9.8 33.7 2.4 3.6 11.9 12.2 8.2 16.3-.2.3-5.7 3.2-6 3-.9-5.7-7.9-7.8-12-12.5-1.3-1.5-3.3-4.1-4.3-5.8-1.4-2.5.7-4.5-4.3-3.8-1.7.2-1.1.2-1.8 1.3-2 3.3-2.8 6.2-5.7 9.3-3.5 3.7-10.7 6.2-11 11.5l-7-3Z" class="outline" data-original-prefix="outline"/><path id="outline-eyes3" class="outline"  fill="#000" d="m981 1184-8.5-8c-11.5-11.2-19.5-31.1-29.9-42.1-8.7-9.1-25.2-21.3-35.7-29.3-17.2-13.3-42.5-27.1-57.4-40.6-1.2-1.1-2.9-2-2.5-4 13.6 2.5 23.9 12.5 35.3 19.2 22.3 12.9 46.3 23.5 68.7 36.3 3.9 3.2 8.8 14.6 11.2 19.8 7.2 15.8 12.7 32.4 18.8 48.7" class="outline" data-original-prefix="outline"/><path id="outline-eyes2" class="outline"  fill="#000" d="M1202 1060c.3 2-1.3 2.8-2.5 4-14.8 13.6-40.2 27.3-57.4 40.6-10.4 8.1-26.9 20.2-35.7 29.3-10.4 10.9-18.5 30.9-29.9 42.1l-8.5 8c6.1-16.2 11.6-32.9 18.8-48.7 2.4-5.2 7.3-16.6 11.2-19.8 22.4-12.8 46.4-23.4 68.7-36.3 11.5-6.6 21.7-16.7 35.3-19.2" class="outline" data-original-prefix="outline"/><path id="outline-eyes1" class="outline"  fill="#000" d="M991 1262c.9 4.5-2 6.9-5 9.5-3.3 2.9-19.8 12.2-23.4 11.3-1.4-.3-2.5-4-4.1-4.8-3.1 5.5-6.4 10.7-10.5 15.5-5.5 6.4-19.4 20.8-26.8 23.2-8.5 2.7-17.6 2.2-26.2 4.3 1.2-2.2 12.9-13.1 11-15-7.1 1-13.8 5.3-20.8 7.7-15.4 5.3-37.4 11.1-53.5 9-9.8-1.2-20-7.8-29.8-9.8 1.6-4.5 14.6-3.7 16-5l-1-1.5c-8.3-.4-15.9-4.4-23.8-6.2-24.6-5.6-32.1-2.8-55.5-16.5-53.2-31.1-79.1-70-73.6-133.2.2-1.9 2.1-5.1 1.9-6-.9-3.6-18.9 1.8-20.9-9.1-2.2-12 9.6-49 14.2-61.7 8.4-23.3 24-54 40.3-72.7 1.4-1.6 8.6-7.6 10.2-7.9 2.7-.6 4.8 3 7.3 1.4.5-.3 4.6-7.4 6-9 41.7-50 91.6-93.3 151.3-120.7 68.2-31.3 165.1-34 237.9-19.5 81.5 16.2 160.7 75 211.8 139.2 1.7 2.1 6.5 10.6 7 11.1 1 .8 5.3-2.2 6.8-2.4 6.3-.9 18.5 17.5 22.1 22.5 19.1 27.4 42.2 79.5 44.2 112.8 1 17.3-9.2 12.8-22 15.6.4 2.6 1.8 4.8 2 7.5 6 61.8-22.1 102.2-73.7 132.3-23.4 13.7-30.9 10.9-55.5 16.5-7.9 1.8-15.5 5.8-23.8 6.2l-1 1.5c1.3 1.3 14.4.5 16 5-9.8 2-19.9 8.5-29.8 9.8-16.1 2.1-38.1-3.7-53.5-9-6.9-2.4-13.6-6.7-20.8-7.7-1.9 1.9 9.8 12.7 11 15-8.6-2.1-17.8-1.6-26.2-4.3-7.4-2.4-21.3-16.8-26.8-23.2-4.1-4.8-7.4-10.1-10.5-15.5-1.6.8-2.7 4.5-4.1 4.8-3.7.9-20.1-8.4-23.4-11.3-3-2.6-5.9-5-5-9.5.7 0 1.9-1.1 4.2-.8 4.3.6 16 7.1 19.3 4.9 30.3-36.3 57-75.9 92-108.1 49.6-45.7 105.5-70.8 172.5-44.5 4 1.6 21.4 11.1 22.7 11.2 1.1.1 7.9-2.5 8.2-2.9.5-.8.3-7.7.2-9.4-.8-10-10.4-30.2-15.2-39.8-7.7-15.6-17.2-30.4-26.1-45.4-22.2-2.1-46.2 1.2-67.8 6.8-.4-1.9 1-2.4 2.1-3.4 10.6-9.7 25.1-17.1 37.8-23.7-3.3-20.5-21.3-38.3-36.3-51.9-36.5-33-88-57.8-132.2-78.8-66.9-31.9-160.7-30.9-227.7 0-33.5 15.5-72.5 34.1-103 55-19.8 13.6-61.4 47.8-66.4 71.6-1.2 5.8.4 3.4 3.4 5 11.2 6 25.9 14.3 35.2 22.8 1.1 1 2.5 1.5 2.1 3.4-21.6-5.6-45.5-8.9-67.8-6.8-8.8 15-18.4 29.8-26.1 45.4-4.4 9-14.4 29.8-15.1 38.9-.5 6.7-1.7 12.4 6.5 12.6 3.1 0 18.6-8.6 23.5-10.6 120.5-47.4 200.4 72.3 264.5 152.6 3.3 2.2 15-4.3 19.3-4.9 2.3-.3 3.5.8 4.2.8Zm-140-89c3-2.4-28.4-25.7-31.1-27.4-28.8-18.7-71.3-34.1-105.3-23.5-3.8 1.2-17.3 7.2-18.4 10.6-.9 3.1.5 7.8-1.2 11.3 5.2-1 9.1-3.7 14.4-5.1 37.1-9.7 87.5 6.7 121 23.2 2.9 1.4 19.3 11.9 20.6 10.9m503-28c-1.4-3.6 0-9.7-1.9-12.6-2.1-3.2-13.2-8.6-17.1-9.9-36.1-12.1-82.5 5.8-112.3 26.6-2.2 1.6-28.1 21.9-25.7 23.8 7.2-2.1 13.8-7.5 20.6-10.9 33.3-16.4 86.9-34 123.4-22.6 4.6 1.4 8.4 4.2 13 5.5Zm-618 101c45.1 39.8 119.2 68.1 178.3 44.8 8-3.2 21.4-9.4 19.7-19.8-6.1 2.5-11.4 5-18 6.5-50.5 11.9-134.7-5.3-179-32.5-.8-.5-6-4-6-4s4.7 4.8 5 5m575-1c-46.8 26.4-110.9 40.7-164.5 35-11.5-1.2-22.1-4-32.5-9-1.7 10.2 11.1 16.2 19 19.5 59 24.5 133.8-4.9 179-44.5.3-.2 5-5 5-5s-5.2 3.6-6 4" class="outline" data-original-prefix="outline"/></g></g><g id="05_Right Ear" data-trait="OG"><path id="fill-ear-rt1" class="fill"  fill="#fff" d="M1715.7 184.2c3.2-.7 6.5-.5 7.2 3.3 2.3 39.5-3.6 77.2-9 116-.7 4.7-.2 11.1-1.1 15.9-5 26.9-24.5 58.9-29.7 86.3-5.7 30.4-4.7 64.8-10.9 95.1-7.8 38.3-25.1 77.8-33.7 116.4l-71.9 122.1c-45.8 31.3-94.9 58.3-141.8 88.2l-35 81-84.6 77.3c-5.6 2.9-16.3-.8-22.4-2.4-27.7-7.2-48.3-18.1-70.9-35.1-16.5-12.5-27.2-20.9-37.6-39.4-6-10.5-10.9-22.9-14.5-34.5 26.8-59.3 58.7-116.4 86.8-175.2 4.9-58.7 6.7-117.8 11.4-176.5 36.5-47.5 77-92.5 114.8-139.2 47.2-35.9 96.4-69 144.9-103.1 66.1-31.9 127.9-72.1 197.8-96.2z" class="fill" data-original-prefix="fill"/><path id="outline-shading-ear-rt1" class="outline"  fill="#000" d="M1670.9 280.1c2.8 3.9-18.7 26.3-21.9 30.5-38.8 50.2-75.5 128.6-72.1 193 .8 14.1 7.3 33 2.8 45.7-3.7 10.4-14 27.3-15.4 37.7-.4 2.9.9 5.2.6 8 10-1.2 15.8-10.8 21.2-18.3 17.3-24.1 30.1-53.1 43.5-79.5 1.1-2.2 1.5-2.2 1.2.2-.8 9.2-6.8 26.8-9.7 36.3-15.4 50.2-37.8 100.7-66.2 144.8-15.3 23.7-22.2 32.4-46.1 47.9-25.3 16.4-36 17.1-63.9 25.1-14.1 4.1-56 16.5-65.5 25.5-11.9 11.1-30.7 52.3-40.3 68.7-13.5 23-27.7 45.9-43.8 67.2-3.6 4.8-10.5 10.9-13.3 15.7-5.6 10-6.8 27-11.1 37.9 7.3-4.2 14.2-10.7 20.5-16.5 12.8-11.9 26.4-25.8 38.5-38.5s33.6-33.7 41.2-48.8c7.8-15.6 13.6-33 21.3-48.7 14.9-4.8 30.4-7.3 45.1-12.9 49.9-18.9 92.7-57.3 134-90 1.4-.3 1.9 0 1.5 1.5-.9 3.2-10.1 20.8-12.2 23.8-4.2 6-36.3 28.6-44.5 34.5-29 20.7-59.7 39.2-87.9 61.1-15.7 27-28.8 55.8-43.5 83.5l-80 71c-6.2 2.7-28.5-4.8-35.8-7.2-32.1-10.8-54.1-27.3-79.9-48.6-8.9-15.6-7.9-22.5 2.7-36.2 24.9-31.8 50.6-57.8 73.4-92.6 33.1-50.5 54.8-106.4 86.2-157.8 11.1-18.2 27.9-36.1 31.3-57.7 1.4-9.1 1-19.2 1.1-28.4l54 6.5c10.6 14.3 17.8 31 26.5 46.5.8-.4 10.6-11.5 11.3-12.7 4.2-7.8 8.8-30.6 10.8-40.2 5-24.6 7-49.5 8.5-74.5 1.9-20.4-5.1-39.9 3.1-58.9 17.4-40.4 50.1-78.2 81-109l66.7-44.4c3.2-.7 24.4 7.8 25.2 8.9Z" class="shading" data-original-prefix="shading" opacity=".2"/><path id="outline-ear-rt2" class="outline"  fill="#000" d="M1204 941c-.6 2-3.1 0-4-.5-7.8-4.3-18.2-9.3-23.9-16-10.4-12.2-18.1-29.9-28.5-42.5-1-3-.7-7.3-.5-10.5.9-20.4 12.5-34.1 20.8-52.2 6.3-13.5 12.6-35.7 19.9-47 2.7-4.1 7.2-7.8 10-12 31.9-46.3 39.4-118.5 44.2-173.8 1.8-21.4.9-43.9 3-65 .7-7 2.4-6.2 5.4-10.6 39.7-59.4 85.7-117.4 135.1-168.9 20.3-21.2 36.1-32.5 60.6-48.4 72-46.8 150.7-85.5 232.4-112.6 12.3-4.1 26.8-8.2 39.5-10.5 12.2-2.1 12.3-3.8 15.3 8.7 7.3 30.4 1.8 91.6-1.3 124.3-.9 9.8-3 31.1-6.5 39.5-3.3 7.9-15.6 18.9-20 29-10.5 24-19.4 81.7-16.4 107.4.7 6.2 5.5 13.1 5.9 18.2.7 9.9-12.8 55.2-16.7 67.2-35.3 109.6-95.4 197.5-196.6 254.4-11.5 6.5-25.5 10.6-34.7 20.3-19.6 20.7-27.1 49.3-38.8 74.2-6.1 12.9-28.9 26-40.2 36.8-2.7 2.6-4.6 5.8-7 8-6.6 6.3-28 29.3-33.5 32.5-2.3 1.4-20.6 4.8-23.6 4.5-9.8-.9-50.7-16.5-58.9-22.1-1.6-1.1-2.9-2.4-3-4.5 7.7 2.8 23.6 7.2 31.6 7.9 22.6 2 43.2-12 60.7-25.1 35.1-26.1 71-71.5 81.2-114.8 1.9-8-1.7-7.6 6.1-13.9 33.8-27 77.5-40.2 111.3-70.7 68.7-61.7 111.2-146.9 130.5-236.5 6-27.8 3.2-52.9 6.5-80.5 3.3-27.4 13.9-73.5 26.1-97.9 5.5-11 10.8-15.4 13.6-28.4 3-14.4 5.4-31.2 7.2-45.8 3-24.6 4.6-49.6 2.1-74.4-1.9-1.9-45.3 15.5-50.7 17.8-67.7 29.8-139.1 73.4-201.2 113.8-57.2 37.1-99 74-142.1 126.9-15.7 19.3-36.9 44.4-50.5 64.5-13.7 20.4-13.2 63.6-15.6 88.4-3.2 33-4.2 70.9-9.1 102.9-2.9 18.7-26.7 65.7-36 85-6.8 14.1-16.8 28.5-23.1 42-6.3 13.7-9 29.6-15.7 43.3-3.2 23.3 13.4 51.1 28.9 67.4z" class="outline" data-original-prefix="outline"/><path id="outline-ear-rt1" class="outline"  fill="#000" d="m1695 240-22.5 39c-48.8 30.2-87.3 71.4-110.7 124.3-14.5 32.8-25.8 88.9-11.3 122.7 1.2 2.9 6.7 10.6 6.3 12.3-21.1 26.6-32.9 59-41.6 91.5-2.4 8.9-8.5 47.6-11.4 51.6-2.7 3.7-14.2 13.2-18.4 16.6-14.8 12-38.3 27.6-55.4 35.6-2.5 1.2-5.2 2.5-8 2.5 2.8-6.9 6.8-13.1 9.5-20 11-27.9 12.1-62.7-8-87-19.2-23.2-26.3 5.7-31 22-5.4 18.8-8 37.1-8.2 56.8-42.8 42.2-76.4 95.5-104.5 148.6-12.4 23.3-33.8 63.7-30.8 90.2.6 5.4 4.2 10.1 5 15.5-2.3 2.3-27.8-19.3-28.8-22.7-.6-2-.3-4.7-.2-6.8.2-5.2 1.3-20.2 2.5-24.5s15.1-20.8 18.8-26.2c34-50.1 53.3-108 86.4-159.6 11.5-18 28.4-31.6 37.6-51.4 8.3-18 20.8-76 17.2-94.5-.8-4-10.4-27.1-9.3-28.1 7.5 2.8 14.7 6.9 21.7 10.8 6 3.4 32.8 18.5 35.4 22.6 3.1 5 9.5 27.5 11.5 34.5 2.3 8.3 6.6 35 11.4 39.5 13.2 12.3 30.8-13.9 36.2-23.9 25.8-47.2 33.3-96.7 25.7-150.1-1.2-8.7-7.4-28.3-6.7-35.9s16.9-39.6 21.3-47.8c22.4-41.7 46.9-64 80.1-96 8.8-8.5 21.4-24 30.5-30.5 5.6-4 14.3-6.6 20.3-10.7 3.7-2.5 26.2-24 29.7-20.8h-.3Z" class="outline" data-original-prefix="outline"/></g><g id="06_Left Ear" data-trait="scruffy"><path id="fill-ear-lft" class="fill"  fill="#fff" d="m286.8 111.2 30.8 44.7c91.6 62.6 192.9 110.5 287.1 168.9 36.5 22.6 69.5 60.6 103.8 87.2l81.6 106.4c7.4 63.7 12.1 127.8 18.4 191.6 22.2 52.3 49.9 102.3 72.6 154.5-2.6 11.7-1.7 25.5-4.1 36.9-.5 2.5-18.5 28.2-21.3 31.2-7.4 7.9-34.6 27.7-44.3 33.2-6.2 3.5-20.8 7.2-25 10.5-1 .7-2 3.8-3.3 5.2-4.8 5.2-17.7 6.9-24.5 9.5-26.5-4.8-55.6-5.8-81.7-11.3-8.7-1.8-26.7-11-33.3-10.8s-29.2 17.7-32.8 16.9c-2-.4-9.6-10.2-9.7-12.3-.5-9.1 6.7-23.6 7-33.2 0-1.5.3-2.8-.9-3.9L526.6 894c-.4-4.1-2-13 1.6-15.5l44-11c-13.1-9-30.1-13.4-43.3-21.7-7.4-4.7-24.1-17.9-29.5-24.5-2.1-2.5-10.7-19.2-10.2-21.7.2-1 16.2-11.1 17.8-11.5 10.3-2.1 29.3-.4 40.8-1.2 1.5-.1 2.9.8 2.5-1.5-30.5-23.6-59.2-49.4-88-75-23.8-43.2-46-87.2-69.5-130.5l-45.3-164.7-3.7-4.3-59.3-44.6c1.1-2.2 4.2-14.3 5.1-15.2 1.4-1.4 18.7-4.1 22.4-5.1.7-.2 3.3.4 2.4-1.6-.7-1.3-24.1-15.1-25.6-15.2l-51.4 8.7 2.5-24c9.2-6.5 18.2-20.8 28.7-24.3 4.1-1.4 27.9-5.3 28.8-7.2-10.6-4.4-23.8-16.5-34-20-4.7-1.6-34.7-3.3-35-5.1.2-5.7-.8-11.7 2-16.9l52-24.6c-7.8-23.2-19.6-45.2-27.9-68.3l12.1-36.5h20.7c0 .1 0 0 0 0Z" class="fill" data-original-prefix="fill"/><path id="outline-shading-ear-lft" class="outline"  fill="#000" d="M349 234.5c0-.2-2.4-3.8.5-2.5 3.1 1.4 10.8 9.4 14.8 12.2 18.8 13.2 39.8 21 61.7 27.3 12.3 22.7 26.3 44.5 42 65-6.6 1.3-14.8 3.4-21.5 3.5-10.2.3-20.7-3.7-30.5-.5 3.5 4.6 7.5 10.5 11.5 14.5 10.9 10.9 36.9 14 51.5 19.5 5.8 2.1 12.1 19.2 16.8 24.2L519 431c-5.7-2.4-11.8-4.4-17.4-7.1-20.1-9.9-19.8-14.9-45.1-14.9-3 0-11 0-13.5.4-8.1 1.4-18.9 10.1-25 15.6 9.9 0 19.6-1.6 29.5-1 7.2.5 28.1 3.5 33 8 5.5 5 20.3 21.9 23.8 28.2 6.3 11.1 9.6 26.2 16.6 37.4-4.3.8-8.8.6-13 2-1 .4-2.7.3-2 2 .6 1.5 6.8 6.5 8.5 8.5 4.2 4.8 7.8 10.2 12 15 9 10.4 26 25.6 32.5 36.5 5.9 10 7.5 25.8 12.8 36.2 1.5 2.9 9.5 14.9 12.7 11.3l24.2-44.1 46.5-6c2.3-4.3 5.6-4.7 9.2-7.1 1.6-1 1.3-4 4.1-2.8 3.2 1.3 5 20.8 6 25 11 48.3 35 97.9 61.5 139.5 3.3 5.2 9.7 11.8 12.1 16.9 12.2 26.7 12.8 71.1 21 102 2.5 9.5 6.9 9.2-5 15.1-17.7 8.8-34.8 1.9-53-.5l12 15.4 41.9 23.1c-18.9 7.5-38.5 14.2-53 29 10.4-1.5 28.7-9.8 38.7-5.8 3.4 1.4 15.2 11.3 18.7 14.3 5 4.2 9.9 8.8 14.5 13.5-7.7 2.4-15 5.4-22 9.5-.5 2.6.4 1.5 1.4 2.1 26.8 13.6 54.1-.2 79.8-8.4 1-.3 3.2-1.5 3.8-.2-8.6 6.6-17.1 13.9-26.1 19.9-16.3 11-36.3 18.2-55.2 23.8-10.3 3.1-44.2 12.9-52.8 11.3-20.1-3.8-43.1-16-63.6-20.5-8.1-.8-25.8 13.6-34 16.8-1.1.1-18.3-10.9-18.8-11.8-1-1.7-.5-3.3 0-5 2.5-9.3 11.3-22.5 15-32 .5-1.3 2.1-5 1.5-5.9-11.9-4.4-22.8-10.9-34.2-16.3-8-3.8-45.1-18.6-48.2-24.8-1-2 .5-13.9 2.6-15.5l39-12c-23.1-15.5-52.1-22.6-70.5-44.5-4.7-5.5-14.4-18.7-8-25 10-9.7 25-7.3 37.9-9.1 1.2-.2 5.4-.5 4.6-2.4-12.7-14-24.3-29.1-36.5-43.5-32.5-38.5-64.1-77.8-97.4-115.7-21-73.9-38.8-148.9-61.7-222.3-7.5-8.2-57.2-35.8-59.2-42.7-4.1-13.8 17.1-14.6 26.3-17.3 1.5-.4 1.7.6 1.5-2l-27.7-14.8-42 9.5c-8-.7-11.1-7.3-7.3-14.1 2.1-3.7 24.1-30.2 27-32 6.8-4.2 22.8-5.1 31-7.5l-30.4-23.1c-6.4-2.8-25-1.5-28.5-7.5-2.4-4.2-.9-9.1 2.5-12.2 2.4-2.2 16-10.2 19.7-12.3s31.4-14.7 31.8-16.5c.3-1.3-.3-2.9-.9-4.1-6.5-15.1-21.2-31-27.8-46.2-1.9-4.4-1.7-7.6-1.3-12.4.5-5.9 5.7-36.4 8-40 6.1-9.8 17.4-.3 18.8 8.9 2.1 13.9 4.5 39 9.4 51.6 1.8 4.6 16.3 20 20.5 26.4 10 15.4 13 27.8 13.2 46.3-17.4-4.7-35.6-3.1-53 1l22.7 11.8c12.9 7.5 15.8 25.6 23.3 37.7l-22.2 6.7-13.8 6.8h24.5c7.8 0 16.4 4.9 21.5 10.5s28.6 36.4 29.9 42.1c.4 1.9 0 1.2-1.4 1.4-5 .6-10.9-.5-16 0l-20.5 3c3 .8 6 2.3 8.7 3.8 7.5 4.3 45.3 26.8 47.1 32.9 1.1 3.9.3 12.7 1.2 17.3 13.6-10 27.5-20 43-27l-13.7-6.8c-6-3.3-9.8-5.5-13.5-11.5-12.9-20.4-15-46.1-15.8-69.7 3.5-.7 2.9 5.7 4.6 7.1 3 2.3 19.8 4.7 24.3 4.4-7.3-7.3-14.5-14.9-22.5-21.5-7-5.8-20.9-13.1-26.1-18.4-1.9-2-4.5-8.4-5.4-11.1-1-3.3-3-11-3-14 0-5 .2-10.1 0-15ZM438 473c-5.1-3.9-12.9-6.3-19.2-8.3-7.8-2.4-15.8-4.2-23.8-5.7 2.5 11 11.1 19 6.5 31 11-7.7 23.1-14.3 36.5-17m45 123c2.2-2.2-12.4-40.4-14.8-45.7-5.8-12.6-9.4-15.7-21.2-22.8-15.3-9.1-31.5-12.6-48.9-15.6-1.4 1.7 7.5 27.4 9 31.5 8.6 24.6 18.2 46.1 31.6 68.4 3.8 6.3 14.5 24.8 18.9 29.1 1.7 1.7 13.8 8.4 16 9 2.1.6 1.6-1.1 1.3-2.3-15.8-29.3-30.1-59.8-39.8-91.7 8.6 7.1 15.7 16 24 23.5 3.6 3.2 16.5 14.9 20 16 1.3.4 2.6.6 4 .5Zm209 220-17.6-31.9c-14.1-19.8-48.2-22-70.8-28.2-24.4-6.6-48.3-15.4-72.1-23.9-1.7 1 .3 2.2 1 3 16.1 19.8 46.8 33.4 66.6 48.4.7.5 2.7.4 1.9 2.1-1.5 3.3-30.9 13.6-35.8 14.2L508 803c-1 .9 7.9 11.4 9 12.5 20.9 21.4 46.4 14.8 69.7 24.3 4.1 1.7 15.8 10.9 19.8 14.2 2.4 2 11.3 8.6 10.5 11.3-1.2 4.1-17.4 3.8-21.2 4.9-3.5.9-19.2 11.3-25.1 13.9-1.3.6-13.6 4.6-12.7 5.8 8.1 2.9 16.4 5.9 25 7.5 9.1 1.8 22.4 3.8 31.2 1.2 3.4-1 9.8-6.2 12.1-5.6.9.2 10.7 9.8 13.4 11.7 4 2.9 12.9 6.5 15.3 8.7.7.6 1.3.8 1 2-.2.7-9.2 7.1-11 9-6.2 6.5-11.6 16.3-11 25.5l7.4-6.1c7.2-1.5 14-4.8 21.6-3.9-1.5-18 2.9-34.8 5-52.5-.4-2.6-13.3-10.6-16.1-14-2.6-3.2-6.3-11.7-8.2-15.8-7.8-17.4-12.8-36.7-14.8-55.7 8.1 5.2 18 16.1 27.7 17.8 10.8 1.9 24.2-3.9 35.3-3.8Z" class="shading" data-original-prefix="shading" opacity=".2"/><path id="outline-ear-lft1" class="outline"  fill="#000" d="M845 940c15.1-16.4 31.1-43.3 27.9-66.4-.7-5.1-13-37.3-15.7-43.3-5.6-12.2-14.8-25.4-21-38-16.8-33.9-36.5-72.4-40.1-109.9-2.7-27.6-4.4-55.4-7-83-2.3-23.9-2.1-67.3-15.2-86.8-14.8-22.1-37.6-49.2-54.8-70.1-38.5-46.8-78.2-82.7-128.8-116.2-55.4-36.5-116.1-73-175.5-102.6-33.4-16.6-69-28.7-100.2-48.8-14.6-9.4-23.2-20.3-31.6-35.4l-10.8-21.7c-2.1 16.2-6.7 32.5-2.3 48.8 2.8 10.4 10.9 16.5 17.3 24.7 8.5 11 16.4 20.6 20 34.5-12.7-2-27.3-2.9-39.8.7-10.5 3.1-21.4 14.7-29.2 22.3 9.9.9 26.7.7 35.6 5 6.8 3.2 34.8 28.9 37.7 35.3.7 1.6.9 3 .8 4.7-26.6 1.2-52.1 6-66 31 10-1.8 19.3-7.2 29.5-8 9-.7 29.8 2.6 37 8 8.4 6.3 16.2 17.6 24.5 24.5.4 2.3-1 1.4-2.5 1.5-14.8 1.1-32.1 1.4-43.5 12 26.9 4 48.8 23.7 66.8 42.7 4.1 22.5 17.7 47.5 21.8 69.2 2.2 11.6 1.5 24 3.7 36.3 15.5 83.3 58.6 170.3 119.2 229.8 18.5 18.2 42.4 29.7 63.3 44.7 1.7 1.2 10.9 8 11.3 8.7.9 1.7-1.2 1.6-2 1.9-11.4 5.2-45.4 15.2-57 13.1-7.2-1.3-15-6.4-21.9-8.5 3.6 7.9 8.4 20.7 15.7 25.8 5.6 4 18.5 8.7 25.4 11.6 15.3 6.5 33.4 11.3 48 18 1.7.8 8.5 4.7 9 6 .7 1.7-.7 1.4-1.2 1.8-5.4 3.8-19.8 15.4-24.7 17.2-8.2 3-24 4.2-32.5 2.5l-.5 2 40.8 24.7c20.5 4.6 41.4 5.2 62.2 3.3l-.2 3.8c-6.6 5.1-14.2 12.6-19.2 19.3-8.5 11.3-8 27.2-9.6 40.9l6-8.5 3.7-3.3c10.7.3 23.4-4 33.8-3.2 23.7 1.8 50.6 16.9 73.5 21.5 14.2 2.8 27.6-.8 41 4.5-18.5 6.2-37.3 16-57 10.5-18.3-5.1-33.5-13.3-53.5-14.5-33.3-2-35.2 9-58.1 27-5.5 4.3-6 3.8-8-3-3.6-12.3-5.7-53.9-1.3-65.3 1.5-3.8 5.1-6.1 6.8-9.7-10.2-.8-23.4 0-33.2-2.3-14.7-3.5-51-37.1-60-50-1.4-2-9-14.6-7.8-15.7 17.8 1.4 37 2.7 54-3.5-12.7-5.7-25.8-10.4-38-17-4-2.2-16.8-9-18.9-12.2-4.7-7.3-12.1-27-15.1-35.9-3.5-9.9-6.4-20.1-8-30.5 1-1 14.6 8.3 17 9.5 3 1.6 16.4 8.5 18.5 8.5h21c.2 0 1.8-1.7 1.5-2-2.7 0-4.7-1.3-6.9-2.6-43.8-25.2-70.2-46.5-94.6-91.4-24.1-44.4-53.6-102.6-60.4-152.7-4.4-32.9-2.2-58.5-14.4-90.6-14.9-39.4-49.7-70-91.8-76.8 9.5-11.5 23.7-17.3 36.6-23.9 1-.5 1.9.5 1.4-2.1-6.3-1.1-12.4-5.8-18.7-6.8-8.3-1.3-32.3 3.1-41.4 5.1-8.1 1.7-15.9 4.3-23.8 6.7-1.9-2 9.7-20.8 11.6-23.9 4.8-7.9 14.2-23.6 20.9-29.1 8.3-6.8 23.2-10.1 33.5-13-16.6-14.5-32.6-22.6-55.2-18.7-7.4 1.3-14.6 5.5-21.8 5.2-.2-2.7 9.3-14.4 11.6-17.4 5.7-7.3 20.1-26.8 26.4-31.6 6.3-4.9 17.4-9.1 25-11.5-3.1-9.3-13.5-15.9-16.5-25-4.6-13.9-2.7-48.4 1-63 1.7-6.5 22.7-55.9 26-56l10.7 37.2c15.8 44.4 67 65.8 107.1 83.9 19.7 8.9 40.7 16 60 25 11.5 5.3 21.6 12.7 32.6 18.4 31.6 16.4 61.5 31.3 91.9 50.1 29.9 18.4 57.7 35.6 82.1 60.9 52.6 54.4 98.4 114.5 141.4 176.6 2.3 4.6 2.2 21.8 2.6 28.4 3.2 59.8 8.3 159.1 41.6 209.4 4.3 6.5 10.8 12.5 14.6 18.4 6.6 10.1 12.1 30.3 17.6 42.4 9.9 21.9 26.8 42 22.6 67.3-11 12.4-18.7 31.5-29.5 43.5-4.7 5.3-15.4 10.9-22 14-1 .5-3.4 2.5-4 .5Z" class="outline" data-original-prefix="outline"/><path id="outline-ear-lft2" class="outline"  fill="#000" d="M776 986c-16.3-8.5-36-13.2-54.5-12-5.1.3-10.8 4.9-10.5-2.4.5-12 4.3-24.6 11-34.5-1.3-1-16.5 1.5-19 2.5-3.8 1.5-19 15.5-21 13.5-1-12.9-4.9-32.3 0-44.4 1.6-3.9 11.7-18.1 10.8-21-.4-1.3-17.2-12.2-20.3-16.7-5.3-7.5-11.1-30.1-13.2-39.8-3.3-14.6-5.2-29.3-6.3-44.2l26.7 16.8c12.7 7.8 28.4 6.1 42.7 7.2 3.1-.4-6.2-30-7.2-32.8-11.2-33.2-21.9-41.8-45.8-65.2-9.2-9-5.2-8.3-6.5-19.5-2.2-19.3-5.5-41-13-59-6.8-16.5-13.6-20.2-26-5-24.9 30.4-16.1 76 3 107 0 1.1-2.2.3-3 0-3.9-1.3-10.1-5-14-7-24.2-12.9-48.4-29.9-66.8-50.2-9.8-40.4-16.5-95.3-44.6-127.4-23.7-27.1-55.9-44.6-90.5-54-.4-1.8.6-1.9 1.7-2.8 7.4-6.4 40.9-24.4 50.1-25.9 5.3-.9 9.4 1.3 13.8.8 1-.1 2.2.2 1.5-1.5-.5-1.2-7.4-9.3-8.6-10.4-3.5-2.9-12-5.8-16.6-7.4-21.8-7.8-44.9-10.7-67.8-13.7-.5-.7 5.1-7.6 6-8.5 5.6-5.6 45.7-33.4 51.5-33.6 4-.1 10.7 1.7 15 2.1 1.1 0 4.6.8 4.5-1-16.7-4.9-34.8-11.7-49.7-20.8-9.7-5.9-14.5-18.5-19.2-28.8-6.8-14.9-12.3-30.2-15.1-46.4 13.9 10.8 30.6 29.4 50 23.5-16.8-23.7-40.1-41.9-64.4-57.6-4.8-11.9-9.1-23.9-11.5-36.5-.1-3 1.1-.7 1.8.2 17.3 20.7 26.2 32.2 49.9 47.1 4.5 2.9 10.1 4.3 14.3 7.7 6.7 5.3 15 18.8 21 26 3 3.6 22.1 23.5 21.9 26-.2 2.2-10.2 3.2-12.5 3.5-9.1 1.1-27.1 2.5-35.2-.8-3.7-1.5-6.4-4.8-10.3-5.7 1.5 2.5 3 5 4.6 7.4 3.1 4.5 12.1 17 15.9 20.1 6.2 5.1 26.9 14.9 35.2 18.8 4.6 2.2 12.1 3.7 15.9 6.1s12.1 12.5 15.5 16.5c1.2 1.4 13.9 16.8 13 17.5-17.6-4-37.2-12.3-55.5-10-3.8.5-27.5 13.7-27.5 15.5.9 1.5 2.1 1.2 3.4 1.6 15.7 4.4 33 6.8 48.1 13.9 9.1 4.3 21.2 20.4 26.9 29.1 1.1 1.6 10.3 17.2 9.6 17.9-18.3-2-37.4-2-55.2 3.3l-8.8 3.7c22.6 4.2 44.9 13 62.5 28 7.8 6.6 30.6 31.9 30.6 41.5 0 2.6-1.2 5-1.1 8 .3 19.3 24.8 77.5 43.6 84.5 9 3.4 14.5.4 17.3-8.5 3.3-10.2 4.8-22.5 7.8-33.2 1.8-6.5 9.3-31.4 12.7-35.3 4.1-4.6 44-27.6 50.8-30.2 1.2-.5 2.3-1.1 3.7-.8-10.1 28.2-6 53.9 1.7 81.8 6.9 24.8 15.6 47.5 30 69 7.9 11.8 19.7 23.6 25.7 36.3 4.3 9.2 7.6 21.3 10.8 31.2 7.9 24.1 15.2 48.8 19.7 73.8h-37.5c-2.4 0-9.5-2-12.3-2.7-8.7-2.3-16.5-7-25.2-9.2 5.9 10.6 10.9 27 18 36.5 8.2 11 26.8 17.5 37 27 0 1.8-20.9 5.9-23.5 7.5-3 1.8-16.3 19-14.5 21 19-5.6 34.1-6.8 52.7.8 3 1.2 17.4 9.6 18.3 11.7s-1.5 1.3-2.5 1.5c-15.4 1.6-26.7 4-32.5 20h18.5c3.2 0 14.3 4.6 17.9 6.1 6.5 2.9 12.4 6.8 18.2 10.9 14.4-2 24.9-10.5 36.5-18-2.1 7.5-12.6 13.3-19.1 17.4-11 7-18.8 10.7-30.9 14.6Z" class="outline" data-original-prefix="outline"/></g><g id="07_Head" data-trait="biker"><path id="fill-head" class="fill"  fill="#fff" d="M1561.7 1243.3c1.8 1.8 2.2 3.6 2.4 6.1 1.1 11.2-1.7 23.8-2.1 35-.3 8.4 1.5 45.8-4 50-1.5 1.2-9.1 2.3-11.5 2.5-24.7 2-52-7.3-77-9-6.3-.4-23.2 1.4-27.4-1.6-5.6-4.1-9.2-25.3-13.2-32.8-9.2-17.2-28-17.9-44.9-22.6l15.8-30.7c4.9-20.2-14.1-66.4-27.4-82.2-6.9-8.2-25.5-11.5-36.2-13.8-60.9-12.6-141-16.3-203.7-18.3-58.7-1.9-118-1-177-2.9-86.1-2.9-163.6 4.2-249 12.9-10.8 1.1-24.2-1.4-30.9 10.1-2.2 3.7-5.2 9.6-7.4 13.6-17 31.3-15.6 63.6-7.9 97.6 1.1 4.9 4.8 8 4.8 12.7-24.2-1.1-36.9 22.3-52.7 36.8-22.6 4-45.8 4.3-68.7 6.3-20.5 1.8-31.2 2.1-51.8-2.4s-24.2-5.1-22.8-27.2c.7-11.2 3.4-23.4 4-35 .8-15.1-3.7-29.9 6.5-42.6 25.8-32.1 56.6-57.4 74.4-96.6 12.8-28.1 12.6-54.1 16.2-83.8.7-5.4 3.1-11.6 3.8-17.2 3.3-27.6 1.2-47.7 12.9-74.1 8.5-19.1 12.2-22.7 15-45 5.9-46.8 5.4-87 28-130 68.3-130.2 204.9-182.7 345.6-192.4 126-8.7 279.4 17.9 375.1 106 37.8 34.9 59.4 73.7 74 123 12.6 42.7 12.4 92.2 26 132 6.8 20 22.4 14.5 28.2 36.8 8.8 34.1-3.4 73.9-1.7 108.7.7 15.8 3.7 37.6 8.3 52.7 6.3 20.6 25.8 41 34.6 61.4 7.4 17.2 6.9 33.2 24.2 45.8 4.5 3.3 14.2 6.5 17.6 9.9v.3Z" class="fill" data-original-prefix="fill"/><path id="fill-head1" class="fill"  fill="#fff" d="M672.8 951.2c5.4-.8 16.4 2.4 19.5 7 4.8 7.3 3.1 30.3 0 38.4-4.4 11.1-27.1 29.8-38.7 19.3-2.9-2.6-7.3-14.6-7.5-18.6-.6-14.5 10.3-43.9 26.8-46.2Zm3.9 14.1c-2.5-2.3-4.7-.4-6.8 1.2-9.1 6.9-19 25.8-12.8 36.8s19.1-9.5 20.9-15.8c1.3-4.6 2.2-19-1.3-22.3Z" class="fill" data-name="fill-head" data-original-prefix="fill"/><path id="fill-head2" class="fill"  fill="#fff" d="M1373.3 961.3c.2-.3 5.3-4.5 5.8-4.7 8.6-4.9 17.3-3 23.3 4.5 12.9 16.1 24.7 54.1 1.3 66.1-18.5 9.5-29.8-12-32.4-27-1.3-7.5-2.1-33.1 2.1-39h-.1Zm14.4 6.8c-1.9.5-3.8 3.8-4.4 5.7-4.2 11.5-2.4 34.4 8.8 41.7 2.9 1.9 4.1 2.4 6.4-.5 6-7.3 1.1-28.9-2.6-37.3-1.1-2.5-4.8-10.4-8.2-9.5Z" class="fill" data-name="fill-head" data-original-prefix="fill"/><path id="fill-head3" class="fill"  fill="#fff" d="M667.7 993.7c-8.3 7.3-6.7-16.6 1.8-15.8 6.6.6 1.1 13.3-1.8 15.8" class="fill" data-name="fill-head" data-original-prefix="fill"/><path id="outline-shading-head" class="outline"  fill="#000" d="M1545.7 1307.3c.8.6 5.6 5.2 6.3 6.2 3.9 5 4.7 10.8-2.7 12.3-15.6-3.8-33.3-4.8-48.7-8.9-6.6-1.8-6.4-3.5-8.3-9.7-8.4-26.7-11.6-56.5-20.8-83.2-17.8-14.4-34.5-40.6-52.5-53.5-13.3-9.5-36.6-14.9-50.9-24.1-31.7-5.4-63.5-12.5-95.5-16.5-83.3-10.5-166.2-11.3-249.9-12.1-92.4-.8-186.2-2.3-278 7.1-35.6 3.7-71.1 10.3-106.8 14.2-20.3 5.7-53.7 31-65.6 48.4-5.8 8.5-25.7 49-28.5 58.5-4.5 15.4-3.9 35.3-8 51-1.2 4.8-2.9 6.4-8.1 6.7-12.3-2.6-28-.5-39.9-3.1-1.5-.3-4.6-2.4-5.2-3.8-6.8-15.1 19.4-20 27.4-25.5 5.6-3.8 9.7-31.5 12.4-39.6 13.4-41.1 43.9-82.5 81.4-104.6 15.9-9.4 25.3-7.5 42.8-8.2 38-1.4 81.8-11 122-13 69.2-5.3 138.7-2.3 208-2.1 135.3.4 273.7-5.2 406.5 26.5 17.8 4.3 53.6 12.9 67 24 22.2 18.4 50.2 60.7 57.5 88.5 3.1 11.9 5.2 41.8 11.2 49.8 4 5.2 20.7 10.1 26.9 14.6Z" class="shading" data-original-prefix="shading" opacity=".2"/><path id="outline-shading-head1" class="outline"  fill="#000" d="M829 1056c-10 1.4-18.4 2.6-28.5 1-30.1 5.3-60.7 8.2-90.8 13.3-31.3 5.3-68.9 16.8-99.4 19.6-2.1.2-4.8.5-6.9 0h-4.5c-2.2-4.2-.3-15.6 3.1-18.4.7-.6 2.3-.3 3-1.2 1.2-1.7.4-4.4.9-5.8.4-1.2 2.4 0 3.1-1.3 6.6-11.8-5.7-36.9-7-49.8-.8-7 1-27.5 2.5-34.6.6-3 5.1-13.7 6.9-15.6 2.8-3.1 17.4-7.8 17.7-8.8.6-2.1-1.1-1.3-2.2-1.7-6.2-2.5-26.1-7.9-27.6-14.5-.5-2-.3-3.6 0-5.5.5-3.2 8.6-25.9 10.3-27.7 3.6-3.8 13.9-2.5 18.2-7.3.4-7.6 2.9-15.1 4.2-22.3 2.5-14.9 2.7-32.8 13.4-45.1 4-4.5 18.1-16.8 20.2-21.4 1.3-2.9-1.9-7 1.3-12.7 5.5-9.8 19.2-3.5 27.4-1 5.8 1.8 31.7 10.2 34.3 13.7 3 4 1.2 17.7 1.5 23.5 3.2 56.4 20.8 94.1 72.8 119.2 12.8 6.2 25 9.3 39.2 10.3.5-5.5-3.7-10.5-1.5-16 7.6 10.7 20.8 12.1 30.8 19.2 8.9 6.3 10.2 12.5 22.2 16.8 24.2 8.9 54.3 5 80 8 10.9 1.3 21.5 4.9 32.3 6.7 12.8 2.1 26.9 3.7 39.2-1.2l-57.5-71.5c-7.4-7.9-37.6-6.8-41.8-16.2-2.5-5.6-2.6-15.1-4.6-21.2L948 825l-43 19.5c-5.9 1.6-7.3-1-9.5-5.6-2.5-5.2-11.8-30-12.3-34.8-.6-5.2 2.9-7.5 7.8-7.2-1.4-1.7-.9-4.8 1-3 0 0 0 2.2 1 3.5 2.5 3.5 13.6 17.6 16.5 18.6 4 1.4 17.2-4.5 21.8-6.4 9.8-4.2 21.2-10.2 30.4-15.6 5.2-3 9.6-8.6 15.3-8.2 1.7 1.7-9.3 32.1-10.5 37-2.4 10-4.4 22.5-6.2 32.8-2.1 12.5-5.8 25.8-2.9 38.2 16.1 4.7 33.1 14 49.3 17.7 15.2 3.5 36 2.3 51.8 1.3 2.8-.2 5.6-1.3 8.4-1 1.5-5.4-3-35.5 0-37.6s11.2 2.6 14.6 3.5c10.3 2.7 19.9 4.3 30 8 1.5.5 2.8 1.8 4.4 2.2 1.2 6.6-20 30.3-16.9 33.8.2.2 3 .3 4.3 1.2 5.7 3.7-.5 19.2 6.1 26 3.5 3.6 23.8 6.4 30.8 9.2 12.6 4.9 29.7 17.2 39.8 26.2 6.3 5.7 20.2 24.8 27 26.1 5.6 1.1 18.3-6.8 22.6-10.6 3.3-3 4.7-6 7.2-8.8 5.9-6.6 1 5.5 0 7.8-.9 1.9-6.4 10-6.5 10.7-.5 1.9.4 4.3-1 6.3 2.2 1.5 8.2-3.9 10-5.5 9.1-7.6 17.7-18.3 26.8-26.2l-5.3-66.3-44.6-56.4-81.4-18.6c-1.7-.4-4.3-1.3-5.1-2.9-.5-1-1.3-11.2-1.5-13.5-.3-4.7.7-10.3-.2-14.8-1.4-6.6-10.3-18.5-13.3-25.7-1.6-3.8-6-17.1-6.2-20.6s5.9-32 7.4-35.1c3.2-6.5 7.2-.3 11.2-4.3-.9 3.1.3 6.2 0 9.3-2.1 18.3-8.9 24.7 0 44.3 4.7 10.5 9.5 12.9 16.7 20.3 8.6 8.9 1.1 12.8 4.4 18.6 4.7 8.1 38.1 13 48.1 15.9 52 15.2 56.3 54.5 88.4 90.1 17.3 19.2 25.1 17.9 49.4 12.7 14.3-3.1 51.2-11.7 60.7-21.3 8.2-8.2 13-25.5 15-37 3.8-21.1-2.7-49.3-7.8-70.3-.7-3-6-15.6-3.7-17.8 2.8-2.7 4.6 5.7 5.8 7.7 5.8 10.3 9 11.9 11.9 25 7.4 32.7 2.1 68.2 10.1 98.9.5 1.9 1.6 3 2.2 4.8-4.8 3.9-10.5 1.8-16.1 3-.7 3.5-5.4 10-4.8 12.8.4 1.8 2.4 3.1 2.7 4.5.3 1.5-.9 3.1-.6 4.5.4 1.8 3.5 13 4 13.5s4.5 1.4 5.2 1.3c.7 0 .6-1.8.7-1.9 1.5-1 2.6 1.5 3.9 2.2 15.5 8 20.6 7.8 22.9 27.1 1.4 11.9.7 23.8-1.4 35.5-1.1 6.2-5.4 16.5-5.6 21.5 0 4.1 2.9 10.9 2.8 16-.3 20.7-24 19.7-39 17.2-14.8-2.5-31.4-10.3-46.3-10.7-6.5-.2-11.3 2.3-18 2-20.2-.9-44.3-6.7-65-9-37.6-4.2-75.5-6.7-113-10-66.9-5.9-133.7-14.1-201-11-40 1.8-80 7.1-120 9l-10.5.9v.5Zm272.7-84.6c-18.1-5.7-36.6-21.5-54.7-6.9 10.2 10.2 21 25.2 33.1 32.9 9.3 6 32.4 12.5 42.2 6.4 4.1-2.6.5-2.5.2-3.1-6.2-10.3-13.4-19.9-20.8-29.3M656 1000h14.5c2.3 0 6.1-24.7 7.5-28-3.1-.3-11.5-3.1-13.5-1-1 1.1-9.6 28-8.5 29" class="shading" data-name="shading-head" data-original-prefix="shading" opacity=".2"/><path id="outline-head" class="outline"  fill="#000" d="M1371.7 939.2c7.9-1.3 25 0 31.8 4.8 8.4 5.9 22.2 33.9 24.8 44.2 4.4 17.4 3.4 31.3-7.9 45.7-6.5 8.3-12.1 13.6-22.9 14.1-16.2.8-25.1-4.4-33.3-17.7-15-24.4-17.5-45.1-8.9-72.5 2.4-7.6 7.8-17.1 16.4-18.5Zm1.6 22.1c-4.1 5.9-3.4 31.4-2.1 39 2.7 15 14 36.4 32.4 26.9 23.4-12 11.6-50-1.3-66.1-6.1-7.6-14.8-9.5-23.3-4.5-.5.3-5.6 4.4-5.8 4.7z" class="outline" data-original-prefix="outline"/><path id="outline-head1" class="outline"  fill="#000" d="M676.7 965.3c3.5 3.3 2.6 17.7 1.3 22.3-1.8 6.3-14.6 26.8-20.9 15.8s3.7-29.9 12.8-36.8c2.1-1.6 4.3-3.6 6.8-1.2Zm-9 28.4c2.8-2.5 8.4-15.1 1.8-15.8-8.5-.8-10.1 23.1-1.8 15.8" class="outline" data-name="outline-head" data-original-prefix="outline"/><path id="outline-head2" class="outline"  fill="#000" d="M1387.7 968.1c3.3-.9 7 7 8.2 9.5 3.7 8.4 8.6 30 2.6 37.3-2.3 2.8-3.5 2.4-6.4.5-11.2-7.3-12.9-30.2-8.8-41.7.7-1.8 2.5-5.1 4.4-5.7Z" class="outline" data-name="outline-head" data-original-prefix="outline"/><path id="outline-head3" class="outline"  fill="#000" d="m679 1065 93.5-12c18 .5 38.3-4.1 56-2.1 2.4.3 3.8.5 3.5 3.6-8.1.9-16.3 1.5-24.4 2.6-40.5 5.8-80.8 13.1-120.9 20.1-18.8 3.3-50.8 8-67.3 15.7-9.8 4.5-18 13.4-28.3 16.2-1.2-1.1 9.3-21.8 11.4-24.1 2.7-2.8 19.3-10.5 19.6-11.6 2-19.9-8.3-38.6-5-58.3 1.1-1.2 5.4 3.7 5.5 5l13.5 50.6c2.1 1.5 6.5-1.8 8.8-2.3 6.5-1.4 14.3-1.1 20.3-4.9.6-2.5-1.9-19.4-3.2-21.7-2-3.4-15.2-3.9-20.3-11.7-2.4-3.7-8.1-21.9-8.5-26.5-.6-7 2.8-21.8 5.5-28.5 4.1-10.3 14-17.8 20.5-26.5-1-4.2-32.6-5.5-38-6.5-1.2-10.9 11.9-11.7 14.7-20.8 4.3-13.9 3.2-39 5.3-54.7 3.2-24.9 9.4-49.8 17.8-73.3.6-5.8-14.9-9.4-12.8-15.6 1.3-4 18.6-2.7 21-4.1.8-.5 6.5-12.9 7.8-15.2 7.8-13.5 20.6-30.4 32.7-40.3 1.1-.9 1.6-2.4 3.5-2l-29.8 62.8c1.4 8.2 10.6 3.5 7.1 14-3.1 9-10.8-.5-14.1 4.9-5.5 20.4-9.8 40.9-12.2 61.8-1.9 16.6-5.2 40.9-5 57 0 2.1 1.1 10.7 1.7 12.2 3 7.5 42.7 3 50.1 23 9.6 26 4.3 52.3-12.8 73.7-2.3 2.9-17 15.8-17 17v22.5zm-6.2-113.8c-16.5 2.4-27.4 31.8-26.8 46.2.2 4 4.6 15.9 7.5 18.6 11.6 10.5 34.4-8.2 38.7-19.3 3.2-8.1 4.8-31.1 0-38.4-3.1-4.7-14-7.8-19.5-7Z" class="outline" data-name="outline-head" data-original-prefix="outline"/><path id="outline-head4" class="outline"  fill="#000" d="M1418.7 1287.3c-2.4-2.1-10.8-5.2-14.2-6.3-6.6-2.2-15.5-3.1-21.6-5.4-3.4-1.3-4.4-4-3.5-7.5 2-8.1 13.2-21.1 16.3-29.7 4.3-16.9-12.9-55.4-22.3-70.2-6.8-10.6-6.4-10.6-18.7-14.3-43.7-13.4-106.9-16.4-153.3-19.7-77.6-5.5-155.3-3.5-233-6-9.2-.3-18.8-1.7-28-2-84-2.7-167.9 8.3-251.5 15.4-9.5 3.6-9.5 9.8-13.8 17.2-18.6 32.4-19.6 59.7-10.8 96.4 1.2 4.8 7.2 11.6 6.6 15.4-.7 4.6-13.9 4.5-18.3 5.8-7.1 2.2-27.1 22.5-33.5 29-1 1.1-1.1 3.2-2.8 4.7-4.3 4-28.3 3.4-35 4-33.7 2.7-57.5 8.2-91.7.7-8.2-1.8-19.9-3.2-23.3-11.7-4.9-12.3 1.7-41.1 2.5-55.5.5-9.9-1.3-22.1.5-31.5 2.1-11.6 25.5-32 34.1-41.9 29.4-34.2 52.9-67.7 59.4-113.6 1.4-9.8.9-21.1 2.1-30.9 1.1-9 3.8-17.9 5-27 2.7-21.8 1.3-43.6 9.8-64.2 3.9-9.4 12.2-20.9 14.7-30.3 1.8-6.6 2.6-16.5 3.5-23.5 5.1-41 5.2-80.6 23.3-118.7C681 640.3 813.7 578.5 947.4 565.2c157.2-15.6 347.9 16.3 447.5 150.5 17.1 23 35.5 80.9 41.5 109.5 6.6 31.5 7.8 67.7 17.2 97.8 6.4 20.6 14.8 14.7 24.1 27.9 13.1 18.7 6.8 68.8 5.2 91.8-2.1 28.2-2.1 54.1 6.3 81.7 4.9 16.3 15.9 29.5 23.6 44.4 10.3 20.1 17.3 45.1 33.2 60.8 5.7 3.8 20.6 8.8 21.9 16.1 2 10.8-1.6 29.3-2 40.9-.5 13.6 1.2 28.6-1.1 41.9-1.9 11.1-6.9 11.9-17.4 12.6-27.1 1.9-53.3-7.2-80.1-9-6.9-.5-21 1.4-26.6-.4-9.1-3-12.2-35.7-22.2-44.2zM1116 888.5v-61c0-.4-1.2-6.8-1.5-7.5-3.1-9.8-20.9-19.3-21.6-22.5-1.4-7.5 1.1-15.2 1.9-22.1 3.4-30.7 5.9-65.6 35.2-81.8 14.4-7.9 30.6-13.2 46.7-15.8l11.1-74.8c-11.8-3.2-23.4-7.3-35.3-10.2-105.5-25.8-245.7-17.5-345.3 27C704 665.9 621.6 751.2 619.8 870.4c-.4 25 7.7 35.7-8.5 58.5-8.3 11.6-14 15.6-18.4 30.6-15 51.6 4.2 109.5-23.4 157.6-19.8 34.5-70.6 83.6-77.5 119.5-3.2 16.8-4 34.7-5.9 51.7.7 3 2.3 3.9 4.9 4.9 5.2 2.1 24.8 5.5 30.5 5.6 15.6.2 12.2-15.2 13.5-25.3 6.4-49.1 30.8-97.3 71.5-126.5 18.9-13.5 57.2-15.9 81-19 79.3-10.5 152.7-16.4 232.8-15.1 102.5 1.7 208.4-3 310 8 90.7 9.8 226.8 19.4 255.2 125.8 4.4 16.6 4.8 43.6 10.8 57.2s27.3 16.4 39.9 14.9c3.3-.4 8.9-1.6 9.6-5.4 0-17.6 3.6-36.5 2-54-.2-2.1-.9-6.5-1.7-8.3-1.9-4-16.5-11.3-20.7-15.3-11.5-10.9-18.1-40.1-26-55-7.6-14.4-18.5-26.8-25.7-42.3-21.6-46.5-11.4-80.4-8.9-128.2.6-11.9 3.2-33.3-.6-44.3-2.6-7.5-19.3-5-25-9.5-3.1-2.4-8.2-19.9-9.8-24.7-9.9-30-5.6-56.1-9.6-87.4-13.1-103.2-75.8-173.3-167.9-216.1-12.1-5.6-31.6-14.2-44-18-1.1-.3-2.2-.7-3.4-.5-5.1 15.5-4.6 32.5-7.6 48.6l-1 47.5c-11-2.8-24.1-2.7-35.4-.9-34.9 5.6-57.8 48.2-42.5 80.3 3.2 6.8 12 15.7 13.4 22.6 1.1 5.3-.6 29.1 1.6 30.9 22.6 5.1 46.6 7.4 69.1 12.5 38.8 8.7 59.1 30.6 64.7 70.3 2.1 15.3 6.7 56.6 1.9 69.6-5.1 13.8-22 40.6-36.5 45.5-13.6 2.9-28.3 4.1-41.7 7.3-5 1.2 3 3.6 5.1 3.9 5.4.7 11.4-.4 16.9 0 34.9 3.1 81.7 13 115.7 22.3 4.6 1.3 23.4 6.7 26.2 8.8 1.6 1.2 7.7 12.8 6.6 13.9-21.4-5.5-42.5-12.2-64-17.5-21.4-5.2-43.2-9.8-64.8-14.2-12.2-2.5-29.1-3.4-40.2-7.8-25-10-45.8-9.3-72.4-12.6-45.4-5.7-92.3-14.6-138.2-12.9-28.9 1.1-62.3 9-90.3 2.4-1.9-.5-12.5-3.3-13.2-3.8-1.5-1.1-.9-3-1-4.5 39.6-.6 79-1.7 118.5-2 42.9-.3 86 1.7 129 2 30 .2 64 6.4 93.7.7 2.5-.5 7.1-1.4 8.8-3.2 3.3-3.4 14.1-31.7 15.5-37.5 6.7-27.9 2.3-51.3-7.5-77.5-10.8-28.9-57.7-32.5-83.7-38.3-2-.5-6.8-3.9-6.4-.7l4 64c-.7.9-1 1.5-2.3 1.4-1.5 0-11.2-4.9-14.2-5.9-13-4.3-25.7-6.7-39.5-6l5.9 27.5c0 1.5-1.2 2.8-2.6 3.2-6.9 2.1-19.2-2.4-26.8-.8-13.6.9-27.4 3.4-41 4-23 1.1-29.4-7.7-49.5-13.5-9.5-2.8-22.8-5.3-32.6-6.4-4.5-.5-13.5 2-13.4-3.6 0-8.3 2.5-17.9 3-26.1.4-5.5-.5-11.5 0-17 .7-8.2 2.5-16.4 3.5-24.5l-46.5 34.5-1.8-1.2c-2.6-16.3-4.9-33.5-8.4-49.6s-14.8-43.6-13.6-59.2c.6-7.3 2.9-17.2 4.2-24.8.7-4.2 5.5-31.6 6.7-32.8 2-1.9 2.8 3.7 2.9 4.6 2.2 18.9 1.5 36.4 5.4 55.6 3.6 17.6 9.4 35.8 13.7 53.4l65-28.6c1 3.8-1.3 6.4-1.9 9.6-3.2 16.5-4.4 33.2-6.1 49.9-1.2 11.7-3.8 23.5-3 35.5 6.4.8 13.8 2.6 20 4.5 10.4 3.2 24.2 9.6 34.5 11.5 9.2 1.6 19.8-.7 28.9-1 11.2-.3 22.4 0 33.5-1l-5-42c11.9 2.8 24.4 6.3 36.6 7.8 2.3.3 10.6 2 11.4-.4z" class="outline" data-name="outline-head" data-original-prefix="outline"/></g></svg>