<?xml version="1.0" encoding="UTF-8"?>
<?xml-stylesheet type="text/css" href="styles/collection.css"?>
<svg xmlns="http://www.w3.org/2000/svg" viewBox="0 0 2048 2048"><g id="01_background" data-trait="yellow"><path id="bg" d="M2048,0v2048H0V0h2048Z" style="fill: #ddb305;"/></g><g id="02_Jaw" data-trait="OG"><defs>
    
  </defs>
  <path id="fill-jaw" class="fill"  class="st0" d="M1396.7,1438.7c-6.7,4.3-46.8-1.7-48.7.3l-12.2,69.8-57.2,29.3-1.4,1.6c-1.5,11.9,1.5,24.2.9,35.9-.3,4.9-1.3,15-2.3,19.7-.6,2.8-13.7,32.2-15,33.5s-16.1,8.9-16.7,8.3l-9.5-50-51,52c-7.7,5.7-20.7,9.3-27.5,15.5-14,12.7-25.2,37.4-42.1,47.9-5.4,3.3-61.3,25.7-66.7,26.3-13.8,1.7-33-3.3-47.7.2-17.7-10.3-50.1-16.2-66.1-26.9-14.3-9.6-28.3-35.6-41.4-47.6-6.7-6.1-19.9-9.6-27.5-15.4l-51-52-9.6,48.4c-.6.9-.9,1.7-2.2,1.5-.8,0-13.8-7.6-14.4-8.2-1.4-1.4-15.9-33.3-16.2-35.3l-.5-54.4-58.2-30.3-12.3-69.7c-8.1-1.2-45.1,3.9-49.5-1l-37.1-85-.5-3.4,31.5-70.6c5.3-1.6,29.1,0,31.3-6.7.8-2.3-.6-19.5-1.3-22.4-2.2-8.4-16.2-24-19.8-33.2-.7-1.7-1.2-3.1-.6-5,4.7-11.3,10.3-22.3,14.1-34,7.3-22.4,7.2-42.6,16.9-65.1,47.5-110.2,188.9-176,299.9-200.1,44.7-9.7,79.8-1.5,122.7,11.2,98,28.9,222.6,97.5,259,199,6.8,19,7,38.1,13.5,57.5,3.8,11.2,10.1,22.1,13.7,33.4,0,1.4-8.3,16.4-9.8,19.1-2.4,4.3-9.7,13.4-10.7,17.3-1.8,6.8-.6,15.6-2.3,22.5,9.9,7.9,21.3,4.2,32.4,6.5,9.6,23.9,23.5,46,31.4,70.6-9.8,26.3-22.2,51.8-33.2,77.7-1.3,3-1.7,9.3-5.1,11.4h0Z"/>
  <path id="shading-jaw" class="shading"  class="st1" d="M1380.8,1185.8c-.2.4-2.1.7-2.8,1.7-8.6,10.8-16.2,26-21,39-4.2,11.4-5.1,22.7-13,32-18.8,22.4-51.8,45.5-78.3,57.7-5.4,2.5-12.5,3.7-16.7,7.8h20.5c2.7,0,5.1,1.2,7.9,1.1,18.1-.2,64.4-19.8,77.5-32.6,5.7-5.5,14.1-15.7,15-23.5,1.8,0,.7,2.4,1.5,4,3.1,5.9,15.5,5.2,21.5,6,.2,1.6-1.5.7-2.3,2.2-4.6,8.3-4.4,21.6-10.6,28.3-7.5,8.1-37.1,13.5-48.8,17.2-14.5,4.6-29.8,8.8-42,18.1l-52.8-14.8c-19.3-2.3-9.9,15.4-5.3,25.3,5.2,11.3,20.7,40,30.4,46.6,11.9,8.2,22.7-10.2,30-17,6.3-6,16.2-11.8,24.6-14.4,17.7-5.6,32.3,4.7,50.5,5.4,17.4.8,34.6-7.7,48.8-17.2,3.6-2.4,14.6-13.9,17.2-13.8,1.7,0,3.3,6.1,1.8,7.8-10.1,24.3-21.6,48-31.8,72.2-3.7,8.8-.8,14-13,15-9.3.7-15.8-1-24.2-1.8-4.8-.4-11.8,2.5-17.3-.2l-12.9,70.6-59,30.5c.4,11,2.6,23.6,2,34.5-.3,5.7-1.3,15.4-2.1,20.9-.5,3.1-13.4,31.4-15.4,33.6-3,3.2-11.6,6.2-15.5,9-.8-4.9-2.7-10.6-3-15.5-.6-11.2,2-11.3-2.7-23.2-.4-1.1-1.9-1-2.2-2-.8-2.2-.8-6.7-1.1-9.2l-2.3.2-50.2,51.8c-7.7,5.2-19.5,8.7-26.5,14.5-14.2,11.7-24.4,36.1-41.5,47.5-6.7,4.5-54.2,25.7-61.2,26.8-9.9,1.5-51.8,1.6-61.5,0-6.9-1.2-49.7-20.5-57.3-24.7-15.8-8.9-30.2-37.8-44.4-49.6-6.9-5.7-19-9.3-26.5-14.5l-51-52c-1,8.1-7.3,16-8.1,24-.6,6.2.6,14.6-.3,21.6-.2,1.7-3,1.8-2.1,4.4-.6.7-14.6-8.1-15.5-9-1.7-1.8-15-30.8-15.4-33.6-.7-4.4-.9-13-1.1-17.9-.5-12.2.6-24.4.5-36.6l-58.5-31.4-13-69.5-48.8-.2-38-86.6.9-6.2c8.2.4,11.8,8.2,18.6,12.7,25.3,16.9,38.4,19.8,68.5,13.9,17.1-3.4,19.1-7.5,37.2.4,15.9,7,19,16.2,30.6,25.4,9.6,7.6,13.6,7.9,22-1s31.8-49.1,32.1-60c.2-8.7-6.4-8.1-13.3-7.2-8.6,1.1-48.4,15.1-51,14.6-1.7-.4-12.3-7.9-16.5-9.6-20.3-8.4-48.8-11.8-67.2-20.8-14.9-7.3-11.3-20.9-17.7-33.2-.9-1.6-2.5-.6-2.3-2.2,6.3-.9,17,0,21-5.5,1-1.4.3-3.7,2-3.5,3,11.7,15.2,23.9,25.1,30.4,21.2,13.8,50.4,23.7,75.4,23.5h20.5l-34.7-16.8c-19.1-10.8-48.2-33.1-61.8-50.2-6.2-7.8-7.1-18.3-10.5-27.5-6-16.6-14.4-32-25-46,1.3-9,6.5-19.6,7.8-28.2,1.9-12.9,1.8-19.5,6.5-32.5,36.4-101.1,159.2-169,256.8-198.2,49.9-15,102.4-18.2,153.2-5.2,103.5,26.4,242.6,100.3,277.2,208.8,3.4,10.5,3,17.3,4.8,27.2.8,4.7,8.9,28.4,7.6,30.6l-.5-.2ZM1195.9,1382.1c-32.3-16.1-63.1-35.3-95.9-50.7-17.5-18.7-37.4-36.6-54.6-55.4-4.8-5.3-11.2-16-16-20-3-2.6-7.4-3-10.6-.6-4.5,3.4-12.7,16.4-17.4,21.6-16.7,18.6-36.8,35.6-53.6,54.4-32.9,15.3-64,34.2-96,51.2-.6,2.8,12.4,35,14.6,40.3,2.9,7.1,12.1,31.7,16,36.1,7.1,8,36.5,26.3,47,33,19.8,12.7,36.1,22.9,59.3,28.7,27.3,6.8,39.7,7.1,67,.6s43-16.6,65.7-31.3c10.4-6.8,35.9-22.5,43.4-30.6,4-4.4,12.7-27.4,15.6-34.4,2.1-5.1,16.8-41,15.5-42.9M728.3,1496.7c1.6,2,8.2,6.3,10.7,7.8,14.7,8.8,31.8,13.8,46.9,23.1,16.8,10.2,40.2,33.1,59.6,33.5,2.3,0,8.7-1.2,9.4-3.7s-13.6-27.6-16.4-30.3c-7.3-7.1-27.5-17.2-37.2-23.8-15.2-10.3-50.3-39.1-67.9-39.2-10.5,0-8.7,28.1-5.1,32.7h0ZM1319.7,1466.3c-5.9-5.9-24.1,4.1-30.4,7.6-16.2,8.9-31,21.4-46.2,31.8-12.7,8.7-30.1,15.7-38.6,28.4-2.2,3.4-10.8,17.7-11.4,20.7-1.1,5.3,6.2,6.5,10.3,6.3,16-.9,23.4-9.7,35.2-17.8,9.2-6.3,19.3-13.6,29-19,11.7-6.6,47.1-19.2,52.7-29.3,2.4-4.3,2.8-25.2-.7-28.6h0ZM1126,1664c-12-2.7-20.7,6.6-31.6,7.9-5.7.7-12.2-1.2-16.6-.7-7.1.8-22.9,12.1-31.2,14.9-14.8,4.9-30.2,4.7-45.1,0-8.8-2.8-23.9-14.1-31.2-14.9-4.4-.5-10.9,1.4-16.6.7-11-1.3-19.9-11-31.6-7.4,0,6.9,23.8,23.5,30,27,12.5,7.1,59.8,26.8,72.5,26.6s59.9-19.8,72.2-26.9c10.3-6,24.6-16.2,29.3-27.2h-.1Z"/>
  <path id="outline-jaw" class="outline"  d="M676,1140c5.3-3,18.5-3.6,19.1,4.5-2,7,0,18.6-3.2,24.9s-17.1,12.9-20.3,20.7c-1.1,2.6-6.2,25.4-6.5,28.5,0,1.3-.2,2.3.2,3.6,1.8,6.8,14.7,21.7,18.7,29.4,5,9.8,6.5,20.8,10.3,30.7,5.7,14.4,14.5,13.4,26.1,19.9,7.6,4.3,16,10.2,22.7,15.8-3.8,0-7.5.2-11.2-.2-8.4-1.1-30.6-5.8-38-8.9-9.8-4.2-8.9-17-13.8-20.2-2.7-1.8-8.7-1.2-12-2-6-1.4-9.7-6.6-16.7-1.3-6,11.6-13.4,22.6-19.2,34.3-7.3,15-16,27.5-6.5,43.3,5.5,9.2,23.4,26.5,26,35,2.4,7.9-2.3,28.2,2.4,33.6,7.5,8.5,28.6,4.4,35.5-3.6,2-2.4,2.5-6.3,4-9,6.3-10.9,19-25.2,30.7-30.3,12.2-5.3,16.1,11.4,18.4,20.3,3.6,14.2,1.3,26.5,12,38,6.7,7.3,18.2,14.5,27.2,18.8,4.7,2.2,21.2,9.9,25.3,10.7,12.8,2.4,25.4-6.5,32.6-16.5,2-2.8,2.8-6.3,4.7-9.3,9-14.8,16.3-6.2,25.8,1.8,11,9.2,20.9,19.8,32,29,45.8,38.3,90.7,54.1,151.4,45.3,58.2-8.4,83.7-40.7,125.7-75.3,2.2-1.8,8.8-7.7,10.8-8.2,12.1-3.2,14.2,10.5,19.7,17.8,5.7,7.4,15.3,15.6,25,16,7,.3,27.7-8.7,34.9-12.2,10.9-5.3,28.8-17.6,32.4-29.6,2.2-7.6,2.6-17.3,4.6-25.4,2.3-9,6.1-26.7,18.6-21.2,9.4,4.1,22,16.8,27.5,25.5,5.6,8.9,3.9,13.8,14.9,19.1,7.3,3.5,20.9,5,27.1-1.3,5.8-5.8.5-25.5,3-34,2.6-8.8,20.8-26.2,26.4-35.6,8.1-13.8,2.8-20.8-3-33.7-6.7-15-15.5-28.9-23.1-43.4-6.9-5.2-11.2-.2-17.5,1.5-3,.8-8.4,0-11.2,1.8s-5.1,12.8-8.6,16.4c-2.4,2.4-6.7,4-9.9,5.1-7.8,2.7-25.9,6.9-34.1,7.9-3.4.4-7,0-10.4,0,6.2-5.6,14.7-11.2,22.1-15.4,10.5-5.9,20.2-6.1,25.7-18.3,4.2-9.5,5.8-20.9,10.4-30.6,4.3-9,17.4-23.9,19.4-31.6.4-1.7.5-2.5.2-4.2-.6-4.5-5.3-24.5-6.9-28.2-3.4-7.8-19.2-16-20.8-22.2-.9-3.4-2.7-24.1-1.6-26.4,2.2-4.5,13.6-3.5,17.5-1,.8,2.8,2.9,13.6,4.2,14.8,4,3.5,21.3,4.8,24.5,11,2.5,4.8,0,15.5.2,21.8,0,2.9.8,7.8,1.3,10.7,1.5,8.6,9.7,23.3,7,30.5-2.3,5.9-12.8,22-16.8,28.2-3.3,5.1-7.9,9.5-10.4,15.1.7.7,9.7-4.6,10.9-5.6,5.4-4.1,7.6-12.1,14.6-5.5,4.7,4.4,13.6,18.5,17.5,24.5,10.1,15.9,19.6,34.4,25.7,52.3,1.6,4.7,5.8,14.8,3.7,19.2-.7,1.6-9.2,9.8-11.3,12.7-16.3,21.9-31.2,47.4-32.7,75.3-.8,1.3-2.2,1.8-3.5,2.5-5.7,2.8-27.3,11.7-32.6,12.4-3,.4-6.5.3-9.5-.3-4.5-.9-7-4.1-10.9-5.6-1.1,9.1-2.6,18.4-3,27.5-.4,7.8,1.5,32.2-.6,37.4-.4,1.1-11.8,14.9-12.7,15.3-3.8,1.8-11.7.3-16.3.7-13.5,1.3-21.2,15.2-25.2,26.8-4.6,13.3-5.2,27.9-9.2,40.8-5.8,19.3-37.7,50-54.2,61.8-.9.6-4.2,3.4-4.9,2.6,1-15.3,2.8-31.2-2.6-46-.3-.9-1.8-5.7-3.4-4-.6.6-3.5,12.5-6.2,16.3-8.3,11.9-29.2,7.9-37.8,19.2-9.5,12.3-7.6,28.7-22.1,38.9-32,22.4-79.6,38.4-117.7,46.3-12.4,2.6-16.8,2.3-29-.4-35-7.6-67.9-18.6-99.2-35.8-5.1-2.8-20.9-11.4-23.8-15.2-6.2-8-8.6-25.8-15.6-34.4-9.6-11.7-30.7-5.5-39.2-21.8-1.5-2.8-3.8-12.7-4.3-13.2-1.8-1.8-3.8,4.8-4,5.4-4.5,13.8-3.1,29.3-2,43.5-1.7,1.8-16.8-10.7-19-12.5-15.1-12.7-36.9-37.3-41.5-56.5s-7.6-59.5-33-62c-4.4-.4-13.1,1-16.5-.5-.9-.4-12.1-14.4-12.5-15.5-2.6-7.5-.2-27.3-.6-36.4s-2.3-19.1-3-28.5c-.4-.5-9.5,5.3-11.7,5.8-13.3,2.8-32.2-10.6-45.1-13.9-.7-27.4-14.8-51.6-30.3-73.2-2.2-3.1-4.5-6.2-6.8-9.2-4.1-5.2-7.9-4.8-6.9-12.9,1.3-10.6,13.1-35.4,18.4-45.6,3.6-6.8,26.1-44.2,31.2-45.8,7.3-2.2,13.1,11.5,21.3,11.8l-25.5-40.9c-4-9.3,4.3-21.7,6.2-31.8s.2-19.2,1.3-28.7,18.5-11,25.8-14.7c2.6-2.8,1-6.8,1.5-9,.4-1.9,1.3-3.7,1.8-5.8h-.5ZM799,1627.5v-20c0-3.1,8.8-25.7,11-27,4.3-2.7,20.4,9.8,24,13,12,10.5,20.7,26.3,32,36,8.5,7.4,21.1,12,29.5,19.5,10.9,9.6,20.1,26.5,30.5,37.5,11,11.7,29.8,18.4,44.7,24.3,25.1,9.9,38.9,14.1,66.8,12.3,16.1-1,62.3-19.4,76.4-28.6,13.7-8.9,25-32.9,37.6-44.4,9.3-8.6,24.5-14.2,33.6-22.4,10.1-9.2,18.3-23.6,29.4-33.6,3.6-3.3,19.9-16.8,24.4-13.8.8.6,6.9,16.7,7.6,18.9.5,1.7,2.5,8.4,2.5,9.5v17c0,.6-1.6,2-1,3.5,10.4-10.7,20.8-25.9,23.6-40.9,2.4-12.9,1.4-27.4.4-40.5-.3-4-2.6-6.9-.8-10.8,3.7-8.5,20.8-15.9,29.2-19.9s24.7-7.7,29.1-15.9c4.6-8.5,2.6-32.2,3.7-43.3,1-10.3,7.7-19.4,6.9-29.1-.6-6.6-5.4-16.3-10-21-1.5-1.5-8.2-6.7-10-5.5-1.8,1.3-7.1,27.7-7.1,31.5,0,7.3,4.4,13.6-2.4,19.5-17.3,15-41.2,23.8-61.1,34.9-5.5,3.1-23.5,16.8-28.6,16-2.7-.4-5.4-3.6-9.2-3.9-11.7-.8-14.9,8.5-22,15-16.4,14.9-41.2,22.8-63,25-69.3,7-135.6,7.1-205,0-22-2.2-45.8-9.7-62.5-24.5-7.2-6.4-10.9-16.4-22.5-15.6-3.7.2-7.5,4-9.8,3.8-5.4-.5-21.2-12.7-27-15.9-13.4-7.4-27.8-13.2-41-21-4.6-2.7-22.9-14-23.7-18.3-1-5.2,1.1-10.4,1.1-15s-5.6-31.3-7.6-31.5c-7.7-.9-16.7,15.1-18.5,21.5-4.1,14,4.6,20.6,5.9,34.2,1.4,13.7-4.1,40.6,8.8,49.2s39.9,13.7,50.8,26.2c5.6,6.4,1.4,8.6.7,15.6-3.2,29.7,1.3,54.7,20.9,77.8.5.6,3.9,4,2,1l-.3-.3Z"/></g><g id="03_Mouth" data-trait="jaws"><path id="fill-mouth-main" class="fill"  fill="#fff" d="M1102 1287c.4.6-2.2 4.3 0 5.5 50.4 27.6 100.7 55.4 145.8 91.1-5.2 15.8-10.4 31.6-16.7 47.1-5.9 14.4-8.3 22.4-12.7 37.3-13 44.8-25.3 89.9-38.3 134.7-3.4 15.6 7.3 31.3 8.8 45.8.5 5.4-1.6 24.6-3.1 29.9-2.4 8.9-12.3 10.5-19.9 15.1-23.1 14.2-44 33.8-68.7 45.3-38.6 17.9-94.7 18.9-134.6 4.9-30.8-10.8-53.7-33.5-80.8-50.2-5.6-3.4-16.3-6.9-18.8-12.2-2.2-4.7-4.6-27.2-4.1-32.9 1.2-14.4 12.1-30.2 8.8-45.8-13.8-47.4-26.5-95.2-40.5-142.5-3.7-12.4-5.6-17.8-10.5-29.5-6.4-15.4-11.4-31.2-16.7-47.1 45.2-35.6 95.4-63.7 145.8-91.1 2.2-1.2-.5-4.8 0-5.5.2-.2 3.4-1.1 4.7-1.9 25.5-15.1 52.3-31 83.7-27.1 24.4 3.1 42.7 15.5 62.9 27.1 1.2.7 4.5 1.7 4.7 1.9h.2Z" class="fill" data-original-prefix="fill"/><path id="fill-mouth-teeth13" class="fill"  fill="#fff" d="m1042 1510-1.9 71.5c-.9 11.5-1.7 23.4-2.1 34.9-.2 7.7 1.3 20.2 0 27-.5 2.5-12.9 11.6-14.3 11.4-1.2-.2-13.2-8.9-13.7-11.4-.2-44.5-3.3-88.9-4-133.5l17.6 16.9 18.3-16.9Z" class="fill" data-original-prefix="fill"/><path id="fill-mouth-teeth12" class="fill"  fill="#fff" d="m1000 1637-20-15.5c-1.8-.5-2.8-4.4-3-4.5-.8-.5-3 3.8-5 3-.4-20.5-.2-41.1-1-61.5s-2.9-41.1-2.5-61.4l11-14c3 4.2 18.8 16.6 19.2 20.6.4 3.5-.9 11.2-.8 15.9.8 20.4 1.8 41.5 2.1 61.9.2 18.5-.2 37 0 55.5" class="fill" data-original-prefix="fill"/><path id="fill-mouth-teeth11" class="fill"  fill="#fff" d="M1076 1620c-2 .8-4.2-3.5-5-3-.2.2-1.2 4.1-3 4.5l-20 15.5c.2-18.5-.3-37 0-55.5.2-20.4 1.3-41.5 2.1-61.9.2-4.7-1.2-12.4-.8-15.9.4-4 16.2-16.4 19.2-20.6 2.1 3.9 9.5 10.8 11 14 1.8 3.8-1.3 28.2-1.5 34.4-.3 9-.7 18.1-1 27-.7 20.5-.6 41.1-1 61.5" class="fill" data-original-prefix="fill"/><path id="fill-mouth-teeth10" class="fill"  fill="#fff" d="M1114 1651c-3.8-.4-4.7-3.2-5-6.4-1.4-14.4 1.7-35 2.1-50 .6-21.9 0-43.7 2-65.5 3.3.2 4.2 1.9 7.1-.4 6.2-5.1 13.2-22.1 19.9-28.8s2.8-2 3-1.8l-9.1 120.4-20 32.6Z" class="fill" data-original-prefix="fill"/><path id="fill-mouth-teeth9" class="fill"  fill="#fff" d="M907.7 1499.3c7 6.2 13.8 23.9 20.3 29.2 2.9 2.4 3.8.6 7.1.4 1.5 10.5.6 21 1 31.5.7 20.9 1.5 42 2 63 .2 5.8 4.1 25-2.5 27.4-1.7.6-6.8-10-8.5-11.4l-12.9-21.1c-3.3-40.1-5.6-80.4-9-120.4 0 0 2.2 1 2.7 1.3h-.2Z" class="fill" data-original-prefix="fill"/><path id="fill-mouth-teeth8" class="fill"  fill="#fff" d="M903 1601c-7.1-6.3-5.5-23.9-18-13l-17-142c10.4 12.2 19 26.1 28 39.5 1.9 38.5 3.8 77.1 7 115.5" class="fill" data-original-prefix="fill"/><path id="fill-mouth-teeth7" class="fill"  fill="#fff" d="M1163 1588c-12.5-10.9-10.9 6.7-18 13l4-51.5 3.1-63.9c8.9-13.4 17.5-27.3 27.9-39.5l-17 142Z" class="fill" data-original-prefix="fill"/><path id="fill-mouth-teeth6" class="fill"  fill="#fff" d="M963 1507c-.7 40.2 2 80.1 2 120.3-1.9 1.4-17.9 15-19 13.7.9-38.3-2.3-76.2-2-114.5l15.4-18.6z" class="fill" data-original-prefix="fill"/><path id="fill-mouth-teeth5" class="fill"  fill="#fff" d="M1102 1641c-1.1 1.3-17.1-12.3-19-13.7.4-22.3.5-44.6 1-66.8 0-2.4 1-4.6 1.1-6.9.3-15.5-.3-31.1 0-46.5l3.6.9 15.4 18.6c.3 38.2-2.9 76.2-2 114.5Z" class="fill" data-original-prefix="fill"/><path id="fill-mouth-teeth4" class="fill"  fill="#fff" d="M875 1581c-1.5.2-1.3-1.7-1.7-2.8-3-8.8-6.1-18.6-8.6-27.4-10.7-37.7-11.6-78.6-17.8-117.3 0-3.9 3-6.9 5.6-9.5 3.4 3.5 5.8 6.6 6.4 11.6 1.2 10.1 1 21.5 2.1 31.9 3.8 35.2 11.2 72.2 14 107 .2 2.2 0 4.3 0 6.5" class="fill" data-original-prefix="fill"/><path id="fill-mouth-teeth3" class="fill"  fill="#fff" d="M1172 1580c6.3-40.6 11.8-81.6 16-122.5 1.2-11.5-1.6-25.4 7.5-33.5 2.6 2.6 5.7 5.5 5.6 9.5-7.6 47.5-8 99-26.1 144-.6 1.6-.8 2.9-3 2.5" class="fill" data-original-prefix="fill"/><path id="fill-mouth-teeth2" class="fill"  fill="#fff" d="m843 1439 4 53-5.7-15.8c-1-7.8-7.5-23.8-4.4-30.8.5-1.1 2.9-4.1 3.8-5.2.6-.7 0-1.9 2.3-1.3Z" class="fill" data-original-prefix="fill"/><path id="fill-mouth-teeth1" class="fill"  fill="#fff" d="M1207 1439c.3.3 4.7 7.3 4.8 7.7 1.3 4.9-3.4 23.5-5 29.5l-5.7 15.8 4-52.5c0-.9 1.9-.6 2-.5z" class="fill" data-original-prefix="fill"/><path id="outline-shading-mouth4" class="outline"  fill="#000" d="m900 1319-56.5 57-14 16c-1.9 4.1 3.2 15.8 2.5 21 4.2-1.8 14.7-13.4 18.4-13.1 4 .3 8.8 14.9 10.3 18.8 2.5 6.3 4.5 12.8 6.8 19.2 18.7 24.5 38.6 48.2 57.4 72.6 3.8 5 3.2 9.2 10.1 7 3.2-1 13.7-10.2 17-13 10.5-9 19.8-20 30.5-28.6l41.1 41 41.9-41c13.1 10.8 24.4 24.6 38 35 3.2 2.5 10.4 9 14.5 6.5l61.8-79.2c3.6-6.3 11.7-36.7 16.9-38.2 4.6-1.3 17.3 14.1 19.3 11.9-.8-5.2 4.4-15.8 2.5-20-20.7-25.2-46.1-46.1-68-70-.7-.7-2.7-2-2-3 34.5 16.7 65.1 39.8 96 62 2.5 5.1-7.2 33.5-9.8 40.2-2.7 7.3-6.2 13.8-9.2 20.8-3.2 7.3-3.5 21.2-14.5 14l-8.5 50-2.5 1c-.2-19.8 1.9-39.7 4-59.4-2-4.9-6.9-13.6-8.8-3.8-4 21.5-4.5 48.2-7.4 70.6-3.6 28-8.2 56-12 84-2 14.9-3.3 16.2 1.9 31.4 1.3 3.8 7.2 14.6 7.4 16.7s-6.3 26.7-7.6 29.5c-2.4 5.5-34.3 27-41.2 30.8-23.5 12.8-65.3 23.2-92 27-44.3 6.3-112.7-12.8-149.7-38-4.2-2.9-22.5-15.7-24.1-18.9-1.2-2.3-7.8-28.2-7.7-30.4 0-2.1 7-16.2 8.3-20.7 4-13.7 2.7-13.4.9-26.4-7.5-52.8-15.1-105.5-20.4-158.6-2.2-5.2-7.7 4.9-7.9 7.8 2.1 19.4 4 39 4.1 58.5h-3l-8-51c-11.6 7.2-11.3-6.6-14.5-14-5.7-13.3-11.5-25.2-15.5-39.5-1.5-5.2-6.1-18.6-2.5-22.6 31.2-21.3 60.9-45.2 95.5-60.9zm-34.5 137v1c.7-.3.7-.7 0-1m315.5 1c-3.8 9.4-17.3 19.9-21.1 28.4-3.4 7.8-1.6 20.7-3.9 29.1l-3 60c.6 3 10.1 7.9 13.4 8.4zm-286.2 118.8c-1.8-29.7-2.2-59.6-6.1-89.1-7.3-9.7-14.3-20.1-22.7-28.8l14 125c6 0 10-4.5 14.8-7.2ZM995 1627c-.8-15.5-.4-31.1-1-46.5-.7-20.6-1.2-43.5-3-63.9-.3-3.6-.4-13.4-4.5-13.5-2.5 0-20 10.7-20.5 13.5 2.4 20.6 1.2 41.4 1.9 62 .2 6.2.6 13.8 1.1 19.9s3 12.8 2 19.5l5.4-5c1.5 2.2 17 15.7 18.6 14m82-10c-.8-6.9 1.6-13.7 2.1-20.4 1.1-17.4.3-35.7.9-53.1.3-8.7 2-18.1 2-26.9s-1-2.1-2-3c-2.2-1.8-17.3-10.9-19.3-10.4-2.9.7-3.4 7.6-3.7 10.4-3.3 35.8-2.8 74-4 110 0 1.4 0 2.9-1 4 5.2.7 17.8-14.1 19.5-14.5 2.3-.5 2.5 4.7 5.4 4Zm-146 17c-1.9-32.1-.2-64.4-2-96.5l-26-32.5c2.8 32.1 2.9 64.2 5 96.4 6.9 11.3 14.5 22.3 23 32.5Zm187 0 22-32.5c1.9-32.2 2-64.3 5-96.4l-26 32.5c-2 25.3-.4 50.7-1 76-.2 5.9-1.4 11.5-1 18 0 1.1-.7 2.8 1 2.5Zm-175 2c.8.8 16.4-9.7 17.5-11 .7-.8 1.5-1.4 1.4-2.6-.7-33.9-2.5-67.6-4-101.5-3.4 2.4-16.3 10.2-17 13.5-.2 33.9 0 67.8 2 101.5Zm101-115c-4.9 2.7-10.4 10.7-15.7 11.8-11.9 2.5-16.1-5.4-24.3-11.8 1.3 37.5 2.3 74.9 2 112.5.8 4 14.2 9.4 17.7 12.4 3.7-2.5 17.6-8.6 18.3-12.4-.2-37.6.2-75.1 2-112.5m61 115c1.6-33.8 2.3-67.6 2-101.5-.7-3.7-13.7-10.5-17-13.5-1.8 33.8-3.7 67.5-4 101.5.2 2.9 18.2 14.4 19 13.5m-167.3 18.7c-1 .9-2.6 1.5-4 1.2-3.8-1-23-30.3-27.3-35.8L895 1607c-.4 4.4-1.3 8.8-2.5 13-1.6 5.4-8.4 19.9-8.6 23.5 0 2.9 4.5 19.8 5.8 23.3.7 1.9 1 3.9 2.9 5.1 29 14.8 52.4 35.8 84.2 44.8 31.1 8.9 64.2 8.8 95.2-.2 31.6-9.2 55.5-30.5 84.3-45.4.8-.4.9-1.2 1.2-2 1.2-3 6.7-24.2 6.5-26.5-.3-3.3-5.8-13.4-7.3-17.8-1.8-5.8-3.1-11.8-4.2-17.8-2.2 3.1-5.1 5.6-7.5 8.5-8.8 10.8-17.2 26.4-26.1 35.9-1.6 1.8-3.2 3.6-5.6 4.3l-43.7-28.7c-4.3 3.6-8.6 8.8-13.3 11.7-8.2 5.1-15 6.1-23.4 13.6-2.3 2.1-3 5.8-6.5 6.5-8.1 1.6-7.3-2.8-11.5-6.4-7.2-6.1-10.9-7.5-18.9-11.1-6.3-2.8-12.3-10-17.6-14.4-12.8 7.9-26.2 15.6-38.3 24.5-1.3.9-1.6 2.5-2.3 3.1v.2Z" class="shading" data-original-prefix="shading" opacity=".2"/><path id="outline-shading-mouth3" class="outline"  fill="#000" d="M1118 1345c-1.5 1.5-1.8-.6-2.3-1.3-1.8-2.3-6.1-7.1-7.1-8.8-1.8-3.2-.9-7.3-2.6-9.4-2-2.4-11.1-9.6-14.1-11.9-17.8-13.8-38.6-25.3-56-40-3.6-5.4 6-7.7 4.1-13.6.4-.4 8.3 1.9 9 2.5 1.9 1.6 0 5.2 2 7l68.4 49.6c2.9 2.8-.3 24.8-1.4 25.9" class="shading" data-original-prefix="shading" opacity=".2"/><path id="outline-shading-mouth2" class="outline"  fill="#000" d="M1008 1260c-2.1 5.5 7.8 8.5 4.1 13.6l-61.1 43.9c-10.3 7.3-11.1 16.5-18.7 26.2-.5.7-.7 2.7-2.3 1.3-1.1-1-5.1-24.3-1-26.5l68-49c2-1.9 0-5.2 2-7 1-.9 8.7-2.9 9-2.5" class="shading" data-original-prefix="shading" opacity=".2"/><path id="outline-shading-mouth1" class="outline"  fill="#000" d="M1011 1355c1.1 4.6-4.9 8.9-3.6 13 1.1 3.3 13.8 10.8 16.2 14.9 1.2.2 16.5-14.1 17-15.9 1-3.6-5.2-7.6-3.6-12 6.9-2.5 17.3 6.5 15.8 13.3-.8 3.8-7.8 10.3-10.8 13.2-6 5.9-6.9 4.1-10.8 12.2-1.9 3.9-5.9 3.9-9.8 3.3-5.8-.8-4.3-4.3-6.4-7.6-4.4-6.7-23.9-15.6-19.3-26.2 2.2-4.9 9.7-10.1 15.2-8.2Z" class="shading" data-original-prefix="shading" opacity=".2"/><path id="outline-mouth" class="outline"  fill="#000" d="M1006 1260c.4-2.1 4.7-6.2 6.5-7 2.2-1 1.8 3.9 2.5 5l-.5 19c-9.8 6.8-19.7 13.6-29 21-10.5 8.4-26.4 21.1-35.5 30.4-3.6 3.7-.7 4.6 2.7 7.3 14.2 11.7 34.2 18.3 52.3 20.2 1.2 1.2-6.6 10.7-4.8 13.8l23.5 23.1c1.5.3 18.4-18.6 21.4-21.5.8-.8 2.6-1.3 2.8-1.6 1.8-3.1-6-12.7-4.8-13.8 18.1-1.9 38.1-8.5 52.3-20.2 3.3-2.8 6.3-3.7 2.7-7.3-9.1-9.4-25-22-35.6-30.4-9.3-7.4-19.2-14.2-29-21-1.1-1.8-.6-15.7-.5-19 0-1.1-.9-6 1.5-5 2.1.9 6.1 6.1 7.5 7-1.8 1-1 3.4-.5 5 3.8 10.3 55.3 44.8 67.4 54.6 1.8 1.5 8 6 8.6 7.4 2.3 5.4-.6 18.1-.5 24.5 0 4.3 3.4 17.4 1.1 20-1 1.1-12.4 6.6-15.3 8.7-15.1 10.7-26.8 28.3-34.7 44.8-1.5.4-1.7-.4-2.5-1-5.2-3.6-23.3-26.5-26.1-26.9-5.3 3.9-11.8 6.3-12.4 13.4-1.2 13 1 27.8 0 41.1l3.1 42.5 34.4-35.1 2.9-.9c13.6 15 26.1 31.3 40.1 46 1.3 1.4 9.3 10.1 10.5 9 3.5-11.2 11.6-21.6 18.2-31.3 19-27.8 40.6-53.8 59.3-81.7.8-.7.7-1.5 1.5-.4 7.1 9.4 13.4 20.9 20.5 30.4l17.6-43.4-157.1-108.6 2-3c36.8 19.5 75.4 39.4 110.9 61.6 21.2 13.3 40.5 29.5 61.9 42.6.6 1.1.2 2.9 0 4.2-.7 7.6-9.9 31.6-13.2 39.9s-7.1 16.1-11 24l-44.5 161.6c.4 12.4 9.3 27.7 9.8 39.7.3 6.8-1.7 25-3.2 31.9-.4 2.2-1.7 6.3-3 8-1.2 1.6-15.8 8.4-19.4 10.6-24.6 15-45.2 35.2-72.5 46.5-40.8 16.9-104 16.8-144.7-.3-27-11.3-47.4-31.4-71.8-46.2-3.6-2.2-18.2-9.1-19.4-10.6-1.3-1.7-2.6-5.8-3-8-1.4-6.9-3.5-25.1-3.2-31.9.6-12.2 9-27.1 9.8-39.7-13.1-46.2-25.7-92.7-39.3-138.8-2.2-7.3-3.2-16.5-5.7-23.3s-7.5-14.1-10.5-21.5c-5.5-13.7-9.1-28.1-14.2-41.9-.3-1.7 0-3.3 1.4-4.4 24.1-15.7 46.6-33.8 71.2-48.8 32.3-19.7 66.7-38.2 100.3-55.2l3 3-157.1 108.6 17.6 43.4c7.1-9.6 13.4-21 20.5-30.4.8-1.1.7-.3 1.5.4 18.8 27.9 40.3 53.9 59.3 81.7 6.6 9.7 14.7 20.2 18.2 31.3 1.2 1.1 9.2-7.6 10.5-9 14-14.6 26.5-30.9 40.1-46l2.9.9 34.4 35.1 3-42.5c-1-13.2 1.2-28.1 0-41.1-.7-7.1-7.1-9.5-12.4-13.4-2.8.5-21 23.4-26.1 26.9-.8.6-1 1.4-2.5 1-7.8-16.5-19.6-34.1-34.7-44.8-3-2.1-14.3-7.5-15.3-8.7-2.3-2.6 1-15.7 1.1-20 0-6.4-2.8-19.1-.5-24.5.6-1.5 6.8-5.9 8.6-7.4 11-9 62.9-44.3 66.1-52.9 1.1-2.8.4-4.5.8-6.7zm-131 321c0-2.1.2-4.3 0-6.5-2.8-34.8-10.2-71.8-14-107-1.1-10.4-.9-21.8-2.1-31.9-.6-5-3-8.1-6.4-11.6-2.6 2.6-5.7 5.5-5.6 9.5 6.2 38.7 7.2 79.6 17.8 117.3 2.5 8.9 5.6 18.7 8.6 27.4.4 1.1.2 3 1.7 2.8m297-1c2.2.4 2.4-1 3-2.5 18.1-45 18.6-96.5 26.1-144 0-3.9-3-6.9-5.6-9.5-9.1 8.1-6.3 22-7.5 33.5-4.2 40.9-9.7 81.9-16 122.5m-329-141c-2.3-.6-1.7.6-2.3 1.3-.9 1.1-3.3 4.1-3.8 5.2-3.1 7 3.3 23 4.4 30.8l5.7 15.8-4-53Zm364 0s-2.1-.4-2 .5l-4 52.5 5.7-15.8c1.6-5.9 6.4-24.5 5-29.5 0-.4-4.4-7.4-4.8-7.7zm-304 162c-3.2-38.4-5.1-76.9-7-115.5-8.9-13.4-17.5-27.3-28-39.5l17 142c12.5-10.9 10.9 6.7 18 13m260-13 17-142c-10.4 12.2-19 26.1-27.9 39.5l-3.1 63.9-4 51.5c7.1-6.3 5.5-23.9 18-13Zm-163 49c-.2-18.5.3-37 0-55.5-.2-20.4-1.3-41.5-2.1-61.9-.2-4.7 1.2-12.4.8-15.9-.5-4-16.2-16.4-19.2-20.6l-11 14c-.3 20.3 1.8 41.1 2.5 61.4s.6 41.1 1 61.5c2 .8 4.2-3.5 5-3 .2.2 1.2 4.1 3 4.5zm76-17c.4-20.5.2-41.1 1-61.5.3-8.9.7-18 1-27 .2-6.2 3.3-30.6 1.5-34.4-1.5-3.2-8.9-10.1-11-14-3 4.2-18.8 16.6-19.2 20.6-.4 3.5.9 11.2.8 15.9-.8 20.4-1.8 41.5-2.1 61.9-.2 18.5.2 37 0 55.5l20-15.5c1.8-.5 2.8-4.4 3-4.5.8-.5 3 3.8 5 3m-168.3-120.7c-.4-.4-2.6-1.5-2.7-1.3 3.4 40.1 5.8 80.3 9 120.4l12.9 21.1c1.7 1.4 6.8 12.1 8.5 11.4 6.6-2.4 2.7-21.7 2.5-27.4-.5-21-1.3-42.1-2-63-.4-10.5.5-21.1-1-31.5-3.3.2-4.2 1.9-7.1-.4-6.5-5.3-13.2-23-20.3-29.2h.2ZM1114 1651l20-32.6 9.1-120.4c-.2-.3-2.5 1.3-3 1.8-6.8 6.7-13.7 23.7-19.9 28.8-2.9 2.4-3.8.6-7.1.4-1.9 21.8-1.3 43.7-2 65.5-.4 15-3.5 35.6-2.1 50 .3 3.2 1.2 6 5 6.4Zm-151-144-3.6.9-15.4 18.6c-.3 38.2 2.9 76.2 2 114.5 1.1 1.3 17.1-12.3 19-13.7 0-40.2-2.7-80.1-2-120.3m139 134c-.9-38.3 2.3-76.2 2-114.5l-15.4-18.6-3.6-.9c-.3 15.5.4 31 0 46.5 0 2.4-1 4.6-1.1 6.9-.5 22.3-.6 44.6-1 66.8 1.9 1.4 17.9 15 19 13.7Zm-60-131-18.3 16.9-17.6-16.9c.7 44.6 3.8 88.9 4 133.5.4 2.5 12.5 11.2 13.7 11.4 1.4.2 13.8-8.9 14.3-11.4 1.3-6.8-.3-19.3 0-27 .4-11.5 1.2-23.4 2.1-34.9l1.9-71.5h-.1Zm-112.9 165.9-39.6-64.9c-2.7 4.3-15.7 16.7-16.5 20.5-.5 2.3 0 6.3 0 8.8.5 6.2 3.4 24.2 5.1 29.9 2.2 7.3 14 10.2 20.1 13.9 44.8 27.9 79.7 46.3 135.2 43.8 47.1-2.2 77.9-20 116.2-43.8 6.1-3.8 17.8-6.6 20.1-13.9 1.7-5.7 4.6-23.7 5.1-29.9.2-2.5.6-6.5 0-8.8-.7-3.8-13.8-16.2-16.5-20.5l-40.1 65.1-48.9-32.8-45.1 37.7-45.8-37.7c-6.8 2.2-46.8 34.1-49.4 32.6Z" data-original-prefix="outline"/></g><g id="04_Eyes" data-trait="OG-bandaid-glare"><path id="fill-skull" class="fill"  fill="#fff" d="M696 1136c-.3-2.4 0-2.8-2-4.5-3.8-3.1-19.7-8.2-21.1-10-.9-1.1 0-9.9.2-12 1.5-9.1 10.6-28 15-37 7.5-15.3 16.9-29.8 25.4-44.6 2.9-2.6 22.1-1.3 27-1 6 .4 15 1.2 20.9 2.1 3.1.5 18.9 5.6 19.6 4.9s-.2-2.5-1-3.4c-1.5-1.7-7.4-5.7-9.6-7.4-8.9-6.4-18.8-11.3-28.3-16.7-2.1-2.2 1.8-10 3.2-12.9 18.8-41 87.4-78.6 126.5-98.5 24-12.2 48.7-26 74.6-32.4 60.6-14.9 133.1-14.5 190.1 12.4 45.2 21.3 98.3 47.1 135.2 80.8 14.7 13.4 32 30.7 35.3 50.9-12.1 6.7-28 14-37.9 23.6-1.1 1.1-2.3 1.7-2 3.5 7.2-1.2 14.2-3.9 21.5-5 9-1.4 25.1-3.1 34-3.1s10.1.7 11.8 1.1c2.6.6 24.2 41 26.9 46.3 5.6 11.3 17.1 35.2 14.8 47.2-.6 3.1-5.1 3.1-7.7 4.3-3.1 1.4-11.1 4.9-13.3 6.7-1.7 1.4-1.8 3.3-2 3.5-3.4 2.5-8.7 4.1-12 7l-19.9 2.9c-6.4-28.3-15.3-59.3-32.3-83.2-3.2-4.5-11.1-14.8-15.3-17.7-9.4-6.6-26.9-7.8-35.5-13.5-6.2-4.1-19.1-22.3-26-29-19.1-18.4-34.9-29.3-62.4-18.3-13.1 5.2-37.8 24.8-39.6 39.5-.7 6.1 3.7 18.8 5.7 25.2 5.1 16.5 12.8 32.3 18.3 48.6-.7 3.3-34.2 15.6-39.1 23.2-4.4 6.8-9.2 18.8-12.5 26.5-5.1 12-9.6 24.6-13.5 37 3.8-2.9 7-6.8 10-10.5 9.2-11.4 16.7-25.8 25.5-36.5 6.3-7.6 25.6-22.8 34.1-28.9s10.2-5 16.9 3c15.1 18.1 36.9 56.7 46.4 78.6 1.3 3 4.9 10 4 12.7-13.4 9.6-26 22.4-39.6 31.5-14.1 9.4-30 14.5-46.9 16.1-21.3 2-41.9-10.2-62.4-13.9 11.3 10.2 27.4 18.1 20.9 36.4-.5 1.5-.8 3.1-2.9 2.6-2.9-4.8-22.3-15.4-24-19-3.5-7.5-4.8-8.6-9.2-15.3-6.5-9.9-11.7-21.7-10.3-33.7-6 2.7-8.5 1.9-14.5 0 2.4 9.8-3.1 22.9-8.2 31.3-3.3 5.6-9.6 10.4-10.8 16.7l-25 19c-.2-.3-2.3.8-2.9-3.6-2.5-19.3 7.7-22 20-32.8 1-.8 2.5 0 1.9-2.6-19.9 5.8-42.2 16.9-63.4 14.9-44-4.3-65.6-34.1-99.3-57.7-32.9-23-68.4-36.7-107.1-46.9-4.7-1.2-11.5-1.2-15.2-2.3-2.8-.8-7.3-5.8-11-6Zm284 47c1.8-2-16.4-44.5-18.8-49.7-3.2-6.7-6.3-13.3-11.2-18.8-19.9-10.8-40.9-20.3-60.6-31.4-14-7.9-26.5-19-42.3-23.2-1.4 1.4 6.9 7.5 8.1 8.4 26.9 20.6 64.8 41.2 87.9 66.1 11.7 12.6 20.2 32.4 33.8 46.2 1 1 1 2.8 3.2 2.3h-.1Zm13.5 50v1c.7-.3.7-.7 0-1" class="fill" data-original-prefix="fill"/><path id="fill-bandaid2" class="fill"  fill="#fff" d="M1227.3 1043.7c4.2 4.2 19 3.9 25.9 5.6 10.1 2.5 15 5.5 21.8 13.2 13.3 15.2 24.8 38.7 29.7 58.3 1.5 6.1 4.9 20 4.3 25.7-.7 7.3-7.5 10.7-13 14-15.9 9.4-48.1 24.5-65.5 30.5-3.6 1.3-10.7 4.9-13.4 1.4-14.5-27-27.9-54.6-44.9-80.1-2.5-3.7-12.1-14.8-12.3-17.8 0-1.3.5-3.2 1.4-4.2l52.2-34.3 1.5-4c-2.1-2.1-31.4 12.5-35.7 14.8-8.1 4.4-21.1 14.6-28.6 17.4-5.7 2.1-7.7-4.4-10.5-8.9-6.3-10.2-16.9-34-16.2-45.8s17.8-26.6 27.4-31.7c29.9-16 43.9 5.7 61.6 26.7 4.5 5.3 10 14.8 14.4 19.1h-.1Zm-53.6-35.5c-4 1.2-3.8 8.2.8 8.9 7.9 1.1 7.1-11.2-.8-8.9m-34.5 19c-3.9 3.9 1.1 12.3 7.3 7.8s-2.8-12.4-7.3-7.8m32.5 4c-3.9 1.2-3.9 8 .8 8.8 9.5 1.6 6.8-11.1-.8-8.8m31.1 13.6c3.8-3.8-2.4-11.5-7.3-7.8-6.2 4.6 2.4 12.7 7.3 7.8m-39.6 19c3.1 3.1 9.2 1.4 8.8-4.2-.6-9.8-14.9-1.8-8.8 4.2m61.1 110.9c6.8 5.5 33.6-5 41.4-8.5 8.6-3.9 29.9-14.7 31.9-24.1 3.1-14.6-13-47.2-21.3-59.8-4.1-6.2-13.8-21-21.6-20.2-13.5 1.4-59 26.9-67.1 37.9-3.3 4.4-3.2 6-1 11.1 4.5 10.4 14.6 26 20.7 36.2 3.1 5.1 13.8 24.8 17.1 27.4Z" class="fill" data-original-prefix="fill"/><path id="fill-bandaid1" class="fill"  fill="#fff" d="M1252.8 1072.2c1.2 0 2.2-.4 3.5 0 3.3.9 18.5 24.7 20.9 29.2 4.2 7.8 13.2 27.6 11.8 36.1-1.5 9.1-26.3 20.4-34.4 23.6-4.2 1.7-21.7 7.9-24.8 6.8-1.9-.6-14.8-22.6-16.8-26.2-2.7-4.7-18.1-33.2-17.7-35.9.2-1.3 1.4-2.8 2.3-3.8 7.2-8.1 44.8-28.6 55.3-29.7h-.1Z" class="fill" data-original-prefix="fill"/><path id="outline-shading-eyes" class="outline"  fill="#000" d="m929 867-29.9 17.6c-30.3 20-71.8 72.2-84.9 106.1-7.7 19.8 15.6 44.8 28.9 57.8 38.7 19.6 77.6 39.1 113.5 63.5 14.3 19.1 24.9 49.3 40 66.9 6.5 7.6 13.5 4.7 18 8 1.1.8 4.3 7.4 5 9 1.1 3-.8 7.2 4.1 7.8 4.3.5 3.4-4.4 4.9-7.7.8-1.9 3.6-8.2 4.9-9.1 2.2-1.6 10.3-2.3 13.8-4.2 10.7-5.8 33.6-58 43.2-69.8 15-11.9 32.4-20.3 48.5-30.5-7.7-10.2-13.6-22.5-17.2-34.7-.9-2.9-3.4-11.1-3.5-13.5 0-3.7 9.2-13.4 11.2-17.3 3.1 20.7 8.2 42.3 22 58.8l54-27.8c15.3-16.7 36.6-36 26.7-60.7-12.6-31.4-53-81.9-80.9-101.1l-32.3-19.2h22.5c4.4 0 41.6 19.2 48.2 22.8 47 25.9 92 62.9 123.7 106.3 2.8 3.8 12.4 14.4 8.3 18.7-3.2 3.3-25.6 8.5-31.7 10.8-36.2 13.6-77.5 29.7-110.7 49.3-2.6 1.5-18.5 11.3-19.1 12.4-3.5 6.1 7.2 13.2 10.8 17.3 10.8 12.8 19.2 28.1 27.2 42.8 1.4 2.5 7.2 16 7.9 16.6.8.6 5.6-.6 5.8-.9.4-.6-.2-2.2-.4-3-1.6-6.5-10.4-24.4-13.7-31.3-.9-1.9-8.6-14-7.8-14.6l8.8.2c7.3 13.8 15.4 28 26.8 38.8 29.8-25.1 64.3-43.3 97.9-62.9l32.4.5c4 2.4 10.3 24.6 15.6 29.4 1 1 5.9 2.1 4.4 4-.3.4-7.4 2.6-9 3.5-8.2 4.3-25.9 12.5-32.3 17.7-2.7 2.2-.5 5-3.2 6.8L1093.3 1287c-14.5-10.8-30.2-21-43.8-32.8-7.8-6.8-14.2-15.6-22.1-21.9-2.7 1.3-6.1-.6-8.4.4-1.5.7-16 17.3-19.6 20.5-8.4 7.5-27.4 23-36.6 28.4-2.1 1.2-4.3 3.2-6.9 2.2l-240-133.1c-1.4-1.6-.5-3.7-2.6-5.4-6.6-5.3-25.2-13.8-33.7-18.3-1.4-.7-7.4-2.5-7.7-2.8-1.4-1.9 3.7-3.1 4.9-4.6 3.6-4.4 11.6-27.2 15.1-28.9h33c21.4 12.9 44.7 24.7 65.5 38.5 18.6 12.3 35.7 27.9 54.2 40.8 28.2 19.8 67.5 44.8 99 58 17.4 7.3 25.6 4.6 43.5.8 6.2-1.3 19.7-6.3 24.5-6.4 2.5 0 7.8 3.9 12.8 3.8 4.6 0 9.2-3.9 11-4 2.1 0 11.4 3.5 14.7 4.3 10 2.3 27.5 6.9 37.3 6.7 11.2-.2 38.4-15.9 49.2-21.9 20.6-11.3 40.6-23.9 59.9-37.2l-49.9-76.9c-9.6 7.8-19.8 14.8-29.1 22.9-16.3 14.2-29.5 34.3-41.8 52.2-4.9 7.2-6.3 13.4-13.3 19.7-2.1 1.9-22 16.2-23.4 16.6-1.9.6-28.2.6-30.1 0-1.3-.4-19.7-13.4-21.9-15.1-8.5-7-9.6-13.4-15.3-21.7-18.6-27.2-30.8-43.5-56.9-64.1-49.5-39-98.9-60.6-157.6-82.4-5.5-2-29-7.4-31.3-10.6-1.7-2.4-1-4.6.2-7 4.8-9.4 21.7-29.2 29.3-37.7 33.5-37 80.1-70.5 125.2-91.8 3.3-1.6 24.3-11.1 25.9-11.1H929Z" class="shading" data-original-prefix="shading" opacity=".2"/><path id="outline-eyes12" class="outline"  fill="#000" d="M1075 1274c2.1.5 2.3-1.1 2.9-2.6 6.6-18.3-9.6-26.2-20.9-36.4 20.4 3.6 41.1 15.9 62.4 13.9 16.9-1.6 32.9-6.7 46.9-16.1 13.6-9.1 26.2-21.9 39.6-31.5.9-2.7-2.7-9.7-4-12.7-9.5-21.9-31.3-60.5-46.4-78.6-6.7-8-8.7-9-16.9-3s-27.8 21.3-34.1 28.9c-8.8 10.7-16.3 25.1-25.5 36.5-3 3.7-6.1 7.6-10 10.5 3.9-12.4 8.4-25 13.5-37 3.3-7.7 8.1-19.8 12.5-26.5 4.9-7.6 38.4-19.9 39.1-23.2-5.5-16.2-13.2-32-18.3-48.6-2-6.4-6.4-19.1-5.7-25.2 1.8-14.7 26.5-34.2 39.6-39.5 27.5-11 43.2 0 62.4 18.3 6.9 6.7 19.9 24.9 26 29 8.6 5.7 26 7 35.5 13.5 4.2 2.9 12.1 13.2 15.3 17.7 16.9 23.9 25.9 54.9 32.3 83.2l19.9-2.9c2.8 5.2 2.2 12.1 3.3 18.2.8 4.3 4.4 14.4 4.5 17.5 0 1.8-10.3 15.7-8.8 17.3 2.2 2.4 7.6-14.3 12-10.5 0 2 .2 4 0 6-.9 8.1-7.9 29.6-10.7 38.3-3.2 9.6-6.2 16.4-12.8 24.2-3 3.5-24.9 26.6-27.1 27.9-11.1 6.1-35 7-48.8 11.2-4.6 1.4-8.8 4-13.6 4.9-.2 1.8 2.2.9 3.2.7 4.8-.8 8.7-3.8 13.5-4.5 3.7-.6 9.9-1.1 13.8-1.2 3.2-.2 8-.4 11 0 5.7.7-3.1 3.3-4.2 3.8-9.5 4.7-20.6 11.1-30.3 14.7-19.3 7-76.2 9.8-96.2 5.3-7.3-1.7-22.2-17.8-29.8-23.2-2.9-2-11.6-7.8-14.4-8.6-4.2-1.2 1.3 9.2.5 10-14.9 1.2-22.3-6.1-30.5-17.1-.7-1-.3-2.6-.5-2.9zm152.3-230.3c-4.4-4.3-9.9-13.8-14.4-19.1-17.8-21-31.7-42.7-61.6-26.7-9.6 5.1-26.8 20.2-27.4 31.7s9.9 35.6 16.2 45.8c2.8 4.5 4.8 11.1 10.5 8.9 7.6-2.8 20.5-13 28.6-17.4 4.2-2.3 33.6-16.9 35.7-14.8l-1.5 4-52.2 34.3c-.8 1-1.4 2.9-1.4 4.2.2 2.9 9.8 14.1 12.3 17.8 17 25.5 30.4 53.1 44.9 80.1 2.7 3.5 9.8 0 13.4-1.4 17.4-6 49.6-21.1 65.5-30.5 5.6-3.3 12.3-6.7 13-14 .6-5.7-2.8-19.7-4.3-25.7-5-19.6-16.4-43.1-29.7-58.3-6.8-7.7-11.7-10.7-21.8-13.2-6.9-1.7-21.6-1.5-25.9-5.6h.1Z" class="outline" data-original-prefix="outline"/><path id="outline-eyes11" class="outline"  fill="#000" d="M696 1136c.4 3.7-.6 12.1-1.9 15.6-.4 1.2.6 1.6-1.5 1.4-7.9-1.7-16.8-6.9-24.1-8.9-12.6-3.4-24.6 3.3-23.5-15.6 1.7-29.3 21.8-78.4 37.6-103.4 4.3-6.9 19.5-29.6 26.4-31.7 3.1-.9 7.2 1.5 8.9.5.4-.3 3.7-6.5 5.2-8.3 54.7-66.9 129.4-124 216-141 63.4-12.5 145.8-10.7 207.5 9.5 61.9 20.2 144.3 82.1 181.3 135.7 1.3 1.9 2 5.1 2.2 5.3.4.4 7.2-2.1 9.3-1.8 1.3.2 8.1 5.5 9.2 6.8 24.3 25.9 52.8 92.5 55.3 127.7.4 5.4.4 11-4.6 14.2-15.5.2-29.3 6.3-43.8 11.2-1.1 0-3.2-16.1-2.5-18 .2 0 .3-2.1 2-3.5 2.2-1.8 10.2-5.3 13.3-6.7 2.6-1.2 7.1-1.2 7.7-4.3 2.3-12-9.3-35.8-14.8-47.2-2.6-5.4-24.3-45.8-26.9-46.3-1.8-.4-9.7-1.1-11.8-1.1-8.9 0-25 1.7-34 3.1-7.3 1.1-14.3 3.8-21.5 5-.4-1.8.9-2.5 2-3.5 9.9-9.6 25.8-16.9 37.9-23.6-3.3-20.2-20.7-37.5-35.3-50.9-36.9-33.7-90-59.5-135.2-80.8-57-26.9-129.6-27.3-190.1-12.4-25.9 6.4-50.6 20.2-74.6 32.4-39.1 19.9-107.7 57.5-126.5 98.5-1.3 2.9-5.3 10.6-3.2 12.9 9.5 5.4 19.4 10.3 28.3 16.7 2.3 1.6 8.2 5.6 9.6 7.4.8.9 1.8 2.7 1 3.4s-16.5-4.4-19.6-4.9c-5.9-.9-14.8-1.7-20.9-2.1-4.9-.3-24.1-1.6-27 1-8.5 14.8-17.8 29.3-25.4 44.6-4.4 9-13.5 27.8-15 37-.3 2.1-1.1 10.9-.2 12 1.4 1.7 17.2 6.9 21.1 10 2.1 1.7 1.8 2.1 2 4.5v-.4z" class="outline" data-original-prefix="outline"/><path id="outline-eyes10" class="outline"  fill="#000" d="M707 1142c3.7 1.1 10.5 1.1 15.2 2.3 38.7 10.2 74.2 23.9 107.1 46.9 33.7 23.6 55.2 53.4 99.3 57.7 21.2 2.1 43.4-9.1 63.4-14.9.7 2.6-.9 1.8-1.9 2.6-12.3 10.8-22.5 13.5-20 32.8.6 4.4 2.7 3.3 2.9 3.6.4.5.9 3.1.5 4-.5 1.1-13.2 13.7-14.6 14.5-1.8 1-15.2 3.3-15.9 2.6-.2-2.8 1.7-4.6 2-7.5.2-1.5.6-2.8-1.4-2.4-4.5.9-14.5 8.5-18.5 11.5-5.8 4.3-16 15.7-20.7 18.3-10.6 5.9-66.5 3-80.8 1-20-2.8-35.2-11.2-52.9-20.1-.8-.4-7.6-2.1-2.2-2.8 2.3-.3 5.6 0 8 0 4.6.2 11.4.6 15.8 1.2 4.8.7 9.5 3.7 14.5 4.5 1.1.2 3.5 1.1 3.2-.7-20-9.2-42.5-9.1-62.9-16.6-9.1-11.9-23-21.4-31.3-33.7-5.7-8.5-17.6-45.9-18.8-56.2-.2-2 0-4 0-6 .7-5.3 9.8 9.8 10.4 10.6.4.5 1.1 3.7 2.6 1.9 1.7-2-9.5-16.9-9.8-18.7-.2-1 3.9-15 4.4-18.2 1.1-6.1 1.3-12.2 2.3-18.2z" class="outline" data-original-prefix="outline"/><path id="outline-eyes9" class="outline"  fill="#000" d="M998 1254c1.2-6.3 7.5-11.1 10.8-16.7 5.1-8.5 10.6-21.5 8.2-31.3 6 1.8 8.5 2.6 14.5 0-1.4 12 3.8 23.9 10.3 33.7 4.4 6.7 5.8 7.8 9.2 15.3-3.3 0-4 4.3-7 4-.9-5.7-7.9-7.8-12-12.5-1.2-1.4-2.9-3.6-3.9-5.1-.9-1.3-.8-4.1-1.7-4.4-5.5-1.6-6 5.6-9.4 9.5-3.8 4.4-11.3 6.9-12 12.5-1.4 1.3-5.2-4.4-7-5" class="outline" data-original-prefix="outline"/><path id="outline-eyes8" class="outline"  fill="#000" d="M980 1183c-2.2.5-2.2-1.3-3.2-2.3-13.6-13.8-22.1-33.7-33.8-46.2-23.1-24.8-61-45.4-87.9-66.1-1.2-.9-9.5-7-8.1-8.4 15.8 4.1 28.3 15.3 42.3 23.2 19.7 11.1 40.7 20.6 60.6 31.4 4.9 5.5 8.1 12.1 11.2 18.8 2.5 5.2 20.6 47.7 18.8 49.7h.1Z" class="outline" data-original-prefix="outline"/><path id="outline-eyes7" class="outline"  fill="#000" d="M993.5 1233c.7.3.7.7 0 1z" class="outline" data-original-prefix="outline"/><path id="outline-eyes6" class="outline"  fill="#000" d="M1224.3 1174.7c-3.3-2.6-14-22.3-17.1-27.4-6.1-10.3-16.2-25.9-20.7-36.2-2.2-5-2.3-6.6 1-11.1 8.2-11 53.7-36.6 67.1-37.9 7.8-.8 17.5 14 21.6 20.2 8.3 12.6 24.4 45.2 21.3 59.8-2 9.4-23.2 20.2-31.9 24.1-7.8 3.5-34.6 14-41.4 8.5Zm28.5-102.5c-10.6 1.2-48.1 21.7-55.3 29.7-.9 1-2.1 2.5-2.3 3.8-.4 2.8 15 31.2 17.7 35.9 2.1 3.6 15 25.5 16.8 26.2 3.2 1.1 20.6-5.2 24.8-6.8 8.2-3.2 32.9-14.5 34.4-23.6 1.4-8.5-7.6-28.3-11.8-36.1-2.4-4.5-17.6-28.2-20.9-29.2-1.3-.4-2.2 0-3.5 0h.1Z" class="outline" data-original-prefix="outline"/><path id="outline-eyes5" class="outline"  fill="#000" d="M1139.2 1027.2c4.5-4.5 13.7 3.2 7.3 7.8s-11.2-3.9-7.3-7.8" class="outline" data-original-prefix="outline"/><path id="outline-eyes4" class="outline"  fill="#000" d="M1202.8 1044.8c-4.9 4.9-13.5-3.2-7.3-7.8 4.9-3.6 11.2 4.1 7.3 7.8" class="outline" data-original-prefix="outline"/><path id="outline-eyes3" class="outline"  fill="#000" d="M1163.2 1063.8c-6.1-6.1 8.3-14.1 8.8-4.2.3 5.7-5.8 7.3-8.8 4.2" class="outline" data-original-prefix="outline"/><path id="outline-eyes2" class="outline"  fill="#000" d="M1171.7 1031.2c7.6-2.3 10.4 10.4.8 8.8-4.7-.8-4.8-7.7-.8-8.8" class="outline" data-original-prefix="outline"/><path id="outline-eyes1" class="outline"  fill="#000" d="M1173.7 1008.2c7.9-2.3 8.8 10 .8 8.9-4.6-.7-4.9-7.7-.8-8.9" class="outline" data-original-prefix="outline"/><path id="fill-pupil-rt" class="fill"  fill="#fff" d="M1163.8 1250.1c.2 0 .8 2.1 1.6 2.9 8.5 8.8 16.3 15.8 29.2 11.2 9.7-3.5 18.3-14 18.2-24.6 0-3.7-4.3-17.1-3.4-18.6.5-.8 5.9-4.1 6.9-3.9 1.7.3 5.4 7 6.1 8.9 10.5 25.7-9.3 56.5-37.7 53.7-13.3-1.3-29.2-10-33.7-23 .5-2.1 11.2-7.5 12.8-6.6" class="fill" data-original-prefix="fill"/><path id="fill-pupil-lft" class="fill"  fill="#fff" d="M884.2 1250.1c1.6-.9 12.2 4.5 12.8 6.6-4.5 13-20.4 21.7-33.7 23-28.4 2.8-48.2-28-37.7-53.7.7-1.8 4.5-8.7 6.1-8.9.4 0 6.7 3.5 6.9 3.9.9 1.4-3.4 15-3.5 18.6 0 10.6 8.5 21.1 18.2 24.6 13 4.6 20.8-2.4 29.2-11.2.8-.8 1.4-2.7 1.6-2.9z" class="fill" data-original-prefix="fill"/></g><g id="05_Right Ear" data-trait="metal plate"><defs></defs><path id="fill-ear-rt1" class="fill"  fill="#fff" d="M1377.6 547.4c2.3 6.6 3.6 12.4 6.1 17.5 6.5 13.5 4.8 27.4 2.5 41.2-3.2 19.5-6.4 39.1-13.2 57.9-3.3 9.2-8.5 17.3-13.9 25.3-1.5 2.2-2.5 2.9-4.8.7-20.6-19.9-41.3-39.8-62.1-59.5-10.2-9.7-16.3-22-23.4-33.9-7-11.7-8.5-23.2-6.9-36.4 1.4-12 3.7-23.6 6.4-35.3 1.1-4.8 3.4-9.1 6.4-12.9 24.1-29.8 46.5-60.9 71.6-90 35-40.6 76.6-73 121.4-101.8 24.5-15.7 49.1-31.4 74.2-46.2 41.6-24.6 84.1-47.6 128-67.7 15-6.9 30.7-11.9 46.3-17.4 3.4-1.2 3.1.7 3.2 2.7 1.1 18.7 1.2 37.3-.8 55.9-2.3 21.9-5.7 43.6-9.7 65.2-.5 2.6-1 5.3-2.5 7.5-16.6 24.4-23 52.5-29.7 80.6-5.6 23.6-8.8 47.5-8.3 71.8.4 23.5-5 45.9-11.3 68.2-8.9 31.8-17.7 63.7-33.7 92.8-26.5 48.2-58.6 92.2-101.2 127.8-14.8 12.4-31.7 21.5-48.6 30.5-16.8 8.9-32.5 19.7-48.8 29.3-2.9 1.7-4.5 4.1-5.6 7.2-6.8 20.2-14.8 40-25.4 58.5-6.8 12-14.3 24-25.1 33.3-5.2 4.5-9.8 9.5-14.7 14.3-17.3 16.9-36.3 31.5-59.2 39.8-7.1 2.6-15.4.2-20.9-4.7-10.4-9.3-19.3-20.2-28.2-31-1.3-1.6-1.2-2.7 0-4.2 14.7-20.3 21.8-43.9 28.4-67.6 2-7.3 5.3-13.9 10.4-19.7l94.2-106.8c7.9-8.9 8.4-16 1-24.7-1.9-2.2-1.1-3.2.6-4.2 3.8-2.3 4.3-5.7 4.3-9.8 0-24.3 6.1-47.4 14.7-70 .9-2.5 2.3-4.8 3.8-7 4-5.8 7.5-6.4 13.5-2.5 3.4 2.2 6 5.2 8.4 8.5 11.2 15.9 15.9 33.4 14.5 52.8-1.2 16.8-6.8 32.1-14.4 46.9-.8 1.6-1.8 3.2-2.7 4.8v1c2 .4 3.5-.8 5-1.6 24.5-12.7 47.8-27 68.4-45.7 6.6-6 10.3-12.3 11.7-21.3 4-26.6 11.6-52.3 20.6-77.6 6.3-17.8 15.8-33.7 27-48.8 1.9-2.6 1.9-4.2 0-6.9-7.6-11.5-10.5-24.6-10.9-38-1.5-44.6 10.6-85.5 33.7-123.5 21.9-36 50.4-65.2 86.2-87.4 5.4-3.4 9.9-7.3 12.8-13.4 5.3-10.9 11.4-21.4 18.4-31.2-1.1-1-1.8-1.1-2.6-.5-6.4 4.2-13.3 7.8-18.6 13.4-5.6 6-12.4 10.1-19.7 13.3-5.6 2.5-10.2 6-14.6 10.3-14.6 14.4-29.1 28.9-44.3 42.7-36.2 33.1-61.5 73.3-79.3 118.6-2 5.2-2.6 9.8-1.4 15.3 4.3 20.9 7.2 41.9 8 63.2 1.3 34.4-6 66.8-20.4 97.8-4.8 10.3-9.2 20.7-16.3 29.7-3.7 4.8-7.9 9-13.2 12-8.1 4.6-15.4 2-18.3-6.9-1.8-5.4-2.9-10.9-4-16.5-3.4-16.7-9.5-32.5-14.5-48.8-.7-2.4-2.2-4.1-4.1-5.5-17-11.8-35.1-21.6-54.3-31.8v.4Z" class="fill" data-original-prefix="fill"/><path id="fill-panel-ear-rt" class="fill"  fill="#fff" d="M1253.2 614.5c2.9 6.9 5.4 12.8 8.9 18.2 4.9 7.5 11.1 13.7 18.2 19 23.1 17.5 45.5 35.9 66.5 55.9 5 4.8 11.1 8.4 16.5 12.9 9.2 7.6 9.8 12.8 1.5 21.1-27.3 27.4-52.9 56.5-81.2 82.7-11.8 11-18.6 24-22.4 39.1-2.2 8.7-4.6 17.4-7 26-3.6 12.8-10.1 24.2-18.1 34.7-.8 1-2.1 2.1-2.1 3.3-.3 5.1-3.3 4.6-6.5 3.4-16.4-6.3-33.1-12.1-47.2-23.1-2.2-1.7-3.7-3.7-4.5-6.4-2.5-8.6-5-17.2-7.7-25.7-3.1-9.9-1.1-19.2 3.1-28.1 18.3-39 35.9-78.4 57.5-115.6 5.2-8.9 6.5-18.3 8.2-27.9 4.4-26.2 9.6-52.2 14.8-78.2.7-3.4 1-6.8 1.6-11.3zm-3.9 277.5c.3-11.1-6-17.9-17.1-18.3-10.9-.4-20.5 9.3-21 21.1-.4 10 8.2 20.1 17.4 20.5 10.5.5 20.3-10.7 20.7-23.3m84.1-129.6c8.2 0 15.9-6 18.6-14.7.9-2.7.8-5.6 1.2-8.3 1-6.6-1.5-11.7-6.9-15.3-5.3-3.4-11.1-4-16.4-.4-6.7 4.6-11 11-11.9 19.3-1.1 10.2 6.2 19.3 15.4 19.4" class="fill" data-original-prefix="fill"/><path id="fill-stud2-ear-rt" class="fill"  d="M1222.6 893.9c0-6.9 4.2-10.7 12-10.9 4.2 0 7.9 3.9 8 8.6 0 6-5.5 12.2-11 12.3-5 0-8.9-4.2-9-9.9Z" class="fill" data-original-prefix="fill"/><path id="fill-stud1-ear-rt" class="fill"  fill="#fff" d="M1346.9 742.3c0 7.5-3.9 11.8-10.2 11-4.2-.5-7.1-2.6-7.9-7.1-.9-4.9-.5-9.6 2.6-13.8 3.6-5 10-4.6 13.1.7 1.6 2.8 2.5 5.8 2.4 9.1Z" class="fill" data-original-prefix="fill"/><path id="outline-shading-ear-rt1" class="outline"  fill="#000" d="M1234 709.1c0-8.2 2.4-16.1 3.1-24.2.2-2.8 2.5-2.8 4.3-3.3 11-3.2 22-6.3 33.5-9.7-3-3.7-6.5-5.6-9.7-7.8-9.1-6.1-14.1-14.8-16.7-25.1-.4-1.6-.4-3.3 0-4.9 3.2-21.4 6.5-42.8 9.8-64.2 0-.8.5-1.5 1-2.7 9.2 13.9 18.9 26.7 29.6 38.9 11.3 12.8 23.3 24.8 37 35 8.7 6.5 8.8 6.4 13.9-2.9 12.3-22.1 21.4-45.5 26.4-70.3 1.8-9.1 6.1-16.5 11.8-23.7 5.1-6.4 9.8-9 18.4-7.5 17.5 3.2 35.1 6.1 52.2 11 3.3 1 5.3.6 7.1-2.7 6-10.8 11.3-21.8 16.7-32.9 5.5-11.5 4.3-23.8 5.8-35.7 1-7.9 1.5-15.9 2.3-23.9.3-2.4.6-5 2-7.1 19.9-30.6 37.9-62.4 61.1-90.7 7.9-9.7 16.2-19.1 24.7-28.2 5.6-6 11.7-11.4 18.5-16 20.4-13.8 40.7-27.7 61.7-40.7 6.3-3.9 13.1-7.2 19.7-10.7 1.3-.7 13.8 1.7 14.7 2.8 1.1 1.3 0 2.5-.4 3.7-5.4 11.3-13 21.3-21.1 30.6-35.9 41.5-59.7 89.4-76.7 141.1-9.4 28.6-10.2 57.9-5 87.4 2 11.4 2.5 22.2-3.6 32.8-4.9 8.6-7.6 18.4-11 27.8-.2.6-.5 1.2-.7 1.9-.7 2.9-.3 6.2 1.6 7.9 1.7 1.5 4.3-.9 6.2-2.1 5.5-3.5 9.2-8.7 12.8-13.9 16.4-23.6 29.2-49.2 41.9-74.9.8-1.6 1.6-3.2 2.5-4.9 1.6 1.2.7 2.5.4 3.6-18.6 72.5-47.8 140.1-92 200.8-1.5 2-3 4.1-4.9 5.6-26.6 20.3-54.8 37.9-87.2 47.5-12.3 3.6-24.7 6.2-37.7 6.5-16.4.5-27.4 10.7-35.5 23.7-9.2 14.8-17.2 30.5-25.8 45.6-16.6 29.1-32.9 58.5-54.7 84.1-8.9 10.4-13.5 21.8-16.6 34.4-1.3 5.3-2.8 10.5-4.2 15.9 2.4 0 3.3-1.5 4.5-2.5 32.7-28.3 61.9-60.1 90.7-92.3 1.8-2 3-4.4 3.9-6.9 4.4-12.5 9.7-24.7 11.4-38.1.9-7.1 5.4-11.6 13.1-13.9 37.6-11.1 71.6-30.2 106.2-47.9 19.9-10.2 38.5-22.6 55.5-37.1 7.1-6 13.8-12.5 20.8-18.8-3.1 4-6 8-9.2 11.9-17.4 21.1-36.9 40-60.1 54.9-14.5 9.3-30 16.9-44.8 25.7-11.4 6.7-22.6 13.9-33.9 20.8-1.7 1-2.5 2.5-3.2 4.2-10.5 24.5-21.1 48.9-31.5 73.4-1.7 4.1-4.1 7.5-7.4 10.5-26.6 24-53.2 48-79.6 72.2-2.7 2.5-5 2.9-8.4 1.9-13-3.7-26-7.2-39.1-10.6-3.2-.8-5.2-2.2-6.5-5.3-4.4-10.5-12.9-17.6-21.5-24.4-4.1-3.2-7.5-7.3-11.9-9.7-9.8-5.4-20.1-10.1-31.5-10.8-2.6-.2-3.8-1.1-4.8-3.4-7.1-16.1-14.3-32.3-21.6-48.4-.7-1.6-1.1-3-.4-4.8 4.8-11 9.5-22 14.2-33 2 .4 1.4 1.9 1.5 2.8 3 17.7 12.1 33 19.3 49 2 4.4 4 8.8 6 13.1.9 1.8 1.8 3.8 4.1 3.9 2.4 0 3.2-2.3 3.3-3.8.7-9.5 7.6-14.6 13.6-20.8 14.3-14.7 25.5-32 36.9-49 14.1-21 27.9-42.2 42.8-62.8.6-.8 1-1.7 1.9-3.1-38 8.1-74.4 19.5-112.2 29.5 1.2-2.6 2-4.5 3-6.3 6.5-12.2 12.5-24.6 17.8-37.4 1.3-3.1 3.1-4.6 6.3-5.5 26.2-7.5 52.3-15.4 78.6-22.5 7.7-2.1 12.8-5.8 16.6-12.6 3.9-7.1 4.3-7-2.4-11.5-5.4-3.6-10-9.9-16.2-10.1-5.8-.2-11.9 3.8-17.8 5.9-13.8 5-27.5 9.9-41.3 14.9-1.2.4-2.4 1.2-3.8.7Zm-4.8 193.4c-2.3-7.7.9-13.2 7.1-17.3.8-.5 2-.8 1.4-2.1-.4-.9-1.4-.7-2.2-.7h-4c-5.4.2-8.8 4.9-9.9 12.7-.9 6.2 3.2 6.7 7.6 7.5Zm99.6-156.5c3.6-11.8 8.3-14 18.6-9.9 0-8.6-4-9.5-11.3-8.7-6.7.7-9.7 8.2-7.3 18.6" class="shading" data-original-prefix="shading" opacity=".2"/><path id="outline-ear-rt3" class="outline"  fill="#000" d="M1735.4 208.8c1.6 15.9 0 30.4-1 44.8-1.6 25.4-2.3 50.9-6.5 76.1-1.4 8.3-3.6 15.7-9.6 22.4-8.9 9.8-14.3 21.7-17.9 34.7-7.3 26.5-11.5 53.4-12.3 80.8-.2 7.9.6 15.6 4.1 22.9 2.2 4.5 2.2 9.2 1.2 14.1-15.2 75.4-46.3 144.2-89.1 207.6-20.5 30.3-47 55.3-76.8 76.5-21.1 14.9-42.4 29.5-66.1 40.1-9.4 4.2-16.1 11.1-21.6 19.4-12.5 19.2-23.7 39-30.4 61.1-2.1 6.7-5.7 12.5-11.6 16.5-20.1 13.7-36.9 31.2-53.7 48.5-9 9.3-20.7 12.5-31.8 17.7-5.9 2.8-11.3 2.2-17.2.4-10.5-3.1-21.1-5.8-31.4-9.8-3.1-1.2-5.4-2.9-7.4-5.6-5.8-7.9-11.9-15.7-17.7-23.6-3.5-4.7-7.9-8-13-10.7-14.4-7.8-29.7-13.3-45.8-16.4-6.3-1.2-10.8-4.8-14.2-10.1-11.8-18.5-18.2-39-23.2-60.1-1-4.3.5-7.9 1.9-11.5 3.1-7.8 8.3-14.4 13.2-21.1 22.9-31.6 41.9-65.3 56.9-101.3 18.9-45.4 25.1-93 23.3-141.8-.2-5.4-.4-10.6 4.4-14.6 1.6-1.4 1.6-3.9 1.7-6.1.4-10.7 1.2-21.3 1.3-32 0-6.6 1.8-11.9 5.7-17.4 19.4-27.1 38.8-54.2 59.1-80.6 28.6-37.4 61-71.4 93.4-105.5 1.9-2 4.1-3.9 6.4-5.5 64.7-45.2 132.5-84.7 206.2-113.5 27.3-10.6 54.4-22.1 82.7-29.7 7.9-2.1 15.9-3.8 23.9-5.4 6.9-1.3 7.4-.7 9.5 5.9 3.5 11.2 3.1 22.7 3.3 32.7 0 .1 0 0 0 0Zm-357.8 338.6c19.2 10.2 37.3 20 54.3 31.8 1.9 1.3 3.4 3 4.1 5.5 4.9 16.2 11.1 32.1 14.5 48.8 1.1 5.5 2.2 11.1 4 16.5 2.9 8.8 10.2 11.4 18.3 6.9 5.3-3 9.5-7.2 13.2-12 7-9.1 11.5-19.5 16.3-29.7 14.4-31 21.7-63.4 20.4-97.8-.8-21.4-3.8-42.4-8-63.2-1.1-5.5-.6-10.2 1.4-15.3 17.8-45.3 43.1-85.5 79.3-118.6 15.1-13.8 29.6-28.3 44.3-42.7 4.3-4.3 9-7.8 14.6-10.3 7.3-3.3 14.1-7.4 19.7-13.3 5.3-5.6 12.2-9.2 18.6-13.4.8-.5 1.6-.4 2.6.5-7.1 9.8-13.1 20.3-18.4 31.2-3 6.1-7.4 10.1-12.8 13.4-35.8 22.1-64.4 51.4-86.2 87.4-23.1 38-35.3 78.9-33.7 123.5.5 13.4 3.4 26.5 10.9 38 1.8 2.7 1.8 4.3 0 6.9-11.1 15.1-20.7 31-27 48.8-8.9 25.3-16.5 51.1-20.6 77.6-1.4 9-5.1 15.3-11.7 21.3-20.6 18.7-43.9 32.9-68.4 45.7-1.5.8-3 2-5 1.6v-1l2.7-4.8c7.7-14.7 13.2-30 14.4-46.9 1.4-19.4-3.3-37-14.5-52.8-2.3-3.3-5-6.3-8.4-8.5-6-3.9-9.5-3.3-13.5 2.5-1.5 2.2-2.9 4.5-3.8 7-8.6 22.5-14.7 45.6-14.7 70s-.4 7.5-4.3 9.8c-1.7 1-2.4 2-.6 4.2 7.4 8.7 6.9 15.8-1 24.7l-94.2 106.8c-5.1 5.7-8.3 12.3-10.4 19.7-6.6 23.7-13.7 47.3-28.4 67.6-1.1 1.6-1.3 2.6 0 4.2 8.9 10.8 17.8 21.7 28.2 31 5.5 5 13.8 7.3 20.9 4.7 23-8.3 41.9-22.8 59.2-39.8 4.9-4.8 9.6-9.8 14.7-14.3 10.8-9.3 18.3-21.3 25.1-33.3 10.5-18.5 18.6-38.3 25.4-58.5 1.1-3.2 2.7-5.5 5.6-7.2 16.4-9.6 32-20.4 48.8-29.3 16.9-9 33.8-18.1 48.6-30.5 42.6-35.5 74.7-79.6 101.2-127.8 16-29.1 24.7-61 33.7-92.8 6.3-22.3 11.7-44.8 11.3-68.2-.4-24.3 2.7-48.1 8.3-71.8 6.7-28.1 13.1-56.2 29.7-80.6 1.5-2.2 2.1-4.9 2.5-7.5 4-21.6 7.4-43.3 9.7-65.2 1.9-18.6 1.8-37.3.8-55.9 0-2 .2-4-3.2-2.7-15.5 5.5-31.3 10.5-46.3 17.4-43.9 20.2-86.4 43.2-128 67.7-25.1 14.8-49.7 30.5-74.2 46.2-44.8 28.7-86.4 61.2-121.4 101.8-25 29.1-47.4 60.2-71.6 90-3 3.8-5.3 8.1-6.4 12.9-2.7 11.7-5 23.3-6.4 35.3-1.6 13.2 0 24.7 6.9 36.4 7.1 11.9 13.2 24.2 23.4 33.9 20.8 19.7 41.5 39.6 62.1 59.5 2.3 2.2 3.3 1.5 4.8-.7 5.4-8 10.6-16.2 13.9-25.3 6.8-18.7 10-38.3 13.2-57.9 2.2-13.8 3.9-27.7-2.5-41.2-2.5-5.2-3.8-10.9-6.1-17.5v-.4Zm-124.4 67.1c-.6 4.5-.9 7.9-1.6 11.3-5.3 26-10.4 52-14.8 78.2-1.6 9.6-3 19-8.2 27.9-21.7 37.3-39.3 76.6-57.5 115.6-4.2 8.9-6.2 18.2-3.1 28.1 2.7 8.5 5.3 17.1 7.7 25.7.8 2.7 2.3 4.7 4.5 6.4 14.1 11 30.8 16.8 47.2 23.1 3.1 1.2 6.2 1.7 6.5-3.4 0-1.1 1.3-2.2 2.1-3.3 8-10.6 14.5-21.9 18.1-34.7 2.4-8.6 4.8-17.3 7-26 3.8-15.1 10.6-28.1 22.4-39.1 28.4-26.3 54-55.3 81.2-82.7 8.3-8.3 7.7-13.5-1.5-21.1-5.4-4.5-11.5-8.1-16.5-12.9-21-20-43.4-38.4-66.5-55.9-7.1-5.4-13.3-11.6-18.2-19-3.5-5.4-6-11.3-8.9-18.2z" class="outline" data-original-prefix="outline"/><path id="outline-ear-rt2" class="outline"  fill="#000" d="M1249.3 892c-.4 12.7-10.2 23.8-20.7 23.3-9.2-.4-17.7-10.5-17.4-20.5.4-11.9 10-21.5 21-21.1 11.1.4 17.4 7.1 17.1 18.3m-26.7 1.9c0 5.7 4 10 9 9.9 5.5 0 11-6.3 11-12.3s-3.7-8.7-8-8.6c-7.8.2-12 4-12 10.9Z" class="outline" data-original-prefix="outline"/><path id="outline-ear-rt1" class="outline"  fill="#000" d="M1333.4 762.4c-9.2 0-16.5-9.1-15.4-19.4.9-8.3 5.2-14.7 11.9-19.3 5.3-3.6 11.1-3.1 16.4.4 5.4 3.5 8 8.6 6.9 15.3-.4 2.8-.3 5.6-1.2 8.3-2.8 8.6-10.4 14.7-18.6 14.7m13.5-20.1c0-3.3-.8-6.3-2.4-9.1-3.1-5.4-9.5-5.7-13.1-.7-3.1 4.2-3.4 8.9-2.6 13.8.8 4.4 3.6 6.6 7.9 7.1 6.4.7 10.2-3.5 10.2-11Z" class="outline" data-original-prefix="outline"/></g><g id="06_Left Ear" data-trait="cracked"><path id="fill-ear-lft" class="fill"  fill="#fff" d="m752 993 3-3-53.9-36.7 23-48.7c-.3-1.7-25.8-15.7-28.6-19.7-5.5-7.9 5.5-19.8 7-28-20.2-21.9-39.9-44.5-62.5-64-3.2 11.8-7.8 25.1-13.8 35.7-.5.9.4 1.7-1.5 1.1-14.2-7.6-29.1-14-43.3-21.7-19.6-10.6-58.5-31.1-72.8-46.2-27.5-28.9-52.5-61.9-79.7-91.3L379.4 549c-6.2-63.5-19.6-125.9-35.4-187.6-6.4-25-20.4-60.6-22-85-1.5-24.5-1.3-48.4-1.9-72.1-.1-3.8-2.9-15.6 0-18 1.6-1.3 13.8-5.5 16-5.1 34.7 16.9 71.1 30.5 105.7 47.4 50.9 24.8 99.7 57 150.3 82.7 38.7 39.9 85 75.9 123.1 115.9 24.1 25.3 45.6 55.7 69.5 81.5 10.7 66.2 14.2 133.5 20.7 200.3l82.8 169.2-33.4 54.7c-8.6 11.6-42.3 33.3-55.9 41.1-8.3 4.8-25.9 11.6-34.7 14.9-3.6 1.3-8.1 3.5-12 3.9Z" class="fill" data-original-prefix="fill"/><path id="outline-shading-ear-lft" class="outline"  fill="#000" d="M546.1 369.9c-4.9-11.5 3.5-11.7 10.8-16.4 3.7-2.4 19.4-12.5 21.1-14.9 2.1-2.9 4.7-12.6 4-16-1.2-6.3-14.1-5.9-18.4-6.6-24.9-4.1-55.8-9.7-79.6-17.4-11.6-3.8-23.1-10.4-34.8-14.4-2.1-.7-11 8.7-11.2 9.4-.3 1.5.9 1.6 1.6 2.3 7.9 7.4 22.6 14.2 31.9 22.1 7.1 6.1 14.7 14.9 21 22 7.3 8.2 19.8 27.4 27 33 11.8 9.3 31.4 14.5 45 26 1.5 1.3 6.5 6 4.5 8-3.9 3.9-32.2-15.7-37.5-18-4.3 0 2.5 5 2 7-5-1.8-15.8-12.4-20.2-12.8-2.2-.2-9.2 4.6-7.3 6.8 1.5-.1 2.7-1 4.2-.8 7 .7 37.8 28.3 44.3 34.8 2 1.9 12 12.3 12.3 13.8.5 2-.9 3.8-.8 5.7.8 13 2.9 26.1 3.9 39.1 1 12.4.1 41.2 4.8 51.2 1.3 2.9 4 3.1 5.3 4.7 3.1 4-7 13.2-11.7 13.5-9 .6-24.8-4.2-34.9-5-2.3-.2-4.7 0-7 0-2 3.2 1.5 4 4 5 7.7 3.2 33.1 7.9 41.1 7 7.4-.9 7.3-7.3 12.5-11l19 48c0-9.5 2.2-20.1 1-29.5-.5-3.9-7.2-16.5-5.6-18.5.8-1.1 23-5.9 26.4-6.6 6.9-1.4 32.4-6.6 37.5-5.1 2.3.7 15.5 17.2 16.7 20.2 6.3 15.2 10.3 40.2 15.7 57.3 28 89.6 70.8 173.1 130.3 245.7 7.6 9.3 36.2 38.8 38.5 47.5 3.1 11.7-7.4 26.7-15.5 33.6-19.8 16.7-48.3 36.1-72.9 44.4-3.8 1.3-13.1 1.9-16.8.3L710 954.4l13.5-37.3c16.8 15.6 32.2 34.6 50.5 48.5 1 .8 1.3 2 3 1.5-3.2-13.1-2.5-27-4-40.5-15-22.6-34.3-41.7-51.5-62.6-1.8-3.5 4.3-7.8 3-10.9-5.3-6.7-10.5-13.7-15.3-20.7-6.2-9-21.1-27.5-24.7-36.3-6.1-14.9-7.5-36.4-12.8-52.2-1-3-1.5-5.8-4.2-7.8-.8 4.7 1.7 9.8 2.4 14.6 2.1 15.5 4.5 26.3 7.6 41.4 2 9.5 3.4 19.1 5.4 28.6 0 1.9-9.3 8-11 7-8.1-9.3-15.9-20.5-24.3-29.2-1.4-1.5-7.2-4.8-7.6-6-1-3.2 12.7-21.6 11.9-27.3-1.9.2-5.4-1.8-6.9-.9-1 .6-8 19.9-8.8 22.7-1.8 6-6.9 35.3-9.7 37.3-2 1.5-4.2 1.2-6.3.2-35-21.2-70.6-41.5-104.3-64.7l-22-24c.3-1.2 2.2-.3 3 0 8.3 3.3 24.2 15.6 33 21 20.7 12.4 44.2 26.2 66.2 35.8 8.8 3.8 17.8 8 27.7 6.8-1.7-5.2 15.4-34.7 14-36-35.5-1.8-70.1-17.8-99.5-37-17.3-11.3-24.8-17.3-36.7-34.3-32.7-46.7-58.4-103.5-75-158-3.1-10.1-8.3-25.3-9.7-35.3 0-.6-.3-1.6.5-1.5 14.4 26.7 27.1 57.2 45.3 81.7 4.8 6.5 11.5 16.2 20.2 16.3-.3-2.8 1.1-5.2.6-8-2.1-13.2-15.6-31.9-17.4-43.7-1-6.8 2.8-14.2 1.6-21.1-5.7-1.1-24.3-1.8-19.7-11.4 4-8.4 16-12.8 6.2-22.6l-42.9-30.1-38.5 25c.9-5-3.4-14.8-1.5-19 .5-1.2 14.6-15 16.6-16.4 4.5-3.4 9.3-5.5 14.9-6.1l-44-37c-2.6-6.9-7.6-26.6 5.5-16.5 14 10.9 28.1 22.9 41.5 34.5s25.6 24.6 39.5 35.5c.8.2.5-.8.5-1.5 0-4.5-4.5-25.4-6.2-29.8-4.6-12.1-20.6-26.7-24.3-37.7-5.5-16.1-8.1-31-15-48-10-24.6-22.3-54.6-33.7-78.3-1.4-3-8.3-11.2-7.6-14.1s3.7-4 6.6-3c3.9 1.4 11.2 6.4 15.2 8.8 12.3 7.4 23.9 16.2 35.8 24.2 9.7-3.9 24.1-12.3 34.8-10.7 8.2 1.2 30.2 14.2 39.9 18.1 12.1 4.8 27.2 8.9 40.2 9.8 4.7.3 14.4-1.2 17.5-.5 2.9.6 40.7 26.5 44.9 30.1 1.2 1 4.1 3 3.9 4.7-.2 2.7-9 14.5-11.3 16.7-3 2.7-31.4 21.3-34.5 22.5-1.9.7-3.8.9-5.8.4ZM659 772c-2.3-.4-1.6.1-2.2 1.3-1.2 2.3-5 11-4.8 13.1.5 4.9 9.7 13.7 13 17.6z" class="shading" data-original-prefix="shading" opacity=".2"/><path id="outline-ear-left" class="outline"  fill="#000" d="M844 941c15.5-16.5 32.2-43.8 28.9-67.4-6.7-13.7-9.4-29.6-15.7-43.3-6-12.9-15.5-26.5-22-40-9.5-19.5-34.1-68-37-87-7.6-49.1-6.7-103.9-13.1-153.9-1.5-11.5-5.2-27.9-11.6-37.4-13.5-20.2-34.8-45.2-50.5-64.5-33.9-41.7-67.6-75.2-111.7-106.3-1.6-1.1-13.6-9.8-14.3-9.2-1.2 19.7-19.5 21.3-31.5 31-11.5 9.4-7.4 12.4-1.7 23.6 9 17.6 20.3 34.2 32 50.1-5.7 47.5 6 95 22.2 139.2l52-28c1 1.1-9.1 24.9-9.8 28.7-2.9 17 7 62.6 12.5 80 5.5 17.5 13.9 29.8 25.8 44.2 45.9 55.8 63.5 122.1 103.3 180.7 3.7 5.5 18.5 23.3 19.2 27.8.4 2.9-.3 6 0 8.9.6 4.9 3.1 17.6 1.5 21.5-1.4 3.2-26.3 24.1-28.5 22 .6-4.8 4.2-9.9 4.9-14.6 4.6-33.1-34.5-99.7-51.7-129.1-18.9-32.3-44.1-69.1-69.2-96.8-2.6-2.9-13.1-11.6-14.1-13.2-2.1-3.6-.5-15.8-.9-20.8-1-13.7-9.9-51.7-17.6-62.4-10.8-15-26.2 8.7-29.3 19.2 21.2 32.6 47.1 67.2 53.7 106.4.8 5 .5 11.5 1.4 16.6 3 17.9 10 35.5 12.3 53.7l32 33c1.3 4.3-5.9 12.4-7.8 17.3-.6 1.5-2.3 6.4-1.7 7.5.5.9 14.3 10.5 16.9 12.7 2.7 2.3 13.6 11.5 13.8 14.2-8.8 14.5-14.1 30.7-19.7 46.6.6 2.3 16.1 12.2 19.2 13.9 19.4 10.5 30.2 13.7 52.3 8 6-1.5 11-4.9 17.4-5.1-8.4 8.7-23.5 14.3-35.7 18.8-16.9 6.2-30.8 10.7-48.3 2.8-6-2.7-10.1-9.7-15.6-12.4-2.4-1.2-4.6-.9-6.9-2.1-3.8-2-11.7-9.6-11.2-14.3 8.2-19.5 16.7-38.8 22.7-59.1-3.2-5.2-30.5-14.7-31.5-16.7-1.6-3.2 6.1-19 7.6-23.5.8-2.6 3.5-8.5 2.8-10.8-13.6-17.7-29-33.7-43.8-50.2-4.2 1.1-1.1 7.9-1 11 .4 14.2-.4 28.4 0 42.5-32.3-9.8-63.2-27-91.9-44.6-48.4-29.7-87.6-62.3-118.5-110.5-35.1-54.7-66.7-124.9-79.1-188.9-3.4-17.2-.6-13 2.4-27.6 5.1-24.9-5-87.6-15.4-111.4-6.4-14.6-18.5-21.4-22.2-37.8-2-8.9-3.4-20.6-4.3-29.7-3.1-32.8-8.7-94.9-1.3-125.3 1.7-7.2 1-10.7 9.5-9.9 30.4 2.9 86 26.2 115.8 38.3 62.2 25.3 145.8 69.1 198.4 110.6 15.7 12.4 35.3 35.4 49.2 50.8 39.5 43.8 77.3 92.8 110.1 141.9 3 4.4 4.7 3.6 5.4 10.6 2.1 21.1 1.2 43.6 3 65 4.4 51.5 12.5 128.1 42.2 170.8 3.6 5.2 8.8 10.1 12 15 7.4 11.4 13.7 33.5 20 47 8.3 17.9 19.8 31.8 20.8 52.2.2 3.2.5 7.5-.5 10.5-10.9 13-19.9 33.6-31.5 45.5-4.5 4.6-15 9.8-21 13-1 .5-3.5 2.4-4 .5ZM553 303c-19.8-11.4-38.6-24.7-58.3-36.2-25-14.6-52.7-29.4-78.6-42.4-28.2-14.1-56.9-26.9-87-36.4-2.4 25.4-1 51.1 2.1 76.3 1.6 12.7 3.6 27.3 6.1 39.9 4 19.6 14 30.2 20.7 48.3 3.8 10.2 11.3 46.2 15.9 51.1 8.2 8.5 19.3 16.7 28 25 9 8.5 42.3 43.8 50.5 46.5 2.5.8.8-1 .8-1.8-1.2-10.8-2.9-30.3-7.8-39.3-5.9-10.9-29.6-26.5-31.3-34.7-2.1-10.2 1.5-27.8 1.8-38.7.3-8.7-1-17.6 1-26.1-2.8-7.2.9-20-1.7-26.2-.5-1.3-13.7-11.4-16-13-7.8-5.6-16.5-9.8-23.9-16.1l-22.5-39c13 3.4 21.1 15.6 32.1 22.4 6 3.7 13.1 5.8 18.8 10.2 3.1 2.4 15.1 15.9 16.7 16.2 7.7 1.5 17-15.5 28.8-13.8 3 .4 14.5 8.1 18.9 10.1 21.2 9.7 53.9 17.5 77.1 18.9 1.6.1 6.8.8 7.5-1Zm5 97c-7.9-14.4-11.9-29-20.2-43.3s-25.9-42.9-41.6-48.4c-14.8-5.2-33.1-5.9-48-12-6.3-1.9-10.5 2.8-16.3 3.8 21 20.8 42.8 40.2 60.4 64.1 1.6 2.2 8 13.4 8.7 13.8.5.4 7-2.8 9.4-3 13.7-1 34.4 20.4 47.5 25Zm-8.7-43.3c2.8 2.7 7.1 3 10.7 1.9 1.2-.4 18.3-13.4 20-15 3.2-3.1 9.9-15.4 7.1-19.1-.3-.5-8.7-5.7-9.8-6.3-7.5-3.6-23.7-2.5-32.8-3.2-5.4-.4-11.1-1.4-16.5-2-.8.8 8.6 18 9.8 20.6 3 6.3 6.6 18.4 11.5 23Zm-.6 327.6c-1-1-3-1-4.2-2.3-2.4-2.7-9.6-43.6-11.6-51.4-8.5-32.9-20.2-65.6-41.8-92.3v-1.6c14.5-20 14.5-48.4 11.8-72.1C496.6 410.5 468 358.3 429 321l-.8 63.3c1.7 9.4 18 18.9 24.3 25.7 12.4 13.4 18.8 59.9 19.5 78.5.2 4.2.3 31.1-1 32.5-4.4-.1-22.9-10.9-24.9-4.4-.3 1.1 2.5 10.8 3.1 12.7 2.8 7.5 9.4 15.7 9.3 23.7-3.8-8-26.2-33.4-26.4-40.5-.3-13 24.3-5 25.9-15.1 1.4-8.8-6.8-9.4-12.7-13.2-7.3-4.7-13.8-11.8-21-17-3.1-2.2-13.1-9.4-16.1-10-8.6-1.7-20.1 11.1-28 14-2 25.6 5.3 50.6 12.1 75 19.8 71.4 48.5 126.6 98.2 181.8 32.5 36.1 59.6 49.1 100.2 72.8 11.8 6.9 22.8 15.6 35.3 21.2.5-11.8 3-22.4 7-33.5 4.2-11.8 18.5-34.5 20-44 .5-3.1.2-6.1-.7-9.2-2.5-8.5-18.4-31.3-23.7-41.3-6.3-11.7-12-23.9-17.5-36l-2 7.5c-1.2 18.7.6 32.5 7.3 49.8 2.8 7.2 6.5 13.8 9.7 20.8-1.1 1-13.5-5.7-15.7-6.8-22.8-12.2-43.5-26.7-61.6-44.9Zm-22.6-146.4c12.6 3.8 28.2 5.4 41.4 4.2 8.9-.8 16-12.1 19.5-19.5-4.7-22.5-3.6-47.3-9.8-69.3-2.8-9.8-6.8-20.8-10.8-30.2-15.3-9.9-30.8-24.7-46.5-33.5-3.9-2.2-7.2-4.4-11.9-3.6-.2 1.4 0 2.6.6 3.9 2.3 6.3 9 15.7 12.3 22.7 2.8 6 13.3 28.2 13.9 33.1.8 6-5.5 28.1-6.7 35.9-1.7 12.3-3.2 28.6-3.2 40.9s1.7 10.2 1.2 15.4M404 445c.5-3.9-3.8-5.8-6-8.5L375 419c2.4 12.5 3.6 25.2 4 38 8.3-3.9 15.5-10.8 25-12m122 102c.7 6 1.4 11.9 2.7 17.8 5.1 22.8 24.3 79.3 45 91 10.2 5.8 17 3.1 20.6-8 1.7-5.4 7.7-29.6 7.7-34.3 0-6.1-3.8-19.1-4.8-26.2-2.5-16.4-5.2-32.8-7.2-49.3-4.5 4.7-9.6 11.8-16.5 12.9-7.6 1.2-45.7-5.7-47.4-3.9Zm147 263c-3.9-6.4-8.6-51.9-11-53.5-1-.7-1.9-.5-3-.5-.2 7.4-9.1 21.8-7.8 28.2.7 3.8 5.8 10.5 8.3 13.8 1.7 2.2 11.1 13.8 13.5 12" class="outline" data-original-prefix="outline"/></g><g id="07_Head" data-trait="spiked"><path id="fill-head1" class="fill"  fill="#fff" d="M1025 353c30.8 112.9 59.6 226.5 87.3 340.2 11.4 46.6 27.1 99.2 35.2 145.8.9 5.3 2 12.3 1.5 17.6-1.3 13.5-23.1 32.1-33.6 40.4-3.5 2.8-14.3 8.8-16.1 10.9-2.2 2.8-3.8 9.9-5.6 13.4-5.5 11.2-11.3 19.1-20.3 27.7-8.4 7.9-14.1 6-12.3 20.2 2 15.6 13.6 38.7 13.8 53.3 0 5.5-6.2 17.9-9.2 22.8-20.3 32.5-63.3 32.5-83.6 0-2.7-4.3-7.9-14.5-8.8-19.3-2.1-12.4 11.4-42.3 13.3-56.8s-3.9-12.3-12.3-20.2c-9-8.6-14.8-16.5-20.3-27.7-1.8-3.6-3.3-10.7-5.6-13.4-1.9-2.4-16.8-11.4-21.1-14.9-8.7-7.2-29.1-25.9-29.6-37.5-.2-4 1.7-12.2 2.6-16.5 6.6-34.2 16.9-70.6 25.2-104.8 23.7-98 47.9-196.1 73.4-293.6 6.8-26 13.4-53 21.4-78.6.7-2.2 1.5-5.6 2.4-7.6.5-1.2-.5-1.8 2.1-1.4Z" class="fill" data-original-prefix="fill"/><path id="outline-shading-head" class="outline"  fill="#000" d="M962 829c.5.3 3.9 9.8 3.9 10.5.2 6-5.8 20.7-6.6 28.3-1.5 14 6.4 44.4 13.6 56.9 3.4 6 9 12.4 16.1 13.3 4.8-8.1 7.8-21.3 12.9-28.7.9-1.3 1.1-2.7 3.2-2.3 2.5 3-10.2 39.3-11.7 45.8-4 17.4-2.6 28.8-3.3 45.7-.2 6.2-2.2 13.7-2.1 20 .3 50.3 76.2 51 72.1-7-.3-3.5-1.7-7.5-2-11-1.3-17.4.7-29-3.5-47.5-1.5-6.7-13.3-41.3-12.4-44.4.2-.8 1.5-1.8 2.4-1.6 1.7.4 12.4 27.3 14.6 31 10.8-2.1 16.3-13.1 20.1-22.3 4.6-11.1 10.9-36.3 9.6-47.9-.9-7.6-6.8-22-6.8-28.3 0-3.7 3.7-6.8 4.1-10.5 1.5-1.4 3.6 3.4 4.2 4.3 4.6 7.9 8.8 16.8 12.8 25 .2.9 1.9.8 2.5.7 1.1-.3 11.8-15.7 13.1-18 2-3.7 3.9-7.9 5.2-11.8s4.3-20.6 6.3-21.7c1-.6 2-.5 3-.5l13.8 55.8c.2 3.5-6.6 11.3-9.3 14.2-5.7 6.2-22 21.3-28.9 25.1-2 1.1-4.3.5-6.1 1.9-4.8 3.9-6.1 12.2-8.7 17.3-5.8 11.7-11.9 19.8-21.3 28.7-7.1 6.7-13.1 6.1-11.3 18.2s7.8 26.5 10.5 38.5c3.8 16.8 4.8 20.8-4.2 36.2-24.1 41.1-75.9 33.1-92-10-4-10.8-1.6-15.5.8-26.2 2.7-12.1 8.7-26.9 10.5-38.5.3-2.3.7-5.4 0-7.6-.5-1.6-16.8-15.8-19.8-19.2-5.9-6.8-9.8-13.3-13.7-21.3-1.8-3.5-1.8-7.7-4.7-11.3s-10.8-7.6-15-11c-11.8-9.6-23.8-20.1-32.4-32.7l13.8-58.2c1.1 0 2-.2 3 .5 1.7 1 4.7 17.4 6 21 4 12 11.2 22.2 19.5 31.5l15.7-29.3c.4-1.1 2-2.3 2.8-1.7Z" class="shading" data-original-prefix="shading" opacity=".2"/><path id="outline-head1" class="outline"  fill="#000" d="M1025 331c11.2 34.9 20.4 70.4 29.7 105.8 35.2 134.1 66.7 269.3 100 404-.2 5.3 1.5 10.5 1.3 15.8-.4 14.5-18.5 31.1-29 40-5.1 4.3-19.1 12.7-22 16-2.7 3.1-5.2 13-7.5 17.5-7.2 13.8-18.8 23.8-30.4 33.7l14.9 58.8c-8.6 36.5-28.8 55.5-67.6 52.5-25.9-2-46.2-30-48.2-54.3l14.6-55.5c.2-3.9-8.4-8.4-11.3-11.2-6.9-6.5-14.6-15.7-19-24-2.1-4.1-5.2-15.1-7.5-17.5-2-2.1-10.9-6.7-14.5-9.5-14.8-11.8-37.2-30.2-36.6-50.5 31.5-138.6 65-277.3 101.1-414.9 7.8-29.9 15.4-60.9 24.7-90.3 1.3-4 3.2-11.7 5-15 .6-1.2 0-1.7 2.2-1.3Zm0 4c-2.4-.2-1.8-.3-2 1.5-.5 3.6-.5 7.8-1 11.5 2.5 0-.7-5.9 2.5-5 1.5.4-.8 5 1.5 5zm0 49c-2.6-.3-1.6 0-2 1.5-5.8 19.7-8 42.3-12.5 62.5-28.9 131.3-63.8 265.8-98 396-1 3.8-5.1 13.2-5.2 15.7-.4 8.3 25.9 38.3 34.2 39.4 2.2.3 1.2-.3 1.5-1.5 8.3-34.1 16.9-68.2 24.5-102.5 19.4-87.5 33.8-176.1 55.5-263 2.3-.4 1.6.1 2.2 1.3 1.9 3.4 3.2 11.5 4.3 15.7 19.5 79.2 32.3 161.4 49.8 241.2 8 36.4 17.9 72.3 25.7 108.8 2 2 15.9-10.4 18-12.5 4-4 16.1-19 16.9-24.1.8-5.5-3-12.8-4.4-18.4-31.6-124.7-64.5-249.5-93-375-6.4-28.2-11.9-56.6-17.5-85Zm0 219c-2.4-.6-2.2.9-2.7 2.8-3.6 13.8-5.6 30.1-8.6 44.4-18.5 87-37.8 173.9-58.6 260.4 4.3 17.3 15.2 33.1 30.4 42.4l38-109c2-.5 3.4 3.7 4 5 5.9 14.4 10.1 33.5 15.2 48.8 6.2 18.5 13.2 36.7 19.3 55.2 15-8.9 25.5-24.2 30.8-40.7-23.8-102.8-47-205.8-67.8-309.3m0 270c-2.6-.3-1.6 0-2 1.5-14.8 50.4-31.7 100.1-41 152 8.7 45 75.4 45 84.1 0-6.1-27.3-11.8-54.8-19.4-81.7-6.7-24.1-16.3-47.4-21.7-71.8" class="outline" data-original-prefix="outline"/><path id="outline-head2" class="outline"  fill="#000" d="m1025 335 1 13c-2.3 0 0-4.6-1.5-5-3.2-.9 0 5.1-2.5 5 .5-3.7.5-7.9 1-11.5.2-1.8-.4-1.6 2-1.5" class="outline" data-original-prefix="outline"/></g></svg>